<?xml version="1.0" standalone="no"?>
<!DOCTYPE svg PUBLIC "-//W3C//DTD SVG 1.1//EN" "http://www.w3.org/Graphics/SVG/1.1/DTD/svg11.dtd" >
<svg xmlns="http://www.w3.org/2000/svg" xmlns:xlink="http://www.w3.org/1999/xlink" version="1.1">
<metadata>
Created by FontForge 20170731 at Sat Feb  4 01:37:07 2012
 By Aleksey,,,
Copyright (c) 2011 Natanael Gama (exo@ndiscovered.com), with Reserved Font Name "Exo"
</metadata>
<defs>
<font id="Exo-Thin" horiz-adv-x="552" >
  <font-face 
    font-family="Exo"
    font-weight="100"
    font-stretch="normal"
    units-per-em="1000"
    panose-1="2 0 2 3 0 0 0 0 0 0"
    ascent="800"
    descent="-200"
    x-height="531"
    cap-height="732"
    bbox="-122 -273 1323 1002"
    underline-thickness="50"
    underline-position="-200"
    unicode-range="U+000D-FB06"
  />
<missing-glyph horiz-adv-x="798" 
d="M664 506l-252 -240l252 -241v481zM147 13h507l-253 243zM134 22l256 244l-256 241v-485zM655 518h-511l257 -242zM120 0v531h558v-531h-558z" />
    <glyph glyph-name="fi" unicode="fi" horiz-adv-x="594" 
d="M27 502v14l98 10v58q0 92 45 147t136 55t175 -19v-14l-172 8h-9q-67 0 -109 -42.5t-42 -134.5v-58l371 -7v-519h-24v502h-347v-502h-24v502h-98z" />
    <glyph glyph-name="fl" unicode="fl" horiz-adv-x="721" 
d="M27 507v14l98 10v53q0 89 40 145.5t124 56.5h239v-594q0 -123 47 -150q16 -10 23 -11.5t48 -8t48 -6.5v-13h-67q-63 0 -93 45.5t-30 143.5v570h-210q-68 0 -106.5 -43.5t-38.5 -134.5v-53h147v-24h-147v-507h-24v507h-98z" />
    <glyph glyph-name=".notdef" horiz-adv-x="798" 
d="M664 506l-252 -240l252 -241v481zM147 13h507l-253 243zM134 22l256 244l-256 241v-485zM655 518h-511l257 -242zM120 0v531h558v-531h-558z" />
    <glyph glyph-name=".notdef" horiz-adv-x="798" 
d="M664 506l-252 -240l252 -241v481zM147 13h507l-253 243zM134 22l256 244l-256 241v-485zM655 518h-511l257 -242zM120 0v531h558v-531h-558z" />
    <glyph glyph-name=".null" horiz-adv-x="0" 
 />
    <glyph glyph-name="uni000D" unicode="&#xd;" horiz-adv-x="909" 
 />
    <glyph glyph-name="space" unicode=" " horiz-adv-x="280" 
 />
    <glyph glyph-name="exclam" unicode="!" horiz-adv-x="260" 
d="M111 12v62q0 12 12 12h11q12 0 12 -12v-62q0 -12 -12 -12h-11q-12 0 -12 12zM117 731h22l-5 -535h-12z" />
    <glyph glyph-name="quotedbl" unicode="&#x22;" horiz-adv-x="262" 
d="M69 732h25v-67l-6 -134h-12l-7 134v67zM169 732h25v-67l-6 -134h-12l-7 134v67z" />
    <glyph glyph-name="numbersign" unicode="#" horiz-adv-x="654" 
d="M27 250l2 12h179l32 205h-179l3 12h178l41 253h12l-41 -253h186l40 253h12l-40 -253h177l-2 -12h-178l-32 -206h177l-2 -12h-177l-39 -249h-12l39 249l-186 1l-39 -250h-12l39 250h-178zM220 262l185 -1l32 206h-185z" />
    <glyph glyph-name="dollar" unicode="$" horiz-adv-x="585" 
d="M74 494v66q0 106 51.5 142t142.5 36h15v86h18v-87q89 -5 178 -18v-13l-212 8h-14q-73 0 -114 -32t-41 -122v-66q0 -71 36.5 -97t110.5 -26h104q92 0 127 -38.5t35 -108.5v-68q0 -120 -90 -150q-45 -14 -103 -14h-17v-80h-18v81q-140 5 -191 14v15q66 -6 225 -6
q82 0 126 29.5t44 110.5v68q0 65 -32 94t-106 29h-102q-124 0 -157 65q-16 33 -16 82z" />
    <glyph glyph-name="percent" unicode="%" horiz-adv-x="954" 
d="M57 474v133q0 66 28 95.5t101 29.5h101q71 0 99 -29.5t28 -95.5v-133q0 -66 -28 -95.5t-101 -29.5h-101q-71 0 -99 29.5t-28 95.5zM72 474q0 -63 26 -86.5t86 -23.5h101q61 0 87.5 23t26.5 87v133q0 60 -24.5 85t-87.5 25h-101q-62 0 -88 -23t-26 -87v-133zM242 0
l438 732h21l-438 -732h-21zM541 128v133q0 66 28 95.5t101 29.5h101q71 0 99 -29.5t28 -95.5v-133q0 -66 -28 -95.5t-101 -29.5h-101q-71 0 -99 29.5t-28 95.5zM556 128q0 -63 26 -86.5t86 -23.5h101q61 0 87.5 23t26.5 87v133q0 60 -24.5 85t-87.5 25h-101q-62 0 -88 -23
t-26 -87v-133z" />
    <glyph glyph-name="ampersand" unicode="&#x26;" horiz-adv-x="653" 
d="M45 207q0 89 82 159l86 73l-63 85q-35 46 -35 84q0 48 32 77.5t68 38.5t101.5 9t169.5 -9v-14h-203q-50 0 -89 -20t-52 -58q-3 -9 -3 -19q0 -32 31 -75l289 -392l154 149l9 -8l-69 -86l-78 -74l94 -127h-31l-82 111l-72 -67q-51 -50 -122 -50q-103 0 -171 88
q-46 63 -46 125zM261 18q57 0 104 42l75 70l-213 288l-78 -65q-80 -66 -80 -146q0 -55 44.5 -114.5t118.5 -72.5q15 -2 29 -2z" />
    <glyph glyph-name="quotesingle" unicode="'" horiz-adv-x="113" 
d="M44 732h25v-67l-6 -134h-12l-7 134v67z" />
    <glyph glyph-name="parenleft" unicode="(" horiz-adv-x="315" 
d="M118 149q-17 89 -17 171.5t16.5 165.5t39.5 147q47 129 87 199l16 28h27q-19 -30 -51.5 -99.5t-54 -129.5t-39 -144.5t-17.5 -164.5t17 -166t40 -149q49 -130 89 -191l17 -26h-28l-17 26q-11 16 -38.5 71t-48.5 114t-38 148z" />
    <glyph glyph-name="parenright" unicode=")" horiz-adv-x="314" 
d="M171.5 154.5q17.5 87.5 17.5 167.5t-16.5 163t-40.5 147q-50 132 -88 200l-17 28h27q6 -11 17 -30t38.5 -78.5t48.5 -119.5t38 -144.5t17 -167t-16.5 -170.5t-39.5 -150q-47 -127 -87 -186l-16 -24h-27q20 28 52 93.5t53.5 124.5t39 146.5z" />
    <glyph glyph-name="asterisk" unicode="*" horiz-adv-x="469" 
d="M68 592v14l142 4v-24zM148 409l33 134l26 -4l-46 -134zM206 723l13 4l67 -123l-24 -11zM239 495l12 23l118 -83l-8 -11zM283 552l112 83l8 -12l-102 -90z" />
    <glyph glyph-name="plus" unicode="+" horiz-adv-x="521" 
d="M68 344v24h180v181h24v-181h182v-24h-182v-181h-24v181h-180z" />
    <glyph glyph-name="comma" unicode="," horiz-adv-x="171" 
d="M103 -37q0 -18 -7.5 -25t-12 -7t-12.5 1v6q16 0 16 15v47h-6q-12 0 -12 13v62q0 13 12 13h10q12 0 12 -13v-112z" />
    <glyph glyph-name="hyphen" unicode="-" horiz-adv-x="338" 
d="M27 278v24h284v-24h-284z" />
    <glyph glyph-name="period" unicode="." horiz-adv-x="172" 
d="M69 12v62q0 12 12 12h11q12 0 12 -12v-62q0 -12 -12 -12h-11q-12 0 -12 12z" />
    <glyph glyph-name="slash" unicode="/" horiz-adv-x="354" 
d="M27 -72l281 842h19l-281 -842h-19z" />
    <glyph glyph-name="zero" unicode="0" horiz-adv-x="662" 
d="M94 162v408q0 78 48.5 120t123.5 42h134q87 0 127.5 -44.5t40.5 -117.5v-408q0 -162 -168 -162h-134q-75 0 -123.5 39t-48.5 123zM118 162q0 -68 39.5 -103t108.5 -35h134q144 0 144 138v408q0 138 -144 138h-134q-68 0 -108 -36.5t-40 -101.5v-408z" />
    <glyph glyph-name="one" unicode="1" horiz-adv-x="354" 
d="M246 732v-732h-24v705l-168 -71v13l168 85h24z" />
    <glyph glyph-name="two" unicode="2" horiz-adv-x="598" 
d="M54 717v15q79 10 274 10q203 0 203 -210q0 -51 -42 -120t-92.5 -124.5t-125 -121.5t-105 -90t-66.5 -52h431v-24h-470v23q1 1 35.5 28.5t49 39.5t54 45t61.5 53.5t58.5 55.5t58.5 60t49.5 59t42.5 60q36 64 36 109q0 99 -46.5 141.5t-133.5 42.5h-272z" />
    <glyph glyph-name="three" unicode="3" horiz-adv-x="600" 
d="M40 710v14q58 11 149 11t139 -1q86 -1 129 -46.5t43 -118.5v-69q0 -80 -64 -117q-27 -15 -56 -18q32 -4 72 -35q20 -16 34 -45t14 -65v-59q0 -168 -178 -168q-222 0 -276 11l2 14h272q154 0 154 143v59q0 35 -15.5 62t-39.5 41q-46 27 -97 29l-214 7v14l214 6
q65 1 109.5 31t44.5 90v69q0 70 -42 105.5t-108 35.5h-286z" />
    <glyph glyph-name="four" unicode="4" horiz-adv-x="575" 
d="M434 236v236l10 75h14v-311h90v-14l-90 -10v-210h-24v210h-395l-12 25l307 495h27l-305 -496h378z" />
    <glyph glyph-name="five" unicode="5" horiz-adv-x="649" 
d="M103 20h304q57 0 98 38.5t41 109.5v95q0 69 -36 108q-34 36 -104 36h-153q-46 0 -85.5 -38t-39.5 -87h-24l22 450h423v-24h-400l-17 -343q10 19 43.5 42.5t80.5 23.5h151q163 0 163 -166v-99q0 -48 -16 -83.5t-42 -52.5q-51 -34 -105 -34q-232 0 -304 10v14z" />
    <glyph glyph-name="six" unicode="6" horiz-adv-x="636" 
d="M136 652q48 86 124 86q194 0 272 -9v-15h-269q-45 0 -77 -33t-47 -87q-27 -96 -27 -200q94 11 283 11q93 0 127 -38t34 -108v-111q0 -149 -161 -149h-119q-43 0 -75.5 18t-58.5 61q-54 85 -54 286.5t48 287.5zM112 380q0 -357 164 -357h119q138 0 138 123v113
q0 72 -35.5 96.5t-102.5 24.5h-283z" />
    <glyph glyph-name="seven" unicode="7" horiz-adv-x="535" 
d="M40 708v24h438l16 -23l-238 -709h-28l238 708h-426z" />
    <glyph glyph-name="eight" unicode="8" horiz-adv-x="655" 
d="M101 154v99q0 52 32.5 82.5t67.5 30.5q-100 17 -100 133v65q0 95 46 134t130 39h116q82 0 122 -41t40 -132v-65q0 -43 -26 -79.5t-66 -39.5q92 -26 92 -128v-98q0 -46 -16 -78.5t-43 -47.5q-47 -28 -104 -28h-115q-49 0 -84 12.5t-52.5 29t-26.5 40.5q-13 33 -13 72z
M125 151q0 -66 41.5 -96.5t110.5 -30.5h115q55 0 97 30.5t42 96.5v105q0 75 -51 93q-36 13 -85 13h-129q-47 0 -94 -26t-47 -80v-105zM125 494q0 -73 47 -93q37 -16 94 -16h129q66 0 101 34t35 75v68q0 81 -33.5 116t-104.5 35h-116q-81 0 -116.5 -36t-35.5 -115v-68z" />
    <glyph glyph-name="nine" unicode="9" horiz-adv-x="636" 
d="M81 473v111q0 149 161 149h119q43 0 75.5 -18t59.5 -61q53 -85 53 -286.5t-48 -287.5t-124 -86q-194 0 -272 9v15h269q45 0 77 33t47 87q27 96 27 200q-94 -11 -283 -11q-93 0 -127 38t-34 108zM104 473q0 -72 35.5 -96.5t102.5 -24.5h283q0 357 -164 357h-119
q-138 0 -138 -123v-113z" />
    <glyph glyph-name="colon" unicode=":" horiz-adv-x="177" 
d="M69 12v62q0 12 12 12h11q12 0 12 -12v-62q0 -12 -12 -12h-11q-12 0 -12 12zM69 455v63q0 12 12 12h11q12 0 12 -12v-63q0 -11 -12 -11h-11q-12 0 -12 11z" />
    <glyph glyph-name="semicolon" unicode=";" horiz-adv-x="172" 
d="M103 -37q0 -18 -7.5 -25t-12 -7t-12.5 1v6q16 0 16 15v47h-6q-12 0 -12 13v62q0 13 12 13h10q12 0 12 -13v-112zM69 455v63q0 12 12 12h11q12 0 12 -12v-63q0 -11 -12 -11h-11q-12 0 -12 11z" />
    <glyph glyph-name="less" unicode="&#x3c;" horiz-adv-x="480" 
d="M68 345v20l344 192v-27l-314 -175l314 -186v-28z" />
    <glyph glyph-name="equal" unicode="=" horiz-adv-x="481" 
d="M27 212v24h427v-24h-427zM27 471v24h427v-24h-427z" />
    <glyph glyph-name="greater" unicode="&#x3e;" horiz-adv-x="480" 
d="M68 141v28l314 186l-314 175v27l344 -192v-20z" />
    <glyph glyph-name="question" unicode="?" horiz-adv-x="532" 
d="M27 715v14q87 10 252 10h9q105 0 147.5 -45t42.5 -140v-101q0 -100 -62 -135q-44 -25 -130 -25q-34 0 -75 4v-102h-26v122h106q81 0 122 31.5t41 104.5v101q0 89 -40.5 125t-135.5 36h-251zM180 12v62q0 12 12 12h12q11 0 11 -12v-62q0 -12 -11 -12h-12q-12 0 -12 12z
" />
    <glyph glyph-name="at" unicode="@" horiz-adv-x="866" 
d="M88 0v348q0 75 37 117q16 18 50 32.5t81 14.5h200q63 0 108 -32.5t45 -107.5v-372h-16l-7 64l-15 -8q-131 -65 -210 -65h-3q-53 0 -89.5 33t-35.5 84v53q0 61 34 97t95 36h223q1 38 1 57t-1 19q0 60 -35 89t-97 29h-197q-144 0 -144 -140v-348q0 -81 42 -117t102 -36h319
q153 0 153 153v512q0 74 -39 119t-114 45h-389v14q49 10 226 10h62h101q82 -2 129.5 -49.5t47.5 -138.5v-512q0 -178 -177 -178h-319q-78 0 -123 46t-45 132zM372 15q39 0 103 20.5t110 42.5v202l-218 -10q-37 -2 -69 -20q-41 -22 -41 -91q-1 -1 -1 -22.5t1 -22.5
q0 -45 30 -72t81 -27h4z" />
    <glyph glyph-name="A" unicode="A" horiz-adv-x="659" 
d="M61 0l274 732h34l262 -732h-26l-91 253h-333l-94 -253h-26zM190 277h315l-153 431z" />
    <glyph glyph-name="B" unicode="B" horiz-adv-x="599" 
d="M108 0v732h253q104 0 147 -47.5t43 -125.5t-39 -123.5t-90 -51.5q44 -10 88 -57t44 -123q0 -204 -193 -204h-253zM132 25h229q169 0 169 181q0 69 -49 117t-115 48h-5h-229v-346zM132 395h229q72 0 118 41q48 43 48 121.5t-41 114.5t-125 36h-229v-313z" />
    <glyph glyph-name="C" unicode="C" horiz-adv-x="570" 
d="M74 368q0 93 9.5 156.5t35.5 115.5q51 100 198 100q85 0 214 -24v-14q-14 2 -26.5 3t-29 2.5t-36 3t-39.5 2.5q-60 3 -83 3q-78 0 -123 -28q-96 -60 -96 -322q0 -348 220 -348q93 0 183 9l30 3v-14q-118 -22 -214 -22q-243 0 -243 374z" />
    <glyph glyph-name="D" unicode="D" horiz-adv-x="671" 
d="M108 0v732h253q65 0 113.5 -24.5t75.5 -61.5t44 -89q26 -84 26 -171.5t-15 -149.5t-44.5 -116t-81.5 -87t-118 -33h-253zM132 24h229q60 0 107 32t74 83q54 102 54 225q0 173 -60.5 258.5t-174.5 85.5h-229v-684z" />
    <glyph glyph-name="E" unicode="E" horiz-adv-x="582" 
d="M108 123v479q0 69 35 99.5t85 30.5h6l297 -10v-14h-297q-102 0 -102 -106v-227l359 -5v-14l-359 -5v-228q0 -62 30 -82t82 -20h287v-14l-286 -10h-19t-32.5 3.5t-41.5 15.5q-44 26 -44 107z" />
    <glyph glyph-name="F" unicode="F" horiz-adv-x="582" 
d="M108 0v602q0 69 35 99.5t85 30.5h6l297 -10v-14h-297q-102 0 -102 -106v-227l359 -5v-14l-359 -5v-351h-24z" />
    <glyph glyph-name="G" unicode="G" horiz-adv-x="620" 
d="M76.5 269q-2.5 41 -2.5 95t1.5 90t7 76.5t14.5 69.5t25.5 57t39.5 45q50 38 142 38t237 -27v-19l-43 6q-131 16 -193 16t-97 -16t-56 -43.5t-34 -72.5q-20 -75 -20 -216q0 -192 41.5 -270.5t157.5 -78.5q69 0 195 37l42 13v295h-214v14q40 11 121 11t117 -3v-386h-14
l-8 54q-32 -17 -105.5 -38t-128.5 -21t-93 12t-62 39t-39 57.5t-22 77.5t-9.5 88z" />
    <glyph glyph-name="H" unicode="H" horiz-adv-x="664" 
d="M108 0v732h24v-366h440v366h24v-732h-24v342h-440v-342h-24z" />
    <glyph glyph-name="I" unicode="I" horiz-adv-x="200" 
d="M108 0v732h24v-732h-24z" />
    <glyph glyph-name="J" unicode="J" horiz-adv-x="349" 
d="M51 35q56 -16 78 -16t42 1.5t39.5 15.5t33 46.5t13.5 82.5v567h24v-567q0 -109 -52 -147q-31 -23 -83 -23q-58 0 -99 26z" />
    <glyph glyph-name="K" unicode="K" horiz-adv-x="593" 
d="M108 0v732h24v-353h152l241 353h29l-248 -365l248 -367h-30l-241 355h-150v-355h-25z" />
    <glyph glyph-name="L" unicode="L" horiz-adv-x="559" 
d="M108 126v606h24v-606q0 -62 30.5 -82t81.5 -20h276v-24h-276q-57 0 -92 20q-44 25 -44 106z" />
    <glyph glyph-name="M" unicode="M" horiz-adv-x="797" 
d="M74 0l81 732h36l213 -691l209 691h38l84 -732h-24l-81 703l-212 -703h-27l-216 703l-77 -703h-24z" />
    <glyph glyph-name="N" unicode="N" horiz-adv-x="665" 
d="M108 0v732h25l440 -686v686h24v-732h-24l-441 686v-686h-24z" />
    <glyph glyph-name="O" unicode="O" horiz-adv-x="675" 
d="M99.5 195q-11.5 67 -11.5 167t12 169.5t32 110t56.5 62t73 27.5t89.5 6t85.5 -4t65.5 -17t53.5 -38.5t36.5 -66.5q32 -78 32 -250q0 -183 -42 -268q-19 -40 -54.5 -61.5t-74 -28.5t-98.5 -7t-97 6t-73 26.5t-55 60t-30.5 106.5zM116 472.5q-4 -49.5 -4 -125.5t9 -136
t25 -98.5t47.5 -58.5t68 -27t100.5 -7t105.5 12t74 47.5t45.5 103.5t13 163t-6.5 153.5t-21.5 97t-33.5 62t-49 35.5t-59.5 15.5t-68 3.5t-59.5 -1.5t-46.5 -6t-42.5 -15t-34.5 -27t-29 -43t-20.5 -62.5t-13.5 -85.5z" />
    <glyph glyph-name="P" unicode="P" horiz-adv-x="584" 
d="M81 0v732h276q35 0 61.5 -6.5t55.5 -25.5q59 -40 59 -168q0 -58 -12 -99.5t-28 -62.5t-43 -32t-45.5 -13t-50.5 -2t-139 4t-110 6v-333h-24zM105 347h252q71 0 111 37.5t40 142.5q0 130 -65 163q-35 17 -86 17h-252v-360z" />
    <glyph glyph-name="Q" unicode="Q" horiz-adv-x="675" 
d="M99.5 195q-11.5 67 -11.5 167t12 169.5t32 110t56.5 62t73 27.5t89.5 6t85.5 -4t65.5 -17t53.5 -38.5t36.5 -66.5q32 -78 32 -250q0 -183 -42 -268q-19 -40 -54.5 -61.5t-74 -28.5t-98.5 -7t-97 6t-73 26.5t-55 60t-30.5 106.5zM116 472.5q-4 -49.5 -4 -125.5t9 -136
t25 -98.5t47.5 -58.5t68 -27t100.5 -7t105.5 12t74 47.5t45.5 103.5t13 163t-6.5 153.5t-21.5 97t-33.5 62t-49 35.5t-59.5 15.5t-68 3.5t-59.5 -1.5t-46.5 -6t-42.5 -15t-34.5 -27t-29 -43t-20.5 -62.5t-13.5 -85.5zM362 -33q14 -38 44.5 -56t61 -18t70.5 11v-24
q-34 -11 -53 -11t-23 1q-39 1 -72 26.5t-42 70.5h14z" />
    <glyph glyph-name="R" unicode="R" horiz-adv-x="574" 
d="M81 0v732h276q35 0 61.5 -6.5t55.5 -25.5q59 -40 59 -168q0 -133 -53 -175q-26 -20 -49.5 -26.5t-56.5 -7.5l161 -323h-25l-162 323q-234 4 -243 10v-333h-24zM105 347h252q34 0 58 6.5t47 24.5q46 39 46 154q0 125 -65 158q-35 17 -86 17h-252v-360z" />
    <glyph glyph-name="S" unicode="S" horiz-adv-x="586" 
d="M88 494v66q0 101 49.5 139.5t149.5 38.5t216 -19v-13l-222 8h-13q-73 0 -114.5 -33.5t-41.5 -120.5v-66q0 -73 35.5 -98t111.5 -25h114q92 0 127 -38.5t35 -108.5v-68q0 -102 -61 -136q-50 -28 -133 -28q-42 0 -122.5 4.5t-112.5 10.5v15q66 -6 235 -6q79 0 124.5 30
t45.5 110v68q0 65 -32 94t-106 29h-112q-110 0 -145 45q-17 22 -22.5 45t-5.5 57z" />
    <glyph glyph-name="T" unicode="T" horiz-adv-x="604" 
d="M47 708v24h518v-24h-250v-708h-24v708h-244z" />
    <glyph glyph-name="U" unicode="U" horiz-adv-x="683" 
d="M108 320v412h24v-412q0 -96 9 -135.5t15 -61.5t18.5 -38t22 -27.5t27.5 -18.5t30 -11.5t34 -5.5q37 -3 75 -3t62 2.5t53 12t47 29.5t35 52q31 61 31 205v412h24v-412q0 -102 -11.5 -145t-19.5 -67.5t-22.5 -41.5t-26 -29.5t-31 -20t-32.5 -12t-36 -6.5q-33 -3 -101.5 -3
t-107.5 15q-86 32 -109 171q-10 58 -10 139z" />
    <glyph glyph-name="V" unicode="V" horiz-adv-x="659" 
d="M61 732h26l253 -708l265 708h26l-274 -732h-34z" />
    <glyph glyph-name="W" unicode="W" horiz-adv-x="971" 
d="M61 732h26l253 -708l245 708h26l-103 -301l163 -407l248 708h24l-254 -732h-34l-160 396l-138 -396h-34z" />
    <glyph glyph-name="X" unicode="X" horiz-adv-x="565" 
d="M61 732h31l206 -344l208 344h31l-223 -369l218 -363h-31l-203 337l-203 -337h-31l219 363z" />
    <glyph glyph-name="Y" unicode="Y" horiz-adv-x="619" 
d="M328 0h-24v260l-243 472h27l228 -441l248 441h27l-263 -472v-260z" />
    <glyph glyph-name="Z" unicode="Z" horiz-adv-x="549" 
d="M47 0v24l433 684h-433v24h463v-24l-433 -684h433v-24h-463z" />
    <glyph glyph-name="bracketleft" unicode="[" horiz-adv-x="327" 
d="M115 -38v708q0 58 22 108q13 29 42 46.5t72 17.5h50v-24h-50q-52 0 -82 -36t-30 -112v-708q0 -66 27 -107t85 -41h50v-24h-50q-43 0 -72 17.5t-42 46.5q-22 50 -22 108z" />
    <glyph glyph-name="backslash" unicode="\" horiz-adv-x="354" 
d="M27 770h19l281 -842h-19z" />
    <glyph glyph-name="bracketright" unicode="]" horiz-adv-x="327" 
d="M27 -186h50q58 0 85 41t27 107v708q0 76 -30 112t-82 36h-50v24h50q43 0 72 -17.5t42 -46.5q22 -50 22 -108v-708q0 -58 -22 -108q-13 -29 -42 -46.5t-72 -17.5h-50v24z" />
    <glyph glyph-name="asciicircum" unicode="^" horiz-adv-x="407" 
d="M68 531l132 130h20l120 -130h-18l-112 115l-124 -115h-18z" />
    <glyph glyph-name="underscore" unicode="_" horiz-adv-x="658" 
d="M27 -1v24h604v-24h-604z" />
    <glyph glyph-name="grave" unicode="`" horiz-adv-x="201" 
d="M27 664h26l121 -133h-14z" />
    <glyph glyph-name="a" unicode="a" horiz-adv-x="520" 
d="M71 510q126 31 232 31q65 0 107.5 -38t42.5 -116v-387h-15l-9 64l-16 -7q-144 -63 -226 -63q-57 0 -95 35t-38 97v61q0 63 35.5 98t97.5 35h181.5h60.5q1 33 1 49.5t-1 17.5q0 132 -136 132q-72 0 -222 -23v14zM78 131q0 -58 32 -85q34 -28 75.5 -28t100 14.5t100.5 29.5
l43 16v228l-242 -10q-109 -4 -109 -109v-56z" />
    <glyph glyph-name="b" unicode="b" 
d="M81 0v785h22v-286q45 18 102.5 29t94.5 11q185 0 185 -276q0 -102 -38 -180q-20 -41 -57.5 -65t-87.5 -24t-113 22.5t-85 42.5l-10 -59h-13zM300 18q69 0 115 61t46 193t-44 187.5t-121 55.5t-192 -30v-412q108 -55 196 -55z" />
    <glyph glyph-name="c" unicode="c" horiz-adv-x="501" 
d="M68 266q0 84 12 139.5t37 83t54 37.5t91.5 10t177.5 -26v-14q-109 16 -172.5 16t-88 -9t-45.5 -35q-42 -49 -42 -206q0 -148 44 -199q21 -25 46 -34.5t63 -9.5q73 0 172 16l31 5v-16q-98 -28 -206 -29q-41 0 -69.5 10t-54 37.5t-38 83.5t-12.5 140z" />
    <glyph glyph-name="d" unicode="d" 
d="M68 263q0 276 184 276q37 0 95 -11t103 -29v286h21v-785h-13l-10 59q-22 -20 -85 -42.5t-113 -22.5t-87.5 24t-56.5 65q-38 79 -38 180zM137 77q45 -59 115 -59q88 0 196 55v412q-115 30 -196 30q-35 0 -61 -10.5t-50 -36.5q-49 -53 -49 -192.5t45 -198.5z" />
    <glyph glyph-name="e" unicode="e" horiz-adv-x="526" 
d="M96 463q23 53 96 67q30 5 75 5t71 -2.5t54.5 -13t43.5 -29.5q36 -45 36 -143q0 -56 -33 -76.5t-103 -20.5h-244q0 -146 43 -192q22 -23 46.5 -31t84.5 -8t196 20v-16q-101 -28 -212 -28q-107 0 -144.5 61.5t-37.5 201.5t28 205zM92 273h244q84 0 103 33q9 16 9 56
t-10.5 73.5t-35.5 50t-53.5 21t-90.5 4.5t-97.5 -16.5t-52 -66.5t-16.5 -155z" />
    <glyph glyph-name="f" unicode="f" horiz-adv-x="384" 
d="M27 507v14l87 10v99q0 81 21 118q9 15 27.5 26.5t44.5 11.5q110 0 150 -11v-13h-142q-47 0 -62 -32.5t-15 -99.5v-99h178v-24h-178v-507h-24v507h-87z" />
    <glyph glyph-name="g" unicode="g" horiz-adv-x="572" 
d="M64 120q0 25 22 46t63 22q-87 35 -87 156q0 99 40.5 144t131.5 45h312v-14l-111 -10q61 -44 61 -165q0 -56 -29 -108q-16 -28 -51 -45.5t-85 -17.5h-156q-19 0 -43 -7q-46 -13 -46 -50q0 -27 26.5 -41.5t53.5 -14.5h206q69 0 107 -36t38 -97v-53q0 -144 -150 -144h-150
q-72 0 -114 40.5t-42 113.5v94l12 105q-9 12 -9 37zM86 -116q0 -39 14.5 -67t37.5 -41q40 -22 79 -22h150q126 0 126 120v53q0 49 -28.5 79.5t-92.5 30.5h-204q-24 0 -44.5 7.5t-29.5 14.5l-8 7v-182zM86 344q0 -146 141 -146h102q75 0 109 41.5t34 113t-29.5 114
t-70.5 42.5h-148q-78 0 -108 -42.5t-30 -122.5z" />
    <glyph glyph-name="h" unicode="h" 
d="M81 0v784h24v-315q108 71 216 71q76 0 120 -50t44 -120v-370h-24v370q0 65 -37.5 105.5t-101 40.5t-110.5 -14t-107 -47v-455h-24z" />
    <glyph glyph-name="i" unicode="i" horiz-adv-x="170" 
d="M68 622v62q0 12 12 12h11q11 0 11 -12v-62q0 -12 -11 -12h-11q-12 0 -12 12zM72 0v531h24v-531h-24z" />
    <glyph glyph-name="j" unicode="j" horiz-adv-x="197" 
d="M81 622v62q0 12 12 12h11q12 0 12 -12v-62q0 -12 -12 -12h-11q-12 0 -12 12zM87 -270v801h24v-535v-103.5t-11 -162.5h-13z" />
    <glyph glyph-name="k" unicode="k" horiz-adv-x="498" 
d="M81 0v782h24v-465h60l268 214h38l-282 -227l281 -304h-35l-270 293h-60v-293h-24z" />
    <glyph glyph-name="l" unicode="l" horiz-adv-x="298" 
d="M81 189v594h24v-594q0 -123 47 -151q16 -9 23 -10.5t48 -8t48 -6.5v-13h-67q-63 0 -93 45.5t-30 143.5z" />
    <glyph glyph-name="m" unicode="m" horiz-adv-x="931" 
d="M81 0v531h14l10 -62q108 71 211.5 71t147.5 -82q42 32 110.5 57t125.5 25q76 0 120 -50t44 -120v-370h-24v370q0 62 -38 104t-102 42q-100 0 -231 -70q16 -38 16 -76v-370h-24v370q0 62 -38 104t-101 42t-110 -14t-107 -47v-455h-24z" />
    <glyph glyph-name="n" unicode="n" 
d="M81 0v531h14l10 -62q108 71 216 71q76 0 120 -50t44 -120v-370h-24v370q0 62 -38 104t-101 42t-110 -14t-107 -47v-455h-24z" />
    <glyph glyph-name="o" unicode="o" horiz-adv-x="573" 
d="M113 53q-45 58 -45 211.5t48 212.5t171.5 59t171 -65.5t47.5 -212.5t-47.5 -205t-174 -58t-171.5 58zM104.5 395.5q-12.5 -52.5 -12.5 -134t11.5 -130t38.5 -72.5t59 -32t84.5 -8t86 9t60.5 34q50 49 50 196q0 157 -54 208q-27 27 -59.5 36.5t-83 9.5t-81.5 -7.5t-59 -32
t-40.5 -77z" />
    <glyph glyph-name="p" unicode="p" 
d="M81 -268v799h13l11 -59q22 20 84.5 42.5t112.5 22.5t87.5 -24t57.5 -65q38 -78 38 -180q0 -276 -185 -276q-37 0 -94 11t-102 29v-300h-23zM105 46q115 -30 191.5 -30t120.5 55.5t44 187.5t-46 193t-115 61q-87 0 -195 -55v-412z" />
    <glyph glyph-name="q" unicode="q" horiz-adv-x="558" 
d="M114 467q46 70 138 70q152 0 226 -12v-795h-24v299q-44 -18 -103.5 -28.5t-107 -10.5t-84.5 20.5t-57 59.5q-34 70 -34 198.5t46 198.5zM92 268q0 -128 35.5 -191t119.5 -63t207 31v468h-202q-160 0 -160 -245z" />
    <glyph glyph-name="r" unicode="r" horiz-adv-x="424" 
d="M81 0v531h12l12 -67q41 23 65.5 35.5t67.5 25t89.5 12.5t69.5 -8v-23q-34 7 -65 7t-52 -3t-34.5 -6t-37 -12.5t-31.5 -13t-36.5 -17.5t-35.5 -17v-444h-24z" />
    <glyph glyph-name="s" unicode="s" horiz-adv-x="504" 
d="M54 363v46q0 64 31.5 95.5t106.5 31.5q137 0 231 -9v-14h-231q-62 0 -88 -24.5t-26 -79.5v-46q0 -45 18 -68q15 -19 96 -19h128q59 0 94.5 -29.5t35.5 -84.5v-49q0 -78 -42 -100q-34 -18 -88 -18q-149 0 -244 10v14h244q79 0 97 41q9 20 9 53v49q0 39 -27.5 64.5
t-78.5 25.5h-128q-78 0 -108 19.5t-30 91.5z" />
    <glyph glyph-name="t" unicode="t" horiz-adv-x="350" 
d="M27 508v16l84 8l8 148h16v-148h175v-24h-175v-320q0 -123 47 -150q16 -10 23 -11.5t48 -8t48 -6.5v-13h-67q-63 0 -93 45.5t-30 143.5v320h-84z" />
    <glyph glyph-name="u" unicode="u" 
d="M68 162v370h24v-370q0 -62 38 -104t101 -42t110 14t107 47v455h24v-531h-14l-10 62q-108 -71 -216 -71q-76 0 -120 50t-44 120z" />
    <glyph glyph-name="v" unicode="v" horiz-adv-x="520" 
d="M27 531h24l207 -498l211 498h24l-222 -531h-26z" />
    <glyph glyph-name="w" unicode="w" horiz-adv-x="777" 
d="M27 531h25l196 -501l191 501h24l-74 -199l136 -302l202 501h23l-212 -531h-26l-135 304l-116 -304h-26z" />
    <glyph glyph-name="x" unicode="x" horiz-adv-x="480" 
d="M32 0l192 266l-192 265h32l176 -243l176 243h32l-192 -265l192 -266h-32l-176 243l-176 -243h-32z" />
    <glyph glyph-name="y" unicode="y" horiz-adv-x="529" 
d="M28 531h26l148 -415q33 -91 101 -91l171 506h25l-233 -699l-46 -102h-12l87 270q-84 4 -117 110z" />
    <glyph glyph-name="z" unicode="z" horiz-adv-x="475" 
d="M40 507v24h396v-24l-350 -482h350v-24h-380v24l348 482h-364z" />
    <glyph glyph-name="braceleft" unicode="{" horiz-adv-x="304" 
d="M117 420v236q0 135 79 171q33 15 81 15v-24q-69 0 -102.5 -37t-33.5 -125v-236q0 -35 -23 -58t-57 -28q33 -5 56 -28.5t23 -54.5v-289q0 -83 33 -115.5t104 -32.5v-24q-106 0 -137 58q-15 28 -19.5 53t-4.5 61v285q0 34 -27 53.5t-56 19.5h-6v27q90 8 90 73z" />
    <glyph glyph-name="bar" unicode="|" horiz-adv-x="254" 
d="M116 -72v842h24v-842h-24z" />
    <glyph glyph-name="braceright" unicode="}" horiz-adv-x="304" 
d="M27 -186q71 0 104 32.5t33 115.5v289q0 31 23 54.5t56 28.5q-34 5 -57 28t-23 58v236q0 88 -33.5 125t-102.5 37v24q96 0 131 -58q29 -49 29 -128v-236q0 -65 90 -73v-27h-6q-29 0 -56 -19.5t-27 -53.5v-285q0 -36 -4.5 -61t-19.5 -53q-31 -58 -137 -58v24z" />
    <glyph glyph-name="asciitilde" unicode="~" horiz-adv-x="473" 
d="M175 630q19 0 64.5 -36.5t60.5 -36.5q36 0 100 53l6 -7q-20 -20 -34 -31q-35 -31 -72 -31q-22 0 -66.5 36.5t-56 36.5t-19 -1t-15.5 -4.5t-13 -5.5t-15 -8.5t-13.5 -9t-15 -11t-14.5 -10.5l-4 8q42 36 65 47t42 11z" />
    <glyph glyph-name="exclamdown" unicode="&#xa1;" horiz-adv-x="267" 
d="M112 387v63q0 10 12 10h11q12 0 12 -10v-63q0 -13 -12 -13h-11q-12 0 -12 13zM119 -270l5 536h12l5 -536h-22z" />
    <glyph glyph-name="cent" unicode="&#xa2;" horiz-adv-x="488" 
d="M67 121q-13 56 -13 135.5t9.5 129.5t24.5 79t41 45t52.5 21t64.5 5v82h18v-83q81 -5 163 -25v-14q-109 16 -172.5 16t-88.5 -9t-46 -35q-42 -49 -42 -206q0 -149 44 -199q22 -25 47 -34.5t63 -9.5q72 0 171 16l31 5v-16q-87 -25 -170 -28v-78h-18v77q-49 0 -79.5 8.5
t-58.5 35t-41 82.5z" />
    <glyph glyph-name="sterling" unicode="&#xa3;" horiz-adv-x="601" 
d="M68 0v14l72 10v326h-72v14l72 8v133q0 130 49 179q31 31 67 38q52 10 112 10l166 -9v-14h-164q-56 0 -89.5 -6t-62.5 -26.5t-41.5 -62t-12.5 -109.5v-133l290 -8v-14h-290v-326h368v-24h-464z" />
    <glyph glyph-name="currency" unicode="&#xa4;" horiz-adv-x="466" 
d="M124 434q46 43 109.5 43t108.5 -39l45 44l9 -10l-44 -43q46 -46 46 -112.5t-41 -115.5l38 -38l-10 -9l-36 38q-47 -49 -116 -49t-116 52l-39 -39l-8 8l39 40q-38 48 -38 111.5t45 110.5l-47 46l9 9zM129.5 418.5q-43.5 -43.5 -43.5 -106t43 -108.5t105 -46t105.5 46
t43.5 109t-43.5 106t-105 43t-105 -43.5z" />
    <glyph glyph-name="yen" unicode="&#xa5;" horiz-adv-x="584" 
d="M501 321v-14h-207v-95h207v-14h-207v-198h-24v198h-196v14h196v95h-196v14h195l-242 411h29l226 -386l245 386h30l-262 -411h206z" />
    <glyph glyph-name="brokenbar" unicode="&#xa6;" horiz-adv-x="256" 
d="M116 -72v328h24v-328h-24zM116 429v341h24v-341h-24z" />
    <glyph glyph-name="section" unicode="&#xa7;" horiz-adv-x="559" 
d="M74 353v62q0 83 55 93q-55 10 -55 82v70q0 67 37 95.5t93 28.5q149 0 244 -10v-14h-244q-106 0 -106 -100v-70q0 -44 24 -58t82 -14h149q82 0 108 -22t25 -80v-62q0 -25 -2.5 -41t-15 -31t-34.5 -17q33 -7 42 -28t9 -54v-73q0 -78 -45 -100q-37 -18 -93 -18
q-141 0 -236 10v14h236q58 0 86 20.5t28 73.5v73q0 45 -18.5 58.5t-89.5 13.5h-149q-72 0 -93 10q-37 17 -37 88zM98 353q0 -20 7 -48q2 -8 10.5 -13t13 -8t20.5 -4t23 -1h181q74 0 91 11.5t17 63.5v62q0 49 -20.5 64t-87.5 15h-149q-79 0 -91 -17q-15 -22 -15 -64v-61z" />
    <glyph glyph-name="dieresis" unicode="&#xa8;" horiz-adv-x="424" 
d="M85 564q-17 0 -17 17.5t17 17.5t17 -17.5t-17 -17.5zM322 582q0 17 17.5 17t17.5 -17.5t-17 -17.5q-8 0 -13 5t-5 13z" />
    <glyph glyph-name="copyright" unicode="&#xa9;" horiz-adv-x="864" 
d="M86.5 253q-12.5 59 -12.5 113.5t6.5 102.5t23.5 97t43 85t69.5 58.5t98.5 22.5h256q56 0 98 -26.5t64 -65t36 -91.5q21 -79 21 -180t-22.5 -182t-73.5 -134t-123 -53h-256q-65 0 -114.5 38t-75.5 97t-38.5 118zM88 360q0 -122 54 -228q27 -52 72 -85t101 -33h256
q89 0 147 93.5t58 260.5q0 101 -19 176.5t-66.5 124.5t-119.5 49h-256q-73 0 -127 -46q-100 -85 -100 -312zM288.5 194.5q-38.5 47.5 -38.5 166t39 170.5t105 52q83 0 178 -17v-9q-84 12 -178 12q-130 0 -130 -207q0 -99 30.5 -150t99.5 -51q116 0 184 16v-9
q-75 -21 -184 -21q-67 0 -105.5 47.5z" />
    <glyph glyph-name="ordfeminine" unicode="&#xaa;" horiz-adv-x="360" 
d="M40 291v13h280v-13h-280zM52 717q69 22 154 22q48 0 80 -25.5t32 -77.5v-258h-10l-6 49l-11 -5q-95 -48 -143.5 -48t-78 23.5t-29.5 65.5v46q0 41 27 65.5t73 24.5q81 -1 121.5 -1t40.5 1v23v9q0 92 -108 92q-66 0 -142 -16v10zM57 466q0 -76 89 -76q27 0 66 12t64 24
l26 12v151l-156 -4q-89 0 -89 -82v-37z" />
    <glyph glyph-name="guillemotleft" unicode="&#xab;" horiz-adv-x="548" 
d="M68 354l204 204l18 -17l-188 -187l194 -191l-18 -18zM252 354l206 204l16 -17l-188 -187l194 -191l-18 -18z" />
    <glyph glyph-name="logicalnot" unicode="&#xac;" horiz-adv-x="532" 
d="M68 281v24h396v-146h-24v122h-372z" />
    <glyph glyph-name="uni00AD" unicode="&#xad;" horiz-adv-x="368" 
d="M27 278v24h314v-24h-314z" />
    <glyph glyph-name="registered" unicode="&#xae;" horiz-adv-x="864" 
d="M86.5 253q-12.5 59 -12.5 113.5t6.5 102.5t23.5 97t43 85t69.5 58.5t98.5 22.5h256q56 0 98 -26.5t64 -65t36 -91.5q21 -79 21 -180t-22.5 -182t-73.5 -134t-123 -53h-256q-65 0 -114.5 38t-75.5 97t-38.5 118zM88 360q0 -122 54 -228q27 -52 72 -85t101 -33h256
q89 0 147 93.5t58 260.5q0 101 -19 176.5t-66.5 124.5t-119.5 49h-256q-73 0 -127 -46q-100 -85 -100 -312zM285 153v427h177q58 0 91 -26.5t33 -99.5q0 -50 -16 -71q-9 -11 -16.5 -18.5t-21 -11t-20.5 -5.5q-12 -2 -37 -2l111 -193h-17l-111 192l-159 5v-197h-14zM299 359
h169q55 0 79.5 18.5t24.5 78t-26.5 85t-77.5 25.5h-169v-207z" />
    <glyph glyph-name="macron" unicode="&#xaf;" horiz-adv-x="387" 
d="M68 531v15h252v-15h-252z" />
    <glyph glyph-name="degree" unicode="&#xb0;" horiz-adv-x="338" 
d="M68 632q0 43 30 73t72 30t71 -30t29 -73t-29 -72.5t-71 -29.5t-72 29.5t-30 72.5zM82 632q0 -36 26 -61.5t62 -25.5t61 25.5t25 61.5t-25 62t-61 26t-62 -26t-26 -62z" />
    <glyph glyph-name="plusminus" unicode="&#xb1;" horiz-adv-x="535" 
d="M76 137v24h386v-24h-386zM76 411v24h181v181h24v-181h181v-24h-181v-181h-24v181h-181z" />
    <glyph glyph-name="twosuperior" unicode="&#xb2;" horiz-adv-x="411" 
d="M225 838q130 0 130 -136q0 -53 -53 -119q-58 -74 -147 -149q-22 -18 -32.5 -26t-26.5 -21l-17 -13h275v-18h-309v14q15 10 46 36t58.5 49t45 40t42 40.5t39.5 43.5t30 41q30 41 30 79q0 58 -25 89.5t-92 31.5h-177l-1 10l1 1q58 7 183 7z" />
    <glyph glyph-name="threesuperior" unicode="&#xb3;" horiz-adv-x="437" 
d="M40 815v10q41 8 196 8q62 0 91.5 -30.5t29.5 -79.5v-35q0 -38 -29.5 -63.5t-53.5 -27.5q24 -5 53.5 -31t29.5 -67v-28q0 -58 -28.5 -88.5t-98.5 -30.5q-135 0 -186 11v7h178q63 0 89.5 22.5t26.5 82.5v23q0 42 -34 65.5t-78 24.5l-142 4v10l142 4q48 2 81 24.5t33 58.5
v35q0 91 -106 91h-194z" />
    <glyph glyph-name="acute" unicode="&#xb4;" horiz-adv-x="201" 
d="M27 531l121 133h26l-133 -133h-14z" />
    <glyph glyph-name="uni00B5" unicode="&#xb5;" horiz-adv-x="620" 
d="M122 -270v802h24v-370q0 -62 38 -104t101 -42t110 14t107 47v455h24v-531h-14l-10 62q-108 -71 -210 -71t-146 77v-339h-24z" />
    <glyph glyph-name="paragraph" unicode="&#xb6;" horiz-adv-x="572" 
d="M54 499v93q0 67 46.5 103.5t109.5 36.5h335v-26h-69v-706h-24v708h-164v-978h-24v635q-15 -10 -48 -10h-6q-74 0 -115 41t-41 103zM78 501q0 -38 16 -64.5t40 -38.5q42 -19 76 -19h54v329h-54q-62 0 -97 -33.5t-35 -84.5v-89z" />
    <glyph glyph-name="periodcentered" unicode="&#xb7;" horiz-adv-x="264" 
d="M115 376v12q0 12 12 12h11q12 0 12 -12v-12q0 -12 -12 -12h-11q-12 0 -12 12z" />
    <glyph glyph-name="cedilla" unicode="&#xb8;" horiz-adv-x="267" 
d="M161 -137q13 12 17 34.5t4 40.5v25h17q0 -77 -20 -106.5t-81 -29.5h-30v7l32 5q24 4 36 8t25 16z" />
    <glyph glyph-name="onesuperior" unicode="&#xb9;" horiz-adv-x="255" 
d="M168 832v-476h-18v458l-128 -46v9l128 55h18z" />
    <glyph glyph-name="ordmasculine" unicode="&#xba;" horiz-adv-x="381" 
d="M70 411.5q-30 38.5 -30 143.5t29.5 143.5t122 38.5t120.5 -38t28 -144t-28.5 -144t-120 -38t-121.5 38.5zM52 291v13h280v-13h-280zM69 660q-13 -36 -13 -121t27.5 -117.5t107.5 -32.5t106.5 30.5t26.5 132.5t-24.5 135.5t-107.5 33.5q-56 0 -83 -12.5t-40 -48.5z" />
    <glyph glyph-name="guillemotright" unicode="&#xbb;" horiz-adv-x="548" 
d="M68 163l194 191l-188 187l16 17l206 -204l-210 -209zM252 163l194 191l-188 187l18 17l204 -204l-210 -209z" />
    <glyph glyph-name="onequarter" unicode="&#xbc;" horiz-adv-x="876" 
d="M168 732v-476h-18v458l-128 -46v9l128 55h18zM212 0l386 770h18l-386 -770h-18zM772 186v121l9 48h9v-169h59v-8l-59 -11v-166h-18v166h-287l-4 10l190 298h20l-184 -289h265z" />
    <glyph glyph-name="onehalf" unicode="&#xbd;" horiz-adv-x="944" 
d="M168 732v-476h-18v458l-128 -46v9l128 55h18zM199 0l386 770h18l-386 -770h-18zM760 483q130 0 130 -136q0 -53 -52 -119q-59 -74 -148 -148q-22 -19 -32.5 -27t-27.5 -21l-16 -13h275v-18h-309v14q15 10 46 36t58.5 49t45 40t42 40.5t39.5 43.5t31 42q29 40 29 78
q0 58 -25 89.5t-92 31.5h-177l-1 10l1 1q58 7 183 7z" />
    <glyph glyph-name="threequarters" unicode="&#xbe;" horiz-adv-x="1001" 
d="M40 715v10q41 8 196 8q62 0 91.5 -30.5t29.5 -79.5v-35q0 -38 -29.5 -63.5t-53.5 -27.5q24 -5 53.5 -31t29.5 -67v-28q0 -58 -28.5 -88.5t-98.5 -30.5q-135 0 -186 11v7h178q63 0 89.5 22.5t26.5 82.5v23q0 42 -34 65.5t-78 24.5l-142 4v10l142 4q48 2 81 24.5t33 58.5
v35q0 91 -106 91h-194zM330 0l386 770h18l-386 -770h-18zM854 186v121l10 48h8v-169h60v-8l-60 -11v-166h-18v166h-286l-4 10l190 298h20l-184 -289h264z" />
    <glyph glyph-name="questiondown" unicode="&#xbf;" horiz-adv-x="530" 
d="M53 18q0 100 62 135q44 25 130 25q34 0 75 -4v102h26v-122h-106q-81 0 -122 -31.5t-41 -104.5v-102q0 -89 40.5 -124.5t135.5 -35.5h251v-14q-87 -10 -252 -10h-9q-105 0 -147.5 44.5t-42.5 139.5v102zM316 396v62q0 12 11 12h12q12 0 12 -12v-62q0 -12 -12 -12h-12
q-11 0 -11 12z" />
    <glyph glyph-name="Agrave" unicode="&#xc0;" horiz-adv-x="659" 
d="M212 930h26l121 -133h-14zM61 0l274 732h34l262 -732h-26l-91 253h-333l-94 -253h-26zM190 277h315l-153 431z" />
    <glyph glyph-name="Aacute" unicode="&#xc1;" horiz-adv-x="659" 
d="M345 797l121 133h26l-133 -133h-14zM61 0l274 732h34l262 -732h-26l-91 253h-333l-94 -253h-26zM190 277h315l-153 431z" />
    <glyph glyph-name="Acircumflex" unicode="&#xc2;" horiz-adv-x="659" 
d="M216 797l132 130h20l120 -130h-18l-112 115l-124 -115h-18zM61 0l274 732h34l262 -732h-26l-91 253h-333l-94 -253h-26zM190 277h315l-153 431z" />
    <glyph glyph-name="Atilde" unicode="&#xc3;" horiz-adv-x="659" 
d="M290 886q19 0 64.5 -36.5t60.5 -36.5q36 0 100 53l6 -7q-20 -20 -33 -31q-36 -31 -73 -31q-22 0 -66.5 36.5t-56 36.5t-19 -1t-15.5 -4.5t-13 -5.5t-15 -8.5t-13.5 -9t-15 -11t-14.5 -10.5l-4 8q42 36 65 47t42 11zM61 0l274 732h34l262 -732h-26l-91 253h-333l-94 -253
h-26zM190 277h315l-153 431z" />
    <glyph glyph-name="Adieresis" unicode="&#xc4;" horiz-adv-x="659" 
d="M208 814.5q0 7.5 4.5 12.5t12 5t12.5 -5t5 -11t-3 -10q-4 -9 -13 -9t-13.5 5t-4.5 12.5zM462 815q0 7 5 12t12.5 5t12 -5t4.5 -10.5t-1 -8.5t-3 -6q-5 -5 -12.5 -5t-12.5 5.5t-5 12.5zM61 0l274 732h34l262 -732h-26l-91 253h-333l-94 -253h-26zM190 277h315l-153 431z
" />
    <glyph glyph-name="Aring" unicode="&#xc5;" horiz-adv-x="659" 
d="M264.5 780.5q13.5 -23.5 37 -37t58.5 -13.5t64 29.5t29 72.5t-29 73t-71 30t-72 -30t-30 -65.5t13.5 -59zM265 832q0 36 26 62t62 26t61 -26t25 -62t-25 -61.5t-61 -25.5t-62 25.5t-26 61.5zM61 0l274 732h34l262 -732h-26l-91 253h-333l-94 -253h-26zM190 277h315
l-153 431z" />
    <glyph glyph-name="AE" unicode="&#xc6;" horiz-adv-x="933" 
d="M602 732h12l268 -10v-14h-268q-44 0 -57 -5t-21 -8t-12.5 -11t-7 -12.5t-3.5 -16.5l-1 -18q-1 -6 -0.5 -21.5t0.5 -23.5v-217l330 -5v-14l-330 -5v-228q0 -62 30 -82t82 -20h258v-14l-258 -10h-9q-54 0 -90.5 24t-36.5 100v131h-258l-160 -252h-30l376 590q52 82 74 103
q40 39 112 39zM488 276v381l-242 -381h242z" />
    <glyph glyph-name="Ccedilla" unicode="&#xc7;" horiz-adv-x="570" 
d="M306 -136q13 12 17 34.5t4 40.5v25h17q0 -77 -20 -106.5t-81 -29.5h-30v7l32 5q24 4 36 8t25 16zM74 368q0 93 9.5 156.5t35.5 115.5q51 100 198 100q85 0 214 -24v-14q-14 2 -26.5 3t-29 2.5t-36 3t-39.5 2.5q-60 3 -83 3q-78 0 -123 -28q-96 -60 -96 -322
q0 -348 220 -348q93 0 183 9l30 3v-14q-118 -22 -214 -22q-243 0 -243 374z" />
    <glyph glyph-name="Egrave" unicode="&#xc8;" horiz-adv-x="582" 
d="M200 925h26l121 -133h-14zM108 123v479q0 69 35 99.5t85 30.5h6l297 -10v-14h-297q-102 0 -102 -106v-227l359 -5v-14l-359 -5v-228q0 -62 30 -82t82 -20h287v-14l-286 -10h-19t-32.5 3.5t-41.5 15.5q-44 26 -44 107z" />
    <glyph glyph-name="Eacute" unicode="&#xc9;" horiz-adv-x="582" 
d="M332 792l121 133h26l-133 -133h-14zM108 123v479q0 69 35 99.5t85 30.5h6l297 -10v-14h-297q-102 0 -102 -106v-227l359 -5v-14l-359 -5v-228q0 -62 30 -82t82 -20h287v-14l-286 -10h-19t-32.5 3.5t-41.5 15.5q-44 26 -44 107z" />
    <glyph glyph-name="Ecircumflex" unicode="&#xca;" horiz-adv-x="582" 
d="M200 797l132 130h20l120 -130h-18l-112 115l-124 -115h-18zM108 123v479q0 69 35 99.5t85 30.5h6l297 -10v-14h-297q-102 0 -102 -106v-227l359 -5v-14l-359 -5v-228q0 -62 30 -82t82 -20h287v-14l-286 -10h-19t-32.5 3.5t-41.5 15.5q-44 26 -44 107z" />
    <glyph glyph-name="Edieresis" unicode="&#xcb;" horiz-adv-x="582" 
d="M196 825q-17 0 -17 17.5t17 17.5t17 -17.5t-17 -17.5zM433 843q0 17 17.5 17t17.5 -17.5t-17 -17.5q-7 0 -12.5 5.5t-5.5 12.5zM108 123v479q0 69 35 99.5t85 30.5h6l297 -10v-14h-297q-102 0 -102 -106v-227l359 -5v-14l-359 -5v-228q0 -62 30 -82t82 -20h287v-14
l-286 -10h-19t-32.5 3.5t-41.5 15.5q-44 26 -44 107z" />
    <glyph glyph-name="Igrave" unicode="&#xcc;" horiz-adv-x="200" 
d="M-20 930h26l121 -133h-14zM108 0v732h24v-732h-24z" />
    <glyph glyph-name="Iacute" unicode="&#xcd;" horiz-adv-x="200" 
d="M113 797l121 133h26l-133 -133h-14zM108 0v732h24v-732h-24z" />
    <glyph glyph-name="Icircumflex" unicode="&#xce;" horiz-adv-x="200" 
d="M-16 797l132 130h20l120 -130h-18l-112 115l-124 -115h-18zM108 0v732h24v-732h-24z" />
    <glyph glyph-name="Idieresis" unicode="&#xcf;" horiz-adv-x="200" 
d="M-23 808q-1 3 -1 8.5t4.5 10.5t12 5t12.5 -5t5 -10.5t-1.5 -8.5t-3.5 -5.5t-5.5 -4t-7 -1.5t-7 1.5t-5.5 4t-3 5.5zM230 815q0 7 5 12t12.5 5t12 -5t4.5 -10.5t-1 -8.5t-3 -6q-5 -5 -12.5 -5t-12.5 5.5t-5 12.5zM108 0v732h24v-732h-24z" />
    <glyph glyph-name="Eth" unicode="&#xd0;" horiz-adv-x="671" 
d="M43 366v14h65v352h243q65 0 113.5 -24.5t75.5 -61.5t44 -89q26 -84 26 -171.5t-15 -149.5t-44.5 -116t-81.5 -87t-118 -33h-243v366h-65zM132 24h219q60 0 107 32t74 83q54 102 54 225q0 173 -60.5 258.5t-174.5 85.5h-219v-328h159v-14h-159v-342z" />
    <glyph glyph-name="Ntilde" unicode="&#xd1;" horiz-adv-x="665" 
d="M293 886q17 0 62 -36.5t61.5 -36.5t39 11t31 18t29.5 24l6 -7q-48 -48 -77 -57q-14 -5 -33 -5t-63 36.5t-55.5 36.5t-19 -1t-16 -4.5t-13.5 -5.5t-14.5 -8.5t-13 -9t-15.5 -11t-14 -10.5l-4 8q50 45 71 51.5t38 6.5zM108 0v732h25l440 -686v686h24v-732h-24l-441 686
v-686h-24z" />
    <glyph glyph-name="Ograve" unicode="&#xd2;" horiz-adv-x="675" 
d="M216 930h26l121 -133h-14zM99.5 195q-11.5 67 -11.5 167t12 169.5t32 110t56.5 62t73 27.5t89.5 6t85.5 -4t65.5 -17t53.5 -38.5t36.5 -66.5q32 -78 32 -250q0 -183 -42 -268q-19 -40 -54.5 -61.5t-74 -28.5t-98.5 -7t-97 6t-73 26.5t-55 60t-30.5 106.5zM116 472.5
q-4 -49.5 -4 -125.5t9 -136t25 -98.5t47.5 -58.5t68 -27t100.5 -7t105.5 12t74 47.5t45.5 103.5t13 163t-6.5 153.5t-21.5 97t-33.5 62t-49 35.5t-59.5 15.5t-68 3.5t-59.5 -1.5t-46.5 -6t-42.5 -15t-34.5 -27t-29 -43t-20.5 -62.5t-13.5 -85.5z" />
    <glyph glyph-name="Oacute" unicode="&#xd3;" horiz-adv-x="675" 
d="M349 797l121 133h26l-133 -133h-14zM99.5 195q-11.5 67 -11.5 167t12 169.5t32 110t56.5 62t73 27.5t89.5 6t85.5 -4t65.5 -17t53.5 -38.5t36.5 -66.5q32 -78 32 -250q0 -183 -42 -268q-19 -40 -54.5 -61.5t-74 -28.5t-98.5 -7t-97 6t-73 26.5t-55 60t-30.5 106.5z
M116 472.5q-4 -49.5 -4 -125.5t9 -136t25 -98.5t47.5 -58.5t68 -27t100.5 -7t105.5 12t74 47.5t45.5 103.5t13 163t-6.5 153.5t-21.5 97t-33.5 62t-49 35.5t-59.5 15.5t-68 3.5t-59.5 -1.5t-46.5 -6t-42.5 -15t-34.5 -27t-29 -43t-20.5 -62.5t-13.5 -85.5z" />
    <glyph glyph-name="Ocircumflex" unicode="&#xd4;" horiz-adv-x="675" 
d="M220 797l132 130h20l120 -130h-18l-112 115l-124 -115h-18zM99.5 195q-11.5 67 -11.5 167t12 169.5t32 110t56.5 62t73 27.5t89.5 6t85.5 -4t65.5 -17t53.5 -38.5t36.5 -66.5q32 -78 32 -250q0 -183 -42 -268q-19 -40 -54.5 -61.5t-74 -28.5t-98.5 -7t-97 6t-73 26.5
t-55 60t-30.5 106.5zM116 472.5q-4 -49.5 -4 -125.5t9 -136t25 -98.5t47.5 -58.5t68 -27t100.5 -7t105.5 12t74 47.5t45.5 103.5t13 163t-6.5 153.5t-21.5 97t-33.5 62t-49 35.5t-59.5 15.5t-68 3.5t-59.5 -1.5t-46.5 -6t-42.5 -15t-34.5 -27t-29 -43t-20.5 -62.5
t-13.5 -85.5z" />
    <glyph glyph-name="Otilde" unicode="&#xd5;" horiz-adv-x="675" 
d="M294 886q19 0 64.5 -36.5t60.5 -36.5q36 0 100 53l6 -7q-20 -20 -33 -31q-36 -31 -73 -31q-22 0 -66.5 36.5t-56 36.5t-19 -1t-15.5 -4.5t-13 -5.5t-15 -8.5t-13.5 -9t-15 -11t-14.5 -10.5l-4 8q42 36 65 47t42 11zM99.5 195q-11.5 67 -11.5 167t12 169.5t32 110t56.5 62
t73 27.5t89.5 6t85.5 -4t65.5 -17t53.5 -38.5t36.5 -66.5q32 -78 32 -250q0 -183 -42 -268q-19 -40 -54.5 -61.5t-74 -28.5t-98.5 -7t-97 6t-73 26.5t-55 60t-30.5 106.5zM116 472.5q-4 -49.5 -4 -125.5t9 -136t25 -98.5t47.5 -58.5t68 -27t100.5 -7t105.5 12t74 47.5
t45.5 103.5t13 163t-6.5 153.5t-21.5 97t-33.5 62t-49 35.5t-59.5 15.5t-68 3.5t-59.5 -1.5t-46.5 -6t-42.5 -15t-34.5 -27t-29 -43t-20.5 -62.5t-13.5 -85.5z" />
    <glyph glyph-name="Odieresis" unicode="&#xd6;" horiz-adv-x="675" 
d="M212 814.5q0 7.5 4.5 12.5t12 5t12.5 -5t5 -11t-3 -10q-4 -9 -13 -9t-13.5 5t-4.5 12.5zM466 815q0 7 5 12t12.5 5t12 -5t4.5 -10.5t-1 -8.5t-3 -6q-5 -5 -12.5 -5t-12.5 5.5t-5 12.5zM99.5 195q-11.5 67 -11.5 167t12 169.5t32 110t56.5 62t73 27.5t89.5 6t85.5 -4
t65.5 -17t53.5 -38.5t36.5 -66.5q32 -78 32 -250q0 -183 -42 -268q-19 -40 -54.5 -61.5t-74 -28.5t-98.5 -7t-97 6t-73 26.5t-55 60t-30.5 106.5zM116 472.5q-4 -49.5 -4 -125.5t9 -136t25 -98.5t47.5 -58.5t68 -27t100.5 -7t105.5 12t74 47.5t45.5 103.5t13 163t-6.5 153.5
t-21.5 97t-33.5 62t-49 35.5t-59.5 15.5t-68 3.5t-59.5 -1.5t-46.5 -6t-42.5 -15t-34.5 -27t-29 -43t-20.5 -62.5t-13.5 -85.5z" />
    <glyph glyph-name="multiply" unicode="&#xd7;" horiz-adv-x="438" 
d="M76 228l128 128l-128 128l17 17l128 -128l128 128l17 -17l-128 -128l128 -128l-17 -17l-128 128l-128 -128z" />
    <glyph glyph-name="Oslash" unicode="&#xd8;" horiz-adv-x="675" 
d="M132 642q20 40 56.5 61.5t73 27.5t101 6t111 -11t77.5 -44l32 50h18l-40 -62q63 -81 63 -309q0 -183 -42 -268q-19 -40 -54.5 -61.5t-74 -28.5t-104.5 -7t-111.5 10t-76.5 41l-31 -47h-18l38 59q-62 77 -62 285t44 298zM112 361q0 -209 53 -279l372 578q-28 32 -71 42.5
t-93 10.5t-70.5 -1.5t-46.5 -6t-42.5 -15t-34.5 -27t-29 -43t-20 -62.5q-18 -66 -18 -197zM245.5 31q42.5 -11 111.5 -11t110.5 12t74 47.5t45.5 103.5t13 178q0 210 -53 286l-372 -577q28 -28 70.5 -39z" />
    <glyph glyph-name="Ugrave" unicode="&#xd9;" horiz-adv-x="683" 
d="M222 930h26l120 -133h-14zM108 320v412h24v-412q0 -96 9 -135.5t15 -61.5t18.5 -38t22 -27.5t27.5 -18.5t30 -11.5t34 -5.5q37 -3 75 -3t62 2.5t53 12t47 29.5t35 52q31 61 31 205v412h24v-412q0 -102 -11.5 -145t-19.5 -67.5t-22.5 -41.5t-26 -29.5t-31 -20t-32.5 -12
t-36 -6.5q-33 -3 -101.5 -3t-107.5 15q-86 32 -109 171q-10 58 -10 139z" />
    <glyph glyph-name="Uacute" unicode="&#xda;" horiz-adv-x="683" 
d="M354 797l122 133h26l-134 -133h-14zM108 320v412h24v-412q0 -96 9 -135.5t15 -61.5t18.5 -38t22 -27.5t27.5 -18.5t30 -11.5t34 -5.5q37 -3 75 -3t62 2.5t53 12t47 29.5t35 52q31 61 31 205v412h24v-412q0 -102 -11.5 -145t-19.5 -67.5t-22.5 -41.5t-26 -29.5t-31 -20
t-32.5 -12t-36 -6.5q-33 -3 -101.5 -3t-107.5 15q-86 32 -109 171q-10 58 -10 139z" />
    <glyph glyph-name="Ucircumflex" unicode="&#xdb;" horiz-adv-x="683" 
d="M226 797l132 130h20l120 -130h-18l-112 115l-124 -115h-18zM108 320v412h24v-412q0 -96 9 -135.5t15 -61.5t18.5 -38t22 -27.5t27.5 -18.5t30 -11.5t34 -5.5q37 -3 75 -3t62 2.5t53 12t47 29.5t35 52q31 61 31 205v412h24v-412q0 -102 -11.5 -145t-19.5 -67.5
t-22.5 -41.5t-26 -29.5t-31 -20t-32.5 -12t-36 -6.5q-33 -3 -101.5 -3t-107.5 15q-86 32 -109 171q-10 58 -10 139z" />
    <glyph glyph-name="Udieresis" unicode="&#xdc;" horiz-adv-x="683" 
d="M234 797q-17 0 -17 17.5t17 17.5t17 -17.5t-17 -17.5zM471 815q0 17 17.5 17t17.5 -17.5t-17 -17.5q-7 0 -12.5 5.5t-5.5 12.5zM108 320v412h24v-412q0 -96 9 -135.5t15 -61.5t18.5 -38t22 -27.5t27.5 -18.5t30 -11.5t34 -5.5q37 -3 75 -3t62 2.5t53 12t47 29.5t35 52
q31 61 31 205v412h24v-412q0 -102 -11.5 -145t-19.5 -67.5t-22.5 -41.5t-26 -29.5t-31 -20t-32.5 -12t-36 -6.5q-33 -3 -101.5 -3t-107.5 15q-86 32 -109 171q-10 58 -10 139z" />
    <glyph glyph-name="Yacute" unicode="&#xdd;" horiz-adv-x="619" 
d="M319 797l121 133h26l-133 -133h-14zM328 0h-24v260l-243 472h27l228 -441l248 441h27l-263 -472v-260z" />
    <glyph glyph-name="Thorn" unicode="&#xde;" horiz-adv-x="554" 
d="M81 0v729h24v-141h217q176 0 176 -213q0 -160 -82 -205q-26 -14 -47 -17.5t-47 -3.5q-178 4 -217 10v-159h-24zM105 173h217q75 0 113.5 46t38.5 158q0 130 -70 167q-37 20 -82 20h-217v-391z" />
    <glyph glyph-name="germandbls" unicode="&#xdf;" horiz-adv-x="566" 
d="M81 0v566q0 92 53 151.5t155 59.5q71 0 118.5 -17.5t66.5 -45.5q24 -33 24 -68t-11 -65.5t-33.5 -60.5t-49.5 -49q-19 -15 -48.5 -35t-41.5 -29q-32 -24 -32 -57t26.5 -48.5t64.5 -20t76 -11t65 -28.5t27 -63v-47q0 -67 -42.5 -103.5t-115.5 -36.5q-98 0 -173 15v14
q95 -5 154 -5t87.5 11.5t41.5 30.5q24 35 24 74v47q1 34 -25.5 51t-65 21.5t-76.5 10t-65 26t-27 58t19.5 58.5t61.5 50t60 41.5t41 45.5q35 49 35 97.5t-35 76.5q-47 38 -142.5 38t-144 -49t-48.5 -138v-566h-24z" />
    <glyph glyph-name="agrave" unicode="&#xe0;" horiz-adv-x="520" 
d="M131 734h26l121 -133h-14zM71 510q126 31 232 31q65 0 107.5 -38t42.5 -116v-387h-15l-9 64l-16 -7q-144 -63 -226 -63q-57 0 -95 35t-38 97v61q0 63 35.5 98t97.5 35h181.5h60.5q1 33 1 49.5t-1 17.5q0 132 -136 132q-72 0 -222 -23v14zM78 131q0 -58 32 -85
q34 -28 75.5 -28t100 14.5t100.5 29.5l43 16v228l-242 -10q-109 -4 -109 -109v-56z" />
    <glyph glyph-name="aacute" unicode="&#xe1;" horiz-adv-x="520" 
d="M258 601l121 133h26l-133 -133h-14zM71 510q126 31 232 31q65 0 107.5 -38t42.5 -116v-387h-15l-9 64l-16 -7q-144 -63 -226 -63q-57 0 -95 35t-38 97v61q0 63 35.5 98t97.5 35h181.5h60.5q1 33 1 49.5t-1 17.5q0 132 -136 132q-72 0 -222 -23v14zM78 131q0 -58 32 -85
q34 -28 75.5 -28t100 14.5t100.5 29.5l43 16v228l-242 -10q-109 -4 -109 -109v-56z" />
    <glyph glyph-name="acircumflex" unicode="&#xe2;" horiz-adv-x="520" 
d="M133 601l132 130h20l120 -130h-18l-112 115l-124 -115h-18zM71 510q126 31 232 31q65 0 107.5 -38t42.5 -116v-387h-15l-9 64l-16 -7q-144 -63 -226 -63q-57 0 -95 35t-38 97v61q0 63 35.5 98t97.5 35h181.5h60.5q1 33 1 49.5t-1 17.5q0 132 -136 132q-72 0 -222 -23v14z
M78 131q0 -58 32 -85q34 -28 75.5 -28t100 14.5t100.5 29.5l43 16v228l-242 -10q-109 -4 -109 -109v-56z" />
    <glyph glyph-name="atilde" unicode="&#xe3;" horiz-adv-x="520" 
d="M202 700q19 0 64.5 -36.5t60.5 -36.5q36 0 100 53l6 -7q-20 -20 -33 -31q-36 -31 -73 -31q-22 0 -66.5 36.5t-56 36.5t-19 -1t-15.5 -4.5t-13 -5.5t-15 -8.5t-13.5 -9t-15 -11t-14.5 -10.5l-4 8q42 36 65 47t42 11zM71 510q126 31 232 31q65 0 107.5 -38t42.5 -116v-387
h-15l-9 64l-16 -7q-144 -63 -226 -63q-57 0 -95 35t-38 97v61q0 63 35.5 98t97.5 35h181.5h60.5q1 33 1 49.5t-1 17.5q0 132 -136 132q-72 0 -222 -23v14zM78 131q0 -58 32 -85q34 -28 75.5 -28t100 14.5t100.5 29.5l43 16v228l-242 -10q-109 -4 -109 -109v-56z" />
    <glyph glyph-name="adieresis" unicode="&#xe4;" horiz-adv-x="520" 
d="M141 634q-17 0 -17 17.5t17 17.5t17 -17.5t-17 -17.5zM378 652q0 17 17.5 17t17.5 -17.5t-17 -17.5q-8 0 -13 5t-5 13zM71 510q126 31 232 31q65 0 107.5 -38t42.5 -116v-387h-15l-9 64l-16 -7q-144 -63 -226 -63q-57 0 -95 35t-38 97v61q0 63 35.5 98t97.5 35h181.5
h60.5q1 33 1 49.5t-1 17.5q0 132 -136 132q-72 0 -222 -23v14zM78 131q0 -58 32 -85q34 -28 75.5 -28t100 14.5t100.5 29.5l43 16v228l-242 -10q-109 -4 -109 -109v-56z" />
    <glyph glyph-name="aring" unicode="&#xe5;" horiz-adv-x="520" 
d="M163 673q0 43 30 73t72 30t71 -30t29 -73t-29 -72.5t-71 -29.5t-72 29.5t-30 72.5zM177 673q0 -36 26 -61.5t62 -25.5t61 25.5t25 61.5t-25 62t-61 26t-62 -26t-26 -62zM71 510q126 31 232 31q65 0 107.5 -38t42.5 -116v-387h-15l-9 64l-16 -7q-144 -63 -226 -63
q-57 0 -95 35t-38 97v61q0 63 35.5 98t97.5 35h181.5h60.5q1 33 1 49.5t-1 17.5q0 132 -136 132q-72 0 -222 -23v14zM78 131q0 -58 32 -85q34 -28 75.5 -28t100 14.5t100.5 29.5l43 16v228l-242 -10q-109 -4 -109 -109v-56z" />
    <glyph glyph-name="ae" unicode="&#xe6;" horiz-adv-x="889" 
d="M71 510q126 31 233 31q52 0 91.5 -26t52.5 -80q14 57 58 78t126 21q106 0 132 -14q41 -21 52 -50q19 -45 19 -106t-33.5 -81.5t-103.5 -20.5h-244q-1 -28 -1 -53t1.5 -56t6.5 -58.5t22 -44.5t45 -24q81 -20 297 12v-16q-99 -28 -220 -28q-93 0 -127 28q-16 14 -22 21
t-12 20l-18 -7q-154 -62 -239 -62q-57 0 -95 35t-38 97v29q0 63 35.5 98t97.5 35h181.5h60.5q1 49 1 73.5t-1 25.5q0 132 -136 132q-72 0 -222 -23v14zM78 131q0 -58 32 -85q34 -28 75 -28t100 16.5t101 33.5l43 17v185l-242 -6q-109 -3 -109 -109v-24zM698 285q88 0 105 33
q8 16 8 47t-4 57t-15.5 43t-22 26t-35.5 13q-39 6 -101 6q-111 0 -144 -42t-35 -183h244z" />
    <glyph glyph-name="ccedilla" unicode="&#xe7;" horiz-adv-x="501" 
d="M68 266q0 84 12 139.5t37 83t54 37.5t91.5 10t177.5 -26v-14q-109 16 -172.5 16t-88 -9t-45.5 -35q-42 -49 -42 -206q0 -148 44 -199q21 -25 46 -34.5t63 -9.5q73 0 172 16l31 5v-16q-98 -28 -206 -29q-41 0 -69.5 10t-54 37.5t-38 83.5t-12.5 140zM253 -135
q13 12 17 34.5t4 40.5v25h17q0 -77 -20 -106.5t-81 -29.5h-31v7l33 5q24 4 36 8t25 16z" />
    <glyph glyph-name="egrave" unicode="&#xe8;" horiz-adv-x="526" 
d="M145 724h26l121 -133h-14zM96 463q23 53 96 67q30 5 75 5t71 -2.5t54.5 -13t43.5 -29.5q36 -45 36 -143q0 -56 -33 -76.5t-103 -20.5h-244q0 -146 43 -192q22 -23 46.5 -31t84.5 -8t196 20v-16q-101 -28 -212 -28q-107 0 -144.5 61.5t-37.5 201.5t28 205zM92 273h244
q84 0 103 33q9 16 9 56t-10.5 73.5t-35.5 50t-53.5 21t-90.5 4.5t-97.5 -16.5t-52 -66.5t-16.5 -155z" />
    <glyph glyph-name="eacute" unicode="&#xe9;" horiz-adv-x="526" 
d="M272 591l121 133h26l-133 -133h-14zM96 463q23 53 96 67q30 5 75 5t71 -2.5t54.5 -13t43.5 -29.5q36 -45 36 -143q0 -56 -33 -76.5t-103 -20.5h-244q0 -146 43 -192q22 -23 46.5 -31t84.5 -8t196 20v-16q-101 -28 -212 -28q-107 0 -144.5 61.5t-37.5 201.5t28 205z
M92 273h244q84 0 103 33q9 16 9 56t-10.5 73.5t-35.5 50t-53.5 21t-90.5 4.5t-97.5 -16.5t-52 -66.5t-16.5 -155z" />
    <glyph glyph-name="ecircumflex" unicode="&#xea;" horiz-adv-x="526" 
d="M135 591l132 130h20l120 -130h-18l-112 115l-124 -115h-18zM96 463q23 53 96 67q30 5 75 5t71 -2.5t54.5 -13t43.5 -29.5q36 -45 36 -143q0 -56 -33 -76.5t-103 -20.5h-244q0 -146 43 -192q22 -23 46.5 -31t84.5 -8t196 20v-16q-101 -28 -212 -28q-107 0 -144.5 61.5
t-37.5 201.5t28 205zM92 273h244q84 0 103 33q9 16 9 56t-10.5 73.5t-35.5 50t-53.5 21t-90.5 4.5t-97.5 -16.5t-52 -66.5t-16.5 -155z" />
    <glyph glyph-name="edieresis" unicode="&#xeb;" horiz-adv-x="526" 
d="M150 624q-17 0 -17 17.5t17 17.5t17 -17.5t-17 -17.5zM387 642q0 17 17.5 17t17.5 -17.5t-17 -17.5q-7 0 -12.5 5t-5.5 13zM96 463q23 53 96 67q30 5 75 5t71 -2.5t54.5 -13t43.5 -29.5q36 -45 36 -143q0 -56 -33 -76.5t-103 -20.5h-244q0 -146 43 -192q22 -23 46.5 -31
t84.5 -8t196 20v-16q-101 -28 -212 -28q-107 0 -144.5 61.5t-37.5 201.5t28 205zM92 273h244q84 0 103 33q9 16 9 56t-10.5 73.5t-35.5 50t-53.5 21t-90.5 4.5t-97.5 -16.5t-52 -66.5t-16.5 -155z" />
    <glyph glyph-name="igrave" unicode="&#xec;" horiz-adv-x="186" 
d="M-47 729h26l121 -133h-14zM81 0v531h24v-531h-24z" />
    <glyph glyph-name="iacute" unicode="&#xed;" horiz-adv-x="186" 
d="M86 596l121 133h26l-133 -133h-14zM81 0v531h24v-531h-24z" />
    <glyph glyph-name="icircumflex" unicode="&#xee;" horiz-adv-x="186" 
d="M-43 596l132 130h20l120 -130h-18l-112 115l-124 -115h-18zM81 0v531h24v-531h-24z" />
    <glyph glyph-name="idieresis" unicode="&#xef;" horiz-adv-x="186" 
d="M-52 614q0 8 5 12.5t12.5 4.5t12 -4.5t4.5 -11t-2 -10.5q-4 -9 -13 -9t-14 5t-5 13zM202 613.5q0 7.5 5.5 12.5t13 5t12.5 -4.5t5 -11t-3 -10.5q-4 -9 -13 -9t-14.5 5t-5.5 12.5zM81 0v531h24v-531h-24z" />
    <glyph glyph-name="eth" unicode="&#xf0;" horiz-adv-x="540" 
d="M93 62.5q-39 62.5 -39 199t40.5 203t137.5 66.5h70q57 0 93.5 -22.5t46.5 -43.5q-27 144 -102 219l-161 -64l-5 14l154 61q-78 66 -190 67v21q127 0 214 -79l128 51l6 -14l-122 -48q118 -125 118 -429q0 -142 -47 -203t-133 -61h-70q-100 0 -139 62.5zM89 386.5
q-11 -49.5 -11 -123t10 -121.5t31 -73t47.5 -34t65.5 -9h70q92 0 126 70q30 64 30 168q0 135 -39 190q-16 22 -46 37.5t-71 15.5h-70q-36 0 -62 -10t-48 -35.5t-33 -75z" />
    <glyph glyph-name="ntilde" unicode="&#xf1;" 
d="M221 689q19 0 64.5 -36.5t60.5 -36.5q36 0 100 53l6 -7q-20 -20 -34 -32q-35 -30 -72 -30q-22 0 -66.5 36.5t-56 36.5t-19 -1t-15.5 -4.5t-13 -5.5t-15 -8.5t-13.5 -9t-15 -11t-14.5 -10.5l-4 8q42 36 65 47t42 11zM81 0v531h14l10 -62q108 71 216 71q76 0 120 -50
t44 -120v-370h-24v370q0 62 -38 104t-101 42t-110 -14t-107 -47v-455h-24z" />
    <glyph glyph-name="ograve" unicode="&#xf2;" horiz-adv-x="573" 
d="M146 729h26l121 -133h-14zM113 53q-45 58 -45 211.5t48 212.5t171.5 59t171 -65.5t47.5 -212.5t-47.5 -205t-174 -58t-171.5 58zM104.5 395.5q-12.5 -52.5 -12.5 -134t11.5 -130t38.5 -72.5t59 -32t84.5 -8t86 9t60.5 34q50 49 50 196q0 157 -54 208q-27 27 -59.5 36.5
t-83 9.5t-81.5 -7.5t-59 -32t-40.5 -77z" />
    <glyph glyph-name="oacute" unicode="&#xf3;" horiz-adv-x="573" 
d="M279 596l121 133h26l-133 -133h-14zM113 53q-45 58 -45 211.5t48 212.5t171.5 59t171 -65.5t47.5 -212.5t-47.5 -205t-174 -58t-171.5 58zM104.5 395.5q-12.5 -52.5 -12.5 -134t11.5 -130t38.5 -72.5t59 -32t84.5 -8t86 9t60.5 34q50 49 50 196q0 157 -54 208
q-27 27 -59.5 36.5t-83 9.5t-81.5 -7.5t-59 -32t-40.5 -77z" />
    <glyph glyph-name="ocircumflex" unicode="&#xf4;" horiz-adv-x="573" 
d="M150 596l132 130h20l120 -130h-18l-112 115l-124 -115h-18zM113 53q-45 58 -45 211.5t48 212.5t171.5 59t171 -65.5t47.5 -212.5t-47.5 -205t-174 -58t-171.5 58zM104.5 395.5q-12.5 -52.5 -12.5 -134t11.5 -130t38.5 -72.5t59 -32t84.5 -8t86 9t60.5 34q50 49 50 196
q0 157 -54 208q-27 27 -59.5 36.5t-83 9.5t-81.5 -7.5t-59 -32t-40.5 -77z" />
    <glyph glyph-name="otilde" unicode="&#xf5;" horiz-adv-x="573" 
d="M224 685q19 0 64.5 -36.5t60.5 -36.5q36 0 100 53l6 -7q-20 -20 -33 -32q-36 -30 -73 -30q-22 0 -66.5 36.5t-56 36.5t-19 -1t-15.5 -4.5t-13 -5.5t-15 -8.5t-13.5 -9t-15 -11t-14.5 -10.5l-4 8q42 36 65 47t42 11zM113 53q-45 58 -45 211.5t48 212.5t171.5 59t171 -65.5
t47.5 -212.5t-47.5 -205t-174 -58t-171.5 58zM104.5 395.5q-12.5 -52.5 -12.5 -134t11.5 -130t38.5 -72.5t59 -32t84.5 -8t86 9t60.5 34q50 49 50 196q0 157 -54 208q-27 27 -59.5 36.5t-83 9.5t-81.5 -7.5t-59 -32t-40.5 -77z" />
    <glyph glyph-name="odieresis" unicode="&#xf6;" horiz-adv-x="573" 
d="M144 605q-2 4 -2 10.5t4.5 11t12 4.5t12.5 -4.5t5 -11t-2.5 -10.5t-6.5 -6.5t-8.5 -2.5t-8.5 2.5t-6 6.5zM401 601q-5 5 -5 11.5t2 10.5q5 8 14 8q18 0 18 -17q0 -11 -6 -14.5t-12 -3.5t-11 5zM113 53q-45 58 -45 211.5t48 212.5t171.5 59t171 -65.5t47.5 -212.5
t-47.5 -205t-174 -58t-171.5 58zM104.5 395.5q-12.5 -52.5 -12.5 -134t11.5 -130t38.5 -72.5t59 -32t84.5 -8t86 9t60.5 34q50 49 50 196q0 157 -54 208q-27 27 -59.5 36.5t-83 9.5t-81.5 -7.5t-59 -32t-40.5 -77z" />
    <glyph glyph-name="divide" unicode="&#xf7;" horiz-adv-x="551" 
d="M68 341v24h416v-24h-416zM262 159v42q0 12 12 12h11q12 0 12 -12v-42q0 -12 -12 -12h-11q-12 0 -12 12zM262 494v43q0 12 12 12h11q12 0 12 -12v-43q0 -11 -12 -11h-11q-12 0 -12 11z" />
    <glyph glyph-name="oslash" unicode="&#xf8;" horiz-adv-x="573" 
d="M115 50q-47 55 -47 211.5t48 215.5t161.5 59t163.5 -46l31 41h18l-39 -52q55 -62 55 -215t-47.5 -211t-166 -58t-167.5 45l-29 -40h-18zM92 258q0 -133 39 -186l296 399q-41 41 -141 41q-51 0 -82 -7.5t-59 -32.5q-53 -47 -53 -214zM286 19q52 0 85 8.5t60 33.5
q51 47 51 193.5t-46 205.5l-296 -400q40 -41 146 -41z" />
    <glyph glyph-name="ugrave" unicode="&#xf9;" 
d="M130 729h26l121 -133h-14zM68 162v370h24v-370q0 -62 38 -104t101 -42t110 14t107 47v455h24v-531h-14l-10 62q-108 -71 -216 -71q-76 0 -120 50t-44 120z" />
    <glyph glyph-name="uacute" unicode="&#xfa;" 
d="M263 596l121 133h26l-133 -133h-14zM68 162v370h24v-370q0 -62 38 -104t101 -42t110 14t107 47v455h24v-531h-14l-10 62q-108 -71 -216 -71q-76 0 -120 50t-44 120z" />
    <glyph glyph-name="ucircumflex" unicode="&#xfb;" 
d="M134 596l132 130h20l120 -130h-18l-112 115l-124 -115h-18zM68 162v370h24v-370q0 -62 38 -104t101 -42t110 14t107 47v455h24v-531h-14l-10 62q-108 -71 -216 -71q-76 0 -120 50t-44 120z" />
    <glyph glyph-name="udieresis" unicode="&#xfc;" 
d="M126 614q0 8 4.5 12.5t12 4.5t12.5 -4.5t5 -11t-3 -10.5q-4 -9 -13 -9t-13.5 5t-4.5 13zM385 601q-5 5 -5 11.5t2 10.5q5 8 14 8q18 0 18 -17q0 -11 -6 -14.5t-12 -3.5t-11 5zM68 162v370h24v-370q0 -62 38 -104t101 -42t110 14t107 47v455h24v-531h-14l-10 62
q-108 -71 -216 -71q-76 0 -120 50t-44 120z" />
    <glyph glyph-name="yacute" unicode="&#xfd;" horiz-adv-x="529" 
d="M256 596l122 133h26l-134 -133h-14zM28 531h26l148 -415q33 -91 101 -91l171 506h25l-233 -699l-46 -102h-12l87 270q-84 4 -117 110z" />
    <glyph glyph-name="thorn" unicode="&#xfe;" horiz-adv-x="562" 
d="M94 -270v1052h24v-311q24 18 97 43.5t120.5 25.5t83 -23t53.5 -63q36 -77 36 -187q0 -153 -46 -219q-18 -25 -51 -41.5t-75 -16.5t-108 10.5t-110 28.5v-299h-24zM334 14q80 0 115 61t35 190t-40.5 190t-109.5 61q-13 0 -28 -2t-26.5 -3.5t-29.5 -7t-26.5 -8t-29.5 -10
t-25.5 -9t-27 -10.5t-23.5 -9v-414q103 -29 216 -29z" />
    <glyph glyph-name="ydieresis" unicode="&#xff;" horiz-adv-x="529" 
d="M136 596q-17 0 -17 17.5t17 17.5t17 -17.5t-17 -17.5zM373 614q0 17 17.5 17t17.5 -17.5t-17 -17.5q-7 0 -12.5 5t-5.5 13zM28 531h26l148 -415q33 -91 101 -91l171 506h25l-233 -699l-46 -102h-12l87 270q-84 4 -117 110z" />
    <glyph glyph-name="Amacron" unicode="&#x100;" horiz-adv-x="659" 
d="M226 797v15h252v-15h-252zM61 0l274 732h34l262 -732h-26l-91 253h-333l-94 -253h-26zM190 277h315l-153 431z" />
    <glyph glyph-name="amacron" unicode="&#x101;" horiz-adv-x="520" 
d="M139 601v15h252v-15h-252zM71 510q126 31 232 31q65 0 107.5 -38t42.5 -116v-387h-15l-9 64l-16 -7q-144 -63 -226 -63q-57 0 -95 35t-38 97v61q0 63 35.5 98t97.5 35h181.5h60.5q1 33 1 49.5t-1 17.5q0 132 -136 132q-72 0 -222 -23v14zM78 131q0 -58 32 -85
q34 -28 75.5 -28t100 14.5t100.5 29.5l43 16v228l-242 -10q-109 -4 -109 -109v-56z" />
    <glyph glyph-name="Abreve" unicode="&#x102;" horiz-adv-x="659" 
d="M245 911h14q0 -42 29 -71t68 -29q46 0 75.5 28.5t29.5 71.5h14q0 -53 -35.5 -83.5t-80 -30.5t-79.5 31.5t-35 82.5zM61 0l274 732h34l262 -732h-26l-91 253h-333l-94 -253h-26zM190 277h315l-153 431z" />
    <glyph glyph-name="abreve" unicode="&#x103;" horiz-adv-x="520" 
d="M155 715h14q0 -42 29.5 -71t68.5 -29q46 0 75 28.5t29 71.5h14q0 -53 -35 -83.5t-80 -30.5t-80 31.5t-35 82.5zM71 510q126 31 232 31q65 0 107.5 -38t42.5 -116v-387h-15l-9 64l-16 -7q-144 -63 -226 -63q-57 0 -95 35t-38 97v61q0 63 35.5 98t97.5 35h181.5h60.5
q1 33 1 49.5t-1 17.5q0 132 -136 132q-72 0 -222 -23v14zM78 131q0 -58 32 -85q34 -28 75.5 -28t100 14.5t100.5 29.5l43 16v228l-242 -10q-109 -4 -109 -109v-56z" />
    <glyph glyph-name="Aogonek" unicode="&#x104;" horiz-adv-x="659" 
d="M625 0q-32 -13 -53.5 -36.5t-21.5 -58.5q0 -11 8 -29.5t34 -30.5t60 -12h5v-14q-10 -1 -26 -1t-41.5 9t-40.5 30q-18 25 -18 49.5t19.5 49.5t62.5 44h12zM61 0l274 732h34l262 -732h-26l-91 253h-333l-94 -253h-26zM190 277h315l-153 431z" />
    <glyph glyph-name="aogonek" unicode="&#x105;" horiz-adv-x="561" 
d="M426 -146.5q30 -20.5 73 -20.5h5v-14q-10 -1 -30 -1t-49.5 16t-42.5 44q-5 12 -5 27.5t11 36.5q19 35 72 58h12q-40 -16 -58 -43.5t-18 -55t30 -48zM90 510q126 31 232 31q65 0 107.5 -38t42.5 -116v-387h-15l-9 64l-16 -7q-144 -63 -226 -63q-57 0 -95 35t-38 97v61
q0 63 35.5 98t97.5 35h181.5h60.5v49.5v17.5q0 132 -136 132q-72 0 -222 -23v14zM97 131q0 -58 33 -85q33 -28 74.5 -28t100 14.5t101.5 29.5l42 16v228l-242 -10q-109 -4 -109 -109v-56z" />
    <glyph glyph-name="Cacute" unicode="&#x106;" horiz-adv-x="570" 
d="M317 800l121 133h26l-133 -133h-14zM74 368q0 93 9.5 156.5t35.5 115.5q51 100 198 100q85 0 214 -24v-14q-14 2 -26.5 3t-29 2.5t-36 3t-39.5 2.5q-60 3 -83 3q-78 0 -123 -28q-96 -60 -96 -322q0 -348 220 -348q93 0 183 9l30 3v-14q-118 -22 -214 -22q-243 0 -243 374
z" />
    <glyph glyph-name="cacute" unicode="&#x107;" horiz-adv-x="501" 
d="M265 596l121 133h26l-133 -133h-14zM68 266q0 84 12 139.5t37 83t54 37.5t91.5 10t177.5 -26v-14q-109 16 -172.5 16t-88 -9t-45.5 -35q-42 -49 -42 -206q0 -148 44 -199q21 -25 46 -34.5t63 -9.5q73 0 172 16l31 5v-16q-98 -28 -206 -29q-41 0 -69.5 10t-54 37.5
t-38 83.5t-12.5 140z" />
    <glyph glyph-name="Ccircumflex" unicode="&#x108;" horiz-adv-x="570" 
d="M198 800l132 130h20l120 -130h-18l-112 115l-124 -115h-18zM74 368q0 93 9.5 156.5t35.5 115.5q51 100 198 100q85 0 214 -24v-14q-14 2 -26.5 3t-29 2.5t-36 3t-39.5 2.5q-60 3 -83 3q-78 0 -123 -28q-96 -60 -96 -322q0 -348 220 -348q93 0 183 9l30 3v-14
q-118 -22 -214 -22q-243 0 -243 374z" />
    <glyph glyph-name="ccircumflex" unicode="&#x109;" horiz-adv-x="501" 
d="M133 596l132 130h20l120 -130h-18l-112 115l-124 -115h-18zM68 266q0 84 12 139.5t37 83t54 37.5t91.5 10t177.5 -26v-14q-109 16 -172.5 16t-88 -9t-45.5 -35q-42 -49 -42 -206q0 -148 44 -199q21 -25 46 -34.5t63 -9.5q73 0 172 16l31 5v-16q-98 -28 -206 -29
q-41 0 -69.5 10t-54 37.5t-38 83.5t-12.5 140z" />
    <glyph glyph-name="Cdotaccent" unicode="&#x10a;" horiz-adv-x="570" 
d="M330 812v62q0 12 12 12h10q12 0 12 -12v-62q0 -12 -12 -12h-10q-12 0 -12 12zM74 368q0 93 9.5 156.5t35.5 115.5q51 100 198 100q85 0 214 -24v-14q-14 2 -26.5 3t-29 2.5t-36 3t-39.5 2.5q-60 3 -83 3q-78 0 -123 -28q-96 -60 -96 -322q0 -348 220 -348q93 0 183 9
l30 3v-14q-118 -22 -214 -22q-243 0 -243 374z" />
    <glyph glyph-name="cdotaccent" unicode="&#x10b;" horiz-adv-x="501" 
d="M258 608v62q0 12 12 12h12q12 0 12 -12v-62q0 -12 -12 -12h-12q-12 0 -12 12zM68 266q0 84 12 139.5t37 83t54 37.5t91.5 10t177.5 -26v-14q-109 16 -172.5 16t-88 -9t-45.5 -35q-42 -49 -42 -206q0 -148 44 -199q21 -25 46 -34.5t63 -9.5q73 0 172 16l31 5v-16
q-98 -28 -206 -29q-41 0 -69.5 10t-54 37.5t-38 83.5t-12.5 140z" />
    <glyph glyph-name="Ccaron" unicode="&#x10c;" horiz-adv-x="570" 
d="M203 930h16l113 -115l125 115h18l-132 -130h-22zM74 368q0 93 9.5 156.5t35.5 115.5q51 100 198 100q85 0 214 -24v-14q-14 2 -26.5 3t-29 2.5t-36 3t-39.5 2.5q-60 3 -83 3q-78 0 -123 -28q-96 -60 -96 -322q0 -348 220 -348q93 0 183 9l30 3v-14q-118 -22 -214 -22
q-243 0 -243 374z" />
    <glyph glyph-name="ccaron" unicode="&#x10d;" horiz-adv-x="501" 
d="M149 726h16l113 -115l125 115h18l-132 -130h-22zM68 266q0 84 12 139.5t37 83t54 37.5t91.5 10t177.5 -26v-14q-109 16 -172.5 16t-88 -9t-45.5 -35q-42 -49 -42 -206q0 -148 44 -199q21 -25 46 -34.5t63 -9.5q73 0 172 16l31 5v-16q-98 -28 -206 -29q-41 0 -69.5 10
t-54 37.5t-38 83.5t-12.5 140z" />
    <glyph glyph-name="Dcaron" unicode="&#x10e;" horiz-adv-x="671" 
d="M221 922h16l113 -115l125 115h18l-132 -130h-22zM108 0v732h253q65 0 113.5 -24.5t75.5 -61.5t44 -89q26 -84 26 -171.5t-15 -149.5t-44.5 -116t-81.5 -87t-118 -33h-253zM132 24h229q60 0 107 32t74 83q54 102 54 225q0 173 -60.5 258.5t-174.5 85.5h-229v-684z" />
    <glyph glyph-name="dcaron" unicode="&#x10f;" 
d="M68 263q0 276 184 276q37 0 95 -11t103 -29v286h21v-785h-13l-10 59q-22 -20 -85 -42.5t-113 -22.5t-87.5 24t-56.5 65q-38 79 -38 180zM137 77q45 -59 115 -59q88 0 196 55v412q-115 30 -196 30q-35 0 -61 -10.5t-50 -36.5q-49 -53 -49 -192.5t45 -198.5zM535 782h25
v-67l-6 -134h-12l-7 134v67z" />
    <glyph glyph-name="Dcroat" unicode="&#x110;" horiz-adv-x="671" 
d="M43 366v14h65v352h243q65 0 113.5 -24.5t75.5 -61.5t44 -89q26 -84 26 -171.5t-15 -149.5t-44.5 -116t-81.5 -87t-118 -33h-243v366h-65zM132 24h219q60 0 107 32t74 83q54 102 54 225q0 173 -60.5 258.5t-174.5 85.5h-219v-328h159v-14h-159v-342z" />
    <glyph glyph-name="dcroat" unicode="&#x111;" 
d="M68 263q0 276 185 276q37 0 94.5 -11t102.5 -29v142h-132v14h132v130h22v-130h83v-14h-83v-641h-13l-10 59q-22 -20 -85 -42.5t-113 -22.5t-87.5 24t-57.5 65q-38 78 -38 180zM136 459.5q-44 -55.5 -44 -187.5t46 -193t115 -61q88 0 196 55v412q-115 30 -192 30
t-121 -55.5z" />
    <glyph glyph-name="Emacron" unicode="&#x112;" horiz-adv-x="582" 
d="M208 795v15h252v-15h-252zM108 123v479q0 69 35 99.5t85 30.5h6l297 -10v-14h-297q-102 0 -102 -106v-227l359 -5v-14l-359 -5v-228q0 -62 30 -82t82 -20h287v-14l-286 -10h-19t-32.5 3.5t-41.5 15.5q-44 26 -44 107z" />
    <glyph glyph-name="emacron" unicode="&#x113;" horiz-adv-x="526" 
d="M144 596v15h252v-15h-252zM96 463q23 53 96 67q30 5 75 5t71 -2.5t54.5 -13t43.5 -29.5q36 -45 36 -143q0 -56 -33 -76.5t-103 -20.5h-244q0 -146 43 -192q22 -23 46.5 -31t84.5 -8t196 20v-16q-101 -28 -212 -28q-107 0 -144.5 61.5t-37.5 201.5t28 205zM92 273h244
q84 0 103 33q9 16 9 56t-10.5 73.5t-35.5 50t-53.5 21t-90.5 4.5t-97.5 -16.5t-52 -66.5t-16.5 -155z" />
    <glyph glyph-name="Edotaccent" unicode="&#x116;" horiz-adv-x="582" 
d="M317 809v62q0 12 12 12h11q12 0 12 -12v-62q0 -12 -12 -12h-11q-12 0 -12 12zM108 123v479q0 69 35 99.5t85 30.5h6l297 -10v-14h-297q-102 0 -102 -106v-227l359 -5v-14l-359 -5v-228q0 -62 30 -82t82 -20h287v-14l-286 -10h-19t-32.5 3.5t-41.5 15.5q-44 26 -44 107z
" />
    <glyph glyph-name="edotaccent" unicode="&#x117;" horiz-adv-x="526" 
d="M272 608v62q0 12 12 12h12q12 0 12 -12v-62q0 -12 -12 -12h-12q-12 0 -12 12zM96 463q23 53 96 67q30 5 75 5t71 -2.5t54.5 -13t43.5 -29.5q36 -45 36 -143q0 -56 -33 -76.5t-103 -20.5h-244q0 -146 43 -192q22 -23 46.5 -31t84.5 -8t196 20v-16q-101 -28 -212 -28
q-107 0 -144.5 61.5t-37.5 201.5t28 205zM92 273h244q84 0 103 33q9 16 9 56t-10.5 73.5t-35.5 50t-53.5 21t-90.5 4.5t-97.5 -16.5t-52 -66.5t-16.5 -155z" />
    <glyph glyph-name="Eogonek" unicode="&#x118;" horiz-adv-x="582" 
d="M531 8q-32 -13 -53.5 -36.5t-21.5 -59.5q0 -11 8 -29t34 -30t60 -12h5v-14q-10 -2 -26 -2t-41.5 9.5t-40.5 30.5q-18 25 -18 49.5t19.5 49.5t62.5 44h12zM108 123v479q0 69 35 99.5t85 30.5h6l297 -10v-14h-297q-102 0 -102 -106v-227l359 -5v-14l-359 -5v-228
q0 -62 30 -82t82 -20h287v-14l-286 -10h-19t-32.5 3.5t-41.5 15.5q-44 26 -44 107z" />
    <glyph glyph-name="eogonek" unicode="&#x119;" horiz-adv-x="526" 
d="M416 -123.5q30 -20.5 73 -20.5h5v-14q-10 -1 -30 -1t-49.5 16t-42.5 45q-5 11 -5 26.5t11 36.5q19 35 72 58h12q-40 -16 -58 -43.5t-18 -55t30 -48zM96 463q23 53 96 67q30 5 75 5t71 -2.5t54.5 -13t43.5 -29.5q36 -45 36 -143q0 -56 -33 -76.5t-103 -20.5h-244
q0 -146 43 -192q22 -23 46.5 -31t84.5 -8t196 20v-16q-101 -28 -212 -28q-107 0 -144.5 61.5t-37.5 201.5t28 205zM92 273h244q84 0 103 33q9 16 9 56t-10.5 73.5t-35.5 50t-53.5 21t-90.5 4.5t-97.5 -16.5t-52 -66.5t-16.5 -155z" />
    <glyph glyph-name="Ecaron" unicode="&#x11a;" horiz-adv-x="582" 
d="M205 922h16l113 -115l125 115h18l-132 -130h-22zM108 123v479q0 69 35 99.5t85 30.5h6l297 -10v-14h-297q-102 0 -102 -106v-227l359 -5v-14l-359 -5v-228q0 -62 30 -82t82 -20h287v-14l-286 -10h-19t-32.5 3.5t-41.5 15.5q-44 26 -44 107z" />
    <glyph glyph-name="ecaron" unicode="&#x11b;" horiz-adv-x="526" 
d="M153 726h16l113 -115l125 115h18l-132 -130h-22zM96 463q23 53 96 67q30 5 75 5t71 -2.5t54.5 -13t43.5 -29.5q36 -45 36 -143q0 -56 -33 -76.5t-103 -20.5h-244q0 -146 43 -192q22 -23 46.5 -31t84.5 -8t196 20v-16q-101 -28 -212 -28q-107 0 -144.5 61.5t-37.5 201.5
t28 205zM92 273h244q84 0 103 33q9 16 9 56t-10.5 73.5t-35.5 50t-53.5 21t-90.5 4.5t-97.5 -16.5t-52 -66.5t-16.5 -155z" />
    <glyph glyph-name="Gcircumflex" unicode="&#x11c;" horiz-adv-x="620" 
d="M191 800l132 130h20l120 -130h-18l-112 115l-124 -115h-18zM76.5 269q-2.5 41 -2.5 95t1.5 90t7 76.5t14.5 69.5t25.5 57t39.5 45q50 38 142 38t237 -27v-19l-43 6q-131 16 -193 16t-97 -16t-56 -43.5t-34 -72.5q-20 -75 -20 -216q0 -192 41.5 -270.5t157.5 -78.5
q69 0 195 37l42 13v295h-214v14q40 11 121 11t117 -3v-386h-14l-8 54q-32 -17 -105.5 -38t-128.5 -21t-93 12t-62 39t-39 57.5t-22 77.5t-9.5 88z" />
    <glyph glyph-name="gcircumflex" unicode="&#x11d;" horiz-adv-x="572" 
d="M147 597l132 130h20l120 -130h-18l-112 115l-124 -115h-18zM64 120q0 25 22 46t63 22q-87 35 -87 156q0 99 40.5 144t131.5 45h312v-14l-111 -10q61 -44 61 -165q0 -56 -29 -108q-16 -28 -51 -45.5t-85 -17.5h-156q-19 0 -43 -7q-46 -13 -46 -50q0 -27 26.5 -41.5
t53.5 -14.5h206q69 0 107 -36t38 -97v-53q0 -144 -150 -144h-150q-72 0 -114 40.5t-42 113.5v94l12 105q-9 12 -9 37zM86 -116q0 -39 14.5 -67t37.5 -41q40 -22 79 -22h150q126 0 126 120v53q0 49 -28.5 79.5t-92.5 30.5h-204q-24 0 -44.5 7.5t-29.5 14.5l-8 7v-182zM86 344
q0 -146 141 -146h102q75 0 109 41.5t34 113t-29.5 114t-70.5 42.5h-148q-78 0 -108 -42.5t-30 -122.5z" />
    <glyph glyph-name="Gbreve" unicode="&#x11e;" horiz-adv-x="620" 
d="M227 914h14q0 -42 29 -71t68 -29q46 0 75.5 28.5t29.5 71.5h14q0 -53 -35.5 -83.5t-80 -30.5t-79.5 31.5t-35 82.5zM76.5 269q-2.5 41 -2.5 95t1.5 90t7 76.5t14.5 69.5t25.5 57t39.5 45q50 38 142 38t237 -27v-19l-43 6q-131 16 -193 16t-97 -16t-56 -43.5t-34 -72.5
q-20 -75 -20 -216q0 -192 41.5 -270.5t157.5 -78.5q69 0 195 37l42 13v295h-214v14q40 11 121 11t117 -3v-386h-14l-8 54q-32 -17 -105.5 -38t-128.5 -21t-93 12t-62 39t-39 57.5t-22 77.5t-9.5 88z" />
    <glyph glyph-name="gbreve" unicode="&#x11f;" horiz-adv-x="572" 
d="M164 710h14q0 -42 29 -71t68 -29q46 0 75.5 28.5t29.5 71.5h14q0 -53 -35.5 -83.5t-80 -30.5t-79.5 31.5t-35 82.5zM64 120q0 25 22 46t63 22q-87 35 -87 156q0 99 40.5 144t131.5 45h312v-14l-111 -10q61 -44 61 -165q0 -56 -29 -108q-16 -28 -51 -45.5t-85 -17.5h-156
q-19 0 -43 -7q-46 -13 -46 -50q0 -27 26.5 -41.5t53.5 -14.5h206q69 0 107 -36t38 -97v-53q0 -144 -150 -144h-150q-72 0 -114 40.5t-42 113.5v94l12 105q-9 12 -9 37zM86 -116q0 -39 14.5 -67t37.5 -41q40 -22 79 -22h150q126 0 126 120v53q0 49 -28.5 79.5t-92.5 30.5
h-204q-24 0 -44.5 7.5t-29.5 14.5l-8 7v-182zM86 344q0 -146 141 -146h102q75 0 109 41.5t34 113t-29.5 114t-70.5 42.5h-148q-78 0 -108 -42.5t-30 -122.5z" />
    <glyph glyph-name="Gdotaccent" unicode="&#x120;" horiz-adv-x="620" 
d="M324 812v62q0 12 12 12h12q12 0 12 -12v-62q0 -12 -12 -12h-12q-12 0 -12 12zM76.5 269q-2.5 41 -2.5 95t1.5 90t7 76.5t14.5 69.5t25.5 57t39.5 45q50 38 142 38t237 -27v-19l-43 6q-131 16 -193 16t-97 -16t-56 -43.5t-34 -72.5q-20 -75 -20 -216q0 -192 41.5 -270.5
t157.5 -78.5q69 0 195 37l42 13v295h-214v14q40 11 121 11t117 -3v-386h-14l-8 54q-32 -17 -105.5 -38t-128.5 -21t-93 12t-62 39t-39 57.5t-22 77.5t-9.5 88z" />
    <glyph glyph-name="gdotaccent" unicode="&#x121;" horiz-adv-x="572" 
d="M270 608v62q0 12 12 12h12q12 0 12 -12v-62q0 -12 -12 -12h-12q-12 0 -12 12zM64 120q0 25 22 46t63 22q-87 35 -87 156q0 99 40.5 144t131.5 45h312v-14l-111 -10q61 -44 61 -165q0 -56 -29 -108q-16 -28 -51 -45.5t-85 -17.5h-156q-19 0 -43 -7q-46 -13 -46 -50
q0 -27 26.5 -41.5t53.5 -14.5h206q69 0 107 -36t38 -97v-53q0 -144 -150 -144h-150q-72 0 -114 40.5t-42 113.5v94l12 105q-9 12 -9 37zM86 -116q0 -39 14.5 -67t37.5 -41q40 -22 79 -22h150q126 0 126 120v53q0 49 -28.5 79.5t-92.5 30.5h-204q-24 0 -44.5 7.5t-29.5 14.5
l-8 7v-182zM86 344q0 -146 141 -146h102q75 0 109 41.5t34 113t-29.5 114t-70.5 42.5h-148q-78 0 -108 -42.5t-30 -122.5z" />
    <glyph glyph-name="Gcommaaccent" unicode="&#x122;" horiz-adv-x="620" 
d="M346 -173q0 -16 -7 -22.5t-11 -6.5t-11 1v5q14 0 14 14v42h-5q-11 0 -11 12v56q0 11 11 11h9q11 0 11 -11v-101zM76.5 269q-2.5 41 -2.5 95t1.5 90t7 76.5t14.5 69.5t25.5 57t39.5 45q50 38 142 38t237 -27v-19l-43 6q-131 16 -193 16t-97 -16t-56 -43.5t-34 -72.5
q-20 -75 -20 -216q0 -192 41.5 -270.5t157.5 -78.5q69 0 195 37l42 13v295h-214v14q40 11 121 11t117 -3v-386h-14l-8 54q-32 -17 -105.5 -38t-128.5 -21t-93 12t-62 39t-39 57.5t-22 77.5t-9.5 88z" />
    <glyph glyph-name="gcommaaccent" unicode="&#x123;" horiz-adv-x="572" 
d="M272 704q0 16 7 22.5t11 6.5t11 -1v-5q-15 0 -15 -14v-42h6q11 0 11 -12v-56q0 -11 -11 -11h-9q-11 0 -11 11v101zM73 81q-11 11 -11 39t22.5 48t64.5 20q-87 35 -87 156q0 99 40.5 144t131.5 45h312v-14l-111 -10q61 -44 61 -165q0 -122 -94 -159q-30 -12 -71 -12h-156
q-56 0 -77 -24q-11 -12 -11 -30t19 -32q28 -21 69 -27l197 -25q63 -8 104 -36t41 -82v-33q0 -77 -40 -117q-37 -37 -110 -37h-150q-72 0 -114 40.5t-42 113.5v94zM86 -116q0 -86 68 -116q30 -14 63 -14h150q57 0 91.5 31.5t34.5 98.5v28q0 43 -29.5 66t-88.5 31l-206 28
q-48 6 -74 24l-9 6v-183zM86 344q0 -146 141 -146h102q108 0 136 92q7 25 7 54q0 80 -29.5 122.5t-70.5 42.5h-148q-78 0 -108 -42.5t-30 -122.5z" />
    <glyph glyph-name="Hcircumflex" unicode="&#x124;" horiz-adv-x="664" 
d="M216 797l132 130h20l120 -130h-18l-112 115l-124 -115h-18zM108 0v732h24v-366h440v366h24v-732h-24v342h-440v-342h-24z" />
    <glyph glyph-name="hcircumflex" unicode="&#x125;" 
d="M-27 844l132 130h20l120 -130h-18l-112 115l-124 -115h-18zM101 0v784h24v-315q108 71 216 71q76 0 120 -50t44 -120v-370h-24v370q0 65 -37.5 105.5t-101 40.5t-110.5 -14t-107 -47v-455h-24z" />
    <glyph glyph-name="Hbar" unicode="&#x126;" horiz-adv-x="664" 
d="M43 537v15h65v180h24v-180h440v180h24v-180h65v-15h-65v-537h-24v342h-440v-342h-24v537h-65zM132 366h440v171h-440v-171z" />
    <glyph glyph-name="hbar" unicode="&#x127;" 
d="M11 631v14h70v139h24v-139h144v-14h-144v-162q108 71 216 71q76 0 120 -50t44 -120v-370h-24v370q0 65 -37.5 105.5t-101 40.5t-110.5 -14t-107 -47v-455h-24v631h-70z" />
    <glyph glyph-name="Itilde" unicode="&#x128;" horiz-adv-x="200" 
d="M58 886q19 0 64.5 -36.5t60.5 -36.5q36 0 100 53l6 -7q-20 -20 -33 -31q-36 -31 -73 -31q-22 0 -66.5 36.5t-56 36.5t-19 -1t-15.5 -4.5t-13 -5.5t-15 -8.5t-13.5 -9t-15 -11t-14.5 -10.5l-4 8q42 36 65 47t42 11zM108 0v732h24v-732h-24z" />
    <glyph glyph-name="itilde" unicode="&#x129;" horiz-adv-x="186" 
d="M31 685q19 0 64.5 -36.5t60.5 -36.5q36 0 100 53l6 -7q-20 -20 -34 -32q-35 -30 -72 -30q-22 0 -66.5 36.5t-56 36.5t-19 -1t-15.5 -4.5t-13 -5.5t-15 -8.5t-13.5 -9t-15 -11t-14.5 -10.5l-4 8q42 36 65 47t42 11zM81 0v531h24v-531h-24z" />
    <glyph glyph-name="Imacron" unicode="&#x12a;" horiz-adv-x="200" 
d="M-6 797v15h252v-15h-252zM108 0v732h24v-732h-24z" />
    <glyph glyph-name="imacron" unicode="&#x12b;" horiz-adv-x="186" 
d="M-33 596v15h252v-15h-252zM81 0v531h24v-531h-24z" />
    <glyph glyph-name="Iogonek" unicode="&#x12e;" horiz-adv-x="200" 
d="M81 -146.5q30 -20.5 73 -20.5h5v-14q-10 -1 -26 -1t-41.5 9t-40.5 30q-18 25 -18 49.5t19.5 49.5t62.5 44h12q-40 -16 -58 -43t-18 -55t30 -48.5zM108 0v732h24v-732h-24z" />
    <glyph glyph-name="iogonek" unicode="&#x12f;" horiz-adv-x="170" 
d="M65 -146.5q30 -20.5 73 -20.5h5v-14q-10 -1 -30 -1t-49.5 16t-41.5 44q-6 12 -6 27.5t12 36.5q18 35 71 58h12q-40 -16 -58 -43.5t-18 -55t30 -48zM87 622v62q0 12 12 12h11q11 0 11 -12v-62q0 -12 -11 -12h-11q-12 0 -12 12zM91 0v531h24v-531h-24z" />
    <glyph glyph-name="Idotaccent" unicode="&#x130;" horiz-adv-x="200" 
d="M102 809v62q0 12 12 12h12q12 0 12 -12v-62q0 -12 -12 -12h-12q-12 0 -12 12zM108 0v732h24v-732h-24z" />
    <glyph glyph-name="dotlessi" unicode="&#x131;" horiz-adv-x="186" 
d="M81 0v531h24v-531h-24z" />
    <glyph glyph-name="Jcircumflex" unicode="&#x134;" horiz-adv-x="349" 
d="M133 797l132 130h20l120 -130h-18l-112 115l-124 -115h-18zM51 35q56 -16 78 -16t42 1.5t39.5 15.5t33 46.5t13.5 82.5v567h24v-567q0 -109 -52 -147q-31 -23 -83 -23q-58 0 -99 26z" />
    <glyph glyph-name="jcircumflex" unicode="&#x135;" horiz-adv-x="170" 
d="M-60 596l132 130h21l119 -130h-17l-113 116l-124 -116h-18zM70 -270v801h24v-535v-103.5t-11 -162.5h-13z" />
    <glyph glyph-name="Kcommaaccent" unicode="&#x136;" horiz-adv-x="593" 
d="M336 -169q0 -16 -7 -22.5t-11 -6.5t-11 1v5q14 0 14 14v42h-5q-11 0 -11 12v56q0 11 11 11h9q11 0 11 -11v-101zM108 0v732h24v-353h152l241 353h29l-248 -365l248 -367h-30l-241 355h-150v-355h-25z" />
    <glyph glyph-name="kcommaaccent" unicode="&#x137;" horiz-adv-x="498" 
d="M292 -168q0 -16 -7 -22.5t-11 -6.5t-11 1v5q14 0 14 14v42h-5q-11 0 -11 12v55q0 12 11 12h9q11 0 11 -12v-100zM81 0v782h24v-465h60l268 214h38l-282 -227l281 -304h-35l-270 293h-60v-293h-24z" />
    <glyph glyph-name="kgreenlandic" unicode="&#x138;" horiz-adv-x="473" 
d="M81 0v531h24v-252h115l197 252h29l-205 -264l191 -267h-30l-182 255h-115v-255h-24z" />
    <glyph glyph-name="Lacute" unicode="&#x139;" horiz-adv-x="559" 
d="M117 792l121 133h26l-133 -133h-14zM108 126v606h24v-606q0 -62 30.5 -82t81.5 -20h276v-24h-276q-57 0 -92 20q-44 25 -44 106z" />
    <glyph glyph-name="lacute" unicode="&#x13a;" horiz-adv-x="298" 
d="M86 843l121 133h26l-133 -133h-14zM81 189v594h24v-594q0 -123 47 -151q16 -9 23 -10.5t48 -8t48 -6.5v-13h-67q-63 0 -93 45.5t-30 143.5z" />
    <glyph glyph-name="Lcommaaccent" unicode="&#x13b;" horiz-adv-x="559" 
d="M336 -168q0 -16 -7 -22.5t-11 -6.5t-11 1v5q14 0 14 14v42h-5q-11 0 -11 12v55q0 12 11 12h9q11 0 11 -12v-100zM108 126v606h24v-606q0 -62 30.5 -82t81.5 -20h276v-24h-276q-57 0 -92 20q-44 25 -44 106z" />
    <glyph glyph-name="lcommaaccent" unicode="&#x13c;" horiz-adv-x="298" 
d="M154 -168q0 -16 -7 -22.5t-11 -6.5t-11 1v5q14 0 14 14v42h-5q-11 0 -11 12v55q0 12 11 12h9q11 0 11 -12v-100zM81 189v594h24v-594q0 -123 47 -151q16 -9 23 -10.5t48 -8t48 -6.5v-13h-67q-63 0 -93 45.5t-30 143.5z" />
    <glyph glyph-name="Lcaron" unicode="&#x13d;" horiz-adv-x="559" 
d="M108 126v606h24v-606q0 -62 30.5 -82t81.5 -20h276v-24h-276q-57 0 -92 20q-44 25 -44 106zM217 772h25v-67l-6 -134h-12l-7 134v67z" />
    <glyph glyph-name="lcaron" unicode="&#x13e;" horiz-adv-x="298" 
d="M81 189v594h24v-594q0 -93 22.5 -125.5t79.5 -41.5t64 -9v-13h-72q-60 0 -89 43.5t-29 145.5zM205 782h25v-67l-6 -134h-12l-7 134v67z" />
    <glyph glyph-name="Lslash" unicode="&#x141;" horiz-adv-x="559" 
d="M108 732h24v-305l120 52v-20l-120 -52v-281q0 -62 30.5 -82t81.5 -20h276v-24h-276q-57 0 -92 20q-44 25 -44 106v270l-82 -36v21l82 36v315z" />
    <glyph glyph-name="lslash" unicode="&#x142;" horiz-adv-x="298" 
d="M81 783h24v-314l133 69l-1 -20l-132 -70v-259q0 -93 22.5 -125.5t79.5 -41.5t64 -9v-13h-72q-60 0 -89 43.5t-29 145.5v247l-70 -37v21l70 36v327z" />
    <glyph glyph-name="Nacute" unicode="&#x143;" horiz-adv-x="665" 
d="M352 797l122 133h26l-134 -133h-14zM108 0v732h25l440 -686v686h24v-732h-24l-441 686v-686h-24z" />
    <glyph glyph-name="nacute" unicode="&#x144;" 
d="M276 600l121 133h26l-133 -133h-14zM81 0v531h14l10 -62q108 71 216 71q76 0 120 -50t44 -120v-370h-24v370q0 62 -38 104t-101 42t-110 -14t-107 -47v-455h-24z" />
    <glyph glyph-name="Ncommaaccent" unicode="&#x145;" horiz-adv-x="665" 
d="M369 -173q0 -16 -7 -22.5t-11 -6.5t-11 1v5q14 0 14 14v42h-5q-11 0 -11 12v56q0 11 11 11h9q11 0 11 -11v-101zM108 0v732h25l440 -686v686h24v-732h-24l-441 686v-686h-24z" />
    <glyph glyph-name="ncommaaccent" unicode="&#x146;" 
d="M299 -168q0 -16 -7 -22.5t-11 -6.5t-11 1v5q14 0 14 14v42h-5q-11 0 -11 12v55q0 12 11 12h9q11 0 11 -12v-100zM81 0v531h14l10 -62q108 71 216 71q76 0 120 -50t44 -120v-370h-24v370q0 62 -38 104t-101 42t-110 -14t-107 -47v-455h-24z" />
    <glyph glyph-name="Ncaron" unicode="&#x147;" horiz-adv-x="665" 
d="M216 927h16l114 -115l124 115h18l-132 -130h-22zM108 0v732h25l440 -686v686h24v-732h-24l-441 686v-686h-24z" />
    <glyph glyph-name="ncaron" unicode="&#x148;" 
d="M147 730h16l113 -115l125 115h18l-132 -130h-22zM81 0v531h14l10 -62q108 71 216 71q76 0 120 -50t44 -120v-370h-24v370q0 62 -38 104t-101 42t-110 -14t-107 -47v-455h-24z" />
    <glyph glyph-name="Eng" unicode="&#x14a;" horiz-adv-x="665" 
d="M108 0v732h25l440 -684v684h24v-816q0 -57 -8.5 -91t-30 -52.5t-49.5 -24t-76 -5.5v18q7 1 27.5 3t34 4.5t32 11.5t26.5 24q20 38 20 111v85l-440 684v-684h-25z" />
    <glyph glyph-name="eng" unicode="&#x14b;" horiz-adv-x="566" 
d="M81 0v531h12l12 -62q40 23 65 35q73 36 145.5 36t121 -50.5t48.5 -119.5v-460q0 -138 -152 -155l-12 15q64 11 101.5 43.5t38.5 97.5v459q0 56 -42.5 101t-103.5 45t-107 -16.5t-103 -47.5v-452h-24z" />
    <glyph glyph-name="Omacron" unicode="&#x14c;" horiz-adv-x="675" 
d="M230 797v15h252v-15h-252zM99.5 195q-11.5 67 -11.5 167t12 169.5t32 110t56.5 62t73 27.5t89.5 6t85.5 -4t65.5 -17t53.5 -38.5t36.5 -66.5q32 -78 32 -250q0 -183 -42 -268q-19 -40 -54.5 -61.5t-74 -28.5t-98.5 -7t-97 6t-73 26.5t-55 60t-30.5 106.5zM116 472.5
q-4 -49.5 -4 -125.5t9 -136t25 -98.5t47.5 -58.5t68 -27t100.5 -7t105.5 12t74 47.5t45.5 103.5t13 163t-6.5 153.5t-21.5 97t-33.5 62t-49 35.5t-59.5 15.5t-68 3.5t-59.5 -1.5t-46.5 -6t-42.5 -15t-34.5 -27t-29 -43t-20.5 -62.5t-13.5 -85.5z" />
    <glyph glyph-name="omacron" unicode="&#x14d;" horiz-adv-x="573" 
d="M160 596v15h252v-15h-252zM113 53q-45 58 -45 211.5t48 212.5t171.5 59t171 -65.5t47.5 -212.5t-47.5 -205t-174 -58t-171.5 58zM104.5 395.5q-12.5 -52.5 -12.5 -134t11.5 -130t38.5 -72.5t59 -32t84.5 -8t86 9t60.5 34q50 49 50 196q0 157 -54 208q-27 27 -59.5 36.5
t-83 9.5t-81.5 -7.5t-59 -32t-40.5 -77z" />
    <glyph glyph-name="Ohungarumlaut" unicode="&#x150;" horiz-adv-x="675" 
d="M280 797l120 133h26l-132 -133h-14zM418 797l122 133h26l-134 -133h-14zM99.5 195q-11.5 67 -11.5 167t12 169.5t32 110t56.5 62t73 27.5t89.5 6t85.5 -4t65.5 -17t53.5 -38.5t36.5 -66.5q32 -78 32 -250q0 -183 -42 -268q-19 -40 -54.5 -61.5t-74 -28.5t-98.5 -7t-97 6
t-73 26.5t-55 60t-30.5 106.5zM116 472.5q-4 -49.5 -4 -125.5t9 -136t25 -98.5t47.5 -58.5t68 -27t100.5 -7t105.5 12t74 47.5t45.5 103.5t13 163t-6.5 153.5t-21.5 97t-33.5 62t-49 35.5t-59.5 15.5t-68 3.5t-59.5 -1.5t-46.5 -6t-42.5 -15t-34.5 -27t-29 -43t-20.5 -62.5
t-13.5 -85.5z" />
    <glyph glyph-name="ohungarumlaut" unicode="&#x151;" horiz-adv-x="573" 
d="M210 596l120 133h26l-132 -133h-14zM348 596l122 133h26l-134 -133h-14zM113 53q-45 58 -45 211.5t48 212.5t171.5 59t171 -65.5t47.5 -212.5t-47.5 -205t-174 -58t-171.5 58zM104.5 395.5q-12.5 -52.5 -12.5 -134t11.5 -130t38.5 -72.5t59 -32t84.5 -8t86 9t60.5 34
q50 49 50 196q0 157 -54 208q-27 27 -59.5 36.5t-83 9.5t-81.5 -7.5t-59 -32t-40.5 -77z" />
    <glyph glyph-name="OE" unicode="&#x152;" horiz-adv-x="1054" 
d="M116 472.5q-4 -49.5 -4 -125.5t9 -136t25 -98.5t47.5 -58.5t68 -27t94.5 -7q99 0 149 27.5t72 101.5t22 193t-10 180.5t-27 99.5t-49 58t-67 26.5t-79 6.5t-64.5 -1.5t-46.5 -6t-42.5 -15t-34.5 -27t-29 -43t-20.5 -62.5t-13.5 -85.5zM99.5 195q-11.5 67 -11.5 167
t12 169.5t32 110t56.5 62t73 27.5t91 6t88 -4.5t66.5 -18.5q65 -29 92 -121q0 73 34 106t86 33h6l267 -10v-14h-267q-102 0 -102 -106q0 -153 1 -227l328 -5v-14l-328 -5l-1 -228q0 -62 30 -82t82 -20h257v-14l-257 -10h-12q-55 0 -89.5 28t-34.5 111q-27 -84 -83 -112
t-160 -28q-61 0 -98 6t-73 26.5t-55 60t-30.5 106.5z" />
    <glyph glyph-name="oe" unicode="&#x153;" horiz-adv-x="940" 
d="M113 53q-45 58 -45 211.5t48 212.5t170 59q89 0 138 -33t67 -102q15 82 58 108t135 26q42 0 68 -2.5t54.5 -13t43.5 -29.5q36 -45 36 -143q0 -56 -33 -76.5t-103 -20.5h-244q0 -146 43 -192q22 -23 46.5 -31t84.5 -8t196 20v-16q-101 -28 -212 -28q-79 0 -117.5 31
t-53.5 100q-18 -71 -66 -101t-141 -30q-128 0 -173 58zM104.5 395.5q-12.5 -52.5 -12.5 -134t11.5 -130t38.5 -72.5t59 -32t84.5 -8t86 9t60.5 34q50 49 50 196q0 157 -54 208q-27 27 -59.5 36.5t-83 9.5t-81.5 -7.5t-59 -32t-40.5 -77zM506 273h244q84 0 103 33q9 16 9 56
t-10.5 73.5t-35.5 50t-53.5 21t-90.5 4.5t-97.5 -16.5t-52 -66.5t-16.5 -155z" />
    <glyph glyph-name="Racute" unicode="&#x154;" horiz-adv-x="574" 
d="M281 792l121 133h26l-133 -133h-14zM81 0v732h276q35 0 61.5 -6.5t55.5 -25.5q59 -40 59 -168q0 -133 -53 -175q-26 -20 -49.5 -26.5t-56.5 -7.5l161 -323h-25l-162 323q-234 4 -243 10v-333h-24zM105 347h252q34 0 58 6.5t47 24.5q46 39 46 154q0 125 -65 158
q-35 17 -86 17h-252v-360z" />
    <glyph glyph-name="racute" unicode="&#x155;" horiz-adv-x="424" 
d="M232 597l121 133h26l-133 -133h-14zM81 0v531h12l12 -67q41 23 65.5 35.5t67.5 25t89.5 12.5t69.5 -8v-23q-34 7 -65 7t-52 -3t-34.5 -6t-37 -12.5t-31.5 -13t-36.5 -17.5t-35.5 -17v-444h-24z" />
    <glyph glyph-name="Rcommaaccent" unicode="&#x156;" horiz-adv-x="574" 
d="M306 -168q0 -16 -7 -22.5t-11 -6.5t-11 1v5q14 0 14 14v42h-5q-11 0 -11 12v55q0 12 11 12h9q11 0 11 -12v-100zM81 0v732h276q35 0 61.5 -6.5t55.5 -25.5q59 -40 59 -168q0 -133 -53 -175q-26 -20 -49.5 -26.5t-56.5 -7.5l161 -323h-25l-162 323q-234 4 -243 10v-333
h-24zM105 347h252q34 0 58 6.5t47 24.5q46 39 46 154q0 125 -65 158q-35 17 -86 17h-252v-360z" />
    <glyph glyph-name="rcommaaccent" unicode="&#x157;" horiz-adv-x="424" 
d="M104 -168q0 -16 -7 -22.5t-11 -6.5t-11 1v5q14 0 14 14v42h-5q-11 0 -11 12v55q0 12 11 12h9q11 0 11 -12v-100zM77 0v531h12l12 -67q41 23 65.5 35.5t67.5 25t89.5 12.5t69.5 -8v-23q-34 7 -65 7t-52 -3t-34.5 -6t-37 -12.5t-31.5 -13t-36.5 -17.5t-35.5 -17v-444h-24z
" />
    <glyph glyph-name="Rcaron" unicode="&#x158;" horiz-adv-x="574" 
d="M162 922h16l113 -115l125 115h18l-132 -130h-22zM81 0v732h276q35 0 61.5 -6.5t55.5 -25.5q59 -40 59 -168q0 -133 -53 -175q-26 -20 -49.5 -26.5t-56.5 -7.5l161 -323h-25l-162 323q-234 4 -243 10v-333h-24zM105 347h252q34 0 58 6.5t47 24.5q46 39 46 154
q0 125 -65 158q-35 17 -86 17h-252v-360z" />
    <glyph glyph-name="rcaron" unicode="&#x159;" horiz-adv-x="424" 
d="M103 727h16l113 -115l125 115h18l-132 -130h-22zM81 0v531h12l12 -67q41 23 65.5 35.5t67.5 25t89.5 12.5t69.5 -8v-23q-34 7 -65 7t-52 -3t-34.5 -6t-37 -12.5t-31.5 -13t-36.5 -17.5t-35.5 -17v-444h-24z" />
    <glyph glyph-name="Sacute" unicode="&#x15a;" horiz-adv-x="586" 
d="M303 798l121 133h26l-133 -133h-14zM88 494v66q0 101 49.5 139.5t149.5 38.5t216 -19v-13l-222 8h-13q-73 0 -114.5 -33.5t-41.5 -120.5v-66q0 -73 35.5 -98t111.5 -25h114q92 0 127 -38.5t35 -108.5v-68q0 -102 -61 -136q-50 -28 -133 -28q-42 0 -122.5 4.5t-112.5 10.5
v15q66 -6 235 -6q79 0 124.5 30t45.5 110v68q0 65 -32 94t-106 29h-112q-110 0 -145 45q-17 22 -22.5 45t-5.5 57z" />
    <glyph glyph-name="sacute" unicode="&#x15b;" horiz-adv-x="504" 
d="M253 601l121 133h26l-133 -133h-14zM54 363v46q0 64 31.5 95.5t106.5 31.5q137 0 231 -9v-14h-231q-62 0 -88 -24.5t-26 -79.5v-46q0 -45 18 -68q15 -19 96 -19h128q59 0 94.5 -29.5t35.5 -84.5v-49q0 -78 -42 -100q-34 -18 -88 -18q-149 0 -244 10v14h244q79 0 97 41
q9 20 9 53v49q0 39 -27.5 64.5t-78.5 25.5h-128q-78 0 -108 19.5t-30 91.5z" />
    <glyph glyph-name="Scircumflex" unicode="&#x15c;" horiz-adv-x="586" 
d="M170 798l132 130h20l120 -130h-18l-112 115l-124 -115h-18zM88 494v66q0 101 49.5 139.5t149.5 38.5t216 -19v-13l-222 8h-13q-73 0 -114.5 -33.5t-41.5 -120.5v-66q0 -73 35.5 -98t111.5 -25h114q92 0 127 -38.5t35 -108.5v-68q0 -102 -61 -136q-50 -28 -133 -28
q-42 0 -122.5 4.5t-112.5 10.5v15q66 -6 235 -6q79 0 124.5 30t45.5 110v68q0 65 -32 94t-106 29h-112q-110 0 -145 45q-17 22 -22.5 45t-5.5 57z" />
    <glyph glyph-name="scircumflex" unicode="&#x15d;" horiz-adv-x="504" 
d="M113 596l132 130h20l120 -130h-18l-112 115l-124 -115h-18zM54 363v46q0 64 31.5 95.5t106.5 31.5q137 0 231 -9v-14h-231q-62 0 -88 -24.5t-26 -79.5v-46q0 -45 18 -68q15 -19 96 -19h128q59 0 94.5 -29.5t35.5 -84.5v-49q0 -78 -42 -100q-34 -18 -88 -18
q-149 0 -244 10v14h244q79 0 97 41q9 20 9 53v49q0 39 -27.5 64.5t-78.5 25.5h-128q-78 0 -108 19.5t-30 91.5z" />
    <glyph glyph-name="Scedilla" unicode="&#x15e;" horiz-adv-x="586" 
d="M301 -145q13 12 17 34.5t4 40.5v25h17q0 -77 -20 -106.5t-81 -29.5h-30v7l32 5q24 4 36 8t25 16zM88 494v66q0 101 49.5 139.5t149.5 38.5t216 -19v-13l-222 8h-13q-73 0 -114.5 -33.5t-41.5 -120.5v-66q0 -73 35.5 -98t111.5 -25h114q92 0 127 -38.5t35 -108.5v-68
q0 -102 -61 -136q-50 -28 -133 -28q-42 0 -122.5 4.5t-112.5 10.5v15q66 -6 235 -6q79 0 124.5 30t45.5 110v68q0 65 -32 94t-106 29h-112q-110 0 -145 45q-17 22 -22.5 45t-5.5 57z" />
    <glyph glyph-name="scedilla" unicode="&#x15f;" horiz-adv-x="504" 
d="M239 -139q13 12 17 34.5t4 40.5v25h17q0 -77 -20 -106.5t-81 -29.5h-30v7l32 5q24 4 36 8t25 16zM54 363v46q0 64 31.5 95.5t106.5 31.5q137 0 231 -9v-14h-231q-62 0 -88 -24.5t-26 -79.5v-46q0 -45 18 -68q15 -19 96 -19h128q59 0 94.5 -29.5t35.5 -84.5v-49
q0 -78 -42 -100q-34 -18 -88 -18q-149 0 -244 10v14h244q79 0 97 41q9 20 9 53v49q0 39 -27.5 64.5t-78.5 25.5h-128q-78 0 -108 19.5t-30 91.5z" />
    <glyph glyph-name="Scaron" unicode="&#x160;" horiz-adv-x="586" 
d="M186 928h16l113 -115l125 115h18l-132 -130h-22zM88 494v66q0 101 49.5 139.5t149.5 38.5t216 -19v-13l-222 8h-13q-73 0 -114.5 -33.5t-41.5 -120.5v-66q0 -73 35.5 -98t111.5 -25h114q92 0 127 -38.5t35 -108.5v-68q0 -102 -61 -136q-50 -28 -133 -28q-42 0 -122.5 4.5
t-112.5 10.5v15q66 -6 235 -6q79 0 124.5 30t45.5 110v68q0 65 -32 94t-106 29h-112q-110 0 -145 45q-17 22 -22.5 45t-5.5 57z" />
    <glyph glyph-name="scaron" unicode="&#x161;" horiz-adv-x="504" 
d="M125 731h16l113 -115l125 115h18l-132 -130h-22zM54 363v46q0 64 31.5 95.5t106.5 31.5q137 0 231 -9v-14h-231q-62 0 -88 -24.5t-26 -79.5v-46q0 -45 18 -68q15 -19 96 -19h128q59 0 94.5 -29.5t35.5 -84.5v-49q0 -78 -42 -100q-34 -18 -88 -18q-149 0 -244 10v14h244
q79 0 97 41q9 20 9 53v49q0 39 -27.5 64.5t-78.5 25.5h-128q-78 0 -108 19.5t-30 91.5z" />
    <glyph glyph-name="Tcommaaccent" unicode="&#x162;" horiz-adv-x="604" 
d="M273 -145q13 12 17 34.5t4 40.5v25h17q0 -77 -20 -106.5t-81 -29.5h-30v7l32 5q24 4 36 8t25 16zM47 708v24h518v-24h-250v-708h-24v708h-244z" />
    <glyph glyph-name="tcommaaccent" unicode="&#x163;" horiz-adv-x="350" 
d="M175 -151q13 12 17 34.5t4 40.5v25h17q0 -77 -20 -106.5t-81 -29.5h-30v7l32 5q24 4 36 8t25 16zM27 508v16l84 8l8 148h16v-148h175v-24h-175v-320q0 -123 47 -150q16 -10 23 -11.5t48 -8t48 -6.5v-13h-67q-63 0 -93 45.5t-30 143.5v320h-84z" />
    <glyph glyph-name="Tcaron" unicode="&#x164;" horiz-adv-x="604" 
d="M170 927h16l113 -115l125 115h18l-132 -130h-22zM47 708v24h518v-24h-250v-708h-24v708h-244z" />
    <glyph glyph-name="tcaron" unicode="&#x165;" horiz-adv-x="337" 
d="M27 508v16l84 8l8 148h16v-148h175v-24h-175v-318q0 -121 43 -149q16 -10 24 -11q77 -16 99 -16v-13h-73q-59 0 -88 43.5t-29 145.5v318h-84zM217 798h25v-67l-6 -134h-12l-7 134v67z" />
    <glyph glyph-name="Tbar" unicode="&#x166;" horiz-adv-x="604" 
d="M47 708v24h518v-24h-250v-284h150v-14h-150v-410h-24v410h-130v14h130v284h-244z" />
    <glyph glyph-name="tbar" unicode="&#x167;" horiz-adv-x="337" 
d="M27 508v16l84 8l8 148h16v-148h175v-24h-175v-176h125v-14h-125v-128q0 -121 43 -149q16 -10 24 -11q77 -16 99 -16v-13h-73q-59 0 -88 43.5t-29 145.5v128h-81v14h81v176h-84z" />
    <glyph glyph-name="Utilde" unicode="&#x168;" horiz-adv-x="683" 
d="M302 886q17 0 62 -36.5t61.5 -36.5t39 11t31 18t28.5 24l6 -7q-47 -48 -76 -57q-14 -5 -33 -5t-63 36.5t-60 36.5q-21 0 -34 -6.5t-17.5 -8.5t-12.5 -7.5t-11.5 -8.5t-13 -9.5t-13.5 -9.5l-4 8q51 45 72 51.5t38 6.5zM108 320v412h24v-412q0 -96 9 -135.5t15 -61.5
t18.5 -38t22 -27.5t27.5 -18.5t30 -11.5t34 -5.5q37 -3 75 -3t62 2.5t53 12t47 29.5t35 52q31 61 31 205v412h24v-412q0 -102 -11.5 -145t-19.5 -67.5t-22.5 -41.5t-26 -29.5t-31 -20t-32.5 -12t-36 -6.5q-33 -3 -101.5 -3t-107.5 15q-86 32 -109 171q-10 58 -10 139z" />
    <glyph glyph-name="utilde" unicode="&#x169;" 
d="M208 685q19 0 64.5 -36.5t60.5 -36.5q36 0 100 53l6 -7q-20 -20 -33 -32q-36 -30 -73 -30q-22 0 -66.5 36.5t-56 36.5t-19 -1t-15.5 -4.5t-13 -5.5t-15 -8.5t-13.5 -9t-15 -11t-14.5 -10.5l-4 8q42 36 65 47t42 11zM68 162v370h24v-370q0 -62 38 -104t101 -42t110 14
t107 47v455h24v-531h-14l-10 62q-108 -71 -216 -71q-76 0 -120 50t-44 120z" />
    <glyph glyph-name="Umacron" unicode="&#x16a;" horiz-adv-x="683" 
d="M236 797v15h252v-15h-252zM108 320v412h24v-412q0 -96 9 -135.5t15 -61.5t18.5 -38t22 -27.5t27.5 -18.5t30 -11.5t34 -5.5q37 -3 75 -3t62 2.5t53 12t47 29.5t35 52q31 61 31 205v412h24v-412q0 -102 -11.5 -145t-19.5 -67.5t-22.5 -41.5t-26 -29.5t-31 -20t-32.5 -12
t-36 -6.5q-33 -3 -101.5 -3t-107.5 15q-86 32 -109 171q-10 58 -10 139z" />
    <glyph glyph-name="umacron" unicode="&#x16b;" 
d="M144 596v15h252v-15h-252zM68 162v370h24v-370q0 -62 38 -104t101 -42t110 14t107 47v455h24v-531h-14l-10 62q-108 -71 -216 -71q-76 0 -120 50t-44 120z" />
    <glyph glyph-name="Ubreve" unicode="&#x16c;" horiz-adv-x="683" 
d="M246 911h14q0 -28 14 -51t36.5 -36t48.5 -13q45 0 74 28.5t29 71.5h14q0 -63 -51 -96q-29 -18 -69 -18t-75 31.5t-35 82.5zM108 320v412h24v-412q0 -96 9 -135.5t15 -61.5t18.5 -38t22 -27.5t27.5 -18.5t30 -11.5t34 -5.5q37 -3 75 -3t62 2.5t53 12t47 29.5t35 52
q31 61 31 205v412h24v-412q0 -102 -11.5 -145t-19.5 -67.5t-22.5 -41.5t-26 -29.5t-31 -20t-32.5 -12t-36 -6.5q-33 -3 -101.5 -3t-107.5 15q-86 32 -109 171q-10 58 -10 139z" />
    <glyph glyph-name="ubreve" unicode="&#x16d;" 
d="M155 710h14q0 -42 29 -71t68 -29q46 0 75.5 28.5t29.5 71.5h14q0 -53 -35.5 -83.5t-80 -30.5t-79.5 31.5t-35 82.5zM68 162v370h24v-370q0 -62 38 -104t101 -42t110 14t107 47v455h24v-531h-14l-10 62q-108 -71 -216 -71q-76 0 -120 50t-44 120z" />
    <glyph glyph-name="Uring" unicode="&#x16e;" horiz-adv-x="683" 
d="M260 899q0 28 14 51.5t37.5 37.5t58 14t63.5 -30t29 -73t-29 -72.5t-63.5 -29.5t-58 13.5t-37.5 37t-14 51.5zM274 899q0 -36 26 -61.5t62 -25.5t61 25.5t25 61.5t-25 62t-61 26t-62 -26t-26 -62zM108 320v412h24v-412q0 -96 9 -135.5t15 -61.5t18.5 -38t22 -27.5
t27.5 -18.5t30 -11.5t34 -5.5q37 -3 75 -3t62 2.5t53 12t47 29.5t35 52q31 61 31 205v412h24v-412q0 -102 -11.5 -145t-19.5 -67.5t-22.5 -41.5t-26 -29.5t-31 -20t-32.5 -12t-36 -6.5q-33 -3 -101.5 -3t-107.5 15q-86 32 -109 171q-10 58 -10 139z" />
    <glyph glyph-name="uring" unicode="&#x16f;" 
d="M169 698q0 43 30 73t72 30t71 -30t29 -73t-29 -72.5t-71 -29.5t-72 29.5t-30 72.5zM183 698q0 -36 26 -61.5t62 -25.5t61 25.5t25 61.5t-25 62t-61 26t-62 -26t-26 -62zM68 162v370h24v-370q0 -62 38 -104t101 -42t110 14t107 47v455h24v-531h-14l-10 62
q-108 -71 -216 -71q-76 0 -120 50t-44 120z" />
    <glyph glyph-name="Uhungarumlaut" unicode="&#x170;" horiz-adv-x="683" 
d="M285 797l121 133h26l-133 -133h-14zM424 797l121 133h26l-133 -133h-14zM108 320v412h24v-412q0 -96 9 -135.5t15 -61.5t18.5 -38t22 -27.5t27.5 -18.5t30 -11.5t34 -5.5q37 -3 75 -3t62 2.5t53 12t47 29.5t35 52q31 61 31 205v412h24v-412q0 -102 -11.5 -145
t-19.5 -67.5t-22.5 -41.5t-26 -29.5t-31 -20t-32.5 -12t-36 -6.5q-33 -3 -101.5 -3t-107.5 15q-86 32 -109 171q-10 58 -10 139z" />
    <glyph glyph-name="uhungarumlaut" unicode="&#x171;" 
d="M194 596l120 133h26l-132 -133h-14zM332 596l122 133h26l-134 -133h-14zM68 162v370h24v-370q0 -62 38 -104t101 -42t110 14t107 47v455h24v-531h-14l-10 62q-108 -71 -216 -71q-76 0 -120 50t-44 120z" />
    <glyph glyph-name="Uogonek" unicode="&#x172;" horiz-adv-x="683" 
d="M323 -150.5q30 -20.5 73 -20.5h5v-14q-10 -1 -30 -1t-49.5 16t-41.5 44q-6 12 -6 27.5t12 36.5q18 35 71 58h12q-40 -16 -58 -43.5t-18 -55t30 -48zM108 320v412h24v-412q0 -96 9 -135.5t15 -61.5t18.5 -38t22 -27.5t27.5 -18.5t30 -11.5t34 -5.5q37 -3 75 -3t62 2.5
t53 12t47 29.5t35 52q31 61 31 205v412h24v-412q0 -102 -11.5 -145t-19.5 -67.5t-22.5 -41.5t-26 -29.5t-31 -20t-32.5 -12t-36 -6.5q-33 -3 -101.5 -3t-107.5 15q-86 32 -109 171q-10 58 -10 139z" />
    <glyph glyph-name="uogonek" unicode="&#x173;" horiz-adv-x="635" 
d="M450 -145.5q30 -20.5 73 -20.5h5v-14q-10 -1 -30 -1t-49.5 16t-42.5 45q-5 11 -5 26.5t11 36.5q19 35 72 58h12q-40 -16 -58 -43.5t-18 -55t30 -48zM92 162v370h24v-370q0 -62 38 -104t101 -42t110 14t107 47v455h24v-531h-14l-10 62q-108 -71 -216 -71q-76 0 -120 50
t-44 120z" />
    <glyph glyph-name="Wcircumflex" unicode="&#x174;" horiz-adv-x="971" 
d="M366 797l132 130h20l120 -130h-18l-112 115l-124 -115h-18zM61 732h26l253 -708l245 708h26l-103 -301l163 -407l248 708h24l-254 -732h-34l-160 396l-138 -396h-34z" />
    <glyph glyph-name="wcircumflex" unicode="&#x175;" horiz-adv-x="777" 
d="M262 596l132 130h20l120 -130h-18l-112 115l-124 -115h-18zM27 531h25l196 -501l191 501h24l-74 -199l136 -302l202 501h23l-212 -531h-26l-135 304l-116 -304h-26z" />
    <glyph glyph-name="Ycircumflex" unicode="&#x176;" horiz-adv-x="619" 
d="M190 797l132 130h20l120 -130h-18l-112 115l-124 -115h-18zM328 0h-24v260l-243 472h27l228 -441l248 441h27l-263 -472v-260z" />
    <glyph glyph-name="ycircumflex" unicode="&#x177;" horiz-adv-x="529" 
d="M128 596l132 130h20l120 -130h-18l-112 115l-124 -115h-18zM28 531h26l148 -415q33 -91 101 -91l171 506h25l-233 -699l-46 -102h-12l87 270q-84 4 -117 110z" />
    <glyph glyph-name="Ydieresis" unicode="&#x178;" horiz-adv-x="619" 
d="M182 814.5q0 7.5 4.5 12.5t12 5t12.5 -5t5 -11t-3 -10q-4 -9 -13 -9t-13.5 5t-4.5 12.5zM436 815q0 7 5 12t12.5 5t12 -5t4.5 -10.5t-1 -8.5t-3 -6q-5 -5 -12.5 -5t-12.5 5.5t-5 12.5zM328 0h-24v260l-243 472h27l228 -441l248 441h27l-263 -472v-260z" />
    <glyph glyph-name="Zacute" unicode="&#x179;" horiz-adv-x="549" 
d="M292 797l120 133h26l-132 -133h-14zM47 0v24l433 684h-433v24h463v-24l-433 -684h433v-24h-463z" />
    <glyph glyph-name="zacute" unicode="&#x17a;" horiz-adv-x="475" 
d="M232 591l121 133h26l-133 -133h-14zM40 507v24h396v-24l-350 -482h350v-24h-380v24l348 482h-364z" />
    <glyph glyph-name="Zdotaccent" unicode="&#x17b;" horiz-adv-x="549" 
d="M261 809v62q0 12 12 12h11q12 0 12 -12v-62q0 -12 -12 -12h-11q-12 0 -12 12zM47 0v24l433 684h-433v24h463v-24l-433 -684h433v-24h-463z" />
    <glyph glyph-name="zdotaccent" unicode="&#x17c;" horiz-adv-x="475" 
d="M220 608v62q0 12 12 12h12q12 0 12 -12v-62q0 -12 -12 -12h-12q-12 0 -12 12zM40 507v24h396v-24l-350 -482h350v-24h-380v24l348 482h-364z" />
    <glyph glyph-name="Zcaron" unicode="&#x17d;" horiz-adv-x="549" 
d="M142 927h16l114 -115l124 115h18l-132 -130h-22zM47 0v24l433 684h-433v24h463v-24l-433 -684h433v-24h-463z" />
    <glyph glyph-name="zcaron" unicode="&#x17e;" horiz-adv-x="475" 
d="M124 726h16l113 -115l125 115h18l-132 -130h-22zM40 507v24h396v-24l-350 -482h350v-24h-380v24l348 482h-364z" />
    <glyph glyph-name="florin" unicode="&#x192;" horiz-adv-x="601" 
d="M105 -180q54 0 85 48q31 51 42 97q15 65 24 123l52 333h-102l4 25h102l10 60q25 150 45 201q38 93 116 93q55 0 91 -12l-3 -12h-88q-65 0 -95 -82q-25 -72 -42 -188l-10 -61h144l-4 -24h-144l-52 -333q-6 -37 -8.5 -53.5t-10.5 -54t-15.5 -57t-21.5 -48t-30 -43.5
q-40 -36 -94.5 -36t-72.5 12l3 12h75z" />
    <glyph glyph-name="circumflex" unicode="&#x2c6;" horiz-adv-x="407" 
d="M68 531l132 130h20l120 -130h-18l-112 115l-124 -115h-18z" />
    <glyph glyph-name="caron" unicode="&#x2c7;" horiz-adv-x="407" 
d="M68 661h16l113 -115l125 115h18l-132 -130h-22z" />
    <glyph glyph-name="breve" unicode="&#x2d8;" horiz-adv-x="363" 
d="M68 644h14q0 -42 29 -71t68 -29q46 0 75.5 28.5t29.5 71.5h14q0 -53 -35.5 -83.5t-80 -30.5t-79.5 31.5t-35 82.5z" />
    <glyph glyph-name="dotaccent" unicode="&#x2d9;" horiz-adv-x="170" 
d="M62 578v62q0 12 12 12h11q12 0 12 -12v-62q0 -12 -12 -12h-11q-12 0 -12 12z" />
    <glyph glyph-name="ring" unicode="&#x2da;" horiz-adv-x="338" 
d="M68 632q0 43 30 73t72 30t71 -30t29 -73t-29 -72.5t-71 -29.5t-72 29.5t-30 72.5zM82 632q0 -36 26 -61.5t62 -25.5t61 25.5t25 61.5t-25 62t-61 26t-62 -26t-26 -62z" />
    <glyph glyph-name="ogonek" unicode="&#x2db;" horiz-adv-x="258" 
d="M113 -146.5q30 -20.5 73 -20.5h5v-14q-10 -1 -30 -1t-49.5 16t-41.5 44q-6 12 -6 27.5t12 36.5q18 35 71 58h12q-40 -16 -58 -43.5t-18 -55t30 -48z" />
    <glyph glyph-name="tilde" unicode="&#x2dc;" horiz-adv-x="473" 
d="M175 630q19 0 64.5 -36.5t60.5 -36.5q36 0 100 53l6 -7q-20 -20 -34 -31q-35 -31 -72 -31q-22 0 -66.5 36.5t-56 36.5t-19 -1t-15.5 -4.5t-13 -5.5t-15 -8.5t-13.5 -9t-15 -11t-14.5 -10.5l-4 8q42 36 65 47t42 11z" />
    <glyph glyph-name="hungarumlaut" unicode="&#x2dd;" horiz-adv-x="344" 
d="M27 531l121 133h26l-133 -133h-14zM166 531l121 133h26l-133 -133h-14z" />
    <glyph glyph-name="uni0338" unicode="&#x338;" horiz-adv-x="660" 
d="M94 162v408q0 78 48.5 120t123.5 42h134q87 0 127 -44t40 -118v-408q0 -162 -167 -162h-134q-75 0 -123.5 39t-48.5 123zM118 162q0 -48 23 -82l371 589q-36 39 -112 39h-134q-68 0 -108 -36.5t-40 -101.5v-408zM266 24h134q143 0 143 138v408q0 55 -22 87l-369 -591
q39 -42 114 -42z" />
    <glyph glyph-name="Omega" unicode="&#x3a9;" horiz-adv-x="793" 
d="M92 300q-6 39 -6 89t7 95t27 93.5t53 83t90.5 56.5t132.5 22q304 0 304 -356q0 -97 -45.5 -196.5t-137.5 -163.5l188 -11v-12h-228v24q102 67 150.5 161.5t48.5 199.5q0 140 -54 229q-63 101 -226 101q-165 0 -228 -100q-58 -90 -58 -235q0 -111 45 -189.5t157 -166.5
v-24h-220v12l183 12q-121 91 -159 189q-18 48 -24 87z" />
    <glyph glyph-name="pi" unicode="&#x3c0;" horiz-adv-x="603" 
d="M27 507v24h500v-24h-129v-341q0 -78 22 -112t72 -34h83v-14q-52 -11 -83 -11q-63 0 -90.5 37.5t-27.5 133.5v341h-237v-507h-24v507h-86z" />
    <glyph glyph-name="uni1E02" unicode="&#x1e02;" horiz-adv-x="599" 
d="M304 809v62q0 12 12 12h10q12 0 12 -12v-62q0 -12 -12 -12h-10q-12 0 -12 12zM108 0v732h253q104 0 147 -47.5t43 -125.5t-39 -123.5t-90 -51.5q44 -10 88 -57t44 -123q0 -204 -193 -204h-253zM132 25h229q169 0 169 181q0 69 -49 117t-115 48h-5h-229v-346zM132 395h229
q72 0 118 41q48 43 48 121.5t-41 114.5t-125 36h-229v-313z" />
    <glyph glyph-name="uni1E03" unicode="&#x1e03;" 
d="M76 857v62q0 12 12 12h10q12 0 12 -12v-62q0 -12 -12 -12h-10q-12 0 -12 12zM81 0v785h22v-286q45 18 102.5 29t94.5 11q185 0 185 -276q0 -102 -38 -180q-20 -41 -57.5 -65t-87.5 -24t-113 22.5t-85 42.5l-10 -59h-13zM300 18q69 0 115 61t46 193t-44 187.5t-121 55.5
t-192 -30v-412q108 -55 196 -55z" />
    <glyph glyph-name="uni1E0A" unicode="&#x1e0a;" horiz-adv-x="671" 
d="M324 809v62q0 12 12 12h10q12 0 12 -12v-62q0 -12 -12 -12h-10q-12 0 -12 12zM108 0v732h253q65 0 113.5 -24.5t75.5 -61.5t44 -89q26 -84 26 -171.5t-15 -149.5t-44.5 -116t-81.5 -87t-118 -33h-253zM132 24h229q60 0 107 32t74 83q54 102 54 225q0 173 -60.5 258.5
t-174.5 85.5h-229v-684z" />
    <glyph glyph-name="uni1E0B" unicode="&#x1e0b;" 
d="M444 857v62q0 12 12 12h11q12 0 12 -12v-62q0 -12 -12 -12h-11q-12 0 -12 12zM68 263q0 276 184 276q37 0 95 -11t103 -29v286h21v-785h-13l-10 59q-22 -20 -85 -42.5t-113 -22.5t-87.5 24t-56.5 65q-38 79 -38 180zM137 77q45 -59 115 -59q88 0 196 55v412
q-115 30 -196 30q-35 0 -61 -10.5t-50 -36.5q-49 -53 -49 -192.5t45 -198.5z" />
    <glyph glyph-name="uni1E1E" unicode="&#x1e1e;" horiz-adv-x="582" 
d="M288 838v62q0 12 12 12h11q12 0 12 -12v-62q0 -12 -12 -12h-11q-12 0 -12 12zM108 0v602q0 69 35 99.5t85 30.5h6l297 -10v-14h-297q-102 0 -102 -106v-227l359 -5v-14l-359 -5v-351h-24z" />
    <glyph glyph-name="uni1E1F" unicode="&#x1e1f;" horiz-adv-x="384" 
d="M226 858v62q0 12 12 12h10q12 0 12 -12v-62q0 -12 -12 -12h-10q-12 0 -12 12zM27 507v14l87 10v99q0 81 21 118q9 15 27.5 26.5t44.5 11.5q110 0 150 -11v-13h-142q-47 0 -62 -32.5t-15 -99.5v-99h178v-24h-178v-507h-24v507h-87z" />
    <glyph glyph-name="uni1E40" unicode="&#x1e40;" horiz-adv-x="797" 
d="M386 809v62q0 12 12 12h10q12 0 12 -12v-62q0 -12 -12 -12h-10q-12 0 -12 12zM74 0l81 732h36l213 -691l209 691h38l84 -732h-24l-81 703l-212 -703h-27l-216 703l-77 -703h-24z" />
    <glyph glyph-name="uni1E41" unicode="&#x1e41;" horiz-adv-x="931" 
d="M427 612v62q0 12 12 12h11q12 0 12 -12v-62q0 -12 -12 -12h-11q-12 0 -12 12zM81 0v531h14l10 -62q108 71 211.5 71t147.5 -82q42 32 110.5 57t125.5 25q76 0 120 -50t44 -120v-370h-24v370q0 62 -38 104t-102 42q-100 0 -231 -70q16 -38 16 -76v-370h-24v370
q0 62 -38 104t-101 42t-110 -14t-107 -47v-455h-24z" />
    <glyph glyph-name="uni1E56" unicode="&#x1e56;" horiz-adv-x="584" 
d="M285 849v62q0 12 12 12h11q12 0 12 -12v-62q0 -12 -12 -12h-11q-12 0 -12 12zM81 0v732h276q35 0 61.5 -6.5t55.5 -25.5q59 -40 59 -168q0 -58 -12 -99.5t-28 -62.5t-43 -32t-45.5 -13t-50.5 -2t-139 4t-110 6v-333h-24zM105 347h252q71 0 111 37.5t40 142.5
q0 130 -65 163q-35 17 -86 17h-252v-360z" />
    <glyph glyph-name="uni1E57" unicode="&#x1e57;" 
d="M266 609v62q0 12 12 12h12q12 0 12 -12v-62q0 -12 -12 -12h-12q-12 0 -12 12zM81 -268v799h13l11 -59q22 20 84.5 42.5t112.5 22.5t87.5 -24t57.5 -65q38 -78 38 -180q0 -276 -185 -276q-37 0 -94 11t-102 29v-300h-23zM105 46q115 -30 191.5 -30t120.5 55.5t44 187.5
t-46 193t-115 61q-87 0 -195 -55v-412z" />
    <glyph glyph-name="uni1E60" unicode="&#x1e60;" horiz-adv-x="586" 
d="M298 810v62q0 12 12 12h10q12 0 12 -12v-62q0 -12 -12 -12h-10q-12 0 -12 12zM88 494v66q0 101 49.5 139.5t149.5 38.5t216 -19v-13l-222 8h-13q-73 0 -114.5 -33.5t-41.5 -120.5v-66q0 -73 35.5 -98t111.5 -25h114q92 0 127 -38.5t35 -108.5v-68q0 -102 -61 -136
q-50 -28 -133 -28q-42 0 -122.5 4.5t-112.5 10.5v15q66 -6 235 -6q79 0 124.5 30t45.5 110v68q0 65 -32 94t-106 29h-112q-110 0 -145 45q-17 22 -22.5 45t-5.5 57z" />
    <glyph glyph-name="uni1E61" unicode="&#x1e61;" horiz-adv-x="504" 
d="M238 608v62q0 12 12 12h12q12 0 12 -12v-62q0 -12 -12 -12h-12q-12 0 -12 12zM54 363v46q0 64 31.5 95.5t106.5 31.5q137 0 231 -9v-14h-231q-62 0 -88 -24.5t-26 -79.5v-46q0 -45 18 -68q15 -19 96 -19h128q59 0 94.5 -29.5t35.5 -84.5v-49q0 -78 -42 -100
q-34 -18 -88 -18q-149 0 -244 10v14h244q79 0 97 41q9 20 9 53v49q0 39 -27.5 64.5t-78.5 25.5h-128q-78 0 -108 19.5t-30 91.5z" />
    <glyph glyph-name="uni1E6A" unicode="&#x1e6a;" horiz-adv-x="604" 
d="M288 809v62q0 12 12 12h10q12 0 12 -12v-62q0 -12 -12 -12h-10q-12 0 -12 12zM47 708v24h518v-24h-250v-708h-24v708h-244z" />
    <glyph glyph-name="uni1E6B" unicode="&#x1e6b;" horiz-adv-x="350" 
d="M110 752v62q0 12 12 12h12q12 0 12 -12v-62q0 -12 -12 -12h-12q-12 0 -12 12zM27 508v16l84 8l8 148h16v-148h175v-24h-175v-320q0 -123 47 -150q16 -10 23 -11.5t48 -8t48 -6.5v-13h-67q-63 0 -93 45.5t-30 143.5v320h-84z" />
    <glyph glyph-name="Wgrave" unicode="&#x1e80;" horiz-adv-x="971" 
d="M362 930h26l121 -133h-14zM61 732h26l253 -708l245 708h26l-103 -301l163 -407l248 708h24l-254 -732h-34l-160 396l-138 -396h-34z" />
    <glyph glyph-name="wgrave" unicode="&#x1e81;" horiz-adv-x="777" 
d="M258 729h26l122 -133h-14zM27 531h25l196 -501l191 501h24l-74 -199l136 -302l202 501h23l-212 -531h-26l-135 304l-116 -304h-26z" />
    <glyph glyph-name="Wacute" unicode="&#x1e82;" horiz-adv-x="971" 
d="M495 797l121 133h26l-133 -133h-14zM61 732h26l253 -708l245 708h26l-103 -301l163 -407l248 708h24l-254 -732h-34l-160 396l-138 -396h-34z" />
    <glyph glyph-name="wacute" unicode="&#x1e83;" horiz-adv-x="777" 
d="M392 596l120 133h26l-132 -133h-14zM27 531h25l196 -501l191 501h24l-74 -199l136 -302l202 501h23l-212 -531h-26l-135 304l-116 -304h-26z" />
    <glyph glyph-name="Wdieresis" unicode="&#x1e84;" horiz-adv-x="971" 
d="M358 814.5q0 7.5 4.5 12.5t12 5t12.5 -5t5 -10.5t-1.5 -8.5t-3.5 -6q-5 -5 -12.5 -5t-12 5t-4.5 12.5zM612 815q0 7 5 12t12.5 5t12 -5t4.5 -11t-2 -10q-4 -9 -13 -9t-14 5.5t-5 12.5zM61 732h26l253 -708l245 708h26l-103 -301l163 -407l248 708h24l-254 -732h-34
l-160 396l-138 -396h-34z" />
    <glyph glyph-name="wdieresis" unicode="&#x1e85;" horiz-adv-x="777" 
d="M271 596q-17 0 -17 17.5t17 17.5t17 -17.5t-17 -17.5zM508 614q0 17 17.5 17t17.5 -17.5t-17 -17.5q-8 0 -13 5t-5 13zM27 531h25l196 -501l191 501h24l-74 -199l136 -302l202 501h23l-212 -531h-26l-135 304l-116 -304h-26z" />
    <glyph glyph-name="Ygrave" unicode="&#x1ef2;" horiz-adv-x="619" 
d="M186 930h26l121 -133h-14zM328 0h-24v260l-243 472h27l228 -441l248 441h27l-263 -472v-260z" />
    <glyph glyph-name="ygrave" unicode="&#x1ef3;" horiz-adv-x="529" 
d="M124 729h26l120 -133h-14zM28 531h26l148 -415q33 -91 101 -91l171 506h25l-233 -699l-46 -102h-12l87 270q-84 4 -117 110z" />
    <glyph glyph-name="endash" unicode="&#x2013;" horiz-adv-x="527" 
d="M27 275v25h473v-25h-473z" />
    <glyph glyph-name="emdash" unicode="&#x2014;" horiz-adv-x="750" 
d="M27 277v25h696v-25h-696z" />
    <glyph glyph-name="quoteleft" unicode="&#x2018;" horiz-adv-x="169" 
d="M65 693q0 22 9 31t14 8.5l15 -1.5v-7q-19 1 -19 -19v-37h7q6 0 10.5 -4.5t4.5 -11.5v-63q0 -16 -15 -16h-12q-14 0 -14 16v104z" />
    <glyph glyph-name="quoteright" unicode="&#x2019;" horiz-adv-x="169" 
d="M105 611q0 -22 -8.5 -30.5t-14 -8.5t-15.5 2v7q19 -1 19 18v38h-7q-15 0 -15 15l1 64q0 16 15 16h11q15 0 15 -16z" />
    <glyph glyph-name="quotesinglbase" unicode="&#x201a;" horiz-adv-x="169" 
d="M106 -26q0 -22 -9 -31t-14.5 -8.5t-14.5 1.5v7q19 -1 19 19v38h-7q-15 0 -15 15v63q0 17 15 17h11q15 0 15 -17v-104z" />
    <glyph glyph-name="quotedblleft" unicode="&#x201c;" horiz-adv-x="255" 
d="M155 693q0 22 9 31t14.5 8.5t14.5 -1.5v-7q-19 1 -19 -19v-37h7q7 0 11 -4.5t4 -11.5v-63q0 -16 -15 -16h-11q-15 0 -15 16v104zM59 693q0 22 9 31t14 8.5t14 -1.5v-7q-18 1 -18 -19v-37h6q7 0 11.5 -4.5t4.5 -11.5v-63q0 -16 -16 -16h-11q-14 0 -14 16v104z" />
    <glyph glyph-name="quotedblright" unicode="&#x201d;" horiz-adv-x="254" 
d="M100 611q0 -22 -8.5 -30.5t-14 -8.5t-15.5 2v7q18 -1 18 18v38h-6q-15 0 -15 15v64q0 16 15 16h11q15 0 15 -16v-105zM196 611q0 -22 -8.5 -30.5t-14 -8.5t-15.5 2v7q19 -1 19 18v38h-7q-15 0 -15 15v64q0 16 15 16h12q14 0 14 -16v-105z" />
    <glyph glyph-name="quotedblbase" unicode="&#x201e;" horiz-adv-x="254" 
d="M100 -24q0 -22 -8.5 -31t-14 -8.5t-15.5 1.5v7q18 -1 18 19v38h-6q-15 0 -15 15v63q0 17 15 17h11q15 0 15 -17v-104zM196 -24q0 -22 -8.5 -31t-14 -8.5t-15.5 1.5v7q19 -1 19 19v38h-7q-15 0 -15 15v63q0 17 15 17h12q14 0 14 -17v-104z" />
    <glyph glyph-name="dagger" unicode="&#x2020;" horiz-adv-x="398" 
d="M27 512v14l160 4l5 240h14l5 -240l160 -4v-14l-160 -5l-6 -579h-14l-4 579z" />
    <glyph glyph-name="daggerdbl" unicode="&#x2021;" horiz-adv-x="425" 
d="M27 194v14l162 4l-2 295l-160 5v14l160 4l5 240h14l5 -240l160 -4v-14l-160 -5l-3 -295l163 -4v-14l-163 -5l-3 -261h-14l-2 261z" />
    <glyph glyph-name="bullet" unicode="&#x2022;" horiz-adv-x="321" 
d="M115 366v30q0 35 33 35h24q35 0 35 -35v-30q0 -32 -35 -32h-24q-33 0 -33 32z" />
    <glyph glyph-name="ellipsis" unicode="&#x2026;" horiz-adv-x="808" 
d="M653 12v62q0 12 12 12h11q12 0 12 -12v-62q0 -12 -12 -12h-11q-12 0 -12 12zM381 12v62q0 12 12 12h11q12 0 12 -12v-62q0 -12 -12 -12h-11q-12 0 -12 12zM109 12v62q0 12 12 12h11q12 0 12 -12v-62q0 -12 -12 -12h-11q-12 0 -12 12z" />
    <glyph glyph-name="perthousand" unicode="&#x2030;" horiz-adv-x="1379" 
d="M57 474v133q0 66 28 95.5t101 29.5h101q71 0 99 -29.5t28 -95.5v-133q0 -66 -28 -95.5t-101 -29.5h-101q-71 0 -99 29.5t-28 95.5zM72 474q0 -63 26 -86.5t86 -23.5h101q61 0 87.5 23t26.5 87v133q0 60 -24.5 85t-87.5 25h-101q-62 0 -88 -23t-26 -87v-133zM242 0
l438 732h21l-438 -732h-21zM541 128v133q0 66 28 95.5t101 29.5h101q71 0 99 -29.5t28 -95.5v-133q0 -66 -28 -95.5t-101 -29.5h-101q-71 0 -99 29.5t-28 95.5zM556 128q0 -63 26 -86.5t86 -23.5h101q61 0 87.5 23t26.5 87v133q0 60 -24.5 85t-87.5 25h-101q-62 0 -88 -23
t-26 -87v-133zM966 128v133q0 66 28 95.5t101 29.5h101q71 0 99 -29.5t28 -95.5v-133q0 -66 -28 -95.5t-101 -29.5h-101q-71 0 -99 29.5t-28 95.5zM981 128q0 -63 26 -86.5t86 -23.5h101q61 0 87.5 23t26.5 87v133q0 60 -24.5 85t-87.5 25h-101q-62 0 -88 -23t-26 -87v-133z
" />
    <glyph glyph-name="guilsinglleft" unicode="&#x2039;" horiz-adv-x="354" 
d="M68 354l206 203l16 -16l-190 -187l196 -191l-18 -17z" />
    <glyph glyph-name="guilsinglright" unicode="&#x203a;" horiz-adv-x="354" 
d="M68 163l194 191l-190 187l18 16l206 -203l-212 -208z" />
    <glyph glyph-name="fraction" unicode="&#x2044;" horiz-adv-x="161" 
d="M-122 0l386 770h18l-386 -770h-18z" />
    <glyph glyph-name="zerosuperior" unicode="&#x2070;" horiz-adv-x="510" 
d="M81 465v255q0 60 30 85t87 25h117q113 0 113 -110v-255q0 -66 -28.5 -88t-84.5 -22h-117q-86 0 -108 51q-9 23 -9 59zM99 469q0 -57 24 -76.5t79 -19.5h109q60 0 79.5 21.5t19.5 74.5v247q0 49 -22.5 72.5t-76.5 23.5h-109q-56 0 -79.5 -21.5t-23.5 -74.5v-247z" />
    <glyph glyph-name="foursuperior" unicode="&#x2074;" horiz-adv-x="409" 
d="M313 541v121l9 48h9v-169h59v-8l-59 -11v-166h-18v166h-287l-4 10l190 298h20l-184 -289h265z" />
    <glyph glyph-name="fivesuperior" unicode="&#x2075;" horiz-adv-x="452" 
d="M207 630l82 -1q58 0 83.5 -23.5t25.5 -76.5v-64q0 -59 -29.5 -86.5t-79.5 -27.5q-173 0 -215 7v12h211q95 0 95 99v56q0 44 -16.5 65t-74.5 21h-110q-34 0 -60 -22.5t-27 -50.5h-18l15 292h295v-18h-279l-12 -232q23 50 114 50z" />
    <glyph glyph-name="sixsuperior" unicode="&#x2076;" horiz-adv-x="472" 
d="M148.5 825.5q19.5 8.5 52.5 9.5t91.5 1t108.5 -7v-12h-205q-59 0 -81.5 -54.5t-23.5 -157.5q64 7 221 7q62 0 83.5 -18.5t21.5 -60.5v-73q0 -52 -28.5 -78.5t-76.5 -26.5h-107q-30 0 -52 9q-80 35 -80 227q0 153 38 203q18 23 37.5 31.5zM91 594q0 -125 28.5 -173
t85.5 -48h106q88 0 88 87v72q0 39 -20.5 50.5t-67.5 11.5h-220z" />
    <glyph glyph-name="sevensuperior" unicode="&#x2077;" horiz-adv-x="378" 
d="M20 814v18h327l10 -15l-183 -461h-18l181 458h-317z" />
    <glyph glyph-name="eightsuperior" unicode="&#x2078;" horiz-adv-x="510" 
d="M89 458v58q0 33 24.5 54t48.5 22q-38 7 -55.5 31.5t-17.5 54.5v40q0 65 30.5 91t85.5 26h110q54 0 81 -27t27 -90v-40q0 -29 -19 -53t-52 -27q27 -5 49 -27.5t22 -54.5v-58q0 -104 -105 -104h-120q-63 0 -86 28t-23 76zM107 462q0 -49 21.5 -69.5t73.5 -20.5h112
q46 0 68.5 20.5t22.5 69.5v50q0 36 -26.5 55.5t-53.5 19.5h-125q-40 0 -66.5 -20.5t-26.5 -52.5v-52zM107 682q0 -38 23.5 -57.5t59.5 -19.5h131q33 0 58.5 20.5t25.5 56.5v32q0 60 -23 81.5t-76 21.5h-97q-53 0 -77.5 -22.5t-24.5 -80.5v-32z" />
    <glyph glyph-name="ninesuperior" unicode="&#x2079;" horiz-adv-x="472" 
d="M61 658v73q0 52 28.5 78.5t76.5 26.5h107q30 0 52 -10q80 -34 80 -226q0 -153 -38 -202q-18 -24 -37.5 -32.5t-52.5 -9.5t-91.5 -1t-108.5 7v12h205q59 0 81.5 54.5t23.5 157.5q-64 -7 -221 -7q-62 0 -83.5 18.5t-21.5 60.5zM79 659q0 -39 20.5 -50.5t67.5 -11.5h220
q0 125 -28.5 173t-85.5 48h-106q-88 0 -88 -87v-72z" />
    <glyph glyph-name="zeroinferior" unicode="&#x2080;" horiz-adv-x="510" 
d="M81 -90v255q0 60 30 85t87 25h117q113 0 113 -110v-255q0 -66 -28.5 -88t-84.5 -22h-117q-86 0 -108 51q-9 23 -9 59zM99 -86q0 -57 24 -76.5t79 -19.5h109q60 0 79.5 21.5t19.5 74.5v247q0 49 -22.5 72.5t-76.5 23.5h-109q-56 0 -79.5 -21.5t-23.5 -74.5v-247z" />
    <glyph glyph-name="oneinferior" unicode="&#x2081;" horiz-adv-x="255" 
d="M168 277v-476h-18v458l-128 -46v9l128 55h18z" />
    <glyph glyph-name="twoinferior" unicode="&#x2082;" horiz-adv-x="411" 
d="M225 283q130 0 130 -136q0 -53 -53 -119q-58 -74 -147 -148q-22 -19 -32.5 -27t-26.5 -21l-17 -13h275v-18h-309v14q15 10 46 36t58.5 49t45 40t42 40.5t39.5 43.5t30 42q30 40 30 78q0 58 -25 89.5t-92 31.5h-177l-1 10l1 1q58 7 183 7z" />
    <glyph glyph-name="threeinferior" unicode="&#x2083;" horiz-adv-x="437" 
d="M40 260v10q41 8 196 8q62 0 91.5 -30.5t29.5 -79.5v-35q0 -38 -29.5 -63.5t-53.5 -27.5q24 -5 53.5 -31t29.5 -67v-28q0 -58 -28.5 -88.5t-98.5 -30.5q-135 0 -186 11v7h178q63 0 89.5 22.5t26.5 82.5v23q0 42 -34 65.5t-78 24.5l-142 4v10l142 4q48 2 81 24.5t33 58.5
v35q0 91 -106 91h-194z" />
    <glyph glyph-name="fourinferior" unicode="&#x2084;" horiz-adv-x="409" 
d="M313 -14v121l9 48h9v-169h59v-8l-59 -11v-166h-18v166h-287l-4 10l190 298h20l-184 -289h265z" />
    <glyph glyph-name="fiveinferior" unicode="&#x2085;" horiz-adv-x="452" 
d="M207 75l82 -1q58 0 83.5 -23.5t25.5 -76.5v-64q0 -59 -29.5 -86.5t-79.5 -27.5q-173 0 -215 7v12h211q95 0 95 99v56q0 44 -16.5 65t-74.5 21h-110q-34 0 -60 -22.5t-27 -50.5h-18l15 292h295v-18h-279l-12 -232q23 50 114 50z" />
    <glyph glyph-name="sixinferior" unicode="&#x2086;" horiz-adv-x="472" 
d="M148.5 270.5q19.5 8.5 52.5 9.5t91.5 1t108.5 -7v-12h-205q-59 0 -81.5 -54.5t-23.5 -157.5q64 7 221 7q62 0 83.5 -18.5t21.5 -60.5v-73q0 -52 -28.5 -78.5t-76.5 -26.5h-107q-30 0 -52 10q-80 34 -80 226q0 153 38 202q18 24 37.5 32.5zM91 39q0 -125 28.5 -173
t85.5 -48h106q88 0 88 87v72q0 39 -20.5 50.5t-67.5 11.5h-220z" />
    <glyph glyph-name="seveninferior" unicode="&#x2087;" horiz-adv-x="378" 
d="M20 259v18h327l10 -15l-183 -461h-18l181 458h-317z" />
    <glyph glyph-name="eightinferior" unicode="&#x2088;" horiz-adv-x="510" 
d="M89 -39q0 33 24.5 54t48.5 22q-38 7 -55.5 31.5t-17.5 54.5v40q0 65 30.5 91t85.5 26h110q54 0 81 -27t27 -90v-40q0 -29 -19 -53t-52 -27q27 -5 49 -27.5t22 -54.5v-58q0 -104 -105 -104h-120q-63 0 -86 28t-23 76v58zM107 -41v-52q0 -49 21.5 -69.5t73.5 -20.5h112
q46 0 68.5 20.5t22.5 69.5v50q0 36 -26.5 55.5t-53.5 19.5h-125q-40 0 -66.5 -20.5t-26.5 -52.5zM107 127q0 -38 23.5 -57.5t59.5 -19.5h131q33 0 58.5 20.5t25.5 56.5v32q0 60 -23 81.5t-76 21.5h-97q-53 0 -77.5 -22.5t-24.5 -80.5v-32z" />
    <glyph glyph-name="nineinferior" unicode="&#x2089;" horiz-adv-x="472" 
d="M61 103v73q0 52 28.5 78.5t76.5 26.5h107q30 0 52 -9q80 -35 80 -227q0 -153 -38 -203q-18 -23 -37.5 -31.5t-52.5 -9.5t-91.5 -1t-108.5 7v12h205q59 0 81.5 54.5t23.5 157.5q-64 -7 -221 -7q-62 0 -83.5 18.5t-21.5 60.5zM79 104q0 -39 20.5 -50.5t67.5 -11.5h220
q0 125 -28.5 173t-85.5 48h-106q-88 0 -88 -87v-72z" />
    <glyph glyph-name="Euro" unicode="&#x20ac;" horiz-adv-x="595" 
d="M423 271h-153q-134 0 -132.5 -3.5t1.5 -6.5q0 -100 56 -170.5t154 -72.5h37q75 0 152 8l30 4v-15q-90 -21 -219 -21q-59 0 -115 32q-34 19 -59.5 48t-42.5 79.5t-17 114.5l-88 4v14l88 3v141l-88 3v13l88 4v18t0.5 31t5 49t12.5 55t25 50t42 45q58 42 157 42t207 -20v-14
q-150 10 -209.5 10t-99 -15.5t-61.5 -38.5t-35 -60q-20 -57 -20 -152l284 -3v-14l-284 -3v-141l284 -4v-14z" />
    <glyph glyph-name="afii61289" unicode="&#x2113;" horiz-adv-x="417" 
d="M131 710q32 29 84.5 29t85.5 -40.5t33 -94.5q0 -71 -59.5 -148t-153.5 -162v-106q0 -93 23 -125.5t80 -41.5t64 -9v-13h-72q-60 0 -89 43.5t-29 145.5v85q-16 -20 -50 -37l-8 12q32 29 58 56v328q1 49 33 78zM301 564q2 16 4 30t2 24t-5 22q-9 37 -37 55.5t-57 18.5
q-35 0 -61 -24.5t-26 -63.5v-300q15 15 36 35t37 37t27 29.5t26 31.5t23 33.5t18.5 35t12.5 36.5z" />
    <glyph glyph-name="afii61352" unicode="&#x2116;" horiz-adv-x="1101" 
d="M97 0v650q0 48 34 72q23 16 42 16q66 0 87 -58l233 -623q15 -40 53 -40q19 0 39.5 16t22.5 53v482q0 90 28.5 128.5t89.5 38.5h189q74 -2 103 -45t29 -133t-29.5 -133t-102.5 -43h-66q-77 0 -104.5 50.5t-27.5 183.5h18q0 -124 24.5 -170t89.5 -46h65q115 0 115 154
q0 106 -38 136q-19 15 -37 20t-45 5h-185q-92 0 -92 -144v-491q0 -32 -20 -55q-29 -32 -66 -32q-18 0 -41 11.5t-36 45.5l-232 619q-17 45 -58 45q-18 0 -37.5 -16.5t-19.5 -51.5v-645h-25z" />
    <glyph glyph-name="trademark" unicode="&#x2122;" horiz-adv-x="704" 
d="M27 718v14h259v-14h-122v-335h-14v335h-123zM325 383l27 349h11l145 -327l133 327h12l31 -349h-12l-29 317l-129 -317h-11l-141 318l-24 -318h-13z" />
    <glyph glyph-name="estimated" unicode="&#x212e;" horiz-adv-x="764" 
d="M683 258h-488q-3 0 -3 -11v-133q0 -25 56.5 -59t122.5 -34t117.5 23.5t84.5 60.5h56q-58 -61 -114.5 -83t-132.5 -22q-138 0 -219.5 75.5t-81.5 189.5t84 193q84 75 212 75t214 -66.5t92 -208.5zM192 284q0 -9 9 -9h357h7q6 4 6 7v133q0 32 -63 65.5t-120 33.5t-103 -19
t-69.5 -40t-23.5 -34v-137z" />
    <glyph glyph-name="partialdiff" unicode="&#x2202;" horiz-adv-x="674" 
d="M144 54.5q-67 59.5 -67 172t61 163t191 50.5t211 -55q0 162 -53.5 246.5t-184.5 84.5q-95 0 -185 -56l-6 12q57 38 96 53t98 15q138 0 198.5 -91t60.5 -262q0 -157 -56 -269q-29 -57 -78.5 -90t-114.5 -33q-104 0 -171 59.5zM157.5 373q-56.5 -43 -56.5 -145.5t61 -155.5
t151 -53q55 0 97.5 27t66.5 66.5t39 90.5q24 82 24 168q-28 15 -94 30t-120 15q-112 0 -168.5 -43z" />
    <glyph glyph-name="uni2206" unicode="&#x2206;" horiz-adv-x="738" 
d="M27 0l338 732h20l326 -732h-684zM67 24h605l-296 670z" />
    <glyph glyph-name="product" unicode="&#x220f;" horiz-adv-x="588" 
d="M27 708v24h534v-24h-87v-708h-24v708h-313v-708h-24v708h-86z" />
    <glyph glyph-name="summation" unicode="&#x2211;" horiz-adv-x="567" 
d="M54 732h486v-24h-457l213 -438l-213 -443h457v-27h-486v27l214 443l-214 438v24z" />
    <glyph glyph-name="minus" unicode="&#x2212;" horiz-adv-x="440" 
d="M27 344v24h386v-24h-386z" />
    <glyph glyph-name="radical" unicode="&#x221a;" horiz-adv-x="592" 
d="M27 334v24h103l139 -317l272 759h24l-285 -800h-18l-147 334h-88z" />
    <glyph glyph-name="infinity" unicode="&#x221e;" horiz-adv-x="821" 
d="M73.5 274.5q-5.5 27.5 -5.5 62.5t2 56t10 46t23 39q37 36 111 36q51 0 105.5 -47.5t90.5 -102.5q32 52 89.5 101t107.5 49t81.5 -15t44.5 -44t17 -53.5t4 -62t-5.5 -65t-20.5 -53.5q-28 -52 -120 -52q-60 0 -112.5 47.5t-85.5 105.5q-32 -62 -83 -107.5t-105 -45.5
t-84 13t-44.5 39t-20 53.5zM117.5 457q-25.5 -33 -25.5 -113.5t27.5 -115.5t94.5 -35q96 0 184 150q-40 59 -91.5 103t-92.5 44q-71 0 -96.5 -33zM608 193q72 0 97 37.5t25 111.5t-24.5 111t-97.5 37q-41 0 -96.5 -46.5t-89.5 -100.5q36 -63 85.5 -106.5t100.5 -43.5z" />
    <glyph glyph-name="integral" unicode="&#x222b;" horiz-adv-x="455" 
d="M27 -180h96q23 0 39 6t26 24t15.5 33t8.5 51q3 50 3 154v418q0 154 13 204q22 90 101 90q60 0 99 -10v-14h-98q-33 0 -53 -16.5t-27.5 -57.5t-9 -71t-1.5 -66v-477v-92q0 -70 -6 -95t-14 -47t-20 -32q-29 -26 -71 -26q-87 0 -101 10v14z" />
    <glyph glyph-name="approxequal" unicode="&#x2248;" horiz-adv-x="473" 
d="M175 309q19 0 64.5 -36.5t60.5 -36.5q36 0 100 53l6 -7q-20 -20 -34 -32q-35 -30 -72 -30q-22 0 -66.5 36.5t-56 36.5t-19 -1t-15.5 -4.5t-13 -5.5t-15 -8.5t-13.5 -9t-15 -11t-14.5 -10.5l-4 8q42 36 65 47t42 11zM175 485q19 0 64.5 -36.5t60.5 -36.5q36 0 100 53l6 -7
q-20 -20 -34 -32q-35 -30 -72 -30q-22 0 -66.5 36.5t-56 36.5t-19 -1t-15.5 -4.5t-13 -5.5t-15 -8.5t-13.5 -9t-15 -11t-14.5 -10.5l-4 8q42 36 65 47t42 11z" />
    <glyph glyph-name="notequal" unicode="&#x2260;" horiz-adv-x="481" 
d="M27 212v24h134l143 235h-277v24h291l46 75h18l-46 -75h118v-24h-132l-143 -235h275v-24h-290l-52 -86h-18l52 86h-119z" />
    <glyph glyph-name="lessequal" unicode="&#x2264;" horiz-adv-x="511" 
d="M68 128v24h378v-24h-378zM68 425v20l344 192v-27l-314 -175l314 -186v-28z" />
    <glyph glyph-name="greaterequal" unicode="&#x2265;" horiz-adv-x="511" 
d="M68 128v24h378v-24h-378zM100 221v28l314 186l-314 175v27l346 -192v-20z" />
    <glyph glyph-name="lozenge" unicode="&#x25ca;" horiz-adv-x="536" 
d="M27 373l232 359h24l226 -359l-226 -373h-24zM54 373l217 -347l212 347l-212 338z" />
    <glyph glyph-name="f_f" unicode="&#xfb00;" horiz-adv-x="753" 
d="M244 752q-96 0 -96 -132v-89h336v99q0 81 21 118q9 15 27.5 26.5t44 11.5t75.5 -5.5t75 -12.5v-14l-142 8h-6q-28 0 -45 -19.5t-21.5 -46t-4.5 -66.5v-99h178v-24h-178v-509h-24v509h-336v-507h-24v507h-97v12l97 12v89q0 109 56 140q27 16 60.5 16t118.5 -17v-14l-107 7
h-8z" />
    <glyph glyph-name="f_f_i" unicode="&#xfb03;" horiz-adv-x="961" 
d="M244 752q-96 0 -96 -132v-89h337v53q0 92 45 147t136 55t175 -19v-14l-172 8h-9q-67 0 -109 -42.5t-42 -134.5v-53l371 -7v-524h-24v507h-347v-507h-24v507h-337v-507h-24v507h-97v12l97 12v89q0 109 56 140q27 16 60.5 16t118.5 -17v-14l-107 7h-8z" />
    <glyph glyph-name="ffl" unicode="&#xfb04;" horiz-adv-x="1076" 
d="M244 752q-96 0 -96 -132v-89h333v53q0 89 40 145.5t124 56.5h239v-594q0 -123 47 -150q16 -10 23 -11.5t48 -8t48 -6.5v-13h-67q-63 0 -93 45.5t-30 143.5v572h-208q-68 0 -107.5 -44.5t-39.5 -135.5v-53h147v-24h-147v-507h-24v507h-333v-507h-24v507h-97v12l97 12v89
q0 109 56 140q27 16 60.5 16t118.5 -17v-14l-107 7h-8z" />
    <glyph glyph-name="s_t" unicode="&#xfb06;" horiz-adv-x="849" 
d="M54 355v46q0 65 32 98t106 33h423l8 148h16v-148h175v-24h-175v-321q0 -123 47 -151q16 -9 23 -10.5t48 -8t48 -6.5v-13h-67q-63 0 -93 45.5t-30 143.5v321h-423q-62 0 -88 -26t-26 -81v-46q0 -42 16 -65q11 -15 50 -16q12 -1 28 -1h148q59 0 94.5 -26.5t35.5 -77.5v-49
q0 -74 -36 -101t-94 -27q-149 0 -244 10v14h244q75 0 96 49q10 22 10 55v49q0 38 -27 59t-79 21h-128q-61 0 -84.5 6.5t-32.5 17.5q-21 26 -21 82z" />
    <glyph glyph-name="exclamdown.alt" horiz-adv-x="260" 
d="M111 657v62q0 12 12 12h11q12 0 12 -12v-62q0 -12 -12 -12h-11q-12 0 -12 12zM118 0l5 535h12l5 -535h-22z" />
    <glyph glyph-name="zero.oldstyle" horiz-adv-x="662" 
d="M94 162v307q0 78 48.5 120t123.5 42h134q87 0 127.5 -44.5t40.5 -117.5v-307q0 -162 -168 -162h-134q-75 0 -123.5 39t-48.5 123zM118 162q0 -68 39.5 -103t108.5 -35h134q144 0 144 138v307q0 138 -144 138h-134q-68 0 -108 -36.5t-40 -101.5v-307z" />
    <glyph glyph-name="one.oldstyle" horiz-adv-x="347" 
d="M232 632v-632h-24v605l-168 -71v13l168 85h24z" />
    <glyph glyph-name="two.oldstyle" horiz-adv-x="597" 
d="M55 615v13q77 12 150.5 12t121.5 -2q102 0 152.5 -49.5t50.5 -137.5q0 -47 -38 -105t-92 -108.5t-116 -97.5q-114 -87 -173 -116h414v-24h-465v23q106 57 256 173q79 62 134.5 132.5t55.5 124.5q0 162 -190 162h-261z" />
    <glyph glyph-name="three.oldstyle" horiz-adv-x="627" 
d="M68 609v14q58 11 149 11t139 -1q85 -1 128 -46.5t43 -118.5v-69q0 -80 -65 -117q-27 -15 -56 -18q32 -4 72 -35q21 -16 35 -45t14 -65v-59q0 -168 -179 -168q-220 0 -274 11v14h274q152 0 152 143v59q0 35 -15.5 62t-39.5 41q-46 27 -97 29l-212 7v14l212 6
q65 1 109.5 31t44.5 90v69q0 71 -41 106t-107 35h-286z" />
    <glyph glyph-name="four.oldstyle" horiz-adv-x="575" 
d="M434 135v236l10 75h14v-311h90v-14l-90 -10v-210h-24v210h-395l-12 25l307 495h27l-305 -496h378z" />
    <glyph glyph-name="five.oldstyle" horiz-adv-x="672" 
d="M103 -81h304q57 0 98 38.5t41 109.5v95q0 69 -36 108q-34 36 -104 36h-153q-46 0 -85.5 -38t-39.5 -87h-24l22 450h423v-24h-400l-17 -343q10 19 43.5 42.5t80.5 23.5h151q163 0 163 -166v-99q0 -48 -16 -83.5t-42 -53.5q-51 -33 -105 -33q-232 0 -304 10v14z" />
    <glyph glyph-name="six.oldstyle" horiz-adv-x="636" 
d="M136 652q48 86 124 86q194 0 272 -9v-15h-269q-45 0 -77 -33t-47 -87q-27 -96 -27 -200q94 11 283 11q93 0 127 -38t34 -108v-111q0 -149 -161 -149h-119q-43 0 -75.5 18t-58.5 61q-54 85 -54 286.5t48 287.5zM112 380q0 -357 164 -357h119q138 0 138 123v113
q0 72 -35.5 96.5t-102.5 24.5h-283z" />
    <glyph glyph-name="seven.oldstyle" horiz-adv-x="535" 
d="M40 607v24h438l16 -23l-238 -709h-28l238 708h-426z" />
    <glyph glyph-name="eight.oldstyle" horiz-adv-x="655" 
d="M101 154v99q0 52 32.5 82.5t67.5 30.5q-100 17 -100 133v65q0 95 46 134t130 39h116q82 0 122 -41t40 -132v-65q0 -43 -26 -79.5t-66 -39.5q92 -26 92 -128v-98q0 -46 -16 -78.5t-43 -47.5q-47 -28 -104 -28h-115q-49 0 -84 12.5t-52.5 29t-26.5 40.5q-13 33 -13 72z
M125 151q0 -66 41.5 -96.5t110.5 -30.5h115q55 0 97 30.5t42 96.5v105q0 75 -51 93q-36 13 -85 13h-129q-47 0 -94 -26t-47 -80v-105zM125 494q0 -73 47 -93q37 -16 94 -16h129q66 0 101 34t35 75v68q0 81 -33.5 116t-104.5 35h-116q-81 0 -116.5 -36t-35.5 -115v-68z" />
    <glyph glyph-name="nine.oldstyle" horiz-adv-x="636" 
d="M81 372v111q0 149 161 149h119q43 0 75.5 -18t59.5 -60q53 -86 53 -287.5t-48 -287.5t-124 -86q-194 0 -272 9v15h269q45 0 77 33t47 86q27 97 27 201q-94 -11 -283 -11q-93 0 -127 38t-34 108zM104 372q0 -72 35.5 -96.5t102.5 -24.5h283q0 357 -164 357h-119
q-138 0 -138 -123v-113z" />
    <glyph glyph-name="questiondown.alt" horiz-adv-x="532" 
d="M54 178v102q0 100 62 135q44 25 130 25q34 0 75 -4v102h26v-122h-106q-81 0 -122 -31.5t-41 -104.5v-102q0 -89 40.5 -124.5t135.5 -35.5h251v-14q-87 -10 -252 -10h-9q-105 0 -147.5 44.5t-42.5 139.5zM317 658v62q0 12 11 12h12q12 0 12 -12v-62q0 -12 -12 -12h-12
q-11 0 -11 12z" />
    <glyph glyph-name="at.alt" horiz-adv-x="867" 
d="M88 448q0 75 37 117q16 18 50 32.5t81 14.5h200q63 0 108 -32.5t45 -107.5v-372h-16l-7 64l-15 -8q-131 -65 -210 -65h-3q-53 0 -89.5 33t-35.5 84v53q0 61 34 97t95 36h223q1 38 1 57t-1 19q0 60 -35 89t-97 29h-197q-144 0 -144 -140v-348q0 -81 42 -117t102 -36h319
q153 0 153 153v512q0 74 -39 119t-114 45h-389v14q49 10 226 10h62h101q82 -2 129.5 -49.5t47.5 -138.5v-512q0 -178 -177 -178h-319q-78 0 -123 46t-45 132v348zM257 214q0 -45 30 -72t81 -27h4q39 0 103 20.5t110 42.5v202l-218 -10q-37 -2 -69 -20q-41 -22 -41 -91v-45z
" />
    <glyph glyph-name="g.salt" horiz-adv-x="563" 
d="M114 467q46 70 138 70q77 0 230 -13v-628q0 -86 -47 -127.5t-97 -41.5q-7 0 -14 1l-228 24v14l228 -15h9q44 0 84.5 35.5t40.5 109.5v133q-44 -18 -105.5 -28.5t-109 -10.5t-84.5 20.5t-57 59.5q-34 70 -34 198.5t46 198.5zM92 268q0 -134 37 -194t123 -60q53 0 83.5 6.5
t35 7t21 4.5t20.5 5q10 3 46 12v464h-206q-160 0 -160 -245z" />
    <glyph glyph-name="ampersand.salt" horiz-adv-x="938" 
d="M59 286v89q0 96 49.5 126.5t161.5 30.5h461l10 148h14v-148h155v-14l-155 -10v-321q0 -49 -15 -84.5t-37 -55t-55 -30.5q-52 -17 -126 -17h-134q-46 0 -77 6t-58 24q-53 35 -53 147q-141 0 -141 109zM83 286q0 -35 20 -55t42.5 -24.5t54.5 -5.5q0 92 34.5 141.5
t113.5 49.5h129q80 0 101 -22q26 -28 26 -90.5t-28.5 -82.5t-98.5 -20h-253q0 -92 38.5 -122.5t125.5 -30.5h134q119 0 166 44q43 41 43 119v321h-461q-104 0 -145.5 -24.5t-41.5 -108.5v-89zM224 201h253q61 0 82 16t21 68.5t-21.5 67.5t-81.5 15h-129q-60 0 -92 -36.5
t-32 -130.5z" />
    <glyph glyph-name="a.superior" horiz-adv-x="366" 
d="M54 726q73 13 149 13q47 0 79 -25.5t32 -77.5v-258h-12l-5 59l-11 -7q-91 -56 -138 -56t-76.5 23.5t-29.5 65.5v46q0 41 27 65.5t73 24.5q154 0 154 1q1 30 0 31q0 90 -98 90q-87 0 -144 -7v12zM60 462q0 -35 25 -52.5t54.5 -17.5t68 14t63.5 28l25 15v139l-155 -7
q-81 -3 -81 -72v-47z" />
    <glyph glyph-name="b.superior" horiz-adv-x="383" 
d="M51 378v524h18v-193q72 30 144 30q91 0 112 -81q10 -39 10 -104q0 -180 -126 -180q-70 0 -140 59l-6 -55h-12zM208 392q109 0 109 162q0 94 -23.5 130.5t-77 36.5t-147.5 -24v-250q84 -55 139 -55z" />
    <glyph glyph-name="c.superior" horiz-adv-x="355" 
d="M42 555q0 108 33 145t90 37t140 -19v-12q-90 13 -140 13t-77.5 -33t-27.5 -127t26 -131t87 -37q69 0 120 12l17 4v-12q-56 -21 -137 -22q-64 0 -97.5 37t-33.5 145z" />
    <glyph glyph-name="d.superior" horiz-adv-x="382" 
d="M42 554q0 109 30 147q29 38 96.5 38t139.5 -30v193h18v-524h-12l-6 55q-70 -59 -140 -59q-126 0 -126 180zM60 554q0 -162 109 -162q55 0 139 55v250q-94 24 -147.5 24t-77 -36.5t-23.5 -130.5z" />
    <glyph glyph-name="e.superior" horiz-adv-x="386" 
d="M42 557q0 106 36 140.5t123 34.5q32 0 52 -3t43 -15q43 -22 43 -106q0 -36 -24 -50t-84 -14h-171q0 -93 30 -123t91.5 -30t149.5 17v-12q-83 -23 -155.5 -23t-103 39t-30.5 145zM60 562h170q28 0 45 2t31.5 12.5t14.5 30.5q0 62 -25.5 84.5t-94.5 22.5q-38 0 -59.5 -4
t-42.5 -18q-39 -27 -39 -130z" />
    <glyph glyph-name="f.superior" horiz-adv-x="326" 
d="M35 694v8l74 9v87q0 105 97 105q40 0 85 -6v-12h-72q-52 0 -72 -21t-20 -68v-85h132v-17h-132v-316h-18v316h-74z" />
    <glyph glyph-name="g.superior" horiz-adv-x="413" 
d="M49 291v42l7 67q-14 14 -14 40t19 41t57 16q-25 8 -46.5 36.5t-21.5 69.5q0 63 32.5 96t88.5 33h201v-8l-86 -9q19 -7 37.5 -36.5t18.5 -76.5t-28 -81t-94 -34h-83q-15 0 -35 -5q-42 -10 -42 -41q0 -37 45 -42l149 -17q48 -6 73 -23.5t25 -55.5v-8q0 -109 -101 -109h-93
q-50 0 -79.5 26.5t-29.5 78.5zM66 300q0 -97 99 -97h81q88 0 88 92v5q0 38 -28 50q-21 10 -54 14l-149 17q-22 2 -37 11v-92zM68 603q0 -44 29 -71.5t74 -27.5h45q48 0 78 24t30 73.5t-24.5 81t-66.5 31.5h-64q-57 0 -79 -33.5t-22 -77.5z" />
    <glyph glyph-name="h.superior" horiz-adv-x="389" 
d="M51 378v523h18v-216q74 54 155 54q58 0 85.5 -32.5t27.5 -81.5v-247h-18v247q0 45 -27.5 70.5t-69.5 25.5q-65 0 -153 -47v-296h-18z" />
    <glyph glyph-name="i.superior" horiz-adv-x="121" 
d="M46 793v33q0 12 12 12h3q12 0 12 -12v-33q0 -11 -12 -11h-3q-12 0 -12 11zM50 378v356h18v-356h-18z" />
    <glyph glyph-name="j.superior" horiz-adv-x="124" 
d="M47 793v33q0 12 12 12h4q11 0 11 -12v-33q0 -11 -11 -11h-4q-12 0 -12 11zM51 196v537h19v-358v-50t-11 -129h-8z" />
    <glyph glyph-name="k.superior" horiz-adv-x="343" 
d="M51 378v521h18v-315h61l146 148h24l-153 -157l160 -197h-24l-153 188h-61v-188h-18z" />
    <glyph glyph-name="l.superior" horiz-adv-x="253" 
d="M50 504v396h18v-396q0 -60 20 -81.5t61 -26.5l67 -8v-10h-67q-53 0 -76 31.5t-23 94.5z" />
    <glyph glyph-name="m.superior" horiz-adv-x="639" 
d="M51 378v354h18v-47q74 54 150.5 54t103.5 -51q72 51 151 51q58 0 85.5 -32.5t27.5 -81.5v-247h-18v247q0 46 -27.5 71t-69.5 25q-70 0 -145 -43q10 -23 10 -53v-247h-18v247q0 46 -27.5 71t-69.5 25q-65 0 -153 -47v-296h-18z" />
    <glyph glyph-name="n.superior" horiz-adv-x="389" 
d="M51 378v354h18v-47q74 54 155 54q58 0 85.5 -32.5t27.5 -81.5v-247h-18v247q0 45 -27.5 70.5t-69.5 25.5q-65 0 -153 -47v-296h-18z" />
    <glyph glyph-name="o.superior" horiz-adv-x="391" 
d="M73 416.5q-31 41.5 -31 136.5t30.5 138.5t120.5 43.5t119.5 -43.5t29.5 -138t-30 -136.5t-119 -42t-120 41.5zM60 550q0 -91 29.5 -124t106.5 -33t102.5 38t25.5 126.5t-27.5 124t-105.5 35.5t-104.5 -38t-26.5 -129z" />
    <glyph glyph-name="p.superior" horiz-adv-x="383" 
d="M51 195v537h12l6 -55q70 59 140 59q126 0 126 -180q0 -109 -29 -147q-30 -38 -97.5 -38t-139.5 30v-206h-18zM69 413q94 -24 147.5 -24t77 36.5t23.5 130.5q0 162 -109 162q-55 0 -139 -55v-250z" />
    <glyph glyph-name="q.superior" horiz-adv-x="384" 
d="M77 691q35 48 108 48t143 -10v-535h-18v203q-72 -30 -129 -30q-139 0 -139 189q0 87 35 135zM188 722q-128 0 -128 -169t128 -169q40 0 71 9t51 14v315h-122z" />
    <glyph glyph-name="r.superior" horiz-adv-x="329" 
d="M51 378v354h8l10 -51q84 55 156 55q43 0 56 -6v-16q-18 4 -52 4t-63.5 -7.5t-47 -15.5t-49.5 -24v-293h-18z" />
    <glyph glyph-name="s.superior" horiz-adv-x="371" 
d="M42 616v35q0 91 95 91q49 0 166 -13v-8l-159 3h-5q-46 0 -62.5 -19t-16.5 -62v-24q0 -40 13.5 -48.5t61.5 -8.5h101q46 0 67 -16t21 -55v-37q0 -87 -89 -87q-37 0 -176 16v8l165 -5q60 -3 74 32q8 17 8 45v25q0 33 -16 44.5t-56 11.5h-99q-49 0 -66 8t-22 23t-5 41z" />
    <glyph glyph-name="t.superior" horiz-adv-x="314" 
d="M36 716v8l74 8l10 101h8v-99h112v-18h-112v-214q0 -55 18.5 -79.5t65.5 -29.5l57 -6v-8h-59q-54 0 -77 28t-23 96v213h-74z" />
    <glyph glyph-name="u.superior" horiz-adv-x="391" 
d="M49 492v247h18v-247q0 -45 27.5 -70.5t69.5 -25.5q65 0 153 47v296h18v-354h-18v47q-74 -54 -155 -54q-58 0 -85.5 32.5t-27.5 81.5z" />
    <glyph glyph-name="v.superior" horiz-adv-x="409" 
d="M34 732h20l152 -331l147 331h20l-157 -354h-21z" />
    <glyph glyph-name="w.superior" horiz-adv-x="624" 
d="M34 732h20l152 -331l147 331h20l-52 -117l100 -214l147 331h20l-157 -354h-21l-99 215l-95 -215h-21z" />
    <glyph glyph-name="x.superior" horiz-adv-x="368" 
d="M35 378l137 178l-136 176h23l125 -161l124 161h23l-136 -176l137 -178h-23l-125 163l-126 -163h-23z" />
    <glyph glyph-name="y.superior" horiz-adv-x="410" 
d="M34 733h21l114 -283q22 -54 56 -54l128 337h21l-176 -469l-38 -68h-8l67 180q-46 9 -69 66z" />
    <glyph glyph-name="z.superior" horiz-adv-x="371" 
d="M42 718v14h280v-8l-252 -331h251v-14h-268v14l247 325h-258z" />
    <glyph glyph-name="zero.tnum" horiz-adv-x="630" 
d="M78 162v408q0 78 48.5 120t123.5 42h134q87 0 127 -44t40 -118v-408q0 -162 -167 -162h-134q-75 0 -123.5 39t-48.5 123zM102 162q0 -68 39.5 -103t108.5 -35h134q143 0 143 138v408q0 138 -143 138h-134q-68 0 -108 -36.5t-40 -101.5v-408z" />
    <glyph glyph-name="one.tnum" horiz-adv-x="630" 
d="M370 732v-705h180v-28h-390v28h186v678l-168 -71v13l168 85h24z" />
    <glyph glyph-name="two.tnum" horiz-adv-x="630" 
d="M76 717v15q79 10 274 10q203 0 203 -210q0 -51 -42 -120t-92.5 -124.5t-125 -121.5t-105 -90t-66.5 -52h431v-24h-470v23q1 1 35.5 28.5t49 39.5t54 45t61.5 53.5t58.5 55.5t58.5 60t49.5 59t42.5 60q36 64 36 109q0 99 -46.5 141.5t-133.5 42.5h-272z" />
    <glyph glyph-name="three.tnum" horiz-adv-x="630" 
d="M89 710v14q58 11 149 11t139 -1q85 -1 128 -46.5t43 -118.5v-69q0 -80 -64 -117q-27 -15 -56 -18q32 -4 72 -35q20 -16 34 -45t14 -65v-59q0 -168 -178 -168q-221 0 -275 11l1 14h273q153 0 153 143v59q0 35 -15.5 62t-39.5 41q-46 27 -97 29l-213 7v14l213 6
q65 1 109.5 31t44.5 90v69q0 71 -41.5 106t-107.5 35h-286z" />
    <glyph glyph-name="four.tnum" horiz-adv-x="630" 
d="M475 236v236l10 75h14v-311h90v-14l-90 -10v-210h-24v210h-395l-12 25l307 495h27l-305 -496h378z" />
    <glyph glyph-name="five.tnum" horiz-adv-x="630" 
d="M103 20h304q57 0 98 38.5t41 109.5v95q0 69 -36 108q-34 36 -104 36h-153q-46 0 -85.5 -38t-39.5 -87h-24l22 450h423v-24h-400l-17 -343q10 19 43.5 42.5t80.5 23.5h151q163 0 163 -166v-99q0 -48 -16 -83.5t-42 -52.5q-51 -34 -105 -34q-232 0 -304 10v14z" />
    <glyph glyph-name="six.tnum" horiz-adv-x="630" 
d="M140 652q48 86 124 86q194 0 272 -9v-15h-269q-45 0 -77 -33t-47 -87q-27 -96 -27 -200q93 11 283 11q93 0 127 -38t34 -108v-111q0 -149 -161 -149h-119q-43 0 -75.5 18t-58.5 61q-54 85 -54 286.5t48 287.5zM116 380q0 -357 164 -357h119q138 0 138 123v113
q0 72 -35.5 96.5t-102.5 24.5h-283z" />
    <glyph glyph-name="seven.tnum" horiz-adv-x="630" 
d="M90 708v24h438l16 -23l-238 -709h-28l238 708h-426z" />
    <glyph glyph-name="eight.tnum" horiz-adv-x="630" 
d="M92 154v99q0 52 32.5 82.5t67.5 30.5q-100 17 -100 133v65q0 95 46 134t130 39h116q82 0 122 -41t40 -132v-65q0 -43 -26 -79.5t-66 -39.5q92 -26 92 -128v-98q0 -46 -16 -78.5t-42 -47.5q-48 -28 -105 -28h-115q-49 0 -84 12.5t-52.5 29t-27.5 40.5q-12 33 -12 72z
M116 151q0 -66 41.5 -96.5t110.5 -30.5h115q55 0 97 30.5t42 96.5v105q0 75 -51 93q-36 13 -85 13h-129q-47 0 -94 -26t-47 -80v-105zM116 494q0 -73 47 -93q37 -16 94 -16h129q66 0 101 34t35 75v68q0 81 -33.5 116t-104.5 35h-116q-81 0 -116.5 -36t-35.5 -115v-68z" />
    <glyph glyph-name="nine.tnum" horiz-adv-x="630" 
d="M72 473v111q0 149 161 149h119q43 0 75.5 -18t58.5 -61q54 -85 54 -286.5t-48 -287.5t-124 -86q-194 0 -272 9v15h269q45 0 77 33t47 87q27 96 27 200q-94 -11 -283 -11q-93 0 -127 38t-34 108zM95 473q0 -72 35.5 -96.5t102.5 -24.5h283q0 357 -164 357h-119
q-138 0 -138 -123v-113z" />
    <glyph glyph-name="zero.tosf" horiz-adv-x="630" 
d="M78 162v307q0 78 48.5 120t123.5 42h134q87 0 127 -44t40 -118v-307q0 -162 -167 -162h-134q-75 0 -123.5 39t-48.5 123zM102 162q0 -68 39.5 -103t108.5 -35h134q143 0 143 138v307q0 138 -143 138h-134q-68 0 -108 -36.5t-40 -101.5v-307z" />
    <glyph glyph-name="one.tosf" horiz-adv-x="630" 
d="M366 632v-605h182v-28h-390v28h184v578l-168 -71v13l168 85h24z" />
    <glyph glyph-name="two.tosf" horiz-adv-x="630" 
d="M76 615v13q77 12 150.5 12t121.5 -2q102 0 152.5 -49.5t50.5 -137.5q0 -47 -38 -105t-92 -108.5t-116 -97.5q-114 -87 -173 -116h414v-24h-465v23q106 57 256 173q79 62 134.5 132.5t55.5 124.5q0 162 -190 162h-261z" />
    <glyph glyph-name="three.tosf" horiz-adv-x="630" 
d="M89 609v14q58 11 149 11t139 -1q85 -1 128 -46.5t43 -118.5v-69q0 -80 -64 -117q-27 -15 -56 -18q32 -4 72 -35q20 -16 34 -45t14 -65v-59q0 -168 -178 -168q-221 0 -275 11l1 14h273q153 0 153 143v59q0 35 -15.5 62t-39.5 41q-46 27 -97 29l-213 7v14l213 6
q65 1 109.5 31t44.5 90v69q0 71 -41.5 106t-107.5 35h-286z" />
    <glyph glyph-name="four.tosf" horiz-adv-x="630" 
d="M491 135v236l10 75h14v-311h90v-14l-90 -10v-210h-24v210h-395l-12 25l307 495h27l-305 -496h378z" />
    <glyph glyph-name="five.tosf" horiz-adv-x="630" 
d="M103 -81h304q57 0 98 38.5t41 109.5v95q0 69 -36 108q-34 36 -104 36h-153q-46 0 -85.5 -38t-39.5 -87h-24l22 450h423v-24h-400l-17 -343q10 19 43.5 42.5t80.5 23.5h151q163 0 163 -166v-99q0 -48 -16 -83.5t-42 -53.5q-51 -33 -105 -33q-232 0 -304 10v14z" />
    <glyph glyph-name="six.tosf" horiz-adv-x="630" 
d="M140 652q48 86 124 86q194 0 272 -9v-15h-269q-45 0 -77 -33t-47 -87q-27 -96 -27 -200q93 11 283 11q93 0 127 -38t34 -108v-111q0 -149 -161 -149h-119q-43 0 -75.5 18t-58.5 61q-54 85 -54 286.5t48 287.5zM116 380q0 -357 164 -357h119q138 0 138 123v113
q0 72 -35.5 96.5t-102.5 24.5h-283z" />
    <glyph glyph-name="seven.tosf" horiz-adv-x="630" 
d="M90 607v24h438l16 -23l-238 -709h-28l238 708h-426z" />
    <glyph glyph-name="eight.tosf" horiz-adv-x="630" 
d="M92 154v99q0 52 32.5 82.5t67.5 30.5q-100 17 -100 133v65q0 95 46 134t130 39h116q82 0 122 -41t40 -132v-65q0 -43 -26 -79.5t-66 -39.5q92 -26 92 -128v-98q0 -46 -16 -78.5t-42 -47.5q-48 -28 -105 -28h-115q-49 0 -84 12.5t-52.5 29t-27.5 40.5q-12 33 -12 72z
M116 151q0 -66 41.5 -96.5t110.5 -30.5h115q55 0 97 30.5t42 96.5v105q0 75 -51 93q-36 13 -85 13h-129q-47 0 -94 -26t-47 -80v-105zM116 494q0 -73 47 -93q37 -16 94 -16h129q66 0 101 34t35 75v68q0 81 -33.5 116t-104.5 35h-116q-81 0 -116.5 -36t-35.5 -115v-68z" />
    <glyph glyph-name="nine.tosf" horiz-adv-x="630" 
d="M72 372v111q0 149 161 149h119q43 0 75.5 -18t58.5 -60q54 -86 54 -287.5t-48 -287.5t-124 -86q-194 0 -272 9v15h269q45 0 77 33t47 86q27 97 27 201q-94 -11 -283 -11q-93 0 -127 38t-34 108zM95 372q0 -72 35.5 -96.5t102.5 -24.5h283q0 357 -164 357h-119
q-138 0 -138 -123v-113z" />
    <glyph glyph-name="gbreve.salt" horiz-adv-x="563" 
d="M173 707h14q0 -42 29 -71t68 -29q46 0 75.5 28.5t29.5 71.5h14q0 -53 -35.5 -83.5t-80 -30.5t-79.5 31.5t-35 82.5zM114 467q46 70 138 70q77 0 230 -13v-628q0 -86 -47 -127.5t-97 -41.5q-7 0 -14 1l-228 24v14l228 -15h9q44 0 84.5 35.5t40.5 109.5v133
q-44 -18 -105.5 -28.5t-109 -10.5t-84.5 20.5t-57 59.5q-34 70 -34 198.5t46 198.5zM92 268q0 -134 37 -194t123 -60q53 0 83.5 6.5t35 7t21 4.5t20.5 5q10 3 46 12v464h-206q-160 0 -160 -245z" />
    <glyph glyph-name="gdotaccent.salt" horiz-adv-x="563" 
d="M278 609v62q0 12 12 12h12q12 0 12 -12v-62q0 -12 -12 -12h-12q-12 0 -12 12zM114 467q46 70 138 70q77 0 230 -13v-628q0 -86 -47 -127.5t-97 -41.5q-7 0 -14 1l-228 24v14l228 -15h9q44 0 84.5 35.5t40.5 109.5v133q-44 -18 -105.5 -28.5t-109 -10.5t-84.5 20.5
t-57 59.5q-34 70 -34 198.5t46 198.5zM92 268q0 -134 37 -194t123 -60q53 0 83.5 6.5t35 7t21 4.5t20.5 5q10 3 46 12v464h-206q-160 0 -160 -245z" />
    <glyph glyph-name="gcircumflex.salt" horiz-adv-x="563" 
d="M156 597l132 130h20l120 -130h-18l-112 115l-124 -115h-18zM114 467q46 70 138 70q77 0 230 -13v-628q0 -86 -47 -127.5t-97 -41.5q-7 0 -14 1l-228 24v14l228 -15h9q44 0 84.5 35.5t40.5 109.5v133q-44 -18 -105.5 -28.5t-109 -10.5t-84.5 20.5t-57 59.5
q-34 70 -34 198.5t46 198.5zM92 268q0 -134 37 -194t123 -60q53 0 83.5 6.5t35 7t21 4.5t20.5 5q10 3 46 12v464h-206q-160 0 -160 -245z" />
    <glyph glyph-name="c_t" horiz-adv-x="795" 
d="M67 124q-13 56 -13 131.5t9 124t24 77t38.5 45.5t47.5 22.5t56 5.5h341l8 148h16v-148h175v-22h-175l1 -323q0 -123 47 -151q16 -9 23 -10.5t48 -8t48 -6.5v-13h-67q-63 0 -93 45.5t-30 143.5l-1 321h-341q-35 0 -60 -9.5t-47 -35t-33 -76t-11 -125.5t11 -124.5t33 -74.5
t47 -34.5t63 -9.5q72 0 171 16l31 5v-16q-98 -28 -205 -29q-41 0 -69.5 10t-54 37.5t-38.5 83.5z" />
    <glyph glyph-name="t_t" horiz-adv-x="707" 
d="M27 508v16l84 8l8 148h16v-148h347l8 147h16v-148h175v-24h-175v-318q0 -123 47 -151q16 -9 23 -10.5t48 -8t48 -6.5v-13h-67q-63 0 -93 45.5t-30 143.5v318l-347 1v-320q0 -123 47 -150q16 -10 23 -11.5t48 -8t48 -6.5v-13h-67q-63 0 -93 45.5t-30 143.5v320h-84z" />
    <glyph glyph-name="f_t" horiz-adv-x="737" 
d="M27 507v14l87 10v99q0 81 21 118q9 15 27.5 26.5t44.5 11.5q110 0 150 -11v-13h-142q-47 0 -62 -32.5t-15 -99.5v-99h374l8 149h16v-149h175v-24h-175l1 -319q0 -123 47 -150q16 -10 23 -11.5t48 -8t48 -6.5v-13h-67q-63 0 -93 45.5t-30 143.5l-1 319h-374v-507h-24v507
h-87z" />
    <glyph glyph-name="t_y" horiz-adv-x="897" 
d="M27 508v16l84 8l8 148h16v-148h165q82 -1 114 -25t55 -88l106 -299q16 -46 41.5 -68.5t42.5 -22.5h17l171 506h25l-233 -699l-46 -102h-12l87 270q-80 4 -117 110l-105 294q-23 65 -50 82t-96 17h-165v-319q0 -123 47 -150q16 -10 23 -11.5t48 -8t48 -6.5v-13h-67
q-63 0 -93 45.5t-30 143.5v320h-84z" />
    <glyph glyph-name="f_y" horiz-adv-x="918" 
d="M27 507v14l87 10v99q0 81 21 118q9 15 27.5 26.5t44.5 11.5q110 0 150 -11v-13h-142q-47 0 -62 -32.5t-15 -99.5v-99l181 1q82 -1 114 -25t55 -88l106 -299q16 -46 41.5 -68.5t42.5 -22.5h17l171 506h25l-233 -699l-46 -102h-12l87 270q-80 4 -117 110l-105 294
q-23 65 -50 82t-96 17h-181v-507h-24v507h-87z" />
    <glyph glyph-name="gcommaaccent.salt" horiz-adv-x="563" 
d="M283 704q0 16 7 22.5t11 6.5t11 -1v-5q-15 0 -15 -14v-42h6q11 0 11 -12v-56q0 -11 -11 -11h-9q-11 0 -11 11v101zM114 467q46 70 138 70q77 0 230 -13v-628q0 -44 -15 -79q-27 -62 -89 -83q-21 -7 -34.5 -7t-19.5 1l-228 24v14l228 -15h15t31.5 7t41 23.5t33.5 46.5
t13 68v133q-44 -18 -105.5 -28.5t-103.5 -10.5t-75 14t-53 38t-32 60q-21 63 -21 179t46 186zM252 513q-160 0 -160 -254q0 -125 37 -185t123 -60q59 0 100.5 9.5t70.5 16.5t35 9v464h-206z" />
    <glyph glyph-name="exclam.smcp" horiz-adv-x="260" 
d="M111 12v62q0 12 12 12h11q12 0 12 -12v-62q0 -12 -12 -12h-11q-12 0 -12 12zM117 570h22l-5 -404h-12z" />
    <glyph glyph-name="quotedbl.smcp" horiz-adv-x="262" 
d="M69 593h25v-67l-6 -134h-12l-7 134v67zM169 593h25v-67l-6 -134h-12l-7 134v67z" />
    <glyph glyph-name="numbersign.smcp" horiz-adv-x="571" 
d="M27 193l2 11h140l27 159h-144l2 11h144l33 196h12l-33 -196h163l33 196h12l-33 -196h161l-2 -11h-160l-27 -159h164l-2 -11h-164l-32 -194h-12l32 194h-163l-33 -194h-12l33 194h-141zM181 204h164l27 159h-164z" />
    <glyph glyph-name="dollar.smcp" horiz-adv-x="538" 
d="M68 402v31q0 108 84 131q43 11 110 11v65h18v-66q98 0 166 -10v-14h-206q-85 0 -116.5 -29t-31.5 -88v-31q0 -54 39.5 -79t98.5 -25h82q75 0 115 -37t40 -90v-38q0 -51 -31 -84t-68.5 -42.5t-59 -9.5h-28.5v-66h-18v66q-168 13 -176 14v13h218q51 0 94.5 27t43.5 82v38
q0 45 -37 74t-93 29h-82q-162 0 -162 128z" />
    <glyph glyph-name="percent.smcp" horiz-adv-x="772" 
d="M39 384v63q0 66 28 95.5t101 29.5h46q71 0 99 -29.5t28 -95.5v-63q0 -66 -28 -95.5t-101 -29.5h-46q-71 0 -99 29.5t-28 95.5zM54 384q0 -63 26 -86.5t86 -23.5h46q61 0 87.5 23t26.5 87v63q0 60 -24.5 85t-87.5 25h-46q-62 0 -88 -23t-26 -87v-63zM204 0l338 570h21
l-338 -570h-21zM431 126v63q0 66 28 95.5t101 29.5h46q71 0 99 -29.5t28 -95.5v-63q0 -66 -28 -95.5t-101 -29.5h-46q-71 0 -99 29.5t-28 95.5zM446 126q0 -63 26 -86.5t86 -23.5h46q61 0 87.5 23t26.5 87v63q0 60 -24.5 85t-87.5 25h-46q-62 0 -88 -23t-26 -87v-63z" />
    <glyph glyph-name="ampersand.smcp" horiz-adv-x="519" 
d="M43 160q0 69 67 125l67 55l-44 59q-30 42 -30 78.5t23 61t49 29t71 4.5t144 -9v-12h-158q-53 0 -79 -21t-26 -52t27 -67l215 -289l112 111l6 -8l-68 -87l-35 -36l77 -102h-27l-66 86l-58 -52q-45 -41 -103 -41q-27 0 -62.5 13.5t-68.5 59t-33 94.5zM210 17q47 0 82 34
l61 54l-163 216l-60 -51q-63 -53 -63 -110q0 -41 34 -88q40 -55 109 -55z" />
    <glyph glyph-name="quotesingle.smcp" horiz-adv-x="162" 
d="M69 592h25v-67l-6 -134h-12l-7 134v67z" />
    <glyph glyph-name="asterisk.smcp" horiz-adv-x="468" 
d="M68 452v14l142 4v-24zM148 269l33 134l26 -4l-46 -134zM206 583l13 4l67 -123l-24 -11zM239 355l12 23l118 -83l-8 -11zM283 412l112 83l8 -12l-102 -90z" />
    <glyph glyph-name="zero.smcp" horiz-adv-x="602" 
d="M94 162v246q0 80 48 121t124 41h74q44 0 76.5 -12.5t49.5 -30t27 -41.5q15 -37 15 -78v-246q0 -162 -168 -162h-74q-75 0 -123.5 39t-48.5 123zM118 162q0 -71 42.5 -104.5t105.5 -33.5h74q144 0 144 138v246q0 66 -36 102t-108 36h-74q-68 0 -108 -35t-40 -103v-246z
" />
    <glyph glyph-name="one.smcp" horiz-adv-x="354" 
d="M246 592v-592h-24v565l-168 -71v13l168 85h24z" />
    <glyph glyph-name="two.smcp" horiz-adv-x="532" 
d="M272 571q193 0 193 -187q0 -42 -27 -88.5t-61 -81t-91 -76.5q-77 -57 -173 -114h347v-24h-400v24q266 146 352 276q29 45 29 84q0 163 -168 163h-6l-213 -1v11q80 10 108.5 12t109.5 2z" />
    <glyph glyph-name="three.smcp" horiz-adv-x="537" 
d="M40 549v12q38 12 264 12q63 0 97.5 -38.5t34.5 -103.5v-36q0 -54 -28.5 -81.5t-55.5 -30.5q27 -5 55.5 -36t28.5 -80v-32q0 -74 -33 -107t-105 -33q-221 0 -252 12v12h248q60 0 88 25.5t28 90.5v32q0 53 -33.5 78t-72.5 26l-210 5v15l210 4q40 1 74 24.5t34 75.5v36
q0 52 -28.5 85t-83.5 33h-260z" />
    <glyph glyph-name="four.smcp" horiz-adv-x="530" 
d="M389 191v190l10 75h14v-265h90v-14l-90 -10v-165h-24v165h-345l-17 23l211 380h26l-209 -379h334z" />
    <glyph glyph-name="five.smcp" horiz-adv-x="584" 
d="M103 24h244q134 0 134 127v44q0 58 -24.5 88.5t-99.5 30.5h-98q-52 0 -93.5 -30t-41.5 -70h-20l17 356h358v-24h-335l-14 -266q14 22 49.5 40t78.5 18h99q83 0 115.5 -36t32.5 -105v-48q0 -148 -158 -150h-43q-153 0 -201 13v12z" />
    <glyph glyph-name="six.smcp" horiz-adv-x="582" 
d="M100.5 148q-12.5 62 -12.5 146.5t14 141.5t38 86q46 55 102 55h93t149 -9v-15h-241q-41 0 -69 -28t-40 -72q-22 -76 -22 -144q74 9 255 9q76 0 105.5 -25.5t29.5 -78.5v-87q0 -65 -37.5 -96t-97.5 -31h-119q-35 0 -61.5 12t-50 43t-36 93zM112 294q0 -196 68 -248
q28 -22 68 -22h119q45 0 78 24t33 83v83q0 45 -26.5 62.5t-84.5 17.5h-255z" />
    <glyph glyph-name="seven.smcp" horiz-adv-x="487" 
d="M40 546v24h390l18 -23l-194 -547h-26l194 546h-382z" />
    <glyph glyph-name="eight.smcp" horiz-adv-x="619" 
d="M101 135v35q0 60 29 87.5t60 28.5q-41 11 -65 44t-24 79v28q0 77 33 107.5t103 30.5h156q126 0 126 -138v-28q0 -54 -26.5 -82t-61.5 -34q36 -4 62 -40.5t26 -85.5v-32q0 -71 -35.5 -103t-91.5 -32h-158q-133 0 -133 135zM125 133q0 -109 109 -109h158q48 0 75.5 29
t27.5 80v32q0 112 -111 112h-146q-44 0 -78.5 -23.5t-34.5 -83.5v-37zM125 410q0 -59 34 -83.5t79 -24.5h146q50 0 81 31t31 77v25q0 60 -24.5 88t-78.5 28h-156q-62 0 -87 -23.5t-25 -92.5v-25z" />
    <glyph glyph-name="nine.smcp" horiz-adv-x="582" 
d="M81 356v87q0 65 37.5 96t97.5 31h119q35 0 61.5 -12t49.5 -43q49 -64 49 -246q0 -158 -52 -221q-46 -55 -102 -55h-93t-149 9v15h241q41 0 69 28t41 72q21 76 21 144q-74 -9 -255 -9q-76 0 -105.5 25.5t-29.5 78.5zM105 356q0 -45 26.5 -62.5t84.5 -17.5h255
q0 196 -68 248q-28 22 -68 22h-119q-45 0 -78 -24t-33 -83v-83z" />
    <glyph glyph-name="question.smcp" horiz-adv-x="473" 
d="M27 545v15q87 10 195.5 10t152.5 -35t44 -111v-51q0 -131 -160 -131q-26 0 -57 4v-81h-26v102h67q111 0 139 51q13 22 13 55v51q0 75 -43.5 98t-142.5 23h-182zM171 12v62q0 12 12 12h11q12 0 12 -12v-62q0 -12 -12 -12h-11q-12 0 -12 12z" />
    <glyph glyph-name="at.smcp" horiz-adv-x="866" 
d="M88 42v348q0 75 37 117q16 18 50 32.5t81 14.5h200q63 0 108 -32.5t45 -107.5v-372h-16l-7 64l-15 -8q-131 -65 -210 -65h-3q-53 0 -89.5 33t-35.5 84v53q0 61 34 97t95 36h223q1 38 1 57t-1 19q0 60 -35 89t-97 29h-197q-144 0 -144 -140v-348q0 -81 42 -117t102 -36
h319q153 0 153 153v512q0 74 -39 119t-114 45h-389v14q49 10 226 10h62h101q82 -2 129.5 -49.5t47.5 -138.5v-512q0 -178 -177 -178h-319q-78 0 -123 46t-45 132zM372 57q39 0 103 20.5t110 42.5v202l-218 -10q-37 -2 -69 -20q-41 -22 -41 -91q-1 -1 -1 -22.5t1 -22.5
q0 -45 30 -72t81 -27h4z" />
    <glyph glyph-name="a.smcp" horiz-adv-x="577" 
d="M47 0l243 570h24l224 -570h-26l-72 182h-290l-77 -182h-26zM161 206h271l-130 335z" />
    <glyph glyph-name="b.smcp" horiz-adv-x="550" 
d="M108 0v571h234q84 0 119 -43.5t35 -104.5q0 -104 -102 -131q19 0 58 -31q19 -15 33 -43.5t14 -62.5q0 -72 -34.5 -113.5t-122.5 -41.5h-234zM132 25h210q95 0 121 60q12 28 12 77t-40.5 84t-92.5 35h-210v-256zM132 305h210q54 0 92 29.5t38 88.5q0 124 -130 124h-210
v-242z" />
    <glyph glyph-name="c.smcp" horiz-adv-x="533" 
d="M77.5 209.5q-3.5 37.5 -3.5 91t8.5 100t29.5 88.5q44 88 166 88q39 0 110 -6t106 -14v-14q-12 2 -90.5 6t-125.5 4q-92 0 -136 -63t-44 -200.5t42.5 -204t137.5 -66.5l216 10v-14q-105 -20 -216 -20q-52 0 -90.5 18.5t-60 46.5t-34 70t-16 79.5z" />
    <glyph glyph-name="d.smcp" horiz-adv-x="616" 
d="M108 0v572h227q63 -1 108 -28t68 -72q43 -84 43 -189q0 -165 -68 -230q-22 -21 -39.5 -31t-42.5 -16q-30 -6 -69 -6h-227zM132 24h203q108 0 151.5 68t43.5 198t-57.5 194t-137.5 64h-203v-524z" />
    <glyph glyph-name="e.smcp" horiz-adv-x="530" 
d="M108 83v398q0 90 104 90l267 -9v-14h-265q-47 0 -64.5 -18t-17.5 -48v-184l316 -6v-14l-316 -6v-187q0 -27 13.5 -42.5t24.5 -18t22 -2.5h287v-13l-287 -11q-38 0 -61 23t-23 62z" />
    <glyph glyph-name="f.smcp" horiz-adv-x="530" 
d="M108 0v481q0 90 104 90l267 -9v-14h-265q-47 0 -64.5 -18t-17.5 -48v-184l316 -6v-14l-316 -6v-272h-24z" />
    <glyph glyph-name="g.smcp" horiz-adv-x="574" 
d="M74 286q0 149 45.5 221t159.5 72t219 -25v-14q-155 15 -211 15q-102 0 -145.5 -59.5t-43.5 -199t50 -209.5t139 -70q54 0 116.5 22t84.5 39v209h-198v14q104 10 145 10t77 -3v-308h-14l-10 54q-40 -26 -98 -43.5t-101.5 -17.5t-78 14t-56.5 34.5t-38 51t-23.5 56.5
t-12.5 57q-6 45 -6 80z" />
    <glyph glyph-name="h.smcp" horiz-adv-x="605" 
d="M108 -1v571h24v-283h381v283h24v-571h-24v264h-381v-264h-24z" />
    <glyph glyph-name="i.smcp" horiz-adv-x="200" 
d="M108 0v570h24v-570h-24z" />
    <glyph glyph-name="j.smcp" horiz-adv-x="332" 
d="M51 34q54 -13 72.5 -13t39 2t37 16.5t28.5 47t12 82.5v401h24v-401q0 -114 -53 -153q-32 -19 -69 -19q-48 0 -95 23z" />
    <glyph glyph-name="k.smcp" horiz-adv-x="535" 
d="M108 -1v571h24v-279h133l203 279h28l-209 -290l209 -281h-28l-203 268h-133v-268h-24z" />
    <glyph glyph-name="l.smcp" horiz-adv-x="519" 
d="M108 86v484h24v-479q0 -67 68 -67h280v-24h-286q-40 0 -63 22.5t-23 63.5z" />
    <glyph glyph-name="m.smcp" horiz-adv-x="739" 
d="M74 0l72 571h20l213 -526l215 526h16l67 -571h-24l-59 509l-208 -509h-14l-210 519l-65 -519h-23z" />
    <glyph glyph-name="n.smcp" horiz-adv-x="619" 
d="M108 0v571h21l399 -527v527h23v-571h-20l-399 528v-528h-24z" />
    <glyph glyph-name="o.smcp" horiz-adv-x="605" 
d="M87 131q-13 57 -13 163.5t25 171t73 87t126 22.5t117.5 -9t71 -39t44 -87.5t12.5 -165.5t-25 -172t-73 -85.5t-125.5 -21.5t-117 9.5t-71 39.5t-44.5 87zM98 275q0 -105 20 -160t63 -75.5t127 -20.5q125 0 168 55.5t43 188.5q0 98 -9.5 152.5t-33.5 85.5t-62 40.5
t-112.5 9.5t-117.5 -20.5t-64.5 -78t-21.5 -167.5v-10z" />
    <glyph glyph-name="p.smcp" horiz-adv-x="535" 
d="M81 0v569h251q64 0 108 -35.5t44 -116.5q0 -48 -10.5 -81.5t-23.5 -50t-36.5 -25.5t-38.5 -10.5t-27.5 -1.5h-16h-6.5l-220 9v-257h-24zM105 272h227q67 0 97.5 28.5t30.5 103.5q0 141 -128 141h-227v-273z" />
    <glyph glyph-name="q.smcp" horiz-adv-x="605" 
d="M87 131q-13 57 -13 163.5t25 171t73 87t126 22.5t117.5 -9t71 -39t44 -87.5t12.5 -165.5t-25 -172t-73 -85.5t-125.5 -21.5t-117 9.5t-71 39.5t-44.5 87zM108.5 420.5q-10.5 -51.5 -10.5 -149.5t20 -154.5t63 -77t127 -20.5q124 0 167.5 57.5t43.5 210.5q0 113 -19 168.5
t-62 75.5t-117 20t-111 -10.5t-64 -39.5t-37.5 -80.5zM317 -33q14 -38 44.5 -56t61 -18t70.5 11v-24q-34 -11 -53 -11t-24 1q-38 1 -71 26.5t-42 70.5h14z" />
    <glyph glyph-name="r.smcp" horiz-adv-x="526" 
d="M81 0v571h252q53 0 99 -31q24 -16 39 -50.5t15 -81.5q0 -72 -41 -112.5t-98 -40.5l140 -255h-29l-138 254q-11 1 -66 3q-149 5 -149 7v-264h-24zM105 278h238q39 0 79 30.5t40 101t-39 104t-90 33.5h-228v-269z" />
    <glyph glyph-name="s.smcp" horiz-adv-x="534" 
d="M74 374v67q0 65 32 98.5t106 33.5q121 0 233 -15v-14q-135 6 -233 6q-59 0 -86.5 -26t-27.5 -83v-67q0 -41 19 -64q12 -16 55 -18h40h130q67 0 98.5 -24.5t31.5 -79.5v-70q0 -128 -130 -128q-197 0 -246 16v14q150 -6 246 -6q56 0 81 30t25 74v70q0 44 -25 62t-81 18
h-130q-78 0 -108 19.5t-30 86.5z" />
    <glyph glyph-name="t.smcp" horiz-adv-x="542" 
d="M47 546v24h456v-24h-216v-546h-24v546h-216z" />
    <glyph glyph-name="u.smcp" horiz-adv-x="628" 
d="M107 260v310h25v-310q0 -138 46.5 -189.5t154 -51.5t155 54t47.5 187v310h25v-310q0 -166 -68 -220q-34 -27 -69.5 -36t-83 -9t-77.5 4.5t-62 20t-50 43.5q-43 64 -43 197z" />
    <glyph glyph-name="v.smcp" horiz-adv-x="592" 
d="M47 570h27l228 -533l225 533h26l-241 -570h-20z" />
    <glyph glyph-name="w.smcp" horiz-adv-x="825" 
d="M47 570h27l198 -533l195 533h26l-62 -170l134 -363l195 533h26l-209 -570h-22l-138 363l-133 -363h-22z" />
    <glyph glyph-name="x.smcp" horiz-adv-x="547" 
d="M47 0l215 285l-213 285h32l196 -263l198 263h32l-214 -285l215 -285h-32l-199 262l-198 -262h-32z" />
    <glyph glyph-name="y.smcp" horiz-adv-x="562" 
d="M298 -1h-24v191l-227 380h29l210 -354l208 354h29l-225 -380v-191z" />
    <glyph glyph-name="z.smcp" horiz-adv-x="502" 
d="M47 0v24l387 522h-387v24h416v-24l-384 -522h384v-24h-416z" />
    <glyph glyph-name="grave.smcp" horiz-adv-x="201" 
d="M27 664h26l121 -133h-14z" />
    <glyph glyph-name="aogonek.smcp" horiz-adv-x="618" 
d="M503 -146.5q30 -20.5 73 -20.5h5v-14q-10 -1 -30 -1t-49.5 16t-41.5 44q-6 12 -6 27.5t12 36.5q18 35 71 58h12q-40 -16 -58 -43.5t-18 -55t30 -48zM64 0l243 570h24l224 -570h-26l-72 182h-290l-77 -182h-26zM178 206h271l-130 335z" />
    <glyph glyph-name="rcommaaccent.smcp" horiz-adv-x="526" 
d="M298 -168q0 -16 -7 -22.5t-11 -6.5t-11 1v5q14 0 14 14v42h-5q-11 0 -11 12v55q0 12 11 12h9q11 0 11 -12v-100zM81 0v571h252q53 0 99 -31q24 -16 39 -50.5t15 -81.5q0 -72 -41 -112.5t-98 -40.5l140 -255h-29l-138 254q-11 1 -66 3q-149 5 -149 7v-264h-24zM105 278
h238q39 0 79 30.5t40 101t-39 104t-90 33.5h-228v-269z" />
    <glyph glyph-name="itilde.smcp" horiz-adv-x="200" 
d="M60 719q19 0 64.5 -36.5t60.5 -36.5q36 0 100 53l6 -7q-20 -20 -33 -32q-36 -30 -73 -30q-22 0 -66.5 36.5t-56 36.5t-19 -1t-15.5 -4.5t-13 -5.5t-15 -8.5t-13.5 -9t-15 -11t-14.5 -10.5l-4 8q42 36 65 47t42 11zM108 0v570h24v-570h-24z" />
    <glyph glyph-name="lcommaaccent.smcp" horiz-adv-x="519" 
d="M311 -168q0 -16 -7 -22.5t-11 -6.5t-11 1v5q14 0 14 14v42h-5q-11 0 -11 12v55q0 12 11 12h9q11 0 11 -12v-100zM108 86v484h24v-479q0 -67 68 -67h280v-24h-286q-40 0 -63 22.5t-23 63.5z" />
    <glyph glyph-name="dieresis.smcp" horiz-adv-x="424" 
d="M85 564q-17 0 -17 17.5t17.5 17.5t17.5 -17q0 -8 -5.5 -13t-12.5 -5zM322 582q0 17 17.5 17t17.5 -17.5t-17 -17.5q-8 0 -13 5t-5 13z" />
    <glyph glyph-name="scaron.smcp" horiz-adv-x="534" 
d="M146 763h16l113 -115l125 115h18l-132 -130h-22zM74 374v67q0 65 32 98.5t106 33.5q121 0 233 -15v-14q-135 6 -233 6q-59 0 -86.5 -26t-27.5 -83v-67q0 -41 19 -64q12 -16 55 -18h40h130q67 0 98.5 -24.5t31.5 -79.5v-70q0 -128 -130 -128q-197 0 -246 16v14
q150 -6 246 -6q56 0 81 30t25 74v70q0 44 -25 62t-81 18h-130q-78 0 -108 19.5t-30 86.5z" />
    <glyph glyph-name="emacron.smcp" horiz-adv-x="530" 
d="M177 632v15h252v-15h-252zM108 83v398q0 90 104 90l267 -9v-14h-265q-47 0 -64.5 -18t-17.5 -48v-184l316 -6v-14l-316 -6v-187q0 -27 13.5 -42.5t24.5 -18t22 -2.5h287v-13l-287 -11q-38 0 -61 23t-23 62z" />
    <glyph glyph-name="gcommaaccent.smcp" horiz-adv-x="575" 
d="M73 286q0 149 45.5 221t167.5 72q96 0 201 -25v-14q-155 15 -201 15q-102 0 -145.5 -59.5t-43.5 -199t50 -209.5t139 -70q54 0 111 21.5t80 39.5v209h-188v14q21 2 41.5 4.5t29.5 3.5q17 2 61 2t80 -3v-308h-14l-10 54q-41 -26 -94 -43.5t-96 -17.5t-77.5 14t-56.5 34.5
t-38 51t-23.5 56.5t-11.5 57q-7 45 -7 80zM313 -172q0 -16 -7 -22.5t-11 -6.5t-11 1v5q14 0 14 14v42h-5q-11 0 -11 12v55q0 12 11 12h9q11 0 11 -12v-100z" />
    <glyph glyph-name="tbar.smcp" horiz-adv-x="510" 
d="M27 546v24h456v-24h-216v-214h122v-14h-122v-318h-24v318h-125v14h125v214h-216z" />
    <glyph glyph-name="zcaron.smcp" horiz-adv-x="502" 
d="M119 760h16l113 -115l125 115h18l-132 -130h-22zM47 0v24l387 522h-387v24h416v-24l-384 -522h384v-24h-416z" />
    <glyph glyph-name="macron.smcp" horiz-adv-x="427" 
d="M68 531v15h292v-15h-292z" />
    <glyph glyph-name="degree.smcp" horiz-adv-x="338" 
d="M68 472q0 43 30 73t72 30t71 -30t29 -73t-29 -72.5t-71 -29.5t-72 29.5t-30 72.5zM82 472q0 -36 26 -61.5t62 -25.5t61 25.5t25 61.5t-25 62t-61 26t-62 -26t-26 -62z" />
    <glyph glyph-name="acute.smcp" horiz-adv-x="201" 
d="M27 531l121 133h26l-133 -133h-14z" />
    <glyph glyph-name="caron.smcp" horiz-adv-x="407" 
d="M68 661h16l113 -115l125 115h18l-132 -130h-22z" />
    <glyph glyph-name="eng.smcp" horiz-adv-x="620" 
d="M108 0v571h22l398 -531v531h24v-615q0 -57 -8 -91t-29.5 -52.5t-49 -24t-75.5 -5.5v18q7 1 25 3t29 3.5t28 7t25 15t17 25.5q14 27 14 100v45l-396 528v-528h-24z" />
    <glyph glyph-name="amacron.smcp" horiz-adv-x="577" 
d="M176 630v15h252v-15h-252zM47 0l243 570h24l224 -570h-26l-72 182h-290l-77 -182h-26zM161 206h271l-130 335z" />
    <glyph glyph-name="aacute.smcp" horiz-adv-x="577" 
d="M295 630l121 133h26l-133 -133h-14zM47 0l243 570h24l224 -570h-26l-72 182h-290l-77 -182h-26zM161 206h271l-130 335z" />
    <glyph glyph-name="acircumflex.smcp" horiz-adv-x="577" 
d="M166 630l132 130h20l120 -130h-18l-112 115l-124 -115h-18zM47 0l243 570h24l224 -570h-26l-72 182h-290l-77 -182h-26zM161 206h271l-130 335z" />
    <glyph glyph-name="atilde.smcp" horiz-adv-x="577" 
d="M240 719q19 0 64.5 -36.5t60.5 -36.5q36 0 100 53l6 -7q-20 -20 -33 -32q-36 -30 -73 -30q-22 0 -66.5 36.5t-56 36.5t-19 -1t-15.5 -4.5t-13 -5.5t-15 -8.5t-13.5 -9t-15 -11t-14.5 -10.5l-4 8q42 36 65 47t42 11zM47 0l243 570h24l224 -570h-26l-72 182h-290l-77 -182
h-26zM161 206h271l-130 335z" />
    <glyph glyph-name="adieresis.smcp" horiz-adv-x="577" 
d="M158 648q0 8 4.5 12.5t12 4.5t12.5 -4.5t5 -12.5t-5 -13t-12.5 -5t-12 5t-4.5 13zM417 635q-5 5 -5 11.5t2 10.5q5 8 14 8t13.5 -4.5t4.5 -12.5t-4.5 -13t-12 -5t-12.5 5zM47 0l243 570h24l224 -570h-26l-72 182h-290l-77 -182h-26zM161 206h271l-130 335z" />
    <glyph glyph-name="aring.smcp" horiz-adv-x="577" 
d="M201 672q0 43 30 73t72 30t71 -30t29 -73t-29 -72.5t-71 -29.5t-72 29.5t-30 72.5zM215 672q0 -36 26 -61.5t62 -25.5t61 25.5t25 61.5t-25 62t-61 26t-62 -26t-26 -62zM47 0l243 570h24l224 -570h-26l-72 182h-290l-77 -182h-26zM161 206h271l-130 335z" />
    <glyph glyph-name="ae.smcp" horiz-adv-x="828" 
d="M773 543h-255q-51 0 -66.5 -12.5t-15.5 -53.5v-184l306 -6v-14l-306 -6v-187q0 -27 13.5 -42.5t24.5 -18t22 -2.5h277v-13l-277 -11q-38 0 -61 22t-23 63v132h-211l-141 -210h-29l325 482q36 53 62.5 66.5t97.5 17.5l257 -9v-14zM412 234v282l-195 -282h195z" />
    <glyph glyph-name="iogonek.smcp" horiz-adv-x="200" 
d="M89 -146.5q30 -20.5 73 -20.5h5v-14q-10 -1 -30 -1t-49.5 16t-41.5 44q-6 12 -6 27.5t12 36.5q18 35 71 58h12q-40 -16 -58 -43.5t-18 -55t30 -48zM116 0v570h24v-570h-24z" />
    <glyph glyph-name="ccaron.smcp" horiz-adv-x="533" 
d="M182 773h16l113 -115l125 115h18l-132 -130h-22zM77.5 209.5q-3.5 37.5 -3.5 91t8.5 100t29.5 88.5q44 88 166 88q39 0 110 -6t106 -14v-14q-12 2 -90.5 6t-125.5 4q-92 0 -136 -63t-44 -200.5t42.5 -204t137.5 -66.5l216 10v-14q-105 -20 -216 -20q-52 0 -90.5 18.5
t-60 46.5t-34 70t-16 79.5z" />
    <glyph glyph-name="eacute.smcp" horiz-adv-x="530" 
d="M305 631l121 133h26l-133 -133h-14zM108 83v398q0 90 104 90l267 -9v-14h-265q-47 0 -64.5 -18t-17.5 -48v-184l316 -6v-14l-316 -6v-187q0 -27 13.5 -42.5t24.5 -18t22 -2.5h287v-13l-287 -11q-38 0 -61 23t-23 62z" />
    <glyph glyph-name="eogonek.smcp" horiz-adv-x="530" 
d="M433 -137.5q30 -20.5 73 -20.5h5v-14q-10 -1 -30 -1t-49.5 16t-41.5 45q-6 11 -6 26.5t12 36.5q18 35 71 58h12q-40 -16 -58 -43.5t-18 -55t30 -48zM108 83v398q0 90 104 90l267 -9v-14h-265q-47 0 -64.5 -18t-17.5 -48v-184l316 -6v-14l-316 -6v-187q0 -27 13.5 -42.5
t24.5 -18t22 -2.5h287v-13l-287 -11q-38 0 -61 23t-23 62z" />
    <glyph glyph-name="edieresis.smcp" horiz-adv-x="530" 
d="M169 665q-17 0 -17 17.5t17 17.5t17 -17.5t-17 -17.5zM406 683q0 17 17.5 17t17.5 -17.5t-17 -17.5q-8 0 -13 5.5t-5 12.5zM108 83v398q0 90 104 90l267 -9v-14h-265q-47 0 -64.5 -18t-17.5 -48v-184l316 -6v-14l-316 -6v-187q0 -27 13.5 -42.5t24.5 -18t22 -2.5h287v-13
l-287 -11q-38 0 -61 23t-23 62z" />
    <glyph glyph-name="edotaccent.smcp" horiz-adv-x="530" 
d="M290 643v62q0 12 12 12h12q12 0 12 -12v-62q0 -12 -12 -12h-12q-12 0 -12 12zM108 83v398q0 90 104 90l267 -9v-14h-265q-47 0 -64.5 -18t-17.5 -48v-184l316 -6v-14l-316 -6v-187q0 -27 13.5 -42.5t24.5 -18t22 -2.5h287v-13l-287 -11q-38 0 -61 23t-23 62z" />
    <glyph glyph-name="iacute.smcp" horiz-adv-x="200" 
d="M113 630l121 133h26l-133 -133h-14zM108 0v570h24v-570h-24z" />
    <glyph glyph-name="icircumflex.smcp" horiz-adv-x="200" 
d="M-21 630l132 130h20l120 -130h-18l-112 115l-124 -115h-18zM108 0v570h24v-570h-24z" />
    <glyph glyph-name="imacron.smcp" horiz-adv-x="200" 
d="M1 630v15h252v-15h-252zM118 0v570h24v-570h-24z" />
    <glyph glyph-name="dcroat.smcp" horiz-adv-x="609" 
d="M27 283v14h65v275h217q63 -1 108 -28t68 -72q43 -84 43 -189q0 -165 -68 -230q-22 -21 -39.5 -31t-42.5 -16q-30 -6 -69 -6h-217v283h-65zM116 24h193q108 0 151.5 68t43.5 198t-57.5 194t-137.5 64h-193v-251h125v-14h-125v-259z" />
    <glyph glyph-name="ncommaaccent.smcp" horiz-adv-x="619" 
d="M347 -169q0 -16 -7 -22.5t-11 -6.5t-11 1v5q14 0 14 14v42h-5q-11 0 -11 12v56q0 11 11 11h9q11 0 11 -11v-101zM108 0v571h21l399 -527v527h23v-571h-20l-399 528v-528h-24z" />
    <glyph glyph-name="omacron.smcp" horiz-adv-x="605" 
d="M182 635v15h252v-15h-252zM87 131q-13 57 -13 163.5t25 171t73 87t126 22.5t117.5 -9t71 -39t44 -87.5t12.5 -165.5t-25 -172t-73 -85.5t-125.5 -21.5t-117 9.5t-71 39.5t-44.5 87zM98 275q0 -105 20 -160t63 -75.5t127 -20.5q125 0 168 55.5t43 188.5q0 98 -9.5 152.5
t-33.5 85.5t-62 40.5t-112.5 9.5t-117.5 -20.5t-64.5 -78t-21.5 -167.5v-10z" />
    <glyph glyph-name="kcommaaccent.smcp" horiz-adv-x="535" 
d="M305 -168q0 -16 -7 -22.5t-11 -6.5t-11 1v5q14 0 14 14v42h-5q-11 0 -11 12v55q0 12 11 12h9q11 0 11 -12v-100zM108 -1v571h24v-279h133l203 279h28l-209 -290l209 -281h-28l-203 268h-133v-268h-24z" />
    <glyph glyph-name="ocircumflex.smcp" horiz-adv-x="605" 
d="M172 635l132 130h20l120 -130h-18l-112 115l-124 -115h-18zM87 131q-13 57 -13 163.5t25 171t73 87t126 22.5t117.5 -9t71 -39t44 -87.5t12.5 -165.5t-25 -172t-73 -85.5t-125.5 -21.5t-117 9.5t-71 39.5t-44.5 87zM98 275q0 -105 20 -160t63 -75.5t127 -20.5
q125 0 168 55.5t43 188.5q0 98 -9.5 152.5t-33.5 85.5t-62 40.5t-112.5 9.5t-117.5 -20.5t-64.5 -78t-21.5 -167.5v-10z" />
    <glyph glyph-name="otilde.smcp" horiz-adv-x="605" 
d="M246 724q19 0 64.5 -36.5t60.5 -36.5q36 0 100 53l6 -7q-20 -20 -33 -31q-36 -31 -73 -31q-22 0 -66.5 36.5t-56 36.5t-19 -1t-15.5 -4.5t-13 -5.5t-15 -8.5t-13.5 -9t-15 -11t-14.5 -10.5l-4 8q42 36 65 47t42 11zM87 131q-13 57 -13 163.5t25 171t73 87t126 22.5
t117.5 -9t71 -39t44 -87.5t12.5 -165.5t-25 -172t-73 -85.5t-125.5 -21.5t-117 9.5t-71 39.5t-44.5 87zM98 275q0 -105 20 -160t63 -75.5t127 -20.5q125 0 168 55.5t43 188.5q0 98 -9.5 152.5t-33.5 85.5t-62 40.5t-112.5 9.5t-117.5 -20.5t-64.5 -78t-21.5 -167.5v-10z" />
    <glyph glyph-name="odieresis.smcp" horiz-adv-x="605" 
d="M164 652.5q0 7.5 4.5 12.5t12 5t12.5 -5t5 -11t-3 -10q-4 -9 -13 -9t-13.5 5t-4.5 12.5zM418 653q0 7 5 12t12.5 5t12 -5t4.5 -10.5t-1 -8.5t-3 -6q-5 -5 -12.5 -5t-12.5 5.5t-5 12.5zM87 131q-13 57 -13 163.5t25 171t73 87t126 22.5t117.5 -9t71 -39t44 -87.5
t12.5 -165.5t-25 -172t-73 -85.5t-125.5 -21.5t-117 9.5t-71 39.5t-44.5 87zM98 275q0 -105 20 -160t63 -75.5t127 -20.5q125 0 168 55.5t43 188.5q0 98 -9.5 152.5t-33.5 85.5t-62 40.5t-112.5 9.5t-117.5 -20.5t-64.5 -78t-21.5 -167.5v-10z" />
    <glyph glyph-name="oslash.smcp" horiz-adv-x="605" 
d="M74 280q0 121 25 185.5t73 87t150.5 22.5t148.5 -34l22 29h21l-30 -41q59 -58 59 -242q0 -121 -25 -185t-73 -85.5t-126 -21.5t-120.5 10.5t-69.5 40.5l-34 -46h-21l44 60q-44 62 -44 220zM119.5 451.5q-21.5 -57.5 -21.5 -186t36 -183.5l322 438q-43 31 -135.5 31
t-136 -21t-65 -78.5zM145 68q44 -49 165 -49t165 56.5t44 219.5t-50 214z" />
    <glyph glyph-name="uogonek.smcp" horiz-adv-x="568" 
d="M337 -147.5q30 -20.5 73 -20.5h5v-14q-10 -1 -30 -1t-49.5 16t-41.5 45q-6 11 -6 26.5t12 36.5q18 35 71 58h12q-40 -16 -58 -43.5t-18 -55t30 -48zM144 260v310h25v-310q0 -138 46.5 -189.5t154 -51.5t155 54t47.5 187v310h25v-310q0 -166 -69 -220q-33 -27 -68.5 -36
t-83 -9t-77.5 4.5t-62 20t-51 43.5q-42 64 -42 197z" />
    <glyph glyph-name="uacute.smcp" horiz-adv-x="628" 
d="M326 630l122 133h26l-134 -133h-14zM107 260v310h25v-310q0 -138 46.5 -189.5t154 -51.5t155 54t47.5 187v310h25v-310q0 -166 -68 -220q-34 -27 -69.5 -36t-83 -9t-77.5 4.5t-62 20t-50 43.5q-43 64 -43 197z" />
    <glyph glyph-name="ucircumflex.smcp" horiz-adv-x="628" 
d="M198 630l132 130h20l120 -130h-18l-112 115l-124 -115h-18zM107 260v310h25v-310q0 -138 46.5 -189.5t154 -51.5t155 54t47.5 187v310h25v-310q0 -166 -68 -220q-34 -27 -69.5 -36t-83 -9t-77.5 4.5t-62 20t-50 43.5q-43 64 -43 197z" />
    <glyph glyph-name="udieresis.smcp" horiz-adv-x="628" 
d="M206 630q-17 0 -17 17.5t17 17.5t17 -17.5t-17 -17.5zM443 648q0 17 17.5 17t17.5 -17.5t-17 -17.5q-7 0 -12.5 5t-5.5 13zM107 260v310h25v-310q0 -138 46.5 -189.5t154 -51.5t155 54t47.5 187v310h25v-310q0 -166 -68 -220q-34 -27 -69.5 -36t-83 -9t-77.5 4.5t-62 20
t-50 43.5q-43 64 -43 197z" />
    <glyph glyph-name="utilde.smcp" horiz-adv-x="628" 
d="M271.5 719q19.5 0 64.5 -36.5t61.5 -36.5t39 11t31 18t28.5 24l6 -7q-47 -48 -76 -57q-14 -5 -33 -5t-63 36.5t-60 36.5q-21 0 -34 -6.5t-17.5 -8.5t-12.5 -7.5t-11.5 -8.5t-13 -9.5t-13.5 -9.5l-4 8q42 36 65 47t42.5 11zM107 260v310h25v-310q0 -138 46.5 -189.5
t154 -51.5t155 54t47.5 187v310h25v-310q0 -166 -68 -220q-34 -27 -69.5 -36t-83 -9t-77.5 4.5t-62 20t-50 43.5q-43 64 -43 197z" />
    <glyph glyph-name="umacron.smcp" horiz-adv-x="628" 
d="M208 630v15h252v-15h-252zM107 260v310h25v-310q0 -138 46.5 -189.5t154 -51.5t155 54t47.5 187v310h25v-310q0 -166 -68 -220q-34 -27 -69.5 -36t-83 -9t-77.5 4.5t-62 20t-50 43.5q-43 64 -43 197z" />
    <glyph glyph-name="germandbls.smcp" horiz-adv-x="986" 
d="M50 374v67q0 65 32 98.5t106 33.5q121 0 233 -15v-14l-233 6q-59 0 -86.5 -26t-27.5 -83v-67q0 -41 19 -64q14 -18 95 -18h130q67 0 98.5 -24.5t31.5 -79.5v-70q0 -128 -130 -128q-197 0 -246 16v14l246 -6q56 0 81 30t25 74v70q0 44 -25 62t-81 18h-130q-78 0 -108 19.5
t-30 86.5zM529 441q0 65 32 98.5t106 33.5q121 0 233 -15v-14q-135 6 -233 6q-59 0 -86.5 -26t-27.5 -83v-67q0 -41 19 -64q12 -16 56 -18h39h130q67 0 98.5 -24.5t31.5 -79.5v-70q0 -128 -130 -128q-197 0 -246 16v14q150 -6 246 -6q56 0 81 30t25 74v70q0 44 -25.5 62
t-80.5 18h-130q-78 0 -108 19.5t-30 86.5v67z" />
    <glyph glyph-name="agrave.smcp" horiz-adv-x="577" 
d="M140 764h26l121 -133h-14zM47 0l243 570h24l224 -570h-26l-72 182h-290l-77 -182h-26zM161 206h271l-130 335z" />
    <glyph glyph-name="ccedilla.smcp" horiz-adv-x="533" 
d="M276 -138q13 12 17 34.5t4 40.5v25h17q0 -77 -20 -106.5t-81 -29.5h-30v7l32 5q24 4 36 8t25 16zM77.5 209.5q-3.5 37.5 -3.5 91t8.5 100t29.5 88.5q44 88 166 88q39 0 110 -6t106 -14v-14q-12 2 -90.5 6t-125.5 4q-92 0 -136 -63t-44 -200.5t42.5 -204t137.5 -66.5
l216 10v-14q-105 -20 -216 -20q-52 0 -90.5 18.5t-60 46.5t-34 70t-16 79.5z" />
    <glyph glyph-name="eth.smcp" horiz-adv-x="616" 
d="M43 283v14h65v275h217q63 -1 108 -28t68 -72q43 -84 43 -189q0 -165 -68 -230q-22 -21 -39.5 -31t-42.5 -16q-30 -6 -69 -6h-217v283h-65zM132 24h193q108 0 151.5 68t43.5 198t-57.5 194t-137.5 64h-193v-251h125v-14h-125v-259z" />
    <glyph glyph-name="egrave.smcp" horiz-adv-x="530" 
d="M168 765h26l121 -133h-14zM108 83v398q0 90 104 90l267 -9v-14h-265q-47 0 -64.5 -18t-17.5 -48v-184l316 -6v-14l-316 -6v-187q0 -27 13.5 -42.5t24.5 -18t22 -2.5h287v-13l-287 -11q-38 0 -61 23t-23 62z" />
    <glyph glyph-name="ecircumflex.smcp" horiz-adv-x="530" 
d="M166 632l132 130h20l120 -130h-18l-112 115l-124 -115h-18zM108 83v398q0 90 104 90l267 -9v-14h-265q-47 0 -64.5 -18t-17.5 -48v-184l316 -6v-14l-316 -6v-187q0 -27 13.5 -42.5t24.5 -18t22 -2.5h287v-13l-287 -11q-38 0 -61 23t-23 62z" />
    <glyph glyph-name="igrave.smcp" horiz-adv-x="200" 
d="M-18 763h26l121 -133h-14zM110 0v570h24v-570h-24z" />
    <glyph glyph-name="idieresis.smcp" horiz-adv-x="200" 
d="M-32 648q0 8 4.5 12.5t12 4.5t12.5 -4.5t5 -12.5t-5 -13t-12.5 -5t-12 5t-4.5 13zM222 647.5q0 7.5 5 12.5t12.5 5t12 -4.5t4.5 -12.5t-4.5 -13t-12 -5t-12.5 5t-5 12.5zM108 0v570h24v-570h-24z" />
    <glyph glyph-name="ntilde.smcp" horiz-adv-x="619" 
d="M267.5 720q19.5 0 64.5 -36.5t61.5 -36.5t39 11t31 18t28.5 24l6 -7q-20 -20 -33 -32q-36 -30 -73 -30q-22 0 -66 36.5t-55.5 36.5t-19 -1t-16 -4.5t-13.5 -5.5t-14.5 -8.5t-13 -9t-15.5 -11t-15 -10.5l-4 8q42 36 65 47t42.5 11zM108 0v571h21l399 -527v527h23v-571h-20
l-399 528v-528h-24z" />
    <glyph glyph-name="ograve.smcp" horiz-adv-x="605" 
d="M168 768h26l121 -133h-14zM87 131q-13 57 -13 163.5t25 171t73 87t126 22.5t117.5 -9t71 -39t44 -87.5t12.5 -165.5t-25 -172t-73 -85.5t-125.5 -21.5t-117 9.5t-71 39.5t-44.5 87zM98 275q0 -105 20 -160t63 -75.5t127 -20.5q125 0 168 55.5t43 188.5q0 98 -9.5 152.5
t-33.5 85.5t-62 40.5t-112.5 9.5t-117.5 -20.5t-64.5 -78t-21.5 -167.5v-10z" />
    <glyph glyph-name="oacute.smcp" horiz-adv-x="605" 
d="M301 635l121 133h26l-133 -133h-14zM87 131q-13 57 -13 163.5t25 171t73 87t126 22.5t117.5 -9t71 -39t44 -87.5t12.5 -165.5t-25 -172t-73 -85.5t-125.5 -21.5t-117 9.5t-71 39.5t-44.5 87zM98 275q0 -105 20 -160t63 -75.5t127 -20.5q125 0 168 55.5t43 188.5
q0 98 -9.5 152.5t-33.5 85.5t-62 40.5t-112.5 9.5t-117.5 -20.5t-64.5 -78t-21.5 -167.5v-10z" />
    <glyph glyph-name="ugrave.smcp" horiz-adv-x="628" 
d="M194 763h26l120 -133h-14zM107 260v310h25v-310q0 -138 46.5 -189.5t154 -51.5t155 54t47.5 187v310h25v-310q0 -166 -68 -220q-34 -27 -69.5 -36t-83 -9t-77.5 4.5t-62 20t-50 43.5q-43 64 -43 197z" />
    <glyph glyph-name="yacute.smcp" horiz-adv-x="562" 
d="M278 630l121 133h26l-133 -133h-14zM298 -1h-24v191l-227 380h29l210 -354l208 354h29l-225 -380v-191z" />
    <glyph glyph-name="thorn.smcp" horiz-adv-x="566" 
d="M101 0v569h24v-103h206q48 0 91 -30q25 -17 40 -54t15 -94.5t-13 -96.5t-37.5 -55.5t-45.5 -21.5t-50 -5q-170 0 -206 10v-119h-24zM125 133h206q59 0 90.5 34.5t31.5 113.5t-31.5 120t-90.5 41h-206v-309z" />
    <glyph glyph-name="quotesinglbase.smcp" horiz-adv-x="159" 
d="M105 -26q0 -22 -9 -31t-14 -8.5l-15 1.5v7q18 -1 18 19v38h-6q-15 0 -15 15v63q0 17 15 17h11q15 0 15 -17v-104z" />
    <glyph glyph-name="quotedblleft.smcp" horiz-adv-x="253" 
d="M155 531q0 22 9 31t14.5 8.5t14.5 -1.5v-7q-19 1 -19 -19v-37h7q6 0 10.5 -4.5t4.5 -11.5v-63q0 -16 -15 -16h-12q-14 0 -14 16v104zM58 531q0 22 9 31t14.5 8.5t14.5 -1.5v-7q-19 1 -19 -19v-37h7q6 0 10.5 -4.5t4.5 -11.5v-63q0 -16 -15 -16h-11q-15 0 -15 16v104z" />
    <glyph glyph-name="quotedblright.smcp" horiz-adv-x="253" 
d="M99 449q0 -22 -8.5 -30.5t-14 -8.5t-15.5 2v7q19 -1 19 18v38h-7q-15 0 -15 15v64q0 16 15 16h12q14 0 14 -16v-105zM196 449q0 -22 -8.5 -30.5t-14 -8.5t-15.5 2v7q18 -1 18 18v38h-6q-15 0 -15 15v64q0 16 15 16h11q15 0 15 -16v-105z" />
    <glyph glyph-name="quotedblbase.smcp" horiz-adv-x="253" 
d="M99 -26q0 -22 -8.5 -30.5t-14 -8.5t-15.5 2v7q19 -1 19 18v38h-7q-15 0 -15 15v64q0 16 15 16h12q14 0 14 -16v-105zM196 -26q0 -22 -8.5 -30.5t-14 -8.5t-15.5 2v7q18 -1 18 18v38h-6q-15 0 -15 15v64q0 16 15 16h11q15 0 15 -16v-105z" />
    <glyph glyph-name="exclamdown.smcp" horiz-adv-x="260" 
d="M111 496v62q0 12 11 12h12q12 0 12 -12v-62q0 -12 -12 -12h-12q-11 0 -11 12zM118 0l5 404h12l5 -404h-22z" />
    <glyph glyph-name="ordmasculine.smcp" horiz-adv-x="432" 
d="M93 255q-32 39 -32 143t31 143t124.5 39t124 -39t30.5 -143.5t-31 -143t-123 -38.5t-124 39zM72 171v18h287v-18h-287zM106.5 527.5q-27.5 -34.5 -27.5 -132t30 -129.5t108.5 -32t107 32.5t28.5 131.5t-28 131.5t-109.5 32.5t-109 -34.5z" />
    <glyph glyph-name="ordfeminine.smcp" horiz-adv-x="424" 
d="M81 173v18h304v-18h-304zM84 221l150 352h16l132 -352h-19l-43 115h-168l-48 -115h-20zM159 354h155l-72 195z" />
    <glyph glyph-name="Euro.smcp" horiz-adv-x="512" 
d="M283 577q54 0 181 -23v-12q-117 11 -181 11q-169 0 -169 -204l186 -6v-11l-186 -5v-94l186 -5v-12q-12 0 -31.5 -0.5t-60.5 -1.5q-96 -2 -94 -4q0 -87 45.5 -139t123.5 -52q72 0 156 12l28 4v-12q-98 -28 -183 -28t-139.5 54t-54.5 161l-68 6v10l68 7v94l-68 6v9l68 7
q0 228 193 228z" />
    <glyph glyph-name="lcaron.smcp" horiz-adv-x="519" 
d="M108 86v484h24v-479q0 -67 68 -67h280v-24h-286q-40 0 -63 22.5t-23 63.5zM217 610h25v-67l-6 -134h-12l-7 134v67z" />
    <glyph glyph-name="sacute.smcp" horiz-adv-x="534" 
d="M265 639l121 133h26l-133 -133h-14zM74 374v67q0 65 32 98.5t106 33.5q121 0 233 -15v-14q-135 6 -233 6q-59 0 -86.5 -26t-27.5 -83v-67q0 -41 19 -64q12 -16 55 -18h40h130q67 0 98.5 -24.5t31.5 -79.5v-70q0 -128 -130 -128q-197 0 -246 16v14q150 -6 246 -6
q56 0 81 30t25 74v70q0 44 -25 62t-81 18h-130q-78 0 -108 19.5t-30 86.5z" />
    <glyph glyph-name="scedilla.smcp" horiz-adv-x="534" 
d="M264 -141q13 12 17 34.5t4 40.5v25h17q0 -77 -20 -106.5t-81 -29.5h-30v7l32 5q24 4 36 8t25 16zM74 374v67q0 65 32 98.5t106 33.5q121 0 233 -15v-14q-135 6 -233 6q-59 0 -86.5 -26t-27.5 -83v-67q0 -41 19 -64q12 -16 55 -18h40h130q67 0 98.5 -24.5t31.5 -79.5v-70
q0 -128 -130 -128q-197 0 -246 16v14q150 -6 246 -6q56 0 81 30t25 74v70q0 44 -25 62t-81 18h-130q-78 0 -108 19.5t-30 86.5z" />
    <glyph glyph-name="tcaron.smcp" horiz-adv-x="542" 
d="M148 773h16l113 -115l125 115h18l-132 -130h-22zM47 546v24h456v-24h-216v-546h-24v546h-216z" />
    <glyph glyph-name="zacute.smcp" horiz-adv-x="502" 
d="M248 630l121 133h26l-133 -133h-14zM47 0v24l387 522h-387v24h416v-24l-384 -522h384v-24h-416z" />
    <glyph glyph-name="zdotaccent.smcp" horiz-adv-x="502" 
d="M238 642v62q0 12 12 12h10q12 0 12 -12v-62q0 -12 -12 -12h-10q-12 0 -12 12zM47 0v24l387 522h-387v24h416v-24l-384 -522h384v-24h-416z" />
    <glyph glyph-name="racute.smcp" horiz-adv-x="526" 
d="M277 631l121 133h26l-133 -133h-14zM81 0v571h252q53 0 99 -31q24 -16 39 -50.5t15 -81.5q0 -72 -41 -112.5t-98 -40.5l140 -255h-29l-138 254q-11 1 -66 3q-149 5 -149 7v-264h-24zM105 278h238q39 0 79 30.5t40 101t-39 104t-90 33.5h-228v-269z" />
    <glyph glyph-name="abreve.smcp" horiz-adv-x="577" 
d="M187 744h14q0 -42 29 -71t68 -29q46 0 75.5 28.5t29.5 71.5h14q0 -53 -35.5 -83.5t-80 -30.5t-79.5 31.5t-35 82.5zM47 0l243 570h24l224 -570h-26l-72 182h-290l-77 -182h-26zM161 206h271l-130 335z" />
    <glyph glyph-name="lacute.smcp" horiz-adv-x="519" 
d="M112 630l121 133h26l-133 -133h-14zM108 86v484h24v-479q0 -67 68 -67h280v-24h-286q-40 0 -63 22.5t-23 63.5z" />
    <glyph glyph-name="cacute.smcp" horiz-adv-x="533" 
d="M271 643l121 133h26l-133 -133h-14zM77.5 209.5q-3.5 37.5 -3.5 91t8.5 100t29.5 88.5q44 88 166 88q39 0 110 -6t106 -14v-14q-12 2 -90.5 6t-125.5 4q-92 0 -136 -63t-44 -200.5t42.5 -204t137.5 -66.5l216 10v-14q-105 -20 -216 -20q-52 0 -90.5 18.5t-60 46.5t-34 70
t-16 79.5z" />
    <glyph glyph-name="ecaron.smcp" horiz-adv-x="530" 
d="M169 761h16l113 -115l125 115h18l-132 -130h-22zM108 83v398q0 90 104 90l267 -9v-14h-265q-47 0 -64.5 -18t-17.5 -48v-184l316 -6v-14l-316 -6v-187q0 -27 13.5 -42.5t24.5 -18t22 -2.5h287v-13l-287 -11q-38 0 -61 23t-23 62z" />
    <glyph glyph-name="dcaron.smcp" horiz-adv-x="605" 
d="M188 762h16l113 -115l125 115h18l-132 -130h-22zM108 0v572h227q63 -1 108 -28t68 -72q43 -84 43 -189q0 -165 -68 -230q-22 -21 -39.5 -31t-42.5 -16q-30 -6 -69 -6h-227zM132 24h203q108 0 151.5 68t43.5 198t-57.5 194t-137.5 64h-203v-524z" />
    <glyph glyph-name="nacute.smcp" horiz-adv-x="619" 
d="M322 631l122 133h26l-134 -133h-14zM108 0v571h21l399 -527v527h23v-571h-20l-399 528v-528h-24z" />
    <glyph glyph-name="ncaron.smcp" horiz-adv-x="619" 
d="M194 761h16l112 -115l126 115h18l-132 -130h-22zM108 0v571h21l399 -527v527h23v-571h-20l-399 528v-528h-24z" />
    <glyph glyph-name="ohungarumlaut.smcp" horiz-adv-x="605" 
d="M232 635l120 133h26l-132 -133h-14zM370 635l122 133h26l-134 -133h-14zM87 131q-13 57 -13 163.5t25 171t73 87t126 22.5t117.5 -9t71 -39t44 -87.5t12.5 -165.5t-25 -172t-73 -85.5t-125.5 -21.5t-117 9.5t-71 39.5t-44.5 87zM98 275q0 -105 20 -160t63 -75.5
t127 -20.5q125 0 168 55.5t43 188.5q0 98 -9.5 152.5t-33.5 85.5t-62 40.5t-112.5 9.5t-117.5 -20.5t-64.5 -78t-21.5 -167.5v-10z" />
    <glyph glyph-name="rcaron.smcp" horiz-adv-x="526" 
d="M148 761h16l113 -115l125 115h18l-132 -130h-22zM81 0v571h252q53 0 99 -31q24 -16 39 -50.5t15 -81.5q0 -72 -41 -112.5t-98 -40.5l140 -255h-29l-138 254q-11 1 -66 3q-149 5 -149 7v-264h-24zM105 278h238q39 0 79 30.5t40 101t-39 104t-90 33.5h-228v-269z" />
    <glyph glyph-name="uring.smcp" horiz-adv-x="628" 
d="M232 736q0 24 14 47.5t37.5 37.5t58 14t63.5 -30t29 -73t-29 -72.5t-71 -29.5t-72 29.5t-30 76.5zM246 732q0 -36 26 -61.5t62 -25.5t61 25.5t25 61.5t-25 62t-61 26t-62 -26t-26 -62zM107 260v310h25v-310q0 -138 46.5 -189.5t154 -51.5t155 54t47.5 187v310h25v-310
q0 -166 -68 -220q-34 -27 -69.5 -36t-83 -9t-77.5 4.5t-62 20t-50 43.5q-43 64 -43 197z" />
    <glyph glyph-name="uhungarumlaut.smcp" horiz-adv-x="628" 
d="M257 630l121 133h26l-133 -133h-14zM396 630l121 133h26l-133 -133h-14zM107 260v310h25v-310q0 -138 46.5 -189.5t154 -51.5t155 54t47.5 187v310h25v-310q0 -166 -68 -220q-34 -27 -69.5 -36t-83 -9t-77.5 4.5t-62 20t-50 43.5q-43 64 -43 197z" />
    <glyph glyph-name="tcommaaccent.smcp" horiz-adv-x="542" 
d="M246 -147q13 12 17 34.5t4 40.5v25h17q0 -77 -20 -106.5t-81 -29.5h-30v7l32 5q24 4 36 8t25 16zM47 546v24h456v-24h-216v-546h-24v546h-216z" />
    <glyph glyph-name="lslash.smcp" horiz-adv-x="519" 
d="M108 570h24v-244l116 48l-1 -18l-115 -48v-217q0 -67 68 -67h280v-24h-286q-40 0 -63 22.5t-23 63.5v212l-59 -25v18l59 25v254z" />
    <glyph glyph-name="questiondown.smcp" horiz-adv-x="514" 
d="M76 146v52q0 131 160 131q26 0 57 -4v81h26v-102h-67q-111 0 -140 -50q-12 -23 -12 -56v-52q0 -75 43.5 -98t142.5 -23h182v-15q-87 -10 -195.5 -10t-152.5 35t-44 111zM289 496v62q0 12 11 12h12q12 0 12 -12v-62q0 -12 -12 -12h-12q-11 0 -11 12z" />
    <glyph glyph-name="oe.smcp" horiz-adv-x="909" 
d="M67 131q-13 57 -13 163.5t25 171t73 87t137.5 22.5t138 -20t71.5 -80q0 96 104 96l257 -9v-14h-255q-47 0 -64.5 -18t-17.5 -48v-184l306 -6v-14l-306 -6v-187q0 -27 13.5 -42.5t24.5 -18t22 -2.5h277v-13l-277 -11q-44 0 -64.5 26.5t-20.5 62.5q0 7 1 14
q-20 -57 -72 -81.5t-128.5 -24.5t-116 9.5t-71 39.5t-44.5 87zM88.5 420.5q-10.5 -51.5 -10.5 -149.5t20 -154.5t63 -77t127 -20.5q124 0 167.5 57.5t43.5 210.5q0 113 -19 168.5t-62 75.5t-117 20t-111 -10.5t-64 -39.5t-37.5 -80.5z" />
    <glyph glyph-name="ydieresis.smcp" horiz-adv-x="562" 
d="M140 648q0 8 5 12.5t12.5 4.5t12 -4.5t4.5 -12.5t-4.5 -13t-12 -5t-12.5 5t-5 13zM394 647.5q0 7.5 5.5 12.5t13 5t12.5 -4.5t5 -12.5t-5 -13t-12.5 -5t-13 5t-5.5 12.5zM298 -1h-24v191l-227 380h29l210 -354l208 354h29l-225 -380v-191z" />
    <glyph glyph-name="sterling.smcp" horiz-adv-x="550" 
d="M68 0v14l56 6v251h-56v14l56 6v100q0 180 196 180l164 -10v-12h-162q-174 0 -174 -160v-97l274 -9v-14h-274v-246h336v-23h-416z" />
    <glyph glyph-name="yen.smcp" horiz-adv-x="492" 
d="M439 258v-18h-181v-71h181v-18h-181v-151h-24v151h-173v18h173v71h-173v18h165l-199 313h26l194 -301l190 301h28l-198 -313h172z" />
    <glyph glyph-name="perthousand.smcp" horiz-adv-x="1132" 
d="M39 384v63q0 66 28 95.5t101 29.5h46q71 0 99 -29.5t28 -95.5v-63q0 -66 -28 -95.5t-101 -29.5h-46q-71 0 -99 29.5t-28 95.5zM54 384q0 -63 26 -86.5t86 -23.5h46q61 0 87.5 23t26.5 87v63q0 60 -24.5 85t-87.5 25h-46q-62 0 -88 -23t-26 -87v-63zM204 0l338 570h21
l-338 -570h-21zM431 126v63q0 66 28 95.5t101 29.5h46q71 0 99 -29.5t28 -95.5v-63q0 -66 -28 -95.5t-101 -29.5h-46q-71 0 -99 29.5t-28 95.5zM446 126q0 -63 26 -86.5t86 -23.5h46q61 0 87.5 23t26.5 87v63q0 60 -24.5 85t-87.5 25h-46q-62 0 -88 -23t-26 -87v-63z
M778 126v63q0 66 28 95.5t101 29.5h46q71 0 99 -29.5t28 -95.5v-63q0 -66 -28 -95.5t-101 -29.5h-46q-71 0 -99 29.5t-28 95.5zM793 126q0 -63 26 -86.5t86 -23.5h46q61 0 87.5 23t26.5 87v63q0 60 -24.5 85t-87.5 25h-46q-62 0 -88 -23t-26 -87v-63z" />
    <glyph glyph-name="circumflex.smcp" horiz-adv-x="407" 
d="M68 531l132 130h20l119 -130h-17l-112 115l-124 -115h-18z" />
    <glyph glyph-name="tilde.smcp" horiz-adv-x="473" 
d="M175 630q19 0 64.5 -36.5t60.5 -36.5q36 0 100 53l6 -7q-20 -20 -34 -31q-35 -31 -72 -31q-22 0 -66.5 36.5t-56 36.5t-19 -1t-15.5 -4.5t-13 -5.5t-15 -8.5t-13.5 -9t-15 -11t-14.5 -10.5l-4 8q42 36 65 47t42 11z" />
    <glyph glyph-name="ring.smcp" horiz-adv-x="338" 
d="M68 632q0 43 30 73t72 30t71 -30t29 -73t-29 -72.5t-71 -29.5t-72 29.5t-30 72.5zM82 632q0 -36 26 -61.5t62 -25.5t61 25.5t25 61.5t-25 62t-61 26t-62 -26t-26 -62z" />
    <glyph glyph-name="hbar.smcp" horiz-adv-x="605" 
d="M58 419v11h50v140h24v-140h380v140h24v-140h54v-11h-54v-420h-24v264h-380v-264h-24v420h-50zM132 287h380v132h-380v-132z" />
    <glyph glyph-name="hcircumflex.smcp" horiz-adv-x="605" 
d="M186 630l132 130h20l120 -130h-18l-112 115l-124 -115h-18zM108 -1v571h24v-283h381v283h24v-571h-24v264h-381v-264h-24z" />
    <glyph glyph-name="gbreve.smcp" horiz-adv-x="574" 
d="M172 753h14q0 -42 29 -71t68 -29q46 0 75.5 28.5t29.5 71.5h14q0 -53 -35.5 -83.5t-80 -30.5t-79.5 31.5t-35 82.5zM74 286q0 149 45.5 221t159.5 72t219 -25v-14q-155 15 -211 15q-102 0 -145.5 -59.5t-43.5 -199t50 -209.5t139 -70q54 0 116.5 22t84.5 39v209h-198v14
q104 10 145 10t77 -3v-308h-14l-10 54q-40 -26 -98 -43.5t-101.5 -17.5t-78 14t-56.5 34.5t-38 51t-23.5 56.5t-12.5 57q-6 45 -6 80z" />
    <glyph glyph-name="jcircumflex.smcp" horiz-adv-x="332" 
d="M110 630l132 130h20l120 -130h-18l-112 115l-124 -115h-18zM51 34q54 -13 72.5 -13t39 2t37 16.5t28.5 47t12 82.5v401h24v-401q0 -114 -53 -153q-32 -19 -69 -19q-48 0 -95 23z" />
    <glyph glyph-name="cdotaccent.smcp" horiz-adv-x="533" 
d="M280 655v62q0 12 12 12h12q12 0 12 -12v-62q0 -12 -12 -12h-12q-12 0 -12 12zM77.5 209.5q-3.5 37.5 -3.5 91t8.5 100t29.5 88.5q44 88 166 88q39 0 110 -6t106 -14v-14q-12 2 -90.5 6t-125.5 4q-92 0 -136 -63t-44 -200.5t42.5 -204t137.5 -66.5l216 10v-14
q-105 -20 -216 -20q-52 0 -90.5 18.5t-60 46.5t-34 70t-16 79.5z" />
    <glyph glyph-name="ccircumflex.smcp" horiz-adv-x="533" 
d="M170 643l132 130h20l120 -130h-18l-112 115l-124 -115h-18zM77.5 209.5q-3.5 37.5 -3.5 91t8.5 100t29.5 88.5q44 88 166 88q39 0 110 -6t106 -14v-14q-12 2 -90.5 6t-125.5 4q-92 0 -136 -63t-44 -200.5t42.5 -204t137.5 -66.5l216 10v-14q-105 -20 -216 -20
q-52 0 -90.5 18.5t-60 46.5t-34 70t-16 79.5z" />
    <glyph glyph-name="gdotaccent.smcp" horiz-adv-x="574" 
d="M284 651v62q0 12 12 12h10q12 0 12 -12v-62q0 -12 -12 -12h-10q-12 0 -12 12zM74 286q0 149 45.5 221t159.5 72t219 -25v-14q-155 15 -211 15q-102 0 -145.5 -59.5t-43.5 -199t50 -209.5t139 -70q54 0 116.5 22t84.5 39v209h-198v14q104 10 145 10t77 -3v-308h-14l-10 54
q-40 -26 -98 -43.5t-101.5 -17.5t-78 14t-56.5 34.5t-38 51t-23.5 56.5t-12.5 57q-6 45 -6 80z" />
    <glyph glyph-name="gcircumflex.smcp" horiz-adv-x="574" 
d="M171 639l132 130h20l120 -130h-18l-112 115l-124 -115h-18zM74 286q0 149 45.5 221t159.5 72t219 -25v-14q-155 15 -211 15q-102 0 -145.5 -59.5t-43.5 -199t50 -209.5t139 -70q54 0 116.5 22t84.5 39v209h-198v14q104 10 145 10t77 -3v-308h-14l-10 54
q-40 -26 -98 -43.5t-101.5 -17.5t-78 14t-56.5 34.5t-38 51t-23.5 56.5t-12.5 57q-6 45 -6 80z" />
    <glyph glyph-name="ubreve.smcp" horiz-adv-x="628" 
d="M218 744h14q0 -42 29.5 -71t68.5 -29q46 0 75 28.5t29 71.5h14q0 -55 -37 -86q-35 -28 -79 -28t-79 31.5t-35 82.5zM107 260v310h25v-310q0 -138 46.5 -189.5t154 -51.5t155 54t47.5 187v310h25v-310q0 -166 -68 -220q-34 -27 -69.5 -36t-83 -9t-77.5 4.5t-62 20
t-50 43.5q-43 64 -43 197z" />
    <glyph glyph-name="scircumflex.smcp" horiz-adv-x="534" 
d="M126 633l132 130h20l120 -130h-18l-112 115l-124 -115h-18zM74 374v67q0 65 32 98.5t106 33.5q121 0 233 -15v-14q-135 6 -233 6q-59 0 -86.5 -26t-27.5 -83v-67q0 -41 19 -64q12 -16 55 -18h40h130q67 0 98.5 -24.5t31.5 -79.5v-70q0 -128 -130 -128q-197 0 -246 16v14
q150 -6 246 -6q56 0 81 30t25 74v70q0 44 -25 62t-81 18h-130q-78 0 -108 19.5t-30 86.5z" />
    <glyph glyph-name="Idotaccent.smcp" horiz-adv-x="195" 
d="M113 0v570h24v-570h-24zM107 684v62q0 12 12 12h11q12 0 12 -12v-62q0 -12 -12 -12h-11q-12 0 -12 12z" />
    <glyph glyph-name="periodcentered.smcp" horiz-adv-x="264" 
d="M120 320v12q0 12 12 12h12q11 0 11 -12v-12q0 -12 -11 -12h-12q-12 0 -12 12z" />
    <glyph glyph-name="bullet.smcp" horiz-adv-x="321" 
d="M115 306v30q0 35 33 35h24q35 0 35 -35v-30q0 -32 -35 -32h-24q-33 0 -33 32z" />
    <glyph glyph-name="quoteleft.smcp" horiz-adv-x="168" 
d="M64 531q0 22 9 31t14 8.5t14 -1.5v-7q-18 1 -18 -19v-37h6q7 0 11.5 -4.5t4.5 -11.5v-63q0 -16 -16 -16h-11q-14 0 -14 16v104z" />
    <glyph glyph-name="quoteright.smcp" horiz-adv-x="168" 
d="M105 449q0 -22 -8.5 -30.5t-14 -8.5t-15.5 2v7q18 -1 18 18v38h-6q-15 0 -15 15v64q0 16 15 16h11q15 0 15 -16v-105z" />
    <glyph glyph-name="uni1E03.smcp" horiz-adv-x="550" 
d="M281 643v62q0 12 12 12h11q12 0 12 -12v-62q0 -12 -12 -12h-11q-12 0 -12 12zM108 0v571h234q84 0 119 -43.5t35 -104.5q0 -104 -102 -131q19 0 58 -31q19 -15 33 -43.5t14 -62.5q0 -72 -34.5 -113.5t-122.5 -41.5h-234zM132 25h210q95 0 121 60q12 28 12 77t-40.5 84
t-92.5 35h-210v-256zM132 305h210q54 0 92 29.5t38 88.5q0 124 -130 124h-210v-242z" />
    <glyph glyph-name="uni1E0B.smcp" horiz-adv-x="616" 
d="M298 644v62q0 12 12 12h10q12 0 12 -12v-62q0 -12 -12 -12h-10q-12 0 -12 12zM108 0v572h227q63 -1 108 -28t68 -72q43 -84 43 -189q0 -165 -68 -230q-22 -21 -39.5 -31t-42.5 -16q-30 -6 -69 -6h-227zM132 24h203q108 0 151.5 68t43.5 198t-57.5 194t-137.5 64h-203
v-524z" />
    <glyph glyph-name="uni1E1F.smcp" horiz-adv-x="530" 
d="M284 643v62q0 12 12 12h12q12 0 12 -12v-62q0 -12 -12 -12h-12q-12 0 -12 12zM108 0v481q0 90 104 90l267 -9v-14h-265q-47 0 -64.5 -18t-17.5 -48v-184l316 -6v-14l-316 -6v-272h-24z" />
    <glyph glyph-name="uni1E41.smcp" horiz-adv-x="739" 
d="M360 643v62q0 12 12 12h12q12 0 12 -12v-62q0 -12 -12 -12h-12q-12 0 -12 12zM74 0l72 571h20l213 -526l215 526h16l67 -571h-24l-59 509l-208 -509h-14l-210 519l-65 -519h-23z" />
    <glyph glyph-name="wgrave.smcp" horiz-adv-x="825" 
d="M276 763h26l122 -133h-14zM47 570h27l198 -533l195 533h26l-62 -170l134 -363l195 533h26l-209 -570h-22l-138 363l-133 -363h-22z" />
    <glyph glyph-name="uni1E57.smcp" horiz-adv-x="535" 
d="M261 641v62q0 12 12 12h11q12 0 12 -12v-62q0 -12 -12 -12h-11q-12 0 -12 12zM81 0v569h251q64 0 108 -35.5t44 -116.5q0 -48 -10.5 -81.5t-23.5 -50t-36.5 -25.5t-38.5 -10.5t-27.5 -1.5h-16h-6.5l-220 9v-257h-24zM105 272h227q67 0 97.5 28.5t30.5 103.5
q0 141 -128 141h-227v-273z" />
    <glyph glyph-name="wacute.smcp" horiz-adv-x="825" 
d="M410 630l120 133h26l-132 -133h-14zM47 570h27l198 -533l195 533h26l-62 -170l134 -363l195 533h26l-209 -570h-22l-138 363l-133 -363h-22z" />
    <glyph glyph-name="ygrave.smcp" horiz-adv-x="562" 
d="M145 763h26l121 -133h-14zM298 -1h-24v191l-227 380h29l210 -354l208 354h29l-225 -380v-191z" />
    <glyph glyph-name="wdieresis.smcp" horiz-adv-x="825" 
d="M289 630q-17 0 -17 17.5t17 17.5t17 -17.5t-17 -17.5zM526 648q0 17 17.5 17t17.5 -17.5t-17 -17.5q-8 0 -13 5t-5 13zM47 570h27l198 -533l195 533h26l-62 -170l134 -363l195 533h26l-209 -570h-22l-138 363l-133 -363h-22z" />
    <glyph glyph-name="uni1E61.smcp" horiz-adv-x="534" 
d="M254 645v62q0 12 12 12h12q12 0 12 -12v-62q0 -12 -12 -12h-12q-12 0 -12 12zM74 374v67q0 65 32 98.5t106 33.5q121 0 233 -15v-14q-135 6 -233 6q-59 0 -86.5 -26t-27.5 -83v-67q0 -41 19 -64q12 -16 55 -18h40h130q67 0 98.5 -24.5t31.5 -79.5v-70q0 -128 -130 -128
q-197 0 -246 16v14q150 -6 246 -6q56 0 81 30t25 74v70q0 44 -25 62t-81 18h-130q-78 0 -108 19.5t-30 86.5z" />
    <glyph glyph-name="wcircumflex.smcp" horiz-adv-x="825" 
d="M280 630l132 130h20l120 -130h-18l-112 115l-124 -115h-18zM47 570h27l198 -533l195 533h26l-62 -170l134 -363l195 533h26l-209 -570h-22l-138 363l-133 -363h-22z" />
    <glyph glyph-name="uni1E6B.smcp" horiz-adv-x="542" 
d="M256 642v62q0 12 12 12h12q12 0 12 -12v-62q0 -12 -12 -12h-12q-12 0 -12 12zM47 546v24h456v-24h-216v-546h-24v546h-216z" />
    <glyph glyph-name="ycircumflex.smcp" horiz-adv-x="562" 
d="M149 630l132 130h20l120 -130h-18l-112 115l-124 -115h-18zM298 -1h-24v191l-227 380h29l210 -354l208 354h29l-225 -380v-191z" />
    <glyph glyph-name="c_k" horiz-adv-x="958" 
d="M63 148.5q-9 49.5 -9 125.5t12.5 131.5t37.5 83t54 37.5t91.5 10t177.5 -26v-14q-109 16 -172.5 16t-88.5 -9t-46 -35q-42 -49 -42 -206q0 -149 44 -199q22 -25 47 -34.5t60 -9.5q106 0 315 196v567h24v-548l322 297h33l-236 -219l244 -311h-30l-232 293l-101 -93v-201
h-24v180q-110 -96 -181 -140.5t-131 -44.5q-36 0 -60 6t-47.5 23t-38 46t-23.5 78.5z" />
    <glyph glyph-name="N.salt" horiz-adv-x="691" 
d="M108 0v652q0 48 33 72q22 16 40 16q65 0 86 -60l217 -621q14 -43 55 -43q19 0 39 15t21 46v655h24v-653q0 -45 -33 -69q-24 -17 -43 -17q-66 0 -86 58l-217 621q-15 42 -56 42q-17 0 -36.5 -14t-19.5 -50v-650h-24z" />
    <glyph glyph-name="M.salt" horiz-adv-x="809" 
d="M144 724q20 16 37 16q59 0 77 -60l122 -410q10 -30 32 -30q25 0 33 30l109 411q9 31 30 45t33 14t15 -1q24 -3 43.5 -25.5t22.5 -59.5l49 -654h-24l-50 662q-2 31 -18.5 42.5t-27.5 11.5q-39 0 -50 -43l-109 -410q-12 -48 -54.5 -48t-57.5 48l-121 409q-12 44 -48 44
q-14 0 -30 -12.5t-18 -41.5l-42 -662h-23l40 652q0 48 30 72z" />
    <glyph glyph-name="uni1E40.salt" horiz-adv-x="809" 
d="M402 811v62q0 12 12 12h11q12 0 12 -12v-62q0 -12 -12 -12h-11q-12 0 -12 12zM144 724q20 16 37 16q59 0 77 -60l122 -410q10 -30 32 -30q25 0 33 30l109 411q9 31 30 45t33 14t15 -1q24 -3 43.5 -25.5t22.5 -59.5l49 -654h-24l-50 662q-2 31 -18.5 42.5t-27.5 11.5
q-39 0 -50 -43l-109 -410q-12 -48 -54.5 -48t-57.5 48l-121 409q-12 44 -48 44q-14 0 -30 -12.5t-18 -41.5l-42 -662h-23l40 652q0 48 30 72z" />
    <glyph glyph-name="Ntilde.salt" horiz-adv-x="691" 
d="M314 896q19 0 64.5 -36.5t60.5 -36.5q36 0 100 53l6 -7q-20 -20 -33 -31q-36 -31 -73 -31q-22 0 -66.5 36.5t-56 36.5t-19 -1t-15.5 -4.5t-13 -5.5t-15 -8.5t-13.5 -9t-15 -11t-14.5 -10.5l-4 8q42 36 65 47t42 11zM108 0v652q0 48 33 72q22 16 40 16q65 0 86 -60
l217 -621q14 -43 55 -43q19 0 39 15t21 46v655h24v-653q0 -45 -33 -69q-24 -17 -43 -17q-66 0 -86 58l-217 621q-15 42 -56 42q-17 0 -36.5 -14t-19.5 -50v-650h-24z" />
    <glyph glyph-name="Nacute.salt" horiz-adv-x="691" 
d="M370 797l121 133h26l-133 -133h-14zM108 0v652q0 48 33 72q22 16 40 16q65 0 86 -60l217 -621q14 -43 55 -43q19 0 39 15t21 46v655h24v-653q0 -45 -33 -69q-24 -17 -43 -17q-66 0 -86 58l-217 621q-15 42 -56 42q-17 0 -36.5 -14t-19.5 -50v-650h-24z" />
    <glyph glyph-name="Ncaron.salt" horiz-adv-x="691" 
d="M256 927h16l113 -115l125 115h18l-132 -130h-22zM108 0v652q0 48 33 72q22 16 40 16q65 0 86 -60l217 -621q14 -43 55 -43q19 0 39 15t21 46v655h24v-653q0 -45 -33 -69q-24 -17 -43 -17q-66 0 -86 58l-217 621q-15 42 -56 42q-17 0 -36.5 -14t-19.5 -50v-650h-24z" />
    <glyph glyph-name="Ncommaaccent.salt" horiz-adv-x="691" 
d="M365 -174q0 -16 -7 -22.5t-11 -6.5t-11 1v5q14 0 14 14v42h-5q-11 0 -11 12v55q0 12 11 12h9q11 0 11 -12v-100zM108 0v652q0 48 33 72q22 16 40 16q65 0 86 -60l217 -621q14 -43 55 -43q19 0 39 15t21 46v655h24v-653q0 -45 -33 -69q-24 -17 -43 -17q-66 0 -86 58
l-217 621q-15 42 -56 42q-17 0 -36.5 -14t-19.5 -50v-650h-24z" />
    <glyph glyph-name="zero.numerator" horiz-adv-x="510" 
d="M81 365v255q0 60 30 85t87 25h117q113 0 113 -110v-255q0 -66 -28.5 -88t-84.5 -22h-117q-86 0 -108 51q-9 23 -9 59zM99 369q0 -57 24 -76.5t79 -19.5h109q60 0 79.5 21.5t19.5 74.5v247q0 49 -22.5 72.5t-76.5 23.5h-109q-56 0 -79.5 -21.5t-23.5 -74.5v-247z" />
    <glyph glyph-name="one.numerator" horiz-adv-x="255" 
d="M168 732v-476h-18v458l-128 -46v9l128 55h18z" />
    <glyph glyph-name="two.numerator" horiz-adv-x="411" 
d="M225 738q130 0 130 -136q0 -53 -53 -119q-58 -74 -147 -149q-22 -18 -32.5 -26t-26.5 -21l-17 -13h275v-18h-309v14q15 10 46 36t58.5 49t45 40t42 40.5t39.5 43.5t30 41q30 41 30 79q0 58 -25 89.5t-92 31.5h-177l-1 10l1 1q58 7 183 7z" />
    <glyph glyph-name="three.numerator" horiz-adv-x="437" 
d="M40 715v10q41 8 196 8q62 0 91.5 -30.5t29.5 -79.5v-35q0 -38 -29.5 -63.5t-53.5 -27.5q24 -5 53.5 -31t29.5 -67v-28q0 -58 -28.5 -88.5t-98.5 -30.5q-135 0 -186 11v7h178q63 0 89.5 22.5t26.5 82.5v23q0 42 -34 65.5t-78 24.5l-142 4v10l142 4q48 2 81 24.5t33 58.5
v35q0 91 -106 91h-194z" />
    <glyph glyph-name="four.numerator" horiz-adv-x="409" 
d="M313 441v121l9 48h9v-169h59v-8l-59 -11v-166h-18v166h-287l-4 10l190 298h20l-184 -289h265z" />
    <glyph glyph-name="five.numerator" horiz-adv-x="452" 
d="M207 530l82 -1q58 0 83.5 -23.5t25.5 -76.5v-64q0 -59 -29.5 -86.5t-79.5 -27.5q-173 0 -215 7v12h211q95 0 95 99v56q0 44 -16.5 65t-74.5 21h-110q-34 0 -60 -22.5t-27 -50.5h-18l15 292h295v-18h-279l-12 -232q23 50 114 50z" />
    <glyph glyph-name="six.numerator" horiz-adv-x="472" 
d="M148.5 725.5q19.5 8.5 52.5 9.5t91.5 1t108.5 -7v-12h-205q-59 0 -81.5 -54.5t-23.5 -157.5q64 7 221 7q62 0 83.5 -18.5t21.5 -60.5v-73q0 -52 -28.5 -78.5t-76.5 -26.5h-107q-30 0 -52 9q-80 35 -80 227q0 153 38 203q18 23 37.5 31.5zM91 494q0 -125 28.5 -173
t85.5 -48h106q88 0 88 87v72q0 39 -20.5 50.5t-67.5 11.5h-220z" />
    <glyph glyph-name="seven.numerator" horiz-adv-x="378" 
d="M20 714v18h327l10 -15l-183 -461h-18l181 458h-317z" />
    <glyph glyph-name="eight.numerator" horiz-adv-x="510" 
d="M89 358v58q0 33 24.5 54t48.5 22q-38 7 -55.5 31.5t-17.5 54.5v40q0 65 30.5 91t85.5 26h110q54 0 81 -27t27 -90v-40q0 -29 -19 -53t-52 -27q27 -5 49 -27.5t22 -54.5v-58q0 -104 -105 -104h-120q-63 0 -86 28t-23 76zM107 362q0 -49 21.5 -69.5t73.5 -20.5h112
q46 0 68.5 20.5t22.5 69.5v50q0 36 -26.5 55.5t-53.5 19.5h-125q-40 0 -66.5 -20.5t-26.5 -52.5v-52zM107 582q0 -38 23.5 -57.5t59.5 -19.5h131q33 0 58.5 20.5t25.5 56.5v32q0 60 -23 81.5t-76 21.5h-97q-53 0 -77.5 -22.5t-24.5 -80.5v-32z" />
    <glyph glyph-name="nine.numerator" horiz-adv-x="472" 
d="M61 558v73q0 52 28.5 78.5t76.5 26.5h107q30 0 52 -10q80 -34 80 -226q0 -153 -38 -202q-18 -24 -37.5 -32.5t-52.5 -9.5t-91.5 -1t-108.5 7v12h205q59 0 81.5 54.5t23.5 157.5q-64 -7 -221 -7q-62 0 -83.5 18.5t-21.5 60.5zM79 559q0 -39 20.5 -50.5t67.5 -11.5h220
q0 125 -28.5 173t-85.5 48h-106q-88 0 -88 -87v-72z" />
    <glyph glyph-name="zero.denominator" horiz-adv-x="510" 
d="M81 110v255q0 60 30 85t87 25h117q113 0 113 -110v-255q0 -66 -28.5 -88t-84.5 -22h-117q-86 0 -108 51q-9 23 -9 59zM99 114q0 -57 24 -76.5t79 -19.5h109q60 0 79.5 21.5t19.5 74.5v247q0 49 -22.5 72.5t-76.5 23.5h-109q-56 0 -79.5 -21.5t-23.5 -74.5v-247z" />
    <glyph glyph-name="one.denominator" horiz-adv-x="255" 
d="M168 477v-476h-18v458l-128 -46v9l128 55h18z" />
    <glyph glyph-name="two.denominator" horiz-adv-x="411" 
d="M225 483q130 0 130 -136q0 -53 -53 -119q-58 -74 -147 -148q-22 -19 -32.5 -27t-26.5 -21l-17 -13h275v-18h-309v14q15 10 46 36t58.5 49t45 40t42 40.5t39.5 43.5t30 42q30 40 30 78q0 58 -25 89.5t-92 31.5h-177l-1 10l1 1q58 7 183 7z" />
    <glyph glyph-name="three.denominator" horiz-adv-x="437" 
d="M40 460v10q41 8 196 8q62 0 91.5 -30.5t29.5 -79.5v-35q0 -38 -29.5 -63.5t-53.5 -27.5q24 -5 53.5 -31t29.5 -67v-28q0 -58 -28.5 -88.5t-98.5 -30.5q-135 0 -186 11v7h178q63 0 89.5 22.5t26.5 82.5v23q0 42 -34 65.5t-78 24.5l-142 4v10l142 4q48 2 81 24.5t33 58.5
v35q0 91 -106 91h-194z" />
    <glyph glyph-name="four.denominator" horiz-adv-x="409" 
d="M313 186v121l9 48h9v-169h59v-8l-59 -11v-166h-18v166h-287l-4 10l190 298h20l-184 -289h265z" />
    <glyph glyph-name="five.denominator" horiz-adv-x="452" 
d="M207 275l82 -1q58 0 83.5 -23.5t25.5 -76.5v-64q0 -59 -29.5 -86.5t-79.5 -27.5q-173 0 -215 7v12h211q95 0 95 99v56q0 44 -16.5 65t-74.5 21h-110q-34 0 -60 -22.5t-27 -50.5h-18l15 292h295v-18h-279l-12 -232q23 50 114 50z" />
    <glyph glyph-name="six.denominator" horiz-adv-x="472" 
d="M148.5 470.5q19.5 8.5 52.5 9.5t91.5 1t108.5 -7v-12h-205q-59 0 -81.5 -54.5t-23.5 -157.5q64 7 221 7q62 0 83.5 -18.5t21.5 -60.5v-73q0 -52 -28.5 -78.5t-76.5 -26.5h-107q-30 0 -52 10q-80 34 -80 226q0 153 38 202q18 24 37.5 32.5zM91 239q0 -125 28.5 -173
t85.5 -48h106q88 0 88 87v72q0 39 -20.5 50.5t-67.5 11.5h-220z" />
    <glyph glyph-name="seven.denominator" horiz-adv-x="378" 
d="M20 459v18h327l10 -15l-183 -461h-18l181 458h-317z" />
    <glyph glyph-name="eight.denominator" horiz-adv-x="510" 
d="M89 103v58q0 33 24.5 54t48.5 22q-38 7 -55.5 31.5t-17.5 54.5v40q0 65 30.5 91t85.5 26h110q54 0 81 -27t27 -90v-40q0 -29 -19 -53t-52 -27q27 -5 49 -27.5t22 -54.5v-58q0 -104 -105 -104h-120q-63 0 -86 28t-23 76zM107 107q0 -49 21.5 -69.5t73.5 -20.5h112
q46 0 68.5 20.5t22.5 69.5v50q0 36 -26.5 55.5t-53.5 19.5h-125q-40 0 -66.5 -20.5t-26.5 -52.5v-52zM107 327q0 -38 23.5 -57.5t59.5 -19.5h131q33 0 58.5 20.5t25.5 56.5v32q0 60 -23 81.5t-76 21.5h-97q-53 0 -77.5 -22.5t-24.5 -80.5v-32z" />
    <glyph glyph-name="nine.denominator" horiz-adv-x="472" 
d="M61 303v73q0 52 28.5 78.5t76.5 26.5h107q30 0 52 -9q80 -35 80 -227q0 -153 -38 -203q-18 -23 -37.5 -31.5t-52.5 -9.5t-91.5 -1t-108.5 7v12h205q59 0 81.5 54.5t23.5 157.5q-64 -7 -221 -7q-62 0 -83.5 18.5t-21.5 60.5zM79 304q0 -39 20.5 -50.5t67.5 -11.5h220
q0 125 -28.5 173t-85.5 48h-106q-88 0 -88 -87v-72z" />
    <glyph glyph-name="c_h" horiz-adv-x="1040" 
d="M314 -6l-85 1q-43 0 -71.5 10t-53.5 37q-50 54 -50 224q0 168 50 222q25 28 54 38t91.5 10t177.5 -26v-14q-109 16 -172.5 16t-88.5 -9t-46 -35q-42 -49 -42 -206q0 -149 44 -199q22 -25 47 -34.5t60 -9.5l100 -1q64 0 86.5 4t45.5 10t36.5 15t29 23.5t23.5 33.5
q19 45 19 102v578h24v-314q108 71 216 71q76 0 120 -50t44 -120v-370h-24v370q0 65 -37.5 105.5t-101 40.5t-110.5 -14t-107 -47v-250q0 -103 -44 -150q-43 -47 -115 -55q-63 -7 -120 -7z" />
    <glyph glyph-name="m.salt" horiz-adv-x="904" 
d="M81 0v483q45 18 57 23t30 11.5t24 8t20.5 5.5t23.5 4.5t24 2.5q24 2 61 2q73 0 119 -49q74 30 118 39.5t118 9.5t118 -50t44 -120v-370h-24v370q0 61 -38.5 103.5t-101.5 42.5q-114 0 -223 -39q34 -46 34 -107v-370h-24v370q0 61 -38.5 103.5t-101.5 42.5
q-103 0 -216 -42v-474h-24z" />
    <glyph glyph-name="n.salt" 
d="M81 0v483q45 18 57 23t30 11.5t24 8t20.5 5.5t23.5 4.5t24 2.5q24 2 61 2q76 0 120 -50t44 -120v-370h-24v370q0 61 -38.5 103.5t-101.5 42.5q-103 0 -216 -42v-474h-24z" />
    <glyph glyph-name="ntilde.salt" 
d="M221 689q19 0 64.5 -36.5t60.5 -36.5q36 0 100 53l6 -7q-20 -20 -34 -32q-35 -30 -72 -30q-22 0 -66.5 36.5t-56 36.5t-19 -1t-15.5 -4.5t-13 -5.5t-15 -8.5t-13.5 -9t-15 -11t-14.5 -10.5l-4 8q42 36 65 47t42 11zM81 0v483q45 18 57 23t30 11.5t24 8t20.5 5.5t23.5 4.5
t24 2.5q24 2 61 2q76 0 120 -50t44 -120v-370h-24v370q0 61 -38.5 103.5t-101.5 42.5q-103 0 -216 -42v-474h-24z" />
    <glyph glyph-name="ncommaaccent.salt" 
d="M291 -168q0 -16 -7 -22.5t-11 -6.5t-11 1v5q14 0 14 14v42h-5q-11 0 -11 12v55q0 12 11 12h9q11 0 11 -12v-100zM81 0v483q45 18 57 23t30 11.5t24 8t20.5 5.5t23.5 4.5t24 2.5q24 2 61 2q76 0 120 -50t44 -120v-370h-24v370q0 61 -38.5 103.5t-101.5 42.5
q-103 0 -216 -42v-474h-24z" />
    <glyph glyph-name="ncaron.salt" 
d="M147 730h16l113 -115l125 115h18l-132 -130h-22zM81 0v483q45 18 57 23t30 11.5t24 8t20.5 5.5t23.5 4.5t24 2.5q24 2 61 2q76 0 120 -50t44 -120v-370h-24v370q0 61 -38.5 103.5t-101.5 42.5q-103 0 -216 -42v-474h-24z" />
    <glyph glyph-name="nacute.salt" 
d="M276 600l121 133h26l-133 -133h-14zM81 0v483q45 18 57 23t30 11.5t24 8t20.5 5.5t23.5 4.5t24 2.5q24 2 61 2q76 0 120 -50t44 -120v-370h-24v370q0 61 -38.5 103.5t-101.5 42.5q-103 0 -216 -42v-474h-24z" />
    <glyph glyph-name="uni1E41.salt" horiz-adv-x="904" 
d="M434 612v62q0 12 12 12h11q12 0 12 -12v-62q0 -12 -12 -12h-11q-12 0 -12 12zM81 0v483q45 18 57 23t30 11.5t24 8t20.5 5.5t23.5 4.5t24 2.5q24 2 61 2q73 0 119 -49q74 30 118 39.5t118 9.5t118 -50t44 -120v-370h-24v370q0 61 -38.5 103.5t-101.5 42.5
q-114 0 -223 -39q34 -46 34 -107v-370h-24v370q0 61 -38.5 103.5t-101.5 42.5q-103 0 -216 -42v-474h-24z" />
    <glyph glyph-name="r.salt" horiz-adv-x="427" 
d="M81 0v483q48 22 81 34q68 24 169 24q33 0 68 -3v-24q-32 4 -65 4q-113 0 -229 -44v-474h-24z" />
    <glyph glyph-name="racute.salt" horiz-adv-x="427" 
d="M233 601l121 133h26l-133 -133h-14zM81 0v483q48 22 81 34q68 24 169 24q33 0 68 -3v-24q-32 4 -65 4q-113 0 -229 -44v-474h-24z" />
    <glyph glyph-name="rcaron.salt" horiz-adv-x="427" 
d="M104 731h16l113 -115l125 115h18l-132 -130h-22zM81 0v483q48 22 81 34q68 24 169 24q33 0 68 -3v-24q-32 4 -65 4q-113 0 -229 -44v-474h-24z" />
    <glyph glyph-name="rcommaaccent.salt" horiz-adv-x="427" 
d="M99 -169q0 -16 -7 -22.5t-11 -6.5t-11 1v5q14 0 14 14v42h-5q-11 0 -11 12v56q0 11 11 11h9q11 0 11 -11v-101zM73 0v483q48 22 81 34q68 24 169 24q33 0 68 -3v-24q-32 4 -65 4q-113 0 -229 -44v-474h-24z" />
    <glyph glyph-name="x.salt" horiz-adv-x="506" 
d="M187 213q23 30 26 44.5t3 24.5q0 23 -39 70l-150 179h29l133 -156q52 -61 52 -95.5t-37 -84.5l-148 -195h-29zM302 195q-39 51 -39 84.5t54 95.5l133 156h29l-150 -179q-41 -50 -41 -73t31 -66l160 -213h-29z" />
    <glyph glyph-name="X.salt" horiz-adv-x="606" 
d="M264 369q0 53 -45 107l-192 256h29l185 -245q47 -63 47 -125q0 -45 -26 -78l-205 -284h-30l213 295q24 38 24 74zM318 350v24.5t11.5 49.5t35.5 63l185 245h29l-192 -256q-45 -54 -45 -107q0 -36 24 -74l213 -295h-30l-205 284q-23 29 -26 66z" />
    <glyph glyph-name="a.salt" horiz-adv-x="541" 
d="M68 131v64q0 122 136 122h244q0 150 -70 181q-23 11 -39.5 13t-77 2t-183.5 -10v14q114 20 211 20q111 0 147.5 -57t36.5 -208v-116q0 -156 -155 -156h-114q-136 0 -136 131zM92 131q0 -107 112 -107h114q72 0 101 34.5t29 97.5v147l-244 -10q-56 -2 -84 -23t-28 -75v-64
z" />
    <glyph glyph-name="agrave.salt" horiz-adv-x="541" 
d="M151 730h26l121 -133h-14zM68 131v64q0 122 136 122h244q0 150 -70 181q-23 11 -39.5 13t-77 2t-183.5 -10v14q114 20 211 20q111 0 147.5 -57t36.5 -208v-116q0 -156 -155 -156h-114q-136 0 -136 131zM92 131q0 -107 112 -107h114q72 0 101 34.5t29 97.5v147l-244 -10
q-56 -2 -84 -23t-28 -75v-64z" />
    <glyph glyph-name="aacute.salt" horiz-adv-x="541" 
d="M284 597l121 133h26l-133 -133h-14zM68 131v64q0 122 136 122h244q0 150 -70 181q-23 11 -39.5 13t-77 2t-183.5 -10v14q114 20 211 20q111 0 147.5 -57t36.5 -208v-116q0 -156 -155 -156h-114q-136 0 -136 131zM92 131q0 -107 112 -107h114q72 0 101 34.5t29 97.5v147
l-244 -10q-56 -2 -84 -23t-28 -75v-64z" />
    <glyph glyph-name="atilde.salt" horiz-adv-x="541" 
d="M228.5 686q19.5 0 64.5 -36.5t61.5 -36.5t39 11t31 18t29.5 24l6 -7q-21 -20 -34 -32q-36 -30 -72 -30q-18 0 -42.5 18.5t-47.5 36.5t-33.5 18t-18 -1t-16 -4.5t-13.5 -5.5t-14.5 -8.5t-13 -9t-15 -11t-14.5 -10.5l-4 8q41 36 64 47t42.5 11zM68 131v64q0 122 136 122
h244q0 150 -70 181q-23 11 -39.5 13t-77 2t-183.5 -10v14q114 20 211 20q111 0 147.5 -57t36.5 -208v-116q0 -156 -155 -156h-114q-136 0 -136 131zM92 131q0 -107 112 -107h114q72 0 101 34.5t29 97.5v147l-244 -10q-56 -2 -84 -23t-28 -75v-64z" />
    <glyph glyph-name="aring.salt" horiz-adv-x="541" 
d="M190 703q0 24 13.5 48t37 37.5t58.5 13.5t64 -30t29 -73t-29 -72.5t-71 -29.5q-43 0 -72.5 29.5t-29.5 76.5zM204 699q0 -36 26 -61.5t62 -25.5t61 25.5t25 61.5t-25.5 62t-61 26t-61.5 -26t-26 -62zM68 131v64q0 122 136 122h244q0 150 -70 181q-23 11 -39.5 13t-77 2
t-183.5 -10v14q114 20 211 20q111 0 147.5 -57t36.5 -208v-116q0 -156 -155 -156h-114q-136 0 -136 131zM92 131q0 -107 112 -107h114q72 0 101 34.5t29 97.5v147l-244 -10q-56 -2 -84 -23t-28 -75v-64z" />
    <glyph glyph-name="acircumflex.salt" horiz-adv-x="541" 
d="M155 597l132 130h20l120 -130h-18l-112 115l-124 -115h-18zM68 131v64q0 122 136 122h244q0 150 -70 181q-23 11 -39.5 13t-77 2t-183.5 -10v14q114 20 211 20q111 0 147.5 -57t36.5 -208v-116q0 -156 -155 -156h-114q-136 0 -136 131zM92 131q0 -107 112 -107h114
q72 0 101 34.5t29 97.5v147l-244 -10q-56 -2 -84 -23t-28 -75v-64z" />
    <glyph glyph-name="adieresis.salt" horiz-adv-x="541" 
d="M126 615q0 8 5 12.5t12.5 4.5t12 -4.5t4.5 -11t-2 -10.5q-5 -9 -13.5 -9t-13.5 5t-5 13zM380 615q0 7 5.5 12t13 5t12 -4.5t4.5 -11t-2 -10.5q-5 -9 -13.5 -9t-14 5.5t-5.5 12.5zM68 131v64q0 122 136 122h244q0 150 -70 181q-23 11 -39.5 13t-77 2t-183.5 -10v14
q114 20 211 20q111 0 147.5 -57t36.5 -208v-116q0 -156 -155 -156h-114q-136 0 -136 131zM92 131q0 -107 112 -107h114q72 0 101 34.5t29 97.5v147l-244 -10q-56 -2 -84 -23t-28 -75v-64z" />
    <glyph glyph-name="aogonek.salt" horiz-adv-x="566" 
d="M378 -131.5q30 -20.5 73 -20.5h5v-14q-10 -1 -30 -1t-49.5 16t-42.5 45q-5 11 -5 26.5t11 36.5q19 35 72 58h12q-40 -16 -58 -43.5t-18 -55t30 -48zM92 131v64q0 122 136 122h244q0 150 -70 181q-23 11 -39.5 13t-77 2t-183.5 -10v14q114 20 211 20q111 0 147.5 -57
t36.5 -208v-116q0 -156 -155 -156h-114q-136 0 -136 131zM116 131q0 -107 112 -107h114q72 0 101 34.5t29 97.5v147l-244 -10q-56 -2 -84 -23t-28 -75v-64z" />
    <glyph glyph-name="abreve.salt" horiz-adv-x="541" 
d="M166 711h14q0 -42 29 -71t69 -29q45 0 74.5 28.5t29.5 71.5h14q0 -55 -38 -86q-35 -28 -78 -28t-78 30q-36 31 -36 84zM68 131v64q0 122 136 122h244q0 150 -70 181q-23 11 -39.5 13t-77 2t-183.5 -10v14q114 20 211 20q111 0 147.5 -57t36.5 -208v-116q0 -156 -155 -156
h-114q-136 0 -136 131zM92 131q0 -107 112 -107h114q72 0 101 34.5t29 97.5v147l-244 -10q-56 -2 -84 -23t-28 -75v-64z" />
    </font>
</defs>
</svg>
