<?xml version="1.0" standalone="no"?>
<!DOCTYPE svg PUBLIC "-//W3C//DTD SVG 1.1//EN" "http://www.w3.org/Graphics/SVG/1.1/DTD/svg11.dtd" >
<svg xmlns="http://www.w3.org/2000/svg" xmlns:xlink="http://www.w3.org/1999/xlink" version="1.1">
<metadata>
Created by FontForge 20170731 at Sat Feb  4 01:37:00 2012
 By Aleksey,,,
Copyright (c) 2011 Natanael Gama (exo@ndiscovered.com), with Reserved Font Name "Exo"
</metadata>
<defs>
<font id="Exo-Black" horiz-adv-x="555" >
  <font-face 
    font-family="Exo"
    font-weight="900"
    font-stretch="normal"
    units-per-em="1000"
    panose-1="2 0 10 3 0 0 0 0 0 0"
    ascent="800"
    descent="-200"
    x-height="531"
    cap-height="732"
    bbox="-101 -315 1424 1002"
    underline-thickness="50"
    underline-position="-200"
    unicode-range="U+000D-FB06"
  />
<missing-glyph horiz-adv-x="670" 
d="M600 506l-252 -240l252 -241v481zM83 13h507l-253 243zM70 22l256 244l-256 241v-485zM591 518h-511l257 -242zM56 0v531h558v-531h-558z" />
    <glyph glyph-name="fi" unicode="fi" horiz-adv-x="644" 
d="M11 397v117l72 17v29q0 94 63 158q67 68 188 68q52 0 139 -5.5t113 -18.5v-111l-193 1q-82 0 -105 -48q-11 -21 -11 -54v-19l336 -10v-521h-194v397h-142v-397h-194v397h-72z" />
    <glyph glyph-name="fl" unicode="fl" horiz-adv-x="726" 
d="M11 397v117l72 17v39q0 133 68 178q33 22 69.5 30t86.5 8l322 -3v-554q0 -62 17 -81q7 -7 34.5 -21t34.5 -14v-113h-138q-73 0 -107.5 43t-34.5 146v462l-92 1q-37 0 -51.5 -17.5t-14.5 -64.5v-39h98v-134h-98v-397h-194v397h-72z" />
    <glyph glyph-name=".notdef" horiz-adv-x="670" 
d="M600 506l-252 -240l252 -241v481zM83 13h507l-253 243zM70 22l256 244l-256 241v-485zM591 518h-511l257 -242zM56 0v531h558v-531h-558z" />
    <glyph glyph-name=".notdef" horiz-adv-x="670" 
d="M600 506l-252 -240l252 -241v481zM83 13h507l-253 243zM70 22l256 244l-256 241v-485zM591 518h-511l257 -242zM56 0v531h558v-531h-558z" />
    <glyph glyph-name=".null" horiz-adv-x="0" 
 />
    <glyph glyph-name="uni000D" unicode="&#xd;" horiz-adv-x="562" 
 />
    <glyph glyph-name="space" unicode=" " horiz-adv-x="250" 
 />
    <glyph glyph-name="exclam" unicode="!" horiz-adv-x="277" 
d="M54 23v117q0 25 24 25h115q23 0 23 -25v-117q0 -23 -23 -23h-115q-24 0 -24 23zM46 731h184l-21 -535h-146z" />
    <glyph glyph-name="quotedbl" unicode="&#x22;" horiz-adv-x="497" 
d="M48 732h184v-67l-10 -134h-162l-12 134v67zM266 732h184v-67l-10 -134h-164l-10 134v67z" />
    <glyph glyph-name="numbersign" unicode="#" horiz-adv-x="749" 
d="M11 192l20 132h147l16 85h-149l21 132h154l37 191h132l-37 -191h88l36 191h132l-36 -191h167l-19 -132h-168l-16 -86h168l-18 -132h-180l-37 -191h-132l37 191l-89 1l-37 -192h-132l37 192h-142zM310 324l94 -1l16 86h-94z" />
    <glyph glyph-name="dollar" unicode="$" horiz-adv-x="566" 
d="M31 479v61q0 101 55 148t147 50v86h108v-86q86 -4 168 -33v-151q-91 10 -172.5 10t-96.5 -7t-15 -37v-11q0 -26 11 -37t49 -11h64q119 0 165 -103q22 -50 22 -109v-33q0 -220 -195 -224v-82h-108v82q-33 0 -53 2t-25.5 2.5t-15 3t-13.5 3.5t-16 4.5t-15.5 5t-19 6.5
t-21.5 7v151q110 -11 229 -11q32 0 45.5 9.5t13.5 31.5v16q0 23 -11 33.5t-42 10.5h-60q-54 0 -93.5 18t-58.5 42t-31 57q-15 46 -15 95z" />
    <glyph glyph-name="percent" unicode="%" horiz-adv-x="968" 
d="M24 484v113q0 66 33 100.5t106 34.5h101q137 0 137 -135v-113q0 -66 -33 -100.5t-106 -34.5h-101q-137 0 -137 135zM149 514q0 -20 7 -30t30 -10h51q23 0 31 10.5t8 29.5v53q0 24 -8.5 32t-28.5 8h-51q-19 0 -29 -8t-10 -32v-53zM192 0l454 732h124l-447 -732h-131z
M568 138v113q0 66 32.5 100.5t105.5 34.5h102q137 0 137 -135v-113q0 -66 -33 -100.5t-106 -34.5h-102q-136 0 -136 135zM693 168q0 -20 7 -30t30 -10h50q40 0 40 40v53q0 24 -9 32t-29 8h-50q-19 0 -29 -8t-10 -32v-53z" />
    <glyph glyph-name="ampersand" unicode="&#x26;" horiz-adv-x="715" 
d="M493 710v-144h-133q-33 0 -42.5 -10.5t-3 -25.5t25.5 -42l114 -160l128 110l70 -88l-67 -108l-35 -43l153 -199h-228l-61 84l-60 -51q-31 -26 -85 -36q-18 -3 -46 -3t-70 14q-62 20 -98 74q-36 60 -36 117q0 95 87 173l56 50l-42 65q-33 48 -33 93q0 58 38 100t77 49
q54 9 115.5 9t175.5 -28zM224 261q-22 -21 -22 -37.5t14 -34t32 -17.5t36 18l26 27l-56 73z" />
    <glyph glyph-name="quotesingle" unicode="'" horiz-adv-x="256" 
d="M31 732h195v-67l-10 -134h-174l-11 134v67z" />
    <glyph glyph-name="parenleft" unicode="(" horiz-adv-x="413" 
d="M62.5 118q-20.5 97 -20.5 203.5t19.5 199.5t46.5 152q57 121 104 167l19 20h171q-21 -31 -53.5 -96.5t-54.5 -125t-40 -145.5t-18 -170.5t17 -172.5t41 -150q51 -128 91 -186l17 -24h-171q-8 6 -20.5 17.5t-45 57t-57.5 101t-45.5 152.5z" />
    <glyph glyph-name="parenright" unicode=")" horiz-adv-x="413" 
d="M159 149q18 89 18 173.5t-17 169.5t-42 148q-50 129 -90 193l-17 27h171q25 -22 61.5 -76.5t61.5 -111t45.5 -150.5t20.5 -185.5t-10.5 -165t-27 -126t-36.5 -97t-41 -72.5q-43 -61 -64 -78l-10 -8h-171q22 28 54 90t54 121t40 148z" />
    <glyph glyph-name="asterisk" unicode="*" horiz-adv-x="418" 
d="M28 566v70l139 19l5 -94zM76 418l25 138l91 -24l-49 -135zM157 722l67 22l61 -126l-88 -34zM176 459l51 79l114 -89l-42 -56zM230 571l119 81l41 -57l-101 -97z" />
    <glyph glyph-name="plus" unicode="+" horiz-adv-x="456" 
d="M20 279v154h130v131h154v-131h132v-154h-132v-131h-154v131h-130z" />
    <glyph glyph-name="comma" unicode="," horiz-adv-x="255" 
d="M48 25v114q0 27 25 27h111q24 0 24 -27v-150q0 -35 -16 -55.5t-37.5 -25.5t-32.5 -5q-35 0 -53 5l-16 4v62q20 -1 25.5 5t5.5 16v5h-11q-25 0 -25 25z" />
    <glyph glyph-name="hyphen" unicode="-" horiz-adv-x="354" 
d="M20 213v154h314v-154h-314z" />
    <glyph glyph-name="period" unicode="." horiz-adv-x="257" 
d="M48 23v117q0 25 24 25h113q25 0 25 -25v-117q0 -23 -25 -23h-113q-24 0 -24 23z" />
    <glyph glyph-name="slash" unicode="/" horiz-adv-x="502" 
d="M11 -72l281 842h199l-281 -842h-199z" />
    <glyph glyph-name="zero" unicode="0" horiz-adv-x="621" 
d="M39 192v338q0 98 50 150t144 52h164q185 0 185 -192v-348q0 -90 -48.5 -141t-137.5 -51h-164q-96 0 -144.5 50t-48.5 142zM233 233q0 -26 10.5 -40t21 -16.5t25.5 -2.5h42q29 0 42.5 10.5t13.5 47.5v268q0 58 -48 58h-57q-50 0 -50 -58v-267z" />
    <glyph glyph-name="one" unicode="1" horiz-adv-x="379" 
d="M334 732v-732h-194v548l-118 -20v123l120 81h192z" />
    <glyph glyph-name="two" unicode="2" horiz-adv-x="582" 
d="M22 567v145q137 30 304 30q113 0 170.5 -65t57.5 -175q0 -98 -84 -198q-40 -47 -65 -72t-61 -58h210v-174h-524v168q88 58 209 170t121 158t-24 58.5t-90 12.5h-224z" />
    <glyph glyph-name="three" unicode="3" horiz-adv-x="575" 
d="M262 -7q-161 0 -239 28l1 147h218q63 0 80.5 7.5t17.5 40.5v9q0 32 -18.5 40t-73.5 11l-163 7v158l163 10q72 3 82 13q12 14 12 36v9q0 36 -28 45q-23 6 -66 6h-231v146q84 29 248 29q39 0 80 -1q85 -2 137 -50t52 -135v-39q0 -116 -84 -146q84 -27 84 -154v-29
q0 -90 -52 -139t-144 -49h-76z" />
    <glyph glyph-name="four" unicode="4" horiz-adv-x="635" 
d="M370 315v134l27 78h167v-212h60v-149l-60 -29v-135h-194v135h-325l-34 87l211 508h208l-157 -417h97z" />
    <glyph glyph-name="five" unicode="5" horiz-adv-x="592" 
d="M251 456q35 22 103 22l38 -2q84 -7 126 -60t42 -136v-94q0 -95 -60 -142.5t-153 -47.5t-151.5 4t-152.5 20v155h264q44 0 53 19q6 13 6 34v31q0 27 -10.5 40t-37.5 13h-44q-24 0 -34 -10.5t-10 -34.5h-186l22 465h463v-174h-274z" />
    <glyph glyph-name="six" unicode="6" horiz-adv-x="597" 
d="M46 223q-9 68 -9 162t14 162.5t39.5 106t53.5 55.5q48 31 156.5 31t240.5 -28v-148h-219q-65 0 -80 -38q-8 -20 -9.5 -37t-1.5 -52q26 14 56 17.5t97 3.5q102 0 141.5 -49t39.5 -140v-91q0 -179 -191 -179h-138q-39 0 -68 9.5t-54.5 35t-42 68.5t-25.5 111zM231 294
q0 -78 15 -99.5t65 -21.5h17q25 0 34 9.5t9 36.5v20q0 35 -6 45t-32 10h-102z" />
    <glyph glyph-name="seven" unicode="7" horiz-adv-x="561" 
d="M17 558v174h481l47 -78l-229 -654h-206l198 558h-291z" />
    <glyph glyph-name="eight" unicode="8" horiz-adv-x="617" 
d="M42 179v53q0 43 17.5 77t56.5 40q-58 31 -69 83q-5 24 -5 67v65q0 173 196 173h156q92 0 137 -40.5t45 -133.5v-44q0 -49 -27 -87q-18 -25 -48 -29q75 -14 75 -142v-76q0 -118 -56 -154q-28 -18 -57 -24.5t-70 -6.5h-155q-112 0 -156 50q-27 31 -32 58q-8 38 -8 71z
M236 210q0 -26 10.5 -36t36.5 -10h52q30 0 38.5 10.5t8.5 35.5v40q0 23 -9 35t-36 12h-54q-29 0 -38 -11.5t-9 -35.5v-40zM236 494q0 -28 10 -36t37 -8h52q31 0 39 9.5t8 34.5v30q0 43 -29 48q-6 1 -18 1h-52q-26 0 -36.5 -8.5t-10.5 -40.5v-30z" />
    <glyph glyph-name="nine" unicode="9" horiz-adv-x="597" 
d="M34 463v91q0 179 191 179h138q39 0 68 -9.5t54.5 -35t42.5 -68.5q34 -90 34 -272q0 -191 -54 -270q-25 -37 -53 -55q-48 -31 -156.5 -31t-240.5 28v148h219q65 0 80 38q8 20 9.5 37t1.5 52q-26 -14 -56 -17.5t-97 -3.5q-102 0 -141.5 49t-39.5 140zM228 493q0 -35 6 -45
t32 -10h102q0 78 -15 99.5t-65 21.5h-17q-25 0 -34 -9.5t-9 -36.5v-20z" />
    <glyph glyph-name="colon" unicode=":" horiz-adv-x="257" 
d="M48 23v117q0 25 24 25h113q25 0 25 -25v-117q0 -23 -25 -23h-113q-24 0 -24 23zM48 389v117q0 25 24 25h113q25 0 25 -25v-117q0 -23 -25 -23h-113q-24 0 -24 23z" />
    <glyph glyph-name="semicolon" unicode=";" horiz-adv-x="257" 
d="M48 25v114q0 27 25 27h111q24 0 24 -27v-150q0 -35 -16 -55.5t-37.5 -25.5t-32.5 -5q-35 0 -53 5l-16 4v62q20 -1 25.5 5t5.5 16v5h-11q-25 0 -25 25zM48 389v117q0 25 24 25h113q25 0 25 -25v-117q0 -23 -25 -23h-113q-24 0 -24 23z" />
    <glyph glyph-name="less" unicode="&#x3c;" horiz-adv-x="431" 
d="M28 266v170l375 130v-170l-185 -43l185 -53v-170z" />
    <glyph glyph-name="equal" unicode="=" horiz-adv-x="467" 
d="M20 162v154h427v-154h-427zM20 381v154h427v-154h-427z" />
    <glyph glyph-name="greater" unicode="&#x3e;" horiz-adv-x="431" 
d="M28 130v170l185 53l-185 43v170l375 -130v-170z" />
    <glyph glyph-name="question" unicode="?" horiz-adv-x="544" 
d="M11 564v145q117 31 240 31q21 0 42 -1q107 0 168 -62t61 -143v-51q0 -108 -45.5 -157.5t-150.5 -49.5h-17v-81h-145v222h92q39 2 56 17t17 53v15q0 62 -87 62h-231zM155 23v117q0 25 24 25h113q25 0 25 -25v-117q0 -23 -25 -23h-113q-24 0 -24 23z" />
    <glyph glyph-name="at" unicode="@" horiz-adv-x="888" 
d="M37 20v268q0 102 56.5 163t181.5 61h173q114 0 154 -42q39 -41 39 -128v-342h-118l-24 54q-58 -63 -129.5 -63t-103 44t-31.5 103v33q0 143 159 143h103q1 15 0 16q0 24 -9.5 31t-34.5 7h-178q-44 0 -69 -18t-25 -72v-238q0 -61 28.5 -87t65.5 -26h319q58 0 80.5 28.5
t22.5 84.5v412q0 57 -28 88t-75 31h-404v117q132 27 306 27h12h86q95 0 166 -55q37 -28 59 -81.5t22 -126.5v-412q0 -136 -61 -197t-176 -61h-329q-103 0 -170.5 56t-67.5 182zM424 135q58 0 73 34v43l-78 -6q-17 -2 -23.5 -7t-6.5 -22q-1 -1 -1 -6t1 -6q0 -16 7.5 -23
t27.5 -7z" />
    <glyph glyph-name="A" unicode="A" horiz-adv-x="711" 
d="M25 0l229 732h229l222 -732h-199l-43 128h-197l-42 -128h-199zM310 293h114l-53 196z" />
    <glyph glyph-name="B" unicode="B" horiz-adv-x="611" 
d="M45 0v732h318q220 0 220 -200q0 -53 -28.5 -100.5t-78.5 -51.5q55 -9 90 -53.5t35 -102.5q0 -120 -57 -172t-176 -52h-323zM239 164h119q27 0 38 17.5t11 52.5q0 72 -49 72h-119v-142zM239 460h109q22 0 33.5 14.5t11.5 36.5q0 57 -45 57h-109v-108z" />
    <glyph glyph-name="C" unicode="C" horiz-adv-x="567" 
d="M548 549q-102 17 -182.5 17t-98.5 -11q-42 -25 -42 -189q0 -124 22.5 -161t97.5 -37q104 0 175 6l28 3v-151q-48 -20 -96 -26t-96 -6h-72q-136 2 -194.5 93.5t-58.5 280t55.5 280.5t197.5 92q104 0 150.5 -7.5t113.5 -32.5v-151z" />
    <glyph glyph-name="D" unicode="D" horiz-adv-x="667" 
d="M45 0v732h343q211 0 242 -250q7 -53 7 -119q0 -190 -61 -276.5t-188 -86.5h-343zM239 164h129q42 0 58.5 46t16.5 143.5t-9.5 143.5t-24.5 58.5t-41 12.5h-129v-404z" />
    <glyph glyph-name="E" unicode="E" horiz-adv-x="567" 
d="M40 161v401q0 170 186 170q210 0 327 -16v-163h-267q-24 0 -36.5 -9.5t-14 -19t-1.5 -27.5v-44l269 -11v-161l-269 -9v-44q0 -38 21 -46q17 -6 41 -6h257v-162q-101 -13 -261 -16l-56 -1h-19.5t-30 1.5t-47 11.5t-49.5 26.5t-35.5 48.5t-14.5 76z" />
    <glyph glyph-name="F" unicode="F" horiz-adv-x="567" 
d="M40 0v558q0 98 62 139q52 35 124 35q210 0 327 -16v-163h-267q-24 0 -36.5 -9.5t-14 -19t-1.5 -27.5v-44l269 -11v-161l-269 -9v-272h-194z" />
    <glyph glyph-name="G" unicode="G" horiz-adv-x="615" 
d="M35.5 249.5q-4.5 51.5 -4.5 131t10.5 142.5t36.5 115q52 102 196 102q122 0 163.5 -5t140.5 -32v-149q-1 0 -15 2.5t-37.5 5.5t-51.5 6q-76 8 -142 8t-86.5 -41.5t-20.5 -167.5t15 -160t79 -34q28 0 46 11.5t22 23.5l4 11v75h-49v120q47 25 175 25q32 0 68 -3v-436h-137
l-55 49q-22 -29 -45 -39q-32 -16 -89.5 -16t-97.5 17.5t-65.5 50t-40.5 84.5t-19.5 103.5z" />
    <glyph glyph-name="H" unicode="H" horiz-adv-x="636" 
d="M45 0v732h194v-291h170v291h194v-732h-194v267h-170v-267h-194z" />
    <glyph glyph-name="I" unicode="I" horiz-adv-x="272" 
d="M45 0v732h194v-732h-194z" />
    <glyph glyph-name="J" unicode="J" horiz-adv-x="355" 
d="M268 18q-37 -22 -120 -22t-128 29v154q40 0 61.5 3.5t32 17t12.5 28t2 48.5v456h194v-567q0 -112 -54 -147z" />
    <glyph glyph-name="K" unicode="K" horiz-adv-x="660" 
d="M45 0v732h184v-288h40l149 288h223l-201 -368l201 -364h-223l-149 280h-39v-280h-185z" />
    <glyph glyph-name="L" unicode="L" horiz-adv-x="526" 
d="M45 156v576h194v-506q0 -38 21 -46q17 -6 41 -6h206v-174h-296q-74 0 -120 38t-46 118z" />
    <glyph glyph-name="M" unicode="M" horiz-adv-x="886" 
d="M31 0l78 732h270l62 -411l66 411h270l79 -732h-191l-50 399l-61 -399h-222l-64 399l-46 -399h-191z" />
    <glyph glyph-name="N" unicode="N" horiz-adv-x="677" 
d="M45 0v732h196l209 -374v374h194v-732h-194l-210 364v-364h-195z" />
    <glyph glyph-name="O" unicode="O" horiz-adv-x="667" 
d="M46.5 218.5q-9.5 60.5 -9.5 137.5t8.5 133.5t22 96t36 67.5t46 44t56.5 25q52 15 113.5 15t92 -3t64 -12t57 -25t45.5 -44t36 -67q29 -87 29 -203.5t-15 -183.5t-39 -106t-65 -61t-82.5 -29t-97 -7t-90 4t-72.5 16.5t-62 37.5t-44 64.5t-29.5 100zM240.5 494
q-9.5 -42 -9.5 -147t19 -141t87 -36t90 38t22 129t-4 128t-16.5 60.5t-32.5 30.5t-61.5 7t-63 -13.5t-31 -55.5z" />
    <glyph glyph-name="P" unicode="P" horiz-adv-x="620" 
d="M44 0v732h326q123 0 176 -62q22 -24 36 -69t14 -109t-15 -113t-37.5 -74.5t-55 -39.5t-53.5 -16t-36 -2t-36 1.5t-71 9.5t-54 10v-268h-194zM238 412h112q51 0 51 77.5t-51 77.5h-112v-155z" />
    <glyph glyph-name="Q" unicode="Q" horiz-adv-x="667" 
d="M46.5 218.5q-9.5 60.5 -9.5 137.5t8.5 133.5t22 96t36 67.5t46 44t56.5 25q52 15 113.5 15t92 -3t64 -12t57 -25t45.5 -44t36 -67q29 -87 29 -225q0 -162 -39 -238q-20 -39 -44.5 -64.5t-61.5 -38.5q-59 -22 -134 -23t-109.5 3t-72.5 16.5t-62 37.5t-44 64.5t-29.5 100z
M240.5 494q-9.5 -42 -9.5 -147t19 -141t87 -36t90 38t22 129t-4 128t-16.5 60.5t-32.5 30.5t-61.5 7t-63 -13.5t-31 -55.5zM286 -33h102q4 -44 77 -44q33 0 81 9v-140q-29 -4 -60 -4q-101 0 -160 63q-40 44 -40 116z" />
    <glyph glyph-name="R" unicode="R" horiz-adv-x="619" 
d="M44 0v732h327q106 0 165 -53.5t59 -181.5q0 -125 -35 -169q-19 -22 -33.5 -31.5t-39.5 -19.5l126 -277h-221l-94 259l-60 14v-273h-194zM239 419h107q35 0 44.5 17t9.5 57t-11.5 57t-42.5 17h-107v-148z" />
    <glyph glyph-name="S" unicode="S" horiz-adv-x="596" 
d="M37 479v61q0 94 54.5 143t143.5 55q39 3 76 3q137 0 234 -36v-151q-91 10 -240 10q-44 0 -59 -7t-15 -37v-11q0 -26 11 -37t49 -11h94q119 0 165 -103q22 -50 22 -109v-33q0 -224 -203 -224q-146 0 -191 4.5t-118 29.5v151q110 -11 259 -11q32 0 45.5 9.5t13.5 31.5v16
q0 23 -11 33.5t-42 10.5h-90q-54 0 -93.5 18t-58.5 42t-31 57q-15 46 -15 95z" />
    <glyph glyph-name="T" unicode="T" horiz-adv-x="607" 
d="M20 558v174h568v-174h-190v-558h-194v558h-184z" />
    <glyph glyph-name="U" unicode="U" horiz-adv-x="655" 
d="M45 320v412h194v-412q0 -102 22 -126q24 -25 75 -25q47 0 70 27q21 22 21 124v412h195v-412q0 -156 -48 -228q-16 -25 -31 -40.5t-38.5 -27t-40 -17t-44.5 -8.5q-36 -4 -61.5 -4h-55.5t-58.5 2t-73 18.5t-67.5 49t-41 97t-18 158.5z" />
    <glyph glyph-name="V" unicode="V" horiz-adv-x="699" 
d="M25 732h204l121 -494l131 494h204l-219 -732h-234z" />
    <glyph glyph-name="W" unicode="W" horiz-adv-x="1018" 
d="M25 732h204l121 -494l91 494h204l-37 -152l102 -342l91 494h204l-179 -732h-234l-67 239l-59 -239h-234z" />
    <glyph glyph-name="X" unicode="X" horiz-adv-x="679" 
d="M25 732h215l105 -203l105 203h215l-223 -369l218 -363h-215l-100 196l-102 -196h-215l219 363z" />
    <glyph glyph-name="Y" unicode="Y" horiz-adv-x="679" 
d="M434 0h-194v200l-215 532h211l105 -324l113 324h211l-231 -532v-200z" />
    <glyph glyph-name="Z" unicode="Z" horiz-adv-x="552" 
d="M20 0v174l286 384h-286v174h513v-174l-256 -384h256v-174h-513z" />
    <glyph glyph-name="bracketleft" unicode="[" horiz-adv-x="344" 
d="M48 12v628q0 101 47 151.5t149 50.5h90v-154h-30q-30 0 -46 -17.5t-16 -60.5v-588q0 -43 16 -60.5t46 -17.5h30v-154h-90q-196 0 -196 222z" />
    <glyph glyph-name="backslash" unicode="\" horiz-adv-x="502" 
d="M11 770h199l281 -842h-199z" />
    <glyph glyph-name="bracketright" unicode="]" horiz-adv-x="344" 
d="M11 -56h30q30 0 46 17.5t16 60.5v588q0 43 -16 60.5t-46 17.5h-30v154h90q102 0 149 -50.5t47 -151.5v-628q0 -222 -196 -222h-90v154z" />
    <glyph glyph-name="asciicircum" unicode="^" horiz-adv-x="378" 
d="M28 531l100 140h131l91 -140h-111l-49 51l-50 -51h-112z" />
    <glyph glyph-name="underscore" unicode="_" horiz-adv-x="674" 
d="M20 -1v154h634v-154h-634z" />
    <glyph glyph-name="grave" unicode="`" horiz-adv-x="244" 
d="M11 674h145l77 -143h-109z" />
    <glyph glyph-name="a" unicode="a" horiz-adv-x="519" 
d="M22 143v41q0 67 39.5 111.5t134.5 44.5h76.5h25.5q1 6 0.5 14.5t-3.5 18.5t-6.5 15.5t-13.5 7.5q-15 3 -39 3l-196 -11v113q50 24 99.5 32t128.5 8q114 0 169 -39t55 -145v-357h-156l-38 54q-10 -23 -35.5 -41.5t-67.5 -18.5q-49 0 -85 16.5t-54 39.5q-34 45 -34 93z
M248 138h10q18 0 28 8t11 16l1 9v60l-52 -5q-15 -1 -22 -10.5t-7.5 -15.5t-0.5 -19v-6q0 -28 12 -33q3 -1 4 -2q4 -2 16 -2z" />
    <glyph glyph-name="b" unicode="b" horiz-adv-x="559" 
d="M34 0v785h194v-276q57 30 132 30q103 0 137.5 -62.5t34.5 -209.5t-41 -210t-131 -63q-41 0 -69 13.5t-62 41.5l-29 -49h-166zM294 151q24 0 34 23t10 100.5t-10 101.5t-34 24q-51 0 -65 -15v-212q13 -22 65 -22z" />
    <glyph glyph-name="c" unicode="c" horiz-adv-x="490" 
d="M303 -6l-100 1q-175 0 -175 271q0 147 46 208.5t129 61.5h49q116 0 209 -36v-114q-60 6 -120.5 6t-72.5 -1.5t-25.5 -13.5t-17 -38t-3.5 -74t3 -72.5t15.5 -37t26 -14.5t49.5 -2q78 0 134 6l18 2v-114q-54 -39 -165 -39z" />
    <glyph glyph-name="d" unicode="d" horiz-adv-x="559" 
d="M68.5 54.5q-40.5 60.5 -40.5 212t34 212t138 60.5q75 0 132 -30v276h194v-785h-166l-29 49q-34 -28 -62 -41.5t-69 -13.5q-91 0 -131.5 60.5zM232 376q-10 -24 -10 -101.5t10 -100.5t34 -23q52 0 65 22v212q-14 15 -65 15q-24 0 -34 -24z" />
    <glyph glyph-name="e" unicode="e" horiz-adv-x="525" 
d="M493 23q-56 -28 -207 -28h-83q-98 0 -136.5 65t-38.5 192t23.5 184.5t70.5 78t129 20.5t123 -6t73 -27t44 -60t12 -111t-40 -104t-117 -32h-124q0 -30 14 -47q9 -11 42 -11l65 1q75 0 150 11v-126zM280 318q13 0 21 9t8 31t-5.5 32.5t-34 10.5t-38 -13.5t-9.5 -59.5v-10
h58z" />
    <glyph glyph-name="f" unicode="f" horiz-adv-x="407" 
d="M11 397v117l72 17v99q0 87 44.5 121.5t133 34.5t135.5 -24v-111l-73 1q-17 0 -26.5 -2.5t-14.5 -13.5q-5 -12 -5 -66v-39h98v-134h-98v-397h-194v397h-72z" />
    <glyph glyph-name="g" unicode="g" horiz-adv-x="566" 
d="M25 92q0 78 64 104q-59 38 -59 148q0 189 193 189h332v-106l-41 -18q11 -32 11 -101.5t-43.5 -114t-151.5 -44.5h-84.5t-33.5 -0.5t-7.5 -1.5t-5.5 -3q-5 -3 -5 -13t6 -15q7 -6 34 -6h122q180 0 180 -173v-53q0 -154 -180 -154h-150q-75 0 -122.5 39t-47.5 115v53l52 35
q-25 11 -44 41.5t-19 78.5zM231 -85q0 -26 8.5 -33.5t35.5 -7.5h28q31 0 35 10q5 11 5 26v23q0 13 -10.5 22t-28.5 10h-73v-50zM231 378.5q-7 -10.5 -7 -39.5t9.5 -37.5t32.5 -8.5h22q26 0 34.5 8.5t8.5 40t-10.5 39.5t-33.5 8h-24q-25 0 -32 -10.5z" />
    <glyph glyph-name="h" unicode="h" 
d="M34 0v782h193v-303q19 19 34 29.5t45 21t74 10.5t76 -14.5t47 -44.5t20 -61.5t5 -79.5v-340h-194v344q0 30 -8 41t-25 11q-57 0 -73 -37v-359h-194z" />
    <glyph glyph-name="i" unicode="i" horiz-adv-x="252" 
d="M28 604v117q0 25 24 25h150q22 0 22 -25v-117q0 -23 -22 -23h-150q-24 0 -24 23zM29 0v531h194v-531h-194z" />
    <glyph glyph-name="j" unicode="j" horiz-adv-x="264" 
d="M34 604v117q0 25 24 25h150q23 0 23 -25v-117q0 -23 -23 -23h-150q-24 0 -24 23zM36 -270v801h194v-535v-14q0 -172 -46 -252h-148z" />
    <glyph glyph-name="k" unicode="k" horiz-adv-x="605" 
d="M34 0v782h194v-420h20l108 169h238l-169 -236l169 -295h-227l-119 228h-20v-228h-194z" />
    <glyph glyph-name="l" unicode="l" horiz-adv-x="325" 
d="M34 189v594h194v-554q0 -62 17 -81q7 -7 34.5 -21t34.5 -14v-113h-138q-73 0 -107.5 43t-34.5 146z" />
    <glyph glyph-name="m" unicode="m" horiz-adv-x="857" 
d="M527 366l1 -26v-340h-194v344q0 30 -8 41t-25 11q-57 0 -73 -37v-359h-194v531h162l32 -52q24 22 37 31.5t42 19.5t67 10q96 0 130 -61q31 20 49 29.5t52.5 20.5t77.5 11t75 -14.5t47 -44.5t20 -61.5t5 -79.5v-340h-194v344q0 30 -8 41t-25 11q-57 0 -76 -30z" />
    <glyph glyph-name="n" unicode="n" 
d="M34 0v531h162l32 -52q22 21 35.5 31t43 20t73.5 10t76 -14.5t47 -44.5t20 -61.5t5 -79.5v-340h-194v344q0 30 -8 41t-25 11q-57 0 -73 -37v-359h-194z" />
    <glyph glyph-name="o" unicode="o" horiz-adv-x="554" 
d="M83 54.5q-55 59.5 -55 211.5t54.5 211t194.5 59t194.5 -60t54.5 -213.5t-53.5 -210.5t-194 -57t-195.5 59.5zM228.5 372q-6.5 -20 -6.5 -107t8.5 -106.5t47.5 -19.5t46.5 17t7.5 105.5t-7.5 109.5t-48.5 21t-47.5 -20z" />
    <glyph glyph-name="p" unicode="p" horiz-adv-x="559" 
d="M34 -270v801h166l29 -49q34 28 62 41.5t69 13.5q90 0 131 -63.5t41 -205.5q0 -107 -15 -156t-34 -72q-41 -48 -119.5 -48t-135.5 30v-292h-194zM294 131q24 0 34 24t10 101.5t-10 100.5t-34 23q-52 0 -65 -22v-212q14 -15 65 -15z" />
    <glyph glyph-name="q" unicode="q" 
d="M73.5 55q-45.5 65 -45.5 211t52 208.5t143 62.5t175.5 -10t123.5 -26v-771h-194v299q-30 -39 -97 -39q-112 0 -157.5 65zM223 321.5q-1 -16.5 -1 -76t10 -87.5t45.5 -28t50.5 19v254h-47q-41 0 -51 -43q-6 -22 -7 -38.5z" />
    <glyph glyph-name="r" unicode="r" horiz-adv-x="410" 
d="M34 0v531h172l22 -67q14 29 45.5 50.5t66 21.5t50.5 -5v-186h-79q-64 0 -77 -25q-6 -14 -6 -35v-285h-194z" />
    <glyph glyph-name="s" unicode="s" horiz-adv-x="511" 
d="M22 338v46q0 68 33 110t105 42q190 0 238.5 -9t63.5 -27v-114h-224q-15 0 -18.5 -4.5t-3.5 -13.5v-6q0 -14 10 -16h12h100q79 0 114.5 -39.5t35.5 -104.5v-59q0 -76 -38 -112t-92 -36h-66t-96 1t-89.5 9.5t-62.5 26.5v114h232q12 0 15 4t3 13v5q0 10 -3.5 14t-14.5 4h-96
q-73 0 -115.5 38.5t-42.5 113.5z" />
    <glyph glyph-name="t" unicode="t" horiz-adv-x="385" 
d="M11 398v96l75 38l28 148h166v-148h89v-134h-89v-168q0 -49 8.5 -68t27.5 -29q42 -21 49 -21v-113h-150q-63 0 -96 44.5t-33 146.5v208h-75z" />
    <glyph glyph-name="u" unicode="u" 
d="M28 191v340h194v-344q0 -30 8 -41t25 -11q57 0 73 37v359h194v-531h-162l-32 52q-10 -6 -30 -21t-31 -21q-31 -19 -83 -19t-84 14.5t-47 44.5t-20 61.5t-5 79.5z" />
    <glyph glyph-name="v" unicode="v" horiz-adv-x="588" 
d="M11 531h206l75 -322l80 322h205l-176 -531h-224z" />
    <glyph glyph-name="w" unicode="w" horiz-adv-x="847" 
d="M11 531h206l65 -322l60 322h188l-23 -121l65 -201l58 322h207l-146 -531h-224l-48 137l-38 -137h-224z" />
    <glyph glyph-name="x" unicode="x" horiz-adv-x="612" 
d="M14 0l176 266l-176 265h232l59 -122l61 122h232l-179 -268l171 -263h-224l-60 121l-60 -121h-232z" />
    <glyph glyph-name="y" unicode="y" horiz-adv-x="599" 
d="M12 531h201l61 -336q7 -37 43 -39l69 375h197l-143 -699l-71 -102h-144l59 270q-154 0 -189 156z" />
    <glyph glyph-name="z" unicode="z" horiz-adv-x="489" 
d="M17 377v154h456v-154l-181 -222h181v-154h-441v152l197 224h-212z" />
    <glyph glyph-name="braceleft" unicode="{" horiz-adv-x="322" 
d="M71 455v201q0 186 240 186v-154q-31 0 -38.5 -20.5t-7.5 -91.5v-136q0 -53 -26.5 -77.5t-78.5 -28.5q104 -21 104 -103v-199q0 -56 7.5 -77t39.5 -21v-144q-132 0 -186.5 39.5t-54.5 132.5v250q0 53 -52 53h-7v137q60 5 60 53z" />
    <glyph glyph-name="bar" unicode="|" horiz-adv-x="250" 
d="M48 -72v842h154v-842h-154z" />
    <glyph glyph-name="braceright" unicode="}" horiz-adv-x="322" 
d="M11 -66q32 0 39.5 21t7.5 77v199q0 82 104 103q-52 4 -78.5 28.5t-26.5 77.5v136q0 71 -7.5 91.5t-38.5 20.5v154q240 0 240 -186v-201q0 -48 60 -53v-137h-7q-52 0 -52 -53v-250q0 -93 -54.5 -132.5t-186.5 -39.5v144z" />
    <glyph glyph-name="asciitilde" unicode="~" horiz-adv-x="404" 
d="M151 672q23 0 55 -17.5t51 -17.5h7q48 0 86 40l26 -74q-48 -72 -112 -72q-22 0 -59.5 17.5t-56.5 17.5q-48 0 -93 -35l-27 67q51 74 123 74z" />
    <glyph glyph-name="exclamdown" unicode="&#xa1;" horiz-adv-x="282" 
d="M59 323v115q0 21 24 23h114q9 -1 16.5 -8.5t7.5 -17.5v-112q0 -27 -22 -27h-116q-24 0 -24 27zM47 -270l20 535h147l19 -535h-186z" />
    <glyph glyph-name="cent" unicode="&#xa2;" horiz-adv-x="485" 
d="M22 266q0 147 46.5 208.5t129.5 61.5v98h108v-100q84 -7 150 -34v-114q-61 6 -121.5 6t-72.5 -1.5t-25.5 -13.5t-17 -38t-3.5 -74t3 -72.5t15.5 -37t26 -14.5t49.5 -2q78 0 134 6l18 2v-114q-56 -39 -160 -39v-89h-108v90q-172 4 -172 271z" />
    <glyph glyph-name="sterling" unicode="&#xa3;" horiz-adv-x="572" 
d="M28 0v149l62 25v126h-62v95l62 27v43q0 165 73 219q38 28 85.5 38t95.5 10q74 0 168 -12l32 -4v-157h-184q-46 0 -61 -12.5t-15 -59.5v-65l181 -17v-105h-181v-126h259v-174h-515z" />
    <glyph glyph-name="currency" unicode="&#xa4;" horiz-adv-x="437" 
d="M133 441q40 27 86 27t84 -24l45 48l61 -53l-50 -52q20 -35 20 -82.5t-30 -88.5l45 -43l-52 -61l-56 53q-31 -14 -70.5 -14t-77.5 24l-46 -49l-59 56l50 51q-20 38 -20 77t17 71l-51 48l55 59zM158 309q0 -26 18.5 -44.5t44.5 -18.5t44.5 18.5t18.5 44.5t-18.5 45
t-44.5 19t-44.5 -19t-18.5 -45z" />
    <glyph glyph-name="yen" unicode="&#xa5;" horiz-adv-x="662" 
d="M538 351v-99h-118v-25h118v-99h-118v-128h-194v128h-115v99h115v25h-115v99h54l-154 381h211l105 -324l113 324h211l-166 -381h53z" />
    <glyph glyph-name="brokenbar" unicode="&#xa6;" horiz-adv-x="250" 
d="M48 -72v328h154v-328h-154zM48 429v341h154v-341h-154z" />
    <glyph glyph-name="section" unicode="&#xa7;" horiz-adv-x="532" 
d="M32 359q0 84 74 109q-75 36 -75 122v30q0 77 37.5 120.5t112.5 43.5q210 0 284 -19v-135h-214q-26 0 -26 -24v-6q0 -25 28 -25h77q87 0 130 -29t43 -96v-12q0 -99 -72 -123q28 -5 45.5 -27t21.5 -42.5t4 -42.5v-43q0 -90 -40.5 -129t-97.5 -39q-234 0 -296 19v135h214
q16 0 21.5 4.5t5.5 16.5v12q0 21 -28 21h-80q-82 0 -125.5 27.5t-43.5 95.5v36zM225 377q0 -20 8.5 -26.5t27.5 -6.5h10q23 0 30.5 6.5t7.5 27.5v18q0 18 -6.5 26t-31.5 8h-10q-17 0 -25.5 -5.5t-9.5 -11.5t-1 -19v-17z" />
    <glyph glyph-name="dieresis" unicode="&#xa8;" horiz-adv-x="442" 
d="M28 582q0 27 19.5 46t46.5 19t46 -19t19 -46t-19 -46.5t-46 -19.5t-46.5 19.5t-19.5 46.5zM283 582q0 27 19.5 46t46.5 19t46 -19t19 -46t-19 -46.5t-46 -19.5t-46.5 19.5t-19.5 46.5z" />
    <glyph glyph-name="copyright" unicode="&#xa9;" horiz-adv-x="792" 
d="M31 368q0 80 11.5 140.5t40.5 113.5q60 110 225 110h200q148 0 204 -102q50 -93 50 -271t-67.5 -268.5t-186.5 -90.5h-200q-140 0 -208.5 97.5t-68.5 270.5zM188 572.5q-43 -55.5 -43 -192.5q0 -276 163 -276h190q73 0 111.5 59.5t38.5 204.5q0 128 -21 176
q-10 22 -25 42q-29 42 -94 42h-200q-77 0 -120 -55.5zM217 365q0 116 36.5 167t107.5 51q125 0 188 -24v-92q-84 12 -148 12q-41 0 -55.5 -23.5t-14.5 -89.5t18 -90.5t59 -24.5q67 0 147 16v-92q-44 -24 -117 -27q-23 -1 -68 -1q-153 0 -153 218z" />
    <glyph glyph-name="ordfeminine" unicode="&#xaa;" horiz-adv-x="368" 
d="M17 258v78h335v-78h-335zM17 469v26q0 99 120 99h52q21 0 17 4q0 24 -10 28q-12 5 -40 5q-57 0 -112 -7l-15 -2v86q56 30 148.5 30t133.5 -26t41 -96v-238h-116l-30 41q-17 -45 -71 -45q-62 0 -90 30.5t-28 64.5zM151 503v-11q0 -10 4.5 -15.5t8.5 -6t8 -0.5h12t15 5
t7 10v41l-36 -3q-19 0 -19 -20z" />
    <glyph glyph-name="guillemotleft" unicode="&#xab;" horiz-adv-x="607" 
d="M28 354l206 203l97 -95l-110 -108l111 -110l-93 -98zM275 354l206 203l97 -95l-110 -108l111 -110l-93 -98z" />
    <glyph glyph-name="logicalnot" unicode="&#xac;" horiz-adv-x="467" 
d="M20 226v144h427v-211h-144v67h-283z" />
    <glyph glyph-name="uni00AD" unicode="&#xad;" horiz-adv-x="354" 
d="M20 213v154h314v-154h-314z" />
    <glyph glyph-name="registered" unicode="&#xae;" horiz-adv-x="792" 
d="M31 368q0 80 11.5 140.5t40.5 113.5q60 110 225 110h200q148 0 204 -102q50 -93 50 -271t-67.5 -268.5t-186.5 -90.5h-200q-140 0 -208.5 97.5t-68.5 270.5zM188 572.5q-43 -55.5 -43 -192.5q0 -276 163 -276h190q73 0 111.5 59.5t38.5 204.5q0 128 -21 176
q-10 22 -25 42q-29 42 -94 42h-200q-77 0 -120 -55.5zM237 153v427h187q134 0 134 -138q0 -58 -15 -88.5t-49 -42.5l84 -158h-121l-77 150l-29 12v-162h-114zM351 399h39q38 0 46 6.5t8 32.5t-9.5 32t-44.5 6h-39v-77z" />
    <glyph glyph-name="macron" unicode="&#xaf;" horiz-adv-x="348" 
d="M28 531v93h292v-93h-292z" />
    <glyph glyph-name="degree" unicode="&#xb0;" horiz-adv-x="259" 
d="M28 632q0 43 30 73t72 30t71.5 -30t29.5 -73t-29.5 -72.5t-71.5 -29.5t-72 29.5t-30 72.5zM94 632q0 -15 10.5 -25t25.5 -10t25 10t10 25t-10 25.5t-25 10.5t-25.5 -10.5t-10.5 -25.5z" />
    <glyph glyph-name="plusminus" unicode="&#xb1;" horiz-adv-x="479" 
d="M32 57v154h416v-154h-416zM32 377v154h130v131h154v-131h132v-154h-132v-131h-154v131h-130z" />
    <glyph glyph-name="twosuperior" unicode="&#xb2;" horiz-adv-x="411" 
d="M17 718v109q96 22 212 22q79 0 119 -41.5t40 -111.5q0 -91 -152 -210h152v-131h-367v126q58 34 139.5 101t81.5 94t-16.5 34.5t-60.5 7.5h-148z" />
    <glyph glyph-name="threesuperior" unicode="&#xb3;" horiz-adv-x="411" 
d="M170 350q-86 0 -149 21l1 110h145q42 0 53.5 3t11.5 19v4q0 15 -13 19t-48 5l-108 5v119l108 7q55 0 61 10q2 5 2 13v4q0 16 -15 20t-48 4h-154v109q60 23 188 23q20 0 41 -1q59 -1 95.5 -33.5t36.5 -90.5v-26q0 -76 -63 -97q63 -17 63 -103v-19q0 -60 -36.5 -92.5
t-100.5 -32.5h-71z" />
    <glyph glyph-name="acute" unicode="&#xb4;" horiz-adv-x="244" 
d="M11 531l77 143h145l-113 -143h-109z" />
    <glyph glyph-name="uni00B5" unicode="&#xb5;" horiz-adv-x="584" 
d="M51 -270v801h194v-344q0 -30 8 -41t25 -11q57 0 73 37v359h194v-531h-162l-32 52q-9 -6 -23 -16q-33 -24 -47.5 -31t-35.5 -11v-264h-194z" />
    <glyph glyph-name="paragraph" unicode="&#xb6;" horiz-adv-x="574" 
d="M22 499v93q0 69 41.5 104.5t114.5 35.5h386v-126h-40v-606h-124v608h-44v-878h-124v642q-1 0 -8 -5q-17 -12 -46 -12q-80 0 -118 40t-38 104zM146 519q0 -27 9 -33.5t33 -6.5h44v129h-44q-29 0 -35.5 -8.5t-6.5 -41.5v-39z" />
    <glyph glyph-name="periodcentered" unicode="&#xb7;" horiz-adv-x="257" 
d="M48 328v117q0 25 24 25h113q25 0 25 -25v-117q0 -23 -25 -23h-113q-24 0 -24 23z" />
    <glyph glyph-name="cedilla" unicode="&#xb8;" horiz-adv-x="238" 
d="M93 -37h117q0 -78 -26.5 -112t-94.5 -34h-61v79l37 15q21 9 24.5 16t3.5 36z" />
    <glyph glyph-name="onesuperior" unicode="&#xb9;" horiz-adv-x="270" 
d="M234 842v-487h-146v365l-79 -13v80l81 55h144z" />
    <glyph glyph-name="ordmasculine" unicode="&#xba;" horiz-adv-x="398" 
d="M57 414.5q-40 39.5 -40 141t39.5 140.5t142.5 39t143 -40.5t40 -142t-39.5 -139.5t-142.5 -38t-143 39.5zM32 258v78h335v-78h-335zM168 614q-5 -13 -5 -60.5t6 -59t31 -11.5t30.5 10.5t5.5 59.5t-5 61.5t-31.5 12.5t-31.5 -13z" />
    <glyph glyph-name="guillemotright" unicode="&#xbb;" horiz-adv-x="607" 
d="M28 244l111 110l-110 108l97 95l206 -203l-211 -208zM275 244l111 110l-110 108l97 95l206 -203l-211 -208z" />
    <glyph glyph-name="onequarter" unicode="&#xbc;" horiz-adv-x="954" 
d="M234 742v-487h-146v365l-79 -13v80l81 55h144zM139 0l466 770h131l-466 -770h-131zM757 214v87l21 51h125v-138h40v-112l-40 -22v-78h-146v78h-222l-23 66l141 341h149l-105 -273h60z" />
    <glyph glyph-name="onehalf" unicode="&#xbd;" horiz-adv-x="1005" 
d="M234 742v-487h-146v365l-79 -13v80l81 55h144zM129 0l466 770h131l-466 -770h-131zM606 363v109q98 22 215 22q80 0 121 -41.5t41 -111.5q0 -90 -157 -210h157v-131h-373v127q61 38 144 107.5t83 100.5q0 18 -17 23t-62 5h-152z" />
    <glyph glyph-name="threequarters" unicode="&#xbe;" horiz-adv-x="1066" 
d="M173 250q-89 0 -152 21l1 110h149q43 0 55 3t12 19v4q0 15 -13.5 19t-49.5 5l-112 5v118l112 8q57 0 63 10q2 5 2 13v5q0 16 -15.5 20t-49.5 4h-158v109q58 22 189 22q21 0 44 -1q60 -1 97 -33.5t37 -90.5v-26q0 -76 -63 -97q63 -17 63 -103v-19q0 -60 -36.5 -92.5
t-102.5 -32.5h-72zM244 0l466 770h131l-466 -770h-131zM852 214v87l21 51h125v-138h40v-112l-40 -22v-78h-146v78h-222l-23 66l141 341h149l-105 -273h60z" />
    <glyph glyph-name="questiondown" unicode="&#xbf;" horiz-adv-x="544" 
d="M22 -11q0 108 45.5 157.5t150.5 49.5h17v81h145v-222h-92q-39 -2 -56 -17t-17 -53v-15q0 -62 87 -62h231v-145q-117 -31 -240 -31q-21 0 -42 1q-107 0 -168 62t-61 143v51zM227 332v117q0 23 25 23h113q24 0 24 -23v-117q0 -25 -24 -25h-113q-25 0 -25 25z" />
    <glyph glyph-name="Agrave" unicode="&#xc0;" horiz-adv-x="711" 
d="M201 940h145l77 -143h-109zM25 0l229 732h229l222 -732h-199l-43 128h-197l-42 -128h-199zM310 293h114l-53 196z" />
    <glyph glyph-name="Aacute" unicode="&#xc1;" horiz-adv-x="711" 
d="M314 797l77 143h145l-113 -143h-109zM25 0l229 732h229l222 -732h-199l-43 128h-197l-42 -128h-199zM310 293h114l-53 196z" />
    <glyph glyph-name="Acircumflex" unicode="&#xc2;" horiz-adv-x="711" 
d="M208 797l100 140h130l92 -140h-112l-48 51l-50 -51h-112zM25 0l229 732h229l222 -732h-199l-43 128h-197l-42 -128h-199zM310 293h114l-53 196z" />
    <glyph glyph-name="Atilde" unicode="&#xc3;" horiz-adv-x="711" 
d="M318 938q22 0 54 -17.5t52 -17.5h5q49 0 87 40l26 -74q-48 -72 -112 -72q-22 0 -59 17.5t-61 17.5q-43 0 -88 -35l-28 67q52 74 124 74zM25 0l229 732h229l222 -732h-199l-43 128h-197l-42 -128h-199zM310 293h114l-53 196z" />
    <glyph glyph-name="Adieresis" unicode="&#xc4;" horiz-adv-x="711" 
d="M176 863q0 27 19 46t46 19t46 -19t19 -46t-19 -46.5t-46 -19.5t-46 19.5t-19 46.5zM430 863q0 27 19.5 46t47 19t46.5 -19t19 -46t-19.5 -46.5t-46 -19.5t-46.5 19.5t-20 46.5zM25 0l229 732h229l222 -732h-199l-43 128h-197l-42 -128h-199zM310 293h114l-53 196z" />
    <glyph glyph-name="Aring" unicode="&#xc5;" horiz-adv-x="711" 
d="M280.5 780.5q13.5 -23.5 37 -37t51.5 -13.5t51 13.5t36.5 37t13.5 59t-29.5 65.5t-71.5 30t-72 -30t-30 -65.5t13.5 -59zM335 832q0 14 10 24t24 10t23.5 -9.5t9.5 -24t-9.5 -24t-23.5 -9.5t-24 9.5t-10 23.5zM25 0l229 732h229l222 -732h-199l-43 128h-197l-42 -128
h-199zM310 293h114l-53 196z" />
    <glyph glyph-name="AE" unicode="&#xc6;" horiz-adv-x="981" 
d="M448 706q49 18 87.5 22.5t66 4.5t47.5 -1q190 0 307 -16v-163h-247q-24 0 -36.5 -9.5t-14 -19t-1.5 -27.5v-44l249 -11v-161l-249 -9v-44q0 -38 21 -46q16 -6 41 -6h237v-162q-101 -13 -246 -16l-51 -1q-10 -1 -25.5 -1t-40.5 3.5t-57.5 15t-52.5 39t-20 67.5v46h-147
l-84 -167h-215l271 552q58 118 160 154zM463 331v151l-69 -151h69z" />
    <glyph glyph-name="Ccedilla" unicode="&#xc7;" horiz-adv-x="567" 
d="M548 549q-102 17 -182.5 17t-98.5 -11q-42 -25 -42 -189q0 -124 22.5 -161t97.5 -37q104 0 175 6l28 3v-151q-48 -20 -96 -26t-96 -6h-72q-136 2 -194.5 93.5t-58.5 280t55.5 280.5t197.5 92q104 0 150.5 -7.5t113.5 -32.5v-151zM252 -36h117q0 -78 -26.5 -112t-94.5 -34
h-61v79l37 15q21 9 24.5 16t3.5 36z" />
    <glyph glyph-name="Egrave" unicode="&#xc8;" horiz-adv-x="567" 
d="M155 941h145l77 -143h-109zM40 161v401q0 170 186 170q210 0 327 -16v-163h-267q-24 0 -36.5 -9.5t-14 -19t-1.5 -27.5v-44l269 -11v-161l-269 -9v-44q0 -38 21 -46q17 -6 41 -6h257v-162q-101 -13 -261 -16l-56 -1h-19.5t-30 1.5t-47 11.5t-49.5 26.5t-35.5 48.5
t-14.5 76z" />
    <glyph glyph-name="Eacute" unicode="&#xc9;" horiz-adv-x="567" 
d="M266 797l77 143h145l-113 -143h-109zM40 161v401q0 170 186 170q210 0 327 -16v-163h-267q-24 0 -36.5 -9.5t-14 -19t-1.5 -27.5v-44l269 -11v-161l-269 -9v-44q0 -38 21 -46q17 -6 41 -6h257v-162q-101 -13 -261 -16l-56 -1h-19.5t-30 1.5t-47 11.5t-49.5 26.5
t-35.5 48.5t-14.5 76z" />
    <glyph glyph-name="Ecircumflex" unicode="&#xca;" horiz-adv-x="567" 
d="M158 797l100 140h131l91 -140h-111l-49 51l-50 -51h-112zM40 161v401q0 170 186 170q210 0 327 -16v-163h-267q-24 0 -36.5 -9.5t-14 -19t-1.5 -27.5v-44l269 -11v-161l-269 -9v-44q0 -38 21 -46q17 -6 41 -6h257v-162q-101 -13 -261 -16l-56 -1h-19.5t-30 1.5t-47 11.5
t-49.5 26.5t-35.5 48.5t-14.5 76z" />
    <glyph glyph-name="Edieresis" unicode="&#xcb;" horiz-adv-x="567" 
d="M116 863q0 27 19.5 46t46.5 19t46 -19t19 -46t-19 -46.5t-46 -19.5t-46.5 19.5t-19.5 46.5zM371 863q0 27 19.5 46t46.5 19t46 -19t19 -46t-19 -46.5t-46 -19.5t-46.5 19.5t-19.5 46.5zM40 161v401q0 170 186 170q210 0 327 -16v-163h-267q-24 0 -36.5 -9.5t-14 -19
t-1.5 -27.5v-44l269 -11v-161l-269 -9v-44q0 -38 21 -46q17 -6 41 -6h257v-162q-101 -13 -261 -16l-56 -1h-19.5t-30 1.5t-47 11.5t-49.5 26.5t-35.5 48.5t-14.5 76z" />
    <glyph glyph-name="Igrave" unicode="&#xcc;" horiz-adv-x="272" 
d="M-26 940h146l76 -143h-108zM45 0v732h194v-732h-194z" />
    <glyph glyph-name="Iacute" unicode="&#xcd;" horiz-adv-x="272" 
d="M88 797l76 143h146l-114 -143h-108zM45 0v732h194v-732h-194z" />
    <glyph glyph-name="Icircumflex" unicode="&#xce;" horiz-adv-x="272" 
d="M-19 797l100 140h131l91 -140h-111l-49 51l-50 -51h-112zM45 0v732h194v-732h-194z" />
    <glyph glyph-name="Idieresis" unicode="&#xcf;" horiz-adv-x="272" 
d="M-51 863q0 27 19.5 46t46.5 19t46 -19t19 -46t-19 -46.5t-46 -19.5t-46.5 19.5t-19.5 46.5zM204 863q0 27 19.5 46t46.5 19t46 -19t19 -46t-19 -46.5t-46 -19.5t-46.5 19.5t-19.5 46.5zM45 0v732h194v-732h-194z" />
    <glyph glyph-name="Eth" unicode="&#xd0;" horiz-adv-x="667" 
d="M-20 336v74h65v322h343q211 0 242 -250q7 -53 7 -119q0 -190 -61 -276.5t-188 -86.5h-343v336h-65zM239 164h129q42 0 58.5 46t16.5 143.5t-9.5 143.5t-24.5 58.5t-41 12.5h-129v-158h89v-74h-89v-172z" />
    <glyph glyph-name="Ntilde" unicode="&#xd1;" horiz-adv-x="677" 
d="M294 938q22 0 54 -17.5t52 -17.5h5q49 0 87 40l26 -74q-48 -72 -112 -72q-22 0 -59 17.5t-61 17.5q-43 0 -88 -35l-28 67q52 74 124 74zM45 0v732h196l209 -374v374h194v-732h-194l-210 364v-364h-195z" />
    <glyph glyph-name="Ograve" unicode="&#xd2;" horiz-adv-x="667" 
d="M172 940h146l76 -143h-108zM46.5 218.5q-9.5 60.5 -9.5 137.5t8.5 133.5t22 96t36 67.5t46 44t56.5 25q52 15 113.5 15t92 -3t64 -12t57 -25t45.5 -44t36 -67q29 -87 29 -203.5t-15 -183.5t-39 -106t-65 -61t-82.5 -29t-97 -7t-90 4t-72.5 16.5t-62 37.5t-44 64.5
t-29.5 100zM240.5 494q-9.5 -42 -9.5 -147t19 -141t87 -36t90 38t22 129t-4 128t-16.5 60.5t-32.5 30.5t-61.5 7t-63 -13.5t-31 -55.5z" />
    <glyph glyph-name="Oacute" unicode="&#xd3;" horiz-adv-x="667" 
d="M286 797l76 143h146l-114 -143h-108zM46.5 218.5q-9.5 60.5 -9.5 137.5t8.5 133.5t22 96t36 67.5t46 44t56.5 25q52 15 113.5 15t92 -3t64 -12t57 -25t45.5 -44t36 -67q29 -87 29 -203.5t-15 -183.5t-39 -106t-65 -61t-82.5 -29t-97 -7t-90 4t-72.5 16.5t-62 37.5
t-44 64.5t-29.5 100zM240.5 494q-9.5 -42 -9.5 -147t19 -141t87 -36t90 38t22 129t-4 128t-16.5 60.5t-32.5 30.5t-61.5 7t-63 -13.5t-31 -55.5z" />
    <glyph glyph-name="Ocircumflex" unicode="&#xd4;" horiz-adv-x="667" 
d="M179 797l100 140h131l91 -140h-111l-49 51l-50 -51h-112zM46.5 218.5q-9.5 60.5 -9.5 137.5t8.5 133.5t22 96t36 67.5t46 44t56.5 25q52 15 113.5 15t92 -3t64 -12t57 -25t45.5 -44t36 -67q29 -87 29 -203.5t-15 -183.5t-39 -106t-65 -61t-82.5 -29t-97 -7t-90 4
t-72.5 16.5t-62 37.5t-44 64.5t-29.5 100zM240.5 494q-9.5 -42 -9.5 -147t19 -141t87 -36t90 38t22 129t-4 128t-16.5 60.5t-32.5 30.5t-61.5 7t-63 -13.5t-31 -55.5z" />
    <glyph glyph-name="Otilde" unicode="&#xd5;" horiz-adv-x="667" 
d="M289 938q23 0 55 -17.5t51 -17.5h7q48 0 86 40l26 -74q-48 -72 -112 -72q-22 0 -59.5 17.5t-56.5 17.5q-48 0 -93 -35l-27 67q51 74 123 74zM46.5 218.5q-9.5 60.5 -9.5 137.5t8.5 133.5t22 96t36 67.5t46 44t56.5 25q52 15 113.5 15t92 -3t64 -12t57 -25t45.5 -44
t36 -67q29 -87 29 -203.5t-15 -183.5t-39 -106t-65 -61t-82.5 -29t-97 -7t-90 4t-72.5 16.5t-62 37.5t-44 64.5t-29.5 100zM240.5 494q-9.5 -42 -9.5 -147t19 -141t87 -36t90 38t22 129t-4 128t-16.5 60.5t-32.5 30.5t-61.5 7t-63 -13.5t-31 -55.5z" />
    <glyph glyph-name="Odieresis" unicode="&#xd6;" horiz-adv-x="667" 
d="M147 863q0 27 19.5 46t46.5 19t46 -19t19 -46t-19 -46.5t-46 -19.5t-46.5 19.5t-19.5 46.5zM402 863q0 27 19.5 46t46.5 19t46 -19t19 -46t-19 -46.5t-46 -19.5t-46.5 19.5t-19.5 46.5zM46.5 218.5q-9.5 60.5 -9.5 137.5t8.5 133.5t22 96t36 67.5t46 44t56.5 25
q52 15 113.5 15t92 -3t64 -12t57 -25t45.5 -44t36 -67q29 -87 29 -203.5t-15 -183.5t-39 -106t-65 -61t-82.5 -29t-97 -7t-90 4t-72.5 16.5t-62 37.5t-44 64.5t-29.5 100zM240.5 494q-9.5 -42 -9.5 -147t19 -141t87 -36t90 38t22 129t-4 128t-16.5 60.5t-32.5 30.5t-61.5 7
t-63 -13.5t-31 -55.5z" />
    <glyph glyph-name="multiply" unicode="&#xd7;" horiz-adv-x="465" 
d="M32 263l92 92l-92 93l108 109l93 -93l93 94l109 -109l-93 -94l93 -92l-109 -109l-93 92l-92 -92z" />
    <glyph glyph-name="Oslash" unicode="&#xd8;" horiz-adv-x="682" 
d="M112 653q23 28 46.5 44t57.5 25q51 15 133 15q125 0 185 -36l22 31h86l-56 -78q66 -89 66 -293q0 -180 -54 -268q-24 -39 -65 -61t-82.5 -29t-101.5 -7q-143 0 -203 44l-29 -40h-86l67 93q-52 85 -52 281t66 279zM249.5 494q-9.5 -42 -9.5 -111.5t1 -89.5l181 252
q-21 18 -70.5 18t-71 -13.5t-31 -55.5zM262 202q21 -32 86.5 -32t87.5 38t22 132t-5 129z" />
    <glyph glyph-name="Ugrave" unicode="&#xd9;" horiz-adv-x="655" 
d="M166 940h145l77 -143h-109zM45 320v412h194v-412q0 -102 22 -126q24 -25 75 -25q47 0 70 27q21 22 21 124v412h195v-412q0 -156 -48 -228q-16 -25 -31 -40.5t-38.5 -27t-40 -17t-44.5 -8.5q-36 -4 -61.5 -4h-55.5t-58.5 2t-73 18.5t-67.5 49t-41 97t-18 158.5z" />
    <glyph glyph-name="Uacute" unicode="&#xda;" horiz-adv-x="655" 
d="M279 797l77 143h145l-113 -143h-109zM45 320v412h194v-412q0 -102 22 -126q24 -25 75 -25q47 0 70 27q21 22 21 124v412h195v-412q0 -156 -48 -228q-16 -25 -31 -40.5t-38.5 -27t-40 -17t-44.5 -8.5q-36 -4 -61.5 -4h-55.5t-58.5 2t-73 18.5t-67.5 49t-41 97t-18 158.5z
" />
    <glyph glyph-name="Ucircumflex" unicode="&#xdb;" horiz-adv-x="655" 
d="M172 797l100 140h132l90 -140h-110l-50 51l-50 -51h-112zM45 320v412h194v-412q0 -102 22 -126q24 -25 75 -25q47 0 70 27q21 22 21 124v412h195v-412q0 -156 -48 -228q-16 -25 -31 -40.5t-38.5 -27t-40 -17t-44.5 -8.5q-36 -4 -61.5 -4h-55.5t-58.5 2t-73 18.5t-67.5 49
t-41 97t-18 158.5z" />
    <glyph glyph-name="Udieresis" unicode="&#xdc;" horiz-adv-x="655" 
d="M140 863q0 27 19.5 46t47 19t46.5 -19t19 -46t-19.5 -46.5t-46 -19.5t-46.5 19.5t-20 46.5zM396 863q0 27 19 46t46 19t46 -19t19 -46t-19 -46.5t-46 -19.5t-46 19.5t-19 46.5zM45 320v412h194v-412q0 -102 22 -126q24 -25 75 -25q47 0 70 27q21 22 21 124v412h195v-412
q0 -156 -48 -228q-16 -25 -31 -40.5t-38.5 -27t-40 -17t-44.5 -8.5q-36 -4 -61.5 -4h-55.5t-58.5 2t-73 18.5t-67.5 49t-41 97t-18 158.5z" />
    <glyph glyph-name="Yacute" unicode="&#xdd;" horiz-adv-x="679" 
d="M290 797l78 143h144l-112 -143h-110zM434 0h-194v200l-215 532h211l105 -324l113 324h211l-231 -532v-200z" />
    <glyph glyph-name="Thorn" unicode="&#xde;" horiz-adv-x="538" 
d="M34 0v729h194v-141h107q176 0 176 -213q0 -160 -83 -203q-45 -24 -120 -24q-19 0 -34.5 2.5t-45.5 17.5v-168h-194zM228 313h27q40 0 50.5 9.5t10.5 42t-8 44t-18.5 13.5t-34.5 2h-27v-111z" />
    <glyph glyph-name="germandbls" unicode="&#xdf;" horiz-adv-x="574" 
d="M34 0v566q0 93 64.5 155.5t188.5 62.5q100 0 164.5 -35t84.5 -89q14 -36 14 -66q0 -91 -49 -162q-9 -14 -25 -30t-23.5 -28t-7.5 -26t18.5 -31t41 -33t41 -47t18.5 -68v-17q0 -90 -48 -125t-124.5 -35t-133.5 19v131q48 -6 62 -6q50 0 50 48v6q0 19 -17 36.5t-37.5 29.5
t-37.5 37t-17 56.5t10 56t20 36.5t38 40t28 66t-14.5 51.5t-52 13.5t-50 -28t-12.5 -109v-476h-194z" />
    <glyph glyph-name="agrave" unicode="&#xe0;" horiz-adv-x="519" 
d="M100 744h146l76 -143h-108zM22 143v41q0 67 39.5 111.5t134.5 44.5h76.5h25.5q1 6 0.5 14.5t-3.5 18.5t-6.5 15.5t-13.5 7.5q-15 3 -39 3l-196 -11v113q50 24 99.5 32t128.5 8q114 0 169 -39t55 -145v-357h-156l-38 54q-10 -23 -35.5 -41.5t-67.5 -18.5q-49 0 -85 16.5
t-54 39.5q-34 45 -34 93zM248 138h10q18 0 28 8t11 16l1 9v60l-52 -5q-15 -1 -22 -10.5t-7.5 -15.5t-0.5 -19v-6q0 -28 12 -33q3 -1 4 -2q4 -2 16 -2z" />
    <glyph glyph-name="aacute" unicode="&#xe1;" horiz-adv-x="519" 
d="M214 601l76 143h146l-114 -143h-108zM22 143v41q0 67 39.5 111.5t134.5 44.5h76.5h25.5q1 6 0.5 14.5t-3.5 18.5t-6.5 15.5t-13.5 7.5q-15 3 -39 3l-196 -11v113q50 24 99.5 32t128.5 8q114 0 169 -39t55 -145v-357h-156l-38 54q-10 -23 -35.5 -41.5t-67.5 -18.5
q-49 0 -85 16.5t-54 39.5q-34 45 -34 93zM248 138h10q18 0 28 8t11 16l1 9v60l-52 -5q-15 -1 -22 -10.5t-7.5 -15.5t-0.5 -19v-6q0 -28 12 -33q3 -1 4 -2q4 -2 16 -2z" />
    <glyph glyph-name="acircumflex" unicode="&#xe2;" horiz-adv-x="519" 
d="M107 601l100 140h131l91 -140h-111l-49 51l-50 -51h-112zM22 143v41q0 67 39.5 111.5t134.5 44.5h76.5h25.5q1 6 0.5 14.5t-3.5 18.5t-6.5 15.5t-13.5 7.5q-15 3 -39 3l-196 -11v113q50 24 99.5 32t128.5 8q114 0 169 -39t55 -145v-357h-156l-38 54q-10 -23 -35.5 -41.5
t-67.5 -18.5q-49 0 -85 16.5t-54 39.5q-34 45 -34 93zM248 138h10q18 0 28 8t11 16l1 9v60l-52 -5q-15 -1 -22 -10.5t-7.5 -15.5t-0.5 -19v-6q0 -28 12 -33q3 -1 4 -2q4 -2 16 -2z" />
    <glyph glyph-name="atilde" unicode="&#xe3;" horiz-adv-x="519" 
d="M217 742q23 0 55 -17.5t51 -17.5h7q48 0 86 40l26 -74q-48 -72 -112 -72q-22 0 -59.5 17.5t-56.5 17.5q-48 0 -93 -35l-27 67q51 74 123 74zM22 143v41q0 67 39.5 111.5t134.5 44.5h76.5h25.5q1 6 0.5 14.5t-3.5 18.5t-6.5 15.5t-13.5 7.5q-15 3 -39 3l-196 -11v113
q50 24 99.5 32t128.5 8q114 0 169 -39t55 -145v-357h-156l-38 54q-10 -23 -35.5 -41.5t-67.5 -18.5q-49 0 -85 16.5t-54 39.5q-34 45 -34 93zM248 138h10q18 0 28 8t11 16l1 9v60l-52 -5q-15 -1 -22 -10.5t-7.5 -15.5t-0.5 -19v-6q0 -28 12 -33q3 -1 4 -2q4 -2 16 -2z" />
    <glyph glyph-name="adieresis" unicode="&#xe4;" horiz-adv-x="519" 
d="M75 667q0 27 19.5 46t46.5 19t46 -19t19 -46t-19 -46.5t-46 -19.5t-46.5 19.5t-19.5 46.5zM330 667q0 27 19.5 46t46.5 19t46 -19t19 -46t-19 -46.5t-46 -19.5t-46.5 19.5t-19.5 46.5zM22 143v41q0 67 39.5 111.5t134.5 44.5h76.5h25.5q1 6 0.5 14.5t-3.5 18.5t-6.5 15.5
t-13.5 7.5q-15 3 -39 3l-196 -11v113q50 24 99.5 32t128.5 8q114 0 169 -39t55 -145v-357h-156l-38 54q-10 -23 -35.5 -41.5t-67.5 -18.5q-49 0 -85 16.5t-54 39.5q-34 45 -34 93zM248 138h10q18 0 28 8t11 16l1 9v60l-52 -5q-15 -1 -22 -10.5t-7.5 -15.5t-0.5 -19v-6
q0 -28 12 -33q3 -1 4 -2q4 -2 16 -2z" />
    <glyph glyph-name="aring" unicode="&#xe5;" horiz-adv-x="519" 
d="M176.5 663q-8.5 19 -8.5 43.5t14 48t37.5 37.5t58 14t64.5 -30t30 -65.5t-13.5 -59t-37 -37t-47.5 -13.5t-43 8t-32.5 21.5t-22 32.5zM246 727q-10 -10 -10 -21.5t5 -19.5q10 -16 27 -16t26.5 9.5t9.5 23.5t-9.5 24t-24 10t-24.5 -10zM22 143v41q0 67 39.5 111.5
t134.5 44.5h76.5h25.5q1 6 0.5 14.5t-3.5 18.5t-6.5 15.5t-13.5 7.5q-15 3 -39 3l-196 -11v113q50 24 99.5 32t128.5 8q114 0 169 -39t55 -145v-357h-156l-38 54q-10 -23 -35.5 -41.5t-67.5 -18.5q-49 0 -85 16.5t-54 39.5q-34 45 -34 93zM248 138h10q18 0 28 8t11 16l1 9
v60l-52 -5q-15 -1 -22 -10.5t-7.5 -15.5t-0.5 -19v-6q0 -28 12 -33q3 -1 4 -2q4 -2 16 -2z" />
    <glyph glyph-name="ae" unicode="&#xe6;" horiz-adv-x="820" 
d="M788 23q-56 -28 -207 -28h-83q-97 0 -138 68q-13 -29 -65.5 -49t-99.5 -20q-49 0 -85 16.5t-54 39.5q-34 45 -34 93v31q0 67 39.5 111.5t134.5 44.5h76.5h25.5q1 16 0.5 24.5t-3.5 18.5t-6.5 15.5t-13.5 7.5q-15 3 -39 3l-196 -12v114q50 24 99.5 32t128.5 8
q110 -4 150 -30q53 24 136 24q139 0 191.5 -36t52.5 -150q0 -77 -39.5 -104.5t-118.5 -27.5h-123q0 -50 28.5 -64.5t98 -14.5t144.5 11v-126zM239 137l19 1q18 0 28 8t11 16l1 9v50l-52 -5q-15 -1 -22 -10.5t-7.5 -15.5t-0.5 -19v-1q0 -24 8 -28q8 -5 15 -5zM574 330
q13 0 21.5 9t8.5 29.5t-5.5 26.5t-19.5 6h-24.5t-16.5 -1t-12 -8q-9 -8 -9 -29.5v-32.5h57z" />
    <glyph glyph-name="ccedilla" unicode="&#xe7;" horiz-adv-x="490" 
d="M303 -6l-100 1q-175 0 -175 271q0 147 46 208.5t129 61.5h49q116 0 209 -36v-114q-60 6 -120.5 6t-72.5 -1.5t-25.5 -13.5t-17 -38t-3.5 -74t3 -72.5t15.5 -37t26 -14.5t49.5 -2q78 0 134 6l18 2v-114q-54 -39 -165 -39zM209 -38h117q0 -78 -26.5 -112t-94.5 -34h-61v79
l37 15q21 9 24.5 16t3.5 36z" />
    <glyph glyph-name="egrave" unicode="&#xe8;" horiz-adv-x="525" 
d="M100 739h144l78 -143h-110zM493 23q-56 -28 -207 -28h-83q-98 0 -136.5 65t-38.5 192t23.5 184.5t70.5 78t129 20.5t123 -6t73 -27t44 -60t12 -111t-40 -104t-117 -32h-124q0 -30 14 -47q9 -11 42 -11l65 1q75 0 150 11v-126zM280 318q13 0 21 9t8 31t-5.5 32.5t-34 10.5
t-38 -13.5t-9.5 -59.5v-10h58z" />
    <glyph glyph-name="eacute" unicode="&#xe9;" horiz-adv-x="525" 
d="M212 596l78 143h144l-112 -143h-110zM493 23q-56 -28 -207 -28h-83q-98 0 -136.5 65t-38.5 192t23.5 184.5t70.5 78t129 20.5t123 -6t73 -27t44 -60t12 -111t-40 -104t-117 -32h-124q0 -30 14 -47q9 -11 42 -11l65 1q75 0 150 11v-126zM280 318q13 0 21 9t8 31t-5.5 32.5
t-34 10.5t-38 -13.5t-9.5 -59.5v-10h58z" />
    <glyph glyph-name="ecircumflex" unicode="&#xea;" horiz-adv-x="525" 
d="M99 596l100 140h131l91 -140h-111l-49 51l-50 -51h-112zM493 23q-56 -28 -207 -28h-83q-98 0 -136.5 65t-38.5 192t23.5 184.5t70.5 78t129 20.5t123 -6t73 -27t44 -60t12 -111t-40 -104t-117 -32h-124q0 -30 14 -47q9 -11 42 -11l65 1q75 0 150 11v-126zM280 318
q13 0 21 9t8 31t-5.5 32.5t-34 10.5t-38 -13.5t-9.5 -59.5v-10h58z" />
    <glyph glyph-name="edieresis" unicode="&#xeb;" horiz-adv-x="525" 
d="M67 662q0 27 19.5 46t46.5 19t46 -19t19 -46t-19 -46.5t-46 -19.5t-46.5 19.5t-19.5 46.5zM322 662q0 27 19.5 46t46.5 19t46 -19t19 -46t-19 -46.5t-46 -19.5t-46.5 19.5t-19.5 46.5zM493 23q-56 -28 -207 -28h-83q-98 0 -136.5 65t-38.5 192t23.5 184.5t70.5 78
t129 20.5t123 -6t73 -27t44 -60t12 -111t-40 -104t-117 -32h-124q0 -30 14 -47q9 -11 42 -11l65 1q75 0 150 11v-126zM280 318q13 0 21 9t8 31t-5.5 32.5t-34 10.5t-38 -13.5t-9.5 -59.5v-10h58z" />
    <glyph glyph-name="igrave" unicode="&#xec;" horiz-adv-x="261" 
d="M-36 739h144l78 -143h-110zM34 0v531h194v-531h-194z" />
    <glyph glyph-name="iacute" unicode="&#xed;" horiz-adv-x="261" 
d="M76 596l78 143h144l-112 -143h-110zM34 0v531h194v-531h-194z" />
    <glyph glyph-name="icircumflex" unicode="&#xee;" horiz-adv-x="261" 
d="M-30 596l100 140h131l91 -140h-111l-49 51l-50 -51h-112zM34 0v531h194v-531h-194z" />
    <glyph glyph-name="idieresis" unicode="&#xef;" horiz-adv-x="261" 
d="M-62 662q0 27 19.5 46t46.5 19t46 -19t19 -46t-19 -46.5t-46 -19.5t-46.5 19.5t-19.5 46.5zM193 662q0 27 19.5 46t46.5 19t46 -19t19 -46t-19 -46.5t-46 -19.5t-46.5 19.5t-19.5 46.5zM34 0v531h194v-531h-194z" />
    <glyph glyph-name="eth" unicode="&#xf0;" horiz-adv-x="543" 
d="M22 264q0 267 194 267h20q60 0 80 -5q-12 43 -44 68l-88 -50l-32 56l42 24q-28 4 -64.5 4h-57.5v155q192 0 294 -61l72 40l32 -56l-48 -27q57 -60 77.5 -158t20.5 -247.5t-53 -211.5t-141 -62h-110q-102 0 -148 64t-46 200zM216 264q0 -58 6 -73t36 -15h28q29 0 34.5 13
t5.5 77.5t-5.5 77.5t-34.5 13h-28q-26 0 -34 -17.5t-8 -75.5z" />
    <glyph glyph-name="ntilde" unicode="&#xf1;" 
d="M230 741q22 0 54 -17.5t52 -17.5h7q48 0 86 40l26 -74q-48 -72 -112 -72q-22 0 -59.5 17.5t-56.5 17.5q-48 0 -93 -35l-27 67q51 74 123 74zM34 0v531h162l32 -52q22 21 35.5 31t43 20t73.5 10t76 -14.5t47 -44.5t20 -61.5t5 -79.5v-340h-194v344q0 30 -8 41t-25 11
q-57 0 -73 -37v-359h-194z" />
    <glyph glyph-name="ograve" unicode="&#xf2;" horiz-adv-x="554" 
d="M110 739h144l78 -143h-110zM83 54.5q-55 59.5 -55 211.5t54.5 211t194.5 59t194.5 -60t54.5 -213.5t-53.5 -210.5t-194 -57t-195.5 59.5zM228.5 372q-6.5 -20 -6.5 -107t8.5 -106.5t47.5 -19.5t46.5 17t7.5 105.5t-7.5 109.5t-48.5 21t-47.5 -20z" />
    <glyph glyph-name="oacute" unicode="&#xf3;" horiz-adv-x="554" 
d="M222 596l78 143h144l-112 -143h-110zM83 54.5q-55 59.5 -55 211.5t54.5 211t194.5 59t194.5 -60t54.5 -213.5t-53.5 -210.5t-194 -57t-195.5 59.5zM228.5 372q-6.5 -20 -6.5 -107t8.5 -106.5t47.5 -19.5t46.5 17t7.5 105.5t-7.5 109.5t-48.5 21t-47.5 -20z" />
    <glyph glyph-name="ocircumflex" unicode="&#xf4;" horiz-adv-x="554" 
d="M116 596l100 140h131l91 -140h-111l-49 51l-50 -51h-112zM83 54.5q-55 59.5 -55 211.5t54.5 211t194.5 59t194.5 -60t54.5 -213.5t-53.5 -210.5t-194 -57t-195.5 59.5zM228.5 372q-6.5 -20 -6.5 -107t8.5 -106.5t47.5 -19.5t46.5 17t7.5 105.5t-7.5 109.5t-48.5 21
t-47.5 -20z" />
    <glyph glyph-name="otilde" unicode="&#xf5;" horiz-adv-x="554" 
d="M226 737q22 0 54 -17.5t52 -17.5h7q48 0 86 40l26 -74q-48 -72 -112 -72q-22 0 -59.5 17.5t-56.5 17.5q-48 0 -93 -35l-27 67q51 74 123 74zM83 54.5q-55 59.5 -55 211.5t54.5 211t194.5 59t194.5 -60t54.5 -213.5t-53.5 -210.5t-194 -57t-195.5 59.5zM228.5 372
q-6.5 -20 -6.5 -107t8.5 -106.5t47.5 -19.5t46.5 17t7.5 105.5t-7.5 109.5t-48.5 21t-47.5 -20z" />
    <glyph glyph-name="odieresis" unicode="&#xf6;" horiz-adv-x="554" 
d="M84 662q0 27 19.5 46t46.5 19t46 -19t19 -46t-19 -46.5t-46 -19.5t-46.5 19.5t-19.5 46.5zM339 662q0 27 19.5 46t46.5 19t46 -19t19 -46t-19 -46.5t-46 -19.5t-46.5 19.5t-19.5 46.5zM83 54.5q-55 59.5 -55 211.5t54.5 211t194.5 59t194.5 -60t54.5 -213.5t-53.5 -210.5
t-194 -57t-195.5 59.5zM228.5 372q-6.5 -20 -6.5 -107t8.5 -106.5t47.5 -19.5t46.5 17t7.5 105.5t-7.5 109.5t-48.5 21t-47.5 -20z" />
    <glyph glyph-name="divide" unicode="&#xf7;" horiz-adv-x="483" 
d="M28 276v154h427v-154h-427zM165 140v77q0 25 24 25h93q25 0 25 -25v-77q0 -23 -25 -23h-93q-24 0 -24 23zM165 483v77q0 25 24 25h93q25 0 25 -25v-77q0 -23 -25 -23h-93q-24 0 -24 23z" />
    <glyph glyph-name="oslash" unicode="&#xf8;" horiz-adv-x="592" 
d="M48 258q0 160 54.5 219t194.5 59q105 0 159 -31l22 26h86l-60 -71q42 -62 42 -206.5t-53.5 -201.5t-195.5 -57q-105 0 -160 32l-23 -27h-86l61 72q-41 59 -41 186zM242 258v-6l102 120q-9 20 -49 20t-46.5 -20t-6.5 -114zM250 160q8 -21 47.5 -21t47 17t7.5 102v23z" />
    <glyph glyph-name="ugrave" unicode="&#xf9;" 
d="M108 739h144l78 -143h-110zM28 191v340h194v-344q0 -30 8 -41t25 -11q57 0 73 37v359h194v-531h-162l-32 52q-10 -6 -30 -21t-31 -21q-31 -19 -83 -19t-84 14.5t-47 44.5t-20 61.5t-5 79.5z" />
    <glyph glyph-name="uacute" unicode="&#xfa;" 
d="M220 596l78 143h144l-112 -143h-110zM28 191v340h194v-344q0 -30 8 -41t25 -11q57 0 73 37v359h194v-531h-162l-32 52q-10 -6 -30 -21t-31 -21q-31 -19 -83 -19t-84 14.5t-47 44.5t-20 61.5t-5 79.5z" />
    <glyph glyph-name="ucircumflex" unicode="&#xfb;" 
d="M114 596l100 140h131l91 -140h-111l-49 51l-50 -51h-112zM28 191v340h194v-344q0 -30 8 -41t25 -11q57 0 73 37v359h194v-531h-162l-32 52q-10 -6 -30 -21t-31 -21q-31 -19 -83 -19t-84 14.5t-47 44.5t-20 61.5t-5 79.5z" />
    <glyph glyph-name="udieresis" unicode="&#xfc;" 
d="M82 662q0 27 19.5 46t46.5 19t46 -19t19 -46t-19 -46.5t-46 -19.5t-46.5 19.5t-19.5 46.5zM337 662q0 27 19.5 46t46.5 19t46 -19t19 -46t-19 -46.5t-46 -19.5t-46.5 19.5t-19.5 46.5zM28 191v340h194v-344q0 -30 8 -41t25 -11q57 0 73 37v359h194v-531h-162l-32 52
q-10 -6 -30 -21t-31 -21q-31 -19 -83 -19t-84 14.5t-47 44.5t-20 61.5t-5 79.5z" />
    <glyph glyph-name="yacute" unicode="&#xfd;" horiz-adv-x="599" 
d="M243 596l77 143h145l-113 -143h-109zM12 531h201l61 -336q7 -37 43 -39l69 375h197l-143 -699l-71 -102h-144l59 270q-154 0 -189 156z" />
    <glyph glyph-name="thorn" unicode="&#xfe;" horiz-adv-x="558" 
d="M39 -270v1052h194v-307q34 28 62 41.5t69 13.5q90 0 131 -63.5t41 -205.5q0 -107 -15 -156t-34 -71q-41 -49 -121.5 -49t-132.5 34v-289h-194zM298 124q24 0 34 24t10 101.5t-10 100.5t-34 23q-52 0 -65 -22v-212q14 -15 65 -15z" />
    <glyph glyph-name="ydieresis" unicode="&#xff;" horiz-adv-x="599" 
d="M104 662q0 27 19.5 46t47 19t46.5 -19t19 -46t-19.5 -46.5t-46 -19.5t-46.5 19.5t-20 46.5zM360 662q0 27 19 46t46 19t46 -19t19 -46t-19 -46.5t-46 -19.5t-46 19.5t-19 46.5zM12 531h201l61 -336q7 -37 43 -39l69 375h197l-143 -699l-71 -102h-144l59 270
q-154 0 -189 156z" />
    <glyph glyph-name="Amacron" unicode="&#x100;" horiz-adv-x="711" 
d="M222 797v93h292v-93h-292zM25 0l229 732h229l222 -732h-199l-43 128h-197l-42 -128h-199zM310 293h114l-53 196z" />
    <glyph glyph-name="amacron" unicode="&#x101;" horiz-adv-x="519" 
d="M122 601v93h292v-93h-292zM22 143v41q0 67 39.5 111.5t134.5 44.5h76.5h25.5q1 6 0.5 14.5t-3.5 18.5t-6.5 15.5t-13.5 7.5q-15 3 -39 3l-196 -11v113q50 24 99.5 32t128.5 8q114 0 169 -39t55 -145v-357h-156l-38 54q-10 -23 -35.5 -41.5t-67.5 -18.5q-49 0 -85 16.5
t-54 39.5q-34 45 -34 93zM248 138h10q18 0 28 8t11 16l1 9v60l-52 -5q-15 -1 -22 -10.5t-7.5 -15.5t-0.5 -19v-6q0 -28 12 -33q3 -1 4 -2q4 -2 16 -2z" />
    <glyph glyph-name="Abreve" unicode="&#x102;" horiz-adv-x="711" 
d="M320 911q0 -47 48 -47t48 47h68q0 -70 -55 -100q-26 -14 -56.5 -14t-52 8.5t-35.5 22.5q-31 32 -31 83h66zM25 0l229 732h229l222 -732h-199l-43 128h-197l-42 -128h-199zM310 293h114l-53 196z" />
    <glyph glyph-name="abreve" unicode="&#x103;" horiz-adv-x="519" 
d="M153 715h67q0 -47 48 -47t48 47h67q0 -51 -31.5 -82.5t-84 -31.5t-83.5 31.5t-31 82.5zM22 143v41q0 67 39.5 111.5t134.5 44.5h76.5h25.5q1 6 0.5 14.5t-3.5 18.5t-6.5 15.5t-13.5 7.5q-15 3 -39 3l-196 -11v113q50 24 99.5 32t128.5 8q114 0 169 -39t55 -145v-357h-156
l-38 54q-10 -23 -35.5 -41.5t-67.5 -18.5q-49 0 -85 16.5t-54 39.5q-34 45 -34 93zM248 138h10q18 0 28 8t11 16l1 9v60l-52 -5q-15 -1 -22 -10.5t-7.5 -15.5t-0.5 -19v-6q0 -28 12 -33q3 -1 4 -2q4 -2 16 -2z" />
    <glyph glyph-name="Aogonek" unicode="&#x104;" horiz-adv-x="711" 
d="M575 2h69q-61 -42 -29 -84q17 -22 42 -17v-90q-15 -5 -26 -5t-25 1t-32 13q-60 38 -60 92.5t61 89.5zM25 0l229 732h229l222 -732h-199l-43 128h-197l-42 -128h-199zM310 293h114l-53 196z" />
    <glyph glyph-name="aogonek" unicode="&#x105;" horiz-adv-x="519" 
d="M384 0h69q-61 -41 -29 -83q17 -22 42 -18v-90q-15 -4 -26 -4t-25 1t-32 13q-60 38 -60 92t61 89zM22 143v41q0 67 39.5 111.5t134.5 44.5h76.5h25.5q1 6 0.5 14.5t-3.5 18.5t-6.5 15.5t-13.5 7.5q-15 3 -39 3l-196 -11v113q50 24 99.5 32t128.5 8q114 0 169 -39t55 -145
v-357h-156l-38 54q-10 -23 -35.5 -41.5t-67.5 -18.5q-49 0 -85 16.5t-54 39.5q-34 45 -34 93zM248 138h10q18 0 28 8t11 16l1 9v60l-52 -5q-15 -1 -22 -10.5t-7.5 -15.5t-0.5 -19v-6q0 -28 12 -33q3 -1 4 -2q4 -2 16 -2z" />
    <glyph glyph-name="Cacute" unicode="&#x106;" horiz-adv-x="567" 
d="M280 800l76 143h146l-114 -143h-108zM548 549q-102 17 -182.5 17t-98.5 -11q-42 -25 -42 -189q0 -124 22.5 -161t97.5 -37q104 0 175 6l28 3v-151q-48 -20 -96 -26t-96 -6h-72q-136 2 -194.5 93.5t-58.5 280t55.5 280.5t197.5 92q104 0 150.5 -7.5t113.5 -32.5v-151z" />
    <glyph glyph-name="cacute" unicode="&#x107;" horiz-adv-x="490" 
d="M225 596l77 143h145l-113 -143h-109zM303 -6l-100 1q-175 0 -175 271q0 147 46 208.5t129 61.5h49q116 0 209 -36v-114q-60 6 -120.5 6t-72.5 -1.5t-25.5 -13.5t-17 -38t-3.5 -74t3 -72.5t15.5 -37t26 -14.5t49.5 -2q78 0 134 6l18 2v-114q-54 -39 -165 -39z" />
    <glyph glyph-name="Ccircumflex" unicode="&#x108;" horiz-adv-x="567" 
d="M171 800l100 140h131l91 -140h-111l-49 51l-50 -51h-112zM548 549q-102 17 -182.5 17t-98.5 -11q-42 -25 -42 -189q0 -124 22.5 -161t97.5 -37q104 0 175 6l28 3v-151q-48 -20 -96 -26t-96 -6h-72q-136 2 -194.5 93.5t-58.5 280t55.5 280.5t197.5 92q104 0 150.5 -7.5
t113.5 -32.5v-151z" />
    <glyph glyph-name="ccircumflex" unicode="&#x109;" horiz-adv-x="490" 
d="M98 596l100 140h131l91 -140h-111l-49 51l-50 -51h-112zM303 -6l-100 1q-175 0 -175 271q0 147 46 208.5t129 61.5h49q116 0 209 -36v-114q-60 6 -120.5 6t-72.5 -1.5t-25.5 -13.5t-17 -38t-3.5 -74t3 -72.5t15.5 -37t26 -14.5t49.5 -2q78 0 134 6l18 2v-114
q-54 -39 -165 -39z" />
    <glyph glyph-name="Cdotaccent" unicode="&#x10a;" horiz-adv-x="567" 
d="M256 823v94q0 25 24 25h90q23 0 23 -25v-94q0 -23 -23 -23h-90q-24 0 -24 23zM548 549q-102 17 -182.5 17t-98.5 -11q-42 -25 -42 -189q0 -124 22.5 -161t97.5 -37q104 0 175 6l28 3v-151q-48 -20 -96 -26t-96 -6h-72q-136 2 -194.5 93.5t-58.5 280t55.5 280.5t197.5 92
q104 0 150.5 -7.5t113.5 -32.5v-151z" />
    <glyph glyph-name="cdotaccent" unicode="&#x10b;" horiz-adv-x="490" 
d="M208 619v94q0 25 24 25h90q23 0 23 -25v-94q0 -23 -23 -23h-90q-24 0 -24 23zM303 -6l-100 1q-175 0 -175 271q0 147 46 208.5t129 61.5h49q116 0 209 -36v-114q-60 6 -120.5 6t-72.5 -1.5t-25.5 -13.5t-17 -38t-3.5 -74t3 -72.5t15.5 -37t26 -14.5t49.5 -2q78 0 134 6
l18 2v-114q-54 -39 -165 -39z" />
    <glyph glyph-name="Ccaron" unicode="&#x10c;" horiz-adv-x="567" 
d="M181 940h111l49 -51l50 51h112l-100 -140h-131zM548 549q-102 17 -182.5 17t-98.5 -11q-42 -25 -42 -189q0 -124 22.5 -161t97.5 -37q104 0 175 6l28 3v-151q-48 -20 -96 -26t-96 -6h-72q-136 2 -194.5 93.5t-58.5 280t55.5 280.5t197.5 92q104 0 150.5 -7.5t113.5 -32.5
v-151z" />
    <glyph glyph-name="ccaron" unicode="&#x10d;" horiz-adv-x="490" 
d="M112 736h111l49 -51l50 51h112l-100 -140h-131zM303 -6l-100 1q-175 0 -175 271q0 147 46 208.5t129 61.5h49q116 0 209 -36v-114q-60 6 -120.5 6t-72.5 -1.5t-25.5 -13.5t-17 -38t-3.5 -74t3 -72.5t15.5 -37t26 -14.5t49.5 -2q78 0 134 6l18 2v-114q-54 -39 -165 -39z
" />
    <glyph glyph-name="Dcaron" unicode="&#x10e;" horiz-adv-x="667" 
d="M157 937h111l49 -51l50 51h112l-100 -140h-131zM45 0v732h343q211 0 242 -250q7 -53 7 -119q0 -190 -61 -276.5t-188 -86.5h-343zM239 164h129q42 0 58.5 46t16.5 143.5t-9.5 143.5t-24.5 58.5t-41 12.5h-129v-404z" />
    <glyph glyph-name="dcaron" unicode="&#x10f;" horiz-adv-x="652" 
d="M68.5 54.5q-40.5 60.5 -40.5 212t34 212t138 60.5q75 0 132 -30v276h194v-785h-166l-28 49q-33 -28 -62 -41.5t-70 -13.5q-91 0 -131.5 60.5zM232 376q-10 -24 -10 -101.5t10 -100.5t34 -23q53 0 66 22v212q-14 15 -66 15q-24 0 -34 -24zM580 782h114v-67l-10 -134h-94
l-10 134v67z" />
    <glyph glyph-name="Dcroat" unicode="&#x110;" horiz-adv-x="667" 
d="M-20 336v74h65v322h343q211 0 242 -250q7 -53 7 -119q0 -190 -61 -276.5t-188 -86.5h-343v336h-65zM239 164h129q42 0 58.5 46t16.5 143.5t-9.5 143.5t-24.5 58.5t-41 12.5h-129v-158h89v-74h-89v-172z" />
    <glyph glyph-name="dcroat" unicode="&#x111;" horiz-adv-x="572" 
d="M62.5 54.5q-40.5 60.5 -40.5 212t34 212t138 60.5q75 0 132 -30v87h-94v74h94v115h194v-115h60v-74h-60v-596h-166l-28 49q-33 -28 -62 -41.5t-70 -13.5q-91 0 -131.5 60.5zM226 376q-10 -24 -10 -101.5t10 -100.5t34 -23q53 0 66 22v212q-14 15 -66 15q-24 0 -34 -24z
" />
    <glyph glyph-name="Emacron" unicode="&#x112;" horiz-adv-x="567" 
d="M160 797v93h292v-93h-292zM40 161v401q0 170 186 170q210 0 327 -16v-163h-267q-24 0 -36.5 -9.5t-14 -19t-1.5 -27.5v-44l269 -11v-161l-269 -9v-44q0 -38 21 -46q17 -6 41 -6h257v-162q-101 -13 -261 -16l-56 -1h-19.5t-30 1.5t-47 11.5t-49.5 26.5t-35.5 48.5
t-14.5 76z" />
    <glyph glyph-name="emacron" unicode="&#x113;" horiz-adv-x="525" 
d="M124 596v93h292v-93h-292zM493 23q-56 -28 -207 -28h-83q-98 0 -136.5 65t-38.5 192t23.5 184.5t70.5 78t129 20.5t123 -6t73 -27t44 -60t12 -111t-40 -104t-117 -32h-124q0 -30 14 -47q9 -11 42 -11l65 1q75 0 150 11v-126zM280 318q13 0 21 9t8 31t-5.5 32.5t-34 10.5
t-38 -13.5t-9.5 -59.5v-10h58z" />
    <glyph glyph-name="Edotaccent" unicode="&#x116;" horiz-adv-x="567" 
d="M260 820v94q0 25 24 25h90q23 0 23 -25v-94q0 -23 -23 -23h-90q-24 0 -24 23zM40 161v401q0 170 186 170q210 0 327 -16v-163h-267q-24 0 -36.5 -9.5t-14 -19t-1.5 -27.5v-44l269 -11v-161l-269 -9v-44q0 -38 21 -46q17 -6 41 -6h257v-162q-101 -13 -261 -16l-56 -1
h-19.5t-30 1.5t-47 11.5t-49.5 26.5t-35.5 48.5t-14.5 76z" />
    <glyph glyph-name="edotaccent" unicode="&#x117;" horiz-adv-x="525" 
d="M202 619v94q0 25 24 25h90q10 0 16 -7t6 -18v-94q0 -23 -22 -23h-90q-11 0 -17.5 6.5t-6.5 16.5zM493 23q-56 -28 -207 -28h-83q-98 0 -136.5 65t-38.5 192t23.5 184.5t70.5 78t129 20.5t123 -6t73 -27t44 -60t12 -111t-40 -104t-117 -32h-124q0 -30 14 -47q9 -11 42 -11
l65 1q75 0 150 11v-126zM280 318q13 0 21 9t8 31t-5.5 32.5t-34 10.5t-38 -13.5t-9.5 -59.5v-10h58z" />
    <glyph glyph-name="Eogonek" unicode="&#x118;" horiz-adv-x="567" 
d="M484 15h69q-61 -42 -29 -83q17 -22 42 -18v-90q-15 -5 -26 -5t-25 1.5t-32 12.5q-60 38 -60 92.5t61 89.5zM40 161v401q0 170 186 170q210 0 327 -16v-163h-267q-24 0 -36.5 -9.5t-14 -19t-1.5 -27.5v-44l269 -11v-161l-269 -9v-44q0 -38 21 -46q17 -6 41 -6h257v-162
q-101 -13 -261 -16l-56 -1h-19.5t-30 1.5t-47 11.5t-49.5 26.5t-35.5 48.5t-14.5 76z" />
    <glyph glyph-name="eogonek" unicode="&#x119;" horiz-adv-x="525" 
d="M506 -168q-16 -5 -28 -5t-28.5 4t-38.5 18q-43 27 -49 82v14.5t15 35t47 42.5h69q-22 -15 -31.5 -31.5t-7.5 -29t10 -22.5q18 -22 42 -18v-90zM493 23q-56 -28 -207 -28h-83q-98 0 -136.5 65t-38.5 192t23.5 184.5t70.5 78t129 20.5t123 -6t73 -27t44 -60t12 -111
t-40 -104t-117 -32h-124q0 -30 14 -47q9 -11 42 -11l65 1q75 0 150 11v-126zM280 318q13 0 21 9t8 31t-5.5 32.5t-34 10.5t-38 -13.5t-9.5 -59.5v-10h58z" />
    <glyph glyph-name="Ecaron" unicode="&#x11a;" horiz-adv-x="567" 
d="M162 937h111l49 -51l50 51h112l-100 -140h-131zM40 161v401q0 170 186 170q210 0 327 -16v-163h-267q-24 0 -36.5 -9.5t-14 -19t-1.5 -27.5v-44l269 -11v-161l-269 -9v-44q0 -38 21 -46q17 -6 41 -6h257v-162q-101 -13 -261 -16l-56 -1h-19.5t-30 1.5t-47 11.5
t-49.5 26.5t-35.5 48.5t-14.5 76z" />
    <glyph glyph-name="ecaron" unicode="&#x11b;" horiz-adv-x="525" 
d="M114 736h111l49 -51l50 51h112l-100 -140h-131zM493 23q-56 -28 -207 -28h-83q-98 0 -136.5 65t-38.5 192t23.5 184.5t70.5 78t129 20.5t123 -6t73 -27t44 -60t12 -111t-40 -104t-117 -32h-124q0 -30 14 -47q9 -11 42 -11l65 1q75 0 150 11v-126zM280 318q13 0 21 9t8 31
t-5.5 32.5t-34 10.5t-38 -13.5t-9.5 -59.5v-10h58z" />
    <glyph glyph-name="Gcircumflex" unicode="&#x11c;" horiz-adv-x="615" 
d="M171 800l100 140h131l91 -140h-111l-49 51l-50 -51h-112zM35.5 249.5q-4.5 51.5 -4.5 131t10.5 142.5t36.5 115q52 102 196 102q122 0 163.5 -5t140.5 -32v-149q-1 0 -15 2.5t-37.5 5.5t-51.5 6q-76 8 -142 8t-86.5 -41.5t-20.5 -167.5t15 -160t79 -34q28 0 46 11.5
t22 23.5l4 11v75h-49v120q47 25 175 25q32 0 68 -3v-436h-137l-55 49q-22 -29 -45 -39q-32 -16 -89.5 -16t-97.5 17.5t-65.5 50t-40.5 84.5t-19.5 103.5z" />
    <glyph glyph-name="gcircumflex" unicode="&#x11d;" horiz-adv-x="566" 
d="M119 596l100 140h131l91 -140h-111l-49 51l-50 -51h-112zM25 92q0 78 64 104q-59 38 -59 148q0 189 193 189h332v-106l-41 -18q11 -32 11 -101.5t-43.5 -114t-151.5 -44.5h-84.5t-33.5 -0.5t-7.5 -1.5t-5.5 -3q-5 -3 -5 -13t6 -15q7 -6 34 -6h122q180 0 180 -173v-53
q0 -154 -180 -154h-150q-75 0 -122.5 39t-47.5 115v53l52 35q-25 11 -44 41.5t-19 78.5zM231 -85q0 -26 8.5 -33.5t35.5 -7.5h28q31 0 35 10q5 11 5 26v23q0 13 -10.5 22t-28.5 10h-73v-50zM231 378.5q-7 -10.5 -7 -39.5t9.5 -37.5t32.5 -8.5h22q26 0 34.5 8.5t8.5 40
t-10.5 39.5t-33.5 8h-24q-25 0 -32 -10.5z" />
    <glyph glyph-name="Gbreve" unicode="&#x11e;" horiz-adv-x="615" 
d="M204 914h67q0 -47 48 -47t48 47h67q0 -51 -31.5 -82.5t-84 -31.5t-83.5 31.5t-31 82.5zM35.5 249.5q-4.5 51.5 -4.5 131t10.5 142.5t36.5 115q52 102 196 102q122 0 163.5 -5t140.5 -32v-149q-1 0 -15 2.5t-37.5 5.5t-51.5 6q-76 8 -142 8t-86.5 -41.5t-20.5 -167.5
t15 -160t79 -34q28 0 46 11.5t22 23.5l4 11v75h-49v120q47 25 175 25q32 0 68 -3v-436h-137l-55 49q-22 -29 -45 -39q-32 -16 -89.5 -16t-97.5 17.5t-65.5 50t-40.5 84.5t-19.5 103.5z" />
    <glyph glyph-name="gbreve" unicode="&#x11f;" horiz-adv-x="566" 
d="M167 710h67q0 -47 48 -47t48 47h67q0 -51 -31.5 -82.5t-84 -31.5t-83.5 31.5t-31 82.5zM25 92q0 78 64 104q-59 38 -59 148q0 189 193 189h332v-106l-41 -18q11 -32 11 -101.5t-43.5 -114t-151.5 -44.5h-84.5t-33.5 -0.5t-7.5 -1.5t-5.5 -3q-5 -3 -5 -13t6 -15
q7 -6 34 -6h122q180 0 180 -173v-53q0 -154 -180 -154h-150q-75 0 -122.5 39t-47.5 115v53l52 35q-25 11 -44 41.5t-19 78.5zM231 -85q0 -26 8.5 -33.5t35.5 -7.5h28q31 0 35 10q5 11 5 26v23q0 13 -10.5 22t-28.5 10h-73v-50zM231 378.5q-7 -10.5 -7 -39.5t9.5 -37.5
t32.5 -8.5h22q26 0 34.5 8.5t8.5 40t-10.5 39.5t-33.5 8h-24q-25 0 -32 -10.5z" />
    <glyph glyph-name="Gdotaccent" unicode="&#x120;" horiz-adv-x="615" 
d="M256 823v94q0 25 24 25h90q23 0 23 -25v-94q0 -23 -23 -23h-90q-24 0 -24 23zM35.5 249.5q-4.5 51.5 -4.5 131t10.5 142.5t36.5 115q52 102 196 102q122 0 163.5 -5t140.5 -32v-149q-1 0 -15 2.5t-37.5 5.5t-51.5 6q-76 8 -142 8t-86.5 -41.5t-20.5 -167.5t15 -160
t79 -34q28 0 46 11.5t22 23.5l4 11v75h-49v120q47 25 175 25q32 0 68 -3v-436h-137l-55 49q-22 -29 -45 -39q-32 -16 -89.5 -16t-97.5 17.5t-65.5 50t-40.5 84.5t-19.5 103.5z" />
    <glyph glyph-name="gdotaccent" unicode="&#x121;" horiz-adv-x="566" 
d="M215 619v94q0 25 24 25h90q23 0 23 -25v-94q0 -23 -23 -23h-90q-24 0 -24 23zM25 92q0 78 64 104q-59 38 -59 148q0 189 193 189h332v-106l-41 -18q11 -32 11 -101.5t-43.5 -114t-151.5 -44.5h-84.5t-33.5 -0.5t-7.5 -1.5t-5.5 -3q-5 -3 -5 -13t6 -15q7 -6 34 -6h122
q180 0 180 -173v-53q0 -154 -180 -154h-150q-75 0 -122.5 39t-47.5 115v53l52 35q-25 11 -44 41.5t-19 78.5zM231 -85q0 -26 8.5 -33.5t35.5 -7.5h28q31 0 35 10q5 11 5 26v23q0 13 -10.5 22t-28.5 10h-73v-50zM231 378.5q-7 -10.5 -7 -39.5t9.5 -37.5t32.5 -8.5h22
q26 0 34.5 8.5t8.5 40t-10.5 39.5t-33.5 8h-24q-25 0 -32 -10.5z" />
    <glyph glyph-name="Gcommaaccent" unicode="&#x122;" horiz-adv-x="615" 
d="M234 -206v103q0 24 23 24h100q21 0 21 -24v-135q0 -31 -14.5 -49.5t-34.5 -23t-39 -4.5h-2q-21 0 -35 4l-14 4v56q23 -1 26 9q2 4 2 10v4h-10q-23 0 -23 22zM35.5 249.5q-4.5 51.5 -4.5 131t10.5 142.5t36.5 115q52 102 196 102q122 0 163.5 -5t140.5 -32v-149
q-1 0 -15 2.5t-37.5 5.5t-51.5 6q-76 8 -142 8t-86.5 -41.5t-20.5 -167.5t15 -160t79 -34q28 0 46 11.5t22 23.5l4 11v75h-49v120q47 25 175 25q32 0 68 -3v-436h-137l-55 49q-22 -29 -45 -39q-32 -16 -89.5 -16t-97.5 17.5t-65.5 50t-40.5 84.5t-19.5 103.5z" />
    <glyph glyph-name="gcommaaccent" unicode="&#x123;" horiz-adv-x="566" 
d="M317 747v-5h10q23 0 23 -22v-103q0 -24 -23 -24h-100q-21 0 -21 24v135q0 32 14.5 50.5t34.5 22.5t39 4h2q21 0 35 -4l14 -3v-56q-23 1 -26 -10q-2 -3 -2 -9zM30 344q0 189 193 189h332v-106l-41 -18q11 -32 11 -81.5t-9 -77.5t-30 -52q-43 -49 -156 -49h-96h-8.5h-9
t-8 -1t-7.5 -3q-7 -5 -7 -11.5t1 -10t3.5 -5.5t4.5 -3.5t6.5 -2t7 -1t8.5 -1t9 -0.5l130 -13q69 -7 99 -21.5t43 -33.5q30 -42 30 -125v-33q0 -72 -43 -113t-137 -41h-150q-75 0 -122.5 39t-47.5 115v64l62 33q-73 31 -73 114.5t64 100.5q-30 19 -44.5 60.5t-14.5 87.5z
M231 -85q0 -33 17 -38q8 -3 27 -3h28q31 0 35 10q5 11 5 26v13q0 23 -39 26l-33 3l-40 3v-40zM226 371q-2 -10 -2 -36q0 -52 42 -52h22q24 0 33.5 13t9.5 40t-3 39t-10 16q-10 8 -31 8h-24q-17 0 -26 -9t-11 -19z" />
    <glyph glyph-name="Hcircumflex" unicode="&#x124;" horiz-adv-x="636" 
d="M163 797l100 140h131l91 -140h-111l-49 51l-50 -51h-112zM45 0v732h194v-291h170v291h194v-732h-194v267h-170v-267h-194z" />
    <glyph glyph-name="hcircumflex" unicode="&#x125;" 
d="M-101 842l100 140h131l91 -140h-111l-49 51l-50 -51h-112zM-43 0v782h193v-303q19 19 34 29.5t45 21t74 10.5t76 -14.5t47 -44.5t20 -61.5t5 -79.5v-340h-194v344q0 30 -8 41t-25 11q-57 0 -73 -37v-359h-194z" />
    <glyph glyph-name="Hbar" unicode="&#x126;" horiz-adv-x="710" 
d="M11 516v74h65v142h194v-142h170v142h194v-142h65v-74h-65v-516h-194v267h-170v-267h-194v516h-65zM270 441h170v75h-170v-75z" />
    <glyph glyph-name="hbar" unicode="&#x127;" horiz-adv-x="581" 
d="M0 600v74h60v108h193v-108h95v-74h-95v-121q10 6 30 21t31 22q31 18 83.5 18t84.5 -14.5t47 -44.5t20 -61.5t5 -79.5v-340h-194v344q0 30 -8 41t-25 11q-57 0 -73 -37v-359h-194v600h-60z" />
    <glyph glyph-name="Itilde" unicode="&#x128;" horiz-adv-x="272" 
d="M91 938q23 0 55 -17.5t51 -17.5h7q48 0 86 40l26 -74q-48 -72 -112 -72q-22 0 -59.5 17.5t-56.5 17.5q-48 0 -93 -35l-27 67q51 74 123 74zM45 0v732h194v-732h-194z" />
    <glyph glyph-name="itilde" unicode="&#x129;" horiz-adv-x="261" 
d="M80 737q22 0 54 -17.5t52 -17.5h7q48 0 86 40l26 -74q-48 -72 -112 -72q-22 0 -59.5 17.5t-56.5 17.5q-48 0 -93 -35l-27 67q51 74 123 74zM34 0v531h194v-531h-194z" />
    <glyph glyph-name="Imacron" unicode="&#x12a;" horiz-adv-x="272" 
d="M-4 797v93h292v-93h-292zM45 0v732h194v-732h-194z" />
    <glyph glyph-name="imacron" unicode="&#x12b;" horiz-adv-x="261" 
d="M-15 596v93h292v-93h-292zM34 0v531h194v-531h-194z" />
    <glyph glyph-name="Iogonek" unicode="&#x12e;" horiz-adv-x="272" 
d="M118 1h68q-60 -42 -29 -84q17 -22 43 -17v-90q-16 -5 -27 -5t-25 1t-32 13q-59 38 -59 92.5t61 89.5zM45 0v732h194v-732h-194z" />
    <glyph glyph-name="iogonek" unicode="&#x12f;" horiz-adv-x="252" 
d="M96 1h70q-61 -42 -30 -84q17 -22 42 -17v-90q-15 -5 -26 -5t-25 1t-32 13q-59 38 -59 92.5t60 89.5zM28 604v117q0 25 24 25h150q22 0 22 -25v-117q0 -23 -22 -23h-150q-24 0 -24 23zM29 0v531h194v-531h-194z" />
    <glyph glyph-name="Idotaccent" unicode="&#x130;" horiz-adv-x="272" 
d="M74 820v94q0 25 24 25h90q10 0 16 -7t6 -18v-94q0 -23 -22 -23h-90q-11 0 -17.5 6.5t-6.5 16.5zM45 0v732h194v-732h-194z" />
    <glyph glyph-name="dotlessi" unicode="&#x131;" horiz-adv-x="261" 
d="M34 0v531h194v-531h-194z" />
    <glyph glyph-name="Jcircumflex" unicode="&#x134;" horiz-adv-x="355" 
d="M64 797l100 140h131l91 -140h-111l-49 51l-50 -51h-112zM268 18q-37 -22 -120 -22t-128 29v154q40 0 61.5 3.5t32 17t12.5 28t2 48.5v456h194v-567q0 -112 -54 -147z" />
    <glyph glyph-name="jcircumflex" unicode="&#x135;" horiz-adv-x="264" 
d="M-22 594l100 140h130l92 -140h-112l-50 51l-48 -51h-112zM42 -270v801h194v-535v-14q0 -172 -46 -252h-148z" />
    <glyph glyph-name="Kcommaaccent" unicode="&#x136;" horiz-adv-x="660" 
d="M245 -200v102q0 24 23 24h100q21 0 21 -24v-135q0 -31 -14.5 -49.5t-34.5 -23t-39 -4.5h-2q-21 0 -35 4l-14 4v56q23 -1 26 9q2 4 2 9v5h-10q-23 0 -23 23zM45 0v732h184v-288h40l149 288h223l-201 -368l201 -364h-223l-149 280h-39v-280h-185z" />
    <glyph glyph-name="kcommaaccent" unicode="&#x137;" horiz-adv-x="605" 
d="M216 -200v102q0 24 23 24h100q21 0 21 -24v-135q0 -31 -14.5 -49.5t-34.5 -23t-39 -4.5h-2q-21 0 -35 4l-14 4v56q19 -1 23 4q5 7 5 14v5h-10q-23 0 -23 23zM34 0v782h194v-420h20l108 169h238l-169 -236l169 -295h-227l-119 228h-20v-228h-194z" />
    <glyph glyph-name="kgreenlandic" unicode="&#x138;" horiz-adv-x="611" 
d="M34 0v531h195v-201h23l118 201h230l-173 -267l149 -264h-221l-106 196h-20v-196h-195z" />
    <glyph glyph-name="Lacute" unicode="&#x139;" horiz-adv-x="526" 
d="M88 797l76 143h146l-114 -143h-108zM45 156v576h194v-506q0 -38 21 -46q17 -6 41 -6h206v-174h-296q-74 0 -120 38t-46 118z" />
    <glyph glyph-name="lacute" unicode="&#x13a;" horiz-adv-x="325" 
d="M76 843l78 143h144l-112 -143h-110zM34 189v594h194v-554q0 -62 17 -81q7 -7 34.5 -21t34.5 -14v-113h-138q-73 0 -107.5 43t-34.5 146z" />
    <glyph glyph-name="Lcommaaccent" unicode="&#x13b;" horiz-adv-x="526" 
d="M209 -196v103q0 24 23 24h100q21 0 21 -24v-135q0 -31 -14.5 -49.5t-34.5 -23t-39 -4.5h-2q-21 0 -35 4l-14 4v56q19 -1 23 4q5 7 5 15v4h-10q-23 0 -23 22zM45 156v576h194v-506q0 -38 21 -46q17 -6 41 -6h206v-174h-296q-74 0 -120 38t-46 118z" />
    <glyph glyph-name="lcommaaccent" unicode="&#x13c;" horiz-adv-x="325" 
d="M102 -196v102q0 24 23 24h100q21 0 21 -24v-135q0 -31 -14.5 -49.5t-34.5 -23t-39 -4.5h-2q-21 0 -35 4l-14 4v56q19 -1 23 4q5 7 5 14v5h-10q-23 0 -23 23zM34 189v594h194v-554q0 -62 17 -81q7 -7 34.5 -21t34.5 -14v-113h-138q-73 0 -107.5 43t-34.5 146z" />
    <glyph glyph-name="Lcaron" unicode="&#x13d;" horiz-adv-x="526" 
d="M45 156v576h194v-506q0 -38 21 -46q17 -6 41 -6h206v-174h-296q-74 0 -120 38t-46 118zM289 772h114v-67l-10 -134h-93l-11 134v67z" />
    <glyph glyph-name="lcaron" unicode="&#x13e;" horiz-adv-x="406" 
d="M34 189v594h194v-554q0 -62 17 -81q7 -7 34.5 -21t34.5 -14v-113h-138q-73 0 -107.5 43t-34.5 146zM284 782h114v-67l-10 -134h-93l-11 134v67z" />
    <glyph glyph-name="Lslash" unicode="&#x141;" horiz-adv-x="582" 
d="M102 732h194v-244l90 38v-81l-90 -38v-181q0 -38 21 -46q16 -6 41 -6h206v-174h-296q-74 0 -120 38t-46 118v168l-74 -31v81l74 31v327z" />
    <glyph glyph-name="lslash" unicode="&#x142;" horiz-adv-x="380" 
d="M82 783h194v-255l93 40v-81l-93 -40v-218q0 -62 17 -81q7 -7 34.5 -21t34.5 -14v-113h-138q-73 0 -107.5 43t-34.5 146v176l-71 -30v81l71 30v337z" />
    <glyph glyph-name="Nacute" unicode="&#x143;" horiz-adv-x="677" 
d="M290 797l77 143h145l-113 -143h-109zM45 0v732h196l209 -374v374h194v-732h-194l-210 364v-364h-195z" />
    <glyph glyph-name="nacute" unicode="&#x144;" 
d="M226 600l78 143h144l-112 -143h-110zM34 0v531h162l32 -52q22 21 35.5 31t43 20t73.5 10t76 -14.5t47 -44.5t20 -61.5t5 -79.5v-340h-194v344q0 30 -8 41t-25 11q-57 0 -73 -37v-359h-194z" />
    <glyph glyph-name="Ncommaaccent" unicode="&#x145;" horiz-adv-x="677" 
d="M266 -200v102q0 24 23 24h100q21 0 21 -24v-135q0 -31 -14.5 -49.5t-34.5 -23t-39 -4.5h-2q-21 0 -35 4l-14 4v56q23 -1 26 9q2 4 2 9v5h-10q-23 0 -23 23zM45 0v732h196l209 -374v374h194v-732h-194l-210 364v-364h-195z" />
    <glyph glyph-name="ncommaaccent" unicode="&#x146;" 
d="M202 -200v102q0 24 23 24h100q21 0 21 -24v-135q0 -31 -14.5 -49.5t-34.5 -23t-39 -4.5h-2q-21 0 -35 4l-14 4v56q19 -1 23 4q5 7 5 14v5h-10q-23 0 -23 23zM34 0v531h162l32 -52q22 21 35.5 31t43 20t73.5 10t76 -14.5t47 -44.5t20 -61.5t5 -79.5v-340h-194v344
q0 30 -8 41t-25 11q-57 0 -73 -37v-359h-194z" />
    <glyph glyph-name="Ncaron" unicode="&#x147;" horiz-adv-x="677" 
d="M184 937h110l50 -51l50 51h112l-100 -140h-132zM45 0v732h196l209 -374v374h194v-732h-194l-210 364v-364h-195z" />
    <glyph glyph-name="ncaron" unicode="&#x148;" 
d="M120 740h111l49 -51l50 51h112l-100 -140h-131zM34 0v531h162l32 -52q22 21 35.5 31t43 20t73.5 10t76 -14.5t47 -44.5t20 -61.5t5 -79.5v-340h-194v344q0 30 -8 41t-25 11q-57 0 -73 -37v-359h-194z" />
    <glyph glyph-name="Eng" unicode="&#x14a;" horiz-adv-x="677" 
d="M45 0v732h196l209 -374v374h194v-796q0 -197 -219 -197q-30 0 -65 4v137q71 0 84 26q6 13 6 34v60l-210 364v-364h-195z" />
    <glyph glyph-name="eng" unicode="&#x14b;" horiz-adv-x="561" 
d="M34 0v531h162l32 -52q10 6 30 21t31 22q31 18 83 18t84 -14.5t47 -44.5t20 -61.5t5 -79.5v-340l-1 -50q0 -50 -17 -90.5t-42 -63.5q-72 -64 -157 -64h-7l-40 108q44 12 56.5 29t13.5 77v398q0 30 -8 41t-25 11q-57 0 -73 -37v-359h-194z" />
    <glyph glyph-name="Omacron" unicode="&#x14c;" horiz-adv-x="667" 
d="M194 797v93h292v-93h-292zM46.5 218.5q-9.5 60.5 -9.5 137.5t8.5 133.5t22 96t36 67.5t46 44t56.5 25q52 15 113.5 15t92 -3t64 -12t57 -25t45.5 -44t36 -67q29 -87 29 -203.5t-15 -183.5t-39 -106t-65 -61t-82.5 -29t-97 -7t-90 4t-72.5 16.5t-62 37.5t-44 64.5
t-29.5 100zM240.5 494q-9.5 -42 -9.5 -147t19 -141t87 -36t90 38t22 129t-4 128t-16.5 60.5t-32.5 30.5t-61.5 7t-63 -13.5t-31 -55.5z" />
    <glyph glyph-name="omacron" unicode="&#x14d;" horiz-adv-x="554" 
d="M131 596v93h292v-93h-292zM83 54.5q-55 59.5 -55 211.5t54.5 211t194.5 59t194.5 -60t54.5 -213.5t-53.5 -210.5t-194 -57t-195.5 59.5zM228.5 372q-6.5 -20 -6.5 -107t8.5 -106.5t47.5 -19.5t46.5 17t7.5 105.5t-7.5 109.5t-48.5 21t-47.5 -20z" />
    <glyph glyph-name="Ohungarumlaut" unicode="&#x150;" horiz-adv-x="667" 
d="M199 797l77 143h145l-113 -143h-109zM372 797l77 143h145l-113 -143h-109zM46.5 218.5q-9.5 60.5 -9.5 137.5t8.5 133.5t22 96t36 67.5t46 44t56.5 25q52 15 113.5 15t92 -3t64 -12t57 -25t45.5 -44t36 -67q29 -87 29 -203.5t-15 -183.5t-39 -106t-65 -61t-82.5 -29
t-97 -7t-90 4t-72.5 16.5t-62 37.5t-44 64.5t-29.5 100zM240.5 494q-9.5 -42 -9.5 -147t19 -141t87 -36t90 38t22 129t-4 128t-16.5 60.5t-32.5 30.5t-61.5 7t-63 -13.5t-31 -55.5z" />
    <glyph glyph-name="ohungarumlaut" unicode="&#x151;" horiz-adv-x="554" 
d="M136 596l77 143h145l-113 -143h-109zM309 596l77 143h145l-113 -143h-109zM83 54.5q-55 59.5 -55 211.5t54.5 211t194.5 59t194.5 -60t54.5 -213.5t-53.5 -210.5t-194 -57t-195.5 59.5zM228.5 372q-6.5 -20 -6.5 -107t8.5 -106.5t47.5 -19.5t46.5 17t7.5 105.5
t-7.5 109.5t-48.5 21t-47.5 -20z" />
    <glyph glyph-name="OE" unicode="&#x152;" horiz-adv-x="971" 
d="M240.5 494q-9.5 -42 -9.5 -147t19 -141t87 -36t89.5 37.5t21.5 159.5t-20 159t-88 37q-47 0 -68.5 -13.5t-31 -55.5zM46 218q-9 61 -9 138t8.5 133.5t22 96t36 67.5t46 44t56.5 25q52 15 150.5 15t157.5 -30q40 25 102 25h18q190 0 307 -16v-163h-247q-24 0 -36.5 -9.5
t-14 -19t-1.5 -27.5v-44l249 -11v-161l-249 -9v-44q0 -38 21 -46q17 -6 41 -6h237v-162q-101 -13 -245 -16l-52 -1q-12 -1 -23 -1q-71 0 -113 27q-58 -27 -168 -27q-164 0 -220 58q-57 59 -74 164z" />
    <glyph glyph-name="oe" unicode="&#x153;" horiz-adv-x="829" 
d="M797 23q-56 -28 -207 -28h-89t-84 20q-51 -20 -140 -20q-139 0 -194 59.5t-55 211.5t54.5 211t194.5 59q93 0 145 -24q47 23 131 23t125 -6t73 -27t44 -60t12 -111t-40 -104t-117 -32h-124q0 -30 14 -47q9 -11 42 -11l65 1q75 0 150 11v-126zM228.5 372
q-6.5 -20 -6.5 -107t8.5 -106.5t47.5 -19.5t46.5 18t7.5 62v49q0 84 -8 104t-48.5 20t-47 -20zM584 318q13 0 21 9t8 31t-5.5 32.5t-34 10.5t-38 -13.5t-9.5 -59.5v-10h58z" />
    <glyph glyph-name="Racute" unicode="&#x154;" horiz-adv-x="619" 
d="M261 797l77 143h145l-113 -143h-109zM44 0v732h327q106 0 165 -53.5t59 -181.5q0 -125 -35 -169q-19 -22 -33.5 -31.5t-39.5 -19.5l126 -277h-221l-94 259l-60 14v-273h-194zM239 419h107q35 0 44.5 17t9.5 57t-11.5 57t-42.5 17h-107v-148z" />
    <glyph glyph-name="racute" unicode="&#x155;" horiz-adv-x="410" 
d="M158 596l76 143h146l-114 -143h-108zM34 0v531h172l22 -67q14 29 45.5 50.5t66 21.5t50.5 -5v-186h-79q-64 0 -77 -25q-6 -14 -6 -35v-285h-194z" />
    <glyph glyph-name="Rcommaaccent" unicode="&#x156;" horiz-adv-x="619" 
d="M226 -194v103q0 24 23 24h100q21 0 21 -24v-135q0 -31 -14.5 -49.5t-34.5 -23t-39 -4.5h-2q-21 0 -35 4l-14 4v56q23 -1 26 9q2 4 2 10v4h-10q-23 0 -23 22zM44 0v732h327q106 0 165 -53.5t59 -181.5q0 -125 -35 -169q-19 -22 -33.5 -31.5t-39.5 -19.5l126 -277h-221
l-94 259l-60 14v-273h-194zM239 419h107q35 0 44.5 17t9.5 57t-11.5 57t-42.5 17h-107v-148z" />
    <glyph glyph-name="rcommaaccent" unicode="&#x157;" horiz-adv-x="410" 
d="M44 -200v102q0 24 23 24h100q21 0 21 -24v-135q0 -31 -14.5 -49.5t-34.5 -23t-39 -4.5h-2q-21 0 -35 4l-14 4v56q23 -1 26 9q2 4 2 9v5h-10q-23 0 -23 23zM26 0v531h172l22 -67q14 29 45.5 50.5t66 21.5t50.5 -5v-186h-79q-64 0 -77 -25q-6 -14 -6 -35v-285h-194z" />
    <glyph glyph-name="Rcaron" unicode="&#x158;" horiz-adv-x="619" 
d="M159 937h111l49 -51l50 51h112l-100 -140h-131zM44 0v732h327q106 0 165 -53.5t59 -181.5q0 -125 -35 -169q-19 -22 -33.5 -31.5t-39.5 -19.5l126 -277h-221l-94 259l-60 14v-273h-194zM239 419h107q35 0 44.5 17t9.5 57t-11.5 57t-42.5 17h-107v-148z" />
    <glyph glyph-name="rcaron" unicode="&#x159;" horiz-adv-x="410" 
d="M51 736h111l49 -51l50 51h112l-100 -140h-131zM34 0v531h172l22 -67q14 29 45.5 50.5t66 21.5t50.5 -5v-186h-79q-64 0 -77 -25q-6 -14 -6 -35v-285h-194z" />
    <glyph glyph-name="Sacute" unicode="&#x15a;" horiz-adv-x="596" 
d="M252 799l77 143h145l-113 -143h-109zM37 479v61q0 94 54.5 143t143.5 55q39 3 76 3q137 0 234 -36v-151q-91 10 -240 10q-44 0 -59 -7t-15 -37v-11q0 -26 11 -37t49 -11h94q119 0 165 -103q22 -50 22 -109v-33q0 -224 -203 -224q-146 0 -191 4.5t-118 29.5v151
q110 -11 259 -11q32 0 45.5 9.5t13.5 31.5v16q0 23 -11 33.5t-42 10.5h-90q-54 0 -93.5 18t-58.5 42t-31 57q-15 46 -15 95z" />
    <glyph glyph-name="sacute" unicode="&#x15b;" horiz-adv-x="511" 
d="M207 596l77 143h145l-113 -143h-109zM22 338v46q0 68 33 110t105 42q190 0 238.5 -9t63.5 -27v-114h-224q-15 0 -18.5 -4.5t-3.5 -13.5v-6q0 -14 10 -16h12h100q79 0 114.5 -39.5t35.5 -104.5v-59q0 -76 -38 -112t-92 -36h-66t-96 1t-89.5 9.5t-62.5 26.5v114h232
q12 0 15 4t3 13v5q0 10 -3.5 14t-14.5 4h-96q-73 0 -115.5 38.5t-42.5 113.5z" />
    <glyph glyph-name="Scircumflex" unicode="&#x15c;" horiz-adv-x="596" 
d="M146 799l100 140h131l91 -140h-111l-49 51l-50 -51h-112zM37 479v61q0 94 54.5 143t143.5 55q39 3 76 3q137 0 234 -36v-151q-91 10 -240 10q-44 0 -59 -7t-15 -37v-11q0 -26 11 -37t49 -11h94q119 0 165 -103q22 -50 22 -109v-33q0 -224 -203 -224q-146 0 -191 4.5
t-118 29.5v151q110 -11 259 -11q32 0 45.5 9.5t13.5 31.5v16q0 23 -11 33.5t-42 10.5h-90q-54 0 -93.5 18t-58.5 42t-31 57q-15 46 -15 95z" />
    <glyph glyph-name="scircumflex" unicode="&#x15d;" horiz-adv-x="511" 
d="M96 596l100 140h131l91 -140h-111l-49 51l-50 -51h-112zM22 338v46q0 68 33 110t105 42q190 0 238.5 -9t63.5 -27v-114h-224q-15 0 -18.5 -4.5t-3.5 -13.5v-6q0 -14 10 -16h12h100q79 0 114.5 -39.5t35.5 -104.5v-59q0 -76 -38 -112t-92 -36h-66t-96 1t-89.5 9.5
t-62.5 26.5v114h232q12 0 15 4t3 13v5q0 10 -3.5 14t-14.5 4h-96q-73 0 -115.5 38.5t-42.5 113.5z" />
    <glyph glyph-name="Scedilla" unicode="&#x15e;" horiz-adv-x="596" 
d="M261 -43h117q0 -78 -26.5 -112t-94.5 -34h-61v79l37 15q21 9 24.5 16t3.5 36zM37 479v61q0 94 54.5 143t143.5 55q39 3 76 3q137 0 234 -36v-151q-91 10 -240 10q-44 0 -59 -7t-15 -37v-11q0 -26 11 -37t49 -11h94q119 0 165 -103q22 -50 22 -109v-33q0 -224 -203 -224
q-146 0 -191 4.5t-118 29.5v151q110 -11 259 -11q32 0 45.5 9.5t13.5 31.5v16q0 23 -11 33.5t-42 10.5h-90q-54 0 -93.5 18t-58.5 42t-31 57q-15 46 -15 95z" />
    <glyph glyph-name="scedilla" unicode="&#x15f;" horiz-adv-x="511" 
d="M22 338v46q0 68 33 110t105 42q190 0 238.5 -9t63.5 -27v-114h-224q-15 0 -18.5 -4.5t-3.5 -13.5v-6q0 -14 10 -16h12h100q79 0 114.5 -39.5t35.5 -104.5v-59q0 -76 -38 -112t-92 -36h-66t-96 1t-89.5 9.5t-62.5 26.5v114h232q12 0 15 4t3 13v5q0 10 -3.5 14t-14.5 4h-96
q-73 0 -115.5 38.5t-42.5 113.5zM205 -39h117q0 -78 -26.5 -112t-94.5 -34h-61v79l37 15q21 9 24.5 16t3.5 36z" />
    <glyph glyph-name="Scaron" unicode="&#x160;" horiz-adv-x="596" 
d="M153 939h111l49 -51l50 51h112l-100 -140h-131zM37 479v61q0 94 54.5 143t143.5 55q39 3 76 3q137 0 234 -36v-151q-91 10 -240 10q-44 0 -59 -7t-15 -37v-11q0 -26 11 -37t49 -11h94q119 0 165 -103q22 -50 22 -109v-33q0 -224 -203 -224q-146 0 -191 4.5t-118 29.5v151
q110 -11 259 -11q32 0 45.5 9.5t13.5 31.5v16q0 23 -11 33.5t-42 10.5h-90q-54 0 -93.5 18t-58.5 42t-31 57q-15 46 -15 95z" />
    <glyph glyph-name="scaron" unicode="&#x161;" horiz-adv-x="511" 
d="M102 736h111l49 -51l50 51h112l-100 -140h-131zM22 338v46q0 68 33 110t105 42q190 0 238.5 -9t63.5 -27v-114h-224q-15 0 -18.5 -4.5t-3.5 -13.5v-6q0 -14 10 -16h12h100q79 0 114.5 -39.5t35.5 -104.5v-59q0 -76 -38 -112t-92 -36h-66t-96 1t-89.5 9.5t-62.5 26.5v114
h232q12 0 15 4t3 13v5q0 10 -3.5 14t-14.5 4h-96q-73 0 -115.5 38.5t-42.5 113.5z" />
    <glyph glyph-name="Tcommaaccent" unicode="&#x162;" horiz-adv-x="607" 
d="M20 558v174h568v-174h-190v-558h-194v558h-184zM246 -49h117q0 -78 -26.5 -112t-94.5 -34h-61v79l37 15q21 9 24.5 16t3.5 36z" />
    <glyph glyph-name="tcommaaccent" unicode="&#x163;" horiz-adv-x="385" 
d="M11 398v96l75 38l28 148h166v-148h89v-134h-89v-168q0 -49 8.5 -68t27.5 -29q42 -21 49 -21v-113h-150q-63 0 -96 44.5t-33 146.5v208h-75zM162 -51h117q0 -78 -26.5 -112t-94.5 -34h-61v79l37 15q21 9 24.5 16t3.5 36z" />
    <glyph glyph-name="Tcaron" unicode="&#x164;" horiz-adv-x="607" 
d="M143 937h111l49 -51l50 51h112l-100 -140h-131zM20 558v174h568v-174h-190v-558h-194v558h-184z" />
    <glyph glyph-name="tcaron" unicode="&#x165;" horiz-adv-x="451" 
d="M11 398v96l75 38l28 148h166v-148h89v-134h-89v-168q0 -49 8.5 -68t27.5 -29q42 -21 49 -21v-113h-150q-63 0 -96 44.5t-33 146.5v208h-75zM326 801h114v-67l-10 -134h-93l-11 134v67z" />
    <glyph glyph-name="Tbar" unicode="&#x166;" horiz-adv-x="590" 
d="M11 558v174h568v-174h-190v-134h80v-74h-80v-350h-194v350h-80v74h80v134h-184z" />
    <glyph glyph-name="tbar" unicode="&#x167;" horiz-adv-x="380" 
d="M11 398v96l75 38l28 148h166v-148h89v-134h-89v-76h64v-74h-64v-18q0 -49 8.5 -68t27.5 -29q42 -21 49 -21v-113h-150q-63 0 -96 44.5t-33 146.5v58h-62v74h62v76h-75z" />
    <glyph glyph-name="Utilde" unicode="&#x168;" horiz-adv-x="655" 
d="M282 938q23 0 55 -17.5t51 -17.5h6q49 0 88 40l26 -74q-48 -72 -112 -72q-22 0 -60 17.5t-61 17.5q-43 0 -89 -35l-26 67q51 74 122 74zM45 320v412h194v-412q0 -102 22 -126q24 -25 75 -25q47 0 70 27q21 22 21 124v412h195v-412q0 -156 -48 -228q-16 -25 -31 -40.5
t-38.5 -27t-40 -17t-44.5 -8.5q-36 -4 -61.5 -4h-55.5t-58.5 2t-73 18.5t-67.5 49t-41 97t-18 158.5z" />
    <glyph glyph-name="utilde" unicode="&#x169;" 
d="M224 737q22 0 54 -17.5t52 -17.5h7q48 0 86 40l26 -74q-48 -72 -112 -72q-22 0 -59.5 17.5t-56.5 17.5q-48 0 -93 -35l-27 67q51 74 123 74zM28 191v340h194v-344q0 -30 8 -41t25 -11q57 0 73 37v359h194v-531h-162l-32 52q-10 -6 -30 -21t-31 -21q-31 -19 -83 -19
t-84 14.5t-47 44.5t-20 61.5t-5 79.5z" />
    <glyph glyph-name="Umacron" unicode="&#x16a;" horiz-adv-x="655" 
d="M188 797v93h292v-93h-292zM45 320v412h194v-412q0 -102 22 -126q24 -25 75 -25q47 0 70 27q21 22 21 124v412h195v-412q0 -156 -48 -228q-16 -25 -31 -40.5t-38.5 -27t-40 -17t-44.5 -8.5q-36 -4 -61.5 -4h-55.5t-58.5 2t-73 18.5t-67.5 49t-41 97t-18 158.5z" />
    <glyph glyph-name="umacron" unicode="&#x16b;" 
d="M129 596v93h292v-93h-292zM28 191v340h194v-344q0 -30 8 -41t25 -11q57 0 73 37v359h194v-531h-162l-32 52q-10 -6 -30 -21t-31 -21q-31 -19 -83 -19t-84 14.5t-47 44.5t-20 61.5t-5 79.5z" />
    <glyph glyph-name="Ubreve" unicode="&#x16c;" horiz-adv-x="655" 
d="M286 911q0 -47 48 -47t48 47h66q0 -70 -54 -100q-26 -14 -61 -14t-61 14q-54 30 -54 100h68zM45 320v412h194v-412q0 -102 22 -126q24 -25 75 -25q47 0 70 27q21 22 21 124v412h195v-412q0 -156 -48 -228q-16 -25 -31 -40.5t-38.5 -27t-40 -17t-44.5 -8.5
q-36 -4 -61.5 -4h-55.5t-58.5 2t-73 18.5t-67.5 49t-41 97t-18 158.5z" />
    <glyph glyph-name="ubreve" unicode="&#x16d;" 
d="M160 710h67q0 -47 48 -47t48 47h67q0 -51 -31.5 -82.5t-84 -31.5t-83.5 31.5t-31 82.5zM28 191v340h194v-344q0 -30 8 -41t25 -11q57 0 73 37v359h194v-531h-162l-32 52q-10 -6 -30 -21t-31 -21q-31 -19 -83 -19t-84 14.5t-47 44.5t-20 61.5t-5 79.5z" />
    <glyph glyph-name="Uring" unicode="&#x16e;" horiz-adv-x="655" 
d="M232 899q0 43 30 73t72 30t71.5 -30t29.5 -73t-29.5 -72.5t-71.5 -29.5t-72 29.5t-30 72.5zM300 899q0 -14 10 -23.5t24 -9.5t23.5 9.5t9.5 23.5t-9.5 24t-23.5 10t-24 -10t-10 -24zM45 320v412h194v-412q0 -102 22 -126q24 -25 75 -25q47 0 70 27q21 22 21 124v412h195
v-412q0 -156 -48 -228q-16 -25 -31 -40.5t-38.5 -27t-40 -17t-44.5 -8.5q-36 -4 -61.5 -4h-55.5t-58.5 2t-73 18.5t-67.5 49t-41 97t-18 158.5z" />
    <glyph glyph-name="uring" unicode="&#x16f;" 
d="M182 658q-8 19 -8 43.5t13.5 48t37 37.5t51 14t51 -14t36.5 -37.5t13 -51.5t-13 -51.5t-36.5 -37t-47.5 -13.5t-43 8t-32.5 21.5t-21.5 32.5zM251.5 722q-9.5 -10 -9.5 -21.5t4 -19.5q10 -16 27 -16t26 9.5t9 23.5t-9 24t-23.5 10t-24 -10zM28 191v340h194v-344
q0 -30 8 -41t25 -11q57 0 73 37v359h194v-531h-162l-32 52q-10 -6 -30 -21t-31 -21q-31 -19 -83 -19t-84 14.5t-47 44.5t-20 61.5t-5 79.5z" />
    <glyph glyph-name="Uhungarumlaut" unicode="&#x170;" horiz-adv-x="655" 
d="M192 797l78 143h144l-112 -143h-110zM366 797l76 143h146l-114 -143h-108zM45 320v412h194v-412q0 -102 22 -126q24 -25 75 -25q47 0 70 27q21 22 21 124v412h195v-412q0 -156 -48 -228q-16 -25 -31 -40.5t-38.5 -27t-40 -17t-44.5 -8.5q-36 -4 -61.5 -4h-55.5t-58.5 2
t-73 18.5t-67.5 49t-41 97t-18 158.5z" />
    <glyph glyph-name="uhungarumlaut" unicode="&#x171;" 
d="M134 596l77 143h145l-113 -143h-109zM307 596l77 143h145l-113 -143h-109zM28 191v340h194v-344q0 -30 8 -41t25 -11q57 0 73 37v359h194v-531h-162l-32 52q-10 -6 -30 -21t-31 -21q-31 -19 -83 -19t-84 14.5t-47 44.5t-20 61.5t-5 79.5z" />
    <glyph glyph-name="Uogonek" unicode="&#x172;" horiz-adv-x="655" 
d="M386 -191q-16 -5 -28 -5t-28.5 4t-38.5 18q-43 27 -49 82v14.5t15 35t47 42.5h69q-22 -15 -31.5 -31.5t-7.5 -29t10 -22.5q18 -22 42 -18v-90zM45 320v412h194v-412q0 -102 22 -126q24 -25 75 -25q47 0 70 27q21 22 21 124v412h195v-412q0 -156 -48 -228
q-16 -25 -31 -40.5t-38.5 -27t-40 -17t-44.5 -8.5q-36 -4 -61.5 -4h-55.5t-58.5 2t-73 18.5t-67.5 49t-41 97t-18 158.5z" />
    <glyph glyph-name="uogonek" unicode="&#x173;" 
d="M410 -2h69q-44 -30 -39 -64q3 -17 15 -26q20 -14 37 -11v-90q-15 -5 -26 -5t-25 1t-32 13q-60 38 -60 92.5t61 89.5zM28 191v340h194v-344q0 -30 8 -41t25 -11q57 0 73 37v359h194v-531h-162l-32 52q-10 -6 -30 -21t-31 -21q-31 -19 -83 -19t-84 14.5t-47 44.5t-20 61.5
t-5 79.5z" />
    <glyph glyph-name="Wcircumflex" unicode="&#x174;" horiz-adv-x="1018" 
d="M362 797l100 140h131l91 -140h-111l-49 51l-50 -51h-112zM25 732h204l121 -494l91 494h204l-37 -152l102 -342l91 494h204l-179 -732h-234l-67 239l-59 -239h-234z" />
    <glyph glyph-name="wcircumflex" unicode="&#x175;" horiz-adv-x="847" 
d="M273 596l100 140h131l91 -140h-111l-49 51l-50 -51h-112zM11 531h206l65 -322l60 322h188l-23 -121l65 -201l58 322h207l-146 -531h-224l-48 137l-38 -137h-224z" />
    <glyph glyph-name="Ycircumflex" unicode="&#x176;" horiz-adv-x="679" 
d="M184 797l100 140h131l91 -140h-111l-49 51l-50 -51h-112zM434 0h-194v200l-215 532h211l105 -324l113 324h211l-231 -532v-200z" />
    <glyph glyph-name="ycircumflex" unicode="&#x177;" horiz-adv-x="599" 
d="M136 596l100 140h132l90 -140h-110l-50 51l-50 -51h-112zM12 531h201l61 -336q7 -37 43 -39l69 375h197l-143 -699l-71 -102h-144l59 270q-154 0 -189 156z" />
    <glyph glyph-name="Ydieresis" unicode="&#x178;" horiz-adv-x="679" 
d="M152 863q0 27 19.5 46t46.5 19t46 -19t19 -46t-19 -46.5t-46 -19.5t-46.5 19.5t-19.5 46.5zM407 863q0 27 19.5 46t46.5 19t46 -19t19 -46t-19 -46.5t-46 -19.5t-46.5 19.5t-19.5 46.5zM434 0h-194v200l-215 532h211l105 -324l113 324h211l-231 -532v-200z" />
    <glyph glyph-name="Zacute" unicode="&#x179;" horiz-adv-x="552" 
d="M222 797l77 143h145l-113 -143h-109zM20 0v174l286 384h-286v174h513v-174l-256 -384h256v-174h-513z" />
    <glyph glyph-name="zacute" unicode="&#x17a;" horiz-adv-x="489" 
d="M190 596l78 143h144l-112 -143h-110zM17 377v154h456v-154l-181 -222h181v-154h-441v152l197 224h-212z" />
    <glyph glyph-name="Zdotaccent" unicode="&#x17b;" horiz-adv-x="552" 
d="M208 820v94q0 25 24 25h90q23 0 23 -25v-94q0 -23 -23 -23h-90q-24 0 -24 23zM20 0v174l286 384h-286v174h513v-174l-256 -384h256v-174h-513z" />
    <glyph glyph-name="zdotaccent" unicode="&#x17c;" horiz-adv-x="489" 
d="M176 619v94q0 25 24 25h90q11 0 17.5 -7t6.5 -18v-94q0 -23 -24 -23h-90q-10 0 -17 6.5t-7 16.5zM17 377v154h456v-154l-181 -222h181v-154h-441v152l197 224h-212z" />
    <glyph glyph-name="Zcaron" unicode="&#x17d;" horiz-adv-x="552" 
d="M116 937h110l50 -51l50 51h112l-100 -140h-132zM20 0v174l286 384h-286v174h513v-174l-256 -384h256v-174h-513z" />
    <glyph glyph-name="zcaron" unicode="&#x17e;" horiz-adv-x="489" 
d="M84 736h111l49 -51l50 51h112l-100 -140h-131zM17 377v154h456v-154l-181 -222h181v-154h-441v152l197 224h-212z" />
    <glyph glyph-name="florin" unicode="&#x192;" horiz-adv-x="594" 
d="M70 -60q56 0 78 66q11 31 19 82l42 269h-74l21 134h74l3 15q21 133 76 213.5t139 80.5q79 0 126 -20q8 -4 9 -5l-18 -119h-38q-47 0 -67.5 -36.5t-32.5 -113.5l-3 -15h95l-21 -134h-95l-42 -269q-22 -144 -73.5 -218t-139.5 -74q-103 0 -137 25l19 119h40z" />
    <glyph glyph-name="circumflex" unicode="&#x2c6;" horiz-adv-x="378" 
d="M28 531l100 140h131l91 -140h-111l-49 51l-50 -51h-112z" />
    <glyph glyph-name="caron" unicode="&#x2c7;" horiz-adv-x="378" 
d="M28 671h111l49 -51l50 51h112l-100 -140h-131z" />
    <glyph glyph-name="breve" unicode="&#x2d8;" horiz-adv-x="285" 
d="M28 644h67q0 -47 48 -47t48 47h67q0 -51 -31.5 -82.5t-84 -31.5t-83.5 31.5t-31 82.5z" />
    <glyph glyph-name="dotaccent" unicode="&#x2d9;" horiz-adv-x="193" 
d="M28 536v94q0 25 24 25h90q23 0 23 -25v-94q0 -23 -23 -23h-90q-24 0 -24 23z" />
    <glyph glyph-name="ring" unicode="&#x2da;" horiz-adv-x="259" 
d="M28 632q0 43 30 73t72 30t71.5 -30t29.5 -73t-29.5 -72.5t-71.5 -29.5t-72 29.5t-30 72.5zM96 632q0 -14 10 -23.5t24 -9.5t23.5 9.5t9.5 23.5t-9.5 24t-23.5 10t-24 -10t-10 -24z" />
    <glyph glyph-name="ogonek" unicode="&#x2db;" horiz-adv-x="197" 
d="M170 -191q-16 -5 -28 -5t-28.5 4t-38.5 18q-43 27 -49 82v14.5t15 35t47 42.5h69q-22 -15 -31.5 -31.5t-7.5 -29t10 -22.5q18 -22 42 -18v-90z" />
    <glyph glyph-name="tilde" unicode="&#x2dc;" horiz-adv-x="404" 
d="M151 672q23 0 55 -17.5t51 -17.5h7q48 0 86 40l26 -74q-48 -72 -112 -72q-22 0 -59.5 17.5t-56.5 17.5q-48 0 -93 -35l-27 67q51 74 123 74z" />
    <glyph glyph-name="hungarumlaut" unicode="&#x2dd;" horiz-adv-x="419" 
d="M11 531l77 143h145l-113 -143h-109zM184 531l77 143h145l-113 -143h-109z" />
    <glyph glyph-name="uni0338" unicode="&#x338;" horiz-adv-x="621" 
d="M39 192v338q0 98 50 150t144 52h164q185 0 185 -192v-348q0 -90 -48.5 -141t-137.5 -51h-164q-96 0 -144.5 50t-48.5 142zM233 500v-192l133 244q-11 6 -26 6h-57q-50 0 -50 -58zM290 174h42q29 0 42.5 10.5t13.5 47.5v203l-137 -251q13 -10 39 -10z" />
    <glyph glyph-name="Omega" unicode="&#x3a9;" horiz-adv-x="751" 
d="M36 398q0 129 71 228q37 51 106 82t161 31t158.5 -28t103.5 -77q74 -98 74 -241q0 -80 -20 -126.5t-63 -99.5l88 -10v-157h-268v168q39 39 54 91.5t15 100t-3 69.5t-12 47.5t-23.5 44t-41 31.5t-60.5 13q-146 0 -146 -185q0 -73 14.5 -121t57.5 -91v-168h-260v158l93 10
q-99 68 -99 230z" />
    <glyph glyph-name="pi" unicode="&#x3c0;" horiz-adv-x="650" 
d="M11 357v174h580v-174h-59v-151q0 -42 14.5 -54t54.5 -12h38v-114q-46 -31 -138 -31q-163 0 -163 201v161h-67v-357h-194v357h-66z" />
    <glyph glyph-name="uni1E02" unicode="&#x1e02;" horiz-adv-x="611" 
d="M244 820v94q0 25 24 25h90q11 0 17.5 -7t6.5 -18v-94q0 -23 -24 -23h-90q-10 0 -17 6.5t-7 16.5zM45 0v732h318q220 0 220 -200q0 -53 -28.5 -100.5t-78.5 -51.5q55 -9 90 -53.5t35 -102.5q0 -120 -57 -172t-176 -52h-323zM239 164h119q27 0 38 17.5t11 52.5q0 72 -49 72
h-119v-142zM239 460h109q22 0 33.5 14.5t11.5 36.5q0 57 -45 57h-109v-108z" />
    <glyph glyph-name="uni1E03" unicode="&#x1e03;" horiz-adv-x="559" 
d="M52 868v94q0 25 24 25h90q23 0 23 -25v-94q0 -23 -23 -23h-90q-24 0 -24 23zM24 0v785h194v-276q57 30 132 30q103 0 137.5 -62.5t34.5 -209.5t-41 -210t-131 -63q-41 0 -69 13.5t-62 41.5l-29 -49h-166zM284 151q24 0 34 23t10 100.5t-10 101.5t-34 24q-51 0 -65 -15
v-212q13 -22 65 -22z" />
    <glyph glyph-name="uni1E0A" unicode="&#x1e0a;" horiz-adv-x="667" 
d="M244 820v94q0 25 24 25h90q23 0 23 -25v-94q0 -23 -23 -23h-90q-24 0 -24 23zM45 0v732h343q211 0 242 -250q7 -53 7 -119q0 -190 -61 -276.5t-188 -86.5h-343zM239 164h129q42 0 58.5 46t16.5 143.5t-9.5 143.5t-24.5 58.5t-41 12.5h-129v-404z" />
    <glyph glyph-name="uni1E0B" unicode="&#x1e0b;" horiz-adv-x="559" 
d="M362 868v94q0 25 24 25h90q23 0 23 -25v-94q0 -23 -23 -23h-90q-24 0 -24 23zM68.5 54.5q-40.5 60.5 -40.5 212t34 212t138 60.5q75 0 132 -30v276h194v-785h-166l-29 49q-34 -28 -62 -41.5t-69 -13.5q-91 0 -131.5 60.5zM232 376q-10 -24 -10 -101.5t10 -100.5t34 -23
q52 0 65 22v212q-14 15 -65 15q-24 0 -34 -24z" />
    <glyph glyph-name="uni1E1E" unicode="&#x1e1e;" horiz-adv-x="567" 
d="M244 820v94q0 25 24 25h90q23 0 23 -25v-94q0 -23 -23 -23h-90q-24 0 -24 23zM40 0v558q0 98 62 139q52 35 124 35q210 0 327 -16v-163h-267q-24 0 -36.5 -9.5t-14 -19t-1.5 -27.5v-44l269 -11v-161l-269 -9v-272h-194z" />
    <glyph glyph-name="uni1E1F" unicode="&#x1e1f;" horiz-adv-x="407" 
d="M167 869v94q0 25 24 25h90q23 0 23 -25v-94q0 -23 -23 -23h-90q-24 0 -24 23zM11 397v117l72 17v99q0 87 44.5 121.5t133 34.5t135.5 -24v-111l-73 1q-17 0 -26.5 -2.5t-14.5 -13.5q-5 -12 -5 -66v-39h98v-134h-98v-397h-194v397h-72z" />
    <glyph glyph-name="uni1E40" unicode="&#x1e40;" horiz-adv-x="886" 
d="M374 820v94q0 25 24 25h90q11 0 17.5 -7t6.5 -18v-94q0 -23 -24 -23h-90q-10 0 -17 6.5t-7 16.5zM31 0l78 732h270l62 -411l66 411h270l79 -732h-191l-50 399l-61 -399h-222l-64 399l-46 -399h-191z" />
    <glyph glyph-name="uni1E41" unicode="&#x1e41;" horiz-adv-x="857" 
d="M354 623v94q0 25 24 25h90q23 0 23 -25v-94q0 -23 -23 -23h-90q-24 0 -24 23zM527 366l1 -26v-340h-194v344q0 30 -8 41t-25 11q-57 0 -73 -37v-359h-194v531h162l32 -52q24 22 37 31.5t42 19.5t67 10q96 0 130 -61q31 20 49 29.5t52.5 20.5t77.5 11t75 -14.5t47 -44.5
t20 -61.5t5 -79.5v-340h-194v344q0 30 -8 41t-25 11q-57 0 -76 -30z" />
    <glyph glyph-name="uni1E56" unicode="&#x1e56;" horiz-adv-x="620" 
d="M206 820v94q0 25 24 25h90q23 0 23 -25v-94q0 -23 -23 -23h-90q-24 0 -24 23zM44 0v732h326q123 0 176 -62q22 -24 36 -69t14 -109t-15 -113t-37.5 -74.5t-55 -39.5t-53.5 -16t-36 -2t-36 1.5t-71 9.5t-54 10v-268h-194zM238 412h112q51 0 51 77.5t-51 77.5h-112v-155z
" />
    <glyph glyph-name="uni1E57" unicode="&#x1e57;" horiz-adv-x="559" 
d="M215 620v94q0 25 24 25h90q23 0 23 -25v-94q0 -23 -23 -23h-90q-24 0 -24 23zM34 -270v801h166l29 -49q34 28 62 41.5t69 13.5q90 0 131 -63.5t41 -205.5q0 -107 -15 -156t-34 -72q-41 -48 -119.5 -48t-135.5 30v-292h-194zM294 131q24 0 34 24t10 101.5t-10 100.5
t-34 23q-52 0 -65 -22v-212q14 -15 65 -15z" />
    <glyph glyph-name="uni1E60" unicode="&#x1e60;" horiz-adv-x="596" 
d="M222 822v94q0 25 24 25h90q23 0 23 -25v-94q0 -23 -23 -23h-90q-24 0 -24 23zM37 479v61q0 94 54.5 143t143.5 55q39 3 76 3q137 0 234 -36v-151q-91 10 -240 10q-44 0 -59 -7t-15 -37v-11q0 -26 11 -37t49 -11h94q119 0 165 -103q22 -50 22 -109v-33q0 -224 -203 -224
q-146 0 -191 4.5t-118 29.5v151q110 -11 259 -11q32 0 45.5 9.5t13.5 31.5v16q0 23 -11 33.5t-42 10.5h-90q-54 0 -93.5 18t-58.5 42t-31 57q-15 46 -15 95z" />
    <glyph glyph-name="uni1E61" unicode="&#x1e61;" horiz-adv-x="511" 
d="M187 619v94q0 25 24 25h90q23 0 23 -25v-94q0 -23 -23 -23h-90q-24 0 -24 23zM22 338v46q0 68 33 110t105 42q190 0 238.5 -9t63.5 -27v-114h-224q-15 0 -18.5 -4.5t-3.5 -13.5v-6q0 -14 10 -16h12h100q79 0 114.5 -39.5t35.5 -104.5v-59q0 -76 -38 -112t-92 -36h-66
t-96 1t-89.5 9.5t-62.5 26.5v114h232q12 0 15 4t3 13v5q0 10 -3.5 14t-14.5 4h-96q-73 0 -115.5 38.5t-42.5 113.5z" />
    <glyph glyph-name="uni1E6A" unicode="&#x1e6a;" horiz-adv-x="607" 
d="M236 820v94q0 25 24 25h90q10 0 16 -7t6 -18v-94q0 -23 -22 -23h-90q-11 0 -17.5 6.5t-6.5 16.5zM20 558v174h568v-174h-190v-558h-194v558h-184z" />
    <glyph glyph-name="uni1E6B" unicode="&#x1e6b;" horiz-adv-x="385" 
d="M114 763v94q0 25 24 25h90q11 0 17.5 -7t6.5 -18v-94q0 -23 -24 -23h-90q-10 0 -17 6.5t-7 16.5zM11 398v96l75 38l28 148h166v-148h89v-134h-89v-168q0 -49 8.5 -68t27.5 -29q42 -21 49 -21v-113h-150q-63 0 -96 44.5t-33 146.5v208h-75z" />
    <glyph glyph-name="Wgrave" unicode="&#x1e80;" horiz-adv-x="1018" 
d="M348 940h144l78 -143h-110zM25 732h204l121 -494l91 494h204l-37 -152l102 -342l91 494h204l-179 -732h-234l-67 239l-59 -239h-234z" />
    <glyph glyph-name="wgrave" unicode="&#x1e81;" horiz-adv-x="847" 
d="M258 739h145l77 -143h-109zM11 531h206l65 -322l60 322h188l-23 -121l65 -201l58 322h207l-146 -531h-224l-48 137l-38 -137h-224z" />
    <glyph glyph-name="Wacute" unicode="&#x1e82;" horiz-adv-x="1018" 
d="M460 797l78 143h144l-112 -143h-110zM25 732h204l121 -494l91 494h204l-37 -152l102 -342l91 494h204l-179 -732h-234l-67 239l-59 -239h-234z" />
    <glyph glyph-name="wacute" unicode="&#x1e83;" horiz-adv-x="847" 
d="M371 596l77 143h145l-113 -143h-109zM11 531h206l65 -322l60 322h188l-23 -121l65 -201l58 322h207l-146 -531h-224l-48 137l-38 -137h-224z" />
    <glyph glyph-name="Wdieresis" unicode="&#x1e84;" horiz-adv-x="1018" 
d="M315 863q0 27 19.5 46t46.5 19t46 -19t19 -46t-19 -46.5t-46 -19.5t-46.5 19.5t-19.5 46.5zM570 863q0 27 19.5 46t46.5 19t46 -19t19 -46t-19 -46.5t-46 -19.5t-46.5 19.5t-19.5 46.5zM25 732h204l121 -494l91 494h204l-37 -152l102 -342l91 494h204l-179 -732h-234
l-67 239l-59 -239h-234z" />
    <glyph glyph-name="wdieresis" unicode="&#x1e85;" horiz-adv-x="847" 
d="M234 662q0 27 19.5 46t46.5 19t46 -19t19 -46t-19 -46.5t-46 -19.5t-46.5 19.5t-19.5 46.5zM489 662q0 27 19.5 46t46.5 19t46 -19t19 -46t-19 -46.5t-46 -19.5t-46.5 19.5t-19.5 46.5zM11 531h206l65 -322l60 322h188l-23 -121l65 -201l58 322h207l-146 -531h-224
l-48 137l-38 -137h-224z" />
    <glyph glyph-name="Ygrave" unicode="&#x1ef2;" horiz-adv-x="679" 
d="M178 940h144l78 -143h-110zM434 0h-194v200l-215 532h211l105 -324l113 324h211l-231 -532v-200z" />
    <glyph glyph-name="ygrave" unicode="&#x1ef3;" horiz-adv-x="599" 
d="M130 739h145l77 -143h-109zM12 531h201l61 -336q7 -37 43 -39l69 375h197l-143 -699l-71 -102h-144l59 270q-154 0 -189 156z" />
    <glyph glyph-name="endash" unicode="&#x2013;" horiz-adv-x="513" 
d="M20 210v155h473v-155h-473z" />
    <glyph glyph-name="emdash" unicode="&#x2014;" horiz-adv-x="736" 
d="M20 212v155h696v-155h-696z" />
    <glyph glyph-name="quoteleft" unicode="&#x2018;" horiz-adv-x="250" 
d="M45 643q0 102 117 102q12 0 22 -2l16 -3v-72q-31 0 -31 -31v-15h11q25 0 25 -25v-114q0 -27 -25 -27h-111q-24 0 -24 27v160z" />
    <glyph glyph-name="quoteright" unicode="&#x2019;" horiz-adv-x="250" 
d="M205 557q0 -102 -117 -102q-12 0 -22 2l-16 3v72q31 0 31 31v15h-11q-25 0 -25 25v114q0 27 25 27h111q24 0 24 -27v-160z" />
    <glyph glyph-name="quotesinglbase" unicode="&#x201a;" horiz-adv-x="250" 
d="M205 -21q0 -102 -117 -102q-12 0 -22 2l-16 3v72q31 0 31 31v15h-11q-25 0 -25 25v114q0 27 25 27h111q24 0 24 -27v-160z" />
    <glyph glyph-name="quotedblleft" unicode="&#x201c;" horiz-adv-x="432" 
d="M232 641q0 102 117 102q12 0 22 -2l16 -3v-72q-31 0 -31 -31v-15h11q25 0 25 -25v-114q0 -27 -25 -27h-111q-24 0 -24 27v160zM41 641q0 102 117 102q12 0 22 -2l16 -3v-72q-31 0 -31 -31v-15h11q25 0 25 -25v-114q0 -27 -25 -27h-111q-24 0 -24 27v160z" />
    <glyph glyph-name="quotedblright" unicode="&#x201d;" horiz-adv-x="432" 
d="M201 555q0 -102 -117 -102q-12 0 -22 2l-16 3v72q31 0 31 31v15h-11q-25 0 -25 25v114q0 27 25 27h111q24 0 24 -27v-160zM392 555q0 -102 -117 -102q-12 0 -22 2l-16 3v72q31 0 31 31v15h-11q-25 0 -25 25v114q0 27 25 27h111q24 0 24 -27v-160z" />
    <glyph glyph-name="quotedblbase" unicode="&#x201e;" horiz-adv-x="432" 
d="M201 -21q0 -102 -117 -102q-12 0 -22 2l-16 3v72q31 0 31 31v15h-11q-25 0 -25 25v114q0 27 25 27h111q24 0 24 -27v-160zM392 -21q0 -102 -117 -102q-12 0 -22 2l-16 3v72q31 0 31 31v15h-11q-25 0 -25 25v114q0 27 25 27h111q24 0 24 -27v-160z" />
    <glyph glyph-name="dagger" unicode="&#x2020;" horiz-adv-x="486" 
d="M11 424v149l133 15l13 182h173l13 -182l132 -15v-149l-132 -15l-14 -481h-173l-12 481z" />
    <glyph glyph-name="daggerdbl" unicode="&#x2021;" horiz-adv-x="497" 
d="M11 124v149l136 19l-3 117l-133 15v149l133 15l13 182h173l13 -182l132 -15v-149l-132 -15l-3 -118l135 -18v-149l-141 -17l-5 -179h-173l-4 177z" />
    <glyph glyph-name="bullet" unicode="&#x2022;" horiz-adv-x="307" 
d="M48 306v150q0 35 33 35h144q35 0 35 -35v-150q0 -32 -35 -32h-144q-33 0 -33 32z" />
    <glyph glyph-name="ellipsis" unicode="&#x2026;" horiz-adv-x="801" 
d="M24 23v117q0 25 24 25h113q25 0 25 -25v-117q0 -23 -25 -23h-113q-24 0 -24 23zM296 23v117q0 25 24 25h113q25 0 25 -25v-117q0 -23 -25 -23h-113q-24 0 -24 23zM568 23v117q0 25 24 25h113q25 0 25 -25v-117q0 -23 -25 -23h-113q-24 0 -24 23z" />
    <glyph glyph-name="perthousand" unicode="&#x2030;" horiz-adv-x="1378" 
d="M24 484v113q0 66 33 100.5t106 34.5h101q137 0 137 -135v-113q0 -66 -33 -100.5t-106 -34.5h-101q-137 0 -137 135zM149 514q0 -20 7 -30t30 -10h51q23 0 31 10.5t8 29.5v53q0 24 -8.5 32t-28.5 8h-51q-19 0 -29 -8t-10 -32v-53zM192 0l454 732h124l-447 -732h-131z
M568 138v113q0 66 32.5 100.5t105.5 34.5h102q137 0 137 -135v-113q0 -66 -33 -100.5t-106 -34.5h-102q-136 0 -136 135zM693 168q0 -20 7 -30t30 -10h50q40 0 40 40v53q0 24 -9 32t-29 8h-50q-19 0 -29 -8t-10 -32v-53zM978 138v113q0 66 33 100.5t106 34.5h101
q137 0 137 -135v-113q0 -66 -33 -100.5t-106 -34.5h-101q-137 0 -137 135zM1103 168q0 -20 7 -30t30 -10h51q23 0 31 10.5t8 29.5v53q0 24 -8.5 32t-28.5 8h-51q-19 0 -29 -8t-10 -32v-53z" />
    <glyph glyph-name="guilsinglleft" unicode="&#x2039;" horiz-adv-x="356" 
d="M28 354l206 203l97 -95l-110 -108l111 -110l-93 -98z" />
    <glyph glyph-name="guilsinglright" unicode="&#x203a;" horiz-adv-x="356" 
d="M28 244l111 110l-110 108l97 95l206 -203l-211 -208z" />
    <glyph glyph-name="fraction" unicode="&#x2044;" horiz-adv-x="395" 
d="M-51 0l366 770h131l-366 -770h-131z" />
    <glyph glyph-name="zerosuperior" unicode="&#x2070;" horiz-adv-x="462" 
d="M34 483v225q0 65 36.5 99.5t104.5 34.5h119q135 0 135 -128v-231q0 -60 -35 -94t-100 -34h-120q-70 0 -105 33.5t-35 94.5zM180 521q0 -35 38 -35h28q20 0 28.5 6t8.5 28v157q0 34 -32 34h-38q-19 0 -25.5 -6.5t-7 -10.5t-0.5 -6v-167z" />
    <glyph glyph-name="foursuperior" unicode="&#x2074;" horiz-adv-x="442" 
d="M248 569v87l21 51h125v-138h40v-112l-40 -4v-96h-146v78h-216l-23 65l141 342h143l-109 -273h64z" />
    <glyph glyph-name="fivesuperior" unicode="&#x2075;" horiz-adv-x="414" 
d="M31 486h176q32 0 37 10q3 6 2 17v15q0 14 -7 20.5t-25 6.5h-29q-29 0 -29 -23h-124l15 310h322v-131h-197l-2 -48q27 17 71 17q14 0 30 -2q61 -5 91 -40.5t30 -92.5v-64q0 -65 -41.5 -97t-99.5 -32q-120 0 -220 18v116z" />
    <glyph glyph-name="sixsuperior" unicode="&#x2076;" horiz-adv-x="438" 
d="M30 611q0 216 125 233q31 5 86.5 5t155.5 -19v-111h-156q-46 0 -57 -20q-8 -15 -8 -47q29 16 104.5 16t105 -33.5t29.5 -95.5v-62q0 -122 -139 -122h-101q-48 0 -78 19.5t-48.5 77.5t-18.5 159zM176 545q0 -38 10 -48.5t43 -10.5h11q17 0 23 4.5t6 17.5v10q0 17 -3.5 22
t-21.5 5h-68z" />
    <glyph glyph-name="sevensuperior" unicode="&#x2077;" horiz-adv-x="423" 
d="M8 711v131h370l36 -59l-184 -428h-158l153 356h-217z" />
    <glyph glyph-name="eightsuperior" unicode="&#x2078;" horiz-adv-x="462" 
d="M37 474v35q0 29 13.5 51t42.5 26q-40 18 -49 45q-7 21 -7 56v43q0 116 143 116h113q67 0 100 -26.5t33 -87.5v-29q0 -34 -17 -53.5t-39 -22.5q56 -10 56 -96v-51q0 -75 -35 -100t-98 -25h-113q-108 0 -132 59q-11 26 -11 60zM183 502q0 -13 7 -18.5t24 -5.5h35
q20 0 25.5 6t5.5 18v21q0 12 -6 18t-24 6h-36q-19 0 -25 -6t-6 -18v-21zM183 684q0 -14 6.5 -18t24.5 -4h35q20 0 25.5 4.5t5.5 17.5v15q0 16 -7.5 20t-23.5 4h-35q-17 0 -24 -4t-7 -20v-15z" />
    <glyph glyph-name="ninesuperior" unicode="&#x2079;" horiz-adv-x="438" 
d="M25 662v63q0 125 140 125h100q36 0 61 -11t44 -39q40 -58 40 -198.5t-34 -193t-91 -61.5q-31 -5 -86.5 -5t-155.5 19v112h156q47 0 57 21q8 17 8 52q-29 -16 -104 -16t-105 34.5t-30 97.5zM171 684q0 -19 4 -24.5t22 -5.5h67q0 42 -10 53.5t-43 11.5h-11q-17 0 -23 -5
t-6 -20v-10z" />
    <glyph glyph-name="zeroinferior" unicode="&#x2080;" horiz-adv-x="462" 
d="M34 -72v225q0 65 36.5 99.5t104.5 34.5h119q135 0 135 -128v-231q0 -60 -35 -94t-100 -34h-120q-70 0 -105 33.5t-35 94.5zM180 -34q0 -35 38 -35h28q20 0 28.5 6t8.5 28v157q0 34 -32 34h-38q-19 0 -25.5 -6.5t-7 -10.5t-0.5 -7v-166z" />
    <glyph glyph-name="oneinferior" unicode="&#x2081;" horiz-adv-x="270" 
d="M234 287v-487h-146v365l-79 -13v80l81 55h144z" />
    <glyph glyph-name="twoinferior" unicode="&#x2082;" horiz-adv-x="417" 
d="M17 163v109q98 22 215 22q80 0 121 -41.5t41 -111.5q0 -90 -157 -210h157v-131h-373v126q60 35 143.5 101.5t83.5 94t-17 34.5t-62 7h-152z" />
    <glyph glyph-name="threeinferior" unicode="&#x2083;" horiz-adv-x="417" 
d="M173 -205q-89 0 -152 21l1 110h149q43 0 55 3t12 19v4q0 15 -13.5 19t-49.5 5l-112 5v118l112 8q57 0 63 11q2 4 2 12v4q0 16 -15.5 20t-49.5 4h-158v109q61 23 191 23q20 0 42 -1q60 -1 97 -33.5t37 -90.5v-26q0 -76 -63 -97q63 -17 63 -103v-19q0 -60 -36.5 -92.5
t-102.5 -32.5h-72z" />
    <glyph glyph-name="fourinferior" unicode="&#x2084;" horiz-adv-x="448" 
d="M254 14v87l21 51h125v-138h40v-112l-40 -4v-96h-146v78h-222l-23 65l141 342h149l-105 -273h60z" />
    <glyph glyph-name="fiveinferior" unicode="&#x2085;" horiz-adv-x="418" 
d="M373 287v-131h-199l-3 -48q27 17 72 17q15 0 31 -2q61 -5 91.5 -40.5t30.5 -92.5v-64q0 -65 -42.5 -97t-100.5 -32q-121 0 -222 18v116h179q37 0 40 14v5v23q0 14 -7 20.5t-25 6.5h-30q-30 0 -30 -11h-126l15 298h326z" />
    <glyph glyph-name="sixinferior" unicode="&#x2086;" horiz-adv-x="438" 
d="M30 56q0 216 125 233q31 5 86.5 5t155.5 -19v-111h-156q-46 0 -57 -20q-8 -15 -8 -47q29 16 104.5 16t105 -33.5t29.5 -95.5v-62q0 -122 -139 -122h-101q-48 0 -78 19.5t-48.5 77.5t-18.5 159zM176 -10q0 -38 10 -48.5t43 -10.5h11q17 0 23 4.5t6 17.5v10q0 17 -3.5 22
t-21.5 5h-68z" />
    <glyph glyph-name="seveninferior" unicode="&#x2087;" horiz-adv-x="423" 
d="M8 156v131h370l36 -59l-184 -428h-158l153 356h-217z" />
    <glyph glyph-name="eightinferior" unicode="&#x2088;" horiz-adv-x="462" 
d="M37 -46q0 69 56 77q-40 18 -49 45q-7 21 -7 56v43q0 116 143 116h113q67 0 100 -26.5t33 -87.5v-29q0 -33 -17 -53t-39 -23q56 -10 56 -96v-51q0 -75 -35 -100t-98 -25h-113q-108 0 -132 60q-11 25 -11 59v35zM183 -32v-21q0 -13 7 -18.5t24 -5.5h35q20 0 25.5 6t5.5 18
v21q0 12 -6 18t-24 6h-36q-19 0 -25 -6t-6 -18zM183 129q0 -14 6.5 -18t24.5 -4h35q20 0 25.5 4.5t5.5 17.5v15q0 16 -7.5 20t-23.5 4h-35q-17 0 -24 -4t-7 -20v-15z" />
    <glyph glyph-name="nineinferior" unicode="&#x2089;" horiz-adv-x="438" 
d="M25 107v63q0 125 140 125h100q48 0 78 -20t48.5 -79t18.5 -163q0 -219 -125 -238q-28 -5 -82 -5t-160 16v112h156q47 0 57 22q8 16 8 51q-29 -16 -104 -16t-105 34.5t-30 97.5zM171 129q0 -19 4 -24.5t22 -5.5h67q0 42 -10 53.5t-43 11.5h-11q-17 0 -23 -5t-6 -20v-10z
" />
    <glyph glyph-name="Euro" unicode="&#x20ac;" horiz-adv-x="623" 
d="M213.5 719q50.5 21 113 21t143.5 -9.5t138 -30.5v-139q-133 15 -196.5 15t-88.5 -4.5t-35.5 -19.5t-12.5 -27.5t-2 -44.5l234 -7v-86l-234 -7v-41l234 -7v-87q-31 0 -133 -3t-101 -4q0 -48 25 -71q17 -17 60 -19h42q65 0 176 20l36 7v-136q-47 -27 -111.5 -36t-131 -9
t-93.5 3.5t-65 18t-65.5 39t-47 72t-19.5 111.5l-68 7v87l68 7v41l-68 8v83l68 9q0 30 2.5 55.5t17 66t39.5 68.5t75.5 49z" />
    <glyph glyph-name="afii61289" unicode="&#x2113;" horiz-adv-x="524" 
d="M74 552q0 187 233 187q74 0 128.5 -46t54.5 -145q0 -50 -23.5 -99t-60.5 -87q-68 -69 -138 -108v-4q0 -26 2.5 -41t12.5 -34q20 -38 101 -50q53 -11 60 -11v-113h-208q-78 0 -120 40t-42 136v8q-9 -7 -34 -20l-23 93q25 23 57 56v238zM330 561q0 19 -19 29q-9 5 -18.5 5
t-17 -10.5t-7.5 -25.5v-123q46 52 61 114q1 6 1 11z" />
    <glyph glyph-name="afii61352" unicode="&#x2116;" horiz-adv-x="1143" 
d="M40 0v569q0 54 28 94q57 79 175 79q104 0 165 -66q32 -35 37 -83l43 -411q1 -9 7 -11.5t11.5 2.5t5.5 12v380q0 88 46 128.5t122 40.5h298q78 0 110 -39.5t32 -137.5t-35.5 -135t-126.5 -41h-26q-50 2 -75.5 7.5t-48 25t-30.5 57.5t-8 104h142q0 -43 4 -52.5t22 -9.5h14
q19 0 22.5 5.5t3.5 29.5t-0.5 30t-4.5 12.5t-11 7.5q-15 2 -91 2t-90.5 -0.5t-33 -4t-25.5 -10.5q-16 -18 -16 -54v-366q0 -51 -28 -90q-57 -80 -179 -80q-101 0 -157 66q-33 38 -38 92l-44 416q-2 13 -13.5 9t-11.5 -16v-562h-195z" />
    <glyph glyph-name="trademark" unicode="&#x2122;" horiz-adv-x="716" 
d="M11 638v94h299v-94h-92v-255h-114v255h-93zM309 383l47 349h121l33 -179l22 179h125l51 -349h-114l-20 170l-13 -170h-103l-20 168l-15 -168h-114z" />
    <glyph glyph-name="estimated" unicode="&#x212e;" horiz-adv-x="669" 
d="M636 258h-488q-3 0 -3 -11v-133q0 -25 56.5 -59t122.5 -34t117.5 23.5t84.5 60.5h56q-58 -61 -114.5 -83t-132.5 -22q-138 0 -219.5 75.5t-81.5 189.5t84 193q84 75 212 75t214 -66.5t92 -208.5zM145 284q0 -9 9 -9h357h7q6 4 6 7v133q0 32 -63 65.5t-120 33.5t-103 -19
t-69.5 -40t-23.5 -34v-137z" />
    <glyph glyph-name="partialdiff" unicode="&#x2202;" horiz-adv-x="625" 
d="M32 227q0 112 61 175t163 63q43 0 79 -14t49 -43q0 81 -22 119.5t-73 38.5t-104.5 -15.5t-85.5 -35.5l-23 147q119 78 219 78q142 0 213 -93t71 -260q0 -392 -294 -392q-106 0 -179.5 60t-73.5 172zM224 230q0 -31 20 -47.5t54 -16.5t51.5 38.5t17.5 73.5q-28 16 -69 16
q-74 0 -74 -64z" />
    <glyph glyph-name="uni2206" unicode="&#x2206;" horiz-adv-x="706" 
d="M11 0l311 732h74l299 -732h-684zM267 164h222l-113 267z" />
    <glyph glyph-name="product" unicode="&#x220f;" horiz-adv-x="656" 
d="M11 558v174h634v-174h-67v-558h-194v558h-113v-558h-194v558h-66z" />
    <glyph glyph-name="summation" unicode="&#x2211;" horiz-adv-x="559" 
d="M22 732h526v-174h-286l212 -288l-212 -293h286v-177h-526v177l214 293l-214 288v174z" />
    <glyph glyph-name="minus" unicode="&#x2212;" horiz-adv-x="456" 
d="M20 279v154h416v-154h-416z" />
    <glyph glyph-name="radical" unicode="&#x221a;" horiz-adv-x="685" 
d="M11 204v174h190l47 -115l213 537h213l-315 -800h-193l-103 204h-52z" />
    <glyph glyph-name="infinity" unicode="&#x221e;" horiz-adv-x="742" 
d="M28 341q0 173 166 173q56 0 96.5 -20.5t76.5 -66.5q50 87 181 87q166 0 166 -173q0 -77 -38.5 -124.5t-127.5 -47.5q-56 0 -99.5 17t-83.5 69q-34 -53 -71.5 -69.5t-99.5 -16.5q-89 0 -127.5 47.5t-38.5 124.5zM161 341q0 -49 46 -49q40 0 73 49q-13 20 -33 35t-45 15
t-33 -12t-8 -38zM533 292q48 0 48 49q0 25 -9.5 37.5t-38.5 12.5q-42 0 -75 -51q32 -48 75 -48z" />
    <glyph glyph-name="integral" unicode="&#x222b;" horiz-adv-x="443" 
d="M11 -60h40q50 0 63 49q10 40 10 99v418q0 133 42.5 213.5t126.5 80.5q78 0 115 -15q5 -2 14 -5.5t10 -4.5v-119h-38q-47 0 -61.5 -36.5t-14.5 -113.5v-418q0 -144 -39.5 -218t-126.5 -74q-103 0 -141 25v119z" />
    <glyph glyph-name="approxequal" unicode="&#x2248;" horiz-adv-x="492" 
d="M175 339q30 0 74.5 -18.5t76.5 -18.5t55.5 8.5t55.5 30.5l27 -79q-67 -75 -142 -75q-21 0 -69 19t-75.5 19t-46.5 -6t-42 -16.5t-40 -15.5l-21 81q73 71 147 71zM175 523q30 0 74.5 -18.5t76.5 -18.5t55.5 8.5t55.5 30.5l27 -79q-67 -75 -142 -75q-21 0 -69 19t-75.5 19
t-46.5 -6t-42 -16.5t-40 -15.5l-21 81q73 71 147 71z" />
    <glyph glyph-name="notequal" unicode="&#x2260;" horiz-adv-x="449" 
d="M11 162v154h153l37 65h-190v154h278l33 58h81l-33 -58h68v-154h-156l-37 -65h193v-154h-280l-39 -69h-81l39 69h-66z" />
    <glyph glyph-name="lessequal" unicode="&#x2264;" horiz-adv-x="430" 
d="M28 63v134h374v-134h-374zM28 346v170l375 110v-170l-185 -23l185 -33v-170z" />
    <glyph glyph-name="greaterequal" unicode="&#x2265;" horiz-adv-x="430" 
d="M28 63v134h375v-134h-375zM28 230v170l185 33l-185 23v170l375 -110v-170z" />
    <glyph glyph-name="lozenge" unicode="&#x25ca;" horiz-adv-x="504" 
d="M11 373l207 359h74l201 -359l-201 -373h-74zM190 373l65 -125l60 125l-60 116z" />
    <glyph glyph-name="f_f" unicode="&#xfb00;" horiz-adv-x="807" 
d="M11 397v117l99 17v89q0 62 40 109t126 47t137 -24v-112l-63 1h-3q-28 0 -35.5 -16t-7.5 -58v-36h179v99q0 87 44.5 121.5t133 34.5t135.5 -24v-111l-73 1q-17 0 -26.5 -2.5t-14.5 -13.5q-5 -12 -5 -66v-39h98v-134h-98v-397h-194v397h-181v-397h-194v397h-97z" />
    <glyph glyph-name="f_f_i" unicode="&#xfb03;" horiz-adv-x="1037" 
d="M11 397v117l99 17v89q0 62 40 109t126 47t137 -24v-112l-63 1h-2q-33 0 -40 -27q-3 -10 -5 -47v-36h171v29q0 94 64 158q66 68 187 68q52 0 139 -5.5t113 -18.5v-111l-193 1q-82 0 -106 -48q-10 -21 -10 -54v-19l336 -10v-521h-194v397h-142v-397h-194v397h-171v-397
h-195v397h-97z" />
    <glyph glyph-name="ffl" unicode="&#xfb04;" horiz-adv-x="1121" 
d="M11 397v117l99 17v89q0 62 40 109t126 47t137 -24v-112l-63 1h-4q-27 0 -34.5 -15.5t-8.5 -58.5v-36h176v39q0 133 68 178q33 22 69.5 30t86.5 8l322 -3v-554q0 -62 17 -81q7 -7 34.5 -21t34.5 -14v-113h-138q-73 0 -107.5 43t-34.5 146v462l-92 1q-37 0 -51.5 -17.5
t-14.5 -64.5v-39h98v-134h-98v-397h-194v397h-176v-397h-195v397h-97z" />
    <glyph glyph-name="s_t" unicode="&#xfb06;" horiz-adv-x="890" 
d="M358 -5h-35q-247 0 -279 37v114h232q12 0 15 4t3 13v5q0 10 -3.5 14t-14.5 4h-96q-73 0 -115.5 38.5t-42.5 113.5v46q0 65 37 106t111 41h424l28 148h166v-148h89v-134h-89v-168q0 -49 8.5 -68t27.5 -29q42 -21 49 -21v-113h-150q-63 0 -96 44.5t-33 146.5v197h-356
q-15 0 -18.5 -4.5t-3.5 -13.5v-6q0 -14 10 -16h12h100q79 0 114.5 -39.5t35.5 -104.5v-59q0 -76 -38 -112t-92 -36z" />
    <glyph glyph-name="exclamdown.alt" horiz-adv-x="277" 
d="M60 591v117q0 23 23 23h115q24 0 24 -23v-117q0 -25 -24 -25h-115q-23 0 -23 25zM46 0l21 535h146l17 -535h-184z" />
    <glyph glyph-name="zero.oldstyle" horiz-adv-x="621" 
d="M39 192v239q0 98 50 150t144 52h164q185 0 185 -192v-249q0 -90 -48.5 -141t-137.5 -51h-164q-96 0 -144.5 50t-48.5 142zM233 233q0 -26 10.5 -40t21 -16.5t25.5 -2.5h42q29 0 42.5 10.5t13.5 47.5v169q0 58 -48 58h-57q-50 0 -50 -58v-168z" />
    <glyph glyph-name="one.oldstyle" horiz-adv-x="376" 
d="M329 632v-632h-194v447l-118 -20v123l120 82h192z" />
    <glyph glyph-name="two.oldstyle" horiz-adv-x="583" 
d="M23 467v145q137 30 304 30q118 0 173 -48t55 -152q0 -39 -16 -77.5t-37 -66.5t-52 -55q-46 -41 -93 -69h198v-174h-525v168q87 44 177.5 102.5t122 91.5t31.5 61.5t-23.5 36t-91.5 7.5h-223z" />
    <glyph glyph-name="three.oldstyle" horiz-adv-x="586" 
d="M272 -102q-160 0 -238 28l1 147h218q63 0 80.5 7.5t17.5 40.5v9q0 32 -18.5 40t-73.5 11l-163 7v158l163 10q72 3 81 13q13 14 13 36v9q0 36 -29 44q-22 7 -65 7h-231v146q84 29 248 29q39 0 80 -1q85 -2 137 -50t52 -135v-39q0 -116 -84 -146q84 -27 84 -154v-29
q0 -90 -52 -139t-144 -49h-77z" />
    <glyph glyph-name="four.oldstyle" horiz-adv-x="635" 
d="M370 215v134l27 78h167v-212h60v-149l-60 -29v-135h-194v135h-325l-34 87l211 508h208l-157 -417h97z" />
    <glyph glyph-name="five.oldstyle" horiz-adv-x="602" 
d="M251 356q35 22 103 22l38 -2q84 -7 126 -60t42 -136v-94q0 -95 -60 -142.5t-153 -47.5t-151.5 4t-152.5 20v155h264q44 0 53 19q6 13 6 34v31q0 27 -10.5 40t-37.5 13h-44q-24 0 -34 -10.5t-10 -34.5h-186l22 465h463v-174h-274z" />
    <glyph glyph-name="six.oldstyle" horiz-adv-x="597" 
d="M46 223q-9 68 -9 162t14 162.5t39.5 106t53.5 55.5q48 31 156.5 31t240.5 -28v-148h-219q-65 0 -80 -38q-8 -20 -9.5 -37t-1.5 -52q26 14 56 17.5t97 3.5q102 0 141.5 -49t39.5 -140v-91q0 -179 -191 -179h-138q-39 0 -68 9.5t-54.5 35t-42 68.5t-25.5 111zM231 294
q0 -78 15 -99.5t65 -21.5h17q25 0 34 9.5t9 36.5v20q0 35 -6 45t-32 10h-102z" />
    <glyph glyph-name="seven.oldstyle" horiz-adv-x="561" 
d="M17 458v174h481l47 -78l-229 -654h-206l198 558h-291z" />
    <glyph glyph-name="eight.oldstyle" horiz-adv-x="617" 
d="M42 179v53q0 43 17.5 77t56.5 40q-58 31 -69 83q-5 24 -5 67v65q0 173 196 173h156q92 0 137 -40.5t45 -133.5v-44q0 -49 -27 -87q-18 -25 -48 -29q75 -14 75 -142v-76q0 -118 -56 -154q-28 -18 -57 -24.5t-70 -6.5h-155q-112 0 -156 50q-27 31 -32 58q-8 38 -8 71z
M236 210q0 -26 10.5 -36t36.5 -10h52q30 0 38.5 10.5t8.5 35.5v40q0 23 -9 35t-36 12h-54q-29 0 -38 -11.5t-9 -35.5v-40zM236 494q0 -28 10 -36t37 -8h52q31 0 39 9.5t8 34.5v30q0 43 -29 48q-6 1 -18 1h-52q-26 0 -36.5 -8.5t-10.5 -40.5v-30z" />
    <glyph glyph-name="nine.oldstyle" horiz-adv-x="597" 
d="M34 363v91q0 179 191 179h138q39 0 68 -9.5t54.5 -35t42.5 -68.5q34 -90 34 -272q0 -191 -54 -270q-25 -37 -53 -55q-48 -31 -156.5 -31t-240.5 28v148h219q65 0 80 38q8 20 9.5 37t1.5 52q-26 -14 -56 -17.5t-97 -3.5q-102 0 -141.5 49t-39.5 140zM228 393q0 -35 6 -45
t32 -10h102q0 78 -15 99.5t-65 21.5h-17q-25 0 -34 -9.5t-9 -36.5v-20z" />
    <glyph glyph-name="questiondown.alt" horiz-adv-x="544" 
d="M22 197v51q0 108 46 157.5t151 49.5h17v81h144v-222h-92q-38 -2 -55 -17t-17 -53v-15q0 -62 86 -62h232v-145q-117 -31 -240 -31q-21 0 -42 1q-107 0 -168.5 62.5t-61.5 142.5zM228 591v117q0 23 24 23h114q24 0 24 -23v-117q0 -25 -24 -25h-114q-24 0 -24 25z" />
    <glyph glyph-name="at.alt" horiz-adv-x="888" 
d="M37 412q0 102 56.5 163t181.5 61h173q114 0 154 -42q39 -41 39 -128v-342h-118l-24 54q-58 -63 -129.5 -63t-103 44t-31.5 103v33q0 143 159 143h103q1 15 0 16q0 24 -9.5 31t-34.5 7h-178q-44 0 -69 -18t-25 -72v-238q0 -61 28.5 -87t65.5 -26h319q58 0 80.5 28.5
t22.5 84.5v412q0 57 -28 88t-75 31h-404v117q132 27 306 27h12h86q95 0 166 -55q37 -28 59 -81.5t22 -126.5v-412q0 -136 -61 -197t-176 -61h-329q-103 0 -170.5 56t-67.5 182v268zM424 259q58 0 73 34v43l-78 -6q-17 -2 -23.5 -7t-6.5 -22q-1 -1 -1 -6t1 -6q0 -16 7.5 -23
t27.5 -7z" />
    <glyph glyph-name="g.salt" 
d="M28 284q0 259 203 259q83 0 167.5 -10t123.5 -26v-531q0 -118 -63 -190q-53 -60 -150 -60q-17 0 -36 2l-228 24v129h198q85 0 85 95v68q-30 -38 -97 -38q-112 0 -157.5 65t-45.5 213zM223 336q-1 -16 -1 -75t10 -87t45.5 -28t50.5 19v244h-47q-41 0 -51 -37
q-6 -20 -7 -36z" />
    <glyph glyph-name="ampersand.salt" horiz-adv-x="1007" 
d="M25 347v83q0 70 16.5 115t54 70.5t86.5 35t124 10.5h421l18 105h176v-107h75v-129l-75 -19v-267q0 -144 -85 -198q-76 -48 -198 -48h-164q-88 1 -153 45t-65 126q-111 0 -171 37.5t-60 140.5zM219 356q0 -27 7.5 -37.5t29.5 -10.5q0 89 53.5 126.5t154.5 37.5h29
q207 0 207 -168q0 -37 -12 -62.5t-27.5 -38t-46.5 -19.5q-42 -8 -81 -8h-43h-40q0 -27 29 -27h159q57 0 73 23.5t16 74.5v263h-411q-36 0 -56 -4t-29 -16.5t-10.5 -23.5t-1.5 -36v-74zM450 306h38q18 0 18 18t-18 18h-14q-10 0 -14 -2q-10 -3 -10 -34z" />
    <glyph glyph-name="a.superior" horiz-adv-x="374" 
d="M17 469v26q0 99 120 99h52q21 0 17 4q0 26 -10 29q-12 4 -33 4l-134 -9v86q56 30 148.5 30t133.5 -26t41 -96v-238h-116l-30 41q-17 -45 -71 -45q-62 0 -90 30.5t-28 64.5zM151 492q0 -10 4.5 -15.5t9 -6t15.5 -0.5t18 5t8 15v36l-36 -3q-19 -2 -19 -25v-2v-4z" />
    <glyph glyph-name="b.superior" horiz-adv-x="406" 
d="M21 378v523h146v-178q43 23 95 23q74 0 99 -42.5t25 -143t-29.5 -143.5t-94.5 -43q-48 0 -94 41l-22 -37h-125zM211 492q16 0 22.5 13.5t6.5 60t-7 61t-31 14.5t-34 -11v-125q9 -13 43 -13z" />
    <glyph glyph-name="c.superior" horiz-adv-x="346" 
d="M206 374l-66 1q-123 0 -123 180t123 180h40q74 0 142 -27v-85q-40 4 -88.5 4t-56.5 -6q-14 -11 -14 -61t11.5 -63.5t48.5 -13.5l104 4v-83q-40 -30 -121 -30z" />
    <glyph glyph-name="d.superior" horiz-adv-x="405" 
d="M46.5 415.5q-29.5 41.5 -29.5 145t24.5 144.5t99.5 41q52 0 95 -23v178h146v-523h-125l-22 37q-46 -41 -94 -41q-65 0 -94.5 41.5zM169.5 627q-6.5 -14 -6.5 -61t6.5 -60.5t22.5 -13.5q34 0 43 13v125q-10 11 -43 11q-16 0 -22.5 -14z" />
    <glyph glyph-name="e.superior" horiz-adv-x="386" 
d="M359 396q-46 -21 -152 -21h-61q-72 0 -100.5 43t-28.5 144t36.5 136.5t137.5 35.5t138.5 -24.5t37.5 -109.5q0 -53 -29 -74.5t-85 -21.5h-90q0 -17 8 -19.5t71 -2.5t117 4v-90zM202 596q19 0 19 14q0 10 -1 14q-3 9 -23.5 9t-27 -6t-6.5 -17v-14h39z" />
    <glyph glyph-name="f.superior" horiz-adv-x="302" 
d="M15 633v88h48v70q0 62 32.5 86.5t95.5 24.5t97 -18v-84l-48 1q-22 1 -26.5 -8t-4.5 -37v-22h63v-101h-63v-255h-146v255h-48z" />
    <glyph glyph-name="g.superior" horiz-adv-x="420" 
d="M158 471q-15 0 -15 -13q0 -11 5.5 -13t8 -2.5t9.5 -0.5h9l100 -8q66 -5 90.5 -32t24.5 -93v-8q0 -57 -30 -83q-32 -26 -98 -26h-104q-58 0 -96 24.5t-38 79.5v50l50 21q-31 9 -44 25t-13 44q0 65 46 71q-43 23 -43 102q0 129 135 129h248v-78l-31 -17q8 -10 8 -31l-1 -38
q0 -103 -128 -103h-93zM170 327q0 -10 1 -15q3 -12 27 -12h24q13 0 17.5 5t4.5 15v5q0 12 -5 15.5t-22 5.5l-47 4v-23zM166 603q0 -18 7 -24.5t22 -6.5h15q17 0 21.5 7.5t4.5 25t-6 24.5q-7 9 -21 9h-17q-15 0 -20.5 -8.5t-5.5 -26.5z" />
    <glyph glyph-name="h.superior" horiz-adv-x="405" 
d="M21 378v521h145v-202q46 46 110.5 46t86 -34t21.5 -101v-230h-146v222q0 20 -5 27t-17 7q-38 0 -49 -23v-233h-146z" />
    <glyph glyph-name="i.superior" horiz-adv-x="187" 
d="M19 768v88q0 19 18 19h113q17 0 17 -19v-88q0 -17 -17 -17h-113q-18 0 -18 17zM20 378v356h146v-356h-146z" />
    <glyph glyph-name="j.superior" horiz-adv-x="188" 
d="M20 770v88q0 19 18 19h113q17 0 17 -19v-88q0 -17 -17 -17h-113q-18 0 -18 17zM22 195v537h146v-358v-13q0 -114 -34 -166h-112z" />
    <glyph glyph-name="k.superior" horiz-adv-x="426" 
d="M21 378v521h146v-281h13l72 112h159l-116 -155l116 -197h-152l-79 154h-13v-154h-146z" />
    <glyph glyph-name="l.superior" horiz-adv-x="239" 
d="M21 504v396h146v-361q0 -31 5.5 -43t26 -22.5t25.5 -10.5v-85h-100q-53 0 -78 28.5t-25 97.5z" />
    <glyph glyph-name="m.superior" horiz-adv-x="622" 
d="M21 378v353h121l20 -39q15 15 26 23q30 23 81 23q71 0 96 -46q57 46 125 46t89.5 -33.5t21.5 -99.5v-227h-146v219q0 19 -5 26t-17 7q-38 0 -50 -19v-233h-146v219q0 19 -5 26t-17 7q-38 0 -49 -23v-229h-145z" />
    <glyph glyph-name="n.superior" horiz-adv-x="405" 
d="M21 378v353h122l20 -39q16 16 27 24q31 22 74.5 22t67 -9.5t34.5 -29.5q18 -33 18 -94v-227h-146v219q0 19 -5 26t-17 7q-38 0 -49 -23v-229h-146z" />
    <glyph glyph-name="o.superior" horiz-adv-x="403" 
d="M57 414.5q-40 39.5 -40 141t39.5 140.5t142.5 39t143 -40.5t40 -142t-39.5 -139.5t-142.5 -38t-143 39.5zM168 614q-5 -13 -5 -60.5t6 -59t31 -11.5t30.5 10.5t5.5 59.5t-5 61.5t-31.5 12.5t-31.5 -13z" />
    <glyph glyph-name="p.superior" horiz-adv-x="406" 
d="M21 191v547h125l22 -38q47 42 94 42q64 0 94 -44t30 -141t-25.5 -144t-98.5 -47q-52 0 -95 23v-198h-146zM209 469q16 0 23.5 15.5t7.5 63.5t-6.5 61.5t-22.5 13.5q-33 0 -43 -15v-128q11 -11 41 -11z" />
    <glyph glyph-name="q.superior" horiz-adv-x="403" 
d="M50 409q-33 45 -33 145.5t38 143.5t111 43q152 0 214 -27v-523h-146v203q-22 -30 -70 -30q-81 0 -114 45zM164 589q-1 -10 -1 -47t6.5 -54.5t30.5 -17.5t34 11v158h-32q-36 0 -38 -50z" />
    <glyph glyph-name="r.superior" horiz-adv-x="295" 
d="M21 378v353h130l11 -50q10 22 32 38t46 16t35 -4v-140h-52q-18 0 -27.5 -1t-19 -9.5t-9.5 -25.5v-177h-146z" />
    <glyph glyph-name="s.superior" horiz-adv-x="358" 
d="M17 610v29q0 96 96 96q144 0 208 -28v-85h-155q-15 0 -15 -10v-4q0 -9 15 -9h72q101 0 101 -81v-40q0 -53 -26.5 -78t-63.5 -25q-195 0 -215 28v85h157q15 0 15 11v3q0 11 -15 11h-64q-51 0 -80.5 24.5t-29.5 72.5z" />
    <glyph glyph-name="t.superior" horiz-adv-x="288" 
d="M15 634v72l50 19l21 105h125v-95h59v-101h-59v-100q0 -30 5.5 -41t25.5 -20.5t25 -9.5v-85h-108q-94 0 -94 123v133h-50z" />
    <glyph glyph-name="u.superior" horiz-adv-x="406" 
d="M20 504v227h146v-219q0 -19 5 -26t17 -7q38 0 49 22v230h146v-353h-122l-24 43q-21 -28 -42.5 -39t-63.5 -11q-68 0 -89.5 33.5t-21.5 99.5z" />
    <glyph glyph-name="v.superior" horiz-adv-x="406" 
d="M14 731h137l50 -210l53 210h137l-117 -353h-149z" />
    <glyph glyph-name="w.superior" horiz-adv-x="593" 
d="M14 731h137l50 -210l40 210h126l-16 -80l44 -130l45 210h138l-111 -353h-142l-32 96l-26 -96h-142z" />
    <glyph glyph-name="x.superior" horiz-adv-x="419" 
d="M15 378l117 179l-117 174h154l40 -81l41 81h155l-120 -176l114 -177h-149l-41 86l-40 -86h-154z" />
    <glyph glyph-name="y.superior" horiz-adv-x="433" 
d="M14 732h134l41 -226q5 -25 29 -27l57 253h143l-106 -469l-54 -68h-105l41 180q-102 0 -125 105z" />
    <glyph glyph-name="z.superior" horiz-adv-x="355" 
d="M17 623v108h317v-108l-119 -136h119v-108h-307v107l133 137h-143z" />
    <glyph glyph-name="zero.tnum" horiz-adv-x="609" 
d="M33 192v338q0 98 50 150t144 52h164q186 0 186 -192v-348q0 -90 -48.5 -141t-137.5 -51h-164q-96 0 -145 50t-49 142zM227 233q0 -26 11 -40t21.5 -16.5t25.5 -2.5h42q29 0 42.5 10.5t13.5 47.5v268q0 58 -48 58h-58q-50 0 -50 -58v-267z" />
    <glyph glyph-name="one.tnum" horiz-adv-x="609" 
d="M426 732v-578h128v-154h-450v154h128v394l-118 -20v123l120 81h192z" />
    <glyph glyph-name="two.tnum" horiz-adv-x="609" 
d="M32 567v145q137 30 304 30q113 0 170.5 -65t57.5 -175q0 -98 -84 -198q-40 -47 -65 -72t-61 -58h210v-174h-526v168q88 59 210 170.5t122 157.5t-25 58.5t-91 12.5h-222z" />
    <glyph glyph-name="three.tnum" horiz-adv-x="609" 
d="M282 -7q-161 0 -239 28l1 147h218q63 0 80.5 7.5t17.5 40.5v9q0 32 -18.5 40t-73.5 11l-163 7v158l163 10q72 3 82 13q12 14 12 36v9q0 36 -28 45q-23 6 -66 6h-231v146q84 29 248 29q39 0 80 -1q85 -2 137 -50t52 -135v-39q0 -116 -84 -146q84 -27 84 -154v-29
q0 -90 -52 -139t-144 -49h-76z" />
    <glyph glyph-name="four.tnum" horiz-adv-x="609" 
d="M375 315v134l27 78h167v-212h60v-149l-60 -29v-135h-194v135h-325l-34 87l211 508h208l-157 -417h97z" />
    <glyph glyph-name="five.tnum" horiz-adv-x="609" 
d="M251 456q35 22 103 22l38 -2q84 -7 126 -60t42 -136v-94q0 -95 -60 -142.5t-153 -47.5t-151.5 4t-152.5 20v155h264q44 0 53 19q6 13 6 34v31q0 27 -10.5 40t-37.5 13h-44q-24 0 -34 -10.5t-10 -34.5h-186l22 465h463v-174h-274z" />
    <glyph glyph-name="six.tnum" horiz-adv-x="609" 
d="M43 223q-9 68 -9 162t14 162.5t39.5 106t53.5 55.5q48 31 156.5 31t240.5 -28v-148h-219q-65 0 -80 -38q-8 -20 -9.5 -37t-1.5 -52q26 14 56 17.5t97 3.5q102 0 141.5 -49t39.5 -140v-91q0 -179 -191 -179h-138q-39 0 -68 9.5t-54.5 35t-42 68.5t-25.5 111zM228 294
q0 -78 15 -99.5t65 -21.5h17q25 0 34 9.5t9 36.5v20q0 35 -6 45t-32 10h-102z" />
    <glyph glyph-name="seven.tnum" horiz-adv-x="609" 
d="M38 558v174h481l47 -78l-229 -654h-206l198 558h-291z" />
    <glyph glyph-name="eight.tnum" horiz-adv-x="609" 
d="M38 179v53q0 43 17.5 77t56.5 40q-58 31 -69 83q-5 24 -5 67v65q0 173 196 173h156q92 0 137 -40.5t45 -133.5v-44q0 -49 -27 -87q-18 -25 -48 -29q75 -14 75 -142v-76q0 -118 -56 -154q-28 -18 -57 -24.5t-70 -6.5h-155q-112 0 -156 50q-27 31 -32 58q-8 38 -8 71z
M232 210q0 -26 10.5 -36t36.5 -10h52q30 0 38.5 10.5t8.5 35.5v40q0 23 -9 35t-36 12h-54q-29 0 -38 -11.5t-9 -35.5v-40zM232 494q0 -28 10 -36t37 -8h52q31 0 39 9.5t8 34.5v30q0 43 -29 48q-6 1 -18 1h-52q-26 0 -36.5 -8.5t-10.5 -40.5v-30z" />
    <glyph glyph-name="nine.tnum" horiz-adv-x="609" 
d="M34 463v91q0 179 191 179h138q39 0 68 -9.5t54.5 -35t42.5 -68.5q34 -90 34 -272q0 -191 -54 -270q-25 -37 -53 -55q-48 -31 -156.5 -31t-240.5 28v148h219q65 0 80 38q8 20 9.5 37t1.5 52q-26 -14 -56 -17.5t-97 -3.5q-102 0 -141.5 49t-39.5 140zM228 493q0 -35 6 -45
t32 -10h102q0 78 -15 99.5t-65 21.5h-17q-25 0 -34 -9.5t-9 -36.5v-20z" />
    <glyph glyph-name="zero.tosf" horiz-adv-x="609" 
d="M33 192v239q0 98 50 150t144 52h164q186 0 186 -192v-249q0 -90 -48.5 -141t-137.5 -51h-164q-96 0 -145 50t-49 142zM227 233q0 -26 11 -40t21.5 -16.5t25.5 -2.5h42q29 0 42.5 10.5t13.5 47.5v169q0 58 -48 58h-58q-50 0 -50 -58v-168z" />
    <glyph glyph-name="one.tosf" horiz-adv-x="609" 
d="M411 632v-478h128v-154h-450v154h128v293l-118 -20v123l120 82h192z" />
    <glyph glyph-name="two.tosf" horiz-adv-x="609" 
d="M32 467v145q137 30 304 30q118 0 173 -48t55 -152q0 -39 -16 -77.5t-37 -66.5t-51 -55q-47 -41 -94 -69h198v-174h-526v168q174 96 239 143q93 68 93 108q0 33 -23.5 40.5t-92.5 7.5h-222z" />
    <glyph glyph-name="three.tosf" horiz-adv-x="609" 
d="M282 -102q-161 0 -239 28l1 147h218q63 0 80.5 7.5t17.5 40.5v9q0 32 -18.5 40t-73.5 11l-163 7v158l163 10q72 3 82 13q12 14 12 36v9q0 36 -28 44q-23 7 -66 7h-231v146q84 29 248 29q39 0 80 -1q85 -2 137 -50t52 -135v-39q0 -116 -84 -146q84 -27 84 -154v-29
q0 -90 -52 -139t-144 -49h-76z" />
    <glyph glyph-name="four.tosf" horiz-adv-x="609" 
d="M358 215v134l27 78h167v-212h60v-149l-60 -29v-135h-194v135h-325l-34 87l211 508h208l-157 -417h97z" />
    <glyph glyph-name="five.tosf" horiz-adv-x="609" 
d="M251 356q35 22 103 22l38 -2q84 -7 126 -60t42 -136v-94q0 -95 -60 -142.5t-153 -47.5t-151.5 4t-152.5 20v155h264q44 0 53 19q6 13 6 34v31q0 27 -10.5 40t-37.5 13h-44q-24 0 -34 -10.5t-10 -34.5h-186l22 465h463v-174h-274z" />
    <glyph glyph-name="six.tosf" horiz-adv-x="609" 
d="M43 223q-9 68 -9 162t14 162.5t39.5 106t53.5 55.5q48 31 156.5 31t240.5 -28v-148h-219q-65 0 -80 -38q-8 -20 -9.5 -37t-1.5 -52q26 14 56 17.5t97 3.5q102 0 141.5 -49t39.5 -140v-91q0 -179 -191 -179h-138q-39 0 -68 9.5t-54.5 35t-42 68.5t-25.5 111zM228 294
q0 -78 15 -99.5t65 -21.5h17q25 0 34 9.5t9 36.5v20q0 35 -6 45t-32 10h-102z" />
    <glyph glyph-name="seven.tosf" horiz-adv-x="609" 
d="M38 458v174h481l47 -78l-229 -654h-206l198 558h-291z" />
    <glyph glyph-name="eight.tosf" horiz-adv-x="609" 
d="M38 179v53q0 43 17.5 77t56.5 40q-58 31 -69 83q-5 24 -5 67v65q0 173 196 173h156q92 0 137 -40.5t45 -133.5v-44q0 -49 -27 -87q-18 -25 -48 -29q75 -14 75 -142v-76q0 -118 -56 -154q-28 -18 -57 -24.5t-70 -6.5h-155q-112 0 -156 50q-27 31 -32 58q-8 38 -8 71z
M232 210q0 -26 10.5 -36t36.5 -10h52q30 0 38.5 10.5t8.5 35.5v40q0 23 -9 35t-36 12h-54q-29 0 -38 -11.5t-9 -35.5v-40zM232 494q0 -28 10 -36t37 -8h52q31 0 39 9.5t8 34.5v30q0 43 -29 48q-6 1 -18 1h-52q-26 0 -36.5 -8.5t-10.5 -40.5v-30z" />
    <glyph glyph-name="nine.tosf" horiz-adv-x="609" 
d="M34 363v91q0 179 191 179h138q39 0 68 -9.5t54.5 -35t42.5 -68.5q34 -90 34 -272q0 -191 -54 -270q-25 -37 -53 -55q-48 -31 -156.5 -31t-240.5 28v148h219q65 0 80 38q8 20 9.5 37t1.5 52q-26 -14 -56 -17.5t-97 -3.5q-102 0 -141.5 49t-39.5 140zM228 393q0 -35 6 -45
t32 -10h102q0 78 -15 99.5t-65 21.5h-17q-25 0 -34 -9.5t-9 -36.5v-20z" />
    <glyph glyph-name="gbreve.salt" 
d="M172 717h67q0 -47 48 -47t48 47h67q0 -51 -31.5 -82.5t-84 -31.5t-83.5 31.5t-31 82.5zM28 284q0 259 203 259q83 0 167.5 -10t123.5 -26v-531q0 -118 -63 -190q-53 -60 -150 -60q-17 0 -36 2l-228 24v129h198q85 0 85 95v68q-30 -38 -97 -38q-112 0 -157.5 65t-45.5 213
zM223 336q-1 -16 -1 -75t10 -87t45.5 -28t50.5 19v244h-47q-41 0 -51 -37q-6 -20 -7 -36z" />
    <glyph glyph-name="gdotaccent.salt" 
d="M218 626v94q0 25 24 25h90q10 0 16 -7t6 -18v-94q0 -23 -22 -23h-90q-11 0 -17.5 6.5t-6.5 16.5zM28 284q0 259 203 259q83 0 167.5 -10t123.5 -26v-531q0 -118 -63 -190q-53 -60 -150 -60q-17 0 -36 2l-228 24v129h198q85 0 85 95v68q-30 -38 -97 -38q-112 0 -157.5 65
t-45.5 213zM223 336q-1 -16 -1 -75t10 -87t45.5 -28t50.5 19v244h-47q-41 0 -51 -37q-6 -20 -7 -36z" />
    <glyph glyph-name="gcircumflex.salt" 
d="M123 603l100 140h131l91 -140h-111l-49 51l-50 -51h-112zM28 284q0 259 203 259q83 0 167.5 -10t123.5 -26v-531q0 -118 -63 -190q-53 -60 -150 -60q-17 0 -36 2l-228 24v129h198q85 0 85 95v68q-30 -38 -97 -38q-112 0 -157.5 65t-45.5 213zM223 336q-1 -16 -1 -75
t10 -87t45.5 -28t50.5 19v244h-47q-41 0 -51 -37q-6 -20 -7 -36z" />
    <glyph glyph-name="c_t" horiz-adv-x="854" 
d="M318 396h-25q-17 0 -27 -2t-24 -14q-26 -21 -26 -123q0 -45 3 -69.5t15.5 -36t23.5 -13t30 -1.5h22q82 0 138 6l18 2v-114q-57 -23 -111.5 -30.5t-126 -7.5t-100.5 9.5t-55 36.5t-38.5 82.5t-12.5 139.5t14 140t41.5 83.5t58 38t72.5 10.5l353 -2l28 148h166v-148h89
v-134h-89v-168q0 -49 8.5 -68t27.5 -29q42 -21 49 -21v-113h-150q-63 0 -96 44.5t-33 146.5v208z" />
    <glyph glyph-name="t_t" horiz-adv-x="770" 
d="M11 398v96l75 38l28 148h166v-148h196l28 148h166v-148h89v-134h-89v-168q0 -49 9 -67.5t28 -29.5q42 -21 49 -21v-113h-150q-130 0 -130 191v208h-196v-168q0 -49 8.5 -68t27.5 -29q42 -21 49 -21v-113h-150q-63 0 -96 44.5t-33 146.5v208h-75z" />
    <glyph glyph-name="f_t" horiz-adv-x="756" 
d="M11 397v117l72 17v99q0 87 44.5 121.5t133 34.5t135.5 -24v-111l-73 1q-17 0 -26.5 -2.5t-14.5 -13.5q-5 -12 -5 -66v-38h186l28 148h166v-148h89v-134h-89v-168q0 -49 8.5 -68t27.5 -29q42 -21 49 -21v-113h-150q-63 0 -96 44.5t-33 146.5v208h-186v-398h-194v397h-72z
" />
    <glyph glyph-name="t_y" horiz-adv-x="974" 
d="M11 398v96l75 38l28 148h166v-148h136q88 0 139 -37t63 -104l36 -196q7 -37 43 -39l70 375h197l-143 -699l-71 -102h-144l59 270q-155 0 -190 156l-35 159q-11 50 -32 66.5t-67 16.5h-61v-168q0 -49 8.5 -68t27.5 -29q42 -21 49 -21v-113h-150q-63 0 -96 44.5t-33 146.5
v208h-75z" />
    <glyph glyph-name="f_y" horiz-adv-x="989" 
d="M11 397v117l72 17v99q0 87 44.5 121.5t133 34.5t135.5 -24v-111l-73 1q-17 0 -26.5 -2.5t-14.5 -13.5q-5 -12 -5 -66v-39h149h3q178 0 204 -140l36 -196q7 -37 43 -39l70 375h197l-143 -699l-71 -102h-144l59 270q-155 0 -190 156l-35 159q-11 50 -31.5 66t-63.5 16h-5
h-78v-397h-194v397h-72z" />
    <glyph glyph-name="gcommaaccent.salt" 
d="M327 747v-5h10q23 0 23 -22v-103q0 -24 -23 -24h-100q-21 0 -21 24v135q0 32 14.5 50.5t34.5 22.5t39 4h2q21 0 35 -4l14 -3v-56q-19 0 -23 -4q-5 -7 -5 -15zM73.5 71q-45.5 65 -45.5 207t52.5 203.5t143 61.5t175 -10t123.5 -26v-531q0 -114 -59 -185q-54 -65 -156 -65
q-17 0 -34 2l-228 24v129h198q55 0 75 42q10 21 10 53v68q-30 -38 -97 -38q-112 0 -157.5 65zM222.5 321q-0.5 -11 -0.5 -65t10 -82t45.5 -28t50.5 19v244h-47q-29 0 -41 -18q-13 -19 -15 -39t-2.5 -31z" />
    <glyph glyph-name="exclam.smcp" horiz-adv-x="276" 
d="M53 23v117q0 25 24 25h115q23 0 23 -25v-117q0 -23 -23 -23h-115q-24 0 -24 23zM46 570h183l-22 -373h-145z" />
    <glyph glyph-name="quotedbl.smcp" horiz-adv-x="497" 
d="M48 571h184v-67l-10 -134h-162l-12 134v67zM266 571h184v-67l-10 -134h-164l-10 134v67z" />
    <glyph glyph-name="numbersign.smcp" horiz-adv-x="647" 
d="M11 132l20 132h118l12 74h-118l20 132h118l20 123h132l-20 -123h73l20 123h132l-20 -123h119l-20 -132h-119l-12 -74l117 -1l-18 -132h-120l-21 -131h-132l21 131l-73 1l-21 -132h-132l21 132h-117zM281 264h73l12 74h-73z" />
    <glyph glyph-name="dollar.smcp" horiz-adv-x="535" 
d="M28 364v37q0 170 163 172v83h108v-87q109 -7 180 -21v-137q-119 9 -233 9q-24 0 -24 -24v-12q0 -22 24 -22h110q92 0 123 -54q27 -47 27 -120v-30q0 -57 -13 -92t-43.5 -51t-62.5 -20.5t-88 -4.5v-80h-108v83q-114 6 -141 23v135q132 -7 236 -7q11 0 17.5 5t8.5 15v14
q0 20 -26 20h-100q-88 0 -123 43.5t-35 122.5z" />
    <glyph glyph-name="percent.smcp" horiz-adv-x="1013" 
d="M16 322v113q0 66 33 100.5t106 34.5h101q137 0 137 -135v-113q0 -66 -33 -100.5t-106 -34.5h-101q-137 0 -137 135zM141 352q0 -20 7 -30t30 -10h51q23 0 31 10.5t8 29.5v53q0 24 -8.5 32t-28.5 8h-51q-19 0 -29 -8t-10 -32v-53zM314 0l258 570h125l-252 -570h-131z
M620 138v113q0 135 140 135h100q137 0 137 -135v-113q0 -66 -33 -100.5t-106 -34.5h-100q-138 0 -138 135zM745 168q0 -20 7 -30t30 -10h52q23 0 30.5 10t7.5 30v53q0 24 -8 32t-28 8h-52q-19 0 -29 -8t-10 -32v-53z" />
    <glyph glyph-name="ampersand.smcp" horiz-adv-x="618" 
d="M17 173q0 76 80 148l42 37l-20 28q-25 37 -25 72q0 43 27 75t55.5 37t60 5t89.5 -7t90 -20v-133h-80q-26 0 -26 -11q0 -5 6 -13l71 -101l109 80l74 -84l-65 -91l-27 -26l127 -169h-202l-47 60l-32 -28q-25 -22 -59 -30t-60 -8t-61 10q-58 15 -92.5 66.5t-34.5 102.5z
M198 204q-15 -11 -15 -20.5t7.5 -19t17 -9.5t20.5 8l30 25l-29 41z" />
    <glyph glyph-name="quotesingle.smcp" horiz-adv-x="279" 
d="M48 571h184v-67l-10 -134h-163l-11 134v67z" />
    <glyph glyph-name="asterisk.smcp" horiz-adv-x="417" 
d="M28 393v70l139 19l5 -94zM76 245l25 138l91 -24l-49 -135zM157 549l67 22l61 -126l-88 -34zM176 286l51 79l114 -89l-42 -56zM230 398l119 81l41 -57l-101 -97z" />
    <glyph glyph-name="zero.smcp" horiz-adv-x="561" 
d="M39 162v246q0 80 48 121t124 41h144q44 0 76.5 -12.5t49 -30t26.5 -41.5q15 -37 15 -78v-246q0 -162 -167 -162h-144q-75 0 -123.5 39t-48.5 123zM233 216q0 -27 7.5 -34.5t26.5 -7.5h30q15 0 22 6.5t8 13.5t1 23v154q0 2 -2 9.5t-6 9.5q-15 6 -25 6h-30q-7 0 -12 -1.5
t-8.5 -2.5t-5.5 -5t-3.5 -5.5t-2 -7.5t-0.5 -8v-150z" />
    <glyph glyph-name="one.smcp" horiz-adv-x="379" 
d="M334 570v-570h-194v386l-118 -20v123l120 81h192z" />
    <glyph glyph-name="two.smcp" horiz-adv-x="522" 
d="M22 404v145q15 3 42 9.5t39 9t37 6.5q39 5 126 5q117 0 172.5 -51t55.5 -156q0 -134 -124 -198h124v-174h-464v168q131 48 216 114q54 41 54 72.5t-17 40.5t-77 9h-184z" />
    <glyph glyph-name="three.smcp" horiz-adv-x="504" 
d="M17 404v147q67 23 216 23q36 0 77 -1q71 -2 112 -42t41 -102v-24q0 -51 -12 -82.5t-48 -38.5q37 -16 48.5 -46t11.5 -81v-16q0 -71 -36 -106.5t-122 -39.5q-45 -2 -85 -2q-132 0 -198 23v148h215q30 0 30 17v5q0 12 -6 15t-26 4l-165 5v150l165 4q23 1 28.5 3.5t5.5 16.5
v3q0 11 -6.5 14t-25.5 3h-220z" />
    <glyph glyph-name="four.smcp" horiz-adv-x="568" 
d="M313 276v85l37 95h157v-180h50v-149l-50 -19v-106h-194v106h-255l-47 97l158 365h201l-121 -294h64z" />
    <glyph glyph-name="five.smcp" horiz-adv-x="522" 
d="M43 168h224q19 0 24 6t5 17v7q0 19 -4 22.5t-20 3.5h-33q-35 0 -35 -25h-160l17 371h403v-174h-242l-6 -53q24 24 74 24h32q88 0 128 -42t40 -130v-43q0 -151 -168 -153h-26q-167 0 -253 24v145z" />
    <glyph glyph-name="six.smcp" horiz-adv-x="533" 
d="M48.5 147q-11.5 60 -11.5 146t16 142.5t43 85.5q53 55 125 55q189 0 262 -15v-159h-202q-36 0 -42 -10t-7 -16t-1 -21q52 12 134 12q136 0 136 -157v-44q0 -81 -47 -124t-109 -43h-118q-50 0 -82.5 12t-58.5 44t-37.5 92zM231 228q0 -38 5 -46.5t27 -8.5h22q13 0 17.5 5
t4.5 22v5q0 15 -4 19t-18 4h-54z" />
    <glyph glyph-name="seven.smcp" horiz-adv-x="478" 
d="M17 396v174h393l52 -78l-177 -492h-207l143 396h-204z" />
    <glyph glyph-name="eight.smcp" horiz-adv-x="551" 
d="M42 130v70q0 42 24 58q14 9 44 20q-34 12 -51 44t-17 68v43q0 88 37 115t115 27h166q75 0 112.5 -28t37.5 -114v-43q0 -81 -58 -93q29 -5 43.5 -35.5t14.5 -61.5v-70q0 -130 -143 -130h-183q-92 0 -120 43q-22 35 -22 87zM236 184q0 -20 5.5 -24.5t24.5 -4.5h23
q19 0 23 4t4 22v15q0 16 -4 20.5t-21 4.5h-30q-14 0 -19.5 -4t-5.5 -18v-15zM236 379q0 -9 0.5 -12.5t6 -8t17.5 -4.5h34q11 0 16 4t5 7v36q0 19 -23 19h-32q-24 0 -24 -19v-22z" />
    <glyph glyph-name="nine.smcp" horiz-adv-x="533" 
d="M34 365v44q0 82 46.5 124.5t107.5 42.5h120q50 0 82.5 -12t58.5 -44q49 -60 49 -245q0 -276 -164 -276q-209 0 -282 15v159h202q36 0 42 10t7 16t1 21q-62 -12 -136 -12q-134 0 -134 157zM228 370q0 -16 3 -19.5t17 -3.5h56q0 38 -6 46.5t-28 8.5h-22q-13 0 -16.5 -5
t-3.5 -22v-5z" />
    <glyph glyph-name="question.smcp" horiz-adv-x="474" 
d="M11 395v158q102 22 203 22q22 0 44 -1q97 0 145.5 -40t48.5 -140v-21q0 -85 -49 -127q-35 -29 -89 -29q-21 0 -45 4v-24h-136v150h82.5t38.5 3t4 18v6q0 12 -3 14.5t-4.5 4t-6 2t-6.5 0.5h-227zM119 23v117q0 25 24 25h113q25 0 25 -25v-117q0 -23 -25 -23h-113
q-24 0 -24 23z" />
    <glyph glyph-name="at.smcp" horiz-adv-x="888" 
d="M37 60v268q0 102 56.5 163t181.5 61h173q114 0 154 -42q39 -41 39 -128v-342h-118l-24 54q-58 -63 -129.5 -63t-103 44t-31.5 103v33q0 143 159 143h103q1 15 0 16q0 24 -9.5 31t-34.5 7h-178q-44 0 -69 -18t-25 -72v-238q0 -61 28.5 -87t65.5 -26h319q58 0 80.5 28.5
t22.5 84.5v412q0 57 -28 88t-75 31h-404v117q132 27 306 27h12h86q95 0 166 -55q37 -28 59 -81.5t22 -126.5v-412q0 -136 -61 -197t-176 -61h-329q-103 0 -170.5 56t-67.5 182zM424 175q58 0 73 34v43l-78 -6q-17 -2 -23.5 -7t-6.5 -22q-1 -1 -1 -6t1 -6q0 -16 7.5 -23
t27.5 -7z" />
    <glyph glyph-name="a.smcp" horiz-adv-x="620" 
d="M20 0l173 570h244l164 -570h-201l-22 87h-133l-24 -87h-201zM283 231h59l-28 113z" />
    <glyph glyph-name="b.smcp" horiz-adv-x="550" 
d="M45 0v571h274q101 0 152.5 -33.5t51.5 -119.5q0 -62 -26.5 -94.5t-65.5 -32.5q40 -5 67.5 -38t27.5 -91q0 -96 -51 -129t-156 -33h-274zM239 155h60q15 0 22.5 7.5t7.5 32.5q0 38 -30 38h-60v-78zM239 357h60q30 0 30 30t-30 30h-60v-60z" />
    <glyph glyph-name="c.smcp" horiz-adv-x="510" 
d="M31 295q0 146 51 214.5t183 68.5q84 0 129 -6t97 -29v-129q-100 20 -144 20t-59.5 -3t-26.5 -6.5t-18 -15t-10.5 -18t-5.5 -26.5t-2 -31v-39q0 -8 -0.5 -29.5t0 -29.5t2 -25t5.5 -24t11 -18t18 -16q29 -13 65 -13q68 0 142 14l23 5v-127q-50 -26 -89 -31t-118.5 -5
t-122.5 15t-68 39t-39 64q-23 67 -23 181z" />
    <glyph glyph-name="d.smcp" horiz-adv-x="581" 
d="M45 0v572h287q133 -2 178 -88q41 -76 41 -201q0 -107 -25 -181q-17 -48 -62 -80q-15 -10 -41 -16q-31 -6 -91 -6h-287zM239 164h65q37 0 46 37q7 32 7 91.5t-12.5 87.5t-40.5 28h-65v-244z" />
    <glyph glyph-name="e.smcp" horiz-adv-x="510" 
d="M486 16q-84 -20 -234 -20h-29l-54 2q-124 3 -124 125v318q0 126 144 130q204 0 297 -17v-146h-215q-21 0 -26.5 -6.5t-5.5 -26.5v-13l206 -8v-141l-206 -7v-12q0 -20 9 -26t27 -6h211v-146z" />
    <glyph glyph-name="f.smcp" horiz-adv-x="510" 
d="M45 0v441q0 127 144 130q204 0 297 -17v-146h-215q-21 0 -26.5 -6.5t-5.5 -26.5v-33l206 -8v-141l-206 -7v-186h-194z" />
    <glyph glyph-name="g.smcp" horiz-adv-x="559" 
d="M31 268v18q0 145 42.5 216t150.5 77q48 3 90 3q129 0 201 -28v-132q-99 13 -162.5 13t-78 -2.5t-28.5 -16.5t-17.5 -43.5t-3.5 -60t-0.5 -51.5t0 -29t3.5 -24t9 -22q18 -20 47 -20q51 0 51 42v24h-38v99q55 15 165 15q31 0 67 -3v-343h-146l-45 44q-17 -28 -42 -39.5
t-82 -11.5q-183 0 -183 275z" />
    <glyph glyph-name="h.smcp" horiz-adv-x="577" 
d="M45 -1v571h194v-208h111v208h194v-571h-194v189h-111v-189h-194z" />
    <glyph glyph-name="i.smcp" horiz-adv-x="272" 
d="M45 0v570h194v-570h-194z" />
    <glyph glyph-name="j.smcp" horiz-adv-x="339" 
d="M243 15q-51 -20 -114.5 -20t-108.5 26v154q69 0 82 20q8 12 9 20t1 30v325h194v-405q0 -122 -63 -150z" />
    <glyph glyph-name="k.smcp" horiz-adv-x="597" 
d="M45 -1v571h184v-214h43l93 214h213l-136 -290l136 -281h-213l-95 203h-41v-203h-184z" />
    <glyph glyph-name="l.smcp" horiz-adv-x="506" 
d="M45 146v424h194v-329q0 -25 4.5 -39t17.5 -20t23 -7t33 -1h170v-174h-296q-64 0 -105 36t-41 110z" />
    <glyph glyph-name="m.smcp" horiz-adv-x="791" 
d="M31 0l53 571h255l58 -312l57 312h255l52 -571h-191l-30 293l-39 -293h-205l-42 291l-26 -291h-197z" />
    <glyph glyph-name="n.smcp" horiz-adv-x="601" 
d="M45 0v571h191l139 -220v220h193v-571h-190l-139 225v-225h-194z" />
    <glyph glyph-name="o.smcp" horiz-adv-x="590" 
d="M48.5 131q-17.5 58 -17.5 148.5t17 149.5t53.5 90.5t81.5 43.5t105.5 12t97 -5.5t72.5 -22.5t56 -48q46 -69 46 -212q0 -178 -70 -238q-37 -31 -82 -42.5t-112.5 -11.5t-111 10t-81 39t-55 87zM225 285q0 -74 11 -95t58 -21t59.5 22.5t12.5 96.5t-11.5 93.5t-57.5 19.5
t-59 -21t-13 -95z" />
    <glyph glyph-name="p.smcp" horiz-adv-x="531" 
d="M34 0v569h281q95 0 143.5 -41.5t48.5 -150.5q0 -53 -12 -92t-29 -59.5t-43 -33t-45 -15.5q-26 -4 -51 -4t-60.5 4t-38.5 9v-186h-194zM228 307h53q17 0 24.5 12t7.5 36.5t-1.5 34t-8.5 17.5t-22 8h-53v-108z" />
    <glyph glyph-name="q.smcp" horiz-adv-x="590" 
d="M48.5 131q-17.5 58 -17.5 148.5t17 149.5t53.5 90.5t81.5 43.5t105.5 12t97 -5.5t72.5 -22.5t56 -48q46 -69 46 -212q0 -178 -70 -238q-37 -31 -82 -42.5t-112.5 -11.5t-111 10t-81 39t-55 87zM225 285q0 -74 11 -95t58 -21t59.5 22.5t12.5 96.5t-11.5 93.5t-57.5 19.5
t-59 -21t-13 -95zM248 -33h102q4 -44 77 -44q33 0 81 9v-140q-29 -4 -60 -4q-101 0 -160 63q-40 44 -40 116z" />
    <glyph glyph-name="r.smcp" horiz-adv-x="554" 
d="M34 0v569h271q97 0 149.5 -42t52.5 -150q0 -141 -64 -180l92 -197h-204l-65 182l-38 4v-186h-194zM228 307h53q17 0 24.5 12t7.5 36.5t-1.5 34t-8.5 17.5t-22 8h-53v-108z" />
    <glyph glyph-name="s.smcp" horiz-adv-x="539" 
d="M31 364v37q0 172 168 172q182 0 283 -25v-137q-119 9 -233 9q-24 0 -24 -24v-12q0 -22 24 -22h110q87 0 118.5 -47t31.5 -127v-30q0 -91 -38.5 -129.5t-111.5 -38.5q-267 0 -306 26v135q132 -7 236 -7q11 0 17.5 5t8.5 15v14q0 20 -26 20h-100q-88 0 -123 43.5t-35 122.5
z" />
    <glyph glyph-name="t.smcp" horiz-adv-x="525" 
d="M20 396v174h486v-174h-146v-396h-194v396h-146z" />
    <glyph glyph-name="u.smcp" horiz-adv-x="591" 
d="M44 260v310h195v-310q0 -55 16 -73t48 -18t45.5 18.5t13.5 72.5v310h195v-310q0 -67 -15.5 -116.5t-38.5 -77.5t-59 -44q-57 -27 -141 -27q-47 0 -80 4.5t-69.5 20t-58.5 43.5q-51 65 -51 197z" />
    <glyph glyph-name="v.smcp" horiz-adv-x="620" 
d="M20 570h201l93 -344l86 344h201l-164 -570h-244z" />
    <glyph glyph-name="w.smcp" horiz-adv-x="849" 
d="M20 570h201l63 -344l56 344h201l-31 -132l64 -212l56 344h201l-134 -570h-244l-23 99l-23 -99h-244z" />
    <glyph glyph-name="x.smcp" horiz-adv-x="613" 
d="M20 0l168 282l-164 288h232l51 -141l56 141h232l-168 -291l164 -279h-224l-59 131l-56 -131h-232z" />
    <glyph glyph-name="y.smcp" horiz-adv-x="615" 
d="M406 -1h-194v201l-192 370h211l79 -162l75 162h211l-190 -370v-201z" />
    <glyph glyph-name="z.smcp" horiz-adv-x="505" 
d="M20 0v174l218 222h-218v174h466v-174l-204 -222h204v-174h-466z" />
    <glyph glyph-name="grave.smcp" horiz-adv-x="244" 
d="M11 674h145l77 -143h-109z" />
    <glyph glyph-name="aogonek.smcp" horiz-adv-x="620" 
d="M470 2h69q-61 -42 -29 -84q17 -22 42 -17v-90q-15 -5 -26 -5t-25 1t-32 13q-60 38 -60 92.5t61 89.5zM20 0l173 570h244l164 -570h-201l-22 87h-133l-24 -87h-201zM283 231h59l-28 113z" />
    <glyph glyph-name="rcommaaccent.smcp" horiz-adv-x="554" 
d="M207 -200v102q0 24 23 24h100q21 0 21 -24v-135q0 -31 -14.5 -49.5t-34.5 -23t-39 -4.5h-2q-21 0 -35 4l-14 4v56q19 -1 23 4q5 7 5 14v5h-10q-23 0 -23 23zM34 0v569h271q97 0 149.5 -42t52.5 -150q0 -141 -64 -180l92 -197h-204l-65 182l-38 4v-186h-194zM228 307h53
q17 0 24.5 12t7.5 36.5t-1.5 34t-8.5 17.5t-22 8h-53v-108z" />
    <glyph glyph-name="itilde.smcp" horiz-adv-x="272" 
d="M79 771q23 0 55 -17.5t51 -17.5h7q48 0 86 40l26 -74q-48 -72 -112 -72q-22 0 -59.5 17.5t-56.5 17.5q-48 0 -93 -35l-27 67q51 74 123 74zM45 0v570h194v-570h-194z" />
    <glyph glyph-name="lcommaaccent.smcp" horiz-adv-x="506" 
d="M181 -200v102q0 24 23 24h100q21 0 21 -24v-135q0 -31 -14.5 -49.5t-34.5 -23t-39 -4.5h-2q-21 0 -35 4l-14 4v56q19 -1 23 4q5 7 5 14v5h-10q-23 0 -23 23zM45 146v424h194v-329q0 -25 4.5 -39t17.5 -20t23 -7t33 -1h170v-174h-296q-64 0 -105 36t-41 110z" />
    <glyph glyph-name="dieresis.smcp" horiz-adv-x="442" 
d="M28 582q0 27 19.5 46t46.5 19t46 -19t19 -46t-19 -46.5t-46 -19.5t-46.5 19.5t-19.5 46.5zM283 582q0 27 19.5 46t46.5 19t46 -19t19 -46t-19 -46.5t-46 -19.5t-46.5 19.5t-19.5 46.5z" />
    <glyph glyph-name="scaron.smcp" horiz-adv-x="539" 
d="M114 773h111l49 -51l50 51h112l-100 -140h-131zM31 364v37q0 172 168 172q182 0 283 -25v-137q-119 9 -233 9q-24 0 -24 -24v-12q0 -22 24 -22h110q87 0 118.5 -47t31.5 -127v-30q0 -91 -38.5 -129.5t-111.5 -38.5q-267 0 -306 26v135q132 -7 236 -7q11 0 17.5 5t8.5 15
v14q0 20 -26 20h-100q-88 0 -123 43.5t-35 122.5z" />
    <glyph glyph-name="emacron.smcp" horiz-adv-x="510" 
d="M123 631v93h292v-93h-292zM486 16q-84 -20 -234 -20h-29l-54 2q-124 3 -124 125v318q0 126 144 130q204 0 297 -17v-146h-215q-21 0 -26.5 -6.5t-5.5 -26.5v-13l206 -8v-141l-206 -7v-12q0 -20 9 -26t27 -6h211v-146z" />
    <glyph glyph-name="gcommaaccent.smcp" horiz-adv-x="558" 
d="M31 268v18q0 145 42.5 216t150.5 77q48 3 90 3q129 0 201 -28v-132q-99 13 -162.5 13t-78 -2.5t-28.5 -16.5t-17.5 -43.5t-3.5 -60t-0.5 -51.5t0 -29t3.5 -24t9 -22q18 -20 47 -20q51 0 51 42v24h-38v99q55 15 165 15q31 0 67 -3v-343h-146l-45 44q-17 -28 -42 -39.5
t-82 -11.5q-183 0 -183 275zM221 -202v102q0 24 23 24h100q21 0 21 -24v-135q0 -31 -14.5 -49.5t-34.5 -23t-39 -4.5h-2q-21 0 -35 4l-14 4v56q19 -1 23 4q5 7 5 14v5h-10q-23 0 -23 23z" />
    <glyph glyph-name="tbar.smcp" horiz-adv-x="508" 
d="M11 396v174h486v-174h-146v-84h87v-74h-87v-238h-194v238h-90v74h90v84h-146z" />
    <glyph glyph-name="zcaron.smcp" horiz-adv-x="505" 
d="M92 770h111l49 -51l50 51h112l-100 -140h-131zM20 0v174l218 222h-218v174h466v-174l-204 -222h204v-174h-466z" />
    <glyph glyph-name="macron.smcp" horiz-adv-x="348" 
d="M28 481v93h292v-93h-292z" />
    <glyph glyph-name="degree.smcp" horiz-adv-x="259" 
d="M28 467q0 43 30 73t72 30t71.5 -30t29.5 -73t-29.5 -72.5t-71.5 -29.5t-72 29.5t-30 72.5zM96 467q0 -14 10 -23.5t24 -9.5t23.5 9.5t9.5 23.5t-9.5 24t-23.5 10t-24 -10t-10 -24z" />
    <glyph glyph-name="acute.smcp" horiz-adv-x="244" 
d="M11 531l77 143h145l-113 -143h-109z" />
    <glyph glyph-name="caron.smcp" horiz-adv-x="378" 
d="M28 671h111l49 -51l50 51h112l-100 -140h-131z" />
    <glyph glyph-name="eng.smcp" horiz-adv-x="601" 
d="M39 0v571h191l139 -220v220h193v-613q0 -106 -60 -141q-50 -30 -158 -30q-19 0 -39 1v127q39 0 52 10t13 51v27l-137 222v-225h-194z" />
    <glyph glyph-name="amacron.smcp" horiz-adv-x="620" 
d="M169 630v93h292v-93h-292zM20 0l173 570h244l164 -570h-201l-22 87h-133l-24 -87h-201zM283 231h59l-28 113z" />
    <glyph glyph-name="aacute.smcp" horiz-adv-x="620" 
d="M260 630l78 143h144l-112 -143h-110zM20 0l173 570h244l164 -570h-201l-22 87h-133l-24 -87h-201zM283 231h59l-28 113z" />
    <glyph glyph-name="acircumflex.smcp" horiz-adv-x="620" 
d="M154 630l100 140h131l91 -140h-111l-49 51l-50 -51h-112zM20 0l173 570h244l164 -570h-201l-22 87h-133l-24 -87h-201zM283 231h59l-28 113z" />
    <glyph glyph-name="atilde.smcp" horiz-adv-x="620" 
d="M264 771q22 0 54 -17.5t52 -17.5h7q48 0 86 40l26 -74q-48 -72 -112 -72q-22 0 -59.5 17.5t-56.5 17.5q-48 0 -93 -35l-27 67q51 74 123 74zM20 0l173 570h244l164 -570h-201l-22 87h-133l-24 -87h-201zM283 231h59l-28 113z" />
    <glyph glyph-name="adieresis.smcp" horiz-adv-x="620" 
d="M122 696q0 27 19.5 46t46.5 19t46 -19t19 -46t-19 -46.5t-46 -19.5t-46.5 19.5t-19.5 46.5zM377 696q0 27 19.5 46t46.5 19t46 -19t19 -46t-19 -46.5t-46 -19.5t-46.5 19.5t-19.5 46.5zM20 0l173 570h244l164 -570h-201l-22 87h-133l-24 -87h-201zM283 231h59l-28 113z
" />
    <glyph glyph-name="aring.smcp" horiz-adv-x="620" 
d="M222 631q8 -19 21.5 -32.5t32.5 -21.5t43 -8t47.5 13.5t36.5 37t13 51.5t-13 51.5t-36.5 37.5t-51 14t-51 -14t-37 -37.5t-13.5 -48t8 -43.5zM291.5 695q9.5 10 24 10t23.5 -10t9 -24t-9 -23.5t-26 -9.5t-27 16q-4 8 -4 19.5t9.5 21.5zM20 0l173 570h244l164 -570h-201
l-22 87h-133l-24 -87h-201zM283 231h59l-28 113z" />
    <glyph glyph-name="ae.smcp" horiz-adv-x="825" 
d="M802 15q-84 -20 -234 -20q-16 0 -29 1l-54 1h-4q-47 0 -83.5 26t-36.5 88v7h-95l-45 -118h-208l170 445q21 59 86 93q50 26 123 30q20 1 35.5 1.5t24.5 0.5h36h17q204 0 297 -17v-146h-215q-21 0 -26.5 -6.5t-5.5 -26.5v-13l206 -8v-141l-206 -7v-12q0 -20 9 -26t27 -6
h211v-146zM361 242v124l-47 -124h47z" />
    <glyph glyph-name="iogonek.smcp" horiz-adv-x="272" 
d="M118 3h68q-60 -42 -29 -84q17 -22 43 -17v-90q-16 -5 -27 -5t-25 1t-32 13q-59 38 -59 92.5t61 89.5zM45 0v570h194v-570h-194z" />
    <glyph glyph-name="ccaron.smcp" horiz-adv-x="510" 
d="M132 783h111l49 -51l50 51h112l-100 -140h-131zM31 295q0 146 51 214.5t183 68.5q84 0 129 -6t97 -29v-129q-100 20 -144 20t-59.5 -3t-26.5 -6.5t-18 -15t-10.5 -18t-5.5 -26.5t-2 -31v-39q0 -8 -0.5 -29.5t0 -29.5t2 -25t5.5 -24t11 -18t18 -16q29 -13 65 -13
q68 0 142 14l23 5v-127q-50 -26 -89 -31t-118.5 -5t-122.5 15t-68 39t-39 64q-23 67 -23 181z" />
    <glyph glyph-name="eacute.smcp" horiz-adv-x="510" 
d="M226 631l76 143h146l-114 -143h-108zM486 16q-84 -20 -234 -20h-29l-54 2q-124 3 -124 125v318q0 126 144 130q204 0 297 -17v-146h-215q-21 0 -26.5 -6.5t-5.5 -26.5v-13l206 -8v-141l-206 -7v-12q0 -20 9 -26t27 -6h211v-146z" />
    <glyph glyph-name="eogonek.smcp" horiz-adv-x="510" 
d="M499 -175q-16 -5 -28 -5t-28.5 4t-38.5 18q-43 27 -48 82q-1 3 -1 14.5t15 35t47 42.5h69q-22 -15 -31.5 -31.5t-7.5 -29t10 -22.5q18 -22 42 -18v-90zM486 16q-84 -20 -234 -20h-29l-54 2q-124 3 -124 125v318q0 126 144 130q204 0 297 -17v-146h-215q-21 0 -26.5 -6.5
t-5.5 -26.5v-13l206 -8v-141l-206 -7v-12q0 -20 9 -26t27 -6h211v-146z" />
    <glyph glyph-name="edieresis.smcp" horiz-adv-x="510" 
d="M71 697q0 27 19.5 46t46.5 19t46 -19t19 -46t-19 -46.5t-46 -19.5t-46.5 19.5t-19.5 46.5zM326 697q0 27 19.5 46t46.5 19t46 -19t19 -46t-19 -46.5t-46 -19.5t-46.5 19.5t-19.5 46.5zM486 16q-84 -20 -234 -20h-29l-54 2q-124 3 -124 125v318q0 126 144 130
q204 0 297 -17v-146h-215q-21 0 -26.5 -6.5t-5.5 -26.5v-13l206 -8v-141l-206 -7v-12q0 -20 9 -26t27 -6h211v-146z" />
    <glyph glyph-name="edotaccent.smcp" horiz-adv-x="510" 
d="M210 654v94q0 25 24 25h90q11 0 17.5 -7t6.5 -18v-94q0 -23 -24 -23h-90q-10 0 -17 6.5t-7 16.5zM486 16q-84 -20 -234 -20h-29l-54 2q-124 3 -124 125v318q0 126 144 130q204 0 297 -17v-146h-215q-21 0 -26.5 -6.5t-5.5 -26.5v-13l206 -8v-141l-206 -7v-12q0 -20 9 -26
t27 -6h211v-146z" />
    <glyph glyph-name="iacute.smcp" horiz-adv-x="272" 
d="M72 630l76 143h146l-114 -143h-108zM45 0v570h194v-570h-194z" />
    <glyph glyph-name="icircumflex.smcp" horiz-adv-x="272" 
d="M-35 630l100 140h131l91 -140h-111l-49 51l-50 -51h-112zM45 0v570h194v-570h-194z" />
    <glyph glyph-name="imacron.smcp" horiz-adv-x="272" 
d="M-10 630v93h292v-93h-292zM45 0v570h194v-570h-194z" />
    <glyph glyph-name="dcroat.smcp" horiz-adv-x="606" 
d="M11 253v74h55v245h287q133 -2 179 -88q40 -76 40 -201q0 -107 -25 -181q-17 -48 -63 -80q-14 -10 -40 -16q-31 -6 -91 -6h-287v253h-55zM260 164h65q37 0 45 37q8 32 8 91.5t-12.5 87.5t-40.5 28h-65v-81h65v-74h-65v-89z" />
    <glyph glyph-name="ncommaaccent.smcp" horiz-adv-x="601" 
d="M223 -200v102q0 24 23 24h100q21 0 21 -24v-135q0 -31 -14.5 -49.5t-34.5 -23t-39 -4.5h-2q-21 0 -35 4l-14 4v56q23 -1 26 9q2 4 2 9v5h-10q-23 0 -23 23zM45 0v571h191l139 -220v220h193v-571h-190l-139 225v-225h-194z" />
    <glyph glyph-name="omacron.smcp" horiz-adv-x="590" 
d="M149 635v93h292v-93h-292zM48.5 131q-17.5 58 -17.5 148.5t17 149.5t53.5 90.5t81.5 43.5t105.5 12t97 -5.5t72.5 -22.5t56 -48q46 -69 46 -212q0 -178 -70 -238q-37 -31 -82 -42.5t-112.5 -11.5t-111 10t-81 39t-55 87zM225 285q0 -74 11 -95t58 -21t59.5 22.5
t12.5 96.5t-11.5 93.5t-57.5 19.5t-59 -21t-13 -95z" />
    <glyph glyph-name="kcommaaccent.smcp" horiz-adv-x="597" 
d="M228 -202v103q0 24 23 24h100q21 0 21 -24v-135q0 -31 -14.5 -49.5t-34.5 -23t-39 -4.5h-2q-21 0 -35 4l-14 4v56q23 -1 26 9q2 4 2 10v4h-10q-23 0 -23 22zM45 -1v571h184v-214h43l93 214h213l-136 -290l136 -281h-213l-95 203h-41v-203h-184z" />
    <glyph glyph-name="ocircumflex.smcp" horiz-adv-x="590" 
d="M133 635l100 140h131l91 -140h-111l-49 51l-50 -51h-112zM48.5 131q-17.5 58 -17.5 148.5t17 149.5t53.5 90.5t81.5 43.5t105.5 12t97 -5.5t72.5 -22.5t56 -48q46 -69 46 -212q0 -178 -70 -238q-37 -31 -82 -42.5t-112.5 -11.5t-111 10t-81 39t-55 87zM225 285
q0 -74 11 -95t58 -21t59.5 22.5t12.5 96.5t-11.5 93.5t-57.5 19.5t-59 -21t-13 -95z" />
    <glyph glyph-name="otilde.smcp" horiz-adv-x="590" 
d="M244 776q22 0 54 -17.5t52 -17.5h7q48 0 86 40l26 -74q-48 -72 -112 -72q-22 0 -59.5 17.5t-56.5 17.5q-48 0 -93 -35l-27 67q51 74 123 74zM48.5 131q-17.5 58 -17.5 148.5t17 149.5t53.5 90.5t81.5 43.5t105.5 12t97 -5.5t72.5 -22.5t56 -48q46 -69 46 -212
q0 -178 -70 -238q-37 -31 -82 -42.5t-112.5 -11.5t-111 10t-81 39t-55 87zM225 285q0 -74 11 -95t58 -21t59.5 22.5t12.5 96.5t-11.5 93.5t-57.5 19.5t-59 -21t-13 -95z" />
    <glyph glyph-name="odieresis.smcp" horiz-adv-x="590" 
d="M102 701q0 27 19.5 46t46.5 19t46 -19t19 -46t-19 -46.5t-46 -19.5t-46.5 19.5t-19.5 46.5zM357 701q0 27 19.5 46t46.5 19t46 -19t19 -46t-19 -46.5t-46 -19.5t-46.5 19.5t-19.5 46.5zM48.5 131q-17.5 58 -17.5 148.5t17 149.5t53.5 90.5t81.5 43.5t105.5 12t97 -5.5
t72.5 -22.5t56 -48q46 -69 46 -212q0 -178 -70 -238q-37 -31 -82 -42.5t-112.5 -11.5t-111 10t-81 39t-55 87zM225 285q0 -74 11 -95t58 -21t59.5 22.5t12.5 96.5t-11.5 93.5t-57.5 19.5t-59 -21t-13 -95z" />
    <glyph glyph-name="oslash.smcp" horiz-adv-x="594" 
d="M33 280q0 179 71 240q36 31 81 43t127.5 12t132.5 -20l11 16h86l-40 -55q60 -65 60 -229q0 -178 -70 -238q-37 -31 -82 -42.5t-132 -11.5t-139 26l-15 -21h-86l47 65q-52 64 -52 215zM227 285v-27l103 141q-9 2 -33 2q-44 0 -57 -21t-13 -95zM253 176q14 -7 52 -7
t50.5 22.5t12.5 75t-1 65.5z" />
    <glyph glyph-name="uogonek.smcp" horiz-adv-x="591" 
d="M277 -1h69q-44 -30 -39 -64q3 -17 15 -26q20 -14 37 -11v-90q-15 -5 -26 -5t-25 1t-32 13q-60 38 -60 92.5t61 89.5zM44 260v310h195v-310q0 -55 16 -73t48 -18t45.5 18.5t13.5 72.5v310h195v-310q0 -67 -15.5 -116.5t-38.5 -77.5t-59 -44q-57 -27 -141 -27
q-47 0 -80 4.5t-69.5 20t-58.5 43.5q-51 65 -51 197z" />
    <glyph glyph-name="uacute.smcp" horiz-adv-x="591" 
d="M246 630l77 143h145l-113 -143h-109zM44 260v310h195v-310q0 -55 16 -73t48 -18t45.5 18.5t13.5 72.5v310h195v-310q0 -67 -15.5 -116.5t-38.5 -77.5t-59 -44q-57 -27 -141 -27q-47 0 -80 4.5t-69.5 20t-58.5 43.5q-51 65 -51 197z" />
    <glyph glyph-name="ucircumflex.smcp" horiz-adv-x="591" 
d="M140 630l100 140h130l92 -140h-112l-48 51l-50 -51h-112zM44 260v310h195v-310q0 -55 16 -73t48 -18t45.5 18.5t13.5 72.5v310h195v-310q0 -67 -15.5 -116.5t-38.5 -77.5t-59 -44q-57 -27 -141 -27q-47 0 -80 4.5t-69.5 20t-58.5 43.5q-51 65 -51 197z" />
    <glyph glyph-name="udieresis.smcp" horiz-adv-x="591" 
d="M108 696q0 27 19 46t46 19t46 -19t19 -46t-19 -46.5t-46 -19.5t-46 19.5t-19 46.5zM362 696q0 27 19.5 46t47 19t46.5 -19t19 -46t-19.5 -46.5t-46 -19.5t-46.5 19.5t-20 46.5zM44 260v310h195v-310q0 -55 16 -73t48 -18t45.5 18.5t13.5 72.5v310h195v-310
q0 -67 -15.5 -116.5t-38.5 -77.5t-59 -44q-57 -27 -141 -27q-47 0 -80 4.5t-69.5 20t-58.5 43.5q-51 65 -51 197z" />
    <glyph glyph-name="utilde.smcp" horiz-adv-x="591" 
d="M250 771q22 0 54 -17.5t52 -17.5h5q49 0 87 40l26 -74q-48 -72 -112 -72q-22 0 -59 17.5t-56.5 17.5t-34.5 -4q-27 -7 -58 -31l-28 67q52 74 124 74zM44 260v310h195v-310q0 -55 16 -73t48 -18t45.5 18.5t13.5 72.5v310h195v-310q0 -67 -15.5 -116.5t-38.5 -77.5t-59 -44
q-57 -27 -141 -27q-47 0 -80 4.5t-69.5 20t-58.5 43.5q-51 65 -51 197z" />
    <glyph glyph-name="umacron.smcp" horiz-adv-x="591" 
d="M154 630v93h292v-93h-292zM44 260v310h195v-310q0 -55 16 -73t48 -18t45.5 18.5t13.5 72.5v310h195v-310q0 -67 -15.5 -116.5t-38.5 -77.5t-59 -44q-57 -27 -141 -27q-47 0 -80 4.5t-69.5 20t-58.5 43.5q-51 65 -51 197z" />
    <glyph glyph-name="germandbls.smcp" horiz-adv-x="1037" 
d="M21 364v37q0 172 168 172q151 0 283 -25v-137l-33 3q-86 6 -200 6q-24 0 -24 -24v-12q0 -22 24 -22h110q87 0 118.5 -47t31.5 -127v-30q0 -91 -38.5 -129.5t-111.5 -38.5q-267 0 -306 26v135l236 -7q23 0 25 8q1 4 1 12v14q0 20 -26 20h-100q-88 0 -123 43.5t-35 122.5z
M535 401q0 172 168 172q151 0 283 -25v-137q-119 9 -233 9q-24 0 -24 -24v-12q0 -22 24 -22h110q87 0 118.5 -47t31.5 -127v-30q0 -91 -38.5 -129.5t-111.5 -38.5q-267 0 -306 26v135q132 -7 236 -7q17 0 21.5 4.5t4.5 15.5v14q0 20 -26 20h-100q-88 0 -123 42.5t-35 121.5
v39z" />
    <glyph glyph-name="agrave.smcp" horiz-adv-x="620" 
d="M148 773h144l78 -143h-110zM20 0l173 570h244l164 -570h-201l-22 87h-133l-24 -87h-201zM283 231h59l-28 113z" />
    <glyph glyph-name="ccedilla.smcp" horiz-adv-x="510" 
d="M233 -31h117q0 -78 -26.5 -112t-94.5 -34h-61v79l37 15q21 9 24.5 16t3.5 36zM31 295q0 146 51 214.5t183 68.5q84 0 129 -6t97 -29v-129q-100 20 -144 20t-59.5 -3t-26.5 -6.5t-18 -15t-10.5 -18t-5.5 -26.5t-2 -31v-39q0 -8 -0.5 -29.5t0 -29.5t2 -25t5.5 -24t11 -18
t18 -16q29 -13 65 -13q68 0 142 14l23 5v-127q-50 -26 -89 -31t-118.5 -5t-122.5 15t-68 39t-39 64q-23 67 -23 181z" />
    <glyph glyph-name="eth.smcp" horiz-adv-x="606" 
d="M11 253v74h55v245h287q133 -2 179 -88q40 -76 40 -201q0 -107 -25 -181q-17 -48 -63 -80q-14 -10 -40 -16q-31 -6 -91 -6h-287v253h-55zM260 164h65q37 0 45 37q8 32 8 91.5t-12.5 87.5t-40.5 28h-65v-81h65v-74h-65v-89z" />
    <glyph glyph-name="egrave.smcp" horiz-adv-x="510" 
d="M121 774h145l77 -143h-109zM486 16q-84 -20 -234 -20h-29l-54 2q-124 3 -124 125v318q0 126 144 130q204 0 297 -17v-146h-215q-21 0 -26.5 -6.5t-5.5 -26.5v-13l206 -8v-141l-206 -7v-12q0 -20 9 -26t27 -6h211v-146z" />
    <glyph glyph-name="ecircumflex.smcp" horiz-adv-x="510" 
d="M112 631l100 140h131l91 -140h-111l-49 51l-50 -51h-112zM486 16q-84 -20 -234 -20h-29l-54 2q-124 3 -124 125v318q0 126 144 130q204 0 297 -17v-146h-215q-21 0 -26.5 -6.5t-5.5 -26.5v-13l206 -8v-141l-206 -7v-12q0 -20 9 -26t27 -6h211v-146z" />
    <glyph glyph-name="igrave.smcp" horiz-adv-x="272" 
d="M-42 773h146l76 -143h-108zM45 0v570h194v-570h-194z" />
    <glyph glyph-name="idieresis.smcp" horiz-adv-x="272" 
d="M-67 696q0 27 19.5 46t46.5 19t46 -19t19 -46t-19 -46.5t-46 -19.5t-46.5 19.5t-19.5 46.5zM188 696q0 27 19.5 46t46.5 19t46 -19t19 -46t-19 -46.5t-46 -19.5t-46.5 19.5t-19.5 46.5zM45 0v570h194v-570h-194z" />
    <glyph glyph-name="ntilde.smcp" horiz-adv-x="601" 
d="M256 772q22 0 54 -17.5t52 -17.5h5q49 0 87 40l26 -74q-48 -72 -112 -72q-22 0 -59.5 17.5t-56.5 17.5t-34 -4q-27 -7 -58 -31l-28 67q52 74 124 74zM45 0v571h191l139 -220v220h193v-571h-190l-139 225v-225h-194z" />
    <glyph glyph-name="ograve.smcp" horiz-adv-x="590" 
d="M128 778h144l78 -143h-110zM48.5 131q-17.5 58 -17.5 148.5t17 149.5t53.5 90.5t81.5 43.5t105.5 12t97 -5.5t72.5 -22.5t56 -48q46 -69 46 -212q0 -178 -70 -238q-37 -31 -82 -42.5t-112.5 -11.5t-111 10t-81 39t-55 87zM225 285q0 -74 11 -95t58 -21t59.5 22.5
t12.5 96.5t-11.5 93.5t-57.5 19.5t-59 -21t-13 -95z" />
    <glyph glyph-name="oacute.smcp" horiz-adv-x="590" 
d="M240 635l78 143h144l-112 -143h-110zM48.5 131q-17.5 58 -17.5 148.5t17 149.5t53.5 90.5t81.5 43.5t105.5 12t97 -5.5t72.5 -22.5t56 -48q46 -69 46 -212q0 -178 -70 -238q-37 -31 -82 -42.5t-112.5 -11.5t-111 10t-81 39t-55 87zM225 285q0 -74 11 -95t58 -21
t59.5 22.5t12.5 96.5t-11.5 93.5t-57.5 19.5t-59 -21t-13 -95z" />
    <glyph glyph-name="ugrave.smcp" horiz-adv-x="591" 
d="M133 773h145l77 -143h-109zM44 260v310h195v-310q0 -55 16 -73t48 -18t45.5 18.5t13.5 72.5v310h195v-310q0 -67 -15.5 -116.5t-38.5 -77.5t-59 -44q-57 -27 -141 -27q-47 0 -80 4.5t-69.5 20t-58.5 43.5q-51 65 -51 197z" />
    <glyph glyph-name="yacute.smcp" horiz-adv-x="615" 
d="M254 630l76 143h146l-114 -143h-108zM406 -1h-194v201l-192 370h211l79 -162l75 162h211l-190 -370v-201z" />
    <glyph glyph-name="thorn.smcp" horiz-adv-x="535" 
d="M42 0v569h193v-93h78q102 0 145 -47q41 -44 41 -133q0 -197 -146 -197q-60 0 -118 16v-115h-193zM235 257h37q22 0 27.5 5.5t5.5 26.5t-6.5 27t-26.5 6h-37v-65z" />
    <glyph glyph-name="quotesinglbase.smcp" horiz-adv-x="243" 
d="M204 -20q0 -102 -117 -102q-12 0 -22 2l-16 3v72q31 0 31 31v15h-11q-25 0 -25 25v114q0 27 25 27h111q24 0 24 -27v-160z" />
    <glyph glyph-name="quotedblleft.smcp" horiz-adv-x="432" 
d="M232 479q0 102 116 102q12 0 22 -2l16 -3v-72q-30 0 -30 -31v-15h10q26 0 26 -25v-114q0 -27 -26 -27h-110q-24 0 -24 27v160zM40 479q0 102 118 102q12 0 22 -2l16 -3v-72q-32 0 -32 -31v-15h12q24 0 24 -25v-114q0 -27 -24 -27h-112q-24 0 -24 27v160z" />
    <glyph glyph-name="quotedblright.smcp" horiz-adv-x="432" 
d="M200 393q0 -102 -116 -102q-12 0 -22 2l-16 3v72q30 0 30 31v15h-10q-26 0 -26 25v114q0 27 26 27h110q24 0 24 -27v-160zM392 393q0 -102 -118 -102q-12 0 -22 2l-16 3v72q32 0 32 31v15h-12q-24 0 -24 25v114q0 27 24 27h112q24 0 24 -27v-160z" />
    <glyph glyph-name="quotedblbase.smcp" horiz-adv-x="432" 
d="M200 -20q0 -102 -116 -102q-12 0 -22 2l-16 3v72q30 0 30 31v15h-10q-26 0 -26 25v114q0 27 26 27h110q24 0 24 -27v-160zM392 -20q0 -102 -118 -102q-12 0 -22 2l-16 3v72q32 0 32 31v15h-12q-24 0 -24 25v114q0 27 24 27h112q24 0 24 -27v-160z" />
    <glyph glyph-name="exclamdown.smcp" horiz-adv-x="276" 
d="M58 430v117q0 23 23 23h114q24 0 24 -23v-117q0 -25 -24 -25h-114q-23 0 -23 25zM46 0l19 373h145l19 -373h-183z" />
    <glyph glyph-name="ordmasculine.smcp" horiz-adv-x="416" 
d="M65 260.5q-40 39.5 -40 141t39.5 140.5t142.5 39t143 -40.5t40 -142t-39.5 -139.5t-142.5 -38t-143 39.5zM40 118v78h335v-78h-335zM176 460q-5 -13 -5 -60.5t6 -59t31 -11.5t30.5 10.5t5.5 59.5t-5 61.5t-31.5 12.5t-31.5 -13z" />
    <glyph glyph-name="ordfeminine.smcp" horiz-adv-x="413" 
d="M37 119v78h359v-78h-359zM34 230l106 340h171l87 -340h-133l-12 54h-66l-13 -54h-140zM209 373h30l-14 71z" />
    <glyph glyph-name="Euro.smcp" horiz-adv-x="522" 
d="M294 577q80 0 207 -23v-142q-117 11 -158 11h-46q-27 0 -32 -6q-13 -15 -13 -35l165 -6v-76l-165 -5v-19l165 -5v-77q-11 0 -28 -0.5t-53 -1.5q-86 -2 -84 -4q0 -23 14 -30q14 -6 24 -6h38q65 0 146 10l30 3v-142q-56 -28 -234 -28q-119 0 -166 49q-47 48 -47 144l-48 6
v77l48 5v19l-48 6v74l48 7q0 94 51 143q53 52 186 52z" />
    <glyph glyph-name="lcaron.smcp" horiz-adv-x="493" 
d="M28 146v424h194v-329q0 -25 4.5 -39t17.5 -20t23 -7t33 -1h170v-174h-296q-64 0 -105 36t-41 110zM265 613h114v-67l-10 -134h-93l-11 134v67z" />
    <glyph glyph-name="sacute.smcp" horiz-adv-x="539" 
d="M221 633l77 143h145l-113 -143h-109zM31 364v37q0 172 168 172q182 0 283 -25v-137q-119 9 -233 9q-24 0 -24 -24v-12q0 -22 24 -22h110q87 0 118.5 -47t31.5 -127v-30q0 -91 -38.5 -129.5t-111.5 -38.5q-267 0 -306 26v135q132 -7 236 -7q11 0 17.5 5t8.5 15v14
q0 20 -26 20h-100q-88 0 -123 43.5t-35 122.5z" />
    <glyph glyph-name="scedilla.smcp" horiz-adv-x="539" 
d="M31 364v37q0 172 168 172q182 0 283 -25v-137q-119 9 -233 9q-24 0 -24 -24v-12q0 -22 24 -22h110q87 0 118.5 -47t31.5 -127v-30q0 -91 -38.5 -129.5t-111.5 -38.5q-267 0 -306 26v135q132 -7 236 -7q11 0 17.5 5t8.5 15v14q0 20 -26 20h-100q-88 0 -123 43.5t-35 122.5
zM237 -40h117q0 -78 -26.5 -112t-94.5 -34h-61v79l37 15q21 9 24.5 16t3.5 36z" />
    <glyph glyph-name="tcaron.smcp" horiz-adv-x="576" 
d="M144 771h111l49 -51l50 51h112l-100 -140h-131zM56 396v174h486v-174h-146v-396h-194v396h-146z" />
    <glyph glyph-name="zacute.smcp" horiz-adv-x="505" 
d="M198 630l78 143h144l-112 -143h-110zM20 0v174l218 222h-218v174h466v-174l-204 -222h204v-174h-466z" />
    <glyph glyph-name="zdotaccent.smcp" horiz-adv-x="505" 
d="M184 653v94q0 25 24 25h90q11 0 17.5 -7t6.5 -18v-94q0 -23 -24 -23h-90q-10 0 -17 6.5t-7 16.5zM20 0v174l218 222h-218v174h466v-174l-204 -222h204v-174h-466z" />
    <glyph glyph-name="racute.smcp" horiz-adv-x="554" 
d="M230 629l77 143h145l-113 -143h-109zM34 0v569h271q97 0 149.5 -42t52.5 -150q0 -141 -64 -180l92 -197h-204l-65 182l-38 4v-186h-194zM228 307h53q17 0 24.5 12t7.5 36.5t-1.5 34t-8.5 17.5t-22 8h-53v-108z" />
    <glyph glyph-name="abreve.smcp" horiz-adv-x="620" 
d="M200 744h67q0 -47 48 -47t48 47h67q0 -51 -31.5 -82.5t-84 -31.5t-83.5 31.5t-31 82.5zM20 0l173 570h244l164 -570h-201l-22 87h-133l-24 -87h-201zM283 231h59l-28 113z" />
    <glyph glyph-name="lacute.smcp" horiz-adv-x="506" 
d="M76 630l78 143h144l-112 -143h-110zM45 146v424h194v-329q0 -25 4.5 -39t17.5 -20t23 -7t33 -1h170v-174h-296q-64 0 -105 36t-41 110z" />
    <glyph glyph-name="cacute.smcp" horiz-adv-x="510" 
d="M210 643l78 143h144l-112 -143h-110zM31 295q0 146 51 214.5t183 68.5q84 0 129 -6t97 -29v-129q-100 20 -144 20t-59.5 -3t-26.5 -6.5t-18 -15t-10.5 -18t-5.5 -26.5t-2 -31v-39q0 -8 -0.5 -29.5t0 -29.5t2 -25t5.5 -24t11 -18t18 -16q29 -13 65 -13q68 0 142 14l23 5
v-127q-50 -26 -89 -31t-118.5 -5t-122.5 15t-68 39t-39 64q-23 67 -23 181z" />
    <glyph glyph-name="ecaron.smcp" horiz-adv-x="510" 
d="M117 771h111l49 -51l50 51h112l-100 -140h-131zM486 16q-84 -20 -234 -20h-29l-54 2q-124 3 -124 125v318q0 126 144 130q204 0 297 -17v-146h-215q-21 0 -26.5 -6.5t-5.5 -26.5v-13l206 -8v-141l-206 -7v-12q0 -20 9 -26t27 -6h211v-146z" />
    <glyph glyph-name="dcaron.smcp" horiz-adv-x="582" 
d="M139 771h111l49 -51l50 51h112l-100 -140h-131zM55 0v572h287q133 -2 178 -88q41 -76 41 -201q0 -107 -25 -181q-17 -48 -62 -80q-15 -10 -41 -16q-31 -6 -91 -6h-287zM249 164h65q37 0 46 37q7 32 7 91.5t-12.5 87.5t-40.5 28h-65v-244z" />
    <glyph glyph-name="nacute.smcp" horiz-adv-x="601" 
d="M252 631l77 143h145l-113 -143h-109zM45 0v571h191l139 -220v220h193v-571h-190l-139 225v-225h-194z" />
    <glyph glyph-name="ncaron.smcp" horiz-adv-x="601" 
d="M146 771h110l50 -51l50 51h112l-100 -140h-132zM45 0v571h191l139 -220v220h193v-571h-190l-139 225v-225h-194z" />
    <glyph glyph-name="ohungarumlaut.smcp" horiz-adv-x="590" 
d="M154 635l77 143h145l-113 -143h-109zM327 635l77 143h145l-113 -143h-109zM48.5 131q-17.5 58 -17.5 148.5t17 149.5t53.5 90.5t81.5 43.5t105.5 12t97 -5.5t72.5 -22.5t56 -48q46 -69 46 -212q0 -178 -70 -238q-37 -31 -82 -42.5t-112.5 -11.5t-111 10t-81 39t-55 87z
M225 285q0 -74 11 -95t58 -21t59.5 22.5t12.5 96.5t-11.5 93.5t-57.5 19.5t-59 -21t-13 -95z" />
    <glyph glyph-name="rcaron.smcp" horiz-adv-x="554" 
d="M114 769h110l50 -51l50 51h112l-100 -140h-132zM34 0v569h271q97 0 149.5 -42t52.5 -150q0 -141 -64 -180l92 -197h-204l-65 182l-38 4v-186h-194zM228 307h53q17 0 24.5 12t7.5 36.5t-1.5 34t-8.5 17.5t-22 8h-53v-108z" />
    <glyph glyph-name="uring.smcp" horiz-adv-x="591" 
d="M199 732q0 43 30 73t72 30t71.5 -30t29.5 -73t-29.5 -72.5t-71.5 -29.5t-72 29.5t-30 72.5zM267 732q0 -14 10 -23.5t24 -9.5t23.5 9.5t9.5 23.5t-9.5 24t-23.5 10t-24 -10t-10 -24zM44 260v310h195v-310q0 -55 16 -73t48 -18t45.5 18.5t13.5 72.5v310h195v-310
q0 -67 -15.5 -116.5t-38.5 -77.5t-59 -44q-57 -27 -141 -27q-47 0 -80 4.5t-69.5 20t-58.5 43.5q-51 65 -51 197z" />
    <glyph glyph-name="uhungarumlaut.smcp" horiz-adv-x="591" 
d="M160 630l76 143h146l-114 -143h-108zM332 630l78 143h144l-112 -143h-110zM44 260v310h195v-310q0 -55 16 -73t48 -18t45.5 18.5t13.5 72.5v310h195v-310q0 -67 -15.5 -116.5t-38.5 -77.5t-59 -44q-57 -27 -141 -27q-47 0 -80 4.5t-69.5 20t-58.5 43.5q-51 65 -51 197z
" />
    <glyph glyph-name="tcommaaccent.smcp" horiz-adv-x="525" 
d="M20 396v174h486v-174h-146v-396h-194v396h-146zM206 -47h117q0 -78 -26.5 -112t-94.5 -34h-61v79l37 15q21 9 24.5 16t3.5 36z" />
    <glyph glyph-name="lslash.smcp" horiz-adv-x="520" 
d="M68 570h194v-171l77 32v-81l-77 -32v-77q0 -25 4.5 -39t17.5 -20t23 -7t33 -1h170v-174h-296q-64 0 -105 36t-41 110v93l-57 -23v81l57 23v250z" />
    <glyph glyph-name="questiondown.smcp" horiz-adv-x="492" 
d="M32 181v21q0 85 48 126q36 30 90 30q20 0 44 -4v24h136v-150h-82t-38 -3t-4 -18v-6q0 -12 3 -14.5t4.5 -4t6 -2t6.5 -0.5h226v-158q-101 -22 -202 -22q-22 0 -44 1q-97 0 -145.5 40t-48.5 140zM202 435v117q0 23 26 23h112q24 0 24 -23v-117q0 -25 -24 -25h-112
q-26 0 -26 25z" />
    <glyph glyph-name="oe.smcp" horiz-adv-x="818" 
d="M798 16q-84 -20 -234 -20h-28l-54 2q-40 2 -65 14q-52 -17 -125 -17t-116.5 10t-81.5 39q-72 56 -72 236q0 179 70 240q37 31 82 43t125 12t127 -17q32 13 76 13q203 0 296 -17v-146h-214q-21 0 -26.5 -6.5t-5.5 -26.5v-13l206 -8v-141l-206 -7v-12q0 -20 9 -26t27 -6
h210v-146zM216 285q0 -74 11 -95t58 -21t60 22.5t13 96.5t-12 93.5t-58 19.5t-59 -21t-13 -95z" />
    <glyph glyph-name="ydieresis.smcp" horiz-adv-x="615" 
d="M115 696q0 27 19.5 46t46.5 19t46 -19t19 -46t-19 -46.5t-46 -19.5t-46.5 19.5t-19.5 46.5zM370 696q0 27 19.5 46t46.5 19t46 -19t19 -46t-19 -46.5t-46 -19.5t-46.5 19.5t-19.5 46.5zM406 -1h-194v201l-192 370h211l79 -162l75 162h211l-190 -370v-201z" />
    <glyph glyph-name="sterling.smcp" horiz-adv-x="512" 
d="M28 0v138l56 20v62h-56v101l57 16v24q0 209 206 210l194 -13v-159h-163q-29 0 -36.5 -7.5t-7.5 -32.5v-18l145 -15v-108h-145v-55h206v-163h-456z" />
    <glyph glyph-name="yen.smcp" horiz-adv-x="560" 
d="M473 258v-68h-96v-21h96v-68h-96v-101h-194v101h-88v68h88v21h-88v68h55l-139 313h204l63 -193l65 193h206l-141 -313h65z" />
    <glyph glyph-name="perthousand.smcp" horiz-adv-x="1446" 
d="M16 322v113q0 66 33 100.5t106 34.5h101q137 0 137 -135v-113q0 -66 -33 -100.5t-106 -34.5h-101q-137 0 -137 135zM141 352q0 -20 7 -30t30 -10h51q23 0 31 10.5t8 29.5v53q0 24 -8.5 32t-28.5 8h-51q-19 0 -29 -8t-10 -32v-53zM314 0l258 570h125l-252 -570h-131z
M620 138v113q0 135 140 135h100q137 0 137 -135v-113q0 -66 -33 -100.5t-106 -34.5h-100q-138 0 -138 135zM745 168q0 -20 7 -30t30 -10h52q23 0 30.5 10t7.5 30v53q0 24 -8 32t-28 8h-52q-19 0 -29 -8t-10 -32v-53zM1048 138v113q0 66 32.5 100.5t105.5 34.5h102
q136 0 136 -135v-113q0 -66 -32.5 -100.5t-105.5 -34.5h-102q-136 0 -136 135zM1172 168q0 -19 7.5 -29.5t30.5 -10.5h50q40 0 40 40v53q0 24 -9 32t-29 8h-50q-19 0 -29.5 -8.5t-10.5 -31.5v-53z" />
    <glyph glyph-name="circumflex.smcp" horiz-adv-x="378" 
d="M28 531l100 140h131l91 -140h-111l-49 51l-50 -51h-112z" />
    <glyph glyph-name="tilde.smcp" horiz-adv-x="404" 
d="M151 672q23 0 55 -17.5t51 -17.5h7q48 0 86 40l26 -74q-48 -72 -112 -72q-22 0 -59.5 17.5t-56.5 17.5q-48 0 -93 -35l-27 67q51 74 123 74z" />
    <glyph glyph-name="ring.smcp" horiz-adv-x="259" 
d="M28 632q0 43 30 73t72 30t71.5 -30t29.5 -73t-29.5 -72.5t-71.5 -29.5t-72 29.5t-30 72.5zM96 632q0 -14 10 -23.5t24 -9.5t23.5 9.5t9.5 23.5t-9.5 24t-23.5 10t-24 -10t-10 -24z" />
    <glyph glyph-name="hbar.smcp" horiz-adv-x="658" 
d="M28 409v71h55v90h194v-90h111v90h194v-90h48v-71h-48v-410h-194v189h-111v-189h-194v410h-55zM277 362h111v47h-111v-47z" />
    <glyph glyph-name="hcircumflex.smcp" horiz-adv-x="577" 
d="M134 630l100 140h130l92 -140h-112l-48 51l-50 -51h-112zM45 -1v571h194v-208h111v208h194v-571h-194v189h-111v-189h-194z" />
    <glyph glyph-name="gbreve.smcp" horiz-adv-x="559" 
d="M252 755q0 -47 48 -47t48 47h67q0 -70 -54 -99q-27 -15 -61.5 -15t-60.5 15q-54 29 -54 99h67zM31 268v18q0 145 42.5 216t150.5 77q48 3 90 3q129 0 201 -28v-132q-99 13 -162.5 13t-78 -2.5t-28.5 -16.5t-17.5 -43.5t-3.5 -60t-0.5 -51.5t0 -29t3.5 -24t9 -22
q18 -20 47 -20q51 0 51 42v24h-38v99q55 15 165 15q31 0 67 -3v-343h-146l-45 44q-17 -28 -42 -39.5t-82 -11.5q-183 0 -183 275z" />
    <glyph glyph-name="jcircumflex.smcp" horiz-adv-x="339" 
d="M48 630l100 140h131l91 -140h-111l-49 51l-50 -51h-112zM243 15q-51 -20 -114.5 -20t-108.5 26v154q69 0 82 20q8 12 9 20t1 30v325h194v-405q0 -122 -63 -150z" />
    <glyph glyph-name="cdotaccent.smcp" horiz-adv-x="510" 
d="M224 666v94q0 25 24 25h90q23 0 23 -25v-94q0 -23 -23 -23h-90q-24 0 -24 23zM31 295q0 146 51 214.5t183 68.5q84 0 129 -6t97 -29v-129q-100 20 -144 20t-59.5 -3t-26.5 -6.5t-18 -15t-10.5 -18t-5.5 -26.5t-2 -31v-39q0 -8 -0.5 -29.5t0 -29.5t2 -25t5.5 -24t11 -18
t18 -16q29 -13 65 -13q68 0 142 14l23 5v-127q-50 -26 -89 -31t-118.5 -5t-122.5 15t-68 39t-39 64q-23 67 -23 181z" />
    <glyph glyph-name="ccircumflex.smcp" horiz-adv-x="510" 
d="M120 643l100 140h131l91 -140h-111l-49 51l-50 -51h-112zM31 295q0 146 51 214.5t183 68.5q84 0 129 -6t97 -29v-129q-100 20 -144 20t-59.5 -3t-26.5 -6.5t-18 -15t-10.5 -18t-5.5 -26.5t-2 -31v-39q0 -8 -0.5 -29.5t0 -29.5t2 -25t5.5 -24t11 -18t18 -16q29 -13 65 -13
q68 0 142 14l23 5v-127q-50 -26 -89 -31t-118.5 -5t-122.5 15t-68 39t-39 64q-23 67 -23 181z" />
    <glyph glyph-name="gdotaccent.smcp" horiz-adv-x="559" 
d="M218 664v94q0 25 24 25h90q23 0 23 -25v-94q0 -23 -23 -23h-90q-24 0 -24 23zM31 268v18q0 145 42.5 216t150.5 77q48 3 90 3q129 0 201 -28v-132q-99 13 -162.5 13t-78 -2.5t-28.5 -16.5t-17.5 -43.5t-3.5 -60t-0.5 -51.5t0 -29t3.5 -24t9 -22q18 -20 47 -20q51 0 51 42
v24h-38v99q55 15 165 15q31 0 67 -3v-343h-146l-45 44q-17 -28 -42 -39.5t-82 -11.5q-183 0 -183 275z" />
    <glyph glyph-name="gcircumflex.smcp" horiz-adv-x="559" 
d="M131 641l100 140h131l91 -140h-111l-49 51l-50 -51h-112zM31 268v18q0 145 42.5 216t150.5 77q48 3 90 3q129 0 201 -28v-132q-99 13 -162.5 13t-78 -2.5t-28.5 -16.5t-17.5 -43.5t-3.5 -60t-0.5 -51.5t0 -29t3.5 -24t9 -22q18 -20 47 -20q51 0 51 42v24h-38v99
q55 15 165 15q31 0 67 -3v-343h-146l-45 44q-17 -28 -42 -39.5t-82 -11.5q-183 0 -183 275z" />
    <glyph glyph-name="ubreve.smcp" horiz-adv-x="591" 
d="M252 744q0 -47 48 -47t48 47h68q0 -70 -55 -100q-26 -14 -61 -14t-61 14q-53 30 -53 100h66zM44 260v310h195v-310q0 -55 16 -73t48 -18t45.5 18.5t13.5 72.5v310h195v-310q0 -67 -15.5 -116.5t-38.5 -77.5t-59 -44q-57 -27 -141 -27q-47 0 -80 4.5t-69.5 20t-58.5 43.5
q-51 65 -51 197z" />
    <glyph glyph-name="scircumflex.smcp" horiz-adv-x="539" 
d="M111 633l100 140h131l91 -140h-111l-49 51l-50 -51h-112zM31 364v37q0 172 168 172q182 0 283 -25v-137q-119 9 -233 9q-24 0 -24 -24v-12q0 -22 24 -22h110q87 0 118.5 -47t31.5 -127v-30q0 -91 -38.5 -129.5t-111.5 -38.5q-267 0 -306 26v135q132 -7 236 -7
q11 0 17.5 5t8.5 15v14q0 20 -26 20h-100q-88 0 -123 43.5t-35 122.5z" />
    <glyph glyph-name="Idotaccent.smcp" horiz-adv-x="251" 
d="M29 0v570h194v-570h-194zM59 654v94q0 25 24 25h90q23 0 23 -25v-94q0 -23 -23 -23h-90q-24 0 -24 23z" />
    <glyph glyph-name="periodcentered.smcp" horiz-adv-x="257" 
d="M50 233v117q0 25 24 25h113q25 0 25 -25v-117q0 -23 -25 -23h-113q-24 0 -24 23z" />
    <glyph glyph-name="bullet.smcp" horiz-adv-x="307" 
d="M48 246v150q0 35 33 35h144q35 0 35 -35v-150q0 -32 -35 -32h-144q-33 0 -33 32z" />
    <glyph glyph-name="quoteleft.smcp" horiz-adv-x="249" 
d="M44 479q0 102 117 102q12 0 22 -2l16 -3v-72q-31 0 -31 -31v-15h11q25 0 25 -25v-114q0 -27 -25 -27h-111q-24 0 -24 27v160z" />
    <glyph glyph-name="quoteright.smcp" horiz-adv-x="249" 
d="M204 393q0 -102 -117 -102q-12 0 -22 2l-16 3v72q31 0 31 31v15h-11q-25 0 -25 25v114q0 27 25 27h111q24 0 24 -27v-160z" />
    <glyph glyph-name="uni1E03.smcp" horiz-adv-x="550" 
d="M216 654v94q0 25 24 25h90q23 0 23 -25v-94q0 -23 -23 -23h-90q-24 0 -24 23zM45 0v571h274q101 0 152.5 -33.5t51.5 -119.5q0 -62 -26.5 -94.5t-65.5 -32.5q40 -5 67.5 -38t27.5 -91q0 -96 -51 -129t-156 -33h-274zM239 155h60q15 0 22.5 7.5t7.5 32.5q0 38 -30 38h-60
v-78zM239 357h60q30 0 30 30t-30 30h-60v-60z" />
    <glyph glyph-name="uni1E0B.smcp" horiz-adv-x="581" 
d="M218 655v94q0 25 24 25h90q23 0 23 -25v-94q0 -23 -23 -23h-90q-24 0 -24 23zM45 0v572h287q133 -2 178 -88q41 -76 41 -201q0 -107 -25 -181q-17 -48 -62 -80q-15 -10 -41 -16q-31 -6 -91 -6h-287zM239 164h65q37 0 46 37q7 32 7 91.5t-12.5 87.5t-40.5 28h-65v-244z
" />
    <glyph glyph-name="uni1E1F.smcp" horiz-adv-x="510" 
d="M198 654v94q0 25 24 25h90q23 0 23 -25v-94q0 -23 -23 -23h-90q-24 0 -24 23zM45 0v441q0 127 144 130q204 0 297 -17v-146h-215q-21 0 -26.5 -6.5t-5.5 -26.5v-33l206 -8v-141l-206 -7v-186h-194z" />
    <glyph glyph-name="uni1E41.smcp" horiz-adv-x="791" 
d="M315 654v94q0 25 24 25h90q23 0 23 -25v-94q0 -23 -23 -23h-90q-24 0 -24 23zM31 0l53 571h255l58 -312l57 312h255l52 -571h-191l-30 293l-39 -293h-205l-42 291l-26 -291h-197z" />
    <glyph glyph-name="wgrave.smcp" horiz-adv-x="849" 
d="M251 773h145l77 -143h-109zM20 570h201l63 -344l56 344h201l-31 -132l64 -212l56 344h201l-134 -570h-244l-23 99l-23 -99h-244z" />
    <glyph glyph-name="uni1E57.smcp" horiz-adv-x="531" 
d="M201 652v94q0 25 24 25h90q23 0 23 -25v-94q0 -23 -23 -23h-90q-24 0 -24 23zM34 0v569h281q95 0 143.5 -41.5t48.5 -150.5q0 -53 -12 -92t-29 -59.5t-43 -33t-45 -15.5q-26 -4 -51 -4t-60.5 4t-38.5 9v-186h-194zM228 307h53q17 0 24.5 12t7.5 36.5t-1.5 34t-8.5 17.5
t-22 8h-53v-108z" />
    <glyph glyph-name="wacute.smcp" horiz-adv-x="849" 
d="M364 630l77 143h145l-113 -143h-109zM20 570h201l63 -344l56 344h201l-31 -132l64 -212l56 344h201l-134 -570h-244l-23 99l-23 -99h-244z" />
    <glyph glyph-name="ygrave.smcp" horiz-adv-x="615" 
d="M131 773h145l77 -143h-109zM406 -1h-194v201l-192 370h211l79 -162l75 162h211l-190 -370v-201z" />
    <glyph glyph-name="wdieresis.smcp" horiz-adv-x="849" 
d="M227 696q0 27 19.5 46t46.5 19t46 -19t19 -46t-19 -46.5t-46 -19.5t-46.5 19.5t-19.5 46.5zM482 696q0 27 19.5 46t46.5 19t46 -19t19 -46t-19 -46.5t-46 -19.5t-46.5 19.5t-19.5 46.5zM20 570h201l63 -344l56 344h201l-31 -132l64 -212l56 344h201l-134 -570h-244
l-23 99l-23 -99h-244z" />
    <glyph glyph-name="uni1E61.smcp" horiz-adv-x="539" 
d="M214 656v94q0 25 24 25h90q23 0 23 -25v-94q0 -23 -23 -23h-90q-24 0 -24 23zM31 364v37q0 172 168 172q182 0 283 -25v-137q-119 9 -233 9q-24 0 -24 -24v-12q0 -22 24 -22h110q87 0 118.5 -47t31.5 -127v-30q0 -91 -38.5 -129.5t-111.5 -38.5q-267 0 -306 26v135
q132 -7 236 -7q11 0 17.5 5t8.5 15v14q0 20 -26 20h-100q-88 0 -123 43.5t-35 122.5z" />
    <glyph glyph-name="wcircumflex.smcp" horiz-adv-x="849" 
d="M274 630l100 140h131l91 -140h-111l-49 51l-50 -51h-112zM20 570h201l63 -344l56 344h201l-31 -132l64 -212l56 344h201l-134 -570h-244l-23 99l-23 -99h-244z" />
    <glyph glyph-name="uni1E6B.smcp" horiz-adv-x="525" 
d="M194 653v94q0 25 24 25h90q23 0 23 -25v-94q0 -23 -23 -23h-90q-24 0 -24 23zM20 396v174h486v-174h-146v-396h-194v396h-146z" />
    <glyph glyph-name="ycircumflex.smcp" horiz-adv-x="615" 
d="M155 630l100 140h131l91 -140h-111l-49 51l-50 -51h-112zM406 -1h-194v201l-192 370h211l79 -162l75 162h211l-190 -370v-201z" />
    <glyph glyph-name="c_k" horiz-adv-x="1109" 
d="M1098 531l-196 -204l196 -327h-224l-113 203q-24 -20 -37 -30v-173h-194v51q-122 -58 -232 -58q-75 0 -122 10t-84 39q-70 55 -70 227q0 147 46.5 208.5t129.5 61.5h48q117 0 210 -36v-114q-61 6 -121.5 6t-72.5 -1.5t-25.5 -13.5t-17 -38t-3.5 -54.5t-0.5 -51.5t0 -28
t2 -21t4.5 -19.5t9 -12.5t15 -11q32 -7 52 -7q89 0 232 103v542h194v-379q74 71 111 113l15 16z" />
    <glyph glyph-name="N.salt" horiz-adv-x="743" 
d="M45 0v569q0 54 29 94q56 79 174 79q104 0 164 -66q32 -35 37 -83l43 -411q1 -9 7 -11.5t11.5 2.5t5.5 12v547h194v-567q0 -51 -28 -90q-57 -80 -179 -80q-101 0 -157 66q-33 38 -38 92l-43 416q-2 13 -13.5 9t-11.5 -16v-562h-195z" />
    <glyph glyph-name="M.salt" horiz-adv-x="906" 
d="M195 730q23 3 49 3q96 0 150 -57q37 -40 37 -98v-238q0 -14 15.5 -13t15.5 13v242q0 41 20 74q35 55 126 75q25 6 50 6l30 -3q90 -12 129 -60q22 -27 24 -62l35 -612h-196l-19 498q-1 14 -15 9q-10 -5 -11 -15l-3 -222q-3 -43 -41 -74q-52 -41 -143 -41q-89 0 -140 41
q-37 31 -40 77l-4 230q0 13 -12.5 9.5t-13.5 -16.5l-14 -496h-193l29 600q3 52 42 87t93 43z" />
    <glyph glyph-name="uni1E40.salt" horiz-adv-x="906" 
d="M370 820v94q0 25 24 25h90q23 0 23 -25v-94q0 -23 -23 -23h-90q-24 0 -24 23zM195 730q23 3 49 3q96 0 150 -57q37 -40 37 -98v-238q0 -14 15.5 -13t15.5 13v242q0 41 20 74q35 55 126 75q25 6 50 6l30 -3q90 -12 129 -60q22 -27 24 -62l35 -612h-196l-19 498
q-1 14 -15 9q-10 -5 -11 -15l-3 -222q-3 -43 -41 -74q-52 -41 -143 -41q-89 0 -140 41q-37 31 -40 77l-4 230q0 13 -12.5 9.5t-13.5 -16.5l-14 -496h-193l29 600q3 52 42 87t93 43z" />
    <glyph glyph-name="Ntilde.salt" horiz-adv-x="743" 
d="M336 942q22 0 54 -17.5t52 -17.5h7q48 0 86 40l26 -74q-48 -72 -112 -72q-22 0 -59.5 17.5t-56.5 17.5q-48 0 -93 -35l-27 67q51 74 123 74zM45 0v569q0 54 29 94q56 79 174 79q104 0 164 -66q32 -35 37 -83l43 -411q1 -9 7 -11.5t11.5 2.5t5.5 12v547h194v-567
q0 -51 -28 -90q-57 -80 -179 -80q-101 0 -157 66q-33 38 -38 92l-43 416q-2 13 -13.5 9t-11.5 -16v-562h-195z" />
    <glyph glyph-name="Nacute.salt" horiz-adv-x="743" 
d="M299 801l77 143h145l-113 -143h-109zM45 0v569q0 54 29 94q56 79 174 79q104 0 164 -66q32 -35 37 -83l43 -411q1 -9 7 -11.5t11.5 2.5t5.5 12v547h194v-567q0 -51 -28 -90q-57 -80 -179 -80q-101 0 -157 66q-33 38 -38 92l-43 416q-2 13 -13.5 9t-11.5 -16v-562h-195z
" />
    <glyph glyph-name="Ncaron.salt" horiz-adv-x="743" 
d="M231 941h111l49 -51l50 51h112l-100 -140h-131zM45 0v569q0 54 29 94q56 79 174 79q104 0 164 -66q32 -35 37 -83l43 -411q1 -9 7 -11.5t11.5 2.5t5.5 12v547h194v-567q0 -51 -28 -90q-57 -80 -179 -80q-101 0 -157 66q-33 38 -38 92l-43 416q-2 13 -13.5 9t-11.5 -16
v-562h-195z" />
    <glyph glyph-name="Ncommaaccent.salt" horiz-adv-x="743" 
d="M300 -206v103q0 24 23 24h100q21 0 21 -24v-135q0 -31 -14.5 -49.5t-34.5 -23t-39 -4.5h-2q-21 0 -35 4l-14 4v56q23 -1 26 9q2 4 2 10v4h-10q-23 0 -23 22zM45 0v569q0 54 29 94q56 79 174 79q104 0 164 -66q32 -35 37 -83l43 -411q1 -9 7 -11.5t11.5 2.5t5.5 12v547
h194v-567q0 -51 -28 -90q-57 -80 -179 -80q-101 0 -157 66q-33 38 -38 92l-43 416q-2 13 -13.5 9t-11.5 -16v-562h-195z" />
    <glyph glyph-name="zero.numerator" horiz-adv-x="462" 
d="M34 383v225q0 65 36.5 99.5t104.5 34.5h119q135 0 135 -128v-231q0 -60 -35 -94t-100 -34h-120q-70 0 -105 33.5t-35 94.5zM180 421q0 -35 38 -35h28q20 0 28.5 6t8.5 28v157q0 34 -32 34h-38q-19 0 -25.5 -6.5t-7 -10.5t-0.5 -6v-167z" />
    <glyph glyph-name="one.numerator" horiz-adv-x="270" 
d="M234 742v-487h-146v365l-79 -13v80l81 55h144z" />
    <glyph glyph-name="two.numerator" horiz-adv-x="417" 
d="M17 618v109q98 22 215 22q80 0 121 -41.5t41 -111.5q0 -90 -157 -210h157v-131h-373v126q60 35 143.5 102t83.5 94t-17 34t-62 7h-152z" />
    <glyph glyph-name="three.numerator" horiz-adv-x="417" 
d="M173 250q-89 0 -152 21l1 110h149q43 0 55 3t12 19v4q0 15 -13.5 19t-49.5 5l-112 5v118l112 8q57 0 63 10q2 5 2 13v5q0 16 -15.5 20t-49.5 4h-158v109q58 22 189 22q21 0 44 -1q60 -1 97 -33.5t37 -90.5v-26q0 -76 -63 -97q63 -17 63 -103v-19q0 -60 -36.5 -92.5
t-102.5 -32.5h-72z" />
    <glyph glyph-name="four.numerator" horiz-adv-x="448" 
d="M254 469v88l21 51h125v-139h40v-112l-40 -4v-96h-146v78h-222l-23 65l141 342h149l-105 -273h60z" />
    <glyph glyph-name="five.numerator" horiz-adv-x="418" 
d="M31 386h179q37 0 40 14v4v24q0 14 -7 20.5t-25 6.5h-30q-30 0 -30 -33h-126l15 320h326v-131h-199l-3 -48q27 17 72 17q15 0 31 -2q61 -5 91.5 -40.5t30.5 -92.5v-64q0 -65 -42.5 -97t-100.5 -32q-121 0 -222 18v116z" />
    <glyph glyph-name="six.numerator" horiz-adv-x="438" 
d="M30 512q0 217 125 234q32 5 88.5 5t153.5 -21v-111h-156q-46 0 -57 -20q-8 -15 -8 -47q29 16 104.5 16t105 -33.5t29.5 -95.5v-62q0 -122 -139 -122h-101q-48 0 -78 19.5t-48.5 77.5t-18.5 160zM176 445q0 -38 10 -48.5t43 -10.5h11q17 0 23 4.5t6 17.5v10q0 17 -3.5 22
t-21.5 5h-68z" />
    <glyph glyph-name="seven.numerator" horiz-adv-x="424" 
d="M8 611v131h370l37 -58l-185 -429h-158l153 356h-217z" />
    <glyph glyph-name="eight.numerator" horiz-adv-x="462" 
d="M37 374v35q0 69 56 77q-40 18 -49 45q-7 21 -7 56v43q0 116 143 116h113q67 0 100 -26.5t33 -87.5v-29q0 -33 -17 -53t-39 -23q56 -10 56 -96v-51q0 -75 -35 -100t-98 -25h-113q-108 0 -132 59q-11 26 -11 60zM183 402q0 -13 7 -18.5t24 -5.5h35q20 0 25.5 6t5.5 18v21
q0 12 -6 18t-24 6h-36q-19 0 -25 -6t-6 -18v-21zM183 584q0 -14 6.5 -18t24.5 -4h35q20 0 25.5 4.5t5.5 17.5v15q0 16 -7.5 20t-23.5 4h-35q-17 0 -24 -4t-7 -20v-15z" />
    <glyph glyph-name="nine.numerator" horiz-adv-x="438" 
d="M25 562v63q0 125 140 125h100q36 0 61 -11t44 -39q40 -58 40 -198.5t-34 -193t-91 -61.5q-31 -5 -86.5 -5t-155.5 19v112h156q47 0 57 21q8 17 8 52q-29 -16 -104 -16t-105 34.5t-30 97.5zM171 584q0 -19 4 -24.5t22 -5.5h67q0 42 -10 53.5t-43 11.5h-11q-17 0 -23 -5
t-6 -20v-10z" />
    <glyph glyph-name="zero.denominator" horiz-adv-x="462" 
d="M34 128v225q0 65 36.5 99.5t104.5 34.5h119q135 0 135 -128v-231q0 -60 -35 -94t-100 -34h-120q-70 0 -105 33.5t-35 94.5zM180 166q0 -35 38 -35h28q20 0 28.5 6t8.5 28v157q0 34 -32 34h-38q-19 0 -25.5 -6.5t-7 -10.5t-0.5 -7v-166z" />
    <glyph glyph-name="one.denominator" horiz-adv-x="270" 
d="M234 487v-487h-146v366l-79 -13v80l81 54h144z" />
    <glyph glyph-name="two.denominator" horiz-adv-x="417" 
d="M17 363v109q98 22 215 22q80 0 121 -41.5t41 -111.5q0 -90 -157 -210h157v-131h-373v127q61 38 144 107.5t83 100.5q0 18 -17 23t-62 5h-152z" />
    <glyph glyph-name="three.denominator" horiz-adv-x="417" 
d="M173 -5q-89 0 -152 21l1 110h149q43 0 55 3t12 19v4q0 15 -13.5 19t-49.5 5l-112 5v118l112 8q57 0 63 11q2 4 2 12v4q0 16 -15.5 20t-49.5 4h-158v109q61 23 191 23q20 0 42 -1q60 -1 97 -33.5t37 -90.5v-26q0 -76 -63 -97q63 -17 63 -103v-19q0 -60 -36.5 -92.5
t-102.5 -32.5h-72z" />
    <glyph glyph-name="four.denominator" horiz-adv-x="448" 
d="M254 214v87l21 51h125v-138h40v-112l-40 -22v-78h-146v78h-222l-23 66l141 341h149l-105 -273h60z" />
    <glyph glyph-name="five.denominator" horiz-adv-x="418" 
d="M210 131q40 0 40 16v23q0 13 -7 19t-25 6h-30q-30 0 -30 -16h-126l15 308h326v-131h-199l-3 -53q24 17 69 17q16 0 34 -2q61 -4 91.5 -39.5t30.5 -91.5v-63q0 -64 -42 -95.5t-101 -31.5q-121 0 -222 18v116h179z" />
    <glyph glyph-name="six.denominator" horiz-adv-x="438" 
d="M30 256q0 216 125 233q31 5 86.5 5t155.5 -19v-111h-156q-46 0 -57 -20q-8 -15 -8 -47q29 16 104.5 16t105 -33.5t29.5 -95.5v-62q0 -122 -139 -122h-101q-48 0 -78 19.5t-48.5 77.5t-18.5 159zM176 190q0 -38 10 -48.5t43 -10.5h11q17 0 23 4.5t6 17.5v10q0 17 -3.5 22
t-21.5 5h-68z" />
    <glyph glyph-name="seven.denominator" horiz-adv-x="424" 
d="M8 356v131h370l37 -59l-185 -428h-159l154 356h-217z" />
    <glyph glyph-name="eight.denominator" horiz-adv-x="462" 
d="M37 119v35q0 70 56 78q-40 18 -49 45q-7 21 -7 55v43q0 116 143 116h113q67 0 100 -26.5t33 -87.5v-29q0 -33 -17 -52.5t-39 -22.5q56 -10 56 -96v-52q0 -75 -35 -100t-98 -25h-113q-108 0 -132 60q-11 25 -11 59zM183 147q0 -13 7 -18.5t24 -5.5h35q20 0 25.5 6t5.5 18
v21q0 12 -6 18t-24 6h-36q-19 0 -25 -6t-6 -18v-21zM183 329q0 -14 6.5 -18t24.5 -4h35q20 0 25.5 4.5t5.5 17.5v15q0 16 -7.5 20t-23.5 4h-35q-17 0 -24 -4t-7 -20v-15z" />
    <glyph glyph-name="nine.denominator" horiz-adv-x="438" 
d="M25 302v62q0 124 140 124h100q48 0 78 -19.5t48.5 -77.5t18.5 -159q0 -215 -125 -232q-23 -4 -77 -4t-165 10v112h156q46 0 57 20q8 16 8 49q-18 -11 -37.5 -13.5t-64.5 -2.5q-77 0 -107 34t-30 97zM171 323q0 -18 4 -23.5t22 -5.5h67q0 40 -10 51.5t-43 11.5h-11
q-17 0 -23 -5t-6 -19v-10z" />
    <glyph glyph-name="c_h" horiz-adv-x="1066" 
d="M416 -11l-168 4q-226 0 -226 273q0 147 46.5 208.5t129.5 61.5h48q117 0 210 -36v-114q-61 6 -121.5 6t-72.5 -1.5t-25.5 -14t-17 -38.5t-3.5 -91.5t21.5 -87.5t80.5 -22q146 0 186.5 20t40.5 101v524h193v-303q57 61 147 61q99 0 129 -59q15 -30 20 -61.5t5 -79.5v-340
h-194v344q0 30 -8 41t-25 11q-57 0 -73 -37v-120q0 -101 -49 -163q-20 -27 -56 -45t-67 -27q-55 -15 -151 -15z" />
    <glyph glyph-name="m.salt" horiz-adv-x="854" 
d="M34 0v463q66 50 124 63.5t186 13.5q38 0 79 -11t59 -29q79 40 192 40q76 0 115 -47t39 -123v-370h-194v330q0 33 -6 44.5t-29 11.5q-54 0 -71 -27v-359h-194v330q0 33 -6 44.5t-29 11.5q-54 0 -71 -27v-359h-194z" />
    <glyph glyph-name="n.salt" 
d="M34 0v463q65 49 127.5 63t192.5 14q78 0 126 -48.5t48 -121.5v-370h-194v330q0 33 -6 44.5t-29 11.5q-54 0 -71 -27v-359h-194z" />
    <glyph glyph-name="ntilde.salt" 
d="M230 741q22 0 54 -17.5t52 -17.5h7q48 0 86 40l26 -74q-48 -72 -112 -72q-22 0 -59.5 17.5t-56.5 17.5q-48 0 -93 -35l-27 67q51 74 123 74zM34 0v463q65 49 127.5 63t192.5 14q78 0 126 -48.5t48 -121.5v-370h-194v330q0 33 -6 44.5t-29 11.5q-54 0 -71 -27v-359h-194z
" />
    <glyph glyph-name="ncommaaccent.salt" 
d="M221 -200v102q0 24 23 24h100q21 0 21 -24v-135q0 -31 -14.5 -49.5t-34.5 -23t-39 -4.5h-2q-21 0 -35 4l-14 4v56q19 -1 23 4q5 7 5 14v5h-10q-23 0 -23 23zM34 0v463q65 49 127.5 63t192.5 14q78 0 126 -48.5t48 -121.5v-370h-194v330q0 33 -6 44.5t-29 11.5
q-54 0 -71 -27v-359h-194z" />
    <glyph glyph-name="ncaron.salt" 
d="M144 740h111l49 -51l50 51h112l-100 -140h-131zM34 0v463q65 49 127.5 63t192.5 14q78 0 126 -48.5t48 -121.5v-370h-194v330q0 33 -6 44.5t-29 11.5q-54 0 -71 -27v-359h-194z" />
    <glyph glyph-name="nacute.salt" 
d="M233 600l77 143h145l-113 -143h-109zM34 0v463q65 49 127.5 63t192.5 14q78 0 126 -48.5t48 -121.5v-370h-194v330q0 33 -6 44.5t-29 11.5q-54 0 -71 -27v-359h-194z" />
    <glyph glyph-name="uni1E41.salt" horiz-adv-x="854" 
d="M379 623v94q0 25 24 25h90q23 0 23 -25v-94q0 -23 -23 -23h-90q-24 0 -24 23zM34 0v463q66 50 124 63.5t186 13.5q38 0 79 -11t59 -29q79 40 192 40q76 0 115 -47t39 -123v-370h-194v330q0 33 -6 44.5t-29 11.5q-54 0 -71 -27v-359h-194v330q0 33 -6 44.5t-29 11.5
q-54 0 -71 -27v-359h-194z" />
    <glyph glyph-name="r.salt" horiz-adv-x="404" 
d="M393 373q-38 9 -87.5 9t-77.5 -13v-369h-194v473q47 49 136 63q50 7 106.5 7t116.5 -5v-165z" />
    <glyph glyph-name="racute.salt" horiz-adv-x="404" 
d="M166 603l77 143h145l-113 -143h-109zM393 373q-38 9 -87.5 9t-77.5 -13v-369h-194v473q47 49 136 63q50 7 106.5 7t116.5 -5v-165z" />
    <glyph glyph-name="rcaron.salt" horiz-adv-x="404" 
d="M76 743h111l49 -51l50 51h112l-100 -140h-131zM393 373q-38 9 -87.5 9t-77.5 -13v-369h-194v473q47 49 136 63q50 7 106.5 7t116.5 -5v-165z" />
    <glyph glyph-name="rcommaaccent.salt" horiz-adv-x="404" 
d="M65 -200v102q0 24 23 24h100q21 0 21 -24v-135q0 -31 -14.5 -49.5t-34.5 -23t-39 -4.5h-2q-21 0 -35 4l-14 4v56q23 -1 26 9q2 4 2 9v5h-10q-23 0 -23 23zM385 373q-38 9 -87.5 9t-77.5 -13v-369h-194v473q47 49 136 63q50 7 106.5 7t116.5 -5v-165z" />
    <glyph glyph-name="x.salt" horiz-adv-x="617" 
d="M124 270q0 17 -15 49l-98 212h203l80 -176v-173l-80 -182h-203l100 225q13 28 13 45zM322 311q0 43 1 44l80 176h203l-98 -212q-15 -32 -15 -49t13 -45l100 -225h-203l-80 182q-1 86 -1 129z" />
    <glyph glyph-name="X.salt" horiz-adv-x="693" 
d="M139 305q16 45 16 68t-26 84l-118 275h200l120 -245v-226l-110 -261h-210zM360 429.5q0 56.5 1 57.5l121 245h200l-118 -275q-26 -61 -26 -84t16 -68l128 -305h-210l-111 261q-1 112 -1 168.5z" />
    <glyph glyph-name="a.salt" horiz-adv-x="532" 
d="M28 151v24q0 28 2 46t11.5 40.5t27.5 34.5q44 31 136 31h105q0 51 -17.5 61.5t-89.5 10.5t-164 -12v111q17 6 32 11.5t26.5 9.5t26 6.5t22.5 4.5t24 3.5t22 2t25.5 1t26.5 0.5h73.5t77.5 -14t57 -36t33 -59q19 -60 19 -166v-86q0 -93 -37.5 -134.5t-117.5 -41.5h-144
q-177 0 -177 151zM222 171q0 -23 6.5 -30t27.5 -7h21q17 0 25 6t8 28v50l-55 -4q-21 -1 -27 -9.5t-6 -29.5v-4z" />
    <glyph glyph-name="agrave.salt" horiz-adv-x="532" 
d="M115 740h145l77 -143h-109zM28 151v24q0 28 2 46t11.5 40.5t27.5 34.5q44 31 136 31h105q0 51 -17.5 61.5t-89.5 10.5t-164 -12v111q17 6 32 11.5t26.5 9.5t26 6.5t22.5 4.5t24 3.5t22 2t25.5 1t26.5 0.5h73.5t77.5 -14t57 -36t33 -59q19 -60 19 -166v-86
q0 -93 -37.5 -134.5t-117.5 -41.5h-144q-177 0 -177 151zM222 171q0 -23 6.5 -30t27.5 -7h21q17 0 25 6t8 28v50l-55 -4q-21 -1 -27 -9.5t-6 -29.5v-4z" />
    <glyph glyph-name="aacute.salt" horiz-adv-x="532" 
d="M228 597l77 143h145l-113 -143h-109zM28 151v24q0 28 2 46t11.5 40.5t27.5 34.5q44 31 136 31h105q0 51 -17.5 61.5t-89.5 10.5t-164 -12v111q17 6 32 11.5t26.5 9.5t26 6.5t22.5 4.5t24 3.5t22 2t25.5 1t26.5 0.5h73.5t77.5 -14t57 -36t33 -59q19 -60 19 -166v-86
q0 -93 -37.5 -134.5t-117.5 -41.5h-144q-177 0 -177 151zM222 171q0 -23 6.5 -30t27.5 -7h21q17 0 25 6t8 28v50l-55 -4q-21 -1 -27 -9.5t-6 -29.5v-4z" />
    <glyph glyph-name="atilde.salt" horiz-adv-x="532" 
d="M231 738q23 0 55 -17.5t51 -17.5h6q49 0 87 40l26 -74q-48 -72 -112 -72q-22 0 -59.5 17.5t-60.5 17.5q-44 0 -89 -35l-27 67q52 74 123 74zM28 151v24q0 28 2 46t11.5 40.5t27.5 34.5q44 31 136 31h105q0 51 -17.5 61.5t-89.5 10.5t-164 -12v111q17 6 32 11.5t26.5 9.5
t26 6.5t22.5 4.5t24 3.5t22 2t25.5 1t26.5 0.5h73.5t77.5 -14t57 -36t33 -59q19 -60 19 -166v-86q0 -93 -37.5 -134.5t-117.5 -41.5h-144q-177 0 -177 151zM222 171q0 -23 6.5 -30t27.5 -7h21q17 0 25 6t8 28v50l-55 -4q-21 -1 -27 -9.5t-6 -29.5v-4z" />
    <glyph glyph-name="aring.salt" horiz-adv-x="532" 
d="M181 699q0 28 13.5 52t37 37.5t51 13.5t51 -13.5t37 -37.5t13.5 -52t-13.5 -51.5t-37 -37t-51 -13.5t-51 13.5t-37 37t-13.5 51.5zM258.5 723q-9.5 -10 -9.5 -21.5t4 -19.5q10 -16 27 -16t26.5 9.5t9.5 23.5t-9.5 24t-24 10t-24 -10zM28 151v24q0 28 2 46t11.5 40.5
t27.5 34.5q44 31 136 31h105q0 51 -17.5 61.5t-89.5 10.5t-164 -12v111q17 6 32 11.5t26.5 9.5t26 6.5t22.5 4.5t24 3.5t22 2t25.5 1t26.5 0.5h73.5t77.5 -14t57 -36t33 -59q19 -60 19 -166v-86q0 -93 -37.5 -134.5t-117.5 -41.5h-144q-177 0 -177 151zM222 171
q0 -23 6.5 -30t27.5 -7h21q17 0 25 6t8 28v50l-55 -4q-21 -1 -27 -9.5t-6 -29.5v-4z" />
    <glyph glyph-name="acircumflex.salt" horiz-adv-x="532" 
d="M121 597l100 140h131l91 -140h-111l-49 51l-50 -51h-112zM28 151v24q0 28 2 46t11.5 40.5t27.5 34.5q44 31 136 31h105q0 51 -17.5 61.5t-89.5 10.5t-164 -12v111q17 6 32 11.5t26.5 9.5t26 6.5t22.5 4.5t24 3.5t22 2t25.5 1t26.5 0.5h73.5t77.5 -14t57 -36t33 -59
q19 -60 19 -166v-86q0 -93 -37.5 -134.5t-117.5 -41.5h-144q-177 0 -177 151zM222 171q0 -23 6.5 -30t27.5 -7h21q17 0 25 6t8 28v50l-55 -4q-21 -1 -27 -9.5t-6 -29.5v-4z" />
    <glyph glyph-name="adieresis.salt" horiz-adv-x="532" 
d="M89 663q0 27 19.5 46t46.5 19t46 -19t19 -46t-19 -46.5t-46 -19.5t-46.5 19.5t-19.5 46.5zM344 663q0 27 19.5 46t46.5 19t46 -19t19 -46t-19 -46.5t-46 -19.5t-46.5 19.5t-19.5 46.5zM28 151v24q0 28 2 46t11.5 40.5t27.5 34.5q44 31 136 31h105q0 51 -17.5 61.5
t-89.5 10.5t-164 -12v111q17 6 32 11.5t26.5 9.5t26 6.5t22.5 4.5t24 3.5t22 2t25.5 1t26.5 0.5h73.5t77.5 -14t57 -36t33 -59q19 -60 19 -166v-86q0 -93 -37.5 -134.5t-117.5 -41.5h-144q-177 0 -177 151zM222 171q0 -23 6.5 -30t27.5 -7h21q17 0 25 6t8 28v50l-55 -4
q-21 -1 -27 -9.5t-6 -29.5v-4z" />
    <glyph glyph-name="aogonek.salt" horiz-adv-x="532" 
d="M360 16h69q-61 -42 -29 -84q17 -22 42 -17v-90q-15 -5 -26 -5t-25 1t-32 13q-60 38 -60 92.5t61 89.5zM28 151v24q0 28 2 46t11.5 40.5t27.5 34.5q44 31 136 31h105q0 51 -17.5 61.5t-89.5 10.5t-164 -12v111q17 6 32 11.5t26.5 9.5t26 6.5t22.5 4.5t24 3.5t22 2t25.5 1
t26.5 0.5h73.5t77.5 -14t57 -36t33 -59q19 -60 19 -166v-86q0 -93 -37.5 -134.5t-117.5 -41.5h-144q-177 0 -177 151zM222 171q0 -23 6.5 -30t27.5 -7h21q17 0 25 6t8 28v50l-55 -4q-21 -1 -27 -9.5t-6 -29.5v-4z" />
    <glyph glyph-name="abreve.salt" horiz-adv-x="532" 
d="M234 711q0 -47 48 -47t48 47h67q0 -70 -54 -100q-27 -14 -61.5 -14t-60.5 14q-54 30 -54 100h67zM28 151v24q0 28 2 46t11.5 40.5t27.5 34.5q44 31 136 31h105q0 51 -17.5 61.5t-89.5 10.5t-164 -12v111q17 6 32 11.5t26.5 9.5t26 6.5t22.5 4.5t24 3.5t22 2t25.5 1
t26.5 0.5h73.5t77.5 -14t57 -36t33 -59q19 -60 19 -166v-86q0 -93 -37.5 -134.5t-117.5 -41.5h-144q-177 0 -177 151zM222 171q0 -23 6.5 -30t27.5 -7h21q17 0 25 6t8 28v50l-55 -4q-21 -1 -27 -9.5t-6 -29.5v-4z" />
    <glyph glyph-name="amacron.salt" horiz-adv-x="532" 
d="M136 597v93h292v-93h-292zM28 151v24q0 28 2 46t11.5 40.5t27.5 34.5q44 31 136 31h105q0 51 -17.5 61.5t-89.5 10.5t-164 -12v111q17 6 32 11.5t26.5 9.5t26 6.5t22.5 4.5t24 3.5t22 2t25.5 1t26.5 0.5h73.5t77.5 -14t57 -36t33 -59q19 -60 19 -166v-86
q0 -93 -37.5 -134.5t-117.5 -41.5h-144q-177 0 -177 151zM222 171q0 -23 6.5 -30t27.5 -7h21q17 0 25 6t8 28v50l-55 -4q-21 -1 -27 -9.5t-6 -29.5v-4z" />
    <glyph glyph-name="u.salt" 
d="M28 163v370h194v-330q0 -33 6 -44.5t29 -11.5q54 0 71 27v359h194v-463q-47 -45 -110.5 -61t-177 -16t-160 46t-46.5 124z" />
    <glyph glyph-name="uhungarumlaut.salt" 
d="M134 596l77 143h145l-113 -143h-109zM307 596l77 143h145l-113 -143h-109zM28 163v370h194v-330q0 -33 6 -44.5t29 -11.5q54 0 71 27v359h194v-463q-47 -45 -110.5 -61t-177 -16t-160 46t-46.5 124z" />
    <glyph glyph-name="ugrave.salt" 
d="M108 739h144l78 -143h-110zM28 163v370h194v-330q0 -33 6 -44.5t29 -11.5q54 0 71 27v359h194v-463q-47 -45 -110.5 -61t-177 -16t-160 46t-46.5 124z" />
    <glyph glyph-name="uacute.salt" 
d="M220 596l78 143h144l-112 -143h-110zM28 163v370h194v-330q0 -33 6 -44.5t29 -11.5q54 0 71 27v359h194v-463q-47 -45 -110.5 -61t-177 -16t-160 46t-46.5 124z" />
    <glyph glyph-name="utilde.salt" 
d="M224 737q22 0 54 -17.5t52 -17.5h7q48 0 86 40l26 -74q-48 -72 -112 -72q-22 0 -59.5 17.5t-56.5 17.5q-48 0 -93 -35l-27 67q51 74 123 74zM28 163v370h194v-330q0 -33 6 -44.5t29 -11.5q54 0 71 27v359h194v-463q-47 -45 -110.5 -61t-177 -16t-160 46t-46.5 124z" />
    <glyph glyph-name="uring.salt" 
d="M182 658q-8 19 -8 43.5t13.5 48t37 37.5t51 14t51 -14t36.5 -37.5t13 -51.5t-13 -51.5t-36.5 -37t-47.5 -13.5t-43 8t-32.5 21.5t-21.5 32.5zM251.5 722q-9.5 -10 -9.5 -21.5t4 -19.5q10 -16 27 -16t26 9.5t9 23.5t-9 24t-23.5 10t-24 -10zM28 163v370h194v-330
q0 -33 6 -44.5t29 -11.5q54 0 71 27v359h194v-463q-47 -45 -110.5 -61t-177 -16t-160 46t-46.5 124z" />
    <glyph glyph-name="ucircumflex.salt" 
d="M114 596l100 140h131l91 -140h-111l-49 51l-50 -51h-112zM28 163v370h194v-330q0 -33 6 -44.5t29 -11.5q54 0 71 27v359h194v-463q-47 -45 -110.5 -61t-177 -16t-160 46t-46.5 124z" />
    <glyph glyph-name="udieresis.salt" 
d="M82 662q0 27 19.5 46t46.5 19t46 -19t19 -46t-19 -46.5t-46 -19.5t-46.5 19.5t-19.5 46.5zM337 662q0 27 19.5 46t46.5 19t46 -19t19 -46t-19 -46.5t-46 -19.5t-46.5 19.5t-19.5 46.5zM28 163v370h194v-330q0 -33 6 -44.5t29 -11.5q54 0 71 27v359h194v-463
q-47 -45 -110.5 -61t-177 -16t-160 46t-46.5 124z" />
    <glyph glyph-name="uogonek.salt" 
d="M370 19h69q-61 -42 -29 -84q17 -22 42 -17v-90q-15 -5 -26 -5t-25 1t-32 13q-60 38 -60 92.5t61 89.5zM28 163v370h194v-330q0 -33 6 -44.5t29 -11.5q54 0 71 27v359h194v-463q-47 -45 -110.5 -61t-177 -16t-160 46t-46.5 124z" />
    <glyph glyph-name="ubreve.salt" 
d="M160 710h67q0 -47 48 -47t48 47h67q0 -51 -31.5 -82.5t-84 -31.5t-83.5 31.5t-31 82.5zM28 163v370h194v-330q0 -33 6 -44.5t29 -11.5q54 0 71 27v359h194v-463q-47 -45 -110.5 -61t-177 -16t-160 46t-46.5 124z" />
    <glyph glyph-name="umacron.salt" 
d="M129 596v93h292v-93h-292zM28 163v370h194v-330q0 -33 6 -44.5t29 -11.5q54 0 71 27v359h194v-463q-47 -45 -110.5 -61t-177 -16t-160 46t-46.5 124z" />
    <glyph glyph-name="b.salt" 
d="M256 -8q-168 0 -222 36v753h194v-281q30 39 97 39q112 0 157.5 -65t45.5 -211t-52 -208.5t-151 -62.5h-69zM228 126h47q41 0 51 43q8 30 8 102t-10 100t-45.5 28t-50.5 -19v-254z" />
    <glyph glyph-name="d.salt" 
d="M522 28q-54 -36 -222 -36h-69q-99 0 -151 62.5t-52 208.5t45.5 211t157.5 65q67 0 97 -39v282h194v-754zM232 371q-10 -28 -10 -87.5t1 -76t7 -38.5q10 -43 51 -43h47v254q-15 19 -50.5 19t-45.5 -28z" />
    <glyph glyph-name="f.salt" horiz-adv-x="379" 
d="M34 0v610q0 45 14 78t32 52t51 32.5t77 13.5q102 0 160 -24v-109l-93 1q-33 0 -40 -13.5t-7 -70.5v-39h97v-134h-97v-397h-194z" />
    <glyph glyph-name="p.salt" 
d="M34 -270v771q39 16 123.5 26t175.5 10t143 -62.5t52 -208.5t-45.5 -211t-157.5 -65q-67 0 -97 39v-299h-194zM228 149q15 -19 50.5 -19t45.5 28t10 87.5t-1 76t-7 38.5q-10 43 -51 43h-47v-254z" />
    <glyph glyph-name="t.salt" horiz-adv-x="324" 
d="M34 190v490h194v-148h85v-134h-85v-168q0 -49 8.5 -68t27.5 -29q42 -21 49 -21v-113h-150q-61 0 -95 42.5t-34 148.5z" />
    <glyph glyph-name="uni1E03.salt" 
d="M68 882v94q0 25 24 25h90q23 0 23 -25v-94q0 -23 -23 -23h-90q-24 0 -24 23zM256 -8q-168 0 -222 36v753h194v-281q30 39 97 39q112 0 157.5 -65t45.5 -211t-52 -208.5t-151 -62.5h-69zM228 126h47q41 0 51 43q8 30 8 102t-10 100t-45.5 28t-50.5 -19v-254z" />
    <glyph glyph-name="uni1E0B.salt" 
d="M366 882v94q0 25 24 25h90q23 0 23 -25v-94q0 -23 -23 -23h-90q-24 0 -24 23zM522 28q-54 -36 -222 -36h-69q-99 0 -151 62.5t-52 208.5t45.5 211t157.5 65q67 0 97 -39v282h194v-754zM232 371q-10 -28 -10 -87.5t1 -76t7 -38.5q10 -43 51 -43h47v254q-15 19 -50.5 19
t-45.5 -28z" />
    <glyph glyph-name="uni1E1F.salt" horiz-adv-x="379" 
d="M144 869v94q0 25 24 25h90q23 0 23 -25v-94q0 -23 -23 -23h-90q-24 0 -24 23zM34 0v610q0 45 14 78t32 52t51 32.5t77 13.5q102 0 160 -24v-109l-93 1q-33 0 -40 -13.5t-7 -70.5v-39h97v-134h-97v-397h-194z" />
    <glyph glyph-name="uni1E57.salt" 
d="M220 620v94q0 25 24 25h90q23 0 23 -25v-94q0 -23 -23 -23h-90q-24 0 -24 23zM34 -270v771q39 16 123.5 26t175.5 10t143 -62.5t52 -208.5t-45.5 -211t-157.5 -65q-67 0 -97 39v-299h-194zM228 149q15 -19 50.5 -19t45.5 28t10 87.5t-1 76t-7 38.5q-10 43 -51 43h-47
v-254z" />
    </font>
</defs>
</svg>
