<?xml version="1.0" standalone="no"?>
<!DOCTYPE svg PUBLIC "-//W3C//DTD SVG 1.1//EN" "http://www.w3.org/Graphics/SVG/1.1/DTD/svg11.dtd" >
<svg xmlns="http://www.w3.org/2000/svg" xmlns:xlink="http://www.w3.org/1999/xlink" version="1.1">
<metadata>
Created by FontForge 20170731 at Sat Feb  4 01:37:03 2012
 By Aleksey,,,
Copyright (c) 2011 Natanael Gama (exo@ndiscovered.com), with Reserved Font Name "Exo"
</metadata>
<defs>
<font id="Exo-ExtraBoldItalic" horiz-adv-x="548" >
  <font-face 
    font-family="Exo"
    font-weight="800"
    font-style="italic"
    font-stretch="normal"
    units-per-em="1000"
    panose-1="2 0 8 3 0 0 0 0 0 0"
    ascent="800"
    descent="-200"
    x-height="531"
    cap-height="732"
    bbox="-61 -308 1408 998"
    underline-thickness="50"
    underline-position="-150"
    unicode-range="U+000D-FB06"
  />
<missing-glyph horiz-adv-x="758" 
d="M100 0v531h558v-531h-558zM114 22l256 244l-256 241v-485zM124 518l257 -242l254 242h-511zM127 13h507l-253 243zM392 266l252 -241v481z" />
    <glyph glyph-name="fi" unicode="fi" horiz-adv-x="606" 
d="M403 786h31.5t107 -7t106.5 -19l-16 -96l-187 4h-5q-116 0 -134 -110l-4 -27l341 -10l-83 -521h-164l65 412h-178l-65 -412h-164l65 412h-79l17 102l81 17l12 57q14 92 80.5 144t172.5 54z" />
    <glyph glyph-name="fl" unicode="fl" horiz-adv-x="690" 
d="M613 0q-75 0 -112 45q-27 31 -27 90q0 25 4 54l76 477l-115 1q-43 0 -64.5 -21.5t-30.5 -76.5l-4 -38h114l-18 -119h-115l-67 -412h-164l66 412h-78l16 102l82 17l9 46q23 145 120 186q53 23 132 23l299 -3l-89 -564q-9 -55 -2.5 -70t12.5 -20t35.5 -17.5t34.5 -12.5
l-16 -99h-98z" />
    <glyph glyph-name=".notdef" horiz-adv-x="758" 
d="M100 0v531h558v-531h-558zM114 22l256 244l-256 241v-485zM124 518l257 -242l254 242h-511zM127 13h507l-253 243zM392 266l252 -241v481z" />
    <glyph glyph-name=".notdef" horiz-adv-x="758" 
d="M100 0v531h558v-531h-558zM114 22l256 244l-256 241v-485zM124 518l257 -242l254 242h-511zM127 13h507l-253 243zM392 266l252 -241v481z" />
    <glyph glyph-name=".null" horiz-adv-x="0" 
 />
    <glyph glyph-name="uni000D" unicode="&#xd;" horiz-adv-x="1000" 
 />
    <glyph glyph-name="space" unicode=" " horiz-adv-x="250" 
 />
    <glyph glyph-name="exclam" unicode="!" horiz-adv-x="274" 
d="M108 150h100q23 0 20 -25l-17 -102q-3 -23 -26 -23h-100q-24 0 -21 23l16 102q4 25 28 25zM101 197l69 534h161l-102 -534h-128z" />
    <glyph glyph-name="quotedbl" unicode="&#x22;" horiz-adv-x="468" 
d="M153 531l9 134l11 67h157l-11 -67l-31 -134h-135zM349 531l11 134l10 67h157l-11 -67l-31 -134h-136z" />
    <glyph glyph-name="numbersign" unicode="#" horiz-adv-x="733" 
d="M45 202l35 112h150l34 105h-151l36 112h155l69 201h112l-69 -201h107l69 201h112l-69 -201h170l-35 -112h-170l-35 -106h171l-34 -112h-179l-69 -201h-112l69 201l-108 1l-69 -202h-112l69 202h-146zM342 314l111 -1l35 106h-112z" />
    <glyph glyph-name="dollar" unicode="$" horiz-adv-x="568" 
d="M314 140q76 0 85 54l4 29q3 18 1 31q-2 27 -52 27h-78q-101 0 -140 70q-24 42 -24 107q0 20 4 44l9 62q17 117 107 153q49 19 122 21l14 86h95l-13 -87q90 -4 169 -30l-20 -127q-112 9 -221 9q-44 0 -64.5 -11t-27.5 -48l-4 -25q-1 -10 -1 -23.5t10 -25t53 -11.5h81
q42 0 73 -15.5t46 -39.5q32 -51 32 -103q0 -17 -4 -63l-6 -42q-22 -136 -117 -172q-48 -18 -117 -18l-13 -82h-95l13 83q-58 2 -89.5 8t-81.5 23l20 126q128 -10 230 -10z" />
    <glyph glyph-name="percent" unicode="%" horiz-adv-x="965" 
d="M381 732q116 0 116 -107q0 -16 -3 -35l-18 -118q-7 -44 -25 -70q-34 -53 -132 -53h-101q-67 0 -96 39q-21 29 -21 72q0 15 3 33l18 118q10 64 45.5 92.5t112.5 28.5h101zM218 504q-2 -8 -2 -17.5t6 -18.5t31 -9h64q27 0 38 10.5t15 34.5l11 73q3 29 -3 35q-9 10 -34 10
h-63q-32 0 -43 -17q-7 -10 -9 -28zM200 0l566 732h110l-560 -732h-116zM763 385h101q69 0 97 -38q20 -28 20 -72q0 -16 -3 -33l-17 -118q-10 -66 -46.5 -94t-112.5 -28h-102q-67 0 -94 37q-20 27 -20 70q0 16 2 33l18 118q10 66 45.5 95.5t111.5 29.5zM701 157
q-1 -8 -1 -17.5t6 -18.5t32 -9h62q28 0 39 11t14 34l11 73q2 10 2 20.5t-6.5 17.5t-31.5 7h-63q-36 0 -46 -22q-4 -9 -7 -23z" />
    <glyph glyph-name="ampersand" unicode="&#x26;" horiz-adv-x="689" 
d="M51 190q0 98 103 175l89 67l-36 64q-22 39 -22 78.5t18 73t47.5 55t67.5 27.5q46 7 86.5 7t75.5 -4q59 -7 125 -23l-19 -120h-151q-59 0 -70 -18q-2 -4 -2 -17.5t22 -53.5l115 -201l136 116l48 -71l-70 -122l-46 -44l103 -179h-181l-50 88l-76 -58q-47 -37 -114 -37
q-41 0 -89 19.5t-79 72.5t-31 105zM315 162l53 44l-63 105l-57 -41q-43 -33 -43 -65q0 -16 10 -31q38 -58 100 -12z" />
    <glyph glyph-name="quotesingle" unicode="'" horiz-adv-x="238" 
d="M132 531l10 134l11 67h165l-11 -67l-31 -134h-144z" />
    <glyph glyph-name="parenleft" unicode="(" horiz-adv-x="392" 
d="M311 449.5q-32 -86.5 -45 -167.5t-13 -123t1.5 -89.5t16.5 -113.5q27 -120 62 -186l13 -25h-148q-50 59 -84 181q-26 96 -26 209q0 159 46 307q34 108 95 210q38 61 95 123q19 21 31 30l11 10h150q-27 -33 -68.5 -96.5t-73 -123t-63.5 -146z" />
    <glyph glyph-name="parenright" unicode=")" horiz-adv-x="394" 
d="M184.5 104.5q32.5 88.5 45 169t12.5 121t-1.5 88t-16.5 114.5q-27 121 -61 191l-13 27h148q49 -66 83 -190q27 -100 27 -214q0 -146 -45 -299q-34 -112 -91 -213q-35 -60 -87 -117q-18 -20 -29 -29l-10 -8h-166q28 31 69 92t72 120t63.5 147.5z" />
    <glyph glyph-name="asterisk" unicode="*" horiz-adv-x="422" 
d="M122 566l10 62l143 22l-9 -89zM152 417l46 137l84 -22l-74 -134zM257 463l61 75l98 -90l-44 -50zM276 721l62 20l45 -124l-88 -33zM325 571l132 80l27 -52l-114 -97z" />
    <glyph glyph-name="plus" unicode="+" horiz-adv-x="471" 
d="M73 289l21 134h140l22 141h134l-22 -141h142l-21 -134h-142l-23 -141h-134l23 141h-140z" />
    <glyph glyph-name="comma" unicode="," horiz-adv-x="257" 
d="M82 0q-11 0 -17 6.5t-4 18.5l16 99q4 27 29 27h96q20 0 20 -20v-7l-22 -135q-5 -33 -22.5 -53t-39.5 -25q-23 -5 -43.5 -5t-32.5 3l-14 3l9 54q14 0 22 4.5t9.5 8.5t3.5 11l1 10h-11z" />
    <glyph glyph-name="hyphen" unicode="-" horiz-adv-x="353" 
d="M61 223l21 134h314l-21 -134h-314z" />
    <glyph glyph-name="period" unicode="." horiz-adv-x="259" 
d="M105 150h98q21 0 21 -18v-7l-17 -102q-4 -23 -28 -23h-98q-10 0 -16 6.5t-5 16.5l17 102q3 25 28 25z" />
    <glyph glyph-name="slash" unicode="/" horiz-adv-x="477" 
d="M2 -72l414 842h169l-414 -842h-169z" />
    <glyph glyph-name="zero" unicode="0" horiz-adv-x="624" 
d="M335 732h164q51 0 87 -15.5t54 -41t23.5 -50.5t5.5 -42.5t-4 -34.5l-57 -364q-15 -91 -62.5 -137.5t-133.5 -46.5h-164q-92 0 -140 48q-36 37 -36 99q0 18 3 37l57 356q15 96 64.5 144t138.5 48zM244 215q-2 -11 -2 -20.5t2.5 -20.5t13.5 -16q16 -9 42 -9h73q22 0 36 5
q31 11 39 60l49 304q1 10 1 25t-10 27.5t-40 12.5h-84q-62 0 -72 -65z" />
    <glyph glyph-name="one" unicode="1" horiz-adv-x="374" 
d="M112 544l16 106q21 0 71 26.5t75 55.5h162l-116 -732h-164l91 570q-37 -26 -135 -26z" />
    <glyph glyph-name="two" unicode="2" horiz-adv-x="583" 
d="M471 529q0 31 -21 47t-86 16h-243l19 122q148 28 302 28q72 0 120 -36q74 -55 74 -165q0 -84 -41 -147q-38 -56 -67 -84t-45.5 -44t-43.5 -37t-39.5 -31t-37 -28t-29.5 -21h243l-24 -149h-518l23 143q101 61 237 168q70 54 120 108.5t55 88.5q2 11 2 21z" />
    <glyph glyph-name="three" unicode="3" horiz-adv-x="579" 
d="M338 -7h-59h-19t-33.5 0.5t-38 1t-33.5 2t-35.5 3.5t-30.5 5q-29 5 -60 16l20 122h238q57 0 81 11t30 48l3 22q5 32 -2 40t-9.5 11t-10 5.5t-12 3.5t-15.5 3q-14 1 -36 2l-182 9l22 133l184 8q38 2 58 7q42 10 49 55l3 23q8 46 -31 56q-20 5 -56 5h-251l19 121
q66 22 132 25q77 4 122.5 4t87.5 -1t80.5 -26t53 -62t14.5 -62.5t-3 -44.5l-8 -47q-19 -114 -102 -128q60 -19 60 -115q0 -24 -4 -51l-6 -37q-27 -168 -220 -168z" />
    <glyph glyph-name="four" unicode="4" horiz-adv-x="627" 
d="M48 224l319 508h179l-259 -430h141l25 153l43 77h134l-37 -230h68l-20 -126l-72 -26l-23 -148h-164l22 148h-334z" />
    <glyph glyph-name="five" unicode="5" horiz-adv-x="594" 
d="M298 446q37 24 109 24q23 0 56 -2q78 -5 113 -60q26 -41 26 -98q0 -19 -2 -39l-16 -113q-16 -98 -84 -133q-58 -29 -150.5 -29t-148 4t-147.5 20l21 130h274q46 0 61 23q12 17 15 40l8 49q2 10 2 22.5t-8 27.5t-42 15h-71q-53 0 -62 -53h-156l94 458h453l-24 -149h-293z
" />
    <glyph glyph-name="six" unicode="6" horiz-adv-x="604" 
d="M277 430q65 21 185 21q50 0 84 -17t48 -44q19 -41 19 -76t-5 -58l-16 -108q-15 -91 -72 -122q-50 -27 -138 -27h-140q-116 0 -144 123q-9 40 -9 74t0.5 72.5t14 123t33 143t41 94t49.5 59.5q46 39 98 45t99 6q106 0 230 -25l-20 -125h-236q-71 0 -99 -71q-13 -34 -22 -88
zM258 309q-9 -44 -9 -73.5t6 -47.5q13 -40 65 -40h54q27 0 42.5 11.5t20.5 43.5l8 46q3 16 3 28.5t-6 22t-38 9.5h-146z" />
    <glyph glyph-name="seven" unicode="7" horiz-adv-x="557" 
d="M112 583l24 149h476l30 -70l-342 -662h-177l305 583h-316z" />
    <glyph glyph-name="eight" unicode="8" horiz-adv-x="620" 
d="M558 398q58 -13 58 -112q0 -22 -4 -42l-12 -82q-10 -60 -26 -84t-26.5 -36.5t-26.5 -20t-29 -12t-32 -6.5q-30 -3 -67 -3h-153q-167 0 -167 141q0 22 4 47l10 64q9 57 50 84q21 13 48 17q-32 15 -46.5 42.5t-14.5 52.5t5 66l10 65q18 113 103 142q45 16 115 16h154
q85 0 125 -48q29 -36 29 -95q0 -21 -4 -46l-8 -49q-6 -43 -42 -76q-22 -21 -53 -25zM245 195q-2 -9 -2 -21q0 -32 53 -32h76q31 0 46.5 13t19.5 40l9 57q1 7 1 14q0 41 -47 41h-80q-59 0 -67 -55zM292 494q-1 -9 -1 -22t11 -22.5t40 -9.5h78q35 0 48 13t18 41l5 40
q2 17 2 31t-9 20q-13 10 -40 11h-76q-33 0 -45 -10q-19 -14 -25 -52z" />
    <glyph glyph-name="nine" unicode="9" horiz-adv-x="603" 
d="M445 304q-65 -21 -185 -21q-70 0 -104 31q-46 40 -46 119q0 24 5 51l15 94q13 88 65 122t143 34h140q47 0 79 -20.5t53.5 -69t21.5 -129t-14 -176.5t-33.5 -153.5t-40.5 -90.5t-49 -54.5t-52 -29.5q-50 -17 -152.5 -17t-223.5 26l20 124h236q71 0 99 72q14 33 23 88z
M277 484q-3 -16 -3 -28.5t6 -22t38 -9.5h146q8 44 8 73.5t-6 48.5q-13 40 -66 40h-53q-27 0 -42.5 -11.5t-20.5 -43.5z" />
    <glyph glyph-name="colon" unicode=":" horiz-adv-x="260" 
d="M105 150h98q21 0 21 -18v-7l-17 -102q-4 -23 -28 -23h-98q-10 0 -16 6.5t-5 16.5l17 102q3 25 28 25zM165 531h98q21 0 21 -17v-8l-16 -102q-4 -23 -28 -23h-98q-11 0 -17 6.5t-4 16.5l16 102q4 25 28 25z" />
    <glyph glyph-name="semicolon" unicode=";" horiz-adv-x="260" 
d="M82 0q-11 0 -17 7t-4 18l16 99q4 27 29 27h96q20 0 20 -20v-7l-22 -135q-5 -33 -22.5 -53t-39.5 -25q-23 -5 -43.5 -5t-32.5 3l-14 3l9 54q14 0 22 4.5t9.5 8.5t3.5 11l1 10h-11zM166 532h98q21 0 21 -18v-8l-16 -102q-4 -22 -29 -22h-98q-10 0 -15.5 6t-4.5 16l16 102
q3 26 28 26z" />
    <glyph glyph-name="less" unicode="&#x3c;" horiz-adv-x="441" 
d="M77 278l24 148l397 138l-24 -148l-221 -68l199 -69l-23 -147z" />
    <glyph glyph-name="equal" unicode="=" horiz-adv-x="467" 
d="M47 174l21 134h427l-21 -134h-427zM81 391l21 134h428l-22 -134h-427z" />
    <glyph glyph-name="greater" unicode="&#x3e;" horiz-adv-x="441" 
d="M54 132l24 148l223 80l-202 58l23 146l353 -138l-23 -148z" />
    <glyph glyph-name="question" unicode="?" horiz-adv-x="543" 
d="M232 402h55t57 0.5t37 7.5q40 16 49 68l5 37q1 9 1 17q0 27 -18.5 42.5t-70.5 15.5h-241l20 122q129 28 246 28q20 0 51.5 -0.5t66.5 -12.5t58 -33q49 -46 55 -103q1 -14 1 -28.5t-2 -30.5l-10 -79q-14 -103 -73 -141q-49 -32 -141 -32q-18 0 -38 1l-13 -86h-127z
M206 150h98q22 0 22 -18q0 -3 -1 -7l-17 -102q-3 -23 -28 -23h-98q-10 0 -16 6.5t-4 16.5l16 102q3 25 28 25z" />
    <glyph glyph-name="at" unicode="@" horiz-adv-x="907" 
d="M754 729q176 0 176 -188q0 -31 -6 -65l-48 -316q-11 -78 -55 -117.5t-146 -39.5h-106l-24 53q-44 -60 -122 -60q-95 0 -136 77q-27 49 -27 126q0 40 9 96.5t28 104t41 75t52 43.5q49 28 123 28q149 0 219 -68l-50 -348q37 0 51 15.5t23 74.5l40 271q4 24 4 49.5t-12 39.5
q-18 22 -70 22h-352q-67 0 -92 -38q-20 -29 -27 -73l-73 -459q-2 -15 -2 -35.5t12 -38.5q17 -26 77 -26h386l-16 -99q-135 -27 -292 -27h-91q-108 0 -156 50q-50 51 -50 123q0 33 4 67l75 475q19 117 85.5 162.5t187.5 45.5h360zM401.5 142.5q14.5 -20.5 46.5 -20.5
q86 0 114 68l34 222q-41 8 -90.5 8t-74.5 -33t-34 -94q-10 -75 -10 -102.5t14.5 -48z" />
    <glyph glyph-name="A" unicode="A" horiz-adv-x="698" 
d="M30 0l355 732h190l115 -732h-168l-26 147h-215l-69 -147h-182zM344 289h139l-33 235z" />
    <glyph glyph-name="B" unicode="B" horiz-adv-x="600" 
d="M472 732q55 0 95 -17.5t59 -46.5q31 -47 31 -106q0 -21 -4 -43q-8 -55 -43 -94t-85 -45q48 -8 75 -59q20 -37 20 -87q0 -64 -19.5 -111t-39.5 -69t-52 -34q-53 -20 -150 -20h-305l116 732h302zM456 252q0 64 -54 64h-134l-28 -174h134q67 0 80 85q2 13 2 25zM416 450
q41 0 61 33q14 23 14 56q0 51 -53 51h-126l-22 -140h126z" />
    <glyph glyph-name="C" unicode="C" horiz-adv-x="569" 
d="M277 719q53 21 134 21t133.5 -8t113.5 -30l-21 -128q-137 17 -208 17h-2.5h-11t-17.5 -0.5t-22 -2.5t-21.5 -5.5t-19 -11.5t-18.5 -19t-16.5 -28t-15.5 -39q-16 -55 -26.5 -119t-10.5 -106t9 -66q20 -49 97 -51h49t168 9l-20 -128q-53 -19 -104 -24.5t-95.5 -5.5h-64.5
q-68 1 -113.5 31t-65.5 83q-25 66 -25 141t13 154t34.5 141.5t57.5 108t89 66.5z" />
    <glyph glyph-name="D" unicode="D" horiz-adv-x="651" 
d="M475 732q60 0 102.5 -22t65.5 -58q41 -67 41 -182q0 -56 -11 -130q-38 -249 -154 -310q-58 -30 -147 -30h-318l116 732h305zM368 142q58 0 91 55t51 167q11 82 11 121.5t-11.5 63t-30 32.5t-47.5 9h-121l-71 -448h128z" />
    <glyph glyph-name="E" unicode="E" horiz-adv-x="558" 
d="M214 706q28 15 55.5 20.5t45.5 5.5h20q221 -4 307 -16l-22 -137h-264q-49 0 -58 -39q-1 -6 -3 -17l-12 -80l266 -11l-22 -135l-269 -9l-14 -86q-6 -38 14 -46q15 -6 40 -6h255l-22 -136q-71 -9 -245 -15l-58 -2h-16.5t-31.5 3t-44 14q-66 31 -66 112q0 16 2 34l67 420
q15 95 75 126z" />
    <glyph glyph-name="F" unicode="F" horiz-adv-x="559" 
d="M271 724q30 8 47 8h19q220 -4 307 -16l-22 -137h-264q-37 0 -48 -18q-10 -14 -13 -38l-13 -83l267 -10l-21 -136l-271 -9l-45 -285h-164l89 564q21 131 132 160z" />
    <glyph glyph-name="G" unicode="G" horiz-adv-x="615" 
d="M401 740h36t73 -3q67 -5 172 -34l-20 -125q-3 1 -13.5 2.5t-23.5 3t-31 3.5t-38 4t-41 4q-48 3 -86.5 3t-61 -8t-43.5 -33q-38 -45 -60 -190q-13 -75 -13 -100.5v-29.5q1 -49 21.5 -70t67.5 -21q53 0 99 39q5 4 9 10l18 104h-79l16 103q57 24 179 24q32 0 68 -2l-68 -424
h-117l-37 51q-35 -36 -72 -45q-45 -12 -87.5 -12t-77 14t-57.5 43q-51 68 -51 190q0 74 15 153.5t30.5 130.5t38.5 94.5t55 68.5q65 52 179 52z" />
    <glyph glyph-name="H" unicode="H" horiz-adv-x="636" 
d="M55 0l116 732h164l-48 -304h215l48 304h164l-116 -732h-164l44 280h-215l-44 -280h-164z" />
    <glyph glyph-name="I" unicode="I" horiz-adv-x="267" 
d="M56 0l116 732h164l-116 -732h-164z" />
    <glyph glyph-name="J" unicode="J" horiz-adv-x="355" 
d="M48 153q20 -1 35.5 -1t31.5 1.5t34.5 11.5t27.5 29.5t14 53.5l77 484h164l-90 -567q-17 -112 -77 -147q-40 -23 -109 -23q-90 0 -129 29z" />
    <glyph glyph-name="K" unicode="K" horiz-adv-x="638" 
d="M54 0l116 732h156l-47 -298h44l215 298h198l-270 -380l154 -352h-186l-117 292h-60l-46 -292h-157z" />
    <glyph glyph-name="L" unicode="L" horiz-adv-x="527" 
d="M303 149h231l-24 -149h-299q-69 0 -103 32t-34 82q0 16 2 34l93 584h164l-84 -531q-6 -38 14 -46q14 -6 40 -6z" />
    <glyph glyph-name="M" unicode="M" horiz-adv-x="837" 
d="M41 0l187 732h226l23 -460l167 460h231l-43 -732h-161l28 449l-166 -449h-189l-26 449l-112 -449h-165z" />
    <glyph glyph-name="N" unicode="N" horiz-adv-x="672" 
d="M54 0l116 732h165l182 -433l68 433h164l-116 -732h-163l-184 425l-67 -425h-165z" />
    <glyph glyph-name="O" unicode="O" horiz-adv-x="666" 
d="M383.5 735.5q27.5 1.5 69 1.5t72.5 -4t61.5 -15t52.5 -29q69 -60 69 -204q0 -64 -11.5 -137.5t-27.5 -126t-34 -89t-44 -62t-50.5 -40t-59.5 -22.5q-55 -12 -117.5 -12t-93.5 3.5t-62 14t-52 28.5q-49 41 -63 116q-6 35 -6 62t0.5 58.5t12 102.5t28.5 126.5t35 93
t45.5 63.5t51 40.5t60 22t64 9zM284.5 465q-11.5 -41 -22.5 -111t-11 -94t1.5 -42t8 -32.5t20.5 -24.5q24 -16 79 -16t85 17t51 63.5t33 121.5q14 88 14 125t-4 59.5t-19.5 35t-34.5 17t-52 4.5t-53 -3.5t-39.5 -16t-32 -37.5t-24 -66z" />
    <glyph glyph-name="P" unicode="P" horiz-adv-x="598" 
d="M474 732q63 0 112 -32q51 -32 67 -118q3 -19 3 -44t-7 -70t-23.5 -86.5t-37 -64t-45 -37t-48.5 -17.5q-46 -5 -64 -5t-39 2t-74.5 9.5t-57.5 10.5l-44 -280h-164l116 732h306zM406 402q32 0 51.5 22.5t27.5 74.5q3 16 3 30q0 61 -52 61h-127l-30 -188h127z" />
    <glyph glyph-name="Q" unicode="Q" horiz-adv-x="667" 
d="M384 735.5q27 1.5 69 1.5t73 -4t61.5 -15.5t52.5 -30.5q69 -60 69 -205q0 -119 -33 -240q-24 -91 -48 -126t-41 -52.5t-40.5 -30t-44 -19.5t-49.5 -11q-135 -19 -229 7q-51 13 -88 55q-33 37 -45 117q-4 27 -4 51q0 70 12.5 146.5t29.5 131.5t35 92.5t45.5 63t51 39.5
t60 21t63.5 8.5zM285.5 465q-11.5 -41 -22.5 -111t-11 -94t1.5 -42t8 -32.5t20.5 -24.5q24 -16 79 -16t85 17t51 63.5t33 121.5q14 88 14 125t-4 59.5t-19.5 35t-34.5 17t-52 4.5t-53 -3.5t-39.5 -16t-32 -37.5t-24 -66zM450 -76q34 0 83 12l-20 -125q-85 -12 -134 6
q-30 11 -53 29q-40 33 -40 97q0 11 1 24h90q8 -43 73 -43z" />
    <glyph glyph-name="R" unicode="R" horiz-adv-x="601" 
d="M476 732q95 0 144 -61q35 -45 35 -124q0 -84 -27 -154q-15 -37 -29.5 -56.5t-35.5 -32t-32.5 -15.5t-27.5 -6l103 -283h-186l-81 275l-79 7l-44 -282h-164l116 732h308zM404 407q50 0 68 40q15 34 15 72t-7 51q-11 20 -45 20h-125l-29 -183h123z" />
    <glyph glyph-name="S" unicode="S" horiz-adv-x="582" 
d="M335 141q36 0 58 11.5t27 41.5l4 29q3 18 1 31q-4 27 -52 27h-87q-104 0 -146 64q-27 42 -27 105q0 16 3 36l10 80q18 120 108 153q51 19 181.5 19t222.5 -31l-20 -128q-111 10 -241 10q-43 0 -62.5 -10t-25.5 -49l-4 -25q-2 -11 -2 -25.5t11 -24.5t52 -10h91
q41 0 72 -13.5t47 -34.5q35 -48 35 -100q0 -23 -2 -54l-4 -65q-7 -106 -71 -148q-38 -25 -75 -31q-47 -7 -123 -7t-133.5 6t-114.5 26l20 128q96 -11 247 -11z" />
    <glyph glyph-name="T" unicode="T" horiz-adv-x="592" 
d="M116 583l24 149h553l-24 -149h-198l-92 -583h-164l92 583h-191z" />
    <glyph glyph-name="U" unicode="U" horiz-adv-x="653" 
d="M266 316q-7 -46 -7 -80t8 -54q17 -38 88 -38t100 40t43 132l66 416h165l-62 -439q-26 -169 -102 -234q-65 -55 -167 -62q-27 -2 -60.5 -2t-57 2.5t-49.5 8.5t-46 17.5t-38 28.5q-33 31 -48 104q-6 28 -6 51q0 66 11 131l63 394h165z" />
    <glyph glyph-name="V" unicode="V" horiz-adv-x="691" 
d="M135 732h173l58 -524l232 524h182l-348 -732h-194z" />
    <glyph glyph-name="W" unicode="W" horiz-adv-x="1013" 
d="M135 732h172l60 -516l209 516h174l-81 -184l48 -333l213 517h173l-317 -732h-188l-42 274l-118 -274h-200z" />
    <glyph glyph-name="X" unicode="X" horiz-adv-x="659" 
d="M30 0l269 378l-155 354h180l88 -228l160 228h184l-275 -386l152 -346h-181l-84 220l-154 -220h-184z" />
    <glyph glyph-name="Y" unicode="Y" horiz-adv-x="666" 
d="M135 732h178l68 -338l188 338h186l-318 -517l-35 -215h-164l35 215z" />
    <glyph glyph-name="Z" unicode="Z" horiz-adv-x="555" 
d="M24 0l24 149l378 434h-310l24 149h508l-24 -149l-364 -434h296l-24 -149h-508z" />
    <glyph glyph-name="bracketleft" unicode="[" horiz-adv-x="339" 
d="M380 797h80l-22 -134h-42q-31 0 -49 -17.5t-25 -61.5l-101 -622q-3 -20 -3 -37q0 -46 50 -46h46l-21 -134h-92q-42 0 -73 15q-76 39 -76 154q0 30 5 62l106 650q15 93 63 132t154 39z" />
    <glyph glyph-name="backslash" unicode="\" horiz-adv-x="470" 
d="M134 770h165l148 -842h-165z" />
    <glyph glyph-name="bracketright" unicode="]" horiz-adv-x="334" 
d="M44 -121q30 0 48.5 17.5t26.5 61.5l98 622q3 18 3 36t-9.5 32.5t-42.5 14.5h-42l21 134h83q49 0 83 -18t50 -49q23 -47 23 -104q0 -23 -4 -48l-96 -662q-11 -76 -51 -120q-46 -51 -160 -51h-95l21 134h43z" />
    <glyph glyph-name="asciicircum" unicode="^" horiz-adv-x="381" 
d="M118 531l126 138h116l72 -138h-100l-37 58l-57 -58h-120z" />
    <glyph glyph-name="underscore" unicode="_" horiz-adv-x="673" 
d="M26 -1l22 134h634l-22 -134h-634z" />
    <glyph glyph-name="grave" unicode="`" horiz-adv-x="245" 
d="M119 672h131l66 -141h-98z" />
    <glyph glyph-name="a" unicode="a" horiz-adv-x="544" 
d="M481 527q67 -14 102 -48l-70 -477h-128l-25 52q-19 -27 -62.5 -43.5t-89.5 -16.5q-81 0 -123 80q-24 47 -24 107t11 114t25.5 90.5t30.5 61t37.5 42t40 27.5t44.5 15q43 10 103.5 10t127.5 -14zM408 407q-23 10 -46.5 10t-36 -2.5t-20 -5.5t-17.5 -8.5t-17 -15t-14 -23.5
q-15 -27 -22 -77q-8 -58 -8 -89q0 -67 51 -67q66 0 96 51z" />
    <glyph glyph-name="b" unicode="b" horiz-adv-x="557" 
d="M567 233q-21 -132 -69 -185.5t-136 -53.5t-149 58l-35 -52h-138l124 785h164l-44 -279q73 33 152 33q121 0 139 -125q4 -28 4 -49q0 -57 -12 -132zM324 130q31 0 49 29.5t28.5 97.5t10.5 93.5t-3 36.5q-8 29 -41 29q-62 0 -100 -18l-38 -240q27 -28 94 -28z" />
    <glyph glyph-name="c" unicode="c" horiz-adv-x="490" 
d="M234 535q25 5 67.5 5t114 -8t122.5 -26l-16 -99q-79 7 -135 7t-68 -2t-26.5 -9t-22.5 -24q-19 -38 -29 -96q-11 -65 -11 -89t3 -38t14 -22q18 -13 60 -13q83 0 155 7l24 2l-16 -100q-56 -22 -107.5 -28.5t-95 -6.5h-58.5q-80 1 -119 74q-24 45 -24 104.5t9.5 119.5
t26 106t36 73t45.5 42.5t51 20.5z" />
    <glyph glyph-name="d" unicode="d" horiz-adv-x="549" 
d="M199.5 522.5q38.5 16.5 105 16.5t129.5 -33l44 279h164l-125 -785h-137l-20 52q-78 -58 -152 -58q-90 0 -124 84q-19 51 -19 106.5t10 112t24 98t38 76.5t62.5 51.5zM262 364q-13 -33 -21 -87.5t-8 -80.5t4 -38q8 -28 39 -28q65 0 102 28l38 240q-31 18 -95 18
q-20 0 -33 -9.5t-26 -42.5z" />
    <glyph glyph-name="e" unicode="e" horiz-adv-x="528" 
d="M438 204.5q-33 -12.5 -59.5 -15t-70.5 -2.5t-77 14q-3 -15 -3 -34.5t14 -32.5q15 -14 67 -14q109 0 207 18l-20 -116q-101 -32 -218 -32q-34 0 -68 3q-147 9 -147 196q0 53 11 112t23 94t31.5 64.5t47.5 46.5q62 35 175 35q87 0 146 -29q64 -32 64 -114q0 -56 -18.5 -97
t-45 -62.5t-59.5 -34zM244 307q21 -4 47 -4t44.5 4t35.5 18q23 18 23 52q0 18 -12 28t-44 10q-60 0 -78 -47q-9 -21 -16 -61z" />
    <glyph glyph-name="f" unicode="f" horiz-adv-x="405" 
d="M251 747.5q47 38.5 131.5 38.5t130.5 -24l-15 -96l-83 1q-37 1 -47 -15l-7.5 -12t-5.5 -19q-4 -19 -9 -52l-6 -38h114l-18 -119h-115l-67 -412h-164l66 412h-78l16 102l82 17l13 83q15 95 62 133.5z" />
    <glyph glyph-name="g" unicode="g" horiz-adv-x="558" 
d="M243 -139q40 0 66.5 24t33.5 71l13 84q-50 -38 -123.5 -38t-114.5 37.5t-48 104.5q-2 23 -2 60.5t9.5 102t31 111.5t52.5 74q59 50 154 50q109 0 183 -12.5t99 -20.5l-91 -575q-33 -208 -221 -208q-19 0 -41 2l-231 24l17 109h213zM266 375q-7 -12 -18.5 -55t-14 -85.5
t-2.5 -51.5t2 -18t8 -20q11 -19 51.5 -19t80.5 20l44 276h-81q-34 0 -53 -23q-10 -12 -17 -24z" />
    <glyph glyph-name="h" unicode="h" horiz-adv-x="552" 
d="M413 373q0 41 -39 41q-35 0 -60.5 -10t-49.5 -32l-60 -372h-164l124 782h164l-49 -306q68 49 116 59q25 5 63 5t68 -15t41 -41q14 -33 14 -69.5t-6 -66.5l-55 -348h-164l55 350q2 13 2 23z" />
    <glyph glyph-name="i" unicode="i" horiz-adv-x="237" 
d="M37 0l84 531h164l-84 -531h-164zM173 733h125q19 0 19 -18q0 -3 -1 -7l-15 -101q-3 -23 -27 -23h-124q-11 0 -16.5 6.5t-3.5 16.5l15 101q3 25 28 25z" />
    <glyph glyph-name="j" unicode="j" horiz-adv-x="253" 
d="M2 -270l128 801h164l-86 -535q-12 -83 -30 -147t-52 -119h-124zM306 733q20 0 20 -20q0 -2 -1 -5l-16 -101q-3 -23 -27 -23h-124q-11 0 -17 6.5t-4 16.5l16 101q4 25 28 25h125z" />
    <glyph glyph-name="k" unicode="k" horiz-adv-x="545" 
d="M40 0l124 782h164l-69 -436q59 23 107.5 72t69.5 113h172q-46 -168 -180 -243l148 -288h-180l-116 235l-38 -1l-38 -234h-164z" />
    <glyph glyph-name="l" unicode="l" horiz-adv-x="314" 
d="M203 0q-76 0 -113 45q-26 32 -26 91q0 24 4 53l94 594h164l-89 -564q-9 -55 -2 -70t12.5 -20t34.5 -17.5t34 -12.5l-15 -99h-98z" />
    <glyph glyph-name="m" unicode="m" horiz-adv-x="867" 
d="M447 539q97 0 122 -67q32 20 56 32.5t62.5 23.5t80 11t71 -14.5t41.5 -40.5q15 -33 15 -70t-5 -68l-56 -346h-164l56 350q2 11 2 20q0 43 -39 43q-70 0 -111 -37q-1 -2 -3 -14t-2 -16l-55 -346h-164l55 350q2 11 2 20q0 43 -39 43q-46 0 -69 -13.5t-40 -28.5l-59 -371
h-164l84 531h135l21 -55q3 2 16.5 11.5t25.5 17t33 17.5q37 17 92 17z" />
    <glyph glyph-name="n" unicode="n" horiz-adv-x="552" 
d="M413 373q0 41 -39 41q-35 0 -60.5 -10t-49.5 -32l-60 -372h-164l84 531h135l21 -55q71 51 116 59q24 5 62 5t68 -15t41 -41q14 -33 14 -69.5t-6 -66.5l-55 -348h-164l55 350q2 13 2 23z" />
    <glyph glyph-name="o" unicode="o" horiz-adv-x="555" 
d="M362 538q134 0 180 -71q30 -47 30 -129q0 -44 -9 -101.5t-23.5 -98.5t-35.5 -69.5t-53 -44.5q-60 -29 -172 -29q-134 0 -182 68q-31 46 -31 127q0 39 9 95.5t24.5 101.5t37.5 75t55 47q60 29 170 29zM271 385q-18 -27 -30 -102t-12 -91.5t1 -27.5t5 -20t14 -14
q14 -8 45 -8t45 3t26.5 17.5t19.5 40.5t16 77.5t9 70.5q0 57 -15.5 69t-60.5 12t-63 -27z" />
    <glyph glyph-name="p" unicode="p" horiz-adv-x="556" 
d="M409 536q99 0 139 -78q26 -51 26 -128q0 -40 -8 -88q-20 -135 -74.5 -193.5t-164.5 -58.5q-80 0 -117 39l-48 -299h-164l125 776q46 14 127.5 22t158.5 8zM410 348q0 69 -55 69h-82l-47 -283q26 -20 66 -20h17q40 2 59.5 34t30.5 100t11 100z" />
    <glyph glyph-name="q" unicode="q" horiz-adv-x="553" 
d="M229.5 528q37.5 12 101 12t145 -9.5t118.5 -23.5l-122 -777h-164l47 299q-51 -39 -124.5 -39t-114 37t-47.5 104q-2 23 -2 61t10 103.5t31 114.5t52.5 77.5t69 40.5zM247 313q-3 -16 -10.5 -56.5t-7.5 -67t2 -38.5q8 -37 54.5 -37t86.5 20l44 287h-82q-65 0 -87 -108z
" />
    <glyph glyph-name="r" unicode="r" horiz-adv-x="414" 
d="M425 536q38 0 53 -6l-25 -157q-30 1 -76 1t-74.5 -11t-48.5 -48l-50 -315h-164l84 531h142l12 -67q68 72 147 72z" />
    <glyph glyph-name="s" unicode="s" horiz-adv-x="509" 
d="M310 126q28 0 33 26l3 17q3 19 -5 23t-20 4h-108q-98 0 -126 75q-9 24 -9 46.5t2 40.5l8 47q11 65 49 98.5t115.5 33.5t122 -1t95.5 -8.5t66 -21.5l-16 -100h-232q-19 0 -27 -6.5t-11 -21.5l-2 -17q-3 -14 -0.5 -17t3.5 -4.5t3.5 -2.5t3.5 -1.5t4.5 -0.5h4.5h5h4h113
q74 0 105 -46q22 -33 22 -77q0 -16 -2 -32l-10 -60q-12 -79 -60 -105q-40 -21 -89.5 -21h-78t-71.5 2t-69 5q-66 8 -83 25l15 100h242z" />
    <glyph glyph-name="t" unicode="t" horiz-adv-x="375" 
d="M285 220q-5 -25 -5 -38.5t2.5 -27.5t8.5 -21.5t37 -21t36 -13.5l-15 -99h-107q-69 0 -105 47q-25 32 -25 90q0 25 5 54l35 223h-81l13 86l87 33l49 148h138l-23 -148h105l-18 -119h-106z" />
    <glyph glyph-name="u" unicode="u" horiz-adv-x="551" 
d="M226 180q-2 -13 -2 -26.5t7.5 -24.5t37.5 -11q58 0 105 42l58 371h164l-84 -531h-135l-20 54q-42 -33 -77.5 -48t-87 -15t-81 15t-41.5 41q-14 32 -14 68.5t6 68.5l56 347h164z" />
    <glyph glyph-name="v" unicode="v" horiz-adv-x="542" 
d="M591 496q0 -65 -39 -142l-181 -354h-199l-92 531h174l40 -351l106 229q28 59 34 123h154q3 -17 3 -36z" />
    <glyph glyph-name="w" unicode="w" horiz-adv-x="839" 
d="M586 532q3 -18 3 -50.5t-20 -83.5l-11 -28l34 -188l107 227q29 59 34 123h153q4 -18 4 -37q0 -66 -40 -141l-185 -354h-185l-31 176l-81 -176h-196l-92 531h173l40 -350l105 227q29 59 34 124h154z" />
    <glyph glyph-name="x" unicode="x" horiz-adv-x="590" 
d="M16 0l223 277l-139 254h196l59 -143l105 143h198l-224 -284l134 -247h-190l-60 136l-102 -136h-200z" />
    <glyph glyph-name="y" unicode="y" horiz-adv-x="568" 
d="M614 491q0 -63 -33 -139l-153 -352q-66 -151 -159 -221q-54 -40 -92 -53q-46 -14 -87 -21v115q64 32 103.5 75.5t70.5 104.5q-137 0 -150 144l-34 387h170l22 -356q3 -36 45 -39l113 273q19 48 26 123h154q4 -20 4 -41z" />
    <glyph glyph-name="z" unicode="z" horiz-adv-x="480" 
d="M35 1l21 133l260 263h-232l20 134h441l-20 -134l-248 -262h205l-21 -134h-426z" />
    <glyph glyph-name="braceleft" unicode="{" horiz-adv-x="320" 
d="M419 663q-37 0 -54 -22.5t-27 -89.5l-25 -161q-15 -91 -116 -100q45 -9 65 -31.5t20 -51.5q0 -7 -2 -16l-34 -211q-5 -29 -5 -50t5 -33q10 -26 46 -26q1 0 2 1l-20 -127q-119 0 -165 55q-35 41 -35 105q0 21 4 45l36 226q1 5 1 17.5t-13.5 25.5t-38.5 13q-3 0 -7 -1
l19 120q32 2 51.5 12t23.5 38l38 233q14 88 74 125.5t178 37.5l-20 -134h-1z" />
    <glyph glyph-name="bar" unicode="|" horiz-adv-x="248" 
d="M46 -72l132 842h134l-132 -842h-134z" />
    <glyph glyph-name="braceright" unicode="}" horiz-adv-x="320" 
d="M1 -129q37 0 54 23.5t25 78.5l34 208q12 79 114 99q-85 7 -85 78q0 10 2 22l25 164q6 39 6 62t-4 34q-9 23 -44 23h-2l21 134q58 0 99 -17.5t61 -46.5q32 -47 32 -106q0 -22 -5 -45l-24 -190v-8q0 -21 15.5 -33.5t44.5 -13.5l-20 -119h-7q-59 0 -67 -51l-43 -254
q-16 -95 -72 -131.5t-181 -36.5l20 127z" />
    <glyph glyph-name="asciitilde" unicode="~" horiz-adv-x="411" 
d="M260 664q22 0 51 -17.5t49 -17.5h4q45 0 96 40l14 -66q-65 -72 -124 -72q-23 0 -56.5 17.5t-52.5 17.5t-36 -5q-24 -7 -63 -30l-16 61q71 72 134 72z" />
    <glyph glyph-name="exclamdown" unicode="&#xa1;" horiz-adv-x="278" 
d="M14 -270l103 534h129l-68 -534h-164zM119 332v6l16 100q3 21 28 23h97q10 -1 16 -8.5t4 -17.5l-15 -97q-4 -25 -25 -26h-102q-19 0 -19 20z" />
    <glyph glyph-name="cent" unicode="&#xa2;" horiz-adv-x="484" 
d="M177 513q27 15 51 19.5t41 4.5t20 -1l16 98h96l-16 -100q85 -9 146 -32l-16 -98q-79 6 -133.5 6t-64 -0.5t-23.5 -5t-20.5 -13t-15.5 -25.5q-14 -26 -23 -80q-12 -71 -12 -89.5t2 -31t6.5 -21.5t15.5 -15q17 -8 56 -8q80 0 152 7l24 2l-16 -100q-66 -34 -167 -36l-14 -89
h-96l15 90q-80 1 -118 74q-24 45 -24 104.5t10 119.5t26.5 106t35.5 72.5t46 41.5z" />
    <glyph glyph-name="sterling" unicode="&#xa3;" horiz-adv-x="578" 
d="M626 720l32 -4l-21 -132h-185q-59 0 -81 -16.5t-31 -75.5l-12 -78l200 -16l-14 -90h-203l-25 -159h282l-24 -149h-510l20 126l68 23l25 159h-65l14 82l68 24l13 84q18 113 58 161q32 37 58 47.5t43 15t44 6.5q39 4 94.5 4t151.5 -12z" />
    <glyph glyph-name="currency" unicode="&#xa4;" horiz-adv-x="443" 
d="M432 333q0 -66 -45 -118l40 -45l-59 -56l-46 52q-33 -17 -77 -17t-79 26l-54 -48l-46 54l56 49q-12 30 -12 59q0 53 32 98l-42 47l60 54l40 -46q45 28 93.5 28t83.5 -26l54 47l48 -51l-58 -51q11 -26 11 -56zM334 280.5q7 13.5 9.5 24.5t2.5 25.5t-16 34t-47.5 19.5
t-58.5 -24.5t-27 -70.5q0 -14 16 -33.5t39.5 -19.5t38 5.5t25.5 15.5t18 23.5z" />
    <glyph glyph-name="yen" unicode="&#xa5;" horiz-adv-x="646" 
d="M124 134l14 89h128l4 31h-127l15 90h79l-109 388h178l66 -326l181 326h195l-251 -388h88l-15 -90h-136l-4 -31h135l-14 -89h-135l-20 -134h-164l20 134h-128z" />
    <glyph glyph-name="brokenbar" unicode="&#xa6;" horiz-adv-x="249" 
d="M46 -72l52 328h134l-52 -328h-134zM124 429l54 341h134l-54 -341h-134z" />
    <glyph glyph-name="section" unicode="&#xa7;" horiz-adv-x="536" 
d="M320 126q20 0 29 5.5t12 21.5l4 27q3 20 -11 25q-7 3 -20 3h-103q-74 0 -109 31t-35 79q0 13 2 28l4 24q8 51 26 72q22 25 60 36q-51 28 -51 94q0 15 3 33l5 40q18 139 169 139q200 0 279 -19l-18 -115h-229q-34 0 -39 -30l-3 -22q-1 -4 -1 -7q0 -24 31 -24h102
q80 0 113 -30.5t33 -76.5q0 -12 -2 -26l-4 -24q-13 -87 -83 -108q25 -5 37 -27.5t12 -40.5t-2 -51l-7 -51q-15 -88 -62 -116q-41 -24 -102 -24q-218 0 -285 19l18 115h227zM402 418q0 22 -39 22h-52q-27 0 -35.5 -9t-11.5 -32l-5 -28q-1 -7 -1 -16q0 -21 36 -21h52
q33 0 41 13q6 8 8 25l5 29q2 10 2 17z" />
    <glyph glyph-name="dieresis" unicode="&#xa8;" horiz-adv-x="444" 
d="M197.5 643q25.5 0 39 -16t13.5 -28t-2 -23t-12.5 -25t-26 -22.5t-31.5 -8.5q-36 0 -49 31q-4 10 -4 18q0 34 23.5 54t49 20zM452.5 643q25.5 0 39 -16t13.5 -28q0 -38 -23.5 -58.5t-44.5 -20.5q-40 0 -53 31q-4 10 -4 18q0 34 23.5 54t49 20z" />
    <glyph glyph-name="copyright" unicode="&#xa9;" horiz-adv-x="794" 
d="M414 732h216q58 0 99 -22t62 -58q38 -64 38 -174q0 -57 -12 -132q-55 -346 -297 -346h-215q-133 0 -189 119q-31 65 -31 164q0 100 32 210q33 113 98 172q75 67 199 67zM187 277q0 -183 128 -183h209q164 0 200 336q4 39 4 69t-5.5 51.5t-16.5 43.5q-23 44 -88 44h-217
q-120 0 -172 -135q-21 -55 -31.5 -119.5t-10.5 -106.5zM374 317q0 -76 62 -76q71 0 159 16l-13 -82q-64 -28 -189 -28q-66 0 -101 56q-22 35 -22 83.5t8.5 100t25 92.5t40.5 63q42 41 111 41q112 0 181 -24l-12 -82q-83 12 -128.5 12t-60 -6t-25.5 -21q-21 -27 -32 -100
q-4 -25 -4 -45z" />
    <glyph glyph-name="ordfeminine" unicode="&#xaa;" horiz-adv-x="362" 
d="M61 260l11 74h327l-11 -74h-327zM229 731q16 2 31 2.5t29.5 0.5t43.5 -3.5t61.5 -13.5t48.5 -25l-47 -319h-84l-18 45q-12 -23 -44.5 -36.5t-64.5 -13.5q-52 0 -83 56q-18 34 -18 74t8.5 81t24 71t32 45.5t40.5 24.5t40 11zM323 639q-15 7 -35 7t-31 -3t-20.5 -8.5
t-19.5 -24t-14.5 -45.5t-4.5 -46q0 -48 34 -48q51 0 72 36z" />
    <glyph glyph-name="guillemotleft" unicode="&#xab;" horiz-adv-x="586" 
d="M90 354l238 203l72 -85l-148 -127l111 -129l-95 -70zM314 354l238 203l73 -85l-149 -127l111 -129l-95 -70z" />
    <glyph glyph-name="logicalnot" unicode="&#xac;" horiz-adv-x="481" 
d="M64 234l20 126h427q-4 -24 -10 -62t-12.5 -76.5t-9.5 -62.5h-127l12 75h-300z" />
    <glyph glyph-name="uni00AD" unicode="&#xad;" horiz-adv-x="353" 
d="M55 223l21 134h314l-21 -134h-314z" />
    <glyph glyph-name="registered" unicode="&#xae;" horiz-adv-x="794" 
d="M414 732h216q58 0 99 -22t62 -58q38 -64 38 -174q0 -57 -12 -132q-55 -346 -297 -346h-215q-133 0 -189 119q-31 65 -31 164q0 100 32 210q33 113 98 172q75 67 199 67zM187 277q0 -183 128 -183h209q164 0 200 336q4 39 4 69t-5.5 51.5t-16.5 43.5q-23 44 -88 44h-217
q-120 0 -172 -135q-21 -55 -31.5 -119.5t-10.5 -106.5zM517 580q52 0 86 -27q29 -23 29 -77q0 -59 -18.5 -94.5t-35 -48t-41.5 -19.5l60 -161h-109l-56 155l-39 12l-27 -167h-101l68 427h184zM464 394q38 0 48.5 8.5t13.5 29t3 31.5t-9 17t-42 6h-59l-15 -92h60z" />
    <glyph glyph-name="macron" unicode="&#xaf;" horiz-adv-x="359" 
d="M118 531l13 85h292l-13 -85h-292z" />
    <glyph glyph-name="degree" unicode="&#xb0;" horiz-adv-x="267" 
d="M188 719q24 13 59 13t61.5 -27.5t26.5 -64.5q0 -48 -32.5 -77t-75 -29t-69.5 26.5t-27 64.5q0 32 16.5 56.5t40.5 37.5zM236.5 673q-16.5 0 -30 -12.5t-13.5 -29.5t10.5 -28t23.5 -11t20.5 3t12.5 9q13 12 13 29t-10 28.5t-26.5 11.5z" />
    <glyph glyph-name="plusminus" unicode="&#xb1;" horiz-adv-x="491" 
d="M48 64l21 134h416l-21 -134h-416zM99 380l21 134h140l22 140h134l-22 -140h142l-21 -134h-142l-23 -142h-134l23 142h-140z" />
    <glyph glyph-name="twosuperior" unicode="&#xb2;" horiz-adv-x="403" 
d="M343 683q1 7 1 19q0 30 -70 30h-154l11 71l5 23q105 20 202 20q74 0 108 -48q27 -38 27 -84q0 -94 -99 -184q-32 -29 -74 -61h135l-18 -114h-353l18 109q67 40 131 87q123 89 130 132z" />
    <glyph glyph-name="threesuperior" unicode="&#xb3;" horiz-adv-x="408" 
d="M275 350h-39q-40 0 -49.5 1t-24 1.5t-21.5 1.5t-19 2.5t-20 3.5q-23 6 -36 11l16 93h154q38 0 53.5 6.5t18.5 27.5q4 23 -3 31q-11 12 -53 14l-117 4l16 101l119 5q36 2 51 8q16 7 19 34q5 26 -24 31q-13 2 -34 2h-163l14 92q62 22 188 22q18 0 36 -1q58 0 85 -33t27 -73
q0 -12 -2 -25l-5 -28q-12 -76 -73 -87q45 -14 45 -80q0 -14 -2 -29l-4 -22q-18 -114 -152 -114h-1z" />
    <glyph glyph-name="acute" unicode="&#xb4;" horiz-adv-x="243" 
d="M97 531l107 141h133l-141 -141h-99z" />
    <glyph glyph-name="uni00B5" unicode="&#xb5;" horiz-adv-x="585" 
d="M251 158q0 -40 39 -40q36 0 61 9.5t50 32.5l59 371h164l-84 -531h-135l-21 54q-7 -3 -26.5 -14.5t-28.5 -16.5q-46 -24 -88 -24q-8 0 -17 1l-42 -270h-164l127 801h164l-56 -351q-2 -12 -2 -22z" />
    <glyph glyph-name="paragraph" unicode="&#xb6;" horiz-adv-x="575" 
d="M298 732h380l-18 -114h-47l-98 -618h-111l98 620h-56l-141 -890h-111l101 642l-9 -5q-22 -12 -55.5 -12t-63 14.5t-43 38t-18 44.5t-4.5 35.5t3 28.5l14 92q11 70 57 97t122 27zM219 514q-2 -7 -2 -12.5t2.5 -12.5t4 -12t9.5 -7q12 -4 29 -4h48l24 155h-46q-33 0 -44 -11
t-17 -44z" />
    <glyph glyph-name="periodcentered" unicode="&#xb7;" horiz-adv-x="259" 
d="M154 462h98q21 0 21 -18v-8l-17 -102q-4 -22 -28 -22h-98q-10 0 -16 6t-5 16l17 102q3 26 28 26z" />
    <glyph glyph-name="cedilla" unicode="&#xb8;" horiz-adv-x="241" 
d="M64 -180h-58l11 68l43 15q21 9 27 19.5t11 40.5h105q-13 -78 -43 -110.5t-96 -32.5z" />
    <glyph glyph-name="onesuperior" unicode="&#xb9;" horiz-adv-x="280" 
d="M108 696l12 86q17 0 55.5 19t55.5 39h123l-77 -485h-125l58 360q-23 -19 -102 -19z" />
    <glyph glyph-name="ordmasculine" unicode="&#xba;" horiz-adv-x="385" 
d="M75 261l11 73h328l-11 -73h-328zM406 714q51 -30 51 -115q0 -28 -5 -63q-15 -96 -57 -129.5t-136 -33.5t-128 46q-23 32 -23 88q0 24 6.5 66t21 75.5t39 52.5t56.5 26q31 7 85.5 7t89.5 -20zM229 549q-3 -27 -4 -37t-1 -17t6 -14q10 -12 37.5 -12t37.5 4q19 9 30 76
q6 37 6 53t-2 21q-6 15 -43 15t-47.5 -14t-19.5 -75z" />
    <glyph glyph-name="guillemotright" unicode="&#xbb;" horiz-adv-x="584" 
d="M70 233l150 132l-103 117l90 75l175 -204l-236 -207zM295 233l151 132l-104 117l90 75l175 -204l-235 -207z" />
    <glyph glyph-name="onequarter" unicode="&#xbc;" horiz-adv-x="991" 
d="M108 596l12 86q17 0 55.5 19t55.5 39h123l-77 -485h-125l58 360q-23 -19 -102 -19zM199 0l513 770h121l-513 -770h-121zM577 144l212 339h133l-168 -277h91l15 96l31 50h97l-23 -146h45l-16 -97l-49 -19l-12 -89h-120l13 88h-227z" />
    <glyph glyph-name="onehalf" unicode="&#xbd;" horiz-adv-x="1026" 
d="M108 596l12 86q17 0 55.5 19t55.5 39h123l-77 -485h-125l58 360q-23 -19 -102 -19zM196 0l512 770h122l-514 -770h-120zM926 327q1 7 1 20q0 29 -69 29h-154q-1 0 11 71l3 23q106 20 203 20q74 0 108 -48q27 -38 27 -84q0 -94 -99 -184q-32 -29 -75 -61h136l-18 -114
h-352l17 109q67 40 131 87q123 89 130 132z" />
    <glyph glyph-name="threequarters" unicode="&#xbe;" horiz-adv-x="1102" 
d="M389 495q45 -14 45 -80q0 -14 -2 -29l-4 -22q-18 -114 -152 -114h-3.5h-21h-23.5t-21.5 0.5t-23 1t-21 1t-21.5 1.5t-19 2.5t-20 3.5q-23 6 -36 11l16 93h154q38 0 53.5 6.5t18.5 27.5q2 12 2 21q0 22 -58 24l-117 4l16 101l119 5q53 2 63 17q5 7 7 22.5t-5 23.5
q-11 12 -53 12h-163l14 92q62 22 188 22q18 0 36 -1q58 0 85 -33t27 -73q0 -12 -2 -25l-5 -28q-12 -76 -73 -87zM300 0l513 770h121l-513 -770h-121zM668 144l212 339h133l-169 -277h91l15 96l31 50h98l-23 -146h44l-15 -97l-50 -19l-11 -89h-121l14 88h-228z" />
    <glyph glyph-name="questiondown" unicode="&#xbf;" horiz-adv-x="541" 
d="M385 69q-17 1 -55 1t-50 -1q-39 -1 -62.5 -18.5t-29.5 -57.5l-6 -37q-2 -9 -2 -20.5t7 -25.5q14 -29 83 -29h241l-19 -121q-130 -29 -247 -29q-20 0 -40 1q-53 0 -94 20q-74 36 -94 121q-5 22 -5 41t3 35l10 63q16 104 74 145q50 34 142 34q17 0 35 -1l14 86h128z
M337 471h99q10 0 15.5 -6t4.5 -17l-16 -102q-3 -25 -28 -25h-98q-22 0 -22 18q0 3 1 7l16 102q3 23 28 23z" />
    <glyph glyph-name="Agrave" unicode="&#xc0;" horiz-adv-x="698" 
d="M342 938h131l67 -141h-99zM30 0l355 732h190l115 -732h-168l-26 147h-215l-69 -147h-182zM344 289h139l-33 235z" />
    <glyph glyph-name="Aacute" unicode="&#xc1;" horiz-adv-x="698" 
d="M441 797l107 141h132l-140 -141h-99zM30 0l355 732h190l115 -732h-168l-26 147h-215l-69 -147h-182zM344 289h139l-33 235z" />
    <glyph glyph-name="Acircumflex" unicode="&#xc2;" horiz-adv-x="698" 
d="M333 797l126 137h116l73 -137h-100l-37 59l-66 -59h-112zM30 0l355 732h190l115 -732h-168l-26 147h-215l-69 -147h-182zM344 289h139l-33 235z" />
    <glyph glyph-name="Atilde" unicode="&#xc3;" horiz-adv-x="698" 
d="M561 894h10.5t27.5 6q36 11 62 33l14 -66q-68 -70 -124 -70q-24 0 -57 17.5t-56 17.5q-39 0 -95 -35l-15 61q70 71 133 71q24 0 53 -17.5t47 -17.5zM30 0l355 732h190l115 -732h-168l-26 147h-215l-69 -147h-182zM344 289h139l-33 235z" />
    <glyph glyph-name="Adieresis" unicode="&#xc4;" horiz-adv-x="698" 
d="M383.5 920q25.5 0 39 -15.5t13.5 -27.5q0 -39 -23.5 -59.5t-49 -20.5t-39 16.5t-13.5 28.5q0 38 23.5 58t49 20zM638.5 920q25.5 0 39 -15.5t13.5 -27.5q0 -39 -23.5 -59.5t-49 -20.5t-39 16.5t-13.5 28.5q0 38 23.5 58t49 20zM30 0l355 732h190l115 -732h-168l-26 147
h-215l-69 -147h-182zM344 289h139l-33 235z" />
    <glyph glyph-name="Aring" unicode="&#xc5;" horiz-adv-x="698" 
d="M498.5 931q-42.5 0 -76 -31t-33.5 -79q0 -36 26.5 -63.5t68.5 -27.5t75 31t33 79q0 36 -25.5 63.5t-68 27.5zM460.5 803q-10.5 11 -8.5 30.5t22 31.5q10 5 23.5 5t23.5 -11.5t8 -31t-22 -30.5q-9 -5 -22.5 -5t-24 11zM30 0l355 732h190l115 -732h-168l-26 147h-215
l-69 -147h-182zM344 289h139l-33 235z" />
    <glyph glyph-name="AE" unicode="&#xc6;" horiz-adv-x="1050" 
d="M594 721q40 9 64 10.5t43 1.5t41 -1q222 -4 307 -16l-21 -137h-265q-37 0 -48 -18q-9 -14 -13 -37l-13 -85l267 -11l-21 -135l-271 -9l-13 -83q-6 -38 14 -46q15 -6 40 -6h255l-22 -135q-74 -10 -277 -17l-23 -1h-21.5t-39.5 4q-71 13 -95 58q-10 19 -10 36.5t2 28.5
l10 60h-161l-120 -183h-183l367 565q84 128 207 156zM413 324h93l32 198z" />
    <glyph glyph-name="Ccedilla" unicode="&#xc7;" horiz-adv-x="569" 
d="M277 719q53 21 134 21t133.5 -8t113.5 -30l-21 -128q-137 17 -208 17h-2.5h-10t-16 -0.5t-20.5 -1.5t-19.5 -4t-17.5 -8.5t-17.5 -14t-15 -20.5t-14.5 -28.5t-13 -37.5q-12 -38 -23.5 -106t-11.5 -110t9 -66q20 -49 97 -51h49t168 9l-20 -128q-53 -19 -104 -24.5
t-95.5 -5.5h-64.5q-68 1 -113.5 31t-65.5 83q-25 66 -25 141t13 154t34.5 141.5t57.5 108t89 66.5zM230 -180h-59l11 69l43 15q22 8 28.5 18.5t10.5 41.5h105q-12 -78 -43 -111t-96 -33z" />
    <glyph glyph-name="Egrave" unicode="&#xc8;" horiz-adv-x="558" 
d="M273 932h131l66 -140h-98zM214 706q28 15 55.5 20.5t45.5 5.5h20q221 -4 307 -16l-22 -137h-264q-49 0 -58 -39q-1 -6 -3 -17l-12 -80l266 -11l-22 -135l-269 -9l-14 -86q-6 -38 14 -46q15 -6 40 -6h255l-22 -136q-71 -9 -245 -15l-58 -2h-16.5t-31.5 3t-44 14
q-66 31 -66 112q0 16 2 34l67 420q15 95 75 126z" />
    <glyph glyph-name="Eacute" unicode="&#xc9;" horiz-adv-x="558" 
d="M376 792l106 140h133l-141 -140h-98zM214 706q28 15 55.5 20.5t45.5 5.5h20q221 -4 307 -16l-22 -137h-264q-49 0 -58 -39q-1 -6 -3 -17l-12 -80l266 -11l-22 -135l-269 -9l-14 -86q-6 -38 14 -46q15 -6 40 -6h255l-22 -136q-71 -9 -245 -15l-58 -2h-16.5t-31.5 3t-44 14
q-66 31 -66 112q0 16 2 34l67 420q15 95 75 126z" />
    <glyph glyph-name="Ecircumflex" unicode="&#xca;" horiz-adv-x="558" 
d="M272 792l126 138h116l72 -138h-100l-37 58l-57 -58h-120zM214 706q28 15 55.5 20.5t45.5 5.5h20q221 -4 307 -16l-22 -137h-264q-49 0 -58 -39q-1 -6 -3 -17l-12 -80l266 -11l-22 -135l-269 -9l-14 -86q-6 -38 14 -46q15 -6 40 -6h255l-22 -136q-71 -9 -245 -15l-58 -2
h-16.5t-31.5 3t-44 14q-66 31 -66 112q0 16 2 34l67 420q15 95 75 126z" />
    <glyph glyph-name="Edieresis" unicode="&#xcb;" horiz-adv-x="558" 
d="M308.5 904q25.5 0 39 -16t13.5 -28q0 -38 -23.5 -58.5t-44.5 -20.5q-40 0 -53 31q-4 10 -4 18q0 34 23.5 54t49 20zM563.5 904q25.5 0 39 -16t13.5 -28q0 -38 -23.5 -58.5t-44.5 -20.5q-40 0 -53 31q-4 10 -4 18q0 34 23.5 54t49 20zM214 706q28 15 55.5 20.5t45.5 5.5
h20q221 -4 307 -16l-22 -137h-264q-49 0 -58 -39q-1 -6 -3 -17l-12 -80l266 -11l-22 -135l-269 -9l-14 -86q-6 -38 14 -46q15 -6 40 -6h255l-22 -136q-71 -9 -245 -15l-58 -2h-16.5t-31.5 3t-44 14q-66 31 -66 112q0 16 2 34l67 420q15 95 75 126z" />
    <glyph glyph-name="Igrave" unicode="&#xcc;" horiz-adv-x="267" 
d="M117 938h130l67 -141h-99zM56 0l116 732h164l-116 -732h-164z" />
    <glyph glyph-name="Iacute" unicode="&#xcd;" horiz-adv-x="267" 
d="M215 797l107 141h133l-141 -141h-99zM56 0l116 732h164l-116 -732h-164z" />
    <glyph glyph-name="Icircumflex" unicode="&#xce;" horiz-adv-x="267" 
d="M107 797l126 137h116l73 -137h-100l-37 59l-66 -59h-112zM56 0l116 732h164l-116 -732h-164z" />
    <glyph glyph-name="Idieresis" unicode="&#xcf;" horiz-adv-x="267" 
d="M157.5 920q25.5 0 39 -15.5t13.5 -27.5q0 -39 -23.5 -59.5t-49 -20.5t-39 16.5t-13.5 28.5q0 38 23.5 58t49 20zM412.5 920q25.5 0 39 -15.5t13.5 -27.5q0 -39 -23.5 -59.5t-49 -20.5t-39 16.5t-13.5 28.5q0 38 23.5 58t49 20zM56 0l116 732h164l-116 -732h-164z" />
    <glyph glyph-name="Eth" unicode="&#xd0;" horiz-adv-x="647" 
d="M480 732q59 0 101.5 -23.5t64.5 -60.5q39 -67 39 -178q0 -57 -12 -130q-30 -184 -97.5 -262t-196.5 -78h-325l53 338h-65l11 70h65l52 324h310zM372 142q54 0 87 55.5t47 145.5q15 95 15 138.5t-9.5 67t-26 32.5t-43.5 9h-131l-29 -182h102l-12 -70h-101l-31 -196h132z
" />
    <glyph glyph-name="Ntilde" unicode="&#xd1;" horiz-adv-x="672" 
d="M538 893h15t40 11.5t45 27.5l14 -66q-68 -70 -124 -70q-24 0 -57 17.5t-46 17.5t-21.5 -1t-15 -2.5t-14 -4t-13.5 -5t-13 -6.5q-12 -6 -28 -16l-15 60q70 72 133 72q24 -1 53 -18t47 -17zM54 0l116 732h165l182 -433l68 433h164l-116 -732h-163l-184 425l-67 -425h-165z
" />
    <glyph glyph-name="Ograve" unicode="&#xd2;" horiz-adv-x="666" 
d="M316 938h130l67 -141h-99zM383.5 735.5q27.5 1.5 69 1.5t72.5 -4t61.5 -15t52.5 -29q69 -60 69 -204q0 -64 -11.5 -137.5t-27.5 -126t-34 -89t-44 -62t-50.5 -40t-59.5 -22.5q-55 -12 -117.5 -12t-93.5 3.5t-62 14t-52 28.5q-49 41 -63 116q-6 35 -6 62t0.5 58.5
t12 102.5t28.5 126.5t35 93t45.5 63.5t51 40.5t60 22t64 9zM284.5 465q-11.5 -41 -22.5 -111t-11 -94t1.5 -42t8 -32.5t20.5 -24.5q24 -16 79 -16t85 17t51 63.5t33 121.5q14 88 14 125t-4 59.5t-19.5 35t-34.5 17t-52 4.5t-53 -3.5t-39.5 -16t-32 -37.5t-24 -66z" />
    <glyph glyph-name="Oacute" unicode="&#xd3;" horiz-adv-x="666" 
d="M414 797l107 141h133l-141 -141h-99zM383.5 735.5q27.5 1.5 69 1.5t72.5 -4t61.5 -15t52.5 -29q69 -60 69 -204q0 -64 -11.5 -137.5t-27.5 -126t-34 -89t-44 -62t-50.5 -40t-59.5 -22.5q-55 -12 -117.5 -12t-93.5 3.5t-62 14t-52 28.5q-49 41 -63 116q-6 35 -6 62
t0.5 58.5t12 102.5t28.5 126.5t35 93t45.5 63.5t51 40.5t60 22t64 9zM284.5 465q-11.5 -41 -22.5 -111t-11 -94t1.5 -42t8 -32.5t20.5 -24.5q24 -16 79 -16t85 17t51 63.5t33 121.5q14 88 14 125t-4 59.5t-19.5 35t-34.5 17t-52 4.5t-53 -3.5t-39.5 -16t-32 -37.5t-24 -66z
" />
    <glyph glyph-name="Ocircumflex" unicode="&#xd4;" horiz-adv-x="666" 
d="M307 797l126 137h116l72 -137h-99l-38 59l-66 -59h-111zM383.5 735.5q27.5 1.5 69 1.5t72.5 -4t61.5 -15t52.5 -29q69 -60 69 -204q0 -64 -11.5 -137.5t-27.5 -126t-34 -89t-44 -62t-50.5 -40t-59.5 -22.5q-55 -12 -117.5 -12t-93.5 3.5t-62 14t-52 28.5q-49 41 -63 116
q-6 35 -6 62t0.5 58.5t12 102.5t28.5 126.5t35 93t45.5 63.5t51 40.5t60 22t64 9zM284.5 465q-11.5 -41 -22.5 -111t-11 -94t1.5 -42t8 -32.5t20.5 -24.5q24 -16 79 -16t85 17t51 63.5t33 121.5q14 88 14 125t-4 59.5t-19.5 35t-34.5 17t-52 4.5t-53 -3.5t-39.5 -16
t-32 -37.5t-24 -66z" />
    <glyph glyph-name="Otilde" unicode="&#xd5;" horiz-adv-x="666" 
d="M533 894h15.5t39.5 11.5t45 27.5l15 -66q-69 -70 -124 -70q-25 0 -57.5 17.5t-55.5 17.5q-39 0 -95 -35l-16 61q70 71 133 71q24 0 53.5 -17.5t46.5 -17.5zM383.5 735.5q27.5 1.5 69 1.5t72.5 -4t61.5 -15t52.5 -29q69 -60 69 -204q0 -64 -11.5 -137.5t-27.5 -126
t-34 -89t-44 -62t-50.5 -40t-59.5 -22.5q-55 -12 -117.5 -12t-93.5 3.5t-62 14t-52 28.5q-49 41 -63 116q-6 35 -6 62t0.5 58.5t12 102.5t28.5 126.5t35 93t45.5 63.5t51 40.5t60 22t64 9zM284.5 465q-11.5 -41 -22.5 -111t-11 -94t1.5 -42t8 -32.5t20.5 -24.5
q24 -16 79 -16t85 17t51 63.5t33 121.5q14 88 14 125t-4 59.5t-19.5 35t-34.5 17t-52 4.5t-53 -3.5t-39.5 -16t-32 -37.5t-24 -66z" />
    <glyph glyph-name="Odieresis" unicode="&#xd6;" horiz-adv-x="666" 
d="M356.5 920q25.5 0 39 -15.5t13.5 -27.5q0 -39 -23.5 -59.5t-49 -20.5t-39 16.5t-13.5 28.5q0 38 23.5 58t49 20zM611.5 920q25.5 0 39 -15.5t13.5 -27.5q0 -39 -23.5 -59.5t-49 -20.5t-39 16.5t-13.5 28.5q0 38 23.5 58t49 20zM383.5 735.5q27.5 1.5 69 1.5t72.5 -4
t61.5 -15t52.5 -29q69 -60 69 -204q0 -64 -11.5 -137.5t-27.5 -126t-34 -89t-44 -62t-50.5 -40t-59.5 -22.5q-55 -12 -117.5 -12t-93.5 3.5t-62 14t-52 28.5q-49 41 -63 116q-6 35 -6 62t0.5 58.5t12 102.5t28.5 126.5t35 93t45.5 63.5t51 40.5t60 22t64 9zM284.5 465
q-11.5 -41 -22.5 -111t-11 -94t1.5 -42t8 -32.5t20.5 -24.5q24 -16 79 -16t85 17t51 63.5t33 121.5q14 88 14 125t-4 59.5t-19.5 35t-34.5 17t-52 4.5t-53 -3.5t-39.5 -16t-32 -37.5t-24 -66z" />
    <glyph glyph-name="multiply" unicode="&#xd7;" horiz-adv-x="462" 
d="M78 256l114 100l-82 99l103 91l83 -99l123 104l79 -95l-124 -106l84 -100l-102 -84l-81 95l-115 -103z" />
    <glyph glyph-name="Oslash" unicode="&#xd8;" horiz-adv-x="666" 
d="M110 89q-25 51 -25 132t11 150t23 115t25.5 80.5t32 61t35.5 44.5t41.5 30.5t44 19t48.5 10.5q44 5 107 5q126 0 179 -38l28 33h80l-66 -77q32 -54 32 -166q0 -125 -32 -247q-24 -91 -55 -136q-37 -53 -75 -73q-45 -25 -84 -30q-55 -7 -121.5 -7t-113 9t-78.5 35l-34 -40
h-80zM283 465q-11 -41 -20.5 -100t-9.5 -80.5t1 -28.5l264 312q-22 20 -86 20q-34 0 -53.5 -3.5t-39.5 -16t-32.5 -37.5t-23.5 -66zM362 145q39 0 64.5 8.5t45.5 32.5q37 43 58 175q10 69 10 98t-1 41l-273 -323q21 -32 96 -32z" />
    <glyph glyph-name="Ugrave" unicode="&#xd9;" horiz-adv-x="653" 
d="M310 938h131l67 -141h-99zM266 316q-7 -46 -7 -80t8 -54q17 -38 88 -38t100 40t43 132l66 416h165l-62 -439q-26 -169 -102 -234q-65 -55 -167 -62q-27 -2 -60.5 -2t-57 2.5t-49.5 8.5t-46 17.5t-38 28.5q-33 31 -48 104q-6 28 -6 51q0 66 11 131l63 394h165z" />
    <glyph glyph-name="Uacute" unicode="&#xda;" horiz-adv-x="653" 
d="M409 797l107 141h132l-140 -141h-99zM266 316q-7 -46 -7 -80t8 -54q17 -38 88 -38t100 40t43 132l66 416h165l-62 -439q-26 -169 -102 -234q-65 -55 -167 -62q-27 -2 -60.5 -2t-57 2.5t-49.5 8.5t-46 17.5t-38 28.5q-33 31 -48 104q-6 28 -6 51q0 66 11 131l63 394h165z
" />
    <glyph glyph-name="Ucircumflex" unicode="&#xdb;" horiz-adv-x="653" 
d="M301 797l126 137h116l73 -137h-100l-37 59l-66 -59h-112zM266 316q-7 -46 -7 -80t8 -54q17 -38 88 -38t100 40t43 132l66 416h165l-62 -439q-26 -169 -102 -234q-65 -55 -167 -62q-27 -2 -60.5 -2t-57 2.5t-49.5 8.5t-46 17.5t-38 28.5q-33 31 -48 104q-6 28 -6 51
q0 66 11 131l63 394h165z" />
    <glyph glyph-name="Udieresis" unicode="&#xdc;" horiz-adv-x="653" 
d="M351.5 920q25.5 0 39 -15.5t13.5 -27.5q0 -39 -23.5 -59.5t-49 -20.5t-39 16.5t-13.5 28.5q0 38 23.5 58t49 20zM606.5 920q25.5 0 39 -15.5t13.5 -27.5q0 -39 -23.5 -59.5t-49 -20.5t-39 16.5t-13.5 28.5q0 38 23.5 58t49 20zM266 316q-7 -46 -7 -80t8 -54
q17 -38 88 -38t100 40t43 132l66 416h165l-62 -439q-26 -169 -102 -234q-65 -55 -167 -62q-27 -2 -60.5 -2t-57 2.5t-49.5 8.5t-46 17.5t-38 28.5q-33 31 -48 104q-6 28 -6 51q0 66 11 131l63 394h165z" />
    <glyph glyph-name="Yacute" unicode="&#xdd;" horiz-adv-x="666" 
d="M406 797l107 141h132l-140 -141h-99zM135 732h178l68 -338l188 338h186l-318 -517l-35 -215h-164l35 215z" />
    <glyph glyph-name="Thorn" unicode="&#xde;" horiz-adv-x="542" 
d="M40 0l116 729h164l-22 -141h129q64 0 108 -44q39 -37 39 -120q0 -61 -14 -109t-26 -69.5t-24 -38t-28.5 -26.5t-29.5 -16t-32 -9q-39 -6 -92 -6t-96 20l-28 -170h-164zM320 292q23 0 35 2t23 11q17 14 26 68q2 10 2 16.5t-1 14t-1.5 15.5t-6.5 13t-10 8t-12 4
q-13 2 -31 2h-69l-24 -154h69z" />
    <glyph glyph-name="germandbls" unicode="&#xdf;" horiz-adv-x="573" 
d="M292 765q52 17 111 17t99.5 -10t66.5 -28q67 -46 67 -129q0 -67 -42 -135q-29 -46 -65 -72q-15 -11 -25 -17q-29 -20 -29 -47q0 -22 41 -49q19 -12 37 -26q36 -29 36 -78q0 -10 -2 -21l-4 -25q-24 -153 -197 -153q-67 0 -136 19l18 113q63 -6 89 -6q57 0 65 53l3 14v11.5
t-10.5 20.5t-28 22t-35.5 23q-34 24 -34 69q0 9 1 19q7 47 28 73.5t70 60.5q52 40 52 100q0 26 -15 39t-61.5 13t-71 -30t-37.5 -108l-79 -498h-164l90 566q15 92 78 151q32 31 84 48z" />
    <glyph glyph-name="agrave" unicode="&#xe0;" horiz-adv-x="544" 
d="M204 742h130l67 -141h-99zM481 527q67 -14 102 -48l-70 -477h-128l-25 52q-19 -27 -62.5 -43.5t-89.5 -16.5q-81 0 -123 80q-24 47 -24 107t11 114t25.5 90.5t30.5 61t37.5 42t40 27.5t44.5 15q43 10 103.5 10t127.5 -14zM408 407q-23 10 -46.5 10t-36 -2.5t-20 -5.5
t-17.5 -8.5t-17 -15t-14 -23.5q-15 -27 -22 -77q-8 -58 -8 -89q0 -67 51 -67q66 0 96 51z" />
    <glyph glyph-name="aacute" unicode="&#xe1;" horiz-adv-x="544" 
d="M303 601l107 141h132l-140 -141h-99zM481 527q67 -14 102 -48l-70 -477h-128l-25 52q-19 -27 -62.5 -43.5t-89.5 -16.5q-81 0 -123 80q-24 47 -24 107t11 114t25.5 90.5t30.5 61t37.5 42t40 27.5t44.5 15q43 10 103.5 10t127.5 -14zM408 407q-23 10 -46.5 10t-36 -2.5
t-20 -5.5t-17.5 -8.5t-17 -15t-14 -23.5q-15 -27 -22 -77q-8 -58 -8 -89q0 -67 51 -67q66 0 96 51z" />
    <glyph glyph-name="acircumflex" unicode="&#xe2;" horiz-adv-x="544" 
d="M193 601l126 138h116l73 -138h-100l-37 59l-66 -59h-112zM481 527q67 -14 102 -48l-70 -477h-128l-25 52q-19 -27 -62.5 -43.5t-89.5 -16.5q-81 0 -123 80q-24 47 -24 107t11 114t25.5 90.5t30.5 61t37.5 42t40 27.5t44.5 15q43 10 103.5 10t127.5 -14zM408 407
q-23 10 -46.5 10t-36 -2.5t-20 -5.5t-17.5 -8.5t-17 -15t-14 -23.5q-15 -27 -22 -77q-8 -58 -8 -89q0 -67 51 -67q66 0 96 51z" />
    <glyph glyph-name="atilde" unicode="&#xe3;" horiz-adv-x="544" 
d="M426 699h14.5t40 11.5t45.5 26.5l14 -66q-68 -69 -124 -69q-24 0 -57 17t-56 17q-39 0 -95 -35l-16 61q70 71 134 71q23 0 52.5 -17t47.5 -17zM481 527q67 -14 102 -48l-70 -477h-128l-25 52q-19 -27 -62.5 -43.5t-89.5 -16.5q-81 0 -123 80q-24 47 -24 107t11 114
t25.5 90.5t30.5 61t37.5 42t40 27.5t44.5 15q43 10 103.5 10t127.5 -14zM408 407q-23 10 -46.5 10t-36 -2.5t-20 -5.5t-17.5 -8.5t-17 -15t-14 -23.5q-15 -27 -22 -77q-8 -58 -8 -89q0 -67 51 -67q66 0 96 51z" />
    <glyph glyph-name="adieresis" unicode="&#xe4;" horiz-adv-x="544" 
d="M246.5 725q25.5 0 39 -16t13.5 -28q0 -38 -23.5 -59t-44.5 -21q-40 0 -53 32q-4 10 -4 18q0 34 23.5 54t49 20zM501.5 725q25.5 0 39 -16t13.5 -28q0 -38 -23.5 -59t-44.5 -21q-40 0 -53 32q-4 10 -4 18q0 34 23.5 54t49 20zM481 527q67 -14 102 -48l-70 -477h-128
l-25 52q-19 -27 -62.5 -43.5t-89.5 -16.5q-81 0 -123 80q-24 47 -24 107t11 114t25.5 90.5t30.5 61t37.5 42t40 27.5t44.5 15q43 10 103.5 10t127.5 -14zM408 407q-23 10 -46.5 10t-36 -2.5t-20 -5.5t-17.5 -8.5t-17 -15t-14 -23.5q-15 -27 -22 -77q-8 -58 -8 -89
q0 -67 51 -67q66 0 96 51z" />
    <glyph glyph-name="aring" unicode="&#xe5;" horiz-adv-x="544" 
d="M376.5 803q42.5 0 68 -27.5t25.5 -63.5q0 -49 -33 -80t-75 -31t-68.5 27.5t-26.5 63.5q0 49 33.5 80t76 31zM338.5 675q10.5 -11 24 -11t23.5 5q19 10 21 29.5t-8 31t-23.5 11.5t-23.5 -5q-20 -11 -22 -30.5t8.5 -30.5zM481 527q67 -14 102 -48l-70 -477h-128l-25 52
q-19 -27 -62.5 -43.5t-89.5 -16.5q-81 0 -123 80q-24 47 -24 107t11 114t25.5 90.5t30.5 61t37.5 42t40 27.5t44.5 15q43 10 103.5 10t127.5 -14zM408 407q-23 10 -46.5 10t-36 -2.5t-20 -5.5t-17.5 -8.5t-17 -15t-14 -23.5q-15 -27 -22 -77q-8 -58 -8 -89q0 -67 51 -67
q66 0 96 51z" />
    <glyph glyph-name="ae" unicode="&#xe6;" horiz-adv-x="830" 
d="M726 204.5q-33 -12.5 -59.5 -15t-70 -2.5t-77.5 14q-2 -15 -2 -34.5t14 -33t69 -13.5h18q80 0 179 18l-20 -116q-101 -31 -215 -31q-32 0 -64 2q-83 6 -119 69q-30 -37 -83.5 -53t-104.5 -16q-81 0 -123 83q-24 49 -24 109t11 114.5t25 91t28.5 60.5t35.5 41t38 26t43 15
q42 8 120 8t142 -26q56 26 141 26q89 0 152 -29q69 -33 69 -115q0 -55 -18.5 -96t-45 -62.5t-59.5 -34zM229.5 334q-7.5 -24 -14 -66t-6.5 -62t3 -39q5 -39 49 -39q30 0 55 9t36 24q-1 14 -1 48t12 97t28 101q-29 10 -49.5 10t-34 -3t-23 -6.5t-20.5 -12.5t-19 -23
t-15.5 -38zM532 307q21 -4 47 -4t44.5 4t36.5 18q23 18 23 52q0 18 -12.5 28t-44.5 10q-60 0 -79 -47q-8 -21 -15 -61z" />
    <glyph glyph-name="ccedilla" unicode="&#xe7;" horiz-adv-x="491" 
d="M287 -6l-75 1h-2q-81 0 -120 73q-24 46 -24 105.5t10 119.5t26.5 105.5t35.5 72t45.5 41.5t51 19.5t57.5 4.5q157 0 246 -34l-16 -98q-78 6 -133 6t-64.5 -0.5t-23.5 -5t-20.5 -13t-15.5 -25.5q-14 -26 -23 -80q-12 -71 -12 -89.5t2 -31t7 -21.5t15 -15q18 -8 56 -8
q80 0 152 7l24 2l-16 -100q-49 -26 -92 -31q-58 -5 -91 -5zM180 -181h-58l10 68l44 15q22 9 28 19.5t11 40.5h104q-12 -78 -42.5 -110.5t-96.5 -32.5z" />
    <glyph glyph-name="egrave" unicode="&#xe8;" horiz-adv-x="528" 
d="M211 742h130l67 -141h-99zM438 204.5q-33 -12.5 -59.5 -15t-70.5 -2.5t-77 14q-3 -15 -3 -34.5t14 -32.5q15 -14 67 -14q109 0 207 18l-20 -116q-101 -32 -218 -32q-34 0 -68 3q-147 9 -147 196q0 53 11 112t23 94t31.5 64.5t47.5 46.5q62 35 175 35q87 0 146 -29
q64 -32 64 -114q0 -56 -18.5 -97t-45 -62.5t-59.5 -34zM244 307q21 -4 47 -4t44.5 4t35.5 18q23 18 23 52q0 18 -12 28t-44 10q-60 0 -78 -47q-9 -21 -16 -61z" />
    <glyph glyph-name="eacute" unicode="&#xe9;" horiz-adv-x="528" 
d="M309 601l107 141h133l-141 -141h-99zM438 204.5q-33 -12.5 -59.5 -15t-70.5 -2.5t-77 14q-3 -15 -3 -34.5t14 -32.5q15 -14 67 -14q109 0 207 18l-20 -116q-101 -32 -218 -32q-34 0 -68 3q-147 9 -147 196q0 53 11 112t23 94t31.5 64.5t47.5 46.5q62 35 175 35
q87 0 146 -29q64 -32 64 -114q0 -56 -18.5 -97t-45 -62.5t-59.5 -34zM244 307q21 -4 47 -4t44.5 4t35.5 18q23 18 23 52q0 18 -12 28t-44 10q-60 0 -78 -47q-9 -21 -16 -61z" />
    <glyph glyph-name="ecircumflex" unicode="&#xea;" horiz-adv-x="528" 
d="M202 601l126 137h116l72 -137h-99l-38 59l-66 -59h-111zM438 204.5q-33 -12.5 -59.5 -15t-70.5 -2.5t-77 14q-3 -15 -3 -34.5t14 -32.5q15 -14 67 -14q109 0 207 18l-20 -116q-101 -32 -218 -32q-34 0 -68 3q-147 9 -147 196q0 53 11 112t23 94t31.5 64.5t47.5 46.5
q62 35 175 35q87 0 146 -29q64 -32 64 -114q0 -56 -18.5 -97t-45 -62.5t-59.5 -34zM244 307q21 -4 47 -4t44.5 4t35.5 18q23 18 23 52q0 18 -12 28t-44 10q-60 0 -78 -47q-9 -21 -16 -61z" />
    <glyph glyph-name="edieresis" unicode="&#xeb;" horiz-adv-x="528" 
d="M251.5 724q25.5 0 39 -15.5t13.5 -27.5q0 -39 -23.5 -59.5t-44.5 -20.5q-40 0 -53 31q-4 10 -4 18q0 34 23.5 54t49 20zM506.5 724q25.5 0 39 -15.5t13.5 -27.5q0 -39 -23.5 -59.5t-44.5 -20.5q-40 0 -53 31q-4 10 -4 18q0 34 23.5 54t49 20zM438 204.5
q-33 -12.5 -59.5 -15t-70.5 -2.5t-77 14q-3 -15 -3 -34.5t14 -32.5q15 -14 67 -14q109 0 207 18l-20 -116q-101 -32 -218 -32q-34 0 -68 3q-147 9 -147 196q0 53 11 112t23 94t31.5 64.5t47.5 46.5q62 35 175 35q87 0 146 -29q64 -32 64 -114q0 -56 -18.5 -97t-45 -62.5
t-59.5 -34zM244 307q21 -4 47 -4t44.5 4t35.5 18q23 18 23 52q0 18 -12 28t-44 10q-60 0 -78 -47q-9 -21 -16 -61z" />
    <glyph glyph-name="igrave" unicode="&#xec;" horiz-adv-x="237" 
d="M57 739h130l67 -141h-99zM30 0l84 531h164l-84 -531h-164z" />
    <glyph glyph-name="iacute" unicode="&#xed;" horiz-adv-x="237" 
d="M155 598l107 141h132l-140 -141h-99zM30 0l84 531h164l-84 -531h-164z" />
    <glyph glyph-name="icircumflex" unicode="&#xee;" horiz-adv-x="237" 
d="M47 598l126 138h116l73 -138h-100l-37 59l-66 -59h-112zM30 0l84 531h164l-84 -531h-164z" />
    <glyph glyph-name="idieresis" unicode="&#xef;" horiz-adv-x="237" 
d="M96.5 722q25.5 0 39 -16t13.5 -28q0 -39 -23.5 -59.5t-49 -20.5t-39 16.5t-13.5 28.5q0 39 23.5 59t49 20zM351.5 722q25.5 0 39 -16t13.5 -28q0 -39 -23.5 -59.5t-49 -20.5t-39 16.5t-13.5 28.5q0 39 23.5 59t49 20zM30 0l84 531h164l-84 -531h-164z" />
    <glyph glyph-name="eth" unicode="&#xf0;" horiz-adv-x="540" 
d="M214 0q-155 0 -155 189q0 41 8 91q21 131 76 191t155 60h41q59 0 77 -7q-8 51 -38 84l-111 -52l-21 56l63 30q-34 9 -71.5 9t-51.5 -1l22 133q177 0 264 -61l88 42l22 -57l-64 -29q56 -72 56 -228q0 -91 -20.5 -218.5t-78 -179.5t-151.5 -52h-110zM249 338
q-10 -26 -17 -71.5t-7 -66.5t3 -29q7 -21 40 -21h2h47h9t19 3.5t19 15.5q20 26 34 138q2 18 2 32.5t-2.5 22t-8.5 12.5q-9 8 -36 8h-45q-23 0 -36 -9t-23 -35z" />
    <glyph glyph-name="ntilde" unicode="&#xf1;" horiz-adv-x="552" 
d="M443 697h15t40 11.5t45 27.5l14 -66q-68 -70 -124 -70q-24 0 -57 17.5t-56 17.5q-39 0 -94 -35l-16 60q70 72 133 72q24 0 53 -17.5t47 -17.5zM413 373q0 41 -39 41q-35 0 -60.5 -10t-49.5 -32l-60 -372h-164l84 531h135l21 -55q71 51 116 59q24 5 62 5t68 -15t41 -41
q14 -33 14 -69.5t-6 -66.5l-55 -348h-164l55 350q2 13 2 23z" />
    <glyph glyph-name="ograve" unicode="&#xf2;" horiz-adv-x="555" 
d="M215 739h131l67 -141h-99zM362 538q134 0 180 -71q30 -47 30 -129q0 -44 -9 -101.5t-23.5 -98.5t-35.5 -69.5t-53 -44.5q-60 -29 -172 -29q-134 0 -182 68q-31 46 -31 127q0 39 9 95.5t24.5 101.5t37.5 75t55 47q60 29 170 29zM271 385q-18 -27 -30 -102t-12 -91.5
t1 -27.5t5 -20t14 -14q14 -8 45 -8t45 3t26.5 17.5t19.5 40.5t16 77.5t9 70.5q0 57 -15.5 69t-60.5 12t-63 -27z" />
    <glyph glyph-name="oacute" unicode="&#xf3;" horiz-adv-x="555" 
d="M318 598l107 141h133l-141 -141h-99zM362 538q134 0 180 -71q30 -47 30 -129q0 -44 -9 -101.5t-23.5 -98.5t-35.5 -69.5t-53 -44.5q-60 -29 -172 -29q-134 0 -182 68q-31 46 -31 127q0 39 9 95.5t24.5 101.5t37.5 75t55 47q60 29 170 29zM271 385q-18 -27 -30 -102
t-12 -91.5t1 -27.5t5 -20t14 -14q14 -8 45 -8t45 3t26.5 17.5t19.5 40.5t16 77.5t9 70.5q0 57 -15.5 69t-60.5 12t-63 -27z" />
    <glyph glyph-name="ocircumflex" unicode="&#xf4;" horiz-adv-x="555" 
d="M203 598l126 138h116l73 -138h-100l-37 59l-66 -59h-112zM362 538q134 0 180 -71q30 -47 30 -129q0 -44 -9 -101.5t-23.5 -98.5t-35.5 -69.5t-53 -44.5q-60 -29 -172 -29q-134 0 -182 68q-31 46 -31 127q0 39 9 95.5t24.5 101.5t37.5 75t55 47q60 29 170 29zM271 385
q-18 -27 -30 -102t-12 -91.5t1 -27.5t5 -20t14 -14q14 -8 45 -8t45 3t26.5 17.5t19.5 40.5t16 77.5t9 70.5q0 57 -15.5 69t-60.5 12t-63 -27z" />
    <glyph glyph-name="otilde" unicode="&#xf5;" horiz-adv-x="555" 
d="M434 696q2 -1 14.5 -1t40 11.5t45.5 27.5l14 -66q-69 -70 -124 -70q-24 0 -57 17.5t-56 17.5q-39 0 -95 -35l-16 61q70 71 134 71q23 0 52.5 -17t47.5 -17zM362 538q134 0 180 -71q30 -47 30 -129q0 -44 -9 -101.5t-23.5 -98.5t-35.5 -69.5t-53 -44.5q-60 -29 -172 -29
q-134 0 -182 68q-31 46 -31 127q0 39 9 95.5t24.5 101.5t37.5 75t55 47q60 29 170 29zM271 385q-18 -27 -30 -102t-12 -91.5t1 -27.5t5 -20t14 -14q14 -8 45 -8t45 3t26.5 17.5t19.5 40.5t16 77.5t9 70.5q0 57 -15.5 69t-60.5 12t-63 -27z" />
    <glyph glyph-name="odieresis" unicode="&#xf6;" horiz-adv-x="555" 
d="M258.5 722q25.5 0 39 -16t13.5 -28q0 -39 -23.5 -59.5t-49 -20.5t-39 16.5t-13.5 28.5q0 39 23.5 59t49 20zM513.5 722q25.5 0 39 -16t13.5 -28q0 -39 -23.5 -59.5t-49 -20.5t-39 16.5t-13.5 28.5q0 39 23.5 59t49 20zM362 538q134 0 180 -71q30 -47 30 -129
q0 -44 -9 -101.5t-23.5 -98.5t-35.5 -69.5t-53 -44.5q-60 -29 -172 -29q-134 0 -182 68q-31 46 -31 127q0 39 9 95.5t24.5 101.5t37.5 75t55 47q60 29 170 29zM271 385q-18 -27 -30 -102t-12 -91.5t1 -27.5t5 -20t14 -14q14 -8 45 -8t45 3t26.5 17.5t19.5 40.5t16 77.5
t9 70.5q0 57 -15.5 69t-60.5 12t-63 -27z" />
    <glyph glyph-name="divide" unicode="&#xf7;" horiz-adv-x="490" 
d="M78 286l21 134h425l-22 -134h-424zM239 244h83q21 0 21 -18q0 -3 -1 -6l-12 -72q-4 -23 -28 -23h-82q-10 0 -16 6.5t-5 16.5l12 72q4 24 28 24zM292 576h82q21 0 21 -18q0 -3 -1 -6l-11 -72q-3 -23 -28 -23h-83q-10 0 -15.5 6.5t-4.5 16.5l12 72q3 24 28 24z" />
    <glyph glyph-name="oslash" unicode="&#xf8;" horiz-adv-x="556" 
d="M87 70q-21 39 -21 94.5t10.5 124t31 119t56.5 79.5t81.5 39t131.5 10t135 -31l26 26h80l-66 -69q23 -40 23 -100.5t-11 -128.5t-30 -114.5t-53.5 -74.5t-81 -38.5t-134.5 -10.5t-139 33l-28 -28h-79zM287 398.5q-16 -11.5 -23 -30.5q-13 -34 -20.5 -79.5t-7.5 -54.5
t2 -13l162 170q-11 19 -54 19t-59 -11.5zM259.5 126q13.5 -4 40 -4t40.5 3t26.5 17.5t19 40t13 63t6.5 50t-1 18.5l-165 -172q7 -12 20.5 -16z" />
    <glyph glyph-name="ugrave" unicode="&#xf9;" horiz-adv-x="551" 
d="M219 739h131l67 -141h-99zM226 180q-2 -13 -2 -26.5t7.5 -24.5t37.5 -11q58 0 105 42l58 371h164l-84 -531h-135l-20 54q-42 -33 -77.5 -48t-87 -15t-81 15t-41.5 41q-14 32 -14 68.5t6 68.5l56 347h164z" />
    <glyph glyph-name="uacute" unicode="&#xfa;" horiz-adv-x="551" 
d="M318 598l107 141h132l-140 -141h-99zM226 180q-2 -13 -2 -26.5t7.5 -24.5t37.5 -11q58 0 105 42l58 371h164l-84 -531h-135l-20 54q-42 -33 -77.5 -48t-87 -15t-81 15t-41.5 41q-14 32 -14 68.5t6 68.5l56 347h164z" />
    <glyph glyph-name="ucircumflex" unicode="&#xfb;" horiz-adv-x="551" 
d="M211 598l126 138h116l72 -138h-99l-38 59l-66 -59h-111zM226 180q-2 -13 -2 -26.5t7.5 -24.5t37.5 -11q58 0 105 42l58 371h164l-84 -531h-135l-20 54q-42 -33 -77.5 -48t-87 -15t-81 15t-41.5 41q-14 32 -14 68.5t6 68.5l56 347h164z" />
    <glyph glyph-name="udieresis" unicode="&#xfc;" horiz-adv-x="551" 
d="M259.5 722q25.5 0 39.5 -16t14 -28q0 -39 -23.5 -59.5t-49 -20.5t-39.5 16.5t-14 28.5q0 39 23.5 59t49 20zM514.5 722q25.5 0 39.5 -16t14 -28q0 -39 -23.5 -59.5t-49 -20.5t-39.5 16.5t-14 28.5q0 39 23.5 59t49 20zM226 180q-2 -13 -2 -26.5t7.5 -24.5t37.5 -11
q58 0 105 42l58 371h164l-84 -531h-135l-20 54q-42 -33 -77.5 -48t-87 -15t-81 15t-41.5 41q-14 32 -14 68.5t6 68.5l56 347h164z" />
    <glyph glyph-name="yacute" unicode="&#xfd;" horiz-adv-x="568" 
d="M314 595l107 140h133l-141 -140h-99zM614 491q0 -63 -33 -139l-153 -352q-66 -151 -159 -221q-54 -40 -92 -53q-46 -14 -87 -21v115q64 32 103.5 75.5t70.5 104.5q-137 0 -150 144l-34 387h170l22 -356q3 -36 45 -39l113 273q19 48 26 123h154q4 -20 4 -41z" />
    <glyph glyph-name="thorn" unicode="&#xfe;" horiz-adv-x="556" 
d="M286 474q80 58 161.5 58t113.5 -77q20 -47 20 -102.5t-7.5 -102.5t-15 -78t-19 -62t-27.5 -52t-37 -38q-43 -34 -123 -34t-137 36l-47 -292h-164l168 1052h164zM384.5 161.5q13.5 33.5 21 87t7.5 80.5t-4 40q-8 28 -36 28q-63 0 -104 -30l-37 -241q29 -16 92 -17
q20 0 33.5 9.5t27 43z" />
    <glyph glyph-name="ydieresis" unicode="&#xff;" horiz-adv-x="568" 
d="M258.5 703q25.5 0 39 -16t13.5 -28q0 -38 -23.5 -58.5t-44.5 -20.5q-40 0 -53 31q-4 10 -4 18q0 34 23.5 54t49 20zM513.5 703q25.5 0 39 -16t13.5 -28q0 -38 -23.5 -58.5t-44.5 -20.5q-40 0 -53 31q-4 10 -4 18q0 34 23.5 54t49 20zM614 491q0 -63 -33 -139l-153 -352
q-66 -151 -159 -221q-54 -40 -92 -53q-46 -14 -87 -21v115q64 32 103.5 75.5t70.5 104.5q-137 0 -150 144l-34 387h170l22 -356q3 -36 45 -39l113 273q19 48 26 123h154q4 -20 4 -41z" />
    <glyph glyph-name="Amacron" unicode="&#x100;" horiz-adv-x="698" 
d="M345 797l13 85h292l-13 -85h-292zM30 0l355 732h190l115 -732h-168l-26 147h-215l-69 -147h-182zM344 289h139l-33 235z" />
    <glyph glyph-name="amacron" unicode="&#x101;" horiz-adv-x="544" 
d="M205 601l13 86h292l-13 -86h-292zM481 527q67 -14 102 -48l-70 -477h-128l-25 52q-19 -27 -62.5 -43.5t-89.5 -16.5q-81 0 -123 80q-24 47 -24 107t11 114t25.5 90.5t30.5 61t37.5 42t40 27.5t44.5 15q43 10 103.5 10t127.5 -14zM408 407q-23 10 -46.5 10t-36 -2.5
t-20 -5.5t-17.5 -8.5t-17 -15t-14 -23.5q-15 -27 -22 -77q-8 -58 -8 -89q0 -67 51 -67q66 0 96 51z" />
    <glyph glyph-name="Abreve" unicode="&#x102;" horiz-adv-x="698" 
d="M456 910q-1 -5 -1 -16.5t11 -24t35 -12.5h1q54 0 60 53h61q-7 -73 -61 -100q-27 -13 -69.5 -13t-71 29t-28.5 71q0 6 1 13h62zM30 0l355 732h190l115 -732h-168l-26 147h-215l-69 -147h-182zM344 289h139l-33 235z" />
    <glyph glyph-name="abreve" unicode="&#x103;" horiz-adv-x="544" 
d="M323 715q-1 -4 -1 -15.5t11 -24t35 -12.5h1q54 0 60 52h61q-5 -53 -37.5 -82.5t-84 -29.5t-79.5 29t-28 71v12h62zM481 527q67 -14 102 -48l-70 -477h-128l-25 52q-19 -27 -62.5 -43.5t-89.5 -16.5q-81 0 -123 80q-24 47 -24 107t11 114t25.5 90.5t30.5 61t37.5 42
t40 27.5t44.5 15q43 10 103.5 10t127.5 -14zM408 407q-23 10 -46.5 10t-36 -2.5t-20 -5.5t-17.5 -8.5t-17 -15t-14 -23.5q-15 -27 -22 -77q-8 -58 -8 -89q0 -67 51 -67q66 0 96 51z" />
    <glyph glyph-name="Aogonek" unicode="&#x104;" horiz-adv-x="722" 
d="M612 -68q0 -6 2 -11q8 -31 46 -26l-12 -83q-15 -4 -30 -4t-37.5 7.5t-37.5 29.5q-20 27 -20 53t19.5 54t62.5 49h62q-55 -36 -55 -69zM56 0l354 732h191l115 -732h-168l-26 147h-215l-70 -147h-181zM369 289h140l-33 235z" />
    <glyph glyph-name="aogonek" unicode="&#x105;" horiz-adv-x="523" 
d="M417 -68q0 -6 1 -11q8 -31 47 -26l-13 -83q-15 -4 -30 -4t-37 7.5t-38 29.5q-19 27 -19 53t19.5 54t62.5 49h62q-55 -36 -55 -69zM475.5 527q66.5 -14 101.5 -48l-70 -477h-128l-25 52q-18 -27 -61.5 -43.5t-90.5 -16.5q-81 0 -122 80q-24 47 -24 107t12.5 123
t35.5 108.5t47 69.5t59 37.5t60 17.5q34 4 86.5 4t119 -14zM402 407q-22 10 -46 10t-36 -2.5t-19.5 -5.5t-17.5 -8.5t-17 -15t-15 -23.5q-14 -27 -21 -77q-9 -58 -9 -89q0 -67 51 -67q66 0 97 51z" />
    <glyph glyph-name="Cacute" unicode="&#x106;" horiz-adv-x="569" 
d="M406 800l107 140h133l-141 -140h-99zM277 719q53 21 134 21t133.5 -8t113.5 -30l-21 -128q-137 17 -208 17h-2.5h-11t-17.5 -0.5t-22 -2.5t-21.5 -5.5t-19 -11.5t-18.5 -19t-16.5 -28t-15.5 -39q-16 -55 -26.5 -119t-10.5 -106t9 -66q20 -49 97 -51h49t168 9l-20 -128
q-53 -19 -104 -24.5t-95.5 -5.5h-64.5q-68 1 -113.5 31t-65.5 83q-25 66 -25 141t13 154t34.5 141.5t57.5 108t89 66.5z" />
    <glyph glyph-name="cacute" unicode="&#x107;" horiz-adv-x="490" 
d="M306 599l107 140h133l-141 -140h-99zM234.5 535q24.5 5 67.5 5t114.5 -8t121.5 -26l-16 -99q-78 7 -134.5 7t-68.5 -2t-26 -9t-22 -24q-20 -38 -29 -93q-12 -71 -12 -89.5t2 -31t7 -21.5t15 -15q18 -8 56 -8q80 0 152 7l24 2l-16 -100q-55 -22 -107 -28.5t-95.5 -6.5
h-57.5q-81 1 -120 74q-24 45 -24 104.5t10 119.5t26.5 106t35.5 73t45.5 42.5t51 20.5z" />
    <glyph glyph-name="Ccircumflex" unicode="&#x108;" horiz-adv-x="569" 
d="M284 800l126 138h116l73 -138h-100l-37 59l-66 -59h-112zM277 719q53 21 134 21t133.5 -8t113.5 -30l-21 -128q-137 17 -208 17h-2.5h-11t-17.5 -0.5t-22 -2.5t-21.5 -5.5t-19 -11.5t-18.5 -19t-16.5 -28t-15.5 -39q-16 -55 -26.5 -119t-10.5 -106t9 -66q20 -49 97 -51
h49t168 9l-20 -128q-53 -19 -104 -24.5t-95.5 -5.5h-64.5q-68 1 -113.5 31t-65.5 83q-25 66 -25 141t13 154t34.5 141.5t57.5 108t89 66.5z" />
    <glyph glyph-name="ccircumflex" unicode="&#x109;" horiz-adv-x="490" 
d="M192 598l126 138h116l73 -138h-100l-37 59l-66 -59h-112zM234 535q25 5 67.5 5t114 -8t122.5 -26l-16 -99q-79 7 -135 7t-68 -2t-26.5 -9t-22.5 -24q-19 -38 -29 -96q-11 -65 -11 -89t3 -38t14 -22q18 -13 60 -13q83 0 155 7l24 2l-16 -100q-56 -22 -107.5 -28.5
t-95 -6.5h-58.5q-80 1 -119 74q-24 45 -24 104.5t9.5 119.5t26 106t36 73t45.5 42.5t51 20.5z" />
    <glyph glyph-name="Cdotaccent" unicode="&#x10a;" horiz-adv-x="569" 
d="M425 932h80q23 0 19 -25l-13 -84q-3 -23 -26 -23h-80q-11 0 -17 6.5t-4 16.5l13 84q4 25 28 25zM277 719q53 21 134 21t133.5 -8t113.5 -30l-21 -128q-137 17 -208 17h-2.5h-11t-17.5 -0.5t-22 -2.5t-21.5 -5.5t-19 -11.5t-18.5 -19t-16.5 -28t-15.5 -39
q-16 -55 -26.5 -119t-10.5 -106t9 -66q20 -49 97 -51h49t168 9l-20 -128q-53 -19 -104 -24.5t-95.5 -5.5h-64.5q-68 1 -113.5 31t-65.5 83q-25 66 -25 141t13 154t34.5 141.5t57.5 108t89 66.5z" />
    <glyph glyph-name="cdotaccent" unicode="&#x10b;" horiz-adv-x="490" 
d="M330 731h80q23 0 19 -25l-13 -84q-3 -23 -26 -23h-80q-11 0 -17 6t-4 17l13 84q4 25 28 25zM234 535q25 5 67.5 5t114 -8t122.5 -26l-16 -99q-79 7 -135 7t-68 -2t-26.5 -9t-22.5 -24q-19 -38 -29 -96q-11 -65 -11 -89t3 -38t14 -22q18 -13 60 -13q83 0 155 7l24 2
l-16 -100q-56 -22 -107.5 -28.5t-95 -6.5h-58.5q-80 1 -119 74q-24 45 -24 104.5t9.5 119.5t26 106t36 73t45.5 42.5t51 20.5z" />
    <glyph glyph-name="Ccaron" unicode="&#x10c;" horiz-adv-x="569" 
d="M326 938h100l40 -60l63 60h112l-126 -138h-112zM277 719q53 21 134 21t133.5 -8t113.5 -30l-21 -128q-137 17 -208 17h-2.5h-11t-17.5 -0.5t-22 -2.5t-21.5 -5.5t-19 -11.5t-18.5 -19t-16.5 -28t-15.5 -39q-16 -55 -26.5 -119t-10.5 -106t9 -66q20 -49 97 -51h49t168 9
l-20 -128q-53 -19 -104 -24.5t-95.5 -5.5h-64.5q-68 1 -113.5 31t-65.5 83q-25 66 -25 141t13 154t34.5 141.5t57.5 108t89 66.5z" />
    <glyph glyph-name="ccaron" unicode="&#x10d;" horiz-adv-x="490" 
d="M225 736h100l40 -59l63 59h112l-126 -137h-112zM234 535q25 5 67.5 5t114 -8t122.5 -26l-16 -99q-79 7 -135 7t-68 -2t-26.5 -9t-22.5 -24q-19 -38 -29 -96q-11 -65 -11 -89t3 -38t14 -22q18 -13 60 -13q83 0 155 7l24 2l-16 -100q-56 -22 -107.5 -28.5t-95 -6.5h-58.5
q-80 1 -119 74q-24 45 -24 104.5t9.5 119.5t26 106t36 73t45.5 42.5t51 20.5z" />
    <glyph glyph-name="Dcaron" unicode="&#x10e;" horiz-adv-x="651" 
d="M303 933h100l40 -59l63 59h112l-126 -137h-112zM479 732q60 0 102.5 -22t65.5 -58q41 -67 41 -182q0 -56 -11 -130q-38 -249 -154 -310q-58 -30 -147 -30h-318l116 732h305zM372 142q58 0 91 55t51 167q11 82 11 121.5t-11.5 63t-30 32.5t-47.5 9h-121l-71 -448h128z" />
    <glyph glyph-name="dcaron" unicode="&#x10f;" horiz-adv-x="746" 
d="M199.5 525q36.5 14 104 14t130.5 -33l44 279h164l-125 -785h-137l-20 52q-78 -58 -152 -58q-143 0 -143 181q0 46 10.5 111.5t24.5 111t38.5 79.5t61 48zM262 364q-13 -33 -21 -87.5t-8 -80.5t3 -38q9 -28 40 -28q65 0 102 28l38 240q-31 18 -95 18q-20 0 -33 -9.5
t-26 -42.5zM678 580l11 134l10 68h104l-10 -68l-31 -134h-84z" />
    <glyph glyph-name="Dcroat" unicode="&#x110;" horiz-adv-x="647" 
d="M494 732q60 0 102 -23.5t64 -60.5q39 -67 39 -178q0 -57 -11 -130q-31 -184 -98 -262t-197 -78h-325l53 338h-65l12 70h64l52 324h310zM386 142q55 0 87.5 55.5t46.5 145.5q15 95 15 138.5t-9.5 67t-26 32.5t-42.5 9h-132l-29 -182h102l-11 -70h-102l-31 -196h132z" />
    <glyph glyph-name="dcroat" unicode="&#x111;" horiz-adv-x="554" 
d="M199.5 525q36.5 14 104 14t130.5 -33l14 95h-100l11 69h101l18 115h164l-18 -115h62l-12 -69h-62l-95 -601h-137l-20 52q-78 -58 -152 -58q-143 0 -143 182q0 46 10.5 111.5t24.5 111t38.5 79t61 47.5zM262 364q-13 -33 -21 -87.5t-8 -80.5t3 -38q9 -28 40 -28
q65 0 102 28l38 240q-31 18 -95 18q-20 0 -33 -9.5t-26 -42.5z" />
    <glyph glyph-name="Emacron" unicode="&#x112;" horiz-adv-x="558" 
d="M276 792l14 86h292l-14 -86h-292zM214 706q28 15 55.5 20.5t45.5 5.5h20q221 -4 307 -16l-22 -137h-264q-49 0 -58 -39q-1 -6 -3 -17l-12 -80l266 -11l-22 -135l-269 -9l-14 -86q-6 -38 14 -46q15 -6 40 -6h255l-22 -136q-71 -9 -245 -15l-58 -2h-16.5t-31.5 3t-44 14
q-66 31 -66 112q0 16 2 34l67 420q15 95 75 126z" />
    <glyph glyph-name="emacron" unicode="&#x113;" horiz-adv-x="528" 
d="M209 594l14 85h292l-14 -85h-292zM438 204.5q-33 -12.5 -59.5 -15t-70.5 -2.5t-77 14q-3 -15 -3 -34.5t14 -32.5q15 -14 67 -14q109 0 207 18l-20 -116q-101 -32 -218 -32q-34 0 -68 3q-147 9 -147 196q0 53 11 112t23 94t31.5 64.5t47.5 46.5q62 35 175 35q87 0 146 -29
q64 -32 64 -114q0 -56 -18.5 -97t-45 -62.5t-59.5 -34zM244 307q21 -4 47 -4t44.5 4t35.5 18q23 18 23 52q0 18 -12 28t-44 10q-60 0 -78 -47q-9 -21 -16 -61z" />
    <glyph glyph-name="Edotaccent" unicode="&#x116;" horiz-adv-x="558" 
d="M413 929h80q22 0 19 -25l-14 -84q-3 -23 -26 -23h-80q-11 0 -16.5 6.5t-4.5 16.5l14 84q3 25 28 25zM214 706q28 15 55.5 20.5t45.5 5.5h20q221 -4 307 -16l-22 -137h-264q-49 0 -58 -39q-1 -6 -3 -17l-12 -80l266 -11l-22 -135l-269 -9l-14 -86q-6 -38 14 -46
q15 -6 40 -6h255l-22 -136q-71 -9 -245 -15l-58 -2h-16.5t-31.5 3t-44 14q-66 31 -66 112q0 16 2 34l67 420q15 95 75 126z" />
    <glyph glyph-name="edotaccent" unicode="&#x117;" horiz-adv-x="528" 
d="M340 733h80q22 0 19 -25l-14 -84q-3 -23 -26 -23h-80q-10 0 -16 6.5t-5 16.5l14 84q3 25 28 25zM438 204.5q-33 -12.5 -59.5 -15t-70.5 -2.5t-77 14q-3 -15 -3 -34.5t14 -32.5q15 -14 67 -14q109 0 207 18l-20 -116q-101 -32 -218 -32q-34 0 -68 3q-147 9 -147 196
q0 53 11 112t23 94t31.5 64.5t47.5 46.5q62 35 175 35q87 0 146 -29q64 -32 64 -114q0 -56 -18.5 -97t-45 -62.5t-59.5 -34zM244 307q21 -4 47 -4t44.5 4t35.5 18q23 18 23 52q0 18 -12 28t-44 10q-60 0 -78 -47q-9 -21 -16 -61z" />
    <glyph glyph-name="Eogonek" unicode="&#x118;" horiz-adv-x="556" 
d="M477 -55q0 -5 1 -11q8 -30 47 -26l-13 -82q-15 -5 -30 -5t-37 7.5t-38 29.5q-19 27 -19 53.5t19.5 54t62.5 48.5h61q-54 -36 -54 -69zM215 706q28 15 55.5 20.5t45.5 5.5h20q221 -4 307 -16l-22 -137h-264q-49 0 -58 -39q-1 -6 -3 -17l-12 -80l266 -11l-22 -135l-269 -9
l-14 -86q-6 -38 14 -46q15 -6 41 -6h254l-22 -136q-71 -9 -245 -15l-57 -2h-17.5t-31.5 3t-44 14q-66 31 -66 112q0 16 3 34l66 420q15 95 75 126z" />
    <glyph glyph-name="eogonek" unicode="&#x119;" horiz-adv-x="528" 
d="M442 -47q0 -5 2 -11q8 -30 47 -26l-13 -82q-15 -5 -30 -5t-37.5 7.5t-37.5 29.5q-19 27 -19 53.5t19.5 54t62.5 48.5h61q-55 -36 -55 -69zM439 204.5q-33 -12.5 -60 -15t-70.5 -2.5t-77.5 14q-2 -15 -2 -34.5t14 -32.5q15 -14 66 -14q110 0 208 18l-20 -116
q-101 -32 -219 -32q-33 0 -68 3q-146 9 -146 196q0 87 27 183q17 64 37.5 88.5t40 39t45.5 23.5q55 18 117.5 18t98.5 -7q132 -24 132 -136q0 -56 -19 -97t-45 -62.5t-59 -34zM244 307q21 -4 47.5 -4t44.5 4t36 18q23 18 23 52q0 18 -12 28t-44 10q-60 0 -79 -47
q-9 -21 -16 -61z" />
    <glyph glyph-name="Ecaron" unicode="&#x11a;" horiz-adv-x="558" 
d="M292 934h99l41 -58l63 58h111l-126 -137h-112zM214 706q28 15 55.5 20.5t45.5 5.5h20q221 -4 307 -16l-22 -137h-264q-49 0 -58 -39q-1 -6 -3 -17l-12 -80l266 -11l-22 -135l-269 -9l-14 -86q-6 -38 14 -46q15 -6 40 -6h255l-22 -136q-71 -9 -245 -15l-58 -2h-16.5
t-31.5 3t-44 14q-66 31 -66 112q0 16 2 34l67 420q15 95 75 126z" />
    <glyph glyph-name="ecaron" unicode="&#x11b;" horiz-adv-x="528" 
d="M226 738h100l40 -58l63 58h112l-126 -137h-113zM438 204.5q-33 -12.5 -59.5 -15t-70.5 -2.5t-77 14q-3 -15 -3 -34.5t14 -32.5q15 -14 67 -14q109 0 207 18l-20 -116q-101 -32 -218 -32q-34 0 -68 3q-147 9 -147 196q0 53 11 112t23 94t31.5 64.5t47.5 46.5q62 35 175 35
q87 0 146 -29q64 -32 64 -114q0 -56 -18.5 -97t-45 -62.5t-59.5 -34zM244 307q21 -4 47 -4t44.5 4t35.5 18q23 18 23 52q0 18 -12 28t-44 10q-60 0 -78 -47q-9 -21 -16 -61z" />
    <glyph glyph-name="Gcircumflex" unicode="&#x11c;" horiz-adv-x="615" 
d="M283 800l126 137h116l73 -137h-100l-37 59l-66 -59h-112zM401 740h36t73 -3q67 -5 172 -34l-20 -125q-3 1 -13.5 2.5t-23.5 3t-31 3.5t-38 4t-41 4q-48 3 -86.5 3t-61 -8t-43.5 -33q-38 -45 -60 -190q-13 -75 -13 -100.5v-29.5q1 -49 21.5 -70t67.5 -21q53 0 99 39
q5 4 9 10l18 104h-79l16 103q57 24 179 24q32 0 68 -2l-68 -424h-117l-37 51q-35 -36 -72 -45q-45 -12 -87.5 -12t-77 14t-57.5 43q-51 68 -51 190q0 74 15 153.5t30.5 130.5t38.5 94.5t55 68.5q65 52 179 52z" />
    <glyph glyph-name="gcircumflex" unicode="&#x11d;" horiz-adv-x="558" 
d="M216 602l126 137h116l72 -137h-99l-38 58l-66 -58h-111zM243 -139q40 0 66.5 24t33.5 71l13 84q-50 -38 -123.5 -38t-114.5 37.5t-48 104.5q-2 23 -2 60.5t9.5 102t31 111.5t52.5 74q59 50 154 50q109 0 183 -12.5t99 -20.5l-91 -575q-33 -208 -221 -208q-19 0 -41 2
l-231 24l17 109h213zM266 375q-7 -12 -18.5 -55t-14 -85.5t-2.5 -51.5t2 -18t8 -20q11 -19 51.5 -19t80.5 20l44 276h-81q-34 0 -53 -23q-10 -12 -17 -24z" />
    <glyph glyph-name="Gbreve" unicode="&#x11e;" horiz-adv-x="615" 
d="M404 912v-15.5t10.5 -24t35.5 -12.5v0q55 0 60 52h62q-6 -53 -38 -82.5t-83.5 -29.5t-80 28.5t-28.5 71.5q0 6 1 12h61zM401 740h36t73 -3q67 -5 172 -34l-20 -125q-3 1 -13.5 2.5t-23.5 3t-31 3.5t-38 4t-41 4q-48 3 -86.5 3t-61 -8t-43.5 -33q-38 -45 -60 -190
q-13 -75 -13 -100.5v-29.5q1 -49 21.5 -70t67.5 -21q53 0 99 39q5 4 9 10l18 104h-79l16 103q57 24 179 24q32 0 68 -2l-68 -424h-117l-37 51q-35 -36 -72 -45q-45 -12 -87.5 -12t-77 14t-57.5 43q-51 68 -51 190q0 74 15 153.5t30.5 130.5t38.5 94.5t55 68.5q65 52 179 52z
" />
    <glyph glyph-name="gbreve" unicode="&#x11f;" horiz-adv-x="558" 
d="M335 714v-16t10.5 -23.5t34.5 -12.5h1q54 0 60 52h62q-6 -53 -38.5 -82.5t-83.5 -29.5t-79.5 28.5t-28.5 70.5v13h62zM243 -139q40 0 66.5 24t33.5 71l13 84q-50 -38 -123.5 -38t-114.5 37.5t-48 104.5q-2 23 -2 60.5t9.5 102t31 111.5t52.5 74q59 50 154 50
q109 0 183 -12.5t99 -20.5l-91 -575q-33 -208 -221 -208q-19 0 -41 2l-231 24l17 109h213zM266 375q-7 -12 -18.5 -55t-14 -85.5t-2.5 -51.5t2 -18t8 -20q11 -19 51.5 -19t80.5 20l44 276h-81q-34 0 -53 -23q-10 -12 -17 -24z" />
    <glyph glyph-name="Gdotaccent" unicode="&#x120;" horiz-adv-x="615" 
d="M426 932h80q22 0 19 -25l-14 -84q-3 -23 -26 -23h-80q-10 0 -16 6.5t-5 16.5l14 84q3 25 28 25zM401 740h36t73 -3q67 -5 172 -34l-20 -125q-3 1 -13.5 2.5t-23.5 3t-31 3.5t-38 4t-41 4q-48 3 -86.5 3t-61 -8t-43.5 -33q-38 -45 -60 -190q-13 -75 -13 -100.5v-29.5
q1 -49 21.5 -70t67.5 -21q53 0 99 39q5 4 9 10l18 104h-79l16 103q57 24 179 24q32 0 68 -2l-68 -424h-117l-37 51q-35 -36 -72 -45q-45 -12 -87.5 -12t-77 14t-57.5 43q-51 68 -51 190q0 74 15 153.5t30.5 130.5t38.5 94.5t55 68.5q65 52 179 52z" />
    <glyph glyph-name="gdotaccent" unicode="&#x121;" horiz-adv-x="558" 
d="M354 734h80q22 0 19 -26l-14 -84q-3 -22 -26 -22h-80q-10 0 -16 6t-5 16l14 84q3 26 28 26zM243 -139q40 0 66.5 24t33.5 71l13 84q-50 -38 -123.5 -38t-114.5 37.5t-48 104.5q-2 23 -2 60.5t9.5 102t31 111.5t52.5 74q59 50 154 50q109 0 183 -12.5t99 -20.5l-91 -575
q-33 -208 -221 -208q-19 0 -41 2l-231 24l17 109h213zM266 375q-7 -12 -18.5 -55t-14 -85.5t-2.5 -51.5t2 -18t8 -20q11 -19 51.5 -19t80.5 20l44 276h-81q-34 0 -53 -23q-10 -12 -17 -24z" />
    <glyph glyph-name="Gcommaaccent" unicode="&#x122;" horiz-adv-x="615" 
d="M270 -200q-10 0 -15.5 6t-3.5 16l14 90q4 24 26 24h87q18 0 18 -18q0 -3 -1 -6l-19 -122q-5 -29 -20.5 -47t-35.5 -23q-21 -5 -39 -5t-29 3l-13 3l8 49q26 -1 30 17q1 2 3 13h-10zM401 740h36t73 -3q67 -5 172 -34l-20 -125q-3 1 -13.5 2.5t-23.5 3t-31 3.5t-38 4t-41 4
q-48 3 -86.5 3t-61 -8t-43.5 -33q-38 -45 -60 -190q-13 -75 -13 -100.5v-29.5q1 -49 21.5 -70t67.5 -21q53 0 99 39q5 4 9 10l18 104h-79l16 103q57 24 179 24q32 0 68 -2l-68 -424h-117l-37 51q-35 -36 -72 -45q-45 -12 -87.5 -12t-77 14t-57.5 43q-51 68 -51 190
q0 74 15 153.5t30.5 130.5t38.5 94.5t55 68.5q65 52 179 52z" />
    <glyph glyph-name="gcommaaccent" unicode="&#x123;" horiz-adv-x="625" 
d="M260 -139q40 0 66.5 24t33.5 71l14 84q-50 -38 -124 -38t-114.5 37.5t-47.5 104.5q-3 23 -3 60.5t10 102t31.5 111.5t52.5 74q59 50 153 50q110 0 184 -12.5t98 -20.5l-91 -575q-33 -208 -221 -208q-19 0 -40 2l-232 24l18 109h212zM284 375q-7 -12 -19 -55t-14.5 -85.5
t-2.5 -51.5t2.5 -18t8.5 -20q10 -20 51 -19.5t80 20.5l45 276h-81q-35 0 -54 -23q-9 -12 -16 -24zM407.5 819.5q19.5 4.5 30 4.5h19.5t20 -3l12 -3l-8 -49h-2q-26 0 -29 -21l-2 -9h10q22 0 19 -22l-13 -89q-5 -24 -28 -24h-86q-17 0 -17 17v7l19 121q5 30 20.5 48t35 22.5z
" />
    <glyph glyph-name="Hcircumflex" unicode="&#x124;" horiz-adv-x="636" 
d="M295 797l126 137h116l73 -137h-100l-37 59l-66 -59h-112zM55 0l116 732h164l-48 -304h215l48 304h164l-116 -732h-164l44 280h-215l-44 -280h-164z" />
    <glyph glyph-name="hcircumflex" unicode="&#x125;" horiz-adv-x="552" 
d="M49 842l126 138h116l73 -138h-100l-37 60l-66 -60h-112zM371 373q0 41 -39 41q-36 0 -61 -10t-50 -32l-59 -372h-164l124 782h164l-49 -306q67 49 116 59q25 5 63 5t67.5 -15t41.5 -41q14 -33 14 -69.5t-7 -66.5l-55 -348h-164l55 350q3 13 3 23z" />
    <glyph glyph-name="Hbar" unicode="&#x126;" horiz-adv-x="669" 
d="M56 0l82 516h-64l10 70h64l24 146h164l-24 -146h215l24 146h164l-24 -146h63l-10 -70h-63l-82 -516h-164l44 280h-215l-44 -280h-164zM288 429h215l14 87h-215z" />
    <glyph glyph-name="hbar" unicode="&#x127;" horiz-adv-x="570" 
d="M431 373q0 41 -39 41q-62 0 -108 -42l-59 -372h-165l96 602h-65l11 70h64l18 110h164l-18 -110h105l-11 -70h-104l-20 -126q7 5 35.5 22t40.5 23q41 19 90 19h1q93 0 118 -56q14 -33 14 -69.5t-7 -66.5l-55 -348h-164l55 350q3 13 3 23z" />
    <glyph glyph-name="Itilde" unicode="&#x128;" horiz-adv-x="267" 
d="M335 894h14.5t40 11.5t45.5 27.5l14 -66q-69 -70 -124 -70q-24 0 -57 17.5t-56 17.5q-39 0 -95 -35l-16 61q70 71 134 71q23 0 52.5 -17.5t47.5 -17.5zM56 0l116 732h164l-116 -732h-164z" />
    <glyph glyph-name="itilde" unicode="&#x129;" horiz-adv-x="237" 
d="M266 696q2 -1 14.5 -1t40 11.5t45.5 27.5l14 -66q-68 -70 -124 -70q-24 0 -57 17.5t-56 17.5q-39 0 -95 -35l-15 61q70 71 133 71q24 0 53 -17t47 -17zM30 0l84 531h164l-84 -531h-164z" />
    <glyph glyph-name="Imacron" unicode="&#x12a;" horiz-adv-x="267" 
d="M104 796l13 85h292l-13 -85h-292zM44 0l116 732h164l-116 -732h-164z" />
    <glyph glyph-name="imacron" unicode="&#x12b;" horiz-adv-x="237" 
d="M56 598l14 86h292l-14 -86h-292zM30 0l84 531h164l-84 -531h-164z" />
    <glyph glyph-name="Iogonek" unicode="&#x12e;" horiz-adv-x="267" 
d="M121 -68q0 -6 1 -11q8 -31 47 -26l-13 -83q-15 -4 -30 -4t-37 7.5t-37 29.5q-19 27 -19 53t19 54t62 49h61q-54 -36 -54 -69zM56 0l116 732h164l-116 -732h-164z" />
    <glyph glyph-name="iogonek" unicode="&#x12f;" horiz-adv-x="237" 
d="M95 -65q0 -6 2 -11q8 -31 47 -26l-13 -83q-15 -4 -30 -4t-37.5 7.5t-37.5 29.5q-19 27 -19 53t19.5 54t61.5 49h62q-55 -36 -55 -69zM37 0l84 531h164l-84 -531h-164zM173 733h125q19 0 19 -18q0 -3 -1 -7l-15 -101q-3 -23 -27 -23h-124q-11 0 -16.5 6.5t-3.5 16.5
l15 101q3 25 28 25z" />
    <glyph glyph-name="Idotaccent" unicode="&#x130;" horiz-adv-x="267" 
d="M326 929q19 0 19 -20v-5l-14 -84q-3 -23 -26 -23h-80q-10 0 -16 6.5t-5 16.5l14 84q3 25 28 25h80zM56 0l116 732h164l-116 -732h-164z" />
    <glyph glyph-name="dotlessi" unicode="&#x131;" horiz-adv-x="237" 
d="M30 0l84 531h164l-84 -531h-164z" />
    <glyph glyph-name="Jcircumflex" unicode="&#x134;" horiz-adv-x="355" 
d="M202 797l126 137h116l73 -137h-100l-37 59l-66 -59h-112zM48 153q20 -1 35.5 -1t31.5 1.5t34.5 11.5t27.5 29.5t14 53.5l77 484h164l-90 -567q-17 -112 -77 -147q-40 -23 -109 -23q-90 0 -129 29z" />
    <glyph glyph-name="jcircumflex" unicode="&#x135;" horiz-adv-x="251" 
d="M6 -270l128 801h165l-85 -535q-13 -83 -30.5 -147t-52.5 -119h-125zM61 595l126 138h116l73 -138h-101l-44 58l-65 -58h-105z" />
    <glyph glyph-name="Kcommaaccent" unicode="&#x136;" horiz-adv-x="638" 
d="M251 -195q-10 0 -15.5 6t-3.5 17l14 89q4 24 27 24h86q18 0 18 -18v-6l-20 -122q-4 -29 -20 -47t-35 -23q-21 -5 -39.5 -5t-29.5 3l-12 3l8 49q26 -1 30 17q0 2 2 13h-10zM54 0l116 732h156l-47 -298h44l215 298h198l-270 -380l154 -352h-186l-117 292h-60l-46 -292h-157
z" />
    <glyph glyph-name="kcommaaccent" unicode="&#x137;" horiz-adv-x="545" 
d="M231 -195q-10 0 -15.5 6t-3.5 17l14 89q4 24 26 24h86q19 0 19 -18q0 -3 -1 -6l-19 -122q-5 -29 -21 -47t-35 -23q-21 -5 -39.5 -5t-29.5 3l-12 3l8 49q19 -1 24 5q5 8 8 25h-9zM40 -2l124 782h164l-69 -436q59 23 107.5 72t69.5 113h172q-46 -168 -180 -243l148 -288
h-180l-116 235l-38 -1l-38 -234h-164z" />
    <glyph glyph-name="kgreenlandic" unicode="&#x138;" horiz-adv-x="582" 
d="M40 0l84 531h165l-33 -209h41l167 209h190l-215 -281l120 -250h-181l-92 204h-48l-33 -204h-165z" />
    <glyph glyph-name="Lacute" unicode="&#x139;" horiz-adv-x="527" 
d="M159 792l107 140h133l-141 -140h-99zM257 149h231l-24 -149h-299q-70 0 -104 32t-34 82q0 16 3 34l93 584h164l-85 -531q-5 -38 14 -46q15 -6 41 -6z" />
    <glyph glyph-name="lacute" unicode="&#x13a;" horiz-adv-x="314" 
d="M197 843l107 141h133l-141 -141h-99zM196 0q-76 0 -113 45q-26 32 -26 91q0 24 4 53l94 594h164l-89 -564q-8 -55 -1.5 -70t12 -20t34.5 -17.5t35 -12.5l-16 -99h-98z" />
    <glyph glyph-name="Lcommaaccent" unicode="&#x13b;" horiz-adv-x="527" 
d="M223 -195q-10 0 -15.5 6t-3.5 17l14 89q4 24 27 24h86q18 0 18 -18v-6l-20 -122q-6 -43 -34 -60q-25 -15 -52 -15q-28 0 -50 6l8 49q19 -1 23 5q6 8 9 25h-10zM303 149h231l-24 -149h-299q-69 0 -103 32t-34 82q0 16 2 34l93 584h164l-84 -531q-6 -38 14 -46q14 -6 40 -6
z" />
    <glyph glyph-name="lcommaaccent" unicode="&#x13c;" horiz-adv-x="314" 
d="M100 -195q-10 0 -15.5 6t-3.5 17l14 89q4 24 26 24h87q18 0 18 -18q0 -3 -1 -6l-19 -122q-5 -29 -20.5 -47t-35.5 -23q-21 -5 -39 -5t-29 3l-13 3l8 49q19 -1 24 5q6 8 9 25h-10zM203 0q-76 0 -113 45q-26 32 -26 91q0 24 4 53l94 594h164l-89 -564q-9 -55 -2 -70
t12.5 -20t34.5 -17.5t34 -12.5l-15 -99h-98z" />
    <glyph glyph-name="Lcaron" unicode="&#x13d;" horiz-adv-x="527" 
d="M303 149h231l-24 -149h-299q-69 0 -103 32t-34 82q0 16 2 34l93 584h164l-84 -531q-6 -38 14 -46q14 -6 40 -6zM374 571l10 134l10 67h104l-10 -67l-31 -134h-83z" />
    <glyph glyph-name="lcaron" unicode="&#x13e;" horiz-adv-x="390" 
d="M196 0q-132 0 -132 134q0 25 5 55l94 594h164l-90 -564q-9 -55 -2 -70t12.5 -20t35 -17.5t34.5 -12.5l-15 -99h-106zM367 581l10 134l11 67h104l-11 -67l-31 -134h-83z" />
    <glyph glyph-name="Lslash" unicode="&#x141;" horiz-adv-x="529" 
d="M303 149h231l-23 -149h-299q-70 0 -104 32t-34 82q0 16 3 34l29 184l-82 -32l13 76l81 32l51 324h164l-40 -254l109 44l-12 -76l-109 -44l-32 -201q-6 -39 13 -46q16 -6 41 -6z" />
    <glyph glyph-name="lslash" unicode="&#x142;" horiz-adv-x="338" 
d="M222 0q-75 0 -113 45q-26 31 -26 91q0 24 4 53l30 185l-78 -30l13 76l76 30l54 333h164l-41 -263l112 46l-12 -76l-112 -46l-37 -225q-9 -55 -2.5 -70t12.5 -20t35 -17.5t35 -12.5l-16 -99h-98z" />
    <glyph glyph-name="Nacute" unicode="&#x143;" horiz-adv-x="672" 
d="M420 797l107 141h132l-140 -141h-99zM54 0l116 732h165l182 -433l68 433h164l-116 -732h-163l-184 425l-67 -425h-165z" />
    <glyph glyph-name="nacute" unicode="&#x144;" horiz-adv-x="552" 
d="M326 600l107 140h132l-140 -140h-99zM413 373q0 41 -39 41q-35 0 -60.5 -10t-49.5 -32l-60 -372h-164l84 531h135l21 -55q71 51 116 59q24 5 62 5t68 -15t41 -41q14 -33 14 -69.5t-6 -66.5l-55 -348h-164l55 350q2 13 2 23z" />
    <glyph glyph-name="Ncommaaccent" unicode="&#x145;" horiz-adv-x="672" 
d="M282 -195q-10 0 -15.5 6t-3.5 17l14 89q4 24 26 24h86q19 0 19 -18q0 -3 -1 -6l-19 -122q-5 -29 -21 -47t-35 -23q-21 -5 -39.5 -5t-29.5 3l-12 3l8 49q25 -1 30 16q0 2 2 14h-9zM54 0l116 732h165l182 -433l68 433h164l-116 -732h-163l-184 425l-67 -425h-165z" />
    <glyph glyph-name="ncommaaccent" unicode="&#x146;" horiz-adv-x="552" 
d="M211 -195q-10 0 -15.5 6t-3.5 17l14 89q4 24 26 24h87q18 0 18 -18v-6l-20 -122q-5 -29 -20.5 -47t-34.5 -23q-22 -5 -40 -5t-29 3l-13 3l8 49q20 -1 24 5q6 8 9 25h-10zM413 373q0 41 -39 41q-35 0 -60.5 -10t-49.5 -32l-60 -372h-164l84 531h135l21 -55q71 51 116 59
q24 5 62 5t68 -15t41 -41q14 -33 14 -69.5t-6 -66.5l-55 -348h-164l55 350q2 13 2 23z" />
    <glyph glyph-name="Ncaron" unicode="&#x147;" horiz-adv-x="672" 
d="M334 934h100l40 -58l63 58h112l-126 -137h-113zM54 0l116 732h165l182 -433l68 433h164l-116 -732h-163l-184 425l-67 -425h-165z" />
    <glyph glyph-name="ncaron" unicode="&#x148;" horiz-adv-x="552" 
d="M241 738h99l41 -60l63 60h111l-126 -138h-112zM413 373q0 41 -39 41q-35 0 -60.5 -10t-49.5 -32l-60 -372h-164l84 531h135l21 -55q71 51 116 59q24 5 62 5t68 -15t41 -41q14 -33 14 -69.5t-6 -66.5l-55 -348h-164l55 350q2 13 2 23z" />
    <glyph glyph-name="Eng" unicode="&#x14a;" horiz-adv-x="672" 
d="M539 -217q-30 -19 -66 -30.5t-55 -11.5q-43 0 -93 2l19 117q3 0 14.5 1t20 2t22 4t21 8t15.5 13q16 14 21 50l11 64l-183 420l-67 -422h-165l116 732h165l182 -429l68 429h164l-127 -801q-8 -53 -30.5 -91t-52.5 -57z" />
    <glyph glyph-name="eng" unicode="&#x14b;" horiz-adv-x="559" 
d="M413 373q0 41 -39 41q-35 0 -60.5 -10t-49.5 -32l-60 -372h-164l84 531h135l21 -55q8 5 36 22t40 23q41 19 90.5 19t79.5 -15t41 -41q14 -33 14 -69.5t-6 -66.5l-55 -348l-11 -60q-8 -47 -30 -85t-48 -59.5t-58 -36.5q-53 -24 -105 -27l-23 90q43 14 60.5 29t26 34.5
t13.5 50.5l66 414q2 13 2 23z" />
    <glyph glyph-name="Omacron" unicode="&#x14c;" horiz-adv-x="666" 
d="M320 796l14 85h292l-14 -85h-292zM383.5 735.5q27.5 1.5 69 1.5t72.5 -4t61.5 -15t52.5 -29q69 -60 69 -204q0 -64 -11.5 -137.5t-27.5 -126t-34 -89t-44 -62t-50.5 -40t-59.5 -22.5q-55 -12 -117.5 -12t-93.5 3.5t-62 14t-52 28.5q-49 41 -63 116q-6 35 -6 62t0.5 58.5
t12 102.5t28.5 126.5t35 93t45.5 63.5t51 40.5t60 22t64 9zM284.5 465q-11.5 -41 -22.5 -111t-11 -94t1.5 -42t8 -32.5t20.5 -24.5q24 -16 79 -16t85 17t51 63.5t33 121.5q14 88 14 125t-4 59.5t-19.5 35t-34.5 17t-52 4.5t-53 -3.5t-39.5 -16t-32 -37.5t-24 -66z" />
    <glyph glyph-name="omacron" unicode="&#x14d;" horiz-adv-x="555" 
d="M226 598l13 86h292l-13 -86h-292zM362 538q134 0 180 -71q30 -47 30 -129q0 -44 -9 -101.5t-23.5 -98.5t-35.5 -69.5t-53 -44.5q-60 -29 -172 -29q-134 0 -182 68q-31 46 -31 127q0 39 9 95.5t24.5 101.5t37.5 75t55 47q60 29 170 29zM271 385q-18 -27 -30 -102
t-12 -91.5t1 -27.5t5 -20t14 -14q14 -8 45 -8t45 3t26.5 17.5t19.5 40.5t16 77.5t9 70.5q0 57 -15.5 69t-60.5 12t-63 -27z" />
    <glyph glyph-name="Ohungarumlaut" unicode="&#x150;" horiz-adv-x="666" 
d="M333 797l107 141h132l-140 -141h-99zM496 797l107 141h133l-141 -141h-99zM383.5 735.5q27.5 1.5 69 1.5t72.5 -4t61.5 -15t52.5 -29q69 -60 69 -204q0 -64 -11.5 -137.5t-27.5 -126t-34 -89t-44 -62t-50.5 -40t-59.5 -22.5q-55 -12 -117.5 -12t-93.5 3.5t-62 14
t-52 28.5q-49 41 -63 116q-6 35 -6 62t0.5 58.5t12 102.5t28.5 126.5t35 93t45.5 63.5t51 40.5t60 22t64 9zM284.5 465q-11.5 -41 -22.5 -111t-11 -94t1.5 -42t8 -32.5t20.5 -24.5q24 -16 79 -16t85 17t51 63.5t33 121.5q14 88 14 125t-4 59.5t-19.5 35t-34.5 17t-52 4.5
t-53 -3.5t-39.5 -16t-32 -37.5t-24 -66z" />
    <glyph glyph-name="ohungarumlaut" unicode="&#x151;" horiz-adv-x="555" 
d="M240 598l107 141h133l-141 -141h-99zM404 598l107 141h132l-140 -141h-99zM362 538q134 0 180 -71q30 -47 30 -129q0 -44 -9 -101.5t-23.5 -98.5t-35.5 -69.5t-53 -44.5q-60 -29 -172 -29q-134 0 -182 68q-31 46 -31 127q0 39 9 95.5t24.5 101.5t37.5 75t55 47
q60 29 170 29zM271 385q-18 -27 -30 -102t-12 -91.5t1 -27.5t5 -20t14 -14q14 -8 45 -8t45 3t26.5 17.5t19.5 40.5t16 77.5t9 70.5q0 57 -15.5 69t-60.5 12t-63 -27z" />
    <glyph glyph-name="OE" unicode="&#x152;" horiz-adv-x="1024" 
d="M634 -3q-69 0 -108 39q-38 -24 -86 -32t-102.5 -8t-86 3.5t-62.5 14t-52 28.5q-49 41 -62 116q-7 35 -7 62t1 58.5t12 102.5t28 126.5t35.5 93t45.5 63.5t51 40.5t60 21.5q53 11 135 11q122 0 176 -47q42 43 120 43q9 0 18 -1q222 -4 308 -16l-22 -137h-264
q-37 0 -49 -18q-9 -14 -13 -38l-12 -80l266 -11l-20 -135l-270 -9l-14 -86q-6 -38 13 -46q15 -6 41 -6h254l-21 -136q-77 -10 -290 -17h-13h-10zM266 465q-11 -41 -22 -111t-11 -94t1 -42t8 -32.5t21 -24.5q24 -16 79 -16t85 17t50.5 63.5t32.5 121.5q14 88 14 125t-4 59.5
t-19 35t-34.5 17t-52.5 4.5t-52.5 -3.5t-39.5 -16t-32.5 -37.5t-23.5 -66z" />
    <glyph glyph-name="oe" unicode="&#x153;" horiz-adv-x="853" 
d="M770.5 204.5q-33.5 -12.5 -60 -15t-70.5 -2.5t-77 14q-2 -19 -2 -28t0.5 -18.5t11.5 -18.5q18 -16 70 -16q108 0 206 18l-20 -116q-102 -32 -219 -32q-33 0 -68 3q-59 3 -90 39q-56 -37 -184.5 -37t-175.5 68q-32 46 -32 127q0 40 10 104.5t30.5 115t56.5 79.5t81.5 39
t117.5 10q99 0 146 -41q58 44 181 44q88 0 146 -29q65 -32 65 -114q0 -56 -19 -97t-45 -62.5t-59.5 -34zM265.5 385q-17.5 -27 -30 -102t-12.5 -91.5t1.5 -27.5t5.5 -20t13 -14q15 -8 45.5 -8t44.5 3t26.5 17.5t19.5 40.5t16.5 77.5t9.5 70.5q0 57 -15.5 69t-61 12t-63 -27z
M576 307q20 -4 46.5 -4t45 4t35.5 18q23 18 23 52q0 18 -12 28t-44 10q-60 0 -79 -47q-9 -21 -15 -61z" />
    <glyph glyph-name="Racute" unicode="&#x154;" horiz-adv-x="601" 
d="M360 793l107 141h132l-140 -141h-99zM467 732q95 0 144 -61q35 -45 35 -124q0 -84 -27 -154q-15 -37 -29.5 -56.5t-35.5 -32t-32.5 -15.5t-27.5 -6l103 -283h-186l-81 275l-79 7l-44 -282h-164l116 732h308zM395 407q50 0 68 40q15 34 15 72t-7 51q-11 20 -45 20h-125
l-29 -183h123z" />
    <glyph glyph-name="racute" unicode="&#x155;" horiz-adv-x="414" 
d="M282 598l107 141h133l-141 -141h-99zM445 536q37 0 53 -6l-25 -157q-30 1 -76 1t-75 -11t-48 -48l-50 -315h-164l84 531h142l11 -67q69 72 148 72z" />
    <glyph glyph-name="Rcommaaccent" unicode="&#x156;" horiz-adv-x="601" 
d="M249 -195q-10 0 -15.5 6t-3.5 17l14 89q4 24 26 24h86q19 0 19 -18q0 -3 -1 -6l-19 -122q-5 -29 -21 -47t-35 -23q-21 -5 -39.5 -5t-29.5 3l-12 3l8 49q19 -1 24 5q5 8 8 25h-9zM476 732q95 0 144 -61q35 -45 35 -124q0 -84 -27 -154q-15 -37 -29.5 -56.5t-35.5 -32
t-32.5 -15.5t-27.5 -6l103 -283h-186l-81 275l-79 7l-44 -282h-164l116 732h308zM404 407q50 0 68 40q15 34 15 72t-7 51q-11 20 -45 20h-125l-29 -183h123z" />
    <glyph glyph-name="rcommaaccent" unicode="&#x157;" horiz-adv-x="414" 
d="M73 -195q-10 0 -15.5 6t-3.5 17l14 89q4 24 26 24h87q18 0 18 -18q0 -3 -1 -6l-19 -122q-7 -43 -35 -60q-25 -15 -52 -15t-50 6l8 49q19 -1 24 5q6 8 9 25h-10zM447 536q38 0 53 -6l-25 -157q-30 1 -64.5 1t-49.5 -1.5t-32 -7.5q-32 -11 -53 -50l-50 -315h-164l84 531
h142l12 -67q68 72 147 72z" />
    <glyph glyph-name="Rcaron" unicode="&#x158;" horiz-adv-x="601" 
d="M290 934h99l41 -58l63 58h111l-126 -137h-112zM476 732q95 0 144 -61q35 -45 35 -124q0 -84 -27 -154q-15 -37 -29.5 -56.5t-35.5 -32t-32.5 -15.5t-27.5 -6l103 -283h-186l-81 275l-79 7l-44 -282h-164l116 732h308zM404 407q50 0 68 40q15 34 15 72t-7 51
q-11 20 -45 20h-125l-29 -183h123z" />
    <glyph glyph-name="rcaron" unicode="&#x159;" horiz-adv-x="414" 
d="M177 736h99l41 -59l63 59h111l-126 -138h-112zM425 536q38 0 53 -6l-25 -157q-30 1 -76 1t-74.5 -11t-48.5 -48l-50 -315h-164l84 531h142l12 -67q68 72 147 72z" />
    <glyph glyph-name="Sacute" unicode="&#x15a;" horiz-adv-x="582" 
d="M359 799l107 140h132l-140 -140h-99zM332 141q36 0 58 11.5t27 41.5l5 29q2 18 0 31q-4 27 -52 27h-87q-104 0 -146 64q-27 42 -27 105q0 16 2 36l11 80q18 120 108 153q51 19 181.5 19t223.5 -31l-21 -128q-111 10 -241 10q-43 0 -62.5 -10t-25.5 -49l-4 -25
q-2 -11 -2 -25.5t11 -24.5t53 -10h90q41 0 72 -13.5t47 -34.5q35 -48 35 -100q0 -23 -2 -54l-4 -65q-7 -106 -71 -148q-38 -25 -75 -31q-47 -7 -123 -7t-133.5 6t-114.5 26l20 128q96 -11 247 -11z" />
    <glyph glyph-name="sacute" unicode="&#x15b;" horiz-adv-x="509" 
d="M297 600l107 140h132l-140 -140h-99zM315 126q28 0 32 26l3 17q3 19 -5 23t-19 4h-108q-98 0 -127 75q-9 24 -9 46.5t3 40.5l8 47q10 65 48.5 98.5t115.5 33.5t121.5 -1t95.5 -8.5t66 -21.5l-16 -100h-232q-24 0 -32 -12q-4 -6 -5 -16l-3 -17q-2 -14 0.5 -17t3 -4.5
t3 -2.5t3.5 -1.5t4.5 -0.5h4.5h5h5h112q75 0 105 -46q23 -33 23 -77q0 -16 -3 -32l-9 -60q-12 -79 -60 -105q-40 -21 -96 -21t-92 0.5t-85 3.5q-96 6 -119 28l16 100h242z" />
    <glyph glyph-name="Scircumflex" unicode="&#x15c;" horiz-adv-x="582" 
d="M253 799l126 137h116l72 -137h-99l-38 59l-66 -59h-111zM335 141q36 0 58 11.5t27 41.5l4 29q3 18 1 31q-4 27 -52 27h-87q-104 0 -146 64q-27 42 -27 105q0 16 3 36l10 80q18 120 108 153q51 19 181.5 19t222.5 -31l-20 -128q-111 10 -241 10q-43 0 -62.5 -10t-25.5 -49
l-4 -25q-2 -11 -2 -25.5t11 -24.5t52 -10h91q41 0 72 -13.5t47 -34.5q35 -48 35 -100q0 -23 -2 -54l-4 -65q-7 -106 -71 -148q-38 -25 -75 -31q-47 -7 -123 -7t-133.5 6t-114.5 26l20 128q96 -11 247 -11z" />
    <glyph glyph-name="scircumflex" unicode="&#x15d;" horiz-adv-x="509" 
d="M187 600l126 137h116l72 -137h-99l-38 58l-66 -58h-111zM310 126q28 0 33 26l3 17q3 19 -5 23t-20 4h-108q-98 0 -126 75q-9 24 -9 46.5t2 40.5l8 47q11 65 49 98.5t115.5 33.5t122 -1t95.5 -8.5t66 -21.5l-16 -100h-232q-19 0 -27 -6.5t-11 -21.5l-2 -17
q-3 -14 -0.5 -17t3.5 -4.5t3.5 -2.5t3.5 -1.5t4.5 -0.5h4.5h5h4h113q74 0 105 -46q22 -33 22 -77q0 -16 -2 -32l-10 -60q-12 -79 -60 -105q-40 -21 -89.5 -21h-78t-71.5 2t-69 5q-66 8 -83 25l15 100h242z" />
    <glyph glyph-name="Scedilla" unicode="&#x15e;" horiz-adv-x="582" 
d="M242 -188h-58l11 68l43 15q21 9 27.5 19.5t10.5 40.5h105q-8 -53 -24 -83q-30 -61 -115 -60zM335 141q36 0 58 11.5t27 41.5l4 29q3 18 1 31q-4 27 -52 27h-87q-104 0 -146 64q-27 42 -27 105q0 16 3 36l10 80q18 120 108 153q51 19 181.5 19t222.5 -31l-20 -128
q-111 10 -241 10q-43 0 -62.5 -10t-25.5 -49l-4 -25q-2 -11 -2 -25.5t11 -24.5t52 -10h91q41 0 72 -13.5t47 -34.5q35 -48 35 -100q0 -23 -2 -54l-4 -65q-7 -106 -71 -148q-38 -25 -75 -31q-47 -7 -123 -7t-133.5 6t-114.5 26l20 128q96 -11 247 -11z" />
    <glyph glyph-name="scedilla" unicode="&#x15f;" horiz-adv-x="509" 
d="M198 -182h-58l11 68l43 15q21 9 27 19.5t11 40.5h105q-13 -78 -43 -110.5t-96 -32.5zM310 126q28 0 33 26l3 17q3 19 -5 23t-20 4h-108q-98 0 -126 75q-9 24 -9 46.5t2 40.5l8 47q11 65 49 98.5t115.5 33.5t122 -1t95.5 -8.5t66 -21.5l-16 -100h-232q-19 0 -27 -6.5
t-11 -21.5l-2 -17q-3 -14 -0.5 -17t3.5 -4.5t3.5 -2.5t3.5 -1.5t4.5 -0.5h4.5h5h4h113q74 0 105 -46q22 -33 22 -77q0 -16 -2 -32l-10 -60q-12 -79 -60 -105q-40 -21 -89.5 -21h-78t-71.5 2t-69 5q-66 8 -83 25l15 100h242z" />
    <glyph glyph-name="Scaron" unicode="&#x160;" horiz-adv-x="582" 
d="M278 936h99l41 -59l63 59h111l-126 -137h-112zM335 141q36 0 58 11.5t27 41.5l4 29q3 18 1 31q-4 27 -52 27h-87q-104 0 -146 64q-27 42 -27 105q0 16 3 36l10 80q18 120 108 153q51 19 181.5 19t222.5 -31l-20 -128q-111 10 -241 10q-43 0 -62.5 -10t-25.5 -49l-4 -25
q-2 -11 -2 -25.5t11 -24.5t52 -10h91q41 0 72 -13.5t47 -34.5q35 -48 35 -100q0 -23 -2 -54l-4 -65q-7 -106 -71 -148q-38 -25 -75 -31q-47 -7 -123 -7t-133.5 6t-114.5 26l20 128q96 -11 247 -11z" />
    <glyph glyph-name="scaron" unicode="&#x161;" horiz-adv-x="509" 
d="M206 737h100l40 -59l63 59h111l-126 -137h-112zM310 126q28 0 33 26l3 17q3 19 -5 23t-20 4h-108q-98 0 -126 75q-9 24 -9 46.5t2 40.5l8 47q11 65 49 98.5t115.5 33.5t122 -1t95.5 -8.5t66 -21.5l-16 -100h-232q-19 0 -27 -6.5t-11 -21.5l-2 -17q-3 -14 -0.5 -17
t3.5 -4.5t3.5 -2.5t3.5 -1.5t4.5 -0.5h4.5h5h4h113q74 0 105 -46q22 -33 22 -77q0 -16 -2 -32l-10 -60q-12 -79 -60 -105q-40 -21 -89.5 -21h-78t-71.5 2t-69 5q-66 8 -83 25l15 100h242z" />
    <glyph glyph-name="Tcommaaccent" unicode="&#x162;" horiz-adv-x="592" 
d="M183 -182h-59l12 68l42 16q22 8 28 18.5t11 41.5h105q-13 -79 -43.5 -111.5t-95.5 -32.5zM94 583l24 149h552l-24 -149h-197l-92 -583h-164l92 583h-191z" />
    <glyph glyph-name="tcommaaccent" unicode="&#x163;" horiz-adv-x="375" 
d="M128 -183h-58l11 68l43 15q22 9 27 19q7 13 11 41h105q-12 -78 -42.5 -110.5t-96.5 -32.5zM267 220q-5 -25 -5 -38.5t2.5 -27.5t8.5 -21.5t37 -21t36 -13.5l-15 -99h-107q-69 0 -105 47q-25 32 -25 90q0 25 5 54l35 223h-81l13 86l87 33l49 148h138l-23 -148h105
l-18 -119h-106z" />
    <glyph glyph-name="Tcaron" unicode="&#x164;" horiz-adv-x="592" 
d="M291 934h99l41 -58l63 58h111l-126 -137h-112zM116 583l24 149h553l-24 -149h-198l-92 -583h-164l92 583h-191z" />
    <glyph glyph-name="tcaron" unicode="&#x165;" horiz-adv-x="391" 
d="M286 220q-6 -25 -6 -38.5t2.5 -27.5t8.5 -21.5t37 -21t37 -13.5l-16 -98h-107q-67 0 -104 45q-25 33 -25 91q0 25 4 54l35 223h-80l13 86l86 33l49 148h139l-24 -148h106l-19 -119h-106zM406 600l10 134l11 67h104l-11 -67l-31 -134h-83z" />
    <glyph glyph-name="Tbar" unicode="&#x166;" horiz-adv-x="607" 
d="M116 583l24 149h553l-24 -149h-198l-24 -154h90l-11 -69h-90l-57 -360h-164l57 360h-90l11 69h90l24 154h-191z" />
    <glyph glyph-name="tbar" unicode="&#x167;" horiz-adv-x="373" 
d="M285 220q-5 -25 -5 -38.5t2.5 -27.5t8.5 -21.5t37 -21t36 -13.5l-15 -98h-107q-67 0 -104 45q-26 33 -26 91q0 25 5 54l9 63h-66l11 69h67l14 91h-81l13 86l87 33l48 148h139l-23 -148h105l-18 -119h-106l-14 -91h74l-11 -69h-75z" />
    <glyph glyph-name="Utilde" unicode="&#x168;" horiz-adv-x="653" 
d="M528 894h11t27 6q37 11 62 33l14 -66q-68 -70 -124 -70q-24 0 -57 17.5t-56 17.5q-39 0 -94 -35l-16 61q70 71 133 71q24 0 53.5 -17.5t46.5 -17.5zM266 316q-7 -46 -7 -80t8 -54q17 -38 88 -38t100 40t43 132l66 416h165l-62 -439q-26 -169 -102 -234q-65 -55 -167 -62
q-27 -2 -60.5 -2t-57 2.5t-49.5 8.5t-46 17.5t-38 28.5q-33 31 -48 104q-6 28 -6 51q0 66 11 131l63 394h165z" />
    <glyph glyph-name="utilde" unicode="&#x169;" horiz-adv-x="551" 
d="M437 696q3 -1 15.5 -1t39.5 11.5t45 27.5l15 -66q-69 -70 -124 -70q-25 0 -57.5 17.5t-55.5 17.5q-39 0 -95 -35l-16 61q70 71 133 71q24 0 53.5 -17t46.5 -17zM226 180q-2 -13 -2 -26.5t7.5 -24.5t37.5 -11q58 0 105 42l58 371h164l-84 -531h-135l-20 54
q-42 -33 -77.5 -48t-87 -15t-81 15t-41.5 41q-14 32 -14 68.5t6 68.5l56 347h164z" />
    <glyph glyph-name="Umacron" unicode="&#x16a;" horiz-adv-x="653" 
d="M313 797l13 85h292l-13 -85h-292zM266 316q-7 -46 -7 -80t8 -54q17 -38 88 -38t100 40t43 132l66 416h165l-62 -439q-26 -169 -102 -234q-65 -55 -167 -62q-27 -2 -60.5 -2t-57 2.5t-49.5 8.5t-46 17.5t-38 28.5q-33 31 -48 104q-6 28 -6 51q0 66 11 131l63 394h165z" />
    <glyph glyph-name="umacron" unicode="&#x16b;" horiz-adv-x="551" 
d="M222 598l14 86h292l-14 -86h-292zM226 180q-2 -13 -2 -26.5t7.5 -24.5t37.5 -11q58 0 105 42l58 371h164l-84 -531h-135l-20 54q-42 -33 -77.5 -48t-87 -15t-81 15t-41.5 41q-14 32 -14 68.5t6 68.5l56 347h164z" />
    <glyph glyph-name="Ubreve" unicode="&#x16c;" horiz-adv-x="653" 
d="M424 910q-1 -5 -1 -16.5t11 -24t35 -12.5h1q54 0 60 53h61q-5 -54 -37.5 -83.5t-84 -29.5t-79.5 29t-28 71v13h62zM266 316q-7 -46 -7 -80t8 -54q17 -38 88 -38t100 40t43 132l66 416h165l-62 -439q-26 -169 -102 -234q-65 -55 -167 -62q-27 -2 -60.5 -2t-57 2.5
t-49.5 8.5t-46 17.5t-38 28.5q-33 31 -48 104q-6 28 -6 51q0 66 11 131l63 394h165z" />
    <glyph glyph-name="ubreve" unicode="&#x16d;" horiz-adv-x="551" 
d="M333 711q-1 -5 -1 -16.5t11 -24t35 -12.5h1q54 0 60 53h62q-6 -54 -38.5 -83.5t-83.5 -29.5t-79.5 29t-28.5 71v13h62zM226 180q-2 -13 -2 -26.5t7.5 -24.5t37.5 -11q58 0 105 42l58 371h164l-84 -531h-135l-20 54q-42 -33 -77.5 -48t-87 -15t-81 15t-41.5 41
q-14 32 -14 68.5t6 68.5l56 347h164z" />
    <glyph glyph-name="Uring" unicode="&#x16e;" horiz-adv-x="653" 
d="M482.5 998q42.5 0 68 -27.5t25.5 -63.5q0 -48 -33 -79t-75 -31t-69 27.5t-27 63.5q0 48 34 79t76.5 31zM471.5 859q16.5 0 28.5 11t13 23.5t-1.5 19.5t-6.5 12q-10 12 -26.5 12t-29 -11.5t-14 -28t9 -27.5t27 -11zM266 316q-7 -46 -7 -80t8 -54q17 -38 88 -38t100 40
t43 132l66 416h165l-62 -439q-26 -169 -102 -234q-65 -55 -167 -62q-27 -2 -60.5 -2t-57 2.5t-49.5 8.5t-46 17.5t-38 28.5q-33 31 -48 104q-6 28 -6 51q0 66 11 131l63 394h165z" />
    <glyph glyph-name="uring" unicode="&#x16f;" horiz-adv-x="551" 
d="M391 800q42 0 68 -27.5t26 -63.5q0 -49 -33 -80t-75.5 -31t-69 27.5t-26.5 63.5q0 49 34 80t76 31zM352.5 671.5q10.5 -11.5 24.5 -11.5t23 5q19 11 21 30.5t-8 31t-26.5 11.5t-28.5 -11.5t-14 -27.5t8.5 -27.5zM226 180q-2 -13 -2 -26.5t7.5 -24.5t37.5 -11q58 0 105 42
l58 371h164l-84 -531h-135l-20 54q-42 -33 -77.5 -48t-87 -15t-81 15t-41.5 41q-14 32 -14 68.5t6 68.5l56 347h164z" />
    <glyph glyph-name="Uhungarumlaut" unicode="&#x170;" horiz-adv-x="653" 
d="M327 797l107 141h133l-141 -141h-99zM491 797l107 141h132l-140 -141h-99zM266 316q-7 -46 -7 -80t8 -54q17 -38 88 -38t100 40t43 132l66 416h165l-62 -439q-26 -169 -102 -234q-65 -55 -167 -62q-27 -2 -60.5 -2t-57 2.5t-49.5 8.5t-46 17.5t-38 28.5q-33 31 -48 104
q-6 28 -6 51q0 66 11 131l63 394h165z" />
    <glyph glyph-name="uhungarumlaut" unicode="&#x171;" horiz-adv-x="551" 
d="M237 598l107 141h132l-140 -141h-99zM400 598l107 141h133l-141 -141h-99zM226 180q-2 -13 -2 -26.5t7.5 -24.5t37.5 -11q58 0 105 42l58 371h164l-84 -531h-135l-20 54q-42 -33 -77.5 -48t-87 -15t-81 15t-41.5 41q-14 32 -14 68.5t6 68.5l56 347h164z" />
    <glyph glyph-name="Uogonek" unicode="&#x172;" horiz-adv-x="653" 
d="M318 -68q0 -5 2 -11q8 -30 47 -26l-13 -83q-15 -4 -30 -4t-37.5 7.5t-37.5 29.5q-19 27 -19 53.5t19.5 54t62.5 48.5h61q-55 -36 -55 -69zM266 316q-7 -46 -7 -80t8 -54q17 -38 88 -38t100 40t43 132l66 416h165l-62 -439q-26 -169 -102 -234q-65 -55 -167 -62
q-27 -2 -60.5 -2t-57 2.5t-49.5 8.5t-46 17.5t-38 28.5q-33 31 -48 104q-6 28 -6 51q0 66 11 131l63 394h165z" />
    <glyph glyph-name="uogonek" unicode="&#x173;" horiz-adv-x="561" 
d="M420 -70q0 -6 1 -11q8 -31 47 -27l-13 -82q-15 -4 -30 -4t-37 7t-38 29q-19 28 -19 54t19.5 53.5t62.5 48.5h61q-54 -35 -54 -68zM226 180q-2 -13 -2 -26.5t7.5 -24.5t37.5 -11q58 0 105 42l58 371h164l-84 -531h-135l-20 54q-42 -33 -77.5 -48t-87 -15t-81 15t-41.5 41
q-14 32 -14 68.5t6 68.5l56 347h164z" />
    <glyph glyph-name="Wcircumflex" unicode="&#x174;" horiz-adv-x="1013" 
d="M440 797l126 137h116l73 -137h-100l-37 59l-66 -59h-112zM135 732h172l60 -516l209 516h174l-81 -184l48 -333l213 517h173l-317 -732h-188l-42 274l-118 -274h-200z" />
    <glyph glyph-name="wcircumflex" unicode="&#x175;" horiz-adv-x="839" 
d="M339 596l126 138h116l72 -138h-99l-38 59l-66 -59h-111zM586 532q3 -18 3 -50.5t-20 -83.5l-11 -28l34 -188l107 227q29 59 34 123h153q4 -18 4 -37q0 -66 -40 -141l-185 -354h-185l-31 176l-81 -176h-196l-92 531h173l40 -350l105 227q29 59 34 124h154z" />
    <glyph glyph-name="Ycircumflex" unicode="&#x176;" horiz-adv-x="666" 
d="M298 797l126 137h116l72 -137h-99l-38 59l-66 -59h-111zM135 732h178l68 -338l188 338h186l-318 -517l-35 -215h-164l35 215z" />
    <glyph glyph-name="ycircumflex" unicode="&#x177;" horiz-adv-x="568" 
d="M196 596l126 138h116l73 -138h-100l-37 59l-66 -59h-112zM614 491q0 -63 -33 -139l-153 -352q-66 -151 -159 -221q-54 -40 -92 -53q-46 -14 -87 -21v115q64 32 103.5 75.5t70.5 104.5q-137 0 -150 144l-34 387h170l22 -356q3 -36 45 -39l113 273q19 48 26 123h154
q4 -20 4 -41z" />
    <glyph glyph-name="Ydieresis" unicode="&#x178;" horiz-adv-x="666" 
d="M337 919q26 0 39.5 -16t13.5 -28q0 -38 -23.5 -58.5t-44.5 -20.5q-40 0 -53 31q-5 10 -5 18q0 34 23.5 54t49.5 20zM592 919q26 0 39.5 -16t13.5 -28q0 -38 -23.5 -58.5t-44.5 -20.5q-40 0 -53 31q-5 10 -5 18q0 34 23.5 54t49.5 20zM124 732h178l68 -338l188 338h186
l-318 -517l-34 -215h-164l34 215z" />
    <glyph glyph-name="Zacute" unicode="&#x179;" horiz-adv-x="555" 
d="M380 796l107 140h133l-141 -140h-99zM50 0l24 149l378 434h-310l24 149h508l-24 -149l-364 -434h296l-24 -149h-508z" />
    <glyph glyph-name="zacute" unicode="&#x17a;" horiz-adv-x="480" 
d="M297 597l107 141h133l-141 -141h-99zM47 1l20 133l261 263h-232l20 134h441l-21 -134l-247 -262h205l-21 -134h-426z" />
    <glyph glyph-name="Zdotaccent" unicode="&#x17b;" horiz-adv-x="555" 
d="M386 929h80q22 0 19 -25l-14 -84q-3 -23 -26 -23h-80q-10 0 -16 6.5t-5 16.5l14 84q3 25 28 25zM24 0l24 149l378 434h-310l24 149h508l-24 -149l-364 -434h296l-24 -149h-508z" />
    <glyph glyph-name="zdotaccent" unicode="&#x17c;" horiz-adv-x="480" 
d="M317 730h80q23 0 19 -25l-13 -84q-3 -23 -26 -23h-80q-11 0 -17 6.5t-4 16.5l13 84q3 25 28 25zM35 1l21 133l260 263h-232l20 134h441l-20 -134l-248 -262h205l-21 -134h-426z" />
    <glyph glyph-name="Zcaron" unicode="&#x17d;" horiz-adv-x="555" 
d="M269 934h99l41 -58l63 58h111l-126 -137h-112zM24 0l24 149l378 434h-310l24 149h508l-24 -149l-364 -434h296l-24 -149h-508z" />
    <glyph glyph-name="zcaron" unicode="&#x17e;" horiz-adv-x="480" 
d="M200 736h100l40 -59l63 59h112l-126 -138h-113zM35 1l21 133l260 263h-232l20 134h441l-20 -134l-248 -262h205l-21 -134h-426z" />
    <glyph glyph-name="florin" unicode="&#x192;" horiz-adv-x="556" 
d="M68 -78q67 0 104 119q6 18 13 47l76 279h-81l34 119h82l4 20q78 284 228 294q20 0 27.5 0.5t14 0.5t20 -2.5t22.5 -4t19.5 -5.5t15 -5.5t11.5 -5t8 -3.5l-30 -101h-50q-56 0 -88 -71q-15 -35 -33 -97l-5 -20h107l-35 -119h-106l-76 -279q-56 -204 -152 -265
q-44 -28 -106 -28q-30 0 -61.5 7.5t-45.5 18.5l31 101h52z" />
    <glyph glyph-name="circumflex" unicode="&#x2c6;" horiz-adv-x="311" 
d="M44 531l126 137h116l73 -137h-100l-37 59l-66 -59h-112z" />
    <glyph glyph-name="caron" unicode="&#x2c7;" horiz-adv-x="374" 
d="M16 668h100l40 -58l63 58h112l-126 -137h-113z" />
    <glyph glyph-name="breve" unicode="&#x2d8;" horiz-adv-x="247" 
d="M117 644q-1 -5 -1 -16t11 -23.5t35 -12.5h1q54 0 60 52h61q-5 -53 -37.5 -82.5t-83.5 -29.5t-79.5 28.5t-28.5 70.5v13h62z" />
    <glyph glyph-name="dotaccent" unicode="&#x2d9;" horiz-adv-x="147" 
d="M219 650q19 0 19 -20v-5l-14 -84q-3 -23 -26 -23h-80q-10 0 -16 6.5t-5 16.5l14 84q3 25 28 25h80z" />
    <glyph glyph-name="ring" unicode="&#x2da;" horiz-adv-x="268" 
d="M236 733q42 0 68 -27.5t26 -63.5q0 -49 -33 -79.5t-75.5 -30.5t-69 27t-26.5 63q0 49 34 80t76 31zM232 671q-16 0 -29.5 -12t-13.5 -25.5t4 -21.5q9 -18 28.5 -18t31.5 11q14 12 14 28.5t-9.5 27t-25.5 10.5z" />
    <glyph glyph-name="ogonek" unicode="&#x2db;" horiz-adv-x="207" 
d="M222 -69q0 -5 2 -11q8 -30 46 -26l-12 -82q-15 -5 -30 -5t-37.5 7.5t-37.5 29.5q-20 27 -20 53.5t19.5 54t62.5 48.5h62q-55 -36 -55 -69z" />
    <glyph glyph-name="tilde" unicode="&#x2dc;" horiz-adv-x="413" 
d="M351 628h14.5t40 11.5t45.5 27.5l14 -66q-68 -70 -124 -70q-24 0 -57 17.5t-56 17.5q-39 0 -95 -35l-15 61q69 71 133 71q23 0 52.5 -17.5t47.5 -17.5z" />
    <glyph glyph-name="hungarumlaut" unicode="&#x2dd;" horiz-adv-x="469" 
d="M139 531l107 141h132l-140 -141h-99zM302 531l108 141h132l-140 -141h-100z" />
    <glyph glyph-name="uni0338" unicode="&#x338;" horiz-adv-x="623" 
d="M350 732h164q50 0 84 -17.5t48 -45.5q22 -43 22 -93q0 -21 -5 -44l-55 -362q-26 -170 -210 -170h-164q-90 0 -131 54q-32 41 -32 102q0 21 4 44l53 355q29 177 222 177zM448 583h-84q-62 0 -72 -65l-34 -213q-6 -39 -6 -44l221 317q-10 5 -25 5zM301 149h73q21 0 36 5
q31 11 39 60l36 226q4 26 4 33.5t-1 9.5l-226 -326q12 -8 39 -8z" />
    <glyph glyph-name="Omega" unicode="&#x3a9;" horiz-adv-x="757" 
d="M259 289q0 -76 64 -143l-24 -146h-250l22 136l105 10q-36 27 -55 75q-20 51 -20 103.5t7.5 101.5t23 91.5t46 84.5t71.5 71q91 66 240 66q142 0 213 -70q71 -72 75 -172v-37t-5 -70q-14 -86 -44.5 -141t-88.5 -105l97 -10l-21 -134h-258l23 146q80 58 106 146
q26 81 26 150q0 101 -71 135q-28 13 -69 13t-75 -13.5t-55.5 -34.5t-37.5 -50q-27 -48 -36 -107t-9 -96z" />
    <glyph glyph-name="pi" unicode="&#x3c0;" horiz-adv-x="646" 
d="M540 196q-3 -16 -3 -33t11 -29t50 -12h55l-15 -96q-51 -31 -128 -31t-114 49q-26 34 -26 92q0 24 4 52l31 194h-97l-60 -382h-164l60 382h-71l24 149h573l-24 -149h-77z" />
    <glyph glyph-name="uni1E02" unicode="&#x1e02;" horiz-adv-x="600" 
d="M398 929h80q23 0 19 -25l-13 -84q-3 -23 -26 -23h-80q-11 0 -17 6.5t-4 16.5l13 84q4 25 28 25zM472 732q55 0 95 -17.5t59 -46.5q31 -47 31 -106q0 -21 -4 -43q-8 -55 -43 -94t-85 -45q48 -8 75 -59q20 -37 20 -87q0 -64 -19.5 -111t-39.5 -69t-52 -34q-53 -20 -150 -20
h-305l116 732h302zM456 252q0 64 -54 64h-134l-28 -174h134q67 0 80 85q2 13 2 25zM416 450q41 0 61 33q14 23 14 56q0 51 -53 51h-126l-22 -140h126z" />
    <glyph glyph-name="uni1E03" unicode="&#x1e03;" horiz-adv-x="557" 
d="M227 979h80q23 0 19 -25l-13 -84q-3 -23 -26 -23h-80q-11 0 -17 6.5t-4 16.5l13 84q4 25 28 25zM560 233q-22 -132 -70 -185.5t-135.5 -53.5t-148.5 58l-35 -52h-138l124 785h163l-43 -279q72 33 151 33q122 0 139 -125q4 -28 4 -49q0 -57 -11 -132zM316 130
q32 0 50 29.5t28 97.5t10 93.5t-3 36.5q-7 29 -40 29q-63 0 -100 -18l-39 -240q28 -28 94 -28z" />
    <glyph glyph-name="uni1E0A" unicode="&#x1e0a;" horiz-adv-x="651" 
d="M400 918h80q23 0 19 -25l-14 -84q-3 -23 -26 -23h-80q-10 0 -16 6t-5 17l14 84q3 25 28 25zM475 732q60 0 102.5 -22t65.5 -58q41 -67 41 -182q0 -56 -11 -130q-38 -249 -154 -310q-58 -30 -147 -30h-318l116 732h305zM368 142q58 0 91 55t51 167q11 82 11 121.5
t-11.5 63t-30 32.5t-47.5 9h-121l-71 -448h128z" />
    <glyph glyph-name="uni1E0B" unicode="&#x1e0b;" horiz-adv-x="549" 
d="M630 977q20 0 20 -20q0 -2 -1 -5l-13 -84q-3 -23 -26 -23h-80q-11 0 -17 6.5t-4 16.5l13 84q4 25 28 25h80zM199.5 522.5q38.5 16.5 105 16.5t129.5 -33l44 279h164l-125 -785h-137l-20 52q-78 -58 -152 -58q-90 0 -124 84q-19 51 -19 106.5t10 112t24 98t38 76.5
t62.5 51.5zM262 364q-13 -33 -21 -87.5t-8 -80.5t4 -38q8 -28 39 -28q65 0 102 28l38 240q-31 18 -95 18q-20 0 -33 -9.5t-26 -42.5z" />
    <glyph glyph-name="uni1E1E" unicode="&#x1e1e;" horiz-adv-x="559" 
d="M406 929h80q22 0 19 -25l-14 -84q-3 -23 -26 -23h-80q-10 0 -16 6.5t-5 16.5l14 84q3 25 28 25zM271 724q30 8 47 8h19q220 -4 307 -16l-22 -137h-264q-37 0 -48 -18q-10 -14 -13 -38l-13 -83l267 -10l-21 -136l-271 -9l-45 -285h-164l89 564q21 131 132 160z" />
    <glyph glyph-name="uni1E1F" unicode="&#x1e1f;" horiz-adv-x="405" 
d="M366 978h80q22 0 19 -25l-14 -84q-3 -23 -26 -23h-80q-10 0 -16 6t-5 17l14 84q3 25 28 25zM251 747.5q47 38.5 131.5 38.5t130.5 -24l-15 -96l-83 1q-37 1 -47 -15l-7.5 -12t-5.5 -19q-4 -19 -9 -52l-6 -38h114l-18 -119h-115l-67 -412h-164l66 412h-78l16 102l82 17
l13 83q15 95 62 133.5z" />
    <glyph glyph-name="uni1E40" unicode="&#x1e40;" horiz-adv-x="837" 
d="M543 929h80q23 0 19 -25l-14 -84q-3 -23 -26 -23h-80q-10 0 -16 6.5t-5 16.5l14 84q3 25 28 25zM41 0l187 732h226l23 -460l167 460h231l-43 -732h-161l28 449l-166 -449h-189l-26 449l-112 -449h-165z" />
    <glyph glyph-name="uni1E41" unicode="&#x1e41;" horiz-adv-x="867" 
d="M501 731h80q23 0 19 -25l-13 -84q-3 -23 -26 -23h-80q-11 0 -17 6.5t-4 16.5l13 84q4 25 28 25zM447 539q97 0 122 -67q32 20 56 32.5t62.5 23.5t80 11t71 -14.5t41.5 -40.5q15 -33 15 -70t-5 -68l-56 -346h-164l56 350q2 11 2 20q0 43 -39 43q-70 0 -111 -37
q-1 -2 -3 -14t-2 -16l-55 -346h-164l55 350q2 11 2 20q0 43 -39 43q-46 0 -69 -13.5t-40 -28.5l-59 -371h-164l84 531h135l21 -55q3 2 16.5 11.5t25.5 17t33 17.5q37 17 92 17z" />
    <glyph glyph-name="uni1E56" unicode="&#x1e56;" horiz-adv-x="598" 
d="M397 929h80q23 0 19 -25l-13 -84q-3 -23 -26 -23h-80q-11 0 -17 6.5t-4 16.5l13 84q4 25 28 25zM474 732q63 0 112 -32q51 -32 67 -118q3 -19 3 -44t-7 -70t-23.5 -86.5t-37 -64t-45 -37t-48.5 -17.5q-46 -5 -64 -5t-39 2t-74.5 9.5t-57.5 10.5l-44 -280h-164l116 732
h306zM406 402q32 0 51.5 22.5t27.5 74.5q3 16 3 30q0 61 -52 61h-127l-30 -188h127z" />
    <glyph glyph-name="uni1E57" unicode="&#x1e57;" horiz-adv-x="556" 
d="M335 736h80q23 0 19 -25l-14 -84q-3 -23 -26 -23h-80q-10 0 -16 6.5t-4 16.5l13 84q3 25 28 25zM409 536q99 0 139 -78q26 -51 26 -128q0 -40 -8 -88q-20 -135 -74.5 -193.5t-164.5 -58.5q-80 0 -117 39l-48 -299h-164l125 776q46 14 127.5 22t158.5 8zM410 348
q0 69 -55 69h-82l-47 -283q26 -20 66 -20h17q40 2 59.5 34t30.5 100t11 100z" />
    <glyph glyph-name="uni1E60" unicode="&#x1e60;" horiz-adv-x="582" 
d="M394 933h80q22 0 19 -25l-14 -84q-3 -23 -26 -23h-80q-10 0 -16 6.5t-5 16.5l14 84q3 25 28 25zM335 141q36 0 58 11.5t27 41.5l4 29q3 18 1 31q-4 27 -52 27h-87q-104 0 -146 64q-27 42 -27 105q0 16 3 36l10 80q18 120 108 153q51 19 181.5 19t222.5 -31l-20 -128
q-111 10 -241 10q-43 0 -62.5 -10t-25.5 -49l-4 -25q-2 -11 -2 -25.5t11 -24.5t52 -10h91q41 0 72 -13.5t47 -34.5q35 -48 35 -100q0 -23 -2 -54l-4 -65q-7 -106 -71 -148q-38 -25 -75 -31q-47 -7 -123 -7t-133.5 6t-114.5 26l20 128q96 -11 247 -11z" />
    <glyph glyph-name="uni1E61" unicode="&#x1e61;" horiz-adv-x="509" 
d="M308 729h80q23 0 19 -25l-13 -84q-3 -23 -26 -23h-80q-11 0 -17 6.5t-4 16.5l13 84q3 25 28 25zM310 126q28 0 33 26l3 17q3 19 -5 23t-20 4h-108q-98 0 -126 75q-9 24 -9 46.5t2 40.5l8 47q11 65 49 98.5t115.5 33.5t122 -1t95.5 -8.5t66 -21.5l-16 -100h-232
q-19 0 -27 -6.5t-11 -21.5l-2 -17q-3 -14 -0.5 -17t3.5 -4.5t3.5 -2.5t3.5 -1.5t4.5 -0.5h4.5h5h4h113q74 0 105 -46q22 -33 22 -77q0 -16 -2 -32l-10 -60q-12 -79 -60 -105q-40 -21 -89.5 -21h-78t-71.5 2t-69 5q-66 8 -83 25l15 100h242z" />
    <glyph glyph-name="uni1E6A" unicode="&#x1e6a;" horiz-adv-x="592" 
d="M408 929h80q22 0 19 -25l-14 -84q-3 -23 -26 -23h-80q-10 0 -16 6.5t-5 16.5l14 84q3 25 28 25zM116 583l24 149h553l-24 -149h-198l-92 -583h-164l92 583h-191z" />
    <glyph glyph-name="uni1E6B" unicode="&#x1e6b;" horiz-adv-x="375" 
d="M288 872h80q23 0 19 -25l-13 -84q-3 -23 -26 -23h-80q-11 0 -17 6.5t-4 16.5l13 84q3 25 28 25zM285 220q-5 -25 -5 -38.5t2.5 -27.5t8.5 -21.5t37 -21t36 -13.5l-15 -99h-107q-69 0 -105 47q-25 32 -25 90q0 25 5 54l35 223h-81l13 86l87 33l49 148h138l-23 -148h105
l-18 -119h-106z" />
    <glyph glyph-name="Wgrave" unicode="&#x1e80;" horiz-adv-x="1013" 
d="M481 938h131l67 -141h-99zM135 732h172l60 -516l209 516h174l-81 -184l48 -333l213 517h173l-317 -732h-188l-42 274l-118 -274h-200z" />
    <glyph glyph-name="wgrave" unicode="&#x1e81;" horiz-adv-x="839" 
d="M360 736h130l67 -140h-99zM586 532q3 -18 3 -50.5t-20 -83.5l-11 -28l34 -188l107 227q29 59 34 123h153q4 -18 4 -37q0 -66 -40 -141l-185 -354h-185l-31 176l-81 -176h-196l-92 531h173l40 -350l105 227q29 59 34 124h154z" />
    <glyph glyph-name="Wacute" unicode="&#x1e82;" horiz-adv-x="1013" 
d="M580 797l107 141h132l-140 -141h-99zM135 732h172l60 -516l209 516h174l-81 -184l48 -333l213 517h173l-317 -732h-188l-42 274l-118 -274h-200z" />
    <glyph glyph-name="wacute" unicode="&#x1e83;" horiz-adv-x="839" 
d="M466 592l107 141h132l-140 -141h-99zM586 532q3 -18 3 -50.5t-20 -83.5l-11 -28l34 -188l107 227q29 59 34 123h153q4 -18 4 -37q0 -66 -40 -141l-185 -354h-185l-31 176l-81 -176h-196l-92 531h173l40 -350l105 227q29 59 34 124h154z" />
    <glyph glyph-name="Wdieresis" unicode="&#x1e84;" horiz-adv-x="1013" 
d="M529.5 920q25.5 0 39 -15.5t13.5 -27.5q0 -39 -23.5 -59.5t-49 -20.5t-39 16.5t-13.5 28.5q0 38 23.5 58t49 20zM784.5 920q25.5 0 39 -15.5t13.5 -27.5q0 -39 -23.5 -59.5t-44.5 -20.5q-40 0 -53 31q-4 10 -4 18q0 34 23.5 54t49 20zM135 732h172l60 -516l209 516h174
l-81 -184l48 -333l213 517h173l-317 -732h-188l-42 274l-118 -274h-200z" />
    <glyph glyph-name="wdieresis" unicode="&#x1e85;" horiz-adv-x="839" 
d="M404 720q26 0 39.5 -16t13.5 -28q0 -39 -23.5 -59.5t-49 -20.5t-39.5 16.5t-14 28.5q0 38 23.5 58.5t49.5 20.5zM659 720q26 0 39.5 -16t13.5 -28q0 -39 -23.5 -59.5t-49 -20.5t-39.5 16.5t-14 28.5q0 38 23.5 58.5t49.5 20.5zM586 532q3 -18 3 -50.5t-20 -83.5l-11 -28
l34 -188l107 227q29 59 34 123h153q4 -18 4 -37q0 -66 -40 -141l-185 -354h-185l-31 176l-81 -176h-196l-92 531h173l40 -350l105 227q29 59 34 124h154z" />
    <glyph glyph-name="Ygrave" unicode="&#x1ef2;" horiz-adv-x="666" 
d="M307 938h131l67 -141h-99zM135 732h178l68 -338l188 338h186l-318 -517l-35 -215h-164l35 215z" />
    <glyph glyph-name="ygrave" unicode="&#x1ef3;" horiz-adv-x="568" 
d="M217 736h131l67 -140h-99zM614 491q0 -63 -33 -139l-153 -352q-66 -151 -159 -221q-54 -40 -92 -53q-46 -14 -87 -21v115q64 32 103.5 75.5t70.5 104.5q-137 0 -150 144l-34 387h170l22 -356q3 -36 45 -39l113 273q19 48 26 123h154q4 -20 4 -41z" />
    <glyph glyph-name="endash" unicode="&#x2013;" horiz-adv-x="452" 
d="M59 220l22 135h473l-22 -135h-473z" />
    <glyph glyph-name="emdash" unicode="&#x2014;" horiz-adv-x="736" 
d="M62 222l22 135h696l-22 -135h-696z" />
    <glyph glyph-name="quoteleft" unicode="&#x2018;" horiz-adv-x="254" 
d="M220 731q22 7 37.5 8.5t24.5 1.5t17 -1l14 -2l-10 -63q-31 0 -37 -32l-3 -18h11q12 0 18 -6.5t4 -19.5l-16 -100q-4 -28 -30 -28h-98q-20 0 -20 20q0 4 1 8l22 145q6 35 24.5 57.5t40.5 29.5z" />
    <glyph glyph-name="quoteright" unicode="&#x2019;" horiz-adv-x="254" 
d="M172 587q-11 0 -17 6.5t-4 19.5l16 100q4 28 29 28h98q21 0 21 -20q0 -4 -1 -8l-23 -145q-6 -34 -24 -57t-40 -30q-32 -10 -52 -10t-27 1l-14 2l10 64q14 -1 22.5 5.5t10.5 12t3 13.5l4 18h-12z" />
    <glyph glyph-name="quotesinglbase" unicode="&#x201a;" horiz-adv-x="254" 
d="M79 0q-11 0 -17 6.5t-4 19.5l16 100q4 28 30 28h97q21 0 21 -21q0 -3 -1 -7l-23 -145q-6 -35 -24 -57.5t-40 -29.5q-32 -11 -52 -11t-27 2l-14 2l9 63q15 0 23.5 6.5t10.5 11.5t3 14l3 18h-11z" />
    <glyph glyph-name="quotedblleft" unicode="&#x201c;" horiz-adv-x="427" 
d="M215 729.5q22 7.5 37.5 9t24.5 1.5t16 -2l15 -2l-10 -63q-31 1 -37 -31l-3 -19h12q11 0 17 -6.5t4 -18.5l-15 -100q-5 -28 -31 -28h-97q-21 0 -21 20q0 3 1 8l22 144q6 35 24.5 57.5t40.5 30zM398 729.5q22 7.5 37.5 9t24.5 1.5t17 -2l14 -2l-10 -63q-31 1 -37 -31
l-2 -19h11q11 0 17.5 -6.5t3.5 -18.5l-15 -100q-5 -28 -31 -28h-97q-20 0 -20 20v8l23 144q5 35 23.5 57.5t40.5 30z" />
    <glyph glyph-name="quotedblright" unicode="&#x201d;" horiz-adv-x="427" 
d="M167 586q-11 0 -17 6.5t-4 19.5l16 100q4 28 30 28h97q21 0 21 -21q0 -3 -1 -7l-23 -145q-6 -35 -24 -57.5t-40 -29.5q-32 -11 -52 -11t-27 2l-14 2l9 63q15 0 23.5 6.5t10.5 11.5t3 14l3 18h-11zM350 586q-11 0 -17 6.5t-4 19.5l16 100q5 28 30 28h97q21 0 21 -21
q0 -3 -1 -7l-23 -145q-6 -35 -24 -57.5t-40 -29.5q-30 -11 -50.5 -11t-28.5 1l-14 3l10 63q14 0 22.5 6.5t10.5 11.5t3 14l4 18h-12z" />
    <glyph glyph-name="quotedblbase" unicode="&#x201e;" horiz-adv-x="426" 
d="M74 0q-11 0 -17 6.5t-4 19.5l16 100q4 28 29 28h98q21 0 21 -21q0 -3 -1 -7l-23 -145q-6 -35 -24 -57.5t-40 -29.5q-32 -10 -52 -10t-27 1l-14 2l10 63q14 0 22.5 6.5t10.5 12t3 13.5l4 18h-12zM258 0q-12 0 -18 6.5t-4 19.5l16 100q4 28 30 28h97q21 0 21 -21v-7
l-24 -145q-6 -35 -24 -57.5t-40 -29.5q-32 -10 -51.5 -10t-27.5 1l-14 2l10 63q14 0 22.5 6.5t10.5 12t4 13.5l3 18h-11z" />
    <glyph glyph-name="dagger" unicode="&#x2020;" horiz-adv-x="539" 
d="M101 440l20 127l135 13l42 190h146l-19 -190l130 -13l-20 -127l-134 -14l-92 -498h-146l69 498z" />
    <glyph glyph-name="daggerdbl" unicode="&#x2021;" horiz-adv-x="509" 
d="M83 136l20 127l138 17l21 146l-131 14l20 127l135 13l42 190h145l-17 -190l129 -13l-20 -127l-135 -14l-26 -147l133 -16l-20 -127l-143 -15l-35 -193h-145l26 192z" />
    <glyph glyph-name="bullet" unicode="&#x2022;" horiz-adv-x="307" 
d="M134 283q-28 0 -28 25q0 3 1 7l20 132q5 35 39 35h126q30 0 30 -27v-8l-21 -132q-5 -32 -41 -32h-126z" />
    <glyph glyph-name="ellipsis" unicode="&#x2026;" horiz-adv-x="790" 
d="M173 150h98q22 0 22 -18q0 -3 -1 -7l-16 -102q-4 -23 -28 -23h-98q-11 0 -17 6.5t-4 16.5l16 102q4 25 28 25zM445 150h98q22 0 22 -18q0 -3 -1 -7l-16 -102q-4 -23 -28 -23h-98q-11 0 -17 6.5t-4 16.5l16 102q4 25 28 25zM717 150h98q22 0 22 -18q0 -3 -1 -7l-16 -102
q-4 -23 -28 -23h-98q-11 0 -17 6.5t-4 16.5l16 102q4 25 28 25z" />
    <glyph glyph-name="perthousand" unicode="&#x2030;" horiz-adv-x="1336" 
d="M248 732h102q68 0 96 -38q20 -28 20 -71q0 -16 -3 -35l-19 -118q-6 -44 -24 -70q-34 -51 -132 -51h-102q-67 0 -95 39q-21 29 -21 72q0 15 2 33l19 118q10 64 45.5 92.5t111.5 28.5zM186 504q-1 -8 -1 -17.5t5.5 -18.5t31.5 -9h64q27 0 38 10.5t14 34.5l12 73q3 29 -3 35
q-10 10 -34 10h-63q-32 0 -43 -17q-7 -10 -9 -28zM168 0l566 732h111l-561 -732h-116zM732 385h101q69 0 97 -38q20 -28 20 -71q0 -16 -3 -34l-19 -118q-7 -45 -24 -71q-34 -51 -133 -51h-102q-67 0 -95 39q-20 29 -20 72q0 15 2 33l19 118q10 65 45 93t112 28zM670 157
q-1 -8 -1 -17.5t6 -18.5t31 -9h63q28 0 39 11t14 34l11 73q7 34 -11 42q-8 3 -25 3h-63q-32 0 -41 -13.5t-12 -31.5zM1146 385h101q46 0 74 -18t35 -43t7 -44t-3 -38l-18 -118q-10 -66 -46 -94t-112 -28h-100q-68 0 -96 39q-21 29 -21 72q0 16 3 33l18 118q10 65 45.5 93
t112.5 28zM1084 157q-2 -8 -2 -14t1 -13q3 -18 37 -18h63q28 0 38.5 11t14.5 34l11 73q1 10 1 20.5t-6 17.5t-31 7h-63q-25 0 -37 -9t-16 -36z" />
    <glyph glyph-name="guilsinglleft" unicode="&#x2039;" horiz-adv-x="283" 
d="M13 354l238 203l73 -85l-141 -120l103 -121l-95 -85z" />
    <glyph glyph-name="guilsinglright" unicode="&#x203a;" horiz-adv-x="357" 
d="M90 233l141 121l-101 120l97 83l174 -204l-241 -207z" />
    <glyph glyph-name="fraction" unicode="&#x2044;" horiz-adv-x="354" 
d="M-61 0l482 760h115l-482 -760h-115z" />
    <glyph glyph-name="zerosuperior" unicode="&#x2070;" horiz-adv-x="434" 
d="M242 839h118q69 0 99 -35q23 -27 23 -65q0 -11 -2 -23l-37 -238q-10 -63 -43.5 -93t-94.5 -30h-119q-63 0 -95.5 28.5t-32.5 70.5q0 12 2 24l37 233q20 128 145 128zM190 508q-2 -7 -2 -17q0 -22 38 -22h48q29 0 37.5 11t10.5 27l33 180q1 7 1 15q0 23 -33 23h-56
q-24 0 -33 -9t-12 -29z" />
    <glyph glyph-name="foursuperior" unicode="&#x2074;" horiz-adv-x="470" 
d="M98 500l211 339h133l-168 -277h91l15 96l31 50h98l-23 -146h44l-15 -97l-50 -19l-12 -89h-121l15 88h-227z" />
    <glyph glyph-name="fivesuperior" unicode="&#x2075;" horiz-adv-x="415" 
d="M274 468q27 0 36.5 7t11.5 27l4 25v18q-1 18 -32 18h-49q-32 0 -37 -29h-107l63 305h316l-19 -114h-199l-14 -70q25 17 79 17q12 0 35 -1.5t45.5 -15.5t31.5 -33q14 -32 14 -53.5t-2 -32.5l-11 -74q-11 -110 -149 -110q-72 0 -113.5 2.5t-103.5 14.5l15 99h185z" />
    <glyph glyph-name="sixsuperior" unicode="&#x2076;" horiz-adv-x="408" 
d="M218 644q45 16 119 16t98 -38q19 -28 19 -66q0 -14 -3 -29l-11 -69q-9 -60 -45.5 -81.5t-103.5 -21.5h-87q-66 0 -102 55q-23 37 -23 94t9 119.5t25.5 107t37.5 67t41 32.5q35 16 113.5 16t173.5 -18l-15 -95h-168q-51 0 -66 -40q-6 -18 -12 -49zM329 544q0 16 -28 16
h-97q-3 -25 -3 -45t11 -33t34 -13h38q19 0 28 6.5t11 22.5l5 30q1 10 1 16z" />
    <glyph glyph-name="sevensuperior" unicode="&#x2077;" horiz-adv-x="440" 
d="M106 726l18 114h362l24 -52l-252 -433h-136l216 371h-232z" />
    <glyph glyph-name="eightsuperior" unicode="&#x2078;" horiz-adv-x="431" 
d="M146 630q-3 15 -3 31.5t2 32.5l7 44q11 67 56 88q38 17 98 17h113q60 0 85.5 -28t25.5 -68q0 -13 -3 -28l-5 -32q-5 -28 -25 -45.5t-43 -20.5q22 -5 32.5 -25t10.5 -36.5t-2 -42.5l-8 -53q-13 -84 -70 -101q-28 -8 -76 -8h-113q-60 0 -86.5 22.5t-30 43.5t-3.5 33t3 26
l6 40q9 56 69 66q-32 17 -40 44zM239 492q-1 -5 -1 -11q0 -18 34 -18h53q21 0 29 6.5t10 22.5l5 28q1 4 1 7q0 24 -30 24h-56q-21 0 -29.5 -7t-10.5 -24zM270 684q-1 -5 -1 -10t3 -11q4 -10 28 -10h54q23 0 30.5 7.5t10.5 23.5l3 19q1 5 1 11t-3 12q-5 10 -29 10h-52
q-21 0 -30 -6.5t-12 -26.5z" />
    <glyph glyph-name="ninesuperior" unicode="&#x2079;" horiz-adv-x="443" 
d="M362 552q-44 -15 -124 -15q-36 0 -60.5 12t-34.5 32q-16 31 -16 56t3 40l9 60q9 62 45 86t97 24q3 0 6 -1l94 -1q67 0 100 -60q20 -38 20 -96t-9 -117.5t-21.5 -98.5t-26 -61.5t-32.5 -36.5q-28 -21 -67 -25t-70 -4q-92 0 -175 17l15 96h168q33 0 44 11.5t16 18t9 19.5
q5 19 10 44zM253 661q0 -16 26 -16h97q4 22 4 36.5t-4 26.5q-8 25 -42 25h-38q-19 0 -27 -7t-11 -25l-4 -23q-1 -11 -1 -17z" />
    <glyph glyph-name="zeroinferior" unicode="&#x2080;" horiz-adv-x="457" 
d="M272 283h118q70 0 99 -35q23 -27 23 -65q0 -11 -2 -23l-37 -238q-14 -83 -68 -109q-29 -14 -70 -14h-118q-64 0 -96 28.5t-32 70.5q0 12 2 24l36 233q21 128 145 128zM220 -48q-1 -7 -1 -17q0 -22 37 -22h48q23 0 34 7.5t15 30.5l32 180q1 7 1 15q0 23 -33 23h-56
q-24 0 -32.5 -9t-12.5 -29z" />
    <glyph glyph-name="oneinferior" unicode="&#x2081;" horiz-adv-x="284" 
d="M26 140l13 86q16 0 54.5 19t55.5 39h123l-76 -485h-126l59 360q-24 -19 -103 -19z" />
    <glyph glyph-name="twoinferior" unicode="&#x2082;" horiz-adv-x="442" 
d="M314 127q1 7 1 19q0 30 -70 30h-154q5 38 15 94q106 20 203 20q74 0 108 -48q27 -38 27 -84q0 -94 -99 -184q-32 -29 -75 -61h136l-18 -114h-352l17 109q67 40 131 87q123 89 130 132z" />
    <glyph glyph-name="threeinferior" unicode="&#x2083;" horiz-adv-x="398" 
d="M202 -206h-39q-40 0 -49.5 1t-24 1.5t-21.5 1.5t-19 2.5t-20 3.5q-23 6 -36 11l15 93h154q39 0 54.5 6.5t17.5 27.5q5 23 -2 31q-11 12 -54 14l-116 4l16 101l119 5q36 2 51 8q16 7 19 34q4 20 -10.5 26.5t-48.5 6.5h-162l14 92q62 22 188 22q18 0 36 -1q58 0 85 -33
t27 -73q0 -12 -2 -25l-4 -28q-13 -76 -74 -87q45 -14 45 -80q0 -14 -2 -29l-4 -22q-18 -114 -152 -114h-1z" />
    <glyph glyph-name="fourinferior" unicode="&#x2084;" horiz-adv-x="437" 
d="M-5 -56l211 339h134l-168 -277h90l16 96l30 50h98l-23 -146h45l-16 -97l-50 -19l-12 -89h-120l14 88h-227z" />
    <glyph glyph-name="fiveinferior" unicode="&#x2085;" horiz-adv-x="414" 
d="M202 -88q27 0 36.5 7t11.5 27l4 25q7 36 -32 36h-49q-32 0 -37 -29h-107l63 305h316l-19 -114h-199l-14 -70q25 17 79 17q12 0 35 -1.5t45.5 -15.5t31.5 -33q14 -32 14 -53.5t-2 -32.5l-11 -74q-11 -110 -149 -110q-72 0 -113.5 2.5t-103.5 14.5l15 99h185z" />
    <glyph glyph-name="sixinferior" unicode="&#x2086;" horiz-adv-x="408" 
d="M146 88q45 16 119 16t98 -38q19 -28 19 -66q0 -14 -3 -29l-11 -69q-9 -60 -45.5 -81.5t-103.5 -21.5h-87q-66 0 -102 55q-23 37 -23 94t8 113t21 95.5t26.5 63t32.5 37.5q29 24 67.5 28.5t95.5 4.5t149 -18l-15 -95h-168q-51 0 -66 -40q-6 -18 -12 -49zM174 -87h38
q19 0 28 6.5t11 22.5l5 30q1 7 1 14.5t-4 12.5t-24 5h-97q-3 -25 -3 -45t11 -33t34 -13z" />
    <glyph glyph-name="seveninferior" unicode="&#x2087;" horiz-adv-x="440" 
d="M34 170l18 114h362l24 -52l-252 -433h-136l216 371h-232z" />
    <glyph glyph-name="eightinferior" unicode="&#x2088;" horiz-adv-x="431" 
d="M74 74q-3 15 -3 31.5t2 32.5l7 44q11 67 56 88q38 17 98 17h113q60 0 85.5 -28t25.5 -68q0 -13 -3 -28l-5 -32q-3 -20 -19 -41t-49 -25q22 -5 32.5 -25t10.5 -36.5t-2 -42.5l-8 -53q-10 -64 -43 -87q-32 -22 -103 -22h-113q-70 0 -96 31q-24 28 -24 57q0 4 1 13.5t2 23.5
l6 40q9 56 69 66q-32 17 -40 44zM167 -64q-1 -5 -1 -9.5t2 -9.5q4 -10 32 -10h53q21 0 29 6.5t10 22.5l5 28q1 4 1 7q0 24 -30 24h-56q-21 0 -29.5 -7t-10.5 -24zM197 119q0 -4 0.5 -8.5t5.5 -7.5q8 -6 25 -6h54q23 0 30.5 7.5t10.5 23.5l3 19q1 6 1 14q0 19 -32 19h-52
q-21 0 -30 -6.5t-12 -26.5l-3 -19q-1 -5 -1 -9z" />
    <glyph glyph-name="nineinferior" unicode="&#x2089;" horiz-adv-x="442" 
d="M290 -4q-44 -15 -124 -15q-36 0 -60.5 12t-34.5 32q-16 31 -16 56t3 40l9 60q9 62 45 86t97 24q3 0 6 -1l94 -1q67 0 100 -60q20 -38 20 -96t-9 -117.5t-21.5 -98.5t-26 -61.5t-32.5 -36.5q-28 -21 -67 -25t-70 -4q-94 0 -175 17l15 96h168q33 0 44 11.5t16 18t9 19.5
q5 19 10 44zM308 130q0 47 -46 47h-38q-19 0 -27 -7t-11 -25l-4 -23q-2 -8 -2 -12.5t1 -9.5q2 -11 26 -11h97q4 23 4 41z" />
    <glyph glyph-name="Euro" unicode="&#x20ac;" horiz-adv-x="699" 
d="M451 740q51 0 130.5 -9.5t131.5 -28.5l-19 -118q-139 14 -193.5 14t-75 -3t-35 -7t-25.5 -13.5t-17 -17t-11 -23.5q-6 -21 -13 -56l234 -8l-13 -76l-235 -6l-8 -56l232 -8l-12 -76q-139 -3 -202 -6l-33 -2q-1 -19 -2.5 -34.5t3.5 -27t9.5 -19.5t14.5 -14t18 -9t21 -5
q21 -3 55 -3q72 0 186 18l38 6l-19 -116q-54 -24 -119.5 -33t-119.5 -9t-68 1t-33 4t-34.5 8.5t-34.5 15t-31.5 22.5t-25.5 31q-20 27 -27 97v24t5 43l-72 8l13 76l74 8l8 56l-71 8l11 72l74 10q13 82 43 133q33 59 86 90q66 39 162 39z" />
    <glyph glyph-name="afii61289" unicode="&#x2113;" horiz-adv-x="488" 
d="M392 739q73 0 116 -49q32 -36 32 -95q0 -128 -137 -244q-55 -47 -121 -87l-4 -29q-3 -28 -3 -40.5v-17.5q2 -50 86 -65q57 -12 62 -12l-16 -99h-150q-80 0 -122 42q-33 33 -33 94q0 20 4 43l2 18q-12 -8 -37 -20l-11 78q24 18 65 56l43 260q12 82 69.5 124.5t154.5 42.5z
M402 584q0 17 -19 25q-8 4 -18.5 4t-19 -12t-10.5 -25l-27 -150q83 85 92 146q2 7 2 12z" />
    <glyph glyph-name="afii61352" unicode="&#x2116;" horiz-adv-x="1122" 
d="M190 693q54 49 140 49q85 0 128 -44q33 -34 32 -83l26 -457q0 -10 6 -12t12.5 2.5t7.5 11.5q57 362 64 406q14 87 66 127t128 41h272q75 0 101 -41q16 -25 16 -63.5t-7 -82.5t-16 -72.5t-27 -51t-46.5 -32t-74.5 -10.5h-36q-94 3 -121 37q-25 33 -25 77.5t7 89.5h122
q-6 -41 -6 -56.5t2 -20.5q5 -12 28 -12h24q24 0 33 9t14 37.5t5 38t-2 19t-10 12.5q-11 5 -161 6q-65 0 -91.5 -14t-34.5 -63l-66 -413q-6 -42 -35 -72q-54 -59 -145 -59q-96 0 -140 63q-23 34 -22 80l-25 450q0 12 -13.5 8.5t-15.5 -15.5l-92 -583h-164l95 605q8 52 47 88z
" />
    <glyph glyph-name="trademark" unicode="&#x2122;" horiz-adv-x="625" 
d="M34 646l14 86h289l-14 -86h-93l-41 -263h-102l41 263h-94zM291 383l97 349h105l15 -187l70 187h111l-9 -349h-102l10 178l-55 -178h-91l-7 177l-43 -177h-101z" />
    <glyph glyph-name="estimated" unicode="&#x212e;" horiz-adv-x="680" 
d="M652 258h-488q-3 0 -3 -11v-133q0 -25 56.5 -59t122.5 -34t117.5 23.5t84.5 60.5h56q-58 -61 -114.5 -83t-132.5 -22q-138 0 -219.5 75.5t-81.5 189.5t84 193q84 75 212 75t214 -66.5t92 -208.5zM161 284q0 -9 9 -9h357h7q6 4 6 7v133q0 32 -63 65.5t-120 33.5t-103 -19
t-69.5 -40t-23.5 -34v-137z" />
    <glyph glyph-name="partialdiff" unicode="&#x2202;" horiz-adv-x="628" 
d="M344 465q43 0 79 -13.5t51 -43.5q5 37 5 75q0 108 -95 108q-53 0 -107 -15.5t-90 -35.5l-3 122q65 39 116.5 58.5t111.5 19.5q90 0 147 -51q85 -76 85 -231q0 -48 -8 -101q-29 -179 -109.5 -270.5t-229.5 -91.5q-105 0 -173 69q-54 57 -54 138q0 19 3 40
q18 110 89.5 166.5t181.5 56.5zM444 296q-36 22 -90.5 22t-86.5 -27t-32 -79q0 -30 16 -44q28 -26 61.5 -26t57.5 17.5t39 44.5q27 50 35 92z" />
    <glyph glyph-name="uni2206" unicode="&#x2206;" horiz-adv-x="711" 
d="M13 0l427 732h75l183 -732h-685zM258 142h281l-87 340z" />
    <glyph glyph-name="product" unicode="&#x220f;" horiz-adv-x="653" 
d="M84 0l92 583h-71l24 149h627l-24 -149h-72l-92 -583h-164l92 583h-156l-92 -583h-164z" />
    <glyph glyph-name="summation" unicode="&#x2211;" horiz-adv-x="566" 
d="M-5 -200l24 152l264 318l-164 313l24 149h526l-24 -149h-329l168 -317l-249 -314h310l-24 -152h-526z" />
    <glyph glyph-name="minus" unicode="&#x2212;" horiz-adv-x="453" 
d="M73 289l18 134h416l-18 -134h-416z" />
    <glyph glyph-name="radical" unicode="&#x221a;" horiz-adv-x="670" 
d="M48 224l24 149h174l44 -150l315 577h179l-434 -800h-162l-79 224h-61z" />
    <glyph glyph-name="infinity" unicode="&#x221e;" horiz-adv-x="662" 
d="M98 472q44 42 144 42t154 -92q68 92 192 92q79 0 112 -41q33 -40 33 -91q0 -23 -3 -56q-24 -157 -197 -157q-54 0 -94.5 19.5t-70.5 71.5q-39 -52 -81 -71.5t-95 -19.5t-84.5 16.5t-45.5 43.5q-22 43 -22 91q0 18 4 36q10 74 54 116zM180 387.5q-14 -15.5 -16.5 -35.5
t-2.5 -28t1.5 -17.5t14 -18t38.5 -8.5q44 0 95 61q-12 26 -33 44t-52 18t-45 -15.5zM540 280q62 0 71 61q2 10 2 23t-8 26t-45 13q-51 0 -101 -63q30 -60 81 -60z" />
    <glyph glyph-name="integral" unicode="&#x222b;" horiz-adv-x="443" 
d="M54 -78q35 0 54 27q21 28 28 56q10 40 17 83l66 418q29 181 108 254q44 40 100 40q73 0 114 -20q10 -4 11 -5l-16 -101h-50q-56 0 -81 -71q-12 -36 -22 -97l-66 -418q-23 -143 -71 -217.5t-137.5 -74.5t-123.5 25l17 101h52z" />
    <glyph glyph-name="approxequal" unicode="&#x2248;" horiz-adv-x="501" 
d="M233 334q30 0 71.5 -18t67.5 -18t47 5q28 7 77 33l14 -69q-40 -35 -75.5 -55t-67.5 -20t-76.5 19t-71.5 19t-47 -5.5t-45 -16t-43 -16.5l-9 72q87 70 158 70zM262 517q30 0 71.5 -18.5t72.5 -18.5t54.5 8.5t63.5 30.5l15 -70q-40 -34 -75.5 -54t-68 -20t-76.5 19t-71 19
t-47.5 -6t-45 -16.5t-42.5 -15.5l-9 71q87 71 158 71z" />
    <glyph glyph-name="notequal" unicode="&#x2260;" horiz-adv-x="538" 
d="M115 174l21 136h152l60 80h-198l21 135h275l47 62h76l-47 -62h76l-22 -135h-152l-60 -80h200l-22 -136h-277l-54 -73h-76l54 73h-74z" />
    <glyph glyph-name="lessequal" unicode="&#x2264;" horiz-adv-x="522" 
d="M84 73l18 119h375l-19 -119h-374zM129 361l23 147l395 124l-24 -148l-218 -56l201 -54l-23 -144z" />
    <glyph glyph-name="greaterequal" unicode="&#x2265;" horiz-adv-x="420" 
d="M44 73l19 119h375l-18 -119h-376zM68 230l24 148l222 62l-205 48l23 142l356 -122l-24 -148z" />
    <glyph glyph-name="lozenge" unicode="&#x25ca;" horiz-adv-x="508" 
d="M72 373l264 359h74l144 -359l-260 -373h-74zM223 367l59 -161l126 175l-62 149z" />
    <glyph glyph-name="f_f" unicode="&#xfb00;" horiz-adv-x="802" 
d="M523 752l-15 -96l-77 1q-36 0 -48 -21q-9 -17 -15 -56l-8 -49h213l15 99q17 105 94 139q41 17 110 17t118 -24l-16 -95l-85 1h-1q-40 0 -51 -27q-5 -13 -12 -56l-8 -54h110l-19 -119h-110l-66 -412h-164l66 412h-215l-65 -412h-164l65 412h-97l16 102l102 17l14 89
q8 57 47 103q45 53 129.5 53t136.5 -24z" />
    <glyph glyph-name="f_f_i" unicode="&#xfb03;" horiz-adv-x="1020" 
d="M523 752l-15 -96l-77 1q-35 0 -46 -19q-9 -16 -13.5 -36t-4.5 -22l-9 -49h200l6 35q14 94 85 156q74 64 187 64q53 0 129.5 -5.5t102.5 -18.5l-15 -95l-187 1q-122 0 -139 -110l-5 -27l340 -10l-82 -521h-164l65 412h-178l-65 -412h-164l65 412h-199l-66 -412h-164
l65 412h-97l16 102l102 17l14 89q8 57 47 103q45 53 129.5 53t136.5 -24z" />
    <glyph glyph-name="ffl" unicode="&#xfb04;" horiz-adv-x="1108" 
d="M523 752l-15 -96l-77 1q-26 0 -34.5 -7.5t-12.5 -12.5t-8 -16q-4 -15 -9 -41l-9 -49h204l7 43q19 120 86 168q60 43 156 44l308 -2l-89 -565q-8 -53 -2 -68.5t12 -21t35.5 -18.5t36.5 -13l-16 -98h-103q-136 0 -136 136q0 24 4 53l76 478l-113 1q-42 0 -62.5 -20.5
t-28.5 -73.5l-7 -43h110l-19 -119h-111l-65 -412h-164l65 412h-202l-66 -412h-164l65 412h-97l16 102l102 17l14 89q8 57 47 103q45 53 129.5 53t136.5 -24z" />
    <glyph glyph-name="s_t" unicode="&#xfb06;" horiz-adv-x="888" 
d="M310 125q28 0 33 27l3 16q3 18 -5 22.5t-20 4.5h-108q-71 0 -107 43q-26 32 -26 83q0 17 3 36l5 46q15 128 168 128h431l49 148h138l-23 -148h106l-20 -118h-105l-30 -194q-6 -26 -6 -39t2.5 -27t8.5 -21.5t37 -20.5t36 -13l-16 -99h-109q-69 0 -103 45q-24 32 -24 89
q0 26 4 56l35 215h-379q-33 0 -38 -28l-2 -16q-3 -14 -0.5 -17.5t3.5 -4.5t3.5 -2t3.5 -1.5t4.5 -0.5t4.5 -0.5t5 0l4 0.5h113q50 0 81 -23.5t37.5 -49.5t6.5 -45.5t-3 -37.5l-7 -59q-15 -125 -152 -125q-267 0 -299 32l15 99h242z" />
    <glyph glyph-name="zero.oldstyle" horiz-adv-x="610" 
d="M320 632h164q55 0 93 -15.5t54 -41.5q24 -39 24 -88q0 -19 -4 -39l-43 -264q-15 -91 -62.5 -137.5t-133.5 -46.5h-164q-92 0 -140 48q-37 37 -37 98q0 18 4 38l41 256q16 96 65.5 144t138.5 48zM244 215q-2 -11 -2 -20.5t2.5 -20.5t13.5 -16q16 -9 42 -9h73
q33 0 51.5 13.5t24.5 51.5l33 204q1 10 1 20t-3 21q-7 24 -47 24h-83q-28 0 -39.5 -9t-17 -15.5t-9.5 -14.5q-6 -14 -8 -26z" />
    <glyph glyph-name="one.oldstyle" horiz-adv-x="367" 
d="M72 445l16 106q32 0 98 43q30 19 47 39l163 -1l-92 -632h-162l68 471q-37 -26 -138 -26z" />
    <glyph glyph-name="two.oldstyle" horiz-adv-x="588" 
d="M461 405q2 12 2 26q0 36 -36 47q-22 6 -43.5 6h-23.5h-243l19 122q145 28 301 28q113 0 160 -64q36 -49 36 -119q0 -22 -4 -47q-22 -160 -239 -255h186l-24 -149h-518l23 143q226 101 311.5 160t92.5 102z" />
    <glyph glyph-name="three.oldstyle" horiz-adv-x="584" 
d="M343 -106h-59q-13 0 -19 0.5t-33.5 0.5t-38 1t-33.5 2t-35.5 3.5t-30.5 4.5q-29 5 -60 16l20 122h238q57 0 81 11.5t29 48.5l4 22q5 31 -2 39t-9.5 11.5t-10 5.5t-12 3.5t-15.5 2.5q-14 1 -36 3l-182 8l22 133l184 9q55 2 78 14t29 47l3 24q8 45 -31 55q-20 6 -56 5h-251
l19 122q66 21 132 25q77 3 122.5 3h76.5q80 -2 125 -57q34 -42 34 -101q0 -18 -3 -38l-8 -46q-19 -114 -102 -128q60 -19 60 -116q0 -24 -4 -51l-7 -37q-26 -168 -219 -168z" />
    <glyph glyph-name="four.oldstyle" horiz-adv-x="614" 
d="M28 124l318 508h179l-259 -430h142l24 153l43 77h134l-37 -230h68l-20 -126l-72 -26l-22 -148h-165l23 148h-334z" />
    <glyph glyph-name="five.oldstyle" horiz-adv-x="601" 
d="M286 346q38 24 110 24q24 0 55 -2q78 -5 113 -60q26 -41 26 -98q0 -18 -2 -39l-16 -112q-22 -139 -164 -159q-32 -4 -100.5 -4t-119.5 4t-146 20l21 130h274q46 0 61 23q12 17 15 40l8 49q2 10 2 22.5t-8 27.5t-42 15h-71q-53 0 -62 -53h-156l94 458h453l-24 -149h-293z
" />
    <glyph glyph-name="six.oldstyle" horiz-adv-x="603" 
d="M277 430q65 21 185 21q51 0 85 -17t47 -44q19 -41 19 -76t-5 -58l-16 -108q-15 -91 -72 -122q-50 -27 -138 -27h-140q-116 0 -144 123q-9 40 -9 74t0.5 72.5t14 123t33 143t41 94t49.5 59.5q46 39 107 46q37 5 80 5q103 0 240 -25l-19 -125h-237q-71 0 -99 -71
q-13 -34 -22 -88zM258 309q-9 -44 -9 -73.5t6 -47.5q13 -40 65 -40h54q28 0 43 11.5t21 43.5l7 46q3 16 3 29t-6 22t-38 9h-146z" />
    <glyph glyph-name="seven.oldstyle" horiz-adv-x="568" 
d="M88 483l24 149h476l30 -70l-342 -662h-177l305 583h-316z" />
    <glyph glyph-name="eight.oldstyle" horiz-adv-x="618" 
d="M581 398q58 -13 58 -112q0 -22 -3 -42l-13 -82q-15 -96 -63 -130q-32 -22 -61 -26q-37 -6 -83 -6h-152q-167 0 -167 141q0 22 4 47l9 64q10 57 51 84q20 13 47 17q-31 15 -45.5 42.5t-14.5 52.5t4 66l11 65q16 105 91 138q37 16 72.5 18t54.5 2h153q86 0 125 -48
q29 -36 29 -95q0 -21 -4 -46l-8 -49q-3 -25 -18 -49q-29 -45 -77 -52zM268 195q-1 -9 -1 -21q0 -32 53 -32h75q32 0 47.5 13t19.5 40l8 57q2 7 2 14q0 41 -48 41h-80q-58 0 -67 -55zM316 494q-2 -9 -2 -22t11 -22.5t40 -9.5h79q35 0 47.5 13t17.5 41l6 40q1 17 1 31t-8 20
q-14 11 -40 11h-76q-23 0 -36 -5q-27 -10 -35 -57z" />
    <glyph glyph-name="nine.oldstyle" horiz-adv-x="594" 
d="M446 202q-65 -21 -186 -21q-69 0 -104 31q-45 41 -45 120q0 24 4 51l15 93q14 89 66 123t142 34h140q47 0 79.5 -20.5t54 -69.5t21.5 -129.5t-14.5 -176.5t-33.5 -153t-40.5 -90.5t-49.5 -54.5t-52 -30q-47 -16 -142.5 -16t-232.5 25l19 125h237q71 0 99 71q13 34 23 88z
M278 383q-3 -16 -3 -29t5.5 -22t37.5 -9h146q9 44 9 73.5t-6 47.5q-14 40 -66 40h-53q-28 0 -43 -11.5t-21 -43.5z" />
    <glyph glyph-name="at.alt" horiz-adv-x="830" 
d="M771 789q175 0 175 -188q0 -31 -6 -65l-47 -316q-11 -78 -55.5 -117.5t-145.5 -39.5h-107l-23 53q-44 -60 -122 -60q-95 0 -137 77q-26 49 -26 126q0 40 8.5 96.5t27.5 104t41.5 75t52.5 43.5q48 28 122 28q149 0 219 -68l-50 -348q38 0 52 15.5t22 74.5l41 271
q3 24 3 49.5t-12 39.5q-18 22 -69 22h-352q-68 0 -93 -38q-20 -29 -27 -73l-73 -459q-2 -15 -2 -35.5t12 -38.5q18 -26 78 -26h386l-16 -99q-136 -27 -292 -27h-91q-108 0 -157 50q-49 51 -49 123q0 33 3 67l76 475q18 117 85 162.5t188 45.5h360zM418.5 202.5
q14.5 -20.5 45.5 -20.5q87 0 114 68l34 222q-40 8 -90 8t-75 -33t-33 -95q-10 -75 -10 -102t14.5 -47.5z" />
    <glyph glyph-name="questiondown.alt" horiz-adv-x="541" 
d="M221 202q0 -59 90 -59h241l-20 -121q-129 -29 -246 -29q-20 0 -40 1q-53 0 -94 20q-74 36 -94 122q-5 22 -5 41t3 35l10 63q16 102 75 143q49 35 142 35q16 0 34 -1l14 86h127l-32 -207q-17 1 -55 1t-50 -1q-39 -1 -62.5 -18.5t-29.5 -57.5l-7 -37q-1 -8 -1 -16zM378 733
h98q11 0 16.5 -6t4.5 -17l-16 -102q-3 -25 -28 -25h-99q-21 0 -21 18q0 3 1 7l16 102q3 23 28 23z" />
    <glyph glyph-name="g.salt" horiz-adv-x="517" 
d="M108 438q39 80 135 92q21 3 36.5 3h20.5l98 -2q38 0 66 -12.5t42 -28.5q42 -43 42 -111q0 -71 -18 -108.5t-42 -64.5q-53 -58 -155 -58h-72q-2 0 -10 0.5t-12 0t-10 -1.5q-11 -3 -14 -15t6.5 -17t20 -7t11.5 -2l125 -23q56 -12 92 -46q32 -31 32 -84q0 -13 -2 -29l-8 -48
q-11 -67 -48 -104q-42 -42 -149 -42h-116q-103 0 -142 46q-29 33 -29 83q0 19 4 40l42 215q5 33 24 59.5t53 26.5q-49 30 -49 108t26 130zM178 -94q-2 -10 -2 -20.5t7.5 -18.5t34.5 -8h68q23 0 32 9.5t13 30.5l2 15q1 7 1 16.5t-7 17t-32 12.5l-104 16zM269 399.5
q-12 -14.5 -17.5 -45t-5.5 -44t3 -22.5q8 -20 40 -20h33q28 0 40.5 21t17 49.5t4.5 41.5t-3 20q-6 14 -36 14h-33q-31 0 -43 -14.5z" />
    <glyph glyph-name="exclamdown.alt" horiz-adv-x="325" 
d="M78 -202l101 534h129l-68 -534h-162zM182 399v7l16 100q3 21 28 23h98q9 -1 15 -8.5t5 -17.5l-16 -97q-4 -25 -25 -26h-101q-20 0 -20 19z" />
    <glyph glyph-name="ampersand.salt" horiz-adv-x="990" 
d="M610 -2h-162q-82 1 -137 38q-51 34 -51 102q0 13 2 27q-94 0 -144 44q-39 34 -39 97q0 19 3 41l12 84q14 99 64 146q41 39 136 47q38 4 97 4h426l36 116h146l-18 -117h95l-18 -110l-98 -19l-42 -291q-25 -150 -147 -189q-63 -20 -161 -20zM246 338q-2 -12 -2 -22.5
t4 -16.5q8 -11 34 -11q14 88 70.5 126t153.5 38h54q168 0 168 -123q0 -53 -25 -100q-9 -16 -28.5 -30t-36 -18t-27 -6t-31.5 -3q-26 -2 -66 -2h-86q-1 -5 -1 -15q0 -24 44 -25h160q59 0 87 26t36 76l42 265h-419q-86 0 -105 -32q-9 -15 -14 -49zM530 286q17 0 24 5
q10 7 10 22t-4.5 19t-21.5 4h-43q-34 0 -42 -22q-5 -10 -7 -28h84z" />
    <glyph glyph-name="a.superior" horiz-adv-x="400" 
d="M248.5 728.5q17.5 1.5 32 2t40 0.5t76.5 -11t75 -34l-46 -321h-95l-20 45q-28 -50 -109 -50q-60 0 -90 57q-17 34 -17 75.5t8 83t25 72t34.5 46t43 24.5t43 10.5zM214 511q0 -49 32 -49q52 0 74 34l20 135q-25 7 -40 7t-26 -2t-20.5 -7.5t-20 -24t-15 -46.5t-4.5 -47z
" />
    <glyph glyph-name="b.superior" horiz-adv-x="410" 
d="M268 709q52 25 99 25t71 -16q41 -28 41 -113q0 -34 -7 -79q-13 -90 -49 -126t-106 -36q-53 0 -96 42l-28 -38h-103l83 523h124zM294 468q22 0 35 18.5t18 57t5 56.5t-3 25q-5 15 -35 15t-58 -13l-23 -143q21 -16 61 -16z" />
    <glyph glyph-name="c.superior" horiz-adv-x="351" 
d="M265 725q103 0 173 -25l-12 -76q-52 4 -92.5 4t-50 -1.5t-19.5 -9.5q-18 -13 -28 -74q-9 -53 2 -70q6 -10 20.5 -11.5t35.5 -1.5q49 0 96 4l16 1l-13 -74q-51 -21 -92.5 -24t-62.5 -3h-28q-58 1 -86 49q-19 32 -19 72t7 83.5t21.5 78t36 51t43 22t52.5 5.5z" />
    <glyph glyph-name="d.superior" horiz-adv-x="410" 
d="M267 734q56 0 101 -25l28 182h124l-83 -523h-103l-16 38q-55 -42 -107 -42q-33 0 -57 16q-49 35 -49 130q0 28 7 57q13 83 47 125t108 42zM257.5 623q-12.5 -17 -18 -57.5t-5.5 -57.5t3 -24q6 -16 27 -16q42 0 67 19l23 141q-25 12 -54.5 12t-42 -17z" />
    <glyph glyph-name="e.superior" horiz-adv-x="384" 
d="M378.5 508.5q-30.5 -10.5 -54.5 -12.5t-51 -2t-47 9q-1 -6 -1 -17q0 -28 60 -28h39.5t99.5 10l-15 -86q-72 -24 -150 -24q-25 0 -51 3q-102 9 -102 132q0 69 21 134q18 55 55 76q43 25 123 25q119 0 147 -63q7 -16 7 -28q0 -56 -25 -87t-55.5 -41.5zM232 568
q23 -6 40.5 -6t28.5 1.5t23 10.5q17 11 17 32q0 24 -40 24t-51.5 -14.5t-17.5 -47.5z" />
    <glyph glyph-name="f.superior" horiz-adv-x="309" 
d="M266 878q30 14 80.5 14t87.5 -18l-12 -73l-61 1q-18 0 -32 -9q-8 -4 -10 -17t-5 -28l-3 -24h81l-15 -92h-81l-42 -264h-125l42 264h-55l13 78l55 16l10 49q17 77 72 103z" />
    <glyph glyph-name="g.superior" horiz-adv-x="403" 
d="M244 281q62 0 71 59l8 52q-37 -29 -89 -29q-123 0 -123 139q0 31 7 69q15 91 58 126.5t108.5 35.5t126 -7.5t88.5 -17.5l-61 -389q-22 -140 -159 -140q-15 0 -32 1l-171 16l14 85h154zM248 580q-2 -8 -6.5 -30.5t-4.5 -39t2 -26.5q6 -26 38 -26t58 10l27 173h-56
q-46 0 -58 -61z" />
    <glyph glyph-name="h.superior" horiz-adv-x="414" 
d="M337 723.5q25 8.5 61 8.5t60 -18t26 -47q1 -10 1 -26t-3 -39l-36 -234h-126l36 225q1 7 1 12q0 29 -27 29q-42 0 -75 -26l-38 -240h-125l83 521h124l-33 -205q23 16 34.5 23.5t36.5 16z" />
    <glyph glyph-name="i.superior" horiz-adv-x="191" 
d="M90 368l56 356h126l-56 -356h-126zM188 867h94q14 0 14 -13v-6l-13 -77q-3 -17 -19 -17h-95q-18 0 -15 17l12 77q4 19 22 19z" />
    <glyph glyph-name="j.superior" horiz-adv-x="191" 
d="M63 185l85 537h126l-58 -358q-16 -119 -58 -179h-95zM188 866h94q15 0 15 -13q0 -2 -1 -5l-12 -78q-3 -17 -20 -17h-94q-19 0 -16 17l13 78q3 18 21 18z" />
    <glyph glyph-name="k.superior" horiz-adv-x="409" 
d="M92 368l83 520h125l-48 -290q46 15 79 47t49 77h130q-30 -110 -125 -162l101 -192h-138l-78 158l-28 -1l-25 -157h-125z" />
    <glyph glyph-name="l.superior" horiz-adv-x="240" 
d="M241 522q-3 -20 -3 -31.5t3 -19.5t28 -18.5t30 -10.5l-11 -74h-77q-55 0 -78.5 26t-23.5 66q0 16 3 35l62 395h126z" />
    <glyph glyph-name="m.superior" horiz-adv-x="643" 
d="M382 727q74 0 93 -49q77 49 141 49q98 0 98 -93q0 -16 -3 -35l-37 -231h-125l36 222q1 6 1 12q0 28 -28 28q-47 0 -76 -23l-4 -20l-34 -219h-125l35 222q1 6 1 12q0 28 -28 28q-42 0 -75 -26l-37 -236h-125l56 353h102l12 -42q2 2 12.5 9t19 13t23.5 13q27 13 67 13z" />
    <glyph glyph-name="n.superior" horiz-adv-x="414" 
d="M398.5 728q33.5 0 58 -17.5t27.5 -46.5q1 -11 1 -27t-3 -37l-36 -232h-126l36 223q1 6 1 12q0 29 -27 29q-42 0 -76 -27l-37 -237h-125l56 353h101l13 -41q52 38 77.5 43t59 5z" />
    <glyph glyph-name="o.superior" horiz-adv-x="391" 
d="M310 725q97 0 127 -46q20 -29 20 -72t-6 -80q-15 -99 -53.5 -131t-138.5 -32t-131 45q-21 30 -21 85q0 26 6.5 69.5t19 76t36.5 52.5t56.5 26.5t84.5 6.5zM228 540q-2 -28 -3.5 -37.5t-1.5 -16.5t6 -14q10 -12 33 -12t31 1.5t15.5 5t11.5 12.5q8 21 14.5 59.5t6.5 54
t-2 21.5q-6 15 -43.5 15t-47.5 -14t-20 -75z" />
    <glyph glyph-name="p.superior" horiz-adv-x="406" 
d="M358 730q68 0 98 -51q20 -35 20 -89q0 -25 -4 -55q-13 -90 -48 -135t-106 -45t-99 30l-32 -201h-124l83 522q73 24 212 24zM353 586q0 52 -38 52h-55l-28 -175q22 -13 52 -13t42.5 20t21.5 78q5 21 5 38z" />
    <glyph glyph-name="q.superior" horiz-adv-x="408" 
d="M172 693.5q43 36.5 109 36.5t124.5 -7t86.5 -17l-82 -525h-126l32 203q-36 -29 -87 -29q-122 0 -122 138q0 31 7 70q15 94 58 130.5zM242 572q-2 -8 -6.5 -29.5t-4.5 -38.5t3 -28q6 -26 38 -26l1 -1q27 0 56 13l28 176h-54q-46 0 -61 -66z" />
    <glyph glyph-name="r.superior" horiz-adv-x="304" 
d="M364 725q27 0 37 -5l-19 -120q-21 1 -52 1t-50.5 -6.5t-33.5 -29.5l-31 -197h-125l56 353h108l4 -51q49 55 106 55z" />
    <glyph glyph-name="s.superior" horiz-adv-x="356" 
d="M276 463q21 0 22 17q3 15 -0.5 19t-14.5 4h-74q-47 0 -69 26.5t-22 59.5q0 10 2 21l4 30q13 86 108 86q131 0 159.5 -7.5t35.5 -15.5l-11 -77h-158q-23 0 -25 -15q-2 -20 3 -23.5t16 -3.5h76q50 0 69.5 -24.5t19.5 -52.5q0 -7 -1 -15l-7 -40q-9 -52 -36 -71t-73.5 -19
t-80.5 2q-100 3 -119 24l12 75h164z" />
    <glyph glyph-name="t.superior" horiz-adv-x="284" 
d="M279 518q-2 -20 -2 -31t2.5 -18t26.5 -16.5t28 -9.5l-12 -75h-80q-49 0 -72 25.5t-23 65.5q0 15 3 32l22 142h-56l11 73l63 20l32 97h106l-16 -99h72l-14 -91h-72z" />
    <glyph glyph-name="u.superior" horiz-adv-x="413" 
d="M232 486q0 -29 27 -29q41 0 73 26l38 238h125l-56 -353h-101l-13 43q-23 -19 -36 -27q-34 -24 -83 -24t-73.5 18t-27.5 47q-1 11 -1 27t2 38l37 231h125l-36 -224v-11z" />
    <glyph glyph-name="v.superior" horiz-adv-x="391" 
d="M492 695q0 -42 -28 -93l-134 -234h-133l-68 353h120l29 -225l70 144q18 34 22 82h119q3 -13 3 -27z" />
    <glyph glyph-name="w.superior" horiz-adv-x="603" 
d="M488 722q4 -13 4 -34t-7 -37.5t-10 -22.5t-6.5 -12t-4.5 -8l25 -110l70 142q19 34 23 82h118q3 -12 3 -26q0 -42 -28 -94l-133 -234h-130l-27 111l-55 -111h-134l-67 353h119l29 -223l71 142q18 34 22 82h118z" />
    <glyph glyph-name="x.superior" horiz-adv-x="409" 
d="M74 366l150 186l-95 168h133l42 -94l70 94h136l-152 -188l92 -166h-129l-41 94l-70 -94h-136z" />
    <glyph glyph-name="y.superior" horiz-adv-x="419" 
d="M519 692q0 -41 -23 -92l-106 -234q-34 -72 -70 -111q-44 -46 -67.5 -58t-36 -18.5t-30.5 -10.5q-24 -5 -44 -8v78q80 45 123 128q-48 1 -75 27t-30 67l-30 262h124l20 -236q3 -26 28 -28l75 165q14 37 20 99h119q3 -14 3 -30z" />
    <glyph glyph-name="z.superior" horiz-adv-x="352" 
d="M92 368l16 102l164 148h-150l16 103h306l-14 -89l-166 -161h140l-16 -103h-296z" />
    <glyph glyph-name="zero.tnum" horiz-adv-x="609" 
d="M328 732h164q50 0 86.5 -15.5t54 -41t23.5 -50.5t6 -42.5t-4 -34.5l-58 -364q-14 -91 -61.5 -137.5t-133.5 -46.5h-164q-92 0 -140 48q-37 37 -37 99q0 18 3 37l57 356q15 96 64.5 144t139.5 48zM236 215q-1 -11 -1 -20.5t2.5 -20.5t13.5 -16q16 -9 42 -9h72
q33 0 51 13.5t25 51.5l48 304q2 10 2 25t-10.5 27.5t-40.5 12.5h-84q-62 0 -72 -65z" />
    <glyph glyph-name="one.tnum" horiz-adv-x="609" 
d="M90 0l22 135h137l70 435q-37 -26 -135 -26l16 106q21 0 70.5 26.5t75.5 55.5h162l-95 -597h139l-22 -135h-440z" />
    <glyph glyph-name="two.tnum" horiz-adv-x="609" 
d="M481 529q0 31 -21 47t-86 16h-243l19 122q148 28 302 28q72 0 120 -36q74 -55 74 -165q0 -84 -41 -147q-38 -56 -67 -84t-45.5 -44t-43.5 -37t-39.5 -31t-37 -28t-29.5 -21h243l-24 -149h-518l23 143q151 92 290 212q48 41 83 83t39 70q2 11 2 21z" />
    <glyph glyph-name="three.tnum" horiz-adv-x="609" 
d="M532 364q60 -19 60 -115q0 -24 -4 -51l-7 -37q-26 -168 -219 -168h-61t-50.5 0.5t-38 1t-33.5 2t-35.5 3.5t-30.5 5q-28 5 -60 16l20 122h238q57 0 81 11t29 48l3 22q5 32 -1.5 40t-9.5 11t-10 5.5t-11.5 3.5t-15.5 3q-14 1 -36 2l-182 9l22 133l184 8q37 2 57 7
q42 10 49 55l4 23q1 8 1 19.5t-10.5 23.5t-28 15t-49.5 3h-251l19 121q66 22 131 25q78 4 123 4t87 -1t81 -26t53.5 -62t14.5 -62.5t-3 -44.5l-8 -47q-19 -114 -102 -128z" />
    <glyph glyph-name="four.tnum" horiz-adv-x="609" 
d="M54 224l318 508h180l-260 -430h142l25 153l42 77h135l-37 -230h67l-19 -126l-72 -26l-23 -148h-165l23 148h-334z" />
    <glyph glyph-name="five.tnum" horiz-adv-x="609" 
d="M308 446q38 24 109 24q23 0 56 -1q78 -5 113 -60q26 -42 26 -98q0 -19 -2 -39l-16 -113q-23 -145 -181 -160q-25 -3 -88.5 -3t-114.5 4t-146 21l21 130h274q61 0 73 47q2 6 3 16l8 49q2 17 1 31t-13 24t-36 10h-71q-53 0 -62 -53h-156l94 457h453l-24 -148h-293z" />
    <glyph glyph-name="six.tnum" horiz-adv-x="609" 
d="M274 430q65 21 184 21q51 0 85 -17t47 -44q20 -41 20 -76t-5 -58l-17 -108q-14 -91 -71 -122q-51 -27 -138 -27h-141q-115 0 -143 123q-10 40 -10 74t1 72.5t14 123t32.5 143t41.5 94t49 59.5q47 39 99.5 45t100.5 6q106 0 228 -25l-20 -125h-236q-71 0 -99 -71
q-13 -34 -22 -88zM254 309q-8 -44 -8 -73.5t6 -47.5q12 -40 65 -40h54q27 0 42.5 11.5t20.5 43.5l8 46q2 16 2 29t-6 22t-38 9h-146z" />
    <glyph glyph-name="seven.tnum" horiz-adv-x="609" 
d="M137 583l24 149h476l30 -70l-342 -662h-177l305 583h-316z" />
    <glyph glyph-name="eight.tnum" horiz-adv-x="609" 
d="M553 398q58 -13 58 -112q0 -22 -3 -42l-13 -82q-16 -96 -64 -130q-31 -22 -60 -26q-37 -6 -83 -6h-152q-167 0 -167 141q0 22 3 47l10 64q11 65 61 90q17 8 37 11q-32 15 -46.5 42.5t-14.5 52.5t5 66l10 65q17 105 91 138q38 16 73.5 18t53.5 2h154q86 0 125 -48
q29 -36 29 -95q0 -21 -4 -46l-8 -49q-6 -43 -41 -76q-23 -21 -54 -25zM240 195q-2 -9 -2 -21q0 -32 54 -32h75q31 0 46.5 13t20.5 40l8 57q1 7 1 14q0 41 -47 41h-80q-59 0 -67 -55zM287 494q-1 -9 -1 -22t11 -22.5t40 -9.5h79q35 0 47.5 13t17.5 41l5 40q2 17 2 31t-9 20
q-13 11 -40 11h-75q-33 0 -45 -10q-20 -14 -26 -52z" />
    <glyph glyph-name="nine.tnum" horiz-adv-x="609" 
d="M445 304q-65 -21 -185 -21q-69 0 -104 31q-45 40 -45 119q0 24 4 51l15 94q13 88 65 122t143 34h140q47 0 79.5 -20.5t54 -69t21.5 -129t-14.5 -176.5t-34 -153.5t-40.5 -90.5t-49 -54.5t-52 -29.5q-47 -16 -146 -16q-117 0 -229 25l19 124h237q71 0 99 72q13 33 22 88z
M277 484q-2 -16 -2 -28.5t5.5 -22t37.5 -9.5h146q8 44 8 73.5t-6 48.5q-13 40 -66 40h-52q-28 0 -43.5 -11.5t-20.5 -43.5z" />
    <glyph glyph-name="zero.tosf" horiz-adv-x="609" 
d="M312 632h164q56 0 93.5 -15.5t53.5 -41.5q25 -39 25 -88q0 -19 -5 -39l-43 -264q-14 -91 -61.5 -137.5t-133.5 -46.5h-164q-93 0 -140 48q-37 37 -37 98q0 18 3 38l42 256q15 96 64.5 144t138.5 48zM236 215q-1 -11 -1 -20.5t2.5 -20.5t13.5 -16q16 -9 42 -9h72
q22 0 36 5q32 11 41 60l32 204q2 11 2 25.5t-10 27t-40 12.5h-84q-51 0 -68 -46q-3 -9 -5 -19z" />
    <glyph glyph-name="one.tosf" horiz-adv-x="609" 
d="M107 0l21 135h134l50 335q-38 -26 -138 -26l16 106q21 0 70.5 26.5t75.5 55.5h162l-69 -497h134l-21 -135h-435z" />
    <glyph glyph-name="two.tosf" horiz-adv-x="609" 
d="M473 428q0 28 -18.5 42t-81.5 14h-3h-243l19 122q145 28 301 28q113 0 160 -64q36 -49 36 -119q0 -22 -4 -47q-22 -160 -239 -255h186l-24 -149h-518l23 143q226 101 311.5 160t92.5 102q2 12 2 23z" />
    <glyph glyph-name="three.tosf" horiz-adv-x="609" 
d="M346 -106h-58q-13 0 -19 0.5t-33.5 0.5t-38 1t-33.5 2t-35.5 3.5t-30.5 4.5q-30 5 -60 16l20 122h238q57 0 81 11.5t29 48.5l4 22q4 31 -2.5 39t-9.5 11.5t-10 5.5t-11.5 3.5t-15.5 2.5q-14 1 -36 3l-182 8l22 133l184 9q55 2 78 14t29 47l3 24q8 45 -31 55q-20 6 -56 5
h-251l19 122q66 21 131 25q78 3 123 3h76q81 -2 126 -57q34 -42 34 -101q0 -18 -3 -38l-8 -46q-19 -114 -103 -128q61 -19 61 -116q0 -24 -5 -51l-6 -37q-26 -168 -220 -168z" />
    <glyph glyph-name="four.tosf" horiz-adv-x="609" 
d="M38 124l318 508h180l-260 -430h142l25 153l42 77h135l-37 -230h67l-19 -126l-72 -26l-23 -148h-165l23 148h-334z" />
    <glyph glyph-name="five.tosf" horiz-adv-x="609" 
d="M282 346q38 24 109 24q23 0 56 -2q78 -5 113 -60q26 -41 26 -98q0 -18 -2 -39l-16 -112q-22 -139 -164 -159q-32 -4 -100.5 -4t-119.5 4t-146 20l21 130h274q46 0 61 23q12 17 15 40l8 49q6 25 -1 39q-11 26 -47 26h-71q-53 0 -62 -53h-156l94 458h453l-24 -149h-293z
" />
    <glyph glyph-name="six.tosf" horiz-adv-x="609" 
d="M274 430q65 21 184 21q51 0 85 -17t47 -44q20 -41 20 -76t-5 -58l-17 -108q-14 -91 -71 -122q-51 -27 -138 -27h-141q-115 0 -143 123q-10 40 -10 74t1 72.5t14 123t32.5 143t41.5 94t49 59.5q47 39 98 45t98 6q105 0 232 -25l-20 -125h-236q-71 0 -99 -71
q-13 -34 -22 -88zM254 309q-8 -44 -8 -73.5t6 -47.5q12 -40 65 -40h54q27 0 42.5 11.5t20.5 43.5l8 46q2 16 2 29t-6 22t-38 9h-146z" />
    <glyph glyph-name="seven.tosf" horiz-adv-x="609" 
d="M121 483l24 149h476l30 -70l-342 -662h-177l305 583h-316z" />
    <glyph glyph-name="eight.tosf" horiz-adv-x="609" 
d="M553 398q58 -13 58 -112q0 -22 -3 -42l-13 -82q-16 -96 -64 -130q-31 -22 -60 -26q-37 -6 -83 -6h-152q-167 0 -167 141q0 22 3 47l10 64q11 65 61 90q17 8 37 11q-32 15 -46.5 42.5t-14.5 52.5t5 66l10 65q17 105 91 138q38 16 73.5 18t53.5 2h154q86 0 125 -48
q29 -36 29 -95q0 -21 -4 -46l-8 -49q-6 -43 -41 -76q-23 -21 -54 -25zM240 195q-2 -9 -2 -21q0 -32 54 -32h75q31 0 46.5 13t20.5 40l8 57q1 7 1 14q0 41 -47 41h-80q-59 0 -67 -55zM287 494q-1 -9 -1 -22t11 -22.5t40 -9.5h79q35 0 47.5 13t17.5 41l5 40q2 17 2 31t-9 20
q-13 11 -40 11h-75q-33 0 -45 -10q-20 -14 -26 -52z" />
    <glyph glyph-name="nine.tosf" horiz-adv-x="609" 
d="M429 202q-65 -21 -185 -21q-69 0 -104 31q-45 41 -45 120q0 24 4 51l15 93q13 89 65 123t143 34h140q47 0 79.5 -20.5t54 -69.5t21.5 -129.5t-14.5 -176.5t-34 -153t-40.5 -90.5t-49 -54.5t-52 -30q-48 -16 -148 -16q-117 0 -227 25l19 125h237q71 0 99 71q13 34 22 88z
M261 383q-2 -16 -2 -29t5.5 -22t37.5 -9h146q8 44 8 73.5t-6 47.5q-13 40 -66 40h-52q-28 0 -43.5 -11.5t-20.5 -43.5z" />
    <glyph glyph-name="gbreve.salt" horiz-adv-x="517" 
d="M299 711v-16.5t10.5 -24t35.5 -12.5v0q55 0 60 53h62q-6 -54 -38 -83.5t-83.5 -29.5t-80 29t-28.5 71q0 6 1 13h61zM108 438q39 80 135 92q21 3 36.5 3h20.5l98 -2q38 0 66 -12.5t42 -28.5q42 -43 42 -111q0 -71 -18 -108.5t-42 -64.5q-53 -58 -155 -58h-72q-2 0 -10 0.5
t-12 0t-10 -1.5q-11 -3 -14 -15t6.5 -17t20 -7t11.5 -2l125 -23q56 -12 92 -46q32 -31 32 -84q0 -13 -2 -29l-8 -48q-11 -67 -48 -104q-42 -42 -149 -42h-116q-103 0 -142 46q-29 33 -29 83q0 19 4 40l42 215q5 33 24 59.5t53 26.5q-49 30 -49 108t26 130zM178 -94
q-2 -10 -2 -20.5t7.5 -18.5t34.5 -8h68q23 0 32 9.5t13 30.5l2 15q1 7 1 16.5t-7 17t-32 12.5l-104 16zM269 399.5q-12 -14.5 -17.5 -45t-5.5 -44t3 -22.5q8 -20 40 -20h33q28 0 40.5 21t17 49.5t4.5 41.5t-3 20q-6 14 -36 14h-33q-31 0 -43 -14.5z" />
    <glyph glyph-name="gdotaccent.salt" horiz-adv-x="517" 
d="M331 730h80q23 0 19 -25l-14 -84q-3 -23 -26 -23h-80q-10 0 -16 6.5t-5 16.5l14 84q3 25 28 25zM108 438q39 80 135 92q21 3 36.5 3h20.5l98 -2q38 0 66 -12.5t42 -28.5q42 -43 42 -111q0 -71 -18 -108.5t-42 -64.5q-53 -58 -155 -58h-72q-2 0 -10 0.5t-12 0t-10 -1.5
q-11 -3 -14 -15t6.5 -17t20 -7t11.5 -2l125 -23q56 -12 92 -46q32 -31 32 -84q0 -13 -2 -29l-8 -48q-11 -67 -48 -104q-42 -42 -149 -42h-116q-103 0 -142 46q-29 33 -29 83q0 19 4 40l42 215q5 33 24 59.5t53 26.5q-49 30 -49 108t26 130zM178 -94q-2 -10 -2 -20.5
t7.5 -18.5t34.5 -8h68q23 0 32 9.5t13 30.5l2 15q1 7 1 16.5t-7 17t-32 12.5l-104 16zM269 399.5q-12 -14.5 -17.5 -45t-5.5 -44t3 -22.5q8 -20 40 -20h33q28 0 40.5 21t17 49.5t4.5 41.5t-3 20q-6 14 -36 14h-33q-31 0 -43 -14.5z" />
    <glyph glyph-name="gcircumflex.salt" horiz-adv-x="517" 
d="M183 598l126 138h116l72 -138h-99l-38 59l-66 -59h-111zM108 438q39 80 135 92q21 3 36.5 3h20.5l98 -2q38 0 66 -12.5t42 -28.5q42 -43 42 -111q0 -71 -18 -108.5t-42 -64.5q-53 -58 -155 -58h-72q-2 0 -10 0.5t-12 0t-10 -1.5q-11 -3 -14 -15t6.5 -17t20 -7t11.5 -2
l125 -23q56 -12 92 -46q32 -31 32 -84q0 -13 -2 -29l-8 -48q-11 -67 -48 -104q-42 -42 -149 -42h-116q-103 0 -142 46q-29 33 -29 83q0 19 4 40l42 215q5 33 24 59.5t53 26.5q-49 30 -49 108t26 130zM178 -94q-2 -10 -2 -20.5t7.5 -18.5t34.5 -8h68q23 0 32 9.5t13 30.5
l2 15q1 7 1 16.5t-7 17t-32 12.5l-104 16zM269 399.5q-12 -14.5 -17.5 -45t-5.5 -44t3 -22.5q8 -20 40 -20h33q28 0 40.5 21t17 49.5t4.5 41.5t-3 20q-6 14 -36 14h-33q-31 0 -43 -14.5z" />
    <glyph glyph-name="c_t" horiz-adv-x="853" 
d="M770 219q-5 -26 -5 -39t2 -27t8.5 -21.5t37.5 -20.5t37 -13l-16 -99h-110q-68 0 -103 45q-24 32 -24 89q0 26 5 56l35 223l-281 -1h-15.5t-20 -0.5t-22 -4.5t-21.5 -13.5t-17 -26.5q-17 -29 -26 -88q-11 -63 -11 -88t3 -39t15 -21q19 -10 61 -10q83 0 155 6l24 2l-16 -99
q-60 -22 -114.5 -29t-99.5 -7h-47q-146 1 -146 185q0 98 29 195q23 77 54 109q33 34 63 41q40 9 89 9h363l49 147h138l-23 -148h106l-19 -119h-106z" />
    <glyph glyph-name="t_t" horiz-adv-x="762" 
d="M678 220q-5 -26 -5 -39t2 -27t8 -21.5t37 -21t37 -13.5l-16 -98h-107q-67 0 -104 45q-25 33 -25 91q0 25 4 54l35 223h-220l-32 -193q-5 -25 -5 -38.5t2.5 -27.5t8.5 -21.5t37 -21t37 -13.5l-16 -98h-107q-67 0 -104 45q-25 33 -25 91q0 25 4 54l36 223h-82l14 86l86 33
l50 148h138l-24 -148h221l49 148h139l-24 -148h106l-19 -119h-106z" />
    <glyph glyph-name="f_t" horiz-adv-x="757" 
d="M285 769q40 17 109 17t118 -24l-15 -95l-85 1h-2q-40 0 -51 -27q-4 -12 -11 -56l-9 -53h221l48 148h139l-23 -148h105l-19 -119h-105l-30 -193q-6 -25 -6 -38.5t2.5 -27.5t8.5 -21.5t37 -21t36 -13.5l-15 -98h-107q-67 0 -103 45q-26 33 -26 92q0 24 4 53l35 223h-221
l-65 -413h-164l65 412h-78l16 102l81 17l16 99q17 105 94 139z" />
    <glyph glyph-name="t_y" horiz-adv-x="947" 
d="M1018 493q0 -63 -33 -140l-153 -352q-67 -152 -159 -221q-54 -41 -92 -53q-46 -15 -87 -22v115q64 33 103.5 76t70.5 104q-140 0 -153 145l-21 195q-4 44 -21.5 58.5t-63.5 14.5h-85l-31 -193q-6 -26 -6 -39t2.5 -27t8.5 -21.5t37 -21t37 -13.5l-16 -99h-107
q-67 0 -104 46q-25 33 -25 91q0 25 4 54l36 223h-82l14 86l86 33l50 148h138l-24 -148h142q164 0 172 -135l16 -221q3 -37 48 -39l114 272q19 49 26 124h155q3 -20 3 -40z" />
    <glyph glyph-name="f_y" horiz-adv-x="957" 
d="M285 769q40 17 109 17t118 -24l-15 -95l-85 1h-2q-40 0 -51 -27q-4 -12 -11 -56l-9 -54h155h2q165 0 174 -135l17 -221q3 -37 46 -39l111 272q20 50 26 124h155q4 -20 4 -41q0 -63 -33 -139l-154 -352q-66 -152 -159 -221q-54 -41 -92 -53q-45 -15 -87 -22v116
q85 42 134 110q21 30 41 70q-136 0 -150 144l-21 195q-5 56 -38 68q-16 5 -31 5h-17h-102l-65 -412h-164l65 412h-78l16 102l81 17l16 99q17 105 94 139z" />
    <glyph glyph-name="gcommaaccent.salt" horiz-adv-x="517" 
d="M108 438q39 80 135 92q21 3 36.5 3h20.5l98 -2q38 0 66 -12.5t42 -28.5q42 -43 42 -111q0 -71 -18 -108.5t-42 -64.5q-53 -58 -155 -58h-72q-2 0 -10 0.5t-12 0t-10 -1.5q-11 -3 -14 -15t6.5 -17t20 -7t11.5 -2l125 -23q56 -12 92 -46q32 -31 32 -84q0 -13 -2 -29l-8 -48
q-11 -67 -48 -104q-42 -42 -149 -42h-116q-103 0 -142 46q-29 33 -29 83q0 19 4 40l42 215q5 33 24 59.5t53 26.5q-49 30 -49 108t26 130zM178 -94q-2 -10 -2 -20.5t7 -18t35 -7.5h68q23 0 32 9t13 30l2 15q1 7 1 16.5t-7 17t-32 12.5l-104 16zM269 399.5
q-12 -14.5 -17.5 -45t-5.5 -44t3 -22.5q8 -20 40 -20h33q28 0 40.5 21t17 49.5t4.5 41.5t-3 20q-6 14 -36 14h-33q-31 0 -43 -14.5zM347 801q12 8 25.5 12t20 4h13.5q22 -1 42 -6l-6 -49h-3q-26 0 -29 -22l-2 -8h10q22 0 20 -22l-14 -90q-5 -24 -27 -24h-87q-17 0 -17 18v6
l19 122q7 43 35 59z" />
    <glyph glyph-name="exclam.smcp" horiz-adv-x="272" 
d="M108 150h100q22 0 19 -25l-17 -102q-3 -23 -26 -23h-100q-10 0 -16 6.5t-5 16.5l17 102q3 25 28 25zM99 190l47 380h159l-79 -380h-127z" />
    <glyph glyph-name="quotedbl.smcp" horiz-adv-x="467" 
d="M130 386l9 134l11 68h156l-10 -68l-32 -134h-134zM326 386l10 134l11 68h157l-11 -68l-31 -134h-136z" />
    <glyph glyph-name="numbersign.smcp" horiz-adv-x="625" 
d="M35 142l35 112h119l28 85h-120l35 112h120l44 136h112l-44 -136h86l43 136h112l-43 -136h123l-34 -112h-124l-28 -85h123l-34 -112h-124l-46 -142h-112l45 142h-85l-46 -142h-112l46 142h-119zM301 254h86l27 85h-85z" />
    <glyph glyph-name="dollar.smcp" horiz-adv-x="526" 
d="M74 130l231 -5q19 0 32 9.5t15 23.5l4 20q3 18 -6 25.5t-29 7.5h-94q-45 0 -76 15.5t-44 40.5q-20 39 -20 70.5t5 51.5l5 35q12 75 58 111.5t134 38.5l12 78h97l-12 -82q99 -7 167 -20l-18 -117q-140 7 -226 7q-43 0 -49 -38l-2 -17q-4 -23 12 -30q9 -3 23 -3h103
q43 0 72 -17.5t40 -43.5q17 -40 17 -72t-5 -53l-5 -32q-12 -74 -40 -101q-11 -11 -19.5 -18t-24.5 -12t-26 -7q-22 -5 -97 -5h-14l-12 -76h-97l12 79q-116 7 -141 21z" />
    <glyph glyph-name="percent.smcp" horiz-adv-x="996" 
d="M240 578h90q70 0 99 -37q22 -28 22 -72q0 -15 -2 -31l-17 -106q-7 -45 -22 -72q-31 -53 -128 -53h-89q-103 0 -121 82q-3 14 -3 28.5t3 29.5l16 105q10 67 43.5 96.5t108.5 29.5zM185 362q-1 -8 -1 -17.5t6 -18.5t32 -9h52q28 0 38.5 10.5t13.5 34.5l10 60q7 34 -11 42
q-8 4 -25 4h-53q-36 0 -46 -23q-4 -9 -6 -23zM299 0l370 570h111l-365 -570h-116zM806 371h89q70 0 100 -37q23 -28 23 -72q0 -14 -3 -31l-17 -106q-10 -67 -42.5 -96t-106.5 -29h-90q-68 0 -100 38q-24 29 -24 73q0 14 3 29l16 106q7 44 22 70q32 55 130 55zM752 155
q-2 -9 -2 -14.5t1 -12.5q2 -18 36 -18h52q28 0 39 11t14 34l9 61q2 9 2 19.5t-6.5 18t-31.5 7.5h-52q-36 0 -46 -23q-4 -9 -7 -22z" />
    <glyph glyph-name="ampersand.smcp" horiz-adv-x="594" 
d="M376 436q-42 0 -42 -23q0 -10 7 -24l73 -126l122 80l52 -71l-72 -95l-36 -27l92 -150h-165l-40 64l-41 -32q-47 -36 -126 -36q-41 0 -77.5 22.5t-55.5 62.5q-21 45 -21 76.5t12 58.5q22 49 86 99l55 42l-19 32q-16 32 -16 52q0 59 39 97q30 27 61 31.5t61 4.5
q95 0 169 -24l-18 -114h-100zM191 174q0 -10 10 -25.5t25.5 -15.5t31.5 11l41 32l-39 68l-44 -32q-25 -18 -25 -38z" />
    <glyph glyph-name="quotesingle.smcp" horiz-adv-x="269" 
d="M129 386l10 134l11 68h156l-10 -68l-32 -134h-135z" />
    <glyph glyph-name="asterisk.smcp" horiz-adv-x="422" 
d="M96 397l10 62l142 22l-9 -89zM126 248l46 137l83 -22l-73 -134zM230 294l61 75l98 -90l-44 -50zM249 552l63 20l45 -124l-88 -33zM299 402l131 80l28 -52l-114 -97z" />
    <glyph glyph-name="zero.smcp" horiz-adv-x="559" 
d="M306 570h134q70 0 102 -34q32 -33 36 -73q2 -18 2 -34.5t-3 -35.5l-35 -246q-12 -83 -60.5 -115t-132.5 -32h-134q-73 0 -115 46q-32 34 -32 91q0 19 4 40l36 246q22 147 198 147zM240 202q-3 -9 -3 -15t2 -13t3.5 -12.5t9.5 -8.5q10 -4 29 -4h48q39 0 50 32q3 9 5 22
l26 158q2 19 2 24.5t-0.5 13t-4.5 11.5q-11 11 -36 11h-49q-31 0 -42 -14.5t-16 -44.5z" />
    <glyph glyph-name="one.smcp" horiz-adv-x="366" 
d="M86 382l16 106q18 0 65.5 26.5t72.5 55.5h162l-87 -570h-164l63 408q-36 -26 -128 -26z" />
    <glyph glyph-name="two.smcp" horiz-adv-x="518" 
d="M378 364q2 9 2 24.5t-15.5 27t-78.5 11.5h-191l19 121q6 2 23.5 6t22.5 5t19.5 4t20 4t19.5 3t22.5 2.5t22.5 2t28 1.5q45 1 67 1q110 0 156 -59q34 -43 34 -111q0 -72 -26 -118t-54 -72q-52 -45 -106 -68h146l-24 -149h-451l23 143q88 33 165 76q147 80 156 145z" />
    <glyph glyph-name="three.smcp" horiz-adv-x="504" 
d="M267 140q45 0 50 31l1 10q4 20 -5.5 26.5t-33.5 7.5l-171 5l20 129l173 4q28 1 38.5 7t13.5 27l2 11q3 19 -6 24.5t-35 5.5h-227l20 123q69 23 230 23q29 0 61 -1q66 -2 101 -45q27 -33 27 -79q0 -13 -3 -27l-3 -27q-8 -48 -25 -76t-54 -37q43 -22 43 -89q0 -19 -3 -41
l-3 -18q-11 -71 -50 -103q-40 -33 -126 -36q-37 -1 -70 -1q-145 0 -205 22l19 124h221z" />
    <glyph glyph-name="four.smcp" horiz-adv-x="561" 
d="M44 198l232 372h172l-187 -309h104l17 105l52 90h126l-31 -195h60l-19 -127l-64 -18l-18 -114h-164l18 114h-267z" />
    <glyph glyph-name="five.smcp" horiz-adv-x="525" 
d="M304 146q36 0 44 21q3 6 4 15l3 20q4 22 -1.5 29.5t-31.5 7.5h-50q-45 0 -51 -37h-137l75 368h393l-24 -149h-254l-20 -83q27 24 76 26q3 1 49 1q85 0 119 -46q24 -33 24 -85q0 -19 -4 -42l-7 -48q-14 -86 -68 -117q-49 -28 -145 -28q-161 0 -244 24l20 123h230z" />
    <glyph glyph-name="six.smcp" horiz-adv-x="534" 
d="M261 349q63 12 141 12t108 -47q22 -35 22 -80q0 -16 -3 -34l-9 -56q-24 -145 -160 -145h-117q-72 0 -115 39q-42 38 -49 147q-1 11 -1 40.5t10.5 91.5t28.5 109.5t39 75.5t48 45q45 29 105 29q185 0 257 -15l-21 -135h-214q-39 0 -54 -26q-11 -20 -16 -51zM238 197
q0 -48 36 -48h49q18 0 26.5 6.5t11.5 26.5l3 27q1 6 1 13t-4.5 11.5t-22.5 4.5h-95q-5 -22 -5 -41z" />
    <glyph glyph-name="seven.smcp" horiz-adv-x="477" 
d="M87 421l23 149h392l35 -70l-263 -500h-176l223 421h-234z" />
    <glyph glyph-name="eight.smcp" horiz-adv-x="554" 
d="M126 305.5q-13 19.5 -15.5 36t-2.5 27.5t2 21l4 43q14 88 59 117q40 25 113 25h166q68 0 102 -38q24 -28 24 -78q0 -19 -4 -41l-6 -36q-9 -50 -45 -73q-13 -9 -29 -12q27 -7 38 -40q7 -23 7 -39t-1 -26l-12 -70q-17 -109 -121 -120q-17 -2 -39 -2h-178q-71 0 -97 34
q-24 32 -24 66q0 6 4 45l9 55q4 31 16.5 44.5t24.5 19.5q16 8 40 14q-22 8 -35 27.5zM236 156.5q0 -5.5 3 -11.5q5 -10 35 -10h53q27 0 33 9.5t8 23.5l4 27q3 20 -3 27t-25 7h-62q-17 0 -26.5 -6.5t-12.5 -24.5l-5 -28q-2 -8 -2 -13.5zM271 371q0 -24 29 -24h65q27 0 33 17
q2 6 3 14l5 30q1 6 1 11t-2 11q-4 10 -27 10h-60q-20 0 -29.5 -5.5t-12.5 -26.5l-4 -27q-1 -5 -1 -10z" />
    <glyph glyph-name="nine.smcp" horiz-adv-x="533" 
d="M366 226q-80 -12 -158 -12q-36 0 -61 14t-36 38q-17 35 -17 64t4 48l9 56q13 78 53.5 110t105.5 32h118q72 0 115 -40q49 -46 49 -171q0 -47 -10 -109.5t-28 -110t-39 -75t-48 -43.5q-45 -28 -105 -28q-185 0 -258 15l22 135h214q39 0 54 26q11 20 16 51zM388 375
q0 51 -37 51h-49q-18 0 -25.5 -6.5t-10.5 -27.5l-4 -26q-1 -6 -1 -13t4.5 -11.5t22.5 -4.5h96q4 21 4 38z" />
    <glyph glyph-name="question.smcp" horiz-adv-x="463" 
d="M292 224l-5 -35h-121l22 145h46.5t50 0.5t34.5 7.5t13 26l2 15v15q0 22 -48 22h-206l20 133q113 21 205 21q18 0 35 -1q91 0 132 -48q31 -35 31 -97q0 -21 -3 -45l-4 -26q-13 -81 -67 -115q-38 -23 -89 -23q-23 0 -48 5zM169 150h98q22 0 22 -18q0 -3 -1 -7l-16 -102
q-4 -23 -29 -23h-98q-11 0 -16.5 6.5t-4.5 16.5l17 102q3 25 28 25z" />
    <glyph glyph-name="at.smcp" horiz-adv-x="906" 
d="M400 739h360q175 0 175 -177q0 -32 -5 -68l-47 -317q-14 -94 -72 -128q-47 -28 -129 -28h-107l-24 52q-44 -59 -121 -59q-95 0 -137 76q-26 50 -26 127q0 40 8.5 96.5t27.5 104t41.5 75t51.5 43.5q49 27 109.5 27t100.5 -6q82 -14 132 -61l-50 -349q26 0 38 6
q25 11 36 84l40 272q4 23 4 49t-12 40q-18 21 -69 21h-352q-93 0 -114 -79q-3 -13 -6 -31l-73 -460q-2 -14 -2 -35t12 -38q18 -26 78 -26h386l-17 -99q-135 -27 -292 -27h-90q-109 0 -157 50q-50 51 -50 123q0 33 4 67l75 475q19 119 91 161q65 39 182 39zM408 160.5
q14 -20.5 46 -20.5q86 0 114 68l34 222q-40 8 -90 8t-75 -33t-33 -95q-10 -75 -10 -102t14 -47.5z" />
    <glyph glyph-name="a.smcp" horiz-adv-x="612" 
d="M24 0l278 570h201l87 -570h-159l-18 103h-168l-49 -103h-172zM303 230h97l-24 145z" />
    <glyph glyph-name="b.smcp" horiz-adv-x="549" 
d="M414 571q94 0 138 -40q34 -32 34 -87q0 -16 -3 -34q-10 -59 -38 -88t-67 -31q36 -6 56 -46q15 -27 15 -53.5t-4.5 -54t-17.5 -54t-31 -42.5t-45 -26q-46 -15 -126 -15h-271l90 571h270zM332 135q44 0 51 52q1 8 1 19.5t-6.5 22t-39 10.5h-55.5h-27l-16 -104h92zM366 351
q24 0 35 10q15 15 15 37.5t-7 30.5t-29 8h-93l-13 -86h92z" />
    <glyph glyph-name="c.smcp" horiz-adv-x="512" 
d="M165 518q60 60 197 60t214 -32l-17 -112q-21 4 -79 11t-94 7t-57 -7t-34.5 -17.5t-22.5 -32.5q-14 -33 -19.5 -69t-8 -51t-3.5 -24t-3 -25t-1.5 -24.5t2 -21t6 -19.5t11 -15.5t16.5 -12.5q52 -21 212 2l28 4l-18 -109q-52 -22 -98 -28t-110.5 -6t-97 9.5t-53.5 25.5
t-35 41q-27 49 -27 130q0 47 11 120q21 136 81 196z" />
    <glyph glyph-name="d.smcp" horiz-adv-x="582" 
d="M356 0h-25h-277l91 572h274q52 -1 89.5 -19.5t56.5 -47.5q36 -55 36 -152q0 -133 -41 -231q-17 -42 -55 -78q-21 -21 -66 -35q-28 -9 -83 -9zM437 346q0 84 -59 84h-92l-46 -288h92q48 0 70 43q19 37 27 85.5t8 75.5z" />
    <glyph glyph-name="e.smcp" horiz-adv-x="510" 
d="M317 430q-21 0 -27.5 -6.5t-9.5 -25.5l-8 -46l225 -8l-19 -121l-227 -7l-7 -44q-3 -20 5 -26t26 -6h229l-20 -125q-78 -17 -255 -17h-3h-59q-53 1 -75.5 26t-22.5 61q0 13 2 28l53 338q19 119 153 120q225 -3 293 -16l-20 -125h-233z" />
    <glyph glyph-name="f.smcp" horiz-adv-x="511" 
d="M318 430q-21 0 -27.5 -6.5t-10.5 -25.5l-9 -62l225 -8l-19 -120l-228 -8l-31 -200h-164l71 451q19 119 153 120q225 -3 292 -16l-19 -125h-233z" />
    <glyph glyph-name="g.smcp" horiz-adv-x="563" 
d="M327 579q25 1 62 1t103 -5t109 -21l-18 -114q-102 12 -166 12t-80.5 -2.5t-32 -10.5t-24.5 -27q-20 -40 -33 -124q-1 -3 -3 -15.5t-3.5 -23.5t-2.5 -30.5t2 -30.5t10 -23q12 -24 48 -24t62 12.5t33 32.5l7 47h-72l13 87q67 17 173 17q30 0 66 -3l-53 -334h-123l-31 44
q-27 -27 -59.5 -39t-76 -12t-69 10t-42 24.5t-28 38t-17.5 44.5t-8 50.5t-2 48t3 45.5q19 189 84 260q53 60 169 65z" />
    <glyph glyph-name="h.smcp" horiz-adv-x="581" 
d="M53 -1l90 571h164l-35 -220h161l35 220h164l-90 -571h-164l32 201h-161l-32 -201h-164z" />
    <glyph glyph-name="i.smcp" horiz-adv-x="257" 
d="M54 0l90 570h164l-90 -570h-164z" />
    <glyph glyph-name="j.smcp" horiz-adv-x="336" 
d="M48 150h31t43 6.5t31.5 21.5t15.5 47l55 345h164l-64 -405q-7 -45 -29.5 -88.5t-62.5 -60.5q-51 -21 -101 -21q-65 0 -104 26z" />
    <glyph glyph-name="k.smcp" horiz-adv-x="578" 
d="M53 -1l90 571h156l-35 -224h48l155 224h179l-195 -300l112 -271h-175l-88 213h-57l-34 -213h-156z" />
    <glyph glyph-name="l.smcp" horiz-adv-x="503" 
d="M309 149h195l-23 -149h-296q-58 0 -85.5 28.5t-27.5 72.5q0 14 2 30l70 439h164l-58 -364q-4 -23 -1 -31l4.5 -12t7 -7t9 -4.5t11.5 -1.5q11 -1 28 -1z" />
    <glyph glyph-name="m.smcp" horiz-adv-x="776" 
d="M37 0l143 571h214l28 -346l137 346h219l-38 -571h-161l19 330l-123 -330h-167l-26 329l-80 -329h-165z" />
    <glyph glyph-name="n.smcp" horiz-adv-x="601" 
d="M54 0l90 571h161l140 -293l44 293h163l-90 -571h-160l-138 290l-46 -290h-164z" />
    <glyph glyph-name="o.smcp" horiz-adv-x="594" 
d="M291.5 569.5q37.5 5.5 83.5 5.5t75 -3.5t56 -12.5t46 -24q60 -48 60 -163q0 -46 -9 -105t-23.5 -104t-35.5 -74.5t-44 -48.5t-56 -29q-57 -16 -119 -16t-91 3.5t-55.5 13t-45.5 24.5q-61 49 -61 165q0 44 10 107t30 113t44 80t61 46.5t74.5 22zM263 362.5
q-10 -28.5 -17 -75.5t-7 -75.5t6 -41.5q14 -26 74 -26q38 0 59 10q43 20 61 133q8 45 8 68.5t-3 37.5t-15 21q-19 12 -56 12t-53 -3.5t-31.5 -17.5t-25.5 -42.5z" />
    <glyph glyph-name="p.smcp" horiz-adv-x="529" 
d="M409 569q84 0 126 -48q31 -35 31 -102q0 -79 -28 -137q-18 -37 -35.5 -55t-46.5 -28t-45.5 -11.5t-31.5 -1.5t-16.5 -0.5t-13.5 -0.5t-62 5t-51 8l-31 -198h-165l90 569h279zM342 304q22 0 35 14t17 39t4 36q0 42 -36 42h-88l-21 -131h89z" />
    <glyph glyph-name="q.smcp" horiz-adv-x="594" 
d="M292 569.5q38 5.5 83.5 5.5t74.5 -3.5t56 -12t46 -23.5q60 -46 60 -161q0 -46 -9 -105t-23.5 -103.5t-35.5 -75t-44 -50t-56 -29.5q-57 -17 -119 -17t-90.5 3.5t-55.5 12.5t-46 24q-61 47 -61 162q0 44 10 107t29.5 113.5t44.5 81.5t61.5 48t74.5 22.5zM263 362.5
q-10 -28.5 -17 -75.5t-7 -75.5t6 -41.5q14 -26 74 -26q38 0 59 10q43 20 61 133q8 45 8 68.5t-3 37.5t-15 21q-19 12 -56 12t-53 -3.5t-31.5 -17.5t-25.5 -42.5zM413 -76q33 0 82 12l-20 -125q-35 -5 -69 -5t-64.5 11t-52.5 29q-41 33 -41 97q0 11 2 24h89q8 -43 74 -43z
" />
    <glyph glyph-name="r.smcp" 
d="M399 570q83 0 129 -52q36 -39 36 -110q0 -22 -4 -47q-10 -77 -36 -110t-68 -45l70 -206h-172l-51 192q-66 5 -67 8l-32 -200h-164l90 570h269zM396 392q0 44 -36 44h-86l-21 -131h87q21 0 34 14t17.5 38.5t4.5 34.5z" />
    <glyph glyph-name="s.smcp" horiz-adv-x="538" 
d="M324 124q19 0 27.5 9.5t10.5 18.5l5 28q3 23 -10 27q-7 2 -19 2h-115q-132 0 -132 125q0 21 3 44l7 43q17 112 106 141q34 11 85.5 11t134 -5.5t135.5 -18.5l-18 -117q-130 8 -240 8q-34 0 -40 -35l-4 -23q-2 -19 4.5 -25t25.5 -6h122q124 0 124 -124q0 -23 -4 -50
l-7 -40q-14 -89 -61 -120q-42 -27 -108 -27q-256 0 -295 25l18 115q143 -6 245 -6z" />
    <glyph glyph-name="t.smcp" horiz-adv-x="522" 
d="M90 421l24 149h476l-24 -149h-156l-67 -421h-164l67 421h-156z" />
    <glyph glyph-name="u.smcp" horiz-adv-x="595" 
d="M396.5 167.5q23.5 23.5 34.5 92.5l49 310h165l-49 -332q-22 -142 -89 -194q-43 -33 -82 -40q-130 -23 -222 6q-48 15 -83 59q-28 36 -34 122q-1 9 -1 30t8 61l49 288h165l-49 -310q-16 -95 29 -111q16 -5 51 -5t58.5 23.5z" />
    <glyph glyph-name="v.smcp" horiz-adv-x="614" 
d="M114 570h170l52 -372l169 372h176l-269 -570h-201z" />
    <glyph glyph-name="w.smcp" horiz-adv-x="848" 
d="M114 570h170l31 -373l143 373h170l-63 -148l38 -225l143 373h171l-242 -570h-201l-21 153l-66 -153h-202z" />
    <glyph glyph-name="x.smcp" horiz-adv-x="600" 
d="M24 0l220 292l-127 278h196l57 -156l99 156h199l-228 -295l133 -275h-189l-66 147l-96 -147h-198z" />
    <glyph glyph-name="y.smcp" horiz-adv-x="595" 
d="M114 570h172l68 -196l125 196h183l-246 -372l-31 -199h-164l31 199z" />
    <glyph glyph-name="z.smcp" horiz-adv-x="502" 
d="M24 0l24 149l288 272h-245l23 149h456l-23 -149l-277 -272h234l-24 -149h-456z" />
    <glyph glyph-name="grave.smcp" horiz-adv-x="245" 
d="M119 672h131l66 -141h-98z" />
    <glyph glyph-name="aogonek.smcp" horiz-adv-x="638" 
d="M495 -68q0 -6 1 -11q8 -31 47 -26l-13 -83q-15 -4 -30 -4t-37 7.5t-38 29.5q-19 27 -19 53t19.5 54t62.5 49h62q-55 -36 -55 -69zM24 0l278 570h201l87 -570h-159l-18 103h-168l-49 -103h-172zM303 230h97l-24 145z" />
    <glyph glyph-name="rcommaaccent.smcp" 
d="M216 -191q-10 0 -15.5 5.5t-3.5 16.5l14 89q4 25 26 25h87q18 0 18 -19v-6l-20 -121q-5 -30 -20.5 -47.5t-34.5 -22.5q-22 -5 -40 -5t-29 2l-13 4l8 49q24 -1 29 11q1 4 4 19h-10zM399 570q83 0 129 -52q36 -39 36 -110q0 -22 -4 -47q-10 -77 -36 -110t-68 -45l70 -206
h-172l-51 192q-66 5 -67 8l-32 -200h-164l90 570h269zM396 392q0 44 -36 44h-86l-21 -131h87q21 0 34 14t17.5 38.5t4.5 34.5z" />
    <glyph glyph-name="itilde.smcp" horiz-adv-x="257" 
d="M304 727h15.5t40 11.5t44.5 27.5l15 -66q-69 -70 -124 -70q-20 0 -39 9t-36.5 17.5t-38.5 8.5q-38 0 -94 -35l-16 60q70 72 133 72q24 0 53.5 -17.5t46.5 -17.5zM54 0l90 570h164l-90 -570h-164z" />
    <glyph glyph-name="lcommaaccent.smcp" horiz-adv-x="503" 
d="M205 -202q-10 0 -15.5 5.5t-3.5 16.5l14 89q4 24 26 24h86q19 0 19 -18q0 -3 -1 -6l-19 -121q-7 -43 -35 -60q-25 -16 -52 -16q-28 0 -50 6l8 49q19 0 24 6q5 7 8 25h-9zM309 149h195l-23 -149h-296q-58 0 -85.5 28.5t-27.5 72.5q0 14 2 30l70 439h164l-58 -364
q-4 -23 -1 -31l4.5 -12t7 -7t9 -4.5t11.5 -1.5q11 -1 28 -1z" />
    <glyph glyph-name="dieresis.smcp" horiz-adv-x="444" 
d="M193 643q40 0 53 -30q4 -10 4 -18t-2 -19t-12.5 -25.5t-26 -22.5t-31.5 -8q-36 0 -49 31q-4 10 -4 18q0 34 23.5 54t44.5 20zM448 643q40 0 53 -30q4 -10 4 -18q0 -34 -23.5 -54.5t-49 -20.5t-39 16t-13.5 28q0 39 23.5 59t44.5 20z" />
    <glyph glyph-name="scaron.smcp" horiz-adv-x="538" 
d="M227 770h99l41 -58l63 58h111l-126 -137h-112zM324 124q19 0 27.5 9.5t10.5 18.5l5 28q3 23 -10 27q-7 2 -19 2h-115q-132 0 -132 125q0 21 3 44l7 43q17 112 106 141q34 11 85.5 11t134 -5.5t135.5 -18.5l-18 -117q-130 8 -240 8q-34 0 -40 -35l-4 -23q-2 -19 4.5 -25
t25.5 -6h122q124 0 124 -124q0 -23 -4 -50l-7 -40q-14 -89 -61 -120q-42 -27 -108 -27q-256 0 -295 25l18 115q143 -6 245 -6z" />
    <glyph glyph-name="emacron.smcp" horiz-adv-x="510" 
d="M221 632l14 86h292l-14 -86h-292zM317 430q-21 0 -27.5 -6.5t-9.5 -25.5l-8 -46l225 -8l-19 -121l-227 -7l-7 -44q-3 -20 5 -26t26 -6h229l-20 -125q-78 -17 -255 -17h-3h-59q-53 1 -75.5 26t-22.5 61q0 13 2 28l53 338q19 119 153 120q225 -3 293 -16l-20 -125h-233z
" />
    <glyph glyph-name="gcommaaccent.smcp" horiz-adv-x="563" 
d="M327 579q25 1 62 1t103 -5t109 -21l-18 -114q-102 12 -166 12t-80.5 -2.5t-32 -10.5t-24.5 -27q-20 -40 -33 -124q-1 -3 -3 -15.5t-3.5 -23.5t-2.5 -30.5t2 -30.5t10 -23q12 -24 48 -24t62 12.5t33 32.5l7 47h-72l13 87q67 17 173 17q30 0 66 -3l-53 -334h-123l-31 44
q-27 -27 -59.5 -39t-76 -12t-69 10t-42 24.5t-28 38t-17.5 44.5t-8 50.5t-2 48t3 45.5q19 189 84 260q53 60 169 65zM268 -67h86q18 0 18 -18v-6l-20 -121q-4 -30 -20 -48t-35 -22q-21 -5 -39.5 -5t-29.5 2l-12 3l8 49q23 0 28 11q2 4 4 20h-10q-10 0 -15.5 5.5t-3.5 16.5
l14 89q4 24 27 24z" />
    <glyph glyph-name="tbar.smcp" horiz-adv-x="517" 
d="M33 422l24 148h471l-24 -148h-154l-16 -100h90l-12 -69h-89l-41 -253h-164l41 253h-93l12 69h92l16 100h-153z" />
    <glyph glyph-name="zcaron.smcp" horiz-adv-x="502" 
d="M212 768h99l41 -59l63 59h111l-126 -137h-112zM24 0l24 149l288 272h-245l23 149h456l-23 -149l-277 -272h234l-24 -149h-456z" />
    <glyph glyph-name="macron.smcp" horiz-adv-x="359" 
d="M111 493l14 86h292l-14 -86h-292z" />
    <glyph glyph-name="degree.smcp" horiz-adv-x="267" 
d="M166 554.5q25 12.5 60 12.5t59 -27.5t24 -61.5q0 -50 -35 -80t-77.5 -30t-67 27t-24.5 61.5t18 60t43 38zM183.5 494.5q-12.5 -11.5 -14 -21t-1.5 -17t9.5 -17.5t26 -10t28.5 11q14 13 14 29t-9 26.5t-25 10.5t-28.5 -11.5z" />
    <glyph glyph-name="acute.smcp" horiz-adv-x="243" 
d="M97 531l107 141h133l-141 -141h-99z" />
    <glyph glyph-name="caron.smcp" horiz-adv-x="377" 
d="M140 676h98l40 -61l69 61h103l-122 -145h-116z" />
    <glyph glyph-name="eng.smcp" horiz-adv-x="600" 
d="M314 -213q-16 0 -34 1l19 111q40 0 59.5 13t28.5 58l5 32l-136 278l-46 -281h-163l90 572h161l140 -277l43 277h163l-98 -618q-16 -97 -80 -134q-55 -32 -152 -32z" />
    <glyph glyph-name="amacron.smcp" horiz-adv-x="612" 
d="M263 630l14 86h292l-14 -86h-292zM24 0l278 570h201l87 -570h-159l-18 103h-168l-49 -103h-172zM303 230h97l-24 145z" />
    <glyph glyph-name="aacute.smcp" horiz-adv-x="612" 
d="M363 630l107 140h132l-140 -140h-99zM24 0l278 570h201l87 -570h-159l-18 103h-168l-49 -103h-172zM303 230h97l-24 145z" />
    <glyph glyph-name="acircumflex.smcp" horiz-adv-x="612" 
d="M255 630l126 138h116l73 -138h-100l-37 59l-66 -59h-112zM24 0l278 570h201l87 -570h-159l-18 103h-168l-49 -103h-172zM303 230h97l-24 145z" />
    <glyph glyph-name="atilde.smcp" horiz-adv-x="612" 
d="M483 727h14.5t40 11.5t45.5 27.5l14 -66q-69 -70 -124 -70q-24 0 -57 17.5t-56 17.5q-39 0 -95 -35l-16 60q70 72 134 72q23 0 52.5 -17.5t47.5 -17.5zM24 0l278 570h201l87 -570h-159l-18 103h-168l-49 -103h-172zM303 230h97l-24 145z" />
    <glyph glyph-name="adieresis.smcp" horiz-adv-x="612" 
d="M305.5 754q25.5 0 39 -16t13.5 -28q0 -39 -23.5 -59.5t-44.5 -20.5q-40 0 -53 31q-4 10 -4 18q0 34 23.5 54.5t49 20.5zM560.5 754q25.5 0 39 -16t13.5 -28q0 -39 -23.5 -59.5t-49 -20.5t-39 16.5t-13.5 28.5q0 38 23.5 58.5t49 20.5zM24 0l278 570h201l87 -570h-159
l-18 103h-168l-49 -103h-172zM303 230h97l-24 145z" />
    <glyph glyph-name="aring.smcp" horiz-adv-x="612" 
d="M420 769q-42 0 -76 -31t-34 -79q0 -36 26.5 -63.5t69 -27.5t75.5 31t33 79q0 36 -26 63.5t-68 27.5zM409 630q-16 0 -26.5 11t-8.5 30.5t22 31.5q9 5 22.5 5t23.5 -11.5t8.5 -28t-13.5 -27.5t-28 -11zM24 0l278 570h201l87 -570h-159l-18 103h-168l-49 -103h-172z
M303 230h97l-24 145z" />
    <glyph glyph-name="ae.smcp" horiz-adv-x="803" 
d="M621 430q-21 0 -27.5 -7t-9.5 -26l-8 -47l216 -8l-19 -120l-219 -8l-6 -44q-3 -20 4.5 -25.5t26.5 -5.5l219 -1l-20 -124q-77 -17 -239 -17h-4h-55h-4q-47 0 -75.5 22.5t-28.5 62.5q0 10 2 22l3 25h-109l-74 -129h-178l257 454q32 58 84 81q57 26 98 30q55 5 88 5h39
q215 -3 282 -16l-20 -124h-223zM330 240h64l26 156z" />
    <glyph glyph-name="iogonek.smcp" horiz-adv-x="257" 
d="M116 -68q0 -6 1 -11q8 -31 47 -26l-13 -83q-15 -4 -30 -4t-37 7.5t-38 29.5q-19 27 -19 53t19.5 54t62.5 49h61q-54 -36 -54 -69zM54 0l90 570h164l-90 -570h-164z" />
    <glyph glyph-name="ccaron.smcp" horiz-adv-x="512" 
d="M237 779h99l41 -59l63 59h112l-126 -137h-113zM165 518q60 60 197 60t214 -32l-17 -112q-21 4 -79 11t-94 7t-57 -7t-34.5 -17.5t-22.5 -32.5q-14 -33 -19.5 -69t-8 -51t-3.5 -24t-3 -25t-1.5 -24.5t2 -21t6 -19.5t11 -15.5t16.5 -12.5q52 -21 212 2l28 4l-18 -109
q-52 -22 -98 -28t-110.5 -6t-97 9.5t-53.5 25.5t-35 41q-27 49 -27 130q0 47 11 120q21 136 81 196z" />
    <glyph glyph-name="eacute.smcp" horiz-adv-x="510" 
d="M325 631l107 141h132l-140 -141h-99zM317 430q-21 0 -27.5 -6.5t-9.5 -25.5l-8 -46l225 -8l-19 -121l-227 -7l-7 -44q-3 -20 5 -26t26 -6h229l-20 -125q-78 -17 -255 -17h-3h-59q-53 1 -75.5 26t-22.5 61q0 13 2 28l53 338q19 119 153 120q225 -3 293 -16l-20 -125h-233z
" />
    <glyph glyph-name="eogonek.smcp" horiz-adv-x="510" 
d="M429 -54q0 -5 1 -10q8 -31 47 -27l-13 -82q-15 -4 -30 -4t-37 7t-38 29q-19 28 -19 54t19.5 53.5t62.5 48.5h61q-54 -35 -54 -69zM317 430q-21 0 -27.5 -6.5t-9.5 -25.5l-8 -46l225 -8l-19 -121l-227 -7l-7 -44q-3 -20 5 -26t26 -6h229l-20 -125q-78 -17 -255 -17h-3h-59
q-53 1 -75.5 26t-22.5 61q0 13 2 28l53 338q19 119 153 120q225 -3 293 -16l-20 -125h-233z" />
    <glyph glyph-name="edieresis.smcp" horiz-adv-x="510" 
d="M259 744q26 0 39.5 -16t13.5 -28q0 -38 -23.5 -59t-44.5 -21q-40 0 -53 32q-5 10 -5 18q0 34 23.5 54t49.5 20zM514 744q26 0 39.5 -16t13.5 -28q0 -38 -23.5 -59t-44.5 -21q-40 0 -53 32q-5 10 -5 18q0 34 23.5 54t49.5 20zM317 430q-21 0 -27.5 -6.5t-9.5 -25.5l-8 -46
l225 -8l-19 -121l-227 -7l-7 -44q-3 -20 5 -26t26 -6h229l-20 -125q-78 -17 -255 -17h-3h-59q-53 1 -75.5 26t-22.5 61q0 13 2 28l53 338q19 119 153 120q225 -3 293 -16l-20 -125h-233z" />
    <glyph glyph-name="edotaccent.smcp" horiz-adv-x="510" 
d="M351 763h80q23 0 19 -25l-14 -84q-3 -23 -26 -23h-80q-10 0 -16 6.5t-4 16.5l13 84q3 25 28 25zM317 430q-21 0 -27.5 -6.5t-9.5 -25.5l-8 -46l225 -8l-19 -121l-227 -7l-7 -44q-3 -20 5 -26t26 -6h229l-20 -125q-78 -17 -255 -17h-3h-59q-53 1 -75.5 26t-22.5 61
q0 13 2 28l53 338q19 119 153 120q225 -3 293 -16l-20 -125h-233z" />
    <glyph glyph-name="iacute.smcp" horiz-adv-x="257" 
d="M174 630l107 140h132l-140 -140h-99zM54 0l90 570h164l-90 -570h-164z" />
    <glyph glyph-name="icircumflex.smcp" horiz-adv-x="257" 
d="M74 630l126 138h116l72 -138h-99l-38 59l-66 -59h-111zM54 0l90 570h164l-90 -570h-164z" />
    <glyph glyph-name="imacron.smcp" horiz-adv-x="257" 
d="M89 630l13 86h292l-13 -86h-292zM54 0l90 570h164l-90 -570h-164z" />
    <glyph glyph-name="dcroat.smcp" horiz-adv-x="604" 
d="M386 0h-20.5h-18.5h-273l41 256h-61l11 68h61l39 248h267q52 -1 90 -19.5t58 -47.5q38 -56 38 -149q0 -95 -30 -193q-23 -74 -64 -117q-19 -20 -38 -28q-43 -19 -73 -19zM452 346q0 84 -58 84h-87l-17 -106h71l-11 -68h-71l-18 -114h87q48 0 70 43q19 37 26.5 85.5
t7.5 75.5z" />
    <glyph glyph-name="ncommaaccent.smcp" horiz-adv-x="601" 
d="M238 -191q-10 0 -15.5 5.5t-3.5 16.5l14 89q4 25 27 25h86q18 0 18 -19v-6l-20 -121q-4 -30 -20 -47.5t-35 -22.5q-21 -5 -39.5 -5t-29.5 2l-12 4l8 49q23 -1 28 11q2 4 4 19h-10zM54 0l90 571h161l140 -293l44 293h163l-90 -571h-160l-138 290l-46 -290h-164z" />
    <glyph glyph-name="omacron.smcp" horiz-adv-x="594" 
d="M248 635l14 85h292l-14 -85h-292zM291.5 569.5q37.5 5.5 83.5 5.5t75 -3.5t56 -12.5t46 -24q60 -48 60 -163q0 -46 -9 -105t-23.5 -104t-35.5 -74.5t-44 -48.5t-56 -29q-57 -16 -119 -16t-91 3.5t-55.5 13t-45.5 24.5q-61 49 -61 165q0 44 10 107t30 113t44 80t61 46.5
t74.5 22zM263 362.5q-10 -28.5 -17 -75.5t-7 -75.5t6 -41.5q14 -26 74 -26q38 0 59 10q43 20 61 133q8 45 8 68.5t-3 37.5t-15 21q-19 12 -56 12t-53 -3.5t-31.5 -17.5t-25.5 -42.5z" />
    <glyph glyph-name="kcommaaccent.smcp" horiz-adv-x="578" 
d="M230 -191q-10 0 -15.5 5.5t-3.5 16.5l14 89q4 25 26 25h87q18 0 18 -19q0 -2 -1 -6l-19 -121q-7 -43 -35 -60q-25 -15 -52 -15t-50 6l8 49q23 -1 28 11q2 4 5 19h-10zM53 -1l90 571h156l-35 -224h48l155 224h179l-195 -300l112 -271h-175l-88 213h-57l-34 -213h-156z" />
    <glyph glyph-name="ocircumflex.smcp" horiz-adv-x="594" 
d="M237 635l126 137h116l72 -137h-99l-38 59l-66 -59h-111zM291.5 569.5q37.5 5.5 83.5 5.5t75 -3.5t56 -12.5t46 -24q60 -48 60 -163q0 -46 -9 -105t-23.5 -104t-35.5 -74.5t-44 -48.5t-56 -29q-57 -16 -119 -16t-91 3.5t-55.5 13t-45.5 24.5q-61 49 -61 165q0 44 10 107
t30 113t44 80t61 46.5t74.5 22zM263 362.5q-10 -28.5 -17 -75.5t-7 -75.5t6 -41.5q14 -26 74 -26q38 0 59 10q43 20 61 133q8 45 8 68.5t-3 37.5t-15 21q-19 12 -56 12t-53 -3.5t-31.5 -17.5t-25.5 -42.5z" />
    <glyph glyph-name="otilde.smcp" horiz-adv-x="594" 
d="M464 732h15t40 11.5t45 27.5l14 -66q-68 -70 -124 -70q-24 0 -57 17.5t-56 17.5q-39 0 -94 -35l-16 61q70 71 133 71q24 0 53.5 -17.5t46.5 -17.5zM291.5 569.5q37.5 5.5 83.5 5.5t75 -3.5t56 -12.5t46 -24q60 -48 60 -163q0 -46 -9 -105t-23.5 -104t-35.5 -74.5
t-44 -48.5t-56 -29q-57 -16 -119 -16t-91 3.5t-55.5 13t-45.5 24.5q-61 49 -61 165q0 44 10 107t30 113t44 80t61 46.5t74.5 22zM263 362.5q-10 -28.5 -17 -75.5t-7 -75.5t6 -41.5q14 -26 74 -26q38 0 59 10q43 20 61 133q8 45 8 68.5t-3 37.5t-15 21q-19 12 -56 12
t-53 -3.5t-31.5 -17.5t-25.5 -42.5z" />
    <glyph glyph-name="odieresis.smcp" horiz-adv-x="594" 
d="M286.5 758q25.5 0 39 -15.5t13.5 -27.5q0 -39 -23.5 -59.5t-44.5 -20.5q-40 0 -53 31q-4 10 -4 18q0 34 23.5 54t49 20zM541.5 758q25.5 0 39 -15.5t13.5 -27.5q0 -39 -23.5 -59.5t-44.5 -20.5q-40 0 -53 31q-4 10 -4 18q0 34 23.5 54t49 20zM291.5 569.5
q37.5 5.5 83.5 5.5t75 -3.5t56 -12.5t46 -24q60 -48 60 -163q0 -46 -9 -105t-23.5 -104t-35.5 -74.5t-44 -48.5t-56 -29q-57 -16 -119 -16t-91 3.5t-55.5 13t-45.5 24.5q-61 49 -61 165q0 44 10 107t30 113t44 80t61 46.5t74.5 22zM263 362.5q-10 -28.5 -17 -75.5t-7 -75.5
t6 -41.5q14 -26 74 -26q38 0 59 10q43 20 61 133q8 45 8 68.5t-3 37.5t-15 21q-19 12 -56 12t-53 -3.5t-31.5 -17.5t-25.5 -42.5z" />
    <glyph glyph-name="oslash.smcp" horiz-adv-x="595" 
d="M103 68q-26 44 -26 106t11 127.5t30.5 116t44 81.5t61.5 48t75 22.5t114 5.5t122 -22l15 18l80 -1l-48 -54q32 -44 32 -132q0 -49 -10 -111t-24.5 -106.5t-35.5 -75t-44 -50t-56 -29.5q-57 -17 -154 -17t-145 31l-22 -26h-80zM269.5 362.5q-9.5 -28.5 -15.5 -66t-6 -50
v-16.5l170 192q-12 4 -43.5 4t-47.5 -3.5t-32 -17.5t-25.5 -42.5zM262 156q16 -12 56.5 -12t60.5 10q42 19 61 133q6 38 6 53.5t-1 21.5z" />
    <glyph glyph-name="uogonek.smcp" horiz-adv-x="583" 
d="M292 -70q0 -6 1 -11q8 -31 47 -26l-13 -83q-15 -4 -30 -4t-37 7.5t-38 29.5q-19 27 -19 53t19.5 54t62.5 49h61q-54 -36 -54 -69zM396.5 167.5q-23.5 -23.5 -58.5 -23.5t-51 5q-45 16 -29 111l49 310h-165l-49 -288q-8 -40 -8 -61t1 -30q6 -86 34 -122q35 -44 83 -59
q92 -29 222 -6q39 7 82 40q67 52 89 194l49 332h-165l-49 -310q-11 -69 -34.5 -92.5z" />
    <glyph glyph-name="uacute.smcp" horiz-adv-x="595" 
d="M354 630l107 140h132l-140 -140h-99zM396.5 167.5q23.5 23.5 34.5 92.5l49 310h165l-49 -332q-22 -142 -89 -194q-43 -33 -82 -40q-130 -23 -222 6q-48 15 -83 59q-28 36 -34 122q-1 9 -1 30t8 61l49 288h165l-49 -310q-16 -95 29 -111q16 -5 51 -5t58.5 23.5z" />
    <glyph glyph-name="ucircumflex.smcp" horiz-adv-x="595" 
d="M246 630l126 138h116l72 -138h-99l-38 59l-66 -59h-111zM396.5 167.5q23.5 23.5 34.5 92.5l49 310h165l-49 -332q-22 -142 -89 -194q-43 -33 -82 -40q-130 -23 -222 6q-48 15 -83 59q-28 36 -34 122q-1 9 -1 30t8 61l49 288h165l-49 -310q-16 -95 29 -111q16 -5 51 -5
t58.5 23.5z" />
    <glyph glyph-name="udieresis.smcp" horiz-adv-x="595" 
d="M295.5 754q25.5 0 39 -16t13.5 -28q0 -39 -23.5 -59.5t-44.5 -20.5q-39 0 -53 31q-4 10 -4 18q0 34 23.5 54.5t49 20.5zM550.5 754q25.5 0 39 -16t13.5 -28q0 -39 -23.5 -59.5t-48.5 -20.5t-39 16.5t-14 28.5q0 38 23.5 58.5t49 20.5zM396.5 167.5q23.5 23.5 34.5 92.5
l49 310h165l-49 -332q-22 -142 -89 -194q-43 -33 -82 -40q-130 -23 -222 6q-48 15 -83 59q-28 36 -34 122q-1 9 -1 30t8 61l49 288h165l-49 -310q-16 -95 29 -111q16 -5 51 -5t58.5 23.5z" />
    <glyph glyph-name="utilde.smcp" horiz-adv-x="595" 
d="M473 727h15.5t39.5 11.5t45 27.5l14 -66q-68 -70 -124 -70q-19 0 -38 9t-36.5 17.5t-39.5 8.5q-38 0 -93 -35l-16 60q70 72 133 72q24 0 53.5 -17.5t46.5 -17.5zM396.5 167.5q23.5 23.5 34.5 92.5l49 310h165l-49 -332q-22 -142 -89 -194q-43 -33 -82 -40
q-130 -23 -222 6q-48 15 -83 59q-28 36 -34 122q-1 9 -1 30t8 61l49 288h165l-49 -310q-16 -95 29 -111q16 -5 51 -5t58.5 23.5z" />
    <glyph glyph-name="umacron.smcp" horiz-adv-x="595" 
d="M257 630l14 86h292l-14 -86h-292zM396.5 167.5q23.5 23.5 34.5 92.5l49 310h165l-49 -332q-22 -142 -89 -194q-43 -33 -82 -40q-130 -23 -222 6q-48 15 -83 59q-28 36 -34 122q-1 9 -1 30t8 61l49 288h165l-49 -310q-16 -95 29 -111q16 -5 51 -5t58.5 23.5z" />
    <glyph glyph-name="germandbls.smcp" horiz-adv-x="1033" 
d="M312 124q19 0 27.5 9.5t10.5 18.5l5 28q3 23 -10 27q-7 2 -19 2h-115q-132 0 -132 125q0 21 3 44l7 43q17 112 106 141q34 11 85.5 11t134 -5.5t135.5 -18.5l-18 -117q-130 8 -240 8q-34 0 -40 -35l-4 -23q-2 -19 4.5 -25t25.5 -6h122q124 0 124 -124q0 -23 -4 -50
l-7 -40q-14 -89 -61 -120q-42 -27 -108 -27q-256 0 -295 25l18 115q143 -6 245 -6zM825 125q19 0 28 9.5t10 18.5l5 28q3 17 -3.5 23t-25.5 6h-115q-132 0 -132 125q0 20 4 44l6 43q18 112 106 141q34 11 85.5 11t134 -6t135.5 -18l-18 -117q-130 8 -239 8q-35 0 -40 -35
l-4 -24q-2 -20 3 -24q9 -6 27 -6h122q123 0 123 -124q0 -23 -4 -50l-7 -40q-13 -89 -61 -120q-42 -27 -108 -27q-256 0 -295 25l18 115q143 -6 245 -6z" />
    <glyph glyph-name="agrave.smcp" horiz-adv-x="612" 
d="M264 770h131l67 -140h-99zM24 0l278 570h201l87 -570h-159l-18 103h-168l-49 -103h-172zM303 230h97l-24 145z" />
    <glyph glyph-name="ccedilla.smcp" horiz-adv-x="512" 
d="M222 -182h-58l11 68l43 15q21 9 27.5 19.5t10.5 40.5h105q-12 -78 -42.5 -110.5t-96.5 -32.5zM165 518q60 60 197 60t214 -32l-17 -112q-21 4 -79 11t-94 7t-57 -7t-34.5 -17.5t-22.5 -32.5q-14 -33 -19.5 -69t-8 -51t-3.5 -24t-3 -25t-1.5 -24.5t2 -21t6 -19.5t11 -15.5
t16.5 -12.5q52 -21 212 2l28 4l-18 -109q-52 -22 -98 -28t-110.5 -6t-97 9.5t-53.5 25.5t-35 41q-27 49 -27 130q0 47 11 120q21 136 81 196z" />
    <glyph glyph-name="eth.smcp" horiz-adv-x="607" 
d="M375 0h-19.5h-18.5h-273l40 256h-61l11 68h62l39 248h267q52 -1 90 -19.5t58 -47.5q38 -56 38 -149q0 -95 -30 -193q-23 -74 -64 -117q-19 -20 -38 -28q-44 -19 -74 -19zM442 346q0 84 -58 84h-87l-17 -106h70l-10 -68h-72l-18 -114h88q48 0 70 43q18 37 26 85.5t8 75.5z
" />
    <glyph glyph-name="egrave.smcp" horiz-adv-x="510" 
d="M225 772h130l67 -141h-99zM317 430q-21 0 -27.5 -6.5t-9.5 -25.5l-8 -46l225 -8l-19 -121l-227 -7l-7 -44q-3 -20 5 -26t26 -6h229l-20 -125q-78 -17 -255 -17h-3h-59q-53 1 -75.5 26t-22.5 61q0 13 2 28l53 338q19 119 153 120q225 -3 293 -16l-20 -125h-233z" />
    <glyph glyph-name="ecircumflex.smcp" horiz-adv-x="510" 
d="M216 631l126 137h116l72 -137h-99l-38 59l-66 -59h-111zM317 430q-21 0 -27.5 -6.5t-9.5 -25.5l-8 -46l225 -8l-19 -121l-227 -7l-7 -44q-3 -20 5 -26t26 -6h229l-20 -125q-78 -17 -255 -17h-3h-59q-53 1 -75.5 26t-22.5 61q0 13 2 28l53 338q19 119 153 120
q225 -3 293 -16l-20 -125h-233z" />
    <glyph glyph-name="igrave.smcp" horiz-adv-x="257" 
d="M68 770h131l67 -140h-99zM54 0l90 570h164l-90 -570h-164z" />
    <glyph glyph-name="idieresis.smcp" horiz-adv-x="257" 
d="M92.5 754q25.5 0 39 -16t13.5 -28q0 -39 -23.5 -59.5t-44.5 -20.5q-40 0 -53 31q-4 10 -4 18q0 34 23.5 54.5t49 20.5zM347.5 754q25.5 0 39 -16t13.5 -28q0 -39 -23.5 -59.5t-49 -20.5t-39 16.5t-13.5 28.5q0 38 23.5 58.5t49 20.5zM38 0l90 570h164l-90 -570h-164z" />
    <glyph glyph-name="ntilde.smcp" horiz-adv-x="601" 
d="M428.5 733.5q12.5 -5.5 20 -5.5h20t40 11.5t45.5 27.5l14 -66q-69 -70 -124 -70q-24 0 -57 17.5t-56 17.5q-39 0 -95 -35l-16 61q70 71 134 71q28 0 45 -12t29.5 -17.5zM54 0l90 571h161l140 -293l44 293h163l-90 -571h-160l-138 290l-46 -290h-164z" />
    <glyph glyph-name="ograve.smcp" horiz-adv-x="594" 
d="M242 776h130l67 -141h-99zM291.5 569.5q37.5 5.5 83.5 5.5t75 -3.5t56 -12.5t46 -24q60 -48 60 -163q0 -46 -9 -105t-23.5 -104t-35.5 -74.5t-44 -48.5t-56 -29q-57 -16 -119 -16t-91 3.5t-55.5 13t-45.5 24.5q-61 49 -61 165q0 44 10 107t30 113t44 80t61 46.5t74.5 22z
M263 362.5q-10 -28.5 -17 -75.5t-7 -75.5t6 -41.5q14 -26 74 -26q38 0 59 10q43 20 61 133q8 45 8 68.5t-3 37.5t-15 21q-19 12 -56 12t-53 -3.5t-31.5 -17.5t-25.5 -42.5z" />
    <glyph glyph-name="oacute.smcp" horiz-adv-x="594" 
d="M341 635l107 141h133l-141 -141h-99zM291.5 569.5q37.5 5.5 83.5 5.5t75 -3.5t56 -12.5t46 -24q60 -48 60 -163q0 -46 -9 -105t-23.5 -104t-35.5 -74.5t-44 -48.5t-56 -29q-57 -16 -119 -16t-91 3.5t-55.5 13t-45.5 24.5q-61 49 -61 165q0 44 10 107t30 113t44 80
t61 46.5t74.5 22zM263 362.5q-10 -28.5 -17 -75.5t-7 -75.5t6 -41.5q14 -26 74 -26q38 0 59 10q43 20 61 133q8 45 8 68.5t-3 37.5t-15 21q-19 12 -56 12t-53 -3.5t-31.5 -17.5t-25.5 -42.5z" />
    <glyph glyph-name="ugrave.smcp" horiz-adv-x="595" 
d="M246 770h130l67 -140h-99zM396.5 167.5q23.5 23.5 34.5 92.5l49 310h165l-49 -332q-22 -142 -89 -194q-43 -33 -82 -40q-130 -23 -222 6q-48 15 -83 59q-28 36 -34 122q-1 9 -1 30t8 61l49 288h165l-49 -310q-16 -95 29 -111q16 -5 51 -5t58.5 23.5z" />
    <glyph glyph-name="yacute.smcp" horiz-adv-x="595" 
d="M341 630l107 140h133l-141 -140h-99zM114 570h172l68 -196l125 196h183l-246 -372l-31 -199h-164l31 199z" />
    <glyph glyph-name="thorn.smcp" horiz-adv-x="529" 
d="M386 474q51 0 82.5 -17.5t45.5 -39.5q24 -41 24 -91q0 -21 -5.5 -57.5t-21.5 -72t-33.5 -53.5t-43.5 -28q-35 -13 -90.5 -13t-111.5 16l-19 -118h-163l90 569h163l-15 -95h98zM318 240q18 0 27 3q18 8 24 49q2 10 2 20.5t-6.5 19t-30.5 8.5h-67l-15 -100h66z" />
    <glyph glyph-name="quotesinglbase.smcp" horiz-adv-x="244" 
d="M78 0q-12 0 -18 7t-4 19l16 100q5 28 30 28h97q21 0 21 -20v-8l-24 -144q-5 -35 -23.5 -57.5t-40.5 -30.5q-32 -10 -51.5 -10t-27.5 1l-14 3l10 62q14 0 22.5 7t10.5 12t4 13l3 18h-11z" />
    <glyph glyph-name="quotedblleft.smcp" horiz-adv-x="424" 
d="M187 567.5q22 7.5 37.5 9t24.5 1.5t17 -2l14 -2l-10 -63q-14 0 -22.5 -6.5t-10.5 -11.5t-3 -13l-3 -19h11q11 0 17.5 -6.5t4.5 -18.5l-16 -101q-5 -27 -31 -27h-97q-20 0 -20 20v7l23 145q5 35 23.5 57.5t40.5 30zM369 567.5q22 7.5 37.5 9t24.5 1.5t17 -2l14 -2l-10 -63
q-14 0 -22.5 -6.5t-10.5 -11.5t-3 -13l-3 -19h11q12 0 18 -6.5t4 -18.5l-16 -101q-5 -27 -31 -27h-97q-20 0 -20 20v7l23 145q6 35 24 57.5t40 30z" />
    <glyph glyph-name="quotedblright.smcp" horiz-adv-x="424" 
d="M140 424q-11 0 -17 6.5t-4 18.5l16 101q4 28 29 28h98q21 0 21 -21q0 -3 -1 -7l-23 -145q-6 -35 -24 -57.5t-40 -29.5q-32 -11 -51.5 -11t-27.5 2l-14 2l10 63q14 0 22.5 6.5t10.5 11.5t3 14l4 18h-12zM322 424q-11 0 -17 6.5t-4 18.5l16 101q4 28 29 28h98q21 0 21 -21
q0 -3 -1 -7l-23 -145q-6 -35 -24 -57.5t-40 -29.5q-32 -11 -51.5 -11t-27.5 2l-14 2l10 63q14 0 22.5 6.5t10.5 11.5t3 14l4 18h-12z" />
    <glyph glyph-name="quotedblbase.smcp" horiz-adv-x="424" 
d="M74 1q-11 0 -17.5 6.5t-4.5 18.5l16 101q5 27 30 27h97q21 0 21 -20v-7l-24 -145q-5 -35 -23.5 -57.5t-40.5 -29.5q-32 -11 -51.5 -11t-26.5 2l-15 2l10 63q14 0 22.5 6.5t10.5 11.5t4 13l3 19h-11zM256 1q-11 0 -17.5 6.5t-4.5 18.5l16 101q5 27 30 27h98q20 0 20 -20
v-7l-24 -145q-5 -35 -23.5 -57.5t-40.5 -29.5q-32 -11 -51.5 -11t-26.5 2l-15 2l10 63q14 0 22.5 6.5t10.5 11.5t4 13l3 19h-11z" />
    <glyph glyph-name="exclamdown.smcp" horiz-adv-x="273" 
d="M57 0l75 380h127l-43 -380h-159zM152 420q-19 0 -19 20q0 2 1 5l16 102q3 23 26 23h99q11 0 17 -6.5t4 -16.5l-16 -102q-4 -25 -28 -25h-100z" />
    <glyph glyph-name="ordmasculine.smcp" horiz-adv-x="414" 
d="M62 121l12 73h328l-12 -73h-328zM296 581q97 0 132 -44q24 -29 24 -88q0 -27 -8 -77t-30 -85.5t-62.5 -51t-111.5 -15.5q-96 0 -131 43q-23 31 -23 86q0 24 8 75t31 89t62 53q40 15 109 15zM215 396q-2 -27 -3.5 -37t-1.5 -17t6 -14q10 -12 36 -12t36 4q23 9 34 76
q4 34 4 51t-3 23q-6 15 -40.5 15t-46.5 -16t-21 -73z" />
    <glyph glyph-name="ordfeminine.smcp" horiz-adv-x="411" 
d="M62 122l11 74h350l-11 -74h-350zM77 228l158 343h149l45 -343h-112l-7 64h-81l-31 -64h-121zM260 373h44l-8 87z" />
    <glyph glyph-name="Euro.smcp" horiz-adv-x="520" 
d="M582 554l-18 -122q-122 11 -175 11t-74 -15.5t-27 -49.5l170 -6l-12 -68l-170 -5l-5 -29l169 -5l-11 -70q-173 -4 -171 -6q-1 -8 -1 -16.5t3.5 -18.5t16.5 -15q19 -7 52 -7q66 0 160 9l31 4l-19 -122q-69 -28 -231 -28q-62 0 -97 18t-53 38q-29 37 -29 101q0 17 2 37
l-52 6l11 70l54 5l4 29l-52 6l11 66l54 7q11 74 36 112q27 41 70 62q54 25 142.5 25t210.5 -23z" />
    <glyph glyph-name="lcaron.smcp" horiz-adv-x="493" 
d="M296 149h195l-23 -149h-296q-58 0 -85.5 28.5t-27.5 72.5q0 14 3 30l69 439h164l-57 -364q-4 -23 -1.5 -31t4.5 -12t7 -7t8.5 -4.5t12.5 -1.5q11 -1 27 -1zM332 412l10 134l10 66h104l-10 -66l-32 -134h-82z" />
    <glyph glyph-name="sacute.smcp" horiz-adv-x="538" 
d="M309 633l107 141h133l-141 -141h-99zM324 124q19 0 27.5 9.5t10.5 18.5l5 28q3 23 -10 27q-7 2 -19 2h-115q-132 0 -132 125q0 21 3 44l7 43q17 112 106 141q34 11 85.5 11t134 -5.5t135.5 -18.5l-18 -117q-130 8 -240 8q-34 0 -40 -35l-4 -23q-2 -19 4.5 -25t25.5 -6
h122q124 0 124 -124q0 -23 -4 -50l-7 -40q-14 -89 -61 -120q-42 -27 -108 -27q-256 0 -295 25l18 115q143 -6 245 -6z" />
    <glyph glyph-name="scedilla.smcp" horiz-adv-x="538" 
d="M214 -178h-59l11 68l44 15q21 9 27 19.5t11 40.5h104q-12 -78 -42.5 -110.5t-95.5 -32.5zM324 124q19 0 27.5 9.5t10.5 18.5l5 28q3 23 -10 27q-7 2 -19 2h-115q-132 0 -132 125q0 21 3 44l7 43q17 112 106 141q34 11 85.5 11t134 -5.5t135.5 -18.5l-18 -117
q-130 8 -240 8q-34 0 -40 -35l-4 -23q-2 -19 4.5 -25t25.5 -6h122q124 0 124 -124q0 -23 -4 -50l-7 -40q-14 -89 -61 -120q-42 -27 -108 -27q-256 0 -295 25l18 115q143 -6 245 -6z" />
    <glyph glyph-name="tcaron.smcp" horiz-adv-x="583" 
d="M272 773h100l40 -59l63 59h111l-126 -137h-112zM138 421l24 149h476l-24 -149h-156l-67 -421h-164l67 421h-156z" />
    <glyph glyph-name="zacute.smcp" horiz-adv-x="502" 
d="M299 630l107 140h133l-141 -140h-99zM24 0l24 149l288 272h-245l23 149h456l-23 -149l-277 -272h234l-24 -149h-456z" />
    <glyph glyph-name="zdotaccent.smcp" horiz-adv-x="502" 
d="M333 762h80q23 0 19 -25l-13 -84q-3 -23 -26 -23h-80q-11 0 -17 6.5t-4 16.5l13 84q3 25 28 25zM24 0l24 149l288 272h-245l23 149h456l-23 -149l-277 -272h234l-24 -149h-456z" />
    <glyph glyph-name="racute.smcp" 
d="M324 630l107 140h132l-140 -140h-99zM399 570q83 0 129 -52q36 -39 36 -110q0 -22 -4 -47q-10 -77 -36 -110t-68 -45l70 -206h-172l-51 192q-66 5 -67 8l-32 -200h-164l90 570h269zM396 392q0 44 -36 44h-86l-21 -131h87q21 0 34 14t17.5 38.5t4.5 34.5z" />
    <glyph glyph-name="abreve.smcp" horiz-adv-x="612" 
d="M375 742v-15.5t10.5 -24t34.5 -12.5h1q54 0 60 52h62q-6 -53 -38.5 -82.5t-83.5 -29.5t-79.5 29t-28.5 71v12h62zM24 0l278 570h201l87 -570h-159l-18 103h-168l-49 -103h-172zM303 230h97l-24 145z" />
    <glyph glyph-name="lacute.smcp" horiz-adv-x="503" 
d="M186 630l107 140h132l-140 -140h-99zM309 149h195l-23 -149h-296q-58 0 -85.5 28.5t-27.5 72.5q0 14 2 30l70 439h164l-58 -364q-4 -23 -1 -31l4.5 -12t7 -7t9 -4.5t11.5 -1.5q11 -1 28 -1z" />
    <glyph glyph-name="cacute.smcp" horiz-adv-x="512" 
d="M316 643l107 141h132l-140 -141h-99zM165 518q60 60 197 60t214 -32l-17 -112q-21 4 -79 11t-94 7t-57 -7t-34.5 -17.5t-22.5 -32.5q-14 -33 -19.5 -69t-8 -51t-3.5 -24t-3 -25t-1.5 -24.5t2 -21t6 -19.5t11 -15.5t16.5 -12.5q52 -21 212 2l28 4l-18 -109
q-52 -22 -98 -28t-110.5 -6t-97 9.5t-53.5 25.5t-35 41q-27 49 -27 130q0 47 11 120q21 136 81 196z" />
    <glyph glyph-name="ecaron.smcp" horiz-adv-x="510" 
d="M237 768h100l40 -58l63 58h112l-126 -137h-112zM317 430q-21 0 -27.5 -6.5t-9.5 -25.5l-8 -46l225 -8l-19 -121l-227 -7l-7 -44q-3 -20 5 -26t26 -6h229l-20 -125q-78 -17 -255 -17h-3h-59q-53 1 -75.5 26t-22.5 61q0 13 2 28l53 338q19 119 153 120q225 -3 293 -16
l-20 -125h-233z" />
    <glyph glyph-name="dcaron.smcp" horiz-adv-x="584" 
d="M265 770h99l41 -60l63 60h111l-126 -138h-112zM378 0h-25h-277l91 572h274q52 -1 89.5 -19.5t56.5 -47.5q36 -55 36 -152q0 -133 -41 -231q-17 -42 -55 -78q-21 -21 -66 -35q-28 -9 -83 -9zM459 346q0 84 -59 84h-92l-46 -288h92q48 0 70 43q19 37 27 85.5t8 75.5z" />
    <glyph glyph-name="nacute.smcp" horiz-adv-x="601" 
d="M358 631l107 141h133l-141 -141h-99zM54 0l90 571h161l140 -293l44 293h163l-90 -571h-160l-138 290l-46 -290h-164z" />
    <glyph glyph-name="ncaron.smcp" horiz-adv-x="601" 
d="M273 768h99l41 -58l63 58h111l-126 -137h-112zM54 0l90 571h161l140 -293l44 293h163l-90 -571h-160l-138 290l-46 -290h-164z" />
    <glyph glyph-name="ohungarumlaut.smcp" horiz-adv-x="594" 
d="M263 635l107 141h132l-140 -141h-99zM426 635l107 141h133l-141 -141h-99zM291.5 569.5q37.5 5.5 83.5 5.5t75 -3.5t56 -12.5t46 -24q60 -48 60 -163q0 -46 -9 -105t-23.5 -104t-35.5 -74.5t-44 -48.5t-56 -29q-57 -16 -119 -16t-91 3.5t-55.5 13t-45.5 24.5
q-61 49 -61 165q0 44 10 107t30 113t44 80t61 46.5t74.5 22zM263 362.5q-10 -28.5 -17 -75.5t-7 -75.5t6 -41.5q14 -26 74 -26q38 0 59 10q43 20 61 133q8 45 8 68.5t-3 37.5t-15 21q-19 12 -56 12t-53 -3.5t-31.5 -17.5t-25.5 -42.5z" />
    <glyph glyph-name="rcaron.smcp" 
d="M219 767h100l40 -59l63 59h112l-126 -137h-113zM399 570q83 0 129 -52q36 -39 36 -110q0 -22 -4 -47q-10 -77 -36 -110t-68 -45l70 -206h-172l-51 192q-66 5 -67 8l-32 -200h-164l90 570h269zM396 392q0 44 -36 44h-86l-21 -131h87q21 0 34 14t17.5 38.5t4.5 34.5z" />
    <glyph glyph-name="uring.smcp" horiz-adv-x="595" 
d="M427 831q42 0 68 -27.5t26 -63.5q0 -48 -33.5 -79t-75.5 -31t-68.5 27.5t-26.5 63.5q0 48 34 79t76 31zM388.5 703q10.5 -11 24 -11t23.5 5q19 11 21 30.5t-8 31t-26.5 11.5t-28.5 -11.5t-14 -28t8.5 -27.5zM396.5 167.5q23.5 23.5 34.5 92.5l49 310h165l-49 -332
q-22 -142 -89 -194q-43 -33 -82 -40q-130 -23 -222 6q-48 15 -83 59q-28 36 -34 122q-1 9 -1 30t8 61l49 288h165l-49 -310q-16 -95 29 -111q16 -5 51 -5t58.5 23.5z" />
    <glyph glyph-name="uhungarumlaut.smcp" horiz-adv-x="595" 
d="M272 630l107 140h132l-140 -140h-99zM435 630l107 140h133l-141 -140h-99zM396.5 167.5q23.5 23.5 34.5 92.5l49 310h165l-49 -332q-22 -142 -89 -194q-43 -33 -82 -40q-130 -23 -222 6q-48 15 -83 59q-28 36 -34 122q-1 9 -1 30t8 61l49 288h165l-49 -310
q-16 -95 29 -111q16 -5 51 -5t58.5 23.5z" />
    <glyph glyph-name="tcommaaccent.smcp" horiz-adv-x="522" 
d="M170 -190h-58l11 68l43 15q26 11 32 29q3 9 6 31h105q-13 -78 -43 -110.5t-96 -32.5zM93 421l24 149h476l-24 -149h-156l-67 -421h-164l67 421h-156z" />
    <glyph glyph-name="lslash.smcp" horiz-adv-x="514" 
d="M326 149h195l-23 -149h-296q-58 0 -85.5 28.5t-27.5 72.5q0 14 3 30l18 118l-65 -25l13 77l64 24l39 245h164l-28 -178l91 35l-12 -76l-91 -35l-17 -110q-4 -23 -1.5 -31t4.5 -12t7 -7t8.5 -4.5t12.5 -1.5q11 -1 27 -1z" />
    <glyph glyph-name="questiondown.smcp" horiz-adv-x="484" 
d="M273 350l5 34h121l-23 -145q-22 1 -46.5 1t-49.5 -0.5t-34.5 -7.5t-12.5 -27l-2 -15q-1 -5 -1 -14q0 -22 48 -22h207l-21 -134q-113 -20 -204 -20q-18 0 -36 1q-92 0 -132 42q-31 32 -31 92q0 20 4 44l4 26q13 82 68 121q40 28 92 28q21 0 44 -4zM322 574h98
q11 0 16 -6.5t4 -17.5l-16 -102q-4 -24 -28 -24h-98q-22 0 -22 17v7l17 102q4 24 29 24z" />
    <glyph glyph-name="oe.smcp" horiz-adv-x="842" 
d="M374 575q103 0 149 -30q34 26 88 26h3q225 -3 292 -16l-20 -125h-232q-21 0 -27.5 -6.5t-9.5 -25.5l-7 -46l224 -8l-19 -121l-227 -7l-7 -44q-4 -20 4 -26t27 -6h228l-20 -125q-77 -17 -255 -17h-2h-60q-40 0 -61 20q-53 -23 -153 -23q-115 0 -166 40q-61 48 -61 163
q0 44 10 107t29.5 113.5t44 81t61.5 47.5t74.5 22.5t92.5 5.5zM252.5 362.5q-9.5 -28.5 -17 -75.5t-7.5 -75.5t7 -41.5q13 -26 73 -26q39 0 60 10q43 20 61 133q7 45 7 68.5t-3 37.5t-14 21q-19 12 -56.5 12t-53.5 -3.5t-31.5 -17.5t-25 -42.5z" />
    <glyph glyph-name="ydieresis.smcp" horiz-adv-x="595" 
d="M289.5 754q25.5 0 39.5 -16t14 -28q0 -39 -23.5 -59.5t-44.5 -20.5q-40 0 -53 31q-5 10 -5 18q0 34 23.5 54.5t49 20.5zM520 749q12 5 31 5t33 -16t14 -28q0 -39 -23.5 -59.5t-49 -20.5t-39.5 16.5t-14 28.5t1.5 21t8.5 20t16.5 19.5t21.5 13.5zM114 570h172l68 -196
l125 196h183l-246 -372l-31 -199h-164l31 199z" />
    <glyph glyph-name="sterling.smcp" horiz-adv-x="513" 
d="M386 424q-40 0 -54.5 -13t-19.5 -45l-6 -32l163 -15l-15 -93h-164l-14 -86h226l-22 -140h-446l18 116l59 20l15 92h-56l13 86l59 16l7 38q23 147 129 186q44 17 106 17l184 -13l-20 -134h-162z" />
    <glyph glyph-name="yen.smcp" horiz-adv-x="549" 
d="M106 104l10 65h102l5 23h-103l10 66h75l-102 313h174l46 -206l117 206h186l-203 -313h85l-10 -66h-111l-5 -23h112l-10 -65h-111l-17 -104h-164l17 104h-103z" />
    <glyph glyph-name="perthousand.smcp" horiz-adv-x="1393" 
d="M246 576h90q70 0 97 -33q19 -24 19 -66q0 -15 -2 -33l-17 -106q-10 -68 -46.5 -100t-110.5 -32h-90q-116 0 -116 100q0 15 2 32l17 106q10 66 46 99t111 33zM186 360q-1 -8 -1 -14t1 -13q2 -17 36 -17h52q28 0 38.5 10.5t14.5 33.5l9 61q7 34 -11 42q-8 3 -25 3h-53
q-36 0 -46 -22q-4 -9 -6 -23zM288 0l370 570h112l-366 -570h-116zM788 373h88q70 0 97 -33q20 -24 20 -66q0 -15 -3 -34l-16 -105q-10 -67 -47 -100t-111 -33h-89q-117 0 -117 101q0 15 3 32l17 105q10 67 46.5 100t111.5 33zM727 158q-1 -8 -1 -18t5.5 -19t30.5 -9h53
q28 0 38.5 11t14.5 35l8 60q4 29 -2 35q-9 10 -33 10h-53q-25 0 -36.5 -9.5t-15.5 -35.5zM1202 373h90q70 0 97 -33q19 -24 19 -65q0 -16 -3 -35l-16 -105q-11 -68 -47 -100.5t-110 -32.5h-91q-115 0 -115 101q0 15 3 32l16 105q11 67 46.5 100t110.5 33zM1142 158
q-1 -8 -1 -18t5.5 -19t31.5 -9h52q28 0 37 10q13 13 16 36l9 60q2 9 2 19.5t-7 18t-32 7.5h-51q-25 0 -37 -9.5t-16 -35.5z" />
    <glyph glyph-name="circumflex.smcp" horiz-adv-x="381" 
d="M118 531l126 137h116l72 -137h-100l-44 58l-66 -58h-104z" />
    <glyph glyph-name="tilde.smcp" horiz-adv-x="412" 
d="M260 664q22 0 51 -17.5t49 -17.5h4q45 0 96 40l14 -66q-65 -72 -124 -72q-23 0 -56.5 17.5t-52.5 17.5t-36 -5q-24 -7 -63 -30l-16 61q71 72 134 72z" />
    </font>
</defs>
</svg>
