<?xml version="1.0" standalone="no"?>
<!DOCTYPE svg PUBLIC "-//W3C//DTD SVG 1.1//EN" "http://www.w3.org/Graphics/SVG/1.1/DTD/svg11.dtd" >
<svg xmlns="http://www.w3.org/2000/svg" xmlns:xlink="http://www.w3.org/1999/xlink" version="1.1">
<metadata>
Created by FontForge 20170731 at Fri Dec 26 15:21:18 2014
 By Aleksey,,,
2013 Iconian Fonts - www.iconian.com
</metadata>
<defs>
<font id="AirstrikeBold" horiz-adv-x="711" >
  <font-face 
    font-family="Airstrike Bold"
    font-weight="400"
    font-stretch="normal"
    units-per-em="1000"
    panose-1="0 0 0 0 0 0 0 0 0 0"
    ascent="800"
    descent="-200"
    x-height="530"
    cap-height="530"
    bbox="-158 -137 1342 723"
    underline-thickness="50"
    underline-position="-175"
    unicode-range="U+0020-20AC"
  />
<missing-glyph horiz-adv-x="500" 
 />
    <glyph glyph-name=".notdef" horiz-adv-x="500" 
 />
    <glyph glyph-name=".null" horiz-adv-x="0" 
 />
    <glyph glyph-name="nonmarkingreturn" horiz-adv-x="500" 
 />
    <glyph glyph-name="space" unicode=" " horiz-adv-x="279" 
 />
    <glyph glyph-name="space" unicode="&#xa0;" horiz-adv-x="279" 
 />
    <glyph glyph-name="FL0021h" unicode="!" horiz-adv-x="248" 
d="M189 162h104l130 368h-205l-131 -368h92q-32 -2 -61 -23t-42 -52q-4 -8 -4 -28q0 -26 16.5 -42.5t47.5 -16.5q17 0 33.5 6t30.5 16q23 16 35 39t12 42q0 24 -15 40.5t-43 18.5z" />
    <glyph glyph-name="FL0022h" unicode="&#x22;" horiz-adv-x="315" 
d="M194 431l13 36q11 26 36 45t53 19q49 0 55 -43q14 19 34 31t42 12q26 0 40.5 -13.5t13.5 -35.5q0 -19 -5 -26l-10 -30q-5 -12 -18 -27t-28 -28t-29.5 -22t-21.5 -9h-8q-23 0 -31 19.5t-7 41.5v6q-8 -12 -20 -23.5t-25 -21.5t-24 -16t-17 -6h-7q-23 0 -31 19.5t-7 41.5v17
q0 8 2 13z" />
    <glyph glyph-name="FL0023h" unicode="#" horiz-adv-x="741" 
d="M143 0l36 97h-138l169 156h26l8 21h-137l168 156h26l39 100h215l-37 -100h43l39 100h215l-38 -100h136l-169 -156h-25l-7 -21h136l-169 -156h-25l-36 -97h-215l35 97h-44l-36 -97h-215zM460 274l-8 -21h43l8 21h-43z" />
    <glyph glyph-name="FL0024h" unicode="$" horiz-adv-x="656" 
d="M216 -136l49 136h-226q4 8 14 22.5t22.5 32t27 36t26.5 33.5t21.5 24.5t11.5 9.5h160l13 34h-96q-26 0 -41.5 8.5t-23.5 23.5t-10.5 34.5t-2.5 40.5v56q0 25 15 57t38.5 60.5t53 48t59.5 19.5h134l49 134h151l-48 -134h233q-29 -45 -63.5 -84.5t-72.5 -75.5h-156l-11 -34
h30q34 0 59 -16.5t40.5 -41t23 -53.5t7.5 -53v-6q0 -27 -12.5 -58t-33.5 -57t-48 -43.5t-56 -17.5h-137l-49 -136h-151zM381 353q2 -2 5 -4.5l3 -2.5h1l13 34h-16q-5 0 -8.5 -9t-3.5 -14v-5q0 1 0.5 3.5t1.5 1.5zM494 182v6q0 4 1 4h-9l-12 -34h16q4 0 4 13v11z" />
    <glyph glyph-name="FL0025h" unicode="%" horiz-adv-x="780" 
d="M602 134l6 16l-1 -3q7 11 17 20t19 9h29q9 0 12 -5t3 -12q0 -10 1 -9l-3 -8v1q-1 -1 -1 -2l-2 -2q-7 -12 -19 -21.5t-17 -9.5h-26q-7 0 -12.5 8.5t-5.5 16.5v1zM309 385l6 15l-1 -3q6 11 16.5 20.5t18.5 9.5h29q10 0 13.5 -5t3.5 -12v-9l-3 -6l1 1q-1 -1 -1 -3
q-1 -2 -2 -3t-2 -3q-7 -11 -18.5 -19.5t-17.5 -8.5h-25q-7 0 -12.5 8.5t-5.5 16.5v1zM532 397q3 15 3 31q0 55 -37 78.5t-95 23.5h-64q-24 0 -48.5 -10.5t-46 -28t-38 -39.5t-24.5 -45q-2 -7 -4 -13t-3 -13q-1 -6 -1.5 -12t-0.5 -13q0 -31 10.5 -51t29 -32t43.5 -17t55 -5
h48h8q6 0 9 1l-311 -252h212l200 161q0 -2 -1 -2.5t-1 -2.5q-2 -6 -4 -12.5t-3 -12.5q-1 -7 -1.5 -12.5t-0.5 -13.5q0 -31 10.5 -51t29 -32t43.5 -17t55 -5h48q28 0 54.5 10.5t48.5 28t38.5 39.5t24.5 45l6 17v2q1 0 1 5q3 13 3 29q0 56 -37.5 79.5t-95.5 23.5h-64
q-7 0 -9 -1l311 252h-214l-195 -158v1q1 0 1 1l5 13q0 3 1 4v-3q1 2 1 9z" />
    <glyph glyph-name="FL0026h" unicode="&#x26;" horiz-adv-x="792" 
d="M764 186h-25q-2 -11 -5.5 -21t-7.5 -18v1l-5 -18q-15 -35 -30 -59.5t-39 -40.5t-61 -23t-97 -7h-274q-44 0 -73 4t-46.5 13t-24.5 22.5t-7 32.5q0 15 4 32.5t11 38.5l5 14q5 13 13.5 31t19.5 31q12 15 24 24.5t23 15.5q-10 19 -10 49q0 23 5.5 45.5t13.5 38.5l6 14
q7 21 19.5 43t36.5 40t64 29.5t102 11.5h380q-32 -48 -64 -87t-64 -70h-241q-2 0 -10 -3t-11 -9v1l-35 -98l92 79h480zM481 157l9.5 5.5t14.5 9.5q2 2 2 3l2 5q1 2 2.5 4.5t3.5 7.5h-182l-9 -27q2 -3 2.5 -5.5l0.5 -2.5h154zM510 179l-1 -2q2 2 1 2z" />
    <glyph glyph-name="FL0027h" unicode="'" horiz-adv-x="170" 
d="M179 430l13 36q8 26 31.5 45t49.5 19q23 0 36.5 -13.5t12.5 -35.5q0 -8 -1 -14.5t-3 -11.5l-10 -30q-5 -12 -17 -27t-26 -28t-27 -22t-20 -9h-6q-21 0 -28 19.5t-6 41.5q-1 11 0 18.5t1 11.5z" />
    <glyph glyph-name="FL0028h" unicode="(" horiz-adv-x="405" 
d="M122 211v-3q0 -48 13.5 -84t35.5 -62t49 -43.5t55 -29t53 -17.5t42 -9l10 20q14 29 26.5 59t12.5 47v12q-5 5 -11.5 12.5t-16.5 15.5q-10 10 -22 21.5t-22 24t-17 25t-7 24.5v1q0 4 4.5 18t9.5 27l8 23q5 15 14 32.5t21 33.5t25 26.5t26 10.5h22q35 30 69 69.5t70 87.5
h-188q-35 0 -69 -16.5t-65.5 -43.5t-58.5 -62.5t-46.5 -73.5t-31 -76t-11.5 -70z" />
    <glyph glyph-name="FL0029h" unicode=")" horiz-adv-x="404" 
d="M486 306v4q0 48 -13.5 84t-35.5 62t-49.5 43.5t-55 29t-52 17.5t-41.5 9q-9 -15 -18 -34t-16.5 -37.5t-12 -34t-4.5 -24.5v-14q14 -8 30.5 -21.5t31 -29.5t24.5 -33.5t10 -32.5q-2 -7 -6.5 -22.5t-9.5 -30.5l-6 -16q-5 -15 -14.5 -32.5t-21 -33.5t-25 -26.5t-25.5 -10.5
h-22q-35 -31 -68.5 -70t-68.5 -87h187q34 0 68.5 16.5t66 43.5t58.5 62.5t46.5 73.5t31 75.5t11.5 69.5z" />
    <glyph glyph-name="FL0419h" unicode="*" horiz-adv-x="236" 
d="M286 393l-5 33l-27 -32l-61 71l31 20l-28 7l66 94l20 -17l9 29h108l-15 -26l30 13v-98l-39 -7l17 -24z" />
    <glyph glyph-name="FL002Bh" unicode="+" horiz-adv-x="454" 
d="M194 90l33 89h-155l165 151h46l36 95h157l-36 -95h149l-164 -151h-42l-33 -89h-156z" />
    <glyph glyph-name="FL002Ch" unicode="," horiz-adv-x="197" 
d="M43 42l13 37q12 29 39.5 50t59.5 21q29 0 44.5 -15.5t15.5 -38.5q0 -8 -6 -26l-12 -37q-5 -14 -18.5 -30.5t-29.5 -31t-32 -24.5t-25 -10h-8q-14 0 -22 7t-12.5 18t-6 24t-1.5 26v13q0 14 1 17z" />
    <glyph glyph-name="FL002Dh" unicode="-" horiz-adv-x="354" 
d="M343 206l162 135h-255l-162 -135h255z" />
    <glyph glyph-name="FL002Eh" unicode="." horiz-adv-x="195" 
d="M51 51q0 -23 15 -37t44 -14q33 0 59 19q20 14 31.5 34t11.5 37q0 23 -15 37t-44 14q-31 0 -58 -19t-39 -46q-5 -8 -5 -25z" />
    <glyph glyph-name="FL002Fh" unicode="/" horiz-adv-x="654" 
d="M252 0h-248l612 530h249z" />
    <glyph glyph-name="FL0030h" unicode="0" 
d="M327 247l4 9q1 6 4.5 15t7.5 20v-1q8 15 21 30t28.5 27t31.5 19.5t30 7.5h77q19 0 31.5 -6t19.5 -16t9.5 -22t2.5 -25q0 -18 -1 -23t-3 -14l-4 -10q-1 -6 -10 -20q-8 -15 -23 -29.5t-31.5 -26t-32.5 -19t-26 -7.5h-63q-14 0 -27 8.5t-22.5 21t-15 28.5t-5.5 31v5z
M802 284q2 14 3.5 27t1.5 27q0 51 -18 87.5t-51 60t-79 34t-101 10.5h-126q-53 0 -105.5 -26.5t-95.5 -67.5t-72.5 -91.5t-36.5 -98.5q-2 -14 -3 -26.5t-1 -24.5q0 -57 19.5 -94.5t54 -60t82.5 -31.5t104 -9h96q60 0 116 26.5t100.5 67.5t74.5 91.5t37 98.5z" />
    <glyph glyph-name="FL0031h" unicode="1" horiz-adv-x="322" 
d="M309 0l189 530h-214q-14 -9 -34 -30.5t-38.5 -44.5t-32 -42t-14.5 -23v-16h70l-133 -374h207z" />
    <glyph glyph-name="FL0032h" unicode="2" horiz-adv-x="655" 
d="M310 172l-11 -17h394q0 -1 -12.5 -19.5t-30.5 -43t-38.5 -50.5t-36.5 -42h-443q-35 0 -51.5 21.5t-16.5 53.5q0 25 10 53.5t29 55.5q16 22 45 48.5t62.5 49.5t68 38.5t61.5 15.5h182l7.5 4t12.5 6q4 1 9 5h-1q2 1 3 0l1 -1l10 13q2 2 3 10h-402q15 24 32 46.5t35 42.5
t34.5 37t30.5 31h432q37 0 54.5 -25t17.5 -61q0 -56 -35 -105q-18 -24 -48 -51.5t-64.5 -50t-70 -37.5t-65.5 -15h-192q-4 0 -8 -4.5t-9 -10.5z" />
    <glyph glyph-name="FL0033h" unicode="3" horiz-adv-x="665" 
d="M490 177l1 2q1 0 -1 -2zM463 157h-319q-27 -27 -48.5 -56.5t-44.5 -61.5l-26 -39h450q60 0 97 7.5t60.5 23.5t38.5 41t31 60l4 12v-1q5 13 10.5 31.5t5.5 34.5q-1 17 -6.5 26.5t-10.5 16.5q13 9 25 22.5t21.5 30t15 34.5t5.5 36v2q0 21 -7 47.5t-20.5 50t-35 39.5
t-49.5 16h-375q-34 -35 -62.5 -74.5t-54.5 -82.5h385l2 -4.5t4 -7.5l-1 1v-2q-2 -7 -5.5 -14.5l-3.5 -7.5h-159l-181 -156h282q0 -1 -0.5 -1.5l-0.5 -0.5l-2 -5q0 -2 -1 -3z" />
    <glyph glyph-name="FL0034h" unicode="4" horiz-adv-x="648" 
d="M635 0h-214l86 236l-55 -56h-355l130 350h212l-72 -194h177l73 194h214z" />
    <glyph glyph-name="FL0035h" unicode="5" horiz-adv-x="650" 
d="M476 155h-321q-4 0 -21.5 -20t-38 -46.5t-39 -52t-24.5 -36.5h514q29 0 56.5 17t48.5 43t33.5 56t12.5 57v4q0 23 -10 51t-27.5 52t-41.5 40t-52 16h-183l-3 4t-6 6l-4 4q-1 1 -1.5 -1.5t-0.5 -3.5v3l9 25h326q77 71 136 157h-616l-68 -180q0 -1 -0.5 -2t-0.5 -3v2v-17
q0 -26 13.5 -51.5t34.5 -46.5t46 -34t48 -13h192v-6q0 -9 -12 -24z" />
    <glyph glyph-name="FL0036h" unicode="6" horiz-adv-x="629" 
d="M477 179h1h-1zM477 182l-17 -25h-47q-13 0 -22.5 10t-19.5 25h90q13 -4 16 -10zM693 194l1 2q2 13 3.5 24t1.5 22q0 39 -19.5 63.5t-70.5 35.5h-237q11 14 24.5 23.5t28.5 9.5h253q37 31 71 69.5t71 86.5h-424q-53 0 -101 -26t-84 -67.5t-57.5 -92t-21.5 -98.5v-2
q0 -72 28.5 -119.5t75.5 -75t106 -38.5t121 -11q38 0 73.5 17t65.5 44.5t53.5 62.5t37.5 70z" />
    <glyph glyph-name="FL0037h" unicode="7" horiz-adv-x="607" 
d="M45 0h234l536 530h-522q-14 -9 -34.5 -30.5t-40 -44.5t-33.5 -42t-15 -23v-16h240z" />
    <glyph glyph-name="FL0038h" unicode="8" horiz-adv-x="694" 
d="M520 177l1 2q1 0 -1 -2zM492 157h-167l-0.5 2t-2.5 5q1 1 1 8l8 20h195q-2 -5 -3.5 -7.5t-2.5 -4.5l-2 -5q0 -1 -2 -3q-5 -4 -14.5 -9.5zM359 264l35 98v-1q3 6 11 9t10 3h164q2 -1 4 -4l4 -6v-3q-2 -5 -3.5 -11l-1.5 -6h-131zM158 308q0 -30 11 -49q-11 -6 -23 -15.5
t-25 -24.5q-10 -13 -18.5 -31t-13.5 -31l-5 -14q-15 -42 -15 -71q0 -19 7 -32.5t24 -22.5t45.5 -13t72.5 -4h287q60 0 97 7.5t60.5 23.5t38.5 41t30 60l7 20v-1q5 13 9.5 27.5t4.5 27.5v3q-1 16 -6.5 25.5t-11.5 17.5q18 12 33.5 33t24.5 45v-1q10 21 10 43v13q0 22 -7 47
t-21 47t-35 36.5t-49 14.5h-286q-62 0 -101.5 -11.5t-63.5 -29.5t-36.5 -40t-19.5 -43l-6 -14q-8 -16 -13.5 -38.5t-5.5 -45.5z" />
    <glyph glyph-name="FL0039h" unicode="9" horiz-adv-x="629" 
d="M365 348l1 -2v3l14 24h48q12 0 21.5 -10.5t19.5 -24.5h-89q-8 1 -11 4t-4 6zM150 336l-1 -2q-6 -24 -6 -46q0 -39 19.5 -63.5t70.5 -35.5h237q-12 -15 -25 -24t-27 -9h-254q-37 -31 -71 -69.5t-71 -86.5h425q51 0 98.5 26t84 67.5t58.5 91.5t22 98v3q0 71 -13 118
t-48.5 75t-98.5 39.5t-163 11.5h-7q-38 0 -73.5 -17t-66 -45t-54 -62.5t-36.5 -69.5z" />
    <glyph glyph-name="FL003Ah" unicode=":" horiz-adv-x="207" 
d="M55 58q0 -26 16 -42t46 -16q34 0 63 21q22 16 34 38.5t12 41.5q0 26 -16.5 42t-46.5 16q-33 0 -62 -21t-42 -52q-4 -8 -4 -28zM139 301q0 -26 16 -42t46 -16q34 0 63 21q22 16 34 38.5t12 41.5q0 26 -16.5 42t-46.5 16q-33 0 -62 -21.5t-42 -52.5q-4 -7 -4 -27z" />
    <glyph glyph-name="FL003Bh" unicode=";" horiz-adv-x="208" 
d="M45 45l14 40q12 32 41.5 54t62.5 22q30 0 46.5 -16.5t16.5 -41.5q0 -10 -6 -28l-13 -39q-5 -15 -19 -33t-31.5 -33.5t-34 -26.5t-26.5 -11h-8q-14 0 -22.5 7.5t-13.5 19t-7 26t-2 28.5v14v9q0 3 2 9zM140 304q0 8 0.5 15.5t3.5 12.5q13 31 42 52.5t62 21.5q31 0 47 -16
t16 -42q0 -11 -5 -27.5t-17 -30.5h1q-15 -20 -38.5 -32.5t-49.5 -12.5q-30 0 -46 16.5t-16 42.5z" />
    <glyph glyph-name="FL003Ch" unicode="&#x3c;" horiz-adv-x="449" 
d="M225 0h232l-105 262l302 268h-243l-295 -260z" />
    <glyph glyph-name="FL003Dh" unicode="=" horiz-adv-x="428" 
d="M432 264l166 151h-327l-166 -151h327zM368 93l165 151h-326l-166 -151h327z" />
    <glyph glyph-name="FL003Eh" unicode="&#x3e;" horiz-adv-x="449" 
d="M247 0h-243l305 270l-106 260h233l109 -268z" />
    <glyph glyph-name="FL003Fh" unicode="?" horiz-adv-x="647" 
d="M226 161h95v9q4 5 15.5 10t31.5 5h142q30 0 65.5 15t70 37.5t64.5 50t48 51.5q17 23 25.5 50t8.5 54q0 36 -16.5 61.5t-55.5 25.5h-430q-14 -14 -30.5 -31t-34.5 -37t-35 -42.5t-32 -46.5h401l-1.5 -7.5l-0.5 -2.5l-11 -13l-1 1t-3 0h1q-5 -4 -9 -5q-5 -2 -12.5 -6
l-7.5 -4h-133q-27 0 -62.5 -17.5t-71.5 -44t-67.5 -57t-49.5 -56.5h66q-31 -5 -58 -25.5t-39 -48.5q-5 -10 -5 -28q0 -26 17.5 -42.5t49.5 -16.5q17 0 35 6t33 16q23 16 36 39t13 42q0 22 -13.5 37.5t-38.5 20.5z" />
    <glyph glyph-name="FL0040h" unicode="@" horiz-adv-x="741" 
d="M365 265q0 10 2 16q6 18 21.5 35t35.5 30.5t42 22t42 8.5q36 0 55 -21.5t19 -52.5q0 -11 -3 -23q18 1 31 5.5t18 18.5q6 10 6 27q0 25 -19 42t-54 23h-121q-13 0 -26.5 -10.5t-25.5 -26.5t-21.5 -33.5t-14.5 -32.5v1q-3 -11 -6.5 -21.5t-6.5 -18.5q-4 -11 -6.5 -19.5
t-2.5 -9.5v-1q0 -12 6.5 -24.5t17 -25t22.5 -24t23 -21.5q16 -16 24 -22q11 -3 30 -4.5t32 -1.5h20q0 -10 -1 -18t-4 -17t-7 -20t-10 -27q-4 -9 -9 -25t-10 -29h-97q-26 4 -67 16t-80.5 38.5t-68 72t-28.5 116.5v2q0 46 19 94q16 44 45 88.5t65 80.5t77.5 58.5t82.5 22.5
h177q7 -2 15 -2.5t16 -1.5q31 -4 69.5 -11t72.5 -26t57.5 -55t23.5 -98v-3q0 -36 -14 -83q-13 -34 -33.5 -56t-47.5 -35t-61.5 -18t-75.5 -5h-165q-48 5 -64.5 31t-16.5 63v11zM469 266l-3 -5l3 3q13 0 16 11l-1 -2v6q-10 -1 -15 -13z" />
    <glyph glyph-name="FL0041h" unicode="A" horiz-adv-x="745" 
d="M368 155l130 172l26 -172h-156zM749 0l-67 427q-3 13 -8 30.5t-12.5 33.5t-18 27.5t-24.5 11.5h-161q-8 0 -20 -8t-24 -18.5t-22 -21t-13 -16.5l1 2l-355 -468h428q5 2 14.5 11t21 21t23 26t20.5 26l16 -84h201z" />
    <glyph glyph-name="FL0042h" unicode="B" horiz-adv-x="683" 
d="M513 190l-2 -5l-7 -13q-5 -4 -14.5 -9.5l-9.5 -5.5h-176l14 35h196q0 -1 -0.5 -1.5zM383 373h188l1.5 -4.5t3.5 -7.5l-1 1v-2q-2 -7 -5 -14.5l-3 -7.5h-159l-56 -48zM227 530l-196 -530h462q54 0 90 7.5t61 23.5t42.5 41t33.5 60l4 12v-1q5 13 10 27.5t5 30.5
q-1 17 -7 30.5t-14 24.5q12 9 24.5 21.5t23 28.5t17.5 33.5t7 35.5v2q0 30 -5 57.5t-17.5 48.5t-34.5 34t-55 13h-451z" />
    <glyph glyph-name="FL0043h" unicode="C" horiz-adv-x="624" 
d="M132 246v-2q0 -72 28.5 -119.5t75.5 -75t106 -38.5t121 -11h81q42 32 75.5 73t61.5 83h-256q-14 0 -29.5 10t-28.5 25t-21 32.5t-8 33.5q0 7 2 15.5t5 19.5v-1q5 15 14 29.5t20.5 26.5t23 19.5t22.5 7.5h253q37 31 71 69.5t71 86.5h-424q-53 0 -101 -26t-84 -67.5
t-57.5 -92t-21.5 -98.5z" />
    <glyph glyph-name="FL0044h" unicode="D" horiz-adv-x="652" 
d="M717 234l1 1q-40 -63 -83 -108t-93.5 -73t-112 -41t-138.5 -13h-260l196 530h428q65 0 94.5 -35t29.5 -90q0 -39 -15 -84t-47 -87zM532 374h-146l-81 -218h5q22 0 51 9.5t57.5 24.5t53 34t37.5 39q2 2 4 5.5t4 5.5q4 5 7.5 9.5t8.5 16.5l6 14q4 10 7.5 19.5t3.5 16.5
q0 10 -4 17t-14 7z" />
    <glyph glyph-name="FL0045h" unicode="E" horiz-adv-x="621" 
d="M227 530l-196 -530h504q1 0 14 10t29.5 25t33 31t25.5 28l-1 -2q1 1 6.5 10t12 19.5t12 20.5t7.5 14h-372l11 29h188l168 156h-265l-51 -50l30 83h287q9 0 29 18.5t41.5 44t41 51.5t27.5 42h-582z" />
    <glyph glyph-name="FL0046h" unicode="F" horiz-adv-x="618" 
d="M227 530l-196 -530h214l68 185h188l168 156h-265l-51 -50l30 83h287q9 0 29 18.5t41.5 44t41 51.5t27.5 42h-582z" />
    <glyph glyph-name="FL0047h" unicode="G" horiz-adv-x="633" 
d="M746 341l-131 -341h-152q-62 0 -121 11t-106 38.5t-75.5 75t-28.5 119.5q0 48 21.5 99t57.5 92.5t84 68t101 26.5h424q-37 -48 -71 -86.5t-71 -69.5h-253q-13 0 -25.5 -7.5t-23 -19.5t-18.5 -26.5t-13 -29.5v1q-3 -11 -5 -19.5t-2 -15.5q0 -16 8 -33.5t20.5 -32.5t28 -25
t30.5 -10h46l12 33h-102v17q1 4 13 21t28.5 38.5t35 42.5t33.5 33h255z" />
    <glyph glyph-name="FL0048h" unicode="H" horiz-adv-x="650" 
d="M31 0h215l67 180h178l-67 -180h213l197 530h-213l-73 -194h-142l-57 -57l94 251h-215z" />
    <glyph glyph-name="FL0049h" unicode="I" horiz-adv-x="613" 
d="M32 0h495q9 0 29 18.5t41.5 44t40.5 52t27 41.5h-184l80 218h104q9 0 29 18.5t41.5 44t41 51.5t27.5 42h-510q-14 -9 -34.5 -30.5t-40 -44.5t-33.5 -42t-15 -23v-16h175l-81 -218h-110q-14 -9 -34.5 -30.5t-40 -44.5t-33.5 -42t-15 -23v-16z" />
    <glyph glyph-name="FL004Ah" unicode="J" horiz-adv-x="570" 
d="M21 0h348q65 0 109 17t75.5 50t54 81.5t45.5 111.5l100 270h-212l-108 -291l1 2q-6 -12 -16 -27t-22.5 -27.5t-27.5 -21.5t-31 -9h-200q-34 -33 -62 -72t-54 -84z" />
    <glyph glyph-name="FL004Bh" unicode="K" horiz-adv-x="694" 
d="M31 0h216l78 210l177 -210h243l-194 262l357 268h-254l-286 -202l76 202h-216z" />
    <glyph glyph-name="FL004Ch" unicode="L" horiz-adv-x="551" 
d="M31 0l193 530h211l-137 -374h281q3 0 -7.5 -19.5t-27 -45.5t-36.5 -52t-36 -39h-441z" />
    <glyph glyph-name="FL004Dh" unicode="M" horiz-adv-x="831" 
d="M818 0l198 530h-261l-223 -236l-46 236h-257l-198 -530h217l90 241l45 -241h86l219 235l-86 -235h216z" />
    <glyph glyph-name="FL004Eh" unicode="N" horiz-adv-x="650" 
d="M31 0h215l90 242l46 -242h255l197 530h-213l-91 -243l-47 243h-255z" />
    <glyph glyph-name="FL004Fh" unicode="O" 
d="M327 247l4 9q1 6 4.5 15t7.5 20v-1q8 15 21 30t28.5 27t31.5 19.5t30 7.5h77q19 0 31.5 -6t19.5 -16t9.5 -22t2.5 -25v-10q0 -5 -1 -8q-1 -5 -1.5 -9.5t-1.5 -9.5l-4 -10q-2 -8 -10 -20q-8 -14 -23 -28.5t-32 -26.5t-33 -19.5t-25 -7.5h-63q-14 0 -27 8.5t-22.5 21
t-15 28.5t-5.5 31v5zM803 284v-1q2 17 3.5 33t1.5 30q0 99 -63.5 141.5t-186.5 42.5h-126q-54 0 -106 -23.5t-95 -63t-72 -91t-37 -106.5q-2 -14 -3 -26.5t-1 -24.5q0 -57 19.5 -94.5t54 -60t82.5 -31.5t104 -9h96q59 0 114.5 22.5t100 61.5t75 90.5t39.5 109.5z" />
    <glyph glyph-name="FL0050h" unicode="P" horiz-adv-x="669" 
d="M383 373h188l1.5 -4.5t3.5 -7.5l-1 1v-2q-2 -7 -5 -14.5l-3 -7.5h-159l-56 -48zM31 0h215l67 182h261q35 0 73 14.5t70 40t52.5 61.5t20.5 79q0 21 -5 47.5t-17.5 50t-34.5 39.5t-55 16h-451z" />
    <glyph glyph-name="FL0051h" unicode="Q" horiz-adv-x="704" 
d="M330 246v5q1 10 4.5 19.5t8.5 20.5l-1 -1q8 15 21 30t29 27.5t32 20t30 7.5h66q21 0 35 -7.5t22.5 -19t11.5 -26t3 -28.5v-9q-1 -3 -1 -8t-1 -8l-4 -10q-2 -8 -5 -11l-11 22h-232l51 -112q-12 3 -23 12t-19 21.5t-12.5 26.5t-4.5 28zM798 285q2 14 3.5 26t1.5 25
q0 48 -17.5 84.5t-50 61t-77.5 37t-100 12.5h-126q-53 0 -105.5 -23t-95 -62t-72 -90.5t-37.5 -108.5q-3 -23 -3 -45q0 -60 23 -99t62 -62t90.5 -32t108.5 -9h77l17 -27h223l-52 100q51 45 86 101t44 111z" />
    <glyph glyph-name="FL0052h" unicode="R" horiz-adv-x="686" 
d="M571 371v-10q0 -6 -3 -13.5t-10 -7.5h-161l-41 -42l28 77h184q3 0 3 -4zM31 0h215l64 174l192 -174h245l-191 193q39 4 80 14t74.5 30.5t54.5 53t21 80.5q0 24 -5 52t-18 51.5t-36.5 39.5t-60.5 16h-439z" />
    <glyph glyph-name="FL0053h" unicode="S" horiz-adv-x="656" 
d="M494 179v6q0 3 1 3h-192q-32 0 -58 15t-44.5 38.5t-28.5 51.5t-10 55q0 25 14.5 56.5t38 59.5t53 47t59.5 19h519q-59 -86 -136 -157h-323q-5 0 -8.5 -9t-3.5 -14v-5q0 1 0.5 3.5t1.5 1.5l4 -4q2 -2 5 -4l3 -2h184q34 0 59 -16.5t40.5 -40.5t23 -52t7.5 -52v-6
q0 -27 -12.5 -57t-33.5 -56t-48 -43t-56 -17h-514q6 11 24.5 36.5t39 52t38 46.5t21.5 20h328q4 0 4 13v11z" />
    <glyph glyph-name="FL0054h" unicode="T" horiz-adv-x="608" 
d="M206 0h213l138 374h103q9 0 28.5 18.5t41 44t40.5 51.5t27 42h-506q-14 -9 -34.5 -30.5t-39.5 -44.5t-33 -42t-15 -23v-16h174z" />
    <glyph glyph-name="FL0055h" unicode="U" horiz-adv-x="675" 
d="M147 309l80 221h212q-36 -102 -55.5 -159t-29 -85.5t-11 -36t-1.5 -10.5q-5 -22 -5 -27q0 -26 12.5 -41t32.5 -15h47q21 0 38.5 9t31.5 21.5t24.5 27.5t16.5 27l-1 -2l107 291h213l-94 -253q-25 -67 -51 -118.5t-59 -87t-76.5 -53.5t-104.5 -18h-112q-71 0 -119 8.5
t-76.5 26.5t-40.5 47t-12 71q0 12 1.5 23.5t3.5 25.5q3 15 7.5 33t11.5 39q2 8 4.5 17t4.5 18z" />
    <glyph glyph-name="FL0056h" unicode="V" horiz-adv-x="731" 
d="M449 213l-43 317h-196l62 -422q1 -2 1.5 -6t1.5 -6l-1 1q3 -14 7.5 -31t12 -31.5t17 -24.5t23.5 -10h158q10 0 22 8t24 18.5t21.5 21t14.5 16.5l358 466h-233z" />
    <glyph glyph-name="FL0077h" unicode="W" horiz-adv-x="862" 
d="M728 329l-14 201h-170l-142 -214v214h-188v-430q0 -14 1.5 -31.5t5.5 -32.5t11 -25.5t18 -10.5h115q16 0 30 16t25 33q4 5 7 9.5t5 6.5l92 129q2 -14 2.5 -26t2.5 -23q8 -76 16.5 -110.5t28.5 -34.5h114q7 0 17 8t20 18.5t18 22t12 17.5l307 464h-205z" />
    <glyph glyph-name="FL0058h" unicode="X" horiz-adv-x="655" 
d="M380 111l47 -111h236l-107 262l309 268h-249l-127 -109l-44 109h-238l108 -260l-311 -270h248z" />
    <glyph glyph-name="FL0059h" unicode="Y" horiz-adv-x="646" 
d="M226 0h212l90 244l326 286h-246l-125 -109l-44 109h-235l114 -278z" />
    <glyph glyph-name="FL005Ah" unicode="Z" horiz-adv-x="613" 
d="M11 0h516q9 0 29 18.5t41.5 44t40.5 52t27 41.5h-246l397 374h-522q-14 -9 -34.5 -30.5t-40 -44.5t-33.5 -42t-15 -23v-16h237z" />
    <glyph glyph-name="FL005Bh" unicode="[" horiz-adv-x="412" 
d="M248 599l-236 -653h291q2 0 14.5 10.5t28.5 25t32 31t25 28.5l-1 -2q1 1 6.5 10t12 20t12 21t7.5 14h-160l122 338h76q9 0 29 18.5t41 44t40 52t27 42.5h-367z" />
    <glyph glyph-name="FL005Ch" unicode="\" horiz-adv-x="634" 
d="M413 0h229l-211 530h-231z" />
    <glyph glyph-name="FL005Dh" unicode="]" horiz-adv-x="412" 
d="M379 -54l237 653h-291q-2 0 -14.5 -10.5t-29 -25t-32.5 -31t-25 -28.5l1 2q-1 -1 -6.5 -10t-11.5 -20t-11.5 -21t-7.5 -14h159l-123 -338h-75q-10 0 -29.5 -18.5t-41 -44t-40.5 -52t-27 -42.5h368z" />
    <glyph glyph-name="FL005Eh" unicode="^" horiz-adv-x="745" 
d="M548 0l-50 327l-242 -327h-231q2 8 3 14t3 12v2l1 1q7 23 12.5 29t9.5 -1l326 411q4 6 14 16.5t21.5 20.5t23 17.5t19.5 7.5h161q14 0 24.5 -11.5t18 -27.5t12.5 -33.5t8 -30.5l67 -427h-201z" />
    <glyph glyph-name="FL005Fh" unicode="_" horiz-adv-x="455" 
d="M359 0l165 135h-354l-165 -135h354z" />
    <glyph glyph-name="FL0060h" unicode="`" horiz-adv-x="152" 
d="M259 423l7 -20v-10q1 -3 1.5 -6.5t0.5 -8.5q0 -9 -3 -18q-4 -10 -9 -17.5t-14 -12.5l1 2l-5 -3l3 1q-5 -5 -17 -5q-14 0 -29.5 11t-21.5 25l-4 18q-3 4 -3 16q0 6 2 12q9 26 33 41q11 3 17.5 5.5t10.5 2.5q15 0 20.5 -10.5t9.5 -23.5v1z" />
    <glyph glyph-name="a" unicode="a" horiz-adv-x="745" 
d="M368 155l130 172l26 -172h-156zM749 0l-67 427q-3 13 -8 30.5t-12.5 33.5t-18 27.5t-24.5 11.5h-161q-8 0 -20 -8t-24 -18.5t-22 -21t-13 -16.5l1 2l-355 -468h428q5 2 14.5 11t21 21t23 26t20.5 26l16 -84h201z" />
    <glyph glyph-name="FL0062h" unicode="b" horiz-adv-x="683" 
d="M513 190l-2 -5l-7 -13q-5 -4 -14.5 -9.5l-9.5 -5.5h-176l14 35h196q0 -1 -0.5 -1.5zM383 373h188l1.5 -4.5t3.5 -7.5l-1 1v-2q-2 -7 -5 -14.5l-3 -7.5h-159l-56 -48zM227 530l-196 -530h462q54 0 90 7.5t61 23.5t42.5 41t33.5 60l4 12v-1q5 13 10 27.5t5 30.5
q-1 17 -7 30.5t-14 24.5q12 9 24.5 21.5t23 28.5t17.5 33.5t7 35.5v2q0 30 -5 57.5t-17.5 48.5t-34.5 34t-55 13h-451z" />
    <glyph glyph-name="c" unicode="c" horiz-adv-x="624" 
d="M132 246v-2q0 -72 28.5 -119.5t75.5 -75t106 -38.5t121 -11h81q42 32 75.5 73t61.5 83h-256q-14 0 -29.5 10t-28.5 25t-21 32.5t-8 33.5q0 7 2 15.5t5 19.5v-1q5 15 14 29.5t20.5 26.5t23 19.5t22.5 7.5h253q37 31 71 69.5t71 86.5h-424q-53 0 -101 -26t-84 -67.5
t-57.5 -92t-21.5 -98.5z" />
    <glyph glyph-name="FL0064h" unicode="d" horiz-adv-x="652" 
d="M715 232v1q-43 -63 -86 -107.5t-92.5 -72.5t-109.5 -40.5t-136 -12.5h-260l196 530h428q65 0 94.5 -35t29.5 -90q0 -39 -16 -85t-48 -88zM532 374h-146l-81 -218h5q24 0 53 9.5t57.5 24.5t52.5 34t38 39l-1 -1q2 4 3.5 6.5t2.5 3.5l-1 -1q4 5 9 12t10 17q2 3 3 6.5t3 5.5
l-1 -1q4 11 7.5 21t3.5 18q0 10 -4 17t-14 7z" />
    <glyph glyph-name="e" unicode="e" horiz-adv-x="621" 
d="M227 530l-196 -530h504q1 0 14 10t29.5 25t33 31t25.5 28l-1 -2q1 1 6.5 10t12 19.5t12 20.5t7.5 14h-372l11 29h188l168 156h-265l-51 -50l30 83h287q9 0 29 18.5t41.5 44t41 51.5t27.5 42h-582z" />
    <glyph glyph-name="FL0066h" unicode="f" horiz-adv-x="618" 
d="M227 530l-196 -530h214l68 185h188l168 156h-265l-51 -50l30 83h287q9 0 29 18.5t41.5 44t41 51.5t27.5 42h-582z" />
    <glyph glyph-name="FL0067h" unicode="g" horiz-adv-x="633" 
d="M746 341l-131 -341h-152q-62 0 -121 11t-106 38.5t-75.5 75t-28.5 119.5q0 48 21.5 99t57.5 92.5t84 68t101 26.5h424q-37 -48 -71 -86.5t-71 -69.5h-253q-13 0 -25.5 -7.5t-23 -19.5t-18.5 -26.5t-13 -29.5v1q-3 -11 -5 -19.5t-2 -15.5q0 -16 8 -33.5t20.5 -32.5t28 -25
t30.5 -10h46l12 33h-102v17q1 4 13 21t28.5 38.5t35 42.5t33.5 33h255z" />
    <glyph glyph-name="h" unicode="h" horiz-adv-x="650" 
d="M31 0h215l67 180h178l-67 -180h213l197 530h-213l-73 -194h-142l-57 -57l94 251h-215z" />
    <glyph glyph-name="FL0069h" unicode="i" horiz-adv-x="254" 
d="M32 0h207l189 530h-206z" />
    <glyph glyph-name="FL006Ah" unicode="j" horiz-adv-x="570" 
d="M21 0h348q65 0 109 17t75.5 50t54 81.5t45.5 111.5l100 270h-212l-108 -291l1 2q-6 -12 -16 -27t-22.5 -27.5t-27.5 -21.5t-31 -9h-200q-34 -33 -62 -72t-54 -84z" />
    <glyph glyph-name="FL006Bh" unicode="k" horiz-adv-x="694" 
d="M31 0h216l78 210l177 -210h243l-194 262l357 268h-254l-286 -202l76 202h-216z" />
    <glyph glyph-name="FL006Ch" unicode="l" horiz-adv-x="551" 
d="M31 0l193 530h211l-137 -374h281q3 0 -7.5 -19.5t-27 -45.5t-36.5 -52t-36 -39h-441z" />
    <glyph glyph-name="FL006Dh" unicode="m" horiz-adv-x="831" 
d="M818 0l198 530h-261l-223 -236l-46 236h-257l-198 -530h217l90 241l45 -241h86l219 235l-86 -235h216z" />
    <glyph glyph-name="FL006Eh" unicode="n" horiz-adv-x="650" 
d="M31 0h215l90 242l46 -242h255l197 530h-213l-91 -243l-47 243h-255z" />
    <glyph glyph-name="FL006Fh" unicode="o" horiz-adv-x="728" 
d="M328 247l3 9q1 6 4.5 15t8.5 20l-1 -1q8 15 21 30t28.5 27t31.5 19.5t30 7.5h94q19 0 31.5 -6t19 -16t9 -22t2.5 -25v-18q-1 -5 -1.5 -9.5t-1.5 -9.5l-4 -10q-2 -8 -10 -20q-8 -14 -24 -28.5t-33 -26.5t-33 -19.5t-23 -7.5h-80q-14 0 -27 8.5t-22.5 21t-15 28.5t-5.5 31
v5zM820 284v-1q2 15 3 29t1 29q0 51 -17.5 86.5t-49.5 58.5t-78.5 33.5t-103.5 10.5h-143q-53 0 -105.5 -24.5t-95.5 -64t-72.5 -90.5t-36.5 -105q-2 -14 -3 -26.5t-1 -24.5q0 -57 19.5 -94.5t54.5 -60t82.5 -31.5t103.5 -9h113q60 0 115.5 23.5t100 63t74.5 90.5t39 107z
" />
    <glyph glyph-name="p" unicode="p" horiz-adv-x="669" 
d="M383 373h188l1.5 -4.5t3.5 -7.5l-1 1v-2q-2 -7 -5 -14.5l-3 -7.5h-159l-56 -48zM31 0h215l67 182h261q35 0 73 14.5t70 40t52.5 61.5t20.5 79q0 21 -6 47.5t-19.5 50t-34.5 39.5t-52 16h-451z" />
    <glyph glyph-name="FL0071h" unicode="q" horiz-adv-x="701" 
d="M330 246v5q1 10 4.5 19.5t8.5 20.5l-1 -1q8 15 21 30t29 27.5t32 20t30 7.5h66q21 0 35 -7.5t22.5 -19t11.5 -26t3 -28.5v-9q-1 -3 -1 -8t-1 -8l-4 -10q-2 -8 -5 -11l-11 22h-232l51 -112q-12 3 -23 12t-19 21.5t-12.5 26.5t-4.5 28zM798 285q2 14 3.5 26t1.5 25
q0 48 -17.5 84.5t-50 61t-77.5 37t-100 12.5h-126q-53 0 -105.5 -24t-95 -64t-72 -91t-37.5 -105q-3 -23 -3 -45q0 -60 23 -99t62 -62t90.5 -32t108.5 -9h77l17 -27h223l-52 100q51 45 86 101t44 111z" />
    <glyph glyph-name="r" unicode="r" horiz-adv-x="692" 
d="M571 371v-10q0 -6 -3 -13.5t-10 -7.5h-161l-41 -42l28 77h184q3 0 3 -4zM31 0h215l64 174l192 -174h245l-191 193q39 4 80 14t74.5 30.5t54.5 53t21 80.5q0 24 -4 52t-16.5 51.5t-36.5 39.5t-63 16h-439z" />
    <glyph glyph-name="FL201Ch" unicode="s" horiz-adv-x="656" 
d="M494 179v6q0 3 1 3h-192q-32 0 -58 15t-44.5 38.5t-28.5 51.5t-10 55q0 25 14.5 56.5t38 59.5t53 47t59.5 19h519q-59 -86 -136 -157h-323q-5 0 -8.5 -9t-3.5 -14v-5q0 1 0.5 3.5t1.5 1.5l4 -4q2 -2 5 -4l3 -2h184q36 0 60.5 -16.5t40 -40.5t22.5 -52t7 -52v-6
q0 -27 -12.5 -57t-33.5 -56t-48 -43t-56 -17h-514q6 11 24.5 36.5t39 52t38 46.5t21.5 20h328q4 0 4 13v11z" />
    <glyph glyph-name="FL0074h" unicode="t" horiz-adv-x="608" 
d="M206 0h213l138 374h103q9 0 28.5 18.5t41 44t40.5 51.5t27 42h-506q-14 -9 -34.5 -30.5t-39.5 -44.5t-33 -42t-15 -23v-16h174z" />
    <glyph glyph-name="FL2022h" unicode="u" horiz-adv-x="675" 
d="M145 303l82 227h212q-36 -102 -55.5 -159t-29 -85.5t-11 -36t-1.5 -10.5q-5 -22 -5 -27q0 -26 14 -41t31 -15h47q21 0 38.5 9t31.5 21.5t24.5 27.5t16.5 27l-1 -2l107 291h213l-94 -253q-25 -67 -51 -118.5t-59 -87t-76.5 -53.5t-104.5 -18h-112q-72 0 -120 8.5t-77 27.5
t-41 48.5t-12 71.5q0 11 1 22t3 25q3 14 7 27.5t10 30.5v-1q4 11 6 20t6 23z" />
    <glyph glyph-name="FL0076h" unicode="v" horiz-adv-x="731" 
d="M449 213l-43 317h-196l62 -422q1 -2 1.5 -6t1.5 -6l-1 1q3 -14 7.5 -31t12 -31.5t17 -24.5t23.5 -10h158q10 0 22 8t24 18.5t21.5 21t14.5 16.5l358 466h-233z" />
    <glyph glyph-name="FL0057h" unicode="w" horiz-adv-x="865" 
d="M230 530l-121 -323q-7 -17 -10.5 -33t-3.5 -34q0 -28 11.5 -53.5t38 -44.5t70.5 -30.5t109 -11.5h528l198 530h-214l-141 -375h-86l140 375h-215l-137 -367q-2 1 -7 1t-8 1q-18 2 -31 9t-13 36l2.5 12t5.5 24v-1q2 6 3 11.5t2 9.5l-1 -2l92 266h-212z" />
    <glyph glyph-name="FL0079h" unicode="x" horiz-adv-x="655" 
d="M380 111l47 -111h236l-107 262l309 268h-249l-127 -109l-44 109h-238l108 -260l-311 -270h248z" />
    <glyph glyph-name="FL007Bh" unicode="y" horiz-adv-x="646" 
d="M226 0h212l90 244l326 286h-246l-125 -109l-44 109h-235l114 -278z" />
    <glyph glyph-name="FL007Ah" unicode="z" horiz-adv-x="613" 
d="M11 0h516q9 0 29 18.5t41.5 44t40.5 52t27 41.5h-246l397 374h-522q-14 -9 -34.5 -30.5t-40 -44.5t-33.5 -42t-15 -23v-16h237z" />
    <glyph glyph-name="FL007Dh" unicode="{" horiz-adv-x="551" 
d="M386 599h369q-8 -16 -27 -42.5t-40.5 -52t-41.5 -44t-29 -18.5h-76l-123 -338h161q-2 -4 -8 -14t-12.5 -21.5t-11.5 -20t-6 -9.5l1 2q-9 -12 -25 -28.5t-32.5 -31t-29 -25t-14.5 -10.5h-292l87 240h-163l167 158h52z" />
    <glyph glyph-name="FL007Ch" unicode="|" horiz-adv-x="254" 
d="M-17 -136h210l287 810h-210z" />
    <glyph glyph-name="FL007Eh" unicode="}" horiz-adv-x="551" 
d="M381 -54h-370q8 16 27 42.5t41 52t42 44t29 18.5h75l123 338h-159q2 4 7.5 14t11.5 21t11.5 20t6.5 10l-1 -2q9 12 25.5 28.5t33 31t29 25t13.5 10.5h293l-87 -240h163l-169 -158h-52z" />
    <glyph glyph-name="FL0080h" unicode="~" horiz-adv-x="406" 
d="M241 295h91l25 -47l50 47h104q6 -5 7 -9.5t-9 -16t-34.5 -33.5t-69.5 -62l-1 -1q0 1 -1 0q-7 -4 -15 -8.5t-17 -4.5h-89l-26 46l-51 -46h-130l132 119l1 1q7 5 16 10t17 5z" />
    <glyph glyph-name="FL007Fh" horiz-adv-x="175" 
 />
    <glyph glyph-name="FL00A1h" unicode="&#xa1;" horiz-adv-x="248" 
d="M264 368h-103l-131 -368h205l131 368h-93q32 2 62 23.5t41 53.5q3 7 4.5 14.5t1.5 12.5q0 26 -17.5 42t-47.5 16q-35 0 -64.5 -22t-41.5 -54q-6 -14 -6 -26q0 -25 16 -41.5t43 -18.5z" />
    <glyph glyph-name="FL00A2h" unicode="&#xa2;" horiz-adv-x="624" 
d="M338 260v2q0 7 2 16t5 20v-1q5 15 13 30t18.5 27t22.5 19.5t26 7.5h22l-71 -196q-16 16 -27 36t-11 39zM260 -137h150l50 137h84q42 32 75.5 74.5t61.5 84.5h-164l81 222h80q37 32 71 71.5t71 87.5h-165l48 133h-150l-49 -133h-108q-53 0 -101 -26.5t-84 -68.5
t-57.5 -93.5t-21.5 -100.5v-2q0 -51 13.5 -89.5t38 -67t58 -47t73.5 -28.5z" />
    <glyph glyph-name="FL00A3h" unicode="&#xa3;" horiz-adv-x="664" 
d="M523 353l-1 -2zM5 0h659q2 18 3 42t1 40q0 41 -10 75h-198q1 0 -1 4.5t-4 6.5h1l-1 1q1 1 1.5 2l0.5 1q2 2 3 4.5t3 5.5h203l-66 156h-80q1 10 3 13l1 3q1 1 1 2q7 5 16 11l9 6h69q2 23 4 43.5t2 35.5q0 19 -2 38.5t-5 39.5h-80q-27 0 -57.5 -15.5t-59.5 -37.5t-54 -47.5
t-40 -44.5q-8 -11 -13 -20.5t-10 -19.5l1 1l-3 -5q-2 -2 -2 -4q0 -3 -1 -4h-62l-167 -156h163q-1 -1 -1 -4q-2 -6 -2 -5l-5 -12h-53z" />
    <glyph glyph-name="FL00A4h" unicode="&#xa4;" horiz-adv-x="655" 
d="M352 257v4q0 3 4 10l3 6v-1q11 18 30.5 33.5t37.5 15.5h52q25 0 32 -12.5t7 -26.5q0 -4 -0.5 -8t-0.5 -7l-1 -1.5t-3 -5.5q-1 -4 -1.5 -6.5t-2.5 -4.5q-5 -8 -14 -16.5t-19 -15t-19.5 -10.5t-16.5 -4h-42q-19 0 -32.5 17t-13.5 33zM668 275v1q1 7 1.5 13t0.5 14
q0 15 -3 26.5t-8 22.5l206 178h-249l-118 -101h-12l-41 101h-238l66 -159q-28 -26 -47 -56.5t-22 -59.5v1q-1 -7 -1.5 -13.5t-0.5 -13.5q0 -30 10 -49l-208 -180h248l120 103h11l44 -103h237l-68 161q30 25 48 55.5t24 58.5z" />
    <glyph glyph-name="FL00A5h" unicode="&#xa5;" horiz-adv-x="650" 
d="M227 0l22 60h-183l165 104h-127l165 104h44l-107 262h236l45 -109l125 109h248l-301 -262h164l-165 -104h127l-166 -104h-55l-23 -60h-214z" />
    <glyph glyph-name="FL00A6h" unicode="&#xa6;" horiz-adv-x="254" 
d="M-17 -136h210l287 810h-210z" />
    <glyph glyph-name="FL00A7h" unicode="&#xa7;" horiz-adv-x="655" 
d="M353 263l-1 -2l8 17q11 17 30 32t37 15h52q25 0 32 -12.5t7 -26.5q0 -4 -0.5 -8t-0.5 -7l-1 -1.5t-3 -5.5q-1 -4 -1.5 -6.5t-2.5 -4.5q-5 -8 -14 -16.5t-19 -15t-19.5 -10.5t-16.5 -4h-42q-18 0 -31.5 15.5t-14.5 32.5q1 1 1 8zM668 274v2q1 7 1.5 13t0.5 14
q0 15 -3 26.5t-8 22.5l206 178h-249l-118 -101h-21q-52 0 -100.5 -10.5t-97.5 -42.5q-23 -20 -41 -43.5t-27 -47.5q-1 -2 -1.5 -5.5t-1.5 -4.5q-4 -9 -4 -19q-1 -7 -1.5 -13.5t-0.5 -13.5q0 -30 10 -49l-208 -180h248l120 103h22q61 0 108 15t86 36q55 43 71 93v-1
q2 5 3 9.5t3 10.5v-2q2 6 3 10z" />
    <glyph glyph-name="FL00A8h" unicode="&#xa8;" horiz-adv-x="352" 
d="M193 392v-1q9 24 35 39.5t55 15.5q26 0 41 -11.5t15 -31.5q0 -10 -5 -20q-10 -23 -35.5 -39t-54.5 -16q-26 0 -41 12t-15 32q0 10 5 20zM500 383q-10 -23 -35.5 -39t-54.5 -16q-26 0 -41.5 12.5t-15.5 31.5q0 5 1.5 9t3.5 10q10 23 36 39t55 16q55 0 55 -43q0 -12 -4 -20
z" />
    <glyph glyph-name="copyright" unicode="&#xa9;" horiz-adv-x="267" 
d="M239 443v1q-6 -17 -6 -30q0 -32 27 -42q-5 2 -9 3.5t-7 3.5h1q-12 12 -15 22q-1 3 -1 8q0 8 5 25v-1q2 5 4.5 10.5t5.5 10.5q-1 -5 -5 -11zM329 507h4q20 0 28 -8q7 -4 10.5 -10.5t5.5 -14.5v-5q0 -9 -5 -26v1q-2 -5 -4 -9.5t-5 -8.5l-40 12q-17 -26 -36 -26q-9 0 -9 5
q0 9 4 18v-1q13 33 37 33q6 0 11 -24l41 10v13q0 38 -42 41zM339 549q-29 0 -58 -13q-31 -13 -55 -39q-11 -14 -20 -27t-14 -27v1q-7 -15 -7 -37q0 -6 0.5 -10t1.5 -9q3 -15 11 -25.5t19 -20.5q23 -14 51 -14q6 0 21.5 4t39.5 11q28 12 51 39v-1q24 24 34 53q7 17 7 39
q0 6 -0.5 10t-1.5 7q-3 27 -30 44q-24 15 -50 15z" />
    <glyph glyph-name="FL00ABh" unicode="&#xab;" horiz-adv-x="301" 
d="M400 299l-61 -41l36 -28l-41 -109l-88 73h1h-1q-1 3 -6 8l-31 -82l-87 73q-2 5 -6.5 11t-4.5 13q0 2 0.5 5.5t2.5 6.5l20 52q5 11 17 21t20 16l147 95l-38 -105l8 6t6 5l149 96zM258 282q0 1 0.5 2t0.5 3l-43 -30l24 -20z" />
    <glyph glyph-name="FL00ACh" unicode="&#xac;" horiz-adv-x="465" 
d="M330 87l33 86h-291l165 146h338l-89 -232h-156z" />
    <glyph glyph-name="FL00ADh" unicode="&#xad;" horiz-adv-x="312" 
d="M283 160l161 135h-213l-160 -135h212z" />
    <glyph glyph-name="registered" unicode="&#xae;" horiz-adv-x="267" 
d="M299 463h10q11 0 8 3q2 -2 2 1v-2q-2 -4 -5.5 -5.5t-14.5 -1.5h-1zM230 406v4q0 6 5 26l-1 -1q6 18 23 37l3 3l-28 -76q-2 6 -2 7zM261 373h6l16 44h1q3 0 4 -1l1 -4l3 -12v1l4 -25q-9 -4 -22 -4q-10 0 -13 1zM333 508q15 0 29 -8q12 -9 15 -25v-6q0 -8 -5 -25
q-4 -16 -22 -35q-3 -2 -5 -4.5t-5 -4.5l-2 9l-1.5 3l-0.5 1q-2 3 -2.5 6.5t-2.5 5.5q23 11 31 32q2 6 2 8v6q0 6 -1 9q-2 12 -14 18q-7 7 -34 7h-7q12 3 25 3zM339 550q-26 0 -58 -13q-35 -15 -54 -40q-12 -14 -21 -26.5t-14 -26.5q-6 -20 -6 -35v-10q0 -2 0.5 -4.5
t1.5 -6.5v1q3 -16 10 -26.5t19 -19.5q23 -14 50 -14q7 0 22.5 4t39.5 10q14 8 27 17t25 23q11 13 19.5 25.5t13.5 26.5q8 24 8 40q0 38 -33 61l1 -1q-21 15 -51 15z" />
    <glyph glyph-name="FL00AFh" unicode="&#xaf;" horiz-adv-x="455" 
d="M494 323l165 135h-354l-164 -135h353z" />
    <glyph glyph-name="FL00B0h" unicode="&#xb0;" horiz-adv-x="170" 
d="M174 392v-1q8 24 31.5 39.5t49.5 15.5q23 0 36.5 -11.5t13.5 -31.5q0 -10 -5 -20q-8 -23 -31.5 -39t-49.5 -16q-23 0 -36 12t-13 32q0 5 0.5 10t3.5 10z" />
    <glyph glyph-name="FL00B1h" unicode="&#xb1;" horiz-adv-x="458" 
d="M4 0l167 156h47l33 90h-156l166 156h46l37 97h158l-36 -97h151l-166 -156h-42l-33 -90h151l-166 -156h-357z" />
    <glyph glyph-name="FL00B4h" unicode="&#xb4;" horiz-adv-x="160" 
d="M213 428l-19 -18q-2 -2 -4 -4.5t-4 -4.5v1q-6 -8 -12 -15.5t-10 -17.5l1 1l-4 -10t-2 -10q0 -11 10 -18l-3 1l4 -3q3 -5 16 -5q14 0 35.5 9.5t33.5 20.5l20 18q6 6 11.5 12t8.5 13l-1 -1q5 13 5 20q0 17 -11 28q-17 11 -28 11q-14 0 -25 -8.5t-22 -19.5z" />
    <glyph glyph-name="FL00B5h" unicode="&#xb5;" horiz-adv-x="826" 
d="M643 252l-3 3h4zM920 266l-3 31l-48 35l27 8h23l-5 36l-88 24l68 44h-162l29 45l-155 -24l6 23l-22 17l-114 -52l-29 38l-92 -78l2 2q-6 -2 -8 -2q-10 0 -46 36l-44 -91l-70 7l-6 -41l13 -39l-89 -6l79 -60l-82 -35l121 -33l-68 -40l164 -8l-37 -49l165 34l1 -4l-33 -57
l159 72l36 -37l81 73l65 -26l36 83l63 -12l8 17q2 5 2.5 7.5t0.5 6.5q0 14 -11 49z" />
    <glyph glyph-name="FL00B7h" unicode="&#xb6;" horiz-adv-x="607" 
d="M505 304l-19 -41l14 14l15 15q18 8 27 8q18 0 24 -13l13 28l27 -59l23 46l33 -13l6 12l50 -13l-52 -87l-32 6l-2 -4l4 3l40 -16l-52 -38l-15 28q-18 0 -32 23l-10 -23l-32 -2l-1 -3l-7 2h-5v3l-20 9q0 15 1 16q-5 -2 -23 -21h-45l-46 -13l3 5q-21 3 -31 22l-9 -20l-48 -8
l9 22q-16 -16 -33 -16q-2 0 -2.5 -0.5t-1.5 -0.5h3h-15q-27 0 -36 12l-4 -13q-2 -1 -9.5 -2.5t-9.5 -1.5q-5 -1 -8 -1.5t-4 -0.5q-26 0 -33 18v-2l-62 -18l64 123l52 10l-13 -26q17 10 39 16t51 11l-10 -18q5 4 10.5 6.5t10.5 4.5h15q21 0 32 -11l12 30l29 -59l21 44l36 -11
l4 6zM228 212q5 11 10 20.5t12 17.5q-2 1 -2.5 1.5l-0.5 0.5q-7 0 -20 -10q-18 -15 -25 -31q0 -1 -1 -1q8 0 11 1h5q8 0 11 1zM305 243l-1 -1q0 3 1 4v1v1q-9 -6 -23 -22l-2 -5v1q-1 -1 -1 -5q2 1 4.5 2.5t7.5 2.5q5 7 8.5 11.5t5.5 9.5zM307 249q-1 0 -1 -1h-1h1q0 1 1 1z
" />
    <glyph glyph-name="FL00B9h" unicode="&#xb7;" horiz-adv-x="170" 
d="M119 243q9 23 31.5 38t47.5 15q23 0 37 -12.5t14 -31.5q0 -10 -5 -22q-9 -23 -32 -37.5t-49 -14.5q-49 0 -49 43q0 14 5 22z" />
    <glyph glyph-name="FL00B8h" unicode="&#xb8;" horiz-adv-x="180" 
d="M-158 -93l147 98h43l11 24h136l-50 -122h-287z" />
    <glyph glyph-name="FL00BBh" unicode="&#xbb;" horiz-adv-x="301" 
d="M69 108l43 116l62 40l-36 29l40 109l89 -75q1 -3 4 -6l30 81l89 -74l-1 1q3 -5 7.5 -11.5t4.5 -12.5q0 -2 -0.5 -5.5t-3.5 -6.5l-19 -51q-4 -11 -16 -21.5t-21 -16.5l-148 -95l38 104q-3 -3 -7 -5.5t-7 -4.5zM255 241l-3 -6l45 30l-26 21z" />
    <glyph glyph-name="FL00BFh" unicode="&#xbf;" horiz-adv-x="647" 
d="M635 369h-95v-9q-5 -5 -16 -10t-31 -5h-143q-30 0 -65.5 -15t-70 -37.5t-64 -50t-47.5 -52.5q-17 -23 -26 -50t-9 -54q0 -36 17 -61t55 -25h431q13 13 29.5 30t34 37t35 43t32.5 47h-401q0 7 3 10l11 13l1 -1t3 0h-1q4 2 6 4q7 2 15 6.5l8 4.5h133q27 0 62.5 17.5
t71.5 44t67.5 57t49.5 56.5h-67q32 5 59 26t38 50v1q3 9 4 16t1 10q0 26 -17 42t-50 16q-35 0 -67 -22t-44 -54l1 3q-6 -11 -6 -29q0 -23 13.5 -39t38.5 -20z" />
    <glyph glyph-name="FL00C0h" unicode="&#xc0;" horiz-adv-x="745" 
d="M548 0l-16 85q-9 -12 -20.5 -26t-23 -26.5t-21 -21.5t-14.5 -11h-428q2 8 3 14t3 12v3l1 1q7 23 12.5 29t9.5 -1l326 416q4 6 13.5 17t21 21.5t23.5 18t20 7.5h161q14 0 24.5 -11.5t18 -28t12.5 -34.5t8 -31l67 -433h-201zM615 657l1 -4q0 -9 1.5 -14t1.5 -14
q0 -13 -4 -21q-5 -11 -11.5 -20.5t-17.5 -14.5l2 2l-6 -4l3 1q-6 -6 -21 -6q-17 0 -36 13.5t-27 30.5l-5 21q-4 7 -4 19q0 7 3 13q11 32 41 48q24 10 35 10q19 0 26.5 -12.5t10.5 -27.5l-1 2zM498 332l-130 -175h156z" />
    <glyph glyph-name="FL00C1h" unicode="&#xc1;" horiz-adv-x="745" 
d="M548 0l-16 85q-9 -12 -20.5 -26t-23 -26.5t-21 -21.5t-14.5 -11h-428q2 8 3 14t3 12v3l1 1q7 23 12.5 29t9.5 -1l326 416q4 6 13.5 17t21 21.5t23.5 18t20 7.5h161q14 0 24.5 -11.5t18 -28t12.5 -34.5t8 -31l67 -433h-201zM526 663l25 22h-1q13 13 26 23t29 10
q8 0 16.5 -3.5t16.5 -8.5q13 -14 13 -34q0 -10 -6 -22l1 1q-3 -10 -8.5 -16t-10.5 -11l-3 -3l-23 -22q-15 -14 -39.5 -25t-40.5 -11q-15 0 -19 4l-5 8l2 -2q-10 7 -10 21q0 8 5 21q5 11 10 19t12 16q3 4 5.5 7t4.5 6zM498 332l-130 -175h156z" />
    <glyph glyph-name="FL00C2h" unicode="&#xc2;" horiz-adv-x="745" 
d="M548 0l-16 85q-9 -12 -20.5 -26t-23 -26.5t-21 -21.5t-14.5 -11h-428q2 8 3 14t3 12v3l1 1q7 23 12.5 29t9.5 -1l326 416l-1 -2q3 6 13 17t22 21.5t24 18.5t20 8h161q14 0 24.5 -11.5t18 -28t12.5 -34t8 -30.5l67 -433h-201zM594 569l-28 47l-46 -47q-11 -1 -22 -1h-20
h-30q-14 0 -24.5 0.5t-15.5 3t-3.5 7.5t11.5 15l103 101l4 2q7 5 12.5 9t13.5 4h60q14 0 23 -9t13 -16l58 -116h-109zM498 332l-130 -175h156z" />
    <glyph glyph-name="FL00C3h" unicode="&#xc3;" horiz-adv-x="746" 
d="M550 0l-17 85q-9 -12 -20.5 -26t-23 -26.5t-21 -21.5t-14.5 -11h-429q2 8 3 14t3 12v3l1 1q7 23 12.5 29t9.5 -1l326 416l-1 -2q3 6 13 17t22.5 21.5t24.5 18.5t20 8h162q14 0 24.5 -11.5t18 -28t12 -34t7.5 -30.5l68 -433h-201zM523 710h87l26 -47l47 47h108
q0 -8 -2 -14t-12 -18t-32 -34t-62 -61q-5 -3 -13.5 -8.5t-16.5 -5.5h-88l-26 47l-46 -47h-130l128 126l4 2q8 5 14 9t14 4zM499 332l-130 -175h156z" />
    <glyph glyph-name="FL00C4h" unicode="&#xc4;" horiz-adv-x="745" 
d="M548 0l-16 85q-9 -12 -20.5 -26t-23 -26.5t-21 -21.5t-14.5 -11h-428q2 8 3 14t3 12v3l1 1q7 23 12.5 29t9.5 -1l326 416l-1 -2q3 6 13 17t22 21.5t24 18.5t20 8h161q14 0 24.5 -11.5t18 -28t12.5 -34t8 -30.5l67 -433h-201zM736 635v1q-11 -28 -38 -47t-57 -19
q-27 0 -43 14.5t-16 37.5q0 5 1 11.5t4 13.5v-1q10 28 37.5 47t57.5 19q26 0 42 -14.5t16 -37.5q0 -14 -4 -25zM413 647v-1q11 28 37.5 47t56.5 19q28 0 44 -15t16 -38q0 -10 -5 -23q-11 -28 -38.5 -47t-57.5 -19q-27 0 -42.5 14.5t-15.5 37.5q0 5 1 11.5t4 13.5zM498 332
l-130 -175h156z" />
    <glyph glyph-name="FL00C5h" unicode="&#xc5;" horiz-adv-x="745" 
d="M548 0l-16 85q-9 -12 -20.5 -26t-23 -26.5t-21 -21.5t-14.5 -11h-428q2 8 3 14t3 12v3l1 1q7 23 12.5 29t9.5 -1l326 416l-1 -2q3 6 13 17t22 21.5t24 18.5t20 8h161q14 0 24.5 -11.5t18 -28t12.5 -34t8 -30.5l67 -433h-201zM501 647v-1q11 28 37.5 47t57.5 19
q27 0 43 -15t16 -38q0 -10 -5 -23q-10 -28 -37.5 -47t-58.5 -19q-26 0 -41.5 14.5t-15.5 37.5q0 14 4 25zM498 332l-130 -175h156z" />
    <glyph glyph-name="FL00C6h" unicode="&#xc6;" horiz-adv-x="1157" 
d="M752 530h590q-8 -16 -27.5 -42t-41 -51.5t-42 -44t-29.5 -18.5h-292l-30 -83l52 50h269l-171 -156h-191l-11 -29h377q-2 -4 -7.5 -14t-12 -20.5t-12 -19.5t-6.5 -10l1 2q-9 -12 -26 -28t-33.5 -31t-29.5 -25t-14 -10h-507l-16 84q-10 -12 -22 -26t-23 -26t-20.5 -21
t-14.5 -11h-436q2 8 3 14t3 12v2v1q7 23 13 29t10 -1l331 411q4 6 14 16.5t22 20.5t24 17.5t20 7.5h165q12 0 23 -12t20 -29t14.5 -36t6.5 -32v1l5 -30zM507 327l-132 -172h158z" />
    <glyph glyph-name="FL00C7h" unicode="&#xc7;" horiz-adv-x="625" 
d="M85 -111h303l40 111h2h115q42 32 75.5 74t61.5 84h-257q-14 0 -29 10t-28 25t-21 33t-8 34q0 7 2 15.5t4 19.5v-1q5 15 13.5 30t19 26.5t22.5 19t25 7.5h254q37 32 71 71t71 87h-425q-53 0 -101 -26.5t-84 -68.5t-57.5 -93t-21.5 -100q0 -47 12 -83t33.5 -63t51 -45.5
t64.5 -30.5l-8 -19h-45z" />
    <glyph glyph-name="FL00C8h" unicode="&#xc8;" horiz-adv-x="621" 
d="M31 0l196 538h582q-8 -16 -27.5 -43t-41 -52.5t-41.5 -44.5t-29 -19h-287l-30 -83l51 50h265l-168 -159h-188l-11 -29h372q-2 -4 -7.5 -14t-12 -21t-12 -20t-6.5 -10l1 2q-9 -12 -25.5 -28.5t-33 -31.5t-29.5 -25t-14 -10h-504zM567 684l9 -24q0 -7 1 -10q0 -4 0.5 -9
t0.5 -9q0 -14 -4 -22q-4 -11 -10.5 -21t-17.5 -15l2 2l-11 -7q-1 0 -1.5 -0.5t-2.5 -0.5q-2 -1 -6 -1h-3q-18 0 -36 11t-24 24l-9 30v-2q-3 9 -3 20q0 3 0.5 7t2.5 9q10 27 41 46q24 10 35 10q18 0 24.5 -12.5t11.5 -26.5v1z" />
    <glyph glyph-name="FL00C9h" unicode="&#xc9;" horiz-adv-x="621" 
d="M31 0l196 538h582q-8 -16 -27.5 -43t-41 -52.5t-41.5 -44.5t-29 -19h-287l-30 -83l51 50h265l-168 -159h-188l-11 -29h372q-2 -4 -7.5 -14t-12 -21t-12 -20t-6.5 -10l1 2q-9 -12 -25.5 -28.5t-33 -31.5t-29.5 -25t-14 -10h-504zM489 669l23 21h-1q13 13 26 23t29 10
q8 0 16.5 -3.5t16.5 -8.5q13 -13 13 -34q0 -7 -5 -22l1 1q-4 -10 -9.5 -16t-10.5 -11l-4 -3l-23 -22q-7 -6 -17.5 -12.5t-22 -12t-22 -8.5t-18.5 -3q-14 0 -18 4l-6 8l1 -2q-3 4 -5.5 9t-2.5 12q0 10 5 23v-1q4 12 11 21t15 18v-1q1 2 3.5 5t4.5 5z" />
    <glyph glyph-name="FL00CAh" unicode="&#xca;" horiz-adv-x="621" 
d="M31 0l196 537h582q-8 -16 -27.5 -42.5t-41 -52t-41.5 -44.5t-29 -19h-287l-30 -83l51 49h265l-168 -158h-188l-11 -29h372q-2 -4 -7.5 -14t-12 -21t-12 -20t-6.5 -10l1 2q-9 -12 -25.5 -28.5t-33 -31.5t-29.5 -25t-14 -10h-504zM555 572l-25 47l-48 -47h-129l128 126
q1 1 2 1.5t0 -0.5q8 5 16 9.5t14 4.5h60q14 0 22 -9t13 -16l57 -116h-110z" />
    <glyph glyph-name="FL00CBh" unicode="&#xcb;" horiz-adv-x="621" 
d="M31 0l196 537h582q-8 -16 -27.5 -42.5t-41 -52t-41.5 -44.5t-29 -19h-287l-30 -83l51 49h265l-168 -158h-188l-11 -29h372q-2 -4 -7.5 -14t-12 -21t-12 -20t-6.5 -10l1 2q-9 -12 -25.5 -28.5t-33 -31.5t-29.5 -25t-14 -10h-504zM710 635v1q-10 -28 -37 -47t-58 -19
q-26 0 -42 14.5t-16 37.5q0 5 0.5 11.5t3.5 13.5v-1q11 28 38 47t58 19q26 0 42 -14.5t16 -37.5q0 -5 -1 -11.5t-4 -13.5zM387 647v-1q11 28 37.5 47t56.5 19q28 0 44 -15t16 -38q0 -10 -5 -23q-10 -28 -37.5 -47t-58.5 -19q-27 0 -42.5 14.5t-15.5 37.5q0 5 1 11.5t4 13.5z
" />
    <glyph glyph-name="FL00CCh" unicode="&#xcc;" horiz-adv-x="250" 
d="M220 538h207l-190 -538h-207zM401 658v-4q0 -5 1.5 -11t1.5 -15t-3 -22q-4 -11 -10 -21t-17 -15l1 1l-7 -4l4 2q-6 -6 -20 -6q-17 0 -35.5 13t-23.5 30l-7 22v-2q-3 9 -3 21q0 7 2 13q10 31 39 48q24 10 34 10q18 0 25.5 -12.5t10.5 -27.5l-1 2z" />
    <glyph glyph-name="FL00CDh" unicode="&#xcd;" horiz-adv-x="251" 
d="M238 0h-208l190 538h208zM316 666l22 21h-1q12 13 25 23t28 10t32 -12q13 -14 13 -34q0 -10 -6 -22l1 1q-3 -10 -8 -16t-10 -11l-4 -3l-22 -22q-7 -6 -17.5 -12.5t-21.5 -12t-21.5 -8.5t-17.5 -3q-13 0 -17 4l-6 8l1 -2q-3 4 -5.5 9.5t-2.5 11.5q0 10 5 23q4 11 10.5 20
t14.5 18v-1q1 2 3.5 5t4.5 5z" />
    <glyph glyph-name="FL00CEh" unicode="&#xce;" horiz-adv-x="252" 
d="M240 0h-209l191 537h209zM382 571l-25 47l-45 -47h-127l122 123q5 5 15 11.5t19 6.5h58q14 0 22 -9t12 -16l57 -116h-108z" />
    <glyph glyph-name="FL00CFh" unicode="&#xcf;" horiz-adv-x="254" 
d="M241 0h-210l192 537h210zM526 635v1q-11 -28 -37.5 -47t-56.5 -19q-26 0 -41.5 14.5t-15.5 37.5q0 5 1 11.5t4 13.5v-1q10 28 36.5 47t56.5 19q26 0 41.5 -14.5t15.5 -37.5q0 -14 -4 -25zM209 647v-1q10 28 36.5 47t55.5 19q27 0 43 -15t16 -38q0 -10 -5 -23
q-5 -14 -15 -26t-22.5 -21t-27 -14t-29.5 -5q-26 0 -41.5 14.5t-15.5 37.5q0 5 1 11.5t4 13.5z" />
    <glyph glyph-name="FL00D0h" unicode="&#xd0;" horiz-adv-x="765" 
d="M823 236q-48 -63 -95 -108t-97.5 -73.5t-107.5 -41.5t-126 -13h-260l68 185h-131l168 156h20l72 189h428q64 0 94.5 -36t30.5 -90q0 -39 -16 -82.5t-48 -85.5zM445 185h-23l-10 -29h8q20 0 49.5 10.5t59.5 27t55.5 35.5t38.5 36q3 6 6 9l-1 -1q4 5 9 12t10 17v-1
q10 26 10 49q0 10 -3.5 17t-14.5 7h-146l-13 -33h133z" />
    <glyph glyph-name="FL00D1h" unicode="&#xd1;" horiz-adv-x="650" 
d="M246 0h-215l197 537h255l47 -246l91 246h213l-197 -537h-255l-46 246zM484 710h88l26 -47l46 47h109q0 -8 -1.5 -14t-12 -18t-32.5 -34t-63 -61q-5 -3 -13 -8.5t-17 -5.5h-88l-26 47l-46 -47h-130l128 126l4 2q8 5 14 9t14 4z" />
    <glyph glyph-name="FL00D2h" unicode="&#xd2;" 
d="M803 288q-8 -49 -37.5 -100t-74.5 -93t-101 -68.5t-116 -26.5h-96q-56 0 -104 9t-83 31.5t-54.5 60.5t-19.5 97q0 12 1 25t3 27q7 48 36.5 99t73 93t96 69t105.5 27h126q55 0 101 -11t79 -34.5t51 -61t18 -89.5q0 -14 -1 -27t-3 -27zM331 260v-3q-1 -3 -1 -8
q0 -15 5.5 -31.5t15 -29.5t22.5 -21.5t27 -8.5h63q10 0 26 7.5t32.5 19.5t31.5 26.5t23 29.5q8 12 10 21l4 10q1 4 1.5 8t1.5 8q0 7 0.5 13t0.5 14q0 25 -13.5 44.5t-49.5 19.5h-77q-14 0 -30 -7.5t-31.5 -20t-28.5 -27.5t-21 -30v1q-4 -11 -7.5 -20t-4.5 -15zM633 682
l9 -24v-12q1 -4 1.5 -8t0.5 -10q0 -11 -3 -21q-5 -11 -11.5 -20t-15.5 -14l-7 -4l4 2q-6 -6 -21 -6q-17 0 -36 13.5t-27 30.5l-5 21q-2 4 -2.5 9t-0.5 10q0 7 2 13q11 32 41 48q24 10 34 10q19 0 27 -12.5t11 -27.5z" />
    <glyph glyph-name="FL00D3h" unicode="&#xd3;" 
d="M803 288q-8 -49 -37.5 -100t-74.5 -93t-101 -68.5t-116 -26.5h-96q-56 0 -104 9t-83 31.5t-54.5 60.5t-19.5 97q0 12 1 25t3 27q7 48 36.5 99t73 93t96 69t105.5 27h126q55 0 101 -11t79 -34.5t51 -61t18 -89.5q0 -14 -1 -27t-3 -27zM331 260v-3q-1 -3 -1 -8
q0 -15 5.5 -31.5t15 -29.5t22.5 -21.5t27 -8.5h63q10 0 26 7.5t32.5 19.5t31.5 26.5t23 29.5q8 12 10 21l4 10q1 4 1.5 8t1.5 8q0 7 0.5 13t0.5 14q0 25 -13.5 44.5t-49.5 19.5h-77q-14 0 -30 -7.5t-31.5 -20t-28.5 -27.5t-21 -30v1q-4 -11 -7.5 -20t-4.5 -15zM549 666
l23 21h-1q12 13 25 23t29 10q8 0 16.5 -3.5t16.5 -8.5q13 -14 13 -34q0 -10 -6 -22l1 1q-3 -10 -8.5 -16t-10.5 -11l-4 -3l-23 -22q-7 -6 -17.5 -12.5t-22 -12t-22 -8.5t-18.5 -3q-13 0 -17 4l-6 8l1 -2q-9 9 -9 21q0 10 5 23v-1q5 12 11.5 21t14.5 18v-1q2 2 4.5 5t4.5 5z
" />
    <glyph glyph-name="FL00D4h" unicode="&#xd4;" 
d="M803 288q-8 -49 -37.5 -100t-74.5 -93t-101 -68.5t-116 -26.5h-96q-56 0 -104 9t-83 31.5t-54.5 60.5t-19.5 97q0 12 1 24.5t3 26.5q7 49 36.5 100t73 93t96 68.5t105.5 26.5h126q55 0 101 -11t79 -34t51 -60.5t18 -89.5q0 -14 -1 -27t-3 -27zM331 260v-3q-1 -3 -1 -8
q0 -15 5.5 -31.5t15 -29.5t22.5 -21.5t27 -8.5h63q10 0 26 7.5t32.5 19t31.5 26.5t23 30q8 12 10 21l4 10q1 4 1.5 8t1.5 8q0 6 0.5 12.5t0.5 14.5q0 24 -13.5 44t-49.5 20h-77q-14 0 -30 -7.5t-31.5 -20t-28.5 -27.5t-21 -30v1q-4 -11 -7.5 -20t-4.5 -15zM602 570l-25 47
l-47 -47h-129l127 126l3 1q8 5 15.5 9.5t14.5 4.5h59q15 0 22.5 -9t12.5 -16l57 -116h-110z" />
    <glyph glyph-name="FL00D5h" unicode="&#xd5;" 
d="M803 288q-8 -49 -37.5 -100t-74.5 -93t-101 -68.5t-116 -26.5h-96q-56 0 -104 9t-83 31.5t-54.5 60.5t-19.5 97q0 12 1 24.5t3 26.5q7 49 36.5 100t73 93t96 68.5t105.5 26.5h126q55 0 101 -11t79 -34t51 -60.5t18 -89.5q0 -14 -1 -27t-3 -27zM331 260v-3q-1 -3 -1 -9
q0 -15 5.5 -31t15 -29t22.5 -21.5t27 -8.5h63q10 0 26 7.5t32.5 19t31.5 26.5t23 30q9 14 10 21l4 10q1 4 1.5 8t1.5 8q0 6 0.5 12.5t0.5 14.5q0 24 -13.5 44t-49.5 20h-77q-14 0 -30 -7.5t-31.5 -20t-28.5 -27.5t-21 -30v1q-4 -11 -7.5 -20t-4.5 -15zM516 710h87l26 -47
l46 47h108q0 -8 -2 -14t-12 -18t-32 -34t-62 -61q-5 -3 -13 -8.5t-17 -5.5h-87l-26 47l-46 -47h-129l127 126l4 2q8 5 14 9t14 4z" />
    <glyph glyph-name="FL00D6h" unicode="&#xd6;" 
d="M803 288q-8 -49 -37.5 -100t-74.5 -93t-101 -68.5t-116 -26.5h-96q-56 0 -104 9t-83 31.5t-54.5 60.5t-19.5 97q0 12 1 24.5t3 26.5q7 49 36.5 100t73 93t96 68.5t105.5 26.5h126q55 0 101 -11t79 -34t51 -60.5t18 -89.5q0 -14 -1 -27t-3 -27zM331 260v-3q-1 -3 -1 -8
q0 -15 5.5 -31.5t15 -29.5t22.5 -21.5t27 -8.5h63q10 0 26 7.5t32.5 19.5t31.5 26.5t23 29.5q8 12 10 21l4 10q1 4 1.5 8t1.5 8q0 7 0.5 13t0.5 14q0 24 -13.5 44t-49.5 20h-77q-14 0 -30 -7.5t-31.5 -20t-28.5 -27.5t-21 -30v1q-4 -11 -7.5 -20t-4.5 -15zM752 635v1
q-11 -28 -38 -47t-57 -19q-27 0 -43 14.5t-16 37.5q0 5 1 11.5t4 13.5v-1q11 28 38 47t57 19q27 0 43 -14.5t16 -37.5q0 -5 -1 -11.5t-4 -13.5zM430 647v-1q10 28 36.5 47t57.5 19q27 0 43 -15t16 -38q0 -10 -5 -23q-10 -28 -37.5 -47t-58.5 -19q-26 0 -41.5 14.5
t-15.5 37.5q0 5 1 11.5t4 13.5z" />
    <glyph glyph-name="FL00D7h" unicode="&#xd7;" horiz-adv-x="395" 
d="M272 164l27 -51h148l-71 133l181 140h-161l-66 -51l-27 51h-147l68 -133l-180 -140h160z" />
    <glyph glyph-name="FL00D8h" unicode="&#xd8;" 
d="M803 284q-8 -48 -37.5 -98.5t-74.5 -91.5t-101 -67.5t-116 -26.5h-96q-56 0 -104 9t-83 31.5t-54.5 60t-19.5 94.5q0 12 1 24.5t3 26.5q7 48 36.5 98.5t73 91.5t96 67.5t105.5 26.5h126q55 0 101 -11t79 -34t51 -59.5t18 -88.5q0 -14 -1 -26.5t-3 -26.5zM590 268
q1 5 1.5 8.5t1.5 7.5v12l-200 -140h7h63q10 0 26 7.5t32.5 19t31.5 26t23 29.5q9 14 10 20zM331 256v-1q-1 -3 -1 -12v-4l193 135h-69q-14 0 -30 -7.5t-31.5 -19.5t-28.5 -27t-21 -30v1q-4 -11 -7.5 -20t-4.5 -15z" />
    <glyph glyph-name="FL00D9h" unicode="&#xd9;" horiz-adv-x="675" 
d="M147 314l80 224h212q-24 -69 -40.5 -117.5t-27.5 -80.5t-16.5 -50t-8.5 -28t-3.5 -13.5t-0.5 -5.5q-2 -10 -2 -15v-12q0 -27 9.5 -42.5t32.5 -15.5h47q21 0 38.5 9t31.5 22t24.5 28.5t16.5 27.5l-1 -2l107 295h213l-94 -257q-25 -68 -51 -120.5t-59 -88t-76.5 -54
t-104.5 -18.5h-112q-125 0 -186.5 35t-61.5 119q0 11 1.5 23.5t3.5 26.5q6 33 19 74zM617 681l9 -24q0 -7 1 -10q0 -4 0.5 -9t0.5 -9q0 -14 -4 -22q-4 -11 -10 -21t-18 -15l2 2l-10 -7q-1 0 -1.5 -0.5t-2.5 -0.5q-3 -1 -7 -1h-3q-18 0 -36 11t-23 24l-9 30v-2q-4 7 -4 21
q0 7 2 13q12 31 42 48q27 10 35 10q18 0 25 -12.5t11 -26.5v1z" />
    <glyph glyph-name="FL00DAh" unicode="&#xda;" horiz-adv-x="675" 
d="M147 314l80 224h212q-24 -69 -40.5 -117.5t-27.5 -80.5t-16.5 -50t-8.5 -28t-3.5 -13.5t-0.5 -5.5q-2 -10 -2 -15v-12q0 -27 9.5 -42.5t32.5 -15.5h47q21 0 38.5 9t31.5 22t24.5 28.5t16.5 27.5l-1 -2l107 295h213l-94 -257q-25 -68 -51 -120.5t-59 -88t-76.5 -54
t-104.5 -18.5h-112q-125 0 -186.5 35t-61.5 119q0 11 1.5 23.5t3.5 26.5q6 33 19 74zM537 665l24 21h-1q12 13 25 23t29 10t33 -12q13 -13 13 -33q0 -11 -5 -23v1q-4 -10 -9 -16t-10 -11l-3 -3l-23 -22q-15 -13 -40 -24.5t-41 -11.5q-13 0 -20 7l1 -1l-4 4l2 -1
q-11 8 -11 22q0 8 5 21q5 14 12 23t15 17q2 2 4 4.5t4 4.5z" />
    <glyph glyph-name="FL00DBh" unicode="&#xdb;" horiz-adv-x="675" 
d="M147 314l80 223h212q-24 -69 -40.5 -117l-27.5 -80t-16.5 -50.5t-8.5 -28t-3.5 -13t-0.5 -5.5q-2 -10 -2 -15v-12q0 -27 9.5 -42.5t32.5 -15.5h47q21 0 38.5 9t31.5 22t24.5 28.5t16.5 27.5l-1 -2l107 294h213l-94 -256q-25 -68 -51 -120.5t-59 -88t-76.5 -54
t-104.5 -18.5h-112q-125 0 -186.5 35t-61.5 119q0 11 1.5 23.5t3.5 26.5q3 17 7.5 35.5t11.5 38.5zM589 570l-26 47l-47 -47h-129l128 126l3 2q8 5 14.5 9t13.5 4h60q14 0 22.5 -9t12.5 -16l58 -116h-110z" />
    <glyph glyph-name="FL00DCh" unicode="&#xdc;" horiz-adv-x="675" 
d="M147 314l80 223h212q-24 -69 -40.5 -117l-27.5 -80t-16.5 -50.5t-8.5 -28t-3.5 -13t-0.5 -5.5q-2 -10 -2 -15v-12q0 -27 9.5 -42.5t32.5 -15.5h47q21 0 38.5 9t31.5 22t24.5 28.5t16.5 27.5l-1 -2l107 294h213l-94 -256q-25 -68 -51 -120.5t-59 -88t-76.5 -54
t-104.5 -18.5h-112q-125 0 -186.5 35t-61.5 119q0 11 1.5 23.5t3.5 26.5q3 17 7.5 35.5t11.5 38.5zM417 646v-1q10 28 37 47t58 19q26 0 42 -14.5t16 -37.5q0 -5 -1 -11.5t-4 -13.5v1q-10 -28 -37 -47t-58 -19q-26 0 -42 14.5t-16 37.5q0 5 1 11.5t4 13.5zM739 634v1
q-10 -28 -36.5 -47t-57.5 -19q-27 0 -43 15t-16 38q0 10 4 22q11 28 38.5 47.5t58.5 19.5q26 0 41.5 -14.5t15.5 -37.5q0 -5 -1 -11.5t-4 -13.5z" />
    <glyph glyph-name="FL00DDh" unicode="&#xdd;" horiz-adv-x="646" 
d="M438 0h-212l92 255l-114 283h235l44 -111l125 111h246l-326 -290zM523 665l24 21h-1q12 13 25 23t29 10q8 0 16.5 -3.5t16.5 -8.5q12 -14 12 -33q0 -11 -5 -23v1q-3 -10 -8.5 -16t-10.5 -11l-2 -3l-23 -22q-7 -6 -17.5 -12.5t-22 -12t-22 -8.5t-18.5 -3q-16 0 -20 7v-1
l-3 4l2 -1q-11 8 -11 22q0 8 5 21q5 14 12 23t15 17q6 8 7 9z" />
    <glyph glyph-name="FL00DEh" unicode="&#xde;" horiz-adv-x="673" 
d="M31 0l196 530h214l-35 -95h237q28 0 48.5 -16t34 -39.5t20.5 -50t8 -47.5q0 -43 -21 -78.5t-53 -61.5t-70.5 -40.5t-72.5 -14.5h-260l-32 -87h-214zM535 278h-187l-31 -83l56 48h158l3 8l6 16v1v-1v1z" />
    <glyph glyph-name="FL00DFh" unicode="&#xdf;" horiz-adv-x="666" 
d="M492 179l1 2q1 0 -1 -2zM384 377h170l2 -4.5t4 -7.5l-1 2v-3q-2 -7 -5.5 -14.5l-3.5 -7.5h-39l-182 -158h164q0 -1 -0.5 -1.5l-0.5 -0.5l-2 -5q0 -1 -2 -3q-6 -5 -15 -10l-9 -5h-116q-24 -25 -43 -50.5t-39 -53.5zM-18 -135h215l49 135h230q60 0 97 7.5t61 24t39 41.5
t31 61l3 11q5 13 11 31.5t6 35.5q-1 17 -6.5 26.5t-11.5 16.5q27 19 47.5 53.5t20.5 70.5v2q0 21 -7 47.5t-20.5 50.5t-35 40.5t-49.5 16.5h-377q-32 -35 -59.5 -68.5t-46.5 -64.5z" />
    <glyph glyph-name="FL00E0h" unicode="&#xe0;" horiz-adv-x="745" 
d="M548 0l-16 85q-9 -12 -20.5 -26t-23 -26.5t-21 -21.5t-14.5 -11h-428q2 8 3 14t3 12v3l1 1q7 23 12.5 29t9.5 -1l326 416q4 6 13.5 17t21 21.5t23.5 18t20 7.5h161q14 0 24.5 -11.5t18 -28t12.5 -34.5t8 -31l67 -433h-201zM615 657l1 -4q0 -9 1.5 -14t1.5 -14
q0 -13 -4 -21q-5 -11 -11.5 -20.5t-17.5 -14.5l2 2l-6 -4l3 1q-6 -6 -21 -6q-17 0 -36 13.5t-27 30.5l-5 21q-4 7 -4 19q0 7 3 13q11 32 41 48q24 10 35 10q19 0 26.5 -12.5t10.5 -27.5l-1 2zM498 332l-130 -175h156z" />
    <glyph glyph-name="FL00E1h" unicode="&#xe1;" horiz-adv-x="745" 
d="M548 0l-16 85q-9 -12 -20.5 -26t-23 -26.5t-21 -21.5t-14.5 -11h-428q2 8 3 14t3 12v3l1 1q7 23 12.5 29t9.5 -1l326 416q4 6 13.5 17t21 21.5t23.5 18t20 7.5h161q14 0 24.5 -11.5t18 -28t12.5 -34.5t8 -31l67 -433h-201zM526 663l25 22h-1q13 13 26 23t29 10
q8 0 16.5 -3.5t16.5 -8.5q13 -14 13 -34q0 -10 -6 -22l1 1q-3 -10 -8.5 -16t-10.5 -11l-3 -3l-23 -22q-15 -14 -39.5 -25t-40.5 -11q-15 0 -19 4l-5 8l2 -2q-10 7 -10 21q0 8 5 21q5 11 10 19t12 16q3 4 5.5 7t4.5 6zM498 332l-130 -175h156z" />
    <glyph glyph-name="FL00E2h" unicode="&#xe2;" horiz-adv-x="745" 
d="M548 0l-16 85q-9 -12 -20.5 -26t-23 -26.5t-21 -21.5t-14.5 -11h-428q2 8 3 14t3 12v3l1 1q7 23 12.5 29t9.5 -1l326 416l-1 -2q3 6 13 17t22 21.5t24 18.5t20 8h161q14 0 24.5 -11.5t18 -28t12.5 -34t8 -30.5l67 -433h-201zM594 569l-28 47l-46 -47q-11 -1 -22 -1h-20
h-30q-14 0 -24.5 0.5t-15.5 3t-3.5 7.5t11.5 15l103 101l4 2q7 5 12.5 9t13.5 4h60q14 0 23 -9t13 -16l58 -116h-109zM498 332l-130 -175h156z" />
    <glyph glyph-name="FL00E3h" unicode="&#xe3;" horiz-adv-x="746" 
d="M550 0l-17 85q-9 -12 -20.5 -26t-23 -26.5t-21 -21.5t-14.5 -11h-429q2 8 3 14t3 12v3l1 1q7 23 12.5 29t9.5 -1l326 416l-1 -2q3 6 13 17t22.5 21.5t24.5 18.5t20 8h162q14 0 24.5 -11.5t18 -28t12 -34t7.5 -30.5l68 -433h-201zM523 710h87l26 -47l47 47h108
q0 -8 -2 -14t-12 -18t-32 -34t-62 -61q-5 -3 -13.5 -8.5t-16.5 -5.5h-88l-26 47l-46 -47h-130l128 126l4 2q8 5 14 9t14 4zM499 332l-130 -175h156z" />
    <glyph glyph-name="FL00E4h" unicode="&#xe4;" horiz-adv-x="745" 
d="M548 0l-16 85q-9 -12 -20.5 -26t-23 -26.5t-21 -21.5t-14.5 -11h-428q2 8 3 14t3 12v3l1 1q7 23 12.5 29t9.5 -1l326 416l-1 -2q3 6 13 17t22 21.5t24 18.5t20 8h161q14 0 24.5 -11.5t18 -28t12.5 -34t8 -30.5l67 -433h-201zM736 635v1q-11 -28 -38 -47t-57 -19
q-27 0 -43 14.5t-16 37.5q0 5 1 11.5t4 13.5v-1q10 28 37.5 47t57.5 19q26 0 42 -14.5t16 -37.5q0 -14 -4 -25zM413 647v-1q11 28 37.5 47t56.5 19q28 0 44 -15t16 -38q0 -10 -5 -23q-11 -28 -38.5 -47t-57.5 -19q-27 0 -42.5 14.5t-15.5 37.5q0 5 1 11.5t4 13.5zM498 332
l-130 -175h156z" />
    <glyph glyph-name="FL00E5h" unicode="&#xe5;" horiz-adv-x="745" 
d="M548 0l-16 85q-9 -12 -20.5 -26t-23 -26.5t-21 -21.5t-14.5 -11h-428q2 8 3 14t3 12v3l1 1q7 23 12.5 29t9.5 -1l326 416l-1 -2q3 6 13 17t22 21.5t24 18.5t20 8h161q14 0 24.5 -11.5t18 -28t12.5 -34t8 -30.5l67 -433h-201zM501 647v-1q11 28 37.5 47t57.5 19
q27 0 43 -15t16 -38q0 -10 -5 -23q-10 -28 -37.5 -47t-58.5 -19q-26 0 -41.5 14.5t-15.5 37.5q0 14 4 25zM498 332l-130 -175h156z" />
    <glyph glyph-name="FL00E6h" unicode="&#xe6;" horiz-adv-x="1157" 
d="M752 530h590q-8 -16 -27.5 -42t-41 -51.5t-42 -44t-29.5 -18.5h-292l-30 -83l52 50h269l-171 -156h-191l-11 -29h377q-2 -4 -7.5 -14t-12 -20.5t-12 -19.5t-6.5 -10l1 2q-9 -12 -26 -28t-33.5 -31t-29.5 -25t-14 -10h-507l-16 84q-10 -12 -22 -26t-23 -26t-20.5 -21
t-14.5 -11h-436q2 8 3 14t3 12v2v1q7 23 13 29t10 -1l331 411q4 6 14 16.5t22 20.5t24 17.5t20 7.5h165q12 0 23 -12t20 -29t14.5 -36t6.5 -32v1l5 -30zM507 327l-132 -172h158z" />
    <glyph glyph-name="FL00E7h" unicode="&#xe7;" horiz-adv-x="625" 
d="M85 -111h303l40 111h2h115q42 32 75.5 74t61.5 84h-257q-14 0 -29 10t-28 25t-21 33t-8 34q0 7 2 15.5t4 19.5v-1q5 15 13.5 30t19 26.5t22.5 19t25 7.5h254q37 32 71 71t71 87h-425q-53 0 -101 -26.5t-84 -68.5t-57.5 -93t-21.5 -100q0 -47 12 -83t33.5 -63t51 -45.5
t64.5 -30.5l-8 -19h-45z" />
    <glyph glyph-name="FL00E8h" unicode="&#xe8;" horiz-adv-x="621" 
d="M31 0l196 538h582q-8 -16 -27.5 -43t-41 -52.5t-41.5 -44.5t-29 -19h-287l-30 -83l51 50h265l-168 -159h-188l-11 -29h372q-2 -4 -7.5 -14t-12 -21t-12 -20t-6.5 -10l1 2q-9 -12 -25.5 -28.5t-33 -31.5t-29.5 -25t-14 -10h-504zM567 684l9 -24q0 -7 1 -10q0 -4 0.5 -9
t0.5 -9q0 -14 -4 -22q-4 -11 -10.5 -21t-17.5 -15l2 2l-11 -7q-1 0 -1.5 -0.5t-2.5 -0.5q-2 -1 -6 -1h-3q-18 0 -36 11t-24 24l-9 30v-2q-3 9 -3 20q0 3 0.5 7t2.5 9q10 27 41 46q24 10 35 10q18 0 24.5 -12.5t11.5 -26.5v1z" />
    <glyph glyph-name="FL00E9h" unicode="&#xe9;" horiz-adv-x="621" 
d="M31 0l196 538h582q-8 -16 -27.5 -43t-41 -52.5t-41.5 -44.5t-29 -19h-287l-30 -83l51 50h265l-168 -159h-188l-11 -29h372q-2 -4 -7.5 -14t-12 -21t-12 -20t-6.5 -10l1 2q-9 -12 -25.5 -28.5t-33 -31.5t-29.5 -25t-14 -10h-504zM489 669l23 21h-1q13 13 26 23t29 10
q8 0 16.5 -3.5t16.5 -8.5q13 -13 13 -34q0 -7 -5 -22l1 1q-4 -10 -9.5 -16t-10.5 -11l-4 -3l-23 -22q-7 -6 -17.5 -12.5t-22 -12t-22 -8.5t-18.5 -3q-14 0 -18 4l-6 8l1 -2q-3 4 -5.5 9t-2.5 12q0 10 5 23v-1q4 12 11 21t15 18v-1q1 2 3.5 5t4.5 5z" />
    <glyph glyph-name="FL00EAh" unicode="&#xea;" horiz-adv-x="621" 
d="M31 0l196 537h582q-8 -16 -27.5 -42.5t-41 -52t-41.5 -44.5t-29 -19h-287l-30 -83l51 49h265l-168 -158h-188l-11 -29h372q-2 -4 -7.5 -14t-12 -21t-12 -20t-6.5 -10l1 2q-9 -12 -25.5 -28.5t-33 -31.5t-29.5 -25t-14 -10h-504zM555 572l-25 47l-48 -47h-129l128 126
q1 1 2 1.5t0 -0.5q8 5 16 9.5t14 4.5h60q14 0 22 -9t13 -16l57 -116h-110z" />
    <glyph glyph-name="FL00EBh" unicode="&#xeb;" horiz-adv-x="621" 
d="M31 0l196 537h582q-8 -16 -27.5 -42.5t-41 -52t-41.5 -44.5t-29 -19h-287l-30 -83l51 49h265l-168 -158h-188l-11 -29h372q-2 -4 -7.5 -14t-12 -21t-12 -20t-6.5 -10l1 2q-9 -12 -25.5 -28.5t-33 -31.5t-29.5 -25t-14 -10h-504zM710 635v1q-10 -28 -37 -47t-58 -19
q-26 0 -42 14.5t-16 37.5q0 5 0.5 11.5t3.5 13.5v-1q11 28 38 47t58 19q26 0 42 -14.5t16 -37.5q0 -5 -1 -11.5t-4 -13.5zM387 647v-1q11 28 37.5 47t56.5 19q28 0 44 -15t16 -38q0 -10 -5 -23q-10 -28 -37.5 -47t-58.5 -19q-27 0 -42.5 14.5t-15.5 37.5q0 5 1 11.5t4 13.5z
" />
    <glyph glyph-name="FL00ECh" unicode="&#xec;" horiz-adv-x="250" 
d="M220 538h207l-190 -538h-207zM401 658v-4q0 -5 1.5 -11t1.5 -15t-3 -22q-4 -11 -10 -21t-17 -15l1 1l-7 -4l4 2q-6 -6 -20 -6q-17 0 -35.5 13t-23.5 30l-7 22v-2q-3 9 -3 21q0 7 2 13q10 31 39 48q24 10 34 10q18 0 25.5 -12.5t10.5 -27.5l-1 2z" />
    <glyph glyph-name="FL00EDh" unicode="&#xed;" horiz-adv-x="251" 
d="M238 0h-208l190 538h208zM316 666l22 21h-1q12 13 25 23t28 10t32 -12q13 -14 13 -34q0 -10 -6 -22l1 1q-3 -10 -8 -16t-10 -11l-4 -3l-22 -22q-7 -6 -17.5 -12.5t-21.5 -12t-21.5 -8.5t-17.5 -3q-13 0 -17 4l-6 8l1 -2q-3 4 -5.5 9.5t-2.5 11.5q0 10 5 23q4 11 10.5 20
t14.5 18v-1q1 2 3.5 5t4.5 5z" />
    <glyph glyph-name="FL00EEh" unicode="&#xee;" horiz-adv-x="252" 
d="M240 0h-209l191 537h209zM382 571l-25 47l-45 -47h-127l122 123q5 5 15 11.5t19 6.5h58q14 0 22 -9t12 -16l57 -116h-108z" />
    <glyph glyph-name="FL00EFh" unicode="&#xef;" horiz-adv-x="254" 
d="M241 0h-210l192 537h210zM526 635v1q-11 -28 -37.5 -47t-56.5 -19q-26 0 -41.5 14.5t-15.5 37.5q0 5 1 11.5t4 13.5v-1q10 28 36.5 47t56.5 19q26 0 41.5 -14.5t15.5 -37.5q0 -14 -4 -25zM209 647v-1q10 28 36.5 47t55.5 19q27 0 43 -15t16 -38q0 -10 -5 -23
q-5 -14 -15 -26t-22.5 -21t-27 -14t-29.5 -5q-26 0 -41.5 14.5t-15.5 37.5q0 5 1 11.5t4 13.5z" />
    <glyph glyph-name="FL00F0h" unicode="&#xf0;" horiz-adv-x="638" 
d="M106 203l1 2q27 57 69.5 91t106.5 45h251v6q0 11 -4.5 19t-15.5 8h-259q-17 34 -22.5 72.5t-6.5 83.5h410q63 0 93.5 -36t30.5 -90q0 -39 -16 -82.5t-48 -85.5q-51 -70 -112.5 -115.5t-127 -72.5t-131 -37.5t-125.5 -10.5q-29 0 -49.5 9.5t-34.5 26t-20.5 38t-6.5 46.5
q0 38 17 83zM343 157q13 0 31.5 10t40.5 25h-75q-13 -2 -18 -5t-10 -8q-1 -1 -3 -2.5t-5 -4.5l-1 -15h40z" />
    <glyph glyph-name="FL00F1h" unicode="&#xf1;" horiz-adv-x="650" 
d="M246 0h-215l197 537h255l47 -246l91 246h213l-197 -537h-255l-46 246zM484 710h88l26 -47l46 47h109q0 -8 -1.5 -14t-12 -18t-32.5 -34t-63 -61q-5 -3 -13 -8.5t-17 -5.5h-88l-26 47l-46 -47h-130l128 126l4 2q8 5 14 9t14 4z" />
    <glyph glyph-name="FL00F2h" unicode="&#xf2;" 
d="M803 288q-8 -49 -37.5 -100t-74.5 -93t-101 -68.5t-116 -26.5h-96q-56 0 -104 9t-83 31.5t-54.5 60.5t-19.5 97q0 12 1 25t3 27q7 48 36.5 99t73 93t96 69t105.5 27h126q55 0 101 -11t79 -34.5t51 -61t18 -89.5q0 -14 -1 -27t-3 -27zM331 260v-3q-1 -3 -1 -8
q0 -15 5.5 -31.5t15 -29.5t22.5 -21.5t27 -8.5h63q10 0 26 7.5t32.5 19.5t31.5 26.5t23 29.5q8 12 10 21l4 10q1 4 1.5 8t1.5 8q0 7 0.5 13t0.5 14q0 25 -13.5 44.5t-49.5 19.5h-77q-14 0 -30 -7.5t-31.5 -20t-28.5 -27.5t-21 -30v1q-4 -11 -7.5 -20t-4.5 -15zM633 682
l9 -24v-12q1 -4 1.5 -8t0.5 -10q0 -11 -3 -21q-5 -11 -11.5 -20t-15.5 -14l-7 -4l4 2q-6 -6 -21 -6q-17 0 -36 13.5t-27 30.5l-5 21q-2 4 -2.5 9t-0.5 10q0 7 2 13q11 32 41 48q24 10 34 10q19 0 27 -12.5t11 -27.5z" />
    <glyph glyph-name="FL00F3h" unicode="&#xf3;" 
d="M803 288q-8 -49 -37.5 -100t-74.5 -93t-101 -68.5t-116 -26.5h-96q-56 0 -104 9t-83 31.5t-54.5 60.5t-19.5 97q0 12 1 25t3 27q7 48 36.5 99t73 93t96 69t105.5 27h126q55 0 101 -11t79 -34.5t51 -61t18 -89.5q0 -14 -1 -27t-3 -27zM331 260v-3q-1 -3 -1 -8
q0 -15 5.5 -31.5t15 -29.5t22.5 -21.5t27 -8.5h63q10 0 26 7.5t32.5 19.5t31.5 26.5t23 29.5q8 12 10 21l4 10q1 4 1.5 8t1.5 8q0 7 0.5 13t0.5 14q0 25 -13.5 44.5t-49.5 19.5h-77q-14 0 -30 -7.5t-31.5 -20t-28.5 -27.5t-21 -30v1q-4 -11 -7.5 -20t-4.5 -15zM549 666
l23 21h-1q12 13 25 23t29 10q8 0 16.5 -3.5t16.5 -8.5q13 -14 13 -34q0 -10 -6 -22l1 1q-3 -10 -8.5 -16t-10.5 -11l-4 -3l-23 -22q-7 -6 -17.5 -12.5t-22 -12t-22 -8.5t-18.5 -3q-13 0 -17 4l-6 8l1 -2q-9 9 -9 21q0 10 5 23v-1q5 12 11.5 21t14.5 18v-1q2 2 4.5 5t4.5 5z
" />
    <glyph glyph-name="FL00F4h" unicode="&#xf4;" 
d="M803 288q-8 -49 -37.5 -100t-74.5 -93t-101 -68.5t-116 -26.5h-96q-56 0 -104 9t-83 31.5t-54.5 60.5t-19.5 97q0 12 1 24.5t3 26.5q7 49 36.5 100t73 93t96 68.5t105.5 26.5h126q55 0 101 -11t79 -34t51 -60.5t18 -89.5q0 -14 -1 -27t-3 -27zM331 260v-3q-1 -3 -1 -8
q0 -15 5.5 -31.5t15 -29.5t22.5 -21.5t27 -8.5h63q10 0 26 7.5t32.5 19t31.5 26.5t23 30q8 12 10 21l4 10q1 4 1.5 8t1.5 8q0 6 0.5 12.5t0.5 14.5q0 24 -13.5 44t-49.5 20h-77q-14 0 -30 -7.5t-31.5 -20t-28.5 -27.5t-21 -30v1q-4 -11 -7.5 -20t-4.5 -15zM602 570l-25 47
l-47 -47h-129l127 126l3 1q8 5 15.5 9.5t14.5 4.5h59q15 0 22.5 -9t12.5 -16l57 -116h-110z" />
    <glyph glyph-name="FL00F5h" unicode="&#xf5;" 
d="M803 288q-8 -49 -37.5 -100t-74.5 -93t-101 -68.5t-116 -26.5h-96q-56 0 -104 9.5t-83 32t-54.5 61t-19.5 96.5q0 34 4 49v1q7 49 36.5 100t73 93t96 68.5t105.5 26.5h126q55 0 101 -11t79 -34t51 -60t18 -89q0 -14 -1 -27.5t-3 -27.5zM331 260l-4 -10l3 3v-5
q0 -15 5.5 -31t15 -29t22.5 -21.5t27 -8.5h63q10 0 26 7.5t32.5 19t31.5 26.5t23 30q9 14 10 21l4 10q2 9 3 14t1 23q0 13 -2.5 25.5t-9.5 22.5t-19.5 16t-31.5 6h-77q-14 0 -30 -7.5t-31.5 -20t-28.5 -27.5t-21 -30v1q-4 -11 -7.5 -20t-4.5 -15zM516 710h87l26 -47l46 47
h108q0 -8 -2 -14t-12 -18t-32 -34t-62 -61q-5 -3 -13 -8.5t-17 -5.5h-87l-26 47l-46 -47h-129l127 126l4 2q8 5 14 9t14 4z" />
    <glyph glyph-name="FL00F6h" unicode="&#xf6;" 
d="M803 288q-8 -49 -37.5 -100t-74.5 -93t-101 -68.5t-116 -26.5h-96q-56 0 -104 9t-83 31.5t-54.5 60.5t-19.5 97q0 12 1 24.5t3 26.5q7 49 36.5 100t73 93t96 68.5t105.5 26.5h126q55 0 101 -11t79 -34t51 -60.5t18 -89.5q0 -14 -1 -27t-3 -27zM331 260v-3q-1 -3 -1 -8
q0 -15 5.5 -31.5t15 -29.5t22.5 -21.5t27 -8.5h63q10 0 26 7.5t32.5 19.5t31.5 26.5t23 29.5q8 12 10 21l4 10q1 4 1.5 8t1.5 8q0 7 0.5 13t0.5 14q0 24 -13.5 44t-49.5 20h-77q-14 0 -30 -7.5t-31.5 -20t-28.5 -27.5t-21 -30v1q-4 -11 -7.5 -20t-4.5 -15zM752 635v1
q-11 -28 -38 -47t-57 -19q-27 0 -43 14.5t-16 37.5q0 5 1 11.5t4 13.5v-1q11 28 38 47t57 19q27 0 43 -14.5t16 -37.5q0 -5 -1 -11.5t-4 -13.5zM430 647v-1q10 28 36.5 47t57.5 19q27 0 43 -15t16 -38q0 -10 -5 -23q-10 -28 -37.5 -47t-58.5 -19q-26 0 -41.5 14.5
t-15.5 37.5q0 5 1 11.5t4 13.5z" />
    <glyph glyph-name="FL00F7h" unicode="&#xf7;" horiz-adv-x="425" 
d="M306 409v-1q10 28 36.5 46.5t55.5 18.5q26 0 42 -14.5t16 -37.5q0 -10 -5 -22q-8 -23 -29.5 -40.5t-46.5 -22.5h185l-164 -154h-86q18 -4 28.5 -17t10.5 -31q0 -13 -5 -25v1q-10 -27 -36 -45.5t-55 -18.5q-27 0 -42.5 14t-15.5 37q0 11 4 22q8 23 29 40.5t47 22.5h-203
l164 154h105q-40 9 -40 49q0 5 1 11.5t4 12.5z" />
    <glyph glyph-name="FL00F8h" unicode="&#xf8;" 
d="M803 284q-8 -48 -37.5 -98.5t-74.5 -91.5t-101 -67.5t-116 -26.5h-96q-56 0 -104 9t-83 31.5t-54.5 60t-19.5 94.5q0 12 1 24.5t3 26.5q7 48 36.5 98.5t73 91.5t96 67.5t105.5 26.5h126q55 0 101 -11t79 -34t51 -59.5t18 -88.5q0 -14 -1 -26.5t-3 -26.5zM590 268
q1 5 1.5 8.5t1.5 7.5v12l-200 -140h7h63q10 0 26 7.5t32.5 19t31.5 26t23 29.5q9 14 10 20zM331 256v-1q-1 -3 -1 -12v-4l193 135h-69q-14 0 -30 -7.5t-31.5 -19.5t-28.5 -27t-21 -30v1q-4 -11 -7.5 -20t-4.5 -15z" />
    <glyph glyph-name="FL00F9h" unicode="&#xf9;" horiz-adv-x="675" 
d="M147 314l80 224h212q-24 -69 -40.5 -117.5t-27.5 -80.5t-16.5 -50t-8.5 -28t-3.5 -13.5t-0.5 -5.5q-2 -10 -2 -15v-12q0 -27 9.5 -42.5t32.5 -15.5h47q21 0 38.5 9t31.5 22t24.5 28.5t16.5 27.5l-1 -2l107 295h213l-94 -257q-25 -68 -51 -120.5t-59 -88t-76.5 -54
t-104.5 -18.5h-112q-125 0 -186.5 35t-61.5 119q0 11 1.5 23.5t3.5 26.5q6 33 19 74zM617 681l9 -24q0 -7 1 -10q0 -4 0.5 -9t0.5 -9q0 -14 -4 -22q-4 -11 -10 -21t-18 -15l2 2l-10 -7q-1 0 -1.5 -0.5t-2.5 -0.5q-3 -1 -7 -1h-3q-18 0 -36 11t-23 24l-9 30v-2q-4 7 -4 21
q0 7 2 13q12 31 42 48q27 10 35 10q18 0 25 -12.5t11 -26.5v1z" />
    <glyph glyph-name="FL00FAh" unicode="&#xfa;" horiz-adv-x="675" 
d="M147 314l80 224h212q-24 -69 -40.5 -117.5t-27.5 -80.5t-16.5 -50t-8.5 -28t-3.5 -13.5t-0.5 -5.5q-2 -10 -2 -15v-12q0 -27 9.5 -42.5t32.5 -15.5h47q21 0 38.5 9t31.5 22t24.5 28.5t16.5 27.5l-1 -2l107 295h213l-94 -257q-25 -68 -51 -120.5t-59 -88t-76.5 -54
t-104.5 -18.5h-112q-125 0 -186.5 35t-61.5 119q0 11 1.5 23.5t3.5 26.5q6 33 19 74zM537 665l24 21h-1q12 13 25 23t29 10t33 -12q13 -13 13 -33q0 -11 -5 -23v1q-4 -10 -9 -16t-10 -11l-3 -3l-23 -22q-15 -13 -40 -24.5t-41 -11.5q-13 0 -20 7l1 -1l-4 4l2 -1
q-11 8 -11 22q0 8 5 21q5 14 12 23t15 17q2 2 4 4.5t4 4.5z" />
    <glyph glyph-name="FL00FBh" unicode="&#xfb;" horiz-adv-x="675" 
d="M147 314l80 223h212q-24 -69 -40.5 -117l-27.5 -80t-16.5 -50.5t-8.5 -28t-3.5 -13t-0.5 -5.5q-2 -10 -2 -15v-12q0 -27 9.5 -42.5t32.5 -15.5h47q21 0 38.5 9t31.5 22t24.5 28.5t16.5 27.5l-1 -2l107 294h213l-94 -256q-25 -68 -51 -120.5t-59 -88t-76.5 -54
t-104.5 -18.5h-112q-125 0 -186.5 35t-61.5 119q0 11 1.5 23.5t3.5 26.5q3 17 7.5 35.5t11.5 38.5zM589 570l-26 47l-47 -47h-129l128 126l3 2q8 5 14.5 9t13.5 4h60q14 0 22.5 -9t12.5 -16l58 -116h-110z" />
    <glyph glyph-name="FL00FCh" unicode="&#xfc;" horiz-adv-x="675" 
d="M147 314l80 223h212q-24 -69 -40.5 -117l-27.5 -80t-16.5 -50.5t-8.5 -28t-3.5 -13t-0.5 -5.5q-2 -10 -2 -15v-12q0 -27 9.5 -42.5t32.5 -15.5h47q21 0 38.5 9t31.5 22t24.5 28.5t16.5 27.5l-1 -2l107 294h213l-94 -256q-25 -68 -51 -120.5t-59 -88t-76.5 -54
t-104.5 -18.5h-112q-125 0 -186.5 35t-61.5 119q0 11 1.5 23.5t3.5 26.5q3 17 7.5 35.5t11.5 38.5zM417 646v-1q10 28 37 47t58 19q26 0 42 -14.5t16 -37.5q0 -5 -1 -11.5t-4 -13.5v1q-10 -28 -37 -47t-58 -19q-26 0 -42 14.5t-16 37.5q0 5 1 11.5t4 13.5zM739 634v1
q-10 -28 -36.5 -47t-57.5 -19q-27 0 -43 15t-16 38q0 10 4 22q11 28 38.5 47.5t58.5 19.5q26 0 41.5 -14.5t15.5 -37.5q0 -5 -1 -11.5t-4 -13.5z" />
    <glyph glyph-name="FL00FDh" unicode="&#xfd;" horiz-adv-x="646" 
d="M438 0h-212l92 255l-114 283h235l44 -111l125 111h246l-326 -290zM523 665l24 21h-1q12 13 25 23t29 10q8 0 16.5 -3.5t16.5 -8.5q12 -14 12 -33q0 -11 -5 -23v1q-3 -10 -8.5 -16t-10.5 -11l-2 -3l-23 -22q-7 -6 -17.5 -12.5t-22 -12t-22 -8.5t-18.5 -3q-16 0 -20 7v-1
l-3 4l2 -1q-11 8 -11 22q0 8 5 21q5 14 12 23t15 17q6 8 7 9z" />
    <glyph glyph-name="FL00FEh" unicode="&#xfe;" horiz-adv-x="673" 
d="M31 0l196 530h214l-35 -95h237q28 0 48.5 -16t34 -39.5t20.5 -50t8 -47.5q0 -43 -21 -78.5t-53 -61.5t-70.5 -40.5t-72.5 -14.5h-260l-32 -87h-214zM535 278h-187l-31 -83l56 48h158l3 8l6 16v1v-1v1z" />
    <glyph glyph-name="FL00FFh" unicode="&#xff;" horiz-adv-x="646" 
d="M438 0h-212l92 255l-114 282h235l44 -110l125 110h246l-326 -289zM406 646v-1q10 28 37 47t57 19q27 0 42.5 -14.5t15.5 -37.5q0 -5 -0.5 -11.5t-3.5 -13.5v1q-11 -28 -38 -47t-57 -19q-26 0 -42 14.5t-16 37.5q0 5 1 11.5t4 13.5zM726 634v1q-10 -28 -36.5 -47
t-56.5 -19q-27 0 -43 15t-16 38q0 10 4 22q11 28 38.5 47.5t57.5 19.5q26 0 41.5 -14.5t15.5 -37.5q0 -5 -1 -11.5t-4 -13.5z" />
    <glyph glyph-name="FL0152h" unicode="&#x152;" horiz-adv-x="1047" 
d="M134 244q0 48 21.5 99t58.5 92.5t85.5 68t102.5 26.5h834q-8 -16 -27 -42t-41 -51.5t-42 -44t-30 -18.5h-290l-30 -83l52 50h267l-170 -156h-190l-11 -29h376q-2 -4 -7.5 -14t-12 -20.5t-12 -19.5t-6.5 -10l1 2q-9 -12 -26 -28t-33.5 -31t-29.5 -25t-14 -10h-490
q-62 0 -122.5 11t-108 38.5t-76.5 75t-29 119.5zM344 257q0 -16 8 -33.5t21 -32.5t28.5 -25t29.5 -10h76l82 218h-158q-13 0 -25.5 -7.5t-23 -19.5t-18.5 -26.5t-13 -29.5v1q-3 -11 -5 -19.5t-2 -15.5z" />
    <glyph glyph-name="FL0153h" unicode="&#x153;" horiz-adv-x="1047" 
d="M134 244v2q0 48 21.5 98.5t58.5 92t85.5 67.5t102.5 26h834q-8 -16 -27 -42t-41 -51.5t-42 -44t-30 -18.5h-290l-30 -83l52 50h267l-170 -156h-190l-11 -29h376q-2 -4 -7.5 -14t-12 -20.5t-12 -19.5t-6.5 -10l1 2q-9 -12 -26 -28t-33.5 -31t-29.5 -25t-14 -10h-490
q-62 0 -122.5 11t-108 38.5t-76.5 75t-29 119.5zM344 257q0 -16 8 -33.5t21 -32.5t28.5 -25t29.5 -10h76l82 218h-158q-13 0 -25.5 -7.5t-23 -19.5t-18.5 -26.5t-13 -29.5v1q-3 -11 -5 -19.5t-2 -15.5z" />
    <glyph glyph-name="FL0160h" unicode="&#x160;" horiz-adv-x="656" 
d="M494 181v6q0 4 1 4h-192q-32 0 -58 15t-44.5 39t-28.5 52.5t-10 55.5q0 25 14.5 56.5t38 60t53 48t59.5 19.5h519q-60 -87 -136 -159h-323q-5 0 -8.5 -9t-3.5 -14v-5q0 1 0.5 3.5t1.5 1.5l4 -4q2 -2 5 -4.5l3 -2.5h184q31 0 55.5 -16.5t41 -41.5t25 -54t8.5 -53v-3
q0 -27 -12.5 -58t-33.5 -57t-48 -43.5t-56 -17.5h-514q6 12 24.5 38t39 52.5t38 46.5t21.5 20h328q4 0 4 13v11zM419 708h111l25 -47l47 47h130l-131 -127q-4 -3 -12.5 -8.5t-16.5 -5.5h-60q-12 0 -19 6.5t-13 14.5l1 -1q-2 2 -2.5 3t-2.5 3z" />
    <glyph glyph-name="FL0161h" unicode="&#x161;" horiz-adv-x="656" 
d="M494 181v6q0 4 1 4h-192q-32 0 -58 15t-44.5 39t-28.5 52.5t-10 55.5q0 25 14.5 56.5t38 60t53 48t59.5 19.5h519q-60 -87 -136 -159h-323q-5 0 -8.5 -9t-3.5 -14v-5q0 1 0.5 3.5t1.5 1.5l4 -4q2 -2 5 -4.5l3 -2.5h184q31 0 55.5 -16.5t41 -41.5t25 -54t8.5 -53v-3
q0 -27 -12.5 -58t-33.5 -57t-48 -43.5t-56 -17.5h-514q6 12 24.5 38t39 52.5t38 46.5t21.5 20h328q4 0 4 13v11zM419 708h111l25 -47l47 47h130l-131 -127q-4 -3 -12.5 -8.5t-16.5 -5.5h-60q-12 0 -19 6.5t-13 14.5l1 -1q-2 2 -2.5 3t-2.5 3z" />
    <glyph glyph-name="FL0178h" unicode="&#x178;" horiz-adv-x="646" 
d="M438 0h-212l92 255l-114 282h235l44 -110l125 110h246l-326 -289zM406 646v-1q10 28 37 47t57 19q27 0 42.5 -14.5t15.5 -37.5q0 -5 -0.5 -11.5t-3.5 -13.5v1q-11 -28 -38 -47t-57 -19q-26 0 -42 14.5t-16 37.5q0 5 1 11.5t4 13.5zM726 634v1q-10 -28 -36.5 -47
t-56.5 -19q-27 0 -43 15t-16 38q0 10 4 22q11 28 38.5 47.5t57.5 19.5q26 0 41.5 -14.5t15.5 -37.5q0 -5 -1 -11.5t-4 -13.5z" />
    <glyph glyph-name="FL017Dh" unicode="&#x17d;" horiz-adv-x="613" 
d="M527 0h-516l397 379h-237v16q1 4 15 23.5t33.5 42.5t40 45t34.5 31h522l-397 -379h246q-8 -16 -27 -42.5t-40.5 -52t-41.5 -44.5t-29 -19zM419 708h111l25 -47l47 47h130l-131 -127q-5 -3 -13.5 -8.5t-16.5 -5.5h-60q-11 0 -18.5 6.5t-12.5 14.5l1 -1q-2 2 -2.5 3t-2.5 3
z" />
    <glyph glyph-name="FL017Eh" unicode="&#x17e;" horiz-adv-x="613" 
d="M527 0h-516l397 379h-237v16q1 4 15 23.5t33.5 42.5t40 45t34.5 31h522l-397 -379h246q-8 -16 -27 -42.5t-40.5 -52t-41.5 -44.5t-29 -19zM419 708h111l25 -47l47 47h130l-131 -127q-5 -3 -13.5 -8.5t-16.5 -5.5h-60q-11 0 -18.5 6.5t-12.5 14.5l1 -1q-2 2 -2.5 3t-2.5 3
z" />
    <glyph glyph-name="FL00B6h" unicode="&#x192;" horiz-adv-x="865" 
d="M959 282l-6 -6l1 2l-22 -30h-37l10 -30q0 -1 0.5 -1.5t0.5 -1.5t-0.5 -3.5t-0.5 -4.5l-3 -7v1q-11 -24 -41 -35l-38 9l-26 -54q-16 -25 -39 -25q-13 0 -23 5t-22 13l-69 -57l-41 -9l-18 32l-114 -54l-33 13l9 25l-120 -20l-27 23l12 20l-128 12l16 42l4 3l-48 12
q-22 1 -22 23q0 14 4 23l31 20l-36 24l7 46l54 10l-11 32l24 49l59 -7q28 82 64 82h6l44 -21q29 27 50.5 44t44.5 26l32 -35l116 54l28 -35l-4 -5l90 18l58 -8l-18 -32h109l14 -26q-4 -8 -8 -15.5t-9 -14.5l80 -26l-5 -16l-2 -4q-9 -21 -29 -33q33 -23 33 -38
q0 -1 -0.5 -4.5t-0.5 -4.5zM644 348l-19 -47q6 9 13.5 17t15.5 16q15 9 28 9q18 0 24 -15l12 33l28 -68l23 53l34 -15l6 13l29 -8l-13 9l63 17l-111 30l40 26h-118l22 35l-134 -21l9 37l-109 -49l-25 32l-72 -61q-7 -4 -22 -4q-19 0 -38 15l-35 -73l-62 6l-2 -9l22 -64
l-50 -5l43 -33l51 107l52 11l-13 -29q33 21 91 30l-10 -20q5 4 10.5 7t10.5 6h15q22 0 33 -14l12 35l29 -68l21 51l37 -13l4 8zM673 200l-7 3h-6l1 3l-20 10q-1 18 1 19q-3 -1 -24 -25h-45l-47 -14l3 6q-20 3 -32 24l-8 -22l-49 -9l9 25q-17 -18 -34 -18q-2 0 -2.5 -0.5
t-1.5 -0.5h3q-3 -1 -14 -1q-28 0 -37 14l-4 -15q-3 -1 -10 -2.5t-9 -2.5q-5 -1 -8.5 -1.5t-4.5 -0.5q-26 0 -32 21l-1 -3l-63 -20l5 12l-28 -12l107 -29l-43 -25l124 -6l-24 -32l116 25l10 -35l104 46l30 -32l76 68l54 -23l16 39l-13 -12l-16 32q-18 0 -33 26l-9 -26l-33 -2
zM859 214q-1 8 -6.5 26t-17.5 44l-28 -54l-33 7l-2 -4l4 3l20 -10v1zM855 323l-19 -36l63 4zM363 242q5 13 10.5 24t11.5 21q-2 1 -2.5 1.5l-0.5 0.5q-5 0 -20 -12q-18 -18 -25 -36q0 -1 -1 -1q8 0 11 1h5q8 0 11 1zM441 278l-1 -1q0 4 1 5v2q-7 -4 -23 -25l-3 -6v1
q-1 -1 -1 -5l5 2.5t8 3.5q11 14 14 23zM443 285q-1 0 -1 -1h-1h1q0 1 1 1z" />
    <glyph glyph-name="FL02C6h" unicode="&#x2c6;" horiz-adv-x="290" 
d="M331 329l-24 39l-44 -39h-121l122 105l12.5 7.5t15.5 4.5h56q10 0 16.5 -5.5t11.5 -12.5v1l5 -5l53 -95h-103z" />
    <glyph glyph-name="FL02DCh" unicode="&#x2dc;" horiz-adv-x="381" 
d="M302 446h84l25 -39l45 39h91v-24h6q-6 -5 -27 -23t-70 -58q-1 -1 -2 -1l1 1q-8 -5 -15.5 -8.5t-13.5 -3.5h-84l-24 39l-46 -39h-125l126 105q5 3 13 7.5t16 4.5z" />
    <glyph glyph-name="FL2013h" unicode="&#x2013;" horiz-adv-x="354" 
d="M326 160l162 135h-255l-162 -135h255z" />
    <glyph glyph-name="FL2014h" unicode="&#x2014;" horiz-adv-x="425" 
d="M396 160l164 135h-324l-164 -135h324z" />
    <glyph glyph-name="FL2018h" unicode="&#x2018;" horiz-adv-x="170" 
d="M294 392l-12 -35q-9 -26 -33 -45t-50 -19q-23 0 -35.5 13.5t-12.5 34.5q0 16 4 25l11 32q4 12 16 27t26 28t27 22t20 9h6q21 0 27.5 -18.5t6.5 -41.5v-18q0 -11 -1 -14z" />
    <glyph glyph-name="FL2019h" unicode="&#x2019;" horiz-adv-x="170" 
d="M163 385l12 36q10 26 33 45t49 19q24 0 36.5 -13.5t12.5 -35.5q0 -5 -0.5 -11.5t-3.5 -12.5l-10 -32q-5 -12 -17 -27t-25.5 -28t-26.5 -22t-20 -9h-7q-20 0 -27.5 18t-7.5 41q0 11 0.5 19t1.5 13z" />
    <glyph glyph-name="FL201Ah" unicode="&#x201a;" horiz-adv-x="197" 
d="M42 39l14 40q12 29 39.5 50t59.5 21q28 0 44 -15.5t16 -38.5q0 -9 -5 -26l-13 -37q-5 -14 -18.5 -30.5t-29.5 -31t-32 -24.5t-25 -10h-8q-26 0 -34.5 23.5t-8.5 50.5q0 9 0.5 16t0.5 12z" />
    <glyph glyph-name="FL201Eh" unicode="&#x201c;" horiz-adv-x="316" 
d="M452 392l-12 -35q-11 -26 -37 -45t-54 -19q-25 0 -38 11.5t-15 30.5q-14 -18 -35 -30t-43 -12q-26 0 -39.5 13.5t-13.5 34.5q0 6 1 12.5t4 12.5l11 32q5 12 17.5 27t27.5 28t29.5 22t22.5 9h8q23 0 30 -18.5t7 -41.5v-9q8 12 20.5 24.5t25 22t24 16t17.5 6.5h7
q23 0 30 -18.5t7 -41.5q0 -9 -0.5 -18t-1.5 -14z" />
    <glyph glyph-name="FL201Dh" unicode="&#x201d;" horiz-adv-x="316" 
d="M177 385l13 36q11 26 36.5 45t53.5 19q49 0 54 -43q14 19 34.5 31t43.5 12q26 0 39.5 -13.5t13.5 -35.5q0 -15 -4 -24l-12 -32q-5 -12 -18 -27t-28 -28t-29.5 -22t-21.5 -9h-7q-23 0 -30.5 18t-7.5 41v8q-9 -12 -21 -23.5t-24.5 -21.5t-23.5 -16t-18 -6h-7
q-23 0 -30.5 18t-7.5 41q0 11 0.5 19t1.5 13z" />
    <glyph glyph-name="FL201Fh" unicode="&#x201e;" horiz-adv-x="371" 
d="M45 39l15 40q12 29 42 50t64 21q29 0 46 -14t19 -36q16 22 41.5 36t53.5 14q29 0 46.5 -15.5t17.5 -38.5q0 -9 -5 -26l-14 -37q-5 -14 -19.5 -30.5t-32.5 -31t-35 -24.5t-26 -10h-9q-14 0 -23 6.5t-14.5 17t-7.5 23.5t-2 27v5q-9 -13 -23.5 -27t-29.5 -25.5t-29 -19
t-22 -7.5h-8q-14 0 -23.5 6.5t-14.5 17t-7 23.5t-2 27q0 9 0.5 16t1.5 12z" />
    <glyph glyph-name="FL2020h" unicode="&#x2020;" horiz-adv-x="425" 
d="M118 0l98 274h-111l164 156h2l38 100h209l-37 -100h112l-164 -156h-4l-98 -274h-209z" />
    <glyph glyph-name="FL2021h" unicode="&#x2021;" horiz-adv-x="428" 
d="M119 0l35 97h-113l166 156h2l8 21h-112l166 156h3l37 100h211l-37 -100h113l-166 -156h-3l-8 -21h112l-165 -156h-4l-35 -97h-210z" />
    <glyph glyph-name="FL2023h" unicode="&#x2022;" horiz-adv-x="344" 
d="M123 247q1 9 5 18.5t9 20.5q9 17 24.5 34t33.5 30.5t37 22t35 8.5h73q24 0 41 -7.5t27 -19.5t14.5 -27.5t4.5 -32.5q0 -10 -0.5 -18.5t-1.5 -16.5v-1h-27q0 -13 1.5 -27t4.5 -22q-11 -16 -28 -32t-35.5 -28.5t-35.5 -20t-29 -7.5h-60q-19 0 -36 10.5t-30 26.5t-20.5 35.5
t-7.5 38.5v9q0 5 1 6zM423 247q-3 -19 -5.5 -29t-5 -14t-4.5 -2t-4 7q1 2 2 3t2 3l-1 -1q5 8 8.5 13.5t4.5 10.5zM420 238l-1 -2z" />
    <glyph glyph-name="FL2026h" unicode="&#x2026;" horiz-adv-x="550" 
d="M61 75v-1q-6 -12 -6 -23q0 -23 18.5 -37t48.5 -14q29 0 56 13.5t43 33.5q2 -20 20 -33.5t47 -13.5q30 0 58 14t43 37q0 -23 18 -37t49 -14q35 0 66.5 19t42.5 47q5 15 5 24q0 23 -17.5 37t-48.5 14q-30 0 -58 -15t-44 -38v2q0 23 -17.5 37t-48.5 14q-29 0 -55.5 -14
t-43.5 -35q-1 21 -19 35t-47 14q-35 0 -66 -19.5t-44 -46.5z" />
    <glyph glyph-name="FL2030h" unicode="&#x2030;" horiz-adv-x="1127" 
d="M943 134l6 16l-1 -3q7 11 17 20t19 9h29q10 0 13 -5t3 -12q0 -10 1 -9l-3 -8v1q-1 -1 -1 -2l-2 -2q-8 -12 -19.5 -21.5t-17.5 -9.5h-25q-8 0 -13.5 8.5t-5.5 16.5v1zM607 134l6 16l-1 -3q7 11 17.5 20t18.5 9h29q10 0 13 -5t3 -12q0 -10 1 -9l-3 -8v1q-1 -1 -1 -2l-2 -2
q-8 -12 -19.5 -21.5t-17.5 -9.5h-25q-8 0 -13.5 8.5t-5.5 16.5v1zM312 385l5 15l-1 -3q7 11 17.5 20.5t18.5 9.5h30q9 0 12.5 -5t3.5 -12v-9l-3 -6l1 1q-1 -1 -1 -3q-1 -2 -2 -3t-2 -3q-6 -11 -18 -19.5t-18 -8.5h-25q-8 0 -13 8.5t-5 16.5v1zM536 397q3 15 3 31
q0 56 -37.5 79t-95.5 23h-64q-25 0 -49.5 -10.5t-46 -28t-38 -39.5t-25.5 -45q-2 -7 -4 -13t-3 -13q-1 -6 -1.5 -12t-0.5 -13q0 -31 10.5 -51t29.5 -32t44.5 -17t55.5 -5h48h8q6 0 9 1l-314 -252h214l202 161q0 -2 -1 -2.5t-1 -2.5q-2 -6 -4 -12.5t-3 -12.5
q-1 -7 -1.5 -12.5t-0.5 -13.5q0 -31 10.5 -51t29.5 -32t44 -17t55 -5h49q22 0 43.5 7t41 19t36 27.5t28.5 33.5q6 -51 43.5 -69t94.5 -18h49q28 0 54.5 10.5t49 28t39 39.5t24.5 45l6 17v2q1 0 1 5q3 13 3 29q0 56 -38 79.5t-97 23.5h-64q-19 0 -38.5 -7t-37.5 -19
t-34 -27.5t-28 -32.5q-7 48 -43 67t-90 19h-64q-7 0 -9 -1l313 252h-216l-196 -158v1q1 0 1 1l4 13q0 3 1 4v-3q1 2 1 9z" />
    <glyph glyph-name="FL2039h" unicode="&#x2039;" horiz-adv-x="169" 
d="M261 299l-58 -41l34 -28l-38 -109l-83 73q-3 4 -7 10.5t-4 13.5q0 2 0.5 5t2.5 7l19 52q4 10 15 20.5t19 16.5l140 96z" />
    <glyph glyph-name="FL203Ah" unicode="&#x203a;" horiz-adv-x="169" 
d="M65 108l40 116l58 40l-34 29l32 90v27l89 -83q3 -4 6.5 -9.5t3.5 -12.5q0 -3 -2 -9l-19 -55q-4 -11 -15.5 -21.5t-19.5 -16.5z" />
    <glyph glyph-name="FL20ACh" unicode="&#x20ac;" horiz-adv-x="734" 
d="M671 259l-158 -99q8 -4 20 -4h259q-29 -42 -62.5 -83t-75.5 -73h-82q-51 0 -101 7t-93 25t-76 48t-49 75h-203l166 104h-128l166 104h14q16 33 41 63.5t55.5 53.5t66 36.5t73.5 13.5h428q-37 -48 -71.5 -86.5t-71.5 -69.5h-256q-15 0 -29 -11h206l-166 -104h127z" />
    </font>
</defs>
</svg>
