<?xml version="1.0" standalone="no"?>
<!DOCTYPE svg PUBLIC "-//W3C//DTD SVG 1.1//EN" "http://www.w3.org/Graphics/SVG/1.1/DTD/svg11.dtd" >
<svg xmlns="http://www.w3.org/2000/svg" xmlns:xlink="http://www.w3.org/1999/xlink" version="1.1">
<metadata>
Created by FontForge 20170731 at Fri Jun 21 12:11:56 2013
 By Aleksey,,,
Copyright (c) 2013 by Adrian Candela. All rights reserved.
</metadata>
<defs>
<font id="Bowhouse-Regular" horiz-adv-x="211" >
  <font-face 
    font-family="Bowhouse Regular"
    font-weight="400"
    font-stretch="normal"
    units-per-em="1000"
    panose-1="0 0 0 0 0 0 0 0 0 0"
    ascent="679"
    descent="-321"
    x-height="331"
    cap-height="635"
    bbox="0 -300 636.5 877"
    underline-thickness="50"
    underline-position="-199"
    unicode-range="U+0002-20AC"
  />
<missing-glyph 
 />
    <glyph glyph-name=".notdef" 
 />
    <glyph glyph-name=".null" horiz-adv-x="0" 
 />
    <glyph glyph-name="nonmarkingreturn" horiz-adv-x="333" 
 />
    <glyph glyph-name="NULL" 
 />
    <glyph glyph-name="NULL" 
 />
    <glyph glyph-name="uni0002" 
 />
    <glyph glyph-name="uni0009" unicode="&#x9;" 
 />
    <glyph glyph-name="uni000A" unicode="&#xa;" 
 />
    <glyph glyph-name="CR" unicode="&#xd;" 
 />
    <glyph glyph-name="space" unicode=" " 
 />
    <glyph glyph-name="exclam" unicode="!" horiz-adv-x="112" 
d="M16 0q-6 0 -10.5 4.5t-4.5 10.5v51q0 7 4.5 11.5t10.5 4.5q16 0 16 -16v-51q0 -6 -4.5 -10.5t-11.5 -4.5zM16 137q-6 0 -10.5 4.5t-4.5 11.5v411q0 6 4.5 10.5t10.5 4.5q7 0 11.5 -4.5t4.5 -10.5v-411q0 -16 -16 -16z" />
    <glyph glyph-name="quotedbl" unicode="&#x22;" 
 />
    <glyph glyph-name="numbersign" unicode="#" 
 />
    <glyph glyph-name="dollar" unicode="$" horiz-adv-x="405" 
d="M184 301v-268q50 6 84 44t34 90t-34 90t-84 44zM152 335v267q-51 -6 -85 -44.5t-34 -89.5t34 -89t85 -44zM168 0q-69 0 -118 49t-49 118q0 16 16 16t16 -16q0 -51 34 -89.5t85 -44.5v269q-64 6 -107.5 54t-43.5 112q0 69 49 118t118 49t118 -49t49 -118q0 -7 -5 -11.5
t-11 -4.5q-7 0 -12 4.5t-5 11.5q0 52 -34 90t-84 44v-269q63 -6 107 -54t44 -112q0 -69 -49 -118t-118 -49z" />
    <glyph glyph-name="percent" unicode="%" 
 />
    <glyph glyph-name="ampersand" unicode="&#x26;" 
 />
    <glyph glyph-name="quotesingle" unicode="'" 
 />
    <glyph glyph-name="parenleft" unicode="(" 
 />
    <glyph glyph-name="parenright" unicode=")" 
 />
    <glyph glyph-name="asterisk" unicode="*" 
 />
    <glyph glyph-name="plus" unicode="+" 
 />
    <glyph glyph-name="comma" unicode="," horiz-adv-x="132" 
d="M26 -46q-6 -2 -9 -2q-9 0 -14 8q-6 14 5 22q1 0 3.5 2.5t5 9t2.5 15.5v56q0 16 16 16t16 -16v-56q0 -30 -25 -55z" />
    <glyph glyph-name="hyphen" unicode="-" 
 />
    <glyph glyph-name="period" unicode="." horiz-adv-x="121" 
d="M17 0q-16 0 -16 16v56q0 16 16 16t16 -16v-56q0 -16 -16 -16z" />
    <glyph glyph-name="slash" unicode="/" 
 />
    <glyph glyph-name="zero" unicode="0" horiz-adv-x="460" 
d="M365 167v263l-270 -270q3 -53 42 -90.5t93 -37.5q56 0 95.5 39.5t39.5 95.5zM230 603q-56 0 -95.5 -39.5t-39.5 -95.5v-263l269 270q-2 53 -41 90.5t-93 37.5zM230 0q-69 0 -118 49t-49 118v301q0 69 49 118t118 49t118 -49t49 -118v-301q0 -69 -49 -118t-118 -49z" />
    <glyph glyph-name="one" unicode="1" horiz-adv-x="460" 
d="M381 2q-16 0 -16 16v562l-275 -273q-12 -11 -23 0t0 22l303 301q8 8 17 3q10 -3 10 -15v-600q0 -16 -16 -16z" />
    <glyph glyph-name="two" unicode="2" horiz-adv-x="460" 
d="M381 1h-302q-9 0 -14 9q-5 8 1 16l298 448q-1 54 -40.5 92t-93.5 38q-56 0 -95.5 -39.5t-39.5 -95.5q0 -6 -4.5 -11t-11.5 -5t-11.5 5t-4.5 11q0 69 49 118t118 49t118 -49t49 -118q0 -5 -3 -8l-285 -428h272q6 0 11 -4.5t5 -11.5t-5 -11.5t-11 -4.5z" />
    <glyph glyph-name="three" unicode="3" horiz-adv-x="460" 
d="M230 0q-69 0 -118 49t-49 118q0 16 16 16t16 -16q0 -55 39.5 -95t95.5 -40t95.5 40t39.5 95t-39.5 95t-95.5 40q-16 0 -16 16q0 6 4.5 11t11.5 5q56 0 95.5 39.5t39.5 94.5q0 56 -39.5 95.5t-95.5 39.5t-95.5 -39.5t-39.5 -95.5q0 -16 -16 -16t-16 16q0 69 49 118t118 49
t118 -49t49 -118q0 -49 -26.5 -89.5t-69.5 -60.5q43 -21 69.5 -61.5t26.5 -89.5q0 -69 -49 -118t-118 -49z" />
    <glyph glyph-name="four" unicode="4" horiz-adv-x="460" 
d="M365 183v383l-256 -383h256zM381 0q-16 0 -16 16v135h-286q-9 0 -14 8q-5 9 1 17l301 452q6 9 18 6t12 -15v-603q0 -7 -5 -11.5t-11 -4.5z" />
    <glyph glyph-name="five" unicode="5" horiz-adv-x="460" 
d="M230 0q-69 0 -118 49t-49 118q0 16 16 16t16 -16q0 -55 39.5 -95t95.5 -40t95.5 40t39.5 95v151q0 55 -39.5 94.5t-95.5 39.5t-95.5 -39.5t-39.5 -94.5q0 -16 -16 -16t-16 16v323q0 16 16 16h302q6 0 11 -4.5t5 -11.5t-5 -11.5t-11 -4.5h-286v-209q50 68 135 68
q69 0 118 -48.5t49 -117.5v-151q0 -69 -49 -118t-118 -49z" />
    <glyph glyph-name="six" unicode="6" horiz-adv-x="460" 
d="M230 302q-56 0 -95.5 -40t-39.5 -95t39.5 -95t95.5 -40t95.5 40t39.5 95t-39.5 95t-95.5 40zM230 0q-69 0 -118 49t-49 118v301q0 69 49 118t118 49t118 -49t49 -118q0 -7 -5 -11.5t-11 -4.5q-16 0 -16 16q0 56 -39.5 95.5t-95.5 39.5t-95.5 -39.5t-39.5 -95.5v-203
q49 69 135 69q69 0 118 -49t49 -118t-49 -118t-118 -49z" />
    <glyph glyph-name="seven" unicode="7" horiz-adv-x="460" 
d="M395 613l-302 -603q-3 -9 -14 -9q-5 0 -7 1q-14 7 -7 22l290 580h-276q-16 0 -16 16t16 16h302q8 0 13 -8q5 -6 1 -15z" />
    <glyph glyph-name="eight" unicode="8" horiz-adv-x="460" 
d="M230 302q-56 0 -95.5 -40t-39.5 -95t39.5 -95t95.5 -40t95.5 40t39.5 95t-39.5 95t-95.5 40zM230 603q-56 0 -95.5 -39.5t-39.5 -95.5q0 -55 39.5 -94.5t95.5 -39.5t95.5 39.5t39.5 94.5q0 56 -39.5 95.5t-95.5 39.5zM230 0q-69 0 -118 49t-49 118q0 49 26.5 89.5
t69.5 61.5q-43 20 -69.5 60.5t-26.5 89.5q0 69 49 118t118 49t118 -49t49 -118q0 -49 -26.5 -89.5t-69.5 -60.5q43 -21 69.5 -61.5t26.5 -89.5q0 -69 -49 -118t-118 -49z" />
    <glyph glyph-name="nine" unicode="9" horiz-adv-x="460" 
d="M230 603q-56 0 -95.5 -39.5t-39.5 -95.5q0 -55 39.5 -94.5t95.5 -39.5t95.5 39.5t39.5 94.5q0 56 -39.5 95.5t-95.5 39.5zM230 0q-69 0 -118 49t-49 118q0 16 16 16t16 -16q0 -55 39.5 -95t95.5 -40t95.5 40t39.5 95v203q-51 -68 -135 -68q-69 0 -118 48.5t-49 117.5
t49 118t118 49t118 -49t49 -118v-301q0 -69 -49 -118t-118 -49z" />
    <glyph glyph-name="colon" unicode=":" horiz-adv-x="122" 
d="M17 0q-7 0 -11.5 5t-4.5 11v56q0 16 16 16t16 -16v-56q0 -6 -4.5 -11t-11.5 -5zM17 151q-16 0 -16 16v56q0 16 16 16t16 -16v-56q0 -16 -16 -16z" />
    <glyph glyph-name="semicolon" unicode=";" horiz-adv-x="141" 
d="M26 -46q-6 -2 -9 -2q-9 0 -14 8q-6 14 5 22q1 0 3.5 2.5t5 9t2.5 15.5v56q0 16 16 16t16 -16v-56q0 -30 -25 -55zM35 144q-16 0 -16 16v56q0 6 4.5 11t11.5 5t11.5 -5t4.5 -11v-56q0 -16 -16 -16z" />
    <glyph glyph-name="less" unicode="&#x3c;" 
 />
    <glyph glyph-name="equal" unicode="=" 
 />
    <glyph glyph-name="greater" unicode="&#x3e;" 
 />
    <glyph glyph-name="question" unicode="?" horiz-adv-x="363" 
d="M16 0q-6 0 -10.5 4.5t-4.5 10.5v51q0 7 4.5 11.5t10.5 4.5q16 0 16 -16v-51q0 -6 -4.5 -10.5t-11.5 -4.5zM154 274q-51 0 -86.5 -35.5t-35.5 -85.5q0 -16 -16 -16q-6 0 -10.5 4.5t-4.5 11.5q0 63 44.5 107.5t108.5 44.5q50 0 85.5 36t35.5 86t-35.5 85.5t-85.5 35.5
q-51 0 -86.5 -35.5t-35.5 -85.5q0 -16 -16 -16q-6 0 -10.5 4.5t-4.5 11.5q0 63 44.5 107.5t108.5 44.5q63 0 107.5 -44.5t44.5 -107.5t-44.5 -108t-107.5 -45z" />
    <glyph glyph-name="at" unicode="@" horiz-adv-x="410" 
d="M230 37v431q0 28 -19 47t-46 19q-28 0 -47 -19t-19 -47v-336q0 -41 29.5 -70.5t70.5 -29.5q14 0 31 5zM332 468v-336q0 -39 -22 -72t-57 -48q-24 -12 -54 -12q-55 0 -93.5 38.5t-38.5 93.5v336q0 40 28.5 69t69.5 29q40 0 68.5 -29t28.5 -69v-414q38 31 38 79v335
q0 56 -39.5 95.5t-95.5 39.5t-95 -39.5t-39 -95.5v-452q0 -7 -5 -11.5t-11 -4.5q-15 0 -15 16v452q0 69 48 118t117 49t118 -49t49 -118z" />
    <glyph glyph-name="A" unicode="A" horiz-adv-x="414" 
d="M302 183v285q0 56 -39 95.5t-95 39.5t-95.5 -39.5t-39.5 -95.5v-285h269zM319 0q-7 0 -12 4.5t-5 11.5v135h-269v-135q0 -16 -16 -16t-16 16v452q0 69 49 118t118 49t118 -49t49 -118v-452q0 -7 -5 -11.5t-11 -4.5z" />
    <glyph glyph-name="B" unicode="B" horiz-adv-x="410" 
d="M168 303q-16 0 -16 16t16 16q56 0 95 39.5t39 94.5q0 56 -39 95.5t-95 39.5h-135v-571h135q55 0 94.5 39.5t39.5 95.5t-39.5 95.5t-94.5 39.5zM168 1h-151q-16 0 -16 16v603q0 16 16 16h151q69 0 118 -49t49 -118q0 -49 -26.5 -89.5t-69.5 -60.5q43 -21 69.5 -61.5
t26.5 -89.5q0 -69 -49 -118t-118 -49z" />
    <glyph glyph-name="C" unicode="C" horiz-adv-x="389" 
d="M168 0q-69 0 -118 49t-49 118v301q0 69 49 118t118 49t118 -49t49 -118q0 -7 -5 -11.5t-11 -4.5q-7 0 -12 4.5t-5 11.5q0 56 -39 95.5t-95 39.5t-95.5 -39.5t-39.5 -95.5v-301q0 -56 39.5 -95.5t95.5 -39.5q55 0 94.5 39.5t39.5 95.5q0 7 5 11.5t12 4.5q6 0 11 -4.5
t5 -11.5q0 -69 -49 -118t-118 -49z" />
    <glyph glyph-name="D" unicode="D" horiz-adv-x="405" 
d="M33 603v-570q113 6 191 88.5t78 196.5t-78 196.5t-191 88.5zM17 0q-16 0 -16 16v603q0 16 16 16q131 0 224.5 -93t93.5 -224t-93.5 -224.5t-224.5 -93.5z" />
    <glyph glyph-name="E" unicode="E" horiz-adv-x="375" 
d="M319 0h-302q-16 0 -16 16v603q0 16 16 16h302q6 0 11 -4.5t5 -11.5t-5 -11.5t-11 -4.5h-286v-420h286q6 0 11 -5t5 -12q0 -6 -5 -11t-11 -5h-286v-118h286q6 0 11 -4.5t5 -11.5t-5 -11.5t-11 -4.5z" />
    <glyph glyph-name="F" unicode="F" horiz-adv-x="367" 
d="M319 151h-286v-135q0 -16 -16 -16t-16 16v603q0 16 16 16h302q6 0 11 -4.5t5 -11.5t-5 -11.5t-11 -4.5h-286v-420h286q6 0 11 -4.5t5 -11.5t-5 -11.5t-11 -4.5z" />
    <glyph glyph-name="G" unicode="G" horiz-adv-x="389" 
d="M168 0q-69 0 -118 49t-49 118v301q0 69 49 118t118 49t118 -49t49 -118q0 -7 -5 -11.5t-11 -4.5q-7 0 -12 4.5t-5 11.5q0 56 -39 95.5t-95 39.5t-95.5 -39.5t-39.5 -95.5v-301q0 -56 39.5 -95.5t95.5 -39.5q51 0 89.5 34t44.5 85h-134q-16 0 -16 16t16 16h151
q6 0 11 -4.5t5 -11.5q0 -69 -49 -118t-118 -49z" />
    <glyph glyph-name="H" unicode="H" horiz-adv-x="418" 
d="M319 0q-7 0 -12 4.5t-5 11.5v135h-269v-135q0 -16 -16 -16t-16 16v603q0 16 16 16t16 -16v-436h269v436q0 7 5 11.5t12 4.5q6 0 11 -4.5t5 -11.5v-603q0 -7 -5 -11.5t-11 -4.5z" />
    <glyph glyph-name="I" unicode="I" horiz-adv-x="117" 
d="M17 0q-16 0 -16 16v603q0 16 16 16t16 -16v-603q0 -16 -16 -16z" />
    <glyph glyph-name="J" unicode="J" horiz-adv-x="417" 
d="M168 0q-69 0 -118 49t-49 118q0 16 16 16t16 -16q0 -56 39.5 -95.5t95.5 -39.5q55 0 94.5 39.5t39.5 95.5v452q0 7 5 11.5t12 4.5q6 0 11 -4.5t5 -11.5v-452q0 -69 -49 -118t-118 -49z" />
    <glyph glyph-name="K" unicode="K" horiz-adv-x="403" 
d="M327 3q-5 -3 -9 -3q-8 0 -13 7l-190 292l-82 -118v-165q0 -16 -16 -16t-16 16v600q0 6 4.5 11t11.5 5t11.5 -5t4.5 -11v-379l272 391q9 13 22 4q13 -8 4 -23l-196 -281l197 -303q9 -14 -5 -22z" />
    <glyph glyph-name="L" unicode="L" horiz-adv-x="371" 
d="M319 0h-302q-7 0 -11.5 4.5t-4.5 10.5v603q0 16 16 16t16 -16v-587h286q6 0 11 -4.5t5 -11.5q0 -6 -5 -10.5t-11 -4.5z" />
    <glyph glyph-name="M" unicode="M" horiz-adv-x="720" 
d="M620 0q-16 0 -16 16v550l-272 -408q-4 -7 -13 -7q-10 0 -14 7l-272 408v-550q0 -16 -16 -16t-16 16v603q0 11 11 15q12 3 18 -6l289 -432l288 432q6 9 18 6q11 -4 11 -15v-603q0 -16 -16 -16z" />
    <glyph glyph-name="N" unicode="N" horiz-adv-x="418" 
d="M322 0h-3q-11 0 -15 9l-271 542v-535q0 -16 -16 -16t-16 16v603q0 13 12 16q13 2 18 -9l271 -542v535q0 7 5 11.5t12 4.5q6 0 11 -4.5t5 -11.5v-603q0 -12 -13 -16z" />
    <glyph glyph-name="O" unicode="O" horiz-adv-x="412" 
d="M302 167v301q0 56 -39 95.5t-95 39.5t-95.5 -39.5t-39.5 -95.5v-301q0 -56 39.5 -95.5t95.5 -39.5q55 0 94.5 39.5t39.5 95.5zM168 0q-69 0 -118 49t-49 118v301q0 69 49 118t118 49t118 -49t49 -118v-301q0 -69 -49 -118t-118 -49z" />
    <glyph glyph-name="P" unicode="P" horiz-adv-x="394" 
d="M91 617h-58v-420h58q87 0 149 62t62 149q0 88 -61 148.5t-150 60.5zM91 165h-58v-149q0 -16 -16 -16t-16 16v617q0 16 16 16h74q100 0 172 -70t72 -171q0 -100 -71.5 -171.5t-172.5 -71.5z" />
    <glyph glyph-name="Q" unicode="Q" horiz-adv-x="413" 
d="M302 167v301q0 56 -39 95.5t-95 39.5t-95.5 -39.5t-39.5 -95.5v-301q0 -56 39.5 -95.5t95.5 -39.5q46 0 83 29l-95 94q-11 12 0 23q12 11 23 0l95 -94q28 36 28 83zM296 61l34 -34q11 -11 0 -22q-5 -5 -11 -5q-7 0 -12 5l-33 33q-46 -38 -106 -38q-69 0 -118 49t-49 118
v301q0 69 49 118t118 49t118 -49t49 -118v-301q0 -59 -39 -106z" />
    <glyph glyph-name="R" unicode="R" horiz-adv-x="410" 
d="M91 603h-58v-420h58q88 0 149.5 62t61.5 150q0 87 -61 147.5t-150 60.5zM186 170l143 -143q13 -11 0 -22q-5 -5 -11 -5t-11 5l-154 154q-32 -8 -62 -8h-58v-135q0 -16 -16 -16t-16 16v603q0 16 16 16h74q100 0 172 -70t72 -170q0 -74 -41 -135t-108 -90z" />
    <glyph glyph-name="S" unicode="S" horiz-adv-x="408" 
d="M168 0q-69 0 -118 49t-49 118q0 16 16 16t16 -16q0 -56 39.5 -95.5t95.5 -39.5q55 0 94.5 39.5t39.5 95.5t-39.5 95.5t-94.5 39.5q-69 0 -118 48.5t-49 117.5t49 118t118 49t118 -49t49 -118q0 -7 -5 -11.5t-11 -4.5q-7 0 -12 4.5t-5 11.5q0 56 -39 95.5t-95 39.5
t-95.5 -39.5t-39.5 -95.5t39.5 -95t95.5 -39q69 0 118 -49t49 -118t-49 -118t-118 -49z" />
    <glyph glyph-name="T" unicode="T" horiz-adv-x="312" 
d="M319 603h-135v-587q0 -16 -16 -16t-16 16v587h-135q-16 0 -16 16t16 16h302q6 0 11 -4.5t5 -11.5t-5 -11.5t-11 -4.5z" />
    <glyph glyph-name="U" unicode="U" horiz-adv-x="417" 
d="M168 0q-66 0 -114 45t-53 111v3v460q0 16 16 16t16 -16v-452q0 -56 39.5 -95.5t95.5 -39.5q55 0 94.5 39.5t39.5 95.5v452q0 7 5 11.5t12 4.5q6 0 11 -4.5t5 -11.5v-452q0 -69 -49 -118t-118 -49z" />
    <glyph glyph-name="V" unicode="V" horiz-adv-x="401" 
d="M334 615l-151 -603q-2 -12 -15 -12t-16 12l-151 603q-2 15 12 20q15 3 20 -12l135 -541l135 541q4 16 19 12q15 -5 12 -20z" />
    <glyph glyph-name="W" unicode="W" horiz-adv-x="702" 
d="M636 615l-151 -603q-3 -12 -16 -12t-15 12l-135 541l-136 -541q-2 -12 -15 -12t-16 12l-151 603q-2 15 12 20q15 3 20 -12l135 -541l135 541q3 12 16 12q12 0 15 -12l135 -541l135 541q5 15 20 12q15 -6 12 -20z" />
    <glyph glyph-name="X" unicode="X" horiz-adv-x="412" 
d="M326 2q-6 -2 -7 -2q-11 0 -15 9l-136 273l-137 -273q-3 -9 -14 -9q-3 0 -7 2q-13 6 -7 21l147 295l-147 294q-6 15 7 21q14 7 21 -7l137 -273l136 273q7 14 22 7q14 -7 7 -21l-147 -294l147 -295q7 -14 -7 -21z" />
    <glyph glyph-name="Y" unicode="Y" horiz-adv-x="393" 
d="M333 612l-149 -298v-298q0 -16 -16 -16t-16 16v298l-149 298q-6 15 7 21q14 7 21 -7l137 -273l136 273q7 14 22 7q14 -7 7 -21z" />
    <glyph glyph-name="Z" unicode="Z" horiz-adv-x="391" 
d="M319 0h-302q-9 0 -14 8t0 16l290 580h-276q-16 0 -16 16q0 6 4.5 11t11.5 5h302q8 0 13 -8q4 -7 1 -16l-290 -579h276q6 0 11 -5t5 -11q0 -7 -5 -12t-11 -5z" />
    <glyph glyph-name="bracketleft" unicode="[" 
 />
    <glyph glyph-name="backslash" unicode="\" 
 />
    <glyph glyph-name="bracketright" unicode="]" 
 />
    <glyph glyph-name="asciicircum" unicode="^" 
 />
    <glyph glyph-name="underscore" unicode="_" 
 />
    <glyph glyph-name="grave" unicode="`" 
 />
    <glyph glyph-name="a" unicode="a" horiz-adv-x="421" 
d="M168 302q-56 0 -95.5 -39.5t-39.5 -95.5t39.5 -95.5t95.5 -39.5q55 0 94.5 39.5t39.5 95.5t-39.5 95.5t-94.5 39.5zM319 0q-7 0 -12 4.5t-5 11.5v53q-49 -69 -134 -69q-69 0 -118 49t-49 118t49 118t118 49t118 -49t49 -118v-151q0 -7 -5 -11.5t-11 -4.5z" />
    <glyph glyph-name="b" unicode="b" horiz-adv-x="409" 
d="M168 302q-56 0 -95.5 -39.5t-39.5 -95.5t39.5 -95.5t95.5 -39.5q55 0 94.5 39.5t39.5 95.5t-39.5 95.5t-94.5 39.5zM168 0q-69 0 -118 49t-49 118v452q0 16 16 16t16 -16v-354q49 69 135 69q69 0 118 -49t49 -118t-49 -118t-118 -49z" />
    <glyph glyph-name="c" unicode="c" horiz-adv-x="347" 
d="M168 0q-69 0 -118 49t-49 118t49 118t118 49q67 0 118 -49q11 -12 0 -23q-12 -11 -23 0q-38 40 -95 40q-56 0 -95.5 -39.5t-39.5 -95.5t39.5 -95.5t95.5 -39.5q57 0 95 40q11 11 23 0q11 -12 0 -23q-49 -49 -118 -49z" />
    <glyph glyph-name="d" unicode="d" horiz-adv-x="417" 
d="M168 302q-56 0 -95.5 -39.5t-39.5 -95.5t39.5 -95.5t95.5 -39.5q55 0 94.5 39.5t39.5 95.5t-39.5 95.5t-94.5 39.5zM168 0q-69 0 -118 49t-49 118t49 118t118 49q85 0 134 -69v354q0 7 5 11.5t12 4.5q6 0 11 -4.5t5 -11.5v-452q0 -69 -49 -118t-118 -49z" />
    <glyph glyph-name="e" unicode="e" horiz-adv-x="407" 
d="M168 302q-51 0 -89.5 -34t-44.5 -85h267q-5 50 -43 84.5t-90 34.5zM319 151h-285q6 -51 44.5 -85t89.5 -34q57 0 95 40q11 11 23 0q11 -12 0 -23q-49 -49 -118 -49t-118 49t-49 118t49 118t118 49t118 -49t49 -118q0 -7 -5 -11.5t-11 -4.5z" />
    <glyph glyph-name="f" unicode="f" horiz-adv-x="312" 
d="M319 454q-7 0 -12 4.5t-5 11.5q0 56 -39.5 95.5t-94.5 39.5q-56 0 -95.5 -39.5t-39.5 -95.5v-287h135q16 0 16 -16t-16 -16h-135v-135q0 -16 -16 -16t-16 16v454q0 69 49 118t118 49t118 -49t49 -118q0 -7 -5 -11.5t-11 -4.5z" />
    <glyph glyph-name="g" unicode="g" horiz-adv-x="415" 
d="M167 298q-55 0 -94.5 -39t-39.5 -95t39.5 -95t94.5 -39t94.5 39t39.5 95t-39.5 95t-94.5 39zM167 -300q-69 0 -117.5 48.5t-48.5 116.5q0 16 16 16t16 -16q0 -55 39.5 -94.5t94.5 -39.5t94.5 39.5t39.5 94.5v201q-51 -67 -134 -67q-69 0 -117.5 48.5t-48.5 116.5
t48.5 117t117.5 49q68 0 117 -49t49 -117v-299q0 -68 -49 -116.5t-117 -48.5z" />
    <glyph glyph-name="h" unicode="h" horiz-adv-x="418" 
d="M319 0q-7 0 -12 4.5t-5 11.5v151q0 56 -39.5 95.5t-94.5 39.5q-56 0 -95.5 -39.5t-39.5 -95.5v-151q0 -16 -16 -16t-16 16v603q0 16 16 16t16 -16v-354q49 69 135 69q69 0 118 -49t49 -118v-151q0 -7 -5 -11.5t-11 -4.5z" />
    <glyph glyph-name="i" unicode="i" horiz-adv-x="116" 
d="M17 0q-16 0 -16 16v302q0 6 4.5 11t11.5 5t11.5 -5t4.5 -11v-302q0 -16 -16 -16zM17 457q-16 0 -16 16v146q0 16 16 16t16 -16v-146q0 -16 -16 -16z" />
    <glyph glyph-name="j" unicode="j" horiz-adv-x="412" 
d="M167 -295q-69 0 -117.5 48.5t-48.5 117.5q0 16 16 16t16 -16q0 -55 39.5 -94.5t94.5 -39.5t94.5 39.5t39.5 94.5v448q0 16 16 16q6 0 11 -4.5t5 -11.5v-448q0 -69 -49 -117.5t-117 -48.5zM317 458q-16 0 -16 16v145q0 16 16 16q6 0 11 -4.5t5 -11.5v-145q0 -7 -5 -11.5
t-11 -4.5z" />
    <glyph glyph-name="k" unicode="k" horiz-adv-x="413" 
d="M327 0q-1 0 -3.5 -0.5t-4.5 -0.5q-10 0 -14 6l-143 217l-129 -60v-146q0 -16 -16 -16t-16 16v603q0 16 16 16t16 -16v-422l277 129q15 7 22 -7t-8 -22l-133 -62l141 -212q9 -14 -5 -23z" />
    <glyph glyph-name="l" unicode="l" horiz-adv-x="117" 
d="M17 0q-16 0 -16 16v603q0 16 16 16t16 -16v-603q0 -16 -16 -16z" />
    <glyph glyph-name="m" unicode="m" horiz-adv-x="723" 
d="M620 0q-16 0 -16 16v151q0 56 -39.5 95.5t-95.5 39.5q-55 0 -94.5 -39.5t-39.5 -95.5v-151q0 -7 -5 -11.5t-11 -4.5q-7 0 -12 4.5t-5 11.5v151q0 56 -39.5 95.5t-94.5 39.5q-56 0 -95.5 -39.5t-39.5 -95.5v-151q0 -16 -16 -16t-16 16v151q0 69 49 118t118 49
q49 0 89.5 -26.5t61.5 -69.5q20 43 60.5 69.5t89.5 26.5q69 0 118 -49t49 -118v-151q0 -16 -16 -16z" />
    <glyph glyph-name="n" unicode="n" horiz-adv-x="421" 
d="M319 0q-7 0 -12 4.5t-5 11.5v151q0 56 -39.5 95.5t-94.5 39.5q-56 0 -95.5 -39.5t-39.5 -95.5v-151q0 -16 -16 -16t-16 16v151q0 69 49 118t118 49t118 -49t49 -118v-151q0 -7 -5 -11.5t-11 -4.5z" />
    <glyph glyph-name="o" unicode="o" horiz-adv-x="419" 
d="M168 302q-56 0 -95.5 -39.5t-39.5 -95.5t39.5 -95.5t95.5 -39.5q55 0 94.5 39.5t39.5 95.5t-39.5 95.5t-94.5 39.5zM168 0q-69 0 -118 49t-49 118t49 118t118 49t118 -49t49 -118t-49 -118t-118 -49z" />
    <glyph glyph-name="p" unicode="p" horiz-adv-x="412" 
d="M167 300q-55 0 -94.5 -39t-39.5 -95t39.5 -95t94.5 -39t94.5 39t39.5 95t-39.5 95t-94.5 39zM167 0q-84 0 -134 68v-351q0 -16 -16 -16t-16 16v449q0 68 48.5 117t117.5 49q68 0 117 -49t49 -117q0 -69 -49 -117.5t-117 -48.5z" />
    <glyph glyph-name="q" unicode="q" horiz-adv-x="416" 
d="M167 300q-55 0 -94.5 -39t-39.5 -95t39.5 -95t94.5 -39t94.5 39t39.5 95t-39.5 95t-94.5 39zM317 -299q-16 0 -16 16v127h-134q-16 0 -16 16t16 16h134v192q-51 -68 -134 -68q-69 0 -117.5 48.5t-48.5 117.5q0 68 48.5 117t117.5 49q68 0 117 -49t49 -117v-449
q0 -7 -5 -11.5t-11 -4.5z" />
    <glyph glyph-name="r" unicode="r" horiz-adv-x="393" 
d="M319 151q-7 0 -12 4.5t-5 11.5q0 56 -39.5 95.5t-94.5 39.5q-56 0 -95.5 -39.5t-39.5 -95.5v-151q0 -16 -16 -16t-16 16v151q0 69 49 118t118 49t118 -49t49 -118q0 -7 -5 -11.5t-11 -4.5z" />
    <glyph glyph-name="s" unicode="s" horiz-adv-x="414" 
d="M243 0h-151q-38 0 -64.5 27t-26.5 64q0 16 16 16t16 -16q0 -24 17.5 -41.5t41.5 -17.5h151q25 0 42 17.5t17 41.5q0 25 -17 42.5t-42 17.5h-151q-38 0 -64.5 26.5t-26.5 64.5t26.5 65t64.5 27h151q38 0 65 -27t27 -65q0 -7 -5 -11.5t-11 -4.5q-7 0 -12 4.5t-5 11.5
q0 25 -17 42.5t-42 17.5h-151q-24 0 -41.5 -17.5t-17.5 -42.5t17.5 -42t41.5 -17h151q38 0 65 -27t27 -65t-27 -64.5t-65 -26.5z" />
    <glyph glyph-name="t" unicode="t" horiz-adv-x="312" 
d="M319 452h-135v-436q0 -16 -16 -16t-16 16v436h-135q-16 0 -16 16t16 16h135v135q0 16 16 16t16 -16v-135h135q6 0 11 -4.5t5 -11.5t-5 -11.5t-11 -4.5z" />
    <glyph glyph-name="u" unicode="u" horiz-adv-x="421" 
d="M168 0q-69 0 -118 49t-49 118v151q0 6 4.5 11t11.5 5t11.5 -5t4.5 -11v-151q0 -56 39.5 -95.5t95.5 -39.5q55 0 94.5 39.5t39.5 95.5v151q0 6 5 11t12 5q6 0 11 -5t5 -11v-151q0 -69 -49 -118t-118 -49z" />
    <glyph glyph-name="v" unicode="v" horiz-adv-x="392" 
d="M333 310l-151 -301q-4 -9 -14 -9t-15 9l-150 301q-6 16 7 22q14 7 21 -7l137 -273l136 273q7 14 22 7q14 -7 7 -22z" />
    <glyph glyph-name="w" unicode="w" horiz-adv-x="693" 
d="M634 310l-150 -301q-4 -9 -15 -9q-9 0 -14 9l-136 273l-137 -273q-4 -9 -14 -9t-15 9l-150 301q-6 16 7 22q14 7 21 -7l137 -273l136 273q5 9 15 9q9 0 14 -9l136 -273l137 273q7 14 21 7t7 -22z" />
    <glyph glyph-name="x" unicode="x" horiz-adv-x="415" 
d="M319 2q-7 0 -12 5l-139 139l-140 -139q-5 -5 -11 -5t-11 5q-11 11 0 23l139 139l-139 139q-11 12 0 23t22 0l140 -139l139 139q11 11 23 0q11 -11 0 -23l-140 -139l140 -139q11 -12 0 -23q-5 -5 -11 -5z" />
    <glyph glyph-name="y" unicode="y" horiz-adv-x="417" 
d="M167 -299q-69 0 -117.5 49t-48.5 117q0 16 16 16t16 -16q0 -55 39.5 -94.5t94.5 -39.5t94.5 39.5t39.5 94.5v201q-51 -68 -134 -68q-69 0 -117.5 48.5t-48.5 117.5v150q0 6 4.5 11t11.5 5t11.5 -5t4.5 -11v-150q0 -56 39.5 -95t94.5 -39t94.5 39t39.5 95v150q0 6 4.5 11
t11.5 5q6 0 11 -5t5 -11v-150v-299q0 -68 -49 -117t-117 -49z" />
    <glyph glyph-name="z" unicode="z" horiz-adv-x="404" 
d="M319 0h-302q-16 0 -16 19q0 7 109 115.5t170 166.5h-263q-7 0 -11.5 5t-4.5 11q0 16 16 16h302q15 0 15 -19q0 -3 -26 -30.5t-65.5 -67t-77 -76.5t-71.5 -70.5t-38 -37.5h263q6 0 11 -4.5t5 -11.5t-5 -11.5t-11 -4.5z" />
    <glyph glyph-name="braceleft" unicode="{" 
 />
    <glyph glyph-name="bar" unicode="|" 
 />
    <glyph glyph-name="braceright" unicode="}" 
 />
    <glyph glyph-name="asciitilde" unicode="~" 
 />
    <glyph glyph-name="uni00A0" unicode="&#xa0;" 
 />
    <glyph glyph-name="exclamdown" unicode="&#xa1;" horiz-adv-x="118" 
d="M16 -83q-6 0 -10.5 4.5t-4.5 11.5v410q0 7 4.5 11.5t10.5 4.5q16 0 16 -16v-410q0 -16 -16 -16zM16 414q-6 0 -10.5 4.5t-4.5 10.5v51q0 7 4.5 11.5t10.5 4.5q16 0 16 -16v-51q0 -6 -4.5 -10.5t-11.5 -4.5z" />
    <glyph glyph-name="cent" unicode="&#xa2;" 
 />
    <glyph glyph-name="sterling" unicode="&#xa3;" horiz-adv-x="386" 
d="M319 2q-49 0 -89.5 26t-61.5 69q-21 -43 -61.5 -69t-89.5 -26q-16 0 -16 16v452q0 69 49 118t118 49t118 -49t49 -118q0 -7 -5 -11.5t-11 -4.5q-7 0 -12 4.5t-5 11.5q0 56 -39.5 95.5t-94.5 39.5q-56 0 -95.5 -39.5t-39.5 -95.5v-135h135q16 0 16 -16t-16 -16h-135v-268
q50 6 84.5 44t34.5 89q0 16 16 16t16 -16q0 -56 39.5 -95t95.5 -39q6 0 11 -4.5t5 -11.5t-5 -11.5t-11 -4.5z" />
    <glyph glyph-name="currency" unicode="&#xa4;" 
 />
    <glyph glyph-name="yen" unicode="&#xa5;" horiz-adv-x="401" 
d="M319 151h-135v-135q0 -16 -16 -16t-16 16v135h-135q-16 0 -16 16t16 16h135v119h-135q-16 0 -16 16q0 6 4.5 11t11.5 5h125l-139 278q-6 15 7 21q14 7 21 -7l137 -273l136 273q7 14 22 7q14 -7 7 -21l-139 -278h125q6 0 11 -5t5 -11q0 -7 -5 -11.5t-11 -4.5h-135v-119
h135q6 0 11 -4.5t5 -11.5t-5 -11.5t-11 -4.5z" />
    <glyph glyph-name="brokenbar" unicode="&#xa6;" 
 />
    <glyph glyph-name="section" unicode="&#xa7;" 
 />
    <glyph glyph-name="dieresis" unicode="&#xa8;" 
 />
    <glyph glyph-name="copyright" unicode="&#xa9;" 
 />
    <glyph glyph-name="ordfeminine" unicode="&#xaa;" 
 />
    <glyph glyph-name="guillemotleft" unicode="&#xab;" 
 />
    <glyph glyph-name="logicalnot" unicode="&#xac;" 
 />
    <glyph glyph-name="uni00AD" unicode="&#xad;" 
 />
    <glyph glyph-name="registered" unicode="&#xae;" 
 />
    <glyph glyph-name="macron" unicode="&#xaf;" 
 />
    <glyph glyph-name="degree" unicode="&#xb0;" 
 />
    <glyph glyph-name="plusminus" unicode="&#xb1;" 
 />
    <glyph glyph-name="twosuperior" unicode="&#xb2;" 
 />
    <glyph glyph-name="threesuperior" unicode="&#xb3;" 
 />
    <glyph glyph-name="acute" unicode="&#xb4;" 
 />
    <glyph glyph-name="mu" unicode="&#xb5;" 
 />
    <glyph glyph-name="paragraph" unicode="&#xb6;" 
 />
    <glyph glyph-name="periodcentered" unicode="&#xb7;" 
 />
    <glyph glyph-name="cedilla" unicode="&#xb8;" 
 />
    <glyph glyph-name="onesuperior" unicode="&#xb9;" 
 />
    <glyph glyph-name="ordmasculine" unicode="&#xba;" 
 />
    <glyph glyph-name="guillemotright" unicode="&#xbb;" 
 />
    <glyph glyph-name="onequarter" unicode="&#xbc;" 
 />
    <glyph glyph-name="onehalf" unicode="&#xbd;" 
 />
    <glyph glyph-name="threequarters" unicode="&#xbe;" 
 />
    <glyph glyph-name="questiondown" unicode="&#xbf;" horiz-adv-x="400" 
d="M168 -89q-69 0 -118 49t-49 117q0 69 49 118t118 49q56 0 95 39t39 95q0 7 5 11.5t12 4.5q6 0 11 -4.5t5 -11.5q0 -69 -49 -117.5t-118 -48.5q-56 0 -95.5 -39.5t-39.5 -95.5t39.5 -95t95.5 -39t95 39.5t39 94.5q0 7 5 11.5t12 4.5q6 0 11 -4.5t5 -11.5q0 -68 -49 -117
t-118 -49zM319 457q-7 0 -12 5t-5 11v56q0 7 5 11.5t12 4.5q6 0 11 -4.5t5 -11.5v-56q0 -6 -5 -11t-11 -5z" />
    <glyph glyph-name="Agrave" unicode="&#xc0;" horiz-adv-x="414" 
d="M302 183v285q0 56 -39 95.5t-95 39.5t-95.5 -39.5t-39.5 -95.5v-285h269zM319 0q-7 0 -12 4.5t-5 11.5v135h-269v-135q0 -16 -16 -16t-16 16v452q0 69 49 118t118 49t118 -49t49 -118v-452q0 -7 -5 -11.5t-11 -4.5zM198 706q-11 -11 -23 0l-122 122q-11 12 0 23t23 0
l122 -122q11 -12 0 -23z" />
    <glyph glyph-name="Aacute" unicode="&#xc1;" horiz-adv-x="414" 
d="M302 183v285q0 56 -39 95.5t-95 39.5t-95.5 -39.5t-39.5 -95.5v-285h269zM319 0q-7 0 -12 4.5t-5 11.5v135h-269v-135q0 -16 -16 -16t-16 16v452q0 69 49 118t118 49t118 -49t49 -118v-452q0 -7 -5 -11.5t-11 -4.5zM288 826l-122 -122q-4 -4 -11 -4t-12 4q-11 11 0 23
l122 122q12 11 23 0q4 -5 4 -12t-4 -11z" />
    <glyph glyph-name="Acircumflex" unicode="&#xc2;" horiz-adv-x="414" 
d="M302 183v285q0 56 -39 95.5t-95 39.5t-95.5 -39.5t-39.5 -95.5v-285h269zM319 0q-7 0 -12 4.5t-5 11.5v135h-269v-135q0 -16 -16 -16t-16 16v452q0 69 49 118t118 49t118 -49t49 -118v-452q0 -7 -5 -11.5t-11 -4.5zM280 702l-111 111l-111 -111q-11 -11 -22 0q-4 4 -4 11
t4 12l122 122q12 11 23 0l122 -122q11 -11 0 -23q-11 -11 -23 0z" />
    <glyph glyph-name="Atilde" unicode="&#xc3;" horiz-adv-x="414" 
d="M302 183v285q0 56 -39 95.5t-95 39.5t-95.5 -39.5t-39.5 -95.5v-285h269zM319 0q-7 0 -12 4.5t-5 11.5v135h-269v-135q0 -16 -16 -16t-16 16v452q0 69 49 118t118 49t118 -49t49 -118v-452q0 -7 -5 -11.5t-11 -4.5zM254 697h-173q-16 0 -16 16q0 6 4.5 11t11.5 5h173
q7 0 11.5 -5t4.5 -11q0 -16 -16 -16z" />
    <glyph glyph-name="Adieresis" unicode="&#xc4;" horiz-adv-x="414" 
d="M302 183v285q0 56 -39 95.5t-95 39.5t-95.5 -39.5t-39.5 -95.5v-285h269zM319 0q-7 0 -12 4.5t-5 11.5v135h-269v-135q0 -16 -16 -16t-16 16v452q0 69 49 118t118 49t118 -49t49 -118v-452q0 -7 -5 -11.5t-11 -4.5zM110 697q-16 0 -16 16v146q0 16 16 16t16 -16v-146
q0 -16 -16 -16zM222 697q-16 0 -16 16v146q0 16 16 16t16 -16v-146q0 -16 -16 -16z" />
    <glyph glyph-name="Aring" unicode="&#xc5;" horiz-adv-x="414" 
d="M302 183v285q0 56 -39 95.5t-95 39.5t-95.5 -39.5t-39.5 -95.5v-285h269zM168 844q-24 0 -41.5 -17t-17.5 -42t17.5 -42t41.5 -17q25 0 42.5 17t17.5 42t-17.5 42t-42.5 17zM319 0q-7 0 -12 4.5t-5 11.5v135h-269v-135q0 -16 -16 -16t-16 16v452q0 69 49 118t118 49
t118 -49t49 -118v-452q0 -7 -5 -11.5t-11 -4.5zM168 694q-38 0 -64.5 27t-26.5 64q0 38 26.5 65t64.5 27t65 -27t27 -65t-27 -64.5t-65 -26.5z" />
    <glyph glyph-name="AE" unicode="&#xc6;" 
 />
    <glyph glyph-name="Ccedilla" unicode="&#xc7;" horiz-adv-x="390" 
d="M296 61l34 -34q11 -11 0 -22q-5 -5 -11 -5q-7 0 -12 5l-33 33q-46 -38 -106 -38q-69 0 -118 49t-49 118v301q0 69 49 118t118 49t118 -49t49 -118q0 -7 -5 -11.5t-11 -4.5q-7 0 -12 4.5t-5 11.5q0 56 -39 95.5t-95 39.5t-95.5 -39.5t-39.5 -95.5v-301q0 -56 39.5 -95.5
t95.5 -39.5q46 0 83 29l-95 94q-11 12 0 23q12 11 23 0l95 -94q28 36 28 83q0 7 5 11.5t12 4.5q6 0 11 -4.5t5 -11.5q0 -59 -39 -106z" />
    <glyph glyph-name="Egrave" unicode="&#xc8;" horiz-adv-x="375" 
d="M319 0h-302q-7 0 -11.5 5t-4.5 11v603q0 16 16 16h302q6 0 11 -4.5t5 -11.5q0 -6 -5 -11t-11 -5h-286v-420h286q6 0 11 -4.5t5 -11.5t-5 -11.5t-11 -4.5h-286v-119h286q6 0 11 -4.5t5 -11.5q0 -6 -5 -11t-11 -5zM199 706q-11 -11 -23 0l-122 122q-4 4 -4 11t4 12
q11 11 23 0l122 -122q11 -12 0 -23z" />
    <glyph glyph-name="Eacute" unicode="&#xc9;" horiz-adv-x="375" 
d="M319 0h-302q-7 0 -11.5 5t-4.5 11v603q0 16 16 16h302q6 0 11 -4.5t5 -11.5q0 -6 -5 -11t-11 -5h-286v-420h286q6 0 11 -4.5t5 -11.5t-5 -11.5t-11 -4.5h-286v-119h286q6 0 11 -4.5t5 -11.5q0 -6 -5 -11t-11 -5zM289 826l-122 -122q-12 -11 -23 0t0 23l122 122
q12 11 23 0t0 -23z" />
    <glyph glyph-name="Ecircumflex" unicode="&#xca;" horiz-adv-x="375" 
d="M319 0h-302q-7 0 -11.5 5t-4.5 11v603q0 16 16 16h302q6 0 11 -4.5t5 -11.5q0 -6 -5 -11t-11 -5h-286v-420h286q6 0 11 -4.5t5 -11.5t-5 -11.5t-11 -4.5h-286v-119h286q6 0 11 -4.5t5 -11.5q0 -6 -5 -11t-11 -5zM281 702l-111 111l-111 -111q-11 -11 -22 0q-12 12 0 23
l122 122q11 11 23 0l122 -122q4 -5 4 -12t-4 -11q-11 -11 -23 0z" />
    <glyph glyph-name="Edieresis" unicode="&#xcb;" horiz-adv-x="375" 
d="M319 0h-302q-7 0 -11.5 5t-4.5 11v603q0 16 16 16h302q6 0 11 -4.5t5 -11.5q0 -6 -5 -11t-11 -5h-286v-420h286q6 0 11 -4.5t5 -11.5t-5 -11.5t-11 -4.5h-286v-119h286q6 0 11 -4.5t5 -11.5q0 -6 -5 -11t-11 -5zM111 697q-16 0 -16 16v146q0 16 16 16t16 -16v-146
q0 -16 -16 -16zM223 697q-16 0 -16 16v146q0 16 16 16q6 0 11 -4.5t5 -11.5v-146q0 -7 -5 -11.5t-11 -4.5z" />
    <glyph glyph-name="Igrave" unicode="&#xcc;" horiz-adv-x="229" 
d="M129 0q-16 0 -16 16v603q0 16 16 16t16 -16v-603q0 -16 -16 -16zM151 706q-12 -11 -23 0l-122 122q-4 4 -4 11t4 12q11 11 22 0l123 -122q11 -12 0 -23z" />
    <glyph glyph-name="Iacute" unicode="&#xcd;" horiz-adv-x="145" 
d="M22 0q-16 0 -16 16v603q0 16 16 16t16 -16v-603q0 -16 -16 -16zM151 826l-123 -122q-11 -11 -22 0t0 23l122 122q11 11 23 0q11 -11 0 -23z" />
    <glyph glyph-name="Icircumflex" unicode="&#xce;" horiz-adv-x="259" 
d="M139 0q-6 0 -11 4.5t-5 11.5v603q0 7 5 11.5t11 4.5q16 0 16 -16v-603q0 -16 -16 -16zM250 702l-111 111l-111 -111q-11 -11 -22 0q-4 4 -4 11t4 12l122 122q11 11 23 0l122 -122q11 -11 0 -23q-11 -11 -23 0z" />
    <glyph glyph-name="Idieresis" unicode="&#xcf;" horiz-adv-x="179" 
d="M80 0q-7 0 -12 4.5t-5 11.5v603q0 7 5 11.5t12 4.5q6 0 11 -4.5t5 -11.5v-603q0 -7 -5 -11.5t-11 -4.5zM17 697q-16 0 -16 16v146q0 16 16 16t16 -16v-146q0 -16 -16 -16zM129 697q-16 0 -16 16v146q0 16 16 16t16 -16v-146q0 -16 -16 -16z" />
    <glyph glyph-name="Eth" unicode="&#xd0;" 
 />
    <glyph glyph-name="Ntilde" unicode="&#xd1;" 
 />
    <glyph glyph-name="Ograve" unicode="&#xd2;" horiz-adv-x="412" 
d="M302 167v301q0 56 -39 95.5t-95 39.5t-95.5 -39.5t-39.5 -95.5v-301q0 -56 39.5 -95.5t95.5 -39.5q55 0 94.5 39.5t39.5 95.5zM168 0q-69 0 -118 49t-49 118v301q0 69 49 118t118 49t118 -49t49 -118v-301q0 -69 -49 -118t-118 -49zM200 706q-12 -11 -23 0l-122 122
q-13 12 0 23q11 11 22 0l123 -122q11 -12 0 -23z" />
    <glyph glyph-name="Oacute" unicode="&#xd3;" horiz-adv-x="412" 
d="M302 167v301q0 56 -39 95.5t-95 39.5t-95.5 -39.5t-39.5 -95.5v-301q0 -56 39.5 -95.5t95.5 -39.5q55 0 94.5 39.5t39.5 95.5zM168 0q-69 0 -118 49t-49 118v301q0 69 49 118t118 49t118 -49t49 -118v-301q0 -69 -49 -118t-118 -49zM290 826l-123 -122q-11 -11 -22 0
q-12 11 0 23l122 122q11 11 23 0q4 -5 4 -12t-4 -11z" />
    <glyph glyph-name="Ocircumflex" unicode="&#xd4;" horiz-adv-x="412" 
d="M302 167v301q0 56 -39 95.5t-95 39.5t-95.5 -39.5t-39.5 -95.5v-301q0 -56 39.5 -95.5t95.5 -39.5q55 0 94.5 39.5t39.5 95.5zM168 0q-69 0 -118 49t-49 118v301q0 69 49 118t118 49t118 -49t49 -118v-301q0 -69 -49 -118t-118 -49zM282 702l-111 111l-111 -111
q-11 -11 -23 0q-11 12 0 23l123 122q11 11 22 0l123 -122q11 -11 0 -23q-12 -11 -23 0z" />
    <glyph glyph-name="Otilde" unicode="&#xd5;" horiz-adv-x="412" 
d="M254 697h-173q-16 0 -16 16q0 6 4.5 11t11.5 5h173q7 0 11.5 -5t4.5 -11q0 -16 -16 -16zM302 167v301q0 56 -39 95.5t-95 39.5t-95.5 -39.5t-39.5 -95.5v-301q0 -56 39.5 -95.5t95.5 -39.5q55 0 94.5 39.5t39.5 95.5zM168 0q-69 0 -118 49t-49 118v301q0 69 49 118
t118 49t118 -49t49 -118v-301q0 -69 -49 -118t-118 -49z" />
    <glyph glyph-name="Odieresis" unicode="&#xd6;" horiz-adv-x="412" 
d="M302 167v301q0 56 -39 95.5t-95 39.5t-95.5 -39.5t-39.5 -95.5v-301q0 -56 39.5 -95.5t95.5 -39.5q55 0 94.5 39.5t39.5 95.5zM168 0q-69 0 -118 49t-49 118v301q0 69 49 118t118 49t118 -49t49 -118v-301q0 -69 -49 -118t-118 -49zM112 697q-16 0 -16 16v146q0 16 16 16
q6 0 11 -4.5t5 -11.5v-146q0 -7 -5 -11.5t-11 -4.5zM223 697q-16 0 -16 16v146q0 16 16 16t16 -16v-146q0 -16 -16 -16z" />
    <glyph glyph-name="multiply" unicode="&#xd7;" 
 />
    <glyph glyph-name="Oslash" unicode="&#xd8;" 
 />
    <glyph glyph-name="Ugrave" unicode="&#xd9;" horiz-adv-x="417" 
d="M168 0q-69 0 -118 49t-49 118v452q0 16 16 16t16 -16v-452q0 -56 39.5 -95.5t95.5 -39.5q55 0 94.5 39.5t39.5 95.5v452q0 7 5 11.5t12 4.5q6 0 11 -4.5t5 -11.5v-452q0 -69 -49 -118t-118 -49zM199 706q-12 -11 -23 0l-122 122q-13 12 0 23q11 11 22 0l123 -122
q11 -12 0 -23z" />
    <glyph glyph-name="Uacute" unicode="&#xda;" horiz-adv-x="417" 
d="M168 0q-69 0 -118 49t-49 118v452q0 16 16 16t16 -16v-452q0 -56 39.5 -95.5t95.5 -39.5q55 0 94.5 39.5t39.5 95.5v452q0 7 5 11.5t12 4.5q6 0 11 -4.5t5 -11.5v-452q0 -69 -49 -118t-118 -49zM289 826l-123 -122q-11 -11 -22 0q-12 11 0 23l122 122q11 11 23 0
q11 -11 0 -23z" />
    <glyph glyph-name="Ucircumflex" unicode="&#xdb;" horiz-adv-x="417" 
d="M168 0q-69 0 -118 49t-49 118v452q0 16 16 16t16 -16v-452q0 -56 39.5 -95.5t95.5 -39.5q55 0 94.5 39.5t39.5 95.5v452q0 7 5 11.5t12 4.5q6 0 11 -4.5t5 -11.5v-452q0 -69 -49 -118t-118 -49zM281 702l-111 111l-111 -111q-11 -11 -23 0q-4 4 -4 11t4 12l123 122
q11 11 22 0l123 -122q4 -5 4 -12t-4 -11q-12 -11 -23 0z" />
    <glyph glyph-name="Udieresis" unicode="&#xdc;" horiz-adv-x="417" 
d="M168 0q-69 0 -118 49t-49 118v452q0 16 16 16t16 -16v-452q0 -56 39.5 -95.5t95.5 -39.5q55 0 94.5 39.5t39.5 95.5v452q0 7 5 11.5t12 4.5q6 0 11 -4.5t5 -11.5v-452q0 -69 -49 -118t-118 -49zM110 697q-6 0 -11 4.5t-5 11.5v146q0 7 5 11.5t11 4.5q16 0 16 -16v-146
q0 -16 -16 -16zM222 697q-16 0 -16 16v146q0 16 16 16t16 -16v-146q0 -16 -16 -16z" />
    <glyph glyph-name="Yacute" unicode="&#xdd;" 
 />
    <glyph glyph-name="Thorn" unicode="&#xde;" 
 />
    <glyph glyph-name="germandbls" unicode="&#xdf;" 
 />
    <glyph glyph-name="agrave" unicode="&#xe0;" horiz-adv-x="415" 
d="M168 302q-56 0 -95.5 -39.5t-39.5 -95.5t39.5 -95.5t95.5 -39.5q55 0 94.5 39.5t39.5 95.5t-39.5 95.5t-94.5 39.5zM319 0q-7 0 -12 4.5t-5 11.5v53q-49 -69 -134 -69q-69 0 -118 49t-49 118t49 118t118 49t118 -49t49 -118v-151q0 -7 -5 -11.5t-11 -4.5zM204 460
q-11 -11 -23 0l-122 122q-11 12 0 23t23 0l122 -122q11 -12 0 -23z" />
    <glyph glyph-name="aacute" unicode="&#xe1;" horiz-adv-x="417" 
d="M168 302q-56 0 -95.5 -39.5t-39.5 -95.5t39.5 -95.5t95.5 -39.5q55 0 94.5 39.5t39.5 95.5t-39.5 95.5t-94.5 39.5zM319 0q-7 0 -12 4.5t-5 11.5v53q-49 -69 -134 -69q-69 0 -118 49t-49 118t49 118t118 49t118 -49t49 -118v-151q0 -7 -5 -11.5t-11 -4.5zM294 582
l-122 -122q-12 -11 -23 0t0 23l122 122q12 11 23 0q4 -5 4 -12t-4 -11z" />
    <glyph glyph-name="acircumflex" unicode="&#xe2;" horiz-adv-x="417" 
d="M168 302q-56 0 -95.5 -39.5t-39.5 -95.5t39.5 -95.5t95.5 -39.5q55 0 94.5 39.5t39.5 95.5t-39.5 95.5t-94.5 39.5zM319 0q-7 0 -12 4.5t-5 11.5v53q-49 -69 -134 -69q-69 0 -118 49t-49 118t49 118t118 49t118 -49t49 -118v-151q0 -7 -5 -11.5t-11 -4.5zM281 460
l-111 111l-111 -111q-11 -11 -22 0q-11 12 0 23l122 122q11 11 23 0l122 -122q4 -5 4 -12t-4 -11q-11 -11 -23 0z" />
    <glyph glyph-name="atilde" unicode="&#xe3;" horiz-adv-x="412" 
d="M168 302q-56 0 -95.5 -39.5t-39.5 -95.5t39.5 -95.5t95.5 -39.5q55 0 94.5 39.5t39.5 95.5t-39.5 95.5t-94.5 39.5zM319 0q-7 0 -12 4.5t-5 11.5v53q-49 -69 -134 -69q-69 0 -118 49t-49 118t49 118t118 49t118 -49t49 -118v-151q0 -7 -5 -11.5t-11 -4.5zM259 458h-173
q-16 0 -16 16q0 6 4.5 11t11.5 5h173q7 0 11.5 -5t4.5 -11q0 -16 -16 -16z" />
    <glyph glyph-name="adieresis" unicode="&#xe4;" horiz-adv-x="417" 
d="M168 302q-56 0 -95.5 -39.5t-39.5 -95.5t39.5 -95.5t95.5 -39.5q55 0 94.5 39.5t39.5 95.5t-39.5 95.5t-94.5 39.5zM319 0q-7 0 -12 4.5t-5 11.5v53q-49 -69 -134 -69q-69 0 -118 49t-49 118t49 118t118 49t118 -49t49 -118v-151q0 -7 -5 -11.5t-11 -4.5zM122 457
q-16 0 -16 16v146q0 16 16 16t16 -16v-146q0 -16 -16 -16zM234 457q-16 0 -16 16v146q0 16 16 16q6 0 11 -4.5t5 -11.5v-146q0 -7 -5 -11.5t-11 -4.5z" />
    <glyph glyph-name="aring" unicode="&#xe5;" horiz-adv-x="419" 
d="M168 554q-24 0 -41.5 -17t-17.5 -42t17.5 -42t41.5 -17q25 0 42.5 17t17.5 42t-17.5 42t-42.5 17zM168 404q-38 0 -64.5 27t-26.5 64q0 38 26.5 65t64.5 27t65 -27t27 -65t-27 -64.5t-65 -26.5zM168 302q-56 0 -95.5 -39.5t-39.5 -95.5t39.5 -95.5t95.5 -39.5
q55 0 94.5 39.5t39.5 95.5t-39.5 95.5t-94.5 39.5zM319 0q-7 0 -12 4.5t-5 11.5v53q-49 -69 -134 -69q-69 0 -118 49t-49 118t49 118t118 49t118 -49t49 -118v-151q0 -7 -5 -11.5t-11 -4.5z" />
    <glyph glyph-name="ae" unicode="&#xe6;" 
 />
    <glyph glyph-name="ccedilla" unicode="&#xe7;" horiz-adv-x="361" 
d="M282 0q-6 0 -11 5l-19 18q-38 -23 -84 -23q-69 0 -118 49t-49 118t49 118t118 49q67 0 118 -49q11 -12 0 -23q-12 -11 -23 0q-38 40 -95 40q-56 0 -95.5 -39.5t-39.5 -95.5t39.5 -95.5t95.5 -39.5q32 0 61 15l-60 59q-11 12 0 23t23 0l64 -64l7 7q11 11 23 0
q11 -12 0 -23l-7 -7l14 -15q13 -11 0 -22q-5 -5 -11 -5z" />
    <glyph glyph-name="egrave" unicode="&#xe8;" horiz-adv-x="396" 
d="M168 302q-51 0 -89.5 -34t-44.5 -85h267q-5 50 -43 84.5t-90 34.5zM319 151h-285q6 -51 44.5 -85t89.5 -34q57 0 95 40q11 11 23 0q11 -12 0 -23q-49 -49 -118 -49t-118 49t-49 118t49 118t118 49t118 -49t49 -118q0 -7 -5 -11.5t-11 -4.5zM195 460q-11 -11 -22 0
l-123 122q-4 4 -4 11t4 12q12 11 23 0l122 -122q11 -12 0 -23z" />
    <glyph glyph-name="eacute" unicode="&#xe9;" horiz-adv-x="395" 
d="M168 302q-51 0 -89.5 -34t-44.5 -85h267q-5 50 -43 84.5t-90 34.5zM319 151h-285q6 -51 44.5 -85t89.5 -34q57 0 95 40q11 11 23 0q11 -12 0 -23q-49 -49 -118 -49t-118 49t-49 118t49 118t118 49t118 -49t49 -118q0 -7 -5 -11.5t-11 -4.5zM285 582l-122 -122
q-11 -11 -23 0q-11 11 0 23l123 122q11 11 22 0t0 -23z" />
    <glyph glyph-name="ecircumflex" unicode="&#xea;" horiz-adv-x="396" 
d="M168 302q-51 0 -89.5 -34t-44.5 -85h267q-5 50 -43 84.5t-90 34.5zM319 151h-285q6 -51 44.5 -85t89.5 -34q57 0 95 40q11 11 23 0q11 -12 0 -23q-49 -49 -118 -49t-118 49t-49 118t49 118t118 49t118 -49t49 -118q0 -7 -5 -11.5t-11 -4.5zM277 460l-111 111l-111 -111
q-11 -11 -23 0q-11 11 0 23l123 122q11 11 22 0l123 -122q11 -12 0 -23q-12 -11 -23 0z" />
    <glyph glyph-name="edieresis" unicode="&#xeb;" horiz-adv-x="395" 
d="M168 302q-51 0 -89.5 -34t-44.5 -85h267q-5 50 -43 84.5t-90 34.5zM319 151h-285q6 -51 44.5 -85t89.5 -34q57 0 95 40q11 11 23 0q11 -12 0 -23q-49 -49 -118 -49t-118 49t-49 118t49 118t118 49t118 -49t49 -118q0 -7 -5 -11.5t-11 -4.5zM113 457q-16 0 -16 16v146
q0 16 16 16t16 -16v-146q0 -16 -16 -16zM225 457q-16 0 -16 16v146q0 16 16 16t16 -16v-146q0 -16 -16 -16z" />
    <glyph glyph-name="igrave" unicode="&#xec;" horiz-adv-x="228" 
d="M128 0q-16 0 -16 16v302q0 6 4.5 11t11.5 5q6 0 11 -5t5 -11v-302q0 -7 -5 -11.5t-11 -4.5zM151 463q-12 -11 -23 0l-122 122q-4 5 -4 12t4 11q11 11 22 0l123 -122q11 -12 0 -23z" />
    <glyph glyph-name="iacute" unicode="&#xed;" horiz-adv-x="217" 
d="M29 0q-16 0 -16 16v302q0 6 4.5 11t11.5 5q6 0 11 -5t5 -11v-302q0 -7 -5 -11.5t-11 -4.5zM151 582l-123 -122q-11 -11 -22 0t0 23l122 122q11 11 23 0q11 -11 0 -23z" />
    <glyph glyph-name="icircumflex" unicode="&#xee;" horiz-adv-x="337" 
d="M141 0q-16 0 -16 16v302q0 6 4.5 11t11.5 5t11.5 -5t4.5 -11v-302q0 -16 -16 -16zM250 460l-111 111l-111 -111q-11 -11 -22 0t0 23l122 122q11 11 23 0l122 -122q11 -12 0 -23t-23 0z" />
    <glyph glyph-name="idieresis" unicode="&#xef;" horiz-adv-x="220" 
d="M77 0q-16 0 -16 16v302q0 6 4.5 11t11.5 5t11.5 -5t4.5 -11v-302q0 -16 -16 -16zM17 457q-16 0 -16 16v146q0 16 16 16t16 -16v-146q0 -16 -16 -16zM129 457q-16 0 -16 16v146q0 16 16 16t16 -16v-146q0 -16 -16 -16z" />
    <glyph glyph-name="eth" unicode="&#xf0;" 
 />
    <glyph glyph-name="ntilde" unicode="&#xf1;" horiz-adv-x="416" 
d="M319 0q-7 0 -12 4.5t-5 11.5v150q0 56 -39 95t-95 39t-95.5 -39t-39.5 -95v-150q0 -16 -16 -16t-16 16v150q0 69 49 117.5t118 48.5t118 -48.5t49 -117.5v-150q0 -7 -5 -11.5t-11 -4.5zM254 458h-173q-16 0 -16 16q0 6 4.5 11t11.5 5h173q7 0 11.5 -5t4.5 -11
q0 -16 -16 -16z" />
    <glyph glyph-name="ograve" unicode="&#xf2;" horiz-adv-x="411" 
d="M168 302q-56 0 -95.5 -39.5t-39.5 -95.5t39.5 -95.5t95.5 -39.5q55 0 94.5 39.5t39.5 95.5t-39.5 95.5t-94.5 39.5zM168 0q-69 0 -118 49t-49 118t49 118t118 49t118 -49t49 -118t-49 -118t-118 -49zM200 460q-4 -4 -11 -4t-12 4l-122 122q-11 12 0 23t23 0l122 -122
q11 -12 0 -23z" />
    <glyph glyph-name="oacute" unicode="&#xf3;" horiz-adv-x="413" 
d="M168 302q-56 0 -95.5 -39.5t-39.5 -95.5t39.5 -95.5t95.5 -39.5q55 0 94.5 39.5t39.5 95.5t-39.5 95.5t-94.5 39.5zM168 0q-69 0 -118 49t-49 118t49 118t118 49t118 -49t49 -118t-49 -118t-118 -49zM289 582l-122 -122q-12 -11 -23 0t0 23l122 122q12 11 23 0t0 -23z
" />
    <glyph glyph-name="ocircumflex" unicode="&#xf4;" horiz-adv-x="414" 
d="M168 302q-56 0 -95.5 -39.5t-39.5 -95.5t39.5 -95.5t95.5 -39.5q55 0 94.5 39.5t39.5 95.5t-39.5 95.5t-94.5 39.5zM168 0q-69 0 -118 49t-49 118t49 118t118 49t118 -49t49 -118t-49 -118t-118 -49zM276 460l-111 111l-111 -111q-11 -11 -22 0q-12 11 0 23l122 122
q11 11 23 0l122 -122q11 -12 0 -23q-5 -4 -12 -4t-11 4z" />
    <glyph glyph-name="otilde" unicode="&#xf5;" horiz-adv-x="409" 
d="M168 302q-56 0 -95.5 -39.5t-39.5 -95.5t39.5 -95.5t95.5 -39.5q55 0 94.5 39.5t39.5 95.5t-39.5 95.5t-94.5 39.5zM168 0q-69 0 -118 49t-49 118t49 118t118 49t118 -49t49 -118t-49 -118t-118 -49zM254 458h-173q-16 0 -16 16q0 6 4.5 11t11.5 5h173q7 0 11.5 -5
t4.5 -11q0 -16 -16 -16z" />
    <glyph glyph-name="odieresis" unicode="&#xf6;" horiz-adv-x="413" 
d="M168 302q-56 0 -95.5 -39.5t-39.5 -95.5t39.5 -95.5t95.5 -39.5q55 0 94.5 39.5t39.5 95.5t-39.5 95.5t-94.5 39.5zM168 0q-69 0 -118 49t-49 118t49 118t118 49t118 -49t49 -118t-49 -118t-118 -49zM113 457q-16 0 -16 16v146q0 16 16 16t16 -16v-146q0 -16 -16 -16z
M224 457q-6 0 -11 4.5t-5 11.5v146q0 7 5 11.5t11 4.5q16 0 16 -16v-146q0 -16 -16 -16z" />
    <glyph glyph-name="divide" unicode="&#xf7;" 
 />
    <glyph glyph-name="oslash" unicode="&#xf8;" 
 />
    <glyph glyph-name="ugrave" unicode="&#xf9;" horiz-adv-x="412" 
d="M168 0q-69 0 -118 49t-49 118v151q0 6 4.5 11t11.5 5t11.5 -5t4.5 -11v-151q0 -56 39.5 -95.5t95.5 -39.5q55 0 94.5 39.5t39.5 95.5v151q0 6 5 11t12 5q6 0 11 -5t5 -11v-151q0 -69 -49 -118t-118 -49zM199 460q-5 -4 -12 -4t-11 4l-122 122q-4 4 -4 11t4 12q11 11 23 0
l122 -122q11 -12 0 -23z" />
    <glyph glyph-name="uacute" unicode="&#xfa;" horiz-adv-x="414" 
d="M168 0q-69 0 -118 49t-49 118v151q0 6 4.5 11t11.5 5t11.5 -5t4.5 -11v-151q0 -56 39.5 -95.5t95.5 -39.5q55 0 94.5 39.5t39.5 95.5v151q0 6 5 11t12 5q6 0 11 -5t5 -11v-151q0 -69 -49 -118t-118 -49zM289 582l-122 -122q-12 -11 -23 0t0 23l122 122q12 11 23 0t0 -23z
" />
    <glyph glyph-name="ucircumflex" unicode="&#xfb;" horiz-adv-x="415" 
d="M168 0q-69 0 -118 49t-49 118v151q0 6 4.5 11t11.5 5t11.5 -5t4.5 -11v-151q0 -56 39.5 -95.5t95.5 -39.5q55 0 94.5 39.5t39.5 95.5v151q0 6 5 11t12 5q6 0 11 -5t5 -11v-151q0 -69 -49 -118t-118 -49zM278 460l-111 111l-111 -111q-4 -4 -11 -4t-12 4q-11 11 0 23
l122 122q12 11 23 0l122 -122q12 -12 0 -23q-11 -11 -22 0z" />
    <glyph glyph-name="udieresis" unicode="&#xfc;" horiz-adv-x="414" 
d="M168 0q-69 0 -118 49t-49 118v151q0 6 4.5 11t11.5 5t11.5 -5t4.5 -11v-151q0 -56 39.5 -95.5t95.5 -39.5q55 0 94.5 39.5t39.5 95.5v151q0 6 5 11t12 5q6 0 11 -5t5 -11v-151q0 -69 -49 -118t-118 -49zM117 457q-16 0 -16 16v146q0 16 16 16t16 -16v-146q0 -16 -16 -16z
M228 457q-6 0 -11 4.5t-5 11.5v146q0 7 5 11.5t11 4.5q16 0 16 -16v-146q0 -16 -16 -16z" />
    <glyph glyph-name="yacute" unicode="&#xfd;" 
 />
    <glyph glyph-name="thorn" unicode="&#xfe;" 
 />
    <glyph glyph-name="ydieresis" unicode="&#xff;" 
 />
    <glyph glyph-name="Ydieresis" unicode="&#x178;" 
 />
    <glyph glyph-name="zcaron" unicode="&#x17e;" 
 />
    <glyph glyph-name="quoteleft" unicode="&#x2018;" 
 />
    <glyph glyph-name="quoteright" unicode="&#x2019;" 
 />
    <glyph glyph-name="quotedblleft" unicode="&#x201c;" 
 />
    <glyph glyph-name="quotedblright" unicode="&#x201d;" 
 />
    <glyph glyph-name="Euro" unicode="&#x20ac;" horiz-adv-x="393" 
d="M167 0q-69 0 -117.5 49t-48.5 118v301q0 69 48.5 118t117.5 49t118 -49t49 -118q0 -16 -16 -16t-16 16q0 56 -39.5 95.5t-95.5 39.5t-95 -39.5t-39 -95.5v-134h285q7 0 11.5 -5t4.5 -11q0 -16 -16 -16h-285v-135q0 -56 39.5 -95.5t94.5 -39.5q56 0 95.5 39.5t39.5 95.5
q0 16 16 16t16 -16q0 -69 -49 -118t-118 -49z" />
    <glyph glyph-name="_11" 
 />
    <glyph glyph-name="_127" 
 />
    </font>
</defs>
</svg>
