<?xml version="1.0" standalone="no"?>
<!DOCTYPE svg PUBLIC "-//W3C//DTD SVG 1.1//EN" "http://www.w3.org/Graphics/SVG/1.1/DTD/svg11.dtd" >
<svg xmlns="http://www.w3.org/2000/svg" xmlns:xlink="http://www.w3.org/1999/xlink" version="1.1">
<metadata>
Created by FontForge 20170731 at Fri Jan  1 02:30:17 1904
 By Aleksey,,,
Brignorth Regular (C) Copyright PJL '96
</metadata>
<defs>
<font id="Bridgnorth" horiz-adv-x="168" >
  <font-face 
    font-family="Bridgnorth"
    font-weight="400"
    font-stretch="normal"
    units-per-em="1000"
    panose-1="4 0 5 0 0 0 0 0 0 0"
    ascent="800"
    descent="-200"
    x-height="384"
    cap-height="803"
    bbox="-221 -208 1244 804"
    underline-thickness="50"
    underline-position="-200"
    unicode-range="U+0020-007A"
  />
<missing-glyph horiz-adv-x="502" 
d="M-1 0h500v500h-500v-500zM9 10v480h480v-480h-480z" />
    <glyph glyph-name=".notdef" horiz-adv-x="502" 
d="M-1 0h500v500h-500v-500zM9 10v480h480v-480h-480z" />
    <glyph glyph-name=".null" horiz-adv-x="0" 
 />
    <glyph glyph-name="nonmarkingreturn" horiz-adv-x="333" 
 />
    <glyph glyph-name="space" unicode=" " horiz-adv-x="300" 
 />
    <glyph glyph-name="space" unicode="&#xa0;" horiz-adv-x="300" 
 />
    <glyph glyph-name="exclam" unicode="!" 
d="M151 0q0 8 -7 17.5t-17 16.5q-21 15 -49 15q-13 0 -34 -17q-12 -9 -19.5 -17t-7.5 -14q0 -8 4 -13t13 -12q5 -4 8 -7q16 -16 38 -16q15 0 36 13l7 5q12 6 20 13.5t8 15.5zM110 102q1 184 4.5 352t10.5 327q0 18 -7 18q-3 0 -7 -3l-59 -39q-13 -9 -13 -24q10 -239 12 -633
q13 8 31 8q12 0 28 -6z" />
    <glyph glyph-name="quotedbl" unicode="&#x22;" horiz-adv-x="199" 
d="M91 721q0 12 -4 26t-9 23q-12 22 -27 22q-7 0 -19 -25q-7 -12 -11 -24t-4 -21q0 -11 2.5 -18.5t6.5 -17.5q4 -6 5 -10q9 -23 21 -23q8 0 19 19q4 6 5 7q6 8 10.5 18.5t4.5 23.5zM182 721q0 12 -4 26t-9 23q-12 22 -27 22q-7 0 -19 -25q-7 -12 -11 -24t-4 -21
q0 -11 2.5 -18.5t6.5 -17.5q4 -6 5 -10q9 -23 21 -23q8 0 19 19q4 6 5 7q6 8 10.5 18.5t4.5 23.5z" />
    <glyph glyph-name="ampersand" unicode="&#x26;" horiz-adv-x="545" 
d="M440 -142q0 -6 -2 -17q-2 -13 -2 -20q0 -13 11 -13q8 0 13.5 4.5t11.5 14.5q7 9 10 12l8 8q13 13 19 21.5t6 19.5q0 36 -33 76.5t-93 91.5q27 22 52 45.5t44.5 44.5t31 38t11.5 27q0 6 -2.5 11t-6.5 5q-15 0 -39 -15q-12 -7 -19 -10q-6 -2 -18 -25t-20 -34
q-11 -15 -27.5 -32t-33.5 -32q-12 10 -31 26q-81 68 -112 100q36 26 55.5 50t19.5 53q0 36 -30 58q-26 21 -61 21q-21 0 -43.5 -11.5t-41.5 -30.5t-30.5 -41t-11.5 -40q0 -33 46 -84q-48 -30 -76.5 -61t-28.5 -73t30.5 -70.5t91.5 -28.5q24 0 50.5 5.5t50.5 14t45 18.5
t35 20q6 -5 27 -22q37 -29 53 -45q20 -20 30 -38t10 -42zM129 295q0 14 13 25q5 4 13.5 6t16.5 2q24 0 39 -19.5t15 -43.5q0 -17 -29 -39q-20 8 -46 35q-9 10 -15.5 19t-6.5 15zM195 5q-41 0 -74 21.5t-33 52.5q0 18 14 34.5t44 40.5q30 -30 103 -90q26 -21 40 -33
q-52 -26 -94 -26z" />
    <glyph glyph-name="quotesingle" unicode="'" horiz-adv-x="108" 
d="M91 721q0 12 -4 26t-9 23q-12 22 -27 22q-7 0 -19 -25q-7 -12 -11 -24t-4 -21q0 -11 2.5 -18.5t6.5 -17.5q4 -6 5 -10q9 -23 21 -23q8 0 19 19q4 6 5 7q6 8 10.5 18.5t4.5 23.5z" />
    <glyph glyph-name="comma" unicode="," 
d="M151 -18q0 28 -22 47.5t-51 19.5q-13 0 -34 -17q-12 -9 -19.5 -17t-7.5 -14q0 -10 7.5 -16t24.5 -14q15 -7 23 -13.5t8 -16.5q0 -9 -6 -16t-17 -17q-19 -17 -19 -26q0 -5 4 -9t9 -4q8 0 16.5 6.5t22.5 19.5l7 7q24 23 39 44t15 36z" />
    <glyph glyph-name="hyphen" unicode="-" horiz-adv-x="365" 
d="M187 243q-21 0 -69 8q-30 5 -39 5t-23 -15q-4 -5 -6 -7l-5 -5q-13 -12 -20.5 -21t-7.5 -14q0 -10 26 -14t58 -4q35 0 83.5 9.5t90.5 24.5q28 10 50.5 27t22.5 23q0 12 -16 12q-2 0 -25 -6q-38 -10 -67 -16.5t-53 -6.5z" />
    <glyph glyph-name="period" unicode="." 
d="M151 0q0 8 -7 17.5t-17 16.5q-21 15 -49 15q-13 0 -34 -17q-12 -9 -19.5 -17t-7.5 -14q0 -8 4 -13t13 -12q5 -4 8 -7q16 -16 38 -16q15 0 36 13l7 5q12 6 20 13.5t8 15.5z" />
    <glyph glyph-name="zero" unicode="0" horiz-adv-x="511" 
d="M254 500q-48 0 -91 -25.5t-76 -69.5t-51.5 -99.5t-18.5 -113.5t18 -106t51 -82t76 -52.5t92 -18.5q48 0 91.5 26.5t77 71.5t52.5 102t19 115q0 49 -14.5 94t-44.5 81t-75.5 56.5t-105.5 20.5zM254 456q22 0 50 -16.5t54.5 -50.5t43.5 -87t17 -121q0 -94 -43 -149
t-100 -55q-41 0 -76.5 24.5t-61.5 65.5t-40 91t-14 100q0 95 48 146.5t122 51.5z" />
    <glyph glyph-name="one" unicode="1" horiz-adv-x="264" 
d="M17 379q0 -11 5 -14t13 -3q10 0 31 18q24 19 35 19q8 0 8 -23v-170v-167l-38 -31q-5 -5 -5 -8q0 -6 10 -11l98 -51q11 -6 18 -6q8 0 13 6l33 37q9 10 9 18q0 12 -18 22l-34 19v175v271q0 7 -4 13.5t-11 6.5q-10 0 -22 -9t-31 -28q-23 -22 -35 -31q-13 -10 -40 -25
q-20 -11 -27.5 -16.5t-7.5 -11.5z" />
    <glyph glyph-name="two" unicode="2" horiz-adv-x="470" 
d="M453 323q0 43 -19 76.5t-50.5 56.5t-68.5 34t-73 11q-42 0 -75 -12t-62 -35q-39 -30 -61.5 -71t-22.5 -83q0 -39 11.5 -55t30.5 -16q7 0 15.5 4.5t18.5 12.5q10 7 15.5 13.5t5.5 14.5q0 12 -13 32q-12 18 -12 30q0 19 6 41.5t19 39.5q15 17 38.5 27t49.5 10
q30 0 60.5 -15t56 -41t40.5 -57.5t15 -62.5q0 -37 -16.5 -68.5t-45.5 -57.5t-61.5 -46t-83.5 -49q-13 -7 -48 -23q-51 -23 -78.5 -41.5t-27.5 -41.5q0 -12 17 -12t43 12q19 9 34.5 13.5t41.5 4.5q28 0 84 -19t84 -19q44 0 86 21q20 10 33 21t13 23q0 4 -2.5 9t-5.5 5
q-9 0 -29 -8t-30 -8q-22 0 -70 13q-17 5 -31 8q-9 2 -22 5q-25 4 -37 8.5t-12 11.5q0 4 30 20q32 17 58 33.5t51 38.5q4 3 11 9q25 22 38.5 36.5t25.5 34.5t18.5 47t6.5 64z" />
    <glyph glyph-name="three" unicode="3" horiz-adv-x="511" 
d="M494 164q0 44 -11.5 77.5t-31 56.5t-43 37t-48.5 21q-19 6 -36.5 8t-37.5 2q-18 0 -18 3q0 6 13 17t42 31q34 24 52 39.5t18 25.5q0 6 -3 11t-11 5q-11 0 -28 -5q-16 -4 -26 -4q-22 0 -62 7q-40 6 -59 6q-26 0 -52 -10t-50 -27q-22 -15 -35 -28.5t-13 -25.5q0 -4 6 -7
t11 -3q7 0 17 10q14 13 31.5 20.5t52.5 7.5q11 0 28 -2t32 -5.5t25.5 -8t10.5 -9.5q0 -1 -21 -14q-15 -10 -34 -22t-37 -26q-2 -1 -13 -10q-22 -16 -32 -27t-10 -24q0 -15 17 -15q13 0 28 10q13 9 30 14t51 5q29 0 59 -10t54.5 -30t39 -51t14.5 -72q0 -29 -15 -63t-39 -58
q-20 -19 -43.5 -28.5t-45.5 -9.5q-33 0 -70 10.5t-64 31.5q-14 11 -35 38q-13 15 -20.5 22t-14.5 7q-13 0 -30 -17q-20 -20 -20 -34q0 -17 9.5 -30.5t27.5 -27.5q30 -24 74.5 -39t80.5 -15q51 0 92.5 15t83.5 43q50 34 79.5 77.5t29.5 99.5z" />
    <glyph glyph-name="four" unicode="4" horiz-adv-x="508" 
d="M323 478q0 25 -17 25q-11 0 -18 -3t-16 -11q-3 -2 -4 -3q-3 -2 -10 -7q-14 -9 -20.5 -18.5t-6.5 -29.5q0 -29 -8 -64t-22.5 -70t-33.5 -66.5t-41 -54.5q-20 -21 -64 -51q-23 -16 -34 -26t-11 -19q0 -11 22 -18.5t75 -11.5q16 -1 35 -1.5t53 -0.5h90v-24l-38 -31
q-5 -5 -5 -8q0 -6 10 -11l98 -51q11 -6 18 -6q8 0 13 6l33 37q9 10 9 18q0 11 -18 22l-34 19v33q51 5 82 14t31 26q0 6 -2.5 11.5t-9.5 5.5q-15 0 -35 -5q-17 -4 -27 -4q-26 0 -39 1v104q0 18 -7 18q-3 0 -7 -3l-59 -39q-13 -9 -13 -24v-48l-19 2q-98 11 -151 11l5 5
q46 49 75.5 83t57.5 77t45.5 91.5t17.5 99.5z" />
    <glyph glyph-name="five" unicode="5" horiz-adv-x="486" 
d="M335 420q21 0 44 3t43.5 10.5t33.5 19t13 27.5q0 6 -4.5 11t-11.5 5t-18 -6q-14 -7 -23 -7q-21 0 -57 7q-25 5 -44 7.5t-47 2.5q-8 0 -15 -4t-10 -9q-17 -25 -66 -82q-33 -40 -51 -63.5t-23 -39.5l-1 -3q-1 -4 -1 -6q0 -6 11 -6q14 0 42 14q20 11 37 17t40 6
q30 0 60 -8.5t55.5 -27.5t40.5 -48.5t15 -70.5q0 -32 -15.5 -79t-37.5 -69q-20 -19 -43.5 -28.5t-45.5 -9.5q-33 0 -68.5 10.5t-57.5 29.5q-11 10 -27 34q-8 12 -13 18t-12 6q-19 0 -38 -17l-5 -3q-8 -7 -13 -13t-5 -15q0 -15 8.5 -27t24.5 -25q26 -22 66 -34t73 -12
q50 0 94.5 18.5t89.5 48.5q43 29 69.5 90t26.5 123q0 48 -20.5 78.5t-54.5 51.5q-33 20 -67 27t-54 7q-27 0 -54 -7.5t-51 -19.5q6 9 18 25q26 37 36 48q6 7 21 9.5t34 2.5q9 0 26 -8q20 -9 32 -9z" />
    <glyph glyph-name="six" unicode="6" horiz-adv-x="470" 
d="M265 364q-40 0 -80.5 -14t-75.5 -39q9 64 52.5 98.5t100.5 34.5q11 0 33 -2q20 -1 38 -2q7 0 13 5t6 11q0 19 -16 33t-38 14q-39 0 -78.5 -17.5t-75.5 -44.5q-65 -49 -96 -117t-31 -153q0 -49 18 -90t49.5 -70.5t72.5 -45t86 -15.5q73 0 126 50q37 34 60 72t23 82
q0 105 -52.5 157.5t-133.5 52.5h-1zM221 319q40 0 66.5 -14t47.5 -41q20 -26 31.5 -58t11.5 -67q0 -73 -33 -108t-84 -35q-39 0 -70 20.5t-56 55.5q-47 67 -47 136q0 27 9 42.5t34 34.5q19 15 40 24.5t50 9.5z" />
    <glyph glyph-name="seven" unicode="7" horiz-adv-x="466" 
d="M449 483q0 7 -3 10.5t-12 3.5q-12 0 -41 -5q-22 -4 -30 -4q-24 0 -67 6q-54 7 -91 7q-32 0 -65 -17.5t-69 -45.5l-5 -4q-24 -19 -36.5 -32t-12.5 -26q0 -4 5 -7t10 -3t11.5 5t17.5 15q11 11 15 14q20 15 47.5 24.5t54.5 9.5q39 0 121 -7q41 -4 66 -6q-30 -46 -87 -133
q-107 -163 -157 -244q-7 -11 -25 -36q-15 -22 -22 -33.5t-7 -16.5q0 -11 6.5 -15t15.5 -4q8 0 18 14t25 41q14 24 19 32q50 76 141 217q81 125 128 196q4 6 12 16q10 13 13.5 19t3.5 9z" />
    <glyph glyph-name="eight" unicode="8" horiz-adv-x="453" 
d="M284 501q-25 0 -51.5 -5.5t-46.5 -16.5q-28 -16 -45 -40t-17 -49q0 -27 14 -51t38 -38q-32 -11 -61 -31.5t-51 -47.5t-34.5 -57t-12.5 -59q0 -36 15.5 -66.5t43.5 -53.5t64.5 -35t77.5 -12q78 0 143 59q33 30 54 65t21 69q0 24 -11.5 50t-31.5 51.5t-46.5 47.5t-55.5 37
q34 20 52 42.5t18 58.5q0 21 -22 49q-10 13 -27.5 23t-27.5 10zM211 274q5 0 29.5 -16t40.5 -30q35 -31 57.5 -64t22.5 -64q0 -53 -34.5 -81.5t-103.5 -28.5q-27 0 -49.5 14.5t-43.5 39.5q-19 23 -30.5 46.5t-11.5 46.5q0 25 13.5 49.5t34 44.5t41.5 31.5t34 11.5zM228 454
q23 0 42.5 -20.5t19.5 -43.5q0 -21 -11.5 -34.5t-23.5 -13.5q-4 0 -20 10t-25 20q-25 27 -25 46q0 17 10 26.5t33 9.5z" />
    <glyph glyph-name="nine" unicode="9" horiz-adv-x="493" 
d="M226 73q43 0 77.5 10t67.5 33q-24 -50 -59.5 -84t-71.5 -34q-6 0 -19 2q-14 2 -20 2q-17 0 -43 -17l-2 -1q-13 -9 -20 -16t-7 -16q0 -8 46 -8q39 0 81.5 18t77.5 44q67 50 103 119.5t36 151.5q0 39 -11.5 74t-31.5 65q-28 40 -72.5 61t-110.5 21q-37 0 -75 -16t-64 -40
q-35 -33 -61.5 -77t-26.5 -89q0 -53 17.5 -92t47 -63.5t66 -36t75.5 -11.5zM292 120q-42 0 -84.5 17t-61.5 41q-25 33 -40 63t-15 63q0 37 12 65t33 48q40 35 93 35q39 0 70 -20.5t56 -55.5q42 -60 42 -138q0 -28 -7.5 -59t-13.5 -35q-20 -12 -37.5 -18t-46.5 -6z" />
    <glyph glyph-name="colon" unicode=":" 
d="M151 0q0 8 -7 17.5t-17 16.5q-21 15 -49 15q-13 0 -34 -17q-12 -9 -19.5 -17t-7.5 -14q0 -8 4 -13t13 -12q5 -4 8 -7q16 -16 38 -16q15 0 36 13l7 5q12 6 20 13.5t8 15.5zM151 301q0 8 -7 17.5t-17 16.5q-21 15 -49 15q-13 0 -34 -17q-12 -9 -19.5 -17t-7.5 -14
q0 -8 4 -13t13 -12q5 -4 8 -7q16 -16 38 -16q15 0 36 13l7 5q12 7 20 14t8 15z" />
    <glyph glyph-name="semicolon" unicode=";" 
d="M151 -18q0 28 -22 47.5t-51 19.5q-13 0 -34 -17q-12 -9 -19.5 -17t-7.5 -14q0 -10 7.5 -16t24.5 -14q15 -7 23 -13.5t8 -16.5q0 -9 -6 -16t-17 -17q-19 -17 -19 -26q0 -5 4 -9t9 -4q8 0 16.5 6.5t22.5 19.5l7 7q24 23 39 44t15 36zM151 301q0 8 -7 17.5t-17 16.5
q-21 15 -49 15q-13 0 -34 -17q-12 -9 -19.5 -17t-7.5 -14q0 -8 4 -13t13 -12q5 -4 8 -7q16 -16 38 -16q15 0 36 13l7 5q12 7 20 14t8 15z" />
    <glyph glyph-name="question" unicode="?" horiz-adv-x="531" 
d="M317 0q0 8 -7 17.5t-17 16.5q-21 15 -49 15q-13 0 -34 -17q-12 -9 -19.5 -17t-7.5 -14q0 -8 4 -13t13 -12q5 -4 8 -7q16 -16 38 -16q15 0 36 13l7 5q12 6 20 13.5t8 15.5zM276 102v135q0 24 18.5 40t61.5 40q35 20 59.5 36.5t47.5 42t37 63t14 86.5q0 57 -11 101t-40 77
t-83 52t-138 19q-79 0 -125.5 -14.5t-67.5 -38.5t-25.5 -49.5t-4.5 -63.5q0 -27 13.5 -52t25.5 -31q39 -19 54 -19q6 0 6 4t-5 13q-9 17 -15 39t-6 63q0 34 20 65.5t46 31.5q79 0 129.5 -15t78 -41.5t38 -62.5t10.5 -83q0 -59 -18 -111.5t-55 -69.5q-9 -4 -24 -11
q-48 -21 -74 -41.5t-26 -57.5v-149q13 8 31 8q12 0 28 -6z" />
    <glyph glyph-name="A" unicode="A" horiz-adv-x="802" 
d="M-29 -186q45 0 90.5 33t84.5 88t67.5 120.5t41.5 126.5h393v-144l-39 -31q-5 -5 -5 -8q0 -5 10 -11l98 -51q11 -6 17 -6q8 0 14 6l33 37q9 10 9 18q0 12 -18 22l-33 20v548l17 11q14 9 14 17q0 10 -19 23q-11 7 -42 27q-36 21 -56 35q-74 50 -137.5 77.5t-141.5 27.5
q-60 0 -110 -14t-99 -41q-60 -32 -96.5 -75.5t-36.5 -95.5q0 -29 12 -56q5 -11 14 -19t19 -8q8 0 14 5l38 31q11 9 11 20q0 10 -11 21q-11 13 -16.5 22.5t-5.5 19.5q0 69 52 102t144 33q90 0 171 -32q-136 -83 -206.5 -203.5t-81.5 -284.5q-4 -58 -17.5 -121t-38 -119
t-61.5 -92.5t-84 -40.5q-10 -1 -21.5 -5.5t-11.5 -11.5q0 -21 24 -21zM513 692q86 -49 135 -136v-307h-383q10 86 22 144t37 111.5t70.5 100.5t118.5 87z" />
    <glyph glyph-name="B" unicode="B" horiz-adv-x="713" 
d="M207 743q0 19 -20 31l-27 16q-13 9 -26 9q-6 0 -13 -7l-55 -44q-6 -6 -6 -10q0 -11 8 -16l53 -33v-576q0 -7 2 -15q-22 -3 -44 -12t-37 -22q-25 -20 -25 -43q0 -3 6 -7.5t9 -4.5q12 0 33 8q23 9 36 9q30 0 59 -8t73 -25q45 -17 75 -25.5t61 -8.5q68 0 128 24.5t105 67
t69.5 95.5t24.5 108q0 51 -16.5 94.5t-47 75.5t-72 49.5t-90.5 17.5q49 28 78.5 64t29.5 78q0 63 -46 109q-26 26 -54.5 37t-62.5 11q-28 0 -60.5 -6.5t-62 -16.5t-52.5 -22.5t-33 -22.5v21zM207 174v505q7 10 23.5 22t39.5 23.5t47 18.5t45 7q52 0 90 -30.5t38 -88.5
q0 -35 -23.5 -72t-60.5 -60q-20 -12 -62 -25q-31 -10 -45 -18.5t-14 -26.5q0 -6 5 -12t12 -6q5 0 23 11t32 17t29 6q51 0 94.5 -19.5t77.5 -60.5q29 -35 45.5 -67t16.5 -75q0 -37 -10 -74t-30 -67.5t-50 -49.5t-69 -19q-37 0 -73 11t-88 32q-47 20 -79 30t-65 13l24 17
q27 20 27 58z" />
    <glyph glyph-name="C" unicode="C" horiz-adv-x="871" 
d="M419 753q74 0 151 -36q-16 -11 -72 -39q-30 -16 -51.5 -28t-38.5 -22l-6 -4q-20 -13 -30 -20.5t-10 -14.5q0 -9 4.5 -13.5t13.5 -8.5q15 -7 15 -16v-424q0 -58 -28 -77q-14 -10 -36 -17q-106 43 -164 134t-58 206q0 76 25.5 145t70 122t100.5 83t114 30zM483 577
q0 27 4.5 42t12.5 22q19 17 45.5 32.5t53.5 28.5q41 -24 77.5 -56.5t64.5 -69.5l7 -9q10 -14 17 -20t17 -7q4 0 13 2.5t15 5.5l33 17q11 6 11 16q0 7 -5 15.5t-12 17.5l-3 3q-20 27 -59.5 57t-91.5 56t-109.5 42t-113.5 16q-97 0 -179 -34.5t-141.5 -95.5t-91 -141.5
t-31.5 -170.5q0 -95 39 -171t109 -134q60 -50 127 -79t144 -29q116 0 212.5 45.5t162.5 130.5q10 12 22 30t12 23q0 8 -10 8q-6 0 -16 -3l-42 -13q-8 -3 -13.5 -12t-12.5 -27q-10 -25 -20 -42t-30 -28h-1q-38 -23 -76 -34t-113 -11q-72 0 -139 19q29 20 50.5 36.5t36.5 32.5
q16 18 20 36.5t4 62.5v390z" />
    <glyph glyph-name="D" unicode="D" horiz-adv-x="894" 
d="M522 -2q-59 0 -101 11t-95 33q-32 13 -43 17q35 24 61 52q15 16 18.5 34t3.5 64v372q0 27 4.5 42t12.5 22q17 15 48 36.5t57 37.5q71 -18 127 -55.5t93.5 -88t57 -109.5t19.5 -120q0 -62 -16 -124t-48.5 -113t-83 -81t-115.5 -30zM291 632l-6 -4q-20 -13 -30 -20.5
t-10 -14.5q0 -9 4.5 -12.5t14.5 -6.5q7 -3 11 -5.5t4 -8.5v-420q0 -30 -6 -43.5t-21 -23.5l-1 -1q-1 0 -2 -1q-29 10 -53 14.5t-53 4.5q-51 0 -88.5 -20t-37.5 -42q0 -9 3 -17t12 -9q12 0 29 8q19 9 34 9q20 0 37.5 -4.5t42.5 -13.5q19 -7 31 -11q62 -21 115 -33.5
t101 -12.5q93 0 176.5 33.5t146 93t97.5 135.5t35 158q0 92 -48 178.5t-132 146.5q-64 46 -150 71.5t-168 25.5q-55 0 -118 -17t-119 -49.5t-90.5 -76.5t-34.5 -95q0 -19 9 -43.5t20 -24.5q10 0 27 10q14 8 24 11q8 2 14.5 10t6.5 17q0 10 -8 31q-9 20 -9 30q0 43 24.5 72
t63.5 45.5t83 23t85 6.5q43 0 82 -6q-33 -23 -75.5 -51t-72.5 -47z" />
    <glyph glyph-name="E" unicode="E" horiz-adv-x="871" 
d="M419 753q74 0 151 -36q-16 -11 -72 -39q-30 -16 -51.5 -28t-38.5 -22l-6 -4q-20 -13 -30 -20.5t-10 -14.5q0 -9 4.5 -13.5t13.5 -8.5q15 -7 15 -16v-424q0 -58 -28 -77q-14 -10 -36 -17q-106 43 -164 134t-58 206q0 76 25.5 145t70 122t100.5 83t114 30zM483 577
q0 27 4.5 42t12.5 22q19 17 45.5 32.5t53.5 28.5q41 -24 77.5 -56.5t64.5 -69.5l7 -9q10 -14 17 -20t17 -7q4 0 13 2.5t15 5.5l33 17q11 6 11 16q0 7 -5 15.5t-12 17.5l-3 3q-20 27 -59.5 57t-91.5 56t-109.5 42t-113.5 16q-97 0 -179 -34.5t-141.5 -95.5t-91 -141.5
t-31.5 -170.5q0 -95 39 -171t109 -134q60 -50 127 -79t144 -29q116 0 212.5 45.5t162.5 130.5q10 12 22 30t12 23q0 8 -10 8q-6 0 -16 -3l-42 -13q-8 -3 -13.5 -12t-12.5 -27q-10 -25 -20 -42t-30 -28h-1q-38 -23 -76 -34t-113 -11q-72 0 -139 19q29 20 50.5 36.5t36.5 32.5
q16 18 20 36.5t4 62.5v226h118q32 0 48 19l25 32l1 2q6 8 6 12q0 11 -23 11h-175v88z" />
    <glyph glyph-name="F" unicode="F" horiz-adv-x="593" 
d="M406 662q0 14 24 31.5t71 30.5q12 3 19.5 10t16.5 19q7 7 8 9q5 6 17 16q14 12 14 16q0 9 -18 9q-13 0 -53 -8q-48 -9 -67 -9q-13 0 -41 4q-25 4 -48.5 6.5t-56.5 2.5q-53 0 -91 -12.5t-70 -37.5q-37 -29 -58.5 -72t-21.5 -95q0 -24 19 -41.5t31 -17.5q9 0 21 13
q8 9 13 12l1 1q13 8 18.5 14t5.5 15q0 6 -5 9.5t-17 9.5q-19 8 -30 18.5t-11 31.5q0 16 6.5 29.5t22.5 24.5t44.5 17t71.5 6q28 0 79 -6q44 -6 69 -7q-8 -6 -18 -12.5t-26 -16.5l-10 -6q-2 -1 -10 -6q-17 -9 -27 -16.5t-10 -17.5q0 -11 4.5 -16t13.5 -10q8 -4 11 -8v-84h-43
q-35 0 -53 -27l-15 -24q-6 -10 -6 -16q0 -13 26 -13h91v-8q-5 -4 -15 -11q-22 -15 -44.5 -32t-45.5 -35q-64 -52 -104 -101q-48 -58 -70 -125.5t-22 -122.5q0 -52 16.5 -88t39.5 -55.5t44.5 -28t30.5 -8.5q32 0 61 13t51.5 31.5t36 34.5t27.5 33v1q42 56 62 129.5t20 172.5
v200h18q21 0 40 19l29 29q10 10 10 16q0 16 -64 16h-33v144zM204 -113q-13 0 -31 7t-36.5 25.5t-31 54.5t-12.5 89q0 45 27 107t78 118q28 31 57.5 55t62.5 38v-249q0 -54 -6 -98t-19 -77.5t-35 -51.5t-54 -18z" />
    <glyph glyph-name="G" unicode="G" horiz-adv-x="860" 
d="M419 754q74 0 151 -36q-16 -11 -72 -39q-30 -16 -51.5 -28t-38.5 -22l-6 -4q-20 -13 -30 -20.5t-10 -14.5q0 -9 4.5 -13.5t13.5 -8.5q15 -7 15 -16v-424q0 -58 -28 -77q-14 -10 -36 -17q-106 43 -164 134t-58 206q0 76 25.5 145t70 122t100.5 83t114 30zM483 578
q0 27 4.5 42t12.5 22q19 17 45.5 32.5t53.5 28.5q9 -5 23.5 -15.5t48.5 -36.5l13 -10q5 -4 17 -15q21 -21 33 -22q5 0 16 3.5t15 6.5l21 16q11 8 11 16q-1 8 -9.5 17t-19.5 17q-35 27 -64 46t-64 33t-79.5 22t-100.5 8q-97 0 -179 -34.5t-141.5 -95.5t-91 -141.5
t-31.5 -170.5q0 -95 39 -171t109 -134q60 -50 127 -79t144 -29q59 0 129.5 28.5t134.5 79.5t103.5 117.5t39.5 139.5q0 23 -9 57t-30 69t-59 59t-92 24q-70 0 -104.5 -13.5t-65.5 -39.5v123zM591 457q42 0 74 -17.5t51.5 -45t29 -57.5t9.5 -56q0 -33 -6 -74.5t-29 -89.5
t-74.5 -82t-134.5 -34q-72 0 -139 19q29 20 50.5 36.5t36.5 32.5q16 18 20 36.5t4 62.5v232l2 1q21 18 43 27t63 9z" />
    <glyph glyph-name="H" unicode="H" horiz-adv-x="763" 
d="M22 5q-5 -5 -5 -8q0 -5 10 -11l98 -51q11 -6 17 -6q8 0 14 6l33 37q9 10 9 18q0 12 -18 22l-33 20v344q39 40 105.5 66.5t126.5 26.5q19 0 52.5 -8t72.5 -33t67 -76.5t28 -131.5q0 -44 -14 -81.5t-62 -87.5q-15 -16 -36.5 -30t-52.5 -32q-20 -12 -29.5 -18.5t-9.5 -9.5
q0 -8 5.5 -14t13.5 -6q14 0 45 12t46 12q21 0 60 -14q45 -15 73 -15q16 0 33 8t37 23q18 13 28 23.5t10 20.5q0 4 -6 9t-12 5q-9 0 -29 -10q-20 -11 -29 -11q-12 0 -22.5 4t-23.5 12q-16 9 -28.5 13.5t-28.5 4.5q-14 0 -19 -2q0 5 11 13q38 27 63 58.5t37 61.5t16 56t4 50
q0 83 -33.5 136t-80.5 78.5t-88 34t-65 8.5q-26 0 -60.5 -8.5t-72.5 -24.5t-72 -36t-60 -42v87q0 31 0.5 54t2 46t6 42t11.5 29q19 26 55.5 40t79.5 14q38 0 76 -17t70 -45q7 -7 13.5 -11.5t13.5 -4.5q8 0 15 7q9 9 29 21q7 4 12 12.5t5 15.5q0 6 -4 9q-49 31 -94.5 47.5
t-91.5 16.5q-65 0 -118.5 -26.5t-97.5 -65.5q-41 -35 -55 -77t-14 -126v-453z" />
    <glyph glyph-name="I" unicode="I" horiz-adv-x="621" 
d="M512 705q9 5 21 19l2 2q15 17 45 37q24 16 24 23q0 10 -5 13.5t-15 3.5q-13 0 -37 -6q-30 -7 -49 -7q-16 0 -49 5q-34 4 -50 4q-55 0 -103 -16t-82 -46q-15 -13 -30.5 -30t-28.5 -35.5t-21 -37.5t-8 -35q0 -11 5.5 -18t13.5 -7q11 0 23 4.5t24 12.5q1 1 9 6q18 11 18 21
q-1 4 -4 17q-5 22 -5 31q0 30 31.5 48t94.5 18q28 0 80 -6q41 -5 68 -6q-6 -4 -12 -10q-19 -15 -30 -22q-2 -1 -10 -6q-17 -9 -27 -16.5t-10 -17.5q0 -11 4.5 -16t13.5 -10q8 -4 11 -8v-424q0 -100 -33.5 -143t-101.5 -43q-40 0 -69.5 9t-50 23t-32 28t-25.5 34
q-20 28 -30 28q-15 0 -34 -13q-3 -3 -5 -4q-26 -18 -26 -31q0 -6 12.5 -26t37 -42.5t62.5 -38.5t87 -16q62 0 107.5 14.5t83.5 43.5q49 37 77 95.5t28 141.5v455z" />
    <glyph glyph-name="J" unicode="J" horiz-adv-x="487" 
d="M378 706q9 5 21 19l2 2q15 17 45 37q24 16 24 23q0 10 -5 13.5t-15 3.5q-13 0 -37 -6q-30 -7 -49 -7q-16 0 -49 5q-34 4 -50 4q-53 0 -99 -17.5t-81 -49.5q-31 -27 -49 -57.5t-18 -62.5q0 -17 2.5 -32t9.5 -15q12 0 31 14q7 4 9 6l6 4q13 8 19.5 14t6.5 14q-1 5 -6 19
q-7 18 -7 25q0 32 26 51.5t87 19.5q28 0 80 -6q41 -5 68 -6q-6 -4 -12 -10q-19 -15 -30 -22q-2 -1 -10 -6q-17 -9 -27 -16.5t-10 -17.5q0 -11 4.5 -16t13.5 -10q8 -4 11 -8v-470q0 -50 -15.5 -91.5t-41.5 -71.5t-58 -45.5t-65 -15.5q-11 0 -35 2q-27 2 -45 2q-8 0 -13.5 -6
t-12.5 -17q-4 -8 -7 -11q-4 -5 -12 -13q-13 -13 -13 -21q0 -7 11 -13.5t23 -6.5q67 0 128.5 32.5t118.5 92.5q58 60 91.5 129t33.5 160v455z" />
    <glyph glyph-name="K" unicode="K" horiz-adv-x="704" 
d="M22 2q-5 -5 -5 -8q0 -5 10 -11l98 -51q11 -6 17 -6q8 0 14 6l33 37q9 10 9 18q0 11 -18 22l-33 20v126l164 104q48 -15 80.5 -50.5t47.5 -78.5q12 -33 29 -68t38 -65t45 -49t48 -19q9 0 18 11q6 7 10 10t12 8q12 7 17 12t5 13q0 12 -5 16.5t-16 8.5q-16 6 -25 13
q-19 17 -39.5 49.5t-31.5 59.5q-10 26 -21 49.5t-27.5 50t-38.5 50.5t-50 40l208 132q0 21 -18.5 48.5t-48.5 61.5q-36 40 -75.5 61.5t-87.5 21.5q-67 0 -113 -26t-106 -79q-6 -6 -19 -17q0 67 12 105t57 67q26 17 71.5 25.5t91.5 8.5q45 0 106 -29t100 -78q5 -6 12.5 -11
t14.5 -5q6 0 11.5 1t8.5 4q5 5 22 11q11 4 15 6q2 1 3 2q14 7 14 16q0 7 -17 25q-18 19 -46.5 38.5t-64 36.5t-75.5 27t-79 10q-66 0 -116.5 -19.5t-95.5 -51.5q-5 -4 -18 -13q-28 -18 -45 -33t-33 -38.5t-25.5 -58t-9.5 -83.5v-453zM147 478l12 12q49 52 87.5 78t93.5 26
q80 0 129 -66q18 -22 29.5 -44.5t16.5 -52.5l-368 -236v283z" />
    <glyph glyph-name="L" unicode="L" horiz-adv-x="622" 
d="M202 547q0 47 4.5 80.5t19 59.5t44 41t76.5 15q33 0 68 -20t64 -52t46 -68.5t17 -67.5q0 -20 -5 -39.5t-15.5 -36.5t-28 -27.5t-40.5 -10.5q-13 0 -30.5 7t-30.5 18q-5 5 -13 14q-12 15 -20 15q-11 0 -28 -19l-2 -2q-21 -23 -21 -37q0 -5 10.5 -11t28 -12.5t35.5 -10.5
t31 -4q39 0 74 15t62 41t42 58t15 64q0 62 -20.5 107t-54.5 72.5t-75.5 40.5t-84.5 13q-65 0 -114 -24t-80 -62.5t-45.5 -84t-14.5 -88.5v-245q0 -194 -39 -254q-9 -14 -31 -40q-28 -32 -28 -44q0 -4 6 -8.5t11 -4.5q13 0 22 4t21 13q20 14 40 22t58 8q28 0 55.5 -6
t69.5 -19q43 -13 71 -19.5t58 -6.5q25 0 52.5 15t51.5 38t39 46t15 38q0 6 -4 12t-9 6q-9 0 -26 -23q-12 -16 -20 -23q-16 -15 -37 -22.5t-41 -7.5q-26 0 -51.5 6.5t-64.5 19.5t-63.5 19t-50.5 6q-16 0 -49 -10q-19 -5 -28 -7q4 14 9.5 22t14.5 18q8 9 13.5 17.5t10 23.5
t7.5 41t3 65v316z" />
    <glyph glyph-name="M" unicode="M" horiz-adv-x="1014" 
d="M628 -54q12 2 25 7q7 3 13 4t17 1q21 0 72 -14q59 -15 87 -15q17 0 39 8.5t43 21.5t34.5 28t13.5 27q0 5 -5.5 10.5t-11.5 5.5q-9 0 -33 -13q-25 -13 -34 -13q-17 0 -41 13q-23 12 -39 12q-24 0 -54 -8q3 7 17 19t28 22l1 1q47 37 80 69t59.5 72.5t42 92.5t15.5 118
q0 177 -85.5 272.5t-232.5 95.5q-58 0 -116 -27t-107 -65q-6 55 -33.5 75.5t-86.5 20.5q-62 0 -108 -24t-64 -51v32q0 19 -20 31l-27 16q-13 9 -26 9q-6 0 -13 -7l-55 -44q-6 -6 -6 -10q0 -11 8 -16l53 -33v-654l-39 -31q-5 -5 -5 -8q0 -5 10 -11l98 -51q11 -6 17 -6
q8 0 14 6l33 37q9 10 9 18q0 12 -18 22l-33 20v624q1 2 1 3q9 16 17.5 27t23.5 21t40 16t62 6q12 0 23.5 -3.5t21 -13.5t15 -29.5t5.5 -49.5v-597l-39 -31q-5 -5 -5 -8q0 -5 10 -11l98 -51q11 -6 17 -6q8 0 14 6l33 37q9 10 9 18q0 12 -18 22l-33 20v619q26 28 74.5 49
t110.5 21q122 -1 191.5 -98t69.5 -269q0 -74 -43.5 -145t-116.5 -146q-12 -12 -29 -23t-48 -27q-32 -18 -48.5 -29.5t-16.5 -22.5q0 -7 8 -11t17 -4z" />
    <glyph glyph-name="N" unicode="N" horiz-adv-x="849" 
d="M78 690v-654l-39 -31q-5 -5 -5 -8q0 -5 10 -11l98 -51q11 -6 17 -6q8 0 14 6l33 37q9 10 9 18q0 12 -18 22l-33 20v624q38 33 105.5 56t143.5 23q61 0 119.5 -26t105.5 -75t74.5 -118.5t27.5 -153.5q0 -76 -42 -153.5t-109 -146.5q-17 -18 -64 -47q-29 -19 -43.5 -31
t-14.5 -24q0 -7 6.5 -11.5t15.5 -4.5q12 2 35 9q36 11 53 11q21 0 60 -14q45 -15 73 -15q17 0 38 6.5t40.5 17t31.5 23t12 24.5q0 13 -14 13q-9 0 -28 -6q-19 -7 -28 -7q-17 0 -50 15q-32 15 -48 15q-20 0 -58 -8q6 4 12 9q10 9 13 11q43 34 78.5 70.5t63 82t43.5 101
t16 121.5q0 86 -32.5 156t-89 118t-127 72.5t-144.5 24.5q-33 0 -70.5 -8.5t-74 -21.5t-70.5 -28.5t-60 -30.5v39q0 19 -20 31l-27 16q-13 9 -26 9q-6 0 -13 -7l-55 -44q-6 -6 -6 -10q0 -11 8 -16z" />
    <glyph glyph-name="O" unicode="O" horiz-adv-x="927" 
d="M494 786q-69 0 -137 -21t-131 -59q-97 -58 -153 -148.5t-56 -209.5q0 -88 30.5 -164t86.5 -132t133.5 -86.5t168.5 -30.5q90 0 176 35.5t153.5 96t106 136.5t38.5 153q0 97 -30 176.5t-85.5 136.5t-132 87t-168.5 30zM427 731q83 0 155 -30t124.5 -83t81.5 -123t29 -147
q0 -167 -77 -256.5t-229 -89.5q-94 0 -169.5 28.5t-127.5 79.5t-78.5 119t-26.5 146q0 77 22 142.5t63.5 113.5t100.5 74t132 26z" />
    <glyph glyph-name="P" unicode="P" horiz-adv-x="853" 
d="M420 784q-46 0 -83.5 -8.5t-67 -23t-53 -31.5t-52.5 -42v62q0 19 -20 31l-27 16q-13 9 -26 9q-6 0 -13 -7l-55 -44q-6 -6 -6 -10q0 -8 8 -16l53 -50v-852q0 -26 9 -26q3 0 10 5l45 38q22 18 22 51v108q48 -28 96.5 -44.5t101.5 -16.5q90 0 176 35.5t153.5 96t106 136.5
t38.5 153q0 97 -30 176.5t-85.5 136.5t-132 87t-168.5 30zM351 710q94 0 168 -27t123.5 -76t75 -115.5t25.5 -145.5q0 -167 -77 -256.5t-229 -89.5q-65 0 -118.5 23t-105.5 63q-8 6 -15 6q-8 0 -12 -6q-12 -19 -22 -21v572q41 34 87 53.5t100 19.5z" />
    <glyph glyph-name="Q" unicode="Q" horiz-adv-x="927" 
d="M493 785q-54 0 -90 -3.5t-60.5 -10.5t-41 -16t-43.5 -26q-21 -14 -32 -20q-96 -57 -152.5 -151.5t-56.5 -214.5q0 -87 34 -160.5t94.5 -126t141.5 -81t173 -28.5q83 0 163 33q44 -71 84.5 -111t87.5 -40q26 0 52.5 14t26.5 36q0 6 -6 12t-11 6q-8 0 -18 -2q-7 -2 -11 -2
q-36 0 -63.5 34t-59.5 97q46 31 83.5 69.5t65 82.5t42 88.5t14.5 86.5q0 97 -30 177.5t-85.5 138t-132.5 88t-169 30.5zM430 184q0 -19 14 -19q4 0 14 2q11 2 15 2q26 0 51.5 -32.5t66.5 -103.5l9 -15q-44 -13 -88 -13q-94 0 -168.5 27t-124.5 76.5t-76 116t-26 144.5
q0 79 19.5 145.5t59 116t100 76.5t140.5 27h2q83 0 153 -31t120.5 -85.5t78 -125.5t27.5 -149q0 -83 -33.5 -159.5t-97.5 -123.5q-28 53 -46 75l-2 3q-39 48 -66.5 71t-65.5 23q-30 0 -53 -15.5t-23 -32.5z" />
    <glyph glyph-name="R" unicode="R" horiz-adv-x="741" 
d="M385 785q-62 0 -120.5 -25t-100.5 -74v57q0 19 -20 31l-27 16q-13 9 -26 9q-6 0 -13 -7l-55 -44q-6 -6 -6 -10q0 -11 8 -16l53 -33v-654l-39 -31q-5 -5 -5 -8q0 -5 10 -11l98 -51q11 -6 18 -6t13 6l33 37q9 10 9 18q0 12 -18 22l-33 19v65v89q39 -22 85.5 -33t107.5 -11
h11q82 -38 118 -99q25 -43 62.5 -73t81.5 -30q24 0 50.5 17.5t26.5 36.5q0 8 -9 13t-20 5q-31 0 -59 22t-51 58q-13 21 -31.5 42t-38.5 36q48 19 89 49.5t72 69t48 84t17 93.5q0 67 -22.5 125t-66 102.5t-107.5 69t-143 24.5zM364 722q56 0 104.5 -21.5t85.5 -59.5t57 -87.5
t20 -103.5q0 -53 -21.5 -101t-59 -83.5t-85 -55.5t-97.5 -20q-61 0 -116.5 10.5t-87.5 35.5v424q34 30 90.5 46t109.5 16z" />
    <glyph glyph-name="S" unicode="S" horiz-adv-x="688" 
d="M332 786q-44 0 -84 -11.5t-70.5 -33.5t-47.5 -53t-17 -67q0 -39 20 -71t54 -58t71.5 -46t98.5 -48q61 -29 98.5 -48.5t71 -45t53 -57.5t19.5 -70q-1 -44 -19.5 -83t-55.5 -66q-28 -20 -67.5 -31t-80.5 -11q-35 0 -74 14.5t-74 37.5t-63 50t-44 53q-6 10 -13.5 17t-15.5 7
q-3 0 -8 -3q-6 -4 -23 -14q-18 -11 -24 -15q-20 -13 -20 -30q0 -7 8 -21q24 -35 60.5 -62t81 -44.5t92 -26.5t93.5 -9q48 0 95 14t90 44q56 41 94 101t39 116q0 58 -26.5 104t-69.5 80.5t-90 59t-117 56.5q-92 42 -135 70.5t-43 66.5q0 43 33 70t81 27q55 0 110.5 -34
t80.5 -84q9 -17 28 -17q10 1 30 22q9 9 13 12q11 8 11 23q0 10 -7 19q-46 51 -107.5 73.5t-129.5 22.5z" />
    <glyph glyph-name="T" unicode="T" horiz-adv-x="871" 
d="M646 675q39 0 82 11t76 30q19 11 34.5 26.5t15.5 24.5q0 6 -5.5 11t-13.5 5q-5 0 -37 -9q-38 -11 -67.5 -17.5t-51.5 -6.5q-55 0 -159 19q-54 10 -88.5 14.5t-71.5 4.5q-84 0 -149.5 -20t-108.5 -52.5t-64 -70t-21 -72.5q0 -19 2 -32t8 -13h1h1l59 29q15 7 17 21v2l1 2
q0 4 -3 9q-6 9 -6 21q2 46 46.5 75t99.5 29q58 0 108 -7q-54 -43 -98 -86t-79.5 -93.5t-56 -110.5t-20.5 -128q0 -65 25 -129.5t74 -118t119.5 -85t157.5 -31.5q63 0 125.5 14.5t116.5 47t87 87.5t33 132q0 24 -4 41q-2 11 -19 11q-6 0 -10 -2l-55 -30q-7 -4 -9.5 -10
t-2.5 -13q0 -125 -57.5 -183t-171.5 -58q-62 0 -119.5 30.5t-101 81t-68 111t-24.5 116.5q0 118 49 215t159 184q25 -4 34 -5q139 -22 211 -22z" />
    <glyph glyph-name="U" unicode="U" horiz-adv-x="764" 
d="M164 73v671q0 19 -20 31l-27 16q-13 9 -26 9q-6 0 -13 -7l-55 -44q-6 -6 -6 -10q0 -11 8 -16l53 -33v-614q-9 -2 -12 -2q-22 -4 -32.5 -9.5t-10.5 -19.5q0 -9 20.5 -18.5t68.5 -26.5q13 -5 19 -7l17 -6q61 -19 100.5 -29t70.5 -10q25 0 55.5 6t63.5 19q31 12 97 46
q51 27 75 37v-20l-39 -31q-5 -5 -5 -8q0 -5 10 -11l98 -51q11 -6 17 -6q8 0 14 6l33 37q9 10 9 18q0 12 -18 22l-33 20v653l28 23q7 7 7 16q0 14 -20 26l-62 41q-13 9 -26 9q-6 0 -13 -7l-55 -44q-6 -6 -6 -10q0 -11 8 -16l53 -33v-587q-17 -9 -50 -29q-56 -33 -93.5 -50
t-74.5 -17q-48 0 -94.5 14.5t-113.5 43.5z" />
    <glyph glyph-name="V" unicode="V" horiz-adv-x="813" 
d="M795 420q0 99 -33.5 170.5t-89.5 115.5t-124 64t-139 20q-65 0 -128 -24.5t-117 -59.5v38q0 19 -20 31l-27 16q-13 9 -26 9q-6 0 -13 -7l-55 -44q-6 -6 -6 -10q0 -11 8 -16l53 -33v-589l-4 -2q-22 -11 -34 -20.5t-12 -21.5t15.5 -18t47.5 -12q38 -7 53 -13q21 -8 63 -27
q51 -23 84 -35.5t55 -12.5q12 0 39 11t62.5 30t79.5 45.5t89 57.5q80 55 129.5 144t49.5 193zM379 730q59 0 117.5 -27t106.5 -75t76 -110.5t28 -129.5q0 -57 -23.5 -124t-64.5 -120q-44 -58 -101 -96t-84 -38q-32 0 -62 10.5t-75 31.5q-40 19 -69.5 30t-63.5 17v570
q41 30 91 45.5t124 15.5z" />
    <glyph glyph-name="W" unicode="W" horiz-adv-x="1261" 
d="M850 729q58 0 113.5 -27.5t99 -75.5t68.5 -111t25 -131q0 -56 -21.5 -114.5t-62.5 -111.5q-23 -29 -54 -55.5t-62.5 -46t-57.5 -30.5t-38 -11q-32 0 -59 10t-68 31q-35 19 -61 30t-59 18q73 56 116.5 138t43.5 180q0 83 -22 146.5t-62 109.5q35 24 71.5 37.5t89.5 13.5z
M1244 421q0 99 -30.5 170.5t-82.5 115t-116.5 63t-134.5 19.5q-60 0 -119 -21t-110 -53q-49 38 -111.5 56.5t-130.5 18.5q-65 0 -128 -24.5t-117 -59.5v38q0 19 -20 31l-27 16q-13 9 -26 9q-6 0 -13 -7l-55 -44q-6 -6 -6 -10q0 -11 8 -16l53 -33v-589l-4 -2
q-22 -11 -34 -20.5t-12 -21.5t15.5 -18t47.5 -12q38 -7 53 -13q21 -8 63 -27q51 -23 84 -35.5t55 -12.5q17 0 58.5 24.5t111.5 73.5q12 -5 45 -11q39 -7 54 -13q21 -8 63 -27q51 -23 84 -35.5t55 -12.5q19 0 62 26.5t131 87.5q26 18 54 37q81 55 130.5 141.5t49.5 190.5z
M379 730q58 0 113.5 -27.5t99 -75.5t68.5 -111t25 -131q0 -56 -21.5 -114.5t-62.5 -111.5q-23 -29 -54 -55.5t-62.5 -46t-57.5 -30.5t-38 -11q-31 0 -54 9t-55 28q-31 18 -56 29t-60 17v570q41 30 91 45.5t124 15.5z" />
    <glyph glyph-name="X" unicode="X" horiz-adv-x="780" 
d="M711 750q27 0 33.5 5t6.5 18q0 14 -6.5 19t-30.5 5q-41 0 -83.5 -24.5t-85 -68t-84.5 -101t-87 -128.5l-174 238q1 1 7 5q9 7 14.5 13t5.5 11q0 9 -18.5 18.5t-40.5 17.5l-37 14q-13 5 -30 5q-3 0 -12.5 -4t-12.5 -6l-37 -24q-12 -7 -14.5 -11.5t-2.5 -11.5
q0 -11 13.5 -19.5t42.5 -21.5q23 -10 35 -17t18 -15l195 -272q-24 -40 -51 -88q-62 -108 -104 -175.5t-87.5 -125.5t-93 -92.5t-94.5 -34.5q-11 0 -33 4q-23 5 -34 5q-17 0 -33.5 -22.5t-16.5 -40.5q0 -14 7 -17.5t19 -3.5q83 0 158 36t143.5 104.5t132.5 163.5t132 223
l214 -299q-1 -1 -7 -5q-9 -7 -14.5 -12.5t-5.5 -11.5q0 -9 18.5 -18.5t40.5 -17.5l37 -14q13 -5 30 -5q3 0 12.5 4t12.5 6l37 24q12 7 14.5 11.5t2.5 11.5q0 11 -12 19.5t-37 20.5q-20 10 -30.5 16.5t-16.5 14.5l-251 341q91 168 167.5 250.5t127.5 82.5z" />
    <glyph glyph-name="Y" unicode="Y" horiz-adv-x="846" 
d="M803 741q15 0 20.5 8t5.5 21q0 15 -7.5 22.5t-30.5 7.5q-45 0 -79 -20t-59 -55t-43 -76.5t-44 -111.5q-20 -52 -31 -80q-33 -82 -90 -238q-14 -39 -23 -64l-247 544q9 8 17 17.5t8 16.5q0 9 -8.5 18.5t-22.5 18.5l-40 25q-4 3 -12.5 4t-17.5 1q-14 0 -25 -10l-35 -28
q-11 -9 -14.5 -14t-3.5 -11q0 -10 8 -16.5t24 -13.5q15 -7 24.5 -13.5t13.5 -15.5l277 -611q-26 -38 -50 -69t-51 -57.5t-57.5 -42.5t-61.5 -16q-11 0 -37 8q-26 9 -37 9q-9 0 -20.5 -7.5t-22 -19.5t-17.5 -24t-7 -20q0 -7 7 -11.5t17 -6.5t18.5 -2.5t15.5 -0.5
q108 0 195.5 62.5t152 161.5t109 201.5t99.5 252.5q27 72 43 113.5t33 74.5q37 76 69 76q8 0 21 -4q11 -4 16 -4z" />
    <glyph glyph-name="Z" unicode="Z" horiz-adv-x="692" 
d="M286 495q6 0 18 2h2h1q3 0 14 2q22 4 35 4q47 0 84 -8.5t67 -37.5q-83 -10 -169.5 -50t-159.5 -101.5t-117 -137t-44 -154.5q0 -55 14.5 -94.5t40 -63t57 -34t66.5 -10.5q91 0 178 43t155.5 115t107.5 159t39 171q0 53 -12 99.5t-39 82.5q-34 47 -87 76t-101 29h-19
l204 166q19 15 19 26q0 6 -6.5 10.5t-20.5 4.5q-20 0 -60 -31q-11 -2 -23 -2q-30 0 -91 20q-60 19 -91 19q-33 0 -73 -11.5t-78 -29.5q-31 -15 -46.5 -27t-15.5 -25q0 -7 8.5 -13t16.5 -6q10 0 23 11q8 6 14 9q15 7 35 12t36 5q26 0 44.5 -5t47.5 -16q23 -9 42 -15.5
t46 -11.5l-158 -128q-12 -10 -20.5 -21t-8.5 -19q0 -14 25 -14zM105 21q0 45 19 96.5t55 101.5t86.5 92.5t111.5 69.5l9 4q49 22 83.5 32.5t75.5 10.5q4 0 10.5 -16.5t12.5 -41.5t10.5 -50.5t4.5 -44.5q0 -29 -7.5 -68t-23 -81.5t-37.5 -83t-50 -71.5q-41 -46 -98.5 -69
t-116.5 -23q-65 0 -105 38t-40 104z" />
    <glyph glyph-name="grave" unicode="`" horiz-adv-x="156" 
d="M118 721q-10 12 -25 26t-27 23q-29 22 -45 22q-4 0 -4 -5t5 -19v-1q5 -24 21 -45q13 -16 36 -35q11 -8 14 -11q27 -23 40 -23q6 0 6 7q0 4 -2 10q-1 6 -1 9q0 19 -18 42z" />
    <glyph glyph-name="a" unicode="a" horiz-adv-x="547" 
d="M285 388q-45 0 -85 -16.5t-78 -46.5q-46 -37 -75.5 -86t-29.5 -98q0 -90 63.5 -141.5t166.5 -51.5q37 0 81.5 20t86.5 50v-36l32 -33q7 -7 13 -7q9 0 18 7l43 35q9 10 9 18t-17 21l-1 1l-11 9v341q0 18 -7 18q-3 0 -7 -3l-59 -39h-1q-1 -1 -2 -1q-4 0 -10 4
q-27 16 -57.5 25.5t-72.5 9.5zM254 325q34 0 68 -16t60 -42q3 -3 7 -3t11 4q6 3 9 3t6 -4v-195q-19 -29 -49 -47t-72 -18q-37 0 -73 14t-65.5 39.5t-46.5 58t-17 67.5q0 71 42.5 105t119.5 34z" />
    <glyph glyph-name="b" unicode="b" horiz-adv-x="494" 
d="M294 385q-39 0 -78 -19t-69 -52v467q0 18 -7 18q-3 0 -7 -3l-59 -39q-13 -9 -13 -24v-692l-38 -31q-6 -5 -6 -12q0 -11 12 -14q43 -11 77.5 -21t53.5 -16q29 -9 40 -11.5t21 -2.5q33 0 69 15.5t74 43.5q50 38 81.5 88.5t31.5 112.5q0 93 -51 142.5t-132 49.5zM253 319
q34 0 57.5 -10.5t45.5 -32.5q23 -22 36.5 -46.5t13.5 -61.5q0 -30 -10 -60.5t-27.5 -56t-38.5 -40.5t-42 -15q-18 0 -34 5t-43 16q-6 3 -10 4q-35 16 -54 29v228q41 41 106 41z" />
    <glyph glyph-name="c" unicode="c" horiz-adv-x="458" 
d="M211 339q33 0 67 -18t65 -49q12 -12 23 -12q13 0 17 6q11 19 40 36q15 9 15 19q0 4 -8 11.5t-20 14.5q-60 35 -140 35q-51 0 -97.5 -17t-81.5 -48t-54.5 -72t-19.5 -86q0 -97 55.5 -153.5t171.5 -56.5q52 0 98 19.5t90 53.5q2 2 4 3q5 5 5 8t-4 7l-9 10q-6 6 -10 6
t-12 -8q-2 -1 -5 -4q-22 -17 -47.5 -26.5t-62.5 -9.5t-73.5 14.5t-66.5 39.5t-48 58t-18 68t11.5 63.5t30.5 48.5q38 39 84 39z" />
    <glyph glyph-name="d" unicode="d" horiz-adv-x="547" 
d="M285 386q-46 0 -89 -19t-82 -52q-44 -37 -70.5 -83t-26.5 -93q0 -90 63.5 -141.5t166.5 -51.5q37 0 81.5 20t86.5 50v-36l32 -33q7 -7 13 -7q9 0 18 7l43 35q9 10 9 18t-17 21l-1 1l-11 9v745q0 18 -7 18q-3 0 -7 -3l-59 -39q-13 -9 -13 -23v-378q-44 35 -130 35z
M254 323q34 0 68 -16t60 -42q3 -3 7 -3t11 4q6 3 9 3t6 -4v-195q-19 -29 -49 -47t-72 -18q-37 0 -73 14t-65.5 39.5t-46.5 58t-17 67.5q0 71 42.5 105t119.5 34z" />
    <glyph glyph-name="e" unicode="e" horiz-adv-x="458" 
d="M243 335q30 0 50.5 -9.5t48.5 -33.5l-234 -172q-13 29 -13 57q0 35 14.5 64t38 50.5t49 32.5t46.5 11zM410 349q-60 35 -140 35q-50 0 -93.5 -20t-81.5 -54q-37 -33 -57.5 -69.5t-20.5 -79.5q0 -97 55.5 -153.5t171.5 -56.5q52 0 98 19.5t90 53.5q2 2 4 3q5 5 5 8t-4 7
l-9 10q-6 6 -10 6t-12 -8q-2 -1 -5 -4q-22 -17 -47.5 -26.5t-62.5 -9.5q-48 0 -93 21.5t-72 57.5l297 215q15 12 15 19q0 4 -8 11.5t-20 14.5z" />
    <glyph glyph-name="f" unicode="f" horiz-adv-x="297" 
d="M77 639v-255h-6q-16 0 -24 -14l-25 -43q-4 -7 -4 -12q0 -8 15 -8h44v-465q0 -18 7 -18q3 0 7 3l59 39q13 9 13 24l1 417h11q13 0 18 8l30 53q3 5 3 8q0 8 -18 8h-44l-1 310q0 17 9 27.5t21 10.5q8 0 19 -8t17 -8q7 0 12 5t12 15l6 9q3 4 9 10q12 13 12 22
q0 12 -16.5 17.5t-33.5 5.5q-23 0 -47 -15t-48 -39q-26 -26 -42 -53.5t-16 -53.5z" />
    <glyph glyph-name="g" unicode="g" horiz-adv-x="559" 
d="M285 388q-50 0 -94 -19.5t-83 -55.5q-41 -38 -66 -82.5t-25 -89.5q0 -34 12.5 -63.5t33 -52.5t44.5 -40t48 -26q-22 -15 -34.5 -34.5t-12.5 -38.5q0 -36 41 -57t103 -21q40 0 93 11.5t91 37.5q50 33 78 66t28 69q0 12 -16 30q-17 19 -25 34v318q0 18 -7 18q-3 0 -7 -3
l-59 -39h-1q-1 -1 -2 -1q-4 0 -10 4q-27 16 -57.5 25.5t-72.5 9.5zM314 -21q16 6 41 18q31 15 43 15q13 0 20 -4.5t18 -16.5v0l4 -4q10 -10 16.5 -17.5t6.5 -12.5q0 -12 -17.5 -37.5t-43.5 -41.5q-26 -15 -62 -22t-61 -7q-55 0 -81 14t-26 36q0 28 35 49q21 0 75 20
q24 8 32 11zM254 325q34 0 68 -16t60 -42q3 -3 7 -3t11 4q6 3 9 3t6 -4v-195q-16 -25 -66 -42.5t-98 -17.5q-72 0 -115.5 49.5t-43.5 124.5q0 71 42.5 105t119.5 34z" />
    <glyph glyph-name="h" unicode="h" horiz-adv-x="514" 
d="M147 35v255q59 41 131 41q43 0 62 -27.5t19 -70.5v-195l-38 -31q-5 -5 -5 -8q0 -6 10 -11l98 -51q11 -6 18 -6q8 0 13 6l33 37q9 10 9 18q0 12 -18 22l-34 19v194q0 71 -34.5 112.5t-110.5 41.5q-81 0 -153 -47v446q0 18 -7 18q-3 0 -7 -3l-59 -39q-13 -9 -13 -24v-692
l-38 -31q-5 -5 -5 -8q0 -6 10 -11l98 -51q11 -6 18 -6q8 0 13 6l33 37q9 10 9 18q0 12 -18 22z" />
    <glyph glyph-name="i" unicode="i" horiz-adv-x="216" 
d="M147 34v297q0 19 -20 31l-27 16q-13 9 -26 9q-6 0 -13 -7l-33 -34q-6 -6 -6 -10q0 -8 8 -16l31 -29v-252l-38 -31q-5 -5 -5 -8q0 -6 10 -11l98 -51q11 -6 18 -6q8 0 13 6l33 37q9 10 9 18q0 12 -18 22zM180 503q13 12 13 23q0 7 -4 12l-13 17q-6 6 -13 6q-9 0 -25 -14
l-96 -82q-16 -14 -16 -27q0 -6 7 -15l8 -8q6 -6 12 -6q13 0 28 12z" />
    <glyph glyph-name="j" unicode="j" horiz-adv-x="231" 
d="M171 331q0 19 -20 31l-27 16q-13 9 -26 9q-6 0 -13 -7l-33 -34q-6 -6 -6 -10q0 -8 8 -16l31 -29v-252q0 -57 -4.5 -93.5t-21.5 -54.5q-5 -6 -10 -11q-18 -20 -24.5 -29.5t-7.5 -19.5q0 -13 16 -15q12 0 27 12.5t33 33.5q35 41 56.5 87.5t21.5 96.5v285zM204 503
q13 12 13 23q0 7 -4 12l-13 17q-6 6 -13 6q-9 0 -25 -14l-96 -82q-16 -14 -16 -27q0 -6 7 -15l8 -8q6 -6 12 -6q13 0 28 12z" />
    <glyph glyph-name="k" unicode="k" horiz-adv-x="470" 
d="M369 -57q29 0 56.5 20t27.5 38q0 11 -3.5 14t-15.5 3q-7 0 -17 -5q-12 -7 -23 -7q-24 0 -40 16.5t-39 54.5q0 1 -1 2q-2 3 -3 5q54 19 91 56.5t37 83.5q0 75 -44 118t-111 43q-36 0 -72.5 -15t-64.5 -40v450q0 18 -7 18q-3 0 -7 -3l-59 -39q-13 -9 -13 -24v-692l-38 -31
q-5 -5 -5 -8q0 -6 10 -11l98 -51q11 -6 18 -6q8 0 13 6l33 37q9 10 9 18q0 12 -18 22l-34 19v58q20 -20 77 -23q16 -31 49 -73q21 -27 43.5 -40.5t52.5 -13.5zM252 332q19 0 38 -8t35.5 -23t26 -34t9.5 -41q0 -47 -34 -83.5t-87 -36.5q-37 0 -59.5 6.5t-33.5 18.5v154
q11 23 36.5 35t68.5 12z" />
    <glyph glyph-name="l" unicode="l" horiz-adv-x="216" 
d="M147 36v175v570q0 18 -7 18q-3 0 -7 -3l-59 -39q-13 -9 -13 -24v-525v-167l-38 -31q-5 -5 -5 -8q0 -6 10 -11l98 -51q11 -6 18 -6q8 0 13 6l33 37q9 10 9 18q0 12 -18 22z" />
    <glyph glyph-name="m" unicode="m" horiz-adv-x="700" 
d="M147 37v252q26 17 50 27t45 10q41 0 51 -21t10 -69v-195l-38 -31q-5 -5 -5 -8q0 -6 10 -11l98 -51q11 -6 18 -6q8 0 13 6l33 37q9 10 9 18q0 12 -18 22l-34 19v194q0 23 -2 57q26 17 50.5 27.5t46.5 10.5q41 0 51 -21t10 -69v-195l-38 -31q-5 -5 -5 -8q0 -6 10 -11
l98 -51q11 -6 18 -6q8 0 13 6l33 37q9 10 9 18q0 12 -18 22l-34 19v194q0 42 -2 66.5t-12 45t-32 31.5t-61 11q-36 0 -69.5 -16t-73.5 -44q-9 30 -31.5 45.5t-67.5 15.5q-34 0 -66.5 -14.5t-68.5 -39.5v4q0 19 -20 31l-27 16q-13 9 -26 9q-6 0 -13 -7l-33 -34q-6 -6 -6 -10
q0 -8 8 -16l31 -29v-252l-38 -31q-5 -5 -5 -8q0 -6 10 -11l98 -51q11 -6 18 -6q8 0 13 6l33 37q9 10 9 18q0 12 -18 22z" />
    <glyph glyph-name="n" unicode="n" horiz-adv-x="505" 
d="M436 33v194q0 71 -34.5 112.5t-110.5 41.5t-145 -41q-3 15 -19 24l-27 16q-13 9 -26 9q-6 0 -13 -7l-33 -34q-6 -6 -6 -10q0 -8 8 -16l31 -29v-252l-38 -31q-5 -5 -5 -8q0 -6 10 -11l98 -51q11 -6 18 -6q8 0 13 6l33 37q9 10 9 18q0 12 -18 22l-34 19v260q54 35 122 35
q43 0 62 -27.5t19 -70.5v-195l-38 -31q-5 -5 -5 -8q0 -6 10 -11l98 -51q11 -6 18 -6q8 0 13 6l33 37q9 10 9 18q0 12 -18 22z" />
    <glyph glyph-name="o" unicode="o" horiz-adv-x="541" 
d="M270 384q-51 0 -97.5 -17t-81.5 -48t-54.5 -72t-19.5 -86q0 -96 67.5 -160t184.5 -64q52 0 98.5 17.5t81.5 48.5t55 72t20 86q0 96 -68 159.5t-186 63.5zM247 335q36 0 72 -18t66 -49t47 -68t17 -72q0 -62 -37.5 -103.5t-108.5 -41.5q-36 0 -73 15.5t-67 43t-48 62
t-18 69.5q0 75 38.5 118.5t111.5 43.5z" />
    <glyph glyph-name="p" unicode="p" horiz-adv-x="497" 
d="M285 387q-26 0 -54 -8t-60 -21l-7 -3q-16 -6 -24 -10q-5 11 -17 19l-27 16q-13 9 -26 9q-6 0 -13 -7l-33 -34q-6 -6 -6 -10q0 -8 8 -16l31 -29v-443q0 -43 18 -43q11 0 26 8l25 16q17 10 17 31v87q38 -9 82 -9q52 0 98.5 17.5t81.5 48.5t55 72t20 86q0 46 -15 86.5
t-41.5 71t-62.5 48t-76 17.5zM251 328q27 -1 54.5 -14t50 -36.5t36 -54.5t13.5 -66q0 -69 -41 -117q-20 -24 -42.5 -39t-50.5 -15q-55 0 -96 29q-20 14 -32 36v244q59 33 108 33z" />
    <glyph glyph-name="q" unicode="q" horiz-adv-x="518" 
d="M285 382q-45 0 -85 -16.5t-78 -46.5q-46 -37 -75.5 -86t-29.5 -98q0 -90 63.5 -141.5t166.5 -51.5q37 0 81.5 20t86.5 50v-163q0 -22 2.5 -32.5t10.5 -10.5q7 0 20 9l31 21q22 15 22 52v480q0 18 -7 18q-3 0 -7 -3l-59 -39h-1q-1 -1 -2 -1q-4 0 -10 4q-27 16 -57.5 25.5
t-72.5 9.5zM254 319q34 0 68 -16t60 -42q3 -3 7 -3t11 4q6 3 9 3t6 -4v-195q-19 -29 -49 -47t-72 -18q-37 0 -73 14t-65.5 39.5t-46.5 58t-17 67.5q0 71 42.5 105t119.5 34z" />
    <glyph glyph-name="r" unicode="r" horiz-adv-x="322" 
d="M147 35v257q21 16 40 16q11 0 18.5 -5t16.5 -16q14 -16 24 -16t26 13q4 4 8 7q3 2 7 4q9 5 13.5 10t4.5 15q0 16 -20 34q-11 10 -23.5 17.5t-23.5 7.5q-23 0 -41.5 -10t-43.5 -31l-6 -5q0 18 -20 30l-27 16q-13 9 -26 9q-6 0 -13 -7l-33 -34q-6 -6 -6 -10q0 -8 8 -16
l31 -29v-252l-38 -31q-5 -5 -5 -8q0 -6 10 -11l98 -51q11 -6 18 -6q8 0 13 6l33 37q9 10 9 18q0 12 -18 22z" />
    <glyph glyph-name="s" unicode="s" horiz-adv-x="403" 
d="M386 71q0 37 -15.5 64.5t-41 47.5t-51.5 32t-69 29q-49 19 -72 33t-23 34q0 19 18 27.5t39 8.5q25 0 41.5 -12.5t33.5 -33.5q21 -25 31 -25q12 0 30 8l8 4l3 1q16 7 25 13.5t9 16.5q0 13 -15 25t-39 21t-50 14t-46 5q-159 0 -159 -92q0 -46 26.5 -69.5t81.5 -47.5
q12 -5 37 -15q70 -28 104.5 -50.5t34.5 -55.5q0 -22 -22 -42.5t-45 -20.5q-53 0 -85.5 15t-59.5 38q-16 14 -21 14q-13 0 -31 -7l-4 -2h-1q-19 -8 -30 -15.5t-11 -17.5q0 -14 17 -27.5t43 -24.5t54 -17.5t51 -6.5q33 0 68.5 8t66.5 24t50 41t19 58z" />
    <glyph glyph-name="t" unicode="t" horiz-adv-x="244" 
d="M147 35v275h12q18 0 29.5 7.5t21.5 20.5q2 2 4 5q13 18 13 28q0 6 -7 10t-16 4h-57v108q0 7 -4 14t-8 7q-5 0 -10.5 -11t-16.5 -38q-5 -13 -7 -18q-9 -22 -17 -35t-23 -30q-16 -18 -30 -35.5t-14 -21.5q0 -8 4.5 -12t10.5 -4h29v-269l-38 -31q-5 -5 -5 -8q0 -6 10 -11
l98 -51q11 -6 18 -6q8 0 13 6l33 37q9 10 9 18q0 12 -18 22z" />
    <glyph glyph-name="u" unicode="u" horiz-adv-x="494" 
d="M24 8q0 -8 11 -13t36 -11l28 -8q10 -3 30 -11q47 -19 72 -19q17 0 40.5 9.5t62.5 29.5q25 12 35 17v-2q0 -8 8.5 -20.5t15.5 -16.5l41 -23q11 -6 18 -6q8 0 13 6l33 37q9 10 9 18q0 12 -18 22l-34 19v258l17 22q5 7 5 14q0 6 -10 13.5t-25 16.5l-7 4l-27 16q-13 9 -26 9
q-6 0 -13 -7l-33 -34q-6 -6 -6 -10q0 -8 8 -16l31 -29v-256q-41 -27 -92 -27q-22 0 -41 6.5t-45 19.5q-11 5 -18 8v289q0 19 -20 31l-27 16q-13 9 -26 9q-6 0 -13 -7l-33 -34q-6 -6 -6 -10q0 -8 8 -16l31 -29v-252q-13 -7 -23 -16.5t-10 -16.5z" />
    <glyph glyph-name="v" unicode="v" horiz-adv-x="489" 
d="M281 384q-29 0 -51 -7t-52 -22q-23 -12 -36 -17q-4 17 -19 25l-27 16q-13 9 -26 9q-6 0 -13 -7l-33 -34q-6 -6 -6 -10q0 -8 8 -16l31 -29v-252q-13 -7 -23 -16.5t-10 -16.5q0 -8 11 -13t36 -11l28 -8q11 -4 31 -11q31 -12 50.5 -18t36.5 -6q22 0 49 15t70 44l2 2
q65 45 99.5 95.5t34.5 112.5q0 40 -17 73t-45.5 55.5t-62 34.5t-66.5 12zM240 325q26 0 53 -12t49.5 -33.5t36 -49t13.5 -57.5q0 -39 -15 -70.5t-40 -57.5q-20 -20 -41.5 -33t-33.5 -13q-21 0 -43 8.5t-52 23.5q-16 9 -24 12v250q9 4 25 11q22 11 37.5 16t34.5 5z" />
    <glyph glyph-name="w" unicode="w" horiz-adv-x="654" 
d="M250 383q-26 0 -52 -9.5t-63 -27.5q-9 -4 -13 -6q-3 15 -19 24l-27 16q-13 9 -26 9q-6 0 -13 -7l-33 -34q-6 -6 -6 -10q0 -8 8 -16l31 -29v-252l-38 -31q-5 -5 -5 -8q0 -6 10 -11l98 -51q11 -6 18 -6q8 0 13 6l33 37q9 10 9 18q0 12 -18 22l-34 19v260l2 2q26 16 45 25
t42 9q7 0 16 -13.5t9 -28.5v-255q-13 -7 -23 -16.5t-10 -16.5q0 -11 19.5 -18t55.5 -14q20 -4 58 -14q51 -14 73 -14q16 0 32 9.5t41 29.5q24 19 37 28q62 43 89.5 88t27.5 109q0 41 -14.5 73t-40 54.5t-57 34t-64.5 11.5q-29 0 -51 -7t-52 -22q-23 -12 -36 -17
q-4 17 -19 25l-27 16q-14 9 -26 9zM420 320q26 0 52 -11t46 -31t32 -47t12 -57q0 -42 -10 -71t-32 -52l-11 -11q-17 -18 -26 -24.5t-18 -6.5q-11 0 -27.5 3.5t-40.5 10.5q-26 7 -43.5 11t-30.5 4v250q9 4 25 11q22 11 37.5 16t34.5 5z" />
    <glyph glyph-name="x" unicode="x" horiz-adv-x="378" 
d="M203 31v86h34q20 0 29 18l17 33q4 7 4 12q0 16 -34 16h-50v92q21 16 40 16q11 0 18.5 -5t16.5 -16q14 -16 24 -16t26 13q4 4 8 7q3 2 7 4q9 5 13.5 10t4.5 15q0 16 -20 34q-11 10 -23.5 17.5t-23.5 7.5q-23 0 -41.5 -10t-43.5 -31l-6 -5q0 18 -20 30l-27 16q-13 9 -26 9
q-6 0 -13 -7l-33 -34q-6 -6 -6 -10q0 -8 8 -16l31 -29v-92h-28q-26 0 -38 -19l-16 -24q-8 -11 -8 -21q2 -15 32 -15h58v-57q0 -28 -10 -76t-27 -76q-13 -22 -41 -49q-22 -22 -22 -32q0 -5 6 -10t11 -5q11 0 29 12.5t38 34t39.5 46.5t34.5 50l16 -8q11 -6 19 -6q7 0 12 6
l24 25q9 10 9 18q0 12 -18 22z" />
    <glyph glyph-name="y" unicode="y" horiz-adv-x="464" 
d="M118 -115q0 -32 41 -57.5t94 -25.5q31 0 65 14.5t63 39.5t46.5 55t17.5 58q0 15 -9 42q-11 29 -11 47v236l17 22q5 7 5 14q0 6 -10 13.5t-25 16.5l-7 4l-27 16q-13 9 -26 9q-6 0 -13 -7l-33 -34q-6 -6 -6 -10q0 -8 8 -16l31 -29v-256q-41 -27 -92 -27q-22 0 -41 6.5
t-45 19.5q-11 5 -18 8v289q0 19 -20 31l-27 16q-13 9 -26 9q-6 0 -13 -7l-33 -34q-6 -6 -6 -10q0 -8 8 -16l31 -29v-252q-13 -7 -23 -16.5t-10 -16.5q0 -8 11 -13t36 -11l28 -8q9 -3 29 -11t30 -11l-4 -5q-18 -17 -27 -30.5t-9 -33.5zM339 -5q11 0 25 -21.5t14 -39.5
q0 -38 -25.5 -55.5t-57.5 -17.5q-39 0 -64 10t-25 38q0 13 15 26t43 30q17 10 41 20t34 10z" />
    <glyph glyph-name="z" unicode="z" horiz-adv-x="382" 
d="M316 386h-147q-15 0 -32.5 -9t-35.5 -25q-16 -13 -26 -25.5t-11 -24.5q0 -17 8 -17q7 1 20 10q15 10 33 16.5t50 6.5q10 0 22.5 -2t21.5 -6q-4 -5 -14 -12t-31 -21q-34 -22 -53.5 -37t-19.5 -26q0 -7 7.5 -12t15.5 -5t30 2t30 2q23 0 39 -17l-9 -6q-28 -18 -57 -40.5
t-61.5 -58t-55.5 -82t-23 -100.5q0 -33 23 -59.5t51 -26.5q52 0 104 32t95 86q35 43 55 86.5t20 90.5q0 51 -18 81.5t-52 59.5q-15 12 -31 16t-33 5q0 9 16 21.5t47 32.5q7 5 10 7q18 11 27 20t9 20t-4.5 14t-19.5 3zM248 163q16 -1 24.5 -33t8.5 -64q0 -34 -7 -69.5
t-22 -55.5q-26 -35 -52 -55t-56 -20q-23 0 -37 20.5t-14 43.5q0 29 9.5 63.5t28.5 64.5q26 41 63.5 72.5t53.5 32.5z" />
    </font>
</defs>
</svg>
