<?xml version="1.0" standalone="no"?>
<!DOCTYPE svg PUBLIC "-//W3C//DTD SVG 1.1//EN" "http://www.w3.org/Graphics/SVG/1.1/DTD/svg11.dtd" >
<svg xmlns="http://www.w3.org/2000/svg" xmlns:xlink="http://www.w3.org/1999/xlink" version="1.1">
<metadata></metadata>
<defs>
<font id="caf__breweryregular" horiz-adv-x="1312" >
<font-face units-per-em="2048" ascent="1536" descent="-512" />
<missing-glyph horiz-adv-x="512" />
<glyph horiz-adv-x="0" />
<glyph horiz-adv-x="682" />
<glyph unicode=" "  horiz-adv-x="512" />
<glyph unicode="&#x09;" horiz-adv-x="512" />
<glyph unicode="&#xa0;" horiz-adv-x="512" />
<glyph unicode="!" horiz-adv-x="290" d="M68 1509h47h32.5t14.5 2q-2 -244 -2 -477v-208.5v-215v-208v-185.5h-64q-2 84 -4 184.5t-4 208t-5 215t-5 207.5q-6 233 -10 477zM78 106l106 5l-2 -107h-98z" />
<glyph unicode="&#x22;" horiz-adv-x="374" d="M25 1538h49h49q0 -2 -2 -53t-4 -113q-4 -72 -6 -166l-68 -6zM188 1538h50h49q0 -2 -2 -53t-4 -113q-4 -72 -7 -166l-67 -6z" />
<glyph unicode="#" horiz-adv-x="833" d="M8 583.5v14.5v12h144l22 181q-35 -2 -63.5 -2.5t-49.5 -0.5q-23 0 -43 -2q-2 23 -2 43q-2 8 -2 16.5v14.5v12h172l39 299l49 -8l50 -8l-4 -23q-5 -22 -12 -61t-15 -90t-19 -109h179l39 299l49 -8l49 -8l-4 -23q-4 -22 -11.5 -61t-15.5 -90t-18 -109q59 0 115.5 1t99.5 1 l2 -67l-230 -8l-30 -189h135t117 2l2 -67l-267 -8q-10 -59 -18 -112.5t-14 -92.5q-8 -47 -15 -84l-67 6l37 281l-191 -7q-10 -59 -18.5 -109t-14.5 -89q-8 -45 -12 -82l-68 6l35 272q-29 -2 -52.5 -2h-39.5h-35q-2 23 -2 43q-2 8 -2 16.5zM231 610h187l24 187q-47 -2 -93 -3 t-87 -1z" />
<glyph unicode="$" horiz-adv-x="890" d="M10 283q-4 0 2 14t15.5 31.5t17.5 35t10 23.5q4 -8 23.5 -29.5t55.5 -46t88 -48t120 -32.5l-6 474q-57 20 -112.5 44.5t-98.5 57.5t-70.5 78t-31.5 108q-6 98 16 169t65 116t102.5 66.5t125.5 23.5q0 68 1 109t3 41l76 4l2 -158q55 -8 109.5 -27.5t100.5 -49.5 t79.5 -67.5t52.5 -82.5q2 -4 -13.5 -10.5t-33.5 -14.5q-23 -8 -52 -18q-33 88 -99 134t-142 56l10 -520q68 -25 132.5 -53.5t115.5 -67.5t82.5 -92t31.5 -127q0 -53 -27.5 -102.5t-74.5 -87t-109.5 -61t-134.5 -26.5h-6l4 -147q-27 2 -47 4q-18 0 -32.5 -1t-14.5 -5 q0 -2 -1 39t-1 113q-80 8 -141.5 29.5t-103.5 44t-64.5 41t-24.5 18.5zM55 387v4q-4 0 0 -4zM92 1030q-2 -45 17.5 -80t52.5 -62.5t78 -49t96 -41.5q-2 135 -3 261t-1 226q-94 -14 -165 -78.5t-75 -175.5zM428 670l8 -443q47 2 92 19.5t80 46.5t55.5 64.5t18.5 76.5 q-2 49 -22.5 85t-55.5 63.5t-81 48t-95 39.5z" />
<glyph unicode="%" horiz-adv-x="1421" d="M14 903q4 119 50.5 193.5t112 108.5t141 29t140 -45t106.5 -114t42 -178t-45 -177t-112.5 -112t-145.5 -42t-144.5 32t-108.5 110.5t-36 194.5zM92 909q-8 -84 18.5 -141t72.5 -86t101.5 -30t106.5 26t89 81t46 136q6 82 -20.5 138.5t-72.5 86t-102.5 31.5t-106.5 -23.5 t-88 -80t-44 -138.5zM342 43l328 737q143 324 325 740q23 -18 43 -31q8 -6 16.5 -12.5t14.5 -10.5q8 -6 12 -8q-2 0 -31.5 -63.5t-76.5 -166t-107.5 -233.5t-124.5 -268q-147 -322 -333 -731zM762 453q4 119 50 193.5t111.5 108t141.5 28.5t140.5 -45t106.5 -113.5 t42 -178.5q0 -104 -45 -176.5t-113 -111.5t-145.5 -42t-144 31.5t-108.5 110.5t-36 195zM840 459q-8 -84 18.5 -141.5t72.5 -86t101 -29.5t106.5 25.5t89.5 80.5t46 136q6 82 -20.5 138.5t-72.5 86t-102.5 31.5t-106.5 -23.5t-88 -79.5t-44 -138z" />
<glyph unicode="&#x26;" horiz-adv-x="1292" d="M4 461q6 123 53 211t119 141q-29 37 -51.5 93.5t-18.5 127.5q6 98 50.5 166t109 107t144 51t156.5 -2.5t144.5 -53t110.5 -100.5l-61 -49q-27 47 -77 75.5t-110.5 40t-124 3.5t-118 -36t-93 -75t-49.5 -117q-6 -49 8.5 -93t35 -75.5t38.5 -51.5l19 -19l2 -2l583 -502 q33 61 41 133q8 66 -6 119t-43 94q-41 -2 -75.5 -3t-59.5 -1q-29 -2 -51 -2q-2 23 -2 43q-2 8 -2 16.5v14.5v12h201h187t189 2l2 -67l-303 -11q47 -88 47 -200q0 -59 -15 -111.5t-42 -97.5l606 -521l-71 -63q-82 74 -177 156q-80 72 -185 163t-222 195q-66 -72 -159 -114 t-194.5 -53t-199.5 10.5t-175 76.5t-122 147.5t-39 221.5zM88 463q-12 -102 22.5 -176t98 -120t146.5 -64.5t169 -11.5t165 43t136 97q-78 68 -156.5 137.5t-154.5 136t-144.5 127t-127.5 113.5q-66 -45 -105 -117.5t-49 -164.5z" />
<glyph unicode="'" horiz-adv-x="217" d="M25 1538h49h49q0 -2 -2 -53t-4 -113q-4 -72 -6 -166l-68 -6z" />
<glyph unicode="(" horiz-adv-x="577" d="M20 750q6 174 56.5 330.5t118 277.5t140.5 198.5t126 94.5l16 -97q-59 -23 -122.5 -103.5t-118 -194t-92.5 -245.5t-42 -259q-6 -162 33 -299.5t99.5 -244t133 -177t134.5 -99.5l-21 -88q-61 18 -144 89t-155.5 188t-121 275.5t-40.5 353.5z" />
<glyph unicode=")" horiz-adv-x="567" d="M2 -68q61 29 134 99.5t133.5 177t99.5 244t32 299.5q-4 127 -41.5 259t-92 245.5t-119 194.5t-121.5 103l16 97q51 -16 125 -94t141.5 -199t117.5 -277.5t56 -330.5q8 -195 -40 -353.5t-120.5 -275.5t-155.5 -187.5t-144 -89.5z" />
<glyph unicode="*" horiz-adv-x="1064" d="M20 707v12l359 24l-262 248l61 64l277 -246l6 375h90l8 -369l242 258l65 -57l-239 -273h47t24.5 -1t23.5 -1t42 -1t81 -3t142 -4v-65l-342 -21q0 -2 12.5 -15.5t33 -33.5t47 -47t55.5 -53q68 -66 151 -146l-47 -55q-94 78 -166 137q-31 25 -60.5 49.5t-53 44t-37.5 31.5 l-15 12v-18v-48t-1 -68t-1 -77q-2 -92 -4 -210l-90 -3q0 -2 0 30v79v103.5v104.5v82v36q-47 -53 -91 -103.5t-79 -89.5q-41 -45 -76 -86q-18 18 -30 33q-10 12 -19.5 22.5t-7.5 10.5l115 135q23 25 42 49.5t35 44.5q18 23 37 43h-186q-82 0 -182 2q-2 23 -4 39q-2 6 -2.5 13 t-0.5 12z" />
<glyph unicode="+" horiz-adv-x="784" d="M0 700.5v14.5v12h311l4 326h66q2 -106 4 -180t4 -146h166t145 2l2 -67l-311 -11q4 -129 5 -201.5t3 -109.5q2 -43 2 -55l-94 -2v5v38.5t1 108.5t3 214q-66 -2 -121 -3t-96 -3q-49 -2 -90 -2q-2 23 -2 43q-2 8 -2 16.5z" />
<glyph unicode="," horiz-adv-x="354" d="M-23 -152l107 277l121 -66l-182 -239z" />
<glyph unicode="-" horiz-adv-x="659" d="M0 700.5v14.5v12h201h187t190 2l2 -67q-106 -4 -209 -7.5t-185 -7.5q-96 -4 -182 -6q-2 23 -2 43q-2 8 -2 16.5z" />
<glyph unicode="." horiz-adv-x="354" d="M43 125l121 4l-2 -127l-113 2z" />
<glyph unicode="/" horiz-adv-x="770" d="M8 43l328 737q143 324 326 740q23 -18 43 -31q8 -6 16 -12.5t14 -10.5q8 -6 13 -8q-2 0 -32 -63.5t-77 -166t-107.5 -233.5t-123.5 -268q-147 -322 -334 -731z" />
<glyph unicode="0" horiz-adv-x="1183" d="M31 772q6 199 57 343.5t129 235.5t176.5 132t198.5 34.5t195.5 -59.5t169 -149.5t116.5 -234.5t41 -314q-2 -180 -52 -319.5t-129 -237t-178.5 -148.5t-201.5 -56t-199.5 39t-171 139t-116.5 243.5t-35 351.5zM106 774q-6 -221 57.5 -371.5t163 -228.5t218.5 -83 t223 64.5t177 213t81 362.5q8 227 -55.5 380t-163.5 231.5t-219 83t-224.5 -67.5t-178.5 -217.5t-79 -366.5zM479 688l86 86l84 -86l-84 -98z" />
<glyph unicode="1" horiz-adv-x="649" d="M22.5 78.5q-2.5 13.5 0.5 13.5h227q0 35 -1 121t-1 202.5v252v268.5v253v204l-119 -129l-61 39q-2 0 25.5 31.5t60.5 70.5q37 45 88 100l80 4l26 -1417h109.5t107.5 2l2 -67q-106 -4 -202.5 -7.5t-169.5 -7.5q-86 -4 -162 -6q-4 23 -6 43q-2 16 -4.5 29.5z" />
<glyph unicode="2" horiz-adv-x="946" d="M12 6v90l684 912l2 2l14 24q13 23 25.5 58.5t15.5 82t-16 93.5q-27 66 -75 102.5t-106 50t-120.5 5t-117 -34t-94.5 -65.5t-54 -91l-72 33q27 70 83.5 124t128 85.5t150.5 40t151.5 -14t131 -78t88.5 -149.5q18 -55 15.5 -104.5t-16 -89.5t-30 -68.5t-26.5 -40.5h2 q-61 -88 -142 -196.5t-170 -224.5t-179 -233.5t-166 -226.5h141h197.5t210 1t178.5 1l2 -67q-53 -2 -116.5 -4.5t-133.5 -3.5t-139.5 -3t-134.5 -4q-154 -4 -312 -6z" />
<glyph unicode="3" horiz-adv-x="974" d="M31 27l14 75q207 -33 361.5 -6t248 86.5t122 138t-17.5 151.5t-171 125t-336 58l-6 56q147 6 245.5 45t153.5 99t70.5 133t-6 145.5t-76.5 136t-140 105.5t-197 53.5t-245 -19.5l-4 90q184 31 327.5 0t240 -101.5t143.5 -167.5t41 -197.5t-67.5 -192.5t-184.5 -154 q166 -53 245.5 -133t86 -167t-52 -169t-171 -138t-272.5 -74.5t-352 22.5z" />
<glyph unicode="4" horiz-adv-x="892" d="M10 705l641 815q2 -2 4 -2l74 4l14 -795q23 0 45.5 1t45.5 1l2 -67q-23 -2 -46.5 -2.5t-46.5 -0.5l15 -659l-49 4q-18 2 -35 1t-19 -5v53v143.5v210t-2 248.5q-94 -4 -204.5 -6t-208.5 -4l-226 -4q-2 12 -2 25q0 10 -1 20t-1 19zM102 709q29 0 94.5 3t145.5 6t163 6 t148 3v173t2 178t3 165t1 135q-31 -43 -76.5 -99t-99 -119.5t-111 -129t-108.5 -126t-94 -112t-68 -83.5z" />
<glyph unicode="5" horiz-adv-x="915" d="M10 23l10 75q156 -29 281 7t214 114t139.5 185.5t59.5 220t-27 220t-119 183.5t-216 111t-319 4l-4 362h299h126.5h128t119 1t99.5 1l2 -67l-686 -19q2 -94 3 -140t2 -63.5t1 -12.5t1 14.5t1 14.5t0 -9q199 16 336 -35t220 -144.5t111.5 -216t11 -249.5t-79.5 -244 t-164.5 -200t-241 -117.5t-308.5 4.5z" />
<glyph unicode="6" horiz-adv-x="993" d="M6 449q0 66 15.5 124t44.5 117q63 152 125.5 299.5t111.5 265.5q57 139 111 265q23 -16 43 -29q16 -10 29.5 -19.5t13.5 -13.5l-24 -53q-25 -53 -67 -141t-94.5 -204t-107.5 -241q68 41 148.5 58.5t159.5 11.5t152.5 -37t129 -86t86 -137t26.5 -189q-6 -158 -75.5 -257 t-170 -144t-215 -39t-213 59.5t-164 152.5t-65.5 237zM86 471q-10 -121 38 -204t127 -128t175 -51t182 31t147.5 115.5t71.5 203.5q8 104 -25.5 182t-93 126.5t-137 66.5t-156.5 8t-149.5 -49t-115.5 -108q-20 -51 -33 -84t-19 -53.5t-9 -33t-3 -22.5z" />
<glyph unicode="7" horiz-adv-x="903" d="M20 1493v12l793 2v-65q-154 -406 -272 -725q-51 -135 -99.5 -265t-87.5 -231.5t-62 -162.5l-22 -62l-69 47l21 59q22 60 58.5 158t84 224t96.5 257t96 257t84 224.5t59 157.5l23 60l-31 -1q-30 -1 -79.5 -3t-112 -3t-127.5 -3q-154 -6 -348 -11q-2 23 -2 43 q-2 8 -2.5 16.5t-0.5 14.5z" />
<glyph unicode="8" horiz-adv-x="1144" d="M18 555q4 115 51.5 205t106.5 155q-8 35 -12 75t-2 87q2 139 58 235.5t138 146.5t177.5 53.5t179.5 -44t142 -146.5t67 -255q2 -86 -19 -154q59 -66 107.5 -156.5t54.5 -207.5q6 -125 -36 -224.5t-116.5 -169t-171 -108.5t-198 -45t-198.5 23.5t-172 97t-118 175.5 t-39 257zM94 553q-4 -166 60.5 -270.5t164 -154.5t216 -45t217 59.5t167 155.5t66.5 247q0 94 -37 160.5t-82 119.5q-53 -90 -144 -141t-188.5 -55t-186.5 43t-138 151q-43 -53 -78 -122.5t-37 -147.5zM238 1079q-4 -129 40 -210t111.5 -119.5t146 -36.5t147.5 41t114 112.5 t45 177.5q0 133 -45 218.5t-110.5 126.5t-143.5 38.5t-145.5 -42t-112.5 -117.5t-47 -189z" />
<glyph unicode="9" horiz-adv-x="983" d="M12 1071q6 158 76 257t170 144.5t215 39t213 -59.5t163.5 -151.5t65.5 -237.5q0 -66 -15 -124.5t-44 -117.5q-66 -154 -127 -300t-111 -265q-57 -139 -110 -264q-25 14 -43 26q-16 10 -29.5 20.5t-13.5 14.5l24 53q25 54 67 142t94 203.5t108 240.5q-70 -41 -150 -58.5 t-158.5 -11t-152.5 37t-129 86t-86 137.5t-27 188zM94 1073q-10 -106 25 -183t94 -125t137 -66.5t157 -8.5t149.5 49t115.5 109q57 102 62.5 193.5t-27.5 165t-95.5 125.5t-137 79t-154.5 23t-147.5 -43t-117 -117t-61.5 -201z" />
<glyph unicode=":" horiz-adv-x="342" d="M43 227l121 4l-2 -127l-113 2zM43 739l121 4l-2 -127l-113 2z" />
<glyph unicode=";" horiz-adv-x="352" d="M-23 -49l107 276l121 -65l-182 -240zM84 739l121 4l-2 -127l-113 2z" />
<glyph unicode="&#x3c;" horiz-adv-x="1024" d="M12 702v9l38 21q38 22 99.5 58.5t140.5 84t163 96.5q193 115 440 262q14 -23 27 -41q4 -8 9 -15.5l9 -13.5q4 -8 8 -12l-133 -72q-59 -33 -135 -73.5t-156 -83.5q-188 -100 -424 -230l842 -612q-16 -20 -27 -39l-24 -41q0 -2 -38 26.5t-99.5 74.5t-140.5 106.5 t-160.5 124t-160.5 124t-140.5 106.5t-98.5 75t-37 27q0 -4 0 4t-1 17t-1 17z" />
<glyph unicode="=" horiz-adv-x="788" d="M10 600v14v13h262h231t208 2l2 -68q-106 -4 -228.5 -7t-226.5 -7q-123 -4 -244 -6q-2 23 -2 43q-2 8 -2 16zM10 825.5v14.5v12h262h231t208 2l2 -68q-106 -4 -228.5 -7t-226.5 -7q-123 -4 -244 -6q-2 23 -2 43q-2 8 -2 16.5z" />
<glyph unicode="&#x3e;" horiz-adv-x="1024" d="M14 1151q4 4 9 12q8 14 18 29q10 18 27 41q246 -147 440 -262q82 -49 161 -96.5t141 -84t100 -58.5l38 -21v-9q0 -8 -1 -17t-1 -17.5t0 -3.5q0 2 -37 -27t-98 -75t-140 -106.5t-161 -124t-161 -124t-140.5 -106.5t-99 -74.5t-37.5 -26.5q-4 4 -9 12l-9 13.5t-9 15.5 q-10 18 -25 39l842 612q-236 129 -424 230q-80 43 -156.5 84t-136 73.5t-77.5 42.5z" />
<glyph unicode="?" horiz-adv-x="983" d="M137 1391q61 61 143 91.5t169.5 29.5t170 -31.5t149.5 -87t106.5 -140.5t39.5 -190q0 -66 -16 -124t-43 -118q-6 -12 -24.5 -42.5t-45 -71.5t-58.5 -89.5t-64 -97.5q-76 -113 -170 -250l-62 58l148 221q29 43 58.5 88t56 85t47 72.5t30.5 53.5q63 117 62.5 217t-45 177 t-120 127t-160.5 63.5t-170 -11t-146 -96.5zM410 115l106 4l-2 -107h-98z" />
<glyph unicode="@" horiz-adv-x="1431" d="M23 608q8 174 68.5 300t155.5 207t214 118t241.5 32t239.5 -50.5t207 -128t143.5 -201.5t50.5 -273q-2 -115 -33.5 -208t-77.5 -160.5t-100.5 -104.5t-100.5 -36t-78.5 44t-34.5 134q-47 -59 -111 -93t-131.5 -42.5t-133 11t-116.5 67.5t-81 127t-26 190q6 162 75 254 t163 120.5t192.5 -3t165.5 -117.5v99t3 46l75 2l8 -661q0 -61 18.5 -80t46.5 -5.5t59.5 52.5t60 93t48 118.5t21.5 126.5q6 145 -39 254.5t-122.5 182.5t-180 108.5t-211 35.5t-213 -34.5t-188.5 -105.5t-137 -175t-58 -242q-6 -182 49.5 -304t148.5 -192.5t214 -94 t244 -9.5l33 -82q-152 -31 -294.5 -3t-251 114t-172 228.5t-54.5 340.5zM395 543q-8 -106 25 -173t89 -99.5t123.5 -32.5t128 30.5t104.5 90t50 145.5v74q-8 82 -48 139t-95 85.5t-117.5 28.5t-118 -31.5t-94.5 -95t-47 -161.5z" />
<glyph unicode="A" horiz-adv-x="1509" d="M12 45l22 49q21 49 57 132t83 190.5t100 224.5h-92q-4 23 -6 43q-2 16 -2 29.5t4 13.5h135q63 143 126 284.5t112 254t78.5 181.5t27.5 69l48 2l39 -78q40 -78 104.5 -205t148.5 -290t170 -331q203 -397 465 -903q-18 -18 -35 -30q-14 -12 -28.5 -21.5t-20.5 -9.5 q-2 0 -24.5 42t-59.5 113.5t-86 170t-104 210t-115.5 233.5t-118.5 240q-70 -2 -155.5 -4t-174.5 -4t-176.5 -3t-158.5 -3l-277 -661q-25 14 -43 26q-16 10 -29.5 20.5t-13.5 14.5zM410 727h598q-66 133 -124.5 252t-101.5 211q-51 106 -94 196z" />
<glyph unicode="B" horiz-adv-x="1175" d="M36 1274v96v76q1 66 3 65q57 2 99 3.5t78 1.5h71h78q238 0 386 -73q149 -73 211 -181q48 -83 47 -174q1 -27 -3 -55q-18 -122 -117 -218q94 -78 146 -167q53 -89 63 -177q3 -22 2 -43q0 -65 -24 -127q-32 -82 -101.5 -146.5t-179 -105.5t-256.5 -47q-43 -2 -124 -4 t-163 -3t-142 -2l-61 -1l-1 66q-1 67 -2 173.5t-3 242.5t-3 278.5t-2 279t-2 242.5zM117 1430l12 -703q29 -4 51.5 -7t52 -5t71.5 -2t110 2q174 4 288 61q114 58 170 140q52 76 52 163v13q-4 94 -67.5 174t-185.5 131q-117 49 -288 49h-14q-90 -2 -134.5 -4t-63.5 -4 t-27.5 -4t-26.5 -4zM131 653l10 -567q4 0 47 -2t100.5 -3t118 -1t101.5 2q203 12 322 82q118 68 155 168q17 47 17 97q0 57 -22 117q-42 114 -159 214q-72 -47 -165 -80t-212 -41q-66 -4 -110.5 -4t-78.5 2t-62.5 7t-61.5 9z" />
<glyph unicode="C" horiz-adv-x="1202" d="M16 725v14q0 218 60 369q62 156 161 250t221 131q89 27 178 27q32 0 64 -4q120 -14 226 -72t172 -152l-51 -67q-47 88 -135 140q-86 53 -192 63q-25 2 -51 2q-81 0 -165 -26q-110 -34 -199.5 -119t-147 -222t-57.5 -332q0 -180 58.5 -308t149.5 -206q91 -77 204 -105 q62 -15 123 -16q49 0 97 10q108 22 197 96t134 197l88 -65q-55 -121 -161 -200q-105 -80 -231 -110q-73 -18 -147 -17q-55 -1 -110 9q-131 22 -238.5 106.5t-177.5 234t-70 372.5z" />
<glyph unicode="D" horiz-adv-x="1228" d="M35 1257.5q0 104.5 1 169t3 64.5q97 14 207 21q72 5 162 5q48 0 102 -1q168 -4 293 -71t206 -171.5t120.5 -237.5t40.5 -272v-7q0 -135 -36 -265q-38 -134 -112 -240.5t-182.5 -174t-249.5 -75.5q-58 -3 -129 -3h-37q-94 1 -177 4t-141 7l-57 4q0 -2 -1 60.5t-2 165 t-3 235.5t-4 272.5t-3 272.5t-1 237.5zM117 1419l24 -1319q41 -6 145 -15q49 -4 112 -4q71 0 161 5q127 8 224.5 66.5t164 150.5t100.5 209q35 118 36 238v6q0 117 -32 231q-34 117 -104.5 212t-178 158.5t-255.5 76.5q-68 6 -130 7h-30q-46 0 -86 -2q-54 -3 -93.5 -8.5 t-57.5 -11.5z" />
<glyph unicode="E" horiz-adv-x="1085" d="M10 713.5q0 13.5 4 13.5h60l-4 791l931 -11l3 -67q-68 -2 -152 -3t-174 -2t-177 -1h-160h-125h-69l13 -707h138h169t174 1t156 1l2 -67l-637 -19l10 -557l829 8l3 -67l-69 -3q-69 -4 -171 -7t-222 -7t-223.5 -7t-170.5 -4l-68 -1l-4 643h-58q-4 23 -6 43q-2 16 -2 29.5z " />
<glyph unicode="F" horiz-adv-x="1085" d="M10 713.5q0 13.5 4 13.5h60l-4 791l931 -11l3 -67q-68 -2 -152 -3t-174 -2t-177 -1h-160h-125h-69l13 -707h138h168t174 1t157 1l2 -67l-639 -19l12 -635l-92 -6l-4 639h-58q-4 23 -6 43q-2 16 -2 29.5z" />
<glyph unicode="G" horiz-adv-x="1232" d="M16 725v14q0 218 60 369q63 156 161.5 250t220.5 131q89 27 178 27q32 0 64 -4q121 -13 226.5 -71.5t171.5 -152.5l-51 -67q-47 88 -134.5 140t-192.5 63q-25 2 -51 2q-81 0 -165 -26q-109 -34 -199 -119t-147.5 -222t-57.5 -332q0 -176 56.5 -304t146.5 -206t199 -107 q66 -16 129 -16q44 0 87 8q107 19 197.5 87.5t139.5 185.5q-2 72 -3 133t-3 108q-2 53 -5 99l97 4l8 -565q-6 -139 -59 -248q-23 -47 -59 -91t-88 -79t-123.5 -55.5t-166.5 -20.5q-121 0 -195.5 34t-115.5 73.5t-56.5 73.5t-15.5 38t10.5 8t24.5 9q16 6 37 10q25 -49 70 -86 q39 -33 102 -58q55 -21 135 -21q13 0 27 1q115 4 188.5 42t115.5 95.5t58.5 128t16.5 144.5v53q-76 -90 -181.5 -142.5t-219.5 -61.5q-24 -2 -47 -2q-91 0 -182 29q-114 35 -204 122.5t-147.5 229.5t-57.5 345z" />
<glyph unicode="H" horiz-adv-x="1286" d="M16 713.5q0 13.5 4 13.5h56q-2 145 -3 287.5t-1 254t1 180.5t3 69l76 4l14 -795h184.5h251.5t261 1t214 1q0 154 -1 297t-1 251.5t1 174.5t3 66l76 4l29 -1858q-27 2 -47 4q-18 0 -32.5 -1t-14.5 -5q0 -2 -1.5 85t-3.5 228.5t-3 320.5t-3 363q-84 -2 -203.5 -4t-247.5 -4 t-250 -4t-210 -4l12 -643q-27 2 -47 4q-18 0 -32.5 -1t-14.5 -5q0 -2 -1 50t-3 141.5t-3 207t-3 244.5h-51q-4 23 -7 43q-2 16 -2 29.5z" />
<glyph unicode="I" horiz-adv-x="841" d="M14 1493q106 4 234.5 6t240.5 6q131 4 265 8q0 -25 2 -43q0 -10 1 -17t1 -13v-13h-387l26 -1335h195.5t165.5 2l2 -67q-106 -4 -234.5 -7.5t-240.5 -7.5q-131 -4 -265 -6q0 23 -2 43q-2 16 -3 29.5t1 13.5h287q0 55 -2 161.5t-3 237t-3 273.5t-3 273q-1 129 -2 233v64 q0 58 1 93q-76 0 -148.5 -1t-126.5 -1z" />
<glyph unicode="J" horiz-adv-x="1009" d="M25 -111q0 4 10 8.5t24 8.5q16 6 37 10q25 -49 70 -86q39 -33 102 -58q55 -21 135 -21q13 0 27 1q115 4 188.5 42t115.5 95.5t58.5 128t16.5 144.5l8 1265q-68 0 -141.5 -1t-167.5 -1l-2 68q106 4 192 6t150 6q72 4 131 8q0 -25 2 -43q0 -10 1 -17t1 -13v-13h-88l8 -1263 q-6 -139 -59 -248q-23 -47 -58.5 -91t-88 -79t-124 -55.5t-165.5 -20.5q-121 0 -196 34t-116 74t-56 73.5t-15 37.5z" />
<glyph unicode="K" horiz-adv-x="1155" d="M25 1278.5q0 107.5 1 173.5t3 66l75 4l17 -922q31 27 86 81t125.5 123.5t149.5 149.5t157 158q182 184 393 401q16 -16 29 -26q10 -10 20.5 -18.5t10.5 -12.5q0 -2 -36 -39t-96.5 -98.5t-139.5 -141t-164 -165.5t-171 -172t-159 -160l36 -33l213 -184l187 -164l112 -96 q37 -33 73 -65t71 -60l33 -31l65 -55l90 -80l123 -107q29 -27 51.5 -45t32.5 -28q12 -8 10 -8l2 -3l-71 -63l-2 2l-11 8l-18 19l-29 24l-450 400q-82 72 -166 147.5t-168 147.5l-178 157l-66 58l-143 -144l10 -477q-27 2 -47 4q-18 0 -32.5 -1t-14.5 -5q0 -2 -1 61.5t-2 170 t-3 243.5t-4 280.5t-3 280.5t-1 244.5z" />
<glyph unicode="L" horiz-adv-x="1081" d="M27 566q0 130 1 259t1 250v216v153.5v64.5l75 4l27 -1427h96.5h145.5h174h180t166 1t131 1l2 -68q-53 -2 -124 -4t-150.5 -3t-163.5 -3t-164 -4q-188 -4 -391 -6q-2 41 -3 126t-2 197.5t-1 242.5z" />
<glyph unicode="M" horiz-adv-x="1755" d="M25 1272.5q0 107.5 1 173t3 65.5l75 5l2 -109q63 49 146 75q82 26 170 30q12 0 23 1q76 0 152 -20q87 -23 165 -72q76 51 172 74q70 17 142 17q28 0 54 -2q100 -8 194.5 -51.5t168.5 -122.5t121 -196.5t49 -277.5l8 -1200l-90 2q-2 6 -3 77v80v97q1 106 1 237.5v259.5 t-1 240.5t-3 184.5q-6 152 -45 260t-99.5 179t-136.5 105q-77 36 -157 44q-26 3 -52 2q-54 0 -107 -12q-79 -18 -142 -54q86 -78 139 -202t53 -300l8 -854l-90 2q-2 6 -3 51t-1 114v155v175v176t-2 159q-4 160 -49 273.5t-115 184.5q-72 72 -162 104q-82 29 -163 29 q-9 -1 -18 -1q-91 -4 -176 -38t-148 -96l24 -1296q-27 2 -47 4q-18 0 -32.5 -1t-14.5 -5q0 -2 -1 61.5t-2 170t-3 242.5t-4 278.5t-3 278.5t-1 243.5z" />
<glyph unicode="N" horiz-adv-x="1282" d="M25 1272.5q0 107.5 1 173t3 65.5l75 5l2 -111q78 57 190 85q91 23 187 23q23 1 45 -1q120 -6 238.5 -46.5t213.5 -120t153.5 -199.5t58.5 -284l8 -1200l-90 2q-2 6 -3 77t-1 177.5v237.5v259v240.5t-2 184.5q-4 162 -60.5 275.5t-144.5 184.5q-87 72 -197 104 q-100 29 -201 29h-19q-110 -3 -209 -39t-164 -100l24 -1294q-27 2 -47 4q-18 0 -32.5 -1t-14.5 -5q0 -2 -1 61.5t-2 170t-3 242.5t-4 278.5t-3 278.5t-1 243.5z" />
<glyph unicode="O" d="M20 770q8 199 65.5 341t144.5 233.5t197 132.5q95 35 192 35h31q112 -6 218.5 -59.5t188.5 -149t130 -232.5q46 -132 46 -299v-14q-4 -178 -59.5 -316.5t-143.5 -233.5t-199.5 -147.5t-226.5 -56.5h-20q-106 0 -204 39q-108 43 -191 137t-130 242q-40 126 -40 291 q0 28 1 57zM104 772q-1 -21 -1 -41q0 -139 36 -248q41 -125 110.5 -210t162 -130t189.5 -48h14q89 0 177 35q94 38 171 117t126.5 199.5t55.5 284.5q1 22 1 43q0 142 -35 253q-40 128 -109.5 214t-161.5 130t-190 47h-15q-91 0 -179 -36q-96 -39 -171.5 -119.5t-125 -203.5 t-55.5 -287z" />
<glyph unicode="P" horiz-adv-x="1183" d="M35 1265.5q0 106.5 1 172t3 65.5q47 2 91 5t93 5.5t107.5 4.5t134.5 4h26q201 0 337 -58q144 -62 215 -158t73 -210v-6q0 -110 -62 -210q-64 -102 -192.5 -174.5t-316.5 -87.5q-74 -6 -142 -6q-51 0 -100 4q-113 8 -172 17l12 -639q-27 2 -47 4q-18 0 -32.5 -1t-14.5 -5 q0 -2 -1 61.5t-2 169t-3 241.5t-4 278.5t-3 279.5t-1 243.5zM117 1432l12 -725q51 -8 151 -12q53 -2 115 -3q56 0 119 2q174 4 289 63.5t170 144.5q51 79 51 169v13q-4 98 -67.5 181t-185.5 136q-118 51 -289 51h-13q-90 -2 -149.5 -4t-99.5 -5t-63.5 -6t-39.5 -5z" />
<glyph unicode="Q" d="M20 770q8 199 65.5 341t144.5 233.5t197 132.5q95 35 192 35h31q112 -7 218.5 -60t188.5 -148.5t130 -232.5q46 -132 46 -299v-14q-4 -166 -51 -296t-125 -224.5t-177.5 -150.5t-205.5 -75q12 -55 29.5 -103t44 -83t62.5 -56.5t83 -23.5h6q53 0 82 35q31 37 44 81t16 82 t8 38h15t28 2q16 2 38 4q1 -18 1 -34q0 -63 -17 -116q-18 -57 -66.5 -108.5t-144.5 -63.5q-22 -3 -42 -3q-48 0 -86 17q-54 23 -93 70t-62.5 112.5t-35.5 141.5q-113 0 -217.5 45t-184.5 139.5t-125 239.5q-38 123 -38 284q0 28 1 58zM104 772q-1 -22 -1 -43q0 -134 33 -239 q38 -121 103.5 -205t152.5 -132.5t179 -56.5q-6 68 -9 138.5t-3 137t1 127t1 107.5q2 -4 17.5 -4t33.5 2q23 2 47 4q-4 -43 -8 -103.5t-5 -128.5v-45q0 -46 1 -93q2 -72 12 -142q90 8 175.5 52.5t152 123t109.5 193.5t49 266q1 22 1 43q0 142 -35 253q-40 128 -109.5 214 t-161.5 130t-190 47h-15q-91 0 -179 -36q-96 -39 -171.5 -119.5t-125 -203.5t-55.5 -287z" />
<glyph unicode="R" horiz-adv-x="1187" d="M35 1265.5q0 106.5 1 172t3 65.5q47 2 91 5t93 5.5t107.5 4.5t134.5 4h27q191 0 321 -52q139 -56 214 -146t86 -198q2 -20 2 -38q0 -88 -41 -170q-50 -100 -157.5 -178t-271.5 -109q88 -174 173 -338t153 -293q80 -152 149 -289q-18 -18 -35 -30q-14 -12 -28.5 -21.5 t-20.5 -9.5q-2 0 -23.5 39t-56 108.5t-82 161.5t-100.5 200.5t-110.5 225.5t-114.5 233h-4q-74 -6 -142 -6q-51 0 -100 4q-113 8 -172 17l12 -639q-27 2 -47 4q-18 0 -32.5 -1t-14.5 -5q0 -2 -1 61.5t-2 169t-3 241.5t-4 278.5t-3 279.5t-1 243.5zM117 1432l12 -725 q51 -8 151 -12q53 -2 115 -3q56 0 119 2q174 4 289 63.5t170 144.5q51 79 51 169v13q-4 98 -67.5 181t-185.5 136q-118 51 -289 51h-13q-90 -2 -149.5 -4t-99.5 -5t-63.5 -6t-39.5 -5z" />
<glyph unicode="S" horiz-adv-x="1150" d="M18 172l37 113q31 -23 107 -61t172 -72q96 -32 202 -52q57 -11 109 -11q45 -1 86 7q90 16 152.5 78t74.5 188q1 14 1 27q-1 63 -31 103q-38 50 -104 78t-153 44.5t-177.5 33t-178.5 39t-155 64.5q-66 41 -105 109q-33 57 -33 143q0 15 1 31q6 123 53 214t121.5 152.5 t170.5 89.5q83 24 173 24h29q106 -4 213.5 -43t205.5 -111l-49 -86q-74 72 -165 107.5t-183 40.5q-16 1 -31 1q-76 -1 -149 -21q-88 -24 -157 -74t-111 -124t-42 -166t41 -146t108.5 -86t155 -47.5t178.5 -29.5t177 -34.5t152.5 -60.5t105.5 -106q35 -60 35 -156v-20 q-4 -106 -43 -176t-102 -108q-62 -38 -143 -52q-62 -10 -129 -11q-20 0 -39 1q-87 4 -175 22.5t-167 43t-141.5 51.5t-97.5 49z" />
<glyph unicode="T" horiz-adv-x="1159" d="M14 1493q53 2 127 3t159 3t176 3t177 3q203 4 428 8q0 -25 2 -43q0 -10 1 -17t1 -13v-13h-387l29 -1425h-47q-10 0 -18.5 -1t-14.5 -1h-14l-1 88t-3 226.5t-4 306t-4.5 326.5t-2.5 289v191q-188 0 -347.5 -1t-254.5 -1z" />
<glyph unicode="U" horiz-adv-x="1282" d="M16 1509l90 -2q2 -6 3.5 -51t1.5 -113.5v-155.5v-177v-178.5t2 -157.5q2 -162 58 -274.5t143 -184.5q87 -71 197 -103q103 -30 206 -30h13q108 2 207 36t167 95l-21 1300q25 -4 47 -4q16 -2 32 0t16 7q0 2 1 -76t2 -207t3 -296t3 -340t3 -340t2 -297t-1 -210t-3 -80 l-76 -4l-6 438q-80 -56 -190 -82q-90 -22 -187 -21q-22 0 -44 1q-120 6 -238.5 47t-212 120t-151.5 198.5t-58 283.5z" />
<glyph unicode="V" horiz-adv-x="1710" d="M90 1450q23 18 41 31q17 10 29 19l14 11q3 0 32 -56q30 -58 77 -156.5t107.5 -225.5t121.5 -258q145 -309 330 -706l598 1404q23 -16 43 -28q16 -10 29.5 -19.5t13.5 -13.5q0 -2 -29 -65.5t-75 -166t-104 -233.5t-119.5 -268t-120 -267t-103.5 -232.5t-73 -165t-25 -62.5 q-4 2 -26 5t-24 -1q-2 4 -34.5 68.5t-85 168t-119 233.5t-133.5 265q-162 317 -365 719zM827 -4l2 -2z" />
<glyph unicode="W" horiz-adv-x="1912" d="M4 1454l41 33q16 12 29.5 21.5t13.5 7.5l28 -62q29 -61 75.5 -159.5t106.5 -225.5t122 -258q145 -309 332 -702l477 1116q23 -16 43 -29q16 -10 29.5 -20.5t13.5 -12.5t-26.5 -60.5t-68.5 -150.5t-95.5 -207.5t-106.5 -232.5q37 -84 70.5 -156.5t58.5 -128.5 q29 -66 55 -118l602 1402q23 -16 43 -28q16 -10 29.5 -19.5t13.5 -13.5q0 -2 -28.5 -65.5t-74.5 -166t-105.5 -233.5t-121 -267t-121 -266t-104.5 -232.5t-72.5 -165t-25.5 -62.5q-4 2 -25.5 3t-21.5 -1t-17.5 30.5t-46 91t-68.5 136.5t-83 164q-39 -86 -74 -163 t-61.5 -135.5t-41 -92t-12.5 -33.5q-2 0 -9 1t-16 2t-15.5 1t-6.5 -2t-30.5 59.5t-82 163.5t-117 233.5t-134.5 268.5q-162 324 -371 735z" />
<glyph unicode="X" horiz-adv-x="1333" d="M4 1448q14 16 29 31q12 10 23.5 20t19.5 10q2 0 55 -64.5t139 -170t193.5 -240.5t220.5 -274q92 141 181 276t161 242q82 125 156 235q23 -16 43 -28q16 -10 29.5 -19.5t13.5 -13.5q0 -2 -46 -68.5t-120 -174t-168 -244t-193 -277.5q102 -129 197.5 -247.5t168.5 -211 t116 -146.5l43 -54l-58 -35q-4 -2 -48 48t-116.5 135t-165 196.5t-192.5 234.5q-84 -121 -160.5 -232.5t-137 -196.5t-96.5 -136t-38 -51l-66 47q2 0 40 52t99.5 141.5t139.5 205t162 240.5q-117 141 -228.5 278.5t-199.5 247.5q-102 127 -197 244z" />
<glyph unicode="Y" horiz-adv-x="1462" d="M8 1454q18 16 35 29q14 10 25.5 20t13.5 13l22 -48q23 -47 61 -127.5t87 -187t103.5 -224.5t110.5 -239t107.5 -232.5t93.5 -204.5t70 -153q45 98 95.5 213t101.5 233t103.5 236.5t99.5 227.5q111 254 223 510q23 -16 43 -29q16 -10 29.5 -19.5t13.5 -13.5 q0 -2 -35 -78.5t-92 -202.5t-131 -287t-150.5 -329t-150.5 -328.5t-132.5 -286.5t-95 -203t-38.5 -77l-66 47q4 0 44 84t101 219q-23 45 -64.5 131t-94 196t-112.5 236t-120 248q-139 291 -301 627z" />
<glyph unicode="Z" horiz-adv-x="1214" d="M25 45v43q2 0 45 57.5t112.5 152.5t158.5 215t181 247q217 295 490 672h-43q-43 0 -112 -1t-157 -1h-180h-491q-2 25 -2 43q0 16 -1 28t-1 10h540h197.5t174.5 1t124 1h49v-53v-51l-39 -53t-103.5 -141.5t-147.5 -201t-172 -232t-175 -236.5t-156.5 -212t-118.5 -161 t-61 -82q0 -2 49.5 -3t164 -2t304 -1t469.5 2l2 -68q-53 -2 -127.5 -3t-162.5 -3t-181.5 -3t-183.5 -3q-211 -4 -444 -6q-2 25 -2 45z" />
<glyph unicode="[" horiz-adv-x="366" d="M27 499.5q0 157.5 1 316.5t1 307.5t1 264t1 188.5v79l276 2l2 -68q-2 0 -33.5 -4t-69.5 -7t-69 -5l-31 -2l5 -1665q55 4 98 10q37 4 67.5 7t30.5 1l2 -88q0 -2 -43 -1t-96 1h-137q-2 41 -3 139.5t-2 232.5t-1 291.5z" />
<glyph unicode="\" horiz-adv-x="770" d="M10 1458q-2 0 12.5 9.5t30.5 21.5q20 12 43 31q182 -416 326 -740q61 -139 119.5 -271t104.5 -235.5t75 -167.5l29 -63l-66 -47q-186 410 -334 731q-63 137 -123.5 268t-108.5 233.5t-78 165.5z" />
<glyph unicode="]" horiz-adv-x="366" d="M12 -164l2 88q0 2 31 -1t68 -7q43 -6 98 -10l4 1665l-31 2q-30 2 -68 5t-70 7t-34 4l2 68l277 -2v-79t1 -188.5t1 -264t1 -307.5t1 -316.5t-1 -291.5t-2 -232.5t-3 -139.5h-139q-53 0 -95.5 -1t-42.5 1z" />
<glyph unicode="^" horiz-adv-x="765" d="M8 989l24 39q25 39 62 97.5t79 127t78 127t60.5 97.5t24.5 36h22q10 0 16.5 1.5t8.5 1.5l23 -39q22 -39 58 -97.5t77 -126t76.5 -126t58.5 -98.5l24 -40l-104 -45q-18 37 -39 76q-16 35 -37.5 77t-44.5 87l-119 237q-66 -129 -118 -231q-23 -45 -44.5 -86t-37.5 -74 q-20 -37 -39 -74z" />
<glyph unicode="_" horiz-adv-x="999" d="M0 47v14v13h365h150.5h149t135 1t105.5 1l2 -68q-53 -2 -119.5 -4t-140.5 -3t-149.5 -3t-147.5 -4q-168 -4 -346 -6q-2 23 -2 43q-2 8 -2 16z" />
<glyph unicode="`" horiz-adv-x="509" d="M18 1845l58 92l16 -12q17 -12 43.5 -32.5t60 -45t68.5 -51.5l189 -139l-43 -55z" />
<glyph unicode="a" horiz-adv-x="1103" d="M2 629q6 174 60.5 297t136.5 194.5t182 95.5q54 13 109 14q44 0 90 -10q100 -20 190 -83.5t150 -165.5v195.5t4 78.5l75 4l29 -1255q-27 2 -47 4q-18 0 -32.5 -1t-14.5 -5q0 -2 0 19.5t-1 61.5t-2 95t-3 121q-61 -109 -156 -175q-94 -64 -200 -86q-50 -10 -100 -11 q-56 1 -110 13q-104 24 -187 97.5t-132 198.5q-42 107 -42 254q0 24 1 49zM86 631q-3 -37 -3 -72q0 -130 42 -221q53 -115 143 -171q88 -55 196 -55h4q110 1 208 54t167.5 156.5t80.5 252.5q0 31 -1 61t-1 60q-14 141 -78 238.5t-152 147.5q-85 49 -183 50h-5 q-100 -2 -188.5 -56t-152 -164.5t-77.5 -280.5z" />
<glyph unicode="b" horiz-adv-x="1136" d="M12 1272.5q0 107.5 1 173t3 65.5l76 5l10 -580q55 127 147.5 197.5t196.5 88.5q39 7 78 8q66 0 134 -20q106 -32 192 -110t140 -200t54 -284q0 -154 -52 -270.5t-136 -192t-188 -110.5q-80 -27 -159 -27l-47 2q-104 10 -196 66.5t-151 161.5l6 -252q-27 2 -47 4 q-18 0 -32.5 -1t-14.5 -5q0 -2 -1 61.5t-2 170t-3.5 243.5t-4.5 280.5t-3 280.5t-1 244.5zM106 692l7 -280q27 -123 95 -201q68 -79 156 -109q59 -20 122 -20q31 0 62 5q95 15 178 76.5t142.5 169t71.5 261.5q3 37 3 72q0 122 -38 214q-49 118 -133 184t-188 78q-21 2 -42 2 q-83 0 -161 -37q-98 -46 -174 -148.5t-101 -266.5z" />
<glyph unicode="c" horiz-adv-x="1099" d="M16 623q6 170 59.5 290.5t133.5 193.5t179 99q62 17 125 17q37 1 73 -5q100 -16 191 -73.5t157 -151.5l-51 -67q-59 82 -137 132t-161 64q-33 6 -67 6q-49 0 -97 -12q-81 -22 -148.5 -83.5t-113.5 -163t-59 -244.5q-3 -40 -3 -76q0 -113 32 -197q43 -110 118 -174 t170 -80q35 -6 69 -6q60 0 119 18q93 28 172 100.5t122 184.5l88 -65q-55 -121 -151 -197q-96 -75 -206 -105q-65 -17 -131 -18q-45 0 -91 8q-112 20 -202 93t-144 200q-48 111 -47 266q0 22 1 46z" />
<glyph unicode="d" horiz-adv-x="1122" d="M16 623q6 176 60.5 297.5t136.5 193.5q81 72 183 96q54 13 108 12q47 0 93 -10q99 -20 189.5 -83.5t149.5 -167.5q-2 111 -2 210v173.5t1 117.5t3 43l76 4l28 -1521q-27 2 -47 4q-18 0 -32.5 -1t-14.5 -5q0 -2 -1 81t-3 216q-61 -109 -156 -175q-94 -64 -200 -86 q-50 -10 -100 -11l-110 13q-106 24 -189 97.5t-132 198.5q-42 107 -42 254q0 24 1 49zM100 625q-3 -38 -3 -74q0 -132 41 -227q52 -121 140 -184q90 -62 198 -65h11q102 0 195 52q98 55 170 170t88 289q-2 39 -2 75.5v75.5q-16 137 -80 229q-64 91 -154 134q-76 37 -161 37 q-15 1 -29 -1q-100 -8 -187 -66t-151 -168.5t-76 -276.5z" />
<glyph unicode="e" horiz-adv-x="1150" d="M16 623q6 170 59.5 290.5t133.5 193.5t179 99q62 17 125 17q37 1 73 -5q100 -16 191 -73.5t157 -151.5q20 -29 39.5 -72.5t35 -95t24.5 -103.5t9 -99l-944 -27v-12q0 -132 44 -230q46 -102 121 -166t166 -84q42 -10 85 -9q48 1 96 13q90 24 167 95t122 192l88 -65 q-55 -121 -151 -197q-96 -75 -206 -105q-65 -17 -131 -18q-45 0 -91 8q-112 20 -202 93t-144 200q-48 111 -47 266q0 22 1 46zM104 682h81h163h200.5h196t146.5 1t55 3q-4 61 -22.5 129t-40.5 111q-45 84 -116 136t-151 68q-38 8 -77 8q-43 0 -88 -10q-84 -18 -156 -73.5 t-123 -148.5t-68 -224z" />
<glyph unicode="f" horiz-adv-x="776" d="M0 700.5v14.5v12h369q0 51 -1 81t-1 28t-5 45q-2 26 -2 61q0 27 2 60q3 73 17 160t49 163t96.5 129t157.5 57l25 -79q-94 -8 -147.5 -63.5t-80 -137.5t-34 -179.5t-7.5 -189.5q0 -18 1 -55t3 -80h137.5t120.5 2l2 -67q-59 -2 -124.5 -3.5t-131.5 -5.5q4 -98 10.5 -209.5 t12.5 -210.5q8 -113 14 -225q-25 0 -47 2q-18 0 -33.5 1t-17.5 -3q0 2 -2 68.5t-4 164t-4 209t-4 201.5q-74 -4 -140.5 -5t-117.5 -3q-59 -2 -109 -2q-2 23 -2 43q-2 8 -2 16.5z" />
<glyph unicode="g" horiz-adv-x="1120" d="M14 631q6 176 60.5 298t136.5 193.5t183 95.5q55 12 108 12q47 0 93 -10q99 -20 189 -83.5t150 -167.5q0 113 2 185.5t6 72.5l76 4l8 -1071q-6 -139 -59 -248q-23 -47 -59 -91t-88 -79t-123.5 -55.5t-166.5 -20.5q-121 0 -195.5 34t-115.5 74t-56.5 73.5t-15.5 37.5 t10.5 8.5t24.5 8.5q16 6 37 10q25 -49 70 -86q39 -33 103 -58q54 -21 134 -21q13 0 27 1q115 4 188.5 42t115.5 95.5t58.5 128t16.5 144.5v118q-63 -104 -157.5 -166.5t-198.5 -81.5q-46 -9 -91 -9q-59 0 -117 15q-104 25 -185 99t-129 198q-41 106 -41 251q0 24 1 49z M98 633q-3 -39 -3 -75q0 -127 38 -220q49 -119 135 -182.5t192 -70.5q12 -1 25 -1q92 0 179 44q98 50 171.5 156.5t96.5 268.5v217q-20 131 -86 218t-155 126q-72 32 -151 32q-18 0 -36 -2q-98 -9 -184.5 -68.5t-148 -169t-73.5 -273.5z" />
<glyph unicode="h" horiz-adv-x="1112" d="M14 1278.5q0 107.5 1 173.5t3 66l76 4l10 -578q55 125 144.5 192.5t191.5 83.5q33 5 65 6q69 0 139 -24q104 -35 186.5 -113.5t135 -201.5t52.5 -285l8 -594l-90 2q-4 10 -4 60.5v128v176t-2 205.5q-4 170 -59.5 289.5t-138.5 187t-182 81.5q-24 3 -47 3q-75 0 -143 -33 q-90 -43 -158.5 -145.5t-92.5 -264.5l14 -698q-27 2 -47 4q-18 0 -32.5 -1t-14.5 -5q0 -2 -1 61.5t-2 170t-3.5 243.5t-4.5 280.5t-3 280.5t-1 244.5z" />
<glyph unicode="i" horiz-adv-x="290" d="M68 1239h86q2 -84 3 -182.5t3 -201.5t3 -206.5t3 -197.5q4 -223 8 -451q-27 2 -47 4q-18 0 -32.5 -1t-14.5 -5q0 -2 -1 57.5t-2 159.5t-2 230t-3 268.5t-3 275.5t-1 250zM72 1325v74.5t1 26t2 -1.5l1 -5l76 4q0 10 2 4q2 -4 2 -26.5t2 -75.5h-86z" />
<glyph unicode="j" horiz-adv-x="358" d="M-672 -111q0 4 10.5 8.5t24.5 8.5q16 6 37 10q25 -49 70 -86q39 -33 102 -58q54 -21 135 -21q13 0 27 1q115 4 188.5 42t115.5 95.5t58.5 128t16.5 144.5v181.5v230t1 241.5t2 218t3 157.5t4 60.5l76 4l8 -1091q-6 -139 -60 -248q-23 -47 -58.5 -91t-87.5 -79t-124 -55.5 t-166 -20.5q-121 0 -195.5 34t-115.5 74t-56.5 73.5t-15.5 37.5zM109 1325v74.5t1 26t2 -1.5l1 -5l75 4q0 10 2 4q2 -4 2.5 -26.5t2.5 -75.5h-86z" />
<glyph unicode="k" horiz-adv-x="1075" d="M25 1278.5q0 107.5 1 173.5t3 66l75 4l17 -924q25 23 64.5 61.5t88 87t101.5 102.5t106 107q121 125 260 269q16 -16 29 -27q10 -10 20.5 -18.5t10.5 -12.5q0 -2 -46 -49t-117 -118.5t-155 -157.5t-161 -164q25 -20 67.5 -57t97 -84.5t116 -100.5t120.5 -104 q141 -123 305 -266l-72 -64l-692 619l-141 -144l10 -477q-27 2 -47 4q-18 0 -32.5 -1t-14.5 -5q0 -2 -1 61.5t-2 170t-3 243.5t-4 280.5t-3 280.5t-1 244.5z" />
<glyph unicode="l" horiz-adv-x="309" d="M66 1278.5q0 107.5 1 173.5t3 66l75 4l29 -1522q-27 2 -47 4q-18 0 -32.5 -1t-14.5 -5q0 -2 -1 61.5t-2 170t-3 243.5t-4 280.5t-3 280.5t-1 244.5z" />
<glyph unicode="m" horiz-adv-x="1452" d="M25 1054q0 89 1 143t3 54l75 4l2 -108q109 80 239 80t245 -72q72 49 156 63q38 7 75 7q46 1 91 -9q83 -18 160 -67t135.5 -127t93 -183.5t34.5 -236.5l8 -594l-90 2q-4 10 -4 60.5v128v176t-2 205.5q-4 172 -61.5 293.5t-143.5 188t-187 76.5q-18 2 -35 2q-82 0 -156 -40 q88 -80 144 -205t56 -293l8 -594l-90 2q-4 10 -4 60.5v128v176t-2 205.5q-2 129 -35.5 229t-89 171t-124 110.5t-142.5 47.5q-17 2 -35 1q-56 -1 -110 -19q-72 -24 -131 -84l24 -1036q-27 2 -47 4q-18 0 -32.5 -1t-14.5 -5q0 -2 -1 50t-2 140t-3 201t-4 230.5t-3 231.5 t-1 203z" />
<glyph unicode="n" horiz-adv-x="1134" d="M25 1054q0 89 1 143t3 54l75 4l7 -319q53 127 142 197.5t191 86.5q33 5 68 6q68 0 138 -23q104 -34 188 -112.5t137 -202.5t53 -286l8 -594l-90 2q-4 10 -4 60.5v128v176t-2 205.5q-4 170 -60.5 290.5t-140.5 188t-184 79.5q-20 2 -40 2q-79 0 -151 -36 q-90 -45 -157.5 -151.5t-89.5 -274.5l16 -678q-27 2 -47 4q-18 0 -32.5 -1t-14.5 -5q0 -2 -1 50t-2 140t-3 201t-4 230.5t-3 231.5t-1 203z" />
<glyph unicode="o" horiz-adv-x="1089" d="M2 623q6 162 53 277.5t119 189t162 106.5q76 28 154 28q14 0 29 -1q93 -6 181 -50.5t157 -122t111 -188t42 -252.5q0 -141 -45 -250.5t-118 -186.5t-165 -118t-188 -45h-20q-86 0 -168 31q-91 35 -160.5 109.5t-109.5 192.5q-35 103 -35 238q0 21 1 42zM86 625 q-3 -35 -3 -68q0 -131 45 -223q56 -115 148 -172q92 -58 204 -59h5q109 -1 205 53q98 54 166 163t70 269v12q0 166 -54 283q-56 121 -146 185q-88 65 -194 71q-10 1 -21 1q-94 0 -179 -50q-94 -54 -163 -169.5t-83 -295.5z" />
<glyph unicode="p" horiz-adv-x="1163" d="M18 993.5q0 110.5 1 178t4 67.5l75 4l6 -325q55 131 146.5 203.5t197.5 92.5q42 9 85 9q63 0 127 -19q108 -30 194 -108t141.5 -201t55.5 -285q0 -156 -53.5 -272.5t-137.5 -192t-190 -109.5q-78 -25 -156 -25q-26 0 -52 3q-104 11 -196 69t-149 165l10 -567q-27 2 -47 4 q-18 0 -32.5 -1t-14.5 -6q0 -2 -1 63.5t-2 175.5t-3 250t-4.5 286.5t-3.5 288t-1 252zM109 649l4 -219q23 -131 90 -213t155 -117q64 -25 133 -25q27 0 53 4q99 13 184 73.5t144.5 170t73.5 265.5q3 35 3 68q0 88 -19 160q-27 99 -79 169t-124 107.5t-149 43.5q-16 2 -31 2 q-62 0 -124 -22q-77 -26 -142.5 -86.5t-111.5 -156t-60 -224.5z" />
<glyph unicode="q" horiz-adv-x="1142" d="M23 623q6 162 53 277.5t118.5 189t161.5 106.5q76 28 155 28q14 0 29 -1q93 -6 181 -50.5t156.5 -122t110.5 -188t42 -252.5q0 -133 -39 -237.5t-104.5 -179t-149.5 -120.5t-174 -59q12 -55 30.5 -103t45.5 -84t62.5 -57.5t82.5 -23.5h6q53 0 82 35q31 37 44.5 81 t16.5 82t7 38h15.5t27.5 2t39 4q1 -18 1 -34q0 -63 -17 -116q-18 -57 -66.5 -108.5t-144.5 -63.5q-23 -3 -43 -3q-49 0 -88 17q-54 23 -91.5 71t-61.5 114.5t-36 144.5q-92 2 -176 41t-147.5 115t-99.5 190q-30 97 -30 223q0 22 1 44zM106 625q-3 -37 -3 -71q0 -88 19 -160 q25 -101 76.5 -169.5t121 -105.5t145.5 -43q-8 70 -10 143.5t-2 142v132v112.5q2 -4 17 -4t34 2q23 2 47 4q-4 -45 -8 -106.5t-5 -131.5v-36q0 -54 2 -110q3 -74 13 -144q70 12 136.5 49t119.5 100.5t90 152.5t47 206q3 37 3 71q0 129 -41 224q-52 121 -140 184t-196 69 q-12 1 -24 1q-96 0 -184 -47q-98 -54 -171 -169.5t-87 -295.5z" />
<glyph unicode="r" horiz-adv-x="686" d="M10 596q0 201 59.5 341t152.5 212q90 70 201 70h6q114 -2 222 -84l-37 -78q-90 74 -181 78h-11q-84 -1 -152 -59q-72 -62 -120 -189t-52 -314q-1 -53 -1 -104t1 -101q2 -98 5 -175.5t5.5 -128t0.5 -60.5l-91 -2z" />
<glyph unicode="s" horiz-adv-x="897" d="M10 139q-4 0 2 14.5t15.5 32t17.5 35t10 23.5q4 -10 30 -37t73 -55q48 -28 116 -50q58 -18 130 -19q14 0 28 1q47 2 93 19.5t81 46.5q34 28 56 64q20 33 20 70v7q-2 76 -50 123t-120 79.5t-155 59.5t-155.5 63.5t-122.5 91t-56 142.5q-2 23 -2 44q0 103 41 171 q49 82 126.5 122t173.5 42q6 0 12 1q89 0 167 -28q84 -28 145.5 -82.5t69.5 -126.5q0 -4 -15.5 -10t-33.5 -14q-23 -8 -50 -19q-27 74 -79 119t-114 63q-43 12 -87 12q-21 0 -41 -3q-64 -8 -118 -40t-89 -86t-37 -128v-6q0 -72 50 -117q52 -47 128 -82t167 -65.5t169 -72.5 t130 -104.5t52 -158.5q0 -53 -27.5 -102.5t-74.5 -87.5t-109.5 -61.5t-134.5 -25.5q-17 -1 -33 -1q-84 -1 -151 17q-80 20 -133 47t-83 49.5t-32 22.5zM55 244v4q-4 0 0 -4z" />
<glyph unicode="t" horiz-adv-x="778" d="M1 713.5q-1 13.5 1 13.5h360q2 41 3.5 113.5t3.5 158.5t4 176.5t4 164t3 120.5t1 49q2 -4 17.5 -4t33.5 2q23 2 47 4q-10 -162 -18 -309q-4 -63 -8 -129.5t-7.5 -129t-5.5 -119t-4 -97.5h141.5t124.5 2l3 -67q-63 -2 -132 -3.5t-139 -5.5q0 -92 7 -188t34 -177t80 -136.5 t147 -63.5l-24 -80q-84 4 -141.5 44t-93 101.5t-53.5 134.5q-20 74 -28 144q-8 63 -7 116v12q1 58 3 91q-72 -2 -136 -3t-111 -3q-55 -2 -105 -4q0 23 -2 43q-2 16 -3 29.5z" />
<glyph unicode="u" horiz-adv-x="1122" d="M18 1221l91 -2q2 -10 3 -60.5t1 -128.5v-176t2 -205q4 -172 60 -291.5t140 -187.5q83 -68 183 -80q21 -2 41 -3q77 0 149 37q90 46 158.5 151.5t89.5 273.5l-14 680q25 -4 47 -4q16 -2 31.5 0t15.5 6q0 2 1 -49.5t2 -138.5t3 -197.5t3 -226t3 -227t2 -200t-1 -141.5 t-3 -53l-76 -4l-8 299q-53 -127 -142 -197q-88 -72 -190 -88q-33 -5 -68 -5q-68 1 -138 23q-104 34 -187.5 112.5t-136.5 202.5t-53 286z" />
<glyph unicode="v" horiz-adv-x="1236" d="M12 1157q18 16 35 31q14 10 27.5 20.5t21.5 10.5q2 0 26.5 -48.5t61.5 -126t84 -177t94 -203.5q113 -246 254 -555l478 1116q23 -16 43 -29q16 -10 29.5 -19.5t13.5 -13.5q0 -2 -23.5 -53t-60.5 -133t-85 -187.5t-98.5 -215t-97.5 -214t-84 -186.5t-59.5 -132t-20.5 -50 q-4 2 -25.5 5t-23.5 -1q-6 10 -33.5 66.5t-70.5 139.5t-95.5 186.5t-105.5 209.5q-127 248 -285 559zM602 -4l2 -2z" />
<glyph unicode="w" horiz-adv-x="1693" d="M25 1157q18 16 34 31q14 10 28 20.5t22 10.5q2 0 26.5 -48.5t61 -126t84 -177t94.5 -203.5q113 -246 254 -555l477 1116q23 -16 43 -29q16 -10 29.5 -19.5t13.5 -13.5q0 -2 -26.5 -60.5t-68.5 -150.5t-95.5 -207.5t-106.5 -232.5q37 -84 70.5 -156.5t58.5 -128.5 q29 -66 55 -118l477 1116q23 -16 43 -29q16 -10 29.5 -19.5t13.5 -13.5q0 -2 -23.5 -53t-60 -133t-85 -187.5t-98.5 -215t-97 -214t-84 -186.5t-59.5 -132t-20.5 -50q-4 2 -25.5 5t-23.5 -1q-4 6 -21.5 43t-46 93t-66.5 130t-79 154q-39 -86 -74 -163t-61.5 -135.5 t-40.5 -92t-12 -33.5q-4 2 -26 5t-24 -1q-6 10 -33.5 66.5t-70.5 139.5t-95.5 186.5t-105.5 209.5q-127 248 -284 559zM614 -4l2 -2zM1065 -4l2 -2q0 2 -2 2z" />
<glyph unicode="x" horiz-adv-x="1091" d="M12 1167q18 18 33 31q12 10 23.5 19.5t13.5 11.5q2 0 41 -46t101.5 -123t142 -178.5t165.5 -207.5q70 104 134.5 201.5t113.5 173.5q57 88 109 165q23 -16 43 -28q16 -10 29.5 -19.5t13.5 -13.5q0 -2 -33 -49t-86 -125t-121.5 -177.5t-142.5 -203.5q88 -111 170 -215 t146.5 -186t102.5 -131l38 -48l-58 -34q-4 -2 -44 42t-102.5 118.5t-142 172t-165.5 201.5q-72 -102 -140.5 -198.5t-122 -171t-86 -120.5t-34.5 -46l-66 47q4 0 38 47t88 126t123 180t140 210q-90 111 -173 213t-148 184q-76 94 -144 178z" />
<glyph unicode="y" horiz-adv-x="1243" d="M12 1157l8 8l13 11l14 12l10 8q12 10 22.5 16.5t16.5 6.5q0 -2 2 -2q0 -2 4 -7q8 -16 26.5 -54t43.5 -91l104 -223q10 -23 19.5 -43.5t19.5 -42.5l119 -264q10 -23 19.5 -44.5t19.5 -41.5q10 -23 19.5 -42.5t17.5 -39.5l78 -170l18 -43q0 -4 4 -9l8 -22q4 -12 8.5 -21.5 t8.5 -15.5l6 -12l-57 -35q-4 0 -15 16l-16 29l-37 70q-41 78 -94 187.5t-111 229.5l-43 86l-41 88l-41 84l-36 80q-14 29 -27.5 55.5t-24.5 51.5q-20 41 -36.5 74.5t-26.5 58.5q-12 29 -23 51l8 8l13 11l14 12l10 8q12 10 22.5 16.5t16.5 6.5q0 -2 2 -2q0 -2 4 -7 q8 -16 26.5 -54t43.5 -91l104 -223q10 -23 19.5 -43.5t19.5 -42.5l119 -264q10 -23 19.5 -44.5t19.5 -41.5q10 -23 19.5 -42.5t17.5 -39.5l78 -170l18 -43q37 84 78 176t82 186t81 186.5t77 176.5q84 197 170 389q23 -16 43 -29q16 -10 29.5 -19.5t13.5 -13.5 q0 -2 -30 -66.5t-78 -170t-109.5 -239.5t-126 -274.5t-127 -274.5t-111.5 -238.5t-80 -169t-33 -64.5l-65 47q2 0 14 22.5t30.5 63.5t44.5 96.5t56 122.5l-12 23l-37 70q-41 78 -94 187.5t-111 229.5l-43 86l-41 88l-41 84l-36 80q-14 29 -27.5 55.5t-24.5 51.5 q-20 41 -36.5 74.5t-26.5 58.5q-12 29 -23 51zM565 18l41 93q0 -4 4 -9l8 -22q4 -12 8.5 -21.5t8.5 -15.5l6 -12l-57 -35q-4 0 -15 16q0 2 -4 6z" />
<glyph unicode="z" horiz-adv-x="1044" d="M20.5 1211.5q-0.5 13.5 4.5 13.5h438h160.5t141 1t100.5 1h40v-53v-52l-29 -42q-28 -42 -76 -109.5t-110.5 -155.5t-128 -181t-131 -184.5t-120 -167t-92.5 -129t-50 -69.5q0 -2 6 -3t30.5 -2t74 -1h136.5h218t317 2l2 -68q-53 -2 -119.5 -3t-139 -3t-148.5 -3t-146 -3 q-166 -4 -342 -6q2 23 2 43q0 16 -1 29.5t-3 15.5q2 0 34 45t84 118.5t118.5 168t134.5 192.5l365 524h-33q-33 0 -87.5 1.5t-122 2.5t-138.5 1l-381 4q-4 23 -6 43q-2 16 -2.5 29.5z" />
<glyph unicode="{" horiz-adv-x="526" d="M14 98q-2 51 23.5 102.5t57.5 101.5t58.5 97t28.5 88t-31.5 75t-125.5 59l8 73q82 27 113.5 72t30.5 101.5t-25.5 119t-54 125t-54.5 120.5t-25 105q-4 166 96.5 243t325.5 73q2 0 2 -11.5t2 -23.5q0 -16 2 -35q-84 10 -155 -12q-61 -18 -118.5 -71.5t-76.5 -162.5 q-6 -35 17.5 -86t55.5 -111.5t61.5 -127t36.5 -130t-17.5 -120.5t-102.5 -98q76 -33 105 -77t25.5 -93.5t-28 -100.5t-55 -99t-57 -90t-31.5 -71q-8 -45 2.5 -79t32 -58.5t52 -40.5t65.5 -27q78 -25 184 -26l2 -60q-117 -6 -211 17q-41 10 -78.5 27.5t-68.5 46t-50.5 69.5 t-21.5 96z" />
<glyph unicode="|" horiz-adv-x="256" d="M66 1339.5q0 141.5 1 227.5t3 86l75 4l23 -1999l-45 4q-16 0 -29.5 -1t-13.5 -5q0 -2 -1 82t-2 224t-3 320.5t-4 368t-3 367.5t-1 321.5z" />
<glyph unicode="}" horiz-adv-x="526" d="M14 1583q0 18 2 35q0 12 1 23.5t3 11.5q225 4 325.5 -73t96.5 -243q-2 -47 -25.5 -105t-53 -120.5t-54 -125t-25.5 -119t30.5 -101.5t113.5 -72l8 -73q-92 -25 -126 -59t-31.5 -75t29 -88t58 -97t57.5 -101t23 -103q-2 -55 -21 -96t-50 -69.5t-70 -46t-78 -27.5 q-94 -23 -211 -17l2 60q102 2 183 26q33 10 63.5 26.5t53 41t33.5 58.5t3 79q-6 29 -31.5 71t-56 90t-55.5 99t-28 100.5t26 93.5t104 77q-78 41 -102.5 98t-17 120.5t37 130t61.5 127t55.5 112t17.5 85.5q-20 109 -77 162t-118 72q-72 23 -156 12z" />
<glyph unicode="~" horiz-adv-x="919" d="M10 610l20 36q19 36 53 78t78 77t91 35t87 -29t78 -63.5t74.5 -63.5t77.5 -29q37 0 74 23.5t68 52.5q37 33 69 76l51 -51q-41 -57 -83 -103q-37 -39 -85.5 -69.5t-95.5 -26.5q-49 2 -90 31.5t-78 63.5t-71.5 61.5t-71.5 27.5t-69.5 -25.5t-59.5 -58.5q-31 -37 -57 -84 l-29 21q-10 8 -20.5 13t-10.5 7z" />
<glyph unicode="&#xa1;" horiz-adv-x="290" d="M68 1405l2 106h98l6 -102zM90 4q2 244 2 477v817h64q2 -84 4 -184t4 -207.5l4 -215t4 -208.5q6 -233 12 -477h-47q-18 0 -33.5 -1t-13.5 -1z" />
<glyph unicode="&#xa2;" horiz-adv-x="989" d="M16 758q6 139 38 244.5t84 179t118 115.5t139 55q0 78 1 122t3 44l76 4l2 -164q104 -6 202.5 -64.5t172.5 -165.5l-51 -67q-57 111 -143.5 163t-178.5 48l21 -1057q94 18 179 97t138 218l88 -65q-66 -141 -175 -221t-230 -94l4 -150q-27 2 -47 4q-18 0 -32.5 -1t-14.5 -5 q0 -2 -1 38t-1 111q-82 8 -156 49.5t-128 116t-84 186t-24 259.5zM109 760q-10 -129 10 -227.5t62 -167t100.5 -107.5t124.5 -47q-2 104 -4.5 238.5t-3.5 276.5t-2 280t-1 249q-53 -18 -101 -58t-87 -101.5t-64.5 -145.5t-33.5 -190z" />
<glyph unicode="&#xa3;" horiz-adv-x="1093" d="M18 700.5v14.5v12h201v45q6 209 61.5 371t155 256t236.5 111.5t307 -64.5l-39 -88q-143 74 -260 55.5t-201 -102.5t-132 -224.5t-52 -312.5v-47h155.5t151.5 2l2 -67l-307 -11q12 -135 60.5 -257t128 -201.5t192.5 -100t254 46.5l39 -82q-223 -90 -391 -30.5t-263 235.5 q-41 -129 -103 -189.5t-167 -64.5l-24 80q94 8 153.5 72.5t93.5 216.5q-39 119 -49 272q-94 -4 -143 -6q-31 -2 -55 -2q-2 23 -3 43q-2 8 -2 16.5z" />
<glyph unicode="&#xa4;" horiz-adv-x="1349" d="M4 1448q14 16 29 31q12 10 23.5 20t19.5 10q4 0 70.5 -80.5t170.5 -209.5q63 98 154.5 149t190 58.5t195.5 -28.5t175 -112q66 104 109 166q23 35 41 61q23 -16 43 -28q16 -10 29.5 -19.5t13.5 -13.5q0 -2 -46 -68.5t-122 -177.5q53 -74 83.5 -172t30.5 -219 q0 -160 -55 -276.5t-143 -194.5q55 -70 100 -128t80 -99q37 -49 70 -88l-58 -35q-2 -2 -22.5 19.5t-55 60.5t-83 94t-103.5 123q-115 -70 -247 -76t-244 57q-86 -123 -140.5 -201.5t-58.5 -78.5l-66 47q8 4 62.5 81t136.5 199q-86 74 -137 199t-43 309q4 86 19.5 160 t39.5 133q-59 72 -106 130.5t-82 103.5q-41 51 -74 94zM291 829q-14 -180 38 -300.5t140 -183t196.5 -66t207 53t171 171t86.5 289.5q14 174 -38 294.5t-140 184t-196.5 70t-206.5 -47t-171 -169.5t-87 -296z" />
<glyph unicode="&#xa5;" horiz-adv-x="1236" d="M12 1456q18 16 35 31q14 10 27.5 20.5t21.5 10.5q2 0 26.5 -48.5t61.5 -126t84 -177t94 -203.5q113 -246 254 -555l478 1116q23 -16 43 -29q16 -10 29.5 -19.5t13.5 -13.5q0 -2 -28 -64.5t-73 -159.5t-100 -219t-110.5 -242t-102.5 -225.5t-78 -172.5h119.5t114.5 2 l2 -68q-68 -4 -135.5 -5t-129.5 -3l5 -63q55 2 102 3t82 3q39 2 74 4q0 -23 2 -43q0 -16 1 -30.5t1 -12.5h-258q2 -57 3 -90t3 -49q2 -20 2 -27q-27 2 -47 4q-18 0 -32.5 -1t-14.5 -5l-1 2t-1 18.5t1 51t5 96.5q-61 0 -123 -1t-115 -1l-2 67l244 7q0 16 1 30.5t1 34.5 q-53 -4 -97 -5t-77 -3q-37 -2 -70 -2q-2 23 -2 43q-2 8 -2 16v15v12h217l-62.5 122.5t-80.5 158.5t-90 177.5t-92 180.5q-106 207 -224 438zM602 295q0 -2 2 -2z" />
<glyph unicode="&#xa6;" horiz-adv-x="264" d="M66 1392.5q0 118.5 1 189.5t3 71l75 4q2 -123 5 -264q2 -121 3 -275.5t3 -324.5l-86 4q-2 168 -3 322.5t-1 273zM72 557l86 -2q2 -174 4 -336t4 -287q2 -145 2 -274l-45 4q-16 0 -29.5 -1t-13.5 -5q0 -2 -1 72.5t-2 200.5t-2 289t-3 339z" />
<glyph unicode="&#xa7;" horiz-adv-x="854" d="M10 -203q-4 0 2 14.5t15.5 33t17.5 35t10 22.5q4 -8 30 -35t73 -55.5t115.5 -50t158.5 -19.5q47 2 93 19.5t81 46t56.5 64.5t19.5 77q-2 76 -51 123t-121 79.5t-156 59.5t-156.5 63.5t-121.5 91t-53 142.5q-2 49 5 100t30.5 100.5t67.5 94.5t118 80q-43 18 -82 41.5 t-69 53.5t-49 69t-21 90q-10 133 34.5 215t118.5 120.5t165 41t175 -26.5t150.5 -83t89.5 -124q0 -4 -15.5 -10t-33.5 -15q-23 -8 -50 -18q-27 74 -79 119t-114.5 62.5t-127 9t-118.5 -40t-89 -86t-37 -127.5q-2 -76 48 -123t128 -82t168 -66t168 -73t130 -104t54 -159 q0 -55 -31.5 -101t-80.5 -83t-108.5 -65.5t-114.5 -49.5q63 -25 123.5 -51.5t107.5 -64t75.5 -90t28.5 -123.5q0 -53 -27.5 -102.5t-74.5 -87.5t-109.5 -61.5t-134.5 -25.5q-104 -4 -184 16.5t-133 47t-83 49t-32 22.5zM55 -94q-4 0 0 -4v4zM113 545q0 -90 64.5 -142.5 t156.5 -89.5q49 12 110.5 33t114.5 52.5t89 76t34 103.5q-4 53 -28.5 91t-65.5 66.5t-93.5 51t-107.5 42.5q-111 -18 -167 -56t-80.5 -81t-25.5 -84t-1 -63z" />
<glyph unicode="&#xa8;" horiz-adv-x="536" d="M27 1782l98 2l-2 -103l-92 2zM334 1782l98 2l-2 -103l-92 2z" />
<glyph unicode="&#xa9;" horiz-adv-x="1318" d="M20 633q10 162 68.5 278.5t146 190.5t195 105.5t218 24.5t215 -51t186 -122t132 -188.5t52.5 -249.5q2 -147 -52.5 -262t-143.5 -194t-201.5 -122t-229.5 -47t-227.5 31.5t-193.5 114.5t-129 201t-36 290zM104 635q-10 -139 28 -243.5t107.5 -174.5t163 -105.5 t192.5 -36.5t196.5 30.5t174 97t127 163t54.5 228.5q6 166 -64.5 282.5t-182.5 181t-245 74t-250.5 -41t-202 -163t-98.5 -292.5zM270 610q4 106 41 181t93.5 120t125 61.5t138 6.5t133 -45t108.5 -94l-57 -58q-61 76 -145 102.5t-163 4t-136.5 -92t-63.5 -186.5 q-4 -78 25.5 -138t80 -98t113 -53.5t124 -4t113.5 51.5t81 109l65 -49q-39 -76 -105.5 -123t-143 -64.5t-154.5 -5t-140.5 57.5t-100.5 124t-32 193z" />
<glyph unicode="&#xaa;" horiz-adv-x="432" d="M20 1194q4 86 39 136t83 66.5t98.5 3t87.5 -56.5v49.5t2 20.5l47 2l10 -448q-16 2 -27 2h-17t-7 -2t-1 20.5t-1 59.5q-37 -47 -92.5 -62.5t-106.5 0.5t-85 67.5t-30 141.5zM74 1194q-8 -80 28.5 -119t85 -40t92.5 35t50 106v47q-8 57 -46 90t-82 33t-82 -36t-46 -116z " />
<glyph unicode="&#xab;" horiz-adv-x="1327" d="M7 647q-1 92 52 182q14 27 51 59t86.5 65.5t105.5 67.5t114 64q133 72 293 148q14 -23 26 -41q4 -8 9.5 -15.5t9.5 -13.5q4 -8 8 -12l-37 -15q-37 -16 -95.5 -42.5t-129 -60.5t-137 -69.5t-121 -71.5t-78.5 -65q-123 -147 0 -325q16 -25 51 -56.5t79 -65.5t96 -70 t104 -68q121 -78 262 -162q-16 -20 -27 -39l-24 -41q0 -2 -40 23.5t-101.5 67.5t-136.5 95.5t-144.5 106.5t-125 100t-79.5 76q-70 86 -71 178zM457.5 647q-0.5 92 52.5 182q14 27 51 59t86 65.5t105.5 67.5t113.5 64q133 72 293 148q14 -23 27 -41q4 -8 9 -15.5l9 -13.5 q4 -8 8 -12l-36 -15q-37 -16 -95.5 -42.5t-129 -60.5t-137 -69.5t-121 -71.5t-79.5 -65q-123 -147 0 -325q16 -25 51 -56.5t79 -65.5t96.5 -70t103.5 -68q121 -78 262 -162q-16 -20 -26 -39l-25 -41q0 -2 -40 23.5t-101.5 67.5t-136 95.5t-144 106.5t-125 100t-80.5 76 q-70 86 -70.5 178z" />
<glyph unicode="&#xac;" horiz-adv-x="972" d="M18 793q4 2 5.5 17t1.5 32l-5 45q127 -2 271 -2q123 0 281.5 -1t328.5 -1q0 -92 1 -161t1 -118q0 -57 2 -100h-12h-14.5t-16.5 2q-20 0 -43 2l12 303q-172 -2 -319 -4t-258 -6q-129 -4 -236 -8z" />
<glyph unicode="&#xad;" horiz-adv-x="606" d="M0 700.5v14.5v12h170h167t179 2l2 -67q-106 -4 -199.5 -7.5t-162.5 -7.5q-82 -4 -152 -6q-2 23 -2 43q-2 8 -2 16.5z" />
<glyph unicode="&#xae;" horiz-adv-x="1318" d="M20 633q10 162 68.5 278.5t146 190.5t195 105.5t218 24.5t215 -51t186 -122t132 -188.5t52.5 -249.5q2 -147 -52.5 -262t-143.5 -194t-201.5 -122t-229.5 -47t-227.5 31.5t-193.5 114.5t-129 201t-36 290zM104 635q-10 -139 28 -243.5t107.5 -174.5t163 -105.5 t192.5 -36.5t196.5 30.5t174 97t127 163t54.5 228.5q6 166 -64.5 282.5t-182.5 181t-245 74t-250.5 -41t-202 -163t-98.5 -292.5zM399 790.5v137t2 55.5l66 2v-16q14 4 42 8t97 8q94 4 159.5 -20.5t102.5 -64.5t46.5 -89t-9 -97t-63.5 -88t-115 -59q41 -82 69.5 -136 t45.5 -89q20 -39 32 -63q-20 -8 -36 -15q-33 -14 -43 -14q-4 0 -37 68.5t-113 234.5q-63 -8 -104 -4t-66 8l8 -307q-23 2 -39 2h-27t-11 -2t-1.5 51t-2.5 135t-2 177.5t-1 177zM467 903l6 -278q20 -4 56 -5t102 1q74 2 122 25.5t70.5 57t20.5 72.5t-29 73t-79 55.5 t-128 19.5q-41 0 -66.5 -2t-41 -5.5t-22.5 -7.5t-11 -6z" />
<glyph unicode="&#xaf;" horiz-adv-x="593" d="M20 1759v13h238h268l2 -68q-2 0 -24.5 -1t-57 -3t-79.5 -3t-93 -3l-249 -8q-2 23 -2 43q-2 8 -2.5 16t-0.5 14z" />
<glyph unicode="&#xb0;" horiz-adv-x="499" d="M25 1200q2 84 33.5 137.5t76.5 78t96.5 20.5t95.5 -33t72.5 -81t28.5 -126q0 -76 -30.5 -128t-77 -79.5t-99.5 -31t-98 22.5t-73.5 80t-24.5 140zM102 1202q-6 -76 28 -113.5t80 -39.5t88 33.5t48 109.5q6 72 -29.5 110.5t-82 42t-86.5 -31.5t-46 -111z" />
<glyph unicode="&#xb1;" horiz-adv-x="786" d="M8 249.5v14.5v12h262h231t208 3l2 -68q-106 -4 -228.5 -7t-226.5 -7q-123 -4 -244 -7q-2 23 -2 43q-2 8 -2 16.5zM8 761.5v14.5v12h311l5 326h65q2 -106 4 -180t4 -146h166t146 3l2 -68l-312 -10q4 -129 5.5 -202t3.5 -110q2 -43 2 -55l-95 -2v5v39t1 108.5t3 214.5 q-66 -2 -121 -3t-96 -3q-49 -2 -90 -3q-2 23 -2 43q-2 8 -2 16.5z" />
<glyph unicode="&#xb2;" horiz-adv-x="368" d="M12 977v55l236 318q23 33 12.5 60.5t-38 38.5t-65.5 0t-69 -54l-35 30q37 68 94.5 82.5t102.5 -8t62.5 -72t-25.5 -108.5l-205 -291h107.5t125.5 4l2 -51q-49 -2 -103 -3t-99 -1h-103z" />
<glyph unicode="&#xb3;" horiz-adv-x="352" d="M16 985l4 53q96 -4 150.5 6.5t76 28t14.5 40t-34.5 42t-71.5 31.5t-94 10v51q94 20 137.5 62.5t38 80t-58.5 59t-153 1.5l-2 55q133 14 200.5 -17.5t78.5 -80.5t-33 -101.5t-136 -74.5q102 -8 150.5 -52t36 -91.5t-86 -81t-217.5 -21.5z" />
<glyph unicode="&#xb4;" horiz-adv-x="503" d="M18 1657l189 139q35 27 68.5 51.5t60 45t42.5 32.5l17 12l58 -92l-392 -243z" />
<glyph unicode="&#xb5;" horiz-adv-x="1112" d="M6 1229h49q18 0 32.5 1t12.5 1v-51q0 -52 2 -134.5t4.5 -186t4.5 -210.5q4 -172 60 -291.5t141 -187.5t185.5 -79t190.5 34t158.5 151.5t89.5 274.5l-14 678q25 -4 47 -4q16 -2 31.5 0t15.5 6q0 2 1 -49.5t2 -138.5t3 -197.5t3 -226t3 -227t2 -200t-1 -141.5t-3 -53 l-76 -4l-8 297q-43 -100 -107.5 -164t-140.5 -94.5t-158.5 -28.5t-160.5 33t-146.5 91t-115.5 146q0 -121 1 -231.5t1 -193t-1 -132t-3 -49.5l-76 -4z" />
<glyph unicode="&#xb6;" horiz-adv-x="1210" d="M17 1102q3 115 75 210t214.5 153.5t357.5 50.5q150 -8 229.5 -17.5t118.5 -15.5l2 33l76 -5q2 0 3 -65.5t1 -173t-2 -244.5t-3.5 -280.5t-3.5 -280.5t-3 -243.5t-2 -170t-1 -61.5q0 4 -15 5t-32 1q-23 -2 -47 -4l12 639q-37 -6 -93 -11.5t-124 -7.5q-2 -125 -3 -238.5 t-2 -199.5t-2 -136t-1 -48q0 4 -15.5 5t-31.5 1q-23 -2 -47 -4l12 618q-51 0 -106 6q-188 14 -315.5 88t-191 177.5t-60.5 218.5zM782 692q72 2 126.5 6t88.5 9l15 694q-27 8 -74 20.5t-154 18.5v-124v-178.5t-1 -214t-1 -231.5z" />
<glyph unicode="&#xb7;" horiz-adv-x="231" d="M43 739l121 4l-2 -127l-113 2z" />
<glyph unicode="&#xb8;" horiz-adv-x="421" d="M39 47q4 -4 14 -3t23 3q14 2 30 4l9 -123q68 12 121 4q47 -6 84.5 -33.5t37.5 -93.5q0 -33 -13 -56t-35.5 -38.5t-51.5 -25t-59 -15.5q-70 -12 -158 -6v84q72 2 125 10q47 6 84 17.5t31 29.5q-10 23 -48 31t-81 8q-51 0 -111 -8v101v72.5t-2 37.5zM39 47v4v-4z" />
<glyph unicode="&#xb9;" horiz-adv-x="344" d="M18 1430q-2 0 15.5 11t40.5 27q25 16 57 39l53 4l13 -487q23 0 44 1t46 1v-49q-131 -2 -195 -6q-37 -2 -59 -4l-6 57h108v91t-1 116.5t-1 118v96.5l-76 -51z" />
<glyph unicode="&#xba;" horiz-adv-x="438" d="M20 1077v359q0 43 34 57t71 14h147q14 0 30.5 -3t30 -13t23 -31.5t11.5 -58.5t3 -82l2 -90t1 -88t-2 -76q-2 -23 -11.5 -38t-20.5 -25.5t-22.5 -14.5t-13.5 -4q-43 -2 -102.5 -2h-106.5q-31 0 -52.5 28.5t-21.5 67.5zM70 1384q0 -27 1 -60.5t2 -68t1 -69.5v-64 q0 -35 11 -60.5t40 -25.5h149q20 0 29.5 12.5t12.5 30t3 31.5v18l-4 252q0 41 -10 58.5t-45 19.5q-29 2 -62.5 3t-62.5 -5t-47 -22.5t-18 -49.5z" />
<glyph unicode="&#xbb;" horiz-adv-x="1314" d="M6 1151q4 4 8 12q8 14 19 29q10 18 26 41q160 -76 293 -148q57 -31 113.5 -64.5t106 -67t85.5 -65.5t52 -59q53 -90 52 -182t-71 -178q-25 -29 -80 -76t-124.5 -100t-144.5 -106.5t-136.5 -95.5t-101.5 -67.5t-40 -23.5q-4 4 -8 12l-9 13.5t-9 15.5q-10 18 -25 39 q141 84 262 162q51 33 102.5 68.5t96.5 69.5t79 65.5t52 56.5q123 178 0 325q-25 29 -79 65t-120.5 71.5t-137 69.5t-129 60.5t-95.5 42.5zM457 1151q4 4 8 12q8 14 18 29q10 18 27 41q160 -76 293 -148q57 -31 113.5 -64.5t105.5 -67t85 -65.5t52 -59q53 -90 52 -182 t-70 -178q-25 -29 -80 -76t-125 -100t-144.5 -106.5t-136 -95.5t-101.5 -67.5t-40 -23.5q-4 4 -8 12l-9 13.5t-10 15.5q-10 18 -24 39q141 84 262 162q51 33 102.5 68.5t96.5 69.5t78.5 65.5t52.5 56.5q123 178 0 325q-25 29 -79 65t-121 71.5t-137.5 69.5t-129 60.5 t-94.5 42.5z" />
<glyph unicode="&#xbc;" horiz-adv-x="1323" d="M29 1370q-2 0 21.5 17.5t51.5 39.5q33 25 76 58l82 6l21 -758h58.5t61.5 2v-67q-90 -2 -155.5 -4t-108.5 -7l-86 -6l-10 80h41q18 0 44 -1t58 1v135t-1 182.5t-1 189.5v155l-100 -76zM254 43l328 737q143 324 325 740q23 -18 43 -31q8 -6 16.5 -12.5t14.5 -10.5 q8 -6 12 -8q-2 0 -31.5 -63.5t-76.5 -166t-107.5 -233.5t-124.5 -268q-147 -322 -334 -731zM659 434l424 455l7 -4l55 4l10 -410h78v-67h-78l14 -363h-49h-33.5t-17.5 -4q0 2 1 31.5t1 80v115t-2 134.5q-82 -2 -154.5 -2.5t-128.5 -2.5q-66 -2 -120 -2q-2 4 -4 13 q-2 4 -2.5 11t-0.5 11zM807 469q25 0 69 1t87 3q51 2 106 6q-4 92 0 162.5t4 136.5q-2 0 -21.5 -22.5t-48 -57t-62.5 -74.5t-63.5 -75t-49 -57.5t-21.5 -22.5z" />
<glyph unicode="&#xbd;" horiz-adv-x="1335" d="M29 1370q-2 0 21.5 17.5t51.5 39.5q33 25 76 58l82 6l21 -758h58.5t61.5 2v-67q-90 -2 -155.5 -4t-108.5 -7l-86 -6l-10 80h41q18 0 44 -1t58 1v135t-1 182.5t-1 189.5v155l-100 -76zM254 43l328 737q143 324 325 740q23 -18 43 -31q8 -6 16.5 -12.5t14.5 -10.5 q8 -6 12 -8q-2 0 -31.5 -63.5t-76.5 -166t-107.5 -233.5t-124.5 -268q-147 -322 -334 -731zM776 29q78 2 160 6q70 4 154 5t161 5l-4 68q-106 -4 -196 -4h-166q29 41 67.5 97t80.5 119.5t86 127t83 118.5q43 61 44 116.5t-26.5 97.5t-75.5 65.5t-102.5 21.5t-108.5 -33.5 t-93 -101.5l55 -49q49 68 106.5 85.5t100.5 0t58.5 -60.5t-17.5 -92l-367 -508v-84z" />
<glyph unicode="&#xbe;" horiz-adv-x="1323" d="M23 668l10 77q150 -8 233.5 9.5t116.5 45t20.5 63.5t-55.5 65.5t-110.5 49t-145.5 17.5v78q96 20 159.5 58t91.5 82t22.5 86t-43 71t-109.5 39t-176 -12l-4 82q137 16 229 -3.5t142.5 -59.5t61.5 -93t-15.5 -105.5t-89 -98.5t-156.5 -68q104 -8 174 -43t98.5 -82 t17 -97.5t-66.5 -90.5t-156.5 -61.5t-248.5 -8.5zM254 43l328 737q143 324 325 740q23 -18 43 -31q8 -6 16.5 -12.5t14.5 -10.5q8 -6 12 -8q-2 0 -31.5 -63.5t-76.5 -166t-107.5 -233.5t-124.5 -268q-147 -322 -334 -731zM659 434l424 455l7 -4l55 4l10 -410h78v-67h-78 l14 -363h-49h-33.5t-17.5 -4q0 2 1 31.5t1 80v115t-2 134.5q-82 -2 -154.5 -2.5t-128.5 -2.5q-66 -2 -120 -2q-2 4 -4 13q-2 4 -2.5 11t-0.5 11zM807 469q25 0 69 1t87 3q51 2 106 6q-4 92 0 162.5t4 136.5q-2 0 -21.5 -22.5t-48 -57t-62.5 -74.5t-63.5 -75t-49 -57.5 t-21.5 -22.5z" />
<glyph unicode="&#xbf;" horiz-adv-x="829" d="M4 455q0 66 16.5 124t42.5 117q6 12 24.5 43t45.5 72t58.5 89t64.5 97q76 113 170 250l61 -57q-82 -119 -149 -221q-29 -43 -58.5 -88t-55 -86t-46 -74t-31.5 -51q-63 -117 -62 -217.5t45 -177t120 -127t161 -63.5t170 11.5t146 96.5l55 -66q-61 -63 -143 -93t-169 -29 t-170 32t-149.5 87t-106.5 140t-40 191zM403 1399l3 106h98l6 -102z" />
<glyph unicode="&#xc0;" horiz-adv-x="1523" d="M12 45l22 49q21 49 57 132t83 190.5t100 224.5h-92q-4 23 -6 43q-2 16 -2 29.5t4 13.5h135q63 143 126 284.5t112 254t78.5 181.5t27.5 69l48 2l39 -78q40 -78 104.5 -205t148.5 -290t170 -331q203 -397 465 -903q-18 -18 -35 -30q-14 -12 -28.5 -21.5t-20.5 -9.5 q-2 0 -24.5 42t-59.5 113.5t-86 170t-104 210t-115.5 233.5t-118.5 240q-70 -2 -155.5 -4t-174.5 -4t-176.5 -3t-158.5 -3l-277 -661q-25 14 -43 26q-16 10 -29.5 20.5t-13.5 14.5zM410 727h598q-66 133 -124.5 252t-101.5 211q-51 106 -94 196zM469 1845l57 92l16 -12 q17 -12 43.5 -32.5t60.5 -45t69 -51.5l188 -139l-43 -55z" />
<glyph unicode="&#xc1;" horiz-adv-x="1523" d="M12 45l22 49q21 49 57 132t83 190.5t100 224.5h-92q-4 23 -6 43q-2 16 -2 29.5t4 13.5h135q63 143 126 284.5t112 254t78.5 181.5t27.5 69l48 2l39 -78q40 -78 104.5 -205t148.5 -290t170 -331q203 -397 465 -903q-18 -18 -35 -30q-14 -12 -28.5 -21.5t-20.5 -9.5 q-2 0 -24.5 42t-59.5 113.5t-86 170t-104 210t-115.5 233.5t-118.5 240q-70 -2 -155.5 -4t-174.5 -4t-176.5 -3t-158.5 -3l-277 -661q-25 14 -43 26q-16 10 -29.5 20.5t-13.5 14.5zM410 727h598q-66 133 -124.5 252t-101.5 211q-51 106 -94 196zM469 1657l188 139 q35 27 69 51.5t60.5 45t43.5 32.5l16 12l57 -92l-391 -243z" />
<glyph unicode="&#xc2;" horiz-adv-x="1523" d="M12 45l22 49q21 49 57 132t83 190.5t100 224.5h-92q-4 23 -6 43q-2 16 -2 29.5t4 13.5h135q63 143 126 284.5t112 254t78.5 181.5t27.5 69l48 2l39 -78q40 -78 104.5 -205t148.5 -290t170 -331q203 -397 465 -903q-18 -18 -35 -30q-14 -12 -28.5 -21.5t-20.5 -9.5 q-2 0 -24.5 42t-59.5 113.5t-86 170t-104 210t-115.5 233.5t-118.5 240q-70 -2 -155.5 -4t-174.5 -4t-176.5 -3t-158.5 -3l-277 -661q-25 14 -43 26q-16 10 -29.5 20.5t-13.5 14.5zM410 727h598q-66 133 -124.5 252t-101.5 211q-51 106 -94 196zM410 1655l18 21 q18 22 46 54.5t59.5 70.5t59.5 71t46 54l18 20q16 2 31 2h33l15 -20q16 -21 39.5 -53t51 -67.5t52 -67.5t41 -54.5t20.5 -24.5l-74 -53q-2 2 -28.5 43t-61.5 90q-39 57 -88 129l-217 -268z" />
<glyph unicode="&#xc3;" horiz-adv-x="1523" d="M12 45l22 49q21 49 57 132t83 190.5t100 224.5h-92q-4 23 -6 43q-2 16 -2 29.5t4 13.5h135q63 143 126 284.5t112 254t78.5 181.5t27.5 69l48 2l39 -78q40 -78 104.5 -205t148.5 -290t170 -331q203 -397 465 -903q-18 -18 -35 -30q-14 -12 -28.5 -21.5t-20.5 -9.5 q-2 0 -24.5 42t-59.5 113.5t-86 170t-104 210t-115.5 233.5t-118.5 240q-70 -2 -155.5 -4t-174.5 -4t-176.5 -3t-158.5 -3l-277 -661q-25 14 -43 26q-16 10 -29.5 20.5t-13.5 14.5zM377 1700l15 30q16 31 42.5 68t58 68.5t64.5 38.5q41 6 75 -20.5t61.5 -62.5t52 -68 t47.5 -34q16 -2 43.5 25t54.5 59q31 37 61 88l52 -51q-37 -61 -74 -110q-31 -41 -67 -75t-64 -34q-37 0 -70 30.5t-63.5 66.5t-57 63.5t-47.5 23.5q-23 -4 -44 -27.5t-40 -49.5q-23 -31 -41 -70l-28 20q-10 8 -20.5 13.5t-10.5 7.5zM410 727h598q-66 133 -124.5 252 t-101.5 211q-51 106 -94 196z" />
<glyph unicode="&#xc4;" horiz-adv-x="1523" d="M12 45l22 49q21 49 57 132t83 190.5t100 224.5h-92q-4 23 -6 43q-2 16 -2 29.5t4 13.5h135q63 143 126 284.5t112 254t78.5 181.5t27.5 69h21q10 0 27 2l39 -78q40 -78 104.5 -205t148.5 -290t170 -331q203 -397 465 -903q-18 -18 -35 -30q-14 -12 -28.5 -21.5 t-20.5 -9.5q-2 0 -24.5 42t-59.5 113.5t-86 170t-104 210t-115.5 233.5t-118.5 240q-70 -2 -155.5 -4t-174.5 -4t-176.5 -3t-158.5 -3l-277 -661q-25 14 -43 26q-16 10 -29.5 20.5t-13.5 14.5zM410 727h598q-66 133 -124.5 252t-101.5 211q-51 106 -94 196zM477 1782l98 2 l-2 -103l-92 2zM784 1782l99 2l-2 -103l-93 2z" />
<glyph unicode="&#xc5;" horiz-adv-x="1523" d="M12 45l22 49q21 49 57 132t83 190.5t100 224.5h-92q-4 23 -6 43q-2 16 -2 29.5t4 13.5h135q63 143 126 284.5t112 254t78.5 181.5t27.5 69h21q10 0 27 2l39 -78q40 -78 104.5 -205t148.5 -290t170 -331q203 -397 465 -903q-18 -18 -35 -30q-14 -12 -28.5 -21.5 t-20.5 -9.5q-2 0 -24.5 42t-59.5 113.5t-86 170t-104 210t-115.5 233.5t-118.5 240q-70 -2 -155.5 -4t-174.5 -4t-176.5 -3t-158.5 -3l-277 -661q-25 14 -43 26q-16 10 -29.5 20.5t-13.5 14.5zM410 727h598q-66 133 -124.5 252t-101.5 211q-51 106 -94 196zM498 1786 q2 72 32.5 116t73.5 64.5t92 17t92 -28t71 -68.5t28 -105q0 -63 -30 -106.5t-75 -67t-96 -25.5t-94 19.5t-70.5 66.5t-23.5 117zM567 1788q-6 -63 28 -95t80 -33t88 28.5t48 91.5q6 59 -30 92t-82 35t-86 -27t-46 -92z" />
<glyph unicode="&#xc6;" horiz-adv-x="1585" d="M12 45l22 49q21 49 57 132t83 190.5t100 224.5h-92q-4 23 -6 43q-2 16 -2 29.5t4 13.5h135q63 143 126 284.5t112 254t78.5 181.5t27.5 69l82 6q57 -2 155.5 -5.5t206 -5.5t213 -3t179.5 -1l2 -67q-100 -4 -221 -5t-230.5 -1h-193.5h-109l13 -707h313t221 2l2 -67 q-90 -4 -234.5 -6.5t-299.5 -6.5l10 -559h148.5t196.5 1t205.5 2t176.5 1l2 -67l-61 -3q-62 -4 -152 -7t-196.5 -6t-197.5 -6t-152 -5l-62 -2q-2 90 -4 197q-2 90 -3 206.5t-3 245.5l-287 -4l-279 -659q-25 14 -43 26q-16 10 -29.5 20.5t-13.5 14.5zM412 727h252 q-2 164 -3.5 318.5t-1.5 271.5z" />
<glyph unicode="&#xc7;" horiz-adv-x="1202" d="M16 725q-2 227 60.5 383t161 250t220.5 131t242.5 23.5t226 -72t171.5 -152.5l-51 -67q-47 88 -134.5 140t-193 62.5t-215 -23.5t-199.5 -119t-147.5 -222t-57.5 -332q0 -180 58.5 -308t149.5 -206t204 -105.5t220.5 -5t196.5 96t134 196.5l88 -65q-33 -72 -85 -129.5 t-116.5 -99.5t-138.5 -66.5t-149 -30.5l6 -76q68 12 120 4q47 -6 85 -33.5t38 -93.5q0 -33 -13 -56t-35.5 -38.5t-51.5 -25t-59 -15.5q-70 -12 -158 -6v84q72 2 125 10q47 6 84 17.5t31 29.5q-10 23 -48 31t-81 8q-51 0 -111 -8v166q-109 2 -212 46t-184 131t-131.5 222.5 t-50.5 323.5zM592 47v4v-4z" />
<glyph unicode="&#xc8;" horiz-adv-x="1085" d="M10 713.5q0 13.5 4 13.5h60l-4 791l931 -11l3 -67q-68 -2 -152 -3t-174 -2t-177 -1h-160h-125h-69l13 -707h138h169t174 1t156 1l2 -67l-637 -19l10 -557l829 8l3 -67l-69 -3q-69 -4 -171 -7t-222 -7t-223.5 -7t-170.5 -4l-68 -1l-4 643h-58q-4 23 -6 43q-2 16 -2 29.5z M326 1845l57 92l17 -12q16 -12 42.5 -32.5t60.5 -45t68 -51.5l189 -139l-43 -55z" />
<glyph unicode="&#xc9;" horiz-adv-x="1085" d="M10 713.5q0 13.5 4 13.5h60l-4 791l931 -11l3 -67q-68 -2 -152 -3t-174 -2t-177 -1h-160h-125h-69l13 -707h138h169t174 1t156 1l2 -67l-637 -19l10 -557l829 8l3 -67l-69 -3q-69 -4 -171 -7t-222 -7t-223.5 -7t-170.5 -4l-68 -1l-4 643h-58q-4 23 -6 43q-2 16 -2 29.5z M328 1657l188 139q35 27 68.5 51.5t60.5 45t43 32.5l17 12l57 -92l-391 -243z" />
<glyph unicode="&#xca;" horiz-adv-x="1085" d="M10 713.5q0 13.5 4 13.5h60l-4 791l931 -11l3 -67q-68 -2 -152 -3t-174 -2t-177 -1h-160h-125h-69l13 -707h138h169t174 1t156 1l2 -67l-637 -19l10 -557l829 8l3 -67l-69 -3q-69 -4 -171 -7t-222 -7t-223.5 -7t-170.5 -4l-68 -1l-4 643h-58q-4 23 -6 43q-2 16 -2 29.5z M266 1655l18 21q19 22 46.5 54.5t59.5 70.5t59.5 71t46.5 54l18 20q16 2 31 2h33l15 -20q15 -21 38.5 -53t51.5 -67.5t52.5 -67.5t41 -54.5t20.5 -24.5l-74 -53q-2 2 -28.5 43t-61.5 90q-39 57 -88 129l-217 -268z" />
<glyph unicode="&#xcb;" horiz-adv-x="1085" d="M10 713.5q0 13.5 4 13.5h60l-4 791l931 -11l3 -67q-68 -2 -152 -3t-174 -2t-177 -1h-160h-125h-69l13 -707h138h169t174 1t156 1l2 -67l-637 -19l10 -557l829 8l3 -67l-69 -3q-69 -4 -171 -7t-222 -7t-223.5 -7t-170.5 -4l-68 -1l-4 643h-58q-4 23 -6 43q-2 16 -2 29.5z M336 1782l98 2l-2 -103l-92 2zM643 1782l98 2l-2 -103l-92 2z" />
<glyph unicode="&#xcc;" horiz-adv-x="841" d="M14 1493q106 4 234.5 6t240.5 6q131 4 265 8q0 -25 2 -43q0 -10 1 -17t1 -13v-13h-387l26 -1335h195.5t165.5 2l2 -67q-106 -4 -234.5 -7.5t-240.5 -7.5q-131 -4 -265 -6q0 23 -2 43q-2 16 -3 29.5t1 13.5h287q0 55 -2 161.5t-3 237t-3 273.5t-3 273t-2 233.5t1 156.5 q-76 0 -148.5 -1t-126.5 -1zM147 1845l58 92l17 -12q16 -12 42.5 -32.5t60 -45t68.5 -51.5l189 -139l-43 -55z" />
<glyph unicode="&#xcd;" horiz-adv-x="841" d="M14 1493q106 4 234.5 6t240.5 6q131 4 265 8q0 -25 2 -43q0 -10 1 -17t1 -13v-13h-387l26 -1335h195.5t165.5 2l2 -67q-106 -4 -234.5 -7.5t-240.5 -7.5q-131 -4 -265 -6q0 23 -2 43q-2 16 -3 29.5t1 13.5h287q0 55 -2 161.5t-3 237t-3 273.5t-3 273t-2 233.5t1 156.5 q-76 0 -148.5 -1t-126.5 -1zM158 1657l188 139q35 27 69 51.5t60.5 45t42.5 32.5l17 12l57 -92l-391 -243z" />
<glyph unicode="&#xce;" horiz-adv-x="841" d="M14 1493q106 4 234.5 6t240.5 6q131 4 265 8q0 -25 2 -43q0 -10 1 -17t1 -13v-13h-387l26 -1335h195.5t165.5 2l2 -67q-106 -4 -234.5 -7.5t-240.5 -7.5q-131 -4 -265 -6q0 23 -2 43q-2 16 -3 29.5t1 13.5h287q0 55 -2 161.5t-3 237t-3 273.5t-3 273t-2 233.5t1 156.5 q-76 0 -148.5 -1t-126.5 -1zM70 1655l18 21q18 22 46 54.5t59.5 70.5t59.5 71t46 54l18 20q16 2 31 2h33l15 -20q16 -21 39.5 -53t51 -67.5t52 -67.5t41 -54.5t20.5 -24.5l-74 -53q-2 2 -28.5 43t-61.5 90q-39 57 -88 129l-217 -268z" />
<glyph unicode="&#xcf;" horiz-adv-x="841" d="M14 1493q106 4 234.5 6t240.5 6q131 4 265 8q0 -25 2 -43q0 -10 1 -17t1 -13v-13h-387l26 -1335h195.5t165.5 2l2 -67q-106 -4 -234.5 -7.5t-240.5 -7.5q-131 -4 -265 -6q0 23 -2 43q-2 16 -3 29.5t1 13.5h287q0 55 -2 161.5t-3 237t-3 273.5t-3 273t-2 233.5t1 156.5 q-76 0 -148.5 -1t-126.5 -1zM139 1782l99 2l-2 -103l-93 2zM446 1782l99 2l-2 -103l-92 2z" />
<glyph unicode="&#xd0;" horiz-adv-x="1361" d="M14 700.5v14.5v12h121q-2 141 -3 278.5t-1 245t1 174t3 66.5q96 14 207 21.5t264 3.5q168 -4 293 -71t206 -171.5t121 -237.5t41 -272t-37 -272.5t-112 -240t-182.5 -174t-249.5 -75.5q-72 -4 -166 -3t-177 4t-141 7l-57 4q0 -2 -1 49.5t-3 138.5t-3 202.5t-3 240.5 q-29 -2 -49 -2h-37q-18 0 -31 -2q-2 23 -2 43q-2 8 -2 16.5zM213 1419l12 -692h247t243 2l2 -67l-490 -15l11 -547q41 -6 144 -15t273 1q127 8 224.5 66.5t164 150.5t101.5 209t36 237.5t-33 237.5t-104.5 212t-178 158.5t-255.5 76.5q-68 6 -130 7t-115.5 -2t-93.5 -8.5 t-58 -11.5z" />
<glyph unicode="&#xd1;" horiz-adv-x="1282" d="M25 1272.5q0 107.5 1 173t3 65.5l75 5l2 -111q78 57 190 85t231.5 21.5t238.5 -46.5t214 -119.5t153.5 -199.5t58.5 -284l8 -1200l-90 2q-2 6 -3 77t-1 177.5v237.5v259v240.5t-2 184.5q-4 162 -60.5 275.5t-144.5 185t-197.5 103.5t-219 29t-209 -39t-164.5 -100 l24 -1294q-27 2 -47 4q-18 0 -32.5 -1t-14.5 -5q0 -2 -1 61.5t-2 170t-3 242.5t-4 278.5t-3 278.5t-1 243.5zM274 1700l16 30q15 31 41.5 68t58.5 68.5t65 38.5q41 6 74.5 -20.5t61 -62.5t52.5 -68t47 -34q16 -2 44 25t54 59q31 37 62 88l51 -51q-37 -61 -74 -110 q-31 -41 -66.5 -75t-64.5 -34q-37 0 -69.5 30.5t-63.5 66.5t-57.5 63.5t-46.5 23.5q-23 -4 -44.5 -27.5t-39.5 -49.5q-23 -31 -41 -70l-29 20q-10 8 -20.5 13.5t-10.5 7.5z" />
<glyph unicode="&#xd2;" d="M20 770q8 199 65.5 341t144.5 233.5t197 132.5t222.5 34.5t219 -59.5t188.5 -148.5t130 -232.5t46 -313q-4 -178 -59.5 -316.5t-143.5 -233.5t-199.5 -147.5t-226.5 -56.5t-223.5 39t-191.5 137t-130 241.5t-39 348.5zM104 772q-6 -164 35 -289t110.5 -210t162 -130 t189.5 -48t191.5 35t171 117t126 199.5t55.5 284.5q6 168 -34 296t-109.5 214t-161.5 130t-190.5 47t-194 -36t-171 -119.5t-125 -203.5t-55.5 -287zM418 1845l57 92l17 -12q16 -12 42.5 -32.5t60.5 -45t69 -51.5l188 -139l-43 -55z" />
<glyph unicode="&#xd3;" d="M20 770q8 199 65.5 341t144.5 233.5t197 132.5t222.5 34.5t219 -59.5t188.5 -148.5t130 -232.5t46 -313q-4 -178 -59.5 -316.5t-143.5 -233.5t-199.5 -147.5t-226.5 -56.5t-223.5 39t-191.5 137t-130 241.5t-39 348.5zM104 772q-6 -164 35 -289t110.5 -210t162 -130 t189.5 -48t191.5 35t171 117t126 199.5t55.5 284.5q6 168 -34 296t-109.5 214t-161.5 130t-190.5 47t-194 -36t-171 -119.5t-125 -203.5t-55.5 -287zM418 1657l188 139q35 27 69 51.5t60.5 45t42.5 32.5l17 12l57 -92l-391 -243z" />
<glyph unicode="&#xd4;" d="M20 770q8 199 65.5 341t144.5 233.5t197 132.5t222.5 34.5t219 -59.5t188.5 -148.5t130 -232.5t46 -313q-4 -178 -59.5 -316.5t-143.5 -233.5t-199.5 -147.5t-226.5 -56.5t-223.5 39t-191.5 137t-130 241.5t-39 348.5zM104 772q-6 -164 35 -289t110.5 -210t162 -130 t189.5 -48t191.5 35t171 117t126 199.5t55.5 284.5q6 168 -34 296t-109.5 214t-161.5 130t-190.5 47t-194 -36t-171 -119.5t-125 -203.5t-55.5 -287zM334 1655l18 21q19 22 46.5 54.5t59 70.5t59.5 71t47 54l18 20q16 2 30 2h33l15 -20q16 -21 39.5 -53t51 -67.5t52 -67.5 t41 -54.5t20.5 -24.5l-73 -53q-2 2 -29 43t-62 90q-39 57 -88 129l-217 -268z" />
<glyph unicode="&#xd5;" d="M20 770q8 199 65.5 341t144.5 233.5t197 132.5t222.5 34.5t219 -59.5t188.5 -148.5t130 -232.5t46 -313q-4 -178 -59.5 -316.5t-143.5 -233.5t-199.5 -147.5t-226.5 -56.5t-223.5 39t-191.5 137t-130 241.5t-39 348.5zM104 772q-6 -164 35 -289t110.5 -210t162 -130 t189.5 -48t191.5 35t171 117t126 199.5t55.5 284.5q6 168 -34 296t-109.5 214t-161.5 130t-190.5 47t-194 -36t-171 -119.5t-125 -203.5t-55.5 -287zM311 1700l15 30q16 31 42.5 68t58.5 68.5t65 38.5q41 6 74.5 -20.5t61 -62.5t52.5 -68t47 -34q16 -2 44 25t54 59 q31 37 62 88l51 -51q-37 -61 -74 -110q-31 -41 -66.5 -75t-64.5 -34q-37 0 -69.5 30.5t-63.5 66.5t-57.5 63.5t-46.5 23.5q-23 -4 -44.5 -27.5t-39.5 -49.5q-23 -31 -41 -70l-29 20q-10 8 -20.5 13.5t-10.5 7.5z" />
<glyph unicode="&#xd6;" d="M20 770q8 199 65.5 341t144.5 233.5t197 132.5t222.5 34.5t219 -59.5t188.5 -148.5t130 -232.5t46 -313q-4 -178 -59.5 -316.5t-143.5 -233.5t-199.5 -147.5t-226.5 -56.5t-223.5 39t-191.5 137t-130 241.5t-39 348.5zM104 772q-6 -164 35 -289t110.5 -210t162 -130 t189.5 -48t191.5 35t171 117t126 199.5t55.5 284.5q6 168 -34 296t-109.5 214t-161.5 130t-190.5 47t-194 -36t-171 -119.5t-125 -203.5t-55.5 -287zM414 1782l98 2l-2 -103l-92 2zM721 1782l98 2l-2 -103l-92 2z" />
<glyph unicode="&#xd7;" horiz-adv-x="675" d="M2 909l45 47q78 -70 134.5 -119t109.5 -96l211 230l49 -43q-47 -53 -99.5 -114.5t-105.5 -121.5q98 -86 152.5 -133t83.5 -72q33 -29 43 -36l-64 -72l-3 4t-28.5 27.5t-80 75t-154.5 147.5q-43 -49 -79 -91t-64 -75q-33 -37 -60 -68l-33 29q-12 10 -23 19.5t-9 9.5 q29 31 63 67q29 31 67 73t81 89z" />
<glyph unicode="&#xd8;" d="M20 770q6 166 48.5 293t108 217t150.5 145.5t177 75t188 6t182 -58.5l36 81t28 62q12 31 25 56q23 -18 43 -31q8 -6 16 -12.5t14 -10.5q8 -6 13 -8q-2 0 -26 -52t-65 -138q61 -47 111.5 -110.5t87.5 -143.5t57.5 -176.5t18.5 -206.5q-2 -154 -44 -278t-110.5 -216 t-159 -152.5t-187.5 -87t-197.5 -19.5t-188.5 52q-20 -41 -34.5 -74.5t-24.5 -56.5q-12 -27 -23 -49l-65 47q8 23 20 49q10 23 24.5 54.5t32.5 72.5q-121 86 -193.5 252t-62.5 418zM104 772q-8 -205 54.5 -347t163.5 -224q53 121 120.5 273.5t138 311t138 311t121.5 273.5 q-113 55 -240 46t-234.5 -84t-181.5 -215t-80 -345zM391 154q113 -61 241 -57.5t239.5 75.5t188.5 211t85 348q8 211 -56.5 357.5t-166.5 228.5z" />
<glyph unicode="&#xd9;" horiz-adv-x="1282" d="M16 1509l90 -2q2 -6 3.5 -51t1.5 -113.5v-155.5v-177v-178.5t2 -157.5q2 -162 58 -274.5t143 -184.5t197 -103.5t218.5 -29.5t207.5 36t167 95l-21 1300q25 -4 47 -4q16 -2 32 0t16 7q0 2 1 -76t2 -207t3 -296t3 -340t3 -340t2 -297t-1 -210t-3 -80l-76 -4l-6 438 q-80 -55 -190.5 -81.5t-230.5 -20.5t-238.5 47t-212 120t-151.5 198.5t-58 283.5zM377 1845l57 92l16 -12q17 -12 43.5 -32.5t60.5 -45t69 -51.5l188 -139l-43 -55z" />
<glyph unicode="&#xda;" horiz-adv-x="1282" d="M16 1509l90 -2q2 -6 3.5 -51t1.5 -113.5v-155.5v-177v-178.5t2 -157.5q2 -162 58 -274.5t143 -184.5t197 -103.5t218.5 -29.5t207.5 36t167 95l-21 1300q25 -4 47 -4q16 -2 32 0t16 7q0 2 1 -76t2 -207t3 -296t3 -340t3 -340t2 -297t-1 -210t-3 -80l-76 -4l-6 438 q-80 -55 -190.5 -81.5t-230.5 -20.5t-238.5 47t-212 120t-151.5 198.5t-58 283.5zM389 1657l189 139q35 27 68.5 51.5t60 45t43.5 32.5l16 12l57 -92l-391 -243z" />
<glyph unicode="&#xdb;" horiz-adv-x="1282" d="M16 1509l90 -2q2 -6 3.5 -51t1.5 -113.5v-155.5v-177v-178.5t2 -157.5q2 -162 58 -274.5t143 -184.5t197 -103.5t218.5 -29.5t207.5 36t167 95l-21 1300q25 -4 47 -4q16 -2 32 0t16 7q0 2 1 -76t2 -207t3 -296t3 -340t3 -340t2 -297t-1 -210t-3 -80l-76 -4l-6 438 q-80 -55 -190.5 -81.5t-230.5 -20.5t-238.5 47t-212 120t-151.5 198.5t-58 283.5zM326 1655l18 21q18 22 46 54.5t59.5 70.5t59.5 71t46 54l18 20q16 2 31 2h33l15 -20q16 -21 39.5 -53t51 -67.5t52 -67.5t41 -54.5t20.5 -24.5l-74 -53q-2 2 -28.5 43t-61.5 90 q-39 57 -88 129l-217 -268z" />
<glyph unicode="&#xdc;" horiz-adv-x="1282" d="M16 1509l90 -2q2 -6 3.5 -51t1.5 -113.5v-155.5v-177v-178.5t2 -157.5q2 -162 58 -274.5t143 -184.5t197 -103.5t218.5 -29.5t207.5 36t167 95l-21 1300q25 -4 47 -4q16 -2 32 0t16 7q0 2 1 -76t2 -207t3 -296t3 -340t3 -340t2 -297t-1 -210t-3 -80l-76 -4l-6 438 q-80 -55 -190.5 -81.5t-230.5 -20.5t-238.5 47t-212 120t-151.5 198.5t-58 283.5zM391 1782l98 2l-2 -103l-92 2zM698 1782l99 2l-2 -103l-93 2z" />
<glyph unicode="&#xdd;" horiz-adv-x="1462" d="M8 1454q18 16 35 29q14 10 25.5 20t13.5 13l22 -48q23 -47 61 -127.5t87 -187t103.5 -224.5t110.5 -239t107.5 -232.5t93.5 -204.5t70 -153q45 98 95.5 213t101.5 233t103.5 236.5t99.5 227.5q111 254 223 510q23 -16 43 -29q16 -10 29.5 -19.5t13.5 -13.5 q0 -2 -35 -78.5t-92 -202.5t-131 -287t-150.5 -329t-150.5 -328.5t-132.5 -286.5t-95 -203t-38.5 -77l-66 47q4 0 44 84t101 219q-23 45 -64.5 131t-94 196t-112.5 236t-120 248q-139 291 -301 627zM530 1657l189 139q35 27 68.5 51.5t60 45t42.5 32.5l17 12l58 -92 l-392 -243z" />
<glyph unicode="&#xde;" horiz-adv-x="1001" d="M33 1274.5q0 107.5 1 173t3 65.5l76 5l6 -402q35 4 74.5 5t87.5 5q215 8 357 -38t214 -122.5t75 -171t-60.5 -178.5t-190.5 -146t-316 -77q-61 -4 -119.5 -5t-111.5 3l6 -395l-45 4q-16 0 -29.5 -1t-13.5 -5q0 -2 -1 61.5t-2 170t-3 243.5t-4 280.5t-3 280.5t-1 244.5z M119 1047l8 -580q45 -2 95.5 -1t107.5 3q174 4 288.5 51t170 112.5t51.5 141.5t-67.5 139.5t-185.5 104.5t-302 39q-51 -2 -91 -4t-75 -6z" />
<glyph unicode="&#xdf;" horiz-adv-x="1122" d="M34 867.5q-1 142.5 1 236.5q2 135 52 216t121 124t147.5 57.5t131.5 14.5q158 0 255.5 -43t141.5 -110t42 -150t-42 -162.5t-114 -147t-170 -106.5q119 -18 210 -82t146.5 -150t71.5 -182t-16.5 -179t-117.5 -139.5t-232 -62.5l-420 -6l2 86q31 0 87 -1t114.5 -1t109.5 1 t76 1q131 8 205.5 55t97 114.5t-1 147.5t-86 154t-159.5 133t-222 86q-14 12 -9 26.5t15 18.5q96 33 173 92.5t125 129t61.5 141t-16.5 130t-108.5 94.5t-213.5 34q-90 -2 -162 -20.5t-120 -60.5t-72.5 -109.5t-20.5 -166.5l16 -1417q-27 -2 -42 -1t-25 1h-17l-1 82t-3 210 t-4 289t-4 320.5t-3 302z" />
<glyph unicode="&#xe0;" horiz-adv-x="1103" d="M2 629q6 174 60.5 297t136.5 194.5t182 96t199.5 4t189.5 -84t150 -165.5v195.5t4 78.5l75 4l29 -1255q-27 2 -47 4q-18 0 -32.5 -1t-14.5 -5q0 -2 0 19.5t-1 61.5t-2 95t-3 121q-61 -109 -155.5 -174.5t-200 -87t-210 2t-187.5 97.5t-132 199t-41 303zM86 631 q-14 -178 39 -293t143 -171t200 -55t208 54t167.5 156.5t80.5 252.5q0 31 -1 61t-1 60q-14 141 -78 238.5t-152 148t-188.5 49t-188.5 -55.5t-151.5 -164.5t-77.5 -280.5zM305 1559l57 92l16 -13q17 -12 44 -32.5t60.5 -45t68.5 -51.5l188 -139l-43 -55z" />
<glyph unicode="&#xe1;" horiz-adv-x="1103" d="M2 629q6 174 60.5 297t136.5 194.5t182 96t199.5 4t189.5 -84t150 -165.5v195.5t4 78.5l75 4l29 -1255q-27 2 -47 4q-18 0 -32.5 -1t-14.5 -5q0 -2 0 19.5t-1 61.5t-2 95t-3 121q-61 -109 -155.5 -174.5t-200 -87t-210 2t-187.5 97.5t-132 199t-41 303zM86 631 q-14 -178 39 -293t143 -171t200 -55t208 54t167.5 156.5t80.5 252.5q0 31 -1 61t-1 60q-14 141 -78 238.5t-152 148t-188.5 49t-188.5 -55.5t-151.5 -164.5t-77.5 -280.5zM305 1370l189 143q35 27 68.5 52.5t60 45t43.5 33.5l16 13l57 -92l-391 -250z" />
<glyph unicode="&#xe2;" horiz-adv-x="1103" d="M2 629q6 174 60.5 297t136.5 194.5t182 96t199.5 4t189.5 -84t150 -165.5v195.5t4 78.5l75 4l29 -1255q-27 2 -47 4q-18 0 -32.5 -1t-14.5 -5q0 -2 0 19.5t-1 61.5t-2 95t-3 121q-61 -109 -155.5 -174.5t-200 -87t-210 2t-187.5 97.5t-132 199t-41 303zM86 631 q-14 -178 39 -293t143 -171t200 -55t208 54t167.5 156.5t80.5 252.5q0 31 -1 61t-1 60q-14 141 -78 238.5t-152 148t-188.5 49t-188.5 -55.5t-151.5 -164.5t-77.5 -280.5zM246 1366l18 22q19 21 46.5 54t59 70.5t59.5 70.5t47 53l18 21q16 2 30 2h33l15 -21q16 -20 39.5 -52 t51 -67.5t52 -67.5t41 -54.5t20.5 -24.5l-74 -53q-2 2 -28.5 43t-61.5 90q-39 57 -88 129l-217 -268z" />
<glyph unicode="&#xe3;" horiz-adv-x="1103" d="M2 629q6 174 60.5 297t136.5 194.5t182 96t199.5 4t189.5 -84t150 -165.5v195.5t4 78.5l75 4l29 -1255q-27 2 -47 4q-18 0 -32.5 -1t-14.5 -5q0 -2 0 19.5t-1 61.5t-2 95t-3 121q-61 -109 -155.5 -174.5t-200 -87t-210 2t-187.5 97.5t-132 199t-41 303zM86 631 q-14 -178 39 -293t143 -171t200 -55t208 54t167.5 156.5t80.5 252.5q0 31 -1 61t-1 60q-14 141 -78 238.5t-152 148t-188.5 49t-188.5 -55.5t-151.5 -164.5t-77.5 -280.5zM207 1419l15 31q16 31 42.5 67.5t58 68.5t64.5 38q41 6 75 -20.5t61.5 -62.5t52 -67.5t47.5 -33.5 q16 -2 43.5 24.5t54.5 59.5q31 37 61 88l52 -51q-37 -61 -74 -111q-31 -41 -67 -75t-64 -34q-37 0 -70 31t-63.5 67t-57 63.5t-47.5 23.5q-23 -4 -44 -27.5t-40 -50.5q-23 -31 -41 -70l-28 21q-10 8 -20.5 13t-10.5 7z" />
<glyph unicode="&#xe4;" horiz-adv-x="1103" d="M2 629q6 174 60.5 297t136.5 194.5t182 96t199.5 4t189.5 -84t150 -165.5v195.5t4 78.5l75 4l29 -1255q-27 2 -47 4q-18 0 -32.5 -1t-14.5 -5q0 -2 0 19.5t-1 61.5t-2 95t-3 121q-61 -109 -155.5 -174.5t-200 -87t-210 2t-187.5 97.5t-132 199t-41 303zM86 631 q-14 -178 39 -293t143 -171t200 -55t208 54t167.5 156.5t80.5 252.5q0 31 -1 61t-1 60q-14 141 -78 238.5t-152 148t-188.5 49t-188.5 -55.5t-151.5 -164.5t-77.5 -280.5zM315 1520l99 2l-2 -103l-93 2zM623 1520l98 2l-2 -103l-92 2z" />
<glyph unicode="&#xe5;" horiz-adv-x="1103" d="M2 629q6 174 60.5 297t136.5 194.5t182 96t199.5 4t189.5 -84t150 -165.5v195.5t4 78.5l75 4l29 -1255q-27 2 -47 4q-18 0 -32.5 -1t-14.5 -5q0 -2 0 19.5t-1 61.5t-2 95t-3 121q-61 -109 -155.5 -174.5t-200 -87t-210 2t-187.5 97.5t-132 199t-41 303zM86 631 q-14 -178 39 -293t143 -171t200 -55t208 54t167.5 156.5t80.5 252.5q0 31 -1 61t-1 60q-14 141 -78 238.5t-152 148t-188.5 49t-188.5 -55.5t-151.5 -164.5t-77.5 -280.5zM315 1491q2 72 33 116t74 64.5t92 17.5t92 -28t71 -69t28 -105q0 -63 -30 -106.5t-75 -67t-96 -25.5 t-94 19.5t-71 66.5t-24 117zM385 1493q-6 -63 27.5 -95t80 -33t88.5 28.5t48 91.5q6 59 -30 92t-82 35t-86 -27t-46 -92z" />
<glyph unicode="&#xe6;" horiz-adv-x="2074" d="M2 629q8 190 70.5 318t156 196.5t205 82t217 -26.5t192.5 -129t130 -222q35 117 98.5 196.5t142 123.5t167.5 53.5t175 -14t164 -78t135 -136.5q20 -29 40 -72.5t35.5 -95t24.5 -103.5t9 -99l-944 -27q-8 -156 36 -264.5t117.5 -171t167 -78.5t185.5 12.5t171 104 t124 196.5l88 -65q-43 -94 -111.5 -162t-151.5 -106.5t-172.5 -48t-173 11t-157.5 74t-125 139.5l10 -244q-27 2 -47 4q-18 0 -32.5 -1t-14.5 -5q0 -2 -1 20.5t-2 62.5t-2 94t-3 114q-61 -106 -156.5 -171t-200 -85.5t-209 4t-186.5 98.5t-131 198t-41 302zM86 631 q-14 -174 37 -288t138 -171t193.5 -60t204 45t170 144t91.5 238v184q-18 135 -84 227t-154 138.5t-187.5 43t-185.5 -59.5t-147.5 -165.5t-75.5 -275.5zM1028 682h81h162h199.5h195.5t146.5 1t55.5 3q-4 61 -22.5 129t-41.5 111q-45 84 -114.5 136t-148.5 68.5t-162 -2 t-154.5 -75t-124.5 -148.5t-72 -223z" />
<glyph unicode="&#xe7;" horiz-adv-x="1024" d="M16 623q6 170 59.5 290.5t133.5 193.5t179 99.5t198.5 11t190.5 -73t157 -151.5l-51 -67q-59 82 -137 132t-161 64.5t-164 -7t-148.5 -83t-113.5 -163t-59 -244.5q-14 -162 29 -272.5t118 -174t170 -80t188 12t172 100.5t122 184l88 -65q-66 -141 -182.5 -220t-245.5 -96 l6 -86q68 12 121 4q47 -6 85 -33.5t38 -93.5q0 -33 -13.5 -56t-36 -38.5t-51 -25t-59.5 -15.5q-70 -12 -157 -6v84q72 2 124 10q47 6 84 17.5t31 29.5q-10 23 -48 31t-81 8q-51 0 -110 -8v174q-96 0 -184.5 38t-155 113t-104.5 189.5t-32 272.5zM489 47v4v-4z" />
<glyph unicode="&#xe8;" horiz-adv-x="1150" d="M16 623q6 170 59.5 290.5t133.5 193.5t179 99.5t198.5 11t190.5 -73t157 -151.5q20 -29 39.5 -72.5t35 -95t24.5 -103.5t9 -99l-944 -27q-2 -139 44 -241.5t121 -166t166 -84t181 3t167 95t122 192.5l88 -65q-55 -121 -150.5 -197t-206 -105.5t-223 -9t-201.5 93 t-143.5 199.5t-46.5 312zM104 682h81h163h200.5h196t146.5 1t55 3q-4 61 -22.5 129t-40.5 111q-45 84 -116 136t-151.5 68.5t-164.5 -2t-156 -74t-123 -148.5t-68 -224zM313 1559l58 92l16 -13q16 -12 43 -32.5t60.5 -45t68.5 -51.5l189 -139l-43 -55z" />
<glyph unicode="&#xe9;" horiz-adv-x="1150" d="M16 623q6 170 59.5 290.5t133.5 193.5t179 99.5t198.5 11t190.5 -73t157 -151.5q20 -29 39.5 -72.5t35 -95t24.5 -103.5t9 -99l-944 -27q-2 -139 44 -241.5t121 -166t166 -84t181 3t167 95t122 192.5l88 -65q-55 -121 -150.5 -197t-206 -105.5t-223 -9t-201.5 93 t-143.5 199.5t-46.5 312zM104 682h81h163h200.5h196t146.5 1t55 3q-4 61 -22.5 129t-40.5 111q-45 84 -116 136t-151.5 68.5t-164.5 -2t-156 -74t-123 -148.5t-68 -224zM311 1370l189 139q35 27 68.5 51.5t60 45t43.5 32.5l16 13l57 -92l-391 -244z" />
<glyph unicode="&#xea;" horiz-adv-x="1150" d="M16 623q6 170 59.5 290.5t133.5 193.5t179 99.5t198.5 11t190.5 -73t157 -151.5q20 -29 39.5 -72.5t35 -95t24.5 -103.5t9 -99l-944 -27q-2 -139 44 -241.5t121 -166t166 -84t181 3t167 95t122 192.5l88 -65q-55 -121 -150.5 -197t-206 -105.5t-223 -9t-201.5 93 t-143.5 199.5t-46.5 312zM104 682h81h163h200.5h196t146.5 1t55 3q-4 61 -22.5 129t-40.5 111q-45 84 -116 136t-151.5 68.5t-164.5 -2t-156 -74t-123 -148.5t-68 -224zM246 1366l18 22q19 21 46.5 54t59 70.5t59.5 70.5t47 53l18 21q16 2 30 2h33l15 -21q16 -20 39.5 -52 t51 -67.5t52 -67.5t41 -54.5t20.5 -24.5l-74 -53q-2 2 -28.5 43t-61.5 90q-39 57 -88 129l-217 -268z" />
<glyph unicode="&#xeb;" horiz-adv-x="1150" d="M16 623q6 170 59.5 290.5t133.5 193.5t179 99.5t198.5 11t190.5 -73t157 -151.5q20 -29 39.5 -72.5t35 -95t24.5 -103.5t9 -99l-944 -27q-2 -139 44 -241.5t121 -166t166 -84t181 3t167 95t122 192.5l88 -65q-55 -121 -150.5 -197t-206 -105.5t-223 -9t-201.5 93 t-143.5 199.5t-46.5 312zM104 682h81h163h200.5h196t146.5 1t55 3q-4 61 -22.5 129t-40.5 111q-45 84 -116 136t-151.5 68.5t-164.5 -2t-156 -74t-123 -148.5t-68 -224zM322 1520l98 2l-2 -103l-92 2zM629 1520l98 2l-2 -103l-92 2z" />
<glyph unicode="&#xec;" horiz-adv-x="493" d="M0 1559l57 92l17 -13q16 -12 42.5 -32.5t60.5 -45t69 -51.5l188 -139l-43 -55zM20 1217v12h379q2 -84 3 -182.5t3.5 -201t3.5 -204.5t3 -197q4 -221 8 -444l-45 4q-16 2 -31.5 1t-17.5 -5q0 -2 0 51t1 144.5t1 210v247.5v260v246l-303 -16q-2 23 -2 43q-2 8 -2.5 16 t-0.5 15z" />
<glyph unicode="&#xed;" horiz-adv-x="493" d="M4 1370l189 139q35 27 68.5 51.5t60 45t42.5 32.5l17 13l57 -92l-391 -244zM20 1217v12h379q2 -84 3 -182.5t3.5 -201t3.5 -204.5t3 -197q4 -221 8 -444l-45 4q-16 2 -31.5 1t-17.5 -5q0 -2 0 51t1 144.5t1 210v247.5v260v246l-303 -16q-2 23 -2 43q-2 8 -2.5 16t-0.5 15 z" />
<glyph unicode="&#xee;" horiz-adv-x="557" d="M0 1366l18 22q19 21 46.5 54t59.5 70.5t59.5 70.5t46.5 53l18 21q16 2 31 2h32l15 -21q16 -20 39.5 -52t51 -67.5t52.5 -67.5t41 -54.5t20 -24.5l-73 -53q-2 2 -29 43t-61 90q-39 57 -88 129l-218 -268zM70 1202v15v12h379q2 -84 3 -182.5t3 -201t3 -204.5t3 -197 q4 -221 8 -444l-45 4q-16 2 -31.5 1t-17.5 -5q0 -2 0 51t1 144.5t1 210v247.5v260v246l-303 -16q-2 23 -2 43q-2 8 -2 16z" />
<glyph unicode="&#xef;" horiz-adv-x="493" d="M20 1217v12h379q2 -84 3 -182.5t3.5 -201t3.5 -204.5t3 -197q4 -221 8 -444l-45 4q-16 2 -31.5 1t-17.5 -5q0 -2 0 51t1 144.5t1 210v247.5v260v246l-303 -16q-2 23 -2 43q-2 8 -2.5 16t-0.5 15zM51 1520l99 2l-3 -103l-92 2zM276 1520l99 2l-2 -103l-92 2z" />
<glyph unicode="&#xf0;" horiz-adv-x="1015" d="M25 440q-4 106 26.5 188.5t86 137.5t129 86t152.5 37t158.5 -11.5t149.5 -58.5l-123 275q-66 -35 -124 -68t-103 -55q-53 -29 -96 -51l-21 36q-8 14 -15 25.5t-5 11.5l102 51q47 23 106.5 52.5t124.5 62.5q-59 131 -99 214t-40 85q0 4 13.5 13.5t29.5 19.5q18 12 43 29 q14 -39 37 -90q16 -43 42 -101.5t54 -128.5l213 109l31 -60q-51 -29 -106.5 -57.5t-110.5 -56.5l188 -445q29 -59 44.5 -117.5t15.5 -123.5q0 -137 -65.5 -236.5t-164 -153t-213 -59.5t-215 39t-170 144.5t-75.5 256.5zM106 438q10 -125 71 -202.5t145 -112.5t178 -28 t172 55.5t126 136.5t40 213q0 10 -1 18t-6.5 23.5t-15.5 43t-31 79.5q-43 63 -111.5 98t-146 42t-156.5 -13.5t-140.5 -66.5t-96.5 -118t-27 -168z" />
<glyph unicode="&#xf1;" horiz-adv-x="1134" d="M25 1054q0 89 1 143t3 54l75 4l7 -319q53 127 142 197.5t191.5 87t206 -17.5t187.5 -112.5t137 -202.5t53 -286l8 -594l-90 2q-4 10 -4 60.5v128v176t-2 205.5q-4 170 -60.5 290.5t-140.5 188t-184 79t-190.5 -33.5t-158 -151.5t-89.5 -274.5l16 -678q-27 2 -47 4 q-18 0 -32.5 -1t-14.5 -5q0 -2 -1 50t-2 140t-3 201t-4 230.5t-3 231.5t-1 203zM221 1419l15 31q16 31 42.5 67.5t58.5 68.5t64 38q41 6 75 -20.5t61.5 -62.5t52 -67.5t47.5 -33.5q16 -2 44 24.5t54 59.5q31 37 62 88l51 -51q-37 -61 -74 -111q-31 -41 -66.5 -75t-64.5 -34 q-37 0 -69.5 31t-63.5 67t-57.5 63.5t-46.5 23.5q-23 -4 -44.5 -27.5t-39.5 -50.5q-23 -31 -41 -70l-29 21q-10 8 -20.5 13t-10.5 7z" />
<glyph unicode="&#xf2;" horiz-adv-x="1089" d="M2 623q6 162 53 277.5t119 189t162 106.5t183 27t181 -50.5t157 -122t111 -188t42 -252.5q0 -141 -45 -250.5t-118 -186.5t-165 -118t-188.5 -45t-187.5 31t-160.5 109.5t-109.5 192.5t-34 280zM86 625q-14 -176 42 -291t148.5 -172.5t204 -58.5t209.5 53.5t166 163 t70 268.5q2 174 -54.5 295t-145.5 185.5t-194.5 70.5t-199.5 -48.5t-163 -170t-83 -295.5zM303 1559l57 92l16 -13q17 -12 43.5 -32.5t60.5 -45t69 -51.5l188 -139l-43 -55z" />
<glyph unicode="&#xf3;" horiz-adv-x="1089" d="M2 623q6 162 53 277.5t119 189t162 106.5t183 27t181 -50.5t157 -122t111 -188t42 -252.5q0 -141 -45 -250.5t-118 -186.5t-165 -118t-188.5 -45t-187.5 31t-160.5 109.5t-109.5 192.5t-34 280zM86 625q-14 -176 42 -291t148.5 -172.5t204 -58.5t209.5 53.5t166 163 t70 268.5q2 174 -54.5 295t-145.5 185.5t-194.5 70.5t-199.5 -48.5t-163 -170t-83 -295.5zM283 1370l188 139q35 27 68.5 51.5t60.5 45t43 32.5l16 13l58 -92l-391 -244z" />
<glyph unicode="&#xf4;" horiz-adv-x="1089" d="M2 623q6 162 53 277.5t119 189t162 106.5t183 27t181 -50.5t157 -122t111 -188t42 -252.5q0 -141 -45 -250.5t-118 -186.5t-165 -118t-188.5 -45t-187.5 31t-160.5 109.5t-109.5 192.5t-34 280zM86 625q-14 -176 42 -291t148.5 -172.5t204 -58.5t209.5 53.5t166 163 t70 268.5q2 174 -54.5 295t-145.5 185.5t-194.5 70.5t-199.5 -48.5t-163 -170t-83 -295.5zM221 1366l19 22q18 21 45.5 54t59.5 70.5t59.5 70.5t45.5 53l19 21q16 2 31 2h32l16 -21q15 -20 38.5 -52t51.5 -67.5t52.5 -67.5t41 -54.5t20.5 -24.5l-74 -53q-2 2 -28.5 43 t-61.5 90q-39 57 -88 129l-217 -268z" />
<glyph unicode="&#xf5;" horiz-adv-x="1089" d="M2 623q6 162 53 277.5t119 189t162 106.5t183 27t181 -50.5t157 -122t111 -188t42 -252.5q0 -141 -45 -250.5t-118 -186.5t-165 -118t-188.5 -45t-187.5 31t-160.5 109.5t-109.5 192.5t-34 280zM86 625q-14 -176 42 -291t148.5 -172.5t204 -58.5t209.5 53.5t166 163 t70 268.5q2 174 -54.5 295t-145.5 185.5t-194.5 70.5t-199.5 -48.5t-163 -170t-83 -295.5zM201 1419l15 31t42 67.5t58.5 68.5t64.5 38q41 6 74.5 -20.5t61.5 -62.5l52.5 -67.5t46.5 -33.5q16 -2 44 24.5t55 59.5q31 37 61 88l51 -51q-37 -61 -73 -111q-31 -41 -67 -75 t-64 -34q-37 0 -70 31t-63.5 67t-57 63.5t-47.5 23.5q-23 -4 -44.5 -27.5t-39.5 -50.5q-23 -31 -41 -70l-29 21q-10 8 -20 13t-10 7z" />
<glyph unicode="&#xf6;" horiz-adv-x="1089" d="M2 623q6 162 53 277.5t119 189t162 106.5t183 27t181 -50.5t157 -122t111 -188t42 -252.5q0 -141 -45 -250.5t-118 -186.5t-165 -118t-188.5 -45t-187.5 31t-160.5 109.5t-109.5 192.5t-34 280zM86 625q-14 -176 42 -291t148.5 -172.5t204 -58.5t209.5 53.5t166 163 t70 268.5q2 174 -54.5 295t-145.5 185.5t-194.5 70.5t-199.5 -48.5t-163 -170t-83 -295.5zM291 1520l98 2l-2 -103l-92 2zM598 1520l98 2l-2 -103l-92 2z" />
<glyph unicode="&#xf7;" horiz-adv-x="784" d="M0 700.5v14.5v12h262h230.5t207.5 2l2 -67q-106 -4 -228 -7.5t-226 -7.5q-123 -4 -244 -6q-2 23 -2 43q-2 8 -2 16.5zM289 905l98 2l-2 -102l-92 2zM293 578l98 2l-2 -103l-92 2z" />
<glyph unicode="&#xf8;" horiz-adv-x="1089" d="M2 623q8 199 75.5 328.5t167 197.5t217.5 73t226 -44q23 49 40 89t30 68q14 35 26 62q23 -18 43 -31q8 -6 16.5 -12t14.5 -11q8 -6 12 -8q-2 0 -28.5 -57t-69.5 -150q104 -76 171 -205.5t67 -312.5q0 -121 -34 -219t-90.5 -172t-130 -123t-154.5 -70.5t-165 -15.5 t-157 41q-20 -41 -35 -73.5t-25 -55.5q-12 -27 -22 -49l-66 47q10 23 23 49q10 23 24.5 54.5t30.5 70.5q-96 70 -155.5 201t-51.5 328zM86 625q-14 -162 33 -271.5t129 -171.5l409 924q-88 39 -183 29.5t-177 -68.5t-140.5 -169.5t-70.5 -272.5zM317 139q92 -43 199 -34.5 t197 65.5t150.5 161.5t62.5 256.5q2 168 -50.5 285.5t-136.5 183.5q-47 -98 -101 -218t-110.5 -243t-111 -240.5t-99.5 -216.5z" />
<glyph unicode="&#xf9;" horiz-adv-x="1122" d="M18 1221l91 -2q2 -10 3 -60.5t1 -128.5v-176t2 -205q4 -172 60 -291.5t140 -187.5t183.5 -80t189.5 34t158.5 151.5t89.5 273.5l-14 680q25 -4 47 -4q16 -2 31.5 0t15.5 6q0 2 1 -49.5t2 -138.5t3 -197.5t3 -226t3 -227t2 -200t-1 -141.5t-3 -53l-76 -4l-8 299 q-53 -127 -142 -197.5t-190.5 -87t-206 17t-187.5 112.5t-136 203t-53 286zM305 1559l57 92l16 -13q17 -12 44 -32.5t60.5 -45t68.5 -51.5l188 -139l-43 -55z" />
<glyph unicode="&#xfa;" horiz-adv-x="1122" d="M18 1221l91 -2q2 -10 3 -60.5t1 -128.5v-176t2 -205q4 -172 60 -291.5t140 -187.5t183.5 -80t189.5 34t158.5 151.5t89.5 273.5l-14 680q25 -4 47 -4q16 -2 31.5 0t15.5 6q0 2 1 -49.5t2 -138.5t3 -197.5t3 -226t3 -227t2 -200t-1 -141.5t-3 -53l-76 -4l-8 299 q-53 -127 -142 -197.5t-190.5 -87t-206 17t-187.5 112.5t-136 203t-53 286zM305 1370l189 139q35 27 68.5 51.5t60 45t43.5 32.5l16 13l57 -92l-391 -244z" />
<glyph unicode="&#xfb;" horiz-adv-x="1122" d="M18 1221l91 -2q2 -10 3 -60.5t1 -128.5v-176t2 -205q4 -172 60 -291.5t140 -187.5t183.5 -80t189.5 34t158.5 151.5t89.5 273.5l-14 680q25 -4 47 -4q16 -2 31.5 0t15.5 6q0 2 1 -49.5t2 -138.5t3 -197.5t3 -226t3 -227t2 -200t-1 -141.5t-3 -53l-76 -4l-8 299 q-53 -127 -142 -197.5t-190.5 -87t-206 17t-187.5 112.5t-136 203t-53 286zM246 1366l18 22q19 21 46.5 54t59 70.5t59.5 70.5t47 53l18 21q16 2 30 2h33l15 -21q16 -20 39.5 -52t51 -67.5t52 -67.5t41 -54.5t20.5 -24.5l-74 -53q-2 2 -28.5 43t-61.5 90q-39 57 -88 129 l-217 -268z" />
<glyph unicode="&#xfc;" horiz-adv-x="1122" d="M18 1221l91 -2q2 -10 3 -60.5t1 -128.5v-176t2 -205q4 -172 60 -291.5t140 -187.5t183.5 -80t189.5 34t158.5 151.5t89.5 273.5l-14 680q25 -4 47 -4q16 -2 31.5 0t15.5 6q0 2 1 -49.5t2 -138.5t3 -197.5t3 -226t3 -227t2 -200t-1 -141.5t-3 -53l-76 -4l-8 299 q-53 -127 -142 -197.5t-190.5 -87t-206 17t-187.5 112.5t-136 203t-53 286zM315 1520l99 2l-2 -103l-93 2zM623 1520l98 2l-2 -103l-92 2z" />
<glyph unicode="&#xfd;" horiz-adv-x="1243" d="M12 1157l8 8l13 11l14 12l10 8q12 10 22.5 16.5t16.5 6.5q0 -2 2 -2q0 -2 4 -7l21 -43q29 -59 81 -169.5t111 -241.5l60 -133q27 -55 51.5 -109.5t46.5 -107.5q10 -23 19.5 -42.5t17.5 -39.5q18 -39 33.5 -75t29.5 -67l15 -28l18 -43q10 -27 18.5 -44.5t12.5 -27.5 q0 -4 1 -4t1 -2t2 -2l-57 -35q-2 0 -9 6l-6 10l-16 29q-14 23 -30.5 56.5t-37.5 74.5q-29 57 -62.5 126t-70.5 142l-125 262l-41 84q-37 78 -69.5 144.5t-55.5 118.5q-27 59 -49 108l8 8l13 11l14 12l10 8q12 10 22.5 16.5t16.5 6.5q0 -2 2 -2q0 -2 4 -7l21 -43 q29 -59 81 -169.5t111 -241.5l60 -133q27 -55 51.5 -109.5t46.5 -107.5q10 -23 19.5 -42.5t17.5 -39.5q18 -39 33.5 -75t29.5 -67l15 -28l18 -43q37 84 78 176t82 186t81 186.5t77 176.5q84 197 170 389q23 -16 43 -29q16 -10 29.5 -19.5t13.5 -13.5q0 -2 -30 -66.5 t-78 -170t-109.5 -239.5t-126 -274.5t-127 -274.5t-111.5 -238.5t-80 -169t-33 -64.5l-65 47q2 0 14 22.5t30.5 63.5t44.5 96.5t56 122.5l-12 23q-14 23 -30.5 56.5t-37.5 74.5q-29 57 -62.5 126t-70.5 142l-125 262l-41 84q-37 78 -69.5 144.5t-55.5 118.5q-27 59 -49 108z M387 1370l188 139q35 27 69 51.5t60.5 45t43.5 32.5l16 13l57 -92l-391 -244zM565 18q4 -4 4 -6l6 -10q6 -6 9 -6l57 35q-2 0 -2 2t-1 2t-1 4q-4 10 -12.5 27.5t-18.5 44.5z" />
<glyph unicode="&#xfe;" horiz-adv-x="935" d="M33 1222q0 132 1 211.5t3 79.5l76 5l4 -398q68 61 148.5 86t162.5 13.5t158 -57.5t135 -123.5t95 -185.5t36 -243q0 -129 -35 -231.5t-92 -177t-132 -120.5t-156 -62.5t-160.5 0t-147.5 63.5l6 -424l-45 4q-16 0 -29.5 -1t-13.5 -5q0 -2 -1 77t-2 209t-3 297t-4 342 t-3 342t-1 299zM119 971l10 -766q80 -82 188.5 -97.5t208 33.5t169 162t73.5 285q2 139 -30.5 243.5t-87 173t-124 102.5t-142.5 30t-142.5 -45t-122.5 -121z" />
<glyph unicode="&#xff;" horiz-adv-x="1243" d="M12 1157l8 8l13 11l14 12l10 8q12 10 22.5 16.5t16.5 6.5q0 -2 2 -2q0 -2 4 -7q8 -16 26.5 -54t43.5 -91l104 -223q10 -23 19.5 -43.5t19.5 -42.5l60 -133l59 -131q10 -23 19.5 -44.5t19.5 -41.5q29 -63 54.5 -120t45.5 -104l33 -71l12 -31q4 -12 8.5 -21.5t8.5 -15.5 l6 -12l-57 -35q-4 0 -15 16q-18 31 -60 113t-95 192l-103 211l-43 86q-20 45 -40.5 88t-41.5 84l-18 41q-35 70 -63.5 130.5t-49.5 105.5q-25 53 -43 94l8 8l13 11l14 12l10 8q12 10 22.5 16.5t16.5 6.5q0 -2 2 -2q0 -2 4 -7q8 -16 26.5 -54t43.5 -91l104 -223 q10 -23 19.5 -43.5t19.5 -42.5l60 -133l59 -131q10 -23 19.5 -44.5t19.5 -41.5q29 -63 54.5 -120t45.5 -104l33 -71q37 84 78 176t82 186t81 186.5t77 176.5q84 197 170 389q23 -16 43 -29q16 -10 29.5 -19.5t13.5 -13.5q0 -2 -30 -66.5t-78 -170t-109.5 -239.5t-126 -274.5 t-127 -274.5t-111.5 -238.5t-80 -169t-33 -64.5l-65 47q2 0 14 22.5t30.5 63.5t44.5 96.5t56 122.5q-20 35 -60 115t-91 184l-103 211l-43 86q-20 45 -40.5 88t-41.5 84l-18 41q-35 70 -63.5 130.5t-49.5 105.5q-25 53 -43 94zM379 1520l98 2l-2 -103l-92 2zM565 18l41 93 l12 -31q4 -12 8.5 -21.5t8.5 -15.5l6 -12l-57 -35q-4 0 -15 16q0 2 -4 6zM686 1520l98 2l-2 -103l-92 2z" />
<glyph unicode="&#x152;" horiz-adv-x="1433" d="M0 770q8 186 62.5 324.5t139.5 230.5t189.5 137t210.5 49q8 0 51 -1t106.5 -1t142.5 -1t159 -1h155.5h133.5l2 -67q-90 -4 -191.5 -6t-200 -5.5t-182.5 -5.5t-139 -4l12 -692h236t258 2l2 -67l-494 -19l11 -551q39 0 120.5 -2t181 -3t202 -2t182.5 -1l2 -68 q-104 -4 -231.5 -6t-241 -4t-193.5 -3t-90 -1q-115 -4 -224.5 41t-194.5 140.5t-135 240.5t-42 346zM84 772q-6 -158 35 -279.5t109.5 -205.5t158.5 -131t182 -58l-6 543h-53q-4 23 -6 43q-2 16 -2 29.5t4 13.5h55q0 104 -1 205.5t-2 191.5t-1 164v123q-86 -14 -169 -61 t-149.5 -127t-108.5 -193t-46 -258z" />
<glyph unicode="&#x153;" horiz-adv-x="1884" d="M16 623q6 162 54.5 278.5t122 190t166 105.5t187.5 24.5t185 -51.5t160 -123q76 98 181.5 141t214 33.5t210.5 -67.5t174 -161q20 -29 40 -72.5t35 -95t24.5 -103.5t9.5 -99l-944 -27q-8 -156 35.5 -264.5t117.5 -171t167 -78.5t185.5 12.5t171 104t123.5 196.5l88 -65 q-61 -131 -168.5 -210t-229.5 -100.5t-241.5 15.5t-203.5 137q-74 -76 -169.5 -117t-193.5 -45t-191.5 31t-164 110.5t-111.5 192.5t-35 279zM100 625q-12 -143 20 -250t92 -175.5t141 -99t165 -23.5t165 52t142 127q-39 72 -57 162t-14 205q4 111 27.5 199.5t64.5 158.5 q-53 72 -126 110.5t-152 44t-157.5 -22.5t-144 -91.5t-111 -162.5t-55.5 -234zM844 682h80.5h162h200h195.5t146 1t55 3q-4 61 -22.5 129t-40.5 111q-45 84 -114.5 136t-148.5 68.5t-162 -2t-154.5 -75t-124 -148.5t-72.5 -223z" />
<glyph unicode="&#x178;" horiz-adv-x="1462" d="M8 1454q18 16 35 29q14 10 25.5 20t13.5 13l22 -48q23 -47 61 -127.5t87 -187t103.5 -224.5t110.5 -239t107.5 -232.5t93.5 -204.5t70 -153q45 98 95.5 213t101.5 233t103.5 236.5t99.5 227.5q111 254 223 510q23 -16 43 -29q16 -10 29.5 -19.5t13.5 -13.5 q0 -2 -35 -78.5t-92 -202.5t-131 -287t-150.5 -329t-150.5 -328.5t-132.5 -286.5t-95 -203t-38.5 -77l-66 47q4 0 44 84t101 219q-23 45 -64.5 131t-94 196t-112.5 236t-120 248q-139 291 -301 627zM516 1782l98 2l-2 -103l-92 2zM823 1782l99 2l-2 -103l-93 2z" />
<glyph unicode="&#x2c6;" horiz-adv-x="618" d="M20 1655l18 21q19 22 47 54.5t59.5 70.5t59 71t46.5 54l18 20q16 2 31 2h33l15 -20q15 -21 39 -53t51.5 -67.5t52 -67.5t41 -54.5t20.5 -24.5l-74 -53q-2 2 -28.5 43t-61.5 90q-39 57 -88 129l-217 -268z" />
<glyph unicode="&#x2dc;" horiz-adv-x="690" d="M8 1700l16 30q15 31 41.5 68t58.5 68.5t64 38.5q41 6 75 -20.5t61.5 -62.5t52 -68t47.5 -34q16 -2 44 25t54 59q31 37 62 88l51 -51q-37 -61 -74 -110q-31 -41 -66.5 -75t-64.5 -34q-37 0 -69.5 30.5t-63.5 66.5t-57.5 63.5t-46.5 23.5q-23 -4 -44.5 -27.5t-39.5 -49.5 q-23 -31 -41 -70l-29 20q-10 8 -20.5 13.5t-10.5 7.5z" />
<glyph unicode="&#x2000;" horiz-adv-x="992" />
<glyph unicode="&#x2001;" horiz-adv-x="1984" />
<glyph unicode="&#x2002;" horiz-adv-x="992" />
<glyph unicode="&#x2003;" horiz-adv-x="1984" />
<glyph unicode="&#x2004;" horiz-adv-x="661" />
<glyph unicode="&#x2005;" horiz-adv-x="496" />
<glyph unicode="&#x2006;" horiz-adv-x="330" />
<glyph unicode="&#x2007;" horiz-adv-x="330" />
<glyph unicode="&#x2008;" horiz-adv-x="248" />
<glyph unicode="&#x2009;" horiz-adv-x="396" />
<glyph unicode="&#x200a;" horiz-adv-x="110" />
<glyph unicode="&#x2010;" horiz-adv-x="659" d="M0 700.5v14.5v12h201h187t190 2l2 -67q-106 -4 -209 -7.5t-185 -7.5q-96 -4 -182 -6q-2 23 -2 43q-2 8 -2 16.5z" />
<glyph unicode="&#x2011;" horiz-adv-x="659" d="M0 700.5v14.5v12h201h187t190 2l2 -67q-106 -4 -209 -7.5t-185 -7.5q-96 -4 -182 -6q-2 23 -2 43q-2 8 -2 16.5z" />
<glyph unicode="&#x2012;" horiz-adv-x="659" d="M0 700.5v14.5v12h201h187t190 2l2 -67q-106 -4 -209 -7.5t-185 -7.5q-96 -4 -182 -6q-2 23 -2 43q-2 8 -2 16.5z" />
<glyph unicode="&#x2013;" horiz-adv-x="784" d="M0 700.5v14.5v12h262h230.5t207.5 2l2 -67q-106 -4 -228 -7.5t-226 -7.5q-123 -4 -244 -6q-2 23 -2 43q-2 8 -2 16.5z" />
<glyph unicode="&#x2014;" horiz-adv-x="966" d="M0 700.5v14.5v12h354h148h146.5t132 1t104.5 1l2 -67q-53 -2 -119 -4.5t-138.5 -3.5t-146 -3t-143.5 -4q-164 -4 -336 -6q-2 23 -2 43q-2 8 -2 16.5z" />
<glyph unicode="&#x2018;" horiz-adv-x="296" d="M6 1493l109 51l5 -14t13 -37t18.5 -50.5t22.5 -58.5q25 -70 59 -157l-59 -27z" />
<glyph unicode="&#x2019;" horiz-adv-x="296" d="M6 1227q33 88 60 157q23 59 41 108.5t18 51.5l108 -51l-167 -293z" />
<glyph unicode="&#x201a;" horiz-adv-x="251" d="M45 125h49h49q0 -2 -2 -53.5t-4 -112.5q-4 -72 -6 -166l-68 -6z" />
<glyph unicode="&#x201c;" horiz-adv-x="507" d="M6 1493l109 51l5 -14t13 -37t18.5 -50.5t22.5 -58.5q25 -70 59 -157l-59 -27zM215 1493l109 51l5 -14q5 -14 13 -37t18.5 -50.5t22.5 -58.5q25 -70 59 -157l-59 -27z" />
<glyph unicode="&#x201d;" horiz-adv-x="507" d="M14 1227q33 88 60 157q23 59 41 108.5t18 51.5l109 -51l-168 -293zM223 1227q33 88 60 157q23 59 41 108.5t18 51.5l109 -51l-168 -293z" />
<glyph unicode="&#x201e;" horiz-adv-x="415" d="M45 125h49h49q0 -2 -2 -53.5t-4 -112.5q-4 -72 -6 -166l-68 -6zM209 125h49h49q0 -2 -2 -53.5t-4 -112.5q-4 -72 -6 -166l-68 -6z" />
<glyph unicode="&#x2022;" horiz-adv-x="352" d="M20 698q4 49 26 82t52.5 47.5t64.5 13.5t62.5 -19.5t46 -52.5t13.5 -81q-4 -49 -26.5 -81t-54.5 -47t-66 -14t-61.5 18.5t-44 50t-12.5 83.5z" />
<glyph unicode="&#x2026;" horiz-adv-x="741" d="M43 125l121 4l-2 -127l-113 2zM268 125l121 4l-2 -127l-113 2zM492 125l120 4l-2 -127l-112 2z" />
<glyph unicode="&#x202f;" horiz-adv-x="396" />
<glyph unicode="&#x2039;" horiz-adv-x="851" d="M7 647q-1 92 52 182q14 27 51 59t86.5 65.5t105.5 67.5t114 64q133 72 293 148q14 -23 26 -41q4 -8 9.5 -15.5t9.5 -13.5q4 -8 8 -12l-37 -15q-37 -16 -95.5 -42.5t-129 -60.5t-137 -69.5t-121 -71.5t-78.5 -65q-123 -147 0 -325q16 -25 51 -56.5t79 -65.5t96 -70 t104 -68q121 -78 262 -162q-16 -20 -27 -39l-24 -41q0 -2 -40 23.5t-101.5 67.5t-136.5 95.5t-144.5 106.5t-125 100t-79.5 76q-70 86 -71 178z" />
<glyph unicode="&#x203a;" horiz-adv-x="835" d="M6 1151q4 4 8 12q8 14 19 29q10 18 26 41q160 -76 293 -148q57 -31 113.5 -64.5t106 -67t85.5 -65.5t52 -59q53 -90 52 -182t-71 -178q-25 -29 -80 -76t-124.5 -100t-144.5 -106.5t-136.5 -95.5t-101.5 -67.5t-40 -23.5q-4 4 -8 12l-9 13.5t-9 15.5q-10 18 -25 39 q141 84 262 162q51 33 102.5 68.5t96.5 69.5t79 65.5t52 56.5q123 178 0 325q-25 29 -79 65t-120.5 71.5t-137 69.5t-129 60.5t-95.5 42.5z" />
<glyph unicode="&#x205f;" horiz-adv-x="496" />
<glyph unicode="&#x20ac;" horiz-adv-x="995" d="M31 600v14v13h92q-2 23 -3 47t-1 51v23h-84q-2 23 -2 43q-2 8 -2 16v14v13h90q10 166 51 288.5t103.5 204.5t140.5 127t162 56.5t166.5 -8t156.5 -64.5l-49 -60q-90 49 -195.5 46t-200 -66.5t-164 -192.5t-85.5 -331h155h178t179 1t155 1l3 -68q-70 -2 -157 -5t-178 -5 t-180.5 -4t-158.5 -4v-23v-52.5t4 -47.5h152.5h179t180.5 1t155 1l3 -68q-68 -2 -153 -4t-174 -4t-176 -4t-157 -4q29 -160 100.5 -262.5t162.5 -149.5t191.5 -39t186.5 72l60 -70q-104 -74 -229.5 -91t-239 34t-200.5 174t-118 330q-23 -2 -40 -2h-30h-26q-2 23 -2 43 q-2 8 -2 16z" />
<glyph unicode="&#x2122;" horiz-adv-x="1003" d="M10 1499q39 0 103.5 1t128.5 3q74 2 153 4l2 -53h-141l12 -491h-59l-1 31q-1 32 -1 81t-1 108.5t-2 115t-1 97.5v58q-59 0 -110.5 -1t-80.5 -1zM442 1364v102t2 41l52 2v-39q37 29 79.5 29t79.5 -22q39 25 87.5 21.5t88 -30t67.5 -76t28 -118.5l4 -309h-58q-2 4 -2 36.5 v78.5v97.5v88.5q-2 57 -17 96t-40 60.5t-55.5 26.5t-61.5 -7q25 -29 40.5 -71t15.5 -97l4 -309h-58q0 4 -1 36.5t-1 78.5v97.5v88.5q-2 70 -21.5 110.5t-49 58t-63.5 10.5t-64 -36l8 -446h-31h-19.5t-9.5 -2t-1 38.5t-1 101t-1 131.5t-1 132z" />
<glyph unicode="&#x25fc;" horiz-adv-x="1228" d="M0 0v1229h1229v-1229h-1229z" />
<glyph unicode="&#xfb01;" horiz-adv-x="862" d="M0 700.5v14.5v12h369q0 51 -1 81t-1 28t-4.5 45t-1 120.5t17.5 160.5t49 163t96.5 129t157.5 57l25 -79q-94 -8 -147.5 -63.5t-80 -137.5t-34 -179.5t-7.5 -189.5q0 -18 1 -55t3 -80h306q4 -170 6 -304t6 -228q4 -111 8 -195q-27 2 -47 4q-18 0 -32.5 -1t-14.5 -5t-2 41 t-4 131t-4 210t-2 279l-216 -6q4 -98 10.5 -209.5t12.5 -210.5q8 -113 14 -225q-25 0 -47 2q-18 0 -33.5 1t-17.5 -3q0 2 -2 68.5t-4 164t-4 208t-4 200.5q-74 -2 -140.5 -3t-117.5 -3q-59 -2 -109 -2q-2 23 -2 43q-2 8 -2 16.5z" />
<glyph unicode="&#xfb02;" horiz-adv-x="903" d="M0 700.5v14.5v12h113q51 0 117.5 -1t138.5 1q0 51 -1 81t-1 28t-4.5 47t-2.5 123.5t16.5 162.5t52.5 164t103.5 128t172.5 57l75 4l29 -1522q-27 2 -47 4q-18 0 -32.5 -1t-14.5 -5q0 -2 -1 45t-2 129t-2 190.5t-3 228.5t-3.5 242.5t-2.5 235.5t-1 206v152 q-96 -12 -149 -70.5t-77.5 -139t-30 -175t-5.5 -180.5q0 -18 1 -55t3 -80q41 0 81 1t75 1l2 -67l-156 -5q4 -98 11.5 -210.5t13.5 -210.5q8 -113 14 -228q-27 0 -47 2q-18 0 -32.5 1t-18.5 -3q0 4 -2 71.5t-4 165t-4 208t-4 200.5q-76 -4 -142.5 -5t-115.5 -3 q-59 -2 -109 -4q-2 23 -2 43q-2 8 -2 16.5z" />
</font>
</defs>
</svg>
