<?xml version="1.0" standalone="no"?>
<!DOCTYPE svg PUBLIC "-//W3C//DTD SVG 1.1//EN" "http://www.w3.org/Graphics/SVG/1.1/DTD/svg11.dtd" >
<svg xmlns="http://www.w3.org/2000/svg" xmlns:xlink="http://www.w3.org/1999/xlink" version="1.1">
<metadata>
Created by FontForge 20170731 at Thu May  1 07:08:00 2008
 By Aleksey,,,
Copyright (c) Font Diner, 2005. All rights reserved.
</metadata>
<defs>
<font id="FeaturedItem" horiz-adv-x="428" >
  <font-face 
    font-family="Featured Item"
    font-weight="400"
    font-stretch="normal"
    units-per-em="1000"
    panose-1="2 0 5 6 0 0 0 2 0 4"
    ascent="800"
    descent="-200"
    x-height="700"
    cap-height="700"
    bbox="-101.636 -256 1076 900.509"
    underline-thickness="20"
    underline-position="-153"
    unicode-range="U+0020-FB02"
  />
<missing-glyph horiz-adv-x="244" 
 />
    <glyph glyph-name="fi" unicode="fi" horiz-adv-x="559" 
d="M517 10q0 -10 -10 -10h-83q-10 0 -10 10v680q0 10 10 10h83q10 0 10 -10v-680zM317 311q0 -10 -11 -10h-153v-291q0 -10 -11 -10h-82q-10 0 -10 10v580q0 23 8.5 43t23.5 35t35 23.5t43 8.5h146q11 0 11 -10v-79q0 -11 -11 -11h-153v-200h153q11 0 11 -10v-79z" />
    <glyph glyph-name="fl" unicode="fl" horiz-adv-x="701" 
d="M681 10q0 -10 -11 -10h-246q-10 0 -10 10v680q0 10 10 10h82q11 0 11 -10v-591h153q11 0 11 -10v-79zM317 311q0 -10 -11 -10h-153v-291q0 -10 -11 -10h-82q-10 0 -10 10v580q0 23 8.5 43t23.5 35t35 23.5t43 8.5h146q11 0 11 -10v-79q0 -11 -11 -11h-153v-200h153
q11 0 11 -10v-79z" />
    <glyph glyph-name=".notdef" horiz-adv-x="244" 
 />
    <glyph glyph-name=".null" horiz-adv-x="0" 
 />
    <glyph glyph-name="nonmarkingreturn" horiz-adv-x="244" 
 />
    <glyph glyph-name="space" unicode=" " horiz-adv-x="244" 
 />
    <glyph glyph-name="exclam" unicode="!" horiz-adv-x="213" 
d="M158 10q0 -10 -10 -10h-83q-10 0 -10 10v79q0 11 10 11h83q10 0 10 -11v-79zM158 182q0 -10 -10 -10h-83q-10 0 -10 10v508q0 10 10 10h83q10 0 10 -10v-508z" />
    <glyph glyph-name="quotedbl" unicode="&#x22;" horiz-adv-x="319" 
d="M129 455q0 -4 -3 -6.5t-6 -2.5h-60q-9 0 -9 9l-6 236q0 9 8 9h73q10 0 8 -9zM269 455q0 -4 -3 -6.5t-6 -2.5h-60q-9 0 -9 9l-6 236q0 9 8 9h73q10 0 8 -9z" />
    <glyph glyph-name="numbersign" unicode="#" horiz-adv-x="537" 
d="M230 432l-18 -165h94l19 165h-95zM495 443q-2 -11 -12 -11h-70l-17 -165h69q4 0 7 -2.5t2 -7.5l-7 -67q0 -4 -3.5 -7t-8.5 -3h-69l-18 -170q0 -4 -3.5 -7t-7.5 -3h-69q-9 0 -9 10l18 170h-94l-19 -170q0 -10 -11 -10h-69q-9 0 -9 10l18 170h-69q-4 0 -7 3t-2 7l7 67
q0 5 3.5 7.5t8.5 2.5h69l17 165h-69q-9 0 -9 11l7 67q2 10 12 10h69l18 170q2 10 11 10h69q10 0 10 -10l-19 -170h95l18 170q0 4 3.5 7t7.5 3h69q11 0 9 -10l-18 -170h70q9 0 9 -10z" />
    <glyph glyph-name="dollar" unicode="$" horiz-adv-x="339" 
d="M309 254q0 -38 -26 -64.5t-64 -26.5h-8v-38q0 -7 -8 -7h-69q-6 0 -6 7v38h-9q-37 0 -63 26.5t-26 64.5v55q0 6 7 6h68q7 0 7 -6v-64v-2h2h113v73l-191 142q-6 4 -6 12v93q0 37 26 63t63 26h9v40q0 6 6 6h69q8 0 8 -6v-40h8q38 0 64 -26t26 -63v-55q0 -7 -7 -7h-69
q-6 0 -6 7v65h-115v-72l190 -142q7 -5 7 -12v-93z" />
    <glyph glyph-name="percent" unicode="%" horiz-adv-x="576" 
d="M473 295h-47v-228h47v228zM150 633h-47v-226h47v226zM541 63q0 -26 -18 -44.5t-44 -18.5h-59q-26 0 -44 18.5t-18 44.5v235q0 26 18 44.5t44 18.5h59q26 0 44 -18.5t18 -44.5v-235zM208 10q-4 -10 -13 -10h-43q-13 0 -15.5 7t0.5 15l231 668q4 10 13 10h44q12 0 14.5 -7
t0.5 -15zM219 403q0 -26 -18.5 -44.5t-44.5 -18.5h-59q-26 0 -44 18.5t-18 44.5v234q0 26 18 44.5t44 18.5h59q26 0 44.5 -18.5t18.5 -44.5v-234z" />
    <glyph glyph-name="ampersand" unicode="&#x26;" horiz-adv-x="447" 
d="M432 174q0 -10 -10 -10h-39v-54q0 -23 -8.5 -43t-23 -35t-34.5 -23.5t-43 -8.5h-120q-23 0 -43 8.5t-34.5 23.5t-23 35t-8.5 43v166q0 5 2.5 9.5t5.5 7.5l65 57l-65 58q-8 8 -8 17v165q0 23 8.5 43t23 35t34.5 23.5t43 8.5h120q23 0 43 -8.5t34.5 -23.5t23 -35t8.5 -43
v-66q0 -10 -9 -10h-83q-10 0 -10 10v76h-133v-152l93 -89q8 -9 0 -17l-93 -89v-153h133v154q0 10 10 10h131q10 0 10 -10v-80z" />
    <glyph glyph-name="quotesingle" unicode="'" horiz-adv-x="179" 
d="M129 455q0 -4 -3 -6.5t-6 -2.5h-60q-9 0 -9 9l-6 236q0 9 8 9h73q10 0 8 -9z" />
    <glyph glyph-name="parenleft" unicode="(" horiz-adv-x="307" 
d="M253 -10q0 -11 -11 -11h-78q-23 0 -43 8.5t-34.5 23.5t-23 35t-8.5 43v522q0 23 8.5 43t23 35t34.5 23.5t43 8.5h78q11 0 11 -11v-79q0 -10 -11 -10h-84v-543h84q11 0 11 -10v-78z" />
    <glyph glyph-name="parenright" unicode=")" horiz-adv-x="307" 
d="M253 89q0 -23 -8.5 -43t-23.5 -35t-34.5 -23.5t-42.5 -8.5h-79q-10 0 -10 11v78q0 10 10 10h85v543h-85q-10 0 -10 10v79q0 11 10 11h79q23 0 42.5 -8.5t34.5 -23.5t23.5 -35t8.5 -43v-522z" />
    <glyph glyph-name="asterisk" unicode="*" horiz-adv-x="448" 
d="M376 350q-6 -8 -14 -3l-101 72l12 -144q0 -10 -11 -10h-75q-5 0 -8 2.5t-2 7.5l11 144l-101 -72q-8 -5 -14 3l-38 67q-2 3 -1 7.5t5 6.5l112 51l-112 52q-9 5 -4 14l38 65q5 10 14 4l101 -71l-11 144q-1 4 2 7t8 3h75q11 0 11 -10l-12 -144l101 71q9 6 14 -4l37 -65
q5 -9 -3 -14l-111 -52l111 -51q9 -6 3 -14z" />
    <glyph glyph-name="plus" unicode="+" horiz-adv-x="379" 
d="M344 314q0 -10 -10 -10h-97v-130q0 -10 -10 -10h-75q-11 0 -11 10v130h-96q-10 0 -10 10v72q0 10 10 10h96v130q0 10 11 10h75q10 0 10 -10v-130h97q10 0 10 -10v-72z" />
    <glyph glyph-name="comma" unicode="," horiz-adv-x="212" 
d="M137 -58q0 -10 -10 -10h-62q-10 0 -10 10v147q0 10 10 10h82q11 0 11 -10z" />
    <glyph glyph-name="hyphen" unicode="-" horiz-adv-x="419" 
d="M364 314q0 -10 -10 -10h-289q-10 0 -10 10v72q0 10 10 10h289q10 0 10 -10v-72z" />
    <glyph glyph-name="period" unicode="." horiz-adv-x="213" 
d="M158 10q0 -10 -10 -10h-83q-10 0 -10 10v79q0 10 10 10h83q10 0 10 -10v-79z" />
    <glyph glyph-name="slash" unicode="/" horiz-adv-x="343" 
d="M111 10q-4 -10 -14 -10h-75q-11 0 -7 10l217 680q4 10 14 10h75q11 0 7 -10z" />
    <glyph glyph-name="zero" unicode="0" 
d="M281 600h-133v-500h133v500zM383 110q0 -23 -8.5 -43t-23 -35t-34.5 -23.5t-43 -8.5h-120q-23 0 -43 8.5t-34.5 23.5t-23 35t-8.5 43v480q0 23 8.5 43t23 35t34.5 23.5t43 8.5h120q23 0 43 -8.5t34.5 -23.5t23 -35t8.5 -43v-480z" />
    <glyph glyph-name="one" unicode="1" horiz-adv-x="212" 
d="M158 10q0 -10 -11 -10h-82q-10 0 -10 10v680q0 10 10 10h82q11 0 11 -10v-680z" />
    <glyph glyph-name="two" unicode="2" horiz-adv-x="409" 
d="M374 10q0 -10 -10 -10h-319q-10 0 -10 10v148q0 11 1 19t3.5 15t7.5 14t13 16l212 233v145h-134v-76q0 -10 -10 -10h-83q-10 0 -10 10v66q0 23 8.5 43t23.5 35t35 23.5t43 8.5h119q23 0 43 -8.5t35 -23.5t23.5 -35t8.5 -43v-129q0 -11 -0.5 -18.5t-3 -14.5t-7.5 -14
t-14 -17l-211 -233v-65h226q10 0 10 -10v-79z" />
    <glyph glyph-name="three" unicode="3" horiz-adv-x="419" 
d="M374 110q0 -23 -8.5 -43t-23.5 -35t-35 -23.5t-43 -8.5h-119q-23 0 -43 8.5t-35 23.5t-23.5 35t-8.5 43v73q0 10 10 10h82q11 0 11 -10v-84h133v202h-95q-11 0 -11 10v79q0 10 11 10h95v200h-133v-87q0 -11 -11 -11h-82q-10 0 -10 11v77q0 23 8.5 43t23.5 35t35 23.5
t43 8.5h119q23 0 43 -8.5t35 -23.5t23.5 -35t8.5 -43v-150q0 -28 -12.5 -51t-32.5 -39q20 -14 32.5 -37.5t12.5 -51.5v-151z" />
    <glyph glyph-name="four" unicode="4" horiz-adv-x="389" 
d="M214 474l-85 -173h85v173zM364 212q0 -11 -10 -11h-37v-191q0 -10 -10 -10h-83q-10 0 -10 10v191h-184q-10 0 -10 11v89l191 389q2 3 5.5 6.5t7.5 3.5h1h82q10 0 10 -10v-389h37q10 0 10 -10v-79z" />
    <glyph glyph-name="five" unicode="5" horiz-adv-x="434" 
d="M394 110q0 -23 -8.5 -43t-23.5 -35t-35 -23.5t-43 -8.5h-119q-23 0 -43 8.5t-35 23.5t-23.5 35t-8.5 43v73q0 10 10 10h82q11 0 11 -10v-84h133v229h-226q-10 0 -10 10v352q0 10 10 10h252q16 0 21 -19l18 -70q2 -11 -7 -11h-191v-172h126q23 0 43 -8.5t35 -23.5
t23.5 -35t8.5 -43v-208z" />
    <glyph glyph-name="six" unicode="6" horiz-adv-x="429" 
d="M281 301h-133v-202h133v202zM384 110q0 -23 -8.5 -43t-23.5 -35t-35 -23.5t-43 -8.5h-119q-23 0 -43 8.5t-35 23.5t-23.5 35t-8.5 43v480q0 23 8.5 43t23.5 35t35 23.5t43 8.5h119q23 0 43 -8.5t35 -23.5t23.5 -35t8.5 -43v-77q0 -11 -10 -11h-83q-10 0 -10 11v87h-133
v-200h126q23 0 43 -8.5t35 -23.5t23.5 -35t8.5 -43v-180z" />
    <glyph glyph-name="seven" unicode="7" horiz-adv-x="364" 
d="M209 10q-4 -10 -12 -10h-77q-13 0 -16 7t1 15l112 578h-204q-10 0 -8 11l9 70q3 19 20 19h290q13 0 15 -7t0 -15z" />
    <glyph glyph-name="eight" unicode="8" horiz-adv-x="429" 
d="M282 301h-134v-202h134v202zM282 600h-134v-200h134v200zM384 110q0 -23 -8.5 -43t-23.5 -35t-35 -23.5t-43 -8.5h-119q-23 0 -43 8.5t-35 23.5t-23.5 35t-8.5 43v151q0 28 13 51.5t34 37.5q-21 16 -34 39t-13 51v150q0 23 8.5 43t23.5 35t35 23.5t43 8.5h119
q23 0 43 -8.5t35 -23.5t23.5 -35t8.5 -43v-150q0 -28 -12 -51t-33 -39q21 -14 33 -37.5t12 -51.5v-151z" />
    <glyph glyph-name="nine" unicode="9" 
d="M281 600h-133v-200h133v200zM383 110q0 -23 -8.5 -43t-23 -35t-34.5 -23.5t-43 -8.5h-120q-23 0 -43 8.5t-34.5 23.5t-23 35t-8.5 43v77q0 11 10 11h82q11 0 11 -11v-88h133v202h-127q-23 0 -43 8.5t-34.5 23.5t-23 35t-8.5 43v179q0 23 8.5 43t23 35t34.5 23.5t43 8.5
h120q23 0 43 -8.5t34.5 -23.5t23 -35t8.5 -43v-480z" />
    <glyph glyph-name="colon" unicode=":" horiz-adv-x="213" 
d="M158 10q0 -10 -10 -10h-83q-10 0 -10 10v79q0 10 10 10h83q10 0 10 -10v-79zM158 311q0 -10 -10 -10h-83q-10 0 -10 10v79q0 10 10 10h83q10 0 10 -10v-79z" />
    <glyph glyph-name="semicolon" unicode=";" horiz-adv-x="212" 
d="M137 -58q0 -10 -10 -10h-62q-10 0 -10 10v147q0 10 10 10h82q11 0 11 -10zM158 311q0 -10 -11 -10h-82q-10 0 -10 10v79q0 10 10 10h82q11 0 11 -10v-79z" />
    <glyph glyph-name="less" unicode="&#x3c;" horiz-adv-x="416" 
d="M361 189q0 -10 -8 -8l-291 115q-7 2 -7 13v82q0 10 7 12l291 116q8 2 8 -8v-83q0 -10 -8 -12l-166 -66l166 -67q8 -2 8 -11v-83z" />
    <glyph glyph-name="equal" unicode="=" horiz-adv-x="419" 
d="M364 239q0 -11 -10 -11h-289q-10 0 -10 11v71q0 11 10 11h289q10 0 10 -11v-71zM364 389q0 -11 -10 -11h-289q-10 0 -10 11v72q0 11 10 11h289q10 0 10 -11v-72z" />
    <glyph glyph-name="greater" unicode="&#x3e;" horiz-adv-x="416" 
d="M361 309q0 -11 -8 -13l-291 -115q-7 -2 -7 8v83q0 9 7 11l166 67l-166 66q-7 2 -7 12v83q0 10 7 8l291 -116q8 -2 8 -12v-82z" />
    <glyph glyph-name="question" unicode="?" horiz-adv-x="408" 
d="M255 10q0 -10 -9 -10h-83q-11 0 -11 10v79q0 10 11 10h83q9 0 9 -10v-79zM373 461q0 -22 -3.5 -33.5t-20.5 -30.5l-94 -102v-113q0 -10 -9 -10h-83q-11 0 -11 10v106q0 12 1 20t3.5 14.5t7.5 13.5t14 16l93 103v145h-133v-76q0 -10 -11 -10h-83q-9 0 -9 10v66
q0 23 8.5 43t23 35t34.5 23.5t43 8.5h119q23 0 43 -8.5t35 -23.5t23.5 -35t8.5 -43v-129z" />
    <glyph glyph-name="at" unicode="@" horiz-adv-x="633" 
d="M367 324h-100v-119h100v119zM588 240q0 -23 -8.5 -43t-23 -35t-34.5 -23.5t-43 -8.5h-207q-34 0 -58 24t-24 59v104q0 35 24 58.5t58 23.5h95v96h-100v-47q0 -7 -8 -7h-61q-8 0 -8 7v39q0 35 24 59t58 24h90q35 0 58.5 -24t23.5 -59v-282h60v421h-373v-552h452
q-11 -32 -39.5 -53t-64.5 -21h-324q-23 0 -43 8.5t-35 23.5t-23.5 35t-8.5 43v480q0 23 8.5 43t23.5 35t35 23.5t43 8.5h324q23 0 43 -8.5t34.5 -23.5t23 -35t8.5 -43v-350z" />
    <glyph glyph-name="A" unicode="A" horiz-adv-x="449" 
d="M291 600h-133v-200h133v200zM394 10q0 -10 -10 -10h-83q-10 0 -10 10v291h-133v-291q0 -10 -11 -10h-82q-10 0 -10 10v580q0 23 8.5 43t23.5 35t35 23.5t43 8.5h119q23 0 43 -8.5t35 -23.5t23.5 -35t8.5 -43v-580z" />
    <glyph glyph-name="B" unicode="B" horiz-adv-x="438" 
d="M291 301h-133v-202h133v202zM291 600h-133v-200h133v200zM393 110q0 -23 -8.5 -43t-23 -35t-34.5 -23.5t-43 -8.5h-219q-10 0 -10 10v680q0 10 10 10h219q23 0 43 -8.5t34.5 -23.5t23 -35t8.5 -43v-151q0 -27 -12 -50.5t-33 -38.5q21 -15 33 -38.5t12 -50.5v-151z" />
    <glyph glyph-name="C" unicode="C" horiz-adv-x="424" 
d="M384 110q0 -23 -8.5 -43t-23.5 -35t-35 -23.5t-43 -8.5h-119q-23 0 -43 8.5t-35 23.5t-23.5 35t-8.5 43v480q0 23 8.5 43t23.5 35t35 23.5t43 8.5h119q23 0 43 -8.5t35 -23.5t23.5 -35t8.5 -43v-77q0 -11 -10 -11h-82q-10 0 -10 11v87h-134v-501h134v83q0 10 10 10h82
q10 0 10 -10v-72z" />
    <glyph glyph-name="D" unicode="D" horiz-adv-x="439" 
d="M292 600h-134v-501h134v501zM394 110q0 -23 -8.5 -43t-23.5 -35t-35 -23.5t-43 -8.5h-219q-10 0 -10 10v680q0 10 10 10h219q23 0 43 -8.5t35 -23.5t23.5 -35t8.5 -43v-480z" />
    <glyph glyph-name="E" unicode="E" horiz-adv-x="356" 
d="M312 10q0 -10 -11 -10h-146q-23 0 -43 8.5t-35 23.5t-23.5 35t-8.5 43v480q0 23 8.5 43t23.5 35t35 23.5t43 8.5h146q11 0 11 -10v-79q0 -11 -11 -11h-153v-200h153q11 0 11 -10v-79q0 -10 -11 -10h-153v-202h153q11 0 11 -10v-79z" />
    <glyph glyph-name="F" unicode="F" horiz-adv-x="358" 
d="M317 311q0 -10 -11 -10h-153v-291q0 -10 -11 -10h-82q-10 0 -10 10v580q0 23 8.5 43t23.5 35t35 23.5t43 8.5h146q11 0 11 -10v-79q0 -11 -11 -11h-153v-200h153q11 0 11 -10v-79z" />
    <glyph glyph-name="G" unicode="G" 
d="M383 110q0 -23 -8.5 -43t-23 -35t-34.5 -23.5t-43 -8.5h-120q-23 0 -43 8.5t-34.5 23.5t-23 35t-8.5 43v480q0 23 8.5 43t23 35t34.5 23.5t43 8.5h120q23 0 43 -8.5t34.5 -23.5t23 -35t8.5 -43v-66q0 -10 -10 -10h-82q-10 0 -10 10v76h-133v-501h133v201h-39
q-11 0 -11 10v80q0 10 11 10h131q10 0 10 -10v-280z" />
    <glyph glyph-name="H" unicode="H" horiz-adv-x="462" 
d="M407 10q0 -10 -10 -10h-82q-10 0 -10 10v290h-147v-290q0 -10 -11 -10h-82q-10 0 -10 10v680q0 10 10 10h82q11 0 11 -10v-290h147v290q0 10 10 10h82q10 0 10 -10v-680z" />
    <glyph glyph-name="I" unicode="I" horiz-adv-x="213" 
d="M158 10q0 -10 -10 -10h-83q-10 0 -10 10v680q0 10 10 10h83q10 0 10 -10v-680z" />
    <glyph glyph-name="J" unicode="J" horiz-adv-x="325" 
d="M271 144q0 -30 -11.5 -56t-31.5 -45.5t-46 -31t-56 -11.5q-31 0 -54 9.5t-38 21.5q-18 14 -29 31q-6 8 0 13q2 1 12 9.5t22 18t22 18t12 9.5q8 5 14 0q3 -2 11 -8t22 -6q21 0 34 12t13 40v522q0 10 10 10h83q11 0 11 -10v-546z" />
    <glyph glyph-name="K" unicode="K" horiz-adv-x="440" 
d="M403 7q0 -7 -9 -7h-93q-10 0 -10 10v290h-133v-290q0 -10 -11 -10h-82q-10 0 -10 10v680q0 10 10 10h82q11 0 11 -10v-295l110 295q4 10 13 10h77q13 0 15.5 -6.5t-1.5 -15.5l-104 -278h16q23 0 43 -8.5t35 -23.5t23.5 -35t8.5 -43v-250q0 -17 4.5 -22.5t4.5 -10.5z" />
    <glyph glyph-name="L" unicode="L" horiz-adv-x="342" 
d="M322 10q0 -10 -11 -10h-246q-10 0 -10 10v680q0 10 10 10h82q11 0 11 -10v-591h153q11 0 11 -10v-79z" />
    <glyph glyph-name="M" unicode="M" horiz-adv-x="713" 
d="M658 10q0 -10 -10 -10h-83q-10 0 -10 10v590h-147v-590q0 -10 -10 -10h-83q-10 0 -10 10v590h-147v-590q0 -10 -10 -10h-83q-10 0 -10 10v680q0 10 10 10h83q10 0 10 -10v-24q15 16 35.5 25t44.5 9h60q30 0 55 -14.5t39 -39.5q15 25 39.5 39.5t55.5 14.5h61q23 0 43 -8.5
t35 -23.5t23.5 -35t8.5 -43v-580z" />
    <glyph glyph-name="N" unicode="N" horiz-adv-x="462" 
d="M407 10q0 -10 -10 -10h-82q-10 0 -10 10v590h-147v-590q0 -10 -11 -10h-82q-10 0 -10 10v680q0 10 10 10h82q11 0 11 -10v-24q14 16 35 25t44 9h60q23 0 43 -8.5t35 -23.5t23.5 -35t8.5 -43v-580z" />
    <glyph glyph-name="O" unicode="O" 
d="M281 600h-133v-501h133v501zM383 110q0 -23 -8.5 -43t-23 -35t-34.5 -23.5t-43 -8.5h-120q-23 0 -43 8.5t-34.5 23.5t-23 35t-8.5 43v480q0 23 8.5 43t23 35t34.5 23.5t43 8.5h120q23 0 43 -8.5t34.5 -23.5t23 -35t8.5 -43v-480z" />
    <glyph glyph-name="P" unicode="P" horiz-adv-x="424" 
d="M291 600h-133v-200h133v200zM394 411q0 -22 -8 -42t-22 -35t-32.5 -24t-40.5 -9h-133v-291q0 -10 -11 -10h-82q-10 0 -10 10v680q0 10 10 10h219q23 0 43 -8.5t35 -23.5t23.5 -35t8.5 -43v-179z" />
    <glyph glyph-name="Q" unicode="Q" 
d="M281 600h-133v-522l58 53q9 7 16 0l59 -53v522zM383 110q0 -25 -10 -46t-27 -37l15 -13q5 -5 5 -8q0 -6 -8 -6h-204q-23 0 -43 8.5t-34.5 23.5t-23 35t-8.5 43v480q0 23 8.5 43t23 35t34.5 23.5t43 8.5h120q23 0 43 -8.5t34.5 -23.5t23 -35t8.5 -43v-480z" />
    <glyph glyph-name="R" unicode="R" horiz-adv-x="448" 
d="M292 600h-134v-200h134v200zM404 7q0 -7 -10 -7h-92q-10 0 -10 10v236q0 30 -16 42.5t-40 12.5h-78v-291q0 -10 -10 -10h-83q-10 0 -10 10v680q0 10 10 10h219q23 0 43 -8.5t35 -23.5t23.5 -35t8.5 -43v-150q0 -28 -12 -51.5t-33 -38.5q21 -14 33 -37.5t12 -51.5v-221
q0 -17 5 -22t5 -11z" />
    <glyph glyph-name="S" unicode="S" 
d="M383 110q0 -23 -8.5 -43t-23 -35t-34.5 -23.5t-43 -8.5h-120q-23 0 -43 8.5t-34.5 23.5t-23 35t-8.5 43v66q0 10 10 10h82q11 0 11 -10v-76h133v139l-229 169q-2 3 -4.5 7.5t-2.5 9.5v165q0 23 8.5 43t23 35t34.5 23.5t43 8.5h120q23 0 43 -8.5t34.5 -23.5t23 -35
t8.5 -43v-66q0 -10 -10 -10h-82q-10 0 -10 10v76h-133v-138l227 -169q8 -6 8 -17v-166z" />
    <glyph glyph-name="T" unicode="T" horiz-adv-x="348" 
d="M338 611q0 -11 -10 -11h-103v-590q0 -10 -10 -10h-82q-10 0 -10 10v590h-103q-10 0 -10 11v79q0 10 10 10h308q10 0 10 -10v-79z" />
    <glyph glyph-name="U" unicode="U" horiz-adv-x="462" 
d="M407 10q0 -10 -10 -10h-82q-10 0 -10 10v24q-15 -16 -35.5 -25t-43.5 -9h-61q-23 0 -43 8.5t-35 23.5t-23.5 35t-8.5 43v580q0 10 10 10h82q11 0 11 -10v-590h147v590q0 10 10 10h82q10 0 10 -10v-680z" />
    <glyph glyph-name="V" unicode="V" horiz-adv-x="377" 
d="M242 10q-2 -10 -12 -10h-82q-10 0 -12 10l-116 680q-2 10 8 10h82q11 0 13 -10l66 -387l66 387q2 10 11 10h83q10 0 8 -10z" />
    <glyph glyph-name="W" unicode="W" horiz-adv-x="713" 
d="M658 104q0 -21 -9 -40t-24 -33.5t-35 -22.5t-42 -8h-97q-30 0 -55 15t-40 40q-14 -25 -39 -40t-55 -15h-97q-23 0 -43 8.5t-35 23.5t-23.5 35t-8.5 43v580q0 10 10 10h83q10 0 10 -10v-590h147v590q0 10 10 10h83q10 0 10 -10v-590h147v590q0 10 10 10h83q10 0 10 -10
v-586z" />
    <glyph glyph-name="X" unicode="X" horiz-adv-x="462" 
d="M407 10q0 -10 -10 -10h-82q-10 0 -10 10v181l-74 77l-73 -77v-181q0 -10 -11 -10h-82q-10 0 -10 10v218q0 5 2.5 9.5t4.5 7.5l96 99l-96 99q-2 2 -4.5 6.5t-2.5 9.5v231q0 10 10 10h82q11 0 11 -10v-194l73 -77l74 77v194q0 10 10 10h82q10 0 10 -10v-231q0 -11 -8 -16
l-95 -99l95 -99q8 -6 8 -17v-218z" />
    <glyph glyph-name="Y" unicode="Y" horiz-adv-x="429" 
d="M384 411q0 -23 -8.5 -43t-23.5 -35t-35 -23.5t-43 -8.5h-8v-291q0 -10 -10 -10h-82q-11 0 -11 10v291h-8q-23 0 -43 8.5t-35 23.5t-23.5 35t-8.5 43v279q0 10 10 10h82q11 0 11 -10v-275h133v275q0 10 10 10h83q10 0 10 -10v-279z" />
    <glyph glyph-name="Z" unicode="Z" horiz-adv-x="412" 
d="M382 10q0 -10 -10 -10h-321q-12 0 -15 7t1 15l206 578h-203q-10 0 -10 11v79q0 10 10 10h324q12 0 15 -7t0 -15l-206 -578h199q10 0 10 -11v-79z" />
    <glyph glyph-name="bracketleft" unicode="[" horiz-adv-x="308" 
d="M254 -10q0 -11 -11 -11h-178q-10 0 -10 11v720q0 11 10 11h178q11 0 11 -11v-79q0 -10 -11 -10h-85v-543h85q11 0 11 -10v-78z" />
    <glyph glyph-name="backslash" unicode="\" horiz-adv-x="343" 
d="M328 10q4 -10 -7 -10h-75q-10 0 -14 10l-217 680q-4 10 7 10h75q10 0 14 -10z" />
    <glyph glyph-name="bracketright" unicode="]" horiz-adv-x="308" 
d="M254 -10q0 -11 -11 -11h-178q-10 0 -10 11v78q0 10 10 10h85v543h-85q-10 0 -10 10v79q0 11 10 11h178q11 0 11 -11v-720z" />
    <glyph glyph-name="asciicircum" unicode="^" horiz-adv-x="387" 
d="M362 275q2 -10 -8 -10h-82q-10 0 -12 10l-66 237l-66 -237q-2 -10 -12 -10h-83q-10 0 -8 10l116 415q2 10 12 10h82q10 0 12 -10z" />
    <glyph glyph-name="underscore" unicode="_" horiz-adv-x="1000" 
d="M1010 10q0 -10 -10 -10h-1000q-10 0 -10 10v72q0 10 10 10h1000q10 0 10 -10v-72z" />
    <glyph glyph-name="grave" unicode="`" 
d="M292 753q2 -4 -8 -4h-70q-8 0 -12 4l-106 143q-2 2 1 3t7 1h101q8 0 10 -4z" />
    <glyph glyph-name="a" unicode="a" horiz-adv-x="449" 
d="M291 600h-133v-200h133v200zM394 10q0 -10 -10 -10h-83q-10 0 -10 10v291h-133v-291q0 -10 -11 -10h-82q-10 0 -10 10v580q0 23 8.5 43t23.5 35t35 23.5t43 8.5h119q23 0 43 -8.5t35 -23.5t23.5 -35t8.5 -43v-580z" />
    <glyph glyph-name="b" unicode="b" horiz-adv-x="438" 
d="M291 301h-133v-202h133v202zM291 600h-133v-200h133v200zM393 110q0 -23 -8.5 -43t-23 -35t-34.5 -23.5t-43 -8.5h-219q-10 0 -10 10v680q0 10 10 10h219q23 0 43 -8.5t34.5 -23.5t23 -35t8.5 -43v-151q0 -27 -12 -50.5t-33 -38.5q21 -15 33 -38.5t12 -50.5v-151z" />
    <glyph glyph-name="c" unicode="c" horiz-adv-x="424" 
d="M384 110q0 -23 -8.5 -43t-23.5 -35t-35 -23.5t-43 -8.5h-119q-23 0 -43 8.5t-35 23.5t-23.5 35t-8.5 43v480q0 23 8.5 43t23.5 35t35 23.5t43 8.5h119q23 0 43 -8.5t35 -23.5t23.5 -35t8.5 -43v-77q0 -11 -10 -11h-82q-10 0 -10 11v87h-134v-501h134v83q0 10 10 10h82
q10 0 10 -10v-72z" />
    <glyph glyph-name="d" unicode="d" horiz-adv-x="439" 
d="M292 600h-134v-501h134v501zM394 110q0 -23 -8.5 -43t-23.5 -35t-35 -23.5t-43 -8.5h-219q-10 0 -10 10v680q0 10 10 10h219q23 0 43 -8.5t35 -23.5t23.5 -35t8.5 -43v-480z" />
    <glyph glyph-name="e" unicode="e" horiz-adv-x="356" 
d="M312 10q0 -10 -11 -10h-146q-23 0 -43 8.5t-35 23.5t-23.5 35t-8.5 43v480q0 23 8.5 43t23.5 35t35 23.5t43 8.5h146q11 0 11 -10v-79q0 -11 -11 -11h-153v-200h153q11 0 11 -10v-79q0 -10 -11 -10h-153v-202h153q11 0 11 -10v-79z" />
    <glyph glyph-name="f" unicode="f" horiz-adv-x="358" 
d="M317 311q0 -10 -11 -10h-153v-291q0 -10 -11 -10h-82q-10 0 -10 10v580q0 23 8.5 43t23.5 35t35 23.5t43 8.5h146q11 0 11 -10v-79q0 -11 -11 -11h-153v-200h153q11 0 11 -10v-79z" />
    <glyph glyph-name="g" unicode="g" 
d="M383 110q0 -23 -8.5 -43t-23 -35t-34.5 -23.5t-43 -8.5h-120q-23 0 -43 8.5t-34.5 23.5t-23 35t-8.5 43v480q0 23 8.5 43t23 35t34.5 23.5t43 8.5h120q23 0 43 -8.5t34.5 -23.5t23 -35t8.5 -43v-66q0 -10 -10 -10h-82q-10 0 -10 10v76h-133v-501h133v201h-39
q-11 0 -11 10v80q0 10 11 10h131q10 0 10 -10v-280z" />
    <glyph glyph-name="h" unicode="h" horiz-adv-x="462" 
d="M407 10q0 -10 -10 -10h-82q-10 0 -10 10v290h-147v-290q0 -10 -11 -10h-82q-10 0 -10 10v680q0 10 10 10h82q11 0 11 -10v-290h147v290q0 10 10 10h82q10 0 10 -10v-680z" />
    <glyph glyph-name="i" unicode="i" horiz-adv-x="213" 
d="M158 10q0 -10 -10 -10h-83q-10 0 -10 10v680q0 10 10 10h83q10 0 10 -10v-680z" />
    <glyph glyph-name="j" unicode="j" horiz-adv-x="325" 
d="M271 144q0 -30 -11.5 -56t-31.5 -45.5t-46 -31t-56 -11.5q-31 0 -54 9.5t-38 21.5q-18 14 -29 31q-6 8 0 13q2 1 12 9.5t22 18t22 18t12 9.5q8 5 14 0q3 -2 11 -8t22 -6q21 0 34 12t13 40v522q0 10 10 10h83q11 0 11 -10v-546z" />
    <glyph glyph-name="k" unicode="k" horiz-adv-x="440" 
d="M403 7q0 -7 -9 -7h-93q-10 0 -10 10v290h-133v-290q0 -10 -11 -10h-82q-10 0 -10 10v680q0 10 10 10h82q11 0 11 -10v-295l110 295q4 10 13 10h77q13 0 15.5 -6.5t-1.5 -15.5l-104 -278h16q23 0 43 -8.5t35 -23.5t23.5 -35t8.5 -43v-250q0 -17 4.5 -22.5t4.5 -10.5z" />
    <glyph glyph-name="l" unicode="l" horiz-adv-x="342" 
d="M322 10q0 -10 -11 -10h-246q-10 0 -10 10v680q0 10 10 10h82q11 0 11 -10v-591h153q11 0 11 -10v-79z" />
    <glyph glyph-name="m" unicode="m" horiz-adv-x="713" 
d="M658 10q0 -10 -10 -10h-83q-10 0 -10 10v590h-147v-590q0 -10 -10 -10h-83q-10 0 -10 10v590h-147v-590q0 -10 -10 -10h-83q-10 0 -10 10v680q0 10 10 10h83q10 0 10 -10v-24q15 16 35.5 25t44.5 9h60q30 0 55 -14.5t39 -39.5q15 25 39.5 39.5t55.5 14.5h61q23 0 43 -8.5
t35 -23.5t23.5 -35t8.5 -43v-580z" />
    <glyph glyph-name="n" unicode="n" horiz-adv-x="462" 
d="M407 10q0 -10 -10 -10h-82q-10 0 -10 10v590h-147v-590q0 -10 -11 -10h-82q-10 0 -10 10v680q0 10 10 10h82q11 0 11 -10v-24q14 16 35 25t44 9h60q23 0 43 -8.5t35 -23.5t23.5 -35t8.5 -43v-580z" />
    <glyph glyph-name="o" unicode="o" 
d="M281 600h-133v-501h133v501zM383 110q0 -23 -8.5 -43t-23 -35t-34.5 -23.5t-43 -8.5h-120q-23 0 -43 8.5t-34.5 23.5t-23 35t-8.5 43v480q0 23 8.5 43t23 35t34.5 23.5t43 8.5h120q23 0 43 -8.5t34.5 -23.5t23 -35t8.5 -43v-480z" />
    <glyph glyph-name="p" unicode="p" horiz-adv-x="424" 
d="M291 600h-133v-200h133v200zM394 411q0 -22 -8 -42t-22 -35t-32.5 -24t-40.5 -9h-133v-291q0 -10 -11 -10h-82q-10 0 -10 10v680q0 10 10 10h219q23 0 43 -8.5t35 -23.5t23.5 -35t8.5 -43v-179z" />
    <glyph glyph-name="q" unicode="q" 
d="M281 600h-133v-522l58 53q9 7 16 0l59 -53v522zM383 110q0 -25 -10 -46t-27 -37l15 -13q5 -5 5 -8q0 -6 -8 -6h-204q-23 0 -43 8.5t-34.5 23.5t-23 35t-8.5 43v480q0 23 8.5 43t23 35t34.5 23.5t43 8.5h120q23 0 43 -8.5t34.5 -23.5t23 -35t8.5 -43v-480z" />
    <glyph glyph-name="r" unicode="r" horiz-adv-x="448" 
d="M292 600h-134v-200h134v200zM404 7q0 -7 -10 -7h-92q-10 0 -10 10v236q0 30 -16 42.5t-40 12.5h-78v-291q0 -10 -10 -10h-83q-10 0 -10 10v680q0 10 10 10h219q23 0 43 -8.5t35 -23.5t23.5 -35t8.5 -43v-150q0 -28 -12 -51.5t-33 -38.5q21 -14 33 -37.5t12 -51.5v-221
q0 -17 5 -22t5 -11z" />
    <glyph glyph-name="s" unicode="s" 
d="M383 110q0 -23 -8.5 -43t-23 -35t-34.5 -23.5t-43 -8.5h-120q-23 0 -43 8.5t-34.5 23.5t-23 35t-8.5 43v66q0 10 10 10h82q11 0 11 -10v-76h133v139l-229 169q-2 3 -4.5 7.5t-2.5 9.5v165q0 23 8.5 43t23 35t34.5 23.5t43 8.5h120q23 0 43 -8.5t34.5 -23.5t23 -35
t8.5 -43v-66q0 -10 -10 -10h-82q-10 0 -10 10v76h-133v-138l227 -169q8 -6 8 -17v-166z" />
    <glyph glyph-name="t" unicode="t" horiz-adv-x="348" 
d="M338 611q0 -11 -10 -11h-103v-590q0 -10 -10 -10h-82q-10 0 -10 10v590h-103q-10 0 -10 11v79q0 10 10 10h308q10 0 10 -10v-79z" />
    <glyph glyph-name="u" unicode="u" horiz-adv-x="462" 
d="M407 10q0 -10 -10 -10h-82q-10 0 -10 10v24q-15 -16 -35.5 -25t-43.5 -9h-61q-23 0 -43 8.5t-35 23.5t-23.5 35t-8.5 43v580q0 10 10 10h82q11 0 11 -10v-590h147v590q0 10 10 10h82q10 0 10 -10v-680z" />
    <glyph glyph-name="v" unicode="v" horiz-adv-x="377" 
d="M242 10q-2 -10 -12 -10h-82q-10 0 -12 10l-116 680q-2 10 8 10h82q11 0 13 -10l66 -387l66 387q2 10 11 10h83q10 0 8 -10z" />
    <glyph glyph-name="w" unicode="w" horiz-adv-x="713" 
d="M658 104q0 -21 -9 -40t-24 -33.5t-35 -22.5t-42 -8h-97q-30 0 -55 15t-40 40q-14 -25 -39 -40t-55 -15h-97q-23 0 -43 8.5t-35 23.5t-23.5 35t-8.5 43v580q0 10 10 10h83q10 0 10 -10v-590h147v590q0 10 10 10h83q10 0 10 -10v-590h147v590q0 10 10 10h83q10 0 10 -10
v-586z" />
    <glyph glyph-name="x" unicode="x" horiz-adv-x="462" 
d="M407 10q0 -10 -10 -10h-82q-10 0 -10 10v181l-74 77l-73 -77v-181q0 -10 -11 -10h-82q-10 0 -10 10v218q0 5 2.5 9.5t4.5 7.5l96 99l-96 99q-2 2 -4.5 6.5t-2.5 9.5v231q0 10 10 10h82q11 0 11 -10v-194l73 -77l74 77v194q0 10 10 10h82q10 0 10 -10v-231q0 -11 -8 -16
l-95 -99l95 -99q8 -6 8 -17v-218z" />
    <glyph glyph-name="y" unicode="y" horiz-adv-x="429" 
d="M384 411q0 -23 -8.5 -43t-23.5 -35t-35 -23.5t-43 -8.5h-8v-291q0 -10 -10 -10h-82q-11 0 -11 10v291h-8q-23 0 -43 8.5t-35 23.5t-23.5 35t-8.5 43v279q0 10 10 10h82q11 0 11 -10v-275h133v275q0 10 10 10h83q10 0 10 -10v-279z" />
    <glyph glyph-name="z" unicode="z" horiz-adv-x="412" 
d="M382 10q0 -10 -10 -10h-321q-12 0 -15 7t1 15l206 578h-203q-10 0 -10 11v79q0 10 10 10h324q12 0 15 -7t0 -15l-206 -578h199q10 0 10 -11v-79z" />
    <glyph glyph-name="braceleft" unicode="{" horiz-adv-x="323" 
d="M278 -10q0 -11 -9 -11h-78q-23 0 -43 8.5t-35 23.5t-23.5 35t-8.5 43v172q0 27 -13 50.5t-33 38.5q20 15 33 38.5t13 50.5v172q0 23 8.5 43t23.5 35t35 23.5t43 8.5h78q9 0 9 -11v-79q0 -10 -9 -10h-86v-182q0 -27 -12.5 -50.5t-32.5 -38.5q20 -15 32.5 -38.5t12.5 -50.5
v-183h86q9 0 9 -10v-78z" />
    <glyph glyph-name="bar" unicode="|" horiz-adv-x="206" 
d="M151 10q0 -10 -10 -10h-76q-10 0 -10 10v680q0 10 10 10h76q10 0 10 -10v-680z" />
    <glyph glyph-name="braceright" unicode="}" horiz-adv-x="323" 
d="M288 350q-20 -15 -32.5 -38.5t-12.5 -50.5v-172q0 -23 -8.5 -43t-23.5 -35t-35 -23.5t-43 -8.5h-79q-9 0 -9 11v78q0 10 9 10h86v183q0 27 12.5 50.5t33.5 38.5q-21 15 -33.5 38.5t-12.5 50.5v182h-86q-9 0 -9 10v79q0 11 9 11h79q23 0 43 -8.5t35 -23.5t23.5 -35
t8.5 -43v-172q0 -27 12.5 -50.5t32.5 -38.5z" />
    <glyph glyph-name="asciitilde" unicode="~" horiz-adv-x="406" 
d="M328 297q-7 -5 -12 0l-54 53l-56 -55q-28 -29 -67 -29t-67 29l-47 46q-6 7 0 13l50 51q6 4 12 0l54 -55l56 57q14 14 31.5 21t36 7t36 -7t31.5 -21l46 -47q8 -6 0 -12z" />
    <glyph glyph-name="nonbreakingspace" unicode="&#xa0;" horiz-adv-x="244" 
 />
    <glyph glyph-name="exclamdown" unicode="&#xa1;" horiz-adv-x="213" 
d="M55 690q0 10 10 10h83q10 0 10 -10v-79q0 -11 -10 -11h-83q-10 0 -10 11v79zM55 518q0 10 10 10h83q10 0 10 -10v-508q0 -10 -10 -10h-83q-10 0 -10 10v508z" />
    <glyph glyph-name="cent" unicode="&#xa2;" horiz-adv-x="340" 
d="M310 255q0 -18 -7 -34.5t-19.5 -29t-29 -19.5t-35.5 -7h-8v-38q0 -7 -7 -7h-69q-6 0 -6 7v38h-9q-38 0 -64 26.5t-26 63.5v310q0 37 26 63t64 26h9v39q0 7 6 7h69q7 0 7 -7v-39h8q19 0 35.5 -7t29 -19t19.5 -28.5t7 -34.5v-64q0 -7 -8 -7h-68q-7 0 -7 7v74h-114v-330h114
v70q0 8 7 8h68q8 0 8 -8v-60z" />
    <glyph glyph-name="sterling" unicode="&#xa3;" horiz-adv-x="341" 
d="M321 158q0 -6 -6 -6h-251q-6 0 -6 6v165h-41q-7 0 -7 7v65q0 8 7 8h41v142q0 25 9.5 46.5t25.5 38t37.5 26t46.5 9.5t43 -8t31 -18q15 -11 25 -26q3 -6 0 -9q-1 -1 -9.5 -8t-18.5 -15t-18.5 -15t-9.5 -8q-5 -4 -11 0v1q-3 3 -10 7t-17 4q-42 0 -42 -44v-123h124q8 0 8 -8
v-65q0 -7 -8 -7h-124v-91h175q6 0 6 -7v-67z" />
    <glyph glyph-name="currency" unicode="&#xa4;" horiz-adv-x="315" 
d="M291 158q0 -6 -7 -6h-122q-37 0 -63.5 26t-26.5 64v69h-40q-7 0 -7 7v66q0 7 7 7h40v34h-40q-7 0 -7 7v66q0 7 7 7h40v69q0 38 26.5 64.5t63.5 26.5h122q7 0 7 -8v-66q0 -7 -7 -7h-129v-79h89q6 0 6 -6l-12 -67q0 -7 -8 -7h-75v-34h69q8 0 6 -7l-12 -65q-2 -8 -8 -8h-55
v-79h129q7 0 7 -7v-67z" />
    <glyph glyph-name="yen" unicode="&#xa5;" horiz-adv-x="339" 
d="M309 459q0 -19 -7 -35.5t-19 -29t-28.5 -19.5t-35.5 -7h-9v-34h74q7 0 7 -7v-66q0 -7 -7 -7h-74v-96q0 -6 -7 -6h-69q-6 0 -6 6v96h-74q-7 0 -7 7v66q0 7 7 7h74v34h-9q-18 0 -34.5 7t-28.5 19.5t-19 29t-7 35.5v198q0 8 7 8h68q7 0 7 -8v-197h115v197q0 8 6 8h69
q7 0 7 -8v-198z" />
    <glyph glyph-name="brokenbar" unicode="&#xa6;" horiz-adv-x="206" 
d="M151 10q0 -10 -10 -10h-76q-10 0 -10 10v284q0 10 10 10h76q10 0 10 -10v-284zM151 406q0 -10 -10 -10h-76q-10 0 -10 10v284q0 10 10 10h76q10 0 10 -10v-284z" />
    <glyph glyph-name="section" unicode="&#xa7;" horiz-adv-x="396" 
d="M253 317h-109v-104h109v104zM341 -76q0 -20 -7.5 -37.5t-20 -30t-29.5 -20t-37 -7.5h-98q-19 0 -36.5 7.5t-30 20t-20 30t-7.5 37.5v54q0 5 3.5 8.5t8.5 3.5h68q5 0 8 -3.5t3 -8.5v-60h104v110q-3 2 -12.5 9t-23 17t-30 22.5t-33.5 24.5q-40 29 -88 65q-8 6 -8 17v125
q0 35 22.5 61t56.5 32q-4 3 -15 11.5t-24 17.5q-15 11 -32 23q-8 8 -8 17v137q0 19 7.5 36t20 29.5t30 20t36.5 7.5h98q20 0 37 -7.5t29.5 -20t20 -29.5t7.5 -36v-55q0 -12 -12 -12h-67q-12 0 -12 12v59h-104v-109q3 -2 12.5 -9t23 -17t30 -22.5t33.5 -24.5q40 -29 88 -65
q8 -6 8 -16v-126q0 -35 -22.5 -61t-56.5 -31q4 -3 15 -12t24 -18q15 -11 32 -24q8 -5 8 -15v-137z" />
    <glyph glyph-name="dieresis" unicode="&#xa8;" 
d="M190 768q0 -3 -2.5 -6t-7.5 -3h-74q-4 0 -7 3t-3 6v72q0 9 10 9h74q10 0 10 -9v-72zM332 768q0 -3 -2.5 -6t-7.5 -3h-74q-4 0 -7 3t-3 6v72q0 9 10 9h74q10 0 10 -9v-72z" />
    <glyph glyph-name="copyright" unicode="&#xa9;" horiz-adv-x="361" 
d="M246 416q0 -19 -13 -31t-30 -12h-42q-17 0 -29.5 12t-12.5 31v168q0 18 12.5 30t29.5 12h42q17 0 30 -12t13 -30v-27q0 -7 -8 -7h-29q-7 0 -7 7v27h-39v-168h39v25q0 7 7 7h29q8 0 8 -7v-25zM276 656h-191v-313h191v313zM326 363q0 -26 -18.5 -44.5t-44.5 -18.5h-166
q-26 0 -44 18.5t-18 44.5v274q0 26 18 44.5t44 18.5h166q26 0 44.5 -18.5t18.5 -44.5v-274z" />
    <glyph glyph-name="ordfeminine" unicode="&#xaa;" horiz-adv-x="268" 
d="M166 635h-64v-103h64v103zM231 200q0 -11 -11 -11h-171q-10 0 -10 11v44q0 10 10 10h171q11 0 11 -10v-44zM234 310q0 -10 -11 -10h-45q-12 0 -12 10v157h-64v-157q0 -10 -10 -10h-46q-11 0 -11 10v324q0 27 19.5 46.5t46.5 19.5h67q28 0 47 -19.5t19 -46.5v-324z" />
    <glyph glyph-name="guillemotleft" unicode="&#xab;" horiz-adv-x="344" 
d="M159 197q0 -11 -4 -9l-127 105q-3 2 -3 12v92q0 10 3 11l127 105q4 2 4 -9v-78q0 -10 -4 -12l-68 -64l68 -63q4 -2 4 -11v-79zM314 197q0 -5 -1 -7.5t-2 -1.5l-128 105q-3 3 -3 12v92q0 8 3 11l128 105q3 0 3 -9v-78q0 -9 -3 -12l-69 -64l69 -63q3 -3 3 -11v-79z" />
    <glyph glyph-name="registered" unicode="&#xae;" horiz-adv-x="361" 
d="M204 584h-40v-63h40v63zM250 379q0 -6 -7 -6h-33q-6 0 -6 7v83q0 15 -16 15h-24v-98q0 -7 -8 -7h-29q-7 0 -7 7v239q0 7 7 7h78q17 0 29.5 -12t12.5 -30v-53q0 -17 -14 -31q6 -6 10 -14.5t4 -17.5v-77q0 -4 1 -6.5t2 -5.5zM276 656h-191v-313h191v313zM326 363
q0 -26 -18.5 -44.5t-44.5 -18.5h-166q-26 0 -44 18.5t-18 44.5v274q0 26 18 44.5t44 18.5h166q26 0 44.5 -18.5t18.5 -44.5v-274z" />
    <glyph glyph-name="macron" unicode="&#xaf;" 
d="M327 771q0 -9 -10 -9h-206q-10 0 -10 9v66q0 10 10 10h206q10 0 10 -10v-66z" />
    <glyph glyph-name="degree" unicode="&#xb0;" horiz-adv-x="237" 
d="M147 595q0 11 -8.5 19.5t-20.5 8.5t-20 -8.5t-8 -19.5q0 -12 8 -20.5t20 -8.5t20.5 8.5t8.5 20.5zM212 595q0 -40 -27.5 -67t-66.5 -27q-19 0 -36 7t-29.5 20t-20 30t-7.5 37q0 19 7.5 36t20 29.5t29.5 20t36 7.5q20 0 37 -7.5t29.5 -20t20 -29.5t7.5 -36z" />
    <glyph glyph-name="twosuperior" unicode="&#xb2;" horiz-adv-x="253" 
d="M219 354q0 -5 -4.5 -9.5t-9.5 -4.5h-156q-6 0 -10 4.5t-4 9.5v72q0 14 2 20.5t12 17.5l50 54q19 20 34.5 38t16.5 19v58h-47v-27q0 -14 -14 -14h-40q-14 0 -14 14v31q0 26 18 44.5t44 18.5h59q26 0 44.5 -18.5t18.5 -44.5v-62q0 -14 -3 -20.5t-12 -17.5q-27 -30 -49 -54
q-19 -20 -34.5 -37.5t-17.5 -19.5v-19h102q5 0 9.5 -4t4.5 -11v-38z" />
    <glyph glyph-name="threesuperior" unicode="&#xb3;" horiz-adv-x="254" 
d="M220 403q0 -26 -19 -44.5t-45 -18.5h-58q-26 0 -44.5 18.5t-18.5 44.5v35q0 6 4.5 10t9.5 4h41q5 0 9.5 -4t4.5 -10v-31h47v80h-38q-14 0 -14 14v39q0 5 4 9.5t10 4.5h38v79h-47v-33q0 -5 -4.5 -9.5t-9.5 -4.5h-41q-5 0 -9.5 4.5t-4.5 9.5v37q0 21 12.5 37.5t32.5 22.5
q8 3 18 3h58q26 0 45 -18.5t19 -44.5v-73q0 -12 -5.5 -23.5t-13.5 -20.5q8 -8 13.5 -19.5t5.5 -23.5v-74z" />
    <glyph glyph-name="acute" unicode="&#xb4;" 
d="M226 753q-4 -4 -12 -4h-70q-10 0 -8 4l77 143q2 4 10 4h101q4 0 7 -1t1 -3z" />
    <glyph glyph-name="paragraph" unicode="&#xb6;" horiz-adv-x="486" 
d="M191 600h-58v-200h58v200zM341 600h-60v-200h60v200zM431 10q0 -10 -10 -10h-69q-11 0 -11 10v290h-60v-290q0 -10 -11 -10h-68q-11 0 -11 10v290h-58q-12 0 -29.5 6t-34 19.5t-28 34t-11.5 50.5v180q0 23 8.5 43t23.5 35t35 23.5t43 8.5h281q10 0 10 -10v-680z" />
    <glyph glyph-name="periodcentered" unicode="&#xb7;" horiz-adv-x="213" 
d="M158 310q0 -10 -10 -10h-83q-10 0 -10 10v79q0 10 10 10h83q10 0 10 -10v-79z" />
    <glyph glyph-name="cedilla" unicode="&#xb8;" 
d="M325 -175q0 -33 -24 -57t-58 -24h-149q-7 0 -5 6l18 61q3 5 7 5h135v47h-122q-2 0 -3.5 2t0.5 4l40 138q0 3 7 3h80q3 0 5.5 -0.5t1.5 -2.5l-41 -72h26q34 0 58 -24t24 -58v-28z" />
    <glyph glyph-name="onesuperior" unicode="&#xb9;" horiz-adv-x="179" 
d="M124 354q0 -5 -4.5 -9.5t-9.5 -4.5h-41q-5 0 -9.5 4.5t-4.5 9.5v332q0 5 4.5 9.5t9.5 4.5h41q5 0 9.5 -4.5t4.5 -9.5v-332z" />
    <glyph glyph-name="ordmasculine" unicode="&#xba;" horiz-adv-x="258" 
d="M161 635h-64v-270h64v270zM226 200q0 -11 -11 -11h-171q-11 0 -11 11v44q0 10 11 10h171q11 0 11 -10v-44zM229 366q0 -27 -19 -46.5t-48 -19.5h-66q-27 0 -46.5 19.5t-19.5 46.5v268q0 27 19.5 46.5t46.5 19.5h66q29 0 48 -19.5t19 -46.5v-268z" />
    <glyph glyph-name="guillemotright" unicode="&#xbb;" horiz-adv-x="344" 
d="M164 305q0 -10 -4 -12l-127 -105q-1 -1 -2 1.5t-1 7.5v79q0 8 3 11l69 63l-69 64q-3 3 -3 12v78q0 9 3 9l127 -105q4 -2 4 -11v-92zM319 305q0 -10 -3 -12l-128 -105q-1 -1 -2 1.5t-1 7.5v79q0 8 3 11l69 63l-69 64q-3 3 -3 12v78q0 5 1 7.5t2 1.5l128 -105q3 -1 3 -11
v-92z" />
    <glyph glyph-name="onequarter" unicode="&#xbc;" horiz-adv-x="481" 
d="M354 241l-41 -84h41v84zM436 113q0 -14 -14 -14h-8v-84q0 -6 -4.5 -10.5t-9.5 -4.5h-40q-7 0 -10.5 4.5t-3.5 10.5v84h-81q-14 0 -14 14v45q12 24 28 57t31 64q18 36 36 73q2 5 6.5 7t7.5 2h40q5 0 9.5 -4t4.5 -10v-181h8q7 0 10.5 -4.5t3.5 -10.5v-38zM136 10
q-4 -10 -12 -10h-45q-13 0 -15 7t1 15l230 668q4 10 14 10h43q13 0 15.5 -7t-0.5 -15zM124 354q0 -5 -4.5 -9.5t-9.5 -4.5h-41q-5 0 -9.5 4.5t-4.5 9.5v332q0 5 4.5 9.5t9.5 4.5h41q5 0 9.5 -4.5t4.5 -9.5v-332z" />
    <glyph glyph-name="onehalf" unicode="&#xbd;" horiz-adv-x="503" 
d="M468 15q0 -6 -4.5 -10.5t-9.5 -4.5h-156q-5 0 -9.5 4.5t-4.5 10.5v72q0 12 2.5 19t11.5 18q28 30 50 55q19 21 35 38t17 19v59h-48v-29q0 -14 -14 -14h-40q-5 0 -9.5 4t-4.5 10v32q0 26 18.5 44.5t44.5 18.5h58q26 0 44.5 -18.5t18.5 -44.5v-63q0 -13 -2.5 -20t-11.5 -17
q-28 -30 -50 -55q-19 -21 -34.5 -38t-17.5 -19v-19h102q5 0 9.5 -4t4.5 -10v-38zM136 10q-4 -10 -13 -10h-44q-13 0 -15.5 7t0.5 15l231 668q4 10 13 10h44q12 0 14.5 -7t-0.5 -15zM123 354q0 -5 -4 -9.5t-10 -4.5h-40q-6 0 -10 4.5t-4 9.5v332q0 5 4 9.5t10 4.5h40
q6 0 10 -4.5t4 -9.5v-332z" />
    <glyph glyph-name="threequarters" unicode="&#xbe;" horiz-adv-x="554" 
d="M427 241l-42 -84h42v84zM509 113q0 -14 -14 -14h-9v-84q0 -6 -3.5 -10.5t-10.5 -4.5h-40q-5 0 -9.5 4.5t-4.5 10.5v84h-81q-5 0 -9.5 4t-4.5 10v45q12 25 28.5 58l31.5 63q18 35 36 73q5 9 14 9h39q14 0 14 -14v-181h9q6 0 10 -4.5t4 -10.5v-38zM209 10q-4 -10 -13 -10
h-44q-12 0 -14.5 7t0.5 15l231 668q4 10 12 10h45q12 0 14 -7t0 -15zM220 403q0 -26 -19 -44.5t-45 -18.5h-58q-26 0 -44.5 18.5t-18.5 44.5v35q0 6 4.5 10t9.5 4h41q5 0 9.5 -4t4.5 -10v-31h47v80h-38q-14 0 -14 14v39q0 5 4 9.5t10 4.5h38v79h-47v-33q0 -5 -4.5 -9.5
t-9.5 -4.5h-41q-5 0 -9.5 4.5t-4.5 9.5v37q0 21 12.5 37.5t32.5 22.5q8 3 18 3h58q26 0 45 -18.5t19 -44.5v-73q0 -12 -5.5 -23.5t-13.5 -20.5q8 -8 13.5 -19.5t5.5 -23.5v-74z" />
    <glyph glyph-name="questiondown" unicode="&#xbf;" horiz-adv-x="408" 
d="M153 690q0 10 10 10h83q10 0 10 -10v-79q0 -10 -10 -10h-83q-10 0 -10 10v79zM35 239q0 22 3.5 33.5t20.5 30.5l94 102v113q0 10 10 10h83q10 0 10 -10v-106q0 -12 -1 -19.5t-3.5 -14.5t-7.5 -14t-13 -16l-93 -103v-145h133v76q0 10 10 10h83q9 0 9 -10v-66
q0 -23 -8.5 -43t-23 -35t-34.5 -23.5t-43 -8.5h-119q-23 0 -43 8.5t-35 23.5t-23.5 35t-8.5 43v129z" />
    <glyph glyph-name="Agrave" unicode="&#xc0;" horiz-adv-x="449" 
d="M291 600h-133v-200h133v200zM394 10q0 -10 -10 -10h-83q-10 0 -10 10v291h-133v-291q0 -10 -11 -10h-82q-10 0 -10 10v580q0 23 8.5 43t23.5 35t35 23.5t43 8.5h119q23 0 43 -8.5t35 -23.5t23.5 -35t8.5 -43v-580zM292 753q2 -4 -8 -4h-70q-8 0 -12 4l-106 143q-2 2 1 3
t7 1h101q8 0 10 -4z" />
    <glyph glyph-name="Aacute" unicode="&#xc1;" horiz-adv-x="449" 
d="M291 600h-133v-200h133v200zM394 10q0 -10 -10 -10h-83q-10 0 -10 10v291h-133v-291q0 -10 -11 -10h-82q-10 0 -10 10v580q0 23 8.5 43t23.5 35t35 23.5t43 8.5h119q23 0 43 -8.5t35 -23.5t23.5 -35t8.5 -43v-580zM226 753q-4 -4 -12 -4h-70q-10 0 -8 4l77 143q2 4 10 4
h101q4 0 7 -1t1 -3z" />
    <glyph glyph-name="Acircumflex" unicode="&#xc2;" horiz-adv-x="449" 
d="M291 600h-133v-200h133v200zM394 10q0 -10 -10 -10h-83q-10 0 -10 10v291h-133v-291q0 -10 -11 -10h-82q-10 0 -10 10v580q0 23 8.5 43t23.5 35t35 23.5t43 8.5h119q23 0 43 -8.5t35 -23.5t23.5 -35t8.5 -43v-580zM371 753q2 -4 -8 -4h-71q-7 0 -11 4l-57 76l-57 -76
q-4 -4 -11 -4h-71q-10 0 -8 4l95 143q1 1 5 2.5t6 1.5h82q2 0 6 -1.5t5 -2.5z" />
    <glyph glyph-name="Atilde" unicode="&#xc3;" horiz-adv-x="449" 
d="M338 776q-5 -7 -11 0l-48 48l-51 -51q-26 -25 -60.5 -25t-60.5 25l-43 42q-5 7 0 12l45 46q6 6 12 0l48 -48l51 50q26 25 61 25.5t61 -25.5l42 -42q5 -6 0 -11zM291 600h-133v-200h133v200zM394 10q0 -10 -10 -10h-83q-10 0 -10 10v291h-133v-291q0 -10 -11 -10h-82
q-10 0 -10 10v580q0 23 8.5 43t23.5 35t35 23.5t43 8.5h119q23 0 43 -8.5t35 -23.5t23.5 -35t8.5 -43v-580z" />
    <glyph glyph-name="Adieresis" unicode="&#xc4;" horiz-adv-x="449" 
d="M291 600h-133v-200h133v200zM394 10q0 -10 -10 -10h-83q-10 0 -10 10v291h-133v-291q0 -10 -11 -10h-82q-10 0 -10 10v580q0 23 8.5 43t23.5 35t35 23.5t43 8.5h119q23 0 43 -8.5t35 -23.5t23.5 -35t8.5 -43v-580zM200 768q0 -3 -2.5 -6t-7.5 -3h-74q-4 0 -7 3t-3 6v72
q0 9 10 9h74q10 0 10 -9v-72zM342 768q0 -3 -2.5 -6t-7.5 -3h-74q-4 0 -7 3t-3 6v72q0 9 10 9h74q10 0 10 -9v-72z" />
    <glyph glyph-name="Aring" unicode="&#xc5;" horiz-adv-x="449" 
d="M291 600h-133v-200h133v200zM252 785q0 11 -8.5 19.5t-19.5 8.5q-12 0 -20 -8.5t-8 -19.5q0 -12 8 -20.5t20 -8.5q11 0 19.5 8.5t8.5 20.5zM394 10q0 -10 -10 -10h-83q-10 0 -10 10v291h-133v-291q0 -10 -11 -10h-82q-10 0 -10 10v580q0 23 8.5 43t23.5 35t35 23.5
t43 8.5h18q-23 11 -38 33.5t-15 51.5q0 19 7.5 36t20 29.5t30 20t36.5 7.5q20 0 37 -7.5t29.5 -20t20 -29.5t7.5 -36q0 -29 -15 -51.5t-38 -33.5h19q23 0 43 -8.5t35 -23.5t23.5 -35t8.5 -43v-580z" />
    <glyph glyph-name="AE" unicode="&#xc6;" horiz-adv-x="602" 
d="M292 600h-134v-200h134v200zM557 10q0 -10 -10 -10h-245q-10 0 -10 10v291h-134v-291q0 -10 -10 -10h-83q-10 0 -10 10v580q0 23 8.5 43t23.5 35t35 23.5t43 8.5h119q17 0 31.5 -4.5t27.5 -12.5q13 8 27 12.5t31 4.5h146q10 0 10 -10v-79q0 -11 -10 -11h-153v-200h153
q10 0 10 -10v-79q0 -10 -10 -10h-153v-202h153q10 0 10 -10v-79z" />
    <glyph glyph-name="Ccedilla" unicode="&#xc7;" horiz-adv-x="424" 
d="M384 110q0 -23 -8.5 -43t-23.5 -35t-35 -23.5t-43 -8.5h-14l-37 -65h26q34 0 58 -24t24 -58v-28q0 -33 -24 -57t-58 -24h-149q-7 0 -5 6l18 61q3 5 7 5h135v47h-122q-2 0 -3.5 2t0.5 4l38 131h-13q-23 0 -43 8.5t-35 23.5t-23.5 35t-8.5 43v480q0 23 8.5 43t23.5 35
t35 23.5t43 8.5h119q23 0 43 -8.5t35 -23.5t23.5 -35t8.5 -43v-77q0 -11 -10 -11h-82q-10 0 -10 11v87h-134v-501h134v83q0 10 10 10h82q10 0 10 -10v-72z" />
    <glyph glyph-name="Egrave" unicode="&#xc8;" horiz-adv-x="356" 
d="M292 753q2 -4 -8 -4h-70q-8 0 -12 4l-106 143q-2 2 1 3t7 1h101q8 0 10 -4zM312 10q0 -10 -11 -10h-146q-23 0 -43 8.5t-35 23.5t-23.5 35t-8.5 43v480q0 23 8.5 43t23.5 35t35 23.5t43 8.5h146q11 0 11 -10v-79q0 -11 -11 -11h-153v-200h153q11 0 11 -10v-79
q0 -10 -11 -10h-153v-202h153q11 0 11 -10v-79z" />
    <glyph glyph-name="Eacute" unicode="&#xc9;" horiz-adv-x="356" 
d="M312 10q0 -10 -11 -10h-146q-23 0 -43 8.5t-35 23.5t-23.5 35t-8.5 43v480q0 23 8.5 43t23.5 35t35 23.5t43 8.5h146q11 0 11 -10v-79q0 -11 -11 -11h-153v-200h153q11 0 11 -10v-79q0 -10 -11 -10h-153v-202h153q11 0 11 -10v-79zM226 753q-4 -4 -12 -4h-70q-10 0 -8 4
l77 143q2 4 10 4h101q4 0 7 -1t1 -3z" />
    <glyph glyph-name="Ecircumflex" unicode="&#xca;" horiz-adv-x="356" 
d="M331 753q2 -4 -8 -4h-71q-7 0 -11 4l-57 76l-57 -76q-4 -4 -11 -4h-71q-10 0 -8 4l95 143q1 1 5 2.5t6 1.5h82q2 0 6 -1.5t5 -2.5zM312 10q0 -10 -11 -10h-146q-23 0 -43 8.5t-35 23.5t-23.5 35t-8.5 43v480q0 23 8.5 43t23.5 35t35 23.5t43 8.5h146q11 0 11 -10v-79
q0 -11 -11 -11h-153v-200h153q11 0 11 -10v-79q0 -10 -11 -10h-153v-202h153q11 0 11 -10v-79z" />
    <glyph glyph-name="Edieresis" unicode="&#xcb;" horiz-adv-x="356" 
d="M312 10q0 -10 -11 -10h-146q-23 0 -43 8.5t-35 23.5t-23.5 35t-8.5 43v480q0 23 8.5 43t23.5 35t35 23.5t43 8.5h146q11 0 11 -10v-79q0 -11 -11 -11h-153v-200h153q11 0 11 -10v-79q0 -10 -11 -10h-153v-202h153q11 0 11 -10v-79zM161 768q0 -3 -2.5 -6t-7.5 -3h-74
q-4 0 -7 3t-3 6v72q0 9 10 9h74q10 0 10 -9v-72zM303 768q0 -3 -2.5 -6t-7.5 -3h-74q-4 0 -7 3t-3 6v72q0 9 10 9h74q10 0 10 -9v-72z" />
    <glyph glyph-name="Igrave" unicode="&#xcc;" horiz-adv-x="213" 
d="M152 753q2 -4 -8 -4h-70q-8 0 -12 4l-106 143q-2 2 1 3t7 1h101q8 0 10 -4zM158 10q0 -10 -10 -10h-83q-10 0 -10 10v680q0 10 10 10h83q10 0 10 -10v-680z" />
    <glyph glyph-name="Iacute" unicode="&#xcd;" horiz-adv-x="213" 
d="M158 10q0 -10 -10 -10h-83q-10 0 -10 10v680q0 10 10 10h83q10 0 10 -10v-680zM147 753q-4 -4 -12 -4h-70q-10 0 -8 4l77 143q2 4 10 4h101q4 0 7 -1t1 -3z" />
    <glyph glyph-name="Icircumflex" unicode="&#xce;" horiz-adv-x="213" 
d="M255 753q2 -4 -8 -4h-71q-7 0 -11 4l-57 76l-57 -76q-4 -4 -11 -4h-71q-10 0 -8 4l95 143q1 1 5 2.5t6 1.5h82q2 0 6 -1.5t5 -2.5zM158 10q0 -10 -10 -10h-83q-10 0 -10 10v680q0 10 10 10h83q10 0 10 -10v-680z" />
    <glyph glyph-name="Idieresis" unicode="&#xcf;" horiz-adv-x="213" 
d="M158 10q0 -10 -10 -10h-83q-10 0 -10 10v680q0 10 10 10h83q10 0 10 -10v-680zM81 768q0 -3 -2.5 -6t-7.5 -3h-74q-4 0 -7 3t-3 6v72q0 9 10 9h74q10 0 10 -9v-72zM223 768q0 -3 -2.5 -6t-7.5 -3h-74q-4 0 -7 3t-3 6v72q0 9 10 9h74q10 0 10 -9v-72z" />
    <glyph glyph-name="Eth" unicode="&#xd0;" horiz-adv-x="439" 
d="M292 600h-134v-199h39q11 0 11 -11v-79q0 -10 -11 -10h-39v-202h134v501zM394 110q0 -23 -8.5 -43t-23.5 -35t-35 -23.5t-43 -8.5h-219q-10 0 -10 10v291h-36q-11 0 -11 10v79q0 11 11 11h36v289q0 10 10 10h219q23 0 43 -8.5t35 -23.5t23.5 -35t8.5 -43v-480z" />
    <glyph glyph-name="Ntilde" unicode="&#xd1;" horiz-adv-x="462" 
d="M407 10q0 -10 -10 -10h-82q-10 0 -10 10v590h-147v-590q0 -10 -11 -10h-82q-10 0 -10 10v680q0 10 10 10h82q11 0 11 -10v-24q14 16 35 25t44 9h60q23 0 43 -8.5t35 -23.5t23.5 -35t8.5 -43v-580zM338 776q-5 -7 -11 0l-48 48l-51 -51q-26 -25 -60.5 -25t-60.5 25l-43 42
q-5 7 0 12l45 46q6 6 12 0l48 -48l51 50q26 25 61 25.5t61 -25.5l42 -42q5 -6 0 -11z" />
    <glyph glyph-name="Ograve" unicode="&#xd2;" 
d="M281 600h-133v-501h133v501zM383 110q0 -23 -8.5 -43t-23 -35t-34.5 -23.5t-43 -8.5h-120q-23 0 -43 8.5t-34.5 23.5t-23 35t-8.5 43v480q0 23 8.5 43t23 35t34.5 23.5t43 8.5h120q23 0 43 -8.5t34.5 -23.5t23 -35t8.5 -43v-480zM292 753q2 -4 -8 -4h-70q-8 0 -12 4
l-106 143q-2 2 1 3t7 1h101q8 0 10 -4z" />
    <glyph glyph-name="Oacute" unicode="&#xd3;" 
d="M281 600h-133v-501h133v501zM383 110q0 -23 -8.5 -43t-23 -35t-34.5 -23.5t-43 -8.5h-120q-23 0 -43 8.5t-34.5 23.5t-23 35t-8.5 43v480q0 23 8.5 43t23 35t34.5 23.5t43 8.5h120q23 0 43 -8.5t34.5 -23.5t23 -35t8.5 -43v-480zM236 753q-4 -4 -12 -4h-70q-10 0 -8 4
l77 143q2 4 10 4h101q4 0 7 -1t1 -3z" />
    <glyph glyph-name="Ocircumflex" unicode="&#xd4;" 
d="M361 753q2 -4 -8 -4h-71q-7 0 -11 4l-57 76l-57 -76q-4 -4 -11 -4h-71q-10 0 -8 4l95 143q1 1 5 2.5t6 1.5h82q2 0 6 -1.5t5 -2.5zM281 600h-133v-501h133v501zM383 110q0 -23 -8.5 -43t-23 -35t-34.5 -23.5t-43 -8.5h-120q-23 0 -43 8.5t-34.5 23.5t-23 35t-8.5 43v480
q0 23 8.5 43t23 35t34.5 23.5t43 8.5h120q23 0 43 -8.5t34.5 -23.5t23 -35t8.5 -43v-480z" />
    <glyph glyph-name="Otilde" unicode="&#xd5;" 
d="M281 600h-133v-501h133v501zM383 110q0 -23 -8.5 -43t-23 -35t-34.5 -23.5t-43 -8.5h-120q-23 0 -43 8.5t-34.5 23.5t-23 35t-8.5 43v480q0 23 8.5 43t23 35t34.5 23.5t43 8.5h120q23 0 43 -8.5t34.5 -23.5t23 -35t8.5 -43v-480zM328 776q-5 -7 -11 0l-48 48l-51 -51
q-26 -25 -60.5 -25t-60.5 25l-43 42q-5 7 0 12l45 46q6 6 12 0l48 -48l51 50q26 25 61 25.5t61 -25.5l42 -42q5 -6 0 -11z" />
    <glyph glyph-name="Odieresis" unicode="&#xd6;" 
d="M281 600h-133v-501h133v501zM383 110q0 -23 -8.5 -43t-23 -35t-34.5 -23.5t-43 -8.5h-120q-23 0 -43 8.5t-34.5 23.5t-23 35t-8.5 43v480q0 23 8.5 43t23 35t34.5 23.5t43 8.5h120q23 0 43 -8.5t34.5 -23.5t23 -35t8.5 -43v-480zM190 768q0 -3 -2.5 -6t-7.5 -3h-74
q-4 0 -7 3t-3 6v72q0 9 10 9h74q10 0 10 -9v-72zM332 768q0 -3 -2.5 -6t-7.5 -3h-74q-4 0 -7 3t-3 6v72q0 9 10 9h74q10 0 10 -9v-72z" />
    <glyph glyph-name="multiply" unicode="&#xd7;" horiz-adv-x="385" 
d="M277 215q-7 -7 -15 0l-69 70l-70 -70q-7 -7 -14 0l-51 51q-8 8 0 14l69 70l-69 70q-3 2 -3 6.5t3 7.5l51 51q7 7 14 0l70 -70l69 70q8 8 15 0l51 -51q6 -8 0 -14l-70 -70l70 -70q6 -6 0 -14z" />
    <glyph glyph-name="Oslash" unicode="&#xd8;" 
d="M171 99h110v344zM148 600v-336l107 336h-107zM383 110q0 -23 -8.5 -43t-23 -35t-34.5 -23.5t-43 -8.5h-120q-23 0 -43 8.5t-34.5 23.5t-23 35t-8.5 43v480q0 23 8.5 43t23 35t34.5 23.5t43 8.5h120q23 0 43 -8.5t34.5 -23.5t23 -35t8.5 -43v-480z" />
    <glyph glyph-name="Ugrave" unicode="&#xd9;" horiz-adv-x="462" 
d="M407 10q0 -10 -10 -10h-82q-10 0 -10 10v24q-15 -16 -35.5 -25t-43.5 -9h-61q-23 0 -43 8.5t-35 23.5t-23.5 35t-8.5 43v580q0 10 10 10h82q11 0 11 -10v-590h147v590q0 10 10 10h82q10 0 10 -10v-680zM283 753q2 -4 -8 -4h-70q-8 0 -12 4l-106 143q-2 2 1 3t7 1h101
q8 0 10 -4z" />
    <glyph glyph-name="Uacute" unicode="&#xda;" horiz-adv-x="462" 
d="M407 10q0 -10 -10 -10h-82q-10 0 -10 10v24q-15 -16 -35.5 -25t-43.5 -9h-61q-23 0 -43 8.5t-35 23.5t-23.5 35t-8.5 43v580q0 10 10 10h82q11 0 11 -10v-590h147v590q0 10 10 10h82q10 0 10 -10v-680zM256 753q-4 -4 -12 -4h-70q-10 0 -8 4l77 143q2 4 10 4h101
q4 0 7 -1t1 -3z" />
    <glyph glyph-name="Ucircumflex" unicode="&#xdb;" horiz-adv-x="462" 
d="M378 753q2 -4 -8 -4h-71q-7 0 -11 4l-57 76l-57 -76q-4 -4 -11 -4h-71q-10 0 -8 4l95 143q1 1 5 2.5t6 1.5h82q2 0 6 -1.5t5 -2.5zM407 10q0 -10 -10 -10h-82q-10 0 -10 10v24q-15 -16 -35.5 -25t-43.5 -9h-61q-23 0 -43 8.5t-35 23.5t-23.5 35t-8.5 43v580q0 10 10 10
h82q11 0 11 -10v-590h147v590q0 10 10 10h82q10 0 10 -10v-680z" />
    <glyph glyph-name="Udieresis" unicode="&#xdc;" horiz-adv-x="462" 
d="M210 768q0 -3 -2.5 -6t-7.5 -3h-74q-4 0 -7 3t-3 6v72q0 9 10 9h74q10 0 10 -9v-72zM352 768q0 -3 -2.5 -6t-7.5 -3h-74q-4 0 -7 3t-3 6v72q0 9 10 9h74q10 0 10 -9v-72zM407 10q0 -10 -10 -10h-82q-10 0 -10 10v24q-15 -16 -35.5 -25t-43.5 -9h-61q-23 0 -43 8.5
t-35 23.5t-23.5 35t-8.5 43v580q0 10 10 10h82q11 0 11 -10v-590h147v590q0 10 10 10h82q10 0 10 -10v-680z" />
    <glyph glyph-name="Yacute" unicode="&#xdd;" horiz-adv-x="429" 
d="M384 411q0 -23 -8.5 -43t-23.5 -35t-35 -23.5t-43 -8.5h-8v-291q0 -10 -10 -10h-82q-11 0 -11 10v291h-8q-23 0 -43 8.5t-35 23.5t-23.5 35t-8.5 43v279q0 10 10 10h82q11 0 11 -10v-275h133v275q0 10 10 10h83q10 0 10 -10v-279zM226 753q-4 -4 -12 -4h-70q-10 0 -8 4
l77 143q2 4 10 4h101q4 0 7 -1t1 -3z" />
    <glyph glyph-name="Thorn" unicode="&#xde;" horiz-adv-x="439" 
d="M291 451h-133v-201h133v201zM394 260q0 -22 -8 -42t-21.5 -35t-32.5 -24t-41 -9h-133v-140q0 -10 -11 -10h-82q-10 0 -10 10v680q0 10 10 10h82q11 0 11 -10v-139h126q23 0 43 -8.5t35 -23.5t23.5 -35t8.5 -43v-181z" />
    <glyph glyph-name="germandbls" unicode="&#xdf;" horiz-adv-x="859" 
d="M814 110q0 -23 -8.5 -43t-23 -35t-34.5 -23.5t-43 -8.5h-120q-23 0 -43 8.5t-34.5 23.5t-23 35t-8.5 43v66q0 10 10 10h82q11 0 11 -10v-76h133v139l-229 169q-2 3 -4.5 7.5t-2.5 9.5v165q0 23 8.5 43t23 35t34.5 23.5t43 8.5h120q23 0 43 -8.5t34.5 -23.5t23 -35
t8.5 -43v-66q0 -10 -10 -10h-82q-10 0 -10 10v76h-133v-138l227 -169q8 -6 8 -17v-166zM383 110q0 -23 -8.5 -43t-23 -35t-34.5 -23.5t-43 -8.5h-120q-23 0 -43 8.5t-34.5 23.5t-23 35t-8.5 43v66q0 10 10 10h82q11 0 11 -10v-76h133v139l-229 169q-2 3 -4.5 7.5t-2.5 9.5
v165q0 23 8.5 43t23 35t34.5 23.5t43 8.5h120q23 0 43 -8.5t34.5 -23.5t23 -35t8.5 -43v-66q0 -10 -10 -10h-82q-10 0 -10 10v76h-133v-138l227 -169q8 -6 8 -17v-166z" />
    <glyph glyph-name="agrave" unicode="&#xe0;" horiz-adv-x="449" 
d="M292 753q2 -4 -8 -4h-70q-8 0 -12 4l-106 143q-2 2 1 3t7 1h101q8 0 10 -4zM291 600h-133v-200h133v200zM394 10q0 -10 -10 -10h-83q-10 0 -10 10v291h-133v-291q0 -10 -11 -10h-82q-10 0 -10 10v580q0 23 8.5 43t23.5 35t35 23.5t43 8.5h119q23 0 43 -8.5t35 -23.5
t23.5 -35t8.5 -43v-580z" />
    <glyph glyph-name="aacute" unicode="&#xe1;" horiz-adv-x="449" 
d="M291 600h-133v-200h133v200zM394 10q0 -10 -10 -10h-83q-10 0 -10 10v291h-133v-291q0 -10 -11 -10h-82q-10 0 -10 10v580q0 23 8.5 43t23.5 35t35 23.5t43 8.5h119q23 0 43 -8.5t35 -23.5t23.5 -35t8.5 -43v-580zM226 753q-4 -4 -12 -4h-70q-10 0 -8 4l77 143q2 4 10 4
h101q4 0 7 -1t1 -3z" />
    <glyph glyph-name="acircumflex" unicode="&#xe2;" horiz-adv-x="449" 
d="M291 600h-133v-200h133v200zM394 10q0 -10 -10 -10h-83q-10 0 -10 10v291h-133v-291q0 -10 -11 -10h-82q-10 0 -10 10v580q0 23 8.5 43t23.5 35t35 23.5t43 8.5h119q23 0 43 -8.5t35 -23.5t23.5 -35t8.5 -43v-580zM371 753q2 -4 -8 -4h-71q-7 0 -11 4l-57 76l-57 -76
q-4 -4 -11 -4h-71q-10 0 -8 4l95 143q1 1 5 2.5t6 1.5h82q2 0 6 -1.5t5 -2.5z" />
    <glyph glyph-name="atilde" unicode="&#xe3;" horiz-adv-x="449" 
d="M291 600h-133v-200h133v200zM394 10q0 -10 -10 -10h-83q-10 0 -10 10v291h-133v-291q0 -10 -11 -10h-82q-10 0 -10 10v580q0 23 8.5 43t23.5 35t35 23.5t43 8.5h119q23 0 43 -8.5t35 -23.5t23.5 -35t8.5 -43v-580zM338 776q-5 -7 -11 0l-48 48l-51 -51q-26 -25 -60.5 -25
t-60.5 25l-43 42q-5 7 0 12l45 46q6 6 12 0l48 -48l51 50q26 25 61 25.5t61 -25.5l42 -42q5 -6 0 -11z" />
    <glyph glyph-name="adieresis" unicode="&#xe4;" horiz-adv-x="449" 
d="M200 768q0 -3 -2.5 -6t-7.5 -3h-74q-4 0 -7 3t-3 6v72q0 9 10 9h74q10 0 10 -9v-72zM342 768q0 -3 -2.5 -6t-7.5 -3h-74q-4 0 -7 3t-3 6v72q0 9 10 9h74q10 0 10 -9v-72zM291 600h-133v-200h133v200zM394 10q0 -10 -10 -10h-83q-10 0 -10 10v291h-133v-291q0 -10 -11 -10
h-82q-10 0 -10 10v580q0 23 8.5 43t23.5 35t35 23.5t43 8.5h119q23 0 43 -8.5t35 -23.5t23.5 -35t8.5 -43v-580z" />
    <glyph glyph-name="aring" unicode="&#xe5;" horiz-adv-x="449" 
d="M291 600h-133v-200h133v200zM252 785q0 11 -8.5 19.5t-19.5 8.5q-12 0 -20 -8.5t-8 -19.5q0 -12 8 -20.5t20 -8.5q11 0 19.5 8.5t8.5 20.5zM394 10q0 -10 -10 -10h-83q-10 0 -10 10v291h-133v-291q0 -10 -11 -10h-82q-10 0 -10 10v580q0 23 8.5 43t23.5 35t35 23.5
t43 8.5h18q-23 11 -38 33.5t-15 51.5q0 19 7.5 36t20 29.5t30 20t36.5 7.5q20 0 37 -7.5t29.5 -20t20 -29.5t7.5 -36q0 -29 -15 -51.5t-38 -33.5h19q23 0 43 -8.5t35 -23.5t23.5 -35t8.5 -43v-580z" />
    <glyph glyph-name="ae" unicode="&#xe6;" horiz-adv-x="602" 
d="M292 600h-134v-200h134v200zM557 10q0 -10 -10 -10h-245q-10 0 -10 10v291h-134v-291q0 -10 -10 -10h-83q-10 0 -10 10v580q0 23 8.5 43t23.5 35t35 23.5t43 8.5h119q17 0 31.5 -4.5t27.5 -12.5q13 8 27 12.5t31 4.5h146q10 0 10 -10v-79q0 -11 -10 -11h-153v-200h153
q10 0 10 -10v-79q0 -10 -10 -10h-153v-202h153q10 0 10 -10v-79z" />
    <glyph glyph-name="ccedilla" unicode="&#xe7;" horiz-adv-x="424" 
d="M384 110q0 -23 -8.5 -43t-23.5 -35t-35 -23.5t-43 -8.5h-14l-37 -65h26q34 0 58 -24t24 -58v-28q0 -33 -24 -57t-58 -24h-149q-7 0 -5 6l18 61q3 5 7 5h135v47h-122q-2 0 -3.5 2t0.5 4l38 131h-13q-23 0 -43 8.5t-35 23.5t-23.5 35t-8.5 43v480q0 23 8.5 43t23.5 35
t35 23.5t43 8.5h119q23 0 43 -8.5t35 -23.5t23.5 -35t8.5 -43v-77q0 -11 -10 -11h-82q-10 0 -10 11v87h-134v-501h134v83q0 10 10 10h82q10 0 10 -10v-72z" />
    <glyph glyph-name="egrave" unicode="&#xe8;" horiz-adv-x="356" 
d="M292 753q2 -4 -8 -4h-70q-8 0 -12 4l-106 143q-2 2 1 3t7 1h101q8 0 10 -4zM312 10q0 -10 -11 -10h-146q-23 0 -43 8.5t-35 23.5t-23.5 35t-8.5 43v480q0 23 8.5 43t23.5 35t35 23.5t43 8.5h146q11 0 11 -10v-79q0 -11 -11 -11h-153v-200h153q11 0 11 -10v-79
q0 -10 -11 -10h-153v-202h153q11 0 11 -10v-79z" />
    <glyph glyph-name="eacute" unicode="&#xe9;" horiz-adv-x="356" 
d="M312 10q0 -10 -11 -10h-146q-23 0 -43 8.5t-35 23.5t-23.5 35t-8.5 43v480q0 23 8.5 43t23.5 35t35 23.5t43 8.5h146q11 0 11 -10v-79q0 -11 -11 -11h-153v-200h153q11 0 11 -10v-79q0 -10 -11 -10h-153v-202h153q11 0 11 -10v-79zM226 753q-4 -4 -12 -4h-70q-10 0 -8 4
l77 143q2 4 10 4h101q4 0 7 -1t1 -3z" />
    <glyph glyph-name="ecircumflex" unicode="&#xea;" horiz-adv-x="356" 
d="M312 10q0 -10 -11 -10h-146q-23 0 -43 8.5t-35 23.5t-23.5 35t-8.5 43v480q0 23 8.5 43t23.5 35t35 23.5t43 8.5h146q11 0 11 -10v-79q0 -11 -11 -11h-153v-200h153q11 0 11 -10v-79q0 -10 -11 -10h-153v-202h153q11 0 11 -10v-79zM332 753q2 -4 -8 -4h-71q-7 0 -11 4
l-57 76l-57 -76q-4 -4 -11 -4h-71q-10 0 -8 4l95 143q1 1 5 2.5t6 1.5h82q2 0 6 -1.5t5 -2.5z" />
    <glyph glyph-name="edieresis" unicode="&#xeb;" horiz-adv-x="356" 
d="M160 768q0 -3 -2.5 -6t-7.5 -3h-74q-4 0 -7 3t-3 6v72q0 9 10 9h74q10 0 10 -9v-72zM302 768q0 -3 -2.5 -6t-7.5 -3h-74q-4 0 -7 3t-3 6v72q0 9 10 9h74q10 0 10 -9v-72zM312 10q0 -10 -11 -10h-146q-23 0 -43 8.5t-35 23.5t-23.5 35t-8.5 43v480q0 23 8.5 43t23.5 35
t35 23.5t43 8.5h146q11 0 11 -10v-79q0 -11 -11 -11h-153v-200h153q11 0 11 -10v-79q0 -10 -11 -10h-153v-202h153q11 0 11 -10v-79z" />
    <glyph glyph-name="igrave" unicode="&#xec;" horiz-adv-x="213" 
d="M152 753q2 -4 -8 -4h-70q-8 0 -12 4l-106 143q-2 2 1 3t7 1h101q8 0 10 -4zM158 10q0 -10 -10 -10h-83q-10 0 -10 10v680q0 10 10 10h83q10 0 10 -10v-680z" />
    <glyph glyph-name="iacute" unicode="&#xed;" horiz-adv-x="213" 
d="M158 10q0 -10 -10 -10h-83q-10 0 -10 10v680q0 10 10 10h83q10 0 10 -10v-680zM157 753q-4 -4 -12 -4h-70q-10 0 -8 4l77 143q2 4 10 4h101q4 0 7 -1t1 -3z" />
    <glyph glyph-name="icircumflex" unicode="&#xee;" horiz-adv-x="213" 
d="M158 10q0 -10 -10 -10h-83q-10 0 -10 10v680q0 10 10 10h83q10 0 10 -10v-680zM256 753q2 -4 -8 -4h-71q-7 0 -11 4l-57 76l-57 -76q-4 -4 -11 -4h-71q-10 0 -8 4l95 143q1 1 5 2.5t6 1.5h82q2 0 6 -1.5t5 -2.5z" />
    <glyph glyph-name="idieresis" unicode="&#xef;" horiz-adv-x="213" 
d="M80 768q0 -3 -2.5 -6t-7.5 -3h-74q-4 0 -7 3t-3 6v72q0 9 10 9h74q10 0 10 -9v-72zM222 768q0 -3 -2.5 -6t-7.5 -3h-74q-4 0 -7 3t-3 6v72q0 9 10 9h74q10 0 10 -9v-72zM158 10q0 -10 -10 -10h-83q-10 0 -10 10v680q0 10 10 10h83q10 0 10 -10v-680z" />
    <glyph glyph-name="eth" unicode="&#xf0;" horiz-adv-x="439" 
d="M292 600h-134v-199h39q11 0 11 -11v-79q0 -10 -11 -10h-39v-202h134v501zM394 110q0 -23 -8.5 -43t-23.5 -35t-35 -23.5t-43 -8.5h-219q-10 0 -10 10v291h-36q-11 0 -11 10v79q0 11 11 11h36v289q0 10 10 10h219q23 0 43 -8.5t35 -23.5t23.5 -35t8.5 -43v-480z" />
    <glyph glyph-name="ntilde" unicode="&#xf1;" horiz-adv-x="462" 
d="M407 10q0 -10 -10 -10h-82q-10 0 -10 10v590h-147v-590q0 -10 -11 -10h-82q-10 0 -10 10v680q0 10 10 10h82q11 0 11 -10v-24q14 16 35 25t44 9h60q23 0 43 -8.5t35 -23.5t23.5 -35t8.5 -43v-580zM338 776q-5 -7 -11 0l-48 48l-51 -51q-26 -25 -60.5 -25t-60.5 25l-43 42
q-5 7 0 12l45 46q6 6 12 0l48 -48l51 50q26 25 61 25.5t61 -25.5l42 -42q5 -6 0 -11z" />
    <glyph glyph-name="ograve" unicode="&#xf2;" 
d="M292 753q2 -4 -8 -4h-70q-8 0 -12 4l-106 143q-2 2 1 3t7 1h101q8 0 10 -4zM281 600h-133v-501h133v501zM383 110q0 -23 -8.5 -43t-23 -35t-34.5 -23.5t-43 -8.5h-120q-23 0 -43 8.5t-34.5 23.5t-23 35t-8.5 43v480q0 23 8.5 43t23 35t34.5 23.5t43 8.5h120q23 0 43 -8.5
t34.5 -23.5t23 -35t8.5 -43v-480z" />
    <glyph glyph-name="oacute" unicode="&#xf3;" 
d="M281 600h-133v-501h133v501zM383 110q0 -23 -8.5 -43t-23 -35t-34.5 -23.5t-43 -8.5h-120q-23 0 -43 8.5t-34.5 23.5t-23 35t-8.5 43v480q0 23 8.5 43t23 35t34.5 23.5t43 8.5h120q23 0 43 -8.5t34.5 -23.5t23 -35t8.5 -43v-480zM236 753q-4 -4 -12 -4h-70q-10 0 -8 4
l77 143q2 4 10 4h101q4 0 7 -1t1 -3z" />
    <glyph glyph-name="ocircumflex" unicode="&#xf4;" 
d="M281 600h-133v-501h133v501zM383 110q0 -23 -8.5 -43t-23 -35t-34.5 -23.5t-43 -8.5h-120q-23 0 -43 8.5t-34.5 23.5t-23 35t-8.5 43v480q0 23 8.5 43t23 35t34.5 23.5t43 8.5h120q23 0 43 -8.5t34.5 -23.5t23 -35t8.5 -43v-480zM361 753q2 -4 -8 -4h-71q-7 0 -11 4
l-57 76l-57 -76q-4 -4 -11 -4h-71q-10 0 -8 4l95 143q1 1 5 2.5t6 1.5h82q2 0 6 -1.5t5 -2.5z" />
    <glyph glyph-name="otilde" unicode="&#xf5;" 
d="M281 600h-133v-501h133v501zM383 110q0 -23 -8.5 -43t-23 -35t-34.5 -23.5t-43 -8.5h-120q-23 0 -43 8.5t-34.5 23.5t-23 35t-8.5 43v480q0 23 8.5 43t23 35t34.5 23.5t43 8.5h120q23 0 43 -8.5t34.5 -23.5t23 -35t8.5 -43v-480zM328 776q-5 -7 -11 0l-48 48l-51 -51
q-26 -25 -60.5 -25t-60.5 25l-43 42q-5 7 0 12l45 46q6 6 12 0l48 -48l51 50q26 25 61 25.5t61 -25.5l42 -42q5 -6 0 -11z" />
    <glyph glyph-name="odieresis" unicode="&#xf6;" 
d="M190 768q0 -3 -2.5 -6t-7.5 -3h-74q-4 0 -7 3t-3 6v72q0 9 10 9h74q10 0 10 -9v-72zM332 768q0 -3 -2.5 -6t-7.5 -3h-74q-4 0 -7 3t-3 6v72q0 9 10 9h74q10 0 10 -9v-72zM281 600h-133v-501h133v501zM383 110q0 -23 -8.5 -43t-23 -35t-34.5 -23.5t-43 -8.5h-120
q-23 0 -43 8.5t-34.5 23.5t-23 35t-8.5 43v480q0 23 8.5 43t23 35t34.5 23.5t43 8.5h120q23 0 43 -8.5t34.5 -23.5t23 -35t8.5 -43v-480z" />
    <glyph glyph-name="divide" unicode="&#xf7;" horiz-adv-x="419" 
d="M262 174q0 -10 -10 -10h-83q-11 0 -11 10v79q0 10 11 10h83q10 0 10 -10v-79zM364 314q0 -10 -10 -10h-289q-10 0 -10 10v72q0 10 10 10h289q10 0 10 -10v-72zM262 446q0 -10 -10 -10h-83q-11 0 -11 10v80q0 10 11 10h83q10 0 10 -10v-80z" />
    <glyph glyph-name="oslash" unicode="&#xf8;" 
d="M171 99h110v344zM148 600v-336l107 336h-107zM383 110q0 -23 -8.5 -43t-23 -35t-34.5 -23.5t-43 -8.5h-120q-23 0 -43 8.5t-34.5 23.5t-23 35t-8.5 43v480q0 23 8.5 43t23 35t34.5 23.5t43 8.5h120q23 0 43 -8.5t34.5 -23.5t23 -35t8.5 -43v-480z" />
    <glyph glyph-name="ugrave" unicode="&#xf9;" horiz-adv-x="462" 
d="M282 753q2 -4 -8 -4h-70q-8 0 -12 4l-106 143q-2 2 1 3t7 1h101q8 0 10 -4zM407 10q0 -10 -10 -10h-82q-10 0 -10 10v24q-15 -16 -35.5 -25t-43.5 -9h-61q-23 0 -43 8.5t-35 23.5t-23.5 35t-8.5 43v580q0 10 10 10h82q11 0 11 -10v-590h147v590q0 10 10 10h82
q10 0 10 -10v-680z" />
    <glyph glyph-name="uacute" unicode="&#xfa;" horiz-adv-x="462" 
d="M407 10q0 -10 -10 -10h-82q-10 0 -10 10v24q-15 -16 -35.5 -25t-43.5 -9h-61q-23 0 -43 8.5t-35 23.5t-23.5 35t-8.5 43v580q0 10 10 10h82q11 0 11 -10v-590h147v590q0 10 10 10h82q10 0 10 -10v-680zM236 753q-4 -4 -12 -4h-70q-10 0 -8 4l77 143q2 4 10 4h101
q4 0 7 -1t1 -3z" />
    <glyph glyph-name="ucircumflex" unicode="&#xfb;" horiz-adv-x="462" 
d="M407 10q0 -10 -10 -10h-82q-10 0 -10 10v24q-15 -16 -35.5 -25t-43.5 -9h-61q-23 0 -43 8.5t-35 23.5t-23.5 35t-8.5 43v580q0 10 10 10h82q11 0 11 -10v-590h147v590q0 10 10 10h82q10 0 10 -10v-680zM378 753q2 -4 -8 -4h-71q-7 0 -11 4l-57 76l-57 -76q-4 -4 -11 -4
h-71q-10 0 -8 4l95 143q1 1 5 2.5t6 1.5h82q2 0 6 -1.5t5 -2.5z" />
    <glyph glyph-name="udieresis" unicode="&#xfc;" horiz-adv-x="462" 
d="M210 768q0 -3 -2.5 -6t-7.5 -3h-74q-4 0 -7 3t-3 6v72q0 9 10 9h74q10 0 10 -9v-72zM352 768q0 -3 -2.5 -6t-7.5 -3h-74q-4 0 -7 3t-3 6v72q0 9 10 9h74q10 0 10 -9v-72zM407 10q0 -10 -10 -10h-82q-10 0 -10 10v24q-15 -16 -35.5 -25t-43.5 -9h-61q-23 0 -43 8.5
t-35 23.5t-23.5 35t-8.5 43v580q0 10 10 10h82q11 0 11 -10v-590h147v590q0 10 10 10h82q10 0 10 -10v-680z" />
    <glyph glyph-name="yacute" unicode="&#xfd;" horiz-adv-x="429" 
d="M226 753q-4 -4 -12 -4h-70q-10 0 -8 4l77 143q2 4 10 4h101q4 0 7 -1t1 -3zM384 411q0 -23 -8.5 -43t-23.5 -35t-35 -23.5t-43 -8.5h-8v-291q0 -10 -10 -10h-82q-11 0 -11 10v291h-8q-23 0 -43 8.5t-35 23.5t-23.5 35t-8.5 43v279q0 10 10 10h82q11 0 11 -10v-275h133
v275q0 10 10 10h83q10 0 10 -10v-279z" />
    <glyph glyph-name="thorn" unicode="&#xfe;" horiz-adv-x="439" 
d="M291 451h-133v-201h133v201zM394 260q0 -22 -8 -42t-21.5 -35t-32.5 -24t-41 -9h-133v-140q0 -10 -11 -10h-82q-10 0 -10 10v680q0 10 10 10h82q11 0 11 -10v-139h126q23 0 43 -8.5t35 -23.5t23.5 -35t8.5 -43v-181z" />
    <glyph glyph-name="ydieresis" unicode="&#xff;" horiz-adv-x="429" 
d="M384 411q0 -23 -8.5 -43t-23.5 -35t-35 -23.5t-43 -8.5h-8v-291q0 -10 -10 -10h-82q-11 0 -11 10v291h-8q-23 0 -43 8.5t-35 23.5t-23.5 35t-8.5 43v279q0 10 10 10h82q11 0 11 -10v-275h133v275q0 10 10 10h83q10 0 10 -10v-279zM190 768q0 -3 -2.5 -6t-7.5 -3h-74
q-4 0 -7 3t-3 6v72q0 9 10 9h74q10 0 10 -9v-72zM332 768q0 -3 -2.5 -6t-7.5 -3h-74q-4 0 -7 3t-3 6v72q0 9 10 9h74q10 0 10 -9v-72z" />
    <glyph glyph-name="dotlessi" unicode="&#x131;" horiz-adv-x="213" 
d="M158 10q0 -10 -10 -10h-83q-10 0 -10 10v680q0 10 10 10h83q10 0 10 -10v-680z" />
    <glyph glyph-name="Lslash" unicode="&#x141;" horiz-adv-x="342" 
d="M228 367q0 -9 -11 -15l-59 -28v-225h153q11 0 11 -10v-79q0 -10 -11 -10h-246q-10 0 -10 10v266l-56 -26q-11 -5 -11 5v80q0 10 11 15l56 26v314q0 10 10 10h82q11 0 11 -10v-266l59 28q11 4 11 -6v-79z" />
    <glyph glyph-name="lslash" unicode="&#x142;" horiz-adv-x="342" 
d="M228 367q0 -9 -11 -15l-59 -28v-225h153q11 0 11 -10v-79q0 -10 -11 -10h-246q-10 0 -10 10v266l-56 -26q-11 -5 -11 5v80q0 10 11 15l56 26v314q0 10 10 10h82q11 0 11 -10v-266l59 28q11 4 11 -6v-79z" />
    <glyph glyph-name="OE" unicode="&#x152;" horiz-adv-x="592" 
d="M282 600h-134v-501h134v501zM547 10q0 -10 -10 -10h-146q-32 0 -58 17q-26 -17 -59 -17h-119q-23 0 -43 8.5t-35 23.5t-23.5 35t-8.5 43v480q0 23 8.5 43t23.5 35t35 23.5t43 8.5h119q17 0 31.5 -4.5t27.5 -12.5q13 8 27 12.5t31 4.5h146q10 0 10 -10v-79q0 -11 -10 -11
h-153v-200h153q10 0 10 -10v-79q0 -10 -10 -10h-153v-202h153q10 0 10 -10v-79z" />
    <glyph glyph-name="oe" unicode="&#x153;" horiz-adv-x="592" 
d="M282 600h-134v-501h134v501zM547 10q0 -10 -10 -10h-146q-32 0 -58 17q-26 -17 -59 -17h-119q-23 0 -43 8.5t-35 23.5t-23.5 35t-8.5 43v480q0 23 8.5 43t23.5 35t35 23.5t43 8.5h119q17 0 31.5 -4.5t27.5 -12.5q13 8 27 12.5t31 4.5h146q10 0 10 -10v-79q0 -11 -10 -11
h-153v-200h153q10 0 10 -10v-79q0 -10 -10 -10h-153v-202h153q10 0 10 -10v-79z" />
    <glyph glyph-name="Scaron" unicode="&#x160;" 
d="M383 110q0 -23 -8.5 -43t-23 -35t-34.5 -23.5t-43 -8.5h-120q-23 0 -43 8.5t-34.5 23.5t-23 35t-8.5 43v66q0 10 10 10h82q11 0 11 -10v-76h133v139l-229 169q-2 3 -4.5 7.5t-2.5 9.5v165q0 23 8.5 43t23 35t34.5 23.5t43 8.5h120q23 0 43 -8.5t34.5 -23.5t23 -35
t8.5 -43v-66q0 -10 -10 -10h-82q-10 0 -10 10v76h-133v-138l227 -169q8 -6 8 -17v-166zM266 754q-1 -1 -5 -3t-6 -2h-82q-2 0 -6 2t-5 3l-95 142q-2 4 8 4h71q7 0 11 -4l57 -76l57 76q4 4 11 4h71q10 0 8 -4z" />
    <glyph glyph-name="scaron" unicode="&#x161;" 
d="M266 754q-1 -1 -5 -3t-6 -2h-82q-2 0 -6 2t-5 3l-95 142q-2 4 8 4h71q7 0 11 -4l57 -76l57 76q4 4 11 4h71q10 0 8 -4zM383 110q0 -23 -8.5 -43t-23 -35t-34.5 -23.5t-43 -8.5h-120q-23 0 -43 8.5t-34.5 23.5t-23 35t-8.5 43v66q0 10 10 10h82q11 0 11 -10v-76h133v139
l-229 169q-2 3 -4.5 7.5t-2.5 9.5v165q0 23 8.5 43t23 35t34.5 23.5t43 8.5h120q23 0 43 -8.5t34.5 -23.5t23 -35t8.5 -43v-66q0 -10 -10 -10h-82q-10 0 -10 10v76h-133v-138l227 -169q8 -6 8 -17v-166z" />
    <glyph glyph-name="Ydieresis" unicode="&#x178;" horiz-adv-x="429" 
d="M190 768q0 -3 -2.5 -6t-7.5 -3h-74q-4 0 -7 3t-3 6v72q0 9 10 9h74q10 0 10 -9v-72zM332 768q0 -3 -2.5 -6t-7.5 -3h-74q-4 0 -7 3t-3 6v72q0 9 10 9h74q10 0 10 -9v-72zM384 411q0 -23 -8.5 -43t-23.5 -35t-35 -23.5t-43 -8.5h-8v-291q0 -10 -10 -10h-82q-11 0 -11 10
v291h-8q-23 0 -43 8.5t-35 23.5t-23.5 35t-8.5 43v279q0 10 10 10h82q11 0 11 -10v-275h133v275q0 10 10 10h83q10 0 10 -10v-279z" />
    <glyph glyph-name="Zcaron" unicode="&#x17d;" horiz-adv-x="412" 
d="M382 10q0 -10 -10 -10h-321q-12 0 -15 7t1 15l206 578h-203q-10 0 -10 11v79q0 10 10 10h324q12 0 15 -7t0 -15l-206 -578h199q10 0 10 -11v-79zM266 754q-1 -1 -5 -3t-6 -2h-82q-2 0 -6 2t-5 3l-95 142q-2 4 8 4h71q7 0 11 -4l57 -76l57 76q4 4 11 4h71q10 0 8 -4z" />
    <glyph glyph-name="zcaron" unicode="&#x17e;" horiz-adv-x="412" 
d="M266 754q-1 -1 -5 -3t-6 -2h-82q-2 0 -6 2t-5 3l-95 142q-2 4 8 4h71q7 0 11 -4l57 -76l57 76q4 4 11 4h71q10 0 8 -4zM382 10q0 -10 -10 -10h-321q-12 0 -15 7t1 15l206 578h-203q-10 0 -10 11v79q0 10 10 10h324q12 0 15 -7t0 -15l-206 -578h199q10 0 10 -11v-79z" />
    <glyph glyph-name="florin" unicode="&#x192;" horiz-adv-x="336" 
d="M311 592q-2 -8 -8 -8h-72l-17 -181h74q2 0 3.5 -3t1.5 -5l-5 -65q-2 -7 -8 -7h-73l-17 -198q-2 -19 -10.5 -35.5t-22 -29t-30.5 -19.5t-35 -7h-65q-5 0 -6 3t-1 5l7 65q0 8 7 8h73l17 208h-40q-2 0 -4.5 2t-1.5 4l6 66q2 8 8 8h40l16 171q2 18 10 34.5t21.5 29t30.5 20
t36 7.5h65q7 0 5 -8z" />
    <glyph glyph-name="circumflex" unicode="&#x2c6;" 
d="M361 753q2 -4 -8 -4h-71q-7 0 -11 4l-57 76l-57 -76q-4 -4 -11 -4h-71q-10 0 -8 4l95 143q1 1 5 2.5t6 1.5h82q2 0 6 -1.5t5 -2.5z" />
    <glyph glyph-name="caron" unicode="&#x2c7;" 
d="M266 754q-1 -1 -5 -3t-6 -2h-82q-2 0 -6 2t-5 3l-95 142q-2 4 8 4h71q7 0 11 -4l57 -76l57 76q4 4 11 4h71q10 0 8 -4z" />
    <glyph glyph-name="breve" unicode="&#x2d8;" 
d="M291 769q-1 -1 -7 -7.5t-16.5 -13.5t-25 -12.5t-32.5 -5.5q-17 0 -31.5 5.5t-25 12.5t-16.5 13.5t-7 7.5l-46 47q-5 6 0 11l47 48q6 4 11 0l64 -64q4 -5 11 0l66 67q6 6 11 0l48 -47q2 -2 2 -5.5t-2 -5.5z" />
    <glyph glyph-name="dotaccent" unicode="&#x2d9;" 
d="M261 768q0 -3 -2.5 -6t-7.5 -3h-74q-4 0 -7 3t-3 6v72q0 9 10 9h74q10 0 10 -9v-72z" />
    <glyph glyph-name="ring" unicode="&#x2da;" 
d="M242 805q0 11 -8.5 19.5t-19.5 8.5q-12 0 -20 -8.5t-8 -19.5q0 -12 8 -20.5t20 -8.5q11 0 19.5 8.5t8.5 20.5zM308 805q0 -40 -27.5 -67t-66.5 -27t-66.5 27t-27.5 67q0 19 7.5 36t20 29.5t30 20t36.5 7.5q20 0 37 -7.5t29.5 -20t20 -29.5t7.5 -36z" />
    <glyph glyph-name="ogonek" unicode="&#x2db;" 
d="M302 -210q0 -8 -7 -15q-11 -9 -26 -15q-13 -5 -31.5 -9.5t-41.5 -4.5q-45 0 -67.5 23.5t-22.5 58.5q0 32 12 63t27 56q18 29 39 56q7 7 15 7h46q3 0 4 -2.5t-1 -4.5q-17 -30 -30 -57q-11 -23 -21 -48.5t-10 -41.5q0 -18 10.5 -27.5t22.5 -9.5q15 0 28 2.5t24 6.5
q12 4 22 10q4 2 6 0.5t2 -4.5v-44z" />
    <glyph glyph-name="tilde" unicode="&#x2dc;" 
d="M328 776q-5 -7 -11 0l-48 48l-51 -51q-26 -25 -60.5 -25t-60.5 25l-43 42q-5 7 0 12l45 46q6 6 12 0l48 -48l51 50q26 25 61 25.5t61 -25.5l42 -42q5 -6 0 -11z" />
    <glyph glyph-name="hungarumlaut" unicode="&#x2dd;" 
d="M151 753q-4 -4 -12 -4h-70q-10 0 -8 4l77 143q2 4 10 4h101q4 0 7 -1t1 -3zM301 753q-4 -4 -12 -4h-70q-10 0 -8 4l77 143q2 4 10 4h101q4 0 7 -1t1 -3z" />
    <glyph glyph-name="endash" unicode="&#x2013;" horiz-adv-x="730" 
d="M676 310q0 -10 -11 -10h-600q-10 0 -10 10v72q0 10 10 10h600q11 0 11 -10v-72z" />
    <glyph glyph-name="emdash" unicode="&#x2014;" horiz-adv-x="1130" 
d="M1076 310q0 -10 -11 -10h-1000q-10 0 -10 10v72q0 10 10 10h1000q11 0 11 -10v-72z" />
    <glyph glyph-name="quoteleft" unicode="&#x2018;" horiz-adv-x="212" 
d="M158 543q0 -10 -11 -10h-61q-10 0 -10 10l-21 147q0 10 10 10h82q11 0 11 -10v-147z" />
    <glyph glyph-name="quoteright" unicode="&#x2019;" horiz-adv-x="212" 
d="M137 543q0 -10 -10 -10h-62q-10 0 -10 10v147q0 10 10 10h82q11 0 11 -10z" />
    <glyph glyph-name="quotesinglbase" unicode="&#x201a;" horiz-adv-x="212" 
d="M137 -58q0 -10 -10 -10h-62q-10 0 -10 10v147q0 10 10 10h82q11 0 11 -10z" />
    <glyph glyph-name="quotedblleft" unicode="&#x201c;" horiz-adv-x="362" 
d="M158 543q0 -10 -11 -10h-61q-10 0 -10 10l-21 147q0 10 10 10h82q11 0 11 -10v-147zM308 543q0 -10 -11 -10h-61q-10 0 -10 10l-21 147q0 10 10 10h82q11 0 11 -10v-147z" />
    <glyph glyph-name="quotedblright" unicode="&#x201d;" horiz-adv-x="362" 
d="M137 543q0 -10 -10 -10h-62q-10 0 -10 10v147q0 10 10 10h82q11 0 11 -10zM287 543q0 -10 -10 -10h-62q-10 0 -10 10v147q0 10 10 10h82q11 0 11 -10z" />
    <glyph glyph-name="quotedblbase" unicode="&#x201e;" horiz-adv-x="362" 
d="M137 -58q0 -10 -10 -10h-62q-10 0 -10 10v147q0 10 10 10h82q11 0 11 -10zM287 -58q0 -10 -10 -10h-62q-10 0 -10 10v147q0 10 10 10h82q11 0 11 -10z" />
    <glyph glyph-name="dagger" unicode="&#x2020;" horiz-adv-x="418" 
d="M373 453q0 -10 -10 -10h-103v-570q0 -10 -10 -10h-83q-10 0 -10 10v570h-102q-10 0 -10 10v79q0 10 10 10h102v148q0 10 10 10h83q10 0 10 -10v-148h103q10 0 10 -10v-79z" />
    <glyph glyph-name="daggerdbl" unicode="&#x2021;" horiz-adv-x="418" 
d="M373 30q0 -10 -10 -10h-103v-147q0 -10 -10 -10h-82q-10 0 -10 10v147h-103q-10 0 -10 10v79q0 10 10 10h103v324h-103q-10 0 -10 10v79q0 10 10 10h103v148q0 10 10 10h82q10 0 10 -10v-148h103q10 0 10 -10v-79q0 -10 -10 -10h-103v-324h103q10 0 10 -10v-79z" />
    <glyph glyph-name="bullet" unicode="&#x2022;" horiz-adv-x="297" 
d="M242 301q0 -19 -7.5 -36.5t-20 -30t-29.5 -20t-36 -7.5t-36.5 7.5t-30 20t-20 30t-7.5 36.5t7.5 36t20 29.5t30 20t36.5 7.5t36 -7.5t29.5 -20t20 -29.5t7.5 -36z" />
    <glyph glyph-name="ellipsis" unicode="&#x2026;" horiz-adv-x="573" 
d="M158 10q0 -10 -10 -10h-83q-10 0 -10 10v79q0 10 10 10h83q10 0 10 -10v-79zM338 10q0 -10 -10 -10h-83q-10 0 -10 10v79q0 10 10 10h83q10 0 10 -10v-79zM518 10q0 -10 -10 -10h-83q-10 0 -10 10v79q0 10 10 10h83q10 0 10 -10v-79z" />
    <glyph glyph-name="perthousand" unicode="&#x2030;" horiz-adv-x="788" 
d="M473 295h-47v-228h47v228zM150 633h-47v-226h47v226zM685 295h-47v-228h47v228zM541 63q0 -26 -18 -44.5t-44 -18.5h-59q-26 0 -44 18.5t-18 44.5v235q0 26 18 44.5t44 18.5h59q26 0 44 -18.5t18 -44.5v-235zM208 10q-4 -10 -13 -10h-43q-13 0 -15.5 7t0.5 15l231 668
q4 10 13 10h44q12 0 14.5 -7t0.5 -15zM219 403q0 -26 -18.5 -44.5t-44.5 -18.5h-59q-26 0 -44 18.5t-18 44.5v234q0 26 18 44.5t44 18.5h59q26 0 44.5 -18.5t18.5 -44.5v-234zM753 63q0 -26 -18 -44.5t-44 -18.5h-59q-26 0 -44 18.5t-18 44.5v235q0 26 18 44.5t44 18.5h59
q26 0 44 -18.5t18 -44.5v-235z" />
    <glyph glyph-name="guilsinglleft" unicode="&#x2039;" horiz-adv-x="189" 
d="M159 197q0 -11 -4 -9l-127 105q-3 2 -3 12v92q0 10 3 11l127 105q4 2 4 -9v-78q0 -10 -4 -12l-68 -64l68 -63q4 -2 4 -11v-79z" />
    <glyph glyph-name="guilsinglright" unicode="&#x203a;" horiz-adv-x="189" 
d="M164 305q0 -10 -3 -12l-127 -105q-4 -2 -4 9v79q0 9 4 11l69 63l-69 64q-4 2 -4 12v78q0 11 4 9l127 -105q3 -1 3 -11v-92z" />
    <glyph glyph-name="fraction" unicode="&#x2044;" horiz-adv-x="102" 
d="M-28 10q-2 -4 -6 -7t-7 -3h-44q-13 0 -15.5 7t0.5 15l231 668q4 10 12 10h45q12 0 14.5 -7t-0.5 -15z" />
    <glyph glyph-name="Euro" unicode="&#x20ac;" horiz-adv-x="316" 
d="M291 158q0 -6 -7 -6h-122q-37 0 -63.5 26t-26.5 64v69h-40q-7 0 -7 7v66q0 7 7 7h40v34h-40q-7 0 -7 7v66q0 7 7 7h40v69q0 38 26.5 64.5t63.5 26.5h122q7 0 7 -8v-66q0 -7 -7 -7h-129v-79h89q6 0 6 -6l-12 -67q0 -7 -8 -7h-75v-34h69q8 0 6 -7l-12 -65q-2 -8 -8 -8h-55
v-79h129q7 0 7 -7v-67z" />
    <glyph glyph-name="trademark" unicode="&#x2122;" horiz-adv-x="618" 
d="M208 645q0 -10 -11 -10h-52v-324q0 -10 -11 -10h-45q-5 0 -8.5 3t-3.5 7v324h-51q-11 0 -11 10v44q0 11 11 11h171q11 0 11 -11v-44zM584 311q0 -10 -12 -10h-45q-11 0 -11 10v324h-71v-1v-323q0 -10 -11 -10h-46q-10 0 -10 10v324h-72v-324q0 -4 -3.5 -7t-7.5 -3h-46
q-11 0 -11 10v378q0 11 11 11h46q4 0 7.5 -3t3.5 -8v-2q18 13 39 13h34q15 0 29 -7.5t23 -19.5q10 12 23 19.5t30 7.5h33q28 0 47.5 -19.5t19.5 -46.5v-323z" />
    <glyph glyph-name="minus" unicode="&#x2212;" horiz-adv-x="419" 
d="M364 314q0 -10 -10 -10h-289q-10 0 -10 10v72q0 10 10 10h289q10 0 10 -10v-72z" />
    </font>
</defs>
</svg>
