<?xml version="1.0" standalone="no"?>
<!DOCTYPE svg PUBLIC "-//W3C//DTD SVG 1.1//EN" "http://www.w3.org/Graphics/SVG/1.1/DTD/svg11.dtd" >
<svg xmlns="http://www.w3.org/2000/svg" xmlns:xlink="http://www.w3.org/1999/xlink" version="1.1">
<metadata>
Created by FontForge 20170731 at Wed Mar 18 14:26:17 2015
 By Aleksey,,,
2015 Iconian Fonts - www.iconian.com
</metadata>
<defs>
<font id="FutureForcesSuper-Italic" horiz-adv-x="634" >
  <font-face 
    font-family="Future Forces Super-Italic"
    font-weight="400"
    font-style="italic"
    font-stretch="normal"
    units-per-em="1000"
    panose-1="0 0 0 0 0 0 0 0 0 0"
    ascent="800"
    descent="-200"
    x-height="407"
    cap-height="407"
    bbox="-105 -147 1222 547"
    underline-thickness="50"
    underline-position="-175"
    unicode-range="U+0020-2122"
  />
<missing-glyph horiz-adv-x="500" 
 />
    <glyph glyph-name=".notdef" horiz-adv-x="500" 
 />
    <glyph glyph-name=".null" horiz-adv-x="0" 
 />
    <glyph glyph-name="nonmarkingreturn" horiz-adv-x="500" 
 />
    <glyph glyph-name="FL0020h" unicode=" " horiz-adv-x="384" 
 />
    <glyph glyph-name="FL0021h" unicode="!" horiz-adv-x="205" 
d="M241 407h121l-127 -259h-121zM163 0h-121l54 111h121z" />
    <glyph glyph-name="FL0022h" unicode="&#x22;" horiz-adv-x="351" 
d="M453 296l-67 -50h-70l79 161h113zM299 296l-67 -50h-70l79 161h113z" />
    <glyph glyph-name="FL0023h" unicode="#" horiz-adv-x="685" 
d="M808 338h-112l34 69h-121l-34 -69h-135l34 69h-121l-34 -69h-112l-54 -110h112l-24 -50h-112l-54 -110h112l-33 -68h121l33 68h135l-33 -68h121l33 68h112l54 110h-112l24 50h112zM521 228l-24 -50h-135l24 50h135z" />
    <glyph glyph-name="FL0024h" unicode="$" 
d="M230 -58h119l28 58h182q6 0 13.5 3.5t14.5 8.5t13 11t9 12l90 185q2 4 2 10q0 7 -2 13t-6 10.5t-8 4.5h-182l18 38h215l55 111h-215l26 55h-119l-26 -55h-176q-17 -3 -33 -13t-27 -26l-88 -181q-5 -10 1.5 -24.5t26.5 -14.5h169l-18 -37h-216l-54 -111h216zM402 296
l-18 -38h-95l18 38h95zM525 111h-94l18 37h94z" />
    <glyph glyph-name="FL0025h" unicode="%" horiz-adv-x="697" 
d="M651 -9l84 174q3 6 0 11t-8 5h-237l229 226h-130l-142 -140l72 148q3 6 0 11t-8 5h-244q-4 0 -12 -5t-11 -11l-84 -174q-3 -5 -0.5 -10.5t7.5 -5.5h238l-227 -225h130l139 138l-71 -147q-3 -5 -0.5 -10.5t7.5 -5.5h244q6 0 13.5 5t10.5 11zM382 300h-114l28 56h114z
M598 50h-114l28 56h114z" />
    <glyph glyph-name="FL0026h" unicode="&#x26;" 
d="M217 111l18 37h402l54 110h-402l18 38h429l55 111h-198l26 55h-119l-26 -55h-199q-11 0 -22 -8.5t-21 -21.5t-18 -27t-13 -25l-16 -31q-10 -20 -15 -33.5t-6.5 -23.5t0.5 -17.5t5 -16.5q-11 -8 -20 -15t-17 -16.5t-16.5 -23.5t-18.5 -36l-15 -30q-5 -11 -11 -25t-8.5 -27
t0 -21.5t13.5 -8.5h199l-28 -58h119l28 58h198l54 111h-429z" />
    <glyph glyph-name="FL0027h" unicode="'" horiz-adv-x="205" 
d="M307 296l-70 -50h-75l79 161h121z" />
    <glyph glyph-name="FL0028h" unicode="(" horiz-adv-x="344" 
d="M281 -43h-229q-11 0 -15 11.5t0 20.5l208 428q3 6 9.5 11.5t13.5 10t13.5 7.5t10.5 3h229l-54 -111h-139l-132 -270h139z" />
    <glyph glyph-name="FL0029h" unicode=")" horiz-adv-x="344" 
d="M21 -43h229q11 0 26.5 11.5t20.5 20.5l208 428q5 11 -1 21.5t-14 10.5h-229l-54 -111h139l-132 -270h-139z" />
    <glyph glyph-name="asterisk" unicode="*" horiz-adv-x="210" 
d="M276 319l74 41l-20 21l37 7l12 57l-41 -15l23 31h-63l-9 -31l-21 14l-47 -56l31 -7l-42 -21l40 -41l25 27z" />
    <glyph glyph-name="FL002Bh" unicode="+" horiz-adv-x="464" 
d="M350 355l-47 -97h-135l-54 -110h135l-47 -97h110l47 97h135l54 110h-135l47 97h-110z" />
    <glyph glyph-name="FL002Ch" unicode="," horiz-adv-x="205" 
d="M163 0l-70 -50h-75l78 161h121z" />
    <glyph glyph-name="FL002Dh" unicode="-" horiz-adv-x="388" 
d="M114 148h304l54 110h-304z" />
    <glyph glyph-name="FL002Eh" unicode="." horiz-adv-x="205" 
d="M163 0h-121l54 111h121z" />
    <glyph glyph-name="FL002Fh" unicode="/" horiz-adv-x="392" 
d="M434 407h132l-409 -407h-132z" />
    <glyph glyph-name="FL0031h" unicode="0" 
d="M608 32l167 343q5 11 -1 21.5t-14 10.5h-488q-4 0 -11 -3t-14 -7.5t-13 -10t-9 -11.5l-167 -343q-4 -9 0 -20.5t15 -11.5h488q11 0 26 10.5t21 21.5zM445 296l-186 -185h-42l90 185h138zM525 111h-137l186 185h41z" />
    <glyph glyph-name="FL0034h" unicode="1" horiz-adv-x="247" 
d="M241 407l-55 -111h42l-144 -296h121l199 407h-163z" />
    <glyph glyph-name="FL0032h" unicode="2" 
d="M646 111l-54 -111h-517q-11 0 -16 12t0 23l90 185q2 4 9 10.5t15 12.5t15.5 10.5t12.5 4.5h396l18 38h-429l55 111h510q14 -3 20 -13t0 -26l-88 -181q-2 -5 -9 -11.5t-16 -12.5t-20 -10.5t-21 -4.5h-382l-18 -37h429z" />
    <glyph glyph-name="FL0033h" unicode="3" 
d="M96 111l-54 -111h516q11 0 22 8.5t21 21.5t18 27t13 25l15 30q10 22 15 36t6.5 23.5t-0.5 16.5t-5 15q12 9 21 17t17 17.5t16 22.5t18 34l16 31q5 11 11 25t8.5 27t0 21.5t-13.5 8.5h-516l-55 -111h429l-18 -38h-402l-54 -110h402l-18 -37h-429z" />
    <glyph glyph-name="FL0037h" unicode="4" 
d="M241 407h121l-73 -149h308l73 149h121l-199 -407h-121l72 148h-429z" />
    <glyph glyph-name="FL0035h" unicode="5" 
d="M96 111l-54 -111h517q6 0 13.5 3.5t14.5 8.5t13 11t9 12l90 185q2 4 2 10q0 7 -2 13t-6 10.5t-8 4.5h-396l18 38h429l55 111h-550l-127 -259h429l-18 -37h-429z" />
    <glyph glyph-name="FL0036h" unicode="6" 
d="M307 296h429l55 111h-517q-11 0 -27 -10.5t-22 -21.5l-167 -343q-7 -14 1 -23t16 -9h485q5 0 12 3.5t14 8t13 10t9 11.5l91 187q2 4 2 10q0 7 -2 13t-6 10.5t-8 4.5h-396zM216 109l19 39h308l-19 -39h-308z" />
    <glyph glyph-name="FL003Bh" unicode="7" 
d="M241 407l-55 -111h375l-405 -296h160l425 306l50 101h-550z" />
    <glyph glyph-name="FL0038h" unicode="8" horiz-adv-x="646" 
d="M201 325l-16 -31q-10 -21 -14.5 -34t-6 -23t-0.5 -17.5t4 -16.5q-11 -8 -19.5 -15t-16.5 -16.5t-16.5 -23.5t-18.5 -36l-15 -30q-5 -11 -10.5 -25t-7.5 -27t0.5 -21.5t13.5 -8.5h490q11 0 22 8.5t21.5 21.5t19 27t13.5 25l15 30q10 22 15.5 36t7 23.5t-0.5 16.5t-5 15
q12 9 20.5 16.5t16.5 17.5t16 23t18 34l16 31q5 11 10.5 25t7.5 27t-0.5 21.5t-13.5 8.5h-490q-11 0 -22 -8.5t-21.5 -21.5t-19 -27t-13.5 -25zM289 258l18 38h320l-18 -38h-320zM217 111l18 37h320l-18 -37h-320z" />
    <glyph glyph-name="FL0039h" unicode="9" 
d="M148 149h396l-19 -38h-429l-54 -111h519q4 0 11 3t14 8t13 10.5t9 10.5l166 342q6 11 1 22t-16 11h-485q-5 0 -12.5 -3.5t-15 -8t-13.5 -10t-9 -11.5l-91 -187q-2 -4 -1.5 -10.5t2.5 -12.5t5.5 -10.5t8.5 -4.5zM616 297l-19 -38h-308l19 38h308z" />
    <glyph glyph-name="FL003Ah" unicode=":" horiz-adv-x="205" 
d="M163 0h-121l54 111h121zM280 240h-121l54 111h121z" />
    <glyph glyph-name="FL003Ch" unicode=";" horiz-adv-x="205" 
d="M280 240h-121l54 111h121zM163 0l-70 -50h-75l78 161h121z" />
    <glyph glyph-name="FL003Dh" unicode="&#x3c;" horiz-adv-x="411" 
d="M430 407h155l-305 -204l106 -203h-156l-106 203z" />
    <glyph glyph-name="FL003Fh" unicode="=" horiz-adv-x="464" 
d="M207 338l-54 -110h380l54 110h-380zM129 178l-54 -110h380l54 110h-380z" />
    <glyph glyph-name="FL003Eh" unicode="&#x3e;" horiz-adv-x="411" 
d="M379 407h-155l105 -204l-304 -203h156l304 203z" />
    <glyph glyph-name="FL0040h" unicode="?" 
d="M240 220q2 4 9 10.5t15 12.5t15.5 10.5t12.5 4.5h305l18 38h-429l55 111h510q14 -3 20 -13t0 -26l-88 -181q-2 -5 -9 -11.5t-16 -12.5t-20 -10.5t-21 -4.5h-412zM254 0h-121l54 111h121z" />
    <glyph glyph-name="FL004Ah" unicode="@" horiz-adv-x="731" 
d="M662 290q3 6 0 11t-8 5h-280q-4 0 -12 -5t-11 -11l-84 -173q-2 -5 0 -10.5t7 -5.5h433q11 0 26.5 11.5t20.5 20.5l138 284q5 11 -1 21.5t-14 10.5h-585q-4 0 -10.5 -3t-13.5 -7.5t-13.5 -10t-9.5 -11.5l-208 -428q-4 -9 0 -20.5t15 -11.5h616l53 108h-529l134 276h411
l-79 -163h-50zM379 178l25 51h146l-25 -51h-146z" />
    <glyph glyph-name="FL0060h" unicode="A" horiz-adv-x="614" 
d="M457 0l-4 72h-223l-73 -72h-132l417 407h128l19 -407h-132zM444 281l-101 -99h106z" />
    <glyph glyph-name="FL0042h" unicode="B" horiz-adv-x="646" 
d="M42 0l199 407h526q11 0 13.5 -8.5t0.5 -21.5t-7.5 -27t-10.5 -25l-16 -32q-10 -21 -18 -34t-16 -22.5t-16.5 -17t-20.5 -16.5q3 -8 5 -14.5t0.5 -16t-6.5 -23.5t-16 -36l-15 -31q-5 -11 -13.5 -25t-19 -27t-21.5 -21.5t-22 -8.5h-526zM217 111h320l18 37h-320zM307 296
l-18 -38h320l18 38h-320z" />
    <glyph glyph-name="FL0043h" unicode="C" 
d="M608 32q-6 -11 -21 -21.5t-26 -10.5h-488q-11 0 -15 11.5t0 20.5l167 343q3 6 9 11.5t13 10t14 7.5t11 3h488q8 0 14 -10.5t1 -21.5l-57 -117h-121l18 38h-308l-90 -185h308l19 39h121z" />
    <glyph glyph-name="FL0044h" unicode="D" 
d="M613 43q-3 -6 -11 -13t-18 -14t-19.5 -11.5t-15.5 -4.5h-507l199 407h507q4 0 9 -4.5t9 -11.5t5.5 -14t-1.5 -13zM525 111l90 185h-308l-90 -185h308z" />
    <glyph glyph-name="FL0045h" unicode="E" 
d="M632 149h-396l-19 -38h429l-54 -111h-519q-8 0 -14 11t-1 21l166 342q6 11 22 22t27 11h485q9 -1 15.5 -11.5t0.5 -21.5l-91 -187q-2 -4 -8.5 -10.5t-14.5 -12.5t-16 -10.5t-12 -4.5zM308 297l-19 -38h308l19 38h-308z" />
    <glyph glyph-name="FL0046h" unicode="F" 
d="M241 407l-199 -407h121l54 111h402l54 110h-402l36 75h429l55 111h-550z" />
    <glyph glyph-name="FL0047h" unicode="G" 
d="M216 109h308l19 39h-172l54 110h260q4 0 8 -4.5t6 -10.5t2 -13q0 -6 -2 -10l-91 -187q-3 -6 -9 -11.5t-13 -10t-14 -8t-12 -3.5h-485q-8 0 -16 9t-1 23l167 343q6 11 22 21.5t27 10.5h517l-55 -111h-429z" />
    <glyph glyph-name="FL0048h" unicode="H" 
d="M241 407h121l-73 -149h308l73 149h121l-199 -407h-121l72 148h-308l-72 -148h-121z" />
    <glyph glyph-name="FL0049h" unicode="I" 
d="M646 111h-215l90 185h215l55 111h-550l-55 -111h214l-90 -185h-214l-54 -111h550z" />
    <glyph glyph-name="FL0051h" unicode="J" 
d="M58 32q-6 -11 -1 -21.5t16 -10.5h488q11 0 26.5 11.5t20.5 20.5l183 375h-429l-55 -111h308l-90 -185h-308l19 39h-121z" />
    <glyph glyph-name="FL007Ch" unicode="K" horiz-adv-x="646" 
d="M241 407l-199 -407h121l72 148h320l-72 -148h121l57 116q19 39 26.5 65t6 42.5t-10.5 24.5t-23 10l144 149h-131l-151 -149h-233l73 149h-121z" />
    <glyph glyph-name="FL004Ch" unicode="L" 
d="M646 111l-54 -111h-516q-13 0 -18 11t0 22l183 374h121l-145 -296h429z" />
    <glyph glyph-name="FL004Dh" unicode="M" horiz-adv-x="751" 
d="M722 277l-280 -277h-134l-10 277l-135 -277h-121l199 407h186l5 -290l290 290h186l-199 -407h-122z" />
    <glyph glyph-name="FL004Eh" unicode="N" horiz-adv-x="649" 
d="M241 407h116l203 -253l124 253h122l-199 -407h-114l-207 253l-123 -253h-121z" />
    <glyph glyph-name="FL004Fh" unicode="O" 
d="M608 32q-6 -11 -21 -21.5t-26 -10.5h-488q-11 0 -15 11.5t0 20.5l167 343q3 6 9 11.5t13 10t14 7.5t11 3h488q8 0 14 -10.5t1 -21.5zM525 111l90 185h-308l-90 -185h308z" />
    <glyph glyph-name="FL0050h" unicode="P" horiz-adv-x="646" 
d="M42 0l199 407h526q11 0 13.5 -8.5t0.5 -21.5t-7.5 -27t-10.5 -25l-17 -33q-43 -88 -86.5 -134.5t-74.5 -46.5h-368l-54 -111h-121zM307 296l-36 -75h320l36 75h-320z" />
    <glyph glyph-name="FL0071h" unicode="Q" 
d="M480 -59h148l-20 92l167 342q5 11 -1 21.5t-14 10.5h-488q-4 0 -11 -3t-14 -7.5t-13 -10t-9 -11.5l-167 -343q-4 -9 0 -20.5t15 -11.5h386zM412 165l14 -54h-209l90 185h308l-64 -131h-139z" />
    <glyph glyph-name="FL0053h" unicode="R" horiz-adv-x="646" 
d="M538 111h-321l-54 -111h-121l199 407h526q11 0 13.5 -8.5t0.5 -21.5t-7.5 -27t-10.5 -25l-16 -31q-18 -38 -42 -67.5t-42 -45.5q2 -4 2.5 -14t-1 -21.5t-3.5 -22t-4 -15.5l-53 -108h-120zM307 296l-36 -75h320l36 75h-320z" />
    <glyph glyph-name="FL0056h" unicode="S" 
d="M96 111l-54 -111h517q6 0 13.5 3.5t14.5 8.5t13 11t9 12l90 185q2 4 2 10q0 7 -2 13t-6 10.5t-8 4.5h-396l18 38h429l55 111h-510q-17 -3 -33 -13t-27 -26l-88 -181q-5 -10 1.5 -24.5t26.5 -14.5h382l-18 -37h-429z" />
    <glyph glyph-name="FL0055h" unicode="T" 
d="M400 296l-144 -296h121l144 296h215l55 111h-550l-55 -111h214z" />
    <glyph glyph-name="FL0057h" unicode="U" 
d="M608 32q-6 -11 -21 -21.5t-26 -10.5h-488q-11 0 -15 11.5t0 20.5l183 375h121l-145 -296h308l145 296h121z" />
    <glyph glyph-name="FL0059h" unicode="V" horiz-adv-x="614" 
d="M368 126l288 281h132l-417 -407h-128l-19 407h132z" />
    <glyph glyph-name="FL0B39h" unicode="W" horiz-adv-x="884" 
d="M640 126l285 281h133l-417 -407h-125l-8 135l-137 -135h-126l-21 407h131l11 -281l135 133l-5 148h131z" />
    <glyph glyph-name="FL0058h" unicode="X" horiz-adv-x="614" 
d="M355 407h-131l-3 -204l-196 -203h131l150 148h146l6 -148h131l2 203l197 204h-131l-151 -149h-146z" />
    <glyph glyph-name="FL0079h" unicode="Y" 
d="M42 0l54 111h429l18 37h-394q-8 3 -15.5 12t-2.5 23l110 224h121l-73 -149h308l73 149h121l-182 -372q-3 -6 -9 -12t-13 -11t-14.5 -8.5t-13.5 -3.5h-517z" />
    <glyph glyph-name="FL005Ah" unicode="Z" 
d="M647 112l-55 -112h-550l47 97l416 199h-319l55 111h550l-48 -98l-415 -197h319z" />
    <glyph glyph-name="FL005Ch" unicode="[" horiz-adv-x="344" 
d="M281 -43h-260l240 492h260l-54 -111h-139l-132 -270h139z" />
    <glyph glyph-name="FL005Eh" unicode="\" horiz-adv-x="392" 
d="M356 407h-132l11 -407h132z" />
    <glyph glyph-name="FL005Dh" unicode="]" horiz-adv-x="344" 
d="M21 -43h260l240 492h-260l-54 -111h139l-132 -270h-139z" />
    <glyph glyph-name="FL0041h" unicode="^" 
d="M615 296h-429l55 111h517q11 0 16.5 -10.5t0.5 -21.5l-167 -343q-8 -14 -24.5 -23t-24.5 -9h-485q-10 1 -15.5 11.5t-0.5 21.5l91 187q2 4 9 10.5t15 12.5t15.5 10.5t12.5 4.5h396zM524 109l19 39h-308l-19 -39h308z" />
    <glyph glyph-name="FL005Fh" unicode="_" horiz-adv-x="580" 
d="M592 111l-54 -111h-496l54 111h496z" />
    <glyph glyph-name="FL0061h" unicode="`" horiz-adv-x="221" 
d="M370 358h-106l-13 103h114z" />
    <glyph glyph-name="FL0065h" unicode="a" 
d="M775 375l-183 -375h-121l54 111h-308l-54 -111h-121l183 375q5 9 20.5 20.5t26.5 11.5h488q11 0 15.5 -10.5t-0.5 -21.5zM271 221h308l36 75h-308z" />
    <glyph glyph-name="FL0062h" unicode="b" horiz-adv-x="646" 
d="M42 0l199 407h526q11 0 13.5 -8.5t0.5 -21.5t-7.5 -27t-10.5 -25l-16 -32q-10 -21 -18 -34t-16 -22.5t-16.5 -17t-20.5 -16.5q3 -8 5 -14.5t0.5 -16t-6.5 -23.5t-16 -36l-15 -31q-5 -11 -13.5 -25t-19 -27t-21.5 -21.5t-22 -8.5h-526zM217 111h320l18 37h-320zM307 296
l-18 -38h320l18 38h-320z" />
    <glyph glyph-name="FL0063h" unicode="c" 
d="M608 32q-6 -11 -21 -21.5t-26 -10.5h-488q-11 0 -15 11.5t0 20.5l167 343q3 6 9 11.5t13 10t14 7.5t11 3h488q8 0 14 -10.5t1 -21.5l-57 -117h-121l18 38h-308l-90 -185h308l19 39h121z" />
    <glyph glyph-name="FL0064h" unicode="d" 
d="M613 43q-3 -6 -11 -13t-18 -14t-19.5 -11.5t-15.5 -4.5h-507l199 407h507q4 0 9 -4.5t9 -11.5t5.5 -14t-1.5 -13zM525 111l90 185h-308l-90 -185h308z" />
    <glyph glyph-name="e" unicode="e" 
d="M241 407l-199 -407h550l54 111h-429l18 37h402l54 110h-402l18 38h429l55 111h-550z" />
    <glyph glyph-name="FL0066h" unicode="f" 
d="M241 407l-199 -407h121l72 148h402l54 110h-402l18 38h429l55 111h-550z" />
    <glyph glyph-name="FL0067h" unicode="g" 
d="M216 109h308l19 39h-172l54 110h260q4 0 8 -4.5t6 -10.5t2 -13q0 -6 -2 -10l-91 -187q-3 -6 -9 -11.5t-13 -10t-14 -8t-12 -3.5h-485q-8 0 -16 9t-1 23l167 343q6 11 22 21.5t27 10.5h517l-55 -111h-429z" />
    <glyph glyph-name="FL0068h" unicode="h" 
d="M241 407h121l-73 -149h308l73 149h121l-199 -407h-121l72 148h-308l-72 -148h-121z" />
    <glyph glyph-name="FL0069h" unicode="i" horiz-adv-x="206" 
d="M241 407h122l-199 -407h-122z" />
    <glyph glyph-name="FL006Ah" unicode="j" 
d="M58 32q-6 -11 -1 -21.5t16 -10.5h488q11 0 26.5 11.5t20.5 20.5l183 375h-121l-145 -296h-308l19 39h-121z" />
    <glyph glyph-name="FL004Bh" unicode="k" horiz-adv-x="630" 
d="M362 407h-121l-199 -407h121l72 148h233l6 -148h131l2 203l197 204h-131l-151 -149h-233z" />
    <glyph glyph-name="FL006Ch" unicode="l" 
d="M646 111l-54 -111h-550l199 407h121l-145 -296h429z" />
    <glyph glyph-name="FL006Eh" unicode="m" horiz-adv-x="750" 
d="M722 277l-280 -277h-134l-10 277l-135 -277h-121l199 407h186l6 -289l289 289h185l-199 -407h-121z" />
    <glyph glyph-name="FL00B2h" unicode="n" horiz-adv-x="649" 
d="M241 407h116l203 -253l124 253h122l-199 -407h-114l-207 253l-123 -253h-121z" />
    <glyph glyph-name="FL006Fh" unicode="o" 
d="M608 32q-6 -11 -21 -21.5t-26 -10.5h-488q-11 0 -15 11.5t0 20.5l167 343q3 6 9 11.5t13 10t14 7.5t11 3h488q8 0 14 -10.5t1 -21.5zM525 111l90 185h-308l-90 -185h308z" />
    <glyph glyph-name="FL0073h" unicode="p" horiz-adv-x="646" 
d="M42 0l199 407h526q11 0 13.5 -8.5t0.5 -21.5t-7.5 -27t-10.5 -25l-17 -33q-43 -88 -84.5 -134.5t-76.5 -46.5h-368l-54 -111h-121zM307 296l-36 -75h320l36 75h-320z" />
    <glyph glyph-name="FL0072h" unicode="q" 
d="M480 -59l-21 59h-386q-11 0 -15 11.5t0 20.5l167 343q3 6 9 11.5t13 10t14 7.5t11 3h488q8 0 14 -10.5t1 -21.5l-167 -342l20 -92h-148zM525 111l90 185h-308l-90 -185h308z" />
    <glyph glyph-name="FL007Bh" unicode="r" horiz-adv-x="646" 
d="M42 0l199 407h526q11 0 13.5 -8.5t0.5 -21.5t-7.5 -27t-10.5 -25l-17 -33q-43 -88 -83.5 -130.5t-74.5 -45.5l16 -116h-130l-28 111h-229l-54 -111h-121zM307 296l-36 -75h320l36 75h-320z" />
    <glyph glyph-name="s" unicode="s" 
d="M96 111l-54 -111h517q6 0 13.5 3.5t14.5 8.5t13 11t9 12l90 185q2 4 2 10q0 7 -2 13t-6 10.5t-8 4.5h-396l18 38h429l55 111h-510q-17 -3 -33 -13t-27 -26l-88 -181q-5 -10 1.5 -24.5t26.5 -14.5h382l-18 -37h-429z" />
    <glyph glyph-name="t" unicode="t" 
d="M400 296l-144 -296h121l144 296h215l55 111h-550l-55 -111h214z" />
    <glyph glyph-name="FL0075h" unicode="u" 
d="M608 32q-6 -11 -21 -21.5t-26 -10.5h-488q-11 0 -15 11.5t0 20.5l183 375h121l-145 -296h308l145 296h121z" />
    <glyph glyph-name="FL0076h" unicode="v" horiz-adv-x="614" 
d="M368 126l288 281h132l-417 -407h-128l-19 407h132z" />
    <glyph glyph-name="FL0077h" unicode="w" horiz-adv-x="779" 
d="M73 0h633q11 0 26 10t21 22l183 375h-121l-145 -296h-166l145 296h-121l-145 -296h-166l145 296h-121l-183 -375q-6 -11 0 -21.5t15 -10.5z" />
    <glyph glyph-name="FL0078h" unicode="x" horiz-adv-x="616" 
d="M634 407l-188 -125l-66 125h-156l103 -204l-302 -203h157l186 124l66 -124h157l-105 203l304 204h-156z" />
    <glyph glyph-name="FL022Bh" unicode="y" 
d="M791 407h-121l-91 -185h-308l91 185h-121l-129 -264q-4 -9 0 -20.5t15 -11.5h183l-54 -111h121l54 111h184q11 0 26 10.5t21 21.5z" />
    <glyph glyph-name="FL007Ah" unicode="z" 
d="M647 112l-55 -112h-550l47 97l416 199h-319l55 111h550l-48 -98l-415 -197h319z" />
    <glyph glyph-name="FL0080h" unicode="{" horiz-adv-x="426" 
d="M114 148h82l-77 -159q-4 -9 0 -20.5t15 -11.5h229l54 111h-139l132 270h139l54 111h-229q-4 0 -10.5 -3t-13.5 -7.5t-13.5 -10t-9.5 -11.5l-77 -159h-82z" />
    <glyph glyph-name="FL007Eh" unicode="|" horiz-adv-x="205" 
d="M15 -55l252 516h121l-252 -516h-121z" />
    <glyph glyph-name="FL0081h" unicode="}" horiz-adv-x="426" 
d="M456 148h-82l-77 -159q-5 -9 -20.5 -20.5t-26.5 -11.5h-229l54 111h139l132 270h-139l54 111h229q8 0 14 -10.5t1 -21.5l-77 -159h82z" />
    <glyph glyph-name="FL0082h" unicode="~" horiz-adv-x="449" 
d="M430 147h-149l-6 59l-60 -59h-117l119 112h149l6 -59l61 59h116z" />
    <glyph glyph-name="FL007Fh" horiz-adv-x="252" 
 />
    <glyph glyph-name="space" unicode="&#xa0;" horiz-adv-x="378" 
 />
    <glyph glyph-name="FL00A1h" unicode="&#xa1;" horiz-adv-x="205" 
d="M162 0h-121l126 259h121zM240 407h121l-55 -111h-121z" />
    <glyph glyph-name="FL00A2h" unicode="&#xa2;" 
d="M230 -58h119l28 58h184q11 0 26 10.5t21 21.5l57 118h-121l-19 -39h-94l90 185h94l-18 -38h121l57 117q5 11 -1 21.5t-14 10.5h-184l26 55h-119l-26 -55h-185q-4 0 -11 -3t-14 -7.5t-13 -10t-9 -11.5l-167 -343q-4 -9 0 -20.5t15 -11.5h185zM307 296h95l-90 -185h-95z
" />
    <glyph glyph-name="FL00A3h" unicode="&#xa3;" horiz-adv-x="672" 
d="M168 258l-54 -110h89q-2 -2 -5 -8l-4 -9l-9 -19l-1 -2h-88l-54 -110h588l54 111h-379l18 37h227l54 110h-227l18 38h80l55 111h-167q-11 0 -22 -8.5t-21 -21.5t-18 -27t-13 -25l-16 -31l-9 -20q-3 -5 -4 -8.5t-2 -7.5h-90z" />
    <glyph glyph-name="FL00A4h" unicode="&#xa4;" horiz-adv-x="649" 
d="M650 407l-150 -100h-52l-52 100h-156l74 -146l-56 -116l-217 -145h157l151 101h48l53 -101h157l-75 143l58 119l216 145h-156zM353 176l27 56h114l-27 -56h-114z" />
    <glyph glyph-name="FL00A5h" unicode="&#xa5;" 
d="M140 104l-37 -75h167l-20 -41h-167l-37 -76h167l-29 -59h121l29 59h166l37 76h-166l20 41h166l37 75h-166l21 43h184q11 0 26 10.5t20 21.5l112 228h-121l-73 -149h-308l73 149h-121l-112 -228q-4 -9 0.5 -20.5t15.5 -11.5h183l-21 -43h-167z" />
    <glyph glyph-name="FL00A6h" unicode="&#xa6;" horiz-adv-x="205" 
d="M274 228l114 233h-121l-114 -233h121zM15 -55h121l114 233h-121z" />
    <glyph glyph-name="FL00A7h" unicode="&#xa7;" 
d="M68 54l-54 -111h517q6 0 13.5 3.5t14.5 8.5t13 11t9 12l163 334q2 4 2 10q0 7 -2 13t-6 10.5t-8 4.5h-396l18 38h429l54 111h-510q-37 -6 -59 -39l-161 -330q-5 -10 1.5 -24.5t26.5 -14.5h382l-18 -37h-429zM280 239h308l-18 -36h-308z" />
    <glyph glyph-name="FL00A8h" unicode="&#xa8;" horiz-adv-x="374" 
d="M393 358h114l50 103h-114zM381 461h-114l-50 -103h114z" />
    <glyph glyph-name="FL00A9h" unicode="&#xa9;" horiz-adv-x="267" 
d="M369 482q-18 0 -38.5 -7.5t-39 -20t-34 -29t-24.5 -34.5q-12 -23 -9 -45q3 -12 6 -18t11 -15q8 -5 18.5 -8.5t21.5 -3.5q27 0 55 15.5t44 29.5q12 13 21.5 24t14.5 21q10 21 8 45q-1 10 -4 18t-13 17q-17 8 -26.5 9.5t-11.5 1.5zM362 468h3q13 0 23.5 -6.5t15.5 -16.5
t5 -24q0 -13 -6 -26l-2 -4q-9 -17 -29 -36t-42 -29q-23 -10 -42 -10h-2q-5 0 -15 2t-17 8q-13 12 -13 29q-2 18 8 36q11 24 29 39q41 38 84 38zM347 378q-18 -23 -41 -23q-31 0 -13 36q18 39 51 39q17 0 16 -19l17 4q7 28 -27 28q-48 0 -73 -52t22 -52q35 0 60 34z" />
    <glyph glyph-name="FL00AAh" unicode="&#xaa;" 
d="M615 296h-429l55 111h517q11 0 16.5 -10.5t0.5 -21.5l-183 -375h-518q-10 1 -15.5 11.5t-0.5 21.5l91 187q2 4 9 10.5t15 12.5t15.5 10.5t12.5 4.5h396zM524 109l19 39h-308l-19 -39h308z" />
    <glyph glyph-name="FL00ABh" unicode="&#xab;" horiz-adv-x="506" 
d="M329 407h131l-198 -204l-1 -203h-131l-4 203zM547 407h131l-198 -204l-1 -203h-131l-4 203z" />
    <glyph glyph-name="FL00ACh" unicode="&#xac;" horiz-adv-x="464" 
d="M168 258l-54 -110h270l-47 -97h110l101 207h-380z" />
    <glyph glyph-name="FL00B1h" unicode="&#xad;" horiz-adv-x="319" 
d="M114 148h235l54 110h-235z" />
    <glyph glyph-name="FL00AEh" unicode="&#xae;" horiz-adv-x="267" 
d="M369 482h-2q-17 0 -36.5 -7t-38 -19t-34.5 -29t-25 -36q-13 -24 -11 -46q8 -44 59 -44h2q7 0 19.5 3t26 9t27 14t22.5 18q27 25 38 46q10 21 8 44.5t-18 33.5q-13 13 -37 13zM362 467h3q27 0 38.5 -22.5t-2.5 -50.5v-3l-8 -11.5t-22 -25.5q-18 -17 -41.5 -27.5
t-41.5 -10.5h-3q-8 0 -17 4.5t-16 10.5t-10.5 12.5t-1.5 10.5q0 14 2.5 23.5t4.5 12.5l1 1q9 18 29 38q41 38 85 38zM260 341h15l20 41h10q8 0 9 -4q3 -1 8 -21l-1 -16h20l-2 19q-3 12 -4 16.5t-7 8.5q30 2 42 28q3 4 1 14q-1 2 -3 3.5t-4 3.5q-3 5 -24 5h-32zM301 394
l15 31h33q8 -6 3 -14q-4 -8 -11 -12.5t-21 -4.5h-19z" />
    <glyph glyph-name="FL00AFh" unicode="&#xaf;" horiz-adv-x="580" 
d="M737 407l-55 -111h-496l55 111h496z" />
    <glyph glyph-name="FL00B3h" unicode="&#xb0;" horiz-adv-x="198" 
d="M274 395h36l15 31h-36zM331 359h-114l50 103h114z" />
    <glyph glyph-name="FL00B5h" unicode="&#xb1;" horiz-adv-x="464" 
d="M376 407l-41 -83h-135l-50 -102h135l-40 -83h110l40 83h135l50 102h-135l41 83h-110zM92 102l-50 -102h380l50 102h-380z" />
    <glyph glyph-name="FL00B6h" unicode="&#xb2;" horiz-adv-x="359" 
d="M472 318l-31 -63h-259q-5 0 -7.5 6t0.5 11l47 97q2 4 11 11.5t14 7.5h178l5 10h-194l31 63h255q15 -3 11 -19l-46 -94q-3 -5 -13 -12t-21 -7h-171l-5 -11h195z" />
    <glyph glyph-name="FL00BCh" unicode="&#xb3;" horiz-adv-x="359" 
d="M166 255h259q5 0 13.5 6t11.5 11l83 170q4 16 -11 19h-255l-31 -63h194l-5 -10h-171l-29 -59h171l-5 -11h-194z" />
    <glyph glyph-name="FL00B4h" unicode="&#xb4;" horiz-adv-x="223" 
d="M202 358h106l113 103h-114z" />
    <glyph glyph-name="FL0030h" unicode="&#xb5;" 
d="M592 0h-550l199 407h550zM525 111l90 185h-308l-90 -185h308z" />
    <glyph glyph-name="mu" unicode="&#xb6;" horiz-adv-x="906" 
d="M983 214l-2 -1l-22 -22h-50l13 -40l-1 -8l-2 -4q-8 -15 -28 -22l-50 12l-37 -62q-11 -12 -27 -12q-14 0 -23 4.5t-20 13.5l-6 2l-82 -56l-30 -5l-21 30l-131 -51l-15 6l14 30l-151 -20l-12 10l19 25l-140 12l10 19l25 17l-83 16q-18 0 -7 21l48 26l-49 27l5 25l67 9
l-13 39l18 30l63 -6q36 73 63 73h3l52 -19q35 27 56.5 40.5t41.5 20.5l37 -30l124 47l12 -17l-9 -15l-1 -6l124 21l38 -4l-20 -31h133l6 -12q-13 -28 -35 -28l99 -29l-3 -7q-12 -24 -56 -28q63 -27 55 -41zM961 207l-1 9l-69 43l64 16h7l-2 10l-117 26l60 32h-151l29 36
l-157 -20l11 31l-10 4l-125 -47l-28 32l-89 -60q-7 -4 -17 -4q-22 0 -45 22l-47 -74l-67 7l-9 -23l17 -46l-74 -4l74 -46l-77 -27l123 -29l-59 -28l153 -6l-34 -35l152 23l8 -20l-17 -20l140 52l35 -32l88 63l62 -21l40 73l70 -11q3 5 4 5.5l1 0.5q6 14 -18 62zM870 244
l-44 -68l-16 2l38 70zM814 147l-22 -14l-7 11l17 10zM774 153q-25 0 -37 46l-22 -45l-18 -2l45 92l26 -61l35 65l15 -4zM681 154l-12 2q0 22 -14 22q-12 0 -35 -22h-21q15 23 36.5 45.5t48.5 45.5q4 4 16 4q18 0 14 -30zM634 248l-50 -90l-27 -6l56 92zM537 149
q-23 0 -38 45l-21 -43l-19 -4l45 93l30 -58l34 62l13 -4zM479 214q-39 -65 -68 -65q-6 -1 -9.5 -1.5t-8.5 -0.5q-27 0 -27 15q29 59 76 82h12q34 0 25 -30zM399 247l-12 -23q-2 2 -3 2.5l-1 0.5h-5q-11 0 -34 -13q-21 -17 -32 -38q-9 -18 12 -18q5 0 10 0.5t10 1.5l-6 -15
q-11 -2 -14.5 -3.5t-8.5 -1.5q-29 0 -18 42q-1 0 1 5l4 7q20 42 97 53zM315 244l-49 -89l-25 -8l56 95zM684 199l3 30l-34 -30h31zM453 200l5 11q-3 12 -14 12q-16 0 -42 -29l-4 -7q-10 -22 5 -22q12 0 30 8q10 8 12.5 13t7.5 14z" />
    <glyph glyph-name="FL00B7h" unicode="&#xb7;" horiz-adv-x="205" 
d="M235 147h-121l54 111h121z" />
    <glyph glyph-name="FL00B8h" unicode="&#xb8;" horiz-adv-x="181" 
d="M42 2l-24 -50h-75l-48 -98h173l72 148h-98z" />
    <glyph glyph-name="FL00B9h" unicode="&#xb9;" horiz-adv-x="189" 
d="M372 461h-105l-37 -75h24l-64 -131h81z" />
    <glyph glyph-name="FL00BAh" unicode="&#xba;" horiz-adv-x="359" 
d="M283 330l27 56h114l-27 -56h-114zM534 445q3 6 0 11t-8 5h-244q-4 0 -12 -5t-11 -11l-85 -174q-2 -5 0 -10.5t7 -5.5h244q6 0 13.5 5t10.5 11z" />
    <glyph glyph-name="FL00BBh" unicode="&#xbb;" horiz-adv-x="506" 
d="M575 407h-131l-2 -204l-197 -203h131l202 203zM357 407h-131l-2 -204l-197 -203h131l202 203z" />
    <glyph glyph-name="FL00BEh" unicode="&#xbc;" horiz-adv-x="869" 
d="M943 207l-1 9l-69 43l64 16h7l-2 10l-117 26l60 32h-151l29 36l-157 -20l11 31l-10 4l-125 -47l-28 32l-89 -60q-7 -4 -17 -4q-22 0 -45 22l-47 -74l-67 7l-9 -23l17 -46l-74 -4l74 -46l-77 -27l123 -29l-59 -28l153 -6l-34 -35l152 23l8 -20l-17 -20l140 52l35 -32
l88 63l62 -21l40 73l70 -11q3 5 4 5.5l1 0.5q6 14 -18 62zM852 244l-44 -68l-16 2l38 70zM796 147l-22 -14l-7 11l17 10zM756 153q-25 0 -37 46l-22 -45l-18 -2l45 92l26 -61l35 65l15 -4zM663 154l-12 2q0 22 -14 22q-12 0 -35 -22h-21q15 23 36.5 45.5t48.5 45.5q4 4 16 4
q18 0 14 -30zM616 248l-50 -90l-27 -6l56 92zM519 149q-23 0 -38 45l-21 -43l-19 -4l45 93l30 -58l34 62l13 -4zM461 214q-39 -65 -68 -65q-6 -1 -9.5 -1.5t-8.5 -0.5q-27 0 -27 15q29 59 76 82h12q34 0 25 -30zM381 247l-12 -23q-2 2 -3 2.5l-1 0.5h-5q-11 0 -34 -13
q-21 -17 -32 -38q-9 -18 12 -18q5 0 10 0.5t10 1.5l-6 -15q-11 -2 -14.5 -3.5t-8.5 -1.5q-29 0 -18 42q-1 0 1 5l4 7q20 42 97 53zM297 244l-49 -89l-25 -8l56 95zM666 199l3 30l-34 -30h31zM435 200l5 11q-3 12 -14 12q-16 0 -42 -29l-4 -7q-10 -22 5 -22q12 0 30 8
q10 8 12.5 13t7.5 14z" />
    <glyph glyph-name="FL00BDh" unicode="&#xbd;" horiz-adv-x="562" 
d="M583 407h-130l-159 -157l88 181h-105l-36 -75h24l-64 -131h68l-227 -225h130l141 140l-10 -22h194l-5 -10h-178q-5 0 -14.5 -7.5t-11.5 -11.5l-47 -97q-2 -5 0.5 -11t7.5 -6h259l31 63h-195l5 11h171q11 0 21 7t12 12l46 94q4 16 -11 19h-234z" />
    <glyph glyph-name="FL0FEDh" unicode="&#xbe;" horiz-adv-x="666" 
d="M743 244l-44 -68l-16 2l38 70zM687 147l-22 -14l-7 11l17 10zM647 153q-25 0 -37 46l-22 -45l-18 -2l45 92l26 -61l35 65l15 -4zM554 154l-12 2q0 22 -14 22q-12 0 -35 -22h-21q15 23 36.5 45.5t48.5 45.5q4 4 16 4q18 0 14 -30zM507 248l-50 -90l-27 -6l56 92zM410 149
q-23 0 -38 45l-21 -43l-19 -4l45 93l30 -58l34 62l13 -4zM352 214q-39 -65 -68 -65q-6 -1 -9.5 -1.5t-8.5 -0.5q-27 0 -27 15q29 59 76 82h12q34 0 25 -30zM272 247l-12 -23q-2 2 -3 2.5l-1 0.5h-5q-11 0 -34 -13q-21 -17 -32 -38q-9 -18 12 -18q5 0 10 0.5t10 1.5l-6 -15
q-11 -2 -14.5 -3.5t-8.5 -1.5q-29 0 -18 42q-1 0 1 5l4 7q20 42 97 53zM188 244l-49 -89l-25 -8l56 95zM557 199l3 30l-34 -30h31zM326 200l5 11q-3 12 -14 12q-16 0 -42 -29l-4 -7q-10 -22 5 -22q12 0 30 8q10 8 12.5 13t7.5 14z" />
    <glyph glyph-name="FL00BFh" unicode="&#xbf;" 
d="M592 187q-2 -4 -8.5 -10.5t-14.5 -12.5t-16 -10.5t-12 -4.5h-305l-19 -38h429l-54 -111h-510q-14 3 -20 13t-1 26l88 181q3 5 9.5 11.5t16 12.5t20 10.5t20.5 4.5h412zM579 407h121l-55 -111h-121z" />
    <glyph glyph-name="FL00C0h" unicode="&#xc0;" 
d="M600 444h-106l-13 103h114zM615 296h-429l55 111h517q11 0 16.5 -10.5t0.5 -21.5l-167 -343q-8 -14 -24.5 -23t-24.5 -9h-485q-10 1 -15.5 11.5t-0.5 21.5l91 187q2 4 9 10.5t15 12.5t15.5 10.5t12.5 4.5h396zM524 109l19 39h-308l-19 -39h308z" />
    <glyph glyph-name="FL00C1h" unicode="&#xc1;" 
d="M573 547h114l-113 -103h-106zM615 296h-429l55 111h517q11 0 16.5 -10.5t0.5 -21.5l-167 -343q-8 -14 -24.5 -23t-24.5 -9h-485q-10 1 -15.5 11.5t-0.5 21.5l91 187q2 4 9 10.5t15 12.5t15.5 10.5t12.5 4.5h396zM524 109l19 39h-308l-19 -39h308z" />
    <glyph glyph-name="FL00C2h" unicode="&#xc2;" 
d="M389 444l113 103h164l13 -103h-113l-5 56l-59 -56h-113zM615 296h-429l55 111h517q11 0 16.5 -10.5t0.5 -21.5l-167 -343q-8 -14 -24.5 -23t-24.5 -9h-485q-10 1 -15.5 11.5t-0.5 21.5l91 187q2 4 9 10.5t15 12.5t15.5 10.5t12.5 4.5h396zM524 109l19 39h-308l-19 -39
h308z" />
    <glyph glyph-name="FL00C3h" unicode="&#xc3;" 
d="M665 444h-144l-7 54l-57 -54h-113l113 103h144l6 -54l58 54h113zM615 296h-429l55 111h517q11 0 16.5 -10.5t0.5 -21.5l-167 -343q-8 -14 -24.5 -23t-24.5 -9h-485q-10 1 -15.5 11.5t-0.5 21.5l91 187q2 4 9 10.5t15 12.5t15.5 10.5t12.5 4.5h396zM524 109l19 39h-308
l-19 -39h308z" />
    <glyph glyph-name="FL00C4h" unicode="&#xc4;" 
d="M503 444h-114l50 103h114zM615 547h114l-50 -103h-114zM615 296h-429l55 111h517q11 0 16.5 -10.5t0.5 -21.5l-167 -343q-8 -14 -24.5 -23t-24.5 -9h-485q-10 1 -15.5 11.5t-0.5 21.5l91 187q2 4 9 10.5t15 12.5t15.5 10.5t12.5 4.5h396zM524 109l19 39h-308l-19 -39h308
z" />
    <glyph glyph-name="FL00C5h" unicode="&#xc5;" 
d="M615 296h-429l55 111h517q11 0 16.5 -10.5t0.5 -21.5l-167 -343q-8 -14 -24.5 -23t-24.5 -9h-485q-10 1 -15.5 11.5t-0.5 21.5l91 187q2 4 9 10.5t15 12.5t15.5 10.5t12.5 4.5h396zM524 109l19 39h-308l-19 -39h308zM532 480h36l15 31h-36zM590 444h-114l50 103h114z" />
    <glyph glyph-name="FL00C6h" unicode="&#xc6;" horiz-adv-x="1066" 
d="M615 296l-18 -38h-396q-5 0 -12.5 -4.5t-15.5 -10.5t-15 -12.5t-9 -10.5l-91 -187q-5 -11 0.5 -21.5t15.5 -11.5h950l54 111h-429l19 38h396q4 0 12 4.5t16 10.5t14.5 12.5t8.5 10.5l91 187q6 11 -0.5 21.5t-15.5 11.5h-949l-55 -111h429zM524 109h-308l19 39h308z
M740 297h308l-19 -38h-308z" />
    <glyph glyph-name="FL00C7h" unicode="&#xc7;" 
d="M665 150h-121l-19 -39h-308l90 185h308l-18 -38h121l57 117q5 11 -1 21.5t-14 10.5h-488q-4 0 -11 -3t-14 -7.5t-13 -10t-9 -11.5l-167 -343q-4 -9 0 -20.5t15 -11.5h217l-23 -48h-75l-48 -98h173l71 146h173q11 0 26 10.5t21 21.5z" />
    <glyph glyph-name="FL00C8h" unicode="&#xc8;" 
d="M600 444h-106l-13 103h114zM632 149h-396l-19 -38h429l-54 -111h-519q-8 0 -14 11t-1 21l166 342q6 11 22 22t27 11h485q9 -1 15.5 -11.5t0.5 -21.5l-91 -187q-2 -4 -8.5 -10.5t-14.5 -12.5t-16 -10.5t-12 -4.5zM308 297l-19 -38h308l19 38h-308z" />
    <glyph glyph-name="FL00C9h" unicode="&#xc9;" 
d="M573 547h114l-113 -103h-106zM632 149h-396l-19 -38h429l-54 -111h-519q-8 0 -14 11t-1 21l166 342q6 11 22 22t27 11h485q9 -1 15.5 -11.5t0.5 -21.5l-91 -187q-2 -4 -8.5 -10.5t-14.5 -12.5t-16 -10.5t-12 -4.5zM308 297l-19 -38h308l19 38h-308z" />
    <glyph glyph-name="FL00CAh" unicode="&#xca;" 
d="M389 444l113 103h164l13 -103h-113l-5 56l-59 -56h-113zM632 149h-396l-19 -38h429l-54 -111h-519q-8 0 -14 11t-1 21l166 342q6 11 22 22t27 11h485q9 -1 15.5 -11.5t0.5 -21.5l-91 -187q-2 -4 -8.5 -10.5t-14.5 -12.5t-16 -10.5t-12 -4.5zM308 297l-19 -38h308l19 38
h-308z" />
    <glyph glyph-name="FL00CBh" unicode="&#xcb;" 
d="M503 444h-114l50 103h114zM615 547h114l-50 -103h-114zM632 149h-396l-19 -38h429l-54 -111h-519q-8 0 -14 11t-1 21l166 342q6 11 22 22t27 11h485q9 -1 15.5 -11.5t0.5 -21.5l-91 -187q-2 -4 -8.5 -10.5t-14.5 -12.5t-16 -10.5t-12 -4.5zM308 297l-19 -38h308l19 38
h-308z" />
    <glyph glyph-name="FL00CCh" unicode="&#xcc;" 
d="M595 547h-114l13 -103h106zM646 111h-215l90 185h215l55 111h-550l-55 -111h214l-90 -185h-214l-54 -111h550z" />
    <glyph glyph-name="FL00CDh" unicode="&#xcd;" 
d="M468 444h106l113 103h-114zM646 111h-215l90 185h215l55 111h-550l-55 -111h214l-90 -185h-214l-54 -111h550z" />
    <glyph glyph-name="FL00CEh" unicode="&#xce;" 
d="M502 444l59 56l5 -56h113l-13 103h-164l-113 -103h113zM646 111h-215l90 185h215l55 111h-550l-55 -111h214l-90 -185h-214l-54 -111h550z" />
    <glyph glyph-name="FL00CFh" unicode="&#xcf;" 
d="M565 444h114l50 103h-114zM553 547h-114l-50 -103h114zM646 111h-215l90 185h215l55 111h-550l-55 -111h214l-90 -185h-214l-54 -111h550z" />
    <glyph glyph-name="FL00D0h" unicode="&#xd0;" horiz-adv-x="728" 
d="M114 148h94l-72 -148h508q6 0 15 4.5t19 11t17.5 13.5t10.5 13l158 323q3 6 1.5 13t-5 13.5t-8.5 11t-9 4.5h-508l-73 -149h-94zM311 111l18 37h165l54 110h-165l18 38h308l-90 -185h-308z" />
    <glyph glyph-name="FL00D1h" unicode="&#xd1;" horiz-adv-x="649" 
d="M241 407h119l200 -253l124 253h122l-199 -407h-118l-203 253l-123 -253h-121zM673 444h-144l-7 54l-57 -54h-113l113 103h144l6 -54l58 54h113z" />
    <glyph glyph-name="FL00F3h" unicode="&#xd2;" 
d="M608 32q-6 -11 -21 -21.5t-26 -10.5h-488q-11 0 -15 11.5t0 20.5l167 343q3 6 9 11.5t13 10t14 7.5t11 3h488q8 0 14 -10.5t1 -21.5zM525 111l90 185h-308l-90 -185h308zM600 444h-106l-13 103h114z" />
    <glyph glyph-name="FL00F2h" unicode="&#xd3;" 
d="M608 32q-6 -11 -21 -21.5t-26 -10.5h-488q-11 0 -15 11.5t0 20.5l167 343q3 6 9 11.5t13 10t14 7.5t11 3h488q8 0 14 -10.5t1 -21.5zM525 111l90 185h-308l-90 -185h308zM573 547h114l-113 -103h-106z" />
    <glyph glyph-name="FL00D4h" unicode="&#xd4;" 
d="M389 444l113 103h164l13 -103h-113l-5 56l-59 -56h-113zM615 296h-308l-90 -185h308zM608 32q-6 -11 -21 -21.5t-26 -10.5h-488q-11 0 -15 11.5t0 20.5l167 343q3 6 9 11.5t13 10t14 7.5t11 3h488q8 0 14 -10.5t1 -21.5z" />
    <glyph glyph-name="FL00D5h" unicode="&#xd5;" 
d="M665 444h-144l-7 54l-57 -54h-113l113 103h144l6 -54l58 54h113zM307 296l-90 -185h308l90 185h-308zM608 32q-6 -11 -21 -21.5t-26 -10.5h-488q-11 0 -15 11.5t0 20.5l167 343q3 6 9 11.5t13 10t14 7.5t11 3h488q8 0 14 -10.5t1 -21.5z" />
    <glyph glyph-name="FL00D6h" unicode="&#xd6;" 
d="M608 32q-6 -11 -21 -21.5t-26 -10.5h-488q-11 0 -15 11.5t0 20.5l167 343q3 6 9 11.5t13 10t14 7.5t11 3h488q8 0 14 -10.5t1 -21.5zM525 111l90 185h-308l-90 -185h308zM503 444h-114l50 103h114zM615 547h114l-50 -103h-114z" />
    <glyph glyph-name="FL00D7h" unicode="&#xd7;" horiz-adv-x="346" 
d="M412 349l-102 -68l-36 68l-114 -77l34 -69l-102 -69l40 -77l102 68l36 -68l114 77l-34 69l102 69z" />
    <glyph glyph-name="FL00D8h" unicode="&#xd8;" 
d="M608 32l167 343q5 11 -1 21.5t-14 10.5h-488q-4 0 -11 -3t-14 -7.5t-13 -10t-9 -11.5l-167 -343q-4 -9 0 -20.5t15 -11.5h488q11 0 26 10.5t21 21.5zM445 296l-186 -185h-42l90 185h138zM525 111h-137l186 185h41z" />
    <glyph glyph-name="FL00D9h" unicode="&#xd9;" 
d="M600 444h-106l-13 103h114zM608 32q-6 -11 -21 -21.5t-26 -10.5h-488q-11 0 -15 11.5t0 20.5l183 375h121l-145 -296h308l145 296h121z" />
    <glyph glyph-name="FL00DAh" unicode="&#xda;" 
d="M573 547h114l-113 -103h-106zM608 32q-6 -11 -21 -21.5t-26 -10.5h-488q-11 0 -15 11.5t0 20.5l183 375h121l-145 -296h308l145 296h121z" />
    <glyph glyph-name="FL00DBh" unicode="&#xdb;" 
d="M389 444l113 103h164l13 -103h-113l-5 56l-59 -56h-113zM608 32q-6 -11 -21 -21.5t-26 -10.5h-488q-11 0 -15 11.5t0 20.5l183 375h121l-145 -296h308l145 296h121z" />
    <glyph glyph-name="FL00DCh" unicode="&#xdc;" 
d="M503 444h-114l50 103h114zM615 547h114l-50 -103h-114zM608 32q-6 -11 -21 -21.5t-26 -10.5h-488q-11 0 -15 11.5t0 20.5l183 375h121l-145 -296h308l145 296h121z" />
    <glyph glyph-name="FL00DDh" unicode="&#xdd;" 
d="M42 0l54 111h429l18 37h-394q-8 3 -15.5 12t-2.5 23l110 224h121l-73 -149h308l73 149h121l-182 -372q-3 -6 -9 -12t-13 -11t-14.5 -8.5t-13.5 -3.5h-517zM573 547h114l-113 -103h-106z" />
    <glyph glyph-name="FL00DEh" unicode="&#xde;" horiz-adv-x="646" 
d="M241 407l-199 -407h121l27 56h368q31 0 75 47t87 135l15 31q5 11 10.5 25t7.5 27t-0.5 21.5t-13.5 8.5h-405l28 56h-121zM280 240h320l-36 -74h-320z" />
    <glyph glyph-name="FL00DFh" unicode="&#xdf;" 
d="M-26 -139h121l212 435h308l-18 -38h-244l-54 -110h244l-18 -37h-244l-54 -111h331q11 0 22 8.5t21 21.5t18 27t13 25l15 30q10 22 15 36t6.5 23.5t-0.5 16.5t-5 15q12 9 21 17t17 17.5t16 22.5t18 34l16 31q5 11 11 25t8.5 27t0 21.5t-13.5 8.5h-485q-4 0 -11 -3
t-14 -7.5t-13 -10t-9 -11.5z" />
    <glyph glyph-name="FL00E0h" unicode="&#xe0;" 
d="M600 444h-106l-13 103h114zM775 375l-183 -375h-121l54 111h-308l-54 -111h-121l183 375q5 9 20.5 20.5t26.5 11.5h488q11 0 15.5 -10.5t-0.5 -21.5zM271 221h308l36 75h-308z" />
    <glyph glyph-name="FL00E1h" unicode="&#xe1;" 
d="M573 547h114l-113 -103h-106zM775 375l-183 -375h-121l54 111h-308l-54 -111h-121l183 375q5 9 20.5 20.5t26.5 11.5h488q11 0 15.5 -10.5t-0.5 -21.5zM271 221h308l36 75h-308z" />
    <glyph glyph-name="FL00E2h" unicode="&#xe2;" 
d="M389 444l113 103h164l13 -103h-113l-5 56l-59 -56h-113zM775 375l-183 -375h-121l54 111h-308l-54 -111h-121l183 375q5 9 20.5 20.5t26.5 11.5h488q11 0 15.5 -10.5t-0.5 -21.5zM271 221h308l36 75h-308z" />
    <glyph glyph-name="FL00E3h" unicode="&#xe3;" 
d="M665 444h-144l-7 54l-57 -54h-113l113 103h144l6 -54l58 54h113zM775 375l-183 -375h-121l54 111h-308l-54 -111h-121l183 375q5 9 20.5 20.5t26.5 11.5h488q11 0 15.5 -10.5t-0.5 -21.5zM271 221h308l36 75h-308z" />
    <glyph glyph-name="FL00E4h" unicode="&#xe4;" 
d="M503 444h-114l50 103h114zM615 547h114l-50 -103h-114zM775 375l-183 -375h-121l54 111h-308l-54 -111h-121l183 375q5 9 20.5 20.5t26.5 11.5h488q11 0 15.5 -10.5t-0.5 -21.5zM271 221h308l36 75h-308z" />
    <glyph glyph-name="FL00E5h" unicode="&#xe5;" 
d="M534 480h36l15 31h-36zM592 0h-121l54 111h-308l-54 -111h-121l183 375q5 9 20.5 20.5t26.5 11.5h488q11 0 15.5 -10.5t-0.5 -21.5zM271 221h308l36 75h-308zM592 444h-114l50 103h114z" />
    <glyph glyph-name="FL00E6h" unicode="&#xe6;" horiz-adv-x="1064" 
d="M1221 407h-949q-11 0 -26.5 -11.5t-20.5 -20.5l-183 -375h121l54 111h308l-54 -111h551l54 111h-429l18 37h402l54 110h-402l18 38h429zM271 221l36 75h308l-36 -75h-308z" />
    <glyph glyph-name="FL00E7h" unicode="&#xe7;" 
d="M665 150h-121l-19 -39h-308l90 185h308l-18 -38h121l57 117q5 11 -1 21.5t-14 10.5h-488q-4 0 -11 -3t-14 -7.5t-13 -10t-9 -11.5l-167 -343q-4 -9 0 -20.5t15 -11.5h217l-23 -48h-75l-48 -98h173l71 146h173q11 0 26 10.5t21 21.5z" />
    <glyph glyph-name="FL00E8h" unicode="&#xe8;" 
d="M595 547h-114l13 -103h106zM241 407l-199 -407h550l54 111h-429l18 37h402l54 110h-402l18 38h429l55 111h-550z" />
    <glyph glyph-name="FL00E9h" unicode="&#xe9;" 
d="M468 444h106l113 103h-114zM241 407l-199 -407h550l54 111h-429l18 37h402l54 110h-402l18 38h429l55 111h-550z" />
    <glyph glyph-name="FL00EAh" unicode="&#xea;" 
d="M502 444l59 56l5 -56h113l-13 103h-164l-113 -103h113zM241 407l-199 -407h550l54 111h-429l18 37h402l54 110h-402l18 38h429l55 111h-550z" />
    <glyph glyph-name="FL00EBh" unicode="&#xeb;" 
d="M565 444h114l50 103h-114zM553 547h-114l-50 -103h114zM241 407l-199 -407h550l54 111h-429l18 37h402l54 110h-402l18 38h429l55 111h-550z" />
    <glyph glyph-name="FL00EDh" unicode="&#xec;" horiz-adv-x="206" 
d="M404 444h-106l-13 103h114zM164 0h-122l199 407h122z" />
    <glyph glyph-name="FL00ECh" unicode="&#xed;" horiz-adv-x="206" 
d="M241 407h122l-199 -407h-122zM341 547h114l-113 -103h-106z" />
    <glyph glyph-name="FL00EEh" unicode="&#xee;" horiz-adv-x="206" 
d="M42 0h122l199 407h-122zM289 444l59 56l5 -56h113l-13 103h-164l-113 -103h113z" />
    <glyph glyph-name="FL00EFh" unicode="&#xef;" horiz-adv-x="206" 
d="M42 0h122l199 407h-122zM352 444h114l50 103h-114zM340 547h-114l-50 -103h114z" />
    <glyph glyph-name="FL00F0h" unicode="&#xf0;" 
d="M595 462h-119l-26 -55h-209l-55 -111h429l-18 -38h-396q-5 0 -12.5 -4.5t-15.5 -10.5t-15 -12.5t-9 -10.5l-91 -187q-5 -11 0.5 -21.5t15.5 -11.5h485q8 0 24.5 9t24.5 23l167 343q5 11 -0.5 21.5t-16.5 10.5h-189zM216 109l19 39h308l-19 -39h-308z" />
    <glyph glyph-name="FL00F1h" unicode="&#xf1;" horiz-adv-x="649" 
d="M241 407h119l200 -253l124 253h122l-199 -407h-118l-203 253l-123 -253h-121zM673 444h-144l-7 54l-57 -54h-113l113 103h144l6 -54l58 54h113z" />
    <glyph glyph-name="FL00F5h" unicode="&#xf2;" 
d="M608 32q-6 -11 -21 -21.5t-26 -10.5h-488q-11 0 -15 11.5t0 20.5l167 343q3 6 9 11.5t13 10t14 7.5t11 3h488q8 0 14 -10.5t1 -21.5zM525 111l90 185h-308l-90 -185h308zM600 444h-106l-13 103h114z" />
    <glyph glyph-name="FL00F7h" unicode="&#xf3;" 
d="M608 32q-6 -11 -21 -21.5t-26 -10.5h-488q-11 0 -15 11.5t0 20.5l167 343q3 6 9 11.5t13 10t14 7.5t11 3h488q8 0 14 -10.5t1 -21.5zM525 111l90 185h-308l-90 -185h308zM573 547h114l-113 -103h-106z" />
    <glyph glyph-name="FL00F4h" unicode="&#xf4;" 
d="M389 444l113 103h164l13 -103h-113l-5 56l-59 -56h-113zM615 296h-308l-90 -185h308zM608 32q-6 -11 -21 -21.5t-26 -10.5h-488q-11 0 -15 11.5t0 20.5l167 343q3 6 9 11.5t13 10t14 7.5t11 3h488q8 0 14 -10.5t1 -21.5z" />
    <glyph glyph-name="FL00F8h" unicode="&#xf5;" 
d="M665 444h-144l-7 54l-57 -54h-113l113 103h144l6 -54l58 54h113zM307 296l-90 -185h308l90 185h-308zM608 32q-6 -11 -21 -21.5t-26 -10.5h-488q-11 0 -15 11.5t0 20.5l167 343q3 6 9 11.5t13 10t14 7.5t11 3h488q8 0 14 -10.5t1 -21.5z" />
    <glyph glyph-name="FL00F6h" unicode="&#xf6;" 
d="M608 32q-6 -11 -21 -21.5t-26 -10.5h-488q-11 0 -15 11.5t0 20.5l167 343q3 6 9 11.5t13 10t14 7.5t11 3h488q8 0 14 -10.5t1 -21.5zM525 111l90 185h-308l-90 -185h308zM503 444h-114l50 103h114zM615 547h114l-50 -103h-114z" />
    <glyph glyph-name="FL0101h" unicode="&#xf7;" horiz-adv-x="474" 
d="M558 258l-54 -110h-390l54 110h390zM435 290h-114l51 103h114zM237 116h114l-51 -103h-114z" />
    <glyph glyph-name="FL00FEh" unicode="&#xf8;" 
d="M58 32l167 343q3 6 9 11.5t13 10t14 7.5t11 3h488q8 0 14 -10.5t1 -21.5l-167 -343q-5 -9 -20.5 -20.5t-26.5 -11.5h-488q-11 0 -16 10.5t1 21.5zM477 296l6 -185h42l90 185h-138zM217 111h137l-6 185h-41z" />
    <glyph glyph-name="FL00F9h" unicode="&#xf9;" 
d="M600 444h-106l-13 103h114zM608 32q-6 -11 -21 -21.5t-26 -10.5h-488q-11 0 -15 11.5t0 20.5l183 375h121l-145 -296h308l145 296h121z" />
    <glyph glyph-name="FL00FAh" unicode="&#xfa;" 
d="M573 547h114l-113 -103h-106zM608 32q-6 -11 -21 -21.5t-26 -10.5h-488q-11 0 -15 11.5t0 20.5l183 375h121l-145 -296h308l145 296h121z" />
    <glyph glyph-name="FL00FBh" unicode="&#xfb;" 
d="M389 444l113 103h164l13 -103h-113l-5 56l-59 -56h-113zM608 32q-6 -11 -21 -21.5t-26 -10.5h-488q-11 0 -15 11.5t0 20.5l183 375h121l-145 -296h308l145 296h121z" />
    <glyph glyph-name="FL00FCh" unicode="&#xfc;" 
d="M503 444h-114l50 103h114zM615 547h114l-50 -103h-114zM608 32q-6 -11 -21 -21.5t-26 -10.5h-488q-11 0 -15 11.5t0 20.5l183 375h121l-145 -296h308l145 296h121z" />
    <glyph glyph-name="FL00FDh" unicode="&#xfd;" 
d="M468 444h106l113 103h-114zM791 407h-121l-91 -185h-308l91 185h-121l-129 -264q-4 -9 0 -20.5t15 -11.5h183l-54 -111h121l54 111h184q11 0 26 10.5t21 21.5z" />
    <glyph glyph-name="FL0100h" unicode="&#xfe;" horiz-adv-x="646" 
d="M241 407l-199 -407h121l27 56h368q31 0 75 47t87 135l15 31q5 11 10.5 25t7.5 27t-0.5 21.5t-13.5 8.5h-405l28 56h-121zM280 240h320l-36 -74h-320z" />
    <glyph glyph-name="FL00FFh" unicode="&#xff;" 
d="M565 444h114l50 103h-114zM553 547h-114l-50 -103h114zM791 407h-121l-91 -185h-308l91 185h-121l-129 -264q-4 -9 0 -20.5t15 -11.5h183l-54 -111h121l54 111h184q11 0 26 10.5t21 21.5z" />
    <glyph glyph-name="FL0153h" unicode="&#x152;" horiz-adv-x="1065" 
d="M1222 407h-950q-4 0 -11 -3t-14 -7.5t-13 -10t-9 -11.5l-167 -343q-4 -9 0 -20.5t15 -11.5h950l54 111h-429l18 37h402l54 110h-402l18 38h429zM525 111h-308l90 185h308z" />
    <glyph glyph-name="FL0152h" unicode="&#x153;" horiz-adv-x="1065" 
d="M1222 407h-950q-4 0 -11 -3t-14 -7.5t-13 -10t-9 -11.5l-167 -343q-4 -9 0 -20.5t15 -11.5h950l54 111h-429l18 37h402l54 110h-402l18 38h429zM525 111h-308l90 185h308z" />
    <glyph glyph-name="FL0160h" unicode="&#x160;" 
d="M525 111l18 37h-382q-20 0 -26.5 14.5t-1.5 24.5l88 181q11 16 27 26t33 13h510l-55 -111h-429l-18 -38h396q4 0 8 -4.5t6 -10.5t2 -13q0 -6 -2 -10l-90 -185q-3 -6 -9 -12t-13 -11t-14.5 -8.5t-13.5 -3.5h-517l54 111h429zM729 547l-113 -103h-164l-13 103h113l4 -56
l60 56h113z" />
    <glyph glyph-name="FL0161h" unicode="&#x161;" 
d="M525 111l18 37h-382q-20 0 -26.5 14.5t-1.5 24.5l88 181q11 16 27 26t33 13h510l-55 -111h-429l-18 -38h396q4 0 8 -4.5t6 -10.5t2 -13q0 -6 -2 -10l-90 -185q-3 -6 -9 -12t-13 -11t-14.5 -8.5t-13.5 -3.5h-517l54 111h429zM729 547l-113 -103h-164l-13 103h113l4 -56
l60 56h113z" />
    <glyph glyph-name="FL0178h" unicode="&#x178;" 
d="M503 444h-114l50 103h114zM615 547h114l-50 -103h-114zM42 0l54 111h429l18 37h-394q-8 3 -15.5 12t-2.5 23l110 224h121l-73 -149h308l73 149h121l-182 -372q-3 -6 -9 -12t-13 -11t-14.5 -8.5t-13.5 -3.5h-517z" />
    <glyph glyph-name="FL017Dh" unicode="&#x17d;" 
d="M647 112l-55 -112h-550l48 98l415 198h-319l55 111h550l-49 -99l-414 -196h319zM729 547l-113 -103h-164l-13 103h113l4 -56l60 56h113z" />
    <glyph glyph-name="FL017Eh" unicode="&#x17e;" 
d="M647 112l-55 -112h-550l48 98l415 198h-319l55 111h550l-49 -99l-414 -196h319zM729 547l-113 -103h-164l-13 103h113l4 -56l60 56h113z" />
    <glyph glyph-name="k" unicode="&#x192;" horiz-adv-x="685" 
d="M241 407l-199 -407h121l59 121l217 -121h219l-316 202l515 205h-220l-338 -129l63 129h-121z" />
    <glyph glyph-name="FL02C6h" unicode="&#x2c6;" horiz-adv-x="344" 
d="M315 358l59 56l5 -56h113l-13 103h-164l-113 -103h113z" />
    <glyph glyph-name="FL02DCh" unicode="&#x2dc;" horiz-adv-x="438" 
d="M523 359h-144l-7 54l-57 -54h-113l113 103h144l7 -54l57 54h113z" />
    <glyph glyph-name="FL2013h" unicode="&#x2013;" horiz-adv-x="388" 
d="M114 148h304l54 110h-304z" />
    <glyph glyph-name="FL2014h" unicode="&#x2014;" horiz-adv-x="464" 
d="M168 258l-54 -110h380l54 110h-380z" />
    <glyph glyph-name="FL2018h" unicode="&#x2018;" horiz-adv-x="205" 
d="M215 357l71 50h75l-79 -161h-121z" />
    <glyph glyph-name="FL2019h" unicode="&#x2019;" horiz-adv-x="205" 
d="M307 296l-70 -50h-75l79 161h121z" />
    <glyph glyph-name="FL201Ah" unicode="&#x201a;" horiz-adv-x="205" 
d="M163 0l-70 -50h-75l78 161h121z" />
    <glyph glyph-name="FL201Ch" unicode="&#x201c;" horiz-adv-x="352" 
d="M216 357l68 50h70l-79 -161h-113zM371 357l68 50h70l-79 -161h-113z" />
    <glyph glyph-name="FL201Dh" unicode="&#x201d;" horiz-adv-x="352" 
d="M454 296l-67 -50h-70l79 161h113zM299 296l-67 -50h-70l79 161h113z" />
    <glyph glyph-name="FL201Eh" unicode="&#x201e;" horiz-adv-x="355" 
d="M313 0l-70 -50h-75l78 161h121zM163 0l-70 -50h-75l78 161h121z" />
    <glyph glyph-name="FL2020h" unicode="&#x2020;" horiz-adv-x="467" 
d="M590 338h-131l34 69h-121l-34 -69h-131l-54 -110h131l-111 -228h121l111 228h131z" />
    <glyph glyph-name="FL2021h" unicode="&#x2021;" horiz-adv-x="467" 
d="M590 338h-131l34 69h-121l-34 -69h-131l-54 -110h131l-24 -50h-131l-54 -110h131l-33 -68h121l33 68h131l54 110h-131l24 50h131z" />
    <glyph glyph-name="FL2022h" unicode="&#x2022;" 
d="M608 32q-6 -11 -21 -21.5t-26 -10.5h-488q-11 0 -15 11.5t0 20.5l167 343q3 6 9 11.5t13 10t14 7.5t11 3h488q8 0 14 -10.5t1 -21.5z" />
    <glyph glyph-name="FL2026h" unicode="&#x2026;" horiz-adv-x="591" 
d="M549 0h-121l54 111h121zM356 0h-121l54 111h121zM163 0h-121l54 111h121z" />
    <glyph glyph-name="FL00B0h" unicode="&#x2030;" horiz-adv-x="989" 
d="M776 50l28 56h114l-28 -56h-114zM1027 165q3 6 0 11t-8 5h-244q-4 0 -12 -5t-11 -11l-84 -174q-3 -5 -0.5 -10.5t7.5 -5.5h244q6 0 13.5 5t10.5 11zM651 -9l84 174q3 6 0 11t-8 5h-237l229 226h-130l-142 -140l72 148q3 6 0 11t-8 5h-244q-4 0 -12 -5t-11 -11l-84 -174
q-3 -5 -0.5 -10.5t7.5 -5.5h238l-227 -225h130l139 138l-71 -147q-3 -5 -0.5 -10.5t7.5 -5.5h244q6 0 13.5 5t10.5 11zM382 300h-114l28 56h114zM598 50h-114l28 56h114z" />
    <glyph glyph-name="FL2039h" unicode="&#x2039;" horiz-adv-x="288" 
d="M329 407h131l-198 -204l-1 -203h-131l-4 203z" />
    <glyph glyph-name="FL203Ah" unicode="&#x203a;" horiz-adv-x="288" 
d="M357 407h-131l-2 -204l-197 -203h131l202 203z" />
    <glyph glyph-name="FL20ACh" unicode="&#x20ac;" horiz-adv-x="738" 
d="M176 275l-29 -59h104l-11 -23h-104l-29 -60h104l-49 -101q-4 -9 0 -20.5t15 -11.5h488q11 0 26 10.5t21 21.5l57 118h-121l-19 -40h-308l11 23h220l29 60h-220l11 23h220l29 59h-220l11 22h308l-19 -39h121l57 117q5 11 -1 21.5t-14 10.5h-488q-4 0 -11 -3t-14 -7.5
t-13 -10t-9 -11.5l-49 -100h-104z" />
    <glyph glyph-name="FL2122h" unicode="&#x2122;" horiz-adv-x="345" 
d="M313 461h-46l10 21h113l-10 -21h-46l-55 -113h-21zM410 478q1 0 3 0.5t4 0.5q5 0 7 2l-3 1l1 0.5t3 0.5q4 0 9.5 -12.5t3.5 -25.5l-10 -58q11 11 17.5 19.5t16.5 21.5q1 3 3 5q18 16 28.5 26t17 15t11 6.5t11.5 1.5h5l-65 -134h-14l42 87v10q-27 -34 -44 -53.5t-26 -29
t-13 -12t-6 -2.5h-4q-2 0 -3.5 1t-0.5 7l10 86l-11 -7l-42 -87h-14z" />
    <glyph glyph-name="FL005Bh" horiz-adv-x="779" 
d="M73 0h633q11 0 21 10t10 22v375h-121v-296h-166v296h-121v-296h-166v296h-121v-375q0 -11 11 -21.5t20 -10.5z" />
    <glyph glyph-name="FLE003h" horiz-adv-x="618" 
d="M309 281l150 -281h132l-218 407h-128l-218 -407h132z" />
    </font>
</defs>
</svg>
