<svg xmlns="http://www.w3.org/2000/svg">
<defs>
<font id="CrackdownRBRK" horiz-adv-x="744" >
  <font-face 
    font-family="Crackdown R BRK"
    font-weight="400"
    font-stretch="normal"
    units-per-em="1000"
    panose-1="0 0 0 0 0 0 0 0 0 0"
    ascent="800"
    descent="-200"
    x-height="484"
    cap-height="693"
    bbox="10 -209 1779 795"
    underline-thickness="50"
    underline-position="-175"
    unicode-range="U+0020-E001"
  />
<missing-glyph horiz-adv-x="736" 
d="M169 8q-1 1 -1.5 3.5t-0.5 4.5h-14q-1 11 -6.5 22.5t-18.5 11.5h-2q-20 -14 -35.5 -21t-39.5 -7q0 10 5.5 17t7.5 17q-4 0 -16.5 0.5t-16.5 1.5q-2 0 -5.5 1t-5.5 1v4q0 8 4 13.5t7 13.5q0 1 0.5 5t1.5 5q0 1 2.5 2.5t3.5 2.5q8 6 11.5 11.5t3.5 15.5q0 9 -12.5 17
t-19.5 16q-9 11 -10.5 28.5t-1.5 31.5v13q0 6 6 11q1 1 6 5t10.5 8.5t10.5 8.5t6 5q3 3 3 7q0 25 -9.5 48t-9.5 48q0 5 0.5 9t3.5 8v19v19q-1 12 -2 30.5t-2.5 35.5t-3.5 43l-11 13v2q0 10 4 18.5t9.5 17t9.5 18t4 20.5t-1 11.5t-1 1.5q-2 2 -6 8t-6 8v3q0 4 5.5 13t12 18
t12.5 15.5t7 6.5h25q2 0 7 -9.5t20 -11.5h20h21q3 0 11.5 1t18.5 1.5t18.5 1t11.5 0.5q17 4 31.5 11.5t28.5 17.5q1 0 2.5 0.5t2.5 0.5q2 0 8.5 -1.5t13.5 -3.5t12.5 -4t5.5 -4v-31q10 0 20 4.5t20 10l20 11t21 7.5h21q25 0 48.5 -4t48.5 -4h13q10 6 20 10t22 4
q16 0 31.5 -4.5t31 -10.5t30.5 -11.5t32 -6.5v-15q0 -26 -6.5 -49.5t-6.5 -48.5v-11t1 -14.5t3.5 -13.5t8.5 -7q0 -2 0.5 -9t0.5 -9q0 -3 -0.5 -9.5t-0.5 -7.5q0 -6 -1.5 -19.5t-3 -29.5t-3 -29.5t-2.5 -19.5q-4 -8 -8.5 -15t-4.5 -16q0 -11 6.5 -20.5t8.5 -20.5q0 -2 1 -10
t2 -17t2 -17t1 -10q2 -9 5.5 -19t11.5 -16q2 -13 4 -24.5t2 -23.5v-8l-35 -39v-4q0 -25 6 -48t6 -47v-11q-9 -11 -29.5 -19t-35.5 -8q-9 0 -13.5 8.5t-10.5 14.5q-5 5 -15.5 8t-17.5 3q-1 0 -3 -0.5t-3 -0.5q-1 -3 -6.5 -8.5t-12.5 -10.5t-14 -8.5t-10 -3.5q-7 0 -19 1
t-17 8q-7 11 -19.5 11.5t-24.5 0.5q-20 0 -39.5 -5t-38 -10.5t-37.5 -10.5t-39 -5h-11q-5 7 -12 10.5t-15 8.5q-2 1 -9 6q0 16 -2.5 16.5t-4.5 -0.5q-8 -2 -21.5 -5.5t-20.5 -8.5q-5 -5 -13.5 -12t-16.5 -7h-3zM469 139q11 0 17 -6t16 -9q10 -2 16 -2h18h22q4 0 15.5 1t24 2

<glyph glyph-name=".notdef" horiz-adv-x="736" 
d="M169 8q-1 1 -1.5 3.5t-0.5 4.5h-14q-1 11 -6.5 22.5t-18.5 11.5h-2q-20 -14 -35.5 -21t-39.5 -7q0 10 5.5 17t7.5 17q-4 0 -16.5 0.5t-16.5 1.5q-2 0 -5.5 1t-5.5 1v4q0 8 4 13.5t7 13.5q0 1 0.5 5t1.5 5q0 1 2.5 2.5t3.5 2.5q8 6 11.5 11.5t3.5 15.5q0 9 -12.5 17
t-19.5 16q-9 11 -10.5 28.5t-1.5 31.5v13q0 6 6 11q1 1 6 5t10.5 8.5t10.5 8.5t6 5q3 3 3 7q0 25 -9.5 48t-9.5 48q0 5 0.5 9t3.5 8v19v19q-1 12 -2 30.5t-2.5 35.5t-3.5 43l-11 13v2q0 10 4 18.5t9.5 17t9.5 18t4 20.5t-1 11.5t-1 1.5q-2 2 -6 8t-6 8v3q0 4 5.5 13t12 18
t12.5 15.5t7 6.5h25q2 0 7 -9.5t20 -11.5h20h21q3 0 11.5 1t18.5 1.5t18.5 1t11.5 0.5q17 4 31.5 11.5t28.5 17.5q1 0 2.5 0.5t2.5 0.5q2 0 8.5 -1.5t13.5 -3.5t12.5 -4t5.5 -4v-31q10 0 20 4.5t20 10l20 11t21 7.5h21q25 0 48.5 -4t48.5 -4h13q10 6 20 10t22 4
q16 0 31.5 -4.5t31 -10.5t30.5 -11.5t32 -6.5v-15q0 -26 -6.5 -49.5t-6.5 -48.5v-11t1 -14.5t3.5 -13.5t8.5 -7q0 -2 0.5 -9t0.5 -9q0 -3 -0.5 -9.5t-0.5 -7.5q0 -6 -1.5 -19.5t-3 -29.5t-3 -29.5t-2.5 -19.5q-4 -8 -8.5 -15t-4.5 -16q0 -11 6.5 -20.5t8.5 -20.5q0 -2 1 -10
t2 -17t2 -17t1 -10q2 -9 5.5 -19t11.5 -16q2 -13 4 -24.5t2 -23.5v-8l-35 -39v-4q0 -25 6 -48t6 -47v-11q-9 -11 -29.5 -19t-35.5 -8q-9 0 -13.5 8.5t-10.5 14.5q-5 5 -15.5 8t-17.5 3q-1 0 -3 -0.5t-3 -0.5q-1 -3 -6.5 -8.5t-12.5 -10.5t-14 -8.5t-10 -3.5q-7 0 -19 1
t-17 8q-7 11 -19.5 11.5t-24.5 0.5q-20 0 -39.5 -5t-38 -10.5t-37.5 -10.5t-39 -5h-11q-5 7 -12 10.5t-15 8.5q-2 1 -9 6q0 16 -2.5 16.5t-4.5 -0.5q-8 -2 -21.5 -5.5t-20.5 -8.5q-5 -5 -13.5 -12t-16.5 -7h-3zM469 139q11 0 17 -6t16 -9q10 -2 16 -2h18h22q4 0 15.5 1t24 2
t23.5 2t16 1q0 69 -2 70.5t-4 2.5q-5 2 -10 3t-10 1q-3 0 -5.5 -3.5t-5.5 -4.5q-2 -1 -6 -1h-6q-10 0 -17.5 3t-18.5 4q-3 0 -15 0.5t-26 1t-26.5 1.5t-15.5 1q-2 0 -7 1t-7 1q0 1 -3 5.5t-6 10t-8 15.5q0 1 -3.5 4t-4.5 4q-4 5 -3 12.5t-3 12.5q-5 6 -11 6v6q0 8 9 15
q7 0 26 0.5t40 0.5t39.5 0.5t26.5 0.5q6 0 16.5 0.5t21.5 2t21 4t16 6.5q-2 13 -2 21v19v9q0 1 1 5t1 5t-1 6t-1 7q-1 2 -2.5 9.5t-2.5 9.5h-31q-11 0 -29.5 0.5t-28.5 -10.5h-68q-5 -6 -10 -9.5t-13 -3.5q-5 0 -6.5 1.5t-3.5 6.5t-8 8.5t-8 8.5l-9 27q-6 3 -7.5 8.5
t-2.5 12.5t-2.5 13t-7.5 9v23l6 6q20 17 41.5 21t48.5 4q6 0 9.5 -3t7 -7l7 -8t8.5 -5q17 -1 30 -1.5t28 -0.5h8q2 4 9 6.5t14 3t12.5 1t5.5 1.5v38q-2 3 -3.5 6.5t-2.5 7.5q0 3 -0.5 9t-1 13t-1.5 13t-1 9q0 2 -1 10t-6 8q-7 0 -13 -5t-13 -7q-33 -13 -68 -13
q-18 0 -35.5 1.5t-35.5 1.5q-26 0 -50 -4.5t-50 -4.5h-28q-9 2 -13 6.5t-12 12.5h-3q-11 0 -20 -13.5t-16 -21.5q-1 -2 -4 -6.5t-4 -6.5q-1 -1 -3.5 -6.5t-6 -11.5t-6 -12t-3.5 -7q-4 -7 -8 -10q-5 -5 -9 -6t-10 -3q-5 -2 -7 -7t-7 -7q-1 -2 -1.5 -9.5t-0.5 -9.5v-2
q0 -5 3 -9t3 -9q0 -3 -1 -8.5t-2 -11.5t-2.5 -10.5t-2.5 -5.5q-1 -3 -0.5 -14t2.5 -15q3 -12 8.5 -18.5t5.5 -18.5q0 -17 -4 -37t-12 -35q-2 -2 -5.5 -10.5t-5.5 -10.5q2 -2 0 -4t-4 -2q-12 -13 -14 -29.5t-5 -32.5q0 -2 -0.5 -4t-1.5 -2l-18 -21q-11 -2 -15 -10.5t-4 -17.5
q0 -8 2 -7t8 -2q3 -2 3 -3v-2t1.5 -1.5t6.5 -0.5q6 0 9 4.5t8 4.5h1l7 -3.5t6 -3.5q1 0 6 -2h39q2 2 6 7t9 6v52q0 1 1.5 3.5t2.5 4.5q2 2 9 8t9 8v23q5 4 6.5 12t2.5 13q2 4 9.5 6t11.5 2h46q0 -2 -2 -6t-1 -6q0 -1 8 -4q2 -2 6.5 -4t4.5 -3l10 -103q16 -2 33 -6q4 -2 5 -5
t2 -5.5t4 -4.5t12 -2h8l60 13h6v0zM268 382q0 1 0.5 3.5t0.5 3.5q2 1 6 2.5t4 5.5t0.5 15t1.5 14q0 2 2 6.5t2 6.5v5q0 8 -3 15t-3 15h17q4 -8 11 -8v-17q0 -4 7 -3t6 -5q0 -3 0.5 -10.5t1 -15.5t0.5 -16v-10v-7v-7q-4 -6 -15 -14.5t-20 -8.5q-8 0 -13.5 11.5t-5.5 18.5z
" />
    <glyph glyph-name=".null" unicode="&#xe000;" horiz-adv-x="0" 
 />
    <glyph glyph-name="nonmarkingreturn" unicode="&#xe001;" horiz-adv-x="500" 
 />
    <glyph glyph-name="space" unicode=" " horiz-adv-x="500" 
 />
    <glyph glyph-name="exclam" unicode="!" horiz-adv-x="224" 
d="M39 35q0 12 10 19t24 11t28.5 5t22.5 1q5 0 19.5 -1t30 -5t27.5 -10.5t12 -18.5q0 -14 -10 -21.5t-24.5 -10.5t-29 -3.5t-23.5 -0.5h-23q-11 0 -22 1.5t-20.5 5.5t-15.5 10.5t-6 17.5zM124 692q6 0 20.5 -0.5t29.5 -3t27 -9t12 -18.5v-427q0 -5 -6 -9t-13.5 -7.5
t-15 -5.5t-11.5 -3q-2 0 -8 -0.5t-13 -0.5h-12h-8h-11h-13q-6 0 -11 0.5t-6.5 0.5t-9.5 2t-15.5 5.5t-13.5 8t-6 9.5v432q0 9 11.5 14t26.5 7.5t28.5 3.5t17.5 1z" />
    <glyph glyph-name="quotedbl" unicode="&#x22;" horiz-adv-x="612" 
d="M124 694q4 0 18.5 -0.5t30 -3.5t28 -8t12.5 -14v-123q0 -9 -12.5 -14t-28 -7.5t-30 -3t-18.5 -0.5t-17.5 0.5t-28.5 3t-26.5 7.5t-11.5 14v123q0 9 11.5 14t26.5 7.5t28.5 3.5t17.5 1zM517 694q4 0 17.5 -0.5t28.5 -3t26.5 -8t11.5 -14.5v-123q0 -9 -11.5 -14t-26.5 -7.5
t-28.5 -3t-17.5 -0.5q-6 0 -20.5 0.5t-30 3t-27 9t-11.5 18.5v112q0 12 11.5 18t27 9t30 3.5t20.5 0.5z" />
    <glyph glyph-name="numbersign" unicode="#" horiz-adv-x="1265" 
d="M298 207h-212q-15 0 -30.5 9.5t-15.5 25.5q0 7 -0.5 11t5.5 7l10 5t11.5 6t10 5t218.5 2v138h-214q-9 4 -14.5 6.5t-11.5 5.5t-10 6q-6 3 -6 7v12q0 6 5 12.5t12 11t15.5 7.5t14.5 3h212v181q0 9 12 14t27.5 8t29.5 3.5t17 0.5q4 0 19 -1t31.5 -4.5t29 -9.5t12.5 -16
v-173h342v178q0 8 12 13t27.5 8t29.5 4t18 1t19 -1t31 -4.5t28.5 -9.5t12.5 -16v-176h207q6 0 15 -3t17 -8t14 -11.5t6 -13.5q0 -6 -5 -12.5t-12.5 -11.5t-15.5 -8t-14 -3h-209v-138h209q6 0 14 -3t15.5 -8t12.5 -11.5t5 -13.5t-5.5 -13t-13.5 -11t-16 -8t-12 -3h-212v-181
q0 -8 -12.5 -13t-28.5 -8t-30.5 -4t-17.5 -1t-17.5 0.5t-30.5 3t-28.5 8t-12.5 14.5v178h-342v-173q0 -12 -12 -18.5t-27.5 -9t-30 -3t-19.5 -0.5q-3 0 -17.5 0.5t-30.5 3t-28.5 8t-12.5 14.5v181zM479 413v-132h336v132h-336z" />
    <glyph glyph-name="dollar" unicode="$" 
d="M297 0q-5 1 -18.5 3t-28.5 4.5t-28.5 4.5t-18.5 3q-21 4 -49.5 13t-53.5 24t-42.5 36t-17.5 48q0 15 10 22.5t24 11t28.5 4t24.5 0.5q17 0 39 -2.5t37 -13.5q11 -8 11.5 -17.5t8.5 -18.5q17 -20 40.5 -33t51.5 -13h143q11 0 27.5 4t32 12t26.5 19.5t11 26.5
q0 13 -11 25.5t-20 19.5q-4 3 -11 8.5t-14.5 11.5t-13.5 10.5t-7 5.5l-331 209q-16 10 -34.5 23t-34.5 29.5t-27 35t-11 39.5q0 38 30.5 63t72.5 41t85 23.5t69 10.5v76q0 3 5.5 7.5t13 8.5t15 7t10.5 3h91q3 0 10.5 -3t15 -7t13 -8.5t5.5 -7.5v-76q16 -2 41.5 -6
t54.5 -10.5t57.5 -17t51.5 -25t37.5 -33.5t14.5 -44q0 -15 -10 -22.5t-23.5 -11t-28.5 -4t-25 -0.5q-20 0 -39.5 2t-36.5 14q-11 7 -12.5 17t-8.5 19q-17 20 -43 32.5t-53 12.5h-133q-11 0 -28 -4t-33.5 -11.5t-28.5 -19t-12 -26.5q0 -14 11 -26t20 -20q3 -3 10 -8.5
t14.5 -11t13.5 -10t8 -5.5l351 -224q15 -9 30 -20.5t28 -26t21 -31t8 -34.5q0 -26 -14 -45.5t-37 -34t-51.5 -25t-57 -17t-54.5 -10.5t-43 -6v-75q0 -5 -5.5 -9t-13 -7.5t-15 -6l-10.5 -3.5q-3 0 -10 -1t-14.5 -1.5t-13.5 -1.5t-8 -1t-7.5 1t-13 1.5t-14.5 1.5t-10 1
q-4 1 -11.5 3t-14.5 5t-12.5 7.5t-5.5 10.5v75z" />
    <glyph glyph-name="percent" unicode="%" horiz-adv-x="1790" 
d="M560 33q0 6 6.5 15.5t8.5 12.5l510 612q11 12 28.5 16.5t35.5 4.5h21q9 0 23.5 -0.5t28 -4t23.5 -11t10 -21.5q0 -2 -0.5 -5.5t-500.5 -605.5q-13 -16 -24.5 -25t-23.5 -13.5t-26.5 -6t-32.5 -1.5h-23q-10 0 -21 1.5t-20.5 5t-16 10t-6.5 16.5zM1080 138q0 24 14.5 43.5
t37.5 34.5t51.5 25.5t56.5 18t53.5 11t41.5 4.5q1 0 13 0.5t27 0.5h30h25h24h30q15 0 26.5 -0.5t13.5 -0.5q17 -1 42.5 -4.5t54 -11t56.5 -18t51 -25.5t37 -34t14 -44q0 -30 -21 -52t-50.5 -37.5t-62 -25t-55.5 -13.5q-20 -4 -35 -6t-28 -3t-26 -1h-27h-44h-21h-48h-10
q-4 0 -15 1t-24 2.5t-25 3.5l-18 3q-22 4 -54 13.5t-62 25.5t-51.5 38t-21.5 51zM1263 142q0 -17 10 -29.5t25 -20.5t32 -12t31 -4h137q14 0 31 4t32 12t25 20.5t10 29.5q0 22 -21 34.5t-49 18.5t-55.5 7.5t-40.5 1.5q-14 0 -41.5 -1.5t-55.5 -8t-49 -19t-21 -33.5zM40 556
q0 25 16 43.5t35 32.5q31 22 68 34.5t76 18.5t78.5 7.5t75.5 1.5q21 0 54.5 -1.5t72 -6.5t77.5 -14t70.5 -24.5t51 -38t19.5 -54.5q0 -36 -28.5 -62t-68 -42.5t-81 -24.5t-67.5 -8h-199q-26 0 -68 8.5t-82.5 25.5t-70 43t-29.5 61zM218 556q0 -24 21.5 -37t50.5 -20t57 -8.5
t42 -1.5q15 0 43 1.5t55 8.5t47.5 20t20.5 37q0 15 -11 26t-26 19t-31.5 12t-28.5 4h-138q-11 0 -28 -4t-33.5 -11.5t-28.5 -19t-12 -26.5z" />
    <glyph glyph-name="ampersand" unicode="&#x26;" horiz-adv-x="1005" 
d="M132 449v5q-15 8 -31.5 18t-30 22t-22 27.5t-8.5 35.5q0 31 21 53t50.5 37t62 24t55.5 13l18 3t25 3.5t24 2.5t14 1h72h81q19 -1 46.5 -4.5t58 -10t60 -17t53.5 -25.5t38.5 -35.5t14.5 -46.5q0 -20 -8.5 -35.5t-22 -28t-29.5 -21.5t-32 -16v-5q8 -5 24 -14t31.5 -20.5
t27 -23.5t11.5 -24v-102q32 6 56.5 8.5t50.5 2.5h39h13h19q11 0 20.5 -0.5t13.5 -0.5q15 -2 31 -7.5t16 -23.5q0 -19 -19 -27t-47.5 -11t-61.5 -4.5t-61.5 -7.5t-47.5 -18.5t-19 -37.5q0 -24 19 -36.5t47.5 -18t61.5 -7.5t61.5 -5.5t47.5 -11t19 -24.5q0 -10 -5.5 -16
t-13 -10t-17 -6t-16.5 -3h-54q-48 0 -90.5 4.5t-90.5 15.5q-2 1 -9.5 3.5t-16 5.5t-16 5t-9.5 2h-7h-8q-67 -16 -125 -26t-127 -10q-37 0 -83.5 1.5t-92 9.5t-86.5 25.5t-68 50.5q-2 1 -5 6t-6.5 11t-6 11t-2.5 7v240q0 6 4 13.5t9.5 15t11.5 13.5t11 9q3 2 11 7.5t17 11
t17 10.5t11 7zM387 413q-22 0 -44.5 -1.5t-44 -6.5t-40.5 -15t-34 -28q-2 -2 -3.5 -5.5t-1.5 -4.5v-219q0 -12 13 -22.5t30 -18t34 -11.5t25 -4h137q6 0 22 4t32.5 11t29.5 16t13 20v229q0 12 -11 21t-28 15t-37.5 10t-39 6t-33 3t-19.5 1zM218 556q0 -23 21.5 -36.5
t49.5 -20.5t56 -8.5t42 -1.5q15 0 43.5 1.5t56 8.5t48.5 20.5t21 37.5q0 15 -11.5 26t-28 18.5t-34 11.5t-29.5 4h-9q-8 0 -18.5 0.5t-21.5 0.5h-17h-14q-9 0 -19.5 -0.5t-19.5 -0.5h-13q-11 -1 -28.5 -5t-34 -11t-28.5 -18t-12 -27z" />
    <glyph glyph-name="quotesingle" unicode="'" horiz-adv-x="224" 
d="M124 693q4 0 18.5 -0.5t30 -3.5t28 -8t12.5 -14v-122q0 -8 -13 -13t-28.5 -7.5t-30 -3.5t-17.5 -1q-4 0 -17.5 0.5t-28.5 3t-26.5 7.5t-11.5 14v122q0 9 11.5 14t26.5 8t28.5 3.5t17.5 0.5z" />
    <glyph glyph-name="parenleft" unicode="(" 
d="M733 658q0 -10 -8.5 -17t-19.5 -12t-23.5 -7.5t-19.5 -2.5h-337q-1 0 -7 -1.5t-14.5 -4t-16.5 -4.5t-13 -3q-6 -2 -15.5 -5.5t-18.5 -9.5t-15.5 -13.5t-6.5 -17.5v-428q0 -10 12.5 -20.5t29.5 -18.5t34 -13.5t26 -5.5h336q8 0 21 -2t25.5 -7t21.5 -12.5t9 -17.5
q0 -8 -5.5 -14.5t-13 -11t-16.5 -7t-16 -2.5h-377q-13 0 -37.5 3.5t-54 10.5t-60 17.5t-56 24t-41.5 30t-16 36.5v449q0 21 17.5 38.5t44.5 31t60 23.5t64 16.5t56.5 9.5t37.5 3h362q7 0 16 -2.5t16.5 -7t13 -11t5.5 -14.5z" />
    <glyph glyph-name="parenright" unicode=")" 
d="M40 36q0 10 11 17t25 11.5t27.5 7t18.5 2.5h336q1 0 10.5 3.5t23.5 8t22 6.5q4 1 11 4.5t14 8.5t11.5 11t4.5 11v439q0 6 -5 11.5t-11.5 10t-13.5 8l-11 5.5q-6 2 -16 5l-20 6t-17 5t-8 2h-337q-5 0 -17.5 2.5t-25.5 7t-23 11.5t-10 17q0 9 6 15.5t15 11t18.5 7t16.5 2.5
h357q3 0 14.5 -1t25 -2.5t26.5 -3.5t20 -3q3 0 11.5 -2t19 -5t20.5 -5.5t16 -3.5q9 -2 30 -10t42.5 -20t38 -26.5t16.5 -29.5v-464q0 -2 -4 -9.5t-6 -10.5q-21 -26 -51.5 -44.5t-65 -30t-70.5 -17t-68 -5.5h-377q-7 0 -16 2.5t-16.5 7t-13 11t-5.5 15.5z" />
    <glyph glyph-name="asterisk" unicode="*" 
d="M167 463q0 10 7 17t15.5 12t17 10.5t11.5 14.5h-127q-7 0 -16 3t-17 8.5t-13.5 12t-5.5 14.5q0 11 8.5 18t20 11t23.5 5.5t20 1.5q6 0 21 1t32.5 1.5t32.5 1.5t21 1q-4 3 -17.5 12.5t-17.5 13.5q-9 7 -12.5 9.5t-3.5 10.5q0 16 16 24t30 12h41q21 0 37 -2.5t30 -8t28 -14
t32 -21.5h3q10 0 19 5t18 11.5t18.5 13.5t18.5 11q18 5 28 5h30h23q21 0 41.5 -6t20.5 -27q0 -10 -4 -16.5t-10 -11.5t-14.5 -10t-17.5 -11q6 0 21 -1t32.5 -1.5t32.5 -1.5t21 -1q7 0 19 -2t24 -6.5t20.5 -12t8.5 -17.5q0 -8 -7 -14.5t-16.5 -11.5t-19 -7.5t-14.5 -2.5h-128
q5 -3 13.5 -9t17 -13t15 -15.5t6.5 -15.5q0 -14 -10.5 -21t-24.5 -10.5t-28.5 -4t-23.5 -0.5q-39 0 -67.5 14t-60.5 37q-3 -3 -10 -5q-17 -11 -30.5 -19.5t-27 -14.5t-28.5 -9t-36 -3q-7 0 -21.5 1t-29 5t-25.5 10.5t-11 18.5z" />
    <glyph glyph-name="plus" unicode="+" 
d="M297 308h-196q-6 0 -16.5 2.5t-20 7.5t-17 12t-7.5 17q0 9 7 16t16.5 12t20 7.5t17.5 2.5h196v69q0 10 12.5 16.5t29 9.5t31 4t19.5 1h10q7 0 13 -0.5t10 -0.5h6.5t10 -2t16.5 -5.5t14.5 -8t6.5 -9.5v-74h196q6 0 16.5 -2.5t20.5 -7.5t17.5 -12t7.5 -16t-6.5 -16
t-15.5 -12t-19 -8t-16 -3h-201v-79q-14 -8 -18 -10q-17 -9 -33 -9.5t-36 -0.5h-38q-3 0 -12 2t-18.5 6t-16.5 8t-7 9v74z" />
    <glyph glyph-name="comma" unicode="," horiz-adv-x="223" 
d="M123 71q2 0 16 -1t30.5 -4.5t29.5 -9.5t13 -16v-115q0 -10 -13.5 -16t-30 -9.5t-30.5 -4.5t-15 -1q-44 0 -79 20l-5 5v127q0 6 12.5 11t27.5 8t28.5 4.5t15.5 1.5z" />
    <glyph glyph-name="minus" unicode="-" 
d="M39 347q0 9 7 16t16.5 11t20 6t18.5 2h566q6 0 17 -2t22 -6t19 -11t8 -16q0 -10 -6.5 -16.5t-16.5 -11t-20.5 -6.5t-17.5 -2h-576q-8 0 -17.5 2t-18.5 6.5t-15 11.5t-6 16z" />
    <glyph glyph-name="period" unicode="." horiz-adv-x="223" 
d="M38 35q0 12 10 19t24 11t28.5 5t22.5 1q7 0 22 -1t30 -5t26.5 -11.5t11.5 -20.5q0 -10 -6.5 -16.5t-16 -10t-21.5 -5t-22 -1.5h-22h-23q-11 0 -22 1.5t-20.5 5.5t-15.5 10.5t-6 17.5z" />
    <glyph glyph-name="slash" unicode="/" 
d="M40 33q0 5 0.5 9t4.5 9l510 611q19 23 43 27t51 4q9 0 23.5 -0.5t28 -4t23.5 -11t10 -21.5q0 -2 -0.5 -5.5t-504.5 -609.5q-23 -27 -45.5 -34t-56.5 -7h-23q-10 0 -21 1.5t-20.5 5t-16 10t-6.5 16.5z" />
    <glyph glyph-name="zero" unicode="0" 
d="M391 693q33 0 81.5 -2.5t97 -12.5t90.5 -30.5t63 -56.5l6 -12t4 -457q0 -2 -6 -13.5t-9 -16.5q-23 -33 -65.5 -51.5t-91 -27.5t-96 -11t-81.5 -2q-40 0 -85.5 2t-90 11t-84.5 27.5t-69 51.5q-1 1 -4.5 7t-5.5 8l-3 6t-2 458q0 7 5.5 16t9.5 14q29 34 70 52.5t87 27.5
t92.5 10.5t86.5 1.5zM290 82q4 -2 13.5 -4t11.5 -2h143q9 0 25.5 5t32 12.5t27.5 17.5t12 21v428q0 12 -13 22.5t-30.5 18t-34.5 11.5t-24 4h-133q-8 0 -25 -3.5t-34 -11t-30 -18t-13 -23.5v-428q0 -11 8 -19.5t19.5 -14.5t24 -10t20.5 -6z" />
    <glyph glyph-name="one" unicode="1" horiz-adv-x="224" 
d="M126 692q4 0 18 -0.5t29.5 -3.5t27.5 -8t12 -14v-641q0 -9 -12 -14t-27.5 -7.5t-29.5 -3t-18 -0.5q-3 0 -17 0.5t-29.5 3t-27.5 7.5t-12 14v641q0 9 12 14t27.5 8t29.5 3.5t17 0.5z" />
    <glyph glyph-name="two" unicode="2" 
d="M40 35q0 18 9 36t22 31q7 8 20.5 22t27.5 27.5t25 24.5l13 13l291 239l91 92q16 13 16 36q0 16 -11.5 27t-28 18.5t-33.5 11t-29 3.5q-1 0 -9 0.5t-19 0.5h-21h-18h-13h-20q-10 0 -19.5 -0.5t-13.5 -0.5q-31 -4 -49 -12.5t-29 -19.5t-19 -22.5t-19 -21t-28 -15.5t-47 -6
q-10 0 -25.5 0.5t-29.5 4t-24.5 11.5t-10.5 23q0 30 21.5 51.5t51.5 36.5t62.5 24t54.5 13q5 1 17 3t25 3.5t24 2.5t15 1h72h81q19 -1 46.5 -4.5t57.5 -10t60 -17t53.5 -25.5t38.5 -35.5t15 -46.5q0 -20 -9 -38t-23 -32q-6 -7 -17.5 -19t-24 -24.5t-22.5 -22t-12 -10.5
l-336 -281q-10 -6 -25 -22.5t-21 -30.5h412q8 0 21 -2t26 -7t22 -12.5t9 -17.5q0 -9 -5.5 -15.5t-13.5 -11t-17 -6.5t-16 -2h-591q-7 0 -16 2.5t-16.5 7t-13 11t-5.5 14.5z" />
    <glyph glyph-name="three" unicode="3" 
d="M40 135q0 15 10 22.5t23.5 11.5t28.5 4.5t24 0.5q29 0 46 -4.5t26.5 -12t15 -17t12 -19t17.5 -18.5t31 -16q4 -1 11 -3t14.5 -3.5t13 -3t7.5 -1.5h138q6 0 22 4t32.5 11t29.5 16t13 20v288h-209q-5 0 -13 3t-15.5 8t-13 10.5t-5.5 11.5q0 8 5.5 15t13.5 12.5t17 8.5t16 3
h204v79q0 10 -13 19t-29.5 16t-32.5 11t-22 4h-138q-2 0 -8 -1t-13 -2.5t-14 -3.5t-11 -3q-30 -11 -40.5 -25.5t-20 -28.5t-26 -23.5t-58.5 -9.5q-9 0 -24.5 0.5t-29.5 4t-24.5 11.5t-10.5 23q0 23 17 42.5t34 31.5q30 22 66.5 34.5t75.5 18.5t78 7t75 1q33 0 75 -1.5
t84.5 -8t81 -19.5t65.5 -37l31 -31q2 -3 6 -10.5t4 -9.5v-459q0 -2 -4 -9.5t-6 -10.5q-28 -35 -68.5 -54.5t-86 -29t-92.5 -11.5t-87 -2h-79q-16 0 -42 3.5t-56 10t-61 17.5t-55.5 26t-40 34.5t-15.5 43.5z" />
    <glyph glyph-name="four" unicode="4" horiz-adv-x="750" 
d="M563 416h-273q-1 0 -12 2t-26 5l-30 6t-24 5q-20 4 -47 13t-51.5 23.5t-42 34.5t-17.5 46v112q0 12 12 18.5t27 9t29.5 3t20.5 0.5q22 0 46 -3t38 -23q0 -6 0.5 -21t1.5 -32.5t2 -32.5t2 -21q1 -21 16 -34.5t35.5 -22t42.5 -11.5t38 -3h212v183q0 3 7.5 6.5t17 6.5
t18 5.5t10.5 2.5h34q8 0 23 -0.5t29.5 -3.5t25.5 -10.5t11 -21.5v-627q0 -12 -12 -18.5t-27 -9t-29.5 -3t-20.5 -0.5h-34q-2 0 -10.5 2t-18 5t-17 6.5t-7.5 6.5v396z" />
    <glyph glyph-name="five" unicode="5" 
d="M39 133q0 15 9.5 23.5t23 12.5t29 4.5t26.5 0.5q20 0 43 -3t38 -18q7 -7 8.5 -17.5t6.5 -18.5q7 -9 18 -16.5t24 -13t26 -8.5t24 -3h138q10 0 27.5 4t34 12t28.5 19.5t12 26.5v214q0 14 -13 24t-30 16.5t-34 10t-25 5.5q-3 0 -11 1t-17 1.5t-17 1.5t-11 1q-18 0 -63 1
t-95.5 1.5t-95 1.5t-62.5 1q-3 1 -10 3t-13.5 4.5t-12 5.5t-5.5 7v229q0 6 6.5 11t15 8t17 5t12.5 2h586q7 0 16.5 -2.5t18.5 -7t15 -11t6 -15.5q0 -10 -10 -17t-23 -11.5t-25.5 -7t-18.5 -2.5h-438v-130q14 0 49 -1t73.5 -1.5t73.5 -1.5t49 -1t40 -3t56 -10t61 -17t56 -24
t41 -32.5t16 -40.5v-230l-5 -15q-11 -26 -34.5 -44.5t-54 -31t-66 -19.5t-70 -11t-66 -5t-53.5 -1h-79q-17 0 -43.5 3.5t-56 10.5t-59.5 17.5t-53.5 25.5t-38.5 34t-15 42z" />
    <glyph glyph-name="six" unicode="6" 
d="M387 693h76q17 0 44 -3t57 -10t60 -18t54.5 -26.5t39.5 -36t15 -45.5q0 -13 -11 -20t-25.5 -10.5t-29.5 -4t-23 -0.5q-30 0 -47 6t-28 15.5t-19 21t-19 22.5t-29 19.5t-49 12.5q-4 0 -13.5 0.5t-20.5 0.5h-20h-13h-17h-22q-10 0 -18 -0.5t-9 -0.5q-6 0 -22.5 -3.5
t-34.5 -10t-31.5 -16t-13.5 -20.5v-79h255q2 0 16.5 -2.5t33.5 -6t37.5 -7.5t29.5 -7q14 -3 38 -12.5t47.5 -23.5t40.5 -31t17 -35v-240l-10 -20q-21 -37 -63.5 -57.5t-92.5 -30.5t-99.5 -12t-83.5 -2q-33 0 -74.5 1.5t-83.5 8t-80.5 20t-64.5 36.5q-3 2 -7.5 6.5l-9.5 9.5
l-9 9t-5 6q-2 3 -6 10.5t-4 9.5v459q0 2 4 9.5t6 10.5q28 36 68.5 55.5t86.5 28.5t93.5 11t88.5 2zM218 415v-288q0 -11 13 -20t29.5 -16t32.5 -11t22 -4h138q7 0 24 4t34.5 11.5t30.5 18t13 22.5v220q0 13 -12 23t-28 17t-32 11t-25 5q-5 0 -13.5 1t-17.5 1.5t-16 1.5t-9 1
q-11 0 -37 0.5t-55 0.5t-55.5 0.5t-36.5 0.5z" />
    <glyph glyph-name="seven" unicode="7" 
d="M299 36q0 2 0.5 5.5t0.5 4.5l237 573h-426q-8 0 -20 2.5t-23.5 7.5t-20 12t-8.5 17q0 8 5.5 14.5t13.5 11t17 7t16 2.5h591q15 0 33.5 -9.5t18.5 -26.5q0 -2 -0.5 -5.5t-0.5 -4.5l-255 -611q-6 -14 -16.5 -21t-23 -10.5t-26.5 -4t-26 -0.5q-9 0 -23.5 0.5t-28.5 3.5
t-24.5 10.5t-10.5 21.5z" />
    <glyph glyph-name="eight" unicode="8" 
d="M132 448v5q-16 9 -32 18.5t-29.5 21.5t-22 27.5t-8.5 35.5q0 31 21 53t50.5 37t62 24t55.5 13q5 1 17 3t25 3.5t24 2.5t15 1h72h81q18 0 45.5 -3t57.5 -10t60 -18t53.5 -26.5t38.5 -36t15 -45.5q0 -19 -8.5 -34.5t-21.5 -28t-29.5 -22t-32.5 -16.5v-5q9 -5 24.5 -13.5
t30.5 -19.5t26 -23.5t11 -24.5v-250l-5 -10q-24 -40 -65.5 -61.5t-89.5 -31.5t-97.5 -12t-89.5 -2q-37 0 -82.5 1.5t-90.5 9.5t-85.5 25.5t-67.5 50.5q-2 1 -5 6t-6.5 11t-6 11t-2.5 7v240q0 14 10.5 27.5t25.5 25t30.5 20t25.5 13.5zM386 413q-23 0 -45.5 -1.5t-43.5 -6.5
t-40 -15t-34 -28q-1 -2 -3 -5.5t-2 -4.5v-220q0 -12 12.5 -22t29 -17.5t34 -12t26.5 -4.5h69h69q6 1 22 5t32.5 10.5t29.5 15.5t13 20v230q0 17 -23.5 28t-53 17t-57 8.5t-35.5 2.5zM218 555q0 -23 21 -36.5t49.5 -20t56 -8t41.5 -1.5q13 0 41.5 1.5t56.5 8t49.5 19
t21.5 35.5q0 16 -11.5 28t-27.5 19.5t-33.5 11.5t-29.5 4q-1 0 -9 0.5t-19 0.5h-21h-18h-13h-20q-10 0 -19.5 -0.5t-13.5 -0.5q-11 -1 -28 -5t-33.5 -11t-28.5 -18t-12 -27z" />
    <glyph glyph-name="nine" unicode="9" 
d="M557 415h-257q-2 0 -16.5 2.5t-33.5 6t-38 7.5t-29 7q-21 5 -46 14t-46.5 23.5t-36 34t-14.5 45.5q0 31 20.5 54t52.5 38t71.5 24.5t78 14.5t71.5 6.5t52 1.5q34 0 81 -2.5t94.5 -11.5t89.5 -26.5t67 -47.5q1 -1 4.5 -7t5.5 -8l3 -6t2 -560q0 -9 -12 -14.5t-27.5 -7.5
t-29.5 -2.5t-18 -0.5q-5 0 -19.5 0.5t-30 3t-27.5 9t-12 18.5v384zM218 555q0 -21 16 -34t38.5 -20t46 -9.5t37.5 -2.5q8 0 26.5 -0.5t41.5 -0.5t47 -0.5t44 -0.5h40v79q0 12 -13.5 21t-31 15t-34.5 9.5t-23 4.5q-4 0 -13 0.5t-19 0.5h-19h-13h-17h-20q-10 0 -18 -0.5
t-9 -0.5q-11 0 -29.5 -3.5t-35.5 -11t-29.5 -19t-12.5 -27.5z" />
    <glyph glyph-name="colon" unicode=":" horiz-adv-x="224" 
d="M39 35q0 12 11 19.5t25 11t28.5 4.5t22.5 1q7 0 21.5 -1t29.5 -5t26 -11.5t11 -20.5q0 -10 -6.5 -16.5t-16 -10t-21.5 -5t-22 -1.5h-22q-8 0 -23 0.5t-29 3.5t-24.5 10t-10.5 21zM39 657q0 13 10 20.5t24 10.5t28 3.5t23 0.5h22q10 0 22 -1.5t22 -5.5t16.5 -10t6.5 -16
q0 -14 -10 -21.5t-24 -11.5t-29 -5t-24 -1q-8 0 -23 1t-29 5t-24.5 11.5t-10.5 19.5z" />
    <glyph glyph-name="semicolon" unicode=";" horiz-adv-x="224" 
d="M129 71q4 0 18 -1t28.5 -4.5t26 -9.5t11.5 -16v-115q0 -6 -4.5 -10.5t-11.5 -7.5t-14 -5t-11 -3q-3 0 -10 -1t-14.5 -1.5t-13.5 -1.5t-8 -1t-7.5 1t-13 1.5t-14.5 1.5t-10 1q-3 1 -10 3.5t-14 5.5t-12 7.5t-5 9.5v115q0 10 12.5 16t28 9.5t30 4.5t18.5 1zM40 659
q0 13 11 19.5t25 9.5t28.5 3.5t21.5 0.5t22 -0.5t29 -3.5t25 -9.5t11 -19.5q0 -14 -10 -21.5t-24 -11.5t-29 -5t-24 -1t-24 1t-28.5 5t-23.5 11.5t-10 21.5z" />
    <glyph glyph-name="less" unicode="&#x3c;" horiz-adv-x="750" 
d="M39 347q0 11 14 19t23 11l510 205q15 6 31 8t33 2q6 0 20.5 -1t30 -4.5t27 -11t11.5 -19.5q0 -11 -6 -16.5t-15 -8.5l-456 -184l456 -184q1 0 4.5 -3t7 -7t6.5 -8t3 -7q0 -13 -11.5 -20t-26.5 -10.5t-29.5 -4.5t-21.5 -1q-17 0 -33 2t-31 8l-526 209q-2 1 -10 9t-10 12
q-1 4 -1 5z" />
    <glyph glyph-name="equal" unicode="=" horiz-adv-x="750" 
d="M40 242q0 7 5 13t12.5 10.5t15 7t13.5 2.5h607q6 0 13.5 -2.5t15 -7t12.5 -10.5t5 -13q0 -8 -5.5 -14t-14 -10.5t-17 -6.5t-14.5 -2h-597q-6 0 -14.5 2t-17 6.5t-14 10.5t-5.5 14zM40 451q0 8 5.5 14t14 10.5t17 6.5t14.5 2h597q7 0 16 -2t16.5 -6.5t13 -11t5.5 -15.5
q0 -6 -5.5 -12t-13 -10t-15.5 -6.5t-12 -2.5h-607q-6 0 -13.5 2.5t-15 6.5t-12.5 10t-5 14z" />
    <glyph glyph-name="greater" unicode="&#x3e;" 
d="M39 138q0 16 14.5 23t27.5 12l430 174l-456 183q-11 5 -13.5 11t-2.5 14q0 13 10.5 20.5t25 11t29 4t23.5 0.5q16 0 31 -2t30 -8l509 -204q8 -3 22 -11t14 -19q0 -4 -1 -9t-4 -7l-41 -20l-484 -194q-39 -15 -79 -15q-9 0 -23 0.5t-28 4t-24 10.5t-10 21z" />
    <glyph glyph-name="question" unicode="?" 
d="M299 35q0 13 10 20t23.5 10.5t28 4.5t23.5 1q7 0 21.5 -1t29.5 -4.5t26.5 -11.5t11.5 -21q0 -10 -6.5 -16.5t-16 -10t-21 -5t-21.5 -1.5h-22h-24q-10 0 -21 1.5t-20.5 5.5t-15.5 10.5t-6 17.5zM555 555q-2 15 -14 26.5t-27.5 19t-32 11.5t-28.5 4h-138q-11 0 -24 -3
t-26 -8t-24 -12.5t-18 -16.5q-5 -8 -6.5 -18.5t-8.5 -17.5q-16 -16 -40 -18.5t-44 -2.5q-11 0 -25.5 0.5t-28 4t-22.5 12t-9 24.5q0 24 15 43t39.5 33.5t54.5 25t60 17t57 10t45 4.5h74q45 0 91.5 -2.5t91 -13t84.5 -30.5t72 -56q6 -7 8 -17t2 -19q0 -28 -19 -49.5
t-47.5 -37t-62 -25.5t-62 -16.5t-47.5 -9.5t-19 -4v-174q0 -11 -12.5 -17t-29 -9t-31.5 -4t-19 -1h-11q-6 0 -12 0.5t-11 0.5h-5.5t-9 1.5t-15.5 4.5t-14 6.5t-6 7.5v235q0 7 15 11t39 6.5t52.5 5.5t56.5 9t51 16.5t35 27.5q2 2 4 7.5t2 7.5z" />
    <glyph glyph-name="at" unicode="@" horiz-adv-x="1785" 
d="M1419 209q-46 0 -91 1.5t-90 13.5q-2 1 -11.5 4t-21 6.5t-21 6.5t-12.5 4h-5h-5q-35 -11 -66.5 -18t-63 -11t-64 -5.5t-69.5 -1.5h-84q-28 1 -71.5 9t-84.5 24t-70.5 42t-29.5 63t30.5 63t72.5 42.5t86.5 24t71.5 7.5q2 0 13.5 0.5t25.5 0.5h29h24q39 0 79.5 -2t80 -9.5
t77 -21.5t69.5 -39q20 -16 26.5 -35t14.5 -41q7 -22 27.5 -33.5t46 -17t51.5 -6t43 -0.5q11 0 38.5 2t56.5 8.5t51 19t22 32.5v219q0 12 -13 22t-30 17.5t-34 12t-25 4.5h-1173q-1 0 -9 -2t-19.5 -4.5t-16.5 -3.5q-6 -2 -16 -5.5t-19 -8.5t-15.5 -11.5t-6.5 -15.5v-439
q0 -11 13 -20t29.5 -16t32.5 -11t22 -4h1173q10 0 24.5 2t28.5 6.5t26.5 11.5t17.5 16q12 21 19 33t16 18.5t24 8.5t43 2q9 0 24 -0.5t29 -4.5t24 -11.5t10 -21.5q0 -26 -16 -45.5t-41 -35t-56 -26t-61.5 -17t-57.5 -9.5t-43 -3h-1194q-32 0 -68 5.5t-70.5 17t-65 30
t-51.5 44.5q-2 3 -6 10.5t-4 9.5v464q0 15 16.5 30t38 27t42.5 20t30 10q15 4 34.5 8.5t40 8.5t39.5 6.5t34 2.5h1189q11 0 35.5 -3.5t54.5 -10.5t62 -17t58 -24t43 -31t17 -37v-240q0 -13 -13.5 -28t-22.5 -23q-31 -27 -70.5 -41.5t-82 -21t-85.5 -7.5t-81 -1zM738 347
q0 -24 21 -37t49 -20t56 -8.5t43 -1.5q12 0 39.5 2t56 9t50.5 19.5t22 33.5q0 24 -21.5 38t-50 20.5t-57 8.5t-42.5 2q-15 0 -42.5 -1.5t-55 -8t-48 -20t-20.5 -36.5z" />
    <glyph glyph-name="A" unicode="A" horiz-adv-x="750" 
d="M389 694q43 0 89 -2.5t90.5 -12t84.5 -29t71 -53.5q6 -8 10.5 -17t4.5 -19v-530q0 -12 -12 -18.5t-27 -9t-29.5 -3t-20.5 -0.5h-34q-2 0 -10.5 2t-18 5t-17 6.5t-7.5 6.5v393h-347v-393q0 -3 -7.5 -6.5t-17 -6.5t-18.5 -5t-11 -2h-33q-6 0 -20.5 0.5t-29.5 3t-27 9
t-12 18.5v530q0 21 16.5 38t29.5 28q26 24 64.5 37t80.5 20t83.5 8.5t74.5 1.5zM562 490v36q0 25 -10 44.5t-38 31.5q-4 1 -11.5 4t-16 5t-16 4t-12.5 2h-137q-2 0 -11.5 -1.5t-14.5 -3.5q-29 -8 -44.5 -17.5t-23 -23t-9 -33.5t-1.5 -48h345z" />
    <glyph glyph-name="B" unicode="B" 
d="M384 694q20 0 53.5 -1.5t72.5 -6.5t78.5 -14t71.5 -24.5t52.5 -39t20.5 -55.5q0 -27 -12.5 -43t-29 -26t-32.5 -17.5t-23 -18.5q12 -5 28.5 -13.5t32 -20.5t26 -26.5t10.5 -30.5v-230q0 -22 -16 -39.5t-41.5 -32t-57 -25t-61.5 -17t-55 -10t-39 -3.5h-79q-33 0 -74.5 1.5
t-83.5 8t-80.5 20t-64.5 36.5q-3 2 -7.5 6.5l-9.5 9.5l-9 9t-5 6q-2 3 -6 10.5t-4 9.5v464l5 10q21 36 63.5 56.5t92 31t99 13t84.5 2.5zM218 415v-288q0 -11 13 -20t29.5 -16t32.5 -11t22 -4h138q10 0 27.5 4t34 12t28.5 19.5t12 26.5v208q0 20 -19.5 33t-45 20.5t-51 10.5
t-37.5 3q-11 0 -37 0.5t-55 0.5t-55.5 0.5t-36.5 0.5zM320 616q-6 -1 -23 -4.5t-34.5 -9.5t-31 -15t-13.5 -21v-77h199q13 0 36.5 2.5t46 10t39 20t16.5 33.5q0 16 -12.5 27.5t-30 19t-35.5 11t-29 3.5q-1 0 -9 0.5t-18 0.5h-21h-16h-13h-19q-10 0 -19 -0.5t-13 -0.5z" />
    <glyph glyph-name="C" unicode="C" 
d="M391 693h72q4 0 15 -1t24 -2.5t25 -3.5t17 -3q22 -4 54.5 -13t62.5 -24t51.5 -36.5t21.5 -51.5q0 -15 -10.5 -23t-24.5 -11.5t-29.5 -4t-25.5 -0.5q-30 0 -47 6t-28 15.5t-19 21t-19 22.5t-29 19.5t-49 12.5q-4 0 -13.5 0.5t-20.5 0.5h-20h-13h-17h-22q-10 0 -18 -0.5
t-9 -0.5q-6 0 -22.5 -3.5t-34.5 -10t-31.5 -16t-13.5 -20.5v-439q0 -11 13 -20t29.5 -16t32.5 -11t22 -4h138q27 0 53 13t43 33q1 1 3 4.5t3 5.5q11 30 36.5 36t55.5 6q9 0 24 -1t29 -4.5t24 -11.5t10 -22q0 -24 -15.5 -43.5t-40 -34.5t-55 -25.5t-61 -17.5t-57 -10.5
t-42.5 -3.5h-79q-33 0 -74.5 1.5t-83.5 8t-80.5 20t-64.5 36.5q-3 2 -7.5 6.5l-9.5 9.5l-9 9t-5 6q-2 3 -6 10.5t-4 9.5v459l5 10q24 40 66 62t91 32t98.5 11.5t90.5 1.5z" />
    <glyph glyph-name="D" unicode="D" 
d="M71 5q-1 0 -8 3t-15 8t-8 9v642q0 5 6.5 10t15.5 8.5t17.5 5.5t11.5 2h362q31 0 69 -5t75.5 -16.5t71 -30t54.5 -45.5q2 -3 6 -10.5t4 -9.5v-454q0 -19 -15.5 -35.5t-40.5 -30t-55.5 -24t-59.5 -17.5t-54.5 -11t-39.5 -4h-377q-2 0 -9.5 2t-10.5 3zM218 616v-540h240
q9 0 25 4t32 11.5t28 18t12 22.5v434q0 11 -14 20.5t-32 16t-36 10t-25 3.5h-230z" />
    <glyph glyph-name="E" unicode="E" 
d="M382 693h81q17 -1 44 -4.5t57 -10t60 -17t54.5 -25t39.5 -33.5t15 -44q0 -15 -9 -23t-22 -12t-27.5 -4.5t-25.5 -0.5t-24.5 0.5t-26.5 3t-23.5 9t-14.5 18.5q-11 27 -30 40.5t-43 19.5t-50 6.5t-51 0.5h-13h-20q-10 0 -19.5 -0.5t-13.5 -0.5q-8 -1 -24.5 -5t-34 -11
t-30.5 -17t-13 -23v-73h209q7 0 15 -3t15 -8.5t12 -12.5t5 -14q0 -6 -0.5 -9.5t-5.5 -6.5l-10 -5t-11.5 -6t-10 -5t-218.5 -2v-283q0 -12 13 -22.5t30.5 -18t34 -11.5t24.5 -4h138q12 0 26.5 3.5t28 10t25 16t17.5 21.5q8 17 15.5 26.5t17.5 14t24 5.5t34 1q11 0 26.5 -0.5
t29 -4.5t23 -12.5t9.5 -23.5q0 -23 -15 -42t-38.5 -33.5t-53 -25.5t-59 -18t-56.5 -10.5t-44 -3.5h-79q-37 0 -83 1.5t-91.5 9.5t-86.5 25.5t-68 50.5q-2 1 -5 6t-6.5 11t-6 11t-2.5 7v449l10 20q21 36 63 56.5t91 30.5t97 12.5t81 2.5z" />
    <glyph glyph-name="F" unicode="F" 
d="M389 693h74q26 -2 71.5 -9t90 -22t77 -40t32.5 -62q0 -16 -9 -24.5t-22.5 -12t-28 -4t-25.5 -0.5q-20 0 -41 2.5t-38 13.5q-8 5 -10.5 14t-4.5 17q-5 12 -16.5 21t-25.5 15.5t-28.5 10t-26.5 3.5h-138q-2 0 -8 -1t-13 -2.5t-14 -3.5t-11 -3q-25 -8 -36.5 -19t-15.5 -25.5
t-3 -33t1 -41.5h207q7 0 15.5 -3.5t15.5 -8.5t11.5 -12t4.5 -14q0 -6 -0.5 -9.5t-5.5 -6.5l-10 -5t-11.5 -6t-10 -5t-220.5 -2v-390q0 -9 -13 -14t-28.5 -7.5t-30 -3t-17.5 -0.5h-21q-10 0 -21.5 1.5t-21.5 5.5t-16.5 9.5t-6.5 14.5v535l5 15q10 25 33.5 43.5t54 31t66 20
t70.5 11.5t66.5 5t53.5 1z" />
    <glyph glyph-name="G" unicode="G" horiz-adv-x="750" 
d="M389 694h74q18 -1 45 -4.5t58 -10.5t61.5 -17.5t55.5 -25.5t40.5 -35t15.5 -45q0 -14 -11 -21.5t-25.5 -10.5t-29.5 -3.5t-23 -0.5q-15 0 -35 0.5t-34 10.5q-8 5 -11.5 9.5t-6 10t-5 11.5t-8.5 14q-13 19 -41.5 30t-50.5 11h-137q-12 0 -29.5 -4.5t-33.5 -12.5
t-27.5 -20.5t-11.5 -28.5v-408q0 -17 11.5 -29t27.5 -20.5t33.5 -12.5t29.5 -4h137q12 0 29.5 4t33.5 12.5t27.5 20.5t11.5 29v273h-214q-3 0 -11 3t-15.5 8t-13.5 11t-6 13q0 8 5.5 14.5t14 11t17 6.5t14.5 2h337q5 0 13.5 -2t17 -6t14.5 -10t6 -13v-321q0 -23 -15.5 -41.5
t-40.5 -33t-55.5 -25.5t-60.5 -18.5t-56 -11t-42 -3.5h-12h-51h-21q-45 0 -91 2.5t-89.5 13t-83 31t-71.5 55.5q-4 5 -7 16.5t-3 14.5v428q0 21 16.5 38t29.5 28q26 24 64.5 37t80.5 20t83.5 8.5t74.5 1.5z" />
    <glyph glyph-name="H" unicode="H" 
d="M124 693q5 0 20 -1t31 -4t28.5 -9.5t12.5 -16.5v-173h341v178q0 9 12 14t27.5 8t29.5 3.5t18 0.5q6 0 20.5 -0.5t29.5 -3t27 -9t12 -18.5v-631q0 -9 -6.5 -14.5t-16.5 -9.5t-22 -5.5t-22 -1.5h-20q-3 0 -17.5 0.5t-30.5 3t-28.5 7.5t-12.5 14v388h-341v-382
q0 -11 -12 -17.5t-27 -9.5t-29.5 -3.5t-18.5 -0.5h-38q-4 0 -12.5 2t-17 5t-15 7.5t-6.5 10.5v642q0 9 11.5 14.5t26.5 8t28.5 3t17.5 0.5z" />
    <glyph glyph-name="I" unicode="I" 
d="M39 35q0 11 9 18t21.5 11t25.5 5.5t21 1.5q10 1 35.5 2t54 1.5t54 1t35.5 0.5v543h-184q-8 0 -20 2.5t-23.5 7.5t-20 12t-8.5 17q0 8 5.5 14.5t13.5 11t17 7t16 2.5h586q6 0 16 -2t19 -6t15.5 -10t6.5 -15q0 -10 -8.5 -17.5t-20.5 -13t-24 -8t-19 -2.5h-184v-543
q10 0 34.5 -0.5t52 -1t52 -1.5t34.5 -2q7 0 21 -1.5t27.5 -5.5t24 -11.5t10.5 -19.5q0 -8 -5.5 -14t-14 -10t-17.5 -6.5t-15 -2.5h-591q-15 0 -33.5 9t-18.5 26z" />
    <glyph glyph-name="J" unicode="J" 
d="M40 136q0 15 10 22.5t24 11t28.5 4t24.5 0.5q17 0 39 -2.5t37 -13.5q11 -8 11.5 -17.5t8.5 -18.5q17 -20 40.5 -33t51.5 -13h143q8 0 24.5 4.5t33 12t29 18t12.5 21.5v535q0 8 12.5 13t28.5 8t30.5 4t17.5 1q4 0 18 -0.5t29.5 -3.5t27.5 -8t12 -14v-545q0 -7 -5.5 -16
t-9.5 -14q-29 -34 -69.5 -52.5t-86 -27.5t-92 -10.5t-86.5 -1.5h-79q-18 0 -44.5 3.5t-56 10.5t-59 18t-53 26t-38 34.5t-14.5 43.5z" />
    <glyph glyph-name="K" unicode="K" 
d="M129 693q4 0 18 -1t29.5 -4t27.5 -8t12 -13v-178h206q9 0 31 3.5t45 10.5t41 17.5t18 24.5v122q0 9 13 14t29.5 7.5t31 3.5t18.5 1t17.5 -0.5t28.5 -3.5t26.5 -8t11.5 -14v-137q0 -14 -11 -26t-26 -22t-30.5 -17.5t-24.5 -11.5v-5q9 -5 24.5 -13.5t30.5 -19.5t26 -23.5
t11 -24.5v-342q0 -9 -12 -14.5t-27.5 -7.5t-29.5 -2.5t-18 -0.5q-3 0 -17.5 1t-30.5 3.5t-28.5 7.5t-12.5 13v332q0 10 -13.5 19t-31 16t-33.5 11t-21 5q-4 0 -12 1t-16 1.5t-15 1.5t-8 1q-11 0 -38 -0.5t-58 -0.5q-30 0 -57.5 -0.5t-37.5 -0.5v-386q0 -8 -12.5 -13
t-28.5 -7.5t-30.5 -3.5t-17.5 -1q-4 0 -18 0.5t-29.5 3t-27.5 7.5t-12 14v642q0 9 12.5 14t28 8t30 3.5t18.5 0.5z" />
    <glyph glyph-name="L" unicode="L" 
d="M129 693q4 0 18 -1t29.5 -4t27.5 -8t12 -13v-529q0 -13 13 -24.5t30.5 -20.5t35 -14t25.5 -5h336q8 0 21 -2t26 -7t22 -12.5t9 -17.5q0 -9 -5.5 -15.5t-13.5 -11t-17 -6.5t-16 -2h-372q-14 0 -39 3t-55 10t-61.5 17t-57 24.5t-41.5 32.5t-16 40v535q0 12 12 18.5t27 9
t29.5 3t20.5 0.5z" />
    <glyph glyph-name="M" unicode="M" horiz-adv-x="1270" 
d="M389 694q48 0 92 -2.5t89 -13.5q3 0 13.5 -3t22.5 -6.5t22.5 -6.5t13.5 -4q6 -1 7 -1q2 0 5 0.5t36 8.5t92 18t128 10q44 0 90.5 -2.5t91 -13t85 -30.5t72.5 -56q4 -5 7 -16.5t3 -14.5v-530q0 -12 -12 -18.5t-27 -9t-29.5 -3t-20.5 -0.5q-4 0 -18 0.5t-29.5 3t-27.5 7.5
t-12 14v526q0 16 -12 28t-29 20.5t-34.5 13t-29.5 4.5h-137q-7 0 -23.5 -4.5t-33.5 -11.5t-30 -16t-13 -19v-530q0 -14 -11.5 -21t-27 -10.5t-31 -4t-22.5 -0.5t-22 0.5t-30.5 4t-27 10.5t-11.5 21v530q0 10 -13.5 19t-31 16t-33.5 11.5t-22 4.5h-138q-12 0 -29.5 -4.5
t-34 -13t-28.5 -20.5t-12 -28v-531q0 -3 -7.5 -6.5t-17 -6.5t-18.5 -5t-11 -2h-33q-6 0 -20.5 0.5t-29.5 3t-27 9t-12 18.5v530q0 22 16 38t30 28q26 24 64.5 37t80.5 20t83.5 8.5t74.5 1.5z" />
    <glyph glyph-name="N" unicode="N" 
d="M387 693h76q15 0 40.5 -3.5t55.5 -11t61 -18t56 -24.5t41 -31.5t16 -38.5v-535q0 -9 -6.5 -14.5t-16.5 -9.5t-22 -5.5t-22 -1.5h-20q-3 0 -17.5 0.5t-30.5 3t-28.5 7.5t-12.5 14v530q0 14 -13 25t-30 18.5t-34.5 12t-26.5 5.5q-4 0 -13.5 0.5t-20.5 0.5h-20h-13h-17h-22
q-10 0 -18 -0.5t-9 -0.5q-6 0 -23 -4t-35 -10.5t-32 -16t-14 -19.5v-535q0 -12 -12 -18.5t-27.5 -9t-30 -3t-19.5 -0.5q-4 0 -18 0.5t-29.5 2.5t-27.5 7.5t-12 14.5v551q0 2 4 9.5t6 10.5q28 36 68.5 55.5t86.5 28.5t93.5 11t88.5 2z" />
    <glyph glyph-name="O" unicode="O" 
d="M391 693q33 0 81.5 -2.5t97 -12.5t90.5 -30.5t63 -56.5l6 -12t4 -457q0 -2 -2.5 -7t-6 -11t-7 -11t-4.5 -6q-27 -33 -68 -50.5t-86.5 -25.5t-91.5 -9.5t-83 -1.5q-41 0 -86.5 2t-89.5 11t-84 27.5t-69 51.5q-1 1 -4.5 7t-5.5 8l-3 6t-2 463l5 10q24 40 66 62t91 32
t99 11.5t90 1.5zM386 617h-17h-22q-10 0 -18 -0.5t-9 -0.5q-6 0 -22.5 -3.5t-34.5 -10t-31.5 -16t-13.5 -20.5v-439q0 -11 13 -20t29.5 -15.5t32.5 -10.5t22 -5h69h69q9 0 26.5 4.5t34 12t29 17.5t12.5 22v428q0 13 -13 23t-30.5 17t-34.5 11t-24 5q-4 0 -13.5 0.5
t-20.5 0.5h-20h-13z" />
    <glyph glyph-name="P" unicode="P" 
d="M386 694h20q13 0 25 -0.5t21 -0.5h11q19 -1 46.5 -4.5t57.5 -10t59.5 -17t53.5 -26t38.5 -36t14.5 -47.5q0 -29 -19.5 -50.5t-47 -36.5t-58.5 -24t-53 -13q-7 -2 -19 -4t-23 -4t-20 -3.5t-10 -1.5h-267v-390q0 -8 -12.5 -13t-28.5 -7.5t-30.5 -3.5t-17.5 -1q-4 0 -18 0.5
t-29.5 3t-27.5 7.5t-12 14v546q0 24 23 43t54 33.5t63 23.5t49 12q38 6 61.5 8.5t51.5 2.5h44zM555 553q0 15 -11.5 27t-28 20t-33.5 12t-29 4h-133q-8 0 -24.5 -4t-34 -11.5t-30.5 -18t-13 -22.5v-71h209q13 0 34.5 3t42.5 10.5t36 20t15 30.5z" />
    <glyph glyph-name="Q" unicode="Q" 
d="M297 0q-5 1 -18.5 3t-28.5 4.5t-28.5 4.5t-18.5 3q-14 3 -41 12.5t-54 23.5t-47.5 32t-20.5 39v449l10 20q21 36 63 56t91 30.5t97 13t81 2.5t75.5 -1.5t85.5 -7.5t82.5 -19.5t66.5 -37.5l31 -31q2 -3 6 -10.5t4 -9.5v-459q0 -22 -24 -40.5t-56 -32t-63 -22.5t-46 -12
q-4 -1 -13.5 -2.5t-20.5 -3t-20.5 -3t-13.5 -1.5v-81q0 -2 -6 -5.5t-13.5 -6.5t-14.5 -5.5t-10 -2.5t-10 -1t-14.5 -1.5t-13.5 -1.5t-8 -1t-7.5 1t-13 1.5t-14.5 1.5t-10 1l-10.5 3.5t-15 6t-13 7.5t-5.5 9v75zM320 616q-8 -1 -24.5 -5t-34 -11t-30.5 -17t-13 -23v-428
q0 -12 13 -22.5t30.5 -18t34 -11.5t24.5 -4h138q6 0 22 4t32.5 11t29.5 16t13 20v439q0 11 -13.5 20.5t-31.5 16t-34.5 10t-22.5 3.5q-1 0 -9 0.5t-19 0.5h-21h-18h-13h-20q-10 0 -19.5 -0.5t-13.5 -0.5z" />
    <glyph glyph-name="R" unicode="R" 
d="M389 693q21 0 54.5 -1.5t71.5 -6t77 -13.5t70.5 -24.5t51 -38.5t19.5 -55q0 -30 -10 -43.5t-24.5 -21.5t-30 -15.5t-27.5 -25.5q9 -4 24.5 -11.5t30.5 -17t26 -22t11 -25.5v-347q0 -9 -12 -14.5t-27.5 -7.5t-29.5 -2.5t-18 -0.5q-5 0 -19.5 0.5t-30 3t-27.5 9t-12 18.5
v331q0 4 -7.5 10t-17.5 11.5t-18.5 9.5t-9.5 4q-21 8 -51 11.5t-51 4.5q-11 0 -37 -0.5t-56 -0.5t-56.5 -0.5t-36.5 -0.5v-386q0 -9 -13 -14t-28.5 -7.5t-30 -3t-17.5 -0.5h-21q-10 0 -21.5 1.5t-21.5 5.5t-16.5 9.5t-6.5 14.5v535l5 15q16 39 58.5 61.5t94.5 33.5t104 14
t87 3zM555 555q0 15 -11 26.5t-26 19t-31.5 11.5t-28.5 4h-138q-5 0 -13 -2l-16 -4t-15.5 -5t-11.5 -4q-29 -12 -38.5 -30.5t-9.5 -44.5v-37h211q14 0 36 3t42.5 10.5t35 20t14.5 32.5z" />
    <glyph glyph-name="S" unicode="S" horiz-adv-x="750" 
d="M40 135q0 14 10.5 22t24.5 11.5t28.5 4.5t23.5 1q15 0 36 -0.5t35 -10.5q8 -5 11.5 -9.5t6 -10t5 -11.5t8.5 -15q13 -19 41.5 -29.5t50.5 -10.5h137q12 0 29 3.5t32 11t26 19t11 27.5q0 13 -7 24t-17 20.5t-22 17.5l-21 14l-332 209q-2 1 -11 8t-19.5 15t-20.5 16l-15 12
q-18 15 -34.5 36t-16.5 46q0 23 16 40.5t30 30.5q26 24 64.5 37t80.5 20t83.5 8.5t74.5 1.5h74q18 -1 45 -4.5t58 -10.5t61.5 -17.5t55.5 -25.5t40.5 -35t15.5 -45q0 -14 -11 -21.5t-25.5 -10.5t-29.5 -3.5t-23 -0.5q-15 0 -35 0.5t-34 10.5q-8 5 -11.5 9.5t-6 10t-5 11.5
t-8.5 14q-13 19 -41.5 30t-50.5 11h-137q-12 0 -29 -4t-32.5 -11.5t-26 -19t-10.5 -26.5q0 -13 6.5 -24t16.5 -20.5t21.5 -17.5t22.5 -14l316 -199q3 -2 14 -10t24 -18t25.5 -19.5t18.5 -14.5q17 -14 34 -35t17 -46q0 -30 -21 -52t-50.5 -37.5t-62 -25t-55.5 -13.5
q-20 -4 -35 -6t-28 -3t-26 -1h-27h-45h-21h-47h-11q-3 0 -14 1t-24 2.5t-25 3.5l-18 3q-21 4 -53 13.5t-62 25t-52 37t-22 49.5z" />
    <glyph glyph-name="T" unicode="T" 
d="M297 616q-10 0 -36.5 0.5t-56.5 1.5t-56.5 2t-36.5 2q-8 0 -20 1.5t-23.5 5t-20 10.5t-8.5 19q0 17 18.5 26t33.5 9h586q7 0 16.5 -2.5t18.5 -7t15 -11t6 -15.5q0 -11 -10 -18t-22.5 -10.5t-25.5 -5t-19 -1.5q-10 -1 -35.5 -2t-54.5 -2t-54.5 -1.5t-35.5 -0.5v-585
q0 -12 -12 -18.5t-27.5 -9t-30 -3t-20.5 -0.5q-3 0 -17.5 0.5t-30 3t-28.5 7.5t-13 14v591z" />
    <glyph glyph-name="U" unicode="U" 
d="M124 693q4 0 18.5 -1t31 -3.5t29.5 -7.5t13 -14v-540q0 -10 13.5 -19t30.5 -15.5t33.5 -11t21.5 -5.5h69q24 0 46.5 0.5t43 4.5t39.5 13.5t36 27.5q2 2 5 6t3 539q0 8 12 13t27.5 8t29.5 4t18 1t18.5 -0.5t30 -3.5t28 -8t12.5 -14v-545q0 -2 -2.5 -7t-6 -11t-7 -11
t-4.5 -6q-27 -33 -68 -50.5t-86.5 -25.5t-91.5 -9.5t-83 -1.5q-33 0 -74.5 1.5t-83.5 8t-80.5 20t-64.5 36.5q-3 2 -7.5 6.5l-9.5 9.5l-9 9t-5 6q-2 3 -6 10.5t-4 9.5v550q0 9 11.5 14t26.5 8t28.5 3.5t17.5 0.5z" />
    <glyph glyph-name="V" unicode="V" 
d="M39 657q0 14 10 21.5t23.5 10.5t28 3.5t23.5 0.5q13 0 27 -0.5t27 -3.5t23.5 -10.5t16.5 -21.5l168 -402l174 412q6 16 27.5 21t39.5 5h22q9 0 23.5 -0.5t28 -3.5t23.5 -10.5t10 -21.5q0 -2 -0.5 -5.5t-0.5 -4.5l-255 -611q-6 -14 -16.5 -21t-23 -10.5t-26.5 -4t-26 -0.5
t-25.5 0.5t-26.5 4t-23 10.5t-16 21l-255 611q0 1 -0.5 4.5t-0.5 5.5z" />
    <glyph glyph-name="W" unicode="W" horiz-adv-x="1265" 
d="M129 694q4 0 18 -1t29.5 -4t27.5 -8t12 -13v-535q0 -11 13.5 -21t31.5 -18t35 -12.5t25 -4.5h137q5 0 21.5 4.5t34 11.5t31 16t13.5 19v535q0 10 12.5 16.5t28.5 9.5t31 4t20 1q3 0 17 -1t29.5 -4t27.5 -8t12 -13v-530q0 -14 13 -25t30.5 -19t35 -12.5t26.5 -4.5h137
q6 0 22.5 4.5t33.5 11.5t30.5 16t13.5 19v535q0 10 12.5 16t29 9.5t31 4.5t19.5 1q4 0 17.5 -0.5t28.5 -3t26.5 -8t11.5 -14.5v-551q0 -2 -4 -9.5t-6 -10.5q-28 -35 -68.5 -54.5t-86 -29t-92.5 -11.5t-87 -2q-48 0 -93.5 2t-93.5 13q-2 1 -11.5 4t-21 6.5t-21 6.5t-12.5 4
h-7h-8q-67 -16 -125 -26t-127 -10q-34 0 -80.5 1.5t-94 10t-89 26t-66.5 49.5q-4 4 -12 17.5t-8 17.5v546q0 9 12.5 14t28 8t30 3.5t18.5 0.5z" />
    <glyph glyph-name="X" unicode="X" 
d="M40 33q0 6 6.5 15.5t8.5 12.5l224 270q3 3 7 9t4 6.5t-4 6.5t-7 9l-224 270q-2 3 -8.5 12.5t-6.5 15.5q0 13 11.5 19.5t26.5 9.5t29.5 3.5t21.5 0.5q13 0 35 -0.5t34 -9.5q2 -2 7 -6.5t11 -10t11 -11t7 -8.5q3 -4 13 -16t23.5 -28t29 -34.5t29 -34.5t24 -28.5t13.5 -16.5
q2 -3 10 -10.5t10 -9.5q1 0 1.5 -0.5t1.5 -0.5t1.5 0.5t1.5 0.5l15 15q9 10 31.5 37l47.5 57l47.5 57t31.5 38q17 15 39.5 17.5t44.5 2.5q9 0 23.5 -0.5t28 -3.5t23.5 -10.5t10 -21.5q0 -2 -0.5 -5.5t-0.5 -4.5l-240 -290q-1 -2 -3 -5.5t-2 -5.5q0 -1 2 -4.5t3 -5.5
l240 -290q0 -1 1 -5.5t1 -6.5q0 -20 -21 -27t-42 -7h-23h-20q-18 0 -36.5 4t-27.5 16q-9 11 -31.5 38l-47.5 57t-47.5 56.5t-31.5 37.5l-15 15q-1 0 -1.5 0.5t-1.5 0.5t-1.5 -0.5t-1.5 -0.5q-2 -2 -10 -9.5t-10 -10.5q-3 -4 -13.5 -16.5t-24 -28.5t-29 -34.5t-29 -34.5
t-23.5 -28t-13 -16q-14 -16 -25 -25t-23 -13.5t-26 -6t-33 -1.5h-23q-10 0 -21 1.5t-20.5 5t-16 10t-6.5 16.5z" />
    <glyph glyph-name="Y" unicode="Y" 
d="M124 693q5 0 20 -1t31 -4t28.5 -9.5t12.5 -16.5v-117q5 -8 7 -10q15 -17 34 -26t40 -13.5t43.5 -5.5t43.5 -1q22 0 45 1t44.5 6t41 15t34.5 29q2 2 5 8t3 7v112q0 9 12 14t27.5 8t29.5 3.5t18 0.5q6 0 20.5 -0.5t29.5 -3t27 -9t12 -18.5v-117q0 -28 -26.5 -50.5
t-63.5 -37.5t-76.5 -25t-64 -14.5t-26.5 -4.5v-382q0 -11 -13 -17t-29 -9t-31 -4t-19 -1t-18 0.5t-29.5 3t-27.5 7.5t-12 14v388q-13 4 -18 5q-30 6 -63.5 12t-65 16.5t-59 27.5t-46.5 46q-1 2 -3 5.5t-2 4.5v137q0 9 11.5 14.5t26.5 8t28.5 3t17.5 0.5z" />
    <glyph glyph-name="Z" unicode="Z" 
d="M39 36q0 2 0.5 5.5t0.5 4.5l474 573h-403q-8 0 -20 2t-23.5 6.5t-20 12t-8.5 18.5q0 17 18.5 26t33.5 9h586q7 0 16.5 -2.5t18.5 -7t15 -11t6 -15.5q0 -7 -2 -9.5t-8 -10.5l-469 -563h397q7 0 20.5 -2t27.5 -7t24.5 -12.5t10.5 -19.5q0 -8 -5.5 -14t-14 -10t-17.5 -6.5
t-15 -2.5h-591q-16 0 -34 9.5t-18 26.5z" />
    <glyph glyph-name="bracketleft" unicode="[" horiz-adv-x="750" 
d="M739 658q0 -11 -10 -18t-23 -11.5t-26 -6.5t-18 -2h-443v-546h438q1 0 8 -1.5t16 -4t18 -4.5t14 -3q8 -2 17 -9.5t9 -15.5q0 -9 -6 -16t-15 -11.5t-18.5 -6.5t-16.5 -2h-587q-5 0 -14.5 2t-18.5 6t-16 9.5t-7 13.5v632q0 7 7 13t16 10t18.5 6t14.5 2h587q7 0 16.5 -2.5
t18.5 -7t15 -11t6 -15.5z" />
    <glyph glyph-name="backslash" unicode="\" 
d="M40 657q0 14 11 21.5t25.5 10.5t29.5 3.5t23 0.5q33 0 55 -7.5t45 -33.5l504 -606q0 -1 0.5 -4.5t0.5 -5.5q0 -11 -6 -18t-15 -11t-20.5 -5.5t-22.5 -1.5h-24q-23 0 -46 2.5t-40 22.5l-510 612q-6 8 -8 10.5t-2 9.5z" />
    <glyph glyph-name="bracketright" unicode="]" 
d="M39 33q0 13 9 21t21 12.5t25 6t22 1.5h439v545h-444q-8 0 -20 2t-23.5 6.5t-20 12t-8.5 18.5q0 17 18.5 26t33.5 9h586q5 0 14.5 -2t18.5 -6t16 -10t7 -13v-631q0 -8 -6 -13.5t-14.5 -9.5t-17 -6t-13.5 -2h-591q-7 0 -16 2t-17 6t-13.5 10.5t-5.5 14.5z" />
    <glyph glyph-name="asciicircum" unicode="^" 
d="M39 451q0 11 5 15.5t16 12.5l250 199q16 13 35.5 14.5t38.5 1.5t40.5 -1.5t38.5 -14.5l250 -199q11 -8 16 -12.5t5 -15.5q0 -12 -15 -22.5t-27 -10.5h-92q-9 0 -21.5 7.5t-18.5 12.5q-10 8 -34.5 27.5t-52.5 41.5t-52.5 41.5t-34.5 27.5q-9 -8 -33.5 -27.5t-52.5 -41.5
t-52.5 -41.5t-34.5 -27.5q-21 -17 -42 -18.5t-47 -1.5h-43q-12 3 -27 10.5t-15 22.5z" />
    <glyph glyph-name="underscore" unicode="_" 
d="M39 -68q0 8 5.5 14t14 10.5t17.5 6.5t15 2h591q7 0 16 -2t17 -6.5t13.5 -11t5.5 -15.5q0 -12 -11 -19.5t-25.5 -11t-29.5 -4.5t-22 -1h-519q-7 0 -21.5 1t-29.5 5t-26 11.5t-11 20.5z" />
    <glyph glyph-name="grave" unicode="`" horiz-adv-x="224" 
d="M124 693q6 0 20.5 -0.5t29.5 -3t27 -9t12 -18.5v-111q0 -12 -12 -18.5t-27 -9t-29.5 -3t-20.5 -0.5q-4 0 -17.5 0.5t-28.5 3t-26.5 7.5t-11.5 14v122q0 9 11.5 14.5t26.5 8t28.5 3t17.5 0.5z" />
    <glyph glyph-name="a" unicode="a" 
d="M40 138q0 27 17 47.5t41.5 35.5t52 24.5t47.5 14.5q8 2 23.5 5l31 6t27.5 5t15 2h260v79q0 18 -22.5 29t-51 17t-55.5 8t-37 2q-35 0 -74.5 -4.5t-70.5 -26.5q-3 -2 -11 -10l-10 -10q-1 -2 -4.5 -13t-5.5 -13q-5 -9 -15.5 -14.5t-22.5 -8t-24.5 -3t-21.5 -0.5
q-10 0 -25 0.5t-29.5 4.5t-24.5 11.5t-10 22.5q0 29 21.5 50.5t51.5 36.5t62.5 24.5t53.5 13.5q6 1 17 3t22.5 3.5t20.5 2.5t11 1h10q10 0 23 0.5t26 0.5h22q43 0 90.5 -1.5t93 -11t87 -29.5t71.5 -56q2 -3 6 -10.5t4 -9.5v-250q0 -2 -4 -9.5t-6 -10.5q-28 -35 -68.5 -54.5
t-86 -29t-92.5 -11.5t-87 -2q-46 0 -92.5 2.5t-90 12.5t-83.5 30.5t-73 56.5q-6 7 -8 17t-2 19zM218 138q0 -15 12 -26.5t28.5 -19.5t33.5 -12t28 -4h138q7 0 23.5 4t32.5 11t28.5 16t12.5 20v79q-11 0 -39.5 -0.5t-60.5 -0.5q-31 0 -59.5 -0.5t-39.5 -0.5q-12 0 -35.5 -3.5
t-46 -11t-39.5 -20t-17 -31.5z" />
    <glyph glyph-name="b" unicode="b" horiz-adv-x="750" 
d="M129 694q7 0 22.5 -0.5t31 -4t27 -11t11.5 -20.5v-168q14 0 50 -1t76.5 -1.5t76.5 -1.5t50 -1q72 -3 139 -25.5t116 -76.5q4 -5 7 -16.5t3 -14.5v-219q0 -11 -5.5 -22t-13 -20t-16.5 -17t-16 -13q-32 -22 -68 -34.5t-74.5 -18.5t-77 -7t-74.5 -1h-22h-51h-11
q-17 1 -43.5 4.5t-56.5 10.5t-60.5 17.5t-54.5 26t-39.5 35t-15.5 44.5v520q0 14 11 21.5t25.5 10.5t29.5 3.5t23 0.5zM224 415v-287q0 -11 12.5 -20.5t28.5 -16t32 -10.5t24 -4h137q12 0 29.5 4t33.5 12.5t27.5 20.5t11.5 29v199q0 22 -18.5 36t-43.5 21.5t-51 10.5t-40 3
q-8 0 -25 0.5t-38 0.5t-43.5 0.5t-40.5 0.5h-36z" />
    <glyph glyph-name="c" unicode="c" 
d="M392 485h21q14 0 27 -0.5t22 -0.5h11q2 0 11 -1t20.5 -2.5t22.5 -3.5t17 -3q21 -4 53.5 -13.5t62.5 -24.5t51.5 -36.5t21.5 -50.5q0 -15 -10.5 -22.5t-24.5 -11.5t-29.5 -4.5t-24.5 -0.5t-21.5 0.5t-24.5 3t-22.5 8t-15.5 14.5q-2 2 -5.5 13t-5.5 13q-12 18 -32.5 28.5
t-43.5 15.5t-46.5 6t-42.5 1q-10 0 -37 -2t-55.5 -8t-51 -17t-22.5 -29v-230q0 -11 13 -20t29.5 -16t32.5 -11t22 -4h138q1 0 7 1.5t13.5 3t14.5 3.5t11 3q21 7 31.5 16t17.5 19t12 19t14.5 16.5t26 12t46.5 4.5q9 0 24 -0.5t28.5 -4.5t23.5 -11.5t10 -22.5
q0 -24 -15.5 -43.5t-40 -34.5t-55.5 -26t-61 -17.5t-56 -10t-42 -3.5h-79q-33 0 -74.5 1.5t-83.5 8t-80.5 20t-64.5 36.5q-3 2 -7.5 6.5l-9.5 9.5l-9 9t-5 6q-2 3 -6 10.5t-4 9.5v250q0 2 4 9.5t6 10.5q29 37 70.5 57t88 29t94 10.5t89.5 1.5z" />
    <glyph glyph-name="d" unicode="d" 
d="M557 489v178q0 8 12 13t27.5 8t29.5 4t18 1t18.5 -0.5t30 -3.5t28 -8t12.5 -14v-545q0 -2 -2.5 -7t-6 -11t-7 -11t-4.5 -6q-27 -33 -68 -50.5t-86.5 -25.5t-91.5 -9.5t-83 -1.5q-33 0 -74.5 1.5t-83.5 8t-80.5 20t-64.5 36.5q-3 2 -7.5 6.5l-9.5 9.5l-9 9t-5 6
q-2 3 -6 10.5t-4 9.5v250q0 2 4 9.5t6 10.5q21 26 50.5 44t63.5 29.5t69 17t67 6.5q9 0 29.5 0.5t45.5 1t53.5 1t53.5 1t45 1t30 0.5zM555 415q-64 0 -121.5 0.5t-118.5 -7.5q-7 -1 -23 -4.5t-32.5 -9.5t-29 -15.5t-12.5 -21.5v-230q0 -11 13 -20t29.5 -15.5t32.5 -10.5
t22 -5h69h69q9 0 26.5 4.5t34 12t29 17.5t12.5 22v283z" />
    <glyph glyph-name="e" unicode="e" 
d="M386 484h87q28 -1 72 -8.5t86 -24t72 -42.5t30 -63q0 -31 -20 -53t-48.5 -37t-60 -23.5t-55.5 -13.5q-7 -2 -18.5 -4t-22.5 -4t-20 -3.5t-10 -1.5h-260v-74q0 -12 12 -22.5t28 -18t32 -11.5t25 -4h143q20 0 46 10t40 26q1 1 5 8.5t6 11.5q12 29 37 35.5t54 6.5
q10 0 24.5 -0.5t28.5 -4t24 -11t10 -22.5q0 -24 -14.5 -43.5t-38 -34.5t-52.5 -26t-58.5 -18t-56.5 -10.5t-45 -3.5h-82q-40 0 -85.5 1.5t-90.5 10.5t-85.5 27.5t-69.5 52.5q-4 5 -9.5 14t-5.5 16v240q0 7 5.5 16t9.5 14q30 34 70 52.5t84.5 27.5t90 10.5t86.5 1.5zM384 413
q-11 0 -38 -2t-55.5 -8.5t-50.5 -18.5t-22 -32v-74q11 0 38.5 0.5t58.5 0.5t58.5 0.5t38.5 0.5q12 0 36 3t47.5 10.5t41.5 20t18 32.5q0 23 -22 36.5t-51 20t-57.5 8.5t-40.5 2z" />
    <glyph glyph-name="f" unicode="f" 
d="M382 693h81q26 -1 71.5 -8.5t90 -23t77 -40.5t32.5 -61q0 -15 -9 -23.5t-22.5 -12.5t-28 -4.5t-25.5 -0.5t-24.5 0.5t-26.5 3t-23.5 9t-14.5 18.5q-11 27 -30 40.5t-42.5 19.5t-50 6.5t-51.5 0.5h-13h-20q-10 0 -19.5 -0.5t-13.5 -0.5q-8 -1 -24.5 -5t-34 -11t-30.5 -17
t-13 -23v-73h209q7 0 15 -3t15 -8.5t12 -12.5t5 -14q0 -6 -0.5 -9.5t-5.5 -6.5l-10 -5t-11.5 -6t-10 -5t-220.5 -2v-390q0 -8 -12.5 -13t-28.5 -7.5t-30.5 -3.5t-17.5 -1q-4 0 -18 0.5t-29.5 3t-27.5 7.5t-12 14v546l10 20q21 36 63 56.5t91 30.5t97 12.5t81 2.5z" />
    <glyph glyph-name="g" unicode="g" 
d="M40 -73q0 15 10 23t24 11.5t28.5 4t24.5 0.5h22q20 0 36.5 -5.5t27.5 -20.5q2 -2 8 -15.5t8 -15.5q18 -27 52.5 -34t67.5 -7h40h64q6 2 23 5.5t23 5.5q6 1 15.5 4.5t18.5 9t15.5 12t6.5 14.5v77q-14 0 -49 0.5t-73.5 1.5t-73.5 1.5t-49 0.5q-15 0 -40.5 3.5t-55.5 10.5
t-61 17.5t-56 24.5t-41 32t-16 39v230q0 25 23 45.5t54 35.5t62.5 24t49.5 12q6 1 17 3t22.5 3.5t20.5 2.5t11 1h81q43 0 90.5 -1.5t93 -10.5t87 -29t71.5 -56q2 -3 6 -10.5t4 -9.5v-458q0 -2 -4 -9.5t-6 -10.5q-29 -35 -70.5 -55t-87 -29.5t-92.5 -11.5t-88 -2
q-44 0 -90.5 3t-90.5 13.5t-83.5 31t-70.5 55.5q-5 6 -7.5 15.5t-2.5 17.5zM386 413q-13 0 -40.5 -2t-56 -9t-50 -20.5t-21.5 -35.5v-209q0 -15 12 -26t28.5 -19t33.5 -12t28 -4h235v281q0 18 -22.5 29t-52 17t-57 8t-37.5 2z" />
    <glyph glyph-name="h" unicode="h" horiz-adv-x="750" 
d="M129 694q4 0 18 -0.5t29.5 -3.5t27.5 -8t12 -14v-178q15 0 51.5 -1t77.5 -1.5t77.5 -1.5t51.5 -1q72 -3 139 -25.5t116 -76.5q4 -5 7 -16.5t3 -14.5v-321q0 -12 -12 -18.5t-27 -9t-29.5 -3t-20.5 -0.5h-34q-2 0 -10.5 2t-18 5t-17 6.5t-7.5 6.5v322q0 22 -19.5 36
t-45 21.5t-52 10.5t-39.5 3h-38q-19 0 -42.5 -0.5t-45.5 -0.5q-21 0 -39 -0.5t-26 -0.5v-391q0 -3 -7.5 -6.5t-17 -6.5t-18.5 -5t-11 -2h-33q-6 0 -20.5 0.5t-29.5 3t-27 9t-12 18.5v632q0 12 12 18.5t27 9t29.5 3t20.5 0.5z" />
    <glyph glyph-name="i" unicode="i" horiz-adv-x="224" 
d="M124 484h20q10 0 22.5 -1.5t22.5 -5.5t17 -9.5t7 -14.5v-422q0 -9 -6.5 -14.5t-16.5 -9.5t-22 -5.5t-22 -1.5h-20q-3 0 -17 0.5t-29.5 2.5t-27.5 7.5t-12 14.5v438q0 3 6.5 6.5t15 6.5t15.5 5t9 2h4q5 0 11 0.5t12 0.5h11zM39 656q0 14 10 21.5t23.5 10.5t28 3.5
t23.5 0.5q8 0 23 -0.5t29.5 -3.5t25.5 -10.5t11 -21.5q0 -12 -11.5 -19.5t-26.5 -11t-30 -4.5t-21 -1q-8 0 -22.5 1t-28.5 4.5t-24 10.5t-10 20z" />
    <glyph glyph-name="j" unicode="j" 
d="M39 -74q0 16 9.5 24t23.5 11.5t29 4t26 0.5q40 0 54.5 -3.5t19 -11t8 -19.5t20.5 -28q17 -17 43 -25t48 -11h64h64q10 0 28 4.5t36 12.5t31.5 19.5t13.5 25.5v528q0 9 11.5 14t26.5 8t28.5 3.5t17.5 0.5h41q3 0 11.5 -2.5t17.5 -6t15.5 -8.5t6.5 -9v-539l-5 -15
q-10 -26 -33 -44.5t-53.5 -31t-66 -20t-70 -11.5t-65.5 -5t-52 -1h-19q-12 0 -23.5 0.5t-20.5 0.5h-10q-17 1 -43.5 4.5t-57.5 10t-62 16.5t-56 24.5t-41 34t-16 44.5zM559 658q0 13 10 20.5t23.5 10.5t28 3.5t23.5 0.5q8 0 23 -0.5t30 -3.5t26 -10t11 -20t-11 -20.5
t-25.5 -11.5t-29.5 -5t-22 -1q-9 0 -23.5 1t-28.5 5t-24.5 11.5t-10.5 19.5z" />
    <glyph glyph-name="k" unicode="k" 
d="M124 693q4 0 18.5 -1t31 -3.5t29.5 -7.5t13 -14v-176q8 0 26.5 -0.5t41.5 -0.5q24 0 48.5 -0.5t44.5 -0.5h40q16 0 35 2t37 7.5t33.5 14t26.5 22.5q4 5 5.5 11l3 12t4.5 11.5t12 9.5q17 8 39 10t33 2q12 0 27 -1.5t28.5 -6t22.5 -13t9 -23.5q0 -18 -9 -33t-22.5 -26
t-29.5 -20t-31 -15v-5q10 -5 26 -13.5t30.5 -20t25 -24.5t10.5 -28v-337q0 -9 -12 -14t-27.5 -7.5t-29.5 -3t-18 -0.5q-3 0 -17.5 1t-30.5 3.5t-28.5 7.5t-12.5 13v327q0 12 -12.5 22t-29 17t-33 11.5t-24.5 5.5q-5 0 -13.5 1t-17.5 1.5t-16 1.5t-9 1q-11 0 -37 -0.5
t-56 -0.5t-56.5 -0.5t-36.5 -0.5v-386q0 -8 -12.5 -13t-28.5 -7.5t-30.5 -3.5t-17.5 -1q-4 0 -18 0.5t-29.5 3t-27.5 7.5t-12 14v642q0 9 11.5 14t26.5 8t28.5 3.5t17.5 0.5z" />
    <glyph glyph-name="l" unicode="l" horiz-adv-x="224" 
d="M126 692q4 0 18 -0.5t29.5 -3.5t27.5 -8t12 -14v-641q0 -9 -12 -14t-27.5 -7.5t-29.5 -3t-18 -0.5q-3 0 -17 0.5t-29.5 3t-27.5 7.5t-12 14v641q0 9 12 14t27.5 8t29.5 3.5t17 0.5z" />
    <glyph glyph-name="m" unicode="m" horiz-adv-x="1265" 
d="M381 485q37 0 69 -2t63 -6t62.5 -11t66.5 -17h5h5q34 8 64.5 14.5t61.5 11.5t62.5 7.5t66.5 2.5t76.5 -1t83 -7t79.5 -20t67 -39q5 -5 17 -16.5t14 -13.5q2 -3 6 -11t4 -10v-341q0 -10 -12 -15t-27.5 -7.5t-29.5 -3t-18 -0.5q-5 0 -19.5 0.5t-30 3t-27.5 9t-12 18.5v326
q0 11 -11.5 19.5t-28.5 15t-38 10.5t-40 6.5t-33.5 3.5t-19.5 1q-45 0 -88.5 -8.5t-74.5 -42.5q-2 -2 -5 -6t-3 -330q0 -9 -12.5 -14.5t-28.5 -8t-30.5 -3t-17.5 -0.5t-17.5 1t-30.5 4t-28.5 8t-12.5 13v331q0 17 -24 28t-54.5 17t-58 8.5t-34.5 2.5q-48 0 -89.5 -8.5
t-73.5 -42.5q-2 -2 -5 -5.5t-3 -4.5v-326q0 -8 -12.5 -13t-28.5 -8t-30.5 -4t-17.5 -1q-4 0 -18 0.5t-29.5 3t-27.5 8t-12 14.5v336q0 24 23.5 43.5t54.5 34t62.5 23t48.5 11.5q6 1 17 3t22.5 3.5t20.5 3t11 1.5h81z" />
    <glyph glyph-name="n" unicode="n" 
d="M389 484q42 0 88.5 -2t91.5 -11t85 -28.5t69 -55.5q2 -3 6 -10.5t4 -9.5v-347q0 -4 -7.5 -7.5t-16.5 -6.5t-17.5 -4.5t-9.5 -1.5h-33q-5 0 -19.5 1t-31 4t-29 9t-12.5 17v326q0 17 -23 28t-52 17t-56.5 8.5t-36.5 2.5q-12 0 -40.5 -2.5t-58 -9.5t-52 -20t-22.5 -35v-321
q0 -9 -13 -14t-28.5 -7.5t-30 -3t-17.5 -0.5h-21q-10 0 -21.5 1.5t-21.5 5.5t-16.5 9.5t-6.5 14.5v326q0 21 15.5 38.5t40.5 31.5t55.5 25t60 18t54.5 10.5t39 3.5h84z" />
    <glyph glyph-name="o" unicode="o" 
d="M384 484h84q15 0 41 -3.5t55.5 -10.5t59.5 -17.5t54 -25.5t39.5 -33.5t15.5 -41.5v-220q0 -11 -5.5 -21.5t-13 -20t-16.5 -17t-16 -12.5q-31 -22 -67 -34.5t-74.5 -18.5t-77 -7t-74.5 -1q-33 0 -75.5 1.5t-85 7.5t-81.5 19.5t-66 37.5q-3 2 -7.5 6.5l-9.5 9.5l-9 9t-5 6
q-2 3 -6 10.5t-4 9.5v255q0 1 4 7t6 8q31 35 70.5 54.5t83.5 29t90 11.5t90 2zM384 413q-10 0 -37 -2t-55.5 -8t-51 -17t-22.5 -29v-230q0 -11 12.5 -20t28.5 -16t32 -11t24 -4h138q10 0 27.5 4t34 12t28.5 19.5t12 26.5v203q0 25 -21 39t-49.5 21.5t-57 9.5t-43.5 2z" />
    <glyph glyph-name="p" unicode="p" 
d="M392 484h81q2 0 11 -1t20.5 -2.5t22.5 -3.5t17 -3q18 -3 50 -12t62.5 -24t53.5 -35.5t23 -45.5v-230q0 -23 -16.5 -41t-42 -32t-57 -24t-61.5 -17t-55 -10t-38 -3q-14 0 -49 -0.5t-74.5 -1.5t-74.5 -1.5t-49 -0.5v-173q0 -10 -12 -16t-27.5 -9.5t-30 -4.5t-19.5 -1
t-19 0.5t-29 3t-27 7.5t-12 14v550q0 2 4 9.5t6 10.5q29 36 70.5 56t88 29t94 10.5t89.5 1.5zM384 413q-10 0 -37 -2t-55.5 -8t-51 -17t-22.5 -29v-281h235q10 0 27.5 4t34 12t28.5 19t12 26v209q0 23 -22 36.5t-51 20t-57.5 8.5t-40.5 2z" />
    <glyph glyph-name="q" unicode="q" 
d="M557 -4q-14 0 -50 0.5t-76 1.5t-76 1.5t-50 0.5q-32 1 -67 6.5t-68.5 16t-63 27.5t-51.5 42q-1 1 -4.5 6.5t-5.5 8.5l-5 10v250q0 2 4 9.5t6 10.5q28 36 68.5 55.5t86.5 29t93 11t88 1.5t87 -1.5t91 -10.5t85 -27.5t69 -52.5q4 -5 9.5 -14t5.5 -16v-545q0 -8 -12.5 -13
t-28 -7.5t-29.5 -3.5t-17 -1t-17 1t-30 4t-29 7.5t-13 12.5v179zM384 413q-8 0 -35 -2.5t-56 -8.5t-52 -17t-23 -28v-225q0 -13 11.5 -23.5t27.5 -17.5t32.5 -11t25.5 -4h240v275q0 5 -6 11q-15 18 -34.5 28t-41 15.5t-44.5 6.5t-45 1z" />
    <glyph glyph-name="r" unicode="r" 
d="M733 452q0 -5 -0.5 -10.5t-4.5 -8.5q-3 -2 -8.5 -5t-11.5 -6t-10.5 -5t-5.5 -2h-326q-2 0 -12 -1.5t-22 -4t-24 -4.5l-18 -3q-7 -1 -19.5 -5t-24.5 -10.5t-21 -15.5t-9 -19v-327q0 -8 -12.5 -13t-28.5 -7.5t-30.5 -3.5t-17.5 -1q-4 0 -18 0.5t-29.5 3t-27.5 7.5t-12 14
v337q0 19 15.5 35.5t39.5 30t53.5 24t58.5 17.5t54 11t39 4h387q6 0 13.5 -2.5t15 -6.5t12.5 -10t5 -13z" />
    <glyph glyph-name="s" unicode="s" 
d="M40 135q0 15 10 22.5t23.5 11.5t28.5 4.5t24 0.5q29 0 46 -4.5t26.5 -12t15 -17t12 -19t17.5 -18.5t31 -16q4 -1 11 -3t14.5 -3.5t13 -3t7.5 -1.5h138q11 0 27.5 4t32 11.5t26.5 19t11 25.5q0 10 -9.5 17.5t-21.5 12.5t-24 8t-17 4l-295 67q-19 4 -44.5 11.5t-48.5 20
t-39 30.5t-16 43q0 35 31.5 60t74.5 41t86.5 24t67.5 9h10q10 0 23 0.5t26 0.5h22h23q15 0 30 -0.5t26 -0.5h13q17 -1 43 -4.5t55 -10.5t58 -17.5t52.5 -25t38 -33.5t14.5 -42q0 -15 -9 -23t-22.5 -12t-28 -5t-25.5 -1q-10 0 -24 0.5t-27 3.5t-23.5 9t-14.5 18
q-11 26 -30 40.5t-42.5 21.5t-50 8.5t-51.5 1.5q-12 0 -39.5 -2t-56 -9t-50.5 -19.5t-22 -33.5q0 -12 11.5 -18.5t19.5 -9.5q3 -1 9.5 -3t13.5 -4.5t13.5 -4.5t9.5 -3q10 -2 31.5 -6.5t49 -11t57 -13t57 -13t49 -11t31.5 -6.5q19 -5 46.5 -12.5t53.5 -20t44.5 -31
t18.5 -45.5q0 -25 -14.5 -44.5t-37.5 -34t-52.5 -25.5t-58.5 -17.5t-56 -10t-46 -4.5h-79h-79q-16 0 -42 3.5t-56 10t-60.5 17.5t-55.5 26t-40.5 34.5t-15.5 43.5z" />
    <glyph glyph-name="t" unicode="t" 
d="M297 415h-211q-5 0 -12.5 3t-15 7.5t-13 10.5t-5.5 12q0 8 5.5 15t13.5 12.5t16.5 8.5t15.5 3h206v73q0 9 12.5 14.5t28 9.5t30 5.5t18.5 1.5q3 0 17 -1.5t30.5 -4.5t29.5 -7.5t13 -11.5v-79h211q15 0 30.5 -10t15.5 -26q0 -7 0.5 -11t-5.5 -7l-10 -5t-11.5 -6t-10 -5
t-220.5 -2v-390q0 -9 -13 -14t-29 -7.5t-30.5 -3t-17.5 -0.5q-5 0 -19.5 0.5t-30 3t-27.5 9t-12 18.5v384z" />
    <glyph glyph-name="u" unicode="u" horiz-adv-x="750" 
d="M129 485q5 0 20 -1t31 -4t28.5 -9.5t12.5 -16.5v-326q0 -11 13 -20t30 -16t33.5 -11t23.5 -4h137q9 0 26.5 4.5t35 13t30.5 19.5t13 24v326q0 3 6.5 6.5t15 6.5t16.5 5.5t10 2.5h39h20q10 0 22 -1t22.5 -4.5t17.5 -9.5t7 -16v-321q0 -11 -5.5 -22t-13 -20.5t-16.5 -17
t-16 -12.5q-32 -22 -68 -34.5t-74 -18.5t-77 -7t-75 -1h-22h-51h-11q-18 0 -44.5 3.5t-56.5 10.5t-60 18.5t-54.5 26.5t-39.5 35t-15 44v311q0 11 6.5 18t16 11t21 5.5t22.5 1.5h23z" />
    <glyph glyph-name="v" unicode="v" 
d="M39 448q0 11 6 18t15 11t19.5 5.5t20.5 1.5h24h23q19 0 38 -5t28 -20l172 -273l170 267q15 24 38 28t48 4q7 0 22.5 -0.5t31.5 -3.5t27.5 -10t11.5 -20q0 -2 -0.5 -4.5t-0.5 -3.5l-265 -423q-9 -13 -26.5 -16.5t-35.5 -3.5h-20q-24 0 -50 3.5t-41 27.5l-255 407
q0 1 -0.5 4.5t-0.5 5.5z" />
    <glyph glyph-name="w" unicode="w" horiz-adv-x="1265" 
d="M122 485h40q3 0 12 -2.5t18.5 -6.5t16.5 -8.5t7 -8.5v-331q0 -10 13.5 -19t30.5 -16t33.5 -11.5t21.5 -4.5q4 0 14 -0.5t21 -0.5h20h14q24 0 46.5 0.5t43.5 4.5t40 13.5t36 27.5q2 2 5 6t3 5v326q0 9 11.5 14t26.5 8t28.5 3.5t17.5 0.5h41q3 0 11.5 -2.5t18 -6.5
t16.5 -8.5t7 -8.5v-326q0 -12 12.5 -22t29 -17.5t33.5 -12t25 -4.5h142q8 0 25 4.5t33.5 12t29 17.5t12.5 22v326q0 9 12.5 14t28.5 8t30.5 3.5t17.5 0.5q4 0 18 -0.5t29.5 -3t27.5 -8t12 -14.5v-337q0 -7 -5.5 -16t-9.5 -14q-29 -34 -70 -52.5t-86.5 -27.5t-92 -10.5
t-86.5 -1.5q-48 0 -91.5 2t-89.5 13q-3 1 -13.5 4t-22.5 6.5t-22 6.5t-13 4h-8q-10 0 -23 -3.5t-26.5 -8t-26.5 -8.5t-23 -6q-42 -8 -80.5 -9t-80.5 -1q-41 0 -86.5 2t-89.5 11t-84 27.5t-69 51.5q-1 1 -4.5 7t-5.5 8l-3 6t-2 346q0 7 6.5 12t16 8t20.5 4.5t20 1.5h19z" />
    <glyph glyph-name="x" unicode="x" 
d="M39 34q0 2 0.5 4t0.5 3l25 25l209 168q2 1 3.5 3t2 2.5t0.5 2.5t-1 3q-3 4 -5 5l-209 168l-25 25q0 1 -0.5 3t-0.5 4q0 13 11.5 20.5t27 10.5t31 3.5t23.5 0.5q14 0 33.5 -0.5t32.5 -10.5l188 -148q1 0 6.5 4t9.5 6q9 8 33 26.5t51 39.5t51 40t33 27q20 13 39 14.5
t42 1.5h21q10 0 20.5 -1.5t19.5 -5.5t15 -10t6 -16q0 -5 -0.5 -10.5t-4.5 -8.5l-238 -191l238 -191q5 -5 5 -7v-9q0 -14 -10.5 -21t-24.5 -10t-28.5 -3.5t-23.5 -0.5q-22 0 -39.5 1.5t-36.5 13.5q-9 8 -33 26.5t-51 39.5t-51 40t-33 27q-2 1 -8 5t-8 5q-9 -8 -32.5 -27
t-50.5 -40t-51 -40t-34 -26q-22 -17 -43 -21t-48 -4h-23q-10 0 -21.5 1.5t-21 5.5t-16 10.5t-6.5 16.5z" />
    <glyph glyph-name="y" unicode="y" 
d="M40 -70q0 14 10.5 21.5t24.5 10.5t28.5 3.5t23.5 0.5h22q19 0 37 -5.5t27 -20.5q2 -2 5.5 -13t4.5 -13q19 -28 53.5 -37t69.5 -9h43h64q6 2 23 5.5t23 5.5q4 1 13.5 4.5t19 9t16.5 12t7 14.5v77q-14 0 -49 0.5t-73.5 1.5t-73.5 1.5t-49 0.5t-39 3t-55 10t-61.5 17
t-57 24.5t-41.5 32.5t-16 40v331q0 4 6.5 9t15.5 8.5t17.5 6t11.5 2.5h41q4 0 17.5 -0.5t28.5 -3.5t26.5 -8t11.5 -14v-321q0 -13 13 -24t30 -19.5t34.5 -13t26.5 -4.5h237v377q0 11 12.5 17.5t28.5 9.5t31 3.5t20 0.5h38q3 0 11 -2t15.5 -5.5t13.5 -8t6 -10.5v-549
q0 -6 -5 -13t-11 -14t-12 -12t-8 -7q-32 -26 -70.5 -40.5t-80 -21.5t-83.5 -8.5t-80 -1.5q-19 0 -51.5 2t-70.5 7t-77.5 14.5t-71 25t-52 37.5t-20.5 53z" />
    <glyph glyph-name="z" unicode="z" 
d="M40 33q0 8 7.5 16t12.5 12l439 354h-413q-5 0 -12.5 3t-15 8t-13 11.5t-5.5 13.5q0 8 5.5 14t14 10.5t17 6.5t14.5 2h596q17 0 32 -8.5t15 -25.5q0 -11 -1 -12.5t-10 -9.5l-438 -354h371q9 0 22.5 -1.5t25.5 -6t21 -12.5t9 -21q0 -8 -5.5 -14.5t-13.5 -10.5t-17 -6
t-16 -2h-591q-6 0 -14.5 2t-17 6.5t-14 10.5t-5.5 14z" />
    <glyph glyph-name="braceleft" unicode="{" horiz-adv-x="1005" 
d="M81 418q-14 4 -27.5 10.5t-13.5 23.5q0 7 5 13t12.5 10t15 6.5t13.5 3.5q21 1 45.5 2t50 4t49.5 9.5t44 19.5q11 7 15 16.5t6 20l4 21t10 19.5q22 27 55 45.5t70 30t75 16.5t71 5h362q6 0 14.5 -2.5t17 -6.5t14 -10.5t5.5 -13.5q0 -11 -8 -18.5t-19.5 -12.5t-23.5 -7.5
t-21 -2.5h-336q-1 0 -10 -2.5t-22 -5.5t-19 -5q-19 -5 -29.5 -12t-16.5 -15.5t-9 -19t-6 -22.5q-1 -12 -10 -25t-22 -24.5t-29 -20.5t-31 -14v-5q8 -4 24 -13.5t31.5 -21.5t27 -26t11.5 -26v-234q0 -5 5.5 -11t12.5 -11t14 -9t11 -5q6 -2 16 -5l20 -6t17.5 -5t8.5 -2h336
q9 0 22 -2t25 -7t21 -13t9 -19q0 -8 -5.5 -14t-14 -10t-17 -6.5t-14.5 -2.5h-367q-34 0 -71 5t-73 16.5t-67.5 30t-54.5 45.5q-2 3 -7 11t-5 9v235q0 12 -12.5 22t-29 17t-33.5 11.5t-25 5.5q-6 1 -23 3t-35.5 3.5t-35.5 2.5t-23 1z" />
    <glyph glyph-name="bar" unicode="|" horiz-adv-x="224" 
d="M126 -106q-2 0 -7.5 1t-13 1.5t-14.5 1.5t-10 1q-3 1 -10 3.5t-14 5.5t-12 7.5t-5 9.5v843q0 4 5 8t12 8t14 6.5t10 2.5h91q4 0 11 -2t14 -5.5t11.5 -8t4.5 -9.5v-843q0 -6 -4.5 -10.5t-11.5 -7.5t-14 -5t-11 -3q-3 0 -10 -1t-14.5 -1.5t-13.5 -1.5t-8 -1z" />
    <glyph glyph-name="braceright" unicode="}" horiz-adv-x="1005" 
d="M39 33q0 12 10.5 19.5t24.5 12.5t27.5 7t20.5 2h331q1 0 8.5 2t17.5 5t19.5 6t15.5 5q4 1 11.5 4.5t14.5 9t12.5 11t5.5 11.5v234q5 10 9 16t7.5 11.5t6.5 8.5q6 7 15.5 15t20 15t20 12.5t15.5 8.5v5q-16 8 -38 19.5t-33 26.5q-13 17 -16.5 32t-9.5 34q-3 12 -17 22
t-31 17t-33.5 11t-25.5 4h-337q-7 0 -19 2.5t-24 8t-20.5 13t-8.5 16.5t6.5 15t15.5 10.5t19 6.5t16 2h357q26 0 66 -5.5t80.5 -17t75 -30t49.5 -44.5q8 -14 9 -31.5t11 -29.5q15 -20 39 -29t48 -12q6 -1 22.5 -3t35.5 -3.5t36 -2.5t23 -1q14 -2 30.5 -10t16.5 -25
t-14 -22.5t-28 -9.5q-6 0 -23 -1t-36 -2.5t-35.5 -3.5t-22.5 -3q-8 -1 -24.5 -5.5t-33.5 -12t-29.5 -17.5t-12.5 -21v-235q0 -17 -16.5 -32t-38.5 -27t-43.5 -20.5t-31.5 -11.5q-15 -4 -34 -8.5t-39.5 -8.5t-40 -6.5t-34.5 -2.5h-367q-6 0 -15 2.5t-17.5 6.5t-14 10t-5.5 14
z" />
    <glyph glyph-name="asciitilde" unicode="~" horiz-adv-x="1265" 
d="M384 413q-38 0 -78.5 -6t-71.5 -30q-13 -9 -17.5 -17.5t-7 -16t-5 -13.5t-10.5 -10t-23.5 -6.5t-43.5 -2.5q-11 0 -26 0.5t-29 4.5t-23.5 12t-9.5 23q0 23 14.5 42t37.5 33.5t52 25.5t58 18t55 10.5t44 3.5q1 0 11.5 0.5t24.5 0.5h28h23q37 0 79.5 -1t83.5 -8t79.5 -21.5
t68.5 -41.5q20 -19 26 -33q6 -15 15 -38t28 -36q30 -18 69 -22t71 -4q40 0 80 5.5t73 30.5q10 8 12.5 19t7.5 22q5 10 16 15t24 7.5t26 3t21 0.5q9 0 24 -0.5t29 -4.5t24 -11.5t10 -21.5q0 -25 -14.5 -44t-37 -34t-51 -25.5t-57 -17.5t-54 -10.5t-41.5 -4.5h-13
q-11 0 -25.5 -0.5t-29.5 -0.5h-24q-35 0 -76.5 1t-82.5 7t-79.5 19.5t-67.5 39.5q-22 19 -30 35t-16 42q-8 23 -29 35.5t-46.5 18t-51.5 6.5t-44 1z" />
    <glyph glyph-name="AE" unicode="&#xc6;" horiz-adv-x="1270" 
d="M1259 556q0 -14 -11 -21.5t-25.5 -10.5t-29.5 -3.5t-23 -0.5q-15 0 -35 0.5t-34 9.5q-9 6 -12 9.5t-3.5 7t-2 9t-8.5 15.5q-7 11 -19.5 19.5t-26.5 14.5t-29 9t-27 3h-229v-130h204q6 0 14.5 -3t16.5 -7.5t14 -11.5t6 -14t-5.5 -13.5t-13 -11t-15.5 -7.5t-12 -3h-209
v-289q0 -11 12.5 -20t28.5 -16t32 -11t24 -4h137q2 0 8 1.5t13.5 3t14.5 3.5t10 3q20 7 31 16t17.5 19t12.5 19t15.5 16.5t26 12t45.5 4.5q8 0 22.5 -0.5t29 -4t25 -11t10.5 -20.5q0 -26 -16 -44.5t-35 -32.5q-32 -22 -68 -34.5t-74.5 -18.5t-77 -7t-74.5 -1h-22h-51h-11
q-17 0 -43.5 4t-56.5 11.5t-60.5 19t-55.5 26.5t-40.5 34.5t-15.5 42.5v275h-342v-388q0 -9 -12 -14t-27.5 -7.5t-29.5 -3t-18 -0.5q-6 0 -20.5 0.5t-29.5 3t-27 9t-12 18.5v530q0 22 16 41t41 33.5t56 25.5t61.5 18.5t57.5 11t43 3.5h663q3 0 13.5 -1.5t23.5 -3t25.5 -3.5
t19.5 -3q24 -4 58 -12t65.5 -22.5t53.5 -37t22 -55.5zM555 617h-235q-11 0 -28 -4t-33.5 -12t-28.5 -19t-12 -26v-66h337v127z" />
    <glyph glyph-name="ae" unicode="&#xe6;" horiz-adv-x="1265" 
d="M39 138q0 25 13.5 44.5t34.5 34t45.5 24t45.5 14.5q11 3 30 7t38 7.5t33 6t16 2.5h260v74q0 12 -11.5 21.5t-27.5 17t-32.5 12t-25.5 5.5q-2 0 -10.5 1t-20 1.5t-23 1.5t-17.5 1h-5q-18 0 -37.5 -1t-39 -5t-38 -11t-33.5 -19q-10 -8 -13 -16t-8 -19q-5 -12 -15 -18
t-22.5 -9t-25.5 -3.5t-23 -0.5q-11 0 -26.5 0.5t-29 4t-23 12t-9.5 24.5q0 36 31.5 60.5t75 40t88 23t71.5 9.5h82q49 0 92 -3t91 -13q19 -4 37 -12.5t37 -8.5q2 0 5 0.5t20 4.5t48 10.5t61.5 11.5t62 7.5t66.5 2.5h82q26 -1 70.5 -8.5t88 -24t75 -42t31.5 -62.5
q0 -28 -16.5 -49t-40.5 -36t-51.5 -24.5t-49.5 -14.5q-10 -2 -25.5 -5t-31 -5.5t-27.5 -4.5t-13 -2h-260v-79q0 -18 23 -29t52.5 -17t56 -8.5t33.5 -2.5q13 0 32.5 0.5t39.5 2.5t38.5 7.5t30.5 15.5q21 18 29 32.5t16 24t23 15t51 5.5q10 0 25.5 -0.5t30 -4.5t25 -11.5
t10.5 -22.5q0 -36 -31.5 -61.5t-75 -41.5t-88 -23.5t-71.5 -8.5h-84q-35 0 -66.5 1.5t-61.5 5.5t-60.5 11t-64.5 18h-8q-10 0 -23 -3.5t-26.5 -8t-26.5 -8.5t-23 -6q-42 -8 -80.5 -9t-80.5 -1h-84q-29 1 -73 8.5t-86 24t-72 42t-30 63.5zM218 138q0 -23 21 -36t49 -20
t55.5 -9t40.5 -2q22 0 45 1t45 6.5t41.5 15.5t34.5 28q5 5 5 11v73h-40q-20 0 -44 -0.5t-47 -0.5t-41.5 -0.5t-26.5 -0.5q-14 0 -37.5 -2.5t-46 -10t-38.5 -20.5t-16 -33zM902 413h-5q-5 0 -15 -1t-19.5 -1.5t-17.5 -1.5t-9 -1q-6 -1 -22 -5t-32.5 -10.5t-29.5 -15.5
t-13 -20v-79q11 0 39.5 0.5t60 1t60 1t39.5 0.5q12 0 35 3t46 10.5t40 20t17 32.5q0 14 -11 25t-26.5 18.5t-32 12t-28.5 5.5q-2 0 -10.5 1t-20 1.5t-23 1.5t-17.5 1h-5z" />
    </font>
</defs>
</svg>
