<?xml version="1.0" standalone="no"?>
<!DOCTYPE svg PUBLIC "-//W3C//DTD SVG 1.1//EN" "http://www.w3.org/Graphics/SVG/1.1/DTD/svg11.dtd" >
<svg xmlns="http://www.w3.org/2000/svg" xmlns:xlink="http://www.w3.org/1999/xlink" version="1.1">
<metadata>
Created by FontForge 20170731 at Mon Jun 24 07:10:57 2013
 By Aleksey,,,
LDF
</metadata>
<defs>
<font id="AlwaysHere" horiz-adv-x="556" >
  <font-face 
    font-family="AlwaysHere"
    font-weight="500"
    font-stretch="normal"
    units-per-em="1000"
    panose-1="2 0 6 3 0 0 0 0 0 0"
    ascent="800"
    descent="-200"
    x-height="707"
    cap-height="781"
    bbox="-88 -305.843 951 806"
    underline-thickness="50"
    underline-position="-200"
    unicode-range="U+0020-3000"
  />
<missing-glyph horiz-adv-x="364" 
d="M66 33h199v600h-199v-600zM33 0v666h265v-666h-265z" />
    <glyph glyph-name=".notdef" horiz-adv-x="364" 
d="M66 33h199v600h-199v-600zM33 0v666h265v-666h-265z" />
    <glyph glyph-name=".null" horiz-adv-x="0" 
 />
    <glyph glyph-name="nonmarkingreturn" horiz-adv-x="333" 
 />
    <glyph glyph-name="space" unicode=" " horiz-adv-x="300" 
 />
    <glyph glyph-name="exclam" unicode="!" horiz-adv-x="112" 
d="M84 175h-22l2 529h22zM103 67q0 -14 -9.5 -23.5t-23.5 -9.5t-23.5 9.5t-9.5 23.5t9.5 23.5t23.5 9.5t23.5 -9.5t9.5 -23.5z" />
    <glyph glyph-name="quotedbl" unicode="&#x22;" horiz-adv-x="173" 
d="M57 701h22v-205h-22v205zM140 700h22l2 -204h-22z" />
    <glyph glyph-name="numbersign" unicode="#" horiz-adv-x="522" 
d="M202 331l123 1l16 155l-123 -1zM43 308v22l137 1l16 155l-151 -1v22l153 1l20 197l22 -2l-20 -195l123 1l20 192l22 -2l-20 -190l147 1v-22l-149 -1l-16 -155l162 1v-22l-164 -1l-32 -313l-22 2l32 311l-123 -1l-32 -308l-22 2l31 306z" />
    <glyph glyph-name="dollar" unicode="$" horiz-adv-x="420" 
d="M370 700q-5 -25 -1 -71q1 -7 2 -21q3 -5 1 -10q3 -29 3 -46q0 -11 -11 -11t-11 11q0 17 -3 47q-5 7 -8 17q-4 13 -6 17q-13 26 -39.5 45t-57.5 26q-83 21 -143 -20t-60 -124q0 -42 5 -54q17 -38 63 -54q22 -8 98 -21q33 -5 55 -11.5t49 -19.5t46.5 -36.5t30.5 -56.5
q9 -26 13 -39t9.5 -37t4.5 -39l-1 -42q-5 -41 -26 -77.5t-56 -53.5q-42 -20 -90 -25l2 -147h-22l-2 146q-33 -1 -65 6l-2 -144h-22l2 150q-17 5 -33 13q-55 26 -87.5 74.5t-30.5 113.5q1 24 3 37.5t11 32t25 32.5q31 24 80.5 31t89.5 -7q47 -14 64 -48q19 -39 -9 -90
q-6 -10 -15.5 -4.5t-4.5 14.5q23 42 9 70q-13 25 -51 37q-36 12 -79.5 6t-69.5 -27q-19 -14 -24.5 -33t-6.5 -51q-2 -59 27 -102t79 -66q47 -23 105 -23t107 24q30 14 48 45.5t22 67.5q4 38 -2 68.5t-22 78.5q-11 30 -27.5 50t-40 31.5t-44.5 17.5q-20 6 -52 11
q-78 13 -103 22q-55 20 -75 67q-7 15 -7 62q0 62 32 105.5t85 59.5l-2 81h22l2 -76q31 5 65 1l-1 66h22l1 -70l5 -1q65 -17 100 -66q0 25 3 44q2 11 13 9t9 -13z" />
    <glyph glyph-name="percent" unicode="%" horiz-adv-x="519" 
d="M390 240q4 2 9 0q6 -2 35 -7q26 -4 42 -15q23 -17 30 -44.5t0 -54t-23 -50.5q-18 -24 -42 -38.5t-55 -16t-62 19.5q-24 15 -34 40t-7 50t15 49q19 37 48 55q22 14 44 12zM168 716q5 5 12 2q13 -4 28 -8q3 0 5 -1q9 -1 15 -3q96 -15 245 12q11 2 13 -9q0 -4 -1 -7h1
l-389 -705l-20 10l378 685q-105 -17 -185 -12q22 -31 18.5 -67t-26.5 -68q-18 -24 -42 -38.5t-55 -16t-62 19.5q-24 15 -34 40t-7 50t15 49q19 37 48 55q22 14 43 12zM402 214q-20 10 -44 -5t-40 -46q-17 -30 -13 -62t31 -49q40 -21 72.5 -11.5t56.5 41.5q23 32 23 65
t-26 53q-10 8 -31 12q-2 0 -8.5 1t-10.5 1q-5 -2 -10 0zM181 690q-20 10 -44 -5t-40 -46q-17 -30 -13 -62t31 -49q40 -21 72.5 -11.5t56.5 41.5q23 32 23 65t-26 53q-7 6 -18 9q-10 1 -19 3t-13 2q-5 -2 -10 0z" />
    <glyph glyph-name="ampersand" unicode="&#x26;" horiz-adv-x="795" 
d="M355 128q-128 103 -210 259q-61 -69 -90 -127t-29 -141q0 -37 23.5 -66.5t60.5 -42.5q79 -27 162 29q50 35 83 89zM150 426l42 46q49 56 60 89q12 38 -1.5 70.5t-42.5 50.5q-26 17 -61 12t-61 -36q-27 -33 3 -109q11 -27 30 -64q25 -47 28 -53zM719 18q-18 1 -48 1h-50
q-62 1 -100 15q-76 26 -148 81q-36 -57 -89 -94q-91 -63 -182 -31q-42 14 -70 49.5t-28 79.5q0 48 9 88.5t29 76t40 62t52 62.5l-7 14l-27 53q-21 39 -32 66q-34 88 2 131q30 37 73.5 43.5t75.5 -15.5q36 -21 52 -60.5t1 -84.5q-12 -38 -64 -97l-48 -54q80 -154 206 -256
q7 15 13 30q7 19 12 62q6 44 14 68q30 86 94 136q65 51 153 42q51 -5 86.5 -46t44.5 -95q9 -57 -15.5 -105t-83.5 -67q-71 -24 -115 9q-38 27 -42 79q-4 51 23 80q32 35 81 9q10 -6 4.5 -15.5t-14.5 -4.5q-34 19 -55 -3.5t-17 -63.5q4 -42 33 -64q35 -25 96 -6
q50 17 70.5 58t12.5 90q-8 48 -38.5 83.5t-72.5 39.5q-79 8 -138 -37.5t-87 -126.5q-7 -20 -12 -63q-6 -45 -14 -67q-6 -18 -15 -36q69 -54 145 -80q34 -12 93 -13h50q45 0 49 -1q11 -1 10 -12t-12 -10z" />
    <glyph glyph-name="quotesingle" unicode="'" horiz-adv-x="110" 
d="M79 702h22l-8 -216h-22z" />
    <glyph glyph-name="parenleft" unicode="(" horiz-adv-x="217" 
d="M201 742q-44 -24 -71 -105q-8 -21 -13.5 -43t-12.5 -55t-8 -37q-18 -89 -18.5 -174t17 -177.5t44.5 -174.5t64 -163q5 -10 -5 -15t-15 5q-38 83 -65 166t-45.5 177.5t-17.5 181.5t19 178q1 4 8.5 37.5t13 56t13.5 44.5q30 89 82 118q9 5 14.5 -4.5t-4.5 -15.5z" />
    <glyph glyph-name="parenright" unicode=")" horiz-adv-x="209" 
d="M57 758q40 -22 64 -75q6 -13 17 -44q10 -28 17 -42q12 -25 20 -57t11 -48q2 -15 7 -59q19 -156 -17 -311q-35 -155 -111 -323q-5 -10 -15 -5t-5 15q75 165 110 317t16 305q-5 43 -7 57q-3 17 -10 46q-8 29 -19 53q-7 15 -18 44q-10 31 -16 43q-21 47 -54 64q-10 5 -5 15
t15 5z" />
    <glyph glyph-name="asterisk" unicode="*" horiz-adv-x="329" 
d="M50 472l-12 18l108 75l-129 74l12 20l124 -73v114h22v-115l115 78l12 -18l-114 -79l132 -76l-12 -20l-132 78v-144h-22v139z" />
    <glyph glyph-name="plus" unicode="+" horiz-adv-x="522" 
d="M35 238v22h228l-1 247h22l1 -247h227v-22h-227l1 -238h-22l-1 238h-228z" />
    <glyph glyph-name="comma" unicode="," horiz-adv-x="162" 
d="M74 -150l-20 8l78 232l20 -8z" />
    <glyph glyph-name="hyphen" unicode="-" horiz-adv-x="267" 
d="M26 255v22l231 2v-22z" />
    <glyph glyph-name="period" unicode="." horiz-adv-x="112" 
d="M103 67q0 -14 -9.5 -23.5t-23.5 -9.5t-23.5 9.5t-9.5 23.5t9.5 23.5t23.5 9.5t23.5 -9.5t9.5 -23.5z" />
    <glyph glyph-name="slash" unicode="/" horiz-adv-x="265" 
d="M235 707l20 -6l-236 -749l-20 6z" />
    <glyph glyph-name="zero" unicode="0" horiz-adv-x="434" 
d="M225 517q48 4 114 -38q68 -43 78 -89q10 -41 6.5 -109.5t-21.5 -128.5q-21 -69 -59 -114.5t-95 -49.5q-121 -9 -182 50q-13 13 -22.5 34t-13 33.5t-8 41.5t-5.5 32q-25 131 22 226q54 110 186 112zM230 495q-122 0 -172 -100q-43 -88 -19 -212l5 -33q5 -28 8 -39
t10.5 -28.5t19.5 -28.5q54 -52 164 -44q48 3 81.5 43t53.5 105q17 58 20.5 123.5t-6.5 104.5q-8 37 -68 75q-54 34 -94 34h-3z" />
    <glyph glyph-name="one" unicode="1" horiz-adv-x="196" 
d="M16 415q30 15 76 91q5 9 14.5 3.5t3.5 -15.5l-1 -2l3 -482q40 -1 62 1q11 1 12 -10t-10 -12q-22 -2 -68 -1h-18q-47 1 -74 -5q-10 -2 -12.5 8.5t8.5 13.5q29 6 78 5l-3 447q-32 -47 -61 -62q-10 -5 -15 5t5 15z" />
    <glyph glyph-name="two" unicode="2" horiz-adv-x="432" 
d="M107 358q16 11 32 10.5t27 -11.5t11 -27t-11 -32q-22 -28 -51.5 -33t-52.5 10q-25 14 -39 41t-11 57q5 45 46.5 78.5t96.5 47.5q37 8 71 8t65.5 -14t48.5 -40q53 -82 -10 -195q-47 -82 -133 -152q-28 -22 -78 -55l-45 -29l324 -2q2 5 0 30.5t-2 34.5q0 11 11 11t11 -11
q0 -4 1.5 -31t0.5 -34h2v-22l-379 2l-2 -1q-7 -5 -14 1h-2v3q-2 5 0 10v9h11q16 12 71 48q49 31 76 54q83 67 127 145q57 101 12 172q-20 31 -66 40.5t-95 -3.5q-52 -13 -87.5 -42t-39.5 -65q-3 -24 8.5 -45t30.5 -32q16 -11 37.5 -7.5t37.5 25.5q14 18 2.5 30t-29.5 -2
q-9 -6 -15.5 2.5t1.5 15.5z" />
    <glyph glyph-name="three" unicode="3" horiz-adv-x="469" 
d="M151 343q17 14 33 13.5t28 -12.5q11 -11 15 -27.5t-2 -32.5q-9 -30 -41.5 -44t-66.5 -7q-38 7 -62.5 36.5t-22.5 79.5t37 82t89 46q49 13 101 11t87 -19q33 -16 55.5 -50t30.5 -76q9 -39 3 -81t-27 -71q-20 -26 -65 -44q-16 -6 -41 -14q25 -5 43 -11q51 -16 73 -43
q50 -63 39 -148.5t-70 -135.5q-32 -28 -91.5 -36t-114.5 4q-62 12 -106 44.5t-48 82.5q-5 55 19.5 87.5t64.5 41.5q36 7 71 -6.5t46 -42.5q16 -39 -10 -65q-13 -12 -29.5 -12.5t-34.5 11.5q-9 6 -3 15t15 3q22 -15 36 -1q16 15 6 41q-8 20 -35 30.5t-57 4.5
q-32 -6 -51.5 -32t-15.5 -73q3 -40 41 -68t95 -40q55 -11 108 -3.5t80 30.5q52 45 62 122.5t-33 131.5q-19 22 -64 36q-21 7 -77 18q-11 2 -9 13q1 5 6 8q2 4 7 6q64 19 70 22q39 15 55 37q18 24 23.5 60.5t-2.5 72.5q-8 38 -27.5 68t-47.5 43q-31 15 -78.5 17t-93.5 -10
q-49 -13 -79 -40.5t-31 -66.5q-1 -42 18 -65.5t49 -29.5q28 -5 52.5 5.5t31.5 30.5q7 23 -9 39q-13 13 -31 -2q-8 -8 -15.5 0.5t1.5 15.5z" />
    <glyph glyph-name="four" unicode="4" horiz-adv-x="486" 
d="M471 65q0 -19 2 -56q3 -38 3 -57q0 -11 -11 -11t-11 11q0 18 -2 47l-100 -1l1 -180q32 2 59 6q11 1 12.5 -9.5t-8.5 -12.5q-57 -8 -131 -8q-11 0 -11 11t11 11q24 0 46 1l-1 181l-310 -2v4q-5 0 -8 4q-8 8 1 15l65 59q20 19 51.5 52t48 58.5t34.5 63t31 80.5q23 76 3 112
q-5 10 -19 19t-29 12q-36 9 -58 -12q-20 -19 -22 -52q-2 -30 13 -45q14 -14 39 1q10 5 15.5 -4.5t-3.5 -15.5q-41 -23 -67 3q-21 22 -19 63q3 40 29 65q30 30 79 19q17 -5 35 -16t27 -27q24 -44 -1 -128q-16 -53 -37 -95t-52 -80t-57.5 -64.5t-73.5 -68.5l285 2l-2 476h22
l2 -476l99 1q-2 27 -2 44q0 11 11 11t11 -11z" />
    <glyph glyph-name="five" unicode="5" horiz-adv-x="497" 
d="M478 501q9 -109 9 -124q0 -11 -11 -11t-11 11q0 25 -8 108h-366l-28 -383q12 8 47 24q61 28 128 30q68 2 124 -23q59 -26 90 -81q32 -54 23 -131q-8 -68 -69.5 -120t-141.5 -73q-39 -10 -76.5 -10.5t-71.5 8.5t-60 32t-38 57q-18 51 3 92t61 58q41 17 72 -2
q35 -21 35 -77q0 -11 -11 -11t-11 11q0 44 -24 58q-22 13 -53 1q-32 -14 -49 -47.5t-3 -74.5q14 -38 48 -59.5t78 -23.5t94 9q76 20 132 67.5t63 106.5q8 71 -19.5 119t-80.5 71q-51 23 -114 21t-119 -28q-45 -20 -59 -36v-2h-2q-2 -2 -4 -5q-6 -9 -15 -3t-3 15l3 4l30 419
l11 -1v10h378q2 4 7 4q11 1 12 -10z" />
    <glyph glyph-name="six" unicode="6" horiz-adv-x="509" 
d="M74 389q25 54 67 86t98 32q2 0 3 -1q3 2 6 2h22h28q7 0 24.5 -1t28 -3t24.5 -6t25.5 -10t21.5 -15q39 -32 58.5 -86t19.5 -115q0 -60 -18.5 -115t-53.5 -90q-80 -80 -220 -70q-84 6 -130 89q-32 58 -35 138q-10 45 4 126q2 9 3 19t2.5 23t2.5 20q5 40 15 64q26 63 76 119
t109 80q19 8 39.5 12.5t50 8t38.5 5.5q11 2 13 -9t-9 -13q-12 -2 -40 -5.5t-47 -7.5t-37 -11q-54 -23 -101 -75q-47 -53 -72 -112q-9 -21 -13 -59zM239 485q-76 0 -122.5 -66.5t-51.5 -161.5v-30q2 -8 5 -16q3 -7 -3 -12q7 -59 31 -103q39 -72 112 -77q129 -9 202 64
q31 31 48.5 82t17.5 107q0 58 -18 107t-52 78q-8 7 -17.5 12t-23 8t-21 5t-25.5 3t-23 1h-26h-24q-2 0 -3 1q-3 -2 -6 -2z" />
    <glyph glyph-name="seven" unicode="7" horiz-adv-x="448" 
d="M172 162q31 38 67 49q20 6 45 3l126 265l-363 -5q7 -45 7 -86q0 -11 -11 -11t-11 11q0 43 -8 90q-1 10 8 13v5l405 5v-11l2 -1l-2 -4v-6h-3l-128 -269q1 0 23 -5q15 -4 23 -4q22 -3 36 9q8 8 15.5 -0.5t-1.5 -15.5q-20 -19 -52 -15q-10 1 -26 5q-23 5 -27 6l-184 -387
l-20 10l181 380q-16 0 -29 -3q-29 -9 -55 -42q-7 -8 -15.5 -1.5t-2.5 15.5z" />
    <glyph glyph-name="eight" unicode="8" horiz-adv-x="447" 
d="M228 681q-47 -1 -83 -32.5t-47 -76.5q-12 -49 11 -86q27 -42 94 -52q66 -10 105.5 23t44.5 85.5t-27 93.5t-95 44q-1 0 -3 1zM179 416q-61 15 -88 58q-29 45 -14 103q14 56 61 93q47 38 108 32q3 0 5 -2q64 -10 97 -56.5t27 -103.5q-4 -40 -26.5 -72.5t-60.5 -47.5
q73 -18 113 -83t37 -142q-4 -93 -64 -149q-69 -64 -182 -49q-88 12 -134 62t-47 119q-2 67 37.5 129.5t108.5 98.5zM230 407q-25 -1 -63 -21q-64 -34 -99 -90q-36 -58 -35 -117q1 -61 41.5 -105t119.5 -55q104 -14 164 43q54 50 58 134q2 53 -17.5 99.5t-62 77.5t-99.5 31
q-4 0 -7 3z" />
    <glyph glyph-name="nine" unicode="9" horiz-adv-x="515" 
d="M239 485q-77 0 -127 -75q-48 -70 -49 -167q-1 -99 49 -162q57 -70 162 -62q82 6 134 66t66 146q14 83 -12 153q-27 69 -87 91q-9 3 -20 5.5t-19.5 3.5t-22.5 1.5t-21 0.5h-22h-22q-2 0 -3 1q-3 -2 -6 -2zM503 306q8 -51 -12 -145q-2 -10 -3 -19l-4 -23l-3 -20
q-6 -40 -17 -64q-51 -105 -128 -153q-76 -49 -194 -59q-11 -1 -12 10t10 12q112 9 184 55t120 145q10 20 16 57q1 7 3 25q-29 -55 -76.5 -90t-110.5 -40q-116 -9 -181 70q-55 69 -54 176q1 104 53 180q57 84 145 84q2 0 3 -1q3 2 6 2h21h23q8 0 22.5 -0.5t24 -2t21.5 -4
t23 -6.5q52 -18 81.5 -68t35.5 -115q2 -3 3 -6z" />
    <glyph glyph-name="colon" unicode=":" horiz-adv-x="170" 
d="M159 450q0 -14 -9.5 -23.5t-23.5 -9.5t-23.5 9.5t-9.5 23.5t9.5 23.5t23.5 9.5t23.5 -9.5t9.5 -23.5zM161 53q0 -14 -9.5 -23.5t-23.5 -9.5t-23.5 9.5t-9.5 23.5t9.5 23.5t23.5 9.5t23.5 -9.5t9.5 -23.5z" />
    <glyph glyph-name="semicolon" unicode=";" horiz-adv-x="176" 
d="M118 90l22 -4l-47 -239l-22 4zM167 464q0 -14 -9.5 -23.5t-23.5 -9.5t-23.5 9.5t-9.5 23.5t9.5 23.5t23.5 9.5t23.5 -9.5t9.5 -23.5z" />
    <glyph glyph-name="less" unicode="&#x3c;" 
d="M538 473l8 -20l-516 -213l513 -198l-8 -20l-543 209l4 10l-3 7l7 3z" />
    <glyph glyph-name="equal" unicode="=" horiz-adv-x="522" 
d="M23 341v22l489 -3v-22zM26 136v22l486 -1v-22z" />
    <glyph glyph-name="greater" unicode="&#x3e;" 
d="M-7 455l8 20l545 -213l-8 -20l-7 2l-520 -214l-8 20l498 206z" />
    <glyph glyph-name="question" unicode="?" horiz-adv-x="558" 
d="M148 535q15 21 37.5 30t43.5 4q23 -6 35.5 -25t10.5 -48q-4 -43 -37 -72.5t-78 -38.5t-84.5 7.5t-54.5 60.5q-34 98 8 171q38 65 123 95q76 29 167.5 16t149.5 -66q33 -29 62 -85q21 -41 17 -108q-4 -66 -48 -103q-33 -27 -96 -42q-13 -4 -51 -12q-31 -6 -47 -11
q-47 -13 -62 -37q-14 -23 -8 -41q5 -15 24 -25q18 -9 41.5 -6.5t38.5 17.5q8 8 16 0t0 -16q-21 -20 -52 -23.5t-54 9.5q-27 13 -35 38q-9 27 11 59q19 30 74 46q17 5 49 12l50 11q58 15 87 38q37 31 40 88q4 60 -15 96q-27 52 -56 79q-53 48 -138.5 60t-157.5 -15
q-77 -27 -111 -85q-37 -64 -7 -152q12 -35 44 -48.5t71 -6.5q39 8 66.5 33t30.5 59q4 41 -29 49q-15 4 -31 -2.5t-27 -21.5q-7 -9 -15.5 -2.5t-2.5 14.5zM303 46q0 -14 -9.5 -23.5t-23.5 -9.5t-23.5 9.5t-9.5 23.5t9.5 23.5t23.5 9.5t23.5 -9.5t9.5 -23.5z" />
    <glyph glyph-name="at" unicode="@" horiz-adv-x="599" 
d="M349 460l-3 3l-1 -2q1 -1 4 -1zM325 478q-13 11 -24 11q-10 0 -21 -8q-23 -19 -36 -65q-12 -46 -4 -84q9 -39 39 -46q17 -5 30 4q11 9 20 28q14 34 14 79v50q0 1 -0.5 3.5t-1 6t-0.5 6.5q-1 6 0 10q1 8 10 10q6 1 11 -4q15 -15 13 -49q0 -8 -3 -28q-2 -18 -2 -28
q-1 -32 10 -51q15 -25 55 -38q38 -11 78 21q9 7 14.5 15.5t12.5 24.5l9 25q30 65 10 160q-5 26 -9.5 41t-14 34.5t-22.5 32.5q-27 28 -74 40.5t-95.5 8.5t-84.5 -21q-83 -38 -115 -80q-41 -52 -55 -133.5t2 -162.5q15 -85 56.5 -152.5t102.5 -96.5q30 -15 61 -19t78 -4
q11 0 11 -11t-11 -11q-32 0 -51.5 1t-46.5 7t-51 17q-67 32 -111 104t-60 162q-16 83 -1.5 169.5t58.5 143.5q36 45 123 86q40 18 92 22.5t104 -9.5t84 -45q15 -16 26.5 -38.5t15.5 -38.5q4 -14 10 -43q22 -101 -12 -174l-7 -17l-8 -20q-4 -8 -11 -18t-16 -18
q-50 -39 -98 -23q-48 15 -67 47q-4 7 -7 14q-3 -9 -6 -16q-11 -26 -28 -38q-20 -14 -48 -8q-42 11 -54 63q-10 43 4 95q15 52 43 76q17 13 35 13q20 0 38 -17q9 -7 1.5 -15.5t-15.5 -0.5z" />
    <glyph glyph-name="A" unicode="A" horiz-adv-x="664" 
d="M363 520l-62 197l-58 -202zM236 770q24 4 63 4q49 1 60 2t12 -10t-10 -12q-16 -1 -48 -1l73 -232h1v-3l192 -610h64q11 0 11 -11t-11 -11h-147q-11 0 -11 11t11 11h60l-186 590l-133 -6l-167 -590q10 0 67 4q11 1 12 -10t-10 -12q-106 -7 -147 -7q-11 0 -11 11t11 11
q25 0 55 1l241 852q-29 -1 -48 -4q-11 -2 -13 9t9 13z" />
    <glyph glyph-name="B" unicode="B" horiz-adv-x="607" 
d="M120 753l1 -435q1 0 95 -3q63 -2 104 1q118 7 184 60q33 25 51.5 68.5t19.5 91.5q1 49 -17 91t-52 66q-30 20 -69.5 33.5t-71.5 19.5t-83.5 8t-77 1.5t-80.5 -2.5h-4zM393 303q-33 -7 -72 -9q-41 -3 -106 -1q-84 3 -93 3l1 -414q95 2 165 9q179 20 239 84
q36 39 43.5 99.5t-12.5 113.5q-20 58 -63 90.5t-100 24.5h-2zM9 772q26 -2 37.5 -2t37.5 2.5t40 2.5q47 2 66 2h64q47 0 74 -4t65 -11t68.5 -20t56.5 -31q40 -27 60 -74.5t19 -100.5t-21.5 -100.5t-57.5 -77.5q-29 -22 -64 -36q44 -12 76 -45.5t49 -80.5q22 -57 13.5 -124.5
t-49.5 -110.5q-65 -71 -253 -92q-85 -9 -278 -9q-11 0 -11 11t11 11h27h30h32l-3 869q-64 -4 -91 -1q-11 2 -9.5 12.5t11.5 9.5z" />
    <glyph glyph-name="C" unicode="C" horiz-adv-x="518" 
d="M504 736q-7 -35 -3 -96q9 -29 7 -63q0 -4 -3 -7v-2q0 -11 -11 -11t-11 11q0 15 -3 68q-20 61 -83 86q-40 17 -88.5 10.5t-87.5 -36.5q-98 -75 -141 -185q-44 -109 -55 -257q-7 -90 12 -173q19 -84 73 -128q38 -31 110 -56q78 -26 115 -13q48 17 83.5 62.5t51.5 98.5
t16 106q0 11 11 11q5 0 8 -3t3 -8q0 -56 -16.5 -112t-55.5 -106t-93 -69q-45 -16 -130 13q-76 25 -117 58q-41 34 -64.5 94t-28 114.5t-0.5 112.5q5 71 17 130.5t34 120t61 113t92 94.5q44 33 98.5 40.5t99.5 -11.5q46 -18 73 -55q0 29 4 52q2 11 13 9t9 -13z" />
    <glyph glyph-name="D" unicode="D" horiz-adv-x="635" 
d="M144 748l4 -856q15 0 68 -3t83 -3q97 1 145 34q52 36 84 81q7 11 13.5 26t10 25t9.5 32t7 28q46 156 33 301q-16 178 -118 266q-63 53 -222 66q-53 4 -117 3zM6 -110q31 7 79 4q8 0 23 -1t18 -2l-4 857q-35 0 -108 -3q-4 0 -7.5 3t-3.5 7.5t3 8t8 3.5q161 6 248 -1
q167 -13 235 -71q110 -93 126 -280q13 -149 -33 -309q-2 -4 -8 -27t-9.5 -33.5t-11 -28t-15.5 -28.5q-34 -49 -90 -87q-53 -37 -157 -38q-29 0 -85 3q-37 2 -49 2q-2 -1 -5 -1h-12v-1v-1h-22v3q-4 1 -19 2t-24 2q-44 2 -71 -5q-11 -2 -13.5 8.5t7.5 13.5z" />
    <glyph glyph-name="E" unicode="E" horiz-adv-x="509" 
d="M342 623q-6 -36 -1 -110q5 -80 3 -114q-1 -11 -12 -10t-10 12q2 33 -2 102q-167 0 -254 -6q2 -179 -6 -398q0 -14 3 -110q2 -58 -3 -94q37 3 55 4q27 3 176.5 0t177.5 -3q1 112 0 131q-1 11 10 12t12 -10q1 -22 1 -46.5t-0.5 -54.5t-0.5 -46q0 -11 -11 -11q-4 0 -8 3
q-31 0 -159.5 2.5t-197.5 0.5q-16 -1 -58 -4h-3q-4 -5 -10 -4q-3 1 -5 3q-24 -2 -42 -2q-11 0 -11 11t11 11q18 0 40 2q6 35 4 95q-3 96 -3 110q8 223 6 403q-1 2 -1 4q0 3 1 6q0 68 -2 132q0 11 -2.5 36t-2.5 36.5t4 39.5q-24 1 -42 -2q-11 -1 -12.5 9.5t8.5 12.5
q26 4 68 1q56 -4 64 -4q60 0 180.5 -0.5t180.5 -0.5q11 0 11 -11q0 -5 -4 -8q0 -8 0.5 -17t1.5 -19.5t2 -16.5q2 -38 -3 -64q-2 -11 -13 -9t-9 13q5 23 3 58q-1 3 -2.5 22.5t-1.5 29.5q-55 0 -170.5 0.5t-175.5 0.5q-12 0 -64 4q-4 -18 -4 -34.5t2.5 -39.5t2.5 -37
q2 -60 2 -125q87 6 252 6q-4 62 2 102q2 10 12.5 8.5t9.5 -12.5z" />
    <glyph glyph-name="F" unicode="F" horiz-adv-x="529" 
d="M361 624q-3 -37 1 -112q5 -75 2 -114q-1 -11 -12 -10t-10 12q3 36 -1 102q-21 0 -64.5 1t-70.5 1t-64 -2t-66 -6q-2 -57 -1 -133q0 -32 2 -130t2 -151q0 -18 2 -59.5t1.5 -75t-4.5 -61.5h93q11 0 11 -11t-11 -11h-171q-11 0 -11 11t11 11h56q4 27 4.5 59.5t-1.5 74
t-2 62.5q0 53 -2 151t-2 130q-2 168 8 282q1 12 -3 55q-3 33 2 55q-25 1 -45 -2q-10 -1 -11.5 9.5t9.5 12.5q8 4 68 1t66 -3q60 0 180.5 -0.5t180.5 -0.5q11 0 11 -11q0 -4 -3 -8q0 -11 1.5 -37.5t1.5 -39.5t-2 -40q-1 -11 -12 -10t-10 12q2 27 2 37.5t-1.5 36t-1.5 38.5
q-55 0 -171 0.5t-176 0.5q-13 0 -65 3q-5 -20 -2 -52q4 -44 3 -59q-5 -58 -7 -124q30 4 67 5.5t64 1.5t70 -1t63 -1q-4 64 -1 102q1 11 12 10t10 -12z" />
    <glyph glyph-name="G" unicode="G" horiz-adv-x="672" 
d="M273 133q7 30 37 55q22 17 44 24.5t46 4t38.5 -8t40.5 -14.5q5 -3 8 -4q49 -19 77 -19q42 0 79 38q8 8 16 0t0 -16q-44 -44 -95 -44q-23 0 -53 9q4 -16 6 -42q3 -33 4 -83q0 -35 -0.5 -90t-0.5 -58q0 -11 -11 -11t-11 11q0 4 0.5 58.5t0.5 88.5q0 17 -1 31
q-17 -68 -55.5 -120.5t-96.5 -72.5q-46 -17 -132 13q-72 25 -117 59q-56 43 -80 151q-20 85 -14 170q11 148 57.5 263t148.5 197q43 34 98 42t101 -12q45 -18 73 -55q0 30 4 53q2 11 13 9t9 -13q-7 -35 -2 -99q8 -29 6 -61q0 -3 -2 -5v-4q0 -11 -11 -11t-11 11q0 17 -4 66
q-18 63 -83 89q-40 17 -89.5 10t-87.5 -38q-98 -78 -143 -189q-45 -109 -55 -255q-6 -82 13 -163q23 -100 73 -138q42 -32 111 -56q77 -27 116 -14q48 17 83.5 62t51 97.5t16.5 105.5q-1 5 -3 8q-1 2 -1 4l-6 3q-25 10 -33.5 13t-29 8.5t-32 4t-28.5 -7t-32 -18.5
q-24 -19 -29 -41q-3 -11 -13.5 -8.5t-8.5 12.5z" />
    <glyph glyph-name="H" unicode="H" horiz-adv-x="501" 
d="M18 758q40 7 107 7q11 0 11 -11t-11 -11q-29 0 -49 -1v-237l346 2v246q-23 -2 -46 -6q-11 -2 -13 9t9 13q40 7 107 7q11 0 11 -11t-11 -11h-35v-845q22 0 35 1q11 1 12 -10t-10 -12q-13 -1 -50 -1q-30 1 -47 -3q-11 -2 -13 9t9 13q17 3 42 3v576l-346 -2v-576q34 0 46 1
q11 1 12 -10t-10 -12q-13 -1 -50 -1q-30 1 -47 -3q-11 -2 -13 9t9 13q14 3 31 3v833q-17 -1 -32 -4q-11 -2 -13 9t9 13z" />
    <glyph glyph-name="I" unicode="I" horiz-adv-x="185" 
d="M78 781h72q11 0 11 -11t-11 -11h-63q-11 -170 -7 -424q0 -17 3.5 -181.5t3.5 -249.5q8 0 35 -0.5t42 -0.5q11 0 11 -11t-11 -11q-15 0 -42 0.5t-36 0.5q-43 1 -76 -2q-11 -1 -12 10t10 12q25 2 57 2q0 85 -3.5 249t-3.5 181q-4 254 7 425h-57q-11 0 -11 11t11 11h68h1h1z
" />
    <glyph glyph-name="J" unicode="J" horiz-adv-x="508" 
d="M344 762q40 11 143 11q11 0 11 -11t-11 -11h-50q0 -79 -6 -203q-1 -19 3 -52q5 -42 6 -56q5 -124 2 -231q-5 -165 -31 -221q-19 -40 -53.5 -69.5t-78.5 -42.5q-69 -22 -136 7t-111 90q-28 39 -40.5 83.5t-4.5 93t39 87.5q25 31 54 45.5t55 11.5t47 -21q31 -25 37.5 -69.5
t-18.5 -94.5q-6 -10 -15.5 -4.5t-4.5 14.5q22 46 17 81.5t-30 55.5q-15 13 -34.5 15.5t-43.5 -9t-46 -39.5q-41 -57 -37.5 -119t43.5 -119q40 -56 100.5 -82t122.5 -7q83 27 118 102q24 51 29 212q3 106 -2 230q-1 12 -6 53q-4 36 -3 57q6 126 6 200q-39 -2 -65 -10
q-11 -3 -14 8t8 14z" />
    <glyph glyph-name="K" unicode="K" horiz-adv-x="606" 
d="M13 760q25 10 69 9q11 0 34 -1t33 -1q11 0 11 -11t-11 -11q-10 0 -30.5 1t-26.5 1l-6 -611l343 600q-37 0 -61 -5q-11 -2 -13 9t9 13q14 3 33 4t31 1h35h30q11 0 11 -11t-11 -11h-12h-14h-13l-217 -381l274 -447q2 0 31 -1.5t43 -1.5q11 0 11 -11t-11 -11q-16 0 -46 1.5
t-33 1.5l-5 -4l-3 4q-35 1 -61 -3q-11 -1 -12.5 9.5t8.5 12.5q23 3 52 3l-261 425l-132 -232l-6 3l-2 -201q9 -1 30 -2q26 -2 37 -2t11 -11t-11 -11q-12 0 -38 2q-24 1 -33 2h-18q-42 1 -62 -10q-9 -5 -14.5 4.5t4.5 15.5q24 13 72 12l8 844q-31 0 -49 -7q-10 -4 -14 6t6 14
z" />
    <glyph glyph-name="L" unicode="L" horiz-adv-x="531" 
d="M514 34q4 -16 5.5 -38.5t2 -37t0 -43t-0.5 -35.5q0 -8 -7 -10q-2 -9 -11 -9q-64 0 -192 -3t-193 -3q-9 0 -36 -1.5t-48 -1t-38 5.5q-11 4 -7.5 14.5t13.5 7.5q16 -5 38 -6l-6 870q-16 -1 -28 -1q-11 0 -11 11t11 11q13 0 40 1q27 2 41 2q11 0 11 -11t-11 -11
q-12 0 -31 -1l6 -871q1 0 23 1.5t33 1.5q64 0 191 3t190 3q0 6 0.5 35.5t0 41.5t-2 33t-5.5 37q-2 10 8.5 12.5t13.5 -8.5z" />
    <glyph glyph-name="M" unicode="M" horiz-adv-x="691" 
d="M270 216q21 3 54 2l-241 490l4 -829q46 1 74 7q10 2 12.5 -8.5t-8.5 -13.5q-32 -7 -88 -7q-64 0 -86 -2q-11 -1 -12 10t10 12q24 3 76 2l-4 872h-59q-11 0 -11 11t11 11h133q11 0 11 -11t-11 -11h-48l250 -512l238 517h-1q-57 -5 -86 -5q-11 0 -11 11t11 11q28 0 85 4
q57 5 86 5q11 0 11 -11t-11 -11q-25 0 -59 -3l-2 -3l1 -874q43 1 69 6q11 2 13 -9t-9 -13q-29 -6 -81 -6q-56 0 -78 -3q-11 -1 -12 10t10 12q23 3 66 3l-1 826l-225 -490q28 -1 41 -1q11 0 11 -11t-11 -11q-8 0 -61.5 2.5t-58.5 -1.5q-11 -1 -12 10t10 12z" />
    <glyph glyph-name="N" unicode="N" horiz-adv-x="609" 
d="M11 767q15 1 137 1q11 0 11 -11t-11 -11q-4 0 -57 1q14 -33 39 -86q34 -73 46 -100q5 -10 9 -31q5 -21 8 -29q42 -104 100 -225q11 -22 43 -79q29 -51 42 -82q4 -8 16.5 -38.5t17.5 -41.5l17 -37q12 -25 20 -40t21 -34l24 -37q0 60 -2 184t-2 188q0 18 4 91q3 55 0 89
q-7 102 -10 158q-1 53 0 90q1 39 7 57q-43 0 -67 -7q-11 -3 -14 8t8 14q20 5 45.5 6.5t62.5 0t44 -1.5q11 0 11 -11t-11 -11q-6 0 -56 2q0 -2 -1 -4q-6 -13 -7 -54q-1 -37 0 -88q2 -56 10 -157q3 -37 0 -92q-4 -76 -4 -90q0 -64 2 -190t2 -188q12 1 36 2t35 2t12 -10
t-10 -12t-41 -3q-30 -1 -47 -3q-4 -2 -8 -1q-24 -2 -45 -7q-10 -2 -12.5 8.5t8.5 13.5q14 3 31 5q-13 17 -25.5 37.5t-21 36t-20.5 40.5l-16 38q-6 11 -18.5 41t-15.5 38q-13 30 -41 79q-35 62 -44 80q-56 117 -100 227q-4 10 -9 32q-4 19 -8 28q-2 5 -46 98q-24 51 -37 83
q-2 -11 -3 -29q-1 -30 0 -78q2 -87 7 -135q3 -44 2.5 -69.5t-3 -70t-2.5 -67.5q0 -67 2 -199.5t2 -197.5q26 0 47 1q11 1 12 -10t-10 -12q-19 -1 -125 -1q-11 0 -11 11t11 11h30h24q0 65 -2 197.5t-2 199.5q0 26 2.5 69.5t3 68t-2.5 67.5q-5 49 -7 137q-1 48 0 79q2 27 5 41
q-22 -1 -40 -2q-11 -1 -12 10t10 12z" />
    <glyph glyph-name="O" unicode="O" horiz-adv-x="548" 
d="M283 785q2 1 3 1q26 2 52 -7.5t41.5 -19.5t40.5 -29q20 -16 58 -70q40 -57 46 -80q22 -107 9 -257q-13 -149 -48 -253q-31 -91 -54 -129q-47 -77 -115 -83q-75 -7 -131 12.5t-99 77.5q-17 23 -28 58q-12 36 -16 58.5t-9 71t-6 56.5q-19 150 0 255l9 51l8 51q3 17 10 44
t16 44t23.5 38t35.5 38.5t50 33.5q23 13 34.5 19t30 11.5t39.5 7.5zM293 764q-30 -2 -49 -10q-19 -7 -55 -27q-26 -14 -45 -29q-19 -16 -32.5 -35.5t-22 -34.5t-14.5 -41t-9 -42t-8 -49l-9 -53q-19 -103 0 -249l6 -58q5 -47 8.5 -67.5t14 -53.5t26.5 -55q38 -51 88.5 -68.5
t121.5 -11.5q57 5 98 72q23 38 53 126q34 100 46.5 247t-9.5 249q-4 20 -42 73q-36 52 -54 65q-22 18 -36 27.5t-35 17t-41 7.5h-1z" />
    <glyph glyph-name="P" unicode="P" horiz-adv-x="480" 
d="M79 753l8 -539h2q58 4 112.5 18.5t106 40.5t88.5 69t49 98q3 13 3.5 28.5t-0.5 26t-3.5 30t-3.5 28.5q-10 93 -66 141q-55 45 -175 57q-59 6 -121 2zM4 766q91 18 199 7q126 -13 186 -63q63 -52 74 -155q1 -7 3.5 -27.5t3.5 -31.5t0.5 -28.5t-3.5 -31.5q-14 -61 -54 -108
t-95 -74.5t-111.5 -42.5t-115.5 -19h-4l5 -299q7 -1 26 -1h29q11 0 11 -11t-11 -11t-32 0.5t-31 0.5q-36 0 -62 -3q-11 -1 -12 10t10 12q22 2 50 2l-13 859q-27 -2 -49 -7q-11 -2 -13 9t9 13z" />
    <glyph glyph-name="Q" unicode="Q" 
d="M219 761q-28 -1 -46.5 -8t-48.5 -26q-93 -59 -116 -183q-5 -27 -7 -59q-2 -33 -2.5 -54t0 -64t0.5 -56v-31v-34q0 -5 0.5 -31t1 -35.5t2 -31.5t3.5 -34.5t4.5 -30.5t6.5 -33l8 -28q23 -67 70 -99q53 -37 141 -28q57 6 103 99q43 87 65 221q22 126 18 240q-4 116 -32 158
q-5 7 -16 24l-18 28q-7 11 -18 25.5t-21 25.5q-46 49 -93 46q-2 -1 -5 -1zM133 -120q-19 -8 -53 -53l-28 -38l-1 -2q81 42 142 29q24 -5 59 -29q8 -5 28 -19.5t31 -21.5q70 -46 116 -21q31 16 58 42t36 53q10 32 -4 49q-13 14 -38 13q-26 -2 -46.5 -22t-20.5 -53
q0 -11 -11 -11t-11 11q0 42 27 68t61 28q36 3 55 -20q22 -26 8 -69q-10 -33 -40 -62t-64 -47q-58 -30 -139 23q-11 7 -30 21l-28 20q-32 21 -51 25q-61 13 -143 -35q-22 -12 -33 -21l-15 -23q0 -1 -2 -4.5t-3 -4.5q-3 -4 -4.5 -5.5t-3.5 -2.5q-7 -3 -12 2q-4 3 -4 7v3
q3 22 28 43q7 10 14 18l23 31l29 38q26 35 45 50q-14 6 -26 15q-52 36 -77 110q-5 15 -9 30.5t-7 33.5t-5 31.5t-3.5 35.5t-2 33t-1 35.5t-0.5 31.5v34v31q0 12 -0.5 55.5t0 65t2.5 55.5t7 61q25 133 126 197q30 19 50 27.5t48 10.5h1q64 10 122 -52l22 -27q12 -16 19 -27
l19 -29l15 -23q32 -48 36 -169q4 -115 -18 -245q-23 -138 -67 -226q-52 -105 -121 -112q-59 -6 -104 7h-1z" />
    <glyph glyph-name="R" unicode="R" horiz-adv-x="518" 
d="M78 744l8 -539h1q58 4 113 18.5t107 41t89.5 69.5t49.5 98q3 13 3.5 28.5t-0.5 26l-3 31.5l-4 28q-5 46 -25 87.5t-55 63.5q-97 61 -284 47zM3 759q252 31 371 -44q40 -25 62.5 -71t27.5 -96q1 -6 3.5 -27t3.5 -32.5t0.5 -29t-3.5 -31.5q-28 -120 -158 -187l134 -354
q21 1 53 1q11 0 11 -11t-11 -11q-86 0 -139 -9q-11 -2 -13 9t9 13q32 5 67 7l-131 346q-91 -41 -201 -49h-3l5 -300q7 0 25.5 -0.5t28.5 -0.5q11 0 11 -11t-11 -11q-9 0 -38.5 0.5t-48 0t-36.5 -3.5q-11 -2 -13 9t9 13q22 3 51 4l-13 860q-24 -3 -51 -6q-11 -1 -12 10t10 12
z" />
    <glyph glyph-name="S" unicode="S" horiz-adv-x="512" 
d="M452 737q-5 -32 0 -90q0 -6 2 -26q4 -5 1 -11q3 -36 3 -57q0 -11 -11 -11t-11 11q0 22 -3 60q-6 8 -10 20q-6 17 -8 21q-17 33 -50 57t-71 32q-44 12 -87.5 5.5t-79 -24t-59 -52t-26.5 -78.5q-3 -23 -3 -51.5t8 -47.5q23 -55 108 -75q17 -4 75 -12q50 -7 73 -13
q73 -21 121.5 -74.5t66 -121t9.5 -142.5q-6 -51 -31 -94.5t-69 -65.5q-12 -6 -27.5 -10t-35 -7t-26.5 -5q-50 -9 -99.5 -6t-94 24.5t-77.5 53t-51 78.5t-15 102q2 31 3.5 45t12 37t30.5 39q46 39 125 43q81 5 128 -30q24 -19 32 -77q5 -39 -12 -72q-6 -10 -15.5 -4.5
t-4.5 14.5q15 27 10 58q-7 50 -24 63q-40 31 -113 27q-72 -5 -112 -38q-16 -14 -24.5 -32t-10 -31.5t-3.5 -43.5q-5 -80 40 -140t118 -83t153 -5q9 2 27.5 5t32 6.5t23.5 8.5q38 19 60.5 57.5t27.5 84.5q8 71 -9 135q-17 63 -61 111.5t-111 67.5q-22 7 -70 13q-54 8 -77 13
q-95 22 -123 88q-10 23 -10 55.5t3 53.5q5 67 49.5 111.5t105.5 58t123 -0.5q40 -9 74.5 -32.5t55.5 -56.5q-2 38 2 65q2 10 12.5 8.5t9.5 -12.5z" />
    <glyph glyph-name="T" unicode="T" horiz-adv-x="590" 
d="M213 -124q18 2 24.5 2t21.5 -3t19 -3q3 0 6 -1l5 884q-185 -2 -277 -2q1 -7 2.5 -21.5t2.5 -22.5q4 -37 -2 -59q-3 -11 -14 -8t-8 14q6 18 2 51q0 6 -2.5 26.5t-3.5 29.5q-1 11 10 12h3h1q94 0 276.5 1.5t269.5 1.5q3 3 7 3q5 0 9 -3h4q11 0 11 -11t-11 -11q7 -70 7 -107
q0 -11 -11 -11t-11 11q0 37 -7 107q-85 0 -236 -1l-5 -883q8 0 19 2q38 4 51 4q11 0 11 -11t-11 -11q-12 0 -48 -4q-35 -4 -52 -2q-9 1 -22 3.5t-17 2.5t-18 -2q-11 -2 -13.5 8.5t7.5 13.5z" />
    <glyph glyph-name="U" unicode="U" horiz-adv-x="621" 
d="M-2 769q20 4 43 4t50.5 -2t40.5 -2q11 0 11 -11t-11 -11q-16 0 -49 2q0 -18 -4 -162t-4 -238q0 -155 7 -232q4 -52 11 -85q8 -34 18 -47q2 -4 10 -15t12 -16t11 -12t13 -11q39 -25 90 -37t100 -6q52 6 91 32q39 27 56 75q21 60 29.5 136t7.5 127t-7 146.5t-7 133.5
q0 11 3 106q2 63 -7 103v2q-31 -1 -60 -3q-11 -1 -12 10t10 12q66 5 149 5q11 0 11 -11t-11 -11q-34 0 -65 -1q10 -42 7 -107q-3 -94 -3 -105q1 -38 5.5 -106.5t6.5 -115.5t1 -107t-10 -115.5t-28 -106.5q-19 -54 -63 -84t-101 -37q-53 -6 -108 6.5t-97 40.5
q-7 5 -15.5 13.5t-13 14t-13 17.5t-10.5 13q-13 17 -21 56q-7 35 -12 88q-7 78 -7 234q0 94 4 238.5t4 163.5q-34 2 -59 -4q-10 -2 -12.5 8.5t8.5 13.5z" />
    <glyph glyph-name="V" unicode="V" horiz-adv-x="666" 
d="M-71 771q27 -8 77 -7q62 2 83 -1q11 -2 9.5 -12.5t-11.5 -9.5q-20 3 -53 2l255 -828l265 828q-38 -2 -66 2q-10 2 -8.5 12.5t12.5 9.5q28 -4 70 -2q75 5 83 5q11 0 11 -11t-11 -11q-15 0 -67 -4l-275 -858q68 -2 72 -2q11 0 11 -11t-11 -11t-70 2l1 -2l-22 -6l-2 8
q-45 1 -75 -4q-11 -1 -12.5 9.5t8.5 12.5q30 4 72 4l-264 856h-4q-54 -1 -84 7q-11 3 -8 14t14 8z" />
    <glyph glyph-name="W" unicode="W" horiz-adv-x="961" 
d="M-80 759q48 11 152 11q11 0 11 -11t-11 -11h-52l311 -853l11 -1l124 424l-159 434q-24 0 -42 -4q-11 -2 -13 9t9 13q14 2 31.5 3.5t29.5 1.5t32 -0.5t29 -0.5q11 0 11 -11t-11 -11q-10 0 -27.5 0.5t-25.5 0.5l146 -399l116 396q-42 -2 -62 -2q-11 0 -11 11t11 11
q20 0 60.5 1.5t60.5 1.5q11 0 11 -11t-11 -11q-16 0 -36 -1l-126 -431l146 -399l247 845h-4q-36 3 -56 -3q-11 -3 -14 8t8 14q24 6 64 3q6 0 17.5 -1t13.5 -1q18 -2 29 -2t11 -11t-11 -11q-12 0 -31 2h-5l-256 -878q40 -4 57 -4q11 0 11 -11t-11 -11q-16 0 -72 6
q-43 4 -66 1q-11 -1 -12.5 9.5t8.5 12.5q24 3 61 0l-145 395l-114 -389q23 -1 41 -1q11 0 11 -11t-11 -11q-22 0 -86 2l-4 -2l-1 2q-32 1 -53 1q-11 0 -11 11t11 11q19 0 45 -1l-310 852q-40 -2 -71 -10q-11 -2 -13.5 8.5t7.5 13.5z" />
    <glyph glyph-name="X" unicode="X" horiz-adv-x="592" 
d="M1 757q24 13 67 11q8 -1 33 -3q20 -2 30 -2q11 0 11 -11t-11 -11t-32 2l-8 1l198 -406l206 412q-35 -2 -57 -2q-11 0 -11 11t11 11q22 0 66 3t67 3q11 0 11 -11t-11 -11q-20 0 -50 -2l-220 -439l205 -421h63q11 0 11 -11t-11 -11h-74l-2 -1v1h-79q-11 0 -11 11t11 11h68
l-193 396l-198 -397q25 1 48 1q11 0 11 -11t-11 -11q-29 0 -59 -1l-3 -6l-11 6l-39 -2q-11 -1 -12 10t10 12l41 2l211 422l-211 433q-36 1 -55 -9q-9 -5 -14.5 4.5t4.5 15.5z" />
    <glyph glyph-name="Y" unicode="Y" horiz-adv-x="501" 
d="M6 770q21 -4 57 -2q57 3 61 3q11 0 11 -11t-11 -11q-13 0 -42 -2q10 -12 18.5 -24.5t22 -35.5t14.5 -25q39 -65 100 -145q20 26 79 117q49 76 82 115h-62q-11 0 -11 11t11 11h144q11 0 11 -11t-11 -11h-53l-2 -2q-34 -38 -90 -125q-57 -89 -84 -124l1 -621q35 0 60 4
q11 1 12.5 -9.5t-8.5 -12.5q-23 -3 -48 -3.5t-58 0.5t-46 1q-11 0 -11 11t11 11q2 0 66 -1l-1 613q-68 89 -110 159q-5 7 -15 24.5t-15 25.5t-14.5 20.5t-18.5 21.5q-1 2 -2 3q-31 -1 -52 3q-11 2 -9 13t13 9z" />
    <glyph glyph-name="Z" unicode="Z" horiz-adv-x="619" 
d="M553 -114v-12l-516 3l-9 -13l-18 12l3 5v18h12l557 853l-537 -4q-3 -22 0 -61q6 -68 6 -77q0 -11 -11 -11t-11 11q0 1 -6 75q-4 49 2 77q1 1 1 2v6l580 4v-18l3 -2l-558 -855l480 -3q-1 18 -1.5 37t0 45t0.5 35q0 11 11 11t11 -11q0 -10 -0.5 -38t0 -46.5t2.5 -36.5
q0 -3 -1 -6z" />
    <glyph glyph-name="bracketleft" unicode="[" horiz-adv-x="236" 
d="M26 -211v22h5l-10 888h16v5h175v-22h-169l10 -870l173 4v-22z" />
    <glyph glyph-name="backslash" unicode="\" horiz-adv-x="320" 
d="M-52 688l20 10l343 -694l-20 -10z" />
    <glyph glyph-name="bracketright" unicode="]" horiz-adv-x="236" 
d="M26 -211v22l178 4l-10 867h-157v22h175v-5h4l10 -888v-17z" />
    <glyph glyph-name="asciicircum" unicode="^" horiz-adv-x="438" 
d="M81 278l-20 8l169 400l-1 1l1 1l3 6l6 -2l10 5l180 -388l-20 -10l-167 360z" />
    <glyph glyph-name="underscore" unicode="_" horiz-adv-x="536" 
d="M-17 -117v22h543v-22h-543z" />
    <glyph glyph-name="grave" unicode="`" horiz-adv-x="187" 
d="M31 697l16 16l131 -133l-16 -16z" />
    <glyph glyph-name="a" unicode="a" 
d="M304 512l-48 151l-44 -154zM202 716q20 3 52 4q41 1 49 2q11 1 12 -10t-10 -12q-13 -1 -37 -2l217 -685h50q11 0 11 -11t-11 -11h-120q-11 0 -11 11t11 11h47l-152 477l-105 -4l-135 -478q19 1 52 4q11 1 12 -10t-10 -12q-79 -6 -122 -6q-11 0 -11 11t11 11q21 0 45 1
l196 691q-22 -1 -37 -4q-11 -2 -13 9t9 13z" />
    <glyph glyph-name="b" unicode="b" horiz-adv-x="504" 
d="M119 688l1 -333q15 0 61 -1.5t67.5 -1t57 4.5t62 14.5t49.5 28.5q26 19 40.5 52.5t15.5 71.5q0 38 -13 70q-14 33 -41 51q-68 46 -188 46q-21 0 -61.5 -1.5t-50.5 -1.5zM332 339q-25 -5 -55 -7t-51.5 -2t-56 1.5t-48.5 1.5l1 -320q100 0 176 13q74 12 128 50q34 24 44 70
q9 47 -8 91q-16 48 -50.5 77t-78.5 25h-1zM29 712q43 -3 65.5 -3t67.5 2t69 2q127 0 200 -50q32 -22 48 -59.5t16 -79.5q-1 -42 -17.5 -80t-46.5 -62q-22 -16 -48 -27q35 -12 61 -42t39 -69q10 -34 11 -67.5t-14 -66.5q-14 -32 -42 -52q-23 -16 -48 -28q-26 -12 -60 -19
l-56 -11q-22 -5 -67 -6.5t-58.5 -2.5t-64 -0.5t-53.5 0.5q-11 0 -11 11t11 11h35h34l-3 674q-39 0 -70 3q-11 1 -10 12t12 10z" />
    <glyph glyph-name="c" unicode="c" horiz-adv-x="434" 
d="M421 690q-5 -28 -1 -81q6 -22 4 -48q0 -3 -2 -5v-2q0 -11 -11 -11t-11 11q0 14 -2 52q-15 49 -66 69q-32 14 -71 9t-69 -29q-144 -114 -158 -354q-4 -65 10 -119q13 -55 39.5 -90.5t59 -56.5t68.5 -27t69.5 4.5t61 35t44 68.5t16.5 102q0 11 11 11t11 -11
q0 -62 -18.5 -110.5t-49 -76.5t-69 -39.5t-79.5 -5.5q-87 14 -145.5 98t-50.5 219q15 249 166 370q35 27 80 33t82 -10q34 -14 56 -41q0 21 3 39q2 11 13 9t9 -13z" />
    <glyph glyph-name="d" unicode="d" horiz-adv-x="506" 
d="M119 689l3 -666q14 0 51 -2q42 -3 65 -3q75 1 112 26q54 37 86.5 115.5t37.5 173t-19.5 176.5t-74.5 125q-51 43 -173 52q-40 3 -88 3zM8 21q26 6 92 1l-3 666q-28 0 -82 -3q-11 -1 -12 10t10 12q127 6 196 1q129 -10 185 -58q55 -47 81 -133.5t21 -185t-39.5 -182
t-94.5 -123.5q-42 -29 -124 -30q-24 0 -66 3q-28 1 -37 1q-3 -1 -6 -1q-12 0 -27 1h-1h-1q-65 4 -88 -1q-10 -2 -12.5 8.5t8.5 13.5z" />
    <glyph glyph-name="e" unicode="e" horiz-adv-x="426" 
d="M290 593q-3 -28 1 -88t1 -92q-1 -11 -12 -10t-10 12q3 29 0 79q-148 0 -201 -4q-4 -178 -4 -212q0 -27 3 -87t3 -91.5t-6 -89.5q44 0 153.5 1t169.5 1q0 9 0.5 24.5t0.5 21.5q1 35 -1 57q-1 11 10 12t12 -10q2 -24 1 -59q0 -7 -0.5 -18.5t-0.5 -21.5v-17v-1
q0 -11 -11 -11q-2 0 -5 1q-62 0 -176 -1t-161 -1q-3 -1 -7 -1q-1 0 -3 1h-36q-11 0 -11 11t11 11h32q6 38 6 82.5t-3 100.5t-3 85q0 26 4 220v1v4q3 118 -1 194q-18 0 -34 -2q-11 -1 -12 10t10 12q72 6 197 3q180 -6 198 -6q11 0 11 -11q0 -4 -3 -7q0 -8 1.5 -30t1.5 -31.5
t-2 -32.5q-2 -11 -13 -9t-9 13q2 21 2 28.5t-1.5 27.5t-1.5 30q-9 0 -185 6q-84 2 -138 0q4 -74 2 -186q53 4 198 4q-3 48 0 79q1 11 12 10t10 -12z" />
    <glyph glyph-name="f" unicode="f" horiz-adv-x="426" 
d="M290 593q-3 -28 1 -88t1 -92q-1 -11 -12 -10t-10 12q3 29 0 79q-148 0 -201 -4q-4 -178 -4 -212q0 -27 3 -83t3 -102t-6 -85h71q11 0 11 -11t-11 -11h-137q-11 0 -11 11t11 11h44q6 38 6 83t-3 101.5t-3 85.5q0 26 4 220v1v4q3 118 -1 194q-18 0 -34 -2q-11 -1 -12 10
t10 12q72 6 197 3q180 -6 198 -6q11 0 11 -11q0 -4 -3 -7q0 -8 1.5 -30t1.5 -31.5t-2 -32.5q-2 -11 -13 -9t-9 13q2 21 2 28.5t-1.5 27.5t-1.5 30q-9 0 -185 6q-84 2 -138 0q4 -74 2 -186q53 4 198 4q-3 48 0 79q1 11 12 10t10 -12z" />
    <glyph glyph-name="g" unicode="g" horiz-adv-x="555" 
d="M229 199q9 39 54 59q41 18 79 7q19 -6 49 -20q26 -13 38 -16q37 -10 77 31q8 8 16 0t0 -16q-50 -49 -99 -36q-8 2 -17 6q8 -31 8 -98q0 -24 -1.5 -65t-1.5 -51q0 -11 -11 -11t-11 11q0 10 1.5 51t1.5 65v9q-23 -76 -80 -112.5t-124 -26.5q-87 14 -145.5 98t-50.5 219
q15 249 166 370q35 27 80 33t82 -10q34 -14 56 -41q0 21 3 39q2 11 13 9t9 -13q-5 -28 -1 -81q6 -22 4 -48q0 -3 -2 -5v-2q0 -11 -11 -11t-11 11q0 14 -2 52q-15 49 -66 69q-32 14 -71 9t-69 -29q-144 -114 -158 -354q-4 -65 10 -119q13 -55 39.5 -90.5t59 -56.5t68.5 -27
t69 4t60.5 34.5t44.5 68.5t17 101l-2 4q-1 3 -1 6q-26 12 -43 17q-30 9 -64 -6q-35 -15 -41 -42q-3 -11 -13.5 -8.5t-8.5 12.5z" />
    <glyph glyph-name="h" unicode="h" horiz-adv-x="423" 
d="M-1 17q15 2 36 1l-3 676q-19 2 -32 2q-11 0 -11 11t11 11q14 0 48 -3q29 -3 46 -2q11 1 12 -10t-10 -12q-18 -1 -42 1l1 -191l283 1l2 194q-23 0 -41 -2q-11 -1 -12 10t10 12q16 2 33 2t39.5 -0.5t32.5 -0.5q11 0 11 -11t-11 -11q-9 0 -40 1l-6 -679q29 -2 42 -1
q11 1 12 -10t-10 -12q-13 -1 -53 2q-31 1 -49 -2q-11 -2 -13 9t9 13q17 3 40 2l4 462l-283 -1l2 -462q37 -3 48 -3t11 -11t-11 -11q-10 0 -54 3q-31 3 -50 0q-10 -1 -11.5 9.5t9.5 12.5z" />
    <glyph glyph-name="i" unicode="i" horiz-adv-x="155" 
d="M66 711h28h29q11 0 11 -11t-11 -11h-48q-10 -135 -7 -336q1 -16 4 -145t3 -196q7 0 27.5 -1t31.5 -1t11 -11t-11 -11q-13 0 -39.5 1t-46 0.5t-37.5 -3.5q-11 -2 -13 9t9 13q20 3 46 4q0 67 -3 196t-4 144q-3 201 7 337h-45q-11 0 -11 11t11 11h57h1z" />
    <glyph glyph-name="j" unicode="j" horiz-adv-x="417" 
d="M279 711q38 9 117 9q11 0 11 -11t-11 -11h-39q0 -32 1 -94.5t1 -93.5q0 -18 -4 -79q-4 -47 -1 -76q15 -172 -11 -258q-12 -39 -43.5 -67.5t-71.5 -40.5q-56 -19 -111.5 5t-91.5 74q-23 32 -33.5 68.5t-4 76t33.5 71.5q31 38 68 45t62 -15q26 -22 31 -58.5t-16 -77.5
q-6 -10 -15.5 -4.5t-4.5 14.5q18 37 14 65t-23 44q-12 9 -27 11.5t-34.5 -7t-38.5 -31.5q-33 -45 -30 -94.5t36 -94.5t81.5 -66t97.5 -6q35 12 62 36.5t37 57.5q26 82 11 250q-3 32 1 80q4 60 4 77q0 31 -1 93t-1 94q-29 -2 -50 -8q-11 -2 -13.5 8.5t7.5 13.5z" />
    <glyph glyph-name="k" unicode="k" horiz-adv-x="513" 
d="M25 710q15 6 33.5 7t46.5 0t32 -1q11 0 11 -11t-11 -11q-9 0 -26 0.5t-19 0.5l-4 -488l274 480q-28 0 -45 -5q-11 -2 -13.5 8.5t7.5 13.5q15 3 32 4.5t44.5 0.5t30.5 -1q11 0 11 -11t-11 -11q-8 0 -31 1l-177 -309l222 -362q3 0 26 -1.5t34 -1.5t11 -11t-11 -11
q-14 0 -38 1.5t-28 1.5l-4 -3l-2 3q-28 1 -48 -3q-11 -2 -13 9t9 13q17 3 38 3l-208 340l-106 -186l-4 2l-2 -161q7 -1 22 -2q21 -1 31 -1q11 0 11 -11t-11 -11q-10 0 -32 1q-24 2 -35 2q-40 1 -58 -8q-10 -5 -15 5t5 15q21 10 60 10l6 684q-23 0 -39 -5q-10 -4 -13.5 6.5
t7.5 13.5z" />
    <glyph glyph-name="l" unicode="l" horiz-adv-x="424" 
d="M408 130q2 -23 4 -66.5t2 -51.5q0 -9 -7 -11q-3 -6 -10 -6q-21 -1 -88.5 -4.5t-110 -5.5t-98.5 -0.5t-94 7.5q-11 2 -9 13t13 9q23 -4 47 -6l-5 677q-31 -2 -49 -2q-11 0 -11 11t11 11q18 0 55 2q38 3 57 3q11 0 11 -11t-11 -11q-17 0 -41 -2l5 -679q77 -1 105 -0.5
t109 5.5l99 5q-6 110 -6 111q-1 11 10 12t12 -10z" />
    <glyph glyph-name="m" unicode="m" horiz-adv-x="558" 
d="M9 719h106q11 0 11 -11t-11 -11h-31l190 -397l185 400q-43 -3 -66 -3q-11 0 -11 11t11 11q22 0 67 3q45 4 68 4q11 0 11 -11t-11 -11q-19 0 -47 -2v-1l2 -1l-2 -4l2 -682q33 1 52 4q11 2 13 -9t-9 -13q-22 -3 -64 -4q-42 0 -61 -3q-11 -2 -13 9t9 13q20 3 51 3l-2 635
l-169 -367q25 -1 31 -1q11 0 11 -11t-11 -11q-7 0 -21.5 0.5t-19.5 0.5v-1l-2 1q-4 1 -6 1q-28 0 -44 -7q-10 -4 -14 6t6 14q16 7 38 8l-177 370l-3 -638q35 0 57 4q11 2 13 -9t-9 -13q-25 -4 -71 -4q-47 0 -68 -3q-10 -1 -11.5 9.5t9.5 12.5q21 3 58 3l3 683h-50
q-11 0 -11 11t11 11z" />
    <glyph glyph-name="n" unicode="n" horiz-adv-x="490" 
d="M17 708q22 2 55 2q6 0 24.5 -0.5t28.5 -0.5q11 0 11 -11t-11 -11q-7 0 -41 1l36 -88l42 -100l36 -82l43 -95q8 -18 33 -62q22 -38 33 -64q48 -117 86 -171q0 42 1 132t1 159t-2 133q0 9 -3 52q-3 38 -4 70q-2 46 -1 71q1 28 5 42q-30 0 -48 -5q-11 -3 -14 8t8 14
q16 4 36 5t49 0t34 -1q11 0 11 -11t-11 -11q-6 0 -41 1q-1 -1 -1 -2q-5 -10 -6 -41q-1 -28 1 -69q1 -27 4 -70t3 -53q2 -64 2 -136t-1 -162t-1 -136q15 1 53 3q11 1 12 -10t-10 -12q-48 -2 -67 -4q-5 -3 -10 -1q-17 -2 -33 -6q-10 -2 -12.5 8.5t8.5 13.5l20 4
q-40 56 -89 177q-10 23 -32 61q-26 46 -34 63q-41 87 -154 359q-1 -10 -2 -23q-1 -27 1 -69q1 -29 4 -73t3 -50q3 -64 3 -136.5t-1.5 -163t-1.5 -136.5q19 0 34 1q11 1 12 -10t-10 -12q-15 -1 -99 -1q-11 0 -11 11t11 11h23h18q0 46 1.5 136.5t1.5 162.5t-3 137q0 5 -3 49
t-4 73q-2 43 -1 71q1 24 4 38q-15 -1 -28 -2q-11 -1 -12 10t10 12z" />
    <glyph glyph-name="o" unicode="o" horiz-adv-x="437" 
d="M223 725h2q37 3 84 -28q29 -19 62 -62q35 -44 44 -76q19 -87 8.5 -205.5t-39.5 -202.5q-25 -75 -43 -104q-37 -63 -93 -67q-24 -4 -62.5 -1.5t-62.5 18.5q-50 33 -77 109q-28 76 -36 172q-7 88 1.5 174t30.5 137q22 53 73.5 92t107.5 44zM230 703q-51 -2 -99 -37.5
t-69 -84.5q-20 -48 -28.5 -131.5t-1.5 -169.5q8 -94 34 -165t69 -100q29 -19 111 -13q45 3 76 56q17 27 42 101q27 80 37.5 196t-8.5 198q-7 28 -39 69q-31 39 -57 57q-37 25 -64 24h-3z" />
    <glyph glyph-name="p" unicode="p" horiz-adv-x="406" 
d="M87 688l6 -422q47 4 89 15.5t83 31.5t69.5 53.5t37.5 76.5q2 10 2.5 22t-0.5 20.5t-2.5 24t-2.5 22.5q-10 107 -125 142q-66 20 -157 14zM24 703q129 22 226 -8q129 -40 141 -161q0 -5 2 -21.5t3 -25.5t0.5 -23t-2.5 -25q-11 -50 -43 -87.5t-76.5 -59t-89 -33
t-91.5 -15.5l3 -233h19h22q11 0 11 -11t-11 -11q-83 0 -99 -2q-11 -1 -12 10t10 12q16 2 38 2l-10 675q-19 -2 -37 -5q-11 -2 -13 9t9 13z" />
    <glyph glyph-name="q" unicode="q" horiz-adv-x="488" 
d="M21 -116l14 16l19 26q16 23 21 30q20 26 36 38q-36 18 -62 57q-11 16 -19.5 35t-13.5 43l-7 40q-3 16 -5 47l-2 40q0 11 0.5 44t0.5 37q0 9 -0.5 36t0 41t1 37t3 42.5t5.5 37.5q22 113 107 162q2 1 11 6t11.5 6.5t9.5 5t11 5t10 3.5t12 3l14 2h2q20 2 41.5 -6.5
t30.5 -15.5l30 -23q85 -70 88 -253q3 -144 -39 -275q-24 -74 -40 -104q-35 -64 -89 -68q-50 -4 -85 6q-19 -9 -44 -42l-20 -28q46 22 88 19q40 -2 87 -31q8 -5 22 -15l24 -16q10 -6 19 -10q32 -14 61 1q68 35 80 72q9 26 -14 42q-24 17 -48 6q-27 -12 -27 -55q0 -11 -11 -11
t-11 11q0 57 40 75q36 16 69 -8q36 -26 23 -67q-15 -45 -91 -85q-38 -19 -80 -1q-10 5 -21.5 12t-25.5 16.5t-21 13.5q-42 26 -77 28q-49 3 -107 -34q-13 -8 -16 -10l-12 -17q-1 -1 -2.5 -3.5t-2.5 -3.5q-2 -3 -4 -4.5t-3 -2.5q-7 -3 -13 2q-3 3 -3 8v3q3 15 20 29zM205 702
q-6 0 -11.5 -1t-9.5 -1.5t-9 -2.5l-7 -3q-3 -1 -9 -4t-9 -4l-10 -6q-7 -5 -11 -7q-75 -43 -95 -146q-4 -22 -6.5 -50.5t-3 -41t0 -54.5t0.5 -44v-37v-44q0 -9 1 -39.5t4 -44.5t7.5 -37t12 -40t17.5 -32q27 -39 63 -53q37 -13 90 -9q42 3 72 57q16 28 39 99q39 126 37 268
q-3 175 -80 236q-19 16 -27 22t-23.5 13t-29.5 6h-3z" />
    <glyph glyph-name="r" unicode="r" horiz-adv-x="436" 
d="M87 688l6 -422q47 4 89 15.5t83 31.5t69.5 53.5t37.5 76.5q2 10 2.5 22t-0.5 20.5t-2.5 24t-2.5 22.5q-10 107 -125 142q-66 20 -157 14zM24 703q129 22 226 -8q129 -40 141 -161q0 -5 2 -21.5t3 -25.5t0.5 -23t-2.5 -25q-21 -96 -124 -148l105 -276q18 1 40 1
q11 0 11 -11t-11 -11q-61 0 -109 -7q-11 -1 -12.5 9.5t8.5 12.5q25 3 50 5l-102 267q-68 -29 -156 -37l3 -233h19h22q11 0 11 -11t-11 -11q-83 0 -99 -2q-11 -1 -12 10t10 12q16 2 38 2l-10 675q-19 -2 -37 -5q-11 -2 -13 9t9 13z" />
    <glyph glyph-name="s" unicode="s" horiz-adv-x="420" 
d="M370 700q-5 -25 -1 -71q1 -7 2 -21q3 -5 1 -10q3 -29 3 -46q0 -11 -11 -11t-11 11q0 17 -3 47q-5 7 -8 17q-4 13 -6 17q-13 26 -39.5 45t-57.5 26q-83 21 -143 -20t-60 -124q0 -42 5 -54q17 -38 63 -54q22 -8 98 -21q33 -5 55 -11.5t49 -19.5t46.5 -36.5t30.5 -56.5
q9 -26 13 -39t9.5 -37t4.5 -39l-1 -42q-5 -41 -26 -77.5t-56 -53.5q-54 -26 -117 -26t-115 25q-55 26 -87 74q-33 49 -31 114q1 24 3 37.5t11 32t25 32.5q31 24 80.5 31t89.5 -7q47 -14 64 -48q19 -39 -9 -90q-6 -10 -15.5 -4.5t-4.5 14.5q23 42 9 70q-13 25 -51 37
q-36 12 -79.5 6t-69.5 -27q-19 -14 -24.5 -33t-6.5 -51q-2 -59 27 -102t79 -66q47 -23 105 -23t107 24q30 14 48 45.5t22 67.5q4 38 -2 68.5t-22 78.5q-11 30 -27.5 50t-40 31.5t-44.5 17.5q-20 6 -52 11q-78 13 -103 22q-55 20 -75 67q-7 15 -7 62q0 63 32.5 106.5t85.5 59
t113 0.5q65 -17 100 -66q0 25 3 44q2 11 13 9t9 -13z" />
    <glyph glyph-name="t" unicode="t" horiz-adv-x="475" 
d="M253 11q8 0 27 -0.5t25 -0.5q11 0 11 -11t-11 -11q-7 0 -29 0.5t-35 0.5q-44 1 -57 -3q-11 -2 -13.5 8.5t7.5 13.5q14 3 53 3l4 672q-140 -1 -210 -1q8 -54 2 -78q-3 -11 -14 -8t-8 14q5 18 -4 81q-1 11 9 13h4h1q73 0 214.5 1t207.5 1q3 3 7 3q5 0 9 -3h1q11 0 11 -11
q0 -8 -8 -11q0 -6 1 -17t2 -15q2 -29 2 -48q0 -11 -11 -11t-11 11q0 18 -2 46q-1 4 -2 16t-1 18q-65 0 -178 -1z" />
    <glyph glyph-name="u" unicode="u" horiz-adv-x="494" 
d="M-11 705q16 3 35 3t41.5 -1.5t32.5 -1.5q11 0 11 -11t-11 -11q-13 0 -38 2q0 -14 -3.5 -129t-3.5 -190q0 -125 6 -186q3 -41 9 -67q7 -27 15 -37l9 -12q6 -8 10 -12l8 -10q5 -6 10 -9q28 -23 68.5 -32t80.5 -3q41 6 72.5 28t44.5 57q17 47 23.5 108.5t6 100t-5.5 120
t-6 105.5q-1 15 2 86q1 50 -5 82q-23 -1 -46 -3q-11 -1 -12 10t10 12q45 4 120 4q11 0 11 -11t-11 -11h-50q6 -34 5 -84q-3 -70 -2 -85q1 -27 5 -83.5t5.5 -93.5t0.5 -86.5t-8.5 -94t-22.5 -84.5q-15 -42 -51 -67t-83 -32q-44 -6 -89 4t-77 35q-7 6 -13.5 13.5t-16.5 20.5
t-11 13q-11 14 -18 46q-6 28 -10 70q-6 62 -6 188q0 75 3.5 190t3.5 130q-26 1 -45 -3q-11 -2 -13 9t9 13z" />
    <glyph glyph-name="v" unicode="v" horiz-adv-x="521" 
d="M-65 716q21 -7 61 -6q55 1 67 0q11 -1 10 -12t-12 -10q-15 1 -40 1l199 -643l205 642q-28 -1 -49 3q-11 2 -9 13t13 9q22 -4 58 -2q55 4 62 4q11 0 11 -11t-11 -11q-13 0 -52 -3l-214 -673q44 -1 53 -1q11 0 11 -11t-11 -11q-1 0 -59 1l-14 -4l-1 4q-34 0 -58 -2
q-11 -1 -12 10t10 12q23 2 53 2l-208 671h-1q-42 -1 -68 6q-11 3 -8 14t14 8z" />
    <glyph glyph-name="w" unicode="w" horiz-adv-x="764" 
d="M-66 703q40 9 121 9q11 0 11 -11t-11 -11h-19h-19l245 -672l6 -1l97 334l-125 342q-17 -1 -31 -3q-11 -2 -13 9t9 13q19 3 97 3q11 0 11 -11t-11 -11h-20h-19l112 -306l89 304q-30 -1 -46 -1q-11 0 -11 11t11 11q16 0 48 1t48 1q11 0 11 -11t-11 -11h-27l-99 -340
l113 -309l193 661q-28 2 -44 -3q-11 -3 -14 8t8 14q19 5 51 2q5 0 14 -1t11 -1q14 -1 23 -1q11 0 11 -11t-11 -11q-10 0 -25 1l-2 1l-202 -692q30 -3 43 -3q11 0 11 -11t-11 -11t-57 5q-34 3 -52 0q-11 -2 -13 9t9 13q18 3 45 1l-111 303l-88 -299q17 -1 30 -1q11 0 11 -11
t-11 -11q-19 0 -57 1.5t-57 1.5q-11 0 -11 11t11 11q14 0 33 -1l-246 671q-30 -2 -55 -8q-10 -2 -12.5 8.5t8.5 13.5z" />
    <glyph glyph-name="x" unicode="x" horiz-adv-x="480" 
d="M-3 702q21 10 56 9q7 -1 27 -3q16 -1 25 -1q11 0 11 -11t-11 -11q-10 0 -27 2h-1l155 -320l163 326q-26 -2 -43 -2q-11 0 -11 11t11 11q17 0 53 2q36 3 54 3q11 0 11 -11t-11 -11q-16 0 -38 -1l-176 -353l163 -335h49q11 0 11 -11t-11 -11h-125q-11 0 -11 11t11 11h51
l-151 310l-155 -310h34q11 0 11 -11t-11 -11q-22 0 -45 -1l-2 -4l-8 4q-17 -1 -36 -2q-11 -1 -12 10t10 12q18 1 34 2l168 336l-169 347q-28 1 -44 -7q-10 -5 -15 5t5 15z" />
    <glyph glyph-name="y" unicode="y" horiz-adv-x="361" 
d="M-33 715q15 -4 43 -3q5 1 15 1.5t18 1t15 0.5q11 0 11 -11t-11 -11q-10 0 -28 -1q26 -29 62 -88q42 -69 55 -87q21 26 62 89q40 62 61 87h-44q-11 0 -11 11t11 11h114q11 0 11 -11t-11 -11h-42q-28 -32 -71 -99q-44 -67 -66 -96l1 -489q25 0 44 4q11 2 13 -9t-9 -13
q-18 -3 -38 -3.5t-47 0.5t-36 1q-11 0 -11 11t11 11q5 0 51 -1l-1 481q-15 19 -66 102q-40 65 -71 96v1q-24 -1 -41 3q-10 3 -7.5 13.5t13.5 8.5z" />
    <glyph glyph-name="z" unicode="z" horiz-adv-x="487" 
d="M431 -4v-7l-410 2l-6 -9l-14 9l-4 3l4 6v13h8l440 672l-420 -3q-2 -17 1 -46q4 -54 4 -61q0 -11 -11 -11t-11 11q0 6 -4 59q-4 40 1 61q1 3 3 6v3l461 3v-16l4 -3l-442 -675l376 -2q-1 10 -1 90q0 11 11 11t11 -11q0 -8 -0.5 -30.5t0 -37t2.5 -27.5q1 -6 -3 -10z" />
    <glyph glyph-name="braceleft" unicode="{" horiz-adv-x="319" 
d="M204 -72q30 18 56 3q22 -13 31 -42t-3 -51q-13 -27 -48 -27q-45 0 -77 30q-34 33 -48 104q-5 23 -9 63q-6 50 -8 62q-10 71 -33 105q-30 44 -94 50q-8 1 -10 8q-10 -1 -12 9q-2 11 9 13q79 14 118 50q33 31 44 83q7 33 10 109q2 82 9 124l1 11q2 12 4.5 20t6.5 15
q19 31 63 44q46 14 77 -8q18 -12 19 -32q0 -16 -11 -32q-10 -15 -25.5 -25t-30.5 -10q-11 0 -11 11t11 11q8 0 19 7t19 18q7 11 7 19q-1 9 -9 15q-23 16 -59 5q-36 -10 -51 -35q-2 -4 -3.5 -9.5t-2.5 -14.5t-2 -14q-7 -40 -9 -120q-3 -78 -10 -114q-13 -59 -51 -94
q-34 -31 -89 -47q52 -12 81 -54q26 -38 37 -115q2 -15 8 -63q4 -38 8 -60q13 -65 43 -93q25 -24 61 -24q21 0 29 15q7 14 1 34.5t-21 29.5t-33 -2q-10 -6 -15.5 3.5t3.5 14.5z" />
    <glyph glyph-name="bar" unicode="|" horiz-adv-x="105" 
d="M71 736h22l3 -923h-22z" />
    <glyph glyph-name="braceright" unicode="}" horiz-adv-x="346" 
d="M59 -75q-10 5 -21 -6q-12 -12 -17 -35q-4 -22 4 -38q8 -17 30 -19q35 -3 68 35q22 26 24 73q1 18 -5 95q-5 64 5.5 111.5t54.5 84.5q26 23 53 35q-38 9 -63 31q-37 31 -51 93q-7 32 -14 115q-7 78 -17 113q0 2 -2.5 10t-3 10.5t-3 8.5t-4 8.5t-4.5 6t-7 7.5q-22 18 -41 9
q-18 -9 -27 -35q-8 -26 1 -48q11 -23 40 -27q10 -2 8.5 -12.5t-12.5 -9.5q-41 6 -56 41q-13 29 -2 63q12 35 38 48q32 15 65 -13q5 -4 9.5 -9t7 -9.5t5 -11.5t4 -10t3.5 -11t3 -10q10 -36 17 -117q7 -82 13 -112q13 -55 44 -82q38 -32 111 -32h2h6q11 0 11 -11t-11 -11
q-56 0 -109 -44q-38 -33 -48 -75q-9 -41 -4 -103q6 -79 5 -98q-2 -55 -30 -86q-40 -47 -86 -43q-34 3 -48 31q-11 23 -5 53q6 28 23 46q21 21 46 10q10 -5 5 -15t-15 -5z" />
    <glyph glyph-name="asciitilde" unicode="~" horiz-adv-x="583" 
d="M124 211q21 4 35 -6.5t18 -27.5t-4 -33.5t-27 -24.5q-41 -16 -72 -4.5t-49 42.5q-18 28 -15.5 66.5t27.5 68.5q41 51 105 51q11 0 22 -2t19.5 -4t19.5 -8t17.5 -9t18.5 -12l16 -12q4 -3 17 -14t15 -13.5t15.5 -15.5t14.5 -13q46 -44 80.5 -62.5t74.5 -5.5q22 6 42 32
t30 61q11 34 6 63t-24 42q-19 12 -45.5 11t-50.5 -14q-24 -14 -34 -34.5t-2 -43.5q2 -6 12 -10q12 -6 27 -7t25 3q8 3 9 7q3 11 14 8t8 -14q-5 -15 -24 -22q-15 -5 -34 -4q-19 2 -34 9q-18 8 -23 22q-12 33 2 60.5t44 44.5q28 15 59.5 16.5t58.5 -14.5q28 -18 34 -56.5
t-7 -73.5q-11 -38 -34.5 -68.5t-52.5 -39.5q-18 -5 -35 -5.5t-32.5 5t-29 11.5t-29 18t-25.5 21t-25 24q-3 2 -9 8q-31 30 -48.5 45t-46.5 29.5t-56 14.5q-53 0 -89 -43q-20 -24 -21.5 -55.5t12.5 -54.5q14 -24 37.5 -33t56.5 4q23 10 18 33q-5 21 -28 17q-11 -2 -13 9t9 13
z" />
    <glyph glyph-name="quoteleft" unicode="&#x2018;" horiz-adv-x="112" 
d="M29 705l22 4l52 -225l-22 -4z" />
    <glyph glyph-name="quoteright" unicode="&#x2019;" horiz-adv-x="140" 
d="M109 716l22 -4l-40 -219l-22 4z" />
    <glyph glyph-name="quotedblleft" unicode="&#x201c;" horiz-adv-x="164" 
d="M109 706l22 2l24 -207l-22 -2zM32 703l22 2l24 -207l-22 -2z" />
    <glyph glyph-name="quotedblright" unicode="&#x201d;" horiz-adv-x="191" 
d="M149 501l-22 4l33 203l22 -4zM62 497l-22 4l33 203l22 -4z" />
    <glyph glyph-name="uni3000" unicode="&#x3000;" horiz-adv-x="1000" 
 />
  </font>
</defs>
</svg>
