<svg xmlns="http://www.w3.org/2000/svg">
<defs>
<font id="BobcaygeonPlainBRK" horiz-adv-x="307" >
  <font-face 
    font-family="Bobcaygeon Plain BRK"
    font-weight="400"
    font-stretch="normal"
    units-per-em="1000"
    panose-1="0 0 0 0 0 0 0 0 0 0"
    ascent="800"
    descent="-200"
    x-height="466"
    cap-height="666"
    bbox="10 -198 726 766"
    underline-thickness="20"
    underline-position="-163"
    unicode-range="U+0020-E001"
  />
<missing-glyph horiz-adv-x="736" 
d="M169 8q-2 2 -2 8h-14q-1 11 -6.5 22.5t-18.5 11.5h-2q-20 -14 -35.5 -21t-39.5 -7q0 10 5.5 17t7.5 17q-4 0 -16.5 0.5t-16.5 1.5q-2 0 -5.5 1t-5.5 1v4q0 8 4 13.5t7 13.5q0 1 0.5 5t1.5 5q0 1 2.5 2.5t3.5 2.5q8 6 11.5 11.5t3.5 15.5q0 9 -12.5 17t-19.5 16
q-9 11 -10.5 28.5t-1.5 31.5v13q0 6 6 11q1 1 6 5t10.5 8.5t10.5 8.5t6 5q3 3 3 7q0 25 -9.5 48t-9.5 48q0 5 0.5 9t3.5 8v19v19q-1 12 -2 30.5t-2.5 35.5t-3.5 43l-11 13v2q0 10 4 18.5t9.5 17t9.5 18t4 20.5t-1 11.5t-1 1.5q-2 2 -6 8t-6 8v3q0 4 5.5 13t12 18t12.5 15.5
t7 6.5h25q2 0 7 -9.5t20 -11.5h20h21q3 0 11.5 0.5t18.5 1.5t18.5 1.5t11.5 0.5q17 4 31.5 11.5t28.5 17.5q1 0 2.5 0.5t2.5 0.5q2 0 8.5 -1.5t13.5 -3.5t12.5 -4.5t5.5 -3.5v-31q10 0 20 4.5t20 10l20 11t21 7.5h21q25 0 48.5 -4t48.5 -4h13q10 6 20 10t22 4
q16 0 31.5 -4.5t30.5 -10.5t30.5 -11.5t32.5 -6.5v-15q0 -26 -6.5 -49.5t-6.5 -48.5v-11q0 -10 2.5 -21.5t10.5 -13.5q0 -2 0.5 -9t0.5 -9q0 -3 -0.5 -9.5t-0.5 -7.5q0 -6 -1.5 -19.5t-3 -29.5t-3 -29.5t-2.5 -19.5q-4 -8 -8.5 -15t-4.5 -16q0 -11 6.5 -20.5t8.5 -20.5
q0 -2 1 -10t2 -17t2 -17t1 -10q2 -9 5.5 -19t11.5 -16q2 -13 4 -24.5t2 -23.5v-8l-35 -39v-4q0 -25 6 -48t6 -47v-11q-9 -11 -29.5 -19t-35.5 -8q-9 0 -13.5 8.5t-10.5 14.5q-5 5 -15.5 8t-17.5 3q-1 0 -3 -0.5t-3 -0.5q-1 -3 -6.5 -8.5t-12.5 -10.5t-14 -8.5t-10 -3.5
q-7 0 -19 1t-17 8q-7 11 -19.5 11.5t-24.5 0.5q-21 0 -40 -5t-38 -10.5t-37.5 -10.5t-38.5 -5h-11q-5 7 -12 10.5t-15 8.5q-2 1 -9 6q0 16 -2.5 16.5t-4.5 -0.5q-8 -2 -21.5 -5.5t-20.5 -8.5q-5 -5 -13.5 -12t-16.5 -7h-3zM469 139q11 0 17 -6t16 -9q5 -1 9 -1.5t7 -0.5h18

<glyph glyph-name=".notdef" horiz-adv-x="736" 
d="M169 8q-2 2 -2 8h-14q-1 11 -6.5 22.5t-18.5 11.5h-2q-20 -14 -35.5 -21t-39.5 -7q0 10 5.5 17t7.5 17q-4 0 -16.5 0.5t-16.5 1.5q-2 0 -5.5 1t-5.5 1v4q0 8 4 13.5t7 13.5q0 1 0.5 5t1.5 5q0 1 2.5 2.5t3.5 2.5q8 6 11.5 11.5t3.5 15.5q0 9 -12.5 17t-19.5 16
q-9 11 -10.5 28.5t-1.5 31.5v13q0 6 6 11q1 1 6 5t10.5 8.5t10.5 8.5t6 5q3 3 3 7q0 25 -9.5 48t-9.5 48q0 5 0.5 9t3.5 8v19v19q-1 12 -2 30.5t-2.5 35.5t-3.5 43l-11 13v2q0 10 4 18.5t9.5 17t9.5 18t4 20.5t-1 11.5t-1 1.5q-2 2 -6 8t-6 8v3q0 4 5.5 13t12 18t12.5 15.5
t7 6.5h25q2 0 7 -9.5t20 -11.5h20h21q3 0 11.5 0.5t18.5 1.5t18.5 1.5t11.5 0.5q17 4 31.5 11.5t28.5 17.5q1 0 2.5 0.5t2.5 0.5q2 0 8.5 -1.5t13.5 -3.5t12.5 -4.5t5.5 -3.5v-31q10 0 20 4.5t20 10l20 11t21 7.5h21q25 0 48.5 -4t48.5 -4h13q10 6 20 10t22 4
q16 0 31.5 -4.5t30.5 -10.5t30.5 -11.5t32.5 -6.5v-15q0 -26 -6.5 -49.5t-6.5 -48.5v-11q0 -10 2.5 -21.5t10.5 -13.5q0 -2 0.5 -9t0.5 -9q0 -3 -0.5 -9.5t-0.5 -7.5q0 -6 -1.5 -19.5t-3 -29.5t-3 -29.5t-2.5 -19.5q-4 -8 -8.5 -15t-4.5 -16q0 -11 6.5 -20.5t8.5 -20.5
q0 -2 1 -10t2 -17t2 -17t1 -10q2 -9 5.5 -19t11.5 -16q2 -13 4 -24.5t2 -23.5v-8l-35 -39v-4q0 -25 6 -48t6 -47v-11q-9 -11 -29.5 -19t-35.5 -8q-9 0 -13.5 8.5t-10.5 14.5q-5 5 -15.5 8t-17.5 3q-1 0 -3 -0.5t-3 -0.5q-1 -3 -6.5 -8.5t-12.5 -10.5t-14 -8.5t-10 -3.5
q-7 0 -19 1t-17 8q-7 11 -19.5 11.5t-24.5 0.5q-21 0 -40 -5t-38 -10.5t-37.5 -10.5t-38.5 -5h-11q-5 7 -12 10.5t-15 8.5q-2 1 -9 6q0 16 -2.5 16.5t-4.5 -0.5q-8 -2 -21.5 -5.5t-20.5 -8.5q-5 -5 -13.5 -12t-16.5 -7h-3zM469 139q11 0 17 -6t16 -9q5 -1 9 -1.5t7 -0.5h18
h22q4 0 15.5 1t24 2t23.5 2t16 1q0 69 -2 70.5t-4 2.5q-8 4 -20 4q-3 0 -5.5 -3.5t-5.5 -4.5q-1 -1 -6 -1h-6q-10 0 -17.5 3t-18.5 4q-3 0 -15 0.5t-26 1.5t-26.5 1.5t-15.5 0.5q-2 0 -7 1t-7 1q0 1 -3 5.5t-6 10t-8 15.5q0 1 -3.5 4t-4.5 4q-4 5 -3 12.5t-3 12.5
q-5 6 -11 6v6q0 7 9 15q7 0 26 0.5t40 0.5t39.5 0.5t26.5 0.5q6 0 16.5 0.5t21.5 2t21 4t16 6.5q-1 7 -1.5 12t-0.5 9v19v9q0 1 1 5t1 5t-1 6t-1 7q-1 2 -2.5 9.5t-2.5 9.5h-31q-12 0 -30 0.5t-28 -10.5h-68q-5 -6 -10 -9.5t-13 -3.5q-5 0 -6.5 1.5t-3.5 6.5t-8 8.5t-8 8.5
l-9 27q-6 3 -7.5 9t-2 12.5t-2.5 12.5t-8 9v23l6 6q20 17 41.5 21t48.5 4q6 0 9.5 -3t7 -7l7 -8t8.5 -5q17 -1 30 -1.5t28 -0.5h8q2 4 9 6.5t14 3t12.5 1t5.5 1.5v38q-4 6 -6 14q0 6 -2 22t-2 22q0 2 -1 10t-6 8q-7 0 -13 -5t-13 -7q-30 -13 -68 -13q-18 0 -35.5 1.5
t-35.5 1.5q-26 0 -50 -4.5t-50 -4.5h-28q-9 2 -13 6.5t-12 12.5h-3q-11 0 -20 -13.5t-16 -21.5q-1 -2 -4 -6.5t-4 -6.5q-1 -1 -3.5 -6.5t-5.5 -12t-6 -12t-4 -6.5q-5 -9 -8 -10q-5 -5 -9 -6t-10 -3q-5 -2 -7 -7t-7 -7q-1 -2 -1.5 -9.5t-0.5 -9.5v-2q0 -5 3 -9t3 -9
q0 -3 -1 -8.5t-2 -11.5t-2.5 -10.5t-2.5 -5.5q-1 -3 -0.5 -14t2.5 -15q3 -12 8.5 -18.5t5.5 -18.5q0 -17 -4 -37t-12 -35q-2 -2 -5.5 -10.5t-5.5 -10.5q2 -2 0 -4t-4 -2q-12 -13 -14 -29.5t-5 -32.5q0 -6 -2 -6l-18 -21q-11 -2 -15 -10.5t-4 -17.5q0 -8 2 -7t8 -2q3 -2 3 -3
v-2q0 -2 8 -2q6 0 9 4.5t8 4.5h1l7 -3.5t6 -3.5q1 0 6 -2h39q2 2 6 7t9 6v52q0 1 1.5 3.5t2.5 4.5q2 2 9 8t9 8v23q5 4 6.5 12t2.5 13q2 4 9.5 6t11.5 2h46q0 -2 -2 -6t-1 -6q0 -1 8 -4q2 -2 6.5 -4t4.5 -3l10 -103q16 -2 33 -6q4 -2 5 -5t2 -5.5t4 -4.5t12 -2h8l60 13h6v0z
M268 382q0 1 0.5 3.5t0.5 3.5q2 1 6 2.5t4 5.5t0.5 15t1.5 14q0 2 2 6.5t2 6.5v5q0 8 -3 15t-3 15h17q5 -8 11 -8v-17q0 -4 7 -3t6 -5q0 -5 1 -18t1 -24v-10v-7v-7q-4 -6 -15 -14.5t-20 -8.5q-8 0 -13.5 11.5t-5.5 18.5z" />
    <glyph glyph-name=".null" unicode="&#xe000;" horiz-adv-x="0" 
 />
    <glyph glyph-name="nonmarkingreturn" unicode="&#xe001;" horiz-adv-x="500" 
 />
    <glyph glyph-name="space" unicode=" " horiz-adv-x="400" 
 />
    <glyph glyph-name="exclam" unicode="!" horiz-adv-x="107" 
d="M87 133q0 -13 -10 -23t-24 -10t-23.5 9.5t-9.5 23.5v500q0 14 9.5 23.5t23.5 9.5q15 0 24.5 -9.5t9.5 -23.5v-500zM87 33q0 -13 -10 -23t-24 -10t-23.5 9.5t-9.5 23.5t9.5 23.5t23.5 9.5q15 0 24.5 -9.5t9.5 -23.5z" />
    <glyph glyph-name="quotedbl" unicode="&#x22;" horiz-adv-x="207" 
d="M87 533q0 -14 -9.5 -23.5t-23.5 -9.5q-15 0 -24.5 9.5t-9.5 23.5v100q0 13 10 23t24 10t23.5 -9.5t9.5 -23.5v-100zM187 533q0 -14 -9.5 -23.5t-23.5 -9.5q-15 0 -24.5 9.5t-9.5 23.5v100q0 13 10 23t24 10t23.5 -9.5t9.5 -23.5v-100z" />
    <glyph glyph-name="numbersign" unicode="#" horiz-adv-x="407" 
d="M337 266h17q14 0 23.5 -9.5t9.5 -23.5t-9.5 -23.5t-23.5 -9.5h-17v-167q0 -14 -9.5 -23.5t-23.5 -9.5q-15 0 -24.5 9.5t-9.5 23.5v167h-133v-167q0 -14 -9.5 -23.5t-23.5 -9.5q-15 0 -24.5 9.5t-9.5 23.5v167h-16q-15 0 -24.5 9.5t-9.5 23.5q0 13 10 23t24 10h16v134h-16
q-15 0 -24.5 9.5t-9.5 23.5q0 13 10 23t24 10h16v167q0 13 10 23t24 10t23.5 -9.5t9.5 -23.5v-167h133v167q0 13 10 23t24 10t23.5 -9.5t9.5 -23.5v-167h17q14 0 23.5 -9.5t9.5 -23.5t-9.5 -23.5t-23.5 -9.5h-17v-134zM137 400v-134h133v134h-133z" />
    <glyph glyph-name="dollar" unicode="$" 
d="M220 533q0 67 -66 67q-40 0 -56 -28q-11 -20 -11 -39q0 -23 10 -39q16 -28 57 -28q66 0 103 -46q30 -38 30 -87v-200q0 -42 -22 -76q-29 -44 -78 -54v-68q0 -14 -9.5 -23.5t-23.5 -9.5q-15 0 -24.5 9.5t-9.5 23.5v68q-50 11 -77 53q-23 35 -23 77q0 13 10 23t24 10
t23.5 -9.5t9.5 -23.5q0 -23 10 -39q16 -28 57 -28q40 0 56 28q10 16 10 39v200q0 67 -66 67q-67 0 -104 46q-30 37 -30 87q0 41 23 76q29 44 77 54v70q0 13 10 23t24 10t23.5 -9.5t9.5 -23.5v-70q50 -11 77 -53q23 -38 23 -77q0 -14 -9.5 -23.5t-23.5 -9.5q-15 0 -24.5 9.5
t-9.5 23.5z" />
    <glyph glyph-name="percent" unicode="%" 
d="M85 22q-7 -22 -33 -22q-8 0 -9 1q-23 8 -23 20.5t0.5 15l1.5 7.5l200 600q3 10 12.5 16t20.5 6q8 0 9 -1q23 -8 23 -32q0 -1 -0.5 -3.5l-1.5 -7.5zM20 583q0 32 19 54q23 29 65 29q41 0 64 -29q19 -22 19 -54t-18 -54q-23 -29 -65 -29t-65 29q-19 22 -19 54zM87 583
q0 -11 4.5 -14t12.5 -3q16 0 16 17q0 13 -5.5 15t-10.5 2q-17 0 -17 -17zM287 83q0 -32 -18 -54q-23 -29 -65 -29t-65 29q-19 22 -19 54t19 54q23 29 65 29q41 0 64 -29q19 -22 19 -54zM220 83q0 13 -5.5 15t-10.5 2q-17 0 -17 -17q0 -11 4.5 -14t12.5 -3q16 0 16 17z" />
    <glyph glyph-name="ampersand" unicode="&#x26;" horiz-adv-x="306" 
d="M220 533q0 23 -10 39q-16 28 -57 28q-40 0 -56 -28q-11 -20 -11 -39q0 -23 10 -39q16 -28 57 -28q33 0 33 -33q0 -14 -9.5 -23.5t-23.5 -9.5q-23 0 -39 -10q-28 -16 -28 -57v-200q0 -23 10 -39q16 -28 57 -28q40 0 56 28q11 20 11 39q0 14 9.5 23.5t23.5 9.5q33 0 33 -33
q0 -42 -22 -76q-29 -44 -78 -54v-68q0 -14 -9.5 -23.5t-23.5 -9.5t-23.5 9.5t-9.5 23.5v68q-50 11 -77 53q-23 38 -23 77v200q0 32 11.5 57.5t30.5 42.5q-21 19 -31.5 46.5t-10.5 53.5q0 42 22 76q28 43 78 54v70q0 14 9.5 23.5t23.5 9.5q33 0 33 -33v-70q50 -11 77 -53
q23 -38 23 -77q0 -14 -9.5 -23.5t-23.5 -9.5t-23.5 9.5t-9.5 23.5z" />
    <glyph glyph-name="quotesingle" unicode="'" horiz-adv-x="106" 
d="M86 533q0 -14 -9.5 -23.5t-23.5 -9.5t-23.5 9.5t-9.5 23.5v100q0 14 9.5 23.5t23.5 9.5q33 0 33 -33v-100z" />
    <glyph glyph-name="parenleft" unicode="(" horiz-adv-x="207" 
d="M154 600q-23 0 -39 -10q-28 -16 -28 -57v-400q0 -23 10 -39q16 -28 57 -28q14 0 23.5 -9.5t9.5 -23.5t-9.5 -23.5t-23.5 -9.5q-67 0 -104 46q-30 37 -30 87v400q0 67 46 103q37 30 88 30q14 0 23.5 -9.5t9.5 -23.5t-9.5 -23.5t-23.5 -9.5z" />
    <glyph glyph-name="parenright" unicode=")" horiz-adv-x="207" 
d="M187 133q0 -67 -46 -103q-38 -30 -87 -30q-15 0 -24.5 9.5t-9.5 23.5q0 13 10 23t24 10q22 0 38 10q28 16 28 57v400q0 67 -66 67q-15 0 -24.5 9.5t-9.5 23.5q0 13 10 23t24 10q66 0 103 -46q30 -38 30 -87v-400z" />
    <glyph glyph-name="asterisk" unicode="*" horiz-adv-x="298" 
d="M276 574q4 -13 -2 -25t-20 -17l-52 -16l32 -44q6 -9 6 -20q0 -17 -13 -27q-9 -6 -19 -6q-17 0 -28 14l-32 43l-32 -43q-11 -14 -28 -14q-9 0 -18 6q-14 11 -14 28q0 10 6 19l32 43l-51 17q-23 8 -23 31q0 1 0.5 3.5l1.5 7.5q8 23 20 23t14.5 -0.5l7.5 -1.5l51 -17v55
q0 14 9.5 23.5t23.5 9.5q15 0 24.5 -9.5t9.5 -23.5v-54l52 17q13 4 25 -2t17 -20z" />
    <glyph glyph-name="plus" unicode="+" 
d="M287 333q0 -14 -9.5 -23.5t-23.5 -9.5h-67v-67q0 -14 -9.5 -23.5t-23.5 -9.5q-15 0 -24.5 9.5t-9.5 23.5v67h-66q-15 0 -24.5 9.5t-9.5 23.5q0 13 10 23t24 10h66v67q0 13 10 23t24 10t23.5 -9.5t9.5 -23.5v-67h67q14 0 23.5 -9.5t9.5 -23.5z" />
    <glyph glyph-name="comma" unicode="," horiz-adv-x="106" 
d="M86 -65q0 -14 -9.5 -23.5t-23.5 -9.5t-23.5 9.5t-9.5 23.5v98q0 14 9.5 23.5t23.5 9.5q33 0 33 -33v-98z" />
    <glyph glyph-name="minus" unicode="-" 
d="M287 333q0 -14 -9.5 -23.5t-23.5 -9.5h-200q-15 0 -24.5 9.5t-9.5 23.5q0 13 10 23t24 10h200q14 0 23.5 -9.5t9.5 -23.5z" />
    <glyph glyph-name="period" unicode="." horiz-adv-x="106" 
d="M86 33q0 -14 -9.5 -23.5t-23.5 -9.5t-23.5 9.5t-9.5 23.5t9.5 23.5t23.5 9.5q33 0 33 -33z" />
    <glyph glyph-name="slash" unicode="/" 
d="M85 22q-7 -22 -33 -22q-8 0 -9 1q-23 8 -23 20.5t0.5 15l1.5 7.5l200 600q3 10 12.5 16t20.5 6q8 0 9 -1q23 -8 23 -32q0 -1 -0.5 -3.5l-1.5 -7.5z" />
    <glyph glyph-name="zero" unicode="0" 
d="M287 133q0 -49 -30 -86q-38 -47 -103 -47q-67 0 -104 46q-30 37 -30 87v400q0 48 30 86q38 47 104 47t103 -46q30 -38 30 -87v-400zM220 533q0 67 -66 67q-67 0 -67 -67v-400q0 -23 10 -39q16 -28 57 -28q40 0 56 28q10 16 10 39v400v0z" />
    <glyph glyph-name="one" unicode="1" horiz-adv-x="106" 
d="M86 33q0 -14 -9.5 -23.5t-23.5 -9.5t-23.5 9.5t-9.5 23.5v600q0 14 9.5 23.5t23.5 9.5q33 0 33 -33v-600z" />
    <glyph glyph-name="two" unicode="2" 
d="M87 66h167q14 0 23.5 -9.5t9.5 -23.5t-9.5 -23.5t-23.5 -9.5h-200q-15 0 -24.5 9.5t-9.5 23.5v300q0 48 30 86q38 47 104 47q40 0 56 28q10 16 10 39q0 67 -66 67q-40 0 -56 -28q-11 -20 -11 -39q0 -14 -9.5 -23.5t-23.5 -9.5q-15 0 -24.5 9.5t-9.5 23.5q0 48 30 86
q38 47 104 47t103 -46q30 -38 30 -87t-30 -86q-38 -47 -103 -47q-40 0 -56 -28q-11 -20 -11 -39v-267z" />
    <glyph glyph-name="three" unicode="3" 
d="M244 433q20 -17 31.5 -41.5t11.5 -58.5v-200q0 -49 -30 -86q-38 -47 -103 -47q-67 0 -104 46q-30 37 -30 87q0 13 10 23t24 10t23.5 -9.5t9.5 -23.5q0 -23 10 -39q16 -28 57 -28q40 0 56 28q10 16 10 39v200q0 32 -16 48q-19 19 -51 19q-14 0 -23.5 9.5t-9.5 23.5
q0 13 10 23t24 10q40 0 56 28q10 16 10 39q0 67 -66 67q-40 0 -56 -28q-11 -20 -11 -39q0 -14 -9.5 -23.5t-23.5 -9.5q-15 0 -24.5 9.5t-9.5 23.5q0 48 30 86q38 47 104 47t103 -46q30 -38 30 -87q0 -28 -10 -53.5t-33 -46.5z" />
    <glyph glyph-name="four" unicode="4" 
d="M287 33q0 -14 -9.5 -23.5t-23.5 -9.5q-15 0 -24.5 9.5t-9.5 23.5v367h-66q-67 0 -104 46q-30 37 -30 87v100q0 13 10 23t24 10t23.5 -9.5t9.5 -23.5v-100q0 -23 10 -39q16 -28 57 -28h66v167q0 13 10 23t24 10t23.5 -9.5t9.5 -23.5v-600z" />
    <glyph glyph-name="five" unicode="5" 
d="M87 533q0 -23 10 -39q16 -28 57 -28q66 0 103 -46q30 -38 30 -87v-200q0 -49 -30 -86q-38 -47 -103 -47q-67 0 -104 46q-30 37 -30 87q0 13 10 23t24 10t23.5 -9.5t9.5 -23.5q0 -23 10 -39q16 -28 57 -28q40 0 56 28q10 16 10 39v200q0 67 -66 67q-67 0 -104 46
q-30 37 -30 87v100q0 13 10 23t24 10h200q14 0 23.5 -9.5t9.5 -23.5t-9.5 -23.5t-23.5 -9.5h-167v-67z" />
    <glyph glyph-name="six" unicode="6" 
d="M220 533q0 67 -66 67q-40 0 -56 -28q-11 -20 -11 -39v-83q28 16 67 16q66 0 103 -46q30 -38 30 -87v-200q0 -49 -30 -86q-38 -47 -103 -47q-67 0 -104 46q-30 37 -30 87v400q0 48 30 86q38 47 104 47t103 -46q30 -38 30 -87q0 -14 -9.5 -23.5t-23.5 -9.5q-15 0 -24.5 9.5
t-9.5 23.5zM87 133q0 -23 10 -39q16 -28 57 -28q40 0 56 28q10 16 10 39v200q0 67 -66 67q-67 0 -67 -67v-200z" />
    <glyph glyph-name="seven" unicode="7" horiz-adv-x="308" 
d="M279 655q10 -10 8 -27l-100 -600q-2 -15 -13.5 -21.5t-24.5 -5t-22 11t-6 25.5l93 562h-160q-15 0 -24.5 9.5t-9.5 23.5q0 13 10 23t24 10h200q16 0 25 -11z" />
    <glyph glyph-name="eight" unicode="8" 
d="M245 433q21 -19 31.5 -46.5t10.5 -53.5v-200q0 -49 -30 -86q-38 -47 -103 -47q-67 0 -104 46q-30 37 -30 87v200q0 26 11 53t32 47q-22 21 -32.5 47t-10.5 53q0 48 30 86q38 47 104 47t103 -46q30 -38 30 -87q0 -27 -10 -53t-32 -47zM154 400q-67 0 -67 -67v-200
q0 -23 10 -39q16 -28 57 -28q40 0 56 28q10 16 10 39v200q0 67 -66 67zM154 466q40 0 56 28q10 16 10 39q0 67 -66 67q-67 0 -67 -67q0 -23 10 -39q16 -28 57 -28z" />
    <glyph glyph-name="nine" unicode="9" 
d="M287 33q0 -14 -9.5 -23.5t-23.5 -9.5q-15 0 -24.5 9.5t-9.5 23.5v300q0 21 -4 28q-14 39 -62 39q-67 0 -104 46q-30 37 -30 87q0 48 30 86q38 47 104 47t103 -46q30 -38 30 -87v-500zM220 533q0 67 -66 67q-40 0 -56 -28q-11 -20 -11 -39q0 -23 10 -39q16 -28 57 -28
q38 0 66 -16v83z" />
    <glyph glyph-name="colon" unicode=":" horiz-adv-x="106" 
d="M86 633q0 -14 -9.5 -23.5t-23.5 -9.5t-23.5 9.5t-9.5 23.5t9.5 23.5t23.5 9.5q33 0 33 -33zM86 33q0 -14 -9.5 -23.5t-23.5 -9.5t-23.5 9.5t-9.5 23.5t9.5 23.5t23.5 9.5q33 0 33 -33z" />
    <glyph glyph-name="semicolon" unicode=";" horiz-adv-x="106" 
d="M86 -65q0 -14 -9.5 -23.5t-23.5 -9.5t-23.5 9.5t-9.5 23.5v98q0 14 9.5 23.5t23.5 9.5q33 0 33 -33v-98zM86 633q0 -14 -9.5 -23.5t-23.5 -9.5t-23.5 9.5t-9.5 23.5t9.5 23.5t23.5 9.5q33 0 33 -33z" />
    <glyph glyph-name="less" unicode="&#x3c;" 
d="M128 333l141 -70q18 -11 18 -30q0 -8 -4 -15q-9 -18 -30 -18q-8 0 -14 3l-200 100q-19 10 -19 30t19 30l200 100q7 3 14 3q19 0 30 -18q4 -7 4 -16q0 -19 -18 -29z" />
    <glyph glyph-name="equal" unicode="=" 
d="M287 383q0 -14 -9.5 -23.5t-23.5 -9.5h-200q-15 0 -24.5 9.5t-9.5 23.5q0 13 10 23t24 10h200q14 0 23.5 -9.5t9.5 -23.5zM287 283q0 -14 -9.5 -23.5t-23.5 -9.5h-200q-15 0 -24.5 9.5t-9.5 23.5q0 13 10 23t24 10h200q14 0 23.5 -9.5t9.5 -23.5z" />
    <glyph glyph-name="greater" unicode="&#x3e;" 
d="M287 333q0 -20 -18 -30l-200 -100q-8 -3 -15 -3q-20 0 -30 18q-4 7 -4 16q0 19 19 29l140 70l-140 70q-18 9 -18 30q0 7 3 15q9 18 31 18q6 0 14 -3l200 -100q18 -11 18 -30z" />
    <glyph glyph-name="question" unicode="?" 
d="M287 533q0 -42 -22 -76q-29 -44 -78 -54v-270q0 -14 -9.5 -23.5t-23.5 -9.5q-15 0 -24.5 9.5t-9.5 23.5v300q0 13 10 23t24 10q40 0 56 28q10 16 10 39q0 67 -66 67q-40 0 -56 -28q-11 -20 -11 -39q0 -14 -9.5 -23.5t-23.5 -9.5q-15 0 -24.5 9.5t-9.5 23.5q0 48 30 86
q38 47 104 47t103 -46q30 -38 30 -87zM187 33q0 -14 -9.5 -23.5t-23.5 -9.5q-15 0 -24.5 9.5t-9.5 23.5q0 13 10 23t24 10t23.5 -9.5t9.5 -23.5z" />
    <glyph glyph-name="at" unicode="@" horiz-adv-x="407" 
d="M387 183q0 -14 -9.5 -23.5t-23.5 -9.5q-20 0 -30 18q-29 -18 -70 -18q-67 0 -104 46q-30 37 -30 87q0 48 30 86q38 47 104 47q39 0 56 27q10 16 10 40v50q0 67 -66 67h-100q-23 0 -39 -10q-28 -16 -28 -57v-400q0 -23 10 -39q16 -28 57 -28h200q14 0 23.5 -9.5t9.5 -23.5
t-9.5 -23.5t-23.5 -9.5h-200q-67 0 -104 46q-30 37 -30 87v400q0 67 46 103q37 30 88 30h100q66 0 103 -46q30 -38 30 -87v-350zM320 366q-28 -16 -66 -16q-40 0 -56 -28q-11 -20 -11 -39q0 -23 10 -39q16 -28 57 -28q38 0 55 27q11 20 11 40v83z" />
    <glyph glyph-name="A" unicode="A" 
d="M287 33q0 -14 -9.5 -23.5t-23.5 -9.5q-15 0 -24.5 9.5t-9.5 23.5v300q0 21 -4 28q-14 39 -62 39q-67 0 -67 -67v-300q0 -14 -9.5 -23.5t-23.5 -9.5q-15 0 -24.5 9.5t-9.5 23.5v500q0 48 30 86q38 47 104 47t103 -46q30 -38 30 -87v-500zM220 533q0 67 -66 67
q-40 0 -56 -28q-11 -20 -11 -39v-83q28 16 67 16q38 0 66 -16v83z" />
    <glyph glyph-name="B" unicode="B" 
d="M245 433q21 -19 31.5 -46.5t10.5 -53.5v-200q0 -49 -30 -86q-38 -47 -103 -47q-20 0 -38.5 5t-32.5 13q-8 -18 -29 -18q-15 0 -24.5 9.5t-9.5 23.5v600q0 13 10 23t24 10q21 0 29 -18q30 18 71 18q66 0 103 -46q30 -38 30 -87q0 -27 -10 -53t-32 -47zM154 400
q-67 0 -67 -67v-200q0 -23 10 -39q16 -28 57 -28q40 0 56 28q10 16 10 39v200q0 67 -66 67zM154 466q40 0 56 28q10 16 10 39q0 67 -66 67q-67 0 -67 -67v-83q28 16 67 16z" />
    <glyph glyph-name="C" unicode="C" 
d="M220 533q0 67 -66 67q-40 0 -56 -28q-11 -20 -11 -39v-400q0 -23 10 -39q16 -28 57 -28q40 0 56 28q10 16 10 39q0 13 10 23t24 10t23.5 -9.5t9.5 -23.5q0 -49 -30 -86q-38 -47 -103 -47q-67 0 -104 46q-30 37 -30 87v400q0 48 30 86q38 47 104 47t103 -46q30 -38 30 -87
q0 -14 -9.5 -23.5t-23.5 -9.5q-15 0 -24.5 9.5t-9.5 23.5z" />
    <glyph glyph-name="D" unicode="D" 
d="M287 133q0 -49 -30 -86q-38 -47 -103 -47q-20 0 -38.5 5t-32.5 13q-8 -18 -29 -18q-15 0 -24.5 9.5t-9.5 23.5v100v400v100q0 13 10 23t24 10q21 0 29 -18q30 18 71 18q66 0 103 -46q30 -38 30 -87v-400zM220 533q0 67 -66 67q-67 0 -67 -67v-400q0 -23 10 -39
q16 -28 57 -28q40 0 56 28q10 16 10 39v400v0z" />
    <glyph glyph-name="E" unicode="E" 
d="M220 533q0 67 -66 67q-40 0 -56 -28q-11 -20 -11 -39v-84q32 17 67 17q14 0 23.5 -9.5t9.5 -23.5t-9.5 -23.5t-23.5 -9.5q-23 0 -39 -10q-28 -16 -28 -57v-200q0 -23 10 -39q16 -28 57 -28q40 0 56 28q10 16 10 39q0 13 10 23t24 10t23.5 -9.5t9.5 -23.5q0 -49 -30 -86
q-38 -47 -103 -47q-67 0 -104 46q-30 37 -30 87v400q0 48 30 86q38 47 104 47t103 -46q30 -38 30 -87q0 -14 -9.5 -23.5t-23.5 -9.5q-15 0 -24.5 9.5t-9.5 23.5z" />
    <glyph glyph-name="F" unicode="F" 
d="M287 533q0 -14 -9.5 -23.5t-23.5 -9.5q-15 0 -24.5 9.5t-9.5 23.5q0 67 -66 67q-67 0 -67 -67v-83q28 16 67 16q14 0 23.5 -9.5t9.5 -23.5t-9.5 -23.5t-23.5 -9.5q-67 0 -67 -67v-300q0 -14 -9.5 -23.5t-23.5 -9.5q-15 0 -24.5 9.5t-9.5 23.5v600q0 13 10 23t24 10
q21 0 29 -18q30 18 71 18q66 0 103 -46q30 -38 30 -87z" />
    <glyph glyph-name="G" unicode="G" 
d="M220 533q0 67 -66 67q-40 0 -56 -28q-11 -20 -11 -39v-400q0 -23 10 -39q16 -28 57 -28q39 0 56 27q10 16 10 40v200q0 32 -16 48q-19 19 -51 19q-14 0 -23.5 9.5t-9.5 23.5q0 13 10 23t24 10q48 0 86 -29q47 -38 47 -104v-300q0 -14 -9.5 -23.5t-23.5 -9.5q-20 0 -30 18
q-29 -18 -70 -18q-67 0 -104 46q-30 37 -30 87v400q0 48 30 86q38 47 104 47t103 -46q30 -38 30 -87q0 -14 -9.5 -23.5t-23.5 -9.5q-15 0 -24.5 9.5t-9.5 23.5z" />
    <glyph glyph-name="H" unicode="H" 
d="M287 33q0 -14 -9.5 -23.5t-23.5 -9.5q-15 0 -24.5 9.5t-9.5 23.5v300q0 21 -4 28q-14 39 -62 39q-67 0 -67 -67v-300q0 -14 -9.5 -23.5t-23.5 -9.5q-15 0 -24.5 9.5t-9.5 23.5v600q0 13 10 23t24 10t23.5 -9.5t9.5 -23.5v-183q28 16 67 16q38 0 66 -16v183q0 13 10 23
t24 10t23.5 -9.5t9.5 -23.5v-600z" />
    <glyph glyph-name="I" unicode="I" 
d="M187 66h67q14 0 23.5 -9.5t9.5 -23.5t-9.5 -23.5t-23.5 -9.5h-200q-15 0 -24.5 9.5t-9.5 23.5q0 13 10 23t24 10h66v534h-66q-15 0 -24.5 9.5t-9.5 23.5q0 13 10 23t24 10h200q14 0 23.5 -9.5t9.5 -23.5t-9.5 -23.5t-23.5 -9.5h-67v-534z" />
    <glyph glyph-name="J" unicode="J" 
d="M287 133q0 -49 -30 -86q-38 -47 -103 -47q-67 0 -104 46q-30 37 -30 87q0 13 10 23t24 10t23.5 -9.5t9.5 -23.5q0 -23 10 -39q16 -28 57 -28q40 0 56 28q10 16 10 39v500q0 13 10 23t24 10t23.5 -9.5t9.5 -23.5v-500z" />
    <glyph glyph-name="K" unicode="K" 
d="M287 533q0 -33 -11.5 -58t-31.5 -42q22 -20 32.5 -47t10.5 -53v-300q0 -14 -9.5 -23.5t-23.5 -9.5q-15 0 -24.5 9.5t-9.5 23.5v300q0 67 -66 67q-67 0 -67 -67v-300q0 -14 -9.5 -23.5t-23.5 -9.5q-15 0 -24.5 9.5t-9.5 23.5v600q0 13 10 23t24 10t23.5 -9.5t9.5 -23.5
v-183q28 16 67 16q22 0 38 10q28 16 28 57v100q0 13 10 23t24 10t23.5 -9.5t9.5 -23.5v-100z" />
    <glyph glyph-name="L" unicode="L" 
d="M287 33q0 -14 -9.5 -23.5t-23.5 -9.5h-100q-67 0 -104 46q-30 37 -30 87v500q0 13 10 23t24 10t23.5 -9.5t9.5 -23.5v-500q0 -23 10 -39q16 -28 57 -28h100q14 0 23.5 -9.5t9.5 -23.5z" />
    <glyph glyph-name="M" unicode="M" horiz-adv-x="507" 
d="M487 33q0 -14 -9.5 -23.5t-23.5 -9.5q-15 0 -24.5 9.5t-9.5 23.5v500q0 67 -66 67q-40 0 -56 -28q-11 -20 -11 -39v-500q0 -14 -9.5 -23.5t-23.5 -9.5q-15 0 -24.5 9.5t-9.5 23.5v500q0 23 -10 39q-16 28 -56 28t-56 -28q-11 -20 -11 -39v-500q0 -14 -9.5 -23.5
t-23.5 -9.5q-15 0 -24.5 9.5t-9.5 23.5v600q0 13 10 23t24 10q21 0 29 -18q30 18 71 18q33 0 57.5 -11.5t42.5 -30.5q17 20 41.5 31t58.5 11q66 0 103 -46q30 -38 30 -87v-500z" />
    <glyph glyph-name="N" unicode="N" 
d="M287 33q0 -14 -9.5 -23.5t-23.5 -9.5q-15 0 -24.5 9.5t-9.5 23.5v500q0 67 -66 67q-40 0 -56 -28q-11 -20 -11 -39v-500q0 -14 -9.5 -23.5t-23.5 -9.5q-15 0 -24.5 9.5t-9.5 23.5v600q0 13 10 23t24 10q21 0 29 -18q30 18 71 18q66 0 103 -46q30 -38 30 -87v-500z" />
    <glyph glyph-name="O" unicode="O" 
d="M287 133q0 -49 -30 -86q-38 -47 -103 -47q-67 0 -104 46q-30 37 -30 87v400q0 48 30 86q38 47 104 47t103 -46q30 -38 30 -87v-400zM220 533q0 67 -66 67q-67 0 -67 -67v-400q0 -23 10 -39q16 -28 57 -28q40 0 56 28q10 16 10 39v400v0z" />
    <glyph glyph-name="P" unicode="P" 
d="M287 533q0 -49 -30 -86q-38 -47 -103 -47q-67 0 -67 -67v-300q0 -14 -9.5 -23.5t-23.5 -9.5q-15 0 -24.5 9.5t-9.5 23.5v600q0 13 10 23t24 10q21 0 29 -18q30 18 71 18q66 0 103 -46q30 -38 30 -87zM220 533q0 67 -66 67q-67 0 -67 -67v-83q28 16 67 16q40 0 56 28
q10 16 10 39z" />
    <glyph glyph-name="Q" unicode="Q" 
d="M287 133q0 -42 -22 -76q-29 -44 -78 -54v-68q0 -14 -9.5 -23.5t-23.5 -9.5q-15 0 -24.5 9.5t-9.5 23.5v68q-50 11 -77 53q-23 35 -23 77v400q0 48 30 86q38 47 104 47t103 -46q30 -38 30 -87v-400zM220 533q0 67 -66 67q-67 0 -67 -67v-400q0 -16 6.5 -33t26.5 -27v60
q0 13 10 23t24 10t23.5 -9.5t9.5 -23.5v-60q14 7 23.5 23t9.5 37v400v0z" />
    <glyph glyph-name="R" unicode="R" 
d="M245 433q21 -19 31.5 -46.5t10.5 -53.5v-300q0 -14 -9.5 -23.5t-23.5 -9.5q-15 0 -24.5 9.5t-9.5 23.5v300q0 67 -66 67q-67 0 -67 -67v-300q0 -14 -9.5 -23.5t-23.5 -9.5q-15 0 -24.5 9.5t-9.5 23.5v600q0 13 10 23t24 10q21 0 29 -18q30 18 71 18q66 0 103 -46
q30 -38 30 -87q0 -27 -10 -53t-32 -47zM154 466q40 0 56 28q10 16 10 39q0 67 -66 67q-67 0 -67 -67v-83q28 16 67 16z" />
    <glyph glyph-name="S" unicode="S" 
d="M220 533q0 67 -66 67q-40 0 -56 -28q-11 -20 -11 -39q0 -23 10 -39q16 -28 57 -28q66 0 103 -46q30 -38 30 -87v-200q0 -49 -30 -86q-38 -47 -103 -47q-67 0 -104 46q-30 37 -30 87q0 13 10 23t24 10t23.5 -9.5t9.5 -23.5q0 -23 10 -39q16 -28 57 -28q40 0 56 28
q10 16 10 39v200q0 67 -66 67q-67 0 -104 46q-30 37 -30 87q0 48 30 86q38 47 104 47t103 -46q30 -38 30 -87q0 -14 -9.5 -23.5t-23.5 -9.5q-15 0 -24.5 9.5t-9.5 23.5z" />
    <glyph glyph-name="T" unicode="T" 
d="M287 633q0 -14 -9.5 -23.5t-23.5 -9.5h-67v-567q0 -14 -9.5 -23.5t-23.5 -9.5q-15 0 -24.5 9.5t-9.5 23.5v567h-66q-15 0 -24.5 9.5t-9.5 23.5q0 13 10 23t24 10h200q14 0 23.5 -9.5t9.5 -23.5z" />
    <glyph glyph-name="U" unicode="U" 
d="M287 133q0 -49 -30 -86q-38 -47 -103 -47q-67 0 -104 46q-30 37 -30 87v500q0 13 10 23t24 10t23.5 -9.5t9.5 -23.5v-500q0 -23 10 -39q16 -28 57 -28q40 0 56 28q10 16 10 39v500q0 13 10 23t24 10t23.5 -9.5t9.5 -23.5v-500z" />
    <glyph glyph-name="V" unicode="V" horiz-adv-x="308" 
d="M187 28q-4 -28 -33 -28q-30 0 -33 28l-100 600q-2 14 5 25t22 13q14 2 25.5 -5.5t13.5 -22.5l67 -402l67 402q1 16 12.5 22.5t24.5 4.5t22.5 -11.5t6.5 -25.5z" />
    <glyph glyph-name="W" unicode="W" horiz-adv-x="507" 
d="M487 133q0 -49 -30 -86q-38 -47 -103 -47q-34 0 -58.5 11t-41.5 31q-18 -19 -42.5 -30.5t-57.5 -11.5q-67 0 -104 46q-30 37 -30 87v500q0 13 10 23t24 10t23.5 -9.5t9.5 -23.5v-500q0 -23 10 -39q16 -28 57 -28q40 0 56 28q10 16 10 39v500q0 13 10 23t24 10t23.5 -9.5
t9.5 -23.5v-500q0 -23 10 -39q16 -28 57 -28q40 0 56 28q10 16 10 39v500q0 13 10 23t24 10t23.5 -9.5t9.5 -23.5v-500z" />
    <glyph glyph-name="X" unicode="X" 
d="M189 333l96 -289l1.5 -7.5t0.5 -3.5q0 -24 -23 -32q-13 -2 -25 3t-17 18l-68 206l-69 -206q-7 -22 -33 -22q-8 0 -9 1q-23 8 -23 20.5t0.5 15l1.5 7.5l97 289l-97 289l-1.5 7.5t-0.5 3.5q0 24 23 32q1 1 10 1q25 0 32 -22l69 -206l68 206q3 10 12.5 16t20.5 6q8 0 9 -1
q23 -8 23 -32q0 -1 -0.5 -3.5l-1.5 -7.5z" />
    <glyph glyph-name="Y" unicode="Y" 
d="M287 533q0 -42 -22 -76q-29 -44 -78 -54v-370q0 -14 -9.5 -23.5t-23.5 -9.5q-15 0 -24.5 9.5t-9.5 23.5v370q-50 11 -77 53q-23 35 -23 77v100q0 13 10 23t24 10t23.5 -9.5t9.5 -23.5v-100q0 -23 10 -39q16 -28 57 -28q40 0 56 28q10 16 10 39v100q0 13 10 23t24 10
t23.5 -9.5t9.5 -23.5v-100z" />
    <glyph glyph-name="Z" unicode="Z" 
d="M287 33q0 -14 -9.5 -23.5t-23.5 -9.5h-200q-18 0 -27 14q-7 7 -7 19q0 1 0.5 3.5l1.5 7.5l185 556h-153q-15 0 -24.5 9.5t-9.5 23.5q0 13 10 23t24 10h200q16 0 27 -14q6 -8 6 -19q0 -1 -0.5 -3.5l-1.5 -7.5l-185 -556h154q14 0 23.5 -9.5t9.5 -23.5z" />
    <glyph glyph-name="bracketleft" unicode="[" horiz-adv-x="207" 
d="M87 66h67q14 0 23.5 -9.5t9.5 -23.5t-9.5 -23.5t-23.5 -9.5h-100q-15 0 -24.5 9.5t-9.5 23.5v600q0 13 10 23t24 10h100q14 0 23.5 -9.5t9.5 -23.5t-9.5 -23.5t-23.5 -9.5h-67v-534z" />
    <glyph glyph-name="backslash" unicode="\" 
d="M285 44l1.5 -7.5t0.5 -3.5q0 -24 -23 -32q-13 -2 -25 3t-17 18l-200 600l-1.5 7.5t-0.5 3.5q0 24 23 32q1 1 10 1q25 0 32 -22l200 -600v0z" />
    <glyph glyph-name="bracketright" unicode="]" horiz-adv-x="207" 
d="M187 33q0 -14 -9.5 -23.5t-23.5 -9.5h-100q-15 0 -24.5 9.5t-9.5 23.5q0 13 10 23t24 10h66v534h-66q-15 0 -24.5 9.5t-9.5 23.5q0 13 10 23t24 10h100q14 0 23.5 -9.5t9.5 -23.5v-600z" />
    <glyph glyph-name="asciicircum" unicode="^" 
d="M277 557q10 -10 10 -24q0 -15 -10 -24q-9 -10 -23 -10t-24 10l-76 77l-77 -77q-9 -10 -23 -10t-24 10t-10 24t10 24l100 100q10 10 24 10q13 0 23 -10l100 -100v0z" />
    <glyph glyph-name="underscore" unicode="_" 
d="M287 -65q0 -14 -9.5 -23.5t-23.5 -9.5h-200q-15 0 -24.5 9.5t-9.5 23.5q0 13 10 23t24 10h200q14 0 23.5 -9.5t9.5 -23.5z" />
    <glyph glyph-name="grave" unicode="`" horiz-adv-x="106" 
d="M86 533q0 -14 -9.5 -23.5t-23.5 -9.5t-23.5 9.5t-9.5 23.5v100q0 14 9.5 23.5t23.5 9.5q33 0 33 -33v-100z" />
    <glyph glyph-name="a" unicode="a" 
d="M287 33q0 -14 -9.5 -23.5t-23.5 -9.5q-20 0 -30 18q-29 -18 -70 -18q-67 0 -104 46q-30 37 -30 87q0 48 30 86q38 47 104 47q38 0 55 27q11 20 11 40q0 23 -10 39q-16 28 -56 28t-56 -28q-11 -20 -11 -39q0 -14 -9.5 -23.5t-23.5 -9.5q-15 0 -24.5 9.5t-9.5 23.5
q0 48 30 86q38 47 104 47t103 -46q30 -38 30 -87v-300zM220 216q-28 -16 -66 -16q-40 0 -56 -28q-11 -20 -11 -39q0 -23 10 -39q16 -28 57 -28q40 0 56 28q10 16 10 39v83z" />
    <glyph glyph-name="b" unicode="b" 
d="M287 133q0 -49 -30 -86q-38 -47 -103 -47q-20 0 -38.5 5t-32.5 13q-8 -18 -29 -18q-15 0 -24.5 9.5t-9.5 23.5v600q0 13 10 23t24 10t23.5 -9.5t9.5 -23.5v-183q28 16 67 16q66 0 103 -46q30 -38 30 -87v-200zM220 333q0 67 -66 67q-67 0 -67 -67v-200q0 -23 10 -39
q16 -28 57 -28q40 0 56 28q10 16 10 39v200v0z" />
    <glyph glyph-name="c" unicode="c" 
d="M220 333q0 67 -66 67q-40 0 -56 -28q-11 -20 -11 -39v-200q0 -23 10 -39q16 -28 57 -28q40 0 56 28q10 16 10 39q0 13 10 23t24 10t23.5 -9.5t9.5 -23.5q0 -49 -30 -86q-38 -47 -103 -47q-67 0 -104 46q-30 37 -30 87v200q0 48 30 86q38 47 104 47t103 -46q30 -38 30 -87
q0 -14 -9.5 -23.5t-23.5 -9.5q-15 0 -24.5 9.5t-9.5 23.5z" />
    <glyph glyph-name="d" unicode="d" 
d="M287 33q0 -14 -9.5 -23.5t-23.5 -9.5q-20 0 -30 18q-29 -18 -70 -18q-67 0 -104 46q-30 37 -30 87v200q0 48 30 86q38 47 104 47q38 0 66 -16v183q0 13 10 23t24 10t23.5 -9.5t9.5 -23.5v-600zM220 333q0 23 -10 39q-16 28 -56 28q-67 0 -67 -67v-200q0 -23 10 -39
q16 -28 57 -28q40 0 56 28q10 16 10 39v200z" />
    <glyph glyph-name="e" unicode="e" 
d="M87 133q0 -23 10 -39q16 -28 57 -28q40 0 56 28q10 16 10 39q0 13 10 23t24 10t23.5 -9.5t9.5 -23.5q0 -49 -30 -86q-38 -47 -103 -47q-67 0 -104 46q-30 37 -30 87v200q0 48 30 86q38 47 104 47t103 -46q30 -38 30 -87t-30 -86q-38 -47 -103 -47q-67 0 -67 -67zM87 250
q28 16 67 16q40 0 56 28q10 16 10 39q0 67 -66 67q-40 0 -56 -28q-11 -20 -11 -39v-83z" />
    <glyph glyph-name="f" unicode="f" horiz-adv-x="306" 
d="M286 533q0 -14 -9.5 -23.5t-23.5 -9.5t-23.5 9.5t-9.5 23.5q0 23 -10 39q-16 28 -57 28q-40 0 -56 -28q-11 -20 -11 -39v-83q28 16 67 16q33 0 33 -33q0 -14 -9.5 -23.5t-23.5 -9.5q-67 0 -67 -67v-300q0 -14 -9.5 -23.5t-23.5 -9.5t-23.5 9.5t-9.5 23.5v500q0 48 29 86
q38 47 104 47q67 0 103 -46q30 -38 30 -87z" />
    <glyph glyph-name="g" unicode="g" 
d="M287 333v-398q0 -49 -30 -86q-38 -47 -103 -47q-67 0 -104 46q-30 37 -30 87q0 13 10 23t24 10t23.5 -9.5t9.5 -23.5q0 -23 10 -39q16 -28 57 -28q40 0 56 28q10 16 10 39v81q-28 -16 -66 -16q-67 0 -104 46q-30 37 -30 87v200q0 48 30 86q38 47 104 47q20 0 38 -5
t32 -13q10 18 30 18q14 0 23.5 -9.5t9.5 -23.5v-100zM220 333q0 23 -10 39q-16 28 -56 28q-67 0 -67 -67v-200q0 -23 10 -39q16 -28 57 -28q40 0 56 28q10 16 10 39v200z" />
    <glyph glyph-name="h" unicode="h" 
d="M287 33q0 -14 -9.5 -23.5t-23.5 -9.5q-15 0 -24.5 9.5t-9.5 23.5v300q0 67 -66 67q-67 0 -67 -67v-300q0 -14 -9.5 -23.5t-23.5 -9.5q-15 0 -24.5 9.5t-9.5 23.5v600q0 13 10 23t24 10t23.5 -9.5t9.5 -23.5v-183q28 16 67 16q66 0 103 -46q30 -38 30 -87v-300z" />
    <glyph glyph-name="i" unicode="i" horiz-adv-x="106" 
d="M86 33q0 -14 -9.5 -23.5t-23.5 -9.5t-23.5 9.5t-9.5 23.5v400q0 14 9.5 23.5t23.5 9.5q33 0 33 -33v-400zM86 533q0 -14 -9.5 -23.5t-23.5 -9.5t-23.5 9.5t-9.5 23.5t9.5 23.5t23.5 9.5q33 0 33 -33z" />
    <glyph glyph-name="j" unicode="j" 
d="M287 -65q0 -49 -30 -86q-38 -47 -103 -47q-67 0 -104 46q-30 37 -30 87q0 13 10 23t24 10t23.5 -9.5t9.5 -23.5q0 -23 10 -39q16 -28 57 -28q40 0 56 28q10 16 10 39v498q0 13 10 23t24 10t23.5 -9.5t9.5 -23.5v-498zM287 533q0 -14 -9.5 -23.5t-23.5 -9.5
q-15 0 -24.5 9.5t-9.5 23.5q0 13 10 23t24 10t23.5 -9.5t9.5 -23.5z" />
    <glyph glyph-name="k" unicode="k" 
d="M245 433q21 -19 31.5 -46.5t10.5 -53.5v-300q0 -14 -9.5 -23.5t-23.5 -9.5q-15 0 -24.5 9.5t-9.5 23.5v300q0 67 -66 67q-67 0 -67 -67v-300q0 -14 -9.5 -23.5t-23.5 -9.5q-15 0 -24.5 9.5t-9.5 23.5v600q0 13 10 23t24 10t23.5 -9.5t9.5 -23.5v-183q28 16 67 16
q40 0 56 28q10 16 10 39q0 13 10 23t24 10t23.5 -9.5t9.5 -23.5q0 -27 -10 -53t-32 -47z" />
    <glyph glyph-name="l" unicode="l" horiz-adv-x="106" 
d="M86 33q0 -14 -9.5 -23.5t-23.5 -9.5t-23.5 9.5t-9.5 23.5v600q0 14 9.5 23.5t23.5 9.5q33 0 33 -33v-600z" />
    <glyph glyph-name="m" unicode="m" horiz-adv-x="507" 
d="M487 33q0 -14 -9.5 -23.5t-23.5 -9.5q-15 0 -24.5 9.5t-9.5 23.5v300q0 67 -66 67q-40 0 -56 -28q-11 -20 -11 -39v-300q0 -14 -9.5 -23.5t-23.5 -9.5q-15 0 -24.5 9.5t-9.5 23.5v300q0 23 -10 39q-16 28 -56 28t-56 -28q-11 -20 -11 -39v-300q0 -14 -9.5 -23.5
t-23.5 -9.5q-15 0 -24.5 9.5t-9.5 23.5v400q0 13 10 23t24 10q21 0 29 -18q30 18 71 18q33 0 57.5 -11.5t42.5 -30.5q17 20 41.5 31t58.5 11q66 0 103 -46q30 -38 30 -87v-300z" />
    <glyph glyph-name="n" unicode="n" 
d="M287 33q0 -14 -9.5 -23.5t-23.5 -9.5q-15 0 -24.5 9.5t-9.5 23.5v300q0 67 -66 67q-67 0 -67 -67v-300q0 -14 -9.5 -23.5t-23.5 -9.5q-15 0 -24.5 9.5t-9.5 23.5v400q0 13 10 23t24 10q21 0 29 -18q30 18 71 18q66 0 103 -46q30 -38 30 -87v-300z" />
    <glyph glyph-name="o" unicode="o" 
d="M287 133q0 -49 -30 -86q-38 -47 -103 -47q-67 0 -104 46q-30 37 -30 87v200q0 48 30 86q38 47 104 47t103 -46q30 -38 30 -87v-200zM220 333q0 67 -66 67q-67 0 -67 -67v-200q0 -23 10 -39q16 -28 57 -28q40 0 56 28q10 16 10 39v200v0z" />
    <glyph glyph-name="p" unicode="p" 
d="M287 133q0 -49 -30 -86q-38 -47 -103 -47q-39 0 -67 16v-181q0 -14 -9.5 -23.5t-23.5 -9.5q-15 0 -24.5 9.5t-9.5 23.5v598q0 13 10 23t24 10q21 0 29 -18q30 18 71 18q66 0 103 -46q30 -38 30 -87v-200zM220 333q0 67 -66 67q-67 0 -67 -67v-200q0 -23 10 -39
q16 -28 57 -28q40 0 56 28q10 16 10 39v200v0z" />
    <glyph glyph-name="q" unicode="q" 
d="M287 -165q0 -14 -9.5 -23.5t-23.5 -9.5q-15 0 -24.5 9.5t-9.5 23.5v181q-28 -16 -66 -16q-67 0 -104 46q-30 37 -30 87v200q0 48 30 86q38 47 104 47q20 0 38 -5t32 -13q10 18 30 18q14 0 23.5 -9.5t9.5 -23.5v-598zM220 333q0 23 -10 39q-16 28 -56 28q-67 0 -67 -67
v-200q0 -23 10 -39q16 -28 57 -28q40 0 56 28q10 16 10 39v200z" />
    <glyph glyph-name="r" unicode="r" 
d="M287 333q0 -14 -9.5 -23.5t-23.5 -9.5q-15 0 -24.5 9.5t-9.5 23.5q0 67 -66 67q-67 0 -67 -67v-300q0 -14 -9.5 -23.5t-23.5 -9.5q-15 0 -24.5 9.5t-9.5 23.5v400q0 13 10 23t24 10q21 0 29 -18q30 18 71 18q66 0 103 -46q30 -38 30 -87z" />
    <glyph glyph-name="s" unicode="s" 
d="M220 333q0 67 -66 67q-40 0 -56 -28q-11 -20 -11 -39q0 -23 10 -39q16 -28 57 -28q66 0 103 -46q30 -38 30 -87t-30 -86q-38 -47 -103 -47q-67 0 -104 46q-30 37 -30 87q0 13 10 23t24 10t23.5 -9.5t9.5 -23.5q0 -23 10 -39q16 -28 57 -28q40 0 56 28q10 16 10 39
q0 67 -66 67q-67 0 -104 46q-30 37 -30 87q0 48 30 86q38 47 104 47t103 -46q30 -38 30 -87q0 -14 -9.5 -23.5t-23.5 -9.5q-15 0 -24.5 9.5t-9.5 23.5z" />
    <glyph glyph-name="t" unicode="t" 
d="M287 433q0 -14 -9.5 -23.5t-23.5 -9.5h-67v-367q0 -14 -9.5 -23.5t-23.5 -9.5q-15 0 -24.5 9.5t-9.5 23.5v367h-66q-15 0 -24.5 9.5t-9.5 23.5q0 13 10 23t24 10h66v67q0 13 10 23t24 10t23.5 -9.5t9.5 -23.5v-67h67q14 0 23.5 -9.5t9.5 -23.5z" />
    <glyph glyph-name="u" unicode="u" 
d="M287 33q0 -14 -9.5 -23.5t-23.5 -9.5q-20 0 -30 18q-29 -18 -70 -18q-67 0 -104 46q-30 37 -30 87v300q0 13 10 23t24 10t23.5 -9.5t9.5 -23.5v-300q0 -23 10 -39q16 -28 57 -28q40 0 56 28q10 16 10 39v300q0 13 10 23t24 10t23.5 -9.5t9.5 -23.5v-400z" />
    <glyph glyph-name="v" unicode="v" 
d="M186 25q-7 -25 -32 -25q-26 0 -33 25l-100 400q-3 14 4 25.5t21 14.5q13 4 25 -3t15 -21l68 -271l67 271q7 25 33 25q3 1 9 -0.5t12 -6.5t9.5 -13.5t1.5 -20.5z" />
    <glyph glyph-name="w" unicode="w" horiz-adv-x="507" 
d="M487 133q0 -49 -30 -86q-38 -47 -103 -47q-34 0 -58.5 11t-41.5 31q-18 -19 -42.5 -30.5t-57.5 -11.5q-67 0 -104 46q-30 37 -30 87v300q0 13 10 23t24 10t23.5 -9.5t9.5 -23.5v-300q0 -23 10 -39q16 -28 57 -28q40 0 56 28q10 16 10 39v300q0 13 10 23t24 10t23.5 -9.5
t9.5 -23.5v-300q0 -23 10 -39q16 -28 57 -28q40 0 56 28q10 16 10 39v300q0 13 10 23t24 10t23.5 -9.5t9.5 -23.5v-300z" />
    <glyph glyph-name="x" unicode="x" 
d="M283 48q4 -7 4 -16q0 -19 -18 -29q-8 -3 -15 -3q-20 0 -30 18l-70 140l-71 -140q-9 -18 -30 -18q-8 0 -14 3q-18 9 -18 30q0 7 3 15l92 185l-92 185q-4 7 -4 16q0 19 19 29q7 3 14 3q19 0 30 -18l71 -140l70 140q9 18 31 18q6 0 14 -3q18 -11 18 -30q0 -8 -4 -15
l-92 -185z" />
    <glyph glyph-name="y" unicode="y" 
d="M287 -65q0 -49 -30 -86q-38 -47 -103 -47q-67 0 -104 46q-30 37 -30 87q0 13 10 23t24 10t23.5 -9.5t9.5 -23.5q0 -23 10 -39q16 -28 57 -28q40 0 56 28q10 16 10 39v81q-28 -16 -66 -16q-67 0 -104 46q-30 37 -30 87v300q0 13 10 23t24 10t23.5 -9.5t9.5 -23.5v-300
q0 -23 10 -39q16 -28 57 -28q38 0 55 27q11 20 11 40v300q0 13 10 23t24 10t23.5 -9.5t9.5 -23.5v-498z" />
    <glyph glyph-name="z" unicode="z" 
d="M287 33q0 -14 -9.5 -23.5t-23.5 -9.5h-200q-19 0 -29 15q-5 8 -5 18q0 8 4 15l176 352h-146q-15 0 -24.5 9.5t-9.5 23.5q0 13 10 23t24 10h200q17 0 28 -15q5 -15 5 -19q0 -10 -4 -14l-175 -352h146q14 0 23.5 -9.5t9.5 -23.5z" />
    <glyph glyph-name="braceleft" unicode="{" 
d="M254 600q-23 0 -39 -10q-28 -16 -28 -57q0 -34 -11.5 -58.5t-31.5 -41.5q20 -17 31.5 -41.5t11.5 -58.5v-200q0 -23 10 -39q16 -28 57 -28q14 0 23.5 -9.5t9.5 -23.5t-9.5 -23.5t-23.5 -9.5q-67 0 -104 46q-30 37 -30 87v200q0 32 -16 48q-19 19 -51 19q-14 0 -23.5 9.5
t-9.5 23.5q0 13 10 23t24 10q22 0 38 10q28 16 28 57q0 67 46 103q37 30 88 30q14 0 23.5 -9.5t9.5 -23.5t-9.5 -23.5t-23.5 -9.5z" />
    <glyph glyph-name="bar" unicode="|" horiz-adv-x="107" 
d="M87 -65q0 -14 -9.5 -23.5t-23.5 -9.5q-15 0 -24.5 9.5t-9.5 23.5v798q0 13 10 23t24 10t23.5 -9.5t9.5 -23.5v-798z" />
    <glyph glyph-name="braceright" unicode="}" 
d="M287 433q0 -14 -9.5 -23.5t-23.5 -9.5q-23 0 -39 -10q-28 -16 -28 -57v-200q0 -49 -30 -86q-38 -47 -103 -47q-15 0 -24.5 9.5t-9.5 23.5q0 13 10 23t24 10q40 0 56 28q10 16 10 39v200q0 33 11.5 58t31.5 42q-20 17 -31.5 41.5t-11.5 58.5q0 32 -16 48q-19 19 -51 19
q-14 0 -23.5 9.5t-9.5 23.5q0 13 10 23t24 10q48 0 86 -29q47 -38 47 -104q0 -67 67 -67q14 0 23.5 -9.5t9.5 -23.5z" />
    <glyph glyph-name="asciitilde" unicode="~" 
d="M287 383q0 -67 -46 -103q-38 -30 -87 -30q-15 0 -24.5 9.5t-9.5 23.5v60q-18 -10 -25.5 -28t-7.5 -32t-9.5 -23.5t-23.5 -9.5q-15 0 -24.5 9.5t-9.5 23.5q0 48 30 86q38 47 104 47q14 0 23.5 -9.5t9.5 -23.5v-59q15 7 24 20.5t9 38.5q0 13 10 23t24 10t23.5 -9.5
t9.5 -23.5z" />
    <glyph glyph-name="AE" unicode="&#xc6;" horiz-adv-x="507" 
d="M420 533q0 67 -66 67q-67 0 -67 -67v-83q28 16 67 16q14 0 23.5 -9.5t9.5 -23.5t-9.5 -23.5t-23.5 -9.5q-40 0 -56 -28q-11 -20 -11 -39v-200q0 -23 10 -39q16 -28 57 -28q40 0 56 28q10 16 10 39q0 13 10 23t24 10t23.5 -9.5t9.5 -23.5q0 -49 -30 -86q-38 -47 -103 -47
q-67 0 -104 46q-30 37 -30 87v200q0 23 -10 39q-16 28 -56 28q-67 0 -67 -67v-300q0 -14 -9.5 -23.5t-23.5 -9.5q-15 0 -24.5 9.5t-9.5 23.5v500q0 48 30 86q38 47 104 47q33 0 57.5 -11.5t42.5 -30.5q17 20 41.5 31t58.5 11q66 0 103 -46q30 -38 30 -87q0 -14 -9.5 -23.5
t-23.5 -9.5q-15 0 -24.5 9.5t-9.5 23.5zM220 533q0 67 -66 67q-40 0 -56 -28q-11 -20 -11 -39v-83q28 16 67 16q38 0 66 -16v83z" />
    <glyph glyph-name="ae" unicode="&#xe6;" horiz-adv-x="507" 
d="M487 133q0 -49 -30 -86q-38 -47 -103 -47q-20 0 -38.5 5t-32.5 13q-8 -18 -29 -18q-20 0 -30 18q-29 -18 -70 -18q-67 0 -104 46q-30 37 -30 87q0 48 30 86q38 47 104 47q38 0 55 27q11 20 11 40q0 23 -10 39q-16 28 -56 28t-56 -28q-11 -20 -11 -39q0 -14 -9.5 -23.5
t-23.5 -9.5q-15 0 -24.5 9.5t-9.5 23.5q0 48 30 86q38 47 104 47q33 0 57.5 -11.5t42.5 -30.5q17 20 41.5 31t58.5 11q66 0 103 -46q30 -38 30 -87t-30 -86q-38 -47 -103 -47q-67 0 -67 -67q0 -23 10 -39q16 -28 57 -28q40 0 56 28q10 16 10 39q0 13 10 23t24 10t23.5 -9.5
t9.5 -23.5zM287 250q28 16 67 16q40 0 56 28q10 16 10 39q0 67 -66 67q-40 0 -56 -28q-11 -20 -11 -39v-83zM220 216q-28 -16 -66 -16q-40 0 -56 -28q-11 -20 -11 -39q0 -23 10 -39q16 -28 57 -28q40 0 56 28q10 16 10 39v83z" />
    </font>
</defs>
</svg>
