<?xml version="1.0" standalone="no"?>
<!DOCTYPE svg PUBLIC "-//W3C//DTD SVG 1.1//EN" "http://www.w3.org/Graphics/SVG/1.1/DTD/svg11.dtd" >
<svg xmlns="http://www.w3.org/2000/svg" xmlns:xlink="http://www.w3.org/1999/xlink" version="1.1">
<metadata>
Created by FontForge 20170731 at Mon Jan 14 16:02:03 2013
 By Aleksey,,,
2011 Iconian Fonts - www.iconian.com
</metadata>
<defs>
<font id="CrixusExpandedItalic" horiz-adv-x="727" >
  <font-face 
    font-family="Crixus Expanded Italic"
    font-weight="400"
    font-style="italic"
    font-stretch="expanded"
    units-per-em="1000"
    panose-1="0 0 0 0 0 0 0 0 0 0"
    ascent="800"
    descent="-200"
    x-height="762"
    cap-height="762"
    bbox="-51.8462 -169 1773.36 1015"
    underline-thickness="50"
    underline-position="-175"
    slope="-12"
    unicode-range="U+0020-2122"
  />
<missing-glyph horiz-adv-x="600" 
 />
    <glyph glyph-name=".notdef" horiz-adv-x="600" 
 />
    <glyph glyph-name=".null" horiz-adv-x="0" 
 />
    <glyph glyph-name="nonmarkingreturn" horiz-adv-x="600" 
 />
    <glyph glyph-name="space" unicode=" " horiz-adv-x="398" 
 />
    <glyph glyph-name="space" unicode="&#xa0;" horiz-adv-x="398" 
 />
    <glyph glyph-name="FL0021h" unicode="!" horiz-adv-x="360" 
d="M140 213h155l179 550h-155zM146 0q23 0 43 7t35.5 17.5t25.5 23t13 23.5q4 12 2 24.5t-9.5 23t-19.5 17.5t-28 7l-16 -1q-17 0 -35 -6.5t-33 -17t-26 -23t-15 -24.5t-3 -24.5t8 -23t20 -17t32 -6.5h6z" />
    <glyph glyph-name="FL0022h" unicode="&#x22;" horiz-adv-x="595" 
d="M532 468q24 0 44 7t35.5 17.5t25.5 23t13 23.5l50 154q4 12 2 24.5t-9 22.5t-19 16.5t-28 6.5l-16 -1q-18 0 -36 -6.5t-33 -16.5t-26 -23t-15 -25l-51 -154q-4 -12 -2.5 -24t8.5 -22t20 -16.5t33 -6.5h4zM297 469q23 0 43 7t35.5 17.5t25.5 23t13 23.5l50 154
q4 12 2 24.5t-9 22.5t-19 16.5t-28 6.5l-16 -1q-17 0 -35 -6.5t-33 -17t-26 -23t-15 -24.5l-50 -154q-4 -12 -2.5 -24t8 -22t19.5 -16.5t32 -6.5h5z" />
    <glyph glyph-name="FL0023h" unicode="#" horiz-adv-x="836" 
d="M234 535h113l74 228h155l-74 -228h118l74 228h155l-74 -228h115l-38 -116h-115l-21 -64h115l-38 -117h-115l-77 -238h-155l77 238h-118l-77 -238h-155l77 238h-113l38 117h113l21 64h-113zM582 419h-118l-21 -64h118z" />
    <glyph glyph-name="FL0024h" unicode="$" horiz-adv-x="796" 
d="M289 0h154l31 94h139q12 0 30 6.5t35.5 16.5t31 22.5t17.5 25.5l65 202q4 11 -1 24t-14.5 24t-22.5 18t-25 7h-143l37 115h233l38 116h-233l30 92h-154l-30 -92h-135q-13 0 -31.5 -6.5t-36.5 -16.5t-31.5 -22.5t-17.5 -25.5l-65 -200q-3 -11 2 -23.5t14.5 -23.5t22.5 -18
t26 -7h141l-38 -117h-229l-38 -117h229zM627 328l-38 -117h-77l38 117h77zM396 555h73l-37 -115h-73z" />
    <glyph glyph-name="FL0025h" unicode="%" horiz-adv-x="964" 
d="M896 762h128l-750 -762h-131zM221 382q-14 3 -21.5 14.5t-2.5 25.5l98 300q3 7 9.5 14t15 13t18 9.5t18.5 3.5h220q14 0 27 -11.5t9 -24.5l-101 -310q-2 -6 -8 -12t-13.5 -11t-16 -8.5t-15.5 -3.5h-230q-1 0 -2.5 0.5t-4.5 0.5zM367 704l-86 -265h162l86 265h-162zM565 1
q-14 3 -21.5 14.5t-2.5 25.5l98 300q3 7 9.5 14t15 13t18 9.5t18.5 3.5h220q7 0 14.5 -3t13 -8.5t8 -12t0.5 -12.5l-101 -310q-2 -6 -8 -12t-13.5 -11t-16 -8.5t-15.5 -3.5h-230q-1 0 -2.5 0.5t-4.5 0.5zM711 323l-86 -265h162l86 265h-162z" />
    <glyph glyph-name="FL0026h" unicode="&#x26;" horiz-adv-x="839" 
d="M360 444h503l-37 -115h-112l-85 -260q-4 -12 -17.5 -25t-30.5 -23t-35.5 -16.5t-31.5 -6.5h-373q-32 11 -48 33t-5 55l190 586q5 15 18 31t30 28.5t37 20.5t40 8h451l-38 -116h-391zM491 114l70 215h-238l-70 -215h238z" />
    <glyph glyph-name="FL0027h" unicode="'" horiz-adv-x="359" 
d="M297 468q23 0 43 7t35.5 17.5t25.5 23t13 23.5l50 154q4 12 2 24.5t-9 22.5t-19 16.5t-28 6.5l-16 -1q-18 0 -35.5 -6.5t-32.5 -16.5t-26 -23t-15 -25l-51 -154q-4 -12 -2.5 -24t8.5 -22t20 -16.5t32 -6.5h5z" />
    <glyph glyph-name="FL0028h" unicode="(" horiz-adv-x="493" 
d="M621 762l-38 -116h-157l-173 -531h157l-37 -115h-227q-2 0 -7.5 1t-7.5 3q-28 12 -40 33.5t-2 50.5l190 586q5 15 18 31t30 28.5t37 20.5t40 8h217z" />
    <glyph glyph-name="FL0029h" unicode=")" horiz-adv-x="493" 
d="M308 762l-38 -116h157l-173 -531h-157l-37 -115h227q2 0 7.5 1t8.5 3q37 12 63 33.5t36 50.5l190 586q5 15 2.5 31t-11.5 28.5t-24 20.5t-34 8h-217z" />
    <glyph glyph-name="FL002Ah" unicode="*" horiz-adv-x="534" 
d="M613 612q6 19 2.5 33.5t-13 24.5t-23 15t-26.5 5h-3l1 3q4 12 2 24.5t-9 22.5t-18.5 16.5t-27.5 6.5l-16 -1q-18 0 -35.5 -6.5t-32.5 -16.5t-26 -23t-15 -25l-1 -1h-4q-14 0 -30.5 -5t-31.5 -14t-27 -20.5t-16 -24.5l-3 -13q-5 -15 -1 -28t13 -22.5t22.5 -15.5t27.5 -6h2
l-2 -4q-4 -12 -2.5 -24t8.5 -22t20 -16.5t31 -6.5h6q22 0 42 7t35.5 17.5t25.5 23t13 23.5l1 2h5q14 0 30 4.5t30.5 13t26.5 21t17 27.5z" />
    <glyph glyph-name="FL002Bh" unicode="+" horiz-adv-x="781" 
d="M613 544h-140l-32 -99h-236l-38 -116h236l-34 -104h140l34 103h225l38 118h-225z" />
    <glyph glyph-name="FL002Ch" unicode="," horiz-adv-x="359" 
d="M96 -152q23 0 42.5 7t34.5 17.5t25.5 23t14.5 23.5l50 154q4 12 2 24.5t-9.5 22.5t-19.5 16.5t-28 6.5l-16 -1q-17 0 -35 -6.5t-33 -17t-26 -23t-15 -24.5l-50 -154q-4 -12 -2.5 -24t8.5 -22t20 -16.5t32 -6.5h5z" />
    <glyph glyph-name="FL002Dh" unicode="-" horiz-adv-x="563" 
d="M205 445h383l-38 -116h-383z" />
    <glyph glyph-name="FL002Eh" unicode="." horiz-adv-x="360" 
d="M146 0q23 0 43 7t35.5 17.5t25.5 23t13 23.5q4 12 2 24.5t-9.5 23t-19.5 17.5t-28 7l-16 -1q-17 0 -35 -6.5t-33 -17t-26 -23t-15 -24.5t-3 -24.5t8 -23t20 -17t32 -6.5h6z" />
    <glyph glyph-name="FL002Fh" unicode="/" horiz-adv-x="860" 
d="M60 0h192l736 762h-177z" />
    <glyph glyph-name="FL0030h" unicode="0" horiz-adv-x="812" 
d="M750 646l-172 -529h-324l172 529h324zM137 2q2 0 6.5 -1t5.5 -1h458q13 0 30.5 7t33.5 17.5t28.5 23t15.5 23.5l202 620q4 12 -1.5 25t-16.5 23t-25.5 16.5t-29.5 6.5h-440q-17 0 -37 -7t-37.5 -18.5t-30.5 -25.5t-17 -29l-195 -600q-9 -26 5.5 -50t44.5 -30zM479 311
q22 0 42.5 7t36 17.5t26 23t13.5 23.5q4 12 2 25t-9 23.5t-19 17t-28 6.5h-17q-17 0 -34.5 -6.5t-33 -17t-27 -23.5t-15.5 -25t-2.5 -24.5t8.5 -23t20 -17t32 -6.5h5z" />
    <glyph glyph-name="FL0031h" unicode="1" horiz-adv-x="463" 
d="M188 0h155l248 763h-283l-38 -118h128z" />
    <glyph glyph-name="FL0032h" unicode="2" horiz-adv-x="796" 
d="M307 761l-37 -116h460l-71 -217h-371q-13 0 -30.5 -7t-34.5 -18t-30 -24t-17 -24l-115 -355h615l37 115h-460l66 201h371q12 0 29.5 7t34.5 18t30 24t16 24l98 301q4 13 -1.5 25.5t-16 22.5t-24.5 16.5t-27 6.5h-522z" />
    <glyph glyph-name="FL0033h" unicode="3" horiz-adv-x="796" 
d="M734 648l-67 -204h-463l-36 -111h464l-70 -217h-464l-38 -116h523q13 0 31 6.5t35.5 16.5t31.5 23t18 25l87 268q1 3 -1.5 10t-6 15t-7 14.5t-4.5 9.5q4 1 12 8t15.5 16t14 17.5t8.5 12.5l81 249q4 12 -1.5 25t-16 23t-24.5 16.5t-26 6.5h-522l-37 -114h463z" />
    <glyph glyph-name="FL0034h" unicode="4" horiz-adv-x="776" 
d="M463 763h-155l-144 -444h442l-104 -319h154l248 763h-154l-106 -325h-287z" />
    <glyph glyph-name="FL0035h" unicode="5" horiz-adv-x="796" 
d="M60 0l38 116h460l70 217h-371q-13 0 -26 7t-23 18t-14.5 24t-0.5 24l115 355h615l-37 -115h-460l-65 -201h371q12 0 25 -7t22.5 -18t14.5 -23.5t1 -23.5l-98 -302q-4 -12 -18 -25t-31 -23t-35 -16.5t-31 -6.5h-522z" />
    <glyph glyph-name="FL0036h" unicode="6" 
d="M142 0h373q13 0 31 6.5t35.5 16.5t31 23t17.5 25l98 300q3 10 -2 23t-14.5 24t-22.5 18.5t-25 7.5h-304l65 200h391l38 116h-451q-20 0 -40 -8t-37 -20.5t-30 -28.5t-18 -31l-189 -584q-11 -33 5 -55t48 -33zM561 329l-69 -213h-238l69 213h238z" />
    <glyph glyph-name="FL0037h" unicode="7" horiz-adv-x="728" 
d="M60 0h151l607 646l38 116h-547l-38 -116h393z" />
    <glyph glyph-name="FL0038h" unicode="8" horiz-adv-x="796" 
d="M402 762q-13 0 -31 -6.5t-35.5 -16.5t-31 -23t-17.5 -25l-81 -249q-2 -4 -1 -12.5t3 -17.5t5.5 -16t7.5 -8q-3 -3 -10.5 -9.5t-16.5 -14.5t-16 -15t-8 -10l-87 -268q-4 -12 1.5 -25t16.5 -23t25 -16.5t26 -6.5h431q13 0 31 6.5t35.5 16.5t31.5 23t18 25l87 268
q1 3 -1.5 10t-6 15t-7 14.5t-4.5 9.5q4 1 12 8t15.5 16t14 17.5t8.5 12.5l81 249q4 12 -1.5 25t-16 23t-24.5 16.5t-26 6.5h-428zM319 333h313l-70 -217h-313zM424 646h308l-66 -202h-308z" />
    <glyph glyph-name="FL0039h" unicode="9" 
d="M773 761h-374q-12 0 -30 -6.5t-35.5 -16.5t-31.5 -22.5t-18 -25.5l-98 -301q-3 -11 2 -24t14.5 -24t22.5 -18t26 -7h304l-66 -201h-392l-37 -116h451q20 0 40 8t37 21t29.5 28.5t17.5 30.5l191 586q11 33 -5 55t-48 33zM355 430l70 215h237l-70 -215h-237z" />
    <glyph glyph-name="FL003Ah" unicode=":" horiz-adv-x="361" 
d="M146 0q23 0 43 7t35.5 17.5t25.5 23t13 23.5q4 12 2 24.5t-9.5 23t-19.5 17.5t-28 7l-16 -1q-17 0 -35 -6.5t-33 -17t-26 -23t-15 -24.5t-3 -24.5t8 -23t20 -17t32 -6.5h6zM246 302q22 0 42 7t35.5 17.5t25.5 23t13 23.5q4 12 2 25t-9 23.5t-19 17t-28 6.5h-15
q-18 0 -36 -6.5t-33 -17t-26.5 -23.5t-15.5 -25t-2.5 -24.5t8.5 -23t20 -17t32 -6.5h6z" />
    <glyph glyph-name="FL003Bh" unicode=";" horiz-adv-x="361" 
d="M246 302q22 0 42 7t35.5 17.5t25.5 23t13 23.5q4 12 2 25t-9 23.5t-19 17t-28 6.5h-15q-18 0 -36 -6.5t-33 -17t-26.5 -23.5t-15.5 -25t-2.5 -24.5t8.5 -23t20 -17t32 -6.5h6zM96 -152q23 0 42.5 7t34.5 17.5t25.5 23t14.5 23.5l50 154q4 12 2 24.5t-9.5 22.5t-19.5 16.5
t-28 6.5l-16 -1q-17 0 -35 -6.5t-33 -17t-26 -23t-15 -24.5l-50 -154q-4 -12 -2.5 -24t8.5 -22t20 -16.5t32 -6.5h5z" />
    <glyph glyph-name="FL003Ch" unicode="&#x3c;" horiz-adv-x="719" 
d="M406 0l-223 379l487 387h178l-476 -384l-2 -6l228 -376h-192z" />
    <glyph glyph-name="FL003Dh" unicode="=" horiz-adv-x="563" 
d="M175 355h383l-38 -117h-383zM234 535h383l-38 -116h-383z" />
    <glyph glyph-name="FL003Eh" unicode="&#x3e;" horiz-adv-x="719" 
d="M253 0l469 379l-235 387h-178l227 -384l-2 -6l-473 -376h192z" />
    <glyph glyph-name="FL003Fh" unicode="?" horiz-adv-x="794" 
d="M307 761l-37 -116h460l-71 -217h-371q-13 0 -30.5 -7t-34.5 -18t-30 -24t-17 -24l-46 -142h155l34 103h371q12 0 29.5 7t34.5 18t30 24t16 24l98 301q4 13 -1.5 25.5t-16 22.5t-24.5 16.5t-27 6.5h-522zM146 0q23 0 43 7t35.5 17.5t25.5 23t13 23.5q4 12 2 24.5t-9.5 23
t-19.5 17.5t-28 7l-16 -1q-17 0 -35 -6.5t-33 -17t-26 -23t-15 -24.5t-3 -24.5t8 -23t20 -17t32 -6.5h6z" />
    <glyph glyph-name="FL0040h" unicode="@" 
d="M390 235h258q13 0 28 11t19 21l138 424q4 12 -1.5 25t-16.5 23t-25 16.5t-27 6.5h-373q-39 -11 -69.5 -33t-41.5 -55l-190 -586q-5 -15 -3 -31t11 -28.5t24 -20.5t35 -8h451l38 116h-391l172 530h238l-23 -70h-132q-16 0 -31.5 -11t-19.5 -24l-88 -270q-4 -12 1.5 -23
t18.5 -13zM534 344q-7 1 -4 14l34 105q2 5 7 9.5t9 4.5h29q2 0 4.5 -3.5t0.5 -8.5l-35 -109q-2 -4 -6.5 -8t-6.5 -4h-32z" />
    <glyph glyph-name="FL0041h" unicode="A" horiz-adv-x="810" 
d="M322 330h323l-107 -330h152l223 686q8 25 -7 46t-42 29q-3 0 -6.5 1t-4.5 1h-460q-13 0 -30.5 -7t-33.5 -17.5t-28.5 -23t-15.5 -23.5l-225 -692h155zM748 646l-65 -200h-323l65 200h323z" />
    <glyph glyph-name="FL0042h" unicode="B" horiz-adv-x="796" 
d="M67 21h1l-7 -21h522q13 0 31 6.5t35.5 16.5t31.5 23t18 25l87 268q1 3 -1.5 10t-6 15t-7 14.5t-4.5 9.5q4 1 12 8t15.5 16t14 17.5t8.5 12.5l81 249q4 12 -1.5 25t-16 23t-24.5 16.5t-26 6.5h-522zM632 331l-70 -215h-308l70 215h308zM425 646h307l-66 -202h-307z" />
    <glyph glyph-name="FL0043h" unicode="C" 
d="M855 762l-38 -116h-391l-173 -531h391l-37 -115h-461q-2 0 -7.5 1t-7.5 3q-28 12 -40 33.5t-2 50.5l190 586q5 15 18 31t30 28.5t37 20.5t40 8h451z" />
    <glyph glyph-name="FL0044h" unicode="D" horiz-adv-x="812" 
d="M308 763h536q15 0 29.5 -6.5t25.5 -17t16.5 -23t1.5 -25.5l-202 -620q-3 -11 -15.5 -23.5t-28.5 -23t-33.5 -17.5t-30.5 -7h-547zM426 646l-172 -529h324l172 529h-324z" />
    <glyph glyph-name="FL0065h" unicode="E" 
d="M389 761h373q13 0 27 -6.5t24.5 -16.5t16 -22.5t1.5 -25.5l-98 -301q-3 -11 -16 -24t-30 -24t-34.5 -18t-29.5 -7h-304l-66 -201h391l-37 -116h-451q-20 0 -35 8t-24 21t-11.5 28.5t2.5 30.5l191 586q11 33 41 55t69 33zM594 430l70 215h-238l-70 -215h238z" />
    <glyph glyph-name="FL0046h" unicode="F" horiz-adv-x="726" 
d="M854 762l-38 -116h-396l-65 -201h384l-38 -116h-384l-107 -329h-150l225 692q4 13 17 26t29.5 22.5t35 15.5t33.5 6h454z" />
    <glyph glyph-name="FL0047h" unicode="G" 
d="M142 0h373q13 0 31 6.5t35.5 16.5t31 23t17.5 25l98 302q4 11 -1 23.5t-14.5 23.5t-22.5 18t-25 7h-179l-37 -113h113l-70 -216h-238l172 530h391l38 116h-451q-20 0 -40 -8t-37 -20.5t-30 -28.5t-18 -31l-190 -586q-11 -33 5 -55t48 -33z" />
    <glyph glyph-name="FL0048h" unicode="H" horiz-adv-x="776" 
d="M463 763h-155l-248 -763h155l104 319h287l-104 -319h154l248 763h-154l-106 -325h-287z" />
    <glyph glyph-name="FL0049h" unicode="I" horiz-adv-x="728" 
d="M99 117h195l172 529h-196l38 116h547l-38 -116h-197l-172 -529h198l-38 -117h-547z" />
    <glyph glyph-name="FL004Ah" unicode="J" 
d="M526 0h-374q-12 0 -26 6.5t-25 16.5t-16.5 23t-1.5 25l85 261h155l-70 -216h237l172 530h-392l38 117h547l-219 -675q-11 -33 -40.5 -55t-69.5 -33z" />
    <glyph glyph-name="FL004Bh" unicode="K" horiz-adv-x="876" 
d="M60 0l248 762h154l-248 -762h-154zM564 0l-208 400l418 362h176l-406 -358l-2 -6l214 -398h-192z" />
    <glyph glyph-name="FL004Ch" unicode="L" horiz-adv-x="726" 
d="M606 -1l37 116h-396l210 646h-150l-225 -692q-4 -14 0.5 -26.5t14.5 -22t24.5 -15.5t30.5 -6h454z" />
    <glyph glyph-name="FL004Dh" unicode="M" horiz-adv-x="1063" 
d="M466 762h-158l-248 -762h155l162 499l125 -499l448 499l-162 -499h155l248 763h-159l-448 -502z" />
    <glyph glyph-name="FL00CBh" unicode="N" horiz-adv-x="810" 
d="M539 0h151l223 686q8 25 -7 46t-42 29l-10 1h-546l-248 -762h155l210 646h324z" />
    <glyph glyph-name="FL004Fh" unicode="O" horiz-adv-x="812" 
d="M137 2q-30 6 -44.5 30t-5.5 50l195 600q4 15 17 29t30.5 25.5t37.5 18.5t37 7h440q15 0 29.5 -6.5t25.5 -16.5t16.5 -23t1.5 -25l-202 -620q-3 -11 -15.5 -23.5t-28.5 -23t-33.5 -17.5t-30.5 -7h-458q-1 0 -5.5 1t-6.5 1zM426 646l-172 -529h324l172 529h-324z" />
    <glyph glyph-name="FL0050h" unicode="P" horiz-adv-x="794" 
d="M308 762l-248 -762h155l108 332h374q13 0 30 7.5t33.5 18.5t29 24t16.5 24l93 285q4 12 -1.5 25t-16.5 23t-25 16.5t-26 6.5h-522zM425 646h307l-65 -201h-307z" />
    <glyph glyph-name="FL0051h" unicode="Q" horiz-adv-x="840" 
d="M670 -154l-52 155q13 3 28.5 10.5t29.5 17.5t25 21t14 21l202 620q4 12 -1.5 25t-16.5 23t-25.5 16.5t-29.5 6.5h-440q-17 0 -37 -7t-37.5 -18.5t-30.5 -25.5t-17 -29l-195 -600q-9 -26 5.5 -50t44.5 -30q2 0 6.5 -1t5.5 -1h300l52 -154h169zM426 646h324l-171 -525
l-56 171h-172l58 -175h-155z" />
    <glyph glyph-name="R" unicode="R" horiz-adv-x="850" 
d="M308 762h522q12 0 26 -6.5t25 -16.5t16.5 -23t1.5 -25l-93 -285q-4 -11 -16.5 -24t-29 -24t-33.5 -18t-30 -7h-80l113 -333h-168l-152 445h257l65 201h-307l-210 -646h-155z" />
    <glyph glyph-name="FL0053h" unicode="S" horiz-adv-x="796" 
d="M60 0l38 116h460l70 217h-371q-13 0 -26 7t-23 18t-14.5 24t-0.5 24l93 285q4 12 17.5 25t31 23t35.5 16.5t32 6.5h522l-38 -116h-460l-65 -201h371q12 0 25 -7t22.5 -18t14.5 -23.5t1 -23.5l-98 -302q-4 -12 -18 -25t-31 -23t-35 -16.5t-31 -6.5h-522z" />
    <glyph glyph-name="FL0054h" unicode="T" 
d="M256 0h154l210 646h197l38 116h-547l-38 -116h196z" />
    <glyph glyph-name="FL0055h" unicode="U" horiz-adv-x="810" 
d="M459 763h-151l-223 -686q-8 -25 7 -46t41 -29q3 0 7 -1t5 -1h460q13 0 30.5 7t33.5 17.5t28.5 23t15.5 23.5l225 692h-155l-210 -646h-324z" />
    <glyph glyph-name="FL0056h" unicode="V" horiz-adv-x="776" 
d="M463 763h-155l-66 -763h234l428 763h-154l-334 -594z" />
    <glyph glyph-name="FL0057h" unicode="W" horiz-adv-x="1218" 
d="M904 763h-154l-334 -594l47 594h-155l-66 -763h234l246 437l-38 -437h234l428 763h-155l-333 -594z" />
    <glyph glyph-name="FL0058h" unicode="X" horiz-adv-x="914" 
d="M60 0h192l260 263l90 -263h192l-142 400l2 7l334 355h-177l-206 -213l-65 213h-178l102 -355l-2 -7z" />
    <glyph glyph-name="FL0059h" unicode="Y" horiz-adv-x="776" 
d="M134 115h407l67 204h-344q-16 0 -31.5 6.5t-27 17t-17 23.5t-0.5 27l120 369h151l-106 -324h291l106 325h154l-224 -689q-4 -12 -16.5 -25t-28.5 -24t-33.5 -18t-30.5 -7h-474z" />
    <glyph glyph-name="FL005Ah" unicode="Z" horiz-adv-x="728" 
d="M98 116l-38 -116h547l38 116h-389l562 530l38 116h-547l-38 -116h393z" />
    <glyph glyph-name="FL005Bh" unicode="[" horiz-adv-x="493" 
d="M621 762l-38 -116h-157l-173 -531h157l-37 -115h-313l248 762h313z" />
    <glyph glyph-name="FL005Ch" unicode="\" horiz-adv-x="860" 
d="M740 0h-192l-240 762h178z" />
    <glyph glyph-name="FL005Dh" unicode="]" horiz-adv-x="493" 
d="M308 762l-38 -116h157l-173 -531h-157l-37 -115h313l248 762h-313z" />
    <glyph glyph-name="FL005Eh" unicode="^" horiz-adv-x="479" 
d="M450 555h89l-21 207h-118l-160 -207h90l100 122z" />
    <glyph glyph-name="FL005Fh" unicode="_" 
d="M98 117h547l-38 -117h-547z" />
    <glyph glyph-name="FL0060h" unicode="`" horiz-adv-x="432" 
d="M466 566q22 14 33 29.5t16 29.5q9 26 -5 40l-65 81q-13 16 -46 16q-35 0 -63 -19l-13 -11q-31 -19 -42 -52q-9 -27 5 -41l72 -75q12 -16 43 -16q14 0 28 2t31 13z" />
    <glyph glyph-name="a" unicode="a" horiz-adv-x="790" 
d="M662 445l65 201h-439l38 116h496q15 0 29.5 -6.5t25.5 -16.5t16 -23.5t1 -26.5l-224 -689h-524q-15 0 -27.5 8t-21 20t-12 26t0.5 26l93 285q4 12 17 26t29.5 26t35 20t33.5 8h368zM323 328l-69 -211h301l69 211h-301z" />
    <glyph glyph-name="FL0062h" unicode="b" horiz-adv-x="796" 
d="M67 21h1l-7 -21h522q13 0 31 6.5t35.5 16.5t31.5 23t18 25l87 268q1 3 -1.5 10t-6 15t-7 14.5t-4.5 9.5q4 1 12 8t15.5 16t14 17.5t8.5 12.5l81 249q4 12 -1.5 25t-16 23t-24.5 16.5t-26 6.5h-522zM632 331l-70 -215h-308l70 215h308zM425 646h307l-66 -202h-307z" />
    <glyph glyph-name="c" unicode="c" 
d="M855 762l-38 -116h-391l-173 -531h391l-37 -115h-461q-2 0 -7.5 1t-7.5 3q-28 12 -40 33.5t-2 50.5l190 586q5 15 18 31t30 28.5t37 20.5t40 8h451z" />
    <glyph glyph-name="FL0064h" unicode="d" horiz-adv-x="812" 
d="M308 763h536q15 0 29.5 -6.5t25.5 -17t16.5 -23t1.5 -25.5l-202 -620q-3 -11 -15.5 -23.5t-28.5 -23t-33.5 -17.5t-30.5 -7h-547zM426 646l-172 -529h324l172 529h-324z" />
    <glyph glyph-name="FL0045h" unicode="e" horiz-adv-x="730" 
d="M858 762l-38 -116h-396l-65 -201h382l-38 -116h-382l-70 -214h396l-37 -115h-464q-13 0 -25.5 7t-22 17.5t-14 23t-1.5 23.5l201 618q4 13 17.5 26.5t31 23.5t36.5 16.5t35 6.5h454z" />
    <glyph glyph-name="FL0066h" unicode="f" horiz-adv-x="726" 
d="M854 762l-38 -116h-396l-65 -201h384l-38 -116h-384l-107 -329h-150l225 692q4 13 17 26t29.5 22.5t35 15.5t33.5 6h454z" />
    <glyph glyph-name="FL0067h" unicode="g" 
d="M142 0h373q13 0 31 6.5t35.5 16.5t31 23t17.5 25l98 302h-153l-83 -257h-238l172 530h391l38 116h-451q-20 0 -40 -8t-37 -20.5t-30 -28.5t-18 -31l-190 -586q-11 -33 5 -55t48 -33z" />
    <glyph glyph-name="FL0068h" unicode="h" horiz-adv-x="776" 
d="M463 763h-155l-248 -763h155l104 319h287l-104 -319h154l248 763h-154l-106 -325h-287z" />
    <glyph glyph-name="FL0069h" unicode="i" horiz-adv-x="335" 
d="M60 0h155l248 763h-155z" />
    <glyph glyph-name="FL006Ah" unicode="j" 
d="M526 0h-374q-12 0 -26 6.5t-25 16.5t-16.5 23t-1.5 25l85 261h155l-70 -216h237l210 647h155l-219 -675q-11 -33 -40.5 -55t-69.5 -33z" />
    <glyph glyph-name="k" unicode="k" horiz-adv-x="826" 
d="M60 0h154l248 762h-154zM564 0h192l-214 398l2 6l406 358h-176l-418 -362z" />
    <glyph glyph-name="FL006Ch" unicode="l" horiz-adv-x="726" 
d="M606 -1l37 116h-396l210 646h-150l-225 -692q-4 -14 0.5 -26.5t14.5 -22t24.5 -15.5t30.5 -6h454z" />
    <glyph glyph-name="FL006Dh" unicode="m" horiz-adv-x="1063" 
d="M477 763l-169 -1l-248 -762h155l162 499l125 -499l448 499l-162 -499h155l248 763h-159l-448 -502z" />
    <glyph glyph-name="FL006Eh" unicode="n" horiz-adv-x="776" 
d="M463 763h-155l-248 -763h155l166 511l121 -511h154l248 763h-154l-164 -506z" />
    <glyph glyph-name="o" unicode="o" horiz-adv-x="812" 
d="M137 2q-30 6 -44.5 30t-5.5 50l195 600q4 15 17 29t30.5 25.5t37.5 18.5t37 7h440q15 0 29.5 -6.5t25.5 -16.5t16.5 -23t1.5 -25l-202 -620q-3 -11 -15.5 -23.5t-28.5 -23t-33.5 -17.5t-30.5 -7h-458q-1 0 -5.5 1t-6.5 1zM426 646l-172 -529h324l172 529h-324z" />
    <glyph glyph-name="FL0070h" unicode="p" horiz-adv-x="794" 
d="M308 762l-248 -762h155l108 332h374q13 0 30 7.5t33.5 18.5t29 24t16.5 24l93 285q4 12 -1.5 25t-16.5 23t-25 16.5t-26 6.5h-522zM425 646h307l-65 -201h-307z" />
    <glyph glyph-name="FL0071h" unicode="q" horiz-adv-x="826" 
d="M667 -120l-49 121q13 3 28.5 10.5t29.5 17.5t25 21t14 21l202 620q4 12 -1.5 25t-16.5 23t-25.5 16.5t-29.5 6.5h-440q-17 0 -37 -7t-37.5 -18.5t-30.5 -25.5t-17 -29l-195 -600q-9 -26 5.5 -50t44.5 -30q2 0 6.5 -1t5.5 -1h300l50 -120h168zM426 646h324l-171 -525
l-50 138h-173l53 -142h-155z" />
    <glyph glyph-name="FL0072h" unicode="r" horiz-adv-x="850" 
d="M308 762h522q12 0 26 -6.5t25 -16.5t16.5 -23t1.5 -25l-93 -285q-4 -11 -16.5 -24t-29 -24t-33.5 -18t-30 -7h-80l113 -333h-168l-152 445h257l65 201h-307l-210 -646h-155z" />
    <glyph glyph-name="FL0073h" unicode="s" horiz-adv-x="796" 
d="M60 0l38 116h460l70 217h-371q-13 0 -26 7t-23 18t-14.5 24t-0.5 24l93 285q4 12 17.5 25t31 23t35.5 16.5t32 6.5h522l-38 -116h-460l-65 -201h371q12 0 25 -7t22.5 -18t14.5 -23.5t1 -23.5l-98 -302q-4 -12 -18 -25t-31 -23t-35 -16.5t-31 -6.5h-522z" />
    <glyph glyph-name="FL0074h" unicode="t" 
d="M256 0h154l210 646h197l38 116h-547l-38 -116h196z" />
    <glyph glyph-name="FL0075h" unicode="u" horiz-adv-x="810" 
d="M459 763h-151l-223 -686q-8 -25 7 -46t41 -29q3 0 7 -1t5 -1h460q13 0 30.5 7t33.5 17.5t28.5 23t15.5 23.5l225 692h-155l-210 -646h-324z" />
    <glyph glyph-name="FL0076h" unicode="v" horiz-adv-x="776" 
d="M463 763h-155l-66 -763h234l428 763h-154l-334 -594z" />
    <glyph glyph-name="FL0077h" unicode="w" horiz-adv-x="1218" 
d="M904 763h-154l-334 -594l47 594h-155l-66 -763h234l246 437l-38 -437h234l428 763h-155l-333 -594z" />
    <glyph glyph-name="FL0078h" unicode="x" horiz-adv-x="850" 
d="M42 0l402 400l2 7l-102 355h178l65 -213l206 213h177l-334 -355l-2 -7l142 -400h-192l-90 263l-260 -263h-192z" />
    <glyph glyph-name="y" unicode="y" horiz-adv-x="776" 
d="M134 115h407l67 204h-344q-16 0 -31.5 6.5t-27 17t-17 23.5t-0.5 27l120 369h151l-106 -324h291l106 325h154l-224 -689q-4 -12 -16.5 -25t-28.5 -24t-33.5 -18t-30.5 -7h-474z" />
    <glyph glyph-name="FL007Ah" unicode="z" horiz-adv-x="728" 
d="M98 116l-38 -116h547l38 116h-389l562 530l38 116h-547l-38 -116h393z" />
    <glyph glyph-name="FL007Bh" unicode="{" horiz-adv-x="493" 
d="M667 905l-38 -116h-158l-265 -816h158l-37 -115h-227q-2 0 -7.5 1t-7.5 3q-28 12 -40.5 33t-2.5 51l283 871q5 15 18 31t30 28.5t37 20.5t40 8h217z" />
    <glyph glyph-name="FL007Ch" unicode="|" horiz-adv-x="337" 
d="M14 -142h157l339 1045h-157z" />
    <glyph glyph-name="FL007Dh" unicode="}" horiz-adv-x="493" 
d="M354 905l-38 -116h157l-265 -816h-157l-37 -115h227q2 0 7.5 1t8.5 3q35 12 61.5 33t36.5 51l283 871q5 15 3 31t-11 28.5t-24 20.5t-35 8h-217z" />
    <glyph glyph-name="FL007Eh" unicode="~" horiz-adv-x="600" 
d="M360 276l-20 125l-99 -122h-90l159 207h118l19 -125l100 122h90l-159 -207h-118z" />
    <glyph glyph-name="FL007Fh" horiz-adv-x="178" 
 />
    <glyph glyph-name="FL00A1h" unicode="&#xa1;" horiz-adv-x="360" 
d="M408 550h-153l-179 -550h153zM402 763q-23 0 -43 -7t-35.5 -17.5t-25.5 -23t-13 -23.5q-4 -12 -2 -25t9 -23.5t19 -17t28 -6.5l17 1q17 0 35 6.5t33 17t26 23t15 24.5t3 24.5t-8 23t-20 17t-32 6.5h-6z" />
    <glyph glyph-name="FL00A2h" unicode="&#xa2;" 
d="M304 0l52 159h-158q-2 0 -7.5 1.5t-7.5 3.5q-28 11 -40 32.5t-3 50.5l84 259q5 15 17.5 30.5t30 28.5t37.5 21t40 8h148l55 169h154l-55 -169h149l-38 -116h-149l-66 -204h149l-37 -115h-149l-52 -159h-154zM459 478h-88l-66 -204h88z" />
    <glyph glyph-name="FL0579h" unicode="&#xa3;" horiz-adv-x="882" 
d="M98 116l-38 -116h702l38 116h-396l65 200h384l38 117h-384l107 329h-150l-108 -330h-156l-37 -116h156l-65 -200h-156z" />
    <glyph glyph-name="FL00A4h" unicode="&#xa4;" horiz-adv-x="914" 
d="M400 628q-7 -11 -7 -14l-136 -418l-197 -196h192l144 146h156l50 -146h192l-71 201l136 419q1 4 0 6l129 136h-177l-91 -93h-153l-27 93h-178zM419 234q-13 2 -18.5 13t-1.5 23l87 270q5 13 21 24.5t32 11.5h147q12 0 23 -10t7 -21l-91 -279q-2 -5 -7.5 -10.5t-12 -10.5
t-13.5 -8t-13 -3h-160z" />
    <glyph glyph-name="FL00A5h" unicode="&#xa5;" horiz-adv-x="971" 
d="M134 115l-37 -115h474q13 0 30.5 7t33.5 18t28.5 24t16.5 25l53 163h185l38 117h-185l21 64h185l38 116h-185l74 229h-154l-106 -325h-291l106 324h-151l-120 -369q-5 -14 0.5 -27t17 -23.5t27 -17t31.5 -6.5h344l-67 -204h-407z" />
    <glyph glyph-name="FL00A6h" unicode="&#xa6;" horiz-adv-x="1721" 
d="M1703 315l-140 -9q63 -72 55 -98q-2 -2 -5 -8l-133 17l-48 -114l-126 34l-137 -98l-83 48l-238 -80l22 32l-23 32l-278 -40l49 56l-294 9l101 47l-241 42l129 41l-156 72l139 8l-49 73v33l135 -8l57 113q29 -17 51.5 -26t42.5 -9q18 0 26 4l146 96l69 -49l216 73l20 -7
l-7 -49l288 32l-40 -57h287l-101 -48l231 -41l6 -16h-12l-113 -24l148 -66zM1514 371l-43 9l-43 -110l28 -4zM1448 222l-25 9l-31 -15l18 -16zM1371 230l46 142l-30 8l-40 -100l-76 91l-44 -142l29 2l23 70q48 -71 92 -71zM1193 231l32 107q1 45 -34 45q-17 0 -26 -4
q-92 -72 -123 -142h38q34 33 59 33q24 0 32 -33zM1066 380l-37 -6l-67 -145l50 10zM926 225l46 141l-30 8l-38 -99l-79 91l-44 -144l30 4l23 69q46 -70 92 -70zM790 325q-2 48 -62 48h-11q2 0 -0.5 -0.5t-8.5 -0.5q-82 -33 -112 -125q4 -24 57 -24q7 0 15 0.5t16 1.5
q55 0 106 100zM625 377q-143 -17 -164 -83q-2 -5 -2.5 -8.5t-2.5 -10.5q-2 -63 53 -63q7 0 17 2t24 4l5 25q-13 -4 -37 -4q-40 0 -31 28q11 32 47 58q35 20 57 20q6 0 10 -0.5t9 -2.5zM468 374l-37 -6l-66 -146l47 11zM1182 301h-62l54 48zM748 305q-8 -23 -31 -43
q-33 -12 -53 -12q-31 0 -19 35q3 9 4 10q39 45 69 45q25 0 29 -19q4 -4 1 -16z" />
    <glyph glyph-name="FL00A7h" unicode="&#xa7;" horiz-adv-x="914" 
d="M411 668l-153 -472l-198 -196h192l144 146h309l154 474q1 4 0 6l129 136h-177l-91 -93zM419 234q-13 2 -18.5 13t-1.5 23l100 308h188q11 -2 22 -12t7 -21l-101 -311h-196z" />
    <glyph glyph-name="FL00A8h" unicode="&#xa8;" horiz-adv-x="600" 
d="M347 619q23 0 43 7t35.5 17.5t25.5 23t13 23.5q4 12 2 24.5t-9 23t-19 17.5t-28 7l-17 -1q-17 0 -35 -6.5t-33 -17t-26 -23t-15 -24.5t-3 -24.5t8 -23t20 -17t32 -6.5h6zM587 619q23 0 43 7t35.5 17.5t25.5 23t13 23.5q4 12 2 24.5t-9 23t-19 17.5t-28 7l-17 -1
q-17 0 -35 -6.5t-33 -17t-26 -23t-15 -24.5t-3 -24.5t8 -23t20 -17t32 -6.5h6z" />
    <glyph glyph-name="FL00A9h" unicode="&#xa9;" horiz-adv-x="496" 
d="M221 383q3 0 4.5 -0.5t2.5 -0.5h230q7 0 15.5 3.5t16 8.5t13.5 11t8 12l101 310q2 6 -0.5 12.5t-8 12t-13 8.5t-14.5 3h-220q-9 0 -18.5 -3.5t-18 -9.5t-15 -13t-9.5 -14l-98 -300q-5 -14 2.5 -25.5t21.5 -14.5zM524 703l-13 -41h-115l-59 -183h115l-13 -38h-81h-41
q-14 0 -15.5 0.5l-1.5 0.5q-21 7 -13 28l65 202q4 11 16.5 21t20.5 10h135z" />
    <glyph glyph-name="FL00AAh" unicode="&#xaa;" horiz-adv-x="485" 
d="M484 604l33 101h-220l19 58h249q15 0 27.5 -11.5t8.5 -25.5l-112 -344h-262q-15 0 -24.5 14t-5.5 26l46 142q2 6 8.5 13t14.5 13t17 10t17 4h184zM315 546l-34 -106h150l34 106h-150z" />
    <glyph glyph-name="FL00ABh" unicode="&#xab;" horiz-adv-x="736" 
d="M725 336l-24 -74l-225 74l32 98l274 77l-24 -75l-164 -50zM417 336l-24 -74l-224 74l32 98l273 77l-24 -75l-163 -50z" />
    <glyph glyph-name="FL00ACh" unicode="&#xac;" horiz-adv-x="781" 
d="M205 445l-38 -116h462l-41 -125h140l79 242z" />
    <glyph glyph-name="FL00ADh" unicode="&#xad;" horiz-adv-x="476" 
d="M205 446h296l-38 -117h-296z" />
    <glyph glyph-name="FL00AEh" unicode="&#xae;" horiz-adv-x="496" 
d="M221 383q3 0 4.5 -0.5t2.5 -0.5h230q7 0 15.5 3.5t16 8.5t13.5 11t8 12l101 310q2 6 -0.5 12.5t-8 12t-13 8.5t-14.5 3h-220q-9 0 -18.5 -3.5t-18 -9.5t-15 -13t-9.5 -14l-98 -300q-5 -14 2.5 -25.5t21.5 -14.5zM524 703l-13 -41h-115l-72 -223h-47l75 233q4 11 16.5 21
t20.5 10h135z" />
    <glyph glyph-name="FL00AFh" unicode="&#xaf;" 
d="M308 763h547l-38 -117h-547z" />
    <glyph glyph-name="FL00B0h" unicode="&#xb0;" horiz-adv-x="360" 
d="M347 620q23 0 43 7t35 17.5t25.5 23t14.5 23.5q4 12 2 24.5t-9.5 23t-19.5 17.5t-28 7l-16 -1q-17 0 -35 -6.5t-33 -17t-26 -23t-15 -24.5t-3 -24.5t7.5 -23t19 -17t32.5 -6.5h6z" />
    <glyph glyph-name="FL00B1h" unicode="&#xb1;" horiz-adv-x="781" 
d="M613 544h-140l-32 -99h-236l-38 -116h236l-34 -104h140l34 103h225l38 118h-225zM98 116l-38 -116h601l38 116h-601z" />
    <glyph glyph-name="FL00B2h" unicode="&#xb2;" horiz-adv-x="487" 
d="M308 763l-19 -58h229l-35 -108h-185q-6 0 -14.5 -3.5t-17 -9t-15.5 -12t-9 -12.5l-58 -177h307l19 57h-229l33 101h185q6 0 14.5 3.5t17 9t15 11.5t8.5 12l50 151q4 13 -9 24t-27 11h-260z" />
    <glyph glyph-name="FL00B3h" unicode="&#xb3;" horiz-adv-x="487" 
d="M521 705l-33 -102h-232l-18 -56h232l-35 -108h-232l-19 -58h262q7 0 16 3t17 8.5t14.5 11.5t8.5 12l44 134q1 3 -3 12.5t-6 12.5q2 0 5.5 3.5t7.5 8t7.5 9t4.5 6.5l40 124q4 13 -8 24.5t-26 11.5h-260l-19 -57h232z" />
    <glyph glyph-name="FL00B4h" unicode="&#xb4;" horiz-adv-x="432" 
d="M274 566q-13 14 -14.5 29.5t3.5 29.5q10 27 31 40l117 81q25 16 58 16q34 0 49 -19l7 -11q18 -21 8 -52q-9 -28 -31 -41l-122 -75q-19 -16 -53 -16q-14 0 -26.5 2t-22.5 13z" />
    <glyph glyph-name="FL00B5h" unicode="&#xb5;" horiz-adv-x="776" 
d="M656 115h-407l67 204h345q16 0 35.5 6.5t37.5 17t31.5 23.5t18.5 27l120 369h-151l-106 -324h-290l106 325h-155l-224 -689q-4 -12 0 -25t13.5 -24t22 -18t25.5 -7h474z" />
    <glyph glyph-name="FL00B6h" unicode="&#xb6;" horiz-adv-x="794" 
d="M922 762h-522q-13 0 -31 -6.5t-35 -16.5t-31 -23t-18 -25l-93 -285q-4 -11 0.5 -24t14 -24t22 -18t24.5 -7h183l-108 -333h142l210 646h50l-210 -646h154z" />
    <glyph glyph-name="FL00B7h" unicode="&#xb7;" horiz-adv-x="361" 
d="M246 302q22 0 42 7t35.5 17.5t25.5 23t13 23.5q4 12 2 25t-9 23.5t-19 17t-28 6.5h-15q-18 0 -36 -6.5t-33 -17t-26.5 -23.5t-15.5 -25t-2.5 -24.5t8.5 -23t20 -17t32 -6.5h6z" />
    <glyph glyph-name="FL00B8h" unicode="&#xb8;" horiz-adv-x="421" 
d="M-37 -151l4 -3q10 -11 22.5 -13t26.5 -2q34 0 53 16l236 153h-246l-76 -52q-21 -13 -31 -40q-5 -14 -3.5 -29.5t14.5 -29.5z" />
    <glyph glyph-name="FL00B9h" unicode="&#xb9;" horiz-adv-x="322" 
d="M248 382h78l124 381h-142l-19 -59h64z" />
    <glyph glyph-name="FL00BAh" unicode="&#xba;" horiz-adv-x="496" 
d="M221 383q-14 3 -21.5 14.5t-2.5 25.5l98 300q3 7 9.5 14t15 13t18 9.5t18.5 3.5h220q7 0 14.5 -3t13 -8.5t8 -12t0.5 -12.5l-101 -310q-2 -6 -8 -12t-13.5 -11t-16 -8.5t-15.5 -3.5h-230q-1 0 -2.5 0.5t-4.5 0.5zM367 705l-86 -265h162l86 265h-162z" />
    <glyph glyph-name="FL00BBh" unicode="&#xbb;" horiz-adv-x="736" 
d="M168 336l-24 -74l272 74l32 98l-223 77l-24 -75l129 -50zM475 336l-24 -74l272 74l32 98l-223 77l-24 -75l129 -50z" />
    <glyph glyph-name="FL00BCh" unicode="&#xbc;" horiz-adv-x="904" 
d="M60 0h131l751 762h-129zM288 383h87l124 380h-142l-19 -59h55zM687 381h-77l-72 -222h221l-52 -159h77l124 381h-77l-53 -162h-144z" />
    <glyph glyph-name="FL00BDh" unicode="&#xbd;" horiz-adv-x="912" 
d="M60 0h131l751 762h-129zM288 383h87l124 380h-142l-19 -59h55zM608 380l-18 -58h229l-35 -108h-185q-6 0 -14.5 -3.5t-17 -9t-15.5 -12t-9 -12.5l-58 -177h307l19 57h-229l32 101h185q6 0 14.5 3.5t17 9t15.5 11.5t9 12l49 151q2 6 -0.5 12.5t-8.5 11.5t-13 8t-14 3h-260
z" />
    <glyph glyph-name="FL00BEh" unicode="&#xbe;" horiz-adv-x="995" 
d="M151 0h131l751 762h-129zM778 381h-77l-72 -222h221l-52 -159h77l124 381h-77l-53 -162h-144zM521 706l-33 -102h-232l-18 -56h232l-35 -108h-232l-19 -58h262q7 0 16 3t17 8.5t14.5 11.5t8.5 12l44 134q1 3 -3 12.5t-6 12.5q2 0 5.5 3.5t7.5 8t7.5 9t4.5 6.5l40 124
q5 13 -7.5 24.5t-26.5 11.5h-260l-19 -57h232z" />
    <glyph glyph-name="FL00BFh" unicode="&#xbf;" horiz-adv-x="794" 
d="M674 0l38 116h-459l70 217h371q12 0 29.5 7t34 18t30 24t17.5 24l46 142h-155l-33 -103h-370q-13 0 -30.5 -7t-34.5 -18t-30 -23.5t-17 -23.5l-98 -302q-4 -12 1.5 -25t16.5 -23t25 -16.5t26 -6.5h522zM835 761q-23 0 -42.5 -7t-34.5 -17.5t-25.5 -23t-14.5 -23.5
q-4 -12 -2 -25t9.5 -23.5t19.5 -17t28 -6.5l16 1q18 0 35.5 6.5t32.5 17t26 23t15 24.5t3 24.5t-8 23t-20 17t-32 6.5h-6z" />
    <glyph glyph-name="FL00C0h" unicode="&#xc0;" horiz-adv-x="810" 
d="M744 646l-65 -200h-323l65 200h323zM534 0h155l225 692q3 11 -1.5 23.5t-13.5 23t-21.5 17.5t-25.5 7h-460q-1 0 -5.5 -1t-7.5 -1q-32 -8 -60.5 -29t-36.5 -46l-223 -686h152l107 330h323zM733 814q23 14 34 29.5t16 29.5q8 27 -5 40l-65 81q-13 16 -47 16t-62 -19
l-14 -11q-15 -11 -25.5 -23.5t-15.5 -28.5q-10 -27 4 -41l73 -75q10 -16 43 -16q15 0 28.5 2t30.5 13z" />
    <glyph glyph-name="FL00C1h" unicode="&#xc1;" horiz-adv-x="810" 
d="M425 646l-65 -200h323l65 200h-323zM215 0h-155l225 692q3 11 15.5 23.5t28.5 23t33.5 17.5t30.5 7h460q1 0 4.5 -1t6.5 -1q27 -8 42 -29t7 -46l-223 -686h-152l107 330h-323zM544 814q-12 14 -13.5 29.5t3.5 29.5q8 26 31 40l117 81q25 16 56 16q33 0 51 -19l5 -11
q19 -19 10 -52q-10 -28 -32 -41l-122 -75q-19 -16 -53 -16q-14 0 -26.5 2t-22.5 13z" />
    <glyph glyph-name="FL00C2h" unicode="&#xc2;" horiz-adv-x="810" 
d="M322 330h323l-107 -330h152l223 686q8 25 -7 46t-42 29q-3 0 -6.5 1t-4.5 1h-460q-13 0 -30.5 -7t-33.5 -17.5t-28.5 -23t-15.5 -23.5l-225 -692h155zM748 646l-65 -200h-323l65 200h323zM693 798h89l-21 207h-117l-161 -207h90l100 122z" />
    <glyph glyph-name="FL00C3h" unicode="&#xc3;" horiz-adv-x="810" 
d="M425 646l-65 -200h323l65 200h-323zM215 0h-155l225 692q3 11 15.5 23.5t28.5 23t33.5 17.5t30.5 7h460q1 0 4.5 -1t6.5 -1q27 -8 42 -29t7 -46l-223 -686h-152l107 330h-323zM643 795l-19 125l-100 -122h-90l161 207h117l19 -125l100 122h90l-160 -207h-118z" />
    <glyph glyph-name="FL00C4h" unicode="&#xc4;" horiz-adv-x="810" 
d="M322 330h323l-107 -330h152l223 686q8 25 -7 46t-42 29q-3 0 -6.5 1t-4.5 1h-460q-13 0 -30.5 -7t-33.5 -17.5t-28.5 -23t-15.5 -23.5l-225 -692h155zM748 646l-65 -200h-323l65 200h323zM518 815q23 0 42.5 7t34.5 17.5t25.5 23t14.5 23.5q4 12 2 24.5t-9.5 23
t-19.5 17.5t-28 7l-16 -1q-18 0 -35.5 -6.5t-32.5 -17t-26 -23t-15 -24.5t-3 -24.5t8 -23t19.5 -17t32.5 -6.5h6zM758 815q23 0 42.5 7t34.5 17.5t25.5 23t14.5 23.5q4 12 2 24.5t-9.5 23t-19.5 17.5t-28 7l-16 -1q-18 0 -35.5 -6.5t-32.5 -17t-26 -23t-15 -24.5t-3 -24.5
t8 -23t19.5 -17t32.5 -6.5h6z" />
    <glyph glyph-name="FL00C5h" unicode="&#xc5;" horiz-adv-x="810" 
d="M322 330h323l-107 -330h152l223 686q8 25 -7 46t-42 29q-3 0 -6.5 1t-4.5 1h-460q-13 0 -30.5 -7t-33.5 -17.5t-28.5 -23t-15.5 -23.5l-225 -692h155zM748 646l-65 -200h-323l65 200h323zM641 812q23 0 42.5 7t34.5 17.5t25 23t14 23.5q4 12 2 24.5t-9 23t-19.5 17.5
t-28.5 7l-15 -1q-18 0 -36 -6.5t-33 -17t-26 -23t-15 -24.5t-2.5 -24.5t8.5 -23t20 -17t32 -6.5h6z" />
    <glyph glyph-name="FL00C6h" unicode="&#xc6;" horiz-adv-x="1205" 
d="M322 330l-107 -330h-155l225 692q3 11 15 23t27.5 22.5t32.5 17t30 6.5h849q13 0 27 -6.5t25 -16.5t16.5 -22.5t1.5 -25.5l-98 -301q-3 -11 -16 -24t-30 -24t-34.5 -18t-30.5 -7h-303l-66 -201h391l-37 -115h-547l107 330h-323zM748 646h-323l-65 -200h323zM1141 645
h-237l-70 -215h237z" />
    <glyph glyph-name="FL00C7h" unicode="&#xc7;" 
d="M153 -151l3 -3q10 -11 22.5 -13t26.5 -2q34 0 53 16l236 153h113l37 115h-391l173 531h391l38 116h-451q-20 0 -40 -8t-37 -20.5t-30 -28.5t-18 -31l-190 -586q-10 -29 2 -50.5t40 -33.5q2 -2 7.5 -3t7.5 -1h102l-75 -52q-21 -13 -31 -40q-5 -14 -3.5 -29.5t14.5 -29.5z
" />
    <glyph glyph-name="FL00C8h" unicode="&#xc8;" 
d="M356 430l70 215h238l-70 -215h-238zM389 761q-39 -11 -69 -33t-41 -55l-191 -586q-5 -15 -2.5 -30.5t11.5 -28.5t24 -21t35 -8h451l37 116h-391l66 201h304q12 0 29.5 7t34.5 18t30 24t16 24l98 301q4 13 -1.5 25.5t-16 22.5t-24.5 16.5t-27 6.5h-373zM736 814
q22 14 33.5 29.5t16.5 29.5q8 27 -5 40l-66 81q-7 8 -19 12t-27 4q-35 0 -63 -19l-13 -11q-32 -23 -41 -52q-10 -27 4 -41l73 -75q10 -16 43 -16q14 0 28 2t31 13z" />
    <glyph glyph-name="FL00C9h" unicode="&#xc9;" 
d="M389 761h373q13 0 27 -6.5t24.5 -16.5t16 -22.5t1.5 -25.5l-98 -301q-3 -11 -16 -24t-30 -24t-34.5 -18t-29.5 -7h-304l-66 -201h391l-37 -116h-451q-20 0 -35 8t-24 21t-11.5 28.5t2.5 30.5l191 586q11 33 41 55t69 33zM594 430l70 215h-238l-70 -215h238zM544 814
q-12 14 -13.5 29.5t3.5 29.5q8 26 31 40l117 81q25 16 56 16q33 0 51 -19l5 -11q19 -19 10 -52q-10 -28 -32 -41l-122 -75q-19 -16 -53 -16q-14 0 -26.5 2t-22.5 13z" />
    <glyph glyph-name="FL00CAh" unicode="&#xca;" 
d="M356 430l70 215h238l-70 -215h-238zM389 761q-39 -11 -69 -33t-41 -55l-191 -586q-5 -15 -2.5 -30.5t11.5 -28.5t24 -21t35 -8h451l37 116h-391l66 201h304q12 0 29.5 7t34.5 18t30 24t16 24l98 301q4 13 -1.5 25.5t-16 22.5t-24.5 16.5t-27 6.5h-373zM656 801h89
l-21 207h-118l-160 -207h90l100 122z" />
    <glyph glyph-name="FL00CEh" unicode="&#xcb;" 
d="M356 430l70 215h238l-70 -215h-238zM389 761q-39 -11 -69 -33t-41 -55l-191 -586q-5 -15 -2.5 -30.5t11.5 -28.5t24 -21t35 -8h451l37 116h-391l66 201h304q12 0 29.5 7t34.5 18t30 24t16 24l98 301q4 13 -1.5 25.5t-16 22.5t-24.5 16.5t-27 6.5h-373zM499 814q23 0 43 7
t35 17.5t25.5 23t14.5 23.5q4 12 2 24.5t-9.5 23t-19.5 17.5t-28 7l-16 -1q-18 0 -35.5 -6.5t-32.5 -17t-26 -23t-15 -24.5t-3 -24.5t7.5 -23t19 -17t32.5 -6.5h6zM739 814q23 0 43 7t35 17.5t25.5 23t14.5 23.5q4 12 2 24.5t-9.5 23t-19.5 17.5t-28 7l-16 -1
q-18 0 -35.5 -6.5t-32.5 -17t-26 -23t-15 -24.5t-3 -24.5t7.5 -23t19 -17t32.5 -6.5h6z" />
    <glyph glyph-name="FL00CCh" unicode="&#xcc;" horiz-adv-x="728" 
d="M644 117h-194l172 529h195l38 116h-547l-38 -116h197l-172 -529h-198l-38 -117h547zM700 819q22 14 33 29.5t16 29.5q9 26 -5 40l-64 81q-15 16 -46 16q-35 0 -63 -19l-13 -11q-33 -21 -43 -52q-9 -27 5 -41l73 -75q10 -16 43 -16q14 0 28 2t31 13z" />
    <glyph glyph-name="FL00CDh" unicode="&#xcd;" horiz-adv-x="728" 
d="M99 117h195l172 529h-196l38 116h547l-38 -116h-197l-172 -529h198l-38 -117h-547zM499 819q-13 14 -14.5 29.5t3.5 29.5q10 27 31 40l118 81q22 16 57 16q32 0 50 -19l6 -11q19 -23 8 -52q-9 -28 -31 -41l-122 -75q-19 -16 -53 -16q-15 0 -27 2t-22 13z" />
    <glyph glyph-name="FL00D7h" unicode="&#xce;" horiz-adv-x="728" 
d="M61 0h547l38 117h-198l172 529h197l38 116h-547l-38 -116h196l-172 -529h-195zM655 800h89l-22 207h-118l-159 -207h90l100 122z" />
    <glyph glyph-name="FL00CFh" unicode="&#xcf;" horiz-adv-x="728" 
d="M294 117h-195l-38 -117h547l38 117h-198l172 529h197l38 116h-547l-38 -116h196zM484 814q23 0 42.5 7t34.5 17.5t25.5 23t14.5 23.5q4 12 2 24.5t-9.5 23t-19.5 17.5t-28 7l-15 -1q-18 0 -36 -6.5t-33 -17t-26 -23t-15 -24.5t-3 -24.5t8 -23t19.5 -17t32.5 -6.5h6z
M724 814q23 0 42.5 7t34.5 17.5t25.5 23t14.5 23.5q4 12 2 24.5t-9.5 23t-19.5 17.5t-28 7l-15 -1q-18 0 -36 -6.5t-33 -17t-26 -23t-15 -24.5t-3 -24.5t8 -23t19.5 -17t32.5 -6.5h6z" />
    <glyph glyph-name="FL00D0h" unicode="&#xd0;" horiz-adv-x="923" 
d="M204 444l-37 -116h110l-107 -328h548q13 0 30 7t33.5 17.5t29 23t15.5 23.5l202 620q4 13 -1.5 25.5t-16.5 23t-25.5 17t-29.5 6.5h-537l-104 -319h-110zM536 646h324l-172 -529h-324l69 211h117l37 116h-117z" />
    <glyph glyph-name="FL00D1h" unicode="&#xd1;" horiz-adv-x="810" 
d="M690 0h-151l210 646h-324l-210 -646h-155l248 762h546l10 -1q27 -8 42 -29t7 -46zM638 795l-19 125l-100 -122h-90l161 207h117l19 -125l100 122h90l-160 -207h-118z" />
    <glyph glyph-name="FL00D2h" unicode="&#xd2;" horiz-adv-x="812" 
d="M254 117l172 529h324l-172 -529h-324zM137 2q2 0 6.5 -1t5.5 -1h458q13 0 30.5 7t33.5 17.5t28.5 23t15.5 23.5l202 620q4 12 -1.5 25t-16.5 23t-25.5 16.5t-29.5 6.5h-440q-17 0 -37 -7t-37.5 -18.5t-30.5 -25.5t-17 -29l-195 -600q-9 -26 5.5 -50t44.5 -30zM736 814
q22 14 33.5 29.5t16.5 29.5q8 27 -5 40l-66 81q-7 8 -19 12t-27 4q-35 0 -63 -19l-13 -11q-32 -23 -41 -52q-10 -27 4 -41l73 -75q10 -16 43 -16q14 0 28 2t31 13z" />
    <glyph glyph-name="FL00D3h" unicode="&#xd3;" horiz-adv-x="812" 
d="M573 117l172 529h-324l-172 -529h324zM617 2q-3 0 -8 -1t-7 -1h-458q-13 0 -25.5 7t-21.5 17.5t-13.5 23t-1.5 23.5l202 620q4 12 17.5 25t31 23t36.5 16.5t34 6.5h440q18 0 32.5 -7t24 -18.5t13.5 -25.5t0 -29l-195 -600q-10 -26 -38.5 -50t-62.5 -30zM544 814
q-12 14 -13.5 29.5t3.5 29.5q8 26 31 40l117 81q25 16 56 16q33 0 51 -19l5 -11q19 -19 10 -52q-10 -28 -32 -41l-122 -75q-19 -16 -53 -16q-14 0 -26.5 2t-22.5 13z" />
    <glyph glyph-name="FL00D4h" unicode="&#xd4;" horiz-adv-x="812" 
d="M254 117l172 529h324l-172 -529h-324zM137 2q2 0 6.5 -1t5.5 -1h458q13 0 30.5 7t33.5 17.5t28.5 23t15.5 23.5l202 620q4 12 -1.5 25t-16.5 23t-25.5 16.5t-29.5 6.5h-440q-17 0 -37 -7t-37.5 -18.5t-30.5 -25.5t-17 -29l-195 -600q-9 -26 5.5 -50t44.5 -30zM693 798h89
l-21 207h-117l-161 -207h90l100 122z" />
    <glyph glyph-name="FL00D5h" unicode="&#xd5;" horiz-adv-x="812" 
d="M137 2q-30 6 -44.5 30t-5.5 50l195 600q4 15 17 29t30.5 25.5t37.5 18.5t37 7h440q15 0 29.5 -6.5t25.5 -16.5t16.5 -23t1.5 -25l-202 -620q-3 -11 -15.5 -23.5t-28.5 -23t-33.5 -17.5t-30.5 -7h-458q-1 0 -5.5 1t-6.5 1zM254 117h324l172 529h-324zM648 796l-20 125
l-99 -122h-90l159 207h118l19 -125l100 122h90l-160 -207h-117z" />
    <glyph glyph-name="FL00D6h" unicode="&#xd6;" horiz-adv-x="812" 
d="M254 117l172 529h324l-172 -529h-324zM137 2q2 0 6.5 -1t5.5 -1h458q13 0 30.5 7t33.5 17.5t28.5 23t15.5 23.5l202 620q4 12 -1.5 25t-16.5 23t-25.5 16.5t-29.5 6.5h-440q-17 0 -37 -7t-37.5 -18.5t-30.5 -25.5t-17 -29l-195 -600q-9 -26 5.5 -50t44.5 -30zM518 815
q23 0 42.5 7t34.5 17.5t25.5 23t14.5 23.5q4 12 2 24.5t-9.5 23t-19.5 17.5t-28 7l-16 -1q-18 0 -35.5 -6.5t-32.5 -17t-26 -23t-15 -24.5t-3 -24.5t8 -23t19.5 -17t32.5 -6.5h6zM758 815q23 0 42.5 7t34.5 17.5t25.5 23t14.5 23.5q4 12 2 24.5t-9.5 23t-19.5 17.5t-28 7
l-16 -1q-18 0 -35.5 -6.5t-32.5 -17t-26 -23t-15 -24.5t-3 -24.5t8 -23t19.5 -17t32.5 -6.5h6z" />
    <glyph glyph-name="FL0302h" unicode="&#xd7;" horiz-adv-x="547" 
d="M125 199h96l130 131l45 -131h96l-72 200l1 3l167 178h-89l-101 -107l-35 107h-89l53 -178l-1 -3z" />
    <glyph glyph-name="FL00D8h" unicode="&#xd8;" horiz-adv-x="812" 
d="M137 2q-30 6 -44.5 30t-5.5 50l195 600q4 15 17 29t30.5 25.5t37.5 18.5t37 7h440q15 0 29.5 -6.5t25.5 -16.5t16.5 -23t1.5 -25l-202 -620q-3 -11 -15.5 -23.5t-28.5 -23t-33.5 -17.5t-30.5 -7h-458q-1 0 -5.5 1t-6.5 1zM719 550l-415 -433h274zM659 646h-233l-121 -371
z" />
    <glyph glyph-name="FL00D9h" unicode="&#xd9;" horiz-adv-x="810" 
d="M459 763h-151l-223 -686q-8 -25 7 -46t41 -29q3 0 7 -1t5 -1h460q13 0 30.5 7t33.5 17.5t28.5 23t15.5 23.5l225 692h-155l-210 -646h-324zM736 814q22 14 33.5 29.5t16.5 29.5q8 27 -5 40l-66 81q-7 8 -19 12t-27 4q-35 0 -63 -19l-13 -11q-32 -23 -41 -52
q-10 -27 4 -41l73 -75q10 -16 43 -16q14 0 28 2t31 13z" />
    <glyph glyph-name="FL00DAh" unicode="&#xda;" horiz-adv-x="810" 
d="M308 763h151l-210 -646h324l210 646h155l-225 -692q-3 -11 -15.5 -23.5t-28.5 -23t-33.5 -17.5t-30.5 -7h-460q-1 0 -5 1t-7 1q-26 8 -41 29t-7 46zM544 814q-12 14 -13.5 29.5t3.5 29.5q8 26 31 40l117 81q25 16 56 16q33 0 51 -19l5 -11q19 -19 10 -52q-10 -28 -32 -41
l-122 -75q-19 -16 -53 -16q-14 0 -26.5 2t-22.5 13z" />
    <glyph glyph-name="FL00DBh" unicode="&#xdb;" horiz-adv-x="810" 
d="M459 763h-151l-223 -686q-8 -25 7 -46t41 -29q3 0 7 -1t5 -1h460q13 0 30.5 7t33.5 17.5t28.5 23t15.5 23.5l225 692h-155l-210 -646h-324zM693 798h89l-21 207h-117l-161 -207h90l100 122z" />
    <glyph glyph-name="FL00DCh" unicode="&#xdc;" horiz-adv-x="810" 
d="M459 763h-151l-223 -686q-8 -25 7 -46t41 -29q3 0 7 -1t5 -1h460q13 0 30.5 7t33.5 17.5t28.5 23t15.5 23.5l225 692h-155l-210 -646h-324zM518 815q23 0 42.5 7t34.5 17.5t25.5 23t14.5 23.5q4 12 2 24.5t-9.5 23t-19.5 17.5t-28 7l-16 -1q-18 0 -35.5 -6.5t-32.5 -17
t-26 -23t-15 -24.5t-3 -24.5t8 -23t19.5 -17t32.5 -6.5h6zM758 815q23 0 42.5 7t34.5 17.5t25.5 23t14.5 23.5q4 12 2 24.5t-9.5 23t-19.5 17.5t-28 7l-16 -1q-18 0 -35.5 -6.5t-32.5 -17t-26 -23t-15 -24.5t-3 -24.5t8 -23t19.5 -17t32.5 -6.5h6z" />
    <glyph glyph-name="FL00DDh" unicode="&#xdd;" horiz-adv-x="776" 
d="M134 115h407l67 204h-344q-16 0 -31.5 6.5t-27 17t-17 23.5t-0.5 27l120 369h151l-106 -324h291l106 325h154l-224 -689q-4 -12 -16.5 -25t-28.5 -24t-33.5 -18t-30.5 -7h-474zM544 814q-12 14 -13.5 29.5t3.5 29.5q8 26 31 40l117 81q25 16 56 16q33 0 51 -19l5 -11
q19 -19 10 -52q-10 -28 -32 -41l-122 -75q-19 -16 -53 -16q-14 0 -26.5 2t-22.5 13z" />
    <glyph glyph-name="FL00DEh" unicode="&#xde;" horiz-adv-x="794" 
d="M60 0h155l57 174h374q13 0 30 7.5t33.5 18.5t29 24t16.5 24l92 285q4 12 -1.5 25t-16 23t-24.5 16.5t-27 6.5h-367l52 159h-155zM374 488h307l-66 -201h-307z" />
    <glyph glyph-name="FL00DFh" unicode="&#xdf;" horiz-adv-x="796" 
d="M14 -142h157l256 788h305l-66 -202h-234l-36 -111h236l-70 -217h-236l-38 -116h295q13 0 31 6.5t35.5 16.5t31.5 23t18 25l87 268q1 3 -1.5 10t-6 15t-7 14.5t-4.5 9.5q4 1 12 8t15.5 16t14 17.5t8.5 12.5l81 249q4 12 -1.5 25t-16 23t-24.5 16.5t-26 6.5h-522z" />
    <glyph glyph-name="FL00E0h" unicode="&#xe0;" horiz-adv-x="790" 
d="M624 328l-69 -211h-301l69 211h301zM294 445q-15 0 -33.5 -8t-35 -20t-29.5 -26t-17 -26l-93 -285q-4 -12 -0.5 -26t12 -26t21 -20t27.5 -8h524l224 689q4 13 -1 26.5t-16 23.5t-25.5 16.5t-29.5 6.5h-496l-38 -116h439l-65 -201h-368zM736 814q22 14 33.5 29.5
t16.5 29.5q8 27 -5 40l-66 81q-7 8 -19 12t-27 4q-35 0 -63 -19l-13 -11q-32 -23 -41 -52q-10 -27 4 -41l73 -75q10 -16 43 -16q14 0 28 2t31 13z" />
    <glyph glyph-name="FL00E1h" unicode="&#xe1;" horiz-adv-x="790" 
d="M662 445l65 201h-439l38 116h496q15 0 29.5 -6.5t25.5 -16.5t16 -23.5t1 -26.5l-224 -689h-524q-15 0 -27.5 8t-21 20t-12 26t0.5 26l93 285q4 12 17 26t29.5 26t35 20t33.5 8h368zM323 328l-69 -211h301l69 211h-301zM544 814q-12 14 -13.5 29.5t3.5 29.5q8 26 31 40
l117 81q25 16 56 16q33 0 51 -19l5 -11q19 -19 10 -52q-10 -28 -32 -41l-122 -75q-19 -16 -53 -16q-14 0 -26.5 2t-22.5 13z" />
    <glyph glyph-name="FL00E2h" unicode="&#xe2;" horiz-adv-x="790" 
d="M624 328l-69 -211h-301l69 211h301zM294 445q-15 0 -33.5 -8t-35 -20t-29.5 -26t-17 -26l-93 -285q-4 -12 -0.5 -26t12 -26t21 -20t27.5 -8h524l224 689q4 13 -1 26.5t-16 23.5t-25.5 16.5t-29.5 6.5h-496l-38 -116h439l-65 -201h-368zM688 800h89l-22 207h-117
l-160 -207h90l100 122z" />
    <glyph glyph-name="FL00E3h" unicode="&#xe3;" horiz-adv-x="790" 
d="M662 445l65 201h-439l38 116h496q15 0 29.5 -6.5t25.5 -16.5t16 -23.5t1 -26.5l-224 -689h-524q-15 0 -27.5 8t-21 20t-12 26t0.5 26l93 285q4 12 17 26t29.5 26t35 20t33.5 8h368zM323 328l-69 -211h301l69 211h-301zM638 795l-19 125l-100 -122h-90l161 207h117
l19 -125l100 122h90l-160 -207h-118z" />
    <glyph glyph-name="FL00E4h" unicode="&#xe4;" horiz-adv-x="790" 
d="M624 328l-69 -211h-301l69 211h301zM294 445q-15 0 -33.5 -8t-35 -20t-29.5 -26t-17 -26l-93 -285q-4 -12 -0.5 -26t12 -26t21 -20t27.5 -8h524l224 689q4 13 -1 26.5t-16 23.5t-25.5 16.5t-29.5 6.5h-496l-38 -116h439l-65 -201h-368zM509 814q23 0 42.5 7t34.5 17.5
t25.5 23t14.5 23.5q4 12 2 24.5t-9 23t-19.5 17.5t-28.5 7l-15 -1q-18 0 -36 -6.5t-33 -17t-26 -23t-15 -24.5t-3 -24.5t8 -23t19.5 -17t32.5 -6.5h6zM749 814q23 0 42.5 7t34.5 17.5t25.5 23t14.5 23.5q4 12 2 24.5t-9 23t-19.5 17.5t-28.5 7l-15 -1q-18 0 -36 -6.5
t-33 -17t-26 -23t-15 -24.5t-3 -24.5t8 -23t19.5 -17t32.5 -6.5h6z" />
    <glyph glyph-name="FL00E5h" unicode="&#xe5;" horiz-adv-x="790" 
d="M624 328l-69 -211h-301l69 211h301zM294 445q-15 0 -33.5 -8t-35 -20t-29.5 -26t-17 -26l-93 -285q-4 -12 -0.5 -26t12 -26t21 -20t27.5 -8h524l224 689q4 13 -1 26.5t-16 23.5t-25.5 16.5t-29.5 6.5h-496l-38 -116h439l-65 -201h-368zM631 812q23 0 42.5 7t34.5 17.5
t25.5 23t14.5 23.5q4 12 2 24.5t-9.5 23t-19.5 17.5t-28 7l-16 -1q-18 0 -35.5 -6.5t-32.5 -17t-26 -23t-15 -24.5t-3 -24.5t8 -23t20 -17t32 -6.5h6z" />
    <glyph glyph-name="FL00E6h" unicode="&#xe6;" horiz-adv-x="1184" 
d="M1312 762l-38 -116h-394l-65 -201h381l-38 -116h-381l-70 -214h394l-37 -115h-918q-15 0 -27.5 8t-21 20t-12 26t0.5 26l93 285q4 12 17 26t29.5 26t35 20t33.5 8h366l65 201h-437l38 116h986zM323 328l-69 -211h299l69 211h-299z" />
    <glyph glyph-name="FL00E7h" unicode="&#xe7;" 
d="M153 -151l3 -3q10 -11 22.5 -13t26.5 -2q34 0 53 16l236 153h113l37 115h-391l173 531h391l38 116h-451q-20 0 -40 -8t-37 -20.5t-30 -28.5t-18 -31l-190 -586q-10 -29 2 -50.5t40 -33.5q2 -2 7.5 -3t7.5 -1h102l-75 -52q-21 -13 -31 -40q-5 -14 -3.5 -29.5t14.5 -29.5z
" />
    <glyph glyph-name="FL00E8h" unicode="&#xe8;" horiz-adv-x="730" 
d="M404 762q-16 0 -35 -6.5t-36.5 -16.5t-31 -23.5t-17.5 -26.5l-201 -618q-3 -11 1.5 -23.5t14 -23t22 -17.5t25.5 -7h464l37 115h-396l70 214h382l38 116h-382l65 201h396l38 116h-454zM736 814q22 14 33.5 29.5t16.5 29.5q8 27 -5 40l-66 81q-7 8 -19 12t-27 4
q-35 0 -63 -19l-13 -11q-32 -23 -41 -52q-10 -27 4 -41l73 -75q10 -16 43 -16q14 0 28 2t31 13z" />
    <glyph glyph-name="FL00E9h" unicode="&#xe9;" horiz-adv-x="730" 
d="M424 646l-65 -201h382l-38 -116h-382l-70 -214h396l-37 -115h-464q-13 0 -25.5 7t-22 17.5t-14 23t-1.5 23.5l201 618q4 13 17.5 26.5t31 23.5t36.5 16.5t35 6.5h454l-38 -116h-396zM544 814q-12 14 -13.5 29.5t3.5 29.5q8 26 31 40l117 81q25 16 56 16q33 0 51 -19
l5 -11q19 -19 10 -52q-10 -28 -32 -41l-122 -75q-19 -16 -53 -16q-14 0 -26.5 2t-22.5 13z" />
    <glyph glyph-name="FL00EAh" unicode="&#xea;" horiz-adv-x="730" 
d="M404 762q-16 0 -35 -6.5t-36.5 -16.5t-31 -23.5t-17.5 -26.5l-201 -618q-3 -11 1.5 -23.5t14 -23t22 -17.5t25.5 -7h464l37 115h-396l70 214h382l38 116h-382l65 201h396l38 116h-454zM674 799h89l-22 207h-118l-159 -207h90l99 122z" />
    <glyph glyph-name="FL00EBh" unicode="&#xeb;" horiz-adv-x="730" 
d="M820 646l38 116h-454q-16 0 -35 -6.5t-36.5 -16.5t-31 -23.5t-17.5 -26.5l-201 -618q-3 -11 1.5 -23.5t14 -23t22 -17.5t25.5 -7h464l37 115h-396l70 214h382l38 116h-382l65 201h396zM506 813q23 0 43 7t35.5 17.5t25.5 23t13 23.5q4 12 2 24.5t-9 23t-19 17.5t-28 7
l-17 -1q-17 0 -35 -6.5t-33 -17t-26 -23t-15 -24.5t-3 -24.5t8 -23t20 -17t32 -6.5h6zM746 813q23 0 43 7t35.5 17.5t25.5 23t13 23.5q4 12 2 24.5t-9 23t-19 17.5t-28 7l-17 -1q-17 0 -35 -6.5t-33 -17t-26 -23t-15 -24.5t-3 -24.5t8 -23t20 -17t32 -6.5h6z" />
    <glyph glyph-name="FL00ECh" unicode="&#xec;" horiz-adv-x="335" 
d="M459 763h-155l-248 -763h155zM496 814q22 14 33.5 29.5t16.5 29.5q8 27 -5 40l-66 81q-7 8 -19 12t-27 4q-35 0 -63 -19l-13 -11q-32 -23 -41 -52q-10 -27 4 -41l73 -75q10 -16 43 -16q14 0 28 2t31 13z" />
    <glyph glyph-name="FL00EDh" unicode="&#xed;" horiz-adv-x="335" 
d="M308 763h155l-248 -763h-155zM304 814q-12 14 -13.5 29.5t3.5 29.5q8 26 31 40l117 81q25 16 56 16q33 0 51 -19l5 -11q19 -19 10 -52q-10 -28 -32 -41l-122 -75q-19 -16 -53 -16q-14 0 -26.5 2t-22.5 13z" />
    <glyph glyph-name="FL00EEh" unicode="&#xee;" horiz-adv-x="335" 
d="M60 0h155l248 763h-155zM456 801h88l-20 207h-118l-160 -207h90l100 122z" />
    <glyph glyph-name="FL00EFh" unicode="&#xef;" horiz-adv-x="335" 
d="M60 0h155l248 763h-155zM284 814q23 0 43 7t35 17.5t25.5 23t14.5 23.5q4 12 2 24.5t-9.5 23t-19.5 17.5t-28 7l-16 -1q-17 0 -35 -6.5t-33 -17t-26 -23t-15 -24.5t-3 -24.5t7.5 -23t19 -17t32.5 -6.5h6zM524 814q23 0 43 7t35 17.5t25.5 23t14.5 23.5q4 12 2 24.5
t-9.5 23t-19.5 17.5t-28 7l-16 -1q-17 0 -35 -6.5t-33 -17t-26 -23t-15 -24.5t-3 -24.5t7.5 -23t19 -17t32.5 -6.5h6z" />
    <glyph glyph-name="FL00F0h" unicode="&#xf0;" horiz-adv-x="840" 
d="M532 599l-38 -116h115l-13 -39h-304q-13 0 -30.5 -7.5t-34.5 -18.5t-30 -24t-16 -23l-98 -300q-4 -12 1.5 -25t16 -23t24.5 -16.5t27 -6.5h374q38 11 68.5 33t41.5 55l128 395h113l38 116h-112l23 73q5 15 2.5 31t-11.5 28.5t-24 20.5t-35 8h-451l-38 -116h391l-14 -45
h-114zM321 329h237l-69 -213h-237z" />
    <glyph glyph-name="FL00F1h" unicode="&#xf1;" horiz-adv-x="776" 
d="M308 763h155l123 -506l164 506h154l-248 -763h-154l-121 511l-166 -511h-155zM633 796l-20 125l-99 -122h-90l160 207h117l19 -125l100 122h90l-159 -207h-118z" />
    <glyph glyph-name="FL00F2h" unicode="&#xf2;" horiz-adv-x="812" 
d="M254 117l172 529h324l-172 -529h-324zM137 2q2 0 6.5 -1t5.5 -1h458q13 0 30.5 7t33.5 17.5t28.5 23t15.5 23.5l202 620q4 12 -1.5 25t-16.5 23t-25.5 16.5t-29.5 6.5h-440q-17 0 -37 -7t-37.5 -18.5t-30.5 -25.5t-17 -29l-195 -600q-9 -26 5.5 -50t44.5 -30zM736 814
q22 14 33.5 29.5t16.5 29.5q8 27 -5 40l-66 81q-7 8 -19 12t-27 4q-35 0 -63 -19l-13 -11q-32 -23 -41 -52q-10 -27 4 -41l73 -75q10 -16 43 -16q14 0 28 2t31 13z" />
    <glyph glyph-name="FL00F3h" unicode="&#xf3;" horiz-adv-x="812" 
d="M573 117l172 529h-324l-172 -529h324zM617 2q-3 0 -8 -1t-7 -1h-458q-13 0 -25.5 7t-21.5 17.5t-13.5 23t-1.5 23.5l202 620q4 12 17.5 25t31 23t36.5 16.5t34 6.5h440q18 0 32.5 -7t24 -18.5t13.5 -25.5t0 -29l-195 -600q-10 -26 -38.5 -50t-62.5 -30zM544 814
q-12 14 -13.5 29.5t3.5 29.5q8 26 31 40l117 81q25 16 56 16q33 0 51 -19l5 -11q19 -19 10 -52q-10 -28 -32 -41l-122 -75q-19 -16 -53 -16q-14 0 -26.5 2t-22.5 13z" />
    <glyph glyph-name="FL00F4h" unicode="&#xf4;" horiz-adv-x="812" 
d="M254 117l172 529h324l-172 -529h-324zM137 2q2 0 6.5 -1t5.5 -1h458q13 0 30.5 7t33.5 17.5t28.5 23t15.5 23.5l202 620q4 12 -1.5 25t-16.5 23t-25.5 16.5t-29.5 6.5h-440q-17 0 -37 -7t-37.5 -18.5t-30.5 -25.5t-17 -29l-195 -600q-9 -26 5.5 -50t44.5 -30zM693 798h89
l-21 207h-117l-161 -207h90l100 122z" />
    <glyph glyph-name="FL00F5h" unicode="&#xf5;" horiz-adv-x="812" 
d="M137 2q-30 6 -44.5 30t-5.5 50l195 600q4 15 17 29t30.5 25.5t37.5 18.5t37 7h440q15 0 29.5 -6.5t25.5 -16.5t16.5 -23t1.5 -25l-202 -620q-3 -11 -15.5 -23.5t-28.5 -23t-33.5 -17.5t-30.5 -7h-458q-1 0 -5.5 1t-6.5 1zM254 117h324l172 529h-324zM648 796l-20 125
l-99 -122h-90l159 207h118l19 -125l100 122h90l-160 -207h-117z" />
    <glyph glyph-name="FL00F6h" unicode="&#xf6;" horiz-adv-x="812" 
d="M254 117l172 529h324l-172 -529h-324zM137 2q2 0 6.5 -1t5.5 -1h458q13 0 30.5 7t33.5 17.5t28.5 23t15.5 23.5l202 620q4 12 -1.5 25t-16.5 23t-25.5 16.5t-29.5 6.5h-440q-17 0 -37 -7t-37.5 -18.5t-30.5 -25.5t-17 -29l-195 -600q-9 -26 5.5 -50t44.5 -30zM518 815
q23 0 42.5 7t34.5 17.5t25.5 23t14.5 23.5q4 12 2 24.5t-9.5 23t-19.5 17.5t-28 7l-16 -1q-18 0 -35.5 -6.5t-32.5 -17t-26 -23t-15 -24.5t-3 -24.5t8 -23t19.5 -17t32.5 -6.5h6zM758 815q23 0 42.5 7t34.5 17.5t25.5 23t14.5 23.5q4 12 2 24.5t-9.5 23t-19.5 17.5t-28 7
l-16 -1q-18 0 -35.5 -6.5t-32.5 -17t-26 -23t-15 -24.5t-3 -24.5t8 -23t19.5 -17t32.5 -6.5h6z" />
    <glyph glyph-name="FL00F7h" unicode="&#xf7;" horiz-adv-x="781" 
d="M167 329h601l38 117h-601zM419 162q23 0 42.5 7t34.5 17.5t25.5 23t14.5 23.5q4 12 2 24.5t-9.5 23t-19.5 17.5t-28 7l-16 -1q-18 0 -35.5 -6.5t-32.5 -17t-26 -23t-15 -24.5t-3 -24.5t8 -23t19.5 -17t32.5 -6.5h6zM518 464q23 0 42.5 7t34.5 17.5t25.5 23t14.5 23.5
q4 12 2 25t-9.5 23.5t-19.5 17t-28 6.5h-16q-18 0 -35.5 -6.5t-32.5 -17t-26 -23.5t-15 -25t-3 -24.5t8 -23t19.5 -17t32.5 -6.5h6z" />
    <glyph glyph-name="FL00F8h" unicode="&#xf8;" horiz-adv-x="812" 
d="M137 2q-30 6 -44.5 30t-5.5 50l195 600q4 15 17 29t30.5 25.5t37.5 18.5t37 7h440q15 0 29.5 -6.5t25.5 -16.5t16.5 -23t1.5 -25l-202 -620q-3 -11 -15.5 -23.5t-28.5 -23t-33.5 -17.5t-30.5 -7h-458q-1 0 -5.5 1t-6.5 1zM719 550l-415 -433h274zM659 646h-233l-121 -371
z" />
    <glyph glyph-name="FL00F9h" unicode="&#xf9;" horiz-adv-x="810" 
d="M459 763h-151l-223 -686q-8 -25 7 -46t41 -29q3 0 7 -1t5 -1h460q13 0 30.5 7t33.5 17.5t28.5 23t15.5 23.5l225 692h-155l-210 -646h-324zM736 814q22 14 33.5 29.5t16.5 29.5q8 27 -5 40l-66 81q-7 8 -19 12t-27 4q-35 0 -63 -19l-13 -11q-32 -23 -41 -52
q-10 -27 4 -41l73 -75q10 -16 43 -16q14 0 28 2t31 13z" />
    <glyph glyph-name="FL00FAh" unicode="&#xfa;" horiz-adv-x="810" 
d="M308 763h151l-210 -646h324l210 646h155l-225 -692q-3 -11 -15.5 -23.5t-28.5 -23t-33.5 -17.5t-30.5 -7h-460q-1 0 -5 1t-7 1q-26 8 -41 29t-7 46zM544 814q-12 14 -13.5 29.5t3.5 29.5q8 26 31 40l117 81q25 16 56 16q33 0 51 -19l5 -11q19 -19 10 -52q-10 -28 -32 -41
l-122 -75q-19 -16 -53 -16q-14 0 -26.5 2t-22.5 13z" />
    <glyph glyph-name="FL00FBh" unicode="&#xfb;" horiz-adv-x="810" 
d="M459 763h-151l-223 -686q-8 -25 7 -46t41 -29q3 0 7 -1t5 -1h460q13 0 30.5 7t33.5 17.5t28.5 23t15.5 23.5l225 692h-155l-210 -646h-324zM693 798h89l-21 207h-117l-161 -207h90l100 122z" />
    <glyph glyph-name="FL00FCh" unicode="&#xfc;" horiz-adv-x="810" 
d="M459 763h-151l-223 -686q-8 -25 7 -46t41 -29q3 0 7 -1t5 -1h460q13 0 30.5 7t33.5 17.5t28.5 23t15.5 23.5l225 692h-155l-210 -646h-324zM518 815q23 0 42.5 7t34.5 17.5t25.5 23t14.5 23.5q4 12 2 24.5t-9.5 23t-19.5 17.5t-28 7l-16 -1q-18 0 -35.5 -6.5t-32.5 -17
t-26 -23t-15 -24.5t-3 -24.5t8 -23t19.5 -17t32.5 -6.5h6zM758 815q23 0 42.5 7t34.5 17.5t25.5 23t14.5 23.5q4 12 2 24.5t-9.5 23t-19.5 17.5t-28 7l-16 -1q-18 0 -35.5 -6.5t-32.5 -17t-26 -23t-15 -24.5t-3 -24.5t8 -23t19.5 -17t32.5 -6.5h6z" />
    <glyph glyph-name="FL00FDh" unicode="&#xfd;" horiz-adv-x="776" 
d="M134 115h407l67 204h-344q-16 0 -31.5 6.5t-27 17t-17 23.5t-0.5 27l120 369h151l-106 -324h291l106 325h154l-224 -689q-4 -12 -16.5 -25t-28.5 -24t-33.5 -18t-30.5 -7h-474zM544 814q-12 14 -13.5 29.5t3.5 29.5q8 26 31 40l117 81q25 16 56 16q33 0 51 -19l5 -11
q19 -19 10 -52q-10 -28 -32 -41l-122 -75q-19 -16 -53 -16q-14 0 -26.5 2t-22.5 13z" />
    <glyph glyph-name="FL00FEh" unicode="&#xfe;" horiz-adv-x="794" 
d="M60 0h155l57 174h374q13 0 30 7.5t33.5 18.5t29 24t16.5 24l92 285q4 12 -1.5 25t-16 23t-24.5 16.5t-27 6.5h-367l52 159h-155zM374 488h307l-66 -201h-307z" />
    <glyph glyph-name="FL00FFh" unicode="&#xff;" horiz-adv-x="776" 
d="M541 115h-407l-37 -115h474q13 0 30.5 7t33.5 18t28.5 24t16.5 25l224 689h-154l-106 -325h-291l106 324h-151l-120 -369q-5 -14 0.5 -27t17 -23.5t27 -17t31.5 -6.5h344zM501 818q23 0 42.5 7t34.5 17.5t25.5 23t14.5 23.5q4 12 2 24.5t-9.5 23t-19.5 17.5t-28 7l-16 -1
q-18 0 -35.5 -6.5t-32.5 -17t-26 -23t-15 -24.5t-3 -24.5t8 -23t19.5 -17t32.5 -6.5h6zM741 818q23 0 42.5 7t34.5 17.5t25.5 23t14.5 23.5q4 12 2 24.5t-9.5 23t-19.5 17.5t-28 7l-16 -1q-18 0 -35.5 -6.5t-32.5 -17t-26 -23t-15 -24.5t-3 -24.5t8 -23t19.5 -17t32.5 -6.5
h6z" />
    <glyph glyph-name="FL0152h" unicode="&#x152;" horiz-adv-x="1126" 
d="M1254 762l-38 -116h-396l-65 -201h382l-38 -116h-382l-70 -214h396l-37 -115h-860q-2 0 -7.5 1t-7.5 3q-28 12 -40 33.5t-2 50.5l190 586q5 15 18 31t30 28.5t37 20.5t40 8h850zM426 646l-173 -531h240l173 531h-240z" />
    <glyph glyph-name="FL0153h" unicode="&#x153;" horiz-adv-x="1126" 
d="M1254 762l-38 -116h-396l-65 -201h382l-38 -116h-382l-70 -214h396l-37 -115h-860q-2 0 -7.5 1t-7.5 3q-28 12 -40 33.5t-2 50.5l190 586q5 15 18 31t30 28.5t37 20.5t40 8h850zM426 646l-173 -531h240l173 531h-240z" />
    <glyph glyph-name="FL0160h" unicode="&#x160;" horiz-adv-x="796" 
d="M98 116l-38 -116h522q13 0 31 6.5t35 16.5t31 23t18 25l98 302q4 11 -1 23.5t-14.5 23.5t-22.5 18t-25 7h-371l65 201h460l38 116h-522q-14 0 -32 -6.5t-35.5 -16.5t-31 -23t-17.5 -25l-93 -285q-4 -11 0.5 -24t14.5 -24t23 -18t26 -7h371l-70 -217h-460zM637 1004h-94
l29 -207h118l157 207h-90l-98 -122z" />
    <glyph glyph-name="FL0161h" unicode="&#x161;" horiz-adv-x="796" 
d="M98 116l-38 -116h522q13 0 31 6.5t35 16.5t31 23t18 25l98 302q4 11 -1 23.5t-14.5 23.5t-22.5 18t-25 7h-371l65 201h460l38 116h-522q-14 0 -32 -6.5t-35.5 -16.5t-31 -23t-17.5 -25l-93 -285q-4 -11 0.5 -24t14.5 -24t23 -18t26 -7h371l-70 -217h-460zM637 1004
l-97 -1l32 -206h118l157 207h-90l-98 -122z" />
    <glyph glyph-name="FL0178h" unicode="&#x178;" horiz-adv-x="776" 
d="M541 115h-407l-37 -115h474q13 0 30.5 7t33.5 18t28.5 24t16.5 25l224 689h-154l-106 -325h-291l106 324h-151l-120 -369q-5 -14 0.5 -27t17 -23.5t27 -17t31.5 -6.5h344zM501 818q23 0 42.5 7t34.5 17.5t25.5 23t14.5 23.5q4 12 2 24.5t-9.5 23t-19.5 17.5t-28 7l-16 -1
q-18 0 -35.5 -6.5t-32.5 -17t-26 -23t-15 -24.5t-3 -24.5t8 -23t19.5 -17t32.5 -6.5h6zM741 818q23 0 42.5 7t34.5 17.5t25.5 23t14.5 23.5q4 12 2 24.5t-9.5 23t-19.5 17.5t-28 7l-16 -1q-18 0 -35.5 -6.5t-32.5 -17t-26 -23t-15 -24.5t-3 -24.5t8 -23t19.5 -17t32.5 -6.5
h6z" />
    <glyph glyph-name="FL017Dh" unicode="&#x17d;" horiz-adv-x="728" 
d="M98 116l-38 -116h547l38 116h-389l562 530l38 116h-547l-38 -116h393zM619 1005h-100l34 -207h118l158 207h-90l-99 -122z" />
    <glyph glyph-name="FL017Eh" unicode="&#x17e;" horiz-adv-x="728" 
d="M98 116l-38 -116h547l38 116h-389l562 530l38 116h-547l-38 -116h393zM619 1005h-100l34 -207h118l158 207h-90l-99 -122z" />
    <glyph glyph-name="FL00A3h" unicode="&#x192;" horiz-adv-x="1787" 
d="M1773 326q7 24 -121 61q78 7 91 47l2 5l1 5l-200 42q45 6 59 47l-16 17h-254l25 49l-72 7l-223 -32l-7 8l17 24l-34 25l-216 -73l-80 48q-57 -17 -157 -96l-108 32h-6q-48 0 -85 -115l-123 9l-27 -49l44 -57l-121 -15l-2 -40l104 -42l-78 -41q-9 -32 22 -32l162 -23
l-41 -26l-10 -31l270 -17l-24 -40l29 -16l276 32l-16 -49l29 -8l228 81l50 -49l54 9l135 88q30 -16 53 -24.5t44 -8.5q30 0 48 18l42 96l100 -16q36 7 46 35l2 6q2 8 1 9l-44 64h96l31 33q4 1 4 3zM1735 315l-140 -9q64 -72 56 -98l-1.5 -2l-4.5 -6l-133 17l-47 -114
l-126 34l-138 -98l-82 48l-239 -80l22 32l-22 32l-278 -40l49 56l-295 9l102 47l-242 42l129 41l-156 72l139 8l-49 73v33l135 -8l58 113q56 -35 93 -35q18 0 26 4l146 96l70 -49l216 73l19 -7l-6 -49l287 32l-40 -57h287l-101 -48l232 -41l6 -16h-12l-114 -24l148 -66z
M1547 371l-44 9l-42 -110l28 -4zM1481 222l-26 9l-30 -15l18 -16zM1403 230l46 142l-30 8l-39 -100l-77 91l-43 -142l28 2l23 70q48 -71 92 -71zM1226 231l31 107q3 45 -34 45q-17 0 -26 -4q-92 -72 -123 -142h39q33 33 59 33q24 0 32 -33zM1099 380l-37 -6l-68 -145l50 10z
M959 225l46 141l-31 8l-38 -99l-79 91l-43 -144l29 4l23 69q46 -70 93 -70zM822 325q0 48 -61 48h-11q1 0 -1 -0.5t-9 -0.5q-82 -33 -112 -125q6 -24 57 -24q8 0 15.5 0.5t15.5 1.5q55 0 106 100zM657 377q-143 -17 -164 -83q-2 -5 -2.5 -8.5l-1.5 -10.5q-2 -63 53 -63
q6 0 16 2t24 4l6 25q-15 -4 -37 -4q-41 0 -32 28q10 31 48 58q35 20 56 20q7 0 10.5 -0.5t9.5 -2.5zM500 374l-37 -6l-66 -146l47 11zM1214 301h-61l53 48zM781 305q-8 -23 -31 -43q-35 -12 -53 -12q-32 0 -20 35q2 7 5 10q37 45 69 45q23 0 29 -19q4 -5 1 -16z" />
    <glyph glyph-name="FL02C6h" unicode="&#x2c6;" horiz-adv-x="479" 
d="M450 555h89l-21 207h-118l-160 -207h90l100 122z" />
    <glyph glyph-name="FL02DCh" unicode="&#x2dc;" horiz-adv-x="600" 
d="M450 555l-19 125l-100 -122h-90l160 207h118l19 -125l100 122h90l-160 -207h-118z" />
    <glyph glyph-name="FL2013h" unicode="&#x2013;" horiz-adv-x="563" 
d="M205 445h383l-38 -116h-383z" />
    <glyph glyph-name="FL2014h" unicode="&#x2014;" horiz-adv-x="781" 
d="M205 446h601l-38 -117h-601z" />
    <glyph glyph-name="FL2018h" unicode="&#x2018;" horiz-adv-x="359" 
d="M297 468q23 0 43 7t35.5 17.5t25.5 23t13 23.5l50 154q4 12 2 24.5t-9 22.5t-19 16.5t-28 6.5l-16 -1q-18 0 -35.5 -6.5t-32.5 -16.5t-26 -23t-15 -25l-51 -154q-4 -12 -2.5 -24t8.5 -22t20 -16.5t32 -6.5h5z" />
    <glyph glyph-name="FL2019h" unicode="&#x2019;" horiz-adv-x="359" 
d="M297 468q23 0 43 7t35.5 17.5t25.5 23t13 23.5l50 154q4 12 2 24.5t-9 22.5t-19 16.5t-28 6.5l-16 -1q-18 0 -35.5 -6.5t-32.5 -16.5t-26 -23t-15 -25l-51 -154q-4 -12 -2.5 -24t8.5 -22t20 -16.5t32 -6.5h5z" />
    <glyph glyph-name="FL201Ah" unicode="&#x201a;" horiz-adv-x="359" 
d="M96 -152q23 0 42.5 7t34.5 17.5t25.5 23t14.5 23.5l50 154q4 12 2 24.5t-9.5 22.5t-19.5 16.5t-28 6.5l-16 -1q-17 0 -35 -6.5t-33 -17t-26 -23t-15 -24.5l-50 -154q-4 -12 -2.5 -24t8.5 -22t20 -16.5t32 -6.5h5z" />
    <glyph glyph-name="FL201Ch" unicode="&#x201c;" horiz-adv-x="595" 
d="M532 468q24 0 44 7t35.5 17.5t25.5 23t13 23.5l50 154q4 12 2 24.5t-9 22.5t-19 16.5t-28 6.5l-16 -1q-18 0 -36 -6.5t-33 -16.5t-26 -23t-15 -25l-51 -154q-4 -12 -2.5 -24t8.5 -22t20 -16.5t33 -6.5h4zM297 469q23 0 43 7t35.5 17.5t25.5 23t13 23.5l50 154
q4 12 2 24.5t-9 22.5t-19 16.5t-28 6.5l-16 -1q-17 0 -35 -6.5t-33 -17t-26 -23t-15 -24.5l-50 -154q-4 -12 -2.5 -24t8 -22t19.5 -16.5t32 -6.5h5z" />
    <glyph glyph-name="FL201Dh" unicode="&#x201d;" horiz-adv-x="595" 
d="M532 468q24 0 44 7t35.5 17.5t25.5 23t13 23.5l50 154q4 12 2 24.5t-9 22.5t-19 16.5t-28 6.5l-16 -1q-18 0 -36 -6.5t-33 -16.5t-26 -23t-15 -25l-51 -154q-4 -12 -2.5 -24t8.5 -22t20 -16.5t33 -6.5h4zM297 469q23 0 43 7t35.5 17.5t25.5 23t13 23.5l50 154
q4 12 2 24.5t-9 22.5t-19 16.5t-28 6.5l-16 -1q-17 0 -35 -6.5t-33 -17t-26 -23t-15 -24.5l-50 -154q-4 -12 -2.5 -24t8 -22t19.5 -16.5t32 -6.5h5z" />
    <glyph glyph-name="FL201Eh" unicode="&#x201e;" horiz-adv-x="593" 
d="M329 -152q23 0 43 7t35 17.5t25.5 23t14.5 23.5l50 154q4 12 2 24.5t-9.5 22.5t-19.5 16.5t-28 6.5l-17 -1q-17 0 -34.5 -6.5t-32.5 -17t-26.5 -23t-15.5 -24.5l-50 -154q-4 -12 -2 -24t9.5 -22t20 -16.5t30.5 -6.5h5zM96 -152q23 0 42.5 7t34.5 17.5t25.5 23t14.5 23.5
l50 154q4 12 2 24.5t-9.5 22.5t-19.5 16.5t-28 6.5l-16 -1q-17 0 -35 -6.5t-33 -17t-26 -23t-15 -24.5l-50 -154q-4 -12 -2.5 -24t8.5 -22t20 -16.5t32 -6.5h5z" />
    <glyph glyph-name="FL2020h" unicode="&#x2020;" horiz-adv-x="563" 
d="M234 535h113l74 228h155l-74 -228h115l-38 -116h-115l-136 -419h-155l136 419h-113z" />
    <glyph glyph-name="FL2021h" unicode="&#x2021;" horiz-adv-x="563" 
d="M234 535h113l74 228h155l-74 -228h115l-38 -116h-115l-21 -64h115l-38 -117h-115l-77 -238h-155l77 238h-113l38 117h113l21 64h-113z" />
    <glyph glyph-name="FL2022h" unicode="&#x2022;" horiz-adv-x="504" 
d="M270 646l-172 -529h324l172 529h-324z" />
    <glyph glyph-name="FL2026h" unicode="&#x2026;" horiz-adv-x="840" 
d="M626 0q23 0 43 7t35.5 17.5t25.5 23t13 23.5q4 12 2 24.5t-9.5 23t-19.5 17.5t-28 7l-16 -1q-17 0 -35 -6.5t-33 -17t-26 -23t-15 -24.5t-3 -24.5t8 -23t20 -17t32 -6.5h6zM146 0q23 0 43 7t35.5 17.5t25.5 23t13 23.5q4 12 2 24.5t-9.5 23t-19.5 17.5t-28 7l-16 -1
q-17 0 -35 -6.5t-33 -17t-26 -23t-15 -24.5t-3 -24.5t8 -23t20 -17t32 -6.5h6zM386 0q23 0 43 7t35.5 17.5t25.5 23t13 23.5q4 12 2 24.5t-9.5 23t-19.5 17.5t-28 7l-16 -1q-17 0 -35 -6.5t-33 -17t-26 -23t-15 -24.5t-3 -24.5t8 -23t20 -17t32 -6.5h6z" />
    <glyph glyph-name="FL2030h" unicode="&#x2030;" horiz-adv-x="1322" 
d="M896 762h128l-750 -762h-131zM221 382q-14 3 -21.5 14.5t-2.5 25.5l98 300q3 7 9.5 14t15 13t18 9.5t18.5 3.5h220q14 0 27 -11.5t9 -24.5l-101 -310q-2 -6 -8 -12t-13.5 -11t-16 -8.5t-15.5 -3.5h-230q-1 0 -2.5 0.5t-4.5 0.5zM367 704l-86 -265h162l86 265h-162zM565 1
q-14 3 -21.5 14.5t-2.5 25.5l98 300q3 7 9.5 14t15 13t18 9.5t18.5 3.5h220q7 0 14.5 -3t13 -8.5t8 -12t0.5 -12.5l-101 -310q-2 -6 -8 -12t-13.5 -11t-16 -8.5t-15.5 -3.5h-230q-1 0 -2.5 0.5t-4.5 0.5zM711 323l-86 -265h162l86 265h-162zM924 1q-14 3 -21.5 14.5
t-2.5 25.5l98 300q3 7 9.5 14t15 13t18 9.5t18.5 3.5h219q15 0 28 -11.5t8 -24.5l-101 -310q-2 -6 -8 -12t-13.5 -11t-16 -8.5t-15.5 -3.5h-229q-1 0 -2.5 0.5t-4.5 0.5zM1070 323l-86 -265h162l86 265h-162z" />
    <glyph glyph-name="FL2039h" unicode="&#x2039;" horiz-adv-x="428" 
d="M416 336l-24 -74l-224 74l32 98l273 77l-24 -75l-163 -50z" />
    <glyph glyph-name="FL203Ah" unicode="&#x203a;" horiz-adv-x="428" 
d="M169 336l-24 -74l272 74l32 98l-223 77l-24 -75l129 -50z" />
    <glyph glyph-name="FL20ACh" unicode="&#x20ac;" horiz-adv-x="854" 
d="M231 527h126l48 147q5 15 18 31t30 28.5t37 20.5t40 8h452l-38 -116h-392l-39 -119h259l-37 -116h-259l-22 -65h259l-37 -116h-259l-38 -115h392l-37 -115h-462q-2 0 -7 1t-7 3q-28 12 -40.5 33.5t-2.5 50.5l46 142h-126l37 116h126l22 65h-126z" />
    <glyph glyph-name="FL04E5h" unicode="&#x2122;" horiz-adv-x="1418" 
d="M1410 345l-46 11l-55 -145l30 -4zM1327 148l-27 13l-36 -18l19 -23zM1241 159l60 186l-31 11l-50 -129l-84 118l-57 -188l33 4l30 92q46 -94 99 -94zM1040 161l43 141q7 60 -34 60q-16 0 -29 -7q-110 -92 -148 -186h43q40 42 67 42q26 0 37 -42zM908 356l-42 -6l-84 -193
l54 13zM741 153l60 186l-34 11l-49 -131l-85 119l-57 -190l36 5l30 92q44 -92 99 -92zM592 284q3 65 -66 65h-10q-5 0 -13 -4q-93 -42 -132 -162q1 -33 62 -33q8 0 16 1t20 2q61 0 123 131zM411 353q-162 -21 -190 -109q-2 -7 -3 -11.5l-3 -13.5q-9 -83 55 -83q11 0 21 1
t24 7l8 32q-8 -4 -41 -4q-46 0 -34 37q14 42 56 75q34 27 65 27q14 0 21 -4zM233 350l-42 -8l-83 -194l54 16zM1032 253h-68l62 62zM546 257q-5 -13 -13 -26.5t-23 -26.5q-41 -19 -64 -19q-33 0 -18 47l5 13q45 59 82 59q23 0 32 -24q3 -8 -1 -23z" />
  </font>
</defs>
</svg>
