<?xml version="1.0" standalone="no"?>
<!DOCTYPE svg PUBLIC "-//W3C//DTD SVG 1.1//EN" "http://www.w3.org/Graphics/SVG/1.1/DTD/svg11.dtd" >
<svg xmlns="http://www.w3.org/2000/svg" xmlns:xlink="http://www.w3.org/1999/xlink" version="1.1">
<metadata></metadata>
<defs>
<font id="celticplain" horiz-adv-x="807" >
<font-face units-per-em="2048" ascent="1638" descent="-410" />
<missing-glyph horiz-adv-x="477" />
<glyph horiz-adv-x="0" />
<glyph horiz-adv-x="682" />
<glyph unicode=" "  horiz-adv-x="477" />
<glyph unicode="&#x09;" horiz-adv-x="477" />
<glyph unicode="&#xa0;" horiz-adv-x="477" />
<glyph unicode="0" horiz-adv-x="1024" />
<glyph unicode="A" horiz-adv-x="1095" d="M26 184q3 116 19.5 187t59.5 139.5t131 167.5q38 42 74 67t85 53t65 42q17 12 17 30q0 64 -75 126q-74 64 -124 92h248q24 -16 78 -152.5t119 -303t147 -329.5t182 -291q-53 -8 -104 -8h-62l-300 639h-12l-519 -645q-29 110 -29 186zM158 320q0 -36 2 -67t4 -44h12 l385 481q-13 18 -23 40t-20 45t-22 53q-150 -60 -228 -163t-104 -263q-6 -36 -6 -82z" />
<glyph unicode="B" horiz-adv-x="899" d="M-20 1118q105 0 140.5 -11t77.5 -63q63 42 114.5 61t137.5 19q92 -10 135.5 -37t43.5 -91q0 -60 -32 -99.5t-96.5 -79t-68.5 -41.5q156 -24 281 -102t125 -266q0 -130 -67 -212t-164 -124t-184 -55t-151 -13h-170v966q0 41 -16.5 63.5t-52.5 44.5q-35 22 -53 40zM232 870 q0 -44 4 -88q120 18 195 55t75 121q0 51 -34.5 90.5t-82.5 39.5q-60 0 -106.5 -32t-46.5 -42q0 4 -2 -49t-2 -95zM234 641q0 -14 1 -47.5t1 -51.5v-489q92 1 122 7q104 20 175 53.5t114 101t43 180.5q0 66 -31 131.5t-84 119t-122 85t-144 31.5q-44 0 -59.5 -31t-15.5 -90z " />
<glyph unicode="C" horiz-adv-x="1032" d="M16 528q0 149 52 255.5t142.5 171.5t207.5 95q118 29 254 29q46 0 68 -2h120h52v-159q-7 3 -72 38.5t-125.5 55.5t-136.5 20q-78 0 -182 -64t-178 -186t-74 -288q0 -57 38.5 -160.5t138.5 -189.5t269 -86q82 0 160 24t149 112q22 -12 31 -15t16.5 -5t9.5 -2 q-4 -14 -45 -52t-138 -73t-253 -35q-123 0 -239.5 61.5t-190.5 179.5q-74 117 -74 275z" />
<glyph unicode="D" horiz-adv-x="1222" d="M12 524q0 152 60.5 255t143 159.5t154.5 81t91 30.5h115q-36 -14 -148 -61t-202 -155q-89 -108 -89 -290q0 -148 58 -259t163 -170t242 -59q104 0 186 49t134 120t79 145t27 120v102q0 164 -85 279t-226 174t-311 63h-357q44 22 63.5 32t41 41t57.5 75q71 -80 225 -113 t334 -74t281.5 -152t101.5 -349q0 -153 -80 -279.5t-218 -198.5t-300 -72q-140 0 -265 67t-200 183q-76 116 -76 256z" />
<glyph unicode="E" horiz-adv-x="1101" d="M22 547q0 206 95 328.5t244 171.5t323 49q84 0 139 -5t96 -11.5t53 -6.5q25 1 56 23v-402q1 0 -37.5 19t-84.5 35t-85 16h-621q-50 -72 -50 -228q0 -106 56.5 -215t168 -181t264.5 -72q143 0 246 71t143 145q28 -24 28 -34q0 -4 -3 -11t-3 -11q0 -36 -61 -88t-164 -90 t-221 -38q-114 0 -219.5 39.5t-187.5 112t-128.5 170.5t-46.5 213zM211 792q2 0 202 -2q199 -2 215 -2q103 0 167.5 8t106.5 25t104 51q-60 95 -153 132q-93 36 -214 46q-320 0 -428 -258z" />
<glyph unicode="F" horiz-adv-x="757" d="M18 1075h668q-6 -39 -15 -75t-13 -60q-104 104 -318 104q-12 0 -32 2t-26 2q-30 0 -41 -27t-11 -114v-735h378q16 0 41 -6t41 -6q-10 -28 -19.5 -42t-36.5 -46q-28 -34 -42 -58q-94 64 -155 88.5t-151 24.5q-30 0 -69 -33v-278q0 -56 -29.5 -78t-91.5 -45v67v924v56v268 q-2 2 -36 31t-42 36z" />
<glyph unicode="G" horiz-adv-x="1032" d="M22 590q0 110 49.5 203t129 158t172 102t178.5 43q16 2 55 2q40 0 134 -4q92 -4 132 -4q57 0 88 6v-189q-50 66 -103 99.5t-112 43.5t-137 10q-161 0 -261 -73t-142.5 -192t-42.5 -263q0 -80 25 -165t78 -158t136 -117.5t193 -44.5q74 0 157 30.5t217 137.5q8 -59 8 -113 q0 -24 -2 -60t-2 -50q0 -154 -49 -242t-179 -122q14 8 50 50t86 138v260q-32 -4 -89 -29t-108 -40t-132 -15q-64 0 -185.5 40.5t-232.5 174t-111 383.5z" />
<glyph unicode="H" horiz-adv-x="1095" d="M-86 1430q30 18 108 18q62 0 137 -9q65 -8 65 -9h-1q-6 -10 -14 -76t-8 -234q0 -96 2 -156q60 50 163.5 92t198.5 42q154 0 256.5 -74t150.5 -195.5t48 -269.5q0 -100 -36 -240.5t-115 -257.5t-203 -149q64 58 114 129t87.5 201t37.5 317q0 242 -102.5 359.5 t-284.5 117.5q-122 0 -190 -39t-93.5 -111t-25.5 -182v-468q0 -16 7.5 -113t15.5 -127h-156q18 52 18 330q0 70 -1 154t-1 81v121v442q0 127 -27.5 193.5t-64.5 86.5q-36 20 -86 26z" />
<glyph unicode="I" horiz-adv-x="356" d="M12 1075h252v-1045h-127v873q0 52 -6.5 75t-31.5 43.5t-87 53.5z" />
<glyph unicode="J" horiz-adv-x="358" d="M-12 1067h276v-821q0 -38 -23 -160t-78 -239.5t-145 -147.5q68 86 95.5 229t27.5 416v578q-7 31 -41 81t-112 64z" />
<glyph unicode="K" horiz-adv-x="1077" d="M-92 1472l297 -4v-110q0 -118 -2 -256t-2 -164q0 -74 8 -98q9 -25 33 -25q140 0 212.5 40.5t98 93.5t55.5 161q72 -12 144 -12q-42 -93 -86 -145.5t-118 -90.5t-204 -80q99 -24 178.5 -114t182 -249.5t167 -233t140.5 -73.5q8 0 22 4q14 3 24 3q-26 -7 -48 -25t-51.5 -49 t-47 -45t-33.5 -14q-6 0 -16 6q-110 75 -169 173.5t-129 260t-133 242t-173 102.5h-53q-2 -120 -2 -488q0 -232 2 -280h-141v1317q0 139 -156 153z" />
<glyph unicode="L" horiz-adv-x="751" d="M-43 1458q18 0 52.5 -1t52.5 -1q88 0 149 12l-2 -1429q12 0 40 -1t60 -1q50 0 70 2q83 9 181 51t148 68q-14 -24 -23 -52t-21 -73.5t-21 -71.5q-24 4 -61.5 14.5t-71.5 16.5t-96 6h-338q2 34 2 270q0 123 -1 334.5t-2 365.5t-1 216q0 22 1 51t1 49q0 52 -23 88t-96 86z " />
<glyph unicode="M" horiz-adv-x="1966" d="M-6 555q0 125 47.5 227t128.5 173t185.5 108t216.5 37q88 0 150 -14.5t103.5 -38t80.5 -60.5t71 -67q27 23 58 48.5t76.5 53.5t105.5 47q61 19 131 19q96 0 217 -48t213 -164t92 -308q0 -154 -72.5 -285t-198 -208t-276.5 -77q-104 0 -153 26q-48 24 -80 88 q74 -57 122.5 -73.5t108.5 -16.5q128 0 220.5 79t140.5 207t48 270q0 100 -33 187.5t-89 152t-128 100.5t-147 36q-80 0 -156.5 -38t-123.5 -94.5t-47 -106.5q-2 -143 -2 -373v-156.5t0.5 -100.5t1 -88.5t0.5 -86.5h-150q6 28 20.5 198t14.5 244v273q0 74 -30.5 153.5 t-99.5 134t-175 54.5q-129 0 -231.5 -60.5t-160.5 -172.5t-58 -256q0 -155 55 -276.5t159.5 -189t245.5 -67.5q68 0 114 17q44 16 78 73q-35 -82 -125.5 -109.5t-168.5 -27.5q-42 0 -122 25.5t-168 87.5t-149 173t-61 271z" />
<glyph unicode="N" horiz-adv-x="1116" d="M-35 1116h254l723 -893v641q0 85 -35 145.5t-92 116.5h195l-21 -108v-881l21 -102h-38l-792 937v-671q0 -66 7 -109.5t18 -72.5t25 -52t34 -57h-176q30 90 30 148v856q0 20 -18 31t-65.5 33.5t-69.5 37.5z" />
<glyph unicode="O" horiz-adv-x="1243" d="M6 568q0 65 30 154t98.5 176t188 144.5t287.5 57.5q116 0 218 -44t177 -120.5t117 -178.5q42 -103 42 -215q0 -46 -23 -132t-85 -181t-182 -162q-118 -67 -298 -67q-105 0 -236.5 50t-232.5 178t-101 340zM137 542q0 -121 43 -216.5t112.5 -160t145.5 -96.5t138 -32 q144 0 250 76t161 194t55 240q0 147 -49 249t-121.5 160t-143 82.5t-118.5 24.5q-98 0 -185 -42.5t-151.5 -116t-100.5 -168t-36 -194.5z" />
<glyph unicode="P" horiz-adv-x="1136" d="M-76 1034q54 24 82 24q15 0 21.5 -5t8.5 -12t3 -7q3 0 14 12t25 12q44 0 133 -116q1 0 69.5 42.5t150 68.5t193.5 26q96 0 204 -53.5t183 -164.5t75 -275q0 -162 -85 -300t-217.5 -219t-261.5 -81q-36 0 -78 11t-99 32t-99 37q-10 -46 -11 -138t-6 -140.5t-38 -98.5 t-107 -80q16 51 26.5 126t15.5 143t5 98v620q0 110 -15.5 197t-61 152t-130.5 89zM236 389q0 -103 6 -162t31.5 -100t81.5 -62.5t155 -21.5q122 0 223 69.5t158 184.5t57 241q0 161 -69 267.5t-160 156.5t-151 50q-100 0 -178 -22.5t-154 -82.5v-518z" />
<glyph unicode="Q" horiz-adv-x="1124" d="M12 568q0 98 37 188.5t108 163t172.5 115t223.5 42.5q60 0 106.5 -11.5t74.5 -25t61 -35t53 -30.5q56 68 63 75.5t32 8.5t75 18h78q-62 -49 -88 -82t-36 -81t-10 -142v-1030q-6 -26 -36 -57.5t-56 -65.5q-20 45 -20 227v52q0 134 -12 190q-38 -17 -97.5 -45.5t-77 -33.5 t-47.5 -5h-74q-145 0 -266.5 72.5t-192.5 202t-71 289.5zM148 512q0 -135 60 -241.5t154 -164t191 -57.5q150 0 211.5 63t73.5 105v680q-72 72 -119 97.5t-141 25.5q-129 0 -227.5 -71t-150.5 -188t-52 -249z" />
<glyph unicode="R" horiz-adv-x="1003" d="M0 1065q44 -4 100 -4.5t78 -12.5q24 -12 54 -55q156 103 278 103q61 0 117 -24t91.5 -70t35.5 -105q0 -92 -53 -163t-122 -114.5t-145 -74.5l-76 -31q86 -42 139 -93.5t135 -146.5t156 -155.5t187 -108.5q-51 -6 -147 -6h-74l-426 452l-78 40v-498l-110 6v696 q0 146 -15.5 216.5t-41 95t-83.5 53.5zM244 530q183 63 282.5 136.5t99.5 183.5q0 70 -47 123t-116 53q-55 0 -95 -14t-79 -40t-45 -28v-414z" />
<glyph unicode="S" horiz-adv-x="833" d="M6 784q0 162 130 235q128 73 320 73q59 0 160 -27t158 -59q-22 -44 -36 -90q-16 -46 -34 -74q-49 92 -120 146t-199 54q-86 0 -154 -22t-107 -68q-40 -44 -40 -110q0 -107 80 -147.5t251 -78.5t259 -97t88 -197q0 -95 -59 -168t-153 -111.5t-194 -38.5q-44 0 -134 18 q-90 20 -148 50q8 22 24.5 67t30.5 99q44 -86 117.5 -132t159.5 -51q66 0 130.5 28.5t105 79.5t40.5 113q0 105 -80 144.5t-250.5 76t-257.5 94.5q-88 57 -88 193z" />
<glyph unicode="T" horiz-adv-x="1165" d="M22 1088h1096q-24 -35 -56 -78.5t-56 -85.5q-82 66 -104.5 80t-55.5 20t-70 18h-129v-1036h-119v1010q1 1 2.5 3.5t1.5 4.5q0 18 -96 18q-84 0 -143 -25t-145 -93q-18 25 -58 74.5t-68 89.5z" />
<glyph unicode="U" horiz-adv-x="1075" d="M12 484q0 92 26 176.5t60 144t68 107.5t34 52q0 13 -28 51.5t-54 55.5h234q-48 -84 -90 -170t-75 -197.5t-33 -219.5q0 -77 29 -180.5t111 -185t224 -81.5q176 10 258 94.5t82 210.5v152v282q0 136 -24 203t-107 109q39 6 113 6h147v-1080h-141q0 52 3 85t3 38 q-96 -77 -185.5 -112t-195.5 -35q-86 0 -137 16q-36 12 -107.5 58t-143 152t-71.5 268z" />
<glyph unicode="V" horiz-adv-x="1038" d="M0 1088q36 4 102 4q30 0 182 -4q-2 -5 -23 -35.5t-21 -54.5q36 -87 120.5 -268t139 -295.5t84.5 -174.5q12 10 81 151.5t125 292.5t56 234q0 38 -10 64.5t-25 49t-37 54.5h203v-12l-418 -1094q-38 69 -125.5 265.5t-130.5 289.5t-125 245t-178 288z" />
<glyph unicode="W" horiz-adv-x="1620" d="M12 465q0 82 22 168t51 159t55 127.5t26 55.5q0 19 -70 107h236q-65 -92 -110.5 -199.5t-69 -198t-23.5 -123.5q0 -210 92 -348t336 -162q65 0 134 37q69 38 69 70q-30 26 -74.5 122t-44.5 281q0 86 41 244.5t41 169.5q0 13 -20.5 51.5t-61.5 79.5h248 q-4 -16 -42.5 -105.5t-61.5 -189.5q-23 -99 -23 -239q0 -125 35 -242t117 -192.5t212 -75.5q106 12 161.5 55t72.5 103q16 60 16 148q0 18 -1 54.5t-1 54.5q0 44 1 143.5t1 141.5q0 76 -2 94q-3 59 -21 102.5t-43 73.5q-26 32 -65 68q43 8 161 8q56 0 72 -2 q-12 -266 -12 -510q0 -122 4 -225t10 -182t13 -163h-129v84q-38 -10 -91.5 -42.5t-97 -48t-121.5 -15.5q-141 0 -247 106q-72 -72 -160 -95q-87 -23 -149 -23q-149 0 -259 60.5t-168.5 169t-58.5 243.5z" />
<glyph unicode="X" horiz-adv-x="1208" d="M34 989q36 46 69 58t95 12q55 0 99 -23.5t70.5 -51.5t69.5 -79t65 -69q12 12 85.5 100t135 129t149.5 41q26 0 46 -6t37.5 -15t27.5 -14q-36 -55 -48.5 -76t-19.5 -41.5t-21 -46.5q-30 42 -52 62t-52 20q-27 0 -77 -28.5t-99.5 -76.5t-77.5 -106l590 -762l14 -4h-176 l-452 674q-34 -20 -106 -150t-128.5 -284t-56.5 -252q-20 0 -46.5 -1t-35.5 -1q-48 0 -92 24l417 724q-29 30 -87.5 96t-97.5 102t-85 59t-102 23q-11 -7 -28.5 -18t-29.5 -19z" />
<glyph unicode="Y" horiz-adv-x="1077" d="M-10 1073q34 6 116 6h136v-57q-30 -82 -67.5 -260t-37.5 -266q0 -51 15.5 -125.5t54.5 -148.5t110 -124.5t177 -50.5q94 0 144 44t67.5 118.5t17.5 181.5q0 44 -3 137.5t-3 139.5q0 184 49.5 295t195.5 139h58q-44 -150 -88 -150q-4 0 -11 1t-9 1q-36 0 -64 -137 q-14 -66 -18 -192t-6 -237.5t-12 -223.5t-32 -203q-92 -348 -448 -348q-18 0 -64 12.5t-68 22.5q46 -10 88 -10q107 0 202.5 54t152.5 145t57 191q0 30 -2 44q-83 -47 -112.5 -58.5t-65.5 -11.5h-49q-154 0 -255.5 75t-147.5 193t-46 248q0 62 26 212q26 148 44 234 q0 30 -37 59.5t-65 49.5z" />
<glyph unicode="Z" horiz-adv-x="1321" d="M-43 -110l807 1070q-152 38 -308 38q-74 0 -219 -12t-243 -14q20 24 58.5 46.5t71 44.5t104.5 88q66 -80 146 -107.5t189 -27.5q28 0 88.5 2t92.5 2q112 0 186 -22l-633 -800q143 32 200 42t165 10q74 0 120.5 -11.5t166 -44t163.5 -32.5q32 0 89 20t89 26 q-74 -68 -136 -129t-76 -72t-32 -11q-39 0 -129.5 56.5t-169.5 90t-203 33.5q-128 0 -194 -20t-88 -50t-34 -82.5t-21 -70.5q-38 0 -65 -6.5t-94.5 -28.5t-90.5 -28z" />
<glyph unicode="a" horiz-adv-x="913" d="M29 465q0 89 34.5 167.5t98.5 125.5t145 47h119h227v-459v-47q-1 -215 139 -215q12 0 29 10t34 21t34 19t43 10q-50 -58 -93.5 -87t-105.5 -29q-40 0 -78.5 18t-66 40t-25.5 22q-52 -50 -94.5 -65t-93.5 -15q-100 0 -167.5 26t-106.5 79t-55.5 134.5t-16.5 197.5z M166 436q0 -204 78.5 -275t130.5 -77q41 2 92 25t51 59q0 10 -1 28t-1 27q0 66 9 209q9 144 9 224q0 64 -29 88t-99 24q-72 0 -127 -50t-84 -127t-29 -155z" />
<glyph unicode="b" horiz-adv-x="864" d="M14 442q0 116 48 191.5t147 153t131.5 109.5t32.5 93q0 77 -45.5 123t-118.5 56q102 12 153 40q50 26 118 90q22 -66 26 -87t4 -81q0 -101 -42 -165.5t-133 -157.5t-137 -176t-46 -211q0 -142 64 -249t196 -107q70 0 128 41t92 122t34 193q0 94 -37 178t-108 136t-167 52 q82 54 156 54q78 0 138 -53t91 -138t31 -174q0 -90 -29 -175.5t-81.5 -153t-124 -107t-152.5 -39.5q-79 0 -147 40.5t-118 108t-77 145.5t-27 148z" />
<glyph unicode="c" d="M30 434q0 90 45.5 186.5t137 161t221.5 64.5q156 0 252 -136q-40 -32 -152 -69q0 94 -44 119.5t-107 25.5q-70 0 -120.5 -40t-75.5 -105t-25 -137q0 -103 45.5 -195.5t117 -147.5t144.5 -55q91 0 155 47t82 89q-28 -98 -108 -150q-78 -51 -184 -51q-101 0 -189.5 54 t-141.5 145t-53 194z" />
<glyph unicode="d" d="M22 450q0 120 47.5 205.5t128.5 128.5t181 43q44 0 89.5 -13t82 -29.5t45.5 -20.5q0 104 -26 202.5t-105 143.5q15 9 48.5 23t78 44.5t122.5 98.5q-8 -332 -11 -663.5t-5 -485.5q4 -22 10 -60.5t8 -52.5h-128l-18 39q-70 -51 -191 -51q-72 0 -155.5 50.5t-142.5 152 t-59 245.5zM156 461q2 -128 42.5 -218t97.5 -133q58 -44 104 -44q70 0 132 56t62 130v481q-24 -10 -41 -21t-33 -23.5t-26 -18.5q-6 16 -13 33.5t-19 33t-37 27.5t-63 12q-54 0 -102 -43.5t-76 -116.5t-28 -155z" />
<glyph unicode="e" d="M51 438q0 49 16.5 114.5t54.5 129.5t106.5 108t166.5 44q110 0 198.5 -52t116.5 -182h-536v-131q17 -69 46 -142t103.5 -144t194.5 -71q60 0 88 12t62 42t63 49q-54 -94 -124.5 -139.5t-180.5 -45.5q-105 0 -191.5 59t-135 153t-48.5 196zM176 635l364 2q-4 38 -35 94.5 t-118 58.5q-84 0 -141.5 -49t-69.5 -106z" />
<glyph unicode="f" horiz-adv-x="792" d="M8 798q8 0 22 -1t21 -1q88 0 139 17t103.5 49t88.5 47t99 15q54 0 90.5 -13.5t85.5 -45t70 -42.5q-29 -16 -72 -30t-73 -31.5t-76 -65.5q10 44 10 72q0 100 -90 100q-32 0 -74 -31t-74 -94t-34 -149q-2 -72 -2 -180q0 -47 1 -150.5t1 -179.5q44 6 104 31t76 27 q34 0 93 -22t99 -33t107 -11q-22 -27 -75.5 -41.5t-103.5 -14.5q-24 0 -105 21t-109 21q-14 0 -24 -4t-18 -4q-13 0 -40 8v-340q0 -20 -29 -44t-90 -65l-2 883q0 73 -9 120.5t-23.5 73.5t-50 67t-36.5 41z" />
<glyph unicode="g" horiz-adv-x="870" d="M37 780q76 46 93 57t37.5 31t74.5 64q50 -73 116.5 -98t155.5 -25q26 0 72 2t65 2q78 -1 113 -23q-30 -18 -133 -49.5t-179.5 -73t-129.5 -125.5q-54 -84 -54 -226q0 -124 72 -194t211 -132t199 -102q61 -42 61 -122q-8 -48 -70.5 -121t-234.5 -73q-232 0 -328 188 q58 34 97 73t65 64t70 41l-39 -39t-28 -44t-11 -78q0 -80 63.5 -127.5t118.5 -47.5q60 0 112 50t52 133q0 86 -58 119t-205.5 86.5t-221.5 126t-74 219.5q0 111 57 186.5t130.5 117.5t175.5 82t124 58h-569z" />
<glyph unicode="h" horiz-adv-x="884" d="M-14 1098q82 17 129 34.5t77.5 35.5t36.5 18q5 0 13 -8v-453q12 6 58.5 31.5t82.5 38t82 14.5q164 0 242.5 -108t78.5 -269q0 -120 -16 -251t-61 -153h-59v412q0 124 -37 194.5t-86 96t-95 25.5q-81 0 -136 -56q-54 -56 -56 -120v-552q-18 -10 -48 -10q-10 0 -40 2t-50 2 q16 72 31 222q8 92 8 254q0 126 -5 243t-11 158q-8 58 -36.5 99.5t-60.5 66.5t-42 33z" />
<glyph unicode="i" horiz-adv-x="372" d="M-18 858q60 4 156 10q96 4 126 16q-5 -35 -14.5 -99.5t-16 -149.5t-6.5 -195v-42l9 -392q-66 10 -96 12t-36 4l2 457q-6 132 -14 198.5t-20 94.5t-36 46t-54 40z" />
<glyph unicode="j" horiz-adv-x="379" d="M-28 840q104 34 208 34q26 0 42 -1t22 -3v-336t1 -188t1 -194t-2 -90q-6 -95 -12 -177t-18 -143.5t-40 -104.5t-78 -55q8 25 18 173.5t15 242.5v555q0 74 -30 143q-29 68 -127 144z" />
<glyph unicode="k" horiz-adv-x="815" d="M-22 1184q90 9 296 106v-96l-46 -508v-76h56q218 0 218 184q0 12 -1 31t-1 23q28 -10 116 -10t134 -4q-36 -62 -84 -108.5t-96 -76t-89 -47.5t-65 -28q104 -26 160 -121t74 -202t18 -198q0 -18 -1 -30.5t-1 -16.5h-162q12 50 12 127q0 74 -13 149.5t-43 142.5t-78.5 108 t-115.5 41q-28 0 -44 -4l8 -564h-138q11 60 17.5 192t9 283t2.5 303q0 90 -0.5 156t-1.5 92q0 22 -20.5 45t-60.5 55t-60 52z" />
<glyph unicode="l" horiz-adv-x="673" d="M14 463q0 91 34.5 176t89 164.5t91.5 133t37 81.5q0 20 -26 53t-62.5 70t-40.5 43q66 0 182 33q117 33 183 81q-11 -103 -52 -173.5t-127.5 -187t-127.5 -210t-41 -223.5q0 -84 42 -187t123 -175t189 -72q44 8 72 8.5t69 7.5q-48 -38 -94.5 -56t-122.5 -18 q-114 0 -210 59t-152 163t-56 229z" />
<glyph unicode="m" horiz-adv-x="1460" d="M45 827q21 3 69 3h78q80 0 134 10q0 -18 -3 -42.5t-3 -35.5q0 -18 6 -39q60 59 80.5 76.5t55 29t97.5 11.5q54 0 90.5 -15t60 -37.5t44 -52t46.5 -67.5q44 74 77 106t74 42.5t120 10.5h2q258 0 259 -329v-356v-136l-140 6q1 88 5.5 218t4.5 176q0 121 -16 191.5 t-60 106.5t-124 40q-84 0 -128.5 -48.5t-60 -134t-15.5 -221.5q0 -64 3 -161t4 -161q-5 0 -21 1t-40 1q-44 0 -76 -2q2 34 5 100t6 126t3 116q0 115 -16 199t-57 134.5t-115 50.5q-82 -2 -122 -51t-52 -144t-12 -267q0 -62 0.5 -137t0.5 -127l-131 -12q10 152 10 318 q0 52 -1 102.5t-1 46.5q0 108 -17 170.5t-39.5 91t-84.5 92.5z" />
<glyph unicode="n" horiz-adv-x="948" d="M0 774q62 4 177 11t120 7q4 -2 4 -12q0 -14 -11.5 -60t-11.5 -73q132 151 262 151q300 0 300 -370l-29 -418h-117q12 190 12 388v71q0 156 -67 208t-137 52q-100 0 -152 -70.5t-66 -172.5t-14 -236v-232h-118v533q0 142 -152 223z" />
<glyph unicode="o" horiz-adv-x="948" d="M6 410q0 122 59.5 216t161 146t221.5 52q76 0 172 -37t168 -130t72 -247q0 -78 -35.5 -175t-127 -171t-249.5 -74q-88 0 -167.5 27.5t-142 81.5t-97.5 132.5t-35 178.5zM152 410q0 -122 47 -206t112.5 -123.5t116.5 -39.5q77 0 144.5 53.5t106.5 139.5t39 176 q0 102 -38 183.5t-105 128t-147 46.5q-102 -4 -164 -72t-87 -150t-25 -136z" />
<glyph unicode="p" horiz-adv-x="1018" d="M-28 649q40 -6 73 -6q78 0 116.5 25t91 81t111.5 85q58 28 168 28q24 0 84.5 -18t130 -63.5t119.5 -131t50 -211.5q0 -94 -43 -190.5t-129 -161t-212 -64.5q-148 0 -264 111q10 8 31.5 26.5t37.5 33.5q15 15 23 22q10 -69 60 -94.5t82 -28.5q28 0 87 20.5t117 99.5 q58 78 58 234q0 89 -29 168.5t-88 127.5t-145 48q-44 0 -104.5 -34t-105.5 -112q-44 -78 -44 -198v-452q0 -64 8 -154q8 -88 8 -122q0 -64 -24 -106q-24 -43 -90 -75v555q0 188 -9.5 286.5t-29 141.5t-53.5 68t-86 61z" />
<glyph unicode="q" horiz-adv-x="884" d="M-4 465q0 66 39 150.5t129 148.5t234 64l423 -10q-50 -50 -82.5 -99.5t-32.5 -67.5v-170q0 -186 4 -285.5t9.5 -181.5t5.5 -108q0 -32 -6 -74q-8 -60 -55.5 -102t-109.5 -64t-122 -32q-44 -6 -88 -9t-68 -4l10 9q44 22 69 46t36 44t31 61q8 -8 29 -32.5t33 -30.5t34 -6 t57 32t35 78v262l-12 10q-114 -66 -192 -66q-13 0 -20 2t-9 2q-115 0 -202 61t-133 160t-46 212zM136 465q0 -124 40 -210.5t101 -128.5t121 -42q63 0 111.5 34t74.5 91t26 125q0 194 -38 319q-36 125 -164 125q-120 0 -196 -80t-76 -233z" />
<glyph unicode="r" horiz-adv-x="927" d="M-14 842q28 -12 98 -12q114 0 362 28q122 0 195 -60t73 -140q0 -71 -46 -121.5t-110 -82t-138 -55.5q-75 -25 -80 -27q24 -20 72.5 -38t68.5 -28t39 -38q44 -67 126 -142t128 -75q28 0 43 5.5t69 11.5q-34 -42 -70 -54t-102 -12q-83 0 -149.5 45t-152.5 142t-113 124 t-65 27q-2 -14 -4 -47.5t-2 -79.5q0 -116 18 -201h-170q3 42 12.5 131t14.5 148t5 127q0 272 -122 424zM196 649q0 -40 12 -131q14 -92 16 -135q168 68 261 142.5t93 142.5q-4 56 -43 82q-39 24 -121 34q-24 4 -68 4q-84 0 -117 -35t-33 -104z" />
<glyph unicode="s" horiz-adv-x="815" d="M6 324q32 6 96.5 24t120.5 45q-8 -17 -17.5 -39t-18.5 -45t-9 -37q0 -56 32.5 -97.5t82 -63t98.5 -21.5q77 0 135 49t58 123q0 72 -61 103t-195 70t-202 89t-68 152q0 58 50 106t129 75.5t158 27.5q80 0 152 -41.5t115.5 -102.5t43.5 -113q0 -6 -77 -47.5t-117 -68.5 q33 68 34.5 73t6.5 52q0 84 -51.5 127t-120.5 43q-62 0 -124.5 -43.5t-62.5 -105.5q0 -98 66.5 -134.5t200 -60t199.5 -57.5q65 -34 65 -124q0 -116 -98.5 -185t-235.5 -69q-98 0 -166 31t-108 76t-65.5 96t-45.5 93z" />
<glyph unicode="t" horiz-adv-x="962" d="M-47 832l10 10q61 36 86 50.5t48.5 35t68.5 55.5q17 -34 98.5 -68.5t181.5 -34.5h396v-42h-262q-44 0 -132.5 -46t-159.5 -139t-71 -231q0 -64 50.5 -148t146 -144t221.5 -60q63 0 103 10t91 33t68 29q-51 -87 -127 -117.5t-211 -30.5q-142 0 -249.5 52.5t-166.5 150 t-59 225.5q0 88 38.5 158t91 118t111.5 87t66 47h-438z" />
<glyph unicode="u" horiz-adv-x="864" d="M20 328q0 77 20.5 140.5t49.5 123.5t29 72q0 -2 3 16q3 16 3 37q0 79 -53 147h235q-14 -36 -68 -160t-82 -204t-28 -128q0 -74 41.5 -133.5t105.5 -94t124 -34.5q34 4 101 28.5t127 80.5v414q0 53 -6.5 79t-46 83t-43.5 63h248l-28 -86q-4 -10 -4 -202v-210v-212v-113 h-120v113q-38 -18 -96 -57.5t-101 -58t-107 -18.5q-113 0 -181.5 45t-95.5 115q-27 72 -27 154z" />
<glyph unicode="v" horiz-adv-x="891" d="M-43 866h237q-6 -6 -6 -18q0 -7 5 -39q5 -31 5 -57q19 -56 61 -170t93 -236q52 -124 78 -146q28 48 74 166t81 226t35 135q0 84 -24 139h221q-42 -59 -119.5 -237t-149 -365.5t-83.5 -235.5h-115q-4 34 -37.5 127t-84.5 209t-125.5 256t-145.5 246z" />
<glyph unicode="w" horiz-adv-x="1327" d="M39 305q0 98 24.5 160.5t64.5 128.5t40 96q0 10 -21.5 61t-62.5 105h274q-18 -43 -62 -115.5t-70.5 -121t-47 -112t-20.5 -135.5q0 -110 69 -184t175 -74q37 0 101.5 35.5t64.5 59.5q0 20 -18 56.5t-20 86.5q0 62 17 109t48.5 118t31.5 99q0 9 -28.5 65.5t-45.5 100.5 h264q-4 -12 -35.5 -61t-58.5 -98t-48 -123q-21 -72 -21 -156q0 -102 62 -186.5t146 -84.5q56 0 107 36.5t82.5 81.5t31.5 63v278q0 40 -16.5 81t-37.5 75t-44 62t-33 40q55 2 121 2q68 0 133 2l6 -114q-8 -32 -16 -138q-6 -106 -10 -172v-53q0 -100 2 -158.5t8 -118.5 q6 -62 8 -78h-135q6 92 6 164q-57 -58 -92 -92t-70 -51t-96 -17q-45 0 -74 7t-48 20.5t-58 56t-43 48.5q-16 -12 -47.5 -38.5t-73.5 -53t-90.5 -44.5t-98.5 -18q-43 0 -101.5 34t-101 101.5t-42.5 163.5z" />
<glyph unicode="x" horiz-adv-x="1173" d="M-362 -456q146 12 257 102t185.5 208.5t171.5 307.5q98 190 148 266q18 -16 68 -98t100 -149t122 -118q74 -51 158 -51q94 0 153 63t72 157q-44 5 -87.5 27t-88.5 32q12 -18 23 -35.5t17.5 -34.5t6.5 -39q0 -41 -34 -66q-34 -26 -62 -26q-78 0 -166 103t-146 205t-82 153 q0 7 60.5 80t127 134t106.5 61q36 0 58 -16t30 -79q45 16 93.5 47.5t74.5 63.5q-36 20 -97 37t-94 24q-60 0 -125.5 -34.5t-122.5 -80.5t-95 -86l-48 -48q-3 3 -60 77.5t-116.5 118t-135.5 43.5q-95 0 -145 -84q33 0 70 6q82 0 151.5 -59.5t111.5 -134.5t42 -109 q-20 -46 -81 -162t-152 -261t-213 -293t-256 -252z" />
<glyph unicode="y" horiz-adv-x="870" d="M14 448q0 125 70.5 213.5t178 132.5t218.5 44q55 0 105 -11.5t110 -33t62 -21.5q-12 -7 -40.5 -14.5t-61 -21.5t-93.5 -54q-14 20 -32.5 45t-30.5 35t-32 14q-18 4 -54 4q-64 0 -126 -36.5t-101 -107t-39 -165.5q0 -82 35.5 -171.5t87.5 -156.5q51 -67 97 -81 q-10 62 -10 98q0 116 55 202t191 86q62 0 117 -29.5t84 -82.5q-24 -6 -48.5 -9.5t-40.5 -11.5q-16 -9 -46 -33q-30 42 -48 59t-52 17q-28 0 -67.5 -25t-69 -72t-29.5 -111q0 -58 24 -100t77 -107t80 -117.5t27 -122.5q0 -37 -26 -90t-86 -93t-154 -40q-65 0 -114.5 43 t-49.5 102q0 41 27 67t67 34q-2 -5 -19 -37.5t-17 -46.5q0 -36 39 -69t79 -33q50 0 114 45t64 131q0 90 -55.5 142.5t-192 149t-205.5 192.5t-69 248z" />
<glyph unicode="z" horiz-adv-x="1061" d="M-244 -484q74 102 215 303t250 375q84 132 200.5 305t176.5 259q-148 -4 -193 -4q-50 0 -112.5 1.5t-130.5 4.5t-148 6q18 23 83 72q65 50 97 88q40 -60 96 -82q56 -23 132 -23q38 0 116 7q80 8 126 8q50 0 88 -8l-472 -695q24 14 87 33.5t153 19.5q42 0 87 -10t86 -23 t88.5 -27t74.5 -14q24 0 79 18t56 18q-70 -70 -120.5 -125t-59.5 -61.5t-31 -6.5q-31 0 -86.5 46.5t-108.5 73.5t-149 27q-90 -10 -135 -23t-64.5 -33t-50.5 -72q-30 -50 -60 -88q-142 -174 -142 -279q0 -30 10 -45q-99 0 -238 -46z" />
<glyph unicode="&#x2000;" horiz-adv-x="736" />
<glyph unicode="&#x2001;" horiz-adv-x="1472" />
<glyph unicode="&#x2002;" horiz-adv-x="736" />
<glyph unicode="&#x2003;" horiz-adv-x="1472" />
<glyph unicode="&#x2004;" horiz-adv-x="490" />
<glyph unicode="&#x2005;" horiz-adv-x="368" />
<glyph unicode="&#x2006;" horiz-adv-x="245" />
<glyph unicode="&#x2007;" horiz-adv-x="245" />
<glyph unicode="&#x2008;" horiz-adv-x="184" />
<glyph unicode="&#x2009;" horiz-adv-x="294" />
<glyph unicode="&#x200a;" horiz-adv-x="81" />
<glyph unicode="&#x202f;" horiz-adv-x="294" />
<glyph unicode="&#x205f;" horiz-adv-x="368" />
<glyph unicode="&#x25fc;" horiz-adv-x="902" d="M0 0v902h902v-902h-902z" />
</font>
</defs>
</svg>
