<?xml version="1.0" standalone="no"?>
<!DOCTYPE svg PUBLIC "-//W3C//DTD SVG 1.1//EN" "http://www.w3.org/Graphics/SVG/1.1/DTD/svg11.dtd" >
<svg xmlns="http://www.w3.org/2000/svg" xmlns:xlink="http://www.w3.org/1999/xlink" version="1.1">
<metadata>
Created by FontForge 20170731 at Fri Apr 13 11:57:52 2018
 By Aleksey,,,
Copyright (c) 2018 by Fontbundles.net. All rights reserved.
</metadata>
<defs>
<font id="Allana-Regular" horiz-adv-x="273" >
  <font-face 
    font-family="Allana"
    font-weight="400"
    font-stretch="normal"
    units-per-em="1000"
    panose-1="2 0 5 5 0 0 0 2 0 4"
    ascent="750"
    descent="-250"
    x-height="383"
    cap-height="984"
    bbox="-714 -662 2432.33 1267"
    underline-thickness="50"
    underline-position="-100"
    unicode-range="U+0020-E18A"
  />
<missing-glyph horiz-adv-x="220" 
 />
    <glyph glyph-name=".notdef" horiz-adv-x="220" 
 />
    <glyph glyph-name=".null" horiz-adv-x="0" 
 />
    <glyph glyph-name="nonmarkingreturn" horiz-adv-x="333" 
 />
    <glyph glyph-name="space" unicode=" " horiz-adv-x="220" 
 />
    <glyph glyph-name="exclam" unicode="!" horiz-adv-x="314" 
d="M111 5q-11 0 -10 12l80 359q2 5 6 9q4 3 9 3h50q6 0 9 -5q2 -6 -1 -10l-129 -356q-3 -12 -14 -12zM124 -53q0 -15 -18 -31q-11 -8 -25 -10q-14 0 -22 11q-4 7 -4 17q1 18 17 30q12 9 26 9h3q11 0 18 -10q5 -8 5 -16z" />
    <glyph glyph-name="quotedbl" unicode="&#x22;" 
d="M180 416q3 1 8 1q13 0 21 -11q4 -5 4 -15q0 -6 -3 -14q-3 -7 -13 -23q-6 -9 -20 -23q-12 -12 -23 -19q-14 -8 -25 -9h-3q-8 0 -9 8v3q0 7 8 11t17 13t13 16q-10 7 -10 17l-14 -22q-10 -13 -19 -21q-4 -4 -22 -17q-10 -6 -24 -8h-3q-7 0 -8 8v3q0 7 8 11q7 4 16 13l14 16
q-12 7 -12 20q0 19 18 33q17 12 34 9q17 -5 18 -22q11 18 29 22z" />
    <glyph glyph-name="numbersign" unicode="#" horiz-adv-x="560" 
d="M326 245l63 129q2 6 9 6h41q10 0 15 -1q3 -1 3 -4l-2 -8l-59 -122h65q7 0 8 -3q1 -2 1 -6q0 -6 -5 -10q-4 -4 -10 -4h-70l-30 -62h45q7 0 8 -4q1 -2 1 -6q0 -6 -4 -10t-10 -4h-52l-59 -121q-5 -8 -9 -8q-4 -1 -15 -1h-40q-4 -1 -6 2t0 8l58 120h-46l-59 -124
q-3 -10 -14 -10h-49q-6 0 -9 5q-3 4 0 10l57 119h-88q-11 0 -9 11q2 6 5 9q4 4 10 4h93l30 62h-96q-7 0 -8 4q-1 1 -1 5q0 6 5 11q5 3 10 3h101l62 130q5 9 14 9h50q6 0 9 -5q2 -6 -2 -11l-58 -123h47zM267 222l-29 -62h46l30 62h-47z" />
    <glyph glyph-name="dollar" unicode="$" horiz-adv-x="408" 
d="M273 254q-5 2 -5 6q-1 4 2 9q8 13 19 38q4 11 4 22q0 9 -3 16q-5 11 -14 14q-8 2 -13 2l-9 -1l-60 -157l6 -15q5 -10 17 -42q4 -11 4 -26q0 -54 -36 -88q-29 -26 -68 -33l-7 -17q-1 -6 -6 -9q-2 -1 -6 -1q-9 0 -10 4q-1 3 0 9l4 11q-16 0 -31 6q-14 4 -24 16
q-11 14 -11 33q0 18 11 37q8 14 23 29q15 14 39 27q5 3 10 1q4 -1 6 -5t0 -9t-8 -8q-37 -18 -50 -43q-6 -10 -6 -23v-4q0 -10 6 -18q8 -11 22 -9q13 0 26 6l39 101q-4 20 -14 41q-9 17 -16 41q-7 20 -7 44q-1 21 11 49q15 35 52 59q35 23 72 24l5 14q2 6 7 8q6 2 9 2
q5 -2 7 -4q1 -4 0 -10l-5 -12q16 -4 29 -10q14 -8 19 -22q5 -12 5 -22t-5 -25q-8 -24 -23 -49q-7 -10 -17 -7zM202 325q-8 -12 -13 -27q-4 -12 -4 -29q-1 -10 -1 -31l41 110q-15 -11 -23 -23z" />
    <glyph glyph-name="ampersand" unicode="&#x26;" horiz-adv-x="433" 
d="M315 180q2 3 8 5l4 1q8 0 9 -9q2 -33 -11 -62q-13 -31 -38 -57q-19 -20 -47 -36q-28 -15 -57 -21q-17 -4 -39 -4q-12 0 -18 1q-27 5 -46 19q-20 17 -26 42q-3 12 -3 23q0 17 4 30q11 41 43 67q31 25 71 33q-9 10 -10 20q-3 11 -3 23q2 26 15 53q17 32 43 51q29 21 55 28
q15 4 31 4q8 0 22 -2q25 -4 37 -23q7 -12 7 -23q0 -15 -8 -31q-3 -7 -7 -8q-6 -2 -9 -1q-5 0 -6 4q-3 3 0 9q4 12 5 18v4q0 6 -3 12q-7 12 -22 12q-14 0 -30 -8q-14 -8 -28 -24q-14 -17 -20 -36l-3 -18q-2 -13 -1 -18q1 -15 10 -27q8 -13 21 -17q3 -1 7 -1q4 -2 5 -4
q2 -4 2 -5q0 -3 -3 -8q-6 -8 -14 -6h-1l-16 3q-7 0 -12 -1q-31 -4 -60 -22q-28 -18 -45 -50q-11 -21 -11 -47q0 -20 13 -32q14 -14 32 -15h9q16 0 29 4q18 4 39 17q17 10 32 25q20 22 32 47q11 26 9 52q-1 5 3 9z" />
    <glyph glyph-name="quotesingle" unicode="'" horiz-adv-x="219" 
d="M151 391q0 -4 -4 -14q-3 -7 -13 -23q-6 -9 -20 -23q-12 -12 -23 -19q-14 -8 -25 -9h-3q-8 0 -9 8v2q0 8 9 12q7 4 16 13t13 16q-11 6 -11 19q0 10 5 19t13 15q11 8 26 10q13 0 21 -11q5 -8 5 -15z" />
    <glyph glyph-name="parenleft" unicode="(" horiz-adv-x="323" 
d="M274 418q7 0 9 -8q0 -10 -10 -14q-24 -11 -44 -38q-19 -24 -37 -59q-17 -34 -27 -64q-11 -30 -18 -53q-7 -25 -10 -45q-7 -34 -7 -73q0 -20 3 -40q4 -24 21 -35q4 -3 4 -7q0 -5 -3.5 -9.5t-9.5 -5.5q-8 -2 -23 -2q-25 0 -38 13q-20 20 -25 52q-3 17 -3 35q0 10 2 34
q5 43 11 64q8 37 24 80q16 46 40 83q24 38 59 66q35 26 80 26h2z" />
    <glyph glyph-name="parenright" unicode=")" horiz-adv-x="375" 
d="M63 -35q-8 0 -8 8v2q0 7 9 12q23 10 45 38q19 26 36 59q13 25 28 64l17 53l10 47q8 35 8 67q0 16 -4 44q-4 24 -21 35q-7 5 -3 12q3 9 12 10q14 3 25 3q24 0 37 -13q19 -19 25 -52q2 -11 2 -34t-2 -36q-4 -32 -11 -64q-7 -34 -23 -80q-18 -47 -40 -83q-27 -41 -59 -66
q-35 -26 -81 -26h-2z" />
    <glyph glyph-name="asterisk" unicode="*" horiz-adv-x="258" 
d="M69 337q0 5 4 9q2 2 8 4q4 1 9 -2l23 -19l12 44q1 5 7 9q6 2 9 2q4 0 7 -3q2 -4 1 -9l-12 -40l33 20q4 2 7 2q7 0 9 -5q2 -4 0 -9t-7 -8l-41 -24l25 -21q3 -1 3 -6q0 -6 -4 -10q-3 -3 -8 -5q-4 -1 -9 2l-21 17l-12 -39q-2 -7 -6 -8q-5 -3 -8 -2q-5 0 -8 3t-1 9l11 37
l-29 -17q-6 -2 -8 -2q-3 0 -5 1t-2 4q-1 1 -1 5q0 7 7 11l35 21l-25 21q-5 3 -3 8z" />
    <glyph glyph-name="plus" unicode="+" horiz-adv-x="423" 
d="M282 186q7 0 8 -4q2 -6 2 -8q-2 -6 -5 -8q-4 -4 -10 -4h-71l-24 -84q-2 -6 -5 -8q-4 -4 -10 -4h-49q-5 0 -8 4q-4 4 -2 9l25 83h-70q-7 0 -8 4q-1 1 -1 5q0 6 5 11q4 4 10 4h70l25 84q5 11 14 11h50q6 0 9 -4q2 -4 0 -9l-24 -82h69z" />
    <glyph glyph-name="comma" unicode="," horiz-adv-x="232" 
d="M151 38q0 -5 -4 -15q-3 -7 -13 -23q-9 -12 -20 -23q-12 -12 -23 -19q-14 -8 -25 -9q-4 -1 -8 1q-3 3 -3 7q-1 2 1 8q1 4 7 6q8 5 16 13l14 16q-12 7 -12 20q0 19 18 33q11 8 26 10q13 0 21 -11q5 -7 5 -14z" />
    <glyph glyph-name="hyphen" unicode="-" horiz-adv-x="386" 
d="M56 166q-2 4 -1 8q0 4 4 8t10 4h184q7 0 8 -4q1 -2 1 -6q0 -6 -4 -10t-10 -4h-184q-7 0 -8 4z" />
    <glyph glyph-name="period" unicode="." horiz-adv-x="208" 
d="M124 42q0 -3 -2 -9q-5 -15 -16 -23q-11 -9 -25 -11q-14 0 -22 11q-5 7 -5 15q0 4 2 10q4 13 16 22q11 8 26 10q13 0 21 -11q5 -7 5 -14z" />
    <glyph glyph-name="slash" unicode="/" horiz-adv-x="274" 
d="M222 413q6 2 9 2q5 -2 6 -4q1 -4 0 -10l-159 -419q-1 -6 -6 -9q-2 -1 -6 -1q-9 0 -10 4q-3 3 -1 9l160 420q2 6 7 8z" />
    <glyph glyph-name="zero" unicode="0" horiz-adv-x="274" 
d="M18 202q14 55 39 106q24 52 57 99t72 75q20 14 39 21q18 7 40 7q30 0 40 -22q11 -23 12 -54q0 -32 -6 -65q-9 -40 -13 -55q-11 -34 -19 -57q-12 -30 -30 -67q-15 -31 -38 -69q-23 -35 -46 -61q-26 -27 -53 -43q-29 -17 -57 -17q-20 0 -31 11q-12 11 -17 28q-5 15 -7 35
q-1 7 -1 18q0 44 19 110zM129 393q-27 -39 -52 -94q-23 -50 -36 -99q-14 -52 -17 -87q-1 -6 -1 -22v-7q0 -8 2 -18q3 -13 10 -18q5 -5 12 -5q2 0 10 2q24 8 47 35q24 29 45 63q23 40 36 68l22 52q17 44 29 96q7 32 7 62q0 12 -1 17q-2 12 -4 17q-3 8 -8 13q-5 4 -14 4
q-9 -1 -21 -9q-35 -25 -66 -70z" />
    <glyph glyph-name="one" unicode="1" horiz-adv-x="171" 
d="M244 506q2 -4 0 -9l-87 -243q-39 -108 -84 -244q-1 -12 -15 -12h-49q-5 -2 -8 3q-3 4 -1 9q32 103 80 235l84 234l-17 -6q-6 -1 -9 0q-4 1 -4 7q-1 4 2 9q1 4 8 6l9 4q1 0 13 5l13 4l8 2h49q5 0 8 -4z" />
    <glyph glyph-name="two" unicode="2" horiz-adv-x="329" 
d="M391 444q0 -23 -9 -52q-9 -28 -24 -57l-33 -58q-8 -13 -35 -52l-30 -40q-37 -47 -81 -91q-42 -43 -79 -70h189q7 0 8 -3q1 -2 1 -6q0 -6 -5 -10q-4 -4 -10 -4h-273h-2q-6 0 -8 8v2q0 8 9 12q24 13 58 42q35 32 66 64q32 33 67 78t58 83l24 42q14 27 24 52q11 30 11 55
q0 21 -11 32q-20 20 -43 20q-25 -2 -47 -16t-43 -41q-19 -25 -27 -58q-8 -32 -7 -57q0 -27 5 -49q1 -3 -1 -9q-3 -5 -7 -6q-4 -2 -7 -2q-6 0 -8 6q-8 21 -6 53q0 29 8 64q14 55 47 87q32 32 72 46q26 8 49 8q15 0 28 -3q37 -7 58 -31q14 -17 14 -39z" />
    <glyph glyph-name="three" unicode="3" horiz-adv-x="348" 
d="M423 487q-2 -7 -6 -11q-22 -18 -46 -36l-57 -42l-54 -43q-26 -22 -36 -37q38 -18 59 -54q19 -36 19 -76q0 -51 -18 -87q-18 -35 -46 -57q-31 -24 -61 -34q-40 -14 -75 -14q-28 0 -48 7q-27 8 -38 23q-16 22 -16 50q0 35 15 74q14 36 36 68q25 35 47 52q4 4 10 4q4 0 7 -3
q2 -4 2 -8q-1 -4 -6 -9q-19 -16 -39 -45q-19 -28 -33 -59q-15 -34 -15 -66q0 -24 12 -41q17 -22 48 -22q38 0 70 22q33 22 55 60q19 33 19 72q0 10 -1 16q-2 35 -20 64q-19 30 -51 43q-10 5 -10 13q0 6 6 15q6 12 32 34l53 42l56 43l44 33q-37 8 -70 8q-9 0 -29 -2
q-13 -2 -30 -8q-31 -10 -51 -32q-15 -16 -15 -40q0 -9 1 -13q1 -5 -2 -10q-3 -3 -8 -5t-9 0q-3 1 -5 6q-1 6 -1 16q0 33 20 56q26 29 67 44q19 6 48 9t60 3q39 -2 59 -5q31 -5 45 -10q6 -1 6 -8z" />
    <glyph glyph-name="four" unicode="4" horiz-adv-x="354" 
d="M222 369q-59 -53 -129 -92h159l78 222q5 11 15 11h50q5 0 8 -4q2 -5 0 -10l-169 -483q-1 -4 -6 -9q-4 -4 -10 -4h-50q-6 0 -7 4q-3 4 -1 9l84 240h-226q-11 0 -16 6q-2 1 -2 5q0 5 4 10q18 21 45 37l42 27l20 13q31 20 72 58q35 32 71 90q6 7 15 7h48q7 0 10 -5v-3
q0 -4 -3 -9q-40 -64 -102 -120z" />
    <glyph glyph-name="five" unicode="5" horiz-adv-x="365" 
d="M421 506q1 -4 0 -8q-2 -6 -4 -8q-4 -4 -10 -4h-176l-76 -167q36 -2 67 -9q33 -8 55 -23q23 -17 35 -42q7 -15 7 -40q0 -8 -2 -26q-5 -39 -24 -70q-19 -32 -48 -58q-28 -25 -61 -40q-40 -20 -84 -20q-37 0 -60 15q-28 18 -35 49q-5 18 -5 35q0 10 4 36q7 38 27 79q1 4 7 8
q5 4 10 2q10 -3 5 -15q-15 -34 -22 -66q-5 -19 -5 -41q0 -16 2 -24q4 -27 27 -41q12 -7 28 -7q15 0 41 8q23 8 42 21q18 13 34 33q17 20 26 40q11 21 15 43q3 17 3 30q0 19 -6 34q-10 24 -34 40q-24 14 -54 20q-35 5 -65 5q-14 0 -9 14l88 192q3 8 9 9h10h230q7 0 8 -4z" />
    <glyph glyph-name="six" unicode="6" horiz-adv-x="318" 
d="M364 500q1 -4 0 -8q-2 -5 -6 -8t-10 -3q-48 3 -89 -23t-75 -68q-33 -40 -58 -90q-22 -45 -37 -87q35 31 78 44q22 7 46 7q21 0 35 -5q40 -14 50 -48q5 -17 5 -32q0 -19 -8 -45q-11 -36 -36 -65q-24 -28 -53 -45q-28 -18 -61 -24q-15 -3 -31 -3q-14 0 -29 3q-27 6 -49 26
q-22 19 -31 53q-5 20 -5 42q0 19 3 40q8 50 36 114q21 47 54 90q32 42 75 76q41 32 89 50q40 14 80 14q12 0 19 -1q7 0 8 -4zM246 158q0 24 -11 44q-15 25 -33 31q-12 2 -17 2q-12 0 -23 -4q-23 -8 -42 -23q-25 -18 -42 -34q-7 -33 -7 -58q0 -16 3 -33q5 -22 17 -36
q13 -15 37 -20q14 -2 20 -2q31 0 51 19q28 23 40 65q7 22 7 49z" />
    <glyph glyph-name="seven" unicode="7" horiz-adv-x="317" 
d="M316 383q-48 -51 -97 -116q-42 -54 -83 -123q-35 -60 -62 -130q-2 -5 -6 -8q-4 -4 -9 -4h-49q-6 0 -9 4q-3 3 -1 9q27 69 61 129q36 62 80 122q41 56 95 114q48 52 105 106h-206q-7 0 -8 4q-1 1 -1 5q0 6 5 11q4 4 10 4h279q7 0 9 -8v-3q0 -8 -5 -11q-55 -49 -108 -105z
" />
    <glyph glyph-name="eight" unicode="8" horiz-adv-x="353" 
d="M375 405q-11 -28 -26 -49q-14 -22 -36 -47q-13 -15 -38 -38q22 -27 34 -55q14 -33 14 -65q0 -34 -18 -66q-20 -33 -65 -58q-36 -20 -84 -28q-18 -3 -34 -3q-23 0 -51 7q-38 11 -58 41q-13 17 -13 44q0 15 5 37q6 25 24 50q13 20 40 49q23 23 49 43q36 28 46 34
q-14 18 -20 28q-10 13 -15 31q-6 17 -5 35q0 19 10 39q12 26 35 44q23 17 50 26q33 11 65 11q20 0 42 -5q23 -7 40 -21q17 -17 17 -44q0 -23 -8 -40zM197 399q0 -13 4 -22q6 -17 17 -35q14 -22 22 -31q12 -15 21 -24q20 18 33 32q22 26 32 41q15 22 25 44q8 21 8 35
q0 29 -25 41q-14 7 -32 7q-6 0 -18 -2q-27 -4 -53 -24t-33 -52q-1 -3 -1 -10zM136 255q-24 -20 -46 -40q-22 -22 -39 -45q-17 -25 -23 -45q-4 -15 -4 -30q0 -18 7 -31q12 -23 36 -34q14 -7 35 -7q6 0 22 2q35 5 64 23q42 26 53 56q8 21 8 40q0 7 -2 21q-6 28 -23 58
q-15 25 -34 47l-6 8l-7 7q-21 -14 -41 -30z" />
    <glyph glyph-name="nine" unicode="9" horiz-adv-x="311" 
d="M1 2q-3 5 0 9q2 5 5 7q5 3 10 3q48 -3 90 24q40 25 74 67q32 39 58 90q22 45 37 87q-37 -31 -79 -44q-22 -7 -46 -7q-21 0 -35 5q-39 14 -49 48q-5 13 -5 33q0 22 7 44q16 49 52 82q37 34 78 47q26 8 49 8q16 0 32 -3q39 -7 62 -40q23 -32 23 -90q-2 -59 -40 -145
q-21 -47 -54 -90q-32 -43 -74 -75q-43 -34 -89 -50q-39 -15 -80 -15q-13 0 -19 1q-6 0 -7 4zM117 344q0 -24 11 -44q16 -27 34 -31q12 -2 17 -2q12 0 23 4q23 8 43 23q28 22 41 34q7 33 7 58q0 18 -3 33q-4 20 -18 37q-13 15 -37 19q-12 2 -17 2q-12 0 -21 -3
q-17 -4 -32 -16q-12 -10 -24 -28q-9 -14 -16 -37q-8 -26 -8 -49z" />
    <glyph glyph-name="colon" unicode=":" horiz-adv-x="224" 
d="M165 252q0 -4 -2 -10q-5 -15 -16 -23q-12 -9 -25 -9h-3q-12 0 -19 10q-5 7 -5 14q0 4 2 10q4 13 16 22q11 9 26 11q13 0 21 -11q5 -7 5 -14zM125 114q0 -4 -2 -10q-4 -13 -16 -23q-12 -9 -25 -9h-3q-12 0 -19 10q-5 7 -5 14q0 4 2 10q4 13 16 22q11 9 26 11q13 0 21 -11
q5 -7 5 -14z" />
    <glyph glyph-name="less" unicode="&#x3c;" horiz-adv-x="283" 
d="M55 176q2 5 7 9l167 107q5 3 9 3q6 0 8 -4q1 -2 1 -6q0 -6 -7 -12l-122 -95l83 -105q2 -2 2 -6q0 -6 -5 -10q-4 -4 -9 -4t-13 6l-119 107q-4 4 -2 10z" />
    <glyph glyph-name="equal" unicode="=" horiz-adv-x="362" 
d="M90 232q-1 1 -1 5q0 6 5 11q3 3 9 3h181q7 0 8 -3q2 -6 2 -8q-2 -6 -5 -8q-4 -4 -10 -4h-181q-7 0 -8 4zM57 101q-1 1 -1 5q0 6 5 11q3 4 9 4h181q7 0 8 -4q2 -6 2 -8q-2 -6 -5 -8q-4 -4 -10 -4h-181q-7 0 -8 4z" />
    <glyph glyph-name="greater" unicode="&#x3e;" horiz-adv-x="338" 
d="M249 171q-1 -5 -8 -10l-167 -107q-4 -3 -8 -3q-8 0 -9 5q-1 1 -1 5q0 6 7 12l122 95l-83 105q-2 2 -2 6q0 6 5 11q5 3 10 3t12 -6l119 -107q5 -4 3 -9z" />
    <glyph glyph-name="question" unicode="?" horiz-adv-x="417" 
d="M358 316q0 -24 -14 -49q-10 -20 -24 -36q-12 -16 -29 -33q-26 -26 -46 -42q-23 -20 -41 -38q-19 -19 -33 -44q-14 -22 -25 -60q-2 -6 -5 -8q-4 -4 -10 -4h-49q-11 0 -10 12q11 43 26 66q15 25 35 47q23 25 43 41q30 26 49 45q37 37 49 69q7 20 7 37q0 7 -2 15
q-8 20 -29 26q-3 1 -10 1q-20 0 -43 -13q-21 -11 -34 -33q-15 -22 -19 -59q-2 -7 -5 -9q-4 -3 -8 -3q-4 -1 -8 1q-5 2 -3 8q4 44 24 73t44 42q20 11 44 15q9 2 27 2q15 0 22 -1q26 -3 44 -13q20 -11 27 -28q6 -13 6 -27zM124 -53q0 -15 -18 -31q-11 -8 -25 -10q-14 0 -22 11
q-5 7 -5 14q0 4 2 10q5 15 16 23q12 9 26 9h3q11 0 18 -10q5 -8 5 -16z" />
    <glyph glyph-name="at" unicode="@" horiz-adv-x="498" 
d="M318 255q-3 -3 -8 -5q-4 -1 -8 1q-4 1 -4 8q0 5 -4 6q-3 0 -9 -2q-14 -6 -22 -14q-10 -10 -21 -24l-7 -12l-8 -16q-4 -7 -6 -16q-1 -7 0 -12q2 -3 5 -2l7 3l6 4l4 3q14 10 40 42l4 8l3 7q3 6 8 8q4 1 9 0q3 -2 5 -5q2 -5 -1 -10l-10 -22q-10 -26 -14 -39q-6 -21 -5 -34
q0 -12 9 -12q13 0 27 17q9 11 19 30q12 26 14 32q7 20 8 24q5 22 5 39q0 18 -5 36q-7 20 -16 31q-12 15 -27 22q-19 10 -41 10q-15 0 -28 -4q-38 -10 -69 -36q-25 -19 -50 -55q-20 -29 -35 -68q-14 -36 -14 -76q0 -30 13 -56q20 -36 55 -48q22 -9 49 -9q14 0 29 3
q40 6 83 29q40 22 71 58q5 5 9 6q3 0 9 -2q3 -3 3 -7q0 -6 -4 -10q-32 -38 -82 -65q-46 -25 -94 -33q-10 -2 -30 -2q-30 0 -57 9q-40 15 -63 56q-15 27 -15 63q0 42 15 85q13 40 39 76q24 36 56 62q19 16 52 32q31 13 58 17q10 2 31 2q17 0 26 -1q28 -5 49 -16
q30 -16 44 -45q13 -27 13 -62q-2 -36 -14 -68q-13 -34 -36 -66q-8 -12 -21 -25t-27 -21q-16 -10 -30 -11q-3 -1 -9 -1q-9 0 -19 5q-22 12 -23 39q-2 28 4 50q-16 -15 -41 -24q-17 -7 -33 -7q-31 0 -39 23q-2 5 -2 16q0 12 4 23q11 27 30 50q21 25 46 37q12 7 29 10
q10 2 15 2q6 0 14 -2q9 -1 24 -8q12 -7 12 -21q0 -6 -4 -10z" />
    <glyph glyph-name="A" unicode="A" horiz-adv-x="1113" 
d="M1203 550q-6 -9 -17 -4l-18 5l-37 7l-105 -162q-54 -83 -96 -166q-37 -75 -48 -128q-2 -8 -2 -23q0 -34 27 -49q12 -6 26 -6q11 0 26 5q31 9 60 28q33 23 55 42q26 22 39 36q4 4 9 4q6 -2 8 -4t4 -8q0 -5 -4 -9q-19 -19 -59 -52q-36 -28 -75 -48q-38 -18 -81 -23
q-42 -3 -76 22q-19 14 -26 33q-7 15 -7 34q0 31 17 76q14 41 36 83t49 89l54 88l52 80l43 65q-45 4 -75 5q-54 2 -87 2l-139 -163l-140 -156q-76 -79 -136 -131q-65 -57 -124 -89q-38 -21 -83 -28q-31 -6 -61 -6q-11 0 -33 2q-50 5 -88 23q-43 20 -66 56q-18 26 -25 55
q-7 24 -7 50q0 27 7 49q14 50 42 93q40 57 100 101q58 42 131 72q66 28 151 49q84 19 161 29q65 9 157 14q68 4 142 4l141 171q65 79 151 160l29 25q19 16 33 22q13 5 23 5q8 0 11 -1q17 -4 27 -27q7 -14 7 -35q0 -13 -3 -28q-7 -39 -30 -87q-21 -46 -56 -105l-72 -116
l35 -7q15 -3 19 -7q8 -6 4 -16zM1170 748q25 49 35 70q14 30 22 60q3 10 5 28q0 13 -4 18t-12 3q-8 -3 -24 -17q-69 -65 -143 -152l-134 -162l85 -3q29 -1 72 -5l52 83q26 41 46 77zM736 567q-81 -5 -143 -14q-69 -10 -147 -29q-74 -18 -137 -46q-70 -31 -118 -68
q-54 -42 -85 -93q-13 -23 -24 -50q-10 -24 -13 -53q-2 -18 -2 -27t2 -27q5 -28 18 -53q20 -36 50 -55q32 -21 66 -25q18 -2 26 -2q19 0 46 5q37 7 70 24q53 28 118 84q66 58 131 126q62 65 136 150l134 158q-85 -2 -128 -5z" />
    <glyph glyph-name="B" unicode="B" horiz-adv-x="768" 
d="M599 961l1 -4q0 -7 -6 -10q-28 -18 -64 -57q-40 -41 -83 -98q-58 -78 -91 -128q-54 -79 -93 -143q-40 -65 -85 -147q-35 -64 -68 -138q-30 -68 -44 -117q-11 -36 -11 -66q0 -12 1 -17q1 -10 7 -10q5 0 14 9q14 16 32 42q15 22 44 68l53 90l61 105l103 175q46 78 107 172
q54 83 106 148q53 67 96 100q18 13 34 21q17 10 35 11h8q16 0 27 -5q16 -7 31 -27q26 -37 26 -75q0 -43 -20 -85q-19 -39 -48 -76q-30 -36 -58 -61q41 -17 62 -45q20 -31 26 -66q3 -18 3 -38q0 -18 -3 -38q-8 -43 -20 -73q-26 -69 -69 -131t-99 -112q-60 -52 -124 -82
q-69 -32 -143 -38l-16 -1l-16 1q-18 0 -33 6q-15 4 -27 16q-12 10 -16 28q-2 10 -2 15q0 12 5 27q7 23 19 41q18 26 29 37q21 21 30 28q36 29 70 37q14 3 26 3q16 0 27 -4q16 -6 27 -17q11 -10 12 -24v-7q0 -10 -3 -21q-6 -16 -21 -26q-4 -3 -7 -3q-4 0 -9 5q-3 5 -2 9
q0 5 4 8q14 12 14 26q0 19 -23 28q-10 2 -17 2q-12 0 -25 -3q-26 -6 -58 -32q-14 -12 -25 -23q-16 -18 -25 -32q-10 -14 -19 -35q-5 -13 -5 -24q0 -7 1 -10q3 -15 14 -21q9 -6 23 -8h7q6 0 20 2l23 4q62 13 119 47q56 31 102 78q47 46 81 100q37 60 58 114q8 18 17 58
q5 28 5 51q0 34 -14 67q-14 29 -41 44q-31 -25 -72 -48q-40 -22 -80 -30q-4 -1 -11 -1q-15 0 -23 7q-9 6 -9 18q0 8 2 13q7 21 25 37t42 27q20 9 48 16q27 5 44 5q18 16 47 48q22 23 44 59q18 29 29 64q5 18 5 33t-5 32q-8 27 -23 38q-5 4 -14 4q-14 0 -28 -10
q-45 -32 -95 -96q-52 -66 -104 -146q-61 -94 -107 -172l-164 -280l-54 -91q-27 -44 -48 -71q-21 -28 -39 -46q-13 -11 -28 -19q-17 -6 -30 -6q-16 2 -27 10q-11 9 -16 30q-2 6 -2 19q0 16 2 25q5 26 15 60q22 68 56 140q37 79 85 164q43 80 101 171q45 74 106 157
q50 69 101 126q46 52 82 74q6 2 7 2h49q9 0 12 -8zM566 593q20 12 43 30q-33 -6 -54 -19q-22 -14 -36 -27q-8 -8 -7 -10h1l11 3q36 19 42 23z" />
    <glyph glyph-name="C" unicode="C" horiz-adv-x="485" 
d="M577 759q1 -2 1 -6q0 -6 -4 -10q-5 -3 -10 -2q-4 1 -13 1q-20 0 -34 -11q-21 -15 -30 -39q-4 -9 -6 -20l-1 -12l1 -11q2 -11 6 -20q5 -11 14 -16q10 -5 19 -5q6 0 10 1q17 5 32 16q11 7 32 28q15 15 30 35q15 19 25 34l17 26q10 17 23 44q11 24 23 59q9 32 9 58
q-2 28 -21 38q-9 5 -25 7q-15 0 -30 -3q-19 -4 -31 -7q-13 -4 -25 -9q-55 -21 -122 -71q-64 -50 -130 -120q-64 -70 -121 -151q-58 -85 -95 -165q-37 -82 -51 -161q-5 -33 -5 -57q0 -45 14 -85q16 -42 42 -64q29 -24 61 -31q27 -5 48 -5q16 0 24 1q41 5 73 17q30 11 77 37
q41 24 81 55q3 3 7 3q8 0 10 -5q2 -6 2 -8q0 -5 -4 -9q-48 -38 -84 -58q-44 -25 -81 -38q-44 -16 -93 -20q-10 -1 -30 -1q-38 0 -69 7q-49 11 -86 42q-39 30 -57 87q-12 38 -12 81q0 12 2 34q6 62 30 129t63 134q35 63 86 130q46 63 102 120q54 57 110 101t110 74t102 39
q5 1 11.5 2t16.5 2t32 1q20 -2 32 -4q16 -3 27 -10q26 -15 31 -45q1 -5 1 -16q0 -24 -6 -50q-9 -36 -24 -68q-20 -40 -28 -53q-15 -25 -34 -51q-21 -30 -50 -57q-29 -26 -58 -39q-13 -6 -26 -6q-17 0 -30 9q-14 7 -21 21q-8 14 -9 28q-2 12 -2 18l1 12q1 14 8 29
q12 34 40 53q19 13 42 13q14 0 22 -2q7 -2 8 -5z" />
    <glyph glyph-name="D" unicode="D" horiz-adv-x="768" 
d="M598 961l1 -4q0 -7 -6 -10q-44 -27 -95 -83q-49 -53 -103 -129t-102 -157q-49 -81 -94 -166q-40 -76 -76 -156q-35 -76 -51 -130q-20 -66 -17 -90q2 -8 4 -9q3 -1 7 0q4 2 7 5q4 3 7 7q16 17 35 45q35 53 46 72l55 91l168 284q59 96 110 173q52 78 105 145q52 65 94 96
q14 12 32 19q21 8 34 8q27 -1 46 -25q19 -25 31 -58q12 -37 17 -66q2 -16 4 -24l3 -26q2 -30 2 -47q0 -70 -17 -150q-23 -107 -68 -201q-48 -100 -113 -177q-68 -82 -149 -129q-18 -9 -54 -25q-38 -15 -68 -22q-37 -8 -68 -8q-32 -1 -58 13t-29 38l-1 12q0 14 7 37
q9 25 31 53q20 27 49 50q29 22 58 32q14 5 31 5q18 0 29 -5q16 -6 27 -17q10 -11 13 -25v-7q0 -12 -4 -21q-6 -14 -20 -25q-3 -3 -7 -3q-7 0 -10 5t-3 9q0 3 5 8q18 14 15 31q-4 15 -24 23q-9 3 -20 3q-14 0 -29 -6q-29 -12 -50 -29t-43 -44q-18 -22 -26 -45q-5 -15 -5 -26
q0 -22 18 -33q11 -6 28 -6q15 0 45 6q13 3 39 13l30 13q61 30 111 74q49 45 94 105q42 57 76 126q34 72 53 137q22 74 29 140q4 31 4 68q0 36 -4 64q-6 65 -30 115l-8 16q-3 5 -11 11q-6 3 -13 3q-8 0 -16 -7q-43 -32 -91 -93q-57 -74 -103 -144q-57 -85 -108 -172
l-167 -280l-56 -92q-19 -30 -50 -73q-23 -32 -41 -50q-22 -22 -42 -26q-12 -2 -17 -2q-12 0 -20 4q-17 9 -24 28q-5 13 -5 27q0 6 2 20q1 13 6 30l10 33q19 60 54 139q32 73 80 162q48 90 97 168q52 84 105 156q51 69 102 127q47 53 92 80l7 2h49q9 0 12 -8z" />
    <glyph glyph-name="E" unicode="E" horiz-adv-x="617" 
d="M705 878q5 0 9 -3q10 -7 3 -16q-9 -12 -9 -21q0 -3 3 -8q10 -15 38 -15q19 0 43 11q27 12 47 32q22 22 28 41q2 4 2 13q0 14 -10 24q-16 16 -47 16q-13 0 -43 -4q-23 -4 -52 -14q-22 -9 -38 -18q-29 -18 -47 -40q-23 -27 -32 -53q-12 -31 -12 -66q0 -28 11 -55q26 2 50 2
q11 0 33 -2q23 -5 37 -14q17 -10 17 -36q0 -20 -22 -34q-13 -9 -38 -9q-17 0 -36 4q-19 3 -50 16q-26 11 -43 31q-53 -15 -120 -43q-58 -26 -116 -63q-57 -39 -102 -82q-47 -47 -81 -100q-20 -32 -40 -77q-23 -52 -23 -101q0 -32 12 -62q14 -37 57 -66q49 -33 117 -41
q23 -3 46 -3q43 0 86 9q69 12 129 40q63 29 105 64q3 3 7 3q8 0 10 -5q2 -6 2 -8q0 -5 -4 -9q-49 -40 -117 -67q-70 -29 -150 -43q-51 -9 -100 -9q-28 0 -55 3q-78 8 -134 43q-60 39 -76 92q-9 26 -9 53q0 38 10 72t24 64q15 32 33 60q35 57 90 109q50 47 115 90
q57 36 130 67q67 28 134 42q-14 35 -13 69q0 36 13 68q14 32 36 60t52 46q19 12 57 25t75 17q13 2 38 2t37 -2q33 -4 54 -25q17 -17 17 -38q0 -4 -2 -14q-7 -29 -30 -55q-23 -24 -58 -41q-26 -13 -53 -13q-44 0 -62 29q-5 10 -5 18q0 16 14 35q2 3 8 5zM674 642q12 -3 19 -3
q9 0 13 3q9 4 7 13q-3 12 -15 18q-14 5 -28 6q-5 1 -15 1t-15 -1l-25 -3q20 -22 59 -34z" />
    <glyph glyph-name="F" unicode="F" horiz-adv-x="622" 
d="M15 143q6 -2 8 -5q2 -4 0 -9l-3 -21q-2 -17 -1 -25q0 -13 4 -22q3 -10 11 -18q11 -11 28 -11q24 0 57 19q21 13 42 32q20 18 30 30q36 37 67 84q32 49 56 93q34 64 49 97l47 97q-34 9 -63 38q-4 3 -4 8t3 8q5 5 9 5t8 -4q13 -13 29 -21q13 -7 29 -12q59 114 135 201
q77 86 187 150l-90 34q-55 19 -95 32q-50 15 -97 24q-46 8 -83 8q-39 0 -58 -10q-17 -11 -23 -24q-5 -10 -5 -19q0 -4 2 -12q3 -18 13 -29q11 -14 26 -18q8 -2 14 -2q10 0 19 4q2 1 6 1q6 0 10 -7q1 -2 1 -5q0 -8 -8 -11q-19 -7 -31 -7q-8 0 -17 3q-24 8 -38 25
q-14 16 -19 40q-2 10 -2 16q0 16 7 30q10 21 31 34q26 15 73 15q43 0 90 -9q59 -12 103 -26q54 -17 101 -36l98 -36q61 31 118 44q19 4 37 5q28 2 45 2q32 -2 47 -5q23 -5 40 -14q18 -12 26 -26q5 -12 5 -24q0 -5 -2 -17q-5 -24 -23 -35q-23 -13 -57 -13q-20 0 -44 3
q-23 3 -60 13q-27 7 -56 17l-43 14q-108 -62 -179 -144q-75 -84 -129 -191q30 2 44 4q8 1 22 1t21 -1q22 -3 37 -13q17 -11 26 -36q1 -2 1 -5q0 -7 -8 -10l-5 -1q-8 0 -11 8q-7 19 -23 26q-14 6 -37 8q-14 0 -42 -2l-38 -4l-51 -106q-20 -44 -55 -108q-29 -52 -65 -101
q-33 -47 -78 -89q-22 -20 -46 -35q-27 -18 -57 -27q-23 -8 -50 -8q-37 0 -63 23q-12 10 -16 23q-6 18 -7 28q-1 5 -1 15q0 11 1 16q1 10 5 28q5 11 15 8zM832 851l33 -10q18 -6 46 -13q23 -7 50 -12q30 -5 48 -4q22 0 36 7q15 6 19 22q2 10 2 13q0 16 -13 26q-19 11 -43 14
q-31 2 -52 -2q-34 -6 -41 -8q-43 -11 -85 -33z" />
    <glyph glyph-name="G" unicode="G" horiz-adv-x="659" 
d="M652 788q0 -5 -3 -8q-4 -3 -9 -3q-37 1 -60 -9q-22 -10 -32 -25q-8 -13 -7 -24q0 -12 6 -23q6 -10 17 -18q12 -9 23 -11q12 -3 25 -3q17 0 33 4q31 7 65 26q31 18 62 44q28 25 50 55q20 27 31 59q6 15 6 31q0 8 -4 24q-6 20 -23 31q-14 9 -38 14q-20 2 -31 2
q-18 0 -48 -5q-69 -10 -135 -41q-68 -31 -126 -73q-57 -41 -112 -98q-58 -62 -97 -115q-17 -23 -46 -70q-25 -41 -55 -104q-26 -56 -48 -119q-26 -80 -26 -139q0 -37 9 -69q11 -42 35 -63q26 -24 66 -24q37 0 83 28q35 21 72 54q33 28 74 72q38 39 72 84q32 40 66 89
q31 43 57 87q23 37 43 78q1 7 11 7h50q7 0 10 -5q3 -4 1 -11q-22 -72 -65 -161q-43 -87 -93 -174q-42 -74 -103 -168l-100 -145q-3 -5 -10 -5h-50q-8 0 -11 7t2 12q81 112 156 237q78 130 136 248q-15 -23 -64 -89q-32 -43 -74 -90q-43 -49 -81 -82q-45 -40 -87 -65
q-49 -29 -94 -37q-16 -3 -32 -3q-27 0 -51 9q-38 14 -63 45q-26 32 -35 79q-4 20 -4 50q0 56 15 111q13 46 33 97q23 57 44 95q22 42 50 87q31 50 50 75q22 32 44 57q39 45 99 98q57 49 118 87t132 64q76 28 148 28q21 0 33 -1q25 -1 49 -9q20 -7 42 -22q17 -13 25 -38
q4 -13 4 -31q0 -19 -5 -34q-10 -34 -33 -67q-22 -30 -56 -61q-36 -31 -69 -49q-41 -21 -73 -28q-16 -4 -34 -4q-19 0 -32 4q-18 4 -32 17q-16 11 -23 27q-8 16 -8 33q0 16 11 35q14 20 40 33q27 14 72 12q12 0 12 -13z" />
    <glyph glyph-name="H" unicode="H" horiz-adv-x="977" 
d="M951 965l1 -4q0 -7 -6 -10q-31 -18 -65 -53q-30 -32 -58 -75q-27 -38 -52 -87q-23 -41 -46 -93q-19 -39 -40 -90l-34 -80q13 -1 39 -1l39 -3q34 72 78 143q40 64 97 138q49 62 113 124q59 58 124 103l8 2h49q9 0 12 -9v-3q0 -8 -6 -11q-63 -44 -121 -100
q-59 -57 -110 -122q-48 -59 -95 -135q-48 -78 -76 -139l41 -9l30 -10q10 -6 6 -16q-6 -10 -16 -6q-23 11 -72 18q-7 -14 -23 -56q-17 -44 -25 -74q-13 -46 -20 -82q-6 -34 -6 -66q0 -43 16 -80q14 -31 44 -45q18 -9 37 -9q11 0 21 3q31 8 56 25q26 17 49 40q20 20 37 42
q4 4 9 4q2 0 8 -2q3 -2 5 -8q2 -4 -3 -9q-19 -24 -49 -54q-23 -23 -56 -41q-34 -18 -65 -22q-9 -2 -27 -2q-21 0 -44 6q-46 12 -69 41q-25 29 -32 69q-6 26 -6 53q0 10 2 32q5 48 16 90q9 40 26 85q12 37 27 68l-39 3q-13 1 -40 1q-28 -65 -64 -139q-34 -69 -70 -113
q-29 -38 -74 -82q-42 -39 -92 -68q-47 -27 -104 -38q-19 -4 -42 -4q-35 0 -68 10q-47 13 -80 46q-32 31 -46 74q-7 21 -7 47q0 47 28 93q37 60 103 97q66 38 145 60q77 22 160 31q95 9 146 10l56 130q32 73 69 144q38 71 84 132q48 61 100 92l6 2h49q9 0 12 -8zM502 317
q24 46 62 132q-57 -2 -88 -5q-32 -3 -98 -13q-58 -10 -101 -22q-45 -12 -96 -34q-45 -21 -81 -48q-37 -28 -59 -65q-24 -37 -24 -78q0 -31 12 -58q14 -33 41 -54q29 -24 63 -34q15 -5 37 -5q26 0 47 8q44 14 86 42q45 32 76 64q36 35 58 64q32 42 65 106z" />
    <glyph glyph-name="I" unicode="I" horiz-adv-x="591" 
d="M750 940q18 -24 26 -57q5 -23 5 -46q0 -14 -1 -22q-4 -36 -12 -73q-6 -28 -19 -70l-21 -60q-10 -30 -27 -67q-13 -30 -38 -76q-30 -54 -47 -81q-23 -38 -54 -82q-44 -63 -89 -118q-50 -62 -107 -106q-58 -47 -126 -69q-40 -15 -86 -15q-24 0 -61 7q-54 10 -75 47
q-19 30 -19 67q0 11 1 16q1 4 1 12q0 4 2 12q3 12 14 10q12 -3 10 -15q-3 -16 -3 -32q0 -27 9 -48q14 -35 65 -46q17 -3 32 -3q32 0 64 12q47 18 90 51q40 29 80 72q36 39 63 72q43 53 74 100q42 64 65 103q32 55 53 99q22 45 36 86l15 43q15 51 16 55q9 37 14 62q5 32 6 60
q0 29 -6 53q-7 24 -24 39q-24 21 -61 21q-26 0 -50 -7q-32 -9 -57 -25q-24 -14 -45 -34q-38 -36 -52 -68q-9 -22 -9 -40q0 -36 27 -51q16 -8 30 -8q29 0 57 24q21 19 31 52q2 5 6 8q4 2 9 0q11 -3 8 -15q-14 -45 -41 -66q-29 -23 -60 -26q-5 -1 -13 -1q-25 0 -44 13
q-26 17 -33 52q-1 5 -1 15q0 23 10 50q13 35 59 78q19 18 51 37q35 19 64 28q45 15 84 15q25 0 47 -8q38 -12 57 -36z" />
    <glyph glyph-name="J" unicode="J" horiz-adv-x="793" 
d="M885 968q20 -8 33 -19q13 -12 21 -29q4 -11 4 -27q0 -10 -1 -15q-13 -112 -48 -231q-35 -123 -85 -237q-31 -70 -82 -165q-44 -82 -105 -164q-63 -86 -125 -149q-68 -68 -143 -116q-31 -20 -73 -40q-42 -19 -83 -29q-43 -11 -84 -12q-40 0 -75 15t-59 48q-25 35 -32 90
q-3 19 -3 43q0 45 8 81q8 35 18 64q12 31 29 59q27 46 73 76q34 22 78 22q7 0 25 -2q10 -1 10 -11q0 -14 -13 -12q-7 1 -21 1q-26 0 -47 -9q-32 -14 -55 -38t-40 -60q-15 -29 -27 -71q-10 -35 -13 -74q-2 -41 2 -66q8 -57 31 -86t53 -39q16 -5 39 -5q19 0 29 2q40 8 74 23
q42 19 72 38q40 26 62 42q108 81 195 194q86 111 157 248q40 78 69 149t55 153q23 72 40 151q16 75 24 146q3 28 -32 42q-31 10 -73 9q-46 -3 -86 -13q-50 -12 -85 -25q-36 -13 -69 -29q-73 -35 -113 -75q-42 -42 -58 -78q-18 -39 -15 -72q1 -32 17 -55q16 -24 38 -31
q9 -3 18 -3q13 0 29 8q28 15 40 40q11 25 11 52t-9 56q-11 30 -25 51q-2 4 -2 7q0 8 5 9q3 2 8 2t9 -5q17 -26 28 -60q9 -30 9 -58q0 -37 -15 -69q-15 -29 -48 -47q-19 -10 -39 -10q-12 0 -22 3q-30 7 -50 34q-21 27 -25 64q-2 14 -2 20q0 28 13 64q16 43 62 90
q42 44 125 85q73 36 160 56q53 12 106 12q35 0 63 -4q20 -3 40 -9z" />
    <glyph glyph-name="K" unicode="K" horiz-adv-x="730" 
d="M440 504q28 21 57 38q32 18 60 27q10 3 20 3q17 0 26 -8q8 -7 8 -22q0 -22 -12 -52q-8 -22 -28 -59l-38 -69l-36 -65l-34 -67q-16 -33 -27 -63q-13 -34 -17 -57q-2 -9 -2 -24q0 -16 4 -27q8 -19 24 -27q18 -8 40 -7q25 0 50 7q28 6 56 18q22 8 54 25q26 14 48 30
q21 14 37 30q4 4 9 4q6 -2 8 -4t4 -8q0 -5 -4 -9q-13 -13 -39 -32q-29 -20 -51 -31q-30 -16 -58 -27q-27 -11 -58 -19q-36 -8 -71 -11q-41 -2 -68 9q-31 11 -48 36q-11 17 -11 43q0 13 3 29q4 26 17 59q14 37 28 66q22 44 35 67l36 67l40 73q16 30 28 60l3 13q0 7 -8 7
q-9 2 -30 -12q-16 -10 -45 -32l-46 -35q-24 -18 -36 -23l-58 -89l-55 -85l-92 -139q-39 -59 -70 -90q-8 -8 -20 -16q-8 -7 -24 -10q-5 -1 -14 -1q-10 0 -15 2q-15 5 -23 14q-8 10 -13 25q-2 10 -2 16q0 5 2 17q2 15 6 31l10 35q19 60 54 139q35 78 81 162q48 90 97 168
q53 84 105 156q53 72 103 127q46 52 91 80l6 2h50q10 0 11 -9v-3q0 -8 -6 -11q-44 -27 -95 -83q-51 -55 -102 -129q-52 -73 -102 -156q-49 -81 -94 -166q-40 -76 -76 -156q-35 -76 -51 -130q-20 -67 -17 -90q2 -8 5 -9q4 -2 8 1q2 0 8 7l7 7q22 25 62 85l171 264
q44 66 90 132l90 122q47 61 92 109q47 50 93 87q50 40 91 58q43 19 82 19q45 0 86 -28q5 -3 5 -8q0 -3 -2 -9q-2 -3 -7 -5t-10 2q-34 24 -73 24q-40 -2 -80 -21q-43 -20 -86 -57q-50 -43 -88 -85q-50 -55 -88 -105q-50 -65 -86 -117l-23 -34q12 10 38 29z" />
    <glyph glyph-name="L" unicode="L" horiz-adv-x="898" 
d="M406 428q0 10 11 10t13 -11q2 -37 24 -54q21 -16 56 -18q42 65 87 144l94 156q46 75 99 148q49 68 105 119q11 10 33 25q15 10 42 23q23 11 44 15q12 3 23 3q5 0 15 -2q18 -5 28 -18q9 -13 9 -36q0 -48 -27 -111q-26 -55 -69 -119q-44 -62 -97 -121q-52 -59 -110 -111
t-110 -85q-57 -36 -97 -46q-58 -88 -98 -140q-49 -65 -102 -111q73 -27 130 -44q71 -21 139 -21q62 0 124 24q65 24 126 88q4 4 9 4q6 -2 8 -4t4 -8q0 -5 -4 -9q-65 -67 -133 -97q-73 -33 -144 -37q-11 -1 -32 -1q-57 0 -121 14q-76 17 -156 53q-29 -18 -61 -30
q-31 -12 -69 -17q-19 -3 -38 -3q-11 0 -33 2q-36 3 -66 16q-19 8 -38 23q-16 13 -25 30q-7 17 -9 33q0 18 10 31q15 23 39 30t46 7q36 0 68 -8q33 -8 62 -18l57 -19q26 -10 45 -15q52 48 97 105q44 59 81 115q-39 4 -63 28q-24 23 -26 65v3zM852 780q-40 -55 -89 -135
l-85 -142q-34 -61 -80 -133q35 12 87 49q43 30 101 83q54 51 101 105q43 48 89 113q37 55 64 111q23 51 25 95v4q0 24 -17 24q-13 0 -33 -10q-21 -12 -40 -28l-27 -24q-51 -49 -96 -112zM164 123q-33 11 -63 18q-15 3 -27 3q-15 0 -24 -4q-24 -7 -32 -21q-4 -7 -4 -16
q0 -4 2 -12q5 -15 20 -29q17 -15 35 -22q30 -12 57 -15q6 -1 18 -1q17 0 32 3q25 5 47 18q23 12 48 30l-47 22q-34 16 -62 26z" />
    <glyph glyph-name="M" unicode="M" horiz-adv-x="1048" 
d="M321 345q0 -9 -5 -10q-4 -3 -7 -3q-5 0 -10 7q-16 27 -46 34q-13 3 -27 3q-15 0 -37 -5q-36 -11 -69 -34q-34 -25 -58 -61q-23 -36 -34 -84q-5 -23 -5 -42q0 -27 8 -59q8 -28 21 -38q14 -12 30 -12t35 9q20 8 36 21q60 44 116 113q55 67 107 148q44 69 97 166l87 166
l38 73q24 48 49 91q20 35 55 85q29 40 57 56q15 11 34 15q15 4 36 2q19 -3 31 -13q14 -11 20 -31q5 -20 5 -44q-2 -39 -5 -59q-2 -16 -13 -70q-7 -37 -18 -75l47 53q28 31 61 61q32 29 66 51q41 28 80 28q21 0 36 -8q28 -16 28 -63q0 -28 -9 -61q-13 -49 -34 -94
q-24 -53 -51 -104l-61 -109l-53 -96q-30 -56 -47 -93q-22 -47 -36 -87t-19 -77q-1 -7 -1 -21q0 -29 12 -41q6 -6 18 -6q14 0 41 11q14 6 37 20q12 8 34 26q11 9 29 27q13 13 21 24q3 5 8 5q3 0 9 -2q4 -4 5 -7q2 -5 -2 -10q-7 -11 -22 -26q-16 -16 -32 -29q-12 -10 -38 -28
q-17 -12 -39 -22q-29 -13 -51 -13q-21 0 -33 11q-22 19 -22 60q0 6 2 24q5 38 19 80q17 48 37 89q18 41 48 95l54 97l59 107q27 49 51 101q21 48 33 90q9 32 9 57q0 46 -22 41q-16 -1 -42 -20q-29 -21 -55 -45q-41 -39 -62 -62l-61 -68l-55 -66q-25 -31 -42 -54l-26 -82
q-10 -30 -32 -90q-16 -44 -36 -88q-18 -39 -41 -76q-6 -9 -18 -25q-9 -12 -22 -23t-26 -17q-12 -5 -21 -5q-29 0 -38 20q-10 17 -10 42q0 9 4 33q4 17 11 33q51 103 121 203q71 100 143 187q18 65 23 86q5 20 17 80q8 46 8 78q0 18 -4 40q-6 20 -20 20l-9 -2q-17 -5 -38 -30
q-23 -26 -46 -65q-18 -29 -53 -93l-59 -113l-88 -167q-46 -87 -99 -168q-53 -83 -109 -151q-55 -68 -119 -115q-42 -31 -80 -42q-20 -5 -36 -5q-14 0 -31 5q-31 11 -48 41q-22 35 -22 99q0 42 14 84q16 45 47 80q27 33 66 56q38 21 74 27q9 2 27 2q22 0 41 -6q32 -11 51 -42
q1 -2 1 -6zM710 342l48 133l-43 -64q-24 -33 -48 -74q-19 -31 -43 -77q-21 -41 -28 -69q-3 -12 -3 -19q0 -6 3 -8h2q6 0 15 9q10 10 22 25l14 19q37 59 61 125z" />
    <glyph glyph-name="N" unicode="N" horiz-adv-x="833" 
d="M322 342q0 -3 -1.5 -5.5t-4.5 -3.5q-4 -2 -7 -2t-5.5 1.5t-3.5 4.5q-16 25 -45 33q-13 3 -27 3q-15 0 -37 -5q-34 -9 -69 -33q-35 -25 -59 -60q-24 -34 -35 -83q-4 -17 -4 -40q0 -28 8 -63q8 -32 20 -43q14 -12 30 -11q16 0 35 10q15 9 37 24q52 37 102 101q50 62 96 138
q42 67 89 157l82 159l23 46l31 60l35 66q16 31 38 63q19 28 40 52q19 22 38 32q25 12 48 12q13 0 28 -5q36 -14 46 -59q7 -26 8 -53q1 -19 1 -59l-3 -59l-5 -54l47 77q27 44 63 91q35 45 72 81q39 37 74 47q27 8 46 8q33 0 55 -22q15 -15 25 -43q8 -24 13 -59q1 -4 -2 -9
q-3 -4 -8 -4h-3q-10 0 -11 10q-6 54 -20 77q-14 22 -36 20q-25 -3 -56 -31q-35 -31 -65 -70q-33 -42 -66 -93q-34 -52 -63 -102l-53 -93l-38 -70q-6 -38 -20 -111q-15 -67 -30 -124q-15 -54 -40 -117q-22 -54 -52 -92q-19 -24 -41 -31q-12 -5 -27 -5q-11 0 -16 2
q-19 4 -28 26q-4 8 -4 21q0 15 6 34q12 36 35 94q28 70 52 122q30 66 66 138l75 143l19 34l5 40l3 24q5 35 6 72q1 18 1 52q0 45 -8 82l-4 15q-1 7 -6 13t-10 9t-15 1q-17 -4 -39 -31q-17 -21 -47 -68q-18 -29 -53 -96l-59 -115l-82 -161q-37 -70 -91 -159q-42 -67 -98 -140
q-50 -63 -105 -103q-32 -22 -60 -34q-33 -14 -61 -14q-30 0 -54 18q-25 18 -35 63q-4 18 -5 27l-3 25q-3 54 15 99q16 43 47 79q27 33 67 55q38 21 74 27q16 2 24 2q24 0 44 -7q31 -10 49 -41q2 -4 2 -7zM736 299l-43 -99l-9 -22q-13 -29 -25 -61q-16 -43 -20 -62
q-2 -10 -2 -14q0 -7 3 -9q1 -1 3 -1q3 0 7 3q6 5 18 21q20 28 41 75q17 39 34 92q17 54 26 97q4 16 5 24l14 65q-20 -39 -52 -109z" />
    <glyph glyph-name="O" unicode="O" horiz-adv-x="567" 
d="M776 899q11 -33 11 -68q0 -37 -9 -76q-8 -34 -23 -76q-14 -39 -30 -71l-21 -39q-3 -6 -5.5 -10.5t-4.5 -8.5q-32 -55 -78 -127q-37 -55 -95 -131q-55 -70 -105 -121q-57 -58 -109 -96q-66 -48 -128 -66q-24 -7 -49 -7q-36 0 -67 16q-33 17 -46 48q-16 33 -17 69
q-1 8 -1 23q0 30 7 70q9 46 18 81q11 41 32 102q18 52 47 111q30 61 61 110q35 56 73 98q42 45 87 77q49 33 97 46q35 35 74 64q40 31 84 47q37 17 84 17q40 0 73 -27q27 -22 40 -55zM494 853q1 -2 1 -6q0 -6 -4 -10q-5 -3 -10 -2q-10 2 -16 2q-11 0 -31 -5q-32 -32 -68 -74
q-43 -51 -71 -91q-41 -56 -69 -101q-33 -50 -60 -106q-28 -54 -44 -104q-17 -49 -22 -96q-2 -20 -2 -28q0 -37 13 -60q18 -30 46 -30q26 0 53 23q28 24 48 72q5 11 15 6q10 -6 6 -16q-22 -58 -60 -85q-31 -24 -60 -24q-40 0 -66 41q-18 27 -18 74q0 10 2 30q5 48 20 93
q18 54 41 100q26 55 54 100q34 56 63 97q33 46 66 87q37 45 63 74q-61 -28 -117 -88q-54 -58 -98 -133q-42 -71 -75 -151q-31 -76 -48 -140l-8 -36l-9 -50q-5 -30 -5 -71q0 -21 3 -39q5 -26 16 -42q10 -17 32 -22q8 -2 26 -2q31 0 58 11q39 15 88 49q55 39 107 93
q55 58 102 118q39 49 92 127q38 58 75 124q15 26 39 76q22 45 35 92q16 53 16 99q0 42 -20 76q-18 31 -48 40q-12 3 -23 3q-22 0 -39 -8q-31 -13 -63 -35q-31 -21 -57 -45h12q4 0 10 -2q7 -2 9 -5z" />
    <glyph glyph-name="P" unicode="P" horiz-adv-x="833" 
d="M455 541q5 0 10 -5q2 -6 2 -7q0 -5 -5 -10q-45 -32 -89 -32q-36 0 -60 17q-27 18 -39 53q-7 17 -7 40q0 16 5 39q15 66 59 127q44 58 102 105q58 44 128 75q71 31 135 38q46 4 65 4q36 0 78 -10q57 38 124 52l13 2h21l20 -3q8 -3 10 -8v-3q0 -10 -10 -11
q-64 -14 -118 -52q59 -32 92 -84q33 -56 40 -120q3 -22 3 -45q0 -40 -11 -84q-16 -62 -51 -115q-36 -52 -89 -87q-55 -35 -120 -44q-24 -4 -55 -2q-25 1 -48 13q-21 10 -34 31q-13 19 -13 55q0 12 12 12q5 0 9 -3q3 -4 3 -9q0 -45 25 -60q19 -13 47 -13q58 0 106 34
q39 28 70 69q28 38 49 89q20 48 24 94q2 24 2 35q0 50 -17 99q-22 64 -86 102q-46 -42 -82 -90q-41 -56 -73 -110q-40 -68 -67 -123l-64 -128l-39 -82q-30 -60 -47 -91q-28 -50 -54 -92q-27 -45 -62 -84q-38 -43 -71 -68q-40 -30 -81 -43q-25 -7 -59 -12q-8 -1 -23 -1
q-20 0 -41 3q-30 6 -57 23q-25 16 -36 48q-6 17 -6 35q0 13 5 31q3 11 9 21q13 21 34 32q15 7 35 7q27 0 46 -15q19 -14 26 -39q2 -4 0 -9q-3 -4 -8 -6t-9 1q-4 1 -6 7q-6 18 -18 27q-14 10 -27 11h-5q-14 0 -24 -6q-15 -8 -23 -22t-10 -33v-6q0 -11 4 -29q8 -22 21 -32
q13 -11 32 -16q12 -3 27 -3q26 0 48 6q57 15 104 58q47 44 90 105q44 64 81 137l142 286q35 68 69 125q36 61 76 112q39 52 85 91q-32 8 -54 11q-20 2 -29 2q-66 0 -146 -35q-67 -31 -121 -75q-56 -44 -99 -101q-41 -56 -55 -116q-4 -16 -4 -34t5 -31q10 -30 31 -43
q23 -14 54 -11q31 1 67 27q6 2 7 2z" />
    <glyph glyph-name="Q" unicode="Q" horiz-adv-x="567" 
d="M284 -101q37 -18 70 -26q16 -4 35 -4q20 0 35 4q16 4 29 10q11 5 29 19q14 12 18 25q1 3 1 8q0 11 -7 21q-8 11 -26 17q-17 6 -48 4h-2q-10 0 -11 11q0 11 12 13q39 2 60 -7q23 -8 34 -23q12 -17 12 -31q0 -23 -21 -47q-15 -16 -36 -30q-14 -9 -38 -20q-42 -17 -79 -17
q-17 0 -32 3q-55 11 -100 37q-50 28 -90 61q-44 35 -80 58q-47 30 -78 30q-26 0 -53 -30q-5 -5 -9 -5t-8 4q-3 2 -5 8q0 5 4 9q32 37 61 47q20 7 41 7q7 0 21 -2q-12 19 -16 38q-6 28 -7 44q-1 8 -1 23q0 30 7 70l17 81q11 41 32 102q18 52 47 111q30 61 61 110q38 58 74 98
q44 47 86 77q49 34 98 46q34 34 73 64q40 31 84 47q38 17 85 17q40 0 73 -27q27 -22 40 -55q11 -33 11 -68q0 -37 -9 -76q-10 -37 -24 -76t-30 -71l-21 -39q-3 -6 -5.5 -10.5t-4.5 -8.5q-32 -55 -78 -127q-34 -53 -94 -131q-57 -72 -106 -121q-57 -58 -109 -96
q-43 -32 -92 -53q-49 -20 -88 -19q12 -8 18 -13l16 -12l58 -41q34 -23 66 -38zM493 853q1 -2 1 -6q0 -6 -4 -10q-3 -3 -9 -2q-10 2 -16 2q-12 0 -32 -5q-35 -35 -67 -74q-43 -51 -71 -91q-41 -56 -69 -101q-33 -50 -60 -106q-28 -54 -44 -104q-17 -49 -22 -96q-2 -20 -2 -28
q0 -37 13 -60q18 -30 46 -30q26 0 52 23q29 24 48 72q3 7 9 7q8 0 12 -5t1 -12q-22 -58 -60 -85q-31 -24 -61 -24q-40 0 -66 41q-17 27 -17 76q0 18 1 28q5 44 21 93q17 51 40 100q28 57 55 100q34 56 63 97q29 43 65 87q37 45 63 74q-61 -28 -117 -88q-54 -58 -98 -133
q-39 -66 -74 -151q-31 -76 -48 -140l-8 -36q-4 -17 -10 -50q-5 -30 -5 -71q0 -21 3 -39q5 -26 16 -42q10 -17 33 -22q8 -2 26 -2q31 0 58 11q41 15 87 49q55 39 107 93q55 58 102 118q39 49 92 127q38 58 75 124q13 24 30 57q2 4 4.5 8.5t5.5 10.5q22 45 35 92q15 50 15 99
q0 42 -20 76q-18 31 -48 40q-12 3 -23 3q-22 0 -39 -8q-31 -13 -63 -35q-32 -21 -57 -45h12q5 0 11 -2q7 -2 8 -5z" />
    <glyph glyph-name="R" unicode="R" horiz-adv-x="872" 
d="M448 541q5 0 10 -5q2 -3 2 -8t-5 -9q-44 -30 -81 -31q-39 -3 -67 15q-28 17 -40 53q-7 17 -7 40q0 17 5 40q16 67 60 127q42 58 104 106q61 45 130 75q72 29 137 35q26 2 41 2l29 -1q28 -1 67 -10q33 21 63 35q36 15 69 22q-1 0 15 2q4 1 11 1t10 -1q14 -2 20 -4
q8 -3 8 -10q0 -11 -10 -12q-35 -7 -66 -21q-32 -15 -60 -36q39 -20 64 -48q29 -32 43 -62q17 -35 24 -73q7 -36 7 -79q0 -58 -30 -117t-78 -104q-48 -46 -107 -72q-48 -22 -98 -22q-14 0 -21 1q-12 -58 -11 -52l-14 -69l-15 -76q-7 -39 -9 -74q-2 -26 -2 -38l1 -25
q2 -28 12 -42q12 -18 29 -21q4 -1 11 -1q13 0 22 4q18 8 31 20q16 14 25 26q3 5 8 5q3 0 9 -2q2 -2 4 -8q1 -4 -2 -9q-22 -28 -48 -45q-29 -17 -72 -17q-39 0 -68 24q-34 27 -35 73q-1 10 -1 29q0 33 4 61q7 49 16 91q6 30 20 90q9 39 16 89q-10 11 -15 26q-6 17 -6 33v5
q0 15 6 25q6 13 23 19q9 3 17 3q11 0 19 -6q14 -11 21 -30q8 -20 9 -42v-13q0 -18 -1 -25q57 11 103 39q47 29 81 69q32 39 52 93q19 50 19 107q0 64 -25 118q-26 55 -79 89q-40 -38 -79 -90q-38 -51 -72 -108q-30 -50 -65 -121l-63 -126l-46 -95q-26 -53 -56 -106
q-35 -60 -67 -104q-39 -53 -79 -88q-42 -38 -93 -61q-44 -20 -100 -20q-44 0 -72 16q-26 13 -42 35q-15 18 -20 44q-2 12 -2 19q0 9 4 27q6 18 20 34q13 15 35 22q12 4 25 4q17 0 35 -8q27 -15 37 -46q2 -6 0 -9t-7 -5t-9 0q-6 2 -7 7q-8 23 -25 33q-12 5 -23 5q-9 0 -18 -3
q-27 -9 -37 -34q-6 -13 -6 -28q0 -7 4 -23q8 -26 32 -45q24 -18 63 -18q46 0 91 30q45 32 79 71q37 43 72 96q32 49 62 104q20 36 40 76q2 3 10 19l34 71l63 129q30 61 68 123q33 55 74 111q39 51 84 90q-47 14 -89 14q-66 0 -141 -33q-65 -28 -123 -74q-56 -44 -99 -101
q-43 -58 -56 -116q-4 -16 -4 -34q0 -19 5 -32q11 -29 32 -42q21 -12 44 -12q36 0 76 28q6 2 7 2z" />
    <glyph glyph-name="S" unicode="S" horiz-adv-x="683" 
d="M663 789q-1 2 -1 6q0 6 5 10q4 2 9 1q10 -3 21 -3q13 0 24 4q23 6 39 21q15 14 23 37q3 9 3 19q0 11 -5 26q-10 28 -33 39q-22 10 -52 8q-29 -3 -56 -15q-27 -11 -46 -29q-30 -30 -38 -65q-4 -17 -4 -41q0 -20 2 -30q6 -39 22 -72q12 -29 32 -67q68 -127 68 -236
q0 -37 -7 -68q-30 -139 -189 -248q-27 -18 -58 -33q-29 -15 -71 -28q-37 -12 -78 -18q-33 -6 -67 -6q-46 0 -87 12q-35 10 -64 33q-20 16 -35 41q-14 24 -20 48q-5 19 -5 46q0 35 11 74q7 27 23 58q12 24 32 49q29 35 69 57q36 21 80 29q19 4 40 4q22 0 38 -4q35 -7 60 -31
q31 -28 31 -79q0 -33 -16 -74q-1 -4 -6 -6q-4 -1 -9 0q-6 2 -7 5q-3 4 -1 10q15 38 15 66q0 10 -1 14q-6 32 -26 50q-22 19 -53 23q-16 2 -25 2q-20 0 -43 -5q-34 -7 -69 -27q-32 -18 -58 -49q-22 -28 -39 -66q-22 -50 -22 -98q0 -27 8 -56q10 -36 43 -63t69 -34
q26 -6 52 -6q17 0 25 1q44 5 81 20q45 17 79 37q33 19 70 47q32 26 55 52q50 54 76 108q28 59 28 121q0 46 -15 95q-18 56 -53 121q-16 32 -34 73q-17 39 -23 77q-2 10 -2 31q0 26 5 45q9 36 41 70q29 31 72 49q45 18 90 18q36 0 70 -16t48 -55q6 -18 6 -35q0 -12 -3 -24
q-8 -26 -29 -47q-22 -21 -50 -28q-17 -5 -30 -5q-10 0 -28 4q-5 1 -7 6z" />
    <glyph glyph-name="T" unicode="T" horiz-adv-x="610" 
d="M722 704q-38 -60 -69 -118l-63 -124l-59 -120l-50 -97q-32 -58 -65 -101q-36 -47 -84 -85q-45 -36 -107 -50q-30 -6 -65 -6q-20 0 -40 3q-26 4 -50 17q-23 12 -39 34q-11 15 -19 36q-8 20 -12 42q-4 20 -2 50q1 25 9 49q9 27 20 43q14 21 32 33q20 14 51 20q17 4 40 4
q13 0 20 -1q27 -3 54 -17q24 -14 32 -41q2 -4 0 -9q-3 -4 -8 -6l-4 -1q-8 0 -11 9q-6 19 -26 30q-21 12 -58 12q-18 0 -36 -3q-24 -6 -40 -17q-24 -17 -35 -44q-14 -29 -15 -59q-1 -7 -1 -20q0 -20 5 -43q8 -32 23 -53q15 -19 35 -30q21 -12 53 -12q18 0 34 3q19 4 43 14
q44 20 81 57q38 38 69 84q33 48 57 94l45 88l59 119q28 57 63 121q37 67 70 116q41 60 79 104l-111 36q-48 16 -119 32q-53 12 -120 17q-10 1 -30 1q-43 0 -85 -9q-75 -17 -117 -59q-44 -44 -40 -124q0 -6 -3 -9q-4 -3 -8 -3t-9 3q-4 1 -4 8q-2 53 4 91q6 43 25 73
q19 31 53 53t85 32q50 10 93 10q13 0 39 -2q71 -6 135 -22q66 -16 133 -39l127 -41q23 22 62 44q36 21 81 37q48 17 90 17q39 0 67 -21q24 -16 26 -42q0 -25 -15 -49q-24 -40 -59 -57q-44 -22 -97 -22q-30 0 -62 6q-32 5 -80 19q-42 -50 -77 -105zM1029 949q-33 0 -76 -19
q-28 -12 -61 -34q-34 -25 -46 -37l58 -13q35 -8 66 -8q32 -1 63 8q29 9 47 35q9 14 9 28t-17 26q-20 14 -43 14z" />
    <glyph glyph-name="U" unicode="U" horiz-adv-x="642" 
d="M101 798q4 0 7 -5q3 -4 3 -7q0 -4 -5 -9q-31 -24 -62 -24q-23 0 -46 13q-23 14 -33 38q-7 15 -7 36q0 11 1 17q6 29 33 60q26 29 81 55q29 14 64 21q29 6 58 6q43 0 76 -17q29 -15 44 -49q16 -32 16 -73q0 -54 -24 -128q-20 -60 -48 -122l-60 -127l-40 -82
q-28 -57 -44 -101q-20 -54 -32 -103q-9 -34 -9 -63q0 -11 2 -27q4 -33 17 -47q12 -15 28 -16h5q14 0 28 7q16 8 36 23q22 18 33 29q24 26 26 29q33 38 66 85t70 106l71 117l71 120l121 212l67 127q25 46 43 74q3 7 10 7h50q6 0 11 -6q4 -6 0 -13q-19 -31 -42 -73l-56 -104
l-64 -126l-65 -137q-31 -70 -60 -138q-28 -66 -48 -128q-20 -56 -31 -108q-11 -50 -8 -77q1 -21 11 -32q9 -11 21 -12q3 -1 11 -1q14 0 32 8q20 9 43 29q20 15 39 38q15 16 30 35q5 5 8 5t9 -4q9 -8 2 -16q-3 -3 -37 -43q-16 -18 -43 -40q-23 -17 -50 -30q-28 -15 -62 -15
q-19 0 -36 6q-19 9 -31 25q-13 16 -17 36q-3 17 -3 33q0 30 13 80q9 39 24 84q14 43 33 93l8 19q16 43 33 80l12 26l-54 -91l-58 -93l-61 -91q-38 -52 -64 -82q-18 -20 -31 -33q-17 -17 -40 -35q-24 -18 -46 -30q-23 -13 -46 -16q-5 -1 -14 -1q-15 0 -30 6q-20 7 -38 34
q-23 33 -23 86q0 39 12 87q9 37 29 88q13 32 41 94l93 196q26 57 41 96q20 52 29 89q11 44 11 79q0 42 -13 68q-14 27 -36 37q-20 9 -43 9q-33 0 -81 -21q-47 -21 -69 -45q-23 -25 -30 -48q-2 -6 -2 -18q0 -13 4 -24q7 -18 24 -29q15 -9 33 -9q24 0 49 18q5 3 9 3z" />
    <glyph glyph-name="V" unicode="V" horiz-adv-x="390" 
d="M-3 799q4 0 9 -5q4 -4 4 -8t-4 -8q-29 -26 -59 -24q-30 0 -52 16q-23 16 -35 43q-8 17 -8 40q0 11 1 17q6 31 33 59q28 28 84 46q17 5 51 11q22 4 54 2q23 -1 53 -10q26 -9 46 -25q34 -27 48 -74q12 -43 12 -94q0 -67 -13 -133q-13 -69 -28 -124q-17 -60 -33 -111
l-29 -85q-3 -7 -5.5 -16t-5.5 -18l-17 -51q-10 -28 -18 -60q-10 -37 -14 -59q-6 -30 -5 -51q0 -21 8 -32q6 -6 15 -5q10 0 19 4q9 3 18 9q3 2 6.5 4.5t6.5 5.5q41 34 81 88q40 56 78 121q50 90 76 143l75 152l75 146q37 70 75 129q35 54 77 97q39 40 80 54q5 2 9 0
q5 -3 6 -7q1 -2 1 -6q0 -6 -6 -8q-38 -14 -75 -52q-39 -42 -75 -97q-35 -54 -74 -128l-75 -146l-76 -151q-31 -64 -77 -143q-38 -66 -79 -122q-40 -54 -81 -88q-26 -19 -46 -29q-24 -12 -53 -12q-20 0 -34 11q-13 10 -19 28t-6 42q0 26 4 50q4 34 15 70q7 29 20 69l19 58
l13 37l24 74q22 70 28 93q17 61 26 102q12 62 16 102q2 17 2 48q0 30 -2 44q-4 41 -23 72q-29 48 -71 55q-15 3 -30 3q-30 0 -59 -10q-47 -15 -72 -38q-22 -22 -30 -46q-2 -6 -2 -19q0 -16 5 -26q9 -21 26 -34q17 -14 40 -12q23 0 45 19q3 3 7 3z" />
    <glyph glyph-name="W" unicode="W" horiz-adv-x="689" 
d="M-28 798q5 0 9 -4q8 -9 1 -16q-19 -18 -43 -21q-12 -2 -17 -2q-12 0 -27 5q-22 6 -39 22t-26 36q-7 21 -6 46q3 26 22 51q26 35 70 54q50 22 102 22q44 0 88 -18q45 -19 71 -64q27 -52 32 -120l1 -32q0 -46 -8 -104q-10 -67 -32 -144q-23 -82 -43 -142l-35 -114
q-16 -52 -22 -99q-4 -23 -4 -47q0 -12 2 -30q5 -32 29 -46q6 -5 18 -5q9 0 13 2q17 6 36 21q15 11 37 35q2 2 34 40q4 5 29 38l18 27q2 32 6 75q5 44 12 90q10 57 17 87q9 41 21 66q17 35 44 51q20 11 41 11q11 0 24 -3q19 -4 24 -15q2 -3 2 -13q0 -11 -2 -18
q-3 -20 -10 -41t-17 -46l-20 -45l-19 -38l-22 -41l-28 -48q-3 -45 -3 -94q0 -32 7 -72q7 -34 19 -53q13 -20 32 -16q26 4 51 30q23 23 47 58q19 28 40 68l30 58l57 119l63 133l68 136q38 74 72 130q36 61 75 114q38 52 78 86q42 39 76 39q26 0 47 -24q4 -3 4 -7t-4 -8
q-3 -3 -6 -3q-4 0 -9 5q-11 14 -29 14q-7 0 -11 -1q-25 -8 -52 -32q-39 -35 -77 -86q-41 -56 -74 -112q-34 -56 -72 -130l-67 -135l-62 -132l-56 -118l-34 -68q-17 -33 -44 -70q-23 -32 -54 -59q-28 -24 -66 -32q-7 -2 -20 -2t-20 2q-21 6 -34 17q-13 9 -25 28
q-10 16 -15 38l-3 31q-2 22 -2 33q-6 -10 -35 -47q-13 -17 -43 -47q-20 -20 -49 -37q-31 -17 -61 -17q-17 0 -32 6q-17 7 -31 21q-16 16 -22 31q-8 15 -10 37q-1 7 -1 21l2 21q4 51 23 123q16 66 39 145l30 104q12 43 29 120q18 94 18 150q0 38 -8 75q-12 50 -45 78
q-33 27 -73 33q-7 1 -20 1q-34 0 -61 -11q-40 -16 -67 -52q-20 -28 -20 -51l1 -8q5 -29 23 -45q22 -19 50 -19q25 0 46 18q2 2 7 2zM415 421q23 51 34 106q2 8 0 13q-3 5 -11 0q-14 -8 -28 -38q-10 -22 -23 -65q-9 -28 -16 -67l-9 -49q24 41 53 100z" />
    <glyph glyph-name="X" unicode="X" horiz-adv-x="974" 
d="M507 694q3 0 9 -2q11 -8 4 -17q-26 -39 -58 -46q-12 -3 -23 -3q-22 0 -39 10q-30 14 -46 48q-11 22 -11 52q0 18 2 28q5 27 18 54q15 30 32 51q21 24 43 42q23 18 49 29q37 15 75 15q30 0 51 -8q29 -10 51 -33q25 -25 37 -55q14 -32 14 -95q0 -25 -4 -81q-4 -51 -12 -100
l-13 -83l75 78l101 104l116 113q56 53 117 103q55 46 105 75t82 29q4 0 9 -3q3 -4 3 -9t-3 -8q-4 -4 -9 -4q-30 0 -78 -30q-48 -29 -106 -78q-48 -40 -118 -107l-119 -116l-104 -108l-77 -79l-8 -57l-9 -75q-5 -41 -6 -82l-1 -30q0 -26 3 -50q3 -37 12 -69q9 -31 27 -49
q17 -17 38 -21q14 -2 21 -2q8 0 22 2q21 3 44 12q17 6 39 17q31 15 63 38q30 22 49 41q4 4 9 4q6 -2 8 -4t4 -8q0 -5 -4 -9q-23 -22 -53 -43q-34 -24 -66 -41q-21 -11 -52 -21q-24 -9 -59 -14q-9 -1 -28 -1q-22 0 -32 2q-32 5 -53 19q-37 24 -50 69q-16 54 -16 123
q0 43 4 79q2 24 10 87l-134 -133q-60 -60 -128 -118q-67 -56 -121 -85q-56 -32 -107 -32q-25 0 -43 9q-20 9 -35 26q-16 17 -24 39q-6 15 -6 32q0 6 2 20q2 7 5 9t9 4q2 0 8 -2q3 -3 3 -7q-1 -5 -1 -15q0 -13 2 -20q3 -20 13 -34q8 -15 25 -26t39 -11q52 0 110 34
q59 35 122 89q60 51 130 123l136 136q6 47 15 99q10 67 14 108q8 67 8 124q0 43 -6 79q-4 25 -16 51q-10 21 -28 36q-17 13 -41 16q-24 2 -51 -10q-22 -9 -44 -26q-21 -17 -38 -38q-18 -21 -30 -45q-11 -24 -16 -49q-2 -16 -2 -22q0 -23 9 -41q12 -27 34 -39q14 -8 30 -8
q4 0 16 2q26 6 45 36q1 4 7 6z" />
    <glyph glyph-name="Y" unicode="Y" horiz-adv-x="829" 
d="M358 766q2 0 8 -2q4 -1 6 -7q2 -5 -2 -10q-19 -28 -40 -35q-11 -5 -27 -5q-11 0 -17 2q-22 4 -39 23t-23 45q-2 7 -2 23q0 21 5 38q7 31 38 70q20 24 38 37q22 16 47 25t52 9t52 -12q35 -16 54 -46q16 -28 21 -64q2 -18 2 -29q0 -14 -4 -46q-8 -41 -18 -77
q-10 -30 -26 -72l-24 -59l-33 -80q-17 -40 -29 -92q-7 -29 -7 -62q0 -11 2 -31q4 -44 37 -80q26 -29 60 -28q32 0 68 17q32 15 65 45q29 26 48 53q25 33 46 76q25 51 40 89q42 102 76 177q35 77 82 151q45 68 94 110q52 44 114 56q-2 0 24 2l35 2h36q20 0 26 -1q6 0 9 -4
q2 -6 2 -8q-2 -6 -4 -8q-4 -4 -10 -4q-8 1 -23 1q-67 0 -119 -37q-62 -43 -114 -122t-96 -183l-90 -217l-39 -98l-47 -113q-26 -59 -54 -117q-27 -55 -61 -112q-32 -52 -68 -98q-35 -44 -74 -75q-38 -29 -90 -49q-67 -23 -126 -23q-41 0 -85 11q-51 13 -92 48q-42 34 -63 78
q-21 43 -27 91q-2 24 -2 36q0 27 5 62q7 45 25 98q19 49 38 84q21 41 45 75q7 9 17 3q9 -7 3 -17q-24 -34 -45 -75q-20 -36 -37 -85q-13 -35 -24 -89q-4 -23 -4 -51q0 -12 2 -38q4 -40 25 -83q20 -40 57 -71q43 -36 92 -46q21 -4 47 -4q29 0 50 5q49 11 92 39q47 31 79 67
q75 86 133 200q55 107 109 239q-22 -29 -58 -59q-37 -30 -76 -48q-45 -20 -88 -20q-41 0 -74 23q-33 22 -47 52q-16 30 -19 67q-1 8 -1 24q0 27 4 50q6 40 18 76q7 25 25 71l24 60l33 78q13 33 25 77q12 42 12 82q0 32 -9 60q-11 32 -30 47q-19 14 -43 16q-24 0 -47 -13
q-26 -15 -44 -38q-25 -31 -32 -57q-7 -23 -7 -37q0 -29 16 -47q13 -16 28 -20q8 -2 14 -2q10 0 18 4q15 5 29 26q3 4 8 6z" />
    <glyph glyph-name="Z" unicode="Z" horiz-adv-x="947" 
d="M344 834q6 -2 7 -6q2 -4 0 -9q-7 -19 -22 -31q-18 -13 -36 -17q-15 -3 -31 -3q-30 0 -51 10q-17 9 -30 26q-12 17 -12 41q-1 31 19 58q19 25 50 42q32 18 64 26q39 8 74 8q36 0 99 -7q66 -10 127 -21l127 -27l116 -24q28 20 68 40q35 18 73 29q45 13 82 13q16 0 31 -3
q43 -10 60 -33q9 -12 9 -26q0 -12 -6 -24q-14 -27 -61 -41q-33 -9 -66 -9q-15 0 -39 2q-28 3 -53 9l-53 10q-64 -48 -111 -112q-44 -59 -78 -130q-35 -71 -59 -138q-27 -74 -54 -137q-26 -62 -64 -126q-35 -60 -87 -104q26 -17 70 -42q38 -21 78 -36q41 -17 81 -24
q28 -5 50 -5q9 0 29 2q39 4 74 26q33 19 63 61q20 29 20 53t-19 43q-15 15 -46 25q-30 8 -61 8q-7 0 -8 4q-3 5 -3 9t3 8q3 3 9 3q40 0 74 -12q35 -12 54 -34q22 -25 22 -55q0 -28 -25 -66q-45 -65 -111 -90q-51 -17 -102 -17q-11 0 -35 2q-68 7 -140 37q-66 27 -125 65
q-20 -12 -54 -24q-30 -12 -76 -22q-42 -9 -85 -12q-9 -1 -27 -1q-26 0 -54 5q-36 6 -62 24q-27 19 -31 53q-1 5 -1 14t1 13q3 17 12 33q8 15 22 29q20 19 48 28q31 11 65 11q14 0 46 -4q26 -4 53 -12q35 -10 72 -29l50 -28l18 -10q46 46 80 106q36 66 59 122l51 132
q27 71 58 132q30 62 76 125q42 58 109 111l-108 23q-47 10 -121 25q-85 15 -120 19q-60 7 -94 7q-35 0 -63 -7q-34 -8 -57 -20q-25 -13 -45 -34q-19 -21 -18 -49q0 -26 19 -39q21 -14 50 -14q21 0 38 8q21 9 29 27q5 11 15 7zM917 886l45 -8q31 -6 44 -7q10 -1 30 -1
q33 0 58 8q36 10 46 28q4 7 4 15q0 10 -7 17q-13 13 -45 16q-35 2 -79 -17q-53 -22 -96 -51zM279 156q-35 21 -78 37q-42 14 -80 14q-41 0 -70 -28q-15 -15 -22 -30q-6 -13 -6 -28q0 -34 26 -52q22 -14 51 -17q7 -1 21 -1q24 0 45 4q35 4 70 15q40 12 63 23q25 11 43 23
q-47 30 -63 40z" />
    <glyph glyph-name="bracketleft" unicode="[" horiz-adv-x="344" 
d="M158 -18q7 0 8 -4q1 -2 1 -6q0 -6 -4 -11q-4 -3 -10 -3h-89q-13 0 -9 13l128 441q3 12 15 12h89q7 0 8 -4q1 -2 1 -6q0 -6 -5 -10q-4 -4 -10 -4h-28l-121 -418h26z" />
    <glyph glyph-name="backslash" unicode="\" horiz-adv-x="300" 
d="M237 -24q-2 -2 -7 -4q-3 -1 -9 1q-6 4 -7 9l-159 419q-1 6 0 10q1 2 7 4q3 0 9 -2q4 -1 6 -8l160 -420q2 -6 0 -9z" />
    <glyph glyph-name="bracketright" unicode="]" horiz-adv-x="391" 
d="M193 400q-7 0 -8 4q-1 1 -1 5q0 6 5 11q3 4 9 4h89q13 0 9 -13l-128 -441q-1 -5 -6 -9q-4 -3 -9 -3h-89q-6 0 -8 3q-1 2 -1 6q0 6 5 11q4 4 10 4h28l121 418h-26z" />
    <glyph glyph-name="asciicircum" unicode="^" horiz-adv-x="339" 
d="M57 234q-2 2 -2 6q0 6 5 10l144 130q4 4 9 4q9 0 10 -6l50 -130q2 -4 0 -9q-4 -6 -7 -7q-6 -2 -8 -2q-5 0 -8 4l-55 87l-122 -87q-10 -7 -16 0z" />
    <glyph glyph-name="underscore" unicode="_" horiz-adv-x="301" 
d="M57 6q-2 4 -1 8q0 4 4 8t10 4h167q7 0 8 -4q1 -2 1 -6q0 -6 -4 -10t-10 -4h-167q-7 0 -8 4z" />
    <glyph glyph-name="grave" unicode="`" horiz-adv-x="148" 
d="M73 388q5 0 5 -5l10 -85v-2q0 -4 -5 -6q-8 -3 -9 3l-19 59q-2 20 13 35q2 1 5 1z" />
    <glyph glyph-name="a" unicode="a" horiz-adv-x="498" 
d="M408 263q-10 -19 -28 -59t-25 -59q-11 -27 -19 -55q-4 -13 -6 -28q-2 -10 -2 -15l1 -8q1 -9 10 -14q6 -2 10 -2t16 2q17 5 37 17q22 13 39 28q18 17 33 33q14 16 24 32q3 4 8 6q2 0 8 -2q5 -3 6 -7q2 -6 -1 -10q-12 -18 -27 -35q-11 -13 -37 -35q-19 -17 -42 -30
q-22 -13 -41 -19q-13 -4 -25 -5q-18 -2 -28 -2q-14 0 -28 3q-14 5 -21 13q-13 14 -13 42q0 18 4 35q10 36 19 58q14 36 27 64q-11 -16 -35 -48l-15 -20q-17 -22 -53 -62q-27 -31 -50 -49q-26 -21 -46 -27q-9 -2 -25 -4q-4 -1 -11 -1q-11 0 -16 1q-13 1 -26 8q-13 4 -21 15
q-18 23 -18 51t9 60q11 46 41 97q29 50 70 87q43 40 99 59q33 11 63 11q27 0 51 -7q6 -2 8 -5q2 -4 0 -9q-4 -12 -15 -9q-15 4 -31 4q-25 0 -46 -10q-37 -18 -68 -49t-54 -71q-24 -41 -36 -73q-3 -7 -6 -21q-4 -13 -6 -30q-2 -11 -4 -33v-8q0 -12 3 -21q5 -12 13 -18
q4 -3 12 -3l13 2q19 6 45 29q19 17 53 56q22 27 55 72l52 75l46 69l32 52q3 6 10 6h50q6 0 11 -5q3 -6 0 -12l-27 -56z" />
    <glyph glyph-name="b" unicode="b" horiz-adv-x="363" 
d="M53 91h-49h-2q-4 0 -8 4t-2 11l4 15l4 14q31 105 74 204q44 99 88 177q26 47 41 71l55 86q22 33 65 91q33 44 70 86q36 41 72 72q35 31 70 46q22 9 40 14q24 4 36 4q27 0 46 -12q16 -10 24 -35q2 -4 0 -9q-3 -4 -8 -6t-9 1q-4 1 -6 7q-4 15 -14 22q-10 5 -17 5
q-14 0 -28 -8q-13 -6 -23 -13q-34 -21 -63 -50q-33 -32 -66 -69q-29 -34 -64 -81l-59 -85l-51 -80q-11 -17 -40 -68q-30 -54 -50 -96q-26 -54 -47 -104q7 8 29 26q13 11 36 23q17 8 39 13q7 2 20 2q14 0 20 -2q23 -4 34 -20q8 -14 10 -35q0 -22 -7 -44q-9 -27 -16 -46
q-13 -29 -20 -41q-10 -20 -18 -30l-21 -32q-7 -11 -23 -31q36 0 73 9q36 7 71 38q3 3 7 3q5 0 9 -4q3 -4 3 -8q0 -5 -4 -9q-46 -39 -89 -46q-45 -8 -89 -6q-25 -28 -45 -47q-23 -23 -45 -33q-16 -9 -30 -10l-11 -1q-9 0 -18 3q-14 5 -22 16q-6 11 -6 25q0 24 14 38
q12 13 29 21q14 7 37 10q19 3 35 3q16 18 31 40q10 14 28 42l18 33q13 22 24 50q10 23 13 49q2 24 -14 31q-3 2 -11 2q-9 0 -17 -4q-19 -10 -32 -22q-11 -9 -29 -29q-12 -13 -19 -24q-13 -18 -24 -41q-10 -19 -18 -41l-12 -37q-8 -26 -11 -39q-2 -10 -12 -9zM116 64l-20 -3
q-8 -2 -22 -8q-10 -4 -19 -13q-7 -7 -9 -19q-1 -12 3 -12h1q2 0 10 4q27 19 56 51z" />
    <glyph glyph-name="c" unicode="c" horiz-adv-x="348" 
d="M296 298q-6 0 -10 6q-2 4 -2 7q0 6 7 10q8 5 15 13q6 6 8 16q0 6 -8 11q-2 1 -7 1q-10 0 -23 -4q-27 -7 -56 -25q-30 -20 -50 -40q-21 -20 -43 -50q-23 -32 -34 -55l-13 -32q-7 -16 -10 -37q-4 -16 -2 -37q2 -20 10 -33q12 -16 32 -21q12 -3 26 -3q10 0 15 1q19 3 43 11
q35 14 34 13q31 15 62 37q28 20 58 48q3 3 7 3q6 0 10 -4q2 -2 4 -8q0 -5 -4 -9q-24 -23 -62 -50q-34 -23 -65 -38q-27 -13 -54 -19q-34 -10 -73 -10q-27 0 -54 8q-29 9 -46 35q-15 20 -15 53q0 13 4 39q6 31 16 52q11 27 35 62q20 28 47 57q28 28 57 46q34 21 65 29
q10 3 29 6q18 3 37 3q18 -1 33 -6q14 -6 18 -21q1 -3 1 -9q0 -12 -9 -27q-12 -19 -26 -27q-6 -2 -7 -2z" />
    <glyph glyph-name="d" unicode="d" horiz-adv-x="562" 
d="M206 60q-35 -23 -66 -26q-20 -2 -30 -2q-21 0 -37 4q-31 7 -54 39q-19 30 -19 68q0 33 11 60q12 34 28 62q20 34 51 62q30 27 68 44q37 17 81 17q38 0 72 -21q20 -14 32 -25l86 167q44 82 97 160q26 39 51 74q27 37 65 84q38 45 70 78q37 37 70 57q18 12 45 21
q24 8 52 10q24 0 46 -11t29 -39q1 -3 -1 -9q-3 -4 -8 -6l-4 -1q-7 0 -10 9q-4 15 -14 22q-10 5 -18 5q-14 0 -28 -8q-13 -6 -23 -13q-33 -20 -69 -56q-36 -35 -69 -75q-30 -36 -63 -82l-51 -73q-17 -24 -47 -73q-33 -53 -63 -106q-33 -58 -63 -123q-27 -56 -50 -124
q-22 -68 -22 -118q0 -40 20 -65q15 -17 35 -17q18 -1 40 7q14 6 32 17q21 13 34 24q18 15 30 28q10 11 20 29q3 4 8 6q3 1 8 -1t6 -6q2 -6 -1 -10q-5 -11 -22 -32q-17 -19 -33 -32q-19 -16 -37 -27q-19 -12 -36 -18q-26 -10 -60 -10q-46 0 -75 21q-26 19 -37 46
q-10 25 -9 56q-34 -46 -68 -68zM299 346q-29 17 -57 14q-29 -5 -52 -19q-26 -17 -45 -40q-22 -26 -35 -48q-32 -55 -38 -94q-3 -15 -3 -29q0 -19 7 -38q8 -20 25 -28q16 -9 36 -7q34 5 56 22q22 16 39 38q15 17 28 39q11 18 21 24q6 29 22 71q18 46 29 68q-16 18 -33 27z
" />
    <glyph glyph-name="e" unicode="e" horiz-adv-x="301" 
d="M12 32q-8 12 -13 32q-3 17 -3 36q2 24 4 35q7 35 25 79q16 36 43 71q26 33 58 57t74 37q15 4 35 6l14 1q12 0 21 -3q14 -4 22 -17q3 -4 3 -12q0 -10 -6 -24q-10 -22 -37 -53q-24 -28 -64 -66q-37 -35 -69 -59q-32 -25 -55 -34q-2 -22 -2 -30q0 -19 4 -30q8 -23 25 -32
q11 -6 26 -6q5 0 17 2q24 4 57 23q24 14 35 23l31 24l26 24l18 19q4 4 9 4q2 0 8 -2q3 -2 5 -8q2 -4 -3 -9q-12 -14 -47 -46q-26 -24 -70 -50q-18 -10 -38 -17q-24 -8 -43 -11q-18 -2 -26 -2l-18 1q-22 1 -40 12t-26 25zM118 181q22 18 61 54q21 20 55 58q25 28 33 47
q2 8 -1 13t-11 3q-32 -6 -61 -29q-29 -22 -54 -53q-26 -32 -43 -65q-19 -33 -28 -64q16 9 49 36z" />
    <glyph glyph-name="f" unicode="f" horiz-adv-x="289" 
d="M516 699q-6 -24 -20 -49q-21 -39 -51 -84q-35 -52 -68 -94l-78 -98l-81 -96l-78 -86q-41 -45 -69 -71l-16 -42q7 3 15 1q7 -3 13 -9q12 -12 16 -30q6 -27 7 -36q23 6 49 20q32 17 52 31q21 15 47 39q20 19 35 40q3 4 8 6q3 0 9 -2q4 -4 5 -7q2 -5 -2 -10q-13 -20 -39 -44
q-24 -22 -51 -42q-33 -23 -57 -34q-30 -16 -54 -20q1 -30 -2 -76q-3 -42 -12 -82q-9 -41 -25 -77q-18 -38 -41 -59q-28 -25 -62 -25q-17 0 -31 7q-19 10 -33 34q-11 19 -11 45q0 29 13 92q8 39 23 92q12 41 32 99q26 68 41 103q30 71 64 140q33 69 69 132q29 52 70 117
q38 60 65 93q26 32 56 59t61 43q9 5 28 12q22 6 34 8q6 1 17 1t16 -1q16 -1 27 -11q12 -9 9 -29zM300 415q44 52 98 126q43 58 77 120q6 9 8 13l8 16q3 8 2 15q-1 6 -11 7q-25 1 -55 -18q-31 -22 -63 -58q-34 -37 -69 -90q-41 -60 -71 -112q-31 -55 -64 -121
q-42 -84 -61 -127l97 107zM78 30q-4 17 -12 24q-4 5 -8 1q-2 -2 -4 -8q-2 -8 -2 -13q0 -8 1 -10q3 -11 11 -16t18 -6zM49 -240q16 37 23 72q8 43 11 77q2 50 1 70q-20 0 -34 8q-15 10 -19 28q-14 -38 -41 -126q-19 -68 -24 -129q-1 -8 -1 -28q2 -19 5 -27q5 -11 14 -14h2
q11 0 25 14q24 22 38 55z" />
    <glyph glyph-name="g" unicode="g" horiz-adv-x="464" 
d="M424 307q-17 -32 -47 -86l-61 -106l-70 -116q58 24 113 55q54 30 105 81q4 4 9 4q6 -2 8 -4t4 -8q0 -5 -4 -9q-29 -30 -61 -52q-35 -25 -63 -41q-30 -17 -65 -33l-67 -28l-15 -24l-40 -67l-54 -87q-24 -37 -65 -96q-31 -42 -71 -88q-34 -39 -73 -68q-46 -33 -83 -33
q-20 0 -30 10q-14 14 -20 35q-5 21 -3 45q3 26 10 43q21 56 59 101q38 47 91 90q52 43 106 75q52 31 105 55l47 77l45 76q-16 -13 -36 -27q-13 -9 -39 -23q-25 -11 -54 -14q-7 -1 -19 -1q-17 0 -37 5q-27 8 -41 28q-10 14 -10 37q0 14 2 22q7 36 30 77t54 75q33 36 71 61
q38 26 76 35q12 3 37 5h10q14 0 27 -3q19 -5 34 -13q18 -11 27 -26q11 22 13 28q3 7 12 7h49q6 0 11 -5q3 -6 0 -12q-7 -19 -27 -57zM353 320q-18 40 -55 40q-11 0 -23 -3q-32 -8 -65 -33q-33 -24 -62 -58q-33 -39 -49 -71q-21 -38 -27 -69q-2 -12 -2 -17q0 -10 3 -18
q4 -13 15 -18q7 -4 19 -4q17 0 41 11q35 17 66 43q31 24 59 52l45 80q22 38 35 65zM-125 -415q30 24 58 56q33 40 57 74q14 19 54 80l75 123q-42 -20 -90 -51q-50 -32 -94 -70q-42 -37 -80 -82q-36 -46 -52 -90l-6 -20q-3 -12 -3 -23q1 -10 7 -17q4 -5 15 -5q28 0 59 25z
" />
    <glyph glyph-name="h" unicode="h" horiz-adv-x="463" 
d="M680 932q-3 -4 -8 -6l-4 -1q-8 0 -11 9q-4 15 -14 22q-10 5 -18 5q-14 0 -28 -8q-13 -6 -23 -13q-55 -33 -111 -94q-55 -58 -105 -132q-52 -76 -96 -154q-45 -82 -82 -161q-39 -82 -66 -151q-34 -88 -46 -127q33 55 43 70q16 25 40 59l29 38q21 26 40 44q20 19 45 37
q23 16 44 17h5q16 0 25 -9q10 -13 11 -29q1 -5 1 -17q0 -25 -9 -55q-11 -36 -26 -82q-15 -43 -24 -82q-4 -16 -4 -33q0 -21 7 -38q4 -11 18 -16q3 -1 9 -1q9 0 26 5q16 6 32 19q15 11 31 27q14 14 28 31l24 29q3 5 8 5t9 -3q3 -2 4 -7v-2q0 -5 -3 -8l-26 -32
q-13 -16 -30 -33q-11 -11 -33 -29q-17 -13 -36 -19q-16 -7 -41 -10l-16 -1q-15 0 -27 3q-23 7 -36 18q-19 18 -19 54q0 23 8 57q14 56 23 83l22 73q6 23 6 37q0 7 -1 10q-2 8 -10 5q-12 -7 -19 -14q-8 -7 -24 -25l-24 -27l-19 -23q-5 -7 -9 -11q-61 -83 -135 -227
q-4 -7 -11 -7h-49q-5 0 -10 5q-4 4 -2 10l16 54q8 26 21 64q20 60 56 150q28 70 74 166q42 87 87 167q43 77 100 153q51 69 108 124q57 54 115 79q23 10 40 13q18 4 41 2q18 -3 36 -14q15 -9 23 -34q2 -4 0 -9z" />
    <glyph glyph-name="i" unicode="i" horiz-adv-x="214" 
d="M184 416q-5 0 -17 2q3 0 -27 4q-5 2 -7 7t0 10l9 21q5 11 6 20q3 10 13 10h49q5 0 10 -5q3 -4 1 -11q-1 -6 -7 -25q-8 -18 -12 -25q-4 -6 -9 -7zM161 82q36 34 53 53q4 4 9 4t8 -3q3 -2 4 -7q2 -4 -3 -9q-21 -25 -55 -57q-31 -28 -56 -44q-13 -8 -28 -15q-14 -6 -34 -10
q-14 -2 -20 -2l-14 1q-15 1 -30 13q-18 15 -18 42q0 11 4 33q2 9 8 27q3 9 11 27q15 35 31 63l35 62q22 40 31 59q14 29 18 53q2 9 11 9h50q5 0 10 -5q4 -4 2 -10q-6 -27 -27 -68l-44 -84q-20 -36 -43 -84q-19 -40 -24 -71v-9q0 -13 3 -19q5 -8 13 -9h3q7 0 17 5q13 6 22 12
q18 12 53 43z" />
    <glyph glyph-name="j" unicode="j" horiz-adv-x="215" 
d="M205 418q-5 0 -17 2q-4 0 -26 4q-5 2 -7 7q-3 4 -1 10l10 21q5 11 6 20q1 10 12 10h49q6 0 11 -5q2 -4 2 -6q0 -7 -3.5 -16.5t-5.5 -13.5l-11 -25q-4 -6 -9 -7zM193 382q4 0 8 -4q4 -5 2 -12q-5 -12 -28 -57l-47 -87l-61 -106l-70 -117q65 28 113 55q54 30 105 81
q4 4 9 4q6 -2 8 -4t4 -8q0 -5 -4 -9q-28 -28 -60 -52q-35 -25 -63 -41q-33 -18 -66 -33l-67 -28l-45 -74l-58 -94q-40 -63 -67 -100q-41 -57 -73 -91q-40 -43 -74 -69q-45 -34 -83 -34q-19 0 -32 11q-16 16 -20 37q-2 8 -2 26q0 15 1 23q5 26 12 45q22 53 61 98q40 47 90 87
q48 39 104 72q54 32 102 54l55 92l53 88l84 147q38 71 46 93q3 7 12 7h49h2zM-328 -373q40 44 76 97q32 47 67 105l54 88q-41 -19 -89 -50q-49 -31 -90 -67q-45 -38 -79 -80q-35 -43 -53 -86q-7 -14 -10 -35q-1 -5 -1 -14q0 -11 2 -16q4 -12 14 -16l5 -1q9 0 26 10
q38 21 78 65z" />
    <glyph glyph-name="k" unicode="k" horiz-adv-x="440" 
d="M241 367q-8 0 -10 9v3q0 7 7 11q9 4 23 7q12 3 25 3q14 0 25 -4q12 -5 18 -14q6 -10 6 -20q-2 -13 -5 -19q-4 -9 -13 -18l-15 -14q-33 -27 -78 -49q-43 -21 -86 -39q33 -9 52 -28q16 -17 28 -43q10 -24 15 -48q4 -24 12 -44q7 -19 19 -29q8 -6 20 -6q10 0 17 2
q20 5 37 16q25 16 40 28q17 13 36 32q12 12 26 32q2 3 8 5q3 0 9 -2q3 -2 4 -7q2 -5 -2 -10q-9 -14 -29 -34q-18 -20 -39 -36q-23 -18 -43 -30q-22 -13 -42 -18q-24 -6 -42 -6q-12 0 -28 4q-26 7 -43 27t-24 46l-17 52q-8 23 -21 47q-11 20 -35 31q-32 -92 -60 -193
q-4 -9 -12 -9h-50q-5 0 -10 5q-3 4 -1 10l16 56l21 62q26 77 58 153q31 74 75 167q37 76 89 166q47 81 100 152q55 72 109 122q57 54 114 79q23 10 40 13q18 4 41 2q18 -3 36 -14q15 -9 23 -34q1 -3 -1 -9q-3 -4 -8 -6t-9 1q-3 1 -5 7q-4 15 -14 22q-10 5 -18 5
q-14 0 -28 -8q-13 -6 -23 -13q-49 -31 -96 -79q-48 -48 -95 -110q-40 -53 -88 -130q-40 -65 -78 -137q-39 -71 -66 -133q-30 -68 -48 -115l42 20q14 7 42 25q25 16 39 29q18 15 32 32q12 15 3 20q-10 5 -23 5h-2z" />
    <glyph glyph-name="l" unicode="l" horiz-adv-x="289" 
d="M683 932q-3 -4 -8 -6t-9 1q-4 1 -6 7q-4 15 -14 22q-8 5 -17 5q-14 0 -28 -8q-13 -6 -23 -13q-39 -24 -83 -74q-43 -48 -89 -115q-44 -64 -89 -139q-48 -81 -82 -145l-70 -136l-11 -22q-29 -61 -41 -87q-51 -111 -56 -160v-7q0 -10 3 -16q3 -8 10 -11q6 -3 17 -1
q14 2 21 4q16 4 46 16q22 9 52 25q24 13 49 31q23 17 34 32q3 3 9 5q4 0 8 -3q3 -2 5 -7v-2q0 -5 -3 -8q-14 -17 -37 -34q-24 -18 -51 -33q-30 -18 -56 -27q-30 -13 -50 -18q-13 -4 -26 -5q-15 -3 -30 -3q-16 0 -30 3q-15 3 -24 10q-22 16 -20 51q3 35 16 71q14 38 22 55
q1 2 19 42l54 113q32 66 72 141q56 102 86 151q49 81 94 144q45 64 94 116q47 50 88 72q15 8 42 16q20 5 38 5q25 0 49 -13q17 -10 25 -36q2 -4 0 -9z" />
    <glyph glyph-name="m" unicode="m" horiz-adv-x="639" 
d="M3 2h-48q-6 0 -11 6q-4 4 -1 11l28 58l89 178q28 56 57 122q3 8 11 8h50q6 0 11 -5q3 -6 0 -12q-14 -31 -16 -36q-5 -13 -19 -39q23 27 49 55q25 28 61 37q12 3 22 3q18 0 31 -10q17 -14 17 -40q0 -7 -1 -11q-2 -13 -10 -37q-14 -34 -23 -53l-25 -53l-20 -41l50 61
q31 39 69 78t75 69q39 30 68 31h4q15 0 23 -11q6 -9 6 -26q0 -6 -2 -22q-4 -31 -17 -63q-14 -37 -25 -60l-26 -59q-13 -28 -19 -61q-2 -14 -2 -19q0 -14 5 -22q6 -11 22 -11q20 0 43 13q19 11 42 29t39 34q22 22 29 31q4 4 9 4q2 0 8 -2q3 -2 5 -8q2 -4 -3 -9
q-17 -20 -35 -38q-19 -19 -40 -34q-18 -14 -44 -28q-26 -13 -49 -17q-19 -4 -41 -4q-21 1 -36 9q-16 8 -23 24q-5 12 -5 27q0 30 16 73q12 34 23 56l24 56q14 30 20 55l4 14l2 12q-1 4 -5 5h-2q-3 0 -11 -5q-28 -23 -67 -62q-41 -43 -67 -75l-63 -78l-57 -73q-7 -12 -22 -12
q-9 0 -16 5.5t-9 15.5l-1 11l1 13q1 11 6 22l25 49l26 58q12 25 24 58q8 21 16 52q8 30 4 37q-4 6 -14 2q-13 -7 -25 -21q-15 -15 -29 -32q-16 -17 -26 -32l-14 -19q-7 -9 -31 -44l-33 -51l-35 -70l-34 -70q-3 -7 -12 -7z" />
    <glyph glyph-name="n" unicode="n" horiz-adv-x="467" 
d="M379 343l1 -14q0 -12 -3 -24q-8 -36 -22 -65l-33 -63q-27 -51 -31 -60q-16 -32 -20 -58q-1 -5 -1 -13q0 -13 7 -16q7 -4 17 -4q7 0 11 1q13 2 34 11q14 6 25 13q38 23 61 43q27 23 42 41q4 4 9 4q2 0 8 -2q3 -2 5 -8q2 -4 -3 -9q-14 -16 -45 -43q-38 -31 -65 -46
q-18 -10 -36 -16q-21 -8 -46 -13q-13 -3 -27 -3q-13 0 -19 1q-21 3 -37 17q-11 10 -13 27l-1 12q0 10 3 19q7 25 22 56l28 54l28 53q12 23 22 56q6 20 6 30q0 11 -8 11t-22 -11l-26 -20q-24 -19 -53 -48l-49 -51l-44 -49q-20 -23 -36 -39l-53 -107q-3 -8 -11 -8h-50
q-7 0 -11 6q-3 6 1 12l26 54l30 61l68 136q24 48 49 107q3 7 11 7h50q12 0 12 -12q0 -4 -1 -5l-35 -77l-44 -89l60 62q34 33 65 59q13 11 27 20q18 13 32 19q15 7 34 12q4 1 11 1q11 0 19 -4q20 -9 21 -28z" />
    <glyph glyph-name="o" unicode="o" horiz-adv-x="355" 
d="M16 173q7 15 21 38q7 12 25 34q14 16 27 23q6 2 16 2q7 -1 16 -1q16 38 43 68q27 31 65 42q13 4 29 4q17 0 30 -4q32 -9 45 -37q8 -18 8 -37q0 -10 -1 -15q-5 -33 -16 -59q-13 -33 -28 -56q-18 -30 -29 -43q-36 -45 -83 -80q20 -11 40 -11t41 8q18 7 37 21q20 16 31 30
q12 14 22 35q3 4 8 6q2 1 8 -1q4 -1 7 -6q2 -5 -1 -10q-10 -20 -27 -40q-18 -21 -36 -35q-20 -15 -43 -23q-22 -9 -47 -9q-32 0 -61 20q-4 -3 -32 -19q-21 -11 -36 -14q-16 -2 -22 -2q-20 0 -34 7q-24 11 -34 30q-12 23 -12 52q0 18 7 44q7 22 16 38zM157 260v-2
q0 -8 -6 -11q-3 -1 -7 -5l-9 -9q-8 -27 -8 -60q0 -21 6 -42q11 -42 32 -63q20 14 44 37q18 17 40 42q10 13 24 36q15 24 26 50q12 31 16 54q2 12 2 18q0 15 -6 27q-9 20 -33 24q-8 2 -23 2q-13 0 -20 -2q-30 -7 -53 -33q-20 -23 -35 -54q9 -2 10 -9zM76 138q-13 -31 -14 -59
v-17q0 -10 3 -18q1 -8 8 -13q4 -3 12 -3q14 0 34 10q12 6 26 16q-25 28 -35 71q-7 30 -7 51l1 17q-16 -24 -28 -55z" />
    <glyph glyph-name="p" unicode="p" horiz-adv-x="464" 
d="M-570 -544q2 3 7 5q3 1 9 -1t7 -7q5 -17 14 -22q12 -4 17 -4q14 0 28 8q9 4 23 12q31 20 61 48q31 28 64 66q36 41 62 75l57 77q18 25 48 70l34 55q41 72 70 135q34 74 69 162q26 68 41 115q23 71 38 127q2 8 12 8h49q6 0 11 -5q3 -4 1 -11l-17 -57q24 17 63 34
q42 17 83 17q34 0 62 -12q29 -15 40 -57q4 -20 4 -30q0 -8 -2 -22q-4 -29 -15 -57q-10 -29 -24 -54q-10 -19 -28 -45q36 -1 77 8q38 9 69 41q4 4 9 4t8 -3q2 -2 4 -8q0 -5 -4 -9q-20 -22 -41 -33q-23 -12 -46 -17q-21 -5 -48 -7l-24 -1l-23 1q-27 -31 -54 -46
q-28 -18 -58 -16q-12 2 -21 6t-14 15q-2 5 -2 14q0 10 4 17q7 13 21 21q13 7 31 12q17 3 31 3q17 23 28 41q15 26 25 49q11 26 18 51q6 26 6 49q-2 28 -12 41t-28 16q-4 1 -13 1q-12 0 -26 -3q-24 -6 -43 -16q-25 -12 -40 -23q-19 -13 -30 -24q-43 -138 -88 -240
q-43 -98 -95 -191q-15 -26 -44 -71q-22 -34 -59 -87q-29 -41 -71 -93q-37 -46 -77 -86q-35 -36 -77 -67q-36 -28 -72 -37q-15 -4 -34 -4q-17 2 -32 6q-14 6 -27 17q-12 14 -16 30q-2 6 0 9zM214 63q-10 -1 -25 -8q-13 -7 -15 -21q18 7 40 29z" />
    <glyph glyph-name="q" unicode="q" horiz-adv-x="428" 
d="M363 262q-26 -50 -63 -115l-130 -216l-13 -20q6 -5 11 -19l5 -21q32 7 70 39q35 30 71 73q35 42 65 83l49 69q3 4 8 6q2 0 8 -2q3 -2 5 -7t-2 -10l-52 -74q-37 -50 -67 -86q-40 -45 -76 -74q-41 -33 -76 -40q2 -35 -2 -64q-4 -34 -12 -69q-9 -34 -21 -66q-14 -34 -27 -56
q-14 -23 -34 -39q-23 -15 -44 -21q-14 -2 -21 -2q-11 0 -23 3q-21 8 -34 29q-8 14 -8 34q0 10 1 15q5 33 16 68q14 40 31 76q25 53 38 76q19 37 36 66q14 26 27 46l71 118l-34 -23q-19 -12 -36 -20q-21 -10 -47 -15q-4 -1 -12 -1q-20 0 -34 11q-18 13 -22 34q-1 6 -1 18
q0 15 2 22q3 18 14 47q13 32 41 76t56 75q33 38 64 61q35 27 64 34q20 4 29 4q13 0 28 -5q26 -11 42 -38l11 21q5 9 6 15q3 7 12 7h49q6 0 11 -5q3 -6 0 -12q-21 -50 -50 -106zM311 316q-9 20 -20 30q-4 4 -13 4q-12 0 -22 -5q-28 -11 -59 -42q-31 -30 -61 -69
q-30 -40 -50 -78q-21 -40 -27 -72q-2 -12 -1 -19q0 -11 4 -18q5 -8 12 -9h4q7 0 15 4q32 17 59 38q28 21 54 45l53 95zM64 -270q-15 -32 -28 -72q-11 -33 -13 -62v-5q0 -15 7 -22q7 -6 19 -3q9 3 24 14q12 10 20 25q11 19 25 53q14 42 20 63q7 32 12 65q3 36 2 60l-14 3
q-7 2 -11 9l-30 -58q-19 -34 -33 -70z" />
    <glyph glyph-name="r" unicode="r" horiz-adv-x="334" 
d="M10 116q-5 0 -8 3q-3 1 -5 7q-2 5 3 9q30 39 41 55l40 62q6 9 37 64l32 61q-7 12 -16 38q-8 24 -8 47q-1 22 8 42q8 18 31 23l9 1q4 0 10 -2q10 -6 14 -11q5 -9 8 -17q2 -14 2 -20q0 -18 -7 -39q-9 -28 -18 -49q14 -16 27 -27l23 -20l25 -23q10 -10 13 -20v-5
q0 -8 -3 -19q-3 -9 -19 -34q-3 -3 -13 -18q-11 -14 -21 -33l-24 -40q-14 -21 -21 -42q-7 -17 -13 -38q-2 -10 -2 -14q0 -9 3 -15q6 -14 20 -14h5q10 0 23 5q10 3 28 13q14 8 18 12q20 14 29 22q9 7 24 22l19 19q3 4 10 14q3 4 8 6q3 1 9 -1q4 -2 5 -6q2 -6 -1 -10
q-1 -2 -11 -16q-9 -11 -21 -21l-26 -24q-16 -15 -31 -24q-30 -21 -61 -31q-26 -8 -49 -8q-12 0 -18 1q-27 3 -43 19q-17 15 -14 44q1 20 13 48q11 26 26 52q15 28 30 50l29 42q12 18 14 28q2 8 2 12t-2 12q-3 11 -11 22l-17 24l-19 -38l-12 -21l-37 -62q-19 -31 -39 -60
q-16 -24 -40 -53q-5 -5 -8 -4zM184 478l-2 17q-1 10 -12 8q-14 -3 -17 -14q-4 -10 -2 -26q2 -15 6 -28q5 -16 9 -22q18 39 18 65z" />
    <glyph glyph-name="s" unicode="s" horiz-adv-x="337" 
d="M248 362q0 -28 1 -43l5 -98q1 -16 1 -49q0 -31 -1 -47q-1 -43 -16 -82q22 4 48 26q25 21 51 66q3 4 8 6q2 1 8 -1q4 -2 5 -6q2 -6 -1 -10q-35 -62 -67 -84q-36 -24 -66 -25q-14 -23 -31 -40q-22 -22 -42 -34q-33 -19 -61 -19q-18 0 -37 8q-17 8 -28 25q-10 16 -15 43
q-3 28 8 56q11 27 40 38q4 2 12 2q9 0 13 -2q21 -7 29 -11l28 -15q10 -6 25 -13q10 24 13 59t3 70l-3 72l-3 62l-80 -97q-52 -63 -76 -98q-3 -5 -8 -5t-8 3q-4 1 -6 7q-2 5 3 9q43 61 85 110l89 108q0 31 3 56q1 23 8 45q9 26 27 37q12 8 29 8q19 0 31 -15q6 -9 6 -19
q0 -9 -2 -14q-5 -14 -11 -22l-15 -20q-2 -15 -2 -47zM145 17q6 6 9 14q-8 3 -19 10l-26 14q-12 7 -26 12q-11 4 -17 2q-19 -8 -27 -27q-5 -14 -5 -32q0 -25 9 -34t18 -10h6q4 0 16 2q16 6 23 11q22 15 39 38z" />
    <glyph glyph-name="t" unicode="t" 
d="M330 600q1 -2 1 -5t-3 -8q-14 -19 -36 -49q-25 -36 -57 -87q30 0 45 1h39q4 0 9 -3q3 -4 3 -9q0 -12 -12 -12h-49q-17 -1 -50 -1l-44 -73q-16 -28 -46 -86q-26 -52 -40 -89q-17 -46 -23 -81q-2 -16 -2 -22q0 -20 7 -30q12 -19 36 -19q16 0 36 6q24 8 44 21q32 22 52 42
q23 23 33 39q3 4 8 6q2 0 8 -2q5 -3 6 -7q2 -5 -2 -10q-12 -19 -35 -42q-28 -28 -57 -46q-21 -14 -59 -25q-27 -8 -59 -8q-43 0 -69 19q-24 17 -23 57q0 27 9 58q10 34 27 76q14 35 38 79q19 37 41 74l36 62h-20q-5 0 -8 4q-4 3 -4 8t4 9q3 3 8 3h34q32 52 64 97
q26 37 40 55q3 4 9 4h50q8 0 11 -6z" />
    <glyph glyph-name="u" unicode="u" horiz-adv-x="442" 
d="M156 308q-18 -31 -36 -68q-22 -48 -31 -71q-16 -37 -23 -63q-5 -12 -6 -27l-1 -11q0 -6 2 -14q1 -11 13 -11q10 0 27 13q28 22 53 54q26 31 51 69q16 24 46 74l70 124q4 7 12 7h49q8 0 11 -6t-1 -12l-36 -66q-20 -34 -39 -74q-20 -40 -33 -76q-14 -39 -17 -71
q-2 -28 7 -39q7 -11 23 -13h4q10 0 28 7q18 8 32 18q24 18 48 44q23 24 33 39q3 5 8 5q3 0 9 -2q4 -4 5 -7q2 -5 -2 -10q-10 -13 -35 -42q-28 -29 -52 -46q-17 -12 -36 -20q-23 -9 -45 -12q-14 -2 -22 -2q-12 0 -24 3q-22 4 -37 19q-11 11 -14 26q-3 12 -3 23q0 23 5 40
q4 20 7 29l-36 -45q-22 -27 -50 -51q-29 -24 -58 -36q-17 -7 -29 -7t-28 7q-16 8 -20 24q-4 14 -2 39q1 13 6 30l11 35q11 33 27 68q13 31 32 68q12 24 34 62q19 32 29 46q5 5 11 5h49q8 0 11 -7q1 -2 1 -5t-3 -8q-18 -26 -35 -56z" />
    <glyph glyph-name="v" unicode="v" horiz-adv-x="353" 
d="M181 341q-11 -16 -30 -47q-8 -13 -32 -59q-15 -30 -30 -65l-11 -29q-5 -13 -11 -41q-5 -23 -5 -39q0 -19 11 -27q8 -6 16 -6q5 0 17 4q16 6 38 23q18 15 34 31q17 17 20 21l-1 14q0 16 7 49q9 39 25 76q17 38 36 72q20 33 36 51q9 9 20 16q7 5 14 5q3 0 9 -2
q13 -4 18 -22q2 -18 2 -24q0 -28 -18 -64q-18 -37 -37 -66q-18 -29 -44 -63q-18 -24 -41 -49q4 -13 11.5 -18t19.5 -5q17 0 35 9q21 9 39 24q17 13 24 25q3 4 8 6q3 1 9 -1q4 -4 5 -7q2 -5 -1 -9q-10 -18 -31 -35t-48 -28q-21 -8 -38 -8l-12 1q-25 1 -39 27l-34 -33
q-19 -17 -37 -27q-18 -11 -41 -16q-5 -1 -14 -1q-14 0 -32 5q-22 6 -34 19q-13 14 -18 30q-4 18 -4 29q0 22 8 48q12 42 28 73l30 58q24 46 45 77q23 33 33 42q4 3 9 3h49q9 0 12 -8v-4q0 -6 -4 -9q-10 -10 -21 -26zM255 176l27 38q1 2 11 17q20 32 32 57q14 29 15 49
q1 5 1 14q0 5 -2 11q-1 3 -6 1t-14 -11q-14 -16 -31 -43q-22 -38 -31 -59q-14 -32 -24 -63t-12 -54z" />
    <glyph glyph-name="w" unicode="w" horiz-adv-x="597" 
d="M156 313q-19 -32 -40 -78q-20 -43 -33 -82q-14 -38 -19 -64q-3 -15 -3 -25q0 -11 4 -15t9 -4t11 3q14 8 29 23l27 28q23 27 40 50q13 17 35 53q7 20 18 39q6 13 20 37q3 6 11 6h49q6 0 11 -6q4 -6 0 -12l-10 -19q-12 -22 -16 -31q-11 -22 -17 -39q-8 -20 -16 -44l-6 -25
q-3 -12 -5 -32v-6q0 -9 4 -23q5 -13 18 -18q9 -3 18 -3q12 0 23 4q21 7 43 21q18 11 40 32q18 17 29 29q-1 4 -1 14q0 20 6 48q7 35 21 73q14 36 30 69q16 30 34 50q9 9 19 16q7 5 14 5q3 0 9 -2q13 -4 18 -19q3 -15 3 -28q0 -17 -9 -43q-13 -33 -26 -57q-16 -29 -38 -62
q-27 -40 -47 -62q-1 -3 -8 -10q6 -27 27 -28l10 -1q15 0 34 8q25 10 44 25q21 15 27 27q3 4 8 6q2 0 8 -2q5 -1 6 -6q2 -6 -1 -10q-10 -18 -34 -35q-24 -18 -53 -29q-18 -7 -39 -7q-11 0 -16 1q-27 3 -39 31q-16 -16 -41 -36q-21 -15 -50 -31q-27 -14 -55 -18q-14 -2 -20 -2
q-17 0 -35 6q-20 6 -30 19q-12 14 -16 28q-5 18 -5 34q0 19 3 35l-14 -18q-7 -10 -15 -18q-12 -14 -23 -25q-14 -14 -32 -27q-16 -12 -36 -22q-14 -7 -30 -7q-17 0 -29 10q-10 8 -15 18q-5 11 -6 24q-1 5 -1 14t1 13l4 25l8 29q15 45 26 70q15 37 33 72q15 31 35 63
q17 26 33 41q4 4 9 4h50q8 0 11 -8q1 -2 1 -5q0 -6 -5 -9q-18 -16 -37 -50zM494 195q15 22 34 56q15 30 23 50q8 24 8 38q0 15 -5 20q-1 1 -3 1q-5 0 -14 -10q-16 -18 -28 -42q-16 -32 -26 -57q-13 -33 -20 -60q-9 -36 -10 -52q15 18 41 56z" />
    <glyph glyph-name="x" unicode="x" horiz-adv-x="540" 
d="M304 256l-6 -44q-4 -22 -6 -45q-3 -22 -3 -45q26 41 31 49l34 58q18 30 39 60q20 29 43 52q22 21 47 35q21 11 45 11q33 0 45 -29q4 -14 4 -22q0 -11 -5 -26q-9 -25 -23 -44q-3 -4 -8 -4q-4 -1 -9 2q-5 5 -5 9t3 8q10 12 18 32q4 9 4 22q0 5 -2 15q-4 12 -17 13
q-24 1 -46 -12q-22 -15 -45 -39q-23 -26 -43 -56q-25 -37 -39 -62l-36 -60q-11 -20 -31 -48q8 -29 25 -42q19 -16 48 -16q18 0 39 6q28 9 44 20q18 12 32 24q15 12 27 24l21 20l11 13q3 4 8 6q2 0 8 -2q3 -2 5 -7t-2 -10l-12 -15q-9 -10 -22 -22q-13 -13 -29 -26
q-15 -13 -34 -25q-24 -16 -51 -23q-28 -9 -56 -9q-28 -1 -56 8q-26 9 -48 29q-18 -15 -37 -25q-22 -11 -44 -11q-18 0 -28 7q-10 6 -18 17q-6 9 -10 25q-3 14 -3 29q0 12 12 12t12 -12t1 -19q2 -11 5 -17q6 -10 11 -13q8 -5 18 -5q19 0 35 10q14 8 30 20q-15 21 -16 50
q-1 10 -1 31t1 32q1 20 7 67q3 26 3 46q0 38 -10 59q-11 21 -40 21q-19 0 -36 -15q-21 -19 -39 -48q-18 -28 -33 -63l-27 -62l-12 -29l-11 -22q-3 -5 -7 -6q-3 -1 -9 1q-4 1 -6 7q-2 5 1 9q7 11 10 21q4 12 12 28l24 56q16 36 29 58q15 27 34 49q20 23 40 33q23 11 51 13
q29 0 50 -10t39 -31q16 -23 16 -64q0 -21 -1 -32z" />
    <glyph glyph-name="y" unicode="y" horiz-adv-x="394" 
d="M403 381q3 -4 1 -12q-6 -16 -29 -60l-52 -94l-68 -117l-77 -128q62 36 114 76q52 39 102 89q4 4 9 4q6 -2 9 -4q3 -3 3 -8t-4 -9q-60 -60 -121 -104q-63 -47 -137 -84l-46 -76l-60 -96l-70 -104q-33 -47 -75 -95q-36 -41 -76 -72q-39 -30 -73 -34q-4 -1 -12 -1
q-18 0 -28 9q-15 12 -22 34q-5 18 -5 34q0 11 1 16q5 29 16 52q13 28 30 53q21 30 42 53q21 24 61 60q38 35 74 61q45 33 79 53q40 25 77 40l91 147l87 149l-49 -63q-34 -42 -50 -59l-25 -27q-22 -22 -34 -32q-20 -16 -37 -24q-13 -7 -25 -7q-6 0 -9 1q-18 4 -26 22
q-5 15 -5 31q0 23 6 48l10 32q11 32 25 65q9 23 31 67l33 63q20 35 31 49q3 6 10 6h50q8 0 11 -7q1 -2 1 -5t-3 -8q-15 -22 -36 -59t-38 -74q-19 -42 -32 -77q-15 -37 -21 -66q-7 -27 -5 -40q0 -3 3 -3q7 0 22 15l22 21l23 25q32 35 69 83l64 86l49 69l23 34q3 7 11 7h49
q6 0 11 -5zM-188 -450q29 29 53 60q26 32 52 70l49 74l43 69l35 57q-32 -17 -58 -33q-32 -20 -66 -45q-37 -28 -66 -55q-31 -27 -61 -60q-38 -42 -63 -88q-20 -37 -20 -69q0 -38 16 -36q13 3 34 15q23 13 52 41z" />
    <glyph glyph-name="z" unicode="z" horiz-adv-x="410" 
d="M177 316l26 -20q9 -7 24 -22q11 -12 18 -24q8 -16 8 -26q0 -5 -4 -15q-8 -15 -27 -29q-15 -11 -41 -26q-23 -14 -34 -32q-10 -14 -10 -28q0 -7 1 -10q5 -21 13 -40l18 -47q9 -27 8 -55q33 18 64 37q44 30 65 47q35 27 59 52q27 27 45 57q3 4 8 6q2 0 8 -2q5 -3 6 -7
q2 -5 -2 -10q-21 -34 -49 -62t-65 -57t-72 -50q-23 -14 -71 -40q-8 -38 -31 -79q-22 -39 -59 -88q-36 -46 -78 -86q-48 -45 -88 -74q-47 -34 -87 -52t-73 -18q-49 0 -65 30q-9 18 -9 42q0 13 3 28q7 34 36 67q28 32 71 63t74 47q43 24 74 39q25 12 77 34l78 35q6 24 6 46
q0 14 -3 28q-11 38 -19 59q-6 15 -11.5 31.5t-5.5 29.5q0 19 14 41q10 15 31 30l37 25q17 11 28 24q6 8 6 15q0 5 -3 11q-4 11 -16 22q-26 23 -25 22q-19 -41 -49 -84q-29 -43 -69 -83q-4 -4 -9 -3q-5 0 -8 3q-2 2 -4 8q0 5 4 9q40 40 69 83q31 46 47 83q-16 15 -23 24
q-7 11 -7 22q0 13 10 25q7 7 20 12q9 3 16 3q12 0 19 -7q3 -4 5 -13q1 -2 1 -8q0 -5 -1 -8l-2 -15q10 -10 23 -20zM-181 -420q31 18 66 47q37 32 65 60q33 33 60 66q29 36 47 63q21 34 29 54l-143 -64q-71 -33 -136 -80q-39 -28 -65 -57q-27 -28 -33 -58q-3 -12 -3 -22
q0 -18 10 -27q13 -10 28 -10q5 0 15 2q31 8 60 26z" />
    <glyph glyph-name="braceleft" unicode="{" horiz-adv-x="315" 
d="M280 416q0 -12 -11 -14q-24 -7 -38 -33q-10 -20 -23 -59q-10 -31 -24 -63t-40 -55q9 -16 9 -37q0 -23 -6 -49.5t-8 -33.5q-9 -37 -10 -57v-7q0 -20 16 -24q8 -2 8 -8q0 -14 -14 -16q-6 -1 -17 -1t-17 1q-16 1 -28 9t-18 19q-4 9 -4 24q0 22 9 50q7 27 11 46q4 20 4 43
q-2 20 -12 32q-4 4 -2 10q2 5 6 9q27 17 40 48q13 29 24 62q6 20 20 50q10 23 28 41t39 25q9 3 20 3q14 0 32 -6q6 -3 6 -9z" />
    <glyph glyph-name="bar" unicode="|" horiz-adv-x="292" 
d="M194 469q4 4 9 4q4 0 7 -4q1 -4 0 -11l-132 -531q-1 -8 -6 -12q-4 -3 -9 -3t-7 3q-3 4 -1 12l132 531q1 5 7 11z" />
    <glyph glyph-name="braceright" unicode="}" horiz-adv-x="356" 
d="M55 -27q0 13 12 15q11 3 21 11q9 9 16 22q7 11 13 28q2 6 4.5 14t5.5 17q9 26 25 64q14 32 40 54q-9 14 -9 34q0 22 4 42q5 26 10 44l8 40q2 14 2 19l-1 12q-3 13 -16 17q-9 2 -6 12q1 9 13 11q6 1 17 1q12 0 17 -1q16 -1 28 -9q11 -8 18 -19q4 -9 4 -23q0 -20 -8 -50
q-4 -13 -11 -46q-5 -25 -5 -43q0 -20 11 -33q3 -1 3 -6q0 -8 -7 -12q-25 -16 -39 -47q-18 -42 -25 -63q-5 -17 -19 -49q-12 -26 -28 -42q-18 -18 -39 -25q-9 -3 -20 -3q-15 0 -33 6q-6 1 -6 8z" />
    <glyph glyph-name="asciitilde" unicode="~" horiz-adv-x="379" 
d="M256 163q-18 -8 -37 -10h-8q-12 0 -23 3q-20 6 -29 10q-5 2 -21.5 8t-29.5 6q-19 0 -39 -10q-6 -2 -7 -2q-5 0 -7 6q-1 2 -1 5q0 6 5 11q24 21 45 31t36 11h8q13 0 24 -3l29 -11q20 -8 40 -12q4 -1 13 -1q16 0 37 9q6 2 7 2q4 0 7 -5q1 -2 1 -5q0 -6 -6 -12
q-25 -22 -44 -31z" />
    <glyph glyph-name="a.001" unicode="&#xe000;" horiz-adv-x="959" 
d="M852 31q0 6 5 13q6 6 11 7h4q4 0 10 -3q23 27 38 60q13 34 15 70q0 35 -15 66q-17 31 -52 47q-39 18 -76 18q-18 0 -27 -2q-49 -9 -97 -38q-47 -29 -84 -69q-40 -43 -65 -78q-8 -11 -29 -34q-16 -20 -36 -36q-18 -15 -41 -30q-22 -13 -41 -19q-13 -4 -25 -5
q-18 -2 -28 -2q-14 0 -28 3q-14 5 -21 13q-13 14 -13 42q0 18 4 35q10 36 19 58q14 36 27 64q-11 -16 -35 -48l-15 -20q-17 -22 -53 -62q-27 -31 -50 -49q-26 -21 -46 -27q-9 -2 -25 -4q-4 -1 -11 -1q-11 0 -16 1q-13 1 -26 8q-13 4 -21 15q-18 23 -18 51t9 60q11 46 41 97
q29 50 70 87q43 40 99 59q33 11 63 11q27 0 51 -7q6 -2 8 -5q2 -4 0 -9q-4 -12 -15 -9q-15 4 -31 4q-25 0 -46 -10q-37 -18 -68 -49t-54 -71q-24 -41 -36 -73q-3 -7 -6 -21q-4 -13 -6 -30q-2 -11 -4 -33v-8q0 -12 3 -21q5 -12 13 -18q4 -3 12 -3l13 2q19 6 45 29
q19 17 53 56q22 27 55 72l52 75l46 69l32 52q3 6 10 6h50q6 0 11 -5q3 -6 0 -12l-27 -56l-26 -51q-10 -19 -28 -59t-25 -59q-11 -27 -19 -55q-4 -13 -6 -28q-2 -10 -2 -15l1 -8q1 -9 10 -14q6 -2 10 -2t16 2q18 5 36 16q18 12 36 27q16 13 33 32q13 14 26 31q31 41 75 88
q44 45 91 74q50 30 104 39q16 2 25 2q43 0 87 -21q43 -21 63 -56q18 -36 18 -77q-2 -46 -20 -87q-19 -42 -51 -74q-5 -8 -14 -8q-10 0 -16 6t-6 14z" />
    <glyph glyph-name="b.001" unicode="&#xe001;" horiz-adv-x="824" 
d="M717 31q0 6 5 13q6 6 11 7h4q4 0 10 -3q23 27 38 60q13 34 15 70q0 35 -15 66q-17 31 -52 47q-37 17 -69 17q-34 0 -66 -12q-33 -12 -62 -33q-34 -25 -58 -47q-9 -8 -53 -52l-49 -49q-22 -20 -43 -30q-23 -11 -44 -15q-25 -5 -45 -5l-22 -1l-22 1q-25 -28 -45 -47
q-23 -23 -45 -33q-16 -9 -30 -10l-11 -1q-9 0 -18 3q-14 5 -22 16q-6 11 -6 25q0 24 14 38q12 13 29 21q14 7 37 10q19 3 35 3q16 18 31 40q10 14 28 42l18 33q13 22 24 50q10 23 13 49q2 24 -14 31q-3 2 -11 2q-9 0 -17 -4q-19 -10 -32 -22q-11 -9 -29 -29q-12 -13 -19 -24
q-13 -18 -24 -41q-10 -19 -18 -41l-12 -37q-8 -26 -11 -39q-2 -10 -12 -9h-49h-2q-4 0 -8 4t-2 11l8 29q31 105 74 204q44 99 88 177q26 47 41 71l55 86q22 33 65 91q33 44 70 86q36 41 72 72q35 31 70 46q22 9 40 14q24 4 36 4q27 0 46 -12q16 -10 24 -35q2 -4 0 -9
q-3 -4 -8 -6t-9 1q-4 1 -6 7q-4 15 -14 22q-10 5 -17 5q-14 0 -28 -8q-13 -6 -23 -13q-34 -21 -63 -50q-33 -32 -66 -69q-29 -34 -64 -81l-59 -85l-51 -80q-11 -17 -40 -68q-30 -54 -50 -96q-26 -54 -47 -104q7 8 29 26q13 11 36 23q17 8 39 13q7 2 20 2q14 0 20 -2
q23 -4 34 -20q8 -14 10 -35q0 -22 -7 -44q-9 -27 -16 -46q-13 -29 -20 -41q-10 -20 -18 -30l-21 -32q-7 -11 -23 -31q34 0 74 8q37 7 70 39l79 79q43 43 90 74q48 31 101 42q15 3 30 3q40 0 80 -20q43 -21 63 -56q18 -36 18 -77q-2 -46 -20 -87q-19 -42 -51 -74
q-5 -8 -14 -8q-10 0 -16 6t-6 14zM116 64l-20 -3q-8 -2 -22 -8q-10 -4 -19 -13q-7 -7 -9 -19q-1 -12 3 -12h1q2 0 10 4q27 19 56 51z" />
    <glyph glyph-name="c.001" unicode="&#xe002;" horiz-adv-x="809" 
d="M702 31q0 6 5 13q6 6 11 7h4q4 0 10 -3q23 27 38 60q13 34 15 70q0 35 -15 66q-17 31 -52 47q-34 17 -71 17q-16 0 -31 -3q-48 -10 -94 -41q-45 -32 -84 -72l-73 -75q-27 -27 -62 -51q-29 -20 -65 -37q-27 -13 -54 -19q-34 -10 -73 -10q-27 0 -54 8q-29 9 -46 35
q-15 20 -15 53q0 13 4 39q6 31 16 52q11 27 35 62q20 28 47 57q28 28 57 46q34 21 65 29q10 3 29 6q18 3 37 3q18 -1 33 -6q14 -6 18 -21q1 -3 1 -9q0 -12 -9 -27q-12 -19 -26 -27q-6 -2 -7 -2q-6 0 -10 6q-2 4 -2 7q0 6 7 10q8 5 15 13q6 6 8 16q0 6 -8 11q-2 1 -7 1
q-10 0 -23 -4q-27 -7 -56 -25q-30 -20 -50 -40q-21 -20 -43 -50q-23 -32 -34 -55l-13 -32q-7 -16 -10 -37q-4 -16 -2 -37q2 -20 10 -33q12 -16 32 -21q12 -3 26 -3q10 0 15 1q19 3 43 11q35 14 34 13q28 13 62 36q31 21 58 49l78 80q39 41 90 74q48 31 101 42q14 3 29 3
q40 0 82 -21q43 -21 63 -56q18 -36 18 -77q-2 -46 -20 -87q-19 -42 -51 -74q-5 -8 -14 -8q-10 0 -16 6t-6 14z" />
    <glyph glyph-name="d.001" unicode="&#xe003;" horiz-adv-x="1023" 
d="M916 31q0 6 5 13q6 6 11 7h4q4 0 10 -3q23 27 38 60q13 34 15 70q0 35 -15 66q-17 31 -52 47q-39 18 -76 18q-19 0 -28 -2q-51 -10 -98 -39q-44 -27 -84 -70t-65 -78q-13 -17 -25 -30q-14 -15 -32 -30q-15 -12 -35 -27q-19 -12 -34 -18q-26 -10 -60 -10q-46 0 -75 21
q-26 19 -37 46q-10 25 -9 56q-34 -46 -68 -68q-35 -23 -66 -26q-20 -2 -30 -2q-21 0 -37 4q-31 7 -54 39q-19 30 -19 68q0 33 11 60q12 34 28 62q20 34 51 62q30 27 68 44q37 17 81 17q38 0 72 -21q20 -14 32 -25l86 167q44 82 97 160q26 39 51 74q27 37 65 84q38 45 70 78
q37 37 70 57q18 12 45 21q24 8 52 10q24 0 46 -11t29 -39q1 -3 -1 -9q-3 -4 -8 -6l-4 -1q-7 0 -10 9q-4 15 -14 22q-10 5 -18 5q-14 0 -28 -8q-13 -6 -23 -13q-33 -20 -69 -56q-36 -35 -69 -75q-30 -36 -63 -82l-51 -73q-17 -24 -47 -73q-33 -53 -63 -106q-33 -58 -63 -123
q-27 -56 -50 -124q-22 -68 -22 -118q0 -40 20 -65q15 -17 35 -17q18 -1 40 7q10 3 30 16q7 4 32 25q15 12 31 30q19 20 27 32q30 41 72 84t90 71q66 39 127 39q43 0 87 -21q43 -21 63 -56q18 -36 18 -77q-2 -46 -20 -87q-19 -42 -51 -74q-5 -8 -14 -8q-10 0 -16 6t-6 14z
M299 346q-29 17 -57 14q-29 -5 -52 -19q-26 -17 -45 -40q-22 -26 -35 -48q-32 -55 -38 -94q-3 -15 -3 -29q0 -19 7 -38q8 -20 25 -28q16 -9 36 -7q34 5 56 22q22 16 39 38q15 17 28 39q11 18 21 24q6 29 22 71q18 46 29 68q-16 18 -33 27z" />
    <glyph glyph-name="e.001" unicode="&#xe004;" horiz-adv-x="762" 
d="M655 31q0 6 5 13q6 6 11 7h4q4 0 10 -3q23 27 38 60q13 34 15 70q0 35 -15 66q-17 31 -52 47q-38 18 -73 18q-14 0 -29 -3q-50 -11 -95 -39q-46 -29 -83 -69q-30 -31 -69 -76q-13 -16 -49 -48q-26 -24 -70 -50q-18 -10 -38 -17q-24 -8 -43 -11q-18 -2 -26 -2l-18 1
q-22 1 -40 12t-26 25q-8 12 -13 32q-3 17 -3 36q2 24 4 35q7 35 25 79q16 36 43 71q26 33 58 57t74 37q15 4 35 6l14 1q12 0 21 -3q14 -4 22 -17q3 -4 3 -12q0 -10 -6 -24q-10 -22 -37 -53q-24 -28 -64 -66q-37 -35 -69 -59q-32 -25 -55 -34q-2 -22 -2 -30q0 -19 4 -30
q8 -23 25 -32q11 -6 26 -6q5 0 17 2q24 4 57 23q24 14 35 23l31 24l26 24l18 19q30 35 75 82q40 42 91 74q47 29 102 40q15 3 29 3q41 0 83 -21q43 -21 63 -56q18 -36 18 -77q-2 -46 -20 -87q-19 -42 -51 -74q-5 -8 -14 -8q-10 0 -16 6t-6 14zM118 181q22 18 61 54
q21 20 55 58q25 28 33 47q2 8 -1 13t-11 3q-32 -6 -61 -29q-29 -22 -54 -53q-26 -32 -43 -65q-19 -33 -28 -64q16 9 49 36z" />
    <glyph glyph-name="f.001" unicode="&#xe005;" horiz-adv-x="750" 
d="M643 31q0 6 5 13q6 6 11 7h4q4 0 10 -3q23 27 38 60q13 34 15 70q0 35 -15 66q-17 31 -52 47q-40 19 -76 19q-14 0 -28 -3q-49 -10 -96 -40q-44 -28 -85 -71q-34 -35 -67 -77q-11 -14 -40 -43q-24 -22 -51 -42q-28 -20 -55 -33q-32 -15 -53 -19q1 -30 -2 -76
q-3 -42 -12 -82q-9 -41 -25 -77q-18 -38 -41 -59q-28 -25 -62 -25q-17 0 -31 7q-19 10 -33 34q-11 19 -11 45q0 29 13 92q8 39 23 92q12 41 32 99q26 68 41 103q30 71 64 140q33 69 69 132q29 52 70 117q38 60 65 93q26 32 56 59t61 43q9 5 28 12q22 6 34 8q6 1 17 1t16 -1
q16 -1 27 -11q12 -9 9 -29q-6 -24 -20 -49q-21 -39 -51 -84q-35 -52 -68 -94l-78 -98l-81 -96l-78 -86q-41 -45 -69 -71l-16 -42q7 3 15 1q7 -3 13 -9q12 -12 16 -30q6 -27 7 -36q21 5 48 20q30 16 51 32q27 20 47 39q23 21 39 42q25 33 74 83q41 42 90 72q48 30 103 39
q16 2 24 2q44 0 87 -21t63 -56q18 -36 18 -77q-2 -46 -20 -87q-19 -42 -51 -74q-5 -8 -14 -8q-10 0 -16 6t-6 14zM300 415q44 52 98 126q43 58 77 120q6 9 8 13l8 16q3 8 2 15q-1 6 -11 7q-25 1 -55 -18q-31 -22 -63 -58q-34 -37 -69 -90q-41 -60 -71 -112q-31 -55 -64 -121
q-42 -84 -61 -127l97 107zM78 30q-4 17 -12 24q-4 5 -8 1q-2 -2 -4 -8q-2 -8 -2 -13q0 -8 1 -10q3 -11 11 -16t18 -6zM49 -240q16 37 23 72q8 43 11 77q2 50 1 70q-20 0 -34 8q-15 10 -19 28q-14 -38 -41 -126q-19 -68 -24 -129q-1 -8 -1 -28q2 -19 5 -27q5 -11 14 -14h2
q11 0 25 14q24 22 38 55z" />
    <glyph glyph-name="g.001" unicode="&#xe006;" horiz-adv-x="925" 
d="M818 31q0 6 5 13q6 6 11 7h4q4 0 10 -3q23 27 38 60q13 34 15 70q0 35 -15 66q-17 31 -52 47q-38 18 -74 18q-14 0 -29 -3q-50 -12 -95 -42q-48 -34 -84 -71l-70 -74q-34 -36 -61 -55q-31 -22 -64 -41t-65 -32l-67 -27l-15 -24l-40 -67l-54 -87q-24 -37 -65 -96
q-31 -42 -71 -88q-34 -39 -73 -68q-46 -33 -83 -33q-20 0 -30 10q-14 14 -20 35q-5 21 -3 45q3 26 10 43q21 56 59 101q38 47 91 90q52 43 106 75q52 31 105 55l47 77l45 76q-16 -13 -36 -27q-13 -9 -39 -23q-25 -11 -54 -14q-7 -1 -19 -1q-17 0 -37 5q-27 8 -41 28
q-10 14 -10 37q0 14 2 22q7 36 30 77t54 75q33 36 71 61q38 26 76 35q12 3 37 5h10q14 0 27 -3q19 -5 34 -13q18 -11 27 -26q11 22 13 28q3 7 12 7h49q6 0 11 -5q3 -6 0 -12q-7 -19 -27 -57q-17 -32 -47 -86l-61 -106l-70 -116q59 24 114 54q55 29 105 83l50 53q24 26 56 54
q19 17 61 47q33 22 66 32q36 11 71 11q40 -2 75 -20q43 -21 63 -56q18 -36 18 -77q-2 -46 -20 -87q-19 -42 -51 -74q-5 -8 -14 -8q-10 0 -16 6t-6 14zM353 320q-18 40 -55 40q-11 0 -23 -3q-32 -8 -65 -33q-33 -24 -62 -58q-33 -39 -49 -71q-21 -38 -27 -69q-2 -12 -2 -17
q0 -10 3 -18q4 -13 15 -18q7 -4 19 -4q17 0 41 11q35 17 66 43q31 24 59 52l45 80q22 38 35 65zM-125 -415q30 24 58 56q33 40 57 74q14 19 54 80l75 123q-42 -20 -90 -51q-50 -32 -94 -70q-42 -37 -80 -82q-36 -46 -52 -90l-6 -20q-3 -12 -3 -23q1 -10 7 -17q4 -5 15 -5
q28 0 59 25z" />
    <glyph glyph-name="h.001" unicode="&#xe007;" horiz-adv-x="924" 
d="M817 31q0 6 5 13q6 6 11 7h4q4 0 10 -3q23 27 38 60q13 34 15 70q0 35 -15 66q-17 31 -52 47q-40 19 -75 19q-15 0 -28 -3q-50 -10 -96 -41q-45 -29 -84 -71q-30 -31 -69 -76l-28 -32q-15 -18 -30 -33t-33 -28q-15 -12 -34 -19q-16 -7 -41 -10l-16 -1q-15 0 -27 3
q-23 7 -36 18q-19 18 -19 54q0 23 8 57q14 56 23 83l22 73q6 23 6 37q0 7 -1 10q-2 8 -10 5q-12 -7 -19 -14q-8 -7 -24 -25l-24 -27l-19 -23q-5 -7 -9 -11q-61 -83 -135 -227q-4 -7 -11 -7h-49q-5 0 -10 5q-4 4 -2 10l16 54q8 26 21 64q20 60 56 150q28 70 74 166
q42 87 87 167q43 77 100 153q51 69 108 124q57 54 115 79q23 10 40 13q18 4 41 2q18 -3 36 -14q15 -9 23 -34q2 -4 0 -9q-3 -4 -8 -6l-4 -1q-8 0 -11 9q-4 15 -14 22q-10 5 -18 5q-14 0 -28 -8q-13 -6 -23 -13q-55 -33 -111 -94q-55 -58 -105 -132q-52 -76 -96 -154
q-45 -82 -82 -161q-39 -82 -66 -151q-34 -88 -46 -127q33 55 43 70q16 25 40 59l29 38q21 26 40 44q20 19 45 37q23 16 44 17h5q16 0 25 -9q10 -13 11 -29q1 -5 1 -17q0 -25 -9 -55q-11 -36 -26 -82q-15 -43 -24 -82q-4 -16 -4 -33q0 -21 7 -38q4 -11 18 -16q3 -1 9 -1
q9 0 26 5q16 6 32 19q16 12 31 28q16 16 29 32l25 30q30 35 75 82q42 42 90 72t102 39q9 2 27 2q44 0 84 -20q43 -21 63 -56q18 -36 18 -77q-2 -46 -20 -87q-19 -42 -51 -74q-5 -8 -14 -8q-10 0 -16 6t-6 14z" />
    <glyph glyph-name="i.001" unicode="&#xe008;" horiz-adv-x="675" 
d="M184 416q-5 0 -17 2q3 0 -27 4q-5 2 -7 7t0 10l9 21q5 11 6 20q3 10 13 10h49q5 0 10 -5q3 -4 1 -11q-1 -6 -7 -25q-8 -18 -12 -25q-4 -6 -9 -7zM568 31q0 6 5 13q6 6 11 7h4q4 0 10 -3q23 27 38 60q13 34 15 70q0 35 -15 66q-17 31 -52 47q-38 18 -74 18q-14 0 -29 -3
q-50 -10 -96 -41q-44 -29 -84 -71l-69 -75q-28 -31 -57 -57q-33 -29 -54 -43q-13 -8 -28 -15q-14 -6 -34 -10q-14 -2 -20 -2l-14 1q-15 1 -30 13q-18 15 -18 42q0 11 4 33q2 9 8 27q3 9 11 27q15 35 31 63l35 62q22 40 31 59q14 29 18 53q2 9 11 9h50q5 0 10 -5q4 -4 2 -10
q-6 -27 -27 -68l-44 -84q-20 -36 -43 -84q-19 -40 -24 -71v-9q0 -13 3 -19q5 -8 13 -9h3q7 0 17 5q13 6 22 12q18 12 53 43q36 34 53 53l76 81q40 42 91 74q46 30 102 41q13 3 29 3q40 0 82 -21q43 -21 63 -56q18 -36 18 -77q-2 -46 -20 -87q-19 -42 -51 -74q-5 -8 -14 -8
q-10 0 -16 6t-6 14z" />
    <glyph glyph-name="j.001" unicode="&#xe009;" horiz-adv-x="676" 
d="M205 418q-5 0 -17 2q-4 0 -26 4q-5 2 -7 7q-3 4 -1 10l10 21q5 11 6 20q1 10 12 10h49q6 0 11 -5q2 -4 2 -6q0 -7 -3.5 -16.5t-5.5 -13.5l-11 -25q-4 -6 -9 -7zM569 31q0 6 5 13q6 6 11 7h4q4 0 10 -3q23 27 38 60q13 34 15 70q0 35 -15 66q-17 31 -52 47q-36 17 -70 18
q-34 0 -66 -12q-33 -12 -62 -33q-32 -22 -57 -46q-25 -23 -52 -51l-46 -49q-26 -29 -60 -53q-37 -26 -63 -40q-30 -17 -65 -33l-68 -28l-45 -74l-58 -94q-40 -63 -67 -100q-41 -57 -73 -91q-40 -43 -74 -69q-45 -34 -83 -34q-19 0 -32 11q-16 16 -20 37q-2 8 -2 26
q0 15 1 23q5 26 12 45q22 53 61 98q40 47 90 87q48 39 104 72q54 32 102 54l108 180l84 147q38 71 46 93q3 7 12 7h49h2q4 0 8 -4q4 -5 2 -12q-5 -12 -28 -57l-47 -87l-61 -106l-70 -117l58 25q33 15 56 29q27 17 54 36q24 18 50 46l50 53q24 27 56 54q25 22 61 48
q32 21 67 32q35 10 63 10q42 0 83 -19q43 -21 63 -56q18 -36 18 -77q-2 -46 -20 -87q-19 -42 -51 -74q-5 -8 -14 -8q-10 0 -16 6t-6 14zM-328 -373q40 44 76 97q32 47 67 105l54 88q-41 -19 -89 -50q-49 -31 -90 -67q-45 -38 -79 -80q-35 -43 -53 -86q-7 -14 -10 -35
q-1 -5 -1 -14q0 -11 2 -16q4 -12 14 -16l5 -1q9 0 26 10q38 21 78 65z" />
    <glyph glyph-name="k.001" unicode="&#xe00a;" horiz-adv-x="901" 
d="M794 31q0 6 5 13q6 6 11 7h4q4 0 10 -3q23 27 38 60q13 34 15 70q0 34 -15 66q-17 31 -52 47q-40 19 -76 19q-14 0 -28 -3q-49 -10 -96 -40q-45 -29 -84 -71q-40 -41 -68 -77q-13 -17 -31 -34q-13 -13 -39 -35q-18 -15 -41 -30q-20 -12 -41 -17q-24 -6 -42 -6
q-12 0 -28 4q-26 7 -43 27t-24 46l-17 52q-8 23 -21 47q-11 20 -35 31q-32 -92 -60 -193q-4 -9 -12 -9h-50q-5 0 -10 5q-3 4 -1 10l16 56l21 62q26 77 58 153q31 74 75 167q37 76 89 166q47 81 100 152q55 72 109 122q57 54 114 79q23 10 40 13q18 4 41 2q18 -3 36 -14
q15 -9 23 -34q1 -3 -1 -9q-3 -4 -8 -6t-9 1q-3 1 -5 7q-4 15 -14 22q-10 5 -18 5q-14 0 -28 -8q-13 -6 -23 -13q-49 -31 -96 -79q-48 -48 -95 -110q-40 -53 -88 -130q-40 -65 -78 -137q-39 -71 -66 -133q-30 -68 -48 -115l42 20q14 7 42 25q25 16 39 29q18 15 32 32
q12 15 3 20q-10 5 -23 5h-2q-8 0 -10 9v3q0 7 7 11q9 4 23 7q12 3 25 3q14 0 25 -4q12 -5 18 -14q6 -10 6 -20q-2 -13 -5 -19q-4 -9 -13 -18l-15 -14q-33 -27 -78 -49q-43 -21 -86 -39q33 -9 52 -28q16 -17 28 -43q10 -24 15 -48q4 -24 12 -44q7 -19 19 -29q8 -6 20 -6
q10 0 17 2q20 5 37 16q17 9 38 27q22 18 36 34q20 22 30 34q25 33 74 83q41 42 90 72q48 30 103 39q16 2 24 2q43 0 87 -21q43 -21 63 -56q18 -36 18 -77q-2 -46 -20 -87q-19 -42 -51 -74q-5 -8 -14 -8q-10 0 -16 6t-6 14z" />
    <glyph glyph-name="l.001" unicode="&#xe00b;" horiz-adv-x="750" 
d="M643 31q0 6 5 13q6 6 11 7h4q4 0 10 -3q23 27 38 60q13 34 15 70q0 35 -15 66q-17 31 -52 47q-35 17 -69 18q-34 0 -67 -11q-29 -10 -62 -31q-28 -17 -58 -44q-30 -28 -50 -51l-44 -50q-16 -19 -39 -35q-20 -15 -51 -34q-28 -17 -55 -27q-30 -13 -50 -18q-13 -4 -26 -5
q-15 -3 -30 -3q-16 0 -30 3q-15 3 -24 10q-22 16 -20 51q3 35 16 71q14 38 22 55q1 2 19 42l54 113q32 66 72 141q56 102 86 151q49 81 94 144q45 64 94 116q47 50 88 72q15 8 42 16q20 5 38 5q25 0 49 -13q17 -10 25 -36q2 -4 0 -9q-3 -4 -8 -6t-9 1q-4 1 -6 7
q-4 15 -14 22q-8 5 -17 5q-14 0 -28 -8q-13 -6 -23 -13q-39 -24 -83 -74q-43 -48 -89 -115q-44 -64 -89 -139q-48 -81 -82 -145l-70 -136l-11 -22q-29 -61 -41 -87q-51 -111 -56 -160v-7q0 -10 3 -16q3 -8 10 -11q6 -3 17 -1q14 2 21 4q16 4 46 16q26 11 52 26q21 11 48 31
q21 15 35 31q36 43 75 83q40 42 91 74q47 29 102 40q18 2 27 2q42 0 85 -21t63 -56q18 -36 18 -77q-2 -46 -20 -87q-19 -42 -51 -74q-5 -8 -14 -8q-10 0 -16 6t-6 14z" />
    <glyph glyph-name="m.001" unicode="&#xe00c;" horiz-adv-x="1100" 
d="M993 31q0 6 5 13q6 6 11 7h4q4 0 10 -3q23 27 38 60q13 34 15 70q0 35 -15 66q-17 31 -52 47q-38 18 -73 18q-14 0 -29 -3q-50 -11 -95 -39q-46 -29 -83 -69q-30 -31 -69 -76q-35 -40 -77 -73q-45 -36 -93 -46q-19 -4 -41 -4q-21 1 -36 9q-16 8 -23 24q-5 12 -5 27
q0 30 16 73q12 34 23 56l24 56q14 30 20 55l4 14l2 12q-1 4 -5 5h-2q-3 0 -11 -5q-28 -23 -67 -62q-41 -43 -67 -75l-63 -78l-57 -73q-7 -12 -22 -12q-9 0 -16 5.5t-9 15.5l-1 11l1 13q1 11 6 22l25 49l26 58q12 25 24 58q8 21 16 52q8 30 4 37q-4 6 -14 2q-13 -7 -25 -21
q-15 -15 -29 -32q-16 -17 -26 -32l-14 -19q-7 -9 -31 -44l-33 -51l-35 -70l-34 -70q-3 -7 -12 -7h-48q-6 0 -11 6q-4 4 -1 11l28 58l89 178q28 56 57 122q3 8 11 8h50q6 0 11 -5q3 -6 0 -12q-14 -31 -16 -36q-5 -13 -19 -39q23 27 49 55q25 28 61 37q12 3 22 3q18 0 31 -10
q17 -14 17 -40q0 -7 -1 -11q-2 -13 -10 -37q-14 -34 -23 -53l-25 -53l-20 -41l50 61q31 39 69 78t75 69q39 30 68 31h4q15 0 23 -11q6 -9 6 -26q0 -6 -2 -22q-4 -31 -17 -63q-14 -37 -25 -60l-26 -59q-13 -28 -19 -61q-2 -14 -2 -19q0 -14 5 -22q6 -11 22 -11q20 0 43 13
q19 11 42 29t39 34q22 22 29 31q30 35 75 82q40 42 91 74q47 29 102 40q15 3 29 3q41 0 83 -21q43 -21 63 -56q18 -36 18 -77q-2 -46 -20 -87q-19 -42 -51 -74q-5 -8 -14 -8q-10 0 -16 6t-6 14z" />
    <glyph glyph-name="n.001" unicode="&#xe00d;" horiz-adv-x="928" 
d="M821 31q0 6 5 13q6 6 11 7h4q4 0 10 -3q23 27 38 60q13 34 15 70q0 35 -15 66q-17 31 -52 47q-37 18 -73 18q-14 0 -29 -3q-50 -11 -95 -39q-46 -29 -83 -69q-30 -31 -69 -76q-15 -18 -47 -45q-38 -31 -65 -46q-18 -10 -36 -16q-21 -8 -46 -13q-13 -3 -27 -3q-13 0 -19 1
q-21 3 -37 17q-11 10 -13 27l-1 12q0 10 3 19q7 25 22 56l28 54l28 53q12 23 22 56q6 20 6 30q0 11 -8 11t-22 -11l-26 -20q-24 -19 -53 -48l-49 -51l-44 -49q-20 -23 -36 -39l-53 -107q-3 -8 -11 -8h-50q-7 0 -11 6q-3 6 1 12l56 115l68 136q24 48 49 107q3 7 11 7h50
q12 0 12 -12q0 -4 -1 -5l-35 -77l-44 -89l60 62q34 33 65 59q13 11 27 20q18 13 32 19q15 7 34 12q4 1 11 1q11 0 19 -4q20 -9 21 -28l1 -14q0 -12 -3 -24q-8 -36 -22 -65l-33 -63q-27 -51 -31 -60q-16 -32 -20 -58q-1 -5 -1 -13q0 -13 7 -16q7 -4 17 -4q7 0 11 1
q13 2 34 11q14 6 25 13q38 23 61 43q27 23 42 41q30 35 75 82q40 42 91 74q47 29 102 40q15 3 29 3q41 0 83 -21q43 -21 63 -56q18 -36 18 -77q-2 -46 -20 -87q-19 -42 -51 -74q-5 -8 -14 -8q-10 0 -16 6t-6 14z" />
    <glyph glyph-name="o.001" unicode="&#xe00e;" horiz-adv-x="816" 
d="M709 31q0 6 5 13q6 6 11 7h4q4 0 10 -3q23 27 38 60q13 34 15 70q0 35 -15 66q-17 31 -52 47q-38 19 -79 19q-9 0 -25 -2q-51 -9 -97 -37q-46 -29 -84 -69q-39 -42 -64 -79q-14 -21 -29 -38q-15 -18 -36 -34q-19 -16 -41 -25t-46 -9q-32 0 -61 20q-4 -3 -32 -19
q-21 -11 -36 -14q-16 -2 -22 -2q-20 0 -34 7q-24 11 -34 30q-12 23 -12 52q0 18 7 44q7 22 16 38q7 15 21 38q7 12 25 34q14 16 27 23q6 2 16 2q7 -1 16 -1q16 38 43 68q27 31 65 42q13 4 29 4q17 0 30 -4q32 -9 45 -37q8 -18 8 -37q0 -10 -1 -15q-5 -33 -16 -59
q-13 -33 -28 -56q-18 -30 -29 -43q-36 -45 -83 -80q20 -11 40 -11q18 0 39 8q17 7 35 22q19 16 32 31q20 24 29 37q27 38 71 85q42 43 90 71q68 39 128 39q43 0 87 -21q43 -21 63 -56q18 -36 18 -77q-2 -46 -20 -87q-19 -42 -51 -74q-5 -8 -14 -8q-10 0 -16 6t-6 14z
M157 260v-2q0 -8 -6 -11q-3 -1 -7 -5l-9 -9q-8 -27 -8 -60q0 -21 6 -42q11 -42 32 -63q20 14 44 37q18 17 40 42q10 13 24 36q15 24 26 50q12 31 16 54q2 12 2 18q0 15 -6 27q-9 20 -33 24q-8 2 -23 2q-13 0 -20 -2q-30 -7 -53 -33q-20 -23 -35 -54q9 -2 10 -9zM76 138
q-13 -31 -14 -59v-17q0 -10 3 -18q1 -8 8 -13q4 -3 12 -3q14 0 34 10q12 6 26 16q-25 28 -35 71q-7 30 -7 51l1 17q-16 -24 -28 -55z" />
    <glyph glyph-name="p.001" unicode="&#xe00f;" horiz-adv-x="925" 
d="M818 31q0 6 5 13q6 6 11 7h4q4 0 10 -3q23 27 38 60q13 34 15 70q0 35 -15 66q-17 31 -52 47q-38 18 -74 18q-14 0 -29 -3q-49 -10 -95 -41q-45 -31 -84 -72l-70 -74q-19 -20 -43 -33t-47 -17q-21 -5 -47 -7l-23 -1l-23 1q-27 -31 -54 -46q-28 -18 -58 -16q-12 2 -21 6
t-14 15q-2 5 -2 14q0 10 4 17q7 13 21 21q13 7 31 12q17 3 31 3q17 23 28 41q15 26 25 49q11 26 18 51q6 26 6 49q-2 28 -12 41t-28 16q-4 1 -13 1q-12 0 -26 -3q-24 -6 -43 -16q-25 -12 -40 -23q-19 -13 -30 -24q-43 -138 -88 -240q-43 -98 -95 -191q-15 -26 -44 -71
q-22 -34 -59 -87q-29 -41 -71 -93q-37 -46 -77 -86q-35 -36 -77 -67q-36 -28 -72 -37q-15 -4 -34 -4q-17 2 -32 6q-14 6 -27 17q-12 14 -16 30q-2 6 0 9t7 5q3 1 9 -1t7 -7q5 -17 14 -22q12 -4 17 -4q14 0 28 8q9 4 23 12q31 20 61 48q31 28 64 66q36 41 62 75l57 77
q18 25 48 70l34 55q41 72 70 135q34 74 69 162q26 68 41 115q23 71 38 127q2 8 12 8h49q6 0 11 -5q3 -4 1 -11l-17 -57q24 17 63 34q42 17 83 17q34 0 62 -12q29 -15 40 -57q4 -20 4 -30q0 -8 -2 -22q-4 -29 -15 -57q-10 -29 -24 -54q-10 -19 -28 -45q36 -1 77 8q38 9 69 41
q46 50 77 81q39 41 90 74q49 31 102 41q14 3 29 3q40 0 82 -21q43 -21 63 -56q18 -36 18 -77q-2 -46 -20 -87q-19 -42 -51 -74q-5 -8 -14 -8q-10 0 -16 6t-6 14zM214 63q-10 -1 -25 -8q-13 -7 -15 -21q18 7 40 29z" />
    <glyph glyph-name="q.001" unicode="&#xe010;" horiz-adv-x="889" 
d="M782 31q0 6 5 13q6 6 11 7h4q4 0 10 -3q23 27 38 60q13 34 15 70q0 35 -15 66q-17 31 -52 47q-40 19 -76 19q-15 0 -28 -3q-51 -11 -97 -40q-45 -29 -84 -71q-34 -35 -67 -77l-55 -74q-26 -37 -68 -85q-41 -46 -73 -73q-37 -31 -74 -39q2 -35 -2 -64q-4 -34 -12 -69
q-9 -34 -21 -66q-14 -34 -27 -56q-14 -23 -34 -39q-23 -15 -44 -21q-14 -2 -21 -2q-11 0 -23 3q-21 8 -34 29q-8 14 -8 34q0 10 1 15q5 33 16 68q14 40 31 76q25 53 38 76q19 37 36 66q14 26 27 46l71 118l-34 -23q-19 -12 -36 -20q-21 -10 -47 -15q-4 -1 -12 -1
q-20 0 -34 11q-18 13 -22 34q-1 6 -1 18q0 15 2 22q3 18 14 47q13 32 41 76t56 75q33 38 64 61q35 27 64 34q20 4 29 4q13 0 28 -5q26 -11 42 -38l11 21q5 9 6 15q3 7 12 7h49q6 0 11 -5q3 -6 0 -12q-21 -50 -50 -106q-26 -50 -63 -115l-130 -216l-13 -20q6 -5 11 -19l5 -21
q32 8 68 39q35 30 71 73q28 33 65 84l54 71q25 33 74 83q40 41 89 72q48 30 103 39q16 2 24 2q44 0 87 -21t63 -56q18 -36 18 -77q-2 -46 -20 -87q-19 -42 -51 -74q-5 -8 -14 -8q-10 0 -16 6t-6 14zM311 316q-9 20 -20 30q-4 4 -13 4q-12 0 -22 -5q-28 -11 -59 -42
q-31 -30 -61 -69q-30 -40 -50 -78q-21 -40 -27 -72q-2 -12 -1 -19q0 -11 4 -18q5 -8 12 -9h4q7 0 15 4q32 17 59 38q28 21 54 45l53 95zM64 -270q-15 -32 -28 -72q-11 -33 -13 -62v-5q0 -15 7 -22q7 -6 19 -3q9 3 24 14q12 10 20 25q11 19 25 53q14 42 20 63q7 32 12 65
q3 36 2 60l-14 3q-7 2 -11 9l-30 -58q-19 -34 -33 -70z" />
    <glyph glyph-name="r.001" unicode="&#xe011;" horiz-adv-x="795" 
d="M688 31q0 6 5 13q6 6 11 7h4q4 0 10 -3q23 27 38 60q13 34 15 70q0 35 -15 66q-17 31 -52 47q-40 19 -76 19q-14 0 -28 -3q-51 -11 -97 -40q-45 -29 -84 -71q-34 -35 -67 -77q-10 -13 -34 -37q-23 -23 -52 -43q-30 -21 -61 -31q-26 -8 -49 -8q-12 0 -18 1q-27 3 -43 19
q-17 15 -14 44q1 20 13 48q11 26 26 52q15 28 30 50l29 42q12 18 14 28q2 8 2 12t-2 12q-3 11 -11 22l-17 24l-19 -38l-12 -21l-37 -62q-19 -31 -39 -60q-16 -24 -40 -53q-5 -5 -8 -4q-5 0 -8 3q-3 1 -5 7q-2 5 3 9q30 39 41 55l40 62q6 9 37 64l32 61q-7 12 -16 38
q-8 24 -8 47q-1 22 8 42q8 18 31 23l9 1q4 0 10 -2q10 -6 14 -11q5 -9 8 -17q2 -14 2 -20q0 -18 -7 -39q-9 -28 -18 -49q14 -16 27 -27l23 -20l25 -23q10 -10 13 -20v-5q0 -8 -3 -19q-3 -9 -19 -34q-3 -3 -13 -18q-11 -14 -21 -33l-24 -40q-14 -21 -21 -42q-7 -17 -13 -38
q-2 -10 -2 -14q0 -9 3 -15q6 -14 20 -14h5q10 0 23 5q10 3 28 13q14 8 18 12q27 19 49 41q24 23 37 40l48 55q26 29 54 54t62 45q34 21 67 31q30 9 62 9q43 0 83 -20q43 -21 63 -56q18 -36 18 -77q-2 -46 -20 -87q-19 -42 -51 -74q-5 -8 -14 -8q-10 0 -16 6t-6 14zM184 478
l-2 17q-1 10 -12 8q-14 -3 -17 -14q-4 -10 -2 -26q2 -15 6 -28q5 -16 9 -22q18 39 18 65z" />
    <glyph glyph-name="s.001" unicode="&#xe012;" horiz-adv-x="798" 
d="M691 31q0 6 5 13q6 6 11 7h4q4 0 10 -3q23 27 38 60q13 34 15 70q0 35 -15 66q-17 31 -52 47q-40 19 -76 19q-14 0 -28 -3q-51 -10 -98 -39q-45 -29 -84 -71q-39 -41 -66 -78q-41 -56 -70 -78q-31 -25 -61 -26q-14 -23 -31 -40q-22 -22 -42 -34q-33 -19 -61 -19
q-18 0 -37 8q-17 8 -28 25q-10 16 -15 43q-3 28 8 56q11 27 40 38q4 2 12 2q9 0 13 -2q21 -7 29 -11l28 -15q10 -6 25 -13q10 24 13 59t3 70l-3 72l-3 62l-80 -97q-52 -63 -76 -98q-3 -5 -8 -5t-8 3q-4 1 -6 7q-2 5 3 9q43 61 85 110l89 108q0 31 3 56q1 23 8 45q9 26 27 37
q12 8 29 8q19 0 31 -15q6 -9 6 -19q0 -9 -2 -14q-5 -14 -11 -22l-15 -20q-2 -15 -2 -47q0 -28 1 -43l5 -98q1 -16 1 -49q0 -31 -1 -47q-1 -43 -16 -82q23 5 46 28t57 69q30 40 72 84q42 43 90 71q66 39 127 39q44 0 87 -21t63 -56q18 -36 18 -77q-2 -46 -20 -87
q-19 -42 -51 -74q-5 -8 -14 -8q-10 0 -16 6t-6 14zM145 17q6 6 9 14q-8 3 -19 10l-26 14q-12 7 -26 12q-11 4 -17 2q-19 -8 -27 -27q-5 -14 -5 -32q0 -25 9 -34t18 -10h6q4 0 16 2q16 6 23 11q22 15 39 38z" />
    <glyph glyph-name="t.001" unicode="&#xe013;" 
d="M-46 518q0 5 3 8q4 4 9 4q4 0 8 -3q48 -47 94 -63q46 -17 88 -14q32 52 64 97q26 37 40 55q3 4 9 4h50q8 0 11 -6q1 -2 1 -5t-3 -8q-8 -8 -31 -41q-25 -35 -47 -72q42 20 81 48l74 56l46 36q22 17 55 36q29 15 58 21q5 1 14 1q23 0 42 -10q36 -20 47 -55q7 -22 7 -49
q0 -8 -2 -26q-8 -42 -26 -77q-20 -39 -45 -61q-4 -7 -13 -7q-10 0 -16 5.5t-6 13.5q0 12 10 18q6 2 9 2q5 0 11 -3q19 22 32 50q16 31 20 63q2 16 2 24q0 17 -5 37q-8 29 -36 44q-14 8 -29 8q-9 0 -18 -3q-30 -8 -53 -22q-30 -18 -49 -34l-40 -31q-48 -36 -92 -68
q-45 -32 -101 -53l-47 -79q-31 -52 -49 -89q-26 -50 -41 -90q-18 -48 -23 -82q-2 -16 -2 -22q0 -20 7 -30q12 -19 36 -19q16 0 36 6q24 8 44 21q32 22 52 42q23 23 33 39q3 4 8 6q2 0 8 -2q5 -3 6 -7q2 -5 -2 -10q-12 -19 -35 -42q-28 -28 -57 -46q-21 -14 -59 -25
q-27 -8 -59 -8q-43 0 -69 19q-24 17 -23 57q0 27 9 58q8 32 26 76q13 31 37 77q20 39 41 73l36 62q-44 2 -89 21q-47 20 -93 65q-4 4 -4 9z" />
    <glyph glyph-name="u.001" unicode="&#xe014;" horiz-adv-x="903" 
d="M796 31q0 6 5 13q6 6 11 7h4q4 0 10 -3q23 27 38 60q13 34 15 70q0 35 -15 66q-17 31 -52 47t-69 18q-34 0 -67 -11q-29 -10 -62 -31q-28 -17 -58 -44q-27 -25 -51 -51q-18 -20 -43 -51l-36 -41q-23 -28 -51 -47q-17 -12 -36 -20q-23 -9 -45 -12q-14 -2 -22 -2
q-12 0 -24 3q-22 4 -37 19q-11 11 -14 26q-3 12 -3 23q0 23 5 40q4 20 7 29l-36 -45q-22 -27 -50 -51q-29 -24 -58 -36q-17 -7 -29 -7t-28 7q-16 8 -20 24q-4 14 -2 39q1 13 6 30l11 35q11 33 27 68q13 31 32 68q12 24 34 62q19 32 29 46q5 5 11 5h49q8 0 11 -7q1 -2 1 -5
t-3 -8q-18 -26 -35 -56q-18 -31 -36 -68q-22 -48 -31 -71q-16 -37 -23 -63q-5 -12 -6 -27l-1 -11q0 -6 2 -14q1 -11 13 -11q10 0 27 13q28 22 53 54q26 31 51 69q16 24 46 74l70 124q4 7 12 7h49q8 0 11 -6t-1 -12l-36 -66q-20 -34 -39 -74q-20 -40 -33 -76q-14 -39 -17 -71
q-2 -28 7 -39q7 -11 23 -13h4q10 0 28 7q18 8 32 18q24 17 46 42l37 44q25 33 74 83q40 42 90 72q48 30 103 39q16 2 24 2q43 0 87 -21q43 -21 63 -56q18 -36 18 -77q-2 -46 -20 -87q-19 -42 -51 -74q-5 -8 -14 -8q-10 0 -16 6t-6 14z" />
    <glyph glyph-name="v.001" unicode="&#xe015;" horiz-adv-x="814" 
d="M707 31q0 6 5 13q6 6 11 7h4q4 0 10 -3q23 27 38 60q13 34 15 70q0 35 -15 66q-17 31 -52 47q-40 19 -76 19q-14 0 -28 -3q-51 -10 -98 -39q-45 -29 -84 -71t-66 -78q-13 -17 -34 -33q-24 -18 -46 -26q-23 -7 -37 -7q-33 0 -48 28l-34 -33q-19 -17 -37 -27
q-18 -11 -41 -16q-5 -1 -14 -1q-14 0 -32 5q-22 6 -34 19q-13 14 -18 30q-4 18 -4 29q0 22 8 48q12 42 28 73l30 58q24 46 45 77q23 33 33 42q4 3 9 3h49q9 0 12 -8v-4q0 -6 -4 -9q-10 -10 -21 -26t-30 -47q-8 -13 -32 -59q-15 -30 -30 -65l-11 -29q-5 -13 -11 -41
q-5 -23 -5 -39q0 -19 11 -27q8 -6 16 -6q5 0 17 4q16 6 38 23q18 15 34 31q17 17 20 21l-1 14q0 16 7 49q9 39 25 76q17 38 36 72q20 33 36 51q9 9 20 16q7 5 14 5q3 0 9 -2q13 -4 18 -22q2 -18 2 -24q0 -28 -18 -64q-18 -37 -37 -66q-18 -29 -44 -63q-18 -24 -41 -49
q4 -12 11.5 -17t19.5 -5q16 0 31 7q16 6 39 22q18 13 26 25q35 46 76 87q44 45 91 74q50 30 104 39q16 2 24 2q43 0 87 -21q43 -21 63 -56q18 -36 18 -77q-2 -46 -20 -87q-19 -42 -51 -74q-5 -8 -14 -8q-10 0 -16 6t-6 14zM255 176l27 38q1 2 11 17q20 32 32 57q14 29 15 49
q1 5 1 14q0 5 -2 11q-1 3 -6 1t-14 -11q-14 -16 -31 -43q-22 -38 -31 -59q-14 -32 -24 -63t-12 -54z" />
    <glyph glyph-name="w.001" unicode="&#xe016;" horiz-adv-x="1058" 
d="M951 31q0 6 5 13q6 6 11 7h4q4 0 10 -3q23 27 38 60q13 34 15 70q0 35 -15 66q-17 31 -52 47q-39 18 -76 18q-19 0 -28 -2q-50 -10 -97 -39q-46 -29 -84 -69q-40 -43 -65 -78q-12 -16 -37 -34q-26 -19 -53 -27q-18 -7 -38 -7q-10 0 -15 1q-25 3 -37 30q-16 -16 -41 -36
q-21 -15 -50 -31q-27 -14 -55 -18q-14 -2 -20 -2q-17 0 -35 6q-20 6 -30 19q-12 14 -16 28q-5 18 -5 34q0 19 3 35l-14 -18q-7 -10 -15 -18q-12 -14 -23 -25q-14 -14 -32 -27q-16 -12 -36 -22q-14 -7 -30 -7q-17 0 -29 10q-10 8 -15 18q-5 11 -6 24q-1 5 -1 14t1 13l4 25
l8 29q15 45 26 70q15 37 33 72q15 31 35 63q17 26 33 41q4 4 9 4h50q8 0 11 -8q1 -2 1 -5q0 -6 -5 -9q-18 -16 -37 -50q-19 -32 -40 -78q-20 -43 -33 -82q-14 -38 -19 -64q-3 -15 -3 -25q0 -11 4 -15t9 -4t11 3q14 8 29 23l27 28q23 27 40 50q13 17 35 53q7 20 18 39
q6 13 20 37q3 6 11 6h49q6 0 11 -6q4 -6 0 -12l-10 -19q-12 -22 -16 -31q-11 -22 -17 -39q-8 -20 -16 -44l-6 -25q-3 -12 -5 -32v-6q0 -9 4 -23q5 -13 18 -18q9 -3 18 -3q12 0 23 4q21 7 43 21q18 11 40 32q18 17 29 29q-1 4 -1 14q0 20 6 48q7 35 21 73q14 36 30 69
q16 30 34 50q9 9 19 16q7 5 14 5q3 0 9 -2q13 -4 18 -19q3 -15 3 -28q0 -17 -9 -43q-13 -33 -26 -57q-16 -29 -38 -62q-27 -40 -47 -62q-1 -3 -8 -10q6 -25 25 -28q4 -1 12 -1q14 0 29 6q20 7 43 23q21 15 30 27q37 46 77 88q46 46 92 74q50 30 103 39q16 2 24 2
q44 0 87 -21t63 -56q18 -36 18 -77q-2 -46 -20 -87q-19 -42 -51 -74q-5 -8 -14 -8q-10 0 -16 6t-6 14zM494 195q15 22 34 56q15 30 23 50q8 24 8 38q0 15 -5 20q-1 1 -3 1q-5 0 -14 -10q-16 -18 -28 -42q-16 -32 -26 -57q-13 -33 -20 -60q-9 -36 -10 -52q15 18 41 56z" />
    <glyph glyph-name="x.001" unicode="&#xe017;" horiz-adv-x="1001" 
d="M894 31q0 6 5 13q6 6 11 7h4q4 0 10 -3q23 27 38 60q13 34 15 70q0 34 -15 66q-17 31 -52 47q-36 17 -70 18q-33 0 -66 -11q-31 -11 -63 -32q-32 -22 -57 -46q-25 -23 -52 -51l-44 -50q-12 -14 -39 -40q-25 -25 -57 -45q-24 -16 -51 -23q-28 -9 -56 -9q-28 -1 -56 8
q-26 9 -48 29q-18 -15 -37 -25q-22 -11 -44 -11q-18 0 -28 7q-10 6 -18 17q-6 9 -10 25q-3 14 -3 29q0 12 12 12t12 -12t1 -19q2 -11 5 -17q6 -10 11 -13q8 -5 18 -5q19 0 35 10q14 8 30 20q-15 21 -16 50q-1 10 -1 31t1 32q1 20 7 67q3 26 3 46q0 38 -10 59q-11 21 -40 21
q-19 0 -36 -15q-21 -19 -39 -48q-18 -28 -33 -63l-27 -62l-12 -29l-11 -22q-3 -5 -7 -6q-3 -1 -9 1q-4 1 -6 7q-2 5 1 9q7 11 10 21q4 12 12 28l24 56q16 36 29 58q15 27 34 49q20 23 40 33q23 11 51 13q29 0 50 -10t39 -31q16 -23 16 -64q0 -21 -1 -32l-6 -44
q-4 -22 -6 -45q-3 -22 -3 -45q26 41 31 49l34 58q18 30 39 60q20 29 43 52q22 21 47 35q21 11 45 11q33 0 45 -29q4 -14 4 -22q0 -11 -5 -26q-9 -25 -23 -44q-3 -4 -8 -4q-4 -1 -9 2q-5 5 -5 9t3 8q10 12 18 32q4 9 4 22q0 5 -2 15q-4 12 -17 13q-24 1 -46 -12
q-22 -15 -45 -39q-23 -26 -43 -56q-25 -37 -39 -62l-36 -60q-11 -20 -31 -48q8 -29 25 -42q19 -16 48 -16q18 0 39 6q28 9 44 20q17 11 31 22l26 23q12 11 20 20l12 14q41 50 77 86q42 43 91 73q50 30 103 39q9 2 27 2q44 0 84 -20q43 -21 63 -56q18 -36 18 -77
q-2 -46 -20 -87q-19 -42 -51 -74q-5 -8 -14 -8q-10 0 -16 6t-6 14z" />
    <glyph glyph-name="y.001" unicode="&#xe018;" horiz-adv-x="855" 
d="M748 31q0 6 5 13q6 6 11 7h4q4 0 10 -3q23 27 38 60q13 34 15 70q0 35 -15 66q-17 31 -52 47q-36 17 -70 18q-34 0 -66 -12q-33 -12 -62 -33q-30 -21 -57 -45q-27 -26 -51 -51l-46 -49q-56 -59 -121 -106q-68 -48 -138 -83l-46 -76l-60 -96l-70 -104q-33 -47 -75 -95
q-36 -41 -76 -72q-39 -30 -73 -34q-4 -1 -12 -1q-18 0 -28 9q-15 12 -22 34q-5 18 -5 34q0 11 1 16q5 29 16 52q13 28 30 53q21 30 42 53q21 24 61 60q38 35 74 61q45 33 79 53q40 25 77 40l91 147l87 149l-49 -63q-34 -42 -50 -59l-25 -27q-22 -22 -34 -32q-20 -16 -37 -24
q-13 -7 -25 -7q-6 0 -9 1q-18 4 -26 22q-5 15 -5 31q0 23 6 48l10 32q11 32 25 65q9 23 31 67l33 63q20 35 31 49q3 6 10 6h50q8 0 11 -7q1 -2 1 -5t-3 -8q-15 -22 -36 -59t-38 -74q-19 -42 -32 -77q-15 -37 -21 -66q-7 -27 -5 -40q0 -3 3 -3q7 0 22 15l22 21l23 25
q32 35 69 83l64 86l49 69l23 34q3 7 11 7h49q6 0 11 -5q3 -4 1 -12q-6 -16 -29 -60l-52 -94l-68 -117l-77 -128q58 33 115 75q56 42 101 90l77 80q39 41 90 74q48 31 102 42q14 3 29 3q40 0 82 -21q43 -21 63 -56q18 -36 18 -77q-2 -46 -20 -87q-19 -42 -51 -74
q-5 -8 -14 -8q-10 0 -16 6t-6 14zM-188 -450q29 29 53 60q26 32 52 70l49 74l43 69l35 57q-32 -17 -58 -33q-32 -20 -66 -45q-37 -28 -66 -55q-31 -27 -61 -60q-38 -42 -63 -88q-20 -37 -20 -69q0 -38 16 -36q13 3 34 15q23 13 52 41z" />
    <glyph glyph-name="z.001" unicode="&#xe019;" horiz-adv-x="871" 
d="M764 31q0 6 5 13q6 6 11 7h4q4 0 10 -3q23 27 38 60q13 34 15 70q0 35 -15 66q-17 31 -52 47q-40 19 -76 19q-15 0 -28 -3q-51 -10 -98 -39q-45 -29 -84 -71q-39 -41 -66 -78q-25 -33 -52 -59q-37 -36 -65 -56q-38 -30 -69 -50q-42 -26 -69 -41q-8 -38 -31 -79
q-22 -39 -59 -88q-36 -46 -78 -86q-48 -45 -88 -74q-47 -34 -87 -52t-73 -18q-49 0 -65 30q-9 18 -9 42q0 13 3 28q7 34 36 67q28 32 71 63t74 47q43 24 74 39q25 12 77 34l78 35q6 24 6 46q0 14 -3 28q-11 38 -19 59q-6 15 -11.5 31.5t-5.5 29.5q0 19 14 41q10 15 31 30
l37 25q17 11 28 24q6 8 6 15q0 5 -3 11q-4 11 -16 22q-26 23 -25 22q-19 -41 -49 -84q-29 -43 -69 -83q-4 -4 -9 -3q-5 0 -8 3q-2 2 -4 8q0 5 4 9q40 40 69 83q31 46 47 83q-16 15 -23 24q-7 11 -7 22q0 13 10 25q7 7 20 12q9 3 16 3q12 0 19 -7q3 -4 5 -13q1 -2 1 -8
q0 -5 -1 -8l-2 -15q10 -10 23 -20l26 -20q9 -7 24 -22q11 -12 18 -24q8 -16 8 -26q0 -5 -4 -15q-8 -15 -27 -29q-15 -11 -41 -26q-23 -14 -34 -32q-10 -14 -10 -28q0 -7 1 -10q5 -21 13 -40l18 -47q9 -27 8 -55q42 24 61 37q42 30 63 47q27 21 58 51q27 27 48 54
q37 48 75 88q42 44 92 74t104 39q16 2 25 2q44 0 87 -21t63 -56q18 -36 18 -77q-2 -46 -20 -87q-19 -42 -51 -74q-5 -8 -14 -8q-10 0 -16 6t-6 14zM-181 -420q31 18 66 47q37 32 65 60q33 33 60 66q29 36 47 63q21 34 29 54l-143 -64q-71 -33 -136 -80q-39 -28 -65 -57
q-27 -28 -33 -58q-3 -12 -3 -22q0 -18 10 -27q13 -10 28 -10q5 0 15 2q31 8 60 26z" />
    <glyph glyph-name="a.002" unicode="&#xe01a;" horiz-adv-x="997" 
d="M34 63q-10 -29 -10 -59q0 -51 29 -87q25 -30 72 -37q19 -3 38 -3q40 0 76 15q54 25 99 64q43 37 86 90l75 89q11 46 41 97q29 50 70 87q43 40 99 59q33 11 63 11q27 0 51 -7q6 -2 8 -5q2 -4 0 -9q-4 -12 -15 -9q-15 4 -31 4q-25 0 -46 -10q-37 -18 -68 -49t-54 -71
q-24 -41 -36 -73q-3 -7 -6 -21q-4 -13 -6 -30q-2 -11 -4 -33v-8q0 -12 3 -21q5 -12 13 -18q5 -3 11 -3q4 0 14 2q19 6 45 29q19 17 53 56q22 27 55 72l52 75l46 69l32 52q3 6 10 6h50q6 0 11 -5q3 -6 0 -12l-27 -56l-26 -51q-10 -19 -28 -59t-25 -59q-11 -27 -19 -55
q-4 -13 -6 -28q-2 -10 -2 -15l1 -8q1 -9 10 -14q6 -2 10 -2t16 2q17 5 37 17q22 13 39 28q18 17 33 33q14 16 24 32q3 4 8 6q2 0 8 -2q5 -3 6 -7q2 -6 -1 -10q-12 -18 -27 -35q-11 -13 -37 -35q-19 -16 -42 -30q-22 -13 -41 -19q-13 -4 -25 -5q-18 -2 -28 -2q-14 0 -28 3
q-14 5 -21 13q-13 14 -13 42q0 18 4 35q10 36 19 58q14 37 27 64q-11 -16 -35 -48l-15 -20q-17 -22 -53 -62q-27 -31 -50 -49q-26 -21 -46 -27q-9 -2 -25 -4q-4 -1 -11 -1q-11 0 -16 1q-13 1 -26 8q-14 5 -21 15q-12 13 -15 31q-4 14 -2 33l-75 -88q-40 -46 -85 -82
q-45 -35 -97 -54q-33 -12 -69 -12q-24 0 -44 4q-33 6 -56 20q-22 13 -38 34q-15 21 -21 45q-6 21 -6 42q0 48 19 92q18 41 50 73q4 6 14 8q8 0 16 -6q6 -6 6 -13q0 -9 -4 -13q-5 -7 -12 -8h-4q-5 0 -11 3q-26 -29 -40 -70z" />
    <glyph glyph-name="b.002" unicode="&#xe01b;" horiz-adv-x="862" 
d="M34 63q-10 -29 -10 -59q0 -51 29 -87q25 -30 72 -37q19 -3 38 -3q40 0 76 15q54 25 99 64q43 37 86 90l75 89q31 105 74 204q44 99 88 177q26 47 41 71l55 86q22 33 65 91q33 44 70 86q36 41 72 72q35 31 70 46q22 9 40 14q24 4 36 4q27 0 46 -12q16 -10 24 -35
q2 -4 0 -9q-3 -4 -8 -6t-9 1q-4 1 -6 7q-4 15 -14 22q-10 5 -17 5q-14 0 -28 -8q-13 -6 -23 -13q-34 -21 -63 -50q-33 -32 -66 -69q-29 -34 -64 -81l-59 -85l-51 -80q-11 -17 -40 -68q-30 -54 -50 -96q-26 -54 -47 -104q7 8 29 26q13 11 36 23q17 8 39 13q7 2 20 2
q14 0 20 -2q23 -4 34 -20q8 -14 10 -35q0 -22 -7 -44q-9 -27 -16 -46q-14 -29 -20 -41q-10 -19 -18 -30l-21 -32q-7 -11 -23 -31q36 0 73 9q36 7 71 38q3 3 7 3q5 0 9 -4q3 -4 3 -8q0 -5 -4 -9q-46 -39 -89 -46q-45 -8 -89 -6q-25 -28 -45 -47q-22 -22 -45 -33
q-16 -9 -30 -10l-11 -1q-9 0 -18 3q-14 5 -22 16q-6 11 -6 25q0 24 14 38q12 13 29 21q14 7 37 10q20 3 35 3q16 18 31 40q10 14 28 42l18 33q13 22 24 50q10 23 13 49q2 24 -14 31q-3 2 -11 2q-9 0 -17 -4q-19 -10 -32 -22q-11 -9 -29 -29q-12 -13 -19 -24q-13 -18 -24 -41
q-10 -19 -18 -41l-12 -37q-8 -26 -11 -39q-2 -11 -12 -9h-49q-5 -2 -8 2l-76 -89q-39 -46 -86 -84q-49 -38 -98 -56q-33 -12 -69 -12q-25 0 -45 4q-33 6 -56 20q-22 13 -38 34q-15 21 -21 45q-6 21 -6 42q0 48 19 92q18 41 50 73q4 6 14 8q8 0 16 -6q6 -6 6 -13q0 -9 -4 -13
q-5 -7 -12 -8h-4q-5 0 -11 3q-26 -29 -40 -70zM615 64l-20 -3q-8 -2 -22 -8q-10 -4 -19 -13q-7 -7 -9 -19q-1 -12 3 -12h1q2 0 10 4q27 19 56 51z" />
    <glyph glyph-name="c.002" unicode="&#xe01c;" horiz-adv-x="847" 
d="M34 63q-10 -29 -10 -59q0 -51 29 -87q25 -30 72 -37q19 -3 38 -3q40 0 76 15q54 25 99 64q43 37 86 90l75 89q6 31 16 52q11 27 35 62q20 28 47 57q28 28 57 46q34 21 65 29q10 3 29 6q18 3 37 3q18 -2 33 -6q14 -6 18 -21q1 -3 1 -9q0 -12 -9 -27q-12 -19 -26 -27
q-6 -2 -7 -2q-6 0 -10 6q-2 4 -2 7q0 6 7 10q8 5 15 13q6 6 8 16q0 6 -8 11q-2 1 -7 1q-10 0 -23 -4q-27 -7 -56 -25q-30 -20 -50 -40q-21 -20 -43 -50q-23 -32 -34 -55l-13 -32q-7 -16 -10 -37q-4 -16 -2 -37q2 -20 10 -33q12 -16 32 -21q12 -3 26 -3q10 0 15 1q19 3 43 11
q35 14 34 13q31 15 62 37q28 20 58 48q3 3 7 3q6 0 10 -4q2 -2 4 -8q0 -5 -4 -9q-24 -23 -62 -50q-34 -23 -65 -38q-27 -13 -54 -19q-34 -10 -73 -10q-27 0 -54 8q-29 9 -46 35q-14 22 -14 52l-76 -90q-43 -49 -86 -84q-47 -38 -98 -57q-33 -12 -70 -12q-25 0 -45 4
q-33 6 -56 20q-22 13 -38 34q-15 21 -21 45q-6 21 -6 42q0 48 19 92q18 41 50 73q4 6 14 8q8 0 16 -6q6 -6 6 -13q0 -9 -4 -13q-5 -7 -12 -8h-4q-5 0 -11 3q-26 -29 -40 -70z" />
    <glyph glyph-name="d.002" unicode="&#xe01d;" horiz-adv-x="1061" 
d="M34 63q-10 -29 -10 -59q0 -51 29 -87q25 -30 72 -37q19 -3 38 -3q40 0 76 15q54 25 99 64q43 37 86 90l75 89q-2 36 11 68q12 34 28 62q20 34 51 62q30 27 68 44q37 17 81 17q38 0 72 -21q20 -14 32 -25l86 167q44 82 97 160q26 39 51 74q27 37 65 84q38 45 70 78
q37 37 70 57q18 12 45 21q24 8 52 10q24 0 46 -11t29 -39q1 -3 -1 -9q-3 -4 -8 -6l-4 -1q-7 0 -10 9q-4 15 -14 22q-10 5 -18 5q-14 0 -28 -8q-13 -6 -23 -13q-33 -20 -69 -56q-36 -35 -69 -75q-30 -36 -63 -82l-51 -73q-17 -24 -47 -73q-33 -53 -63 -106q-33 -58 -63 -123
q-27 -56 -50 -124q-22 -68 -22 -118q0 -40 20 -65q15 -17 35 -17q18 -1 40 7q14 6 32 17q21 13 34 24q18 15 30 28q10 11 20 29q3 4 8 6q3 1 8 -1q5 -1 6 -6q2 -6 -1 -10q-5 -12 -22 -32q-17 -19 -33 -32q-19 -16 -37 -27q-19 -12 -36 -18q-26 -10 -60 -10q-46 0 -75 21
q-26 19 -37 46q-10 25 -9 56q-34 -46 -68 -68q-35 -23 -66 -26q-20 -2 -30 -2q-21 0 -37 4q-31 8 -54 39q-9 13 -14 30l-77 -92q-39 -48 -87 -88q-47 -38 -101 -59q-37 -14 -75 -14q-13 0 -43 4q-33 6 -56 20q-22 13 -38 34q-15 21 -21 45q-6 21 -6 42q0 48 19 92
q18 41 50 73q4 6 14 8q8 0 16 -6q6 -6 6 -13q0 -9 -4 -13q-5 -7 -12 -8h-4q-5 0 -11 3q-26 -29 -40 -70zM798 346q-29 17 -57 14q-29 -5 -52 -19q-26 -17 -45 -40q-22 -26 -35 -48q-32 -55 -38 -94q-3 -15 -3 -29q0 -19 7 -38q8 -20 25 -28q16 -9 36 -7q34 5 56 22
q22 16 39 38q15 17 28 39q11 18 21 24q6 29 22 71q18 46 29 68q-16 18 -33 27z" />
    <glyph glyph-name="e.002" unicode="&#xe01e;" horiz-adv-x="800" 
d="M34 63q-10 -29 -10 -59q0 -51 29 -87q25 -30 72 -37q19 -3 38 -3q40 0 76 15q54 25 99 64q43 37 86 90l75 89q7 35 25 79q16 36 43 71q26 33 58 57t74 37q15 4 35 6l14 1q12 0 21 -3q14 -4 22 -17q3 -4 3 -12q0 -10 -6 -24q-10 -22 -37 -53q-24 -28 -64 -66
q-37 -35 -69 -59q-32 -25 -55 -34q-2 -22 -2 -30q0 -19 4 -30q8 -23 25 -32q11 -6 26 -6q5 0 17 2q24 4 57 23q24 14 35 23l31 24l26 24l18 19q4 4 9 4q2 0 8 -2q3 -2 5 -8q2 -4 -3 -9q-12 -14 -47 -46q-26 -24 -70 -50q-18 -10 -38 -17q-24 -8 -43 -11q-18 -2 -26 -2l-18 1
q-22 1 -40 12q-24 13 -33 38q-9 24 -9 50l-76 -90q-42 -48 -85 -84q-47 -38 -98 -57q-33 -12 -70 -12q-25 0 -45 4q-33 6 -56 20q-22 13 -38 34q-15 21 -21 45q-6 21 -6 42q0 48 19 92q18 41 50 73q4 6 14 8q8 0 16 -6q6 -6 6 -13q0 -9 -4 -13q-5 -7 -12 -8h-4q-5 0 -11 3
q-26 -29 -40 -70zM617 181q22 18 61 54q21 20 55 58q25 28 33 47q2 8 -1 13t-11 3q-32 -6 -61 -29q-29 -22 -54 -53q-26 -32 -43 -65q-19 -33 -28 -64q16 9 49 36z" />
    <glyph glyph-name="f.002" unicode="&#xe01f;" horiz-adv-x="788" 
d="M34 63q-10 -29 -10 -59q0 -51 29 -87q25 -30 72 -37q19 -3 38 -3q40 0 76 15q54 25 99 64q43 37 86 90l75 89q30 71 64 140q33 69 69 132q28 52 70 117q38 60 65 93q26 32 56 59t61 43q9 5 28 12q22 6 34 8q6 1 17 1t16 -1q16 -1 27 -11q12 -9 9 -29q-6 -24 -20 -49
q-21 -39 -51 -84q-35 -52 -68 -94l-78 -98l-81 -96l-78 -86q-41 -45 -69 -71l-16 -42q7 3 15 1q7 -3 13 -9q12 -12 16 -30q6 -27 7 -36q23 6 49 20q32 17 52 31q21 15 47 39q20 19 35 40q3 4 8 6q3 0 9 -2q4 -4 5 -7q2 -5 -2 -10q-13 -20 -39 -44q-24 -22 -51 -42
q-33 -23 -57 -34q-30 -16 -54 -20q1 -30 -2 -76q-3 -42 -12 -82q-9 -41 -25 -77q-18 -38 -41 -59q-28 -25 -62 -25q-17 0 -30 7q-19 10 -34 34q-11 19 -11 45q0 56 28 152q21 79 54 165l-72 -83q-39 -43 -81 -74q-42 -30 -92 -47q-29 -10 -63 -10q-23 0 -43 4q-33 6 -56 20
q-22 13 -38 34q-15 21 -21 45q-6 21 -6 42q0 48 19 92q18 41 50 73q4 6 14 8q8 0 16 -6q6 -6 6 -13q0 -9 -4 -13q-5 -7 -12 -8h-4q-5 0 -11 3q-26 -29 -40 -70zM799 415q44 53 98 126q43 58 77 120q6 9 8 13l8 16q3 8 2 15q-1 6 -11 7q-25 1 -55 -18q-31 -22 -63 -58
q-34 -37 -69 -90q-41 -60 -71 -112q-31 -55 -64 -121q-42 -84 -61 -127l97 107zM577 30q-4 17 -12 24q-4 5 -8 1q-2 -2 -4 -8q-2 -8 -2 -13q0 -8 1 -10q3 -11 11 -16q8 -4 18 -6zM548 -240q16 37 23 72q8 43 11 77q2 50 1 70q-20 0 -34 8q-15 10 -19 28q-18 -51 -40 -126
q-21 -72 -25 -129l-1 -13l1 -15q0 -15 5 -27q5 -11 14 -14h2q10 0 24 14q24 22 38 55z" />
    <glyph glyph-name="g.002" unicode="&#xe020;" horiz-adv-x="963" 
d="M34 63q-10 -29 -10 -59q0 -51 29 -87q25 -30 72 -37q19 -3 38 -3q40 0 76 15q54 25 99 64q43 37 86 90l75 89q7 36 30 77q23 40 54 75q33 36 71 61q38 26 76 35q12 3 37 5h10q13 0 27 -3q19 -5 34 -13q18 -11 27 -26q11 22 13 28q3 7 12 7h49q6 0 11 -5q3 -6 0 -12
q-7 -20 -27 -57q-17 -32 -47 -86l-61 -106l-70 -116q58 24 113 55q54 30 105 81q4 4 9 4q6 -2 8 -4t4 -8q0 -5 -4 -9q-29 -29 -61 -52q-35 -25 -63 -41q-30 -17 -65 -33l-67 -28l-15 -24l-40 -67l-54 -87q-24 -37 -65 -96q-31 -42 -71 -88q-33 -37 -72 -68q-47 -33 -84 -33
q-19 0 -29 10q-15 14 -20 35q-4 12 -4 29q0 11 1 16q1 25 9 43q20 53 60 101q41 51 91 90q50 42 105 75q52 31 105 55l47 77l45 76q-17 -13 -36 -27q-13 -9 -39 -23q-18 -9 -46 -14q-16 -2 -25 -2q-8 0 -24 2q-26 5 -42 17q-18 13 -22 37l-77 -90q-44 -52 -86 -86
q-46 -37 -99 -57q-37 -13 -73 -13q-13 0 -43 4q-33 6 -56 20q-22 13 -38 34q-15 21 -21 45q-6 21 -6 42q0 48 19 92q18 41 50 73q4 6 14 8q8 0 16 -6q6 -6 6 -13q0 -9 -4 -13q-5 -7 -12 -8h-4q-5 0 -11 3q-26 -29 -40 -70zM852 320q-18 40 -55 40q-11 0 -23 -3
q-32 -8 -65 -33q-33 -24 -62 -58q-33 -39 -49 -71q-21 -37 -27 -69q-2 -12 -2 -17q0 -10 3 -18q5 -13 15 -18q7 -4 19 -4q17 0 41 11q35 17 66 43q31 24 59 52l45 80q22 38 35 65zM375 -415q27 21 57 56q40 48 58 74q24 34 40 61q2 2 13 19l44 72q23 40 31 51
q-42 -20 -90 -51q-51 -33 -93 -70q-44 -37 -80 -82q-37 -45 -53 -90l-6 -20q-3 -13 -2 -23q0 -10 6 -17q4 -5 15 -5q29 0 60 25z" />
    <glyph glyph-name="h.002" unicode="&#xe021;" horiz-adv-x="962" 
d="M34 63q-10 -29 -10 -59q0 -51 29 -87q25 -30 72 -37q19 -3 38 -3q40 0 76 15q54 25 99 64q43 37 86 90l75 89q20 60 56 150q28 70 74 166q42 87 87 167q43 77 100 153q51 69 108 124q57 54 115 79q23 10 40 13q18 4 41 2q18 -3 36 -14q15 -9 23 -34q2 -4 0 -9
q-3 -4 -8 -6l-4 -1q-8 0 -11 9q-4 15 -14 22q-10 5 -18 5q-14 0 -28 -8q-13 -6 -23 -13q-55 -33 -111 -94q-55 -58 -105 -132q-52 -76 -96 -154q-45 -82 -82 -161q-39 -82 -66 -151q-34 -88 -46 -127q33 55 43 70q16 25 40 59l29 38q21 26 40 44q20 19 45 37q23 16 44 17h5
q16 0 25 -9q10 -13 11 -29q1 -5 1 -17q0 -25 -9 -55q-11 -36 -26 -82q-15 -43 -24 -82q-4 -16 -4 -33q0 -21 7 -38q4 -11 18 -16q3 -1 9 -1q9 0 26 5q16 6 32 19q15 11 31 27q15 15 28 31l24 29q3 5 8 5t9 -3q3 -2 4 -7v-2q0 -5 -3 -8l-26 -32q-14 -16 -30 -33
q-11 -11 -33 -29q-17 -13 -36 -19q-16 -7 -41 -10l-16 -1q-15 0 -27 3q-23 7 -36 18q-19 18 -19 54q0 23 8 57q14 56 23 83l22 73q6 23 6 37q0 7 -1 10q-2 8 -10 5q-12 -7 -19 -14q-8 -7 -24 -25l-24 -27l-19 -23q-5 -7 -9 -11q-61 -83 -135 -227q-4 -7 -11 -7h-49
q-5 0 -10 5q-4 4 -2 10l17 58l-73 -86q-39 -43 -82 -76q-43 -32 -94 -51q-30 -10 -65 -10q-24 0 -44 4q-33 6 -56 20q-22 13 -38 34q-15 21 -21 45q-6 21 -6 42q0 48 19 92q18 41 50 73q4 6 14 8q8 0 16 -6q6 -6 6 -13q0 -9 -4 -13q-5 -7 -12 -8h-4q-5 0 -11 3
q-26 -29 -40 -70z" />
    <glyph glyph-name="i.002" unicode="&#xe022;" horiz-adv-x="713" 
d="M683 416q-5 0 -17 2q3 0 -27 4q-5 2 -7 7t0 10l9 21q5 11 6 20q3 10 13 10h49q5 0 10 -5q3 -4 1 -11q-1 -6 -7 -25q-8 -18 -12 -25q-4 -6 -9 -7zM34 63q-10 -29 -10 -59q0 -51 29 -87q25 -30 72 -37q19 -3 38 -3q40 0 76 15q54 25 99 64q43 37 86 90l75 89q15 35 31 63
l35 62q22 40 31 59q14 29 18 53q2 9 11 9h50q5 0 10 -5q4 -4 2 -10q-6 -27 -27 -68l-44 -84q-20 -36 -43 -84q-19 -40 -24 -71v-9q0 -13 3 -19q5 -8 13 -9h3q7 0 17 5q13 6 22 12q18 12 53 43q36 34 53 53q4 4 9 4t8 -3q3 -2 4 -7q2 -4 -3 -9q-21 -25 -55 -57
q-31 -28 -56 -44q-13 -8 -28 -15q-14 -6 -34 -10q-14 -2 -20 -2l-14 1q-15 1 -30 13q-14 14 -17 32q-1 5 -1 16q0 13 2 20l-73 -86q-39 -43 -82 -76q-44 -33 -94 -50q-29 -10 -64 -10q-24 0 -44 4q-33 6 -56 20q-22 13 -38 34q-15 21 -21 45q-6 21 -6 42q0 48 19 92
q18 41 50 73q4 6 14 8q8 0 16 -6q6 -6 6 -13q0 -9 -4 -13q-5 -7 -12 -8h-4q-5 0 -11 3q-26 -29 -40 -70z" />
    <glyph glyph-name="j.002" unicode="&#xe023;" horiz-adv-x="727" 
d="M717 418q-5 0 -17 2q-4 0 -26 4q-5 2 -7 7q-3 4 -1 10l10 21q5 11 6 20q1 10 12 10h49q6 0 11 -5q2 -4 2 -6q0 -7 -3.5 -16.5t-5.5 -13.5l-11 -25q-4 -6 -9 -7zM41 123q-19 -37 -19 -76q-1 -37 19 -70q20 -32 67 -46q33 -11 63 -11q25 0 52 8q55 16 106 51q49 33 97 78
l86 78l84 147q38 71 46 93q3 7 12 7h49h2q4 0 8 -4q4 -5 2 -12q-5 -12 -28 -57l-47 -87l-61 -106l-70 -117q65 28 113 55q54 30 105 81q4 4 9 4q6 -2 8 -4t4 -8q0 -5 -4 -9q-28 -28 -60 -52q-35 -25 -63 -41q-33 -18 -66 -33l-67 -28l-44 -74l-58 -94q-33 -52 -68 -100
q-41 -57 -73 -91q-40 -43 -74 -69q-45 -34 -83 -34q-19 0 -32 11q-14 14 -19 37q-3 13 -3 28q0 7 2 21q3 24 11 45q21 51 62 98q40 46 90 87q51 42 103 72q54 32 102 54l34 56l33 55q-39 -36 -81 -72q-46 -36 -89 -60q-44 -24 -96 -35q-16 -3 -34 -3q-32 0 -70 11
q-32 11 -53 27q-21 18 -33 40t-16 47q-1 8 -1 23q0 19 2 28q6 43 30 80q22 37 59 66q6 6 15 6q10 -2 15 -8q4 -8 4 -11q0 -9 -6 -15q-6 -5 -13 -6h-3q-3 0 -11 4q-30 -26 -49 -65zM185 -373q41 47 75 97q32 47 67 105l54 88q-37 -17 -88 -50q-49 -31 -90 -67
q-49 -42 -79 -80q-36 -42 -54 -86q-7 -14 -10 -35q-1 -5 -1 -14q0 -11 2 -16q4 -11 15 -16l5 -1q8 0 25 10q37 20 79 65z" />
    <glyph glyph-name="k.002" unicode="&#xe024;" horiz-adv-x="939" 
d="M34 63q-10 -29 -10 -59q0 -51 29 -87q25 -30 72 -37q19 -3 38 -3q40 0 76 15q54 25 99 64q43 37 86 90l75 89q26 77 58 153q31 74 75 167q37 76 89 166q47 81 100 152q55 72 109 122q57 54 114 79q23 10 40 13q18 4 41 2q18 -3 36 -14q15 -9 23 -34q1 -3 -1 -9
q-3 -4 -8 -6t-9 1q-3 1 -5 7q-4 15 -14 22q-10 5 -18 5q-14 0 -28 -8q-13 -6 -23 -13q-49 -31 -96 -79q-49 -49 -95 -110q-40 -53 -88 -130q-40 -65 -78 -137q-39 -71 -66 -133q-30 -68 -48 -115l42 20q14 7 42 25q25 16 39 29q18 15 32 32q12 15 3 20q-10 5 -23 5h-2
q-8 0 -10 9v3q0 7 7 11q9 4 23 7q12 3 25 3q14 0 25 -4q12 -5 18 -14q6 -10 6 -20q-2 -13 -5 -19q-4 -9 -13 -18l-15 -14q-33 -27 -78 -49q-43 -21 -86 -39q33 -9 52 -28q16 -17 28 -43q11 -24 15 -48t12 -44q7 -19 19 -29q8 -6 20 -6q10 0 17 2q20 5 37 16q25 16 40 28
q17 13 36 32q12 12 26 32q2 3 8 5q3 0 9 -2q3 -2 4 -7q2 -5 -2 -10q-9 -14 -29 -34q-18 -19 -39 -36q-23 -18 -43 -30q-22 -13 -42 -18q-24 -6 -42 -6q-12 0 -28 4q-26 7 -43 27t-24 46l-17 52q-8 23 -21 47q-11 20 -35 31q-32 -92 -60 -193q-4 -9 -12 -9h-50q-6 0 -9 5
q-4 4 -2 10l17 58l-73 -85q-37 -41 -82 -77q-43 -32 -94 -51q-30 -10 -65 -10q-24 0 -44 4q-33 6 -56 20q-22 13 -38 34q-15 21 -21 45q-6 21 -6 42q0 48 19 92q18 41 50 73q4 6 14 8q8 0 16 -6q6 -6 6 -13q0 -9 -4 -13q-5 -7 -12 -8h-4q-5 0 -11 3q-26 -29 -40 -70z" />
    <glyph glyph-name="l.002" unicode="&#xe025;" horiz-adv-x="788" 
d="M34 63q-10 -29 -10 -59q0 -51 29 -87q25 -30 72 -37q19 -3 38 -3q40 0 76 15q54 25 99 64q43 37 86 90l75 89q14 38 22 55q1 2 19 42l54 113q32 66 72 141q56 102 86 151q49 81 94 144q45 64 94 116q47 50 88 72q15 8 42 16q20 5 38 5q25 0 49 -13q17 -10 25 -36
q2 -4 0 -9q-3 -4 -8 -6t-9 1q-4 1 -6 7q-4 15 -14 22q-8 5 -17 5q-14 0 -28 -8q-13 -6 -23 -13q-39 -24 -83 -74q-43 -48 -89 -115q-44 -64 -89 -139q-48 -81 -82 -145l-70 -136l-11 -22q-29 -61 -41 -87q-51 -111 -56 -160v-7q0 -10 3 -16q3 -8 10 -11q6 -3 17 -1
q14 2 21 4q16 4 46 16q22 9 52 25q24 13 49 31q23 17 34 32q3 3 9 5q4 0 8 -3q3 -2 5 -7v-2q0 -5 -3 -8q-14 -17 -37 -34q-24 -18 -51 -33q-30 -18 -56 -27q-30 -13 -50 -18q-13 -4 -26 -5q-15 -3 -30 -3q-16 0 -30 3q-15 3 -24 10q-14 11 -17 29q-2 12 -2 19t2 21l-75 -87
q-39 -45 -83 -80q-44 -34 -96 -52q-33 -11 -67 -11q-24 0 -44 4q-33 6 -56 20q-22 13 -38 34q-15 21 -21 45q-6 21 -6 42q0 48 19 92q18 41 50 73q4 6 14 8q8 0 16 -6q6 -6 6 -13q0 -9 -4 -13q-5 -7 -12 -8h-4q-5 0 -11 3q-26 -29 -40 -70z" />
    <glyph glyph-name="m.002" unicode="&#xe026;" horiz-adv-x="1138" 
d="M34 63q-10 -29 -10 -59q0 -51 29 -87q25 -30 72 -37q19 -3 38 -3q40 0 76 15q54 25 99 64q43 37 86 90l75 89l60 120q28 56 57 122q3 8 11 8h50q6 0 11 -5q3 -6 0 -12q-14 -31 -16 -36q-5 -13 -19 -39q23 27 49 55q25 28 61 37q12 3 22 3q18 0 31 -10q17 -14 17 -40
q0 -7 -1 -11q-2 -13 -10 -37q-14 -34 -23 -53l-25 -53l-20 -41l50 61q31 39 69 78t75 69q39 30 68 31h4q15 0 23 -11q6 -9 6 -26q0 -6 -2 -22q-4 -31 -17 -63q-14 -37 -25 -60l-26 -59q-13 -28 -19 -61q-2 -14 -2 -19q0 -14 5 -22q6 -11 22 -11q20 0 43 13q19 11 42 29
t39 34q22 22 29 31q4 4 9 4q2 0 8 -2q3 -2 5 -8q2 -4 -3 -9q-16 -20 -35 -38q-19 -19 -40 -34q-18 -14 -44 -28q-26 -13 -49 -17q-19 -4 -41 -4q-21 2 -36 9q-16 8 -23 24q-5 12 -5 27q0 30 16 73q12 33 23 56l24 56q14 30 20 55l4 14l2 12q-1 4 -5 5h-2q-3 0 -11 -5
q-27 -22 -67 -62q-41 -43 -67 -75l-63 -78l-57 -73q-7 -12 -22 -12q-9 0 -16 5.5t-9 15.5l-1 11l1 13q1 11 6 22l25 49l26 58q12 25 24 58q8 21 16 52q8 30 4 37q-4 6 -14 2q-13 -7 -25 -21q-15 -15 -29 -32q-16 -17 -26 -32l-14 -19q-7 -9 -31 -44l-33 -51l-35 -70l-34 -70
q-3 -7 -12 -7h-48q-6 0 -11 6q-4 4 -1 11l13 26q-37 -43 -69 -77q-38 -38 -78 -66q-40 -29 -87 -42q-29 -8 -57 -8q-13 0 -43 4q-33 6 -56 20q-22 13 -38 34q-15 21 -21 45q-6 21 -6 42q0 48 19 92q18 41 50 73q4 6 14 8q8 0 16 -6q6 -6 6 -13q0 -9 -4 -13q-5 -7 -12 -8h-4
q-5 0 -11 3q-26 -29 -40 -70z" />
    <glyph glyph-name="n.002" unicode="&#xe027;" horiz-adv-x="967" 
d="M35 63q-10 -29 -10 -59q0 -51 29 -87q25 -30 72 -37q20 -3 38 -3q40 0 76 15q54 25 99 64q43 37 86 90l75 89l68 136q24 48 49 107q3 7 11 7h50q12 0 12 -12q0 -4 -1 -5l-35 -77l-44 -89l60 62q34 34 65 59q13 11 27 20q18 13 32 19q15 7 34 12q4 1 11 1q11 0 19 -4
q20 -9 21 -28l1 -14q0 -12 -3 -24q-8 -36 -22 -65l-33 -63q-27 -51 -31 -60q-16 -32 -20 -58q-1 -5 -1 -13q0 -13 7 -16q7 -4 17 -4q7 0 11 1q13 2 34 11q14 6 25 13q38 23 61 43q27 23 42 41q4 4 9 4q2 0 8 -2q3 -2 5 -8q2 -4 -3 -9q-14 -16 -45 -43q-38 -31 -65 -46
q-18 -10 -36 -16q-21 -8 -46 -13q-13 -3 -27 -3q-13 0 -19 1q-21 3 -37 17q-11 10 -13 27l-1 12q0 10 3 19q7 25 22 56l28 54l28 53q12 23 22 56q6 20 6 30q0 11 -8 11t-22 -11l-26 -20q-24 -19 -53 -48l-49 -51l-44 -49q-19 -22 -36 -39l-53 -107q-3 -8 -11 -8h-50
q-7 0 -10 6q-4 6 0 12l14 28q-33 -39 -69 -78q-39 -41 -78 -68q-40 -28 -88 -42q-29 -8 -58 -8q-23 0 -43 4q-33 6 -56 20q-22 13 -38 34q-15 21 -21 45q-6 21 -6 42q0 48 19 92q18 41 50 73q4 6 14 8q9 0 16 -6q6 -6 6 -13q0 -9 -4 -13q-5 -7 -12 -8h-4q-5 0 -11 3
q-26 -29 -40 -70z" />
    <glyph glyph-name="o.002" unicode="&#xe028;" horiz-adv-x="854" 
d="M34 63q-10 -29 -10 -59q0 -51 29 -87q25 -30 72 -37q19 -3 38 -3q40 0 76 15q54 25 99 64q43 37 86 90l75 89q7 22 16 38q7 15 21 38q7 12 25 34q14 16 27 23q6 2 16 2q7 -1 16 -1q16 38 43 68q27 31 65 42q13 4 29 4q17 0 30 -4q32 -9 45 -37q8 -18 8 -37q0 -10 -1 -15
q-5 -33 -16 -59q-13 -33 -28 -56q-18 -30 -29 -43q-36 -45 -83 -80q20 -11 40 -11t41 8q18 7 37 21q20 16 31 30q12 14 22 35q3 4 8 6q2 1 8 -1q4 -1 7 -6q2 -5 -1 -10q-10 -20 -27 -40q-18 -21 -36 -35q-20 -15 -43 -23q-22 -9 -47 -9q-32 0 -61 20q-4 -3 -32 -19
q-21 -11 -36 -14q-16 -2 -23 -2q-12 0 -23 3q-19 4 -31 18q-13 11 -19 30q-6 17 -6 37l-75 -89q-40 -46 -85 -82q-46 -36 -98 -55q-33 -12 -69 -12q-24 0 -44 4q-33 6 -56 20q-22 13 -38 34q-15 21 -21 45q-6 21 -6 42q0 48 19 92q18 41 50 73q4 6 14 8q8 0 16 -6
q6 -6 6 -13q0 -9 -4 -13q-5 -7 -12 -8h-4q-5 0 -11 3q-26 -29 -40 -70zM656 260v-2q0 -8 -6 -11q-3 -1 -7 -5l-9 -9q-8 -27 -8 -60q0 -21 6 -42q11 -42 32 -63q20 14 44 37q18 17 40 42q11 13 24 36q15 24 26 50q12 32 16 54q2 12 2 18q0 15 -6 27q-9 20 -33 24q-8 2 -23 2
q-13 0 -20 -2q-30 -7 -53 -33q-20 -23 -35 -54q9 -2 10 -9zM575 138q-13 -31 -14 -59v-17q0 -10 3 -18q1 -8 8 -13q5 -3 12 -3q14 0 34 10q12 6 26 16q-25 28 -35 71q-7 30 -7 51l1 17q-16 -24 -28 -55z" />
    <glyph glyph-name="p.002" unicode="&#xe029;" horiz-adv-x="963" 
d="M34 63q-10 -29 -10 -59q0 -51 29 -87q25 -30 72 -37q19 -3 38 -3q40 0 76 15q54 25 99 64q43 37 86 90l75 89q26 68 41 115q23 71 38 127q2 8 12 8h49q6 0 11 -5q3 -4 1 -11l-17 -57q24 17 63 34q42 17 83 17q34 0 62 -12q29 -15 40 -57q4 -20 4 -30q0 -8 -2 -22
q-5 -29 -15 -57q-11 -29 -24 -54q-10 -19 -28 -45q36 -1 77 8q38 9 69 41q4 4 9 4t8 -3q2 -2 4 -8q0 -5 -4 -9q-20 -22 -41 -33q-23 -12 -46 -17q-21 -5 -48 -7l-24 -1l-23 1q-27 -31 -54 -46q-28 -18 -58 -16q-12 2 -21 6t-14 15q-2 5 -2 14q0 10 4 17q8 14 21 21t31 12
q17 3 31 3q17 23 28 41q15 26 25 49q10 26 18 51q6 26 6 49q-2 28 -12 41t-28 16q-4 1 -13 1q-12 0 -26 -3q-24 -6 -43 -16q-25 -12 -40 -23q-19 -13 -30 -24q-43 -138 -88 -240q-43 -98 -95 -191l-43 -71q-27 -41 -60 -87q-29 -41 -71 -93q-35 -43 -76 -86q-35 -35 -77 -67
q-38 -28 -73 -37q-15 -4 -34 -4q-17 2 -32 6q-14 6 -27 17q-12 14 -16 30q-2 6 0 9t7 5q3 1 9 -1t7 -7q5 -17 14 -22q12 -4 17 -4q13 0 29 8l22 12q30 19 62 48q38 36 64 66q18 21 62 75l57 77l47 70l34 55q24 41 57 106q21 42 56 123l-72 -83q-39 -43 -81 -74
q-43 -31 -93 -48q-29 -10 -63 -10q-23 0 -43 4q-33 6 -56 20q-22 13 -38 34q-15 21 -21 45q-6 21 -6 42q0 48 19 92q18 41 50 73q4 6 14 8q8 0 16 -6q6 -6 6 -13q0 -9 -4 -13q-5 -7 -12 -8h-4q-5 0 -11 3q-26 -29 -40 -70zM713 63q-10 -1 -25 -8q-14 -7 -15 -21q18 7 40 29z
" />
    <glyph glyph-name="q.002" unicode="&#xe02a;" horiz-adv-x="927" 
d="M34 63q-10 -29 -10 -59q0 -51 29 -87q25 -30 72 -37q19 -3 38 -3q40 0 76 15q54 25 99 64q43 37 86 90l75 89q13 32 41 76t56 75q33 38 64 61q35 27 64 34q20 4 29 4q13 0 28 -5q26 -11 42 -38l11 21q5 9 6 15q3 7 12 7h49q6 0 11 -5q3 -6 0 -12q-21 -50 -50 -106
q-26 -50 -63 -115l-130 -216l-13 -20q6 -5 11 -19l5 -21q32 7 70 39q35 30 71 73q35 42 65 83l49 69q3 4 8 6q2 0 8 -2q3 -2 5 -7t-2 -10l-52 -74q-37 -50 -67 -86q-40 -45 -76 -74q-41 -33 -76 -40q2 -35 -2 -64q-4 -35 -12 -69q-9 -34 -21 -66q-14 -34 -27 -56
q-14 -23 -34 -39q-23 -15 -44 -21q-14 -2 -21 -2q-11 0 -23 3q-21 8 -34 29q-8 14 -8 34q0 10 1 15q5 34 17 68q12 39 31 76q19 43 37 76q19 37 36 66q14 26 27 46l71 118l-34 -23q-19 -12 -36 -20q-21 -10 -47 -15q-4 -1 -12 -1q-20 0 -34 11q-15 10 -20 30q-4 15 -2 36
l-75 -86q-41 -46 -83 -79t-95 -52q-33 -11 -66 -11q-24 0 -44 4q-33 6 -56 20q-22 13 -38 34q-15 21 -21 45q-6 21 -6 42q0 48 19 92q18 41 50 73q4 6 14 8q8 0 16 -6q6 -6 6 -13q0 -9 -4 -13q-5 -7 -12 -8h-4q-5 0 -11 3q-26 -29 -40 -70zM810 316q-9 20 -20 30q-4 4 -13 4
q-12 0 -22 -5q-28 -11 -59 -42q-31 -30 -61 -69q-30 -40 -50 -78q-21 -40 -27 -72q-2 -12 -1 -19q0 -11 4 -18t12 -9h4q7 0 15 4q32 17 59 38q28 21 54 45l53 95zM563 -270q-15 -32 -28 -72q-11 -33 -13 -62v-5q0 -15 7 -22q7 -6 19 -3q9 3 24 14q12 10 20 25q11 19 25 53
q14 42 20 63q7 32 12 65q3 36 2 60l-14 3q-7 2 -11 9l-30 -58q-19 -34 -33 -70z" />
    <glyph glyph-name="r.002" unicode="&#xe02b;" horiz-adv-x="833" 
d="M34 63q-10 -29 -10 -59q0 -51 29 -87q25 -30 72 -37q19 -3 38 -3q40 0 76 15q54 23 100 63q43 37 86 90l74 90q21 24 42 54q20 30 39 63l37 64l32 61q-7 12 -16 38q-8 24 -8 47q-1 22 8 42q8 18 31 23l9 1q4 0 10 -2q10 -6 14 -11q5 -9 8 -17q2 -14 2 -20q0 -18 -7 -39
q-9 -28 -18 -49q14 -16 27 -27l23 -20l25 -23q10 -10 13 -20v-5q0 -8 -3 -19q-3 -9 -19 -34q-3 -3 -13 -18q-11 -14 -21 -33l-24 -40q-13 -21 -21 -42q-7 -17 -13 -38q-2 -10 -2 -14q0 -9 3 -15q6 -14 20 -14h5q10 0 23 5q10 3 28 13q14 7 18 12q20 14 29 22q9 7 24 22
l19 19q3 4 10 14q3 4 8 6q3 1 9 -1q4 -2 5 -6q2 -6 -1 -10q-1 -2 -11 -16q-9 -10 -21 -21l-26 -24q-16 -15 -31 -24q-30 -21 -61 -31q-26 -8 -49 -8q-12 0 -18 1q-27 3 -43 19q-17 15 -14 44q1 20 13 48q11 26 26 52q15 28 30 50l29 42q12 18 14 28q2 8 2 12t-2 12
q-3 11 -11 22l-17 24l-31 -58q-13 -25 -36 -62q-23 -36 -38 -59q-16 -24 -40 -53l-80 -96q-41 -51 -90 -94q-51 -43 -105 -65q-37 -15 -79 -15q-24 0 -44 4q-33 6 -56 20q-22 13 -38 34q-15 21 -21 45q-6 21 -6 42q0 48 19 92q18 41 50 73q4 6 14 8q8 0 16 -6q6 -6 6 -13
q0 -9 -4 -13q-5 -7 -12 -8h-4q-5 0 -11 3q-26 -29 -40 -70zM683 478l-2 17q-1 10 -12 8q-14 -3 -17 -14q-4 -10 -2 -26q2 -15 6 -28q5 -16 9 -22q18 39 18 65z" />
    <glyph glyph-name="s.002" unicode="&#xe02c;" horiz-adv-x="836" 
d="M34 63q-10 -29 -10 -59q0 -51 29 -87q25 -30 72 -37q19 -3 38 -3q40 0 77 15q55 23 101 63t86 89l158 200l88 109q0 31 3 56q1 23 8 45q9 26 27 37q12 8 29 8q19 0 31 -15q6 -9 6 -19q0 -9 -2 -14q-5 -14 -11 -22l-15 -20q-2 -15 -2 -47q0 -28 1 -43l5 -98q1 -16 1 -49
q0 -31 -1 -47q-1 -43 -16 -82q22 4 48 26q26 21 51 66q3 4 8 6q2 1 8 -1q4 -2 5 -6q2 -6 -1 -10q-35 -62 -67 -84q-36 -24 -66 -25q-14 -23 -31 -40q-22 -22 -42 -34q-33 -19 -61 -19q-18 0 -37 8q-17 8 -28 25q-10 16 -15 43q-3 28 8 56q11 27 40 38q4 2 12 2q9 0 13 -2
q21 -7 29 -11l28 -15q10 -6 25 -13q10 24 13 59t3 70l-3 72l-3 62l-78 -97l-78 -98l-79 -98q-42 -53 -90 -93q-52 -42 -105 -64q-34 -14 -77 -14q-25 0 -46 4q-33 6 -56 20q-22 13 -38 34q-15 21 -21 45q-6 21 -6 42q0 48 19 92q18 41 50 73q4 6 14 8q8 0 16 -6q6 -6 6 -13
q0 -9 -4 -13q-5 -7 -12 -8h-4q-5 0 -11 3q-26 -29 -40 -70zM644 17q6 6 9 14q-8 3 -19 10l-26 14q-12 7 -26 12q-11 4 -17 2q-20 -8 -27 -27q-5 -14 -5 -32q0 -25 9 -34t18 -10h6q4 0 16 2q16 6 23 11q22 15 39 38z" />
    <glyph glyph-name="t.002" unicode="&#xe02d;" horiz-adv-x="772" 
d="M34 63q-10 -29 -10 -59q0 -51 29 -87q25 -30 72 -37q19 -3 38 -3q40 0 76 15q54 25 99 64q43 37 86 90l75 89q10 34 27 76q14 35 38 79q19 37 41 74l36 62h-20q-5 0 -8 4q-4 3 -4 8t4 9q3 3 8 3h34q32 52 64 97q26 38 40 55q3 4 9 4h50q8 0 11 -6q1 -2 1 -5t-3 -8
q-14 -19 -36 -49q-26 -36 -57 -87q30 0 45 1h39q4 0 9 -3q3 -4 3 -9q0 -12 -12 -12h-49q-17 -1 -50 -1l-44 -73q-16 -28 -46 -86q-26 -52 -40 -89q-17 -46 -23 -81q-2 -16 -2 -22q0 -20 7 -30q12 -19 36 -19q17 0 36 6q24 8 44 21q32 22 52 42q23 22 33 39q3 4 8 6q2 0 8 -2
q5 -3 6 -7q2 -5 -2 -10q-12 -19 -35 -42q-28 -28 -57 -46q-16 -10 -39 -18q-22 -7 -47 -12q-21 -4 -48 -2q-24 2 -42 12q-18 9 -27 27q-7 11 -7 31q0 10 1 16l-75 -88q-40 -46 -85 -82q-45 -35 -97 -54q-33 -12 -69 -12q-24 0 -44 4q-33 6 -56 20q-22 13 -38 34
q-15 21 -21 45q-6 21 -6 42q0 48 19 92q18 41 50 73q4 6 14 8q8 0 16 -6q6 -6 6 -13q0 -9 -4 -13q-5 -7 -12 -8h-4q-5 0 -11 3q-26 -29 -40 -70z" />
    <glyph glyph-name="u.002" unicode="&#xe02e;" horiz-adv-x="941" 
d="M34 63q-10 -29 -10 -59q0 -51 29 -87q25 -30 72 -37q19 -3 38 -3q40 0 76 15q54 25 99 64q43 37 86 90l75 89q11 33 27 68q13 31 32 68q12 24 34 62q19 32 29 46q5 5 11 5h49q8 0 11 -7q1 -2 1 -5t-3 -8q-18 -26 -35 -56q-18 -31 -36 -68q-22 -48 -31 -71
q-16 -37 -23 -63q-4 -12 -6 -27l-1 -11q0 -6 2 -14q1 -11 13 -11q10 0 27 13q28 22 53 54q26 32 51 69q16 24 46 74l70 124q4 7 12 7h49q8 0 11 -6t-1 -12l-36 -66q-20 -34 -39 -74q-20 -40 -33 -76q-14 -39 -17 -71q-2 -28 7 -39q7 -11 23 -13h4q11 0 28 7q18 8 32 18
q24 18 48 44q22 24 33 39q3 5 8 5q3 0 9 -2q4 -4 5 -7q2 -5 -2 -10q-10 -13 -35 -42q-28 -29 -52 -46q-17 -12 -36 -20q-22 -9 -45 -12q-14 -2 -22 -2q-12 0 -24 3q-22 4 -37 19q-11 11 -14 26q-3 12 -3 23q0 23 5 40q4 20 7 29l-36 -45q-22 -27 -50 -51q-29 -24 -58 -36
q-17 -7 -29 -7t-28 7q-14 7 -19 26q-3 9 -3 24q0 7 2 23l-75 -86q-41 -46 -83 -79t-95 -52q-33 -11 -66 -11q-24 0 -44 4q-33 6 -56 20q-22 13 -38 34q-15 21 -21 45q-6 21 -6 42q0 48 19 92q18 41 50 73q4 6 14 8q8 0 16 -6q6 -6 6 -13q0 -9 -4 -13q-5 -7 -12 -8h-4
q-5 0 -11 3q-26 -29 -40 -70z" />
    <glyph glyph-name="v.002" unicode="&#xe02f;" horiz-adv-x="852" 
d="M34 63q-10 -29 -10 -59q0 -51 29 -87q25 -30 72 -37q19 -3 38 -3q40 0 76 15q54 25 99 64q43 37 86 90l75 89q12 42 28 73l30 58q24 46 45 77q23 33 33 42q5 3 9 3h49q9 0 12 -8v-4q0 -6 -4 -9q-10 -10 -21 -26t-30 -47q-8 -13 -32 -59q-15 -30 -30 -65l-11 -29
q-5 -13 -11 -41q-5 -23 -5 -39q0 -19 11 -27q8 -6 16 -6q5 0 17 4q16 6 38 23q18 15 34 31q17 17 20 21l-1 14q0 16 7 49q9 39 25 76q17 38 36 72q20 33 36 51q9 9 20 16q7 5 14 5q3 0 9 -2q13 -4 18 -22q2 -18 2 -24q0 -28 -18 -64q-18 -37 -37 -66q-18 -29 -44 -63
q-18 -24 -41 -49q4 -13 11.5 -18t19.5 -5q17 0 35 9q21 9 39 24q17 13 24 25q3 4 8 6q3 1 9 -1q4 -4 5 -7q2 -5 -1 -9q-10 -18 -31 -35t-48 -28q-21 -8 -38 -8l-12 1q-25 1 -39 27l-34 -33q-19 -17 -37 -27q-18 -11 -41 -16q-5 -1 -14 -1q-14 0 -32 5q-32 9 -44 31
q-13 20 -11 50l-75 -89q-40 -46 -85 -82q-46 -36 -98 -55q-33 -12 -69 -12q-24 0 -44 4q-33 6 -56 20q-22 13 -38 34q-15 21 -21 45q-6 21 -6 42q0 48 19 92q18 41 50 73q4 6 14 8q8 0 16 -6q6 -6 6 -13q0 -9 -4 -13q-5 -7 -12 -8h-4q-5 0 -11 3q-26 -29 -40 -70zM754 176
l27 38q1 2 11 17q20 32 32 57q14 29 15 49q1 5 1 14q0 5 -2 11q-1 3 -6 1q-4 -2 -14 -11q-14 -16 -31 -43q-22 -38 -31 -59q-13 -31 -24 -63q-10 -31 -12 -54z" />
    <glyph glyph-name="w.002" unicode="&#xe030;" horiz-adv-x="1096" 
d="M34 63q-10 -29 -10 -59q0 -51 29 -87q25 -30 72 -37q19 -3 38 -3q40 0 76 15q54 25 99 64q43 37 86 90l75 89q15 45 26 70q15 38 33 72q15 31 35 63q17 26 33 41q4 4 9 4h50q8 0 11 -8q1 -2 1 -5q0 -6 -5 -9q-18 -16 -37 -50q-19 -32 -40 -78q-20 -43 -33 -82
q-14 -38 -19 -64q-3 -15 -3 -25q0 -11 4 -15t9 -4t11 3q14 8 29 23l27 28q23 27 40 50q13 17 35 53q8 19 18 39q6 13 20 37q3 6 11 6h49q6 0 11 -6q4 -6 0 -12l-10 -19q-12 -22 -16 -31q-11 -22 -17 -39q-8 -20 -16 -44l-6 -25q-3 -12 -5 -32v-6q0 -9 4 -23q5 -14 18 -18
q9 -3 18 -3q12 0 23 4q21 7 43 21q18 11 40 32q18 17 29 29q-1 4 -1 14q0 20 6 48q7 35 21 73q14 36 30 69q16 30 34 50q9 9 19 16q7 5 14 5q3 0 9 -2q13 -4 18 -19q3 -15 3 -28q0 -17 -9 -43q-13 -33 -26 -57q-16 -29 -38 -62q-27 -40 -47 -62q-1 -3 -8 -10q6 -27 27 -28
l10 -1q15 0 34 8q25 10 44 25q21 15 27 27q3 4 8 6q2 0 8 -2q5 -1 6 -6q2 -6 -1 -10q-10 -18 -34 -35q-24 -18 -53 -29q-18 -7 -39 -7q-11 0 -16 1q-27 3 -39 31q-16 -16 -41 -36q-21 -15 -50 -31q-27 -14 -55 -18q-14 -2 -20 -2q-17 0 -35 6q-20 6 -30 19q-12 14 -16 28
q-5 18 -5 34q0 19 3 35l-14 -18q-7 -11 -15 -18q-12 -14 -23 -25q-14 -14 -32 -27q-16 -12 -36 -22q-14 -7 -30 -7q-17 0 -29 10q-10 7 -15 18q-4 11 -6 24l-1 14l1 13l1 2v2l-75 -88q-40 -46 -84 -80q-45 -34 -96 -54q-35 -11 -68 -11q-24 0 -44 4q-33 6 -56 20
q-22 13 -38 34q-15 21 -21 45q-6 21 -6 42q0 48 19 92q18 41 50 73q4 6 14 8q8 0 16 -6q6 -6 6 -13q0 -9 -4 -13q-5 -7 -12 -8h-4q-5 0 -11 3q-26 -29 -40 -70zM993 195q15 22 34 56q15 30 23 50q8 24 8 38q0 15 -5 20q-1 1 -3 1q-5 0 -14 -10q-16 -17 -28 -42
q-16 -32 -26 -57q-13 -33 -20 -60q-9 -36 -10 -52q15 18 41 56z" />
    <glyph glyph-name="x.002" unicode="&#xe031;" horiz-adv-x="1039" 
d="M34 63q-10 -29 -10 -59q0 -51 29 -87q25 -30 72 -37q19 -3 37 -3q46 0 89 18q60 27 114 74q51 45 93 106q41 59 63 109l24 56q16 36 29 58q15 27 34 49q20 23 40 33q23 11 51 13q29 0 50 -10t39 -31q16 -23 16 -64q0 -21 -1 -32l-6 -44q-4 -22 -6 -45q-3 -22 -3 -45
q26 41 31 49l34 58q18 30 39 60q20 29 43 52q22 22 47 35q21 11 45 11q33 0 45 -29q4 -14 4 -22q0 -11 -5 -26q-9 -25 -23 -44q-3 -4 -8 -4q-4 -1 -9 2q-5 5 -5 9t3 8q10 12 18 32q4 9 4 22q0 5 -2 15q-4 12 -17 13q-24 1 -46 -12q-22 -15 -45 -39q-23 -26 -43 -56
q-25 -37 -39 -62l-36 -60q-11 -20 -31 -48q8 -29 25 -42q19 -16 48 -16q18 0 39 6q28 9 44 20q18 12 32 24q15 12 27 24l21 20l11 13q3 4 8 6q2 0 8 -2q3 -2 5 -7t-2 -10l-12 -15q-9 -10 -22 -22q-12 -12 -29 -26q-15 -13 -34 -25q-24 -16 -51 -23q-28 -9 -56 -9
q-28 -1 -56 8q-26 9 -48 29q-18 -15 -37 -25q-22 -11 -44 -11q-18 0 -28 7q-10 6 -18 17q-6 9 -10 25q-3 14 -3 29q0 12 12 12t12 -12t1 -19q2 -11 5 -17q6 -10 11 -13q8 -5 18 -5q19 0 35 10q14 8 30 20q-15 21 -16 50q-1 10 -1 31t1 32q1 20 7 67q3 26 3 46q0 38 -10 59
q-11 21 -40 21q-19 0 -36 -15q-21 -19 -39 -48q-18 -28 -33 -63l-27 -62q-23 -54 -68 -118q-40 -56 -100 -110q-54 -48 -121 -76q-47 -19 -92 -19q-13 0 -41 4q-33 6 -56 20q-22 13 -38 34q-15 21 -21 45q-6 21 -6 42q0 48 19 92q18 41 50 73q4 6 14 8q8 0 16 -6q6 -6 6 -13
q0 -9 -4 -13q-5 -7 -12 -8h-4q-5 0 -11 3q-26 -29 -40 -70z" />
    <glyph glyph-name="y.002" unicode="&#xe032;" horiz-adv-x="893" 
d="M34 63q-10 -29 -10 -59q0 -51 29 -87q25 -30 72 -37q19 -3 38 -3q40 0 76 15q54 25 99 64q43 37 86 90l75 89q11 32 25 65q9 23 31 67l33 63q20 35 31 49q3 6 10 6h50q8 0 11 -7q1 -2 1 -5t-3 -8q-15 -22 -36 -59t-38 -74q-19 -42 -32 -77q-15 -37 -21 -66q-7 -27 -5 -40
q0 -3 3 -3q7 0 22 15l22 21l23 25q32 35 69 83l64 86l49 69l23 34q3 7 11 7h49q6 0 11 -5q3 -4 1 -12q-6 -16 -29 -60l-52 -94l-68 -117l-77 -128q62 36 114 76q52 39 102 89q4 4 9 4q6 -2 9 -4q3 -3 3 -8t-4 -9q-60 -60 -121 -104q-63 -47 -137 -84l-46 -76l-60 -96
l-70 -104q-33 -47 -75 -95q-36 -41 -76 -72q-39 -30 -73 -34q-4 -1 -12 -1q-18 0 -28 9q-15 12 -22 34q-5 17 -5 31q0 7 2 19q3 27 15 52q13 30 31 53q18 27 41 53q21 24 61 60q38 35 74 61q45 33 79 53q40 25 77 40l91 147l87 149l-49 -63q-34 -42 -50 -59l-25 -27
q-22 -22 -34 -32q-20 -16 -37 -24q-13 -7 -25 -7q-6 0 -9 1q-24 7 -28 31q-2 16 -2 25t2 25l-75 -87q-39 -45 -83 -80q-42 -33 -96 -53q-33 -11 -67 -11q-24 0 -44 4q-33 6 -56 20q-22 13 -38 34q-15 21 -21 45q-6 21 -6 42q0 48 19 92q18 41 50 73q4 6 14 8q8 0 16 -6
q6 -6 6 -13q0 -9 -4 -13q-5 -7 -12 -8h-4q-5 0 -11 3q-26 -29 -40 -70zM311 -450q27 27 54 60q37 47 52 70l48 74l43 69l35 57q-32 -17 -58 -33q-34 -21 -65 -45q-35 -26 -67 -55q-31 -27 -61 -60q-38 -42 -63 -88q-20 -37 -20 -69q0 -38 17 -36q12 3 33 15q23 13 52 41z
" />
    <glyph glyph-name="z.002" unicode="&#xe033;" horiz-adv-x="909" 
d="M34 63q-10 -29 -10 -59q0 -51 29 -87q25 -30 72 -37q26 -4 39 -4q34 0 67 12q49 18 95 53q47 37 86 84q41 49 77 98l68 97q35 51 58 81q-16 15 -23 24q-7 11 -7 22q0 13 10 25q7 7 20 12q9 3 16 3q12 0 19 -7q3 -4 5 -13q1 -2 1 -8q0 -5 -1 -8l-2 -15q9 -10 23 -20
l26 -20q9 -7 24 -22q10 -12 18 -24q8 -16 8 -26q0 -5 -4 -15q-8 -15 -27 -29q-15 -11 -41 -26q-23 -14 -34 -32q-10 -14 -10 -28q0 -7 1 -10q5 -21 13 -40l18 -47q9 -27 8 -55q33 18 64 37q44 30 65 47q35 27 59 52q27 27 45 57q3 4 8 6q2 0 8 -2q5 -3 6 -7q2 -5 -2 -10
q-21 -34 -49 -62t-65 -57t-72 -50q-23 -14 -71 -40q-8 -38 -31 -79q-22 -39 -59 -88q-36 -46 -78 -86q-46 -43 -87 -74q-50 -35 -88 -52q-41 -18 -73 -18q-50 0 -64 30q-10 17 -10 43q0 13 3 27q7 34 36 67q28 32 71 63t74 47q38 21 75 39q32 16 76 34l78 35q6 24 6 46
q0 14 -3 28q-11 38 -19 59q-6 15 -11.5 31.5t-5.5 29.5q0 19 14 41q10 15 31 30l37 25q17 11 28 24q6 8 6 15q0 5 -3 11q-5 11 -16 22q-26 23 -25 22q-34 -42 -63 -86l-70 -100q-38 -52 -79 -100q-41 -47 -89 -84q-48 -36 -100 -52q-35 -11 -70 -11q-23 0 -42 4
q-33 6 -56 20q-22 13 -38 34q-15 21 -21 45q-6 21 -6 42q0 48 19 92q18 41 50 73q4 6 14 8q8 0 16 -6q6 -6 6 -13q0 -9 -4 -13q-5 -7 -12 -8h-4q-5 0 -11 3q-26 -29 -40 -70zM319 -420q31 19 65 47q33 28 66 60q35 37 59 66q29 36 47 63q21 34 29 54l-143 -64
q-71 -33 -136 -80q-39 -28 -65 -57q-27 -28 -33 -58q-3 -12 -3 -21q0 -19 11 -28q12 -10 27 -10q5 0 15 2q31 8 61 26z" />
    <glyph glyph-name="a.003" unicode="&#xe034;" horiz-adv-x="1542" 
d="M1364 103q-4 7 -4 18q0 18 10 35q7 13 22 23q25 14 57 14q22 0 42 -6q22 -7 39 -27q11 -16 13 -39q0 -49 -36 -82q-31 -30 -72 -39q-21 -5 -53 -5q-29 0 -54 4q-62 11 -123 31q-74 24 -133 49l-135 52q-55 21 -130 44q-79 22 -136 22q-45 0 -80 -13q-43 -16 -72 -62
q-12 -18 -27 -35q-11 -13 -37 -35q-21 -16 -42 -30q-22 -13 -41 -19q-13 -4 -25 -5q-18 -2 -28 -2q-14 0 -28 3q-14 5 -21 13q-13 14 -13 42q0 18 4 35q10 36 19 58q14 36 27 64q-11 -16 -35 -48l-15 -20q-17 -22 -53 -62q-27 -31 -50 -49q-26 -21 -46 -27q-9 -2 -25 -4
q-4 -1 -11 -1q-11 0 -16 1q-13 1 -26 8q-13 4 -21 15q-18 23 -18 51t9 60q11 46 41 97q29 50 70 87q43 40 99 59q33 11 63 11q27 0 51 -7q6 -2 8 -5q2 -4 0 -9q-4 -12 -15 -9q-15 4 -31 4q-25 0 -46 -10q-37 -18 -68 -49t-54 -71q-24 -41 -36 -73q-3 -7 -6 -21
q-4 -13 -6 -30q-2 -11 -4 -33v-8q0 -12 3 -21q5 -12 13 -18q4 -3 12 -3l13 2q19 6 45 29q19 17 53 56q22 27 55 72l52 75l46 69l32 52q3 6 10 6h50q6 0 11 -5q3 -6 0 -12l-27 -56l-26 -51q-10 -19 -28 -59t-25 -59q-11 -27 -19 -55q-4 -13 -6 -28q-2 -10 -2 -15l1 -8
q1 -9 10 -14q6 -2 10 -2t16 2q17 5 37 17q18 11 38 28l34 33q14 16 24 32q31 52 76 71q44 18 94 18q58 0 129 -20q59 -17 132 -44l137 -54q73 -30 134 -50q58 -20 124 -32q32 -6 59 -6q22 0 47 5q31 7 59 32q29 26 29 62q0 26 -17 37q-24 16 -49 16q-20 0 -41 -8
q-22 -10 -26 -29q8 -1 13 -8q3 -4 3 -9q0 -11 -6 -17q-4 -6 -14 -6q-13 0 -17 10z" />
    <glyph glyph-name="b.003" unicode="&#xe035;" horiz-adv-x="1407" 
d="M1229 103q-4 7 -4 18q0 18 10 35q7 13 22 23q25 14 57 14q23 0 42 -6q23 -7 39 -27q11 -16 13 -39q0 -49 -36 -82q-32 -30 -72 -39q-25 -6 -55 -6q-16 0 -50 4q-54 8 -121 29q-63 20 -129 45l-131 50q-52 19 -128 43q-78 23 -143 23q-41 0 -79 -11q-45 -13 -81 -55
q-21 -24 -44 -36q-19 -12 -46 -17t-47 -5q-31 0 -46 1q-25 -28 -45 -47q-23 -23 -45 -33q-16 -9 -30 -10l-11 -1q-9 0 -18 3q-14 5 -22 16q-6 11 -6 25q0 24 14 38q12 13 29 21q14 7 37 10q19 3 35 3q16 18 31 40q10 14 28 42l18 33q13 22 24 50q10 23 13 49q2 24 -14 31
q-3 2 -11 2q-9 0 -17 -4q-19 -10 -32 -22q-11 -9 -29 -29q-12 -13 -19 -24q-13 -18 -24 -41q-10 -19 -18 -41l-12 -37q-8 -26 -11 -39q-2 -10 -12 -9h-49h-2q-4 0 -8 4t-2 11l8 29q31 105 74 204q44 99 88 177q26 47 41 71l55 86q22 33 65 91q33 44 70 86q36 41 72 72
q35 31 70 46q22 9 40 14q24 4 36 4q27 0 46 -12q16 -10 24 -35q2 -4 0 -9q-3 -4 -8 -6t-9 1q-4 1 -6 7q-4 15 -14 22q-10 5 -17 5q-14 0 -28 -8q-13 -6 -23 -13q-34 -21 -63 -50q-33 -32 -66 -69q-29 -34 -64 -81l-59 -85l-51 -80q-11 -17 -40 -68q-30 -54 -50 -96
q-26 -54 -47 -104q7 8 29 26q13 11 36 23q17 8 39 13q7 2 20 2q14 0 20 -2q23 -4 34 -20q8 -14 10 -35q0 -22 -7 -44q-9 -27 -16 -46q-13 -29 -20 -41q-10 -20 -18 -30l-21 -32q-7 -11 -23 -31q24 0 37 1q16 0 38 5t37 14q17 10 32 27q38 45 88 62q45 15 98 15q56 0 132 -21
q63 -18 129 -42l132 -51q79 -31 129 -46q61 -21 119 -30q24 -4 53 -4q31 0 52 5q31 7 59 32q29 26 29 62q0 26 -17 37q-24 16 -49 16q-20 0 -41 -8q-22 -10 -26 -29q8 -1 13 -8q3 -4 3 -9q0 -11 -6 -17q-4 -6 -14 -6q-13 0 -17 10zM116 64l-20 -3q-8 -2 -22 -8
q-10 -4 -19 -13q-7 -7 -9 -19q-1 -12 3 -12h1q2 0 10 4q27 19 56 51z" />
    <glyph glyph-name="c.003" unicode="&#xe036;" horiz-adv-x="1392" 
d="M1214 103q-4 7 -4 18q0 18 10 35q7 13 22 23q25 14 57 14q23 0 42 -6q22 -7 39 -27q11 -16 13 -39q0 -49 -36 -82q-31 -30 -72 -39q-25 -6 -55 -6q-15 0 -51 4q-54 8 -121 29q-50 15 -129 46l-132 51q-57 21 -129 43q-78 23 -142 23q-40 0 -78 -11q-47 -15 -80 -57
q-29 -36 -63 -56q-29 -19 -67 -37q-27 -13 -54 -19q-34 -10 -73 -10q-27 0 -54 8q-29 9 -46 35q-15 20 -15 53q0 13 4 39q6 31 16 52q11 27 35 62q20 28 47 57q28 28 57 46q34 21 65 29q10 3 29 6q18 3 37 3q18 -1 33 -6q14 -6 18 -21q1 -3 1 -9q0 -12 -9 -27
q-12 -19 -26 -27q-6 -2 -7 -2q-6 0 -10 6q-2 4 -2 7q0 6 7 10q8 5 15 13q6 6 8 16q0 6 -8 11q-2 1 -7 1q-10 0 -23 -4q-27 -7 -56 -25q-30 -20 -50 -40q-21 -20 -43 -50q-23 -32 -34 -55l-13 -32q-7 -16 -10 -37q-4 -16 -2 -37q2 -20 10 -33q12 -16 32 -21q12 -3 26 -3
q10 0 15 1q19 3 43 11q35 14 34 13q25 12 64 35q32 20 56 50q37 46 86 64q45 15 97 15q53 0 131 -20q66 -18 131 -43l133 -51q71 -29 129 -47q63 -21 120 -30q32 -5 55 -5t50 5q31 7 59 32q29 26 29 62q0 26 -17 37q-24 16 -49 16q-20 0 -41 -8q-22 -10 -26 -29q8 -1 13 -8
q3 -4 3 -9q0 -11 -6 -17q-4 -6 -14 -6q-13 0 -17 10z" />
    <glyph glyph-name="d.003" unicode="&#xe037;" horiz-adv-x="1606" 
d="M1428 103q-4 7 -4 18q0 18 10 35q7 13 22 23q25 14 57 14q23 0 42 -6q23 -8 39 -27q11 -16 13 -39q0 -49 -36 -82q-31 -30 -72 -39q-21 -5 -53 -5q-29 0 -54 4q-67 12 -125 32q-73 23 -134 49l-136 53q-65 25 -131 45q-77 22 -134 22q-44 0 -81 -14q-44 -18 -69 -64
q-7 -11 -23 -31q-17 -19 -33 -32q-20 -17 -36 -26q-21 -13 -35 -18q-26 -10 -60 -10q-46 0 -75 21q-26 19 -37 46q-10 25 -9 56q-34 -46 -68 -68q-35 -23 -66 -26q-20 -2 -30 -2q-21 0 -37 4q-31 7 -54 39q-19 30 -19 68q0 33 11 60q12 34 28 62q20 34 51 62q30 27 68 44
q37 17 81 17q38 0 72 -21q20 -14 32 -25l86 167q44 82 97 160q26 39 51 74q27 37 65 84q38 45 70 78q37 37 70 57q18 12 45 21q24 8 52 10q24 0 46 -11t29 -39q1 -3 -1 -9q-3 -4 -8 -6l-4 -1q-7 0 -10 9q-4 15 -14 22q-10 5 -18 5q-14 0 -28 -8q-13 -6 -23 -13
q-33 -20 -69 -56q-36 -35 -69 -75q-30 -36 -63 -82l-51 -73q-17 -24 -47 -73q-33 -53 -63 -106q-33 -58 -63 -123q-27 -56 -50 -124q-22 -68 -22 -118q0 -40 20 -65q15 -17 35 -17q18 -1 40 7q14 6 32 17q11 7 33 25q18 15 30 28q12 12 21 28q29 51 74 71q44 19 95 19
q57 0 128 -20q59 -17 132 -44l138 -54q69 -29 135 -51q58 -20 124 -32q32 -6 60 -6q23 0 46 5q31 7 59 32q29 26 29 62q0 26 -17 37q-24 16 -49 16q-20 0 -41 -8q-22 -10 -26 -29q8 -1 13 -8q3 -4 3 -9q0 -11 -6 -17q-4 -6 -14 -6q-13 0 -17 10zM299 346q-29 17 -57 14
q-29 -5 -52 -19q-26 -17 -45 -40q-22 -26 -35 -48q-32 -55 -38 -94q-3 -15 -3 -29q0 -19 7 -38q8 -20 25 -28q16 -9 36 -7q34 5 56 22q22 16 39 38q15 17 28 39q11 18 21 24q6 29 22 71q18 46 29 68q-16 18 -33 27z" />
    <glyph glyph-name="e.003" unicode="&#xe038;" horiz-adv-x="1345" 
d="M1167 103q-4 7 -4 18q0 18 10 35q7 13 22 23q25 14 57 14q23 0 42 -6q23 -8 39 -27q11 -16 13 -39q0 -49 -36 -82q-31 -30 -72 -39q-21 -5 -52 -5q-29 0 -54 4q-53 8 -122 29q-55 17 -131 47l-133 51q-64 24 -130 43q-78 23 -141 23q-43 0 -78 -13q-46 -16 -77 -59
q-11 -16 -46 -46q-28 -24 -71 -50q-18 -10 -38 -17q-24 -8 -43 -11q-18 -2 -26 -2l-18 1q-22 1 -40 12t-26 25q-8 12 -13 32q-3 17 -3 36q2 24 4 35q7 35 25 79q16 36 43 71q26 33 58 57t74 37q15 4 35 6l14 1q12 0 21 -3q14 -4 22 -17q3 -4 3 -12q0 -10 -6 -24
q-10 -22 -37 -53q-24 -28 -64 -66q-37 -35 -69 -59q-32 -25 -55 -34q-2 -22 -2 -30q0 -19 4 -30q8 -23 25 -32q11 -6 26 -6q5 0 17 2q24 4 57 23q24 14 35 22q22 16 32 25l26 23q11 11 17 20q34 48 82 67q42 16 96 16q58 0 130 -20q66 -18 131 -43l135 -52q66 -28 131 -49
q62 -20 122 -31q32 -5 55 -5t50 5q31 7 59 32q29 26 29 62q0 26 -17 37q-24 16 -49 16q-20 0 -41 -8q-22 -10 -26 -29q8 -1 13 -8q3 -4 3 -9q0 -11 -6 -17q-4 -6 -14 -6q-13 0 -17 10zM118 181q22 18 61 54q21 20 55 58q25 28 33 47q2 8 -1 13t-11 3q-32 -6 -61 -29
q-29 -22 -54 -53q-26 -32 -43 -65q-19 -33 -28 -64q16 9 49 36z" />
    <glyph glyph-name="f.003" unicode="&#xe039;" horiz-adv-x="1333" 
d="M1155 103q-4 7 -4 18q0 18 10 35q7 13 22 23q25 14 57 14q23 0 42 -6q23 -8 39 -27q11 -16 13 -39q0 -49 -36 -82q-31 -30 -72 -39q-21 -5 -52 -5q-29 0 -54 4q-62 11 -123 31q-63 19 -133 47l-134 52q-55 21 -130 44q-77 22 -136 22q-46 0 -81 -13q-45 -16 -75 -62
q-14 -21 -38 -45q-19 -18 -51 -41q-29 -20 -57 -33q-32 -15 -54 -19q1 -30 -2 -76q-3 -42 -12 -82q-9 -41 -25 -77q-18 -38 -41 -59q-28 -25 -62 -25q-17 0 -31 7q-19 10 -33 34q-11 19 -11 45q0 29 13 92q8 39 23 92q12 41 32 99q26 68 41 103q30 71 64 140q33 69 69 132
q29 52 70 117q38 60 65 93q26 32 56 59t61 43q9 5 28 12q22 6 34 8q6 1 17 1t16 -1q16 -1 27 -11q12 -9 9 -29q-6 -24 -20 -49q-21 -39 -51 -84q-35 -52 -68 -94l-78 -98l-81 -96l-78 -86q-41 -45 -69 -71l-16 -42q7 3 15 1q7 -3 13 -9q12 -12 16 -30q6 -27 7 -36
q21 6 50 20q28 15 51 31q21 15 47 39q20 19 35 40q30 48 79 68q44 18 96 18q58 0 129 -20q78 -24 132 -44q90 -34 135 -53q59 -25 133 -49q60 -21 122 -32q33 -5 56 -5t50 5q31 7 59 32q29 26 29 62q0 26 -17 37q-24 16 -49 16q-20 0 -41 -8q-22 -10 -26 -29q8 -1 13 -8
q3 -4 3 -9q0 -11 -6 -17q-4 -6 -14 -6q-13 0 -17 10zM300 415q44 52 98 126q43 58 77 120q6 9 8 13l8 16q3 8 2 15q-1 6 -11 7q-25 1 -55 -18q-31 -22 -63 -58q-34 -37 -69 -90q-41 -60 -71 -112q-31 -55 -64 -121q-42 -84 -61 -127l97 107zM78 30q-4 17 -12 24q-4 5 -8 1
q-2 -2 -4 -8q-2 -8 -2 -13q0 -8 1 -10q3 -11 11 -16t18 -6zM49 -240q16 37 23 72q8 43 11 77q2 50 1 70q-20 0 -34 8q-15 10 -19 28q-14 -38 -41 -126q-19 -68 -24 -129q-1 -8 -1 -28q2 -19 5 -27q5 -11 14 -14h2q11 0 25 14q24 22 38 55z" />
    <glyph glyph-name="g.003" unicode="&#xe03a;" horiz-adv-x="1508" 
d="M1330 103q-4 7 -4 18q0 18 10 35q7 13 22 23q25 14 57 14q23 0 42 -6q23 -7 39 -27q11 -16 13 -39q0 -49 -36 -82q-31 -30 -72 -39q-25 -6 -55 -6q-15 0 -51 4q-54 8 -121 29q-46 14 -130 46l-132 51q-66 24 -129 42q-81 23 -137 23q-48 -2 -85 -13q-48 -15 -80 -58
q-26 -34 -57 -56q-37 -27 -64 -40q-31 -17 -67 -31l-68 -27l-15 -24l-40 -67l-54 -87q-24 -37 -65 -96q-31 -42 -71 -88q-34 -39 -73 -68q-46 -33 -83 -33q-20 0 -30 10q-14 14 -20 35q-5 21 -3 45q3 26 10 43q21 56 59 101q38 47 91 90q52 43 106 75q52 31 105 55l47 77
l45 76q-16 -13 -36 -27q-13 -9 -39 -23q-25 -11 -54 -14q-7 -1 -19 -1q-17 0 -37 5q-27 8 -41 28q-10 14 -10 37q0 14 2 22q7 36 30 77t54 75q33 36 71 61q38 26 76 35q12 3 37 5h10q14 0 27 -3q19 -5 34 -13q18 -11 27 -26q11 22 13 28q3 7 12 7h49q6 0 11 -5q3 -6 0 -12
q-7 -19 -27 -57q-17 -32 -47 -86l-61 -106l-70 -116l59 24q32 13 57 28q26 14 54 35q24 18 48 49q36 46 85 64q45 15 97 15q59 0 131 -20q60 -17 131 -42l133 -52q72 -29 130 -47q63 -21 120 -30q32 -5 55 -5t50 5q31 7 59 32q29 26 29 62q0 26 -17 37q-24 16 -49 16
q-20 0 -41 -8q-22 -10 -26 -29q8 -1 13 -8q3 -4 3 -9q0 -11 -6 -17q-4 -6 -14 -6q-13 0 -17 10zM353 320q-18 40 -55 40q-11 0 -23 -3q-32 -8 -65 -33q-33 -24 -62 -58q-33 -39 -49 -71q-21 -38 -27 -69q-2 -12 -2 -17q0 -10 3 -18q4 -13 15 -18q7 -4 19 -4q17 0 41 11
q35 17 66 43q31 24 59 52l45 80q22 38 35 65zM-125 -415q30 24 58 56q33 40 57 74q14 19 54 80l75 123q-42 -20 -90 -51q-50 -32 -94 -70q-42 -37 -80 -82q-36 -46 -52 -90l-6 -20q-3 -12 -3 -23q1 -10 7 -17q4 -5 15 -5q28 0 59 25z" />
    <glyph glyph-name="h.003" unicode="&#xe03b;" horiz-adv-x="1507" 
d="M1329 103q-4 7 -4 18q0 18 10 35q7 13 22 23q25 14 57 14q23 0 42 -6q23 -8 39 -27q11 -16 13 -39q0 -49 -36 -82q-31 -30 -72 -39q-21 -5 -52 -5q-29 0 -54 4q-58 9 -123 30q-55 17 -131 47l-134 51q-55 21 -130 44q-74 21 -136 21q-47 0 -83 -13q-44 -16 -77 -61
q-7 -10 -25 -32q-15 -18 -30 -32q-15 -15 -33 -28q-17 -13 -36 -19q-16 -7 -41 -10l-16 -1q-15 0 -27 3q-23 7 -36 18q-19 18 -19 54q0 23 8 57q14 56 23 83l22 73q6 23 6 37q0 7 -1 10q-2 8 -10 5q-12 -7 -19 -14q-8 -7 -24 -25l-24 -27l-19 -23q-5 -7 -9 -11
q-61 -83 -135 -227q-4 -7 -11 -7h-49q-5 0 -10 5q-4 4 -2 10l16 54q8 26 21 64q20 60 56 150q28 70 74 166q42 87 87 167q43 77 100 153q51 69 108 124q57 54 115 79q23 10 40 13q18 4 41 2q18 -3 36 -14q15 -9 23 -34q2 -4 0 -9q-3 -4 -8 -6l-4 -1q-8 0 -11 9q-4 15 -14 22
q-10 5 -18 5q-14 0 -28 -8q-13 -6 -23 -13q-55 -33 -111 -94q-55 -58 -105 -132q-52 -76 -96 -154q-45 -82 -82 -161q-39 -82 -66 -151q-34 -88 -46 -127q33 55 43 70q16 25 40 59l29 38q21 26 40 44q20 19 45 37q23 16 44 17h5q16 0 25 -9q10 -13 11 -29q1 -5 1 -17
q0 -25 -9 -55q-11 -36 -26 -82q-15 -43 -24 -82q-4 -16 -4 -33q0 -21 7 -38q4 -11 18 -16q3 -1 9 -1q9 0 26 5q15 5 32 18q15 11 31 27q20 20 29 31l23 30q34 48 82 67q42 16 96 16t130 -21q66 -18 131 -43l135 -52q70 -30 131 -48q62 -20 122 -31q32 -5 55 -5t50 5
q31 7 59 32q29 26 29 62q0 26 -17 37q-24 16 -49 16q-20 0 -41 -8q-22 -10 -26 -29q8 -1 13 -8q3 -4 3 -9q0 -11 -6 -17q-4 -6 -14 -6q-13 0 -17 10z" />
    <glyph glyph-name="i.003" unicode="&#xe03c;" horiz-adv-x="1258" 
d="M184 416q-5 0 -17 2q3 0 -27 4q-5 2 -7 7t0 10l9 21q5 11 6 20q3 10 13 10h49q5 0 10 -5q3 -4 1 -11q-1 -6 -7 -25q-8 -18 -12 -25q-4 -6 -9 -7zM1080 103q-4 7 -4 18q0 18 10 35q7 13 22 23q25 14 57 14q23 0 42 -6q23 -8 39 -27q11 -16 13 -39q0 -49 -36 -82
q-32 -30 -72 -39q-21 -5 -52 -5q-29 0 -54 4q-53 8 -122 29q-55 17 -131 47l-133 51q-66 24 -129 42q-77 22 -137 22q-46 0 -84 -13q-47 -17 -78 -59q-22 -30 -53 -57q-31 -25 -57 -42q-13 -8 -28 -15q-14 -6 -34 -10q-14 -2 -20 -2l-14 1q-15 1 -30 13q-18 15 -18 42
q0 11 4 33q2 9 8 27q3 9 11 27q15 35 31 63l35 62q22 40 31 59q14 29 18 53q2 9 11 9h50q5 0 10 -5q4 -4 2 -10q-6 -27 -27 -68l-44 -84q-20 -36 -43 -84q-19 -40 -24 -71v-9q0 -13 3 -19q5 -8 13 -9h3q7 0 17 5q13 6 22 12q25 16 54 42q31 26 52 54q35 47 84 65
q42 16 96 16q59 0 131 -20q66 -18 131 -43l133 -52q72 -29 131 -48q63 -21 121 -30q32 -5 55 -5t50 5q31 7 59 32q29 26 29 62q0 26 -17 37q-24 16 -49 16q-20 0 -41 -8q-22 -10 -26 -29q8 -1 13 -8q3 -4 3 -9q0 -11 -6 -17q-4 -6 -14 -6q-13 0 -17 10z" />
    <glyph glyph-name="j.003" unicode="&#xe03d;" horiz-adv-x="1259" 
d="M205 418q-5 0 -17 2q-4 0 -26 4q-5 2 -7 7q-3 4 -1 10l10 21q5 11 6 20q1 10 12 10h49q6 0 11 -5q2 -4 2 -6q0 -7 -3.5 -16.5t-5.5 -13.5l-11 -25q-4 -6 -9 -7zM1081 103q-4 7 -4 18q0 18 10 35q7 13 22 23q25 14 57 14q23 0 42 -6q22 -7 39 -27q11 -16 13 -39
q0 -49 -36 -82q-32 -30 -72 -39q-21 -5 -52 -5q-29 0 -54 4q-54 8 -121 29q-66 21 -130 46l-132 50q-57 21 -129 43q-81 23 -137 23q-48 -2 -85 -13q-48 -17 -80 -59q-26 -33 -56 -56q-37 -27 -64 -40q-29 -14 -67 -31l-69 -27l-45 -74l-58 -94q-40 -63 -67 -100
q-41 -57 -73 -91q-40 -43 -74 -69q-45 -34 -83 -34q-19 0 -32 11q-16 16 -20 37q-2 8 -2 26q0 15 1 23q5 26 12 45q22 53 61 98q40 47 90 87q48 39 104 72q54 32 102 54l108 180l84 147q38 71 46 93q3 7 12 7h49h2q4 0 8 -4q4 -5 2 -12q-5 -12 -28 -57l-47 -87l-61 -106
l-70 -117l59 25q32 13 57 28q26 14 54 35q26 20 48 48q36 46 85 64q44 16 97 16q55 0 131 -21q60 -17 131 -42l133 -52q72 -29 130 -47q63 -21 120 -30q32 -5 55 -5t50 5q31 7 59 32q29 26 29 62q0 26 -17 37q-24 16 -49 16q-20 0 -41 -8q-22 -10 -26 -29q8 -1 13 -8
q3 -4 3 -9q0 -11 -6 -17q-4 -6 -14 -6q-13 0 -17 10zM-328 -373q40 44 76 97q32 47 67 105l54 88q-41 -19 -89 -50q-49 -31 -90 -67q-45 -38 -79 -80q-35 -43 -53 -86q-7 -14 -10 -35q-1 -5 -1 -14q0 -11 2 -16q4 -12 14 -16l5 -1q9 0 26 10q38 21 78 65z" />
    <glyph glyph-name="k.003" unicode="&#xe03e;" horiz-adv-x="1484" 
d="M1306 103q-4 7 -4 18q0 18 10 35q7 13 22 23q25 14 57 14q22 0 42 -6q22 -8 39 -27q11 -16 13 -39q0 -49 -36 -82q-31 -30 -72 -39q-21 -5 -52 -5q-29 0 -54 4q-62 11 -123 31q-63 19 -133 47l-134 52q-55 21 -130 44t-136 23q-46 0 -81 -13q-45 -16 -74 -61
q-11 -16 -30 -37q-15 -16 -39 -35t-43 -29q-22 -13 -42 -18q-24 -6 -42 -6q-12 0 -28 4q-26 7 -43 27t-24 46l-17 52q-8 23 -21 47q-11 20 -35 31q-32 -92 -60 -193q-4 -9 -12 -9h-50q-5 0 -10 5q-3 4 -1 10l16 56l21 62q26 77 58 153q31 74 75 167q37 76 89 166
q47 81 100 152q55 72 109 122q57 54 114 79q23 10 40 13q18 4 41 2q18 -3 36 -14q15 -9 23 -34q1 -3 -1 -9q-3 -4 -8 -6t-9 1q-3 1 -5 7q-4 15 -14 22q-10 5 -18 5q-14 0 -28 -8q-13 -6 -23 -13q-49 -31 -96 -79q-48 -48 -95 -110q-40 -53 -88 -130q-40 -65 -78 -137
q-39 -71 -66 -133q-30 -68 -48 -115l42 20q14 7 42 25q25 16 39 29q18 15 32 32q12 15 3 20q-10 5 -23 5h-2q-8 0 -10 9v3q0 7 7 11q9 4 23 7q12 3 25 3q14 0 25 -4q12 -5 18 -14q6 -10 6 -20q-2 -13 -5 -19q-4 -9 -13 -18l-15 -14q-33 -27 -78 -49q-43 -21 -86 -39
q33 -9 52 -28q16 -17 28 -43q10 -24 15 -48q4 -24 12 -44q7 -19 19 -29q8 -6 20 -6q10 0 17 2q19 5 38 16q22 13 39 28q17 13 36 32q12 12 26 32q31 49 79 69q40 17 95 17q58 0 130 -20q70 -19 132 -43l135 -54q59 -25 133 -49q60 -21 122 -32q33 -5 56 -5t50 5q31 7 59 32
q29 26 29 62q0 26 -17 37q-24 16 -49 16q-20 0 -41 -8q-22 -10 -26 -29q8 -1 13 -8q3 -4 3 -9q0 -11 -6 -17q-4 -6 -14 -6q-13 0 -17 10z" />
    <glyph glyph-name="l.003" unicode="&#xe03f;" horiz-adv-x="1333" 
d="M1155 103q-4 7 -4 18q0 18 10 35q7 13 22 23q25 14 57 14q23 0 42 -6q23 -8 39 -27q11 -16 13 -39q0 -49 -36 -82q-31 -30 -72 -39q-21 -5 -52 -5q-29 0 -54 4q-58 9 -123 30q-55 17 -131 47l-134 51q-55 21 -130 44q-77 22 -136 22q-46 0 -82 -13q-44 -16 -76 -60
q-13 -19 -36 -35q-24 -18 -51 -33q-34 -18 -56 -26q-28 -12 -51 -18q-13 -4 -26 -5q-15 -3 -30 -3q-16 0 -30 3q-15 3 -24 10q-22 16 -20 51q3 35 16 71q14 38 22 55q1 2 19 42l54 113q32 66 72 141q56 102 86 151q49 81 94 144q45 64 94 116q47 50 88 72q15 8 42 16
q20 5 38 5q25 0 49 -13q17 -10 25 -36q2 -4 0 -9q-3 -4 -8 -6t-9 1q-4 1 -6 7q-4 15 -14 22q-8 5 -17 5q-14 0 -28 -8q-13 -6 -23 -13q-39 -24 -83 -74q-43 -48 -89 -115q-44 -64 -89 -139q-48 -81 -82 -145l-70 -136l-11 -22q-29 -61 -41 -87q-51 -111 -56 -160v-7
q0 -10 3 -16q3 -8 10 -11q6 -3 17 -1q14 2 21 4q14 3 47 16q32 13 52 25q29 15 49 30q22 16 33 33q34 48 81 68q41 16 95 16q59 0 131 -20q66 -18 131 -43q90 -34 135 -53q66 -28 131 -49q62 -20 122 -31q33 -5 56 -5t50 5q31 7 59 32q29 26 29 62q0 26 -17 37
q-24 16 -49 16q-20 0 -41 -8q-22 -10 -26 -29q8 -1 13 -8q3 -4 3 -9q0 -11 -6 -17q-4 -6 -14 -6q-13 0 -17 10z" />
    <glyph glyph-name="m.003" unicode="&#xe040;" horiz-adv-x="1683" 
d="M1505 103q-4 7 -4 18q0 18 10 35q7 13 22 23q25 14 57 14q23 0 42 -6q23 -7 39 -27q11 -16 13 -39q0 -49 -36 -82q-31 -30 -72 -39q-21 -5 -52 -5q-29 0 -54 4q-53 8 -122 29q-55 17 -131 47l-133 52q-60 21 -130 43q-77 22 -136 22q-47 0 -83 -13q-46 -16 -77 -59
q-29 -41 -73 -73q-46 -34 -95 -44q-19 -4 -41 -4q-21 1 -36 9q-16 8 -23 24q-5 12 -5 27q0 30 16 73q12 34 23 56l24 56q14 30 20 55l4 14l2 12q-1 4 -5 5h-2q-3 0 -11 -5q-28 -23 -67 -62q-41 -43 -67 -75l-63 -78l-57 -73q-7 -12 -22 -12q-9 0 -16 5.5t-9 15.5l-1 11l1 13
q1 11 6 22l25 49l26 58q12 25 24 58q8 21 16 52q8 30 4 37q-4 6 -14 2q-13 -7 -25 -21q-15 -15 -29 -32q-16 -17 -26 -32l-14 -19q-7 -9 -31 -44l-33 -51l-35 -70l-34 -70q-3 -7 -12 -7h-48q-6 0 -11 6q-4 4 -1 11l28 58l89 178q28 56 57 122q3 8 11 8h50q6 0 11 -5
q3 -6 0 -12q-14 -31 -16 -36q-5 -13 -19 -39q23 27 49 55q25 28 61 37q12 3 22 3q18 0 31 -10q17 -14 17 -40q0 -7 -1 -11q-2 -13 -10 -37q-14 -34 -23 -53l-25 -53l-20 -41l50 61q31 39 69 78t75 69q39 30 68 31h4q15 0 23 -11q6 -9 6 -26q0 -6 -2 -22q-4 -31 -17 -63
q-14 -37 -25 -60l-26 -59q-13 -28 -19 -61q-2 -14 -2 -19q0 -14 5 -22q6 -11 22 -11q20 0 43 13q18 8 43 28q23 18 39 34q14 14 28 32q34 48 82 67q40 17 95 17q58 0 130 -20q66 -18 131 -43l135 -53q62 -26 132 -49q60 -20 121 -31q33 -5 56 -5t50 5q31 7 59 32
q29 26 29 62q0 26 -17 37q-24 16 -49 16q-20 0 -41 -8q-22 -10 -26 -29q8 -1 13 -8q3 -4 3 -9q0 -11 -6 -17q-4 -6 -14 -6q-13 0 -17 10z" />
    <glyph glyph-name="n.003" unicode="&#xe041;" horiz-adv-x="1511" 
d="M1333 103q-4 7 -4 18q0 18 10 35q7 13 22 23q25 14 57 14q23 0 42 -6q23 -8 39 -27q11 -16 13 -39q0 -49 -36 -82q-32 -30 -72 -39q-21 -5 -52 -5q-29 0 -54 4q-53 8 -122 29q-55 17 -131 47l-133 51q-64 24 -130 43q-78 23 -141 23q-43 0 -78 -13q-46 -16 -77 -59
q-12 -17 -45 -44q-34 -27 -65 -45q-18 -10 -36 -16q-21 -8 -46 -13q-13 -3 -27 -3q-13 0 -19 1q-21 3 -37 17q-11 10 -13 27l-1 12q0 10 3 19q7 25 22 56l28 54l28 53q12 23 22 56q6 20 6 30q0 11 -8 11t-22 -11l-26 -20q-24 -19 -53 -48l-49 -51l-44 -49q-20 -23 -36 -39
l-53 -107q-3 -8 -11 -8h-50q-7 0 -11 6q-3 6 1 12l56 115l68 136q24 48 49 107q3 7 11 7h50q12 0 12 -12q0 -4 -1 -5l-35 -77l-44 -89l60 62q34 33 65 59q13 11 27 20q18 13 32 19q15 7 34 12q4 1 11 1q11 0 19 -4q20 -9 21 -28l1 -14q0 -12 -3 -24q-8 -36 -22 -65l-33 -63
q-27 -51 -31 -60q-16 -32 -20 -58q-1 -5 -1 -13q0 -13 7 -16q7 -4 17 -4q7 0 11 1q13 2 34 11q14 6 25 13q36 23 62 43q29 24 41 41q34 48 82 67q42 16 96 16q58 0 130 -20q66 -18 131 -43l135 -52q66 -28 131 -49q62 -20 122 -31q32 -5 55 -5t50 5q31 7 59 32q29 26 29 62
q0 26 -17 37q-24 16 -49 16q-20 0 -41 -8q-22 -10 -26 -29q8 -1 13 -8q3 -4 3 -9q0 -11 -6 -17q-4 -6 -14 -6q-13 0 -17 10z" />
    <glyph glyph-name="o.003" unicode="&#xe042;" horiz-adv-x="1399" 
d="M1221 103q-4 7 -4 18q0 18 10 35q7 13 22 23q25 14 57 14q22 0 42 -6q23 -8 39 -27q11 -16 13 -39q0 -49 -36 -82q-31 -30 -72 -39q-20 -5 -51 -5t-56 5q-64 12 -124 31q-73 24 -134 49l-136 53q-55 21 -130 44q-77 23 -135 23q-45 0 -80 -13q-44 -16 -69 -63
q-13 -22 -28 -39q-20 -23 -35 -35q-18 -14 -43 -24q-22 -9 -47 -9q-32 0 -61 20q-4 -3 -32 -19q-21 -11 -36 -14q-16 -2 -22 -2q-20 0 -34 7q-24 11 -34 30q-12 23 -12 52q0 18 7 44q7 22 16 38q7 15 21 38q7 12 25 34q14 16 27 23q6 2 16 2q7 -1 16 -1q16 38 43 68
q27 31 65 42q13 4 29 4q17 0 30 -4q32 -9 45 -37q8 -18 8 -37q0 -10 -1 -15q-5 -33 -16 -59q-13 -33 -28 -56q-18 -30 -29 -43q-36 -45 -83 -80q20 -11 40 -11t41 8q17 7 36 22q20 16 31 30q13 16 23 34q28 51 74 72q44 19 94 19q57 0 128 -20q77 -23 133 -44l110 -43
l28 -12q69 -29 135 -51q58 -20 124 -32q32 -6 60 -6q23 0 46 5q31 7 59 32q29 26 29 62q0 26 -17 37q-24 16 -49 16q-20 0 -41 -8q-22 -10 -26 -29q8 -1 13 -8q3 -4 3 -9q0 -11 -6 -17q-4 -6 -14 -6q-13 0 -17 10zM157 260v-2q0 -8 -6 -11q-3 -1 -7 -5l-9 -9q-8 -27 -8 -60
q0 -21 6 -42q11 -42 32 -63q20 14 44 37q18 17 40 42q10 13 24 36q15 24 26 50q12 31 16 54q2 12 2 18q0 15 -6 27q-9 20 -33 24q-8 2 -23 2q-13 0 -20 -2q-30 -7 -53 -33q-20 -23 -35 -54q9 -2 10 -9zM76 138q-13 -31 -14 -59v-17q0 -10 3 -18q1 -8 8 -13q4 -3 12 -3
q14 0 34 10q12 6 26 16q-25 28 -35 71q-7 30 -7 51l1 17q-16 -24 -28 -55z" />
    <glyph glyph-name="p.003" unicode="&#xe043;" horiz-adv-x="1508" 
d="M1330 103q-4 7 -4 18q0 18 10 35q7 13 22 23q25 14 57 14q23 0 42 -6q23 -7 39 -27q11 -16 13 -39q0 -49 -36 -82q-31 -30 -72 -39q-21 -5 -52 -5q-29 0 -54 4q-54 8 -121 29q-55 17 -131 47l-133 50q-57 21 -129 43q-79 22 -137 22q-46 0 -84 -13q-48 -17 -80 -59
q-18 -24 -39 -34q-24 -13 -46 -17q-27 -5 -49 -5l-24 -1l-23 1q-27 -31 -54 -46q-28 -18 -58 -16q-12 2 -21 6t-14 15q-2 5 -2 14q0 10 4 17q7 13 21 21q13 7 31 12q17 3 31 3q17 23 28 41q15 26 25 49q11 26 18 51q6 26 6 49q-2 28 -12 41t-28 16q-4 1 -13 1q-12 0 -26 -3
q-24 -6 -43 -16q-25 -12 -40 -23q-19 -13 -30 -24q-43 -138 -88 -240q-43 -98 -95 -191q-15 -26 -44 -71q-22 -34 -59 -87q-29 -41 -71 -93q-37 -46 -77 -86q-35 -36 -77 -67q-36 -28 -72 -37q-15 -4 -34 -4q-17 2 -32 6q-14 6 -27 17q-12 14 -16 30q-2 6 0 9t7 5q3 1 9 -1
t7 -7q5 -17 14 -22q12 -4 17 -4q14 0 28 8q9 4 23 12q31 20 61 48q31 28 64 66q36 41 62 75l57 77q18 25 48 70l34 55q41 72 70 135q34 74 69 162q26 68 41 115q23 71 38 127q2 8 12 8h49q6 0 11 -5q3 -4 1 -11l-17 -57q24 17 63 34q42 17 83 17q34 0 62 -12q29 -15 40 -57
q4 -20 4 -30q0 -8 -2 -22q-4 -29 -15 -57q-10 -29 -24 -54q-10 -19 -28 -45q26 0 40 1q20 2 39 6q22 5 37 14q17 11 30 28q37 47 85 65q42 16 96 16q58 0 130 -20q66 -18 131 -43l134 -52q70 -28 130 -48q63 -21 121 -30q32 -5 55 -5t50 5q31 7 59 32q29 26 29 62
q0 26 -17 37q-24 16 -49 16q-20 0 -41 -8q-22 -10 -26 -29q8 -1 13 -8q3 -4 3 -9q0 -11 -6 -17q-4 -6 -14 -6q-13 0 -17 10zM214 63q-10 -1 -25 -8q-13 -7 -15 -21q18 7 40 29z" />
    <glyph glyph-name="q.003" unicode="&#xe044;" horiz-adv-x="1472" 
d="M1294 103q-4 7 -4 18q0 18 10 35q7 13 22 23q25 14 57 14q23 0 42 -6q23 -8 39 -27q11 -16 13 -39q0 -49 -36 -82q-31 -30 -72 -39q-21 -5 -53 -5q-29 0 -54 4q-62 11 -123 31q-63 19 -133 47l-135 53q-64 24 -130 43q-73 21 -136 21q-47 0 -82 -13q-46 -17 -74 -63
q-20 -32 -51 -75q-34 -47 -67 -84q-39 -42 -76 -72q-39 -32 -75 -39q2 -35 -2 -64q-4 -34 -12 -69q-9 -34 -21 -66q-14 -34 -27 -56q-14 -23 -34 -39q-23 -15 -44 -21q-14 -2 -21 -2q-11 0 -23 3q-21 8 -34 29q-8 14 -8 34q0 10 1 15q5 33 16 68q14 40 31 76q25 53 38 76
q19 37 36 66q14 26 27 46l71 118l-34 -23q-19 -12 -36 -20q-21 -10 -47 -15q-4 -1 -12 -1q-20 0 -34 11q-18 13 -22 34q-1 6 -1 18q0 15 2 22q3 18 14 47q13 32 41 76t56 75q33 38 64 61q35 27 64 34q20 4 29 4q13 0 28 -5q26 -11 42 -38l11 21q5 9 6 15q3 7 12 7h49
q6 0 11 -5q3 -6 0 -12q-21 -50 -50 -106q-26 -50 -63 -115l-130 -216l-13 -20q6 -5 11 -19l5 -21q32 7 70 39q37 32 72 72q44 53 65 83q33 46 48 70q31 49 79 69q40 17 94 17q58 0 130 -20q70 -19 132 -43l136 -54q59 -25 133 -49q60 -21 122 -32q33 -5 56 -5t50 5
q31 7 59 32q29 26 29 62q0 26 -17 37q-24 16 -49 16q-20 0 -41 -8q-22 -10 -26 -29q8 -1 13 -8q3 -4 3 -9q0 -11 -6 -17q-4 -6 -14 -6q-13 0 -17 10zM311 316q-9 20 -20 30q-4 4 -13 4q-12 0 -22 -5q-28 -11 -59 -42q-31 -30 -61 -69q-30 -40 -50 -78q-21 -40 -27 -72
q-2 -12 -1 -19q0 -11 4 -18q5 -8 12 -9h4q7 0 15 4q32 17 59 38q28 21 54 45l53 95zM64 -270q-15 -32 -28 -72q-11 -33 -13 -62v-5q0 -15 7 -22q7 -6 19 -3q9 3 24 14q12 10 20 25q11 19 25 53q14 42 20 63q7 32 12 65q3 36 2 60l-14 3q-7 2 -11 9l-30 -58q-19 -34 -33 -70z
" />
    <glyph glyph-name="r.003" unicode="&#xe045;" horiz-adv-x="1378" 
d="M1200 103q-4 7 -4 18q0 18 10 35q7 13 22 23q25 14 57 14q23 0 42 -6q23 -8 39 -27q11 -16 13 -39q0 -49 -36 -82q-31 -30 -72 -39q-21 -5 -53 -5q-29 0 -54 4q-64 12 -124 31q-74 24 -133 49l-136 53q-55 21 -130 44q-74 21 -134 21q-44 0 -83 -14q-44 -17 -72 -63
q-8 -15 -32 -37q-27 -26 -54 -44q-30 -21 -61 -31q-26 -8 -49 -8q-12 0 -18 1q-27 3 -43 19q-17 15 -14 44q1 20 13 48q11 26 26 52q15 28 30 50l29 42q12 18 14 28q2 8 2 12t-2 12q-3 11 -11 22l-17 24l-19 -38l-12 -21l-37 -62q-19 -31 -39 -60q-16 -24 -40 -53
q-5 -5 -8 -4q-5 0 -8 3q-3 1 -5 7q-2 5 3 9q30 39 41 55l40 62q6 9 37 64l32 61q-7 12 -16 38q-8 24 -8 47q-1 22 8 42q8 18 31 23l9 1q4 0 10 -2q10 -6 14 -11q5 -9 8 -17q2 -14 2 -20q0 -18 -7 -39q-9 -28 -18 -49q14 -16 27 -27l23 -20l25 -23q10 -10 13 -20v-5
q0 -8 -3 -19q-3 -9 -19 -34q-3 -3 -13 -18q-11 -14 -21 -33l-24 -40q-14 -21 -21 -42q-7 -17 -13 -38q-2 -10 -2 -14q0 -9 3 -15q6 -14 20 -14h5q10 0 23 5q10 3 28 13q14 8 18 12q20 14 29 22q9 7 24 22l19 19q3 4 10 14q30 52 75 71q42 18 94 18q58 0 129 -20
q70 -19 132 -43l138 -54q66 -27 134 -51q58 -20 124 -32q32 -6 60 -6q23 0 46 5q31 7 59 32q29 26 29 62q0 26 -17 37q-24 16 -49 16q-20 0 -41 -8q-22 -10 -26 -29q8 -1 13 -8q3 -4 3 -9q0 -11 -6 -17q-4 -6 -14 -6q-13 0 -17 10zM184 478l-2 17q-1 10 -12 8
q-14 -3 -17 -14q-4 -10 -2 -26q2 -15 6 -28q5 -16 9 -22q18 39 18 65z" />
    <glyph glyph-name="s.003" unicode="&#xe046;" horiz-adv-x="1381" 
d="M1203 103q-4 7 -4 18q0 18 10 35q7 13 22 23q25 14 57 14q23 0 42 -6q23 -8 39 -27q11 -16 13 -39q0 -49 -36 -82q-31 -30 -72 -39q-21 -5 -53 -5q-29 0 -54 4q-64 12 -124 31q-74 24 -133 49l-136 53q-51 19 -131 44q-72 22 -135 22q-45 0 -80 -13q-44 -17 -71 -63
q-35 -60 -69 -83q-33 -23 -64 -24q-14 -23 -31 -40q-22 -22 -42 -34q-33 -19 -61 -19q-18 0 -37 8q-17 8 -28 25q-10 16 -15 43q-3 28 8 56q11 27 40 38q4 2 12 2q9 0 13 -2q21 -7 29 -11l28 -15q10 -6 25 -13q10 24 13 59t3 70l-3 72l-3 62l-80 -97q-52 -63 -76 -98
q-3 -5 -8 -5t-8 3q-4 1 -6 7q-2 5 3 9q43 61 85 110l89 108q0 31 3 56q1 23 8 45q9 26 27 37q12 8 29 8q19 0 31 -15q6 -9 6 -19q0 -9 -2 -14q-5 -14 -11 -22l-15 -20q-2 -15 -2 -47q0 -28 1 -43l5 -98q1 -16 1 -49q0 -31 -1 -47q-1 -43 -16 -82q23 4 48 27q25 21 51 65
q31 51 76 70q44 18 95 18q58 0 129 -20q70 -19 132 -43q73 -28 137 -54q69 -29 133 -50q58 -20 124 -32q32 -6 60 -6q23 0 46 5q31 7 59 32q29 26 29 62q0 26 -17 37q-24 16 -49 16q-20 0 -41 -8q-22 -10 -26 -29q8 -1 13 -8q3 -4 3 -9q0 -11 -6 -17q-4 -6 -14 -6
q-13 0 -17 10zM145 17q6 6 9 14q-8 3 -19 10l-26 14q-12 7 -26 12q-11 4 -17 2q-19 -8 -27 -27q-5 -14 -5 -32q0 -25 9 -34t18 -10h6q4 0 16 2q16 6 23 11q22 15 39 38z" />
    <glyph glyph-name="t.003" unicode="&#xe047;" 
d="M704 543l-1 10q0 6 2 16t11 26q8 13 21 20q19 13 47 16q6 1 17 1q16 0 34 -5q22 -7 39 -26q14 -17 14 -43q0 -23 -9 -46q-8 -17 -23 -34q-12 -13 -32 -25q-23 -12 -39 -16q-34 -9 -74 -9q-52 0 -109 9q-57 8 -106 19q-37 8 -111 26l-115 27q-40 -60 -65 -101
q-37 -62 -62 -111q-32 -63 -49 -108q-21 -53 -27 -91q-2 -16 -2 -22q0 -20 7 -30q12 -19 36 -19q16 0 36 6q24 8 44 21q32 22 52 42q23 23 33 39q3 4 8 6q2 0 8 -2q5 -3 6 -7q2 -5 -2 -10q-12 -19 -35 -42q-28 -28 -57 -46q-21 -14 -59 -25q-27 -8 -59 -8q-43 0 -69 19
q-24 17 -23 57q0 27 9 58q12 43 32 87q28 61 50 102q20 40 59 104l60 95q-48 9 -111 14q-11 1 -33 1q-31 0 -66 -5q-46 -7 -82 -30q-37 -23 -59 -63q-3 -4 -8 -6q-3 -1 -8 2q-5 2 -6 6q-2 5 1 9q25 45 66 71q39 25 91 34q35 6 73 6q24 0 36 -1q53 -4 121 -17l23 32l21 26
q3 4 9 4h50q8 0 11 -6q1 -2 1 -5t-3 -8q2 2 -20 -26l-23 -31q17 -3 53 -11l53 -13q13 -4 22 -5q15 -4 36.5 -9.5t50.5 -11.5q44 -10 103 -19q55 -9 105 -9q36 0 71 8q32 7 58 33q27 27 27 64q0 18 -11 31q-14 13 -31 17q-15 4 -38 2q-21 -3 -34 -12q-11 -8 -15 -16
q-6 -8 -4 -22q9 -2 13 -6q4 -5 4 -14q0 -13 -12 -18l-8 -2q-8 0 -14 6q-9 9 -10 20z" />
    <glyph glyph-name="u.003" unicode="&#xe048;" horiz-adv-x="1486" 
d="M1308 103q-4 7 -4 18q0 18 10 35q7 13 22 23q25 14 57 14q23 0 42 -6q22 -8 39 -27q11 -16 13 -39q0 -49 -36 -82q-31 -30 -72 -39q-21 -5 -52 -5q-29 0 -54 4q-59 9 -122 30q-55 17 -131 47l-134 51q-55 21 -130 44q-80 23 -136 23q-47 -2 -83 -13q-45 -16 -75 -60
q-9 -15 -35 -42q-28 -29 -52 -46q-17 -12 -36 -20q-23 -9 -45 -12q-14 -2 -22 -2q-12 0 -24 3q-22 4 -37 19q-11 11 -14 26q-3 12 -3 23q0 23 5 40q4 20 7 29l-36 -45q-22 -27 -50 -51q-29 -24 -58 -36q-17 -7 -29 -7t-28 7q-16 8 -20 24q-4 14 -2 39q1 13 6 30l11 35
q11 33 27 68q13 31 32 68q12 24 34 62q19 32 29 46q5 5 11 5h49q8 0 11 -7q1 -2 1 -5t-3 -8q-18 -26 -35 -56q-18 -31 -36 -68q-22 -48 -31 -71q-16 -37 -23 -63q-5 -12 -6 -27l-1 -11q0 -6 2 -14q1 -11 13 -11q10 0 27 13q28 22 53 54q26 31 51 69q16 24 46 74l70 124
q4 7 12 7h49q8 0 11 -6t-1 -12l-36 -66q-20 -34 -39 -74q-20 -40 -33 -76q-14 -39 -17 -71q-2 -28 7 -39q7 -11 23 -13h4q10 0 28 7q18 8 32 18q27 21 49 44q19 20 32 39q30 48 79 68q44 18 96 18q58 0 129 -20q78 -24 132 -44q90 -34 135 -53q59 -25 133 -49
q60 -21 122 -32q33 -5 56 -5t50 5q31 7 59 32q29 26 29 62q0 26 -17 37q-24 16 -49 16q-20 0 -41 -8q-22 -10 -26 -29q8 -1 13 -8q3 -4 3 -9q0 -11 -6 -17q-4 -6 -14 -6q-13 0 -17 10z" />
    <glyph glyph-name="v.003" unicode="&#xe049;" horiz-adv-x="1397" 
d="M1219 103q-4 7 -4 18q0 18 10 35q7 13 22 23q25 14 57 14q23 0 42 -6q23 -8 39 -27q11 -16 13 -39q0 -49 -36 -82q-31 -30 -72 -39q-21 -5 -53 -5q-29 0 -54 4q-62 11 -123 31q-68 21 -133 48l-136 53q-55 21 -130 44q-73 21 -136 21q-46 0 -81 -13q-44 -16 -72 -63
q-13 -20 -32 -34q-25 -18 -47 -26q-17 -7 -35 -7q-10 0 -15 1q-23 3 -37 27l-34 -33q-19 -17 -37 -27q-18 -11 -41 -16q-5 -1 -14 -1q-14 0 -32 5q-22 6 -34 19q-13 14 -18 30q-4 18 -4 29q0 22 8 48q12 42 28 73l30 58q24 46 45 77q23 33 33 42q4 3 9 3h49q9 0 12 -8v-4
q0 -6 -4 -9q-10 -10 -21 -26t-30 -47q-8 -13 -32 -59q-15 -30 -30 -65l-11 -29q-5 -13 -11 -41q-5 -23 -5 -39q0 -19 11 -27q8 -6 16 -6q5 0 17 4q16 6 38 23q18 15 34 31q17 17 20 21l-1 14q0 16 7 49q9 39 25 76q17 38 36 72q20 33 36 51q9 9 20 16q7 5 14 5q3 0 9 -2
q13 -4 18 -22q2 -18 2 -24q0 -28 -18 -64q-18 -37 -37 -66q-18 -29 -44 -63q-18 -24 -41 -49q4 -13 11.5 -18t19.5 -5q17 0 35 9q21 9 39 24q19 15 24 25q30 52 75 71q42 18 94 18q58 0 129 -20q70 -19 132 -43l138 -54q66 -27 134 -51q58 -20 124 -32q32 -6 60 -6
q23 0 46 5q31 7 59 32q29 26 29 62q0 26 -17 37q-24 16 -49 16q-20 0 -41 -8q-22 -10 -26 -29q8 -1 13 -8q3 -4 3 -9q0 -11 -6 -17q-4 -6 -14 -6q-13 0 -17 10zM255 176l27 38q1 2 11 17q20 32 32 57q14 29 15 49q1 5 1 14q0 5 -2 11q-1 3 -6 1t-14 -11q-14 -16 -31 -43
q-22 -38 -31 -59q-14 -32 -24 -63t-12 -54z" />
    <glyph glyph-name="w.003" unicode="&#xe04a;" horiz-adv-x="1641" 
d="M1463 103q-4 7 -4 18q0 18 10 35q7 13 22 23q25 14 57 14q23 0 42 -6q22 -7 39 -27q11 -16 13 -39q0 -49 -36 -82q-31 -30 -72 -39q-21 -5 -53 -5q-29 0 -54 4q-64 12 -124 31q-74 24 -133 49l-136 53q-51 19 -131 44q-74 23 -133 23q-43 0 -82 -14q-42 -16 -70 -62
q-10 -14 -20 -23q-9 -9 -31 -23q-19 -11 -37 -18t-38 -7h-6q-15 0 -26 6q-16 8 -23 26q-16 -16 -41 -36q-21 -15 -50 -31q-27 -14 -55 -18q-14 -2 -20 -2q-17 0 -35 6q-20 6 -30 19q-12 14 -16 28q-5 18 -5 34q0 19 3 35l-14 -18q-7 -10 -15 -18q-12 -14 -23 -25
q-14 -14 -32 -27q-16 -12 -36 -22q-14 -7 -30 -7q-17 0 -29 10q-10 8 -15 18q-5 11 -6 24q-1 5 -1 14t1 13l4 25l8 29q15 45 26 70q15 37 33 72q15 31 35 63q17 26 33 41q4 4 9 4h50q8 0 11 -8q1 -2 1 -5q0 -6 -5 -9q-18 -16 -37 -50q-19 -32 -40 -78q-20 -43 -33 -82
q-14 -38 -19 -64q-3 -15 -3 -25q0 -11 4 -15t9 -4t11 3q14 8 29 23l27 28q23 27 40 50q13 17 35 53q7 20 18 39q6 13 20 37q3 6 11 6h49q6 0 11 -6q4 -6 0 -12l-10 -19q-12 -22 -16 -31q-11 -22 -17 -39q-8 -20 -16 -44l-6 -25q-3 -12 -5 -32v-6q0 -9 4 -23q5 -13 18 -18
q9 -3 18 -3q12 0 23 4q21 7 43 21q18 11 40 32q18 17 29 29q-1 4 -1 14q0 20 6 48q7 35 21 73q14 36 30 69q16 30 34 50q9 9 19 16q7 5 14 5q3 0 9 -2q13 -4 18 -19q3 -15 3 -28q0 -17 -9 -43q-13 -33 -26 -57q-16 -29 -38 -62q-27 -40 -47 -62q-1 -3 -8 -10q6 -27 27 -28
l10 -1q15 0 34 8q25 10 44 25q20 17 27 27q31 52 76 71q42 18 93 18q58 0 129 -20q63 -18 133 -44l137 -54q73 -30 134 -50q58 -20 124 -32q32 -6 60 -6q23 0 46 5q31 7 59 32q29 26 29 62q0 26 -17 37q-24 16 -49 16q-20 0 -41 -8q-22 -10 -26 -29q8 -1 13 -8q3 -4 3 -9
q0 -11 -6 -17q-4 -6 -14 -6q-13 0 -17 10zM494 195q15 22 34 56q15 30 23 50q8 24 8 38q0 15 -5 20q-1 1 -3 1q-5 0 -14 -10q-16 -18 -28 -42q-16 -32 -26 -57q-13 -33 -20 -60q-9 -36 -10 -52q15 18 41 56z" />
    <glyph glyph-name="x.003" unicode="&#xe04b;" horiz-adv-x="1584" 
d="M1406 103q-4 7 -4 18q0 18 10 35q7 13 22 23q25 14 57 14q23 0 42 -6q23 -7 39 -27q11 -16 13 -39q0 -49 -36 -82q-31 -30 -72 -39q-21 -5 -52 -5q-29 0 -54 4q-58 9 -123 30q-55 17 -131 47l-133 52q-55 21 -130 44q-80 23 -136 23q-46 -2 -82 -13q-44 -16 -76 -60
q-8 -13 -38 -41q-31 -27 -60 -47q-24 -16 -51 -23q-28 -9 -56 -9q-28 -1 -56 8q-26 9 -48 29q-18 -15 -37 -25q-22 -11 -44 -11q-18 0 -28 7q-10 6 -18 17q-6 9 -10 25q-3 14 -3 29q0 12 12 12t12 -12t1 -19q2 -11 5 -17q6 -10 11 -13q8 -5 18 -5q19 0 35 10q14 8 30 20
q-15 21 -16 50q-1 10 -1 31t1 32q1 20 7 67q3 26 3 46q0 38 -10 59q-11 21 -40 21q-19 0 -36 -15q-21 -19 -39 -48q-18 -28 -33 -63l-27 -62l-12 -29l-11 -22q-3 -5 -7 -6q-3 -1 -9 1q-4 1 -6 7q-2 5 1 9q7 11 10 21q4 12 12 28l24 56q16 36 29 58q15 27 34 49q20 23 40 33
q23 11 51 13q29 0 50 -10t39 -31q16 -23 16 -64q0 -21 -1 -32l-6 -44q-4 -22 -6 -45q-3 -22 -3 -45q26 41 31 49l34 58q18 30 39 60q20 29 43 52q22 21 47 35q21 11 45 11q33 0 45 -29q4 -14 4 -22q0 -11 -5 -26q-9 -25 -23 -44q-3 -4 -8 -4q-4 -1 -9 2q-5 5 -5 9t3 8
q10 12 18 32q4 9 4 22q0 5 -2 15q-4 12 -17 13q-24 1 -46 -12q-22 -15 -45 -39q-23 -26 -43 -56q-25 -37 -39 -62l-36 -60q-11 -20 -31 -48q8 -29 25 -42q19 -16 48 -16q18 0 39 6q28 9 44 20q19 12 31 23l27 23l21 20l11 14q32 48 81 68q40 17 95 17q59 0 131 -20
q66 -18 131 -43l135 -53q62 -26 132 -49q62 -20 122 -31q33 -5 56 -5t50 5q31 7 59 32q29 26 29 62q0 26 -17 37q-24 16 -49 16q-20 0 -41 -8q-22 -10 -26 -29q8 -1 13 -8q3 -4 3 -9q0 -11 -6 -17q-4 -6 -14 -6q-13 0 -17 10z" />
    <glyph glyph-name="y.003" unicode="&#xe04c;" horiz-adv-x="1438" 
d="M1260 103q-4 7 -4 18q0 18 10 35q7 13 22 23q25 14 57 14q22 0 42 -6q22 -7 39 -27q11 -16 13 -39q0 -49 -36 -82q-31 -30 -72 -39q-21 -5 -52 -5q-29 0 -54 4q-54 8 -121 29q-66 21 -130 46l-132 50q-52 19 -128 43q-78 23 -143 23q-40 0 -78 -11q-46 -15 -79 -57
q-24 -32 -56 -60q-36 -31 -64 -50q-38 -27 -69 -44q-48 -26 -72 -38l-46 -76l-60 -96l-70 -104q-33 -47 -75 -95q-36 -41 -76 -72q-39 -30 -73 -34q-4 -1 -12 -1q-18 0 -28 9q-15 12 -22 34q-5 18 -5 34q0 11 1 16q5 29 16 52q13 28 30 53q21 30 42 53q21 24 61 60
q38 35 74 61q45 33 79 53q40 25 77 40l91 147l87 149l-49 -63q-34 -42 -50 -59l-25 -27q-22 -22 -34 -32q-20 -16 -37 -24q-13 -7 -25 -7q-6 0 -9 1q-18 4 -26 22q-5 15 -5 31q0 23 6 48l10 32q11 32 25 65q9 23 31 67l33 63q20 35 31 49q3 6 10 6h50q8 0 11 -7q1 -2 1 -5
t-3 -8q-15 -22 -36 -59t-38 -74q-19 -42 -32 -77q-15 -37 -21 -66q-7 -27 -5 -40q0 -3 3 -3q7 0 22 15l22 21l23 25q32 35 69 83l64 86l49 69l23 34q3 7 11 7h49q6 0 11 -5q3 -4 1 -12q-6 -16 -29 -60l-52 -94l-68 -117l-77 -128q65 38 117 73q56 38 99 92q36 46 85 64
q45 15 97 15q59 0 131 -20q60 -17 131 -42l133 -52q72 -29 130 -47q63 -21 120 -30q32 -5 55 -5t50 5q31 7 59 32q29 26 29 62q0 26 -17 37q-24 16 -49 16q-20 0 -41 -8q-22 -10 -26 -29q8 -1 13 -8q3 -4 3 -9q0 -11 -6 -17q-4 -6 -14 -6q-13 0 -17 10zM-188 -450
q29 29 53 60q26 32 52 70l49 74l43 69l35 57q-32 -17 -58 -33q-32 -20 -66 -45q-37 -28 -66 -55q-31 -27 -61 -60q-38 -42 -63 -88q-20 -37 -20 -69q0 -38 16 -36q13 3 34 15q23 13 52 41z" />
    <glyph glyph-name="z.003" unicode="&#xe04d;" horiz-adv-x="1454" 
d="M1276 103q-4 7 -4 18q0 18 10 35q7 13 22 23q25 14 57 14q23 0 42 -6q22 -7 39 -27q11 -16 13 -39q0 -49 -36 -82q-31 -30 -72 -39q-21 -5 -53 -5q-29 0 -54 4q-64 12 -124 31q-74 24 -133 49l-135 53q-51 19 -131 44q-72 21 -134 21q-43 0 -82 -14q-44 -17 -72 -63
q-20 -33 -50 -61q-33 -33 -64 -56q-37 -29 -72 -50q-33 -20 -70 -40q-8 -38 -31 -79q-22 -39 -59 -88q-36 -46 -78 -86q-48 -45 -88 -74q-47 -34 -87 -52t-73 -18q-49 0 -65 30q-9 18 -9 42q0 13 3 28q7 34 36 67q28 32 71 63t74 47q43 24 74 39q25 12 77 34l78 35
q6 24 6 46q0 14 -3 28q-11 38 -19 59q-6 15 -11.5 31.5t-5.5 29.5q0 19 14 41q10 15 31 30l37 25q17 11 28 24q6 8 6 15q0 5 -3 11q-4 11 -16 22q-26 23 -25 22q-19 -41 -49 -84q-29 -43 -69 -83q-4 -4 -9 -3q-5 0 -8 3q-2 2 -4 8q0 5 4 9q40 40 69 83q31 46 47 83
q-16 15 -23 24q-7 11 -7 22q0 13 10 25q7 7 20 12q9 3 16 3q12 0 19 -7q3 -4 5 -13q1 -2 1 -8q0 -5 -1 -8l-2 -15q10 -10 23 -20l26 -20q9 -7 24 -22q11 -12 18 -24q8 -16 8 -26q0 -5 -4 -15q-8 -15 -27 -29q-15 -11 -41 -26q-23 -14 -34 -32q-10 -14 -10 -28q0 -7 1 -10
q5 -21 13 -40l18 -47q9 -27 8 -55q33 18 64 37q44 30 65 47q29 22 59 52q27 27 45 57q33 51 77 70q42 18 94 18q58 0 129 -20q70 -19 132 -43q73 -28 137 -54q69 -29 133 -50q58 -20 124 -32q32 -6 59 -6q22 0 47 5q31 7 59 32q29 26 29 62q0 26 -17 37q-24 16 -49 16
q-20 0 -41 -8q-22 -10 -26 -29q8 -1 13 -8q3 -4 3 -9q0 -11 -6 -17q-4 -6 -14 -6q-13 0 -17 10zM-181 -420q31 18 66 47q37 32 65 60q33 33 60 66q29 36 47 63q21 34 29 54l-143 -64q-71 -33 -136 -80q-39 -28 -65 -57q-27 -28 -33 -58q-3 -12 -3 -22q0 -18 10 -27
q13 -10 28 -10q5 0 15 2q31 8 60 26z" />
    <glyph glyph-name="a.004" unicode="&#xe04e;" horiz-adv-x="1584" 
d="M144 77q-4 6 -3 13q0 5 5 12q5 5 14 5q7 0 14 -5q6 -6 6 -14q3 -26 -9 -44q-14 -19 -34 -26q-21 -9 -46 -9q-25 -1 -46 9q-20 9 -34 27q-12 17 -12 37q0 48 36 82q32 31 72 38q22 5 55 5q34 0 59 -5q63 -11 131 -33q55 -18 140 -52q63 -27 141 -55q73 -26 137 -42
q51 -13 101 -13q74 0 133 34q46 28 82 94q11 46 41 97q29 50 70 87q43 40 99 59q33 11 63 11q27 0 51 -7q6 -2 8 -5q2 -4 0 -9q-4 -12 -15 -9q-15 4 -31 4q-25 0 -46 -10q-37 -18 -68 -49t-54 -71q-24 -41 -36 -73q-3 -7 -6 -21q-4 -13 -6 -30q-2 -11 -4 -33v-8q0 -12 3 -21
q5 -12 13 -18q5 -3 11 -3q4 0 14 2q19 6 45 29q19 17 53 56q22 27 55 72l52 75l45 69l33 52q3 6 10 6h50q6 0 11 -5q3 -6 0 -12l-27 -56l-26 -51q-10 -19 -28 -59t-25 -59q-11 -27 -19 -55q-4 -13 -6 -28q-2 -10 -2 -15l1 -8q1 -9 10 -14q6 -2 10 -2t16 2q17 5 37 17
q22 13 39 28q18 17 33 33q14 16 24 32q3 4 8 6q2 0 8 -2q5 -3 6 -7q2 -6 -1 -10q-12 -18 -27 -35q-11 -13 -37 -35q-19 -17 -42 -30q-22 -13 -41 -19q-13 -4 -25 -5q-18 -2 -28 -2q-14 0 -28 3q-14 5 -21 13q-13 14 -13 42q0 18 4 35q10 36 19 58q14 36 27 64
q-11 -16 -35 -48l-15 -20q-17 -22 -53 -62q-27 -31 -50 -49q-26 -21 -46 -27q-9 -2 -25 -4q-4 -1 -11 -1q-11 0 -16 1q-13 1 -26 8q-13 4 -21 15q-10 10 -13 25q-3 9 -5 27q-40 -52 -92 -73t-112 -21q-62 2 -126 19q-63 17 -135 44l-136 53q-56 23 -133 50q-61 20 -123 31
q-24 5 -56 5q-31 0 -52 -5q-32 -7 -59 -31q-29 -27 -29 -66q0 -21 16 -33q21 -15 43 -16l12 -1q15 0 34 7q22 9 27 29q-9 2 -12 9z" />
    <glyph glyph-name="b.004" unicode="&#xe04f;" horiz-adv-x="1449" 
d="M144 77q-4 6 -3 13q0 5 5 12q5 5 14 5q7 0 14 -5q6 -6 6 -14q3 -26 -9 -44q-14 -19 -34 -26q-21 -9 -46 -9q-25 -1 -46 9q-20 9 -34 27q-12 17 -12 37q0 48 36 82q32 31 72 38q22 5 55 5q34 0 59 -5q64 -11 130 -33q55 -18 140 -52q57 -24 142 -55q64 -23 137 -41
q51 -13 101 -13q76 0 133 33q47 28 82 93v1q31 105 74 204q44 99 88 177q26 47 41 71l55 86q22 33 65 91q33 44 70 86q36 41 72 72q35 31 70 46q22 9 40 14q24 4 36 4q27 0 46 -12q16 -10 24 -35q2 -4 0 -9q-3 -4 -8 -6t-9 1q-4 1 -6 7q-4 15 -14 22q-10 5 -17 5
q-14 0 -28 -8q-13 -6 -23 -13q-34 -21 -63 -50q-33 -32 -66 -69q-29 -34 -64 -81l-59 -85l-51 -80q-11 -17 -40 -68q-30 -54 -50 -96q-26 -54 -47 -104q7 8 29 26q13 11 36 23q17 8 39 13q7 2 20 2q14 0 20 -2q23 -4 34 -20q8 -14 10 -35q0 -22 -7 -44q-9 -27 -16 -46
q-14 -29 -20 -41q-10 -20 -18 -30l-21 -32q-7 -11 -23 -31q36 0 73 9q36 7 71 38q3 3 7 3q5 0 9 -4q3 -4 3 -8q0 -5 -4 -9q-46 -39 -89 -46q-45 -8 -89 -6q-25 -28 -45 -47q-22 -22 -45 -33q-16 -9 -30 -10l-11 -1q-9 0 -18 3q-14 5 -22 16q-6 11 -6 25q0 24 14 38
q12 13 29 21q14 7 37 10q20 3 35 3q16 18 31 40q10 14 28 42l18 33q13 22 24 50q10 23 13 49q2 24 -14 31q-3 2 -11 2q-9 0 -17 -4q-19 -10 -32 -22q-11 -9 -29 -29q-12 -13 -19 -24q-13 -18 -24 -41q-10 -19 -18 -41l-12 -37q-8 -26 -11 -39q-1 -11 -12 -9h-52
q-39 -58 -90 -82q-55 -26 -121 -26q-52 0 -118 16t-136 42q-66 24 -139 54t-136 51q-65 22 -125 33q-25 5 -58 5q-31 0 -52 -5q-32 -7 -59 -31q-29 -27 -29 -66q0 -21 16 -33q21 -15 43 -16l12 -1q15 0 34 7q22 9 27 29q-9 2 -12 9zM1202 64l-20 -3q-8 -2 -22 -8
q-10 -4 -19 -13q-7 -7 -9 -19q-1 -12 3 -12h1q2 0 10 4q27 19 56 51z" />
    <glyph glyph-name="c.004" unicode="&#xe050;" horiz-adv-x="1434" 
d="M144 77q-4 6 -3 13q0 5 5 12q5 5 14 5q7 0 14 -5q6 -6 6 -14q3 -26 -9 -44q-14 -19 -34 -26q-21 -9 -46 -9q-25 -1 -46 9q-20 9 -34 27q-12 17 -12 37q0 48 36 82q32 31 72 38q22 5 55 5q34 0 59 -5q63 -11 131 -33q55 -18 140 -52q63 -27 141 -55q73 -26 137 -42
q51 -13 101 -13q74 0 133 34q46 28 82 94q6 31 16 52q11 27 35 62q20 28 47 57q28 28 57 46q34 21 65 29q10 3 29 6q18 3 37 3q18 -2 33 -6q14 -6 18 -21q1 -3 1 -9q0 -12 -9 -27q-12 -19 -26 -27q-6 -2 -7 -2q-6 0 -10 6q-2 4 -2 7q0 6 7 10q8 5 15 13q6 6 8 16q0 6 -8 11
q-2 1 -7 1q-10 0 -23 -4q-27 -7 -56 -25q-30 -20 -50 -40q-21 -20 -43 -50q-23 -32 -34 -55l-13 -32q-7 -16 -10 -37q-4 -16 -2 -37q2 -20 10 -33q12 -16 32 -21q12 -3 26 -3q10 0 15 1q19 3 43 11q35 14 34 13q31 15 62 37q28 20 58 48q3 3 7 3q6 0 10 -4q2 -2 4 -8
q0 -5 -4 -9q-24 -23 -62 -50q-34 -23 -65 -38q-27 -13 -54 -19q-34 -10 -73 -10q-27 0 -54 8q-29 9 -46 35q-6 9 -9 20q-4 13 -5 22q-40 -57 -91 -79q-53 -23 -112 -24q-58 0 -126 17q-71 19 -136 43q-69 26 -138 54q-51 21 -134 50q-65 22 -125 33q-25 5 -57 5
q-31 0 -52 -5q-32 -7 -59 -31q-29 -27 -29 -66q0 -21 16 -33q21 -15 43 -16l12 -1q15 0 34 7q22 9 27 29q-9 2 -12 9z" />
    <glyph glyph-name="d.004" unicode="&#xe051;" horiz-adv-x="1648" 
d="M144 77q-4 6 -3 13q0 5 5 12q5 5 14 5q7 0 14 -5q6 -6 6 -14q3 -26 -9 -44q-14 -19 -34 -26q-21 -9 -46 -9q-25 -1 -46 9q-20 9 -34 27q-12 17 -12 37q0 48 36 82q32 31 72 38q22 5 55 5q34 0 59 -5q63 -11 131 -33q55 -18 140 -52q63 -27 141 -55q73 -26 137 -42
q51 -13 101 -13q74 0 133 34q46 28 82 94q-2 36 11 68q12 34 28 62q20 34 51 62q30 27 68 44q37 17 81 17q37 0 72 -21q20 -14 32 -25l86 167q44 82 97 160q26 39 51 74q27 37 65 84q38 45 70 78q37 37 70 57q18 12 45 21q24 8 52 10q24 0 46 -11t29 -39q1 -3 -1 -9
q-3 -4 -8 -6l-4 -1q-7 0 -10 9q-4 15 -14 22q-10 5 -18 5q-14 0 -28 -8q-13 -6 -23 -13q-33 -20 -69 -56q-36 -35 -69 -75q-30 -36 -63 -82l-51 -73q-17 -24 -47 -73q-33 -53 -63 -106q-33 -58 -63 -123q-27 -56 -50 -124q-22 -68 -22 -118q0 -40 20 -65q15 -17 35 -17
q18 -1 40 7q14 6 32 17q21 13 34 24q18 15 30 28q10 11 20 29q3 4 8 6q2 1 8 -1q5 -1 6 -6q2 -6 -1 -10q-5 -12 -22 -32q-17 -19 -33 -32q-19 -16 -37 -27q-19 -12 -36 -18q-26 -10 -60 -10q-46 0 -75 21q-26 19 -37 46q-10 25 -9 56q-34 -46 -68 -68q-35 -23 -66 -26
q-20 -2 -30 -2q-21 0 -37 4q-31 8 -54 39q-4 4 -7 12q-4 8 -5 12q-37 -61 -89 -87q-57 -30 -124 -30q-59 0 -116 14q-74 20 -137 43q-61 22 -140 54q-84 34 -137 52q-74 25 -127 34q-25 5 -58 5q-32 0 -53 -5q-32 -7 -59 -31q-29 -27 -29 -66q0 -21 16 -33q21 -15 43 -16
l12 -1q15 0 34 7q22 9 27 29q-9 2 -12 9zM1385 346q-29 17 -57 14q-29 -5 -52 -19q-26 -17 -45 -40q-22 -26 -35 -48q-32 -55 -38 -94q-3 -15 -3 -29q0 -19 7 -38q8 -20 25 -28q16 -9 36 -7q34 5 56 22q22 16 39 38q15 17 28 39q10 18 21 24q6 29 22 71q18 46 29 68
q-17 18 -33 27z" />
    <glyph glyph-name="e.004" unicode="&#xe052;" horiz-adv-x="1387" 
d="M144 77q-4 6 -3 13q0 5 5 12q5 5 14 5q7 0 14 -5q6 -6 6 -14q3 -26 -9 -44q-14 -19 -34 -26q-21 -9 -46 -9q-25 -1 -46 9q-20 9 -34 27q-12 17 -12 37q0 48 36 82q32 31 72 38q22 5 55 5q34 0 59 -5q63 -11 131 -33q55 -18 140 -52q63 -27 141 -55q73 -26 137 -42
q51 -13 101 -13q74 0 133 34q46 28 82 94q7 35 25 79q16 36 43 71q26 33 58 57t74 37q15 4 35 6l14 1q12 0 21 -3q14 -4 22 -17q3 -4 3 -12q0 -10 -6 -24q-10 -22 -37 -53q-24 -28 -64 -66q-37 -35 -69 -59q-32 -25 -55 -34q-2 -22 -2 -30q0 -19 4 -30q8 -23 25 -32
q11 -6 26 -6q5 0 17 2q24 4 57 23q24 14 35 23l31 24l26 24l18 19q4 4 9 4q2 0 8 -2q3 -2 5 -8q2 -4 -3 -9q-12 -14 -47 -46q-26 -24 -70 -50q-18 -10 -38 -17q-24 -8 -43 -11q-18 -2 -26 -2l-18 1q-22 1 -40 12q-23 14 -30 34q-10 21 -11 43q-41 -56 -91 -78
q-53 -23 -112 -24q-59 0 -127 17q-63 17 -135 44l-138 53q-51 21 -134 50q-65 22 -125 33q-25 5 -57 5q-31 0 -52 -5q-32 -7 -59 -31q-29 -27 -29 -66q0 -21 16 -33q21 -15 43 -16l12 -1q15 0 34 7q22 9 27 29q-9 2 -12 9zM1204 181q22 18 61 54q21 20 55 58q25 28 33 47
q2 8 -1 13t-11 3q-32 -6 -61 -29q-29 -22 -54 -53q-26 -32 -43 -65q-19 -33 -28 -64q16 9 49 36z" />
    <glyph glyph-name="f.004" unicode="&#xe053;" horiz-adv-x="1375" 
d="M144 77q-4 6 -3 13q0 5 5 12q5 5 14 5q7 0 14 -5q6 -6 6 -14q3 -26 -9 -44q-14 -19 -34 -26q-21 -9 -46 -9q-25 -1 -46 9q-20 9 -34 27q-12 17 -12 37q0 48 36 82q32 31 72 38q22 5 55 5q34 0 59 -5q63 -11 131 -33q55 -18 140 -52q63 -27 141 -55q73 -26 137 -42
q51 -13 101 -13q74 0 133 34q46 28 82 94q30 71 64 140q33 69 69 132q29 52 70 117q38 60 65 93q26 32 56 59t61 43q9 5 28 12q22 6 34 8q6 1 17 1t16 -1q16 -1 27 -11q12 -9 9 -29q-6 -24 -20 -49q-21 -39 -51 -84q-35 -52 -68 -94l-78 -98l-81 -96l-78 -86
q-41 -45 -69 -71l-16 -42q7 3 15 1q7 -3 13 -9q12 -12 16 -30q6 -27 7 -36q23 6 49 20q32 17 52 31q21 15 47 39q20 19 35 40q3 4 8 6q3 0 9 -2q4 -4 5 -7q2 -5 -2 -10q-13 -20 -39 -44q-24 -23 -51 -42q-33 -23 -57 -34q-30 -16 -54 -20q1 -30 -2 -76q-3 -42 -12 -82
q-9 -41 -25 -77q-18 -38 -41 -59q-28 -25 -62 -25q-17 0 -30 7q-19 10 -34 34q-11 19 -11 45q0 28 6 59.5t20 84.5q21 80 49 155q-44 -42 -94 -55q-37 -10 -83 -10q-70 0 -153 25q-74 22 -130 44l-131 52q-70 29 -128 47q-64 20 -118 29q-24 4 -52 4q-31 0 -51 -5
q-32 -7 -59 -31q-29 -27 -29 -66q0 -21 16 -33q21 -15 43 -16l12 -1q15 0 34 7q22 9 27 29q-9 2 -12 9zM1386 415q44 52 98 126q43 58 77 120q6 9 8 13l8 16q3 8 2 15q-1 6 -11 7q-25 1 -55 -18q-31 -22 -63 -58q-34 -37 -69 -90q-41 -60 -71 -112q-31 -55 -64 -121
q-42 -84 -61 -127l97 107zM1164 30q-4 17 -12 24q-4 5 -8 1q-2 -2 -4 -8q-2 -8 -2 -13q0 -8 1 -10q3 -11 11 -16q8 -4 18 -6zM1135 -240q16 37 23 72q8 43 11 77q2 50 1 70q-20 0 -34 8q-15 10 -19 28q-18 -51 -40 -126q-21 -72 -25 -129l-1 -13l1 -15q0 -15 5 -27
q5 -11 14 -14h2q10 0 24 14q24 22 38 55z" />
    <glyph glyph-name="g.004" unicode="&#xe054;" horiz-adv-x="1550" 
d="M144 77q-4 6 -3 13q0 5 5 12q5 5 14 5q7 0 14 -5q6 -6 6 -14q3 -26 -9 -44q-14 -19 -34 -26q-21 -9 -46 -9q-25 -1 -46 9q-20 9 -34 27q-12 17 -12 37q0 48 36 82q32 31 72 38q22 5 55 5q34 0 59 -5q63 -11 131 -33q55 -18 140 -52q63 -27 141 -55q73 -26 137 -42
q51 -13 101 -13q74 0 133 34q46 28 82 94q7 36 30 77q22 41 54 75q33 36 71 61q38 26 76 35q12 3 37 5h10q14 0 27 -3q19 -5 34 -13q18 -11 27 -26q11 22 13 28q3 7 12 7h49q6 0 11 -5q3 -6 0 -12q-7 -19 -27 -57q-17 -32 -47 -86l-61 -106l-70 -116q58 24 113 55
q54 30 105 81q4 4 9 4q6 -2 8 -4t4 -8q0 -5 -4 -9q-30 -30 -61 -52q-35 -25 -63 -41q-30 -17 -65 -33l-67 -28l-15 -24l-40 -67l-54 -87q-24 -37 -65 -96q-31 -42 -71 -88q-33 -37 -72 -68q-47 -33 -84 -33q-19 0 -29 10q-15 14 -20 35q-4 12 -4 29q0 11 1 16q1 25 9 43
q20 53 60 101q41 51 91 90q49 42 105 75q52 31 105 55l47 77l45 76q-17 -14 -36 -27q-13 -9 -39 -23q-17 -8 -44 -13q-16 -3 -32 -3q-11 0 -16 1q-23 3 -41 15q-17 10 -25 33q-39 -58 -90 -82q-55 -26 -121 -26q-52 0 -118 16t-136 42q-66 24 -139 54t-136 51
q-65 22 -125 33q-25 5 -58 5q-31 0 -52 -5q-32 -7 -59 -31q-29 -27 -29 -66q0 -21 16 -33q21 -15 43 -16l12 -1q15 0 34 7q22 9 27 29q-9 2 -12 9zM1439 320q-18 40 -55 40q-11 0 -23 -3q-32 -8 -65 -33q-33 -24 -62 -58q-33 -39 -49 -71q-21 -38 -27 -69q-2 -12 -2 -17
q0 -10 3 -18q5 -14 15 -18q7 -4 19 -4q17 0 41 11q35 17 66 43q31 24 59 52l45 80q22 38 35 65zM962 -415q27 21 57 56q40 48 58 74q24 34 40 61q2 2 13 19l44 72q23 40 31 51q-42 -20 -90 -51q-51 -33 -93 -70q-44 -37 -80 -82q-37 -45 -53 -90l-6 -20q-3 -13 -2 -23
q0 -10 6 -17q4 -5 15 -5q29 0 60 25z" />
    <glyph glyph-name="h.004" unicode="&#xe055;" horiz-adv-x="1549" 
d="M144 77q-4 6 -3 13q0 5 5 12q5 5 14 5q7 0 14 -5q6 -6 6 -14q3 -26 -9 -44q-14 -19 -34 -26q-21 -9 -46 -9q-25 -1 -46 9q-20 9 -34 27q-12 17 -12 37q0 48 36 82q32 31 72 38q22 5 55 5q34 0 59 -5q63 -11 131 -33q55 -18 140 -52q63 -27 141 -55q73 -26 137 -42
q51 -13 101 -13q74 0 133 34q46 28 82 94q20 60 56 150q28 70 74 166q42 87 87 167q43 77 100 153q51 69 108 124q57 54 115 79q23 10 40 13q18 4 41 2q18 -3 36 -14q15 -9 23 -34q2 -4 0 -9q-3 -4 -8 -6l-4 -1q-8 0 -11 9q-4 15 -14 22q-10 5 -18 5q-14 0 -28 -8
q-13 -6 -23 -13q-55 -33 -111 -94q-56 -59 -105 -132q-52 -76 -96 -154q-45 -82 -82 -161q-39 -82 -66 -151q-34 -88 -46 -127q33 55 43 70q16 25 40 59l29 38q21 26 40 44q20 19 45 37q23 16 44 17h5q16 0 25 -9q10 -13 11 -29q1 -5 1 -17q0 -25 -9 -55q-11 -36 -26 -82
q-15 -43 -24 -82q-4 -16 -4 -33q0 -21 7 -38q4 -11 18 -16q3 -1 9 -1q9 0 26 5q16 6 32 19q15 11 31 27q15 15 28 31l24 29q3 5 8 5t9 -3q3 -2 4 -7v-2q0 -5 -3 -8l-26 -32q-13 -16 -30 -33q-11 -11 -33 -29q-17 -13 -36 -19q-16 -7 -41 -10l-16 -1q-15 0 -27 3
q-23 7 -36 18q-19 18 -19 54q0 23 8 57q14 56 23 83l22 73q6 23 6 37q0 7 -1 10q-2 8 -10 5q-13 -8 -19 -14q-8 -7 -24 -25l-24 -27l-19 -23q-5 -7 -9 -11q-61 -83 -135 -227q-4 -7 -11 -7h-49q-5 0 -10 5q-4 4 -2 10l12 40q-42 -45 -94 -61q-42 -13 -93 -13q-67 0 -144 23
q-62 17 -131 44l-133 52q-68 27 -129 48q-63 20 -120 30q-24 4 -53 4q-31 0 -52 -5q-32 -7 -59 -31q-29 -27 -29 -66q0 -21 16 -33q21 -15 43 -16l12 -1q15 0 34 7q22 9 27 29q-9 2 -12 9z" />
    <glyph glyph-name="i.004" unicode="&#xe056;" horiz-adv-x="1300" 
d="M1270 416q-5 0 -17 2q3 0 -27 4q-5 2 -7 7t0 10l9 21q5 11 6 20q3 10 13 10h49q5 0 10 -5q3 -4 1 -11q-1 -6 -7 -25q-8 -18 -12 -25q-4 -6 -9 -7zM144 77q-4 6 -3 13q0 5 5 12q5 5 14 5q7 0 14 -5q6 -6 6 -14q3 -26 -9 -44q-14 -19 -34 -26q-21 -9 -46 -9q-25 -1 -46 9
q-20 9 -34 27q-12 17 -12 37q0 48 36 82q32 31 72 38q22 5 55 5q34 0 59 -5q63 -11 131 -33q55 -18 140 -52q63 -27 141 -55q73 -26 137 -42q51 -13 101 -13q74 0 133 34q46 28 82 94l1 2q13 31 31 62l35 62q18 33 30 58q14 29 18 53q2 9 11 9h50q5 0 10 -5q4 -4 2 -10
q-6 -27 -27 -68l-44 -84q-20 -36 -43 -84q-19 -40 -24 -71v-9q0 -13 3 -19q5 -8 13 -9h3q7 0 17 5q13 6 22 12q18 12 53 43q36 34 53 53q4 4 9 4t8 -3q3 -2 4 -7q2 -4 -3 -9q-21 -25 -55 -57q-31 -28 -56 -44q-13 -8 -28 -15q-14 -6 -34 -10q-14 -2 -20 -2l-14 1
q-15 1 -30 13q-10 10 -15 25q-5 14 -3 29q-40 -46 -93 -63q-47 -14 -95 -14q-70 0 -142 22q-59 17 -132 44l-133 53q-70 28 -130 48q-63 20 -120 30q-25 4 -54 4q-31 0 -52 -5q-32 -7 -59 -31q-29 -27 -29 -66q0 -21 16 -33q21 -15 43 -16l12 -1q15 0 34 7q22 9 27 29
q-9 2 -12 9z" />
    <glyph glyph-name="j.004" unicode="&#xe057;" horiz-adv-x="1301" 
d="M1291 418q-5 0 -17 2q-4 0 -26 4q-5 2 -7 7q-3 4 -1 10l10 21q5 11 6 20q1 10 12 10h49q6 0 11 -5q2 -4 2 -6q0 -7 -3.5 -16.5t-5.5 -13.5l-11 -25q-4 -6 -9 -7zM144 77q-4 6 -3 13q0 5 5 12q5 5 14 5q7 0 14 -5q6 -6 6 -14q3 -26 -9 -44q-14 -19 -34 -26q-21 -9 -46 -9
q-25 -1 -46 9q-20 9 -34 27q-12 17 -12 37q0 48 36 82q32 31 72 38q27 6 57 6q22 0 54 -5q57 -10 126 -32q79 -27 136 -50q69 -29 138 -54q69 -26 135 -42q62 -17 116 -17q67 0 117 23t85 77l97 171q38 68 48 96q3 7 12 7h49h2q4 0 8 -4q4 -5 2 -12q-5 -12 -28 -57l-47 -87
l-61 -106l-70 -117q65 28 113 55q54 30 105 81q4 4 9 4q6 -2 8 -4t4 -8q0 -5 -4 -9q-28 -28 -60 -52q-35 -25 -63 -41q-33 -18 -66 -33l-67 -28l-44 -74l-58 -94q-33 -52 -68 -100q-41 -57 -73 -91q-40 -43 -74 -69q-45 -34 -83 -34q-19 0 -32 11q-14 14 -19 37q-3 13 -3 28
q0 7 2 21q3 24 11 45q21 51 62 98t90 87q51 42 103 72q54 32 102 54l21 33l19 33q-43 -28 -96 -36q-14 -2 -43 -2q-39 0 -68 5q-55 9 -120 29q-66 21 -124 45l-125 49q-49 20 -120 44q-61 19 -112 26q-32 4 -47 4q-27 0 -51 -6q-32 -7 -59 -31q-29 -27 -29 -66q0 -21 16 -33
q21 -15 43 -16l12 -1q15 0 34 7q22 9 27 29q-9 2 -12 9zM759 -373q41 47 75 97q32 47 67 105l54 88q-37 -17 -88 -50q-49 -31 -90 -67q-49 -42 -79 -80q-36 -42 -54 -86q-7 -14 -10 -35q-1 -5 -1 -14q0 -11 2 -16q4 -11 15 -16l5 -1q8 0 25 10q37 20 79 65z" />
    <glyph glyph-name="k.004" unicode="&#xe058;" horiz-adv-x="1526" 
d="M144 77q-4 6 -3 13q0 5 5 12q5 5 14 5q7 0 14 -5q6 -6 6 -14q3 -26 -9 -44q-14 -19 -34 -26q-21 -9 -46 -9q-25 -1 -46 9q-20 9 -34 27q-12 17 -12 37q0 48 36 82q32 31 72 38q22 5 55 5q34 0 59 -5q63 -11 131 -33q55 -18 140 -52q63 -27 141 -55q73 -26 137 -42
q51 -13 101 -13q74 0 133 34q46 28 82 94q26 77 58 153q31 74 75 167q37 76 89 166q47 81 100 152q55 72 109 122q57 54 114 79q23 10 40 13q18 4 41 2q18 -3 36 -14q15 -9 23 -34q1 -3 -1 -9q-3 -4 -8 -6t-9 1q-3 1 -5 7q-4 15 -14 22q-10 5 -18 5q-14 0 -28 -8
q-13 -6 -23 -13q-49 -31 -96 -79q-48 -48 -95 -110q-40 -53 -88 -130q-40 -65 -78 -137q-39 -71 -66 -133q-30 -68 -48 -115l42 20q14 7 42 25q25 16 39 29q18 15 32 32q12 15 3 20q-10 5 -23 5h-2q-8 0 -10 9v3q0 7 7 11q9 4 23 7q12 3 25 3q14 0 25 -4q12 -5 18 -14
q6 -10 6 -20q-2 -13 -5 -19q-4 -9 -13 -18l-15 -14q-33 -27 -78 -49q-43 -21 -86 -39q33 -9 52 -28q16 -17 28 -43q11 -24 15 -48t12 -44q7 -19 19 -29q8 -6 20 -6q10 0 17 2q20 5 37 16q25 16 40 28q17 13 36 32q12 12 26 32q2 3 8 5q3 0 9 -2q3 -2 4 -7q2 -5 -2 -10
q-9 -14 -29 -34q-18 -19 -39 -36q-23 -18 -43 -30q-22 -13 -42 -18q-24 -6 -42 -6q-12 0 -28 4q-26 7 -43 27t-24 46l-17 52q-8 23 -21 47q-11 20 -35 31q-32 -92 -60 -193q-4 -9 -12 -9h-50q-6 0 -9 5q-4 4 -2 10l6 19l5 20q-40 -43 -93 -61q-39 -13 -87 -13q-72 0 -150 24
q-71 20 -131 43l-133 53q-68 27 -129 48q-63 20 -120 30q-24 4 -53 4q-31 0 -52 -5q-32 -7 -59 -31q-29 -27 -29 -66q0 -21 16 -33q21 -15 43 -16l12 -1q15 0 34 7q22 9 27 29q-9 2 -12 9z" />
    <glyph glyph-name="l.004" unicode="&#xe059;" horiz-adv-x="1375" 
d="M144 77q-4 6 -3 13q0 5 5 12q5 5 14 5q7 0 14 -5q6 -6 6 -14q3 -26 -9 -44q-14 -19 -34 -26q-21 -9 -46 -9q-25 -1 -46 9q-20 9 -34 27q-12 17 -12 37q0 48 36 82q32 31 72 38q22 5 55 5q34 0 59 -5q63 -11 131 -33q55 -18 140 -52q63 -27 141 -55q73 -26 137 -42
q51 -13 101 -13q74 0 133 34q46 28 82 94q14 38 22 55q1 2 19 42l54 113q32 66 72 141q56 102 86 151q49 81 94 144q45 64 94 116q47 50 88 72q15 8 42 16q20 5 38 5q25 0 49 -13q17 -10 25 -36q2 -4 0 -9q-3 -4 -8 -6t-9 1q-4 1 -6 7q-4 15 -14 22q-8 5 -17 5q-14 0 -28 -8
q-13 -6 -23 -13q-39 -24 -83 -74q-43 -48 -89 -115q-44 -64 -89 -139q-48 -81 -82 -145l-70 -136l-11 -22q-29 -61 -41 -87q-51 -111 -56 -160v-7q0 -10 3 -16q3 -8 10 -11q6 -3 17 -1q14 2 21 4q16 4 46 16q22 9 52 25q24 13 49 31q23 17 34 32q3 3 9 5q4 0 8 -3q3 -2 5 -7
v-2q0 -5 -3 -8q-14 -17 -37 -34q-24 -18 -51 -33q-30 -18 -56 -27q-30 -13 -50 -18q-13 -4 -26 -5q-15 -3 -30 -3q-16 0 -30 3q-15 3 -24 10q-10 9 -15 24q-5 16 -4 32q-39 -48 -93 -68q-44 -18 -102 -18q-63 0 -135 20q-69 19 -133 43q-99 38 -136 53q-60 25 -131 49
q-62 20 -122 31q-24 5 -56 5q-30 0 -51 -5q-32 -7 -59 -31q-29 -27 -29 -66q0 -21 16 -33q21 -15 43 -16l12 -1q15 0 34 7q22 9 27 29q-9 2 -12 9z" />
    <glyph glyph-name="m.004" unicode="&#xe05a;" horiz-adv-x="1725" 
d="M144 77q-4 6 -3 13q0 5 5 12q5 5 14 5q7 0 14 -5q6 -6 6 -14q3 -26 -9 -44q-14 -19 -34 -26q-21 -9 -46 -9q-25 -1 -46 9q-20 9 -34 27q-12 17 -12 37q0 48 36 82q32 31 72 38q22 5 55 5q34 0 59 -5q63 -11 131 -33q55 -18 140 -52q63 -27 141 -55q73 -26 137 -42
q51 -13 101 -13q74 0 133 34q46 28 82 94l60 120q28 56 57 122q3 8 11 8h50q6 0 11 -5q3 -6 0 -12q-14 -31 -16 -36q-5 -13 -19 -39q23 27 49 55q25 28 61 37q12 3 22 3q18 0 31 -10q17 -14 17 -40q0 -7 -1 -11q-2 -13 -10 -37q-14 -34 -23 -53l-25 -53l-20 -41l50 61
q31 39 69 78t75 69q39 30 68 31h4q15 0 23 -11q6 -9 6 -26q0 -6 -2 -22q-4 -31 -17 -63q-14 -37 -25 -60l-26 -59q-13 -28 -19 -61q-2 -14 -2 -19q0 -14 5 -22q6 -11 22 -11q20 0 43 13q19 11 42 29t39 34q22 22 29 31q4 4 9 4q2 0 8 -2q3 -2 5 -8q2 -4 -3 -9
q-17 -20 -35 -38q-19 -19 -40 -34q-18 -14 -44 -28q-26 -13 -49 -17q-19 -4 -41 -4q-21 2 -36 9q-16 8 -23 24q-5 12 -5 27q0 30 16 73q12 33 23 56l24 56q14 30 20 55l4 14l2 12q-1 4 -5 5h-2q-3 0 -11 -5q-28 -22 -67 -62q-41 -43 -67 -75l-63 -78l-57 -73q-7 -12 -22 -12
q-9 0 -16 5.5t-9 15.5l-1 11l1 13q1 11 6 22l25 49l26 58q12 25 24 58q8 21 16 52q8 30 4 37q-4 6 -14 2q-13 -7 -25 -21q-15 -15 -29 -32q-16 -17 -26 -32l-14 -19q-7 -9 -31 -44l-33 -51l-35 -70l-34 -70q-3 -7 -12 -7h-48q-6 0 -11 6q-4 4 -1 11l7 14q-44 -34 -96 -45
q-30 -6 -63 -6q-24 0 -48 3q-59 8 -122 27q-61 19 -127 45l-129 50q-81 32 -124 46q-57 18 -114 28q-34 4 -49 4q-27 0 -52 -6q-32 -7 -59 -31q-29 -27 -29 -66q0 -21 16 -33q21 -15 43 -16l12 -1q15 0 34 7q22 9 27 29q-9 2 -12 9z" />
    <glyph glyph-name="n.004" unicode="&#xe05b;" horiz-adv-x="1553" 
d="M144 77q-4 6 -3 13q0 5 5 12q5 5 14 5q7 0 14 -5q6 -6 6 -14q3 -26 -9 -44q-14 -19 -34 -26q-21 -9 -46 -9q-25 -1 -46 9q-20 9 -34 27q-12 17 -12 37q0 48 36 82q32 31 72 38q22 5 55 5q34 0 59 -5q63 -11 131 -33q55 -18 140 -52q63 -27 141 -55q73 -26 137 -42
q51 -13 101 -13q74 0 133 34q46 28 82 94l68 136q24 48 49 107q3 7 11 7h50q12 0 12 -12q0 -4 -1 -5l-35 -77l-44 -89l60 62q34 34 65 59q13 11 27 20q18 13 32 19q15 7 34 12q4 1 11 1q11 0 19 -4q20 -9 21 -28l1 -14q0 -12 -3 -24q-8 -36 -22 -65l-33 -63q-27 -51 -31 -60
q-16 -32 -20 -58q-1 -5 -1 -13q0 -13 7 -16q7 -4 17 -4q7 0 11 1q13 2 34 11q14 6 25 13q38 23 61 43q27 23 42 41q4 4 9 4q2 0 8 -2q3 -2 5 -8q2 -4 -3 -9q-14 -16 -45 -43q-38 -31 -65 -46q-18 -10 -36 -16q-21 -8 -46 -13q-13 -3 -27 -3q-13 0 -19 1q-21 3 -37 17
q-11 10 -13 27l-1 12q0 10 3 19q7 25 22 56l28 54l28 53q12 23 22 56q6 20 6 30q0 11 -8 11t-22 -11l-26 -20q-24 -19 -53 -48l-49 -51l-44 -49q-20 -23 -36 -39l-53 -107q-3 -8 -11 -8h-50q-7 0 -10 6q-4 6 0 12l4 8l3 7q-66 -52 -156 -52q-62 0 -131 18q-82 19 -169 56
l-171 67q-77 29 -160 50q-47 11 -84 11q-29 0 -54 -6q-32 -7 -59 -31q-29 -27 -29 -66q0 -21 16 -33q21 -15 43 -16l12 -1q15 0 34 7q22 9 27 29q-9 2 -12 9z" />
    <glyph glyph-name="o.004" unicode="&#xe05c;" horiz-adv-x="1441" 
d="M144 77q-4 6 -3 13q0 5 5 12q5 5 14 5q7 0 14 -5q6 -6 6 -14q3 -26 -9 -44q-14 -19 -34 -26q-21 -9 -46 -9q-25 -1 -46 9q-20 9 -34 27q-12 17 -12 37q0 48 36 82q32 31 72 38q22 5 55 5q34 0 59 -5q63 -11 131 -33q55 -18 140 -52q63 -27 141 -55q73 -26 137 -42
q51 -13 101 -13q74 0 133 34q46 28 82 94q7 22 16 38q7 15 21 38q7 12 25 34q14 16 27 23q6 2 16 2q7 -1 16 -1q16 38 43 68q27 31 65 42q13 4 29 4q17 0 30 -4q32 -9 45 -37q8 -18 8 -37q0 -10 -1 -15q-5 -33 -16 -59q-13 -33 -28 -56q-18 -30 -29 -43q-36 -45 -83 -80
q20 -11 40 -11t41 8q18 7 37 21q20 16 31 30q12 14 22 35q3 4 8 6q3 1 8 -1q4 -1 7 -6q2 -5 -1 -10q-10 -20 -27 -40q-18 -21 -36 -35q-20 -15 -43 -23q-22 -9 -47 -9q-32 0 -61 20q-4 -3 -32 -19q-21 -11 -36 -14q-16 -2 -23 -2q-33 0 -51 18q-25 22 -28 59
q-41 -53 -92 -75t-112 -22q-62 2 -126 19q-60 15 -134 43l-137 53q-51 21 -134 50q-58 20 -124 32q-24 5 -56 5q-31 0 -52 -5q-32 -7 -59 -31q-29 -27 -29 -66q0 -21 16 -33q21 -15 43 -16l12 -1q15 0 34 7q22 9 27 29q-9 2 -12 9zM1243 260v-2q0 -8 -6 -11q-3 -1 -7 -5
l-9 -9q-8 -27 -8 -60q0 -21 6 -42q11 -42 32 -63q20 14 44 37q18 17 40 42q10 13 24 36q15 24 26 50q12 32 16 54q2 12 2 18q0 15 -6 27q-9 20 -33 24q-8 2 -23 2q-13 0 -20 -2q-30 -7 -53 -33q-20 -23 -35 -54q9 -2 10 -9zM1162 138q-13 -31 -14 -59v-17q0 -10 3 -18
q1 -8 8 -13q5 -3 12 -3q14 0 34 10q12 6 26 16q-25 28 -35 71q-7 30 -7 51l1 17q-16 -24 -28 -55z" />
    <glyph glyph-name="p.004" unicode="&#xe05d;" horiz-adv-x="1550" 
d="M144 77q-4 6 -3 13q0 5 5 12q5 5 14 5q7 0 14 -5q6 -6 6 -14q3 -26 -9 -44q-14 -19 -34 -26q-21 -9 -46 -9q-25 -1 -46 9q-20 9 -34 27q-12 17 -12 37q0 48 36 82q32 31 72 38q22 5 55 5q34 0 59 -5q63 -11 131 -33q55 -18 140 -52q63 -27 141 -55q73 -26 137 -42
q51 -13 101 -13q74 0 133 34q46 28 82 94q26 68 41 115q23 71 38 127q2 8 12 8h49q6 0 11 -5q3 -4 1 -11l-17 -57q24 17 63 34q42 17 83 17q34 0 62 -12q29 -15 40 -57q4 -20 4 -30q0 -8 -2 -22q-5 -28 -15 -57q-10 -28 -24 -54q-10 -19 -28 -45q36 -1 77 8q38 9 69 41
q4 4 9 4t8 -3q2 -2 4 -8q0 -5 -4 -9q-20 -22 -41 -33q-23 -12 -46 -17q-21 -5 -48 -7l-24 -1l-23 1q-27 -31 -54 -46q-28 -18 -58 -16q-12 2 -21 6t-14 15q-2 5 -2 14q0 10 4 17q8 14 21 21t31 12q17 3 31 3q17 23 28 41q15 26 25 49q10 25 18 51q6 26 6 49q-2 28 -12 41
t-28 16q-4 1 -13 1q-12 0 -26 -3q-24 -6 -43 -16q-25 -12 -40 -23q-20 -14 -30 -24q-43 -138 -88 -240q-43 -98 -95 -191l-43 -71q-27 -41 -60 -87q-29 -41 -71 -93q-35 -43 -76 -86q-35 -35 -77 -67q-38 -28 -73 -37q-15 -4 -34 -4q-17 2 -32 6q-15 6 -26 17q-13 13 -17 30
q-2 6 1 9q1 3 7 5q3 1 9 -1q5 -2 6 -7q5 -18 15 -22t17 -4q10 0 28 8l22 12q30 19 62 48q38 36 64 66q18 21 62 75l57 77l47 70l34 55q40 72 52 97q35 72 52 112q-41 -40 -95 -55q-37 -9 -79 -9q-22 0 -33 1q-59 4 -123 24q-74 22 -130 44l-131 52q-73 30 -127 47
q-64 20 -118 29q-24 4 -52 4q-31 0 -51 -5q-32 -7 -59 -31q-29 -27 -29 -66q0 -21 16 -33q21 -15 43 -16l12 -1q15 0 34 7q22 9 27 29q-9 2 -12 9zM1300 63q-10 -1 -25 -8q-13 -7 -15 -21q18 7 40 29z" />
    <glyph glyph-name="q.004" unicode="&#xe05e;" horiz-adv-x="1514" 
d="M144 77q-4 6 -3 13q0 5 5 12q5 5 14 5q7 0 14 -5q6 -6 6 -14q3 -26 -9 -44q-14 -19 -34 -26q-21 -9 -46 -9q-25 -1 -46 9q-20 9 -34 27q-12 17 -12 37q0 48 36 82q32 31 72 38q22 5 55 5q34 0 59 -5q63 -11 131 -33q55 -18 140 -52q63 -27 141 -55q73 -26 137 -42
q51 -13 101 -13q74 0 133 34q46 28 82 94q13 32 41 76t56 75q33 38 64 61q35 27 64 34q20 4 29 4q13 0 28 -5q26 -11 42 -38l11 21q5 9 6 15q3 7 12 7h49q6 0 11 -5q3 -6 0 -12q-21 -50 -50 -106q-26 -50 -63 -115l-130 -216l-13 -20q6 -5 11 -19l5 -21q32 7 70 39
q35 30 71 73q35 42 65 83l49 69q3 4 8 6q2 0 8 -2q3 -2 5 -7t-2 -10l-52 -74q-37 -50 -67 -86q-40 -45 -76 -74q-41 -33 -76 -40q2 -35 -2 -64q-4 -34 -12 -69q-9 -34 -21 -66q-14 -34 -27 -56q-14 -23 -34 -39q-23 -15 -44 -21q-14 -2 -21 -2q-11 0 -23 3q-21 8 -34 29
q-8 14 -8 34q0 10 1 15q5 34 17 68q12 39 31 76q19 43 37 76q20 38 36 66q14 26 27 46l71 118l-34 -23q-19 -12 -36 -20q-21 -10 -47 -15q-4 -1 -12 -1q-20 0 -34 11q-14 10 -18 24q-5 15 -5 30q-39 -48 -93 -68q-45 -17 -102 -17q-63 0 -135 20q-69 19 -133 43
q-90 34 -135 53q-62 26 -132 49q-62 20 -122 31q-24 5 -56 5q-30 0 -50 -5q-32 -7 -59 -31q-29 -27 -29 -66q0 -21 16 -33q21 -15 43 -16l12 -1q15 0 34 7q22 9 27 29q-9 2 -12 9zM1397 316q-9 20 -20 30q-4 4 -13 4q-12 0 -22 -5q-28 -11 -59 -42q-31 -30 -61 -69
q-30 -40 -50 -78q-21 -40 -27 -72q-2 -12 -1 -19q0 -11 4 -18q5 -8 12 -9h4q7 0 15 4q32 17 59 38q29 21 54 45l53 95zM1150 -270q-15 -32 -28 -72q-11 -33 -13 -62v-5q0 -15 7 -22q7 -6 19 -3q9 3 24 14q12 10 20 25q11 19 25 53q14 42 20 63q7 32 12 65q3 36 2 60l-14 3
q-7 2 -11 9l-30 -58q-19 -34 -33 -70z" />
    </font>
</defs>
</svg>
