<?xml version="1.0" standalone="no"?>
<!DOCTYPE svg PUBLIC "-//W3C//DTD SVG 1.1//EN" "http://www.w3.org/Graphics/SVG/1.1/DTD/svg11.dtd" >
<svg xmlns="http://www.w3.org/2000/svg" xmlns:xlink="http://www.w3.org/1999/xlink" version="1.1">
<metadata>
Created by FontForge 20170731 at Sun Aug 16 13:02:00 2015
 By Aleksey,,,
2015 Iconian Fonts - www.iconian.com
</metadata>
<defs>
<font id="GrandNational3DItalic" horiz-adv-x="806" >
  <font-face 
    font-family="Grand National 3D Italic"
    font-weight="400"
    font-style="italic"
    font-stretch="normal"
    units-per-em="1000"
    panose-1="0 0 0 0 0 0 0 0 0 0"
    ascent="800"
    descent="-200"
    x-height="459"
    cap-height="593"
    bbox="-71 -210 1457.64 747"
    underline-thickness="50"
    underline-position="-175"
    unicode-range="U+0020-2122"
  />
<missing-glyph horiz-adv-x="500" 
 />
    <glyph glyph-name=".notdef" horiz-adv-x="500" 
 />
    <glyph glyph-name=".null" horiz-adv-x="0" 
 />
    <glyph glyph-name="nonmarkingreturn" horiz-adv-x="500" 
 />
    <glyph glyph-name="space" unicode=" " horiz-adv-x="366" 
 />
    <glyph glyph-name="space" unicode="&#xa0;" horiz-adv-x="366" 
 />
    <glyph glyph-name="FL0021h" unicode="!" horiz-adv-x="300" 
d="M52 2h190l28 112h-190zM93 165h190l103 413h-190zM403 587l24 -32l-108 -436h-28l21 -28l-34 -136h-215l-23 32h-6l35 142h27l-15 22h-6l110 442h220z" />
    <glyph glyph-name="FL0022h" unicode="&#x22;" horiz-adv-x="428" 
d="M212 394q35 0 58 22.5t30 49.5l27 109h-132l-45 -181h62zM398 394q35 0 58 22.5t30 49.5l27 109h-132l-45 -181h62zM137 379h-6l53 211h162l-1 -6l18 -24l7 30h162l-1 -6l24 -32l-31 -121q-4 -15 -12.5 -30t-21.5 -27t-30 -19.5t-38 -7.5h-74l-25 32h-6l4 13
q-14 -20 -36 -32.5t-49 -12.5h-74z" />
    <glyph glyph-name="FL0023h" unicode="#" horiz-adv-x="856" 
d="M470 -13h6l24 -32h221l29 118h113l33 131l-24 32l1 6h-81l16 64h113l33 132l-24 32l2 6h-81l19 79l-24 32l2 6h-227l-29 -117h-65l19 79l-24 32l2 6h-227l-29 -117h-112l-35 -138h6l24 -32h74l-16 -64h-112l-34 -137h6l24 -32h74l-21 -86h6l24 -32h221l29 118h65z
M518 120h-127l-30 -118h-197l30 118h-112l27 107h112l31 126h-112l27 108h112l29 117h197l-29 -117h127l29 117h197l-29 -117h113l-27 -108h-113l-31 -126h113l-27 -107h-113l-30 -118h-197zM418 227h127l31 126h-127zM484 306h65l-16 -64h-65z" />
    <glyph glyph-name="FL0024h" unicode="$" 
d="M513 698l-26 -104h-188q-23 0 -46.5 -12t-43.5 -30t-35 -40t-20 -42l-31 -125q-8 -29 3 -60.5t35 -48.5l10 -14q11 -14 26.5 -23t35.5 -9h153l-16 -65h-302l-34 -138h6l24 -32h264l-19 -76h6l24 -32h115l27 108h192q22 0 45 11.5t42.5 29.5t34 39t19.5 41l31 125
q5 22 0 45.5t-19 41.5l-10 13q-10 24 -29.5 41t-47.5 17h-157l16 65h303l33 132l-24 32l1 6h-271l17 66l-24 32l1 6h-121zM531 344h204q19 0 34.5 -10.5t25 -26t13 -35t-0.5 -37.5l-31 -124q-5 -18 -18 -37.5t-31 -35t-38.5 -26t-39.5 -10.5h-204l-26 -108h-91l26 108h-302
l27 108h302l32 126h-203q-19 0 -34.5 10.5t-25.5 26t-13.5 35t1.5 37.5l31 125q4 18 17 37.5t31 35t38.5 26t39.5 10.5h203l26 104h91l-26 -104h303l-27 -108h-303zM504 236l-32 -126h106l32 126h-106zM335 344h105l31 127h-105zM539 190h44l-16 -65h-44zM402 424h43
l-16 -65h-43z" />
    <glyph glyph-name="FL0026h" unicode="%" horiz-adv-x="1036" 
d="M568 489q6 27 -10 48l-14 19l-1 -1q-4 16 -16 27t-29 11h-249q-14 0 -27 -6.5t-24 -17t-19 -22.5t-11 -23l-45 -179q-5 -17 2 -35.5t23 -27.5h-1l15 -20q15 -18 35 -18h241l-271 -257h11l24 -32h189l280 264l-41 -163q-5 -17 2 -35.5t23 -27.5h-1l15 -20q15 -18 35 -18
h249q13 0 25.5 6.5t23 16t18 21t10.5 22.5l45 179q6 27 -10 48l-14 19l-1 -1q-4 16 -16 27t-29 11h-247l265 250l-25 33l7 6h-198l-279 -264zM485 345q-5 -18 -23.5 -36t-38.5 -18h-249q-20 0 -30 18t-6 36l45 179q5 18 23.5 36t38.5 18h249q20 0 30 -18t6 -36zM992 56
q-6 -18 -24.5 -36t-38.5 -18h-249q-20 0 -30 18t-5 36l45 179q5 18 23.5 36t38.5 18h249q20 0 30 -18t6 -36zM811 578h157l-608 -576h-158zM261 367h113l33 136h-113zM766 78h114l34 136h-114zM330 457h51l-19 -75h-51zM836 167h52l-19 -74h-52z" />
    <glyph glyph-name="FL002Ah" unicode="&#x26;" horiz-adv-x="844" 
d="M113 -12q11 -15 26.5 -24t35.5 -9h582l58 234h65l33 132l-24 32l2 6h-505l16 65h177l-6 -23h6l24 -32h221l16 66q6 23 0.5 46t-19.5 41l-10 13q-10 24 -29.5 41t-46.5 17h-436q-23 0 -46.5 -12t-43.5 -30t-35 -40t-20 -41l-28 -112q-3 -12 5.5 -32t16.5 -35
q-8 -7 -16.5 -16t-17 -18.5t-14.5 -18.5t-8 -16l-27 -111q-8 -29 2.5 -60.5t34.5 -48.5zM552 110l32 126h-219l27 108h480l-27 -108h-65l-59 -234h-570q-19 0 -34 10.5t-25 26t-13.5 35t1.5 37.5l27 111q1 6 7.5 14t15 17t17.5 17t15 14l7 6q-3 4 -8 13t-10 19.5t-8 20
t-2 15.5l28 112q4 18 17 37t31 34.5t38.5 26t39.5 10.5h436q19 0 34 -10.5t24.5 -26t13 -34.5t-0.5 -37l-13 -54h-197l13 55h-239l-90 -361h276zM376 189h181l-16 -64h-214l24 96h1z" />
    <glyph glyph-name="FL0027h" unicode="'" horiz-adv-x="241" 
d="M212 394q34 0 57 22.5t30 49.5l27 109h-132l-45 -181h63zM137 379h-6l53 211h161l-1 -6l24 -32l-31 -121q-4 -15 -12.5 -30t-21.5 -27t-30 -19.5t-38 -7.5h-74z" />
    <glyph glyph-name="FL0028h" unicode="(" horiz-adv-x="465" 
d="M587 533l33 131l-24 32l1 6h-272q-23 0 -46 -12t-43 -30t-35 -40t-20 -41l-144 -578q-7 -29 3.5 -60t34.5 -49l10 -14q11 -15 26 -24t35 -9h269l33 132l-24 32l2 6h-126l129 518h158zM123 -108q-19 0 -34 10.5t-25 26t-13.5 35t1.5 37.5l144 578q4 18 17 37t31 35
t38.5 26t38.5 10h257l-26 -107h-158l-145 -580h158l-27 -108h-257z" />
    <glyph glyph-name="FL0029h" unicode=")" horiz-adv-x="465" 
d="M51 0l-27 -108h257q19 0 39 10.5t37.5 26t30.5 35t18 37.5l144 578q4 18 0.5 37t-13 35t-24.5 26t-34 10h-257l-26 -107h158l-145 -580h-158zM183 565h-6l34 137h272q27 0 47 -17t30 -41l10 -12q14 -18 19 -41.5t0 -46.5l-144 -578q-5 -20 -19.5 -41t-34.5 -39t-43 -29.5
t-45 -11.5h-268l-24 32h-6l35 138h158l129 518h-120z" />
    <glyph glyph-name="FL0F98h" unicode="*" horiz-adv-x="280" 
d="M259 504l14 -36l57 37l-17 32l44 8l-11 57l-40 -16l11 36h-61l-5 -37l-32 16l-31 -56l36 -8l-40 -33l41 -36zM173 492l-13 11l22 17l-9 12h1l-8 2l49 87l25 -13l4 29h93l-3 -6l10 -17l16 6l1 -12v1l21 -26l16 -81l-40 -8l16 -24l-83 -55l-18 25l-23 -25l-59 53z" />
    <glyph glyph-name="FL002Bh" unicode="+" horiz-adv-x="526" 
d="M319 513l-39 -155h-154l-34 -137h6l24 -32h116l-30 -122h6l24 -32h131l38 154h155l33 132l-24 32l1 5h-123l29 117l-23 32l2 6h-138zM334 82h-108l39 154h-154l27 108h154l38 154h108l-38 -154h154l-27 -108h-154z" />
    <glyph glyph-name="FL002Ch" unicode="," horiz-adv-x="240" 
d="M96 -69q34 0 57 22.5t30 49.5l26 106h-131l-44 -178h62zM22 -84h-6l52 208h160l-2 -6l24 -32l-29 -118q-4 -15 -13 -30t-22 -27t-30 -19.5t-38 -7.5h-73z" />
    <glyph glyph-name="FL002Dh" unicode="-" horiz-adv-x="446" 
d="M92 219h6l24 -31h360l32 130l-24 32l2 6h-366zM137 341h336l-27 -107h-336z" />
    <glyph glyph-name="period" unicode="." horiz-adv-x="240" 
d="M51 2h131l27 107h-131zM40 -13h-6l34 137h160l-2 -6l24 -32l-32 -130h-155z" />
    <glyph glyph-name="FL002Fh" unicode="/" horiz-adv-x="523" 
d="M655 593h-254l-394 -606h8l24 -32h247l389 600l-25 31zM32 2l375 576h221l-375 -576h-221z" />
    <glyph glyph-name="FL0030h" unicode="0" 
d="M113 -12q11 -15 26.5 -24t35.5 -9h498q22 0 45 11.5t42.5 29.5t34 39t19.5 41l89 359q6 23 0.5 46t-19.5 41l-10 13q-10 24 -29.5 41t-47.5 17h-498q-23 0 -46.5 -12t-43.5 -30t-35 -40t-20 -41l-89 -359q-8 -29 2.5 -60.5t34.5 -48.5zM776 111q-5 -18 -18 -37.5t-31 -35
t-38.5 -26t-39.5 -10.5h-498q-19 0 -34 10.5t-25 26t-13.5 35t1.5 37.5l89 359q4 18 17 37t31 34.5t38.5 26t39.5 10.5h498q19 0 34.5 -10.5t25 -26t13 -34.5t-0.5 -37zM276 110h302l90 361h-302zM402 424h240l-75 -299h-240z" />
    <glyph glyph-name="one" unicode="1" horiz-adv-x="396" 
d="M141 2h197l144 576h-286l-27 -107h89zM157 456h-6l34 137h316l-2 -6l24 -32l-149 -600h-221l-24 32h-6l109 437h-51z" />
    <glyph glyph-name="FL0032h" unicode="2" 
d="M708 236q19 0 39.5 10.5t38 26t30.5 35t18 37.5l31 125q4 18 0.5 37t-13 34.5t-25 26t-34.5 10.5h-597l-27 -107h499l-31 -127h-400q-19 0 -39.5 -10.5t-38.5 -26t-31 -35t-17 -37.5l-59 -233h696l27 108h-499l32 126h400zM157 456h-6l34 137h612q28 0 47.5 -17t29.5 -41
l10 -13q14 -18 19.5 -41t-0.5 -46l-31 -125q-5 -20 -19.5 -41t-34 -39t-42.5 -29.5t-45 -11.5h-388l-16 -64h467l-1 -6l24 -32l-33 -132h-720l-24 32h-6l62 248q5 20 20 42t35 40t43.5 30t46.5 12h385l16 65h-461z" />
    <glyph glyph-name="FL0033h" unicode="3" horiz-adv-x="737" 
d="M179 344l-27 -108h389l-32 -126h-430l-27 -108h528q19 0 39.5 10.5t38.5 26t31 35t18 37.5l27 111q2 13 -7 31t-16 31l-2 2t-3 4q5 4 15 13t20 19.5t18 20t9 15.5l28 112q4 18 0.5 37t-13 34.5t-25 26t-34.5 10.5h-528l-27 -107h430l-31 -127h-389zM168 359h389l16 65
h-392l-24 32h-6l34 137h543q28 0 47.5 -17t29.5 -41l10 -13q14 -18 19.5 -41t-0.5 -46l-27 -112q-2 -6 -8.5 -15t-14.5 -19t-17 -19t-16 -15q7 -14 15.5 -34t6.5 -34l-28 -111q-5 -20 -19.5 -41t-34 -39t-42.5 -29.5t-45 -11.5h-540l-24 32h-6l34 138h430l16 64h-351l-24 32
h-6z" />
    <glyph glyph-name="four" unicode="4" horiz-adv-x="866" 
d="M908 555l-24 32l2 6h-212l-568 -318l-45 -178h6l24 -32h436l-19 -78h6l24 -32h221l27 110h85l33 131l-24 32l1 6h-53zM676 578h191l-89 -359h85l-27 -107h-85l-28 -110h-197l28 110h-474l38 154zM268 219h313l50 203zM404 234l192 105l-27 -105h-165z" />
    <glyph glyph-name="five" unicode="5" 
d="M34 -13h6l24 -32h609q22 0 45 11.5t42.5 29.5t34 39t19.5 41l31 124q5 23 0 46.5t-19 41.5l-10 13q-10 24 -29.5 41t-47.5 17h-353l16 65h472l32 131l-24 32l2 6h-699l-93 -372h6l24 -32h461l-16 -64h-499zM335 344h400q19 0 34.5 -10.5t25 -26t13 -35t-0.5 -37.5
l-31 -124q-5 -18 -18 -37.5t-31 -35t-38.5 -26t-39.5 -10.5h-597l27 108h499l32 126h-499l85 342h669l-27 -107h-472z" />
    <glyph glyph-name="FL0036h" unicode="6" 
d="M352 221h-1l-24 -96h240l16 64h-207zM807 235q4 18 0.5 37.5t-13 35t-25 26t-34.5 10.5h-343l-27 -108h245l-32 -126h-302l90 361h486l27 107h-584q-19 0 -39.5 -10.5t-38.5 -26t-31 -34.5t-17 -37l-89 -359q-5 -18 -1.5 -37.5t13.5 -35t25 -26t34 -10.5h498
q19 0 39.5 10.5t38.5 26t31 35t18 37.5zM402 424l-16 -65h353q28 0 47.5 -17t29.5 -41l10 -13q14 -18 19 -41.5t0 -46.5l-31 -124q-5 -20 -19.5 -41t-34 -39t-42.5 -29.5t-45 -11.5h-498q-20 0 -35.5 9t-26.5 24l-11 14q-24 17 -34.5 48.5t-2.5 60.5l89 359q5 19 20 41
t35 40t43.5 30t46.5 12h599l-2 -6l24 -32l-32 -131h-486z" />
    <glyph glyph-name="seven" unicode="7" horiz-adv-x="703" 
d="M201 2h212l352 481l24 95h-593l-25 -102h374zM158 461h-6l33 132h623l-2 -6l24 -32l-27 -108l-358 -492h-238l-24 32h-8l319 442h-312z" />
    <glyph glyph-name="FL0038h" unicode="8" 
d="M386 359h240l16 65h-240zM352 221h-1l-24 -96h240l16 64h-207zM366 471h302l-31 -127h-245l-27 -108h245l-32 -126h-302zM295 578q-19 0 -39.5 -10.5t-38.5 -26t-31 -34.5t-17 -37l-28 -112q-1 -6 2 -15.5t8 -20t10 -19.5t8 -13l-7 -6q-6 -6 -15 -14t-17.5 -17t-15 -17
t-7.5 -14l-27 -111q-5 -18 -1.5 -37.5t13.5 -35t25 -26t34 -10.5h498q19 0 39.5 10.5t38.5 26t31 35t18 37.5l27 111q2 13 -7 31t-16 31l-2 2t-3 4q5 4 15 13t20 19.5t18 20t9 15.5l28 112q4 18 0.5 37t-13 34.5t-25 26t-34.5 10.5h-498zM797 593q28 0 47.5 -17t29.5 -41
l10 -13q14 -18 19.5 -41t-0.5 -46l-27 -112q-2 -6 -8.5 -15t-14.5 -19t-17 -19t-16 -15q7 -14 15.5 -34t6.5 -34l-28 -111q-5 -20 -19.5 -41t-34 -39t-42.5 -29.5t-45 -11.5h-498q-20 0 -35.5 9t-26.5 24l-11 14q-24 17 -34.5 48.5t-2.5 60.5l27 111q2 7 8 16t14.5 18.5
t17 18.5t16.5 16q-8 15 -16.5 35t-5.5 32l28 112q5 19 20 41t35 40t43.5 30t46.5 12h498z" />
    <glyph glyph-name="FL0039h" unicode="9" 
d="M597 353l20 -27l25 98h-240l-16 -65h213zM138 345q-5 -18 -1.5 -37.5t13.5 -35t25.5 -26t34.5 -10.5h343l27 108h-245l31 127h302l-90 -361h-486l-27 -108h584q19 0 39.5 10.5t38.5 26t31 35t18 37.5l89 359q4 18 0.5 37t-13 34.5t-25 26t-34.5 10.5h-498
q-19 0 -39.5 -10.5t-38.5 -26t-31 -34.5t-17 -37zM154 470q5 19 20 41t35 40t43.5 30t46.5 12h498q28 0 47.5 -17t29.5 -41l10 -13q14 -18 19.5 -41t-0.5 -46l-89 -359q-5 -20 -19.5 -41t-34 -39t-42.5 -29.5t-45 -11.5h-596l-24 32h-6l34 138h486l16 64h-350q-20 0 -35.5 9
t-26.5 24l-10 14q-24 17 -35 48.5t-3 60.5z" />
    <glyph glyph-name="FL003Ah" unicode=":" horiz-adv-x="240" 
d="M118 269h131l27 107h-131zM51 2h131l27 107h-131zM106 254h-6l34 137h160l-1 -6l24 -32l-33 -131h-155zM40 -13h-6l34 137h160l-2 -6l25 -31l-33 -132h-155z" />
    <glyph glyph-name="FL003Bh" unicode=";" horiz-adv-x="240" 
d="M118 269h131l27 108h-131zM96 -70q34 0 57 23t30 50l26 107h-131l-44 -180h62zM106 254h-6l34 137h160l-1 -6l24 -31l-33 -132h-155zM22 -85h-6l52 210h160l-1 -6l24 -32l-30 -119q-4 -15 -13 -30.5t-22 -27.5t-30 -19.5t-38 -7.5h-73z" />
    <glyph glyph-name="FL003Ch" unicode="&#x3c;" horiz-adv-x="583" 
d="M289 -13h4l24 -32h280l-24 32h4l-216 289l388 278l-25 33l9 6h-206l-450 -323zM531 578h155l-373 -268l230 -308h-244l-199 267z" />
    <glyph glyph-name="FL003Dh" unicode="=" horiz-adv-x="535" 
d="M148 447l-34 -137h6l24 -32h449l33 132l-24 31l1 6h-455zM104 268l-34 -137h6l24 -32h449l33 132l-25 31l2 6h-455zM115 254h425l-27 -108h-425zM160 433h425l-27 -108h-425z" />
    <glyph glyph-name="FL003Eh" unicode="&#x3e;" horiz-adv-x="582" 
d="M26 -45h195l444 319l-24 33l2 2l-210 284h-288l239 -323l-395 -283h13zM407 269l-229 309h244l198 -268l-430 -308h-156z" />
    <glyph glyph-name="FL003Fh" unicode="?" horiz-adv-x="774" 
d="M129 2h191l28 112h-191zM676 236q19 0 39.5 10.5t38 26t30.5 35t18 37.5l31 125q4 18 0.5 37t-13 34.5t-25 26t-34.5 10.5h-565l-27 -107h467l-31 -127h-291q-18 0 -38.5 -10.5t-38.5 -26t-31 -35t-17 -37.5l-18 -69h190l18 70h297zM176 129l-17 23h-6l21 83
q5 20 19.5 42t35 40t43.5 30t46 12h276l16 65h-429l-24 32h-6l34 137h580q28 0 47.5 -17t29.5 -41l10 -13q14 -18 19.5 -41t-0.5 -46l-31 -125q-5 -20 -19.5 -41t-34 -39t-42.5 -29.5t-45 -11.5h-285l-17 -69h-29l22 -29l-34 -136h-215l-24 32h-6l35 142h30z" />
    <glyph glyph-name="FL0040h" unicode="@" horiz-adv-x="1235" 
d="M402 56q11 -15 26.5 -24t35.5 -9h655q22 0 45 11.5t42.5 29.5t34 39t19.5 41l100 400q5 23 0 46.5t-19 41.5l-10 12q-10 24 -30 41t-48 17h-927q-23 0 -46.5 -12t-43.5 -30t-35 -39.5t-20 -41.5l-144 -578q-7 -29 3.5 -60t34.5 -49l11 -14q11 -15 26 -24t35 -9h1018
l33 132l-24 32l2 6h-875l129 518h667l-85 -340h-13l44 176q5 23 0 46.5t-19 41.5l-10 13q-9 24 -28.5 41t-47.5 17h-383q-23 0 -46.5 -12t-43.5 -30t-35 -40t-20 -42l-56 -225q-8 -29 2.5 -60.5t34.5 -48.5zM948 178h75l101 402h-729l-145 -580h907l-27 -108h-1006
q-19 0 -34.5 10.5t-25.5 26t-13.5 35t1.5 37.5l144 578q4 18 17 37t31 35t38.5 26t39.5 10h927q19 0 34.5 -10t25 -26t13 -35t-0.5 -37l-99 -400q-5 -18 -18 -37.5t-31 -35t-38.5 -26t-39.5 -10.5h-257l1 3q-5 -3 -10 -3h-389q-19 0 -34 10.5t-25 26t-13.5 35t1.5 37.5
l56 225q4 18 17 37.5t31 35t38.5 26t39.5 10.5h383q19 0 34 -10.5t24.5 -26t13 -35t-0.5 -37.5zM566 178h185l57 227h-185zM658 358h123l-41 -165h-123z" />
    <glyph glyph-name="FL005Eh" unicode="A" horiz-adv-x="836" 
d="M39 -45h169l152 235l-8 -33h6l24 -32h160l25 -138h5l24 -32h243l-82 531q-3 26 -12 38l-16 19q-11 31 -40 40.5t-78 9.5h-102q-25 0 -46.5 -3t-41 -11.5t-38 -24.5t-36.5 -42l-340 -525h8zM371 171l27 108h134l-30 189l-11 1q-14 -1 -25 -21l-290 -446h-144l327 505
q33 45 67.5 58t78.5 13h102q51 0 78.5 -11.5t34.5 -49.5l77 -515h-218l-27 169h-181zM496 400l17 -106h-87z" />
    <glyph glyph-name="FL0062h" unicode="B" 
d="M64 -45h609q22 0 45 11.5t42.5 29.5t34 39t19.5 41l28 111q2 14 -6.5 34t-15.5 34q7 6 16 15t17 19t14.5 19t8.5 15l27 112q6 23 0.5 46t-19.5 41l-10 13q-10 24 -29.5 41t-47.5 17h-612l-151 -606h6zM776 111q-5 -18 -18 -37.5t-31 -35t-38.5 -26t-39.5 -10.5h-597
l144 576h597q19 0 34.5 -10.5t25 -26t13 -34.5t-0.5 -37l-28 -112q-1 -6 -9 -15.5t-18 -20t-20 -19.5t-15 -13q1 -2 3 -4l2 -2q7 -13 16 -31t7 -31zM637 344l31 127h-302l-90 -361h302l32 126h-245l27 108h245zM376 189h207l-16 -64h-240l24 96h1zM402 424h240l-16 -65h-240
z" />
    <glyph glyph-name="FL0063h" unicode="C" horiz-adv-x="737" 
d="M832 424l32 131l-24 32l2 6h-543q-23 0 -46.5 -12t-43.5 -30t-35 -40t-20 -41l-89 -359q-8 -29 2.5 -60.5t34.5 -48.5l11 -14q11 -15 26.5 -24t34.5 -9h541l33 132l-24 32l1 6h-398l75 299h430zM151 2q-19 0 -34 10.5t-25 26t-13.5 35t1.5 37.5l89 359q4 18 17 37
t31 34.5t38.5 26t39.5 10.5h528l-27 -107h-430l-90 -361h430l-27 -108h-528z" />
    <glyph glyph-name="FL0064h" unicode="D" 
d="M64 -45h221l8 32h1l24 -32h355q22 0 45 11.5t42.5 29.5t34 39t19.5 41l89 359q6 23 0.5 46t-19.5 41l-10 13q-10 24 -29.5 41t-47.5 17h-612l-151 -606h6zM776 111q-5 -18 -18 -37.5t-31 -35t-38.5 -26t-39.5 -10.5h-343l27 108h245l90 361h-302l-117 -469h-197l144 576
h597q19 0 34.5 -10.5t25 -26t13 -34.5t-0.5 -37zM402 424h240l-75 -299h-240z" />
    <glyph glyph-name="FL0065h" unicode="E" horiz-adv-x="737" 
d="M732 189l33 132l-24 32l2 6h-357l16 65h430l32 131l-24 32l2 6h-543q-23 0 -46.5 -12t-43.5 -30t-35 -40t-20 -41l-89 -359q-8 -29 2.5 -60.5t34.5 -48.5l11 -14q11 -15 26.5 -24t34.5 -9h541l33 132l-24 32l1 6h-398l16 64h389zM151 2q-19 0 -34 10.5t-25 26t-13.5 35
t1.5 37.5l89 359q4 18 17 37t31 34.5t38.5 26t39.5 10.5h528l-27 -107h-430l-31 -127h389l-27 -108h-389l-32 -126h430l-27 -108h-528z" />
    <glyph glyph-name="FL0066h" unicode="F" horiz-adv-x="737" 
d="M832 424l32 131l-24 32l2 6h-543q-23 0 -46.5 -12t-43.5 -30t-35 -40t-20 -41l-120 -483h6l24 -32h221l58 234h389l33 132l-24 32l2 6h-357l16 65h430zM169 470q4 18 17 37t31 34.5t38.5 26t39.5 10.5h528l-27 -107h-430l-31 -127h389l-27 -108h-389l-59 -234h-197z" />
    <glyph glyph-name="g" unicode="G" 
d="M851 353h-227l-57 -228h-240l75 299h499l32 131l-24 32l2 6h-612q-23 0 -46.5 -12t-43.5 -30t-35 -40t-20 -41l-89 -359q-8 -29 2.5 -60.5t34.5 -48.5l11 -14q11 -15 26.5 -24t35.5 -9h498q22 0 45 11.5t42.5 29.5t34 39t19.5 41l60 239l-24 32zM776 111
q-5 -18 -18 -37.5t-31 -35t-38.5 -26t-39.5 -10.5h-498q-19 0 -34 10.5t-25 26t-13.5 35t1.5 37.5l89 359q4 18 17 37t31 34.5t38.5 26t39.5 10.5h597l-27 -107h-499l-90 -361h302l57 228h197z" />
    <glyph glyph-name="FL0068h" unicode="H" 
d="M412 593h-227l-151 -606h6l24 -32h221l58 234h239l-50 -202h6l23 -32h223l149 600l-24 32l2 6h-228l-58 -234h-239l48 196l-24 32zM335 344h301l58 234h198l-144 -576h-198l59 234h-301l-59 -234h-197l144 576h197z" />
    <glyph glyph-name="i" unicode="I" horiz-adv-x="306" 
d="M52 2h196l144 576h-196zM40 -13h-6l151 606h226l-2 -6l24 -32l-149 -600h-221z" />
    <glyph glyph-name="j" unicode="J" horiz-adv-x="675" 
d="M64 -45h478q22 0 45 11.5t42.5 29.5t34 39t19.5 41l119 479l-24 32l2 6h-227l-117 -468h-368l-34 -138h6zM645 111q-5 -18 -18 -37.5t-31 -35t-38.5 -26t-39.5 -10.5h-466l27 108h368l117 468h197z" />
    <glyph glyph-name="FL006Bh" unicode="K" 
d="M952 555l-24 33l8 6h-276l-263 -188l37 149l-24 32l2 6h-227l-151 -606h6l24 -32h221l58 234h240l-50 -202h6l24 -32h221l61 245q5 23 0 46.5t-19 41.5l-10 13q-10 24 -29.5 41t-47.5 17h-61zM610 236h-302l-59 -234h-197l144 576h197l-58 -235l329 236h225l-325 -235
h171q19 0 34.5 -10.5t25 -26t13 -35t-0.5 -37.5l-59 -233h-197z" />
    <glyph glyph-name="FL006Ch" unicode="L" horiz-adv-x="675" 
d="M79 111q-5 -18 -1.5 -37.5t13.5 -35t25 -26t34 -10.5h466l27 108h-368l117 468h-197zM184 593h227l-2 -6l24 -32l-107 -430h336l-1 -6l24 -32l-33 -132h-479q-20 0 -35 9t-26 24l-11 14q-24 17 -34.5 48.5t-2.5 60.5z" />
    <glyph glyph-name="FL006Dh" unicode="M" horiz-adv-x="1123" 
d="M866 2h198l144 576h-280l-330 -397l-127 397h-276l-144 -576h133l113 451l148 -451h161l373 450zM1227 593l-2 -6l24 -32l-149 -600h-222l-24 32h-6l79 317l-289 -349h-177l-24 32h-5l-116 352l-96 -384h-157l-24 32h-6l151 606h300l4 -13v1l20 -25l105 -333l309 370h305
z" />
    <glyph glyph-name="FL006Eh" unicode="N" horiz-adv-x="816" 
d="M185 593l-151 -606h6l24 -32h158l100 400l155 -368h4l24 -32h289l149 600l-24 32l2 6h-175l-96 -385l-144 347l-19 26l-5 12h-297zM650 147l107 431h145l-144 -576h-270l-188 452l-113 -452h-135l144 576h274z" />
    <glyph glyph-name="FL006Fh" unicode="O" 
d="M113 -12q11 -15 26.5 -24t35.5 -9h498q22 0 45 11.5t42.5 29.5t34 39t19.5 41l89 359q6 23 0.5 46t-19.5 41l-10 13q-10 24 -29.5 41t-47.5 17h-498q-23 0 -46.5 -12t-43.5 -30t-35 -40t-20 -41l-89 -359q-8 -29 2.5 -60.5t34.5 -48.5zM776 111q-5 -18 -18 -37.5t-31 -35
t-38.5 -26t-39.5 -10.5h-498q-19 0 -34 10.5t-25 26t-13.5 35t1.5 37.5l89 359q4 18 17 37t31 34.5t38.5 26t39.5 10.5h498q19 0 34.5 -10.5t25 -26t13 -34.5t-0.5 -37zM276 110h302l90 361h-302zM402 424h240l-75 -299h-240z" />
    <glyph glyph-name="FL00B2h" unicode="P" 
d="M64 -45h221l66 266h1l24 -32h355q22 0 45 11.5t42.5 29.5t34 39t19.5 41l31 125q6 23 0.5 46t-19.5 41l-10 13q-10 24 -29.5 41t-47.5 17h-612l-151 -606h6zM834 345q-5 -18 -18 -37.5t-30.5 -35t-38 -26t-39.5 -10.5h-343l27 108h245l31 127h-302l-117 -469h-197
l144 576h597q19 0 34.5 -10.5t25 -26t13 -34.5t-0.5 -37zM402 424h240l-16 -65h-240z" />
    <glyph glyph-name="FL0071h" unicode="Q" 
d="M348 208l-21 -83h54zM553 125h14l75 299h-240l-48 -192h148l5 -14l18 -24zM668 471l-90 -361h-46l-43 107h-126l43 -107h-130l90 361h302zM574 2h75q19 0 39.5 10.5t38.5 26t31 35t18 37.5l89 359q4 18 0.5 37t-13 35t-25 26t-34.5 10h-498q-19 0 -39.5 -10t-38.5 -26
t-31 -35t-17 -37l-89 -359q-5 -18 -1.5 -37.5t13.5 -35t25 -26t34 -10.5h298l28 -68h124zM102 2q-24 17 -34.5 48.5t-2.5 60.5l89 359q5 20 20 41.5t35 39.5t43.5 30t46.5 12h498q28 0 47.5 -17t29.5 -41l10 -12q14 -18 19.5 -41.5t-0.5 -46.5l-89 -359q-5 -20 -19.5 -41
t-34 -39t-42.5 -29.5t-45 -11.5h-53l27 -68h-154l-24 32h-5l-15 36h-274q-20 0 -35.5 9t-26.5 24z" />
    <glyph glyph-name="FL0072h" unicode="R" 
d="M386 359h240l16 65h-240zM865 470q4 18 0.5 37t-13 34.5t-25 26t-34.5 10.5h-597l-144 -576h197l117 469h302l-31 -127h-245l-23 -93l194 -249h211l-175 234h109q19 0 39.5 10.5t38 26t30.5 35t18 37.5zM655 189l153 -202h-4l24 -32h-247l-25 32h-3l-197 252l-71 -284
h-221l-24 32h-6l151 606h612q28 0 47.5 -17t29.5 -41l10 -13q14 -18 19.5 -41t-0.5 -46l-31 -125q-5 -20 -19.5 -41t-34 -39t-42.5 -29.5t-45 -11.5h-76z" />
    <glyph glyph-name="FL00B8h" unicode="S" 
d="M34 -13h6l24 -32h609q22 0 45 11.5t42.5 29.5t34 39t19.5 41l31 124q5 23 0 46.5t-19 41.5l-10 13q-10 24 -29.5 41t-47.5 17h-353l16 65h499l32 131l-24 32l2 6h-612q-23 0 -46.5 -12t-43.5 -30t-35 -40t-20 -41l-31 -125q-8 -29 3 -60.5t35 -48.5l10 -14
q11 -15 26.5 -24t35.5 -9h350l-16 -64h-499zM210 236q-19 0 -34.5 10.5t-25.5 26t-13.5 35t1.5 37.5l31 125q4 18 17 37t31 34.5t38.5 26t39.5 10.5h597l-27 -107h-499l-31 -127h400q19 0 34.5 -10.5t25 -26t13 -35t-0.5 -37.5l-31 -124q-5 -18 -18 -37.5t-31 -35t-38.5 -26
t-39.5 -10.5h-597l27 108h499l32 126h-400z" />
    <glyph glyph-name="t" unicode="T" horiz-adv-x="746" 
d="M151 456h6l24 -32h181l-109 -437h6l24 -32h222l117 469h219l32 131l-24 32l2 6h-666zM469 2h-198l117 469h-219l27 107h636l-27 -107h-219z" />
    <glyph glyph-name="FL0075h" unicode="U" 
d="M911 593h-227l-117 -468h-240l107 430l-24 32l2 6h-227l-120 -482q-8 -29 2.5 -60.5t34.5 -48.5l11 -14q11 -15 26.5 -24t35.5 -9h498q22 0 45 11.5t42.5 29.5t34 39t19.5 41l119 479l-24 32zM776 111q-5 -18 -18 -37.5t-31 -35t-38.5 -26t-39.5 -10.5h-498
q-19 0 -34 10.5t-25 26t-13.5 35t1.5 37.5l116 467h197l-117 -468h302l117 468h197z" />
    <glyph glyph-name="v" unicode="V" horiz-adv-x="836" 
d="M158 593l81 -535q6 -37 29 -52h-1l16 -20q14 -19 40 -25t68 -6h102q24 0 45.5 3t40.5 11.5t36.5 24t34.5 40.5l338 521l-25 31l5 7h-182l-290 -449l-70 412l-22 28l-1 -1v10h-245zM468 113l11 -1q14 1 25 21l288 445h149l-326 -505q-33 -45 -67.5 -58t-78.5 -13h-102
q-51 0 -78.5 11.5t-33.5 49.5l-79 515h213z" />
    <glyph glyph-name="FL0077h" unicode="W" horiz-adv-x="1298" 
d="M615 593l31 -209l-156 -241q-2 15 -6 37.5t-9 53.5q-8 52 -20 131t-27 191l-22 28l-1 -1v5q-2 2 0 5h-247l82 -535q6 -37 29 -52h-1l16 -20q14 -19 39.5 -25t67.5 -6h98q24 0 44.5 2.5t39 11t36.5 23.5t36 39l49 81l11 -54q6 -37 30 -52h-1l15 -19q14 -19 40 -25.5
t68 -6.5h98q24 0 45 3t40 11.5t36.5 24t35.5 40.5l338 521l-25 31l5 7h-182l-288 -445l-68 408l-22 28l-1 -1v10h-254zM934 113l7 -1q14 1 25 21l288 445h149l-327 -505q-33 -45 -67.5 -58t-77.5 -13h-98q-51 0 -78 12t-34 49l-28 142l-82 -132q-33 -45 -67.5 -58t-78.5 -13
h-98q-51 0 -78 11.5t-33 49.5l-80 515h214q17 -115 29.5 -194t21 -130.5t14 -80t8.5 -42t4.5 -16l1.5 -2.5l6 -1q14 1 25 21l163 251l-30 194h222z" />
    <glyph glyph-name="FL00A5h" unicode="X" horiz-adv-x="877" 
d="M627 -45h264l-24 32h4l-212 282l382 285l-25 33l8 6h-220l-248 -185l-139 185h-272l235 -316l-388 -290h12l24 -32h210l246 184l115 -152h4zM403 277l-225 301h228l144 -191l257 191h174l-368 -275l224 -301h-228l-144 191l-256 -191h-175z" />
    <glyph glyph-name="FL0025h" unicode="Y" horiz-adv-x="878" 
d="M353 -45h222l76 305l388 294l-25 33l8 6h-219l-248 -185l-139 185h-272l247 -331l-68 -275h6zM408 269l-231 309h228l144 -191l257 191h174l-366 -277l-75 -299h-198z" />
    <glyph glyph-name="z" unicode="Z" horiz-adv-x="756" 
d="M79 110l-27 -108h646l27 108h-381l459 351l29 117h-636l-27 -107h381zM454 125h290l-1 -6l24 -32l-33 -132h-670l-24 32h-6l32 130l400 307h-285l-24 32h-6l34 137h666l-2 -6l24 -32l-33 -135z" />
    <glyph glyph-name="FL005Bh" unicode="[" horiz-adv-x="465" 
d="M587 533l33 131l-24 32l1 6h-385l-206 -825h6l24 -32h379l33 132l-24 32l2 6h-126l129 518h158zM249 0h158l-27 -108h-355l198 795h355l-26 -107h-158z" />
    <glyph glyph-name="FL005Ch" unicode="\" horiz-adv-x="523" 
d="M176 578l87 -576h221l-87 576h-221zM158 593h254v-10l1 1l22 -28l91 -601h-247l-24 32h-5z" />
    <glyph glyph-name="FL005Dh" unicode="]" horiz-adv-x="465" 
d="M51 0l-27 -108h355l198 795h-355l-26 -107h158l-145 -580h-158zM183 565h-6l34 137h385l-1 -6l24 -32l-205 -819h-379l-24 32h-6l35 138h158l129 518h-120z" />
    <glyph glyph-name="a" unicode="^" 
d="M386 359h240l16 65h-240zM52 2h197l117 469h302l-31 -127h-245l-27 -108h245l-59 -234h197l117 468q4 18 0.5 37t-13 34.5t-25 26t-34.5 10.5h-498q-19 0 -39.5 -10.5t-38.5 -26t-31 -34.5t-17 -37zM154 470q5 19 20 41t35 40t43.5 30t46.5 12h498q28 0 47.5 -17
t29.5 -41l10 -13q14 -18 19.5 -41t-0.5 -46l-119 -480h-222l-23 32h-6l50 202h-207l-24 32h-1l-66 -266h-221l-24 32h-6z" />
    <glyph glyph-name="FL005Fh" unicode="_" horiz-adv-x="669" 
d="M56 75l-25 -100h6l24 -31h583l23 93l-24 32l2 6h-589zM67 60h559l-17 -70h-559z" />
    <glyph glyph-name="FL0060h" unicode="`" horiz-adv-x="269" 
d="M247 574h126l-24 91h-150zM365 668v1l20 -25l32 -117h-154l-24 32h-4l-63 121h191z" />
    <glyph glyph-name="FL0061h" unicode="a" horiz-adv-x="689" 
d="M463 286l21 -27l7 31h-27zM80 111q-5 -18 -1.5 -37.5t13.5 -35t25 -26t34 -10.5h480l84 334q4 18 0.5 37t-13.5 34.5t-25 26t-34 10.5h-467l-27 -107h369l-57 -227h-185l15 59h128l27 108h-226q-19 0 -39.5 -10.5t-38.5 -26t-31 -35t-17 -37.5zM79 168q4 18 16.5 37
t30 36.5t38 30.5t41.5 18h-45l-24 32h-6l34 137h482q28 0 48 -17t30 -41l10 -13q14 -17 19.5 -40.5t-0.5 -46.5l-86 -346h-493q-19 0 -34.5 9t-26.5 24l-11 14q-24 17 -34.5 48.5t-2.5 60.5z" />
    <glyph glyph-name="FL0B3Bh" unicode="b" horiz-adv-x="689" 
d="M377 322h-1l-49 -197h123l41 165h-90zM715 336q4 18 0.5 37.5t-13 35t-25 26t-34.5 10.5h-226l-27 -108h128l-57 -227h-185l117 468h-197l-144 -576h480q19 0 39.5 10.5t38.5 26t31 35t18 37.5zM411 460h236q28 0 47.5 -17t29.5 -41l10 -13q14 -18 19.5 -41.5t-0.5 -46.5
l-56 -225q-5 -20 -19.5 -41t-34 -39t-42.5 -29.5t-45 -11.5h-492l-24 32h-6l151 606h227l-2 -6l24 -32z" />
    <glyph glyph-name="FL0069h" unicode="c" horiz-adv-x="619" 
d="M113 -12q11 -15 26 -24t35 -9h423l33 132l-24 32l1 6h-280l41 165h312l33 131l-24 32l1 6h-426q-23 0 -46 -12t-43 -30t-34.5 -40t-19.5 -41l-56 -225q-8 -29 2.5 -60.5t34.5 -48.5zM333 337l-57 -227h312l-27 -108h-411q-19 0 -34 10.5t-24.5 26t-13 35t1.5 37.5l56 225
q4 18 17 37t31 34.5t38.5 26t38.5 10.5h411l-27 -107h-312z" />
    <glyph glyph-name="FL0B45h" unicode="d" horiz-adv-x="689" 
d="M121 336l-56 -225q-8 -29 2.5 -60.5t34.5 -48.5l11 -14q11 -15 26.5 -24t34.5 -9h493l149 600l-24 32l2 6h-227l-42 -166l-20 27l2 6h-241q-23 0 -46.5 -12t-43.5 -30t-35 -40t-20 -42zM136 336q4 18 17 37.5t31 35t38.5 26t39.5 10.5h226l-27 -108h-128l-57 -227h185
l117 468h197l-144 -576h-480q-19 0 -34 10.5t-25 26t-13.5 35t1.5 37.5zM368 290h123l-41 -165h-123z" />
    <glyph glyph-name="FL0067h" unicode="e" horiz-adv-x="689" 
d="M113 -12q11 -15 26.5 -24t34.5 -9h480l33 132l-24 32l1 6h-48q20 4 40 16.5t37 29t29 35.5t17 37l14 58q6 23 0.5 46.5t-19.5 40.5l-10 13q-10 24 -30 41t-48 17h-381q-23 0 -46 -12t-43 -30t-35 -40t-20 -41l-56 -225q-8 -29 2.5 -60.5t34.5 -48.5zM700 278
q-5 -18 -18 -37.5t-30.5 -35t-38 -26t-39.5 -10.5h-226l27 108h128l15 60h-185l-57 -227h369l-27 -108h-467q-19 0 -34 10.5t-25 26t-13.5 35t1.5 37.5l56 225q4 18 17 37t31 34.5t38.5 26t39.5 10.5h381q19 0 34 -10.5t25 -26t13.5 -34.5t-0.5 -37zM334 154h1l23 -29h-31z
" />
    <glyph glyph-name="FL0CF3h" unicode="f" horiz-adv-x="619" 
d="M34 -13h6l24 -32h221l44 177h271l33 131l-24 32l1 6h-239l14 57h312l33 131l-24 32l1 6h-426q-23 0 -46 -12t-43 -30t-34.5 -40t-19.5 -41zM153 404q4 18 17 37t31 34.5t38.5 26t38.5 10.5h411l-27 -107h-312l-30 -119h271l-27 -108h-271l-44 -176h-197z" />
    <glyph glyph-name="FL0BD3h" unicode="g" horiz-adv-x="689" 
d="M422 119l20 -27l49 198h-123l-41 -165h96zM742 445h-480q-19 0 -39.5 -10.5t-38.5 -26t-31 -35t-17 -37.5l-56 -225q-5 -18 -1.5 -37.5t13.5 -35t25 -26t34 -10.5h226l27 108h-128l57 227h185l-96 -385h-303l-27 -108h401q19 0 39.5 10.5t38 26t30.5 35t18 37.5zM759 454
l24 -32l-125 -504q-5 -20 -19.5 -41t-34 -38.5t-42.5 -29t-45 -11.5h-413l-24 32h-6l34 137h27q-8 5 -13 10.5t-9 10.5l-11 14q-24 17 -34.5 48.5t-2.5 60.5l56 225q5 20 20 42t35 40t43.5 30t46.5 12h495z" />
    <glyph glyph-name="FL0073h" unicode="h" horiz-adv-x="689" 
d="M360 445l33 133h-197l-144 -576h197l84 335h185l-84 -335h197l84 334q4 18 0.5 37.5t-13 35t-25 26t-34.5 10.5h-283zM411 460h236q28 0 47.5 -17t29.5 -41l10 -13q14 -18 19.5 -41.5t-0.5 -46.5l-86 -346h-221l-24 32h-6l75 303h-123l-83 -335h-221l-24 32h-6l151 606
h227l-2 -6l24 -32z" />
    <glyph glyph-name="FL006Ah" unicode="i" horiz-adv-x="306" 
d="M173 484h196l23 94h-196zM52 2h196l111 442h-196zM151 459h17l-8 11h-6l31 123h226l-2 -6l24 -32l-29 -117h-17l13 -17l-116 -466h-221l-23 32h-6z" />
    <glyph glyph-name="FL0B4Fh" unicode="j" horiz-adv-x="306" 
d="M173 485h196l23 94h-196zM359 444h-196l-123 -493h-59l-27 -108h157q20 0 40 10.5t37.5 26t30 35t17.5 37.5zM185 594h226l-1 -6l24 -32l-30 -118h-17l13 -17l-126 -504q-5 -20 -19.5 -41t-34 -38.5t-42.5 -29t-44 -11.5h-169l-24 31h-6l35 138h59l122 493h17l-8 11h-6z
" />
    <glyph glyph-name="FL0C2Dh" unicode="k" horiz-adv-x="689" 
d="M327 311l66 267h-197l-144 -576h197l51 201h185l-51 -201h197l50 200q4 18 0.5 37.5t-13 35t-24.5 26t-34 10.5h-70l184 134h-212zM185 593h227l-2 -6l24 -32l-45 -181l119 86h263l-9 -6l25 -33l-143 -102q16 -8 28 -21.5t19 -29.5l10 -13q14 -18 19 -41.5t0 -46.5
l-53 -212h-221l-24 32h-6l42 170h-123l-50 -202h-221l-24 32h-6z" />
    <glyph glyph-name="FL0070h" unicode="l" horiz-adv-x="306" 
d="M52 2h196l144 576h-196zM40 -13h-6l151 606h226l-2 -6l24 -32l-149 -600h-221z" />
    <glyph glyph-name="FL0078h" unicode="m" horiz-adv-x="954" 
d="M680 -13h6l24 -32h222l86 346q6 23 0.5 46.5t-19.5 40.5l-10 13q-10 24 -30 41t-48 17h-244q-7 0 -18 -3t-23.5 -7.5t-24.5 -9.5t-21 -10q-15 10 -36 20t-35 10h-358l-117 -472h6l24 -32h221l83 335h84l-75 -303h6l24 -32h182l83 335h83zM782 337h-145l-84 -335h-158
l84 335h-146l-84 -335h-197l111 442h343q8 0 19 -3.5t21.5 -8.5t19 -10.5t11.5 -9.5q4 4 15.5 9.5t25 10.5t26.5 8.5t20 3.5h244q19 0 34 -10.5t25 -26t13.5 -34.5t-0.5 -37l-84 -334h-198z" />
    <glyph glyph-name="FL007Ch" unicode="n" horiz-adv-x="697" 
d="M64 -45h221l83 335h131l-75 -303h6l24 -32h221l86 346q6 23 0.5 46.5t-19.5 40.5l-10 13q-10 24 -30 41t-48 17h-503l-117 -472h6zM526 337h-193l-84 -335h-197l111 442h488q19 0 34 -10.5t25 -26t13.5 -34.5t-0.5 -37l-84 -334h-197z" />
    <glyph glyph-name="FL0074h" unicode="o" horiz-adv-x="689" 
d="M113 -12q11 -15 26.5 -24t34.5 -9h382q22 0 45 11.5t42.5 29.5t34 39t19.5 41l56 225q6 23 0.5 46.5t-19.5 40.5l-10 13q-10 24 -30 41t-48 17h-381q-23 0 -46 -12t-43 -30t-35 -40t-20 -41l-56 -225q-8 -29 2.5 -60.5t34.5 -48.5zM659 111q-5 -18 -18 -37.5t-31 -35
t-38.5 -26t-39.5 -10.5h-381q-19 0 -34 10.5t-25 26t-13.5 35t1.5 37.5l56 225q4 18 17 37t31 34.5t38.5 26t39.5 10.5h381q19 0 34 -10.5t25 -26t13.5 -34.5t-0.5 -37zM276 110h185l57 227h-185zM368 290h123l-41 -165h-123z" />
    <glyph glyph-name="FL0076h" unicode="p" horiz-adv-x="689" 
d="M30 -181h221l42 168h1l24 -32h238q22 0 45 11.5t42.5 29.5t34 39t19.5 41l56 225q6 23 0.5 46.5t-19.5 41.5l-10 13q-10 24 -29.5 41t-47.5 17h-495l-152 -610h6zM659 111q-5 -18 -18 -37.5t-31 -35t-38.5 -26t-39.5 -10.5h-226l27 108h128l57 227h-185l-118 -472h-197
l145 580h480q19 0 34.5 -10.5t25 -26t13 -35t-0.5 -37.5zM368 290h123l-41 -165h-123z" />
    <glyph glyph-name="FL007Ah" unicode="q" horiz-adv-x="689" 
d="M422 119l20 -27l49 198h-123l-41 -165h96zM80 111q-5 -18 -1.5 -37.5t13.5 -35t25 -26t34 -10.5h226l27 108h-128l57 227h185l-118 -472h197l145 580h-480q-19 0 -39.5 -10.5t-38.5 -26t-31 -35t-17 -37.5zM121 336q5 20 20 42t35 40t43.5 30t46.5 12h495l-2 -6l24 -32
l-150 -603h-221l-24 31h-6l26 105h-234q-19 0 -34.5 9t-26.5 24l-11 14q-24 17 -34.5 48.5t-2.5 60.5z" />
    <glyph glyph-name="FL007Dh" unicode="r" horiz-adv-x="505" 
d="M52 2h197l84 335h198l27 107h-297q-18 0 -38.5 -10.5t-38.5 -26t-31 -34.5t-17 -37zM40 -13h-6l87 349q5 19 19.5 41t34.5 40t43 30t46 12h312l-1 -6l24 -32l-33 -131h-198l-83 -335h-221z" />
    <glyph glyph-name="FL0081h" unicode="s" horiz-adv-x="689" 
d="M750 290l33 131l-24 32l1 6h-495q-23 0 -46 -12t-43 -30t-35 -40t-20 -41l-15 -58q-7 -29 3.5 -60.5t34.5 -48.5l11 -14q16 -26 42 -30h-129l-34 -138h6l24 -32h492q22 0 45 11.5t42.5 29.5t34 39t19.5 41l14 57q6 23 0.5 46.5t-19.5 41.5l-10 13q-9 20 -24 35.5
t-37 20.5h129zM659 111q-5 -18 -18 -37.5t-31 -35t-38.5 -26t-39.5 -10.5h-480l27 108h382l15 59h-283q-19 0 -34.5 10.5t-25.5 26t-13.5 35t1.5 37.5l15 58q4 18 17 37t31 34.5t38.5 26t39.5 10.5h480l-27 -107h-382l-15 -60h283q19 0 34.5 -10.5t25 -26t13 -35t-0.5 -37.5
z" />
    <glyph glyph-name="FL007Fh" unicode="t" horiz-adv-x="579" 
d="M640 290l33 132l-24 32l2 6h-240l23 95l-24 32l2 6h-227l-120 -482q-8 -29 2.5 -60.5t34.5 -48.5l11 -14q10 -15 25.5 -24t35.5 -9h383l33 132l-24 32l1 6h-240l41 165h272zM150 2q-19 0 -34 10.5t-24.5 26t-13 35t1.5 37.5l116 467h197l-33 -133h272l-27 -108h-272
l-57 -227h272l-27 -108h-371z" />
    <glyph glyph-name="FL007Bh" unicode="u" horiz-adv-x="689" 
d="M532 2q19 0 39.5 10.5t38.5 26t31 35t18 37.5l83 333h-197l-84 -334h-185l84 334h-197l-83 -333q-5 -18 -1.5 -37.5t13.5 -35t25 -26t34 -10.5h381zM760 459l-1 -6l24 -32l-86 -345q-5 -20 -19.5 -41t-34 -39t-42.5 -29.5t-45 -11.5h-382q-19 0 -34.5 9t-26.5 24l-11 14
q-24 17 -34.5 48.5t-2.5 60.5l86 348h227l-1 -6l24 -32l-74 -296h123l83 334h227z" />
    <glyph glyph-name="FL0082h" unicode="v" horiz-adv-x="702" 
d="M210 50q9 -27 31.5 -37.5t67.5 -10.5h83q38 0 67.5 9.5t57.5 44.5l257 388h-143l-208 -318q-5 -6 -6 -7t-4 -3l-5 -4l-47 332h-218l67 -395v1zM124 459h251l1 -9v1l22 -29l35 -257l191 294h176l-4 -7l25 -31l-272 -409q-29 -37 -60 -47t-73 -10h-83q-39 0 -62.5 6.5
t-36.5 23.5l-13 16h1q-19 13 -26 35z" />
    <glyph glyph-name="FL0083h" unicode="w" horiz-adv-x="1068" 
d="M423 122q-2 -3 -5.5 -6t-7.5 -6l-48 334h-219l68 -395v1q12 -27 33.5 -37.5t64.5 -10.5h86q38 0 66 10t56 44l41 61l16 -68q6 -29 30 -38t69 -9h85q37 0 66.5 9.5t57.5 44.5l258 388h-144l-207 -318q-5 -6 -6 -7t-4 -3l-5 -4l-49 332h-213l18 -172zM376 459l1 -9v1
l21 -29l37 -261l79 111l-19 187h244l1 -9v1l22 -29l37 -257l190 294h177l-4 -7l25 -31l-272 -409q-29 -37 -60.5 -47t-72.5 -10h-85q-38 0 -61.5 5t-35.5 22l-17 20q-15 9 -21 28l-12 -18q-29 -37 -59.5 -47t-71.5 -10h-86q-38 0 -60 7.5t-36 25.5l-14 18h1q-10 7 -16 15.5
t-11 19.5l-73 418h252z" />
    <glyph glyph-name="FL0085h" unicode="x" horiz-adv-x="750" 
d="M883 420l-25 33l8 6h-214l-173 -123l-91 123h-277l188 -251l-310 -221h13l24 -32h204l169 121l68 -89h3l25 -32h269l-24 32h4l-165 218zM322 207l-177 237h233l97 -129l182 129h163l-288 -205l178 -237h-233l-98 128l-180 -128h-165z" />
    <glyph glyph-name="FL0080h" unicode="y" horiz-adv-x="689" 
d="M742 445h-197l-84 -335h-185l84 335h-197l-83 -334q-5 -18 -1.5 -37.5t13.5 -35t25 -26t34 -10.5h283l-12 -50h-303l-27 -108h401q19 0 39.5 10.5t38 26t30.5 35t18 37.5zM759 454l24 -32l-125 -504q-5 -20 -19.5 -41t-34 -38.5t-42.5 -29t-45 -11.5h-413l-24 32h-6
l34 137h27q-8 5 -13 10.5t-9 10.5l-11 14q-24 17 -34.5 48.5t-2.5 60.5l87 349h227l-2 -6l24 -32l-74 -297h123l84 335h227z" />
    <glyph glyph-name="FL0084h" unicode="z" horiz-adv-x="635" 
d="M79 110l-27 -108h525l27 108h-279l336 227l27 107h-525l-27 -107h273zM622 119l24 -32l-33 -132h-549l-24 32h-6l32 131l249 172h-168l-24 32h-6l34 137h555l-1 -6l24 -32l-31 -126l-254 -170h179z" />
    <glyph glyph-name="FL0087h" unicode="{" horiz-adv-x="465" 
d="M573 478l33 131l-24 32l1 6h-272q-23 0 -46 -12t-43 -30t-34.5 -40t-19.5 -41l-117 -468q-8 -29 3 -60t35 -49l9 -14q11 -15 26.5 -24t35.5 -9h269l33 132l-24 32l1 6h-126l102 408h158zM137 -53q-19 0 -34 10.5t-25 26t-13.5 35t1.5 37.5l117 468q4 18 17 37t31 34.5
t38.5 26t38.5 10.5h257l-27 -107h-158l-117 -470h158l-27 -108h-257z" />
    <glyph glyph-name="FL007Eh" unicode="|" horiz-adv-x="300" 
d="M13 -156h190l221 887h-190zM0 -171h-6l229 917h220l-1 -6l24 -31l-228 -912h-215z" />
    <glyph glyph-name="FL0088h" unicode="}" horiz-adv-x="465" 
d="M65 55l-27 -108h257q19 0 39 10.5t37.5 26t30.5 35t18 37.5l117 468q4 18 0.5 37t-13 34.5t-24.5 26t-34 10.5h-257l-27 -107h158l-117 -470h-158zM169 510h-6l34 137h272q27 0 47 -17t30 -41l10 -13q14 -17 19 -40.5t0 -46.5l-117 -468q-5 -20 -19.5 -41t-34 -39
t-42.5 -29.5t-45 -11.5h-268l-24 32h-6l34 138h158l102 408h-120z" />
    <glyph glyph-name="FL0089h" unicode="~" horiz-adv-x="533" 
d="M303 219h5l24 -31h187l111 128l-25 32l6 7h-176l-41 -50l-4 13l-18 24l-4 13h-191l-117 -136h10l24 -31h167l37 44zM183 340h171l27 -73l58 73h140l-92 -106h-171l-26 73l-60 -73h-139z" />
    <glyph glyph-name="FL0086h" horiz-adv-x="258" 
 />
    <glyph glyph-name="FL00A1h" unicode="&#xa1;" horiz-adv-x="300" 
d="M168 467h190l28 111h-190zM52 2h190l104 414h-190zM144 431h26l-14 21h-6l35 141h220l-2 -6l24 -32l-33 -135h-27l20 -27l-109 -438h-215l-23 32h-6z" />
    <glyph glyph-name="FL00A2h" unicode="&#xa2;" horiz-adv-x="619" 
d="M491 593l-17 -66h-193q-23 0 -46 -12t-43 -30t-34.5 -40t-19.5 -41l-57 -226q-7 -29 3.5 -60t34.5 -48l11 -14q11 -15 26 -24t35 -9h158l-9 -36h6l24 -32h114l17 68h113l33 132l-25 31l2 6h-81l41 166h113l33 131l-24 32l1 6h-81l7 28l-24 32l2 6h-120zM492 177h113
l-27 -107h-113l-17 -68h-90l17 68h-208q-19 0 -34 10.5t-24.5 26t-13 34.5t0.5 37l57 226q4 18 17 37t31 35t38.5 26t38.5 10h208l16 66h90l-16 -66h113l-27 -107h-113zM293 177h109l57 228h-109zM385 358h47l-41 -166h-47z" />
    <glyph glyph-name="FL00A3h" unicode="&#xa3;" horiz-adv-x="694" 
d="M126 358l-34 -137h6l24 -32h63l-16 -64h-101l-34 -138h6l24 -32h608l33 132l-24 32l1 6h-254l16 64h184l33 132l-24 32l2 6h-152l16 65h94l32 131l-23 32l2 6h-209q-23 0 -46 -12t-43 -30t-35 -40t-20 -41l-28 -112h-101zM244 343q-4 5 -2 15l28 112q4 18 16.5 37
t30.5 34.5t38.5 26t39.5 10.5h194l-27 -107h-95l-31 -127h184l-27 -108h-184l-32 -126h286l-27 -108h-584l27 108h101l28 112q1 3 3 6.5t4 7.5h-104l27 107h106z" />
    <glyph glyph-name="FL00A4h" unicode="&#xa4;" horiz-adv-x="891" 
d="M1041 593h-206l-182 -129h-123l-97 129h-288l176 -239l-39 -157l-293 -210h13l24 -32h195l179 129h124l73 -97h4l24 -32h280l-24 32h4l-149 200l41 166l280 201l-25 33zM695 212l156 -210h-244l-96 129h-140l-180 -129h-157l261 187l43 172l-160 217h244l97 -129h138
l181 129h156l-254 -183zM434 214h128l38 152h-128zM508 319h66l-23 -90h-66z" />
    <glyph glyph-name="FL00A6h" unicode="&#xa5;" horiz-adv-x="896" 
d="M228 347l-35 -138h6l14 -18h-24l-35 -137h6l24 -32h156l-8 -35h6l24 -32h222l16 67h176l33 132l-18 23h24l33 132l-24 32l2 6h-28l260 207l-25 33l8 6h-202l-254 -192l-152 192h-288l186 -246h-103zM364 332l-186 246h244l158 -198l262 198h158l-308 -246h115l-27 -108
h-176l-12 -48h176l-27 -107h-176l-17 -67h-198l17 67h-194l27 107h194l12 48h-194l27 108h125z" />
    <glyph glyph-name="FL00A7h" unicode="&#xa6;" horiz-adv-x="300" 
d="M-6 -171h6l23 -32h215l111 442l-21 27h27l111 443l-24 31l1 6h-220l-112 -448h6l15 -21h-26zM117 262h190l-104 -418h-190zM234 731h190l-104 -418h-190z" />
    <glyph glyph-name="FL00ACh" unicode="&#xa7;" horiz-adv-x="689" 
d="M768 440l32 131l-24 32l2 6h-475q-23 0 -46.5 -12t-43.5 -30t-35 -40t-20 -41l-14 -58q-4 -15 -0.5 -29t9.5 -26v-1l-3 -3v1q-11 -14 -20.5 -26.5t-13.5 -25.5l-14 -58q-8 -29 2.5 -60.5t35.5 -47.5l10 -14q15 -24 43 -31h-109l-35 -138h6l24 -32h472q22 0 45 11.5
t42.5 29.5t34 39t19.5 41l15 58q3 14 0.5 24.5t-7.5 21.5q-2 5 -6 8l4 3q11 11 21.5 24.5t14.5 27.5l15 58q5 23 0 46.5t-19 41.5l-10 13q-10 20 -25 35.5t-36 20.5h109zM696 260q-3 -11 -12.5 -22t-19.5 -22q-2 -2 -5 -5.5t-5 -5.5q2 -4 3.5 -8t3.5 -8q5 -10 7.5 -19
t0.5 -19l-15 -58q-5 -18 -18 -37.5t-30.5 -35t-38 -26t-39.5 -10.5h-460l27 108h362l15 60h-283q-19 0 -34.5 10t-25.5 26t-13.5 35t1.5 37l14 58q3 10 10.5 19.5t16.5 20.5q5 5 8 8.5t6 6.5l-4 9q-5 11 -8.5 22.5t-0.5 23.5l14 58q4 18 17 37t31 34.5t38.5 26t39.5 10.5
h460l-27 -107h-362l-15 -60h283q19 0 34.5 -10.5t25 -26t13 -35t-0.5 -37.5zM313 256h185l16 66h-185zM365 275h123l-1 -4h-123z" />
    <glyph glyph-name="FL00A8h" unicode="&#xa8;" horiz-adv-x="510" 
d="M439 574h156l23 91h-156zM195 574h156l23 91h-156zM182 559h-6l31 121h186l-2 -6l24 -31l-29 -116h-180zM426 559h-6l31 121h186l-2 -6l24 -31l-29 -116h-180z" />
    <glyph glyph-name="FL00B1h" unicode="&#xa9;" horiz-adv-x="276" 
d="M258 495q33 0 46 28l-10 4q-5 -11 -14 -15.5t-20 -4.5q-29 0 -20 34q9 37 40 37q15 0 21 -17l11 2q-2 26 -29 26q-20 0 -35 -12.5t-21 -35.5q-12 -46 31 -46zM288 614q20 0 33 -10h-1q12 -6 17.5 -18t5.5 -26t-5.5 -28.5t-15.5 -24.5q-15 -18 -32 -26q-20 -9 -37 -9
q-15 0 -30 7l-4 2q-9 5 -20 26q-6 13 -1 34q8 31 34.5 52t55.5 21zM291 624q-21 0 -45 -10q-18 -7 -39 -31l1 1q-17 -21 -21 -43q-6 -20 -1 -35q4 -14 8.5 -20t11.5 -12l1 -1q1 0 2 -1l2 -2h-1q28 -11 39 -11q1 0 11.5 1.5t32.5 9.5h-1l3 2q13 8 21 13.5t15 15.5
q18 21 22 40q6 22 0 39q-4 24 -25 34q-13 10 -37 10zM294 639q24 0 42 -12q21 -10 28 -26q-2 -2 1 -4q1 -1 0.5 -2t0.5 -2l15 -19l2 -3q2 -4 4 -6.5t2 -9.5l1 1v-1q9 -19 1 -48q-6 -25 -24 -47h-2q-11 -13 -17.5 -18.5t-16.5 -11.5q-2 -2 -6 -3h1l-1 -1q-28 -11 -39.5 -12.5
t-12.5 -1.5q-20 0 -46 13l-3 2q-2 0 -1 1q-1 0 -1 1q-7 6 -13 13l-13 17q-2 0 -2 2q-1 0 -1 1q-8 6 -13 12t-7 20v-1q-8 24 -1 48q4 16 11.5 29.5t20.5 30.5q8 12 40 26q30 12 50 12z" />
    <glyph glyph-name="FL00AAh" unicode="&#xaa;" horiz-adv-x="702" 
d="M289 75h6l24 -32h102l8 -56h5l24 -32h247l-71 419q-2 7 -9 17l-13 17v2q-9 27 -34.5 38t-76.5 11h-83q-42 0 -74.5 -10.5t-62.5 -48.5l-274 -413h8l24 -32h166l87 135zM415 197l-18 138l-5 -4l-4.5 -3t-6.5 -7l-208 -319h-141l258 388q28 35 57.5 44.5t67.5 9.5h83
q45 0 67.5 -10.5t31.5 -37.5v1l66 -395h-221l-11 88h-124l27 107h81zM392 243l4 -31h-25z" />
    <glyph glyph-name="FL00ABh" unicode="&#xab;" horiz-adv-x="353" 
d="M220 250l22 -29l17 68l-48 -26l11 -8zM377 334l38 150l-109 -66l-64 -257l76 -66l37 151l-56 44zM226 334l38 150l-109 -66l-64 -257l76 -66l37 151l-56 44zM86 143l-12 10l68 273l144 88l-2 -10l24 -32l-12 -45l141 87l-2 -10l24 -32l-45 -180l-52 -29l11 -8l-2 -5
l24 -32l-45 -181l-95 82l-19 24l-9 7l-28 -113l-95 82z" />
    <glyph glyph-name="FL00ADh" unicode="&#xac;" horiz-adv-x="526" 
d="M126 358l-34 -137h6l24 -32h271l-30 -122h6l23 -32h132l71 285l-24 32l1 6h-446zM419 236h-308l27 107h416l-66 -262h-108z" />
    <glyph glyph-name="FL00AEh" unicode="&#xad;" horiz-adv-x="366" 
d="M92 219h6l24 -31h280l32 130l-24 32l2 6h-286zM137 341h256l-27 -107h-256z" />
    <glyph glyph-name="FL00A9h" unicode="&#xae;" horiz-adv-x="276" 
d="M255 574h32q8 -5 7 -14q-2 -8 -7.5 -12t-20.5 -4h-18zM245 585l-22 -88h13l9 38h9q10 0 11 -4h-1q5 -4 13 -21l3 -13h15l-4 13q-3 3 -4 8v-1q-4 8 -5.5 12t-6.5 6l1 2q11 1 20 8t11 16q1 2 -2 13l-1 1q0 2 -6 7q-5 3 -23 3h-30zM288 614q20 0 33 -10h-1q31 -21 22 -58
q-6 -21 -20 -40q-6 -8 -13.5 -13t-15.5 -10l-2 -2q-19 -10 -39 -10l1 2q-1 0 -9.5 1.5t-20.5 4.5l-7 3q-12 10 -16 23q-1 8 -1.5 14t-0.5 8v14q8 31 34.5 52t55.5 21zM291 624q-21 0 -45 -10q-12 -6 -21.5 -14t-17.5 -17l1 1q-17 -21 -21 -43q-6 -23 0.5 -39.5t23.5 -31.5
q14 -11 38 -11q1 0 13 1.5t31 9.5h-1q29 15 39 31q18 21 22 40q1 5 1.5 10.5t0.5 10.5q0 13 -4 21q-5 20 -23 31q-13 10 -37 10zM294 639q24 0 42 -12q14 -6 20.5 -14.5t10.5 -19.5l13 -18q3 -4 5.5 -9.5t4.5 -11.5v1q9 -19 1 -48q-6 -25 -24 -47h-2q-15 -22 -39 -34
q-24 -11 -38 -12.5t-15 -1.5q-30 0 -46 13q-5 4 -8.5 8t-7.5 9l-9 12h1q-2 1 -3.5 2l-1.5 1q-19 17 -26.5 36t0.5 48q4 14 11.5 27t18.5 30q12 15 35 26q36 15 57 15z" />
    <glyph glyph-name="FL00AFh" unicode="&#xaf;" horiz-adv-x="669" 
d="M186 598l-25 -100h6l24 -31h583l24 93l-24 32l1 6h-589zM197 583h559l-17 -70h-559z" />
    <glyph glyph-name="FL00B0h" unicode="&#xb0;" horiz-adv-x="265" 
d="M206 528h180l29 116l-25 31l2 6h-185l-30 -121h6zM218 666h155l-23 -92h-155zM308 607l7 28h-55l-7 -28h55z" />
    <glyph glyph-name="FL00BEh" unicode="&#xb1;" horiz-adv-x="526" 
d="M68 125l-34 -138h6l24 -32h440l33 132l-24 32l1 6h-123l36 144h155l33 132l-24 32l1 6h-123l29 116l-23 32l2 6h-138l-39 -154h-154l-34 -138h6l24 -32h116l-30 -122h6l16 -22h-182zM354 161h-108l39 155h-154l27 108h154l38 154h108l-38 -154h154l-27 -108h-154zM79 110
h416l-27 -108h-416z" />
    <glyph glyph-name="FL00B6h" unicode="&#xb2;" horiz-adv-x="456" 
d="M459 443q10 0 20.5 7t20 16.5t16.5 21t9 20.5l15 63q5 18 -5 35.5t-30 17.5h-297l-19 -74h230l-8 -32h-181q-20 0 -38.5 -18t-23.5 -36l-32 -126h346l19 76h-230l7 29h181zM124 323h-6l35 141q7 28 37 52l-14 19h-6l26 104h312q17 0 29 -11t17 -26v1l15 -19
q7 -10 10 -22.5t0 -25.5l-16 -63q-4 -14 -15 -29.5t-25 -28.5l19 -24l-24 -100h-370z" />
    <glyph glyph-name="FL00B3h" unicode="&#xb3;" horiz-adv-x="421" 
d="M201 518l-19 -75h175l-7 -29h-195l-19 -76h262q20 0 38.5 18t24.5 36l13 55q2 5 -2 12.5t-8 13.5l-3 9q2 2 7 6.5t10 9.5t9 9.5t4 7.5l14 56q5 18 -5 35.5t-30 17.5h-262l-19 -74h195l-8 -32h-175zM187 521l-11 14h-6l26 104h277q17 0 29 -11t17 -26v1l15 -19
q7 -10 10 -22.5t0 -25.5l-14 -56q-2 -8 -10.5 -17t-16.5 -17q5 -7 8.5 -16t1.5 -17l-14 -56q-3 -11 -10.5 -22.5t-18 -21t-23 -16t-25.5 -6.5h-274l-24 32h-6l26 106h29l-2 -2l-1 2h-6z" />
    <glyph glyph-name="FL00B4h" unicode="&#xb4;" horiz-adv-x="269" 
d="M146 559h9l24 -32h153l117 115l-25 32l7 6h-190zM245 665h150l-93 -91h-127z" />
    <glyph glyph-name="FL00B5h" unicode="&#xb5;" horiz-adv-x="689" 
d="M534 460l-84 -335h-123l74 297l-24 32l2 6h-227l-152 -610h6l24 -31h221l34 136h271q22 0 45 11.5t42.5 29.5t34 39t19.5 41l86 346l-24 32l2 6h-227zM532 2h-283l-34 -137h-197l145 580h197l-84 -335h185l84 335h197l-83 -334q-5 -18 -18 -37.5t-31 -35t-38.5 -26
t-39.5 -10.5z" />
    <glyph glyph-name="FL00BDh" unicode="&#xb6;" horiz-adv-x="748" 
d="M138 345q-5 -18 -1.5 -37.5t13.5 -35t25.5 -26t34.5 -10.5h57l-96 -384h199l154 619h86l-154 -619h197l181 727h-539q-19 0 -39.5 -10.5t-38.5 -26t-31 -35t-17 -37.5zM154 470q5 20 20 41.5t35 39.5t43.5 30t46.5 12h554l-1 -5l24 -32l-188 -751h-221l-24 32h-6l147 587
h-24l-155 -619h-223l-24 32h-6l88 353h-8q-38 0 -61 32l-10 14q-24 17 -35 48.5t-3 60.5z" />
    <glyph glyph-name="FL00B7h" unicode="&#xb7;" horiz-adv-x="240" 
d="M109 234h131l27 107h-131zM98 219h-6l34 137h160l-2 -6l24 -32l-32 -130h-155z" />
    <glyph glyph-name="FL00B9h" unicode="&#xb8;" horiz-adv-x="222" 
d="M-41 -209h90q22 0 44.5 11t42 28.5t34 38.5t19.5 41l17 68l-25 32l2 6h-141l-14 -58h-65l-34 -135h6zM151 -56q-5 -18 -18 -36.5t-30.5 -34.5t-38 -26t-39.5 -10h-78l27 107h65l14 57h112z" />
    <glyph glyph-name="FL00BCh" unicode="&#xb9;" horiz-adv-x="279" 
d="M395 639h-199l-26 -104h6l23 -32h16l-44 -180h6l24 -32h140l77 311l-24 31zM242 550h-53l19 74h169l-72 -286h-116z" />
    <glyph glyph-name="FL00BAh" unicode="&#xba;" horiz-adv-x="456" 
d="M174 309q13 -18 34 -18h249q13 0 25.5 6.5t23 16t18 21t10.5 22.5l45 179q3 13 0 25.5t-10 22.5l-15 19v-1q-5 15 -17 26t-29 11h-248q-13 0 -26 -6.5t-24.5 -16.5t-19.5 -22t-11 -23l-44 -179q-5 -17 2 -35.5t23 -27.5h-1zM496 392q-6 -18 -24.5 -36t-38.5 -18h-248
q-20 0 -30 18t-5 36l44 179q5 18 24 35.5t39 17.5h248q20 0 30 -17.5t5 -35.5zM271 414h114l34 136h-114zM340 503h52l-18 -74h-52z" />
    <glyph glyph-name="FL00BBh" unicode="&#xbb;" horiz-adv-x="353" 
d="M53 65l7 5l25 -33l132 80l-13 -52l7 5l25 -33l136 82l67 271l-24 32l1 4l-100 88l-30 -121l-22 29l1 4l-100 88l-47 -189l12 -10l18 -23l6 -6l-53 -31zM286 334l38 150l75 -66l-64 -257l-108 -66l37 151l78 44zM135 334l38 150l75 -66l-64 -257l-108 -66l37 151l78 44z
M299 292l6 -6l-50 -30l17 67l9 -7z" />
    <glyph glyph-name="FL03A7h" unicode="&#xbc;" horiz-adv-x="822" 
d="M390 593h-200l-26 -105h6l24 -31h16l-45 -181h6l24 -32h94l-271 -257h11l24 -32h189l155 147l-15 -60h6l24 -32h179l-5 -23h5l24 -32h142l13 55h43l26 101l-24 32l1 6h-11l29 117l-24 32l2 6h-116l-212 -120l390 370l-25 33l7 6h-198l-309 -293l63 255l-24 32zM662 578
h157l-608 -576h-158zM698 289h95l-39 -155h43l-19 -77h-43l-14 -55h-118l14 55h-216l19 76zM236 503h-54l19 75h170l-71 -287h-116zM549 134h87l14 56z" />
    <glyph glyph-name="FL037Ah" unicode="&#xbd;" horiz-adv-x="910" 
d="M390 593h-200l-26 -105h6l24 -31h16l-45 -181h6l24 -32h94l-271 -257h11l24 -32h189l310 292l-12 -48h6l13 -19q-14 -11 -24 -24.5t-13 -26.5l-35 -142h6l24 -32h371l25 100l-19 24q14 13 25 29t14 30l16 62q6 27 -10 48l-14 19l-1 -1q-4 16 -16 27t-29 11h-269l264 250
l-25 33l7 6h-198l-309 -293l63 255l-24 32zM662 578h157l-607 -576h-159zM649 108l-8 -30h230l-19 -76h-347l32 127q5 18 23.5 35.5t38.5 17.5h181l8 32h-230l19 75h298q20 0 30 -18t6 -36l-16 -63q-2 -9 -8.5 -20t-16 -20.5t-20 -16.5t-20.5 -7h-181zM236 503h-54l19 75
h170l-71 -287h-116z" />
    <glyph glyph-name="FL03CFh" unicode="&#xbe;" horiz-adv-x="937" 
d="M765 190l-14 -56h-87zM535 133l-19 -76h216l-14 -55h118l14 55h43l19 77h-43l39 155h-95zM190 472l-19 -75h175l-7 -30h-195l-19 -76h263q20 0 38.5 18t23.5 36l14 56q1 5 -3 12.5t-8 13.5q0 1 -0.5 2.5t-1.5 6.5l6.5 6.5l9.5 9.5t9 9.5t5 7.5l14 55q4 18 -6 36t-30 18
h-263l-19 -75h195l-7 -31h-175zM168 2h158l608 576h-157zM175 475l-10 13h-6l26 105h278q17 0 29 -11t16 -27l1 1l14 -19q16 -21 10 -48l-14 -55q-2 -8 -10 -17t-16 -17q4 -7 7.5 -16.5t1.5 -17.5l-9 -39l280 266h198l-7 -6l25 -33l-390 -370l212 120h116l-2 -6l24 -32
l-29 -117h11l-1 -6l24 -32l-26 -101h-43l-13 -55h-142l-24 32h-6l5 23h-178l-24 32h-6l15 60l-155 -147h-189l-24 32h-11l271 257h-268l-24 32h-6l26 106h29l-1 -2l-2 2h-6z" />
    <glyph glyph-name="FL00BFh" unicode="&#xbf;" horiz-adv-x="774" 
d="M564 467h191l28 111h-191zM237 344q-19 0 -39.5 -10.5t-38.5 -26t-31 -35t-17 -37.5l-31 -124q-5 -18 -1.5 -37.5t13.5 -35t25 -26t34 -10.5h565l27 108h-467l32 126h291q19 0 39 10.5t37.5 26t30.5 35t18 37.5l17 69h-190l-17 -70h-297zM523 359l17 70h29l-17 23h-6
l35 141h221l-2 -6l24 -32l-33 -135h-30l21 -29l-20 -81q-5 -20 -19.5 -41t-34 -39t-42.5 -29.5t-45 -11.5h-278l-16 -64h435l-1 -6l24 -32l-33 -132h-578q-19 0 -34.5 9t-26.5 24l-11 14q-24 17 -34.5 48.5t-2.5 60.5l31 124q5 20 20 42t35 40t43.5 30t46.5 12h282z" />
    <glyph glyph-name="FL00C0h" unicode="&#xc0;" 
d="M520 638h127l-25 93h-151zM386 359h240l16 65h-240zM52 2h197l117 469h302l-31 -127h-245l-27 -108h245l-59 -234h197l117 468q4 18 0.5 37.5t-13 35t-25 26t-34.5 10.5h-498q-19 0 -39.5 -10.5t-38.5 -26t-31 -35t-17 -37.5zM638 734v1l21 -26l31 -116h107
q28 0 48 -16.5t30 -40.5l9 -13q14 -18 19.5 -41.5t-0.5 -46.5l-119 -480h-222l-23 32h-6l50 203h-207l-24 31h-1l-66 -266h-221l-24 32h-6l120 483q5 20 20 41.5t35 39.5t43.5 30t46.5 12h236l-23 30h-4l-64 123h192z" />
    <glyph glyph-name="FL00C1h" unicode="&#xc1;" 
d="M470 638h128l94 93h-151zM386 359h240l16 65h-240zM52 2h197l117 469h302l-31 -127h-245l-27 -108h245l-59 -234h197l117 468q4 18 0.5 37.5t-13 35t-25 26t-34.5 10.5h-498q-19 0 -39.5 -10.5t-38.5 -26t-31 -35t-17 -37.5zM537 746h191l-6 -6l23 -33l-115 -114h167
q28 0 48 -16.5t30 -40.5l9 -13q14 -18 19.5 -41.5t-0.5 -46.5l-119 -480h-222l-23 32h-6l50 203h-207l-24 31h-1l-66 -266h-221l-24 32h-6l120 483q5 20 20 41.5t35 39.5t43.5 30t46.5 12h174l-23 30h-9z" />
    <glyph glyph-name="FL00C2h" unicode="&#xc2;" 
d="M586 636l-40 -42h73l-23 30h-5zM386 359h240l16 65h-240zM603 639h150l-41 93h-258l-91 -93h152l61 68zM52 2h197l117 469h302l-31 -127h-245l-27 -108h245l-59 -234h197l117 468q4 18 0.5 37.5t-13 35t-25 26t-34.5 10.5h-498q-19 0 -39.5 -10.5t-38.5 -26t-31 -35
t-17 -37.5zM154 470q5 20 20 42t35 40t43.5 30t46.5 12h65l-22 30h-10l117 123h274l7 -14l17 -24l53 -115q27 -2 45.5 -18.5t29.5 -39.5l9 -13q14 -18 19.5 -41.5t-0.5 -46.5l-119 -480h-222l-23 32h-6l50 203h-207l-24 31h-1l-66 -266h-221l-24 32h-6z" />
    <glyph glyph-name="FL00C3h" unicode="&#xc3;" 
d="M534 636l-40 -42h73l-23 30h-4zM386 359h240l16 65h-240zM521 703l30 -64h175l89 93h-140l-58 -64l-30 64h-175l-90 -93h141zM52 2h197l117 469h302l-31 -127h-245l-27 -108h245l-59 -234h197l117 468q4 18 0.5 37.5t-13 35t-25 26t-34.5 10.5h-498q-19 0 -39.5 -10.5
t-38.5 -26t-31 -35t-17 -37.5zM154 470q5 20 20 42t35 40t43.5 30t46.5 12h24l-23 30h-10l117 123h191l6 -14l19 -24l3 -10l43 48h180l-6 -6l25 -33l-112 -114h41q28 0 48 -17t30 -41l9 -13q14 -18 19.5 -41.5t-0.5 -46.5l-119 -480h-222l-23 32h-6l50 203h-207l-24 31h-1
l-66 -266h-221l-24 32h-6z" />
    <glyph glyph-name="FL00C4h" unicode="&#xc4;" 
d="M603 639h156l24 93h-156zM358 639h157l24 93h-157zM386 359h240l16 65h-240zM52 2h197l117 469h302l-31 -127h-245l-27 -108h245l-59 -234h197l117 468q4 18 0.5 37.5t-13 35t-25 26t-34.5 10.5h-498q-19 0 -39.5 -10.5t-38.5 -26t-31 -35t-17 -37.5zM154 470q5 20 20 42
t35 40t43.5 30t46.5 12h70l-23 30h-5l30 123h186l-1 -6l24 -32l-29 -115h63l-23 30h-6l30 123h186l-1 -6l24 -32l-29 -115h2q28 0 48 -17t30 -41l9 -13q14 -18 19.5 -41.5t-0.5 -46.5l-119 -480h-222l-23 32h-6l50 203h-207l-24 31h-1l-66 -266h-221l-24 32h-6z" />
    <glyph glyph-name="FL00C5h" unicode="&#xc5;" 
d="M34 -13h6l24 -32h221l66 266h1l24 -31h207l-50 -203h6l23 -32h222l119 480q6 23 0.5 46.5t-19.5 41.5l-9 13q-10 24 -30 41t-48 17h-124l29 115l-24 32l1 6h-187l-30 -123h6l23 -30h-192q-23 0 -46.5 -12t-43.5 -30t-35 -40t-20 -42zM169 470q4 18 17 37.5t31 35t38.5 26
t39.5 10.5h498q19 0 34.5 -10.5t25 -26t13 -35t-0.5 -37.5l-117 -468h-197l59 234h-245l27 108h245l31 127h-302l-117 -469h-197zM402 424h240l-16 -65h-240zM504 732h157l-24 -93h-157zM595 672l7 28h-55l-7 -28h55z" />
    <glyph glyph-name="FL00C6h" unicode="&#xc6;" horiz-adv-x="1237" 
d="M34 -13h6l24 -32h222l66 266l24 -32h207l-50 -202h6l24 -32h652l33 132l-24 32l1 6h-398l16 64h389l33 132l-24 32l2 6h-357l16 65h430l32 131l-24 32l2 6h-1043q-23 0 -46.5 -12t-43.5 -30t-35 -40t-20 -41zM169 470q4 18 17 37t31 34.5t38.5 26t39.5 10.5h1028
l-27 -107h-430l-31 -127h389l-27 -108h-389l-32 -126h430l-27 -108h-628l59 234h-245l27 108h245l31 127h-301l-117 -469h-198zM403 424h239l-16 -65h-239z" />
    <glyph glyph-name="FL00C7h" unicode="&#xc7;" horiz-adv-x="737" 
d="M832 424l33 132l-24 32l1 6h-543q-23 0 -46.5 -12t-43.5 -30t-35 -40t-20 -42l-89 -359q-8 -29 2.5 -60.5t34.5 -48.5l11 -14q11 -15 26.5 -24t34.5 -9h95l-34 -134h6l25 -31h91q22 0 44.5 11.5t42 28.5t33.5 38t19 41l12 46h207l33 132l-24 32l1 6h-398l75 299h430z
M459 -56q-5 -18 -18 -37t-30.5 -35t-38 -26t-39.5 -10h-79l27 107h65l14 59h-209q-19 0 -34 10.5t-25 26t-13.5 35t1.5 37.5l89 359q4 18 17 37.5t31 35t38.5 26t39.5 10.5h528l-27 -108h-430l-90 -361h430l-27 -108h-206z" />
    <glyph glyph-name="FL00C8h" unicode="&#xc8;" horiz-adv-x="737" 
d="M632 638l-25 93h-151l49 -93h127zM679 2l27 108h-430l32 126h389l27 108h-389l31 127h430l27 108h-528q-19 0 -39.5 -10.5t-38.5 -26t-31 -35t-17 -37.5l-89 -359q-5 -18 -1.5 -37.5t13.5 -35t25 -26t34 -10.5h528zM623 734v1l21 -26l30 -116h168l-1 -5l24 -32l-33 -132
h-430l-16 -65h357l-2 -6l24 -32l-33 -131h-389l-16 -65h398l-1 -6l24 -32l-33 -132h-541q-19 0 -34.5 9t-26.5 24l-11 14q-24 17 -34.5 48.5t-2.5 60.5l89 359q5 20 20 41.5t35 39.5t43.5 30t46.5 12h221l-23 30h-4l-64 123h192z" />
    <glyph glyph-name="FL00C9h" unicode="&#xc9;" horiz-adv-x="737" 
d="M568 638l94 93h-151l-71 -93h128zM679 2l27 108h-430l32 126h389l27 108h-389l31 127h430l27 108h-528q-19 0 -39.5 -10.5t-38.5 -26t-31 -35t-17 -37.5l-89 -359q-5 -18 -1.5 -37.5t13.5 -35t25 -26t34 -10.5h528zM507 746h191l-6 -6l23 -33l-115 -114h242l-1 -5l24 -32
l-33 -132h-430l-16 -65h357l-2 -6l24 -32l-33 -131h-389l-16 -65h398l-1 -6l24 -32l-33 -132h-541q-19 0 -34.5 9t-26.5 24l-11 14q-24 17 -34.5 48.5t-2.5 60.5l89 359q5 20 20 41.5t35 39.5t43.5 30t46.5 12h144l-23 30h-9z" />
    <glyph glyph-name="FL00CAh" unicode="&#xca;" horiz-adv-x="737" 
d="M559 636l-40 -42h73l-23 30h-5zM576 639h150l-41 93h-258l-91 -93h152l61 68zM679 2l27 108h-430l32 126h389l27 108h-389l31 127h430l27 108h-528q-19 0 -39.5 -10.5t-38.5 -26t-31 -35t-17 -37.5l-89 -359q-5 -18 -1.5 -37.5t13.5 -35t25 -26t34 -10.5h528zM343 190
l-16 -65h398l-1 -6l24 -32l-33 -132h-541q-19 0 -34.5 9t-26.5 24l-11 14q-24 17 -34.5 48.5t-2.5 60.5l89 359q5 20 20 42t35 40t43.5 30t46.5 12h38l-22 30h-10l117 123h274l6 -14l18 -24l53 -115h69l-1 -6l24 -32l-33 -132h-430l-16 -65h357l-2 -6l24 -32l-33 -131h-389z
" />
    <glyph glyph-name="FL00CBh" unicode="&#xcb;" horiz-adv-x="737" 
d="M732 190l33 131l-24 32l2 6h-357l16 65h430l33 132l-24 32l1 6h-74l29 115l-24 32l1 6h-186l-30 -123h6l23 -30h-63l29 115l-24 32l1 6h-186l-30 -123h6l22 -30h-43q-23 0 -46.5 -12t-43.5 -30t-35 -40t-20 -42l-89 -359q-8 -29 2.5 -60.5t34.5 -48.5l11 -14
q11 -15 26.5 -24t34.5 -9h541l33 132l-24 32l1 6h-398l16 65h389zM151 2q-19 0 -34 10.5t-25 26t-13.5 35t1.5 37.5l89 359q4 18 17 37.5t31 35t38.5 26t39.5 10.5h528l-27 -108h-430l-31 -127h389l-27 -108h-389l-32 -126h430l-27 -108h-528zM355 732h157l-24 -93h-157z
M600 732h156l-24 -93h-156z" />
    <glyph glyph-name="FL00CCh" unicode="&#xcc;" horiz-adv-x="306" 
d="M281 638h126l-24 93h-150zM52 2h196l144 577h-196zM398 734v1l21 -26l33 -117h-41l-1 -4l24 -32l-150 -601h-221l-23 32h-6l151 606h111l-23 30h-4l-63 123h191z" />
    <glyph glyph-name="FL00CDh" unicode="&#xcd;" horiz-adv-x="306" 
d="M336 638l93 93h-150l-70 -93h127zM52 2h196l144 577h-196zM275 746h190l-6 -6l24 -33l-116 -114h44l-1 -5l24 -32l-150 -601h-221l-23 32h-6l151 606h27l-23 30h-9z" />
    <glyph glyph-name="FL00CEh" unicode="&#xce;" horiz-adv-x="307" 
d="M336 636l-40 -42h73l-23 30h-5zM353 639h151l-42 93h-257l-90 -93h151l60 68zM52 2h197l144 577h-197zM40 -13h-6l151 606h-69l-24 31h-10l118 123h273l7 -14l18 -24l53 -116h-139l-1 -5l24 -32l-150 -601h-221z" />
    <glyph glyph-name="FL00CFh" unicode="&#xcf;" horiz-adv-x="307" 
d="M353 639h156l24 93h-156zM109 639h157l24 93h-157zM52 2h197l144 577h-197zM97 624h-6l30 123h186l-1 -6l24 -32l-29 -115h63l-23 30h-6l30 123h186l-1 -6l24 -32l-29 -116h-133l-1 -5l24 -32l-150 -601h-221l-24 32h-6l151 606h-64z" />
    <glyph glyph-name="FL00D0h" unicode="&#xd0;" horiz-adv-x="923" 
d="M92 221h6l24 -32h79l-50 -202h6l24 -32h221l8 32h1l24 -32h355q22 0 45 11.5t42.5 29.5t34 39t19.5 41l89 359q6 23 0.5 46t-19.5 41l-10 13q-10 24 -29.5 41t-47.5 17h-612l-58 -234h-117zM255 344l58 234h597q19 0 34.5 -10.5t25 -26t13 -34.5t-0.5 -37l-89 -359
q-5 -18 -18 -37.5t-31 -35t-38.5 -26t-39.5 -10.5h-343l27 108h244l90 361h-301l-31 -127h127l-27 -108h-127l-59 -234h-197l59 234h-117l27 108h117zM587 189l33 132l-24 32l2 6h-95l16 65h240l-75 -299h-240l16 64h127z" />
    <glyph glyph-name="FL00D1h" unicode="&#xd1;" horiz-adv-x="816" 
d="M34 -13h6l24 -32h156l99 397l146 -365h5l24 -32h300l150 601l-24 32l1 6h-158l112 114l-25 33l6 6h-180l-43 -48l-3 10l-19 24l-6 14h-191l-117 -123h10l23 -30h-145zM652 147l107 432h143l-144 -577h-281l-179 452l-113 -452h-133l144 577h285zM547 624h4l24 -31h173
l-96 -383l-134 346l-18 24l-6 13h7l40 43zM470 639h-141l90 93h175l30 -64l58 64h140l-89 -93h-175l-30 64z" />
    <glyph glyph-name="FL00D2h" unicode="&#xd2;" 
d="M520 638h127l-25 93h-151zM327 125h240l75 299h-240zM578 110h-302l90 361h302zM80 111q-5 -18 -1.5 -37.5t13.5 -35t25 -26t34 -10.5h498q19 0 39.5 10.5t38.5 26t31 35t18 37.5l89 359q4 18 0.5 37.5t-13 35t-25 26t-34.5 10.5h-498q-19 0 -39.5 -10.5t-38.5 -26
t-31 -35t-17 -37.5zM638 734v1l21 -26l31 -116h107q28 0 48 -16.5t30 -40.5l9 -13q14 -18 19.5 -41.5t-0.5 -46.5l-89 -359q-5 -20 -19.5 -41t-34 -39t-42.5 -29.5t-45 -11.5h-498q-20 0 -35.5 9t-26.5 24l-11 14q-24 17 -34.5 48.5t-2.5 60.5l89 359q5 20 20 41.5t35 39.5
t43.5 30t46.5 12h236l-23 30h-4l-64 123h192z" />
    <glyph glyph-name="FL00D3h" unicode="&#xd3;" 
d="M598 638l94 93h-151l-71 -93h128zM327 125h240l75 299h-240zM366 471h302l-90 -361h-302zM865 470q4 18 0.5 37.5t-13 35t-25 26t-34.5 10.5h-498q-19 0 -39.5 -10.5t-38.5 -26t-31 -35t-17 -37.5l-89 -359q-5 -18 -1.5 -37.5t13.5 -35t25 -26t34 -10.5h498
q19 0 39.5 10.5t38.5 26t31 35t18 37.5zM537 746h191l-6 -6l23 -33l-115 -114h167q28 0 48 -16.5t30 -40.5l9 -13q14 -18 19.5 -41.5t-0.5 -46.5l-89 -359q-5 -20 -19.5 -41t-34 -39t-42.5 -29.5t-45 -11.5h-498q-20 0 -35.5 9t-26.5 24l-11 14q-24 17 -34.5 48.5t-2.5 60.5
l89 359q5 20 20 41.5t35 39.5t43.5 30t46.5 12h174l-23 30h-9z" />
    <glyph glyph-name="FL00D4h" unicode="&#xd4;" 
d="M586 636l-40 -42h73l-23 30h-5zM603 639h150l-41 93h-258l-91 -93h152l61 68zM327 125h240l75 299h-240zM366 471h302l-90 -361h-302zM865 470q4 18 0.5 37.5t-13 35t-25 26t-34.5 10.5h-498q-19 0 -39.5 -10.5t-38.5 -26t-31 -35t-17 -37.5l-89 -359q-5 -18 -1.5 -37.5
t13.5 -35t25 -26t34 -10.5h498q19 0 39.5 10.5t38.5 26t31 35t18 37.5zM102 2q-24 17 -34.5 48.5t-2.5 60.5l89 359q5 20 20 42t35 40t43.5 30t46.5 12h65l-22 30h-10l117 123h274l7 -14l17 -24l53 -115q27 -2 45.5 -18.5t29.5 -39.5l9 -13q14 -18 19.5 -41.5t-0.5 -46.5
l-89 -359q-5 -20 -19.5 -41t-34 -39t-42.5 -29.5t-45 -11.5h-498q-20 0 -35.5 9t-26.5 24z" />
    <glyph glyph-name="FL00D5h" unicode="&#xd5;" 
d="M113 -12q11 -15 26.5 -24t35.5 -9h498q22 0 45 11.5t42.5 29.5t34 39t19.5 41l89 359q6 23 0.5 46.5t-19.5 41.5l-9 13q-10 24 -30 41t-48 17h-41l112 114l-25 33l6 6h-180l-43 -48l-3 10l-19 24l-6 14h-191l-117 -123h10l23 -30h-24q-23 0 -46.5 -12t-43.5 -30t-35 -40
t-20 -42l-89 -359q-8 -29 2.5 -60.5t34.5 -48.5zM776 111q-5 -18 -18 -37.5t-31 -35t-38.5 -26t-39.5 -10.5h-498q-19 0 -34 10.5t-25 26t-13.5 35t1.5 37.5l89 359q4 18 17 37.5t31 35t38.5 26t39.5 10.5h498q19 0 34.5 -10.5t25 -26t13 -35t-0.5 -37.5zM276 110h302
l90 361h-302zM402 424h240l-75 -299h-240zM463 639h-141l90 93h175l30 -64l58 64h140l-89 -93h-175l-30 64zM540 624h4l23 -30h-73l40 42z" />
    <glyph glyph-name="FL00D6h" unicode="&#xd6;" 
d="M603 639h156l24 93h-156zM358 639h157l24 93h-157zM327 125h240l75 299h-240zM366 471h302l-90 -361h-302zM865 470q4 18 0.5 37.5t-13 35t-25 26t-34.5 10.5h-498q-19 0 -39.5 -10.5t-38.5 -26t-31 -35t-17 -37.5l-89 -359q-5 -18 -1.5 -37.5t13.5 -35t25 -26t34 -10.5
h498q19 0 39.5 10.5t38.5 26t31 35t18 37.5zM102 2q-24 17 -34.5 48.5t-2.5 60.5l89 359q5 20 20 42t35 40t43.5 30t46.5 12h70l-23 30h-5l30 123h186l-1 -6l24 -32l-29 -115h63l-23 30h-6l30 123h186l-1 -6l24 -32l-29 -115h2q28 0 48 -17t30 -41l9 -13q14 -18 19.5 -41.5
t-0.5 -46.5l-89 -359q-5 -20 -19.5 -41t-34 -39t-42.5 -29.5t-45 -11.5h-498q-20 0 -35.5 9t-26.5 24z" />
    <glyph glyph-name="FL00D7h" unicode="&#xd7;" horiz-adv-x="480" 
d="M470 496l-137 -109l-82 109l-121 -97l81 -109l-135 -110l72 -96l2 2l25 -33l135 106l57 -75l2 2l25 -33l116 92l-25 33l3 2l-57 77l134 107l-25 33l2 2zM153 106l-55 74l135 110l-81 109l93 75l83 -109l136 109l56 -75l-135 -109l81 -110l-94 -74l-82 108z" />
    <glyph glyph-name="FL00D8h" unicode="&#xd8;" 
d="M113 -12q11 -15 26.5 -24t35.5 -9h498q22 0 45 11.5t42.5 29.5t34 39t19.5 41l89 359q6 23 0.5 46t-19.5 41l-10 13q-10 24 -29.5 41t-47.5 17h-498q-23 0 -46.5 -12t-43.5 -30t-35 -40t-20 -41l-89 -359q-8 -29 2.5 -60.5t34.5 -48.5zM776 111q-5 -18 -18 -37.5t-31 -35
t-38.5 -26t-39.5 -10.5h-498q-19 0 -34 10.5t-25 26t-13.5 35t1.5 37.5l89 359q4 18 17 37t31 34.5t38.5 26t39.5 10.5h498q19 0 34.5 -10.5t25 -26t13 -34.5t-0.5 -37zM297 191l289 280h-220zM648 389l-290 -279h220zM517 424l-152 -148l37 148h115zM452 125l151 143
l-36 -143h-115z" />
    <glyph glyph-name="FL00D9h" unicode="&#xd9;" 
d="M911 593h-221l-31 116l-21 26v-1l-2 12h-192l64 -123h4l25 -31h147l-117 -467h-240l108 431l-24 32l1 5h-227l-120 -482q-8 -29 2.5 -60.5t34.5 -48.5l11 -14q11 -15 26.5 -24t35.5 -9h498q22 0 45 11.5t42.5 29.5t34 39t19.5 41l120 480l-24 32zM776 111
q-5 -18 -18 -37.5t-31 -35t-38.5 -26t-39.5 -10.5h-498q-19 0 -34 10.5t-25 26t-13.5 35t1.5 37.5l116 468h197l-117 -469h302l117 469h197zM520 638l-49 93h151l25 -93h-127z" />
    <glyph glyph-name="FL00DAh" unicode="&#xda;" 
d="M911 593h-227l-117 -468h-240l108 431l-24 32l1 5h-227l-120 -482q-8 -29 2.5 -60.5t34.5 -48.5l11 -14q11 -15 26.5 -24t35.5 -9h498q22 0 45 11.5t42.5 29.5t34 39t19.5 41l120 480l-24 32zM776 111q-5 -18 -18 -37.5t-31 -35t-38.5 -26t-39.5 -10.5h-498
q-19 0 -34 10.5t-25 26t-13.5 35t1.5 37.5l116 468h197l-117 -469h302l117 469h197zM441 623h9l25 -31h154l116 115l-23 33l6 6h-191zM541 731h151l-94 -93h-128z" />
    <glyph glyph-name="FL00DBh" unicode="&#xdb;" 
d="M911 594h-111l-53 115l-17 24l-7 14h-274l-117 -123h10l22 -30h-179l-120 -483q-8 -29 2.5 -60.5t34.5 -48.5l11 -14q11 -15 26.5 -24t35.5 -9h498q22 0 45 11.5t42.5 29.5t34 39t19.5 41l120 480l-24 32zM776 111q-5 -18 -18 -37.5t-31 -35t-38.5 -26t-39.5 -10.5h-498
q-19 0 -34 10.5t-25 26t-13.5 35t1.5 37.5l116 468h197l-117 -469h302l117 469h197zM591 624h5l24 -31h64l-117 -468h-240l108 431l-24 32l1 5h134l40 43zM576 707l-61 -68h-152l91 93h258l41 -93h-150z" />
    <glyph glyph-name="FL00DCh" unicode="&#xdc;" 
d="M615 593h69l-117 -468h-240l108 431l-24 32l1 5h139l29 116l-24 32l1 6h-186l-30 -123h5l23 -30h-184l-120 -483q-8 -29 2.5 -60.5t34.5 -48.5l11 -14q11 -15 26.5 -24t35.5 -9h498q22 0 45 11.5t42.5 29.5t34 39t19.5 41l120 480l-24 32l1 6h-116l29 115l-24 32l1 6
h-186l-30 -123h6zM776 111q-5 -18 -18 -37.5t-31 -35t-38.5 -26t-39.5 -10.5h-498q-19 0 -34 10.5t-25 26t-13.5 35t1.5 37.5l116 468h197l-117 -469h302l117 469h197zM382 732h157l-24 -93h-157zM627 732h156l-24 -93h-156z" />
    <glyph glyph-name="FL00DDh" unicode="&#xdd;" horiz-adv-x="896" 
d="M676 638l94 93h-151l-71 -93h128zM615 746h191l-6 -6l24 -33l-117 -115h-154l-25 31h-9zM350 2h198l68 269l384 308h-158l-262 -199l-158 199h-244l238 -316zM1034 588l24 -33l-406 -325l-68 -275h-222l-24 32h-6l67 269l-254 337h288l152 -192l254 192h202z" />
    <glyph glyph-name="FL00DEh" unicode="&#xde;" 
d="M34 -13h6l24 -32h221l37 149h1l24 -32h355q22 0 45 11.5t42.5 29.5t34 39t19.5 40l31 125q6 23 0.5 46.5t-19.5 41.5l-10 13q-10 24 -29.5 41t-47.5 17h-353l19 79l-24 32l2 6h-227zM764 461q19 0 34.5 -10.5t25 -26t13 -35t-0.5 -37.5l-31 -125q-5 -18 -18 -37
t-30.5 -35t-38 -26t-39.5 -10h-343l26 107h245l32 127h-302l-88 -351h-197l144 576h197l-29 -117h400zM372 306h240l-16 -65h-240z" />
    <glyph glyph-name="FL00DFh" unicode="&#xdf;" 
d="M299 593q-23 0 -46.5 -12t-43.5 -30t-35 -40t-20 -41l-120 -483h6l24 -32h221l117 469h240l-16 -65h-195l-35 -138h6l24 -32h157l-16 -64h-195l-34 -138h6l24 -32h305q22 0 45 11.5t42.5 29.5t34 39t19.5 41l28 111q2 14 -6.5 34t-15.5 34q7 6 16 15t17 19t14.5 19
t8.5 15l27 112q6 23 0.5 46t-19.5 41l-10 13q-10 24 -29.5 41t-47.5 17h-498zM793 578q19 0 34.5 -10.5t25 -26t13 -34.5t-0.5 -37l-28 -112q-1 -6 -9 -15.5t-18 -20t-20 -19.5t-15 -13q1 -2 3 -4l2 -2q7 -13 16 -31t7 -31l-27 -111q-5 -18 -18 -37.5t-31 -35t-38.5 -26
t-39.5 -10.5h-293l27 108h195l32 126h-195l27 108h195l31 127h-302l-117 -469h-197l117 468q4 18 17 37t31 34.5t38.5 26t39.5 10.5h498z" />
    <glyph glyph-name="FL00E0h" unicode="&#xe0;" horiz-adv-x="689" 
d="M463 286l21 -27l7 31h-27zM430 505h127l-25 93h-151zM80 111q-5 -18 -1.5 -37.5t13.5 -35t25 -26t34 -10.5h480l84 334q4 18 0.5 37.5t-13 35t-25 26t-34.5 10.5h-467l-27 -108h369l-57 -227h-185l15 59h128l27 108h-226q-19 0 -39.5 -10.5t-38.5 -26t-31 -35t-17 -37.5z
M548 601v1l21 -26l31 -116h47q28 0 47.5 -17t29.5 -41l10 -13q14 -18 19.5 -41.5t-0.5 -46.5l-86 -346h-493q-19 0 -34.5 9t-26.5 24l-11 14q-24 17 -34.5 48.5t-2.5 60.5l14 57q4 18 16.5 37t30 36.5t38 30.5t41.5 18h-45l-24 32h-6l35 138h281l-24 31h-4l-64 122h192z" />
    <glyph glyph-name="FL00E1h" unicode="&#xe1;" horiz-adv-x="689" 
d="M463 286l21 -27l7 31h-27zM376 505h128l94 93h-151zM80 111q-5 -18 -1.5 -37.5t13.5 -35t25 -26t34 -10.5h480l84 334q4 18 0.5 37.5t-13 35t-25 26t-34.5 10.5h-467l-27 -108h369l-57 -227h-185l15 59h128l27 108h-226q-19 0 -39.5 -10.5t-38.5 -26t-31 -35t-17 -37.5z
M443 613h191l-7 -6l24 -33l-115 -114h111q28 0 47.5 -17t29.5 -41l10 -13q14 -18 19.5 -41.5t-0.5 -46.5l-86 -346h-493q-19 0 -34.5 9t-26.5 24l-11 14q-24 17 -34.5 48.5t-2.5 60.5l14 57q4 18 16.5 37t30 36.5t38 30.5t41.5 18h-45l-24 32h-6l35 138h215l-24 31h-9z" />
    <glyph glyph-name="FL00E2h" unicode="&#xe2;" horiz-adv-x="689" 
d="M463 286l21 -27l7 31h-27zM493 502l-39 -42h73l-24 31h-5zM511 505h150l-42 93h-258l-89 -93h151l61 68zM80 111q-5 -18 -1.5 -37.5t13.5 -35t25 -26t34 -10.5h480l84 334q4 18 0.5 37.5t-13 35t-25 26t-34.5 10.5h-467l-27 -108h369l-57 -227h-185l15 59h128l27 108
h-226q-19 0 -39.5 -10.5t-38.5 -26t-31 -35t-17 -37.5zM79 168q4 18 16.5 37t30 36.5t38 30.5t41.5 18h-45l-24 32h-6l35 138h108l-24 31h-10l118 122h274l5 -14l18 -24l54 -116h-49q23 -5 39.5 -20.5t25.5 -36.5l10 -13q14 -18 19.5 -41.5t-0.5 -46.5l-86 -346h-493
q-19 0 -34.5 9t-26.5 24l-11 14q-24 17 -34.5 48.5t-2.5 60.5z" />
    <glyph glyph-name="FL00E3h" unicode="&#xe3;" horiz-adv-x="689" 
d="M463 286l21 -27l7 31h-27zM442 502l-39 -42h73l-24 31h-4zM430 569l30 -64h174l89 93h-140l-58 -64l-30 64h-175l-89 -93h141zM80 111q-5 -18 -1.5 -37.5t13.5 -35t25 -26t34 -10.5h480l84 334q4 18 0.5 37.5t-13 35t-25 26t-34.5 10.5h-467l-27 -108h369l-57 -227h-185
l15 59h128l27 108h-226q-19 0 -39.5 -10.5t-38.5 -26t-31 -35t-17 -37.5zM79 168q4 18 16.5 37t30 36.5t38 30.5t41.5 18h-45l-24 32h-6l35 138h67l-24 31h-10l118 122h191l5 -14l19 -24l4 -10l43 48h180l-7 -6l25 -33l-112 -115h-5q23 -5 39.5 -20.5t25.5 -36.5l10 -13
q14 -18 19.5 -41.5t-0.5 -46.5l-86 -346h-493q-19 0 -34.5 9t-26.5 24l-11 14q-24 17 -34.5 48.5t-2.5 60.5z" />
    <glyph glyph-name="FL00E4h" unicode="&#xe4;" horiz-adv-x="689" 
d="M463 286l21 -27l7 31h-27zM511 505h156l23 93h-156zM267 505h156l23 93h-156zM80 111q-5 -18 -1.5 -37.5t13.5 -35t25 -26t34 -10.5h480l84 334q4 18 0.5 37.5t-13 35t-25 26t-34.5 10.5h-467l-27 -108h369l-57 -227h-185l15 59h128l27 108h-226q-19 0 -39.5 -10.5
t-38.5 -26t-31 -35t-17 -37.5zM79 168q4 18 16.5 37t30 36.5t38 30.5t41.5 18h-45l-24 32h-6l35 138h112l-23 31h-6l31 122h186l-2 -6l24 -32l-28 -115h63l-24 31h-6l31 122h186l-2 -6l24 -32l-29 -116h-43q23 -5 39.5 -20.5t25.5 -36.5l10 -13q14 -18 19.5 -41.5
t-0.5 -46.5l-86 -346h-493q-19 0 -34.5 9t-26.5 24l-11 14q-24 17 -34.5 48.5t-2.5 60.5z" />
    <glyph glyph-name="FL00E5h" unicode="&#xe5;" horiz-adv-x="689" 
d="M65 111q-8 -29 2.5 -60.5t34.5 -48.5l11 -14q11 -15 26.5 -24t34.5 -9h493l86 346q6 23 0.5 46.5t-19.5 41.5l-10 13q-10 24 -29.5 41t-47.5 17h-65l28 115l-24 32l2 6h-187l-31 -122h6l24 -31h-235l-35 -138h6l24 -32h45q-21 -5 -41.5 -18t-38 -30.5t-30 -36.5
t-16.5 -37zM94 168q4 18 17 37.5t31 35t38.5 26t39.5 10.5h226l-27 -108h-128l-15 -59h185l57 227h-369l27 108h467q19 0 34.5 -10.5t25 -26t13 -35t-0.5 -37.5l-84 -334h-480q-19 0 -34 10.5t-25 26t-13.5 35t1.5 37.5zM412 598h157l-23 -93h-157zM503 538l7 28h-55l-7 -28
h55zM464 290h27l-7 -31l-21 27z" />
    <glyph glyph-name="FL00E6h" unicode="&#xe6;" horiz-adv-x="1072" 
d="M79 168l-14 -57q-8 -29 2.5 -60.5t34.5 -48.5l11 -14q11 -15 26.5 -24t35.5 -9h862l33 132l-24 32l1 6h-48q20 4 40 16.5t37 29t29 35.5t17 37l14 58q6 23 0.5 46.5t-19.5 40.5l-10 13q-10 24 -30 41t-48 17h-865l-34 -137h6l24 -32h45q-21 -5 -41.5 -18t-38 -30.5
t-30 -36.5t-16.5 -37zM94 168q4 18 17 37.5t31 35t38.5 26t39.5 10.5h226l-27 -108h-127l-15 -59h184l57 227h-369l27 107h850q19 0 34 -10.5t25 -26t13.5 -34.5t-0.5 -37l-15 -58q-5 -18 -18 -37.5t-30.5 -35t-38 -26t-39.5 -10.5h-226l27 108h127l15 60h-184l-57 -227h369
l-27 -108h-850q-19 0 -34 10.5t-25 26t-13.5 35t1.5 37.5zM717 154h1l23 -29h-31zM464 290h27l-7 -31l-21 27z" />
    <glyph glyph-name="FL00E7h" unicode="&#xe7;" horiz-adv-x="619" 
d="M680 290l33 132l-24 32l2 6h-426q-23 0 -46 -12t-43.5 -30t-35 -40t-19.5 -42l-56 -225q-8 -29 2.5 -60.5t34.5 -48.5l11 -14q11 -15 26 -24t35 -9h36l-33 -133h6l24 -32h91q22 0 44.5 11.5t42 28.5t33.5 38t19 41l12 46h148l33 132l-24 32l1 6h-280l41 165h312zM400 -56
q-5 -18 -18 -37t-30.5 -35t-38 -26t-39.5 -10h-79l27 107h65l14 59h-151q-19 0 -34 10.5t-24.5 26t-13 35t1.5 37.5l56 225q4 18 17 37.5t31 35t38.5 26t38.5 10.5h411l-27 -108h-312l-57 -227h312l-27 -108h-147z" />
    <glyph glyph-name="FL00E8h" unicode="&#xe8;" horiz-adv-x="689" 
d="M546 613h-192l64 -122h4l24 -31h-180q-23 0 -46.5 -12t-43.5 -30t-35 -40t-20 -42l-56 -225q-8 -29 2.5 -60.5t34.5 -48.5l11 -14q11 -15 26.5 -24t34.5 -9h480l33 132l-24 32l1 6h-48q20 4 40 16.5t37 29t29 35.5t17 37l14 58q6 23 0.5 46.5t-19.5 41.5l-10 13
q-10 24 -29.5 41t-47.5 17h-47l-31 116l-21 26v-1zM700 278q-5 -18 -18 -37.5t-30.5 -35t-38 -26t-39.5 -10.5h-226l27 108h128l15 60h-185l-57 -227h369l-27 -108h-467q-19 0 -34 10.5t-25 26t-13.5 35t1.5 37.5l56 225q4 18 17 37.5t31 35t38.5 26t39.5 10.5h381
q19 0 34.5 -10.5t25 -26t13 -35t-0.5 -37.5zM430 505l-49 93h151l25 -93h-127zM335 155h1l22 -30h-31z" />
    <glyph glyph-name="FL00E9h" unicode="&#xe9;" horiz-adv-x="689" 
d="M347 491h9l24 -31h-114q-23 0 -46.5 -12t-43.5 -30t-35 -40t-20 -42l-56 -225q-8 -29 2.5 -60.5t34.5 -48.5l11 -14q11 -15 26.5 -24t34.5 -9h480l33 132l-24 32l1 6h-48q20 4 40 16.5t37 29t29 35.5t17 37l14 58q6 23 0.5 46.5t-19.5 41.5l-10 13q-10 24 -29.5 41
t-47.5 17h-111l115 114l-24 33l7 6h-191zM700 278q-5 -18 -18 -37.5t-30.5 -35t-38 -26t-39.5 -10.5h-226l27 108h128l15 60h-185l-57 -227h369l-27 -108h-467q-19 0 -34 10.5t-25 26t-13.5 35t1.5 37.5l56 225q4 18 17 37.5t31 35t38.5 26t39.5 10.5h381q19 0 34.5 -10.5
t25 -26t13 -35t-0.5 -37.5zM376 505l71 93h151l-94 -93h-128zM335 155h1l22 -30h-31z" />
    <glyph glyph-name="FL00EAh" unicode="&#xea;" horiz-adv-x="689" 
d="M113 -12q11 -15 26.5 -24t34.5 -9h480l33 132l-24 32l1 6h-48q20 4 40 16.5t37 29t29 35.5t17 37l14 58q6 23 0.5 46.5t-19.5 41.5l-10 13q-9 21 -25.5 36.5t-39.5 20.5h49l-54 116l-18 24l-5 14h-274l-118 -122h10l24 -31h-7q-23 0 -46.5 -12t-43.5 -30t-35 -40t-20 -42
l-56 -225q-8 -29 2.5 -60.5t34.5 -48.5zM700 278q-5 -18 -18 -37.5t-30.5 -35t-38 -26t-39.5 -10.5h-226l27 108h128l15 60h-185l-57 -227h369l-27 -108h-467q-19 0 -34 10.5t-25 26t-13.5 35t1.5 37.5l56 225q4 18 17 37.5t31 35t38.5 26t39.5 10.5h381q19 0 34.5 -10.5
t25 -26t13 -35t-0.5 -37.5zM484 573l-61 -68h-151l89 93h258l42 -93h-150zM498 491h5l24 -31h-73l39 42zM335 155h1l22 -30h-31z" />
    <glyph glyph-name="FL00EBh" unicode="&#xeb;" horiz-adv-x="689" 
d="M113 -12q11 -15 26.5 -24t34.5 -9h480l33 132l-24 32l1 6h-48q20 4 40 16.5t37 29t29 35.5t17 37l14 58q6 23 0.5 46.5t-19.5 41.5l-10 13q-9 21 -25.5 36.5t-39.5 20.5h43l29 116l-24 32l2 6h-186l-31 -122h6l24 -31h-63l28 115l-24 32l2 6h-186l-31 -122h6l23 -31h-11
q-23 0 -46.5 -12t-43.5 -30t-35 -40t-20 -42l-56 -225q-8 -29 2.5 -60.5t34.5 -48.5zM700 278q-5 -18 -18 -37.5t-30.5 -35t-38 -26t-39.5 -10.5h-226l27 108h128l15 60h-185l-57 -227h369l-27 -108h-467q-19 0 -34 10.5t-25 26t-13.5 35t1.5 37.5l56 225q4 18 17 37.5
t31 35t38.5 26t39.5 10.5h381q19 0 34.5 -10.5t25 -26t13 -35t-0.5 -37.5zM290 598h156l-23 -93h-156zM534 598h156l-23 -93h-156zM335 155h1l22 -30h-31z" />
    <glyph glyph-name="FL00ECh" unicode="&#xec;" horiz-adv-x="306" 
d="M248 505h126l-24 93h-150zM52 2h196l111 442h-196zM365 601v1l21 -26l32 -117h-41l-1 -6l24 -32l-116 -466h-221l-23 32h-6l117 472h113l-24 32h-4l-63 122h191z" />
    <glyph glyph-name="FL00EDh" unicode="&#xed;" horiz-adv-x="306" 
d="M303 505l93 93h-150l-70 -93h127zM52 2h196l111 442h-196zM242 613h190l-7 -6l25 -33l-118 -115h45l-1 -6l24 -32l-116 -466h-221l-23 32h-6l117 472h29l-24 32h-9z" />
    <glyph glyph-name="FL00EEh" unicode="&#xee;" horiz-adv-x="307" 
d="M302 502l-40 -43h74l-24 32h-5zM320 505h151l-43 93h-257l-89 -93h151l60 68zM52 2h197l111 442h-197zM151 459h-69l-24 32h-10l119 122h273l6 -14l18 -24l53 -116h-139l-1 -6l24 -32l-116 -466h-221l-24 32h-6z" />
    <glyph glyph-name="FL00EFh" unicode="&#xef;" horiz-adv-x="307" 
d="M315 485h156l23 93h-156zM71 485h157l23 93h-157zM52 2h197l111 442h-197zM146 439h-64l-24 32h-6l31 122h186l-2 -6l24 -32l-24 -96h44l-9 12h-6l31 122h186l-2 -6l24 -32l-29 -116h-119l14 -18l-116 -466h-221l-24 32h-6z" />
    <glyph glyph-name="FL00F0h" unicode="&#xf0;" 
d="M453 663l-17 -70h-238l-34 -137h6l24 -32h200l-10 -37h6l22 -28h-171q-23 0 -46.5 -12t-43.5 -30t-35 -40t-20 -42l-31 -124q-8 -29 2.5 -60.5t34.5 -48.5l11 -14q11 -15 26.5 -24t35.5 -9h498q22 0 45 11.5t42.5 29.5t34 39t19.5 41l89 359q6 23 0.5 46.5t-19.5 41.5
l-10 12q-10 24 -29.5 41t-47.5 17h-191l8 32l-24 32l1 6h-138zM793 578q19 0 34.5 -10t25 -26t13 -35t-0.5 -37l-89 -359q-5 -18 -18 -37.5t-31 -35t-38.5 -26t-39.5 -10.5h-498q-19 0 -34 10.5t-25 26t-13.5 35t1.5 37.5l31 124q4 18 17 37.5t31 35t38.5 26t39.5 10.5h343
l-27 -108h-245l-32 -126h302l90 361h-140l-17 -69h-108l17 69h-238l27 107h238l18 70h108l-18 -70h238zM343 189h240l-16 -64h-240zM599 359h-51l16 65h78l-25 -98l-20 27z" />
    <glyph glyph-name="FL00F1h" unicode="&#xf1;" horiz-adv-x="697" 
d="M64 -45h221l83 335h131l-75 -303h6l24 -32h221l86 346q6 23 0.5 46.5t-19.5 41.5l-10 13q-9 21 -26 37t-40 20l112 115l-25 33l7 6h-180l-43 -48l-4 10l-19 24l-5 14h-191l-118 -122h10l24 -31h-82l-118 -473h6zM526 337h-193l-84 -335h-197l111 443h488q19 0 34.5 -10.5
t25 -26t13 -35t-0.5 -37.5l-84 -334h-197zM374 505h-141l89 93h175l30 -64l58 64h140l-89 -93h-174l-30 64zM450 491h4l24 -31h-73l39 42z" />
    <glyph glyph-name="FL00F2h" unicode="&#xf2;" horiz-adv-x="689" 
d="M557 505l-25 93h-151l49 -93h127zM327 125h123l41 165h-123zM276 110l57 227h185l-57 -227h-185zM715 336q4 18 0.5 37.5t-13 35t-25 26t-34.5 10.5h-381q-19 0 -39.5 -10.5t-38.5 -26t-31 -35t-17 -37.5l-56 -225q-5 -18 -1.5 -37.5t13.5 -35t25 -26t34 -10.5h381
q19 0 39.5 10.5t38.5 26t31 35t18 37.5zM548 601v1l21 -26l31 -116h47q28 0 47.5 -17t29.5 -41l10 -13q14 -18 19.5 -41.5t-0.5 -46.5l-56 -225q-5 -20 -19.5 -41t-34 -39t-42.5 -29.5t-45 -11.5h-382q-19 0 -34.5 9t-26.5 24l-11 14q-24 17 -34.5 48.5t-2.5 60.5l56 225
q5 20 20 42t35 40t43.5 30t46.5 12h180l-24 31h-4l-64 122h192z" />
    <glyph glyph-name="FL00F3h" unicode="&#xf3;" horiz-adv-x="689" 
d="M376 505h128l94 93h-151zM326 125h123l41 165h-123zM275 110l57 227h185l-57 -227h-185zM79 111q-5 -18 -1.5 -37.5t13.5 -35t25 -26t34 -10.5h381q19 0 39.5 10.5t38.5 26t31 35t18 37.5l56 225q4 18 0.5 37.5t-13 35t-25 26t-34.5 10.5h-381q-19 0 -39.5 -10.5
t-38.5 -26t-31 -35t-17 -37.5zM443 613h191l-7 -6l24 -33l-115 -114h110q28 0 47.5 -17t29.5 -41l10 -13q14 -18 19.5 -41.5t-0.5 -46.5l-56 -225q-5 -20 -19.5 -41t-34 -39t-42.5 -29.5t-45 -11.5h-382q-19 0 -34.5 9t-26.5 24l-11 14q-24 17 -34.5 48.5t-2.5 60.5l56 225
q5 20 20 42t35 40t43.5 30t46.5 12h115l-24 31h-9z" />
    <glyph glyph-name="FL00F4h" unicode="&#xf4;" horiz-adv-x="689" 
d="M493 502l-39 -42h73l-24 31h-5zM327 125h123l41 165h-123zM511 505h150l-42 93h-258l-89 -93h151l61 68zM276 110l57 227h185l-57 -227h-185zM715 336q4 18 0.5 37.5t-13 35t-25 26t-34.5 10.5h-381q-19 0 -39.5 -10.5t-38.5 -26t-31 -35t-17 -37.5l-56 -225
q-5 -18 -1.5 -37.5t13.5 -35t25 -26t34 -10.5h381q19 0 39.5 10.5t38.5 26t31 35t18 37.5zM102 2q-24 17 -34.5 48.5t-2.5 60.5l56 225q5 20 20 42t35 40t43.5 30t46.5 12h7l-24 31h-10l118 122h274l5 -14l18 -24l54 -116h-49q23 -5 39.5 -20.5t25.5 -36.5l10 -13
q14 -18 19.5 -41.5t-0.5 -46.5l-56 -225q-5 -20 -19.5 -41t-34 -39t-42.5 -29.5t-45 -11.5h-382q-19 0 -34.5 9t-26.5 24z" />
    <glyph glyph-name="FL00F5h" unicode="&#xf5;" horiz-adv-x="689" 
d="M113 -12q11 -15 26.5 -24t34.5 -9h382q22 0 45 11.5t42.5 29.5t34 39t19.5 41l56 225q6 23 0.5 46.5t-19.5 41.5l-10 13q-9 21 -25.5 36.5t-39.5 20.5h5l112 115l-25 33l7 6h-180l-43 -48l-4 10l-19 24l-5 14h-191l-118 -122h10l24 -32h19q-21 -4 -42.5 -17t-39.5 -30
t-31 -37t-17 -39l-56 -225q-8 -29 2.5 -60.5t34.5 -48.5zM659 111q-5 -18 -18 -37.5t-31 -35t-38.5 -26t-39.5 -10.5h-381q-19 0 -34 10.5t-25 26t-13.5 35t1.5 37.5l56 225q4 18 17 37.5t31 35t38.5 26t39.5 10.5h381q19 0 34.5 -10.5t25 -26t13 -35t-0.5 -37.5zM518 337
h-185l-57 -227h185zM372 505h-141l89 93h175l30 -64l58 64h140l-89 -93h-174l-30 64zM368 290h123l-41 -165h-123zM448 491h4l24 -31h-73l39 42z" />
    <glyph glyph-name="FL00F6h" unicode="&#xf6;" horiz-adv-x="689" 
d="M511 505h156l23 93h-156zM267 505h156l23 93h-156zM327 125h123l41 165h-123zM333 337h185l-57 -227h-185zM715 336q4 18 0.5 37.5t-13 35t-25 26t-34.5 10.5h-381q-19 0 -39.5 -10.5t-38.5 -26t-31 -35t-17 -37.5l-56 -225q-5 -18 -1.5 -37.5t13.5 -35t25 -26t34 -10.5
h381q19 0 39.5 10.5t38.5 26t31 35t18 37.5zM102 2q-24 17 -34.5 48.5t-2.5 60.5l56 225q5 20 20 42t35 40t43.5 30t46.5 12h11l-23 31h-6l31 122h186l-2 -6l24 -32l-28 -115h63l-24 31h-6l31 122h186l-2 -6l24 -32l-29 -116h-43q23 -5 39.5 -20.5t25.5 -36.5l10 -13
q14 -18 19.5 -41.5t-0.5 -46.5l-56 -225q-5 -20 -19.5 -41t-34 -39t-42.5 -29.5t-45 -11.5h-382q-19 0 -34.5 9t-26.5 24z" />
    <glyph glyph-name="FL00F7h" unicode="&#xf7;" horiz-adv-x="541" 
d="M296 380h132l27 108h-132zM224 92h132l27 107h-132zM111 236h431l27 107h-431zM288 358l-5 7h-6l34 138h162l-1 -6l23 -32l-27 -107h119l-1 -6l24 -31l-33 -132h-163l9 -13l-33 -131h-155l-24 32h-6l28 112h-111l-24 32h-6l34 137h162z" />
    <glyph glyph-name="FL00F8h" unicode="&#xf8;" horiz-adv-x="689" 
d="M113 -12q11 -15 26.5 -24t34.5 -9h382q22 0 45 11.5t42.5 29.5t34 39t19.5 41l56 225q6 23 0.5 46.5t-19.5 40.5l-10 13q-10 24 -30 41t-48 17h-381q-23 0 -46 -12t-43 -30t-35 -40t-20 -41l-56 -225q-8 -29 2.5 -60.5t34.5 -48.5zM659 111q-5 -18 -18 -37.5t-31 -35
t-38.5 -26t-39.5 -10.5h-381q-19 0 -34 10.5t-25 26t-13.5 35t1.5 37.5l56 225q4 18 17 37t31 34.5t38.5 26t39.5 10.5h381q19 0 34 -10.5t25 -26t13.5 -34.5t-0.5 -37zM461 110l44 173l-165 -173h121zM332 337l-43 -174l164 174h-121zM388 290l-29 -32l8 32h21zM428 125
l29 29l-7 -29h-22z" />
    <glyph glyph-name="FL00F9h" unicode="&#xf9;" horiz-adv-x="689" 
d="M430 505h127l-25 93h-151zM532 2q19 0 39.5 10.5t38.5 26t31 35t18 37.5l83 334h-197l-84 -335h-185l84 335h-197l-83 -334q-5 -18 -1.5 -37.5t13.5 -35t25 -26t34 -10.5h381zM548 601v1l21 -26l31 -116h161l-2 -6l24 -32l-86 -346q-5 -20 -19.5 -41t-34 -39t-42.5 -29.5
t-45 -11.5h-382q-19 0 -34.5 9t-26.5 24l-11 14q-24 17 -34.5 48.5t-2.5 60.5l87 349h227l-2 -6l24 -32l-74 -297h123l83 334h-87l-24 32h-4l-64 122h192z" />
    <glyph glyph-name="FL00FAh" unicode="&#xfa;" horiz-adv-x="689" 
d="M376 505h128l94 93h-151zM532 2q19 0 39.5 10.5t38.5 26t31 35t18 37.5l83 334h-197l-84 -335h-185l84 335h-197l-83 -334q-5 -18 -1.5 -37.5t13.5 -35t25 -26t34 -10.5h381zM443 613h191l-7 -6l24 -33l-115 -114h225l-2 -6l24 -32l-86 -346q-5 -20 -19.5 -41t-34 -39
t-42.5 -29.5t-45 -11.5h-382q-19 0 -34.5 9t-26.5 24l-11 14q-24 17 -34.5 48.5t-2.5 60.5l87 349h227l-2 -6l24 -32l-74 -297h123l83 334h-153l-24 32h-9z" />
    <glyph glyph-name="FL00FBh" unicode="&#xfb;" horiz-adv-x="689" 
d="M511 505h150l-42 93h-258l-89 -93h151l61 68zM493 502l-40 -43h-75l-1 -5l24 -32l-74 -297h123l83 334h-6l-24 32h-5zM532 2q19 0 39.5 10.5t38.5 26t31 35t18 37.5l83 334h-197l-84 -335h-185l84 335h-197l-83 -334q-5 -18 -1.5 -37.5t13.5 -35t25 -26t34 -10.5h381z
M152 460h121l-24 31h-10l118 122h274l5 -14l18 -24l54 -115h53l-2 -6l24 -32l-86 -346q-5 -20 -19.5 -41t-34 -39t-42.5 -29.5t-45 -11.5h-382q-19 0 -34.5 9t-26.5 24l-11 14q-24 17 -34.5 48.5t-2.5 60.5z" />
    <glyph glyph-name="FL00FCh" unicode="&#xfc;" horiz-adv-x="689" 
d="M511 505h156l23 93h-156zM267 505h156l23 93h-156zM532 2q19 0 39.5 10.5t38.5 26t31 35t18 37.5l83 334h-197l-84 -335h-185l84 335h-197l-83 -334q-5 -18 -1.5 -37.5t13.5 -35t25 -26t34 -10.5h381zM498 491h-6l31 122h186l-2 -6l24 -32l-28 -115h58l-2 -6l24 -32
l-86 -346q-5 -20 -19.5 -41t-34 -39t-42.5 -29.5t-45 -11.5h-382q-19 0 -34.5 9t-26.5 24l-11 14q-24 17 -34.5 48.5t-2.5 60.5l87 349h125l-23 31h-6l31 122h186l-2 -6l24 -32l-29 -116h-80l-1 -5l24 -32l-74 -297h123l83 334h-11z" />
    <glyph glyph-name="FL00FDh" unicode="&#xfd;" horiz-adv-x="689" 
d="M376 506h128l94 93h-151zM742 445h-197l-84 -335h-185l84 335h-197l-83 -334q-5 -18 -1.5 -37.5t13.5 -35t25 -26t34 -10.5h283l-12 -50h-303l-27 -108h401q19 0 39.5 10.5t38 26t30.5 35t18 37.5zM443 613h191l-6 -5l23 -33l-115 -115h225l-2 -6l24 -32l-125 -504
q-5 -20 -19.5 -41t-34.5 -39t-43 -29.5t-45 -11.5h-413l-24 32h-6l35 138h27q-8 5 -13 10.5t-9 10.5l-11 14q-24 17 -34.5 48.5t-2.5 60.5l87 349h227l-2 -6l24 -32l-74 -297h123l83 334h-153l-24 32h-9z" />
    <glyph glyph-name="FL00FEh" unicode="&#xfe;" horiz-adv-x="689" 
d="M435 556l-25 31l2 6h-227l-185 -743h6l24 -32h221l42 169h1l24 -32h238q22 0 45 11.5t42.5 29.5t34 39t19.5 41l56 225q6 23 0.5 46.5t-19.5 41.5l-10 13q-10 24 -29.5 41t-47.5 17h-236zM659 111q-5 -18 -18 -37.5t-31 -35t-38.5 -26t-39.5 -10.5h-226l27 108h128
l57 227h-185l-118 -472h-197l178 714h197l-33 -134h283q19 0 34.5 -10.5t25 -26t13 -35t-0.5 -37.5zM368 290h123l-41 -165h-123z" />
    <glyph glyph-name="FL00FFh" unicode="&#xff;" horiz-adv-x="689" 
d="M511 506h156l23 93h-156zM267 506h156l23 93h-156zM742 445h-197l-84 -335h-185l84 335h-197l-83 -334q-5 -18 -1.5 -37.5t13.5 -35t25 -26t34 -10.5h283l-12 -50h-303l-27 -108h401q19 0 39.5 10.5t38 26t30.5 35t18 37.5zM498 491h-6l31 122h186l-1 -5l24 -32l-29 -116
h58l-2 -6l24 -32l-125 -504q-5 -20 -19.5 -41t-34.5 -39t-43 -29.5t-45 -11.5h-413l-24 32h-6l35 138h27q-8 5 -13 10.5t-9 10.5l-11 14q-24 17 -34.5 48.5t-2.5 60.5l87 349h125l-23 31h-6l31 122h186l-1 -5l24 -32l-30 -117h-80l-1 -5l24 -32l-74 -297h123l83 334h-11z
" />
    <glyph glyph-name="FL0152h" unicode="&#x152;" horiz-adv-x="1274" 
d="M1269 189l33 132l-24 32l2 6h-357l16 65h430l32 131l-24 32l2 6h-1080q-23 0 -46.5 -12t-43.5 -30t-35 -40t-20 -41l-89 -359q-8 -29 2.5 -60.5t34.5 -48.5l11 -14q11 -15 26.5 -24t35.5 -9h1077l33 132l-24 32l1 6h-398l16 64h389zM151 2q-19 0 -34 10.5t-25 26
t-13.5 35t1.5 37.5l89 359q4 18 17 37t31 34.5t38.5 26t39.5 10.5h1065l-27 -107h-430l-31 -127h389l-27 -108h-389l-32 -126h430l-27 -108h-1065zM705 471h-338l-90 -361h338zM403 424h276l-75 -299h-276z" />
    <glyph glyph-name="FL0153h" unicode="&#x153;" horiz-adv-x="1104" 
d="M113 -12q11 -15 26.5 -24t35.5 -9h894l33 132l-24 32l1 6h-48q20 4 40 16.5t37 29t29 35.5t17 37l14 58q6 23 0.5 46.5t-19.5 40.5l-10 13q-10 24 -30 41t-48 17h-796q-23 0 -46 -12t-43 -30t-35 -40t-20 -41l-56 -225q-8 -29 2.5 -60.5t34.5 -48.5zM1115 278
q-5 -18 -18 -37.5t-30.5 -35t-38 -26t-39.5 -10.5h-226l27 108h127l15 60h-184l-57 -227h369l-27 -108h-882q-19 0 -34 10.5t-25 26t-13.5 35t1.5 37.5l56 225q4 18 17 37t31 34.5t38.5 26t39.5 10.5h796q19 0 34 -10.5t25 -26t13.5 -34.5t-0.5 -37zM550 337h-216l-57 -227
h216zM368 290h155l-41 -165h-155zM749 154h1l23 -29h-31z" />
    <glyph glyph-name="FL0160h" unicode="&#x160;" 
d="M541 732h-152l43 -93h258l89 93h-150l-61 -68zM610 236l-32 -126h-499l-27 -108h597q19 0 39.5 10.5t38.5 26t31 35t18 37.5l31 124q4 18 0.5 37.5t-13 35t-25 26t-34.5 10.5h-400l31 127h499l27 108h-597q-19 0 -39.5 -10.5t-38.5 -26t-31 -35t-17 -37.5l-31 -125
q-5 -18 -1.5 -37.5t13.5 -35t25.5 -26t34.5 -10.5h400zM559 733l18 -24l3 -11l43 49h190l-6 -6l25 -33l-112 -114h191l-1 -6l24 -32l-33 -132h-499l-16 -65h353q28 0 47.5 -17t29.5 -41l10 -13q14 -18 19 -41.5t0 -46.5l-31 -124q-5 -20 -19.5 -41t-34 -39t-42.5 -29.5
t-45 -11.5h-609l-24 32h-6l34 138h499l16 65h-350q-39 0 -62 32l-10 14q-24 17 -35 48.5t-3 60.5l31 125q5 20 20 42t35 40t43.5 30t46.5 12h149l-23 30h-4l-57 123h189z" />
    <glyph glyph-name="FL0161h" unicode="&#x161;" horiz-adv-x="689" 
d="M447 598h-151l43 -93h258l88 93h-150l-61 -68zM673 168q4 18 0.5 37.5t-13 35t-25 26t-34.5 10.5h-283l15 60h382l27 108h-480q-19 0 -39.5 -10.5t-38.5 -26t-31 -35t-17 -37.5l-15 -58q-5 -18 -1.5 -37.5t13.5 -35t25.5 -26t34.5 -10.5h283l-15 -59h-382l-27 -108h480
q19 0 39.5 10.5t38.5 26t31 35t18 37.5zM465 599l18 -24l4 -11l43 49h190l-7 -6l25 -33l-111 -114h134l-2 -6l24 -32l-33 -132h-129q22 -5 37 -20.5t24 -35.5l10 -13q14 -18 19.5 -41t-0.5 -46l-14 -58q-5 -20 -19.5 -41t-34 -39t-42.5 -29.5t-45 -11.5h-492l-24 32h-6
l34 138h129q-27 6 -42 31l-11 13q-24 17 -34.5 48.5t-3.5 60.5l15 58q5 20 20 42t35 40t43.5 30t46.5 12h89l-24 31h-4l-56 122h189z" />
    <glyph glyph-name="FL0178h" unicode="&#x178;" horiz-adv-x="896" 
d="M669 593h169l-253 -192l-151 192h171l29 116l-24 32l1 6h-187l-30 -123h6l23 -30h-278l254 -338l-67 -269h6l24 -32h222l68 275l406 325l-24 33l7 6h-192l29 115l-23 32l1 6h-187l-30 -123h6zM416 263l-238 316h244l158 -199l262 199h158l-384 -308l-68 -269h-198z
M436 732h157l-24 -93h-157zM681 732h157l-24 -93h-157z" />
    <glyph glyph-name="FL017Dh" unicode="&#x17d;" 
d="M535 732h-152l43 -93h258l89 93h-150l-61 -68zM79 110l-27 -108h646l27 108h-381l459 351l29 118h-636l-27 -108h381zM553 733l18 -24l3 -11l43 49h190l-6 -6l25 -33l-112 -114h137l-1 -6l24 -32l-34 -136l-386 -295h290l-1 -6l24 -32l-33 -132h-670l-24 32h-6l32 130
l400 307h-285l-24 32h-6l34 138h257l-23 30h-4l-57 123h189z" />
    <glyph glyph-name="FL017Eh" unicode="&#x17e;" horiz-adv-x="635" 
d="M419 598h-151l43 -93h257l89 93h-150l-61 -68zM79 110l-27 -108h525l27 108h-279l336 227l27 108h-525l-27 -108h273zM437 599l18 -24l4 -11l43 49h190l-7 -6l25 -33l-111 -114h108l-2 -6l24 -32l-31 -127l-254 -170h179l-1 -6l24 -32l-33 -132h-549l-24 32h-6l32 131
l249 172h-168l-24 32h-6l35 138h175l-24 31h-4l-56 122h189z" />
    <glyph glyph-name="FL0192h" unicode="&#x192;" horiz-adv-x="619" 
d="M17 -81h6l24 -32h221l44 177h271l33 131l-24 32l1 6h-239l14 57h312l33 132l-24 31l1 6h-426q-23 0 -46 -12t-43 -30t-34.5 -40t-19.5 -41zM136 336q4 18 17 37t31 35t38.5 26t38.5 10h411l-27 -107h-312l-30 -119h271l-26 -107h-271l-44 -177h-197z" />
    <glyph glyph-name="FL02C6h" unicode="&#x2c6;" horiz-adv-x="462" 
d="M415 574h150l-43 92h-256l-90 -92h151l61 68zM398 572l-40 -44h-180l-24 32h-10l118 121h272l6 -14l19 -23l54 -116h-181l-24 32h-5z" />
    <glyph glyph-name="FL02DCh" unicode="&#x2dc;" horiz-adv-x="542" 
d="M393 559h4l24 -32h188l112 115l-25 32l7 6h-180l-43 -47l-4 10l-19 23l-5 14h-190l-119 -121h10l24 -32h170l40 44zM317 574h-141l90 91h174l30 -63l58 63h140l-89 -91h-174l-30 63z" />
    <glyph glyph-name="FL2013h" unicode="&#x2013;" horiz-adv-x="446" 
d="M92 219h6l24 -31h360l32 130l-24 32l2 6h-366zM137 341h336l-27 -107h-336z" />
    <glyph glyph-name="FL2014h" unicode="&#x2014;" horiz-adv-x="541" 
d="M126 356l-34 -137h6l24 -31h455l32 130l-24 32l2 6h-461zM137 341h431l-27 -107h-431z" />
    <glyph glyph-name="FL2018h" unicode="&#x2018;" horiz-adv-x="241" 
d="M263 575q-35 0 -58 -22.5t-30 -49.5l-27 -109h132l45 181h-62zM344 590l-1 -6l24 -32l-51 -205h-156l-24 32h-6l31 124q4 16 13 31.5t22.5 28t31.5 20t39 7.5h77z" />
    <glyph glyph-name="FL2019h" unicode="&#x2019;" horiz-adv-x="241" 
d="M212 394q34 0 57 22.5t30 49.5l27 109h-132l-45 -181h63zM137 379h-6l53 211h161l-1 -6l24 -32l-31 -121q-4 -15 -12.5 -30t-21.5 -27t-30 -19.5t-38 -7.5h-74z" />
    <glyph glyph-name="FL201Ah" unicode="&#x201a;" horiz-adv-x="240" 
d="M96 -69q34 0 57 22.5t30 49.5l26 106h-131l-44 -178h62zM22 -84h-6l52 208h160l-2 -6l24 -32l-29 -118q-4 -15 -13 -30t-22 -27t-30 -19.5t-38 -7.5h-73z" />
    <glyph glyph-name="FL201Ch" unicode="&#x201c;" horiz-adv-x="428" 
d="M450 575q-34 0 -57 -22.5t-30 -49.5l-27 -109h132l45 181h-63zM264 575q-34 0 -57 -22.5t-30 -49.5l-27 -109h132l45 181h-63zM532 590l-1 -6l24 -32l-51 -205h-156l-23 30l-7 -30h-156l-25 32h-6l31 124q4 16 13.5 31.5t23 28t31 20t38.5 7.5h78l-1 -6l24 -32l-3 -11
q14 20 36.5 34.5t51.5 14.5h78z" />
    <glyph glyph-name="FL201Dh" unicode="&#x201d;" horiz-adv-x="428" 
d="M212 394q35 0 58 22.5t30 49.5l27 109h-132l-45 -181h62zM398 394q35 0 58 22.5t30 49.5l27 109h-132l-45 -181h62zM137 379h-6l53 211h162l-1 -6l18 -24l7 30h162l-1 -6l24 -32l-31 -121q-4 -15 -12.5 -30t-21.5 -27t-30 -19.5t-38 -7.5h-74l-25 32h-6l4 13
q-14 -20 -36 -32.5t-49 -12.5h-74z" />
    <glyph glyph-name="FL201Eh" unicode="&#x201e;" horiz-adv-x="426" 
d="M96 -69q35 0 58 22.5t30 49.5l26 106h-131l-44 -178h61zM281 -69q35 0 58 22.5t30 49.5l26 106h-131l-44 -178h61zM22 -84h-6l52 208h161l-2 -6l18 -24l8 30h161l-2 -6l24 -32l-29 -118q-4 -15 -13 -30t-22 -27t-30 -19.5t-38 -7.5h-73l-24 32h-6l4 15
q-14 -20 -36.5 -33.5t-49.5 -13.5h-73z" />
    <glyph glyph-name="FL2020h" unicode="&#x2020;" horiz-adv-x="535" 
d="M147 -13h6l24 -32h221l87 349h115l33 132l-24 32l1 6h-83l20 81l-24 32l2 6h-227l-30 -119h-113l-34 -138h6l24 -32h75zM253 351h-113l26 108h113l30 119h198l-30 -119h114l-26 -108h-114l-88 -349h-198z" />
    <glyph glyph-name="FL2021h" unicode="&#x2021;" horiz-adv-x="535" 
d="M147 -13h6l24 -32h221l30 120h115l32 131l-24 32l2 6h-83l15 60h115l33 132l-24 32l1 6h-83l20 81l-24 32l2 6h-227l-30 -119h-113l-34 -138h6l24 -32h75l-15 -60h-113l-34 -137h6l24 -32h75zM195 122h-113l27 107h113l31 122h-113l26 108h113l30 119h198l-30 -119h114
l-26 -108h-114l-31 -122h114l-27 -107h-114l-30 -120h-198z" />
    <glyph glyph-name="FL2022h" unicode="&#x2022;" horiz-adv-x="689" 
d="M129 54q11 -15 26.5 -24t34.5 -9h382q22 0 45 11.5t42.5 29.5t34 39t19.5 40l57 226q5 22 -0.5 45.5t-19.5 41.5l-10 13q-10 24 -29.5 41t-47.5 17h-381q-23 0 -46.5 -12t-43.5 -30t-35 -40t-20 -42l-56 -225q-8 -29 3 -60t35 -48zM675 176q-5 -18 -18 -37t-30.5 -35
t-38 -26t-39.5 -10h-381q-19 0 -34.5 10t-25.5 26t-13.5 35t1.5 37l56 225q4 18 17 37.5t31 35t38.5 26t39.5 10.5h381q19 0 34.5 -10.5t25 -26t13 -35t-0.5 -37.5z" />
    <glyph glyph-name="FL2026h" unicode="&#x2026;" horiz-adv-x="658" 
d="M468 2h132l27 107h-132zM260 2h132l27 107h-132zM52 2h131l27 107h-131zM456 -13h-5l34 137h161l-2 -6l24 -32l-32 -130h-156zM248 -13h-6l34 137h162l-2 -6l24 -32l-32 -130h-156zM40 -13h-6l34 137h161l-2 -6l24 -32l-32 -130h-155z" />
    <glyph glyph-name="FL2030h" unicode="&#x2030;" horiz-adv-x="1417" 
d="M568 489q6 27 -10 48l-14 19l-1 -1q-4 16 -16 27t-29 11h-249q-14 0 -27 -6.5t-24 -17t-19 -22.5t-11 -23l-45 -179q-5 -17 2 -35.5t23 -27.5h-1l15 -20q15 -18 35 -18h241l-271 -257h11l24 -32h189l280 264l-41 -163q-5 -17 2 -35.5t23 -27.5h-1l15 -20q15 -18 35 -18
h250q20 0 39 15.5t30 32.5q4 -5 12 -10h-1l15 -20q15 -18 35 -18h250q13 0 25.5 6.5t23 16t18 21t10.5 22.5l45 179q6 27 -10 48l-14 19l-1 -1q-4 16 -16 27t-29 11h-250q-21 0 -42 -16t-32 -36l-10 15l-1 -1q-4 16 -16 27t-29 11h-248l266 250l-25 33l7 6h-199l-279 -264z
M1373 56q-6 -18 -24.5 -36t-38.5 -18h-250q-20 0 -29.5 18t-4.5 36l45 179q5 18 23 36t38 18h250q20 0 30 -18t6 -36zM993 56q-6 -18 -24.5 -36t-38.5 -18h-250q-20 0 -30 18t-5 36l45 179q5 18 23.5 36t38.5 18h250q20 0 30 -18t6 -36zM485 345q-5 -18 -23.5 -36t-38.5 -18
h-249q-20 0 -30 18t-6 36l45 179q5 18 23.5 36t38.5 18h249q20 0 30 -18t6 -36zM811 578h158l-609 -576h-158zM261 367h114l33 136h-114zM1147 78h114l34 136h-114zM767 78h114l34 136h-114zM837 167h52l-19 -74h-52zM1217 167h52l-19 -74h-52zM330 457h52l-19 -75h-52z" />
    <glyph glyph-name="FL2039h" unicode="&#x2039;" horiz-adv-x="200" 
d="M226 334l38 150l-109 -66l-64 -257l76 -66l37 151l-56 44zM86 143l-11 10l68 273l143 88l-2 -10l24 -32l-45 -180l-52 -29l11 -8l-2 -5l24 -32l-45 -181l-95 82z" />
    <glyph glyph-name="FL203Ah" unicode="&#x203a;" horiz-adv-x="200" 
d="M52 65l6 5l25 -33l136 82l67 271l-24 32l1 4l-99 88l-47 -189l11 -10l18 -23l7 -6l-53 -31zM133 334l38 150l75 -66l-64 -257l-108 -66l37 151l78 44z" />
    <glyph glyph-name="FL20ACh" unicode="&#x20ac;" horiz-adv-x="866" 
d="M146 437l-34 -138h6l13 -18h-24l-34 -137h6l24 -32h100v-1q-8 -29 2.5 -60.5t33.5 -48.5l11 -14q11 -15 26.5 -24t35.5 -9h532l33 132l-24 32l1 6h-157l30 118l-18 24h24l32 132l-18 25h214l32 131l-24 32l2 6h-535q-23 0 -46 -12t-43 -30t-35 -40t-20 -41l-8 -33h-138z
M295 422l12 48q4 18 16.5 37t30.5 34.5t38.5 26t39.5 10.5h520l-27 -107h-421l-12 -49h232l-27 -108h-232l-12 -48h232l-26 -107h-232l-13 -49h421l-27 -108h-520q-19 0 -34 10.5t-24.5 26t-13 35t1.5 37.5l12 48h-138l26 107h138l12 48h-138l27 108h138z" />
    <glyph glyph-name="FL2122h" unicode="&#x2122;" horiz-adv-x="338" 
d="M196 478h6l24 -32h40l26 103h1l-18 -71h6l24 -32h34l5 21l14 -18q3 -3 12 -3q11 0 14 1.5t8 11.5l11 -13h35l36 145l-24 31l2 6h-19q-17 0 -31 -9t-31 -35l-4 6q-5 14 -19 26t-25 12l-1 -4h-1h-1l1 4h-127l-12 -47h6l23 -32h3zM323 609q2 2 4 2q5 0 7 2q5 -2 11 -12
t9 -21l-1 -7q1 -7 1.5 -13.5t0.5 -11.5v-19l-1 -2h2q7 11 11 19.5t11 22.5q16 26 27.5 35t23.5 9h4l-30 -120h-11l19 78l-3 11l-50 -82q-4 -5 -5 -6t-6 -1q-2 0 -3.5 1t-1.5 6l-10 80l-8 -9l-19 -78h-11zM240 595h-40l5 18h97l-5 -18h-41l-25 -102h-16z" />
    <glyph glyph-name="FLE003h" horiz-adv-x="940" 
d="M690 0h200v336q0 18 -8.5 37.5t-22 35.5t-32 26.5t-37.5 10.5h-252q-6 0 -16 -5.5t-20.5 -13t-19 -14.5t-12.5 -11q-4 4 -12.5 11t-19 14.5t-20.5 13t-16 5.5h-352v-446h200v336h143v-336h154v336h143v-336z" />
    </font>
</defs>
</svg>
