<?xml version="1.0" standalone="no"?>
<!DOCTYPE svg PUBLIC "-//W3C//DTD SVG 1.1//EN" "http://www.w3.org/Graphics/SVG/1.1/DTD/svg11.dtd" >
<svg xmlns="http://www.w3.org/2000/svg" xmlns:xlink="http://www.w3.org/1999/xlink" version="1.1">
<metadata>
Created by FontForge 20170731 at Wed Aug 27 17:52:36 2003
 By Aleksey,,,
Copyright (c) Typographer Mediengestaltung, 2001. All rights reserved.
</metadata>
<defs>
<font id="Canterbury-Regular" horiz-adv-x="500" >
  <font-face 
    font-family="Canterbury"
    font-weight="400"
    font-stretch="normal"
    units-per-em="1000"
    panose-1="2 0 5 4 2 0 0 2 0 4"
    ascent="800"
    descent="-200"
    x-height="493"
    cap-height="679"
    bbox="-119 -249 1415 917"
    underline-thickness="50"
    underline-position="-155"
    unicode-range="U+0005-E011"
  />
<missing-glyph 
 />
    <glyph glyph-name=".notdef" 
 />
    <glyph glyph-name=".null" horiz-adv-x="0" 
 />
    <glyph glyph-name="nonmarkingreturn" horiz-adv-x="333" 
 />
    <glyph glyph-name="breve" 
d="M391 680l-46 -1q-20 -69 -96 -69q-77 0 -93 70l-47 -1q5 -57 43.5 -88.5t96.5 -31.5q129 0 142 121z" />
    <glyph glyph-name="dotaccent" 
d="M188 632l63 -63l62 63l-62 63z" />
    <glyph glyph-name="ring" 
d="M250 524v-1q27 0 60 44q33 43 33 73q0 76 -93 105l-4 -2q-89 -45 -89 -114q0 -77 93 -105zM280 566v-1q-13 3 -17 6q-69 28 -69 78q0 5 2 13q6 25 22 41q29 0 58 -29t29 -59t-25 -49z" />
    <glyph glyph-name="hungarumlaut" unicode="&#xa;" 
d="M447 0q-57 -45 -57 -101q4 -34 33 -55q25 -19 62 -19q33 0 63 10l-1 41q-21 -7 -51 -7q-54 4 -54 50q0 40 52 80h2l1 1h-50z" />
    <glyph glyph-name="ogonek" 
d="M314 684h-85l-68 -136h56zM459 684h-85l-68 -136h56z" />
    <glyph glyph-name="caron" 
d="M405 696l-22 11l-78 -79l-146 79l-63 -64l166 -96z" />
    <glyph glyph-name="dotlessi" unicode="&#xd;" horiz-adv-x="244" 
d="M237 69l-12 17l-30 -25l-28 25v309l34 31l-83 68l-83 -65l35 -30v-256q0 -54 -32 -65v-10q22 -13 45.5 -33t49.5 -47z" />
    <glyph glyph-name="fraction" horiz-adv-x="113" 
d="M-119 10l31 -16l321 624l-31 16z" />
    <glyph glyph-name="fi" horiz-adv-x="472" 
d="M264 72l-14 13l-31 -25q-5 5 -11 10t-13 10l-26 19v322h66v53h-66v123l84 -22l16 78l-97 23q-27 -23 -52.5 -42.5t-48.5 -35.5v-124h-39v-53h39v-271v-10q-1 -51 -32 -68v-12q63 -20 120 -72zM464 69l-12 17l-30 -25l-28 25v309l34 31l-83 68l-83 -65l35 -30v-256
q0 -54 -32 -65v-10q22 -13 45.5 -33t49.5 -47zM354 580l24 -2l83 113l-83 3z" />
    <glyph glyph-name="fl" horiz-adv-x="478" 
d="M497 65l-14 16l-21 -16l-49 34v441q0 42 4 58q8 31 29 49q7 5 11.5 9.5l7.5 7.5l-5 15q-70 -18 -111 -64q-30 28 -78 49l-3 -11l-96 23q-27 -23 -52.5 -42.5t-48.5 -35.5v-124h-39v-53h39v-271v-10q-1 -51 -32 -68v-12q63 -20 120 -72l105 84l-14 13l-31 -25q-5 5 -11 10
t-13 10l-26 19v322h66v53h-66v123l84 -22l15 72q31 -16 40 -46q7 -18 7 -63v-393q0 -55 -34 -71v-16q70 -18 121 -70z" />
    <glyph glyph-name="Lslash" horiz-adv-x="601" 
d="M291 192q-35 -57 -98 -99q14 19 27.5 40t24.5 45zM47 172l15 -50l121 37q-7 -61 -95 -126q-12 -9 -21.5 -15.5t-17.5 -10.5l12 -19q130 71 255 71q97 0 191 -71l112 104l-17 18l-45 -42q-74 63 -166 63q-11 0 -22.5 -0.5t-22.5 -1.5q-50 -6 -90 -20q35 29 62.5 55
t46.5 51l141 43l-15 50l-86 -26q16 39 16 96q0 14 -1.5 36t-5.5 51q-6 58 -6 88q0 85 106 98l-11 22q-85 0 -134 -40q-52 -43 -52 -127q0 -28 6 -83q4 -28 5.5 -48.5t1.5 -34.5q0 -43 -11 -85l-52 -16q10 36 10 82q0 17 -1.5 41t-5.5 56t-5.5 56.5t-1.5 40.5q0 44 19 75
q15 26 52 57q5 4 8.5 7t5.5 5l-9 14q-54 -27 -90 -27q-24 0 -69 15q-44 15 -68 15q-42 -2 -73 -33t-31 -73q0 -14 8 -40l18 6q0 2 -1 3v3q-2 8 -2 12q0 20 12.5 34.5t31.5 14.5t42 -9q2 0 3 -1h3q31 -11 48 -11q24 0 85 14l-9 -9q-70 -70 -70 -165q0 -6 1 -18t1 -18
q-9 3 -13 3q-11 3 -26 3q-42 -1 -79 -46l12 -10q20 14 43 14q71 0 74 -90q-23 17 -49 17q-28 0 -55 -30l10 -12q13 6 27 6q32 0 50 -31z" />
    <glyph glyph-name="lslash" horiz-adv-x="227" 
d="M-15 243l15 -50l64 20v-68q0 -55 -34 -71v-16q70 -18 121 -70l95 77l-14 16l-21 -16l-49 34v144l78 24l-15 50l-63 -19v242q0 42 4 58q8 31 29 49q7 5 11.5 9.5l7.5 7.5l-5 15q-70 -18 -111 -64q-30 28 -78 49l-5 -16q31 -16 42 -46q7 -18 7 -64v-270z" />
    <glyph glyph-name="Zcaron" horiz-adv-x="508" 
d="M508 115l-17 16l-49 -61q-73 37 -149 37t-217 -56q67 63 116.5 121t83.5 113h155l15 34l-149 -1q11 17 18 30.5t12 22.5h142l16 36l-142 -1q78 154 152 260l-13 13q-83 -44 -185 -44q-79 0 -171 43l-111 -130l18 -15l56 63q61 -27 126 -27q82 0 214 56
q-57 -57 -105 -111.5t-88 -106.5h-144l-16 -36l138 -1q-9 -17 -16 -30t-12 -21h-132l-16 -34l130 -1q-20 -37 -39 -73t-39 -73q-50 -84 -99 -132l13 -18q106 47 198 47q108 0 205 -47zM428 858l-22 12l-78 -79l-146 79l-63 -65l166 -95z" />
    <glyph glyph-name="zcaron" horiz-adv-x="277" 
d="M0 402l13 -16l49 35l90 -73l-139 -147l12 -12q38 20 64 20q33 0 52 -23t19 -57q0 -47 -59 -103q-5 -2 -6 -6q-53 -47 -53 -88q0 -29 22.5 -48.5t51.5 -19.5h5q3 0 4 1q24 3 24 22q0 9 -14 12h-4q-6 0 -16.5 -3t-16.5 -3q-30 0 -33 36v3q2 20 17 34q22 20 76 51t76 54
q33 36 33 88q0 28 -10.5 51t-29.5 39t-44 25t-53 9q-3 -1 -7 -1q-4 -1 -7 0l127 134l-8 10q-2 -1 -6 -1q-3 -2 -6 0l-1 -1q-14 0 -46 23q-26 18 -54 46zM283 702l-22 12l-78 -79l-146 79l-62 -65l165 -95z" />
    <glyph glyph-name="space" unicode=" " horiz-adv-x="350" 
 />
    <glyph glyph-name="exclam" unicode="!" horiz-adv-x="286" 
d="M70 59l71 -71l71 71l-71 71zM60 539v-1q61 -155 70 -376l25 -1q2 108 19.5 200.5t51.5 173.5l-85 85z" />
    <glyph glyph-name="quotedbl" unicode="&#x22;" horiz-adv-x="334" 
d="M92 399h26l22 268h-71zM233 399h26l22 268h-71z" />
    <glyph glyph-name="numbersign" unicode="#" horiz-adv-x="620" 
d="M402 225h122l7 51h-122l15 106h122l7 51h-122l24 174h-53l-24 -174h-111l24 174h-53l-24 -174h-118l-7 -51h118l-15 -106h-118l-7 -51h118l-27 -189h53l27 189h111l-27 -189h53zM371 382l-15 -106h-111l15 106h111z" />
    <glyph glyph-name="dollar" unicode="$" horiz-adv-x="492" 
d="M30 -11q47 40 124 40h12q5 -1 8 -1h5l26 -4q12 -2 24 -6q0 -6 1 -11v-10q1 -4 1 -12v-11q0 -14 -0.5 -27t-1.5 -26l32 20l-4 68q15 -6 26 -11t19 -9l18 9q54 28 94 76q45 55 45 110q0 97 -140 163q-20 9 -35.5 15.5t-26.5 11.5v150q10 -2 17 -4t12 -4q25 -10 61 -30
q4 -3 8 -3l51 85l-24 12t-17 9q-87 34 -108 39l4 91l-32 -18v-74q-42 -9 -107 -57q-42 -42 -54 -63q-20 -35 -20 -82q0 -57 39 -85q24 -19 57 -35l30 -14t30 -15q2 -1 3 -1q2 0 4 -1q13 -7 18 -7v-143q-5 0 -8 1q-6 1 -12 1h-12q-116 0 -187 -113zM257 121v136
q134 -41 134 -123q0 -28 -18 -59q-46 27 -116 46zM229 531v-147q-8 3 -18.5 7t-21.5 9q-75 34 -75 82q0 22 17 34q24 18 58 18h10q6 0 11 -1z" />
    <glyph glyph-name="percent" unicode="%" horiz-adv-x="517" 
d="M379 -12q49 24 77 72.5t28 105.5q0 49 -32.5 89t-80.5 56q-105 -74 -105 -171q0 -107 113 -152zM416 45v-1q-45 15 -74 50t-29 80q0 41 21 77q103 -34 103 -136q0 -43 -21 -70zM82 10l31 -16l322 624l-31 16zM146 316v-1q49 26 77 74t28 105q0 49 -32 89t-80 56
q-106 -70 -106 -171q0 -108 113 -152zM183 373v-1q-43 15 -72 50q-31 37 -31 81q0 5 1 10v10q8 35 21 56q103 -34 103 -136q0 -41 -22 -70z" />
    <glyph glyph-name="ampersand" unicode="&#x26;" horiz-adv-x="723" 
d="M162 -12l204 142q49 -81 72 -102q43 -40 118 -40q99 0 138 95l-16 8q-41 -35 -92 -32q-46 3 -76 37q-17 19 -31 39t-25 42l-6 11l84 58q38 -37 81 -37q56 0 90 49l-9 11q-11 -3 -27 -3q-38 4 -81 45l-149 -104l-96 170l20 12q62 37 89 64q44 46 44 98q0 76 -89 129
l-179 -86q-17 -8 -28 -14t-16 -10q-24 -18 -24 -41q0 -27 28 -76l61 -108l-227 -148zM228 60l-117 171l146 95l99 -176zM330 399l-60 105q-2 2 -2 4q-15 22 -15 41q0 33 47 51q16 6 29 6q38 0 61.5 -28.5t25.5 -67.5v-6q-3 -52 -73 -98q-4 -2 -7.5 -4t-5.5 -3z" />
    <glyph glyph-name="quotesingle" unicode="'" horiz-adv-x="213" 
d="M92 399h26l22 268h-71z" />
    <glyph glyph-name="parenleft" unicode="(" horiz-adv-x="311" 
d="M225 -158l61 77q-29 25 -54 51q-62 60 -91 169q-20 75 -20 135v16q0 192 127 343q12 14 27 30.5t32 35.5l-11 13q-119 -92 -188 -213q-75 -132 -75 -272q0 -118 49 -217q49 -101 143 -168z" />
    <glyph glyph-name="parenright" unicode=")" horiz-adv-x="311" 
d="M94 713l-60 -78l54 -51q14 -15 26 -30t20 -30q64 -112 64 -262q0 -105 -35 -192q-31 -80 -104 -165q-15 -17 -26.5 -29.5t-19.5 -20.5l11 -13q118 88 189 212q73 130 73 273q0 118 -49 218.5t-143 167.5z" />
    <glyph glyph-name="asterisk" unicode="*" horiz-adv-x="379" 
d="M190 680l-44 -33q22 -47 30 -99q-43 14 -95 54l-41 -34l20 -49q5 0 13 2l19 2q5 1 9 1h10q17 0 30.5 -1.5t24.5 -3.5q-35 -44 -79 -66l17 -53l51 3q10 53 35 95q21 -37 30 -94l54 -4l17 48q-15 14 -22.5 20t-10.5 8q-14 11 -25 21t-19 21q11 2 24 3.5t28 1.5h13t13 -1
l25 -2l22 51l-44 30q-10 -8 -20 -15.5t-20 -15.5q-22 -18 -50 -24q1 43 27 102z" />
    <glyph glyph-name="plus" unicode="+" 
d="M18 374v-53h204v-196h55v196h205v53h-205v195h-55v-195h-204z" />
    <glyph glyph-name="comma" unicode="," horiz-adv-x="233" 
d="M188 67l-72 70l-70 -74q7 -5 15 -13.5t15 -18.5t11 -20t4 -17q0 -26 -38 -59q-4 -3 -5.5 -4.5l-1.5 -1.5l8 -21q106 38 134 159z" />
    <glyph glyph-name="hyphen" unicode="-" horiz-adv-x="229" 
d="M46 293v-1q-19 -48 -36 -79l172 -1q13 37 36 81h-172z" />
    <glyph glyph-name="period" unicode="." horiz-adv-x="233" 
d="M44 59l72 -71l72 71l-72 72z" />
    <glyph glyph-name="slash" unicode="/" horiz-adv-x="489" 
d="M0 -128l43 -23l439 852l-42 22z" />
    <glyph glyph-name="zero" unicode="0" horiz-adv-x="491" 
d="M245 -12q97 53 155 142q63 94 63 200q0 109 -57.5 188t-160.5 121q-218 -146 -218 -344q0 -106 60 -188q56 -78 158 -119zM321 79v-1q-99 37 -158 105q-63 75 -63 176q0 7 1 12v11q7 88 64 164q103 -25 164 -106q60 -80 60 -187q0 -103 -68 -174z" />
    <glyph glyph-name="one" unicode="1" horiz-adv-x="491" 
d="M104 547l15 -18l31 23q8 -5 12 -10q27 -23 27 -86v-352l-34 -38l112 -78l119 98l-16 18l-45 -36q-36 18 -36 78v340q0 46 -5 69q-9 32 -36 58q-24 19 -36 27z" />
    <glyph glyph-name="two" unicode="2" horiz-adv-x="491" 
d="M38 490l67 -66l182 147q43 -43 43 -102q0 -68 -44 -135q-28 -42 -97 -108l-8 -8q-38 -38 -61.5 -63t-34.5 -38q-50 -62 -63 -121l12 -8q90 38 174 38q79 0 160 -38l85 95q-105 35 -184 35t-181 -40q14 16 31 32t39 33q11 8 30.5 22t48.5 33q102 68 138 109q63 69 63 158
v21v10q-1 5 -1 11l-215 133z" />
    <glyph glyph-name="three" unicode="3" horiz-adv-x="491" 
d="M30 139l181 -151q29 9 51.5 15.5t37.5 11.5q160 58 160 163q0 64 -48 108q-41 37 -108 54q131 48 131 188v7v3q-1 2 -1 4l-218 98l-143 -107l59 -64l95 70l30 24q19 13 35 13q24 0 27 -33q1 -1 1 -5v-6q0 -90 -46 -132q-42 -38 -135 -45v-33q13 1 25.5 1.5t25.5 0.5
q75 0 116 -51q38 -47 38 -123v-12q-1 -5 -1 -8v-5q-8 -62 -45 -78l-196 161z" />
    <glyph glyph-name="four" unicode="4" horiz-adv-x="491" 
d="M260 197v-92l-34 -46l107 -71l117 92l-13 16q-3 -2 -5.5 -4t-4.5 -3q-14 -12 -26 -12q-9 0 -16 4q-20 7 -28 16v100h110l-17 86h-93v220q0 61 -11 85q-13 32 -65 52l-256 -350l20 -93h215zM260 283h-214l188 257q25 -15 26 -61v-7v-189z" />
    <glyph glyph-name="five" unicode="5" horiz-adv-x="491" 
d="M40 94l184 -106q109 35 161 87q67 64 67 165q0 72 -43 124q-35 42 -108 81l-190 -126l37 212h234l38 96h-278l-64 -358l131 86q160 -46 160 -184q0 -74 -56 -116l-205 117z" />
    <glyph glyph-name="six" unicode="6" horiz-adv-x="491" 
d="M433 551l-162 88q-238 -175 -238 -374q0 -102 57 -174t156 -103q97 60 142 107q70 73 70 159q0 108 -125 164l-208 -126q0 142 74 267l165 -89zM128 268l120 72q59 -29 88 -57q43 -40 43 -94q0 -68 -53 -121q-57 0 -124 67q-66 68 -74 133z" />
    <glyph glyph-name="seven" unicode="7" horiz-adv-x="491" 
d="M32 452l25 -1q28 54 70 70q30 13 100 12l140 -1q-61 -69 -107 -131t-77 -119q-82 -149 -85 -294l133 46q6 333 226 566l2 27h-340z" />
    <glyph glyph-name="eight" unicode="8" horiz-adv-x="491" 
d="M262 -11q87 56 127 101q64 70 64 144q0 51 -32 90.5t-81 56.5q88 67 88 133q0 93 -128 119q-17 4 -33.5 5.5t-30.5 1.5h-13q-3 -1 -7 -1h-12h-3q-2 -1 -4 -1l-24 -24q-8 -9 -14.5 -15.5t-10.5 -11.5q-85 -94 -97 -159q-3 -11 -3 -28q0 -77 82 -105q-92 -80 -92 -158
q0 -72 69 -114q59 -35 136 -35h10q1 1 5 1h4zM158 289v-1q45 0 105 -12q63 -13 101 -30q43 -22 43 -70q0 -38 -27 -57q-40 -28 -96 -28q-14 0 -28 1.5t-28 3.5q-52 9 -82 34q-39 30 -38 75q2 38 50 84zM142 544v-1h28q94 0 140.5 -16.5t46.5 -61.5q0 -41 -51 -77l-84 9
q-107 14 -107 75q0 33 27 72z" />
    <glyph glyph-name="nine" unicode="9" horiz-adv-x="491" 
d="M65 77l170 -89q221 162 221 364q0 200 -213 287q-46 -28 -80.5 -53.5t-57.5 -50.5q-69 -71 -69 -153q0 -116 122 -176l205 125q0 -6 1 -17.5t1 -17.5q0 -116 -71 -222l-161 87zM358 359l-116 -72q-20 13 -39 26t-39 26q-50 39 -50 107q0 61 47 105q72 -13 128 -68
q55 -52 69 -124z" />
    <glyph glyph-name="colon" unicode=":" horiz-adv-x="233" 
d="M44 59l72 -71l72 71l-72 72zM44 355l72 -72l72 72l-72 72z" />
    <glyph glyph-name="semicolon" unicode=";" horiz-adv-x="233" 
d="M188 67l-71 70l-71 -74q7 -5 15 -13.5t15 -18.5t11 -20t4 -17q0 -26 -38 -59q-4 -3 -5.5 -4.5l-1.5 -1.5l8 -21q106 38 134 159zM46 355l71 -72l72 72l-72 72z" />
    <glyph glyph-name="less" unicode="&#x3c;" 
d="M466 595l-433 -213v-91l433 -214v106l-319 153l319 153v106z" />
    <glyph glyph-name="equal" unicode="=" 
d="M18 301v-52h464v52h-464zM18 446v-52h464v52h-464z" />
    <glyph glyph-name="greater" unicode="&#x3e;" 
d="M34 77l433 214v90l-433 214l1 -105l318 -154l-319 -153v-106z" />
    <glyph glyph-name="question" unicode="?" horiz-adv-x="319" 
d="M61 58l70 -70l71 70l-71 71zM33 499l11 -9q37 34 66 34q30 0 53 -21.5t23 -51.5q0 -28 -10 -58q-9 -26 -18 -51.5t-18 -51.5q-17 -59 -17 -110v-8q0 -2 1 -4v-3l19 -1q8 105 71 180l50 61q23 35 23 76q0 63 -46 99q-40 31 -107 37q-26 1 -30 3z" />
    <glyph glyph-name="at" unicode="@" horiz-adv-x="684" 
d="M658 378v-1q0 123 -89 203q-86 78 -210 78q-135 0 -235 -96t-100 -230q0 -140 94 -240t231 -100q169 0 267 128q22 28 29 49l-43 -3q-4 -7 -10.5 -16t-15.5 -20q-84 -101 -224 -101q-114 0 -191 73q-77 74 -93 187q-3 22 -3 45q0 115 87 201q89 86 204 86q113 0 189 -68
q75 -68 75 -181q0 -46 -24 -86q-39 -65 -89 -99q-21 -14 -31 -15q-19 1 -19 34v2v7q0 4 1 6v146q0 44 4 61q4 26 25 58l-11 6q-18 -18 -36 -18q-42 0 -98 31l-6 3l-4 2q-15 -15 -33 -22q-30 -12 -64 -12h-8q-3 0 -9 2l69 -124q-76 -85 -75 -149q2 -54 61 -100l106 85
q8 -56 47 -86q26 10 50 22t47 28q135 91 135 224zM379 307v-96l-51 -43q-50 45 -50 87q0 44 18 88zM379 419v-96l-76 33l-59 107z" />
    <glyph glyph-name="A" unicode="A" horiz-adv-x="629" 
d="M632 79l-16 17q-1 -1 -4 -3.5t-4 -3.5q-18 -15 -29 -15q-13 0 -19 14q-10 21 -10 64v4v4l-16 338q-1 11 -1 16t0 4v17q0 36 9 60q10 28 52 56l16 11l-11 16q-29 -13 -55 -32t-49 -44l-14 10.5t-11 7.5q-97 62 -194 62h-4h-5q-94 -4 -167 -73t-73 -161q0 -128 127 -207
l-72 -106q-8 -13 -17 -25t-17 -25q-18 -30 -18 -57q0 -3 1 -5v-5q7 -31 33 -31q24 0 26 20q0 5 -3 12.5t-7 15t-7.5 14.5t-3.5 10q0 8 7 15t15 7q18 0 42 -9q71 -29 153 -88l168 131q1 -21 3 -37.5t5 -29.5q8 -36 57 -64zM449 221l4 -78l-97 -75l-229 97l39 56h283zM304 458
l-136 -196q-103 73 -103 175q0 65 51 109q64 53 137 53t129 -30l-28 -42q-46 11 -83 11q-73 0 -110 -93l18 -9q31 40 68 40q24 0 57 -18zM434 530l11 -238h-230l186 264q20 -13 33 -26z" />
    <glyph glyph-name="B" unicode="B" horiz-adv-x="743" 
d="M560 680v-1q-71 -17 -150 -60q-63 -35 -84 -81q-16 -36 -16 -118v-146q0 -39 -6.5 -68t-21.5 -51t-39.5 -39t-60.5 -30q45 45 58 77q14 36 14 98v174q0 81 33 128q29 42 107 80q22 10 24 12l-16 22q-56 -27 -107 -27q-12 0 -32 3t-48 10q-53 12 -81 12q-57 0 -90 -40
q-29 -35 -37 -95l23 -1q7 60 55 60q5 0 10 -0.5t10 -1.5l20 -4q8 -2 10 -2q28 -9 51 -9q39 0 93 17q-64 -40 -91 -82q-30 -47 -33 -118q-43 7 -55 6q-73 -4 -89 -98v-1v-1l19 -5q18 41 59 41q73 0 73 -94q-104 -9 -108 -102l18 -1q14 44 48 44q18 0 31 -12.5t13 -30.5
q0 -44 -65 -101q-33 -29 -45 -44q-21 -27 -21 -57v-7q4 -36 34 -36q27 0 27 29q0 8 -8.5 22t-8.5 23q0 38 65 58q43 13 96 13q89 0 183 -58q104 90 271 116v199q0 32 18 43v14l-121 58l107 79zM469 94v79q35 11 61 11q27 0 63 -10v-69q-27 -8 -50 -18h-1q-3 -3 -32 -13
l-20 10q-5 2 -10.5 5t-10.5 5zM447 474v-374q-47 15 -90 15q-37 0 -92 -12q15 8 28.5 15.5t24.5 15.5q54 36 73 79q18 40 18 107v182q0 53 15 79q17 30 64 47l123 -168l-142 -106v120h-22zM469 198v69q36 -10 61 -10q27 0 63 11v-71q-29 9 -63 9q-11 0 -26 -2t-35 -6z
M469 290v38l36 27l88 -44v-20q-27 -13 -62 -13q-32 0 -62 12z" />
    <glyph glyph-name="C" unicode="C" horiz-adv-x="617" 
d="M606 181v-1q-111 -92 -243 -90v500q78 -38 147 -49l91 85q-109 0 -212 54l-195 -166v-213q0 -42 -4 -57q-7 -28 -33 -46q-54 79 -54 176q0 75 40 136q32 49 98 106l-9 10q-49 -25 -86.5 -57.5t-65.5 -73.5q-57 -86 -57 -190q0 -127 87 -221q87 -93 213 -93q181 0 294 177
zM341 602v-512q-101 11 -171 89q14 11 25.5 21.5t21.5 18.5q48 39 63 80q12 33 12 105v154z" />
    <glyph glyph-name="D" unicode="D" horiz-adv-x="737" 
d="M690 89v-1q0 64 -1 111.5t-3 79.5q-9 143 -40 215q-35 82 -104 111q-54 23 -154 23q-23 0 -56 -1t-78 -3q-89 -3 -133 -3q-71 0 -90 46l-13 -1q0 -89 51 -117q37 -20 132 -20q8 0 22.5 1t20.5 1q7 1 17 1h25q-9 -5 -17 -10t-15 -10q-69 -47 -83 -97q-18 -65 -18 -129
q-21 10 -45 10q-62 0 -101 -72l14 -11q24 24 48 24q28 0 47.5 -22t22.5 -51v-8q0 -42 -27 -73q-42 -48 -91 -76l13 -17q35 22 67 45t61 48q19 16 32.5 30t21.5 25q33 46 33 143v112q0 120 91 142q-32 -56 -32 -149v-129q0 -71 -32 -118q-28 -42 -92 -82q-9 -5 -15 -8.5
t-8 -4.5l-99 -59l-15 -9l13 -19q119 65 254 65q110 0 230 -34zM406 111v79q38 25 76 31q3 1 7 1h6q47 0 94 -34q3 -42 3 -112q-76 23 -186 35zM384 538v-428q-67 -1 -117 -14q65 54 65 175v114q0 103 37 152h2q1 0 2 1h8q0 -1 1 -1t2 1zM406 215v119q43 -28 85 -28
q38 0 90 28q3 -29 5 -58.5t3 -59.5q-46 28 -95 28q-35 0 -88 -29zM406 362v175q91 -7 128 -46q37 -37 45 -130q-44 -30 -86 -30q-44 0 -87 31z" />
    <glyph glyph-name="E" unicode="E" horiz-adv-x="634" 
d="M365 388l162 -5l53 92l-115 3l141 142l-6 14q-2 0 -3 -1h-4h-7q-47 0 -90 12q-63 17 -103 42l-196 -156v-232q0 -11 -0.5 -20t-1.5 -16q-5 -27 -35 -54q-55 82 -55 188q0 129 143 230l-9 15q-106 -57 -156 -127q-59 -80 -59 -190q0 -137 91 -232q92 -95 226 -95
q86 0 163 48q70 46 117 126l-7 8q-120 -88 -249 -86v294zM344 612v-517q-106 16 -171 98q79 67 82 70q37 41 37 102v204zM365 407v193q65 -38 142 -50z" />
    <glyph glyph-name="F" unicode="F" horiz-adv-x="623" 
d="M576 475h-127v103q52 -23 84 -23q51 0 83 36q29 32 34 86l-15 2q-31 -49 -72 -49q-42 0 -100 42q-3 2 -5.5 4t-4.5 3q-59 -97 -209 -122q-20 -4 -36 -4v-79q-76 -1 -112 -21q-41 -23 -71 -89q-1 -2 -1 -3t-1 -3l-3 -5l13 -12q34 39 80 52q34 10 95 12v-357v-12
q-1 -20 -2.5 -32t-4 -19.5t-7 -12.5t-11.5 -9q-17 8 -33 17t-32 17q-36 16 -73 16q-33 0 -54 -25t-33 -68l-4 -14l20 -6q12 24 15 27q11 14 26 14q23 0 53 -15q13 -7 25 -13t25 -13l147 65q111 48 149 89q35 38 35 116v235h99zM358 559v-394q0 -118 -134 -192q10 11 17.5 21
t14.5 19q44 62 44 183v342q33 9 58 21z" />
    <glyph glyph-name="G" unicode="G" horiz-adv-x="692" 
d="M631 607l-7 11q-27 -6 -51 -5q-84 4 -201 66q-38 -31 -76 -61l-76 -60q-45 -36 -78.5 -70.5t-58.5 -67.5q-59 -79 -59 -183q0 -106 78 -176q77 -70 184 -70q140 0 256 83q127 91 127 228q0 80 -56 130q-50 46 -133 55zM359 377v-344q-105 6 -173 86q24 19 42 32.5
l30 22.5q8 7 13 11.5t9 8.5q21 21 21 75v74q19 12 33.5 20.5t24.5 13.5zM381 34v96q46 30 96 30q35 0 80 -22q-23 -47 -74 -76q-48 -27 -102 -28zM203 510v-259q0 -77 -32 -114q-54 82 -54 168q0 114 86 205zM381 159v92q58 -30 107 -30q51 0 102 30q-1 -23 -6.5 -46.5
t-15.5 -46.5q-49 25 -92 25q-47 0 -95 -24zM381 278v106q36 13 68 13q52 0 90.5 -34t48.5 -86q-49 -36 -109 -34q-51 1 -98 35zM301 377v221q75 -34 197 -65z" />
    <glyph glyph-name="H" unicode="H" horiz-adv-x="743" 
d="M531 126l-18 13q-33 -46 -68 -46q-14 0 -35 1t-50 3l-49 3.5t-35 1.5q118 118 231 118q44 0 100 -21q0 -48 -30 -97q-8 -14 -24 -34.5t-39 -48.5q-45 -54 -45 -94q0 -22 16 -38.5t38 -16.5h4q3 0 5 1q33 4 33 32q0 26 -26 26q-1 -1 -2 -1h-3q-11 -6 -22 -6q-14 2 -14 17
q0 7 7 17t17 20q16 13 20 17q90 72 106 90q37 38 47 90q8 37 8 103q0 84 -14 131q-19 59 -75 106q-14 11 -25 19.5t-18 13.5l-166 -139v127q0 7 1 12q3 32 13 45q19 23 51 41q6 3 21 9.5t40 17.5l-7 20q-69 -18 -135 -56q-52 -31 -67 -78q-10 -29 -10 -105v-178
q0 -59 -20.5 -96.5t-70.5 -70.5q-5 -4 -9.5 -6.5t-7.5 -4.5q12 25 21 43l15 30q12 31 12 93v237q0 57 23 92q21 30 74 59q31 16 38 21l-8 20q-67 -32 -114 -32q-24 0 -67 12q-45 12 -67 11q-50 -2 -84 -40q-30 -33 -41 -86l18 -6q18 60 69 60q8 0 19.5 -2t27.5 -6
q34 -8 49 -8q27 0 59 9q-51 -37 -73 -88q-19 -45 -20 -114q-54 0 -86 -17q-35 -20 -51 -68l15 -7q25 36 66 36q35 0 55 -33q16 -26 16 -67q-79 -2 -89 -90l15 -4q18 37 41 37q33 0 33 -40q0 -45 -62 -102q-16 -15 -27 -25.5t-16 -17.5q-20 -26 -20 -56v-7q4 -36 33 -36
q24 0 24 29q-2 8 -3 11l-5 9q-1 1 -1 2l-1 1q-7 11 -7 23q2 27 27 40q53 29 126 29q87 0 194 -48zM405 221v109q54 -20 101 -20q58 0 101 20v-6q0 -3 1 -8v-13v-55v-14q-1 -5 -1 -9v-5q-56 19 -99 19q-37 0 -94 -17q-3 0 -4 -1h-5zM405 355v25l115 94q82 -53 90 -117
q-43 -25 -102 -25q-55 0 -103 23z" />
    <glyph glyph-name="I" unicode="I" horiz-adv-x="518" 
d="M-1 -9h1q28 51 72 51q38 0 110 -27q73 -27 113 -27q76 0 123 57q38 49 46 132q1 11 1.5 19.5t0.5 13.5q0 31 -4.5 73.5t-12.5 98.5q-18 118 -18 171q0 80 76 99l15 4l-10 16q-160 -24 -160 -214q0 -29 4.5 -72t12.5 -101t12.5 -101.5t4.5 -72.5q0 -39 -20 -65t-58 -26
q-29 0 -79 44q-14 13 -24 21t-17 12q59 6 88 27q34 25 34 82q0 23 -3 56t-8 78t-8 78.5t-3 56.5q0 114 88 190l-9 10q-36 -17 -72 -17q-25 0 -69 10q-47 11 -70 11q-46 0 -78.5 -31.5t-37.5 -79.5l11 -3q24 51 71 51q5 0 11 -0.5t11 -1.5q26 -5 42.5 -7.5t21.5 -2.5
q25 0 83 20q6 2 7 3q-93 -90 -98 -224q-9 2 -13 2.5t-8 1.5h-8q-68 0 -111 -79l9 -7q32 29 68 29q39 0 59 -29q33 -50 33 -115q0 -61 -26 -75q-29 -15 -85 -20q-98 -9 -131 -116z" />
    <glyph glyph-name="J" unicode="J" horiz-adv-x="553" 
d="M2 -123q30 36 55 36q20 0 61 -12q39 -13 63 -13q119 0 223 117q87 97 87 259q0 17 -1 41.5t-3 57.5q-3 67 -3 100q0 61 27 108q25 35 43.5 60t32.5 41l-14 16q-59 -49 -133 -49q-44 0 -131 18q-43 10 -75.5 14.5t-55.5 4.5q-60 0 -109 -40q-50 -41 -50 -98v-6q0 -5 1 -6
q10 -61 57 -61q20 0 34 13.5t14 33.5q0 18 -11.5 29.5t-29.5 11.5q-5 -1 -13 -6l-6.5 -3t-10.5 -3q-8 2 -8 13q3 23 29 37q24 11 49 11q31 0 75 -12q10 -3 14 -3q57 -16 91 -16q36 0 95 15q-72 -43 -104 -88q-40 -55 -41 -129q-38 26 -71 26q-56 0 -99 -43l9 -16q8 5 17 8.5
t20 5.5q3 0 6 1h7q44 0 69 -31q16 -20 23 -41q4 -10 12 -44q-6 4 -12 6q-35 18 -63 18q-47 0 -88 -32l9 -15l10 2q10 2 18 3t13 1q54 0 98 -44q38 -39 52 -97q2 -11 3.5 -19.5t0.5 -15.5q-2 -29 -24.5 -49t-52.5 -20q-14 0 -27 3q-68 15 -81 15q-85 0 -115 -107zM247 -63
q57 35 73 82q13 33 13 112q0 14 -0.5 35.5t-1.5 49.5q-1 29 -1 50v36q0 119 37 192q40 82 141 132q-71 -71 -97 -146q-21 -62 -21 -177v-32q0 -18 1 -44q1 -25 1.5 -43.5t0.5 -31.5q0 -185 -146 -215z" />
    <glyph glyph-name="K" unicode="K" horiz-adv-x="705" 
d="M714 86l-14 16l-8 -9q-15 -17 -29 -17q-18 12 -25 23.5t-10 17.5q-85 152 -171 205l178 122l-103 127l-171 -137q10 127 78 232l-17 13q-85 -107 -85 -336v-14q0 -10 1 -15v-29q0 -67 -19 -102q-21 -39 -76 -70q-21 -13 -40 -19l-96 -46l101 83q39 31 60 63q26 38 26 138
q-1 5 -1 10v10v19q0 26 1.5 50.5t3.5 47.5q10 98 67 205l-9 7q-35 -27 -77 -27q-28 0 -59 9q-4 0 -10 2q-49 11 -70 11q-57 0 -98 -44q-37 -39 -48 -98l19 -7q27 70 92 70q4 0 14.5 -1t27.5 -3q14 -2 24 -3t18 -1q44 0 117 37l-28 -26l-14 -14t-10 -11q-59 -65 -59 -158
q-35 26 -72 26q-54 -6 -75 -64l15 -4q20 19 43 19q43 0 67 -30.5t27 -75.5v-6v-14q-1 -1 -1 -3v-4q-29 29 -65 28q-50 -2 -71 -58l16 -8q16 16 35 16q21 0 36 -16.5t15 -37.5q0 -39 -48 -90t-101 -86l15 -21q102 46 187 46q97 0 193 -46l110 122q42 -85 93 -122zM510 131
l-56 -64q-78 39 -179 39q44 31 63.5 66t22.5 89q86 -24 149 -130zM361 283v123l112 89l71 -87z" />
    <glyph glyph-name="L" unicode="L" horiz-adv-x="601" 
d="M619 92l-17 18l-45 -42q-74 63 -166 63q-11 0 -22.5 -0.5t-22.5 -1.5q-50 -6 -90 -20q42 32 70.5 61t45.5 54q49 68 49 154q0 14 -1.5 36t-5.5 51q-6 58 -6 88q0 85 106 98l-11 22q-85 0 -134 -40q-52 -43 -52 -127q0 -28 6 -83q4 -28 5.5 -48.5t1.5 -34.5
q0 -154 -137 -247q84 108 84 228q0 17 -1.5 41t-5.5 56t-5.5 56.5t-1.5 40.5q0 44 19 75q15 26 52 57q5 4 8.5 7t5.5 5l-9 14q-54 -27 -90 -27q-24 0 -69 15q-44 15 -68 15q-42 -2 -73 -33t-31 -73q0 -14 8 -40l18 6q0 2 -1 3v3q-2 8 -2 12q0 20 12.5 34.5t31.5 14.5t42 -9
q2 0 3 -1h3q31 -11 48 -11q24 0 85 14l-9 -9q-70 -70 -70 -165q0 -6 1 -18t1 -18q-9 3 -13 3q-11 3 -26 3q-42 -1 -79 -46l12 -10q20 14 43 14q71 0 74 -90q-23 17 -49 17q-28 0 -55 -30l10 -12q13 6 27 6q26 0 42.5 -20t18.5 -47v-5q-3 -69 -96 -136q-12 -9 -21.5 -15.5
t-17.5 -10.5l12 -19q130 71 255 71q97 0 191 -71z" />
    <glyph glyph-name="M" unicode="M" horiz-adv-x="858" 
d="M859 75l-17 18l-28 -23q-31 16 -31 57v360q0 62 19 97q9 13 16.5 22.5t12.5 16.5l-17 14q-5 -5 -10.5 -10t-10.5 -10l-20 -20l-103 83l-169 -123q-1 21 -4.5 37t-8.5 27q-12 26 -45 47q-5 2 -8 4t-5 3q-32 -17 -55.5 -29.5t-39.5 -20.5q-43 -23 -74.5 -44.5t-52.5 -41.5
q-62 -57 -75 -130q-6 -35 -6 -77q-89 -14 -122 -79l17 -14q24 30 53 30q35 0 57 -28q40 -50 40 -113q0 -25 -4.5 -42t-14.5 -28t-27 -18t-41 -11q-1 -1 -2 -1h-3q-53 -10 -73 -36q-18 -25 -19 -83h20q9 43 47 43h11t11 -1l20 -2q7 0 21 -1t21 -1q141 0 141 168v190h125v-137
q0 -52 -32 -72v-13q67 -51 105 -96l162 142l-16 15l-34 -29v188l55 73h-55v221l24 17l67 -54v-425q0 -44 3 -63q6 -33 27 -55q7 -8 16 -15l21 -15zM151 26v-1q44 18 59 62q11 30 11 88v204q0 38 3 88q3 55 50 90q-15 -38 -15 -112v-296q0 -64 -9 -86q-15 -40 -68 -40
q-19 0 -31 3zM569 305v-205q-12 -14 -28 -14q-31 0 -37 58q-1 3 -1 11v150h66zM405 376h-84l-41 -57v127q0 54 4 73q7 36 35 62q8 8 18 15t23 15q14 -11 22.5 -20t13.5 -19t7 -23t2 -31v-142zM503 376v158l66 48v-206h-66z" />
    <glyph glyph-name="N" unicode="N" horiz-adv-x="789" 
d="M789 134l-23 9l-33 -56l-14 2q-7 1 -13.5 1.5t-13.5 0.5h-14q-67 0 -118 -17l7.5 10.5t3.5 5.5l70 94q39 52 69 120q16 34 23 68t6 68q-3 99 -78 159t-165 81l-301 -147v-97q-47 25 -84 25q-51 0 -85 -43l10 -13q26 16 51 16q48 0 77 -35q26 -31 31 -81q-40 34 -84 34
q-46 0 -85 -41l10 -15q23 13 53 13q92 0 116 -97q-42 20 -66 20q-44 0 -79 -47l12 -13q31 20 54 20q19 0 36.5 -7t30.5 -19.5t21 -29.5t8 -36q0 -31 -17.5 -50.5t-47.5 -19.5q-17 0 -53 9q-26 4 -41.5 5.5t-20.5 2.5h-2h-4q-68 0 -122 -79l13 -11q44 23 77 23q28 0 82 -15
q52 -16 83 -16q100 0 154 77q34 49 34 145v94q46 29 114 38q3 1 8 1h7q30 0 54 -7q46 -14 77 -36q-10 -24 -30.5 -62t-51.5 -91q-56 -97 -77 -155l23 -8q43 79 132 79q45 0 93 -21zM337 568v-390v-1v-2q0 -79 -17 -116q-24 -53 -94 -57q43 25 57 73q9 30 9 96v377l22 10
q5 2 11 5t12 5zM357 280v123q72 -36 132 -36q78 0 157 52q0 -4 0.5 -8.5t1.5 -9.5q0 -5 1 -9v-9q0 -50 -24 -114q-65 44 -143 44q-49 0 -125 -33zM357 432v142q8 2 11 2q31 9 65 9q72 0 127.5 -37.5t79.5 -104.5q-80 -53 -151 -53q-69 0 -132 42z" />
    <glyph glyph-name="O" unicode="O" horiz-adv-x="731" 
d="M67 485v-1q-44 -111 -44 -197q0 -125 81 -210q83 -86 205 -86q115 0 231 97q109 91 150 204q17 48 17 87q0 117 -92 200q-79 71 -204 97q-16 4 -19 4zM341 591v-526q-94 11 -163 80q67 52 84 78q28 40 28 113v257q13 0 25.5 -0.5t25.5 -1.5zM363 66v182q45 52 110 52
q68 0 118 -59q-26 -77 -86 -125q-65 -51 -142 -50zM197 536v-263q0 -45 -4 -60q-8 -29 -30 -51q-63 88 -63 182q0 119 97 192zM363 279v150q56 -44 115 -44q58 0 119 44q14 -44 14 -74v-15q-1 -5 -1 -9v-6q-2 -19 -5 -34t-6 -26q-62 57 -126 57q-58 0 -110 -43zM363 452v136
q166 -24 226 -137q-49 -46 -112 -46q-59 0 -114 47z" />
    <glyph glyph-name="P" unicode="P" horiz-adv-x="710" 
d="M188 -131h167v172q87 -10 165 -50l144 128v306q0 86 -57 151q-40 45 -132 101l-120 -82v72h-21v-86l-48 -35q-1 60 -35.5 95t-94.5 35q-71 0 -131 -65l14 -17q37 24 68 24q41 0 58 -29q23 -41 23 -109l-168 -117l5 -16q55 -9 105 -54q58 -52 58 -161q-107 -18 -211 -131
l11 -12q85 52 200 61v-181zM286 -109v631l48 34v-665h-48zM355 139v90q61 36 106 36q44 0 103 -35v-151q-113 51 -209 60zM355 254v136q58 -33 98 -33q50 0 111 37v-137q-55 29 -102 29q-48 0 -107 -32zM97 391l91 62v-131q-31 37 -91 69zM355 418v152l51 33l16 -8
q67 -34 97 -63q46 -43 46 -102v-5q-1 -1 -1 -2v-3q-42 -33 -92 -39q-5 0 -9 -1h-9q-52 0 -99 38z" />
    <glyph glyph-name="Q" unicode="Q" horiz-adv-x="755" 
d="M78 487v-1q-55 -114 -55 -204q0 -113 57 -183q19 -24 44.5 -44t54.5 -34.5t60.5 -22t62.5 -7.5q43 0 81 9q66 19 128 64l141 -103l94 88l-18 18l-29 -27l-110 82l8 8q135 135 135 250q0 113 -93 200q-83 77 -229 98q-2 0 -10 2zM355 583v-511q-18 2 -34 5.5t-30 8.5
q-47 13 -99 57q63 51 82 82q28 43 28 114v245h14q8 0 13 -1q6 0 12.5 -0.5t13.5 0.5zM377 73v176q44 53 112 53q71 0 124 -57q-33 -76 -93 -122q-67 -51 -143 -50zM204 529v-271q0 -62 -30 -99q-67 76 -67 186q0 111 97 184zM377 282v144q63 -39 116 -39q59 0 124 48
q16 -36 16 -82q0 -48 -13 -84q-61 56 -129 56q-61 0 -114 -43zM377 453v127q21 -2 40.5 -6.5t37.5 -9.5q116 -36 152 -109q-47 -46 -114 -46q-51 0 -116 44z" />
    <glyph glyph-name="R" unicode="R" horiz-adv-x="700" 
d="M498 95l-15 16l-46 -44q-8 7 -17.5 12t-19.5 10l-40 18v189l19 12q117 -25 159 -188q19 -76 56 -114q8 -6 13.5 -10.5t9.5 -7.5l103 96l-15 17l-37 -34q-24 20 -41 61q-5 17 -11 35t-11 36q-39 122 -136 171l148 99l-152 207l-179 -122q-6 122 -136 122q-73 0 -128 -64
l10 -12q34 22 68 22q82 0 90 -108q1 -4 1 -13v-12l-173 -121v-15q94 -31 147 -110q4 -5 9 -12q21 -41 21 -103q-120 -15 -207 -122l9 -8q76 42 170 48h9h9q114 0 200 -58zM286 126v401l52 36v-450q-19 5 -31.5 8t-20.5 5zM191 460v-146q-35 39 -101 76zM360 322v255l41 28
l121 -172z" />
    <glyph glyph-name="S" unicode="S" horiz-adv-x="729" 
d="M287 680v-1q-174 -128 -174 -240q-84 -35 -84 -106q0 -51 38 -75q48 -33 103 -34q10 -1 20 0h68l-35 -62q-41 6 -81 6q-50 0 -87 -24q-46 -27 -45 -73q1 -69 96 -81q6 0 11 -1h12q84 0 203 60q8 -5 18.5 -9.5t22.5 -9.5q24 -15 68 -26q117 58 177 110q94 81 94 175
q0 96 -94 142q-60 29 -156 29h-33q-1 -1 -4 -1t-4 1l109 192l-18 12l-30 -53zM302 59v-1q-95 -49 -188 -49q-4 0 -7 1h-7q-45 7 -45 41q0 19 15 28q23 14 56 14q75 0 176 -34zM335 313l36 62q26 2 52.5 3t52.5 1q66 0 113 -32q55 -37 55 -100q0 -90 -116 -171q-3 -1 -6 -4
q-8 4 -17 7.5t-18 7.5l-36 14l24 13q15 9 26 15q90 54 90 112q0 60 -84 78q-17 4 -43 4q-12 0 -43 -3q-4 0 -11 -1t-11 -1q-19 -4 -35 -5t-29 0zM247 159l38 65q10 0 16 3l103 11q28 3 50 3q20 0 35 -9q19 -12 19 -30q0 -20 -17 -37q-25 -19 -43 -32t-31 -21q-21 7 -42 13.5
t-42 11.5zM345 373l-36 -64l-30 -2q-15 -1 -30 -1.5t-31 -0.5h-30q-37 0 -65 15q-34 19 -34 53q0 27 27 47q14 -36 44 -47q24 -8 67 -8q29 0 58.5 2t59.5 6zM439 537l-46 -80q-24 -3 -42 -5t-30 -3h-25q-8 -1 -14 -1h-10h-6h-6q-85 4 -85 68q0 31 23.5 53t55.5 25h8
q67 0 177 -57z" />
    <glyph glyph-name="T" unicode="T" horiz-adv-x="652" 
d="M445 86v467q6 0 19 -1t19 -1q67 0 112.5 36t51.5 102l-16 5q-31 -55 -104 -55q-51 0 -150 18q-50 10 -87 14.5t-63 4.5q-100 0 -164.5 -53.5t-88.5 -152.5l16 -7q56 128 184 128h11q5 -1 11 -1q5 -1 10.5 -1.5t10.5 -0.5q-185 -129 -185 -302q0 -126 88 -210
q89 -83 214 -83q110 0 199 66q88 67 114 174l-16 3q-68 -122 -186 -150zM423 557v-476q-3 -1 -6 -1t-5 -1q-5 -1 -11 -1.5t-12 -0.5h-12q-75 0 -143 44q34 28 51 41.5t18 14.5q54 49 54 141v251q6 0 14.5 -1.5t18.5 -3.5t18.5 -4t14.5 -3zM257 588v-339q0 -80 -44 -112
q-92 83 -92 200q0 78 34 145q37 74 102 106z" />
    <glyph glyph-name="U" unicode="U" horiz-adv-x="736" 
d="M732 62l-13 18q-14 -9 -27 -9q-14 0 -20 11q-10 17 -10 52v352q0 83 33 124q9 10 16 17.5t12 12.5l-18 15l-47 -49l-94 70l-111 -116l15 -15l52 53l44 -35v-142q-25 -16 -64 -20h-14q-46 5 -79 32v258l-14 -1q-12 -15 -29 -23q-27 -13 -65 -13q-30 0 -94 21
q-66 21 -92 20q-56 -3 -81 -45q-32 -56 -32 -136v-7q0 -5 1 -7l20 -1q0 111 78 111h15t15 -1q38 -4 60 -6t30 -2h16q13 2 21 2.5t11 1.5q-116 -77 -165 -139q-67 -85 -67 -200q0 -113 72 -192q74 -83 184 -83q64 0 115 17q73 25 156 98q1 -46 16 -75q16 -31 54 -52zM385 636
v-571h-13q-2 -1 -6 -1h-13h-6q-75 4 -126 42q49 29 88 71q35 38 35 103v246q0 66 41 110zM407 69v201q37 23 73 23q37 0 84 -24v-127q-83 -65 -157 -73zM200 126v-1q-70 76 -70 188q0 100 60 183q56 75 149 124q-26 -33 -42 -54t-21 -29q-29 -49 -29 -101v-178
q0 -97 -47 -132zM407 297v108q30 -20 64 -24q3 -1 8 -1h6q47 0 79 17v-104q-41 22 -84 22q-30 0 -73 -18z" />
    <glyph glyph-name="V" unicode="V" horiz-adv-x="626" 
d="M252 538v-1q-51 153 -159 153q-40 0 -62 -31q-14 -20 -25 -50t-18 -71l16 -6q2 7 3 12t2 9q16 51 52 51q48 0 74 -51q49 -97 49 -250q-33 40 -74 40q-48 0 -77 -56l12 -11q22 17 44 17q32 0 54 -25q21 -24 28 -54q3 -20 3 -27q0 -64 -58 -167q-4 -5 -6 -9t-4 -6l16 -17
q53 35 102 35h6q43 0 96 -35q64 59 111 109t76 92q90 127 90 255q0 106 -73 236zM256 237v-1q45 16 82 16q69 0 125 -33q-40 -85 -82 -138q-44 14 -75 14q-67 0 -158 -65l9 15l53 86q25 39 46 106zM278 386v-1q31 -11 75 -15h5t8 -1h13q69 0 128 27q-1 -38 -9.5 -77
t-24.5 -77q-68 33 -133 33q-31 0 -77 -12q15 55 15 123zM259 516l189 97q54 -84 59 -194q-60 -28 -124 -28q-41 0 -106 17q-2 14 -3.5 25t-2.5 18q-4 39 -12 65z" />
    <glyph glyph-name="W" unicode="W" horiz-adv-x="864" 
d="M237 531v-1q-15 59 -49 100q-41 51 -94 51q-79 0 -101 -111q-2 -8 -3 -14.5t-2 -11.5l21 -4q0 25 12 46.5t35 21.5q21 0 37 -16q58 -61 67 -209l2 -31q1 -8 1 -16v-15q-31 34 -71 34q-42 0 -72 -52l13 -14q20 14 36 14q35 0 59 -33q22 -28 22 -66q0 -74 -66 -185
q-4 -5 -6 -9.5t-4 -6.5l11 -15q80 50 152 48q42 -2 90 -48q20 11 27 13q62 35 114 35q43 0 93 -48q280 228 280 437q0 115 -93 259l-215 -150q-30 79 -80 152zM225 223v-1q54 26 96 26q44 0 101 -36q-12 -32 -26 -59.5t-30 -52.5q-44 6 -59 6q-66 0 -169 -57l-6 -3l-4 -2
q28 46 52.5 90t44.5 89zM509 229v-1q36 21 83 21q54 0 107 -34q-8 -16 -9 -17q-32 -62 -60 -96q-41 12 -70 12q-73 0 -182 -59q-6 -3 -7 -3q-2 -2 -4 -2.5t-3 -1.5q98 98 145 181zM256 388v2q33 -21 83 -26h15q44 0 102 31v-6q0 -4 1 -5v-12q0 -59 -26 -139q-68 37 -112 37
h-10q-5 -1 -11 -1q-34 -5 -62 -16q21 70 21 126v5q-1 1 -1 4zM556 391v-1q45 -19 90 -19q49 0 90 19q1 -3 1 -7v-7q0 -7 -0.5 -15t-1.5 -16q-9 -60 -24 -102q-2 -6 -3 -7q-62 34 -114 34q-31 0 -70 -11q32 59 32 132zM242 507l137 98q42 -53 63 -132q9 -35 12 -52
q-45 -33 -104 -33q-45 0 -94 25q0 47 -14 94zM540 515l131 88q52 -68 65 -190q-56 -21 -89 -21q-45 0 -91 21q0 51 -16 102z" />
    <glyph glyph-name="X" unicode="X" horiz-adv-x="551" 
d="M548 89l-19 19l-7 -7q-5 -5 -8 -7q-20 -23 -39 -23q-13 0 -20 12q-11 20 -18 34t-11 23l-74 175h118l35 76h-194l84 188q38 -21 115 -47l38 79q-78 35 -133 75l-113 -252l-52 125q-25 61 -47 86q-33 38 -87 38q-87 0 -138 -100l15 -12q38 38 80 38q36 0 54 -24
q11 -17 18 -30t11 -23q4 -6 8 -18q0 -1 1 -1v-1l51 -121h-116l-35 -76h185l-96 -216q-42 16 -72.5 28.5t-50.5 21.5l-38 -89q76 -26 138 -72l129 288l71 -168q23 -54 37 -72q22 -30 66 -48z" />
    <glyph glyph-name="Y" unicode="Y" horiz-adv-x="671" 
d="M30 625v-1q19 11 36 11q79 0 91 -108q1 -9 1.5 -21t0.5 -27v-37q-43 31 -87 31q-21 0 -51 -14l4 -17h4q3 0 4 1h7q60 0 92 -45q26 -39 27 -103v-3v-3q-50 38 -98 38h-9t-9 -1l-18 -2v-14q67 -6 102 -60q30 -45 32 -118v-1v-2q-66 0 -110 -34q-50 -38 -49 -99
q0 -59 49 -98q48 -35 107 -34q51 2 136 48t116 46h4q2 0 3 -1q14 -2 14 -12q0 -9 -4 -10q-13 -20 -13 -36q0 -19 12 -32t31 -13q44 0 44 49q0 41 -44 67q-36 21 -82 21t-131 -33q-86 -33 -126 -33q-38 0 -65.5 23.5t-27.5 59.5q0 40 31 64q47 35 104 35q17 0 42.5 -0.5
t60.5 -1.5t60 -1h43q284 0 284 316v3v3q-1 88 -53 153q-56 69 -142 69q-48 0 -105 -26q-14 -6 -38 -19.5t-58 -33.5q-20 110 -133 110q-53 0 -100 -38zM252 130v410l45 27v-437h-45zM319 130v141q53 41 99 41q64 0 120 -47q-45 -137 -219 -135zM319 298v136q47 -40 110 -40
q55 0 114 45q7 -25 7 -78q0 -33 -7 -71q-55 44 -122 44q-50 0 -102 -36zM319 464v113q39 19 72 19q54 0 95 -41q36 -37 50 -92q-47 -48 -110 -48q-54 0 -107 49z" />
    <glyph glyph-name="Z" unicode="Z" horiz-adv-x="508" 
d="M508 115l-17 16l-49 -61q-73 37 -149 37t-217 -56q67 63 116.5 121t83.5 113h155l15 34l-149 -1q11 17 18 30.5t12 22.5h142l16 36l-142 -1q78 154 152 260l-13 13q-83 -44 -185 -44q-79 0 -171 43l-111 -130l18 -15l56 63q61 -27 126 -27q82 0 214 56
q-57 -57 -105 -111.5t-88 -106.5h-144l-16 -36l138 -1q-9 -17 -16 -30t-12 -21h-132l-16 -34l130 -1q-20 -37 -39 -73t-39 -73q-50 -84 -99 -132l13 -18q106 47 198 47q108 0 205 -47z" />
    <glyph glyph-name="bracketleft" unicode="[" 
d="M372 666h-181v-827h181v74h-97v679h97v74z" />
    <glyph glyph-name="backslash" unicode="\" horiz-adv-x="239" 
d="M159 99v498l84 -22l16 78l-97 23q-27 -23 -52.5 -42.5t-48.5 -35.5v-438v-10v-10q-1 -51 -32 -68v-12q63 -20 120 -72l105 84l-14 13l-31 -25l-12 10l-12 10z" />
    <glyph glyph-name="bracketright" unicode="]" 
d="M128 -161h181v827h-181v-73h96v-680h-96v-74z" />
    <glyph glyph-name="asciicircum" unicode="^" 
d="M122 365l128 232l128 -232h97l-165 305h-120l-165 -305h97z" />
    <glyph glyph-name="underscore" unicode="_" 
d="M0 -64v-67h500v67h-500z" />
    <glyph glyph-name="grave" unicode="`" 
d="M346 573l-105 120h-87l35 -87z" />
    <glyph glyph-name="a" unicode="a" horiz-adv-x="408" 
d="M407 71l-10 12q-2 -2 -4 -2l-1 -1l-2 -2q-18 -8 -24 -8q-24 3 -25 39v8v198v26t1 23q1 47 35 99l-13 8q-23 -22 -45 -22q-50 0 -125 39l-6 3l-4 2q-50 -42 -122 -42h-11q-1 0 -2 1h-5q-3 0 -3 1l86 -154l-14 -16q-80 -89 -80 -171q0 -65 77 -124l132 106q6 -52 37 -86
q7 -7 12.5 -11.5t9.5 -8.5zM188 263l54 -23v-121l-64 -53q-62 57 -62 109q0 30 12 80q7 30 10 30zM242 379v-119l-95 41l-74 134z" />
    <glyph glyph-name="b" unicode="b" horiz-adv-x="409" 
d="M36 83v-11q113 -20 185 -84q53 47 149 85v273q0 38 -4.5 62t-23.5 47q-8 9 -39 39l-142 -119v170q0 47 9 71q10 31 45 54l-3 9q-67 -10 -113 -59q-37 29 -74 44l-6 -13q4 -4 7.5 -7t6.5 -6l11 -11q19 -28 19 -74v-402q0 -53 -27 -68zM161 352l80 67q30 -26 30 -86v-266
l-110 47v238z" />
    <glyph glyph-name="c" unicode="c" horiz-adv-x="307" 
d="M307 80l-10 13l-43 -34l-86 39v304l83 -46l50 73l-116 64q-78 -74 -154 -97v-13q26 -3 32.5 -12.5t6.5 -36.5v-204q0 -56 -28 -75v-13q82 -8 150 -54z" />
    <glyph glyph-name="d" unicode="d" horiz-adv-x="422" 
d="M38 552l125 -95q-39 -30 -96 -40v-255q0 -67 -29 -90v-12q45 -5 79 -16q53 -18 109 -56q62 45 147 80v327q0 49 22 72l-5 16q-30 -11 -50 -39l-302 223v-115zM169 120v294q9 6 14 10t11 10l81 -60v-304z" />
    <glyph glyph-name="e" unicode="e" horiz-adv-x="356" 
d="M336 86l-10 14l-71 -50q-33 18 -87 45v92l181 150l-122 156q-38 -23 -86 -47.5t-108 -50.5l4 -11q33 0 33 -38v-206v-11q-2 -53 -33 -68v-11q68 -12 154 -62zM168 220v214l102 -131z" />
    <glyph glyph-name="f" unicode="f" horiz-adv-x="249" 
d="M264 72l-14 13l-31 -25l-12 10l-12 10l-26 19v322h66v53h-66v123l84 -22l16 78l-97 23q-27 -23 -52.5 -42.5t-48.5 -35.5v-124h-39v-53h39v-271v-10q-1 -51 -32 -68v-12q63 -20 120 -72z" />
    <glyph glyph-name="g" unicode="g" horiz-adv-x="427" 
d="M36 -121l9 -10q92 20 145 20q43 0 103 -24q19 8 32.5 14.5t23.5 10.5q75 37 75 77q1 19 -11.5 39.5t-27 43.5t-26 48.5t-9.5 54.5v230q54 -16 77 -21v105l-78 -42l-139 67q-78 -50 -165 -60v-341l106 -77zM123 -47l130 153q4 -48 38 -97q31 -43 75 -73l-17 -10
q-71 36 -133 36q-41 0 -93 -9zM142 123v302l111 -41v-248l-50 -59z" />
    <glyph glyph-name="h" unicode="h" horiz-adv-x="413" 
d="M108 -13l88 66l-32 36v268l76 60q32 -24 32 -77v-241q0 -84 -28 -127q-29 -45 -103 -80q-14 -6 -24 -10.5t-17 -7.5l6 -18q133 53 182 90q50 35 70 86q16 42 16 113v198q0 42 -6 68q-8 36 -42 64l-22 18l-140 -113v178q0 67 45 99q12 8 15 11l-6 11q-75 -13 -116 -60
q-39 36 -73 51l-8 -14q43 -34 43 -99v-468l-40 -33z" />
    <glyph glyph-name="i" unicode="i" horiz-adv-x="244" 
d="M237 69l-12 17l-30 -25l-28 25v309l34 31l-83 68l-83 -65l35 -30v-256q0 -54 -32 -65v-10q22 -13 45.5 -33t49.5 -47zM127 580l24 -2l83 113l-83 3z" />
    <glyph glyph-name="j" unicode="j" horiz-adv-x="226" 
d="M10 414l11 -15l33 23l36 -36q-26 -75 -26 -141q0 -21 4 -54.5t12 -79.5q15 -86 15 -111q0 -77 -74 -128l6 -15q75 39 109 79q44 52 44 123q0 17 -2.5 41.5t-7.5 57.5t-7.5 57.5t-2.5 41.5q0 83 50 151q-48 30 -94 85zM125 581l25 -3l80 115h-85z" />
    <glyph glyph-name="k" unicode="k" horiz-adv-x="420" 
d="M427 72l-10 15l-27 -22q-14 17 -18 34q-8 35 -13.5 61.5t-9.5 44.5q-7 22 -27 46q-11 13 -37 40l-2 2q-3 0 -4 4l107 97l-94 100l-127 -123v183q0 64 24 88q21 16 30 24l-3 13q-76 -16 -120 -62q-29 32 -76 47l-6 -13q29 -19 40 -48q9 -23 9 -63v-396q0 -30 -4 -41
q-6 -21 -28 -28v-15q72 -21 119 -72l127 103q10 -65 44 -103zM165 100v94l42 37q52 -37 67 -116l-60 -50zM165 220v125l74 71l66 -71z" />
    <glyph glyph-name="l" unicode="l" horiz-adv-x="227" 
d="M246 65l-14 16l-21 -16l-49 34v441q0 42 4 58q8 31 29 49q7 5 11.5 9.5l7.5 7.5l-5 15q-70 -18 -111 -64q-30 28 -78 49l-5 -16q31 -16 42 -46q7 -18 7 -64v-393q0 -55 -34 -71v-16q70 -18 121 -70z" />
    <glyph glyph-name="m" unicode="m" horiz-adv-x="651" 
d="M8 413l12 -19q4 2 6 3.5t4 2.5h1q10 7 17 7q19 -1 22 -32v-281l-35 -36l87 -70l81 67l-36 36v267l69 58l8 -8q1 -1 7 -9q25 -31 25 -64v-244l-32 -36l84 -67l82 67l-36 36v267l72 62l36 -40v-249q0 -79 28 -113l36 -30l96 79l-12 15q-17 -14 -28 -14q-21 1 -21 38v231
q0 58 35 93l11 11l-13 14l-39 -38l-70 77l-133 -115q-5 65 -70 115l-135 -115q0 31 -5 53q-8 30 -50 62z" />
    <glyph glyph-name="n" unicode="n" horiz-adv-x="444" 
d="M12 419l12 -16q14 10 25 10q21 0 22 -34v-3v-16q-1 -1 -1 -4v-260l-39 -36l85 -72l86 70l-34 36v274l69 57l39 -40v-251q0 -75 25 -110q11 -13 19.5 -22t15.5 -14l105 84l-12 19l-8 -6v-1q-14 -11 -23 -11q-24 0 -24 48v199q0 65 19 94q10 13 18 22t14 15l-14 16l-47 -45
l-72 72l-124 -103q0 35 -14 58q-10 16 -43 45z" />
    <glyph glyph-name="o" unicode="o" horiz-adv-x="389" 
d="M349 66v355q-86 23 -158 72q-63 -57 -141 -81v-228q0 -15 -1 -33t-3 -40q-2 -20 -24 -36v-13q94 -8 182 -74q14 11 32 21.5t38 21.5q11 6 30 15t45 20zM147 416l104 -45v-303l-104 45v303z" />
    <glyph glyph-name="p" unicode="p" horiz-adv-x="419" 
d="M10 100v-35q38 -4 59 -6v-61q0 -60 -19 -85q-11 -14 -27 -27l4 -12q6 3 10 3q47 19 71 43q51 -46 106 -62l9 18q-54 25 -54 103v48q40 -14 72 -39q44 46 138 95v244q0 82 -50 129q-16 13 -28 22.5t-20 15.5l-112 -107q-1 55 -37 87q-8 7 -13.5 11.5t-9.5 8.5l-96 -77
l10 -14l2 2h1q8 7 17 7q20 0 25 -36q1 -3 1 -10v-258q-24 -4 -39 -5.5t-20 -2.5zM169 108v249l59 55q33 -22 41 -37q10 -16 10 -55v-249q-23 13 -50.5 22.5t-59.5 14.5z" />
    <glyph glyph-name="q" unicode="q" horiz-adv-x="407" 
d="M252 91v-90q0 -44 -6 -69q-8 -31 -55 -59l3 -15q80 15 118 59q44 -34 80 -44l7 14q-35 34 -42 51q-6 16 -6 65v346q0 9 1 14q3 19 27 34v14q-91 8 -188 81q-50 -44 -120 -73q-20 -8 -28 -9v-267q0 -84 28 -113q34 -29 54 -42zM252 356v-240l-65 -54q-21 16 -27 24
q-16 19 -16 72v251z" />
    <glyph glyph-name="r" unicode="r" horiz-adv-x="327" 
d="M5 409l12 -14l29 24l10 -10q14 -17 14 -57v-202q0 -60 -34 -79v-12q61 -12 122 -71l121 97l-14 16l-46 -36l-49 36v281l40 35l59 -73l68 63l-72 89l-91 -83q-19 52 -70 81z" />
    <glyph glyph-name="s" unicode="s" horiz-adv-x="403" 
d="M10 -1l13 -11q47 37 100 37q50 0 111 -37q64 55 138 77v195l-102 59l84 116q38 53 43 83v9q0 42 -36 42q-29 0 -29 -29q0 -16 11 -27q0 -1 1 -1q10 -10 10 -23q0 -16 -18 -25q-13 -7 -31 -7q-58 0 -130 36q-44 -44 -57 -54q-27 -19 -74 -33v-177l93 -51zM271 207v-136
q-51 28 -83 29q-2 1 -6 1h-6h-13q-5 -1 -8 -1h-5q-5 -1 -9 -2t-9 -2l-25 -7l106 150zM142 282v133q27 -17 64 -27q10 -2 19.5 -3.5t20.5 -1.5h11q16 0 29 4l-95 -133z" />
    <glyph glyph-name="t" unicode="t" horiz-adv-x="245" 
d="M27 436v-16h43v-273q0 -56 -32 -76v-14q70 -18 117 -69l106 87l-14 17l-31 -26l-16 12q-11 8 -19 13.5t-13 9.5v319h84v54h-84v149z" />
    <glyph glyph-name="u" unicode="u" horiz-adv-x="449" 
d="M16 404l13 -16l20 16l21 -16v-264q0 -37 -28 -47v-14q47 -19 109 -75l131 118q0 -37 9 -59q13 -34 52 -59l100 76l-15 16q-10 -10 -23 -10q-26 0 -26 45v277l33 29l-84 73l-81 -73l35 -29v-259l-70 -64l-44 35v288l33 29l-83 73z" />
    <glyph glyph-name="v" unicode="v" horiz-adv-x="415" 
d="M169 385v-1q-2 38 -41 86q-14 18 -22.5 28.5t-10.5 14.5q-9 16 -8 28q2 26 37 56q8 6 11 9l-10 13q-16 -11 -31 -22t-31 -22q-40 -34 -40 -87q0 -27 16 -55l8 -12q23 -44 23 -90v-193q0 -51 -30 -61v-12q91 -1 182 -77q61 58 153 85v240q0 26 -0.5 43t-1.5 26
q-5 37 -24 63q-17 17 -29.5 29t-21.5 20zM169 115v247l69 57q26 -24 33 -46q6 -17 6 -58v-248q-53 25 -108 48z" />
    <glyph glyph-name="w" unicode="w" horiz-adv-x="621" 
d="M167 384v-1q-1 42 -42 89q-7 7 -12 12.5t-9 9.5q-22 26 -22 47q0 27 38 60q1 1 2 1.5t2 1.5l3 3l-9 14q-29 -19 -46 -31.5t-23 -17.5q-35 -33 -35 -74q0 -34 22 -65q34 -34 34 -99v-209q0 -34 -22 -47q-8 -5 -16 -7v-11q103 -6 177 -72q44 47 95 47q56 0 127 -47
q50 48 150 82v258q0 48 -7 75q-9 36 -48 71l-24 20l-132 -112q-7 71 -76 112zM167 108v252l68 58q26 -20 34 -40q6 -17 6 -53v-261zM373 114v247l69 57q8 -6 11 -9l8 -9q21 -26 21 -79v-251z" />
    <glyph glyph-name="x" unicode="x" horiz-adv-x="409" 
d="M-2 39l88 -51l96 204l2 -4q1 -1 1.5 -2t1.5 -2q1 -5 4 -8l45 -93q32 -67 84 -95l99 80l-14 17q-2 -2 -3 -2q-24 -11 -29 -11q-22 0 -58 65q-21 38 -40.5 80.5t-38.5 90.5l43 92l77 -41l43 84l-101 51l-74 -160q-19 46 -52 90q-38 50 -74 70l-100 -89l11 -16q10 10 22 16
q8 2 11 2q9 0 18 -6q21 -14 44 -50q46 -89 66 -132l-62 -133l-74 38z" />
    <glyph glyph-name="y" unicode="y" horiz-adv-x="382" 
d="M4 409l13 -15l2 2l1 1q1 0 2 1q15 12 25 12q22 0 24 -36v-3v-16q-1 -1 -1 -4v-245q0 -47 -32 -94t-32 -75q0 -41 30 -62q25 -19 69 -19q24 0 56 6q67 13 67 43q0 21 -20 21q-17 0 -42 -25q-29 -24 -63 -24q-30 0 -51 15.5t-21 43.5q0 27 20 47q26 20 46 33t34 21
q58 35 98 63t63 51q80 78 80 173v9q0 5 -1 8q-6 50 -18 80q-16 37 -46 69l-137 -110q0 67 -46 100q-8 5 -12 8.5t-6 4.5zM169 355l68 53q38 -55 38 -122v-6v-6q-4 -54 -32.5 -105.5t-73.5 -81.5v268z" />
    <glyph glyph-name="z" unicode="z" horiz-adv-x="277" 
d="M0 402l13 -16l49 35l90 -73l-139 -147l12 -12q38 20 64 20q33 0 52 -23t19 -57q0 -47 -59 -103q-5 -2 -6 -6q-53 -47 -53 -88q0 -29 22.5 -48.5t51.5 -19.5h5q3 0 4 1q24 3 24 22q0 9 -14 12h-4q-6 0 -16.5 -3t-16.5 -3q-30 0 -33 36v3q2 20 17 34q22 20 76 51t76 54
q33 36 33 88q0 28 -10.5 51t-29.5 39t-44 25t-53 9q-3 -1 -7 -1q-4 -1 -7 0l127 134l-8 10q-2 -1 -6 -1q-3 -2 -6 0l-1 -1q-14 0 -46 23q-26 18 -54 46z" />
    <glyph glyph-name="braceleft" unicode="{" 
d="M227 244v-1q33 20 45 49q10 23 10 68v133q0 52 22 71q20 16 74 17v97l-18 -1q-59 -2 -87 -3q-49 -6 -74 -46q-22 -34 -22 -87v-165q0 -75 -57 -88v-84q57 -17 57 -93v-151q0 -92 47 -124q36 -24 135 -24h10q1 1 5 1h4v91q-57 2 -76 19q-20 17 -20 72v130q0 86 -55 119z
" />
    <glyph glyph-name="bar" unicode="|" 
d="M197 666v-832h107v832h-107z" />
    <glyph glyph-name="braceright" unicode="}" 
d="M274 246v-1q-34 -19 -46 -48q-10 -23 -10 -67v-133q0 -53 -21 -69q-21 -17 -75 -18v-96q3 -1 10 -1h52l31.5 3t11.5 1q93 8 96 130v1v164q0 73 57 90v82q-57 16 -57 95v151q0 96 -45 126q-34 22 -137 22h-9q-3 0 -5.5 -0.5t-4.5 0.5v-92q28 0 46.5 -4t29.5 -14t15.5 -27
t4.5 -44v-134q0 -87 56 -117z" />
    <glyph glyph-name="asciitilde" unicode="~" horiz-adv-x="667" 
d="M148 569v-1q40 70 88 69q24 0 49 -11q35 -17 70 -35q41 -19 74 -19q95 0 146 121l-55 43l-2 -4q-33 -65 -83 -65q-32 0 -96 33q-62 34 -100 34q-93 0 -145 -121z" />
    <glyph glyph-name="exclamdown" unicode="&#xa1;" horiz-adv-x="319" 
d="M104 -144q74 0 124 30q59 38 59 108q0 38 -23 73q0 1 -50 62q-63 77 -71 181l-19 -1q0 -2 -1 -4v-4v-8q0 -69 31 -153q32 -87 32 -118q0 -14 -6.5 -27t-17 -22.5t-24 -15.5t-28.5 -6q-29 0 -66 34l-11 -8zM131 346l71 71l-71 71l-70 -71z" />
    <glyph glyph-name="cent" unicode="&#xa2;" horiz-adv-x="386" 
d="M226 463l81 -43l66 77l-141 77q-3 -3 -6 -3l3 86l-34 -21l4 -86l-2 -3q-157 -123 -157 -270q0 -154 159 -217v-61q0 -9 -0.5 -18t-1.5 -19l32 20l-3 71l18 -3l80 89q-8 -1 -16 -1.5t-16 -0.5q-34 0 -66 22v304zM199 478v-302q-68 47 -68 133q0 76 35 148l15 30z" />
    <glyph glyph-name="sterling" unicode="&#xa3;" horiz-adv-x="548" 
d="M144 525v-1q-16 -45 -16 -85q0 -38 16 -92h-117l-28 -82l174 -1q29 -73 29 -151v-6q-1 -1 -1 -2v-4q-120 -39 -207 -96l9 -17q38 17 77.5 29t81.5 17q19 2 38 3.5t39 1.5q125 0 262 -51l53 103q-53 22 -105 32q-17 4 -35 5.5t-35 1.5q-72 0 -147 -19q54 73 54 154h136
l31 82l-180 -1q-24 57 -24 109q0 50 37 109l188 -114l73 86l-170 104z" />
    <glyph glyph-name="currency" unicode="&#xa4;" horiz-adv-x="698" 
d="M58 108l56 -56l96 95q77 -47 138 -47q77 0 142 48l96 -96l55 56l-96 95q44 74 44 136q0 67 -46 140l96 95l-56 56l-98 -98l-6 4q-4 2 -7 3q-68 38 -120 38q-40 0 -73 -13q-8 -3 -25 -10.5t-42 -20.5l-99 98l-56 -56l98 -98q-46 -74 -46 -137q0 -71 44 -136zM349 488v-1
q59 0 103 -44q43 -43 43 -103q0 -61 -43 -104t-103 -43t-103 43t-43 104q0 60 43 103q44 44 103 45z" />
    <glyph glyph-name="yen" unicode="&#xa5;" horiz-adv-x="608" 
d="M247 0h110v240h198v45h-185l69 114h145v44h-120l133 224h-118l-176 -316l-176 314h-117l132 -222h-119v-44h144l68 -114h-176v-45h188v-240z" />
    <glyph glyph-name="brokenbar" unicode="&#xa6;" horiz-adv-x="252" 
d="M96 675v-350h60v350h-60zM96 -175h60v350h-60v-350z" />
    <glyph glyph-name="section" unicode="&#xa7;" horiz-adv-x="575" 
d="M487 486v-1q-3 81 -53 126.5t-132 45.5q-70 0 -122 -34q-59 -39 -59 -106q0 -53 45 -93q-100 -37 -100 -131q0 -61 55 -107q16 -13 43 -28.5t67 -34.5l36 -17q29 -14 50 -25.5t32 -19.5q47 -35 47 -74q0 -62 -80 -74q-1 -1 -6 -1h-8q-100 0 -110 109l-83 -1
q0 -88 52 -134.5t142 -46.5h10q69 0 119 40q56 44 56 110q0 55 -52 101q45 14 73 49t28 80q0 61 -55 107q-17 14 -43.5 30t-64.5 35q-20 10 -34.5 16.5t-24.5 11.5q-23 11 -39.5 20.5t-25.5 16.5q-38 29 -38 59q0 58 79 71q2 1 6 1h6q46 0 72.5 -27.5t27.5 -73.5h84z
M215 381v-1q10 -3 20.5 -7.5t21.5 -9.5l4 -2q40 -19 76.5 -40.5t70.5 -44.5h2l1 -2q44 -33 44 -67q0 -26 -19 -46.5t-46 -27.5q-2 -2 -5 -2q-31 14 -55 26.5t-41 22.5q-80 46 -99 60q-14 12 -28 26t-14 35q0 61 67 80z" />
    <glyph glyph-name="dieresis" unicode="&#xa8;" 
d="M95 632l63 -63l62 63l-62 63zM280 632l63 -63l62 63l-62 63z" />
    <glyph glyph-name="copyright" unicode="&#xa9;" horiz-adv-x="777" 
d="M389 679v-1q-144 0 -245 -101t-101 -244t101 -244q100 -100 245 -100q143 0 243 100q101 101 101 244t-101 244q-101 100 -243 102zM389 631v-1q122 0 206 -88q85 -86 85 -209q0 -122 -85 -210q-84 -87 -206 -87q-123 0 -208 87q-85 88 -85 210q0 123 85 209
q85 87 208 89zM571 296l-53 -1q-7 -51 -41.5 -78.5t-86.5 -27.5q-58 0 -93 44q-31 40 -31 100q0 62 31 102q34 46 93 46q45 0 79 -21t44 -61l52 -1q-6 64 -57 102q-50 38 -117 38q-86 0 -139 -59q-52 -58 -52 -147q0 -86 52 -144q52 -57 138 -57q37 0 69 12t56 33.5t38.5 52
t17.5 67.5z" />
    <glyph glyph-name="ordfeminine" unicode="&#xaa;" horiz-adv-x="348" 
d="M328 342h-299v-49h299v49zM284 431l-6 7q-1 -1 -2 -1l-3 -2q-6 -6 -12 -4l-1 -1q-12 1 -15 23v124q0 36 5 53q2 8 6.5 17t9.5 20l-8 4q-13 -13 -27 -13q-29 0 -71 21l-6 3l-4 2q-31 -25 -73 -25h-6q-2 0 -6 2l51 -93q-10 -13 -19 -25.5t-19 -25.5q-19 -31 -18 -61
q1 -43 46 -75l79 64q3 -29 22 -51l7 -6q3 -4 7 -7zM185 533v-73l-38 -32q-37 34 -37 65q0 37 13 67zM185 616v-71l-57 24l-44 81z" />
    <glyph glyph-name="guillemotleft" unicode="&#xab;" horiz-adv-x="441" 
d="M229 115l-123 173l127 155l-28 25l-172 -215l139 -195zM384 115l-123 173l127 155l-28 25l-172 -215l139 -195z" />
    <glyph glyph-name="logicalnot" unicode="&#xac;" 
d="M362 0h104v283h-433v-94h329v-189z" />
    <glyph glyph-name="registered" unicode="&#xae;" horiz-adv-x="777" 
d="M389 679v-1q-144 0 -245 -101t-101 -244t101 -244q101 -100 245 -100q143 0 243 100q101 101 101 244t-101 244q-101 100 -243 102zM389 631v-1q122 0 206 -88q85 -86 85 -209q0 -122 -85 -210q-84 -87 -206 -87q-123 0 -208 87q-85 88 -85 210q0 123 85 209
q85 87 208 89zM241 528v-390h66v167l76 -1q65 -2 78 -26q17 -36 17 -95v-9q0 -22 8 -36l64 -1q-5 11 -8.5 28.5t-4.5 41.5q-1 25 -2.5 41.5t-5.5 26.5q-12 34 -53 49q69 30 69 99q0 55 -38 78q-32 19 -84 25q-5 1 -9.5 1.5t-7.5 0.5h-165zM307 486l87 -1q86 -2 86 -67
q0 -73 -93 -73h-80v141z" />
    <glyph glyph-name="macron" unicode="&#xaf;" 
d="M395 645h-291v-47h291v47z" />
    <glyph glyph-name="degree" unicode="&#xb0;" 
d="M397 518v-1q0 61 -44 105t-104 44q-64 0 -106 -45q-41 -44 -41 -108q0 -57 44 -101q43 -42 103 -42q61 0 104 43q44 44 44 105zM351 518v-1q0 -21 -8 -39.5t-22.5 -32.5t-33 -22t-39.5 -8q-40 0 -70 30t-30 70q0 21 8 40.5t21.5 33.5t32 22.5t39.5 8.5q41 0 71 -31
q31 -30 31 -71z" />
    <glyph glyph-name="plusminus" unicode="&#xb1;" 
d="M18 96v-53h464v53h-464zM18 384v-54h204v-190h55v190h205v54h-205v195h-55v-195h-204z" />
    <glyph glyph-name="acute" unicode="&#xb4;" 
d="M154 573l157 33l35 87h-87z" />
    <glyph glyph-name="mu" unicode="&#xb5;" horiz-adv-x="554" 
d="M60 -167h98v223q40 -66 116 -66q85 0 121 92v-82h98v479h-98v-257q0 -63 -28 -106q-33 -51 -92 -51q-117 0 -117 151v263h-98v-646z" />
    <glyph glyph-name="paragraph" unicode="&#xb6;" horiz-adv-x="580" 
d="M236 -112h55v736h100v-736h55v736h56v43l-244 -1q-220 -1 -220 -177q0 -75 50 -125q49 -48 127 -48h21v-428z" />
    <glyph glyph-name="periodcentered" unicode="&#xb7;" horiz-adv-x="490" 
d="M173 237l72 -72l72 72l-72 72z" />
    <glyph glyph-name="periodcentered" unicode="&#x2219;" horiz-adv-x="490" 
d="M173 237l72 -72l72 72l-72 72z" />
    <glyph glyph-name="cedilla" unicode="&#xb8;" 
d="M170 -84l4 -2q65 -33 65 -81q0 -23 -19 -51l6 -5q71 33 71 93q0 28 -35 63q-4 6 -10 10l78 64l-19 24z" />
    <glyph glyph-name="ordmasculine" unicode="&#xba;" horiz-adv-x="348" 
d="M323 342h-299v-49h299v49zM266 428v212q-51 13 -95 43q-42 -36 -85 -48v-158q0 -6 -0.5 -12t-1.5 -11q-5 -12 -8 -15.5t-6 -5.5v-8q57 -5 109 -46q29 17 50.5 29.5t36.5 19.5zM145 638l62 -27v-182l-62 27v182z" />
    <glyph glyph-name="guillemotright" unicode="&#xbb;" horiz-adv-x="441" 
d="M56 411l124 -174l-127 -154l27 -25l173 215l-140 195zM211 411l124 -174l-127 -154l27 -25l173 215l-140 195z" />
    <glyph glyph-name="questiondown" unicode="&#xbf;" horiz-adv-x="286" 
d="M138 -149l85 85q-34 79 -51.5 171.5t-19.5 200.5l-25 -1q-9 -222 -70 -375zM138 340l71 71l-71 72l-71 -72z" />
    <glyph glyph-name="Agrave" unicode="&#xc0;" horiz-adv-x="629" 
d="M632 79l-16 17q-1 -1 -4 -3.5t-4 -3.5q-18 -15 -29 -15q-13 0 -19 14q-10 21 -10 64v4v4l-16 338q-1 11 -1 16t0 4v17q0 36 9 60q10 28 52 56l16 11l-11 16q-29 -13 -55 -32t-49 -44l-14 10.5t-11 7.5q-97 62 -194 62h-4h-5q-94 -4 -167 -73t-73 -161q0 -128 127 -207
l-72 -106q-8 -13 -17 -25t-17 -25q-18 -30 -18 -57q0 -3 1 -5v-5q7 -31 33 -31q24 0 26 20q0 5 -3 12.5t-7 15t-7.5 14.5t-3.5 10q0 8 7 15t15 7q18 0 42 -9q71 -29 153 -88l168 131q1 -21 3 -37.5t5 -29.5q8 -36 57 -64zM449 221l4 -78l-97 -75l-229 97l39 56h283zM304 458
l-136 -196q-103 73 -103 175q0 65 51 109q64 53 137 53t129 -30l-28 -42q-46 11 -83 11q-73 0 -110 -93l18 -9q31 40 68 40q24 0 57 -18zM434 530l11 -238h-230l186 264q20 -13 33 -26zM563 743l-105 120h-87l35 -87z" />
    <glyph glyph-name="Aacute" unicode="&#xc1;" horiz-adv-x="629" 
d="M632 79l-16 17q-1 -1 -4 -3.5t-4 -3.5q-18 -15 -29 -15q-13 0 -19 14q-10 21 -10 64v4v4l-16 338q-1 11 -1 16t0 4v17q0 36 9 60q10 28 52 56l16 11l-11 16q-29 -13 -55 -32t-49 -44l-14 10.5t-11 7.5q-97 62 -194 62h-4h-5q-94 -4 -167 -73t-73 -161q0 -128 127 -207
l-72 -106q-8 -13 -17 -25t-17 -25q-18 -30 -18 -57q0 -3 1 -5v-5q7 -31 33 -31q24 0 26 20q0 5 -3 12.5t-7 15t-7.5 14.5t-3.5 10q0 8 7 15t15 7q18 0 42 -9q71 -29 153 -88l168 131q1 -21 3 -37.5t5 -29.5q8 -36 57 -64zM449 221l4 -78l-97 -75l-229 97l39 56h283zM304 458
l-136 -196q-103 73 -103 175q0 65 51 109q64 53 137 53t129 -30l-28 -42q-46 11 -83 11q-73 0 -110 -93l18 -9q31 40 68 40q24 0 57 -18zM434 530l11 -238h-230l186 264q20 -13 33 -26zM365 743l157 33l35 87h-87z" />
    <glyph glyph-name="Acircumflex" unicode="&#xc2;" horiz-adv-x="629" 
d="M632 79l-16 17q-1 -1 -4 -3.5t-4 -3.5q-18 -15 -29 -15q-13 0 -19 14q-10 21 -10 64v4v4l-16 338q-1 11 -1 16t0 4v17q0 36 9 60q10 28 52 56l16 11l-11 16q-29 -13 -55 -32t-49 -44l-14 10.5t-11 7.5q-97 62 -194 62h-4h-5q-94 -4 -167 -73t-73 -161q0 -128 127 -207
l-72 -106q-8 -13 -17 -25t-17 -25q-18 -30 -18 -57q0 -3 1 -5v-5q7 -31 33 -31q24 0 26 20q0 5 -3 12.5t-7 15t-7.5 14.5t-3.5 10q0 8 7 15t15 7q18 0 42 -9q71 -29 153 -88l168 131q1 -21 3 -37.5t5 -29.5q8 -36 57 -64zM449 221l4 -78l-97 -75l-229 97l39 56h283zM304 458
l-136 -196q-103 73 -103 175q0 65 51 109q64 53 137 53t129 -30l-28 -42q-46 11 -83 11q-73 0 -110 -93l18 -9q31 40 68 40q24 0 57 -18zM434 530l11 -238h-230l186 264q20 -13 33 -26zM307 734l22 -12l78 79l146 -79l63 65l-166 95z" />
    <glyph glyph-name="Atilde" unicode="&#xc3;" horiz-adv-x="629" 
d="M632 79l-16 17q-1 -1 -4 -3.5t-4 -3.5q-18 -15 -29 -15q-13 0 -19 14q-10 21 -10 64v4v4l-16 338q-1 11 -1 16t0 4v17q0 36 9 60q10 28 52 56l16 11l-11 16q-29 -13 -55 -32t-49 -44l-14 10.5t-11 7.5q-97 62 -194 62h-4h-5q-94 -4 -167 -73t-73 -161q0 -128 127 -207
l-72 -106q-8 -13 -17 -25t-17 -25q-18 -30 -18 -57q0 -3 1 -5v-5q7 -31 33 -31q24 0 26 20q0 5 -3 12.5t-7 15t-7.5 14.5t-3.5 10q0 8 7 15t15 7q18 0 42 -9q71 -29 153 -88l168 131q1 -21 3 -37.5t5 -29.5q8 -36 57 -64zM449 221l4 -78l-97 -75l-229 97l39 56h283zM304 458
l-136 -196q-103 73 -103 175q0 65 51 109q64 53 137 53t129 -30l-28 -42q-46 11 -83 11q-73 0 -110 -93l18 -9q31 40 68 40q24 0 57 -18zM434 530l11 -238h-230l186 264q20 -13 33 -26zM300 773l21 -15l49 39l132 -76l139 121l-21 16l-66 -58l-133 75z" />
    <glyph glyph-name="Adieresis" unicode="&#xc4;" horiz-adv-x="629" 
d="M632 79l-16 17q-1 -1 -4 -3.5t-4 -3.5q-18 -15 -29 -15q-13 0 -19 14q-10 21 -10 64v4v4l-16 338q-1 11 -1 16t0 4v17q0 36 9 60q10 28 52 56l16 11l-11 16q-29 -13 -55 -32t-49 -44l-14 10.5t-11 7.5q-97 62 -194 62h-4h-5q-94 -4 -167 -73t-73 -161q0 -128 127 -207
l-72 -106q-8 -13 -17 -25t-17 -25q-18 -30 -18 -57q0 -3 1 -5v-5q7 -31 33 -31q24 0 26 20q0 5 -3 12.5t-7 15t-7.5 14.5t-3.5 10q0 8 7 15t15 7q18 0 42 -9q71 -29 153 -88l168 131q1 -21 3 -37.5t5 -29.5q8 -36 57 -64zM449 221l4 -78l-97 -75l-229 97l39 56h283zM304 458
l-136 -196q-103 73 -103 175q0 65 51 109q64 53 137 53t129 -30l-28 -42q-46 11 -83 11q-73 0 -110 -93l18 -9q31 40 68 40q24 0 57 -18zM434 530l11 -238h-230l186 264q20 -13 33 -26zM308 798l63 -63l62 63l-62 63zM493 798l63 -63l62 63l-62 63z" />
    <glyph glyph-name="Aring" unicode="&#xc5;" horiz-adv-x="629" 
d="M632 79l-16 17q-1 -1 -4 -3.5t-4 -3.5q-18 -15 -29 -15q-13 0 -19 14q-10 21 -10 64v4v4l-16 338q-1 11 -1 16t0 4v17q0 36 9 60q10 28 52 56l16 11l-11 16q-29 -13 -55 -32t-49 -44l-14 10.5t-11 7.5q-97 62 -194 62h-4h-5q-94 -4 -167 -73t-73 -161q0 -128 127 -207
l-72 -106q-8 -13 -17 -25t-17 -25q-18 -30 -18 -57q0 -3 1 -5v-5q7 -31 33 -31q24 0 26 20q0 5 -3 12.5t-7 15t-7.5 14.5t-3.5 10q0 8 7 15t15 7q18 0 42 -9q71 -29 153 -88l168 131q1 -21 3 -37.5t5 -29.5q8 -36 57 -64zM449 221l4 -78l-97 -75l-229 97l39 56h283zM304 458
l-136 -196q-103 73 -103 175q0 65 51 109q64 53 137 53t129 -30l-28 -42q-46 11 -83 11q-73 0 -110 -93l18 -9q31 40 68 40q24 0 57 -18zM434 530l11 -238h-230l186 264q20 -13 33 -26zM467 696v-1q27 0 60 44q33 43 33 73q0 76 -93 105l-4 -2q-89 -45 -89 -114
q0 -77 93 -105zM497 738v-1q-13 3 -17 6q-69 28 -69 78q0 5 2 13q6 25 22 41q29 0 58 -29t29 -59t-25 -49z" />
    <glyph glyph-name="AE" unicode="&#xc6;" horiz-adv-x="915" 
d="M908 97l-13 14l-44 -42q-76 46 -126 46q-51 0 -114 -20v238q47 -29 89 -29q105 0 151 94l-14 12q-35 -31 -72 -31q-55 0 -100 45l-54 -45v207l36 23q52 -60 116 -60h3h3q91 1 132 78l-11 10q-29 -15 -57 -15q-80 0 -122 59l-168 -115q-116 113 -246 113q-103 0 -179 -72
q-76 -70 -76 -172q0 -65 32 -112q30 -42 88 -80l-73 -100q-10 -14 -20 -27.5t-21 -27.5q-21 -35 -21 -64v-5q4 -28 31 -30q28 -1 28 26q0 6 -9 24v1q-1 0 -1 1q-8 14 -8 21q0 17 20 20h2h1q14 0 39 -11q72 -35 149 -96l175 126v-59q-10 -8 -22 -18t-28 -24l11 -12
q80 46 169 46q108 0 199 -50zM454 209v-80l-98 -73l-226 110l42 56zM591 573v-488q-7 -3 -20 -9.5t-20 -9.5v480zM318 453l-142 -192q-95 71 -95 169q0 78 60 125q55 43 135 43q55 0 123 -39l-30 -42q-43 20 -82 20q-76 0 -107 -93l11 -8q37 37 67 37q26 0 60 -20zM454 516
v-237l-231 10l194 256q10 -7 19 -14t18 -15z" />
    <glyph glyph-name="Ccedilla" unicode="&#xc7;" horiz-adv-x="617" 
d="M359 -9l4 1q156 18 254 176l-11 11q-116 -92 -243 -90v501q78 -38 147 -49l91 85q-109 0 -212 54l-195 -166v-214q0 -42 -4 -57q-7 -28 -33 -46q-54 79 -54 177q0 124 138 243l-9 9q-49 -25 -86.5 -57.5t-65.5 -73.5q-57 -86 -57 -190q0 -125 81 -216q82 -91 206 -98
l-104 -88l4 -2q65 -33 65 -83q0 -20 -17 -48q0 -2 -2 -4l6 -5q71 35 71 95q0 29 -37 66l-9 9zM341 603v-513q-104 11 -171 89q72 60 81 71q28 31 35 72q6 28 6 82v154z" />
    <glyph glyph-name="Egrave" unicode="&#xc8;" horiz-adv-x="634" 
d="M365 388l162 -5l53 92l-115 3l141 142l-6 14q-2 0 -3 -1h-4h-7q-47 0 -90 12q-63 17 -103 42l-196 -156v-232q0 -11 -0.5 -20t-1.5 -16q-5 -27 -35 -54q-55 82 -55 188q0 129 143 230l-9 15q-106 -57 -156 -127q-59 -80 -59 -190q0 -137 91 -232q92 -95 226 -95
q86 0 163 48q70 46 117 126l-7 8q-120 -88 -249 -86v294zM344 612v-517q-106 16 -171 98q79 67 82 70q37 41 37 102v204zM365 407v193q65 -38 142 -50zM413 741l-105 120h-87l35 -87z" />
    <glyph glyph-name="Eacute" unicode="&#xc9;" horiz-adv-x="634" 
d="M365 388l162 -5l53 92l-115 3l141 142l-6 14q-2 0 -3 -1h-4h-7q-47 0 -90 12q-63 17 -103 42l-196 -156v-232q0 -11 -0.5 -20t-1.5 -16q-5 -27 -35 -54q-55 82 -55 188q0 129 143 230l-9 15q-106 -57 -156 -127q-59 -80 -59 -190q0 -137 91 -232q92 -95 226 -95
q86 0 163 48q70 46 117 126l-7 8q-120 -88 -249 -86v294zM344 612v-517q-106 16 -171 98q79 67 82 70q37 41 37 102v204zM365 407v193q65 -38 142 -50zM221 741l157 33l35 87h-87z" />
    <glyph glyph-name="Ecircumflex" unicode="&#xca;" horiz-adv-x="634" 
d="M365 388l162 -5l53 92l-115 3l141 142l-6 14q-2 0 -3 -1h-4h-7q-47 0 -90 12q-63 17 -103 42l-196 -156v-232q0 -11 -0.5 -20t-1.5 -16q-5 -27 -35 -54q-55 82 -55 188q0 129 143 230l-9 15q-106 -57 -156 -127q-59 -80 -59 -190q0 -137 91 -232q92 -95 226 -95
q86 0 163 48q70 46 117 126l-7 8q-120 -88 -249 -86v294zM344 612v-517q-106 16 -171 98q79 67 82 70q37 41 37 102v204zM365 407v193q65 -38 142 -50zM163 722l22 -12l78 79l146 -79l63 65l-166 95z" />
    <glyph glyph-name="Edieresis" unicode="&#xcb;" horiz-adv-x="634" 
d="M365 388l162 -5l53 92l-115 3l141 142l-6 14q-2 0 -3 -1h-4h-7q-47 0 -90 12q-63 17 -103 42l-196 -156v-232q0 -11 -0.5 -20t-1.5 -16q-5 -27 -35 -54q-55 82 -55 188q0 129 143 230l-9 15q-106 -57 -156 -127q-59 -80 -59 -190q0 -137 91 -232q92 -95 226 -95
q86 0 163 48q70 46 117 126l-7 8q-120 -88 -249 -86v294zM344 612v-517q-106 16 -171 98q79 67 82 70q37 41 37 102v204zM365 407v193q65 -38 142 -50zM162 787l63 -63l62 63l-62 63zM347 787l63 -63l62 63l-62 63z" />
    <glyph glyph-name="Igrave" unicode="&#xcc;" horiz-adv-x="518" 
d="M-1 -9h1q28 51 72 51q38 0 110 -27q73 -27 113 -27q76 0 123 57q38 49 46 132q1 11 1.5 19.5t0.5 13.5q0 31 -4.5 73.5t-12.5 98.5q-18 118 -18 171q0 80 76 99l15 4l-10 16q-160 -24 -160 -214q0 -29 4.5 -72t12.5 -101t12.5 -101.5t4.5 -72.5q0 -39 -20 -65t-58 -26
q-29 0 -79 44q-14 13 -24 21t-17 12q59 6 88 27q34 25 34 82q0 23 -3 56t-8 78t-8 78.5t-3 56.5q0 114 88 190l-9 10q-36 -17 -72 -17q-25 0 -69 10q-47 11 -70 11q-46 0 -78.5 -31.5t-37.5 -79.5l11 -3q24 51 71 51q5 0 11 -0.5t11 -1.5q26 -5 42.5 -7.5t21.5 -2.5
q25 0 83 20q6 2 7 3q-93 -90 -98 -224q-9 2 -13 2.5t-8 1.5h-8q-68 0 -111 -79l9 -7q32 29 68 29q39 0 59 -29q33 -50 33 -115q0 -61 -26 -75q-29 -15 -85 -20q-98 -9 -131 -116zM355 741l-105 120h-87l35 -87z" />
    <glyph glyph-name="Iacute" unicode="&#xcd;" horiz-adv-x="518" 
d="M-1 -9h1q28 51 72 51q38 0 110 -27q73 -27 113 -27q76 0 123 57q38 49 46 132q1 11 1.5 19.5t0.5 13.5q0 31 -4.5 73.5t-12.5 98.5q-18 118 -18 171q0 80 76 99l15 4l-10 16q-160 -24 -160 -214q0 -29 4.5 -72t12.5 -101t12.5 -101.5t4.5 -72.5q0 -39 -20 -65t-58 -26
q-29 0 -79 44q-14 13 -24 21t-17 12q59 6 88 27q34 25 34 82q0 23 -3 56t-8 78t-8 78.5t-3 56.5q0 114 88 190l-9 10q-36 -17 -72 -17q-25 0 -69 10q-47 11 -70 11q-46 0 -78.5 -31.5t-37.5 -79.5l11 -3q24 51 71 51q5 0 11 -0.5t11 -1.5q26 -5 42.5 -7.5t21.5 -2.5
q25 0 83 20q6 2 7 3q-93 -90 -98 -224q-9 2 -13 2.5t-8 1.5h-8q-68 0 -111 -79l9 -7q32 29 68 29q39 0 59 -29q33 -50 33 -115q0 -61 -26 -75q-29 -15 -85 -20q-98 -9 -131 -116zM163 741l157 33l35 87h-87z" />
    <glyph glyph-name="Icircumflex" unicode="&#xce;" horiz-adv-x="518" 
d="M-1 -9h1q28 51 72 51q38 0 110 -27q73 -27 113 -27q76 0 123 57q38 49 46 132q1 11 1.5 19.5t0.5 13.5q0 31 -4.5 73.5t-12.5 98.5q-18 118 -18 171q0 80 76 99l15 4l-10 16q-160 -24 -160 -214q0 -29 4.5 -72t12.5 -101t12.5 -101.5t4.5 -72.5q0 -39 -20 -65t-58 -26
q-29 0 -79 44q-14 13 -24 21t-17 12q59 6 88 27q34 25 34 82q0 23 -3 56t-8 78t-8 78.5t-3 56.5q0 114 88 190l-9 10q-36 -17 -72 -17q-25 0 -69 10q-47 11 -70 11q-46 0 -78.5 -31.5t-37.5 -79.5l11 -3q24 51 71 51q5 0 11 -0.5t11 -1.5q26 -5 42.5 -7.5t21.5 -2.5
q25 0 83 20q6 2 7 3q-93 -90 -98 -224q-9 2 -13 2.5t-8 1.5h-8q-68 0 -111 -79l9 -7q32 29 68 29q39 0 59 -29q33 -50 33 -115q0 -61 -26 -75q-29 -15 -85 -20q-98 -9 -131 -116zM105 722l22 -12l78 79l146 -79l63 65l-166 95z" />
    <glyph glyph-name="Idieresis" unicode="&#xcf;" horiz-adv-x="518" 
d="M-1 -9h1q28 51 72 51q38 0 110 -27q73 -27 113 -27q76 0 123 57q38 49 46 132q1 11 1.5 19.5t0.5 13.5q0 31 -4.5 73.5t-12.5 98.5q-18 118 -18 171q0 80 76 99l15 4l-10 16q-160 -24 -160 -214q0 -29 4.5 -72t12.5 -101t12.5 -101.5t4.5 -72.5q0 -39 -20 -65t-58 -26
q-29 0 -79 44q-14 13 -24 21t-17 12q59 6 88 27q34 25 34 82q0 23 -3 56t-8 78t-8 78.5t-3 56.5q0 114 88 190l-9 10q-36 -17 -72 -17q-25 0 -69 10q-47 11 -70 11q-46 0 -78.5 -31.5t-37.5 -79.5l11 -3q24 51 71 51q5 0 11 -0.5t11 -1.5q26 -5 42.5 -7.5t21.5 -2.5
q25 0 83 20q6 2 7 3q-93 -90 -98 -224q-9 2 -13 2.5t-8 1.5h-8q-68 0 -111 -79l9 -7q32 29 68 29q39 0 59 -29q33 -50 33 -115q0 -61 -26 -75q-29 -15 -85 -20q-98 -9 -131 -116zM104 787l63 -63l62 63l-62 63zM289 787l63 -63l62 63l-62 63z" />
    <glyph glyph-name="Ntilde" unicode="&#xd1;" horiz-adv-x="789" 
d="M789 134l-23 9l-33 -56l-14 2q-7 1 -13.5 1.5t-13.5 0.5h-14q-67 0 -118 -17l7.5 10.5t3.5 5.5l70 94q39 52 69 120q16 34 23 68t6 68q-3 99 -78 159t-165 81l-301 -147v-97q-47 25 -84 25q-51 0 -85 -43l10 -13q26 16 51 16q48 0 77 -35q26 -31 31 -81q-40 34 -84 34
q-46 0 -85 -41l10 -15q23 13 53 13q92 0 116 -97q-42 20 -66 20q-44 0 -79 -47l12 -13q31 20 54 20q19 0 36.5 -7t30.5 -19.5t21 -29.5t8 -36q0 -31 -17.5 -50.5t-47.5 -19.5q-17 0 -53 9q-26 4 -41.5 5.5t-20.5 2.5h-2h-4q-68 0 -122 -79l13 -11q44 23 77 23q28 0 82 -15
q52 -16 83 -16q100 0 154 77q34 49 34 145v94q46 29 114 38q3 1 8 1h7q30 0 54 -7q46 -14 77 -36q-10 -24 -30.5 -62t-51.5 -91q-56 -97 -77 -155l23 -8q43 79 132 79q45 0 93 -21zM337 568v-390v-1v-2q0 -79 -17 -116q-24 -53 -94 -57q43 25 57 73q9 30 9 96v377l22 10
q5 2 11 5t12 5zM357 280v123q72 -36 132 -36q78 0 157 52q0 -4 0.5 -8.5t1.5 -9.5q0 -5 1 -9v-9q0 -50 -24 -114q-65 44 -143 44q-49 0 -125 -33zM357 432v142q8 2 11 2q31 9 65 9q72 0 127.5 -37.5t79.5 -104.5q-80 -53 -151 -53q-69 0 -132 42zM299 765l21 -15l49 39
l132 -76l139 121l-21 16l-66 -58l-133 75z" />
    <glyph glyph-name="Ograve" unicode="&#xd2;" horiz-adv-x="731" 
d="M67 485v-1q-44 -111 -44 -197q0 -125 81 -210q83 -86 205 -86q115 0 231 97q109 91 150 204q17 48 17 87q0 117 -92 200q-79 71 -204 97q-16 4 -19 4zM341 591v-526q-94 11 -163 80q67 52 84 78q28 40 28 113v257q13 0 25.5 -0.5t25.5 -1.5zM363 66v182q45 52 110 52
q68 0 118 -59q-26 -77 -86 -125q-65 -51 -142 -50zM197 536v-263q0 -45 -4 -60q-8 -29 -30 -51q-63 88 -63 182q0 119 97 192zM363 279v150q56 -44 115 -44q58 0 119 44q14 -44 14 -74v-15q-1 -5 -1 -9v-6q-2 -19 -5 -34t-6 -26q-62 57 -126 57q-58 0 -110 -43zM363 452v136
q166 -24 226 -137q-49 -46 -112 -46q-59 0 -114 47zM461 740l-105 120h-87l35 -87z" />
    <glyph glyph-name="Oacute" unicode="&#xd3;" horiz-adv-x="731" 
d="M67 485v-1q-44 -111 -44 -197q0 -125 81 -210q83 -86 205 -86q115 0 231 97q109 91 150 204q17 48 17 87q0 117 -92 200q-79 71 -204 97q-16 4 -19 4zM341 591v-526q-94 11 -163 80q67 52 84 78q28 40 28 113v257q13 0 25.5 -0.5t25.5 -1.5zM363 66v182q45 52 110 52
q68 0 118 -59q-26 -77 -86 -125q-65 -51 -142 -50zM197 536v-263q0 -45 -4 -60q-8 -29 -30 -51q-63 88 -63 182q0 119 97 192zM363 279v150q56 -44 115 -44q58 0 119 44q14 -44 14 -74v-15q-1 -5 -1 -9v-6q-2 -19 -5 -34t-6 -26q-62 57 -126 57q-58 0 -110 -43zM363 452v136
q166 -24 226 -137q-49 -46 -112 -46q-59 0 -114 47zM269 740l157 33l35 87h-87z" />
    <glyph glyph-name="Ocircumflex" unicode="&#xd4;" horiz-adv-x="731" 
d="M67 485v-1q-44 -111 -44 -197q0 -125 81 -210q83 -86 205 -86q115 0 231 97q109 91 150 204q17 48 17 87q0 117 -92 200q-79 71 -204 97q-16 4 -19 4zM341 591v-526q-94 11 -163 80q67 52 84 78q28 40 28 113v257q13 0 25.5 -0.5t25.5 -1.5zM363 66v182q45 52 110 52
q68 0 118 -59q-26 -77 -86 -125q-65 -51 -142 -50zM197 536v-263q0 -45 -4 -60q-8 -29 -30 -51q-63 88 -63 182q0 119 97 192zM363 279v150q56 -44 115 -44q58 0 119 44q14 -44 14 -74v-15q-1 -5 -1 -9v-6q-2 -19 -5 -34t-6 -26q-62 57 -126 57q-58 0 -110 -43zM363 452v136
q166 -24 226 -137q-49 -46 -112 -46q-59 0 -114 47zM211 722l22 -12l78 79l146 -79l63 65l-166 95z" />
    <glyph glyph-name="Otilde" unicode="&#xd5;" horiz-adv-x="731" 
d="M67 485v-1q-44 -111 -44 -197q0 -125 81 -210q83 -86 205 -86q115 0 231 97q109 91 150 204q17 48 17 87q0 117 -92 200q-79 71 -204 97q-16 4 -19 4zM341 591v-526q-94 11 -163 80q67 52 84 78q28 40 28 113v257q13 0 25.5 -0.5t25.5 -1.5zM363 66v182q45 52 110 52
q68 0 118 -59q-26 -77 -86 -125q-65 -51 -142 -50zM197 536v-263q0 -45 -4 -60q-8 -29 -30 -51q-63 88 -63 182q0 119 97 192zM363 279v150q56 -44 115 -44q58 0 119 44q14 -44 14 -74v-15q-1 -5 -1 -9v-6q-2 -19 -5 -34t-6 -26q-62 57 -126 57q-58 0 -110 -43zM363 452v136
q166 -24 226 -137q-49 -46 -112 -46q-59 0 -114 47zM195 761l21 -15l49 39l132 -76l139 121l-21 16l-66 -58l-133 75z" />
    <glyph glyph-name="Odieresis" unicode="&#xd6;" horiz-adv-x="731" 
d="M67 485v-1q-44 -111 -44 -197q0 -125 81 -210q83 -86 205 -86q115 0 231 97q109 91 150 204q17 48 17 87q0 117 -92 200q-79 71 -204 97q-16 4 -19 4zM341 591v-526q-94 11 -163 80q67 52 84 78q28 40 28 113v257q13 0 25.5 -0.5t25.5 -1.5zM363 66v182q45 52 110 52
q68 0 118 -59q-26 -77 -86 -125q-65 -51 -142 -50zM197 536v-263q0 -45 -4 -60q-8 -29 -30 -51q-63 88 -63 182q0 119 97 192zM363 279v150q56 -44 115 -44q58 0 119 44q14 -44 14 -74v-15q-1 -5 -1 -9v-6q-2 -19 -5 -34t-6 -26q-62 57 -126 57q-58 0 -110 -43zM363 452v136
q166 -24 226 -137q-49 -46 -112 -46q-59 0 -114 47zM223 786l63 -63l62 63l-62 63zM408 786l63 -63l62 63l-62 63z" />
    <glyph glyph-name="multiply" unicode="&#xd7;" 
d="M67 202l37 -37l145 144l138 -139l39 39l-139 139l145 145l-37 37l-145 -145l-138 138l-39 -39l138 -138z" />
    <glyph glyph-name="Oslash" unicode="&#xd8;" horiz-adv-x="733" 
d="M67 484v-1q-44 -117 -44 -196q0 -118 78 -208l-71 -87l32 -18l67 80q88 -63 173 -63q119 0 243 101q118 97 154 215q11 38 11 72q0 136 -131 232l67 84l-31 18l-67 -83q-70 35 -155 50zM365 65v183q49 52 110 52q65 0 118 -60q-31 -77 -87 -124q-63 -53 -141 -51z
M340 591v-526q-33 0 -85 26q-51 26 -76 54q10 7 19.5 15t18.5 16q53 50 68 86q7 24 7 59v273q31 -2 48 -3zM197 537v-273q0 -74 -35 -101q-62 89 -62 185q0 114 97 189zM365 279v149q65 -43 113 -43q60 0 121 43q15 -42 14 -88q-1 -14 -4 -32.5t-10 -42.5q-57 57 -125 57
q-53 0 -109 -43zM365 453v134q63 -4 129 -43q68 -39 96 -94q-50 -45 -113 -45q-52 0 -112 48z" />
    <glyph glyph-name="Ugrave" unicode="&#xd9;" horiz-adv-x="736" 
d="M732 62l-13 18q-14 -9 -27 -9q-14 0 -20 11q-10 17 -10 52v352q0 83 33 124q9 10 16 17.5t12 12.5l-18 15l-47 -49l-94 70l-111 -116l15 -15l52 53l44 -35v-142q-25 -16 -64 -20h-14q-46 5 -79 32v258l-14 -1q-12 -15 -29 -23q-27 -13 -65 -13q-30 0 -94 21
q-66 21 -92 20q-56 -3 -81 -45q-32 -56 -32 -136v-7q0 -5 1 -7l20 -1q0 111 78 111h15t15 -1q38 -4 60 -6t30 -2h16q13 2 21 2.5t11 1.5q-116 -77 -165 -139q-67 -85 -67 -200q0 -113 72 -192q74 -83 184 -83q64 0 115 17q73 25 156 98q1 -46 16 -75q16 -31 54 -52zM385 636
v-571h-13q-2 -1 -6 -1h-13h-6q-75 4 -126 42q49 29 88 71q35 38 35 103v246q0 66 41 110zM407 69v201q37 23 73 23q37 0 84 -24v-127q-83 -65 -157 -73zM200 126v-1q-70 76 -70 188q0 100 60 183q56 75 149 124q-26 -33 -42 -54t-21 -29q-29 -49 -29 -101v-178
q0 -97 -47 -132zM407 297v108q30 -20 64 -24q3 -1 8 -1h6q47 0 79 17v-104q-41 22 -84 22q-30 0 -73 -18zM463 740l-105 120h-87l35 -87z" />
    <glyph glyph-name="Uacute" unicode="&#xda;" horiz-adv-x="736" 
d="M732 62l-13 18q-14 -9 -27 -9q-14 0 -20 11q-10 17 -10 52v352q0 83 33 124q9 10 16 17.5t12 12.5l-18 15l-47 -49l-94 70l-111 -116l15 -15l52 53l44 -35v-142q-25 -16 -64 -20h-14q-46 5 -79 32v258l-14 -1q-12 -15 -29 -23q-27 -13 -65 -13q-30 0 -94 21
q-66 21 -92 20q-56 -3 -81 -45q-32 -56 -32 -136v-7q0 -5 1 -7l20 -1q0 111 78 111h15t15 -1q38 -4 60 -6t30 -2h16q13 2 21 2.5t11 1.5q-116 -77 -165 -139q-67 -85 -67 -200q0 -113 72 -192q74 -83 184 -83q64 0 115 17q73 25 156 98q1 -46 16 -75q16 -31 54 -52zM385 636
v-571h-13q-2 -1 -6 -1h-13h-6q-75 4 -126 42q49 29 88 71q35 38 35 103v246q0 66 41 110zM407 69v201q37 23 73 23q37 0 84 -24v-127q-83 -65 -157 -73zM200 126v-1q-70 76 -70 188q0 100 60 183q56 75 149 124q-26 -33 -42 -54t-21 -29q-29 -49 -29 -101v-178
q0 -97 -47 -132zM407 297v108q30 -20 64 -24q3 -1 8 -1h6q47 0 79 17v-104q-41 22 -84 22q-30 0 -73 -18zM271 740l157 33l35 87h-87z" />
    <glyph glyph-name="Ucircumflex" unicode="&#xdb;" horiz-adv-x="736" 
d="M732 62l-13 18q-14 -9 -27 -9q-14 0 -20 11q-10 17 -10 52v352q0 83 33 124q9 10 16 17.5t12 12.5l-18 15l-47 -49l-94 70l-111 -116l15 -15l52 53l44 -35v-142q-25 -16 -64 -20h-14q-46 5 -79 32v258l-14 -1q-12 -15 -29 -23q-27 -13 -65 -13q-30 0 -94 21
q-66 21 -92 20q-56 -3 -81 -45q-32 -56 -32 -136v-7q0 -5 1 -7l20 -1q0 111 78 111h15t15 -1q38 -4 60 -6t30 -2h16q13 2 21 2.5t11 1.5q-116 -77 -165 -139q-67 -85 -67 -200q0 -113 72 -192q74 -83 184 -83q64 0 115 17q73 25 156 98q1 -46 16 -75q16 -31 54 -52zM385 636
v-571h-13q-2 -1 -6 -1h-13h-6q-75 4 -126 42q49 29 88 71q35 38 35 103v246q0 66 41 110zM407 69v201q37 23 73 23q37 0 84 -24v-127q-83 -65 -157 -73zM200 126v-1q-70 76 -70 188q0 100 60 183q56 75 149 124q-26 -33 -42 -54t-21 -29q-29 -49 -29 -101v-178
q0 -97 -47 -132zM407 297v108q30 -20 64 -24q3 -1 8 -1h6q47 0 79 17v-104q-41 22 -84 22q-30 0 -73 -18zM213 722l22 -12l78 79l146 -79l63 65l-166 95z" />
    <glyph glyph-name="Udieresis" unicode="&#xdc;" horiz-adv-x="736" 
d="M732 62l-13 18q-14 -9 -27 -9q-14 0 -20 11q-10 17 -10 52v352q0 83 33 124q9 10 16 17.5t12 12.5l-18 15l-47 -49l-94 70l-111 -116l15 -15l52 53l44 -35v-142q-25 -16 -64 -20h-14q-46 5 -79 32v258l-14 -1q-12 -15 -29 -23q-27 -13 -65 -13q-30 0 -94 21
q-66 21 -92 20q-56 -3 -81 -45q-32 -56 -32 -136v-7q0 -5 1 -7l20 -1q0 111 78 111h15t15 -1q38 -4 60 -6t30 -2h16q13 2 21 2.5t11 1.5q-116 -77 -165 -139q-67 -85 -67 -200q0 -113 72 -192q74 -83 184 -83q64 0 115 17q73 25 156 98q1 -46 16 -75q16 -31 54 -52zM385 636
v-571h-13q-2 -1 -6 -1h-13h-6q-75 4 -126 42q49 29 88 71q35 38 35 103v246q0 66 41 110zM407 69v201q37 23 73 23q37 0 84 -24v-127q-83 -65 -157 -73zM200 126v-1q-70 76 -70 188q0 100 60 183q56 75 149 124q-26 -33 -42 -54t-21 -29q-29 -49 -29 -101v-178
q0 -97 -47 -132zM407 297v108q30 -20 64 -24q3 -1 8 -1h6q47 0 79 17v-104q-41 22 -84 22q-30 0 -73 -18zM237 786l63 -63l62 63l-62 63zM422 786l63 -63l62 63l-62 63z" />
    <glyph glyph-name="Yacute" unicode="&#xdd;" horiz-adv-x="671" 
d="M30 625v-1q19 11 36 11q79 0 91 -108q1 -9 1.5 -21t0.5 -27v-37q-43 31 -87 31q-21 0 -51 -14l4 -17h4q3 0 4 1h7q60 0 92 -45q26 -39 27 -103v-3v-3q-50 38 -98 38h-9t-9 -1l-18 -2v-14q67 -6 102 -60q30 -45 32 -118v-1v-2q-66 0 -110 -34q-50 -38 -49 -99
q0 -59 49 -98q48 -35 107 -34q51 2 136 48t116 46h4q2 0 3 -1q14 -2 14 -12q0 -9 -4 -10q-13 -20 -13 -36q0 -19 12 -32t31 -13q44 0 44 49q0 41 -44 67q-36 21 -82 21t-131 -33q-86 -33 -126 -33q-38 0 -65.5 23.5t-27.5 59.5q0 40 31 64q47 35 104 35q17 0 42.5 -0.5
t60.5 -1.5t60 -1h43q284 0 284 316v3v3q-1 88 -53 153q-56 69 -142 69q-48 0 -105 -26q-14 -6 -38 -19.5t-58 -33.5q-20 110 -133 110q-53 0 -100 -38zM252 130v410l45 27v-437h-45zM319 130v141q53 41 99 41q64 0 120 -47q-45 -137 -219 -135zM319 298v136q47 -40 110 -40
q55 0 114 45q7 -25 7 -78q0 -33 -7 -71q-55 44 -122 44q-50 0 -102 -36zM319 464v113q39 19 72 19q54 0 95 -41q36 -37 50 -92q-47 -48 -110 -48q-54 0 -107 49zM243 740l157 33l35 87h-87z" />
    <glyph glyph-name="germandbls" unicode="&#xdf;" horiz-adv-x="430" 
d="M197 55l-37 40v481q40 -37 76 -66t68 -52l-137 -156l11 -13q41 23 69 23q31 0 50 -23.5t19 -54.5q0 -55 -61 -123q-1 -3 -5 -7l-6 -6q-49 -58 -49 -98q0 -15 6.5 -28.5t17.5 -24t25 -16.5t29 -6h5q3 0 4 1q24 3 24 21q0 14 -18 14q-5 -1 -11 -3l-1 -1h-2q-9 -3 -14 -3
q-39 0 -39 44q0 41 71 95q11 7 18.5 12.5t12.5 9.5q102 73 102 143v2v1q-2 51 -35 87q-33 39 -81 39q-10 0 -20.5 -0.5t-21.5 -1.5l122 139l-6 9h-6q-1 -1 -3 -1h-4q-13 0 -27 8q-27 16 -45 34l-101 83q-11 -8 -24.5 -18t-28.5 -21q-28 -17 -48 -31t-33 -25v-428
q0 -54 -31 -66v-22q44 -19 80 -58z" />
    <glyph glyph-name="agrave" unicode="&#xe0;" horiz-adv-x="408" 
d="M407 71l-10 12q-2 -2 -4 -2l-1 -1l-2 -2q-18 -8 -24 -8q-24 3 -25 39v8v198v26t1 23q1 47 35 99l-13 8q-23 -22 -45 -22q-50 0 -125 39l-6 3l-4 2q-50 -42 -122 -42h-11q-1 0 -2 1h-5q-3 0 -3 1l86 -154l-14 -16q-80 -89 -80 -171q0 -65 77 -124l132 106q6 -52 37 -86
q7 -7 12.5 -11.5t9.5 -8.5zM188 263l54 -23v-121l-64 -53q-62 57 -62 109q0 30 12 80q7 30 10 30zM242 379v-119l-95 41l-74 134zM303 573l-105 120h-87l35 -87z" />
    <glyph glyph-name="aacute" unicode="&#xe1;" horiz-adv-x="408" 
d="M407 71l-10 12q-2 -2 -4 -2l-1 -1l-2 -2q-18 -8 -24 -8q-24 3 -25 39v8v198v26t1 23q1 47 35 99l-13 8q-23 -22 -45 -22q-50 0 -125 39l-6 3l-4 2q-50 -42 -122 -42h-11q-1 0 -2 1h-5q-3 0 -3 1l86 -154l-14 -16q-80 -89 -80 -171q0 -65 77 -124l132 106q6 -52 37 -86
q7 -7 12.5 -11.5t9.5 -8.5zM188 263l54 -23v-121l-64 -53q-62 57 -62 109q0 30 12 80q7 30 10 30zM242 379v-119l-95 41l-74 134zM111 573l157 33l35 87h-87z" />
    <glyph glyph-name="acircumflex" unicode="&#xe2;" horiz-adv-x="408" 
d="M407 71l-10 12q-2 -2 -4 -2l-1 -1l-2 -2q-18 -8 -24 -8q-24 3 -25 39v8v198v26t1 23q1 47 35 99l-13 8q-23 -22 -45 -22q-50 0 -125 39l-6 3l-4 2q-50 -42 -122 -42h-11q-1 0 -2 1h-5q-3 0 -3 1l86 -154l-14 -16q-80 -89 -80 -171q0 -65 77 -124l132 106q6 -52 37 -86
q7 -7 12.5 -11.5t9.5 -8.5zM188 263l54 -23v-121l-64 -53q-62 57 -62 109q0 30 12 80q7 30 10 30zM242 379v-119l-95 41l-74 134zM53 566l22 -12l78 79l146 -79l63 65l-166 95z" />
    <glyph glyph-name="atilde" unicode="&#xe3;" horiz-adv-x="408" 
d="M407 71l-10 12q-2 -2 -4 -2l-1 -1l-2 -2q-18 -8 -24 -8q-24 3 -25 39v8v198v26t1 23q1 47 35 99l-13 8q-23 -22 -45 -22q-50 0 -125 39l-6 3l-4 2q-50 -42 -122 -42h-11q-1 0 -2 1h-5q-3 0 -3 1l86 -154l-14 -16q-80 -89 -80 -171q0 -65 77 -124l132 106q6 -52 37 -86
q7 -7 12.5 -11.5t9.5 -8.5zM188 263l54 -23v-121l-64 -53q-62 57 -62 109q0 30 12 80q7 30 10 30zM242 379v-119l-95 41l-74 134zM37 607l21 -15l49 39l132 -76l139 121l-21 16l-66 -58l-133 75z" />
    <glyph glyph-name="adieresis" unicode="&#xe4;" horiz-adv-x="408" 
d="M407 71l-10 12q-2 -2 -4 -2l-1 -1l-2 -2q-18 -8 -24 -8q-24 3 -25 39v8v198v26t1 23q1 47 35 99l-13 8q-23 -22 -45 -22q-50 0 -125 39l-6 3l-4 2q-50 -42 -122 -42h-11q-1 0 -2 1h-5q-3 0 -3 1l86 -154l-14 -16q-80 -89 -80 -171q0 -65 77 -124l132 106q6 -52 37 -86
q7 -7 12.5 -11.5t9.5 -8.5zM188 263l54 -23v-121l-64 -53q-62 57 -62 109q0 30 12 80q7 30 10 30zM242 379v-119l-95 41l-74 134zM68 632l63 -63l62 63l-62 63zM253 632l63 -63l62 63l-62 63z" />
    <glyph glyph-name="aring" unicode="&#xe5;" horiz-adv-x="408" 
d="M407 71l-10 12q-2 -2 -4 -2l-1 -1l-2 -2q-18 -8 -24 -8q-24 3 -25 39v8v198v26t1 23q1 47 35 99l-13 8q-23 -22 -45 -22q-50 0 -125 39l-6 3l-4 2q-50 -42 -122 -42h-11q-1 0 -2 1h-5q-3 0 -3 1l86 -154l-14 -16q-80 -89 -80 -171q0 -65 77 -124l132 106q6 -52 37 -86
q7 -7 12.5 -11.5t9.5 -8.5zM188 263l54 -23v-121l-64 -53q-62 57 -62 109q0 30 12 80q7 30 10 30zM242 379v-119l-95 41l-74 134zM237 525v-1q27 0 60 44q33 43 33 73q0 76 -93 105l-4 -2q-89 -45 -89 -114q0 -77 93 -105zM267 567v-1q-13 3 -17 6q-69 28 -69 78q0 5 2 13
q6 25 22 41q29 0 58 -29t29 -59t-25 -49z" />
    <glyph glyph-name="ae" unicode="&#xe6;" horiz-adv-x="521" 
d="M236 43v-1q71 -19 124 -54l143 100l-9 14l-72 -52q-41 31 -85 46v95l177 152l-125 155l-84 -50q-56 4 -129 45q-46 -46 -104 -46h-17q-5 2 -9.5 2.5t-7.5 1.5l84 -156q-92 -92 -92 -178q0 -77 82 -129zM239 194v-125l-54 -24q-74 57 -74 134v9q0 45 25 94zM239 376v-157
l-96 80l-74 131zM337 222v208l96 -124z" />
    <glyph glyph-name="ccedilla" unicode="&#xe7;" horiz-adv-x="307" 
d="M140 -57l167 136l-10 14l-43 -34l-86 39v304l83 -47l50 74l-116 63q-78 -74 -154 -96v-14q39 0 39 -48v-204q0 -57 -28 -75v-13q65 -9 133 -42l-110 -88q17 0 40 -30q23 -32 23 -50q0 -19 -17 -47q0 -2 -2 -4l6 -5q71 35 71 93q0 28 -46 74z" />
    <glyph glyph-name="egrave" unicode="&#xe8;" horiz-adv-x="356" 
d="M336 86l-10 14l-71 -50q-33 18 -87 45v92l181 150l-122 156q-38 -23 -86 -47.5t-108 -50.5l4 -11q33 0 33 -38v-206v-11q-2 -53 -33 -68v-11q68 -12 154 -62zM168 220v214l102 -131zM274 573l-105 120h-87l35 -87z" />
    <glyph glyph-name="eacute" unicode="&#xe9;" horiz-adv-x="356" 
d="M336 86l-10 14l-71 -50q-33 18 -87 45v92l181 150l-122 156q-38 -23 -86 -47.5t-108 -50.5l4 -11q33 0 33 -38v-206v-11q-2 -53 -33 -68v-11q68 -12 154 -62zM168 220v214l102 -131zM82 573l157 33l35 87h-87z" />
    <glyph glyph-name="ecircumflex" unicode="&#xea;" horiz-adv-x="358" 
d="M336 86l-10 14l-71 -50q-33 18 -87 45v92l181 150l-122 156q-38 -23 -86 -47.5t-108 -50.5l4 -11q33 0 33 -38v-206v-11q-2 -53 -33 -68v-11q68 -12 154 -62zM168 220v214l102 -131zM24 566l22 -12l78 79l146 -79l63 65l-166 95z" />
    <glyph glyph-name="edieresis" unicode="&#xeb;" horiz-adv-x="356" 
d="M336 86l-10 14l-71 -50q-33 18 -87 45v92l181 150l-122 156q-38 -23 -86 -47.5t-108 -50.5l4 -11q33 0 33 -38v-206v-11q-2 -53 -33 -68v-11q68 -12 154 -62zM168 220v214l102 -131zM23 632l63 -63l62 63l-62 63zM208 632l63 -63l62 63l-62 63z" />
    <glyph glyph-name="igrave" unicode="&#xec;" horiz-adv-x="244" 
d="M237 69l-12 17l-30 -25l-28 25v309l34 31l-83 68l-83 -65l35 -30v-256q0 -54 -32 -65v-10q22 -13 45.5 -33t49.5 -47zM218 573l-105 120h-87l35 -87z" />
    <glyph glyph-name="iacute" unicode="&#xed;" horiz-adv-x="244" 
d="M237 69l-12 17l-30 -25l-28 25v309l34 31l-83 68l-83 -65l35 -30v-256q0 -54 -32 -65v-10q22 -13 45.5 -33t49.5 -47zM26 573l157 33l35 87h-87z" />
    <glyph glyph-name="icircumflex" unicode="&#xee;" horiz-adv-x="244" 
d="M237 69l-12 17l-30 -25l-28 25v309l34 31l-83 68l-83 -65l35 -30v-256q0 -54 -32 -65v-10q22 -13 45.5 -33t49.5 -47zM-32 566l22 -12l77 79l146 -79l63 65l-166 95z" />
    <glyph glyph-name="idieresis" unicode="&#xef;" horiz-adv-x="244" 
d="M237 69l-12 17l-30 -25l-28 25v309l34 31l-83 68l-83 -65l35 -30v-256q0 -54 -32 -65v-10q22 -13 45.5 -33t49.5 -47zM-32 632l62 -63l62 63l-62 63zM152 632l63 -63l62 63l-62 63z" />
    <glyph glyph-name="ntilde" unicode="&#xf1;" horiz-adv-x="444" 
d="M12 419l12 -16q14 10 25 10q21 0 22 -34v-3v-16q-1 -1 -1 -4v-260l-39 -36l85 -72l86 70l-34 36v274l69 57l39 -40v-251q0 -75 25 -110q11 -13 19.5 -22t15.5 -14l105 84l-12 19l-8 -6v-1q-14 -11 -23 -11q-24 0 -24 48v199q0 65 19 94q10 13 18 22t14 15l-14 16l-47 -45
l-72 72l-124 -103q0 35 -14 58q-10 16 -43 45zM52 607l21 -15l49 39l132 -76l139 121l-21 16l-66 -58l-133 75z" />
    <glyph glyph-name="ograve" unicode="&#xf2;" horiz-adv-x="389" 
d="M349 66v355q-86 23 -158 72q-63 -57 -141 -81v-228q0 -15 -1 -33t-3 -40q-2 -20 -24 -36v-13q94 -8 182 -74q14 11 32 21.5t38 21.5q11 6 30 15t45 20zM147 416l104 -45v-303l-104 45v303zM290 573l-105 120h-87l35 -87z" />
    <glyph glyph-name="oacute" unicode="&#xf3;" horiz-adv-x="389" 
d="M349 66v355q-86 23 -158 72q-63 -57 -141 -81v-228q0 -15 -1 -33t-3 -40q-2 -20 -24 -36v-13q94 -8 182 -74q14 11 32 21.5t38 21.5q11 6 30 15t45 20zM147 416l104 -45v-303l-104 45v303zM98 573l157 33l35 87h-87z" />
    <glyph glyph-name="ocircumflex" unicode="&#xf4;" horiz-adv-x="389" 
d="M349 66v355q-86 23 -158 72q-63 -57 -141 -81v-228q0 -15 -1 -33t-3 -40q-2 -20 -24 -36v-13q94 -8 182 -74q14 11 32 21.5t38 21.5q11 6 30 15t45 20zM147 416l104 -45v-303l-104 45v303zM40 566l22 -12l78 79l146 -79l63 65l-166 95z" />
    <glyph glyph-name="otilde" unicode="&#xf5;" horiz-adv-x="389" 
d="M349 66v355q-86 23 -158 72q-63 -57 -141 -81v-228q0 -15 -1 -33t-3 -40q-2 -20 -24 -36v-13q94 -8 182 -74q14 11 32 21.5t38 21.5q11 6 30 15t45 20zM147 416l104 -45v-303l-104 45v303zM24 607l21 -15l49 39l132 -76l139 121l-21 16l-66 -58l-133 75z" />
    <glyph glyph-name="odieresis" unicode="&#xf6;" horiz-adv-x="389" 
d="M349 66v355q-86 23 -158 72q-63 -57 -141 -81v-228q0 -15 -1 -33t-3 -40q-2 -20 -24 -36v-13q94 -8 182 -74q14 11 32 21.5t38 21.5q11 6 30 15t45 20zM147 416l104 -45v-303l-104 45v303zM31 632l63 -63l62 63l-62 63zM216 632l63 -63l62 63l-62 63z" />
    <glyph glyph-name="divide" unicode="&#xf7;" horiz-adv-x="667" 
d="M334 693l-260 -360l260 -358l259 358zM334 604l197 -271l-197 -270l-197 270z" />
    <glyph glyph-name="oslash" unicode="&#xf8;" horiz-adv-x="384" 
d="M320 429v-1q-29 9 -61 25.5t-69 39.5q-51 -51 -139 -81v-253q0 -57 -33 -90l-7 -7q-24 -27 -24 -60q0 -35 34 -35q32 0 32 32q-2 4 -3.5 8t-3.5 8q-7 24 -7 27q0 14 17 14h1h1q12 0 30 -5q51 -23 75 -36q31 -17 41 -27q43 37 115 67q26 10 28 12v340l74 87l-30 17z
M147 114v62l103 120v-227zM147 228v187l103 -45v-22z" />
    <glyph glyph-name="ugrave" unicode="&#xf9;" horiz-adv-x="449" 
d="M16 404l13 -16l20 16l21 -16v-264q0 -37 -28 -47v-14q47 -19 109 -75l131 118q0 -37 9 -59q13 -34 52 -59l100 76l-15 16q-10 -10 -23 -10q-26 0 -26 45v277l33 29l-84 73l-81 -73l35 -29v-259l-70 -64l-44 35v288l33 29l-83 73zM321 573l-105 120h-87l35 -87z" />
    <glyph glyph-name="uacute" unicode="&#xfa;" horiz-adv-x="449" 
d="M16 404l13 -16l20 16l21 -16v-264q0 -37 -28 -47v-14q47 -19 109 -75l131 118q0 -37 9 -59q13 -34 52 -59l100 76l-15 16q-10 -10 -23 -10q-26 0 -26 45v277l33 29l-84 73l-81 -73l35 -29v-259l-70 -64l-44 35v288l33 29l-83 73zM129 573l157 33l35 87h-87z" />
    <glyph glyph-name="ucircumflex" unicode="&#xfb;" horiz-adv-x="449" 
d="M16 404l13 -16l20 16l21 -16v-264q0 -37 -28 -47v-14q47 -19 109 -75l131 118q0 -37 9 -59q13 -34 52 -59l100 76l-15 16q-10 -10 -23 -10q-26 0 -26 45v277l33 29l-84 73l-81 -73l35 -29v-259l-70 -64l-44 35v288l33 29l-83 73zM70 566l22 -12l78 79l146 -79l63 65
l-166 95z" />
    <glyph glyph-name="udieresis" unicode="&#xfc;" horiz-adv-x="449" 
d="M16 404l13 -16l20 16l21 -16v-264q0 -37 -28 -47v-14q47 -19 109 -75l131 118q0 -37 9 -59q13 -34 52 -59l100 76l-15 16q-10 -10 -23 -10q-26 0 -26 45v277l33 29l-84 73l-81 -73l35 -29v-259l-70 -64l-44 35v288l33 29l-83 73zM75 632l63 -63l62 63l-62 63zM260 632
l63 -63l62 63l-62 63z" />
    <glyph glyph-name="yacute" unicode="&#xfd;" horiz-adv-x="382" 
d="M4 409l13 -15l2 2l1 1q1 0 2 1q15 12 25 12q22 0 24 -36v-3v-16q-1 -1 -1 -4v-245q0 -47 -32 -94t-32 -75q0 -41 30 -62q25 -19 69 -19q24 0 56 6q67 13 67 43q0 21 -20 21q-17 0 -42 -25q-29 -24 -63 -24q-30 0 -51 15.5t-21 43.5q0 27 20 47q26 20 46 33t34 21
q58 35 98 63t63 51q80 78 80 173v9q0 5 -1 8q-6 50 -18 80q-16 37 -46 69l-137 -110q0 67 -46 100q-8 5 -12 8.5t-6 4.5zM169 355l68 53q38 -55 38 -122v-6v-6q-4 -54 -32.5 -105.5t-73.5 -81.5v268zM95 573l157 33l35 87h-87z" />
    <glyph glyph-name="ydieresis" unicode="&#xff;" horiz-adv-x="382" 
d="M4 409l13 -15l2 2l1 1q1 0 2 1q15 12 25 12q22 0 24 -36v-3v-16q-1 -1 -1 -4v-245q0 -47 -32 -94t-32 -75q0 -41 30 -62q25 -19 69 -19q24 0 56 6q67 13 67 43q0 21 -20 21q-17 0 -42 -25q-29 -24 -63 -24q-30 0 -51 15.5t-21 43.5q0 27 20 47q26 20 46 33t34 21
q58 35 98 63t63 51q80 78 80 173v9q0 5 -1 8q-6 50 -18 80q-16 37 -46 69l-137 -110q0 67 -46 100q-8 5 -12 8.5t-6 4.5zM169 355l68 53q38 -55 38 -122v-6v-6q-4 -54 -32.5 -105.5t-73.5 -81.5v268zM36 631l63 -63l62 63l-62 63zM221 631l63 -63l62 63l-62 63z" />
    <glyph glyph-name="OE" unicode="&#x152;" horiz-adv-x="1070" 
d="M643 544v-1q-63 86 -196 117q-36 7 -54 12l-326 -194q-44 -108 -44 -193q0 -124 81 -208q82 -84 205 -84q131 0 289 153l6 6q3 3 5 6v-118q-7 -5 -13 -10.5t-12 -10.5l-25 -22l12 -12q80 46 168 46q79 0 148 -28q10 -2 22.5 -8t28.5 -14l125 115l-12 14l-45 -43
q-74 47 -126 47q-56 0 -114 -21v242q48 -30 89 -30q104 0 151 95l-14 12q-35 -31 -72 -31q-56 0 -99 45l-55 -44v210l36 23q52 -61 116 -61h6h4q92 8 128 79l-11 10q-29 -15 -57 -15q-79 0 -122 60l-168 -117q-23 -15 -55 -27zM746 578v-494q-14 -7 -23.5 -11.5t-16.5 -8.5
v487zM341 584v-518q-95 10 -163 79l32 24q23 18 38.5 34.5t24.5 35.5t13 41.5t4 52.5v254h13t13 -1zM363 67v179q45 52 110 52q68 0 118 -59q-26 -75 -87 -123q-66 -50 -141 -49zM197 530v-259q0 -44 -4 -59q-8 -29 -30 -50q-63 87 -63 179q0 117 97 189zM363 277v148
q56 -44 115 -44q58 0 119 44q14 -37 14 -73q0 -46 -12 -89q-62 56 -126 56q-59 0 -110 -42zM363 448v133q27 -3 36 -7q137 -34 190 -127q-49 -46 -112 -46q-59 0 -114 47z" />
    <glyph glyph-name="oe" unicode="&#x153;" horiz-adv-x="537" 
d="M278 34v-1q26 -11 44.5 -20t30.5 -15l18 -10l146 100l-10 15l-71 -50q-29 14 -51 25t-36 19v94l181 154l-122 159q-60 -38 -119 -65q-44 17 -98 54q-63 -57 -141 -81v-246q0 -5 -1 -19t-3 -36q-2 -20 -24 -36v-13q95 -8 182 -74q25 16 43 27t31 19zM251 371v-246v-4
q-1 -2 -1 -5q-6 -31 -16 -41l-87 38v303zM349 225v218l101 -133z" />
    <glyph glyph-name="Scaron" unicode="&#x160;" horiz-adv-x="729" 
d="M287 680v-1q-174 -128 -174 -240q-84 -35 -84 -106q0 -51 38 -75q48 -33 103 -34q10 -1 20 0h68l-35 -62q-41 6 -81 6q-50 0 -87 -24q-46 -27 -45 -73q1 -69 96 -81q6 0 11 -1h12q84 0 203 60q8 -5 18.5 -9.5t22.5 -9.5q24 -15 68 -26q117 58 177 110q94 81 94 175
q0 96 -94 142q-60 29 -156 29h-33q-1 -1 -4 -1t-4 1l109 192l-18 12l-30 -53zM302 59v-1q-95 -49 -188 -49q-4 0 -7 1h-7q-45 7 -45 41q0 19 15 28q23 14 56 14q75 0 176 -34zM335 313l36 62q26 2 52.5 3t52.5 1q66 0 113 -32q55 -37 55 -100q0 -90 -116 -171q-3 -1 -6 -4
q-8 4 -17 7.5t-18 7.5l-36 14l24 13q15 9 26 15q90 54 90 112q0 60 -84 78q-17 4 -43 4q-12 0 -43 -3q-4 0 -11 -1t-11 -1q-19 -4 -35 -5t-29 0zM247 159l38 65q10 0 16 3l103 11q28 3 50 3q20 0 35 -9q19 -12 19 -30q0 -20 -17 -37q-25 -19 -43 -32t-31 -21q-21 7 -42 13.5
t-42 11.5zM345 373l-36 -64l-30 -2q-15 -1 -30 -1.5t-31 -0.5h-30q-37 0 -65 15q-34 19 -34 53q0 27 27 47q14 -36 44 -47q24 -8 67 -8q29 0 58.5 2t59.5 6zM439 537l-46 -80q-24 -3 -42 -5t-30 -3h-25q-8 -1 -14 -1h-10h-6h-6q-85 4 -85 68q0 31 23.5 53t55.5 25h8
q67 0 177 -57zM520 858l-22 12l-78 -79l-146 79l-63 -65l166 -95z" />
    <glyph glyph-name="scaron" unicode="&#x161;" horiz-adv-x="403" 
d="M10 -1l13 -11q47 37 100 37q50 0 111 -37q64 55 138 77v195l-102 59l84 116q38 53 43 83v9q0 42 -36 42q-29 0 -29 -29q0 -16 11 -27q0 -1 1 -1q10 -10 10 -23q0 -16 -18 -25q-13 -7 -31 -7q-58 0 -130 36q-44 -44 -57 -54q-27 -19 -74 -33v-177l93 -51zM271 207v-136
q-51 28 -83 29q-2 1 -6 1h-6h-13q-5 -1 -8 -1h-5q-5 -1 -9 -2t-9 -2l-25 -7l106 150zM142 282v133q27 -17 64 -27q10 -2 19.5 -3.5t20.5 -1.5h11q16 0 29 4l-95 -133zM333 702l-22 12l-78 -79l-146 79l-63 -65l166 -95z" />
    <glyph glyph-name="Ydieresis" unicode="&#x178;" horiz-adv-x="671" 
d="M30 625v-1q19 11 36 11q79 0 91 -108q1 -9 1.5 -21t0.5 -27v-37q-43 31 -87 31q-21 0 -51 -14l4 -17h4q3 0 4 1h7q60 0 92 -45q26 -39 27 -103v-3v-3q-50 38 -98 38h-9t-9 -1l-18 -2v-14q67 -6 102 -60q30 -45 32 -118v-1v-2q-66 0 -110 -34q-50 -38 -49 -99
q0 -59 49 -98q48 -35 107 -34q51 2 136 48t116 46h4q2 0 3 -1q14 -2 14 -12q0 -9 -4 -10q-13 -20 -13 -36q0 -19 12 -32t31 -13q44 0 44 49q0 41 -44 67q-36 21 -82 21t-131 -33q-86 -33 -126 -33q-38 0 -65.5 23.5t-27.5 59.5q0 40 31 64q47 35 104 35q17 0 42.5 -0.5
t60.5 -1.5t60 -1h43q284 0 284 316v3v3q-1 88 -53 153q-56 69 -142 69q-48 0 -105 -26q-14 -6 -38 -19.5t-58 -33.5q-20 110 -133 110q-53 0 -100 -38zM252 130v410l45 27v-437h-45zM319 130v141q53 41 99 41q64 0 120 -47q-45 -137 -219 -135zM319 298v136q47 -40 110 -40
q55 0 114 45q7 -25 7 -78q0 -33 -7 -71q-55 44 -122 44q-50 0 -102 -36zM319 464v113q39 19 72 19q54 0 95 -41q36 -37 50 -92q-47 -48 -110 -48q-54 0 -107 49zM184 786l63 -63l62 63l-62 63zM369 786l63 -63l62 63l-62 63z" />
    <glyph glyph-name="florin" unicode="&#x192;" horiz-adv-x="591" 
d="M473 447h-103l16 93q9 52 24 75q21 31 68 31q8 0 16.5 -0.5t17.5 -1.5q3 -2 6 0l13 70q-5 0 -15 2l-22 2q-6 1 -12 1h-12q-118 0 -149 -63q-22 -45 -35 -102q-4 -17 -9 -44t-10 -63h-101l-11 -63h100l-57 -324q-5 -23 -10 -46.5t-10 -46.5q-16 -55 -70 -55h-10
q-7 0 -10 1q-5 0 -10 0.5t-10 1.5l-12 -71q17 -2 32 -3.5t27 -1.5q91 0 131 49q31 37 48 135l64 361h105z" />
    <glyph glyph-name="circumflex" unicode="&#x2c6;" 
d="M96 566l22 -12l78 79l146 -79l63 65l-166 95z" />
    <glyph glyph-name="tilde" unicode="&#x2dc;" 
d="M80 607l21 -15l49 39l132 -76l139 121l-21 16l-66 -58l-133 75z" />
    <glyph glyph-name="endash" unicode="&#x2013;" horiz-adv-x="444" 
d="M49 293v-1q-15 -42 -36 -79h396q9 23 18 43.5t17 37.5z" />
    <glyph glyph-name="emdash" unicode="&#x2014;" horiz-adv-x="575" 
d="M49 293v-1q-15 -42 -36 -79l514 -1q9 23 18 43.5t17 37.5h-513z" />
    <glyph glyph-name="quoteleft" unicode="&#x2018;" 
d="M250 213v-1q-19 0 -32.5 -13t-13.5 -32t13.5 -32.5t32.5 -13.5t32.5 13.5t13.5 32.5t-13.5 32t-32.5 14zM18 374v-53h464v53h-464zM250 573v-1q-19 0 -32 -13.5t-13 -32.5q0 -18 13.5 -31.5t31.5 -13.5q19 0 32.5 13t13.5 32t-13.5 32.5t-32.5 14.5z" />
    <glyph glyph-name="quoteright" unicode="&#x2019;" horiz-adv-x="194" 
d="M161 617l-65 63l-63 -66q3 -4 8 -9l3 -2q29 -31 29 -53q0 -23 -32 -52q-5 -5 -8 -6l8 -20q95 35 120 145z" />
    <glyph glyph-name="quotesinglbase" unicode="&#x201a;" horiz-adv-x="238" 
d="M162 60l-65 63l-63 -66q3 -4 8 -9l3 -2q29 -31 29 -51q0 -23 -32 -52q-6 -6 -8 -7l8 -19q94 34 120 143z" />
    <glyph glyph-name="quotedblleft" unicode="&#x201c;" horiz-adv-x="348" 
d="M34 536l65 -63l63 64q-7 3 -14.5 10.5t-13.5 17t-9.5 19t-3.5 17.5q0 28 34 53l7 7l-8 18q-95 -38 -120 -143zM187 536l65 -63l63 64l-8 8q-32 32 -32 56q0 25 35 55l5 5l-8 18q-95 -38 -120 -143z" />
    <glyph glyph-name="quotedblright" unicode="&#x201d;" horiz-adv-x="348" 
d="M162 617l-65 63l-63 -66q3 -4 8 -9l3 -2q29 -31 29 -53q0 -23 -32 -52q-5 -5 -8 -6l8 -20q95 35 120 145zM315 617l-65 63l-63 -66l8 -8q32 -32 32 -56q0 -25 -35 -55q-3 -3 -5 -3l8 -20q95 35 120 145z" />
    <glyph glyph-name="quotedblbase" unicode="&#x201e;" horiz-adv-x="348" 
d="M162 60l-65 63l-63 -66q3 -4 8 -9l3 -2q29 -31 29 -51q0 -23 -32 -52q-6 -6 -8 -7l8 -19q94 34 120 143zM315 60l-65 63l-63 -66l8 -8q32 -32 32 -54q0 -17 -11 -31l-17 -17t-12 -11l8 -19q94 34 120 143z" />
    <glyph glyph-name="dagger" unicode="&#x2020;" horiz-adv-x="580" 
d="M520 465h-181v201h-97v-201h-181v-85h181v-541h97v541h181v85z" />
    <glyph glyph-name="daggerdbl" unicode="&#x2021;" horiz-adv-x="580" 
d="M519 486h-181v180h-96v-180h-181v-83h181v-301h-181v-82h181v-181h96v181h181v82h-181v301h181v83z" />
    <glyph glyph-name="bullet" unicode="&#x2022;" horiz-adv-x="600" 
d="M198 286v-1q0 -40 28 -68t68 -28q42 0 70 27t28 69t-28 69t-70 27q-40 0 -68 -27.5t-28 -67.5z" />
    <glyph glyph-name="ellipsis" unicode="&#x2026;" horiz-adv-x="721" 
d="M48 59l72 -71l72 71l-72 72zM288 59l72 -71l73 71l-73 72zM529 59l72 -71l72 71l-72 72z" />
    <glyph glyph-name="perthousand" unicode="&#x2030;" horiz-adv-x="770" 
d="M379 -12q49 24 77 72.5t28 105.5q0 49 -33 90q-33 39 -79 55q-106 -70 -106 -171q0 -107 113 -152zM416 45v-1q-45 15 -74 50t-29 80q0 41 21 77q103 -34 103 -136q0 -43 -21 -70zM631 -12q49 24 77 72.5t28 105.5q0 49 -33 90q-33 39 -79 55q-106 -70 -106 -171
q0 -107 113 -152zM668 45v-1q-45 15 -73.5 50t-28.5 80q0 41 21 77q103 -34 103 -136v-11q-4 -37 -22 -59zM82 10l32 -16l322 624l-32 16zM146 316v-1q49 26 77 74t28 105q0 49 -32 89t-80 56q-106 -69 -106 -171q0 -108 113 -152zM183 373v-1q-43 15 -72.5 50.5t-29.5 80.5
v8q0 5 1 8q2 16 7 31t13 29q103 -34 103 -136q0 -41 -22 -70z" />
    <glyph glyph-name="guilsinglleft" unicode="&#x2039;" horiz-adv-x="286" 
d="M229 115l-123 173l127 155l-28 25l-172 -215l139 -195z" />
    <glyph glyph-name="guilsinglright" unicode="&#x203a;" horiz-adv-x="286" 
d="M56 411l124 -174l-127 -154l27 -25l173 215l-140 195z" />
    <glyph glyph-name="trademark" unicode="&#x2122;" horiz-adv-x="977" 
d="M972 314l-15 16l-19 -15q-14 8 -14 32v209q0 8 0.5 15.5t1.5 15.5q1 12 8 23q2 2 5.5 7t8.5 13q2 2 3.5 4t3.5 5l-16 12q-18 -16 -26 -23l-63 48l-101 -69l-1 1q-1 37 -43 63q-2 0 -4 2q-47 -27 -72 -39q-60 -31 -87 -64q-31 -39 -33 -101q-55 -9 -76 -50l16 -13l2 2
q1 1 1 2q13 16 29 16q37 0 51 -51q5 -15 5 -29q0 -27 -15 -40q-9 -9 -40 -17l-1 -1h-1q-30 -9 -43 -20q-15 -15 -15 -45v-5q0 -4 1 -5l19 -1q4 25 26 25h12q5 -1 12 -1q6 -1 12 -1.5t12 -0.5q96 0 96 105v108h69v-78q0 -24 -8 -32l-4 -4q-3 -3 -7 -4v-11q38 -25 68 -61
l106 90l-15 14l-17 -14v101l38 48h-38v125l11 7l37 -28v-250q0 -29 4 -44q7 -29 42 -48zM542 288v-1q23 15 29 38q5 17 5 49v145q0 45 20 68q-5 -25 -5 -54v-175q0 -38 -6 -50q-11 -20 -43 -20zM783 447v-116q-4 -7 -13 -7q-19 0 -20 31v6v86h33zM681 496h-50l-19 -26v63
q0 33 4 49q5 23 41 44q24 -14 24 -50v-80zM750 496v88l33 23v-111h-33zM290 325v267h10q1 -1 5 -1h5q43 0 72 23t33 65l-15 4q-21 -33 -63 -33q-29 0 -93 11t-93 11q-131 0 -161 -126l15 -8q21 44 50 60t80 16q-41 -20 -70 -62q-39 -56 -39 -113q0 -77 58 -128
q56 -50 133 -50q71 0 127 41q55 40 72 108l-16 3q-42 -73 -110 -88zM269 596v-275q-1 -1 -4 -1h-4q-3 -1 -8 -1h-10q-44 0 -81 24h2l24 18q28 21 38 41t10 56v144zM165 611v-199q0 -41 -22 -57q-54 48 -54 114v8t1 9l2 17q17 77 73 108z" />
    <glyph glyph-name="minus" unicode="&#xe000;" horiz-adv-x="490" 
d="M111 293v-1q-15 -42 -36 -79l305 -1q9 23 18 43.5t17 37.5h-304z" />
    <glyph glyph-name="notequal" unicode="&#xe001;" 
d="M249 446h-231v-52h202l-51 -93h-151v-52h123l-49 -87l56 -36l67 123h267v52h-239l52 93h187v52h-158l49 91l-56 34z" />
    <glyph glyph-name="infinity" unicode="&#xe002;" horiz-adv-x="667" 
d="M336 292v-1q69 -105 159 -105q69 0 111.5 41.5t42.5 110.5t-41 111.5t-110 42.5q-93 0 -165 -104q-71 104 -163 104q-64 0 -108 -44q-43 -43 -43 -109q0 -65 43 -109q44 -44 108 -44q91 0 166 106zM298 340v-1q-36 -48 -48 -59q-32 -29 -67 -29q-38 0 -63.5 24.5
t-25.5 62.5q0 18 7 34.5t19 28.5t28.5 19t34.5 7q58 -1 109 -80q2 -2 3.5 -4t2.5 -3zM370 340v-1q36 48 48 59q32 29 67 29q38 0 63.5 -24.5t25.5 -62.5t-25.5 -64t-63.5 -25q-58 1 -109 80q-5 4 -6 9z" />
    <glyph glyph-name="lessequal" unicode="&#xe003;" 
d="M466 153h-433v-94h433v94zM466 614l-433 -171v-91l433 -171v100l-316 116l316 117v100z" />
    <glyph glyph-name="greaterequal" unicode="&#xe004;" 
d="M33 59h433v94h-433v-94zM33 181l433 171v91l-433 171v-100l317 -117l-316 -116z" />
    <glyph glyph-name="partialdiff" unicode="&#xe005;" horiz-adv-x="489" 
d="M489 -128l-440 851l-42 -22l439 -852z" />
    <glyph glyph-name="summation" unicode="&#xe006;" horiz-adv-x="667" 
d="M606 750h-572v-107l240 -375l-240 -409v-108h581v241h-96l-6 -148h-365l246 424l-247 388h357l10 -145h92v239z" />
    <glyph glyph-name="product" unicode="&#xe007;" horiz-adv-x="667" 
d="M24 750v-82h74v-835h-74v-82h235v82h-70v835h289v-835h-71v-82h236v82h-73v835h73v82h-619z" />
    <glyph glyph-name="pi" unicode="&#xe008;" horiz-adv-x="542" 
d="M67 0h99v403h212v-403h98v403h66v77h-541v-77h66v-403z" />
    <glyph glyph-name="integral" unicode="&#xe009;" 
d="M78 -238q24 -8 56 -8q93 0 134 48q37 43 37 139v29q-1 5 -1 14v582v14q4 73 57 73q18 0 41 -9l19 95q-36 10 -79 10q-86 0 -126 -67q-20 -34 -20 -93v-51q-1 -4 -1 -8v-8v-591q0 -40 -8 -58q-14 -26 -49 -26q-22 0 -41 10z" />
    <glyph glyph-name="Omega" unicode="&#xe00a;" horiz-adv-x="734" 
d="M30 0h291v81q-174 88 -174 267v2v1q2 97 61 167q64 75 158 75q98 0 159 -76q55 -71 60 -171v-14q-4 -81 -51 -146.5t-122 -103.5v-82h291v88l-180 -1q167 108 167 266q0 139 -92 234t-231 95q-140 0 -232 -95t-92 -234q0 -165 166 -265h-179v-88z" />
    <glyph glyph-name="radical" unicode="&#xe00b;" horiz-adv-x="667" 
d="M667 827h-259l-151 -538l-25 -105l-4 -16q-11 -47 -15 -69l-5 -1q-5 20 -6 35q-8 34 -14 60t-9 44l-37 127h-142v-84h83l76 -280h114l210 742h184v85z" />
    <glyph glyph-name="approxequal" unicode="&#xe00c;" 
d="M63 159v-1q46 64 88 63q21 -2 46 -12q12 -4 43 -21l42 -17q39 -16 60 -16q100 0 148 122l-55 37q-32 -63 -80 -63q-35 0 -97 32l-43 17t-61 17q-93 0 -145 -120zM63 348v-1q46 64 88 63q20 -1 46 -12q35 -17 70 -35q42 -19 75 -19q95 0 148 122l-55 36q-42 -63 -80 -63
q-35 0 -97 32q-1 0 -1 1l-2 1q-66 33 -101 33q-93 0 -145 -120z" />
    <glyph glyph-name="Delta" unicode="&#xe00d;" horiz-adv-x="652" 
d="M1 0h650l-273 667h-105zM141 88l185 458l183 -458h-368z" />
    <glyph glyph-name="lozenge" unicode="&#xe00e;" horiz-adv-x="667" 
d="M334 693l-260 -360l260 -358l259 358zM334 604l197 -271l-197 -270l-197 270z" />
    <glyph glyph-name="DST" unicode="&#xe00f;" horiz-adv-x="1426" 
d="M1415 -37v837h-1404v-837h1404zM1390 562q0 -29 -22 -50t-51 -21h-146q-35 0 -35 -45v-302q0 -30 19 -42v-56q-72 16 -72 86v322q0 96 115 96q16 0 48 -3q17 -1 29 -1.5t20 -0.5q40 0 40 21q0 19 -41 19q-8 0 -20 -0.5t-28 -1.5t-27.5 -1.5t-19.5 -0.5q-116 0 -116 88
v131h57v-131q0 -35 37 -35h148q27 0 46 -21t19 -51zM1003 136q0 -39 -23.5 -63.5t-62.5 -24.5h-282q-30 0 -50 20t-20 50q0 31 18 52t47 21h279v-53h-270q-20 0 -20 -18q0 -21 22 -21h250q61 0 61 45v76q0 45 -45 45h-250q-42 0 -67 25t-25 67v89q0 45 26.5 73.5t71.5 28.5
h246q76 0 89 -76h-50q-20 21 -43 21h-244q-41 0 -41 -43v-95q0 -37 41 -37h246q45 0 70.5 -23t25.5 -65v-94zM496 800l-1 -684q0 -30 -21.5 -52t-51.5 -22q-32 0 -52 22t-20 55q0 62 -0.5 104t-1.5 65q-2 9 -87 93l-95 93q-14 14 -27 14q-10 0 -17 -6q-8 -27 -8 -32v-310
q0 -43 35 -43h81q13 6 25 21h53q-14 -72 -77 -72h-82q-88 0 -88 96v330q0 31 26 51q23 17 56 17t52 -19l179 -177q31 -31 31 -75v-151q0 -21 19 -21q6 0 12 7.5t6 13.5l-2 682h56z" />
    <glyph glyph-name="longs" unicode="&#xe010;" horiz-adv-x="239" 
d="M159 99v498l84 -22l16 78l-97 23q-27 -23 -52.5 -42.5t-48.5 -35.5v-438v-10v-10q-1 -51 -32 -68v-12q63 -20 120 -72l105 84l-14 13l-31 -25l-12 10l-12 10z" />
    <glyph glyph-name="delta" unicode="&#xe011;" 
d="M75 588v-1q103 -12 183 -61q36 -22 55 -48q7 -8 15.5 -23.5t19.5 -38.5q2 -4 3 -7t2 -5q5 -11 9.5 -20l7.5 -15q-36 35 -64 49q-32 15 -80 15q-88 0 -145 -70q-53 -65 -54 -156v-1v-2q0 -92 70 -153q71 -60 163 -59q108 1 171 95q41 62 41 172v9v8q-6 177 -127 286
q-87 81 -258 107zM251 358v-1q58 0 93 -41q36 -41 36 -100q0 -60 -37 -103q-36 -43 -95 -43q-58 0 -95 45q-36 42 -36 100q0 57 38 100q39 41 96 43z" />
  </font>
</defs>
</svg>
