<?xml version="1.0" standalone="no"?>
<!DOCTYPE svg PUBLIC "-//W3C//DTD SVG 1.1//EN" "http://www.w3.org/Graphics/SVG/1.1/DTD/svg11.dtd" >
<svg xmlns="http://www.w3.org/2000/svg" xmlns:xlink="http://www.w3.org/1999/xlink" version="1.1">
<metadata>
Created by FontForge 20170731 at Fri Dec 13 16:24:05 2013
 By Aleksey,,,
2013 Iconian Font - www.iconian.com
</metadata>
<defs>
<font id="FederalEscortCondensed" horiz-adv-x="629" >
  <font-face 
    font-family="Federal Escort Condensed"
    font-weight="400"
    font-stretch="condensed"
    units-per-em="1000"
    panose-1="0 0 0 0 0 0 0 0 0 0"
    ascent="800"
    descent="-200"
    x-height="561"
    cap-height="561"
    bbox="-41 -169 1226 794"
    underline-thickness="50"
    underline-position="-175"
    unicode-range="U+0020-2122"
  />
<missing-glyph horiz-adv-x="500" 
 />
    <glyph glyph-name=".notdef" horiz-adv-x="500" 
 />
    <glyph glyph-name=".null" horiz-adv-x="0" 
 />
    <glyph glyph-name="nonmarkingreturn" horiz-adv-x="500" 
 />
    <glyph glyph-name="space" unicode=" " horiz-adv-x="344" 
 />
    <glyph glyph-name="space" unicode="&#xa0;" horiz-adv-x="344" 
 />
    <glyph glyph-name="FL0021h" unicode="!" horiz-adv-x="272" 
d="M42 92q0 -20 7.5 -36.5t20.5 -29t30 -19.5t36 -7t36 7t30 19.5t20.5 29t7.5 36.5q0 19 -7.5 36t-20.5 29.5t-30 19.5t-36 7t-36 -7t-30 -19.5t-20.5 -29.5t-7.5 -36zM248 561h-224v-246l18 -88h188l18 88v246z" />
    <glyph glyph-name="FL0022h" unicode="&#x22;" horiz-adv-x="403" 
d="M212 369v101q0 38 24.5 64.5t59.5 26.5q17 0 32 -7t26.5 -19.5t18 -29t6.5 -35.5v-101q0 -19 -6.5 -35.5t-18 -29t-26.5 -19.5t-32 -7q-35 0 -59.5 26.5t-24.5 64.5zM24 368v101q0 38 24.5 64.5t59.5 26.5q17 0 32 -7t26.5 -19.5t18 -29t6.5 -35.5v-101q0 -19 -6.5 -35.5
t-18 -29t-26.5 -19.5t-32 -7q-35 0 -59.5 26.5t-24.5 64.5z" />
    <glyph glyph-name="FL0023h" unicode="#" horiz-adv-x="671" 
d="M302 251v59h68v-59h-68zM594 453v108h-224v-108h-68v108h-224v-108h-54v-143h54v-59h-54v-143h54v-108h224v108h68v-108h224v108h53v143h-53v59h53v143h-53z" />
    <glyph glyph-name="FL0024h" unicode="$" horiz-adv-x="614" 
d="M397 631v-96h193v-147h-325q-8 0 -12.5 -7t-4.5 -15v-13h240q16 0 34 -7.5t33 -20.5t25 -31t10 -39v-85q0 -24 -9 -49t-24 -45.5t-35 -33.5t-42 -13h-84v-89h-179v89h-193v147h325q8 0 12.5 7t4.5 15v12h-238q-16 0 -34 11.5t-33.5 29.5t-26 40.5t-10.5 45.5v61
q0 26 8.5 50.5t23.5 44t35 31t43 11.5h84v96h179z" />
    <glyph glyph-name="FL0025h" unicode="%" horiz-adv-x="750" 
d="M153 391v53q0 7 4 8h25q2 0 3 -3t1 -5v-53q0 -6 -4 -6h-25q-4 0 -4 6zM564 111v53q0 6 4 8h25q2 0 3.5 -3t1.5 -5v-53q-2 -6 -5 -6h-25q-4 0 -4 6zM671 280h-183l204 281h-226l-152 -208v136q0 26 -15.5 48.5t-38.5 22.5h-181q-11 0 -21 -6.5t-17.5 -16.5t-12 -22.5
t-4.5 -25.5v-148q0 -12 5 -23t12.5 -19.5t16.5 -13.5t18 -5h185l-203 -280h227l150 207v-146q0 -12 5 -23t12.5 -19.5t16.5 -13.5t18 -5h187q18 0 35 18.5t17 42.5v148q0 26 -16 48.5t-39 22.5z" />
    <glyph glyph-name="FL0026h" unicode="&#x26;" horiz-adv-x="677" 
d="M243 181q0 16 6 23t23 7h106v-27q0 -15 -5 -26t-13 -11h-89q-15 0 -21.5 10t-6.5 24zM602 144v64h51v142h-380q-17 0 -23 6.5t-6 23.5q0 14 6.5 24t21.5 10h258v147h-384q-30 0 -52.5 -16.5t-37.5 -41.5t-23 -55t-8 -57q0 -28 7.5 -58.5t24.5 -47.5q-20 -21 -26.5 -52
t-6.5 -63q0 -28 6 -58t20.5 -55t37.5 -41t57 -16h365q22 0 39 11t29 30.5t18 46t6 56.5z" />
    <glyph glyph-name="FL0027h" unicode="'" horiz-adv-x="223" 
d="M24 470v-101q0 -19 7 -35.5t19 -29t28 -19.5t34 -7t34 7t27.5 19.5t18.5 29t7 35.5v101q0 19 -7 35.5t-18.5 29t-27.5 19.5t-34 7t-34 -7t-28 -19.5t-19 -29t-7 -35.5z" />
    <glyph glyph-name="FL0028h" unicode="(" horiz-adv-x="344" 
d="M134 615h186v-147h-54q-8 0 -12.5 -11t-4.5 -19v-322q0 -10 4.5 -16.5t11.5 -6.5h49v-147h-186q-18 0 -36.5 10.5t-33.5 27.5t-24.5 39t-9.5 46v403q0 26 8.5 51.5t23.5 46t35 33t43 12.5z" />
    <glyph glyph-name="FL0029h" unicode=")" horiz-adv-x="344" 
d="M24 615h186q22 0 42 -12.5t35 -33t24 -46t9 -51.5v-403q0 -24 -9.5 -46t-24.5 -39t-33.5 -27.5t-36.5 -10.5h-186v147h49q7 0 11.5 6.5t4.5 16.5v322q0 8 -4.5 19t-12.5 11h-54v147z" />
    <glyph glyph-name="asterisk" unicode="*" horiz-adv-x="230" 
d="M112 444l-21 -53l-68 67l31 37l-40 13l25 96l34 -26l-4 50h85l-4 -50l40 24l27 -95l-48 -12l33 -38l-68 -66z" />
    <glyph glyph-name="FL002Bh" unicode="+" horiz-adv-x="316" 
d="M215 351v95h-114v-95h-77v-143h77v-97h114v97h77v143h-77z" />
    <glyph glyph-name="FL002Ch" unicode="," horiz-adv-x="236" 
d="M24 92v-103q0 -20 7.5 -36.5t20.5 -29t30 -19.5t36 -7q39 0 66.5 26.5t27.5 65.5v103q0 39 -27.5 65.5t-66.5 26.5q-19 0 -36 -7t-30 -19.5t-20.5 -29.5t-7.5 -36z" />
    <glyph glyph-name="FL002Dh" unicode="-" horiz-adv-x="316" 
d="M24 351v-143h268v143h-268z" />
    <glyph glyph-name="FL002Eh" unicode="." horiz-adv-x="236" 
d="M24 92q0 19 7.5 36t20.5 29.5t30 19.5t36 7q39 0 66.5 -26.5t27.5 -65.5t-27.5 -65.5t-66.5 -26.5q-19 0 -36 7t-30 19.5t-20.5 29t-7.5 36.5z" />
    <glyph glyph-name="FL002Fh" unicode="/" horiz-adv-x="662" 
d="M276 0l372 561h-262l-372 -561h262z" />
    <glyph glyph-name="FL0030h" unicode="0" horiz-adv-x="614" 
d="M247 170v212q0 8 4 19t12 13h86q9 0 13 -12t4 -20v-212q-2 -6 -7 -14.5t-10 -8.5h-84q-11 0 -14 9t-4 14zM480 561h-346q-23 0 -43 -12.5t-35 -33t-23.5 -46t-8.5 -51.5v-295q0 -24 9.5 -46t24.5 -39t33.5 -27.5t36.5 -10.5h358q18 0 36.5 10.5t33.5 27.5t24.5 39t9.5 46
v295q0 26 -9 51.5t-24 46t-35 33t-42 12.5z" />
    <glyph glyph-name="FL0031h" unicode="1" horiz-adv-x="362" 
d="M338 0h-224v414h-90v147h314v-561z" />
    <glyph glyph-name="FL0032h" unicode="2" horiz-adv-x="614" 
d="M24 0v255q0 21 10 39t25 31t33 20.5t34 7.5h240v31q0 8 -4 19t-12 11h-325v147h456q22 0 42 -11.5t35 -31t23.5 -44t8.5 -50.5v-87q0 -23 -10.5 -45.5t-26 -40.5t-33.5 -29.5t-34 -11.5h-237v-63h341v-147h-566z" />
    <glyph glyph-name="FL0033h" unicode="3" horiz-adv-x="580" 
d="M307 350h-283v-139h284q17 0 23 -7t6 -23q0 -14 -6.5 -24t-21.5 -10h-285v-147h411q34 0 57 16t37.5 41t20.5 55t6 58q0 32 -6.5 63t-26.5 52q17 17 24.5 47.5t7.5 58.5q0 27 -8 57t-23 55t-37.5 41.5t-52.5 16.5h-410v-147h284q15 0 21.5 -10t6.5 -24q0 -17 -6 -23.5
t-23 -6.5z" />
    <glyph glyph-name="FL0034h" unicode="4" horiz-adv-x="741" 
d="M24 180l204 326q3 6 10 15t15.5 18t18 15.5t17.5 6.5h329v-337h99v-143h-99v-81h-223v81h-371v99zM312 224h83v111q0 1 -3.5 3t-5.5 4q-5 0 -6.5 -2t-3.5 -7z" />
    <glyph glyph-name="FL0035h" unicode="5" horiz-adv-x="614" 
d="M590 141v114q0 21 -10 39t-25 31t-33 20.5t-34 7.5h-240v61h342v147h-566v-224q0 -23 10.5 -45.5t26 -40.5t33.5 -29.5t34 -11.5h238v-33q0 -8 -4.5 -19t-12.5 -11h-325v-147h456q22 0 42 13t35 33.5t24 45.5t9 49z" />
    <glyph glyph-name="FL0036h" unicode="6" 
d="M265 147h99q7 0 11 8.5t7 14.5v41h-134v-41q2 -6 5 -14.5t12 -8.5zM605 253v-130q0 -24 -9.5 -46t-24.5 -39t-33.5 -27.5t-36.5 -10.5h-373q-18 0 -36.5 11t-33.5 28t-24.5 39t-9.5 45v295q0 26 8.5 51.5t23.5 46t35 33t43 12.5h468v-147h-337q-8 0 -12.5 -11t-4.5 -19
l-2 -2h2v-23h253q16 0 34.5 -8.5t34 -23t25.5 -34t10 -40.5z" />
    <glyph glyph-name="FL0037h" unicode="7" horiz-adv-x="652" 
d="M91 0h263l274 414v147h-604v-147h342z" />
    <glyph glyph-name="FL0038h" unicode="8" horiz-adv-x="615" 
d="M343 350h-71q-17 0 -23 6.5t-6 23.5q0 13 5.5 22.5t17.5 11.5h78q15 0 21.5 -10t6.5 -24q0 -17 -6 -23.5t-23 -6.5zM242 181q0 14 5 21t19 9h83q14 -2 19 -9t5 -21q0 -30 -24 -34h-79q-15 0 -21.5 10t-6.5 24zM470 561h-325q-30 0 -52.5 -16.5t-37.5 -41.5t-23 -55
t-8 -57q0 -28 7.5 -58.5t24.5 -47.5q-20 -21 -26.5 -52t-6.5 -63q0 -28 6 -58t20.5 -55t37.5 -41t57 -16h327q34 0 57 16t37.5 41t20.5 55t6 58q0 32 -6.5 63t-26.5 52q17 17 24.5 47.5t7.5 58.5q0 27 -8 57t-23 55t-37.5 41.5t-52.5 16.5z" />
    <glyph glyph-name="FL0039h" unicode="9" 
d="M364 414h-99q-7 0 -11.5 -8.5t-6.5 -14.5v-41h134v41q-2 6 -5 14.5t-12 8.5zM24 308v130q0 24 9.5 46t24.5 39t33.5 27.5t36.5 10.5h373q18 0 36.5 -11t33.5 -28t24.5 -39.5t9.5 -44.5v-295q0 -26 -9 -51.5t-24 -46t-35 -33t-42 -12.5h-469v147h338q8 0 12.5 11t4.5 19
l1 2h-1v23h-253q-16 0 -34.5 8.5t-34 23t-25.5 34t-10 40.5z" />
    <glyph glyph-name="FL003Ah" unicode=":" horiz-adv-x="236" 
d="M24 92q0 19 7.5 36t20.5 29.5t30 19.5t36 7q39 0 66.5 -26.5t27.5 -65.5t-27.5 -65.5t-66.5 -26.5q-19 0 -36 7t-30 19.5t-20.5 29t-7.5 36.5zM23 323q0 39 28 65.5t67 26.5q19 0 36 -7t29.5 -19.5t20 -29.5t7.5 -36q0 -20 -7.5 -36.5t-20 -29t-29.5 -19.5t-36 -7
q-39 0 -67 26.5t-28 65.5z" />
    <glyph glyph-name="FL003Bh" unicode=";" horiz-adv-x="236" 
d="M23 323q0 39 28 65.5t67 26.5q19 0 36 -7t29.5 -19.5t20 -29.5t7.5 -36q0 -20 -7.5 -36.5t-20 -29t-29.5 -19.5t-36 -7q-39 0 -67 26.5t-28 65.5zM24 -11v103q0 19 7.5 36t20.5 29.5t30 19.5t36 7q39 0 66.5 -26.5t27.5 -65.5v-103q0 -39 -27.5 -65.5t-66.5 -26.5
q-19 0 -36 7t-30 19.5t-20.5 29t-7.5 36.5z" />
    <glyph glyph-name="FL003Ch" unicode="&#x3c;" horiz-adv-x="476" 
d="M200 0l-186 281l185 280h263l-186 -280l186 -281h-262z" />
    <glyph glyph-name="FL003Dh" unicode="=" horiz-adv-x="349" 
d="M24 453v-143h301v143h-301zM24 251v-143h301v143h-301z" />
    <glyph glyph-name="FL003Eh" unicode="&#x3e;" horiz-adv-x="476" 
d="M275 0l187 281l-186 280h-262l185 -280l-186 -281h262z" />
    <glyph glyph-name="FL003Fh" unicode="?" horiz-adv-x="614" 
d="M110 92q0 -20 7.5 -36.5t20.5 -29t30.5 -19.5t36.5 -7t36 7t29.5 19.5t20 29t7.5 36.5q0 19 -7.5 36t-20 29.5t-29.5 19.5t-36 7t-36.5 -7t-30.5 -19.5t-20.5 -29.5t-7.5 -36zM110 255v-41h376q16 0 34 11t33.5 28t26 39t10.5 45v87q0 26 -8.5 50.5t-23.5 44t-35 31
t-42 11.5h-456v-147h325q8 0 12 -11t4 -19v-31h-153q-16 0 -34 -7.5t-33.5 -20.5t-25.5 -31t-10 -39z" />
    <glyph glyph-name="FL0040h" unicode="@" horiz-adv-x="830" 
d="M324 421h181q11 0 20.5 -6.5t17 -16.5t12 -22.5t4.5 -25.5v-63h16q7 0 11.5 6.5t4.5 16.5v128q0 8 -4.5 19t-12.5 11h-319q-8 0 -12.5 -11t-4.5 -19v-322q0 -10 5 -16.5t11 -6.5h305v-147h-441q-18 0 -36.5 10.5t-33.5 27.5t-24.5 39t-9.5 46v403q0 26 8.5 51.5t23.5 46
t35 33t43 12.5h582q22 0 42 -12.5t35 -33t24 -46t9 -51.5v-208q0 -24 -9.5 -46t-24.5 -39t-33.5 -27.5t-36.5 -10.5h-391q-9 0 -18 5t-16.5 13.5t-12.5 19.5t-5 23v148q0 26 16 48.5t39 22.5zM398 305v-53q0 -6 4 -6h24q3 0 5 6v53q0 2 -1 5t-4 3h-24q-4 -1 -4 -8z" />
    <glyph glyph-name="FL0041h" unicode="A" 
d="M247 391v-90h134v90q-2 6 -4.5 14.5t-12.5 8.5h-99q-7 0 -11.5 -8t-6.5 -14v-1zM605 0h-224v158h-134v-158h-223v437q0 24 9.5 46t24.5 39.5t33.5 28t36.5 10.5h373q18 0 36.5 -11t33.5 -28.5t24.5 -40t9.5 -44.5v-437z" />
    <glyph glyph-name="FL0042h" unicode="B" 
d="M247 350h109q17 0 23 6.5t6 23.5q0 14 -6.5 24t-21.5 10h-110v-64zM357 211h-110v-64h111q15 0 21.5 10t6.5 24q0 16 -6 23t-23 7zM484 0h-460v561h459q30 0 52.5 -16.5t37.5 -41.5t23 -55t8 -57q0 -28 -7.5 -58.5t-24.5 -47.5q20 -21 26.5 -52t6.5 -63q0 -28 -6.5 -58
t-20.5 -55t-37 -41t-57 -16z" />
    <glyph glyph-name="FL0043h" unicode="C" horiz-adv-x="562" 
d="M134 561h404v-147h-273q-8 0 -12.5 -11t-4.5 -19v-214q1 -10 5.5 -16.5t11.5 -6.5h269v-147h-406q-18 0 -36.5 10.5t-33.5 27.5t-24.5 39t-9.5 46v295q0 26 8.5 51.5t23.5 46t35 33t43 12.5z" />
    <glyph glyph-name="FL0044h" unicode="D" horiz-adv-x="623" 
d="M248 403v-253h82q16 0 25.5 9t13.5 23t5 31t1 32v68q0 13 -1 29t-4.5 29.5t-10 22.5t-17.5 9h-94zM24 0v561h487q16 0 32 -12.5t28.5 -32t20 -42.5t7.5 -43v-321q0 -18 -7 -37.5t-18 -35.5t-24.5 -26.5t-27.5 -10.5h-498z" />
    <glyph glyph-name="FL0045h" unicode="E" horiz-adv-x="562" 
d="M134 561h404v-147h-273q-8 0 -13 -12t-5 -20q0 -11 6.5 -21t16.5 -10h268v-143h-273q-2 0 -8.5 -9t-8.5 -15q0 -1 -0.5 -3t-0.5 -4t0.5 -4t0.5 -3q2 -6 8.5 -14.5t8.5 -8.5h273v-147h-410q-18 0 -36.5 10.5t-33.5 27.5t-24.5 39t-9.5 46v295q0 26 8.5 51.5t23.5 46t35 33
t43 12.5z" />
    <glyph glyph-name="FL0046h" unicode="F" horiz-adv-x="562" 
d="M134 561h404v-147h-273q-8 0 -13 -12t-5 -20q0 -11 6.5 -21t16.5 -10h268v-143h-273q-2 0 -8.5 -9t-8.5 -15v-184h-224v418q0 26 8.5 51.5t23.5 46t35 33t43 12.5z" />
    <glyph glyph-name="FL00B9h" unicode="G" 
d="M134 561h404v-147h-273q-8 0 -12.5 -11t-4.5 -19l-2 -2h2v-212q2 -6 5 -14.5t12 -8.5h99q7 0 11 8l7 14v213h223v-259q0 -24 -9.5 -46t-24.5 -39t-33.5 -27.5t-36.5 -10.5h-373q-18 0 -36.5 11t-33.5 28t-24.5 39t-9.5 45v295q0 26 8.5 51.5t23.5 46t35 33t43 12.5z" />
    <glyph glyph-name="FL0048h" unicode="H" horiz-adv-x="605" 
d="M356 561h225v-561h-225v208h-108v-208h-224v561h224v-210h108v210z" />
    <glyph glyph-name="FL0049h" unicode="I" horiz-adv-x="579" 
d="M24 147v-147h530v147h-153v267h154v147h-530v-147h152v-267h-153z" />
    <glyph glyph-name="FL004Ah" unicode="J" 
d="M248 170v103h-224v-150q0 -23 9.5 -45t24.5 -39t33.5 -28t36.5 -11h373q18 0 36.5 10.5t33.5 27.5t24.5 39t9.5 46v438h-223v-391q-3 -6 -7 -14.5t-11 -8.5h-99q-9 0 -12 8.5t-5 14.5z" />
    <glyph glyph-name="FL004Bh" unicode="K" horiz-adv-x="601" 
d="M278 97l-30 67v-164h-224v561h224v-202q11 30 20.5 60.5t29.5 53.5v2q2 5 11 18t23 27t33 26t42 15h170v-148h-76q-11 0 -26.5 -11t-29.5 -27.5t-24 -36t-10 -37.5q0 -29 13 -56.5t32.5 -49t42.5 -34.5t43 -13h35v-148h-186q-16 0 -32 10t-30.5 24.5t-27.5 31.5t-23 31z
" />
    <glyph glyph-name="FL004Ch" unicode="L" horiz-adv-x="562" 
d="M24 142v419h224v-377q0 -20 6.5 -27.5t23.5 -9.5h260v-147h-422q-21 0 -38 11t-29 30.5t-18.5 45t-6.5 55.5z" />
    <glyph glyph-name="FL004Dh" unicode="M" horiz-adv-x="887" 
d="M638 0v391q-2 6 -4.5 14.5t-11.5 8.5h-51q-5 0 -9.5 -7t-6.5 -12l-1 -2v-393h-224v391q-2 6 -4.5 14.5t-11.5 8.5h-50q-7 0 -11 -8.5t-7 -14.5v-391h-223v438q0 24 9.5 46t24.5 39t33.5 27.5t36.5 10.5h631q18 0 36.5 -11t33.5 -28t24.5 -39.5t9.5 -44.5v-438h-224z" />
    <glyph glyph-name="FL004Eh" unicode="N" 
d="M381 391v-391h224v438q0 22 -9.5 44.5t-24.5 39.5t-33.5 28t-36.5 11h-477v-561h223v414h117q9 0 12 -8.5t5 -14.5z" />
    <glyph glyph-name="FL004Fh" unicode="O" 
d="M247 170v212q0 8 4 19t12 13h101q9 0 13.5 -12t4.5 -20v-212q-3 -6 -8 -14.5t-10 -8.5h-99q-11 0 -14 9t-4 14zM495 561h-361q-23 0 -43 -12.5t-35 -33t-23.5 -46t-8.5 -51.5v-295q0 -24 9.5 -46t24.5 -39t33.5 -27.5t36.5 -10.5h373q18 0 36.5 10.5t33.5 27.5t24.5 39
t9.5 46v295q0 26 -9 51.5t-24 46t-35 33t-42 12.5z" />
    <glyph glyph-name="FL0050h" unicode="P" 
d="M247 414v-110h106q8 0 14 5.5t10.5 14t6.5 18.5t2 18q0 7 -1.5 16t-5 17.5t-9 14.5t-12.5 6h-111zM24 0v561h460q34 0 57 -20.5t37 -50t20.5 -63.5t6.5 -61q0 -38 -6 -75.5t-20.5 -67t-37.5 -48t-56 -18.5h-238v-157h-223z" />
    <glyph glyph-name="FL0051h" unicode="Q" horiz-adv-x="630" 
d="M382 226v-56q-2 -6 -4.5 -14.5t-11.5 -8.5h-102q-2 0 -7.5 8.5t-7.5 14.5v212q0 8 4 20t13 12h101q8 -2 12 -13t4 -19q-1 -1 -1 -13v-13v-23v-42v-65zM126 0h-156v-149h312q19 0 38 10t35.5 25.5t30 35t22.5 38.5l18 40h76q18 0 36.5 10.5t33.5 27.5t24.5 39t9.5 46v295
q0 26 -8.5 51.5t-23.5 46t-35 33t-42 12.5h-362q-23 0 -42.5 -12.5t-34.5 -33t-23.5 -46t-8.5 -51.5v-295q0 -23 9 -44.5t23.5 -38.5t32 -28t35.5 -12z" />
    <glyph glyph-name="FL0052h" unicode="R" horiz-adv-x="647" 
d="M247 414v-110h106q8 0 14 6t10.5 14.5t6.5 18.5t2 18q0 7 -1.5 16t-5 17.5t-9 14t-12.5 5.5h-111zM24 0v561h468q34 0 56 -16t35 -41t17.5 -55t4.5 -58q0 -24 -4 -52t-12 -52.5t-21.5 -40.5t-32.5 -16q-4 -6 -4 -13t1 -8l127 -209h-277l-73 123q-9 14 -21 24t-26 10h-2
q-5 -2 -9 -4t-4 -3v-150h-223z" />
    <glyph glyph-name="FL005Ah" unicode="S" horiz-adv-x="614" 
d="M590 141v114q0 21 -10 39t-25 31t-33 20.5t-34 7.5h-240v31q0 8 4.5 19t12.5 11h325v147h-456q-23 0 -43 -11.5t-35 -31t-23.5 -44t-8.5 -50.5v-87q0 -23 10.5 -45.5t26 -40.5t33.5 -29.5t34 -11.5h238v-33q0 -8 -4.5 -19t-12.5 -11h-325v-147h456q22 0 42 13t35 33.5
t24 45.5t9 49z" />
    <glyph glyph-name="FL0055h" unicode="T" horiz-adv-x="599" 
d="M24 561h551v-147h-165v-414h-224v414h-162v147z" />
    <glyph glyph-name="FL0056h" unicode="U" 
d="M248 170v391h-224v-438q0 -23 9.5 -45t24.5 -39t33.5 -28t36.5 -11h477v561h-223v-414h-117q-9 0 -12 8.5t-5 14.5z" />
    <glyph glyph-name="FL0057h" unicode="V" horiz-adv-x="739" 
d="M414 54l312 507h-263l-195 -331q-3 -5 -5 -8.5t-6 -3.5q-2 2 -6 4t-4 3v335h-223v-561h330q8 0 17.5 6.5t18 15.5t15 18.5t9.5 14.5z" />
    <glyph glyph-name="FL0059h" unicode="W" horiz-adv-x="887" 
d="M450 561h-17l-186 -279v279h-224v-561h283q9 0 22 11.5t27.5 29.5t29 39t26.5 40t20 33.5t10 18.5h2q0 -2 1 -3q5 -9 21.5 -36.5t36.5 -57t40 -52.5t32 -23h288v561h-224v-279z" />
    <glyph glyph-name="FL0058h" unicode="X" horiz-adv-x="601" 
d="M24 0h101q23 0 45 5t41 22q15 13 31 31.5t31 47.5q2 -3 5 -9q10 -14 23 -31t27.5 -31.5t30.5 -24.5t32 -10h186v148h-35q-20 0 -43 16t-42.5 40.5t-32.5 53t-13 52.5q0 12 8 29.5t19.5 34t22.5 28t17 11.5h99v148h-170q-22 -7 -38.5 -23.5t-28 -33t-17.5 -29t-7 -12.5
q-7 10 -16 26.5t-22 32.5t-29.5 27.5t-38.5 11.5h-186v-148h32q2 0 10 -0.5t18.5 -3t21.5 -7.5t19 -14q23 -27 39.5 -56t33.5 -58q-4 -20 -17.5 -41.5t-30 -40.5t-32.5 -31t-23 -12h-71v-149z" />
    <glyph glyph-name="FL007Ch" unicode="Y" horiz-adv-x="618" 
d="M370 561h224v-417q0 -30 -6.5 -56.5t-18.5 -46t-28.5 -30.5t-37.5 -11h-475v147h313q16 2 22.5 9.5t6.5 27.5v23h-242q-18 0 -36.5 11t-33.5 28t-24.5 39t-9.5 45v231h224v-187q2 -5 5 -14.5t12 -9.5h89q5 0 9.5 8t6.5 14v189z" />
    <glyph glyph-name="FL007Bh" unicode="Z" horiz-adv-x="746" 
d="M722 148v-148h-292q-19 0 -38 9.5t-35.5 25.5t-30 35.5t-21.5 39.5l-106 239q-4 8 -10 19t-13.5 21.5t-15.5 17.5t-15 7h-121v147h285q17 0 34.5 -11.5t33.5 -28t28.5 -35.5t18.5 -34l104 -233q2 -7 8 -19t14 -23.5t16.5 -20t15.5 -8.5h140z" />
    <glyph glyph-name="FL005Bh" unicode="[" horiz-adv-x="344" 
d="M320 615h-296v-669h290v147h-65v375h71v147z" />
    <glyph glyph-name="FL005Ch" unicode="\" horiz-adv-x="662" 
d="M385 0l-372 561h262l372 -561h-262z" />
    <glyph glyph-name="FL005Dh" unicode="]" horiz-adv-x="344" 
d="M24 615h296v-669h-290v147h65v375h-71v147z" />
    <glyph glyph-name="FL005Eh" unicode="^" horiz-adv-x="740" 
d="M414 506l312 -507h-263l-196 334q-4 9 -9 9q-3 -2 -7 -4t-4 -3v-335h-223v561h330q9 0 18 -6.5t17 -15.5t14.5 -18.5t10.5 -14.5z" />
    <glyph glyph-name="FL005Fh" unicode="_" horiz-adv-x="471" 
d="M447 147v-147h-423v147h423z" />
    <glyph glyph-name="FL0061h" unicode="`" horiz-adv-x="1169" 
d="M575 414h-165v-414h-224v414h-162v147h551v-147zM443 0l311 507q3 6 10 15t15.5 18t18 15.5t17.5 6.5h330v-561h-223v335q0 1 -4 3t-6 4q-5 0 -6 -2t-4 -7l-196 -334h-263z" />
    <glyph glyph-name="a" unicode="a" horiz-adv-x="739" 
d="M14 -1l311 507q3 6 10 15t15.5 18t18 15.5t17.5 6.5h329v-561h-223v335q0 1 -3.5 3t-6.5 4q-5 0 -9 -9l-197 -334h-262z" />
    <glyph glyph-name="FL0062h" unicode="b" 
d="M247 350h109q17 0 23 6.5t6 23.5q0 14 -6.5 24t-21.5 10h-110v-64zM357 211h-110v-64h111q15 0 21.5 10t6.5 24q0 16 -6 23t-23 7zM484 0h-460v561h459q30 0 52.5 -16.5t37.5 -41.5t23 -55t8 -57q0 -28 -7.5 -58.5t-24.5 -47.5q20 -21 26.5 -52t6.5 -63q0 -28 -6.5 -58
t-20.5 -55t-37 -41t-57 -16z" />
    <glyph glyph-name="FL0063h" unicode="c" horiz-adv-x="562" 
d="M538 561h-404q-23 0 -43 -12.5t-35 -33t-23.5 -46t-8.5 -51.5v-295q0 -24 9.5 -46t24.5 -39t33.5 -27.5t36.5 -10.5h406v147h-269q-7 0 -11.5 6.5t-5.5 16.5v214q0 8 4.5 19t12.5 11h273v147z" />
    <glyph glyph-name="d" unicode="d" horiz-adv-x="623" 
d="M248 403v-253h82q16 0 25.5 9t13.5 23t5 31t1 32v68q0 13 -1 29t-4.5 29.5t-10 22.5t-17.5 9h-94zM24 0v561h487q16 0 32 -12.5t28.5 -32t20 -42.5t7.5 -43v-321q0 -18 -7 -37.5t-18 -35.5t-24.5 -26.5t-27.5 -10.5h-498z" />
    <glyph glyph-name="E" unicode="e" horiz-adv-x="562" 
d="M538 561h-404q-23 0 -43 -12.5t-35 -33t-23.5 -46t-8.5 -51.5v-295q0 -24 9.5 -46t24.5 -39t33.5 -27.5t36.5 -10.5h410v147h-273q-2 0 -8.5 8.5t-8.5 14.5q0 1 -0.5 3t-0.5 4t0.5 4t0.5 3q2 6 8.5 15t8.5 9h273v143h-268q-10 0 -16.5 10t-6.5 21q0 8 5 20t13 12h273v147
z" />
    <glyph glyph-name="FL0066h" unicode="f" horiz-adv-x="562" 
d="M538 561h-404q-23 0 -43 -12.5t-35 -33t-23.5 -46t-8.5 -51.5v-418h224v184q2 6 8.5 15t8.5 9h273v143h-268q-10 0 -16.5 10t-6.5 21q0 8 5 20t13 12h273v147z" />
    <glyph glyph-name="FL0067h" unicode="g" 
d="M605 253v-130q0 -24 -9.5 -46t-24.5 -39t-33.5 -27.5t-36.5 -10.5h-373q-18 0 -36.5 11t-33.5 28t-24.5 39t-9.5 45v295q0 26 8.5 51.5t23.5 46t35 33t43 12.5h468v-147h-337q-8 0 -12.5 -11t-4.5 -19l-2 -2h2v-212q2 -6 5 -14.5t12 -8.5h99q7 0 11 8.5t7 14.5v41h-89
v148h208q16 0 34.5 -8.5t34 -23t25.5 -34t10 -40.5z" />
    <glyph glyph-name="FL0068h" unicode="h" horiz-adv-x="605" 
d="M356 561h225v-561h-225v208h-108v-208h-224v561h224v-210h108v210z" />
    <glyph glyph-name="FL0069h" unicode="i" horiz-adv-x="272" 
d="M24 561h224v-561h-224v561z" />
    <glyph glyph-name="FL006Ah" unicode="j" horiz-adv-x="562" 
d="M538 144v417h-224v-377q0 -20 -6.5 -27.5t-23.5 -9.5h-260v-147h423q22 0 39 11t28.5 30.5t17.5 46t6 56.5z" />
    <glyph glyph-name="FL006Bh" unicode="k" horiz-adv-x="601" 
d="M278 97l-30 67v-164h-224v561h224v-202q11 30 20.5 60.5t29.5 53.5v2q2 5 11 18t23 27t33 26t42 15h170v-148h-76q-11 0 -26.5 -11t-29.5 -27.5t-24 -36t-10 -37.5q0 -29 13 -56.5t32.5 -49t42.5 -34.5t43 -13h35v-148h-186q-16 0 -32 10t-30.5 24.5t-27.5 31.5t-23 31z
" />
    <glyph glyph-name="l" unicode="l" horiz-adv-x="562" 
d="M24 561v-419q0 -30 6.5 -55.5t18.5 -45t29 -30.5t38 -11h422v147h-260q-17 2 -23.5 9.5t-6.5 27.5v377h-224z" />
    <glyph glyph-name="FL006Dh" unicode="m" horiz-adv-x="887" 
d="M454 0h-18l-188 279v-279h-224v561h288q12 0 32 -23t40 -52.5t36.5 -57t21.5 -36.5q0 -1 0.5 -1.5t0.5 -1.5h2q1 4 9.5 18.5t20.5 33.5t26.5 40t29.5 39t28 29.5t22 11.5h282v-561h-224v279z" />
    <glyph glyph-name="FL0071h" unicode="n" horiz-adv-x="735" 
d="M489 561h222v-561h-257q-18 0 -34.5 10t-31 25t-26.5 33.5t-22 35.5l-92 175v-279h-224v561h275q13 0 28 -11t29.5 -26.5t26.5 -33t18 -30.5l88 -185v286z" />
    <glyph glyph-name="FL006Fh" unicode="o" 
d="M134 561h361q22 0 42 -12.5t35 -33t24 -46t9 -51.5v-295q0 -24 -9.5 -46t-24.5 -39t-33.5 -27.5t-36.5 -10.5h-373q-18 0 -36.5 10.5t-33.5 27.5t-24.5 39t-9.5 46v295q0 26 8.5 51.5t23.5 46t35 33t43 12.5zM247 382v-212q1 -5 4 -14t14 -9h99q5 0 10 8.5t8 14.5v212
q0 8 -4.5 20t-13.5 12h-101q-8 -2 -12 -13t-4 -19z" />
    <glyph glyph-name="FL0070h" unicode="p" 
d="M24 561v-561h223v157h238q33 0 56 18.5t37.5 48t20.5 67t6 75.5q0 27 -6.5 61t-20.5 63.5t-37 50t-57 20.5h-460zM247 304v110h111q7 0 12.5 -6t9 -14.5t5 -17.5t1.5 -16q0 -8 -2 -18t-6.5 -18.5t-10.5 -14t-14 -5.5h-106z" />
    <glyph glyph-name="FL0072h" unicode="q" 
d="M660 0h-155q17 1 35 12t32.5 28t23.5 38.5t9 44.5v295q0 26 -9 51.5t-24 46t-35 33t-42 12.5h-361q-23 0 -43 -12.5t-35 -33t-23.5 -46t-8.5 -51.5v-295q0 -24 9.5 -46t24.5 -39t33.5 -27.5t36.5 -10.5h77l17 -40q9 -19 23 -38.5t30.5 -35t35 -25.5t37.5 -10h312v149z
M248 170v56v65v42v23v13q0 12 -1 13q0 8 4 19t12 13h101q9 0 13.5 -12t4.5 -20v-212q-3 -6 -8.5 -14.5t-7.5 -8.5h-101q-9 0 -12 8.5t-5 14.5z" />
    <glyph glyph-name="r" unicode="r" horiz-adv-x="647" 
d="M247 414v-110h106q8 0 14 6t10.5 14.5t6.5 18.5t2 18q0 7 -1.5 16t-5 17.5t-9 14t-12.5 5.5h-111zM24 0v561h468q34 0 56 -16t35 -41t17.5 -55t4.5 -58q0 -24 -4 -52t-12 -52.5t-21.5 -40.5t-32.5 -16q-4 -6 -4 -13t1 -8l127 -209h-277l-73 123q-9 14 -21 24t-26 10h-2
q-5 -2 -9 -4t-4 -3v-150h-223z" />
    <glyph glyph-name="s" unicode="s" horiz-adv-x="720" 
d="M24 0v148h118q7 0 14.5 7.5t15 18t13.5 22t10 19.5l105 237q4 9 16.5 27.5t29 36.5t34.5 31.5t35 13.5h281v-147h-117q-7 0 -15.5 -7t-16.5 -17.5t-14 -21.5t-8 -19l-106 -239q-9 -19 -22 -38.5t-29.5 -35.5t-35 -26t-38.5 -10h-270z" />
    <glyph glyph-name="FL0074h" unicode="t" horiz-adv-x="599" 
d="M575 561h-551v-147h162v-414h224v414h165v147z" />
    <glyph glyph-name="FL0075h" unicode="u" 
d="M248 170v391h-224v-438q0 -23 9.5 -45t24.5 -39t33.5 -28t36.5 -11h373q18 0 36.5 10.5t33.5 27.5t24.5 39t9.5 46v438h-223v-392l-7 -14t-11 -8h-99q-9 0 -12 8.5t-5 14.5z" />
    <glyph glyph-name="FL0076h" unicode="v" horiz-adv-x="739" 
d="M14 561l311 -507q3 -5 10 -14.5t15 -18.5t17.5 -15.5t18.5 -6.5h329v561h-223v-335q0 -1 -3.5 -3t-6.5 -4q-4 0 -6 3.5t-5 8.5l-195 331h-262z" />
    <glyph glyph-name="FL0077h" unicode="w" horiz-adv-x="887" 
d="M248 561v-391q2 -6 5 -14.5t12 -8.5h50q5 0 9.5 7t6.5 12l1 2v393h225v-391q2 -6 4.5 -14.5t11.5 -8.5h49q7 0 11.5 8.5t6.5 14.5v391h223v-438q0 -24 -9.5 -46t-24.5 -39t-33.5 -27.5t-36.5 -10.5h-631q-18 0 -36.5 11t-33.5 28t-24.5 39t-9.5 45v438h224z" />
    <glyph glyph-name="x" unicode="x" horiz-adv-x="601" 
d="M125 0h-101v149h71q7 0 23 12t32.5 31t30 40.5t17.5 41.5q-17 29 -33.5 58t-39.5 56q-8 9 -19 14t-21.5 7.5t-18.5 3t-10 0.5h-32v148h186q22 0 38.5 -11.5t29.5 -27.5t22 -32.5t16 -26.5q1 0 7 12.5t17.5 29t28 33t38.5 23.5h170v-148h-99q-6 0 -17 -11.5t-22.5 -28
t-19.5 -34t-8 -29.5q0 -24 13 -52.5t32.5 -53t42.5 -40.5t43 -16h35v-148h-186q-16 0 -32 10t-30.5 24.5t-27.5 31.5t-23 31q-3 6 -5 9q-15 -29 -31 -47.5t-31 -31.5q-19 -17 -41 -22t-45 -5z" />
    <glyph glyph-name="FL0079h" unicode="y" horiz-adv-x="601" 
d="M577 413v148h-175q-22 -8 -38 -24.5t-27.5 -33.5t-17 -30t-6.5 -13q-8 10 -18 27t-22.5 33.5t-29 28.5t-38.5 12h-181v-148h32q2 0 9.5 -1t17.5 -4t21.5 -9.5t21.5 -18.5q19 -21 36 -41.5t25 -54.5v-284h224v302q0 17 10.5 35t24.5 33.5t28 27t21 15.5h82z" />
    <glyph glyph-name="FL007Dh" unicode="z" horiz-adv-x="719" 
d="M695 0v148h-117q-8 0 -16.5 8.5t-16 20t-13.5 23.5t-9 19l-103 233q-5 9 -17.5 27.5t-28.5 36.5t-34 31.5t-35 13.5h-281v-147h116q8 0 16 -7t15.5 -17.5t13.5 -21.5t10 -19l106 -239q8 -19 21.5 -38.5t30.5 -35.5t36 -26t38 -10h268z" />
    <glyph glyph-name="FL0060h" unicode="{" horiz-adv-x="1190" 
d="M24 0v148h118q7 0 14.5 7.5t15 18t13.5 22t10 19.5l105 237q4 9 16.5 27.5t29 36.5t34.5 31.5t35 13.5h281v-147h-117q-7 0 -15.5 -7t-16.5 -17.5t-14 -21.5t-8 -19l-106 -239q-9 -19 -22 -38.5t-29.5 -35.5t-35 -26t-38.5 -10h-270zM494 0v148h117q7 0 15 7.5t15 18
t13.5 22t10.5 19.5l105 237q4 9 16.5 27.5t29 36.5t34.5 31.5t35 13.5h281v-147h-117q-7 0 -15.5 -7t-16.5 -17.5t-14 -21.5t-9 -19l-105 -239q-9 -19 -22 -38.5t-29.5 -35.5t-35.5 -26t-39 -10h-269z" />
    <glyph glyph-name="FL007Eh" unicode="|" horiz-adv-x="272" 
d="M248 730h-224v-899h224v899z" />
    <glyph glyph-name="FL0083h" unicode="}" horiz-adv-x="1230" 
d="M24 0v148h118q7 0 14.5 7.5t15 18t13.5 22t10 19.5l105 237q4 9 16.5 27.5t29 36.5t34.5 31.5t35 13.5h281v-147h-117q-7 0 -15.5 -7t-16.5 -17.5t-14 -21.5t-8 -19l-106 -239q-9 -19 -22 -38.5t-29.5 -35.5t-35 -26t-38.5 -10h-270zM504 0l311 507q3 6 10 15t15.5 18
t18 15.5t17.5 6.5h330v-561h-224v335q0 1 -3.5 3t-5.5 4q-5 0 -6.5 -2t-3.5 -7l-197 -334h-262z" />
    <glyph glyph-name="FL0082h" unicode="~" horiz-adv-x="1173" 
d="M575 414h-165v-414h-224v414h-162v147h551v-147zM477 0v148h117q7 0 15 7.5t15.5 18t13.5 22t10 19.5l105 237q4 9 16.5 27.5t29 36.5t34.5 31.5t35 13.5h281v-147h-117q-7 0 -15.5 -7t-16.5 -17.5t-14 -21.5t-8 -19l-106 -239q-9 -19 -22 -38.5t-29.5 -35.5t-35.5 -26
t-39 -10h-269z" />
    <glyph glyph-name="FL007Fh" horiz-adv-x="189" 
 />
    <glyph glyph-name="FL20ACh" horiz-adv-x="646" 
d="M24 359h94v59q0 26 8.5 51.5t23.5 46t35 33t43 12.5h394v-147h-263q-8 0 -12.5 -11t-4.5 -19v-25h145v-64h-145v-32h145v-64h-145v-29q1 -10 5.5 -16.5t11.5 -6.5h258v-147h-395q-18 0 -36.5 10.5t-33.5 27.5t-24.5 39t-9.5 46v76h-94v64h94v32h-94v64z" />
    <glyph glyph-name="FL20ACh" unicode="&#x20ac;" horiz-adv-x="646" 
d="M24 359h94v59q0 26 8.5 51.5t23.5 46t35 33t43 12.5h394v-147h-263q-8 0 -12.5 -11t-4.5 -19v-25h145v-64h-145v-32h145v-64h-145v-29q1 -10 5.5 -16.5t11.5 -6.5h258v-147h-395q-18 0 -36.5 10.5t-33.5 27.5t-24.5 39t-9.5 46v76h-94v64h94v32h-94v64z" />
    <glyph glyph-name="FL017Fh" horiz-adv-x="1190" 
d="M1166 0v148h-118q-7 0 -14.5 7.5t-15 18t-14 22t-10.5 19.5l-104 237q-5 9 -17.5 27.5t-29 36.5t-35 31.5t-34.5 13.5h-280v-147h116q7 0 16 -7t16.5 -17.5t13.5 -21.5t9 -19l105 -239q8 -19 22 -38.5t30.5 -35.5t35.5 -26t38 -10h270zM696 0v148h-118q-7 0 -14.5 7.5
t-15 18t-13.5 22t-10 19.5l-105 237q-4 9 -16.5 27.5t-29 36.5t-35 31.5t-34.5 13.5h-281v-147h117q7 0 15.5 -7t16.5 -17.5t14 -21.5t8 -19l106 -239q8 -19 21.5 -38.5t30 -35.5t35.5 -26t38 -10h270z" />
    <glyph glyph-name="FL017Fh" unicode="&#x17d;" horiz-adv-x="1190" 
d="M1166 0v148h-118q-7 0 -14.5 7.5t-15 18t-14 22t-10.5 19.5l-104 237q-5 9 -17.5 27.5t-29 36.5t-35 31.5t-34.5 13.5h-280v-147h116q7 0 16 -7t16.5 -17.5t13.5 -21.5t9 -19l105 -239q8 -19 22 -38.5t30.5 -35.5t35.5 -26t38 -10h270zM696 0v148h-118q-7 0 -14.5 7.5
t-15 18t-13.5 22t-10 19.5l-105 237q-4 9 -16.5 27.5t-29 36.5t-35 31.5t-34.5 13.5h-281v-147h117q7 0 15.5 -7t16.5 -17.5t14 -21.5t8 -19l106 -239q8 -19 21.5 -38.5t30 -35.5t35.5 -26t38 -10h270z" />
    <glyph glyph-name="FL017Eh" horiz-adv-x="720" 
d="M696 0v148h-118q-7 0 -14.5 7.5t-15 18t-13.5 22t-10 19.5l-105 237q-4 10 -16 28t-28.5 36t-35 31.5t-35.5 13.5h-281v-147h117q7 0 15.5 -7t16.5 -17.5t14 -21.5t8 -19l106 -239q8 -19 21.5 -38.5t30 -35.5t35.5 -26t38 -10h270zM322 792h-136l102 -166h142l100 166
h-135l-37 -64z" />
    <glyph glyph-name="FL017Eh" unicode="&#x17e;" horiz-adv-x="720" 
d="M696 0v148h-118q-7 0 -14.5 7.5t-15 18t-13.5 22t-10 19.5l-105 237q-4 10 -16 28t-28.5 36t-35 31.5t-35.5 13.5h-281v-147h117q7 0 15.5 -7t16.5 -17.5t14 -21.5t8 -19l106 -239q8 -19 21.5 -38.5t30 -35.5t35.5 -26t38 -10h270zM322 792h-136l102 -166h142l100 166
h-135l-37 -64z" />
    <glyph glyph-name="FL00A1h" unicode="&#xa1;" horiz-adv-x="272" 
d="M248 0h-224v246l18 88h188l18 -88v-246zM230 469q0 -20 -7.5 -36.5t-20.5 -29t-30 -19.5t-36 -7t-36 7t-30 19.5t-20.5 29t-7.5 36.5q0 19 7.5 36t20.5 29.5t30 19.5t36 7t36 -7t30 -19.5t20.5 -29.5t7.5 -36z" />
    <glyph glyph-name="FL00A2h" unicode="&#xa2;" horiz-adv-x="614" 
d="M590 176h-324q-5 0 -6.5 3t-3 7t-3 7.5t-4.5 4.5v170q0 8 4 14t12 6h325v147h-152v96h-179v-96h-125q-23 0 -43 -11.5t-35 -31t-23.5 -44t-8.5 -50.5v-228q0 -24 8.5 -49t23.5 -45.5t35 -33.5t43 -13h127v-89h179v89h150v147z" />
    <glyph glyph-name="FL00A3h" unicode="&#xa3;" horiz-adv-x="574" 
d="M24 351h84q-3 19 -3 40q0 27 8 57t23 55t37.5 41.5t52.5 16.5h175v-147h-49q-15 0 -21.5 -10t-6.5 -24q0 -17 6 -23.5t23 -6.5h110v-139h-111q-17 0 -23 -7t-6 -23q0 -14 6.5 -24t21.5 -10h199v-147h-526v147h81q-1 1 -1 11v12q0 9 0.5 18.5t1.5 19.5h-82v143z" />
    <glyph glyph-name="FL00BDh" unicode="&#xa4;" horiz-adv-x="662" 
d="M12 0h262l56 83l55 -83h262l-186 281l185 280h-262l-54 -82l-55 82h-262l185 -280zM298 369h71q14 0 25 -14t11 -30v-82q0 -14 -11 -26t-24 -12h-75q-12 0 -23 12t-11 26v82q0 16 11 30t26 14z" />
    <glyph glyph-name="FL00A5h" unicode="&#xa5;" horiz-adv-x="601" 
d="M66 289h120q-9 32 -25.5 51.5t-34.5 39.5q-10 12 -21.5 18.5t-21.5 9.5t-17.5 4t-9.5 1h-32v148h181q22 0 38.5 -12t29 -28.5t22.5 -33.5t18 -27q1 0 6.5 13t17 30t27.5 33.5t38 24.5h175v-148h-82q-7 -4 -21 -15.5t-28 -27t-24.5 -33.5t-10.5 -35v-13h119v-64h-119v-67
h119v-64h-119v-94h-224v94h-121v64h121v67h-121v64z" />
    <glyph glyph-name="FL00B8h" unicode="&#xa6;" horiz-adv-x="272" 
d="M248 685h-224v-803h224v803z" />
    <glyph glyph-name="FL00A7h" unicode="&#xa7;" horiz-adv-x="662" 
d="M12 0h262l372 561h-262zM298 369h71q14 0 25 -14t11 -30v-82q0 -14 -11 -26t-24 -12h-75q-12 0 -23 12t-11 26v82q0 16 11 30t26 14z" />
    <glyph glyph-name="FL00A8h" unicode="&#xa8;" horiz-adv-x="386" 
d="M20 482q0 34 22.5 57.5t55.5 23.5q34 0 56.5 -23.5t22.5 -57.5q0 -35 -23 -58.5t-56 -23.5t-55.5 23.5t-22.5 58.5zM366 482q0 -35 -23 -58.5t-56 -23.5t-55.5 23.5t-22.5 58.5q0 34 22 57.5t56 23.5t56.5 -23.5t22.5 -57.5z" />
    <glyph glyph-name="copyright" unicode="&#xa9;" horiz-adv-x="218" 
d="M109 629q21 0 43 -14q21 -14 34 -41q12 -26 12 -56q0 -29 -12 -54q-11 -26 -33 -42q-45 -14 -44 -14q-24 0 -44 14q-11 8 -18.5 18t-14.5 24q-12 25 -12 54q0 15 3.5 28.5t8.5 27.5q11 27 34 41q20 14 43 14zM109 611q-19 0 -36.5 -11.5t-27.5 -34.5q-10 -21 -10 -47
q0 -24 10 -45q7 -19 27 -34q18 -12 37 -12t37 12q15 11 27 34q9 22 9 45q0 24 -9 47q-10 21 -28 34q-16 12 -36 12zM138 501l14 -5q-5 -19 -16 -30t-27 -11q-21 0 -34 16.5t-13 46.5q0 31 13 47t35 16q31 0 40 -35l-14 -4q-9 23 -26 23q-32 0 -32 -47q0 -45 30 -45
q24 0 30 28z" />
    <glyph glyph-name="FL00AAh" unicode="&#xaa;" horiz-adv-x="338" 
d="M146 547h48q2 0 2 -3v-40h-54v37q0 6 4 6zM196 349h118v215q0 12 -5 23.5t-12.5 21t-17.5 15t-20 5.5h-181q-19 0 -36.5 -20t-17.5 -45v-215h118v76h54v-76z" />
    <glyph glyph-name="FL00ABh" unicode="&#xab;" horiz-adv-x="450" 
d="M382 279l54 67l-81 101l-135 -168l135 -169l81 101zM176 279l54 67l-81 101l-135 -168l135 -169l81 101z" />
    <glyph glyph-name="FL00ACh" unicode="&#xac;" horiz-adv-x="316" 
d="M292 351h-268v-143h154v-97h114v240z" />
    <glyph glyph-name="FL00ADh" unicode="&#xad;" horiz-adv-x="284" 
d="M24 351v-143h236v143h-236z" />
    <glyph glyph-name="registered" unicode="&#xae;" horiz-adv-x="218" 
d="M109 629q21 0 43 -14q21 -14 34 -41q12 -26 12 -56q0 -29 -12 -54q-11 -26 -33 -42q-45 -14 -44 -14q-24 0 -44 14q-11 8 -18.5 18t-14.5 24q-12 25 -12 54q0 15 3.5 28.5t8.5 27.5q11 27 34 41q20 14 43 14zM109 611q-19 0 -36.5 -11.5t-27.5 -34.5q-10 -21 -10 -47
q0 -24 10 -45q7 -19 27 -34q18 -12 37 -12t37 12q15 11 27 34q9 22 9 45q0 24 -9 47q-10 21 -28 34q-16 12 -36 12zM70 458v119h32q20 0 25 -4q9 -5 11 -11q5 -6 5 -18q0 -13 -7 -22.5t-20 -10.5q8 -4 12 -10.5t10 -19.5l12 -23h-19l-8 18q-11 23 -17 28q-3 4 -12 4h-8v-50
h-16zM86 524h18q14 0 18.5 5t4.5 13q0 12 -9 17q0 1 -16 1h-16v-36z" />
    <glyph glyph-name="FL00B3h" unicode="&#xaf;" horiz-adv-x="471" 
d="M447 560v-147h-423v147h423z" />
    <glyph glyph-name="FL00B1h" unicode="&#xb0;" horiz-adv-x="197" 
d="M20 480q0 -35 22.5 -58.5t55.5 -23.5t56 23.5t23 58.5q0 34 -22.5 57.5t-56.5 23.5q-33 0 -55.5 -23.5t-22.5 -57.5zM70 480q0 9 8 15t20 6q11 0 19 -6t8 -15t-8 -15.5t-19 -6.5q-12 0 -20 6.5t-8 15.5z" />
    <glyph glyph-name="FL00B2h" unicode="&#xb1;" horiz-adv-x="316" 
d="M215 419v95h-114v-95h-77v-143h77v-97h114v97h77v143h-77zM293 143h-268v-143h268v143z" />
    <glyph glyph-name="FL00B6h" unicode="&#xb2;" horiz-adv-x="331" 
d="M24 349v128q0 23 18 37.5t36 14.5h112v10q0 2 -1 5t-3 3h-161v82h225q23 0 40 -22t17 -49v-42q0 -12 -5.5 -24t-14 -21t-18 -15t-17.5 -6h-110v-19h165v-82h-283z" />
    <glyph glyph-name="FL00BCh" unicode="&#xb3;" horiz-adv-x="314" 
d="M165 528h-141v-78h142q9 0 9 -9q0 -10 -9 -10h-142v-82h202q18 0 30 8t19.5 21t11 28t3.5 30q0 14 -2.5 29t-11.5 26q8 9 11 23t3 28t-4 29.5t-12 28t-20 21t-28 8.5h-202v-82h142q8 0 8 -10q0 -9 -9 -9z" />
    <glyph glyph-name="FL00B4h" unicode="&#xb4;" horiz-adv-x="662" 
d="M274 0h-262l186 281l-185 280h262l55 -82l54 82h262l-185 -280l186 -281h-262l-55 83z" />
    <glyph glyph-name="FL00B5h" unicode="&#xb5;" horiz-adv-x="618" 
d="M248 561h-225v-417q0 -30 6.5 -56.5t18.5 -46t28.5 -30.5t37.5 -11h476v147h-313q-17 2 -23 9.5t-6 27.5v23h242q18 0 36.5 11t33.5 28t24.5 39t9.5 45v231h-224v-187q-3 -5 -5.5 -14.5t-11.5 -9.5h-90q-5 0 -9 8t-6 14v189z" />
    <glyph glyph-name="FL007Ah" unicode="&#xb6;" horiz-adv-x="770" 
d="M746 148v-148h-312q-19 0 -38 10t-35.5 26t-30 35.5t-21.5 38.5l-104 239q-3 8 -9.5 19t-14 21.5t-16 17.5t-15.5 7h-126v147h290q17 0 34.5 -11.5t33.5 -28t28.5 -35.5t18.5 -34l105 -233q3 -7 9 -19t13.5 -23.5t15.5 -20t16 -8.5h158z" />
    <glyph glyph-name="FL00B7h" unicode="&#xb7;" horiz-adv-x="236" 
d="M23 295q0 39 28 65.5t67 26.5q19 0 36 -7t29.5 -19.5t20 -29.5t7.5 -36q0 -20 -7.5 -36.5t-20 -29t-29.5 -19.5t-36 -7q-39 0 -67 26.5t-28 65.5z" />
    <glyph glyph-name="FL00BAh" unicode="&#xb8;" horiz-adv-x="156" 
d="M132 -157h-173v115h67v42h106v-157z" />
    <glyph glyph-name="FL00BEh" unicode="&#xb9;" horiz-adv-x="205" 
d="M181 348h-115v198h-42v82h157v-280z" />
    <glyph glyph-name="FL00B0h" unicode="&#xba;" horiz-adv-x="338" 
d="M153 513v-53q0 -6 4 -6h25q4 0 4 6v53q0 2 -1 5t-3 3h-25q-4 -1 -4 -8zM79 629h181q23 0 38.5 -22.5t15.5 -48.5v-148q0 -24 -16.5 -42.5t-35.5 -18.5h-186q-9 0 -18 5t-16.5 13.5t-12.5 19.5t-5 23v148q0 13 4.5 25.5t12 22.5t17.5 16.5t21 6.5z" />
    <glyph glyph-name="FL00BBh" unicode="&#xbb;" horiz-adv-x="450" 
d="M67 279l-53 67l80 101l136 -168l-136 -169l-80 101zM274 279l-54 67l81 101l135 -168l-135 -169l-81 101z" />
    <glyph glyph-name="FL0763h" unicode="&#xbc;" horiz-adv-x="724" 
d="M14 0h227l407 561h-226l-178 -244v244h-157v-82h43v-198h88zM507 119l27 44v-44h-27zM454 252l-100 -157v-57h180v-38h118v38h48v81h-48v161h-165q-10 0 -20 -11.5t-13 -17.5v1z" />
    <glyph glyph-name="FL0740h" unicode="&#xbd;" horiz-adv-x="726" 
d="M241 0h-227l204 281h-88v198h-43v82h157v-244l178 244h226l-204 -281h201q23 0 40 -22t17 -49v-42q0 -12 -5.5 -24t-14 -21t-18 -15t-17.5 -6h-109v-19h164v-82h-283v128q0 12 5 21.5t13 16t17.5 10.5t18.5 4h112v10q0 2 -0.5 5t-2.5 3h-162v49z" />
    <glyph glyph-name="FL077Ch" unicode="&#xbe;" horiz-adv-x="754" 
d="M165 460q9 0 9 9q0 10 -8 10h-142v82h202q16 0 28 -8.5t20 -21t12 -28t4 -29.5t-3 -28t-11 -23q9 -11 11.5 -26t2.5 -29q0 -19 -4 -34l165 227h227l-408 -561h-227l208 286q-9 -2 -14.5 -3.5t-10.5 -1.5h-202v82h142q9 0 9 10q0 9 -9 9h-142v78h141zM483 252v-1
q3 6 13.5 17.5t20.5 11.5h165v-161h48v-81h-48v-38h-119v38h-180v57zM537 119h26v44z" />
    <glyph glyph-name="FL00BFh" unicode="&#xbf;" horiz-adv-x="614" 
d="M504 347v-41q0 -21 -10 -39t-25 -31t-33 -20.5t-34 -7.5h-154v-31q0 -8 4.5 -19t12.5 -11h325v-147h-456q-23 0 -43 11.5t-35 31t-23.5 44t-8.5 50.5v87q0 22 10.5 44.5t26 39.5t33.5 28t34 11h376zM504 469q0 -20 -7.5 -36.5t-20.5 -29t-30 -19.5t-36 -7
q-39 0 -66.5 26.5t-27.5 65.5t27.5 65.5t66.5 26.5q19 0 36 -7t30 -19.5t20.5 -29.5t7.5 -36z" />
    <glyph glyph-name="FL00C0h" unicode="&#xc0;" 
d="M332 777l31 -53q5 -8 8.5 -15t3.5 -17v-11q0 -11 -1.5 -19t-9.5 -18q-18 -20 -38 -20t-32 18l-35 50q-5 8 -8.5 14.5t-3.5 17.5q0 15 4 29t14 25q9 11 17 13.5t19 2.5q20 0 31 -17zM247 391v-90h134v90q-2 6 -4.5 14.5t-12.5 8.5h-99q-7 0 -11.5 -8t-6.5 -14v-1zM605 0
h-224v158h-134v-158h-223v437q0 24 9.5 46t24.5 39.5t33.5 28t36.5 10.5h373q18 0 36.5 -11t33.5 -28.5t24.5 -40t9.5 -44.5v-437z" />
    <glyph glyph-name="FL00C1h" unicode="&#xc1;" 
d="M266 724l31 53q11 17 31 17q11 0 19 -2.5t17 -13.5q10 -11 14 -25t4 -29q0 -11 -3.5 -17.5t-8.5 -14.5l-35 -50q-12 -18 -32 -18t-38 20q-8 10 -9.5 18t-1.5 19v11q0 10 3 17t9 15zM247 391v-90h134v90q-2 6 -4.5 14.5t-12.5 8.5h-99q-7 0 -11.5 -8t-6.5 -14v-1zM605 0
h-224v158h-134v-158h-223v437q0 24 9.5 46t24.5 39.5t33.5 28t36.5 10.5h373q18 0 36.5 -11t33.5 -28.5t24.5 -40t9.5 -44.5v-437z" />
    <glyph glyph-name="FL00C2h" unicode="&#xc2;" 
d="M278 626h-136l102 166h142l100 -166h-135l-37 64zM247 391v-90h134v90q-2 6 -4.5 14.5t-12.5 8.5h-99q-7 0 -11.5 -8t-6.5 -14v-1zM605 0h-224v158h-134v-158h-223v437q0 24 9.5 46t24.5 39.5t33.5 28t36.5 10.5h373q18 0 36.5 -11t33.5 -28.5t24.5 -40t9.5 -44.5v-437z
" />
    <glyph glyph-name="FL00C3h" unicode="&#xc3;" 
d="M413 626h-89l-38 63l-36 -63h-135l102 166h89l37 -63l36 63h135zM247 391v-90h134v90q-2 6 -4.5 14.5t-12.5 8.5h-99q-7 0 -11.5 -8t-6.5 -14v-1zM605 0h-224v158h-134v-158h-223v437q0 24 9.5 46t24.5 39.5t33.5 28t36.5 10.5h373q18 0 36.5 -11t33.5 -28.5t24.5 -40
t9.5 -44.5v-437z" />
    <glyph glyph-name="FL00C4h" unicode="&#xc4;" 
d="M142 709q0 34 22 57.5t56 23.5t56 -23.5t22 -57.5q0 -35 -22.5 -58.5t-55.5 -23.5t-55.5 23.5t-22.5 58.5zM487 709q0 -35 -22.5 -58.5t-55.5 -23.5t-56 23.5t-23 58.5q0 34 22.5 57.5t56.5 23.5t56 -23.5t22 -57.5zM247 391v-90h134v90q-2 6 -4.5 14.5t-12.5 8.5h-99
q-7 0 -11.5 -8t-6.5 -14v-1zM605 0h-224v158h-134v-158h-223v437q0 24 9.5 46t24.5 39.5t33.5 28t36.5 10.5h373q18 0 36.5 -11t33.5 -28.5t24.5 -40t9.5 -44.5v-437z" />
    <glyph glyph-name="FL00C5h" unicode="&#xc5;" 
d="M287 709q0 -9 8 -15.5t19 -6.5q12 0 20 6.5t8 15.5t-8 15t-20 6q-11 0 -19 -6t-8 -15zM237 709q0 34 22 57.5t56 23.5t56.5 -23.5t22.5 -57.5q0 -35 -23 -58.5t-56 -23.5t-55.5 23.5t-22.5 58.5zM247 391v-90h134v90q-2 6 -4.5 14.5t-12.5 8.5h-99q-7 0 -11.5 -8
t-6.5 -14v-1zM605 0h-224v158h-134v-158h-223v437q0 24 9.5 46t24.5 39.5t33.5 28t36.5 10.5h373q18 0 36.5 -11t33.5 -28.5t24.5 -40t9.5 -44.5v-437z" />
    <glyph glyph-name="FL00C6h" unicode="&#xc6;" horiz-adv-x="1100" 
d="M605 0v28q27 -28 61 -28h410v147h-274q-2 0 -8 8.5t-8 14.5q0 1 -0.5 3t-0.5 4t0.5 4t0.5 3q2 6 8 15t8 9h274v143h-268q-11 0 -17 10t-6 21q0 8 4.5 20t12.5 12h274v147h-405q-26 0 -48.5 -16.5t-37.5 -42.5q-15 25 -38 42t-46 17h-373q-18 0 -36.5 -10.5t-33.5 -28
t-24.5 -39.5t-9.5 -46v-437h223v158h134v-158h224zM247 301v91q2 6 6.5 14t11.5 8h99q10 0 12.5 -8.5t4.5 -14.5v-90h-134z" />
    <glyph glyph-name="FL00C7h" unicode="&#xc7;" horiz-adv-x="562" 
d="M376 -157h-173v115h67v42h-142q-18 0 -36.5 10.5t-33.5 27.5t-24.5 39t-9.5 46v295q0 26 8.5 51.5t23.5 46t35 33t43 12.5h404v-147h-273q-8 0 -12.5 -11t-4.5 -19v-214q1 -10 5.5 -16.5t11.5 -6.5h269v-147h-158v-157z" />
    <glyph glyph-name="FL00C8h" unicode="&#xc8;" horiz-adv-x="562" 
d="M134 561h404v-147h-273q-8 0 -13 -12t-5 -20q0 -11 6.5 -21t16.5 -10h268v-143h-273q-2 0 -8.5 -9t-8.5 -15q0 -1 -0.5 -3t-0.5 -4t0.5 -4t0.5 -3q2 -6 8.5 -14.5t8.5 -8.5h273v-147h-410q-18 0 -36.5 10.5t-33.5 27.5t-24.5 39t-9.5 46v295q0 26 8.5 51.5t23.5 46t35 33
t43 12.5zM298 777l31 -53q5 -8 8.5 -15t3.5 -17v-11q0 -11 -1.5 -19t-9.5 -18q-18 -20 -39 -20q-20 0 -32 18l-34 50q-5 8 -8.5 14.5t-3.5 17.5q0 15 4 29t13 25t17.5 13.5t18.5 2.5q20 0 32 -17z" />
    <glyph glyph-name="FL00C9h" unicode="&#xc9;" horiz-adv-x="562" 
d="M134 561h404v-147h-273q-8 0 -13 -12t-5 -20q0 -11 6.5 -21t16.5 -10h268v-143h-273q-2 0 -8.5 -9t-8.5 -15q0 -1 -0.5 -3t-0.5 -4t0.5 -4t0.5 -3q2 -6 8.5 -14.5t8.5 -8.5h273v-147h-410q-18 0 -36.5 10.5t-33.5 27.5t-24.5 39t-9.5 46v295q0 26 8.5 51.5t23.5 46t35 33
t43 12.5zM259 724l31 53q12 17 32 17q10 0 18.5 -2.5t17.5 -13.5t13 -25t4 -29q0 -11 -3.5 -17.5t-8.5 -14.5l-34 -50q-12 -18 -32 -18q-21 0 -39 20q-8 10 -9.5 18t-1.5 19v11q0 10 3.5 17t8.5 15z" />
    <glyph glyph-name="FL00CAh" unicode="&#xca;" horiz-adv-x="562" 
d="M134 561h404v-147h-273q-8 0 -13 -12t-5 -20q0 -11 6.5 -21t16.5 -10h268v-143h-273q-2 0 -8.5 -9t-8.5 -15q0 -1 -0.5 -3t-0.5 -4t0.5 -4t0.5 -3q2 -6 8.5 -14.5t8.5 -8.5h273v-147h-410q-18 0 -36.5 10.5t-33.5 27.5t-24.5 39t-9.5 46v295q0 26 8.5 51.5t23.5 46t35 33
t43 12.5zM247 626h-135l102 166h141l101 -166h-135l-37 64z" />
    <glyph glyph-name="FL00CBh" unicode="&#xcb;" horiz-adv-x="562" 
d="M134 561h404v-147h-273q-8 0 -13 -12t-5 -20q0 -11 6.5 -21t16.5 -10h268v-143h-273q-2 0 -8.5 -9t-8.5 -15q0 -1 -0.5 -3t-0.5 -4t0.5 -4t0.5 -3q2 -6 8.5 -14.5t8.5 -8.5h273v-147h-410q-18 0 -36.5 10.5t-33.5 27.5t-24.5 39t-9.5 46v295q0 26 8.5 51.5t23.5 46t35 33
t43 12.5zM111 709q0 34 22.5 57.5t56.5 23.5q33 0 55.5 -23.5t22.5 -57.5q0 -35 -22.5 -58.5t-55.5 -23.5t-56 23.5t-23 58.5zM457 709q0 -35 -23 -58.5t-56 -23.5t-55.5 23.5t-22.5 58.5q0 34 22.5 57.5t55.5 23.5q34 0 56.5 -23.5t22.5 -57.5z" />
    <glyph glyph-name="FL00CCh" unicode="&#xcc;" horiz-adv-x="579" 
d="M306 777l32 -53q5 -8 8.5 -15t3.5 -17v-11q0 -11 -2 -19t-10 -18q-18 -20 -38 -20t-32 18l-34 50q-6 8 -9 14.5t-3 17.5q0 15 3.5 29t13.5 25q9 11 17.5 13.5t18.5 2.5q20 0 31 -17zM555 0v147h-153v267h152v147h-530v-147h154v-267h-153v-147h530z" />
    <glyph glyph-name="FL00CDh" unicode="&#xcd;" horiz-adv-x="579" 
d="M24 147v-147h530v147h-153v267h154v147h-530v-147h152v-267h-153zM242 724l31 53q11 17 31 17q11 0 19 -2.5t17 -13.5q10 -11 14 -25t4 -29q0 -11 -3.5 -17.5t-8.5 -14.5l-35 -50q-12 -18 -32 -18t-38 20q-8 10 -9.5 18t-1.5 19v11q0 10 3 17t9 15z" />
    <glyph glyph-name="FL00CEh" unicode="&#xce;" horiz-adv-x="579" 
d="M24 147v-147h530v147h-153v267h154v147h-530v-147h152v-267h-153zM250 626h-136l102 166h142l100 -166h-135l-37 64z" />
    <glyph glyph-name="FL00CFh" unicode="&#xcf;" horiz-adv-x="579" 
d="M24 147v-147h530v147h-153v267h154v147h-530v-147h152v-267h-153zM113 709q0 34 22 57.5t56 23.5t56.5 -23.5t22.5 -57.5q0 -35 -23 -58.5t-56 -23.5t-55.5 23.5t-22.5 58.5zM458 709q0 -35 -22.5 -58.5t-55.5 -23.5t-55.5 23.5t-22.5 58.5q0 34 22 57.5t56 23.5
t56 -23.5t22 -57.5z" />
    <glyph glyph-name="FL00D0h" unicode="&#xd0;" horiz-adv-x="672" 
d="M379 150h-82v58h44v143h-44v52h93q12 0 18.5 -9t10 -22.5t4.5 -29.5t1 -29v-68q0 -15 -1 -32t-5 -31t-13.5 -23t-25.5 -9zM73 351h-49v-143h49v-208h497q14 0 28 10.5t25 26.5t18 35.5t7 37.5v321q0 20 -7.5 43t-20 42.5t-28.5 32t-32 12.5h-487v-210z" />
    <glyph glyph-name="FL00D1h" unicode="&#xd1;" 
d="M381 391v-391h224v438q0 22 -9.5 44.5t-24.5 39.5t-33.5 28t-36.5 11h-477v-561h223v414h117q9 0 12 -8.5t5 -14.5zM514 792h-135l-36 -63l-37 63h-89l-102 -166h135l36 63l38 -63h89z" />
    <glyph glyph-name="FL00D2h" unicode="&#xd2;" 
d="M134 561h361q22 0 42 -12.5t35 -33t24 -46t9 -51.5v-295q0 -24 -9.5 -46t-24.5 -39t-33.5 -27.5t-36.5 -10.5h-373q-18 0 -36.5 10.5t-33.5 27.5t-24.5 39t-9.5 46v295q0 26 8.5 51.5t23.5 46t35 33t43 12.5zM247 382v-212q1 -5 4 -14t14 -9h99q5 0 10 8.5t8 14.5v212
q0 8 -4.5 20t-13.5 12h-101q-8 -2 -12 -13t-4 -19zM332 777l31 -53q5 -8 8.5 -15t3.5 -17v-11q0 -11 -1.5 -19t-9.5 -18q-18 -20 -38 -20t-32 18l-35 50q-5 8 -8.5 14.5t-3.5 17.5q0 15 4 29t14 25q9 11 17 13.5t19 2.5q20 0 31 -17z" />
    <glyph glyph-name="FL00D3h" unicode="&#xd3;" 
d="M134 561h361q22 0 42 -12.5t35 -33t24 -46t9 -51.5v-295q0 -24 -9.5 -46t-24.5 -39t-33.5 -27.5t-36.5 -10.5h-373q-18 0 -36.5 10.5t-33.5 27.5t-24.5 39t-9.5 46v295q0 26 8.5 51.5t23.5 46t35 33t43 12.5zM247 382v-212q1 -5 4 -14t14 -9h99q5 0 10 8.5t8 14.5v212
q0 8 -4.5 20t-13.5 12h-101q-8 -2 -12 -13t-4 -19zM266 724l31 53q11 17 31 17q11 0 19 -2.5t17 -13.5q10 -11 14 -25t4 -29q0 -11 -3.5 -17.5t-8.5 -14.5l-35 -50q-12 -18 -32 -18t-38 20q-8 10 -9.5 18t-1.5 19v11q0 10 3 17t9 15z" />
    <glyph glyph-name="FL00D4h" unicode="&#xd4;" 
d="M134 561h361q22 0 42 -12.5t35 -33t24 -46t9 -51.5v-295q0 -24 -9.5 -46t-24.5 -39t-33.5 -27.5t-36.5 -10.5h-373q-18 0 -36.5 10.5t-33.5 27.5t-24.5 39t-9.5 46v295q0 26 8.5 51.5t23.5 46t35 33t43 12.5zM247 382v-212q1 -5 4 -14t14 -9h99q5 0 10 8.5t8 14.5v212
q0 8 -4.5 20t-13.5 12h-101q-8 -2 -12 -13t-4 -19zM278 626h-136l102 166h142l100 -166h-135l-37 64z" />
    <glyph glyph-name="FL00D5h" unicode="&#xd5;" 
d="M247 170v212q0 8 4 19t12 13h101q9 0 13.5 -12t4.5 -20v-212q-3 -6 -8 -14.5t-10 -8.5h-99q-11 0 -14 9t-4 14zM514 792h-135l-36 -63l-37 63h-89l-102 -166h135l36 63l38 -63h89zM495 561h-361q-23 0 -43 -12.5t-35 -33t-23.5 -46t-8.5 -51.5v-295q0 -24 9.5 -46
t24.5 -39t33.5 -27.5t36.5 -10.5h373q18 0 36.5 10.5t33.5 27.5t24.5 39t9.5 46v295q0 26 -9 51.5t-24 46t-35 33t-42 12.5z" />
    <glyph glyph-name="FL00D6h" unicode="&#xd6;" 
d="M134 561h361q22 0 42 -12.5t35 -33t24 -46t9 -51.5v-295q0 -24 -9.5 -46t-24.5 -39t-33.5 -27.5t-36.5 -10.5h-373q-18 0 -36.5 10.5t-33.5 27.5t-24.5 39t-9.5 46v295q0 26 8.5 51.5t23.5 46t35 33t43 12.5zM247 382v-212q1 -5 4 -14t14 -9h99q5 0 10 8.5t8 14.5v212
q0 8 -4.5 20t-13.5 12h-101q-8 -2 -12 -13t-4 -19zM142 709q0 34 22 57.5t56 23.5t56 -23.5t22 -57.5q0 -35 -22.5 -58.5t-55.5 -23.5t-55.5 23.5t-22.5 58.5zM487 709q0 -35 -22.5 -58.5t-55.5 -23.5t-56 23.5t-23 58.5q0 34 22.5 57.5t56.5 23.5t56 -23.5t22 -57.5z" />
    <glyph glyph-name="FL00D7h" unicode="&#xd7;" horiz-adv-x="318" 
d="M241 279l53 67l-80 101l-55 -67l-53 68l-82 -101l54 -68l-54 -69l81 -101l54 69l55 -68l80 101z" />
    <glyph glyph-name="FL00D8h" unicode="&#xd8;" 
d="M495 561q22 0 42 -12.5t35 -33t24 -46t9 -51.5v-295q0 -24 -9.5 -46t-24.5 -39t-33.5 -27.5t-36.5 -10.5h-373q-18 0 -36.5 10.5t-33.5 27.5t-24.5 39t-9.5 46v295q0 26 8.5 51.5t23.5 46t35 33t43 12.5h361zM382 264l-100 -117h82q5 0 10 8.5t8 14.5v94zM342 414h-79
q-8 -2 -12 -13t-4 -19v-86z" />
    <glyph glyph-name="FL00D9h" unicode="&#xd9;" 
d="M363 724l-31 53q-11 17 -31 17q-11 0 -19 -2.5t-17 -13.5q-10 -11 -14 -25t-4 -29q0 -11 3.5 -17.5t8.5 -14.5l35 -50q12 -18 32 -18t38 20q8 10 9.5 18t1.5 19v11q0 10 -3.5 17t-8.5 15zM248 170v391h-224v-438q0 -23 9.5 -45t24.5 -39t33.5 -28t36.5 -11h477v561h-223
v-414h-117q-9 0 -12 8.5t-5 14.5z" />
    <glyph glyph-name="FL00DAh" unicode="&#xda;" 
d="M297 777l-31 -53q-6 -8 -9 -15t-3 -17v-11q0 -11 1.5 -19t9.5 -18q18 -20 38 -20t32 18l35 50q5 8 8.5 14.5t3.5 17.5q0 15 -4 29t-14 25q-9 11 -17 13.5t-19 2.5q-20 0 -31 -17zM248 170v391h-224v-438q0 -23 9.5 -45t24.5 -39t33.5 -28t36.5 -11h477v561h-223v-414
h-117q-9 0 -12 8.5t-5 14.5z" />
    <glyph glyph-name="FL00DBh" unicode="&#xdb;" 
d="M142 626h136l36 64l37 -64h135l-100 166h-142zM248 170v391h-224v-438q0 -23 9.5 -45t24.5 -39t33.5 -28t36.5 -11h477v561h-223v-414h-117q-9 0 -12 8.5t-5 14.5z" />
    <glyph glyph-name="FL00DCh" unicode="&#xdc;" 
d="M487 709q0 34 -22 57.5t-56 23.5t-56.5 -23.5t-22.5 -57.5q0 -35 23 -58.5t56 -23.5t55.5 23.5t22.5 58.5zM142 709q0 -35 22.5 -58.5t55.5 -23.5t55.5 23.5t22.5 58.5q0 34 -22 57.5t-56 23.5t-56 -23.5t-22 -57.5zM248 170v391h-224v-438q0 -23 9.5 -45t24.5 -39
t33.5 -28t36.5 -11h477v561h-223v-414h-117q-9 0 -12 8.5t-5 14.5z" />
    <glyph glyph-name="FL00DDh" unicode="&#xdd;" horiz-adv-x="618" 
d="M594 561h-224v-189q-2 -6 -6.5 -14t-9.5 -8h-89q-9 0 -12 9.5t-5 14.5v187h-224v-231q0 -23 9.5 -45t24.5 -39t33.5 -28t36.5 -11h242v-23q0 -20 -6.5 -27.5t-22.5 -9.5h-313v-147h475q21 0 37.5 11t28.5 30.5t18.5 46t6.5 56.5v417zM287 777l-31 -53q-5 -8 -8.5 -15
t-3.5 -17v-11q0 -11 1.5 -19t9.5 -18q18 -20 39 -20q20 0 32 18l34 50q5 8 8.5 14.5t3.5 17.5q0 15 -4 29t-14 25q-9 11 -17 13.5t-19 2.5q-20 0 -31 -17z" />
    <glyph glyph-name="FL00DEh" unicode="&#xde;" 
d="M24 561h224v-76h236q34 0 57 -20.5t37 -50t20.5 -63.5t6.5 -61q0 -38 -6 -75.5t-20.5 -67t-37.5 -48t-56 -18.5h-237v-81h-224v561zM358 338h-110v-110h105q8 0 14 5.5t10.5 14t6.5 18.5t2 18q0 7 -1.5 16t-5 17.5t-9 14.5t-12.5 6z" />
    <glyph glyph-name="FL00DFh" unicode="&#xdf;" horiz-adv-x="580" 
d="M307 350q17 0 23 6.5t6 23.5q0 14 -6.5 24t-21.5 10h-60v-552h-224v699h410q30 0 52.5 -16.5t37.5 -41.5t23 -55t8 -57q0 -28 -7.5 -58.5t-24.5 -47.5q20 -21 26.5 -52t6.5 -63q0 -28 -6 -58t-20.5 -55t-37.5 -41t-57 -16h-149v147h23q15 0 21.5 10t6.5 24q0 16 -6 23
t-23 7h-22v139h21z" />
    <glyph glyph-name="FL00E0h" unicode="&#xe0;" horiz-adv-x="739" 
d="M14 -1l311 507q3 6 10 15t15.5 18t18 15.5t17.5 6.5h329v-561h-223v335q0 1 -3.5 3t-6.5 4q-5 0 -9 -9l-197 -334h-262zM525 777l31 -53q5 -8 8.5 -15t3.5 -17v-11q0 -11 -1.5 -19t-9.5 -18q-18 -20 -39 -20q-20 0 -32 18l-34 50q-5 8 -8.5 14.5t-3.5 17.5q0 15 4 29
t14 25q9 11 17 13.5t19 2.5q20 0 31 -17z" />
    <glyph glyph-name="FL00E1h" unicode="&#xe1;" horiz-adv-x="739" 
d="M14 -1l311 507q3 6 10 15t15.5 18t18 15.5t17.5 6.5h329v-561h-223v335q0 1 -3.5 3t-6.5 4q-5 0 -9 -9l-197 -334h-262zM475 724l31 53q12 17 32 17q10 0 18.5 -2.5t17.5 -13.5t13 -25t4 -29q0 -11 -3.5 -17.5t-8.5 -14.5l-34 -50q-12 -18 -32 -18q-21 0 -39 20
q-8 10 -9.5 18t-1.5 19v11q0 10 3.5 17t8.5 15z" />
    <glyph glyph-name="FL00E2h" unicode="&#xe2;" horiz-adv-x="739" 
d="M14 -1l311 507q3 6 10 15t15.5 18t18 15.5t17.5 6.5h329v-561h-223v335q0 1 -3.5 3t-6.5 4q-5 0 -9 -9l-197 -334h-262zM482 626h-136l102 166h142l100 -166h-135l-37 64z" />
    <glyph glyph-name="FL00E3h" unicode="&#xe3;" horiz-adv-x="739" 
d="M325 506l-311 -507h262l197 334q4 9 9 9q3 -2 6.5 -4t3.5 -3v-335h223v561h-329q-8 0 -17.5 -6.5t-18 -15.5t-15.5 -18t-10 -15zM694 792h-135l-36 -63l-37 63h-89l-102 -166h135l36 63l38 -63h89z" />
    <glyph glyph-name="FL00E4h" unicode="&#xe4;" horiz-adv-x="739" 
d="M14 -1l311 507q3 6 10 15t15.5 18t18 15.5t17.5 6.5h329v-561h-223v335q0 1 -3.5 3t-6.5 4q-5 0 -9 -9l-197 -334h-262zM357 709q0 34 22 57.5t56 23.5t56.5 -23.5t22.5 -57.5q0 -35 -23 -58.5t-56 -23.5t-55.5 23.5t-22.5 58.5zM702 709q0 -35 -22.5 -58.5t-55.5 -23.5
t-55.5 23.5t-22.5 58.5q0 34 22 57.5t56 23.5t56 -23.5t22 -57.5z" />
    <glyph glyph-name="FL00E5h" unicode="&#xe5;" horiz-adv-x="739" 
d="M325 506l-311 -507h262l197 334q4 9 9 9q3 -2 6.5 -4t3.5 -3v-335h223v561h-329q-8 0 -17.5 -6.5t-18 -15.5t-15.5 -18t-10 -15zM443 709q0 -35 23 -58.5t56 -23.5t55.5 23.5t22.5 58.5q0 34 -22.5 57.5t-55.5 23.5q-34 0 -56.5 -23.5t-22.5 -57.5zM494 709q0 9 8 15
t19 6t19 -6t8 -15t-8 -15.5t-19 -6.5t-19 6.5t-8 15.5z" />
    <glyph glyph-name="FL00E6h" unicode="&#xe6;" horiz-adv-x="1033" 
d="M14 -1l311 507q3 6 10 15t15.5 18t18 15.5t17.5 6.5h623v-147h-274q-8 0 -12.5 -12t-4.5 -20q0 -11 6 -21t17 -10h268v-143h-274q-2 0 -8 -9t-9 -15v-7v-7q3 -6 9 -14.5t8 -8.5h274v-147h-517v335q0 1 -3.5 3t-6.5 4q-5 0 -9 -9l-197 -334h-262z" />
    <glyph glyph-name="FL00E7h" unicode="&#xe7;" horiz-adv-x="562" 
d="M376 -157h-173v115h67v42h-142q-18 0 -36.5 10.5t-33.5 27.5t-24.5 39t-9.5 46v295q0 26 8.5 51.5t23.5 46t35 33t43 12.5h404v-147h-273q-8 0 -12.5 -11t-4.5 -19v-214q1 -10 5.5 -16.5t11.5 -6.5h269v-147h-158v-157z" />
    <glyph glyph-name="FL00E8h" unicode="&#xe8;" horiz-adv-x="562" 
d="M134 561h404v-147h-273q-8 0 -13 -12t-5 -20q0 -11 6.5 -21t16.5 -10h268v-143h-273q-2 0 -8.5 -9t-8.5 -15q0 -1 -0.5 -3t-0.5 -4t0.5 -4t0.5 -3q2 -6 8.5 -14.5t8.5 -8.5h273v-147h-410q-18 0 -36.5 10.5t-33.5 27.5t-24.5 39t-9.5 46v295q0 26 8.5 51.5t23.5 46t35 33
t43 12.5zM298 777l31 -53q5 -8 8.5 -15t3.5 -17v-11q0 -11 -1.5 -19t-9.5 -18q-18 -20 -39 -20q-20 0 -32 18l-34 50q-5 8 -8.5 14.5t-3.5 17.5q0 15 4 29t13 25t17.5 13.5t18.5 2.5q20 0 32 -17z" />
    <glyph glyph-name="FL00E9h" unicode="&#xe9;" horiz-adv-x="562" 
d="M134 561h404v-147h-273q-8 0 -13 -12t-5 -20q0 -11 6.5 -21t16.5 -10h268v-143h-273q-2 0 -8.5 -9t-8.5 -15q0 -1 -0.5 -3t-0.5 -4t0.5 -4t0.5 -3q2 -6 8.5 -14.5t8.5 -8.5h273v-147h-410q-18 0 -36.5 10.5t-33.5 27.5t-24.5 39t-9.5 46v295q0 26 8.5 51.5t23.5 46t35 33
t43 12.5zM259 724l31 53q12 17 32 17q10 0 18.5 -2.5t17.5 -13.5t13 -25t4 -29q0 -11 -3.5 -17.5t-8.5 -14.5l-34 -50q-12 -18 -32 -18q-21 0 -39 20q-8 10 -9.5 18t-1.5 19v11q0 10 3.5 17t8.5 15z" />
    <glyph glyph-name="FL00EAh" unicode="&#xea;" horiz-adv-x="562" 
d="M134 561h404v-147h-273q-8 0 -13 -12t-5 -20q0 -11 6.5 -21t16.5 -10h268v-143h-273q-2 0 -8.5 -9t-8.5 -15q0 -1 -0.5 -3t-0.5 -4t0.5 -4t0.5 -3q2 -6 8.5 -14.5t8.5 -8.5h273v-147h-410q-18 0 -36.5 10.5t-33.5 27.5t-24.5 39t-9.5 46v295q0 26 8.5 51.5t23.5 46t35 33
t43 12.5zM247 626h-135l102 166h141l101 -166h-135l-37 64z" />
    <glyph glyph-name="FL00EBh" unicode="&#xeb;" horiz-adv-x="562" 
d="M134 561h404v-147h-273q-8 0 -13 -12t-5 -20q0 -11 6.5 -21t16.5 -10h268v-143h-273q-2 0 -8.5 -9t-8.5 -15q0 -1 -0.5 -3t-0.5 -4t0.5 -4t0.5 -3q2 -6 8.5 -14.5t8.5 -8.5h273v-147h-410q-18 0 -36.5 10.5t-33.5 27.5t-24.5 39t-9.5 46v295q0 26 8.5 51.5t23.5 46t35 33
t43 12.5zM111 709q0 34 22.5 57.5t56.5 23.5q33 0 55.5 -23.5t22.5 -57.5q0 -35 -22.5 -58.5t-55.5 -23.5t-56 23.5t-23 58.5zM457 709q0 -35 -23 -58.5t-56 -23.5t-55.5 23.5t-22.5 58.5q0 34 22.5 57.5t55.5 23.5q34 0 56.5 -23.5t22.5 -57.5z" />
    <glyph glyph-name="FL00ECh" unicode="&#xec;" horiz-adv-x="272" 
d="M154 777l32 -53q5 -8 8.5 -15t3.5 -17v-11q0 -11 -2 -19t-10 -18q-18 -20 -38 -20t-32 18l-34 50q-6 8 -9 14.5t-3 17.5q0 15 3.5 29t13.5 25q9 11 17.5 13.5t18.5 2.5q20 0 31 -17zM24 561h224v-561h-224v561z" />
    <glyph glyph-name="FL00EDh" unicode="&#xed;" horiz-adv-x="272" 
d="M24 561h224v-561h-224v561zM86 724l32 53q11 17 31 17q10 0 18.5 -2.5t17.5 -13.5q10 -11 13.5 -25t3.5 -29q0 -11 -3 -17.5t-9 -14.5l-34 -50q-12 -18 -32 -18t-38 20q-8 10 -10 18t-2 19v11q0 10 3.5 17t8.5 15z" />
    <glyph glyph-name="FL00EEh" unicode="&#xee;" horiz-adv-x="272" 
d="M24 561h224v-561h-224v561zM98 626h-136l102 166h142l100 -166h-135l-37 64z" />
    <glyph glyph-name="FL00EFh" unicode="&#xef;" horiz-adv-x="272" 
d="M24 561h224v-561h-224v561zM-36 709q0 34 22.5 57.5t55.5 23.5q34 0 56.5 -23.5t22.5 -57.5q0 -35 -23 -58.5t-56 -23.5t-55.5 23.5t-22.5 58.5zM310 709q0 -35 -23 -58.5t-56 -23.5t-55.5 23.5t-22.5 58.5q0 34 22 57.5t56 23.5t56.5 -23.5t22.5 -57.5z" />
    <glyph glyph-name="FL0047h" unicode="&#xf0;" 
d="M364 147h-99q-7 0 -11.5 8.5t-6.5 14.5v41h134v-41q-2 -6 -5 -14.5t-12 -8.5zM24 253v-130q0 -24 9.5 -46t24.5 -39t33.5 -27.5t36.5 -10.5h373q18 0 36.5 11t33.5 28t24.5 39t9.5 45v295q0 26 -9 51.5t-24 46t-35 33t-42 12.5h-469v-147h338q8 0 12.5 -11t4.5 -19l1 -2
h-1v-23h-253q-16 0 -34.5 -8.5t-34 -23t-25.5 -34t-10 -40.5z" />
    <glyph glyph-name="FL00F1h" unicode="&#xf1;" horiz-adv-x="758" 
d="M734 561h-224v-286l-96 185q-6 13 -17 30.5t-24.5 33t-28.5 26.5t-28 11h-292v-561h224v279l102 -175q10 -17 21.5 -35.5t25.5 -33.5t30.5 -25t34.5 -10h272v561zM589 792h-135l-36 -63l-38 63h-89l-101 -166h135l36 63l37 -63h89z" />
    <glyph glyph-name="FL00F2h" unicode="&#xf2;" 
d="M134 561h361q22 0 42 -12.5t35 -33t24 -46t9 -51.5v-295q0 -24 -9.5 -46t-24.5 -39t-33.5 -27.5t-36.5 -10.5h-373q-18 0 -36.5 10.5t-33.5 27.5t-24.5 39t-9.5 46v295q0 26 8.5 51.5t23.5 46t35 33t43 12.5zM247 382v-212q1 -5 4 -14t14 -9h99q5 0 10 8.5t8 14.5v212
q0 8 -4.5 20t-13.5 12h-101q-8 -2 -12 -13t-4 -19zM332 777l31 -53q5 -8 8.5 -15t3.5 -17v-11q0 -11 -1.5 -19t-9.5 -18q-18 -20 -38 -20t-32 18l-35 50q-5 8 -8.5 14.5t-3.5 17.5q0 15 4 29t14 25q9 11 17 13.5t19 2.5q20 0 31 -17z" />
    <glyph glyph-name="FL00F3h" unicode="&#xf3;" 
d="M134 561h361q22 0 42 -12.5t35 -33t24 -46t9 -51.5v-295q0 -24 -9.5 -46t-24.5 -39t-33.5 -27.5t-36.5 -10.5h-373q-18 0 -36.5 10.5t-33.5 27.5t-24.5 39t-9.5 46v295q0 26 8.5 51.5t23.5 46t35 33t43 12.5zM247 382v-212q1 -5 4 -14t14 -9h99q5 0 10 8.5t8 14.5v212
q0 8 -4.5 20t-13.5 12h-101q-8 -2 -12 -13t-4 -19zM266 724l31 53q11 17 31 17q11 0 19 -2.5t17 -13.5q10 -11 14 -25t4 -29q0 -11 -3.5 -17.5t-8.5 -14.5l-35 -50q-12 -18 -32 -18t-38 20q-8 10 -9.5 18t-1.5 19v11q0 10 3 17t9 15z" />
    <glyph glyph-name="FL00F4h" unicode="&#xf4;" 
d="M134 561h361q22 0 42 -12.5t35 -33t24 -46t9 -51.5v-295q0 -24 -9.5 -46t-24.5 -39t-33.5 -27.5t-36.5 -10.5h-373q-18 0 -36.5 10.5t-33.5 27.5t-24.5 39t-9.5 46v295q0 26 8.5 51.5t23.5 46t35 33t43 12.5zM247 382v-212q1 -5 4 -14t14 -9h99q5 0 10 8.5t8 14.5v212
q0 8 -4.5 20t-13.5 12h-101q-8 -2 -12 -13t-4 -19zM278 626h-136l102 166h142l100 -166h-135l-37 64z" />
    <glyph glyph-name="FL00F5h" unicode="&#xf5;" 
d="M247 170v212q0 8 4 19t12 13h101q9 0 13.5 -12t4.5 -20v-212q-3 -6 -8 -14.5t-10 -8.5h-99q-11 0 -14 9t-4 14zM514 792h-135l-36 -63l-37 63h-89l-102 -166h135l36 63l38 -63h89zM495 561h-361q-23 0 -43 -12.5t-35 -33t-23.5 -46t-8.5 -51.5v-295q0 -24 9.5 -46
t24.5 -39t33.5 -27.5t36.5 -10.5h373q18 0 36.5 10.5t33.5 27.5t24.5 39t9.5 46v295q0 26 -9 51.5t-24 46t-35 33t-42 12.5z" />
    <glyph glyph-name="FL00F6h" unicode="&#xf6;" 
d="M134 561h361q22 0 42 -12.5t35 -33t24 -46t9 -51.5v-295q0 -24 -9.5 -46t-24.5 -39t-33.5 -27.5t-36.5 -10.5h-373q-18 0 -36.5 10.5t-33.5 27.5t-24.5 39t-9.5 46v295q0 26 8.5 51.5t23.5 46t35 33t43 12.5zM247 382v-212q1 -5 4 -14t14 -9h99q5 0 10 8.5t8 14.5v212
q0 8 -4.5 20t-13.5 12h-101q-8 -2 -12 -13t-4 -19zM142 709q0 34 22 57.5t56 23.5t56 -23.5t22 -57.5q0 -35 -22.5 -58.5t-55.5 -23.5t-55.5 23.5t-22.5 58.5zM487 709q0 -35 -22.5 -58.5t-55.5 -23.5t-56 23.5t-23 58.5q0 34 22.5 57.5t56.5 23.5t56 -23.5t22 -57.5z" />
    <glyph glyph-name="FL00F7h" unicode="&#xf7;" horiz-adv-x="366" 
d="M24 208v143h318v-143h-318zM122 463q0 31 18.5 52t44.5 21t44.5 -21t18.5 -52t-18.5 -52.5t-44.5 -21.5t-44.5 21.5t-18.5 52.5zM122 103q0 31 18.5 52t44.5 21t44.5 -21t18.5 -52t-18.5 -52.5t-44.5 -21.5t-44.5 21.5t-18.5 52.5z" />
    <glyph glyph-name="FL00F8h" unicode="&#xf8;" 
d="M495 561q22 0 42 -12.5t35 -33t24 -46t9 -51.5v-295q0 -24 -9.5 -46t-24.5 -39t-33.5 -27.5t-36.5 -10.5h-373q-18 0 -36.5 10.5t-33.5 27.5t-24.5 39t-9.5 46v295q0 26 8.5 51.5t23.5 46t35 33t43 12.5h361zM382 264l-100 -117h82q5 0 10 8.5t8 14.5v94zM342 414h-79
q-8 -2 -12 -13t-4 -19v-86z" />
    <glyph glyph-name="FL00F9h" unicode="&#xf9;" 
d="M332 777l31 -53q5 -8 8.5 -15t3.5 -17v-11q0 -11 -1.5 -19t-9.5 -18q-18 -20 -38 -20t-32 18l-35 50q-5 8 -8.5 14.5t-3.5 17.5q0 15 4 29t14 25q9 11 17 13.5t19 2.5q20 0 31 -17zM381 170v391h224v-438q0 -23 -9.5 -45t-24.5 -39t-33.5 -28t-36.5 -11h-373
q-18 0 -36.5 10.5t-33.5 27.5t-24.5 39t-9.5 46v438h223v-391q2 -6 6.5 -14.5t11.5 -8.5h99q9 0 12 8.5t5 14.5z" />
    <glyph glyph-name="FL00FAh" unicode="&#xfa;" 
d="M248 561v-391q2 -6 5 -14.5t12 -8.5h99q7 0 11 8.5t7 14.5v391h223v-438q0 -24 -9.5 -46t-24.5 -39t-33.5 -27.5t-36.5 -10.5h-373q-18 0 -36.5 11t-33.5 28t-24.5 39t-9.5 45v438h224zM266 724l31 53q11 17 31 17q11 0 19 -2.5t17 -13.5q10 -11 14 -25t4 -29
q0 -11 -3.5 -17.5t-8.5 -14.5l-35 -50q-12 -18 -32 -18t-38 20q-8 10 -9.5 18t-1.5 19v11q0 10 3 17t9 15z" />
    <glyph glyph-name="FL00FBh" unicode="&#xfb;" 
d="M248 561v-391q2 -6 5 -14.5t12 -8.5h99q7 0 11 8.5t7 14.5v391h223v-438q0 -24 -9.5 -46t-24.5 -39t-33.5 -27.5t-36.5 -10.5h-373q-18 0 -36.5 11t-33.5 28t-24.5 39t-9.5 45v438h224zM278 626h-136l102 166h142l100 -166h-135l-37 64z" />
    <glyph glyph-name="FL00FCh" unicode="&#xfc;" 
d="M248 561v-391q2 -6 5 -14.5t12 -8.5h99q7 0 11 8.5t7 14.5v391h223v-438q0 -24 -9.5 -46t-24.5 -39t-33.5 -27.5t-36.5 -10.5h-373q-18 0 -36.5 11t-33.5 28t-24.5 39t-9.5 45v438h224zM142 709q0 34 22 57.5t56 23.5t56 -23.5t22 -57.5q0 -35 -22.5 -58.5t-55.5 -23.5
t-55.5 23.5t-22.5 58.5zM487 709q0 -35 -22.5 -58.5t-55.5 -23.5t-56 23.5t-23 58.5q0 34 22.5 57.5t56.5 23.5t56 -23.5t22 -57.5z" />
    <glyph glyph-name="FL00FDh" unicode="&#xfd;" horiz-adv-x="601" 
d="M577 561v-148h-82q-7 -4 -21 -15.5t-28 -27t-24.5 -33.5t-10.5 -35v-302h-224v284q-8 34 -25 54.5t-36 41.5q-10 12 -21.5 18.5t-21.5 9.5t-17.5 4t-9.5 1h-32v148h181q22 0 38.5 -12t29 -28.5t22.5 -33.5t18 -27q1 0 6.5 13t17 30t27.5 33.5t38 24.5h175zM263 724l31 53
q12 17 32 17q10 0 18.5 -2.5t17.5 -13.5t13 -25t4 -29q0 -11 -3.5 -17.5t-8.5 -14.5l-34 -50q-12 -18 -32 -18q-21 0 -39 20q-8 10 -9.5 18t-1.5 19v11q0 10 3.5 17t8.5 15z" />
    <glyph glyph-name="FL00FEh" unicode="&#xfe;" 
d="M24 561h224v-76h236q34 0 57 -20.5t37 -50t20.5 -63.5t6.5 -61q0 -38 -6 -75.5t-20.5 -67t-37.5 -48t-56 -18.5h-237v-81h-224v561zM358 338h-110v-110h105q8 0 14 5.5t10.5 14t6.5 18.5t2 18q0 7 -1.5 16t-5 17.5t-9 14.5t-12.5 6z" />
    <glyph glyph-name="FL00FFh" unicode="&#xff;" horiz-adv-x="601" 
d="M577 561v-148h-82q-7 -4 -21 -15.5t-28 -27t-24.5 -33.5t-10.5 -35v-302h-224v284q-8 34 -25 54.5t-36 41.5q-10 12 -21.5 18.5t-21.5 9.5t-17.5 4t-9.5 1h-32v148h181q22 0 38.5 -12t29 -28.5t22.5 -33.5t18 -27q1 0 6.5 13t17 30t27.5 33.5t38 24.5h175zM124 709
q0 34 22.5 57.5t55.5 23.5q34 0 56.5 -23.5t22.5 -57.5q0 -35 -23 -58.5t-56 -23.5t-55.5 23.5t-22.5 58.5zM470 709q0 -35 -23 -58.5t-56 -23.5t-55.5 23.5t-22.5 58.5q0 34 22 57.5t56 23.5t56.5 -23.5t22.5 -57.5z" />
    <glyph glyph-name="FL0152h" unicode="&#x152;" horiz-adv-x="969" 
d="M945 561v-147h-274q-8 0 -12.5 -12t-4.5 -20q0 -11 6 -21t17 -10h268v-143h-274q-2 0 -8 -9t-9 -15v-7v-7q3 -6 9 -14.5t8 -8.5h274v-147h-817q-18 0 -36.5 10.5t-33.5 27.5t-24.5 39t-9.5 46v295q0 26 8.5 51.5t23.5 46t35 33t43 12.5h811zM430 414h-165q-8 0 -12.5 -11
t-4.5 -19v-214q1 -10 5.5 -16.5t11.5 -6.5h165v267z" />
    <glyph glyph-name="FL0153h" unicode="&#x153;" horiz-adv-x="969" 
d="M945 561v-147h-274q-8 0 -12.5 -12t-4.5 -20q0 -11 6 -21t17 -10h268v-143h-274q-2 0 -8 -9t-9 -15v-7v-7q3 -6 9 -14.5t8 -8.5h274v-147h-817q-18 0 -36.5 10.5t-33.5 27.5t-24.5 39t-9.5 46v295q0 26 8.5 51.5t23.5 46t35 33t43 12.5h811zM430 414h-165q-8 0 -12.5 -11
t-4.5 -19v-214q1 -10 5.5 -16.5t11.5 -6.5h165v267z" />
    <glyph glyph-name="FL0160h" unicode="&#x160;" horiz-adv-x="614" 
d="M590 255v-114q0 -24 -9 -49t-24 -45.5t-35 -33.5t-42 -13h-456v147h325q8 0 12.5 11t4.5 19v33h-238q-16 0 -34 11.5t-33.5 29.5t-26 40.5t-10.5 45.5v87q0 26 8.5 50.5t23.5 44t35 31t43 11.5h456v-147h-325q-8 0 -12.5 -11t-4.5 -19v-31h240q16 0 34 -7.5t33 -20.5
t25 -31t10 -39zM346 792h135l-102 -166h-141l-101 166h135l37 -64z" />
    <glyph glyph-name="FL0161h" unicode="&#x161;" horiz-adv-x="720" 
d="M24 0v148h118q7 0 14.5 7.5t15 18t13.5 22t10 19.5l105 237q4 10 16 28t28.5 36t35 31.5t35.5 13.5h281v-147h-117q-7 0 -15.5 -7t-16.5 -17.5t-14 -21.5t-8 -19l-106 -239q-9 -19 -22 -38.5t-29.5 -35.5t-35.5 -26t-38 -10h-270zM398 792h136l-102 -166h-142l-100 166
h135l37 -64z" />
    <glyph glyph-name="FL0178h" unicode="&#x178;" horiz-adv-x="618" 
d="M370 561h224v-417q0 -30 -6.5 -56.5t-18.5 -46t-28.5 -30.5t-37.5 -11h-475v147h313q16 2 22.5 9.5t6.5 27.5v23h-242q-18 0 -36.5 11t-33.5 28t-24.5 39t-9.5 45v231h224v-187q2 -5 5 -14.5t12 -9.5h89q5 0 9.5 8t6.5 14v189zM134 709q0 34 22.5 57.5t56.5 23.5
t56 -23.5t22 -57.5q0 -35 -22.5 -58.5t-55.5 -23.5t-56 23.5t-23 58.5zM480 709q0 -35 -22.5 -58.5t-55.5 -23.5t-56 23.5t-23 58.5q0 34 22.5 57.5t56.5 23.5q33 0 55.5 -23.5t22.5 -57.5z" />
    <glyph glyph-name="FL00AFh" unicode="&#x192;" 
d="M605 308q0 -21 -10 -40.5t-25.5 -34t-34 -23t-34.5 -8.5h-253v-23h-2l2 -2q0 -8 4.5 -19t12.5 -11h337v-147h-468q-23 0 -43 12.5t-35 33t-23.5 46t-8.5 51.5v295q0 22 9.5 44.5t24.5 39.5t33.5 28t36.5 11h373q18 0 36.5 -10.5t33.5 -27.5t24.5 -39t9.5 -46v-130z
M265 414q-9 0 -12 -8.5t-5 -14.5v-41h134v41q-3 6 -7 14.5t-11 8.5h-99z" />
    <glyph glyph-name="FL02C6h" unicode="&#x2c6;" horiz-adv-x="371" 
d="M149 394h-135l101 166h142l101 -166h-136l-36 64z" />
    <glyph glyph-name="FL02DCh" unicode="&#x2dc;" horiz-adv-x="426" 
d="M413 561h-135l-36 -63l-38 63h-89l-101 -166h135l36 63l37 -63h89z" />
    <glyph glyph-name="FL2013h" unicode="&#x2013;" horiz-adv-x="316" 
d="M24 351v-143h268v143h-268z" />
    <glyph glyph-name="FL2014h" unicode="&#x2014;" horiz-adv-x="366" 
d="M24 351v-143h318v143h-318z" />
    <glyph glyph-name="FL2018h" unicode="&#x2018;" horiz-adv-x="223" 
d="M24 369v101q0 19 7 35.5t19 29t28 19.5t34 7t34 -7t27.5 -19.5t18.5 -29t7 -35.5v-101q0 -19 -7 -35.5t-18.5 -29t-27.5 -19.5t-34 -7t-34 7t-28 19.5t-19 29t-7 35.5z" />
    <glyph glyph-name="FL2019h" unicode="&#x2019;" horiz-adv-x="223" 
d="M24 369v101q0 19 7 35.5t19 29t28 19.5t34 7t34 -7t27.5 -19.5t18.5 -29t7 -35.5v-101q0 -19 -7 -35.5t-18.5 -29t-27.5 -19.5t-34 -7t-34 7t-28 19.5t-19 29t-7 35.5z" />
    <glyph glyph-name="FL201Ah" unicode="&#x201a;" horiz-adv-x="236" 
d="M24 -11v103q0 19 7.5 36t20.5 29.5t30 19.5t36 7q39 0 66.5 -26.5t27.5 -65.5v-103q0 -39 -27.5 -65.5t-66.5 -26.5q-19 0 -36 7t-30 19.5t-20.5 29t-7.5 36.5z" />
    <glyph glyph-name="FL201Ch" unicode="&#x201c;" horiz-adv-x="403" 
d="M212 369v101q0 38 24.5 64.5t59.5 26.5q17 0 32 -7t26.5 -19.5t18 -29t6.5 -35.5v-101q0 -19 -6.5 -35.5t-18 -29t-26.5 -19.5t-32 -7q-35 0 -59.5 26.5t-24.5 64.5zM24 368v101q0 38 24.5 64.5t59.5 26.5q17 0 32 -7t26.5 -19.5t18 -29t6.5 -35.5v-101q0 -19 -6.5 -35.5
t-18 -29t-26.5 -19.5t-32 -7q-35 0 -59.5 26.5t-24.5 64.5z" />
    <glyph glyph-name="FL201Dh" unicode="&#x201d;" horiz-adv-x="403" 
d="M212 369v101q0 38 24.5 64.5t59.5 26.5q17 0 32 -7t26.5 -19.5t18 -29t6.5 -35.5v-101q0 -19 -6.5 -35.5t-18 -29t-26.5 -19.5t-32 -7q-35 0 -59.5 26.5t-24.5 64.5zM24 368v101q0 38 24.5 64.5t59.5 26.5q17 0 32 -7t26.5 -19.5t18 -29t6.5 -35.5v-101q0 -19 -6.5 -35.5
t-18 -29t-26.5 -19.5t-32 -7q-35 0 -59.5 26.5t-24.5 64.5z" />
    <glyph glyph-name="FL201Eh" unicode="&#x201e;" horiz-adv-x="446" 
d="M234 -11v103q0 19 7.5 36t20.5 29.5t30.5 19.5t36.5 7t36 -7t29.5 -19.5t20 -29.5t7.5 -36v-103q0 -20 -7.5 -36.5t-20 -29t-29.5 -19.5t-36 -7t-36.5 7t-30.5 19.5t-20.5 29t-7.5 36.5zM24 -11v103q0 19 7.5 36t20.5 29.5t30 19.5t36 7q39 0 66.5 -26.5t27.5 -65.5v-103
q0 -39 -27.5 -65.5t-66.5 -26.5q-19 0 -36 7t-30 19.5t-20.5 29t-7.5 36.5z" />
    <glyph glyph-name="FL2020h" unicode="&#x2020;" horiz-adv-x="350" 
d="M287 561v-108h39v-143h-39v-310h-224v310h-39v143h39v108h224z" />
    <glyph glyph-name="FL2021h" unicode="&#x2021;" horiz-adv-x="350" 
d="M287 561v-108h39v-143h-39v-59h39v-143h-39v-108h-224v108h-39v143h39v59h-39v143h39v108h224z" />
    <glyph glyph-name="FL2022h" unicode="&#x2022;" 
d="M495 561q22 0 42 -12.5t35 -33t24 -46t9 -51.5v-295q0 -24 -9.5 -46t-24.5 -39t-33.5 -27.5t-36.5 -10.5h-373q-18 0 -36.5 10.5t-33.5 27.5t-24.5 39t-9.5 46v295q0 26 8.5 51.5t23.5 46t35 33t43 12.5h361z" />
    <glyph glyph-name="FL2026h" unicode="&#x2026;" horiz-adv-x="654" 
d="M442 92q0 19 7.5 36t20.5 29.5t30 19.5t36 7t36 -7t30 -19.5t20.5 -29.5t7.5 -36q0 -20 -7.5 -36.5t-20.5 -29t-30 -19.5t-36 -7t-36 7t-30 19.5t-20.5 29t-7.5 36.5zM233 92q0 19 7.5 36t20.5 29.5t30 19.5t36 7t36 -7t30 -19.5t20.5 -29.5t7.5 -36q0 -20 -7.5 -36.5
t-20.5 -29t-30 -19.5t-36 -7t-36 7t-30 19.5t-20.5 29t-7.5 36.5zM24 92q0 19 7.5 36t20.5 29.5t30 19.5t36 7q39 0 66.5 -26.5t27.5 -65.5t-27.5 -65.5t-66.5 -26.5q-19 0 -36 7t-30 19.5t-20.5 29t-7.5 36.5z" />
    <glyph glyph-name="FL2030h" unicode="&#x2030;" horiz-adv-x="1054" 
d="M153 391v53q0 7 4 8h25q2 0 3 -3t1 -5v-53q0 -6 -4 -6h-25q-4 0 -4 6zM564 111v53q0 6 4 8h25q2 0 3.5 -3t1.5 -5v-53q-2 -6 -5 -6h-25q-4 0 -4 6zM671 280h-183l204 281h-226l-152 -208v136q0 26 -15.5 48.5t-38.5 22.5h-181q-11 0 -21 -6.5t-17.5 -16.5t-12 -22.5
t-4.5 -25.5v-148q0 -12 5 -23t12.5 -19.5t16.5 -13.5t18 -5h185l-203 -280h227l150 207v-146q0 -12 5 -23t12.5 -19.5t16.5 -13.5t18 -5h187q18 0 35 18.5t17 42.5v148q0 26 -16 48.5t-39 22.5zM975 280h-181q-11 0 -21 -6.5t-17.5 -16.5t-12 -22.5t-4.5 -25.5v-148
q0 -12 5 -23t12.5 -19.5t16.5 -13.5t18 -5h187q18 0 35 18.5t17 42.5v148q0 26 -16 48.5t-39 22.5zM868 111v53q0 6 4 8h25q2 0 3.5 -3t1.5 -5v-53q-2 -6 -5 -6h-25q-4 0 -4 6z" />
    <glyph glyph-name="FL2039h" unicode="&#x2039;" horiz-adv-x="243" 
d="M176 279l54 67l-81 101l-135 -168l135 -169l81 101z" />
    <glyph glyph-name="FL203Ah" unicode="&#x203a;" horiz-adv-x="243" 
d="M67 279l-53 67l80 101l136 -168l-136 -169l-80 101z" />
    <glyph glyph-name="FL2122h" unicode="&#x2122;" horiz-adv-x="1250" 
d="M247 414v-110h106q8 0 14 5.5t10.5 14t6.5 18.5t2 18q0 7 -1.5 16t-5 17.5t-9 14.5t-12.5 6h-111zM24 0v561h460q34 0 57 -20.5t37 -50t20.5 -63.5t6.5 -61q0 -38 -6 -75.5t-20.5 -67t-37.5 -48t-56 -18.5h-238v-157h-223zM554 0v148h118q7 0 14.5 7.5t15 18t14 22
t10.5 19.5l104 237q4 9 16.5 27.5t29 36.5t35 31.5t35.5 13.5h280v-147h-116q-8 0 -16.5 -7t-16 -17.5t-13.5 -21.5t-9 -19l-105 -239q-9 -19 -22 -38.5t-29.5 -35.5t-35.5 -26t-39 -10h-270z" />
    <glyph glyph-name="FL017Dh" horiz-adv-x="894" 
d="M867 0v148h-147q-9 0 -18.5 7.5t-18.5 18t-17 22t-13 19.5l-131 237q-5 10 -20 28t-35.5 36t-44 31.5t-44.5 13.5h-351v-147h146q9 0 19.5 -7t20.5 -17.5t17.5 -21.5t10.5 -19l132 -239q10 -19 27 -38.5t38 -35.5t44.5 -26t47.5 -10h337zM399 792h-169l127 -166h177
l126 166h-169l-46 -64z" />
    </font>
</defs>
</svg>
