<?xml version="1.0" standalone="no"?>
<!DOCTYPE svg PUBLIC "-//W3C//DTD SVG 1.1//EN" "http://www.w3.org/Graphics/SVG/1.1/DTD/svg11.dtd" >
<svg xmlns="http://www.w3.org/2000/svg" xmlns:xlink="http://www.w3.org/1999/xlink" version="1.1">
<metadata>
Created by FontForge 20170731 at Fri Jan  1 02:30:17 1904
 By Aleksey,,,
Brignorth Bold (C) Copyright PJL '96
</metadata>
<defs>
<font id="Bridgnorth-Bold" horiz-adv-x="208" >
  <font-face 
    font-family="Bridgnorth"
    font-weight="700"
    font-stretch="normal"
    units-per-em="1000"
    panose-1="4 0 8 0 0 0 0 0 0 0"
    ascent="800"
    descent="-200"
    x-height="386"
    cap-height="805"
    bbox="-221 -208 1284 806"
    underline-thickness="50"
    underline-position="-200"
    unicode-range="U+0020-007A"
  />
<missing-glyph horiz-adv-x="502" 
d="M-1 0h500v500h-500v-500zM9 10v480h480v-480h-480z" />
    <glyph glyph-name=".notdef" horiz-adv-x="502" 
d="M-1 0h500v500h-500v-500zM9 10v480h480v-480h-480z" />
    <glyph glyph-name=".null" horiz-adv-x="0" 
 />
    <glyph glyph-name="nonmarkingreturn" horiz-adv-x="333" 
 />
    <glyph glyph-name="space" unicode=" " horiz-adv-x="340" 
 />
    <glyph glyph-name="space" unicode="&#xa0;" horiz-adv-x="340" 
 />
    <glyph glyph-name="exclam" unicode="!" 
d="M191 1q0 5 -9 14.5t-23 20.5q-10 6 -25.5 10.5t-35.5 4.5q-16 0 -25.5 -4t-20.5 -13q-35 -25 -35 -32t15 -19q10 -8 16 -14t20 -11t32 -5q19 0 31.5 5.5t20.5 11.5l1 1q14 7 26 16t12 14zM150 92q2 390 15 690q0 7 -7 14.5t-19 7.5q-9 0 -19 -6l-59 -39
q-13 -9 -17.5 -14.5t-4.5 -10.5q6 -142 8.5 -293t3.5 -359q32 19 39 22.5t12 3.5q4 0 14 -3.5t34 -12.5z" />
    <glyph glyph-name="quotedbl" unicode="&#x22;" horiz-adv-x="239" 
d="M222 722q0 21 -15 49q-5 9 -16.5 16t-28.5 7t-24 -7t-16 -25v0l-1 -1q-2 5 -5 10q-5 9 -16.5 16t-28.5 7t-24 -7t-16 -25v0q-14 -24 -14 -39q0 -12 8 -29q4 -10 7 -17q4 -10 13 -17t27 -7q16 0 24.5 7.5t14.5 16.5l1 2q1 1 4 5q3 3 3 4l1 -2q1 -5 3 -9q4 -10 13 -17
t27 -7q16 0 24.5 7.5t14.5 16.5l1 2q19 28 19 43z" />
    <glyph glyph-name="ampersand" unicode="&#x26;" horiz-adv-x="585" 
d="M440 -141q0 -9 -2 -22q-2 -9 -2 -15q0 -4 10 -9t21 -5q19 0 29 7.5t17 18.5q2 4 3 5l16 16q23 24 23 34q0 33 -35.5 74.5t-96.5 93.5q28 23 55 47.5t47 46t31.5 37.5t11.5 24q0 5 -6.5 11t-22.5 6q-17 0 -30 -5.5t-26 -13.5q-8 -5 -10 -6q-11 -4 -18.5 -13.5t-16.5 -26.5
q-7 -13 -11 -19q-22 -32 -45 -53l-17 14q-76 63 -112 101q39 28 60 52t21 50q0 16 -9 30t-29 29q-8 7 -28.5 14t-44.5 7q-26 0 -52.5 -12.5t-48 -32t-34 -41t-12.5 -38.5q0 -27 52 -85q-52 -32 -81.5 -63t-29.5 -70q0 -40 36 -70t106 -30q45 0 95 15.5t83 34.5l13 -10
q19 -15 30.5 -25t25.5 -24q16 -16 25 -34t9 -45zM169 296q0 11 2.5 16.5t3.5 7.5q6 6 9 7t8 1q12 0 23 -18.5t11 -43.5q0 -18 -13 -31q-7 6 -22 22l-5 6q-9 10 -13 17t-4 16zM215 7q-35 0 -61 20t-26 53q0 19 8.5 32t27.5 30q23 -21 83 -71q29 -23 49 -40q-46 -24 -81 -24z
" />
    <glyph glyph-name="quotesingle" unicode="'" horiz-adv-x="148" 
d="M131 722q0 21 -15 49q-5 9 -16.5 16t-28.5 7t-24 -7t-16 -25v0q-14 -24 -14 -39q0 -12 8 -29q4 -10 7 -17q4 -10 13 -17t27 -7q16 0 24.5 7.5t14.5 16.5l1 2q19 28 19 43z" />
    <glyph glyph-name="comma" unicode="," 
d="M191 -17q0 25 -27.5 46.5t-65.5 21.5q-16 0 -25.5 -4t-20.5 -13q-35 -25 -35 -32q0 -11 8.5 -17.5t23.5 -13.5q16 -8 23.5 -14t7.5 -15q0 -11 -6.5 -19.5t-19.5 -19.5q-16 -14 -16 -20q0 -2 10 -8t23 -6q16 0 29.5 8.5t26.5 20.5l4 4q28 27 44 48t16 33z" />
    <glyph glyph-name="hyphen" unicode="-" horiz-adv-x="405" 
d="M207 245q-17 0 -60 7q-36 6 -48 6q-15 0 -24.5 -6t-17.5 -14q0 -1 -1 -2l-9 -9q-14 -13 -22 -21.5t-8 -10.5q0 -6 11.5 -9.5t29.5 -5.5t34 -3t29 -1q38 0 89 10t92 24q33 12 59.5 30t26.5 21q0 2 -10.5 7.5t-25.5 5.5q-6 0 -39 -9q-37 -9 -62 -14.5t-44 -5.5z" />
    <glyph glyph-name="period" unicode="." 
d="M191 1q0 5 -9 14.5t-23 20.5q-10 6 -25.5 10.5t-35.5 4.5q-16 0 -25.5 -4t-20.5 -13q-35 -25 -35 -32t15 -19q10 -8 16 -14t20 -11t32 -5q19 0 31.5 5.5t20.5 11.5l1 1q14 7 26 16t12 14z" />
    <glyph glyph-name="zero" unicode="0" horiz-adv-x="551" 
d="M274 502q-53 0 -100.5 -26t-82.5 -71t-54.5 -100t-19.5 -112q0 -56 19.5 -104t54.5 -83t82 -54t101 -19q53 0 101 27t83.5 73t55.5 102.5t20 113.5q0 48 -15.5 93t-47.5 81.5t-81.5 57.5t-115.5 21zM274 456q18 0 42.5 -16t48 -49t39 -86t15.5 -123q0 -96 -37.5 -149.5
t-85.5 -53.5q-35 0 -66.5 24t-55 64.5t-37 91t-13.5 100.5q0 98 42.5 147.5t107.5 49.5z" />
    <glyph glyph-name="one" unicode="1" horiz-adv-x="304" 
d="M17 380q0 -10 13 -14t25 -4q16 0 28.5 7.5t25.5 19.5v-12v-342l-31 -25l-4 -3q-6 -5 -6 -7t12 -8l7 -3l97 -51q11 -6 31 -6t25 6l33 37q2 3 6 7q8 10 8 12q0 7 -28 23l-24 13v451q0 6 -8.5 13.5t-26.5 7.5q-19 0 -37 -12.5t-40 -34.5q-17 -17 -23 -21q-17 -13 -52 -32
q-31 -16 -31 -22z" />
    <glyph glyph-name="two" unicode="2" horiz-adv-x="510" 
d="M493 324q0 41 -21 75t-55.5 57t-75 35t-79.5 12q-47 0 -85.5 -13.5t-63.5 -33.5q-45 -34 -68.5 -74.5t-23.5 -80.5q0 -37 17.5 -54.5t44.5 -17.5q14 0 24.5 4.5t21.5 12.5t20 16t9 13q0 9 -11 25q-14 21 -14 37q0 18 5 43t15 37q17 21 34.5 29t38.5 8q25 0 52 -14.5
t49.5 -39.5t36.5 -56.5t14 -64.5q0 -39 -15.5 -71t-41.5 -56.5t-57.5 -44t-82.5 -48.5q-15 -9 -55 -26q-53 -24 -81 -42t-28 -39q0 -3 10.5 -8t26.5 -5q20 0 34 4t32 12q16 7 26.5 10.5t26.5 3.5q21 0 68 -16q31 -11 53 -16.5t47 -5.5q24 0 50 6t45 15q26 13 41.5 24.5
t15.5 20.5q0 3 -6.5 9t-21.5 6q-21 0 -48 -12q-8 -4 -11 -4q-15 0 -55 11q-26 7 -42 10q-5 1 -17 4q-21 4 -29.5 8t-8.5 12q0 6 38 28q29 17 51 31t43 32q5 4 12 11q51 45 73 80t22 101z" />
    <glyph glyph-name="three" unicode="3" horiz-adv-x="551" 
d="M534 165q0 42 -12.5 75t-34 56.5t-47.5 38.5t-54 23q-42 13 -68 13q-7 0 -10 -1q0 9 16 22.5t49 36.5q31 23 45.5 35t14.5 19q0 5 -6.5 11t-27.5 6q-23 0 -44 -7q-8 -2 -10 -2q-16 0 -53 6q-44 7 -68 7q-31 0 -61.5 -11.5t-51.5 -25.5q-57 -39 -57 -55q0 -2 14 -6.5
t23 -4.5q12 1 20 5t19 12q14 10 26.5 15.5t35.5 5.5q25 0 50.5 -6.5t25.5 -17.5q0 -3 -9.5 -10t-27.5 -19q-31 -20 -47 -32q-6 -5 -21 -16q-22 -16 -32 -26t-10 -20q0 -4 11.5 -10t25.5 -6q17 0 27 3.5t22 10.5q13 7 25.5 11t34.5 4q27 0 52.5 -9t47 -28.5t34.5 -51
t13 -73.5q0 -30 -14.5 -65.5t-33.5 -54.5q-22 -21 -39.5 -29.5t-35.5 -8.5q-30 0 -61 10t-61 32q-8 6 -22 24q-17 21 -30 32t-30 11q-13 0 -24 -5t-19 -11l-1 -1q-11 -11 -18.5 -20.5t-7.5 -14.5q0 -14 10.5 -27t34.5 -32q28 -22 77.5 -38t89.5 -16q56 0 103 16t84 42
q56 38 87 81t31 97z" />
    <glyph glyph-name="four" unicode="4" horiz-adv-x="548" 
d="M363 479q0 9 -10.5 17.5t-26.5 8.5q-19 0 -30 -5t-19 -11l-1 -1q-5 -4 -14 -10q-16 -11 -23.5 -20t-7.5 -26q0 -30 -8 -65.5t-21.5 -70.5t-32 -66.5t-37.5 -51.5q-23 -24 -73 -58q-22 -15 -32 -23.5t-10 -15.5q0 -21 115 -31q16 -1 36 -1.5t54 -0.5h70v-28l-31 -25l-4 -3
q-6 -5 -6 -7t12 -8l7 -3l97 -51q11 -6 31 -6t25 6l33 37q2 3 6 7q8 10 8 12q0 6 -28 23l-24 13v39q16 1 36 4t37.5 8t28.5 12t11 15q0 6 -6 12t-26 6q-25 0 -50 -7q-8 -2 -12 -2h-19v104q0 7 -7 14.5t-19 7.5q-9 0 -19 -6l-59 -39q-13 -9 -17.5 -14.5t-4.5 -10.5v-45
q-86 10 -133 11l6 6q44 48 74.5 83t59 78.5t46.5 91.5t18 96z" />
    <glyph glyph-name="five" unicode="5" horiz-adv-x="526" 
d="M355 420q22 0 48.5 4t50.5 11t39.5 19t15.5 27q0 4 -9.5 10.5t-26.5 6.5q-16 0 -25.5 -4t-14.5 -8l-1 -1q-15 0 -42 6q-26 5 -48.5 8t-57.5 3q-11 0 -21 -3.5t-18 -8.5l-3 -1q-13 -20 -29 -40t-47 -56q-31 -37 -46.5 -57t-19.5 -33q-2 -9 -3 -9q0 -1 11.5 -4t19.5 -3
q17 0 30.5 5t32.5 14q18 9 30 13.5t26 4.5q28 0 54.5 -8t48 -26t35 -48t13.5 -72q0 -15 -3.5 -36t-10.5 -43.5t-15.5 -40.5t-17.5 -27q-22 -21 -39.5 -29.5t-35.5 -8.5q-30 0 -59.5 9.5t-53.5 30.5q-6 5 -16 21q-12 18 -22 27.5t-27 9.5q-16 0 -31.5 -6.5t-19.5 -10.5
q-3 -3 -11 -9q-19 -14 -19 -23q0 -12 11.5 -25.5t28.5 -27.5q24 -20 70 -33t82 -13q56 0 105.5 19.5t89.5 47.5q50 34 77.5 93.5t27.5 120.5q0 45 -22 75t-62 56q-18 11 -38.5 18t-40 10.5t-32.5 4.5t-21 1q-38 0 -77 -12l5 7q14 21 22.5 33t13.5 16q7 8 16 10t24 2
q1 0 7 -3q10 -6 21.5 -10t29.5 -4z" />
    <glyph glyph-name="six" unicode="6" horiz-adv-x="510" 
d="M285 366q-33 0 -67.5 -8.5t-64.5 -23.5q14 55 49 82.5t80 27.5q9 0 27 -1q25 -2 44 -3q12 0 25.5 7t13.5 10q0 16 -21.5 32t-52.5 16q-45 0 -88 -18.5t-78 -43.5q-71 -53 -103 -120t-32 -151q0 -47 19.5 -88t54 -71t79 -46.5t93.5 -16.5q42 0 79 14t61 36q41 38 65 76
t24 79q0 102 -58.5 156.5t-147.5 54.5h-1zM241 319q33 0 53.5 -12t44.5 -43q16 -20 27.5 -53.5t11.5 -70.5q0 -75 -27 -108.5t-70 -33.5q-31 0 -56.5 18.5t-53.5 57.5q-19 27 -31 62.5t-12 72.5q0 30 8 46t27 30q22 18 39 26t39 8z" />
    <glyph glyph-name="seven" unicode="7" horiz-adv-x="506" 
d="M489 484q0 6 -7 10.5t-28 4.5q-17 0 -49 -6q-17 -3 -22 -3q-20 0 -59 5q-27 4 -49 6t-50 2q-39 0 -77 -19t-69 -44q-5 -4 -7 -6q-27 -20 -41 -33.5t-14 -23.5q0 -2 13 -6.5t22 -4.5q14 0 26 8.5t26 21.5l4 4q44 34 90 34q36 0 110 -7q44 -4 60 -5q-33 -52 -90 -138
q-108 -163 -154 -238q-12 -20 -37 -55q-20 -28 -20 -32q0 -10 14.5 -15t27.5 -5q18 0 33.5 18.5t33.5 49.5q8 13 12 19q50 76 141 217q81 125 128 196q7 12 24 33q8 11 8 12z" />
    <glyph glyph-name="eight" unicode="8" horiz-adv-x="493" 
d="M304 503q-27 0 -58 -5.5t-50 -16.5q-35 -19 -53.5 -43.5t-18.5 -46.5q0 -53 61 -89q-36 -13 -66.5 -34.5t-53.5 -48t-35.5 -55.5t-12.5 -57q0 -34 17 -65t47.5 -54t71 -36t85.5 -13t86 16.5t70 42.5q38 34 60 69t22 66q0 45 -43.5 97.5t-110.5 88.5q40 24 59.5 46
t19.5 55q0 9 -7.5 23t-18.5 27q-9 10 -32.5 21.5t-38.5 11.5zM231 274q0 -1 13 -10q28 -21 44 -36q30 -26 51.5 -59.5t21.5 -67.5q0 -109 -118 -109q-19 0 -36 12.5t-42 41.5q-15 17 -26 42t-11 50q0 26 12 51t30 44t35 30t26 11zM248 454q14 0 28 -19t14 -44
q0 -22 -6 -34.5t-9 -12.5h1q0 1 -5 5q-16 13 -26 25q-7 6 -13.5 18.5t-6.5 26.5q0 20 5 27.5t18 7.5z" />
    <glyph glyph-name="nine" unicode="9" horiz-adv-x="533" 
d="M246 73q66 0 115 20q-24 -43 -50.5 -68t-50.5 -25q-2 0 -11 1q-17 3 -28 3q-17 0 -29 -4.5t-25 -12.5l-2 -1q-15 -10 -25.5 -18.5t-10.5 -14.5q0 -3 21 -6t45 -3q45 0 91.5 19t79.5 43q147 111 147 272q0 38 -11.5 72t-34.5 68q-26 37 -77.5 59.5t-122.5 22.5
q-42 0 -85.5 -17t-67.5 -39q-40 -37 -67 -81t-27 -86q0 -52 19 -91t51.5 -64t73 -37t82.5 -12zM312 122q-38 0 -73.5 15.5t-56.5 42.5q-24 32 -37.5 60.5t-13.5 64.5q0 39 10.5 67.5t27.5 46t38 25.5t42 8q31 0 56.5 -18.5t53.5 -57.5q17 -25 27.5 -62t10.5 -75
q0 -18 -3 -39t-7 -41q-2 -12 -2 -13q-23 -15 -36 -19.5t-37 -4.5z" />
    <glyph glyph-name="colon" unicode=":" 
d="M191 1q0 5 -9 14.5t-23 20.5q-10 6 -25.5 10.5t-35.5 4.5q-16 0 -25.5 -4t-20.5 -13q-35 -25 -35 -32t15 -19q10 -8 16 -14t20 -11t32 -5q19 0 31.5 5.5t20.5 11.5l1 1q14 7 26 16t12 14zM191 302q0 5 -9 14.5t-23 20.5q-10 6 -25.5 10.5t-35.5 4.5q-16 0 -25.5 -4
t-20.5 -13q-35 -25 -35 -32t15 -19q10 -8 16 -14t20 -11t32 -5q19 0 31.5 5.5t20.5 11.5l1 1q14 8 26 16.5t12 13.5z" />
    <glyph glyph-name="semicolon" unicode=";" 
d="M191 -17q0 25 -27.5 46.5t-65.5 21.5q-16 0 -25.5 -4t-20.5 -13q-35 -25 -35 -32q0 -11 8.5 -17.5t23.5 -13.5q16 -8 23.5 -14t7.5 -15q0 -11 -6.5 -19.5t-19.5 -19.5q-16 -14 -16 -20q0 -2 10 -8t23 -6q16 0 29.5 8.5t26.5 20.5l4 4q28 27 44 48t16 33zM191 302
q0 5 -9 14.5t-23 20.5q-10 6 -25.5 10.5t-35.5 4.5q-16 0 -25.5 -4t-20.5 -13q-35 -25 -35 -32t15 -19q10 -8 16 -14t20 -11t32 -5q19 0 31.5 5.5t20.5 11.5l1 1q14 8 26 16.5t12 13.5z" />
    <glyph glyph-name="question" unicode="?" horiz-adv-x="571" 
d="M357 1q0 5 -9 14.5t-23 20.5q-10 6 -25.5 10.5t-35.5 4.5q-16 0 -25.5 -4t-20.5 -13q-35 -25 -35 -32t15 -19q10 -8 16 -14t20 -11t32 -5q19 0 31.5 5.5t20.5 11.5l1 1q14 7 26 16t12 14zM316 92v146q0 23 18.5 39t59.5 39q36 19 61 36t48 42.5t37 63.5t14 88
q0 56 -11.5 100t-42.5 78t-89.5 53t-148.5 19q-86 0 -137 -15t-73.5 -39t-27.5 -49.5t-5 -63.5q0 -25 15 -49.5t35 -34.5q19 -9 40.5 -15.5t34.5 -6.5q14 0 14 8q0 2 -3 7q-10 15 -16.5 38t-6.5 70q0 34 15.5 65t30.5 31q72 0 119 -14t72 -40.5t35 -62t10 -84.5
q0 -59 -16.5 -113t-45.5 -67q-9 -4 -28 -13q-52 -22 -79.5 -42.5t-27.5 -55.5v-168q32 19 39 22.5t12 3.5q4 0 14 -3.5t34 -12.5z" />
    <glyph glyph-name="A" unicode="A" horiz-adv-x="842" 
d="M-9 -186q51 0 100.5 34t91 89.5t70.5 119.5t42 125h353v-148l-39 -32v1h1q-1 0 -2 -1q-2 -2 -3 -2q1 0 5 -3q8 -5 14 -9l98 -51q3 -2 11 -4t16 -2q6 0 12.5 1.5t13.5 3.5l3 1l33 37q2 3 6 7q8 10 8 12q0 6 -28 23l-23 14v558l8 5q23 15 23 18q0 5 -28 24q-10 7 -35 22
q-42 25 -63 40q-73 49 -139.5 77t-150.5 28q-64 0 -118.5 -15t-100.5 -40q-66 -36 -104.5 -79.5t-38.5 -92.5q0 -13 3 -26t11 -30q4 -8 18.5 -18t32.5 -10q6 0 15.5 2t11.5 3l38 31q18 15 18 21q0 4 -10 15v0q-14 17 -18.5 25.5t-4.5 22.5q0 72 45 103t131 31q83 0 160 -30
q-142 -86 -214 -206.5t-83 -282.5q-3 -57 -16.5 -120.5t-36.5 -119.5t-56 -92t-74 -40q-12 -1 -31.5 -7t-19.5 -11q0 -7 12.5 -14.5t31.5 -7.5zM648 561v-310h-343q10 83 22 141t35 111t64.5 99.5t106.5 83.5q69 -43 115 -125z" />
    <glyph glyph-name="B" unicode="B" horiz-adv-x="753" 
d="M217 776l-26 16q-3 3 -15 6t-22 3q-12 0 -20.5 -4.5t-12.5 -9.5l-55 -44q-5 -4 -6 -4q0 -3 3 -6t14 -11l44 -27v-581q0 -8 3 -16q-15 -2 -39 -12t-36 -20q-17 -14 -24.5 -24t-7.5 -20l3 -2q10 -5 17 -8t15 -3q23 0 51 12q13 5 18 5q24 0 49 -7.5t65 -22.5
q49 -18 83 -27.5t71 -9.5q73 0 137 25.5t111 68.5t73 96t26 106q0 48 -17 90.5t-47.5 75t-74 51.5t-94.5 21q54 32 84.5 67.5t30.5 73.5q0 29 -12 55.5t-40 54.5q-24 23 -58.5 35.5t-72.5 12.5q-44 0 -96.5 -14t-91.5 -33q0 14 -30 31zM247 175v510q7 10 22 21.5t34.5 21.5
t40 16t38.5 6q45 0 76.5 -28.5t31.5 -89.5q0 -36 -22 -74t-53 -57q-19 -12 -64 -24q-34 -10 -50 -19t-16 -28q0 -4 10 -11.5t27 -7.5q15 0 45 18q27 16 39 16q46 0 83 -18t74 -62q28 -35 42.5 -65t14.5 -76q0 -37 -9.5 -74t-27.5 -68t-44 -49t-58 -18q-31 0 -62.5 10
t-80.5 30q-46 19 -79.5 30t-69.5 15l23 16q19 14 27 28t8 31z" />
    <glyph glyph-name="C" unicode="C" horiz-adv-x="911" 
d="M439 753q35 0 68 -8t71 -26q-14 -9 -32 -19t-54 -29q-55 -29 -75 -41q-5 -3 -16 -10q-19 -12 -29 -19.5t-10 -10.5q0 -12 5.5 -17.5t15.5 -9.5q12 -5 12 -11v-424q0 -64 -20 -76q-13 -10 -22 -14q-95 41 -149.5 131t-54.5 205q0 77 24.5 146.5t66.5 122t94 81.5t105 29z
M523 578q0 27 3.5 43.5t6.5 19.5q36 32 85 56q69 -43 127 -121q1 -1 5 -6q10 -13 21 -21t30 -9q9 0 20 3t18 5l33 17q14 7 18 10.5t4 6.5q0 4 -6 13t-15 20l-3 4q-19 25 -59.5 54.5t-95.5 56.5t-116 43.5t-119 16.5q-103 0 -188.5 -35t-147.5 -97t-94.5 -142.5t-32.5 -168.5
q0 -93 39.5 -168t115.5 -138q58 -47 130 -77.5t154 -30.5q121 0 224.5 47t166.5 129q4 5 11 14.5t13 18t10 14.5t4 7q0 2 -9 5.5t-21 3.5q-11 0 -22 -3l-42 -13q-15 -4 -23 -16.5t-18 -35.5q-9 -23 -17 -36t-22 -21h-1q-38 -23 -74.5 -34t-104.5 -11q-35 0 -65.5 4t-62.5 13
q31 21 55 39t36 30q20 23 24.5 40.5t4.5 59.5v390z" />
    <glyph glyph-name="D" unicode="D" horiz-adv-x="934" 
d="M542 0q-53 0 -91 10t-92 32q-30 12 -44 17q38 26 64 52q18 21 22.5 38t4.5 61v372q0 27 3.5 43.5t6.5 19.5q20 18 46 36.5t51 34.5q64 -18 115 -54.5t86 -86.5t53 -108.5t18 -119.5q0 -63 -15.5 -125t-46 -112t-76.5 -80t-105 -30zM300 634q-5 -3 -16 -10
q-19 -12 -29 -19.5t-10 -10.5q0 -14 6.5 -19.5t17.5 -7.5q10 -2 10 -6v-420q0 -26 -4 -40.5t-13 -23.5q-50 15 -99 15q-57 0 -104 -23q-20 -10 -31 -21t-11 -19q0 -9 6.5 -17.5t26.5 -9.5h6h4q14 0 23.5 3t17.5 9q9 5 14 5q16 0 30.5 -4t39.5 -13q24 -9 35 -12
q62 -21 116 -33.5t106 -12.5q98 0 185 34.5t152.5 94.5t101.5 136t36 156q0 89 -49 175.5t-139 150.5q-63 45 -154 71t-176 26q-58 0 -124.5 -18t-125.5 -50.5t-95.5 -76.5t-36.5 -94q0 -21 13 -45t36 -24q16 0 27 4.5t21 11.5q6 4 8 5q16 5 26 13.5t10 14.5q0 7 -7 23
q-10 23 -10 38q0 44 22 73t57.5 45t75.5 22t81 6t70 -4q-37 -25 -77 -52t-70 -46zM252 69l2 2q2 1 2 2h1q-1 0 -2 -2q-2 -1 -3 -2z" />
    <glyph glyph-name="E" unicode="E" horiz-adv-x="911" 
d="M439 753q35 0 68 -8t71 -26q-14 -9 -32 -19t-54 -29q-55 -29 -75 -41q-5 -3 -16 -10q-19 -12 -29 -19.5t-10 -10.5q0 -12 5.5 -17.5t15.5 -9.5q12 -5 12 -11v-424q0 -64 -20 -76q-13 -10 -22 -14q-95 41 -149.5 131t-54.5 205q0 77 24.5 146.5t66.5 122t94 81.5t105 29z
M523 578q0 27 3.5 43.5t6.5 19.5q36 32 85 56q69 -43 127 -121q1 -1 5 -6q10 -13 21 -21t30 -9q9 0 20 3t18 5l33 17q14 7 18 10.5t4 6.5q0 4 -6 13t-15 20l-3 4q-19 25 -59.5 54.5t-95.5 56.5t-116 43.5t-119 16.5q-103 0 -188.5 -35t-147.5 -97t-94.5 -142.5t-32.5 -168.5
q0 -93 39.5 -168t115.5 -138q58 -47 130 -77.5t154 -30.5q121 0 224.5 47t166.5 129q4 5 11 14.5t13 18t10 14.5t4 7q0 2 -9 5.5t-21 3.5q-11 0 -22 -3l-42 -13q-15 -4 -23 -16.5t-18 -35.5q-9 -23 -17 -36t-22 -21h-1q-38 -23 -74.5 -34t-104.5 -11q-35 0 -65.5 4t-62.5 13
q31 21 55 39t36 30q20 23 24.5 40.5t4.5 59.5v225h98q20 0 38.5 6t25.5 13l25 32q4 6 7.5 10.5l3.5 4.5q0 2 -13 7t-30 5h-155v87z" />
    <glyph glyph-name="F" unicode="F" horiz-adv-x="633" 
d="M446 663q0 17 20 33.5t60 27.5q19 5 30 13.5t20 19.5q3 4 4 5q11 13 30 28q6 4 6 5q0 3 -13 6.5t-25 3.5q-18 0 -64 -9q-42 -8 -56 -8q-9 0 -32 4q-27 4 -52 6.5t-62 2.5q-57 0 -100.5 -13.5t-73.5 -36.5q-42 -34 -64.5 -76t-22.5 -92q0 -11 7.5 -22t19 -19.5t23.5 -13.5
t20 -5q17 0 26.5 6t15.5 15q2 4 3 4l2 1q16 11 24 18t8 12q0 7 -5.5 11.5t-18.5 10.5q-18 9 -28.5 18.5t-10.5 28.5q0 36 27 56t98 20q26 0 74 -6q36 -4 60 -6q-25 -18 -50 -34q-5 -3 -16 -8q-20 -11 -30.5 -18.5t-10.5 -14.5q0 -14 7 -19.5t17 -7.5q5 -1 5 -2v-88h-23
q-23 0 -42.5 -8.5t-27.5 -18.5l-15 -24q-5 -8 -7 -12t-2 -5q0 -4 14 -9t32 -5h71v-12q-2 -2 -16 -11q-23 -17 -44.5 -33t-47.5 -37t-51.5 -45t-44.5 -47q-52 -63 -74.5 -128.5t-22.5 -120.5q0 -51 18.5 -86.5t45.5 -56t51 -29.5t36 -9q37 0 69.5 13t56.5 31.5t38.5 35
t27.5 32.5v1q46 61 66 132.5t20 170.5v199q15 1 30.5 7t21.5 12l29 29q13 13 16 17q0 7 -23.5 12t-60.5 5h-13v143zM224 -111q-11 0 -25.5 6.5t-29.5 24.5t-25.5 54t-10.5 90q0 46 26 109.5t74 114.5q19 21 41.5 42.5t43.5 35.5v-233q0 -112 -22.5 -178t-71.5 -66z" />
    <glyph glyph-name="G" unicode="G" horiz-adv-x="900" 
d="M439 754q35 0 68 -8t71 -26q-14 -9 -32 -19t-54 -29q-55 -29 -75 -41q-5 -3 -16 -10q-19 -12 -29 -19.5t-10 -10.5q0 -12 5.5 -17.5t15.5 -9.5q12 -5 12 -11v-424q0 -64 -20 -76q-13 -10 -22 -14q-95 41 -149.5 131t-54.5 205q0 77 24.5 146.5t66.5 122t94 81.5t105 29z
M523 579q0 27 3.5 43.5t6.5 19.5q35 32 84 56q9 -6 40 -30q17 -13 35 -27l7 -7q12 -12 24.5 -20.5t29.5 -9.5q8 0 25 4t19 6l21 16q12 9 15.5 12.5t3.5 4.5q-1 5 -12.5 15.5t-24.5 19.5q-31 25 -61 43.5t-67.5 33.5t-85 23.5t-106.5 8.5q-103 0 -188.5 -35t-147.5 -97
t-94.5 -142.5t-32.5 -168.5q0 -93 39.5 -168t115.5 -138q58 -47 130 -77.5t154 -30.5q63 0 137 29.5t140.5 81t108 118t41.5 137.5q0 22 -9.5 56.5t-32.5 70t-65 59.5t-103 24q-57 0 -91.5 -7.5t-58.5 -21.5v98zM611 457q36 0 64 -17t45.5 -44t26 -57t8.5 -57
q0 -33 -5.5 -74.5t-27 -89t-68.5 -81.5t-123 -34q-35 0 -65.5 4t-62.5 13q31 21 55 39t36 30q20 23 24.5 40.5t4.5 59.5v237l2 2q16 12 35 20.5t51 8.5z" />
    <glyph glyph-name="H" unicode="H" horiz-adv-x="803" 
d="M22 0v1h1q-1 0 -2 -1q-2 -2 -3 -2q1 0 5 -3q8 -5 14 -9l98 -51q3 -2 11 -4t16 -2q6 0 12.5 1.5t13.5 3.5l3 1l33 37q2 3 6 7q8 10 8 12q0 6 -28 23l-23 14v354q38 39 97.5 63t114.5 24q18 0 48.5 -8t65.5 -32.5t60.5 -76t25.5 -131.5q0 -47 -13 -85t-57 -83
q-18 -19 -43 -35t-60 -36q-31 -18 -31 -21q0 -5 10.5 -12.5t28.5 -7.5q23 0 62 15q22 9 29 9q13 0 43 -11q26 -9 45.5 -13.5t44.5 -4.5q23 0 42 8t40 23q19 14 32.5 26t13.5 19q0 2 -12.5 8.5t-25.5 6.5q-15 0 -27 -5t-24 -12q-6 -4 -7 -4q-8 0 -24 10q-17 11 -34 17.5
t-44 6.5q0 6 3 9q42 30 68 61.5t39 61.5t17 54.5t4 49.5q0 83 -36.5 136t-87 79t-94.5 34.5t-69 8.5q-24 0 -55.5 -7t-65 -19t-66 -27.5t-58.5 -32.5v61q0 31 0.5 53t2 47t4.5 44t9 26q21 29 50.5 41.5t68.5 12.5q64 0 132 -62q7 -7 16 -11.5t25 -4.5q8 0 18 3t11 4
q9 9 12.5 12t10.5 8l2 1q14 8 20.5 16t6.5 13q0 1 -1.5 2t-11.5 8q-47 29 -96.5 46.5t-100.5 17.5q-72 0 -141 -33q-26 -13 -48.5 -28.5t-39.5 -30.5q-24 -21 -38.5 -40t-22.5 -41.5t-11.5 -51t-3.5 -71.5v-458z" />
    <glyph glyph-name="I" unicode="I" horiz-adv-x="661" 
d="M552 711q6 3 9 5.5t8 7.5l1 2q12 14 24.5 23.5t28.5 19.5q21 13 21 18q0 8 -12.5 13t-27.5 5q-21 0 -51 -7q-23 -6 -35 -6q-13 0 -42 4q-37 5 -57 5q-58 0 -112.5 -17.5t-85.5 -44.5q-39 -34 -67 -72.5t-28 -66.5q0 -8 10.5 -17t28.5 -9q15 0 31.5 5.5t26.5 11.5
q7 4 16 10q20 11 20 17q-1 4 -2 10q-3 13 -5 22t-2 17q0 32 25.5 48.5t80.5 16.5q28 0 78 -6q34 -3 56 -5q-12 -9 -25 -20q-10 -9 -13 -11q-5 -3 -16 -8q-20 -11 -30.5 -18.5t-10.5 -14.5q0 -14 7 -19.5t17 -7.5q5 -1 5 -2v-429q0 -102 -28.5 -143.5t-86.5 -41.5
q-59 0 -91.5 22t-63.5 61q-17 20 -27.5 29.5t-24.5 9.5q-18 0 -29 -5t-20 -11l-1 -1q-14 -9 -24.5 -18t-10.5 -14t13.5 -25t39.5 -42.5t68.5 -39.5t97.5 -17q66 0 116.5 15.5t86.5 42.5q55 42 84 99t29 139v460z" />
    <glyph glyph-name="J" unicode="J" horiz-adv-x="527" 
d="M418 712q6 3 9 5.5t8 7.5l1 2q12 14 24.5 23.5t28.5 19.5q21 13 21 18q0 8 -12.5 13t-27.5 5q-21 0 -51 -7q-23 -6 -35 -6q-13 0 -42 4q-37 5 -57 5q-58 0 -109.5 -19t-83.5 -48q-74 -64 -74 -121q0 -18 6 -33t26 -15q16 0 27 5t21 13q2 1 3 2l13 8q28 18 28 24
q0 4 -5 14q-8 21 -8 31q0 34 21 52t72 18q28 0 78 -6q34 -3 56 -5q-12 -9 -25 -20q-10 -9 -13 -11q-5 -3 -16 -8q-20 -11 -30.5 -18.5t-10.5 -14.5q0 -14 7 -19.5t17 -7.5q5 -1 5 -2v-475q0 -51 -14 -93t-37.5 -71t-52 -44t-56.5 -15q-11 0 -30 2q-29 2 -50 2q-20 0 -30 -9
t-17 -21q-1 -3 -2 -4q-7 -10 -19 -21q-10 -10 -10 -14q0 -5 18.5 -13t35.5 -8q73 0 140 34t121 91q63 66 97 134t34 156v460z" />
    <glyph glyph-name="K" unicode="K" horiz-adv-x="744" 
d="M22 -3v1h1q-1 0 -2 -1q-2 -2 -3 -2q1 0 5 -3q8 -5 14 -9l98 -51q3 -2 11 -4t16 -2q6 0 12.5 1.5t13.5 3.5l3 1l33 37q2 3 6 7q8 10 8 12q0 6 -28 23l-23 14v136l148 94q36 -14 62.5 -47.5t42.5 -76.5q11 -31 28.5 -65.5t41 -66t51.5 -51t58 -19.5q18 0 26 5t13 13
q1 3 2 3q5 4 18 12q23 13 23 22q0 17 -8 22.5t-23 8.5q-16 3 -22 8q-14 12 -33.5 44.5t-31.5 63.5q-10 26 -21 49t-27.5 48.5t-40.5 50t-55 42.5l216 137q0 8 -7 21t-17 26.5t-22 28t-26 30.5q-34 37 -79 60t-99 23q-69 0 -118.5 -24.5t-99.5 -68.5q1 50 12.5 83.5
t47.5 57.5q27 18 67.5 26t84.5 8q40 0 94.5 -27.5t95.5 -79.5q5 -4 17 -10t26 -6q10 0 20.5 1t13.5 4q7 7 24 13q7 3 9 4q5 3 10 5q17 10 17 14q-1 1 -4 4.5t-18 21.5q-16 17 -45.5 36.5t-67.5 37t-81.5 28t-85.5 10.5q-71 0 -126.5 -20.5t-97.5 -50.5q-6 -5 -21 -15
q-28 -19 -47 -34.5t-35 -39t-26 -57.5t-10 -81v-458zM187 484l14 14q45 47 80 71.5t79 24.5q35 0 60 -14.5t53 -51.5q17 -21 27 -42.5t16 -57.5l-329 -211v267z" />
    <glyph glyph-name="L" unicode="L" horiz-adv-x="662" 
d="M242 548q0 46 4.5 80t17 60t37.5 40.5t65 14.5q28 0 59 -19t57.5 -50.5t42.5 -68.5t16 -69q0 -43 -18 -78t-51 -35q-19 0 -48 25q-1 1 -4 6q-8 10 -17 16.5t-25 6.5q-17 0 -26 -5t-18 -15l-1 -1q-10 -11 -18 -22t-8 -16q0 -3 13 -9.5t33.5 -13.5t41.5 -11.5t37 -4.5
q44 0 83 16t68.5 42.5t45.5 58.5t16 62q0 60 -22 105t-59 73.5t-82.5 42t-91.5 13.5q-72 0 -125 -24.5t-85.5 -63.5t-48 -84.5t-15.5 -87.5v-245q0 -95 -9.5 -161t-26.5 -92q-13 -20 -39 -50q-23 -27 -23 -35q0 -2 13.5 -8t23.5 -6q22 0 35.5 5.5t29.5 16.5q19 13 34.5 19
t41.5 6q35 0 109 -23q43 -13 76 -20.5t69 -7.5q29 0 60.5 15.5t58 39t43 47t16.5 36.5q0 4 -9 11.5t-24 7.5q-16 0 -27 -9.5t-23 -24.5q-6 -10 -9 -12q-19 -17 -34 -23.5t-31 -6.5q-31 0 -99 23q-40 13 -70 20.5t-61 7.5q-22 0 -52 -8q3 3 10 8q10 5 16.5 12t12.5 24t10 50
t4 83v316z" />
    <glyph glyph-name="M" unicode="M" horiz-adv-x="1054" 
d="M651 -54q25 5 42 10q6 2 10 2q16 0 59 -12q33 -8 55 -12.5t45 -4.5q20 0 46 9t49.5 23t39 29t15.5 25q0 3 -11 10t-26 7q-14 0 -27.5 -6t-29.5 -15q-9 -5 -10 -5q-6 0 -19 8q-14 8 -27 12.5t-34 4.5q-12 0 -32 -2q5 9 15 17.5t20 16.5h1q51 40 85.5 73t61.5 73.5
t42.5 91.5t15.5 115q0 174 -90.5 271.5t-247.5 97.5q-54 0 -108 -21t-99 -51q-11 40 -44 58t-92 18q-45 0 -84 -12t-68 -31q0 14 -30 31l-26 16q-3 3 -15 6t-22 3q-12 0 -20.5 -4.5t-12.5 -9.5l-55 -44q-5 -4 -6 -4q0 -3 3 -6t14 -11l44 -27v-664l-39 -32v1h1q-1 0 -2 -1
q-2 -2 -3 -2q1 0 5 -3q8 -5 14 -9l98 -51q3 -2 11 -4t16 -2q6 0 12.5 1.5t13.5 3.5l3 1l33 37q2 3 6 7q8 10 8 12q0 6 -28 23l-23 14v633l1 2q8 15 16 25.5t21 19.5t34 15t52 6q22 0 33.5 -17.5t11.5 -77.5v-602l-39 -32v1h1q-1 0 -2 -1q-2 -2 -3 -2q1 0 5 -3q8 -5 14 -9
l98 -51q3 -2 11 -4t16 -2q6 0 12.5 1.5t13.5 3.5l3 1l33 37q2 3 6 7q8 10 8 12q0 6 -28 23l-23 14v629q25 28 67 46t98 18q111 -1 176 -96.5t65 -269.5q0 -76 -49 -159q-20 -34 -47 -66.5t-58 -64.5q-14 -14 -33.5 -26.5t-52.5 -29.5q-32 -17 -47 -27.5t-15 -19.5
q0 -4 16 -10t32 -6z" />
    <glyph glyph-name="N" unicode="N" horiz-adv-x="889" 
d="M78 696v-664l-39 -32v1h1q-1 0 -2 -1q-2 -2 -3 -2q1 0 5 -3q8 -5 14 -9l98 -51q3 -2 11 -4t16 -2q6 0 12.5 1.5t13.5 3.5l3 1l33 37q2 3 6 7q8 10 8 12q0 6 -28 23l-23 14v634q36 31 97 52t132 21q56 0 111 -25t99.5 -73.5t70.5 -118.5t26 -155q0 -40 -12 -81.5t-32 -80
t-46 -73t-55 -64.5q-20 -21 -73 -54q-28 -18 -41.5 -28.5t-13.5 -20.5q0 -4 14 -10.5t31 -6.5q18 3 48 12q27 8 37 8q13 0 43 -11q26 -9 45.5 -13.5t44.5 -4.5q20 0 44.5 7t47 18.5t36.5 24t14 22.5q0 2 -9.5 8t-24.5 6q-20 0 -45 -10q-9 -3 -11 -3q-8 0 -29 10
q-20 10 -35 15t-34 5q-18 0 -35 -3q5 4 14 13q47 37 84 75t65 83t44 99.5t16 118.5q0 85 -34.5 154.5t-93.5 118t-133 74t-152 25.5q-30 0 -65 -6.5t-68 -17t-64 -23t-58 -26.5v22q0 6 -6.5 14t-23.5 18l-26 16q-3 3 -15 6t-22 3q-12 0 -20.5 -4.5t-12.5 -9.5l-55 -44
q-5 -4 -6 -4q0 -3 3 -6t14 -11z" />
    <glyph glyph-name="O" unicode="O" horiz-adv-x="967" 
d="M514 788q-74 0 -146 -22t-132 -58q-103 -62 -161 -152.5t-58 -206.5q0 -87 31.5 -162.5t90.5 -132t140 -88t177 -31.5q95 0 184.5 36t159.5 97.5t110 137t40 151.5q0 95 -31 175t-89 137t-138.5 88t-177.5 31zM447 731q78 0 146 -29t118.5 -81.5t78 -122.5t27.5 -149
q0 -170 -72 -257.5t-214 -87.5q-89 0 -160.5 27.5t-121 78t-75 118.5t-25.5 148q0 79 21 144.5t60 112.5t94.5 72.5t122.5 25.5z" />
    <glyph glyph-name="P" unicode="P" horiz-adv-x="893" 
d="M440 786q-79 0 -134 -20.5t-102 -56.5v33q0 6 -6.5 14t-23.5 18l-26 16q-3 3 -15 6t-22 3q-12 0 -20.5 -4.5t-12.5 -9.5l-55 -44q-5 -4 -6 -4q0 -2 2.5 -5t11.5 -12l47 -44v-857q0 -13 6 -20t23 -7q15 0 22 5l46 38q16 14 22.5 25.5t6.5 26.5v90q40 -20 85 -32t93 -12
q95 0 184.5 36t159.5 97.5t110 137t40 151.5q0 95 -31 175t-89 137t-138.5 88t-177.5 31zM371 710q89 0 158.5 -26t117.5 -74.5t72 -115.5t24 -147q0 -170 -72 -257.5t-214 -87.5q-59 0 -107.5 21.5t-104.5 64.5l-4 1q-14 5 -23 5q-4 0 -14 -2v551q39 32 79 49.5t88 17.5z
" />
    <glyph glyph-name="Q" unicode="Q" horiz-adv-x="967" 
d="M513 787q-59 0 -98.5 -4t-66 -12t-43 -17t-41.5 -25q-18 -12 -28 -18q-102 -61 -160.5 -155.5t-58.5 -211.5q0 -86 35 -159t99 -126.5t148.5 -82.5t180.5 -29q39 0 77.5 6.5t73.5 18.5q42 -65 85.5 -104t98.5 -39q14 0 31.5 4t33 11.5t25 16.5t9.5 19q0 3 -11.5 11
t-25.5 8t-21.5 -1.5t-7.5 -2.5q-24 0 -49 34.5t-57 98.5q95 63 151.5 152.5t56.5 171.5q0 96 -31 176t-89.5 138.5t-139 89.5t-177.5 31zM430 185q0 -6 10.5 -13t23.5 -7q10 0 24 3q4 1 5 1q15 0 37 -31.5t63 -101.5q3 -6 11 -19q-33 -10 -72 -10q-89 0 -159 26.5t-118.5 75
t-73 115t-24.5 146.5t18.5 146.5t56 115.5t94 75.5t130.5 26.5h2q77 0 143.5 -30t115 -84t74.5 -125t26 -151q0 -76 -27 -147.5t-76 -117.5q-8 14 -16.5 27t-21.5 31q-40 50 -71 73.5t-79 23.5q-37 0 -66.5 -17t-29.5 -32z" />
    <glyph glyph-name="R" unicode="R" horiz-adv-x="781" 
d="M405 787q-53 0 -106.5 -17t-94.5 -48v22q0 6 -6.5 14t-23.5 18l-26 16q-3 3 -15 6t-22 3q-12 0 -20.5 -4.5t-12.5 -9.5l-55 -44q-5 -4 -6 -4q0 -3 3 -6t14 -11l44 -27v-664l-39 -32v1h1q-1 0 -2 -1q-2 -2 -3 -2q1 0 5 -3q8 -5 14 -9l98 -51q3 -1 12 -3.5t16 -2.5
q9 0 24 5q3 1 4 1l33 37q2 3 6 7q8 10 8 12q0 6 -28 23l-23 13v144q72 -30 173 -30h3q34 -16 61.5 -40t47.5 -59q23 -39 66 -71t95 -32q15 0 32 5.5t31.5 14t24 18t9.5 17.5q0 5 -17 12t-32 7q-44 0 -93 80q-11 17 -31 38t-44 40q50 20 93 51t74.5 70t49 83.5t17.5 90.5
q0 65 -23.5 123.5t-70 103t-113.5 70t-152 25.5zM384 722q51 0 96 -20.5t79 -58t53 -87t19 -105.5q0 -55 -20 -102.5t-55.5 -83t-79 -54.5t-88.5 -19q-57 0 -106.5 9t-77.5 31v434q31 28 81 42t99 14z" />
    <glyph glyph-name="S" unicode="S" horiz-adv-x="728" 
d="M352 788q-48 0 -91.5 -12.5t-77 -35.5t-52 -53t-18.5 -65q0 -39 20 -71.5t54 -58.5t71.5 -46t99.5 -49q60 -28 98 -47.5t71 -45t52.5 -57t19.5 -69.5q-1 -45 -18.5 -85.5t-48.5 -62.5q-57 -42 -136 -42q-31 0 -66 13.5t-68 36t-60 50t-44 55.5l-1 1q-7 8 -18 15.5
t-27 7.5q-6 0 -15 -2q-3 -1 -4 -1q-11 -8 -31 -19q-12 -7 -16 -10q-17 -12 -23 -19t-6 -12q0 -2 6 -13q2 -4 5 -9q23 -33 61.5 -60t86 -45t98 -27.5t98.5 -9.5q51 0 103 15t94 43q62 45 101 105t40 113q0 58 -26.5 104t-69.5 80.5t-90 59t-117 56.5q-92 42 -135 70.5
t-43 66.5q0 46 27 71t67 25q49 0 97.5 -31.5t75.5 -85.5q3 -6 15 -12.5t26 -6.5q2 0 4 1h4q16 2 28 11t21 20l3 3q12 9 15.5 14t3.5 10q0 3 -2 6.5t-10 13.5q-44 49 -112 72.5t-140 23.5z" />
    <glyph glyph-name="T" unicode="T" horiz-adv-x="911" 
d="M666 675q43 0 90.5 11.5t77.5 29.5q23 15 41.5 31t18.5 21q0 3 -11 10t-28 7q-8 0 -53 -12q-35 -10 -60.5 -15.5t-42.5 -5.5q-50 0 -149 18q-54 10 -91.5 15t-78.5 5q-89 0 -158.5 -20.5t-114.5 -54t-67.5 -71t-22.5 -70.5q0 -20 4.5 -35t20.5 -15q7 0 16 4l59 29
q13 7 20.5 13.5t7.5 8.5v4q1 2 1 3q0 7 -4 13q-5 7 -5 14q2 49 39.5 76t86.5 27q46 0 95 -6q-57 -46 -102.5 -90t-81.5 -94.5t-56.5 -109t-20.5 -124.5q0 -63 26 -127.5t77 -118.5t126 -86.5t167 -32.5q65 0 131 15t123 48t92.5 88t35.5 131q0 20 -4 41q-1 3 -16 8t-28 5
q-10 0 -15 -3l-55 -30q-14 -8 -18 -13t-4 -11q0 -128 -52 -184t-157 -56q-57 0 -110.5 30t-94.5 79.5t-64.5 110t-23.5 118.5q0 119 47.5 216t150.5 180l11 -2q75 -12 123 -17.5t101 -5.5z" />
    <glyph glyph-name="U" unicode="U" horiz-adv-x="804" 
d="M204 70v675q0 6 -6.5 14t-23.5 18l-26 16q-3 3 -15 6t-22 3q-12 0 -20.5 -4.5t-12.5 -9.5l-55 -44q-5 -4 -6 -4q0 -3 3 -6t14 -11l44 -27v-621q-2 0 -8 -1q-20 -3 -33.5 -9t-13.5 -19q0 -6 22 -15.5t69 -26.5q18 -6 31 -11q3 -1 16 -5q63 -20 103 -30t75 -10q26 0 60 6
t66 19q36 14 104 49q23 12 41 21v-11l-39 -32v1h1q-1 0 -2 -1q-2 -2 -3 -2q1 0 5 -3q8 -5 14 -9l98 -51q3 -2 11 -4t16 -2q6 0 12.5 1.5t13.5 3.5l3 1l33 37q2 3 6 7q8 10 8 12q0 6 -28 23l-23 14v663l28 24v-1h-1q2 2 5 5.5t3 5.5q0 9 -29 27l-62 41q-3 3 -15 6t-22 3
q-12 0 -20.5 -4.5t-12.5 -9.5l-55 -44q-5 -4 -6 -4q0 -3 3 -6t14 -11l44 -27v-597q-18 -10 -51 -29q-51 -31 -83.5 -46t-63.5 -15q-43 0 -87 14t-103 39q-6 3 -18 8z" />
    <glyph glyph-name="V" unicode="V" horiz-adv-x="853" 
d="M835 421q0 97 -35.5 169t-95 116.5t-130.5 65t-145 20.5q-60 0 -118 -19t-107 -46v18q0 6 -6.5 14t-23.5 18l-26 16q-3 3 -15 6t-22 3q-12 0 -20.5 -4.5t-12.5 -9.5l-55 -44q-5 -4 -6 -4q0 -3 3 -6t14 -11l44 -27v-599q-19 -9 -34.5 -19.5t-15.5 -19.5q0 -13 17.5 -19
t53.5 -12q42 -7 58 -13q15 -6 52 -23q56 -25 93 -38.5t64 -13.5q15 0 44.5 11t69.5 31.5t82 46.5t85 55q87 59 137.5 147t50.5 191zM399 730q54 0 109 -26.5t100.5 -73.5t72 -109.5t26.5 -131.5q0 -59 -23 -127t-61 -116q-46 -60 -97 -97t-72 -37q-26 0 -52 9.5t-66 28.5
q-38 19 -68 30.5t-64 17.5v577q38 28 82 41.5t113 13.5z" />
    <glyph glyph-name="W" unicode="W" horiz-adv-x="1301" 
d="M870 729q53 0 104.5 -26.5t92.5 -74.5t65 -110.5t24 -132.5q0 -58 -21 -117t-59 -108q-24 -31 -54 -58t-59 -46t-51.5 -29t-31.5 -10q-24 0 -47 8.5t-59 27.5q-36 18 -64.5 30.5t-64.5 20.5q79 61 123.5 142.5t44.5 176.5q0 82 -22.5 144t-67.5 113q37 26 68 37.5
t79 11.5zM1284 422q0 98 -32 169t-87 115t-123.5 64.5t-141.5 20.5q-60 0 -119 -19.5t-108 -47.5q-47 33 -112 50.5t-132 17.5q-60 0 -118 -19t-107 -46v18q0 6 -6.5 14t-23.5 18l-26 16q-3 3 -15 6t-22 3q-12 0 -20.5 -4.5t-12.5 -9.5l-55 -44q-5 -4 -6 -4q0 -3 3 -6
t14 -11l44 -27v-599q-19 -9 -34.5 -19.5t-15.5 -19.5q0 -13 17.5 -19t53.5 -12q42 -7 58 -13q15 -6 52 -23q56 -25 93 -38.5t64 -13.5q24 0 66 23.5t109 70.5q10 -3 34 -7q37 -7 53 -13q15 -6 52 -23q56 -25 93 -38.5t64 -13.5t75.5 29t144.5 96q28 19 38 26
q88 60 138.5 145.5t50.5 187.5zM399 730q53 0 104.5 -26.5t92.5 -74.5t65 -110.5t24 -132.5q0 -58 -21 -117t-59 -108q-24 -31 -54 -58t-59 -46t-51.5 -29t-31.5 -10q-23 0 -41.5 7.5t-46.5 24.5q-29 18 -54.5 29.5t-62.5 18.5v577q38 28 82 41.5t113 13.5z" />
    <glyph glyph-name="X" unicode="X" horiz-adv-x="820" 
d="M731 750q40 0 50 5.5t10 18.5q0 12 -11.5 18.5t-45.5 6.5q-43 0 -88 -23t-88 -64t-83 -93t-83 -118l-156 214q3 3 13 11q18 13 18 17q0 3 -8 8t-20 10.5t-22.5 10t-21.5 8.5l-37 14q-9 3 -18 4t-19 1q-5 0 -14 -2.5t-17 -5.5l-5 -2l-37 -24q-20 -13 -23 -16t-3 -8
q0 -10 13 -18t41 -20q24 -11 38 -19t21 -17l194 -270q-15 -26 -56 -97q-63 -108 -103 -173t-83.5 -122t-86.5 -90.5t-84 -33.5q-6 0 -23 3q-28 6 -44 6q-27 0 -48.5 -23.5t-21.5 -40.5q0 -14 14.5 -18t31.5 -4q85 0 162 35t146.5 100.5t133 156.5t127.5 209l195 -273
q-3 -3 -13 -11q-18 -13 -18 -17q0 -3 8 -8t20 -10.5t22.5 -10t21.5 -8.5l37 -14q9 -3 18 -4t19 -1q6 0 14.5 2.5t16.5 5.5l5 2l37 24q20 13 23 16t3 8q0 10 -11.5 18t-35.5 19q-21 10 -34 18t-19 17l-250 339q92 170 164 251.5t114 81.5z" />
    <glyph glyph-name="Y" unicode="Y" horiz-adv-x="886" 
d="M823 741q27 0 36.5 9t9.5 21q0 14 -11.5 22.5t-46.5 8.5q-52 0 -90 -21t-65 -57.5t-46.5 -79.5t-45.5 -114q-20 -51 -28 -72q-33 -83 -90 -242l-6 -15l-228 502q5 4 16.5 15.5t11.5 15.5q0 12 -40 38l-40 25q-3 2 -17.5 3.5t-23.5 1.5q-8 0 -21 -3.5t-17 -6.5l-35 -28
q-17 -14 -21 -18.5t-4 -7.5q0 -10 8.5 -16.5t25.5 -14.5q15 -7 24.5 -13t13.5 -15l277 -612q-25 -37 -48 -67t-49 -57t-53 -43t-52 -16q-4 0 -21 5q-33 12 -53 12q-14 0 -29 -8t-28.5 -20.5t-21.5 -24.5t-8 -19q0 -8 9.5 -12.5t22.5 -6.5t25 -2.5t21 -0.5q116 0 209 66
t160.5 171t113 213t97.5 257q45 126 70.5 180.5t50.5 54.5q1 0 4 -1q16 -7 33 -7z" />
    <glyph glyph-name="Z" unicode="Z" horiz-adv-x="732" 
d="M306 495q9 0 21 2h2h1l12 2q24 4 34 4q44 0 75.5 -8t61.5 -38q-86 -13 -174 -54t-161.5 -102t-117 -135.5t-43.5 -150.5q0 -54 16.5 -93t44.5 -63.5t63.5 -35.5t73.5 -11q96 0 186.5 43.5t161.5 116.5t111.5 159.5t40.5 169.5q0 52 -12.5 97.5t-42.5 85.5q-32 44 -91 74
q-28 15 -57.5 23t-55.5 8h-4l202 164q26 22 26 27q0 4 -12 10t-35 6q-15 0 -35.5 -9.5t-38.5 -23.5h-5q-5 -1 -6 -1q-20 0 -68 16q-34 12 -59 18t-53 6q-37 0 -81.5 -12.5t-78.5 -28.5q-36 -18 -54.5 -30.5t-18.5 -22.5q0 -5 16.5 -12.5t28.5 -7.5q17 0 27 5.5t17 12.5
q1 2 2 2q33 17 62 17q19 0 33.5 -4t38.5 -13t45 -15.5t50 -13.5l-158 -128q-36 -30 -36 -41q0 -4 12.5 -9.5t32.5 -5.5zM145 22q0 47 18.5 99t53.5 102t83.5 91.5t104.5 66.5l10 4q49 22 81 32.5t69 10.5q-2 0 -2 -6q0 -9 7 -48q7 -35 10 -57t3 -41q0 -30 -8 -70
t-22.5 -82.5t-35.5 -82t-47 -68.5q-43 -49 -94 -70.5t-106 -21.5q-57 0 -91 36t-34 105z" />
    <glyph glyph-name="grave" unicode="`" horiz-adv-x="196" 
d="M153 723q-6 8 -22 22.5t-33 26.5q-13 9 -28 15.5t-29 6.5q-12 0 -16.5 -3.5t-4.5 -9.5v-4q1 -3 1 -5q5 -20 26 -50q8 -10 32 -29q10 -8 21 -17q12 -9 26 -16t27 -7q14 0 19 4t5 11v5q-1 3 -1 6q0 7 -4.5 16.5t-18.5 27.5z" />
    <glyph glyph-name="a" unicode="a" horiz-adv-x="587" 
d="M305 390q-50 0 -96 -17.5t-80 -45.5q-52 -42 -82 -90t-30 -95q0 -88 69.5 -141t180.5 -53q34 0 72.5 14t75.5 35v-9l38 -39l3 -1q15 -6 24 -6q7 0 14 1.5t15 4.5l2 1l51 42l4 5t4 7t-16 15q-5 4 -9 8l-4 3v346q0 7 -7 14.5t-19 7.5q-9 0 -19 -6l-53 -35q-23 14 -58 24
t-80 10zM274 325q56 0 114 -58q1 0 8 -1q10 -2 13 -2h6v-195q-19 -29 -42.5 -44.5t-58.5 -15.5q-32 0 -65 13.5t-59.5 38t-42 57t-15.5 69.5q0 73 36.5 105.5t105.5 32.5z" />
    <glyph glyph-name="b" unicode="b" horiz-adv-x="534" 
d="M314 387q-33 0 -66 -11t-61 -30v436q0 7 -7 14.5t-19 7.5q-9 0 -19 -6l-59 -39q-13 -9 -17.5 -14.5t-4.5 -10.5v-697l-31 -25q-10 -10 -10 -14q0 -8 24 -14q55 -15 117 -33q34 -11 49 -14.5t31 -3.5q38 0 79 16.5t76 42.5q56 42 88.5 92.5t32.5 109.5q0 90 -57 141.5
t-146 51.5zM273 319q28 0 45.5 -9t43.5 -34q18 -17 31 -42t13 -65q0 -32 -9 -62.5t-24 -55t-32.5 -39t-32.5 -14.5q-19 0 -66 20q-12 5 -13 5q-14 6 -23 11t-19 12v238q19 19 39 27t47 8z" />
    <glyph glyph-name="c" unicode="c" horiz-adv-x="498" 
d="M231 339q53 0 118 -67q6 -4 15.5 -8t21.5 -4q7 0 20 2t14 4q14 23 33 36q15 8 20 13t5 7q0 1 -11 9.5t-27 17.5q-27 16 -66.5 25.5t-83.5 9.5q-56 0 -106 -18t-87.5 -49.5t-58.5 -72t-21 -84.5q0 -45 14 -83.5t44 -67t77 -44.5t112 -16q58 0 109.5 21.5t98.5 57.5
q2 2 8 5q-3 3 -8 9l-9 10q-1 0 -4 1q-12 5 -21 5q-13 0 -21.5 -5t-8.5 -7q-25 -20 -45.5 -28t-51.5 -8q-33 0 -66 13.5t-60.5 38.5t-43.5 57.5t-16 69.5q0 70 34 110t72 40zM481 34l-1 -1q1 0 1 1z" />
    <glyph glyph-name="d" unicode="d" horiz-adv-x="587" 
d="M305 388q-51 0 -99 -20t-85 -51q-49 -42 -76.5 -87t-27.5 -90q0 -88 69.5 -141t180.5 -53q34 0 72.5 14t75.5 35v-9l38 -39l3 -1q15 -6 24 -6q7 0 14 1.5t15 4.5l2 1l51 42l4 5t4 7t-16 15q-5 4 -9 8l-4 3v750q0 7 -7 14.5t-19 7.5q-9 0 -19 -6l-59 -39q-13 -9 -17.5 -14
t-4.5 -10v-359q-46 17 -110 17zM274 323q56 0 114 -58q1 0 8 -1q10 -2 13 -2h6v-195q-19 -29 -42.5 -44.5t-58.5 -15.5q-32 0 -65 13.5t-59.5 38t-42 57t-15.5 69.5q0 73 36.5 105.5t105.5 32.5z" />
    <glyph glyph-name="e" unicode="e" horiz-adv-x="498" 
d="M263 335q23 0 38.5 -7.5t46.5 -34.5l-208 -154q-5 18 -5 39q0 36 13 65.5t33.5 50t42.5 31t39 10.5zM440 351q-27 16 -66.5 25.5t-83.5 9.5q-56 0 -104.5 -21.5t-83.5 -52.5q-42 -37 -63.5 -73.5t-21.5 -76.5q0 -45 14 -83.5t44 -67t77 -44.5t112 -16q58 0 109.5 21.5
t98.5 57.5q2 2 8 5q-3 3 -8 9l-9 10q-1 0 -4 1q-12 5 -21 5q-13 0 -21.5 -5t-8.5 -7q-25 -20 -45.5 -28t-51.5 -8q-89 0 -150 80l294 212l7 6q16 13 16 14t-11 9.5t-27 17.5zM481 36l-1 -1q1 0 1 1z" />
    <glyph glyph-name="f" unicode="f" horiz-adv-x="337" 
d="M77 640v-254h7q-11 -1 -21 -6t-13 -8l-25 -44q-4 -7 -4 -11q0 -10 32 -10h24v-464q0 -7 7.5 -14.5t18.5 -7.5q9 0 19 6l59 39q13 9 17.5 14.5t4.5 10.5l1 416h-3q9 1 18.5 4t10.5 4l30 53q2 4 2 6q0 12 -34 12h-24l-1 309q0 19 3.5 28t6.5 9q-1 0 -1 -1q0 -4 10 -9.5
t27 -5.5t26 7t17 18q2 3 3 4q5 7 15 18q10 10 10 15q0 11 -25 17.5t-45 6.5q-30 0 -59 -16.5t-50 -37.5q-64 -64 -64 -108z" />
    <glyph glyph-name="g" unicode="g" horiz-adv-x="599" 
d="M305 390q-55 0 -105 -21t-86 -54q-46 -42 -71.5 -86t-25.5 -87q0 -60 48 -112q20 -22 46 -40t53 -29q-56 -39 -56 -74q0 -34 48.5 -56.5t115.5 -22.5q17 0 42 2.5t52.5 8t54 15.5t46.5 23q56 37 85.5 70t29.5 66q0 9 -14 24q-18 19 -27 36v322q0 7 -7 14.5t-19 7.5
q-9 0 -19 -6l-53 -35q-23 14 -58 24t-80 10zM341 -21q26 9 56 25q17 8 21 8q3 0 18 -15l6 -6l2 -2q19 -19 19 -31q0 -14 -16 -40t-35 -38q-27 -16 -58.5 -22.5t-54.5 -6.5q-48 0 -67.5 12t-19.5 37q0 16 7 28.5t18 19.5h-3q17 1 34.5 6t44.5 15q20 7 28 10zM274 325
q56 0 114 -58q1 0 8 -1q10 -2 13 -2h6v-195q-15 -24 -58 -39.5t-86 -15.5q-63 0 -101 48t-38 125q0 73 36.5 105.5t105.5 32.5z" />
    <glyph glyph-name="h" unicode="h" horiz-adv-x="554" 
d="M187 31v265q51 35 111 35q31 0 46 -27t15 -70v-200l-31 -25l-4 -3q-6 -5 -6 -7t12 -8l7 -3l97 -51q11 -6 31 -6t25 6l33 37q2 3 6 7q8 10 8 12q0 6 -28 23l-24 13v199q0 33 -8.5 60.5t-28 49t-51.5 33.5t-77 12q-33 0 -67.5 -8t-65.5 -22v428q0 7 -7 14.5t-19 7.5
q-9 0 -19 -6l-59 -39q-13 -9 -17.5 -14.5t-4.5 -10.5v-697l-31 -25l-4 -3q-6 -5 -6 -7t12 -8l7 -3l97 -51q11 -6 31 -6t25 6l33 37q2 3 6 7q8 10 8 12q0 7 -28 23z" />
    <glyph glyph-name="i" unicode="i" horiz-adv-x="256" 
d="M187 30v302q0 6 -6.5 14t-23.5 18l-26 16q-3 2 -14.5 5.5t-24.5 3.5q-10 0 -23 -6l-2 -1l-33 -34l-12 -12q0 -1 3 -4t11 -12l25 -23v-262l-31 -25l-4 -3q-6 -5 -6 -7t12 -8l7 -3l97 -51q11 -6 31 -6t25 6l33 37q2 3 6 7q8 10 8 12q0 7 -28 23zM213 503q12 11 16 16t4 8
q0 2 -1 3.5t-7 9.5l-8 10q-5 5 -14.5 9t-19.5 4q-11 0 -21.5 -5t-16.5 -9l-96 -82q-13 -12 -18 -18.5t-5 -9.5l2 -3q1 -2 4 -6l15 -15l3 -1q14 -5 21 -5q13 0 25.5 4t17.5 8z" />
    <glyph glyph-name="j" unicode="j" horiz-adv-x="271" 
d="M211 332q0 6 -6.5 14t-23.5 18l-26 16q-3 2 -14.5 5.5t-24.5 3.5q-10 0 -23 -6l-2 -1l-33 -34l-12 -12q0 -1 3 -4t11 -12l25 -23v-257q0 -59 -3.5 -96t-17.5 -51l-16 -18q-30 -33 -31 -43q0 -3 10 -9t24 -7q23 0 41 12.5t36 33.5q40 47 61.5 92.5t21.5 92.5v285zM237 503
q12 11 16 16t4 8q0 2 -1 3.5t-7 9.5l-8 10q-5 5 -14.5 9t-19.5 4q-11 0 -21.5 -5t-16.5 -9l-96 -82q-13 -12 -18 -18.5t-5 -9.5l2 -3q1 -2 4 -6l15 -15l3 -1q14 -5 21 -5q13 0 25.5 4t17.5 8z" />
    <glyph glyph-name="k" unicode="k" horiz-adv-x="510" 
d="M389 -57q18 0 37 6t34 16t24 20t9 17q0 8 -9 13t-30 5q-17 0 -25.5 -3.5t-12.5 -7.5q-1 -1 -2 -1q-12 0 -24.5 15t-33.5 48v1q-4 6 -7 16q53 19 91.5 56.5t38.5 80.5q0 73 -50 117.5t-125 44.5q-29 0 -60 -8.5t-57 -23.5v426q0 7 -7 14.5t-19 7.5q-9 0 -19 -6l-59 -39
q-13 -9 -17.5 -14.5t-4.5 -10.5v-697l-31 -25l-4 -3q-6 -5 -6 -7t12 -8l7 -3l97 -51q11 -6 31 -6t25 6l33 37q2 3 6 7q8 10 8 12q0 7 -28 23l-24 13v46q24 -6 39 -6q8 -15 22 -35.5t29 -38.5q19 -23 47 -38.5t65 -15.5zM272 332q31 0 60 -30t29 -75q0 -50 -28.5 -84.5
t-72.5 -34.5q-32 0 -47.5 4.5t-25.5 14.5v163q12 23 30 32.5t55 9.5z" />
    <glyph glyph-name="l" unicode="l" horiz-adv-x="256" 
d="M187 32v750q0 7 -7 14.5t-19 7.5q-9 0 -19 -6l-59 -39q-13 -9 -17.5 -14.5t-4.5 -10.5v-697l-31 -25l-4 -3q-6 -5 -6 -7t12 -8l7 -3l97 -51q11 -6 31 -6t25 6l33 37q2 3 6 7q8 10 8 12q0 7 -28 23z" />
    <glyph glyph-name="m" unicode="m" horiz-adv-x="740" 
d="M187 33v262q19 12 39.5 21.5t35.5 9.5q27 0 34 -20.5t7 -68.5v-200l-31 -25l-4 -3q-6 -5 -6 -7t12 -8l7 -3l97 -51q11 -6 31 -6t25 6l33 37q2 3 6 7q8 10 8 12q0 7 -28 23l-24 13v199q0 19 -2 57v5q23 15 42 23.5t35 8.5q27 0 34 -20.5t7 -68.5v-200l-31 -25l-4 -3
q-6 -5 -6 -7t12 -8l7 -3l97 -51q11 -6 31 -6t25 6l33 37q2 3 6 7q8 10 8 12q0 7 -28 23l-24 13v199q0 42 -2.5 67t-14 45t-38 31.5t-72.5 11.5q-36 0 -67.5 -12t-63.5 -32q-12 21 -39.5 33t-71.5 12q-34 0 -63 -10t-58 -28q-6 10 -24 19l-26 16q-3 2 -14.5 5.5t-24.5 3.5
q-10 0 -23 -6l-2 -1l-33 -34l-12 -12q0 -1 3 -4t11 -12l25 -23v-262l-31 -25l-4 -3q-6 -5 -6 -7t12 -8l7 -3l97 -51q11 -6 31 -6t25 6l33 37q2 3 6 7q8 10 8 12q0 7 -28 23z" />
    <glyph glyph-name="n" unicode="n" horiz-adv-x="545" 
d="M476 29v199q0 33 -8.5 60.5t-28 49t-51.5 33.5t-77 12q-34 0 -69.5 -8t-65.5 -22q-6 5 -19 13l-26 16q-3 2 -14.5 5.5t-24.5 3.5q-10 0 -23 -6l-2 -1l-33 -34l-12 -12q0 -1 3 -4t11 -12l25 -23v-262l-31 -25l-4 -3q-6 -5 -6 -7t12 -8l7 -3l97 -51q11 -6 31 -6t25 6l33 37
q2 3 6 7q8 10 8 12q0 7 -28 23l-24 13v270q44 29 102 29q31 0 46 -27t15 -70v-200l-31 -25l-4 -3q-6 -5 -6 -7t12 -8l7 -3l97 -51q11 -6 31 -6t25 6l33 37q2 3 6 7q8 10 8 12q0 6 -28 23z" />
    <glyph glyph-name="o" unicode="o" horiz-adv-x="581" 
d="M290 386q-56 0 -106 -18t-87.5 -49.5t-58.5 -72t-21 -84.5q0 -45 18 -85.5t53 -72t86 -49.5t115 -18q56 0 106.5 18t88.5 50t59 72.5t21 84.5q0 45 -18 85.5t-53.5 71.5t-86.5 49t-116 18zM267 335q31 0 63.5 -17.5t59.5 -47.5t43 -67t16 -74q0 -64 -33 -104t-93 -40
q-32 0 -65 15t-60.5 41.5t-44 61t-16.5 71.5q0 77 33.5 119t96.5 42z" />
    <glyph glyph-name="p" unicode="p" horiz-adv-x="537" 
d="M305 389q-51 0 -122 -29q-8 -4 -13 -6q-1 1 -8 6q-2 1 -9 6l-26 16q-3 2 -14.5 5.5t-24.5 3.5q-10 0 -23 -6l-2 -1l-33 -34l-12 -12q0 -1 3 -4t11 -12l25 -23v-448q0 -20 8.5 -32t29.5 -12q9 0 19.5 2.5t16.5 5.5l25 16q16 9 21.5 16t5.5 16v81q25 -4 62 -4
q56 0 106.5 18t88.5 50t59 72.5t21 84.5t-16 84.5t-45.5 72t-69 49.5t-84.5 18zM270 328q23 -1 47 -13.5t44 -35t32 -53.5t12 -68q0 -74 -36 -116q-23 -27 -40.5 -40.5t-37.5 -13.5q-24 0 -43.5 7t-41.5 22q-12 9 -23 31v253q49 27 87 27z" />
    <glyph glyph-name="q" unicode="q" horiz-adv-x="558" 
d="M305 384q-50 0 -96 -17.5t-80 -45.5q-52 -42 -82 -90t-30 -95q0 -88 69.5 -141t180.5 -53q34 0 72.5 14t75.5 35v-141q0 -23 6 -33.5t27 -10.5q9 0 18 3.5t13 5.5l31 21q18 12 24.5 24t6.5 29v480q0 7 -7 14.5t-19 7.5q-9 0 -19 -6l-53 -35q-23 14 -58 24t-80 10z
M274 319q56 0 114 -58q1 0 8 -1q10 -2 13 -2h6v-195q-19 -29 -42.5 -44.5t-58.5 -15.5q-32 0 -65 13.5t-59.5 38t-42 57t-15.5 69.5q0 73 36.5 105.5t105.5 32.5z" />
    <glyph glyph-name="r" unicode="r" horiz-adv-x="362" 
d="M187 31v267q13 10 20 10q4 0 11 -10q9 -12 19.5 -19.5t28.5 -7.5q15 0 26 5.5t18 12.5l2 2q4 3 13 8q10 6 15 10.5t5 11.5q0 6 -5.5 13.5t-20.5 21.5q-9 8 -26.5 16.5t-34.5 8.5q-25 0 -44 -7.5t-38 -21.5q-3 3 -15 11q-3 1 -4 2l-26 16q-3 2 -14.5 5.5t-24.5 3.5
q-10 0 -23 -6l-2 -1l-33 -34l-12 -12q0 -1 3 -4t11 -12l25 -23v-262l-31 -25l-4 -3q-6 -5 -6 -7t12 -8l7 -3l97 -51q11 -6 31 -6t25 6l33 37q2 3 6 7q8 10 8 12q0 7 -28 23z" />
    <glyph glyph-name="s" unicode="s" horiz-adv-x="443" 
d="M426 72q0 38 -15.5 66t-41.5 48t-53.5 32.5t-68.5 28.5q-48 19 -70.5 32t-22.5 33q0 21 10 28t27 7q14 0 25 -8.5t26 -26.5q16 -18 28 -27t27 -9q22 0 43 11q2 1 3 1q4 2 5 2q18 8 31 15.5t13 14.5q0 12 -17.5 24t-45 21.5t-56.5 15t-51 5.5q-83 0 -131 -25.5t-48 -67.5
q0 -43 31 -68t89 -50l30 -12q67 -27 100.5 -49.5t33.5 -58.5q0 -24 -16.5 -43t-30.5 -19q-39 0 -66 12t-56 33q-30 22 -44 22q-20 0 -40 -8q-1 0 -3 -1h-1q-22 -9 -37.5 -17.5t-15.5 -16.5q0 -13 19 -26.5t48.5 -25t61 -18.5t56.5 -7q35 0 74 8.5t73.5 25.5t55.5 42t21 56z
" />
    <glyph glyph-name="t" unicode="t" horiz-adv-x="284" 
d="M187 31v279h-1q23 1 38 10t22 18q3 4 10 14q11 15 11 20q0 3 -14.5 9t-28.5 6h-37v107q0 6 -8.5 14t-23.5 8q-17 0 -27 -14t-22 -45q-2 -3 -4 -9q-10 -26 -17.5 -39.5t-18.5 -24.5q-13 -14 -27.5 -31.5t-21.5 -26.5q0 -5 11.5 -11t23.5 -6h9v-273l-31 -25l-4 -3
q-6 -5 -6 -7t12 -8l7 -3l97 -51q11 -6 31 -6t25 6l33 37q2 3 6 7q8 10 8 12q0 7 -28 23z" />
    <glyph glyph-name="u" unicode="u" horiz-adv-x="534" 
d="M24 9q0 -7 13 -12t39 -11t37 -10q9 -3 22 -9q26 -10 45 -15.5t41 -5.5q23 0 52 11.5t69 32.5l2 1q13 -19 29 -28l41 -23q11 -6 31 -6t25 6l33 37q2 3 6 7q8 10 8 12q0 7 -28 23l-24 13v268l13 16q5 7 7 10t2 5q0 3 -10 9.5t-31 18.5q-5 3 -11 7l-26 16q-3 2 -14.5 5.5
t-24.5 3.5q-10 0 -23 -6l-2 -1l-33 -34l-12 -12q0 -1 3 -4t11 -12l25 -23v-266q-34 -21 -72 -21q-17 0 -32.5 5.5t-37.5 16.5l-14 7v293q0 6 -6.5 14t-23.5 18l-26 16q-3 3 -15 6t-22 3q-12 0 -25 -6l-2 -1l-33 -34l-12 -12q0 -1 3 -4t11 -12l25 -23v-262q-11 -6 -22 -15
t-11 -13z" />
    <glyph glyph-name="v" unicode="v" horiz-adv-x="529" 
d="M301 386q-35 0 -61 -8.5t-56 -23.5q-5 -3 -9 -5q-6 7 -22 16l-26 16q-3 3 -15 6t-22 3q-12 0 -25 -6l-2 -1l-33 -34l-12 -12q0 -1 3 -4t11 -12l25 -23v-262q-11 -6 -22 -15t-11 -13q0 -7 13 -12t39 -11t37 -10q7 -2 25 -9q32 -13 55 -19.5t44 -6.5q29 0 57.5 14.5
t72.5 45.5l2 1q71 48 107 98.5t36 110.5q0 39 -18.5 71.5t-50 56t-69 36t-73.5 12.5zM260 325q22 0 45.5 -11.5t43 -31.5t31.5 -48t12 -60q0 -42 -14.5 -74.5t-34.5 -52.5q-23 -23 -39 -34.5t-22 -11.5q-15 0 -33.5 7.5t-42.5 20.5q-16 8 -23 11v258q7 3 24 11q34 16 53 16z
" />
    <glyph glyph-name="w" unicode="w" horiz-adv-x="694" 
d="M270 385q-29 0 -56 -8.5t-61 -24.5l-1 1q-11 9 -19 13l-26 16q-3 2 -14.5 5.5t-24.5 3.5q-10 0 -23 -6l-2 -1l-33 -34l-12 -12q0 -1 3 -4t11 -12l25 -23v-262l-31 -25l-4 -3q-6 -5 -6 -7t12 -8l7 -3l97 -51q11 -6 31 -6t25 6l33 37q4 5 9 11q3 2 4 4q11 -6 31.5 -11
t48.5 -11h1q16 -3 48 -12q60 -16 87 -16q24 0 45 12t50 35q19 15 26 20q69 48 97.5 92t28.5 106q0 39 -16.5 71.5t-44.5 55t-63 35t-72 12.5q-35 0 -61 -8.5t-56 -23.5q-5 -3 -9 -5q-6 7 -22 16l-27 16q-5 3 -15 6t-21 3zM187 19l-24 13v270l4 3q20 13 35 20t29 7v0
q-1 -1 -1 -2q0 -2 2 -8q5 -18 5 -31v-260q-9 -6 -18 -12.5t-13 -11.5l-12 8zM440 320q47 0 84.5 -41t37.5 -104q0 -84 -36 -122q-18 -18 -36 -37q-4 -5 -5 -5q-12 0 -54 12q-46 13 -68 16v254q7 3 24 11q34 16 53 16z" />
    <glyph glyph-name="x" unicode="x" horiz-adv-x="418" 
d="M243 27v90h14q17 0 30.5 6.5t16.5 12.5l16 33q4 6 5.5 8.5t1.5 3.5q0 5 -16.5 11t-37.5 6h-30v96q13 10 20 10q4 0 11 -10q9 -12 19.5 -19.5t28.5 -7.5q15 0 26 5.5t18 12.5l2 2q4 3 13 8q10 6 15 10.5t5 11.5q0 6 -5.5 13.5t-20.5 21.5q-9 8 -26.5 16.5t-34.5 8.5
q-25 0 -44 -7.5t-38 -21.5q-3 3 -15 11q-3 1 -4 2l-26 16q-3 2 -14.5 5.5t-24.5 3.5q-10 0 -23 -6l-2 -1l-33 -34l-12 -12q0 -1 3 -4t11 -12l25 -23v-96h-8q-18 0 -34 -6.5t-21 -12.5l-15 -24q-7 -10 -9.5 -14.5t-2.5 -6.5q1 -5 16 -11t36 -6h38v-56q0 -12 -2.5 -31.5
t-7 -42.5t-11 -44t-13.5 -33q-10 -18 -20.5 -30t-26.5 -26q-19 -19 -19 -26q0 -3 12.5 -9.5t24.5 -6.5q16 0 36.5 12.5t41 32.5t40 43.5t34.5 45.5q14 -5 30 -5t21 6l24 25q2 3 6 7q8 10 8 12q0 6 -28 23z" />
    <glyph glyph-name="y" unicode="y" horiz-adv-x="504" 
d="M118 -114q0 -14 12.5 -29t34.5 -27.5t50 -20t58 -7.5q35 0 72.5 15.5t69.5 41t51 55t19 56.5q0 11 -8 35q-12 32 -12 54v241l13 16q5 7 7 10t2 5q0 3 -10 9.5t-31 18.5q-5 3 -11 7l-26 16q-3 2 -14.5 5.5t-24.5 3.5q-10 0 -23 -6l-2 -1l-33 -34l-12 -12q0 -1 3 -4t11 -12
l25 -23v-266q-34 -21 -72 -21q-17 0 -32.5 5.5t-37.5 16.5l-14 7v293q0 6 -6.5 14t-23.5 18l-26 16q-3 3 -15 6t-22 3q-12 0 -25 -6l-2 -1l-33 -34l-12 -12q0 -1 3 -4t11 -12l25 -23v-262q-11 -6 -22 -15t-11 -13q0 -7 13 -12t39 -11t37 -10q8 -3 14 -5q26 -11 38 -15l-3 -3
q-21 -20 -32.5 -35t-11.5 -32zM359 -5q0 -1 2 -4q6 -12 11.5 -27t5.5 -29q0 -40 -18.5 -56t-44.5 -16q-34 0 -51.5 9t-17.5 38q0 16 10.5 27t37.5 28q21 13 40.5 21.5t24.5 8.5z" />
    <glyph glyph-name="z" unicode="z" horiz-adv-x="422" 
d="M336 388h-147q-21 0 -43 -10.5t-38 -23.5q-43 -38 -44 -51q0 -7 8.5 -12.5t19.5 -5.5q1 0 4 1h3q15 2 35 14q15 9 28 13.5t33 4.5q19 0 29 -5q-5 -7 -18.5 -17t-40.5 -28q-32 -21 -48 -33t-16 -20q0 -4 14 -11t29 -7q10 0 36 2q18 2 24 2t9.5 -2t15.5 -15q-3 -2 -11 -7
q-30 -20 -60 -43t-62.5 -58t-55.5 -80.5t-23 -97.5q0 -31 28.5 -59t65.5 -28q59 0 116 33.5t99 84.5q38 49 58.5 91.5t20.5 86.5q0 48 -18.5 78t-59.5 64q-12 9 -26.5 13t-27.5 7h-2q0 12 12.5 23t41.5 30q4 3 16 10q20 14 29.5 22t9.5 16t-10.5 13t-33.5 5zM268 163
q1 0 3 -10t4.5 -26t4 -31.5t1.5 -28.5q0 -34 -6 -71t-19 -53q-28 -38 -49.5 -56.5t-42.5 -18.5q-11 0 -21 20t-10 43q0 30 9.5 66t25.5 61q27 43 60 74t40 31z" />
    </font>
</defs>
</svg>
