<?xml version="1.0" standalone="no"?>
<!DOCTYPE svg PUBLIC "-//W3C//DTD SVG 1.1//EN" "http://www.w3.org/Graphics/SVG/1.1/DTD/svg11.dtd" >
<svg xmlns="http://www.w3.org/2000/svg" xmlns:xlink="http://www.w3.org/1999/xlink" version="1.1">
<metadata>
Created by FontForge 20170731 at Wed Jul 29 11:59:39 2015
 By Aleksey,,,
Copyright (c) 2015 by Fernando Haro. All rights reserved.
</metadata>
<defs>
<font id="Gaban" horiz-adv-x="592" >
  <font-face 
    font-family="Gaban"
    font-weight="400"
    font-stretch="normal"
    units-per-em="1000"
    panose-1="0 0 0 0 0 0 0 0 0 0"
    ascent="841"
    descent="-159"
    x-height="687"
    cap-height="793"
    bbox="-109 -235 958 1086"
    underline-thickness="48"
    underline-position="-167"
    unicode-range="U+000D-F6C3"
  />
<missing-glyph horiz-adv-x="508" 
d="M139 477h205v-139h139v-205h-344v344zM268 381v50h-50v-50h50zM139 133v-139l-138 139h138z" />
    <glyph glyph-name=".notdef" horiz-adv-x="508" 
d="M139 477h205v-139h139v-205h-344v344zM268 381v50h-50v-50h50zM139 133v-139l-138 139h138z" />
    <glyph glyph-name=".null" horiz-adv-x="0" 
 />
    <glyph glyph-name="nonmarkingreturn" unicode="&#xd;" horiz-adv-x="0" 
 />
    <glyph glyph-name="NULL" horiz-adv-x="0" 
 />
    <glyph glyph-name="NULL" horiz-adv-x="0" 
 />
    <glyph glyph-name="space" unicode=" " horiz-adv-x="248" 
 />
    <glyph glyph-name="exclam" unicode="!" horiz-adv-x="295" 
d="M-107 592v43q0 32 12 60.5t33.5 50.5t50 34.5t61.5 12.5h88q33 0 61.5 -12.5t50 -34.5t33.5 -50.5t12 -60.5v-44l-38 -248q-3 -16 -11 -32q14 -18 21.5 -39.5t7.5 -45.5v-88q0 -29 -11 -54t-29.5 -44t-43.5 -29.5t-53 -10.5h-89q-29 0 -54 10.5t-43.5 29.5t-29.5 44
t-11 54v88q0 24 7.5 46t21.5 39q-3 8 -5.5 17t-4.5 19zM36 362q2 -12 10.5 -20t20.5 -8h54q11 0 20 8t11 19l36 238v36q0 21 -14.5 36t-35.5 15h-88q-21 0 -35.5 -15t-14.5 -36v-35zM18 138q0 -13 9 -22t22 -9h89q13 0 22 9t9 22v88q0 13 -9 22.5t-22 9.5h-89
q-13 0 -22 -9.5t-9 -22.5v-88z" />
    <glyph glyph-name="quotedbl" unicode="&#x22;" horiz-adv-x="342" 
d="M144 477q-25 0 -49 9q-23 -9 -46 -9h-31q-24 0 -46.5 9t-40 25t-28 38.5t-10.5 50.5v134q0 25 8 38.5t18 19.5q11 7 26 8h271q26 0 49 -10t40 -27t27 -40t10 -48q0 -6 -6.5 -27.5t-15.5 -45t-18.5 -43t-15.5 -22.5q-7 -12 -19.5 -23t-27.5 -19t-32 -13t-32 -5h-31z
M175 583q5 0 11 1.5t8 6.5q11 20 20 37q8 14 14.5 28t6.5 19q0 7 -5.5 12.5t-13.5 5.5h-90v-93q0 -7 5 -12t13 -5h31zM49 583q5 0 11 1.5t8 6.5q11 20 21 37q8 14 14.5 28t6.5 19q0 7 -6 12.5t-14 5.5h-90v-93q0 -7 5 -12t13 -5h31z" />
    <glyph glyph-name="numbersign" unicode="#" horiz-adv-x="574" 
d="M548 374q2 -6 2.5 -12.5t0.5 -13.5v-116q0 -43 -27 -77.5t-70 -44.5l-1 -3q-4 -22 -15 -41.5t-27.5 -34t-37 -23t-44.5 -8.5h-86q-25 0 -50 10q-25 -10 -49 -10h-87q-23 0 -45.5 8.5t-40.5 25t-29.5 40t-11.5 52.5q0 6 3 15q-19 17 -29.5 41t-10.5 50v116q0 42 25 75
q-3 12 -3 27v115q0 48 29 80t69 42q4 25 15.5 44.5t28.5 33.5t37.5 21.5t43.5 7.5h86q13 0 25.5 -2.5t24.5 -7.5q25 10 49 10h85q25 0 48 -9.5t40.5 -26t27.5 -39.5t10 -50q0 -7 -1 -12q41 -36 41 -92v-115q0 -45 -26 -76zM425 367h-42l10 64h55q8 0 14 5.5t6 13.5v115
q0 8 -6 13.5t-14 5.5h-32l12 85q0 8 -5.5 13t-14.5 5h-85q-17 0 -20 -16l-13 -87h-59l12 85q0 8 -5.5 13t-13.5 5h-86q-17 0 -20 -16l-13 -87h-64q-8 0 -14 -5.5t-6 -13.5v-115q0 -8 6 -13.5t14 -5.5h41l-10 -64h-53q-19 0 -19 -19v-116q0 -8 5.5 -13.5t13.5 -5.5h31
l-12 -84q0 -1 -0.5 -1.5t-0.5 -1.5q0 -8 6 -13.5t14 -5.5h87q15 0 19 16l13 90h60l-13 -84q0 -11 6 -16.5t14 -5.5h86q15 0 19 16l13 90h64q9 0 14.5 5.5t5.5 13.5v116q0 19 -20 19zM206 436h66l-11 -73h-66z" />
    <glyph glyph-name="dollar" unicode="$" horiz-adv-x="586" 
d="M405 768q82 -30 116.5 -72t34.5 -95q0 -23 -7 -46.5t-23 -45.5l-18 -25q35 -31 56.5 -78t21.5 -116q0 -57 -14 -100.5t-38.5 -76t-57.5 -54.5t-71 -36q-16 -46 -56 -76.5t-91 -30.5h-28q-51 0 -91 29.5t-57 76.5q-39 13 -73.5 30.5t-60 40.5t-40.5 51.5t-15 63.5
q0 29 11 55t25 45l27 30q-54 68 -54 168q0 53 13.5 95.5t37.5 75.5t57.5 56.5t73.5 38.5q17 45 56.5 73.5t89.5 28.5h28q52 0 91.5 -30.5t55.5 -75.5zM480 290q0 46 -14.5 76t-42 50t-67 32t-88.5 23q-55 12 -73 22.5t-18 26.5q0 29 49 29q51 0 107 -27q20 -10 38 -10
q12 0 23.5 5.5t19.5 16.5l26 37q4 7 6.5 14.5t2.5 15.5q0 18 -15 31.5t-36.5 24t-46.5 17.5t-45 10v34q0 20 -14 34.5t-34 14.5h-28q-20 0 -34.5 -14.5t-14.5 -34.5v-31q-81 -13 -127 -56t-46 -125q0 -50 17.5 -81t46.5 -50t68 -30.5t82 -21.5q51 -13 70.5 -22t19.5 -24
q0 -33 -57 -33q-35 0 -69 10t-67 29q-19 11 -38 11q-11 -1 -21.5 -5t-18.5 -14l-29 -35q-6 -6 -9 -15t-3 -17q0 -20 19.5 -37t47.5 -30t59.5 -21.5t54.5 -11.5v-35q0 -21 14.5 -35.5t34.5 -14.5h28q20 0 34 14.5t14 35.5v34q40 6 72 18.5t54.5 34t35 53.5t12.5 77z" />
    <glyph glyph-name="percent" unicode="%" horiz-adv-x="674" 
d="M487 508q53 -7 89 -31.5t57.5 -59.5t31 -77t9.5 -85t-9.5 -89.5t-35 -85t-69 -63.5t-112.5 -25q-56 0 -95 16.5t-65 44.5q-23 -27 -55 -43t-67 -16h-32q-30 0 -52.5 12t-37 30t-21.5 39t-7 39q0 4 1 16.5t8 29.5l54 126q-57 7 -93 34.5t-57 65t-28.5 79.5t-7.5 80
q0 44 11 89.5t37 83t69 61t108 23.5q57 0 97 -16.5t66 -45.5q23 28 55 44.5t67 16.5h32q23 0 44.5 -9t38 -24.5t26.5 -37.5t10 -48q-1 -6 -6.5 -21.5t-14.5 -38.5t-21 -52t-25 -62zM426 292q0 11 6.5 17t15.5 6q20 0 20 -23v-74q0 -9 -5.5 -16t-14.5 -7t-15.5 7t-6.5 16v74z
M328 255q0 -35 5.5 -64t19.5 -49.5t37 -32t58 -11.5q68 0 94 42t26 115q0 72 -27.5 111t-94.5 39q-64 0 -91 -40.5t-27 -109.5zM123 117l-1 -2v-1q0 -13 12 -13h32q14 0 28 9.5t19 24.5l234 543q0 1 0.5 2t0.5 2q0 5 -4 8.5t-9 3.5h-32q-14 0 -27.5 -10t-18.5 -24zM98 583
q0 10 6.5 16.5t15.5 6.5t15 -6.5t6 -16.5v-74q0 -9 -6 -16.5t-15 -7.5t-15.5 7.5t-6.5 16.5v74zM0 545q0 -35 5.5 -63.5t19.5 -49t37.5 -32t58.5 -11.5q67 0 93 42t26 114q0 73 -27.5 112t-94.5 39q-64 0 -91 -41t-27 -110z" />
    <glyph glyph-name="ampersand" unicode="&#x26;" horiz-adv-x="667" 
d="M524 580h11q27 0 51 -10.5t42 -28.5t28.5 -42t10.5 -51v-73q0 -35 -17 -65t-45 -47v-17q0 -51 -14.5 -88.5t-37 -65t-50.5 -45.5t-55 -28.5t-50.5 -14.5t-37.5 -4h-86q-27 0 -57.5 1t-61.5 5.5t-62 13t-59 23.5q-68 35 -104.5 96.5t-36.5 149.5q0 42 13.5 82t37.5 72
q-13 26 -20 54.5t-7 60.5q0 52 15.5 89.5t40 63.5t56.5 42t64.5 25t63.5 12t55 3h176q28 0 53 -11t43.5 -30t29.5 -44t11 -53v-57v-9t-1 -9zM389 474q-21 0 -36 -15t-15 -36v-170q0 -12 -12 -12h-60q-22 0 -38 16t-16 38q0 23 16 38.5t38 15.5h22q8 0 13.5 6t5.5 14v85
q0 19 -19 19h-16q-20 0 -33 14.5t-13 33.5t13 32.5t33 13.5h116q13 0 22 9t9 22v57q0 13 -9 22t-22 9h-176q-37 0 -71 -6t-60 -20.5t-41.5 -39t-15.5 -62.5t17.5 -70.5t57.5 -64.5q-21 -4 -39 -16t-31.5 -29.5t-21 -40.5t-7.5 -48q0 -60 22.5 -96t60 -55t87.5 -25t104 -6h86
q38 2 69 17q26 13 48 41t22 81v103h36q11 0 18 7.5t7 18.5v73q0 11 -7 18.5t-18 7.5h-146z" />
    <glyph glyph-name="quotesingle" unicode="'" horiz-adv-x="222" 
d="M18 477q-25 0 -47.5 9t-40 25.5t-27.5 39t-10 49.5v139q0 23 8 35t18 18q11 7 26 8h151q26 0 49 -10t40 -27t27 -40t10 -48q0 -7 -8 -28t-19 -45t-23 -46t-19 -30q-13 -15 -28.5 -24.5t-30 -15t-27 -7.5t-19.5 -2h-30zM48 583q5 0 11 1.5t9 6.5q12 20 23 37q9 14 16.5 28
t7.5 19q0 7 -5.5 12.5t-13.5 5.5h-96v-93q0 -7 5 -12t13 -5h30z" />
    <glyph glyph-name="parenleft" unicode="(" horiz-adv-x="414" 
d="M414 134q0 -17 -5.5 -36.5t-17.5 -38.5l-34 -51q-23 -34 -58 -51t-71 -17q-27 0 -49 7.5t-38 17.5q-56 34 -101.5 76t-78 92.5t-50.5 111t-18 132.5q0 71 17.5 131.5t50 111t78.5 92.5t102 77q20 12 42 18t45 6q35 0 70 -16t59 -51l34 -50q11 -15 17 -35.5t6 -40.5
q0 -42 -19 -71t-41 -46q-23 -18 -38 -33.5t-23.5 -31t-11.5 -30.5t-3 -31q0 -21 3 -37t11.5 -30t23 -28.5t38.5 -32.5q24 -19 42 -48t18 -67zM290 164q-29 23 -51 44.5t-37 46t-22.5 54t-7.5 68.5q0 63 28 113t89 98q18 13 18 32q0 9 -5 17l-33 49q-15 21 -41 21
q-8 0 -16 -2t-15 -7q-96 -59 -146.5 -135.5t-50.5 -185.5t51 -185.5t146 -135.5q13 -9 31 -9q11 0 22 5t19 16l34 50q4 7 4 16q0 18 -17 30z" />
    <glyph glyph-name="parenright" unicode=")" horiz-adv-x="414" 
d="M-107 134q0 38 18 67t42 48q24 18 38.5 32.5t23 28.5t11.5 30t3 37q0 32 -15 61t-61 65q-21 17 -40.5 46t-19.5 71q0 20 6 40t17 36l34 50q24 35 59 51t70 16q46 0 87 -24q56 -35 102 -77t78.5 -92.5t50 -110.5t17.5 -132t-18 -132.5t-50.5 -111t-78 -92.5t-101.5 -76
q-16 -10 -38 -17.5t-49 -7.5q-36 0 -71 17t-58 51l-34 51q-13 19 -18 38.5t-5 36.5zM17 164q-17 -12 -17 -30q0 -9 4 -16l34 -50q8 -11 19 -16t22 -5q17 0 31 9q95 59 146 135.5t51 185.5t-50.5 185.5t-146.5 135.5q-14 9 -31 9q-12 0 -23 -5t-18 -16l-33 -49q-5 -8 -5 -17
q0 -19 18 -32q61 -48 89 -98t28 -113q0 -39 -7.5 -68.5t-22.5 -54t-37 -46t-51 -44.5z" />
    <glyph glyph-name="asterisk" unicode="*" horiz-adv-x="393" 
d="M275 740q37 -8 63 -32.5t37 -53.5l11 -34q3 -11 5 -20.5t2 -19.5q0 -26 -10 -49.5t-27 -40.5q1 -5 1 -9.5v-9.5q0 -30 -14 -57.5t-38 -47.5l-31 -21q-9 -6 -28.5 -15t-45.5 -9q-28 0 -57 13q-29 -13 -57 -13q-20 0 -39.5 6.5t-36.5 17.5l-29 22q-23 18 -37.5 44.5
t-14.5 57.5q0 6 0.5 10.5t0.5 9.5q-17 17 -27 40t-10 50q0 16 6 36l11 38q13 32 40 55.5t60 30.5q17 32 48.5 50.5t68.5 18.5h33q35 0 66.5 -18.5t48.5 -49.5zM209 537l60 19q17 5 17 24q0 5 -1 7l-10 32q-2 7 -9.5 12t-13.5 5q-4 0 -8 -2l-60 -20v64q0 10 -7 17t-17 7h-33
q-11 0 -18 -7t-7 -17v-64l-61 20q-2 1 -6 1q-8 0 -15 -4.5t-9 -11.5l-10 -32q0 -2 -0.5 -4t-0.5 -4q0 -16 17 -23l60 -20l-37 -51q-4 -5 -4 -14q0 -12 9 -19l27 -20q5 -4 14 -4q13 0 20 10l38 51l37 -51q6 -10 19 -10q6 0 14 5l27 19q10 7 10 19q0 9 -5 14z" />
    <glyph glyph-name="plus" unicode="+" horiz-adv-x="509" 
d="M177 36q-29 0 -54.5 10.5t-44 29.5t-29.5 44t-11 54q-29 0 -55 12.5t-46 32.5t-32 46.5t-12 54.5v48q0 28 11 53t29.5 43.5t43.5 29.5t54 11q0 29 12.5 55.5t32.5 46.5t46.5 32t54.5 12h48q27 0 52 -10.5t44 -28.5t30.5 -43t11.5 -55q28 0 54.5 -12.5t47 -32.5
t32.5 -46.5t12 -54.5v-48q0 -28 -10.5 -53.5t-29 -44.5t-44 -30t-54.5 -11q0 -29 -12.5 -55.5t-33 -46.5t-46.5 -31.5t-54 -11.5h-48zM225 142q13 0 22.5 9t9.5 23v114h114q13 0 22.5 9t9.5 23v48q0 13 -9.5 22t-22.5 9h-114v115q0 13 -9.5 22t-22.5 9h-48q-14 0 -23 -9
t-9 -22v-115h-114q-13 0 -22 -9t-9 -22v-48q0 -14 9 -23t22 -9h114v-114q0 -14 9 -23t23 -9h48z" />
    <glyph glyph-name="comma" unicode="," horiz-adv-x="275" 
d="M-86 114q-1 5 -1.5 11t-0.5 13v88q0 29 11 54.5t30 44t44 29t53 10.5h88q28 0 53 -11t44 -29.5t29.5 -44t10.5 -53.5v-92q0 -74 -24 -122t-61.5 -76t-84.5 -38.5t-92 -10.5q-16 0 -33.5 7.5t-32.5 19.5t-26 27t-14 30l-11 56q-3 12 -3 23q0 35 21 64zM76 107
q0 -32 -17.5 -43t-58.5 -15l12 -56q36 1 65 7.5t49.5 22t31.5 42.5t11 69v92q0 13 -9 22.5t-22 9.5h-88q-13 0 -22.5 -9.5t-9.5 -22.5v-88q0 -13 9.5 -22t22.5 -9h26z" />
    <glyph glyph-name="hyphen" unicode="-" horiz-adv-x="347" 
d="M-107 374q0 29 11 54.5t29.5 44t44 29.5t54.5 11h177q29 0 54.5 -11t44 -30t29 -44.5t10.5 -53.5v-62q0 -29 -11 -54t-29.5 -44t-44 -29.5t-53.5 -10.5h-177q-28 0 -53.5 10.5t-44.5 29t-30 44t-11 54.5v62zM0 312q0 -13 9 -22.5t23 -9.5h177q13 0 22 9.5t9 22.5v62
q0 14 -9 23t-22 9h-177q-14 0 -23 -9t-9 -23v-62z" />
    <glyph glyph-name="period" unicode="." horiz-adv-x="258" 
d="M-107 226q0 29 11 54.5t30 44t44.5 29t53.5 10.5h88q28 0 53 -10.5t44 -29t30 -44t11 -54.5v-88q0 -29 -11 -54.5t-30 -44t-44 -29t-53 -10.5h-88q-28 0 -53.5 10.5t-44.5 29t-30 44t-11 54.5v88zM0 138q0 -13 9 -22t23 -9h88q14 0 23 9t9 22v88q0 13 -9 22.5t-23 9.5
h-88q-14 0 -23 -9.5t-9 -22.5v-88z" />
    <glyph glyph-name="slash" unicode="/" horiz-adv-x="397" 
d="M94 689q17 46 58 75t89 29h37q24 0 45.5 -9t38.5 -23t27 -33t10 -38q0 -5 -0.5 -8.5t-1.5 -8.5q-2 -8 -11 -36t-23.5 -69.5t-32.5 -92t-36 -101.5q-43 -121 -97 -270q-17 -44 -57 -74t-90 -30h-38q-24 0 -45.5 9t-38.5 23.5t-27 33t-10 37.5q0 5 2 15q2 7 11.5 36
t24 70.5t32.5 92t36 102.5q43 121 97 270zM1 123q0 -2 -0.5 -2.5t-0.5 -2.5q0 -4 3.5 -7.5t8.5 -3.5h38q14 0 28 9.5t19 24.5l192 529q0 1 0.5 1.5t0.5 1.5q0 13 -12 13h-37q-14 0 -28 -9.5t-19 -23.5z" />
    <glyph glyph-name="zero" unicode="0" horiz-adv-x="629" 
d="M258 802q101 0 171.5 -30.5t115 -84t64.5 -127t20 -159.5q0 -81 -17.5 -155.5t-59.5 -131.5t-112.5 -91t-176.5 -34q-108 0 -179.5 35t-114 92.5t-59.5 132t-17 152.5q0 81 20 154t63.5 128t113 87t168.5 32z" />
    <glyph glyph-name="one" unicode="1" horiz-adv-x="363" 
d="M-61 433q-22 18 -34 44t-12 54v62q0 37 17.5 72.5t55.5 60.5l68 44q20 13 39.5 18t36.5 5h96q33 0 61.5 -12.5t50 -34t33.5 -50t12 -60.5v-478q0 -33 -12 -61.5t-33.5 -50t-50 -34t-61.5 -12.5h-111q-33 0 -61.5 12.5t-49.5 34t-33 50t-12 61.5v275z" />
    <glyph glyph-name="two" unicode="2" horiz-adv-x="568" 
d="M-64 421q-20 21 -31.5 48.5t-11.5 59.5v14q0 55 20 102t54.5 81.5t82 54.5t102.5 20h23q60 0 129 -13t127.5 -47t97.5 -94.5t39 -154.5q0 -44 -13.5 -79.5t-34.5 -62.5q23 -22 35.5 -51t12.5 -62v-79q0 -33 -12.5 -62t-34 -50.5t-50 -33.5t-60.5 -12h-328q-39 0 -73.5 15
t-60.5 40.5t-41 60t-15 73.5v95q0 38 11.5 73t31.5 64z" />
    <glyph glyph-name="three" unicode="3" horiz-adv-x="559" 
d="M514 480q18 -16 31.5 -56t13.5 -91q0 -69 -19.5 -120t-52.5 -88t-75.5 -61t-88.5 -38.5t-92 -20t-85 -5.5h-85q-33 0 -61.5 12.5t-49.5 34t-33 50t-12 61.5v80q0 49 22.5 82.5t56.5 52.5q-2 5 -3 10t-2 11q-35 12 -60.5 43t-25.5 75v110q0 35 13.5 66t36.5 54.5t54 37
t67 13.5h320q32 0 61 -12.5t50.5 -33.5t34 -49.5t12.5 -61.5v-56q0 -14 -1.5 -33.5t-10.5 -39.5l-6 -13z" />
    <glyph glyph-name="four" unicode="4" horiz-adv-x="585" 
d="M541 381q20 -18 32 -43.5t12 -54.5v-77q0 -31 -12.5 -57.5t-34.5 -44.5q-10 -45 -45.5 -74.5t-83.5 -29.5h-160q-38 0 -70 20.5t-48 52.5h-106q-28 0 -52 10.5t-42 29t-28 42.5t-10 51v121q0 55 23 102l122 256q24 51 70 79.5t100 28.5h201q29 0 53 -11t41.5 -29.5
t27.5 -42.5t10 -50v-279z" />
    <glyph glyph-name="five" unicode="5" horiz-adv-x="530" 
d="M-70 383q-6 13 -9.5 27.5t-3.5 31.5v162q0 39 15 73.5t41 60t60.5 40.5t73.5 15h247q33 0 62 -12.5t50.5 -34t33.5 -50.5t12 -61v-66q0 -29 -10.5 -56t-28.5 -48q26 -32 41.5 -70.5t15.5 -85.5q0 -65 -20 -113t-53 -82.5t-75.5 -56.5t-86 -34.5t-85 -17.5t-73.5 -5h-68
q-36 0 -68 13.5t-56 37.5t-38 56t-14 68v120q0 26 10 48.5t27 39.5z" />
    <glyph glyph-name="six" unicode="6" horiz-adv-x="573" 
d="M522 471q25 -32 38 -75t13 -99q0 -81 -27 -139t-72 -95.5t-104 -55t-124 -17.5q-108 0 -176.5 35t-107.5 91.5t-54 128t-15 144.5q0 75 15.5 147.5t54.5 129t106 91.5t171 35h119q36 0 67 -13.5t54 -37t36 -54.5t13 -65v-110q0 -23 -7 -41z" />
    <glyph glyph-name="seven" unicode="7" horiz-adv-x="494" 
d="M6 419q-24 7 -44.5 21t-36 33.5t-24 44t-8.5 51.5v67q0 33 12.5 61.5t34 49.5t50.5 33.5t61 12.5h285q33 0 61.5 -12.5t50 -34t33.5 -50t12 -60.5v-72q0 -22 -0.5 -36t-3.5 -26.5t-8 -28t-14 -40.5l-121 -331q-17 -46 -57.5 -74t-90.5 -28h-150q-29 0 -54.5 11t-44 30
t-29 44t-10.5 53q0 22 9 48z" />
    <glyph glyph-name="eight" unicode="8" horiz-adv-x="606" 
d="M-64 434q-11 19 -19 48t-8 65q0 79 34.5 128.5t86.5 77.5t111.5 38t110.5 10t107 -7.5t106 -33.5q59 -31 92.5 -85.5t33.5 -129.5q0 -32 -7.5 -60.5t-21.5 -52.5q44 -65 44 -152q0 -89 -35 -145t-87.5 -88t-115 -44t-117.5 -12q-37 0 -77.5 5t-80.5 17t-76 33t-63.5 53
t-44 77t-16.5 104q0 90 43 154z" />
    <glyph glyph-name="nine" unicode="9" horiz-adv-x="573" 
d="M-64 342q-20 29 -31.5 68t-11.5 89q0 78 26 135t70 94t103.5 55t127.5 18q102 0 169.5 -31.5t108.5 -86t58 -126.5t17 -153q0 -78 -15 -150.5t-55 -129t-108.5 -90.5t-174.5 -34h-117q-36 0 -68 13.5t-56 37.5t-38 56t-14 68v120q0 24 9 47z" />
    <glyph glyph-name="colon" unicode=":" horiz-adv-x="258" 
d="M-107 499q0 28 11 53.5t30 44t44 29.5t53 11h89q29 0 54.5 -11t44 -30t29 -44t10.5 -53v-88q0 -26 -9.5 -50t-25.5 -43q16 -18 25.5 -42t9.5 -50v-88q0 -28 -10.5 -53t-29 -44t-44 -30t-54.5 -11h-89q-28 0 -53 10.5t-44 29.5t-30 44t-11 54v88q0 27 9.5 50.5t25.5 41.5
q-16 19 -25.5 42.5t-9.5 50.5v88zM0 411q0 -14 9.5 -23t21.5 -9h89q13 0 22 9t9 23v88q0 14 -9 23t-22 9h-89q-12 0 -21.5 -9t-9.5 -23v-88zM0 138q0 -13 9.5 -22t21.5 -9h89q13 0 22 9t9 22v88q0 14 -9 23t-22 9h-89q-12 0 -21.5 -9t-9.5 -23v-88z" />
    <glyph glyph-name="semicolon" unicode=";" horiz-adv-x="277" 
d="M-86 114q-1 5 -1.5 11t-0.5 13v88q0 27 9 50.5t26 41.5q-17 19 -26 42.5t-9 50.5v88q0 28 11 53.5t29.5 44t43.5 29.5t54 11h88q29 0 54.5 -11t44 -29.5t29.5 -44t11 -53.5v-88q0 -28 -9.5 -51.5t-26.5 -42.5q34 -37 34 -91v-92q0 -74 -24 -122t-61.5 -76t-84.5 -38.5
t-92 -10.5q-16 0 -33.5 7.5t-32.5 19.5t-26 27t-14 30l-11 56q-3 12 -3 23q0 35 21 64zM76 107q0 -32 -17.5 -43t-58.5 -15l12 -56q36 1 65 7.5t49.5 22t31.5 42.5t11 69v92q0 13 -9 22.5t-22 9.5h-88q-13 0 -22.5 -9.5t-9.5 -22.5v-88q0 -13 9.5 -22t22.5 -9h26zM18 411
q0 -14 9.5 -23t22.5 -9h88q14 0 23 9t9 23v88q0 14 -9 23t-23 9h-88q-13 0 -22.5 -9t-9.5 -23v-88z" />
    <glyph glyph-name="less" unicode="&#x3c;" horiz-adv-x="468" 
d="M431 343q17 -21 27 -46.5t10 -54.5v-66q0 -30 -11.5 -55.5t-30.5 -43.5t-44 -28.5t-52 -10.5q-26 0 -52 10l-286 114q-45 18 -72 58t-27 89v67q0 48 27 88t72 58l290 115q8 3 21 6t27 3q28 0 53.5 -10.5t44 -29.5t29.5 -44t11 -54v-65q0 -29 -10 -54.5t-27 -45.5z
M361 176v66q0 35 -35 48l-157 53l157 52q17 5 26 18t9 30v65q0 14 -9 22.5t-22 8.5q-7 0 -12 -2l-286 -114q-32 -13 -32 -47v-67q0 -35 32 -48l286 -114q8 -2 12 -2q12 0 21.5 8.5t9.5 22.5z" />
    <glyph glyph-name="equal" unicode="=" horiz-adv-x="509" 
d="M-107 280q0 17 4 32.5t11 29.5q-7 14 -11 29.5t-4 32.5v46q0 28 11 53t29.5 44t43.5 30t54 11h340q28 0 53.5 -11t44 -30t29.5 -44t11 -53v-46q0 -34 -15 -62q15 -29 15 -62v-45q0 -29 -11 -53.5t-29.5 -43.5t-44 -29.5t-53.5 -10.5h-340q-29 0 -54 10.5t-43.5 29.5
t-29.5 43.5t-11 53.5v45zM0 235q0 -13 9 -22t22 -9h340q13 0 22.5 9t9.5 22v45q0 13 -9.5 22.5t-22.5 9.5h-340q-13 0 -22 -9.5t-9 -22.5v-45zM0 404q0 -13 9 -22t22 -9h340q13 0 22.5 9t9.5 22v46q0 13 -9.5 22t-22.5 9h-340q-13 0 -22 -9t-9 -22v-46z" />
    <glyph glyph-name="greater" unicode="&#x3e;" horiz-adv-x="468" 
d="M-70 343q-17 20 -27 45.5t-10 54.5v65q0 29 11 54t30 44t44 29.5t53 10.5q14 0 27 -3t21 -6l290 -115q45 -18 72 -58t27 -88v-67q0 -49 -27 -89t-72 -58l-286 -114q-26 -10 -52 -10q-27 0 -52 10.5t-44 28.5t-30.5 43.5t-11.5 55.5v66q0 29 10 54.5t27 46.5zM0 176
q0 -14 9.5 -22.5t21.5 -8.5q4 0 12 2l286 114q32 13 32 48v67q0 34 -32 47l-286 114q-5 2 -12 2q-13 0 -22 -8.5t-9 -22.5v-65q0 -17 9 -30t26 -18l157 -52l-157 -53q-35 -13 -35 -48v-66z" />
    <glyph glyph-name="question" unicode="?" horiz-adv-x="491" 
d="M-4 226q0 19 5 36t13 32q-2 5 -3 9.5t-1 9.5l-12 100v9t1 8q-9 6 -17 12.5t-13 14.5l-42 54q-17 21 -25.5 46.5t-8.5 51.5q0 40 15.5 69.5t38 49.5t47.5 32t44 19q40 14 81.5 20t70.5 6q58 0 112.5 -17.5t96.5 -52t67 -86t25 -118.5q0 -45 -11 -82.5t-30 -68.5t-45 -54.5
t-57 -39.5q13 -29 13 -60v-88q0 -29 -11 -54t-29.5 -44t-44 -29.5t-53.5 -10.5h-88q-27 0 -52.5 10.5t-44.5 28.5t-30.5 43.5t-11.5 55.5v88zM103 138q0 -13 9.5 -22t22.5 -9h88q13 0 22.5 9t9.5 22v88q0 13 -9.5 22.5t-22.5 9.5h-88q-13 0 -22.5 -9.5t-9.5 -22.5v-88z
M150 297h56q13 0 22.5 8t11.5 21l5 34q62 16 101 57.5t39 113.5q0 39 -14.5 70.5t-40 53t-61.5 33t-79 11.5q-22 0 -54.5 -5t-62.5 -15.5t-51.5 -27.5t-21.5 -42q0 -17 11 -33l41 -51q9 -14 26 -14q14 0 26.5 5t25 11.5t25 11.5t26.5 5q37 0 37 -25q0 -21 -18 -33t-39 -21.5
t-39 -21t-18 -30.5l11 -86q2 -13 12 -21.5t23 -8.5z" />
    <glyph glyph-name="at" unicode="@" horiz-adv-x="958" 
d="M37 403h-8q-32 1 -57 14t-42.5 33t-27 44.5t-9.5 48.5q0 78 30 145.5t81 117.5t118.5 78.5t143.5 28.5h319q77 0 145 -29.5t118.5 -80t80 -118.5t29.5 -145v-168q0 -77 -29.5 -145t-80 -118.5t-118.5 -79.5t-145 -29h-180q-44 0 -78 21q-47 -21 -101 -21
q-47 0 -87.5 16.5t-71 45t-48 67.5t-17.5 85q0 11 1.5 24t3.5 27zM394 297q-4 -17 -17 -28t-31 -11q-13 0 -21.5 9t-8.5 22q0 5 1 8l20 91q3 16 16 27t30 11q20 0 25.5 -11t5.5 -27zM613 530q1 3 1 10q0 17 -11 28.5t-30 11.5h-68q-21 0 -38.5 -15t-22.5 -35l-9 -41
q-5 40 -34.5 66t-74.5 26h-7q-27 0 -54 -10.5t-49.5 -29t-38.5 -43.5t-22 -53l-43 -203q-3 -15 -3 -28q0 -47 30 -77t80 -30h7q45 0 84.5 25.5t62.5 65.5l-8 -40q-2 -8 -2 -11q0 -17 11.5 -28.5t30.5 -11.5h180q55 0 103.5 21t84.5 57t57 84t21 103v168q0 55 -21 103.5
t-57 85t-84.5 57.5t-103.5 21h-319q-54 0 -102.5 -20.5t-85 -56.5t-57.5 -84t-21 -103q0 -12 8.5 -22.5t22.5 -10.5h67q22 0 37 14t16 35q1 41 30 69t71 28h327q21 0 40 -8t33 -22t22 -32.5t8 -39.5v-194q0 -21 -6 -40t-20.5 -32.5t-38.5 -21.5t-61 -8z" />
    <glyph glyph-name="A" unicode="A" horiz-adv-x="673" 
d="M282 65q-23 -31 -56.5 -48t-71.5 -17h-122q-30 0 -55 11t-44 30t-29.5 44t-10.5 53q0 11 2 20t4 17l131 501q7 25 21 46.5t34 37.5t44.5 24.5t51.5 8.5h203q54 0 96 -33t56 -84l131 -501q2 -8 4 -17.5t2 -20.5q0 -27 -10.5 -52t-29 -44t-44 -30t-54.5 -11h-126
q-38 0 -71.5 17.5t-55.5 47.5zM32 107h122q19 0 32.5 11t17.5 29l13 63q2 10 12 10h105q9 0 12 -10l14 -64q4 -17 18 -28t31 -11h126q14 0 22.5 9t8.5 21q0 6 -1 8l-131 503q-5 17 -18.5 27.5t-31.5 10.5h-203q-17 0 -30.5 -10.5t-18.5 -27.5l-131 -503q0 -2 -0.5 -3.5
t-0.5 -3.5q0 -13 9 -22t23 -9zM248 357l34 157l32 -157h-66z" />
    <glyph glyph-name="B" unicode="B" horiz-adv-x="638" 
d="M320 793q24 0 55 -3t63.5 -12t64.5 -25t56.5 -42t40 -63.5t15.5 -89.5q0 -62 -28 -115q25 -32 38 -72t13 -82q0 -88 -36.5 -149.5t-104.5 -96.5q-28 -15 -58.5 -23.5t-61.5 -13t-61.5 -5.5t-57.5 -1h-207q-32 0 -61 12t-50.5 33.5t-34 50.5t-12.5 62v478q0 33 12.5 61.5
t34 49.5t50.5 33.5t61 12.5h269zM51 686q-21 0 -36 -15t-15 -35v-478q0 -22 15 -36.5t36 -14.5h207q54 0 103.5 6t87 25t60 55t22.5 96q0 51 -28 88.5t-71 45.5q40 32 58 64.5t18 70.5t-15.5 62.5t-41.5 39t-60 20.5t-71 6h-269zM209 567h51q19 0 32.5 -13.5t13.5 -32.5
t-13.5 -33.5t-32.5 -14.5h-51v94zM209 349h56q23 0 39 -15.5t16 -38.5q0 -22 -16 -38t-39 -16h-56v108z" />
    <glyph glyph-name="C" unicode="C" horiz-adv-x="589" 
d="M565 397q11 -17 17.5 -38t6.5 -44v-52q0 -57 -24 -105t-63 -83.5t-88.5 -55t-101.5 -19.5h-56q-93 0 -161.5 30t-113 82.5t-66.5 123.5t-22 153q0 97 26 172t74.5 126.5t118 78.5t157.5 27h34q48 0 98.5 -19.5t92.5 -54.5t68.5 -83.5t26.5 -105.5v-50q0 -23 -6.5 -43.5
t-17.5 -39.5zM300 474q0 -21 14.5 -33t35.5 -12h81q22 0 36.5 15t14.5 36v50q0 30 -16 58t-41.5 49.5t-57.5 35t-64 13.5h-34q-128 0 -198.5 -71.5t-70.5 -225.5q0 -65 15.5 -117.5t47 -89t79.5 -56t114 -19.5h56q33 0 64 12.5t54.5 34t37.5 49.5t14 60v52q0 21 -14.5 36
t-36.5 15h-84q-21 0 -35.5 -12t-15.5 -32q-1 -11 -11 -19t-25 -8q-18 0 -28.5 12.5t-10.5 29.5v131q0 17 11 30t28 13q21 0 30.5 -12.5t9.5 -24.5z" />
    <glyph glyph-name="D" unicode="D" horiz-adv-x="616" 
d="M225 793q80 0 151 -19.5t124.5 -63t84.5 -113t31 -169.5q0 -86 -25 -164t-75 -136.5t-125 -93t-175 -34.5h-166q-32 0 -60.5 12.5t-50 33.5t-34 50t-12.5 62v478q0 32 12.5 60.5t34 50t50 34t60.5 12.5h175zM50 686q-20 0 -35 -15t-15 -35v-478q0 -22 15 -36.5t35 -14.5
h166q73 0 127.5 24t91.5 66.5t55.5 101.5t18.5 129q0 71 -20 120t-57 80t-89.5 44.5t-117.5 13.5h-175zM209 486q0 10 7 17.5t17 7.5q26 0 44 -18.5t18 -44.5v-91q0 -26 -18 -44t-44 -18q-10 0 -17 6.5t-7 16.5v168z" />
    <glyph glyph-name="E" unicode="E" horiz-adv-x="551" 
d="M499 348q24 -21 38 -51.5t14 -65.5v-73q0 -33 -12 -61.5t-33.5 -50t-50 -34t-61.5 -12.5h-344q-33 0 -61.5 12.5t-50 34t-33.5 50t-12 61.5v478q0 32 12 60.5t33.5 50t50 34t61.5 12.5h344q33 0 61.5 -12.5t50 -34t33.5 -50t12 -60.5v-75q0 -35 -14 -65t-38 -52
q1 -5 1.5 -10.5t0.5 -10.5v-51q0 -6 -0.5 -12t-1.5 -12zM445 636q0 20 -14.5 35t-36.5 15h-344q-21 0 -35.5 -15t-14.5 -35v-478q0 -22 14.5 -36.5t35.5 -14.5h344q22 0 36.5 14.5t14.5 36.5v73q0 21 -14.5 35.5t-36.5 14.5h-185v59h154q13 0 22 9t9 23v51q0 13 -9 22t-22 9
h-154v57h185q22 0 36.5 14.5t14.5 35.5v75z" />
    <glyph glyph-name="F" unicode="F" horiz-adv-x="512" 
d="M457 441q4 -13 4 -32v-72q0 -29 -11 -53.5t-29.5 -43.5t-44 -29.5t-53.5 -10.5l-6 -42q0 -33 -12 -61.5t-33.5 -50t-50 -34t-61.5 -12.5h-109q-32 0 -60.5 12t-50 33t-34.5 50t-13 63v478q0 33 13 61.5t34.5 50t50 33.5t60.5 12h304q33 0 61.5 -12.5t50 -34t33.5 -50
t12 -60.5v-75q0 -35 -14.5 -66t-40.5 -54zM406 636q0 20 -15 35t-36 15h-304q-20 0 -35.5 -15t-15.5 -35v-478q0 -22 15.5 -36.5t35.5 -14.5h109q21 0 35.5 14.5t14.5 36.5v148h113q13 0 22 9t9 22v72q0 14 -9 23t-22 9h-113v69h145q21 0 36 15t15 36v75z" />
    <glyph glyph-name="G" unicode="G" horiz-adv-x="615" 
d="M592 452q22 -38 22 -81v-213q0 -34 -12.5 -63t-34 -50t-50.5 -33t-61 -12h-53q-37 0 -69 13q-23 -7 -45 -9.5t-37 -2.5q-96 0 -164 34.5t-111.5 90.5t-63.5 127t-20 143q0 91 22.5 165.5t69 127t117.5 81.5t167 29h56q47 0 98.5 -18t94 -52t70 -83.5t27.5 -111.5
q0 -23 -6 -43.5t-17 -38.5zM508 534q0 33 -16 62t-42.5 50.5t-59 34t-65.5 12.5h-56q-140 0 -204.5 -74.5t-64.5 -222.5q0 -59 15 -111.5t46 -92t78.5 -62.5t112.5 -23q23 0 49.5 7t39.5 20q25 -27 62 -27h53q22 0 37 14.5t15 36.5v213q0 22 -15 37t-37 15h-164
q-11 0 -18 -7t-7 -17v-39q0 -11 7 -18t18 -7h29q0 -35 -8 -54t-20 -28t-26 -10.5t-26 -1.5q-10 0 -16.5 7t-6.5 17v246q0 9 6.5 16t16.5 7h81q1 -21 15.5 -35.5t34.5 -14.5h85q21 0 36 14.5t15 35.5z" />
    <glyph glyph-name="H" unicode="H" horiz-adv-x="602" 
d="M248 766q38 27 86 27h111q32 0 60.5 -12.5t50 -33.5t34 -49.5t12.5 -61.5v-478q0 -33 -12.5 -62t-34 -50.5t-50 -33.5t-60.5 -12h-111q-23 0 -45.5 7t-40.5 19q-19 -12 -41 -19t-46 -7h-111q-32 0 -60.5 12.5t-50 33.5t-34 50t-12.5 62v478q0 32 12.5 60.5t34 50t50 34
t60.5 12.5h111q24 0 46 -7t41 -20zM496 636q0 20 -15 35t-36 15h-111q-20 0 -35 -15t-15 -35v-154h-73v154q0 20 -14.5 35t-35.5 15h-111q-20 0 -35 -15t-15 -35v-478q0 -22 15 -36.5t35 -14.5h111q21 0 35.5 14.5t14.5 36.5v159h73v-159q0 -22 15 -36.5t35 -14.5h111
q21 0 36 14.5t15 36.5v478z" />
    <glyph glyph-name="I" unicode="I" horiz-adv-x="318" 
d="M318 158q0 -33 -12.5 -62t-34 -50.5t-50 -33.5t-60.5 -12h-110q-32 0 -61 12t-50.5 33.5t-34 50.5t-12.5 62v478q0 33 12.5 61.5t34 49.5t50.5 33.5t61 12.5h110q32 0 60.5 -12.5t50 -33.5t34 -49.5t12.5 -61.5v-478zM212 636q0 20 -15 35t-36 15h-110q-21 0 -36 -15
t-15 -35v-478q0 -22 15 -36.5t36 -14.5h110q21 0 36 14.5t15 36.5v478z" />
    <glyph glyph-name="J" unicode="J" horiz-adv-x="408" 
d="M-16 344v292q0 32 12.5 60.5t34 50t50 34t60.5 12.5h111q33 0 61.5 -12.5t49.5 -34t33 -50t12 -60.5v-397q0 -50 -19 -93.5t-51 -75.5t-76 -51t-93 -19h-138q-29 0 -54 10.5t-43.5 29.5t-29.5 44t-11 54v76q0 45 25 80.5t66 49.5zM302 636q0 20 -14.5 35t-35.5 15h-111
q-20 0 -35 -15t-15 -35v-372q0 -8 -5.5 -13t-13.5 -5h-41q-13 0 -22 -9t-9 -23v-76q0 -13 9 -22t22 -9h138q28 0 52 10.5t42 28.5t28.5 42t10.5 51v397z" />
    <glyph glyph-name="K" unicode="K" horiz-adv-x="627" 
d="M260 37q-21 -17 -47 -27t-55 -10h-107q-32 0 -61 12t-50.5 33.5t-34 50.5t-12.5 62v478q0 33 12.5 61.5t34.5 50t50.5 33.5t60.5 12h107q26 0 49 -8t43 -22q41 30 91 30h129q31 0 56.5 -12t43.5 -31.5t28 -44.5t10 -51q-1 -11 -3 -25.5t-8 -27.5l-89 -199l104 -201
q8 -17 11.5 -34t3.5 -28q0 -26 -10 -50.5t-28 -44.5t-43.5 -32t-56.5 -12h-127q-57 0 -102 37zM0 158q0 -22 15 -36.5t36 -14.5h107q21 0 36 14.5t15 36.5v184l108 -208q7 -14 19 -20.5t26 -6.5h127q14 0 22.5 9.5t8.5 22.5q0 7 -3 13l-127 246l109 244q2 8 2 12
q0 12 -8.5 22t-22.5 10h-129q-15 0 -27.5 -8t-18.5 -22l-86 -193v173q0 21 -15 35.5t-36 14.5h-107q-21 0 -36 -14.5t-15 -35.5v-478z" />
    <glyph glyph-name="L" unicode="L" horiz-adv-x="449" 
d="M318 352q28 -1 52 -12.5t41.5 -30.5t27.5 -43.5t10 -51.5v-76q0 -29 -11 -54t-29.5 -44t-43.5 -29.5t-53 -10.5h-229q-39 0 -73.5 15t-60.5 40.5t-41 60t-15 73.5v447q0 33 13 61.5t34.5 50t50 33.5t60.5 12h110q32 0 60.5 -12.5t50 -34t34 -50t12.5 -60.5v-284zM312 107
q13 0 22 9t9 22v76q0 14 -9 23t-22 9h-100v390q0 20 -15 35t-36 15h-110q-20 0 -35.5 -15t-15.5 -35v-447q0 -34 24.5 -58t58.5 -24h229z" />
    <glyph glyph-name="M" unicode="M" horiz-adv-x="833" 
d="M473 27q-41 -27 -88 -27h-43q-47 0 -88 27q-38 -27 -90 -27h-133q-30 0 -55.5 11.5t-43.5 30.5t-28.5 44t-10.5 52q0 4 4.5 44t11.5 97.5t15 123.5t15 122t11.5 93l4.5 37q4 28 17.5 53.5t34 44t47.5 29.5t57 11h151q29 0 55.5 -10.5t46.5 -27.5q20 17 46.5 27.5
t55.5 10.5h148q30 0 56.5 -10.5t47.5 -29t34.5 -43.5t17.5 -54l63 -514q0 -28 -10.5 -53.5t-29 -45t-43.5 -31.5t-54 -12h-133q-52 0 -90 27zM234 383l59 -238q5 -17 17.5 -27.5t31.5 -10.5h43q18 0 31 10.5t18 27.5l59 237l20 -229q1 -13 6 -23q5 -9 15 -16t29 -7h133
q15 0 23 10.5t8 24.5l-62 500q-2 19 -17 31.5t-34 12.5h-148q-17 0 -30.5 -11t-18.5 -28l-52 -202l-53 203q-5 17 -18.5 27.5t-31.5 10.5h-151q-20 0 -34 -12.5t-16 -32.5l-61 -503q0 -13 8.5 -22t22.5 -9h133q19 0 29 7t15 16q5 10 6 23z" />
    <glyph glyph-name="N" unicode="N" horiz-adv-x="602" 
d="M257 769q38 24 83 24h105q32 0 60.5 -12.5t50 -33.5t34 -49.5t12.5 -61.5v-478q0 -33 -12.5 -62t-34 -50.5t-50 -33.5t-60.5 -12h-102q-5 0 -15 0.5t-22.5 3t-27 8t-29.5 16.5q-40 -28 -90 -28h-108q-32 0 -61 12t-50.5 33.5t-34 50.5t-12.5 62v478q0 33 12.5 61.5
t34 49.5t50.5 33.5t61 12.5h120q10 0 35 -4t51 -20zM340 686q-21 0 -36 -15t-15 -35v-103l-82 137q-6 10 -15.5 13t-20.5 3h-120q-21 0 -36 -15t-15 -35v-478q0 -22 15 -36.5t36 -14.5h108q20 0 35 14.5t15 36.5v253q21 -17 38 -50q14 -28 26 -75.5t12 -120.5
q0 -22 8.5 -33.5t19 -17t19.5 -6.5t10 -1h103q21 0 36 14.5t15 36.5v478q0 20 -15 35t-36 15h-105z" />
    <glyph glyph-name="O" unicode="O" horiz-adv-x="670" 
d="M272 804q104 0 179 -26t124 -76.5t72 -125t23 -171.5q0 -83 -17.5 -158.5t-61 -133t-116.5 -91.5t-183 -34t-186.5 28.5t-123.5 82.5t-68 131t-21 173q0 95 24.5 169.5t72.5 126t119 78.5t163 27zM0 403q0 -79 14 -137t48 -96t90 -56.5t140 -18.5q79 0 131.5 21.5
t83.5 62t43.5 97.5t12.5 129q0 76 -15.5 131.5t-50 91.5t-90 53t-135.5 17q-137 0 -204.5 -71.5t-67.5 -223.5zM195 406q-19 19 -19 44t18 43.5t44 18.5q11 -1 22.5 -5t21.5 -13l89 -89q9 -9 13.5 -21.5t4.5 -23.5q0 -26 -18 -44t-43 -18q-26 0 -45 19z" />
    <glyph glyph-name="P" unicode="P" horiz-adv-x="611" 
d="M307 107q-16 -48 -56.5 -77.5t-92.5 -29.5h-108q-32 0 -60.5 12.5t-50 33.5t-34 50t-12.5 62v478q0 32 12.5 60.5t34 50t50 34t60.5 12.5h135q8 0 15 -1t15 -3q12 3 27 3h127q50 0 94 -19t77 -52t52 -77t19 -94v-204q0 -50 -19 -94t-52 -77t-77 -52t-94 -19h-30
q-17 0 -32 3zM209 489q0 17 11 28t28 11h4q16 0 27.5 -11t11.5 -28v-43q0 -26 -15 -44t-36 -18q-13 0 -22 11t-9 28v66zM209 666q-2 8 -8.5 14t-15.5 6h-135q-20 0 -35 -15t-15 -35v-478q0 -22 15 -36.5t35 -14.5h108q21 0 36 14.5t15 36.5v150q12 -42 47.5 -69.5
t82.5 -27.5h30q28 0 53 10.5t43.5 29t29 43t10.5 52.5v204q0 28 -10.5 52.5t-29 43t-43.5 29t-53 10.5h-127q-23 0 -33 -19z" />
    <glyph glyph-name="Q" unicode="Q" horiz-adv-x="670" 
d="M87 17q-65 26 -103.5 72.5t-58.5 100.5t-26 110.5t-6 102.5q0 94 23 168t69.5 126t118 79.5t168.5 27.5q103 0 178.5 -27t124 -78t72 -125.5t23.5 -169.5q0 -40 -4 -87.5t-17.5 -95t-38.5 -91.5t-67 -76q6 -20 6 -41q0 -32 -12 -60t-33 -48.5t-49 -32.5t-59 -12h-151
q-33 0 -62 12.5t-50 33.5t-33.5 49.5t-12.5 61.5zM369 59q-8 0 -14 6.5t-6 14.5t6 13.5t14 6.5q62 6 100 33t59 68t28 93.5t7 109.5q0 75 -15.5 130.5t-50 91.5t-90 54t-135.5 18q-143 0 -207.5 -72t-64.5 -223q0 -54 7 -106t28 -93.5t59 -69t100 -34.5v-83q0 -20 14.5 -35
t36.5 -15h151q20 0 33.5 13t13.5 33q0 19 -13.5 32.5t-33.5 13.5h-27zM193 406q-18 18 -18 44q0 24 18 42.5t43 18.5q12 0 24 -4.5t21 -13.5l89 -89q9 -9 13.5 -21.5t4.5 -23.5q0 -25 -18 -43t-43 -18q-26 0 -45 19z" />
    <glyph glyph-name="R" unicode="R" horiz-adv-x="624" 
d="M258 36q-42 -36 -99 -36h-108q-32 0 -60.5 12t-50 33t-34.5 50t-13 63v478q0 34 13 63t35 50t50.5 32.5t59.5 11.5h134q14 0 28 -3q15 3 30 3h127q50 0 94 -19t77 -52t52 -77t19 -94v-92q0 -46 -14 -87t-39 -75l49 -98q16 -32 16 -62q0 -28 -11.5 -53t-30.5 -43.5
t-44.5 -29.5t-52.5 -11h-127q-56 0 -100 36zM312 137q14 -30 46 -30h127q13 0 22.5 9t9.5 22q0 7 -3 13l-86 168q35 22 56 58.5t21 81.5v92q0 28 -10.5 52.5t-29 43t-43 29t-52.5 10.5h-127q-11 0 -20 -5.5t-14 -13.5q-3 19 -24 19h-134q-20 0 -35.5 -14.5t-15.5 -35.5v-478
q0 -22 15.5 -36.5t35.5 -14.5h108q20 0 35 14.5t15 36.5v137h29zM209 494q0 16 11.5 27.5t28.5 11.5q19 0 31 -11.5t12 -27.5v-43q0 -27 -15 -45t-37 -18q-13 0 -22 11t-9 27v68z" />
    <glyph glyph-name="S" unicode="S" horiz-adv-x="644" 
d="M-90 340q-17 39 -17 78v28q0 42 4 85t17.5 83t39 75t67 60.5t102.5 40.5t146 15q108 0 178 -18.5t111.5 -53t58 -84t16.5 -112.5v-29q0 -22 -8 -46q9 -19 14 -39t5 -43v-29q0 -43 -4 -87t-18 -84t-39 -75t-67 -61t-103.5 -41t-146.5 -15q-113 0 -184 22.5t-111.5 61
t-55 89.5t-14.5 107v26q0 25 9 46zM300 348q8 0 14 -6t6 -14v-77q0 -26 -11 -44.5t-37 -18.5t-36 18.5t-10 44.5v32q0 14 -9 23t-22 9h-165q-9 0 -16 -6.5t-7 -14.5v-26q0 -33 6 -64t31.5 -55t77.5 -39t144 -15q97 0 151.5 20t81 54.5t32.5 81.5t6 100v29q0 31 -15.5 48
t-45.5 17h-236q-19 0 -19 19v78q0 26 10 44.5t36 18.5t36 -18.5t10 -44.5v-34q0 -13 9.5 -22t22.5 -9h151q13 0 22 9t9 22v29q0 35 -6 64.5t-31.5 51.5t-77 34t-143.5 12q-96 0 -150 -20t-80.5 -54.5t-32.5 -80.5t-6 -98v-28q0 -31 16 -50.5t47 -19.5h237z" />
    <glyph glyph-name="T" unicode="T" horiz-adv-x="517" 
d="M-8 446q-44 13 -71.5 49.5t-27.5 83.5v76q0 28 11 53t29.5 44t43.5 30t54 11h347q28 0 53.5 -10.5t44.5 -29t30 -44t11 -54.5v-76q0 -48 -28.5 -84.5t-71.5 -49.5v-287q0 -33 -12.5 -62t-34 -50.5t-50.5 -33.5t-61 -12h-110q-32 0 -60.5 12t-50 33.5t-34 50.5t-12.5 62
v288zM410 655q0 13 -9 22t-23 9h-347q-13 0 -22 -9t-9 -22v-76q0 -14 9 -23t22 -9h56q11 0 11 -12v-377q0 -22 15 -36.5t36 -14.5h110q21 0 36 14.5t15 36.5v377q0 12 13 12h55q14 0 23 9t9 23v76z" />
    <glyph glyph-name="U" unicode="U" horiz-adv-x="599" 
d="M246 767q38 26 86 26h110q32 0 60.5 -12.5t50 -34t34 -50t12.5 -60.5v-337q-5 -84 -40 -150q-15 -28 -38.5 -55t-57.5 -48t-80 -33.5t-106 -12.5h-62q-61 0 -108.5 15t-83.5 39.5t-60.5 55.5t-39.5 64t-22 65t-7 57v340q0 33 12.5 61.5t34 49.5t50.5 33.5t61 12.5h109
q48 0 85 -26zM1 299q3 -54 27 -96q10 -18 25.5 -35.5t38 -31t53 -21.5t70.5 -8h62q40 0 70.5 8t53.5 21.5t38.5 31t25.5 35.5q24 42 27 96v337q0 20 -15 35t-35 15h-110q-22 0 -37 -15t-15 -35v-341q0 -14 -10 -23.5t-24 -9.5t-24 9.5t-10 23.5v341q0 20 -15 35t-36 15h-109
q-21 0 -36 -15t-15 -35v-337z" />
    <glyph glyph-name="V" unicode="V" horiz-adv-x="671" 
d="M285 738q21 25 51 40t67 15h130q28 0 53.5 -11t44 -30t29.5 -44t11 -53q0 -11 -1 -19.5t-3 -16.5l-127 -501q-6 -26 -20.5 -47.5t-35 -37t-45 -24.5t-51.5 -9h-212q-57 0 -98 33.5t-54 84.5l-126 501q-2 9 -3.5 16t-1.5 18q0 26 10 51.5t28 45t43.5 31.5t56.5 12h135
q37 0 67.5 -15t51.5 -40zM564 647q1 3 1 8q0 12 -9 21.5t-23 9.5h-130q-18 0 -31 -11t-18 -30l-69 -296l-69 296q-5 19 -18 30t-32 11h-135q-13 0 -22 -10t-9 -23q0 -3 1 -6l126 -502q5 -17 18 -27.5t31 -10.5h212q18 0 31 10.5t18 27.5z" />
    <glyph glyph-name="W" unicode="W" horiz-adv-x="835" 
d="M481 764q20 14 43 21.5t47 7.5h126q28 0 53.5 -11t44 -30t29.5 -44t11 -53q0 -5 -5.5 -45t-13.5 -98t-17.5 -124t-17.5 -122.5t-13 -93.5l-5 -37q-4 -28 -17 -52.5t-33.5 -43t-47 -29t-57.5 -10.5h-145q-27 0 -52.5 9t-45.5 26q-21 -17 -46 -26t-53 -9h-145
q-30 0 -57 10.5t-48 29t-34.5 43.5t-17.5 53l-68 493q-3 13 -3 27q0 29 11.5 54t30.5 43.5t44.5 29t52.5 10.5h129q26 0 48 -7.5t41 -21.5q20 14 42.5 21.5t47.5 7.5h51q24 0 47 -7.5t43 -21.5zM571 686q-20 0 -34 -12.5t-16 -32.5q-7 -63 -12 -115q-2 -22 -4.5 -43.5
t-5 -39.5t-4 -30t-1.5 -15l-54 248q-4 18 -18 29t-31 11h-51q-18 0 -32 -11t-18 -29l-53 -249l-25 244q-2 20 -16.5 32.5t-34.5 12.5h-129q-14 0 -23 -9t-9 -21q0 -3 1 -5l69 -500q2 -19 16.5 -31.5t34.5 -12.5h145q17 0 31 10t19 27l48 185l50 -185q5 -17 18.5 -27
t30.5 -10h145q18 0 32.5 12.5t17.5 31.5l70 504q0 13 -9 22t-22 9h-126z" />
    <glyph glyph-name="X" unicode="X" horiz-adv-x="617" 
d="M256 771q38 22 79 22h125q32 0 57.5 -12.5t43.5 -32t27.5 -45t9.5 -50.5q0 -14 -3.5 -28t-6.5 -22l-89 -201l103 -201q10 -19 12.5 -35.5t2.5 -27.5q0 -26 -10 -50.5t-28 -44t-43 -31.5t-56 -12h-126q-56 0 -98 34q-42 -34 -98 -34h-125q-31 0 -56.5 11.5t-44 31
t-28.5 44.5t-10 51q0 20 5 36t11 27l103 201l-87 195q-13 27 -13 57q0 27 10.5 52t29 44.5t44 31t55.5 11.5h124q42 0 80 -22zM335 686q-17 0 -30 -9.5t-18 -24.5l-31 -93l-31 93q-5 15 -18.5 24.5t-30.5 9.5h-124q-14 0 -23 -10t-9 -22q0 -6 3 -12l108 -244l-127 -246
q-3 -6 -3 -14q0 -12 9 -21.5t23 -9.5h125q32 0 46 29l52 114l52 -114q14 -29 46 -29h126q13 0 22 9.5t9 21.5q0 8 -3 14l-128 246l109 244q2 4 2 11q0 13 -8.5 23t-22.5 10h-125z" />
    <glyph glyph-name="Y" unicode="Y" horiz-adv-x="580" 
d="M242 761q42 33 95 33h105q30 0 55.5 -11.5t43.5 -31t28.5 -44t10.5 -51.5q-1 -11 -2.5 -24t-6.5 -27l-116 -315v-132q0 -33 -12.5 -62t-34 -50t-50 -33.5t-60.5 -12.5h-126q-33 0 -61.5 12.5t-49.5 34t-33 50t-12 61.5v133l-114 317q-4 11 -6.5 23t-2.5 25q0 28 10.5 53
t29.5 44t44 30t55 11h115q53 0 95 -33zM122 158q0 -22 14.5 -36.5t35.5 -14.5h126q21 0 36 14.5t15 36.5v151l122 336q3 4 3 11q0 12 -9 21.5t-23 9.5h-105q-17 0 -31 -11t-18 -29l-48 -221l-44 221q-4 17 -17.5 28.5t-31.5 11.5h-115q-14 0 -23 -9t-9 -22q0 -3 2 -11
l120 -336v-151z" />
    <glyph glyph-name="Z" unicode="Z" horiz-adv-x="515" 
d="M-28 434q-30 21 -47.5 55t-17.5 73v74q0 32 12 60.5t33.5 50t50 34t61.5 12.5h256q39 0 74 -15t60.5 -40.5t40.5 -60t15 -73.5v-25q0 -22 -2 -39t-5 -29q-3 -9 -21 -41.5t-50 -86.5q38 -20 60.5 -56.5t22.5 -81.5v-87q0 -33 -12 -61.5t-33.5 -50t-50 -34t-61.5 -12.5
h-277q-39 0 -73.5 15t-60 41t-40 60t-14.5 73v29q0 30 1 48t3.5 30t6 21.5t9.5 21.5zM403 604q0 34 -24 58t-59 24h-256q-21 0 -36 -15t-15 -35v-74q0 -21 15 -36t36 -15h82l-137 -219q-3 -7 -5 -12t-3 -11t-1 -15.5v-25.5v-39q0 -34 23.5 -58t57.5 -24h277q21 0 35.5 14.5
t14.5 36.5v87q0 21 -14.5 35.5t-35.5 14.5h-106q40 65 73 117q14 22 27 43.5t23.5 38.5t17.5 28t7 13q2 6 2.5 17.5t0.5 26.5v25z" />
    <glyph glyph-name="bracketleft" unicode="[" horiz-adv-x="334" 
d="M255 222q34 -14 56.5 -44.5t22.5 -72.5v-42q0 -26 -10 -49t-27 -40t-40 -27t-48 -10h-159q-33 0 -61.5 12.5t-50 34.5t-33.5 50.5t-12 60.5v565q0 32 12 60.5t33.5 50t50 34t61.5 12.5h159q25 0 48 -10t40 -27t27 -40t10 -49v-44q0 -41 -22.5 -71.5t-56.5 -44.5v-309z
M0 660v-565q0 -21 14.5 -36t35.5 -15h159q8 0 13.5 5.5t5.5 13.5v42q0 8 -5.5 13.5t-13.5 5.5h-60v504h60q8 0 13.5 5.5t5.5 13.5v44q0 8 -5.5 13.5t-13.5 5.5h-159q-21 0 -35.5 -15t-14.5 -35z" />
    <glyph glyph-name="backslash" unicode="\" horiz-adv-x="395" 
d="M388 159l1.5 -5.5t2.5 -12.5t2 -12.5l1 -5.5q0 -21 -8 -43t-23 -39.5t-37 -29t-50 -11.5h-37q-50 0 -90.5 29.5t-56.5 73.5l-193 531q0 1 -1.5 6.5t-2.5 12t-2 12l-1 5.5q0 25 9.5 47t25.5 39t37.5 27t45.5 10h38q25 0 48 -8t42.5 -22t33.5 -33t22 -40zM96 653
q-5 14 -19 23.5t-28 9.5h-38q-5 0 -8.5 -3.5t-3.5 -9.5q0 -1 0.5 -1.5t0.5 -1.5l193 -529q5 -15 19 -24.5t28 -9.5h37q8 0 10 5.5t2 10.5z" />
    <glyph glyph-name="bracketright" unicode="]" horiz-adv-x="334" 
d="M-27 531q-35 14 -57.5 44.5t-22.5 71.5v44q0 26 10 49t27 40t40 27t49 10h159q33 0 61.5 -12.5t49.5 -34t33 -50t12 -60.5v-565q0 -32 -12 -60.5t-33 -50.5t-49.5 -34.5t-61.5 -12.5h-159q-26 0 -49 10t-40 27t-27 40t-10 49v42q0 42 22.5 72.5t57.5 44.5v309zM228 660
q0 20 -14.5 35t-35.5 15h-159q-8 0 -13.5 -5.5t-5.5 -13.5v-44q0 -8 5.5 -13.5t13.5 -5.5h60v-504h-60q-8 0 -13.5 -5.5t-5.5 -13.5v-42q0 -8 5.5 -13.5t13.5 -5.5h159q21 0 35.5 15t14.5 36v565z" />
    <glyph glyph-name="asciicircum" unicode="^" horiz-adv-x="597" 
d="M98 541h92l53 68l54 -68h94l-102 145q-5 5 -11 9q-5 4 -13.5 7t-20.5 3q-13 0 -21.5 -3t-13.5 -7q-6 -4 -10 -9zM-71 486l181 258q4 7 14 19t26 22.5t39.5 18.5t54.5 8q33 0 56.5 -8.5t39 -19.5t24 -21t11.5 -14l185 -263q6 -8 6 -18q0 -13 -9 -23.5t-23 -10.5h-578
q-14 0 -23 11t-9 24q0 11 5 17z" />
    <glyph glyph-name="underscore" unicode="_" horiz-adv-x="669" 
d="M-107 75q0 28 10.5 53t29 44t44 30t54.5 11h500q29 0 54.5 -11t44 -30t29 -44t10.5 -53v-44q0 -29 -11 -54t-29.5 -43.5t-44 -29.5t-53.5 -11h-500q-29 0 -54 11t-43.5 29.5t-29.5 43.5t-11 54v44zM0 31q0 -13 9 -22t22 -9h500q13 0 22 9t9 22v44q0 13 -9 22.5t-22 9.5
h-500q-13 0 -22 -9.5t-9 -22.5v-44z" />
    <glyph glyph-name="grave" unicode="`" horiz-adv-x="288" 
d="M108 510q-29 0 -52 11t-36 21l-87 77q-18 16 -29 40t-11 50q0 25 10 48t27 40t40 27t49 10h94q34 0 63.5 -16.5t46.5 -44.5l46 -74q19 -30 19 -66q0 -26 -10 -48t-26.5 -39t-39.5 -26.5t-48 -9.5h-56zM164 616q8 0 12.5 5.5t4.5 11.5q0 7 -3 11l-46 72q-6 11 -19 11h-94
q-8 0 -13.5 -5t-5.5 -13q0 -7 5 -12l83 -72q10 -9 20 -9h56z" />
    <glyph glyph-name="a" unicode="a" 
d="M258 18q-20 -8 -43.5 -13t-50.5 -5q-48 0 -96.5 15t-87 45t-63 76.5t-24.5 109.5q0 81 38 137q-6 18 -6 40v75q0 39 15 73.5t41 60t60.5 40.5t73.5 15h206q72 0 123.5 -22t84 -60t48 -89.5t15.5 -109.5v-248q0 -33 -12 -61.5t-33.5 -50t-50 -34t-61.5 -12.5h-105
q-20 0 -38 5t-34 13zM238 431q28 0 34 -10t7 -38v-6q-36 6 -87 6q-38 0 -72.5 -4.5t-61 -19t-42.5 -41.5t-16 -72q0 -68 44.5 -102.5t113.5 -36.5h6q40 0 63 15t35 33q14 21 18 48v-45q0 -22 15 -36.5t35 -14.5h105q21 0 35.5 14.5t14.5 36.5v248q0 83 -36.5 128.5
t-127.5 45.5h-206q-34 0 -58.5 -24t-24.5 -58v-75q0 -11 7 -18t18 -7h103q9 0 16.5 7t7.5 18v8h54zM279 245h-47q-12 0 -21.5 1t-16.5 5t-11 12.5t-4 22.5q0 31 18 37t53 6q4 0 11 -0.5t18 -1.5v-82z" />
    <glyph glyph-name="b" unicode="b" horiz-adv-x="588" 
d="M241 23q-35 -23 -81 -23h-109q-32 0 -61 12t-50.5 33.5t-34 50.5t-12.5 62v480q0 33 12.5 62t34.5 50t50.5 33t60.5 12h109q52 0 93 -30.5t57 -78.5q8 1 14.5 1h14.5q50 0 95 -19t79.5 -52t54.5 -77t20 -94v-203q0 -50 -19 -94t-52 -77t-77 -52t-94 -19q-54 0 -105 23z
M211 388q0 16 11 27t27 11q17 0 28.5 -11t11.5 -27v-91q0 -17 -11.5 -28t-27.5 -11q-17 0 -28 11t-11 28v91zM0 158q0 -22 15 -36.5t36 -14.5h109q21 0 36 14.5t15 36.5v40q14 -40 48.5 -65.5t79.5 -25.5h7q28 0 53 10.5t43.5 29t29 43t10.5 52.5v203q0 28 -10.5 53
t-29 43.5t-43.5 29t-53 10.5h-7q-45 0 -79.5 -26t-48.5 -66v149q0 21 -15 35.5t-36 14.5h-109q-21 0 -36 -14.5t-15 -35.5v-480z" />
    <glyph glyph-name="c" unicode="c" horiz-adv-x="518" 
d="M502 344q16 -29 16 -62v-13q0 -58 -23 -107.5t-61.5 -86t-88.5 -57t-104 -20.5h-25q-86 0 -147.5 29t-100.5 77.5t-57 112t-18 132.5q0 78 22.5 141.5t65 107.5t103 68t135.5 24h23q54 0 103.5 -20.5t88 -57t61.5 -86t23 -107.5v-13q0 -33 -16 -62zM219 584
q-104 0 -161.5 -59t-57.5 -176q0 -55 12.5 -100t38.5 -77.5t67 -50t98 -17.5h25q34 0 65 13t54 35.5t37 52.5t14 64v13q0 10 -7 17t-17 7h-106q-12 0 -16 -8.5t-8 -19t-11 -19t-23 -8.5q-17 0 -28 11t-11 27v112q0 17 11 27.5t26 10.5q17 0 24 -9t11 -19.5t8 -19t16 -8.5
h107q10 0 17 6.5t7 16.5v13q0 34 -14 64t-37 52.5t-54 35.5t-65 13h-22z" />
    <glyph glyph-name="d" unicode="d" horiz-adv-x="588" 
d="M171 685q15 49 57 79.5t94 30.5h109q32 0 60.5 -12t50 -33.5t34 -50t12.5 -61.5v-480q0 -33 -12.5 -62t-34 -50t-50 -33.5t-60.5 -12.5h-109q-44 0 -80 21q-45 -21 -100 -21q-50 0 -95.5 19t-79.5 52t-54 77t-20 94v203q0 50 19 94t52 77t77 52t94 19h18t18 -2zM270 297
q0 -17 -10.5 -28t-27.5 -11t-28 11t-11 28v91q0 16 11 27t28 11t27.5 -11t10.5 -27v-91zM481 638q0 21 -15 35.5t-35 14.5h-109q-22 0 -37 -14.5t-15 -35.5v-149q-14 40 -48.5 66t-79.5 26h-7q-28 0 -52.5 -10.5t-43 -29t-29 -43.5t-10.5 -53v-203q0 -28 10.5 -52.5t29 -43
t43 -29t52.5 -10.5h7q45 0 79.5 25.5t48.5 65.5v-40q0 -22 15 -36.5t37 -14.5h109q20 0 35 14.5t15 36.5v480z" />
    <glyph glyph-name="e" unicode="e" 
d="M576 332q15 -29 15 -61q0 -65 -26.5 -115.5t-69 -85t-94.5 -52.5t-103 -18h-71q-170 0 -252 87t-82 261q0 164 86 253t261 89h81q55 0 104.5 -20t86.5 -56t58.5 -86t21.5 -111q0 -24 -4 -45t-12 -40zM298 107q36 0 69.5 12t60 33.5t42 52t15.5 66.5q0 11 -7 18.5t-17 7.5
h-103q-11 0 -17.5 -7t-6.5 -17v-15h-72q-23 0 -36.5 10t-13.5 41v5q22 -2 46.5 -3.5t51.5 -1.5q32 0 63.5 3t56 14t40 32.5t15.5 58.5q0 38 -13 69t-35 52.5t-52 33.5t-64 12h-81q-65 0 -110.5 -14t-74.5 -43.5t-42 -74t-13 -104.5q0 -66 13 -112t40.5 -74.5t70.5 -41.5
t103 -13h71zM212 374q0 29 10.5 50t46.5 21q29 0 40.5 -12t11.5 -31t-7.5 -27.5t-31.5 -8.5q-48 0 -70 3v5z" />
    <glyph glyph-name="f" unicode="f" horiz-adv-x="435" 
d="M-74 531q3 49 14 96t40 84.5t79.5 60.5t132.5 23h111q27 0 51 -10.5t42 -28.5t28.5 -42t10.5 -51v-78q0 -38 -22 -73q22 -33 22 -72v-114q0 -43 -24 -76.5t-62 -47.5v-44q0 -33 -12.5 -62t-34 -50.5t-50.5 -33.5t-61 -12h-110q-33 0 -61.5 12.5t-49.5 34t-33 50.5t-12 61
v85q-15 17 -23.5 38t-8.5 45v122q0 23 9 44.5t24 38.5zM329 663q0 11 -7.5 18t-18.5 7h-111q-55 0 -87 -13.5t-48 -39.5t-20.5 -64t-4.5 -88v-18h-14q-8 0 -13 -5t-5 -12v-122q0 -11 7 -18.5t18 -7.5h7v-142q0 -22 14.5 -36.5t34.5 -14.5h110q21 0 36 14.5t15 36.5v142h61
q11 0 18.5 7.5t7.5 18.5v114q0 11 -7.5 18t-18.5 7h-61v37q0 15 0.5 26t5 18t14 10.5t27.5 3.5h14q11 0 18.5 7t7.5 18v78z" />
    <glyph glyph-name="g" unicode="g" horiz-adv-x="591" 
d="M258 670q34 17 71 17h105q32 0 60.5 -12t50 -33t34 -50t12.5 -62v-229q0 -48 -4 -94.5t-16 -88.5t-34 -77.5t-58 -62t-88 -41t-124 -14.5h-88q-39 0 -86 9.5t-88 35.5t-69 71t-28 116q0 19 5 35.5t13 30.5q-16 36 -24.5 83.5t-8.5 108.5q0 64 17.5 114.5t52 86t86 54.5
t119.5 19q50 0 90 -17zM485 530q0 21 -15 35.5t-36 14.5h-105q-21 0 -36 -14.5t-15 -35.5v-46q-4 27 -17 48q-11 18 -33 33.5t-60 15.5q-90 0 -129 -41.5t-39 -126.5q0 -72 11 -114.5t33 -65.5t55.5 -30t78.5 -7q52 0 100 12v-9q0 -34 -12 -43.5t-45 -9.5h-55v9
q0 10 -6.5 16.5t-16.5 6.5h-103q-10 0 -17.5 -6.5t-7.5 -16.5q0 -35 13 -59t35.5 -38.5t52.5 -21t64 -6.5h87q72 0 115 17.5t66 52t30 85t7 116.5v229zM278 295q0 -15 -11 -26t-27 -11q-17 0 -28 11t-11 26v93q0 15 11 26t27 11q17 0 28 -11t11 -26v-93z" />
    <glyph glyph-name="h" unicode="h" horiz-adv-x="579" 
d="M237 19q-36 -19 -76 -19h-110q-32 0 -61 12t-50.5 33.5t-34 50.5t-12.5 62v480q0 33 12.5 62t34.5 50t50.5 33t60.5 12h110q52 0 92.5 -30t55.5 -78q59 0 101.5 -13.5t72.5 -36t49 -52.5t29.5 -63t14 -67t3.5 -64v-233q0 -33 -12.5 -62t-34 -50.5t-50 -33.5t-60.5 -12
h-110q-40 0 -75 19zM211 638q0 21 -14.5 35.5t-35.5 14.5h-110q-21 0 -36 -14.5t-15 -35.5v-480q0 -22 15 -36.5t36 -14.5h110q21 0 35.5 14.5t14.5 36.5v253q0 11 7.5 18.5t17.5 7.5q11 0 18.5 -7.5t7.5 -18.5v-253q0 -22 15 -36.5t35 -14.5h110q21 0 36 14.5t15 36.5v233
q0 39 -6 73.5t-22 60.5t-45 41t-75 15q-39 0 -62 -15.5t-34 -33.5q-14 -21 -18 -48v154z" />
    <glyph glyph-name="i" unicode="i" horiz-adv-x="317" 
d="M-107 679q0 34 13 62.5t35 49.5t50.5 32.5t59.5 11.5h110q31 0 59.5 -12t50 -33t34 -49.5t12.5 -61.5v-12q0 -38 -15 -69q15 -32 15 -69v-371q0 -33 -12.5 -62t-34 -50.5t-50 -33.5t-60.5 -12h-109q-32 0 -60.5 12t-50 33t-34.5 50t-13 63v371q0 35 16 69q-16 34 -16 69
v12zM0 667q0 -21 15.5 -36t35.5 -15h110q20 0 35 15t15 36v12q0 20 -15 34.5t-35 14.5h-110q-20 0 -35.5 -14.5t-15.5 -34.5v-12zM0 158q0 -22 15.5 -36.5t35.5 -14.5h109q21 0 36 14.5t15 36.5v371q0 21 -15 36t-36 15h-109q-20 0 -35.5 -15t-15.5 -36v-371z" />
    <glyph glyph-name="j" unicode="j" horiz-adv-x="369" 
d="M-56 679q0 34 13 62.5t35 49.5t50.5 32.5t59.5 11.5h110q31 0 59.5 -12t50.5 -33t34.5 -49.5t12.5 -61.5v-12q0 -35 -16 -69q16 -34 16 -68v-418q0 -39 -15 -73.5t-40.5 -60t-60 -40.5t-73.5 -15h-156q-28 0 -52 10.5t-41.5 28.5t-27.5 42t-10 50v103q0 32 14 59t37 44
v270q0 34 16 68q-16 34 -16 69v12zM51 667q0 -21 15.5 -36t35.5 -15h110q20 0 35 15t15 36v12q0 20 -15 34.5t-35 14.5h-110q-20 0 -35.5 -14.5t-15.5 -34.5v-12zM24 181q-10 0 -17 -7t-7 -17v-103q0 -10 7 -17t17 -7h156q34 0 58 24t24 58v418q0 20 -15 35t-36 15h-109
q-20 0 -35.5 -15t-15.5 -35v-349h-27z" />
    <glyph glyph-name="k" unicode="k" horiz-adv-x="571" 
d="M231 18q-17 -8 -35 -13t-38 -5h-107q-32 0 -61 12t-50.5 33.5t-34 50.5t-12.5 62v480q0 33 12.5 62t34.5 50t50.5 33t60.5 12h107q52 0 93 -30t57 -78h125q30 0 55.5 -11.5t44 -31t28.5 -44.5t10 -52q-1 -9 -2 -17.5t-3 -17.5l-47 -163l46 -174q1 -7 3 -13q1 -5 2 -12
t1 -13q0 -28 -10.5 -53t-29.5 -44t-44 -30t-55 -11h-128q-20 0 -38 5t-35 13zM0 158q0 -22 15 -36.5t36 -14.5h107q21 0 36 14.5t15 36.5v164l46 -178q5 -17 18 -27t31 -10h128q14 0 23 8t9 21q0 1 -0.5 2t-0.5 3q-1 2 -1 4l-53 206l54 189q1 3 1 8q0 13 -8.5 22.5
t-22.5 9.5h-129q-17 0 -30.5 -10t-18.5 -27l-46 -163v258q0 21 -15 35.5t-36 14.5h-107q-21 0 -36 -14.5t-15 -35.5v-480z" />
    <glyph glyph-name="l" unicode="l" horiz-adv-x="349" 
d="M317 316q15 -17 23.5 -37.5t8.5 -44.5v-104q0 -29 -11 -52.5t-29 -41t-42 -27t-49 -9.5h-137q-39 0 -73.5 14.5t-60 40t-40 59.5t-14.5 73v451q0 34 13 62.5t35 49.5t50.5 33t59.5 12h109q32 0 60.5 -12t50 -33t34 -50t12.5 -62v-322zM211 638q0 21 -15 35.5t-36 14.5
h-109q-20 0 -35.5 -14.5t-15.5 -35.5v-451q0 -33 23.5 -56.5t57.5 -23.5h137q11 0 18 6.5t7 16.5v104q0 10 -7 17t-18 7h-7v380z" />
    <glyph glyph-name="m" unicode="m" horiz-adv-x="779" 
d="M228 18q-17 -8 -35 -13t-38 -5h-105q-33 0 -61.5 12.5t-50 34t-33.5 50t-12 61.5v372q0 32 12.5 60.5t33.5 50t49.5 34t61.5 12.5h100q39 0 71 -17q19 8 39.5 12.5t45.5 4.5q36 0 64.5 -8t51.5 -21q22 13 51 21t65 8q54 0 92.5 -15.5t65.5 -40.5t43 -57t25 -65.5t12 -66
t3 -57.5v-227q0 -33 -12.5 -62t-34 -50.5t-50 -33.5t-60.5 -12h-105q-20 0 -37.5 5t-34.5 13q-17 -8 -35 -13t-38 -5h-70q-20 0 -38.5 5t-35.5 13zM50 580q-21 0 -35.5 -14.5t-14.5 -35.5v-372q0 -22 14.5 -36.5t35.5 -14.5h105q21 0 36 14.5t15 36.5v254q0 9 6.5 15.5
t15.5 6.5t15.5 -6.5t6.5 -15.5v-254q0 -22 15 -36.5t37 -14.5h70q21 0 36 14.5t15 36.5v254q0 9 6.5 15.5t15.5 6.5t15.5 -6.5t6.5 -15.5v-254q0 -22 15 -36.5t35 -14.5h105q21 0 36 14.5t15 36.5v227q0 36 -4 70.5t-18 62.5t-41 45t-72 17q-33 0 -54.5 -11t-34.5 -26
t-18.5 -30.5t-6.5 -23.5q-2 9 -8 24t-19 30t-34 26t-54 11q-35 0 -56.5 -15t-32.5 -33q-13 -21 -19 -48v46q0 21 -15 35.5t-36 14.5h-100z" />
    <glyph glyph-name="n" unicode="n" horiz-adv-x="579" 
d="M237 19q-35 -19 -76 -19h-110q-32 0 -61 12t-50.5 33.5t-34 50.5t-12.5 62v372q0 33 12.5 62t34.5 50t50.5 33t60.5 12h110q36 0 70 -17q36 18 87 18q84 0 135 -28t79 -71.5t37.5 -96t9.5 -101.5v-233q0 -33 -12.5 -62t-34 -50.5t-50 -33.5t-60.5 -12h-109q-41 0 -76 19z
M51 580q-21 0 -36 -14.5t-15 -35.5v-372q0 -22 15 -36.5t36 -14.5h110q21 0 36 14.5t15 36.5v253q0 11 7 18.5t18 7.5t18.5 -7.5t7.5 -18.5v-253q0 -22 14.5 -36.5t35.5 -14.5h109q21 0 36 14.5t15 36.5v233q0 43 -6 78t-23 60t-47 39t-79 14q-36 0 -57 -15.5t-32 -33.5
q-13 -21 -17 -48v45q0 21 -15 35.5t-36 14.5h-110z" />
    <glyph glyph-name="o" unicode="o" horiz-adv-x="619" 
d="M255 698q82 0 149 -18t115 -59t74 -107.5t26 -164.5q0 -97 -25 -165.5t-72.5 -111.5t-114.5 -62.5t-151 -19.5q-81 0 -147.5 19t-114.5 62t-74.5 111.5t-26.5 166.5q0 99 27.5 165.5t75.5 107.5t114.5 58.5t144.5 17.5zM0 349q0 -72 16.5 -120.5t49 -78t80 -41.5
t110.5 -12q65 0 113.5 12.5t80 41.5t47 77.5t15.5 120.5q0 71 -15.5 117.5t-47.5 74.5t-80 39t-114 11q-62 0 -109.5 -11t-80 -39t-49 -74.5t-16.5 -117.5zM186 369q-5 9 -5 22q0 20 13.5 34.5t34.5 14.5q11 0 22.5 -6t17.5 -17l57 -98q6 -11 6 -23q0 -18 -14.5 -33.5
t-34.5 -15.5q-26 0 -40 25z" />
    <glyph glyph-name="p" unicode="p" horiz-adv-x="588" 
d="M297 4q-20 -36 -56 -58.5t-81 -22.5h-110q-33 0 -61.5 12.5t-49.5 34t-33.5 50.5t-12.5 61v449q0 32 12.5 60.5t34 50t50 34t60.5 12.5h110q41 0 79 -22q47 22 100 22q50 0 95 -19t79.5 -52t54.5 -77t20 -94v-204q0 -50 -19 -94t-52 -77t-77 -52t-94 -19q-12 0 -24 1.5
t-25 3.5zM211 391q0 15 10.5 26t27.5 11t28 -11t11 -26v-92q0 -17 -11 -28t-28 -11t-27.5 11t-10.5 28v92zM0 81q0 -21 15 -36t35 -15h110q21 0 36 15t15 36v117q14 -41 48.5 -66.5t79.5 -25.5h7q28 0 53 10.5t43.5 29t29 43t10.5 52.5v204q0 28 -10.5 52.5t-29 43t-43.5 29
t-53 10.5h-7q-45 0 -79.5 -25.5t-48.5 -66.5v42q0 20 -15 35t-36 15h-110q-20 0 -35 -15t-15 -35v-449z" />
    <glyph glyph-name="q" unicode="q" horiz-adv-x="588" 
d="M240 664q37 23 82 23h109q33 0 61.5 -12.5t50 -34t33.5 -50t12 -60.5v-449q0 -32 -12 -60.5t-33.5 -50.5t-50 -34.5t-61.5 -12.5h-109q-45 0 -81 22t-56 58q-11 -2 -21 -3t-21 -1q-50 0 -95.5 19t-80 52t-54.5 77t-20 94v204q0 50 19 94t52 77t77 52t94 19q56 0 105 -23z
M271 299q0 -17 -11 -28t-28 -11q-16 0 -27.5 11t-11.5 28v92q0 15 11.5 26t27.5 11q17 0 28 -11t11 -26v-92zM481 530q0 20 -14.5 35t-35.5 15h-109q-21 0 -36 -15t-15 -35v-42q-14 41 -48.5 66.5t-79.5 25.5h-8q-28 0 -52.5 -10.5t-43 -29t-29 -43t-10.5 -52.5v-204
q0 -28 10.5 -52.5t29 -43t43 -29t52.5 -10.5h8q45 0 79.5 25.5t48.5 66.5v-117q0 -21 15 -36t36 -15h109q21 0 35.5 15t14.5 36v449z" />
    <glyph glyph-name="r" unicode="r" horiz-adv-x="529" 
d="M208 682q47 28 119 28h13q39 0 73.5 -15t60 -40.5t40.5 -60t15 -73.5v-161q0 -29 -11 -53t-29 -41.5t-42 -27t-49 -9.5h-81v-71q0 -33 -12.5 -62t-34 -50.5t-50 -33.5t-60.5 -12h-109q-32 0 -60.5 12t-50 33t-34.5 50t-13 63v372q0 34 13 62.5t35 49.5t50.5 33t59.5 12
h124q16 0 33 -5zM272 360q0 -11 6.5 -17.5t16.5 -6.5h103q10 0 17.5 6.5t7.5 17.5v161q0 35 -24 59t-59 24h-13q-52 0 -79 -22.5t-42 -73.5v41q0 13 -9 22t-22 9h-124q-20 0 -35.5 -14.5t-15.5 -35.5v-372q0 -22 15.5 -36.5t35.5 -14.5h109q21 0 36 14.5t15 36.5v191
q0 15 1 27t5.5 20.5t15 12.5t29.5 4h10v-53z" />
    <glyph glyph-name="s" unicode="s" horiz-adv-x="565" 
d="M-91 294q-16 30 -16 69t2.5 79t13 77t32 70t58 57.5t92 38.5t134.5 14h11q103 0 166.5 -17.5t99 -52t47.5 -85.5t12 -118q0 -23 -7 -43q11 -28 11 -61q0 -40 -2.5 -80.5t-13.5 -77t-32 -68.5t-57.5 -55t-91.5 -36.5t-133 -13.5q-101 0 -165.5 14.5t-101.5 46t-51 81.5
t-14 122q0 18 6 39zM0 363q0 -18 10 -29t41 -11h198q8 0 14 -6t6 -14v-53q0 -16 -11 -26.5t-28 -10.5q-16 0 -27 10.5t-11 26.5v5q0 14 -9 23t-22 9h-122q-12 0 -20.5 -9.5t-8.5 -22.5q0 -44 3.5 -74t24.5 -48.5t67 -26.5t130 -8t129.5 15.5t66.5 45t24.5 71t3.5 92.5
q0 18 -10.5 29.5t-40.5 11.5h-196q-8 0 -14 5.5t-6 13.5v53q0 16 11 27t28 11q16 0 27 -11t11 -27v-6q0 -14 9 -23t22 -9h125q11 0 20 9t9 20q0 44 -3.5 75.5t-24 51.5t-64.5 29.5t-126 9.5h-11q-84 0 -130 -17t-67 -47t-24.5 -72t-3.5 -93z" />
    <glyph glyph-name="t" unicode="t" horiz-adv-x="475" 
d="M395 358q38 -16 59 -51t21 -72q0 -61 -22 -105t-58 -73t-81.5 -43t-91.5 -14h-61q-51 0 -95 16.5t-76.5 50t-51.5 86t-19 124.5v86q-12 17 -19 36.5t-7 41.5v114q0 45 27 80q0 33 13 62.5t35 51t50.5 34t59.5 12.5h109q27 0 51.5 -8.5t44.5 -24t34.5 -37t21.5 -46.5
q37 -15 61 -48.5t24 -75.5v-114q0 -23 -7.5 -44.5t-21.5 -38.5zM260 229q-7 1 -11 7q-5 5 -8 16t-3 31v132h54q11 0 18 7.5t7 18.5v114q0 11 -7 18t-18 7h-54v58q0 21 -15 35.5t-36 14.5h-109q-21 0 -36 -14.5t-15 -35.5v-57q-12 0 -19.5 -7.5t-7.5 -18.5v-114
q0 -11 7.5 -18.5t18.5 -7.5v-138q0 -40 6 -71.5t21.5 -53.5t41.5 -33.5t66 -11.5h61q64 0 105.5 32t41.5 96q0 11 -7 18.5t-17 7.5h-62q-10 0 -16.5 -7t-6.5 -17v-8z" />
    <glyph glyph-name="u" unicode="u" horiz-adv-x="578" 
d="M235 667q17 9 36 14.5t40 5.5h110q33 0 62 -12.5t50 -34.5t33 -50.5t12 -60.5v-371q0 -33 -12 -61.5t-33.5 -50t-50 -34t-61.5 -12.5h-110q-40 0 -72 17q-19 -8 -41.5 -12.5t-48.5 -4.5q-79 0 -128.5 28t-78 71.5t-39 96t-10.5 100.5v233q0 31 12 60t33 50.5t49.5 34.5
t62.5 13h109q20 0 39.5 -5.5t36.5 -14.5zM421 107q21 0 35.5 14.5t14.5 36.5v371q0 21 -14.5 36t-35.5 15h-110q-21 0 -36 -15t-15 -36v-253q0 -11 -7 -18t-18 -7t-18 7t-7 18v253q0 21 -15 36t-36 15h-109q-21 0 -35.5 -15t-14.5 -36v-233q0 -42 7 -76.5t24 -59.5t45.5 -39
t72.5 -14q38 0 60.5 15t33.5 33q13 21 17 48v-45q0 -22 15 -36.5t36 -14.5h110z" />
    <glyph glyph-name="v" unicode="v" horiz-adv-x="639" 
d="M267 656q18 14 41 22.5t52 8.5h140q16 0 39.5 -6.5t45.5 -21.5t38 -40.5t16 -63.5v-14l-3 -10q-6 -35 -18.5 -88t-27.5 -111.5t-31.5 -117.5t-31.5 -107q-9 -27 -25.5 -47.5t-37 -33.5t-43 -19.5t-44.5 -6.5h-225q-20 0 -43 6t-44 19t-38 34t-26 51l-14 49
q-34 120 -56.5 210t-34.5 158q-1 5 -2 9q-1 5 -1 15q0 32 13 57.5t33 43t44.5 26.5t48.5 9h141q52 0 94 -31zM532 555q0 11 -10 18t-22 7h-140q-21 0 -34 -14.5t-17 -34.5l-43 -217l-43 225q-4 18 -17.5 29.5t-32.5 11.5h-141q-12 0 -22 -8.5t-10 -20.5v-4
q12 -66 34.5 -153.5t55.5 -205.5l14 -50q5 -15 18 -23t30 -8h225q17 0 30 8t18 24q15 47 31 104.5t30.5 114.5t26.5 108t19 85v4z" />
    <glyph glyph-name="w" unicode="w" horiz-adv-x="795" 
d="M443 664q20 11 41.5 17t41.5 6h131q28 0 53 -10.5t44 -29t30 -44t11 -54.5q0 -52 -7 -109t-19 -115.5t-26.5 -115.5t-29.5 -108q-14 -47 -51.5 -74t-82.5 -27h-138q-25 0 -50 8t-46 25q-23 -18 -49 -25.5t-48 -7.5h-144q-20 0 -41 6.5t-39 19t-32.5 31.5t-21.5 45
q-7 24 -20 74t-25.5 112t-22 131t-9.5 132q0 39 16.5 65.5t39 42t46 22t37.5 6.5h132q44 0 82 -23q37 23 82 23h34q46 0 81 -23zM688 545v5q0 13 -9 21.5t-22 8.5h-131q-18 0 -33.5 -10.5t-17.5 -27.5l-26 -179l-38 177q-4 18 -17.5 29t-31.5 11h-34q-20 0 -33 -10.5
t-17 -29.5l-40 -177l-23 173q-3 20 -17.5 32t-33.5 12h-132q-12 0 -22 -6.5t-10 -17.5q3 -40 9 -84t13 -83.5t13 -71.5t9 -49q7 -38 14.5 -72t15.5 -67q2 -11 10.5 -16.5t19.5 -5.5h144q14 0 27.5 7.5t18.5 23.5l50 165l50 -165q5 -15 18 -23t29 -8h138q19 0 27.5 22.5
t15.5 51.5q17 74 32 145.5t23 135.5z" />
    <glyph glyph-name="x" unicode="x" horiz-adv-x="622" 
d="M258 39q-18 -17 -43 -28t-59 -11h-123q-29 0 -54.5 11t-44.5 30t-30 44t-11 53q0 13 2 23t7 23l88 173l-73 145q-2 4 -4 11q-3 10 -3 35q0 26 10 51t28 44.5t43.5 31.5t56.5 12h115q29 0 52.5 -9.5t42.5 -23.5q41 33 95 33h115q30 0 55.5 -11.5t43.5 -31t28.5 -44.5
t10.5 -52q0 -11 -3 -27t-12 -34l-65 -130l88 -173q2 -5 4 -12q2 -6 3 -14.5t1 -19.5q0 -25 -9.5 -49.5t-27.5 -44t-43.5 -32t-56.5 -12.5h-125q-33 0 -58 11t-44 28zM211 547q-8 15 -19.5 24t-28.5 9h-115q-14 0 -22.5 -9.5t-8.5 -22.5q0 -2 0.5 -5.5t0.5 -6.5l92 -180
l-107 -206q-3 -6 -3 -12q0 -12 9.5 -21.5t23.5 -9.5h123q17 0 28.5 9.5t19.5 24.5l54 108l54 -108q8 -15 19.5 -24.5t28.5 -9.5h125q13 0 21.5 9.5t8.5 21.5q0 2 -0.5 4.5t-0.5 4.5q-1 2 -1 3l-107 206l91 180q2 3 2 6.5v5.5q0 13 -9 22.5t-22 9.5h-115q-34 0 -47 -33
l-48 -95z" />
    <glyph glyph-name="y" unicode="y" horiz-adv-x="618" 
d="M229 672l20 -10q41 25 86 25h143q14 0 38 -6t46.5 -21t39 -40.5t16.5 -64.5q0 -4 -0.5 -9t-1.5 -10t-2 -11q-11 -46 -25 -97t-30.5 -103t-33.5 -103t-34 -96q-13 -35 -31 -71.5t-46.5 -65.5t-71 -47.5t-104.5 -18.5h-128q-31 0 -68.5 8.5t-70.5 29.5t-55.5 57.5
t-22.5 93.5q0 35 19 68q-15 34 -15 77v273q0 32 12 60.5t33.5 50t50 34t61.5 12.5h110q24 0 50 -8zM0 112q0 -45 31 -63.5t79 -18.5h128q35 0 58.5 9t40.5 26t29.5 42t24.5 57q16 43 33 92.5t33 100t29.5 100.5t24.5 94l1 4q0 11 -11 18t-23 7h-143q-17 0 -30.5 -10
t-18.5 -27l-57 -200q-11 0 -12.5 10.5t-1.5 24.5v151q0 21 -15 36t-36 15h-110q-21 0 -35.5 -15t-14.5 -35v-273q0 -40 27 -62.5t69 -22.5q26 0 45.5 12.5t32.5 28.5q15 18 26 42l-35 -103q-5 -14 -19 -14h-126q-11 0 -17.5 -7.5t-6.5 -18.5z" />
    <glyph glyph-name="z" unicode="z" horiz-adv-x="517" 
d="M-30 349q-29 21 -46 54t-17 72v54q0 33 12.5 61.5t33.5 50t49.5 34t61.5 12.5h296q33 0 61.5 -12.5t50 -34t33.5 -50.5t12 -61q0 -16 -1.5 -37t-9.5 -42q-1 -5 -15.5 -30t-42.5 -64q32 -21 50.5 -55.5t18.5 -75.5v-67q0 -33 -12.5 -62t-33.5 -50t-49.5 -33.5t-61.5 -12.5
h-309q-32 0 -60.5 12t-50 33t-34.5 50t-13 63v11q0 20 3.5 42t9.5 40q2 5 20 33t44 65zM411 529q0 21 -15 36t-36 15h-296q-21 0 -36 -15t-15 -36v-54q0 -21 15 -36t36 -15h85v-8q-39 -55 -71 -99q-14 -19 -26.5 -37t-23 -33t-17 -24.5t-6.5 -10.5q-2 -2 -3 -7t-1.5 -13.5
t-0.5 -22.5v-11q0 -22 15.5 -36.5t35.5 -14.5h309q21 0 36 14.5t15 36.5v67q0 21 -15 36t-36 15h-96v8q38 53 69 96l26 36t23 32.5t16.5 24t7.5 11.5t2 7t2 12t1 19v7z" />
    <glyph glyph-name="braceleft" unicode="{" horiz-adv-x="462" 
d="M371 248q91 -42 91 -124v-5q0 -12 -5 -35l-9 -37q-8 -34 -26.5 -56.5t-41 -35.5t-46 -18.5t-42.5 -5.5q-15 0 -28 2.5t-24 4.5q-120 25 -182 88.5t-62 183.5q-45 10 -74 46t-29 84v76q0 24 8 45t22 38t32.5 29t40.5 17q0 118 62 182.5t182 90.5q28 6 49 6q19 0 42 -4.5
t45.5 -17.5t41.5 -35t28 -57l11 -41q5 -18 5 -38q0 -45 -21.5 -75t-69.5 -50q0 -38 -4 -68.5t-18 -59.5q14 -30 18 -61t4 -69zM312 158q-31 11 -40 24.5t-9 36.5q0 11 1 27t1 28q0 38 -15.5 63t-44.5 41q29 16 44.5 40.5t15.5 62.5q0 13 -1 28.5t-1 26.5q0 22 8.5 38
t40.5 24q21 5 32.5 14.5t11.5 18.5q0 4 -2 12l-11 40q-5 20 -19.5 27.5t-34.5 7.5q-12 0 -24 -3q-46 -10 -77 -24t-50 -33.5t-27.5 -44t-8.5 -54.5q0 -4 0.5 -12t0.5 -16.5t0.5 -16.5t0.5 -12q0 -20 -5 -31.5t-15 -17.5t-24 -8t-33 -3q-12 0 -19.5 -7.5t-7.5 -18.5v-76
q0 -11 7 -18.5t18 -7.5q39 0 59 -10.5t20 -50.5q0 -10 -1 -28.5t-1 -29.5q0 -30 8 -54t27 -43t50 -33t77 -24q13 -3 28 -3q17 0 32 7.5t20 27.5l10 39q1 5 1 12q0 13 -10.5 19.5t-32.5 14.5z" />
    <glyph glyph-name="bar" unicode="|" horiz-adv-x="236" 
d="M236 81q0 -33 -12.5 -62t-34 -50t-50 -33.5t-61.5 -12.5h-27q-33 0 -61.5 12.5t-50 33.5t-34 50t-12.5 62v593q0 33 12.5 61.5t34 50t50 34t61.5 12.5h27q33 0 61.5 -12.5t50 -34t34 -50t12.5 -61.5v-593zM129 674q0 21 -14.5 36t-36.5 15h-27q-21 0 -36 -15t-15 -36
v-593q0 -21 15 -36t36 -15h27q22 0 36.5 15t14.5 36v593z" />
    <glyph glyph-name="braceright" unicode="}" horiz-adv-x="462" 
d="M-15 248q0 8 -0.5 14t-0.5 12q0 29 6 55t17 49q-11 23 -17 48.5t-6 54.5q0 5 0.5 11.5t0.5 13.5q-48 20 -70 50t-22 75q0 11 2 20.5t4 17.5l11 41q9 35 27.5 57t41 35t46 17.5t42.5 4.5q21 0 48 -6q121 -26 183 -90.5t62 -182.5q44 -11 73 -46t29 -83v-76
q0 -48 -28.5 -84t-73.5 -46q0 -120 -62 -183.5t-183 -88.5q-1 0 -1.5 -0.5t-1.5 -0.5q-10 -2 -22 -4t-26 -2q-19 0 -42.5 5.5t-46 18.5t-41 35.5t-26.5 56.5l-9 37q-3 11 -4 19.5t-1 15.5v5q0 82 91 124zM36 155q-16 -6 -25.5 -12t-9.5 -19q0 -7 1 -12l10 -39
q5 -20 19.5 -27.5t32.5 -7.5q14 0 28 3q46 10 77 24t50 33t27 43t8 54q0 11 -1 29.5t-1 28.5q0 40 20 50.5t59 10.5q11 0 18 7.5t7 18.5v76q0 11 -7.5 18.5t-19.5 7.5q-19 1 -33.5 3t-24 8t-14.5 17.5t-5 31.5q0 4 0.5 12t0.5 16.5t0.5 16.5t0.5 12q0 60 -36 98t-127 58
q-12 3 -24 3q-20 0 -34.5 -7.5t-19.5 -27.5l-11 -40q-2 -8 -2 -12q0 -13 13.5 -20t24.5 -11l6 -2q31 -11 40 -25.5t9 -36.5q0 -11 -1 -26.5t-1 -28.5q0 -38 15.5 -62.5t44.5 -40.5q-29 -16 -44.5 -41t-15.5 -63q0 -12 1 -28t1 -27q0 -23 -9 -36.5t-40 -24.5z" />
    <glyph glyph-name="asciitilde" unicode="~" horiz-adv-x="436" 
d="M436 421q0 -32 -13 -66t-39 -62.5t-64 -47t-88 -18.5q-23 0 -43 4.5t-35 9.5q-18 6 -33 15q-7 -9 -18 -16q-9 -6 -22.5 -11t-30.5 -5q-46 0 -76 11.5t-48 29t-25.5 38.5t-7.5 39q0 37 15.5 71.5t42.5 61.5t64.5 43.5t81.5 16.5q24 0 45 -3.5t37 -7.5q18 -5 34 -11
q7 6 17 11q8 5 20 8.5t28 3.5h14q54 0 83 -18t43 -40q16 -26 18 -57zM232 333q43 0 63 22.5t34 62.5l-71 14q-8 -14 -15.5 -20.5t-24.5 -6.5q-13 0 -28 3.5t-30.5 8t-31.5 8t-31 3.5q-41 0 -63 -21t-34 -65l70 -14q8 14 16 21t25 7q13 0 27.5 -3.5t30 -8t31.5 -8t32 -3.5z
" />
    <glyph glyph-name="nonbreakingspace" unicode="&#xa0;" horiz-adv-x="497" 
 />
    <glyph glyph-name="exclamdown" unicode="&#xa1;" horiz-adv-x="295" 
d="M247 406q7 -17 10 -35l36 -239l2 -16v-35q0 -32 -12 -60.5t-33.5 -50.5t-50 -34.5t-61.5 -12.5h-88q-33 0 -61.5 12.5t-50 34.5t-33.5 50.5t-12 60.5v34q1 4 1 8q0 8 1 8l35 238q3 21 10 36q-14 17 -21.5 38.5t-7.5 45.5v89q0 28 11 53t29.5 44t43.5 30t54 11h89
q28 0 53 -11t43.5 -30t29.5 -44t11 -53v-89q0 -49 -28 -83zM0 115v-34q0 -21 14.5 -36t35.5 -15h88q21 0 35.5 15t14.5 36v35l-36 238q-2 12 -11 19.5t-20 7.5h-54q-12 0 -20.5 -8t-10.5 -19zM18 489q0 -13 9 -22t22 -9h89q13 0 22 9t9 22v89q0 13 -9 22t-22 9h-89
q-13 0 -22 -9t-9 -22v-89z" />
    <glyph glyph-name="cent" unicode="&#xa2;" horiz-adv-x="441" 
d="M108 777q15 39 48.5 58.5t68.5 19.5h55q22 0 43 -7.5t37.5 -21.5t28 -33.5t15.5 -42.5q17 -19 27 -43t10 -50v-108q0 -55 -36 -93q36 -39 36 -93v-99q0 -32 -12 -60.5t-32.5 -49.5t-48.5 -34t-60 -13q-16 -36 -48 -56t-68 -20h-56q-24 0 -46.5 9t-40.5 25.5t-28.5 39.5
t-10.5 52q0 5 0.5 11.5t2.5 15.5q-56 51 -78 120.5t-22 149.5q0 57 12.5 108.5t39 93.5t67 73.5t96.5 47.5zM280 749h-55q-16 0 -19 -16l-11 -49q-51 -3 -88 -20.5t-60.5 -47.5t-35 -71t-11.5 -91q0 -84 25 -137t85 -85l-13 -71q-1 -2 -1 -4q0 -8 6 -13.5t14 -5.5h56
q16 0 19 15l10 60h83q21 0 35.5 15t14.5 36v99q0 13 -9 22t-22 9h-17q-36 0 -60.5 12.5t-24.5 50.5q0 37 24.5 48.5t59.5 11.5h18q13 0 22 9t9 23v108q0 11 -8 19.5t-20 8.5h-17l10 45q0 19 -19 19z" />
    <glyph glyph-name="sterling" unicode="&#xa3;" horiz-adv-x="571" 
d="M484 378q39 -20 63 -57.5t24 -83.5v-79q0 -33 -12.5 -62t-34 -50.5t-50 -33.5t-60.5 -12h-364q-33 0 -61.5 12.5t-50 34t-33.5 50t-12 61.5v27q0 24 7.5 49.5t26.5 48.5q-16 18 -25 41.5t-9 49.5v49q0 37 18.5 68.5t48.5 48.5q9 60 35 108.5t67 83t95.5 53t120.5 18.5
q46 0 95.5 -12.5t90.5 -36.5t68 -60t27 -83q0 -29 -10.5 -55.5t-30.5 -48.5l-40 -44q6 -18 6 -40v-45zM50 107h364q21 0 36 14.5t15 36.5v79q0 21 -15 36t-36 15h-192v55h124q13 0 22 9t9 22v49q0 13 -9 22t-22 9h-124v26q0 32 17.5 52.5t49.5 20.5q13 0 24 -4t21 -8.5
t19.5 -8t20.5 -3.5q19 0 34 16l32 34q12 13 12 32q0 21 -18 37t-45 26.5t-57 16t-54 5.5q-103 0 -159.5 -56.5t-56.5 -159.5v-26h-31q-13 0 -22 -9t-9 -22v-49q0 -13 9 -22t22 -9h31v-46q0 -17 -12 -32l-39 -48q-11 -14 -11 -32v-27q0 -22 14.5 -36.5t35.5 -14.5z" />
    <glyph glyph-name="currency" unicode="&#xa4;" horiz-adv-x="705" 
d="M270 908q0 -10 6.5 -17t17.5 -7q10 0 16.5 6.5t6.5 17.5h-47zM388 908q0 -9 6.5 -16.5t17.5 -7.5q10 0 16 6.5t7 17.5h-47zM319 560q0 14 9.5 23.5t23.5 9.5t23.5 -9.5t9.5 -23.5t-9.5 -23.5t-23.5 -9.5t-23.5 9.5t-9.5 23.5zM319 333q0 14 9.5 23.5t23.5 9.5t23.5 -9.5
t9.5 -23.5t-9.5 -24t-23.5 -10t-23.5 10t-9.5 24zM319 446q0 14 9.5 24t23.5 10t23.5 -10t9.5 -24t-9.5 -23.5t-23.5 -9.5t-23.5 9.5t-9.5 23.5zM154 0q-32 1 -60 13.5t-49 33.5t-33 49.5t-12 60.5v340q0 43 13.5 85t38 78t60 65t80.5 46l-53 82q-4 5 -4 14q0 10 6.5 17.5
t16.5 7.5l51 -14q1 16 8 32q-15 4 -24.5 16t-9.5 28v87q0 20 13 32.5t32 12.5h250q18 0 31 -12.5t13 -32.5v-87q0 -16 -10 -28.5t-24 -15.5q7 -16 8 -32q14 3 25 7q9 2 17 4.5t9 2.5q10 0 16.5 -7.5t6.5 -17.5q0 -9 -4 -14l-53 -81q36 -13 63.5 -31.5t47.5 -40.5t34 -45.5
t23 -46.5q21 -54 24 -114v-337q0 -32 -12 -60t-33 -49.5t-49 -34t-60 -13.5v-15q0 -10 -7 -17t-17 -7h-69q-11 0 -18 7t-7 17v15q-46 2 -81 26q-17 -13 -37.5 -19t-42.5 -7v-15q0 -10 -7 -17t-18 -7h-69q-11 0 -17.5 7t-6.5 17v15zM501 379q19 15 34 29.5t25 31t15 36.5
t5 46q0 39 -15 69.5t-41.5 51.5t-62.5 32t-78 11h-62q-42 0 -77.5 -10.5t-62 -31.5t-41.5 -51.5t-15 -70.5q0 -26 5 -46t15 -36.5t24.5 -31t34.5 -29.5q11 -8 11 -20q0 -7 -2 -10l-23 -34q-11 -14 -29 -14q-10 0 -19 6q-10 6 -18.5 12t-16.5 12v-174q0 -20 15 -35t36 -15
h109q21 0 36 15t15 35q0 15 10 25t24 10t24 -9.5t10 -23.5q0 -22 15 -37t37 -15h110q20 0 35 15t15 35v174q-8 -6 -16.5 -12t-18.5 -12q-9 -6 -20 -6q-17 0 -28 14l-23 34q-2 3 -2 10q0 11 11 20z" />
    <glyph glyph-name="yen" unicode="&#xa5;" horiz-adv-x="580" 
d="M455 173v-15q0 -33 -12.5 -62t-34 -50t-50 -33.5t-60.5 -12.5h-126q-33 0 -61.5 12.5t-49.5 34t-33 50t-12 61.5v16q-26 4 -47.5 16t-37 30t-24.5 41t-9 49v54q0 32 14 60.5t38 48.5l-48 135q-9 24 -9 48q0 28 10.5 53t29.5 44t44 30t55 11h115q53 0 95 -33q42 33 95 33
h105q30 0 55.5 -11.5t43.5 -31t28.5 -44t10.5 -51.5v-6q0 -11 -2.5 -22.5t-6.5 -22.5l-49 -131q26 -20 40 -48.5t14 -61.5v-54q0 -26 -9.5 -49.5t-25.5 -42t-38.5 -30.5t-47.5 -15zM122 158q0 -22 14.5 -36.5t35.5 -14.5h126q21 0 36 14.5t15 36.5v121h90q13 0 22 9t9 22v54
q0 14 -9 23t-22 9h-59l91 249q0 2 1 4q2 4 2 7q0 12 -9 21.5t-23 9.5h-105q-17 0 -31 -11t-18 -29l-48 -221l-44 221q-4 17 -17.5 28.5t-31.5 11.5h-115q-14 0 -23 -9t-9 -22q0 -3 2 -11l89 -249h-56q-13 0 -22 -9t-9 -23v-54q0 -13 9 -22t22 -9h87v-121z" />
    <glyph glyph-name="brokenbar" unicode="&#xa6;" horiz-adv-x="236" 
d="M236 102q0 -33 -12.5 -61.5t-34 -50t-50 -34t-61.5 -12.5h-27q-33 0 -61.5 12.5t-50 34t-34 50t-12.5 61.5v193q0 30 10.5 56.5t28.5 46.5q-18 21 -28.5 47.5t-10.5 56.5v193q0 32 12.5 60.5t34 50t50 34t61.5 12.5h27q33 0 61.5 -12.5t50 -34t34 -50t12.5 -60.5v-193
q0 -30 -10.5 -56.5t-27.5 -47.5q17 -20 27.5 -46.5t10.5 -56.5v-193zM129 295q0 21 -14.5 36t-36.5 15h-27q-21 0 -36 -15t-15 -36v-193q0 -21 15 -36t36 -15h27q22 0 36.5 15t14.5 36v193zM129 695q0 21 -14.5 36t-36.5 15h-27q-21 0 -36 -15t-15 -36v-193q0 -21 15 -36
t36 -15h27q22 0 36.5 15t14.5 36v193z" />
    <glyph glyph-name="section" unicode="&#xa7;" horiz-adv-x="613" 
d="M584 460q13 -21 21 -46t8 -55v-76q0 -68 -16 -115.5t-42.5 -80t-62 -51.5t-74 -28.5t-78 -12.5t-75.5 -3q-58 0 -122 10t-117 38t-88 77.5t-35 128.5q0 37 20 71q-14 20 -22 43.5t-8 53.5v92q0 81 25 137.5t71 91.5t111.5 50.5t145.5 15.5h11q36 0 76.5 -4.5t80 -15.5
t75 -30t63 -48t43.5 -69.5t16 -93.5q0 -45 -27 -80zM186 397q0 30 20.5 50.5t49.5 20.5t49.5 -20.5t20.5 -50.5q0 -29 -20.5 -49t-49.5 -20t-49.5 20t-20.5 49zM237 488q-8 0 -14 6t-6 14v42q0 16 11 27t28 11q16 0 27.5 -11t11.5 -27v-7q0 -14 9 -23t22 -9h149q12 0 21 9
t9 20q0 48 -21.5 78t-56.5 47t-79.5 23t-90.5 6h-11q-68 0 -115 -10.5t-76 -33t-42 -58t-13 -86.5v-92q0 -26 17.5 -44.5t44 -30.5t58 -19t60.5 -10t51.5 -4t30.5 -1h12q9 0 15 -6t6 -14v-45q0 -16 -11.5 -27t-28.5 -11q-16 0 -27 11t-11 27v6q0 13 -9 22t-22 9h-147
q-12 0 -20.5 -9.5t-8.5 -21.5q0 -45 21 -73.5t56.5 -45t81.5 -23t96 -6.5q52 0 96.5 5.5t76.5 24.5t50 55.5t18 99.5v76q0 24 -11.5 42t-30.5 31.5t-43.5 23t-49.5 15.5q-59 14 -134 17z" />
    <glyph glyph-name="dieresis" unicode="&#xa8;" horiz-adv-x="516" 
d="M273 825h85q32 0 60.5 -12t50.5 -33t34.5 -50t12.5 -62t-12.5 -61.5t-34 -49.5t-50 -33.5t-61.5 -12.5h-85q-19 0 -36 4t-33 11q-15 -7 -32 -11t-36 -4h-86q-33 0 -61.5 12.5t-50 34t-33.5 50t-12 60.5q0 33 12.5 61.5t33.5 49.5t49.5 33.5t61.5 12.5h86q19 0 36 -4
t32 -11q16 7 33.5 11t35.5 4zM223 668q0 -21 14.5 -36t35.5 -15h85q21 0 36 15t15 36t-15 36t-36 15h-85q-21 0 -35.5 -15t-14.5 -36zM0 668q0 -21 14.5 -36t35.5 -15h86q21 0 35.5 15t14.5 36t-14.5 36t-35.5 15h-86q-21 0 -35.5 -15t-14.5 -36z" />
    <glyph glyph-name="copyright" unicode="&#xa9;" horiz-adv-x="706" 
d="M299 803q84 0 158 -32t129.5 -87.5t87.5 -129.5t32 -158q0 -85 -32 -159t-87.5 -129t-129.5 -86.5t-158 -31.5t-158 32t-129 87t-87 129t-32 158t31.5 158t86.5 129.5t129 87.5t159 32zM301 563q-64 0 -99.5 -43.5t-35.5 -123.5q0 -38 7.5 -69.5t24 -54.5t41.5 -36
t61 -13h14q21 0 40 9t34 24t23.5 35.5t8.5 43.5v10q0 6 -4.5 10.5t-10.5 4.5h-65q-8 0 -11 -6t-5 -12.5t-6.5 -12.5t-14.5 -6q-11 0 -17.5 7.5t-6.5 18.5v89q0 11 6.5 18.5t17.5 7.5q10 0 14.5 -6t7 -13.5t5 -13.5t9.5 -6h66q6 0 10.5 5t4.5 11v10q0 23 -8.5 43.5
t-23.5 35.5t-34 24t-40 9h-13zM299 630q48 0 91 -18.5t75 -50t50.5 -74.5t18.5 -91q0 -49 -18.5 -91.5t-50.5 -74.5t-75 -50.5t-91 -18.5q-49 0 -91.5 18.5t-74.5 50.5t-50.5 74.5t-18.5 91.5q0 48 18.5 91t50.5 74.5t74.5 50t91.5 18.5zM0 396q0 -62 23.5 -116.5t64 -95
t95 -64t116.5 -23.5t117 23.5t95.5 64t64 95t23.5 116.5t-23.5 117t-64 95.5t-95.5 64t-117 23.5t-116.5 -23.5t-95 -64t-64 -95.5t-23.5 -117z" />
    <glyph glyph-name="ordfeminine" unicode="&#xaa;" horiz-adv-x="329" 
d="M-34 373q-32 23 -52.5 59t-20.5 86q0 24 4 43.5t12 36.5q-1 4 -1 10v39q0 28 10.5 54.5t29.5 47.5t45.5 33.5t59.5 12.5h94q51 0 86 -17.5t56 -45.5t30.5 -63t9.5 -69v-127q0 -34 -17.5 -67t-51.5 -51q-2 -24 -12.5 -48t-29 -43.5t-45 -32t-59.5 -12.5q-37 0 -65 14.5
t-46.5 37t-27.5 49.5t-9 53zM110 612q12 0 15 -5t3 -19h-23q-20 0 -38.5 -1t-33.5 -8t-24 -21t-9 -40q0 -35 20.5 -53t52.5 -18q19 0 30 7.5t17 17.5q7 11 9 25v-24q0 -11 6.5 -18.5t16.5 -7.5h48q9 0 16 7.5t7 18.5v127q0 42 -17 65t-59 23h-94q-15 0 -26.5 -12t-11.5 -29
v-39q0 -12 12 -12h46q11 0 11 12v4h26zM128 517h-21q-11 0 -18 3.5t-7 17.5q0 16 8 19t25 3q2 0 5 -0.5t8 -0.5v-42zM114 414q-18 0 -29.5 -13.5t-11.5 -30.5t11.5 -30.5t29.5 -13.5t29.5 13.5t11.5 30.5q0 18 -11.5 31t-29.5 13z" />
    <glyph glyph-name="guillemotleft" unicode="&#xab;" horiz-adv-x="518" 
d="M272 657q32 13 61 13h67q26 0 47.5 -10t37.5 -26.5t24.5 -38t8.5 -44.5q0 -11 -1 -20t-6 -20l-3 -9l-92 -159l92 -159l3 -11q5 -11 6 -21.5t1 -17.5q0 -21 -8 -42.5t-23 -38.5t-37 -27.5t-50 -10.5h-67q-32 0 -60 12q-23 -12 -53 -12h-66q-24 0 -46.5 7.5t-41.5 19.5
t-34 28t-25 33l-93 160q-14 23 -17.5 44.5t-3.5 35.5q0 20 6 39.5t12 34.5l96 164q23 40 62.5 64.5t84.5 24.5h66q28 0 52 -13zM186 368q-7 -11 -7 -25q0 -15 7 -26l94 -161q8 -14 23.5 -24.5t29.5 -10.5h67q11 0 11 13q0 4 -1 6l-117 203l117 202q1 3 1 6q0 5 -3 8.5
t-8 3.5h-67q-14 0 -30 -10t-23 -24zM6 368q-6 -12 -6 -25q0 -7 1 -14t5 -12l94 -161q8 -14 24 -24.5t30 -10.5h66q5 0 8.5 4t3.5 9q0 4 -2 6l-117 203l117 202q2 3 2 6q0 5 -3.5 8.5t-8.5 3.5h-66q-15 0 -30.5 -10t-23.5 -24z" />
    <glyph glyph-name="logicalnot" unicode="&#xac;" horiz-adv-x="516" 
d="M198 223h-166q-28 0 -53.5 10.5t-44.5 29t-30 43.5t-11 54v38q0 28 11 53.5t29.5 44t44 29.5t54.5 11h346q30 0 55.5 -11.5t43.5 -30.5t28.5 -44t10.5 -52v-160q0 -29 -11 -54t-29.5 -44t-44 -29.5t-53.5 -10.5h-44q-27 0 -50.5 9.5t-41.5 26t-29.5 39t-14.5 48.5zM0 360
q0 -13 9 -22t23 -9h271v-91q0 -13 9 -22.5t22 -9.5h44q13 0 22 9.5t9 22.5v160q0 14 -8.5 23t-22.5 9h-346q-14 0 -23 -9t-9 -23v-38z" />
    <glyph glyph-name="registered" unicode="&#xae;" horiz-adv-x="417" 
d="M154 803q55 0 103 -21t83.5 -56.5t56 -83.5t20.5 -102q0 -55 -21 -102.5t-56.5 -83t-83.5 -55.5t-102 -20t-101.5 20.5t-83 56t-56 83t-20.5 101.5t20 101.5t55.5 83.5t83 57t102.5 21zM172 462q5 -9 12 -9h34q5 0 6.5 4.5t1.5 9.5l-23 51q20 15 20 43v21
q0 17 -10.5 29.5t-25.5 12.5h-32q-6 0 -9 -6q-2 6 -6 6h-36q-12 0 -12 -16v-140q0 -6 3.5 -10.5t8.5 -4.5h29q5 0 9 4.5t4 10.5v43h7zM146 571q0 12 10 12q11 0 11 -12v-13q0 -8 -4 -13.5t-9 -5.5q-8 0 -8 12v20zM154 662q25 0 47.5 -9.5t39 -26t26 -39t9.5 -47.5
t-9.5 -46.5t-26 -38t-39 -26t-47.5 -9.5t-47 9.5t-38.5 26t-26 38t-9.5 46.5t9.5 47.5t26 39t38.5 26t47 9.5zM0 540q0 -32 12 -60t33 -49t49 -33t60 -12t60.5 12t49.5 33t33.5 49t12.5 60t-12.5 60.5t-33.5 49.5t-49.5 33.5t-60.5 12.5t-60 -12.5t-49 -33.5t-33 -49.5
t-12 -60.5z" />
    <glyph glyph-name="macron" unicode="&#xaf;" horiz-adv-x="417" 
d="M51 836h209q33 0 61.5 -12.5t50 -34t33.5 -50t12 -60.5q0 -33 -12.5 -62.5t-34 -51.5t-50 -35t-60.5 -13h-209q-32 0 -60.5 12t-50.5 33.5t-34.5 50t-12.5 61.5q0 32 12.5 61.5t34 52t50 35.5t61.5 13zM0 674q0 -21 15.5 -36t35.5 -15h209q21 0 36 15t15 36v5
q0 20 -15 35.5t-36 15.5h-209q-20 0 -35.5 -15.5t-15.5 -35.5v-5z" />
    <glyph glyph-name="degree" unicode="&#xb0;" horiz-adv-x="351" 
d="M122 794q47 0 89 -18t73 -48.5t49 -72.5t18 -90t-18 -89.5t-49.5 -72t-73 -48.5t-88.5 -18t-88.5 18t-73 48.5t-49.5 72t-18 89.5t18 90t49 72.5t73 48.5t89 18zM0 565q0 -25 9.5 -47t26 -38.5t39 -26t47.5 -9.5t47.5 9.5t39 26t26 38.5t9.5 47t-9.5 47.5t-26 39t-39 26
t-47.5 9.5t-47.5 -9.5t-39 -26t-26 -39t-9.5 -47.5zM61 565q0 26 17.5 44.5t43.5 18.5t44 -18.5t18 -44.5t-18 -43t-44 -17t-43.5 17t-17.5 43z" />
    <glyph glyph-name="plusminus" unicode="&#xb1;" horiz-adv-x="509" 
d="M-106 76q0 38 20 71t52 50q-32 20 -52 53.5t-20 71.5v48q0 28 10.5 53t29.5 43.5t43.5 29.5t53.5 11q0 29 12.5 55.5t32.5 46.5t46.5 32t54.5 12h48q27 0 52.5 -10.5t44.5 -28.5t30.5 -43.5t11.5 -55.5q28 0 54 -12t46.5 -32.5t32.5 -46.5t12 -54v-48q0 -41 -20.5 -73.5
t-53.5 -50.5q33 -17 53.5 -49.5t20.5 -72.5v-49q0 -28 -10.5 -53t-29 -44t-43.5 -30t-54 -11h-341q-29 0 -54 11.5t-43.5 30.5t-29 44t-10.5 52v49zM1 27q0 -14 9 -23t21 -9h341q13 0 22 9t9 23v49q0 13 -9 22t-22 9h-341q-12 0 -21 -9t-9 -22v-49zM225 144q13 0 22.5 9
t9.5 23v114h115q13 0 22 9t9 23v48q0 13 -9 22t-22 9h-115v114q0 13 -9.5 22.5t-22.5 9.5h-48q-14 0 -23 -9.5t-9 -22.5v-114h-114q-13 0 -22 -9t-9 -22v-48q0 -14 9 -23t22 -9h114v-114q0 -14 9 -23t23 -9h48z" />
    <glyph glyph-name="twosuperior" unicode="&#xb2;" horiz-adv-x="317" 
d="M-93 588q-14 30 -14 58q0 35 12 69t35 61t55.5 44t74.5 17q44 0 88 -9t79.5 -32t57.5 -63.5t22 -104.5q0 -39 -14 -72q14 -27 14 -59v-40q0 -24 -9 -47.5t-25.5 -42.5t-40.5 -31t-54 -12h-150q-34 0 -61 13t-45.5 34.5t-28.5 48t-10 53.5v48q0 34 14 67zM100 523
q-8 0 -8 8q0 9 8 9q18 2 37.5 7t36 15t27 26t10.5 40q0 28 -10.5 47.5t-28.5 31.5t-41.5 17.5t-50.5 5.5h-10q-31 0 -50.5 -21.5t-19.5 -55.5v-7q0 -11 6.5 -18t16.5 -7h38q9 0 16 7t7 18h14q5 0 8.5 -3.5t3.5 -8.5v-39q0 -6 -6 -6h-43q-26 0 -43.5 -19.5t-17.5 -48.5v-48
q0 -18 11 -30t27 -12h150q10 0 16.5 7.5t6.5 18.5v40q0 11 -6.5 18.5t-16.5 7.5h-88z" />
    <glyph glyph-name="threesuperior" unicode="&#xb3;" horiz-adv-x="314" 
d="M-82 566q-25 33 -25 71v56q0 25 9.5 50t27 44.5t43 32t57.5 12.5h146q31 0 55 -12t40.5 -30.5t25.5 -42t9 -47.5v-28q0 -14 -2 -26t-4 -21q6 -15 10 -36.5t4 -42.5q0 -68 -26.5 -111.5t-64.5 -68t-80.5 -33.5t-75.5 -9h-39q-30 0 -54 12t-40.5 31t-25.5 42.5t-9 47.5v41
q0 38 19 68zM199 700q0 11 -6.5 18.5t-16.5 7.5h-146q-13 0 -21.5 -9.5t-8.5 -23.5v-56q0 -9 9 -9h38q8 0 8 9v4h12q7 0 12.5 -2.5t5.5 -12.5q0 -12 -7 -17t-16 -7t-16 -5t-7 -11q0 -13 12 -13h34q10 0 14.5 -3t4.5 -13q0 -19 -15.5 -24t-34 -7t-34 -6t-15.5 -22v-41
q0 -11 7 -18.5t16 -7.5h39q26 0 51.5 5.5t45 18.5t31.5 35.5t12 55.5q0 55 -43 56v5l34 48q1 4 1 17v28z" />
    <glyph glyph-name="acute" unicode="&#xb4;" horiz-adv-x="288" 
d="M18 510q-26 0 -49 9.5t-40 26.5t-26.5 39t-9.5 48q0 37 19 66l47 74q17 28 45.5 44.5t63.5 16.5h94q26 0 49 -10t40 -27t27 -40t10 -48q0 -26 -11 -49.5t-28 -40.5l-88 -77q-13 -10 -36 -21t-52 -11h-55zM73 616q11 0 20 9l83 72q5 5 5 12q0 8 -5.5 13t-13.5 5h-94
q-14 0 -19 -11l-46 -72q-3 -6 -3 -11q0 -6 5 -11.5t13 -5.5h55z" />
    <glyph glyph-name="mu" unicode="&#xb5;" horiz-adv-x="578" 
d="M311 0h-8t-8 1q-20 -35 -55.5 -56t-79.5 -21h-110q-33 0 -61.5 12.5t-49.5 34t-33.5 50t-12.5 60.5v448q0 31 12 60t33 50.5t49.5 34.5t62.5 13h109q20 0 39.5 -5.5t36.5 -14.5q17 9 36 14.5t40 5.5h110q33 0 62 -12.5t50 -34.5t33 -50.5t12 -60.5v-371q0 -33 -12 -61.5
t-33.5 -50t-50 -34t-61.5 -12.5h-110zM421 107q21 0 35.5 14.5t14.5 36.5v371q0 21 -14.5 36t-35.5 15h-110q-21 0 -36 -15t-15 -36v-253q0 -11 -7 -18t-18 -7q-9 0 -15.5 5.5t-8.5 13.5v259q0 21 -15.5 36t-36.5 15h-109q-21 0 -35.5 -15t-14.5 -36v-448q0 -21 15 -36
t35 -15h110q21 0 36 15t15 36v53q1 17 6 31q5 12 14.5 22t28.5 10v-39q0 -22 15 -36.5t36 -14.5h110z" />
    <glyph glyph-name="paragraph" unicode="&#xb6;" horiz-adv-x="588" 
d="M157 192q-53 10 -101 32.5t-84 59.5t-57.5 88t-21.5 117q0 78 29 135.5t77.5 95.5t112 56.5t131.5 18.5h160q46 0 80.5 -15.5t58 -40.5t35 -57t11.5 -66v-490q0 -29 -10.5 -52t-28.5 -39.5t-40.5 -25.5t-46.5 -9h-31q-30 0 -58 14q-28 -14 -58 -14h-32q-27 0 -50 9.5
t-40 26.5t-26.5 40t-9.5 50v66zM263 126q0 -8 6 -13.5t14 -5.5h32q19 0 19 19v453q0 15 11.5 26t28.5 11q15 0 26.5 -11t11.5 -26v-453q0 -19 19 -19h31q8 0 14 5.5t6 13.5v490q0 28 -17.5 50t-61.5 22h-160q-55 0 -100 -13t-76.5 -38.5t-49 -62.5t-17.5 -85
q0 -49 18.5 -86.5t51 -62.5t77.5 -37.5t99 -12.5h17v-164z" />
    <glyph glyph-name="periodcentered" unicode="&#xb7;" horiz-adv-x="269" 
d="M81 531q39 0 73 -15t59.5 -40.5t40.5 -59.5t15 -73t-15 -73.5t-40.5 -60t-59.5 -40t-73 -14.5t-73.5 14.5t-60 40t-40 60t-14.5 73.5q0 38 14.5 72.5t40 60t60 40.5t73.5 15zM0 343q0 -35 23.5 -58t57.5 -23t57.5 23t23.5 58q0 34 -23.5 57.5t-57.5 23.5t-57.5 -23.5
t-23.5 -57.5z" />
    <glyph glyph-name="cedilla" unicode="&#xb8;" horiz-adv-x="249" 
d="M97 215h152v-106q0 -35 -12.5 -74.5t-38 -73.5t-64.5 -56.5t-92 -22.5q-31 0 -58 12t-47.5 32.5t-32 47.5t-11.5 58q0 23 8.5 49t26.5 48.5t45 37t64 14.5q10 0 20.5 5t19.5 12q11 7 20 17zM97 109q0 -23 -15 -28t-33.5 -7t-33.5 -8.5t-15 -33.5q0 -18 12.5 -30.5
t29.5 -12.5q22 0 40.5 10.5t31.5 27.5t20.5 38.5t7.5 43.5h-45z" />
    <glyph glyph-name="onesuperior" unicode="&#xb9;" horiz-adv-x="225" 
d="M-85 580q-11 17 -16 35t-5 32v32q0 33 15 61t41 47l33 24q16 11 34 16t34 5h44q30 0 54 -11.5t41 -30t26 -42.5t9 -48v-243q0 -25 -9 -49t-26 -42.5t-41 -30t-54 -11.5h-51q-30 0 -54 12t-40.5 31t-25.5 42.5t-9 47.5v123zM51 726q-3 0 -7 -2l-33 -24q-5 -3 -7.5 -9
t-2.5 -12v-32q0 -4 2 -7.5t7 -3.5h11v-179q0 -11 7 -18.5t16 -7.5h51q10 0 16.5 7.5t6.5 18.5v243q0 11 -6.5 18.5t-16.5 7.5h-44z" />
    <glyph glyph-name="ordmasculine" unicode="&#xba;" horiz-adv-x="341" 
d="M117 798q102 0 163 -56t61 -174q0 -133 -78 -193q0 -25 -9 -52.5t-27 -50.5t-45.5 -38t-65.5 -15q-39 0 -67 15t-46 38.5t-26.5 51.5t-8.5 54q-35 29 -55 76.5t-20 113.5q0 60 16.5 103t46.5 71.5t71 42t90 13.5zM0 568q0 -74 30 -101.5t88 -27.5q30 0 52 6.5t36.5 21.5
t21.5 39.5t7 61.5q0 72 -29 97.5t-89 25.5q-57 0 -87 -25.5t-30 -97.5zM85 578q-1 3 -1.5 5.5t-0.5 5.5q0 10 6 17.5t16 7.5q12 0 18 -12l26 -50q3 -6 3 -11q0 -10 -6.5 -17.5t-15.5 -7.5q-13 0 -19 12zM116 414q-18 0 -29.5 -13.5t-11.5 -30.5t11.5 -30.5t29.5 -13.5
t29.5 13.5t11.5 30.5q0 18 -11.5 31t-29.5 13z" />
    <glyph glyph-name="guillemotright" unicode="&#xbb;" horiz-adv-x="518" 
d="M139 657q12 6 25 9.5t28 3.5h66q43 0 83.5 -24.5t63.5 -64.5l95 -164q6 -15 12 -34.5t6 -39.5q0 -14 -3.5 -35.5t-17.5 -44.5l-93 -160q-10 -17 -25 -33t-33.5 -28t-41 -19.5t-46.5 -7.5h-66q-30 0 -54 12q-27 -12 -60 -12h-66q-28 0 -50 10.5t-37.5 27.5t-23.5 38.5
t-8 42.5q0 7 1.5 17.5t5.5 21.5l4 11l92 159l-96 168q-7 20 -7 40q0 23 8.5 44.5t24.5 38t38 26.5t48 10h66q30 0 61 -13zM132 529q-8 14 -23 24t-31 10h-66q-5 0 -8.5 -3.5t-3.5 -8.5q0 -2 0.5 -3t0.5 -3l117 -202l-117 -203q0 -2 -0.5 -3.5t-0.5 -2.5q0 -13 12 -13h66
q15 0 30.5 10.5t23.5 24.5l94 161q6 12 6 26q0 13 -6 25zM312 529q-8 14 -23.5 24t-30.5 10h-66q-5 0 -8.5 -3.5t-3.5 -8.5q0 -3 1 -6l117 -202l-117 -203q-1 -2 -1 -6q0 -13 12 -13h66q14 0 30 10t24 25l94 161q3 5 4 12t1 14q0 12 -5 25z" />
    <glyph glyph-name="onequarter" unicode="&#xbc;" horiz-adv-x="548" 
d="M528 259q20 -31 20 -63v-39q0 -20 -7 -40t-21 -37q-11 -30 -37.5 -55t-72.5 -25h-73q-28 0 -49 10t-37 27h-17q-24 0 -42 7q-22 -23 -51.5 -36.5t-61.5 -13.5h-32q-30 0 -52 12t-37 30t-22 39t-7 39q0 4 1 16.5t9 29.5l58 135q-41 15 -62 51.5t-21 72.5v123
q-11 18 -16 36.5t-5 30.5v32q0 24 11.5 55t43.5 54l32 23q11 5 25.5 13.5t44.5 8.5h44q34 0 60 -14.5t43 -37.5q22 26 53.5 42t66.5 16h32q23 0 44.5 -9t38 -24.5t26.5 -37.5t10 -48q-1 -6 -6.5 -21.5t-14.5 -38.5t-21 -52t-26 -62h10q32 0 54.5 -12.5t36.5 -31t20.5 -39.5
t6.5 -37v-129zM442 196q0 13 -12 13h-9v179q0 14 -11 14h-93q-11 0 -20 -6t-14 -18l-55 -130q-5 -13 -5 -29v-62q0 -13 11 -13h91v-25q0 -12 12 -12h73q11 0 11 12v25h9q12 0 12 13v39zM295 209l33 105v-105h-33zM36 117q0 -6 2.5 -11t8.5 -5h32q14 0 28.5 9.5t19.5 24.5
l233 543q0 1 0.5 2t0.5 2q0 5 -3.5 8.5t-8.5 3.5h-32q-14 0 -28 -10t-19 -24zM50 688q-2 0 -8 -2l-32 -23q-10 -7 -10 -22v-32q0 -10 8 -10h13v-180q0 -11 6 -18.5t17 -7.5h50q10 0 16.5 7.5t6.5 18.5v244q0 11 -6.5 18t-16.5 7h-44z" />
    <glyph glyph-name="onehalf" unicode="&#xbd;" horiz-adv-x="576" 
d="M395 506q32 -6 64 -20t58 -38t42.5 -59.5t16.5 -85.5q0 -38 -14 -71q14 -30 14 -59v-41q0 -23 -9 -46.5t-25.5 -42.5t-40.5 -31t-54 -12h-150q-34 0 -60.5 12.5t-45.5 34.5q-23 -25 -53.5 -39t-62.5 -14h-32q-30 0 -52.5 12t-37 30t-21.5 39t-7 39q0 5 1 17.5t8 28.5
l59 136q-19 8 -34 22t-25 30.5t-15 34.5t-5 36v123q-11 18 -16 36.5t-5 30.5v32q0 24 11.5 55t43.5 54l32 23q11 5 25.5 13.5t44.5 8.5h44q33 0 58.5 -13.5t42.5 -35.5q22 25 52.5 40t64.5 15h32q23 0 44.5 -9t38 -24.5t26.5 -37.5t10 -48q-1 -6 -7 -21.5t-15 -39t-21 -53
t-25 -62.5zM358 199q-7 0 -7 10t7 10q18 2 37.5 7t36 14.5t27.5 24.5t11 38q0 29 -10.5 48.5t-28.5 31.5t-42 17.5t-51 5.5h-10q-30 0 -50 -21.5t-20 -55.5v-7q0 -11 7 -18t17 -7h37q8 0 12 4t6.5 8.5t5 8.5t7.5 4h7q5 0 8.5 -3.5t3.5 -8.5v-29q0 -10 -8 -14q-4 -2 -7 -2
h-34q-26 0 -44 -19.5t-18 -48.5v-48q0 -18 11 -30t28 -12h150q10 0 16.5 7t6.5 18v41q0 11 -6.5 18.5t-16.5 7.5h-89zM32 117l-1 -2v-1q0 -13 12 -13h32q14 0 28 9.5t19 24.5l234 543q0 1 0.5 2t0.5 2q0 5 -4 8.5t-9 3.5h-32q-14 0 -27.5 -10t-18.5 -24zM50 688q-2 0 -8 -2
l-32 -23q-10 -7 -10 -22v-32q0 -10 8 -10h13v-180q0 -11 6 -18.5t17 -7.5h50q10 0 16.5 7.5t6.5 18.5v244q0 11 -6.5 18t-16.5 7h-44z" />
    <glyph glyph-name="threequarters" unicode="&#xbe;" horiz-adv-x="610" 
d="M590 259q20 -31 20 -63v-39q0 -20 -7 -40t-21 -37q-11 -30 -37 -55t-73 -25h-73q-27 0 -48.5 10t-37.5 27h-17q-12 0 -23 2t-21 5q-22 -23 -52 -36.5t-62 -13.5h-31q-30 0 -52.5 12t-37.5 30t-22 39t-7 39q0 4 1 16.5t9 29.5l55 126h-25q-32 0 -56 12t-40 31.5t-24.5 43
t-8.5 46.5v41q0 38 19 68q-25 31 -25 71v57q0 24 9 48.5t26.5 45t43 33t58.5 12.5h146q29 0 52 -11t40 -28q22 21 50 33t58 12h32q23 0 44.5 -9t38 -24.5t26.5 -37.5t10 -48q-1 -6 -6.5 -21.5t-14.5 -38.5t-21 -52t-25 -62h12q32 0 54.5 -12.5t36.5 -31t20.5 -39.5t6.5 -37
v-129zM504 196q0 13 -12 13h-9v179q0 14 -11 14h-92q-24 0 -34 -24l-56 -130q-5 -13 -5 -29v-62q0 -13 11 -13h91v-25q0 -12 12 -12h73q11 0 11 12v25h9q12 0 12 13v39zM357 209l33 105v-105h-33zM95 117q0 -6 2.5 -11t9.5 -5h31q15 0 29 9.5t19 24.5l234 543q0 5 -2.5 10.5
t-9.5 5.5h-32q-14 0 -28 -10t-19 -24zM54 488q-8 0 -16.5 -1t-15.5 -4t-12 -8.5t-5 -14.5v-41q0 -11 6.5 -18.5t16.5 -7.5h39q26 0 51 5.5t45 19t32 35.5t12 55q0 53 -43 57v4l33 48q1 4 1.5 8t0.5 9v29q0 11 -6.5 18t-16.5 7h-146q-13 0 -21.5 -9.5t-8.5 -22.5v-57
q0 -8 9 -8h38q8 0 8 8v4h12q6 0 11.5 -2.5t5.5 -11.5q0 -13 -7 -18t-16 -7.5t-16 -4.5t-7 -10q0 -14 13 -14h34q9 0 14 -2.5t5 -13.5q0 -14 -10 -22.5t-23 -8.5h-17z" />
    <glyph glyph-name="questiondown" unicode="&#xbf;" horiz-adv-x="491" 
d="M388 492q0 -36 -17 -67q2 -5 2.5 -10t1.5 -10l11 -86l1 -13q0 -5 -0.5 -9t-0.5 -8q8 -7 16 -13.5t14 -14.5l42 -54q17 -22 25 -48t8 -49q0 -41 -15.5 -70t-37.5 -49t-47.5 -32.5t-44.5 -19.5q-40 -14 -81 -20t-70 -6q-59 0 -113.5 17.5t-96.5 52t-67 86t-25 119.5
q0 45 11 82.5t30.5 68t45.5 54t57 40.5q-13 29 -13 59v89q0 28 10.5 53t29.5 44t43.5 30t53.5 11h89q27 0 52 -10.5t44 -29t30.5 -43.5t11.5 -55v-89zM282 581q0 13 -9.5 22t-22.5 9h-89q-13 0 -22 -9t-9 -22v-89q0 -13 9 -22t22 -9h89q13 0 22.5 9t9.5 22v89zM235 421h-56
q-13 0 -22.5 -8t-11.5 -20l-5 -34q-62 -17 -101 -58t-39 -113q0 -39 14.5 -70.5t40 -53t61.5 -33t79 -11.5q21 0 53.5 5t63 15.5t52 27.5t21.5 42q0 16 -11 32l-41 52q-10 13 -26 13q-14 0 -27 -5t-25.5 -11t-25 -11t-25.5 -5q-38 0 -38 25q0 20 18 32t39 22t39 21.5
t18 30.5l-11 85q-2 13 -11.5 21.5t-22.5 8.5z" />
    <glyph glyph-name="Agrave" unicode="&#xc0;" horiz-adv-x="673" 
d="M64 739q-13 17 -20.5 36.5t-7.5 41.5q0 25 9.5 48t26.5 40t40 27t49 10h94q34 0 63.5 -16.5t46.5 -44.5l46 -74q5 -8 10 -19q43 -10 73.5 -39.5t41.5 -72.5l131 -501l4 -18t2 -20q0 -27 -10.5 -52t-29 -44t-44 -30t-54.5 -11h-126q-38 0 -71.5 17.5t-55.5 47.5
q-23 -31 -56.5 -48t-71.5 -17h-122q-30 0 -55 11t-44 30t-29.5 44t-10.5 53q0 11 2 20t4 17l131 501q9 35 34 63zM306 724q8 0 12.5 5.5t4.5 11.5q0 7 -3 11l-45 72q-7 11 -20 11h-94q-8 0 -13.5 -5t-5.5 -13q0 -5 5 -12l83 -72q10 -9 20 -9h56zM32 107h122q19 0 32.5 11
t17.5 29l13 63q2 10 12 10h105q9 0 12 -10l14 -64q4 -17 18 -28t31 -11h126q14 0 22.5 9t8.5 21q0 6 -1 8l-131 503q-5 17 -18.5 27.5t-31.5 10.5h-203q-17 0 -30.5 -10.5t-18.5 -27.5l-131 -503q0 -2 -0.5 -3.5t-0.5 -3.5q0 -13 9 -22t23 -9zM248 357l34 157l32 -157h-66z
" />
    <glyph glyph-name="Aacute" unicode="&#xc1;" horiz-adv-x="673" 
d="M282 65q-23 -31 -56.5 -48t-71.5 -17h-122q-30 0 -55 11t-44 30t-29.5 44t-10.5 53q0 11 2 20t4 17l131 501q10 37 35 64.5t61 41.5q5 15 12 25l46 74q17 28 46 44.5t64 16.5h94q26 0 49 -10t40 -27t27 -40t10 -48q0 -18 -6 -35.5t-15 -31.5q32 -31 43 -74l131 -501
l4 -18t2 -20q0 -27 -10.5 -52t-29 -44t-44 -30t-54.5 -11h-126q-38 0 -71.5 17.5t-55.5 47.5zM248 357l34 157l32 -157h-66zM32 107h122q19 0 32.5 11t17.5 29l13 63q2 10 12 10h105q9 0 12 -10l14 -64q4 -17 18 -28t31 -11h126q14 0 22.5 9t8.5 21q0 6 -1 8l-131 503
q-5 17 -18.5 27.5t-31.5 10.5h-203q-17 0 -30.5 -10.5t-18.5 -27.5l-131 -503q0 -2 -0.5 -3.5t-0.5 -3.5q0 -13 9 -22t23 -9zM299 724q9 0 20 9l83 72q5 5 5 12q0 8 -5.5 13t-13.5 5h-94q-14 0 -19 -11l-46 -72q-3 -4 -3 -11q0 -6 4.5 -11.5t12.5 -5.5h56z" />
    <glyph glyph-name="Acircumflex" unicode="&#xc2;" horiz-adv-x="673" 
d="M116 725h97l68 40l68 -40h99l-104 107q-6 6 -15 11q-8 5 -19.5 8.5t-28.5 3.5t-28.5 -3.5t-19.5 -8.5q-9 -5 -14 -11zM32 107h122q19 0 32.5 11t17.5 29l13 63q2 10 12 10h105q9 0 12 -10l14 -64q4 -17 18 -28t31 -11h126q14 0 22.5 9t8.5 21q0 6 -1 8l-131 503
q-5 17 -18.5 27.5t-31.5 10.5h-203q-17 0 -30.5 -10.5t-18.5 -27.5l-131 -503q0 -2 -0.5 -3.5t-0.5 -3.5q0 -13 9 -22t23 -9zM248 357l34 157l32 -157h-66zM-4 619h-5q-22 0 -37.5 15.5t-15.5 37.5t15 37q50 52 83.5 87.5t55.5 59t35 37t22 21t15.5 12t16.5 10.5
q19 11 43.5 18.5t56.5 7.5q27 0 49.5 -6t40 -14.5t30.5 -18.5t22 -19l190 -197q15 -17 15 -37q0 -26 -19.5 -39.5t-42.5 -13.5q-5 0 -15 2l116 -444l4 -18t2 -20q0 -27 -10.5 -52t-29 -44t-44 -30t-54.5 -11h-126q-38 0 -71.5 17.5t-55.5 47.5q-23 -31 -56.5 -48t-71.5 -17
h-122q-30 0 -55 11t-44 30t-29.5 44t-10.5 53q0 11 2 20t4 17l116 444h-19z" />
    <glyph glyph-name="Atilde" unicode="&#xc3;" horiz-adv-x="673" 
d="M349 724q44 0 63.5 22.5t33.5 62.5l-71 15q-8 -14 -15.5 -20.5t-24.5 -6.5q-13 0 -28 3.5t-30.5 7.5t-31.5 7.5t-31 3.5q-41 0 -62.5 -21t-34.5 -64l70 -14q9 14 16.5 20.5t24.5 6.5q13 0 27.5 -3.5t30 -8t31.5 -8t32 -3.5zM32 107h122q19 0 32.5 11t17.5 29l13 63
q2 10 12 10h105q9 0 12 -10l14 -64q4 -17 18 -28t31 -11h126q14 0 22.5 9t8.5 21q0 6 -1 8l-131 503q-5 17 -18.5 27.5t-31.5 10.5h-203q-17 0 -30.5 -10.5t-18.5 -27.5l-131 -503q0 -2 -0.5 -3.5t-0.5 -3.5q0 -13 9 -22t23 -9zM248 357l34 157l32 -157h-66zM551 896
q11 -2 18 -12t7 -21q0 -7 -1 -11l-28 -79q-5 -14 -12 -28.5t-15 -29.5q6 -10 9.5 -19t6.5 -20l131 -501q1 -6 3 -13q1 -6 2 -13t1 -12q0 -27 -10.5 -52t-29 -44t-44 -30t-54.5 -11h-126q-38 0 -71.5 17.5t-55.5 47.5q-23 -31 -56.5 -48t-71.5 -17h-122q-30 0 -55 11t-44 30
t-29.5 44t-10.5 53q0 11 2 20t4 17l122 470h-4q-12 2 -19.5 11.5t-7.5 21.5q0 6 2 9l23 77q9 31 24.5 60.5t39.5 52t57 36t78 13.5q27 0 56 -9t56 -9q13 0 25.5 2.5t23.5 6.5q12 4 24 10z" />
    <glyph glyph-name="Adieresis" unicode="&#xc4;" horiz-adv-x="673" 
d="M350 933h85q32 0 60.5 -12t50.5 -33t34.5 -50t12.5 -62q0 -35 -14 -65t-38 -52l126 -484q1 -7 3 -13q1 -5 2 -12t1 -13q0 -27 -10.5 -52t-29 -44t-44 -30t-54.5 -11h-126q-38 0 -71.5 17.5t-55.5 47.5q-23 -31 -56.5 -48t-71.5 -17h-122q-30 0 -55 11t-44 30t-29.5 44
t-10.5 53q0 11 2 20t4 17l125 482q-25 22 -39.5 53t-14.5 66q0 33 12.5 61.5t33.5 49.5t49.5 33.5t61.5 12.5h86q19 0 35.5 -4t32.5 -11q16 7 33.5 11t35.5 4zM300 776q0 -21 14.5 -36t35.5 -15h85q21 0 36 15t15 36t-15 36t-36 15h-85q-21 0 -35.5 -15t-14.5 -36zM77 776
q0 -21 14.5 -36t35.5 -15h86q20 0 35 15t15 36t-15 36t-35 15h-86q-21 0 -35.5 -15t-14.5 -36zM32 107h122q19 0 32.5 11t17.5 29l13 63q2 10 12 10h105q9 0 12 -10l14 -64q4 -17 18 -28t31 -11h126q14 0 22.5 9t8.5 21q0 6 -1 8l-131 503q-5 17 -18.5 27.5t-31.5 10.5h-203
q-17 0 -30.5 -10.5t-18.5 -27.5l-131 -503q0 -2 -0.5 -3.5t-0.5 -3.5q0 -13 9 -22t23 -9zM248 357l34 157l32 -157h-66z" />
    <glyph glyph-name="Aring" unicode="&#xc5;" horiz-adv-x="673" 
d="M282 65q-23 -31 -56.5 -48t-71.5 -17h-122q-30 0 -55 11t-44 30t-29.5 44t-10.5 53q0 11 2 20t4 17l131 500q2 7 4 13.5t4 13.5q-2 7 -2 14.5v15.5q0 30 10.5 54t25.5 41.5t32 29.5t31 19q32 16 70 24t77 8q38 0 75.5 -7.5t70.5 -24.5q14 -7 31.5 -19t32.5 -29.5
t25.5 -41.5t10.5 -54q0 -14 -3 -27q8 -15 11 -29l131 -501q1 -7 3 -13q1 -5 2 -12t1 -13q0 -27 -10.5 -52t-29 -44t-44 -30t-54.5 -11h-126q-38 0 -71.5 17.5t-55.5 47.5zM248 357l34 157l32 -157h-66zM227 732q0 15 16 26t39 11t39 -11t16 -26q0 -16 -16 -27t-39 -11
t-39 11t-16 27zM142 732q0 -27 35 -46q-17 -2 -29 -12t-16 -26l-131 -503q0 -2 -0.5 -3.5t-0.5 -3.5q0 -13 9 -22t23 -9h122q19 0 32.5 11t17.5 29l13 63q2 10 12 10h105q9 0 12 -10l14 -64q4 -17 18 -28t31 -11h126q14 0 22.5 9t8.5 21q0 6 -1 8l-131 503q-5 17 -18 26.5
t-30 11.5q35 19 35 46q0 14 -11 26.5t-29.5 22t-44 15t-54.5 5.5t-54.5 -5.5t-44.5 -15t-30 -22t-11 -26.5z" />
    <glyph glyph-name="AE" unicode="&#xc6;" horiz-adv-x="819" 
d="M282 65q-23 -31 -56.5 -48t-71.5 -17h-122q-27 0 -52 10.5t-44.5 28.5t-31 42.5t-11.5 53.5q0 9 2 19l4 20l131 502q7 25 21 46.5t34 37.5t44.5 24.5t51.5 8.5h464q32 0 61 -12.5t50.5 -33.5t34 -49.5t12.5 -61.5v-75q0 -30 -10.5 -56.5t-28.5 -46.5q5 -20 5 -35v-51
q0 -6 -0.5 -12t-1.5 -12q24 -21 38 -51.5t14 -65.5v-73q0 -33 -12.5 -62t-33.5 -50t-49.5 -33.5t-61.5 -12.5h-253q-38 0 -71.5 17.5t-55.5 47.5zM248 357l34 157l32 -157h-66zM32 107h122q19 0 32.5 11t17.5 29l13 63q2 10 12 10h105q9 0 12 -10l14 -64q4 -17 18 -28
t31 -11h253q21 0 36 14.5t15 36.5v73q0 21 -15 35.5t-36 14.5h-144l-16 59h129q13 0 22 9t9 23v51q0 13 -9 22t-22 9h-158l-14 57h186q21 0 36 14.5t15 35.5v75q0 20 -15 35t-36 15h-464q-17 0 -30.5 -10.5t-18.5 -27.5l-131 -503q0 -2 -0.5 -4t-0.5 -4q0 -12 9 -21t23 -9z
" />
    <glyph glyph-name="Ccedilla" unicode="&#xc7;" horiz-adv-x="589" 
d="M69 43q-89 48 -132.5 139.5t-43.5 206.5q0 97 26 172t74.5 126.5t118 78.5t157.5 27h34q48 0 98.5 -19.5t92.5 -54.5t68.5 -83.5t26.5 -105.5v-50q0 -23 -6.5 -43.5t-17.5 -39.5q11 -17 17.5 -38t6.5 -44v-52q0 -44 -14.5 -83t-39.5 -71.5t-59 -56.5t-73 -37
q-11 -26 -27.5 -50t-39.5 -42.5t-52.5 -29.5t-65.5 -11q-31 0 -58.5 12t-47.5 32t-32 47.5t-12 58.5q0 7 1 11zM300 474q0 -21 14.5 -33t35.5 -12h81q22 0 36.5 15t14.5 36v50q0 30 -16 58t-41.5 49.5t-57.5 35t-64 13.5h-34q-128 0 -198.5 -71.5t-70.5 -225.5
q0 -65 15.5 -117.5t47 -89t79.5 -56t114 -19.5h16q-2 -16 -9.5 -22.5t-18.5 -8.5t-23 -2.5t-22 -3.5t-17 -11.5t-7 -26.5t12.5 -30.5t30.5 -12.5q21 0 39 10t31.5 26.5t21 38t7.5 43.5q33 0 62.5 13t52.5 34.5t36.5 49.5t13.5 59v52q0 21 -14.5 36t-36.5 15h-84
q-21 0 -35.5 -12t-15.5 -32q-1 -11 -11 -19t-25 -8q-18 0 -28.5 12.5t-10.5 29.5v131q0 17 11 30t28 13q21 0 30.5 -12.5t9.5 -24.5z" />
    <glyph glyph-name="Egrave" unicode="&#xc8;" horiz-adv-x="551" 
d="M-12 780q-3 9 -5 18t-2 19q0 25 10 48t27 40t40 27t49 10h94q34 0 63.5 -16.5t46.5 -44.5l46 -74q5 -7 8 -14h29q33 0 61.5 -12.5t50 -34t33.5 -50t12 -60.5v-75q0 -35 -14 -65t-38 -52q1 -5 1.5 -10.5t0.5 -10.5v-51q0 -6 -0.5 -12t-1.5 -12q24 -21 38 -51.5t14 -65.5
v-73q0 -33 -12 -61.5t-33.5 -50t-50 -34t-61.5 -12.5h-344q-33 0 -61.5 12.5t-50 34t-33.5 50t-12 61.5v478q0 48 26.5 87t68.5 57zM252 724q8 0 12.5 5.5t4.5 11.5q0 7 -3 11l-45 72q-7 11 -20 11h-94q-8 0 -13.5 -5t-5.5 -13q0 -5 5 -12l83 -72q10 -9 20 -9h56zM445 636
q0 20 -14.5 35t-36.5 15h-344q-21 0 -35.5 -15t-14.5 -35v-478q0 -22 14.5 -36.5t35.5 -14.5h344q22 0 36.5 14.5t14.5 36.5v73q0 21 -14.5 35.5t-36.5 14.5h-185v59h154q13 0 22 9t9 23v51q0 13 -9 22t-22 9h-154v57h185q22 0 36.5 14.5t14.5 35.5v75z" />
    <glyph glyph-name="Eacute" unicode="&#xc9;" horiz-adv-x="551" 
d="M79 793q3 7 8 14l46 74q17 28 46 44.5t64 16.5h94q26 0 48.5 -10t39.5 -27t27 -40t10 -48q0 -17 -5 -37q42 -18 68 -57t26 -87v-75q0 -35 -14 -65t-38 -52q1 -5 1.5 -10.5t0.5 -10.5v-51q0 -6 -0.5 -12t-1.5 -12q24 -21 38 -51.5t14 -65.5v-73q0 -33 -12 -61.5t-33.5 -50
t-50 -34t-61.5 -12.5h-344q-33 0 -61.5 12.5t-50 34t-33.5 50t-12 61.5v478q0 32 12 60.5t33.5 50t50 34t61.5 12.5h29zM248 724q9 0 20 9l83 72q5 7 5 12q0 8 -5.5 13t-13.5 5h-94q-13 0 -20 -11l-45 -72q-3 -4 -3 -11q0 -6 4.5 -11.5t12.5 -5.5h56zM445 636q0 20 -14.5 35
t-36.5 15h-344q-21 0 -35.5 -15t-14.5 -35v-478q0 -22 14.5 -36.5t35.5 -14.5h344q22 0 36.5 14.5t14.5 36.5v73q0 21 -14.5 35.5t-36.5 14.5h-185v59h154q13 0 22 9t9 23v51q0 13 -9 22t-22 9h-154v57h185q22 0 36.5 14.5t14.5 35.5v75z" />
    <glyph glyph-name="Ecircumflex" unicode="&#xca;" horiz-adv-x="552" 
d="M-107 607q0 101 71 175l117 122q7 8 19.5 18t30.5 19t41 15t50 6t49.5 -6t40 -15t30.5 -19t21 -18l136 -140q52 -55 52 -129v-9q0 -40 -1 -67t-5.5 -46.5t-15.5 -35t-30 -33.5q1 -5 1.5 -10.5t0.5 -10.5v-51q0 -6 -0.5 -12t-1.5 -12q24 -21 38 -51.5t14 -65.5v-73
q0 -33 -12 -61.5t-33.5 -50t-50 -34t-61.5 -12.5h-344q-33 0 -61.5 12.5t-50 34t-33.5 50t-12 61.5v449zM57 725h97l68 40l67 -40h99l-103 107q-6 6 -15 11q-8 5 -19.5 8.5t-28.5 3.5t-28.5 -3.5t-19.5 -8.5q-9 -5 -14 -11zM445 636q0 20 -14.5 35t-36.5 15h-344
q-21 0 -35.5 -15t-14.5 -35v-478q0 -22 14.5 -36.5t35.5 -14.5h344q22 0 36.5 14.5t14.5 36.5v73q0 21 -14.5 35.5t-36.5 14.5h-185v59h154q13 0 22 9t9 23v51q0 13 -9 22t-22 9h-154v57h185q22 0 36.5 14.5t14.5 35.5v75z" />
    <glyph glyph-name="Edieresis" unicode="&#xcb;" horiz-adv-x="551" 
d="M294 933h85q32 0 60.5 -12t50 -33t34 -50t12.5 -62q0 -31 -10 -55q25 -39 25 -85v-75q0 -35 -14 -65t-38 -52q1 -5 1.5 -10.5t0.5 -10.5v-51q0 -6 -0.5 -12t-1.5 -12q24 -21 38 -51.5t14 -65.5v-73q0 -33 -12 -61.5t-33.5 -50t-50 -34t-61.5 -12.5h-344q-33 0 -61.5 12.5
t-50 34t-33.5 50t-12 61.5v478q0 25 7.5 48t21.5 42q-4 12 -6 24t-2 26q0 33 12.5 61.5t33.5 49.5t49.5 33.5t61.5 12.5h86q18 0 35 -4t33 -11q16 7 33 11t36 4zM243 776q0 -21 15 -36t36 -15h85q21 0 36 15t15 36t-15 36t-36 15h-85q-21 0 -36 -15t-15 -36zM21 776
q0 -21 14.5 -36t35.5 -15h86q20 0 35 15t15 36t-15 36t-35 15h-86q-21 0 -35.5 -15t-14.5 -36zM445 636q0 20 -14.5 35t-36.5 15h-344q-21 0 -35.5 -15t-14.5 -35v-478q0 -22 14.5 -36.5t35.5 -14.5h344q22 0 36.5 14.5t14.5 36.5v73q0 21 -14.5 35.5t-36.5 14.5h-185v59
h154q13 0 22 9t9 23v51q0 13 -9 22t-22 9h-154v57h185q22 0 36.5 14.5t14.5 35.5v75z" />
    <glyph glyph-name="Igrave" unicode="&#xcc;" horiz-adv-x="347" 
d="M-56 716l-11 11q-17 17 -28.5 40t-11.5 50q0 25 10 48t27 40t40 27t49 10h94q34 0 63.5 -16.5t46.5 -44.5l46 -74q7 -11 11 -23t6 -25q28 -22 44.5 -53.5t16.5 -69.5v-478q0 -33 -12.5 -62t-34 -50.5t-50.5 -33.5t-61 -12h-109q-32 0 -61 12t-50.5 33.5t-34 50.5
t-12.5 62v478q0 44 22 80zM164 724q8 0 12.5 5.5t4.5 11.5q0 7 -3 11l-46 72q-6 11 -19 11h-94q-8 0 -13.5 -5t-5.5 -13q0 -7 5 -12l83 -72q10 -9 20 -9h56zM240 636q0 20 -14.5 35t-36.5 15h-109q-21 0 -36 -15t-15 -35v-478q0 -22 15 -36.5t36 -14.5h109q22 0 36.5 14.5
t14.5 36.5v478z" />
    <glyph glyph-name="Iacute" unicode="&#xcd;" horiz-adv-x="338" 
d="M-56 750q2 32 18 57l47 74q18 28 46 44.5t63 16.5h94q26 0 49 -10t40 -27t27 -40t10 -48q0 -26 -11 -49.5t-28 -40.5l-7 -6q26 -37 26 -85v-478q0 -33 -12.5 -62t-34 -50.5t-50 -33.5t-60.5 -12h-110q-32 0 -61 12t-50.5 33.5t-34 50.5t-12.5 62v478q0 35 14 64t37 50z
M124 724q9 0 20 9l82 72q6 6 6 12q0 8 -6 13t-14 5h-94q-12 0 -19 -11l-46 -72q-3 -6 -3 -11q0 -6 5 -11.5t13 -5.5h56zM212 636q0 20 -15 35t-36 15h-110q-21 0 -36 -15t-15 -35v-478q0 -22 15 -36.5t36 -14.5h110q21 0 36 14.5t15 36.5v478z" />
    <glyph glyph-name="Icircumflex" unicode="&#xce;" horiz-adv-x="582" 
d="M73 725h96l69 40l67 -40h99l-104 107q-5 6 -14 11q-8 5 -19.5 8.5t-28.5 3.5t-28.5 -3.5t-19.5 -8.5q-9 -5 -15 -11zM339 636q0 20 -15 35t-36 15h-110q-21 0 -36 -15t-15 -35v-478q0 -22 15 -36.5t36 -14.5h110q21 0 36 14.5t15 36.5v478zM-14 619h-39q-22 0 -38 16
t-16 37q0 19 16 37q36 40 63 69t48.5 51.5t39.5 40t36 34.5q7 8 20 18t31 19t41 15t50 6q28 0 50.5 -6t39.5 -15t30 -19t21 -18l189 -195q14 -15 14 -37q0 -23 -15 -38t-38 -15h-84v-461q0 -33 -12.5 -62t-34 -50.5t-50 -33.5t-60.5 -12h-110q-32 0 -60.5 12t-50 33.5
t-34 50.5t-12.5 62v461h-35z" />
    <glyph glyph-name="Idieresis" unicode="&#xcf;" horiz-adv-x="516" 
d="M273 933h85q32 0 60.5 -12t50.5 -33t34.5 -50t12.5 -62q0 -50 -28 -89.5t-72 -56.5v-472q0 -33 -12.5 -62t-34 -50.5t-50.5 -33.5t-61 -12h-109q-32 0 -61 12t-50.5 33.5t-34 50.5t-12.5 62v472q-44 18 -71 57.5t-27 88.5q0 33 12.5 61.5t33.5 49.5t49.5 33.5t61.5 12.5
h86q19 0 36 -4t32 -11q16 7 33.5 11t35.5 4zM223 776q0 -21 14.5 -36t35.5 -15h85q21 0 36 15t15 36t-15 36t-36 15h-85q-21 0 -35.5 -15t-14.5 -36zM0 776q0 -21 14.5 -36t35.5 -15h86q21 0 35.5 15t14.5 36t-14.5 36t-35.5 15h-86q-21 0 -35.5 -15t-14.5 -36zM309 636
q0 20 -15 35t-36 15h-109q-21 0 -36 -15t-15 -35v-478q0 -22 15 -36.5t36 -14.5h109q21 0 36 14.5t15 36.5v478z" />
    <glyph glyph-name="Eth" unicode="&#xd0;" horiz-adv-x="647" 
d="M-107 416q0 25 8.5 47.5t23.5 40.5v132q0 32 12.5 60.5t34 50t50 34t60.5 12.5h175q80 0 151 -19.5t124 -63t84 -113t31 -169.5q0 -86 -25 -164t-74.5 -136.5t-124.5 -93t-175 -34.5h-166q-32 0 -60 12t-50 33t-34.5 50t-12.5 63v143q-32 38 -32 87v28zM223 492q1 7 5 12
t12.5 8.5t24.5 3.5q26 0 44 -18.5t18 -44.5v-102q0 -26 -18 -44t-44 -18q-16 0 -24.5 4.5t-12.5 9.5q-4 6 -5 15v39h37q13 0 22.5 9t9.5 22v28q0 14 -9.5 23t-22.5 9h-37v44zM0 388q0 -13 9 -22t22 -9v-199q0 -22 15.5 -36.5t35.5 -14.5h166q73 0 127.5 24t91.5 66.5
t55.5 101.5t18.5 129q0 71 -20 120t-57 80t-89.5 44.5t-117.5 13.5h-175q-20 0 -35 -15t-15 -35v-188q-14 0 -23 -9t-9 -23v-28z" />
    <glyph glyph-name="Ntilde" unicode="&#xd1;" horiz-adv-x="602" 
d="M316 724q43 0 63 22.5t34 62.5l-71 15q-8 -14 -15.5 -20.5t-24.5 -6.5q-13 0 -28 3.5t-30.5 7.5t-31.5 7.5t-31 3.5q-41 0 -62.5 -21t-34.5 -64l70 -14q9 14 16.5 20.5t24.5 6.5q13 0 27.5 -3.5t30 -8t31.5 -8t32 -3.5zM340 686q-21 0 -36 -15t-15 -35v-103l-82 137
q-6 10 -15.5 13t-20.5 3h-120q-21 0 -36 -15t-15 -35v-478q0 -22 15 -36.5t36 -14.5h108q20 0 35 14.5t15 36.5v253q21 -17 38 -50q14 -28 26 -75.5t12 -120.5q0 -22 8.5 -33.5t19 -17t19.5 -6.5t10 -1h103q21 0 36 14.5t15 36.5v478q0 20 -15 35t-36 15h-105zM372 926
l145 -30q12 -2 19 -12t7 -21q0 -3 -0.5 -5.5t-0.5 -5.5l-28 -76q39 -20 63.5 -56.5t24.5 -83.5v-478q0 -33 -12.5 -62t-34 -50.5t-50 -33.5t-60.5 -12h-102h-10t-22.5 2.5t-30 8.5t-31.5 17q-40 -28 -90 -28h-108q-32 0 -61 12t-50.5 33.5t-34 50.5t-12.5 62v478q0 48 26 86
t67 56q10 29 26 56t39.5 47.5t55.5 32.5t74 12q29 0 56.5 -8t58.5 -13l59 20q4 1 17 1z" />
    <glyph glyph-name="Ograve" unicode="&#xd2;" horiz-adv-x="670" 
d="M52 750q-22 30 -22 67q0 25 10 48t27 40t40 27t49 10h94q34 0 63.5 -16.5t46.5 -44.5l46 -74q6 -9 9 -18q132 -33 193.5 -130.5t61.5 -253.5q0 -83 -17.5 -158.5t-61 -133t-116.5 -91.5t-183 -34t-186.5 28.5t-123.5 82.5t-68 131t-21 173q0 123 40 210.5t119 136.5z
M300 724q8 0 13 5.5t5 11.5q0 5 -3 11l-46 72q-6 11 -19 11h-94q-8 0 -13.5 -5t-5.5 -13q0 -7 5 -12l83 -72q10 -9 20 -9h55zM0 403q0 -79 14 -137t48 -96t90 -56.5t140 -18.5q79 0 131.5 21.5t83.5 62t43.5 97.5t12.5 129q0 76 -15.5 131.5t-50 91.5t-90 53t-135.5 17
q-137 0 -204.5 -71.5t-67.5 -223.5zM195 406q-19 19 -19 44t18 43.5t44 18.5q11 -1 22.5 -5t21.5 -13l89 -89q9 -9 13.5 -21.5t4.5 -23.5q0 -26 -18 -44t-43 -18q-26 0 -45 19z" />
    <glyph glyph-name="Oacute" unicode="&#xd3;" horiz-adv-x="670" 
d="M129 784q5 14 11 23l46 74q17 28 46 44.5t64 16.5h94q26 0 49 -10t40 -27t27 -40t10 -48q0 -17 -4.5 -31t-12.5 -28q88 -47 129.5 -135.5t41.5 -217.5q0 -83 -17.5 -158.5t-61 -133t-116.5 -91.5t-183 -34t-186.5 28.5t-123.5 82.5t-68 131t-21 173q0 151 60 248t176 133
zM301 724q9 0 20 9l83 72q5 5 5 12q0 8 -5.5 13t-13.5 5h-94q-14 0 -19 -11l-46 -72q-3 -6 -3 -11q0 -6 5 -11.5t13 -5.5h55zM0 403q0 -79 14 -137t48 -96t90 -56.5t140 -18.5q79 0 131.5 21.5t83.5 62t43.5 97.5t12.5 129q0 76 -15.5 131.5t-50 91.5t-90 53t-135.5 17
q-137 0 -204.5 -71.5t-67.5 -223.5zM195 406q-19 19 -19 44t18 43.5t44 18.5q11 -1 22.5 -5t21.5 -13l89 -89q9 -9 13.5 -21.5t4.5 -23.5q0 -26 -18 -44t-43 -18q-26 0 -45 19z" />
    <glyph glyph-name="Ocircumflex" unicode="&#xd4;" horiz-adv-x="670" 
d="M120 726h97l68 40l67 -40h99l-103 107q-6 6 -15 11q-8 5 -19.5 8.5t-28.5 3.5t-28.5 -3.5t-19.5 -8.5q-9 -5 -14 -11zM0 403q0 -79 14 -137t48 -96t90 -56.5t140 -18.5q79 0 131.5 21.5t83.5 62t43.5 97.5t12.5 129q0 76 -15.5 131.5t-50 91.5t-90 53t-135.5 17
q-137 0 -204.5 -71.5t-67.5 -223.5zM195 406q-19 19 -19 44t18 43.5t44 18.5q11 -1 22.5 -5t21.5 -13l89 -89q9 -9 13.5 -21.5t4.5 -23.5q0 -26 -18 -44t-43 -18q-26 0 -45 19zM-64 619q-11 0 -19.5 8.5t-8.5 19.5q0 13 8 20q28 29 67 69.5t75 78.5q42 44 86 90q7 8 19.5 18
t30.5 19t41 15t50 6t49.5 -6t40 -14.5t30.5 -18.5t21 -19l233 -240q6 -9 6 -18q0 -11 -7 -19.5t-19 -8.5h-9q40 -86 40 -214q0 -83 -17.5 -158.5t-61 -133t-116.5 -91.5t-183 -34t-186.5 28.5t-123.5 82.5t-68 131t-21 173q0 125 43 216z" />
    <glyph glyph-name="Otilde" unicode="&#xd5;" horiz-adv-x="670" 
d="M345 724q43 0 63 22.5t34 62.5l-71 15q-8 -14 -15.5 -20.5t-24.5 -6.5q-13 0 -28 3.5t-31 7.5t-32 7.5t-31 3.5q-41 0 -62.5 -21t-34.5 -64l71 -14q9 14 16 20.5t24 6.5q13 0 28 -3.5t30.5 -8t31.5 -8t32 -3.5zM0 403q0 -79 14 -137t48 -96t90 -56.5t140 -18.5
q79 0 131.5 21.5t83.5 62t43.5 97.5t12.5 129q0 76 -15.5 131.5t-50 91.5t-90 53t-135.5 17q-137 0 -204.5 -71.5t-67.5 -223.5zM195 406q-19 19 -19 44t18 43.5t44 18.5q11 -1 22.5 -5t21.5 -13l89 -89q9 -9 13.5 -21.5t4.5 -23.5q0 -26 -18 -44t-43 -18q-26 0 -45 19z
M407 925l116 -24q19 -4 30.5 -20t11.5 -33q0 -5 -0.5 -9t-2.5 -8l-20 -58q-2 -8 -5.5 -16.5t-7.5 -16.5q72 -49 106.5 -133t34.5 -202q0 -83 -17.5 -158.5t-61 -133t-116.5 -91.5t-183 -34t-186.5 28.5t-123.5 82.5t-68 131t-21 173q0 97 25 171t73 126l19 64q9 31 25 60.5
t40 52t57 36t77 13.5q29 0 57 -8t59 -13l54 18q7 3 17 3q7 0 11 -1z" />
    <glyph glyph-name="Odieresis" unicode="&#xd6;" horiz-adv-x="670" 
d="M349 933h85q32 0 60.5 -12t50 -33t34 -50t12.5 -62q0 -40 -18 -73q50 -51 73.5 -125.5t23.5 -172.5q0 -83 -17.5 -158.5t-61 -133t-116.5 -91.5t-183 -34t-186.5 28.5t-123.5 82.5t-68 131t-21 173q0 191 97 296q-21 33 -21 77q0 33 12 61.5t33.5 49.5t50 33.5t61.5 12.5
h86q18 0 35 -4t33 -11q15 7 32.5 11t36.5 4zM298 776q0 -21 14.5 -36t36.5 -15h85q21 0 36 15t15 36t-15 36t-36 15h-85q-22 0 -36.5 -15t-14.5 -36zM75 776q0 -21 15 -36t36 -15h86q20 0 35 15t15 36t-15 36t-35 15h-86q-21 0 -36 -15t-15 -36zM0 403q0 -79 14 -137t48 -96
t90 -56.5t140 -18.5q79 0 131.5 21.5t83.5 62t43.5 97.5t12.5 129q0 76 -15.5 131.5t-50 91.5t-90 53t-135.5 17q-137 0 -204.5 -71.5t-67.5 -223.5zM195 406q-19 19 -19 44t18 43.5t44 18.5q11 -1 22.5 -5t21.5 -13l89 -89q9 -9 13.5 -21.5t4.5 -23.5q0 -26 -18 -44
t-43 -18q-26 0 -45 19z" />
    <glyph glyph-name="multiply" unicode="&#xd7;" horiz-adv-x="500" 
d="M196 138l-19 -20q-21 -22 -46.5 -32.5t-49.5 -10.5q-60 0 -102 42l-42 42q-23 23 -33 48.5t-10 50.5q0 31 12.5 56t29.5 42l21 21l-20 19q-23 22 -33 48t-10 52q0 25 9.5 50.5t30.5 46.5l46 46q23 23 48.5 33t50.5 10q28 -1 53 -12t45 -30l21 -21l21 21q17 17 41.5 29.5
t56.5 12.5q29 0 54.5 -12t40.5 -27l48 -47q21 -21 30.5 -46.5t9.5 -50.5q-1 -26 -10.5 -52.5t-30.5 -46.5l-21 -20l21 -21q20 -20 30.5 -46.5t10.5 -52.5q0 -25 -9.5 -50.5t-30.5 -46.5l-46 -45q-23 -23 -48.5 -33t-50.5 -10q-26 0 -52 11t-46 31zM292 192q10 -10 23 -10
q6 0 12 2.5t10 7.5l48 46q9 9 9 22q0 14 -10 23l-98 97l98 96q10 9 10 23q0 13 -9 22l-45 44q-12 10 -23 10q-12 0 -22 -10l-96 -99l-98 99q-9 10 -22 10t-22 -10l-47 -47q-9 -9 -9 -22t9 -22l100 -97l-100 -97q-9 -8 -9 -22q0 -13 9 -22l45 -44q9 -10 23 -10q13 0 22 10
l96 98z" />
    <glyph glyph-name="Oslash" unicode="&#xd8;" horiz-adv-x="679" 
d="M479 657q-20 13 -44 21t-50.5 12.5t-53.5 6t-52 1.5q-76 0 -128 -21t-83.5 -60.5t-45 -96.5t-13.5 -129q0 -29 1.5 -53t5.5 -46.5t12 -45.5t22 -48l-49 -49l46 -56l46 49q13 -11 30.5 -20t41.5 -15t57.5 -9.5t80.5 -3.5q77 0 128.5 21t83 60t44.5 95t13 127q0 31 -1.5 57
t-5.5 51t-12.5 49t-21.5 50l37 41l-47 57zM203 406q-18 18 -18 44q0 25 17.5 43.5t43.5 18.5q11 -1 23 -5t22 -13l89 -89q8 -8 13 -21t5 -24q0 -27 -18.5 -44.5t-42.5 -17.5q-26 0 -45 19zM-78 228q-13 42 -16.5 80.5t-3.5 82.5q0 85 19 160.5t63.5 131.5t116.5 88.5
t178 32.5q33 0 78.5 -3t92.5 -17q36 24 75 24q36 0 64 -14.5t47 -38t28.5 -51.5t9.5 -55q0 -18 -4 -34.5t-14 -32.5q15 -48 19 -92t4 -93q0 -84 -18.5 -158.5t-62.5 -130.5t-116 -88.5t-179 -32.5q-49 0 -97.5 5t-86.5 18q-37 -23 -73 -23q-38 0 -67 15.5t-48 39t-28.5 51.5
t-9.5 54q0 21 8 41.5t21 39.5z" />
    <glyph glyph-name="Ugrave" unicode="&#xd9;" horiz-adv-x="598" 
d="M4 785q-4 13 -4 32q0 25 9.5 48t26.5 40t40 27t50 10h94q35 0 63.5 -16.5t45.5 -44.5l47 -74q3 -4 7 -14h58q32 0 60.5 -12.5t50 -34t34 -50t12.5 -60.5v-337q-5 -84 -40 -150q-15 -28 -38.5 -55t-57 -48t-79.5 -33.5t-106 -12.5h-62q-62 0 -109.5 15t-83.5 39.5
t-60.5 55.5t-39.5 64t-22 65t-7 57v340q0 54 31.5 94.5t79.5 54.5zM270 724q8 0 13 5.5t5 11.5q0 5 -3 11l-46 72q-6 11 -19 11h-94q-8 0 -13.5 -5t-5.5 -13q0 -7 5 -12l83 -72q9 -9 20 -9h55zM0 299q3 -54 27 -96q10 -18 25.5 -35.5t38 -31t53 -21.5t71.5 -8h62
q40 0 70.5 8t53 21.5t38 31t25.5 35.5q24 42 27 96v337q0 20 -15 35t-35 15h-110q-21 0 -36 -15t-15 -35v-341q0 -14 -10 -23.5t-24 -9.5q-15 0 -24.5 9.5t-9.5 23.5v341q0 20 -15 35t-36 15h-110q-21 0 -36 -15t-15 -35v-337z" />
    <glyph glyph-name="Uacute" unicode="&#xda;" horiz-adv-x="598" 
d="M105 793l54 88q16 29 45.5 45t64.5 16h94q26 0 48.5 -10t39.5 -27t27 -40t10 -48q0 -8 -1 -15.5t-3 -14.5q50 -15 82 -56t32 -95v-337q-5 -84 -40 -150q-15 -28 -38.5 -55t-57 -48t-79.5 -33.5t-106 -12.5h-62q-62 0 -109.5 15t-83.5 39.5t-60.5 55.5t-39.5 64t-22 65
t-7 57v340q0 33 12.5 61.5t34 49.5t50.5 33.5t61 12.5h54zM274 724q9 0 20 9l83 72q5 7 5 12q0 8 -5.5 13t-13.5 5h-94q-13 0 -20 -11l-46 -72q-2 -4 -2 -11q0 -6 4.5 -11.5t12.5 -5.5h56zM0 299q3 -54 27 -96q10 -18 25.5 -35.5t38 -31t53 -21.5t71.5 -8h62q40 0 70.5 8
t53 21.5t38 31t25.5 35.5q24 42 27 96v337q0 20 -15 35t-35 15h-110q-21 0 -36 -15t-15 -35v-341q0 -14 -10 -23.5t-24 -9.5q-15 0 -24.5 9.5t-9.5 23.5v341q0 20 -15 35t-36 15h-110q-21 0 -36 -15t-15 -35v-337z" />
    <glyph glyph-name="Ucircumflex" unicode="&#xdb;" horiz-adv-x="598" 
d="M-107 556q0 123 87 215q30 32 53.5 56.5t40.5 41.5q19 20 34 35q7 8 19.5 18t30.5 19t41 15t50 6t49.5 -6t40 -14.5t30.5 -18.5t21 -19q18 -19 35 -37q14 -15 29.5 -30.5l26.5 -26.5q117 -122 117 -289v-132q0 -58 -1 -89t-4 -51q-7 -39 -27.5 -82.5t-58.5 -80.5
t-94.5 -61.5t-135.5 -24.5h-62q-62 0 -109.5 15t-83.5 39.5t-60.5 55.5t-39.5 64t-22 65t-7 57v260zM84 725h97l68 40l67 -40h99l-103 107q-6 6 -15 11q-8 5 -19.5 8.5t-28.5 3.5t-28.5 -3.5t-19.5 -8.5q-9 -5 -15 -11zM0 299q3 -54 27 -96q10 -18 25.5 -35.5t38 -31
t53 -21.5t71.5 -8h62q40 0 70.5 8t53 21.5t38 31t25.5 35.5q24 42 27 96v337q0 20 -15 35t-35 15h-110q-21 0 -36 -15t-15 -35v-341q0 -14 -10 -23.5t-24 -9.5q-15 0 -24.5 9.5t-9.5 23.5v341q0 20 -15 35t-36 15h-110q-21 0 -36 -15t-15 -35v-337z" />
    <glyph glyph-name="Udieresis" unicode="&#xdc;" horiz-adv-x="599" 
d="M320 933h85q32 0 60.5 -12t50 -33t34 -50t12.5 -62q0 -20 -4 -36q19 -20 30 -47t11 -57v-337q-5 -84 -40 -150q-15 -28 -38.5 -55t-57.5 -48t-80 -33.5t-106 -12.5h-62q-61 0 -108.5 15t-83.5 39.5t-60.5 55.5t-39.5 64t-22 65t-7 57v340q0 33 13 62t35 50q-1 8 -1.5 15
t-0.5 13q0 33 12.5 61.5t33.5 49.5t49.5 33.5t61.5 12.5h86q18 0 35 -4t33 -11q16 7 33 11t36 4zM269 776q0 -21 15 -36t36 -15h85q21 0 36 15t15 36t-15 36t-36 15h-85q-21 0 -36 -15t-15 -36zM47 776q0 -21 14.5 -36t35.5 -15h86q20 0 35 15t15 36t-15 36t-35 15h-86
q-21 0 -35.5 -15t-14.5 -36zM1 299q3 -54 27 -96q10 -18 25.5 -35.5t38 -31t53 -21.5t70.5 -8h62q40 0 70.5 8t53.5 21.5t38.5 31t25.5 35.5q24 42 27 96v337q0 20 -15 35t-35 15h-110q-22 0 -37 -15t-15 -35v-341q0 -14 -10 -23.5t-24 -9.5t-24 9.5t-10 23.5v341
q0 20 -15 35t-36 15h-109q-21 0 -36 -15t-15 -35v-337z" />
    <glyph glyph-name="Yacute" unicode="&#xdd;" horiz-adv-x="580" 
d="M101 794l53 87q17 28 46 44.5t63 16.5h94q26 0 49 -10t40 -27t27 -40t10 -48q0 -15 -3 -28q44 -13 72 -50.5t28 -82.5q-1 -11 -2.5 -24t-6.5 -27l-116 -315v-132q0 -33 -12.5 -62t-34 -50t-50 -33.5t-60.5 -12.5h-126q-33 0 -61.5 12.5t-49.5 34t-33 50t-12 61.5v133
l-114 317q-4 11 -6.5 23t-2.5 25q0 28 10.5 53t29.5 44t44 30t55 11h69zM269 724q9 0 20 9l82 72q6 6 6 12q0 8 -5.5 13t-14.5 5h-94q-12 0 -19 -11l-46 -72q-3 -6 -3 -11q0 -6 5 -11.5t13 -5.5h56zM122 158q0 -22 14.5 -36.5t35.5 -14.5h126q21 0 36 14.5t15 36.5v151
l122 336q3 4 3 11q0 12 -9 21.5t-23 9.5h-105q-17 0 -31 -11t-18 -29l-48 -221l-44 221q-4 17 -17.5 28.5t-31.5 11.5h-115q-14 0 -23 -9t-9 -22q0 -3 2 -11l120 -336v-151z" />
    <glyph glyph-name="Thorn" unicode="&#xde;" horiz-adv-x="533" 
d="M301 87q-20 -39 -57.5 -63t-83.5 -24h-109q-32 0 -60.5 12t-50 33t-34.5 50t-13 63v478q0 34 13 62.5t35 49.5t50.5 33t59.5 12h109q48 0 86.5 -25.5t57.5 -67.5q47 -10 89 -31t73 -55.5t49 -83t18 -113.5q0 -57 -14.5 -110.5t-43 -97.5t-72.5 -76t-102 -46zM209 459
q0 7 5.5 12t12.5 5q19 0 32 -13t13 -32v-65q0 -20 -13 -33t-32 -13q-7 0 -12.5 5t-5.5 12v122zM0 158q0 -22 15.5 -36.5t35.5 -14.5h109q21 0 36 14.5t15 36.5v26h4q52 0 91.5 17.5t66 48.5t40 73.5t13.5 93.5t-14.5 86.5t-41 57.5t-64.5 31.5t-85 9.5h-10v34q0 21 -15 35.5
t-36 14.5h-109q-20 0 -35.5 -14.5t-15.5 -35.5v-478z" />
    <glyph glyph-name="germandbls" unicode="&#xdf;" horiz-adv-x="649" 
d="M240 23q-37 -23 -82 -23h-108q-33 0 -61.5 12.5t-50 34t-33.5 50.5t-12 61v478q0 32 12.5 60.5t33.5 50t49.5 34t61.5 12.5h270q24 0 55 -3t63.5 -12t64 -25.5t56.5 -42.5t40 -63.5t15 -89.5q0 -59 -25 -109q27 -32 43.5 -72t16.5 -87q0 -66 -22 -119.5t-62.5 -91
t-99 -58t-131.5 -20.5q-21 0 -45.5 5.5t-48.5 17.5zM331 300q0 -31 -11 -46t-24.5 -26t-24.5 -23t-11 -36q0 -32 21.5 -47t52.5 -15q107 0 157.5 49.5t50.5 132.5q0 25 -9.5 48t-24.5 40.5t-35 29.5t-41 16q40 32 58 64.5t18 69.5q0 38 -15.5 63t-41.5 39.5t-60 20.5t-71 6
h-270q-21 0 -35.5 -14.5t-14.5 -35.5v-478q0 -22 14.5 -36.5t35.5 -14.5h108q21 0 36 14.5t15 36.5v396q0 5 3.5 8.5t8.5 3.5h38q20 0 33.5 -13t13.5 -32t-10.5 -33.5t-30.5 -14.5q-9 0 -15.5 -7t-6.5 -15v-80q0 -8 6.5 -15t15.5 -7h12q22 0 38 -13t16 -36z" />
    <glyph glyph-name="agrave" unicode="&#xe0;" 
d="M9 654q-13 28 -13 55q0 25 9.5 48t26.5 40t40 27t49 10h94q34 0 63.5 -16.5t46.5 -44.5l55 -91q56 -9 96 -33.5t66 -61t38 -83t12 -98.5v-248q0 -33 -12 -61.5t-33.5 -50t-50 -34t-61.5 -12.5h-105q-20 0 -38 5t-34 13q-20 -8 -43.5 -13t-50.5 -5q-48 0 -96.5 15t-87 45
t-63 76.5t-24.5 109.5q0 81 38 137q-6 18 -6 40v75q0 50 23 90.5t61 65.5zM266 616q8 0 12.5 5.5t4.5 11.5q0 7 -3 11l-45 72q-7 11 -20 11h-94q-8 0 -13.5 -5t-5.5 -13q0 -5 5 -12l83 -72q10 -9 20 -9h56zM238 431q28 0 34 -10t7 -38v-6q-36 6 -87 6q-38 0 -72.5 -4.5
t-61 -19t-42.5 -41.5t-16 -72q0 -68 44.5 -102.5t113.5 -36.5h6q40 0 63 15t35 33q14 21 18 48v-45q0 -22 15 -36.5t35 -14.5h105q21 0 35.5 14.5t14.5 36.5v248q0 83 -36.5 128.5t-127.5 45.5h-206q-34 0 -58.5 -24t-24.5 -58v-75q0 -11 7 -18t18 -7h103q9 0 16.5 7t7.5 18
v8h54zM279 245h-47q-12 0 -21.5 1t-16.5 5t-11 12.5t-4 22.5q0 31 18 37t53 6q4 0 11 -0.5t18 -1.5v-82z" />
    <glyph glyph-name="aacute" unicode="&#xe1;" 
d="M166 773q17 28 45.5 44.5t63.5 16.5h94q26 0 49 -10t40 -27t27 -40t10 -48q0 -17 -4.5 -32t-12.5 -29q60 -37 87 -100.5t27 -141.5v-248q0 -33 -12 -61.5t-33.5 -50t-50 -34t-61.5 -12.5h-105q-20 0 -38 5t-34 13q-20 -8 -43.5 -13t-50.5 -5q-48 0 -96.5 15t-87 45
t-63 76.5t-24.5 109.5q0 81 38 137q-6 18 -6 40v75q0 39 15 73t40.5 59.5t59.5 40.5t72 16zM280 616q11 0 20 9l83 72q5 5 5 12q0 8 -5.5 13t-13.5 5h-94q-14 0 -19 -11l-46 -72q-3 -6 -3 -11q0 -6 5 -11.5t13 -5.5h55zM238 431q28 0 34 -10t7 -38v-6q-36 6 -87 6
q-38 0 -72.5 -4.5t-61 -19t-42.5 -41.5t-16 -72q0 -68 44.5 -102.5t113.5 -36.5h6q40 0 63 15t35 33q14 21 18 48v-45q0 -22 15 -36.5t35 -14.5h105q21 0 35.5 14.5t14.5 36.5v248q0 83 -36.5 128.5t-127.5 45.5h-206q-34 0 -58.5 -24t-24.5 -58v-75q0 -11 7 -18t18 -7h103
q9 0 16.5 7t7.5 18v8h54zM279 245h-47q-12 0 -21.5 1t-16.5 5t-11 12.5t-4 22.5q0 31 18 37t53 6q4 0 11 -0.5t18 -1.5v-82z" />
    <glyph glyph-name="acircumflex" unicode="&#xe2;" 
d="M98 796q7 8 19.5 18t30.5 19t41 15t50 6q28 0 50.5 -6t39.5 -14.5t30 -18.5t21 -19l102 -105q20 -20 30 -41t13 -40q35 -38 51 -90.5t16 -113.5v-248q0 -33 -12 -61.5t-33.5 -50t-50 -34t-61.5 -12.5h-105q-20 0 -38 5t-34 13q-20 -8 -43.5 -13t-50.5 -5q-48 0 -96.5 15
t-87 45t-63 76.5t-24.5 109.5q0 81 38 137q-6 18 -6 40v75q0 28 8 53.5t22 47.5q0 22 9.5 45t32.5 47zM74 617h97l68 40l67 -40h100l-104 107q-6 6 -15 11q-8 5 -19.5 8.5t-28.5 3.5t-28.5 -3.5t-19.5 -8.5q-9 -5 -14 -11zM238 431q28 0 34 -10t7 -38v-6q-36 6 -87 6
q-38 0 -72.5 -4.5t-61 -19t-42.5 -41.5t-16 -72q0 -68 44.5 -102.5t113.5 -36.5h6q40 0 63 15t35 33q14 21 18 48v-45q0 -22 15 -36.5t35 -14.5h105q21 0 35.5 14.5t14.5 36.5v248q0 83 -36.5 128.5t-127.5 45.5h-206q-34 0 -58.5 -24t-24.5 -58v-75q0 -11 7 -18t18 -7h103
q9 0 16.5 7t7.5 18v8h54zM279 245h-47q-12 0 -21.5 1t-16.5 5t-11 12.5t-4 22.5q0 31 18 37t53 6q4 0 11 -0.5t18 -1.5v-82z" />
    <glyph glyph-name="atilde" unicode="&#xe3;" 
d="M311 616q43 0 63 22.5t34 62.5l-71 15q-8 -14 -15.5 -20.5t-24.5 -6.5q-13 0 -28 3.5t-31 7.5t-32 7.5t-31 3.5q-41 0 -62.5 -21t-34.5 -64l71 -14q9 14 16 20.5t24 6.5q13 0 28 -3.5t30.5 -8t31.5 -8t32 -3.5zM238 431q28 0 34 -10t7 -38v-6q-36 6 -87 6
q-38 0 -72.5 -4.5t-61 -19t-42.5 -41.5t-16 -72q0 -68 44.5 -102.5t113.5 -36.5h6q40 0 63 15t35 33q14 21 18 48v-45q0 -22 15 -36.5t35 -14.5h105q21 0 35.5 14.5t14.5 36.5v248q0 83 -36.5 128.5t-127.5 45.5h-206q-34 0 -58.5 -24t-24.5 -58v-75q0 -11 7 -18t18 -7h103
q9 0 16.5 7t7.5 18v8h54zM279 245h-47q-12 0 -21.5 1t-16.5 5t-11 12.5t-4 22.5q0 31 18 37t53 6q4 0 11 -0.5t18 -1.5v-82zM373 817l116 -24q19 -4 30.5 -20t11.5 -33q0 -5 -0.5 -9t-2.5 -8l-20 -58q-2 -7 -5 -14.5t-6 -14.5q49 -38 72 -98t23 -132v-248q0 -33 -12 -61.5
t-33.5 -50t-50 -34t-61.5 -12.5h-105q-20 0 -38 5t-34 13q-20 -8 -43.5 -13t-50.5 -5q-48 1 -96.5 16t-87 45t-63 76t-24.5 109q0 81 38 137q-6 18 -6 40v75q0 32 10 60.5t27 51.5l14 46q9 31 24.5 60.5t39.5 52t57 36t78 13.5q29 0 57 -8t59 -13l54 18q7 3 17 3q7 0 11 -1z
" />
    <glyph glyph-name="adieresis" unicode="&#xe4;" 
d="M309 825h85q32 0 61 -12t50.5 -33t34 -50t12.5 -62q0 -37 -17 -71q29 -37 43 -86t14 -105v-248q0 -33 -12 -61.5t-33.5 -50t-50 -34t-61.5 -12.5h-105q-20 0 -38 5t-34 13q-20 -8 -43.5 -13t-50.5 -5q-48 0 -96.5 15t-87 45t-63 76.5t-24.5 109.5q0 81 38 137
q-6 18 -6 40v75q0 51 25 93q-20 35 -20 77q0 33 12 61.5t33.5 49.5t50 33.5t61.5 12.5h85q19 0 36 -4t32 -11q16 7 33.5 11t35.5 4zM259 668q0 -21 14.5 -36t35.5 -15h85q22 0 36.5 15t14.5 36t-14.5 36t-36.5 15h-85q-21 0 -35.5 -15t-14.5 -36zM36 668q0 -21 14.5 -36
t36.5 -15h85q21 0 36 15t15 36t-15 36t-36 15h-85q-22 0 -36.5 -15t-14.5 -36zM238 431q28 0 34 -10t7 -38v-6q-36 6 -87 6q-38 0 -72.5 -4.5t-61 -19t-42.5 -41.5t-16 -72q0 -68 44.5 -102.5t113.5 -36.5h6q40 0 63 15t35 33q14 21 18 48v-45q0 -22 15 -36.5t35 -14.5h105
q21 0 35.5 14.5t14.5 36.5v248q0 83 -36.5 128.5t-127.5 45.5h-206q-34 0 -58.5 -24t-24.5 -58v-75q0 -11 7 -18t18 -7h103q9 0 16.5 7t7.5 18v8h54zM279 245h-47q-12 0 -21.5 1t-16.5 5t-11 12.5t-4 22.5q0 31 18 37t53 6q4 0 11 -0.5t18 -1.5v-82z" />
    <glyph glyph-name="aring" unicode="&#xe5;" 
d="M104 813q32 17 70 24.5t77 7.5q38 0 75.5 -7.5t70.5 -24.5q14 -7 31.5 -19t32.5 -29.5t25.5 -41.5t10.5 -54q0 -8 -1 -16t-2 -15q51 -38 74.5 -98.5t23.5 -133.5v-248q0 -33 -12 -61.5t-33.5 -50t-50 -34t-61.5 -12.5h-105q-20 0 -38 5t-34 13q-20 -8 -43.5 -13t-50.5 -5
q-48 0 -96.5 15t-87 45.5t-63 76.5t-24.5 109q0 81 38 137q-6 18 -6 40v75q0 48 22 88t58 66q-1 4 -1 8v9q0 30 10.5 54t25.5 41.5t32.5 29.5t31.5 19zM111 669q0 -15 11 -27.5t30 -22t44.5 -15t54.5 -5.5t54.5 5.5t44 15t29.5 22t11 27.5q0 14 -11 27t-29.5 22.5t-44 15
t-54.5 5.5t-54.5 -5.5t-44.5 -15t-30 -22.5t-11 -27zM196 669q0 15 16 26t39 11t39 -11t16 -26q0 -16 -16 -27t-39 -11t-39 11t-16 27zM238 431q28 0 34 -10t7 -38v-6q-36 6 -87 6q-38 0 -72.5 -4.5t-61 -19t-42.5 -41.5t-16 -72q0 -68 44.5 -102.5t113.5 -36.5h6
q40 0 63 15t35 33q14 21 18 48v-45q0 -22 15 -36.5t35 -14.5h105q21 0 35.5 14.5t14.5 36.5v248q0 83 -36.5 128.5t-127.5 45.5h-206q-34 0 -58.5 -24t-24.5 -58v-75q0 -11 7 -18t18 -7h103q9 0 16.5 7t7.5 18v8h54zM279 245h-47q-12 0 -21.5 1t-16.5 5t-11 12.5t-4 22.5
q0 31 18 37t53 6q4 0 11 -0.5t18 -1.5v-82z" />
    <glyph glyph-name="ae" unicode="&#xe6;" horiz-adv-x="808" 
d="M257 18q-20 -8 -43 -13t-50 -5q-48 0 -96.5 15t-87 45t-63 76.5t-24.5 109.5q0 81 38 137q-6 18 -6 40v75q0 39 15 73.5t41 60t60.5 40.5t73.5 15h182q19 0 34.5 -2.5t27.5 -5.5q24 5 47 6.5t51 1.5h80q54 0 103.5 -19t86.5 -54t59 -85t22 -111q0 -24 -4 -45t-11 -39
q14 -30 14 -61q0 -65 -26.5 -115.5t-69 -85.5t-94.5 -53.5t-103 -18.5h-184q-20 0 -38 5t-35 13zM428 374q0 29 10.5 50t45.5 21q30 0 41.5 -12t11.5 -31t-7.5 -27.5t-32.5 -8.5q-47 0 -69 3v5zM279 245h-47q-12 0 -21.5 1t-16.5 5t-11 12.5t-4 22.5q0 31 18 37t53 6
q4 0 11 -0.5t18 -1.5v-82zM238 431q28 0 34 -10t7 -38v-6q-36 6 -87 6q-38 0 -72.5 -4.5t-61 -19t-42.5 -41.5t-16 -72q0 -68 44.5 -102.5t113.5 -36.5h6q37 0 60 13.5t35 31t16 33t5 18.5v-45q0 -22 15 -36.5t35 -14.5h184q36 0 69.5 12t60 33.5t42 52t15.5 66.5
q0 11 -7 18.5t-18 7.5h-103q-10 0 -16.5 -7t-6.5 -17v-29h-72q-23 0 -36.5 17t-13.5 48v5q22 -2 46.5 -3.5t50.5 -1.5q32 0 64 3t57 14t40.5 32.5t15.5 58.5q0 38 -13 68t-35.5 51t-52.5 32.5t-64 11.5h-80q-35 0 -55.5 -2t-44.5 -10q-8 3 -18 6q-8 2 -19 4t-23 2h-182
q-34 0 -58.5 -24t-24.5 -58v-75q0 -11 7 -18t18 -7h103q9 0 16.5 7t7.5 18v8h54z" />
    <glyph glyph-name="ccedilla" unicode="&#xe7;" horiz-adv-x="518" 
d="M18 58q-32 24 -55.5 56t-39 69.5t-23 79.5t-7.5 86q0 78 22.5 141.5t65 107.5t103 68t135.5 24h23q54 0 103.5 -20.5t88 -57t61.5 -86t23 -107.5v-13q0 -33 -16 -62q16 -29 16 -62v-13q0 -43 -12.5 -81t-34.5 -69.5t-52 -56t-65 -39.5q-10 -27 -27 -52.5t-40.5 -45
t-54 -31.5t-67.5 -12q-31 0 -58 12t-47.5 32t-32 47.5t-11.5 58.5v12.5t2 13.5zM219 584q-104 0 -161.5 -59t-57.5 -176q0 -55 12.5 -100t38.5 -77.5t67 -50t98 -17.5q0 -11 -8 -17t-18 -9t-18.5 -3.5t-11.5 -0.5q-17 0 -27.5 -13t-10.5 -29q0 -18 12.5 -30.5t30.5 -12.5
q22 0 40 10t31 26.5t20.5 38t7.5 43.5q30 4 57 18t47 36t31.5 49.5t11.5 58.5v13q0 10 -7 17t-17 7h-106q-12 0 -16 -8.5t-8 -19t-11 -19t-23 -8.5q-17 0 -28 11t-11 27v112q0 17 11 27.5t26 10.5q17 0 24 -9t11 -19.5t8 -19t16 -8.5h107q10 0 17 6.5t7 16.5v13q0 34 -14 64
t-37 52.5t-54 35.5t-65 13h-22z" />
    <glyph glyph-name="egrave" unicode="&#xe8;" 
d="M33 642q-21 32 -21 67q0 25 9.5 48t26.5 40t40 27t50 10h94q34 0 63 -16t46 -45l56 -93q42 -12 77.5 -35.5t62 -57.5t41 -77t14.5 -93q0 -24 -4 -45t-12 -40q15 -29 15 -61q0 -65 -26.5 -115.5t-69 -85t-94.5 -52.5t-103 -18h-71q-170 0 -252 87t-82 261q0 105 34.5 179
t105.5 115zM282 616q8 0 13 5.5t5 11.5q0 5 -3 11l-46 72q-7 11 -19 11h-94q-8 0 -14 -5t-6 -13q0 -6 6 -12l82 -72q10 -9 20 -9h56zM298 107q36 0 69.5 12t60 33.5t42 52t15.5 66.5q0 11 -7 18.5t-17 7.5h-103q-11 0 -17.5 -7t-6.5 -17v-15h-72q-23 0 -36.5 10t-13.5 41v5
q22 -2 46.5 -3.5t51.5 -1.5q32 0 63.5 3t56 14t40 32.5t15.5 58.5q0 38 -13 69t-35 52.5t-52 33.5t-64 12h-81q-65 0 -110.5 -14t-74.5 -43.5t-42 -74t-13 -104.5q0 -66 13 -112t40.5 -74.5t70.5 -41.5t103 -13h71zM212 374q0 29 10.5 50t46.5 21q29 0 40.5 -12t11.5 -31
t-7.5 -27.5t-31.5 -8.5q-48 0 -70 3v5z" />
    <glyph glyph-name="eacute" unicode="&#xe9;" 
d="M108 674q4 12 12 25l46 74q17 28 46 44.5t64 16.5h94q26 0 49 -10t40 -27t27 -40t10 -48q0 -18 -5.5 -34.5t-14.5 -30.5q53 -36 84.5 -94t31.5 -133q0 -24 -4 -45t-12 -40q15 -29 15 -61q0 -65 -26.5 -115.5t-69 -85t-94.5 -52.5t-103 -18h-71q-170 0 -252 87t-82 261
q0 130 53 213t162 113zM281 616q11 0 20 9l83 72q5 5 5 12q0 8 -5.5 13t-13.5 5h-94q-14 0 -19 -11l-46 -72q-3 -6 -3 -11q0 -6 5 -11.5t13 -5.5h55zM298 107q36 0 69.5 12t60 33.5t42 52t15.5 66.5q0 11 -7 18.5t-17 7.5h-103q-11 0 -17.5 -7t-6.5 -17v-15h-72
q-23 0 -36.5 10t-13.5 41v5q22 -2 46.5 -3.5t51.5 -1.5q32 0 63.5 3t56 14t40 32.5t15.5 58.5q0 38 -13 69t-35 52.5t-52 33.5t-64 12h-81q-65 0 -110.5 -14t-74.5 -43.5t-42 -74t-13 -104.5q0 -66 13 -112t40.5 -74.5t70.5 -41.5t103 -13h71zM212 374q0 29 10.5 50t46.5 21
q29 0 40.5 -12t11.5 -31t-7.5 -27.5t-31.5 -8.5q-48 0 -70 3v5z" />
    <glyph glyph-name="ecircumflex" unicode="&#xea;" 
d="M115 796q6 8 18.5 18t30.5 19t41 15t50 6q28 0 50.5 -6t40 -14.5t30 -18.5t21.5 -19l102 -105q22 -23 32 -46t10 -44q0 -5 -0.5 -9t-1.5 -9q25 -34 39 -75.5t14 -90.5q0 -24 -4 -45t-12 -40q15 -29 15 -61q0 -65 -26.5 -115.5t-69 -85t-94.5 -52.5t-103 -18h-71
q-170 0 -252 87t-82 261q0 158 78 245q0 2 -0.5 4t-0.5 4q0 21 10.5 44t32.5 46zM90 617h97l68 40l68 -40h99l-104 107q-6 6 -15 11q-8 5 -19.5 8.5t-28.5 3.5t-28.5 -3.5t-19.5 -8.5q-9 -5 -14 -11zM298 107q36 0 69.5 12t60 33.5t42 52t15.5 66.5q0 11 -7 18.5t-17 7.5
h-103q-11 0 -17.5 -7t-6.5 -17v-15h-72q-23 0 -36.5 10t-13.5 41v5q22 -2 46.5 -3.5t51.5 -1.5q32 0 63.5 3t56 14t40 32.5t15.5 58.5q0 38 -13 69t-35 52.5t-52 33.5t-64 12h-81q-65 0 -110.5 -14t-74.5 -43.5t-42 -74t-13 -104.5q0 -66 13 -112t40.5 -74.5t70.5 -41.5
t103 -13h71zM212 374q0 29 10.5 50t46.5 21q29 0 40.5 -12t11.5 -31t-7.5 -27.5t-31.5 -8.5q-48 0 -70 3v5z" />
    <glyph glyph-name="edieresis" unicode="&#xeb;" 
d="M318 825h85q32 0 60.5 -12t50.5 -33t34.5 -50t12.5 -62q0 -23 -6.5 -43.5t-17.5 -39.5q26 -34 40.5 -76.5t14.5 -91.5q0 -24 -4 -45t-12 -40q15 -29 15 -61q0 -65 -26.5 -115.5t-69 -85t-94.5 -52.5t-103 -18h-71q-170 0 -252 87t-82 261q0 74 17.5 133t52.5 102
q-24 37 -24 85q0 33 12 61.5t33 49.5t49.5 33.5t61.5 12.5h86q19 0 36 -4t32 -11q16 7 33.5 11t35.5 4zM268 668q0 -21 14.5 -36t35.5 -15h85q21 0 36 15t15 36t-15 36t-36 15h-85q-21 0 -35.5 -15t-14.5 -36zM45 668q0 -21 14.5 -36t35.5 -15h86q21 0 36 15t15 36t-15 36
t-36 15h-86q-21 0 -35.5 -15t-14.5 -36zM298 107q36 0 69.5 12t60 33.5t42 52t15.5 66.5q0 11 -7 18.5t-17 7.5h-103q-11 0 -17.5 -7t-6.5 -17v-15h-72q-23 0 -36.5 10t-13.5 41v5q22 -2 46.5 -3.5t51.5 -1.5q32 0 63.5 3t56 14t40 32.5t15.5 58.5q0 38 -13 69t-35 52.5
t-52 33.5t-64 12h-81q-65 0 -110.5 -14t-74.5 -43.5t-42 -74t-13 -104.5q0 -66 13 -112t40.5 -74.5t70.5 -41.5t103 -13h71zM212 374q0 29 10.5 50t46.5 21q29 0 40.5 -12t11.5 -31t-7.5 -27.5t-31.5 -8.5q-48 0 -70 3v5z" />
    <glyph glyph-name="igrave" unicode="&#xec;" horiz-adv-x="348" 
d="M-54 608l-12 11q-17 16 -28 40t-11 50q0 25 9.5 48t26.5 40t40 27t50 10h94q34 0 62.5 -16.5t46.5 -44.5l47 -74q7 -11 10.5 -22.5t6.5 -23.5q28 -21 44 -53.5t16 -70.5v-371q0 -33 -12.5 -62t-34 -50.5t-50 -33.5t-60.5 -12h-109q-32 0 -61 12t-50.5 33.5t-34 50.5
t-12.5 62v371q0 22 6 42t16 37zM165 616q8 0 13 5.5t5 11.5q0 5 -3 11l-46 72q-7 11 -19 11h-94q-8 0 -14 -5t-6 -13q0 -6 6 -12l82 -72q10 -9 20 -9h56zM31 158q0 -22 15 -36.5t36 -14.5h109q21 0 36 14.5t15 36.5v371q0 21 -15 36t-36 15h-109q-21 0 -36 -15t-15 -36v-371
z" />
    <glyph glyph-name="iacute" unicode="&#xed;" horiz-adv-x="317" 
d="M-61 640q2 15 6.5 30.5t12.5 28.5l46 74q17 28 46 44.5t64 16.5h94q26 0 49 -10t40 -27t27 -40t10 -48q0 -26 -11 -49.5t-28 -40.5l-4 -3q26 -38 26 -87v-371q0 -33 -12.5 -62t-34 -50.5t-50 -33.5t-60.5 -12h-109q-32 0 -61 12t-50.5 33.5t-34 50.5t-12.5 62v371
q0 33 12.5 61.5t33.5 49.5zM119 616q9 0 20 9l83 72q5 5 5 12q0 8 -5.5 13t-13.5 5h-94q-14 0 -19 -11l-46 -72q-3 -6 -3 -11q0 -6 5 -11.5t13 -5.5h55zM0 158q0 -22 15 -36.5t36 -14.5h109q21 0 36 14.5t15 36.5v371q0 21 -15 36t-36 15h-109q-21 0 -36 -15t-15 -36v-371z
" />
    <glyph glyph-name="icircumflex" unicode="&#xee;" horiz-adv-x="464" 
d="M37 796q7 8 19.5 18t30.5 19t41 15t50 6q28 0 50.5 -6t39.5 -14.5t30 -18.5t21 -19l102 -105q22 -23 32.5 -46t10.5 -44q0 -29 -19 -52t-54 -32v-359q0 -33 -12.5 -62t-34 -50.5t-50.5 -33.5t-61 -12h-109q-32 0 -60.5 12t-50 33.5t-34 50.5t-12.5 62v359q-36 9 -55 32
t-19 52q0 21 10.5 44t32.5 46zM13 617h97l68 40l67 -40h99l-104 107q-5 6 -14 11q-8 5 -19.5 8.5t-28.5 3.5t-28.5 -3.5t-19.5 -8.5q-9 -5 -15 -11zM73 158q0 -22 15 -36.5t36 -14.5h109q21 0 36 14.5t15 36.5v371q0 21 -15 36t-36 15h-109q-21 0 -36 -15t-15 -36v-371z" />
    <glyph glyph-name="idieresis" unicode="&#xef;" horiz-adv-x="515" 
d="M273 825h85q32 0 60.5 -12t50 -33t34 -50t12.5 -62q0 -50 -27.5 -89.5t-72.5 -56.5v-364q0 -33 -12.5 -62t-34 -50.5t-50 -33.5t-60.5 -12h-109q-32 0 -61 12t-50.5 33.5t-34 50.5t-12.5 62v364q-44 17 -71 57t-27 89q0 33 12.5 61.5t33.5 49.5t49.5 33.5t61.5 12.5h86
q18 0 35 -4t33 -11q16 7 33 11t36 4zM222 668q0 -21 15 -36t36 -15h85q21 0 36 15t15 36t-15 36t-36 15h-85q-21 0 -36 -15t-15 -36zM0 668q0 -21 14.5 -36t35.5 -15h86q20 0 35 15t15 36t-15 36t-35 15h-86q-21 0 -35.5 -15t-14.5 -36zM98 158q0 -22 15 -36.5t36 -14.5h109
q21 0 36 14.5t15 36.5v371q0 21 -15 36t-36 15h-109q-21 0 -36 -15t-15 -36v-371z" />
    <glyph glyph-name="eth" unicode="&#xf0;" horiz-adv-x="573" 
d="M389 756q58 -31 94 -81t56 -102.5t27 -100.5t7 -75q0 -81 -17 -153t-58 -126.5t-108.5 -86t-169.5 -31.5q-68 0 -127.5 17.5t-103.5 54.5t-70 94t-26 135q0 64 18 109.5t48 77.5q-12 15 -18.5 31t-9.5 30q-4 16 -4 31v54q0 72 42 115.5t116 43.5h44q22 23 52 36.5
t62 13.5h32q41 0 72 -24.5t42 -62.5zM211 274q-43 0 -43 52q0 19 4.5 29.5t12.5 15.5t19.5 6.5t25.5 1.5q7 -2 12 -6q5 -5 8.5 -13t3.5 -22q0 -22 -11 -43t-32 -21zM100 505q-1 -2 -1 -4q0 -5 3.5 -9t8.5 -4h33q14 0 27.5 10t18.5 24l11 23h5q29 0 44.5 -8t23 -20t8.5 -24.5
t1 -21.5q0 -8 -7.5 -14t-24.5 -6q-25 2 -44.5 3.5t-33.5 1.5q-83 0 -128 -34.5t-45 -120.5q0 -101 57.5 -147.5t162.5 -46.5q70 0 117.5 19.5t76.5 56.5t41 91t12 123q0 32 -9 78.5t-31.5 90.5t-60.5 77.5t-96 40.5l16 36q0 1 0.5 2t0.5 2q0 12 -12 12h-32q-15 0 -28 -10
t-19 -24l-7 -16h-104q-29 0 -40.5 -11.5t-11.5 -40.5v-54q0 -10 4 -17q3 -7 9.5 -12t18.5 -5h53z" />
    <glyph glyph-name="ntilde" unicode="&#xf1;" horiz-adv-x="579" 
d="M296 616q43 0 63 22.5t34 62.5l-71 15q-8 -14 -15.5 -20.5t-24.5 -6.5q-13 0 -28 3.5t-30.5 7.5t-31.5 7.5t-31 3.5q-41 0 -62.5 -21t-34.5 -64l70 -14q9 14 16.5 20.5t24.5 6.5q13 0 27.5 -3.5t30 -8t31.5 -8t32 -3.5zM51 580q-21 0 -36 -14.5t-15 -35.5v-372
q0 -22 15 -36.5t36 -14.5h110q21 0 36 14.5t15 36.5v253q0 11 7 18.5t18 7.5t18.5 -7.5t7.5 -18.5v-253q0 -22 14.5 -36.5t35.5 -14.5h109q21 0 36 14.5t15 36.5v233q0 43 -6 78t-23 60t-47 39t-79 14q-36 0 -57 -15.5t-32 -33.5q-13 -21 -17 -48v45q0 21 -15 35.5t-36 14.5
h-110zM363 815l111 -22q19 -4 31 -20t12 -33q0 -10 -3 -17l-20 -58q-2 -5 -4.5 -11.5t-5.5 -12.5q29 -22 47.5 -51.5t29 -62.5t14.5 -68t4 -68v-233q0 -33 -12.5 -62t-34 -50.5t-50 -33.5t-60.5 -12h-109q-41 0 -76 19q-35 -19 -76 -19h-110q-32 0 -61 12t-50.5 33.5
t-34 50.5t-12.5 62v372q0 42 19 75.5t50 53.5q9 31 25 59.5t40 50.5t57 35.5t77 13.5q24 0 42 -3.5t31.5 -7t23.5 -7t18 -3.5q16 0 28 3.5t20.5 7t14 7t9.5 3.5q7 0 15 -3z" />
    <glyph glyph-name="ograve" unicode="&#xf2;" horiz-adv-x="619" 
d="M28 645q-8 14 -13 30.5t-5 33.5q0 25 9.5 48t26.5 40t40 27t49 10h94q35 0 64 -16.5t46 -44.5l55 -90q52 -13 93.5 -38.5t71 -66t45 -97.5t15.5 -132q0 -97 -25 -165.5t-72.5 -111.5t-114.5 -62.5t-151 -19.5q-81 0 -147.5 19t-114.5 62t-74.5 111.5t-26.5 166.5
q0 114 36 185.5t99 110.5zM280 616q8 0 12.5 5.5t4.5 11.5q0 7 -2 11l-46 72q-7 11 -20 11h-94q-8 0 -13.5 -5t-5.5 -13q0 -5 5 -12l83 -72q10 -9 20 -9h56zM0 349q0 -72 16.5 -120.5t49 -78t80 -41.5t110.5 -12q65 0 113.5 12.5t80 41.5t47 77.5t15.5 120.5
q0 71 -15.5 117.5t-47.5 74.5t-80 39t-114 11q-62 0 -109.5 -11t-80 -39t-49 -74.5t-16.5 -117.5zM186 369q-5 9 -5 22q0 20 13.5 34.5t34.5 14.5q11 0 22.5 -6t17.5 -17l57 -98q6 -11 6 -23q0 -18 -14.5 -33.5t-34.5 -15.5q-26 0 -40 25z" />
    <glyph glyph-name="oacute" unicode="&#xf3;" horiz-adv-x="619" 
d="M160 773q18 28 46 44.5t63 16.5h94q26 0 49 -10t40 -27t27 -40t10 -48q0 -15 -4 -29t-11 -28q69 -38 107 -110.5t38 -192.5q0 -97 -25 -165.5t-72.5 -111.5t-114.5 -62.5t-151 -19.5q-81 0 -147.5 19t-114.5 62t-74.5 111.5t-26.5 166.5q0 72 15 127.5t42.5 95.5t66 66
t86.5 40zM275 616q9 0 20 9l82 72q6 6 6 12q0 8 -6 13t-14 5h-94q-12 0 -19 -11l-46 -72q-3 -6 -3 -11q0 -6 5 -11.5t13 -5.5h56zM0 349q0 -72 16.5 -120.5t49 -78t80 -41.5t110.5 -12q65 0 113.5 12.5t80 41.5t47 77.5t15.5 120.5q0 71 -15.5 117.5t-47.5 74.5t-80 39
t-114 11q-62 0 -109.5 -11t-80 -39t-49 -74.5t-16.5 -117.5zM186 369q-5 9 -5 22q0 20 13.5 34.5t34.5 14.5q11 0 22.5 -6t17.5 -17l57 -98q6 -11 6 -23q0 -18 -14.5 -33.5t-34.5 -15.5q-26 0 -40 25z" />
    <glyph glyph-name="ocircumflex" unicode="&#xf4;" horiz-adv-x="619" 
d="M114 796q7 8 19.5 18t30.5 19t41 15t50 6q28 0 50.5 -6t39.5 -14.5t30 -18.5t21 -19l102 -105q22 -23 32 -46t10 -44q38 -42 58.5 -103.5t20.5 -148.5q0 -97 -25 -165.5t-72.5 -111.5t-114.5 -62.5t-151 -19.5q-81 0 -147.5 19t-114.5 62t-74.5 111.5t-26.5 166.5
q0 85 20.5 145.5t56.5 101.5v5q0 21 10.5 44t32.5 46zM90 617h96l69 40l67 -40h99l-104 107q-5 6 -14 11q-8 5 -19.5 8.5t-28.5 3.5t-28.5 -3.5t-19.5 -8.5q-9 -5 -15 -11zM0 349q0 -72 16.5 -120.5t49 -78t80 -41.5t110.5 -12q65 0 113.5 12.5t80 41.5t47 77.5t15.5 120.5
q0 71 -15.5 117.5t-47.5 74.5t-80 39t-114 11q-62 0 -109.5 -11t-80 -39t-49 -74.5t-16.5 -117.5zM186 369q-5 9 -5 22q0 20 13.5 34.5t34.5 14.5q11 0 22.5 -6t17.5 -17l57 -98q6 -11 6 -23q0 -18 -14.5 -33.5t-34.5 -15.5q-26 0 -40 25z" />
    <glyph glyph-name="otilde" unicode="&#xf5;" horiz-adv-x="619" 
d="M324 616q44 0 63.5 22.5t33.5 62.5l-71 15q-8 -14 -15.5 -20.5t-24.5 -6.5q-13 0 -28 3.5t-30.5 7.5t-31.5 7.5t-31 3.5q-41 0 -62.5 -21t-34.5 -64l70 -14q9 14 16.5 20.5t24.5 6.5q13 0 27.5 -3.5t30 -8t31.5 -8t32 -3.5zM0 349q0 -72 16.5 -120.5t49 -78t80 -41.5
t110.5 -12q65 0 113.5 12.5t80 41.5t47 77.5t15.5 120.5q0 71 -15.5 117.5t-47.5 74.5t-80 39t-114 11q-62 0 -109.5 -11t-80 -39t-49 -74.5t-16.5 -117.5zM186 369q-5 9 -5 22q0 20 13.5 34.5t34.5 14.5q11 0 22.5 -6t17.5 -17l57 -98q6 -11 6 -23q0 -18 -14.5 -33.5
t-34.5 -15.5q-26 0 -40 25zM394 815l49 -10q39 -8 62 -36.5t23 -65.5q0 -18 -6 -35.5t-14 -37.5q53 -40 82 -108t29 -173q0 -97 -25 -165.5t-72.5 -111.5t-114.5 -62.5t-151 -19.5q-81 0 -147.5 19t-114.5 62t-74.5 111.5t-26.5 166.5q0 94 24 158t69 106q-2 8 -2 13
q0 8 2 15t4 15q9 31 24.5 60.5t39.5 52t57 36t78 13.5q17 0 31 -3.5t27 -7t26.5 -7t30.5 -3.5q19 0 31 3.5t20 7t13 7t9 3.5t8 -1t9 -2z" />
    <glyph glyph-name="odieresis" unicode="&#xf6;" horiz-adv-x="619" 
d="M325 825h85q32 0 60.5 -12t50.5 -33t34.5 -50t12.5 -62q0 -20 -5.5 -39.5t-14.5 -36.5q34 -42 52.5 -101.5t18.5 -141.5q0 -97 -25 -165.5t-72.5 -111.5t-114.5 -62.5t-151 -19.5q-81 0 -147.5 19t-114.5 62t-74.5 111.5t-26.5 166.5q0 82 18.5 141t53.5 101
q-9 17 -14.5 36.5t-5.5 40.5q0 33 12.5 61.5t33.5 49.5t49.5 33.5t61.5 12.5h86q18 0 35 -4t33 -11q16 7 33 11t36 4zM275 668q0 -21 14.5 -36t35.5 -15h85q21 0 36 15t15 36t-15 36t-36 15h-85q-21 0 -35.5 -15t-14.5 -36zM52 668q0 -21 14.5 -36t35.5 -15h86q20 0 35 15
t15 36t-15 36t-35 15h-86q-21 0 -35.5 -15t-14.5 -36zM0 349q0 -72 16.5 -120.5t49 -78t80 -41.5t110.5 -12q65 0 113.5 12.5t80 41.5t47 77.5t15.5 120.5q0 71 -15.5 117.5t-47.5 74.5t-80 39t-114 11q-62 0 -109.5 -11t-80 -39t-49 -74.5t-16.5 -117.5zM186 369
q-5 9 -5 22q0 20 13.5 34.5t34.5 14.5q11 0 22.5 -6t17.5 -17l57 -98q6 -11 6 -23q0 -18 -14.5 -33.5t-34.5 -15.5q-26 0 -40 25z" />
    <glyph glyph-name="divide" unicode="&#xf7;" horiz-adv-x="509" 
d="M-107 369q0 27 9.5 50.5t26.5 42t39 30t48 14.5v47q0 28 11 53t29.5 43.5t43.5 29.5t54 11h89q28 0 53 -11t43.5 -29.5t29.5 -43.5t11 -53v-46q27 -2 50.5 -13.5t41 -30t27.5 -43t10 -51.5v-49q0 -27 -10 -51t-27 -43t-40.5 -30.5t-51.5 -13.5v-44q0 -28 -10.5 -53
t-29 -44t-43.5 -30t-54 -11h-89q-29 0 -54.5 11t-44 30t-29 44t-10.5 53v45q-26 3 -48.5 14.5t-39 30t-26 42t-9.5 50.5v49zM0 320q0 -13 9 -22t23 -9h339q13 0 22.5 9t9.5 22v49q0 13 -9.5 22t-22.5 9h-339q-14 0 -23 -9t-9 -22v-49zM123 464q0 -13 9 -22t22 -9h89
q13 0 22 9t9 22v89q0 13 -9 22t-22 9h-89q-13 0 -22 -9t-9 -22v-89zM123 138q0 -13 9 -22t22 -9h89q13 0 22 9t9 22v88q0 14 -9 23t-22 9h-89q-13 0 -22 -9t-9 -23v-88z" />
    <glyph glyph-name="oslash" unicode="&#xf8;" horiz-adv-x="623" 
d="M-86 210q-9 33 -13 67.5t-4 71.5q0 98 27 165t75.5 108t115 58.5t144.5 17.5q38 0 76 -3.5t75 -14.5q15 13 32.5 19t35.5 6q22 -1 44.5 -11t38.5 -30l41 -53q21 -27 21 -64q0 -17 -4.5 -33t-12.5 -29q9 -32 12.5 -66t3.5 -70q0 -97 -25 -165.5t-72 -111.5t-114 -62.5
t-151 -19.5q-38 0 -77 4.5t-76 15.5q-14 -12 -31.5 -17.5t-34.5 -5.5q-24 -1 -44.5 9.5t-37.5 30.5l-43 52q-22 27 -22 62v3q0 17 5 34.5t15 31.5zM189 369q-5 12 -5 22q0 20 14 34.5t34 14.5q12 0 23 -6t17 -17l57 -98q4 -5 5 -11.5t1 -11.5q0 -18 -14 -33.5t-34 -15.5
q-12 0 -23 6.5t-18 18.5zM4 349q0 -107 36 -164l-41 -38l42 -53l45 43q32 -22 75 -31t99 -9q65 0 113.5 12.5t80 41.5t47 77.5t15.5 120.5q0 104 -36 160l39 36l-42 53l-43 -43q-32 20 -75 28t-100 8q-62 0 -110 -11t-80 -39t-48.5 -74.5t-16.5 -117.5z" />
    <glyph glyph-name="ugrave" unicode="&#xf9;" horiz-adv-x="578" 
d="M-12 674q-5 18 -5 35q0 25 9.5 48t26.5 40t40 27t50 10h94q35 0 63.5 -16.5t45.5 -44.5q18 -29 28.5 -45.5t15.5 -25t7 -11.5t3 -4h55q33 0 62 -12.5t50 -34.5t33 -50.5t12 -60.5v-371q0 -33 -12 -61.5t-33.5 -50t-50 -34t-61.5 -12.5h-110q-40 0 -72 17
q-19 -8 -41.5 -12.5t-48.5 -4.5q-79 0 -128.5 28t-78 71.5t-39 96t-10.5 100.5v233q0 48 26 87.5t69 57.5zM253 616q8 0 13 5.5t5 11.5q0 5 -3 11l-46 72q-6 11 -19 11h-94q-8 0 -13.5 -5t-5.5 -13q0 -7 5 -12l83 -72q9 -9 20 -9h55zM421 107q21 0 35.5 14.5t14.5 36.5v371
q0 21 -14.5 36t-35.5 15h-110q-21 0 -36 -15t-15 -36v-253q0 -11 -7 -18t-18 -7t-18 7t-7 18v253q0 21 -15 36t-36 15h-109q-21 0 -35.5 -15t-14.5 -36v-233q0 -42 7 -76.5t24 -59.5t45.5 -39t72.5 -14q38 0 60.5 15t33.5 33q13 21 17 48v-45q0 -22 15 -36.5t36 -14.5h110z
" />
    <glyph glyph-name="uacute" unicode="&#xfa;" horiz-adv-x="578" 
d="M91 687l53 86q17 28 46 44.5t64 16.5h94q26 0 49 -10t40 -27t27 -40t10 -48q0 -13 -5 -30q49 -15 79 -56.5t30 -93.5v-371q0 -33 -12 -61.5t-33.5 -50t-50 -34t-61.5 -12.5h-110q-40 0 -72 17q-19 -8 -41.5 -12.5t-48.5 -4.5q-79 0 -128.5 28t-78 71.5t-39 96
t-10.5 100.5v233q0 31 12 60t33 50.5t49.5 34.5t62.5 13h41zM259 616q9 0 20 9l83 72q5 5 5 12q0 8 -5.5 13t-13.5 5h-94q-14 0 -19 -11l-46 -72q-3 -4 -3 -11q0 -6 4.5 -11.5t12.5 -5.5h56zM421 107q21 0 35.5 14.5t14.5 36.5v371q0 21 -14.5 36t-35.5 15h-110
q-21 0 -36 -15t-15 -36v-253q0 -11 -7 -18t-18 -7t-18 7t-7 18v253q0 21 -15 36t-36 15h-109q-21 0 -35.5 -15t-14.5 -36v-233q0 -42 7 -76.5t24 -59.5t45.5 -39t72.5 -14q38 0 60.5 15t33.5 33q13 21 17 48v-45q0 -22 15 -36.5t36 -14.5h110z" />
    <glyph glyph-name="ucircumflex" unicode="&#xfb;" horiz-adv-x="578" 
d="M99 796q7 8 19.5 18t30.5 19t41 15t50 6q28 0 50.5 -6t39.5 -14.5t30 -18.5t21 -19l115 -118q16 -16 31 -32t26 -34t18 -38t7 -45v-371q0 -33 -12 -61.5t-33.5 -50t-50 -34t-61.5 -12.5h-110q-40 0 -72 17q-19 -8 -41.5 -12.5t-48.5 -4.5q-79 0 -128.5 28t-78 71.5
t-39 96t-10.5 100.5v233q0 23 8.5 42.5t21.5 36.5t28.5 32.5t29.5 30.5zM75 617h97l68 40l67 -40h99l-103 107q-6 6 -15 11q-8 5 -19.5 8.5t-28.5 3.5t-28.5 -3.5t-19.5 -8.5q-9 -5 -14 -11zM421 107q21 0 35.5 14.5t14.5 36.5v371q0 21 -14.5 36t-35.5 15h-110
q-21 0 -36 -15t-15 -36v-253q0 -11 -7 -18t-18 -7t-18 7t-7 18v253q0 21 -15 36t-36 15h-109q-21 0 -35.5 -15t-14.5 -36v-233q0 -42 7 -76.5t24 -59.5t45.5 -39t72.5 -14q38 0 60.5 15t33.5 33q13 21 17 48v-45q0 -22 15 -36.5t36 -14.5h110z" />
    <glyph glyph-name="udieresis" unicode="&#xfc;" horiz-adv-x="578" 
d="M303 825h85q32 0 61 -12t50.5 -33t34 -50t12.5 -62q0 -22 -4 -38q36 -44 36 -101v-371q0 -33 -12 -61.5t-33.5 -50t-50 -34t-61.5 -12.5h-110q-40 0 -72 17q-19 -8 -41.5 -12.5t-48.5 -4.5q-79 0 -128.5 28t-78 71.5t-39 96t-10.5 100.5v233q0 28 9.5 53.5t26.5 46.5
q-3 10 -4 19.5t-1 19.5q0 33 12 61.5t33.5 49.5t50 33.5t61.5 12.5h85q19 0 36 -4t33 -11q15 7 32.5 11t35.5 4zM253 668q0 -21 14.5 -36t35.5 -15h85q22 0 37 15t15 36t-15 36t-37 15h-85q-21 0 -35.5 -15t-14.5 -36zM30 668q0 -21 15 -36t36 -15h85q21 0 36 15t15 36
t-15 36t-36 15h-85q-21 0 -36 -15t-15 -36zM421 107q21 0 35.5 14.5t14.5 36.5v371q0 21 -14.5 36t-35.5 15h-110q-21 0 -36 -15t-15 -36v-253q0 -11 -7 -18t-18 -7t-18 7t-7 18v253q0 21 -15 36t-36 15h-109q-21 0 -35.5 -15t-14.5 -36v-233q0 -42 7 -76.5t24 -59.5
t45.5 -39t72.5 -14q38 0 60.5 15t33.5 33q13 21 17 48v-45q0 -22 15 -36.5t36 -14.5h110z" />
    <glyph glyph-name="yacute" unicode="&#xfd;" horiz-adv-x="618" 
d="M117 687l53 86q17 29 46 45.5t64 16.5h94q26 0 48.5 -10t39.5 -27t27 -40t10 -48v-12.5t-2 -11.5q17 -3 38 -11t39.5 -23.5t31 -39t12.5 -56.5q0 -5 -0.5 -10t-1.5 -10t-2 -11q-11 -45 -25 -96.5t-30.5 -103.5t-33.5 -102.5t-34 -95.5q-13 -35 -31 -71.5t-46.5 -65.5
t-71 -47.5t-104.5 -18.5h-128q-31 0 -68.5 8.5t-70.5 29.5t-55.5 57.5t-22.5 92.5q0 36 19 69q-15 33 -15 77v273q0 32 12 60.5t33.5 49.5t50 33.5t61.5 12.5h63zM285 617q9 0 20 8l83 73q5 7 5 12q0 7 -5.5 12.5t-13.5 5.5h-94q-12 0 -20 -11l-45 -72q-3 -4 -3 -11t4.5 -12
t12.5 -5h56zM0 112q0 -44 31 -63t79 -19h128q35 0 58.5 9t40.5 26t29.5 42t24.5 57q16 43 33 92.5t33 100.5t29.5 100.5t24.5 93.5q0 1 0.5 2t0.5 2q0 11 -11 18.5t-23 7.5h-143q-17 0 -30.5 -10t-18.5 -27l-57 -200q-11 0 -12.5 10.5t-1.5 24.5v151q0 21 -15 36t-36 15
h-110q-21 0 -35.5 -15t-14.5 -35v-273q0 -40 27 -63t69 -23q26 0 45.5 12.5t32.5 28.5q15 18 26 42l-35 -103q-5 -14 -19 -14h-126q-11 0 -17.5 -7.5t-6.5 -18.5z" />
    <glyph glyph-name="thorn" unicode="&#xfe;" horiz-adv-x="581" 
d="M297 4q-21 -36 -57 -58.5t-81 -22.5h-109q-34 0 -62.5 13t-49.5 34.5t-33 50t-12 60.5v557q0 32 12 60.5t33.5 50t50 34t61.5 12.5h109q52 0 93.5 -30.5t56.5 -79.5q8 1 15 1.5t15 0.5q50 0 94 -19t77 -52t52 -77t19 -94v-203q0 -50 -19 -94t-52 -77t-77.5 -52t-94.5 -19
q-11 0 -21 1t-20 3zM210 406q0 15 10.5 26.5t27.5 11.5t28 -11.5t11 -26.5v-127q0 -16 -11 -27.5t-27 -11.5q-17 0 -28 11.5t-11 27.5v127zM0 81q0 -21 14.5 -36t35.5 -15h109q21 0 36 15t15 36v117q14 -41 48.5 -66t79.5 -25q28 0 53 10.5t43.5 29t29 43t10.5 52.5v203
q0 28 -10.5 52.5t-29 43t-43 29t-52.5 10.5q-46 0 -80.5 -25.5t-48.5 -66.5v150q0 21 -15 35.5t-36 14.5h-109q-21 0 -35.5 -14.5t-14.5 -35.5v-557z" />
    <glyph glyph-name="ydieresis" unicode="&#xff;" horiz-adv-x="618" 
d="M322 825h85q34 0 63 -13t50 -35.5t33 -52.5t12 -65q21 -16 37 -41t16 -63q0 -4 -0.5 -9t-1.5 -10t-2 -11q-11 -46 -25 -97t-30.5 -103t-33.5 -103t-34 -96q-13 -35 -31 -71.5t-46.5 -65.5t-71 -47.5t-104.5 -18.5h-128q-31 0 -68.5 8.5t-70.5 29.5t-55.5 57.5t-22.5 93.5
q0 35 19 68q-15 34 -15 77v273q0 32 12.5 61t34.5 51q-1 6 -1.5 12.5t-0.5 13.5q0 33 12.5 61.5t33.5 49.5t49.5 33.5t61.5 12.5h86q18 0 35 -4t33 -11q16 7 33 11t36 4zM272 668q0 -21 14.5 -36t35.5 -15h85q21 0 36 15t15 36t-15 36t-36 15h-85q-21 0 -35.5 -15t-14.5 -36
zM49 668q0 -21 14.5 -36t35.5 -15h86q20 0 35 15t15 36t-15 36t-35 15h-86q-21 0 -35.5 -15t-14.5 -36zM0 112q0 -45 31 -63.5t79 -18.5h128q35 0 58.5 9t40.5 26t29.5 42t24.5 57q16 43 33 92.5t33 100t29.5 100.5t24.5 94q0 1 0.5 2t0.5 2q0 11 -11 18t-23 7h-143
q-17 0 -30.5 -10t-18.5 -27l-57 -200q-11 0 -12.5 10.5t-1.5 24.5v151q0 21 -15 36t-36 15h-110q-21 0 -35.5 -15t-14.5 -35v-273q0 -40 27 -62.5t69 -22.5q26 0 45.5 12.5t32.5 28.5q15 18 26 42l-35 -103q-5 -14 -19 -14h-126q-11 0 -17.5 -7.5t-6.5 -18.5z" />
    <glyph glyph-name="dotlessi" unicode="&#x131;" horiz-adv-x="317" 
d="M-107 529q0 33 12.5 61.5t34 50t50 34t61.5 12.5h109q32 0 60.5 -12.5t50 -34t34 -50t12.5 -61.5v-371q0 -33 -12.5 -62t-34 -50.5t-50 -33.5t-60.5 -12h-109q-32 0 -61 12t-50.5 33.5t-34 50.5t-12.5 62v371zM0 158q0 -22 15 -36.5t36 -14.5h109q21 0 36 14.5t15 36.5
v371q0 21 -15 36t-36 15h-109q-21 0 -36 -15t-15 -36v-371z" />
    <glyph glyph-name="OE" unicode="&#x152;" horiz-adv-x="860" 
d="M807 348q24 -21 38.5 -51.5t14.5 -65.5v-73q0 -33 -12.5 -62t-34 -50.5t-50.5 -33.5t-61 -12h-299q-15 -5 -46 -8.5t-65 -3.5q-110 0 -186.5 28.5t-123.5 82.5t-68 131t-21 173q0 95 24.5 169.5t72.5 126t119 78.5t163 27q34 0 65.5 -2.5t60.5 -8.5h304q32 0 61 -12.5
t50.5 -33.5t34 -49.5t12.5 -61.5v-75q0 -35 -14.5 -65t-37.5 -52q1 -5 1.5 -10.5t0.5 -10.5v-51q0 -12 -3 -24zM195 406q-19 19 -19 44t18 43.5t44 18.5q23 0 44 -18l89 -89q9 -9 13.5 -21.5t4.5 -23.5q0 -26 -18 -44t-43 -18q-26 0 -45 19zM0 403q0 -79 14 -137t48 -96
t90 -56.5t140 -18.5q30 0 55.5 2.5t48.5 9.5h306q21 0 36 14.5t15 36.5v73q0 21 -15 35.5t-36 14.5h-184v59h153q13 0 22.5 9t9.5 23v51q0 13 -9.5 22t-22.5 9h-153v57h184q21 0 36 14.5t15 35.5v75q0 20 -15 35t-36 15h-299q-5 0 -11 -2q-53 14 -120 14
q-137 0 -204.5 -71.5t-67.5 -223.5z" />
    <glyph glyph-name="oe" unicode="&#x153;" horiz-adv-x="909" 
d="M894 332q15 -27 15 -61q0 -65 -26.5 -115.5t-69 -85t-95 -52.5t-103.5 -18h-70q-32 0 -62.5 3t-59.5 11q-41 -14 -83 -19t-84 -5q-81 0 -147.5 19t-114.5 62t-74.5 111.5t-26.5 166.5q0 99 27.5 165.5t75.5 107.5t114.5 58.5t144.5 17.5q45 0 87 -5t83 -19q32 9 65 12.5
t68 3.5h81q55 0 104 -20t86 -56t58.5 -86t21.5 -111q0 -48 -15 -85zM186 369q-5 9 -5 22q0 20 13.5 34.5t34.5 14.5q11 0 22.5 -6t17.5 -17l57 -98q6 -11 6 -23q0 -18 -14.5 -33.5t-34.5 -15.5q-26 0 -40 25zM529 374q0 29 10.5 50t45.5 21q30 0 42 -12t12 -31t-8 -27.5
t-32 -8.5q-46 0 -70 3v5zM0 349q0 -72 16.5 -120.5t49 -78t80 -41.5t110.5 -12q51 0 91 7.5t71 24.5q25 -12 56.5 -17t70.5 -5h70q36 0 70 12t60 33.5t41.5 52t15.5 66.5q0 11 -7 18.5t-17 7.5h-103q-10 0 -17 -7t-7 -17v-15h-72q-23 0 -36 10t-14 41v5q23 -2 47 -3.5
t51 -1.5q32 0 63.5 3t56.5 14t40.5 32.5t15.5 58.5q0 38 -13 69t-35.5 52.5t-52 33.5t-63.5 12h-81q-83 0 -137 -24q-31 17 -71.5 24t-94.5 7q-62 0 -109.5 -11t-80 -39t-49 -74.5t-16.5 -117.5z" />
    <glyph glyph-name="Scaron" unicode="&#x160;" horiz-adv-x="644" 
d="M218 742q6 -7 16 -12q8 -5 19.5 -8t26.5 -3q14 0 26 3t20 8q10 5 17 12l91 95h-100l-54 -46l-56 46h-97zM300 348q8 0 14 -6t6 -14v-77q0 -26 -11 -44.5t-37 -18.5t-36 18.5t-10 44.5v32q0 14 -9 23t-22 9h-165q-9 0 -16 -6.5t-7 -14.5v-26q0 -33 6 -64t31.5 -55
t77.5 -39t144 -15q97 0 151.5 20t81 54.5t32.5 81.5t6 100v29q0 31 -15.5 48t-45.5 17h-236q-19 0 -19 19v78q0 26 10 44.5t36 18.5t36 -18.5t10 -44.5v-34q0 -13 9.5 -22t22.5 -9h151q13 0 22 9t9 22v29q0 35 -6 64.5t-31.5 51.5t-77 34t-143.5 12q-96 0 -150 -20
t-80.5 -54.5t-32.5 -80.5t-6 -98v-28q0 -31 16 -50.5t47 -19.5h237zM279 929l17 14h263q22 0 37.5 -16t15.5 -37q0 -9 -3.5 -19t-11.5 -18q-27 -29 -44 -46t-26 -27l-16 -16q69 -33 95.5 -90.5t26.5 -136.5v-29q0 -22 -8 -46q9 -19 14 -39t5 -43v-29q0 -43 -4 -87t-18 -84
t-39 -75t-67 -61t-103.5 -41t-146.5 -15q-113 0 -184 22.5t-111.5 61t-55 89.5t-14.5 107v26q0 25 9 46q-17 39 -17 78v28q0 46 5 92.5t21.5 88.5t47.5 77.5t82 59.5l-85 89q-14 14 -14 37t15 38t38 15h260z" />
    <glyph glyph-name="scaron" unicode="&#x161;" horiz-adv-x="565" 
d="M231 818q14 6 32 12t23 6h99q57 0 88 -26.5t31 -64.5q0 -20 -10 -42.5t-31 -44.5q59 -33 78.5 -91.5t19.5 -140.5q0 -23 -7 -43q11 -28 11 -61q0 -40 -2.5 -80.5t-13.5 -77t-32 -68.5t-57.5 -55t-91.5 -36.5t-133 -13.5q-101 0 -165.5 14.5t-101.5 46t-51 81.5t-14 122
q0 18 6 39q-16 30 -16 69q0 40 3 81t14 79t34 71t62 57l-5 5q-21 23 -31.5 46t-10.5 44q0 38 31 64t88 26h97q2 0 8.5 -1.5t14.5 -4.5t17 -6t16 -6zM169 635q6 -7 16 -12q8 -5 19.5 -8t26.5 -3q14 0 26 3t20 8q10 5 17 12l91 95h-99l-55 -46l-56 46h-97zM0 363q0 -18 10 -29
t41 -11h198q8 0 14 -6t6 -14v-53q0 -16 -11 -26.5t-28 -10.5q-16 0 -27 10.5t-11 26.5v5q0 14 -9 23t-22 9h-122q-12 0 -20.5 -9.5t-8.5 -22.5q0 -44 3.5 -74t24.5 -48.5t67 -26.5t130 -8t129.5 15.5t66.5 45t24.5 71t3.5 92.5q0 18 -10.5 29.5t-40.5 11.5h-196
q-8 0 -14 5.5t-6 13.5v53q0 16 11 27t28 11q16 0 27 -11t11 -27v-6q0 -14 9 -23t22 -9h125q11 0 20 9t9 20q0 44 -3.5 75.5t-24 51.5t-64.5 29.5t-126 9.5h-11q-84 0 -130 -17t-67 -47t-24.5 -72t-3.5 -93z" />
    <glyph glyph-name="Ydieresis" unicode="&#x178;" horiz-adv-x="580" 
d="M309 933h85q32 0 61 -12t50.5 -33t34 -50t12.5 -62q0 -18 -4 -33q32 -38 32 -87q-1 -11 -2.5 -24t-6.5 -27l-116 -315v-132q0 -33 -12.5 -62t-34 -50t-50 -33.5t-60.5 -12.5h-126q-33 0 -61.5 12.5t-49.5 34t-33 50t-12 61.5v133l-114 317q-4 11 -6.5 23t-2.5 25
q0 56 39 95q-2 6 -2 12.5v12.5q0 33 12 61.5t33.5 49.5t50 33.5t61.5 12.5h85q19 0 36 -4t32 -11q16 7 33.5 11t35.5 4zM259 776q0 -21 14.5 -36t35.5 -15h85q22 0 36.5 15t14.5 36t-14.5 36t-36.5 15h-85q-21 0 -35.5 -15t-14.5 -36zM36 776q0 -21 14.5 -36t36.5 -15h85
q21 0 36 15t15 36t-15 36t-36 15h-85q-22 0 -36.5 -15t-14.5 -36zM122 158q0 -22 14.5 -36.5t35.5 -14.5h126q21 0 36 14.5t15 36.5v151l122 336q3 4 3 11q0 12 -9 21.5t-23 9.5h-105q-17 0 -31 -11t-18 -29l-48 -221l-44 221q-4 17 -17.5 28.5t-31.5 11.5h-115
q-14 0 -23 -9t-9 -22q0 -3 2 -11l120 -336v-151z" />
    <glyph glyph-name="Zcaron" unicode="&#x17d;" horiz-adv-x="556" 
d="M161 742q7 -7 17 -12q8 -5 19.5 -8t25.5 -3t26 3t20 8q10 5 17 12l91 95h-99l-55 -46l-55 46h-97zM419 604q0 34 -24 58t-59 24h-257q-21 0 -35.5 -15t-14.5 -35v-74q0 -21 14.5 -36t35.5 -15h82l-137 -219q-3 -7 -4.5 -12t-2.5 -11t-1 -15.5v-25.5v-39q0 -34 23.5 -58
t57.5 -24h277q21 0 35.5 14.5t14.5 36.5v87q0 21 -14.5 35.5t-35.5 14.5h-107q41 65 74 117q14 22 27 43.5t23.5 38.5t17 28t6.5 13q2 6 3 17.5t1 26.5v25zM223 929l17 14h262q23 0 38.5 -16t15.5 -37q0 -9 -3.5 -19t-11.5 -18q-48 -49 -71 -74q-13 -14 -22 -23
q35 -26 56 -65t21 -87v-25q0 -22 -2 -39t-4 -29q-4 -9 -21.5 -41.5t-49.5 -86.5q37 -20 60 -56.5t23 -81.5v-87q0 -33 -12 -61.5t-33.5 -50t-50 -34t-61.5 -12.5h-277q-39 0 -73.5 15t-60 41t-40 60t-14.5 73v29q0 30 1 49t3.5 31.5t6.5 22.5t12 22l55 91q-30 21 -47.5 55
t-17.5 73v74q0 40 19 74t51 56l-84 87q-15 15 -15 37q0 23 15.5 38t38.5 15h259z" />
    <glyph glyph-name="zcaron" unicode="&#x17e;" horiz-adv-x="517" 
d="M212 818q13 6 31 12t23 6h100q57 0 88 -26t31 -64q0 -20 -9 -42t-29 -43q32 -22 51 -56.5t19 -75.5q0 -16 -1.5 -37t-9.5 -42q-1 -5 -15.5 -30t-42.5 -64q32 -21 50.5 -55.5t18.5 -75.5v-67q0 -33 -12.5 -62t-33.5 -50t-49.5 -33.5t-61.5 -12.5h-309q-32 0 -60.5 12
t-50 33t-34.5 50t-13 63v11q0 20 3.5 42t9.5 40q2 5 20 33t44 65q-29 21 -46 54t-17 72v54q0 42 19.5 76.5t51.5 55.5q-38 42 -38 85q0 38 31 64t88 26h97q2 0 8.5 -1.5t14.5 -4.5t17 -6t16 -6zM149 635q7 -7 17 -12q8 -5 19.5 -8t26.5 -3q14 0 26 3t20 8q10 5 17 12l91 95
h-100l-54 -46l-56 46h-97zM411 529q0 21 -15 36t-36 15h-296q-21 0 -36 -15t-15 -36v-54q0 -21 15 -36t36 -15h85v-8q-39 -55 -71 -99q-14 -19 -26.5 -37t-23 -33t-17 -24.5t-6.5 -10.5q-5 -15 -5 -43v-11q0 -22 15.5 -36.5t35.5 -14.5h309q21 0 36 14.5t15 36.5v67
q0 21 -15 36t-36 15h-96v8q38 53 69 96l26 36t23 32.5t16.5 24t7.5 11.5q2 8 3.5 17t1.5 21v7z" />
    <glyph glyph-name="florin" unicode="&#x192;" horiz-adv-x="502" 
d="M3 529q0 12 2.5 37t11 54.5t25 60.5t44 56.5t68.5 41.5t98 16h92q31 0 60 -12t50.5 -33t34.5 -49.5t13 -62.5v-63q0 -28 -10 -52t-27 -42q9 -15 14.5 -32t5.5 -35v-48q0 -44 -26.5 -77.5t-68.5 -44.5l-5 -38q-5 -39 -9 -65t-7.5 -44t-8.5 -31t-12 -26q-20 -38 -48 -60.5
t-58 -35t-60.5 -16.5t-54.5 -4h-77q-33 0 -61.5 12.5t-50 34t-33.5 50t-12 60.5v82q0 35 18 67.5t50 51.5q-33 36 -33 84v48q0 36 20 67.5t55 47.5zM396 638q0 21 -15 35.5t-37 14.5h-92q-35 0 -51.5 -4.5t-28.5 -12.5q-24 -17 -37 -45t-19.5 -61t-9 -68t-6.5 -64h-47
q-8 0 -13 -5.5t-5 -13.5v-48q0 -8 5 -13.5t13 -5.5h34l-15 -106q-2 -13 -7 -23q-5 -9 -13 -16t-22 -7q-13 0 -21.5 -9.5t-8.5 -22.5v-82q0 -21 14.5 -36t35.5 -15h77q40 0 74 12t52 47q3 6 5.5 16t7 36.5t12 75t19.5 130.5h62q8 0 13.5 5.5t5.5 13.5v48q0 8 -5.5 13.5
t-13.5 5.5h-48l12 92q4 18 37 18h4q13 0 22.5 9t9.5 23v63z" />
    <glyph glyph-name="circumflex" unicode="&#x2c6;" horiz-adv-x="629" 
d="M120 797q25 28 61 43t80 15q45 0 80.5 -15.5t61.5 -42.5l181 -187q12 -12 22 -24q8 -11 15.5 -23t7.5 -23q0 -12 -12 -20.5t-44 -8.5h-274l-38 23l-38 -23h-277q-31 0 -42 8.5t-11 19.5q0 8 4 16.5t9 16.5q6 9 14 17zM96 618h97l68 40l67 -40h99l-103 107q-6 6 -15 11
q-8 5 -19.5 8.5t-28.5 3.5t-28.5 -3.5t-19.5 -8.5q-9 -5 -14 -11z" />
    <glyph glyph-name="caron" unicode="&#x2c7;" horiz-adv-x="553" 
d="M160 635q7 -7 17 -12q8 -5 19.5 -8t25.5 -3t26 3t20 8q10 5 17 12l91 95h-99l-55 -46l-56 46h-96zM221 822l17 14h263q23 0 37.5 -17.5t14.5 -38.5q0 -18 -14 -34l-179 -187q-1 0 -10.5 -8.5t-26.5 -18.5t-42.5 -18.5t-58.5 -8.5q-34 0 -59.5 8.5t-42.5 19t-26 19
t-10 8.5l-177 186q-14 14 -14 34q0 21 14.5 38.5t37.5 17.5h260z" />
    <glyph glyph-name="breve" unicode="&#x2d8;" horiz-adv-x="437" 
d="M169 787l59 40q7 4 15 4h140q23 0 38.5 -15.5t15.5 -38.5l-6 -64q-5 -50 -29 -88.5t-61 -64t-82.5 -38.5t-92.5 -13q-57 0 -107 17.5t-87 51.5t-58 84t-21 116q0 22 15.5 37.5t38.5 15.5h143q7 0 14 -4zM166 616q68 0 110.5 27.5t48.5 80.5h-90q-7 -17 -22.5 -27.5
t-46.5 -10.5t-46 10.5t-22 27.5h-91q7 -54 50 -81t109 -27z" />
    <glyph glyph-name="dotaccent" unicode="&#x2d9;" horiz-adv-x="305" 
d="M51 836h96q33 0 62 -12.5t50 -34t33.5 -50t12.5 -60.5q0 -33 -12.5 -62.5t-34 -51.5t-50 -35t-61.5 -13h-96q-33 0 -61.5 12.5t-50 33.5t-34 49.5t-12.5 61.5q0 32 12.5 61t33.5 51.5t50 36t62 13.5zM0 674q0 -21 15 -36t36 -15h96q21 0 36 15t15 36v5q0 20 -15 35.5
t-36 15.5h-96q-21 0 -36 -15.5t-15 -35.5v-5z" />
    <glyph glyph-name="ring" unicode="&#x2da;" horiz-adv-x="386" 
d="M-7 826q32 16 70 24t77 8q38 0 76 -8t70 -24q14 -7 31.5 -19t32.5 -29.5t25.5 -41.5t10.5 -54q0 -31 -10.5 -55t-25.5 -42t-32.5 -29.5t-31.5 -18.5q-67 -32 -146 -32q-39 0 -77 8t-70 24q-14 7 -31.5 19t-32.5 29.5t-25.5 41.5t-10.5 55q0 30 10.5 54t25.5 41.5
t32.5 29.5t31.5 19zM0 682q0 -15 11 -27.5t30 -22t44.5 -15t54.5 -5.5t54.5 5.5t44 15t29.5 22t11 27.5q0 14 -11 26.5t-29.5 22t-44 15t-54.5 5.5t-54.5 -5.5t-44.5 -15t-30 -22t-11 -26.5zM85 682q0 15 16 26t39 11t39 -11t16 -26q0 -16 -16 -27t-39 -11t-39 11t-16 27z
" />
    <glyph glyph-name="ogonek" unicode="&#x2db;" horiz-adv-x="249" 
d="M104 180q36 0 63.5 -14.5t45.5 -36.5t27 -48t9 -49q0 -31 -11.5 -58t-32 -47.5t-47.5 -32.5t-58 -12q-53 0 -92 22.5t-64.5 56.5t-38 73.5t-12.5 74.5v106h152q8 -10 18 -18q8 -7 18.5 -12t22.5 -5zM0 109q0 -22 7.5 -43.5t20.5 -38.5t31.5 -27.5t40.5 -10.5
q17 0 29.5 12.5t12.5 30.5q0 27 -15 33.5t-33.5 8.5t-33.5 7t-15 28h-45z" />
    <glyph glyph-name="tilde" unicode="&#x2dc;" horiz-adv-x="467" 
d="M424 793q11 -3 21 -10q8 -6 15 -16t7 -27q0 -10 -3 -22l-20 -54q-9 -24 -22.5 -51t-36.5 -50t-57 -38t-82 -15q-29 0 -58.5 10.5t-57.5 10.5q-19 0 -31.5 -3.5t-20.5 -8.5q-10 -5 -15 -12l-120 24q-14 4 -25 12q-10 7 -17.5 17.5t-7.5 26.5q0 5 2 15l16 54q9 31 24.5 60
t39.5 52t57.5 37t78.5 14q30 0 59 -11t57 -11q20 0 32.5 3.5t20.5 8.5q9 5 14 12zM246 617q43 0 63 22.5t34 61.5l-71 15q-8 -14 -15.5 -20.5t-24.5 -6.5q-13 0 -28 3.5t-30.5 8t-31.5 8t-31 3.5q-41 0 -62.5 -21.5t-34.5 -64.5l70 -14q9 14 16.5 20.5t24.5 6.5
q26 0 57.5 -11t63.5 -11z" />
    <glyph glyph-name="hungarumlaut" unicode="&#x2dd;" horiz-adv-x="457" 
d="M187 510q-31 0 -56 13q-26 -13 -57 -13h-56q-25 0 -47.5 9.5t-40 26t-27.5 39t-10 48.5q0 37 19 66l47 74q17 28 45.5 44.5t63.5 16.5h95q19 0 37 -5q9 2 18 3.5t20 1.5h94q26 0 48.5 -10t39.5 -27t27 -40t10 -48q0 -26 -11 -49.5t-28 -40.5l-87 -77q-13 -10 -36 -21
t-52 -11h-56zM243 616q9 0 20 9l83 72q5 7 5 12q0 8 -5.5 13t-13.5 5h-94q-13 0 -20 -11l-46 -72q-3 -6 -3 -11q0 -6 5 -11.5t13 -5.5h56zM74 616q10 0 19 9l84 72q4 5 4 12q0 8 -5 13t-13 5h-95q-14 0 -19 -11l-46 -72q-3 -6 -3 -11q0 -6 5 -11.5t13 -5.5h56z" />
    <glyph glyph-name="endash" unicode="&#x2013;" horiz-adv-x="669" 
d="M-107 370q0 28 11 53t29.5 44t43.5 30t54 11h500q28 0 53.5 -11t44 -30t29.5 -44t11 -53v-55q0 -29 -11 -53.5t-29.5 -43.5t-44 -29.5t-53.5 -10.5h-500q-29 0 -54 10.5t-43.5 29.5t-29.5 43.5t-11 53.5v55zM0 315q0 -13 9 -22t22 -9h500q13 0 22 9t9 22v55q0 13 -9 22
t-22 9h-500q-13 0 -22 -9t-9 -22v-55z" />
    <glyph glyph-name="emdash" unicode="&#x2014;" horiz-adv-x="642" 
d="M-107 370q0 29 11 54.5t30 44t44.5 29t53.5 10.5h473q27 0 52 -10.5t44 -29t30 -44t11 -54.5v-55q0 -29 -11 -54t-30 -43.5t-44 -29t-52 -10.5h-473q-28 0 -53.5 10.5t-44.5 29t-30 43.5t-11 54v55zM0 315q0 -13 9 -22t23 -9h473q12 0 21.5 9t9.5 22v55q0 13 -9.5 22
t-21.5 9h-473q-14 0 -23 -9t-9 -22v-55z" />
    <glyph glyph-name="quoteleft" unicode="&#x2018;" horiz-adv-x="294" 
d="M92 563q3 32 20.5 50t56.5 22l-12 55q-36 -1 -65 -9t-49.5 -26t-31.5 -47t-11 -72v-31q0 -14 9 -23t23 -9h93q13 0 22 9t9 23v27q0 13 -9 22t-22 9h-33zM263 537v-32q0 -28 -10.5 -53.5t-29 -44.5t-44 -30t-54.5 -11h-93q-29 0 -54.5 11t-44 29.5t-29.5 44t-11 54.5v31
q0 70 21.5 119.5t57.5 81t83 46t97 14.5h46q20 0 35 -11.5t19 -29.5l42 -199q0 -7 -5 -12.5t-12 -5.5z" />
    <glyph glyph-name="quoteright" unicode="&#x2019;" horiz-adv-x="293" 
d="M94 598q-3 -32 -20 -49.5t-56 -22.5l12 -55q36 1 64.5 9.5t49 26.5t31.5 47t11 71v32q0 13 -9 22t-22 9h-94q-13 0 -22 -9t-9 -22v-28q0 -13 9 -22t22 -9h33zM-89 622l13 1v34q0 28 11 53.5t29.5 44t43.5 29.5t53 11h94q29 0 54 -11t44 -29.5t29.5 -44t10.5 -53.5v-32
q0 -75 -25 -125.5t-67 -80.5t-97.5 -43t-116.5 -13q-19 0 -33.5 11.5t-18.5 30.5l-41 192q-1 2 -1 5q0 8 5 13t13 7z" />
    <glyph glyph-name="quotesinglbase" unicode="&#x201a;" horiz-adv-x="275" 
d="M-89 -10q-4 9 -5 20t-1 21v27q0 28 11 53.5t30 44t44 29.5t53 11h94q28 0 53.5 -11t44 -29.5t29.5 -44t11 -53.5v-31q0 -69 -21 -119t-57 -81.5t-83 -46.5t-99 -15q-20 0 -38.5 7.5t-32.5 19.5t-24 27t-13 31l-12 56q-1 6 -1.5 12t-0.5 12q0 34 18 60zM76 0
q0 -65 -77 -72l12 -56q36 1 65 9.5t49.5 26.5t31.5 47.5t11 71.5v31q0 13 -9 22.5t-22 9.5h-94q-13 0 -22 -9.5t-9 -22.5v-27q0 -13 9 -22t22 -9h33z" />
    <glyph glyph-name="quotedblleft" unicode="&#x201c;" horiz-adv-x="482" 
d="M280 563q3 32 20.5 50t56.5 22l-13 55q-35 -1 -64 -9t-49.5 -26t-31.5 -47t-11 -72v-31q0 -14 9 -23t22 -9h94q13 0 22 9t9 23v27q0 13 -9 22t-22 9h-33zM92 563q3 32 20.5 50t56.5 22l-12 55q-35 -1 -64 -9t-49.5 -26t-32 -47t-11.5 -72v-31q0 -14 9 -23t23 -9h93
q14 0 23 9t9 23v27q0 13 -9 22t-23 9h-33zM451 537v-32q0 -28 -10.5 -53.5t-29 -44.5t-44 -30t-54.5 -11h-94q-25 0 -47 8q-22 -8 -47 -8h-93q-29 0 -54.5 11t-44 29.5t-29.5 44t-11 54.5v31q0 70 21.5 119t57.5 79.5t83 45.5t97 17l73 3q16 0 21 -16q23 5 46.5 8.5
t47.5 4.5q13 1 21 1h13h10q19 0 34 -11t20 -30l44 -198q0 -18 -18 -20z" />
    <glyph glyph-name="quotedblright" unicode="&#x201d;" horiz-adv-x="481" 
d="M95 598q-3 -32 -20.5 -49.5t-56.5 -22.5l12 -55q36 1 64.5 9.5t49 26.5t31.5 47t11 72v31q0 13 -9 22t-22 9h-93q-13 0 -22 -9t-9 -22v-27q0 -14 9 -23t22 -9h33zM282 598q-3 -32 -20 -49.5t-56 -22.5l12 -55q36 1 64.5 9.5t49 26.5t31.5 47t11 72v31q0 13 -9 22t-22 9
h-94q-13 0 -22 -9t-9 -22v-27q0 -14 9 -23t22 -9h33zM-89 621l14 1v35q0 28 10.5 53.5t29.5 44t43.5 29.5t53.5 11h93q24 0 47 -9q22 9 47 9h94q28 0 53.5 -11t44 -29.5t29.5 -44t11 -53.5v-31q0 -71 -21.5 -120t-57.5 -80t-83 -45t-98 -16l-72 -3q-17 0 -21 16
q-11 -3 -23.5 -5.5t-28.5 -5t-37.5 -3.5t-51.5 -1q-20 0 -33.5 11.5t-17.5 30.5l-42 191q-1 2 -1 5q0 8 5 13t13 7z" />
    <glyph glyph-name="quotedblbase" unicode="&#x201e;" horiz-adv-x="481" 
d="M-72 133v32q0 28 11 53t29.5 44t43.5 30t54 11h94q23 0 45 -8q22 8 44 8h94q29 0 54 -11t44 -30t29.5 -44t10.5 -53v-31q0 -70 -21 -119t-57 -80t-83 -46t-99 -17l-89 -3l-3 17q-11 -3 -23 -5.5t-30 -4.5t-43.5 -3t-62.5 -1zM98 107q0 -32 -18 -50.5t-58 -21.5l12 -56
q36 1 65 9.5t49.5 26.5t31.5 47.5t11 71.5v31q0 13 -9 22t-22 9h-94q-13 0 -22 -9t-9 -22v-27q0 -13 9 -22t22 -9h32zM282 107q0 -66 -76 -72l12 -56q36 1 64.5 9.5t49 26.5t31.5 47.5t11 71.5v31q0 13 -9 22t-22 9h-94q-13 0 -22 -9t-9 -22v-27q0 -13 9 -22t22 -9h33z" />
    <glyph glyph-name="dagger" unicode="&#x2020;" horiz-adv-x="490" 
d="M1 635q0 32 12.5 61t33.5 50.5t49.5 34t61.5 12.5h68q32 0 60.5 -12.5t50 -33.5t34 -50t12.5 -62q22 -6 42 -18.5t34 -30.5t22.5 -40.5t8.5 -47.5v-50q0 -25 -8.5 -47.5t-22.5 -40t-34 -30t-42 -18.5v-154q0 -33 -12.5 -62t-34 -50t-50 -33.5t-60.5 -12.5h-68
q-33 0 -61.5 12.5t-49.5 33.5t-33.5 50t-12.5 62v154q-46 11 -77 48t-31 88v50q0 25 8.5 47.5t23 40.5t34 30.5t42.5 18.5zM107 532h-73q-14 0 -24 -10t-10 -24v-50q0 -14 10 -24t24 -10h73v-256q0 -22 15 -36.5t36 -14.5h68q20 0 35.5 14.5t15.5 36.5v256h72q14 0 24 10
t10 24v50q0 14 -10 24t-24 10h-72v103q0 21 -15.5 36t-35.5 15h-68q-21 0 -36 -15t-15 -36v-103z" />
    <glyph glyph-name="daggerdbl" unicode="&#x2021;" horiz-adv-x="490" 
d="M-64 396q-20 19 -31.5 45t-11.5 56v49q0 26 9 49t24.5 41.5t36.5 31t46 16.5q16 48 56.5 78.5t92.5 30.5h67q51 0 92.5 -30.5t57.5 -78.5q24 -5 45 -17.5t36.5 -30.5t24.5 -41.5t9 -48.5v-49q0 -30 -11.5 -56t-31.5 -45q20 -20 31.5 -46t11.5 -55v-50q0 -26 -8.5 -49
t-24 -41.5t-37 -31.5t-46.5 -17q-16 -47 -57 -76.5t-92 -29.5h-67q-51 0 -91.5 29.5t-56.5 76.5q-25 4 -46.5 17t-37 31.5t-24.5 41.5t-9 49v50q0 29 11.5 55t31.5 46zM107 462v-133h-73q-14 0 -24 -10t-10 -24v-50q0 -14 10 -24.5t24 -10.5h73v-52q0 -22 15 -36.5t36 -14.5
h67q21 0 36.5 14.5t15.5 36.5v52h72q14 0 24 10.5t10 24.5v50q0 14 -10 24t-24 10h-72v133h72q14 0 24 10t10 25v49q0 14 -10 24t-24 10h-72v55q0 21 -15.5 36t-36.5 15h-67q-21 0 -36 -15t-15 -36v-55h-73q-14 0 -24 -10t-10 -24v-49q0 -15 10 -25t24 -10h73z" />
    <glyph glyph-name="bullet" unicode="&#x2022;" horiz-adv-x="266" 
d="M80 529q39 0 72.5 -14.5t59 -40t40 -59.5t14.5 -72q0 -39 -14.5 -73t-40 -59.5t-59 -40t-72.5 -14.5t-73 14.5t-59.5 40t-40 59.5t-14.5 73q0 38 14.5 72t40 59.5t59.5 40t73 14.5zM0 343q0 -34 23.5 -57t56.5 -23t56 23t23 57q0 33 -23 56.5t-56 23.5t-56.5 -23.5
t-23.5 -56.5z" />
    <glyph glyph-name="ellipsis" unicode="&#x2026;" horiz-adv-x="695" 
d="M403 349q32 16 65 16h89q29 0 54.5 -11t44 -30t29 -44.5t10.5 -53.5v-88q0 -28 -10.5 -53t-29 -44t-44 -30t-54.5 -11h-89q-33 0 -65 16q-30 -16 -65 -16h-88q-33 0 -65 16q-30 -16 -65 -16h-88q-29 0 -54.5 10.5t-44 29.5t-29.5 44t-11 54v88q0 29 11 54.5t29.5 44
t44 29.5t54.5 11h88q35 0 65 -16q32 16 65 16h88q35 0 65 -16zM437 138q0 -13 9 -22t22 -9h89q13 0 22 9t9 22v88q0 14 -9 23t-22 9h-89q-13 0 -22 -9t-9 -23v-88zM218 138q0 -13 9.5 -22t22.5 -9h88q14 0 23 9t9 22v88q0 14 -9 23t-23 9h-88q-13 0 -22.5 -9t-9.5 -23v-88z
M0 138q0 -13 9 -22t23 -9h88q14 0 23 9t9 22v88q0 14 -9 23t-23 9h-88q-14 0 -23 -9t-9 -23v-88z" />
    <glyph glyph-name="perthousand" unicode="&#x2030;" horiz-adv-x="843" 
d="M118 802q57 0 97 -16.5t66 -45.5q23 28 55 44.5t67 16.5h32q23 0 44.5 -9t38 -24.5t26.5 -37.5t10 -48q-1 -6 -6.5 -21.5t-14.5 -38.5t-21 -52t-25 -62q20 -3 45 -11q20 8 41 11t42 3q65 0 109 -22.5t70.5 -58.5t37.5 -82t11 -93q0 -43 -9.5 -89.5t-35 -85t-69 -63.5
t-112.5 -25q-46 0 -84 13q-40 -13 -85 -13q-56 0 -95 16.5t-65 44.5q-23 -27 -55 -43t-67 -16h-32q-30 0 -52.5 12t-37 30t-21.5 39t-7 39q0 4 1 16.5t8 29.5l54 126q-57 7 -93 34.5t-57 65t-28.5 79.5t-7.5 80q0 44 11 89.5t37 83t69 61t108 23.5zM595 292q0 11 6.5 17
t14.5 6q9 0 15 -6t6 -17v-74q0 -9 -6 -16t-15 -7q-8 0 -14.5 7t-6.5 16v74zM0 545q0 -35 5.5 -63.5t19.5 -49t37.5 -32t58.5 -11.5q67 0 93 42t26 114q0 73 -27.5 112t-94.5 39q-64 0 -91 -41t-27 -110zM98 583q0 10 6.5 16.5t15.5 6.5t15 -6.5t6 -16.5v-74q0 -9 -6 -16.5
t-15 -7.5t-15.5 7.5t-6.5 16.5v74zM123 117q-1 -1 -1 -2v-1q0 -13 12 -13h32q14 0 28 9.5t19 24.5l234 543q0 1 0.5 2t0.5 2q0 5 -4 8.5t-9 3.5h-32q-14 0 -27.5 -10t-18.5 -24zM426 292q0 11 6.5 17t15.5 6q20 0 20 -23v-74q0 -9 -5.5 -16t-14.5 -7t-15.5 7t-6.5 16v74z
M328 255q0 -35 5.5 -64t19.5 -49.5t37 -32t58 -11.5q56 0 84 31q14 -14 35 -22.5t50 -8.5q67 0 93 42t26 115q0 72 -27 111t-94 39q-54 0 -82 -31q-29 31 -87 31q-64 0 -91 -40.5t-27 -109.5z" />
    <glyph glyph-name="guilsinglleft" unicode="&#x2039;" horiz-adv-x="338" 
d="M7 583q20 35 59 61t87 26h67q28 0 50 -10.5t37 -27.5t23 -38.5t8 -42.5q0 -7 -2.5 -23.5t-13.5 -36.5l-86 -148l85 -147q10 -17 13.5 -30.5t3.5 -30.5q0 -20 -7.5 -41t-22.5 -38t-37 -28.5t-51 -11.5h-67q-24 0 -46.5 7.5t-41 20t-33.5 28t-25 32.5l-94 161
q-12 21 -16 42t-4 36t4 36t16 42zM6 369q-4 -7 -5 -13.5t-1 -12.5q0 -7 1 -13t5 -13l94 -160q8 -14 23.5 -24.5t29.5 -10.5h67q5 0 8.5 4t3.5 9q0 3 -2 6l-117 202l117 203q2 2 2 5q0 5 -3.5 9t-8.5 4h-67q-14 0 -29.5 -10t-23.5 -24z" />
    <glyph glyph-name="guilsinglright" unicode="&#x203a;" horiz-adv-x="339" 
d="M339 343q0 -15 -4 -36t-16 -42l-95 -162q-20 -33 -58 -60t-87 -27h-66q-29 0 -51.5 11.5t-37.5 28.5t-22.5 38t-7.5 41q0 17 3 30.5t14 30.5l85 147l-86 148q-11 20 -13.5 36t-2.5 24q0 21 8 42.5t23.5 38.5t37.5 27.5t50 10.5h66q48 0 87 -26t59 -61l94 -162
q12 -21 15.5 -42t4.5 -36zM132 530q-8 14 -23.5 24t-29.5 10h-66q-12 0 -12 -13q0 -3 1 -5l117 -203l-117 -202q-1 -3 -1 -6q0 -5 3.5 -9t8.5 -4h66q14 0 29.5 10.5t23.5 24.5l94 160q4 7 5 13t1 13q0 6 -1 12.5t-5 13.5z" />
    <glyph glyph-name="fraction" unicode="&#x2044;" horiz-adv-x="432" 
d="M135 700q9 22 24 40.5t34 32t41.5 21t46.5 7.5h32q20 0 42 -7.5t40 -20.5t29.5 -31t11.5 -38q0 -13 -4 -22q-2 -9 -13.5 -38.5t-28.5 -72.5t-38.5 -95t-43.5 -105q-52 -124 -118 -276q-18 -45 -58 -73t-88 -28h-32q-30 0 -52.5 12t-37.5 30t-22 39t-7 39q0 4 1 16.5
t9 29.5zM1 117l-1 -2v-1q0 -13 12 -13h32q14 0 28 9.5t19 24.5l234 543q0 1 0.5 2t0.5 2q0 5 -4 8.5t-9 3.5h-32q-14 0 -27.5 -10t-18.5 -24z" />
    <glyph glyph-name="Euro" unicode="&#x20ac;" horiz-adv-x="606" 
d="M-11 598q19 40 47.5 77t68 65.5t90.5 45.5t116 17q49 0 101 -14.5t94.5 -41.5t69.5 -65.5t27 -85.5q0 -30 -11.5 -61t-39.5 -55l-97 -83l103 -83q20 -19 34 -48.5t14 -63.5q0 -53 -29.5 -93t-74 -66.5t-96.5 -39.5t-97 -13q-66 0 -117.5 17t-91.5 45.5t-68.5 67
t-47.5 80.5q-38 11 -64.5 43.5t-26.5 76.5v34q0 23 9 44q-9 19 -9 44v34q0 44 27 78t69 44zM482 631q-38 34 -78.5 49.5t-92.5 15.5q-55 0 -96.5 -17t-71 -44.5t-49 -64t-30.5 -75.5h-45q-8 0 -13.5 -5.5t-5.5 -13.5v-34q0 -8 5.5 -13.5t13.5 -5.5h28v-49h-28
q-8 0 -13.5 -5.5t-5.5 -14.5v-34q0 -8 5.5 -13.5t13.5 -5.5h41q11 -42 30.5 -79t49.5 -64.5t71.5 -44t97.5 -16.5q55 0 97 16t79 53q7 7 10.5 17t3.5 19q0 21 -15 36l-54 51q-8 8 -20 8q-11 0 -21.5 -7t-22 -15t-24.5 -15t-28 -7q-23 0 -41.5 17.5t-26.5 32.5h91q8 0 13.5 6
t5.5 14v31q0 9 -5.5 14.5t-13.5 5.5h-117v49h117q8 0 13.5 5t5.5 13v33q0 8 -5.5 14t-13.5 6h-88q7 13 22 29t40 16q15 0 27.5 -6.5t23.5 -14t21.5 -13.5t20.5 -6q12 0 21 9l55 51q17 15 17 37q0 21 -15 35z" />
    <glyph glyph-name="published" unicode="&#x2117;" horiz-adv-x="706" 
d="M299 803q84 0 158 -32t129.5 -87.5t87.5 -129.5t32 -158q0 -85 -32 -159t-87.5 -129t-129.5 -86.5t-158 -31.5t-158 32t-129 87t-87 129t-32 158t31.5 158t86.5 129.5t129 87.5t159 32zM289 448q0 10 5.5 16.5t14.5 6.5t15 -6.5t6 -16.5v-25q0 -15 -7.5 -26t-17.5 -11
q-7 0 -11.5 7t-4.5 16v39zM289 552q-2 12 -12 12h-68q-10 0 -17.5 -8.5t-7.5 -21.5v-281q0 -12 7.5 -21t17.5 -9h54q11 0 18.5 9t7.5 21v89q5 -8 15 -14q8 -5 20.5 -9.5t29.5 -4.5q40 0 61.5 23t21.5 56v91q0 33 -19.5 56t-48.5 23h-63q-12 0 -17 -11zM299 630
q48 0 91 -18.5t75 -50t50.5 -74.5t18.5 -91q0 -49 -18.5 -91.5t-50.5 -74.5t-75 -50.5t-91 -18.5q-49 0 -91.5 18.5t-74.5 50.5t-50.5 74.5t-18.5 91.5q0 48 18.5 91t50.5 74.5t74.5 50t91.5 18.5zM0 396q0 -62 23.5 -116.5t64 -95t95 -64t116.5 -23.5t117 23.5t95.5 64
t64 95t23.5 116.5t-23.5 117t-64 95.5t-95.5 64t-117 23.5t-116.5 -23.5t-95 -64t-64 -95.5t-23.5 -117z" />
    <glyph glyph-name="trademark" unicode="&#x2122;" horiz-adv-x="623" 
d="M398 292l-18 -4t-20 -2h-20q-10 0 -19.5 2t-18.5 4q-10 -2 -20.5 -4t-22.5 -2h-61q-11 0 -20.5 2t-18.5 4q-9 -2 -19 -4t-21 -2h-50q-32 0 -56 12t-40.5 31.5t-25 43t-8.5 46.5v118q-22 18 -34 44t-12 52v40q0 22 9 44t25 39.5t38.5 28t49.5 10.5h159q8 0 15.5 -1
t13.5 -3q8 2 15.5 3t16.5 1h69q26 0 47 -9q21 9 46 9h68q28 0 51 -10.5t39 -27.5t25.5 -38t12.5 -42l30 -260q0 -19 -7 -42t-22 -42.5t-38 -33t-54 -13.5h-60q-13 0 -23.5 2t-20.5 4zM291 534l27 -122q3 -19 22 -19h20q18 0 23 19l26 122l10 -117q0 -7 3 -12q2 -5 6.5 -8.5
t13.5 -3.5h60q15 0 15 16l-29 256q-3 23 -23 23h-68q-18 0 -23 -19l-23 -104l-25 104q-5 19 -22 19h-69q-21 0 -23 -23l-28 -256q0 -16 14 -16h61q8 0 13 3.5t7 8.5q3 5 3 12zM188 673q0 6 -4.5 10.5t-9.5 4.5h-159q-6 0 -10.5 -4.5t-4.5 -10.5v-40q0 -6 4.5 -11t10.5 -5h25
q6 0 6 -6v-192q0 -11 6 -18.5t17 -7.5h50q10 0 16.5 7.5t6.5 18.5v192q0 6 6 6h26q5 0 9.5 5t4.5 11v40z" />
    <glyph glyph-name="minus" unicode="&#x2212;" horiz-adv-x="508" 
d="M-107 75q0 28 10.5 53t29 44t43.5 30t54 11h341q28 0 53 -11t43.5 -29.5t29.5 -44t11 -53.5v-48q0 -28 -10.5 -53.5t-29 -44.5t-43.5 -30t-54 -11h-341q-29 0 -54 11.5t-43.5 30.5t-29 44t-10.5 53v48zM0 27q0 -14 9 -23t21 -9h341q13 0 22 9t9 23v48q0 13 -9 22.5
t-22 9.5h-341q-12 0 -21 -9.5t-9 -22.5v-48z" />
    <glyph glyph-name="commaaccent" unicode="&#xf6c3;" horiz-adv-x="207" 
d="M-88 -5q-13 26 -13 55v20q0 24 8.5 47t25 41t40 29t52.5 11h55q25 0 48 -9.5t40.5 -26.5t28 -40.5t10.5 -51.5v-28q0 -42 -10.5 -72.5t-28 -51t-39 -33t-44 -19t-43.5 -8.5t-36 -2h-84l-29 116zM47 30q0 -12 -8 -18.5t-17 -9.5q-11 -4 -25 -4l9 -36q19 0 36 2.5t30 11
t21 24t8 42.5v28q0 9 -6.5 15t-14.5 6h-55q-8 0 -13.5 -6t-5.5 -15v-20q0 -20 19 -20h22z" />
    <glyph glyph-name="GuardiaCivil" horiz-adv-x="782" 
d="M64 616q-4 3 -10.5 10.5t-13 18.5t-11 26.5t-4.5 33.5q0 25 9.5 48t26.5 40t40 27t50 10l128 133h222l265 -274q16 -19 16 -30q0 -8 -6 -12.5t-13 -6.5q-9 -3 -19 -3h-90l11 -43q27 -8 47 -24t34 -36t21 -42t7 -41q0 -32 -12 -59t-32 -47q14 -42 25 -82q9 -34 17 -69
t8 -57q0 -45 -27 -81t-70 -49q-33 -30 -77 -30h-51q-45 0 -79 28q-26 7 -48.5 22.5t-38.5 37.5q-34 -44 -87 -60q-34 -28 -77 -28h-51q-23 0 -44.5 8.5t-38.5 22.5q-41 14 -66 50t-25 80q0 11 2 20t4 17l44 169q-20 20 -32 47.5t-12 59.5q0 18 5.5 38.5t16 39.5t27 35
t39.5 25zM204 511q-2 -7 -10 -10.5t-17 -5t-17 -2t-11 -0.5q-16 0 -26.5 -13t-10.5 -29q0 -18 12.5 -30.5t29.5 -12.5q13 0 24 3l-70 -266q0 -2 -0.5 -3.5t-0.5 -3.5q0 -13 9 -22t23 -9h17v-6q0 -7 5 -12t13 -5h51q8 0 13 5t5 12v6h18q19 0 32.5 11t17.5 29l13 63
q2 10 12 10h105q9 0 12 -10l14 -64q4 -17 18 -28t31 -11h21v-6q0 -7 5 -12t13 -5h51q8 0 13 5t5 12v6h18q14 0 22.5 9t8.5 21q0 6 -1 8l-69 266q10 -3 23 -3q17 0 29.5 12.5t12.5 30.5q0 16 -10.5 29t-26.5 13q-3 0 -10.5 0.5t-16.5 2t-16.5 5t-10.5 10.5l-36 137
q-5 17 -18.5 27.5t-31.5 10.5h-11q15 24 15 54v4h69l-108 112h-132l-108 -112h69v-4q0 -29 14 -54h-11q-5 0 -7 -1l-17 28q-8 11 -19 11h-94q-8 0 -14 -5.5t-6 -13.5q0 -6 6 -12l82 -72q6 -5 12 -6zM458 744q-5 -11 -17 -11q-19 0 -19 19q0 3 1 5.5t3 5.5zM354 763
q2 -3 3 -5.5t1 -5.5q0 -8 -5.5 -13.5t-13.5 -5.5q-12 0 -17 11zM375 527q0 6 4.5 10.5t10.5 4.5t10 -4.5t4 -10.5t-4 -10.5t-10 -4.5t-10.5 4.5t-4.5 10.5zM375 372q0 7 4.5 11.5t10.5 4.5q14 0 14 -16q0 -6 -4 -10.5t-10 -4.5t-10.5 4.5t-4.5 10.5zM375 424q0 6 4.5 10.5
t10.5 4.5t10 -4.5t4 -10.5t-4 -10.5t-10 -4.5t-10.5 4.5t-4.5 10.5zM375 475q0 7 4.5 11.5t10.5 4.5q14 0 14 -16q0 -6 -4 -10.5t-10 -4.5t-10.5 4.5t-4.5 10.5z" />
    <glyph glyph-name="ChinoAK" horiz-adv-x="897" 
d="M111 565q2 8 4.5 16t6.5 16l-57 75q-6 16 -6 35q0 26 9.5 48.5t26.5 39.5t40 27t50 10h34l84 89q8 9 21.5 19t31.5 19t41 15t51 6q27 0 50 -6t41 -14.5t31 -19t22 -19.5l226 -233q13 -15 18 -24.5t5 -16.5t-3.5 -10t-8.5 -5t-11 -2h-58q9 -17 15 -33.5t11 -31.5
q28 -7 48.5 -23t34.5 -36t21 -43t7 -43q0 -48 -27 -85.5t-70 -54.5v-123q0 -47 -23 -80.5t-54 -56t-62 -33t-46 -10.5h-51q-12 0 -30 6.5t-36 14.5t-32 16t-18 10q-4 -2 -18.5 -10t-32.5 -16t-35.5 -14.5t-28.5 -6.5h-51q-36 0 -70 17t-59.5 43.5t-41 58t-15.5 61.5v123
q-42 17 -69 54.5t-27 85.5q0 20 7 43t20.5 43.5t34.5 36.5t49 22zM433 295q0 6 4.5 10t10.5 4t10.5 -4t4.5 -10q0 -7 -4.5 -11t-10.5 -4t-10.5 4t-4.5 11zM433 501q0 6 4.5 10.5t10.5 4.5t10.5 -4.5t4.5 -10.5t-4.5 -10.5t-10.5 -4.5t-10.5 4.5t-4.5 10.5zM413 755
q3 -5 3 -11q0 -8 -5 -13t-13 -5q-12 0 -17 10zM516 736q-5 -10 -16 -10q-8 0 -13.5 5t-5.5 13q0 6 3 11zM433 449q0 6 4.5 11t10.5 5t10.5 -5t4.5 -11t-4.5 -10.5t-10.5 -4.5t-10.5 4.5t-4.5 10.5zM433 398q0 6 4.5 10.5t10.5 4.5t10.5 -4.5t4.5 -10.5t-4.5 -10.5
t-10.5 -4.5t-10.5 4.5t-4.5 10.5zM433 346q0 6 4.5 10.5t10.5 4.5t10.5 -4.5t4.5 -10.5t-4.5 -10t-10.5 -4t-10.5 4t-4.5 10zM204 495q-2 -23 -17 -27.5t-33 -6t-32.5 -8t-14.5 -33.5q0 -17 12.5 -30t29.5 -13q15 0 28.5 5.5t24.5 14.5v-240q0 -21 15.5 -35.5t36.5 -14.5h10
v-6q0 -7 5 -12t13 -5h51q8 0 13 5t5 12v6h13q21 0 35.5 14.5t14.5 35.5v21h69v-21q0 -21 14.5 -35.5t35.5 -14.5h13v-6q0 -7 5 -12t13 -5h51q8 0 13 5t5 12v6h10q22 0 36.5 14.5t14.5 35.5v240q11 -9 24.5 -14.5t29.5 -5.5q17 0 29.5 13t12.5 30q0 27 -14.5 33.5t-32.5 8
t-33.5 6t-16.5 27.5q-2 16 -9 41.5t-24.5 52t-48.5 48.5t-80 30q11 14 17 30t6 35v4h69l-109 113q-5 7 -15 12q-8 5 -21 8.5t-30 3.5q-18 0 -30.5 -3.5t-20.5 -8.5q-10 -5 -15 -12l-108 -113h70q-1 -1 -1 -4q0 -19 6 -35t17 -30q-9 -2 -17 -3.5t-16 -4.5l-35 56
q-8 11 -19 11h-94q-8 0 -14 -5.5t-6 -13.5q0 -7 6 -11l83 -73q3 -4 8 -5q-16 -16 -26.5 -33.5t-17.5 -34t-10 -31t-4 -24.5z" />
    <glyph glyph-name="Ruso" horiz-adv-x="705" 
d="M270 908q0 -10 6.5 -17t17.5 -7q10 0 16.5 6.5t6.5 17.5h-47zM388 908q0 -9 6.5 -16.5t17.5 -7.5q10 0 16 6.5t7 17.5h-47zM319 560q0 14 9.5 23.5t23.5 9.5t23.5 -9.5t9.5 -23.5t-9.5 -23.5t-23.5 -9.5t-23.5 9.5t-9.5 23.5zM319 333q0 14 9.5 23.5t23.5 9.5t23.5 -9.5
t9.5 -23.5t-9.5 -24t-23.5 -10t-23.5 10t-9.5 24zM319 446q0 14 9.5 24t23.5 10t23.5 -10t9.5 -24t-9.5 -23.5t-23.5 -9.5t-23.5 9.5t-9.5 23.5zM154 0q-32 1 -60 13.5t-49 33.5t-33 49.5t-12 60.5v340q0 43 13.5 85t38 78t60 65t80.5 46l-53 82q-4 5 -4 14q0 10 6.5 17.5
t16.5 7.5l51 -14q1 16 8 32q-15 4 -24.5 16t-9.5 28v87q0 20 13 32.5t32 12.5h250q18 0 31 -12.5t13 -32.5v-87q0 -16 -10 -28.5t-24 -15.5q7 -16 8 -32q14 3 25 7q9 2 17 4.5t9 2.5q10 0 16.5 -7.5t6.5 -17.5q0 -9 -4 -14l-53 -81q36 -13 63.5 -31.5t47.5 -40.5t34 -45.5
t23 -46.5q21 -54 24 -114v-337q0 -32 -12 -60t-33 -49.5t-49 -34t-60 -13.5v-15q0 -10 -7 -17t-17 -7h-69q-11 0 -18 7t-7 17v15q-46 2 -81 26q-17 -13 -37.5 -19t-42.5 -7v-15q0 -10 -7 -17t-18 -7h-69q-11 0 -17.5 7t-6.5 17v15zM501 379q19 15 34 29.5t25 31t15 36.5
t5 46q0 39 -15 69.5t-41.5 51.5t-62.5 32t-78 11h-62q-42 0 -77.5 -10.5t-62 -31.5t-41.5 -51.5t-15 -70.5q0 -26 5 -46t15 -36.5t24.5 -31t34.5 -29.5q11 -8 11 -20q0 -7 -2 -10l-23 -34q-11 -14 -29 -14q-10 0 -19 6q-10 6 -18.5 12t-16.5 12v-174q0 -20 15 -35t36 -15
h109q21 0 36 15t15 35q0 15 10 25t24 10t24 -9.5t10 -23.5q0 -22 15 -37t37 -15h110q20 0 35 15t15 35v174q-8 -6 -16.5 -12t-18.5 -12q-9 -6 -20 -6q-17 0 -28 14l-23 34q-2 3 -2 10q0 11 11 20z" />
    </font>
</defs>
</svg>
