<?xml version="1.0" standalone="no"?>
<!DOCTYPE svg PUBLIC "-//W3C//DTD SVG 1.1//EN" "http://www.w3.org/Graphics/SVG/1.1/DTD/svg11.dtd" >
<svg xmlns="http://www.w3.org/2000/svg" xmlns:xlink="http://www.w3.org/1999/xlink" version="1.1">
<metadata>
Created by FontForge 20170731 at Tue May  8 11:52:58 2012
 By Aleksey,,,
Copyright (c) 2012 by Mans Greba:ck. All rights reserved. Personal use only. Please visit www.mawns.com for a commercial license. 
</metadata>
<defs>
<font id="ConeriaScriptSlantedDemo" horiz-adv-x="1112" >
  <font-face 
    font-family="Coneria Script Slanted Demo"
    font-weight="500"
    font-style="oblique"
    font-stretch="normal"
    units-per-em="1000"
    panose-1="2 0 0 0 0 0 0 0 0 0"
    ascent="750"
    descent="-250"
    x-height="510"
    cap-height="846"
    bbox="-751.579 -551.111 2384.84 1164.46"
    underline-thickness="50"
    underline-position="-150"
    unicode-range="U+0020-FB02"
  />
<missing-glyph horiz-adv-x="750" 
 />
    <glyph glyph-name=".notdef" horiz-adv-x="750" 
 />
    <glyph glyph-name=".null" horiz-adv-x="0" 
 />
    <glyph glyph-name="nonmarkingreturn" horiz-adv-x="750" 
 />
    <glyph glyph-name="space" unicode=" " horiz-adv-x="750" 
 />
    <glyph glyph-name="space" unicode="&#xa0;" horiz-adv-x="750" 
 />
    <glyph glyph-name="exclam" unicode="!" horiz-adv-x="503" 
d="M1215 999q-87 -85 -182 -167.5t-191 -165.5q-102 -90 -204.5 -178.5t-206.5 -177.5q-6 -5 -15 -14t-19.5 -17.5t-22 -14.5t-21.5 -5q-14 1 -12.5 9t10.5 18.5t21 20.5t17 15l145 145l147 143q67 66 133.5 130.5t135.5 130.5q41 40 82 79t84 77q20 17 45 21.5t43 -0.5
t23.5 -18t-12.5 -31zM101 -9q-32 0 -41 13.5t0 30t33 30.5t56 14t40.5 -14t-0.5 -30.5t-32.5 -30t-55.5 -13.5z" />
    <glyph glyph-name="quotedbl" unicode="&#x22;" horiz-adv-x="368" 
d="M620 544q-14 -20 -36 -40t-48 -37q-20 -14 -43.5 -25t-52.5 -19q-9 -1 -21.5 -2.5t-21 0.5t-8 9t18.5 24q17 14 32 17h1l2 1q1 0 3 1q14 5 26.5 14.5t23.5 20.5q-22 4 -30 17q-14 -15 -32 -30t-38 -28q-20 -14 -43 -25t-51 -19q-9 -1 -22 -2.5t-21 0.5t-7.5 9t18.5 24
q7 7 16 11t14 6q1 0 2 0.5t2 0.5t2 1q14 5 27 14.5t24 20.5q-27 5 -32.5 20.5t4.5 34.5q12 21 41.5 38.5t72.5 17.5q23 0 37 -6.5t19 -16.5q16 10 36.5 16.5t46.5 6.5q41 0 52.5 -17.5t-1.5 -38.5q-2 -4 -8 -12l-5 -8v1z" />
    <glyph glyph-name="numbersign" unicode="#" horiz-adv-x="1120" 
d="M100 588l154 33l-6 21l23 7l-5 23l24 5l-3 25l23 2v23h21l2 21l23 -3l4 23l25 -4l6 23l22 -6l9 21l23 -9l12 22l21 -11l12 20l21 -14l15 19l19 -15l16 16l15 -14l15 13l15 -17l20 13l13 -21l22 12l11 -20l21 9l10 -23l24 7l7 -22l22 5l5 -24l25 2l1 -15l231 50v-283
l-106 -23l2 -2l-13 -15l13 -16l-18 -15l13 -20l-21 -13l13 -21l-21 -12l9 -21l-23 -10l8 -24l-22 -7l4 -22l-24 -5l2 -25l-23 -2v-23h-20l-3 -21l-22 2l-5 -22l-24 4l-7 -23l-22 7l-8 -23l-24 10l-11 -22l-21 11l-13 -20l-21 13l-14 -18l-18 15l-17 -16l-15 14l-16 -14
l-14 18l-20 -13l-14 21l-21 -12l-11 20l-22 -9l-10 23l-23 -7l-7 22l-23 -5l-5 24l-24 -2l-3 23h-23v21l-20 2l2 23l-23 4l5 24l-24 7l7 22l-16 6l-141 -30v283zM715 520q6 3 11 8l12 11l1 1q-1 -1 -1 -3q0 -4 2 -8t6 -5q3 -1 11 1q10 4 14 7l12 9l4 4l4 4l8 7q-1 -1 -1 -3
q0 -1 -0.5 -1.5t-0.5 -1.5v-4q-2 -3 0 -5q0 -2 0.5 -2.5t0.5 -1.5q1 -3 4 -3q1 -1 4 -1t5 1l4 2l5 3l7 4l18 15l10 10l-3 -7q-2 -4 -2 -11v-3q2 -2 3 -2q0 -1 3 -1q1 0 5 2q2 1 3.5 1.5t3.5 2.5l6 4l6 6q2 1 6 5q3 2 5.5 5t5.5 6l10 12q1 1 1 2q-1 1 -2 1q-2 0 -4 -2l-2 -3
l-7 -8l-6 -7l-3.5 -3.5l-3.5 -3.5l-8 -7l-4 -3l-5 -2l-1 -1q-1 0 -2 1h1l4 8l2 4t3 4l4 6q2 2 4 6l36 53q6 6 8 10l9 9l21 24q5 6 9.5 12t9.5 12l6 10v5q-1 1 -5 1q-2 0 -6 -2q-2 0 -3.5 -1t-3.5 -2q-4 -2 -6 -4l-5 -4q-3 -2 -6 -4.5t-6 -5.5l-10 -11q-4 -4 -10 -12
q-2 -4 -8 -12q-5 -6 -8.5 -12t-7.5 -12l-15 -25l-11 -19l-4 -9q-1 0 -1 -1l-8 -8q-2 -3 -5 -5.5t-6 -5.5l-11 -10l-5 -4l-4 -3l-2 -1l-3 -2h-3h-2l3 6l3 5q0 1 0.5 1t0.5 1l1 1q2 4 4.5 7.5t5.5 7.5q2 4 4.5 8t5.5 8l8 12l4 7q2 2 4 6l1 1l1 1q0 1 0.5 1t0.5 1l1 1q3 2 2 4
q0 1 -4 1l-6 -2l-6 -3l-10 -7l-4 -4l-4 -4q0 4 -1 6q0 2 -4 4q-6 1 -12 0q-6 -2 -13 -5q-8 -3 -13 -7q-4 -2 -6.5 -4.5l-4.5 -4.5q-14 -11 -21 -22q-9 -11 -12 -21q-1 0 -1 -0.5t-1 -0.5q-2 -2 -4.5 -5t-5.5 -5q-4 -4 -12 -10q-3 -3 -7 -4q-4 -2 -6 -2h-2q-1 1 0 2l4 5l3 5
l7 8l12 16q3 4 6 7.5t5 8.5l5 10q2 6 1 9q0 3 -1 4q-2 2 -4 2q-3 0 -5 -1l-7 -3l-7 -4q-4 -4 -6 -5q-4 -4 -6 -5q-4 -4 -6 -5l-12 -12q-3 -3 -6 -5.5t-5 -5.5l-6 -7l-6 -6l2 3l14 20l15 21q0 1 0.5 1t0.5 1q1 1 1 2q1 2 1 4l-3 3q-1 0 -1.5 0.5t-2.5 0.5q-1 0 -2 -0.5
t-3 -0.5l-6 -3l-3 -3q-2 -1 -2 -2t-1 -2l-3 -4l-44 -76q-1 -1 -1 -4q1 0 1.5 -0.5t1.5 -0.5q3 0 5 1l5 3q0 1 2 3l2 2l3 3q0 1 2 3l10 12l11 12l10 12l12 12l12 11l5 5q2 1 6 5l6 4l7 3q1 0 1 -1h-1l-3 -3q-1 -3 -4 -4l-3 -4l-7 -8q-3 -3 -7 -9q-6 -8 -8 -12l-8 -12
q-2 -3 -4 -11q-2 -5 0 -9t5 -4q6 0 10 1q3 1 6 3t7 4zM494 471q7 1 14 5q7 3 13 9q5 3 9 10l5 10q3 6 3 11v9q0 3 -2 9l-4 9l-3 4q0 2 -2 4q0 1 -2 3v3q1 1 1 2h-5l-2 -2q-3 -1 -7 -5l-3 -7l-1 -1l-3 -4l-18 -25l-3 -4l-3 -5l-1 -1v-1q-1 0 -2 -1l-3 -5l-3 -4l-9 -11
l-12 -11q-3 -3 -7 -4q-4 -2 -7 -2h-1l1 1l4 6l4 5l4 6q2 1 4 5l5 8l5 9l3 8q1 3 1 8q-1 1 -1 4l-2 3q0 2 -1 3v13l4 6q2 5 -2 7q-3 3 -10 0q-7 -2 -9 -4q-4 -3 -6 -7t-2 -7q0 -4 1 -6l2 -2l2 -2l-3 -4l-3 -3l-14 -18l-11 -13q-1 0 -3 -2v-1l-1 -1q0 -1 -1 -1l-6 -8
l-7.5 -7.5t-8.5 -6.5q-10 -8 -19 -12q-2 -2 -5 -2.5t-6 -2.5q-8 -2 -11 -1q-4 0 -4 2q-1 1 -1 4q0 1 2 5l2 5l6 10q4 -2 7 -2q6 0 10 1q7 1 15 6q5 2 14 9l9 9q2 2 3.5 4.5t2.5 4.5l4 8q0 6 -2 8q-2 3 -5 5q-3 1 -10 1q-2 -1 -5 -1t-6 -2q-4 -1 -12 -5q-13 -6 -25 -16
q-11 -9 -17 -20q-3 -3 -7 -11q-3 -5 -4 -11v-10q1 -3 5 -7q6 -4 13 -3q8 0 16 3q9 3 18 9q9 4 18 12l14 12l8 9q0 1 2 3q0 2 2 2l2 4l9 9l9 12q3 3 5.5 6t4.5 6l4 -2l2 -3q1 -2 1 -4q0 -1 -4 -5l-9 -10l-8 -11l-7 -11l-3 -10q-1 -2 -1 -5v-4q2 -3 3 -4t4 -1q2 0 10 2l9 6
q8 6 12 10q3 2 5.5 5t4.5 5q4 4 5 6l5 6l2 3l3 3q2 2 2 3l7 9l12 17q0 -2 0.5 -4t0.5 -4q2 -6 2 -8l2 -4q-10 -4 -14 -7l-11 -9q-6 -6 -7 -10q-2 -4 -2 -10q1 -3 6 -5q3 -1 11 -1zM553 510q-2 -7 0 -13q0 -3 2 -5t6 -4q2 0 3 -0.5t3 0.5h7q5 1 15 5l15 8l13 11l11 10l8 11
l6 10l3 10q1 6 0 9q0 3 -3 6q-1 2 -6 4q-2 0 -4 0.5t-4 0.5q-3 0 -11 -2q-1 0 -7 -2l-7 -3l-14 -9q-4 -2 -7 -5t-6 -5l-10 -11l-7 -11q-5 -8 -6 -15zM175 -9q-6 6 -9 15t-3 19q0 6 1 9q0 2 1 4.5t1 4.5q1 7 8 14q2 3 5.5 5.5t7.5 4.5q5 2 9.5 3t9.5 1h3q3 0 9 -2q3 0 5 -1
l4 -2q7 -4 12 -11q2 -3 4 -7q1 -2 1 -6h-19q0 3 -2 5q-1 3 -6 6t-10 3q-3 0 -5 -1h-4l-8 -6q-2 -2 -3.5 -4t-2.5 -5q-2 -5 -2 -16q0 -9 3 -16q1 -7 7 -9q3 -2 5.5 -3t5.5 -2h3q7 0 10 3q4 0 7 5q2 3 3.5 5.5t1.5 5.5h-21v16h37v-48h-12l-2 11q-3 -5 -8 -8q-3 -2 -5.5 -2.5
t-4.5 -2.5q-3 0 -5.5 -0.5t-5.5 -0.5q-9 0 -14 4q-8 3 -12 9zM1058 -110q3 -3 3 -10v-45h-17v39q0 13 -10 13q-11 0 -11 -13v-39h-17v39q0 5 -1 6q0 3 -3 6q-2 1 -6 1q-11 0 -11 -12v-40h-17v65h16v-10q7 12 19 12q8 0 11 -3q4 -2 7 -8q2 4 8 8q3 3 10 3q8 0 12 -4
q6 -3 7 -8zM464 -102q4 -3 7 -8q2 -2 2 -10v-45h-16v39q0 13 -10 13q-11 0 -11 -13v-39h-18v45q0 3 -3 6q-2 1 -7 1q-11 0 -11 -12v-40h-16v65h16v-10q6 12 19 12q7 0 10 -3q5 -2 8 -8q2 5 7 8q4 3 10 3q8 0 13 -4zM948 -107q2 -2 3 -5t3 -6q2 -4 2 -15q0 -10 -4 -17
q-3 -7 -11 -12q-7 -4 -18 -4q-13 0 -19 5q-7 5 -11 12q-3 7 -3 16t2 13q1 4 2.5 6.5t3.5 5.5q6 6 11 7q4 3 14 3q8 0 14 -3q4 -1 11 -6zM706 39q5 -6 7 -12t2 -14q0 -10 -4 -17q-3 -7 -11 -12t-18 -5q-11 0 -19 5q-6 5 -11 13q-3 7 -3 16q0 5 2 13q1 6 6 11q6 6 11 8
q4 2 14 2t15 -2q2 -2 4.5 -3t4.5 -3zM141 -100h17l-18 -62v-3h-18l-10 47l-10 -47h-18l-18 63v2h18l10 -47l9 47h18l9 -47zM347 -100l-18 -62l-1 -3h-17l-10 47l-11 -47h-17l-18 63v2h18l10 -47l9 47h18l9 -47l10 47h18zM235 -100h18l-18 -62l-1 -3h-17l-11 47l-10 -47h-18
l-17 63v2h17l11 -47l9 47h17l10 -47zM625 -100h17l-18 -62v-3h-18l-10 47l-10 -47h-18l-18 63v2h18l10 -47l9 47h17l10 -47zM174 386l6 6l4 6l6 6q1 2 5 6l36 50q3 5 6 8.5t5 8.5l12 18q3 5 6 9t5 9q3 5 5.5 9t4.5 9q1 3 0 4t-3 1q-4 0 -5 -1l-5 -3l-10 -11l-9 -12
q-5 -5 -8 -11l-9 -11l-32 -46l-15 -24q-4 -6 -7 -12l-6 -12l-2 -3q0 -1 -0.5 -1.5t-0.5 -1.5v-2q0 -1 1 -2h5zM900 -19l-4.5 -1.5t-4.5 -0.5t-9 2q-2 2 -4 3t-4 3q-3 4 -3 12q0 10 5 14q6 4 14 6l15 2q6 1 6 5q0 8 -10 8q-4 0 -8 -2q-3 -1 -4 -8h-16q1 9 4 14q2 4 9 7
q4 2 7 2h8q13 0 18 -2l4 -4t3 -4q2 -6 2 -8v-42q0 -3 4 -3v-3h-19q-1 0 -1 1v1v1q0 2 -0.5 3t-0.5 2q-2 -3 -5 -5q-2 -1 -3.5 -2t-2.5 -1zM542 -159q0 -3 3 -3v-3h-18q0 1 -1 2v1q-1 2 -1 5q-4 -4 -6 -5l-6 -3q-2 -1 -8 -1q-7 0 -9 1q-5 1 -8 7q-4 3 -4 10q0 10 6 15
q4 4 13 6l16 2q5 2 5 5q0 8 -10 8q-2 0 -4 -0.5t-4 -0.5l-2 -4t-1 -4h-16q0 7 3 13q6 6 10 7l6 2q2 0 4 0.5t4 0.5q13 0 18 -4q5 -3 8 -7q1 -3 1 -8v-35q0 -5 1 -7zM316 8h-45q0 -6 5 -11q3 -4 11 -4q3 0 7 2q4 4 4 5h18q-2 -5 -6 -11q-3 -2 -5.5 -4t-4.5 -3q-4 -1 -6.5 -2
t-6.5 -1q-32 0 -32 36q0 5 0.5 8.5t2.5 7.5q3 8 10 12q4 3 8.5 3.5t9.5 0.5q13 0 17 -4q6 -4 10 -13q2 -5 2.5 -9t0.5 -9v-4zM607 353q4 5 4 14q0 6 -2 10t-6 9q-5 5 -11 6q-6 3 -13 3q-11 0 -16 -4q-5 -2 -7.5 -4.5t-4.5 -5.5q-4 -7 -4 -14q0 -8 2 -11q4 -6 7 -9q2 -2 5 -3
t6 -3q8 -2 12 -2q11 0 16 4q6 3 12 10zM187 500q-1 -6 0 -10t6 -7l10 -3q8 0 13 1q2 0 3 1t1 2t-1 1h-3q-2 0 -2 -1q-10 -1 -17 2q-4 2 -5 4q-2 4 -2 6q0 4 1 7l4 8l10 11q2 2 5.5 4.5t6.5 4.5q4 2 7 4t7 4t7.5 3.5t7.5 3.5q4 1 7.5 2t8.5 3l16 3q10 2 15 2t13 -2
q2 -1 4.5 -1.5t4.5 -2.5l5 -7q1 -3 1 -10q0 -3 -2 -11l-6 -11q-2 -4 -8 -12q-2 -3 -5 -5.5t-6 -5.5q-2 -3 -5.5 -5.5t-6.5 -5.5l-13 -8l-14 -6l-8 -3q-3 0 -7 -2h-3q-2 0 -3 -1q-2 0 -2 -1q-2 0 -2 -2q0 -1 1 -1h3q2 0 3 1h3l15 5l15 6l15 7l15 9l13 9l12 11l10 11
q2 3 3.5 6t2.5 6q3 6 3 11q1 6 0 10q-2 6 -4 9q-4 3 -8 5q-6 3 -11 3q-5 1 -14 1q-4 0 -14 -2q-8 -1 -16 -3l-16 -4t-15.5 -5.5t-15.5 -7.5q-4 -2 -7.5 -4t-7.5 -5q-8 -5 -13 -10q-4 -3 -10 -11zM775 -132q5 -3 5 -12q0 -6 -3 -12q-4 -5 -10 -8q-4 -2 -15 -2h-6q-4 0 -6 1
q-6 2 -10 4q-6 4 -7 7q-2 6 -2 10h17q0 -9 15 -9q5 0 8 1q2 4 2 5q0 4 -7 5l-15 4q-3 1 -6.5 2.5t-5.5 3.5q-6 4 -6 12q0 6 3 11q2 4 9 8q4 3 14 3q6 0 10.5 -1t8.5 -3q6 -3 8 -8l2 -5v-5h-17q0 5 -3 7q-1 1 -8 1q-10 0 -10 -6q0 -3 6 -4l15 -4q6 -1 14 -6zM699 -101
q5 -2 7 -7q3 -6 3 -12v-45h-17v39q0 8 -2 10q-1 3 -9 3q-7 0 -10 -4q-3 -5 -3 -11v-37h-18v65h17v-10q7 12 20 12q6 0 12 -3zM783 38q3 -6 3 -12v-45h-17v39q0 4 -2 10q-3 3 -10 3t-10 -4q-2 -3 -2 -11v-37h-18v65h16v-9q7 10 20 10q9 0 12 -2zM484 -10q-3 -5 -8 -7
q-8 -4 -12 -4q-10 0 -16 7q-6 6 -6 17v43h17v-40q0 -12 11 -12q4 0 6 1t6 5q0 2 1 4t1 4v38h16v-65h-16v9zM854 -113q-8 0 -10 -5q-4 -4 -4 -13t1 -12q1 -5 4 -7q2 -2 8 -2q5 0 8 2q3 3 3 9h18q0 -5 -4 -13q-3 -5 -10 -9q-6 -3 -16 -3q-13 0 -21 7q-4 4 -7 10q-1 4 -1 15
q0 14 6 25q8 11 23 11q9 0 15 -3q7 -2 10 -9q5 -5 5 -13h-18q0 3 -2 7q-2 3 -8 3zM423 55q-2 0 -2 -2v-7h11v-12h-11v-53h-17v53h-9v12h9v5q0 18 19 18h9v-13h-5q-3 0 -4 -1zM632 46h12v-12h-12v-53h-17v53h-9v12h9v5q0 18 19 18h8v-13h-4q-4 0 -4 -1q-1 0 -2 -2v-7z
M973 -19h-11q-8 0 -11 2q-4 0 -5 4q0 2 -1 3.5t-1 3.5v40h-8v12h8v17h18v-17h11v-12h-11v-35q0 -2 0.5 -3t0.5 -2q1 0 2 -0.5t3 -0.5l3 1h2v-13zM569 492l-2 2q-1 1 -1 4q0 2 1 3q2 8 5 12q6 8 8 12l6 7l5 6l9 12q3 3 5.5 6t5.5 5l5 4l6 3q2 1 5 1q2 0 3 -2q1 -1 1 -4
q0 -2 -2 -6l-3 -5l-3 -6q-2 -4 -4 -6l-4 -6l-4 -6t-4 -5l-9 -11l-11 -11q-3 -3 -6 -4q-3 -3 -7 -4q-2 -1 -5 -1zM347 63v-17h10v-12h-10v-35q0 -4 1 -5q1 0 2.5 -0.5t3.5 -0.5l2 1h1v-13h-10q-8 0 -11 2q-4 0 -5 4q-1 2 -1 7v40h-9v12h9v17h17zM755 536q2 4 4 6l4 6
q1 2 2 3.5t2 3.5t5 6l10 14l15 18l4 5l4 4l5 3q2 1 5 1q2 1 5 1l3 -2q0 -1 0.5 -1.5t0.5 -2.5t-1 -4q0 -2 -2 -4l-9 -12l-8 -13l-9 -9l-9 -10q-2 -1 -6 -5l-7 -6q-4 -2 -6 -4q-2 -1 -3 -2t-3 -1q-4 -2 -6 -1h-1q-1 1 -1 2l1 2q0 1 1 2zM831 -19h-11q-8 0 -10 2q-5 0 -6 4v47
h-10v12h10v17h16v-17h11v-12h-11v-35q0 -2 0.5 -3t0.5 -2q2 0 3 -0.5t3 -0.5l2 1h2v-13zM593 386l2 -4t2 -5q0 -2 0.5 -4.5t0.5 -5.5q0 -6 -2 -14q-3 -6 -7 -10q-3 -2 -10 -2q-6 0 -7 2q-4 0 -7 5l-3 8q-2 6 -2 11q0 2 0.5 4.5t0.5 4.5l3 7q3 5 4 6q0 1 5 3q4 2 7 2
q1 0 1.5 -0.5t2.5 -0.5l4 -2zM533 -19h-17v88h17v-88zM562 -19h-16v88h16v-88zM511 394h-58v-2h2q5 0 6 -2q3 -2 3 -7v-32q0 -10 -9 -10h-2v-1h58v22q-2 -2 -2 -3.5t-1 -3.5l-6 -8q-3 -3 -5 -3l-5 -2q-3 -1 -7 -1h-9v24h1q7 0 11 -4l2 -3q0 -1 0.5 -1.5t0.5 -2.5q1 -2 1 -5
h1v35h-1v-5l-3 -6q-5 -6 -10 -6h-3v25h10q9 0 12 -1l5 -4l3 -6l3 -8h2v21zM693 394h-27v-2h5q0 -1 2 -1q4 -4 4 -5q2 -2 2 -8v-23l-38 39h-21v-2h1q4 0 5 -1q2 0 2.5 -1t1.5 -1q1 -2 1 -5v-31q0 -4 -1 -6q-1 -3 -4 -4q-4 -2 -7 -2v-1h28v1q-3 0 -5 1q-2 0 -2.5 0.5t-2.5 0.5
l-3 5q-1 1 -1 7v32l46 -47h2v38q0 6 3 11q1 3 9 3v2zM444 365q-3 2 -7 4l-10 4h-6l-1 1l-8 2q-2 1 -3 1t-2 1q-1 0 -3 2t-2 4q0 3 1 4q0 -1 2 3l4 2q2 0 3 0.5t3 0.5q4 0 8 -2q5 0 8 -3q4 -2 6 -4t2.5 -4.5t2.5 -5.5h2v18h-2q-1 -4 -4 -4t-5 1q-10 5 -18 5q-5 0 -11 -2
l-7 -5q-3 -5 -3 -9q0 -3 3 -6q0 -1 3 -4l7 -3q1 -1 4 -1.5t8 -2.5l4 -1q6 -2 8 -2t4 -2q1 0 2 -1q3 -3 3 -6q0 -1 -2 -5q-1 -1 -5 -4h-6q-6 0 -9 1l-10 4l-6 6q-5 7 -5 12h-2v-25h2q0 4 2 4q2 2 5 2q1 0 1 -0.5t2 -0.5q1 0 1.5 -0.5t2.5 -0.5l8 -3q2 -1 8 -1q3 0 9 2
q2 0 3.5 1t3.5 3q2 1 2 2t2 3v11zM694 0q4 4 4 13q0 10 -4 14q-3 6 -12 6t-12 -6q-4 -6 -4 -14q0 -7 4 -13q2 -6 12 -6t12 6zM935 -146q2 3 2.5 6.5t0.5 6.5q0 11 -3 15q-3 5 -12 5t-12 -5q-3 -6 -3 -15q0 -7 3 -13t12 -6t12 6zM818 389q1 2 3 2q2 1 5 1v2h-27v-2h3
q5 0 6 -1q2 -1 2 -4q0 -2 -3 -6l-11 -15l-14 18l-2 4v1q0 2 1 2q0 1 3 1h5v2h-35v-2h1q6 0 8 -1l3 -3t2 -3l17 -22v-12q0 -5 -2 -7l-4 -2t-4 -1h-3v-1h38v1h-4q-4 0 -7 3q-3 1 -3 7v13l14 19l3 4q4 2 5 2zM757 364h-1q-2 -2 -2 -3.5t-1 -3.5q-2 -2 -2 -5q-1 -1 -3 -4
q-4 -4 -7 -5q-2 -2 -8 -2h-14v42q0 5 3 7q2 2 7 2h4v2h-37v-2h3q9 0 9 -9v-32q0 -10 -9 -10h-3v-1h61v24zM387 394h-27v-2h6q1 0 1.5 -0.5t1.5 -0.5q6 -3 6 -13v-19q0 -8 -5 -13l-7 -5h-9q-7 0 -10 2q-2 0 -6 4q-2 2 -2 9v27q0 6 2 7q2 2 8 2h4v2h-37v-2h1q11 0 11 -9v-27
q0 -7 6 -13l9 -3q3 -1 11 -1t14 2q4 2 6 4q5 4 5 13v28l5 5h1l1 1h4v2zM367 480q-6 -2 -7 -2q-3 0 -7 2l9 12l10 12l4 5q2 2 3 2.5t2 2.5l6 5l7 3q5 1 8 0q1 -2 0 -6l-3 -5q-2 -2 -4 -6q-2 -2 -2.5 -3t-2.5 -2q-1 -2 -5 -6q-2 -3 -5 -5q-4 -4 -6 -5zM512 510q0 -2 0.5 -3
t0.5 -3q-1 -2 -1 -5q0 -2 -0.5 -3t-0.5 -3l-2 -5q-1 -2 -5 -6l-4 -3q-2 -2 -5 -2q-1 -1 -5 -1q-2 -2 -4 0q-2 0 -4 2v5l2 6l4 5q5 6 11 10zM888 -1q0 -5 2 -5q2 -2 6 -2h4h1l2 1q4 2 6 4q2 4 2 8v8q-3 -3 -7 -3l-8 -2q-3 0 -6 -3q-2 -1 -2 -6zM524 -133q-3 -3 -6 -3l-8 -1
l-6 -3q-3 -3 -3 -7t3 -5q2 -2 6 -2h3q1 0 1.5 0.5t1.5 0.5l6 4q2 2 2 7v9zM793 -147h18v-18h-18v18zM347 -147h18v-18h-18v18zM299 20q-2 6 -4 10q-2 2 -4 3t-5 1q-11 0 -13 -14h26zM930 655q-1 -2 -5 -6l16 22l8 13l15 20l1 1q0 2 2 2q0 1 1 1q1 1 1 0q0 -2 -2 -6l-4 -6
l-4 -5q-2 -4 -4 -5l-9 -12l-10 -12z" />
    <glyph glyph-name="dollar" unicode="$" horiz-adv-x="1129" 
d="M100 588l154 33l-6 21l23 7l-5 23l24 5l-3 25l23 2v23h21l2 21l23 -3l4 23l25 -4l6 23l22 -6l9 21l23 -9l12 22l21 -11l12 20l21 -14l15 19l19 -15l16 16l15 -14l15 13l15 -17l20 13l13 -21l22 12l11 -20l21 9l10 -23l24 7l7 -22l22 5l5 -24l25 2l1 -15l231 50v-283
l-106 -23l2 -2l-13 -15l13 -16l-18 -15l13 -20l-21 -13l13 -21l-21 -12l9 -21l-23 -10l8 -24l-22 -7l4 -22l-24 -5l2 -25l-23 -2v-23h-20l-3 -21l-22 2l-5 -22l-24 4l-7 -23l-22 7l-8 -23l-24 10l-11 -22l-21 11l-13 -20l-21 13l-14 -18l-18 15l-17 -16l-15 14l-16 -14
l-14 18l-20 -13l-14 21l-21 -12l-11 20l-22 -9l-10 23l-23 -7l-7 22l-23 -5l-5 24l-24 -2l-3 23h-23v21l-20 2l2 23l-23 4l5 24l-24 7l7 22l-16 6l-141 -30v283zM715 520q6 3 11 8l12 11l1 1q-1 -1 -1 -3q0 -4 2 -8t6 -5q3 -1 11 1q10 4 14 7l12 9l4 4l4 4l8 7q-1 -1 -1 -3
q0 -1 -0.5 -1.5t-0.5 -1.5v-4q-2 -3 0 -5q0 -2 0.5 -2.5t0.5 -1.5q1 -3 4 -3q1 -1 4 -1t5 1l4 2l5 3l7 4l18 15l10 10l-3 -7q-2 -4 -2 -11v-3q2 -2 3 -2q0 -1 3 -1q1 0 5 2q2 1 3.5 1.5t3.5 2.5l6 4l6 6q2 1 6 5q3 2 5.5 5t5.5 6l10 12q1 1 1 2q-1 1 -2 1q-2 0 -4 -2l-2 -3
l-7 -8l-6 -7l-3.5 -3.5l-3.5 -3.5l-8 -7l-4 -3l-5 -2l-1 -1q-1 0 -2 1h1l4 8l2 4t3 4l4 6q2 2 4 6l36 53q6 6 8 10l9 9l21 24q5 6 9.5 12t9.5 12l6 10v5q-1 1 -5 1q-2 0 -6 -2q-2 0 -3.5 -1t-3.5 -2q-4 -2 -6 -4l-5 -4q-3 -2 -6 -4.5t-6 -5.5l-10 -11q-4 -4 -10 -12
q-2 -4 -8 -12q-5 -6 -8.5 -12t-7.5 -12l-15 -25l-11 -19l-4 -9q-1 0 -1 -1l-8 -8q-2 -3 -5 -5.5t-6 -5.5l-11 -10l-5 -4l-4 -3l-2 -1l-3 -2h-3h-2l3 6l3 5q0 1 0.5 1t0.5 1l1 1q2 4 4.5 7.5t5.5 7.5q2 4 4.5 8t5.5 8l8 12l4 7q2 2 4 6l1 1l1 1q0 1 0.5 1t0.5 1l1 1q3 2 2 4
q0 1 -4 1l-6 -2l-6 -3l-10 -7l-4 -4l-4 -4q0 4 -1 6q0 2 -4 4q-6 1 -12 0q-6 -2 -13 -5q-8 -3 -13 -7q-4 -2 -6.5 -4.5l-4.5 -4.5q-14 -11 -21 -22q-9 -11 -12 -21q-1 0 -1 -0.5t-1 -0.5q-2 -2 -4.5 -5t-5.5 -5q-4 -4 -12 -10q-3 -3 -7 -4q-4 -2 -6 -2h-2q-1 1 0 2l4 5l3 5
l7 8l12 16q3 4 6 7.5t5 8.5l5 10q2 6 1 9q0 3 -1 4q-2 2 -4 2q-3 0 -5 -1l-7 -3l-7 -4q-4 -4 -6 -5q-4 -4 -6 -5q-4 -4 -6 -5l-12 -12q-3 -3 -6 -5.5t-5 -5.5l-6 -7l-6 -6l2 3l14 20l15 21q0 1 0.5 1t0.5 1q1 1 1 2q1 2 1 4l-3 3q-1 0 -1.5 0.5t-2.5 0.5q-1 0 -2 -0.5
t-3 -0.5l-6 -3l-3 -3q-2 -1 -2 -2t-1 -2l-3 -4l-44 -76q-1 -1 -1 -4q1 0 1.5 -0.5t1.5 -0.5q3 0 5 1l5 3q0 1 2 3l2 2l3 3q0 1 2 3l10 12l11 12l10 12l12 12l12 11l5 5q2 1 6 5l6 4l7 3q1 0 1 -1h-1l-3 -3q-1 -3 -4 -4l-3 -4l-7 -8q-3 -3 -7 -9q-6 -8 -8 -12l-8 -12
q-2 -3 -4 -11q-2 -5 0 -9t5 -4q6 0 10 1q3 1 6 3t7 4zM494 471q7 1 14 5q7 3 13 9q5 3 9 10l5 10q3 6 3 11v9q0 3 -2 9l-4 9l-3 4q0 2 -2 4q0 1 -2 3v3q1 1 1 2h-5l-2 -2q-3 -1 -7 -5l-3 -7l-1 -1l-3 -4l-18 -25l-3 -4l-3 -5l-1 -1v-1q-1 0 -2 -1l-3 -5l-3 -4l-9 -11
l-12 -11q-3 -3 -7 -4q-4 -2 -7 -2h-1l1 1l4 6l4 5l4 6q2 1 4 5l5 8l5 9l3 8q1 3 1 8q-1 1 -1 4l-2 3q0 2 -1 3v13l4 6q2 5 -2 7q-3 3 -10 0q-7 -2 -9 -4q-4 -3 -6 -7t-2 -7q0 -4 1 -6l2 -2l2 -2l-3 -4l-3 -3l-14 -18l-11 -13q-1 0 -3 -2v-1l-1 -1q0 -1 -1 -1l-6 -8
l-7.5 -7.5t-8.5 -6.5q-10 -8 -19 -12q-2 -2 -5 -2.5t-6 -2.5q-8 -2 -11 -1q-4 0 -4 2q-1 1 -1 4q0 1 2 5l2 5l6 10q4 -2 7 -2q6 0 10 1q7 1 15 6q5 2 14 9l9 9q2 2 3.5 4.5t2.5 4.5l4 8q0 6 -2 8q-2 3 -5 5q-3 1 -10 1q-2 -1 -5 -1t-6 -2q-4 -1 -12 -5q-13 -6 -25 -16
q-11 -9 -17 -20q-3 -3 -7 -11q-3 -5 -4 -11v-10q1 -3 5 -7q6 -4 13 -3q8 0 16 3q9 3 18 9q9 4 18 12l14 12l8 9q0 1 2 3q0 2 2 2l2 4l9 9l9 12q3 3 5.5 6t4.5 6l4 -2l2 -3q1 -2 1 -4q0 -1 -4 -5l-9 -10l-8 -11l-7 -11l-3 -10q-1 -2 -1 -5v-4q2 -3 3 -4t4 -1q2 0 10 2l9 6
q8 6 12 10q3 2 5.5 5t4.5 5q4 4 5 6l5 6l2 3l3 3q2 2 2 3l7 9l12 17q0 -2 0.5 -4t0.5 -4q2 -6 2 -8l2 -4q-10 -4 -14 -7l-11 -9q-6 -6 -7 -10q-2 -4 -2 -10q1 -3 6 -5q3 -1 11 -1zM553 510q-2 -7 0 -13q0 -3 2 -5t6 -4q2 0 3 -0.5t3 0.5h7q5 1 15 5l15 8l13 11l11 10l8 11
l6 10l3 10q1 6 0 9q0 3 -3 6q-1 2 -6 4q-2 0 -4 0.5t-4 0.5q-3 0 -11 -2q-1 0 -7 -2l-7 -3l-14 -9q-4 -2 -7 -5t-6 -5l-10 -11l-7 -11q-5 -8 -6 -15zM175 -9q-6 6 -9 15t-3 19q0 6 1 9q0 2 1 4.5t1 4.5q1 7 8 14q2 3 5.5 5.5t7.5 4.5q5 2 9.5 3t9.5 1h3q3 0 9 -2q3 0 5 -1
l4 -2q7 -4 12 -11q2 -3 4 -7q1 -2 1 -6h-19q0 3 -2 5q-1 3 -6 6t-10 3q-3 0 -5 -1h-4l-8 -6q-2 -2 -3.5 -4t-2.5 -5q-2 -5 -2 -16q0 -9 3 -16q1 -7 7 -9q3 -2 5.5 -3t5.5 -2h3q7 0 10 3q4 0 7 5q2 3 3.5 5.5t1.5 5.5h-21v16h37v-48h-12l-2 11q-3 -5 -8 -8q-3 -2 -5.5 -2.5
t-4.5 -2.5q-3 0 -5.5 -0.5t-5.5 -0.5q-9 0 -14 4q-8 3 -12 9zM1058 -110q3 -3 3 -10v-45h-17v39q0 13 -10 13q-11 0 -11 -13v-39h-17v39q0 5 -1 6q0 3 -3 6q-2 1 -6 1q-11 0 -11 -12v-40h-17v65h16v-10q7 12 19 12q8 0 11 -3q4 -2 7 -8q2 4 8 8q3 3 10 3q8 0 12 -4
q6 -3 7 -8zM464 -102q4 -3 7 -8q2 -2 2 -10v-45h-16v39q0 13 -10 13q-11 0 -11 -13v-39h-18v45q0 3 -3 6q-2 1 -7 1q-11 0 -11 -12v-40h-16v65h16v-10q6 12 19 12q7 0 10 -3q5 -2 8 -8q2 5 7 8q4 3 10 3q8 0 13 -4zM948 -107q2 -2 3 -5t3 -6q2 -4 2 -15q0 -10 -4 -17
q-3 -7 -11 -12q-7 -4 -18 -4q-13 0 -19 5q-7 5 -11 12q-3 7 -3 16t2 13q1 4 2.5 6.5t3.5 5.5q6 6 11 7q4 3 14 3q8 0 14 -3q4 -1 11 -6zM706 39q5 -6 7 -12t2 -14q0 -10 -4 -17q-3 -7 -11 -12t-18 -5q-11 0 -19 5q-6 5 -11 13q-3 7 -3 16q0 5 2 13q1 6 6 11q6 6 11 8
q4 2 14 2t15 -2q2 -2 4.5 -3t4.5 -3zM141 -100h17l-18 -62v-3h-18l-10 47l-10 -47h-18l-18 63v2h18l10 -47l9 47h18l9 -47zM347 -100l-18 -62l-1 -3h-17l-10 47l-11 -47h-17l-18 63v2h18l10 -47l9 47h18l9 -47l10 47h18zM235 -100h18l-18 -62l-1 -3h-17l-11 47l-10 -47h-18
l-17 63v2h17l11 -47l9 47h17l10 -47zM625 -100h17l-18 -62v-3h-18l-10 47l-10 -47h-18l-18 63v2h18l10 -47l9 47h17l10 -47zM174 386l6 6l4 6l6 6q1 2 5 6l36 50q3 5 6 8.5t5 8.5l12 18q3 5 6 9t5 9q3 5 5.5 9t4.5 9q1 3 0 4t-3 1q-4 0 -5 -1l-5 -3l-10 -11l-9 -12
q-5 -5 -8 -11l-9 -11l-32 -46l-15 -24q-4 -6 -7 -12l-6 -12l-2 -3q0 -1 -0.5 -1.5t-0.5 -1.5v-2q0 -1 1 -2h5zM900 -19l-4.5 -1.5t-4.5 -0.5t-9 2q-2 2 -4 3t-4 3q-3 4 -3 12q0 10 5 14q6 4 14 6l15 2q6 1 6 5q0 8 -10 8q-4 0 -8 -2q-3 -1 -4 -8h-16q1 9 4 14q2 4 9 7
q4 2 7 2h8q13 0 18 -2l4 -4t3 -4q2 -6 2 -8v-42q0 -3 4 -3v-3h-19q-1 0 -1 1v1v1q0 2 -0.5 3t-0.5 2q-2 -3 -5 -5q-2 -1 -3.5 -2t-2.5 -1zM542 -159q0 -3 3 -3v-3h-18q0 1 -1 2v1q-1 2 -1 5q-4 -4 -6 -5l-6 -3q-2 -1 -8 -1q-7 0 -9 1q-5 1 -8 7q-4 3 -4 10q0 10 6 15
q4 4 13 6l16 2q5 2 5 5q0 8 -10 8q-2 0 -4 -0.5t-4 -0.5l-2 -4t-1 -4h-16q0 7 3 13q6 6 10 7l6 2q2 0 4 0.5t4 0.5q13 0 18 -4q5 -3 8 -7q1 -3 1 -8v-35q0 -5 1 -7zM316 8h-45q0 -6 5 -11q3 -4 11 -4q3 0 7 2q4 4 4 5h18q-2 -5 -6 -11q-3 -2 -5.5 -4t-4.5 -3q-4 -1 -6.5 -2
t-6.5 -1q-32 0 -32 36q0 5 0.5 8.5t2.5 7.5q3 8 10 12q4 3 8.5 3.5t9.5 0.5q13 0 17 -4q6 -4 10 -13q2 -5 2.5 -9t0.5 -9v-4zM607 353q4 5 4 14q0 6 -2 10t-6 9q-5 5 -11 6q-6 3 -13 3q-11 0 -16 -4q-5 -2 -7.5 -4.5t-4.5 -5.5q-4 -7 -4 -14q0 -8 2 -11q4 -6 7 -9q2 -2 5 -3
t6 -3q8 -2 12 -2q11 0 16 4q6 3 12 10zM187 500q-1 -6 0 -10t6 -7l10 -3q8 0 13 1q2 0 3 1t1 2t-1 1h-3q-2 0 -2 -1q-10 -1 -17 2q-4 2 -5 4q-2 4 -2 6q0 4 1 7l4 8l10 11q2 2 5.5 4.5t6.5 4.5q4 2 7 4t7 4t7.5 3.5t7.5 3.5q4 1 7.5 2t8.5 3l16 3q10 2 15 2t13 -2
q2 -1 4.5 -1.5t4.5 -2.5l5 -7q1 -3 1 -10q0 -3 -2 -11l-6 -11q-2 -4 -8 -12q-2 -3 -5 -5.5t-6 -5.5q-2 -3 -5.5 -5.5t-6.5 -5.5l-13 -8l-14 -6l-8 -3q-3 0 -7 -2h-3q-2 0 -3 -1q-2 0 -2 -1q-2 0 -2 -2q0 -1 1 -1h3q2 0 3 1h3l15 5l15 6l15 7l15 9l13 9l12 11l10 11
q2 3 3.5 6t2.5 6q3 6 3 11q1 6 0 10q-2 6 -4 9q-4 3 -8 5q-6 3 -11 3q-5 1 -14 1q-4 0 -14 -2q-8 -1 -16 -3l-16 -4t-15.5 -5.5t-15.5 -7.5q-4 -2 -7.5 -4t-7.5 -5q-8 -5 -13 -10q-4 -3 -10 -11zM775 -132q5 -3 5 -12q0 -6 -3 -12q-4 -5 -10 -8q-4 -2 -15 -2h-6q-4 0 -6 1
q-6 2 -10 4q-6 4 -7 7q-2 6 -2 10h17q0 -9 15 -9q5 0 8 1q2 4 2 5q0 4 -7 5l-15 4q-3 1 -6.5 2.5t-5.5 3.5q-6 4 -6 12q0 6 3 11q2 4 9 8q4 3 14 3q6 0 10.5 -1t8.5 -3q6 -3 8 -8l2 -5v-5h-17q0 5 -3 7q-1 1 -8 1q-10 0 -10 -6q0 -3 6 -4l15 -4q6 -1 14 -6zM699 -101
q5 -2 7 -7q3 -6 3 -12v-45h-17v39q0 8 -2 10q-1 3 -9 3q-7 0 -10 -4q-3 -5 -3 -11v-37h-18v65h17v-10q7 12 20 12q6 0 12 -3zM783 38q3 -6 3 -12v-45h-17v39q0 4 -2 10q-3 3 -10 3t-10 -4q-2 -3 -2 -11v-37h-18v65h16v-9q7 10 20 10q9 0 12 -2zM484 -10q-3 -5 -8 -7
q-8 -4 -12 -4q-10 0 -16 7q-6 6 -6 17v43h17v-40q0 -12 11 -12q4 0 6 1t6 5q0 2 1 4t1 4v38h16v-65h-16v9zM854 -113q-8 0 -10 -5q-4 -4 -4 -13t1 -12q1 -5 4 -7q2 -2 8 -2q5 0 8 2q3 3 3 9h18q0 -5 -4 -13q-3 -5 -10 -9q-6 -3 -16 -3q-13 0 -21 7q-4 4 -7 10q-1 4 -1 15
q0 14 6 25q8 11 23 11q9 0 15 -3q7 -2 10 -9q5 -5 5 -13h-18q0 3 -2 7q-2 3 -8 3zM423 55q-2 0 -2 -2v-7h11v-12h-11v-53h-17v53h-9v12h9v5q0 18 19 18h9v-13h-5q-3 0 -4 -1zM632 46h12v-12h-12v-53h-17v53h-9v12h9v5q0 18 19 18h8v-13h-4q-4 0 -4 -1q-1 0 -2 -2v-7z
M973 -19h-11q-8 0 -11 2q-4 0 -5 4q0 2 -1 3.5t-1 3.5v40h-8v12h8v17h18v-17h11v-12h-11v-35q0 -2 0.5 -3t0.5 -2q1 0 2 -0.5t3 -0.5l3 1h2v-13zM569 492l-2 2q-1 1 -1 4q0 2 1 3q2 8 5 12q6 8 8 12l6 7l5 6l9 12q3 3 5.5 6t5.5 5l5 4l6 3q2 1 5 1q2 0 3 -2q1 -1 1 -4
q0 -2 -2 -6l-3 -5l-3 -6q-2 -4 -4 -6l-4 -6l-4 -6t-4 -5l-9 -11l-11 -11q-3 -3 -6 -4q-3 -3 -7 -4q-2 -1 -5 -1zM347 63v-17h10v-12h-10v-35q0 -4 1 -5q1 0 2.5 -0.5t3.5 -0.5l2 1h1v-13h-10q-8 0 -11 2q-4 0 -5 4q-1 2 -1 7v40h-9v12h9v17h17zM755 536q2 4 4 6l4 6
q1 2 2 3.5t2 3.5t5 6l10 14l15 18l4 5l4 4l5 3q2 1 5 1q2 1 5 1l3 -2q0 -1 0.5 -1.5t0.5 -2.5t-1 -4q0 -2 -2 -4l-9 -12l-8 -13l-9 -9l-9 -10q-2 -1 -6 -5l-7 -6q-4 -2 -6 -4q-2 -1 -3 -2t-3 -1q-4 -2 -6 -1h-1q-1 1 -1 2l1 2q0 1 1 2zM831 -19h-11q-8 0 -10 2q-5 0 -6 4v47
h-10v12h10v17h16v-17h11v-12h-11v-35q0 -2 0.5 -3t0.5 -2q2 0 3 -0.5t3 -0.5l2 1h2v-13zM593 386l2 -4t2 -5q0 -2 0.5 -4.5t0.5 -5.5q0 -6 -2 -14q-3 -6 -7 -10q-3 -2 -10 -2q-6 0 -7 2q-4 0 -7 5l-3 8q-2 6 -2 11q0 2 0.5 4.5t0.5 4.5l3 7q3 5 4 6q0 1 5 3q4 2 7 2
q1 0 1.5 -0.5t2.5 -0.5l4 -2zM533 -19h-17v88h17v-88zM562 -19h-16v88h16v-88zM511 394h-58v-2h2q5 0 6 -2q3 -2 3 -7v-32q0 -10 -9 -10h-2v-1h58v22q-2 -2 -2 -3.5t-1 -3.5l-6 -8q-3 -3 -5 -3l-5 -2q-3 -1 -7 -1h-9v24h1q7 0 11 -4l2 -3q0 -1 0.5 -1.5t0.5 -2.5q1 -2 1 -5
h1v35h-1v-5l-3 -6q-5 -6 -10 -6h-3v25h10q9 0 12 -1l5 -4l3 -6l3 -8h2v21zM693 394h-27v-2h5q0 -1 2 -1q4 -4 4 -5q2 -2 2 -8v-23l-38 39h-21v-2h1q4 0 5 -1q2 0 2.5 -1t1.5 -1q1 -2 1 -5v-31q0 -4 -1 -6q-1 -3 -4 -4q-4 -2 -7 -2v-1h28v1q-3 0 -5 1q-2 0 -2.5 0.5t-2.5 0.5
l-3 5q-1 1 -1 7v32l46 -47h2v38q0 6 3 11q1 3 9 3v2zM444 365q-3 2 -7 4l-10 4h-6l-1 1l-8 2q-2 1 -3 1t-2 1q-1 0 -3 2t-2 4q0 3 1 4q0 -1 2 3l4 2q2 0 3 0.5t3 0.5q4 0 8 -2q5 0 8 -3q4 -2 6 -4t2.5 -4.5t2.5 -5.5h2v18h-2q-1 -4 -4 -4t-5 1q-10 5 -18 5q-5 0 -11 -2
l-7 -5q-3 -5 -3 -9q0 -3 3 -6q0 -1 3 -4l7 -3q1 -1 4 -1.5t8 -2.5l4 -1q6 -2 8 -2t4 -2q1 0 2 -1q3 -3 3 -6q0 -1 -2 -5q-1 -1 -5 -4h-6q-6 0 -9 1l-10 4l-6 6q-5 7 -5 12h-2v-25h2q0 4 2 4q2 2 5 2q1 0 1 -0.5t2 -0.5q1 0 1.5 -0.5t2.5 -0.5l8 -3q2 -1 8 -1q3 0 9 2
q2 0 3.5 1t3.5 3q2 1 2 2t2 3v11zM694 0q4 4 4 13q0 10 -4 14q-3 6 -12 6t-12 -6q-4 -6 -4 -14q0 -7 4 -13q2 -6 12 -6t12 6zM935 -146q2 3 2.5 6.5t0.5 6.5q0 11 -3 15q-3 5 -12 5t-12 -5q-3 -6 -3 -15q0 -7 3 -13t12 -6t12 6zM818 389q1 2 3 2q2 1 5 1v2h-27v-2h3
q5 0 6 -1q2 -1 2 -4q0 -2 -3 -6l-11 -15l-14 18l-2 4v1q0 2 1 2q0 1 3 1h5v2h-35v-2h1q6 0 8 -1l3 -3t2 -3l17 -22v-12q0 -5 -2 -7l-4 -2t-4 -1h-3v-1h38v1h-4q-4 0 -7 3q-3 1 -3 7v13l14 19l3 4q4 2 5 2zM757 364h-1q-2 -2 -2 -3.5t-1 -3.5q-2 -2 -2 -5q-1 -1 -3 -4
q-4 -4 -7 -5q-2 -2 -8 -2h-14v42q0 5 3 7q2 2 7 2h4v2h-37v-2h3q9 0 9 -9v-32q0 -10 -9 -10h-3v-1h61v24zM387 394h-27v-2h6q1 0 1.5 -0.5t1.5 -0.5q6 -3 6 -13v-19q0 -8 -5 -13l-7 -5h-9q-7 0 -10 2q-2 0 -6 4q-2 2 -2 9v27q0 6 2 7q2 2 8 2h4v2h-37v-2h1q11 0 11 -9v-27
q0 -7 6 -13l9 -3q3 -1 11 -1t14 2q4 2 6 4q5 4 5 13v28l5 5h1l1 1h4v2zM367 480q-6 -2 -7 -2q-3 0 -7 2l9 12l10 12l4 5q2 2 3 2.5t2 2.5l6 5l7 3q5 1 8 0q1 -2 0 -6l-3 -5q-2 -2 -4 -6q-2 -2 -2.5 -3t-2.5 -2q-1 -2 -5 -6q-2 -3 -5 -5q-4 -4 -6 -5zM512 510q0 -2 0.5 -3
t0.5 -3q-1 -2 -1 -5q0 -2 -0.5 -3t-0.5 -3l-2 -5q-1 -2 -5 -6l-4 -3q-2 -2 -5 -2q-1 -1 -5 -1q-2 -2 -4 0q-2 0 -4 2v5l2 6l4 5q5 6 11 10zM888 -1q0 -5 2 -5q2 -2 6 -2h4h1l2 1q4 2 6 4q2 4 2 8v8q-3 -3 -7 -3l-8 -2q-3 0 -6 -3q-2 -1 -2 -6zM524 -133q-3 -3 -6 -3l-8 -1
l-6 -3q-3 -3 -3 -7t3 -5q2 -2 6 -2h3q1 0 1.5 0.5t1.5 0.5l6 4q2 2 2 7v9zM793 -147h18v-18h-18v18zM347 -147h18v-18h-18v18zM299 20q-2 6 -4 10q-2 2 -4 3t-5 1q-11 0 -13 -14h26zM930 655q-1 -2 -5 -6l16 22l8 13l15 20l1 1q0 2 2 2q0 1 1 1q1 1 1 0q0 -2 -2 -6l-4 -6
l-4 -5q-2 -4 -4 -5l-9 -12l-10 -12z" />
    <glyph glyph-name="percent" unicode="%" horiz-adv-x="1129" 
d="M100 588l154 33l-6 21l23 7l-5 23l24 5l-3 25l23 2v23h21l2 21l23 -3l4 23l25 -4l6 23l22 -6l9 21l23 -9l12 22l21 -11l12 20l21 -14l15 19l19 -15l16 16l15 -14l15 13l15 -17l20 13l13 -21l22 12l11 -20l21 9l10 -23l24 7l7 -22l22 5l5 -24l25 2l1 -15l231 50v-283
l-106 -23l2 -2l-13 -15l13 -16l-18 -15l13 -20l-21 -13l13 -21l-21 -12l9 -21l-23 -10l8 -24l-22 -7l4 -22l-24 -5l2 -25l-23 -2v-23h-20l-3 -21l-22 2l-5 -22l-24 4l-7 -23l-22 7l-8 -23l-24 10l-11 -22l-21 11l-13 -20l-21 13l-14 -18l-18 15l-17 -16l-15 14l-16 -14
l-14 18l-20 -13l-14 21l-21 -12l-11 20l-22 -9l-10 23l-23 -7l-7 22l-23 -5l-5 24l-24 -2l-3 23h-23v21l-20 2l2 23l-23 4l5 24l-24 7l7 22l-16 6l-141 -30v283zM715 520q6 3 11 8l12 11l1 1q-1 -1 -1 -3q0 -4 2 -8t6 -5q3 -1 11 1q10 4 14 7l12 9l4 4l4 4l8 7q-1 -1 -1 -3
q0 -1 -0.5 -1.5t-0.5 -1.5v-4q-2 -3 0 -5q0 -2 0.5 -2.5t0.5 -1.5q1 -3 4 -3q1 -1 4 -1t5 1l4 2l5 3l7 4l18 15l10 10l-3 -7q-2 -4 -2 -11v-3q2 -2 3 -2q0 -1 3 -1q1 0 5 2q2 1 3.5 1.5t3.5 2.5l6 4l6 6q2 1 6 5q3 2 5.5 5t5.5 6l10 12q1 1 1 2q-1 1 -2 1q-2 0 -4 -2l-2 -3
l-7 -8l-6 -7l-3.5 -3.5l-3.5 -3.5l-8 -7l-4 -3l-5 -2l-1 -1q-1 0 -2 1h1l4 8l2 4t3 4l4 6q2 2 4 6l36 53q6 6 8 10l9 9l21 24q5 6 9.5 12t9.5 12l6 10v5q-1 1 -5 1q-2 0 -6 -2q-2 0 -3.5 -1t-3.5 -2q-4 -2 -6 -4l-5 -4q-3 -2 -6 -4.5t-6 -5.5l-10 -11q-4 -4 -10 -12
q-2 -4 -8 -12q-5 -6 -8.5 -12t-7.5 -12l-15 -25l-11 -19l-4 -9q-1 0 -1 -1l-8 -8q-2 -3 -5 -5.5t-6 -5.5l-11 -10l-5 -4l-4 -3l-2 -1l-3 -2h-3h-2l3 6l3 5q0 1 0.5 1t0.5 1l1 1q2 4 4.5 7.5t5.5 7.5q2 4 4.5 8t5.5 8l8 12l4 7q2 2 4 6l1 1l1 1q0 1 0.5 1t0.5 1l1 1q3 2 2 4
q0 1 -4 1l-6 -2l-6 -3l-10 -7l-4 -4l-4 -4q0 4 -1 6q0 2 -4 4q-6 1 -12 0q-6 -2 -13 -5q-8 -3 -13 -7q-4 -2 -6.5 -4.5l-4.5 -4.5q-14 -11 -21 -22q-9 -11 -12 -21q-1 0 -1 -0.5t-1 -0.5q-2 -2 -4.5 -5t-5.5 -5q-4 -4 -12 -10q-3 -3 -7 -4q-4 -2 -6 -2h-2q-1 1 0 2l4 5l3 5
l7 8l12 16q3 4 6 7.5t5 8.5l5 10q2 6 1 9q0 3 -1 4q-2 2 -4 2q-3 0 -5 -1l-7 -3l-7 -4q-4 -4 -6 -5q-4 -4 -6 -5q-4 -4 -6 -5l-12 -12q-3 -3 -6 -5.5t-5 -5.5l-6 -7l-6 -6l2 3l14 20l15 21q0 1 0.5 1t0.5 1q1 1 1 2q1 2 1 4l-3 3q-1 0 -1.5 0.5t-2.5 0.5q-1 0 -2 -0.5
t-3 -0.5l-6 -3l-3 -3q-2 -1 -2 -2t-1 -2l-3 -4l-44 -76q-1 -1 -1 -4q1 0 1.5 -0.5t1.5 -0.5q3 0 5 1l5 3q0 1 2 3l2 2l3 3q0 1 2 3l10 12l11 12l10 12l12 12l12 11l5 5q2 1 6 5l6 4l7 3q1 0 1 -1h-1l-3 -3q-1 -3 -4 -4l-3 -4l-7 -8q-3 -3 -7 -9q-6 -8 -8 -12l-8 -12
q-2 -3 -4 -11q-2 -5 0 -9t5 -4q6 0 10 1q3 1 6 3t7 4zM494 471q7 1 14 5q7 3 13 9q5 3 9 10l5 10q3 6 3 11v9q0 3 -2 9l-4 9l-3 4q0 2 -2 4q0 1 -2 3v3q1 1 1 2h-5l-2 -2q-3 -1 -7 -5l-3 -7l-1 -1l-3 -4l-18 -25l-3 -4l-3 -5l-1 -1v-1q-1 0 -2 -1l-3 -5l-3 -4l-9 -11
l-12 -11q-3 -3 -7 -4q-4 -2 -7 -2h-1l1 1l4 6l4 5l4 6q2 1 4 5l5 8l5 9l3 8q1 3 1 8q-1 1 -1 4l-2 3q0 2 -1 3v13l4 6q2 5 -2 7q-3 3 -10 0q-7 -2 -9 -4q-4 -3 -6 -7t-2 -7q0 -4 1 -6l2 -2l2 -2l-3 -4l-3 -3l-14 -18l-11 -13q-1 0 -3 -2v-1l-1 -1q0 -1 -1 -1l-6 -8
l-7.5 -7.5t-8.5 -6.5q-10 -8 -19 -12q-2 -2 -5 -2.5t-6 -2.5q-8 -2 -11 -1q-4 0 -4 2q-1 1 -1 4q0 1 2 5l2 5l6 10q4 -2 7 -2q6 0 10 1q7 1 15 6q5 2 14 9l9 9q2 2 3.5 4.5t2.5 4.5l4 8q0 6 -2 8q-2 3 -5 5q-3 1 -10 1q-2 -1 -5 -1t-6 -2q-4 -1 -12 -5q-13 -6 -25 -16
q-11 -9 -17 -20q-3 -3 -7 -11q-3 -5 -4 -11v-10q1 -3 5 -7q6 -4 13 -3q8 0 16 3q9 3 18 9q9 4 18 12l14 12l8 9q0 1 2 3q0 2 2 2l2 4l9 9l9 12q3 3 5.5 6t4.5 6l4 -2l2 -3q1 -2 1 -4q0 -1 -4 -5l-9 -10l-8 -11l-7 -11l-3 -10q-1 -2 -1 -5v-4q2 -3 3 -4t4 -1q2 0 10 2l9 6
q8 6 12 10q3 2 5.5 5t4.5 5q4 4 5 6l5 6l2 3l3 3q2 2 2 3l7 9l12 17q0 -2 0.5 -4t0.5 -4q2 -6 2 -8l2 -4q-10 -4 -14 -7l-11 -9q-6 -6 -7 -10q-2 -4 -2 -10q1 -3 6 -5q3 -1 11 -1zM553 510q-2 -7 0 -13q0 -3 2 -5t6 -4q2 0 3 -0.5t3 0.5h7q5 1 15 5l15 8l13 11l11 10l8 11
l6 10l3 10q1 6 0 9q0 3 -3 6q-1 2 -6 4q-2 0 -4 0.5t-4 0.5q-3 0 -11 -2q-1 0 -7 -2l-7 -3l-14 -9q-4 -2 -7 -5t-6 -5l-10 -11l-7 -11q-5 -8 -6 -15zM175 -9q-6 6 -9 15t-3 19q0 6 1 9q0 2 1 4.5t1 4.5q1 7 8 14q2 3 5.5 5.5t7.5 4.5q5 2 9.5 3t9.5 1h3q3 0 9 -2q3 0 5 -1
l4 -2q7 -4 12 -11q2 -3 4 -7q1 -2 1 -6h-19q0 3 -2 5q-1 3 -6 6t-10 3q-3 0 -5 -1h-4l-8 -6q-2 -2 -3.5 -4t-2.5 -5q-2 -5 -2 -16q0 -9 3 -16q1 -7 7 -9q3 -2 5.5 -3t5.5 -2h3q7 0 10 3q4 0 7 5q2 3 3.5 5.5t1.5 5.5h-21v16h37v-48h-12l-2 11q-3 -5 -8 -8q-3 -2 -5.5 -2.5
t-4.5 -2.5q-3 0 -5.5 -0.5t-5.5 -0.5q-9 0 -14 4q-8 3 -12 9zM1058 -110q3 -3 3 -10v-45h-17v39q0 13 -10 13q-11 0 -11 -13v-39h-17v39q0 5 -1 6q0 3 -3 6q-2 1 -6 1q-11 0 -11 -12v-40h-17v65h16v-10q7 12 19 12q8 0 11 -3q4 -2 7 -8q2 4 8 8q3 3 10 3q8 0 12 -4
q6 -3 7 -8zM464 -102q4 -3 7 -8q2 -2 2 -10v-45h-16v39q0 13 -10 13q-11 0 -11 -13v-39h-18v45q0 3 -3 6q-2 1 -7 1q-11 0 -11 -12v-40h-16v65h16v-10q6 12 19 12q7 0 10 -3q5 -2 8 -8q2 5 7 8q4 3 10 3q8 0 13 -4zM948 -107q2 -2 3 -5t3 -6q2 -4 2 -15q0 -10 -4 -17
q-3 -7 -11 -12q-7 -4 -18 -4q-13 0 -19 5q-7 5 -11 12q-3 7 -3 16t2 13q1 4 2.5 6.5t3.5 5.5q6 6 11 7q4 3 14 3q8 0 14 -3q4 -1 11 -6zM706 39q5 -6 7 -12t2 -14q0 -10 -4 -17q-3 -7 -11 -12t-18 -5q-11 0 -19 5q-6 5 -11 13q-3 7 -3 16q0 5 2 13q1 6 6 11q6 6 11 8
q4 2 14 2t15 -2q2 -2 4.5 -3t4.5 -3zM141 -100h17l-18 -62v-3h-18l-10 47l-10 -47h-18l-18 63v2h18l10 -47l9 47h18l9 -47zM347 -100l-18 -62l-1 -3h-17l-10 47l-11 -47h-17l-18 63v2h18l10 -47l9 47h18l9 -47l10 47h18zM235 -100h18l-18 -62l-1 -3h-17l-11 47l-10 -47h-18
l-17 63v2h17l11 -47l9 47h17l10 -47zM625 -100h17l-18 -62v-3h-18l-10 47l-10 -47h-18l-18 63v2h18l10 -47l9 47h17l10 -47zM174 386l6 6l4 6l6 6q1 2 5 6l36 50q3 5 6 8.5t5 8.5l12 18q3 5 6 9t5 9q3 5 5.5 9t4.5 9q1 3 0 4t-3 1q-4 0 -5 -1l-5 -3l-10 -11l-9 -12
q-5 -5 -8 -11l-9 -11l-32 -46l-15 -24q-4 -6 -7 -12l-6 -12l-2 -3q0 -1 -0.5 -1.5t-0.5 -1.5v-2q0 -1 1 -2h5zM900 -19l-4.5 -1.5t-4.5 -0.5t-9 2q-2 2 -4 3t-4 3q-3 4 -3 12q0 10 5 14q6 4 14 6l15 2q6 1 6 5q0 8 -10 8q-4 0 -8 -2q-3 -1 -4 -8h-16q1 9 4 14q2 4 9 7
q4 2 7 2h8q13 0 18 -2l4 -4t3 -4q2 -6 2 -8v-42q0 -3 4 -3v-3h-19q-1 0 -1 1v1v1q0 2 -0.5 3t-0.5 2q-2 -3 -5 -5q-2 -1 -3.5 -2t-2.5 -1zM542 -159q0 -3 3 -3v-3h-18q0 1 -1 2v1q-1 2 -1 5q-4 -4 -6 -5l-6 -3q-2 -1 -8 -1q-7 0 -9 1q-5 1 -8 7q-4 3 -4 10q0 10 6 15
q4 4 13 6l16 2q5 2 5 5q0 8 -10 8q-2 0 -4 -0.5t-4 -0.5l-2 -4t-1 -4h-16q0 7 3 13q6 6 10 7l6 2q2 0 4 0.5t4 0.5q13 0 18 -4q5 -3 8 -7q1 -3 1 -8v-35q0 -5 1 -7zM316 8h-45q0 -6 5 -11q3 -4 11 -4q3 0 7 2q4 4 4 5h18q-2 -5 -6 -11q-3 -2 -5.5 -4t-4.5 -3q-4 -1 -6.5 -2
t-6.5 -1q-32 0 -32 36q0 5 0.5 8.5t2.5 7.5q3 8 10 12q4 3 8.5 3.5t9.5 0.5q13 0 17 -4q6 -4 10 -13q2 -5 2.5 -9t0.5 -9v-4zM607 353q4 5 4 14q0 6 -2 10t-6 9q-5 5 -11 6q-6 3 -13 3q-11 0 -16 -4q-5 -2 -7.5 -4.5t-4.5 -5.5q-4 -7 -4 -14q0 -8 2 -11q4 -6 7 -9q2 -2 5 -3
t6 -3q8 -2 12 -2q11 0 16 4q6 3 12 10zM187 500q-1 -6 0 -10t6 -7l10 -3q8 0 13 1q2 0 3 1t1 2t-1 1h-3q-2 0 -2 -1q-10 -1 -17 2q-4 2 -5 4q-2 4 -2 6q0 4 1 7l4 8l10 11q2 2 5.5 4.5t6.5 4.5q4 2 7 4t7 4t7.5 3.5t7.5 3.5q4 1 7.5 2t8.5 3l16 3q10 2 15 2t13 -2
q2 -1 4.5 -1.5t4.5 -2.5l5 -7q1 -3 1 -10q0 -3 -2 -11l-6 -11q-2 -4 -8 -12q-2 -3 -5 -5.5t-6 -5.5q-2 -3 -5.5 -5.5t-6.5 -5.5l-13 -8l-14 -6l-8 -3q-3 0 -7 -2h-3q-2 0 -3 -1q-2 0 -2 -1q-2 0 -2 -2q0 -1 1 -1h3q2 0 3 1h3l15 5l15 6l15 7l15 9l13 9l12 11l10 11
q2 3 3.5 6t2.5 6q3 6 3 11q1 6 0 10q-2 6 -4 9q-4 3 -8 5q-6 3 -11 3q-5 1 -14 1q-4 0 -14 -2q-8 -1 -16 -3l-16 -4t-15.5 -5.5t-15.5 -7.5q-4 -2 -7.5 -4t-7.5 -5q-8 -5 -13 -10q-4 -3 -10 -11zM775 -132q5 -3 5 -12q0 -6 -3 -12q-4 -5 -10 -8q-4 -2 -15 -2h-6q-4 0 -6 1
q-6 2 -10 4q-6 4 -7 7q-2 6 -2 10h17q0 -9 15 -9q5 0 8 1q2 4 2 5q0 4 -7 5l-15 4q-3 1 -6.5 2.5t-5.5 3.5q-6 4 -6 12q0 6 3 11q2 4 9 8q4 3 14 3q6 0 10.5 -1t8.5 -3q6 -3 8 -8l2 -5v-5h-17q0 5 -3 7q-1 1 -8 1q-10 0 -10 -6q0 -3 6 -4l15 -4q6 -1 14 -6zM699 -101
q5 -2 7 -7q3 -6 3 -12v-45h-17v39q0 8 -2 10q-1 3 -9 3q-7 0 -10 -4q-3 -5 -3 -11v-37h-18v65h17v-10q7 12 20 12q6 0 12 -3zM783 38q3 -6 3 -12v-45h-17v39q0 4 -2 10q-3 3 -10 3t-10 -4q-2 -3 -2 -11v-37h-18v65h16v-9q7 10 20 10q9 0 12 -2zM484 -10q-3 -5 -8 -7
q-8 -4 -12 -4q-10 0 -16 7q-6 6 -6 17v43h17v-40q0 -12 11 -12q4 0 6 1t6 5q0 2 1 4t1 4v38h16v-65h-16v9zM854 -113q-8 0 -10 -5q-4 -4 -4 -13t1 -12q1 -5 4 -7q2 -2 8 -2q5 0 8 2q3 3 3 9h18q0 -5 -4 -13q-3 -5 -10 -9q-6 -3 -16 -3q-13 0 -21 7q-4 4 -7 10q-1 4 -1 15
q0 14 6 25q8 11 23 11q9 0 15 -3q7 -2 10 -9q5 -5 5 -13h-18q0 3 -2 7q-2 3 -8 3zM423 55q-2 0 -2 -2v-7h11v-12h-11v-53h-17v53h-9v12h9v5q0 18 19 18h9v-13h-5q-3 0 -4 -1zM632 46h12v-12h-12v-53h-17v53h-9v12h9v5q0 18 19 18h8v-13h-4q-4 0 -4 -1q-1 0 -2 -2v-7z
M973 -19h-11q-8 0 -11 2q-4 0 -5 4q0 2 -1 3.5t-1 3.5v40h-8v12h8v17h18v-17h11v-12h-11v-35q0 -2 0.5 -3t0.5 -2q1 0 2 -0.5t3 -0.5l3 1h2v-13zM569 492l-2 2q-1 1 -1 4q0 2 1 3q2 8 5 12q6 8 8 12l6 7l5 6l9 12q3 3 5.5 6t5.5 5l5 4l6 3q2 1 5 1q2 0 3 -2q1 -1 1 -4
q0 -2 -2 -6l-3 -5l-3 -6q-2 -4 -4 -6l-4 -6l-4 -6t-4 -5l-9 -11l-11 -11q-3 -3 -6 -4q-3 -3 -7 -4q-2 -1 -5 -1zM347 63v-17h10v-12h-10v-35q0 -4 1 -5q1 0 2.5 -0.5t3.5 -0.5l2 1h1v-13h-10q-8 0 -11 2q-4 0 -5 4q-1 2 -1 7v40h-9v12h9v17h17zM755 536q2 4 4 6l4 6
q1 2 2 3.5t2 3.5t5 6l10 14l15 18l4 5l4 4l5 3q2 1 5 1q2 1 5 1l3 -2q0 -1 0.5 -1.5t0.5 -2.5t-1 -4q0 -2 -2 -4l-9 -12l-8 -13l-9 -9l-9 -10q-2 -1 -6 -5l-7 -6q-4 -2 -6 -4q-2 -1 -3 -2t-3 -1q-4 -2 -6 -1h-1q-1 1 -1 2l1 2q0 1 1 2zM831 -19h-11q-8 0 -10 2q-5 0 -6 4v47
h-10v12h10v17h16v-17h11v-12h-11v-35q0 -2 0.5 -3t0.5 -2q2 0 3 -0.5t3 -0.5l2 1h2v-13zM593 386l2 -4t2 -5q0 -2 0.5 -4.5t0.5 -5.5q0 -6 -2 -14q-3 -6 -7 -10q-3 -2 -10 -2q-6 0 -7 2q-4 0 -7 5l-3 8q-2 6 -2 11q0 2 0.5 4.5t0.5 4.5l3 7q3 5 4 6q0 1 5 3q4 2 7 2
q1 0 1.5 -0.5t2.5 -0.5l4 -2zM533 -19h-17v88h17v-88zM562 -19h-16v88h16v-88zM511 394h-58v-2h2q5 0 6 -2q3 -2 3 -7v-32q0 -10 -9 -10h-2v-1h58v22q-2 -2 -2 -3.5t-1 -3.5l-6 -8q-3 -3 -5 -3l-5 -2q-3 -1 -7 -1h-9v24h1q7 0 11 -4l2 -3q0 -1 0.5 -1.5t0.5 -2.5q1 -2 1 -5
h1v35h-1v-5l-3 -6q-5 -6 -10 -6h-3v25h10q9 0 12 -1l5 -4l3 -6l3 -8h2v21zM693 394h-27v-2h5q0 -1 2 -1q4 -4 4 -5q2 -2 2 -8v-23l-38 39h-21v-2h1q4 0 5 -1q2 0 2.5 -1t1.5 -1q1 -2 1 -5v-31q0 -4 -1 -6q-1 -3 -4 -4q-4 -2 -7 -2v-1h28v1q-3 0 -5 1q-2 0 -2.5 0.5t-2.5 0.5
l-3 5q-1 1 -1 7v32l46 -47h2v38q0 6 3 11q1 3 9 3v2zM444 365q-3 2 -7 4l-10 4h-6l-1 1l-8 2q-2 1 -3 1t-2 1q-1 0 -3 2t-2 4q0 3 1 4q0 -1 2 3l4 2q2 0 3 0.5t3 0.5q4 0 8 -2q5 0 8 -3q4 -2 6 -4t2.5 -4.5t2.5 -5.5h2v18h-2q-1 -4 -4 -4t-5 1q-10 5 -18 5q-5 0 -11 -2
l-7 -5q-3 -5 -3 -9q0 -3 3 -6q0 -1 3 -4l7 -3q1 -1 4 -1.5t8 -2.5l4 -1q6 -2 8 -2t4 -2q1 0 2 -1q3 -3 3 -6q0 -1 -2 -5q-1 -1 -5 -4h-6q-6 0 -9 1l-10 4l-6 6q-5 7 -5 12h-2v-25h2q0 4 2 4q2 2 5 2q1 0 1 -0.5t2 -0.5q1 0 1.5 -0.5t2.5 -0.5l8 -3q2 -1 8 -1q3 0 9 2
q2 0 3.5 1t3.5 3q2 1 2 2t2 3v11zM694 0q4 4 4 13q0 10 -4 14q-3 6 -12 6t-12 -6q-4 -6 -4 -14q0 -7 4 -13q2 -6 12 -6t12 6zM935 -146q2 3 2.5 6.5t0.5 6.5q0 11 -3 15q-3 5 -12 5t-12 -5q-3 -6 -3 -15q0 -7 3 -13t12 -6t12 6zM818 389q1 2 3 2q2 1 5 1v2h-27v-2h3
q5 0 6 -1q2 -1 2 -4q0 -2 -3 -6l-11 -15l-14 18l-2 4v1q0 2 1 2q0 1 3 1h5v2h-35v-2h1q6 0 8 -1l3 -3t2 -3l17 -22v-12q0 -5 -2 -7l-4 -2t-4 -1h-3v-1h38v1h-4q-4 0 -7 3q-3 1 -3 7v13l14 19l3 4q4 2 5 2zM757 364h-1q-2 -2 -2 -3.5t-1 -3.5q-2 -2 -2 -5q-1 -1 -3 -4
q-4 -4 -7 -5q-2 -2 -8 -2h-14v42q0 5 3 7q2 2 7 2h4v2h-37v-2h3q9 0 9 -9v-32q0 -10 -9 -10h-3v-1h61v24zM387 394h-27v-2h6q1 0 1.5 -0.5t1.5 -0.5q6 -3 6 -13v-19q0 -8 -5 -13l-7 -5h-9q-7 0 -10 2q-2 0 -6 4q-2 2 -2 9v27q0 6 2 7q2 2 8 2h4v2h-37v-2h1q11 0 11 -9v-27
q0 -7 6 -13l9 -3q3 -1 11 -1t14 2q4 2 6 4q5 4 5 13v28l5 5h1l1 1h4v2zM367 480q-6 -2 -7 -2q-3 0 -7 2l9 12l10 12l4 5q2 2 3 2.5t2 2.5l6 5l7 3q5 1 8 0q1 -2 0 -6l-3 -5q-2 -2 -4 -6q-2 -2 -2.5 -3t-2.5 -2q-1 -2 -5 -6q-2 -3 -5 -5q-4 -4 -6 -5zM512 510q0 -2 0.5 -3
t0.5 -3q-1 -2 -1 -5q0 -2 -0.5 -3t-0.5 -3l-2 -5q-1 -2 -5 -6l-4 -3q-2 -2 -5 -2q-1 -1 -5 -1q-2 -2 -4 0q-2 0 -4 2v5l2 6l4 5q5 6 11 10zM888 -1q0 -5 2 -5q2 -2 6 -2h4h1l2 1q4 2 6 4q2 4 2 8v8q-3 -3 -7 -3l-8 -2q-3 0 -6 -3q-2 -1 -2 -6zM524 -133q-3 -3 -6 -3l-8 -1
l-6 -3q-3 -3 -3 -7t3 -5q2 -2 6 -2h3q1 0 1.5 0.5t1.5 0.5l6 4q2 2 2 7v9zM793 -147h18v-18h-18v18zM347 -147h18v-18h-18v18zM299 20q-2 6 -4 10q-2 2 -4 3t-5 1q-11 0 -13 -14h26zM930 655q-1 -2 -5 -6l16 22l8 13l15 20l1 1q0 2 2 2q0 1 1 1q1 1 1 0q0 -2 -2 -6l-4 -6
l-4 -5q-2 -4 -4 -5l-9 -12l-10 -12z" />
    <glyph glyph-name="ampersand" unicode="&#x26;" horiz-adv-x="960" 
d="M896 376q55 -2 116.5 11.5t120 37.5t108.5 56t82 68q33 36 35.5 70t-29.5 57t-81.5 32t-102.5 11q-108 5 -220.5 -14t-225.5 -67q-56 -24 -110 -52.5t-102.5 -61t-89.5 -68t-71 -72.5q-33 -39 -43.5 -78.5t16.5 -69.5q27 -26 74.5 -38t104.5 -11q6 2 10 2h257
q23 24 41 39t29 13q6 -2 4 -7.5t-8 -13t-15 -16.5l-15 -15h202q16 0 12.5 -10t-20.5 -10h-216q-28 -32 -53.5 -63.5t-46.5 -64.5q-14 -23 -25.5 -47.5t-7.5 -46.5q2 -23 28 -30q9 -2 20 -1.5t16 -4.5t-2.5 -11t-16.5 -6q-45 0 -61.5 15.5t-16 38.5t13 49.5t26.5 48.5l16 24
q-62 -51 -134 -96t-164 -71q-50 -14 -103.5 -20t-100 -2t-81 19.5t-46.5 44.5q-11 31 7 67.5t60 68.5t95.5 52t108.5 31q42 8 80 12q-47 8 -83.5 23t-57.5 41q-24 26 -26 59t12 68q15 37 45 73t70.5 69.5t89.5 63.5t103 55q113 52 235 79t237 32q52 2 111 1t112 -9
t93.5 -25.5t57.5 -47.5q17 -31 0 -65.5t-54.5 -68t-88 -63t-99.5 -49.5q-78 -33 -162 -48q-20 -4 -40.5 -5.5t-40.5 -2.5q-12 2 -9 11t20 9zM510 169q-4 0 -9 -0.5t-10 -0.5h-3q-13 -2 -27.5 -1.5t-28.5 2.5q-42 -3 -85.5 -16t-80.5 -32q-24 -12 -47 -28.5t-41 -34.5
t-29 -36.5t-11 -34.5t10.5 -27.5t27 -19t38 -12.5t43.5 -7q45 -5 92 3.5t95 28.5q57 23 104 54.5t87 66.5q19 17 36.5 34t33.5 34l3 3l6 8l14 16h-218z" />
    <glyph glyph-name="quotesingle" unicode="'" horiz-adv-x="5" 
d="M279 521q-32 0 -40.5 13.5t0.5 30t32.5 30.5t55.5 14q19 0 30 -5.5t14 -14t-1 -18.5t-13 -20l-6 -8q-16 -21 -40 -42t-50 -38q-18 -11 -38 -19.5t-41 -13.5q-7 -1 -9 3t3 9t13 7t14 5q27 13 47 30t36 37h-7z" />
    <glyph glyph-name="parenleft" unicode="(" horiz-adv-x="1129" 
d="M100 588l154 33l-6 21l23 7l-5 23l24 5l-3 25l23 2v23h21l2 21l23 -3l4 23l25 -4l6 23l22 -6l9 21l23 -9l12 22l21 -11l12 20l21 -14l15 19l19 -15l16 16l15 -14l15 13l15 -17l20 13l13 -21l22 12l11 -20l21 9l10 -23l24 7l7 -22l22 5l5 -24l25 2l1 -15l231 50v-283
l-106 -23l2 -2l-13 -15l13 -16l-18 -15l13 -20l-21 -13l13 -21l-21 -12l9 -21l-23 -10l8 -24l-22 -7l4 -22l-24 -5l2 -25l-23 -2v-23h-20l-3 -21l-22 2l-5 -22l-24 4l-7 -23l-22 7l-8 -23l-24 10l-11 -22l-21 11l-13 -20l-21 13l-14 -18l-18 15l-17 -16l-15 14l-16 -14
l-14 18l-20 -13l-14 21l-21 -12l-11 20l-22 -9l-10 23l-23 -7l-7 22l-23 -5l-5 24l-24 -2l-3 23h-23v21l-20 2l2 23l-23 4l5 24l-24 7l7 22l-16 6l-141 -30v283zM715 520q6 3 11 8l12 11l1 1q-1 -1 -1 -3q0 -4 2 -8t6 -5q3 -1 11 1q10 4 14 7l12 9l4 4l4 4l8 7q-1 -1 -1 -3
q0 -1 -0.5 -1.5t-0.5 -1.5v-4q-2 -3 0 -5q0 -2 0.5 -2.5t0.5 -1.5q1 -3 4 -3q1 -1 4 -1t5 1l4 2l5 3l7 4l18 15l10 10l-3 -7q-2 -4 -2 -11v-3q2 -2 3 -2q0 -1 3 -1q1 0 5 2q2 1 3.5 1.5t3.5 2.5l6 4l6 6q2 1 6 5q3 2 5.5 5t5.5 6l10 12q1 1 1 2q-1 1 -2 1q-2 0 -4 -2l-2 -3
l-7 -8l-6 -7l-3.5 -3.5l-3.5 -3.5l-8 -7l-4 -3l-5 -2l-1 -1q-1 0 -2 1h1l4 8l2 4t3 4l4 6q2 2 4 6l36 53q6 6 8 10l9 9l21 24q5 6 9.5 12t9.5 12l6 10v5q-1 1 -5 1q-2 0 -6 -2q-2 0 -3.5 -1t-3.5 -2q-4 -2 -6 -4l-5 -4q-3 -2 -6 -4.5t-6 -5.5l-10 -11q-4 -4 -10 -12
q-2 -4 -8 -12q-5 -6 -8.5 -12t-7.5 -12l-15 -25l-11 -19l-4 -9q-1 0 -1 -1l-8 -8q-2 -3 -5 -5.5t-6 -5.5l-11 -10l-5 -4l-4 -3l-2 -1l-3 -2h-3h-2l3 6l3 5q0 1 0.5 1t0.5 1l1 1q2 4 4.5 7.5t5.5 7.5q2 4 4.5 8t5.5 8l8 12l4 7q2 2 4 6l1 1l1 1q0 1 0.5 1t0.5 1l1 1q3 2 2 4
q0 1 -4 1l-6 -2l-6 -3l-10 -7l-4 -4l-4 -4q0 4 -1 6q0 2 -4 4q-6 1 -12 0q-6 -2 -13 -5q-8 -3 -13 -7q-4 -2 -6.5 -4.5l-4.5 -4.5q-14 -11 -21 -22q-9 -11 -12 -21q-1 0 -1 -0.5t-1 -0.5q-2 -2 -4.5 -5t-5.5 -5q-4 -4 -12 -10q-3 -3 -7 -4q-4 -2 -6 -2h-2q-1 1 0 2l4 5l3 5
l7 8l12 16q3 4 6 7.5t5 8.5l5 10q2 6 1 9q0 3 -1 4q-2 2 -4 2q-3 0 -5 -1l-7 -3l-7 -4q-4 -4 -6 -5q-4 -4 -6 -5q-4 -4 -6 -5l-12 -12q-3 -3 -6 -5.5t-5 -5.5l-6 -7l-6 -6l2 3l14 20l15 21q0 1 0.5 1t0.5 1q1 1 1 2q1 2 1 4l-3 3q-1 0 -1.5 0.5t-2.5 0.5q-1 0 -2 -0.5
t-3 -0.5l-6 -3l-3 -3q-2 -1 -2 -2t-1 -2l-3 -4l-44 -76q-1 -1 -1 -4q1 0 1.5 -0.5t1.5 -0.5q3 0 5 1l5 3q0 1 2 3l2 2l3 3q0 1 2 3l10 12l11 12l10 12l12 12l12 11l5 5q2 1 6 5l6 4l7 3q1 0 1 -1h-1l-3 -3q-1 -3 -4 -4l-3 -4l-7 -8q-3 -3 -7 -9q-6 -8 -8 -12l-8 -12
q-2 -3 -4 -11q-2 -5 0 -9t5 -4q6 0 10 1q3 1 6 3t7 4zM494 471q7 1 14 5q7 3 13 9q5 3 9 10l5 10q3 6 3 11v9q0 3 -2 9l-4 9l-3 4q0 2 -2 4q0 1 -2 3v3q1 1 1 2h-5l-2 -2q-3 -1 -7 -5l-3 -7l-1 -1l-3 -4l-18 -25l-3 -4l-3 -5l-1 -1v-1q-1 0 -2 -1l-3 -5l-3 -4l-9 -11
l-12 -11q-3 -3 -7 -4q-4 -2 -7 -2h-1l1 1l4 6l4 5l4 6q2 1 4 5l5 8l5 9l3 8q1 3 1 8q-1 1 -1 4l-2 3q0 2 -1 3v13l4 6q2 5 -2 7q-3 3 -10 0q-7 -2 -9 -4q-4 -3 -6 -7t-2 -7q0 -4 1 -6l2 -2l2 -2l-3 -4l-3 -3l-14 -18l-11 -13q-1 0 -3 -2v-1l-1 -1q0 -1 -1 -1l-6 -8
l-7.5 -7.5t-8.5 -6.5q-10 -8 -19 -12q-2 -2 -5 -2.5t-6 -2.5q-8 -2 -11 -1q-4 0 -4 2q-1 1 -1 4q0 1 2 5l2 5l6 10q4 -2 7 -2q6 0 10 1q7 1 15 6q5 2 14 9l9 9q2 2 3.5 4.5t2.5 4.5l4 8q0 6 -2 8q-2 3 -5 5q-3 1 -10 1q-2 -1 -5 -1t-6 -2q-4 -1 -12 -5q-13 -6 -25 -16
q-11 -9 -17 -20q-3 -3 -7 -11q-3 -5 -4 -11v-10q1 -3 5 -7q6 -4 13 -3q8 0 16 3q9 3 18 9q9 4 18 12l14 12l8 9q0 1 2 3q0 2 2 2l2 4l9 9l9 12q3 3 5.5 6t4.5 6l4 -2l2 -3q1 -2 1 -4q0 -1 -4 -5l-9 -10l-8 -11l-7 -11l-3 -10q-1 -2 -1 -5v-4q2 -3 3 -4t4 -1q2 0 10 2l9 6
q8 6 12 10q3 2 5.5 5t4.5 5q4 4 5 6l5 6l2 3l3 3q2 2 2 3l7 9l12 17q0 -2 0.5 -4t0.5 -4q2 -6 2 -8l2 -4q-10 -4 -14 -7l-11 -9q-6 -6 -7 -10q-2 -4 -2 -10q1 -3 6 -5q3 -1 11 -1zM553 510q-2 -7 0 -13q0 -3 2 -5t6 -4q2 0 3 -0.5t3 0.5h7q5 1 15 5l15 8l13 11l11 10l8 11
l6 10l3 10q1 6 0 9q0 3 -3 6q-1 2 -6 4q-2 0 -4 0.5t-4 0.5q-3 0 -11 -2q-1 0 -7 -2l-7 -3l-14 -9q-4 -2 -7 -5t-6 -5l-10 -11l-7 -11q-5 -8 -6 -15zM175 -9q-6 6 -9 15t-3 19q0 6 1 9q0 2 1 4.5t1 4.5q1 7 8 14q2 3 5.5 5.5t7.5 4.5q5 2 9.5 3t9.5 1h3q3 0 9 -2q3 0 5 -1
l4 -2q7 -4 12 -11q2 -3 4 -7q1 -2 1 -6h-19q0 3 -2 5q-1 3 -6 6t-10 3q-3 0 -5 -1h-4l-8 -6q-2 -2 -3.5 -4t-2.5 -5q-2 -5 -2 -16q0 -9 3 -16q1 -7 7 -9q3 -2 5.5 -3t5.5 -2h3q7 0 10 3q4 0 7 5q2 3 3.5 5.5t1.5 5.5h-21v16h37v-48h-12l-2 11q-3 -5 -8 -8q-3 -2 -5.5 -2.5
t-4.5 -2.5q-3 0 -5.5 -0.5t-5.5 -0.5q-9 0 -14 4q-8 3 -12 9zM1058 -110q3 -3 3 -10v-45h-17v39q0 13 -10 13q-11 0 -11 -13v-39h-17v39q0 5 -1 6q0 3 -3 6q-2 1 -6 1q-11 0 -11 -12v-40h-17v65h16v-10q7 12 19 12q8 0 11 -3q4 -2 7 -8q2 4 8 8q3 3 10 3q8 0 12 -4
q6 -3 7 -8zM464 -102q4 -3 7 -8q2 -2 2 -10v-45h-16v39q0 13 -10 13q-11 0 -11 -13v-39h-18v45q0 3 -3 6q-2 1 -7 1q-11 0 -11 -12v-40h-16v65h16v-10q6 12 19 12q7 0 10 -3q5 -2 8 -8q2 5 7 8q4 3 10 3q8 0 13 -4zM948 -107q2 -2 3 -5t3 -6q2 -4 2 -15q0 -10 -4 -17
q-3 -7 -11 -12q-7 -4 -18 -4q-13 0 -19 5q-7 5 -11 12q-3 7 -3 16t2 13q1 4 2.5 6.5t3.5 5.5q6 6 11 7q4 3 14 3q8 0 14 -3q4 -1 11 -6zM706 39q5 -6 7 -12t2 -14q0 -10 -4 -17q-3 -7 -11 -12t-18 -5q-11 0 -19 5q-6 5 -11 13q-3 7 -3 16q0 5 2 13q1 6 6 11q6 6 11 8
q4 2 14 2t15 -2q2 -2 4.5 -3t4.5 -3zM141 -100h17l-18 -62v-3h-18l-10 47l-10 -47h-18l-18 63v2h18l10 -47l9 47h18l9 -47zM347 -100l-18 -62l-1 -3h-17l-10 47l-11 -47h-17l-18 63v2h18l10 -47l9 47h18l9 -47l10 47h18zM235 -100h18l-18 -62l-1 -3h-17l-11 47l-10 -47h-18
l-17 63v2h17l11 -47l9 47h17l10 -47zM625 -100h17l-18 -62v-3h-18l-10 47l-10 -47h-18l-18 63v2h18l10 -47l9 47h17l10 -47zM174 386l6 6l4 6l6 6q1 2 5 6l36 50q3 5 6 8.5t5 8.5l12 18q3 5 6 9t5 9q3 5 5.5 9t4.5 9q1 3 0 4t-3 1q-4 0 -5 -1l-5 -3l-10 -11l-9 -12
q-5 -5 -8 -11l-9 -11l-32 -46l-15 -24q-4 -6 -7 -12l-6 -12l-2 -3q0 -1 -0.5 -1.5t-0.5 -1.5v-2q0 -1 1 -2h5zM900 -19l-4.5 -1.5t-4.5 -0.5t-9 2q-2 2 -4 3t-4 3q-3 4 -3 12q0 10 5 14q6 4 14 6l15 2q6 1 6 5q0 8 -10 8q-4 0 -8 -2q-3 -1 -4 -8h-16q1 9 4 14q2 4 9 7
q4 2 7 2h8q13 0 18 -2l4 -4t3 -4q2 -6 2 -8v-42q0 -3 4 -3v-3h-19q-1 0 -1 1v1v1q0 2 -0.5 3t-0.5 2q-2 -3 -5 -5q-2 -1 -3.5 -2t-2.5 -1zM542 -159q0 -3 3 -3v-3h-18q0 1 -1 2v1q-1 2 -1 5q-4 -4 -6 -5l-6 -3q-2 -1 -8 -1q-7 0 -9 1q-5 1 -8 7q-4 3 -4 10q0 10 6 15
q4 4 13 6l16 2q5 2 5 5q0 8 -10 8q-2 0 -4 -0.5t-4 -0.5l-2 -4t-1 -4h-16q0 7 3 13q6 6 10 7l6 2q2 0 4 0.5t4 0.5q13 0 18 -4q5 -3 8 -7q1 -3 1 -8v-35q0 -5 1 -7zM316 8h-45q0 -6 5 -11q3 -4 11 -4q3 0 7 2q4 4 4 5h18q-2 -5 -6 -11q-3 -2 -5.5 -4t-4.5 -3q-4 -1 -6.5 -2
t-6.5 -1q-32 0 -32 36q0 5 0.5 8.5t2.5 7.5q3 8 10 12q4 3 8.5 3.5t9.5 0.5q13 0 17 -4q6 -4 10 -13q2 -5 2.5 -9t0.5 -9v-4zM607 353q4 5 4 14q0 6 -2 10t-6 9q-5 5 -11 6q-6 3 -13 3q-11 0 -16 -4q-5 -2 -7.5 -4.5t-4.5 -5.5q-4 -7 -4 -14q0 -8 2 -11q4 -6 7 -9q2 -2 5 -3
t6 -3q8 -2 12 -2q11 0 16 4q6 3 12 10zM187 500q-1 -6 0 -10t6 -7l10 -3q8 0 13 1q2 0 3 1t1 2t-1 1h-3q-2 0 -2 -1q-10 -1 -17 2q-4 2 -5 4q-2 4 -2 6q0 4 1 7l4 8l10 11q2 2 5.5 4.5t6.5 4.5q4 2 7 4t7 4t7.5 3.5t7.5 3.5q4 1 7.5 2t8.5 3l16 3q10 2 15 2t13 -2
q2 -1 4.5 -1.5t4.5 -2.5l5 -7q1 -3 1 -10q0 -3 -2 -11l-6 -11q-2 -4 -8 -12q-2 -3 -5 -5.5t-6 -5.5q-2 -3 -5.5 -5.5t-6.5 -5.5l-13 -8l-14 -6l-8 -3q-3 0 -7 -2h-3q-2 0 -3 -1q-2 0 -2 -1q-2 0 -2 -2q0 -1 1 -1h3q2 0 3 1h3l15 5l15 6l15 7l15 9l13 9l12 11l10 11
q2 3 3.5 6t2.5 6q3 6 3 11q1 6 0 10q-2 6 -4 9q-4 3 -8 5q-6 3 -11 3q-5 1 -14 1q-4 0 -14 -2q-8 -1 -16 -3l-16 -4t-15.5 -5.5t-15.5 -7.5q-4 -2 -7.5 -4t-7.5 -5q-8 -5 -13 -10q-4 -3 -10 -11zM775 -132q5 -3 5 -12q0 -6 -3 -12q-4 -5 -10 -8q-4 -2 -15 -2h-6q-4 0 -6 1
q-6 2 -10 4q-6 4 -7 7q-2 6 -2 10h17q0 -9 15 -9q5 0 8 1q2 4 2 5q0 4 -7 5l-15 4q-3 1 -6.5 2.5t-5.5 3.5q-6 4 -6 12q0 6 3 11q2 4 9 8q4 3 14 3q6 0 10.5 -1t8.5 -3q6 -3 8 -8l2 -5v-5h-17q0 5 -3 7q-1 1 -8 1q-10 0 -10 -6q0 -3 6 -4l15 -4q6 -1 14 -6zM699 -101
q5 -2 7 -7q3 -6 3 -12v-45h-17v39q0 8 -2 10q-1 3 -9 3q-7 0 -10 -4q-3 -5 -3 -11v-37h-18v65h17v-10q7 12 20 12q6 0 12 -3zM783 38q3 -6 3 -12v-45h-17v39q0 4 -2 10q-3 3 -10 3t-10 -4q-2 -3 -2 -11v-37h-18v65h16v-9q7 10 20 10q9 0 12 -2zM484 -10q-3 -5 -8 -7
q-8 -4 -12 -4q-10 0 -16 7q-6 6 -6 17v43h17v-40q0 -12 11 -12q4 0 6 1t6 5q0 2 1 4t1 4v38h16v-65h-16v9zM854 -113q-8 0 -10 -5q-4 -4 -4 -13t1 -12q1 -5 4 -7q2 -2 8 -2q5 0 8 2q3 3 3 9h18q0 -5 -4 -13q-3 -5 -10 -9q-6 -3 -16 -3q-13 0 -21 7q-4 4 -7 10q-1 4 -1 15
q0 14 6 25q8 11 23 11q9 0 15 -3q7 -2 10 -9q5 -5 5 -13h-18q0 3 -2 7q-2 3 -8 3zM423 55q-2 0 -2 -2v-7h11v-12h-11v-53h-17v53h-9v12h9v5q0 18 19 18h9v-13h-5q-3 0 -4 -1zM632 46h12v-12h-12v-53h-17v53h-9v12h9v5q0 18 19 18h8v-13h-4q-4 0 -4 -1q-1 0 -2 -2v-7z
M973 -19h-11q-8 0 -11 2q-4 0 -5 4q0 2 -1 3.5t-1 3.5v40h-8v12h8v17h18v-17h11v-12h-11v-35q0 -2 0.5 -3t0.5 -2q1 0 2 -0.5t3 -0.5l3 1h2v-13zM569 492l-2 2q-1 1 -1 4q0 2 1 3q2 8 5 12q6 8 8 12l6 7l5 6l9 12q3 3 5.5 6t5.5 5l5 4l6 3q2 1 5 1q2 0 3 -2q1 -1 1 -4
q0 -2 -2 -6l-3 -5l-3 -6q-2 -4 -4 -6l-4 -6l-4 -6t-4 -5l-9 -11l-11 -11q-3 -3 -6 -4q-3 -3 -7 -4q-2 -1 -5 -1zM347 63v-17h10v-12h-10v-35q0 -4 1 -5q1 0 2.5 -0.5t3.5 -0.5l2 1h1v-13h-10q-8 0 -11 2q-4 0 -5 4q-1 2 -1 7v40h-9v12h9v17h17zM755 536q2 4 4 6l4 6
q1 2 2 3.5t2 3.5t5 6l10 14l15 18l4 5l4 4l5 3q2 1 5 1q2 1 5 1l3 -2q0 -1 0.5 -1.5t0.5 -2.5t-1 -4q0 -2 -2 -4l-9 -12l-8 -13l-9 -9l-9 -10q-2 -1 -6 -5l-7 -6q-4 -2 -6 -4q-2 -1 -3 -2t-3 -1q-4 -2 -6 -1h-1q-1 1 -1 2l1 2q0 1 1 2zM831 -19h-11q-8 0 -10 2q-5 0 -6 4v47
h-10v12h10v17h16v-17h11v-12h-11v-35q0 -2 0.5 -3t0.5 -2q2 0 3 -0.5t3 -0.5l2 1h2v-13zM593 386l2 -4t2 -5q0 -2 0.5 -4.5t0.5 -5.5q0 -6 -2 -14q-3 -6 -7 -10q-3 -2 -10 -2q-6 0 -7 2q-4 0 -7 5l-3 8q-2 6 -2 11q0 2 0.5 4.5t0.5 4.5l3 7q3 5 4 6q0 1 5 3q4 2 7 2
q1 0 1.5 -0.5t2.5 -0.5l4 -2zM533 -19h-17v88h17v-88zM562 -19h-16v88h16v-88zM511 394h-58v-2h2q5 0 6 -2q3 -2 3 -7v-32q0 -10 -9 -10h-2v-1h58v22q-2 -2 -2 -3.5t-1 -3.5l-6 -8q-3 -3 -5 -3l-5 -2q-3 -1 -7 -1h-9v24h1q7 0 11 -4l2 -3q0 -1 0.5 -1.5t0.5 -2.5q1 -2 1 -5
h1v35h-1v-5l-3 -6q-5 -6 -10 -6h-3v25h10q9 0 12 -1l5 -4l3 -6l3 -8h2v21zM693 394h-27v-2h5q0 -1 2 -1q4 -4 4 -5q2 -2 2 -8v-23l-38 39h-21v-2h1q4 0 5 -1q2 0 2.5 -1t1.5 -1q1 -2 1 -5v-31q0 -4 -1 -6q-1 -3 -4 -4q-4 -2 -7 -2v-1h28v1q-3 0 -5 1q-2 0 -2.5 0.5t-2.5 0.5
l-3 5q-1 1 -1 7v32l46 -47h2v38q0 6 3 11q1 3 9 3v2zM444 365q-3 2 -7 4l-10 4h-6l-1 1l-8 2q-2 1 -3 1t-2 1q-1 0 -3 2t-2 4q0 3 1 4q0 -1 2 3l4 2q2 0 3 0.5t3 0.5q4 0 8 -2q5 0 8 -3q4 -2 6 -4t2.5 -4.5t2.5 -5.5h2v18h-2q-1 -4 -4 -4t-5 1q-10 5 -18 5q-5 0 -11 -2
l-7 -5q-3 -5 -3 -9q0 -3 3 -6q0 -1 3 -4l7 -3q1 -1 4 -1.5t8 -2.5l4 -1q6 -2 8 -2t4 -2q1 0 2 -1q3 -3 3 -6q0 -1 -2 -5q-1 -1 -5 -4h-6q-6 0 -9 1l-10 4l-6 6q-5 7 -5 12h-2v-25h2q0 4 2 4q2 2 5 2q1 0 1 -0.5t2 -0.5q1 0 1.5 -0.5t2.5 -0.5l8 -3q2 -1 8 -1q3 0 9 2
q2 0 3.5 1t3.5 3q2 1 2 2t2 3v11zM694 0q4 4 4 13q0 10 -4 14q-3 6 -12 6t-12 -6q-4 -6 -4 -14q0 -7 4 -13q2 -6 12 -6t12 6zM935 -146q2 3 2.5 6.5t0.5 6.5q0 11 -3 15q-3 5 -12 5t-12 -5q-3 -6 -3 -15q0 -7 3 -13t12 -6t12 6zM818 389q1 2 3 2q2 1 5 1v2h-27v-2h3
q5 0 6 -1q2 -1 2 -4q0 -2 -3 -6l-11 -15l-14 18l-2 4v1q0 2 1 2q0 1 3 1h5v2h-35v-2h1q6 0 8 -1l3 -3t2 -3l17 -22v-12q0 -5 -2 -7l-4 -2t-4 -1h-3v-1h38v1h-4q-4 0 -7 3q-3 1 -3 7v13l14 19l3 4q4 2 5 2zM757 364h-1q-2 -2 -2 -3.5t-1 -3.5q-2 -2 -2 -5q-1 -1 -3 -4
q-4 -4 -7 -5q-2 -2 -8 -2h-14v42q0 5 3 7q2 2 7 2h4v2h-37v-2h3q9 0 9 -9v-32q0 -10 -9 -10h-3v-1h61v24zM387 394h-27v-2h6q1 0 1.5 -0.5t1.5 -0.5q6 -3 6 -13v-19q0 -8 -5 -13l-7 -5h-9q-7 0 -10 2q-2 0 -6 4q-2 2 -2 9v27q0 6 2 7q2 2 8 2h4v2h-37v-2h1q11 0 11 -9v-27
q0 -7 6 -13l9 -3q3 -1 11 -1t14 2q4 2 6 4q5 4 5 13v28l5 5h1l1 1h4v2zM367 480q-6 -2 -7 -2q-3 0 -7 2l9 12l10 12l4 5q2 2 3 2.5t2 2.5l6 5l7 3q5 1 8 0q1 -2 0 -6l-3 -5q-2 -2 -4 -6q-2 -2 -2.5 -3t-2.5 -2q-1 -2 -5 -6q-2 -3 -5 -5q-4 -4 -6 -5zM512 510q0 -2 0.5 -3
t0.5 -3q-1 -2 -1 -5q0 -2 -0.5 -3t-0.5 -3l-2 -5q-1 -2 -5 -6l-4 -3q-2 -2 -5 -2q-1 -1 -5 -1q-2 -2 -4 0q-2 0 -4 2v5l2 6l4 5q5 6 11 10zM888 -1q0 -5 2 -5q2 -2 6 -2h4h1l2 1q4 2 6 4q2 4 2 8v8q-3 -3 -7 -3l-8 -2q-3 0 -6 -3q-2 -1 -2 -6zM524 -133q-3 -3 -6 -3l-8 -1
l-6 -3q-3 -3 -3 -7t3 -5q2 -2 6 -2h3q1 0 1.5 0.5t1.5 0.5l6 4q2 2 2 7v9zM793 -147h18v-18h-18v18zM347 -147h18v-18h-18v18zM299 20q-2 6 -4 10q-2 2 -4 3t-5 1q-11 0 -13 -14h26zM930 655q-1 -2 -5 -6l16 22l8 13l15 20l1 1q0 2 2 2q0 1 1 1q1 1 1 0q0 -2 -2 -6l-4 -6
l-4 -5q-2 -4 -4 -5l-9 -12l-10 -12z" />
    <glyph glyph-name="parenright" unicode=")" horiz-adv-x="1129" 
d="M100 588l154 33l-6 21l23 7l-5 23l24 5l-3 25l23 2v23h21l2 21l23 -3l4 23l25 -4l6 23l22 -6l9 21l23 -9l12 22l21 -11l12 20l21 -14l15 19l19 -15l16 16l15 -14l15 13l15 -17l20 13l13 -21l22 12l11 -20l21 9l10 -23l24 7l7 -22l22 5l5 -24l25 2l1 -15l231 50v-283
l-106 -23l2 -2l-13 -15l13 -16l-18 -15l13 -20l-21 -13l13 -21l-21 -12l9 -21l-23 -10l8 -24l-22 -7l4 -22l-24 -5l2 -25l-23 -2v-23h-20l-3 -21l-22 2l-5 -22l-24 4l-7 -23l-22 7l-8 -23l-24 10l-11 -22l-21 11l-13 -20l-21 13l-14 -18l-18 15l-17 -16l-15 14l-16 -14
l-14 18l-20 -13l-14 21l-21 -12l-11 20l-22 -9l-10 23l-23 -7l-7 22l-23 -5l-5 24l-24 -2l-3 23h-23v21l-20 2l2 23l-23 4l5 24l-24 7l7 22l-16 6l-141 -30v283zM715 520q6 3 11 8l12 11l1 1q-1 -1 -1 -3q0 -4 2 -8t6 -5q3 -1 11 1q10 4 14 7l12 9l4 4l4 4l8 7q-1 -1 -1 -3
q0 -1 -0.5 -1.5t-0.5 -1.5v-4q-2 -3 0 -5q0 -2 0.5 -2.5t0.5 -1.5q1 -3 4 -3q1 -1 4 -1t5 1l4 2l5 3l7 4l18 15l10 10l-3 -7q-2 -4 -2 -11v-3q2 -2 3 -2q0 -1 3 -1q1 0 5 2q2 1 3.5 1.5t3.5 2.5l6 4l6 6q2 1 6 5q3 2 5.5 5t5.5 6l10 12q1 1 1 2q-1 1 -2 1q-2 0 -4 -2l-2 -3
l-7 -8l-6 -7l-3.5 -3.5l-3.5 -3.5l-8 -7l-4 -3l-5 -2l-1 -1q-1 0 -2 1h1l4 8l2 4t3 4l4 6q2 2 4 6l36 53q6 6 8 10l9 9l21 24q5 6 9.5 12t9.5 12l6 10v5q-1 1 -5 1q-2 0 -6 -2q-2 0 -3.5 -1t-3.5 -2q-4 -2 -6 -4l-5 -4q-3 -2 -6 -4.5t-6 -5.5l-10 -11q-4 -4 -10 -12
q-2 -4 -8 -12q-5 -6 -8.5 -12t-7.5 -12l-15 -25l-11 -19l-4 -9q-1 0 -1 -1l-8 -8q-2 -3 -5 -5.5t-6 -5.5l-11 -10l-5 -4l-4 -3l-2 -1l-3 -2h-3h-2l3 6l3 5q0 1 0.5 1t0.5 1l1 1q2 4 4.5 7.5t5.5 7.5q2 4 4.5 8t5.5 8l8 12l4 7q2 2 4 6l1 1l1 1q0 1 0.5 1t0.5 1l1 1q3 2 2 4
q0 1 -4 1l-6 -2l-6 -3l-10 -7l-4 -4l-4 -4q0 4 -1 6q0 2 -4 4q-6 1 -12 0q-6 -2 -13 -5q-8 -3 -13 -7q-4 -2 -6.5 -4.5l-4.5 -4.5q-14 -11 -21 -22q-9 -11 -12 -21q-1 0 -1 -0.5t-1 -0.5q-2 -2 -4.5 -5t-5.5 -5q-4 -4 -12 -10q-3 -3 -7 -4q-4 -2 -6 -2h-2q-1 1 0 2l4 5l3 5
l7 8l12 16q3 4 6 7.5t5 8.5l5 10q2 6 1 9q0 3 -1 4q-2 2 -4 2q-3 0 -5 -1l-7 -3l-7 -4q-4 -4 -6 -5q-4 -4 -6 -5q-4 -4 -6 -5l-12 -12q-3 -3 -6 -5.5t-5 -5.5l-6 -7l-6 -6l2 3l14 20l15 21q0 1 0.5 1t0.5 1q1 1 1 2q1 2 1 4l-3 3q-1 0 -1.5 0.5t-2.5 0.5q-1 0 -2 -0.5
t-3 -0.5l-6 -3l-3 -3q-2 -1 -2 -2t-1 -2l-3 -4l-44 -76q-1 -1 -1 -4q1 0 1.5 -0.5t1.5 -0.5q3 0 5 1l5 3q0 1 2 3l2 2l3 3q0 1 2 3l10 12l11 12l10 12l12 12l12 11l5 5q2 1 6 5l6 4l7 3q1 0 1 -1h-1l-3 -3q-1 -3 -4 -4l-3 -4l-7 -8q-3 -3 -7 -9q-6 -8 -8 -12l-8 -12
q-2 -3 -4 -11q-2 -5 0 -9t5 -4q6 0 10 1q3 1 6 3t7 4zM494 471q7 1 14 5q7 3 13 9q5 3 9 10l5 10q3 6 3 11v9q0 3 -2 9l-4 9l-3 4q0 2 -2 4q0 1 -2 3v3q1 1 1 2h-5l-2 -2q-3 -1 -7 -5l-3 -7l-1 -1l-3 -4l-18 -25l-3 -4l-3 -5l-1 -1v-1q-1 0 -2 -1l-3 -5l-3 -4l-9 -11
l-12 -11q-3 -3 -7 -4q-4 -2 -7 -2h-1l1 1l4 6l4 5l4 6q2 1 4 5l5 8l5 9l3 8q1 3 1 8q-1 1 -1 4l-2 3q0 2 -1 3v13l4 6q2 5 -2 7q-3 3 -10 0q-7 -2 -9 -4q-4 -3 -6 -7t-2 -7q0 -4 1 -6l2 -2l2 -2l-3 -4l-3 -3l-14 -18l-11 -13q-1 0 -3 -2v-1l-1 -1q0 -1 -1 -1l-6 -8
l-7.5 -7.5t-8.5 -6.5q-10 -8 -19 -12q-2 -2 -5 -2.5t-6 -2.5q-8 -2 -11 -1q-4 0 -4 2q-1 1 -1 4q0 1 2 5l2 5l6 10q4 -2 7 -2q6 0 10 1q7 1 15 6q5 2 14 9l9 9q2 2 3.5 4.5t2.5 4.5l4 8q0 6 -2 8q-2 3 -5 5q-3 1 -10 1q-2 -1 -5 -1t-6 -2q-4 -1 -12 -5q-13 -6 -25 -16
q-11 -9 -17 -20q-3 -3 -7 -11q-3 -5 -4 -11v-10q1 -3 5 -7q6 -4 13 -3q8 0 16 3q9 3 18 9q9 4 18 12l14 12l8 9q0 1 2 3q0 2 2 2l2 4l9 9l9 12q3 3 5.5 6t4.5 6l4 -2l2 -3q1 -2 1 -4q0 -1 -4 -5l-9 -10l-8 -11l-7 -11l-3 -10q-1 -2 -1 -5v-4q2 -3 3 -4t4 -1q2 0 10 2l9 6
q8 6 12 10q3 2 5.5 5t4.5 5q4 4 5 6l5 6l2 3l3 3q2 2 2 3l7 9l12 17q0 -2 0.5 -4t0.5 -4q2 -6 2 -8l2 -4q-10 -4 -14 -7l-11 -9q-6 -6 -7 -10q-2 -4 -2 -10q1 -3 6 -5q3 -1 11 -1zM553 510q-2 -7 0 -13q0 -3 2 -5t6 -4q2 0 3 -0.5t3 0.5h7q5 1 15 5l15 8l13 11l11 10l8 11
l6 10l3 10q1 6 0 9q0 3 -3 6q-1 2 -6 4q-2 0 -4 0.5t-4 0.5q-3 0 -11 -2q-1 0 -7 -2l-7 -3l-14 -9q-4 -2 -7 -5t-6 -5l-10 -11l-7 -11q-5 -8 -6 -15zM175 -9q-6 6 -9 15t-3 19q0 6 1 9q0 2 1 4.5t1 4.5q1 7 8 14q2 3 5.5 5.5t7.5 4.5q5 2 9.5 3t9.5 1h3q3 0 9 -2q3 0 5 -1
l4 -2q7 -4 12 -11q2 -3 4 -7q1 -2 1 -6h-19q0 3 -2 5q-1 3 -6 6t-10 3q-3 0 -5 -1h-4l-8 -6q-2 -2 -3.5 -4t-2.5 -5q-2 -5 -2 -16q0 -9 3 -16q1 -7 7 -9q3 -2 5.5 -3t5.5 -2h3q7 0 10 3q4 0 7 5q2 3 3.5 5.5t1.5 5.5h-21v16h37v-48h-12l-2 11q-3 -5 -8 -8q-3 -2 -5.5 -2.5
t-4.5 -2.5q-3 0 -5.5 -0.5t-5.5 -0.5q-9 0 -14 4q-8 3 -12 9zM1058 -110q3 -3 3 -10v-45h-17v39q0 13 -10 13q-11 0 -11 -13v-39h-17v39q0 5 -1 6q0 3 -3 6q-2 1 -6 1q-11 0 -11 -12v-40h-17v65h16v-10q7 12 19 12q8 0 11 -3q4 -2 7 -8q2 4 8 8q3 3 10 3q8 0 12 -4
q6 -3 7 -8zM464 -102q4 -3 7 -8q2 -2 2 -10v-45h-16v39q0 13 -10 13q-11 0 -11 -13v-39h-18v45q0 3 -3 6q-2 1 -7 1q-11 0 -11 -12v-40h-16v65h16v-10q6 12 19 12q7 0 10 -3q5 -2 8 -8q2 5 7 8q4 3 10 3q8 0 13 -4zM948 -107q2 -2 3 -5t3 -6q2 -4 2 -15q0 -10 -4 -17
q-3 -7 -11 -12q-7 -4 -18 -4q-13 0 -19 5q-7 5 -11 12q-3 7 -3 16t2 13q1 4 2.5 6.5t3.5 5.5q6 6 11 7q4 3 14 3q8 0 14 -3q4 -1 11 -6zM706 39q5 -6 7 -12t2 -14q0 -10 -4 -17q-3 -7 -11 -12t-18 -5q-11 0 -19 5q-6 5 -11 13q-3 7 -3 16q0 5 2 13q1 6 6 11q6 6 11 8
q4 2 14 2t15 -2q2 -2 4.5 -3t4.5 -3zM141 -100h17l-18 -62v-3h-18l-10 47l-10 -47h-18l-18 63v2h18l10 -47l9 47h18l9 -47zM347 -100l-18 -62l-1 -3h-17l-10 47l-11 -47h-17l-18 63v2h18l10 -47l9 47h18l9 -47l10 47h18zM235 -100h18l-18 -62l-1 -3h-17l-11 47l-10 -47h-18
l-17 63v2h17l11 -47l9 47h17l10 -47zM625 -100h17l-18 -62v-3h-18l-10 47l-10 -47h-18l-18 63v2h18l10 -47l9 47h17l10 -47zM174 386l6 6l4 6l6 6q1 2 5 6l36 50q3 5 6 8.5t5 8.5l12 18q3 5 6 9t5 9q3 5 5.5 9t4.5 9q1 3 0 4t-3 1q-4 0 -5 -1l-5 -3l-10 -11l-9 -12
q-5 -5 -8 -11l-9 -11l-32 -46l-15 -24q-4 -6 -7 -12l-6 -12l-2 -3q0 -1 -0.5 -1.5t-0.5 -1.5v-2q0 -1 1 -2h5zM900 -19l-4.5 -1.5t-4.5 -0.5t-9 2q-2 2 -4 3t-4 3q-3 4 -3 12q0 10 5 14q6 4 14 6l15 2q6 1 6 5q0 8 -10 8q-4 0 -8 -2q-3 -1 -4 -8h-16q1 9 4 14q2 4 9 7
q4 2 7 2h8q13 0 18 -2l4 -4t3 -4q2 -6 2 -8v-42q0 -3 4 -3v-3h-19q-1 0 -1 1v1v1q0 2 -0.5 3t-0.5 2q-2 -3 -5 -5q-2 -1 -3.5 -2t-2.5 -1zM542 -159q0 -3 3 -3v-3h-18q0 1 -1 2v1q-1 2 -1 5q-4 -4 -6 -5l-6 -3q-2 -1 -8 -1q-7 0 -9 1q-5 1 -8 7q-4 3 -4 10q0 10 6 15
q4 4 13 6l16 2q5 2 5 5q0 8 -10 8q-2 0 -4 -0.5t-4 -0.5l-2 -4t-1 -4h-16q0 7 3 13q6 6 10 7l6 2q2 0 4 0.5t4 0.5q13 0 18 -4q5 -3 8 -7q1 -3 1 -8v-35q0 -5 1 -7zM316 8h-45q0 -6 5 -11q3 -4 11 -4q3 0 7 2q4 4 4 5h18q-2 -5 -6 -11q-3 -2 -5.5 -4t-4.5 -3q-4 -1 -6.5 -2
t-6.5 -1q-32 0 -32 36q0 5 0.5 8.5t2.5 7.5q3 8 10 12q4 3 8.5 3.5t9.5 0.5q13 0 17 -4q6 -4 10 -13q2 -5 2.5 -9t0.5 -9v-4zM607 353q4 5 4 14q0 6 -2 10t-6 9q-5 5 -11 6q-6 3 -13 3q-11 0 -16 -4q-5 -2 -7.5 -4.5t-4.5 -5.5q-4 -7 -4 -14q0 -8 2 -11q4 -6 7 -9q2 -2 5 -3
t6 -3q8 -2 12 -2q11 0 16 4q6 3 12 10zM187 500q-1 -6 0 -10t6 -7l10 -3q8 0 13 1q2 0 3 1t1 2t-1 1h-3q-2 0 -2 -1q-10 -1 -17 2q-4 2 -5 4q-2 4 -2 6q0 4 1 7l4 8l10 11q2 2 5.5 4.5t6.5 4.5q4 2 7 4t7 4t7.5 3.5t7.5 3.5q4 1 7.5 2t8.5 3l16 3q10 2 15 2t13 -2
q2 -1 4.5 -1.5t4.5 -2.5l5 -7q1 -3 1 -10q0 -3 -2 -11l-6 -11q-2 -4 -8 -12q-2 -3 -5 -5.5t-6 -5.5q-2 -3 -5.5 -5.5t-6.5 -5.5l-13 -8l-14 -6l-8 -3q-3 0 -7 -2h-3q-2 0 -3 -1q-2 0 -2 -1q-2 0 -2 -2q0 -1 1 -1h3q2 0 3 1h3l15 5l15 6l15 7l15 9l13 9l12 11l10 11
q2 3 3.5 6t2.5 6q3 6 3 11q1 6 0 10q-2 6 -4 9q-4 3 -8 5q-6 3 -11 3q-5 1 -14 1q-4 0 -14 -2q-8 -1 -16 -3l-16 -4t-15.5 -5.5t-15.5 -7.5q-4 -2 -7.5 -4t-7.5 -5q-8 -5 -13 -10q-4 -3 -10 -11zM775 -132q5 -3 5 -12q0 -6 -3 -12q-4 -5 -10 -8q-4 -2 -15 -2h-6q-4 0 -6 1
q-6 2 -10 4q-6 4 -7 7q-2 6 -2 10h17q0 -9 15 -9q5 0 8 1q2 4 2 5q0 4 -7 5l-15 4q-3 1 -6.5 2.5t-5.5 3.5q-6 4 -6 12q0 6 3 11q2 4 9 8q4 3 14 3q6 0 10.5 -1t8.5 -3q6 -3 8 -8l2 -5v-5h-17q0 5 -3 7q-1 1 -8 1q-10 0 -10 -6q0 -3 6 -4l15 -4q6 -1 14 -6zM699 -101
q5 -2 7 -7q3 -6 3 -12v-45h-17v39q0 8 -2 10q-1 3 -9 3q-7 0 -10 -4q-3 -5 -3 -11v-37h-18v65h17v-10q7 12 20 12q6 0 12 -3zM783 38q3 -6 3 -12v-45h-17v39q0 4 -2 10q-3 3 -10 3t-10 -4q-2 -3 -2 -11v-37h-18v65h16v-9q7 10 20 10q9 0 12 -2zM484 -10q-3 -5 -8 -7
q-8 -4 -12 -4q-10 0 -16 7q-6 6 -6 17v43h17v-40q0 -12 11 -12q4 0 6 1t6 5q0 2 1 4t1 4v38h16v-65h-16v9zM854 -113q-8 0 -10 -5q-4 -4 -4 -13t1 -12q1 -5 4 -7q2 -2 8 -2q5 0 8 2q3 3 3 9h18q0 -5 -4 -13q-3 -5 -10 -9q-6 -3 -16 -3q-13 0 -21 7q-4 4 -7 10q-1 4 -1 15
q0 14 6 25q8 11 23 11q9 0 15 -3q7 -2 10 -9q5 -5 5 -13h-18q0 3 -2 7q-2 3 -8 3zM423 55q-2 0 -2 -2v-7h11v-12h-11v-53h-17v53h-9v12h9v5q0 18 19 18h9v-13h-5q-3 0 -4 -1zM632 46h12v-12h-12v-53h-17v53h-9v12h9v5q0 18 19 18h8v-13h-4q-4 0 -4 -1q-1 0 -2 -2v-7z
M973 -19h-11q-8 0 -11 2q-4 0 -5 4q0 2 -1 3.5t-1 3.5v40h-8v12h8v17h18v-17h11v-12h-11v-35q0 -2 0.5 -3t0.5 -2q1 0 2 -0.5t3 -0.5l3 1h2v-13zM569 492l-2 2q-1 1 -1 4q0 2 1 3q2 8 5 12q6 8 8 12l6 7l5 6l9 12q3 3 5.5 6t5.5 5l5 4l6 3q2 1 5 1q2 0 3 -2q1 -1 1 -4
q0 -2 -2 -6l-3 -5l-3 -6q-2 -4 -4 -6l-4 -6l-4 -6t-4 -5l-9 -11l-11 -11q-3 -3 -6 -4q-3 -3 -7 -4q-2 -1 -5 -1zM347 63v-17h10v-12h-10v-35q0 -4 1 -5q1 0 2.5 -0.5t3.5 -0.5l2 1h1v-13h-10q-8 0 -11 2q-4 0 -5 4q-1 2 -1 7v40h-9v12h9v17h17zM755 536q2 4 4 6l4 6
q1 2 2 3.5t2 3.5t5 6l10 14l15 18l4 5l4 4l5 3q2 1 5 1q2 1 5 1l3 -2q0 -1 0.5 -1.5t0.5 -2.5t-1 -4q0 -2 -2 -4l-9 -12l-8 -13l-9 -9l-9 -10q-2 -1 -6 -5l-7 -6q-4 -2 -6 -4q-2 -1 -3 -2t-3 -1q-4 -2 -6 -1h-1q-1 1 -1 2l1 2q0 1 1 2zM831 -19h-11q-8 0 -10 2q-5 0 -6 4v47
h-10v12h10v17h16v-17h11v-12h-11v-35q0 -2 0.5 -3t0.5 -2q2 0 3 -0.5t3 -0.5l2 1h2v-13zM593 386l2 -4t2 -5q0 -2 0.5 -4.5t0.5 -5.5q0 -6 -2 -14q-3 -6 -7 -10q-3 -2 -10 -2q-6 0 -7 2q-4 0 -7 5l-3 8q-2 6 -2 11q0 2 0.5 4.5t0.5 4.5l3 7q3 5 4 6q0 1 5 3q4 2 7 2
q1 0 1.5 -0.5t2.5 -0.5l4 -2zM533 -19h-17v88h17v-88zM562 -19h-16v88h16v-88zM511 394h-58v-2h2q5 0 6 -2q3 -2 3 -7v-32q0 -10 -9 -10h-2v-1h58v22q-2 -2 -2 -3.5t-1 -3.5l-6 -8q-3 -3 -5 -3l-5 -2q-3 -1 -7 -1h-9v24h1q7 0 11 -4l2 -3q0 -1 0.5 -1.5t0.5 -2.5q1 -2 1 -5
h1v35h-1v-5l-3 -6q-5 -6 -10 -6h-3v25h10q9 0 12 -1l5 -4l3 -6l3 -8h2v21zM693 394h-27v-2h5q0 -1 2 -1q4 -4 4 -5q2 -2 2 -8v-23l-38 39h-21v-2h1q4 0 5 -1q2 0 2.5 -1t1.5 -1q1 -2 1 -5v-31q0 -4 -1 -6q-1 -3 -4 -4q-4 -2 -7 -2v-1h28v1q-3 0 -5 1q-2 0 -2.5 0.5t-2.5 0.5
l-3 5q-1 1 -1 7v32l46 -47h2v38q0 6 3 11q1 3 9 3v2zM444 365q-3 2 -7 4l-10 4h-6l-1 1l-8 2q-2 1 -3 1t-2 1q-1 0 -3 2t-2 4q0 3 1 4q0 -1 2 3l4 2q2 0 3 0.5t3 0.5q4 0 8 -2q5 0 8 -3q4 -2 6 -4t2.5 -4.5t2.5 -5.5h2v18h-2q-1 -4 -4 -4t-5 1q-10 5 -18 5q-5 0 -11 -2
l-7 -5q-3 -5 -3 -9q0 -3 3 -6q0 -1 3 -4l7 -3q1 -1 4 -1.5t8 -2.5l4 -1q6 -2 8 -2t4 -2q1 0 2 -1q3 -3 3 -6q0 -1 -2 -5q-1 -1 -5 -4h-6q-6 0 -9 1l-10 4l-6 6q-5 7 -5 12h-2v-25h2q0 4 2 4q2 2 5 2q1 0 1 -0.5t2 -0.5q1 0 1.5 -0.5t2.5 -0.5l8 -3q2 -1 8 -1q3 0 9 2
q2 0 3.5 1t3.5 3q2 1 2 2t2 3v11zM694 0q4 4 4 13q0 10 -4 14q-3 6 -12 6t-12 -6q-4 -6 -4 -14q0 -7 4 -13q2 -6 12 -6t12 6zM935 -146q2 3 2.5 6.5t0.5 6.5q0 11 -3 15q-3 5 -12 5t-12 -5q-3 -6 -3 -15q0 -7 3 -13t12 -6t12 6zM818 389q1 2 3 2q2 1 5 1v2h-27v-2h3
q5 0 6 -1q2 -1 2 -4q0 -2 -3 -6l-11 -15l-14 18l-2 4v1q0 2 1 2q0 1 3 1h5v2h-35v-2h1q6 0 8 -1l3 -3t2 -3l17 -22v-12q0 -5 -2 -7l-4 -2t-4 -1h-3v-1h38v1h-4q-4 0 -7 3q-3 1 -3 7v13l14 19l3 4q4 2 5 2zM757 364h-1q-2 -2 -2 -3.5t-1 -3.5q-2 -2 -2 -5q-1 -1 -3 -4
q-4 -4 -7 -5q-2 -2 -8 -2h-14v42q0 5 3 7q2 2 7 2h4v2h-37v-2h3q9 0 9 -9v-32q0 -10 -9 -10h-3v-1h61v24zM387 394h-27v-2h6q1 0 1.5 -0.5t1.5 -0.5q6 -3 6 -13v-19q0 -8 -5 -13l-7 -5h-9q-7 0 -10 2q-2 0 -6 4q-2 2 -2 9v27q0 6 2 7q2 2 8 2h4v2h-37v-2h1q11 0 11 -9v-27
q0 -7 6 -13l9 -3q3 -1 11 -1t14 2q4 2 6 4q5 4 5 13v28l5 5h1l1 1h4v2zM367 480q-6 -2 -7 -2q-3 0 -7 2l9 12l10 12l4 5q2 2 3 2.5t2 2.5l6 5l7 3q5 1 8 0q1 -2 0 -6l-3 -5q-2 -2 -4 -6q-2 -2 -2.5 -3t-2.5 -2q-1 -2 -5 -6q-2 -3 -5 -5q-4 -4 -6 -5zM512 510q0 -2 0.5 -3
t0.5 -3q-1 -2 -1 -5q0 -2 -0.5 -3t-0.5 -3l-2 -5q-1 -2 -5 -6l-4 -3q-2 -2 -5 -2q-1 -1 -5 -1q-2 -2 -4 0q-2 0 -4 2v5l2 6l4 5q5 6 11 10zM888 -1q0 -5 2 -5q2 -2 6 -2h4h1l2 1q4 2 6 4q2 4 2 8v8q-3 -3 -7 -3l-8 -2q-3 0 -6 -3q-2 -1 -2 -6zM524 -133q-3 -3 -6 -3l-8 -1
l-6 -3q-3 -3 -3 -7t3 -5q2 -2 6 -2h3q1 0 1.5 0.5t1.5 0.5l6 4q2 2 2 7v9zM793 -147h18v-18h-18v18zM347 -147h18v-18h-18v18zM299 20q-2 6 -4 10q-2 2 -4 3t-5 1q-11 0 -13 -14h26zM930 655q-1 -2 -5 -6l16 22l8 13l15 20l1 1q0 2 2 2q0 1 1 1q1 1 1 0q0 -2 -2 -6l-4 -6
l-4 -5q-2 -4 -4 -5l-9 -12l-10 -12z" />
    <glyph glyph-name="asterisk" unicode="*" horiz-adv-x="1148" 
d="M100 588l154 33l-6 21l23 7l-5 23l24 5l-3 25l23 2v23h21l2 21l23 -3l4 23l25 -4l6 23l22 -6l9 21l23 -9l12 22l21 -11l12 20l21 -14l15 19l19 -15l16 16l15 -14l15 13l15 -17l20 13l13 -21l22 12l11 -20l21 9l10 -23l24 7l7 -22l22 5l5 -24l25 2l1 -15l231 50v-283
l-106 -23l2 -2l-13 -15l13 -16l-18 -15l13 -20l-21 -13l13 -21l-21 -12l9 -21l-23 -10l8 -24l-22 -7l4 -22l-24 -5l2 -25l-23 -2v-23h-20l-3 -21l-22 2l-5 -22l-24 4l-7 -23l-22 7l-8 -23l-24 10l-11 -22l-21 11l-13 -20l-21 13l-14 -18l-18 15l-17 -16l-15 14l-16 -14
l-14 18l-20 -13l-14 21l-21 -12l-11 20l-22 -9l-10 23l-23 -7l-7 22l-23 -5l-5 24l-24 -2l-3 23h-23v21l-20 2l2 23l-23 4l5 24l-24 7l7 22l-16 6l-141 -30v283zM715 520q6 3 11 8l12 11l1 1q-1 -1 -1 -3q0 -4 2 -8t6 -5q3 -1 11 1q10 4 14 7l12 9l4 4l4 4l8 7q-1 -1 -1 -3
q0 -1 -0.5 -1.5t-0.5 -1.5v-4q-2 -3 0 -5q0 -2 0.5 -2.5t0.5 -1.5q1 -3 4 -3q1 -1 4 -1t5 1l4 2l5 3l7 4l18 15l10 10l-3 -7q-2 -4 -2 -11v-3q2 -2 3 -2q0 -1 3 -1q1 0 5 2q2 1 3.5 1.5t3.5 2.5l6 4l6 6q2 1 6 5q3 2 5.5 5t5.5 6l10 12q1 1 1 2q-1 1 -2 1q-2 0 -4 -2l-2 -3
l-7 -8l-6 -7l-3.5 -3.5l-3.5 -3.5l-8 -7l-4 -3l-5 -2l-1 -1q-1 0 -2 1h1l4 8l2 4t3 4l4 6q2 2 4 6l36 53q6 6 8 10l9 9l21 24q5 6 9.5 12t9.5 12l6 10v5q-1 1 -5 1q-2 0 -6 -2q-2 0 -3.5 -1t-3.5 -2q-4 -2 -6 -4l-5 -4q-3 -2 -6 -4.5t-6 -5.5l-10 -11q-4 -4 -10 -12
q-2 -4 -8 -12q-5 -6 -8.5 -12t-7.5 -12l-15 -25l-11 -19l-4 -9q-1 0 -1 -1l-8 -8q-2 -3 -5 -5.5t-6 -5.5l-11 -10l-5 -4l-4 -3l-2 -1l-3 -2h-3h-2l3 6l3 5q0 1 0.5 1t0.5 1l1 1q2 4 4.5 7.5t5.5 7.5q2 4 4.5 8t5.5 8l8 12l4 7q2 2 4 6l1 1l1 1q0 1 0.5 1t0.5 1l1 1q3 2 2 4
q0 1 -4 1l-6 -2l-6 -3l-10 -7l-4 -4l-4 -4q0 4 -1 6q0 2 -4 4q-6 1 -12 0q-6 -2 -13 -5q-8 -3 -13 -7q-4 -2 -6.5 -4.5l-4.5 -4.5q-14 -11 -21 -22q-9 -11 -12 -21q-1 0 -1 -0.5t-1 -0.5q-2 -2 -4.5 -5t-5.5 -5q-4 -4 -12 -10q-3 -3 -7 -4q-4 -2 -6 -2h-2q-1 1 0 2l4 5l3 5
l7 8l12 16q3 4 6 7.5t5 8.5l5 10q2 6 1 9q0 3 -1 4q-2 2 -4 2q-3 0 -5 -1l-7 -3l-7 -4q-4 -4 -6 -5q-4 -4 -6 -5q-4 -4 -6 -5l-12 -12q-3 -3 -6 -5.5t-5 -5.5l-6 -7l-6 -6l2 3l14 20l15 21q0 1 0.5 1t0.5 1q1 1 1 2q1 2 1 4l-3 3q-1 0 -1.5 0.5t-2.5 0.5q-1 0 -2 -0.5
t-3 -0.5l-6 -3l-3 -3q-2 -1 -2 -2t-1 -2l-3 -4l-44 -76q-1 -1 -1 -4q1 0 1.5 -0.5t1.5 -0.5q3 0 5 1l5 3q0 1 2 3l2 2l3 3q0 1 2 3l10 12l11 12l10 12l12 12l12 11l5 5q2 1 6 5l6 4l7 3q1 0 1 -1h-1l-3 -3q-1 -3 -4 -4l-3 -4l-7 -8q-3 -3 -7 -9q-6 -8 -8 -12l-8 -12
q-2 -3 -4 -11q-2 -5 0 -9t5 -4q6 0 10 1q3 1 6 3t7 4zM494 471q7 1 14 5q7 3 13 9q5 3 9 10l5 10q3 6 3 11v9q0 3 -2 9l-4 9l-3 4q0 2 -2 4q0 1 -2 3v3q1 1 1 2h-5l-2 -2q-3 -1 -7 -5l-3 -7l-1 -1l-3 -4l-18 -25l-3 -4l-3 -5l-1 -1v-1q-1 0 -2 -1l-3 -5l-3 -4l-9 -11
l-12 -11q-3 -3 -7 -4q-4 -2 -7 -2h-1l1 1l4 6l4 5l4 6q2 1 4 5l5 8l5 9l3 8q1 3 1 8q-1 1 -1 4l-2 3q0 2 -1 3v13l4 6q2 5 -2 7q-3 3 -10 0q-7 -2 -9 -4q-4 -3 -6 -7t-2 -7q0 -4 1 -6l2 -2l2 -2l-3 -4l-3 -3l-14 -18l-11 -13q-1 0 -3 -2v-1l-1 -1q0 -1 -1 -1l-6 -8
l-7.5 -7.5t-8.5 -6.5q-10 -8 -19 -12q-2 -2 -5 -2.5t-6 -2.5q-8 -2 -11 -1q-4 0 -4 2q-1 1 -1 4q0 1 2 5l2 5l6 10q4 -2 7 -2q6 0 10 1q7 1 15 6q5 2 14 9l9 9q2 2 3.5 4.5t2.5 4.5l4 8q0 6 -2 8q-2 3 -5 5q-3 1 -10 1q-2 -1 -5 -1t-6 -2q-4 -1 -12 -5q-13 -6 -25 -16
q-11 -9 -17 -20q-3 -3 -7 -11q-3 -5 -4 -11v-10q1 -3 5 -7q6 -4 13 -3q8 0 16 3q9 3 18 9q9 4 18 12l14 12l8 9q0 1 2 3q0 2 2 2l2 4l9 9l9 12q3 3 5.5 6t4.5 6l4 -2l2 -3q1 -2 1 -4q0 -1 -4 -5l-9 -10l-8 -11l-7 -11l-3 -10q-1 -2 -1 -5v-4q2 -3 3 -4t4 -1q2 0 10 2l9 6
q8 6 12 10q3 2 5.5 5t4.5 5q4 4 5 6l5 6l2 3l3 3q2 2 2 3l7 9l12 17q0 -2 0.5 -4t0.5 -4q2 -6 2 -8l2 -4q-10 -4 -14 -7l-11 -9q-6 -6 -7 -10q-2 -4 -2 -10q1 -3 6 -5q3 -1 11 -1zM553 510q-2 -7 0 -13q0 -3 2 -5t6 -4q2 0 3 -0.5t3 0.5h7q5 1 15 5l15 8l13 11l11 10l8 11
l6 10l3 10q1 6 0 9q0 3 -3 6q-1 2 -6 4q-2 0 -4 0.5t-4 0.5q-3 0 -11 -2q-1 0 -7 -2l-7 -3l-14 -9q-4 -2 -7 -5t-6 -5l-10 -11l-7 -11q-5 -8 -6 -15zM175 -9q-6 6 -9 15t-3 19q0 6 1 9q0 2 1 4.5t1 4.5q1 7 8 14q2 3 5.5 5.5t7.5 4.5q5 2 9.5 3t9.5 1h3q3 0 9 -2q3 0 5 -1
l4 -2q7 -4 12 -11q2 -3 4 -7q1 -2 1 -6h-19q0 3 -2 5q-1 3 -6 6t-10 3q-3 0 -5 -1h-4l-8 -6q-2 -2 -3.5 -4t-2.5 -5q-2 -5 -2 -16q0 -9 3 -16q1 -7 7 -9q3 -2 5.5 -3t5.5 -2h3q7 0 10 3q4 0 7 5q2 3 3.5 5.5t1.5 5.5h-21v16h37v-48h-12l-2 11q-3 -5 -8 -8q-3 -2 -5.5 -2.5
t-4.5 -2.5q-3 0 -5.5 -0.5t-5.5 -0.5q-9 0 -14 4q-8 3 -12 9zM1058 -110q3 -3 3 -10v-45h-17v39q0 13 -10 13q-11 0 -11 -13v-39h-17v39q0 5 -1 6q0 3 -3 6q-2 1 -6 1q-11 0 -11 -12v-40h-17v65h16v-10q7 12 19 12q8 0 11 -3q4 -2 7 -8q2 4 8 8q3 3 10 3q8 0 12 -4
q6 -3 7 -8zM464 -102q4 -3 7 -8q2 -2 2 -10v-45h-16v39q0 13 -10 13q-11 0 -11 -13v-39h-18v45q0 3 -3 6q-2 1 -7 1q-11 0 -11 -12v-40h-16v65h16v-10q6 12 19 12q7 0 10 -3q5 -2 8 -8q2 5 7 8q4 3 10 3q8 0 13 -4zM948 -107q2 -2 3 -5t3 -6q2 -4 2 -15q0 -10 -4 -17
q-3 -7 -11 -12q-7 -4 -18 -4q-13 0 -19 5q-7 5 -11 12q-3 7 -3 16t2 13q1 4 2.5 6.5t3.5 5.5q6 6 11 7q4 3 14 3q8 0 14 -3q4 -1 11 -6zM706 39q5 -6 7 -12t2 -14q0 -10 -4 -17q-3 -7 -11 -12t-18 -5q-11 0 -19 5q-6 5 -11 13q-3 7 -3 16q0 5 2 13q1 6 6 11q6 6 11 8
q4 2 14 2t15 -2q2 -2 4.5 -3t4.5 -3zM141 -100h17l-18 -62v-3h-18l-10 47l-10 -47h-18l-18 63v2h18l10 -47l9 47h18l9 -47zM347 -100l-18 -62l-1 -3h-17l-10 47l-11 -47h-17l-18 63v2h18l10 -47l9 47h18l9 -47l10 47h18zM235 -100h18l-18 -62l-1 -3h-17l-11 47l-10 -47h-18
l-17 63v2h17l11 -47l9 47h17l10 -47zM625 -100h17l-18 -62v-3h-18l-10 47l-10 -47h-18l-18 63v2h18l10 -47l9 47h17l10 -47zM174 386l6 6l4 6l6 6q1 2 5 6l36 50q3 5 6 8.5t5 8.5l12 18q3 5 6 9t5 9q3 5 5.5 9t4.5 9q1 3 0 4t-3 1q-4 0 -5 -1l-5 -3l-10 -11l-9 -12
q-5 -5 -8 -11l-9 -11l-32 -46l-15 -24q-4 -6 -7 -12l-6 -12l-2 -3q0 -1 -0.5 -1.5t-0.5 -1.5v-2q0 -1 1 -2h5zM900 -19l-4.5 -1.5t-4.5 -0.5t-9 2q-2 2 -4 3t-4 3q-3 4 -3 12q0 10 5 14q6 4 14 6l15 2q6 1 6 5q0 8 -10 8q-4 0 -8 -2q-3 -1 -4 -8h-16q1 9 4 14q2 4 9 7
q4 2 7 2h8q13 0 18 -2l4 -4t3 -4q2 -6 2 -8v-42q0 -3 4 -3v-3h-19q-1 0 -1 1v1v1q0 2 -0.5 3t-0.5 2q-2 -3 -5 -5q-2 -1 -3.5 -2t-2.5 -1zM542 -159q0 -3 3 -3v-3h-18q0 1 -1 2v1q-1 2 -1 5q-4 -4 -6 -5l-6 -3q-2 -1 -8 -1q-7 0 -9 1q-5 1 -8 7q-4 3 -4 10q0 10 6 15
q4 4 13 6l16 2q5 2 5 5q0 8 -10 8q-2 0 -4 -0.5t-4 -0.5l-2 -4t-1 -4h-16q0 7 3 13q6 6 10 7l6 2q2 0 4 0.5t4 0.5q13 0 18 -4q5 -3 8 -7q1 -3 1 -8v-35q0 -5 1 -7zM316 8h-45q0 -6 5 -11q3 -4 11 -4q3 0 7 2q4 4 4 5h18q-2 -5 -6 -11q-3 -2 -5.5 -4t-4.5 -3q-4 -1 -6.5 -2
t-6.5 -1q-32 0 -32 36q0 5 0.5 8.5t2.5 7.5q3 8 10 12q4 3 8.5 3.5t9.5 0.5q13 0 17 -4q6 -4 10 -13q2 -5 2.5 -9t0.5 -9v-4zM607 353q4 5 4 14q0 6 -2 10t-6 9q-5 5 -11 6q-6 3 -13 3q-11 0 -16 -4q-5 -2 -7.5 -4.5t-4.5 -5.5q-4 -7 -4 -14q0 -8 2 -11q4 -6 7 -9q2 -2 5 -3
t6 -3q8 -2 12 -2q11 0 16 4q6 3 12 10zM187 500q-1 -6 0 -10t6 -7l10 -3q8 0 13 1q2 0 3 1t1 2t-1 1h-3q-2 0 -2 -1q-10 -1 -17 2q-4 2 -5 4q-2 4 -2 6q0 4 1 7l4 8l10 11q2 2 5.5 4.5t6.5 4.5q4 2 7 4t7 4t7.5 3.5t7.5 3.5q4 1 7.5 2t8.5 3l16 3q10 2 15 2t13 -2
q2 -1 4.5 -1.5t4.5 -2.5l5 -7q1 -3 1 -10q0 -3 -2 -11l-6 -11q-2 -4 -8 -12q-2 -3 -5 -5.5t-6 -5.5q-2 -3 -5.5 -5.5t-6.5 -5.5l-13 -8l-14 -6l-8 -3q-3 0 -7 -2h-3q-2 0 -3 -1q-2 0 -2 -1q-2 0 -2 -2q0 -1 1 -1h3q2 0 3 1h3l15 5l15 6l15 7l15 9l13 9l12 11l10 11
q2 3 3.5 6t2.5 6q3 6 3 11q1 6 0 10q-2 6 -4 9q-4 3 -8 5q-6 3 -11 3q-5 1 -14 1q-4 0 -14 -2q-8 -1 -16 -3l-16 -4t-15.5 -5.5t-15.5 -7.5q-4 -2 -7.5 -4t-7.5 -5q-8 -5 -13 -10q-4 -3 -10 -11zM775 -132q5 -3 5 -12q0 -6 -3 -12q-4 -5 -10 -8q-4 -2 -15 -2h-6q-4 0 -6 1
q-6 2 -10 4q-6 4 -7 7q-2 6 -2 10h17q0 -9 15 -9q5 0 8 1q2 4 2 5q0 4 -7 5l-15 4q-3 1 -6.5 2.5t-5.5 3.5q-6 4 -6 12q0 6 3 11q2 4 9 8q4 3 14 3q6 0 10.5 -1t8.5 -3q6 -3 8 -8l2 -5v-5h-17q0 5 -3 7q-1 1 -8 1q-10 0 -10 -6q0 -3 6 -4l15 -4q6 -1 14 -6zM699 -101
q5 -2 7 -7q3 -6 3 -12v-45h-17v39q0 8 -2 10q-1 3 -9 3q-7 0 -10 -4q-3 -5 -3 -11v-37h-18v65h17v-10q7 12 20 12q6 0 12 -3zM783 38q3 -6 3 -12v-45h-17v39q0 4 -2 10q-3 3 -10 3t-10 -4q-2 -3 -2 -11v-37h-18v65h16v-9q7 10 20 10q9 0 12 -2zM484 -10q-3 -5 -8 -7
q-8 -4 -12 -4q-10 0 -16 7q-6 6 -6 17v43h17v-40q0 -12 11 -12q4 0 6 1t6 5q0 2 1 4t1 4v38h16v-65h-16v9zM854 -113q-8 0 -10 -5q-4 -4 -4 -13t1 -12q1 -5 4 -7q2 -2 8 -2q5 0 8 2q3 3 3 9h18q0 -5 -4 -13q-3 -5 -10 -9q-6 -3 -16 -3q-13 0 -21 7q-4 4 -7 10q-1 4 -1 15
q0 14 6 25q8 11 23 11q9 0 15 -3q7 -2 10 -9q5 -5 5 -13h-18q0 3 -2 7q-2 3 -8 3zM423 55q-2 0 -2 -2v-7h11v-12h-11v-53h-17v53h-9v12h9v5q0 18 19 18h9v-13h-5q-3 0 -4 -1zM632 46h12v-12h-12v-53h-17v53h-9v12h9v5q0 18 19 18h8v-13h-4q-4 0 -4 -1q-1 0 -2 -2v-7z
M973 -19h-11q-8 0 -11 2q-4 0 -5 4q0 2 -1 3.5t-1 3.5v40h-8v12h8v17h18v-17h11v-12h-11v-35q0 -2 0.5 -3t0.5 -2q1 0 2 -0.5t3 -0.5l3 1h2v-13zM569 492l-2 2q-1 1 -1 4q0 2 1 3q2 8 5 12q6 8 8 12l6 7l5 6l9 12q3 3 5.5 6t5.5 5l5 4l6 3q2 1 5 1q2 0 3 -2q1 -1 1 -4
q0 -2 -2 -6l-3 -5l-3 -6q-2 -4 -4 -6l-4 -6l-4 -6t-4 -5l-9 -11l-11 -11q-3 -3 -6 -4q-3 -3 -7 -4q-2 -1 -5 -1zM347 63v-17h10v-12h-10v-35q0 -4 1 -5q1 0 2.5 -0.5t3.5 -0.5l2 1h1v-13h-10q-8 0 -11 2q-4 0 -5 4q-1 2 -1 7v40h-9v12h9v17h17zM755 536q2 4 4 6l4 6
q1 2 2 3.5t2 3.5t5 6l10 14l15 18l4 5l4 4l5 3q2 1 5 1q2 1 5 1l3 -2q0 -1 0.5 -1.5t0.5 -2.5t-1 -4q0 -2 -2 -4l-9 -12l-8 -13l-9 -9l-9 -10q-2 -1 -6 -5l-7 -6q-4 -2 -6 -4q-2 -1 -3 -2t-3 -1q-4 -2 -6 -1h-1q-1 1 -1 2l1 2q0 1 1 2zM831 -19h-11q-8 0 -10 2q-5 0 -6 4v47
h-10v12h10v17h16v-17h11v-12h-11v-35q0 -2 0.5 -3t0.5 -2q2 0 3 -0.5t3 -0.5l2 1h2v-13zM593 386l2 -4t2 -5q0 -2 0.5 -4.5t0.5 -5.5q0 -6 -2 -14q-3 -6 -7 -10q-3 -2 -10 -2q-6 0 -7 2q-4 0 -7 5l-3 8q-2 6 -2 11q0 2 0.5 4.5t0.5 4.5l3 7q3 5 4 6q0 1 5 3q4 2 7 2
q1 0 1.5 -0.5t2.5 -0.5l4 -2zM533 -19h-17v88h17v-88zM562 -19h-16v88h16v-88zM511 394h-58v-2h2q5 0 6 -2q3 -2 3 -7v-32q0 -10 -9 -10h-2v-1h58v22q-2 -2 -2 -3.5t-1 -3.5l-6 -8q-3 -3 -5 -3l-5 -2q-3 -1 -7 -1h-9v24h1q7 0 11 -4l2 -3q0 -1 0.5 -1.5t0.5 -2.5q1 -2 1 -5
h1v35h-1v-5l-3 -6q-5 -6 -10 -6h-3v25h10q9 0 12 -1l5 -4l3 -6l3 -8h2v21zM693 394h-27v-2h5q0 -1 2 -1q4 -4 4 -5q2 -2 2 -8v-23l-38 39h-21v-2h1q4 0 5 -1q2 0 2.5 -1t1.5 -1q1 -2 1 -5v-31q0 -4 -1 -6q-1 -3 -4 -4q-4 -2 -7 -2v-1h28v1q-3 0 -5 1q-2 0 -2.5 0.5t-2.5 0.5
l-3 5q-1 1 -1 7v32l46 -47h2v38q0 6 3 11q1 3 9 3v2zM444 365q-3 2 -7 4l-10 4h-6l-1 1l-8 2q-2 1 -3 1t-2 1q-1 0 -3 2t-2 4q0 3 1 4q0 -1 2 3l4 2q2 0 3 0.5t3 0.5q4 0 8 -2q5 0 8 -3q4 -2 6 -4t2.5 -4.5t2.5 -5.5h2v18h-2q-1 -4 -4 -4t-5 1q-10 5 -18 5q-5 0 -11 -2
l-7 -5q-3 -5 -3 -9q0 -3 3 -6q0 -1 3 -4l7 -3q1 -1 4 -1.5t8 -2.5l4 -1q6 -2 8 -2t4 -2q1 0 2 -1q3 -3 3 -6q0 -1 -2 -5q-1 -1 -5 -4h-6q-6 0 -9 1l-10 4l-6 6q-5 7 -5 12h-2v-25h2q0 4 2 4q2 2 5 2q1 0 1 -0.5t2 -0.5q1 0 1.5 -0.5t2.5 -0.5l8 -3q2 -1 8 -1q3 0 9 2
q2 0 3.5 1t3.5 3q2 1 2 2t2 3v11zM694 0q4 4 4 13q0 10 -4 14q-3 6 -12 6t-12 -6q-4 -6 -4 -14q0 -7 4 -13q2 -6 12 -6t12 6zM935 -146q2 3 2.5 6.5t0.5 6.5q0 11 -3 15q-3 5 -12 5t-12 -5q-3 -6 -3 -15q0 -7 3 -13t12 -6t12 6zM818 389q1 2 3 2q2 1 5 1v2h-27v-2h3
q5 0 6 -1q2 -1 2 -4q0 -2 -3 -6l-11 -15l-14 18l-2 4v1q0 2 1 2q0 1 3 1h5v2h-35v-2h1q6 0 8 -1l3 -3t2 -3l17 -22v-12q0 -5 -2 -7l-4 -2t-4 -1h-3v-1h38v1h-4q-4 0 -7 3q-3 1 -3 7v13l14 19l3 4q4 2 5 2zM757 364h-1q-2 -2 -2 -3.5t-1 -3.5q-2 -2 -2 -5q-1 -1 -3 -4
q-4 -4 -7 -5q-2 -2 -8 -2h-14v42q0 5 3 7q2 2 7 2h4v2h-37v-2h3q9 0 9 -9v-32q0 -10 -9 -10h-3v-1h61v24zM387 394h-27v-2h6q1 0 1.5 -0.5t1.5 -0.5q6 -3 6 -13v-19q0 -8 -5 -13l-7 -5h-9q-7 0 -10 2q-2 0 -6 4q-2 2 -2 9v27q0 6 2 7q2 2 8 2h4v2h-37v-2h1q11 0 11 -9v-27
q0 -7 6 -13l9 -3q3 -1 11 -1t14 2q4 2 6 4q5 4 5 13v28l5 5h1l1 1h4v2zM367 480q-6 -2 -7 -2q-3 0 -7 2l9 12l10 12l4 5q2 2 3 2.5t2 2.5l6 5l7 3q5 1 8 0q1 -2 0 -6l-3 -5q-2 -2 -4 -6q-2 -2 -2.5 -3t-2.5 -2q-1 -2 -5 -6q-2 -3 -5 -5q-4 -4 -6 -5zM512 510q0 -2 0.5 -3
t0.5 -3q-1 -2 -1 -5q0 -2 -0.5 -3t-0.5 -3l-2 -5q-1 -2 -5 -6l-4 -3q-2 -2 -5 -2q-1 -1 -5 -1q-2 -2 -4 0q-2 0 -4 2v5l2 6l4 5q5 6 11 10zM888 -1q0 -5 2 -5q2 -2 6 -2h4h1l2 1q4 2 6 4q2 4 2 8v8q-3 -3 -7 -3l-8 -2q-3 0 -6 -3q-2 -1 -2 -6zM524 -133q-3 -3 -6 -3l-8 -1
l-6 -3q-3 -3 -3 -7t3 -5q2 -2 6 -2h3q1 0 1.5 0.5t1.5 0.5l6 4q2 2 2 7v9zM793 -147h18v-18h-18v18zM347 -147h18v-18h-18v18zM299 20q-2 6 -4 10q-2 2 -4 3t-5 1q-11 0 -13 -14h26zM930 655q-1 -2 -5 -6l16 22l8 13l15 20l1 1q0 2 2 2q0 1 1 1q1 1 1 0q0 -2 -2 -6l-4 -6
l-4 -5q-2 -4 -4 -5l-9 -12l-10 -12z" />
    <glyph glyph-name="plus" unicode="+" horiz-adv-x="1134" 
d="M100 588l154 33l-6 21l23 7l-5 23l24 5l-3 25l23 2v23h21l2 21l23 -3l4 23l25 -4l6 23l22 -6l9 21l23 -9l12 22l21 -11l12 20l21 -14l15 19l19 -15l16 16l15 -14l15 13l15 -17l20 13l13 -21l22 12l11 -20l21 9l10 -23l24 7l7 -22l22 5l5 -24l25 2l1 -15l231 50v-283
l-106 -23l2 -2l-13 -15l13 -16l-18 -15l13 -20l-21 -13l13 -21l-21 -12l9 -21l-23 -10l8 -24l-22 -7l4 -22l-24 -5l2 -25l-23 -2v-23h-20l-3 -21l-22 2l-5 -22l-24 4l-7 -23l-22 7l-8 -23l-24 10l-11 -22l-21 11l-13 -20l-21 13l-14 -18l-18 15l-17 -16l-15 14l-16 -14
l-14 18l-20 -13l-14 21l-21 -12l-11 20l-22 -9l-10 23l-23 -7l-7 22l-23 -5l-5 24l-24 -2l-3 23h-23v21l-20 2l2 23l-23 4l5 24l-24 7l7 22l-16 6l-141 -30v283zM715 520q6 3 11 8l12 11l1 1q-1 -1 -1 -3q0 -4 2 -8t6 -5q3 -1 11 1q10 4 14 7l12 9l4 4l4 4l8 7q-1 -1 -1 -3
q0 -1 -0.5 -1.5t-0.5 -1.5v-4q-2 -3 0 -5q0 -2 0.5 -2.5t0.5 -1.5q1 -3 4 -3q1 -1 4 -1t5 1l4 2l5 3l7 4l18 15l10 10l-3 -7q-2 -4 -2 -11v-3q2 -2 3 -2q0 -1 3 -1q1 0 5 2q2 1 3.5 1.5t3.5 2.5l6 4l6 6q2 1 6 5q3 2 5.5 5t5.5 6l10 12q1 1 1 2q-1 1 -2 1q-2 0 -4 -2l-2 -3
l-7 -8l-6 -7l-3.5 -3.5l-3.5 -3.5l-8 -7l-4 -3l-5 -2l-1 -1q-1 0 -2 1h1l4 8l2 4t3 4l4 6q2 2 4 6l36 53q6 6 8 10l9 9l21 24q5 6 9.5 12t9.5 12l6 10v5q-1 1 -5 1q-2 0 -6 -2q-2 0 -3.5 -1t-3.5 -2q-4 -2 -6 -4l-5 -4q-3 -2 -6 -4.5t-6 -5.5l-10 -11q-4 -4 -10 -12
q-2 -4 -8 -12q-5 -6 -8.5 -12t-7.5 -12l-15 -25l-11 -19l-4 -9q-1 0 -1 -1l-8 -8q-2 -3 -5 -5.5t-6 -5.5l-11 -10l-5 -4l-4 -3l-2 -1l-3 -2h-3h-2l3 6l3 5q0 1 0.5 1t0.5 1l1 1q2 4 4.5 7.5t5.5 7.5q2 4 4.5 8t5.5 8l8 12l4 7q2 2 4 6l1 1l1 1q0 1 0.5 1t0.5 1l1 1q3 2 2 4
q0 1 -4 1l-6 -2l-6 -3l-10 -7l-4 -4l-4 -4q0 4 -1 6q0 2 -4 4q-6 1 -12 0q-6 -2 -13 -5q-8 -3 -13 -7q-4 -2 -6.5 -4.5l-4.5 -4.5q-14 -11 -21 -22q-9 -11 -12 -21q-1 0 -1 -0.5t-1 -0.5q-2 -2 -4.5 -5t-5.5 -5q-4 -4 -12 -10q-3 -3 -7 -4q-4 -2 -6 -2h-2q-1 1 0 2l4 5l3 5
l7 8l12 16q3 4 6 7.5t5 8.5l5 10q2 6 1 9q0 3 -1 4q-2 2 -4 2q-3 0 -5 -1l-7 -3l-7 -4q-4 -4 -6 -5q-4 -4 -6 -5q-4 -4 -6 -5l-12 -12q-3 -3 -6 -5.5t-5 -5.5l-6 -7l-6 -6l2 3l14 20l15 21q0 1 0.5 1t0.5 1q1 1 1 2q1 2 1 4l-3 3q-1 0 -1.5 0.5t-2.5 0.5q-1 0 -2 -0.5
t-3 -0.5l-6 -3l-3 -3q-2 -1 -2 -2t-1 -2l-3 -4l-44 -76q-1 -1 -1 -4q1 0 1.5 -0.5t1.5 -0.5q3 0 5 1l5 3q0 1 2 3l2 2l3 3q0 1 2 3l10 12l11 12l10 12l12 12l12 11l5 5q2 1 6 5l6 4l7 3q1 0 1 -1h-1l-3 -3q-1 -3 -4 -4l-3 -4l-7 -8q-3 -3 -7 -9q-6 -8 -8 -12l-8 -12
q-2 -3 -4 -11q-2 -5 0 -9t5 -4q6 0 10 1q3 1 6 3t7 4zM494 471q7 1 14 5q7 3 13 9q5 3 9 10l5 10q3 6 3 11v9q0 3 -2 9l-4 9l-3 4q0 2 -2 4q0 1 -2 3v3q1 1 1 2h-5l-2 -2q-3 -1 -7 -5l-3 -7l-1 -1l-3 -4l-18 -25l-3 -4l-3 -5l-1 -1v-1q-1 0 -2 -1l-3 -5l-3 -4l-9 -11
l-12 -11q-3 -3 -7 -4q-4 -2 -7 -2h-1l1 1l4 6l4 5l4 6q2 1 4 5l5 8l5 9l3 8q1 3 1 8q-1 1 -1 4l-2 3q0 2 -1 3v13l4 6q2 5 -2 7q-3 3 -10 0q-7 -2 -9 -4q-4 -3 -6 -7t-2 -7q0 -4 1 -6l2 -2l2 -2l-3 -4l-3 -3l-14 -18l-11 -13q-1 0 -3 -2v-1l-1 -1q0 -1 -1 -1l-6 -8
l-7.5 -7.5t-8.5 -6.5q-10 -8 -19 -12q-2 -2 -5 -2.5t-6 -2.5q-8 -2 -11 -1q-4 0 -4 2q-1 1 -1 4q0 1 2 5l2 5l6 10q4 -2 7 -2q6 0 10 1q7 1 15 6q5 2 14 9l9 9q2 2 3.5 4.5t2.5 4.5l4 8q0 6 -2 8q-2 3 -5 5q-3 1 -10 1q-2 -1 -5 -1t-6 -2q-4 -1 -12 -5q-13 -6 -25 -16
q-11 -9 -17 -20q-3 -3 -7 -11q-3 -5 -4 -11v-10q1 -3 5 -7q6 -4 13 -3q8 0 16 3q9 3 18 9q9 4 18 12l14 12l8 9q0 1 2 3q0 2 2 2l2 4l9 9l9 12q3 3 5.5 6t4.5 6l4 -2l2 -3q1 -2 1 -4q0 -1 -4 -5l-9 -10l-8 -11l-7 -11l-3 -10q-1 -2 -1 -5v-4q2 -3 3 -4t4 -1q2 0 10 2l9 6
q8 6 12 10q3 2 5.5 5t4.5 5q4 4 5 6l5 6l2 3l3 3q2 2 2 3l7 9l12 17q0 -2 0.5 -4t0.5 -4q2 -6 2 -8l2 -4q-10 -4 -14 -7l-11 -9q-6 -6 -7 -10q-2 -4 -2 -10q1 -3 6 -5q3 -1 11 -1zM553 510q-2 -7 0 -13q0 -3 2 -5t6 -4q2 0 3 -0.5t3 0.5h7q5 1 15 5l15 8l13 11l11 10l8 11
l6 10l3 10q1 6 0 9q0 3 -3 6q-1 2 -6 4q-2 0 -4 0.5t-4 0.5q-3 0 -11 -2q-1 0 -7 -2l-7 -3l-14 -9q-4 -2 -7 -5t-6 -5l-10 -11l-7 -11q-5 -8 -6 -15zM175 -9q-6 6 -9 15t-3 19q0 6 1 9q0 2 1 4.5t1 4.5q1 7 8 14q2 3 5.5 5.5t7.5 4.5q5 2 9.5 3t9.5 1h3q3 0 9 -2q3 0 5 -1
l4 -2q7 -4 12 -11q2 -3 4 -7q1 -2 1 -6h-19q0 3 -2 5q-1 3 -6 6t-10 3q-3 0 -5 -1h-4l-8 -6q-2 -2 -3.5 -4t-2.5 -5q-2 -5 -2 -16q0 -9 3 -16q1 -7 7 -9q3 -2 5.5 -3t5.5 -2h3q7 0 10 3q4 0 7 5q2 3 3.5 5.5t1.5 5.5h-21v16h37v-48h-12l-2 11q-3 -5 -8 -8q-3 -2 -5.5 -2.5
t-4.5 -2.5q-3 0 -5.5 -0.5t-5.5 -0.5q-9 0 -14 4q-8 3 -12 9zM1058 -110q3 -3 3 -10v-45h-17v39q0 13 -10 13q-11 0 -11 -13v-39h-17v39q0 5 -1 6q0 3 -3 6q-2 1 -6 1q-11 0 -11 -12v-40h-17v65h16v-10q7 12 19 12q8 0 11 -3q4 -2 7 -8q2 4 8 8q3 3 10 3q8 0 12 -4
q6 -3 7 -8zM464 -102q4 -3 7 -8q2 -2 2 -10v-45h-16v39q0 13 -10 13q-11 0 -11 -13v-39h-18v45q0 3 -3 6q-2 1 -7 1q-11 0 -11 -12v-40h-16v65h16v-10q6 12 19 12q7 0 10 -3q5 -2 8 -8q2 5 7 8q4 3 10 3q8 0 13 -4zM948 -107q2 -2 3 -5t3 -6q2 -4 2 -15q0 -10 -4 -17
q-3 -7 -11 -12q-7 -4 -18 -4q-13 0 -19 5q-7 5 -11 12q-3 7 -3 16t2 13q1 4 2.5 6.5t3.5 5.5q6 6 11 7q4 3 14 3q8 0 14 -3q4 -1 11 -6zM706 39q5 -6 7 -12t2 -14q0 -10 -4 -17q-3 -7 -11 -12t-18 -5q-11 0 -19 5q-6 5 -11 13q-3 7 -3 16q0 5 2 13q1 6 6 11q6 6 11 8
q4 2 14 2t15 -2q2 -2 4.5 -3t4.5 -3zM141 -100h17l-18 -62v-3h-18l-10 47l-10 -47h-18l-18 63v2h18l10 -47l9 47h18l9 -47zM347 -100l-18 -62l-1 -3h-17l-10 47l-11 -47h-17l-18 63v2h18l10 -47l9 47h18l9 -47l10 47h18zM235 -100h18l-18 -62l-1 -3h-17l-11 47l-10 -47h-18
l-17 63v2h17l11 -47l9 47h17l10 -47zM625 -100h17l-18 -62v-3h-18l-10 47l-10 -47h-18l-18 63v2h18l10 -47l9 47h17l10 -47zM174 386l6 6l4 6l6 6q1 2 5 6l36 50q3 5 6 8.5t5 8.5l12 18q3 5 6 9t5 9q3 5 5.5 9t4.5 9q1 3 0 4t-3 1q-4 0 -5 -1l-5 -3l-10 -11l-9 -12
q-5 -5 -8 -11l-9 -11l-32 -46l-15 -24q-4 -6 -7 -12l-6 -12l-2 -3q0 -1 -0.5 -1.5t-0.5 -1.5v-2q0 -1 1 -2h5zM900 -19l-4.5 -1.5t-4.5 -0.5t-9 2q-2 2 -4 3t-4 3q-3 4 -3 12q0 10 5 14q6 4 14 6l15 2q6 1 6 5q0 8 -10 8q-4 0 -8 -2q-3 -1 -4 -8h-16q1 9 4 14q2 4 9 7
q4 2 7 2h8q13 0 18 -2l4 -4t3 -4q2 -6 2 -8v-42q0 -3 4 -3v-3h-19q-1 0 -1 1v1v1q0 2 -0.5 3t-0.5 2q-2 -3 -5 -5q-2 -1 -3.5 -2t-2.5 -1zM542 -159q0 -3 3 -3v-3h-18q0 1 -1 2v1q-1 2 -1 5q-4 -4 -6 -5l-6 -3q-2 -1 -8 -1q-7 0 -9 1q-5 1 -8 7q-4 3 -4 10q0 10 6 15
q4 4 13 6l16 2q5 2 5 5q0 8 -10 8q-2 0 -4 -0.5t-4 -0.5l-2 -4t-1 -4h-16q0 7 3 13q6 6 10 7l6 2q2 0 4 0.5t4 0.5q13 0 18 -4q5 -3 8 -7q1 -3 1 -8v-35q0 -5 1 -7zM316 8h-45q0 -6 5 -11q3 -4 11 -4q3 0 7 2q4 4 4 5h18q-2 -5 -6 -11q-3 -2 -5.5 -4t-4.5 -3q-4 -1 -6.5 -2
t-6.5 -1q-32 0 -32 36q0 5 0.5 8.5t2.5 7.5q3 8 10 12q4 3 8.5 3.5t9.5 0.5q13 0 17 -4q6 -4 10 -13q2 -5 2.5 -9t0.5 -9v-4zM607 353q4 5 4 14q0 6 -2 10t-6 9q-5 5 -11 6q-6 3 -13 3q-11 0 -16 -4q-5 -2 -7.5 -4.5t-4.5 -5.5q-4 -7 -4 -14q0 -8 2 -11q4 -6 7 -9q2 -2 5 -3
t6 -3q8 -2 12 -2q11 0 16 4q6 3 12 10zM187 500q-1 -6 0 -10t6 -7l10 -3q8 0 13 1q2 0 3 1t1 2t-1 1h-3q-2 0 -2 -1q-10 -1 -17 2q-4 2 -5 4q-2 4 -2 6q0 4 1 7l4 8l10 11q2 2 5.5 4.5t6.5 4.5q4 2 7 4t7 4t7.5 3.5t7.5 3.5q4 1 7.5 2t8.5 3l16 3q10 2 15 2t13 -2
q2 -1 4.5 -1.5t4.5 -2.5l5 -7q1 -3 1 -10q0 -3 -2 -11l-6 -11q-2 -4 -8 -12q-2 -3 -5 -5.5t-6 -5.5q-2 -3 -5.5 -5.5t-6.5 -5.5l-13 -8l-14 -6l-8 -3q-3 0 -7 -2h-3q-2 0 -3 -1q-2 0 -2 -1q-2 0 -2 -2q0 -1 1 -1h3q2 0 3 1h3l15 5l15 6l15 7l15 9l13 9l12 11l10 11
q2 3 3.5 6t2.5 6q3 6 3 11q1 6 0 10q-2 6 -4 9q-4 3 -8 5q-6 3 -11 3q-5 1 -14 1q-4 0 -14 -2q-8 -1 -16 -3l-16 -4t-15.5 -5.5t-15.5 -7.5q-4 -2 -7.5 -4t-7.5 -5q-8 -5 -13 -10q-4 -3 -10 -11zM775 -132q5 -3 5 -12q0 -6 -3 -12q-4 -5 -10 -8q-4 -2 -15 -2h-6q-4 0 -6 1
q-6 2 -10 4q-6 4 -7 7q-2 6 -2 10h17q0 -9 15 -9q5 0 8 1q2 4 2 5q0 4 -7 5l-15 4q-3 1 -6.5 2.5t-5.5 3.5q-6 4 -6 12q0 6 3 11q2 4 9 8q4 3 14 3q6 0 10.5 -1t8.5 -3q6 -3 8 -8l2 -5v-5h-17q0 5 -3 7q-1 1 -8 1q-10 0 -10 -6q0 -3 6 -4l15 -4q6 -1 14 -6zM699 -101
q5 -2 7 -7q3 -6 3 -12v-45h-17v39q0 8 -2 10q-1 3 -9 3q-7 0 -10 -4q-3 -5 -3 -11v-37h-18v65h17v-10q7 12 20 12q6 0 12 -3zM783 38q3 -6 3 -12v-45h-17v39q0 4 -2 10q-3 3 -10 3t-10 -4q-2 -3 -2 -11v-37h-18v65h16v-9q7 10 20 10q9 0 12 -2zM484 -10q-3 -5 -8 -7
q-8 -4 -12 -4q-10 0 -16 7q-6 6 -6 17v43h17v-40q0 -12 11 -12q4 0 6 1t6 5q0 2 1 4t1 4v38h16v-65h-16v9zM854 -113q-8 0 -10 -5q-4 -4 -4 -13t1 -12q1 -5 4 -7q2 -2 8 -2q5 0 8 2q3 3 3 9h18q0 -5 -4 -13q-3 -5 -10 -9q-6 -3 -16 -3q-13 0 -21 7q-4 4 -7 10q-1 4 -1 15
q0 14 6 25q8 11 23 11q9 0 15 -3q7 -2 10 -9q5 -5 5 -13h-18q0 3 -2 7q-2 3 -8 3zM423 55q-2 0 -2 -2v-7h11v-12h-11v-53h-17v53h-9v12h9v5q0 18 19 18h9v-13h-5q-3 0 -4 -1zM632 46h12v-12h-12v-53h-17v53h-9v12h9v5q0 18 19 18h8v-13h-4q-4 0 -4 -1q-1 0 -2 -2v-7z
M973 -19h-11q-8 0 -11 2q-4 0 -5 4q0 2 -1 3.5t-1 3.5v40h-8v12h8v17h18v-17h11v-12h-11v-35q0 -2 0.5 -3t0.5 -2q1 0 2 -0.5t3 -0.5l3 1h2v-13zM569 492l-2 2q-1 1 -1 4q0 2 1 3q2 8 5 12q6 8 8 12l6 7l5 6l9 12q3 3 5.5 6t5.5 5l5 4l6 3q2 1 5 1q2 0 3 -2q1 -1 1 -4
q0 -2 -2 -6l-3 -5l-3 -6q-2 -4 -4 -6l-4 -6l-4 -6t-4 -5l-9 -11l-11 -11q-3 -3 -6 -4q-3 -3 -7 -4q-2 -1 -5 -1zM347 63v-17h10v-12h-10v-35q0 -4 1 -5q1 0 2.5 -0.5t3.5 -0.5l2 1h1v-13h-10q-8 0 -11 2q-4 0 -5 4q-1 2 -1 7v40h-9v12h9v17h17zM755 536q2 4 4 6l4 6
q1 2 2 3.5t2 3.5t5 6l10 14l15 18l4 5l4 4l5 3q2 1 5 1q2 1 5 1l3 -2q0 -1 0.5 -1.5t0.5 -2.5t-1 -4q0 -2 -2 -4l-9 -12l-8 -13l-9 -9l-9 -10q-2 -1 -6 -5l-7 -6q-4 -2 -6 -4q-2 -1 -3 -2t-3 -1q-4 -2 -6 -1h-1q-1 1 -1 2l1 2q0 1 1 2zM831 -19h-11q-8 0 -10 2q-5 0 -6 4v47
h-10v12h10v17h16v-17h11v-12h-11v-35q0 -2 0.5 -3t0.5 -2q2 0 3 -0.5t3 -0.5l2 1h2v-13zM593 386l2 -4t2 -5q0 -2 0.5 -4.5t0.5 -5.5q0 -6 -2 -14q-3 -6 -7 -10q-3 -2 -10 -2q-6 0 -7 2q-4 0 -7 5l-3 8q-2 6 -2 11q0 2 0.5 4.5t0.5 4.5l3 7q3 5 4 6q0 1 5 3q4 2 7 2
q1 0 1.5 -0.5t2.5 -0.5l4 -2zM533 -19h-17v88h17v-88zM562 -19h-16v88h16v-88zM511 394h-58v-2h2q5 0 6 -2q3 -2 3 -7v-32q0 -10 -9 -10h-2v-1h58v22q-2 -2 -2 -3.5t-1 -3.5l-6 -8q-3 -3 -5 -3l-5 -2q-3 -1 -7 -1h-9v24h1q7 0 11 -4l2 -3q0 -1 0.5 -1.5t0.5 -2.5q1 -2 1 -5
h1v35h-1v-5l-3 -6q-5 -6 -10 -6h-3v25h10q9 0 12 -1l5 -4l3 -6l3 -8h2v21zM693 394h-27v-2h5q0 -1 2 -1q4 -4 4 -5q2 -2 2 -8v-23l-38 39h-21v-2h1q4 0 5 -1q2 0 2.5 -1t1.5 -1q1 -2 1 -5v-31q0 -4 -1 -6q-1 -3 -4 -4q-4 -2 -7 -2v-1h28v1q-3 0 -5 1q-2 0 -2.5 0.5t-2.5 0.5
l-3 5q-1 1 -1 7v32l46 -47h2v38q0 6 3 11q1 3 9 3v2zM444 365q-3 2 -7 4l-10 4h-6l-1 1l-8 2q-2 1 -3 1t-2 1q-1 0 -3 2t-2 4q0 3 1 4q0 -1 2 3l4 2q2 0 3 0.5t3 0.5q4 0 8 -2q5 0 8 -3q4 -2 6 -4t2.5 -4.5t2.5 -5.5h2v18h-2q-1 -4 -4 -4t-5 1q-10 5 -18 5q-5 0 -11 -2
l-7 -5q-3 -5 -3 -9q0 -3 3 -6q0 -1 3 -4l7 -3q1 -1 4 -1.5t8 -2.5l4 -1q6 -2 8 -2t4 -2q1 0 2 -1q3 -3 3 -6q0 -1 -2 -5q-1 -1 -5 -4h-6q-6 0 -9 1l-10 4l-6 6q-5 7 -5 12h-2v-25h2q0 4 2 4q2 2 5 2q1 0 1 -0.5t2 -0.5q1 0 1.5 -0.5t2.5 -0.5l8 -3q2 -1 8 -1q3 0 9 2
q2 0 3.5 1t3.5 3q2 1 2 2t2 3v11zM694 0q4 4 4 13q0 10 -4 14q-3 6 -12 6t-12 -6q-4 -6 -4 -14q0 -7 4 -13q2 -6 12 -6t12 6zM935 -146q2 3 2.5 6.5t0.5 6.5q0 11 -3 15q-3 5 -12 5t-12 -5q-3 -6 -3 -15q0 -7 3 -13t12 -6t12 6zM818 389q1 2 3 2q2 1 5 1v2h-27v-2h3
q5 0 6 -1q2 -1 2 -4q0 -2 -3 -6l-11 -15l-14 18l-2 4v1q0 2 1 2q0 1 3 1h5v2h-35v-2h1q6 0 8 -1l3 -3t2 -3l17 -22v-12q0 -5 -2 -7l-4 -2t-4 -1h-3v-1h38v1h-4q-4 0 -7 3q-3 1 -3 7v13l14 19l3 4q4 2 5 2zM757 364h-1q-2 -2 -2 -3.5t-1 -3.5q-2 -2 -2 -5q-1 -1 -3 -4
q-4 -4 -7 -5q-2 -2 -8 -2h-14v42q0 5 3 7q2 2 7 2h4v2h-37v-2h3q9 0 9 -9v-32q0 -10 -9 -10h-3v-1h61v24zM387 394h-27v-2h6q1 0 1.5 -0.5t1.5 -0.5q6 -3 6 -13v-19q0 -8 -5 -13l-7 -5h-9q-7 0 -10 2q-2 0 -6 4q-2 2 -2 9v27q0 6 2 7q2 2 8 2h4v2h-37v-2h1q11 0 11 -9v-27
q0 -7 6 -13l9 -3q3 -1 11 -1t14 2q4 2 6 4q5 4 5 13v28l5 5h1l1 1h4v2zM367 480q-6 -2 -7 -2q-3 0 -7 2l9 12l10 12l4 5q2 2 3 2.5t2 2.5l6 5l7 3q5 1 8 0q1 -2 0 -6l-3 -5q-2 -2 -4 -6q-2 -2 -2.5 -3t-2.5 -2q-1 -2 -5 -6q-2 -3 -5 -5q-4 -4 -6 -5zM512 510q0 -2 0.5 -3
t0.5 -3q-1 -2 -1 -5q0 -2 -0.5 -3t-0.5 -3l-2 -5q-1 -2 -5 -6l-4 -3q-2 -2 -5 -2q-1 -1 -5 -1q-2 -2 -4 0q-2 0 -4 2v5l2 6l4 5q5 6 11 10zM888 -1q0 -5 2 -5q2 -2 6 -2h4h1l2 1q4 2 6 4q2 4 2 8v8q-3 -3 -7 -3l-8 -2q-3 0 -6 -3q-2 -1 -2 -6zM524 -133q-3 -3 -6 -3l-8 -1
l-6 -3q-3 -3 -3 -7t3 -5q2 -2 6 -2h3q1 0 1.5 0.5t1.5 0.5l6 4q2 2 2 7v9zM793 -147h18v-18h-18v18zM347 -147h18v-18h-18v18zM299 20q-2 6 -4 10q-2 2 -4 3t-5 1q-11 0 -13 -14h26zM930 655q-1 -2 -5 -6l16 22l8 13l15 20l1 1q0 2 2 2q0 1 1 1q1 1 1 0q0 -2 -2 -6l-4 -6
l-4 -5q-2 -4 -4 -5l-9 -12l-10 -12z" />
    <glyph glyph-name="comma" unicode="," horiz-adv-x="233" 
d="M128 23q-32 0 -41 13.5t0 30t33 30.5t56 14q38 0 43 -19t-13 -38q-2 -5 -6 -9q-16 -21 -40 -42t-50 -38q-38 -22 -80 -33q-8 -1 -9.5 3t3.5 9q4 5 12.5 7t13.5 5q29 13 48.5 30.5t34.5 36.5h-5z" />
    <glyph glyph-name="hyphen" unicode="-" horiz-adv-x="516" 
d="M500 230h-258q-5 0 -9 -0.5t-8 0.5q-11 0 -13.5 4.5t0.5 10.5t11 10.5t19 4.5q14 2 27 1t25 -1h206q5 0 9 0.5t7 -0.5q11 0 13.5 -4.5t-0.5 -10.5t-11 -10.5t-18 -4.5z" />
    <glyph glyph-name="period" unicode="." horiz-adv-x="228" 
d="M126 29q-32 0 -40.5 13.5t0.5 30t32.5 30.5t55.5 14t40.5 -14t-0.5 -30.5t-32.5 -30t-55.5 -13.5z" />
    <glyph glyph-name="slash" unicode="/" horiz-adv-x="957" 
d="M-68 -82q-18 0 -15 9.5t15 17.5q14 8 26 14l99 59l359 205q214 124 426.5 245.5t426.5 245.5q58 32 114.5 65t113.5 66l14 7q10 6 18.5 6t12.5 -4t2.5 -10t-11.5 -12l-55 -32l-735 -421l-734 -422q-5 -3 -14.5 -9.5t-20.5 -13t-22 -11.5t-20 -5z" />
    <glyph glyph-name="zero" unicode="0" horiz-adv-x="813" 
d="M258 364q69 75 160 142.5t199 124.5q44 24 101.5 49.5t116 42t112 19t90.5 -21.5q32 -22 39 -56t1 -68q-5 -38 -20 -76.5t-40 -77.5q-34 -55 -84.5 -108.5t-113.5 -103.5q-66 -52 -140 -98.5t-158 -85.5q-34 -16 -72 -31.5t-77.5 -27t-78.5 -17.5t-74 -1q-40 5 -61.5 23
t-30.5 42t-8 51.5t7 52.5q13 56 47 113t85 113zM360 345q-35 -38 -68.5 -77.5t-61.5 -79.5q-24 -35 -41.5 -72t-12.5 -69q3 -26 27 -42.5t72 -12.5q52 3 105.5 24.5t98.5 47.5q100 57 179.5 126.5t145.5 138.5q54 56 104 113.5t85 115.5q11 19 20 39.5t12 40t-2 37t-22 29.5
q-18 12 -42.5 14t-53 -2t-57.5 -13.5t-56 -20.5q-71 -30 -130.5 -71t-110.5 -83q-54 -45 -101 -90.5t-90 -92.5z" />
    <glyph glyph-name="one" unicode="1" horiz-adv-x="465" 
d="M162 220q52 21 101 47.5t96 53.5q54 31 105.5 63.5t102.5 66.5q38 26 75.5 52t73.5 53q28 23 56.5 46t57.5 46l82 63q1 1 2 1l1 1l10 8q5 4 10 7q7 6 17 6.5t11 -5.5q2 -5 -5.5 -11t-12.5 -11l-82 -81l-158 -157l-157 -157q-78 -78 -156 -157q-33 -33 -65 -67.5
t-73 -66.5q-16 -13 -35.5 -25.5t-39.5 -22.5q-20 -8 -32 -3.5t-10 16.5q3 16 11.5 32.5t21 32.5t27.5 32t31 32q70 69 144 138q46 43 93.5 86t96.5 85q-2 -1 -3.5 -2t-3.5 -2q-54 -35 -109 -69.5t-114 -66.5q-33 -18 -65 -34.5t-67 -32.5l-22 -11q-14 -7 -23 -3q-6 3 -3.5 8
t10.5 9z" />
    <glyph glyph-name="two" unicode="2" horiz-adv-x="668" 
d="M419 207q-40 1 -61.5 14t-29.5 32.5t-5 44t13 50t24.5 50.5t28.5 45q25 36 59 73.5t76.5 72t93 65t108.5 53.5q50 19 103.5 29.5t102.5 8.5q55 -3 81 -28t21 -62q-4 -36 -27.5 -75t-58 -77.5t-76.5 -75t-84 -69.5q-93 -72 -201 -136t-227 -118q-41 -19 -81.5 -36
t-83.5 -32q24 4 48 7t47 5q22 1 46 0.5t43.5 -5t33 -13.5t16.5 -24q2 -4 0.5 -12t-3.5 -13q-5 -8 -14.5 -12.5t-19.5 -5.5t-18 1.5t-9 9.5q-1 -2 -7.5 -1.5t-15 1.5t-15.5 2.5t-9 1.5q-21 5 -44.5 8t-48.5 5q-50 5 -102.5 2.5t-106.5 -13.5l-31 -8q-4 -1 -8 -1
q-7 -2 -13.5 -2.5t-10.5 3.5q-5 5 0.5 11.5t16.5 8.5l4 2l3 1q6 2 13 2.5t15 2.5q16 4 33 8.5t34 9.5q60 18 118 43t112 54q109 57 204.5 123.5t179.5 137.5q87 72 159 150q13 15 29.5 34.5t29 39.5t17.5 38.5t-4 32.5q-9 13 -34 15.5t-50 1.5q-36 -2 -72.5 -11t-70.5 -23
q-73 -31 -131 -75t-103 -90q-21 -23 -40 -48t-33 -49.5t-21.5 -49t-7.5 -47.5q0 -20 11.5 -38.5t44.5 -23.5q9 -1 20.5 -0.5t15.5 -5.5q5 -6 -5.5 -13.5t-21.5 -6.5z" />
    <glyph glyph-name="three" unicode="3" horiz-adv-x="698" 
d="M665 708q3 0 7 0.5t8 0.5q11 0 18 -2t16 -4q29 -7 63.5 -8.5t67.5 -2.5q37 -1 75 0.5t76 3.5q18 2 34.5 3.5t33.5 3.5q5 0 13.5 2t17.5 3.5t16.5 1.5t10.5 -2q4 -4 -7 -12.5t-27 -18t-32 -17.5l-22 -11l-134 -72q-55 -28 -109.5 -54.5t-110.5 -52.5q40 -1 73.5 -10.5
t53.5 -26.5q29 -24 30 -57t-16 -68q-18 -37 -49 -73t-72 -69t-89.5 -63t-101.5 -54q-77 -36 -163.5 -57.5t-166.5 -23.5q-56 -2 -96 12.5t-53 46.5q-12 32 5 70.5t49 75.5q32 36 75 70t95 61q23 13 49.5 23.5t53.5 18.5q11 2 26 5t24 1q12 -4 3 -10.5t-18 -11.5
q-54 -23 -95 -58.5t-70 -67.5q-17 -18 -32.5 -36.5t-27.5 -37.5t-19 -38t-7 -36q0 -27 26 -40t64 -17q51 -5 108 10t107 40q53 26 97.5 60t78.5 71.5t56 76.5t30 74q4 15 6 30.5t-1 29t-12.5 25t-28.5 19.5q-9 4 -20 6l-22 4q-7 2 -13.5 3t-4.5 7q2 5 10 9.5t13 7.5l22 12
q11 6 21 12q90 50 183.5 97.5t190.5 90.5q-63 -10 -125.5 -21.5t-123.5 -16.5q-43 -4 -86.5 -4t-75.5 10q-13 5 -21 13t-5 19q1 5 6.5 9.5t13 8t15.5 5t15 1.5z" />
    <glyph glyph-name="four" unicode="4" horiz-adv-x="698" 
d="M848 574q-23 -35 -62 -64.5t-84 -56.5q-52 -32 -104 -63.5t-106 -62.5q-80 -46 -162 -90.5t-170 -84.5q93 13 184.5 24t182.5 19q41 44 83.5 87t87.5 86q54 54 109.5 106t110.5 105l63 61q17 17 34.5 33.5t33.5 33.5q5 7 14 13t22 4q8 -2 9.5 -7.5t-5.5 -11.5
q-39 -36 -73 -73.5t-66 -74.5q-36 -42 -71 -82t-70 -82q-31 -35 -60.5 -71t-61.5 -72l-36 -45q12 1 24 1.5t23 0.5q5 0 11 0.5t10 -2.5q7 -5 -2 -11t-19 -8q-16 -2 -33 -2t-32 -1l-33 -40q-11 -13 -21 -26t-19 -26q-14 -17 -29 -33.5t-31 -33.5q-11 -12 -25.5 -29t-36.5 -26
q-18 -8 -35.5 -7t-22.5 12q-3 6 -1.5 14.5t5 17.5t8.5 17.5t9 15.5q18 34 46.5 67.5t58.5 65.5q-64 -6 -126 -13t-125 -15l-123 -16l-28 -5q-16 -3 -24 0q-5 1 -5 4t2.5 6t7 6t7.5 6q82 55 168 111q69 45 137.5 90.5t138.5 90.5q29 20 59 39.5t61 38.5q52 34 108 59
q14 5 29.5 11.5t30.5 8.5q16 3 24 -3.5t0 -16.5z" />
    <glyph glyph-name="five" unicode="5" horiz-adv-x="623" 
d="M1041 683q-16 -18 -40 -31.5t-52 -21.5t-56.5 -11t-52.5 0q-53 6 -88 31q-13 8 -22.5 17.5t-20.5 18.5l-206 -222q45 5 87 9.5t82 -3.5q47 -10 70 -35.5t25 -58.5q2 -35 -15 -72t-47.5 -74.5t-72 -72.5t-87.5 -65q-48 -31 -104 -57.5t-113 -42t-113 -18t-104 14.5
q-46 16 -55.5 46.5t4 66.5t45 73.5t68.5 68.5q17 15 38 31t44.5 31t49 27.5t52.5 19.5q11 3 16 -2.5t-5 -11.5q-6 -5 -13.5 -9.5t-12.5 -9.5q-21 -16 -38.5 -33t-33.5 -34q-75 -74 -121 -153q-11 -18 -16.5 -35.5t-2 -32t18 -24.5t43.5 -13q57 -6 111 11.5t101 47.5t85.5 66
t64.5 68q32 38 57 77.5t36 77.5q6 17 7 33t-4.5 29.5t-19 24t-36.5 15.5q-21 5 -47 6t-53 -4q-5 -1 -13 -2t-14 -1t-7.5 2.5t4.5 9.5l34 36l140 150l48 53q3 2 5.5 5t4.5 5q7 7 13.5 7.5t12.5 -2.5t11 -7t8 -5q36 -18 85.5 -23t106.5 6q4 1 26 6t43.5 8t35.5 1.5t3 -13.5z
" />
    <glyph glyph-name="six" unicode="6" horiz-adv-x="615" 
d="M1023 707q-160 -40 -298.5 -112t-256.5 -160q45 23 94.5 37.5t97.5 16.5q29 1 50 -5.5t35 -17.5t21.5 -26t10.5 -31q6 -34 -5 -71.5t-35 -76t-60 -75.5t-81 -70q-42 -30 -93.5 -57.5t-107 -47.5t-112.5 -31t-110 -8q-59 3 -82.5 28t-24 60t15 74t34.5 71q48 78 127.5 152
t178.5 140q70 48 148.5 89t164.5 73q45 17 91 30.5t94 22.5q23 5 44 8t43 5q9 1 19.5 1.5t11.5 -5.5q2 -4 -2.5 -8t-12.5 -6zM239 236q-17 -17 -39 -41t-41.5 -50.5t-33 -52.5t-13.5 -47.5t16.5 -36t57.5 -16.5q55 -3 106 12t96.5 41t84.5 58.5t69 62.5q34 36 65.5 73
t57.5 75q10 16 20.5 33t17.5 34.5t8 33.5t-7 30t-27 19.5t-43 5t-50.5 -6t-50.5 -13.5q-35 -12 -66.5 -28t-60.5 -35q-46 -38 -87.5 -75.5t-79.5 -75.5z" />
    <glyph glyph-name="seven" unicode="7" horiz-adv-x="624" 
d="M569 716q10 1 21 -7.5t16 -11.5q18 -11 36.5 -18.5t43.5 -12.5q51 -8 111 -4t120 14q27 5 55.5 10.5t56.5 14.5q23 8 30.5 0.5t-13.5 -20.5q-45 -27 -84 -55.5t-77 -57.5q-131 -99 -260 -198t-254 -201q-47 -37 -90.5 -73.5t-88.5 -74.5q-12 -11 -25.5 -23t-28.5 -23
q-8 -6 -18 -8t-15 3q-7 5 0 12t12 14q14 14 27.5 27t28.5 27q38 38 79 74.5t83 73.5q72 63 148 123.5t155 120.5q75 55 154.5 106.5t160.5 102.5l9 6q-7 -2 -13 -4t-13 -4q-32 -10 -65 -18.5t-65 -15.5q-60 -14 -118.5 -19t-109.5 5q-21 4 -41 11.5t-33.5 19t-18.5 26
t3 32.5q5 17 31 20z" />
    <glyph glyph-name="eight" unicode="8" horiz-adv-x="674" 
d="M687 405q29 -22 35 -55t-5 -68q-13 -37 -40.5 -74.5t-67 -72t-89.5 -64.5t-107 -53q-50 -20 -106 -34t-107 -13q-33 -2 -61 3.5t-47 19.5q-31 22 -37 55t7 68q13 37 40.5 74t67 71.5t89.5 64.5t107 53q36 14 75.5 26t77.5 18q-30 20 -32.5 54.5t23.5 69.5
q20 28 52.5 56.5t73 53.5t86.5 44t93 30q55 13 93.5 4.5t57 -30t17.5 -51.5t-23 -61q-20 -28 -51.5 -55t-70.5 -50.5t-83.5 -42t-90.5 -29.5q6 -2 12 -5.5t11 -6.5zM243 -4q52 13 96 39t80 54q45 35 85 72t72 75q14 16 27.5 33.5t23 35.5t14 35t0.5 32q-6 20 -28.5 28
t-54.5 6l-24 -4q-52 -12 -95.5 -38.5t-79.5 -54.5q-45 -35 -85 -72t-73 -75q-14 -16 -26.5 -33.5t-22 -35t-14 -34.5t-1.5 -32q7 -22 33 -29.5t61 -3.5q6 0 12 2zM594 541q-8 -12 -17.5 -25.5t-16.5 -27t-8.5 -26t6.5 -21.5q9 -11 28 -13h20q21 2 44.5 10.5t42.5 18.5
q58 32 96 74.5t65 82.5q12 18 26 37t16 36q1 14 -9.5 20.5t-27 7t-36.5 -3.5t-38 -11q-67 -26 -114.5 -71.5t-76.5 -87.5z" />
    <glyph glyph-name="nine" unicode="9" horiz-adv-x="674" 
d="M20 -8q158 39 295.5 110.5t255.5 158.5q-45 -22 -92.5 -36.5t-95.5 -15.5q-29 -1 -50 5.5t-35 18t-21.5 26t-10.5 30.5q-6 34 4.5 72t34.5 76t60.5 75t81.5 70q42 31 93 58t106.5 47t113 31t110.5 8q60 -3 83.5 -28t24 -60t-15.5 -74t-35 -71q-48 -78 -127 -152
t-179 -140q-70 -47 -148.5 -88.5t-164.5 -73.5q-45 -17 -91 -30t-92 -22q-23 -5 -45 -8t-45 -5q-8 -1 -18 -1.5t-14 5.5q0 9 17 14zM804 462q17 17 39 41t41.5 50.5t33 52.5t13.5 47.5t-16.5 35.5t-57.5 17q-55 3 -106.5 -12t-97 -41t-84 -58t-68.5 -63q-35 -36 -66 -73
t-57 -75q-11 -16 -21.5 -33t-17 -34.5t-7.5 -33.5t7 -29q8 -14 27 -19.5t43 -5t50.5 6t50.5 13.5q67 22 124 61q93 75 170 152z" />
    <glyph glyph-name="colon" unicode=":" horiz-adv-x="318" 
d="M129 29q-43 0 -54 17t0 39q13 21 43 39t73 18q41 0 53 -18t-1 -39q-11 -22 -42 -39t-72 -17zM375 353q-43 0 -53 17.5t1 38.5q12 21 41.5 39t72.5 18q41 0 53 -18t-1 -39q-11 -21 -42 -38.5t-72 -17.5z" />
    <glyph glyph-name="semicolon" unicode=";" horiz-adv-x="323" 
d="M206 40q-19 -15 -39 -28q-18 -10 -37.5 -18.5t-40.5 -13.5q-8 -1 -20.5 -2.5t-21.5 0t-10 8t14 21.5q10 10 16 13.5t9.5 4t6.5 0t6 1.5h1q3 1 6.5 2.5t6.5 3.5q-23 6 -27.5 21t4.5 32q12 21 42 39t73 18q41 0 52.5 -18t-1.5 -39q-2 -2 -2.5 -4t-2.5 -4l-2 -4q-1 -2 -3 -4
v1q-11 -15 -30 -30zM375 353q-43 0 -53 17.5t1 38.5q12 21 41.5 39t72.5 18q41 0 53 -18t-1 -39q-11 -21 -42 -38.5t-72 -17.5z" />
    <glyph glyph-name="less" unicode="&#x3c;" horiz-adv-x="452" 
d="M555 423q15 0 14 -9t-15 -14q-5 -2 -10.5 -5t-12.5 -5q-23 -11 -47 -21.5t-49 -21.5l-154 -69q17 -23 35.5 -46.5t37.5 -46.5l8 -12q4 -5 0 -9.5t-11 -7.5t-14.5 -3.5t-10.5 4.5q-8 10 -15.5 19.5t-16.5 18.5q-10 15 -22 29.5t-23 28.5q-3 3 -7 7.5t-6 9.5t0 9.5t13 9.5
q48 22 95 43t97 43l74 32q7 4 19 10t21 6z" />
    <glyph glyph-name="equal" unicode="=" horiz-adv-x="536" 
d="M537 270h-258q-5 0 -9.5 -0.5t-6.5 0.5q-11 0 -13.5 4.5t0.5 10.5t10.5 10.5t18.5 4.5q13 2 26.5 1t26.5 -1h205q5 0 9 0.5t8 -0.5q10 0 13 -4.5t0 -10.5t-11 -10.5t-19 -4.5zM479 190h-258q-5 0 -10 -0.5t-7 0.5q-11 0 -13.5 4.5t0.5 10.5t11 10.5t19 4.5q12 2 26 1
t26 -1h206q5 0 9 0.5t7 -0.5q11 0 13.5 -4.5t-0.5 -10.5t-11 -10.5t-18 -4.5z" />
    <glyph glyph-name="greater" unicode="&#x3e;" horiz-adv-x="486" 
d="M182 145q-15 0 -13 9t16 14q5 2 10 5t11 5q23 11 47.5 21.5t49.5 21.5l155 69q-18 23 -36 46.5t-38 46.5l-9 12q-3 4 1 9t10.5 8t14.5 3t12 -4q7 -10 14.5 -19.5t15.5 -18.5q11 -15 23 -29.5t23 -28.5q3 -3 7 -7.5t6 -9.5t-0.5 -10t-12.5 -9l-192 -86l-73 -32
q-8 -4 -20.5 -10t-21.5 -6z" />
    <glyph glyph-name="question" unicode="?" horiz-adv-x="711" 
d="M549 678q25 34 59 71t75.5 72t90 65.5t102.5 52.5q57 23 119.5 35t117.5 10q54 -3 81 -26t27 -57q1 -36 -19.5 -74.5t-55.5 -76t-80.5 -73t-94.5 -65.5t-104 -56.5t-112 -48.5q-50 -19 -100.5 -34t-99.5 -37q-52 -24 -96.5 -54t-81.5 -63q-36 -30 -60 -61q0 -1 -1 -2
t-2 -3q-3 -4 -8.5 -6.5t-11 -2.5t-9 2t-3.5 6q0 5 6.5 10.5t8.5 9.5q17 18 35.5 36t38.5 35q39 34 84 65.5t97 58.5q45 23 92.5 42t92.5 42q55 29 104.5 61t96.5 67q44 35 83.5 71.5t72.5 74.5q12 15 25 32.5t20 34t5.5 31.5t-17.5 25q-15 9 -36 12.5t-45.5 2.5t-50 -5
t-48.5 -11q-50 -14 -94.5 -38t-82.5 -50q-40 -28 -75.5 -58.5t-64.5 -62.5q-12 -14 -24.5 -28.5t-23.5 -28.5q-3 -5 -7 -8.5t-12 -5.5t-12.5 2t-1.5 9zM66 -9q-32 0 -40 13.5t1 30t32 30.5t55 14t40.5 -14t-0.5 -30.5t-32.5 -30t-55.5 -13.5z" />
    <glyph glyph-name="at" unicode="@" horiz-adv-x="825" 
d="M827 217q-20 -15 -42 -29.5t-44 -28.5q-32 -20 -64.5 -36t-70.5 -30q-21 -8 -40.5 -12.5t-35.5 3.5q-12 6 -17.5 15t-6 20.5t2 23t7.5 21.5q0 2 1 4.5t2 4.5q-33 -23 -72 -42q-16 -8 -34.5 -16.5t-38 -14.5t-38.5 -9t-36 -1q-16 2 -25.5 9t-14 16.5t-5 20.5t1.5 21
q3 23 18.5 46t35.5 46q41 45 101.5 86.5t133.5 64.5q22 7 47 12t48.5 6t42 -4t27.5 -18q2 -5 4 -10.5t1 -11.5q23 14 49 26t53 18q11 2 26 3.5t22 -3.5q4 -3 -4 -13.5t-20 -23.5t-25 -25.5t-19 -18.5q-23 -23 -45.5 -46t-45.5 -46l-104 -105q-2 -3 -7 -7t-9 -8.5t-6 -8.5
t3 -6q8 -3 20.5 0t26 9t26.5 13t21 12q31 17 59 35.5t57 38.5q5 5 18.5 14.5t33.5 26.5q34 30 61 65t39.5 69t8 65t-33.5 53q-26 19 -66.5 25t-87.5 1.5t-96 -17t-92 -28.5q-107 -40 -197.5 -100t-153.5 -126q-26 -27 -48.5 -57t-37 -60t-17 -58t12.5 -52t47 -35.5t73.5 -14
t88 2.5t90.5 14q59 12 114 32q7 2 15 4.5t13 0.5q9 -5 1 -11t-17 -9q-72 -26 -148 -40t-145 -14q-52 0 -94 12t-63 38q-20 24 -19.5 54t14.5 62q13 34 37.5 68.5t56.5 68t70.5 65t81.5 60.5q83 55 182 98t205 58q52 7 101 5.5t84 -18.5q36 -17 49.5 -44.5t10.5 -59.5
q-4 -35 -24.5 -72t-50.5 -72q-11 -12 -23.5 -24t-26.5 -24zM689 355q10 17 -1.5 30t-43.5 8q-20 -2 -36 -12.5t-27 -20.5q-20 -17 -41 -34t-40 -34q-41 -35 -79 -70.5t-76 -71.5l-11 -11q-5 -5 -8 -11t-2 -10.5t9 -5.5q15 -4 34.5 3t33.5 14q39 17 74.5 39t67.5 45
q19 13 39.5 30t40 35t37 37.5t29.5 39.5z" />
    <glyph glyph-name="A" unicode="A" 
d="M-62 -129q168 155 345.5 305t367.5 298q93 72 189 141.5t200 135.5q51 32 104.5 63.5t112.5 58.5q48 22 102.5 41t106.5 21q27 1 42 -7t21 -21t5 -28.5t-4 -30.5q-9 -39 -28.5 -79t-46.5 -80q-51 -81 -118.5 -161.5t-139.5 -159.5q-71 -79 -146 -156t-155 -155
q-40 -38 -79.5 -76.5t-85.5 -75.5q-37 -32 -86 -62q-11 -8 -26.5 -16.5t-31.5 -5.5q-10 2 -11 8.5t2.5 14t9 15.5t9.5 14q14 20 30.5 39.5t34.5 39.5q36 39 75 77.5t76 77.5q32 33 65 66t65 67q-88 -10 -175 -17t-175 -15q-56 -5 -110.5 -9t-111.5 -8q-6 0 -18.5 -1.5
t-22.5 -1.5l-58 -50q-45 -38 -89 -76t-87 -76l-81 -73q-5 -4 -14 -14t-20 -20t-22 -17t-19 -4q-13 3 -2 13zM356 204l109 12l44 4q22 2 43 4q52 5 102 9.5t101 9.5l103 8q25 2 49 4t49 4h6q39 40 77.5 80t76.5 81q58 60 112.5 120t106.5 121q34 38 67 77t58 79q7 12 16 28
t12 31.5t-3.5 26.5t-30.5 12q-27 1 -56 -5.5t-58 -17t-56 -24.5l-51 -25q-57 -29 -108 -60t-102 -64q-104 -68 -200.5 -139t-189.5 -144q-73 -58 -144.5 -116t-140.5 -117q4 1 8 1z" />
    <glyph glyph-name="B" unicode="B" horiz-adv-x="1250" 
d="M630 456q-56 1 -98 15.5t-65.5 39t-26.5 58t19 72.5q22 40 62.5 75t92 64t110.5 51.5t119 37.5q124 31 249 40t234 -1q54 -5 101 -16.5t84 -30.5t61.5 -46t32.5 -61q11 -45 -5.5 -94.5t-55 -98t-94.5 -94.5t-125 -83q-118 -63 -244 -97.5t-253 -47.5q30 -5 56 -12
t45.5 -18.5t30.5 -28t9 -40.5q-3 -37 -34 -72.5t-78 -66t-105 -53.5t-114 -36q-53 -12 -106.5 -16.5t-105.5 -3t-100 8t-89 17.5q-46 12 -81.5 33.5t-54 50t-18.5 63.5t25 74q11 18 28 35.5t37 33.5q8 3 15.5 4.5t11.5 -3.5q2 -3 -0.5 -6.5t-7 -6.5t-10 -6t-9.5 -6
q-42 -32 -59 -68.5t-12 -68.5q5 -34 32 -58t68 -39t92.5 -21t106.5 -4q52 1 106.5 11t107.5 27.5t102 42t90 55.5q21 16 39 34t28.5 35.5t11 34.5t-13.5 31q-11 11 -28.5 18t-37.5 12q-11 2 -22.5 3.5t-24.5 1.5q-11 1 -25 -0.5t-24 0.5q-16 2 -11 10q6 9 20 9l1 1l1 -1h3
h14q32 0 65 2.5t66 7.5q57 9 115.5 26t113.5 40t105 52.5t93.5 62.5t79.5 68.5t63 71.5q27 37 41.5 73.5t14.5 70.5t-16.5 63t-51.5 51q-36 22 -84 34t-103 16.5t-114.5 2.5t-117.5 -8q-68 -7 -141.5 -22.5t-142 -41t-127.5 -61.5t-97 -83q-36 -45 -40.5 -88.5t31.5 -73.5
q33 -28 94 -36q11 -1 20 -1.5t18 -0.5q7 0 15 0.5t13 -3.5q5 -5 -2.5 -11t-18.5 -6zM1109 731q-63 -78 -137 -152.5t-150 -149.5q-61 -60 -122.5 -117.5t-124.5 -115.5q-38 -35 -77 -68.5t-81 -66.5q-8 -6 -17.5 -14t-20 -15.5t-21.5 -13t-23 -5.5q-17 -1 -21.5 4t-2 12.5
t9 16.5t11.5 15q44 56 95 109.5t104 107.5q75 75 153.5 148.5t157.5 147.5q36 33 73 65.5t77 64.5q14 13 35 31t44 24q23 5 36 -4t2 -24z" />
    <glyph glyph-name="C" unicode="C" horiz-adv-x="1028" 
d="M1152 474q53 -6 110 2t111 27.5t101.5 49.5t81.5 66q35 37 46.5 73t2.5 66t-37.5 53.5t-74.5 36.5q-47 13 -103.5 17t-117.5 -0.5t-123.5 -17t-122.5 -30.5q-118 -36 -223.5 -91t-193.5 -120q-91 -69 -160 -143.5t-114 -150.5q-22 -37 -39 -76t-24.5 -76.5t-2.5 -72.5
t28 -63q30 -37 84 -56.5t122.5 -24.5t146 4t153.5 31t145.5 56t121.5 78q33 28 54 60q5 8 8.5 16t3.5 16q0 4 4 7t9 4.5t10.5 1t7.5 -3.5q3 -5 0.5 -12.5t-8.5 -16t-13 -17t-12 -13.5q-16 -18 -36 -35t-42 -33q-94 -67 -210.5 -108t-236.5 -61q-54 -9 -108.5 -15t-105 -5.5
t-95 9.5t-78.5 29q-35 21 -55.5 49.5t-29 61t-6.5 68.5t12 72q21 75 71 153t124 153.5t168.5 144t203.5 123.5q111 56 231.5 90.5t239.5 43.5q55 4 112.5 3.5t111 -8t98.5 -21.5t77 -37q34 -24 44 -57.5t-1 -70.5t-42.5 -75t-80.5 -72q-48 -33 -105 -57t-118 -36
q-29 -5 -57.5 -7.5t-55.5 -2.5q-8 0 -19.5 -0.5t-16.5 4.5q-2 3 -0.5 6t5.5 5.5t9 4t10 1.5z" />
    <glyph glyph-name="D" unicode="D" horiz-adv-x="1343" 
d="M699 454q-56 1 -96.5 16t-62.5 39.5t-24.5 57.5t18.5 71t59.5 72t88 62t106 50t115.5 36q110 26 222 34t212 2q109 -7 184.5 -44t97.5 -104q19 -63 -4 -133.5t-74.5 -142.5t-124 -141.5t-153.5 -130.5q-80 -60 -179.5 -118t-207.5 -101.5t-220.5 -67t-217.5 -12.5
q-50 5 -99 14t-88.5 25t-66 40t-32.5 58t11 72.5t55 74.5q7 6 15.5 14.5t17.5 13.5q8 6 18 5.5t9 -6.5q0 -6 -11 -12t-16 -11q-24 -18 -41 -36q-34 -39 -39 -73.5t12.5 -62t54.5 -46t88 -24.5q49 -6 103.5 -3t110.5 12.5t111.5 24.5t107.5 34q117 42 218 101.5t189 125.5
q79 61 146 126.5t113 133.5q27 37 45 75.5t24 75t-1.5 70t-32.5 61.5q-23 26 -60 43.5t-82.5 27.5t-97.5 13.5t-105 2.5q-68 -2 -143.5 -13t-147 -33.5t-134.5 -57t-106 -82.5q-40 -44 -49 -89.5t22 -77.5q32 -31 96 -40l37 -3q7 0 16 1t13 -3q5 -5 -3 -11.5t-17 -5.5z
M1175 731q-63 -78 -137 -152.5t-150 -149.5q-61 -60 -122.5 -117.5t-124.5 -115.5q-38 -35 -77 -68.5t-81 -66.5q-8 -6 -17.5 -14t-20 -15.5t-21.5 -13t-23 -5.5q-17 -1 -21.5 4t-2 12.5t9 16.5t11.5 15q44 56 95 109.5t104 107.5q75 75 153.5 148.5t157.5 147.5
q36 33 73 65.5t77 64.5q14 13 35 31t44 24q23 5 36 -4t2 -24z" />
    <glyph glyph-name="E" unicode="E" horiz-adv-x="989" 
d="M1137 476q55 -2 114.5 9.5t118 31.5t112.5 47.5t98 58.5q45 32 77.5 70t37.5 75q2 34 -22.5 57.5t-65.5 37.5q-39 14 -88 21.5t-102.5 9t-109.5 -2t-110 -11.5q-120 -18 -236.5 -60.5t-220.5 -100.5q-54 -30 -107.5 -65.5t-99 -74.5t-79.5 -80t-50 -81q-17 -42 -4 -74
t47.5 -53t86 -31.5t111.5 -9.5q8 1 14.5 1t9.5 -2q6 -5 -0.5 -10.5t-15.5 -7.5q-8 -2 -16.5 -1t-15.5 2h-12q-51 0 -103.5 -12.5t-100.5 -33.5t-89 -49.5t-68 -61.5q-31 -38 -28 -69.5t44 -50.5q32 -17 75.5 -22t89.5 -6q56 0 115.5 7t119 21t118 34t112.5 46q52 25 101 56
t81 66q7 8 13 16.5t9 16.5q2 6 4 13.5t16 9.5q13 2 14 -4t-3.5 -14.5t-11.5 -17.5t-10 -12q-32 -36 -78.5 -68t-101.5 -59.5t-114 -50t-115 -38.5q-60 -17 -121 -28.5t-122 -19.5q-48 -6 -96 -10t-93 -1q-51 3 -93 17t-62 42q-19 29 -12 65t39 71q31 35 75.5 61t96 45
t106.5 30.5t108 18.5q-33 4 -63 12q-95 26 -127.5 85.5t2.5 136.5q25 53 70.5 101.5t106 92t133 80.5t150.5 66t158.5 50t158.5 32q106 15 208 16.5t193 -11.5q41 -6 79.5 -16.5t67 -28t43 -41.5t6.5 -56q-7 -32 -33 -63.5t-63 -61t-82.5 -55.5t-91.5 -47
q-48 -20 -97.5 -36.5t-100.5 -26.5q-26 -5 -53 -8.5t-53 -4.5q-7 0 -13.5 0.5t-6.5 5.5q-1 5 6 9.5t15 4.5z" />
    <glyph glyph-name="F" unicode="F" horiz-adv-x="1130" 
d="M624 501q-42 15 -69.5 37.5t-38 51.5t-1.5 63t39 71q31 38 76.5 68.5t99.5 52t113 33t116 10.5q55 -1 103.5 -12t88.5 -29q34 -16 59.5 -35.5t54.5 -38.5q32 -22 70 -40.5t83 -30.5l7 3q54 25 111.5 45.5t116.5 33.5q22 5 50.5 9t54 3t42.5 -8t17 -25q-1 -19 -19 -33.5
t-43.5 -25t-55 -17.5t-52.5 -11q-60 -9 -117.5 -12t-114.5 -2h-5q-67 -41 -124.5 -87t-109.5 -92q-53 -48 -102.5 -96.5t-98.5 -97.5l-41 -39l64 6l105 10l90 7q5 1 16 2.5t18 -0.5q4 -2 1 -6.5t-10 -5.5q-78 -11 -155 -20t-154 -17q-62 -55 -131.5 -106t-148.5 -97
q-100 -57 -212.5 -103t-228.5 -69q-15 -3 -36.5 -7.5t-35.5 -2.5q-11 2 -8 9.5t17 10.5q8 3 19 5.5t21 5.5q60 17 118 40t112 49q109 53 203 117t175 134l2 2l-29 -3l-173 -17q-26 -2 -51 -4t-51 -4q-4 0 -11.5 -1.5t-16 -2t-16 -0.5t-10.5 2q-5 4 1.5 6.5t16.5 4.5t20 3
t12 1q39 5 79 9.5t80 9.5l174 19q61 57 116 114.5t122 113.5q66 54 142 104.5t161 95.5q-37 3 -71.5 8.5t-64.5 16.5q-41 14 -69 35.5t-59 42.5q-39 25 -88 47t-116 24q-64 2 -131 -19.5t-119 -60.5q-54 -40 -77 -85.5t-6 -83.5q11 -18 27 -32.5t39 -24.5q4 -2 12 -3.5
t15.5 -3.5t13 -4.5t6.5 -5.5q1 -7 -9.5 -12t-19.5 -3zM1632 690q26 4 54 10.5t54 17.5q11 4 21 11t16 14t6 14t-8 12q-17 10 -44 9.5t-58 -6.5t-61.5 -16t-52.5 -19q-26 -11 -49.5 -21.5t-46.5 -23.5q38 -7 80 -8t89 6z" />
    <glyph glyph-name="G" unicode="G" horiz-adv-x="1241" 
d="M593 188q20 14 38 28.5t41 26.5q23 13 46.5 21.5t48.5 15.5q58 16 106 20.5t91 2.5t84.5 -8t88.5 -11q24 -2 59.5 0t62.5 6q6 1 16 3t20 5q3 2 6.5 3.5t6.5 3.5q2 2 5.5 3.5t8.5 3.5l1 1q11 5 19.5 6t6.5 -9q0 -5 -5 -7.5t-10 -5.5l-25 -9q-8 -4 -16 -9t-13 -9
q-26 -17 -47.5 -35.5t-39.5 -38.5q-25 -26 -42.5 -52t-37.5 -52q-42 -60 -92 -120.5t-113 -117.5q-38 -34 -82.5 -67.5t-94 -63.5t-104.5 -55.5t-114 -44.5q-20 -6 -40 -11.5t-39 -9.5q-18 -3 -20 5t15 14q18 9 38 16.5t40 17.5q27 14 54.5 28.5t50.5 30.5
q94 59 166.5 126.5t127.5 137.5l47 54l-44 -27q-53 -32 -111.5 -51.5t-120.5 -30.5q-49 -9 -101 -16t-101.5 -9.5t-95.5 1t-83 15.5q-45 14 -74.5 38.5t-45.5 54.5t-20.5 65t0.5 70q10 68 47 139.5t95.5 141.5t136.5 136.5t170 123.5q102 63 217 111t239 74q114 23 224.5 27
t207.5 -10q33 -5 62.5 -13t54 -20t42.5 -28.5t27 -37.5q17 -41 -3 -89.5t-66 -94.5q-45 -44 -108 -80.5t-137 -56.5q-78 -20 -145 -17q-14 1 -32.5 1t-27.5 5q-7 1 -7.5 4.5t3 7.5t9.5 6t13 1q49 -12 104 -7.5t109.5 21.5t104.5 45t88 63q39 35 59.5 71.5t21 69t-19.5 60
t-62 44.5q-38 16 -86 22.5t-101.5 6.5t-110 -7t-110.5 -18q-121 -26 -235 -72.5t-211 -106.5q-105 -63 -186.5 -135.5t-138.5 -149.5q-48 -63 -79.5 -128.5t-33.5 -125.5q-2 -73 52.5 -121t163.5 -59q44 -5 92 -5.5t97.5 6t99 21t95.5 40.5q29 16 55.5 34t51.5 38l30 26
q43 36 91 71t96 69q9 6 18 12.5t19 12.5q-30 -8 -64 -16t-66.5 -14.5t-61.5 -10.5t-49 -4q-50 0 -97.5 3.5t-95.5 6.5q-38 2 -78 -0.5t-78 -22.5q-17 -9 -25.5 -18t-22.5 -19q-7 -4 -13.5 -4.5t-10 2t-3.5 6t6 8.5z" />
    <glyph glyph-name="H" unicode="H" horiz-adv-x="1194" 
d="M504 783q20 8 40 18.5t40 18.5q29 12 60 18.5t60 8.5q60 4 110 -6t92 -27q15 -6 26 -14t21.5 -16t21 -16.5t24.5 -15.5q18 -10 51 -13t65 7l18 10q9 5 19 10q7 3 14 3.5t11.5 -1t4.5 -5t-7 -8.5l-11 -6q-11 -4 -22.5 -8.5t-22.5 -10.5q-26 -14 -47.5 -31t-40.5 -34
q-45 -38 -76.5 -77t-63.5 -79q-41 -51 -85.5 -102t-93.5 -101q33 6 66.5 10t67.5 7q58 5 112 5.5t106 -2.5q17 -2 35 -3t35 -3q17 18 33 36t33 36q69 75 150 148.5t183 137.5q45 29 97.5 54.5t109.5 39.5q26 6 52 8t46 -3q11 -2 13.5 -8t-16.5 -10q-14 -2 -27.5 -2t-28.5 -4
q-25 -6 -49 -16.5t-47 -22.5q-52 -29 -96 -64.5t-84 -70.5q-64 -59 -120.5 -119.5t-108.5 -121.5q-56 -63 -118.5 -121t-138.5 -115q-42 -31 -87 -60.5t-97 -55.5q-27 -15 -57 -26q-17 -6 -23 -2.5t-4.5 9.5t10 11.5t20.5 3.5q4 -1 14 4t20.5 12t19.5 13.5t12 8.5
q40 30 75 63q51 51 96 102l52 60q26 30 53 60q-97 8 -201 3.5t-210 -22.5q-5 -2 -11 -2.5t-11 -1.5q-6 -7 -12.5 -13t-12.5 -12q-36 -35 -76.5 -71t-85.5 -70.5t-95.5 -66t-106.5 -56.5q-23 -10 -50 -19.5t-54.5 -15.5t-53 -7.5t-45.5 5.5l-3 2q-14 3 -24 16t-9 18
q0 16 13.5 33t34 33.5t44.5 31.5t45 27q52 30 107.5 56t114.5 49q35 14 71 25.5t71 22.5q42 44 79.5 88t79.5 88q68 72 160 139.5t187 130.5l11 6q-10 -1 -19 -3q-9 -1 -19 -3q-50 -7 -96 -4.5t-84 13.5q-31 8 -56 21t-51 25q-15 7 -31.5 15t-35.5 13t-41 6.5t-48 -4.5
q-37 -7 -70 -28q-10 -7 -18.5 -7.5t-12.5 2t-2.5 7t10.5 8.5zM269 135q-24 -12 -52.5 -27t-54.5 -32t-46 -35.5t-27 -36.5q-7 -15 10 -25q1 0 2 -0.5t2 -0.5q6 2 13 -1q-1 -2 8.5 -1t22 3t23.5 4t13 3q59 18 108.5 51t91.5 65q42 35 79 70t73 71q-70 -21 -136.5 -48.5
t-129.5 -59.5z" />
    <glyph glyph-name="I" unicode="I" horiz-adv-x="624" 
d="M465 783q20 8 40 18.5t40 18.5q27 11 54.5 17.5t56.5 8.5q60 5 112 -4t93 -26q16 -6 28 -13.5t23 -15.5t21.5 -16.5t22.5 -15.5q9 -6 22.5 -10t30 -5.5t34 0t34.5 6.5l18 10q9 5 19 10q1 0 2 1v-1q6 3 12.5 3t10.5 -1.5t4 -5t-7 -7.5q-3 -3 -8 -4.5t-10 -3.5
q-38 -17 -68.5 -37t-57.5 -45q-45 -38 -76.5 -77t-63.5 -79q-101 -128 -228 -252q-36 -35 -76.5 -71t-85.5 -70.5t-95 -66t-106 -56.5q-23 -10 -50 -19.5t-54.5 -15.5t-53.5 -7.5t-46 5.5q-5 3 -5 7.5t3 8t9 5.5t14 0q-1 -2 8.5 -1t21.5 3t23 4t13 3q59 18 109 51t91 65
q44 36 82.5 73t76.5 75q48 49 90 98t88 98q68 72 160 139.5t187 130.5l11 6q-10 -1 -19 -3q-9 -1 -19 -3q-50 -7 -96 -4.5t-84 13.5q-29 8 -54.5 21t-50.5 25q-15 7 -32 15t-36 13t-41 6.5t-47 -4.5q-39 -7 -72 -28q-10 -7 -18.5 -7.5t-12.5 2t-2.5 7t10.5 8.5z" />
    <glyph glyph-name="J" unicode="J" horiz-adv-x="789" 
d="M635 783q20 8 39.5 18.5t39.5 18.5q27 11 55 17.5t56 8.5q61 5 113.5 -4t93.5 -26q31 -12 49.5 -29t43.5 -32q9 -6 24 -10t32.5 -5.5t36.5 0.5t37 9q7 5 16.5 11t18.5 9q14 6 20 -0.5t-6 -14.5q-6 -3 -14 -6t-13 -5q-1 -1 -3 -1q-37 -17 -69.5 -42t-59.5 -47
q-43 -36 -79 -74t-68 -77q-58 -69 -115.5 -137.5t-120.5 -137.5q-69 -77 -146 -151.5t-169 -145.5q-39 -30 -86.5 -64t-101 -63t-111.5 -50t-116 -27q-26 -2 -49.5 0t-42.5 9q-9 4 -17 8.5t-13 10.5q-3 3 -1 7t7 7t11 4t11 -2q9 -2 16.5 -5.5t16.5 -5.5q11 -2 23 -2.5
t24 0.5q29 3 58 12t55 21q57 26 105 58t90 66q44 35 84 72t78 74q61 60 115.5 121t107.5 123q32 37 66 73.5t74 71.5q39 36 83 71t91 69q38 29 77 57.5t80 56.5l33 21q-61 -13 -123 -13q-38 0 -69.5 7t-58.5 17.5t-52.5 23t-51.5 24.5q-27 13 -62.5 20.5t-81.5 -5.5
q-16 -5 -32.5 -11.5t-29.5 -15.5q-8 -6 -15.5 -6.5t-11.5 2.5t-2.5 7.5t10.5 8.5z" />
    <glyph glyph-name="K" unicode="K" horiz-adv-x="1296" 
d="M468 783q20 8 39 18.5t41 18.5q27 11 54.5 17.5t54.5 8.5q61 5 113.5 -4t93.5 -26q16 -6 27.5 -13.5t22 -15.5t21 -16.5t22.5 -15.5q18 -11 53.5 -15.5t69.5 6.5q9 5 17.5 10t18.5 10q7 3 14 3.5t11 -1t4 -5t-8 -8.5q0 -1 -7 -5q-11 -5 -23.5 -9t-23.5 -11
q-26 -14 -47.5 -31t-40.5 -34q-45 -38 -77 -77t-63 -79q-34 -43 -71 -86t-77 -85h12q55 2 112 12t114 30t107.5 47t96.5 56q60 39 115 80.5t119 78.5q36 21 77 41t84 34q25 8 48 11t48 6q9 0 11.5 -4t0.5 -8t-8 -7.5t-15 -2.5q-21 3 -44 -6t-44.5 -23t-40 -30t-30.5 -26
q-29 -26 -58 -51t-62 -48q-91 -66 -197.5 -119t-228.5 -76q-28 -5 -55 -8t-53 -5q90 -23 114 -79.5t-9 -127.5q-20 -40 -48.5 -78.5t-57.5 -77.5q-6 -7 -12.5 -15.5t-11.5 -17t-7 -17t1 -14.5q2 -7 14.5 -8.5t22.5 -0.5q27 1 55.5 9t57 20t55.5 25.5t50 26.5q52 30 102.5 63
t98.5 66q22 16 47 34.5t50.5 37.5t49 37.5t43.5 35.5q8 5 16 7t13 -3t-2.5 -11t-14.5 -11q-6 -5 -16 -12.5t-21 -15.5t-21 -15.5t-17 -12.5q-87 -65 -178.5 -126.5t-197.5 -115.5q-47 -23 -99.5 -44t-104.5 -24q-42 -2 -56.5 15.5t-12.5 41.5q4 37 20.5 75t36.5 76t37.5 76
t22.5 75q9 65 -69 93q-11 4 -24.5 7t-27.5 5l-25 2q-15 -17 -31 -32.5t-32 -31.5q-36 -35 -76.5 -71t-85.5 -70.5t-95.5 -66t-106.5 -56.5q-23 -10 -50 -19.5t-54.5 -15.5t-53 -7.5t-45.5 5.5q-5 3 -5 7.5t3 8t8.5 5.5t13.5 0q-1 -2 8.5 -1t22 3t23.5 4t13 3q59 18 108 51
t90 65q45 36 84 73t75 75q49 49 91.5 98t88.5 98q68 72 159 139.5t188 130.5l11 6q-10 -1 -19 -3q-9 -1 -19 -3q-50 -7 -96 -4.5t-84 13.5q-31 8 -56 21t-51 25q-15 7 -31.5 15t-35.5 13t-41 6.5t-48 -4.5q-37 -7 -70 -28q-10 -7 -18.5 -7.5t-12.5 2t-2.5 7t10.5 8.5z" />
    <glyph glyph-name="L" unicode="L" 
d="M1230 -75q-43 -32 -94.5 -54t-109.5 -31q-63 -11 -120.5 -6.5t-107.5 15.5q-50 9 -92.5 23.5t-76.5 36.5q-26 17 -48 37t-48 37q-17 12 -36.5 23t-42.5 21q-58 -31 -125 -57q-58 -22 -122 -38.5t-120 -12.5q-27 2 -43 11t-20 22.5t6 29.5t36 33q25 15 54 26t59.5 18.5
t61 12t58.5 6.5q89 8 169 0q56 38 104 80t93 84q94 87 181 175q42 42 98.5 91.5t123 97t140.5 89t150 67.5t151.5 32.5t146.5 -15.5q17 -5 35.5 -12t29.5 -17q4 -4 2 -8.5t-7 -8t-11.5 -4.5t-10.5 4q-11 5 -18 11t-18 11q-22 9 -47 14.5t-55 5.5q-58 1 -114.5 -15
t-108.5 -42t-98.5 -58.5t-83.5 -64.5q-72 -59 -130.5 -121.5t-120.5 -123.5q-72 -73 -159 -141.5t-190 -128.5l-20 -12q49 -9 90.5 -24.5t73.5 -38.5q29 -21 54 -45.5t54 -46.5t65 -38.5t88 -20.5q43 -3 89 4.5t91 27.5q41 20 70 47q6 5 13 6.5t11.5 0t5.5 -5.5t-6 -9z
M147 33q-23 -8 -45 -21t-35 -26.5t-11.5 -25.5t27.5 -19q22 -6 48.5 -4.5t55 8t57 16t53.5 20.5q63 28 116 60q-56 17 -122.5 18t-143.5 -26z" />
    <glyph glyph-name="M" unicode="M" horiz-adv-x="1404" 
d="M-57 -117q91 105 181.5 208.5t181.5 209.5q115 130 227 258t226 259q18 20 43.5 37t60.5 12q18 -3 24 -10t4.5 -16.5t-9 -20t-16.5 -20.5q-47 -50 -92 -99t-91 -99l-399 -430q93 82 187 162t194 159q88 70 180.5 137.5t198.5 128.5q21 12 46 26t51 26t53.5 20t53.5 9
q30 1 44.5 -9t18 -26t-1 -34.5t-10.5 -33.5q-15 -38 -37 -75.5t-50 -75t-59.5 -74.5t-64.5 -73l-32 -36q26 20 51 40.5t51 40.5q88 69 181 135.5t196 128.5q21 13 46 28t52.5 28t55.5 22t54 10q31 1 43.5 -9.5t13 -26.5t-6.5 -34.5t-14 -33.5q-19 -38 -46.5 -75.5
t-59.5 -74.5t-68 -73.5t-72 -72.5q-55 -57 -113.5 -111.5t-118.5 -110.5q-66 -61 -134 -121t-130 -123l-17 -16q-12 -13 -22.5 -26t-14 -22.5t11.5 -8.5q25 2 52.5 11.5t54.5 23t51.5 28t43.5 26.5q51 32 97.5 64.5t91.5 66.5q24 18 46.5 35.5t45.5 35.5q11 9 22.5 18
t22.5 18l16 16q10 10 23 14q8 3 15 1t6 -8q-2 -6 -10.5 -12t-13.5 -11q-24 -19 -47.5 -37.5t-48.5 -37.5q-45 -33 -90 -66.5t-93 -65.5q-47 -30 -94.5 -59.5t-100.5 -55.5q-18 -9 -43.5 -18.5t-49.5 -14.5t-42 -2.5t-21 19.5q-4 14 4 30.5t17 31.5q11 20 25 39t29 38
q62 80 135 155q115 121 239 239t245 238l72 74q6 7 13.5 15.5t14 17.5t10 18t1.5 16q0 4 -5.5 5t-12 0.5t-14 -2t-11.5 -2.5q-29 -7 -57 -19t-53 -26q-54 -29 -102 -61.5t-94 -65.5q-50 -35 -97 -70t-95 -71q-67 -52 -131.5 -103.5t-127.5 -104.5q-38 -38 -76 -74.5
t-78 -72.5q-39 -38 -79.5 -75t-85.5 -74q-19 -17 -39 -33.5t-40 -33.5q-20 -15 -40.5 -32.5t-43.5 -30.5q-11 -6 -22.5 -7t-20 1.5t-12 7.5t0.5 13q10 18 30 38.5t37 37.5q29 32 60 63.5t63 63.5q68 66 133 132t131 133l99 99q50 50 96 101l98 105q16 17 32.5 35t31.5 37
t26 37.5t15 35.5q4 14 -3 20t-20 6t-31 -4.5t-36 -11t-35 -14.5l-27 -12q-48 -24 -91.5 -52.5t-86.5 -57.5q-95 -67 -183 -136t-174 -140q-166 -139 -323 -281q-38 -33 -73.5 -66t-70.5 -65q-36 -38 -69 -75l-21 -22q-10 -11 -25 -15.5t-27 -3t-17 8.5t6 19z" />
    <glyph glyph-name="N" unicode="N" horiz-adv-x="1074" 
d="M-36 -117q92 105 182 208.5t183 209.5l451 517q18 20 43.5 37t61.5 12q18 -3 24 -10t4.5 -16.5t-9 -20t-16.5 -20.5l-184 -198q-122 -131 -240.5 -259t-238.5 -257q114 97 231.5 192t241.5 189q95 72 193 140.5t207 131.5q49 27 104 55.5t114 38.5q31 6 51 1.5t30 -15
t11.5 -26t-4.5 -32.5q-11 -38 -35 -76t-54.5 -76.5t-66 -75.5t-70.5 -73q-76 -78 -156.5 -152.5t-161.5 -149.5q-8 -8 -32.5 -29.5t-56 -49.5t-64 -59.5t-56 -58t-34 -45t3.5 -20.5q24 -1 52 6.5t55.5 19t53.5 25.5t46 25q54 29 103 61.5t95 66.5q45 31 86 62.5t82 63.5
q4 3 11.5 10t15.5 12.5t16 7.5t14 -3q4 -4 1 -9t-9.5 -10.5t-14.5 -10.5t-13 -9q-81 -63 -166 -123.5t-180 -115.5q-48 -29 -101.5 -57t-110.5 -44q-21 -6 -40.5 -7.5t-33.5 1.5t-22 11t-6 23q2 17 11 35t21 36.5t26.5 37t27.5 35.5q30 39 65 77.5t71 76.5
q117 119 239.5 235.5t237.5 236.5q32 34 62 68q4 6 11 15.5t11 19t3 17t-12 10.5q-20 5 -48 -1.5t-57 -18t-56 -25.5t-46 -24q-104 -57 -197 -124t-182 -134q-109 -82 -212 -165.5t-204 -168.5q-51 -42 -100.5 -85t-97.5 -86l-63 -54l-18 -20q-5 -5 -9.5 -10.5t-9.5 -11.5
q-11 -11 -26.5 -15.5t-27.5 -3t-17 8.5t6 19z" />
    <glyph glyph-name="O" unicode="O" horiz-adv-x="1034" 
d="M269 369q60 65 131.5 124.5t159.5 115.5q94 60 200 112t224 81q56 14 109 18.5t97.5 -1.5t77.5 -23t49 -47q18 -32 18.5 -69t-11.5 -76t-34.5 -78.5t-50.5 -77.5q-48 -66 -113 -130t-143 -124q-90 -69 -192.5 -130.5t-220.5 -106.5q-50 -19 -102.5 -34.5t-104.5 -23.5
t-100 -6.5t-87 15.5q-43 16 -62 44.5t-21.5 63t7.5 72.5t25 72q23 53 60 105.5t84 103.5zM374 348q-38 -37 -73.5 -76t-64.5 -78.5t-49.5 -79.5t-27.5 -78q-4 -17 -3.5 -34t6.5 -32t18.5 -27.5t32.5 -20.5q18 -7 41 -8.5t47.5 1t50 8.5t49.5 13q59 18 115 44t108.5 56
t100.5 62.5t91 64.5q85 62 157 127.5t133 133.5q30 34 59 70.5t51.5 73t37 73t15.5 69.5q2 30 -15.5 57t-62.5 35q-35 7 -80 -0.5t-86 -20.5q-109 -35 -207 -92t-179 -116q-75 -54 -140.5 -110.5t-124.5 -114.5z" />
    <glyph glyph-name="P" unicode="P" horiz-adv-x="1199" 
d="M1059 731q-66 -81 -143.5 -159t-156.5 -156t-158 -155t-163 -154q-41 -38 -82 -76.5t-84 -76.5l-84 -71q-8 -6 -18 -15t-21 -17.5t-23.5 -15t-24.5 -7.5q-16 -1 -21 3t-4 11t6 15t11 14q16 20 33 39.5t35 39.5q36 40 73.5 79t74.5 78q95 94 190.5 186.5t195.5 185.5
q48 47 98.5 92.5t102.5 91.5q12 11 23.5 21t24.5 21q14 11 27.5 23.5t29.5 22.5q13 8 26.5 9.5t23 -2t13 -10.5t-4.5 -17zM581 456q-58 1 -100.5 16t-66 40.5t-24.5 60t23 74.5q24 39 64.5 73t91.5 62.5t109 50t117 36.5q106 26 209.5 35.5t200.5 7.5q57 -1 109.5 -7.5
t96.5 -20.5t77.5 -36t52.5 -53q18 -30 19.5 -65.5t-12 -73t-40 -75t-63.5 -73.5q-72 -70 -175.5 -125t-217.5 -90q-119 -37 -243 -52q-29 -4 -56.5 -6.5t-56.5 -3.5q-5 0 -11.5 -0.5t-13.5 -0.5t-12.5 0.5t-8.5 2.5q-4 5 3 11.5t18 6.5q109 -2 224.5 24t219.5 80
q69 36 129 81.5t104.5 95t70 99.5t25 95t-30 81.5t-94.5 58.5q-39 13 -86 19t-98 7.5t-104 -2t-105 -10.5q-57 -7 -117.5 -20.5t-118.5 -33.5t-110.5 -48t-93.5 -64q-26 -23 -44 -48t-26 -50t-5.5 -48t18.5 -42q30 -36 99 -47l36 -3q8 0 17 0.5t16 -1.5q10 -3 3 -11t-19 -8z
" />
    <glyph glyph-name="Q" unicode="Q" horiz-adv-x="1047" 
d="M653 -189q-27 -13 -55 -22t-55.5 -13t-53 -2.5t-45.5 9.5q-39 15 -57 44t-19 61q-1 4 -1 8v6q-57 -10 -109 -9.5t-94 15.5q-43 16 -62 44.5t-21.5 63t7.5 72.5t25 72q23 53 60 105.5t84 103.5q60 65 131.5 124.5t159.5 115.5q94 60 200 112t224 81q56 14 109 18.5
t97.5 -1.5t77.5 -23t49 -47q18 -32 18.5 -69t-11.5 -76t-34.5 -78.5t-50.5 -77.5q-48 -66 -113 -130t-143 -124q-88 -69 -191.5 -130.5t-221.5 -106.5q-15 -6 -30.5 -11.5t-31.5 -10.5l-8 -40q-2 -12 -3 -26t2.5 -26t14 -21t31.5 -12q19 -2 41.5 1.5t43.5 9.5q7 2 15 4.5
t15 3.5q11 2 13 -5.5t-8 -12.5zM362 348q-38 -37 -73.5 -76t-64.5 -78.5t-49.5 -79.5t-27.5 -78q-4 -17 -3.5 -34t6.5 -32t18.5 -27.5t32.5 -20.5q32 -13 78 -8.5t90 16.5q4 34 12.5 68.5t10.5 67.5q0 16 -5 32t-17.5 27.5t-33.5 17t-52 1.5q-20 -2 -37 -9t-37 -12
q-9 -3 -13.5 -1t-4.5 5.5t4.5 8t13.5 7.5q54 17 104 22.5t91 -8.5t63.5 -40.5t31.5 -56.5q5 -20 5.5 -40t-2.5 -40q85 38 160.5 86.5t140.5 96.5q85 62 157 127.5t133 133.5q30 34 59 70.5t51.5 73t37 73t15.5 69.5q2 30 -15.5 57t-62.5 35q-35 7 -80 -0.5t-86 -20.5
q-109 -35 -207 -92t-179 -116q-75 -54 -140.5 -110.5t-124.5 -114.5z" />
    <glyph glyph-name="R" unicode="R" horiz-adv-x="1304" 
d="M627 456q-57 1 -98.5 16t-65 40t-25.5 59t21 73q22 38 60.5 71.5t87 61.5t104.5 50.5t113 37.5q105 28 208.5 38t202.5 10q55 0 108 -6t97.5 -19.5t77.5 -35t50 -53.5t13.5 -69.5t-23.5 -75.5t-55.5 -76t-81.5 -71q-93 -67 -211 -109t-238 -62q-19 -3 -37.5 -5.5
t-37.5 -4.5l23 -6q39 -14 61 -38t27 -55q5 -35 -9.5 -73.5t-38.5 -76.5q-13 -19 -28 -37.5t-30.5 -37.5t-29.5 -37.5t-24 -37.5q-3 -6 -6.5 -12.5t-3.5 -12.5t3.5 -10.5t13.5 -5.5q18 -4 39.5 -0.5t44.5 11.5q56 19 106.5 48.5t94.5 58.5q49 32 93.5 65.5t86.5 68.5l86 73
q20 17 34 32q3 3 9 6.5t11.5 5t10 0.5t5.5 -6q0 -5 -4 -8q-83 -72 -173 -143t-192 -134q-17 -11 -45 -27t-60.5 -32t-67 -29.5t-65 -19.5t-53.5 -2t-34 23q-8 13 -7 30.5t6.5 35.5t14 36.5t16.5 35.5q17 38 37.5 77t38.5 78q7 16 13 32.5t6.5 32t-4.5 29.5t-18 25
q-25 20 -67 28q-11 2 -22.5 2.5t-22.5 -0.5q-15 -1 -14.5 7.5t14.5 13.5q14 3 32 0h8q13 0 26 0.5t24 1.5q30 2 60.5 5.5t60.5 10.5q61 12 117.5 34t107 50.5t94 62t76.5 69.5q34 37 55.5 74.5t27 73t-7.5 66t-48 53.5q-30 19 -70 30.5t-85.5 16.5t-95.5 4.5t-100 -4.5
q-57 -4 -118 -13t-121 -25t-117 -39t-106 -54q-45 -29 -77.5 -62.5t-47.5 -67.5t-9.5 -65t36.5 -53q18 -14 45 -21.5t56 -10.5h30q8 0 14.5 -0.5t9.5 -3.5q3 -5 -4.5 -11t-18.5 -6zM1130 751q-2 -2 -11.5 -7.5t-12.5 -7.5q-9 -7 -18.5 -14t-17.5 -15q-24 -19 -45.5 -38
t-41.5 -39q-40 -37 -74 -74t-69 -75q-52 -56 -104 -111t-109 -110q-75 -73 -161.5 -144.5t-193.5 -131.5q-48 -26 -102 -49.5t-111 -34.5q-5 -1 -13.5 -2.5t-17.5 -2.5t-16 0t-9 4q-5 5 -2 8t9.5 5.5t14.5 4t13 2.5q50 11 97 35.5t84 49.5q48 30 88.5 63t78.5 67
q69 63 129.5 127t116.5 130l58 69q34 38 72 73.5t81 70.5q42 33 86.5 65.5t96.5 60.5q22 11 45 21.5t47 16.5q16 3 15 -3t-3 -14z" />
    <glyph glyph-name="S" unicode="S" horiz-adv-x="1239" 
d="M1665 676q54 22 85 54.5t23 64.5q-8 31 -46.5 48t-94.5 11t-100.5 -27t-77.5 -49.5t-55 -61t-35 -62.5q-18 -39 -31.5 -78.5t-26.5 -78.5l-25 -78q-12 -39 -28 -78q-17 -39 -37 -78.5t-47 -78.5t-61 -77t-79 -74q-91 -72 -207 -114.5t-240 -60.5q-60 -9 -121 -14
t-117.5 -2.5t-106 13t-85.5 33.5q-49 30 -65.5 72t-6.5 91t43 101t83.5 101t115.5 92t139 74q54 23 112.5 38.5t116 22.5t112 5.5t100.5 -12.5t77.5 -33.5t42.5 -54.5q10 -32 1 -65q0 -6 -3 -12q-1 -4 -6 -7t-10.5 -4t-10.5 0t-6 5q-2 6 2 14.5t6 15.5q2 18 -0.5 35
t-11.5 31q-17 29 -55 46.5t-88 23.5q-52 6 -109 3t-115 -15t-114.5 -32.5t-108.5 -48.5q-67 -36 -123 -83t-95.5 -97.5t-58.5 -101.5t-12 -94.5t43 -76.5t108 -48q47 -10 104 -10.5t118 6.5t122.5 20.5t117.5 32.5q126 41 208.5 108.5t130.5 144.5q23 39 40.5 77.5t32.5 77
t29 77t29 77.5q15 36 32.5 75.5t42 78.5t58 76.5t78.5 70.5q39 28 88 49.5t99 32t96 8t79 -22.5q32 -20 38.5 -52.5t-22.5 -67.5q-14 -17 -33.5 -32.5t-42.5 -28.5q-8 -4 -17.5 -9t-18.5 -5q-11 0 -10.5 6.5t11.5 11.5z" />
    <glyph glyph-name="T" unicode="T" horiz-adv-x="971" 
d="M518 501q-46 15 -79 37.5t-49.5 52t-15.5 63.5t24 71q22 37 60.5 67.5t87 52t104 33t111.5 10.5q49 -1 92.5 -9.5t82 -22t72.5 -32t65 -38.5q42 -27 92 -49.5t108 -36.5q8 5 19 10q50 24 102.5 44.5t110.5 32.5q21 4 48 6.5t50.5 -0.5t37.5 -13.5t8 -30.5t-27.5 -34
t-50 -23t-59 -13.5t-54.5 -7.5q-93 -10 -182 -9q-50 -35 -91.5 -74.5t-77.5 -77.5q-60 -63 -111.5 -127.5t-105.5 -129.5q-61 -71 -135.5 -140t-173.5 -122q-47 -26 -99 -43.5t-104.5 -24t-103 -2t-94.5 24.5q-12 5 -27 12.5t-21 16.5q-7 5 0.5 12t17.5 6q8 -1 15.5 -5
t13.5 -6q46 -17 100.5 -20.5t113.5 11.5q57 15 106.5 42t92 60.5t78 70t65.5 69.5q28 31 53 63.5t50.5 64.5t52.5 63.5t59 61.5q53 54 118 103.5t140 93.5q-51 3 -97.5 11.5t-87.5 25.5q-32 13 -57 30t-54 34q-44 26 -98.5 48t-120.5 25q-69 3 -133 -19.5t-104 -63.5
q-44 -41 -54.5 -87t15.5 -83q13 -17 32.5 -30t44.5 -23q4 -2 12 -3.5t16 -3.5t14 -4.5t7 -5.5q4 -7 -5.5 -12t-19.5 -3zM1446 686q19 1 47.5 5.5t55.5 12t47 19.5t21 29q2 9 -4.5 14t-17 7t-22.5 2.5t-22 0.5q-28 -2 -55.5 -8.5t-53.5 -16.5q-33 -12 -63 -27.5t-59 -32.5
q62 -9 126 -5z" />
    <glyph glyph-name="U" unicode="U" horiz-adv-x="1073" 
d="M1559 820q-92 -106 -183 -209.5t-182 -208.5q-114 -131 -227 -259t-226 -258q-8 -10 -18.5 -20t-23.5 -17.5t-28 -11t-33 -0.5q-19 3 -25.5 10t-4.5 16t9.5 19.5t17.5 20.5l184 198l488 526q-118 -100 -238 -197.5t-247 -193.5q-94 -72 -191.5 -140.5t-207.5 -131.5
q-48 -27 -103 -55.5t-113 -38.5q-32 -5 -51.5 -1t-30 14.5t-12.5 26t3 32.5q11 37 35 76t55.5 77t67.5 75.5t71 73.5q75 77 154.5 151.5t160.5 149.5q8 7 33 29t56 50t63.5 59.5t56.5 58t34 44.5t-3 21q-24 1 -52 -6.5t-55.5 -19t-53 -25t-44.5 -24.5q-54 -30 -103 -62.5
t-97 -65.5q-44 -31 -86 -63t-80 -64q-4 -3 -11.5 -9.5t-16 -12t-17 -8t-14.5 2.5q-4 4 -0.5 9t10 10.5t14 10.5t12.5 9q81 63 166.5 123.5t178.5 116.5q49 28 102.5 56t110.5 44q21 6 40.5 7.5t33.5 -1.5t22 -11t6 -23q-3 -17 -11.5 -35t-20.5 -36.5t-26 -36.5t-27 -35
q-63 -80 -137 -154q-115 -120 -239 -236.5t-239 -236.5q-16 -17 -31 -34t-28 -34q-5 -6 -12 -15.5t-11 -18.5t-3.5 -16.5t10.5 -10.5q21 -5 48.5 1t57 17.5t56.5 25.5t46 24q104 58 198 124.5t182 133.5q109 82 212 165.5t205 168.5l198 171l58 51l21 23l21 22
q10 11 25.5 15.5t27.5 3t17 -8t-5 -18.5z" />
    <glyph glyph-name="V" unicode="V" horiz-adv-x="840" 
d="M1472 888q-163 -158 -333.5 -311t-353.5 -305q-88 -73 -180 -144.5t-192 -140.5q-49 -32 -99 -63t-107 -57q-20 -9 -45 -19.5t-50.5 -17t-49 -8t-39.5 6.5q-18 9 -23 25t-3 34.5t8.5 38t12.5 34.5q15 38 35.5 77t45.5 78q54 81 116 161.5t130 160.5q68 81 141 161
t150 160q31 32 66 63t78 60q14 8 31 16t29 -1q8 -6 3 -17t-10 -19q-20 -38 -50 -74.5t-63 -72.5q-26 -30 -52.5 -60t-52.5 -60q-29 -32 -58 -64.5t-57 -65.5q-60 -69 -119.5 -136.5t-114.5 -136.5q-33 -40 -65 -80t-63 -80q-28 -36 -55.5 -74t-35.5 -75q-4 -11 -2 -24
t21 -15q20 -2 43.5 4t43.5 14q56 20 107 50.5t96 60.5q105 69 200.5 142t186.5 148q182 150 351.5 303.5t330.5 309.5q7 5 14 13.5t16 11.5q13 3 17.5 -1.5t-0.5 -10.5z" />
    <glyph glyph-name="W" unicode="W" horiz-adv-x="1331" 
d="M1938 888q-156 -159 -319 -314.5t-341 -308.5q-86 -75 -175.5 -148.5t-191.5 -142.5q-48 -32 -97.5 -63t-106.5 -56q-24 -11 -52 -19.5t-53 -11t-44.5 2.5t-27.5 22q-8 15 -7.5 33.5t6 38t14.5 39.5t18 38q18 38 42 74.5t51 73.5l56 74l-56 -48q-85 -73 -174 -143.5
t-193 -136.5q-18 -12 -39 -24.5t-44 -24t-46.5 -19t-47.5 -8.5q-28 -1 -40.5 8.5t-15.5 23.5t0.5 30.5t8.5 30.5q15 39 38 78.5t52 78.5t61 78t65 77q68 81 141 159.5t149 157.5q73 78 150 156q35 37 70 73.5t62 74.5q1 3 6 9.5t9 14t6 13.5t-2 8q-5 1 -12 0t-15.5 -3
t-16 -5t-11.5 -5q-56 -22 -103 -53.5t-89 -63.5q-47 -35 -91 -71t-85 -72l-75 -67q-16 -14 -31 -31t-35 -31q-8 -8 -19.5 -8.5t-13.5 6.5q-2 6 7.5 13.5t15.5 13.5q20 18 40.5 36t40.5 36q43 37 85.5 72.5t85.5 70.5q45 35 93 69.5t100 66.5q15 9 33.5 19.5t38.5 19t40.5 14
t39.5 4.5q26 -1 32 -14t1 -31t-15.5 -36.5t-17.5 -30.5q-23 -39 -50.5 -78.5t-57.5 -78.5q-62 -80 -130.5 -159.5t-140.5 -158t-144.5 -157t-141.5 -157.5q-16 -17 -31.5 -35t-29.5 -36q-16 -20 -30.5 -40.5t-19.5 -40.5q-3 -15 12 -15.5t35.5 5.5t42 15.5t32.5 15.5
q53 28 100 61.5t92 67.5q45 35 87.5 70t84.5 70q49 42 95.5 83.5t93.5 83.5q29 35 59.5 69.5t62.5 69.5q38 40 75.5 79.5t77.5 79.5q28 29 55.5 57t59.5 55q6 5 27.5 22t45.5 32.5t45 22.5t28 -7q5 -8 -3 -21.5t-15 -22.5q-22 -36 -54 -73q-75 -85 -153 -167.5t-155 -166.5
q-57 -63 -112 -125t-107 -126q-17 -20 -33 -40t-33 -40q-14 -18 -30 -37.5t-30 -39.5t-23.5 -39.5t-9.5 -36.5q0 -18 17 -22t41 1t49.5 14.5t42.5 18.5q54 26 102.5 57t92.5 63q99 70 188 143t175 148q174 153 336 309l80 78q40 39 79 78l77 76l36 37q7 7 16 17.5t20 14.5
q11 3 16.5 -1t-0.5 -11z" />
    <glyph glyph-name="X" unicode="X" horiz-adv-x="1121" 
d="M993 898q-15 -59 -36.5 -118t-46 -118.5t-50.5 -119t-51 -118.5l-3 -8q100 68 199.5 135.5t200.5 135.5l264 179l51 34q6 4 13 4.5t10.5 -1t3.5 -5.5t-7 -8l-14 -9l-570 -386l-166 -113q-42 -99 -81 -196.5t-68 -194.5q-5 -18 -9 -35.5t-7 -35.5q-2 -16 -1.5 -34
t13.5 -30q9 -9 29.5 -6.5t44 10.5t45.5 18t35 17q54 29 102 61t96 66q47 34 90.5 68.5t85.5 69.5q20 17 40 34.5t39 34.5q6 5 13 9.5t17 2.5q10 -4 2.5 -12t-14.5 -13q-42 -37 -84.5 -72.5t-87.5 -70.5t-91.5 -69.5t-97.5 -66.5q-45 -29 -96 -57t-107 -45
q-46 -14 -77.5 -8.5t-43.5 29.5q-18 31 -19 68t2 73q7 67 26.5 136.5t42.5 139.5l-448 -302l-150 -101q-5 -3 -13 -9.5t-17.5 -13.5t-18.5 -12t-16 -5q-12 0 -11.5 4.5t7.5 10.5t16 11.5t12 8.5l90 62l321 217q60 41 119.5 80.5t119.5 80.5q1 2 2 4.5t2 5.5q58 162 140 329
q41 84 91 166q11 19 23.5 37.5t24.5 37.5q5 7 10.5 14t16.5 12t22.5 4t16.5 -6q6 -3 3 -11z" />
    <glyph glyph-name="Y" unicode="Y" horiz-adv-x="1010" 
d="M1529 832q-22 -11 -40.5 -25t-36.5 -28q-20 -16 -38.5 -31.5t-36.5 -32.5q-39 -35 -76 -71t-69 -72q-49 -51 -92.5 -100.5t-87.5 -100.5q-53 -60 -106.5 -119.5t-112 -118.5t-123.5 -115.5t-140 -110.5q-41 -29 -91.5 -61t-106 -58.5t-113.5 -43.5t-113 -16
q-25 1 -47 6.5t-33 16.5q-5 4 -5 10t14 10q11 3 19.5 -1.5t15.5 -6.5q25 -6 54 -3t58.5 12t58 21.5t52.5 25.5q54 29 101.5 62.5t90 69.5t81.5 73t75 73q66 66 123.5 133t117.5 135q-24 -17 -48.5 -32.5t-49.5 -31.5q-47 -29 -96.5 -55.5t-104.5 -47.5q-21 -8 -45.5 -16
t-49 -15t-49.5 -11.5t-47 -5.5q-29 -2 -46.5 4.5t-26 18t-10 26.5t3.5 32q10 38 38.5 76.5t60.5 75.5q62 72 136 140t149 137q23 22 46.5 43t44.5 43q6 6 13 13.5t13 15.5t10 15t3 13q-2 5 -14 5h-19q-29 -2 -58.5 -10t-58 -20t-55.5 -26t-51 -27q-56 -31 -106 -64t-98 -69
q-5 -3 -13.5 -10.5t-18.5 -14t-20 -10t-16 2.5q-3 4 0 8.5t9.5 9.5t13.5 10t12 8q48 34 96 66t102 62q46 26 96.5 51t104.5 43q17 6 37 11t39.5 8t37 1.5t28.5 -8.5q15 -10 15.5 -26.5t-8 -35.5t-21.5 -38t-23 -34q-27 -39 -62.5 -77t-71.5 -76q-51 -54 -106 -107t-107 -107
q-32 -34 -64 -70q-6 -7 -14 -15.5t-14 -17t-9 -17t-1 -14.5q4 -10 22 -12t34 -1q30 0 61 8.5t62 20.5q116 46 213.5 110.5t184.5 130.5q57 57 119 110.5t131 107.5q45 34 90.5 66.5t95.5 64.5q14 10 30.5 19.5t30.5 19.5q6 3 11 6t12 4q12 2 13 -5t-10 -13z" />
    <glyph glyph-name="Z" unicode="Z" horiz-adv-x="827" 
d="M842 781q-10 -8 -28.5 -22.5t-34.5 -30t-22.5 -29t8.5 -19.5q17 -8 44 -8.5t51 -0.5q26 1 53.5 2.5t54.5 4.5q55 6 112 16.5t114 24.5q27 7 55 14.5t56 16.5q4 1 13 4.5t14 2.5q9 2 15.5 0.5t-3.5 -9.5q-5 -4 -13.5 -5.5t-13.5 -2.5q-95 -23 -176 -64.5t-152.5 -92
t-136 -106t-124.5 -104.5q-69 -56 -142 -108t-155 -100q-60 -35 -120.5 -64t-123.5 -57l44 12q60 14 115.5 18.5t103.5 -6.5q24 -6 43.5 -14t38 -17.5t37 -18.5t39.5 -16q41 -12 88 -15q7 -1 19.5 -1t24 -1t18 -4.5t1.5 -11.5q-5 -7 -17 -12t-27 -9t-29 -6.5t-23 -3.5
q-59 -9 -115 -1q-50 8 -85.5 28t-67.5 41q-35 23 -80 31t-108 -3q-26 -5 -52.5 -11.5t-52.5 -15.5l-16 -7h-1q-5 -1 -9 -1.5t-7 1.5q-7 4 -1 8t15 8h2q6 2 11.5 3.5t8.5 3.5q55 19 103.5 45.5t92 56.5t82.5 62t75 64q59 52 117.5 103t125.5 101q91 69 197.5 127.5
t226.5 104.5l33 12q-33 -8 -65 -17t-64 -17q-57 -15 -114 -29t-114 -20q-30 -3 -60.5 -1.5t-52.5 9t-31 22.5t3 39q11 20 35 37.5t51 33.5q17 9 34.5 17.5t37.5 16.5q5 2 11.5 3t11.5 0t6 -3.5t-5 -8.5z" />
    <glyph glyph-name="bracketleft" unicode="[" horiz-adv-x="1157" 
d="M100 588l154 33l-6 21l23 7l-5 23l24 5l-3 25l23 2v23h21l2 21l23 -3l4 23l25 -4l6 23l22 -6l9 21l23 -9l12 22l21 -11l12 20l21 -14l15 19l19 -15l16 16l15 -14l15 13l15 -17l20 13l13 -21l22 12l11 -20l21 9l10 -23l24 7l7 -22l22 5l5 -24l25 2l1 -15l231 50v-283
l-106 -23l2 -2l-13 -15l13 -16l-18 -15l13 -20l-21 -13l13 -21l-21 -12l9 -21l-23 -10l8 -24l-22 -7l4 -22l-24 -5l2 -25l-23 -2v-23h-20l-3 -21l-22 2l-5 -22l-24 4l-7 -23l-22 7l-8 -23l-24 10l-11 -22l-21 11l-13 -20l-21 13l-14 -18l-18 15l-17 -16l-15 14l-16 -14
l-14 18l-20 -13l-14 21l-21 -12l-11 20l-22 -9l-10 23l-23 -7l-7 22l-23 -5l-5 24l-24 -2l-3 23h-23v21l-20 2l2 23l-23 4l5 24l-24 7l7 22l-16 6l-141 -30v283zM715 520q6 3 11 8l12 11l1 1q-1 -1 -1 -3q0 -4 2 -8t6 -5q3 -1 11 1q10 4 14 7l12 9l4 4l4 4l8 7q-1 -1 -1 -3
q0 -1 -0.5 -1.5t-0.5 -1.5v-4q-2 -3 0 -5q0 -2 0.5 -2.5t0.5 -1.5q1 -3 4 -3q1 -1 4 -1t5 1l4 2l5 3l7 4l18 15l10 10l-3 -7q-2 -4 -2 -11v-3q2 -2 3 -2q0 -1 3 -1q1 0 5 2q2 1 3.5 1.5t3.5 2.5l6 4l6 6q2 1 6 5q3 2 5.5 5t5.5 6l10 12q1 1 1 2q-1 1 -2 1q-2 0 -4 -2l-2 -3
l-7 -8l-6 -7l-3.5 -3.5l-3.5 -3.5l-8 -7l-4 -3l-5 -2l-1 -1q-1 0 -2 1h1l4 8l2 4t3 4l4 6q2 2 4 6l36 53q6 6 8 10l9 9l21 24q5 6 9.5 12t9.5 12l6 10v5q-1 1 -5 1q-2 0 -6 -2q-2 0 -3.5 -1t-3.5 -2q-4 -2 -6 -4l-5 -4q-3 -2 -6 -4.5t-6 -5.5l-10 -11q-4 -4 -10 -12
q-2 -4 -8 -12q-5 -6 -8.5 -12t-7.5 -12l-15 -25l-11 -19l-4 -9q-1 0 -1 -1l-8 -8q-2 -3 -5 -5.5t-6 -5.5l-11 -10l-5 -4l-4 -3l-2 -1l-3 -2h-3h-2l3 6l3 5q0 1 0.5 1t0.5 1l1 1q2 4 4.5 7.5t5.5 7.5q2 4 4.5 8t5.5 8l8 12l4 7q2 2 4 6l1 1l1 1q0 1 0.5 1t0.5 1l1 1q3 2 2 4
q0 1 -4 1l-6 -2l-6 -3l-10 -7l-4 -4l-4 -4q0 4 -1 6q0 2 -4 4q-6 1 -12 0q-6 -2 -13 -5q-8 -3 -13 -7q-4 -2 -6.5 -4.5l-4.5 -4.5q-14 -11 -21 -22q-9 -11 -12 -21q-1 0 -1 -0.5t-1 -0.5q-2 -2 -4.5 -5t-5.5 -5q-4 -4 -12 -10q-3 -3 -7 -4q-4 -2 -6 -2h-2q-1 1 0 2l4 5l3 5
l7 8l12 16q3 4 6 7.5t5 8.5l5 10q2 6 1 9q0 3 -1 4q-2 2 -4 2q-3 0 -5 -1l-7 -3l-7 -4q-4 -4 -6 -5q-4 -4 -6 -5q-4 -4 -6 -5l-12 -12q-3 -3 -6 -5.5t-5 -5.5l-6 -7l-6 -6l2 3l14 20l15 21q0 1 0.5 1t0.5 1q1 1 1 2q1 2 1 4l-3 3q-1 0 -1.5 0.5t-2.5 0.5q-1 0 -2 -0.5
t-3 -0.5l-6 -3l-3 -3q-2 -1 -2 -2t-1 -2l-3 -4l-44 -76q-1 -1 -1 -4q1 0 1.5 -0.5t1.5 -0.5q3 0 5 1l5 3q0 1 2 3l2 2l3 3q0 1 2 3l10 12l11 12l10 12l12 12l12 11l5 5q2 1 6 5l6 4l7 3q1 0 1 -1h-1l-3 -3q-1 -3 -4 -4l-3 -4l-7 -8q-3 -3 -7 -9q-6 -8 -8 -12l-8 -12
q-2 -3 -4 -11q-2 -5 0 -9t5 -4q6 0 10 1q3 1 6 3t7 4zM494 471q7 1 14 5q7 3 13 9q5 3 9 10l5 10q3 6 3 11v9q0 3 -2 9l-4 9l-3 4q0 2 -2 4q0 1 -2 3v3q1 1 1 2h-5l-2 -2q-3 -1 -7 -5l-3 -7l-1 -1l-3 -4l-18 -25l-3 -4l-3 -5l-1 -1v-1q-1 0 -2 -1l-3 -5l-3 -4l-9 -11
l-12 -11q-3 -3 -7 -4q-4 -2 -7 -2h-1l1 1l4 6l4 5l4 6q2 1 4 5l5 8l5 9l3 8q1 3 1 8q-1 1 -1 4l-2 3q0 2 -1 3v13l4 6q2 5 -2 7q-3 3 -10 0q-7 -2 -9 -4q-4 -3 -6 -7t-2 -7q0 -4 1 -6l2 -2l2 -2l-3 -4l-3 -3l-14 -18l-11 -13q-1 0 -3 -2v-1l-1 -1q0 -1 -1 -1l-6 -8
l-7.5 -7.5t-8.5 -6.5q-10 -8 -19 -12q-2 -2 -5 -2.5t-6 -2.5q-8 -2 -11 -1q-4 0 -4 2q-1 1 -1 4q0 1 2 5l2 5l6 10q4 -2 7 -2q6 0 10 1q7 1 15 6q5 2 14 9l9 9q2 2 3.5 4.5t2.5 4.5l4 8q0 6 -2 8q-2 3 -5 5q-3 1 -10 1q-2 -1 -5 -1t-6 -2q-4 -1 -12 -5q-13 -6 -25 -16
q-11 -9 -17 -20q-3 -3 -7 -11q-3 -5 -4 -11v-10q1 -3 5 -7q6 -4 13 -3q8 0 16 3q9 3 18 9q9 4 18 12l14 12l8 9q0 1 2 3q0 2 2 2l2 4l9 9l9 12q3 3 5.5 6t4.5 6l4 -2l2 -3q1 -2 1 -4q0 -1 -4 -5l-9 -10l-8 -11l-7 -11l-3 -10q-1 -2 -1 -5v-4q2 -3 3 -4t4 -1q2 0 10 2l9 6
q8 6 12 10q3 2 5.5 5t4.5 5q4 4 5 6l5 6l2 3l3 3q2 2 2 3l7 9l12 17q0 -2 0.5 -4t0.5 -4q2 -6 2 -8l2 -4q-10 -4 -14 -7l-11 -9q-6 -6 -7 -10q-2 -4 -2 -10q1 -3 6 -5q3 -1 11 -1zM553 510q-2 -7 0 -13q0 -3 2 -5t6 -4q2 0 3 -0.5t3 0.5h7q5 1 15 5l15 8l13 11l11 10l8 11
l6 10l3 10q1 6 0 9q0 3 -3 6q-1 2 -6 4q-2 0 -4 0.5t-4 0.5q-3 0 -11 -2q-1 0 -7 -2l-7 -3l-14 -9q-4 -2 -7 -5t-6 -5l-10 -11l-7 -11q-5 -8 -6 -15zM175 -9q-6 6 -9 15t-3 19q0 6 1 9q0 2 1 4.5t1 4.5q1 7 8 14q2 3 5.5 5.5t7.5 4.5q5 2 9.5 3t9.5 1h3q3 0 9 -2q3 0 5 -1
l4 -2q7 -4 12 -11q2 -3 4 -7q1 -2 1 -6h-19q0 3 -2 5q-1 3 -6 6t-10 3q-3 0 -5 -1h-4l-8 -6q-2 -2 -3.5 -4t-2.5 -5q-2 -5 -2 -16q0 -9 3 -16q1 -7 7 -9q3 -2 5.5 -3t5.5 -2h3q7 0 10 3q4 0 7 5q2 3 3.5 5.5t1.5 5.5h-21v16h37v-48h-12l-2 11q-3 -5 -8 -8q-3 -2 -5.5 -2.5
t-4.5 -2.5q-3 0 -5.5 -0.5t-5.5 -0.5q-9 0 -14 4q-8 3 -12 9zM1058 -110q3 -3 3 -10v-45h-17v39q0 13 -10 13q-11 0 -11 -13v-39h-17v39q0 5 -1 6q0 3 -3 6q-2 1 -6 1q-11 0 -11 -12v-40h-17v65h16v-10q7 12 19 12q8 0 11 -3q4 -2 7 -8q2 4 8 8q3 3 10 3q8 0 12 -4
q6 -3 7 -8zM464 -102q4 -3 7 -8q2 -2 2 -10v-45h-16v39q0 13 -10 13q-11 0 -11 -13v-39h-18v45q0 3 -3 6q-2 1 -7 1q-11 0 -11 -12v-40h-16v65h16v-10q6 12 19 12q7 0 10 -3q5 -2 8 -8q2 5 7 8q4 3 10 3q8 0 13 -4zM948 -107q2 -2 3 -5t3 -6q2 -4 2 -15q0 -10 -4 -17
q-3 -7 -11 -12q-7 -4 -18 -4q-13 0 -19 5q-7 5 -11 12q-3 7 -3 16t2 13q1 4 2.5 6.5t3.5 5.5q6 6 11 7q4 3 14 3q8 0 14 -3q4 -1 11 -6zM706 39q5 -6 7 -12t2 -14q0 -10 -4 -17q-3 -7 -11 -12t-18 -5q-11 0 -19 5q-6 5 -11 13q-3 7 -3 16q0 5 2 13q1 6 6 11q6 6 11 8
q4 2 14 2t15 -2q2 -2 4.5 -3t4.5 -3zM141 -100h17l-18 -62v-3h-18l-10 47l-10 -47h-18l-18 63v2h18l10 -47l9 47h18l9 -47zM347 -100l-18 -62l-1 -3h-17l-10 47l-11 -47h-17l-18 63v2h18l10 -47l9 47h18l9 -47l10 47h18zM235 -100h18l-18 -62l-1 -3h-17l-11 47l-10 -47h-18
l-17 63v2h17l11 -47l9 47h17l10 -47zM625 -100h17l-18 -62v-3h-18l-10 47l-10 -47h-18l-18 63v2h18l10 -47l9 47h17l10 -47zM174 386l6 6l4 6l6 6q1 2 5 6l36 50q3 5 6 8.5t5 8.5l12 18q3 5 6 9t5 9q3 5 5.5 9t4.5 9q1 3 0 4t-3 1q-4 0 -5 -1l-5 -3l-10 -11l-9 -12
q-5 -5 -8 -11l-9 -11l-32 -46l-15 -24q-4 -6 -7 -12l-6 -12l-2 -3q0 -1 -0.5 -1.5t-0.5 -1.5v-2q0 -1 1 -2h5zM900 -19l-4.5 -1.5t-4.5 -0.5t-9 2q-2 2 -4 3t-4 3q-3 4 -3 12q0 10 5 14q6 4 14 6l15 2q6 1 6 5q0 8 -10 8q-4 0 -8 -2q-3 -1 -4 -8h-16q1 9 4 14q2 4 9 7
q4 2 7 2h8q13 0 18 -2l4 -4t3 -4q2 -6 2 -8v-42q0 -3 4 -3v-3h-19q-1 0 -1 1v1v1q0 2 -0.5 3t-0.5 2q-2 -3 -5 -5q-2 -1 -3.5 -2t-2.5 -1zM542 -159q0 -3 3 -3v-3h-18q0 1 -1 2v1q-1 2 -1 5q-4 -4 -6 -5l-6 -3q-2 -1 -8 -1q-7 0 -9 1q-5 1 -8 7q-4 3 -4 10q0 10 6 15
q4 4 13 6l16 2q5 2 5 5q0 8 -10 8q-2 0 -4 -0.5t-4 -0.5l-2 -4t-1 -4h-16q0 7 3 13q6 6 10 7l6 2q2 0 4 0.5t4 0.5q13 0 18 -4q5 -3 8 -7q1 -3 1 -8v-35q0 -5 1 -7zM316 8h-45q0 -6 5 -11q3 -4 11 -4q3 0 7 2q4 4 4 5h18q-2 -5 -6 -11q-3 -2 -5.5 -4t-4.5 -3q-4 -1 -6.5 -2
t-6.5 -1q-32 0 -32 36q0 5 0.5 8.5t2.5 7.5q3 8 10 12q4 3 8.5 3.5t9.5 0.5q13 0 17 -4q6 -4 10 -13q2 -5 2.5 -9t0.5 -9v-4zM607 353q4 5 4 14q0 6 -2 10t-6 9q-5 5 -11 6q-6 3 -13 3q-11 0 -16 -4q-5 -2 -7.5 -4.5t-4.5 -5.5q-4 -7 -4 -14q0 -8 2 -11q4 -6 7 -9q2 -2 5 -3
t6 -3q8 -2 12 -2q11 0 16 4q6 3 12 10zM187 500q-1 -6 0 -10t6 -7l10 -3q8 0 13 1q2 0 3 1t1 2t-1 1h-3q-2 0 -2 -1q-10 -1 -17 2q-4 2 -5 4q-2 4 -2 6q0 4 1 7l4 8l10 11q2 2 5.5 4.5t6.5 4.5q4 2 7 4t7 4t7.5 3.5t7.5 3.5q4 1 7.5 2t8.5 3l16 3q10 2 15 2t13 -2
q2 -1 4.5 -1.5t4.5 -2.5l5 -7q1 -3 1 -10q0 -3 -2 -11l-6 -11q-2 -4 -8 -12q-2 -3 -5 -5.5t-6 -5.5q-2 -3 -5.5 -5.5t-6.5 -5.5l-13 -8l-14 -6l-8 -3q-3 0 -7 -2h-3q-2 0 -3 -1q-2 0 -2 -1q-2 0 -2 -2q0 -1 1 -1h3q2 0 3 1h3l15 5l15 6l15 7l15 9l13 9l12 11l10 11
q2 3 3.5 6t2.5 6q3 6 3 11q1 6 0 10q-2 6 -4 9q-4 3 -8 5q-6 3 -11 3q-5 1 -14 1q-4 0 -14 -2q-8 -1 -16 -3l-16 -4t-15.5 -5.5t-15.5 -7.5q-4 -2 -7.5 -4t-7.5 -5q-8 -5 -13 -10q-4 -3 -10 -11zM775 -132q5 -3 5 -12q0 -6 -3 -12q-4 -5 -10 -8q-4 -2 -15 -2h-6q-4 0 -6 1
q-6 2 -10 4q-6 4 -7 7q-2 6 -2 10h17q0 -9 15 -9q5 0 8 1q2 4 2 5q0 4 -7 5l-15 4q-3 1 -6.5 2.5t-5.5 3.5q-6 4 -6 12q0 6 3 11q2 4 9 8q4 3 14 3q6 0 10.5 -1t8.5 -3q6 -3 8 -8l2 -5v-5h-17q0 5 -3 7q-1 1 -8 1q-10 0 -10 -6q0 -3 6 -4l15 -4q6 -1 14 -6zM699 -101
q5 -2 7 -7q3 -6 3 -12v-45h-17v39q0 8 -2 10q-1 3 -9 3q-7 0 -10 -4q-3 -5 -3 -11v-37h-18v65h17v-10q7 12 20 12q6 0 12 -3zM783 38q3 -6 3 -12v-45h-17v39q0 4 -2 10q-3 3 -10 3t-10 -4q-2 -3 -2 -11v-37h-18v65h16v-9q7 10 20 10q9 0 12 -2zM484 -10q-3 -5 -8 -7
q-8 -4 -12 -4q-10 0 -16 7q-6 6 -6 17v43h17v-40q0 -12 11 -12q4 0 6 1t6 5q0 2 1 4t1 4v38h16v-65h-16v9zM854 -113q-8 0 -10 -5q-4 -4 -4 -13t1 -12q1 -5 4 -7q2 -2 8 -2q5 0 8 2q3 3 3 9h18q0 -5 -4 -13q-3 -5 -10 -9q-6 -3 -16 -3q-13 0 -21 7q-4 4 -7 10q-1 4 -1 15
q0 14 6 25q8 11 23 11q9 0 15 -3q7 -2 10 -9q5 -5 5 -13h-18q0 3 -2 7q-2 3 -8 3zM423 55q-2 0 -2 -2v-7h11v-12h-11v-53h-17v53h-9v12h9v5q0 18 19 18h9v-13h-5q-3 0 -4 -1zM632 46h12v-12h-12v-53h-17v53h-9v12h9v5q0 18 19 18h8v-13h-4q-4 0 -4 -1q-1 0 -2 -2v-7z
M973 -19h-11q-8 0 -11 2q-4 0 -5 4q0 2 -1 3.5t-1 3.5v40h-8v12h8v17h18v-17h11v-12h-11v-35q0 -2 0.5 -3t0.5 -2q1 0 2 -0.5t3 -0.5l3 1h2v-13zM569 492l-2 2q-1 1 -1 4q0 2 1 3q2 8 5 12q6 8 8 12l6 7l5 6l9 12q3 3 5.5 6t5.5 5l5 4l6 3q2 1 5 1q2 0 3 -2q1 -1 1 -4
q0 -2 -2 -6l-3 -5l-3 -6q-2 -4 -4 -6l-4 -6l-4 -6t-4 -5l-9 -11l-11 -11q-3 -3 -6 -4q-3 -3 -7 -4q-2 -1 -5 -1zM347 63v-17h10v-12h-10v-35q0 -4 1 -5q1 0 2.5 -0.5t3.5 -0.5l2 1h1v-13h-10q-8 0 -11 2q-4 0 -5 4q-1 2 -1 7v40h-9v12h9v17h17zM755 536q2 4 4 6l4 6
q1 2 2 3.5t2 3.5t5 6l10 14l15 18l4 5l4 4l5 3q2 1 5 1q2 1 5 1l3 -2q0 -1 0.5 -1.5t0.5 -2.5t-1 -4q0 -2 -2 -4l-9 -12l-8 -13l-9 -9l-9 -10q-2 -1 -6 -5l-7 -6q-4 -2 -6 -4q-2 -1 -3 -2t-3 -1q-4 -2 -6 -1h-1q-1 1 -1 2l1 2q0 1 1 2zM831 -19h-11q-8 0 -10 2q-5 0 -6 4v47
h-10v12h10v17h16v-17h11v-12h-11v-35q0 -2 0.5 -3t0.5 -2q2 0 3 -0.5t3 -0.5l2 1h2v-13zM593 386l2 -4t2 -5q0 -2 0.5 -4.5t0.5 -5.5q0 -6 -2 -14q-3 -6 -7 -10q-3 -2 -10 -2q-6 0 -7 2q-4 0 -7 5l-3 8q-2 6 -2 11q0 2 0.5 4.5t0.5 4.5l3 7q3 5 4 6q0 1 5 3q4 2 7 2
q1 0 1.5 -0.5t2.5 -0.5l4 -2zM533 -19h-17v88h17v-88zM562 -19h-16v88h16v-88zM511 394h-58v-2h2q5 0 6 -2q3 -2 3 -7v-32q0 -10 -9 -10h-2v-1h58v22q-2 -2 -2 -3.5t-1 -3.5l-6 -8q-3 -3 -5 -3l-5 -2q-3 -1 -7 -1h-9v24h1q7 0 11 -4l2 -3q0 -1 0.5 -1.5t0.5 -2.5q1 -2 1 -5
h1v35h-1v-5l-3 -6q-5 -6 -10 -6h-3v25h10q9 0 12 -1l5 -4l3 -6l3 -8h2v21zM693 394h-27v-2h5q0 -1 2 -1q4 -4 4 -5q2 -2 2 -8v-23l-38 39h-21v-2h1q4 0 5 -1q2 0 2.5 -1t1.5 -1q1 -2 1 -5v-31q0 -4 -1 -6q-1 -3 -4 -4q-4 -2 -7 -2v-1h28v1q-3 0 -5 1q-2 0 -2.5 0.5t-2.5 0.5
l-3 5q-1 1 -1 7v32l46 -47h2v38q0 6 3 11q1 3 9 3v2zM444 365q-3 2 -7 4l-10 4h-6l-1 1l-8 2q-2 1 -3 1t-2 1q-1 0 -3 2t-2 4q0 3 1 4q0 -1 2 3l4 2q2 0 3 0.5t3 0.5q4 0 8 -2q5 0 8 -3q4 -2 6 -4t2.5 -4.5t2.5 -5.5h2v18h-2q-1 -4 -4 -4t-5 1q-10 5 -18 5q-5 0 -11 -2
l-7 -5q-3 -5 -3 -9q0 -3 3 -6q0 -1 3 -4l7 -3q1 -1 4 -1.5t8 -2.5l4 -1q6 -2 8 -2t4 -2q1 0 2 -1q3 -3 3 -6q0 -1 -2 -5q-1 -1 -5 -4h-6q-6 0 -9 1l-10 4l-6 6q-5 7 -5 12h-2v-25h2q0 4 2 4q2 2 5 2q1 0 1 -0.5t2 -0.5q1 0 1.5 -0.5t2.5 -0.5l8 -3q2 -1 8 -1q3 0 9 2
q2 0 3.5 1t3.5 3q2 1 2 2t2 3v11zM694 0q4 4 4 13q0 10 -4 14q-3 6 -12 6t-12 -6q-4 -6 -4 -14q0 -7 4 -13q2 -6 12 -6t12 6zM935 -146q2 3 2.5 6.5t0.5 6.5q0 11 -3 15q-3 5 -12 5t-12 -5q-3 -6 -3 -15q0 -7 3 -13t12 -6t12 6zM818 389q1 2 3 2q2 1 5 1v2h-27v-2h3
q5 0 6 -1q2 -1 2 -4q0 -2 -3 -6l-11 -15l-14 18l-2 4v1q0 2 1 2q0 1 3 1h5v2h-35v-2h1q6 0 8 -1l3 -3t2 -3l17 -22v-12q0 -5 -2 -7l-4 -2t-4 -1h-3v-1h38v1h-4q-4 0 -7 3q-3 1 -3 7v13l14 19l3 4q4 2 5 2zM757 364h-1q-2 -2 -2 -3.5t-1 -3.5q-2 -2 -2 -5q-1 -1 -3 -4
q-4 -4 -7 -5q-2 -2 -8 -2h-14v42q0 5 3 7q2 2 7 2h4v2h-37v-2h3q9 0 9 -9v-32q0 -10 -9 -10h-3v-1h61v24zM387 394h-27v-2h6q1 0 1.5 -0.5t1.5 -0.5q6 -3 6 -13v-19q0 -8 -5 -13l-7 -5h-9q-7 0 -10 2q-2 0 -6 4q-2 2 -2 9v27q0 6 2 7q2 2 8 2h4v2h-37v-2h1q11 0 11 -9v-27
q0 -7 6 -13l9 -3q3 -1 11 -1t14 2q4 2 6 4q5 4 5 13v28l5 5h1l1 1h4v2zM367 480q-6 -2 -7 -2q-3 0 -7 2l9 12l10 12l4 5q2 2 3 2.5t2 2.5l6 5l7 3q5 1 8 0q1 -2 0 -6l-3 -5q-2 -2 -4 -6q-2 -2 -2.5 -3t-2.5 -2q-1 -2 -5 -6q-2 -3 -5 -5q-4 -4 -6 -5zM512 510q0 -2 0.5 -3
t0.5 -3q-1 -2 -1 -5q0 -2 -0.5 -3t-0.5 -3l-2 -5q-1 -2 -5 -6l-4 -3q-2 -2 -5 -2q-1 -1 -5 -1q-2 -2 -4 0q-2 0 -4 2v5l2 6l4 5q5 6 11 10zM888 -1q0 -5 2 -5q2 -2 6 -2h4h1l2 1q4 2 6 4q2 4 2 8v8q-3 -3 -7 -3l-8 -2q-3 0 -6 -3q-2 -1 -2 -6zM524 -133q-3 -3 -6 -3l-8 -1
l-6 -3q-3 -3 -3 -7t3 -5q2 -2 6 -2h3q1 0 1.5 0.5t1.5 0.5l6 4q2 2 2 7v9zM793 -147h18v-18h-18v18zM347 -147h18v-18h-18v18zM299 20q-2 6 -4 10q-2 2 -4 3t-5 1q-11 0 -13 -14h26zM930 655q-1 -2 -5 -6l16 22l8 13l15 20l1 1q0 2 2 2q0 1 1 1q1 1 1 0q0 -2 -2 -6l-4 -6
l-4 -5q-2 -4 -4 -5l-9 -12l-10 -12z" />
    <glyph glyph-name="backslash" unicode="\" horiz-adv-x="618" 
d="M602 -134q-15 -10 -26 -7t-13 11q-2 2 -2 6v8q-2 15 -4.5 30t-7.5 29q-7 54 -15.5 106t-17.5 106q-21 128 -40 253t-41 252q-5 35 -11 68t-11 67q0 2 -1 3.5t-2 3.5q0 6 6.5 11t14 7t14.5 0.5t8 -7.5q2 -9 3.5 -17t2.5 -17q18 -109 36 -216.5t35 -216.5
q19 -109 35.5 -217t34.5 -217q1 -3 3.5 -9t3.5 -13t0.5 -13.5t-5.5 -10.5z" />
    <glyph glyph-name="bracketright" unicode="]" horiz-adv-x="1163" 
d="M100 588l154 33l-6 21l23 7l-5 23l24 5l-3 25l23 2v23h21l2 21l23 -3l4 23l25 -4l6 23l22 -6l9 21l23 -9l12 22l21 -11l12 20l21 -14l15 19l19 -15l16 16l15 -14l15 13l15 -17l20 13l13 -21l22 12l11 -20l21 9l10 -23l24 7l7 -22l22 5l5 -24l25 2l1 -15l231 50v-283
l-106 -23l2 -2l-13 -15l13 -16l-18 -15l13 -20l-21 -13l13 -21l-21 -12l9 -21l-23 -10l8 -24l-22 -7l4 -22l-24 -5l2 -25l-23 -2v-23h-20l-3 -21l-22 2l-5 -22l-24 4l-7 -23l-22 7l-8 -23l-24 10l-11 -22l-21 11l-13 -20l-21 13l-14 -18l-18 15l-17 -16l-15 14l-16 -14
l-14 18l-20 -13l-14 21l-21 -12l-11 20l-22 -9l-10 23l-23 -7l-7 22l-23 -5l-5 24l-24 -2l-3 23h-23v21l-20 2l2 23l-23 4l5 24l-24 7l7 22l-16 6l-141 -30v283zM715 520q6 3 11 8l12 11l1 1q-1 -1 -1 -3q0 -4 2 -8t6 -5q3 -1 11 1q10 4 14 7l12 9l4 4l4 4l8 7q-1 -1 -1 -3
q0 -1 -0.5 -1.5t-0.5 -1.5v-4q-2 -3 0 -5q0 -2 0.5 -2.5t0.5 -1.5q1 -3 4 -3q1 -1 4 -1t5 1l4 2l5 3l7 4l18 15l10 10l-3 -7q-2 -4 -2 -11v-3q2 -2 3 -2q0 -1 3 -1q1 0 5 2q2 1 3.5 1.5t3.5 2.5l6 4l6 6q2 1 6 5q3 2 5.5 5t5.5 6l10 12q1 1 1 2q-1 1 -2 1q-2 0 -4 -2l-2 -3
l-7 -8l-6 -7l-3.5 -3.5l-3.5 -3.5l-8 -7l-4 -3l-5 -2l-1 -1q-1 0 -2 1h1l4 8l2 4t3 4l4 6q2 2 4 6l36 53q6 6 8 10l9 9l21 24q5 6 9.5 12t9.5 12l6 10v5q-1 1 -5 1q-2 0 -6 -2q-2 0 -3.5 -1t-3.5 -2q-4 -2 -6 -4l-5 -4q-3 -2 -6 -4.5t-6 -5.5l-10 -11q-4 -4 -10 -12
q-2 -4 -8 -12q-5 -6 -8.5 -12t-7.5 -12l-15 -25l-11 -19l-4 -9q-1 0 -1 -1l-8 -8q-2 -3 -5 -5.5t-6 -5.5l-11 -10l-5 -4l-4 -3l-2 -1l-3 -2h-3h-2l3 6l3 5q0 1 0.5 1t0.5 1l1 1q2 4 4.5 7.5t5.5 7.5q2 4 4.5 8t5.5 8l8 12l4 7q2 2 4 6l1 1l1 1q0 1 0.5 1t0.5 1l1 1q3 2 2 4
q0 1 -4 1l-6 -2l-6 -3l-10 -7l-4 -4l-4 -4q0 4 -1 6q0 2 -4 4q-6 1 -12 0q-6 -2 -13 -5q-8 -3 -13 -7q-4 -2 -6.5 -4.5l-4.5 -4.5q-14 -11 -21 -22q-9 -11 -12 -21q-1 0 -1 -0.5t-1 -0.5q-2 -2 -4.5 -5t-5.5 -5q-4 -4 -12 -10q-3 -3 -7 -4q-4 -2 -6 -2h-2q-1 1 0 2l4 5l3 5
l7 8l12 16q3 4 6 7.5t5 8.5l5 10q2 6 1 9q0 3 -1 4q-2 2 -4 2q-3 0 -5 -1l-7 -3l-7 -4q-4 -4 -6 -5q-4 -4 -6 -5q-4 -4 -6 -5l-12 -12q-3 -3 -6 -5.5t-5 -5.5l-6 -7l-6 -6l2 3l14 20l15 21q0 1 0.5 1t0.5 1q1 1 1 2q1 2 1 4l-3 3q-1 0 -1.5 0.5t-2.5 0.5q-1 0 -2 -0.5
t-3 -0.5l-6 -3l-3 -3q-2 -1 -2 -2t-1 -2l-3 -4l-44 -76q-1 -1 -1 -4q1 0 1.5 -0.5t1.5 -0.5q3 0 5 1l5 3q0 1 2 3l2 2l3 3q0 1 2 3l10 12l11 12l10 12l12 12l12 11l5 5q2 1 6 5l6 4l7 3q1 0 1 -1h-1l-3 -3q-1 -3 -4 -4l-3 -4l-7 -8q-3 -3 -7 -9q-6 -8 -8 -12l-8 -12
q-2 -3 -4 -11q-2 -5 0 -9t5 -4q6 0 10 1q3 1 6 3t7 4zM494 471q7 1 14 5q7 3 13 9q5 3 9 10l5 10q3 6 3 11v9q0 3 -2 9l-4 9l-3 4q0 2 -2 4q0 1 -2 3v3q1 1 1 2h-5l-2 -2q-3 -1 -7 -5l-3 -7l-1 -1l-3 -4l-18 -25l-3 -4l-3 -5l-1 -1v-1q-1 0 -2 -1l-3 -5l-3 -4l-9 -11
l-12 -11q-3 -3 -7 -4q-4 -2 -7 -2h-1l1 1l4 6l4 5l4 6q2 1 4 5l5 8l5 9l3 8q1 3 1 8q-1 1 -1 4l-2 3q0 2 -1 3v13l4 6q2 5 -2 7q-3 3 -10 0q-7 -2 -9 -4q-4 -3 -6 -7t-2 -7q0 -4 1 -6l2 -2l2 -2l-3 -4l-3 -3l-14 -18l-11 -13q-1 0 -3 -2v-1l-1 -1q0 -1 -1 -1l-6 -8
l-7.5 -7.5t-8.5 -6.5q-10 -8 -19 -12q-2 -2 -5 -2.5t-6 -2.5q-8 -2 -11 -1q-4 0 -4 2q-1 1 -1 4q0 1 2 5l2 5l6 10q4 -2 7 -2q6 0 10 1q7 1 15 6q5 2 14 9l9 9q2 2 3.5 4.5t2.5 4.5l4 8q0 6 -2 8q-2 3 -5 5q-3 1 -10 1q-2 -1 -5 -1t-6 -2q-4 -1 -12 -5q-13 -6 -25 -16
q-11 -9 -17 -20q-3 -3 -7 -11q-3 -5 -4 -11v-10q1 -3 5 -7q6 -4 13 -3q8 0 16 3q9 3 18 9q9 4 18 12l14 12l8 9q0 1 2 3q0 2 2 2l2 4l9 9l9 12q3 3 5.5 6t4.5 6l4 -2l2 -3q1 -2 1 -4q0 -1 -4 -5l-9 -10l-8 -11l-7 -11l-3 -10q-1 -2 -1 -5v-4q2 -3 3 -4t4 -1q2 0 10 2l9 6
q8 6 12 10q3 2 5.5 5t4.5 5q4 4 5 6l5 6l2 3l3 3q2 2 2 3l7 9l12 17q0 -2 0.5 -4t0.5 -4q2 -6 2 -8l2 -4q-10 -4 -14 -7l-11 -9q-6 -6 -7 -10q-2 -4 -2 -10q1 -3 6 -5q3 -1 11 -1zM553 510q-2 -7 0 -13q0 -3 2 -5t6 -4q2 0 3 -0.5t3 0.5h7q5 1 15 5l15 8l13 11l11 10l8 11
l6 10l3 10q1 6 0 9q0 3 -3 6q-1 2 -6 4q-2 0 -4 0.5t-4 0.5q-3 0 -11 -2q-1 0 -7 -2l-7 -3l-14 -9q-4 -2 -7 -5t-6 -5l-10 -11l-7 -11q-5 -8 -6 -15zM175 -9q-6 6 -9 15t-3 19q0 6 1 9q0 2 1 4.5t1 4.5q1 7 8 14q2 3 5.5 5.5t7.5 4.5q5 2 9.5 3t9.5 1h3q3 0 9 -2q3 0 5 -1
l4 -2q7 -4 12 -11q2 -3 4 -7q1 -2 1 -6h-19q0 3 -2 5q-1 3 -6 6t-10 3q-3 0 -5 -1h-4l-8 -6q-2 -2 -3.5 -4t-2.5 -5q-2 -5 -2 -16q0 -9 3 -16q1 -7 7 -9q3 -2 5.5 -3t5.5 -2h3q7 0 10 3q4 0 7 5q2 3 3.5 5.5t1.5 5.5h-21v16h37v-48h-12l-2 11q-3 -5 -8 -8q-3 -2 -5.5 -2.5
t-4.5 -2.5q-3 0 -5.5 -0.5t-5.5 -0.5q-9 0 -14 4q-8 3 -12 9zM1058 -110q3 -3 3 -10v-45h-17v39q0 13 -10 13q-11 0 -11 -13v-39h-17v39q0 5 -1 6q0 3 -3 6q-2 1 -6 1q-11 0 -11 -12v-40h-17v65h16v-10q7 12 19 12q8 0 11 -3q4 -2 7 -8q2 4 8 8q3 3 10 3q8 0 12 -4
q6 -3 7 -8zM464 -102q4 -3 7 -8q2 -2 2 -10v-45h-16v39q0 13 -10 13q-11 0 -11 -13v-39h-18v45q0 3 -3 6q-2 1 -7 1q-11 0 -11 -12v-40h-16v65h16v-10q6 12 19 12q7 0 10 -3q5 -2 8 -8q2 5 7 8q4 3 10 3q8 0 13 -4zM948 -107q2 -2 3 -5t3 -6q2 -4 2 -15q0 -10 -4 -17
q-3 -7 -11 -12q-7 -4 -18 -4q-13 0 -19 5q-7 5 -11 12q-3 7 -3 16t2 13q1 4 2.5 6.5t3.5 5.5q6 6 11 7q4 3 14 3q8 0 14 -3q4 -1 11 -6zM706 39q5 -6 7 -12t2 -14q0 -10 -4 -17q-3 -7 -11 -12t-18 -5q-11 0 -19 5q-6 5 -11 13q-3 7 -3 16q0 5 2 13q1 6 6 11q6 6 11 8
q4 2 14 2t15 -2q2 -2 4.5 -3t4.5 -3zM141 -100h17l-18 -62v-3h-18l-10 47l-10 -47h-18l-18 63v2h18l10 -47l9 47h18l9 -47zM347 -100l-18 -62l-1 -3h-17l-10 47l-11 -47h-17l-18 63v2h18l10 -47l9 47h18l9 -47l10 47h18zM235 -100h18l-18 -62l-1 -3h-17l-11 47l-10 -47h-18
l-17 63v2h17l11 -47l9 47h17l10 -47zM625 -100h17l-18 -62v-3h-18l-10 47l-10 -47h-18l-18 63v2h18l10 -47l9 47h17l10 -47zM174 386l6 6l4 6l6 6q1 2 5 6l36 50q3 5 6 8.5t5 8.5l12 18q3 5 6 9t5 9q3 5 5.5 9t4.5 9q1 3 0 4t-3 1q-4 0 -5 -1l-5 -3l-10 -11l-9 -12
q-5 -5 -8 -11l-9 -11l-32 -46l-15 -24q-4 -6 -7 -12l-6 -12l-2 -3q0 -1 -0.5 -1.5t-0.5 -1.5v-2q0 -1 1 -2h5zM900 -19l-4.5 -1.5t-4.5 -0.5t-9 2q-2 2 -4 3t-4 3q-3 4 -3 12q0 10 5 14q6 4 14 6l15 2q6 1 6 5q0 8 -10 8q-4 0 -8 -2q-3 -1 -4 -8h-16q1 9 4 14q2 4 9 7
q4 2 7 2h8q13 0 18 -2l4 -4t3 -4q2 -6 2 -8v-42q0 -3 4 -3v-3h-19q-1 0 -1 1v1v1q0 2 -0.5 3t-0.5 2q-2 -3 -5 -5q-2 -1 -3.5 -2t-2.5 -1zM542 -159q0 -3 3 -3v-3h-18q0 1 -1 2v1q-1 2 -1 5q-4 -4 -6 -5l-6 -3q-2 -1 -8 -1q-7 0 -9 1q-5 1 -8 7q-4 3 -4 10q0 10 6 15
q4 4 13 6l16 2q5 2 5 5q0 8 -10 8q-2 0 -4 -0.5t-4 -0.5l-2 -4t-1 -4h-16q0 7 3 13q6 6 10 7l6 2q2 0 4 0.5t4 0.5q13 0 18 -4q5 -3 8 -7q1 -3 1 -8v-35q0 -5 1 -7zM316 8h-45q0 -6 5 -11q3 -4 11 -4q3 0 7 2q4 4 4 5h18q-2 -5 -6 -11q-3 -2 -5.5 -4t-4.5 -3q-4 -1 -6.5 -2
t-6.5 -1q-32 0 -32 36q0 5 0.5 8.5t2.5 7.5q3 8 10 12q4 3 8.5 3.5t9.5 0.5q13 0 17 -4q6 -4 10 -13q2 -5 2.5 -9t0.5 -9v-4zM607 353q4 5 4 14q0 6 -2 10t-6 9q-5 5 -11 6q-6 3 -13 3q-11 0 -16 -4q-5 -2 -7.5 -4.5t-4.5 -5.5q-4 -7 -4 -14q0 -8 2 -11q4 -6 7 -9q2 -2 5 -3
t6 -3q8 -2 12 -2q11 0 16 4q6 3 12 10zM187 500q-1 -6 0 -10t6 -7l10 -3q8 0 13 1q2 0 3 1t1 2t-1 1h-3q-2 0 -2 -1q-10 -1 -17 2q-4 2 -5 4q-2 4 -2 6q0 4 1 7l4 8l10 11q2 2 5.5 4.5t6.5 4.5q4 2 7 4t7 4t7.5 3.5t7.5 3.5q4 1 7.5 2t8.5 3l16 3q10 2 15 2t13 -2
q2 -1 4.5 -1.5t4.5 -2.5l5 -7q1 -3 1 -10q0 -3 -2 -11l-6 -11q-2 -4 -8 -12q-2 -3 -5 -5.5t-6 -5.5q-2 -3 -5.5 -5.5t-6.5 -5.5l-13 -8l-14 -6l-8 -3q-3 0 -7 -2h-3q-2 0 -3 -1q-2 0 -2 -1q-2 0 -2 -2q0 -1 1 -1h3q2 0 3 1h3l15 5l15 6l15 7l15 9l13 9l12 11l10 11
q2 3 3.5 6t2.5 6q3 6 3 11q1 6 0 10q-2 6 -4 9q-4 3 -8 5q-6 3 -11 3q-5 1 -14 1q-4 0 -14 -2q-8 -1 -16 -3l-16 -4t-15.5 -5.5t-15.5 -7.5q-4 -2 -7.5 -4t-7.5 -5q-8 -5 -13 -10q-4 -3 -10 -11zM775 -132q5 -3 5 -12q0 -6 -3 -12q-4 -5 -10 -8q-4 -2 -15 -2h-6q-4 0 -6 1
q-6 2 -10 4q-6 4 -7 7q-2 6 -2 10h17q0 -9 15 -9q5 0 8 1q2 4 2 5q0 4 -7 5l-15 4q-3 1 -6.5 2.5t-5.5 3.5q-6 4 -6 12q0 6 3 11q2 4 9 8q4 3 14 3q6 0 10.5 -1t8.5 -3q6 -3 8 -8l2 -5v-5h-17q0 5 -3 7q-1 1 -8 1q-10 0 -10 -6q0 -3 6 -4l15 -4q6 -1 14 -6zM699 -101
q5 -2 7 -7q3 -6 3 -12v-45h-17v39q0 8 -2 10q-1 3 -9 3q-7 0 -10 -4q-3 -5 -3 -11v-37h-18v65h17v-10q7 12 20 12q6 0 12 -3zM783 38q3 -6 3 -12v-45h-17v39q0 4 -2 10q-3 3 -10 3t-10 -4q-2 -3 -2 -11v-37h-18v65h16v-9q7 10 20 10q9 0 12 -2zM484 -10q-3 -5 -8 -7
q-8 -4 -12 -4q-10 0 -16 7q-6 6 -6 17v43h17v-40q0 -12 11 -12q4 0 6 1t6 5q0 2 1 4t1 4v38h16v-65h-16v9zM854 -113q-8 0 -10 -5q-4 -4 -4 -13t1 -12q1 -5 4 -7q2 -2 8 -2q5 0 8 2q3 3 3 9h18q0 -5 -4 -13q-3 -5 -10 -9q-6 -3 -16 -3q-13 0 -21 7q-4 4 -7 10q-1 4 -1 15
q0 14 6 25q8 11 23 11q9 0 15 -3q7 -2 10 -9q5 -5 5 -13h-18q0 3 -2 7q-2 3 -8 3zM423 55q-2 0 -2 -2v-7h11v-12h-11v-53h-17v53h-9v12h9v5q0 18 19 18h9v-13h-5q-3 0 -4 -1zM632 46h12v-12h-12v-53h-17v53h-9v12h9v5q0 18 19 18h8v-13h-4q-4 0 -4 -1q-1 0 -2 -2v-7z
M973 -19h-11q-8 0 -11 2q-4 0 -5 4q0 2 -1 3.5t-1 3.5v40h-8v12h8v17h18v-17h11v-12h-11v-35q0 -2 0.5 -3t0.5 -2q1 0 2 -0.5t3 -0.5l3 1h2v-13zM569 492l-2 2q-1 1 -1 4q0 2 1 3q2 8 5 12q6 8 8 12l6 7l5 6l9 12q3 3 5.5 6t5.5 5l5 4l6 3q2 1 5 1q2 0 3 -2q1 -1 1 -4
q0 -2 -2 -6l-3 -5l-3 -6q-2 -4 -4 -6l-4 -6l-4 -6t-4 -5l-9 -11l-11 -11q-3 -3 -6 -4q-3 -3 -7 -4q-2 -1 -5 -1zM347 63v-17h10v-12h-10v-35q0 -4 1 -5q1 0 2.5 -0.5t3.5 -0.5l2 1h1v-13h-10q-8 0 -11 2q-4 0 -5 4q-1 2 -1 7v40h-9v12h9v17h17zM755 536q2 4 4 6l4 6
q1 2 2 3.5t2 3.5t5 6l10 14l15 18l4 5l4 4l5 3q2 1 5 1q2 1 5 1l3 -2q0 -1 0.5 -1.5t0.5 -2.5t-1 -4q0 -2 -2 -4l-9 -12l-8 -13l-9 -9l-9 -10q-2 -1 -6 -5l-7 -6q-4 -2 -6 -4q-2 -1 -3 -2t-3 -1q-4 -2 -6 -1h-1q-1 1 -1 2l1 2q0 1 1 2zM831 -19h-11q-8 0 -10 2q-5 0 -6 4v47
h-10v12h10v17h16v-17h11v-12h-11v-35q0 -2 0.5 -3t0.5 -2q2 0 3 -0.5t3 -0.5l2 1h2v-13zM593 386l2 -4t2 -5q0 -2 0.5 -4.5t0.5 -5.5q0 -6 -2 -14q-3 -6 -7 -10q-3 -2 -10 -2q-6 0 -7 2q-4 0 -7 5l-3 8q-2 6 -2 11q0 2 0.5 4.5t0.5 4.5l3 7q3 5 4 6q0 1 5 3q4 2 7 2
q1 0 1.5 -0.5t2.5 -0.5l4 -2zM533 -19h-17v88h17v-88zM562 -19h-16v88h16v-88zM511 394h-58v-2h2q5 0 6 -2q3 -2 3 -7v-32q0 -10 -9 -10h-2v-1h58v22q-2 -2 -2 -3.5t-1 -3.5l-6 -8q-3 -3 -5 -3l-5 -2q-3 -1 -7 -1h-9v24h1q7 0 11 -4l2 -3q0 -1 0.5 -1.5t0.5 -2.5q1 -2 1 -5
h1v35h-1v-5l-3 -6q-5 -6 -10 -6h-3v25h10q9 0 12 -1l5 -4l3 -6l3 -8h2v21zM693 394h-27v-2h5q0 -1 2 -1q4 -4 4 -5q2 -2 2 -8v-23l-38 39h-21v-2h1q4 0 5 -1q2 0 2.5 -1t1.5 -1q1 -2 1 -5v-31q0 -4 -1 -6q-1 -3 -4 -4q-4 -2 -7 -2v-1h28v1q-3 0 -5 1q-2 0 -2.5 0.5t-2.5 0.5
l-3 5q-1 1 -1 7v32l46 -47h2v38q0 6 3 11q1 3 9 3v2zM444 365q-3 2 -7 4l-10 4h-6l-1 1l-8 2q-2 1 -3 1t-2 1q-1 0 -3 2t-2 4q0 3 1 4q0 -1 2 3l4 2q2 0 3 0.5t3 0.5q4 0 8 -2q5 0 8 -3q4 -2 6 -4t2.5 -4.5t2.5 -5.5h2v18h-2q-1 -4 -4 -4t-5 1q-10 5 -18 5q-5 0 -11 -2
l-7 -5q-3 -5 -3 -9q0 -3 3 -6q0 -1 3 -4l7 -3q1 -1 4 -1.5t8 -2.5l4 -1q6 -2 8 -2t4 -2q1 0 2 -1q3 -3 3 -6q0 -1 -2 -5q-1 -1 -5 -4h-6q-6 0 -9 1l-10 4l-6 6q-5 7 -5 12h-2v-25h2q0 4 2 4q2 2 5 2q1 0 1 -0.5t2 -0.5q1 0 1.5 -0.5t2.5 -0.5l8 -3q2 -1 8 -1q3 0 9 2
q2 0 3.5 1t3.5 3q2 1 2 2t2 3v11zM694 0q4 4 4 13q0 10 -4 14q-3 6 -12 6t-12 -6q-4 -6 -4 -14q0 -7 4 -13q2 -6 12 -6t12 6zM935 -146q2 3 2.5 6.5t0.5 6.5q0 11 -3 15q-3 5 -12 5t-12 -5q-3 -6 -3 -15q0 -7 3 -13t12 -6t12 6zM818 389q1 2 3 2q2 1 5 1v2h-27v-2h3
q5 0 6 -1q2 -1 2 -4q0 -2 -3 -6l-11 -15l-14 18l-2 4v1q0 2 1 2q0 1 3 1h5v2h-35v-2h1q6 0 8 -1l3 -3t2 -3l17 -22v-12q0 -5 -2 -7l-4 -2t-4 -1h-3v-1h38v1h-4q-4 0 -7 3q-3 1 -3 7v13l14 19l3 4q4 2 5 2zM757 364h-1q-2 -2 -2 -3.5t-1 -3.5q-2 -2 -2 -5q-1 -1 -3 -4
q-4 -4 -7 -5q-2 -2 -8 -2h-14v42q0 5 3 7q2 2 7 2h4v2h-37v-2h3q9 0 9 -9v-32q0 -10 -9 -10h-3v-1h61v24zM387 394h-27v-2h6q1 0 1.5 -0.5t1.5 -0.5q6 -3 6 -13v-19q0 -8 -5 -13l-7 -5h-9q-7 0 -10 2q-2 0 -6 4q-2 2 -2 9v27q0 6 2 7q2 2 8 2h4v2h-37v-2h1q11 0 11 -9v-27
q0 -7 6 -13l9 -3q3 -1 11 -1t14 2q4 2 6 4q5 4 5 13v28l5 5h1l1 1h4v2zM367 480q-6 -2 -7 -2q-3 0 -7 2l9 12l10 12l4 5q2 2 3 2.5t2 2.5l6 5l7 3q5 1 8 0q1 -2 0 -6l-3 -5q-2 -2 -4 -6q-2 -2 -2.5 -3t-2.5 -2q-1 -2 -5 -6q-2 -3 -5 -5q-4 -4 -6 -5zM512 510q0 -2 0.5 -3
t0.5 -3q-1 -2 -1 -5q0 -2 -0.5 -3t-0.5 -3l-2 -5q-1 -2 -5 -6l-4 -3q-2 -2 -5 -2q-1 -1 -5 -1q-2 -2 -4 0q-2 0 -4 2v5l2 6l4 5q5 6 11 10zM888 -1q0 -5 2 -5q2 -2 6 -2h4h1l2 1q4 2 6 4q2 4 2 8v8q-3 -3 -7 -3l-8 -2q-3 0 -6 -3q-2 -1 -2 -6zM524 -133q-3 -3 -6 -3l-8 -1
l-6 -3q-3 -3 -3 -7t3 -5q2 -2 6 -2h3q1 0 1.5 0.5t1.5 0.5l6 4q2 2 2 7v9zM793 -147h18v-18h-18v18zM347 -147h18v-18h-18v18zM299 20q-2 6 -4 10q-2 2 -4 3t-5 1q-11 0 -13 -14h26zM930 655q-1 -2 -5 -6l16 22l8 13l15 20l1 1q0 2 2 2q0 1 1 1q1 1 1 0q0 -2 -2 -6l-4 -6
l-4 -5q-2 -4 -4 -5l-9 -12l-10 -12z" />
    <glyph glyph-name="asciicircum" unicode="^" horiz-adv-x="576" 
d="M321 435q-42 0 -47.5 7.5t7.5 18.5t36 22l39 20l9 4q20 10 41 19t41 18l60 26h-1l135 61l7 3q13 6 28 12t28 7.5t23 -3t13 -18.5l9 -61l13 -83q1 -9 -8 -20t-23.5 -18t-30.5 -8.5t-28 8.5q-10 10 -7 20v8q-2 21 -4.5 42t-6.5 44l-4 10l-51 -22l-86 -39q-18 -7 -34 -14
t-32 -15l-46 -20l-11 -6q-14 -8 -33 -15.5t-36 -7.5z" />
    <glyph glyph-name="underscore" unicode="_" horiz-adv-x="695" 
d="M35 -55q-8 0 -7.5 8.5t5.5 19t13.5 20t16.5 12.5q11 2 22 2t20 -1h492q9 0 7.5 -9.5t-8 -21t-16 -21t-17.5 -9.5h-528z" />
    <glyph glyph-name="grave" unicode="`" horiz-adv-x="560" 
d="M810 683q-77 16 -154.5 31t-154.5 31q-14 3 -19 10.5t-1 16.5t15.5 17t30.5 11q14 2 27.5 -2.5t24.5 -8.5l177 -59l66 -21q2 -1 5.5 -1.5t5.5 -2.5q7 -2 7 -6t-4 -8t-11 -7t-15 -1z" />
    <glyph glyph-name="a" unicode="a" horiz-adv-x="818" 
d="M978 229q-44 -32 -90 -64.5t-95 -63t-101.5 -57t-109.5 -46.5q-21 -8 -41.5 -13.5t-38.5 -6.5t-32 3.5t-23 17.5t-9 30t5 35.5t14.5 37t19.5 35.5l18 28q-32 -22 -64 -42.5t-66 -40.5q-24 -14 -55 -30t-65 -29.5t-68 -22.5t-62 -10t-49 8.5t-28 33.5q-11 32 2.5 69
t41.5 75.5t66 75t76 68.5q37 30 82.5 62t97 59t107.5 46t113 25q60 6 96.5 -12t32.5 -55q-3 -17 -9 -33l29 21q17 12 41 27t51 28t54.5 21.5t51.5 7.5q9 0 10 -3.5t-2 -8t-8 -9.5t-9 -8q-17 -15 -34.5 -29.5t-33.5 -28.5q-48 -43 -92.5 -85.5t-88.5 -87.5q-27 -27 -53.5 -54
t-51.5 -55q-12 -14 -26 -29.5t-27.5 -31t-24 -31t-14.5 -30.5q-2 -8 2.5 -12t12.5 -5.5t19.5 0t22.5 4.5q41 10 82.5 32.5t73.5 41.5q40 23 77 47.5t73 50.5q39 27 75 54q13 9 24 4t0 -14zM700 378q12 14 20.5 30t10.5 31t-4 27t-23 18q-19 6 -40 5.5t-43 -6.5t-43 -15.5
t-39 -21.5q-49 -30 -92 -63.5t-82 -66.5q-45 -36 -85 -72.5t-76 -74.5q-16 -17 -31.5 -34t-29.5 -34q-15 -17 -30 -37t-9 -36q4 -15 24 -16.5t45 4.5t50 15.5t41 17.5q56 26 106 57.5t97 63.5q18 13 36.5 25.5t35.5 26.5q34 40 74.5 79t86.5 77z" />
    <glyph glyph-name="b" unicode="b" horiz-adv-x="600" 
d="M447 425q23 13 54.5 28.5t66 29t69 23t63 11t48.5 -8t25 -34.5q3 -16 -1.5 -33.5t-14.5 -35.5t-23 -36.5t-27 -35.5q-29 -35 -66.5 -69.5t-80.5 -67.5t-90 -64t-101 -57q-53 -26 -112.5 -48.5t-116.5 -30.5q-56 -9 -82 2.5t-28.5 37t13.5 61.5t42.5 76.5t60 82.5t65.5 79
t58.5 66t39.5 43q72 79 146.5 156.5t156.5 153.5q37 34 77 70t84 70t94 64.5t107 54.5q23 9 46.5 16.5t44.5 5.5q24 -2 30.5 -13.5t-1.5 -26.5q-10 -18 -26 -36.5t-35.5 -36.5t-40 -35.5t-39.5 -33.5q-90 -75 -185.5 -148t-192.5 -145l-165 -122q-24 -23 -48.5 -46.5
t-48.5 -47.5q33 21 66 41t68 40zM63 61q-5 -14 -2.5 -28.5t20.5 -19.5q20 -7 48 -2t53 15q51 20 92 49.5t79 58.5q75 55 142.5 112.5t124.5 117.5q17 18 30.5 36t26.5 36q4 7 8 15t5 15t-3 12.5t-16 7.5q-20 4 -46 -1t-52.5 -15t-51.5 -21.5t-44 -21.5q-57 -29 -109.5 -61.5
t-100.5 -66.5l-3 -3q-27 -28 -58.5 -57t-60 -58.5t-50.5 -59.5t-32 -60zM579 577q97 72 190 145t178 149q19 18 37.5 36t35.5 37q4 4 12.5 13t15.5 18.5t10.5 18t-2.5 11.5q-6 4 -19 -2t-29 -17t-33 -25t-32 -27t-26 -23t-14 -13q-79 -74 -160 -146.5t-159 -147.5l-110 -104
z" />
    <glyph glyph-name="c" unicode="c" horiz-adv-x="608" 
d="M764 228q-76 -61 -161 -115t-192 -87q-57 -18 -113 -26t-110 -7q-49 0 -79 16t-41 43q-12 32 -2 69t35 75.5t61.5 76t77.5 69.5q43 33 93 64t105 54q56 23 119.5 40.5t119.5 14.5q57 -2 80 -27t14 -62q-10 -37 -43.5 -74t-77.5 -69l-21 -15q-14 -10 -32 -21t-37.5 -22
t-37 -17t-30.5 -6t-18 11q-3 7 2.5 14t14.5 13.5t20 12.5t20 11q50 30 96 64q19 14 39.5 30.5t37.5 34t26.5 35t6.5 33.5q-3 18 -21 24.5t-42.5 6t-52.5 -8t-51 -18.5q-52 -23 -96 -55t-84 -63q-45 -35 -84 -71t-73 -74q-18 -19 -39 -44.5t-35 -51.5t-14.5 -49t22.5 -36
q18 -10 45 -12t57 2t61 11t57 15q74 23 141 57.5t125 75.5q23 16 45 32.5t42 34.5q9 7 17.5 9.5t13.5 1t4 -6.5t-11 -13z" />
    <glyph glyph-name="d" unicode="d" horiz-adv-x="725" 
d="M873 221q-44 -35 -89.5 -69.5t-96.5 -66.5q-21 -14 -45 -28.5t-50.5 -28t-53.5 -24.5t-53 -17q-30 -6 -42.5 1t-14.5 20.5t3.5 30t11.5 28.5q17 31 40.5 62t49.5 63q-41 -29 -83 -56.5t-87 -53.5q-24 -14 -55.5 -30t-65.5 -29.5t-68 -22.5t-62 -10t-49 8.5t-28 33.5
q-10 32 3.5 69t41.5 75.5t65.5 75t76.5 68.5q37 30 82.5 62t96.5 59t107 46t113 25q60 6 96.5 -12t32.5 -55v-4q63 70 129 138.5t138 136.5q60 56 124.5 112.5t139.5 106.5q21 14 46 29.5t52 29t55 24t56 15.5q21 4 39.5 1t21.5 -16q2 -8 -1.5 -16.5t-10 -18t-15 -18.5
t-15.5 -17q-35 -37 -76 -73.5t-85.5 -71.5t-90 -70t-90.5 -69q-70 -54 -142 -107l-144 -106l-92 -92q-46 -46 -91 -93l-71 -72q-35 -36 -72.5 -74t-60.5 -76q-1 0 -3 -5t-3.5 -10t-1.5 -9t2 -3q-1 -3 5 -2.5t13.5 2t15 3.5t9.5 3q40 12 74 32t64 40q67 43 125 89
q8 6 15.5 11.5t14.5 11.5q5 5 13.5 13t17.5 13q13 6 21 1t-3 -13zM701 484q-19 6 -40 5.5t-43 -6.5t-43 -15.5t-39 -21.5q-49 -30 -92 -63.5t-82 -66.5q-43 -36 -84 -72.5t-77 -74.5q-16 -17 -30.5 -34t-30.5 -34q-15 -17 -30 -37t-9 -36q4 -15 24 -16.5t45 4.5t50 15.5
t41 17.5q56 26 106 57.5t97 63.5q23 16 45 31.5t43 32.5q11 9 23.5 20t26.5 20q28 32 56 64.5t57 64.5q14 25 13 48t-27 33zM1191 698q89 69 176 143q18 16 38.5 34t40 36.5t35.5 37t25 36.5q1 2 2.5 5.5t2.5 7t0 5.5t-6 2q-11 -1 -21.5 -6t-20.5 -10q-27 -17 -48.5 -36
t-41.5 -38q-41 -35 -80.5 -70t-77.5 -71q-68 -63 -133 -126t-129 -127l-9 -9q64 46 125.5 92t121.5 94z" />
    <glyph glyph-name="e" unicode="e" horiz-adv-x="608" 
d="M765 228q-79 -63 -169.5 -119t-203.5 -88q-54 -16 -107 -23t-102 -6q-52 1 -80.5 21t-36.5 50q-8 34 5 72t41 77t67.5 76.5t83.5 69.5q39 28 87 56.5t101.5 51t109 36t108.5 13.5q50 0 76.5 -17t32.5 -42.5t-6.5 -56t-39.5 -58.5q-28 -29 -66.5 -57t-83 -50t-93.5 -36.5
t-97 -15.5q-48 -2 -84 10t-47 38q-29 -29 -53 -58.5t-41 -59.5q-9 -16 -14.5 -32t-3.5 -29.5t13 -23.5t35 -14q47 -8 102.5 1t112 28.5t109 46t93.5 52.5q32 21 61.5 43t56.5 45q8 8 21 16.5t27 3.5q8 -2 0.5 -8.5t-15.5 -12.5zM386 216q55 5 106.5 30t92.5 54
q22 16 40.5 31.5t36.5 32.5t36 35t28 36q15 27 -2.5 43.5t-60.5 14.5q-27 -2 -53.5 -11t-51 -22t-47 -28t-41.5 -28q-48 -33 -90.5 -67.5t-82.5 -70.5l-4 -4q1 -23 26 -36t67 -10z" />
    <glyph glyph-name="f" unicode="f" horiz-adv-x="342" 
d="M195 75q-20 0 -31.5 5t-16.5 12.5t-5 17.5t3 19q-86 -89 -168 -177q-54 -57 -108.5 -114t-113.5 -113q-39 -38 -81 -74.5t-90 -70.5q-18 -13 -40 -26.5t-46 -25t-49 -18.5t-49 -7q-33 1 -37.5 16.5t9 39.5t40 52.5t55 55.5t53.5 48t36 31q89 75 186 146t198 141
q9 6 18 13t19 13q82 95 165.5 190t171.5 189t182 186.5t196 182.5q41 36 83 71.5t94 67.5q19 13 45 28t54 28.5t57 22.5t55 10q36 1 40 -13.5t-11 -38t-43.5 -51.5t-59.5 -54.5t-57.5 -47.5t-36.5 -30q-108 -88 -220.5 -172t-227.5 -169l-68 -70l-153 -158q-5 -7 -9.5 -13.5
t-9.5 -13.5q-8 -11 -16.5 -23.5t-15 -25.5t-9 -25.5t1.5 -23.5q5 -13 24 -12t42 8.5t44.5 17.5t31.5 16q29 14 54 30t48 33q13 8 25 19t29 18q11 5 21.5 2.5t8.5 -9.5q-2 -5 -13 -11q-20 -15 -42 -30.5t-47 -30.5q-18 -11 -40 -24t-47.5 -24.5t-53.5 -20.5t-57 -12
q-5 -1 -9 -1h-9zM-251 -128q-48 -35 -93 -71.5t-90 -73.5q-42 -36 -81.5 -74t-66.5 -76q-3 -5 -9 -13t-9 -16.5t-2 -15t11 -6.5q12 -1 25.5 2.5t26.5 9.5t25 13t22 13q48 31 84 67t70 71q58 62 111.5 123t107.5 124q11 13 22.5 26t22.5 25q-45 -31 -89 -63t-88 -65zM525 520
q97 71 191.5 142.5t182.5 146.5q42 35 82.5 71.5t73.5 74.5q1 2 7.5 10.5t12.5 17.5t7.5 15.5t-5.5 6.5q-17 -1 -33 -11t-28 -19q-45 -32 -81 -66.5t-75 -68.5q-41 -35 -79 -70.5t-76 -71.5q-48 -45 -94 -90.5t-91 -91.5z" />
    <glyph glyph-name="g" unicode="g" horiz-adv-x="680" 
d="M836 227q-37 -30 -81 -55t-92 -47t-99 -40.5t-100 -35.5q-24 -25 -49 -49t-50 -49q-79 -75 -161 -149.5t-181 -141.5q-44 -30 -93.5 -57t-105.5 -44q-29 -9 -57.5 -12.5t-54 -2t-45 10t-29.5 23.5q-15 23 -7.5 50.5t29 55.5t52.5 55.5t64 50.5q76 53 166 92.5t184 73.5
q41 15 81.5 28.5t82.5 26.5q35 37 69.5 73t70.5 72q-55 -35 -121 -67q-38 -19 -83.5 -35t-87.5 -17q-28 -1 -44.5 7t-24.5 21t-8.5 29t2.5 32q11 38 40 76.5t65 74.5q38 36 80.5 69.5t92.5 64.5q36 22 87.5 46.5t105 39.5t102 16.5t77.5 -20.5q16 -13 16 -31t-8 -37
q30 23 64 45t72 37q8 3 19.5 6t22 3.5t16.5 -2t3 -10.5q-2 -6 -10 -11t-17 -6q0 -1 -3 -3.5t-7 -5.5t-7.5 -5.5t-4.5 -3.5q-31 -27 -56 -54.5t-52 -55.5q-66 -71 -132 -140.5t-135 -138.5l49 18q48 17 94 37t89 44q20 12 40.5 24.5t37.5 26.5q7 5 15 9.5t15 1.5q13 -5 2 -14
zM671 384l8 7q11 13 18.5 28t8.5 28t-6 23t-25 15q-19 4 -39 2t-40 -9t-39 -17t-36 -21q-91 -60 -172.5 -128t-147.5 -137l-25 -25q-14 -14 -26 -28t-19 -27.5t-2 -23.5q6 -14 26.5 -13.5t45 7t48.5 17t39 17.5q51 24 98 53t90 59l34 24q38 38 77 75t84 74zM-75 -147
q-56 -26 -104.5 -57.5t-87.5 -66.5q-19 -17 -35.5 -36t-26.5 -37.5t-10.5 -36.5t13.5 -31q13 -13 35 -16t47.5 0.5t52.5 13t50 21.5q54 27 92.5 60.5t72.5 68.5q62 62 120.5 123t117.5 123q-88 -29 -173 -60t-164 -69z" />
    <glyph glyph-name="h" unicode="h" horiz-adv-x="707" 
d="M-47 5q14 28 34.5 56t44.5 55q28 34 55 67.5t56 67.5q21 26 44.5 50.5t48.5 50.5q71 78 146.5 155.5t156.5 155.5q41 39 83 78t85 77q41 35 83.5 69.5t93.5 65.5q19 12 44.5 26.5t52.5 27t54.5 20.5t52.5 8t32.5 -8t4.5 -20t-13.5 -26t-20.5 -25q-34 -38 -75 -73t-83 -70
q-46 -38 -92.5 -74t-94.5 -73q-69 -52 -137 -102.5t-137 -101.5l-133 -141q-19 -21 -38.5 -42.5t-39.5 -42.5q81 60 168 117q49 32 99.5 62.5t106.5 56.5q17 8 37.5 17t41.5 16t42 11t39 2q26 -3 31.5 -17.5t0 -32.5t-18 -37.5t-22.5 -32.5q-29 -38 -67.5 -75t-79.5 -73
q-39 -36 -80 -71.5t-80 -72.5q-17 -15 -34 -31t-26 -33q-5 -8 -2.5 -13t10 -7.5t17.5 -2.5t21 1q58 8 112.5 37t99.5 57q23 15 45.5 30.5t44.5 31.5l37 30q11 8 20.5 17t20.5 16q9 5 17.5 4.5t10.5 -5.5t-2 -8.5t-10 -8.5q-10 -9 -22 -17.5t-24 -17.5q-43 -32 -89.5 -63
t-96.5 -59q-49 -26 -104.5 -50.5t-111.5 -27.5q-30 -2 -47 6t-23.5 21t-4 29.5t11.5 33.5q18 37 50 73t68 71q29 31 63 61t68 59l67 57q23 20 50 41t43 42q3 5 -8 5t-26.5 -3t-30 -6t-16.5 -4q-37 -14 -72.5 -33.5t-68.5 -38.5q-75 -46 -144.5 -95t-137.5 -100
q-32 -25 -65 -50.5t-64 -51.5l-2 -2l-14 -12q-7 -6 -14 -12.5t-15 -11.5l-7 -6q-11 -9 -23.5 -18t-26.5 -18q-9 -5 -18 -11t-20 -11q-5 -3 -11.5 -4.5t-12 -1.5t-8.5 2t-1 8zM716 659q48 37 94.5 73.5t91.5 74.5q43 36 84 72.5t73 74.5q3 4 10 12t12 16.5t6.5 15t-7.5 7.5
q-5 1 -11 -1.5t-13 -5.5t-13 -7l-9 -6q-44 -29 -79 -63t-73 -65q-97 -85 -186 -170.5t-174 -173.5q50 36 98 72.5t96 73.5z" />
    <glyph glyph-name="i" unicode="i" horiz-adv-x="395" 
d="M552 229q-43 -32 -89 -64.5t-94.5 -63t-101 -57t-109.5 -46.5q-23 -8 -45.5 -13.5t-41 -6t-33 5.5t-21.5 20t-6 30.5t7 34t15.5 35t20.5 34.5q52 78 129.5 154.5t164.5 148.5q9 7 28.5 24.5t42.5 32.5t44.5 22t33.5 -8q4 -6 1 -13.5t-9 -15.5t-13.5 -16t-13.5 -14
q-17 -19 -33 -37.5t-34 -37.5l-135 -148q-23 -26 -47 -52l-48 -52l-46 -55l-20 -26q-10 -14 -9 -25q0 -8 9.5 -10.5t23 -1t27.5 5t23 6.5q38 16 75.5 36t69.5 40q40 23 75.5 47t70.5 49q17 11 33.5 23t32.5 24q6 4 12.5 5t11 -1t4.5 -6t-6 -8zM746 781q-32 0 -41 13.5t0 30
t33 30.5t56 14t40.5 -14t-0.5 -30.5t-32.5 -30t-55.5 -13.5z" />
    <glyph glyph-name="j" unicode="j" horiz-adv-x="297" 
d="M453 227q-36 -30 -79.5 -55t-91.5 -47t-98.5 -40.5t-99.5 -35.5l-81 -80q-76 -75 -157 -149.5t-178 -143.5q-42 -29 -87 -56.5t-97 -47.5q-28 -11 -58.5 -18t-58.5 -9.5t-52.5 1.5t-40.5 16q-27 19 -25.5 46.5t20 57.5t49.5 59.5t64 53.5q77 57 171.5 99t192.5 77
q42 15 83 28.5t83 27.5q48 52 97 103t101 102q39 38 79 76t83 75q38 34 83.5 69t99.5 61q8 4 19 8.5t23 8t22.5 4t16.5 -3.5q7 -5 4.5 -9t-9 -8.5t-15 -8.5t-12.5 -7q-34 -26 -60.5 -55.5t-53.5 -57.5q-69 -72 -137 -144.5t-140 -144.5l49 18q48 18 93.5 38t88.5 44
q21 12 41 24.5t37 26.5q7 5 15 9.5t16 1.5q5 -2 5.5 -6t-5.5 -8zM-456 -148q-57 -27 -107 -59.5t-91 -69.5q-18 -17 -33.5 -36t-24.5 -37.5t-7.5 -36t18.5 -29.5q16 -12 40.5 -13.5t52 4.5t55.5 17t52 24q39 23 69.5 49t59.5 54q69 66 132 132.5t126 132.5
q-88 -29 -174.5 -60.5t-167.5 -71.5zM725 781q-32 0 -41 13.5t0 30t33 30.5t56 14t40.5 -14t-0.5 -30.5t-32.5 -30t-55.5 -13.5z" />
    <glyph glyph-name="k" unicode="k" horiz-adv-x="650" 
d="M-47 5q14 28 34 56t43 55q29 34 55.5 67.5t55.5 67.5q22 26 46 50.5t47 50.5q143 156 305 311l82 78q41 39 84 77q41 35 83.5 69.5t93.5 65.5q20 12 45 26.5t52 27t54.5 20.5t52.5 8q26 0 33.5 -8t4.5 -20t-13 -26t-20 -25q-34 -38 -75 -73t-84 -70q-47 -38 -93 -74
t-95 -73q-68 -52 -136.5 -103t-137.5 -102l-132 -140q-45 -51 -93 -99q79 60 165 117q46 32 95.5 62.5t103.5 56.5q17 8 38 18.5t43.5 20t44.5 16.5t41 9q54 3 75 -19.5t10 -54.5q-11 -35 -49.5 -68t-88.5 -57q-78 -39 -161 -52t-164 -17l9 -3q20 -8 32.5 -21t19.5 -29
q11 -32 -5 -68t-41 -73q-3 -5 -7.5 -11.5t-7.5 -13.5t-2 -12t9 -6q25 -3 56.5 8.5t54.5 23.5q57 28 107 62.5t93 69.5q12 9 22.5 18t20.5 18q7 5 13 11t14 11q11 5 19.5 2.5t4.5 -9.5q-3 -5 -10 -10t-12 -10q-42 -33 -87 -66t-93 -63q-43 -27 -96.5 -55t-109.5 -38
q-29 -5 -46 0.5t-26.5 16.5t-12 25t-2.5 28q2 29 13 58t29 58q6 13 10 26.5t0.5 24.5t-16 17.5t-37.5 4.5q-78 -57 -155 -119l-75 -62l-11 -9h-1q-10 -9 -22.5 -18t-26.5 -18l-37 -22q-6 -3 -12.5 -4.5t-12 -1.5t-8 2t-0.5 8zM687 386q9 6 26.5 19.5t31.5 28t20 27.5t-7 18
q-20 8 -44 3.5t-49 -14.5q-48 -19 -92 -45.5t-85 -52.5q-40 -26 -78.5 -52.5t-75.5 -53.5q46 -1 93.5 8t93 25.5t87.5 39.5t79 49zM716 659q48 37 94 73.5t90 74.5q43 36 84.5 72.5t73.5 74.5q3 4 9.5 12t12 16.5t6.5 15t-7 7.5q-5 1 -11 -1.5t-12.5 -5.5t-12.5 -7l-9 -6
q-45 -29 -79.5 -62.5t-72.5 -65.5q-99 -85 -189 -172t-176 -175q51 37 100.5 74t98.5 75z" />
    <glyph glyph-name="l" unicode="l" horiz-adv-x="282" 
d="M435 221q-44 -35 -90 -69.5t-97 -66.5q-21 -14 -45.5 -28.5t-50.5 -28t-53 -24.5t-54 -17q-29 -6 -41 1t-14 20.5t3.5 30t11.5 28.5q20 37 48 74t60 74q107 128 221.5 253t244.5 248q59 56 123 112.5t140 106.5q21 14 45.5 29.5t51.5 29t55.5 24t55.5 15.5q22 4 40 1
t22 -16q2 -8 -1.5 -16.5t-10 -18t-15 -18.5t-15.5 -17q-35 -37 -76 -73.5t-85.5 -71.5t-90.5 -70t-90 -69q-69 -54 -140.5 -106t-143.5 -105q-47 -47 -93.5 -93t-92.5 -94q-33 -36 -69 -72q-35 -36 -73.5 -74t-61.5 -76l-2 -5q-2 -4 -3.5 -9.5t-2 -9.5t1.5 -3q0 -3 6 -2.5
t14 2t15.5 3.5t9.5 3q38 12 73 32t65 40q67 43 125 89l28 23q7 5 15 13t17 13q12 6 20 1t-1 -13zM752 698q45 35 88.5 71t86.5 72q19 16 39.5 34t39.5 36.5t35 37t26 36.5q2 4 5 12.5t-7 7.5t-20.5 -6t-19.5 -10q-27 -17 -48.5 -36t-43.5 -38q-39 -35 -78.5 -70t-78.5 -71
q-68 -63 -133 -126t-130 -127l-11 -10q129 93 250 187z" />
    <glyph glyph-name="m" unicode="m" horiz-adv-x="1080" 
d="M-80 7q110 121 219.5 239.5t220.5 239.5q11 11 24 23.5t28 22.5t32.5 14t38.5 -2q19 -6 22 -15.5t-3.5 -20.5t-18.5 -23.5t-22 -22.5q-70 -67 -138 -133.5t-138 -133.5q31 23 61.5 46t62.5 46q47 34 96 67t101 64q23 13 49 28t54 28.5t57 24.5t57 17q47 10 72.5 -3
t23.5 -39q-1 -35 -25 -73t-54 -73l-35 -39q47 32 95.5 63.5t99.5 60.5q47 26 99 54t105 43q45 13 73.5 3.5t24.5 -37.5q-2 -17 -11.5 -35t-23 -36t-30.5 -35.5t-33 -33.5q-30 -31 -63.5 -61t-68.5 -59q-26 -23 -53 -47t-53 -47l-20 -18q-12 -10 -24 -21.5t-22 -23t-13 -21
t3.5 -15t27.5 -5.5q26 0 53 8t53 19.5t50.5 25.5t44.5 27q48 29 91.5 60t85.5 64q5 5 12 11t15 8q10 3 17 0.5t5 -7.5q-1 -6 -9 -11.5t-13 -10.5q-13 -9 -23.5 -17.5t-21.5 -17.5q-45 -32 -92 -63.5t-99 -58.5q-25 -13 -53 -26t-57.5 -23t-58.5 -15.5t-56 -2.5t-38 14.5
t-11.5 27.5t7 34t17.5 34q23 38 56 75t72 74t81 72.5t82 70.5q23 20 46.5 39.5t43.5 39.5q10 10 10 14t-19 2q-29 -2 -60.5 -14t-61.5 -27.5t-58 -33t-50 -31.5q-57 -36 -112.5 -74t-107.5 -76l-82 -61q-40 -34 -80 -67t-86 -65q-20 -14 -39.5 -27t-42.5 -25
q-11 -6 -22.5 -7t-20 1t-12.5 7t-1 13q6 13 20.5 27.5t24.5 26.5q20 20 39 38.5t39 37.5q36 32 71 65.5t70 66.5q29 26 57 52.5t54 53.5q12 13 26.5 26.5t28 27t24.5 27.5t17 27q4 10 -3 13t-19.5 2t-29 -5.5t-32.5 -9.5t-29 -10t-19 -8q-53 -26 -103 -57.5t-98 -63.5
q-66 -45 -129 -92.5t-123 -95.5q-32 -26 -63.5 -51t-60.5 -51q-10 -8 -18 -16t-17 -16q-3 -4 -7 -7.5t-8 -7.5q-11 -11 -27 -15.5t-28.5 -3t-17 8.5t7.5 19z" />
    <glyph glyph-name="n" unicode="n" horiz-adv-x="707" 
d="M-80 7q110 121 219.5 239.5t220.5 239.5q11 11 24 23.5t28 22.5t32.5 14t38.5 -2q19 -6 22 -15.5t-3.5 -20.5t-18.5 -23.5t-22 -22.5q-72 -69 -142.5 -138t-142.5 -138l-35 -35q45 34 89.5 66.5t90.5 64.5q50 35 99.5 67.5t103.5 64.5q25 14 49.5 27t50.5 26
q29 14 57 26.5t60 20.5q25 6 47 4t33 -15q9 -14 3 -32t-17 -35q-21 -37 -54.5 -72.5t-69.5 -70.5q-40 -38 -82 -74t-83 -73q-20 -17 -38.5 -35t-36.5 -35l-14 -14q-8 -8 -13 -16t-5 -14.5t11 -9.5q13 -4 29.5 -3t34.5 5.5t35.5 11t32.5 12.5q53 23 100 53.5t90 61.5
q43 30 80 62q8 5 15.5 12t18.5 6q9 0 11 -5.5t-5 -11.5q-5 -6 -16 -13t-20 -13q-23 -17 -45.5 -33.5t-47.5 -33.5q-48 -32 -98 -62t-107 -53q-32 -14 -66 -23t-66 -9q-29 0 -43.5 8.5t-19 22t-0.5 30t12 32.5q19 37 52 73.5t68 71.5q46 46 98 90t104 89q17 14 34.5 28.5
t33.5 29.5l9 9q5 5 6.5 8.5t-2 5t-13.5 1.5q-23 -1 -47.5 -8.5t-47.5 -18.5t-45 -23.5t-40 -23.5q-93 -54 -177 -112.5t-165 -118.5q-41 -31 -80.5 -61t-78.5 -62q-15 -11 -29.5 -23t-28.5 -24l-13 -12q-11 -11 -27 -15.5t-28.5 -3t-17 8.5t7.5 19z" />
    <glyph glyph-name="o" unicode="o" horiz-adv-x="660" 
d="M153 264q29 32 66 63.5t80 60t91.5 52.5t100.5 42q51 18 103 27t96 1q43 -8 64 -28t25 -49q4 -31 -8.5 -65.5t-37 -69t-58.5 -68t-72 -63.5q-37 -30 -85.5 -61t-103.5 -56.5t-112.5 -42t-112.5 -16.5q-50 0 -78 13.5t-39 35.5t-8 51t16 59t32.5 60t40.5 54zM257 242
q-38 -35 -71.5 -73.5t-50.5 -76.5q-6 -13 -8 -27.5t2.5 -26.5t17.5 -19.5t38 -5.5q28 3 56.5 12t55 22t51 28.5t45.5 29.5q50 33 93 68t81 73q51 48 93 101q12 16 25.5 35t22 37.5t9 35.5t-12.5 29q-13 11 -35 11t-47 -7t-49.5 -17.5t-42.5 -20.5q-54 -29 -100.5 -63.5
t-88.5 -69.5q-22 -18 -43 -37t-41 -38z" />
    <glyph glyph-name="p" unicode="p" horiz-adv-x="675" 
d="M465 496q-12 -28 -32.5 -56t-43.5 -55q-15 -17 -29.5 -34.5t-28.5 -34.5q38 27 77.5 53t82.5 51q24 14 56 30t66 29.5t68 22.5t62.5 10t49 -8.5t28.5 -33.5q10 -32 -3.5 -69t-42 -75.5t-66.5 -75.5t-76 -68q-37 -30 -82.5 -62t-97 -59t-107 -46t-112.5 -25
q-30 -3 -54.5 0t-42 12t-26.5 23t-7 32q0 4 1 6q-54 -57 -109.5 -112.5t-114.5 -112.5l-82 -78q-41 -39 -86 -77q-41 -35 -83.5 -69.5t-93.5 -65.5q-20 -12 -45 -26.5t-52 -26.5t-54.5 -20.5t-52.5 -8.5t-32.5 8t-4.5 20t13 26t20 25q34 38 75 73t84 70q46 38 92.5 74
t94.5 73q69 52 137 103t137 102q34 35 66.5 70t65.5 70q25 28 50.5 55.5t52.5 54.5q38 38 77.5 77t84.5 75q11 9 23.5 18t26.5 18l37 22q6 3 12.5 4.5t12 1.5t8 -2t0.5 -8zM155 18q18 -6 39 -5.5t43 6.5t43 15.5t40 21.5q48 30 91 63.5t83 66.5q43 36 83.5 72.5t76.5 74.5
q16 17 31 34t29 34q7 8 15.5 17.5t15 19.5t9.5 19t1 17q-5 15 -24.5 16.5t-45 -4.5t-51 -16t-41.5 -17q-54 -26 -104.5 -57.5t-98.5 -63.5q-21 -16 -43 -31.5t-44 -32.5q-11 -8 -20.5 -17t-19.5 -17q-19 -21 -39 -42t-39 -43l-41 -44q-17 -26 -17.5 -51.5t28.5 -35.5z
M-297 -158q-48 -37 -94 -73.5t-91 -74.5q-42 -36 -83 -72.5t-73 -74.5q-3 -4 -10 -12t-12.5 -16.5t-6.5 -15t7 -7.5q4 -1 10.5 1.5t13 5.5t12.5 7l9 6q45 29 80 62.5t71 65.5q98 85 187 170t174 173q-50 -36 -98 -72t-96 -73z" />
    <glyph glyph-name="q" unicode="q" horiz-adv-x="614" 
d="M905 497q-121 -133 -245.5 -263.5t-250.5 -263.5q26 20 51 39.5t50 39.5q45 34 86.5 67t84.5 67l71 58q6 4 7 6q13 9 23.5 4.5t-0.5 -13.5q-31 -24 -66 -51.5t-70 -56t-70 -56t-66 -51.5q-39 -32 -80 -63t-80 -62l-35 -28q-41 -42 -81 -83.5t-81 -84.5l-111 -115
q-14 -15 -29 -30.5t-28 -30.5q-10 -10 -24 -23.5t-31 -26t-36 -20.5t-38 -7q-22 1 -26.5 11t2 24.5t21 32.5t30.5 34.5t31 31.5l23 23q28 29 55 57t53 56l203 205q53 55 106 109q52 54 106 108q-23 -16 -47 -30q-24 -15 -50 -29q-24 -14 -55 -30t-65 -29.5t-67.5 -22.5
t-62 -10t-49.5 8.5t-28 33.5q-11 32 2.5 69t41.5 75.5t66 75t76 68.5q37 30 83 62t97.5 59t107.5 46t113 25q30 3 54.5 0t42 -12t26 -23t6.5 -32l-3 -14l70 69q14 13 30.5 23.5t40.5 8.5q17 -2 21.5 -12.5t-6.5 -22.5zM708 390q10 13 16 27.5t6 27.5t-6.5 23t-21.5 16
q-18 6 -39 5.5t-43 -6.5t-43 -15.5t-40 -21.5q-48 -30 -91 -63.5t-83 -66.5q-44 -36 -84 -72.5t-76 -74.5q-32 -34 -62 -68q-7 -8 -15 -17.5t-14 -19.5t-9.5 -19t-0.5 -17q4 -15 24 -16.5t45 4.5t50.5 15.5t41.5 17.5q55 26 105.5 57.5t96.5 63.5q20 14 40.5 28.5t40.5 29.5
q40 41 80.5 81t81.5 81z" />
    <glyph glyph-name="r" unicode="r" horiz-adv-x="516" 
d="M117 223l82 66q41 33 80 65q43 34 85.5 67.5t79.5 68.5q-17 24 -20.5 51t28.5 59q18 19 48.5 32t59.5 12q32 -1 41.5 -16.5t-1.5 -35.5q-7 -13 -19 -25t-26 -24q-1 -9 -1 -16v-8q-2 -18 -3 -36t1 -35q2 -16 6.5 -31t4.5 -31q0 -13 -6 -27.5t-15.5 -29.5t-21.5 -29.5
t-23 -27.5q-33 -38 -67 -74t-71 -71q-5 -5 -16 -14t-23.5 -20.5t-24.5 -24t-19.5 -23.5t-8.5 -18.5t9 -9.5q19 -4 40.5 0t43.5 12t42.5 18.5t37.5 20.5q48 30 90 63t79 68l11 11q9 9 19 17t18.5 11.5t11.5 -5.5q1 -4 -5 -11t-14.5 -14.5t-17 -14.5t-12.5 -11
q-40 -34 -82 -66t-91 -61q-41 -23 -88.5 -44t-95.5 -25q-25 -2 -40 3t-22 14.5t-7.5 22.5t4.5 27q13 38 42.5 76t64.5 74q36 35 75.5 69.5t81.5 68.5q25 22 33.5 35.5t1.5 35.5q-4 15 -14.5 29.5t-22.5 29.5q-44 -35 -86 -69t-86 -68q-26 -21 -52.5 -42t-53.5 -43
q-9 -8 -24 -22.5t-29 -17.5q-12 -3 -16 2.5t4 11.5z" />
    <glyph glyph-name="s" unicode="s" horiz-adv-x="515" 
d="M524 551q-13 -12 -16.5 -26t-2 -28t5 -27t5.5 -23q5 -21 9 -41.5t8 -41.5q5 -30 4 -62.5t-10 -66.5t-28.5 -68t-52.5 -67q-32 -32 -77.5 -61t-99.5 -43q-24 -6 -48.5 -8.5t-47 -1.5t-42 6t-32.5 14q-18 11 -23.5 26.5t-1 33.5t16.5 36.5t29 35.5q34 35 86 63.5t111 41.5
q39 9 77 9q-1 24 -4 48.5t-4 49.5t1 50.5t10 51.5l-8 -7l-159 -146q-14 -14 -28.5 -26.5t-28.5 -26.5q-7 -6 -17 -15.5t-21 -9.5q-9 0 -10 3.5t3 8.5t10 10t9 8q14 14 29 27.5t31 27.5l164 152l52 48q9 13 22 24.5t31 21.5q14 8 31 13q13 3 18.5 -2t-1.5 -12zM201 181
q-23 -14 -44 -31.5t-35.5 -36.5t-21.5 -37.5t-1 -34.5q4 -11 15.5 -18t27.5 -10t35 -3t39 4q28 5 50 16.5t39.5 26.5t30.5 31.5t23 32.5q16 29 25 57t11 55q-48 2 -98.5 -11.5t-95.5 -40.5z" />
    <glyph glyph-name="t" unicode="t" horiz-adv-x="360" 
d="M510 221q-38 -30 -81 -64t-90.5 -65t-100 -56.5t-109.5 -40.5q-21 -5 -39.5 -7.5t-34 -1t-26.5 8t-15 19.5q-5 15 -1.5 33.5t12.5 37.5t21 38t23 36q31 42 66.5 83.5t70.5 83.5q59 70 120 139.5t130 138.5l13 13h-206q-16 0 -15 10t21 10h221q29 29 60 57t64 56
q43 35 89.5 66.5t103.5 56.5q14 6 35 14t42.5 13t40.5 5.5t29 -8.5q11 -11 1.5 -26t-22.5 -28q-17 -19 -36.5 -37.5t-39.5 -35.5q-41 -34 -82 -67t-85 -66h288q7 0 9.5 -3t0.5 -7t-7.5 -7t-12.5 -3h-304q-45 -34 -89 -67t-89 -66l-58 -43l-99 -103q-58 -59 -117 -118.5
t-104 -120.5q-12 -15 -22 -31t-12 -31q0 -20 30 -21q25 -3 53 5t55.5 21t53 28.5t45.5 27.5q35 22 66.5 45t60.5 46q11 9 22.5 20.5t25.5 19.5q6 5 13 6t11 -0.5t5 -5.5t-5 -8zM816 759q17 15 34 30.5t31 31.5l15 15q8 8 13 16q5 7 5.5 12.5t2.5 10.5q-1 -1 -6 -2.5t-11 -4
t-11.5 -4.5t-7.5 -3q-25 -14 -45 -31t-38 -34q-39 -36 -79 -71.5t-78 -72.5l-16 -15h44q38 30 75 60t72 62zM644 617h-40l-123 -122q42 30 82.5 60.5t80.5 61.5z" />
    <glyph glyph-name="u" unicode="u" horiz-adv-x="786" 
d="M945 229q-43 -32 -89 -64.5t-94.5 -63t-101 -57t-109.5 -46.5q-23 -8 -45.5 -13.5t-41 -6t-33 5.5t-21.5 20q-8 14 -7 30.5t7.5 34t16 35t20.5 34.5q13 19 27 38t31 38l-5 -3q-47 -34 -95 -67t-100 -64q-47 -27 -104.5 -56.5t-114.5 -41.5q-47 -10 -72 3t-23 39
q1 35 24.5 73t53.5 73q66 76 153 151q42 36 85.5 71.5t91.5 69.5q20 14 40 27t43 25q10 6 21.5 7t19.5 -1t12 -7.5t1 -12.5q-6 -13 -20 -27.5t-25 -26.5q-20 -20 -39 -38.5t-39 -37.5q-35 -32 -70 -65.5t-71 -66.5q-29 -26 -56.5 -52.5t-53.5 -53.5q-13 -13 -27.5 -26.5
t-28 -27t-24.5 -27.5t-17 -27q-6 -15 11 -15.5t41 5.5t47.5 15t32.5 13q53 26 103.5 57.5t97.5 63.5t92 65t89 67q38 38 78.5 74.5t83.5 71.5q9 7 28.5 24.5t42.5 32.5t44.5 22t33.5 -8q4 -6 1 -13.5t-9 -15.5t-13.5 -16t-13.5 -14q-17 -19 -33 -37.5t-34 -37.5l-135 -148
q-23 -26 -47 -52l-48 -52l-46 -55l-20 -26q-10 -14 -9 -25q0 -8 9.5 -10.5t23 -1t27.5 5t23 6.5q38 16 75.5 36t69.5 40q40 23 75.5 47t70.5 49q17 11 33.5 23t32.5 24q6 4 12.5 5t11 -1t4.5 -6t-6 -8z" />
    <glyph glyph-name="v" unicode="v" horiz-adv-x="525" 
d="M492 496q-17 -29 -41.5 -58t-53 -57.5t-59 -56.5t-59.5 -55q-26 -26 -52.5 -52t-49.5 -52q-17 -18 -33 -36.5t-30 -37.5q-5 -7 -11 -15.5t-10.5 -17.5t-6 -17t2.5 -14q6 -9 22.5 -8t36.5 7t38.5 14.5t29.5 13.5q56 26 105.5 57.5t94.5 64.5q-7 14 -6.5 30.5t6 33.5
t14.5 34.5t19 34.5q23 35 55 71t77 68q15 11 35 23t42.5 21.5t45.5 15t43 3.5q25 -3 26.5 -17.5t-9 -32.5t-27 -36t-26.5 -29q-51 -54 -112.5 -105t-130.5 -99q2 -14 15.5 -21.5t47.5 -0.5q26 5 49 16t43 24q4 3 11 9t15 12.5t16 11.5t15 6q8 1 10.5 -1t1 -5.5t-5.5 -7.5
t-8 -7q-37 -31 -82 -54q-24 -12 -49 -19t-47.5 -9t-41.5 1.5t-31 14.5q-15 -11 -30.5 -20.5t-30.5 -19.5q-17 -12 -43.5 -29.5t-58 -36t-65 -35.5t-65 -26.5t-58.5 -9.5t-44 15q-13 12 -15 28t3.5 34.5t15.5 37t20 34.5q25 38 54.5 76t63.5 76t72 75.5t81 72.5q24 19 48 36
t51 33q11 7 23 12.5t27 4.5q12 -2 16.5 -8.5t-0.5 -15.5zM599 322q20 18 40.5 36t38.5 37q20 19 38.5 39.5t23.5 40.5q5 13 -7.5 15t-30.5 -5q-29 -11 -51.5 -29.5t-39.5 -35.5q-36 -37 -66.5 -75.5t-50.5 -77.5q-6 -11 -12 -23.5t-10 -25.5q32 26 63.5 52t63.5 52z" />
    <glyph glyph-name="w" unicode="w" horiz-adv-x="845" 
d="M861 495q-18 -27 -42 -54t-51.5 -53t-57 -52t-57.5 -51q-23 -22 -46.5 -43.5t-46.5 -43.5q-38 -35 -75.5 -73.5t-53.5 -75.5q-7 -16 -2 -22.5t18 -6t31 5.5t36.5 12t35 15t26.5 13q45 23 86.5 50t80.5 56q-7 8 -8 17q-8 31 7.5 67t39.5 70q25 35 59.5 71t82.5 65
q15 9 40 21.5t51.5 21t48.5 8.5t30 -15q5 -12 -3.5 -28.5t-19.5 -30.5q-23 -33 -58 -68q-49 -49 -105 -95.5t-117 -91.5q0 -1 1 -2q3 -8 12.5 -11t22 -3t27 2.5t27.5 7.5q23 8 44.5 20t39.5 26q3 3 10.5 9t15 11t14.5 6t9 -6q1 -3 -1.5 -6.5t-7.5 -7.5l-9 -7q-4 -3 -7 -5
q-22 -16 -46.5 -30t-51.5 -25q-43 -17 -78.5 -17.5t-56.5 13.5q-24 -17 -48 -32.5t-48 -31.5q-41 -26 -86.5 -53.5t-96.5 -44.5q-29 -10 -52.5 -10.5t-39 6.5t-22.5 20t-4 30q5 33 28.5 68.5t49.5 68.5q10 12 19.5 24t20.5 24q-54 -42 -110.5 -82.5t-117.5 -77.5
q-21 -13 -46 -28t-52.5 -28t-55.5 -22.5t-54 -11.5q-24 -2 -37.5 4t-19 16.5t-5 24t5.5 27.5q11 35 39 70.5t60 69.5q36 38 77 75t85 72q43 35 87.5 70t95.5 67q14 8 27.5 16.5t28.5 16.5q10 6 22.5 9.5t23 4t17.5 -3t6 -13.5q-2 -10 -13.5 -21.5t-19.5 -20.5
q-16 -16 -32.5 -31.5t-33.5 -30.5q-23 -20 -45 -39.5t-45 -39.5q-56 -51 -112 -100.5t-110 -100.5q-7 -6 -26 -23t-37 -35t-26.5 -33.5t5.5 -18.5q22 -2 45.5 5t46 17.5t43.5 23t37 23.5q90 57 169 116.5t157 121.5l20 16q33 32 69.5 63.5t78.5 61.5q20 14 41.5 28t45.5 27
q11 6 22 6.5t19 -2t10.5 -8.5t-2.5 -14zM947 340q20 18 39 36.5t36 37.5q6 7 15.5 17t17 21t10.5 20.5t-3 15.5q-4 4 -12 3.5t-17.5 -3.5t-18 -7t-13.5 -7q-26 -15 -46 -34.5t-38 -37.5q-36 -37 -65 -76t-46 -77q-11 -21 -16 -41q42 32 80.5 65t76.5 67z" />
    <glyph glyph-name="x" unicode="x" horiz-adv-x="512" 
d="M479 500q-2 -46 -17 -94t-36 -97l167 104l127 80q5 3 11 7.5t13 6.5q14 5 18.5 -1.5t-6.5 -13.5l-10 -6q-78 -49 -155.5 -97.5t-156.5 -97.5l-22 -14l-40 -92q-9 -17 -15 -35t-13 -36q-7 -19 -14.5 -37.5t-11.5 -36.5v-13q0 -7 11 -7q12 0 26 5t27.5 12t26 15t22.5 14
q48 32 92 66t83 69q3 3 11 11.5t18 16.5t19.5 12.5t16.5 -1.5q4 -3 -0.5 -9t-12 -12.5t-16 -13t-13.5 -10.5q-33 -29 -68 -57.5t-73 -56.5q-16 -11 -37.5 -26.5t-46 -29t-50 -23t-48.5 -9.5q-23 1 -33.5 12.5t-15.5 23.5q-7 15 -9.5 32t-1.5 35q1 20 4.5 41.5t8.5 43.5
l-140 -87l-108 -68q-4 -2 -10.5 -7t-14 -9.5t-14.5 -8t-13 -3.5q-15 0 -9.5 7.5t18 16.5t26.5 17t17 10q42 26 82.5 51.5t82.5 51.5l90 57l15 46q13 37 29 74t38 74l-16 -15l-134 -120q-3 -3 -11.5 -12t-19 -18.5t-21 -17t-18.5 -7.5q-10 0 -10.5 3.5t3 9t10 10.5t9.5 8
l73 66q41 37 81.5 74t82.5 74l28 27q3 4 6.5 7t7.5 7q8 7 18.5 11t20 4.5t15.5 -3t6 -11.5z" />
    <glyph glyph-name="y" unicode="y" horiz-adv-x="648" 
d="M804 227q-36 -30 -80 -55t-92.5 -46.5t-99 -40.5t-100.5 -36q-24 -25 -49 -49t-50 -49q-79 -75 -160.5 -149t-180.5 -142q-44 -30 -94 -57t-105 -44q-29 -9 -58.5 -12.5t-54.5 -2t-44.5 10t-28.5 23.5q-15 23 -7.5 50.5t29 55.5t52.5 55.5t64 50.5q75 53 165.5 92.5
t184.5 73.5q41 15 81 28.5t82 26.5l139 144q-18 -11 -36 -21t-37 -20q-43 -22 -96 -41t-102 -24q-23 -2 -38 2.5t-23 13.5t-10.5 21t-0.5 25q7 37 35.5 75.5t62.5 74.5q36 38 76.5 74t85.5 71q35 29 73.5 57t85.5 51q10 5 21 6t19 -1t11.5 -7.5t0.5 -12.5q-3 -11 -14 -22
t-20 -22q-48 -53 -104.5 -104t-110.5 -103q-19 -18 -38 -36.5t-38 -38.5l-35 -36q-4 -5 -11 -12t-13 -15t-8.5 -15t2.5 -11q9 -6 24 -6t32 3t34 8.5t29 11.5q46 20 87 43.5t79 49.5q15 10 29.5 20t28.5 21q38 38 77.5 75t83.5 74q38 32 85 67t101 56q8 3 19.5 6t21.5 3.5
t16.5 -2t4.5 -10.5q-2 -6 -10 -11t-19 -6q1 -1 -2 -3.5t-6.5 -5.5t-7.5 -5.5t-5 -3.5q-30 -27 -55.5 -54.5t-52.5 -55.5q-66 -71 -132 -140.5t-135 -139.5l50 19q48 17 94 37t89 44q20 12 40.5 24.5t37.5 26.5q7 5 14.5 9.5t15.5 1.5q12 -5 1 -14zM-107 -147
q-55 -26 -104.5 -57.5t-87.5 -66.5q-18 -17 -35 -36t-26.5 -37.5t-10 -36.5t13.5 -31q13 -13 34.5 -16t47 0.5t52.5 13t50 21.5q54 27 93 60.5t74 68.5q61 62 119.5 123t117.5 124q-88 -29 -172.5 -60t-165.5 -70z" />
    <glyph glyph-name="z" unicode="z" horiz-adv-x="543" 
d="M497 487q-15 -11 -23.5 -22.5t-8 -21t11 -15t32.5 -4.5q55 2 116.5 16t115.5 34q15 5 28.5 11t27.5 12q8 4 16.5 9t16.5 7q16 3 17 -4.5t-10 -13.5q-11 -5 -21 -11t-21 -12l-405 -231q-30 -17 -58 -33l-56 -32l30 -2q54 -8 81 -33q23 -23 28 -55q8 3 17 6t17 7
q57 24 108 53.5t94 63.5q8 5 17.5 14t20.5 8q9 0 11 -4.5t-5 -9.5q-6 -7 -16 -14t-17 -12l-53 -35q-44 -28 -92.5 -50.5t-100.5 -42.5q0 -30 -17 -62q-17 -35 -50 -70.5t-77 -66t-98 -54t-112 -32.5q-24 -4 -51 -5t-51.5 1.5t-44.5 9.5t-31 19q-11 15 -5.5 32t21.5 34.5
t39 34t46 29.5q74 42 155.5 65t165.5 46q8 17 12 34t0.5 32t-16.5 25.5t-39 14.5q-4 1 -13.5 1t-17 1.5t-9 5t10.5 9.5l8 5l138 79l290 165l-19 -9q-48 -23 -102 -43t-105 -22q-44 -1 -71 13t-32 37l-62 -56q-31 -28 -60 -56q-14 -11 -26 -22.5t-23 -22.5q-7 -5 -15.5 -13
t-19.5 -8q-10 0 -10.5 4t4 9.5t11.5 11t10 8.5q36 31 69 63l125 112q6 18 24 36q18 17 45.5 31.5t56.5 20.5q11 2 20.5 0.5t14.5 -6t3.5 -11t-11.5 -13.5zM153 -7q-27 -8 -56 -19t-56.5 -23.5t-52.5 -28t-44 -32.5q-14 -14 -23 -30t2 -27t34 -13.5t45 -0.5q55 4 102 26
t84.5 53.5t65 67t43.5 66.5q-36 -10 -72.5 -19t-71.5 -20z" />
    <glyph glyph-name="braceleft" unicode="{" horiz-adv-x="1120" 
d="M100 588l154 33l-6 21l23 7l-5 23l24 5l-3 25l23 2v23h21l2 21l23 -3l4 23l25 -4l6 23l22 -6l9 21l23 -9l12 22l21 -11l12 20l21 -14l15 19l19 -15l16 16l15 -14l15 13l15 -17l20 13l13 -21l22 12l11 -20l21 9l10 -23l24 7l7 -22l22 5l5 -24l25 2l1 -15l231 50v-283
l-106 -23l2 -2l-13 -15l13 -16l-18 -15l13 -20l-21 -13l13 -21l-21 -12l9 -21l-23 -10l8 -24l-22 -7l4 -22l-24 -5l2 -25l-23 -2v-23h-20l-3 -21l-22 2l-5 -22l-24 4l-7 -23l-22 7l-8 -23l-24 10l-11 -22l-21 11l-13 -20l-21 13l-14 -18l-18 15l-17 -16l-15 14l-16 -14
l-14 18l-20 -13l-14 21l-21 -12l-11 20l-22 -9l-10 23l-23 -7l-7 22l-23 -5l-5 24l-24 -2l-3 23h-23v21l-20 2l2 23l-23 4l5 24l-24 7l7 22l-16 6l-141 -30v283zM715 520q6 3 11 8l12 11l1 1q-1 -1 -1 -3q0 -4 2 -8t6 -5q3 -1 11 1q10 4 14 7l12 9l4 4l4 4l8 7q-1 -1 -1 -3
q0 -1 -0.5 -1.5t-0.5 -1.5v-4q-2 -3 0 -5q0 -2 0.5 -2.5t0.5 -1.5q1 -3 4 -3q1 -1 4 -1t5 1l4 2l5 3l7 4l18 15l10 10l-3 -7q-2 -4 -2 -11v-3q2 -2 3 -2q0 -1 3 -1q1 0 5 2q2 1 3.5 1.5t3.5 2.5l6 4l6 6q2 1 6 5q3 2 5.5 5t5.5 6l10 12q1 1 1 2q-1 1 -2 1q-2 0 -4 -2l-2 -3
l-7 -8l-6 -7l-3.5 -3.5l-3.5 -3.5l-8 -7l-4 -3l-5 -2l-1 -1q-1 0 -2 1h1l4 8l2 4t3 4l4 6q2 2 4 6l36 53q6 6 8 10l9 9l21 24q5 6 9.5 12t9.5 12l6 10v5q-1 1 -5 1q-2 0 -6 -2q-2 0 -3.5 -1t-3.5 -2q-4 -2 -6 -4l-5 -4q-3 -2 -6 -4.5t-6 -5.5l-10 -11q-4 -4 -10 -12
q-2 -4 -8 -12q-5 -6 -8.5 -12t-7.5 -12l-15 -25l-11 -19l-4 -9q-1 0 -1 -1l-8 -8q-2 -3 -5 -5.5t-6 -5.5l-11 -10l-5 -4l-4 -3l-2 -1l-3 -2h-3h-2l3 6l3 5q0 1 0.5 1t0.5 1l1 1q2 4 4.5 7.5t5.5 7.5q2 4 4.5 8t5.5 8l8 12l4 7q2 2 4 6l1 1l1 1q0 1 0.5 1t0.5 1l1 1q3 2 2 4
q0 1 -4 1l-6 -2l-6 -3l-10 -7l-4 -4l-4 -4q0 4 -1 6q0 2 -4 4q-6 1 -12 0q-6 -2 -13 -5q-8 -3 -13 -7q-4 -2 -6.5 -4.5l-4.5 -4.5q-14 -11 -21 -22q-9 -11 -12 -21q-1 0 -1 -0.5t-1 -0.5q-2 -2 -4.5 -5t-5.5 -5q-4 -4 -12 -10q-3 -3 -7 -4q-4 -2 -6 -2h-2q-1 1 0 2l4 5l3 5
l7 8l12 16q3 4 6 7.5t5 8.5l5 10q2 6 1 9q0 3 -1 4q-2 2 -4 2q-3 0 -5 -1l-7 -3l-7 -4q-4 -4 -6 -5q-4 -4 -6 -5q-4 -4 -6 -5l-12 -12q-3 -3 -6 -5.5t-5 -5.5l-6 -7l-6 -6l2 3l14 20l15 21q0 1 0.5 1t0.5 1q1 1 1 2q1 2 1 4l-3 3q-1 0 -1.5 0.5t-2.5 0.5q-1 0 -2 -0.5
t-3 -0.5l-6 -3l-3 -3q-2 -1 -2 -2t-1 -2l-3 -4l-44 -76q-1 -1 -1 -4q1 0 1.5 -0.5t1.5 -0.5q3 0 5 1l5 3q0 1 2 3l2 2l3 3q0 1 2 3l10 12l11 12l10 12l12 12l12 11l5 5q2 1 6 5l6 4l7 3q1 0 1 -1h-1l-3 -3q-1 -3 -4 -4l-3 -4l-7 -8q-3 -3 -7 -9q-6 -8 -8 -12l-8 -12
q-2 -3 -4 -11q-2 -5 0 -9t5 -4q6 0 10 1q3 1 6 3t7 4zM494 471q7 1 14 5q7 3 13 9q5 3 9 10l5 10q3 6 3 11v9q0 3 -2 9l-4 9l-3 4q0 2 -2 4q0 1 -2 3v3q1 1 1 2h-5l-2 -2q-3 -1 -7 -5l-3 -7l-1 -1l-3 -4l-18 -25l-3 -4l-3 -5l-1 -1v-1q-1 0 -2 -1l-3 -5l-3 -4l-9 -11
l-12 -11q-3 -3 -7 -4q-4 -2 -7 -2h-1l1 1l4 6l4 5l4 6q2 1 4 5l5 8l5 9l3 8q1 3 1 8q-1 1 -1 4l-2 3q0 2 -1 3v13l4 6q2 5 -2 7q-3 3 -10 0q-7 -2 -9 -4q-4 -3 -6 -7t-2 -7q0 -4 1 -6l2 -2l2 -2l-3 -4l-3 -3l-14 -18l-11 -13q-1 0 -3 -2v-1l-1 -1q0 -1 -1 -1l-6 -8
l-7.5 -7.5t-8.5 -6.5q-10 -8 -19 -12q-2 -2 -5 -2.5t-6 -2.5q-8 -2 -11 -1q-4 0 -4 2q-1 1 -1 4q0 1 2 5l2 5l6 10q4 -2 7 -2q6 0 10 1q7 1 15 6q5 2 14 9l9 9q2 2 3.5 4.5t2.5 4.5l4 8q0 6 -2 8q-2 3 -5 5q-3 1 -10 1q-2 -1 -5 -1t-6 -2q-4 -1 -12 -5q-13 -6 -25 -16
q-11 -9 -17 -20q-3 -3 -7 -11q-3 -5 -4 -11v-10q1 -3 5 -7q6 -4 13 -3q8 0 16 3q9 3 18 9q9 4 18 12l14 12l8 9q0 1 2 3q0 2 2 2l2 4l9 9l9 12q3 3 5.5 6t4.5 6l4 -2l2 -3q1 -2 1 -4q0 -1 -4 -5l-9 -10l-8 -11l-7 -11l-3 -10q-1 -2 -1 -5v-4q2 -3 3 -4t4 -1q2 0 10 2l9 6
q8 6 12 10q3 2 5.5 5t4.5 5q4 4 5 6l5 6l2 3l3 3q2 2 2 3l7 9l12 17q0 -2 0.5 -4t0.5 -4q2 -6 2 -8l2 -4q-10 -4 -14 -7l-11 -9q-6 -6 -7 -10q-2 -4 -2 -10q1 -3 6 -5q3 -1 11 -1zM553 510q-2 -7 0 -13q0 -3 2 -5t6 -4q2 0 3 -0.5t3 0.5h7q5 1 15 5l15 8l13 11l11 10l8 11
l6 10l3 10q1 6 0 9q0 3 -3 6q-1 2 -6 4q-2 0 -4 0.5t-4 0.5q-3 0 -11 -2q-1 0 -7 -2l-7 -3l-14 -9q-4 -2 -7 -5t-6 -5l-10 -11l-7 -11q-5 -8 -6 -15zM175 -9q-6 6 -9 15t-3 19q0 6 1 9q0 2 1 4.5t1 4.5q1 7 8 14q2 3 5.5 5.5t7.5 4.5q5 2 9.5 3t9.5 1h3q3 0 9 -2q3 0 5 -1
l4 -2q7 -4 12 -11q2 -3 4 -7q1 -2 1 -6h-19q0 3 -2 5q-1 3 -6 6t-10 3q-3 0 -5 -1h-4l-8 -6q-2 -2 -3.5 -4t-2.5 -5q-2 -5 -2 -16q0 -9 3 -16q1 -7 7 -9q3 -2 5.5 -3t5.5 -2h3q7 0 10 3q4 0 7 5q2 3 3.5 5.5t1.5 5.5h-21v16h37v-48h-12l-2 11q-3 -5 -8 -8q-3 -2 -5.5 -2.5
t-4.5 -2.5q-3 0 -5.5 -0.5t-5.5 -0.5q-9 0 -14 4q-8 3 -12 9zM1058 -110q3 -3 3 -10v-45h-17v39q0 13 -10 13q-11 0 -11 -13v-39h-17v39q0 5 -1 6q0 3 -3 6q-2 1 -6 1q-11 0 -11 -12v-40h-17v65h16v-10q7 12 19 12q8 0 11 -3q4 -2 7 -8q2 4 8 8q3 3 10 3q8 0 12 -4
q6 -3 7 -8zM464 -102q4 -3 7 -8q2 -2 2 -10v-45h-16v39q0 13 -10 13q-11 0 -11 -13v-39h-18v45q0 3 -3 6q-2 1 -7 1q-11 0 -11 -12v-40h-16v65h16v-10q6 12 19 12q7 0 10 -3q5 -2 8 -8q2 5 7 8q4 3 10 3q8 0 13 -4zM948 -107q2 -2 3 -5t3 -6q2 -4 2 -15q0 -10 -4 -17
q-3 -7 -11 -12q-7 -4 -18 -4q-13 0 -19 5q-7 5 -11 12q-3 7 -3 16t2 13q1 4 2.5 6.5t3.5 5.5q6 6 11 7q4 3 14 3q8 0 14 -3q4 -1 11 -6zM706 39q5 -6 7 -12t2 -14q0 -10 -4 -17q-3 -7 -11 -12t-18 -5q-11 0 -19 5q-6 5 -11 13q-3 7 -3 16q0 5 2 13q1 6 6 11q6 6 11 8
q4 2 14 2t15 -2q2 -2 4.5 -3t4.5 -3zM141 -100h17l-18 -62v-3h-18l-10 47l-10 -47h-18l-18 63v2h18l10 -47l9 47h18l9 -47zM347 -100l-18 -62l-1 -3h-17l-10 47l-11 -47h-17l-18 63v2h18l10 -47l9 47h18l9 -47l10 47h18zM235 -100h18l-18 -62l-1 -3h-17l-11 47l-10 -47h-18
l-17 63v2h17l11 -47l9 47h17l10 -47zM625 -100h17l-18 -62v-3h-18l-10 47l-10 -47h-18l-18 63v2h18l10 -47l9 47h17l10 -47zM174 386l6 6l4 6l6 6q1 2 5 6l36 50q3 5 6 8.5t5 8.5l12 18q3 5 6 9t5 9q3 5 5.5 9t4.5 9q1 3 0 4t-3 1q-4 0 -5 -1l-5 -3l-10 -11l-9 -12
q-5 -5 -8 -11l-9 -11l-32 -46l-15 -24q-4 -6 -7 -12l-6 -12l-2 -3q0 -1 -0.5 -1.5t-0.5 -1.5v-2q0 -1 1 -2h5zM900 -19l-4.5 -1.5t-4.5 -0.5t-9 2q-2 2 -4 3t-4 3q-3 4 -3 12q0 10 5 14q6 4 14 6l15 2q6 1 6 5q0 8 -10 8q-4 0 -8 -2q-3 -1 -4 -8h-16q1 9 4 14q2 4 9 7
q4 2 7 2h8q13 0 18 -2l4 -4t3 -4q2 -6 2 -8v-42q0 -3 4 -3v-3h-19q-1 0 -1 1v1v1q0 2 -0.5 3t-0.5 2q-2 -3 -5 -5q-2 -1 -3.5 -2t-2.5 -1zM542 -159q0 -3 3 -3v-3h-18q0 1 -1 2v1q-1 2 -1 5q-4 -4 -6 -5l-6 -3q-2 -1 -8 -1q-7 0 -9 1q-5 1 -8 7q-4 3 -4 10q0 10 6 15
q4 4 13 6l16 2q5 2 5 5q0 8 -10 8q-2 0 -4 -0.5t-4 -0.5l-2 -4t-1 -4h-16q0 7 3 13q6 6 10 7l6 2q2 0 4 0.5t4 0.5q13 0 18 -4q5 -3 8 -7q1 -3 1 -8v-35q0 -5 1 -7zM316 8h-45q0 -6 5 -11q3 -4 11 -4q3 0 7 2q4 4 4 5h18q-2 -5 -6 -11q-3 -2 -5.5 -4t-4.5 -3q-4 -1 -6.5 -2
t-6.5 -1q-32 0 -32 36q0 5 0.5 8.5t2.5 7.5q3 8 10 12q4 3 8.5 3.5t9.5 0.5q13 0 17 -4q6 -4 10 -13q2 -5 2.5 -9t0.5 -9v-4zM607 353q4 5 4 14q0 6 -2 10t-6 9q-5 5 -11 6q-6 3 -13 3q-11 0 -16 -4q-5 -2 -7.5 -4.5t-4.5 -5.5q-4 -7 -4 -14q0 -8 2 -11q4 -6 7 -9q2 -2 5 -3
t6 -3q8 -2 12 -2q11 0 16 4q6 3 12 10zM187 500q-1 -6 0 -10t6 -7l10 -3q8 0 13 1q2 0 3 1t1 2t-1 1h-3q-2 0 -2 -1q-10 -1 -17 2q-4 2 -5 4q-2 4 -2 6q0 4 1 7l4 8l10 11q2 2 5.5 4.5t6.5 4.5q4 2 7 4t7 4t7.5 3.5t7.5 3.5q4 1 7.5 2t8.5 3l16 3q10 2 15 2t13 -2
q2 -1 4.5 -1.5t4.5 -2.5l5 -7q1 -3 1 -10q0 -3 -2 -11l-6 -11q-2 -4 -8 -12q-2 -3 -5 -5.5t-6 -5.5q-2 -3 -5.5 -5.5t-6.5 -5.5l-13 -8l-14 -6l-8 -3q-3 0 -7 -2h-3q-2 0 -3 -1q-2 0 -2 -1q-2 0 -2 -2q0 -1 1 -1h3q2 0 3 1h3l15 5l15 6l15 7l15 9l13 9l12 11l10 11
q2 3 3.5 6t2.5 6q3 6 3 11q1 6 0 10q-2 6 -4 9q-4 3 -8 5q-6 3 -11 3q-5 1 -14 1q-4 0 -14 -2q-8 -1 -16 -3l-16 -4t-15.5 -5.5t-15.5 -7.5q-4 -2 -7.5 -4t-7.5 -5q-8 -5 -13 -10q-4 -3 -10 -11zM775 -132q5 -3 5 -12q0 -6 -3 -12q-4 -5 -10 -8q-4 -2 -15 -2h-6q-4 0 -6 1
q-6 2 -10 4q-6 4 -7 7q-2 6 -2 10h17q0 -9 15 -9q5 0 8 1q2 4 2 5q0 4 -7 5l-15 4q-3 1 -6.5 2.5t-5.5 3.5q-6 4 -6 12q0 6 3 11q2 4 9 8q4 3 14 3q6 0 10.5 -1t8.5 -3q6 -3 8 -8l2 -5v-5h-17q0 5 -3 7q-1 1 -8 1q-10 0 -10 -6q0 -3 6 -4l15 -4q6 -1 14 -6zM699 -101
q5 -2 7 -7q3 -6 3 -12v-45h-17v39q0 8 -2 10q-1 3 -9 3q-7 0 -10 -4q-3 -5 -3 -11v-37h-18v65h17v-10q7 12 20 12q6 0 12 -3zM783 38q3 -6 3 -12v-45h-17v39q0 4 -2 10q-3 3 -10 3t-10 -4q-2 -3 -2 -11v-37h-18v65h16v-9q7 10 20 10q9 0 12 -2zM484 -10q-3 -5 -8 -7
q-8 -4 -12 -4q-10 0 -16 7q-6 6 -6 17v43h17v-40q0 -12 11 -12q4 0 6 1t6 5q0 2 1 4t1 4v38h16v-65h-16v9zM854 -113q-8 0 -10 -5q-4 -4 -4 -13t1 -12q1 -5 4 -7q2 -2 8 -2q5 0 8 2q3 3 3 9h18q0 -5 -4 -13q-3 -5 -10 -9q-6 -3 -16 -3q-13 0 -21 7q-4 4 -7 10q-1 4 -1 15
q0 14 6 25q8 11 23 11q9 0 15 -3q7 -2 10 -9q5 -5 5 -13h-18q0 3 -2 7q-2 3 -8 3zM423 55q-2 0 -2 -2v-7h11v-12h-11v-53h-17v53h-9v12h9v5q0 18 19 18h9v-13h-5q-3 0 -4 -1zM632 46h12v-12h-12v-53h-17v53h-9v12h9v5q0 18 19 18h8v-13h-4q-4 0 -4 -1q-1 0 -2 -2v-7z
M973 -19h-11q-8 0 -11 2q-4 0 -5 4q0 2 -1 3.5t-1 3.5v40h-8v12h8v17h18v-17h11v-12h-11v-35q0 -2 0.5 -3t0.5 -2q1 0 2 -0.5t3 -0.5l3 1h2v-13zM569 492l-2 2q-1 1 -1 4q0 2 1 3q2 8 5 12q6 8 8 12l6 7l5 6l9 12q3 3 5.5 6t5.5 5l5 4l6 3q2 1 5 1q2 0 3 -2q1 -1 1 -4
q0 -2 -2 -6l-3 -5l-3 -6q-2 -4 -4 -6l-4 -6l-4 -6t-4 -5l-9 -11l-11 -11q-3 -3 -6 -4q-3 -3 -7 -4q-2 -1 -5 -1zM347 63v-17h10v-12h-10v-35q0 -4 1 -5q1 0 2.5 -0.5t3.5 -0.5l2 1h1v-13h-10q-8 0 -11 2q-4 0 -5 4q-1 2 -1 7v40h-9v12h9v17h17zM755 536q2 4 4 6l4 6
q1 2 2 3.5t2 3.5t5 6l10 14l15 18l4 5l4 4l5 3q2 1 5 1q2 1 5 1l3 -2q0 -1 0.5 -1.5t0.5 -2.5t-1 -4q0 -2 -2 -4l-9 -12l-8 -13l-9 -9l-9 -10q-2 -1 -6 -5l-7 -6q-4 -2 -6 -4q-2 -1 -3 -2t-3 -1q-4 -2 -6 -1h-1q-1 1 -1 2l1 2q0 1 1 2zM831 -19h-11q-8 0 -10 2q-5 0 -6 4v47
h-10v12h10v17h16v-17h11v-12h-11v-35q0 -2 0.5 -3t0.5 -2q2 0 3 -0.5t3 -0.5l2 1h2v-13zM593 386l2 -4t2 -5q0 -2 0.5 -4.5t0.5 -5.5q0 -6 -2 -14q-3 -6 -7 -10q-3 -2 -10 -2q-6 0 -7 2q-4 0 -7 5l-3 8q-2 6 -2 11q0 2 0.5 4.5t0.5 4.5l3 7q3 5 4 6q0 1 5 3q4 2 7 2
q1 0 1.5 -0.5t2.5 -0.5l4 -2zM533 -19h-17v88h17v-88zM562 -19h-16v88h16v-88zM511 394h-58v-2h2q5 0 6 -2q3 -2 3 -7v-32q0 -10 -9 -10h-2v-1h58v22q-2 -2 -2 -3.5t-1 -3.5l-6 -8q-3 -3 -5 -3l-5 -2q-3 -1 -7 -1h-9v24h1q7 0 11 -4l2 -3q0 -1 0.5 -1.5t0.5 -2.5q1 -2 1 -5
h1v35h-1v-5l-3 -6q-5 -6 -10 -6h-3v25h10q9 0 12 -1l5 -4l3 -6l3 -8h2v21zM693 394h-27v-2h5q0 -1 2 -1q4 -4 4 -5q2 -2 2 -8v-23l-38 39h-21v-2h1q4 0 5 -1q2 0 2.5 -1t1.5 -1q1 -2 1 -5v-31q0 -4 -1 -6q-1 -3 -4 -4q-4 -2 -7 -2v-1h28v1q-3 0 -5 1q-2 0 -2.5 0.5t-2.5 0.5
l-3 5q-1 1 -1 7v32l46 -47h2v38q0 6 3 11q1 3 9 3v2zM444 365q-3 2 -7 4l-10 4h-6l-1 1l-8 2q-2 1 -3 1t-2 1q-1 0 -3 2t-2 4q0 3 1 4q0 -1 2 3l4 2q2 0 3 0.5t3 0.5q4 0 8 -2q5 0 8 -3q4 -2 6 -4t2.5 -4.5t2.5 -5.5h2v18h-2q-1 -4 -4 -4t-5 1q-10 5 -18 5q-5 0 -11 -2
l-7 -5q-3 -5 -3 -9q0 -3 3 -6q0 -1 3 -4l7 -3q1 -1 4 -1.5t8 -2.5l4 -1q6 -2 8 -2t4 -2q1 0 2 -1q3 -3 3 -6q0 -1 -2 -5q-1 -1 -5 -4h-6q-6 0 -9 1l-10 4l-6 6q-5 7 -5 12h-2v-25h2q0 4 2 4q2 2 5 2q1 0 1 -0.5t2 -0.5q1 0 1.5 -0.5t2.5 -0.5l8 -3q2 -1 8 -1q3 0 9 2
q2 0 3.5 1t3.5 3q2 1 2 2t2 3v11zM694 0q4 4 4 13q0 10 -4 14q-3 6 -12 6t-12 -6q-4 -6 -4 -14q0 -7 4 -13q2 -6 12 -6t12 6zM935 -146q2 3 2.5 6.5t0.5 6.5q0 11 -3 15q-3 5 -12 5t-12 -5q-3 -6 -3 -15q0 -7 3 -13t12 -6t12 6zM818 389q1 2 3 2q2 1 5 1v2h-27v-2h3
q5 0 6 -1q2 -1 2 -4q0 -2 -3 -6l-11 -15l-14 18l-2 4v1q0 2 1 2q0 1 3 1h5v2h-35v-2h1q6 0 8 -1l3 -3t2 -3l17 -22v-12q0 -5 -2 -7l-4 -2t-4 -1h-3v-1h38v1h-4q-4 0 -7 3q-3 1 -3 7v13l14 19l3 4q4 2 5 2zM757 364h-1q-2 -2 -2 -3.5t-1 -3.5q-2 -2 -2 -5q-1 -1 -3 -4
q-4 -4 -7 -5q-2 -2 -8 -2h-14v42q0 5 3 7q2 2 7 2h4v2h-37v-2h3q9 0 9 -9v-32q0 -10 -9 -10h-3v-1h61v24zM387 394h-27v-2h6q1 0 1.5 -0.5t1.5 -0.5q6 -3 6 -13v-19q0 -8 -5 -13l-7 -5h-9q-7 0 -10 2q-2 0 -6 4q-2 2 -2 9v27q0 6 2 7q2 2 8 2h4v2h-37v-2h1q11 0 11 -9v-27
q0 -7 6 -13l9 -3q3 -1 11 -1t14 2q4 2 6 4q5 4 5 13v28l5 5h1l1 1h4v2zM367 480q-6 -2 -7 -2q-3 0 -7 2l9 12l10 12l4 5q2 2 3 2.5t2 2.5l6 5l7 3q5 1 8 0q1 -2 0 -6l-3 -5q-2 -2 -4 -6q-2 -2 -2.5 -3t-2.5 -2q-1 -2 -5 -6q-2 -3 -5 -5q-4 -4 -6 -5zM512 510q0 -2 0.5 -3
t0.5 -3q-1 -2 -1 -5q0 -2 -0.5 -3t-0.5 -3l-2 -5q-1 -2 -5 -6l-4 -3q-2 -2 -5 -2q-1 -1 -5 -1q-2 -2 -4 0q-2 0 -4 2v5l2 6l4 5q5 6 11 10zM888 -1q0 -5 2 -5q2 -2 6 -2h4h1l2 1q4 2 6 4q2 4 2 8v8q-3 -3 -7 -3l-8 -2q-3 0 -6 -3q-2 -1 -2 -6zM524 -133q-3 -3 -6 -3l-8 -1
l-6 -3q-3 -3 -3 -7t3 -5q2 -2 6 -2h3q1 0 1.5 0.5t1.5 0.5l6 4q2 2 2 7v9zM793 -147h18v-18h-18v18zM347 -147h18v-18h-18v18zM299 20q-2 6 -4 10q-2 2 -4 3t-5 1q-11 0 -13 -14h26zM930 655q-1 -2 -5 -6l16 22l8 13l15 20l1 1q0 2 2 2q0 1 1 1q1 1 1 0q0 -2 -2 -6l-4 -6
l-4 -5q-2 -4 -4 -5l-9 -12l-10 -12z" />
    <glyph glyph-name="bar" unicode="|" horiz-adv-x="417" 
d="M-69 -195q-13 0 -15.5 4.5t1 11t10 13t10.5 11.5q17 19 32.5 37t30.5 37q57 65 113.5 129t113.5 128q134 155 266.5 307t268.5 306l141 161q3 4 9 9q6 7 15.5 9.5t17 1t10 -6.5t-3.5 -12l-37 -41q-115 -133 -231 -264.5t-231 -264.5q-115 -131 -229 -261.5t-229 -262.5
q-4 -5 -10.5 -13.5t-14.5 -17t-18 -15t-20 -6.5z" />
    </font>
</defs>
</svg>
