<?xml version="1.0" standalone="no"?>
<!DOCTYPE svg PUBLIC "-//W3C//DTD SVG 1.1//EN" "http://www.w3.org/Graphics/SVG/1.1/DTD/svg11.dtd" >
<svg xmlns="http://www.w3.org/2000/svg" xmlns:xlink="http://www.w3.org/1999/xlink" version="1.1">
<metadata>
Created by FontForge 20170731 at Tue May 28 15:20:10 2013
 By Aleksey,,,
(c) Lauren Thompson, 2009, 2010. All rights reserved.
</metadata>
<defs>
<font id="Champagne&#38;Limousines-Italic" horiz-adv-x="1800" >
  <font-face 
    font-family="Champagne &#38; Limousines"
    font-weight="400"
    font-style="italic"
    font-stretch="normal"
    units-per-em="2048"
    panose-1="2 11 2 2 2 2 2 9 2 4"
    ascent="1638"
    descent="-410"
    x-height="855"
    cap-height="1414"
    bbox="-400 -394 2162 1719"
    underline-thickness="150"
    underline-position="-442"
    slope="-9.5"
    unicode-range="U+0020-FF9F"
  />
<missing-glyph horiz-adv-x="1088" 
d="M522 616q0 -6 5.5 -18.5t50.5 -23.5q-45 -14 -120 -60q-24 -15 -47 -15q-51 0 -99 72q28 14 39 21t11 13v252q0 30 -47 44q123 59 176 96q25 -3 31 -73v-3q20 8 36 17l163 59q11 -59 25 -107q14 -47 28 -138q2 -17 2 -34q0 -75 -51 -155q-63 -98 -178 -199q73 134 73 250
q0 32 -5 62q-26 141 -43 178q-50 -37 -50 -76v-162zM76 1412v-1409h936v1409h-936zM1044 1447v-1480h-1000v1480h1000z" />
    <glyph glyph-name=".notdef" horiz-adv-x="1088" 
d="M522 616q0 -6 5.5 -18.5t50.5 -23.5q-45 -14 -120 -60q-24 -15 -47 -15q-51 0 -99 72q28 14 39 21t11 13v252q0 30 -47 44q123 59 176 96q25 -3 31 -73v-3q20 8 36 17l163 59q11 -59 25 -107q14 -47 28 -138q2 -17 2 -34q0 -75 -51 -155q-63 -98 -178 -199q73 134 73 250
q0 32 -5 62q-26 141 -43 178q-50 -37 -50 -76v-162zM76 1412v-1409h936v1409h-936zM1044 1447v-1480h-1000v1480h1000z" />
    <glyph glyph-name=".null" horiz-adv-x="0" 
 />
    <glyph glyph-name="nonmarkingreturn" horiz-adv-x="508" 
 />
    <glyph glyph-name="space" unicode=" " horiz-adv-x="508" 
 />
    <glyph glyph-name="space" unicode="&#xa0;" horiz-adv-x="508" 
 />
    <glyph glyph-name="exclam" unicode="!" horiz-adv-x="269" 
d="M211.5 123q19.5 -23 14.5 -56q-6 -33 -33.5 -56t-59.5 -23q-33 0 -52.5 23t-13.5 56q5 33 32.5 56t60.5 23q32 0 51.5 -23zM410 1414l-196 -1170h-80l196 1170h80z" />
    <glyph glyph-name="quotedbl" unicode="&#x22;" horiz-adv-x="397" 
d="M202 881l89 530h80l-89 -530h-80zM410 881l89 530h79l-89 -530h-79z" />
    <glyph glyph-name="numbersign" unicode="#" horiz-adv-x="909" 
d="M573 446h-225l-143 -346h-75l143 346h-218l54 80h197l133 320h-200l55 80h177l148 358h75l-148 -358h225l148 358h75l-148 -358h198l-55 -80h-175l-133 -320h178l-54 -80h-157l-143 -346h-75zM381 526h225l133 320h-225z" />
    <glyph glyph-name="dollar" unicode="$" horiz-adv-x="1070" 
d="M706 761l-99 -589q91 13 169 80q97 83 117 202q19 117 -50 200q-54 66 -137 107zM708 1254q-55 -9 -103 -51q-63 -53 -76 -129q-12 -76 32 -129q31 -37 84 -70zM631 792q-84 40 -133 99q-64 75 -46 183q18 105 107 181q75 65 162 75l15 89h80l-15 -91q76 -14 125 -72
q34 -40 43 -95l-74 -28q-8 41 -33 71q-30 35 -74 47l-69 -410q114 -47 186 -134q88 -105 64 -253q-25 -150 -149 -255q-104 -90 -225 -104l-17 -99h-80l16 98q-125 10 -203 105q-70 84 -69 199l77 27q-6 -102 55 -173q59 -72 153 -82z" />
    <glyph glyph-name="percent" unicode="%" horiz-adv-x="1070" 
d="M1167 1161l-1005 -1158l-57 45l1005 1158zM584.5 1014q49.5 -60 34.5 -145q-14 -84 -83.5 -144t-154.5 -60t-134.5 60t-35.5 144q15 85 84.5 145t154.5 60t134.5 -60zM437 997q-53 0 -96.5 -37.5t-52.5 -90.5q-8 -53 22.5 -90t83.5 -37q52 0 96 37t52 90q9 53 -22 90.5
t-83 37.5zM1025.5 483.5q49.5 -59.5 35.5 -144.5q-15 -85 -84 -144.5t-154 -59.5t-135 59.5t-35 144.5q14 85 83.5 144.5t154.5 59.5t134.5 -59.5zM878 467q-53 0 -96 -37.5t-52 -90.5t21.5 -90t83.5 -37q52 0 96.5 37t53.5 90t-23 90.5t-84 37.5z" />
    <glyph glyph-name="ampersand" unicode="&#x26;" horiz-adv-x="1167" 
d="M864 292q-11 5 -21 11q-38 24 -91 90q-35 39 -51 49q-18 10 -38 10q-11 0 -22 -2q-34 -9 -54 -37q-15 -20 -18 -39q-2 -11 0 -22q3 -32 27 -46q15 -9 44 -9q16 0 37 3l-20 -73q-23 -6 -45 -6q-35 0 -66 18q-48 30 -55 92q-2 22 1 43q7 39 34 76q42 56 107 73q23 6 44 6
q39 0 72 -21q32 -19 78 -79q44 -46 65 -60q25 -15 53 -15q16 0 33 5q48 12 79 54q19 27 24 55q3 15 0 31q-4 45 -41 69q-23 14 -54 14q-22 0 -48 -7l12 79q26 7 50 7q47 0 88 -26q62 -39 71 -115q2 -27 -2 -52q-8 -48 -40 -92q-51 -69 -133 -91q-24 -6 -45 -7
q-45 -95 -133 -171q-144 -124 -317 -124t-275.5 123t-73.5 297q29 173 172 302q98 89 238 134q-59 27 -114 98t-34 196q21 122 123 210t226 88t197 -88q42 -47 50 -105l-76 -28q-9 43 -39 79q-54 64 -145 64t-166 -64t-91 -156q-15 -91 36.5 -157.5t101 -86.5t128.5 -21
l-13 -75l-63 -1q-200 -37 -314.5 -143t-138.5 -246q-23 -141 59.5 -241t224.5 -100q140 0 257 100q67 58 105 130z" />
    <glyph glyph-name="quotesingle" unicode="'" horiz-adv-x="190" 
d="M202 881l89 530h80l-89 -530h-80z" />
    <glyph glyph-name="parenleft" unicode="(" horiz-adv-x="552" 
d="M745 1483q-91 -50 -217 -188q-184 -204 -244 -561l-15 -90q-60 -358 56 -562q80 -138 155 -188h-89q-68 53 -121 130q-170 243 -99 665q70 421 322 664q79 77 163 130h89z" />
    <glyph glyph-name="parenright" unicode=")" horiz-adv-x="552" 
d="M392 1483q67 -53 120 -130q170 -243 100 -664q-71 -422 -322 -665q-79 -77 -164 -130h-89q91 50 217 188q185 204 245 562l15 90q59 357 -57 561q-79 138 -154 188h89z" />
    <glyph glyph-name="asterisk" unicode="*" horiz-adv-x="730" 
d="M610 1223l222 108l35 -66l-241 -119l201 -119l-57 -66l-186 108l-31 -188h-79l31 189l-223 -109l-35 66l241 119l-201 119l57 66l187 -109l31 189h79z" />
    <glyph glyph-name="plus" unicode="+" horiz-adv-x="1070" 
d="M495 633h-410v80h410v410h80v-410h410v-80h-410v-410h-80v410z" />
    <glyph glyph-name="comma" unicode="," horiz-adv-x="336" 
d="M263 147l-221 -341h-74l148 341h147z" />
    <glyph glyph-name="hyphen" unicode="-" horiz-adv-x="596" 
d="M142 563h500l-13 -80h-500z" />
    <glyph glyph-name="hyphen" unicode="&#xad;" horiz-adv-x="596" 
d="M142 563h500l-13 -80h-500z" />
    <glyph glyph-name="period" unicode="." horiz-adv-x="269" 
d="M211.5 123q19.5 -23 14.5 -56q-6 -33 -33.5 -56t-59.5 -23q-33 0 -52.5 23t-13.5 56q5 33 32.5 56t60.5 23q32 0 51.5 -23z" />
    <glyph glyph-name="slash" unicode="/" horiz-adv-x="627" 
d="M825 1414h91l-878 -1414h-90z" />
    <glyph glyph-name="zero" unicode="0" horiz-adv-x="1070" 
d="M1052 695q50 300 -39.5 467t-255.5 167t-311.5 -167t-195.5 -467q-50 -301 39.5 -468t255.5 -167t311.5 167t195.5 468zM1136 695q-56 -335 -229.5 -527.5t-374.5 -192.5t-311.5 192.5t-54.5 527.5q56 334 230.5 526.5t375.5 192.5t310.5 -192.5t53.5 -526.5z" />
    <glyph glyph-name="one" unicode="1" horiz-adv-x="1070" 
d="M512 80l197 1176l-163 -96l-54 45l323 209l-224 -1334h307l-13 -80h-700l13 80h314z" />
    <glyph glyph-name="two" unicode="2" horiz-adv-x="1070" 
d="M170 0q697 847 752.5 922.5t67.5 144.5q5 34 3 69q-6 110 -91 169q-60 40 -132 40q-32 0 -65 -7q-112 -25 -187 -119q-42 -52 -57 -103l-80 12q17 67 71 134q101 125 247 157q45 10 86 10q98 0 176 -55q111 -78 119 -219q4 -52 -4 -99q-14 -83 -76 -168.5t-659 -807.5
h571l-13 -80h-729z" />
    <glyph glyph-name="three" unicode="3" horiz-adv-x="1070" 
d="M617 789l-66 2l13 79q83 1 138.5 21.5t128 86t87.5 155.5q16 91 -37 154t-143 63q-89 0 -165 -63q-41 -36 -65 -81l-71 30q29 62 86 109q104 88 229 88q126 0 199 -88.5t52 -211.5q-21 -126 -100 -198t-142 -96q121 -42 190 -132q99 -130 70 -304q-29 -175 -173 -298.5
t-319 -123.5q-174 0 -278 124q-81 99 -79 232l85 29q-7 -118 64 -203q83 -98 222 -98q141 0 256.5 98.5t138.5 239.5q24 140 -55 245t-266 141z" />
    <glyph glyph-name="four" unicode="4" horiz-adv-x="1070" 
d="M1046 1474l-173 -1031h135l-13 -79h-135l-61 -364h-80l61 364h-583zM919 1192l-572 -749h446z" />
    <glyph glyph-name="five" unicode="5" horiz-adv-x="1070" 
d="M394 975q46 14 103 26q58 10 111 10q98 0 182 -31q187 -68 255 -251q42 -114 22 -233q-13 -75 -48 -150q-94 -198 -294 -297q-122 -59 -240 -59q-75 0 -149 24q-151 49 -220 172l67 62q57 -111 192 -154q60 -20 121 -20q99 0 202 50q166 81 245 247q31 64 41 126
q17 99 -19 193q-55 152 -212 210q-67 25 -152 25q-113 0 -258 -43l-53 55l237 448l4 29h442l-13 -80h-375z" />
    <glyph glyph-name="six" unicode="6" horiz-adv-x="1070" 
d="M288 373q-21 -128 54.5 -217.5t203.5 -89.5q127 0 232.5 89.5t126.5 217.5q22 128 -53.5 218.5t-202.5 90.5q-128 0 -233.5 -90.5t-127.5 -218.5zM412 687q116 80 251 80q163 0 258.5 -115t67.5 -279q-27 -162 -161 -277.5t-297 -115.5q-162 0 -258 115.5t-69 277.5
q47 228 210 476t429 565h106q-307 -361 -537 -727z" />
    <glyph glyph-name="seven" unicode="7" horiz-adv-x="1070" 
d="M919 924q-226 -260 -383 -503q-156 -244 -195 -421h-83q44 212 208 460q162 248 360 481q197 233 258 393h-743l14 80h833q-44 -230 -269 -490z" />
    <glyph glyph-name="eight" unicode="8" horiz-adv-x="1070" 
d="M547 66q196 9 301 102.5t128 234.5q24 140 -55 245q-77 102 -254 139q-192 -37 -303 -139q-113 -105 -137 -245q-23 -141 50 -234.5t270 -102.5zM533 -9q-231 0 -324.5 118.5t-64.5 293.5q29 174 172 304q99 90 233 132q-54 24 -109 96t-34 198q21 123 123 209t249 87
q138 -1 211.5 -87t52.5 -209q-21 -126 -100.5 -198t-141.5 -96q120 -42 189 -132q99 -130 70 -304q-29 -175 -162 -293.5t-364 -118.5zM760 1349q-137 -9 -195.5 -67t-74.5 -149q-15 -90 35.5 -155.5t156.5 -100.5q115 35 187.5 100.5t87.5 155.5q16 91 -23 149t-172 67h-2z
" />
    <glyph glyph-name="nine" unicode="9" horiz-adv-x="1070" 
d="M1017 1041q22 128 -53.5 217.5t-203.5 89.5q-127 0 -232.5 -89.5t-127.5 -217.5q-21 -128 54.5 -218.5t202.5 -90.5q128 0 233.5 90.5t126.5 218.5zM894 727q-116 -80 -251 -80q-163 0 -258.5 115t-68.5 279q28 162 161.5 277.5t296.5 115.5q162 0 258.5 -115.5
t66.5 -293.5q-45 -212 -208 -460t-429 -565h-106q304 341 538 727z" />
    <glyph glyph-name="colon" unicode=":" horiz-adv-x="269" 
d="M211.5 123q19.5 -23 14.5 -56q-6 -33 -33.5 -56t-59.5 -23q-33 0 -52.5 23t-13.5 56q5 33 32.5 56t60.5 23q32 0 51.5 -23zM314.5 740q19.5 -23 14.5 -56q-6 -33 -33 -56t-59 -23q-33 0 -53 23t-14 56q5 33 32.5 56t60.5 23q32 0 51.5 -23z" />
    <glyph glyph-name="semicolon" unicode=";" horiz-adv-x="293" 
d="M263 147l-221 -341h-74l148 341h147zM338.5 740q19.5 -23 14.5 -56q-6 -33 -33 -56t-59 -23q-33 0 -53 23t-14 56q5 33 32.5 56t60.5 23q32 0 51.5 -23z" />
    <glyph glyph-name="semicolon" unicode="&#x37e;" horiz-adv-x="293" 
d="M263 147l-221 -341h-74l148 341h147zM338.5 740q19.5 -23 14.5 -56q-6 -33 -33 -56t-59 -23q-33 0 -53 23t-14 56q5 33 32.5 56t60.5 23q32 0 51.5 -23z" />
    <glyph glyph-name="less" unicode="&#x3c;" horiz-adv-x="1070" 
d="M258 772l723 -334v-92l-892 426l892 426v-92z" />
    <glyph glyph-name="equal" unicode="=" horiz-adv-x="1070" 
d="M85 855h900v-80h-900v80zM89 572h892v-80h-892v80z" />
    <glyph glyph-name="greater" unicode="&#x3e;" horiz-adv-x="1070" 
d="M89 1106v92l892 -426l-892 -426v92l723 334z" />
    <glyph glyph-name="question" unicode="?" horiz-adv-x="752" 
d="M361 67q-6 -33 -33.5 -56t-59.5 -23q-33 0 -52.5 23t-13.5 56q5 33 32.5 56t60.5 23q32 0 51.5 -23t14.5 -56zM270 335q2 14 4 27q33 197 211 379q213 217 253 309q16 36 22 69q8 52 -8 96q-27 73 -107 104q-37 14 -74 14q-47 0 -95 -21q-90 -39 -135 -124
q-17 -33 -29 -94l-77 -5q13 83 36 124q75 127 200 174q63 23 121 23q59 0 113 -23q108 -48 132 -160q11 -56 2 -110q-9 -55 -39 -108q-60 -106 -250 -302q-169 -174 -196 -332q-3 -20 -5 -40h-79z" />
    <glyph glyph-name="at" unicode="@" horiz-adv-x="1547" 
d="M1157 609l31 137q-1 79 -46 138q-67 87 -188 87q-122 0 -226.5 -86t-134.5 -226q-19 -109 43 -188q66 -86 188 -86q121 0 226 85q72 60 107 139zM1117 431q-157 -134 -315 -134q-157 0 -244 113q-82 103 -58 244q41 181 177.5 293t294.5 112q157 0 254 -133l26 118h85
l-139 -497q-30 -150 18 -160q89 6 185.5 98t147.5 328q33 193 -90 341q-133 158 -431 158q-263 0 -491 -187t-294 -489q-40 -237 95 -409q144 -186 407 -186q180 0 274 51l45 -63q-141 -73 -338 -73q-297 0 -461 212q-154 194 -109 462q75 342 334 554t557 212
q334 0 485 -182q140 -172 104 -386q-57 -262 -188 -384q-121 -113 -248 -113q-100 11 -88 82q1 8 5 18z" />
    <glyph glyph-name="A" unicode="A" horiz-adv-x="1116" 
d="M891 701l-115 593l-316 -593h431zM837 1414l276 -1414h-84l-122 622h-489l-334 -622h-85l756 1414h82z" />
    <glyph glyph-name="B" unicode="B" horiz-adv-x="1033" 
d="M532 80q157 0 287 111.5t156 269.5q27 158 -65.5 270t-249.5 112h-327l-128 -763h327zM415 1335l-69 -412h360q89 9 139 52q71 61 86 149q15 87 -36.5 149t-138.5 62h-341zM851 887q73 -33 127 -99q112 -135 80 -327q-32 -191 -189 -326q-132 -113 -298 -135h-459
l237 1414h422q121 0 191 -85t50 -205t-119 -205q-21 -19 -42 -32z" />
    <glyph glyph-name="C" unicode="C" horiz-adv-x="1347" 
d="M1262 225l52 -54q-239 -188 -519 -188q-301 0 -477 211.5t-126 512.5q50 299 297.5 511.5t548.5 212.5q280 0 455 -189l-70 -54q-155 161 -399 161q-266 0 -486 -188t-265 -454q-44 -267 113 -455t423 -188q244 0 453 161z" />
    <glyph glyph-name="D" unicode="D" horiz-adv-x="1189" 
d="M611 1414q348 -2 508 -195q176 -213 126 -512q-50 -301 -298 -513q-224 -192 -573 -194h-262l237 1414h262zM415 1331l-209 -1249h181q305 0 509 170q220 188 264 455q45 266 -112 455q-147 169 -452 169h-181z" />
    <glyph glyph-name="E" unicode="E" horiz-adv-x="931" 
d="M1056 1414l-14 -80h-627l-98 -587h627l-13 -80h-627l-99 -587h627l-13 -80h-707l237 1414h707z" />
    <glyph glyph-name="F" unicode="F" horiz-adv-x="783" 
d="M968 1414l-14 -80h-539l-98 -587h539l-13 -80h-539l-112 -667h-80l237 1414h619z" />
    <glyph glyph-name="G" unicode="G" horiz-adv-x="1359" 
d="M1309 176q-234 -193 -514 -193q-301 0 -477 211.5t-126 512.5q50 299 297.5 511.5t548.5 212.5q280 0 455 -189l-70 -54q-155 161 -399 161q-266 0 -486 -188t-265 -454q-44 -267 113 -455t423 -188q228 0 425 140l72 431h79z" />
    <glyph glyph-name="H" unicode="H" horiz-adv-x="1072" 
d="M286 667l-112 -667h-80l237 1414h80l-112 -667h724l112 667h80l-237 -1414h-80l112 667h-724z" />
    <glyph glyph-name="I" unicode="I" horiz-adv-x="324" 
d="M439 1414l-237 -1414h-80l237 1414h80z" />
    <glyph glyph-name="J" unicode="J" horiz-adv-x="306" 
d="M188 -27q-19 -108 -103.5 -178t-191.5 -70l12 73q73 0 133 50q57 49 71 135l240 1431h80z" />
    <glyph glyph-name="K" unicode="K" horiz-adv-x="999" 
d="M999 1414l-456 -531l470 -883h-97l-435 817l-189 -218l-100 -599h-80l237 1414h80l-114 -677l587 677h97z" />
    <glyph glyph-name="L" unicode="L" horiz-adv-x="783" 
d="M112 0l237 1414h80l-224 -1334h539l-13 -80h-619z" />
    <glyph glyph-name="M" unicode="M" horiz-adv-x="1442" 
d="M1586 1414l-237 -1414h-80l222 1328l-667 -717l-428 717l-222 -1328h-80l237 1414h116l400 -670l623 670h116z" />
    <glyph glyph-name="N" unicode="N" horiz-adv-x="1339" 
d="M447 1414l719 -1317l221 1317h80l-237 -1414h-123l-703 1286l-215 -1286h-80l237 1414h101z" />
    <glyph glyph-name="O" unicode="O" horiz-adv-x="1575" 
d="M1505 1221.5q177 -212.5 126 -512.5q-50 -301 -298 -513.5t-549 -212.5q-300 0 -477 212.5t-127 513.5q51 300 299 512.5t548 212.5q301 0 478 -212.5zM1013 1353q-266 0 -486.5 -189t-265.5 -455q-44 -267 113 -456t423 -189q267 0 488 189t265 456q45 266 -112.5 455
t-424.5 189z" />
    <glyph glyph-name="P" unicode="P" horiz-adv-x="959" 
d="M274 490l-82 -490h-80l237 1414h371q158 -22 252 -135q112 -136 80 -326q-32 -192 -189.5 -327.5t-348.5 -135.5h-240zM415 1333l-127 -762h240q157 0 287.5 111.5t156.5 270.5q27 158 -66.5 269t-250.5 111h-240z" />
    <glyph glyph-name="Q" unicode="Q" horiz-adv-x="1575" 
d="M1013 1353q-266 0 -486.5 -189t-265.5 -455q-44 -267 113 -456t423 -189q267 0 488 189t265 456q45 266 -112.5 455t-424.5 189zM776 -17q-295 3 -468 213q-178 212 -128 513q51 300 299 512.5t548 212.5q301 0 478 -212.5t126 -512.5q-50 -301 -297 -513
q-180 -154 -386 -196q70 -20 168 -89q67 -40 143 -51q108 3 137 120h80q-51 -172 -208 -184q-127 0 -227 67q-113 65 -184 70q-68 -5 -106 -35t-56.5 -71t-21.5 -51h-80q57 175 183 207z" />
    <glyph glyph-name="R" unicode="R" horiz-adv-x="959" 
d="M415 1333l-127 -762h240q157 0 287.5 111.5t156.5 270.5q27 158 -66.5 269t-250.5 111h-240zM538 490h-264l-82 -490h-80l237 1414h371q158 -22 252 -135q112 -136 80 -326q-32 -192 -189 -327q-110 -94 -236 -123l242 -503h-98z" />
    <glyph glyph-name="S" unicode="S" horiz-adv-x="942" 
d="M626 783q-143 50 -216 137.5t-52 212.5q21 122 123 210t227 88q123 0 197 -88q41 -47 50 -105l-77 -28q-9 43 -39 79q-53 64 -144 64t-166 -64t-91 -156q-15 -91 38 -156q50 -59 148 -108q161 -55 257 -171q102 -122 73 -295q-29 -174 -172 -297t-316 -123
q-174 0 -275 124q-83 98 -80 228l79 27q-7 -115 65 -200q83 -100 224 -100t258 100t140 241q24 140 -60 240q-73 88 -191 140z" />
    <glyph glyph-name="T" unicode="T" horiz-adv-x="859" 
d="M692 1334l-223 -1334h-79l223 1334h-358l13 80h795l-13 -80h-358z" />
    <glyph glyph-name="U" unicode="U" horiz-adv-x="1147" 
d="M1191 1414h80l-170 -1016q-49 -162 -181 -275q-157 -135 -348 -135q-192 0 -304.5 135t-80.5 326l161 965h80l-161 -965q-26 -157 67 -269t251 -112t288.5 112t156.5 269z" />
    <glyph glyph-name="V" unicode="V" horiz-adv-x="1065" 
d="M1218 1414h84l-745 -1414h-49l-271 1414h84l236 -1270z" />
    <glyph glyph-name="W" unicode="W" horiz-adv-x="1602" 
d="M998 1039l200 -910l560 1285h81l-617 -1414h-80l-191 894l-491 -894h-80l-143 1414h81l131 -1285l503 910h46z" />
    <glyph glyph-name="X" unicode="X" horiz-adv-x="1018" 
d="M15 0l578 777l-261 637h91l228 -559l417 559h91l-476 -637l320 -777h-91l-287 698l-520 -698h-90z" />
    <glyph glyph-name="Y" unicode="Y" horiz-adv-x="1116" 
d="M614 572l-345 842h91l309 -754l561 754h91l-627 -842l-96 -572h-80z" />
    <glyph glyph-name="Z" unicode="Z" horiz-adv-x="1075" 
d="M1077 1334h-670l14 80h807l-995 -1334h841l-13 -80h-977z" />
    <glyph glyph-name="bracketleft" unicode="[" horiz-adv-x="384" 
d="M128 -40h194l-13 -79h-274l279 1665h274l-14 -79h-194z" />
    <glyph glyph-name="backslash" unicode="\" horiz-adv-x="627" 
d="M679 0h-90l-404 1414h91z" />
    <glyph glyph-name="bracketright" unicode="]" horiz-adv-x="384" 
d="M494 1467h-194l14 79h274l-279 -1665h-274l13 79h194z" />
    <glyph glyph-name="asciicircum" unicode="^" horiz-adv-x="833" 
d="M700 1414l193 -472h-92l-161 391l-291 -391h-93l352 472h92z" />
    <glyph glyph-name="underscore" unicode="_" horiz-adv-x="794" 
d="M-50 -27h884l-13 -79h-884z" />
    <glyph glyph-name="grave" unicode="`" horiz-adv-x="441" 
d="M412 1137l116 -165h-75l-188 165h147z" />
    <glyph glyph-name="a" unicode="a" horiz-adv-x="1122" 
d="M1033 0h-80l30 177q-28 -31 -60 -59q-166 -143 -368 -143q-200 0 -318.5 142.5t-85.5 342.5q34 202 200.5 344t366.5 142q202 0 320 -142q22 -28 40 -59l21 123h80zM1017 382l27 157q-3 117 -76 205q-98 118 -264 118t-303.5 -118t-165.5 -284q-27 -166 71 -283t264 -117
t303 118q103 88 144 204z" />
    <glyph glyph-name="b" unicode="b" horiz-adv-x="1131" 
d="M336 1414h80l-112 -668q27 30 60 58q165 142 366 142t319.5 -142t84.5 -344q-33 -200 -199 -342.5t-367 -142.5t-319 143q-24 28 -41 58l-29 -176h-80zM270 543l-28 -166q3 -113 76 -199q98 -118 264 -118t303 117t165 283t-70 284t-264 118t-303 -118
q-102 -87 -143 -201z" />
    <glyph glyph-name="c" unicode="c" horiz-adv-x="985" 
d="M884 209l79 -31q-28 -31 -62 -60q-166 -143 -368 -143q-200 0 -318.5 142.5t-84.5 343.5q33 201 199.5 343t366.5 142q202 0 320 -142q24 -29 42 -60l-89 -31q-11 16 -23 32q-98 117 -264 117q-165 0 -302.5 -117.5t-164.5 -283.5q-28 -166 70 -283.5t263 -117.5
q166 0 303 118q18 15 33 31z" />
    <glyph glyph-name="d" unicode="d" horiz-adv-x="1122" 
d="M1033 0h-80l30 177q-28 -31 -60 -59q-166 -143 -368 -143q-200 0 -318.5 142.5t-85.5 342.5q34 202 200.5 344t366.5 142q202 0 320 -142q22 -28 40 -59l112 669h80zM1017 382l27 157q-3 117 -76 205q-98 118 -264 118t-303.5 -118t-165.5 -284q-27 -166 71 -283
t264 -117t303 118q103 88 144 204z" />
    <glyph glyph-name="e" unicode="e" horiz-adv-x="1042" 
d="M253 586h762q-13 91 -69 158q-98 118 -264 118t-304 -118q-82 -71 -125 -158zM224 505q-7 -21 -11 -45q-27 -166 71 -283t264 -117t303 118q24 20 45 42l80 -30q-19 -25 -75 -72q-166 -143 -368 -143q-200 0 -318.5 142.5t-85.5 342.5q34 202 200.5 344t366.5 142
q202 0 320 -142q104 -126 75 -299h-867z" />
    <glyph glyph-name="f" unicode="f" horiz-adv-x="383" 
d="M322 788l-132 -788h-80l132 788h-88l13 80h88l40 235q22 98 103 169q84 67 178 67q50 0 102 -19l-37 -71q-34 16 -69 16q-62 0 -127 -50q-57 -49 -71 -118l-39 -229h177l-13 -80h-177z" />
    <glyph glyph-name="g" unicode="g" horiz-adv-x="1083" 
d="M1021 543q-4 114 -75 201q-98 118 -264 118t-303.5 -118t-165.5 -284q-27 -166 70.5 -283.5t263.5 -117.5t304 118q99 85 142 199zM958 172q-27 -28 -57 -54q-166 -143 -368 -143q-200 0 -318.5 142.5t-85.5 342.5q34 202 200.5 343.5t366.5 141.5q202 0 320 -141
q22 -28 40 -59l21 123h80l-113 -674q-33 -196 -195 -334q-166 -143 -367 -143t-320 143q-24 29 -42 60l89 31q11 -16 24 -31q97 -118 263 -118q165 0 303 118q125 107 159 252z" />
    <glyph glyph-name="h" unicode="h" horiz-adv-x="859" 
d="M331 1414h80l-99 -591q116 97 258 97q153 0 233.5 -96.5t58.5 -242.5l-97 -581h-80l96 573q18 111 -48.5 189t-175.5 78q-110 0 -202 -77q-42 -35 -66 -73l-115 -690h-80z" />
    <glyph glyph-name="i" unicode="i" horiz-adv-x="317" 
d="M343 868l-145 -868h-79l145 868h79zM407.5 1152q19.5 -23 14.5 -55q-6 -34 -33.5 -57t-59.5 -23q-33 0 -52.5 23t-13.5 57q5 32 32.5 55t60.5 23q32 0 51.5 -23z" />
    <glyph glyph-name="j" unicode="j" horiz-adv-x="284" 
d="M-31 -122q109 12 127 120l146 870h79l-146 -868q-29 -179 -218 -194zM384.5 1152q19.5 -23 14.5 -55q-6 -34 -33 -57t-59 -23q-33 0 -53 23t-14 57q5 32 32.5 55t60.5 23q32 0 51.5 -23z" />
    <glyph glyph-name="k" unicode="k" horiz-adv-x="635" 
d="M667 868l-258 -265l240 -603h-98l-205 539l-93 -96l-74 -443h-80l207 1237h80l-112 -667l291 298h102z" />
    <glyph glyph-name="l" unicode="l" horiz-adv-x="300" 
d="M427 1414l-237 -1414h-80l237 1414h80z" />
    <glyph glyph-name="m" unicode="m" horiz-adv-x="1148" 
d="M244 868h80l-3 -21q86 72 189 72q107 0 169 -75q17 -20 28 -44q20 23 44 44q88 75 195 75t169 -75q59 -73 46 -174l-112 -670h-80l112 670h1q9 69 -32 117q-45 52 -118 52q-74 0 -135 -52t-74 -130l-110 -657h-79l112 670h1q8 69 -33 117q-45 52 -118 52t-133 -52
q-54 -45 -71 -110l-113 -677h-80z" />
    <glyph glyph-name="n" unicode="n" horiz-adv-x="879" 
d="M292 674l-113 -674h-80l145 868h80l-9 -56q126 108 270 108q154 0 234.5 -96.5t57.5 -242.5l-97 -581h-79l96 573q18 111 -48.5 189t-176.5 78q-109 0 -202 -77q-51 -43 -78 -89z" />
    <glyph glyph-name="o" unicode="o" horiz-adv-x="1114" 
d="M716 946q202 0 319.5 -142t83.5 -344q-33 -200 -198.5 -342.5t-367.5 -142.5q-200 0 -318.5 142.5t-85.5 342.5q34 202 200.5 344t366.5 142zM398.5 744q-137.5 -118 -165.5 -284q-27 -166 71 -283t264 -117t303 117t164 283q28 166 -69.5 284t-263.5 118t-303.5 -118z
" />
    <glyph glyph-name="p" unicode="p" horiz-adv-x="1110" 
d="M238 868h80l-21 -122q27 30 60 58q166 141 367 141t319 -141.5t84 -343.5q-33 -200 -199 -342.5t-367 -142.5t-319 143q-23 28 -40 58l-85 -507h-80zM263 543l-28 -166q3 -114 76 -200q98 -118 264 -118t303.5 117.5t164.5 283.5q28 166 -69.5 284t-263.5 118t-304 -118
q-102 -87 -143 -201z" />
    <glyph glyph-name="q" unicode="q" horiz-adv-x="1107" 
d="M964 -331h-80l85 508q-28 -31 -60 -59q-166 -143 -368 -143q-200 0 -318.5 142.5t-85.5 342.5q34 202 200.5 343.5t366.5 141.5q202 0 320 -141q22 -28 40 -59l21 123h80zM1003 382l27 157q-3 117 -76 205q-98 118 -264 118t-303.5 -118t-165.5 -284
q-27 -166 70.5 -283.5t263.5 -117.5t304 118q103 88 144 205z" />
    <glyph glyph-name="r" unicode="r" horiz-adv-x="406" 
d="M540 798q-88 -13 -186 -108q-97 -95 -114 -192l-83 -498h-80l145 868h80l-31 -188q72 131 237 195z" />
    <glyph glyph-name="s" unicode="s" horiz-adv-x="644" 
d="M402 466q-92 55 -124 94q-51 61 -37 147q15 86 86 147.5t157 61.5t134 -57q45 -55 34 -126l-1 -4l-74 -28q2 67 -25 101t-81 34q-53 0 -97.5 -38t-53.5 -91t23 -91q18 -23 82 -68q102 -61 142 -109q63 -76 45 -181q-18 -108 -105.5 -183.5t-194.5 -75.5t-169.5 75.5
t-47.5 165.5l82 20q-12 -77 31.5 -129.5t116.5 -52.5t135 52.5t74 127.5q12 73 -32 125q-23 28 -100 83z" />
    <glyph glyph-name="t" unicode="t" horiz-adv-x="497" 
d="M354 868l62 369h79l-62 -369h177l-13 -80h-177l-132 -788h-79l132 788h-177l13 80h177z" />
    <glyph glyph-name="u" unicode="u" horiz-adv-x="880" 
d="M443 -12q-163 0 -243 96t-58 243l90 542h80l-89 -535q-19 -110 48 -188q66 -79 184 -79q110 0 202.5 78.5t111.5 188.5l89 535h80l-90 -542q-28 -147 -140 -243t-265 -96z" />
    <glyph glyph-name="v" unicode="v" horiz-adv-x="814" 
d="M959 868l-533 -868h-42l-239 868h93l191 -723l437 723h93z" />
    <glyph glyph-name="w" unicode="w" horiz-adv-x="1094" 
d="M1239 868l-440 -868h-50l-108 566l-296 -566h-51l-149 868h91l111 -713l298 565h45l110 -565l348 713h91z" />
    <glyph glyph-name="x" unicode="x" horiz-adv-x="662" 
d="M362 459l-187 409h93l152 -335l264 335h93l-323 -409l208 -459h-92l-175 384l-303 -384h-92z" />
    <glyph glyph-name="y" unicode="y" horiz-adv-x="779" 
d="M150 -330h-89l311 491l-212 707h89l184 -606l387 606h89z" />
    <glyph glyph-name="z" unicode="z" horiz-adv-x="743" 
d="M640 776h-448l13 79h585l-579 -775h483l-13 -80h-619z" />
    <glyph glyph-name="braceleft" unicode="{" horiz-adv-x="516" 
d="M211 724q146 29 195 325l6 32q74 442 308 468l-10 -60q-163 -41 -227 -424l-7 -42q-38 -228 -143 -305q79 -77 41 -305l-7 -42q-64 -383 85 -424l-10 -60q-226 26 -152 468l6 32q49 296 -87 325z" />
    <glyph glyph-name="bar" unicode="|" horiz-adv-x="480" 
d="M517 1414l-258 -1540h-80l258 1540h80z" />
    <glyph glyph-name="braceright" unicode="}" horiz-adv-x="516" 
d="M545 712q-146 -29 -195 -325l-6 -32q-74 -442 -308 -468l10 60q163 41 227 424l7 42q38 228 143 305q-79 77 -41 305l7 42q64 383 -85 424l10 60q226 -26 152 -468l-6 -32q-49 -296 87 -325z" />
    <glyph glyph-name="asciitilde" unicode="~" horiz-adv-x="1057" 
d="M656 761q150 -97 226 -97q13 0 23 3q71 20 111 88q18 34 24 69l78 -13q-10 -42 -34 -86q-58 -98 -160 -130q-23 -7 -50 -7q-93 0 -232 87q-152 96 -226 96q-12 0 -23 -2q-71 -21 -110 -89q-19 -34 -25 -68l-78 13q9 42 33 85q58 98 161 131q23 7 50 7q93 0 232 -87z" />
    <glyph glyph-name="exclamdown" unicode="&#xa1;" horiz-adv-x="269" 
d="M288.5 1291q-19.5 23 -14.5 56q6 33 33.5 56t59.5 23q33 0 52.5 -23t13.5 -56q-5 -33 -32.5 -56t-60.5 -23q-32 0 -51.5 23zM90 0l196 1170h80l-196 -1170h-80z" />
    <glyph glyph-name="cent" unicode="&#xa2;" horiz-adv-x="1070" 
d="M670 563q127 2 233 93q13 11 29 27l72 -28q-28 -31 -55 -55q-133 -114 -293 -116l-22 -136h-79l23 142q-112 21 -185 110q-97 115 -70 278q28 163 163 279q103 88 222 109l24 143h79l-23 -137q159 -1 254 -115q19 -24 37 -54l-82 -29q-10 16 -19 28q-76 90 -203 92z
M695 1186q-88 -20 -163 -84q-108 -93 -130 -224q-21 -130 55 -222q54 -66 135 -85z" />
    <glyph glyph-name="sterling" unicode="&#xa3;" horiz-adv-x="892" 
d="M223 80h612l-13 -80h-719l13 78q204 171 229 323q8 45 8 89h-201l13 80h184q-9 84 -38 167q-71 159 -55 337q20 122 118 220q119 108 271 115q11 1 23 1q135 0 212 -75l-44 -72q-58 67 -176 67h-16q-130 -5 -214 -89q-75 -75 -90 -167q-12 -127 27 -253q56 -122 65 -251
h175l-13 -80h-160q-2 -40 -9 -82q-25 -153 -202 -328z" />
    <glyph glyph-name="currency" unicode="&#xa4;" horiz-adv-x="1070" 
d="M477 992q109 78 237 78t210 -78l144 123l47 -57l-144 -123q63 -95 42 -223t-116 -224l102 -123l-66 -56l-103 123q-108 -79 -236 -79t-211 79l-142 -123l-48 56l144 123q-63 96 -42 224t116 223l-102 123l67 57zM858 935q-62 56 -157 56q-96 0 -177 -56q-17 -11 -34 -25
q-17 -15 -32 -31q-67 -72 -83 -167q-16 -96 27 -167q9 -16 22 -30q12 -15 26 -27q61 -55 157 -55q95 0 177 55q18 12 35 27q16 14 30 30q68 71 84 167q16 95 -28 167q-8 16 -20 31q-12 14 -27 25z" />
    <glyph glyph-name="yen" unicode="&#xa5;" horiz-adv-x="1070" 
d="M651 667l556 747h91l-557 -747h260l-13 -79h-306l-11 -16l-15 -90h314l-13 -80h-314l-68 -402h-80l68 402h-313l13 80h313l15 90l-6 16h-304l13 79h258l-306 747h91l305 -747h9z" />
    <glyph glyph-name="brokenbar" unicode="&#xa6;" horiz-adv-x="480" 
d="M517 1414l-111 -662h-80l111 662h80zM369 531l-111 -662h-80l111 662h80z" />
    <glyph glyph-name="section" unicode="&#xa7;" horiz-adv-x="1070" 
d="M834 195q12 12 28 25q65 56 89 198q23 140 -60 240q-74 87 -192 139q-142 51 -215 138q-31 38 -46 83q-11 -12 -27 -25q-64 -56 -88 -197t60 -241q72 -87 190 -139q143 -51 216 -138q32 -38 45 -83zM428 1093q-1 26 4 54q20 122 121.5 205t226.5 83q123 0 199 -77
q40 -47 49 -105l-76 -29q-9 44 -39 80q-53 63 -144 63t-166.5 -64t-90.5 -156q-16 -91 38 -155q50 -59 148 -109q160 -55 257 -170q102 -122 73 -295q-30 -175 -121 -253q-37 -32 -61 -45q-1 -26 -5 -54q-21 -122 -122 -205t-225 -83t-199 78q-42 46 -50 105l76 28
q9 -43 39 -80q54 -63 145 -63t166 64t91 156q15 91 -39 155q-50 60 -148 109q-160 55 -256 171q-103 122 -74 295q29 174 121 252q36 32 62 45z" />
    <glyph glyph-name="dieresis" unicode="&#xa8;" horiz-adv-x="574" 
d="M396.5 1112q19.5 -23 14.5 -55q-6 -34 -33.5 -57t-59.5 -23q-33 0 -52.5 23t-13.5 57q5 32 32.5 55t60.5 23q32 0 51.5 -23zM661.5 1112q19.5 -23 14.5 -55q-6 -34 -33.5 -57t-59.5 -23q-33 0 -52.5 23t-13.5 57q5 32 32.5 55t60.5 23q32 0 51.5 -23z" />
    <glyph glyph-name="copyright" unicode="&#xa9;" horiz-adv-x="1217" 
d="M812 412l73 -28q-24 -32 -41 -50q-88 -88 -212 -88t-212 88t-88 212t88 211.5t212 87.5t212 -87q17 -19 41 -51l-73 -27q-13 15 -22 25q-66 65 -158 65q-93 0 -159 -65.5t-66 -158.5t66 -159t159 -66q92 0 158 66q9 9 22 25zM1003.5 940q163.5 -164 163.5 -395
t-163.5 -394.5t-395.5 -163.5q-231 0 -394.5 163.5t-163.5 394.5t163.5 395t394.5 164q232 0 395.5 -164zM608 1028q-199 0 -340.5 -141.5t-141.5 -341.5t141.5 -341t340.5 -141q200 0 341.5 141t141.5 341t-141.5 341.5t-341.5 141.5z" />
    <glyph glyph-name="ordfeminine" unicode="&#xaa;" horiz-adv-x="554" 
d="M678 941h-60l14 86q-13 -15 -29 -28q-80 -70 -178 -70q-97 0 -155 69.5t-42 166.5q17 98 98 167t178 69q98 0 155 -69q11 -14 19 -29l10 60h60zM629 1131l11 68q-1 51 -32 89q-44 51 -115 51q-72 0 -131.5 -51t-71.5 -123t30.5 -122.5t114.5 -50.5q71 0 132 51
q44 38 62 88z" />
    <glyph glyph-name="guillemotleft" unicode="&#xab;" horiz-adv-x="816" 
d="M430 425l473 425l-19 -113l-342 -312l238 -311l-19 -114zM126 425l467 425l-19 -113l-343 -312l239 -311l-19 -114z" />
    <glyph glyph-name="logicalnot" unicode="&#xac;" horiz-adv-x="1070" 
d="M939 292h-80v339h-720v80h800v-419z" />
    <glyph glyph-name="registered" unicode="&#xae;" horiz-adv-x="1175" 
d="M526 1043v-192h69q125 0 130 103q0 89 -120 89h-79zM573 781h-47v-195h-87v526h148q210 -2 221 -162q0 -119 -160 -157q130 -216 250 -191t150 256q0 191 -134.5 326t-325.5 135t-326 -135t-135 -326t135 -326t431 -135q147 0 295 110v-77q-156 -110 -311 -110
q-312 0 -469.5 157.5t-157.5 380.5t157.5 375.5t380.5 152.5q222 0 379.5 -152.5t157.5 -375.5q-30 -293 -230.5 -317.5t-321.5 240.5z" />
    <glyph glyph-name="macron" unicode="&#xaf;" horiz-adv-x="671" 
d="M251 1053h521l-13 -80h-521z" />
    <glyph glyph-name="degree" unicode="&#xb0;" horiz-adv-x="382" 
d="M514.5 1313.5q35.5 -43.5 25.5 -103.5q-10 -61 -60 -104t-111 -43t-97 43t-26 104q10 60 60.5 103.5t111.5 43.5t96.5 -43.5zM407 1292q-34 0 -62 -24t-34 -58q-5 -34 14.5 -58.5t53.5 -24.5t62.5 24.5t33.5 58.5q6 34 -14 58t-54 24z" />
    <glyph glyph-name="plusminus" unicode="&#xb1;" horiz-adv-x="1070" 
d="M495 230v403h-410v80h410v410h80v-410h410v-80h-410v-403h-80zM85 0v80h900v-80h-900z" />
    <glyph glyph-name="uni00B2" unicode="&#xb2;" horiz-adv-x="750" 
d="M232 589q472 461 495 598q19 140 -118 141q-93 -5 -133 -61l-71 32q78 94 217 100q229 -5 195 -208q-27 -158 -423 -534h333l-11 -68h-484z" />
    <glyph glyph-name="uni00B3" unicode="&#xb3;" horiz-adv-x="750" 
d="M516 1033h-55l11 67q63 1 92 11t68.5 43t47.5 79q8 47 -20.5 77t-73.5 30t-83 -29q-22 -18 -44 -55l-72 28q22 44 59 73q68 53 152 53t132.5 -53t36.5 -124q-19 -113 -157 -168q83 -7 127 -60q63 -75 47 -173q-17 -100 -107.5 -172.5t-204.5 -72.5q-113 0 -181 74
q-52 57 -52 141l88 28q-4 -80 36 -124q46 -48 121 -48q76 0 139 49.5t75 124.5q12 73 -33 127t-149 74z" />
    <glyph glyph-name="acute" unicode="&#xb4;" horiz-adv-x="441" 
d="M557 1137l-245 -165h-74l172 165h147z" />
    <glyph glyph-name="mu" unicode="&#xb5;" horiz-adv-x="815" 
d="M676 98q-5 -4 -11 -10q-113 -96 -266 -96q-142 0 -226 97l-70 -420h-80l201 1199h80l-108 -646q10 -38 40 -74q66 -76 176 -76q109 0 203 78q60 51 89 115l101 603h78l-146 -868h-78z" />
    <glyph glyph-name="paragraph" unicode="&#xb6;" horiz-adv-x="1070" 
d="M975 1336l-267 -1597h-79l126 752h-135q-191 0 -303.5 135t-80.5 327q32 191 190 326q132 113 297 135h71v1h434l-13 -79h-78l-267 -1597h-80l267 1597h-82z" />
    <glyph glyph-name="periodcentered" unicode="&#xb7;" horiz-adv-x="245" 
d="M296.5 754.5q16.5 -19.5 12.5 -47.5q-5 -28 -28.5 -47.5t-50.5 -19.5q-28 0 -44.5 19.5t-11.5 47.5q4 28 27.5 47.5t51.5 19.5q27 0 43.5 -19.5z" />
    <glyph glyph-name="periodcentered" unicode="&#x2219;" horiz-adv-x="245" 
d="M296.5 754.5q16.5 -19.5 12.5 -47.5q-5 -28 -28.5 -47.5t-50.5 -19.5q-28 0 -44.5 19.5t-11.5 47.5q4 28 27.5 47.5t51.5 19.5q27 0 43.5 -19.5z" />
    <glyph glyph-name="cedilla" unicode="&#xb8;" horiz-adv-x="464" 
d="M261 16l-38 -68q91 -7 108 -61q9 -29 5 -56q-4 -23 -18 -44q-31 -45 -95 -55q-23 -4 -43 -4q-34 0 -57 11q-36 17 -60 39l44 40q28 -35 67 -35q10 0 21 3q49 11 57 57l1 6q4 43 -92 43q-17 0 -37 -1l73 125h64z" />
    <glyph glyph-name="uni00B9" unicode="&#xb9;" horiz-adv-x="750" 
d="M441 637l102 608l-77 -42l-55 41l240 144l-126 -751h184l-11 -68h-456l11 68h188z" />
    <glyph glyph-name="ordmasculine" unicode="&#xba;" horiz-adv-x="565" 
d="M493 1339q-72 0 -131.5 -51t-71.5 -123t30.5 -122.5t114.5 -50.5h26q72 0 131.5 50.5t71.5 122.5t-30.5 123t-114.5 51h-26zM425 929q-97 0 -155 69.5t-42 166.5q17 98 98 167t178 69h26q97 0 155 -69t41 -167q-16 -97 -97 -166.5t-178 -69.5h-26z" />
    <glyph glyph-name="guillemotright" unicode="&#xbb;" horiz-adv-x="816" 
d="M55 0l19 114l341 311l-237 312l19 113l331 -425zM365 0l19 114l342 311l-238 312l19 113l325 -425z" />
    <glyph glyph-name="onequarter" unicode="&#xbc;" horiz-adv-x="1667" 
d="M441 637l102 608l-77 -42l-55 41l240 144l-126 -751h184l-11 -68h-456l11 68h188zM1703 1414l-1251 -1414h-102l1249 1414h104zM1620 880l-102 -612h81l-12 -67h-81l-33 -201h-84l33 201h-359zM1491 610l-279 -342h222z" />
    <glyph glyph-name="onehalf" unicode="&#xbd;" horiz-adv-x="1667" 
d="M441 637l102 608l-77 -42l-55 41l240 144l-126 -751h184l-11 -68h-456l11 68h188zM1703 1414l-1251 -1414h-102l1249 1414h104zM1050 0q472 461 495 598q19 140 -119 141q-92 -5 -132 -61l-71 32q77 94 216 100q229 -5 196 -208q-27 -158 -423 -534h333l-11 -68h-484z
" />
    <glyph glyph-name="threequarters" unicode="&#xbe;" horiz-adv-x="1667" 
d="M516 1033h-55l11 67q63 1 92 11t68.5 43t47.5 79q8 47 -20.5 77t-73.5 30t-83 -29q-22 -18 -44 -55l-72 28q22 44 59 73q68 53 152 53t132.5 -53t36.5 -124q-19 -113 -157 -168q83 -7 127 -60q63 -75 47 -173q-17 -100 -107.5 -172.5t-204.5 -72.5q-113 0 -181 74
q-52 57 -52 141l88 28q-4 -80 36 -124q46 -48 121 -48q76 0 139 49.5t75 124.5q12 73 -33 127t-149 74zM1703 1414l-1251 -1414h-102l1249 1414h104zM1620 880l-102 -612h81l-12 -67h-81l-33 -201h-84l33 201h-359zM1491 610l-279 -342h222z" />
    <glyph glyph-name="questiondown" unicode="&#xbf;" horiz-adv-x="752" 
d="M576 1331q5 33 32.5 56t59.5 23q33 0 52.5 -23t14.5 -56q-6 -33 -33 -56t-60 -23q-32 0 -52 23t-14 56zM666 1063q-1 -14 -4 -27q-33 -197 -211 -379q-212 -217 -253 -309q-16 -36 -21 -69q-9 -52 8 -96q26 -73 106 -104q37 -14 74 -14q47 0 95 21q90 39 135 124
q21 39 27 76l2 18l78 5q-1 -15 -3 -31q-8 -46 -34 -93q-74 -127 -200 -174q-63 -23 -121 -23q-59 0 -113 23q-108 48 -131 160q-12 56 -3 110q9 55 39 108q60 106 251 302q169 174 195 332q4 20 5 40h79z" />
    <glyph glyph-name="Agrave" unicode="&#xc0;" horiz-adv-x="1116" 
d="M891 701l-115 593l-316 -593h431zM837 1414l276 -1414h-84l-122 622h-489l-334 -622h-85l756 1414h82zM791 1683l116 -165h-75l-188 165h147z" />
    <glyph glyph-name="Aacute" unicode="&#xc1;" horiz-adv-x="1116" 
d="M891 701l-115 593l-316 -593h431zM837 1414l276 -1414h-84l-122 622h-489l-334 -622h-85l756 1414h82zM1032 1683l-245 -165h-74l172 165h147z" />
    <glyph glyph-name="Acircumflex" unicode="&#xc2;" horiz-adv-x="1116" 
d="M891 701l-115 593l-316 -593h431zM837 1414l276 -1414h-84l-122 622h-489l-334 -622h-85l756 1414h82zM1043 1519h-92l-127 106l-153 -106h-93l259 187z" />
    <glyph glyph-name="Atilde" unicode="&#xc3;" horiz-adv-x="1116" 
d="M891 701l-115 593l-316 -593h431zM837 1414l276 -1414h-84l-122 622h-489l-334 -622h-85l756 1414h82zM839 1633q52 -43 75 -43h4q19 7 31 32q7 14 13 49l63 -13q-8 -37 -20 -61q-27 -55 -74 -74q-13 -4 -26 -4q-41 0 -97 45q-52 44 -75 44q-3 0 -4 -1q-18 -6 -30 -32
q-8 -14 -14 -49l-62 14q7 37 19 60q27 55 75 74q12 5 26 5q41 0 96 -46z" />
    <glyph glyph-name="Adieresis" unicode="&#xc4;" horiz-adv-x="1116" 
d="M891 701l-115 593l-316 -593h431zM837 1414l276 -1414h-84l-122 622h-489l-334 -622h-85l756 1414h82zM757 1658q20 -23 14 -55q-5 -34 -32.5 -57t-59.5 -23q-33 0 -52.5 23t-14.5 57q6 32 33 55t60 23q32 0 52 -23zM1022 1658q20 -23 14 -55q-5 -34 -32.5 -57t-59.5 -23
q-33 0 -52.5 23t-14.5 57q6 32 33 55t60 23q32 0 52 -23z" />
    <glyph glyph-name="Aring" unicode="&#xc5;" horiz-adv-x="1116" 
d="M891 701l-115 593l-316 -593h431zM819 1573q-21 0 -38.5 -15t-20.5 -37q-4 -21 8.5 -36.5t33.5 -15.5t38.5 15.5t21.5 36.5q3 22 -9.5 37t-33.5 15zM837 1414l276 -1414h-84l-122 622h-489l-334 -622h-85l756 1414q-20 5 -38 27q-27 33 -19 80q7 47 45.5 80t85.5 33
t74.5 -33t20.5 -80q-8 -47 -47 -80q-26 -22 -40 -27z" />
    <glyph glyph-name="AE" unicode="&#xc6;" horiz-adv-x="1443" 
d="M1456 747l-13 -80h-627l-99 -587h627l-13 -80h-706l91 542h-300l-332 -542h-85l852 1414h717l-14 -80h-627l-98 -587h627zM729 621l105 629l-376 -629h271z" />
    <glyph glyph-name="Ccedilla" unicode="&#xc7;" horiz-adv-x="1347" 
d="M727 -14q-254 22 -408 209q-177 211 -127 512q50 299 297.5 511.5t548.5 212.5q280 0 455 -189l-70 -54q-155 161 -399 161q-266 0 -486 -188t-265 -454q-44 -267 113 -455t423 -188q244 0 453 161l52 -54q-239 -188 -519 -188h-5l-19 -35q91 -7 108 -61q9 -29 5 -56
q-4 -23 -19 -44q-30 -45 -94 -55q-23 -4 -43 -4q-34 0 -57 11q-36 17 -60 39l44 40q28 -35 67 -35q10 0 21 3q49 11 57 57l1 6q4 43 -92 43q-17 0 -37 -1z" />
    <glyph glyph-name="Egrave" unicode="&#xc8;" horiz-adv-x="931" 
d="M1056 1414l-14 -80h-627l-98 -587h627l-13 -80h-627l-99 -587h627l-13 -80h-707l237 1414h707zM701 1683l116 -165h-75l-188 165h147z" />
    <glyph glyph-name="Eacute" unicode="&#xc9;" horiz-adv-x="931" 
d="M1056 1414l-14 -80h-627l-98 -587h627l-13 -80h-627l-99 -587h627l-13 -80h-707l237 1414h707zM942 1683l-245 -165h-74l172 165h147z" />
    <glyph glyph-name="Ecircumflex" unicode="&#xca;" horiz-adv-x="931" 
d="M1056 1414l-14 -80h-627l-98 -587h627l-13 -80h-627l-99 -587h627l-13 -80h-707l237 1414h707zM952 1519h-92l-127 106l-153 -106h-93l259 187z" />
    <glyph glyph-name="Edieresis" unicode="&#xcb;" horiz-adv-x="931" 
d="M1056 1414l-14 -80h-627l-98 -587h627l-13 -80h-627l-99 -587h627l-13 -80h-707l237 1414h707zM667 1658q20 -23 14 -55q-5 -34 -32.5 -57t-59.5 -23q-33 0 -52.5 23t-14.5 57q6 32 33 55t60 23q32 0 52 -23zM932 1658q20 -23 14 -55q-5 -34 -32.5 -57t-59.5 -23
q-33 0 -52.5 23t-14.5 57q6 32 33 55t60 23q32 0 52 -23z" />
    <glyph glyph-name="Igrave" unicode="&#xcc;" horiz-adv-x="324" 
d="M439 1414l-237 -1414h-80l237 1414h80zM397 1683l116 -165h-75l-188 165h147z" />
    <glyph glyph-name="Iacute" unicode="&#xcd;" horiz-adv-x="324" 
d="M439 1414l-237 -1414h-80l237 1414h80zM638 1683l-245 -165h-74l172 165h147z" />
    <glyph glyph-name="Icircumflex" unicode="&#xce;" horiz-adv-x="324" 
d="M420 1414l-237 -1414h-80l237 1414h80zM629 1519h-92l-127 106l-153 -106h-93l259 187z" />
    <glyph glyph-name="Idieresis" unicode="&#xcf;" horiz-adv-x="324" 
d="M439 1414l-237 -1414h-80l237 1414h80zM363 1658q20 -23 14 -55q-5 -34 -32.5 -57t-59.5 -23q-33 0 -52.5 23t-14.5 57q6 32 33 55t60 23q32 0 52 -23zM628 1658q20 -23 14 -55q-5 -34 -32.5 -57t-59.5 -23q-33 0 -52.5 23t-14.5 57q6 32 33 55t60 23q32 0 52 -23z" />
    <glyph glyph-name="Eth" unicode="&#xd0;" horiz-adv-x="1240" 
d="M340 667l-98 -585h181q305 0 510 170q219 188 264 455q44 266 -112 455q-148 169 -453 169h-181l-98 -584h492l-13 -80h-492zM273 747l112 667h262q349 -2 508 -195q177 -213 127 -512q-51 -301 -298 -513q-224 -192 -574 -194h-262l112 667h-128l13 80h128z" />
    <glyph glyph-name="Ntilde" unicode="&#xd1;" horiz-adv-x="1339" 
d="M447 1414l719 -1317l221 1317h80l-237 -1414h-123l-703 1286l-215 -1286h-80l237 1414h101zM952 1633q52 -43 75 -43h4q19 7 31 32q7 14 13 49l63 -13q-8 -37 -20 -61q-27 -55 -74 -74q-13 -4 -26 -4q-41 0 -97 45q-52 44 -75 44q-3 0 -4 -1q-18 -6 -30 -32
q-8 -14 -14 -49l-62 14q7 37 19 60q27 55 75 74q12 5 26 5q41 0 96 -46z" />
    <glyph glyph-name="Ograve" unicode="&#xd2;" horiz-adv-x="1575" 
d="M1505 1221.5q177 -212.5 126 -512.5q-50 -301 -298 -513.5t-549 -212.5q-300 0 -477 212.5t-127 513.5q51 300 299 512.5t548 212.5q301 0 478 -212.5zM1013 1353q-266 0 -486.5 -189t-265.5 -455q-44 -267 113 -456t423 -189q267 0 488 189t265 456q45 266 -112.5 455
t-424.5 189zM1022 1683l117 -165h-75l-189 165h147z" />
    <glyph glyph-name="Oacute" unicode="&#xd3;" horiz-adv-x="1575" 
d="M1505 1221.5q177 -212.5 126 -512.5q-50 -301 -298 -513.5t-549 -212.5q-300 0 -477 212.5t-127 513.5q51 300 299 512.5t548 212.5q301 0 478 -212.5zM1013 1353q-266 0 -486.5 -189t-265.5 -455q-44 -267 113 -456t423 -189q267 0 488 189t265 456q45 266 -112.5 455
t-424.5 189zM1263 1683l-244 -165h-74l171 165h147z" />
    <glyph glyph-name="Ocircumflex" unicode="&#xd4;" horiz-adv-x="1575" 
d="M1505 1221.5q177 -212.5 126 -512.5q-50 -301 -298 -513.5t-549 -212.5q-300 0 -477 212.5t-127 513.5q51 300 299 512.5t548 212.5q301 0 478 -212.5zM1013 1353q-266 0 -486.5 -189t-265.5 -455q-44 -267 113 -456t423 -189q267 0 488 189t265 456q45 266 -112.5 455
t-424.5 189zM1274 1519h-92l-127 106l-153 -106h-93l259 187z" />
    <glyph glyph-name="Otilde" unicode="&#xd5;" horiz-adv-x="1575" 
d="M1505 1221.5q177 -212.5 126 -512.5q-50 -301 -298 -513.5t-549 -212.5q-300 0 -477 212.5t-127 513.5q51 300 299 512.5t548 212.5q301 0 478 -212.5zM1013 1353q-266 0 -486.5 -189t-265.5 -455q-44 -267 113 -456t423 -189q267 0 488 189t265 456q45 266 -112.5 455
t-424.5 189zM1070 1633q52 -43 75 -43h4q19 7 31 32q6 14 12 49l64 -13q-8 -37 -20 -61q-27 -55 -74 -74q-13 -4 -26 -4q-41 0 -98 45q-51 44 -74 44q-3 0 -4 -1q-18 -6 -31 -32q-7 -14 -13 -49l-63 14q8 37 19 60q28 55 76 74q12 5 26 5q41 0 96 -46z" />
    <glyph glyph-name="Odieresis" unicode="&#xd6;" horiz-adv-x="1575" 
d="M1505 1221.5q177 -212.5 126 -512.5q-50 -301 -298 -513.5t-549 -212.5q-300 0 -477 212.5t-127 513.5q51 300 299 512.5t548 212.5q301 0 478 -212.5zM1013 1353q-266 0 -486.5 -189t-265.5 -455q-44 -267 113 -456t423 -189q267 0 488 189t265 456q45 266 -112.5 455
t-424.5 189zM988.5 1658q19.5 -23 14.5 -55q-6 -34 -33 -57t-59 -23q-33 0 -53 23t-14 57q5 32 32.5 55t60.5 23q32 0 51.5 -23zM1253.5 1658q19.5 -23 14.5 -55q-6 -34 -33 -57t-59 -23q-33 0 -53 23t-14 57q5 32 32.5 55t60.5 23q32 0 51.5 -23z" />
    <glyph glyph-name="multiply" unicode="&#xd7;" horiz-adv-x="1070" 
d="M534 616l-289 -289l-57 56l290 290l-290 290l57 56l289 -289l290 289l57 -56l-290 -290l290 -290l-57 -56z" />
    <glyph glyph-name="Oslash" unicode="&#xd8;" horiz-adv-x="1647" 
d="M1278 1310q-101 43 -229 43q-266 0 -486.5 -189t-265.5 -455q-44 -267 113 -456q57 -68 128 -113zM605 107q101 -43 228 -43q267 0 488 189t265 456q45 266 -112 456q-58 68 -129 111zM1392 1350q82 -49 149 -128q177 -213 126 -513q-50 -301 -298 -513.5t-549 -212.5
q-145 0 -262 51l-103 -163l-66 34l103 162q-83 50 -148 129q-178 212 -128 513q51 300 299 512.5t548 212.5q146 0 262 -50l103 162l67 -33z" />
    <glyph glyph-name="Ugrave" unicode="&#xd9;" horiz-adv-x="1147" 
d="M1191 1414h80l-170 -1016q-49 -162 -181 -275q-157 -135 -348 -135q-192 0 -304.5 135t-80.5 326l161 965h80l-161 -965q-26 -157 67 -269t251 -112t288.5 112t156.5 269zM808 1683l117 -165h-75l-189 165h147z" />
    <glyph glyph-name="Uacute" unicode="&#xda;" horiz-adv-x="1147" 
d="M1191 1414h80l-170 -1016q-49 -162 -181 -275q-157 -135 -348 -135q-192 0 -304.5 135t-80.5 326l161 965h80l-161 -965q-26 -157 67 -269t251 -112t288.5 112t156.5 269zM1049 1683l-244 -165h-74l171 165h147z" />
    <glyph glyph-name="Ucircumflex" unicode="&#xdb;" horiz-adv-x="1147" 
d="M1191 1414h80l-170 -1016q-49 -162 -181 -275q-157 -135 -348 -135q-192 0 -304.5 135t-80.5 326l161 965h80l-161 -965q-26 -157 67 -269t251 -112t288.5 112t156.5 269zM1060 1519h-92l-127 106l-153 -106h-93l259 187z" />
    <glyph glyph-name="Udieresis" unicode="&#xdc;" horiz-adv-x="1147" 
d="M1191 1414h80l-170 -1016q-49 -162 -181 -275q-157 -135 -348 -135q-192 0 -304.5 135t-80.5 326l161 965h80l-161 -965q-26 -157 67 -269t251 -112t288.5 112t156.5 269zM774.5 1658q19.5 -23 14.5 -55q-6 -34 -33 -57t-59 -23q-33 0 -53 23t-14 57q5 32 32.5 55
t60.5 23q32 0 51.5 -23zM1039.5 1658q19.5 -23 14.5 -55q-6 -34 -33 -57t-59 -23q-33 0 -53 23t-14 57q5 32 32.5 55t60.5 23q32 0 51.5 -23z" />
    <glyph glyph-name="Yacute" unicode="&#xdd;" horiz-adv-x="1116" 
d="M614 572l-345 842h91l309 -754l561 754h91l-627 -842l-96 -572h-80zM1034 1683l-245 -165h-74l172 165h147z" />
    <glyph glyph-name="Thorn" unicode="&#xde;" horiz-adv-x="946" 
d="M374 1169h291q158 -22 252 -135q112 -135 80 -326q-32 -192 -189.5 -327t-348.5 -135h-240l-41 -246h-80l237 1414h80zM233 326h240q157 0 287.5 112t156.5 270q27 158 -66.5 269.5t-250.5 111.5h-240z" />
    <glyph glyph-name="germandbls" unicode="&#xdf;" horiz-adv-x="990" 
d="M710 1265q-112 0 -173 -49.5t-75 -118.5l-184 -1097h-80l132 788h-88l13 80h88l40 235q22 98 104.5 167t226.5 69q248 -14 212 -236q-19 -112 -137 -195q-123 -86 -135 -157q-7 -68 176 -163q182 -96 151 -281q-26 -158 -129 -238q-104 -81 -211 -81q-147 0 -209 76
l66 56q43 -53 156 -53q73 0 151 58q77 57 98 182q16 153 -164 238t-163 201q19 115 140 194q116 75 131 167q22 138 -137 158z" />
    <glyph glyph-name="agrave" unicode="&#xe0;" horiz-adv-x="1122" 
d="M1033 0h-80l30 177q-28 -31 -60 -59q-166 -143 -368 -143q-200 0 -318.5 142.5t-85.5 342.5q34 202 200.5 344t366.5 142q202 0 320 -142q22 -28 40 -59l21 123h80zM1017 382l27 157q-3 117 -76 205q-98 118 -264 118t-303.5 -118t-165.5 -284q-27 -166 71 -283t264 -117
t303 118q103 88 144 204zM711 1217l117 -165h-75l-189 165h147z" />
    <glyph glyph-name="aacute" unicode="&#xe1;" horiz-adv-x="1122" 
d="M1033 0h-80l30 177q-28 -31 -60 -59q-166 -143 -368 -143q-200 0 -318.5 142.5t-85.5 342.5q34 202 200.5 344t366.5 142q202 0 320 -142q22 -28 40 -59l21 123h80zM1017 382l27 157q-3 117 -76 205q-98 118 -264 118t-303.5 -118t-165.5 -284q-27 -166 71 -283t264 -117
t303 118q103 88 144 204zM952 1217l-244 -165h-74l171 165h147z" />
    <glyph glyph-name="acircumflex" unicode="&#xe2;" horiz-adv-x="1122" 
d="M1033 0h-80l30 177q-28 -31 -60 -59q-166 -143 -368 -143q-200 0 -318.5 142.5t-85.5 342.5q34 202 200.5 344t366.5 142q202 0 320 -142q22 -28 40 -59l21 123h80zM1017 382l27 157q-3 117 -76 205q-98 118 -264 118t-303.5 -118t-165.5 -284q-27 -166 71 -283t264 -117
t303 118q103 88 144 204zM963 1053h-92l-128 106l-152 -106h-93l259 187z" />
    <glyph glyph-name="atilde" unicode="&#xe3;" horiz-adv-x="1122" 
d="M1033 0h-80l30 177q-28 -31 -60 -59q-166 -143 -368 -143q-200 0 -318.5 142.5t-85.5 342.5q34 202 200.5 344t366.5 142q202 0 320 -142q22 -28 40 -59l21 123h80zM1017 382l27 157q-3 117 -76 205q-98 118 -264 118t-303.5 -118t-165.5 -284q-27 -166 71 -283t264 -117
t303 118q103 88 144 204zM759 1167q52 -43 75 -43h4q19 7 31 32q6 14 12 49l64 -13q-8 -37 -20 -61q-27 -55 -75 -74q-12 -4 -25 -4q-41 0 -98 45q-51 44 -74 44q-3 0 -5 -1q-18 -6 -30 -32q-7 -14 -13 -49l-63 14q7 37 19 60q27 55 76 74q11 5 25 5q41 0 97 -46z" />
    <glyph glyph-name="adieresis" unicode="&#xe4;" horiz-adv-x="1122" 
d="M1033 0h-80l30 177q-28 -31 -60 -59q-166 -143 -368 -143q-200 0 -318.5 142.5t-85.5 342.5q34 202 200.5 344t366.5 142q202 0 320 -142q22 -28 40 -59l21 123h80zM1017 382l27 157q-3 117 -76 205q-98 118 -264 118t-303.5 -118t-165.5 -284q-27 -166 71 -283t264 -117
t303 118q103 88 144 204zM677.5 1192q19.5 -23 14.5 -55q-6 -34 -33.5 -57t-59.5 -23q-33 0 -52.5 23t-13.5 57q5 32 32.5 55t60.5 23q32 0 51.5 -23zM942.5 1192q19.5 -23 14.5 -55q-6 -34 -33.5 -57t-59.5 -23q-33 0 -52.5 23t-13.5 57q5 32 32.5 55t60.5 23
q32 0 51.5 -23z" />
    <glyph glyph-name="aring" unicode="&#xe5;" horiz-adv-x="1122" 
d="M1017 382l27 157q-3 117 -76 205q-98 118 -264 118t-303.5 -118t-165.5 -284q-27 -166 71 -283t264 -117t303 118q103 88 144 204zM740 1109q-22 0 -39.5 -15t-21.5 -37q-3 -21 9.5 -36.5t34.5 -15.5q21 0 38.5 15.5t20.5 36.5q4 22 -8.5 37t-33.5 15zM734 946
q191 -6 304 -142q22 -28 40 -59l21 123h80l-146 -868h-80l30 177q-28 -31 -60 -59q-166 -143 -368 -143q-200 0 -318.5 142.5t-85.5 342.5q34 202 201 344q155 133 342 141q-34 6 -56 32q-28 33 -21 80q8 47 47 80t86 33q46 0 74 -33t20 -80q-7 -47 -46 -80q-30 -25 -64 -31
z" />
    <glyph glyph-name="ae" unicode="&#xe6;" horiz-adv-x="1873" 
d="M1022 653q-19 49 -54 91q-98 118 -264 118t-303.5 -118t-165.5 -284q-27 -166 71 -283t264 -117t303 118q49 42 84 90q39 53 60 114l27 157q-1 61 -22 114zM1837 586q-13 91 -70 158q-97 118 -263 118t-304 -118q-28 -24 -50 -49l-18 -109h705zM1071 226q14 -25 34 -48
q99 -118 265 -118t302 118q25 20 45 42l80 -30q-19 -25 -75 -72q-166 -143 -367 -143q-189 0 -304 127l-18 -102h-80l30 177q-28 -31 -60 -59q-166 -143 -368 -143q-200 0 -318.5 142.5t-85.5 342.5q34 202 200.5 344t366.5 142q202 0 320 -142q22 -28 40 -59l21 123h80
l-8 -48q158 126 347 126q201 0 319 -142q105 -126 81 -299l-800 1z" />
    <glyph glyph-name="ccedilla" unicode="&#xe7;" horiz-adv-x="985" 
d="M440 -16q-136 26 -225 134q-119 142 -85 343q33 201 199.5 343t366.5 142q202 0 320 -142q24 -29 42 -60l-89 -31q-11 16 -23 32q-98 117 -264 117q-165 0 -302.5 -117.5t-164.5 -283.5q-28 -166 70 -283.5t263 -117.5q166 0 303 118q18 15 33 31l79 -31q-28 -31 -62 -60
q-166 -143 -368 -143q-17 0 -33 1l-15 -28q91 -7 108 -61q9 -29 4 -56q-4 -23 -18 -44q-31 -45 -94 -55q-24 -4 -44 -4q-34 0 -56 11q-36 17 -61 39l44 40q28 -35 67 -35q10 0 22 3q49 11 56 57l1 6q4 43 -92 43q-17 0 -37 -1z" />
    <glyph glyph-name="egrave" unicode="&#xe8;" horiz-adv-x="1042" 
d="M253 586h762q-13 91 -69 158q-98 118 -264 118t-304 -118q-82 -71 -125 -158zM224 505q-7 -21 -11 -45q-27 -166 71 -283t264 -117t303 118q24 20 45 42l80 -30q-19 -25 -75 -72q-166 -143 -368 -143q-200 0 -318.5 142.5t-85.5 342.5q34 202 200.5 344t366.5 142
q202 0 320 -142q104 -126 75 -299h-867zM686 1217l117 -165h-75l-189 165h147z" />
    <glyph glyph-name="eacute" unicode="&#xe9;" horiz-adv-x="1042" 
d="M253 586h762q-13 91 -69 158q-98 118 -264 118t-304 -118q-82 -71 -125 -158zM224 505q-7 -21 -11 -45q-27 -166 71 -283t264 -117t303 118q24 20 45 42l80 -30q-19 -25 -75 -72q-166 -143 -368 -143q-200 0 -318.5 142.5t-85.5 342.5q34 202 200.5 344t366.5 142
q202 0 320 -142q104 -126 75 -299h-867zM927 1217l-244 -165h-74l171 165h147z" />
    <glyph glyph-name="ecircumflex" unicode="&#xea;" horiz-adv-x="1042" 
d="M253 586h762q-13 91 -69 158q-98 118 -264 118t-304 -118q-82 -71 -125 -158zM224 505q-7 -21 -11 -45q-27 -166 71 -283t264 -117t303 118q24 20 45 42l80 -30q-19 -25 -75 -72q-166 -143 -368 -143q-200 0 -318.5 142.5t-85.5 342.5q34 202 200.5 344t366.5 142
q202 0 320 -142q104 -126 75 -299h-867zM939 1053h-92l-128 106l-152 -106h-93l259 187z" />
    <glyph glyph-name="edieresis" unicode="&#xeb;" horiz-adv-x="1042" 
d="M253 586h762q-13 91 -69 158q-98 118 -264 118t-304 -118q-82 -71 -125 -158zM224 505q-7 -21 -11 -45q-27 -166 71 -283t264 -117t303 118q24 20 45 42l80 -30q-19 -25 -75 -72q-166 -143 -368 -143q-200 0 -318.5 142.5t-85.5 342.5q34 202 200.5 344t366.5 142
q202 0 320 -142q104 -126 75 -299h-867zM652.5 1192q19.5 -23 14.5 -55q-6 -34 -33.5 -57t-59.5 -23q-33 0 -52.5 23t-13.5 57q5 32 32.5 55t60.5 23q32 0 51.5 -23zM917.5 1192q19.5 -23 14.5 -55q-6 -34 -33.5 -57t-59.5 -23q-33 0 -52.5 23t-13.5 57q5 32 32.5 55
t60.5 23q32 0 51.5 -23z" />
    <glyph glyph-name="igrave" unicode="&#xec;" horiz-adv-x="317" 
d="M343 868l-145 -868h-79l145 868h79zM316 1217l116 -165h-75l-188 165h147z" />
    <glyph glyph-name="iacute" unicode="&#xed;" horiz-adv-x="317" 
d="M343 868l-145 -868h-79l145 868h79zM557 1217l-245 -165h-74l172 165h147z" />
    <glyph glyph-name="icircumflex" unicode="&#xee;" horiz-adv-x="317" 
d="M323 868l-145 -868h-79l145 868h79zM547 1053h-92l-127 106l-153 -106h-93l259 187z" />
    <glyph glyph-name="idieresis" unicode="&#xef;" horiz-adv-x="317" 
d="M344 868l-145 -868h-79l145 868h79zM282 1192q20 -23 14 -55q-5 -34 -32.5 -57t-59.5 -23q-33 0 -52.5 23t-14.5 57q6 32 33 55t60 23q32 0 52 -23zM547 1192q20 -23 14 -55q-5 -34 -32.5 -57t-59.5 -23q-33 0 -52.5 23t-14.5 57q6 32 33 55t60 23q32 0 52 -23z" />
    <glyph glyph-name="eth" unicode="&#xf0;" horiz-adv-x="1114" 
d="M233 460q-27 -166 71 -283t264 -117t303 117t164 283q28 166 -69.5 284t-263.5 118t-303.5 -118t-165.5 -284zM1036 804q117 -142 83 -344q-33 -200 -198.5 -342.5t-367.5 -142.5q-200 0 -318.5 142.5t-85.5 342.5q34 202 200.5 344t366.5 142q39 0 94 -5l-166 176
l-167 -143h-114l234 200l-164 196h112l117 -140l160 137h114l-226 -194q288 -325 326 -369z" />
    <glyph glyph-name="ntilde" unicode="&#xf1;" horiz-adv-x="879" 
d="M292 674l-113 -674h-80l145 868h80l-9 -56q126 108 270 108q154 0 234.5 -96.5t57.5 -242.5l-97 -581h-79l96 573q18 111 -48.5 189t-176.5 78q-109 0 -202 -77q-51 -43 -78 -89zM644 1167q52 -43 75 -43h4q19 7 31 32q7 14 13 49l63 -13q-8 -37 -20 -61q-27 -55 -74 -74
q-13 -4 -26 -4q-41 0 -97 45q-52 44 -75 44q-3 0 -4 -1q-18 -6 -30 -32q-8 -14 -14 -49l-62 14q7 37 19 60q27 55 75 74q12 5 26 5q41 0 96 -46z" />
    <glyph glyph-name="ograve" unicode="&#xf2;" horiz-adv-x="1114" 
d="M716 946q202 0 319.5 -142t83.5 -344q-33 -200 -198.5 -342.5t-367.5 -142.5q-200 0 -318.5 142.5t-85.5 342.5q34 202 200.5 344t366.5 142zM398.5 744q-137.5 -118 -165.5 -284q-27 -166 71 -283t264 -117t303 117t164 283q28 166 -69.5 284t-263.5 118t-303.5 -118z
M714 1217l117 -165h-75l-189 165h147z" />
    <glyph glyph-name="oacute" unicode="&#xf3;" horiz-adv-x="1114" 
d="M716 946q202 0 319.5 -142t83.5 -344q-33 -200 -198.5 -342.5t-367.5 -142.5q-200 0 -318.5 142.5t-85.5 342.5q34 202 200.5 344t366.5 142zM398.5 744q-137.5 -118 -165.5 -284q-27 -166 71 -283t264 -117t303 117t164 283q28 166 -69.5 284t-263.5 118t-303.5 -118z
M955 1217l-244 -165h-74l171 165h147z" />
    <glyph glyph-name="ocircumflex" unicode="&#xf4;" horiz-adv-x="1114" 
d="M716 946q202 0 319.5 -142t83.5 -344q-33 -200 -198.5 -342.5t-367.5 -142.5q-200 0 -318.5 142.5t-85.5 342.5q34 202 200.5 344t366.5 142zM398.5 744q-137.5 -118 -165.5 -284q-27 -166 71 -283t264 -117t303 117t164 283q28 166 -69.5 284t-263.5 118t-303.5 -118z
M967 1053h-92l-128 106l-152 -106h-93l259 187z" />
    <glyph glyph-name="otilde" unicode="&#xf5;" horiz-adv-x="1114" 
d="M716 946q202 0 319.5 -142t83.5 -344q-33 -200 -198.5 -342.5t-367.5 -142.5q-200 0 -318.5 142.5t-85.5 342.5q34 202 200.5 344t366.5 142zM398.5 744q-137.5 -118 -165.5 -284q-27 -166 71 -283t264 -117t303 117t164 283q28 166 -69.5 284t-263.5 118t-303.5 -118z
M763 1167q52 -43 75 -43h4q19 7 31 32q6 14 12 49l64 -13q-8 -37 -20 -61q-27 -55 -75 -74q-12 -4 -25 -4q-41 0 -98 45q-51 44 -74 44q-3 0 -5 -1q-18 -6 -30 -32q-7 -14 -13 -49l-63 14q7 37 19 60q27 55 76 74q11 5 25 5q41 0 97 -46z" />
    <glyph glyph-name="odieresis" unicode="&#xf6;" horiz-adv-x="1114" 
d="M716 946q202 0 319.5 -142t83.5 -344q-33 -200 -198.5 -342.5t-367.5 -142.5q-200 0 -318.5 142.5t-85.5 342.5q34 202 200.5 344t366.5 142zM398.5 744q-137.5 -118 -165.5 -284q-27 -166 71 -283t264 -117t303 117t164 283q28 166 -69.5 284t-263.5 118t-303.5 -118z
M680.5 1192q19.5 -23 14.5 -55q-6 -34 -33.5 -57t-59.5 -23q-33 0 -52.5 23t-13.5 57q5 32 32.5 55t60.5 23q32 0 51.5 -23zM945.5 1192q19.5 -23 14.5 -55q-6 -34 -33.5 -57t-59.5 -23q-33 0 -52.5 23t-13.5 57q5 32 32.5 55t60.5 23q32 0 51.5 -23z" />
    <glyph glyph-name="divide" unicode="&#xf7;" horiz-adv-x="1070" 
d="M85 633v80h900v-80h-900zM591.5 421q23.5 -23 23.5 -56t-23.5 -56t-55.5 -23q-33 0 -56.5 23t-23.5 56t23.5 56t56.5 23q32 0 55.5 -23zM591.5 1038q23.5 -23 23.5 -56t-23.5 -56t-55.5 -23q-33 0 -56.5 23t-23.5 56t23.5 56t56.5 23q32 0 55.5 -23z" />
    <glyph glyph-name="oslash" unicode="&#xf8;" horiz-adv-x="1080" 
d="M845 828q-70 34 -160 34q-166 0 -303.5 -117.5t-165.5 -283.5q-27 -166 70 -283q20 -24 44 -43zM906 787l-516 -692q71 -34 161 -34q166 0 303 117t164 283q28 166 -69 284q-20 24 -43 42zM275 62q-31 25 -58 56q-118 143 -85 343q34 202 200.5 344t366.5 142
q114 0 202 -46l139 188l63 -37l-141 -190q30 -25 57 -57q117 -142 83 -344q-33 -200 -198.5 -342.5t-367.5 -142.5q-114 0 -200 46l-140 -188l-65 33z" />
    <glyph glyph-name="ugrave" unicode="&#xf9;" horiz-adv-x="880" 
d="M443 -12q-163 0 -243 96t-58 243l90 542h80l-89 -535q-19 -110 48 -188q66 -79 184 -79q110 0 202.5 78.5t111.5 188.5l89 535h80l-90 -542q-28 -147 -140 -243t-265 -96zM597 1217l116 -165h-75l-188 165h147z" />
    <glyph glyph-name="uacute" unicode="&#xfa;" horiz-adv-x="880" 
d="M443 -12q-163 0 -243 96t-58 243l90 542h80l-89 -535q-19 -110 48 -188q66 -79 184 -79q110 0 202.5 78.5t111.5 188.5l89 535h80l-90 -542q-28 -147 -140 -243t-265 -96zM838 1217l-245 -165h-74l172 165h147z" />
    <glyph glyph-name="ucircumflex" unicode="&#xfb;" horiz-adv-x="880" 
d="M443 -12q-163 0 -243 96t-58 243l90 542h80l-89 -535q-19 -110 48 -188q66 -79 184 -79q110 0 202.5 78.5t111.5 188.5l89 535h80l-90 -542q-28 -147 -140 -243t-265 -96zM849 1053h-92l-127 106l-153 -106h-93l259 187z" />
    <glyph glyph-name="udieresis" unicode="&#xfc;" horiz-adv-x="880" 
d="M443 -12q-163 0 -243 96t-58 243l90 542h80l-89 -535q-19 -110 48 -188q66 -79 184 -79q110 0 202.5 78.5t111.5 188.5l89 535h80l-90 -542q-28 -147 -140 -243t-265 -96zM563 1192q20 -23 14 -55q-6 -34 -33 -57t-59 -23q-33 0 -53 23t-14 57q6 32 33 55t60 23
q32 0 52 -23zM828 1192q20 -23 14 -55q-6 -34 -33 -57t-59 -23q-33 0 -53 23t-14 57q6 32 33 55t60 23q32 0 52 -23z" />
    <glyph glyph-name="yacute" unicode="&#xfd;" horiz-adv-x="779" 
d="M461 163l-311 -493h-89l311 491l-212 707h89l184 -606l387 606h89l-447 -705h-1zM788 1217l-245 -165h-74l172 165h147z" />
    <glyph glyph-name="thorn" unicode="&#xfe;" horiz-adv-x="1204" 
d="M300 559l-33 -198q8 -104 75 -184q98 -118 264 -118t303 117.5t165 283.5t-70 284t-264 118t-303 -118q-94 -80 -137 -185zM332 750q26 28 55 54q167 141 367 141q202 0 320 -141.5t84 -343.5q-34 -200 -199 -342.5t-367 -142.5q-200 0 -319 143q-21 25 -38 53l-81 -487
h-80l260 1553h80z" />
    <glyph glyph-name="ydieresis" unicode="&#xff;" horiz-adv-x="779" 
d="M461 163l-311 -493h-89l311 491l-212 707h89l184 -606l387 606h89l-447 -705h-1zM513.5 1192q19.5 -23 13.5 -55q-5 -34 -32.5 -57t-59.5 -23q-33 0 -52.5 23t-14.5 57q6 32 33.5 55t60.5 23q32 0 51.5 -23zM778.5 1192q19.5 -23 13.5 -55q-5 -34 -32.5 -57t-59.5 -23
q-33 0 -52.5 23t-14.5 57q6 32 33.5 55t60.5 23q32 0 51.5 -23z" />
    <glyph glyph-name="Amacron" unicode="&#x100;" horiz-adv-x="1116" 
d="M891 701l-115 593l-316 -593h431zM837 1414l276 -1414h-84l-122 622h-489l-334 -622h-85l756 1414h82zM560 1580h521l-10 -62h-521z" />
    <glyph glyph-name="amacron" unicode="&#x101;" horiz-adv-x="1122" 
d="M1033 0h-80l30 177q-28 -31 -60 -59q-166 -143 -368 -143q-200 0 -318.5 142.5t-85.5 342.5q34 202 200.5 344t366.5 142q202 0 320 -142q22 -28 40 -59l21 123h80zM1017 382l27 157q-3 117 -76 205q-98 118 -264 118t-303.5 -118t-165.5 -284q-27 -166 71 -283t264 -117
t303 118q103 88 144 204zM483 1134h521l-10 -62h-521z" />
    <glyph glyph-name="Abreve" unicode="&#x102;" horiz-adv-x="1116" 
d="M891 701l-115 593l-316 -593h431zM837 1414l276 -1414h-84l-122 622h-489l-334 -622h-85l756 1414h82zM1037 1685q-22 -46 -65 -83q-70 -61 -156 -61q-88 0 -138 61q-32 39 -39 83h70q8 -20 22 -37q35 -43 96 -43q59 0 108 43q21 17 34 37h68z" />
    <glyph glyph-name="abreve" unicode="&#x103;" horiz-adv-x="1122" 
d="M1033 0h-80l30 177q-28 -31 -60 -59q-166 -143 -368 -143q-200 0 -318.5 142.5t-85.5 342.5q34 202 200.5 344t366.5 142q202 0 320 -142q22 -28 40 -59l21 123h80zM1017 382l27 157q-3 117 -76 205q-98 118 -264 118t-303.5 -118t-165.5 -284q-27 -166 71 -283t264 -117
t303 118q103 88 144 204zM957 1219q-22 -46 -65 -83q-71 -61 -157 -61q-88 0 -137 61q-32 39 -40 83h71q7 -20 21 -37q35 -43 96 -43q59 0 108 43q21 17 34 37h69z" />
    <glyph glyph-name="Aogonek" unicode="&#x104;" horiz-adv-x="1116" 
d="M891 701l-115 593l-316 -593h431zM1023 34l-116 588h-489l-334 -622h-85l756 1414h82l276 -1414h-59q-57 -18 -86 -40q-33 -25 -41 -62l-1 -6q-6 -33 12 -59q19 -28 53 -30q3 -1 6 -1q31 0 70 23l9 -48l-5 -3q-37 -28 -83 -28h-12q-56 4 -87 49q-28 41 -20 93q1 7 4 14
q15 61 66 100q41 30 84 32z" />
    <glyph glyph-name="aogonek" unicode="&#x105;" horiz-adv-x="1122" 
d="M1017 382l27 157q-3 117 -76 205q-98 118 -264 118t-303.5 -118t-165.5 -284q-27 -166 71 -283t264 -117t303 118q103 88 144 204zM959 34l24 143q-28 -31 -60 -59q-166 -143 -368 -143q-200 0 -318.5 142.5t-85.5 342.5q34 202 200.5 344t366.5 142q202 0 320 -142
q22 -28 40 -59l21 123h80l-146 -868h-59q-57 -18 -85 -40q-33 -25 -42 -62l-1 -6q-5 -33 13 -59q19 -28 53 -30q2 -1 5 -1q31 0 70 23l9 -48l-4 -3q-37 -28 -83 -28h-12q-56 4 -88 49q-28 41 -19 93q1 7 3 14q15 61 67 100q43 32 88 32h11z" />
    <glyph glyph-name="Cacute" unicode="&#x106;" horiz-adv-x="1347" 
d="M1262 225l52 -54q-239 -188 -519 -188q-301 0 -477 211.5t-126 512.5q50 299 297.5 511.5t548.5 212.5q280 0 455 -189l-70 -54q-155 161 -399 161q-266 0 -486 -188t-265 -454q-44 -267 113 -455t423 -188q244 0 453 161zM1156 1683l-245 -165h-74l172 165h147z" />
    <glyph glyph-name="cacute" unicode="&#x107;" horiz-adv-x="985" 
d="M884 209l79 -31q-28 -31 -62 -60q-166 -143 -368 -143q-200 0 -318.5 142.5t-84.5 343.5q33 201 199.5 343t366.5 142q202 0 320 -142q24 -29 42 -60l-89 -31q-11 16 -23 32q-98 117 -264 117q-165 0 -302.5 -117.5t-164.5 -283.5q-28 -166 70 -283.5t263 -117.5
q166 0 303 118q18 15 33 31zM891 1217l-244 -165h-74l171 165h147z" />
    <glyph glyph-name="Ccircumflex" unicode="&#x108;" horiz-adv-x="1347" 
d="M1262 225l52 -54q-239 -188 -519 -188q-301 0 -477 211.5t-126 512.5q50 299 297.5 511.5t548.5 212.5q280 0 455 -189l-70 -54q-155 161 -399 161q-266 0 -486 -188t-265 -454q-44 -267 113 -455t423 -188q244 0 453 161zM1166 1519h-92l-127 106l-153 -106h-93l260 187
z" />
    <glyph glyph-name="ccircumflex" unicode="&#x109;" horiz-adv-x="985" 
d="M884 209l79 -31q-28 -31 -62 -60q-166 -143 -368 -143q-200 0 -318.5 142.5t-84.5 343.5q33 201 199.5 343t366.5 142q202 0 320 -142q24 -29 42 -60l-89 -31q-11 16 -23 32q-98 117 -264 117q-165 0 -302.5 -117.5t-164.5 -283.5q-28 -166 70 -283.5t263 -117.5
q166 0 303 118q18 15 33 31zM902 1053h-92l-128 106l-152 -106h-93l259 187z" />
    <glyph glyph-name="Cdotaccent" unicode="&#x10a;" horiz-adv-x="1347" 
d="M1262 225l52 -54q-239 -188 -519 -188q-301 0 -477 211.5t-126 512.5q50 299 297.5 511.5t548.5 212.5q280 0 455 -189l-70 -54q-155 161 -399 161q-266 0 -486 -188t-265 -454q-44 -267 113 -455t423 -188q244 0 453 161zM1006 1667.5q17 -19.5 12 -47.5t-28 -47.5
t-50 -19.5q-28 0 -45 19.5t-12 47.5t28 47.5t51 19.5q27 0 44 -19.5z" />
    <glyph glyph-name="cdotaccent" unicode="&#x10b;" horiz-adv-x="985" 
d="M884 209l79 -31q-28 -31 -62 -60q-166 -143 -368 -143q-200 0 -318.5 142.5t-84.5 343.5q33 201 199.5 343t366.5 142q202 0 320 -142q24 -29 42 -60l-89 -31q-11 16 -23 32q-98 117 -264 117q-165 0 -302.5 -117.5t-164.5 -283.5q-28 -166 70 -283.5t263 -117.5
q166 0 303 118q18 15 33 31zM741.5 1201.5q16.5 -19.5 12.5 -47.5q-5 -28 -28.5 -47.5t-50.5 -19.5q-28 0 -44.5 19.5t-11.5 47.5q4 28 27.5 47.5t51.5 19.5q27 0 43.5 -19.5z" />
    <glyph glyph-name="Ccaron" unicode="&#x10c;" horiz-adv-x="1347" 
d="M1262 225l52 -54q-239 -188 -519 -188q-301 0 -477 211.5t-126 512.5q50 299 297.5 511.5t548.5 212.5q280 0 455 -189l-70 -54q-155 161 -399 161q-266 0 -486 -188t-265 -454q-44 -267 113 -455t423 -188q244 0 453 161zM924 1489l-196 187h93l117 -106l163 106h92z
" />
    <glyph glyph-name="ccaron" unicode="&#x10d;" horiz-adv-x="985" 
d="M884 209l79 -31q-28 -31 -62 -60q-166 -143 -368 -143q-200 0 -318.5 142.5t-84.5 343.5q33 201 199.5 343t366.5 142q202 0 320 -142q24 -29 42 -60l-89 -31q-11 16 -23 32q-98 117 -264 117q-165 0 -302.5 -117.5t-164.5 -283.5q-28 -166 70 -283.5t263 -117.5
q166 0 303 118q18 15 33 31zM661 1033l-196 187h93l117 -106l163 106h92z" />
    <glyph glyph-name="Dcaron" unicode="&#x10e;" horiz-adv-x="1189" 
d="M611 1414q348 -2 508 -195q176 -213 126 -512q-50 -301 -298 -513q-224 -192 -573 -194h-262l237 1414h262zM415 1331l-209 -1249h181q305 0 509 170q220 188 264 455q45 266 -112 455q-147 169 -452 169h-181zM864 1489l-197 187h93l118 -106l162 106h92z" />
    <glyph glyph-name="dcaron" unicode="&#x10f;" horiz-adv-x="1269" 
d="M1033 0h-80l30 177q-28 -31 -60 -59q-166 -143 -368 -143q-200 0 -318.5 142.5t-85.5 342.5q34 202 200.5 344t366.5 142q202 0 320 -142q22 -28 40 -59l112 669h80zM1017 382l27 157q-3 117 -76 205q-98 118 -264 118t-303.5 -118t-165.5 -284q-27 -166 71 -283
t264 -117t303 118q103 88 144 204zM1382 1268q-20 4 -32 20q-20 23 -14 57q5 33 32.5 55.5t60.5 22.5q32 0 51.5 -22.5t14.5 -55.5q-4 -19 -12 -35l-117 -175h-57z" />
    <glyph glyph-name="Dcroat" unicode="&#x110;" horiz-adv-x="1261" 
d="M340 667l-98 -585h181q305 0 510 170q219 188 264 455q44 266 -112 455q-148 169 -453 169h-181l-98 -584h492l-13 -80h-492zM273 747l112 667h262q349 -2 508 -195q177 -213 127 -512q-51 -301 -298 -513q-224 -192 -574 -194h-262l112 667h-128l13 80h128z" />
    <glyph glyph-name="dcroat" unicode="&#x111;" horiz-adv-x="1145" 
d="M1017 382l27 157q-3 117 -76 205q-98 118 -264 118t-303.5 -118t-165.5 -284q-27 -166 71 -283t264 -117t303 118q103 88 144 204zM1223 1134l-190 -1134h-80l30 177q-28 -31 -60 -59q-166 -143 -368 -143q-200 0 -318.5 142.5t-85.5 342.5q34 202 200.5 344t366.5 142
q202 0 320 -142q22 -28 40 -59l65 389h-306l13 79h306l34 201h80l-34 -201h114l-13 -79h-114z" />
    <glyph glyph-name="Emacron" unicode="&#x112;" horiz-adv-x="931" 
d="M1056 1414l-14 -80h-627l-98 -587h627l-13 -80h-627l-99 -587h627l-13 -80h-707l237 1414h707zM469 1580h521l-10 -62h-521z" />
    <glyph glyph-name="emacron" unicode="&#x113;" horiz-adv-x="1042" 
d="M253 586h762q-13 91 -69 158q-98 118 -264 118t-304 -118q-82 -71 -125 -158zM224 505q-7 -21 -11 -45q-27 -166 71 -283t264 -117t303 118q24 20 45 42l80 -30q-19 -25 -75 -72q-166 -143 -368 -143q-200 0 -318.5 142.5t-85.5 342.5q34 202 200.5 344t366.5 142
q202 0 320 -142q104 -126 75 -299h-867zM459 1134h521l-10 -62h-521z" />
    <glyph glyph-name="Ebreve" unicode="&#x114;" horiz-adv-x="931" 
d="M1056 1414l-14 -80h-627l-98 -587h627l-13 -80h-627l-99 -587h627l-13 -80h-707l237 1414h707zM946 1685q-22 -46 -65 -83q-70 -61 -156 -61q-88 0 -138 61q-32 39 -39 83h70q8 -20 22 -37q35 -43 96 -43q59 0 108 43q21 17 34 37h68z" />
    <glyph glyph-name="ebreve" unicode="&#x115;" horiz-adv-x="1042" 
d="M253 586h762q-13 91 -69 158q-98 118 -264 118t-304 -118q-82 -71 -125 -158zM224 505q-7 -21 -11 -45q-27 -166 71 -283t264 -117t303 118q24 20 45 42l80 -30q-19 -25 -75 -72q-166 -143 -368 -143q-200 0 -318.5 142.5t-85.5 342.5q34 202 200.5 344t366.5 142
q202 0 320 -142q104 -126 75 -299h-867zM932 1219q-22 -46 -64 -83q-71 -61 -157 -61q-88 0 -137 61q-33 39 -40 83h70q8 -20 22 -37q35 -43 96 -43q59 0 108 43q20 17 34 37h68z" />
    <glyph glyph-name="Edotaccent" unicode="&#x116;" horiz-adv-x="931" 
d="M1056 1414l-14 -80h-627l-98 -587h627l-13 -80h-627l-99 -587h627l-13 -80h-707l237 1414h707zM792 1667.5q17 -19.5 12 -47.5t-28 -47.5t-50 -19.5q-28 0 -45 19.5t-12 47.5t28 47.5t51 19.5q27 0 44 -19.5z" />
    <glyph glyph-name="edotaccent" unicode="&#x117;" horiz-adv-x="1042" 
d="M253 586h762q-13 91 -69 158q-98 118 -264 118t-304 -118q-82 -71 -125 -158zM224 505q-7 -21 -11 -45q-27 -166 71 -283t264 -117t303 118q24 20 45 42l80 -30q-19 -25 -75 -72q-166 -143 -368 -143q-200 0 -318.5 142.5t-85.5 342.5q34 202 200.5 344t366.5 142
q202 0 320 -142q104 -126 75 -299h-867zM778.5 1201.5q16.5 -19.5 12.5 -47.5q-5 -28 -28.5 -47.5t-50.5 -19.5q-28 0 -44.5 19.5t-11.5 47.5q4 28 27.5 47.5t51.5 19.5q27 0 43.5 -19.5z" />
    <glyph glyph-name="Eogonek" unicode="&#x118;" horiz-adv-x="931" 
d="M643 0h-531l237 1414h707l-14 -80h-627l-98 -587h627l-13 -80h-627l-99 -587h627l-13 -80h-59q-57 -18 -86 -40q-33 -25 -41 -62l-1 -6q-6 -33 12 -59q19 -28 53 -30q3 -1 6 -1q31 0 70 23l9 -48l-5 -3q-37 -28 -83 -28h-12q-56 4 -87 49q-28 41 -20 93q1 7 4 14
q14 59 64 98z" />
    <glyph glyph-name="eogonek" unicode="&#x119;" horiz-adv-x="1038" 
d="M253 586h762q-13 91 -69 158q-98 118 -264 118t-304 -118q-82 -71 -125 -158zM691 -2q-76 -23 -158 -23q-200 0 -318.5 142.5t-85.5 342.5q34 202 200.5 344t366.5 142q202 0 320 -142q104 -126 75 -299h-867q-7 -21 -11 -45q-27 -166 71 -283t264 -117t303 118
q24 20 45 42l80 -30q-19 -25 -75 -72q-23 -20 -47 -37q-116 -90 -124 -127l-1 -6q-6 -33 12 -59q19 -28 53 -30q3 -1 6 -1q31 0 70 23l9 -48l-5 -3q-37 -28 -83 -28h-12q-56 4 -87 49q-29 41 -20 93q1 7 3 14q6 22 16 40z" />
    <glyph glyph-name="Ecaron" unicode="&#x11a;" horiz-adv-x="931" 
d="M1056 1414l-14 -80h-627l-98 -587h627l-13 -80h-627l-99 -587h627l-13 -80h-707l237 1414h707zM710 1489l-197 187h93l118 -106l162 106h92z" />
    <glyph glyph-name="ecaron" unicode="&#x11b;" horiz-adv-x="1042" 
d="M253 586h762q-13 91 -69 158q-98 118 -264 118t-304 -118q-82 -71 -125 -158zM224 505q-7 -21 -11 -45q-27 -166 71 -283t264 -117t303 118q24 20 45 42l80 -30q-19 -25 -75 -72q-166 -143 -368 -143q-200 0 -318.5 142.5t-85.5 342.5q34 202 200.5 344t366.5 142
q202 0 320 -142q104 -126 75 -299h-867zM698 1033l-196 187h93l117 -106l163 106h92z" />
    <glyph glyph-name="Gcircumflex" unicode="&#x11c;" horiz-adv-x="1359" 
d="M1309 176q-234 -193 -514 -193q-301 0 -477 211.5t-126 512.5q50 299 297.5 511.5t548.5 212.5q280 0 455 -189l-70 -54q-155 161 -399 161q-266 0 -486 -188t-265 -454q-44 -267 113 -455t423 -188q228 0 425 140l72 431h79zM1166 1519h-92l-127 106l-153 -106h-93
l260 187z" />
    <glyph glyph-name="gcircumflex" unicode="&#x11d;" horiz-adv-x="1083" 
d="M1021 543q-4 114 -75 201q-98 118 -264 118t-303.5 -118t-165.5 -284q-27 -166 70.5 -283.5t263.5 -117.5t304 118q99 85 142 199zM958 172q-27 -28 -57 -54q-166 -143 -368 -143q-200 0 -318.5 142.5t-85.5 342.5q34 202 200.5 343.5t366.5 141.5q202 0 320 -141
q22 -28 40 -59l21 123h80l-113 -674q-33 -196 -195 -334q-166 -143 -367 -143t-320 143q-24 29 -42 60l89 31q11 -16 24 -31q97 -118 263 -118q165 0 303 118q125 107 159 252zM941 1053h-92l-128 106l-152 -106h-93l259 187z" />
    <glyph glyph-name="Gbreve" unicode="&#x11e;" horiz-adv-x="1359" 
d="M1309 176q-234 -193 -514 -193q-301 0 -477 211.5t-126 512.5q50 299 297.5 511.5t548.5 212.5q280 0 455 -189l-70 -54q-155 161 -399 161q-266 0 -486 -188t-265 -454q-44 -267 113 -455t423 -188q228 0 425 140l72 431h79zM1160 1685q-22 -46 -65 -83
q-70 -61 -156 -61q-88 0 -138 61q-32 39 -39 83h70q8 -20 22 -37q35 -43 96 -43q59 0 108 43q21 17 34 37h68z" />
    <glyph glyph-name="gbreve" unicode="&#x11f;" horiz-adv-x="1083" 
d="M1021 543q-4 114 -75 201q-98 118 -264 118t-303.5 -118t-165.5 -284q-27 -166 70.5 -283.5t263.5 -117.5t304 118q99 85 142 199zM958 172q-27 -28 -57 -54q-166 -143 -368 -143q-200 0 -318.5 142.5t-85.5 342.5q34 202 200.5 343.5t366.5 141.5q202 0 320 -141
q22 -28 40 -59l21 123h80l-113 -674q-33 -196 -195 -334q-166 -143 -367 -143t-320 143q-24 29 -42 60l89 31q11 -16 24 -31q97 -118 263 -118q165 0 303 118q125 107 159 252zM935 1219q-22 -46 -65 -83q-71 -61 -157 -61q-88 0 -137 61q-32 39 -40 83h71q7 -20 21 -37
q35 -43 96 -43q59 0 108 43q21 17 34 37h69z" />
    <glyph glyph-name="Gdotaccent" unicode="&#x120;" horiz-adv-x="1359" 
d="M1309 176q-234 -193 -514 -193q-301 0 -477 211.5t-126 512.5q50 299 297.5 511.5t548.5 212.5q280 0 455 -189l-70 -54q-155 161 -399 161q-266 0 -486 -188t-265 -454q-44 -267 113 -455t423 -188q228 0 425 140l72 431h79zM1006 1667.5q17 -19.5 12 -47.5t-28 -47.5
t-50 -19.5q-28 0 -45 19.5t-12 47.5t28 47.5t51 19.5q27 0 44 -19.5z" />
    <glyph glyph-name="gdotaccent" unicode="&#x121;" horiz-adv-x="1083" 
d="M1021 543q-4 114 -75 201q-98 118 -264 118t-303.5 -118t-165.5 -284q-27 -166 70.5 -283.5t263.5 -117.5t304 118q99 85 142 199zM958 172q-27 -28 -57 -54q-166 -143 -368 -143q-200 0 -318.5 142.5t-85.5 342.5q34 202 200.5 343.5t366.5 141.5q202 0 320 -141
q22 -28 40 -59l21 123h80l-113 -674q-33 -196 -195 -334q-166 -143 -367 -143t-320 143q-24 29 -42 60l89 31q11 -16 24 -31q97 -118 263 -118q165 0 303 118q125 107 159 252zM780.5 1201.5q16.5 -19.5 12.5 -47.5q-5 -28 -28.5 -47.5t-50.5 -19.5q-28 0 -44.5 19.5
t-11.5 47.5q4 28 27.5 47.5t51.5 19.5q27 0 43.5 -19.5z" />
    <glyph glyph-name="Gcommaaccent" unicode="&#x122;" horiz-adv-x="1359" 
d="M727 -14q-254 22 -408 209q-177 211 -127 512q50 299 297.5 511.5t548.5 212.5q280 0 455 -189l-70 -54q-155 161 -399 161q-266 0 -486 -188t-265 -454q-44 -267 113 -455t423 -188q228 0 425 140l72 431h79l-76 -459q-234 -193 -514 -193h-5l-19 -35q91 -7 108 -61
q9 -29 5 -56q-4 -23 -19 -44q-30 -45 -94 -55q-23 -4 -43 -4q-34 0 -57 11q-36 17 -60 39l44 40q28 -35 67 -35q10 0 21 3q49 11 57 57l1 6q4 43 -92 43q-17 0 -37 -1z" />
    <glyph glyph-name="gcommaaccent" unicode="&#x123;" horiz-adv-x="1083" 
d="M1021 543q-4 114 -75 201q-98 118 -264 118t-303.5 -118t-165.5 -284q-27 -166 70.5 -283.5t263.5 -117.5t304 118q99 85 142 199zM958 172q-27 -28 -57 -54q-166 -143 -368 -143q-200 0 -318.5 142.5t-85.5 342.5q34 202 200.5 343.5t366.5 141.5q202 0 320 -141
q22 -28 40 -59l21 123h80l-113 -674q-33 -196 -195 -334q-166 -143 -367 -143t-320 143q-24 29 -42 60l89 31q11 -16 24 -31q97 -118 263 -118q165 0 303 118q125 107 159 252zM746 1196q19 -4 31 -20q20 -23 15 -57q-6 -33 -33 -55.5t-60 -22.5q-32 0 -52 22.5t-14 55.5
q3 19 12 35l109 135h57z" />
    <glyph glyph-name="Hcircumflex" unicode="&#x124;" horiz-adv-x="1072" 
d="M286 667l-112 -667h-80l237 1414h80l-112 -667h724l112 667h80l-237 -1414h-80l112 667h-724zM1023 1519h-92l-127 106l-153 -106h-93l259 187z" />
    <glyph glyph-name="hcircumflex" unicode="&#x125;" horiz-adv-x="859" 
d="M331 1414h80l-99 -591q116 97 258 97q153 0 233.5 -96.5t58.5 -242.5l-97 -581h-80l96 573q18 111 -48.5 189t-175.5 78q-110 0 -202 -77q-42 -35 -66 -73l-115 -690h-80zM917 1522h-92l-128 106l-152 -106h-93l259 187z" />
    <glyph glyph-name="Hbar" unicode="&#x126;" horiz-adv-x="1072" 
d="M1168 1134l-190 -1134h-80l112 667h-724l-112 -667h-80l190 1134h-83l13 79h83l34 201h80l-34 -201h724l34 201h80l-34 -201h83l-13 -79h-83zM364 1134l-65 -387h724l65 387h-724z" />
    <glyph glyph-name="hbar" unicode="&#x127;" horiz-adv-x="839" 
d="M287 1213l34 201h80l-34 -201h194l-13 -79h-194l-52 -311q116 97 258 97q153 0 233.5 -96.5t58.5 -242.5l-97 -581h-80l96 573q18 111 -48.5 189t-175.5 78q-110 0 -202 -77q-42 -35 -66 -73l-115 -690h-80l190 1134h-100l13 79h100z" />
    <glyph glyph-name="Itilde" unicode="&#x128;" horiz-adv-x="324" 
d="M440 1414l-237 -1414h-80l237 1414h80zM445 1633q52 -43 75 -43h4q19 7 31 32q7 14 13 49l63 -13q-8 -37 -20 -61q-27 -55 -74 -74q-13 -4 -26 -4q-41 0 -97 45q-52 44 -75 44q-3 0 -4 -1q-18 -6 -30 -32q-8 -14 -14 -49l-62 14q7 37 19 60q27 55 75 74q12 5 26 5
q41 0 96 -46z" />
    <glyph glyph-name="itilde" unicode="&#x129;" horiz-adv-x="317" 
d="M343 868l-145 -868h-79l145 868h79zM363 1167q52 -43 75 -43h4q19 7 31 32q7 14 13 49l63 -13q-8 -37 -20 -61q-27 -55 -74 -74q-13 -4 -26 -4q-41 0 -97 45q-52 44 -75 44q-3 0 -4 -1q-18 -6 -30 -32q-8 -14 -14 -49l-62 14q7 37 19 60q27 55 75 74q12 5 26 5
q41 0 96 -46z" />
    <glyph glyph-name="Imacron" unicode="&#x12a;" horiz-adv-x="324" 
d="M440 1414l-237 -1414h-80l237 1414h80zM216 1580h421l-10 -62h-421z" />
    <glyph glyph-name="imacron" unicode="&#x12b;" horiz-adv-x="317" 
d="M343 868l-145 -868h-79l145 868h79zM138 1134h421l-11 -62h-421z" />
    <glyph glyph-name="Ibreve" unicode="&#x12c;" horiz-adv-x="324" 
d="M439 1414l-237 -1414h-80l237 1414h80zM643 1685q-22 -46 -65 -83q-70 -61 -156 -61q-88 0 -138 61q-32 39 -39 83h70q8 -20 22 -37q35 -43 96 -43q59 0 108 43q21 17 34 37h68z" />
    <glyph glyph-name="ibreve" unicode="&#x12d;" horiz-adv-x="317" 
d="M343 868l-145 -868h-79l145 868h79zM561 1219q-22 -46 -65 -83q-70 -61 -156 -61q-88 0 -138 61q-32 39 -39 83h70q8 -20 22 -37q35 -43 96 -43q59 0 108 43q21 17 34 37h68z" />
    <glyph glyph-name="Iogonek" unicode="&#x12e;" horiz-adv-x="324" 
d="M124 34l231 1380h80l-237 -1414h-59q-57 -18 -85 -40q-33 -25 -42 -62l-1 -6q-5 -33 12 -59q20 -28 53 -30q3 -1 6 -1q31 0 70 23l9 -48l-4 -3q-37 -28 -83 -28h-12q-56 4 -88 49q-28 41 -19 93q1 7 3 14q15 61 67 100q43 32 88 32h11z" />
    <glyph glyph-name="iogonek" unicode="&#x12f;" horiz-adv-x="297" 
d="M393.5 1152q19.5 -23 14.5 -55q-6 -34 -33 -57t-59 -23q-33 0 -53 23t-14 57q5 32 32.5 55t60.5 23q32 0 51.5 -23zM111 31l140 837h79l-146 -868h-19q-57 -18 -85 -40q-33 -25 -42 -62l-1 -6q-5 -33 12 -59q20 -28 53 -30q3 -1 6 -1q31 0 70 23l9 -48l-4 -3
q-37 -28 -83 -28h-12q-56 4 -88 49q-28 41 -19 93q1 7 3 14q15 61 67 100q29 22 60 29z" />
    <glyph glyph-name="Idotaccent" unicode="&#x130;" horiz-adv-x="324" 
d="M440 1414l-237 -1414h-80l237 1414h80zM489 1667.5q17 -19.5 12 -47.5t-28 -47.5t-50 -19.5q-28 0 -45 19.5t-12 47.5t28 47.5t51 19.5q27 0 44 -19.5z" />
    <glyph glyph-name="dotlessi" unicode="&#x131;" horiz-adv-x="317" 
d="M343 868l-145 -868h-79l145 868h79z" />
    <glyph glyph-name="IJ" unicode="&#x132;" horiz-adv-x="630" 
d="M439 1414l-237 -1414h-80l237 1414h80zM511 -27q-18 -108 -102.5 -178t-191.5 -70l12 73q73 0 133 50q57 49 71 135l240 1431h80z" />
    <glyph glyph-name="ij" unicode="&#x133;" horiz-adv-x="601" 
d="M343 868l-145 -868h-79l145 868h79zM407.5 1152q19.5 -23 14.5 -55q-6 -34 -33.5 -57t-59.5 -23q-33 0 -52.5 23t-13.5 57q5 32 32.5 55t60.5 23q32 0 51.5 -23zM286 -122q109 12 127 120l145 870h79l-145 -868q-30 -179 -218 -194zM701.5 1152q19.5 -23 14.5 -55
q-6 -34 -33.5 -57t-59.5 -23q-33 0 -52.5 23t-13.5 57q5 32 32.5 55t60.5 23q32 0 51.5 -23z" />
    <glyph glyph-name="Jcircumflex" unicode="&#x134;" horiz-adv-x="306" 
d="M188 -27q-18 -108 -103.5 -181.5t-192.5 -73.5l13 80q73 0 133 50q57 49 71 135l240 1431h80zM652 1519h-92l-127 106l-153 -106h-93l260 187z" />
    <glyph glyph-name="jcircumflex" unicode="&#x135;" horiz-adv-x="284" 
d="M-32 -122q109 12 127 120l146 870h79l-145 -868q-31 -186 -220 -201zM540 1053h-92l-127 106l-153 -106h-93l259 187z" />
    <glyph glyph-name="Kcommaaccent" unicode="&#x136;" horiz-adv-x="999" 
d="M999 1414l-456 -531l470 -883h-97l-435 817l-189 -218l-100 -599h-80l237 1414h80l-114 -677l587 677h97zM426 -50q75 0 100 -23q35 -31 27 -74l-1 -9q-13 -49 -76 -90q-54 -28 -109 -28q-31 0 -63 9l25 51q26 -11 53 -11q31 0 63 15q28 18 37 43q2 5 3 11q3 18 -9 32
q-15 17 -60 18z" />
    <glyph glyph-name="kcommaaccent" unicode="&#x137;" horiz-adv-x="635" 
d="M667 868l-258 -265l240 -603h-98l-205 539l-93 -96l-74 -443h-80l207 1237h80l-112 -667l291 298h102zM326 -50q75 0 100 -23q35 -31 27 -74l-1 -9q-13 -49 -76 -90q-54 -28 -109 -28q-31 0 -63 9l25 51q26 -11 53 -11q31 0 63 15q28 18 37 43q2 5 3 11q3 18 -9 32
q-15 17 -60 18z" />
    <glyph glyph-name="kgreenlandic" unicode="&#x138;" horiz-adv-x="635" 
d="M667 868l-258 -265l240 -603h-98l-205 539l-93 -96l-74 -443h-80l145 868h80l-50 -298l291 298h102z" />
    <glyph glyph-name="Lacute" unicode="&#x139;" horiz-adv-x="783" 
d="M112 0l237 1414h80l-224 -1334h539l-13 -80h-619zM898 1683l-245 -165h-74l172 165h147z" />
    <glyph glyph-name="lacute" unicode="&#x13a;" horiz-adv-x="300" 
d="M428 1414l-237 -1414h-80l237 1414h80zM584 1719l-245 -165h-74l172 165h147z" />
    <glyph glyph-name="Lcommaaccent" unicode="&#x13b;" horiz-adv-x="783" 
d="M112 0l237 1414h80l-224 -1334h539l-13 -80h-619zM326 -50q75 0 100 -23q35 -31 27 -74l-1 -9q-13 -49 -76 -90q-54 -28 -109 -28q-31 0 -63 9l25 51q26 -11 53 -11q31 0 63 15q28 18 37 43q2 5 3 11q3 18 -9 32q-15 17 -60 18z" />
    <glyph glyph-name="lcommaaccent" unicode="&#x13c;" horiz-adv-x="274" 
d="M414 1414l-237 -1414h-80l237 1414h80zM100 -50q75 0 100 -23q35 -31 28 -74l-2 -9q-13 -49 -76 -90q-54 -28 -109 -28q-31 0 -63 9l26 51q26 -11 53 -11q31 0 62 15q28 18 37 43q2 5 3 11q3 18 -8 32q-16 17 -60 18z" />
    <glyph glyph-name="Lcaron" unicode="&#x13d;" horiz-adv-x="783" 
d="M112 0l237 1414h80l-224 -1334h539l-13 -80h-619zM801 1268q-19 4 -31 20q-21 23 -15 57q6 33 33 55.5t60 22.5q32 0 52 -22.5t14 -55.5q-3 -19 -12 -35l-116 -175h-57z" />
    <glyph glyph-name="lcaron" unicode="&#x13e;" horiz-adv-x="439" 
d="M429 1414l-237 -1414h-80l237 1414h80zM551 1268q-19 4 -31 20q-21 23 -15 57q6 33 33 55.5t60 22.5q32 0 52 -22.5t14 -55.5q-3 -19 -12 -35l-116 -175h-57z" />
    <glyph glyph-name="Ldot" unicode="&#x13f;" horiz-adv-x="783" 
d="M112 0l237 1414h80l-224 -1334h539l-13 -80h-619zM797.5 754.5q16.5 -19.5 11.5 -47.5q-4 -28 -27.5 -47.5t-50.5 -19.5q-28 0 -44.5 19.5t-12.5 47.5q5 28 28.5 47.5t51.5 19.5q27 0 43.5 -19.5z" />
    <glyph glyph-name="ldot" unicode="&#x140;" horiz-adv-x="440" 
d="M416 1414l-237 -1414h-80l237 1414h80zM520.5 754.5q16.5 -19.5 11.5 -47.5q-4 -28 -27.5 -47.5t-50.5 -19.5q-28 0 -44.5 19.5t-12.5 47.5q5 28 28.5 47.5t51.5 19.5q27 0 43.5 -19.5z" />
    <glyph glyph-name="Lslash" unicode="&#x141;" horiz-adv-x="871" 
d="M398 696l457 327l-16 -94l-457 -327l-87 -522h539l-13 -80h-619l89 536l-229 -164l16 94l229 164l131 784h80z" />
    <glyph glyph-name="lslash" unicode="&#x142;" horiz-adv-x="376" 
d="M267 712l117 702h80l-106 -637l168 121l-16 -94l-168 -121l-114 -683h-80l103 618l-168 -121l16 94z" />
    <glyph glyph-name="Nacute" unicode="&#x143;" horiz-adv-x="1339" 
d="M447 1414l719 -1317l221 1317h80l-237 -1414h-123l-703 1286l-215 -1286h-80l237 1414h101zM1146 1683l-245 -165h-74l172 165h147z" />
    <glyph glyph-name="nacute" unicode="&#x144;" horiz-adv-x="879" 
d="M292 674l-113 -674h-80l145 868h80l-9 -56q126 108 270 108q154 0 234.5 -96.5t57.5 -242.5l-97 -581h-79l96 573q18 111 -48.5 189t-176.5 78q-109 0 -202 -77q-51 -43 -78 -89zM838 1217l-245 -165h-74l172 165h147z" />
    <glyph glyph-name="Ncommaaccent" unicode="&#x145;" horiz-adv-x="1339" 
d="M447 1414l719 -1317l221 1317h80l-237 -1414h-123l-703 1286l-215 -1286h-80l237 1414h101zM600 -50q75 0 100 -23q35 -31 27 -74l-1 -9q-13 -49 -76 -90q-54 -28 -109 -28q-31 0 -63 9l25 51q26 -11 53 -11q31 0 63 15q28 18 37 43q2 5 3 11q3 18 -9 32q-15 17 -60 18z
" />
    <glyph glyph-name="ncommaaccent" unicode="&#x146;" horiz-adv-x="879" 
d="M292 674l-113 -674h-80l145 868h80l-9 -56q126 108 270 108q154 0 234.5 -96.5t57.5 -242.5l-97 -581h-79l96 573q18 111 -48.5 189t-176.5 78q-109 0 -202 -77q-51 -43 -78 -89zM400 -50q75 0 100 -23q35 -31 27 -74l-1 -9q-13 -49 -76 -90q-54 -28 -109 -28
q-31 0 -63 9l25 51q26 -11 53 -11q31 0 63 15q28 18 37 43q2 5 3 11q3 18 -9 32q-15 17 -60 18z" />
    <glyph glyph-name="Ncaron" unicode="&#x147;" horiz-adv-x="1339" 
d="M447 1414l719 -1317l221 1317h80l-237 -1414h-123l-703 1286l-215 -1286h-80l237 1414h101zM914 1489l-197 187h93l118 -106l162 106h92z" />
    <glyph glyph-name="ncaron" unicode="&#x148;" horiz-adv-x="879" 
d="M292 674l-113 -674h-80l145 868h80l-9 -56q126 108 270 108q154 0 234.5 -96.5t57.5 -242.5l-97 -581h-79l96 573q18 111 -48.5 189t-176.5 78q-109 0 -202 -77q-51 -43 -78 -89zM608 1033l-197 187h93l117 -106l163 106h92z" />
    <glyph glyph-name="napostrophe" unicode="&#x149;" horiz-adv-x="998" 
d="M411 674l-113 -674h-80l145 868h80l-9 -56q126 108 270 108q154 0 234.5 -96.5t57.5 -242.5l-97 -581h-79l96 573q19 111 -48 189t-177 78q-109 0 -202 -77q-50 -43 -78 -89zM255 1053q-19 4 -31 20q-21 23 -15 57q6 33 33 55.5t60 22.5q32 0 52 -22.5t14 -55.5
q-3 -19 -12 -35l-116 -175h-57z" />
    <glyph glyph-name="Eng" unicode="&#x14a;" horiz-adv-x="1163" 
d="M988 84l-601 1102l-198 -1186h-80l240 1436l662 -1213l200 1191h80l-245 -1464q-18 -108 -103.5 -181.5t-192.5 -73.5l13 80q73 0 133 50q57 49 71 135z" />
    <glyph glyph-name="eng" unicode="&#x14b;" horiz-adv-x="885" 
d="M800 573q18 111 -48.5 189t-176.5 78q-109 0 -202 -77q-51 -43 -78 -89l-113 -674h-80l145 868h80l-9 -56q126 108 270 108q154 0 234.5 -96.5t57.5 -242.5l-77 -460h1l-28 -171q-18 -108 -103.5 -181.5t-192.5 -73.5l13 80q73 0 133 50q57 49 71 135z" />
    <glyph glyph-name="Omacron" unicode="&#x14c;" horiz-adv-x="1575" 
d="M1505 1221.5q177 -212.5 126 -512.5q-50 -301 -298 -513.5t-549 -212.5q-300 0 -477 212.5t-127 513.5q51 300 299 512.5t548 212.5q301 0 478 -212.5zM1013 1353q-266 0 -486.5 -189t-265.5 -455q-44 -267 113 -456t423 -189q267 0 488 189t265 456q45 266 -112.5 455
t-424.5 189zM791 1580h521l-10 -62h-521z" />
    <glyph glyph-name="omacron" unicode="&#x14d;" horiz-adv-x="1114" 
d="M716 946q202 0 319.5 -142t83.5 -344q-33 -200 -198.5 -342.5t-367.5 -142.5q-200 0 -318.5 142.5t-85.5 342.5q34 202 200.5 344t366.5 142zM398.5 744q-137.5 -118 -165.5 -284q-27 -166 71 -283t264 -117t303 117t164 283q28 166 -69.5 284t-263.5 118t-303.5 -118z
M487 1134h521l-10 -62h-521z" />
    <glyph glyph-name="Obreve" unicode="&#x14e;" horiz-adv-x="1575" 
d="M1505 1221.5q177 -212.5 126 -512.5q-50 -301 -298 -513.5t-549 -212.5q-300 0 -477 212.5t-127 513.5q51 300 299 512.5t548 212.5q301 0 478 -212.5zM1013 1353q-266 0 -486.5 -189t-265.5 -455q-44 -267 113 -456t423 -189q267 0 488 189t265 456q45 266 -112.5 455
t-424.5 189zM1268 1685q-22 -46 -65 -83q-70 -61 -156 -61q-88 0 -138 61q-33 39 -39 83h70q7 -20 22 -37q34 -43 95 -43q59 0 109 43q20 17 34 37h68z" />
    <glyph glyph-name="obreve" unicode="&#x14f;" horiz-adv-x="1114" 
d="M716 946q202 0 319.5 -142t83.5 -344q-33 -200 -198.5 -342.5t-367.5 -142.5q-200 0 -318.5 142.5t-85.5 342.5q34 202 200.5 344t366.5 142zM398.5 744q-137.5 -118 -165.5 -284q-27 -166 71 -283t264 -117t303 117t164 283q28 166 -69.5 284t-263.5 118t-303.5 -118z
M960 1219q-22 -46 -64 -83q-71 -61 -157 -61q-88 0 -137 61q-33 39 -40 83h70q8 -20 22 -37q35 -43 96 -43q59 0 108 43q20 17 34 37h68z" />
    <glyph glyph-name="Ohungarumlaut" unicode="&#x150;" horiz-adv-x="1575" 
d="M1505 1221.5q177 -212.5 126 -512.5q-50 -301 -298 -513.5t-549 -212.5q-300 0 -477 212.5t-127 513.5q51 300 299 512.5t548 212.5q301 0 478 -212.5zM1013 1353q-266 0 -486.5 -189t-265.5 -455q-44 -267 113 -456t423 -189q267 0 488 189t265 456q45 266 -112.5 455
t-424.5 189zM1112 1676l-244 -165h-74l171 165h147zM1314 1676l-243 -165h-75l171 165h147z" />
    <glyph glyph-name="ohungarumlaut" unicode="&#x151;" horiz-adv-x="1114" 
d="M716 946q202 0 319.5 -142t83.5 -344q-33 -200 -198.5 -342.5t-367.5 -142.5q-200 0 -318.5 142.5t-85.5 342.5q34 202 200.5 344t366.5 142zM398.5 744q-137.5 -118 -165.5 -284q-27 -166 71 -283t264 -117t303 117t164 283q28 166 -69.5 284t-263.5 118t-303.5 -118z
M807 1220l-245 -165h-74l172 165h147zM1009 1220l-244 -165h-75l172 165h147z" />
    <glyph glyph-name="OE" unicode="&#x152;" horiz-adv-x="2014" 
d="M1407 1334q68 -46 124 -112q166 -200 132 -475h388l-14 -80h-388q-60 -274 -289 -471q-82 -70 -169 -116h748l-13 -80h-884q-110 -17 -232 -17q-300 0 -477 212.5t-127 513.5q51 300 299 512.5t548 212.5q122 0 225 -20h884l-13 -80h-742zM1582 747q27 242 -118 418
q-58 68 -129 111q-35 21 -74 37q-99 40 -222 40q-266 0 -486.5 -189t-265.5 -455q-44 -267 113 -456t423 -189q123 0 236 39q44 16 86 37q86 44 166 113q203 174 257 414q5 20 8 42q4 19 6 38z" />
    <glyph glyph-name="oe" unicode="&#x153;" horiz-adv-x="1826" 
d="M227 460q-27 -166 71 -283t264 -117t303 117t164 283q28 166 -69.5 284t-263.5 118t-303.5 -118t-165.5 -284zM1097 688q18 -48 23 -102h670q-13 91 -69 158q-98 118 -264 118t-304 -118q-31 -27 -56 -56zM1020 232q17 -28 38 -54q99 -118 265 -118t303 118q24 20 45 42
l79 -30q-19 -25 -74 -72q-167 -143 -368 -143t-319 143q-16 20 -30 41q-21 -21 -44 -41q-166 -143 -368 -143q-200 0 -318.5 142.5t-85.5 342.5q34 202 200.5 344t366.5 142q202 0 320 -142q16 -20 30 -41q21 21 44 41q166 142 367 142t320 -142q104 -126 80 -299l-752 1
q-2 -23 -6 -46q-20 -125 -93 -228z" />
    <glyph glyph-name="Racute" unicode="&#x154;" horiz-adv-x="959" 
d="M415 1333l-127 -762h240q157 0 287.5 111.5t156.5 270.5q27 158 -66.5 269t-250.5 111h-240zM538 490h-264l-82 -490h-80l237 1414h371q158 -22 252 -135q112 -136 80 -326q-32 -192 -189 -327q-110 -94 -236 -123l242 -503h-98zM979 1683l-245 -165h-74l172 165h147z
" />
    <glyph glyph-name="racute" unicode="&#x155;" horiz-adv-x="406" 
d="M540 798q-88 -13 -185.5 -108t-120.5 -232l-77 -458h-80l145 868h80l-26 -158q30 35 68 68q85 73 164 97zM640 1217l-245 -165h-74l172 165h147z" />
    <glyph glyph-name="Rcommaaccent" unicode="&#x156;" horiz-adv-x="959" 
d="M415 1333l-127 -762h240q157 0 287.5 111.5t156.5 270.5q27 158 -66.5 269t-250.5 111h-240zM538 491q-12 -1 -24 -1h-240l-82 -490h-80l237 1414h371q158 -22 252 -135q112 -136 80 -326q-32 -192 -189 -327q-110 -94 -236 -123l242 -503h-98zM400 -50q75 0 100 -23
q35 -31 27 -74l-1 -9q-13 -49 -76 -90q-54 -28 -109 -28q-31 0 -63 9l25 51q26 -11 53 -11q31 0 63 15q28 18 37 43q2 5 3 11q3 18 -9 32q-15 17 -60 18z" />
    <glyph glyph-name="rcommaaccent" unicode="&#x157;" horiz-adv-x="406" 
d="M540 798q-67 -13 -146 -81q-131 -112 -162 -269l-75 -448h-80l146 868h80l-27 -158q30 35 69 68q85 73 164 97zM100 -50q75 0 100 -23q35 -31 28 -74l-2 -9q-13 -49 -76 -90q-54 -28 -109 -28q-31 0 -63 9l26 51q26 -11 53 -11q31 0 62 15q28 18 37 43q2 5 3 11
q3 18 -8 32q-16 17 -60 18z" />
    <glyph glyph-name="Rcaron" unicode="&#x158;" horiz-adv-x="959" 
d="M415 1333l-127 -762h240q157 0 287.5 111.5t156.5 270.5q27 158 -66.5 269t-250.5 111h-240zM538 491q-12 -1 -24 -1h-240l-82 -490h-80l237 1414h371q158 -22 252 -135q112 -136 80 -326q-32 -192 -189 -327q-110 -94 -236 -123l242 -503h-98zM747 1489l-197 187h93
l118 -106l162 106h92z" />
    <glyph glyph-name="rcaron" unicode="&#x159;" horiz-adv-x="406" 
d="M520 798q-88 -13 -185.5 -108t-120.5 -232l-77 -458h-80l145 868h80l-26 -158q30 35 68 68q85 73 164 97zM390 1033l-197 187h93l117 -106l163 106h92z" />
    <glyph glyph-name="Sacute" unicode="&#x15a;" horiz-adv-x="942" 
d="M626 783q-143 50 -216 137.5t-52 212.5q21 122 123 210t227 88q123 0 197 -88q41 -47 50 -105l-77 -28q-9 43 -39 79q-53 64 -144 64t-166 -64t-91 -156q-15 -91 38 -156q50 -59 148 -108q161 -55 257 -171q102 -122 73 -295q-29 -174 -172 -297t-316 -123
q-174 0 -275 124q-83 98 -80 228l79 27q-7 -115 65 -200q83 -100 224 -100t258 100t140 241q24 140 -60 240q-73 88 -191 140zM946 1683l-244 -165h-74l171 165h147z" />
    <glyph glyph-name="sacute" unicode="&#x15b;" horiz-adv-x="644" 
d="M402 466q-92 55 -124 94q-51 61 -37 147q15 86 86 147.5t157 61.5t134 -57q45 -55 34 -126l-1 -4l-74 -28q2 67 -25 101t-81 34q-53 0 -97.5 -38t-53.5 -91t23 -91q18 -23 82 -68q102 -61 142 -109q63 -76 45 -181q-18 -108 -105.5 -183.5t-194.5 -75.5t-169.5 75.5
t-47.5 165.5l82 20q-12 -77 31.5 -129.5t116.5 -52.5t135 52.5t74 127.5q12 73 -32 125q-23 28 -100 83zM710 1217l-245 -165h-74l172 165h147z" />
    <glyph glyph-name="Scircumflex" unicode="&#x15c;" horiz-adv-x="942" 
d="M626 783q-143 50 -216 137.5t-52 212.5q21 122 123 210t227 88q123 0 197 -88q41 -47 50 -105l-77 -28q-9 43 -39 79q-53 64 -144 64t-166 -64t-91 -156q-15 -91 38 -156q50 -59 148 -108q161 -55 257 -171q102 -122 73 -295q-29 -174 -172 -297t-316 -123
q-174 0 -275 124q-83 98 -80 228l79 27q-7 -115 65 -200q83 -100 224 -100t258 100t140 241q24 140 -60 240q-73 88 -191 140zM958 1519h-92l-127 106l-153 -106h-93l259 187z" />
    <glyph glyph-name="scircumflex" unicode="&#x15d;" horiz-adv-x="644" 
d="M402 466q-92 55 -124 94q-51 61 -37 147q15 86 86 147.5t157 61.5t134 -57q45 -55 34 -126l-1 -4l-74 -28q2 67 -25 101t-81 34q-53 0 -97.5 -38t-53.5 -91t23 -91q18 -23 82 -68q102 -61 142 -109q63 -76 45 -181q-18 -108 -105.5 -183.5t-194.5 -75.5t-169.5 75.5
t-47.5 165.5l82 20q-12 -77 31.5 -129.5t116.5 -52.5t135 52.5t74 127.5q12 73 -32 125q-23 28 -100 83zM721 1053h-92l-127 106l-153 -106h-93l259 187z" />
    <glyph glyph-name="Scedilla" unicode="&#x15e;" horiz-adv-x="942" 
d="M417 -14q-139 15 -226 121q-83 98 -80 228l79 27q-7 -115 65 -200q83 -100 224 -100t258 100t140 241q24 140 -60 240q-73 88 -191 140q-143 50 -216 137.5t-52 212.5q21 122 123 210t227 88q123 0 197 -88q41 -47 50 -105l-77 -28q-9 43 -39 79q-53 64 -144 64t-166 -64
t-91 -156q-15 -91 38 -156q50 -59 148 -108q161 -55 257 -171q102 -122 73 -295q-29 -174 -172 -297q-136 -117 -301 -123l-19 -35q91 -7 108 -61q9 -29 4 -56q-3 -23 -18 -44q-30 -45 -94 -55q-24 -4 -44 -4q-34 0 -56 11q-36 17 -60 39l43 40q28 -35 67 -35q10 0 22 3
q49 11 56 57l1 6q5 43 -91 43q-17 0 -38 -1z" />
    <glyph glyph-name="scedilla" unicode="&#x15f;" horiz-adv-x="644" 
d="M268 2q-77 13 -126 73q-62 75 -47 165l82 20q-12 -77 31.5 -129.5t116.5 -52.5t135 52.5t74 127.5q12 73 -32 125q-23 28 -100 83q-92 55 -124 94q-51 61 -37 147q15 86 86 147.5t157 61.5t134 -57q45 -55 34 -126l-1 -4l-74 -28q2 67 -25 101t-81 34q-53 0 -97.5 -38
t-53.5 -91t23 -91q18 -23 82 -68q102 -61 142 -109q63 -76 45 -181q-18 -108 -106 -183q-79 -69 -174 -75l-29 -52q91 -7 108 -61q9 -29 5 -56q-4 -23 -19 -44q-30 -45 -94 -55q-24 -4 -44 -4q-34 0 -56 11q-36 17 -60 39l43 40q29 -35 68 -35q10 0 21 3q49 11 57 57l1 6
q4 43 -92 43q-17 0 -37 -1z" />
    <glyph glyph-name="Scaron" unicode="&#x160;" horiz-adv-x="942" 
d="M626 783q-143 50 -216 137.5t-52 212.5q21 122 123 210t227 88q123 0 197 -88q41 -47 50 -105l-77 -28q-9 43 -39 79q-53 64 -144 64t-166 -64t-91 -156q-15 -91 38 -156q50 -59 148 -108q161 -55 257 -171q102 -122 73 -295q-29 -174 -172 -297t-316 -123
q-174 0 -275 124q-83 98 -80 228l79 27q-7 -115 65 -200q83 -100 224 -100t258 100t140 241q24 140 -60 240q-73 88 -191 140zM716 1489l-197 187h93l117 -106l163 106h92z" />
    <glyph glyph-name="scaron" unicode="&#x161;" horiz-adv-x="644" 
d="M402 466q-92 55 -124 94q-51 61 -37 147q15 86 86 147.5t157 61.5t134 -57q45 -55 34 -126l-1 -4l-74 -28q2 67 -25 101t-81 34q-53 0 -97.5 -38t-53.5 -91t23 -91q18 -23 82 -68q102 -61 142 -109q63 -76 45 -181q-18 -108 -105.5 -183.5t-194.5 -75.5t-169.5 75.5
t-47.5 165.5l82 20q-12 -77 31.5 -129.5t116.5 -52.5t135 52.5t74 127.5q12 73 -32 125q-23 28 -100 83zM481 1033l-197 187h93l117 -106l163 106h92z" />
    <glyph glyph-name="Tcommaaccent" unicode="&#x162;" horiz-adv-x="859" 
d="M692 1334l-223 -1334h-79l223 1334h-358l13 80h795l-13 -80h-358zM399 -50q75 0 101 -23q34 -31 27 -74l-1 -9q-14 -49 -76 -90q-54 -28 -109 -28q-31 0 -64 9l26 51q26 -11 53 -11q31 0 63 15q28 18 37 43q2 5 3 11q3 18 -9 32q-15 17 -60 18z" />
    <glyph glyph-name="tcommaaccent" unicode="&#x163;" horiz-adv-x="497" 
d="M355 868l61 369h79l-61 -369h177l-14 -80h-177l-132 -788h-79l132 788h-177l14 80h177zM200 -50q75 0 100 -23q35 -31 28 -74l-2 -9q-13 -49 -76 -90q-54 -28 -109 -28q-31 0 -63 9l26 51q26 -11 53 -11q31 0 62 15q28 18 37 43q2 5 3 11q3 18 -8 32q-16 17 -60 18z" />
    <glyph glyph-name="Tcaron" unicode="&#x164;" horiz-adv-x="859" 
d="M692 1334l-223 -1334h-79l223 1334h-358l13 80h795l-13 -80h-358zM674 1489l-197 187h93l117 -106l163 106h92z" />
    <glyph glyph-name="tcaron" unicode="&#x165;" horiz-adv-x="564" 
d="M354 868l62 369h79l-62 -369h177l-13 -80h-177l-132 -788h-79l132 788h-177l13 80h177zM671 1239q-19 4 -31 20q-20 23 -15 57q6 33 33 55.5t60 22.5q32 0 52 -22.5t14 -55.5q-3 -19 -12 -35l-116 -175h-57z" />
    <glyph glyph-name="Tbar" unicode="&#x166;" horiz-adv-x="859" 
d="M516 747l98 587h-358l14 80h795l-14 -80h-358l-98 -587h260l-13 -79h-260l-112 -668h-79l112 668h-261l13 79h261z" />
    <glyph glyph-name="tbar" unicode="&#x167;" horiz-adv-x="497" 
d="M341 788h-177l14 80h177l62 369h79l-62 -369h177l-14 -80h-177l-40 -239h177l-13 -80h-177l-78 -469h-79l78 469h-177l13 80h177z" />
    <glyph glyph-name="Utilde" unicode="&#x168;" horiz-adv-x="1147" 
d="M1191 1414h80l-170 -1016q-49 -162 -181 -275q-157 -135 -348 -135q-192 0 -304.5 135t-80.5 326l161 965h80l-161 -965q-26 -157 67 -269t251 -112t288.5 112t156.5 269zM856 1633q52 -43 75 -43h4q19 7 31 32q7 14 12 49l64 -13q-8 -37 -20 -61q-27 -55 -74 -74
q-13 -4 -26 -4q-41 0 -97 45q-52 44 -75 44q-3 0 -4 -1q-18 -6 -31 -32q-7 -14 -13 -49l-62 14q7 37 19 60q27 55 75 74q12 5 26 5q41 0 96 -46z" />
    <glyph glyph-name="utilde" unicode="&#x169;" horiz-adv-x="880" 
d="M443 -12q-163 0 -243 96t-58 243l90 542h80l-89 -535q-19 -110 48 -188q66 -79 184 -79q110 0 202.5 78.5t111.5 188.5l89 535h80l-90 -542q-28 -147 -140 -243t-265 -96zM645 1167q52 -43 75 -43h4q19 7 31 32q7 14 13 49l63 -13q-8 -37 -20 -61q-27 -55 -74 -74
q-13 -4 -26 -4q-41 0 -97 45q-52 44 -75 44q-3 0 -4 -1q-18 -6 -31 -32q-7 -14 -13 -49l-62 14q7 37 19 60q27 55 75 74q12 5 26 5q41 0 96 -46z" />
    <glyph glyph-name="Umacron" unicode="&#x16a;" horiz-adv-x="1147" 
d="M1191 1414h80l-170 -1016q-49 -162 -181 -275q-157 -135 -348 -135q-192 0 -304.5 135t-80.5 326l161 965h80l-161 -965q-26 -157 67 -269t251 -112t288.5 112t156.5 269zM577 1580h521l-10 -62h-521z" />
    <glyph glyph-name="umacron" unicode="&#x16b;" horiz-adv-x="880" 
d="M443 -12q-163 0 -243 96t-58 243l90 542h80l-89 -535q-19 -110 48 -188q66 -79 184 -79q110 0 202.5 78.5t111.5 188.5l89 535h80l-90 -542q-28 -147 -140 -243t-265 -96zM370 1134h521l-11 -62h-521z" />
    <glyph glyph-name="Ubreve" unicode="&#x16c;" horiz-adv-x="1147" 
d="M1191 1414h80l-170 -1016q-49 -162 -181 -275q-157 -135 -348 -135q-192 0 -304.5 135t-80.5 326l161 965h80l-161 -965q-26 -157 67 -269t251 -112t288.5 112t156.5 269zM1054 1685q-22 -46 -65 -83q-70 -61 -156 -61q-88 0 -138 61q-33 39 -39 83h70q7 -20 22 -37
q34 -43 95 -43q59 0 109 43q20 17 34 37h68z" />
    <glyph glyph-name="ubreve" unicode="&#x16d;" horiz-adv-x="880" 
d="M443 -12q-163 0 -243 96t-58 243l90 542h80l-89 -535q-19 -110 48 -188q66 -79 184 -79q110 0 202.5 78.5t111.5 188.5l89 535h80l-90 -542q-28 -147 -140 -243t-265 -96zM845 1229q-23 -46 -65 -83q-71 -61 -157 -61q-88 0 -137 61q-33 39 -39 83h70q7 -20 21 -37
q35 -43 96 -43q59 0 108 43q20 17 35 37h68z" />
    <glyph glyph-name="Uring" unicode="&#x16e;" horiz-adv-x="1147" 
d="M1191 1414h80l-170 -1016q-49 -162 -181 -275q-157 -135 -348 -135q-192 0 -304.5 135t-80.5 326l161 965h80l-161 -965q-26 -157 67 -269t251 -112t288.5 112t156.5 269zM930 1653q28 -33 20 -80t-47 -80t-85 -33q-47 0 -75 33t-20 80t47 80t86 33q46 0 74 -33z
M846 1625q-22 0 -39.5 -15t-21.5 -37q-3 -21 9 -36.5t34 -15.5q21 0 39 15.5t21 36.5q4 22 -8.5 37t-33.5 15z" />
    <glyph glyph-name="uring" unicode="&#x16f;" horiz-adv-x="880" 
d="M443 -12q-163 0 -243 96t-58 243l90 542h80l-89 -535q-19 -110 48 -188q66 -79 184 -79q110 0 202.5 78.5t111.5 188.5l89 535h80l-90 -542q-28 -147 -140 -243t-265 -96zM716.5 1177q27.5 -33 19.5 -80q-7 -47 -45.5 -80t-85.5 -33t-74.5 33t-20.5 80q8 47 46.5 80
t85.5 33t74.5 -33zM632 1149q-21 0 -38.5 -15t-21.5 -37q-3 -21 9.5 -36.5t33.5 -15.5t38.5 15.5t20.5 36.5q4 22 -8.5 37t-33.5 15z" />
    <glyph glyph-name="Uhungarumlaut" unicode="&#x170;" horiz-adv-x="1147" 
d="M1191 1414h80l-170 -1016q-49 -162 -181 -275q-157 -135 -348 -135q-192 0 -304.5 135t-80.5 326l161 965h80l-161 -965q-26 -157 67 -269t251 -112t288.5 112t156.5 269zM898 1676l-244 -165h-74l171 165h147zM1100 1676l-243 -165h-75l171 165h147z" />
    <glyph glyph-name="uhungarumlaut" unicode="&#x171;" horiz-adv-x="880" 
d="M443 -12q-163 0 -243 96t-58 243l90 542h80l-89 -535q-19 -110 48 -188q66 -79 184 -79q110 0 202.5 78.5t111.5 188.5l89 535h80l-90 -542q-28 -147 -140 -243t-265 -96zM689 1220l-245 -165h-74l172 165h147zM891 1220l-244 -165h-75l172 165h147z" />
    <glyph glyph-name="Uogonek" unicode="&#x172;" horiz-adv-x="1147" 
d="M678 -1q-52 -11 -106 -11q-192 0 -304.5 135t-80.5 326l161 965h80l-161 -965q-26 -157 67 -269t251 -112t288.5 112t156.5 269l161 965h80l-170 -1016q-49 -162 -181 -275q-80 -69 -170 -103q-21 -23 -25 -49q-1 -8 -2 -15v-6q1 -32 24 -54q21 -19 49 -19q5 0 10 1h6
q32 6 67 35l19 -43l-5 -4q-31 -34 -78 -42l-12 -3q-9 -1 -17 -1q-46 0 -81 31q-38 33 -39 84q0 7 1 14q1 10 2 19q3 16 9 31z" />
    <glyph glyph-name="uogonek" unicode="&#x173;" horiz-adv-x="880" 
d="M476 -11q-16 -1 -33 -1q-163 0 -243 96t-58 243l90 542h80l-89 -535q-19 -110 48 -188q66 -79 184 -79q110 0 202.5 78.5t111.5 188.5l89 535h80l-90 -542q-28 -147 -140 -243q-75 -64 -169 -86q-12 -17 -16 -37q-1 -7 -1 -15v-6q0 -32 24 -54q21 -19 49 -19q5 0 10 1h6
q32 6 67 35l18 -43l-4 -4q-32 -34 -78 -42l-13 -3q-9 -1 -17 -1q-46 0 -81 31q-37 33 -39 84q0 7 2 14q0 10 2 19q3 16 8 31z" />
    <glyph glyph-name="Wcircumflex" unicode="&#x174;" horiz-adv-x="1642" 
d="M998 1039l200 -910l560 1285h81l-617 -1414h-80l-191 894l-491 -894h-80l-143 1414h81l131 -1285l503 910h46zM1289 1519h-92l-128 106l-152 -106h-93l259 187z" />
    <glyph glyph-name="wcircumflex" unicode="&#x175;" horiz-adv-x="1094" 
d="M1239 868l-440 -868h-50l-108 566l-296 -566h-51l-149 868h91l111 -713l298 565h45l110 -565l348 713h91zM956 1053h-92l-127 106l-153 -106h-93l259 187z" />
    <glyph glyph-name="Ycircumflex" unicode="&#x176;" horiz-adv-x="1116" 
d="M614 572l-345 842h91l309 -754l561 754h91l-627 -842l-96 -572h-80zM1046 1519h-92l-128 106l-152 -106h-93l259 187z" />
    <glyph glyph-name="ycircumflex" unicode="&#x177;" horiz-adv-x="779" 
d="M461 163l-311 -493h-89l311 491l-212 707h89l184 -606l387 606h89l-447 -705h-1zM798 1053h-92l-127 106l-153 -106h-93l260 187z" />
    <glyph glyph-name="Ydieresis" unicode="&#x178;" horiz-adv-x="1116" 
d="M614 572l-345 842h91l309 -754l561 754h91l-627 -842l-96 -572h-80zM759.5 1658q19.5 -23 14.5 -55q-6 -34 -33.5 -57t-59.5 -23q-33 0 -52.5 23t-13.5 57q5 32 32.5 55t60.5 23q32 0 51.5 -23zM1024.5 1658q19.5 -23 14.5 -55q-6 -34 -33.5 -57t-59.5 -23
q-33 0 -52.5 23t-13.5 57q5 32 32.5 55t60.5 23q32 0 51.5 -23z" />
    <glyph glyph-name="Zacute" unicode="&#x179;" horiz-adv-x="1075" 
d="M1077 1334h-670l14 80h807l-995 -1334h841l-13 -80h-977zM1049 1683l-245 -165h-74l172 165h147z" />
    <glyph glyph-name="zacute" unicode="&#x17a;" horiz-adv-x="743" 
d="M640 776h-448l13 79h585l-579 -775h483l-13 -80h-619zM770 1217l-245 -165h-74l172 165h147z" />
    <glyph glyph-name="Zdotaccent" unicode="&#x17b;" horiz-adv-x="1075" 
d="M1077 1334h-670l14 80h807l-995 -1334h841l-13 -80h-977zM899 1667.5q17 -19.5 12 -47.5t-28 -47.5t-50 -19.5q-28 0 -45 19.5t-12 47.5t28 47.5t51 19.5q27 0 44 -19.5z" />
    <glyph glyph-name="zdotaccent" unicode="&#x17c;" horiz-adv-x="743" 
d="M640 776h-448l13 79h585l-579 -775h483l-13 -80h-619zM620 1201.5q17 -19.5 12 -47.5t-28 -47.5t-50 -19.5q-28 0 -45 19.5t-12 47.5t28 47.5t51 19.5q27 0 44 -19.5z" />
    <glyph glyph-name="Zcaron" unicode="&#x17d;" horiz-adv-x="1075" 
d="M1077 1334h-670l14 80h807l-995 -1334h841l-13 -80h-977zM817 1489l-197 187h93l118 -106l162 106h92z" />
    <glyph glyph-name="zcaron" unicode="&#x17e;" horiz-adv-x="743" 
d="M640 776h-448l13 79h585l-579 -775h483l-13 -80h-619zM540 1033l-197 187h93l117 -106l163 106h92z" />
    <glyph glyph-name="longs" unicode="&#x17f;" horiz-adv-x="383" 
d="M190 0h-80l185 1103q22 98 103 169q84 67 178 67q50 0 102 -19l-37 -71q-34 16 -69 16q-62 0 -127 -50q-57 -49 -71 -118z" />
    <glyph glyph-name="florin" unicode="&#x192;" horiz-adv-x="395" 
d="M202 0h-1l-12 -70q-52 -251 -298 -251l12 74q167 0 207 175l144 860h-88l13 80h88l39 235q23 98 104 169q84 67 178 67q50 0 102 -19l-37 -71q-35 16 -70 16q-62 0 -126 -50q-57 -49 -72 -118l-38 -229h177l-13 -80h-177z" />
    <glyph glyph-name="Aringacute" unicode="&#x1fa;" horiz-adv-x="1116" 
d="M890 631l-126 593l-325 -593h451zM807 1494q-22 0 -39.5 -15t-21.5 -37q-3 -20 9.5 -35t34.5 -15q20 0 37.5 15t20.5 35q4 22 -8.5 37t-32.5 15zM792 1549l118 134h147l-197 -142q16 -8 28 -22q26 -32 18 -77q-7 -44 -43 -75q-19 -16 -38 -23l288 -1344h-84l-124 552
h-509l-312 -552h-85l743 1342q-19 8 -33 25q-27 31 -20 75q8 45 45 77q27 23 58 30z" />
    <glyph glyph-name="aringacute" unicode="&#x1fb;" horiz-adv-x="1122" 
d="M1017 382l16 97q-2 117 -76 205q-98 118 -264 118t-301.5 -108t-161.5 -264t73.5 -263t265.5 -107t304 118q102 88 144 204zM728 1038q-22 0 -39.5 -15t-21.5 -37q-4 -20 8.5 -35t34.5 -15q20 0 37.5 15t21.5 35q4 22 -8.5 37t-32.5 15zM779 1086q16 -8 30 -23
q25 -32 18 -77q-8 -44 -44 -75q-21 -18 -44 -26q179 -10 288 -141q23 -28 40 -59l21 123h80l-135 -808h-80l29 177q-28 -31 -59 -59q-166 -143 -368 -143q-200 0 -320.5 132.5t-88.5 322.5q32 192 188 316.5t333 138.5q-22 7 -38 26q-27 31 -19 75q7 45 45 77q24 21 53 28
l161 151h147z" />
    <glyph glyph-name="AEacute" unicode="&#x1fc;" horiz-adv-x="1443" 
d="M1456 747l-13 -80h-627l-99 -587h627l-13 -80h-706l91 542h-300l-332 -542h-85l852 1414h717l-14 -80h-627l-98 -587h627zM729 621l105 629l-376 -629h271zM1141 1683l-245 -165h-74l172 165h147z" />
    <glyph glyph-name="aeacute" unicode="&#x1fd;" horiz-adv-x="1873" 
d="M1022 653q-19 49 -54 91q-98 118 -264 118t-303.5 -118t-165.5 -284q-27 -166 71 -283t264 -117t303 118q49 42 84 90q39 53 60 114l27 157q-1 61 -22 114zM1837 586q-13 91 -70 158q-97 118 -263 118t-304 -118q-28 -24 -50 -49l-18 -109h705zM1071 226q14 -25 34 -48
q99 -118 265 -118t302 118q25 20 45 42l80 -30q-19 -25 -75 -72q-166 -143 -367 -143q-189 0 -304 127l-18 -102h-80l30 177q-28 -31 -60 -59q-166 -143 -368 -143q-200 0 -318.5 142.5t-85.5 342.5q34 202 200.5 344t366.5 142q202 0 320 -142q22 -28 40 -59l21 123h80
l-8 -48q158 126 347 126q201 0 319 -142q105 -126 81 -299l-800 1zM1352 1217l-244 -165h-74l171 165h147z" />
    <glyph glyph-name="Oslashacute" unicode="&#x1fe;" horiz-adv-x="1647" 
d="M1278 1310q-101 43 -229 43q-266 0 -486.5 -189t-265.5 -455q-44 -267 113 -456q57 -68 128 -113zM605 107q101 -43 228 -43q267 0 488 189t265 456q45 266 -112 456q-58 68 -129 111zM1392 1350q82 -49 149 -128q177 -213 126 -513q-50 -301 -298 -513.5t-549 -212.5
q-145 0 -262 51l-103 -163l-66 34l103 162q-83 50 -148 129q-178 212 -128 513q51 300 299 512.5t548 212.5q146 0 262 -50l103 162l67 -33zM1299 1683l-244 -165h-74l171 165h147z" />
    <glyph glyph-name="oslashacute" unicode="&#x1ff;" horiz-adv-x="1080" 
d="M845 828q-70 34 -160 34q-166 0 -303.5 -117.5t-165.5 -283.5q-27 -166 70 -283q20 -24 44 -43zM906 787l-516 -692q71 -34 161 -34q166 0 303 117t164 283q28 166 -69 284q-20 24 -43 42zM275 62q-31 25 -58 56q-118 143 -85 343q34 202 200.5 344t366.5 142
q114 0 202 -46l139 188l63 -37l-141 -190q30 -25 57 -57q117 -142 83 -344q-33 -200 -198.5 -342.5t-367.5 -142.5q-114 0 -200 46l-140 -188l-65 33zM938 1217l-245 -165h-74l172 165h147z" />
    <glyph glyph-name="Scommaaccent" unicode="&#x218;" horiz-adv-x="942" 
d="M626 783q-143 50 -216 137.5t-52 212.5q21 122 123 210t227 88q123 0 197 -88q41 -47 50 -105l-77 -28q-9 43 -39 79q-53 64 -144 64t-166 -64t-91 -156q-15 -91 38 -156q50 -59 148 -108q161 -55 257 -171q102 -122 73 -295q-29 -174 -172 -297t-316 -123
q-174 0 -275 124q-83 98 -80 228l79 27q-7 -115 65 -200q83 -100 224 -100t258 100t140 241q24 140 -60 240q-73 88 -191 140zM347 -207q-16 4 -25 17q-17 19 -13 47q5 28 27 46.5t49 18.5q26 0 42.5 -18.5t11.5 -46.5q-2 -15 -10 -29l-94 -145h-47z" />
    <glyph glyph-name="scommaaccent" unicode="&#x219;" horiz-adv-x="644" 
d="M402 466q-92 55 -124 94q-51 61 -37 147q15 86 86 147.5t157 61.5t134 -57q45 -55 34 -126l-1 -4l-74 -28q2 67 -25 101t-81 34q-53 0 -97.5 -38t-53.5 -91t23 -91q18 -23 82 -68q102 -61 142 -109q63 -76 45 -181q-18 -108 -105.5 -183.5t-194.5 -75.5t-169.5 75.5
t-47.5 165.5l82 20q-12 -77 31.5 -129.5t116.5 -52.5t135 52.5t74 127.5q12 73 -32 125q-23 28 -100 83zM247 -207q-16 4 -25 17q-17 19 -13 47q5 28 27 46.5t49 18.5q26 0 42.5 -18.5t11.5 -46.5q-2 -15 -10 -29l-94 -145h-47z" />
    <glyph glyph-name="uni021A" unicode="&#x21a;" horiz-adv-x="859" 
d="M692 1334l-223 -1334h-79l223 1334h-358l13 80h795l-13 -80h-358zM387 -207q-16 4 -25 17q-17 19 -13 47q5 28 27 46.5t49 18.5q26 0 42.5 -18.5t11.5 -46.5q-2 -15 -10 -29l-94 -145h-47z" />
    <glyph glyph-name="uni021B" unicode="&#x21b;" horiz-adv-x="497" 
d="M354 868l62 369h79l-62 -369h177l-13 -80h-177l-132 -788h-79l132 788h-177l13 80h177zM187 -207q-16 4 -25 17q-17 19 -13 47q5 28 27 46.5t49 18.5q26 0 42.5 -18.5t11.5 -46.5q-2 -15 -10 -29l-94 -145h-47z" />
    <glyph glyph-name="circumflex" unicode="&#x2c6;" horiz-adv-x="655" 
d="M723 973h-92l-127 106l-153 -106h-93l259 187z" />
    <glyph glyph-name="caron" unicode="&#x2c7;" horiz-adv-x="655" 
d="M481 943l-197 187h93l117 -106l163 106h92z" />
    <glyph glyph-name="uni02C9" unicode="&#x2c9;" horiz-adv-x="671" 
d="M248 1034h521l-10 -62h-521z" />
    <glyph glyph-name="breve" unicode="&#x2d8;" horiz-adv-x="565" 
d="M672 1139q-22 -46 -65 -83q-70 -61 -156 -61q-88 0 -138 61q-32 39 -39 83h70q8 -20 22 -37q35 -43 96 -43q59 0 108 43q21 17 34 37h68z" />
    <glyph glyph-name="dotaccent" unicode="&#x2d9;" horiz-adv-x="285" 
d="M377.5 1121.5q16.5 -19.5 12.5 -47.5q-5 -28 -28.5 -47.5t-50.5 -19.5q-28 0 -44.5 19.5t-11.5 47.5q4 28 27.5 47.5t51.5 19.5q27 0 43.5 -19.5z" />
    <glyph glyph-name="ring" unicode="&#x2da;" horiz-adv-x="494" 
d="M504.5 1057q27.5 -33 19.5 -80t-46.5 -80t-85.5 -33t-74.5 33t-19.5 80t46.5 80t85.5 33t74.5 -33zM420 1029q-21 0 -38.5 -15t-21.5 -37q-4 -21 8.5 -36.5t33.5 -15.5t39 15.5t22 36.5q4 22 -9 37t-34 15z" />
    <glyph glyph-name="ogonek" unicode="&#x2db;" horiz-adv-x="434" 
d="M271 4q-66 -20 -98 -44q-33 -25 -42 -62l-1 -6q-5 -33 12 -59q20 -28 53 -30q3 -1 6 -1q31 0 70 23l9 -48l-4 -3q-37 -28 -83 -28h-12q-56 4 -88 49q-28 41 -19 93q1 7 3 14q15 61 67 100q43 32 88 32q9 0 18 -1z" />
    <glyph glyph-name="tilde" unicode="&#x2dc;" horiz-adv-x="533" 
d="M458 1087q51 -43 74 -43h4q20 7 32 32q6 14 12 49l64 -13q-8 -37 -20 -61q-28 -55 -75 -74q-13 -4 -26 -4q-41 0 -97 45q-52 44 -75 44q-3 0 -4 -1q-18 -6 -30 -32q-7 -14 -13 -49l-63 14q7 37 19 60q27 55 75 74q12 5 26 5q41 0 97 -46z" />
    <glyph glyph-name="hungarumlaut" unicode="&#x2dd;" horiz-adv-x="643" 
d="M555 1130l-245 -165h-74l172 165h147zM757 1130l-244 -165h-75l172 165h147z" />
    <glyph glyph-name="tonos" unicode="&#x384;" horiz-adv-x="386" 
d="M603 1414l-245 -165h-74l172 165h147z" />
    <glyph glyph-name="dieresistonos" unicode="&#x385;" horiz-adv-x="711" 
d="M747 1414l-204 -165h-74l131 165h147zM809 1342q14 -16 10 -38q-4 -24 -23 -40t-41 -16q-23 0 -37 16t-10 40q4 22 23 38t42 16q22 0 36 -16zM429 1342q14 -16 10 -38q-4 -24 -23 -40t-41 -16q-23 0 -37 16t-10 40q4 22 23 38t42 16q22 0 36 -16z" />
    <glyph glyph-name="Alphatonos" unicode="&#x386;" horiz-adv-x="1001" 
d="M664 1414l-245 -165h-74l172 165h147zM851 701l-115 593l-316 -593h431zM797 1414l276 -1414h-84l-122 622h-489l-334 -622h-85l756 1414h82z" />
    <glyph glyph-name="anoteleia" unicode="&#x387;" horiz-adv-x="245" 
d="M334.5 982.5q16.5 -19.5 12.5 -47.5q-5 -28 -28.5 -47.5t-50.5 -19.5q-28 0 -44.5 19.5t-11.5 47.5q4 28 27.5 47.5t51.5 19.5q27 0 43.5 -19.5z" />
    <glyph glyph-name="Epsilontonos" unicode="&#x388;" horiz-adv-x="1044" 
d="M435 1414l-245 -165h-74l172 165h147zM1188 1414l-14 -80h-627l-98 -587h627l-13 -80h-627l-99 -587h627l-13 -80h-707l237 1414h707z" />
    <glyph glyph-name="Etatonos" unicode="&#x389;" horiz-adv-x="1243" 
d="M438 1414l-245 -165h-74l172 165h147zM439 667l-112 -667h-80l237 1414h80l-112 -667h724l112 667h80l-237 -1414h-80l112 667h-724z" />
    <glyph glyph-name="Iotatonos" unicode="&#x38a;" horiz-adv-x="402" 
d="M425 1414l-245 -165h-74l172 165h147zM543 1414l-237 -1414h-80l237 1414h80z" />
    <glyph glyph-name="Omicrontonos" unicode="&#x38c;" horiz-adv-x="1532" 
d="M510 1414l-244 -165h-74l171 165h147zM1434 1221.5q177 -212.5 126 -512.5q-50 -301 -298 -513.5t-549 -212.5q-300 0 -477 212.5t-127 513.5q51 300 299 512.5t548 212.5q301 0 478 -212.5zM942 1353q-266 0 -486.5 -189t-265.5 -455q-44 -267 113 -456t423 -189
q267 0 488 189t265 456q45 266 -112.5 455t-424.5 189z" />
    <glyph glyph-name="Upsilontonos" unicode="&#x38e;" horiz-adv-x="1201" 
d="M367 1414l-245 -165h-74l172 165h147zM760 572l-345 842h91l308 -754l562 754h91l-627 -842l-96 -572h-80z" />
    <glyph glyph-name="Omegatonos" unicode="&#x38f;" horiz-adv-x="1367" 
d="M491 1414l-244 -165h-74l171 165h147zM890 1434q283 0 421 -200t81 -539q-42 -250 -207 -419t-279 -196h292l-13 -80h-480l13 80q201 45 375.5 201.5t217.5 413.5q51 306 -68 488.5t-370 182.5h-4q-251 0 -431 -182.5t-231 -488.5q-43 -257 78.5 -413.5t308.5 -201.5
l-13 -80h-480l13 80h292q-106 27 -214 196t-66 419q57 339 262 539t488 200h14z" />
    <glyph glyph-name="iotadieresistonos" unicode="&#x390;" horiz-adv-x="369" 
d="M369 868l-145 -868h-79l145 868h79zM543 1217l-204 -165h-74l131 165h147zM605 1145q14 -16 10 -38q-4 -24 -23 -40t-41 -16q-23 0 -37 16t-10 40q4 22 23 38t42 16q22 0 36 -16zM225 1145q14 -16 10 -38q-4 -24 -23 -40t-41 -16q-23 0 -37 16t-10 40q4 22 23 38t42 16
q22 0 36 -16z" />
    <glyph glyph-name="Alpha" unicode="&#x391;" horiz-adv-x="1116" 
d="M891 701l-115 593l-316 -593h431zM837 1414l276 -1414h-84l-122 622h-489l-334 -622h-85l756 1414h82z" />
    <glyph glyph-name="Beta" unicode="&#x392;" horiz-adv-x="1033" 
d="M532 80q157 0 287 111.5t156 269.5q27 158 -65.5 270t-249.5 112h-327l-128 -763h327zM415 1335l-69 -412h360q89 9 139 52q71 61 86 149q15 87 -36.5 149t-138.5 62h-341zM851 887q73 -33 127 -99q112 -135 80 -327q-32 -191 -189 -326q-132 -113 -298 -135h-459
l237 1414h422q121 0 191 -85t50 -205t-119 -205q-21 -19 -42 -32z" />
    <glyph glyph-name="Gamma" unicode="&#x393;" horiz-adv-x="753" 
d="M968 1414l-14 -80h-539l-223 -1334h-80l237 1414h619z" />
    <glyph glyph-name="uni0394" unicode="&#x394;" horiz-adv-x="1103" 
d="M30 1h-60l751 1413h97l285 -1414h-1073v1zM1002 80l-249 1234l-657 -1234h906z" />
    <glyph glyph-name="Epsilon" unicode="&#x395;" horiz-adv-x="909" 
d="M1056 1414l-14 -80h-627l-98 -587h627l-13 -80h-627l-99 -587h627l-13 -80h-707l237 1414h707z" />
    <glyph glyph-name="Zeta" unicode="&#x396;" horiz-adv-x="1075" 
d="M1077 1334h-670l14 80h807l-995 -1334h841l-13 -80h-977z" />
    <glyph glyph-name="Eta" unicode="&#x397;" horiz-adv-x="1104" 
d="M302 667l-112 -667h-80l237 1414h80l-112 -667h724l112 667h80l-237 -1414h-80l112 667h-724z" />
    <glyph glyph-name="Theta" unicode="&#x398;" horiz-adv-x="1575" 
d="M1505 1221.5q177 -212.5 126 -512.5q-50 -301 -298 -513.5t-549 -212.5q-300 0 -477 212.5t-127 513.5q51 300 299 512.5t548 212.5q301 0 478 -212.5zM1013 1353q-266 0 -486.5 -189t-265.5 -455q-44 -267 113 -456t423 -189q267 0 488 189t265 456q45 266 -112.5 455
t-424.5 189zM513 749h800l-13 -80h-800z" />
    <glyph glyph-name="Iota" unicode="&#x399;" horiz-adv-x="324" 
d="M439 1414l-237 -1414h-80l237 1414h80z" />
    <glyph glyph-name="Kappa" unicode="&#x39a;" horiz-adv-x="999" 
d="M999 1414l-456 -531l470 -883h-97l-435 817l-189 -218l-100 -599h-80l237 1414h80l-114 -677l587 677h97z" />
    <glyph glyph-name="Lambda" unicode="&#x39b;" horiz-adv-x="1133" 
d="M848 1414l285 -1414h-84l-266 1314l-699 -1313h-84l751 1413h97z" />
    <glyph glyph-name="Mu" unicode="&#x39c;" horiz-adv-x="1442" 
d="M1586 1414l-237 -1414h-80l222 1328l-667 -717l-428 717l-222 -1328h-80l237 1414h116l400 -670l623 670h116z" />
    <glyph glyph-name="Nu" unicode="&#x39d;" horiz-adv-x="1339" 
d="M447 1414l719 -1317l221 1317h80l-237 -1414h-123l-703 1286l-215 -1286h-80l237 1414h101z" />
    <glyph glyph-name="Xi" unicode="&#x39e;" horiz-adv-x="1100" 
d="M274 749h800l-13 -80h-800zM287 1415h1000l-14 -80h-1000zM63 81h1000l-13 -80h-1000z" />
    <glyph glyph-name="Omicron" unicode="&#x39f;" horiz-adv-x="1575" 
d="M1505 1221.5q177 -212.5 126 -512.5q-50 -301 -298 -513.5t-549 -212.5q-300 0 -477 212.5t-127 513.5q51 300 299 512.5t548 212.5q301 0 478 -212.5zM1013 1353q-266 0 -486.5 -189t-265.5 -455q-44 -267 113 -456t423 -189q267 0 488 189t265 456q45 266 -112.5 455
t-424.5 189z" />
    <glyph glyph-name="Pi" unicode="&#x3a0;" horiz-adv-x="1072" 
d="M397 1334l-223 -1334h-80l237 1414h884l-237 -1414h-80l223 1334h-724z" />
    <glyph glyph-name="Rho" unicode="&#x3a1;" horiz-adv-x="959" 
d="M274 490l-82 -490h-80l237 1414h371q158 -22 252 -135q112 -136 80 -326q-32 -192 -189.5 -327.5t-348.5 -135.5h-240zM415 1333l-127 -762h240q157 0 287.5 111.5t156.5 270.5q27 158 -66.5 269t-250.5 111h-240z" />
    <glyph glyph-name="Sigma" unicode="&#x3a3;" horiz-adv-x="1062" 
d="M260 1413h1014l-13 -80h-928l412 -627l-622 -626h928l-13 -80h-1014l19 116l599 590l-401 591z" />
    <glyph glyph-name="Tau" unicode="&#x3a4;" horiz-adv-x="899" 
d="M712 1334l-223 -1334h-79l223 1334h-358l13 80h795l-13 -80h-358z" />
    <glyph glyph-name="Upsilon" unicode="&#x3a5;" horiz-adv-x="1052" 
d="M614 572l-345 842h91l309 -754l561 754h91l-627 -842l-96 -572h-80z" />
    <glyph glyph-name="Phi" unicode="&#x3a6;" horiz-adv-x="1579" 
d="M799 295l133 800q-272 -7 -446 -116q-187 -118 -215 -284q-27 -166 120 -283q138 -110 408 -117zM864 211l-34 -207h-80l34 207q-304 8 -462 142q-169 142 -135 343q33 201 250 343q202 132 509 140l39 233h80l-39 -233q306 -8 465 -140q168 -142 135 -343
q-34 -201 -250 -343q-203 -134 -512 -142zM1012 1095l-133 -800q273 7 447 117q187 117 214 283q28 166 -119 284q-138 109 -409 116z" />
    <glyph glyph-name="Chi" unicode="&#x3a7;" horiz-adv-x="1018" 
d="M15 0l578 777l-261 637h91l228 -559l417 559h91l-476 -637l320 -777h-91l-287 698l-520 -698h-90z" />
    <glyph glyph-name="Psi" unicode="&#x3a8;" horiz-adv-x="1614" 
d="M896 311l-51 -307h-80l51 307q-304 8 -462 142q-159 142 -130 346l103 613h80l-104 -617q-27 -166 120 -283q138 -110 408 -117l170 1017h80l-170 -1017q273 7 447 117q187 117 215 287h5l103 613h80l-104 -618q-34 -200 -249 -341q-203 -134 -512 -142z" />
    <glyph glyph-name="uni03A9" unicode="&#x3a9;" horiz-adv-x="1446" 
d="M970 1434q283 0 421 -200t81 -539q-42 -250 -207 -419t-279 -196h292l-13 -80h-480l13 80q201 45 375.5 201.5t217.5 413.5q51 306 -68 488.5t-370 182.5h-4q-251 0 -431 -182.5t-231 -488.5q-43 -257 78.5 -413.5t308.5 -201.5l-13 -80h-480l13 80h292q-106 27 -214 196
t-66 419q57 339 262 539t488 200h14z" />
    <glyph glyph-name="Iotadieresis" unicode="&#x3aa;" horiz-adv-x="324" 
d="M439 1414l-237 -1414h-80l237 1414h80zM363 1658q20 -23 14 -55q-5 -34 -32.5 -57t-59.5 -23q-33 0 -52.5 23t-14.5 57q6 32 33 55t60 23q32 0 52 -23zM628 1658q20 -23 14 -55q-5 -34 -32.5 -57t-59.5 -23q-33 0 -52.5 23t-14.5 57q6 32 33 55t60 23q32 0 52 -23z" />
    <glyph glyph-name="Upsilondieresis" unicode="&#x3ab;" horiz-adv-x="1052" 
d="M614 572l-345 842h91l309 -754l561 754h91l-627 -842l-96 -572h-80zM759.5 1658q19.5 -23 14.5 -55q-6 -34 -33.5 -57t-59.5 -23q-33 0 -52.5 23t-13.5 57q5 32 32.5 55t60.5 23q32 0 51.5 -23zM1024.5 1658q19.5 -23 14.5 -55q-6 -34 -33.5 -57t-59.5 -23
q-33 0 -52.5 23t-13.5 57q5 32 32.5 55t60.5 23q32 0 51.5 -23z" />
    <glyph glyph-name="alphatonos" unicode="&#x3ac;" horiz-adv-x="1162" 
d="M1015 207q-38 -47 -86 -89q-166 -143 -368 -143q-200 0 -318.5 142.5t-85.5 342.5q34 202 200.5 344t366.5 142q202 0 320 -142q37 -45 48 -136l97 200h79l-173 -434l27 -434h-79zM974 744q-98 118 -264 118t-303.5 -118t-165.5 -284q-27 -166 71 -283t264 -117t303 117
q105 90 137 261q35 210 -42 306zM999 1217l-244 -165h-74l171 165h147z" />
    <glyph glyph-name="epsilontonos" unicode="&#x3ad;" horiz-adv-x="754" 
d="M281.5 354.5q-64.5 -41.5 -79.5 -127.5q-11 -66 46 -113.5t163 -47.5q157 10 292 165l-23 -130q-138 -119 -283 -119q-131 0 -209 67.5t-58 188.5q20 119 176 205q-127 86 -105 215q20 121 118 172.5t229 51.5q142 0 244 -112l-18 -108q-84 136 -240 136
q-106 0 -176.5 -32.5t-81.5 -98.5q-16 -96 34.5 -137t82.5 -49h218l-13 -79h-218q-34 -6 -98.5 -47.5zM775 1217l-245 -165h-74l172 165h147z" />
    <glyph glyph-name="etatonos" unicode="&#x3ae;" horiz-adv-x="841" 
d="M283 674l-113 -674h-80l145 868h80l-9 -56q126 108 270 108q154 0 234.5 -96.5t57.5 -242.5l-152 -912h-79l151 904q18 111 -48.5 189t-176.5 78q-109 0 -202 -77q-51 -43 -78 -89zM829 1217l-245 -165h-74l172 165h147z" />
    <glyph glyph-name="iotatonos" unicode="&#x3af;" horiz-adv-x="369" 
d="M369 868l-145 -868h-79l145 868h79zM583 1217l-245 -165h-74l172 165h147z" />
    <glyph glyph-name="upsilondieresistonos" unicode="&#x3b0;" horiz-adv-x="880" 
d="M443 -12q-163 0 -243 96t-58 243l90 542h80l-89 -535q-19 -110 48 -188q66 -79 184 -79q110 0 202.5 78.5t111.5 188.5l89 535h80l-90 -542q-28 -147 -140 -243t-265 -96zM800 1217l-205 -165h-74l132 165h147zM861 1145q14 -16 10 -38q-4 -24 -23 -40t-42 -16t-37 16
t-10 40q4 22 23 38t42 16t37 -16zM481 1145q14 -16 10 -38q-4 -24 -23 -40t-42 -16t-37 16t-10 40q4 22 23 38t42 16t37 -16z" />
    <glyph glyph-name="alpha" unicode="&#x3b1;" horiz-adv-x="1162" 
d="M1015 207q-38 -47 -86 -89q-166 -143 -368 -143q-200 0 -318.5 142.5t-85.5 342.5q34 202 200.5 344t366.5 142q202 0 320 -142q37 -45 48 -136l97 200h79l-173 -434l27 -434h-79zM974 744q-98 118 -264 118t-303.5 -118t-165.5 -284q-27 -166 71 -283t264 -117t303 117
q105 90 137 261q35 210 -42 306z" />
    <glyph glyph-name="beta" unicode="&#x3b2;" horiz-adv-x="911" 
d="M649 1433q126 0 199 -88.5t52 -211.5q-21 -126 -100 -198t-142 -96q121 -42 190 -132q99 -130 70 -304q-29 -175 -173 -298.5t-319 -123.5q-89 0 -160 32l40 81q59 -29 134 -29q141 0 256.5 98.5t138.5 239.5q24 140 -55 245t-266 141l-66 2l13 79q83 1 139 21.5t128 86
t87 155.5q16 91 -37 154t-143 63q-89 0 -160 -66.5t-90 -179.5l-240 -1432h-80l241 1442q24 143 121 231t222 88z" />
    <glyph glyph-name="gamma" unicode="&#x3b3;" horiz-adv-x="894" 
d="M404 0l-219 868h93l188 -743l440 743h93l-510 -863l-57 -336h-84z" />
    <glyph glyph-name="delta" unicode="&#x3b4;" horiz-adv-x="1114" 
d="M233 460q-27 -166 71 -283t264 -117t303 117t164 283q28 166 -69.5 284t-263.5 118t-303.5 -118t-165.5 -284zM1053 783q100 -121 66 -323q-33 -200 -198.5 -342.5t-367.5 -142.5q-200 0 -318.5 142.5t-85.5 342.5q34 202 201 344q146 125 380 150l-301 455h629l-13 -80
h-441q193 -342 271 -383.5t178 -162.5z" />
    <glyph glyph-name="epsilon" unicode="&#x3b5;" horiz-adv-x="754" 
d="M281.5 354.5q-64.5 -41.5 -79.5 -127.5q-11 -66 46 -113.5t163 -47.5q157 10 292 165l-23 -130q-138 -119 -283 -119q-131 0 -209 67.5t-58 188.5q20 119 176 205q-127 86 -105 215q20 121 118 172.5t229 51.5q142 0 244 -112l-18 -108q-84 136 -240 136
q-106 0 -176.5 -32.5t-81.5 -98.5q-16 -96 34.5 -137t82.5 -49h218l-13 -79h-218q-34 -6 -98.5 -47.5z" />
    <glyph glyph-name="zeta" unicode="&#x3b6;" horiz-adv-x="790" 
d="M1042 1388q-635 -546 -776 -929q-22 -61 -30 -112q-46 -274 293 -285q246 -8 215 -191q-57 -160 -208 -165l14 83q94 0 116 93l1 5q15 94 -146 94q-423 9 -366 352q7 41 22 87q128 428 719 914h-536l13 80h673z" />
    <glyph glyph-name="eta" unicode="&#x3b7;" horiz-adv-x="841" 
d="M283 674l-113 -674h-80l145 868h80l-9 -56q126 108 270 108q154 0 234.5 -96.5t57.5 -242.5l-152 -912h-79l151 904q18 111 -48.5 189t-176.5 78q-109 0 -202 -77q-51 -43 -78 -89z" />
    <glyph glyph-name="theta" unicode="&#x3b8;" horiz-adv-x="1130" 
d="M1082 695q50 300 -39.5 467t-255.5 167t-311.5 -167t-195.5 -467q-50 -301 39.5 -468t255.5 -167t311.5 167t195.5 468zM1166 695q-56 -335 -229.5 -527.5t-374.5 -192.5t-311.5 192.5t-54.5 527.5q56 334 230.5 526.5t375.5 192.5t310.5 -192.5t53.5 -526.5zM417 735
h543l-14 -80h-543z" />
    <glyph glyph-name="iota" unicode="&#x3b9;" horiz-adv-x="369" 
d="M369 868l-145 -868h-79l145 868h79z" />
    <glyph glyph-name="kappa" unicode="&#x3ba;" horiz-adv-x="738" 
d="M768 868l-258 -265l240 -603h-98l-205 539l-210 -196l-57 -343h-80l145 868h80l-66 -398l407 398h102z" />
    <glyph glyph-name="lambda" unicode="&#x3bb;" horiz-adv-x="849" 
d="M588 705l211 -705h-89l-185 606l-386 -606h-89l448 707l-160 531h89l160 -533h1z" />
    <glyph glyph-name="uni03BC" unicode="&#x3bc;" horiz-adv-x="879" 
d="M708 98q-5 -4 -11 -10q-113 -96 -266 -96q-142 0 -226 97l-70 -420h-80l201 1199h80l-108 -646q10 -38 40 -74q66 -76 176 -76q109 0 203 78q60 51 89 115l101 603h78l-146 -868h-78z" />
    <glyph glyph-name="nu" unicode="&#x3bd;" horiz-adv-x="834" 
d="M281 868l168 -663l393 663h93l-525 -898l-222 898h93z" />
    <glyph glyph-name="xi" unicode="&#x3be;" horiz-adv-x="893" 
d="M223.5 119.5q-105.5 108.5 -76.5 283.5q29 174 172 304q99 90 234 132q-55 24 -111.5 86t-35.5 188q66 299 435 300l217 1l-12 -73h-188q-319 0 -356 -221l-1 -7q-15 -90 32 -145.5t146 -96.5l281 -1l-13 -79l-265 2q-200 -40 -314 -145t-138 -245q-23 -141 62 -224.5
t351 -114t233 -223.5l-3 -20q-50 -120 -211 -135l16 93q102 0 120 73l1 5q19 114 -225.5 134t-350 128.5z" />
    <glyph glyph-name="omicron" unicode="&#x3bf;" horiz-adv-x="1114" 
d="M716 946q202 0 319.5 -142t83.5 -344q-33 -200 -198.5 -342.5t-367.5 -142.5q-200 0 -318.5 142.5t-85.5 342.5q34 202 200.5 344t366.5 142zM398.5 744q-137.5 -118 -165.5 -284q-27 -166 71 -283t264 -117t303 117t164 283q28 166 -69.5 284t-263.5 118t-303.5 -118z
" />
    <glyph glyph-name="pi" unicode="&#x3c0;" horiz-adv-x="1115" 
d="M529 788l-132 -788h-79l132 788h-258l13 80h995l-13 -80h-258l-132 -788h-79l132 788h-321z" />
    <glyph glyph-name="rho" unicode="&#x3c1;" horiz-adv-x="1110" 
d="M189 578q62 144 198 255.5t337 111.5t319 -141.5t84 -343.5q-33 -200 -199 -342.5t-367 -142.5t-319 143q-23 28 -40 58l-85 -507h-80zM263 543l-28 -166q3 -114 76 -200q98 -118 264 -118t303.5 117.5t164.5 283.5q28 166 -69.5 284t-263.5 118t-304 -118
q-102 -87 -143 -201z" />
    <glyph glyph-name="sigma1" unicode="&#x3c2;" horiz-adv-x="905" 
d="M264 124.5q-126 103.5 -97 278.5q29 174 172 304q157 146 451 164l190 -1l-13 -79h-146q-274 -8 -410.5 -128t-160.5 -260q-23 -141 82.5 -219.5t299 -124t169.5 -188.5l-3 -20q-54 -140 -214 -155l16 93q102 0 123 93l1 5q11 64 -161.5 99t-298.5 138.5z" />
    <glyph glyph-name="sigma" unicode="&#x3c3;" horiz-adv-x="1197" 
d="M243 460q-27 -166 71 -283t264 -117t303 117t164 283q28 166 -69.5 284t-263.5 118t-303.5 -118t-165.5 -284zM1058 788q103 -137 71 -328q-33 -200 -198.5 -342.5t-367.5 -142.5q-200 0 -318.5 142.5t-85.5 342.5q34 202 200.5 344t366.5 142q150 0 253 -78h294l-14 -80
h-201z" />
    <glyph glyph-name="tau" unicode="&#x3c4;" horiz-adv-x="919" 
d="M631 788l-132 -788h-79l132 788h-358l13 80h795l-13 -80h-358z" />
    <glyph glyph-name="upsilon" unicode="&#x3c5;" horiz-adv-x="880" 
d="M443 -12q-163 0 -243 96t-58 243l90 542h80l-89 -535q-19 -110 48 -188q66 -79 184 -79q110 0 202.5 78.5t111.5 188.5l89 535h80l-90 -542q-28 -147 -140 -243t-265 -96z" />
    <glyph glyph-name="phi" unicode="&#x3c6;" horiz-adv-x="1131" 
d="M533 -15q-180 10 -289 142q-119 142 -86 342q34 202 201 344q55 48 83 63l15 -85q-25 -18 -48 -38q-138 -118 -166 -284q-27 -166 70 -283q95 -115 222 -115h7l124 743q31 94 123 94q64 0 158 -45q230 -112 182 -394q-33 -200 -199 -342q-145 -125 -316 -141l-53 -312
h-80zM625 87q173 29 255 98q138 118 165 284q35 206 -122 306q-81 51 -126 51t-56 -49z" />
    <glyph glyph-name="chi" unicode="&#x3c7;" horiz-adv-x="967" 
d="M523 238l-438 -564h-90l495 638l-245 556h91l212 -481l373 481h91l-431 -556l281 -638h-90z" />
    <glyph glyph-name="psi" unicode="&#x3c8;" horiz-adv-x="1166" 
d="M623 -15l-50 -301h-86l50 301q-176 12 -283 142q-119 142 -86 342l67 400h85l-67 -400q-27 -166 70 -283q95 -115 222 -115h7l133 798h86l-133 -798h7q127 0 260 115q137 117 164 283l67 400h85l-67 -400q-33 -200 -200 -342q-151 -130 -331 -142z" />
    <glyph glyph-name="omega" unicode="&#x3c9;" horiz-adv-x="1360" 
d="M680 197h-6l78 468h79l-78 -468h-8l10 -20q4 -7 9 -13q33 -115 169 -115t226 105t128 331q34 206 -44 369l2 14h78q80 -191 48 -383q-42 -251 -155 -380.5t-284 -129.5q-169 0 -232 141q-109 -141 -278 -141q-171 0 -242 129.5t-29 380.5q33 195 183 383h80l-1 -8
q-140 -150 -178 -375q-38 -226 17 -331t191 -105t208 115q6 7 13 14q8 9 16 19z" />
    <glyph glyph-name="iotadieresis" unicode="&#x3ca;" horiz-adv-x="369" 
d="M370 868l-145 -868h-79l145 868h79zM308 1192q20 -23 14 -55q-5 -34 -32.5 -57t-59.5 -23q-33 0 -52.5 23t-14.5 57q6 32 33 55t60 23q32 0 52 -23zM573 1192q20 -23 14 -55q-5 -34 -32.5 -57t-59.5 -23q-33 0 -52.5 23t-14.5 57q6 32 33 55t60 23q32 0 52 -23z" />
    <glyph glyph-name="upsilondieresis" unicode="&#x3cb;" horiz-adv-x="880" 
d="M443 -12q-163 0 -243 96t-58 243l90 542h80l-89 -535q-19 -110 48 -188q66 -79 184 -79q110 0 202.5 78.5t111.5 188.5l89 535h80l-90 -542q-28 -147 -140 -243t-265 -96zM563 1192q20 -23 14 -55q-6 -34 -33 -57t-59 -23q-33 0 -53 23t-14 57q6 32 33 55t60 23
q32 0 52 -23zM828 1192q20 -23 14 -55q-6 -34 -33 -57t-59 -23q-33 0 -53 23t-14 57q6 32 33 55t60 23q32 0 52 -23z" />
    <glyph glyph-name="omicrontonos" unicode="&#x3cc;" horiz-adv-x="1114" 
d="M716 946q202 0 319.5 -142t83.5 -344q-33 -200 -198.5 -342.5t-367.5 -142.5q-200 0 -318.5 142.5t-85.5 342.5q34 202 200.5 344t366.5 142zM398.5 744q-137.5 -118 -165.5 -284q-27 -166 71 -283t264 -117t303 117t164 283q28 166 -69.5 284t-263.5 118t-303.5 -118z
M955 1217l-244 -165h-74l171 165h147z" />
    <glyph glyph-name="upsilontonos" unicode="&#x3cd;" horiz-adv-x="880" 
d="M443 -12q-163 0 -243 96t-58 243l90 542h80l-89 -535q-19 -110 48 -188q66 -79 184 -79q110 0 202.5 78.5t111.5 188.5l89 535h80l-90 -542q-28 -147 -140 -243t-265 -96zM838 1217l-245 -165h-74l172 165h147z" />
    <glyph glyph-name="omegatonos" unicode="&#x3ce;" horiz-adv-x="1360" 
d="M674 197l78 468h79l-78 -468q1 -33 22.5 -90.5t157.5 -57.5t226 105t128 331q34 206 -44 369l2 14h78q80 -191 48 -383q-42 -251 -155 -380.5t-284 -129.5q-169 0 -232 141q-109 -141 -278 -141q-171 0 -242 129.5t-29 380.5q33 195 183 383h80l-1 -8
q-140 -150 -178 -375q-38 -226 17 -331t191 -105t177 57.5t54 90.5zM1077 1217l-244 -165h-74l171 165h147z" />
    <glyph glyph-name="afii10023" unicode="&#x401;" horiz-adv-x="931" 
d="M1056 1414l-14 -80h-627l-98 -587h627l-13 -80h-627l-99 -587h627l-13 -80h-707l237 1414h707zM667 1658q20 -23 14 -55q-5 -34 -32.5 -57t-59.5 -23q-33 0 -52.5 23t-14.5 57q6 32 33 55t60 23q32 0 52 -23zM932 1658q20 -23 14 -55q-5 -34 -32.5 -57t-59.5 -23
q-33 0 -52.5 23t-14.5 57q6 32 33 55t60 23q32 0 52 -23z" />
    <glyph glyph-name="afii10051" unicode="&#x402;" horiz-adv-x="1447" 
d="M580 496l-83 -496h-79l223 1334h-358l13 80h795l-13 -80h-358l-104 -622q29 32 65 61q154 122 360 122t324 -122q115 -99 71 -357q-43 -259 -192 -367q-44 -33 -90 -58l-43 58q36 20 72 47q135 103 172 310q32 206 -69 309q-102 105 -267 105q-166 0 -294 -105
q-115 -95 -145 -219z" />
    <glyph glyph-name="afii10052" unicode="&#x403;" horiz-adv-x="783" 
d="M968 1414l-14 -80h-539l-223 -1334h-80l237 1414h619zM898 1683l-245 -165h-74l172 165h147z" />
    <glyph glyph-name="afii10053" unicode="&#x404;" horiz-adv-x="1553" 
d="M1175 749l-13 -80h-871q-28 -241 118 -416q157 -189 423 -189q267 0 488 189q118 101 186 225h87q-79 -157 -224 -282q-249 -213 -550 -213q-300 0 -477 212.5t-127 513.5q51 300 299 512.5t548 212.5q301 0 478 -212q52 -63 83 -132h-98q-23 38 -52 74
q-158 189 -425 189q-266 0 -486 -189q-205 -175 -258 -415h871z" />
    <glyph glyph-name="afii10054" unicode="&#x405;" horiz-adv-x="942" 
d="M626 783q-143 50 -216 137.5t-52 212.5q21 122 123 210t227 88q123 0 197 -88q41 -47 50 -105l-77 -28q-9 43 -39 79q-53 64 -144 64t-166 -64t-91 -156q-15 -91 38 -156q50 -59 148 -108q161 -55 257 -171q102 -122 73 -295q-29 -174 -172 -297t-316 -123
q-174 0 -275 124q-83 98 -80 228l79 27q-7 -115 65 -200q83 -100 224 -100t258 100t140 241q24 140 -60 240q-73 88 -191 140z" />
    <glyph glyph-name="afii10055" unicode="&#x406;" horiz-adv-x="324" 
d="M439 1414l-237 -1414h-80l237 1414h80z" />
    <glyph glyph-name="afii10056" unicode="&#x407;" horiz-adv-x="324" 
d="M439 1414l-237 -1414h-80l237 1414h80zM363 1658q20 -23 14 -55q-5 -34 -32.5 -57t-59.5 -23q-33 0 -52.5 23t-14.5 57q6 32 33 55t60 23q32 0 52 -23zM628 1658q20 -23 14 -55q-5 -34 -32.5 -57t-59.5 -23q-33 0 -52.5 23t-14.5 57q6 32 33 55t60 23q32 0 52 -23z" />
    <glyph glyph-name="afii10057" unicode="&#x408;" horiz-adv-x="306" 
d="M188 -27q-19 -108 -103.5 -178t-191.5 -70l12 73q73 0 133 50q57 49 71 135l240 1431h80z" />
    <glyph glyph-name="afii10058" unicode="&#x409;" horiz-adv-x="1986" 
d="M1027 0l223 1334h-724l-181 -1084q-18 -108 -103.5 -181.5t-192.5 -73.5l13 80q73 0 133 50q57 49 71 135l193 1154h884l-111 -669h463q146 -3 224.5 -108.5t52.5 -258.5q-27 -163 -141 -269t-261 -109h-543zM1218 665l-98 -585h456q110 0 203.5 89.5t113.5 207.5
q18 110 -45.5 199t-173.5 89h-456z" />
    <glyph glyph-name="afii10059" unicode="&#x40a;" horiz-adv-x="1865" 
d="M904 0l112 667h-724l-112 -667h-80l237 1414h80l-112 -667h724l112 667h80l-112 -669h472q146 -3 224.5 -108.5t52.5 -258.5q-27 -163 -140.5 -269t-261.5 -109h-552zM1095 665l-98 -585h465q110 0 203.5 89.5t113.5 207.5q18 110 -45.5 199t-173.5 89h-465z" />
    <glyph glyph-name="afii10060" unicode="&#x40b;" horiz-adv-x="1445" 
d="M572 496l-83 -496h-79l223 1334h-358l13 80h795l-13 -80h-358l-104 -622q29 32 65 61q154 122 360 122t314 -122q107 -122 63 -382l-65 -391h-87l68 399q35 211 -57 321q-87 105 -243 105h-14q-167 -5 -295 -110q-114 -95 -145 -219z" />
    <glyph glyph-name="afii10061" unicode="&#x40c;" horiz-adv-x="1263" 
d="M1269 1414l-456 -531l470 -883h-97l-435 817l-189 -218l-100 -599h-80l237 1414h80l-114 -677l587 677h97zM567 1407l-245 -165h-74l172 165h147z" />
    <glyph glyph-name="afii10062" unicode="&#x40e;" horiz-adv-x="1127" 
d="M335 57q-100 -68 -176 -68q-49 0 -89 28l51 70q40 -24 80 -24q18 0 36 5q56 15 240 239l159 204l-439 903h91l403 -828l622 828h91q-907 -1245 -1069 -1357zM1044 1685q-22 -46 -65 -83q-70 -61 -156 -61q-88 0 -138 61q-32 39 -39 83h70q8 -20 22 -37q35 -43 96 -43
q59 0 108 43q21 17 34 37h68z" />
    <glyph glyph-name="afii10145" unicode="&#x40f;" horiz-adv-x="1127" 
d="M520 1h-430l236 1413h80l-223 -1333h787l223 1333h80l-236 -1414h-438l-56 -331h-79z" />
    <glyph glyph-name="afii10017" unicode="&#x410;" horiz-adv-x="1116" 
d="M891 701l-115 593l-316 -593h431zM837 1414l276 -1414h-84l-122 622h-489l-334 -622h-85l756 1414h82z" />
    <glyph glyph-name="afii10018" unicode="&#x411;" horiz-adv-x="1031" 
d="M230 747l111 667h619l-13 -80h-539l-98 -587h457q146 -3 224.5 -108.5t52.5 -258.5q-27 -163 -140.5 -269t-261.5 -109h-457v-2h-80v2h-5l13 80h5l98 585h-5l14 80h5zM296 667l-98 -585h450q110 0 203.5 89.5t113.5 207.5q18 110 -45.5 199t-173.5 89h-450z" />
    <glyph glyph-name="afii10019" unicode="&#x412;" horiz-adv-x="1033" 
d="M532 80q157 0 287 111.5t156 269.5q27 158 -65.5 270t-249.5 112h-327l-128 -763h327zM415 1335l-69 -412h360q89 9 139 52q71 61 86 149q15 87 -36.5 149t-138.5 62h-341zM851 887q73 -33 127 -99q112 -135 80 -327q-32 -191 -189 -326q-132 -113 -298 -135h-459
l237 1414h422q121 0 191 -85t50 -205t-119 -205q-21 -19 -42 -32z" />
    <glyph glyph-name="afii10020" unicode="&#x413;" horiz-adv-x="783" 
d="M968 1414l-14 -80h-539l-223 -1334h-80l237 1414h619z" />
    <glyph glyph-name="afii10021" unicode="&#x414;" horiz-adv-x="1169" 
d="M935 87l209 1247h-511q5 -143 -23 -308q-101 -602 -472 -939h797zM1016 87h78l-70 -418h-79l55 331h-901l-55 -331h-79l70 418h9q392 378 486 939q28 166 14 388h693z" />
    <glyph glyph-name="afii10022" unicode="&#x415;" horiz-adv-x="931" 
d="M1056 1414l-14 -80h-627l-98 -587h627l-13 -80h-627l-99 -587h627l-13 -80h-707l237 1414h707z" />
    <glyph glyph-name="afii10024" unicode="&#x416;" horiz-adv-x="1693" 
d="M1010 738l586 676h97l-456 -531l470 -883h-97l-435 817l-188 -217l-100 -600h-81l100 600l-114 217l-709 -817h-97l766 883l-278 531h97l358 -676l114 676h81z" />
    <glyph glyph-name="afii10025" unicode="&#x417;" horiz-adv-x="923" 
d="M599 672h-334l14 79h334q134 0 222 84.5t111 220.5q22 136 -60 213.5t-208 77.5q-206 0 -382 -116l13 78q170 112 362 112q181 0 284 -96.5t76 -257.5q-41 -249 -230 -355q157 -86 112 -355q-27 -161 -163 -258.5t-317 -97.5q-195 0 -323 119l17 100q95 -135 320 -135
q126 0 243 72.5t140 208.5t-37 221t-194 85z" />
    <glyph glyph-name="afii10026" unicode="&#x418;" horiz-adv-x="1339" 
d="M1467 1414l-237 -1414h-80l215 1286l-1133 -1286h-123l237 1414h80l-221 -1317l1161 1317h101z" />
    <glyph glyph-name="afii10027" unicode="&#x419;" horiz-adv-x="1339" 
d="M1467 1414l-237 -1414h-80l215 1286l-1133 -1286h-123l237 1414h80l-221 -1317l1161 1317h101zM1150 1685q-22 -46 -65 -83q-70 -61 -156 -61q-88 0 -138 61q-32 39 -39 83h70q8 -20 22 -37q35 -43 96 -43q59 0 108 43q21 17 34 37h68z" />
    <glyph glyph-name="afii10028" unicode="&#x41a;" horiz-adv-x="999" 
d="M999 1414l-456 -531l470 -883h-97l-435 817l-189 -218l-100 -599h-80l237 1414h80l-114 -677l587 677h97z" />
    <glyph glyph-name="afii10029" unicode="&#x41b;" horiz-adv-x="1201" 
d="M345 250q-18 -108 -103.5 -181.5t-192.5 -73.5l13 80q73 0 133 50q57 49 71 135l193 1154h884l-236 -1414h-80l223 1334h-724z" />
    <glyph glyph-name="afii10030" unicode="&#x41c;" horiz-adv-x="1442" 
d="M1586 1414l-237 -1414h-80l222 1328l-667 -717l-428 717l-222 -1328h-80l237 1414h116l400 -670l623 670h116z" />
    <glyph glyph-name="afii10031" unicode="&#x41d;" horiz-adv-x="1072" 
d="M286 667l-112 -667h-80l237 1414h80l-112 -667h724l112 667h80l-237 -1414h-80l112 667h-724z" />
    <glyph glyph-name="afii10032" unicode="&#x41e;" horiz-adv-x="1575" 
d="M1505 1221.5q177 -212.5 126 -512.5q-50 -301 -298 -513.5t-549 -212.5q-300 0 -477 212.5t-127 513.5q51 300 299 512.5t548 212.5q301 0 478 -212.5zM1013 1353q-266 0 -486.5 -189t-265.5 -455q-44 -267 113 -456t423 -189q267 0 488 189t265 456q45 266 -112.5 455
t-424.5 189z" />
    <glyph glyph-name="afii10033" unicode="&#x41f;" horiz-adv-x="1072" 
d="M397 1334l-223 -1334h-80l237 1414h884l-237 -1414h-80l223 1334h-724z" />
    <glyph glyph-name="afii10034" unicode="&#x420;" horiz-adv-x="959" 
d="M274 490l-82 -490h-80l237 1414h371q158 -22 252 -135q112 -136 80 -326q-32 -192 -189.5 -327.5t-348.5 -135.5h-240zM415 1333l-127 -762h240q157 0 287.5 111.5t156.5 270.5q27 158 -66.5 269t-250.5 111h-240z" />
    <glyph glyph-name="afii10035" unicode="&#x421;" horiz-adv-x="1347" 
d="M1262 225l52 -54q-239 -188 -519 -188q-301 0 -477 211.5t-126 512.5q50 299 297.5 511.5t548.5 212.5q280 0 455 -189l-70 -54q-155 161 -399 161q-266 0 -486 -188t-265 -454q-44 -267 113 -455t423 -188q244 0 453 161z" />
    <glyph glyph-name="afii10036" unicode="&#x422;" horiz-adv-x="899" 
d="M712 1334l-223 -1334h-79l223 1334h-358l13 80h795l-13 -80h-358z" />
    <glyph glyph-name="afii10037" unicode="&#x423;" horiz-adv-x="1127" 
d="M335 57q-100 -68 -176 -68q-49 0 -89 28l51 70q40 -24 80 -24q18 0 36 5q56 15 240 239l159 204l-439 903h91l403 -828l622 828h91q-907 -1245 -1069 -1357z" />
    <glyph glyph-name="afii10038" unicode="&#x424;" horiz-adv-x="1415" 
d="M725 347l116 695q-237 -7 -390 -101q-165 -102 -189 -246q-24 -145 107 -247q121 -94 356 -101zM790 259l-43 -255h-80l43 255q-271 8 -411 128q-153 128 -123 308q30 181 226 309q181 118 454 126l47 282h80l-47 -282q273 -8 414 -126q151 -128 121 -309
q-30 -180 -224 -308q-182 -120 -457 -128zM921 1042l-116 -695q238 7 391 101q165 102 189 247q24 144 -107 246q-121 94 -357 101z" />
    <glyph glyph-name="afii10039" unicode="&#x425;" horiz-adv-x="1018" 
d="M15 0l578 777l-261 637h91l228 -559l417 559h91l-476 -637l320 -777h-91l-287 698l-520 -698h-90z" />
    <glyph glyph-name="afii10040" unicode="&#x426;" horiz-adv-x="1142" 
d="M1043 1h-943l236 1413h80l-223 -1333h787l223 1333h80l-222 -1327h75l-70 -418h-79z" />
    <glyph glyph-name="afii10041" unicode="&#x427;" horiz-adv-x="1097" 
d="M1091 919l83 495h79l-237 -1414h-79l118 703q-30 -32 -65 -60q-154 -123 -360 -123t-313 123q-108 121 -64 381l65 390h87l-68 -398q-35 -211 56 -321q88 -105 244 -105h15q166 5 293 110q115 95 146 219z" />
    <glyph glyph-name="afii10042" unicode="&#x428;" horiz-adv-x="1614" 
d="M336 1414h80l-223 -1333h587l223 1333h80l-223 -1333h587l223 1333h80l-236 -1413h-1414z" />
    <glyph glyph-name="afii10043" unicode="&#x429;" horiz-adv-x="1616" 
d="M1510 1h-1410l236 1413h80l-223 -1333h587l223 1333h80l-223 -1333h587l223 1333h80l-222 -1327h75l-70 -418h-79z" />
    <glyph glyph-name="afii10044" unicode="&#x42a;" horiz-adv-x="1333" 
d="M483 745l99 589h-339l13 80h419l-112 -669h461q147 -3 225.5 -108.5t52.5 -258.5q-27 -163 -141 -269t-261 -109h-542l13 80h1l98 585h-1l13 80h1zM550 665l-98 -585h454q110 0 203.5 89.5t113.5 207.5q18 110 -45.5 199t-173.5 89h-454z" />
    <glyph glyph-name="afii10045" unicode="&#x42b;" horiz-adv-x="1396" 
d="M1542 1414l-237 -1414h-80l237 1414h80zM93 0l237 1414h80l-112 -669h470q146 -3 224.5 -108.5t52.5 -258.5q-27 -163 -140.5 -269t-261.5 -109h-550zM284 665l-98 -585h463q110 0 203.5 89.5t113.5 207.5q18 110 -45.5 199t-173.5 89h-463z" />
    <glyph glyph-name="afii10046" unicode="&#x42c;" horiz-adv-x="1032" 
d="M93 0l237 1414h80l-112 -669h470q146 -3 224.5 -108.5t52.5 -258.5q-27 -163 -140.5 -269t-261.5 -109h-550zM284 665l-98 -585h463q110 0 203.5 89.5t113.5 207.5q18 110 -45.5 199t-173.5 89h-463z" />
    <glyph glyph-name="afii10047" unicode="&#x42d;" horiz-adv-x="1568" 
d="M1521 749q28 240 -118 415q-158 189 -424 189q-267 0 -487 -189q-42 -36 -78 -74h-99q56 69 129 132q248 212 549 212q300 0 477 -212.5t127 -512.5q-51 -301 -299 -513.5t-548 -212.5q-301 0 -478 213q-105 125 -130 282h86q26 -124 111 -225q158 -189 425 -189
q266 0 486 189q205 175 258 416h-871l13 80h871z" />
    <glyph glyph-name="afii10048" unicode="&#x42e;" horiz-adv-x="2041" 
d="M1479 1353q-266 0 -486.5 -189t-264.5 -455q-45 -267 112.5 -456t423.5 -189q267 0 487.5 189t265.5 456q44 266 -113.5 455t-424.5 189zM641 667h-349l-112 -667h-80l237 1414h80l-112 -667h349q59 276 291 475q248 212 548 212q301 0 478 -212.5t127 -512.5
q-51 -301 -299 -513.5t-549 -212.5q-300 0 -476 213q-165 197 -133 471z" />
    <glyph glyph-name="afii10049" unicode="&#x42f;" horiz-adv-x="961" 
d="M764 1333q-157 0 -287.5 -111t-157.5 -269q-26 -159 67.5 -270.5t250.5 -111.5h240l127 762h-240zM202 0h-98l410 503q-116 29 -194 123q-113 135 -81 327q32 190 190 326q132 113 298 135h371l-237 -1414h-80l82 490h-240q-12 0 -24 1z" />
    <glyph glyph-name="afii10065" unicode="&#x430;" horiz-adv-x="1122" 
d="M1033 0h-80l30 177q-28 -31 -60 -59q-166 -143 -368 -143q-200 0 -318.5 142.5t-85.5 342.5q34 202 200.5 344t366.5 142q202 0 320 -142q22 -28 40 -59l21 123h80zM1017 382l27 157q-3 117 -76 205q-98 118 -264 118t-303.5 -118t-165.5 -284q-27 -166 71 -283t264 -117
t303 118q103 88 144 204z" />
    <glyph glyph-name="afii10066" unicode="&#x431;" horiz-adv-x="1178" 
d="M297 460q-28 -166 70 -283t264 -117t303 117t165 283t-70 284t-264 118t-303 -118t-165 -284zM293 667q47 74 121 137q165 142 365 142q202 0 320 -142t84 -344q-33 -200 -198.5 -342.5t-367.5 -142.5q-200 0 -318 143q-106 126 -91 298h-7q-6 168 17 309q48 281 210 460
q202 222 418 222q45 0 89 -9q119 -25 196 -25q93 0 123 37l-13 -79q-30 -35 -117 -35q-73 0 -188 25q-45 10 -88 10q-200 0 -373 -205q-134 -157 -174 -398q-5 -30 -8 -61z" />
    <glyph glyph-name="afii10067" unicode="&#x432;" horiz-adv-x="755" 
d="M259 479h247v1q87 4 141.5 50.5t63.5 104.5q10 57 -29 103.5t-124 50.5v1h-247zM244 391l-52 -311h247l1 1q86 4 140.5 50.5t63.5 103.5q10 58 -28.5 104.5t-124.5 50.5v1h-247zM246 870h329l-1 -1q115 -5 173.5 -75.5t43.5 -158.5v-1q-15 -88 -96 -158q-30 -25 -61 -41
q26 -16 47 -40q58 -71 43 -159v-1q-14 -88 -96.5 -158.5t-198.5 -75.5v-1h-329z" />
    <glyph glyph-name="afii10068" unicode="&#x433;" horiz-adv-x="607" 
d="M311 788l-132 -788h-79l145 868h437l-13 -80h-358z" />
    <glyph glyph-name="afii10069" unicode="&#x434;" horiz-adv-x="949" 
d="M844 87h70l-70 -418h-79l55 331h-691l-55 -331h-79l70 418h71q2 2 4 3q220 188 281 555q13 75 16 143q2 41 1 80h537zM239 80h525l118 708h-363q-4 -68 -17 -143q-60 -358 -263 -565z" />
    <glyph glyph-name="afii10070" unicode="&#x435;" horiz-adv-x="1042" 
d="M253 586h762q-13 91 -69 158q-98 118 -264 118t-304 -118q-82 -71 -125 -158zM224 505q-7 -21 -11 -45q-27 -166 71 -283t264 -117t303 118q24 20 45 42l80 -30q-19 -25 -75 -72q-166 -143 -368 -143q-200 0 -318.5 142.5t-85.5 342.5q34 202 200.5 344t366.5 142
q202 0 320 -142q104 -126 75 -299h-867z" />
    <glyph glyph-name="afii10072" unicode="&#x436;" horiz-adv-x="1195" 
d="M717 471l406 397h102l-258 -265l240 -603h-98l-205 539l-208 -195l-58 -344h-81l58 344l-144 195l-385 -539h-98l442 603l-170 265h102l274 -397l66 397h81z" />
    <glyph glyph-name="afii10073" unicode="&#x437;" horiz-adv-x="756" 
d="M616 437q25 -14 46 -32q80 -70 63 -168q-16 -98 -119.5 -168t-233.5 -70t-210.5 70t-64.5 168l2 9h85l-2 -9q-12 -72 46.5 -122.5t153.5 -50.5t170.5 50.5t87.5 122.5t-46 123q-35 29 -82 42h-200l13 79h228q35 13 67 34q75 50 87 122t-46.5 122.5t-153.5 50.5t-170 -50
q-66 -45 -84 -105h-85q23 87 116 150q104 70 234 70t210.5 -70t63.5 -168q-16 -98 -120 -168q-27 -18 -56 -32z" />
    <glyph glyph-name="afii10074" unicode="&#x438;" horiz-adv-x="899" 
d="M235 868h79l-123 -735l678 735h85l-145 -868h-79l124 742l-685 -741v-1h-79z" />
    <glyph glyph-name="afii10075" unicode="&#x439;" horiz-adv-x="899" 
d="M235 868h79l-123 -735l678 735h85l-145 -868h-79l124 742l-685 -741v-1h-79zM853 1219q-23 -46 -66 -83q-70 -61 -156 -61q-88 0 -138 61q-31 39 -39 83h71q7 -20 21 -37q35 -43 96 -43q59 0 108 43q21 17 34 37h69z" />
    <glyph glyph-name="afii10076" unicode="&#x43a;" horiz-adv-x="738" 
d="M768 868l-258 -265l240 -603h-98l-205 539l-210 -196l-57 -343h-80l145 868h80l-66 -398l407 398h102z" />
    <glyph glyph-name="afii10077" unicode="&#x43b;" horiz-adv-x="984" 
d="M1039 868l-145 -868h-79l132 788h-579l-98 -588q-31 -186 -220 -201l13 79q109 12 127 120l112 670h737z" />
    <glyph glyph-name="afii10078" unicode="&#x43c;" horiz-adv-x="979" 
d="M510 119l449 749h85l-145 -868h-79l112 672l-403 -672h-79l-179 672l-112 -672h-79l145 868h85z" />
    <glyph glyph-name="afii10079" unicode="&#x43d;" horiz-adv-x="897" 
d="M817 0h-79l72 430h-579l-72 -430h-79l145 868h79l-60 -358h579l60 358h79z" />
    <glyph glyph-name="afii10080" unicode="&#x43e;" horiz-adv-x="1114" 
d="M716 946q202 0 319.5 -142t83.5 -344q-33 -200 -198.5 -342.5t-367.5 -142.5q-200 0 -318.5 142.5t-85.5 342.5q34 202 200.5 344t366.5 142zM398.5 744q-137.5 -118 -165.5 -284q-27 -166 71 -283t264 -117t303 117t164 283q28 166 -69.5 284t-263.5 118t-303.5 -118z
" />
    <glyph glyph-name="afii10081" unicode="&#x43f;" horiz-adv-x="917" 
d="M301 788l-132 -788h-79l145 868h737l-145 -868h-79l132 788h-579z" />
    <glyph glyph-name="afii10082" unicode="&#x440;" horiz-adv-x="1110" 
d="M238 868h80l-21 -122q27 30 60 58q166 141 367 141t319 -141.5t84 -343.5q-33 -200 -199 -342.5t-367 -142.5t-319 143q-23 28 -40 58l-85 -507h-80zM263 543l-28 -166q3 -114 76 -200q98 -118 264 -118t303.5 117.5t164.5 283.5q28 166 -69.5 284t-263.5 118t-304 -118
q-102 -87 -143 -201z" />
    <glyph glyph-name="afii10083" unicode="&#x441;" horiz-adv-x="985" 
d="M884 209l79 -31q-28 -31 -62 -60q-166 -143 -368 -143q-200 0 -318.5 142.5t-84.5 343.5q33 201 199.5 343t366.5 142q202 0 320 -142q24 -29 42 -60l-89 -31q-11 16 -23 32q-98 117 -264 117q-165 0 -302.5 -117.5t-164.5 -283.5q-28 -166 70 -283.5t263 -117.5
q166 0 303 118q18 15 33 31z" />
    <glyph glyph-name="afii10084" unicode="&#x442;" horiz-adv-x="955" 
d="M649 788l-132 -788h-79l132 788h-358l13 80h795l-13 -80h-358z" />
    <glyph glyph-name="afii10085" unicode="&#x443;" horiz-adv-x="779" 
d="M150 -330h-89l311 491l-212 707h89l184 -606l387 606h89z" />
    <glyph glyph-name="afii10086" unicode="&#x444;" horiz-adv-x="1968" 
d="M1118 559l-33 -198q7 -104 75 -184q97 -118 263 -118t303.5 117.5t164.5 283.5q28 166 -69.5 284t-263.5 118t-303 -118q-94 -80 -137 -185zM1005 361l33 198q-7 105 -75 185q-97 118 -263 118t-303.5 -118t-165.5 -284q-27 -166 70.5 -283.5t263.5 -117.5t303 118
q94 80 137 184zM1150 750q26 28 55 54q167 141 367 141q202 0 319.5 -141.5t83.5 -343.5q-33 -200 -198.5 -342.5t-367.5 -142.5q-200 0 -319 143q-21 25 -37 53l-81 -487h-80l81 487q-26 -28 -55 -53q-167 -143 -367 -143q-202 0 -319.5 142.5t-84.5 342.5
q34 202 199.5 343.5t367.5 141.5q200 0 319 -141q21 -26 37 -54l81 487h80z" />
    <glyph glyph-name="afii10087" unicode="&#x445;" horiz-adv-x="637" 
d="M362 459l-187 409h93l152 -335l264 335h93l-323 -409l208 -459h-92l-175 384l-303 -384h-92z" />
    <glyph glyph-name="afii10088" unicode="&#x446;" horiz-adv-x="949" 
d="M828 0h-728l145 868h79l-132 -788h579l132 788h79l-130 -781h70l-70 -418h-79z" />
    <glyph glyph-name="afii10089" unicode="&#x447;" horiz-adv-x="1057" 
d="M1007 718l26 156h79l-146 -874h-79l82 495q-24 -28 -53 -52q-144 -123 -350 -123t-303 123q-98 121 -54 381l8 50h87l-11 -58q-35 -211 46 -321q79 -105 234 -105h15q166 5 283 110q106 94 136 218z" />
    <glyph glyph-name="afii10090" unicode="&#x448;" horiz-adv-x="1194" 
d="M235 868h80l-132 -787h387l132 787h80l-132 -787h387l132 787h80l-145 -867h-1014z" />
    <glyph glyph-name="afii10091" unicode="&#x449;" horiz-adv-x="1239" 
d="M1120 1h-1010l145 867h80l-132 -787h387l132 787h80l-132 -787h387l132 787h80l-131 -781h75l-70 -418h-79z" />
    <glyph glyph-name="afii10092" unicode="&#x44a;" horiz-adv-x="1061" 
d="M254 0l132 788h-224l13 80h303l-59 -357h372l-1 -1q115 -5 183 -75q69 -71 51 -179v-1q-18 -108 -111 -179q-92 -70 -208 -75v-1h-451zM347 80h369v1q86 4 151 51q64 46 77 123q13 78 -35 125q-50 46 -135 50v1h-369z" />
    <glyph glyph-name="afii10093" unicode="&#x44b;" horiz-adv-x="1279" 
d="M192 80h469l1 1q86 4 151 51q64 46 77 123q13 78 -35 125q-50 46 -135 50v1h-469zM1179 0h-79l145 868h79zM100 0l145 868h79l-59 -357h472l-1 -1q115 -5 183 -75q69 -71 51 -179v-1q-18 -108 -111 -179q-92 -70 -208 -75v-1h-551z" />
    <glyph glyph-name="afii10094" unicode="&#x44c;" horiz-adv-x="897" 
d="M192 80h369l1 1q86 4 151 51q64 46 77 123q13 78 -35 125q-50 46 -135 50v1h-369zM100 0l145 868h79l-59 -357h372l-1 -1q115 -5 183 -75q69 -71 51 -179v-1q-18 -108 -111 -179q-92 -70 -208 -75v-1h-451z" />
    <glyph glyph-name="afii10095" unicode="&#x44d;" horiz-adv-x="1082" 
d="M1002 586q-14 87 -72 158q-98 118 -264 118t-304 -118q-56 -48 -94 -108h-89q45 92 133 168q166 142 368 142q200 0 318.5 -142t84.5 -344q-33 -200 -199.5 -342.5t-366.5 -142.5q-202 0 -320 143q-23 27 -37 47h118q96 -105 253 -105q166 0 303.5 117t164.5 283
q4 24 5 45h-543l13 81h528z" />
    <glyph glyph-name="afii10096" unicode="&#x44e;" horiz-adv-x="1519" 
d="M640 460q-28 -166 70 -283t264 -117t303 117t165 283t-70 284t-264 118t-303 -118t-165 -284zM552 430h-301l-72 -430h-79l145 868h79l-60 -358h302q45 170 191 294q165 142 365 142q202 0 320 -142t84 -344q-33 -200 -198.5 -342.5t-367.5 -142.5q-200 0 -318 143
q-110 131 -90 312z" />
    <glyph glyph-name="afii10097" unicode="&#x44f;" horiz-adv-x="797" 
d="M750 788h-269v-1q-87 -4 -151 -50q-65 -47 -77 -124q-13 -78 36 -124q48 -47 133 -51v-1h269zM842 868l-145 -868h-79l60 357h-213l-26 -41l-69 -109l-131 -207h-88l228 360q-96 11 -156 73q-69 71 -51 179l1 1q18 108 111 179q91 70 207 75v1h351z" />
    <glyph glyph-name="afii10071" unicode="&#x451;" horiz-adv-x="1042" 
d="M253 586h762q-13 91 -69 158q-98 118 -264 118t-304 -118q-82 -71 -125 -158zM224 505q-7 -21 -11 -45q-27 -166 71 -283t264 -117t303 118q24 20 45 42l80 -30q-19 -25 -75 -72q-166 -143 -368 -143q-200 0 -318.5 142.5t-85.5 342.5q34 202 200.5 344t366.5 142
q202 0 320 -142q104 -126 75 -299h-867zM652.5 1192q19.5 -23 14.5 -55q-6 -34 -33.5 -57t-59.5 -23q-33 0 -52.5 23t-13.5 57q5 32 32.5 55t60.5 23q32 0 51.5 -23zM917.5 1192q19.5 -23 14.5 -55q-6 -34 -33.5 -57t-59.5 -23q-33 0 -52.5 23t-13.5 57q5 32 32.5 55
t60.5 23q32 0 51.5 -23z" />
    <glyph glyph-name="afii10099" unicode="&#x452;" horiz-adv-x="891" 
d="M807 573q18 111 -48.5 189t-175.5 78q-110 0 -202 -77q-42 -35 -66 -73l-115 -690h-80l190 1134h-100l13 79h100l34 201h80l-34 -201h194l-13 -79h-194l-52 -311q116 97 258 97q153 0 233.5 -96.5t58.5 -242.5l-105 -631q-18 -108 -103.5 -181.5t-192.5 -73.5l13 80
q73 0 133 50q57 49 71 135z" />
    <glyph glyph-name="afii10100" unicode="&#x453;" horiz-adv-x="589" 
d="M311 788l-132 -788h-79l145 868h437l-13 -80h-358zM717 1217l-245 -165h-74l172 165h147z" />
    <glyph glyph-name="afii10101" unicode="&#x454;" horiz-adv-x="1070" 
d="M809 586l-14 -81h-543q-7 -21 -11 -45q-27 -166 71 -283t264 -117q157 0 287 105h118q-19 -20 -52 -47q-166 -143 -368 -143q-200 0 -318.5 142.5t-85.5 342.5q34 202 200.5 344t366.5 142q202 0 320 -142q62 -76 77 -168h-89q-18 60 -58 108q-98 118 -264 118t-304 -118
q-82 -71 -125 -158h528z" />
    <glyph glyph-name="afii10102" unicode="&#x455;" horiz-adv-x="644" 
d="M402 466q-92 55 -124 94q-51 61 -37 147q15 86 86 147.5t157 61.5t134 -57q45 -55 34 -126l-1 -4l-74 -28q2 67 -25 101t-81 34q-53 0 -97.5 -38t-53.5 -91t23 -91q18 -23 82 -68q102 -61 142 -109q63 -76 45 -181q-18 -108 -105.5 -183.5t-194.5 -75.5t-169.5 75.5
t-47.5 165.5l82 20q-12 -77 31.5 -129.5t116.5 -52.5t135 52.5t74 127.5q12 73 -32 125q-23 28 -100 83z" />
    <glyph glyph-name="afii10103" unicode="&#x456;" horiz-adv-x="317" 
d="M343 868l-145 -868h-79l145 868h79zM407.5 1152q19.5 -23 14.5 -55q-6 -34 -33.5 -57t-59.5 -23q-33 0 -52.5 23t-13.5 57q5 32 32.5 55t60.5 23q32 0 51.5 -23z" />
    <glyph glyph-name="afii10104" unicode="&#x457;" horiz-adv-x="317" 
d="M344 868l-145 -868h-79l145 868h79zM282 1192q20 -23 14 -55q-5 -34 -32.5 -57t-59.5 -23q-33 0 -52.5 23t-14.5 57q6 32 33 55t60 23q32 0 52 -23zM547 1192q20 -23 14 -55q-5 -34 -32.5 -57t-59.5 -23q-33 0 -52.5 23t-14.5 57q6 32 33 55t60 23q32 0 52 -23z" />
    <glyph glyph-name="afii10105" unicode="&#x458;" horiz-adv-x="284" 
d="M-31 -122q109 12 127 120l146 870h79l-146 -868q-29 -179 -218 -194zM384.5 1152q19.5 -23 14.5 -55q-6 -34 -33 -57t-59 -23q-33 0 -53 23t-14 57q5 32 32.5 55t60.5 23q32 0 51.5 -23z" />
    <glyph glyph-name="afii10106" unicode="&#x459;" horiz-adv-x="988" 
d="M1041 868l-145 -868h-79l132 788h-579l-98 -588q-31 -186 -220 -201l13 79q109 12 127 120l112 670h737z" />
    <glyph glyph-name="afii10107" unicode="&#x45a;" horiz-adv-x="1545" 
d="M840 80h369l1 1q86 4 151 51q64 46 77 123q13 78 -35 125q-50 46 -135 50v1h-369zM748 0l72 430h-579l-72 -430h-79l145 868h79l-60 -358h579l60 358h79l-59 -357h372l-1 -1q115 -5 183 -75q69 -71 51 -179v-1q-18 -108 -111 -179q-92 -70 -208 -75v-1h-451z" />
    <glyph glyph-name="afii10108" unicode="&#x45b;" horiz-adv-x="891" 
d="M323 1213l34 201h80l-34 -201h194l-13 -79h-194l-52 -311q116 97 258 97q153 0 233.5 -96.5t58.5 -242.5l-97 -581h-80l96 573q18 111 -48.5 189t-175.5 78q-110 0 -202 -77q-42 -35 -66 -73l-115 -690h-80l190 1134h-100l13 79h100z" />
    <glyph glyph-name="afii10109" unicode="&#x45c;" horiz-adv-x="738" 
d="M768 868l-258 -265l240 -603h-98l-205 539l-210 -196l-57 -343h-80l145 868h80l-66 -398l407 398h102zM723 1218l-245 -165h-74l172 165h147z" />
    <glyph glyph-name="afii10110" unicode="&#x45e;" horiz-adv-x="779" 
d="M461 163l-311 -493h-89l311 491l-212 707h89l184 -606l387 606h89l-447 -705h-1zM793 1219q-22 -46 -66 -83q-70 -61 -156 -61q-88 0 -138 61q-31 39 -39 83h71q7 -20 21 -37q35 -43 96 -43q59 0 108 43q21 17 34 37h69z" />
    <glyph glyph-name="afii10193" unicode="&#x45f;" horiz-adv-x="917" 
d="M419 0h-329l145 868h79l-132 -788h579l132 788h79l-145 -868h-329l-55 -331h-79z" />
    <glyph glyph-name="afii10050" unicode="&#x490;" horiz-adv-x="837" 
d="M955 1336l-1 -2h-539l-223 -1334h-80l237 1414h596l40 240h79l-53 -318h-56z" />
    <glyph glyph-name="afii10098" unicode="&#x491;" horiz-adv-x="641" 
d="M311 788l-132 -788h-79l145 868h412l40 239h79l-53 -319h-412z" />
    <glyph glyph-name="uni1E02" unicode="&#x1e02;" horiz-adv-x="1033" 
d="M532 80q157 0 287 111.5t156 269.5q27 158 -65.5 270t-249.5 112h-327l-128 -763h327zM415 1335l-69 -412h360q89 9 139 52q71 61 86 149q15 87 -36.5 149t-138.5 62h-341zM851 887q73 -33 127 -99q112 -135 80 -327q-32 -191 -189 -326q-132 -113 -298 -135h-459
l237 1414h422q121 0 191 -85t50 -205t-119 -205q-21 -19 -42 -32zM872.5 1667.5q16.5 -19.5 12.5 -47.5q-5 -28 -28.5 -47.5t-50.5 -19.5q-28 0 -44.5 19.5t-11.5 47.5q4 28 27.5 47.5t51.5 19.5q27 0 43.5 -19.5z" />
    <glyph glyph-name="uni1E03" unicode="&#x1e03;" horiz-adv-x="1131" 
d="M336 1414h80l-112 -668q27 30 60 58q165 142 366 142t319.5 -142t84.5 -344q-33 -200 -199 -342.5t-367 -142.5t-319 143q-24 28 -41 58l-29 -176h-80zM270 543l-28 -166q3 -113 76 -199q98 -118 264 -118t303 117t165 283t-70 284t-264 118t-303 -118
q-102 -87 -143 -201zM743.5 1121.5q16.5 -19.5 12.5 -47.5q-5 -28 -28.5 -47.5t-50.5 -19.5q-28 0 -44.5 19.5t-11.5 47.5q4 28 27.5 47.5t51.5 19.5q27 0 43.5 -19.5z" />
    <glyph glyph-name="uni1E0A" unicode="&#x1e0a;" horiz-adv-x="1189" 
d="M611 1414q348 -2 508 -195q176 -213 126 -512q-50 -301 -298 -513q-224 -192 -573 -194h-262l237 1414h262zM415 1331l-209 -1249h181q305 0 509 170q220 188 264 455q45 266 -112 455q-147 169 -452 169h-181zM945.5 1667.5q16.5 -19.5 12.5 -47.5q-5 -28 -28.5 -47.5
t-50.5 -19.5q-28 0 -44.5 19.5t-11.5 47.5q4 28 27.5 47.5t51.5 19.5q27 0 43.5 -19.5z" />
    <glyph glyph-name="uni1E0B" unicode="&#x1e0b;" horiz-adv-x="1122" 
d="M1033 0h-80l30 177q-28 -31 -60 -59q-166 -143 -368 -143q-200 0 -318.5 142.5t-85.5 342.5q34 202 200.5 344t366.5 142q202 0 320 -142q22 -28 40 -59l112 669h80zM1017 382l27 157q-3 117 -76 205q-98 118 -264 118t-303.5 -118t-165.5 -284q-27 -166 71 -283
t264 -117t303 118q103 88 144 204zM693.5 1121.5q16.5 -19.5 12.5 -47.5q-5 -28 -28.5 -47.5t-50.5 -19.5q-28 0 -44.5 19.5t-11.5 47.5q4 28 27.5 47.5t51.5 19.5q27 0 43.5 -19.5z" />
    <glyph glyph-name="uni1E1E" unicode="&#x1e1e;" horiz-adv-x="783" 
d="M968 1414l-14 -80h-539l-98 -587h539l-13 -80h-539l-112 -667h-80l237 1414h619zM747.5 1667.5q16.5 -19.5 12.5 -47.5q-5 -28 -28.5 -47.5t-50.5 -19.5q-28 0 -44.5 19.5t-11.5 47.5q4 28 27.5 47.5t51.5 19.5q27 0 43.5 -19.5z" />
    <glyph glyph-name="uni1E1F" unicode="&#x1e1f;" horiz-adv-x="383" 
d="M322 788l-132 -788h-80l132 788h-88l13 80h88l40 235q22 98 103 169q84 67 178 67q50 0 102 -19l-37 -71q-34 16 -69 16q-62 0 -127 -50q-57 -49 -71 -118l-39 -229h177l-13 -80h-177zM565.5 1667.5q16.5 -19.5 12.5 -47.5q-5 -28 -28.5 -47.5t-50.5 -19.5
q-28 0 -44.5 19.5t-11.5 47.5q4 28 27.5 47.5t51.5 19.5q27 0 43.5 -19.5z" />
    <glyph glyph-name="uni1E40" unicode="&#x1e40;" horiz-adv-x="1442" 
d="M1586 1414l-237 -1414h-80l222 1328l-667 -717l-428 717l-222 -1328h-80l237 1414h116l400 -670l623 670h116zM1047.5 1667.5q16.5 -19.5 12.5 -47.5q-5 -28 -28.5 -47.5t-50.5 -19.5q-28 0 -44.5 19.5t-11.5 47.5q4 28 27.5 47.5t51.5 19.5q27 0 43.5 -19.5z" />
    <glyph glyph-name="uni1E41" unicode="&#x1e41;" horiz-adv-x="1148" 
d="M244 868h80l-3 -21q86 72 189 72q107 0 169 -75q17 -20 28 -44q20 23 44 44q88 75 195 75t169 -75q59 -73 46 -174l-112 -670h-80l112 670h1q9 69 -32 117q-45 52 -118 52q-74 0 -135 -52t-74 -130l-110 -657h-79l112 670h1q8 69 -33 117q-45 52 -118 52t-133 -52
q-54 -45 -71 -110l-113 -677h-80zM809.5 1121.5q16.5 -19.5 12.5 -47.5q-5 -28 -28.5 -47.5t-50.5 -19.5q-28 0 -44.5 19.5t-11.5 47.5q4 28 27.5 47.5t51.5 19.5q27 0 43.5 -19.5z" />
    <glyph glyph-name="uni1E6A" unicode="&#x1e6a;" horiz-adv-x="859" 
d="M692 1334l-223 -1334h-79l223 1334h-358l13 80h795l-13 -80h-358zM755.5 1667.5q16.5 -19.5 12.5 -47.5q-5 -28 -28.5 -47.5t-50.5 -19.5q-28 0 -44.5 19.5t-11.5 47.5q4 28 27.5 47.5t51.5 19.5q27 0 43.5 -19.5z" />
    <glyph glyph-name="uni1E6B" unicode="&#x1e6b;" horiz-adv-x="497" 
d="M354 868l62 369h79l-62 -369h177l-13 -80h-177l-132 -788h-79l132 788h-177l13 80h177zM583.5 1521.5q16.5 -19.5 12.5 -47.5q-5 -28 -28.5 -47.5t-50.5 -19.5q-28 0 -44.5 19.5t-11.5 47.5q4 28 27.5 47.5t51.5 19.5q27 0 43.5 -19.5z" />
    <glyph glyph-name="Wgrave" unicode="&#x1e80;" horiz-adv-x="1642" 
d="M998 1039l200 -910l560 1285h81l-617 -1414h-80l-191 894l-491 -894h-80l-143 1414h81l131 -1285l503 910h46zM1036 1683l116 -165h-75l-188 165h147z" />
    <glyph glyph-name="wgrave" unicode="&#x1e81;" horiz-adv-x="1094" 
d="M1239 868l-440 -868h-50l-108 566l-296 -566h-51l-149 868h91l111 -713l298 565h45l110 -565l348 713h91zM703 1217l117 -165h-75l-189 165h147z" />
    <glyph glyph-name="Wacute" unicode="&#x1e82;" horiz-adv-x="1642" 
d="M998 1039l200 -910l560 1285h81l-617 -1414h-80l-191 894l-491 -894h-80l-143 1414h81l131 -1285l503 910h46zM1277 1683l-245 -165h-74l172 165h147z" />
    <glyph glyph-name="wacute" unicode="&#x1e83;" horiz-adv-x="1094" 
d="M1239 868l-440 -868h-50l-108 566l-296 -566h-51l-149 868h91l111 -713l298 565h45l110 -565l348 713h91zM944 1217l-244 -165h-74l171 165h147z" />
    <glyph glyph-name="Wdieresis" unicode="&#x1e84;" horiz-adv-x="1642" 
d="M998 1039l200 -910l560 1285h81l-617 -1414h-80l-191 894l-491 -894h-80l-143 1414h81l131 -1285l503 910h46zM1002.5 1658q19.5 -23 14.5 -55q-6 -34 -33.5 -57t-59.5 -23q-33 0 -52.5 23t-13.5 57q5 32 32.5 55t60.5 23q32 0 51.5 -23zM1267.5 1658q19.5 -23 14.5 -55
q-6 -34 -33.5 -57t-59.5 -23q-33 0 -52.5 23t-13.5 57q5 32 32.5 55t60.5 23q32 0 51.5 -23z" />
    <glyph glyph-name="wdieresis" unicode="&#x1e85;" horiz-adv-x="1094" 
d="M1239 868l-440 -868h-50l-108 566l-296 -566h-51l-149 868h91l111 -713l298 565h45l110 -565l348 713h91zM669.5 1192q19.5 -23 14.5 -55q-6 -34 -33 -57t-59 -23q-33 0 -53 23t-14 57q5 32 32.5 55t60.5 23q32 0 51.5 -23zM934.5 1192q19.5 -23 14.5 -55q-6 -34 -33 -57
t-59 -23q-33 0 -53 23t-14 57q5 32 32.5 55t60.5 23q32 0 51.5 -23z" />
    <glyph glyph-name="Ygrave" unicode="&#x1ef2;" horiz-adv-x="1116" 
d="M614 572l-345 842h91l309 -754l561 754h91l-627 -842l-96 -572h-80zM793 1683l116 -165h-75l-188 165h147z" />
    <glyph glyph-name="ygrave" unicode="&#x1ef3;" horiz-adv-x="779" 
d="M461 163l-311 -493h-89l311 491l-212 707h89l184 -606l387 606h89l-447 -705h-1zM547 1217l116 -165h-75l-188 165h147z" />
    <glyph glyph-name="endash" unicode="&#x2013;" horiz-adv-x="681" 
d="M94 563h681l-13 -80h-681z" />
    <glyph glyph-name="emdash" unicode="&#x2014;" horiz-adv-x="1254" 
d="M94 563h1254l-13 -80h-1254z" />
    <glyph glyph-name="afii00208" unicode="&#x2015;" horiz-adv-x="3072" 
d="M94 563h1881l-13 -80h-1881z" />
    <glyph glyph-name="underscoredbl" unicode="&#x2017;" horiz-adv-x="794" 
d="M-83 -224h884l-13 -79h-884zM-50 -27h884l-13 -79h-884z" />
    <glyph glyph-name="quoteleft" unicode="&#x2018;" horiz-adv-x="255" 
d="M363 1282q20 -4 33 -20q19 -23 14 -57q-6 -33 -33.5 -56t-59.5 -23q-33 0 -52.5 23t-13.5 56q3 19 11 35l116 174h57z" />
    <glyph glyph-name="quoteright" unicode="&#x2019;" horiz-adv-x="255" 
d="M319 1268q-19 4 -31 20q-21 23 -15 57q6 33 33 55.5t60 22.5q32 0 52 -22.5t14 -55.5q-3 -19 -12 -35l-116 -175h-57z" />
    <glyph glyph-name="quotesinglbase" unicode="&#x201a;" horiz-adv-x="255" 
d="M105 -11q-19 4 -31 20q-21 23 -15 56q5 33 32.5 56t60.5 23q32 0 51.5 -23t14.5 -56q-3 -18 -12 -34l-116 -175h-57z" />
    <glyph glyph-name="quotereversed" unicode="&#x201b;" horiz-adv-x="255" 
d="M388 1135h-57l-58 175q-3 16 0 35q6 33 33 55.5t59 22.5q33 0 53 -22.5t14 -55.5q-6 -34 -33 -57q-18 -16 -39 -20z" />
    <glyph glyph-name="quotedblleft" unicode="&#x201c;" horiz-adv-x="478" 
d="M362 1282q20 -4 33 -20q19 -23 14 -57q-6 -33 -33.5 -56t-59.5 -23q-33 0 -52.5 23t-13.5 56q3 19 11 35l116 174h57zM585 1282q20 -4 33 -20q19 -23 14 -57q-6 -33 -33.5 -56t-59.5 -23q-33 0 -52.5 23t-13.5 56q3 19 11 35l116 174h57z" />
    <glyph glyph-name="quotedblright" unicode="&#x201d;" horiz-adv-x="478" 
d="M319 1268q-19 4 -31 20q-21 23 -15 57q6 33 33 55.5t60 22.5q32 0 52 -22.5t14 -55.5q-3 -19 -12 -35l-116 -175h-57zM542 1268q-19 4 -31 20q-21 23 -15 57q6 33 33 55.5t60 22.5q32 0 52 -22.5t14 -55.5q-3 -19 -12 -35l-116 -175h-57z" />
    <glyph glyph-name="quotedblbase" unicode="&#x201e;" horiz-adv-x="478" 
d="M105 -11q-19 4 -31 20q-21 23 -15 57q6 33 33 55.5t60 22.5q32 0 52 -22.5t14 -55.5q-3 -19 -12 -35l-116 -175h-57zM328 -11q-19 4 -31 20q-21 23 -15 57q6 33 33 55.5t60 22.5q32 0 52 -22.5t14 -55.5q-3 -19 -12 -35l-116 -175h-57z" />
    <glyph glyph-name="dagger" unicode="&#x2020;" horiz-adv-x="689" 
d="M522 1221l32 193h51l-32 -193h221l-9 -51h-221l-202 -1206h-51l202 1206h-221l9 51h221z" />
    <glyph glyph-name="daggerdbl" unicode="&#x2021;" horiz-adv-x="689" 
d="M518 1170h-221l9 51h221l32 193h51l-32 -193h221l-9 -51h-221l-71 -429h221l-9 -51h-221l-121 -726h-51l121 726h-221l9 51h221z" />
    <glyph glyph-name="bullet" unicode="&#x2022;" horiz-adv-x="670" 
d="M556.5 752q33.5 -39 23.5 -95q-9 -56 -55.5 -95t-100.5 -39q-56 0 -89.5 39t-24.5 95q10 56 56.5 95t102.5 39q54 0 87.5 -39z" />
    <glyph glyph-name="ellipsis" unicode="&#x2026;" horiz-adv-x="2048" 
d="M211.5 123q19.5 -23 14.5 -56q-6 -33 -33.5 -56t-59.5 -23q-33 0 -52.5 23t-13.5 56q5 33 32.5 56t60.5 23q32 0 51.5 -23zM894.5 123q19.5 -23 14.5 -56q-6 -33 -33.5 -56t-59.5 -23q-33 0 -52.5 23t-13.5 56q5 33 32.5 56t60.5 23q32 0 51.5 -23zM1577.5 123
q19.5 -23 14.5 -56q-6 -33 -33.5 -56t-59.5 -23q-33 0 -52.5 23t-13.5 56q5 33 32.5 56t60.5 23q32 0 51.5 -23z" />
    <glyph glyph-name="perthousand" unicode="&#x2030;" horiz-adv-x="1580" 
d="M1179 1161l-1005 -1158l-57 45l1005 1158zM596.5 1014q49.5 -60 34.5 -145q-14 -84 -83.5 -144t-154.5 -60t-134.5 60t-35.5 144q15 85 84.5 145t154.5 60t134.5 -60zM449 997q-53 0 -96.5 -37.5t-52.5 -90.5q-8 -53 22.5 -90t83.5 -37q52 0 96 37t52 90q9 53 -22 90.5
t-83 37.5zM1037.5 483.5q49.5 -59.5 35.5 -144.5q-15 -85 -84 -144.5t-154 -59.5t-135 59.5t-35 144.5q14 85 83.5 144.5t154.5 59.5t134.5 -59.5zM890 467q-53 0 -96 -37.5t-52 -90.5t21.5 -90t83.5 -37q52 0 96.5 37t53.5 90t-23 90.5t-84 37.5zM1523.5 483.5
q49.5 -59.5 35.5 -144.5q-15 -85 -84 -144.5t-154 -59.5t-135 59.5t-35 144.5q14 85 83.5 144.5t154.5 59.5t134.5 -59.5zM1376 467q-53 0 -96 -37.5t-52 -90.5t21.5 -90t83.5 -37q52 0 96 37t53 90t-22.5 90.5t-83.5 37.5z" />
    <glyph glyph-name="minute" unicode="&#x2032;" horiz-adv-x="326" 
d="M271 884l89 530h80l-89 -530h-80z" />
    <glyph glyph-name="second" unicode="&#x2033;" horiz-adv-x="486" 
d="M271 884l89 530h80l-89 -530h-80zM431 884l89 530h80l-89 -530h-80z" />
    <glyph glyph-name="guilsinglleft" unicode="&#x2039;" horiz-adv-x="596" 
d="M171 425l467 425l-19 -113l-343 -312l239 -311l-19 -114z" />
    <glyph glyph-name="guilsinglright" unicode="&#x203a;" horiz-adv-x="596" 
d="M100 0l19 114l342 311l-238 312l19 113l325 -425z" />
    <glyph glyph-name="exclamdbl" unicode="&#x203c;" horiz-adv-x="538" 
d="M211.5 123q19.5 -23 14.5 -56q-6 -33 -33.5 -56t-59.5 -23q-33 0 -52.5 23t-13.5 56q5 33 32.5 56t60.5 23q32 0 51.5 -23zM410 1414l-196 -1170h-80l196 1170h80zM480.5 123q19.5 -23 14.5 -56q-6 -33 -33.5 -56t-59.5 -23q-33 0 -52.5 23t-13.5 56q5 33 32.5 56
t60.5 23q32 0 51.5 -23zM679 1414l-196 -1170h-80l196 1170h80z" />
    <glyph glyph-name="uni203E" unicode="&#x203e;" horiz-adv-x="794" 
d="M225 1613h884l-13 -79h-884z" />
    <glyph glyph-name="fraction" unicode="&#x2044;" horiz-adv-x="167" 
d="M954 1414l-1252 -1414h-102l1250 1414h104z" />
    <glyph glyph-name="fraction" unicode="&#x2215;" horiz-adv-x="167" 
d="M954 1414l-1252 -1414h-102l1250 1414h104z" />
    <glyph glyph-name="uni2070" unicode="&#x2070;" horiz-adv-x="750" 
d="M765 1001q27 162 -25 249t-141 87t-171 -87t-109 -249q-27 -164 25.5 -251t141.5 -87t170.5 87t108.5 251zM851 1001q-31 -187 -138 -297.5t-238 -110.5t-202 110.5t-40 297.5q31 186 139 296.5t239 110.5t201 -110.5t39 -296.5z" />
    <glyph glyph-name="uni2074" unicode="&#x2074;" horiz-adv-x="750" 
d="M808 1503l-103 -612h81l-11 -67h-81l-34 -201h-84l34 201h-359zM678 1233l-279 -342h222z" />
    <glyph glyph-name="uni2075" unicode="&#x2075;" horiz-adv-x="750" 
d="M408 1134q48 23 164 23q261 -28 239 -276q-21 -118 -117.5 -197t-258.5 -79q-154 9 -230 106l67 57q81 -81 205 -81q207 11 249 195q22 161 -133 210q-46 9 -92 9q-71 0 -142 -22l-45 42l134 277h302l-11 -68h-230z" />
    <glyph glyph-name="uni2076" unicode="&#x2076;" horiz-adv-x="750" 
d="M343 813q-11 -66 31.5 -111t110.5 -45q67 0 124.5 45t68.5 111q12 67 -30.5 112.5t-109.5 45.5q-68 0 -125.5 -45.5t-69.5 -112.5zM550 1042q106 0 168 -67.5t46 -161.5q-15 -92 -100 -160t-191 -68t-168.5 68t-47.5 160q27 128 124 265.5t260 319.5h101
q-200 -195 -331 -405q73 49 139 49z" />
    <glyph glyph-name="uni2077" unicode="&#x2077;" horiz-adv-x="750" 
d="M717 1113q-135 -144 -226 -276q-91 -133 -115 -241h-86q28 131 125 268q97 138 212 265q117 128 146 201h-443l11 68h536q-26 -141 -160 -285z" />
    <glyph glyph-name="uni2078" unicode="&#x2078;" horiz-adv-x="750" 
d="M487 665q97 0 159.5 49.5t75.5 124.5q12 73 -33 128q-44 52 -140 70q-103 -18 -165 -70q-63 -55 -75 -128q-13 -75 33.5 -124.5t144.5 -49.5zM475 594q-136 0 -202.5 72.5t-49.5 172.5q16 98 105 173q62 53 133 63q-99 92 -87 165q12 71 77.5 124t160.5 53q94 0 143 -53
t37 -124q-12 -73 -144 -166q69 -9 113 -62q63 -75 47 -173q-17 -100 -107.5 -172.5t-225.5 -72.5zM601 1347q-55 0 -94 -30t-47 -77q-8 -46 20.5 -79t80.5 -50q57 17 96.5 50t47.5 79q8 47 -20.5 77t-83.5 30z" />
    <glyph glyph-name="uni2079" unicode="&#x2079;" horiz-adv-x="750" 
d="M741 1190q11 67 -31.5 112t-110.5 45q-67 0 -124.5 -45t-68.5 -112t31 -112.5t109 -45.5q68 0 126 45.5t69 112.5zM534 961q-106 0 -168 67.5t-46 161.5q15 92 100 160t191 68t168.5 -68t47.5 -160q-27 -127 -124 -265t-260 -320h-101q210 195 334 399q-39 -42 -142 -43z
" />
    <glyph glyph-name="uni207A" unicode="&#x207a;" horiz-adv-x="750" 
d="M333 964h-246v68h246v225h84v-225h246v-68h-246v-226h-84v226z" />
    <glyph glyph-name="uni207B" unicode="&#x207b;" horiz-adv-x="750" 
d="M97 967v68h576v-68h-576z" />
    <glyph glyph-name="uni207C" unicode="&#x207c;" horiz-adv-x="750" 
d="M87 1129h576v-68h-576v68zM89 973h572v-68h-572v68z" />
    <glyph glyph-name="uni207F" unicode="&#x207f;" horiz-adv-x="579" 
d="M348 1250l-70 -416h-88l92 549h88l-2 -10q51 41 153 41q108 0 165 -62.5t44 -154.5l-61 -363h-88l60 358q10 61 -30 103.5t-103 42.5t-116 -41q-30 -24 -44 -47z" />
    <glyph glyph-name="uni2080" unicode="&#x2080;" horiz-adv-x="750" 
d="M647 296q28 163 -24.5 250t-141.5 87t-170.5 -87t-109.5 -250q-27 -163 25.5 -250t141.5 -87t170.5 87t108.5 250zM733 296q-31 -187 -138 -297.5t-238 -110.5t-202 110.5t-40 297.5q31 186 139.5 297t239.5 111t200.5 -111t38.5 -297z" />
    <glyph glyph-name="uni2081" unicode="&#x2081;" horiz-adv-x="750" 
d="M327 -43l102 608l-77 -42l-55 41l240 144l-126 -751h184l-11 -68h-456l11 68h188z" />
    <glyph glyph-name="uni2082" unicode="&#x2082;" horiz-adv-x="750" 
d="M114 -111q472 461 495 598q19 140 -118 141q-93 -5 -133 -61l-71 32q78 94 217 100q229 -5 195 -208q-27 -158 -423 -534h333l-11 -68h-484z" />
    <glyph glyph-name="uni2083" unicode="&#x2083;" horiz-adv-x="750" 
d="M399 332l-55 1l11 67q63 1 92 11t68.5 43t47.5 79q8 47 -20.5 77t-73.5 30t-83 -29q-22 -18 -44 -55l-72 28q22 44 59 73q68 53 152 53t132.5 -53t36.5 -124q-19 -113 -157 -168q83 -7 127 -60q63 -75 47 -173q-17 -100 -107.5 -172.5t-204.5 -72.5q-113 0 -181 74
q-52 57 -52 141l88 28q-4 -80 36 -124q46 -48 121 -48q76 0 139 49.5t75 124.5q12 73 -33 127t-149 73z" />
    <glyph glyph-name="uni2084" unicode="&#x2084;" horiz-adv-x="750" 
d="M685 766l-103 -612h81l-11 -67h-81l-34 -201h-84l34 201h-359zM555 496l-279 -342h222z" />
    <glyph glyph-name="uni2085" unicode="&#x2085;" horiz-adv-x="750" 
d="M288 418q48 23 164 23q261 -28 239 -276q-21 -118 -117.5 -197t-258.5 -79q-154 9 -230 106l67 57q81 -81 205 -81q207 11 249 195q22 161 -133 210q-46 9 -92 9q-71 0 -142 -22l-45 42l134 277h302l-11 -68h-230z" />
    <glyph glyph-name="uni2086" unicode="&#x2086;" horiz-adv-x="750" 
d="M226 116q-11 -66 31.5 -111t110.5 -45q67 0 124.5 45t68.5 111q12 67 -30.5 112.5t-109.5 45.5q-68 0 -125.5 -45.5t-69.5 -112.5zM433 345q106 0 168 -67.5t46 -161.5q-15 -92 -100 -160t-191 -68t-168.5 68t-47.5 160q27 128 124 265.5t260 319.5h101
q-200 -195 -331 -405q73 49 139 49z" />
    <glyph glyph-name="uni2087" unicode="&#x2087;" horiz-adv-x="750" 
d="M597.5 406q-134.5 -144 -225.5 -276.5t-115 -240.5h-86q28 131 125 268.5t213 265t145 200.5h-443l11 68h536q-26 -141 -160.5 -285z" />
    <glyph glyph-name="uni2088" unicode="&#x2088;" horiz-adv-x="750" 
d="M368 -42q97 0 159.5 49.5t75.5 124.5q12 73 -33 128q-44 52 -140 70q-103 -18 -165 -70q-63 -55 -75 -128q-13 -75 33.5 -124.5t144.5 -49.5zM356 -113q-136 0 -202.5 72.5t-49.5 172.5q16 98 105 173q62 53 133 63q-99 92 -87 165q12 71 77.5 124t160.5 53q94 0 143 -53
t37 -124q-12 -73 -144 -166q69 -9 113 -62q63 -75 47 -173q-17 -100 -107.5 -172.5t-225.5 -72.5zM482 640q-55 0 -94 -30t-47 -77q-8 -46 20.5 -79t80.5 -50q57 17 96.5 50t47.5 79q8 47 -20.5 77t-83.5 30z" />
    <glyph glyph-name="uni2089" unicode="&#x2089;" horiz-adv-x="750" 
d="M621 473q11 67 -31.5 112t-110.5 45q-67 0 -124.5 -45t-68.5 -112t31 -112.5t109 -45.5q68 0 126 45.5t69 112.5zM414 244q-106 0 -168 67.5t-46 161.5q15 92 100 160t191 68t168.5 -68t47.5 -160q-27 -127 -124 -265t-260 -320h-101q210 195 334 399q-39 -42 -142 -43z
" />
    <glyph glyph-name="uni208A" unicode="&#x208a;" horiz-adv-x="750" 
d="M333 241h-246v68h246v225h84v-225h246v-68h-246v-226h-84v226z" />
    <glyph glyph-name="uni208B" unicode="&#x208b;" horiz-adv-x="750" 
d="M87 56v68h576v-68h-576z" />
    <glyph glyph-name="uni208C" unicode="&#x208c;" horiz-adv-x="750" 
d="M87 266h576v-68h-576v68zM89 110h572v-68h-572v68z" />
    <glyph glyph-name="franc" unicode="&#x20a3;" horiz-adv-x="892" 
d="M262 414l168 1000h619l-14 -80h-539l-98 -587h539l-13 -80h-539l-43 -253h254l-13 -80h-254l-56 -334h-80l56 334h-143l13 80h143z" />
    <glyph glyph-name="lira" unicode="&#x20a4;" horiz-adv-x="902" 
d="M345 1060l-1 -6q-17 -104 35 -228q54 -127 63 -256h174l-13 -80h-159q-2 -40 -10 -90h154l-13 -80h-166q-49 -114 -176 -240h612l-13 -80h-719l13 78q150 126 204 242h-196l13 80h208v1q8 45 8 89h-201l13 80h184q-9 84 -66 221q-56 131 -34 261l2 10q25 134 123 232
q119 108 294 116q135 0 212 -75l-44 -72q-56 65 -181 65h-9q-132 -3 -216 -87q-75 -75 -95 -181z" />
    <glyph glyph-name="peseta" unicode="&#x20a7;" horiz-adv-x="1614" 
d="M415 1333l-127 -762h176q161 0 289 101.5t157 280.5q30 178 -64 279t-235 101h-196zM930 788q-45 -89 -124 -162q-145 -136 -366 -136h-166l-82 -490h-72l237 1414h284q191 -22 274 -135q99 -136 67 -326q-7 -45 -20 -85h74l62 369h80l-62 -369h219q52 28 110 28
q87 0 133 -57q46 -55 34 -126v-4l-74 -28q2 67 -25 101t-81 34q-53 0 -97.5 -38t-53.5 -91t23 -91q18 -23 82 -68q103 -61 143 -109q62 -76 45 -181q-18 -108 -106 -183.5t-195 -75.5t-169 75.5t-47 165.5l81 20q-13 -77 31 -129.5t118 -52.5q73 0 134 52.5t74 127.5
q12 73 -31 125q-24 28 -100 83q-93 55 -125 94q-50 61 -36 147q9 55 42 101h-142l-132 -788h-80l132 788h-93z" />
    <glyph glyph-name="Euro" unicode="&#x20ac;" horiz-adv-x="1044" 
d="M1158 1234q-98 99 -276 99q-218 -10 -346 -167q-112 -135 -175 -375h534l-30 -80h-522l-3 -21q-9 -52 -13 -99h514l-29 -80h-488q10 -163 62 -270q79 -167 338 -172q191 6 325 105l-18 -105q-143 -80 -325 -80q-290 0 -400 192q-75 132 -73 330h-157l33 80h128
q5 57 15 120h-123l34 80h105q61 275 204 435q162 182 427 187q192 0 279 -90z" />
    <glyph glyph-name="afii61248" unicode="&#x2105;" horiz-adv-x="1692" 
d="M826 872l78 -31q-183 -163 -340 -163q-156 0 -247.5 109.5t-65.5 262.5q25 153 153.5 262.5t284.5 109.5q157 0 285 -163l-89 -31q-91 115 -209 115t-217.5 -85t-119.5 -208q-21 -122 50 -207t189 -85t248 114zM1362 718q157 0 247.5 -109.5t65.5 -263.5
q-26 -152 -153.5 -262t-284.5 -110t-248 110t-65 262q25 154 153 263.5t285 109.5zM1130.5 553q-99.5 -86 -119.5 -208q-21 -122 50 -207t190 -85q118 0 217 85t120 207q20 122 -50.5 208t-188.5 86q-119 0 -218.5 -86zM1657 1414l-1252 -1414h-102l1250 1414h104z" />
    <glyph glyph-name="afii61352" unicode="&#x2116;" horiz-adv-x="1553" 
d="M823 283l190 1131h80l-238 -1422l-487 1134l-188 -1126h-80l237 1416zM1410 1013q103 0 163 -72.5t43 -176.5q-17 -102 -102 -175t-188 -73q-102 0 -162.5 73t-43.5 175q17 104 102.5 176.5t187.5 72.5zM1259 895.5q-63 -54.5 -76 -131.5q-13 -76 32 -130.5t122 -54.5
t140 54.5t76 130.5q13 77 -32 131.5t-122 54.5t-140 -54.5zM1537 412l-13 -78h-456l13 78h456z" />
    <glyph glyph-name="trademark" unicode="&#x2122;" horiz-adv-x="1255" 
d="M561 1344h-216v-534h-74v534h-221v70h579l229 -352l228 352h69v-604h-74v462l-223 -343l-224 344v-463h-73v534z" />
    <glyph glyph-name="Omega" unicode="&#x2126;" horiz-adv-x="1406" 
d="M950 1434q283 0 421 -200t81 -539q-42 -250 -207 -419t-279 -196h292l-13 -80h-480l13 80q201 45 375.5 201.5t217.5 413.5q51 306 -68 488.5t-370 182.5h-4q-251 0 -431 -182.5t-231 -488.5q-43 -257 78.5 -413.5t308.5 -201.5l-13 -80h-480l13 80h292q-106 27 -214 196
t-66 419q57 339 262 539t488 200h14z" />
    <glyph glyph-name="estimated" unicode="&#x212e;" horiz-adv-x="1575" 
d="M1104 1045q-127 115 -300 115q-185 0 -316 -129v-294h616v308zM693 681l-1 1l-7 -1h-348q10 -169 132 -291q132 -133 319 -133q186 0 319 133q24 23 43 49l51 -27q-24 -33 -54 -62q-149 -149 -359 -149t-359 148.5t-149 359.5q0 210 149 358.5t359 148.5t359 -148.5
t149 -358.5q0 -14 -1 -28h-602z" />
    <glyph glyph-name="oneeighth" unicode="&#x215b;" horiz-adv-x="1667" 
d="M441 637l102 608l-77 -42l-55 41l240 144l-126 -751h184l-11 -68h-456l11 68h188zM1703 1414l-1251 -1414h-102l1249 1414h104zM1299 41q97 0 159.5 49.5t75.5 124.5q12 73 -33 128q-44 52 -140 70q-103 -18 -165 -70q-63 -55 -75 -128q-13 -75 33.5 -124.5t144.5 -49.5z
M1287 -30q-136 0 -202.5 72.5t-49.5 172.5q16 98 105 173q62 53 133 63q-99 92 -87 165q12 71 77.5 124t160.5 53q94 0 143 -53t37 -124q-12 -73 -144 -166q69 -9 113 -62q63 -75 47 -173q-17 -100 -107.5 -172.5t-225.5 -72.5zM1413 723q-55 0 -94 -30t-47 -77
q-8 -46 20.5 -79t80.5 -50q57 17 96.5 50t47.5 79q8 47 -20.5 77t-83.5 30z" />
    <glyph glyph-name="threeeighths" unicode="&#x215c;" horiz-adv-x="1667" 
d="M516 1033h-55l11 67q63 1 92 11t68.5 43t47.5 79q8 47 -20.5 77t-73.5 30t-83 -29q-22 -18 -44 -55l-72 28q22 44 59 73q68 53 152 53t132.5 -53t36.5 -124q-19 -113 -157 -168q83 -7 127 -60q63 -75 47 -173q-17 -100 -107.5 -172.5t-204.5 -72.5q-113 0 -181 74
q-52 57 -52 141l88 28q-4 -80 36 -124q46 -48 121 -48q76 0 139 49.5t75 124.5q12 73 -33 127t-149 74zM1703 1414l-1251 -1414h-102l1249 1414h104zM1299 41q97 0 159.5 49.5t75.5 124.5q12 73 -33 128q-44 52 -140 70q-103 -18 -165 -70q-63 -55 -75 -128
q-13 -75 33.5 -124.5t144.5 -49.5zM1287 -30q-136 0 -202.5 72.5t-49.5 172.5q16 98 105 173q62 53 133 63q-99 92 -87 165q12 71 78 124t161 53q94 0 142.5 -53t36.5 -124q-12 -73 -144 -166q69 -9 113 -62q63 -75 47 -173q-17 -100 -107.5 -172.5t-225.5 -72.5zM1413 723
q-55 0 -94 -30t-47 -77q-8 -46 20.5 -79t80.5 -50q57 17 96.5 50t47.5 79q8 47 -20.5 77t-83.5 30z" />
    <glyph glyph-name="fiveeighths" unicode="&#x215d;" horiz-adv-x="1667" 
d="M408 1134q48 23 164 23q261 -28 239 -276q-21 -118 -117.5 -197t-258.5 -79q-154 9 -230 106l67 57q81 -81 205 -81q207 11 249 195q22 161 -133 210q-46 9 -92 9q-71 0 -142 -22l-45 42l134 277h302l-11 -68h-230zM1704 1414l-1252 -1414h-102l1250 1414h104zM1299 41
q97 0 159.5 49.5t75.5 124.5q12 73 -33 128q-44 52 -140 70q-103 -18 -165 -70q-63 -55 -75 -128q-13 -75 33.5 -124.5t144.5 -49.5zM1287 -30q-136 0 -202.5 72.5t-49.5 172.5q16 98 105 173q62 53 133 63q-99 92 -87 165q12 71 78 124t161 53q94 0 142.5 -53t36.5 -124
q-12 -73 -144 -166q69 -9 113 -62q63 -75 47 -173q-17 -100 -107.5 -172.5t-225.5 -72.5zM1413 723q-55 0 -94 -30t-47 -77q-8 -46 20.5 -79t81.5 -50q56 17 95.5 50t47.5 79q8 47 -20.5 77t-83.5 30z" />
    <glyph glyph-name="seveneighths" unicode="&#x215e;" horiz-adv-x="1667" 
d="M717 1113q-135 -144 -226 -276q-91 -133 -115 -241h-86q28 131 125 268q97 138 212 265q117 128 146 201h-443l11 68h536q-26 -141 -160 -285zM1704 1414l-1252 -1414h-102l1250 1414h104zM1299 41q97 0 160 49.5t75 124.5q12 73 -32 128q-45 52 -141 70
q-103 -18 -164 -70q-64 -55 -76 -128q-12 -75 34 -124.5t144 -49.5zM1287 -30q-136 0 -202 72.5t-50 172.5q17 98 105 173q62 53 134 63q-100 92 -88 165q12 71 78 124t161 53q94 0 142.5 -53t36.5 -124q-12 -73 -143 -166q68 -9 112 -62q64 -75 47 -173
q-16 -100 -107 -172.5t-226 -72.5zM1413 723q-55 0 -94 -30t-47 -77q-7 -46 21.5 -79t80.5 -50q57 17 96.5 50t46.5 79q8 47 -20.5 77t-83.5 30z" />
    <glyph glyph-name="arrowleft" unicode="&#x2190;" horiz-adv-x="1599" 
d="M393 851l-18 -112h1247l-14 -80h-1247l-19 -113l-125 153z" />
    <glyph glyph-name="arrowup" unicode="&#x2191;" horiz-adv-x="905" 
d="M815 1250h-113l-209 -1247h-80l209 1247h-112l177 151z" />
    <glyph glyph-name="arrowright" unicode="&#x2192;" horiz-adv-x="1599" 
d="M1615 699l-177 -153l19 113h-1247l13 80h1247l19 112z" />
    <glyph glyph-name="arrowdown" unicode="&#x2193;" horiz-adv-x="905" 
d="M453 3l-127 151h112l209 1247h80l-209 -1247h113z" />
    <glyph glyph-name="arrowboth" unicode="&#x2194;" horiz-adv-x="1599" 
d="M1471 739l18 112l126 -152l-177 -153l19 113h-1096l-19 -113l-125 153l176 152l-18 -112h1096z" />
    <glyph glyph-name="arrowupdn" unicode="&#x2195;" horiz-adv-x="1599" 
d="M866 154h112l-177 -151l-128 151h113l183 1096h-113l179 151l126 -151h-112z" />
    <glyph glyph-name="arrowupdnbse" unicode="&#x21a8;" horiz-adv-x="1599" 
d="M867 154h112l-177 -151l-128 151h113l184 1096h-113l178 151l127 -151h-112zM897 1487h305l-13 -80h-305zM648 0h305l-13 -80h-305z" />
    <glyph glyph-name="partialdiff" unicode="&#x2202;" horiz-adv-x="875" 
d="M854 677q-493 -61 -663 -361q-19 -46 -26 -83q-26 -156 187 -158q291 30 502 602zM868 750q21 86 34 159q64 387 -118 422q-36 6 -71 6q-174 0 -317 -167l-24 74q156 157 344 157q62 0 128 -17q204 -54 137 -452q-19 -118 -63 -266q-210 -648 -580 -657q-286 0 -249 219
q7 44 28 98q172 354 751 424z" />
    <glyph glyph-name="Delta" unicode="&#x2206;" horiz-adv-x="1103" 
d="M30 1h-60l751 1413h97l285 -1414h-1073v1zM1002 80l-249 1234l-657 -1234h906z" />
    <glyph glyph-name="product" unicode="&#x220f;" horiz-adv-x="1172" 
d="M397 1334l-278 -1664h-80l292 1744h984l-292 -1744h-80l278 1664h-824z" />
    <glyph glyph-name="summation" unicode="&#x2211;" horiz-adv-x="1047" 
d="M1194 1414l-14 -80h-787l238 -792l-503 -792h787l-13 -80h-907l546 872l-254 872h907z" />
    <glyph glyph-name="minus" unicode="&#x2212;" horiz-adv-x="1070" 
d="M85 633v80h900v-80h-900z" />
    <glyph glyph-name="radical" unicode="&#x221a;" horiz-adv-x="1356" 
d="M809 260l719 1278h85l-890 -1608l-441 705l-92 -39l-32 50l287 148z" />
    <glyph glyph-name="infinity" unicode="&#x221e;" horiz-adv-x="1070" 
d="M934 720q0 86 -60.5 147t-147.5 61q-86 0 -151 -59q-63 -58 -86 -172q23 -114 86 -172q65 -59 151 -59q87 0 147.5 61t60.5 193zM917.5 483q-79.5 -79 -191.5 -79t-195 77q-58 54 -80 123q-11 -26 -57.5 -69t-127.5 -43q-80 0 -137 56.5t-57 158.5q0 82 57 139t137 57
q81 0 127.5 -43.5t57.5 -69.5q22 69 80 123q83 77 195 77t191.5 -79t79.5 -191q0 -158 -79.5 -237zM134 698q0 -65 38.5 -104t93.5 -39t95 37.5t61 104.5q-21 67 -61 104.5t-95 37.5t-93.5 -38.5t-38.5 -102.5z" />
    <glyph glyph-name="orthogonal" unicode="&#x221f;" horiz-adv-x="1658" 
d="M359 1414h80l-224 -1334h1334l-13 -80h-1414z" />
    <glyph glyph-name="intersection" unicode="&#x2229;" horiz-adv-x="1147" 
d="M1114 953q27 157 -66 269t-251 112t-288.5 -112t-157.5 -269l-161 -965h-80l161 965q32 191 190 326t350 135q191 0 303 -135q94 -113 89 -275l-170 -1016h-80z" />
    <glyph glyph-name="integral" unicode="&#x222b;" horiz-adv-x="497" 
d="M276 -70q-52 -251 -298 -251l12 74q167 0 207 175l224 1338q62 251 299 251l-10 -64q-161 -5 -210 -185z" />
    <glyph glyph-name="approxequal" unicode="&#x2248;" horiz-adv-x="1070" 
d="M534 866q166 -97 242 -97q13 0 23 3q68 20 96 88q13 34 13 69l80 -13q-3 -42 -20 -86q-41 -98 -138 -130q-22 -7 -49 -7q-93 0 -246 87q-168 96 -242 96q-12 0 -23 -2q-68 -21 -95 -89q-14 -34 -14 -68l-80 13q2 42 19 85q41 98 139 131q22 7 49 7q93 0 246 -87zM534 571
q166 -97 242 -97q13 0 23 3q68 20 96 88q13 34 13 69l80 -13q-3 -42 -20 -86q-41 -98 -138 -130q-22 -7 -49 -7q-93 0 -246 87q-168 96 -242 96q-12 0 -23 -2q-68 -21 -95 -89q-14 -34 -14 -68l-80 13q2 42 19 85q41 98 139 131q22 7 49 7q93 0 246 -87z" />
    <glyph glyph-name="notequal" unicode="&#x2260;" horiz-adv-x="1070" 
d="M582 775h-497v80h569l156 172h91l-156 -172h240v-80h-312l-185 -203h493v-80h-565l-156 -172h-90l156 172h-237v80h309z" />
    <glyph glyph-name="equivalence" unicode="&#x2261;" horiz-adv-x="1070" 
d="M85 633v80h900v-80h-900zM85 933v80h900v-80h-900zM85 333v80h900v-80h-900z" />
    <glyph glyph-name="lessequal" unicode="&#x2264;" horiz-adv-x="1070" 
d="M258 772l723 -334v-92l-892 426l892 426v-92zM85 0v80h900v-80h-900z" />
    <glyph glyph-name="greaterequal" unicode="&#x2265;" horiz-adv-x="1070" 
d="M89 1106v92l892 -426l-892 -426v92l723 334zM85 0v80h900v-80h-900z" />
    <glyph glyph-name="house" unicode="&#x2302;" horiz-adv-x="1137" 
d="M1037 0h-937l150 898l526 401l411 -401zM322 853l-130 -773h779l129 770l-342 340z" />
    <glyph glyph-name="revlogicalnot" unicode="&#x2310;" horiz-adv-x="1070" 
d="M135 705h800v-80h-720v-339h-80v419z" />
    <glyph glyph-name="integraltp" unicode="&#x2320;" horiz-adv-x="558" 
d="M225 -320h-79l265 1586q62 251 299 251l-9 -64q-161 -5 -210 -185z" />
    <glyph glyph-name="integralbt" unicode="&#x2321;" horiz-adv-x="558" 
d="M532 1517h79l-265 -1586q-62 -251 -300 -251l11 64q161 5 210 185z" />
    <glyph glyph-name="triagup" unicode="&#x25b2;" horiz-adv-x="1836" 
d="M480 268l644 965l322 -965h-966z" />
    <glyph glyph-name="triagrt" unicode="&#x25ba;" horiz-adv-x="1836" 
d="M642 1233l884 -482l-1045 -483z" />
    <glyph glyph-name="triagdn" unicode="&#x25bc;" horiz-adv-x="1836" 
d="M1607 1233l-644 -965l-322 965h966z" />
    <glyph glyph-name="triaglf" unicode="&#x25c4;" horiz-adv-x="1836" 
d="M1445 268l-883 482l1045 483z" />
    <glyph glyph-name="lozenge" unicode="&#x25ca;" horiz-adv-x="1836" 
d="M1490 709l-571 -708l-335 709l572 708zM1128 1249l-436 -540l256 -539l434 540z" />
    <glyph glyph-name="circle" unicode="&#x25cb;" horiz-adv-x="1836" 
d="M1517 756q-33 -195 -194.5 -333.5t-356.5 -138.5q-196 0 -311 138.5t-82 333.5q32 196 193.5 334t357.5 138q195 0 310 -138t83 -334zM1108 1135q-157 0 -285.5 -111t-154.5 -268q-26 -156 65.5 -266t248.5 -110q156 0 285.5 110t155.5 266q26 157 -66.5 268t-248.5 111z
" />
    <glyph glyph-name="H18533" unicode="&#x25cf;" horiz-adv-x="1836" 
d="M1517 756q-33 -195 -194.5 -333.5t-356.5 -138.5q-196 0 -311 138.5t-82 333.5q32 196 193.5 334t357.5 138q195 0 310 -138t83 -334z" />
    <glyph glyph-name="invbullet" unicode="&#x25d8;" horiz-adv-x="1836" 
d="M1638 1247l-163 -972h-1023l163 972h1023zM1088 1019q-106 0 -194.5 -75.5t-106.5 -182.5t45 -182.5t169 -75.5q107 0 195 75.5t106 182.5t-44.5 182.5t-169.5 75.5z" />
    <glyph glyph-name="invcircle" unicode="&#x25d9;" horiz-adv-x="1836" 
d="M1638 1247l-163 -972h-1023l163 972h1023zM1117 1197q-180 0 -328.5 -127.5t-179.5 -308.5q-30 -180 76 -308t286 -128q181 0 330 128t179 308q31 181 -75.5 308.5t-287.5 127.5zM1383 761q-23 -140 -138.5 -239t-256.5 -99t-222.5 99t-58.5 239q24 140 138.5 239
t255.5 99t223.5 -99t58.5 -239z" />
    <glyph glyph-name="openbullet" unicode="&#x25e6;" horiz-adv-x="1836" 
d="M1354 761q-21 -128 -126.5 -218.5t-234.5 -90.5q-128 0 -203.5 90.5t-54.5 218.5q22 128 127.5 219t233.5 91q129 0 204.5 -91t53.5 -219zM1081 980q-90 0 -164.5 -64t-90.5 -155q-15 -90 38.5 -154t143.5 -64q91 0 165.5 64t89.5 154q16 91 -37.5 155t-144.5 64z" />
    <glyph glyph-name="smileface" unicode="&#x263a;" horiz-adv-x="1836" 
d="M1171 778l37 222h70l-37 -222h-70zM945 383q-344 0 -303 344h34q-30 -220 290 -220t381 220h33q-91 -344 -435 -344zM800 778l37 222h70l-37 -222h-70zM1524 1236q366 -35 359 -295q-25 -145 -208 -281q129 -120 111 -233q-19 -113 -142 -185.5t-279 -84.5
q-22 -59 -80 -104q-82 -62 -182 -62q-96 0 -183 92q-174 -135 -339 -135q-164 0 -263 102t-75 247q18 107 97 194q-40 13 -67 44q-62 62 -48 148q15 87 97 149q55 42 119 55q-58 102 -37 231q30 181 197.5 309t373.5 128q185 0 322 -114q44 20 72 20q78 0 124 -56t31 -169z
M955 1494q-170 0 -307.5 -104t-161.5 -252q-34 -202 39 -266q-75 -9 -155 -64t-93 -133t50 -132q56 -53 108 -55q-89 -49 -117 -214q-18 -110 58 -186.5t201 -76.5q272 0 380 146q-14 -111 166 -111q139 0 222 176q291 5 377 188q29 174 -131 239q184 99 218 301
q16 221 -371 242q6 25 12 51q6 59 -28 100q-31 36 -82 42q-12 1 -24 1q-37 0 -68 -14q-87 122 -293 122z" />
    <glyph glyph-name="invsmileface" unicode="&#x263b;" horiz-adv-x="1836" 
d="M1241 778l37 222h-70l-37 -222h70zM1380 727h-33q-61 -220 -381 -220t-290 220h-34q-41 -344 303 -344t435 344zM870 778l37 222h-70l-37 -222h70zM1524 1236q366 -35 359 -295q-25 -145 -208 -281q129 -120 111 -233q-19 -113 -142 -185.5t-279 -84.5q-22 -59 -80 -104
q-82 -62 -182 -62q-96 0 -183 92q-174 -135 -339 -135q-164 0 -263 102t-75 247q18 107 97 194q-40 13 -67 44q-62 62 -48 148q15 87 97 149q55 42 119 55q-58 102 -37 231q30 181 197.5 309t373.5 128q185 0 322 -114q44 20 72 20q78 0 124 -56t31 -169z" />
    <glyph glyph-name="sun" unicode="&#x263c;" horiz-adv-x="1836" 
d="M1107 1129q-199 0 -364.5 -141.5t-198.5 -341.5q-34 -200 84 -341.5t317 -141.5q200 0 365 141.5t199 341.5q33 200 -84.5 341.5t-317.5 141.5zM1387 280l125 -150l-65 -57l-126 151q-161 -123 -349 -135l-35 -213h-80l35 213q-183 12 -302 135l-176 -151l-47 57l177 151
q-101 139 -82 325h-213l13 80h213q43 185 190 326l-125 150l66 57l125 -151q160 123 348 135l36 213h80l-36 -213q184 -12 304 -134l176 150l46 -57l-175 -150q100 -140 80 -326h212l-13 -80h-212q-43 -186 -190 -326z" />
    <glyph glyph-name="female" unicode="&#x2640;" horiz-adv-x="1836" 
d="M1131 1271q-132 0 -241 -93.5t-131 -225.5t55.5 -225.5t209.5 -93.5t241.5 93.5t131.5 225.5t-56 225.5t-210 93.5zM973 563q-134 12 -218 113q-96 114 -68 276q27 162 160.5 276.5t295.5 114.5t257.5 -114.5t68.5 -276.5q-28 -162 -161 -276q-117 -101 -255 -113
l-31 -180h310l-13 -80h-310l-51 -303h-80l51 303h-310l13 80h310z" />
    <glyph glyph-name="male" unicode="&#x2642;" horiz-adv-x="1836" 
d="M872 700q-132 0 -241 -93.5t-131 -225.5t56 -225.5t210 -93.5t241 93.5t131 225.5t-56 225.5t-210 93.5zM1170 619q63 -102 40 -238q-27 -162 -160 -276q-118 -101 -295 -107q-175 6 -258 107q-96 114 -69 276t161 276.5t296 114.5q148 0 240 -95l362 310l-227 12l-68 81
l436 -20l-53 -440l-67 80l25 230z" />
    <glyph glyph-name="spade" unicode="&#x2660;" horiz-adv-x="1836" 
d="M1017 649q-27 -47 -72 -86q-90 -80 -199 -80t-172.5 80.5t-44.5 194.5q31 184 279.5 300t334.5 259q29 -143 238.5 -259t178.5 -300q-19 -114 -110 -194.5t-200 -80.5t-172 80q-29 38 -42 82l-4 -24q-24 -272 294 -301h-708q327 29 394 301z" />
    <glyph glyph-name="club" unicode="&#x2663;" horiz-adv-x="1836" 
d="M1035 643l-4 -22q-23 -272 294 -301h-708q328 29 394 301l4 22q-38 -61 -137 -103q-73 -31 -146 -31q-52 0 -106 16q-126 38 -127 181q-1 26 3 49q18 106 120 167q53 31 118 31q86 0 192 -56q-84 46 -98 171q-4 37 2 71q13 79 81 137q97 83 215 83q117 0 186 -83
q51 -61 37 -145q-5 -30 -19 -63q-51 -125 -165 -174q144 60 239 60q68 0 111 -31q83 -61 65 -168q-4 -24 -13 -49q-49 -143 -189 -181q-58 -16 -110 -16q-73 0 -135 31q-86 42 -104 103z" />
    <glyph glyph-name="heart" unicode="&#x2665;" horiz-adv-x="1836" 
d="M560 942q19 114 109.5 194.5t199.5 80.5t172 -81q40 -50 48 -112q29 62 84 112q91 81 200 81t173 -80.5t45 -194.5q-31 -184 -288.5 -350.5t-333.5 -308.5q-38 142 -239 308.5t-170 350.5z" />
    <glyph glyph-name="diamond" unicode="&#x2666;" horiz-adv-x="1836" 
d="M1509 850h1v-1h-1q-363 -290 -545 -580q-87 290 -353 580h-1v1h1q364 290 547 580q86 -290 351 -580z" />
    <glyph glyph-name="musicalnote" unicode="&#x266a;" horiz-adv-x="1836" 
d="M1071 1248q82 -50 171 -50t186 50l-94 -90q-55 -35 -105 -35t-94 35l-124 -740q0 -7 -1 -15q-9 -52 -62.5 -88.5t-121.5 -36.5q-67 0 -109 36.5t-33 88.5q8 52 62 88t121 36q46 0 81 -17z" />
    <glyph glyph-name="musicalnotedbl" unicode="&#x266b;" horiz-adv-x="1836" 
d="M881 1248l759 130l-145 -863q-10 -65 -62 -100q-54 -37 -122 -37q-67 0 -109 36.5t-34 88.5q9 52 63 88t121 36q46 0 80 -17l114 678l-596 -100l-129 -773q-11 -65 -63 -100q-54 -37 -122 -37q-67 0 -109 36.5t-33 88.5q8 52 62 88t121 36q46 0 81 -17z" />
    <glyph glyph-name="uni3000" unicode="&#x3000;" 
 />
    <glyph glyph-name="uni3001" unicode="&#x3001;" 
d="M1044 -230l-82 -27q-80 198 -207 344l73 35q131 -151 216 -352z" />
    <glyph glyph-name="uni3002" unicode="&#x3002;" 
d="M1004 223.5q43 -43.5 43 -103.5q0 -61 -43 -104t-104 -43t-104 43t-43 104q0 60 43 103.5t104 43.5t104 -43.5zM900 202q-34 0 -58 -24t-24 -58t24 -58.5t58 -24.5t58 24.5t24 58.5t-24 58t-58 24z" />
    <glyph glyph-name="uni3003" unicode="&#x3003;" 
d="M613 790l-67 43l340 499l67 -43zM913 790l-67 43l340 499l67 -43z" />
    <glyph glyph-name="uni3005" unicode="&#x3005;" 
d="M692 1071q-65 -172 -256 -507l-64 33q258 450 276 602l76 -19q-2 -13 -6 -28h710q-16 -39 -36 -81h1q-60 -124 -149 -244q-123 -166 -273 -270q188 -157 294 -359l-46 -72q-122 244 -334 409q-51 39 -100 72l46 55q38 -26 77 -55q165 108 286 274q66 92 116 190h-618z
" />
    <glyph glyph-name="uni3006" unicode="&#x3006;" 
d="M1029 650q-19 -29 -40 -58q-262 -354 -546 -465l-13 86q263 96 510 436l32 46q-177 133 -340 192l15 75q179 -68 363 -205q177 297 180 649l72 -55q-10 -338 -193 -640q193 -160 301 -366l-46 -73q-110 222 -295 378z" />
    <glyph glyph-name="uni3041" unicode="&#x3041;" 
d="M853 625l-1 106l74 5l2 -105h24q134 0 223 -49q113 -64 141 -195q9 -47 9 -91q0 -79 -30 -151q-49 -114 -160 -142l-23 65q84 20 121 110q23 57 23 118q0 36 -8 75q-23 98 -108 150q-66 40 -165 40q-26 0 -47 -2q-7 -296 -95 -438q23 -41 50 -79l-57 -51q-28 42 -41 66
q-55 -63 -131 -63q-20 0 -42 6q-119 30 -134 201q-2 21 -2 41q0 143 90 245q28 32 60 55q-8 72 -8 146q0 60 5 117q-41 0 -102 1v68q65 -1 109 -1q13 104 43 225l67 -26q-27 -104 -40 -199q252 4 393 42l-4 -69q-137 -37 -396 -40q-6 -63 -6 -125q0 -55 4 -100q65 34 162 44
zM745 131q-79 160 -106 323q-89 -104 -89 -229l1 -1q0 -125 81 -145q12 -4 23 -4q47 0 90 56zM701 502q24 -165 88 -298q54 105 61 344q-86 -9 -149 -46z" />
    <glyph glyph-name="uni3042" unicode="&#x3042;" 
d="M848 805l-2 137l78 5l3 -136q21 1 42 1q175 0 290 -62q148 -82 184 -251q12 -61 12 -119q0 -103 -40 -196q-64 -145 -194 -178l-27 77q110 25 160 145q31 74 31 152q0 47 -11 97q-31 129 -146 197q-92 54 -229 54q-35 0 -72 -3q-10 -388 -127 -572q31 -52 66 -102
l-63 -55q-29 43 -55 88q-82 -92 -176 -92q-25 0 -52 7q-153 38 -172 258q-3 27 -3 54q0 185 120 318q36 40 80 71q-11 93 -11 190q0 77 7 156q-65 0 -136 1v80q76 -1 145 -1q18 140 56 288l70 -27q-36 -134 -54 -261q350 5 524 51l-5 -80q-175 -47 -528 -51q-8 -85 -8 -166
q0 -71 6 -140q102 51 237 65zM704 166q-106 208 -145 436q-17 -15 -32 -32q-105 -121 -105 -283q0 -1 1 -1q0 -163 115 -191q18 -5 35 -5q70 0 131 76zM623 648q33 -214 129 -407q82 157 92 472q-131 -13 -221 -65z" />
    <glyph glyph-name="uni3043" unicode="&#x3043;" 
d="M1291 269q-52 440 -189 623l45 63q160 -229 212 -663zM692 118q57 97 86 225l70 -14q-35 -149 -151 -344q-256 371 -256 741q0 91 16 187l70 -15q-15 -89 -15 -177q0 -311 180 -603z" />
    <glyph glyph-name="uni3044" unicode="&#x3044;" 
d="M1431 354q-68 562 -251 801l50 67q202 -283 271 -845zM623 133q87 143 124 303l73 -15q-47 -192 -191 -429q-330 466 -330 947q0 118 20 236l73 -15q-20 -114 -20 -227q0 -404 251 -800z" />
    <glyph glyph-name="uni3045" unicode="&#x3045;" 
d="M1233 694q19 -64 19 -127q0 -125 -75 -249q-114 -190 -461 -339l-32 65q331 155 429 314q66 106 66 209q0 52 -17 104q-50 148 -212 149h-1q-165 0 -367 -151l-33 63q208 158 409 158h9q208 -4 266 -196zM1034 990l-359 75l13 67l359 -75z" />
    <glyph glyph-name="uni3046" unicode="&#x3046;" 
d="M1333 898q25 -83 25 -165q0 -163 -100 -325q-151 -244 -598 -431l-38 76q440 200 572 408q88 138 88 271q0 68 -23 135q-67 197 -293 198h-1q-226 0 -485 -189l-38 70q272 202 535 202h12q268 -5 344 -250zM1069 1288l-459 93l16 79l459 -93z" />
    <glyph glyph-name="uni3047" unicode="&#x3047;" 
d="M1117 990l-360 75l14 67l359 -75zM837 343q69 -6 175 -176q63 -102 149 -102q51 0 112 35q8 5 26 18l36 -59q-16 -11 -30 -20q-85 -42 -154 -42q-122 0 -196 123q-92 154 -161 154q-13 0 -25 -5l-254 -280l-51 51l732 807l-559 -37l-5 68l697 47l-7 -50z" />
    <glyph glyph-name="uni3048" unicode="&#x3048;" 
d="M1180 1288l-459 93l16 79l459 -93zM803 439q97 -8 236 -226q87 -137 209 -137q73 0 157 48q11 7 23 15l42 -66q-20 -13 -38 -24q-109 -53 -198 -53q-154 0 -250 156q-126 204 -226 204q-21 0 -41 -9l-331 -355l-57 56l981 1053l-750 -48l-6 80l907 60l-9 -61z" />
    <glyph glyph-name="uni3049" unicode="&#x3049;" 
d="M1436 690l-44 -55l-350 315l45 55zM680 390v-390h-60l-14 10l-187 123l-55 37l44 44q109 110 196 198v410q-44 -1 -101 -1q-43 0 -96 1v67q54 -1 96 -1q57 0 101 2v205h76v-201q123 9 224 36l-4 -68q-95 -26 -220 -35v-338l15 16q136 138 343 139h1q206 0 284 -138
q47 -85 47 -176q0 -53 -16 -108q-44 -151 -193 -221l-22 66q120 58 153 188q11 42 11 81q0 83 -48 154q-62 88 -191 88h-33q-156 -13 -273 -116q-35 -31 -78 -72zM604 95v219q-50 -49 -129 -134z" />
    <glyph glyph-name="uni304A" unicode="&#x304a;" 
d="M1604 892l-51 -61l-454 399l51 61zM595 502v-502h-64l-16 11l-249 160l-71 46q30 29 58 57q145 142 262 258v536q-69 -2 -145 -2q-57 0 -118 1v80q61 -1 118 -1q76 0 145 2v266h80v-261q177 12 298 44l-5 -80q-119 -32 -293 -44v-462q21 20 41 40q178 176 447 177h1
q267 0 368 -174q63 -111 63 -229q0 -69 -21 -141q-59 -195 -239 -278l-27 77q160 75 205 245q14 54 14 104q0 108 -64 200q-86 119 -265 119q-22 0 -45 -1q-214 -17 -373 -153q-47 -40 -105 -95zM515 105v320q-87 -85 -193 -195z" />
    <glyph glyph-name="uni304B" unicode="&#x304b;" 
d="M1592 892l-51 -61l-454 399l51 61zM587 1097q154 0 260 -19q268 -50 319 -324q19 -104 19 -200q0 -158 -52 -295q-84 -220 -214 -253l-27 77q110 25 180 220q40 111 40 239q0 96 -22 202q-53 246 -320 268q-61 5 -136 5q-32 0 -67 -1l-256 -1029l-78 19l251 1006
q-125 -6 -277 -23l5 86q161 16 292 20l87 348l75 -29z" />
    <glyph glyph-name="uni304C" unicode="&#x304c;" 
d="M1495 892l-51 -61l-454 399l51 61zM1465 1084l-53 -43l-157 197l40 58zM1589 1179l-53 -43l-157 197l40 58zM590 1097q154 0 260 -19q268 -50 319 -324q19 -104 19 -200q0 -158 -52 -295q-84 -220 -214 -253l-27 77q110 25 180 220q40 111 40 239q0 96 -22 202
q-53 246 -320 268q-61 5 -136 5q-32 0 -67 -1l-256 -1029l-78 19l251 1006q-125 -6 -277 -23l5 86q161 16 292 20l87 348l75 -29z" />
    <glyph glyph-name="uni304D" unicode="&#x304d;" 
d="M1096 999q175 17 274 43l-5 -80q-89 -24 -241 -40l114 -309l-48 -43q-34 36 -74 62q-80 51 -181 60q-28 2 -55 2q-129 0 -215 -56q-105 -68 -117 -208q-2 -18 -2 -34q0 -118 79 -193q89 -87 255 -101q29 -2 56 -2q132 0 244 55l28 -87q-127 -53 -269 -53q-33 0 -67 3
q-201 18 -307 131q-93 98 -93 244q0 21 2 43q15 175 141 267q105 76 263 76q31 0 64 -3q85 -7 182 -52l-74 191q-210 -18 -521 -23v80q288 5 491 20l-75 193q-209 -18 -516 -23v80q285 5 486 20l-50 130l71 39l60 -162q175 17 274 43l-5 -80q-89 -24 -241 -40z" />
    <glyph glyph-name="uni304E" unicode="&#x304e;" 
d="M1329 1084l-53 -43l-157 197l40 58zM1453 1179l-53 -43l-157 197l40 58zM1041 922l114 -309l-48 -43q-34 36 -74 62q-80 51 -181 60q-28 2 -55 2q-129 0 -215 -56q-105 -68 -117 -208q-2 -18 -2 -34q0 -118 79 -193q89 -87 255 -101q29 -2 56 -2q132 0 244 55l28 -87
q-127 -53 -269 -53q-33 0 -67 3q-201 18 -307 131q-93 98 -93 244q0 21 2 43q15 175 141 267q105 76 263 76q31 0 64 -3q85 -7 182 -52l-74 191q-210 -18 -521 -23v80q288 5 491 20l-75 193q-209 -18 -516 -23v80q285 5 486 20l-50 130l71 39l60 -162q80 8 144 17l30 -74
q-64 -11 -146 -20l72 -193q124 12 209 29l39 -71q-85 -21 -220 -35z" />
    <glyph glyph-name="uni304F" unicode="&#x304f;" 
d="M722 706l454 -642l-56 -60l-497 702l497 702l56 -60z" />
    <glyph glyph-name="uni3050" unicode="&#x3050;" 
d="M1182 884l-53 -43l-157 197l40 58zM1306 979l-53 -43l-157 197l40 58zM592 706l454 -642l-56 -60l-497 702l497 702l56 -60z" />
    <glyph glyph-name="uni3051" unicode="&#x3051;" 
d="M1283 830q3 -69 3 -135q0 -194 -26 -365q-35 -231 -151 -365q-110 -127 -286 -127h-21l-3 94q26 -3 50 -3q136 0 218 110q96 129 123 328q17 134 17 292q0 78 -4 162q-189 -19 -558 -24v80q367 5 556 24q-7 201 -19 460l83 6q12 -255 16 -457q122 15 205 37l-5 -80
q-80 -22 -198 -37zM314 651q0 257 106 663l70 -27q-106 -396 -106 -637q0 -203 38 -387v-1q26 150 77 267l63 -55q-74 -154 -92 -432l-53 -46q-103 335 -103 655z" />
    <glyph glyph-name="uni3052" unicode="&#x3052;" 
d="M1636 1179l-53 -43l-157 197l40 58zM1512 1084l-53 -43l-157 197l40 58zM1283 830q3 -69 3 -135q0 -194 -26 -365q-35 -231 -151 -365q-110 -127 -286 -127h-21l-3 94q26 -3 50 -3q136 0 218 110q96 129 123 328q17 134 17 292q0 78 -4 162q-189 -19 -558 -24v80
q367 5 556 24q-7 201 -19 460l83 6q12 -255 16 -457q122 15 205 37l-5 -80q-80 -22 -198 -37zM314 651q0 257 106 663l70 -27q-106 -396 -106 -637q0 -203 38 -387v-1q26 150 77 267l63 -55q-74 -154 -92 -432l-53 -46q-103 335 -103 655z" />
    <glyph glyph-name="uni3053" unicode="&#x3053;" 
d="M371 316q-37 79 -37 167q0 125 74 266l58 -59q-62 -109 -62 -205q0 -76 39 -144q86 -156 291 -173q40 -3 93 -3q213 0 626 55l12 -83q-376 -50 -606 -50q-92 0 -160 8q-239 28 -328 221zM758 1002l-47 85q94 41 221 103h-543v80h733v-80q-218 -106 -364 -188z" />
    <glyph glyph-name="uni3054" unicode="&#x3054;" 
d="M1376 1084l-53 -43l-157 197l40 58zM1500 1179l-53 -43l-157 197l40 58zM336 316q-37 79 -37 167q0 125 74 266l58 -59q-62 -109 -62 -205q0 -76 39 -144q86 -156 291 -173q40 -3 93 -3q213 0 626 55l12 -83q-376 -50 -606 -50q-92 0 -160 8q-239 28 -328 221zM723 1002
l-47 85q94 41 221 103h-543v80h733v-80q-218 -106 -364 -188z" />
    <glyph glyph-name="uni3055" unicode="&#x3055;" 
d="M1051 1098q182 17 284 44l-5 -80q-92 -25 -251 -41l151 -408l-48 -43q-34 36 -74 62q-80 51 -181 60q-28 2 -55 2q-129 0 -215 -56q-105 -68 -117 -208q-2 -18 -2 -34q0 -118 79 -193q89 -87 255 -101q29 -2 56 -2q132 0 244 55l28 -87q-127 -53 -269 -53q-33 0 -67 3
q-201 18 -307 131q-93 98 -93 244q0 21 2 43q15 175 141 267q105 76 263 76q31 0 64 -3q85 -7 182 -52l-112 290q-208 -17 -510 -22v80q280 5 480 19l-117 301l71 39z" />
    <glyph glyph-name="uni3056" unicode="&#x3056;" 
d="M983 1021l151 -408l-48 -43q-34 36 -74 62q-80 51 -181 60q-28 2 -55 2q-129 0 -215 -56q-105 -68 -117 -208q-2 -18 -2 -34q0 -118 79 -193q89 -87 255 -101q29 -2 56 -2q132 0 244 55l28 -87q-127 -53 -269 -53q-33 0 -67 3q-201 18 -307 131q-93 98 -93 244q0 21 2 43
q15 175 141 267q105 76 263 76q31 0 64 -3q85 -7 182 -52l-112 290q-208 -17 -510 -22v80q280 5 480 19l-117 301l71 39l123 -333q85 8 152 18l24 -76q-65 -11 -148 -19zM1308 1084l-53 -43l-157 197l40 58zM1432 1179l-53 -43l-157 197l40 58z" />
    <glyph glyph-name="uni3057" unicode="&#x3057;" 
d="M881 3h-15q-311 0 -389 255q-58 189 -58 415q0 86 9 178q30 332 92 563l91 -6q-81 -239 -105 -592q-6 -85 -6 -161q0 -239 59 -388q70 -180 293 -180q20 0 42 2q257 18 424 320l63 -47q-177 -353 -500 -359z" />
    <glyph glyph-name="uni3058" unicode="&#x3058;" 
d="M1201 1084l-53 -43l-157 197l40 58zM1325 1179l-53 -43l-157 197l40 58zM881 3h-15q-311 0 -389 255q-58 189 -58 415q0 86 9 178q30 332 92 563l91 -6q-81 -239 -105 -592q-6 -85 -6 -161q0 -239 59 -388q70 -180 293 -180q20 0 42 2q257 18 424 320l63 -47
q-177 -353 -500 -359z" />
    <glyph glyph-name="uni3059" unicode="&#x3059;" 
d="M871 496v39q-18 47 -48 76q-37 34 -86 34q-50 0 -84.5 -35t-34.5 -93q0 -59 34.5 -94.5t84.5 -35.5q49 0 86 34q30 29 48 75zM863 1105q-4 120 -11 256l83 6q6 -136 10 -258q46 2 93 2q259 0 527 -52l-33 -67q-243 43 -478 43q-53 0 -106 -2q7 -224 7 -392
q0 -281 -30 -436.5t-143 -261t-289 -105.5h-21l-3 94q26 -3 50 -3q136 0 240.5 106.5t111.5 325.5q-54 -50 -134 -50q-81 0 -138 56.5t-57 148.5t57 149t138 57q80 0 127 -43q6 -6 12 -14q-2 155 -10 364q-309 -24 -605 -125l-26 74q307 105 628 127z" />
    <glyph glyph-name="uni305A" unicode="&#x305a;" 
d="M1426 1084l-53 -43l-157 197l40 58zM1550 1179l-53 -43l-157 197l40 58zM885 496v39q-18 47 -48 76q-37 34 -86 34q-50 0 -84.5 -35t-34.5 -93q0 -59 34.5 -94.5t84.5 -35.5q49 0 86 34q30 29 48 75zM1068 1035q-53 0 -106 -2q7 -224 7 -392q0 -281 -26.5 -440t-143 -261
t-292.5 -102h-21l-3 94q26 -3 50 -3q136 0 240.5 104.5t111.5 327.5q-54 -50 -134 -50q-81 0 -138 56.5t-57 148.5t57 149t138 57q80 0 127 -43q6 -6 12 -14q-2 155 -10 364q-309 -24 -605 -125l-26 74q307 105 628 127q-4 120 -11 256l83 6q6 -136 10 -258q46 2 93 2
q115 0 232 -10l29 -78q-124 12 -245 12z" />
    <glyph glyph-name="uni305B" unicode="&#x305b;" 
d="M527 885q-164 -46 -266 -81l-26 74q115 39 292 87v418h79v-401q180 29 429 29q47 0 94 -2q-7 182 -34 343l73 36q31 -177 37 -382q178 -12 360 -47l-33 -67q-165 29 -325 39v-23q0 -311 -51 -683l-67 -2q-33 195 -95 377l75 25q24 -71 44 -145q19 204 19 388q0 33 -1 66
q-39 1 -78 1q-258 0 -447 -32v-642q19 -160 179 -165l597 -1v-83h-598q-237 0 -257 251v622z" />
    <glyph glyph-name="uni305C" unicode="&#x305c;" 
d="M1446 1084l-53 -43l-157 197l40 58zM1570 1179l-53 -43l-157 197l40 58zM521 885q-164 -46 -266 -81l-26 74q115 39 292 87v418h79v-401q180 29 429 29q47 0 94 -2q-7 182 -34 343l73 36q31 -177 37 -382q178 -12 360 -47l-33 -67q-165 29 -325 39v-23q0 -311 -51 -683
l-67 -2q-33 195 -95 377l75 25q24 -71 44 -145q19 204 19 388q0 33 -1 66q-39 1 -78 1q-258 0 -447 -32v-642q19 -160 179 -165l597 -1v-83h-598q-237 0 -257 251v622z" />
    <glyph glyph-name="uni305D" unicode="&#x305d;" 
d="M1131 1251l-650 -48l-6 80l807 60l-9 -61l-493 -504l728 154l16 -79l-391 -83q-179 -80 -248 -193q-48 -78 -48 -165q0 -41 11 -83q33 -134 151 -192q80 -39 212 -39q64 0 140 9l13 -82q-86 -13 -160 -13q-162 0 -265 63q-152 91 -178 245q-7 40 -7 78q0 111 56 213
q32 58 87 109l-606 -128l-16 79l364 77z" />
    <glyph glyph-name="uni305E" unicode="&#x305e;" 
d="M1451 1084l-53 -43l-157 197l40 58zM1575 1179l-53 -43l-157 197l40 58zM1080 1251l-650 -48l-6 80l807 60l-9 -61l-493 -504l728 154l16 -79l-391 -83q-179 -80 -248 -193q-48 -78 -48 -165q0 -41 11 -83q33 -134 151 -192q80 -39 212 -39q64 0 140 9l13 -82
q-86 -13 -160 -13q-162 0 -265 63q-152 91 -178 245q-7 40 -7 78q0 111 56 213q32 58 87 109l-606 -128l-16 79l364 77z" />
    <glyph glyph-name="uni305F" unicode="&#x305f;" 
d="M1085 21q-239 28 -328 221l-6 12l62 45q7 -16 16 -32q86 -156 291 -173q50 -4 109 -4q135 0 319 22l6 -83q-160 -17 -291 -17q-97 0 -178 9zM583 1009l-254 -1022l-78 19l249 1001q-58 -1 -122 -1t-133 1v80q75 -1 144 -1t131 1l89 356l75 -29l-81 -324q246 10 383 47
l-5 -80q-141 -38 -398 -48zM897 742v80q157 30 291 30t245 -30l5 -80q-112 30 -248 30q-135 0 -293 -30z" />
    </font>
</defs>
</svg>
