<?xml version="1.0" standalone="no"?>
<!DOCTYPE svg PUBLIC "-//W3C//DTD SVG 1.1//EN" "http://www.w3.org/Graphics/SVG/1.1/DTD/svg11.dtd" >
<svg xmlns="http://www.w3.org/2000/svg" xmlns:xlink="http://www.w3.org/1999/xlink" version="1.1">
<metadata>
Created by FontForge 20170731 at Mon Jul  1 21:03:24 2013
 By Aleksey,,,
2013 Iconian Fonts - www.iconian.com
</metadata>
<defs>
<font id="AirstrikeChrome" horiz-adv-x="787" >
  <font-face 
    font-family="Airstrike Chrome"
    font-weight="400"
    font-stretch="normal"
    units-per-em="1000"
    panose-1="0 0 0 0 0 0 0 0 0 0"
    ascent="800"
    descent="-200"
    x-height="544"
    cap-height="544"
    bbox="-185 -173 1378 735"
    underline-thickness="50"
    underline-position="-175"
    unicode-range="U+0020-20AC"
  />
<missing-glyph horiz-adv-x="500" 
 />
    <glyph glyph-name=".notdef" horiz-adv-x="500" 
 />
    <glyph glyph-name=".null" horiz-adv-x="0" 
 />
    <glyph glyph-name="nonmarkingreturn" horiz-adv-x="500" 
 />
    <glyph glyph-name="space" unicode=" " horiz-adv-x="279" 
 />
    <glyph glyph-name="space" unicode="&#xa0;" horiz-adv-x="279" 
 />
    <glyph glyph-name="FL0021h" unicode="!" horiz-adv-x="280" 
d="M174 7q-17 -7 -36 -7q-21 0 -32 7h68zM237 530h192l-3 -8h-192zM111 186h192l-5 -15h-192zM220 483h192l-9 -24h-192zM198 424h192l-10 -27h-192zM93 83q15 25 44 43h94q13 -13 13 -32q0 -3 -0.5 -6t-0.5 -5h-150zM176 364h192l-11 -30h-192zM237 67q-11 -28 -38 -47
h-108q-8 9 -8 27v11t2 9h152zM155 305h192l-13 -34h-192zM133 245h192l-14 -37h-192zM69 47q0 -16 5 -26h-17q5 -4 10 -7l10 -6l11 -10q25 -16 42 -22.5t28 -6.5q10 0 20 1.5t20 6.5l-3 12h27q17 11 28 25.5t17 28.5l-6 9h13v16q0 2 0.5 3t0.5 3q0 24 -19 43l-6 6q-3 5 -6 9
t-7 8h88l13 37l23 59l-4 4h4l22 56l-7 7h8l20 52l-11 11h14l19 49l-13 13h17l18 46l-17 17h22l12 30l-18 17l3 6h-222l-15 -36h8l11 -11h-21l-21 -52h8l7 -7h-16l-22 -55h8l5 -5h-13l-23 -58h8l1 -1h-7l-25 -62h2l-25 -63h2l-13 -37h7l17 -17h21q-16 -10 -29.5 -23
t-22.5 -27l4 -9h-8q-5 -14 -6 -20.5t-1 -13.5z" />
    <glyph glyph-name="FL0022h" unicode="&#x22;" horiz-adv-x="358" 
d="M444 531q9 0 16.5 -2.5t12.5 -6.5h-65q18 9 36 9zM299 531q9 0 16.5 -2.5t12.5 -6.5h-65q18 9 36 9zM370 340q-10 0 -15.5 6.5t-8.5 17.5h72q-12 -11 -23 -17.5t-17 -6.5h-8zM225 340q-10 0 -15.5 6.5t-8.5 17.5h72q-12 -11 -23 -17.5t-17 -6.5h-8zM481 459h-125l3 8
q3 8 8 16h121q-2 -11 -4 -16zM336 459h-125l3 8q3 8 8 16h121q-2 -11 -4 -16zM343 397q0 8 0.5 14.5t1.5 12.5h123q-3 -7 -8 -13.5t-10 -13.5h-107zM198 397q0 8 0.5 14.5t1.5 12.5h123q-6 -14 -18 -27h-107zM444 545q-24 0 -49 -13l5 -24h6l11 -11h-41l-11 11h6
q-20 15 -40 26t-32 11q-24 0 -49 -13l5 -24h6l11 -11h-58q-4 -7 -7.5 -13.5t-5.5 -11.5l-11 -27h8l7 -7h-18q-3 -18 -3 -42l13 -13h4l5 -5h-24q5 -20 13 -33t20 -18l10 -9q5 -4 9.5 -6.5t10.5 -2.5h8q8 0 27 13t42 33l-11 11h18l1 1q5 -15 12 -25.5t18 -14.5l10 -9
q5 -4 9.5 -6.5t10.5 -2.5h8q8 0 27 13t42 33l-11 11h20q6 8 13 18.5t16 30.5l-13 13h16l5 14h1q2 7 7 32l-17 17h23l-17 17h6q-20 15 -40 26t-32 11zM342 383h3l5 -5h-11q1 1 3 5z" />
    <glyph glyph-name="FL0023h" unicode="#" horiz-adv-x="779" 
d="M162 7h192l-2 -7h-192zM429 0l2 7h192l-2 -7h-192zM811 522h-192l3 8h192zM542 522h-192l3 8h192zM605 483h192l-9 -24h-192zM336 483h192l-9 -24h-192zM453 67h192l-17 -47h-192zM184 67h192l-17 -47h-192zM870 397h-617l29 27h617zM457 289l-7 -18h-192l7 18h-126
l17 16h617l-17 -16h-30l-7 -18h-192l7 18h-77zM218 364h617l-32 -30h-617zM800 208h-617l31 29h32l3 8h192l-3 -8h77l3 8h192l-3 -8h124zM382 83h-192l7 19h-126l25 24h617l-25 -24h-30l-7 -19h-192l7 19h-77zM160 186h617l-43 -40h-617zM933 438h-115l15 36l-17 17h22
l12 30l-18 17l3 6h-222l-15 -36h8l11 -11h-21l-21 -52h8l7 -7h-41l15 36l-17 17h22l12 30l-18 17l3 6h-222l-15 -36h8l11 -11h-21l-21 -52h8l7 -7h-44l-58 -55h10l5 -5h-22l-61 -58h10l1 -1h-12l-46 -44h10l17 -17h106v-1h2l-3 -6h-28l-60 -57l-57 -54h-1l-54 -52h10l17 -17
h106v-2h1l-17 -48h-2l-10 -35h7l17 -17h216l7 26l1 3l20 54l7 19h22v-2h1l-17 -48h-2l-10 -35h7l17 -17h216l7 26l1 3l20 54l7 19h28l48 46h-1l64 60h1l54 51l-18 18l5 5h-116l3 7h28l40 38l-7 7h14l55 52l-11 11h22l52 49l-18 18zM484 258h22v-1h2l-3 -6h-24z" />
    <glyph glyph-name="FL0024h" unicode="$" horiz-adv-x="692" 
d="M527 662h126l-5 -14h-126zM505 602h126l-6 -17h-126zM246 -112h126l-10 -29h-126zM419 364h126l-10 -30h-126zM354 186h126l-14 -40h-126zM840 530q-2 -2 -2.5 -4t-2.5 -4h-541q19 8 36 8h150l4 13h126l-4 -13h234zM173 364h193q-1 -4 -1 -9v-5q0 -1 4 -4.5t6 -5.5
q3 -3 9 -6h-211v19v11zM268 -52h126l-19 -53h-126zM519 174q0 4 -2 12h188q1 -4 1 -12v-6q0 -5 -0.5 -11t-1.5 -11h-187q2 5 2 16v12zM397 -42h-126l16 42h-232q2 4 4 7h540q-15 -7 -34 -7h-152zM805 483l-10 -12l-10 -12h-567q5 6 10.5 12t10.5 12h566zM725 397h-543
q3 7 6 13.5t7 13.5h557zM651 305q8 -8 15.5 -16t12.5 -18h-506v24v10h478zM692 245q4 -9 6 -18.5t4 -18.5h-500q-19 11 -25 37h515zM699 126q-4 -11 -9 -21.5t-11 -21.5h-566q11 14 20 25t16 18h550zM669 67q-20 -29 -47 -47h-555q7 10 15.5 22t18.5 25h568zM842 544h-207
l-8 7l1 3h25l13 39l-18 17l2 6h-155l-15 -45h7l14 -14h-28l-4 -13h-139q-23 0 -48 -12l5 -24h6l11 -11h-73q-2 -2 -3 -4.5t-2 -3.5q-1 -2 -3 -4v1q-4 -4 -13.5 -16t-20.5 -25h9l7 -7h-19q-5 -10 -12 -25l-14 -30h8l5 -5h-14v-58h6l1 -1h-7v-60h-1q13 -49 39 -65h3l8 -8
q2 -2 5 -4.5t6 -4.5h117l-13 -37h-180q-10 -10 -25.5 -29t-33.5 -42h1q-11 -16 -25 -35.5t-19 -27.5h1q-6 -10 -10 -20h8l17 -17h202l-9 -25h2l-15 -42h-1l-19 -57h7l17 -17h149l12 36l27 75l-1 1l12 29h145q20 0 43 10l-2 10h19q31 21 53 52l-6 11h14q6 11 12 23t11 28
l-9 12h14q1 8 2 16.5t1 16.5v6q0 4 -0.5 9t-2.5 14h1q-2 14 -5 27.5t-8 24.5l-11 11h7q-18 30 -33 45q-7 10 -13.5 17.5t-12.5 13.5l-7 3h-85l13 36l-11 11h181l49 49l-13 13h25q2 3 6.5 8t6.5 8q6 8 9 11l-8 19l-14 14l-2 3h51q4 4 6 8l1 1q0 1 1 2l-8 19l-14 14zM503 634
h7l17 -17h148l13 36l-18 18l2 5h-155zM400 355l-11 11h17l-10 -28v1l1 5h-1q1 2 1.5 4.5t2.5 6.5z" />
    <glyph glyph-name="FL0025h" unicode="%" horiz-adv-x="820" 
d="M708 7q-20 -7 -41 -7h-50q-37 0 -62 7h153zM302 522q21 8 40 8h66q31 0 60 -8h-166zM109 7h171l-8 -7h-171zM742 530h173l-10 -8h-173zM189 397q2 8 4 13q1 4 5 14h112q-2 -3 -3.5 -6t-3.5 -5l-6 -16h-108zM527 408q0 -3 -2 -11h-114l3 6q1 2 1 15v6h114q-1 -4 -1 -8
t-1 -8zM685 483h173l-29 -24h-173zM497 146q8 22 21 40h136q-12 -2 -25.5 -13t-21.5 -25l-1 -2h-109zM614 424h172l-33 -27h-172zM832 186q3 -19 -1 -40h-113v7q0 13 -5 22t-21 11h140zM541 364h172l-36 -30h-172zM470 305h172l-41 -34h-172zM397 245h172l-45 -37h-172z
M326 186h172l-49 -40h-172zM220 459q5 6 10.5 12t11.5 12h277q3 -5 4.5 -11t3.5 -13h-307zM462 305q-28 -25 -62 -34h-145q-18 5 -32 12.5t-23 21.5h262zM253 126h172l-52 -43h-172zM182 67h171l-57 -47h-171zM511 364q-9 -17 -20 -30h-303q-3 13 -3 30h121q10 -15 24 -15
h26q10 0 30 15h125zM536 208q21 23 44 37h216q23 -15 31 -37h-291zM825 120q-8 -20 -19 -37h-316q-2 19 1 38v5h109q0 -14 10.5 -28t23.5 -14h26q9 0 25.5 12t24.5 26q2 2 3 4h114zM793 67q-22 -28 -55 -47h-213q-26 16 -33 47h301zM692 508h11l11 -11h-33l-63 -52h11l7 -7
h-28l-49 -41q0 2 0.5 5t4.5 13l-13 13h10q-3 14 -6.5 25t-8.5 21l-13 13q-2 2 -2.5 4.5t-2.5 5.5h-37l3 15l-18 17l1 5q-31 10 -69 10h-66q-11 0 -24 -2.5t-24 -7.5l5 -26h6l11 -11h-80q-5 -5 -10.5 -11.5t-10.5 -11.5q-2 -2 -3.5 -4t-3.5 -4l10 -21h5l7 -7h-41
q-2 -3 -3.5 -7.5l-2.5 -7.5q0 1 0.5 0.5t1.5 -3.5l-2 -6l-1 -1l-2 2q-3 -8 -4.5 -14t-3.5 -11q0 -1 -0.5 -3.5t-0.5 -3.5h6l5 -5h-11q0 -18 1.5 -32t3.5 -26h6l1 -1h-9q23 -35 46 -50l2 -1q22 -22 50 -28h97l-48 -40h-1l-83 -68h2l-76 -63l-58 -48h-1l-17 -15l-23 -20h11
l17 -17h204l23 20l76 63h1l76 63h2l2 2q-1 -5 -1 -10v-9v-17h-1q0 -2 0.5 -3.5t0.5 -3.5t0.5 -3t0.5 -2h1q7 -23 18 -39t25 -24h2l6 -6q6 -7 14 -11h15l12 -12q16 -5 33 -6.5t35 -1.5h50q25 0 45 8l-3 12h32q38 22 61 51l-6 12h16q8 12 13 22.5t10 21.5v1l7 20l-1 1
q2 11 2.5 18t0.5 13v10t-1 9l-9 9h9q-12 30 -29 47l-2 2q-7 11 -15.5 18.5t-17.5 14.5h-153l46 37l-7 7h15l63 52l-11 11h26l59 49l-13 13h28l56 46l-17 17h38l38 30l-18 18l6 5h-219zM324 366l7 19q2 4 3 5q2 3 7 11.5t9 13.5l-13 13h64v-19l-13 -26h8l5 -5h-20
q-20 -15 -25 -15h-26q-3 0 -7 3h1zM696 128q-7 -12 -18.5 -21t-17.5 -9h-26h-1q-2 4 -2 8v9h2l4 8q6 11 17.5 20.5t21.5 11.5l-1 22h12v-5q6 -2 8 -3l7 -7q2 -6 2 -9v-13q-3 -6 -5 -8.5t-3 -3.5zM340 346q-3 1 -7 7zM520 366h2l-1 -1zM557 379l1 -1h-1v1zM183 423
q-1 -1 -1 -2q0 1 1 2z" />
    <glyph glyph-name="FL0026h" unicode="&#x26;" horiz-adv-x="832" 
d="M218 0q-59 0 -88 7h465q-35 -7 -93 -7h-284zM777 530q-4 -6 -6 -8h-445q17 4 38 6t47 2h366zM177 364h207l-11 -30h-202zM177 271q-7 13 -7 34h193l-12 -34h-174zM742 186q-2 -11 -5.5 -21t-7.5 -19h-221q5 3 10 6.5t8 5.5l1.5 2t2.5 3l2 5q1 2 3 7t4 11h203zM97 146
q3 8 8 18.5t10 21.5h204l-9 -28q2 -2 4 -5.5t4 -6.5h-221zM743 483q-5 -6 -9.5 -12t-9.5 -12h-505q9 12 21 24h503zM694 424q-7 -7 -13 -13.5t-13 -13.5h-478l5 12q1 5 5 15h494zM434 305h456l-36 -34h-460zM129 208q11 13 22.5 21.5t21.5 15.5h168l-10 -29l33 29h462
l-39 -37h-658zM79 83q3 17 11 43h632q-5 -12 -10.5 -23t-10.5 -20h-622zM77 67h615q-21 -31 -55 -47h-541q-19 12 -19 41v6zM779 544h-368q-29 0 -52 -2t-40 -6l2 -28h6l11 -11h-104q-11 -11 -22 -23.5t-22 -28.5h9l7 -7h-15q-2 -5 -3.5 -9t-3.5 -9q-1 -2 -1 -3t-1 -3
l-13 -31h8l5 -5h-17l-12 -58h7l1 -1h-5q0 -20 1.5 -34t6.5 -22l7 -4h-4l-4 -4l-2 -1q1 1 -3 -1q-9 -7 -20 -15.5t-22 -22.5l8 -15h-18q-6 -11 -11.5 -25t-10.5 -25l6 -10h-10q-5 -20 -9 -33.5t-6 -21.5l3 -4h-5v-20q0 -18 6 -31.5t22 -23.5h3l8 -8q3 -3 11 -9h20l12 -12
q19 -5 41.5 -6.5t51.5 -1.5h284q62 0 97 7l-1 13h42q34 16 68 63v0q0 1 1 1q1 2 1.5 2.5t1.5 2.5h-1q6 11 13 26t15 33l-2 1q11 28 16 46l-11 13h50l62 59l-4 4h9l59 56l-18 18l5 5h-495l-35 -29l3 6l-7 7h9l20 52l-11 11h284l17 17q3 4 12 13l-8 19l-13 13h49l12 16
q2 3 5 6t5 6l-9 18l-13 12l-2 5h48q5 5 10 13l-9 17l-13 12zM353 177h167l-2 -6q-1 -1 -1 -2l-2 -2l-4 -3q1 1 -4.5 -2t-12.5 -7l4 -15h-157z" />
    <glyph glyph-name="FL0027h" unicode="'" horiz-adv-x="213" 
d="M299 531q9 0 16.5 -2.5t12.5 -6.5h-65q18 9 36 9zM225 340q-10 0 -15.5 6.5t-8.5 17.5h72q-12 -11 -23 -17.5t-17 -6.5h-8zM336 459h-125l3 8q3 8 8 16h121q-2 -11 -4 -16zM198 397q0 8 0.5 14.5t1.5 12.5h123q-6 -14 -18 -27h-107zM299 545q-24 0 -49 -13l5 -24h6
l11 -11h-58q-4 -7 -7.5 -13.5t-5.5 -11.5l-11 -27h8l7 -7h-18q-3 -18 -3 -42l13 -13h4l5 -5h-24q5 -20 13 -33t20 -18l10 -9q5 -4 9.5 -6.5t10.5 -2.5h8q8 0 27 13t42 33l-11 11h18q19 22 31 49l-13 13h16l5 14h1q2 7 7 32l-17 17h23l-17 17h6q-20 15 -40 26t-32 11z" />
    <glyph glyph-name="FL0028h" unicode="(" horiz-adv-x="442" 
d="M398 7q-5 -11 -10.5 -22t-10.5 -22q-23 5 -59 14t-72 30h152zM327 522q23 14 46 21h212q-5 -5 -8.5 -10.5t-8.5 -10.5h-241zM183 364h195q-11 -15 -18 -30h-192zM204 397q5 7 9.5 13.5t9.5 13.5h253q-6 -6 -9 -8h-17q-11 0 -21.5 -5.5t-20.5 -13.5h-204zM276 483h260
q-6 -6 -11.5 -12t-11.5 -12h-261zM145 271q2 8 4.5 16.5t6.5 17.5h190q-1 -2 -1 -4q0 -1 -1 -3l-8 -24q-1 -1 -1 -3h-190zM135 208q0 17 3 37h188q-6 -17 -6 -24v-1q0 -8 1 -12h-186zM330 186q5 -11 13 -21t16 -19h-218q-2 9 -3 19t-2 21h194zM420 67q-2 -10 -6.5 -22
t-9.5 -25h-178q-28 19 -49 47h243zM379 126q14 -14 25.5 -24t17.5 -17v-2h-256q-11 18 -19 43h232zM325 508h5l11 -11h-71l-52 -52h10l7 -7h-19q-7 -7 -11.5 -14.5t-9.5 -15.5q-1 -2 -2 -2.5t-2 -2.5l11 -20h5l5 -5h-38l-29 -58h8l1 -1h-7q-8 -20 -11 -29t-5 -16l11 -15h-17
q-2 -13 -3 -26.5t-1 -25.5l7 -7h-7q1 -19 2.5 -36.5t5.5 -31.5h2q8 -30 20 -51h-2q14 -20 27 -34.5t25 -25.5h-9q5 -3 10.5 -6.5t10.5 -5.5l11 -11q32 -19 59 -31t49.5 -19.5t40 -11t30.5 -6.5q3 6 7.5 16.5l7.5 17.5h1l17 34l-1 1q6 14 10 26t6 20l-6 7h8v17l-3 3
q-4 4 -6 7l-8 7v4q-4 4 -8.5 9.5t-11.5 10.5q-3 4 -7 7.5t-6 5.5q-3 3 -7 6.5t-8 7.5l-6 2q-1 0 -1 1q-7 8 -12.5 15.5t-8.5 15.5l-6 6h1q-3 12 -3.5 16t-0.5 7v1q0 3 2.5 12t7.5 23l-4 4h9q0 5 -1 6h-1l8 24q3 3 3.5 6.5t0.5 5.5q0 1 0.5 7t0.5 7l-7 7h17q5 11 13 24t19 28
l-11 11h23q10 8 20 13.5t19 5.5h20q7 5 15.5 13t17.5 17l-13 13h28q3 3 7 7.5t7 7.5l31 31l-17 17h27q6 6 7.5 8.5t3.5 4.5l1 1q2 3 8 11t14 18l-18 18q1 2 2 2.5t2 2.5h-241q-32 -10 -55 -24z" />
    <glyph glyph-name="FL0029h" unicode=")" horiz-adv-x="441" 
d="M237 522q2 5 5 10.5t5 10.5h43q14 -4 29.5 -9t31.5 -12h-114zM211 459q2 5 4 11t5 13h196q7 -6 13 -11.5t12 -12.5h-230zM296 334q-7 13 -20 30h212q2 -8 2.5 -15t1.5 -15h-196zM493 305q0 -8 -1 -16.5t-3 -17.5h-187l3.5 14t2.5 9q0 2 -0.5 5t-0.5 6h186zM245 397
q-20 16 -36 27h257q3 -7 6.5 -13.5t5.5 -13.5h-233zM484 245q-3 -9 -6 -18.5t-7 -18.5h-190q1 2 3 8l6 17q2 8 4 12h190zM462 186q-5 -11 -10 -20.5t-10 -19.5h-197q15 18 26 40h191zM430 126q-7 -11 -14.5 -21.5t-15.5 -21.5h-257l18 15h17q12 0 25 7.5t25 20.5h202zM323 7
q-27 -20 -56.5 -32t-58.5 -12h-170q8 12 17 22.5t17 21.5h251zM387 67q-11 -14 -23 -25l-24 -22h-257q11 12 21.5 24t21.5 23h261zM236 508h4l11 -11h-40q-2 -3 -3 -7t-3 -7q0 4 2 -4l-2 -6l-4 1q-1 -3 -1.5 -6.5t-1.5 -5.5l12 -17h4l7 -7h-60q6 -4 11.5 -7.5t10.5 -7.5
l9 -8q17 -12 31 -21t24 -16q13 -17 22.5 -30t14.5 -22l10 -6h1l1 -1h-3v-12q0 -3 0.5 -5t0.5 -3v-4h-1q-1 -2 -2 -8t-3 -11t-3 -10.5t-2 -8.5h1q-5 -11 -7 -18t-4 -13l-2 -6l-13 -26h1q-8 -13 -16.5 -26.5t-19.5 -27.5h-1q-12 -13 -23.5 -20.5t-20.5 -7.5h-21l-52 -43h3
q-10 -11 -21.5 -24t-21.5 -24l-3 -3q0 -1 -0.5 -1.5l-0.5 -0.5l-3.5 -3.5t-3.5 -6.5q-3 -2 -12 -14t-29 -43h8l17 -17h190q32 0 63 12.5t59 33.5l-4 11h18q13 11 26 23.5t25 27.5l-6 12h17q8 11 16.5 22.5t16.5 25.5l-8 15h18q5 10 10.5 20.5t12.5 26.5l-10 15h16
q5 11 8.5 21.5t5.5 14.5v1l1 1q0 3 1 5l-10 16l-4 4h20v14q2 8 3 15t1 16l-17 17v1h17q-2 13 -3 25.5t-4 26.5l-11 11h7q-6 18 -8.5 24t-4.5 10l-1 1q-4 8 -6 14l-13 13h5l-1 1l-4 4l-4 4v1h-1l-3.5 3.5l-3.5 3.5h3q-17 20 -25.5 28.5l-13.5 13.5l-10 10h-47l4 13l-17 17
l1 5q-23 10 -40 16t-29 9h-56l-7.5 -15t-7.5 -16t-3 -10q0 -2 6 6zM204 480l0.5 1t0.5 2l-0.5 -1t-0.5 -2zM228 535v1v0q1 0 0 -1z" />
    <glyph glyph-name="FL0419h" unicode="*" horiz-adv-x="278" 
d="M234 424h44l-22 -26zM301 424h46l-42 -26zM391 585h-85l3 10h87zM252 483h118l16 -24h-169zM246 543h178v-21h-192zM419 609h-121l-11 -38h7l14 -14h-70l-32 -49h9l17 -17h7l-66 -46h12l17 -17h11l43 -50l2 2l18 -18l17 20l1 -8l5 3l17 -17l89 55l-13 13h34l-30 46l-9 8
l-5 9h73v43l-17 17v6h-19l15 29l-18 17z" />
    <glyph glyph-name="FL002Bh" unicode="+" horiz-adv-x="493" 
d="M336 424h135l-10 -27h-135zM228 126h135l-10 -28h-135zM314 364h135l-11 -30h-135zM249 186h135l-14 -40h-135zM221 305h331l-36 -34h-331zM158 245h331l-39 -37h-331zM305 383h8l5 -5h-13l-23 -58h8l1 -1h-76l-63 -60l-68 -65h10l17 -17h120l-13 -37l-19 -56h7l17 -17
h157l17 48h1l21 62h56l62 59l-4 4h8l59 56l-18 18l5 5h-116l14 36l-11 11h14l19 49l-18 17l3 6h-165z" />
    <glyph glyph-name="FL002Ch" unicode="," horiz-adv-x="240" 
d="M88 -72q-19 0 -27 20h75q-12 -9 -22 -14.5t-17 -5.5h-9zM226 94q0 -3 -2 -11h-149q15 25 44 43h94q13 -13 13 -32zM57 -42q-2 10 -3 20.5t-1 20.5v8h142q-19 -25 -46 -49h-92zM68 67h152l-14 -39q-2 -6 -4 -8h-149q0 6 1 8zM83 -91q12 -12 25 -12h9q10 0 29 11.5t44 30.5
l-2 2q12 13 25 27.5t24 29.5l-3 2q1 1 1 2t1 2l17 48v2l2 4h-1q3 9 3 16q0 24 -19 43l-6 6q-3 5 -6 9t-7 8h-105q-16 -10 -32.5 -27.5t-31.5 -43.5h4l-13 -35q-2 -6 -2 -13v-22v-18q0 -10 2 -19h-1q6 -17 15 -28.5t20 -16.5z" />
    <glyph glyph-name="FL002Dh" unicode="-" horiz-adv-x="393" 
d="M221 305h231l-36 -34h-231zM158 245h231l-39 -37h-231zM84 194h10l17 -17h264l62 59l-4 4h8l59 56l-18 18l5 5h-272l-63 -60z" />
    <glyph glyph-name="FL002Eh" unicode="." horiz-adv-x="240" 
d="M156 7q-17 -7 -36 -7q-21 0 -32 7h68zM75 83q15 25 44 43h94q13 -13 13 -32q0 -3 -0.5 -6t-0.5 -5h-150zM219 67q-11 -28 -38 -47h-108q-8 9 -8 27v11t2 9h152zM51 47q0 -16 5 -26h-17q5 -4 10 -7l10 -6l11 -10q25 -16 42 -22.5t28 -6.5q10 0 20 1.5t20 6.5l-3 12h27
q17 11 28 25.5t17 28.5l-6 9h13v16q0 2 0.5 3t0.5 3q0 24 -19 43l-6 6q-3 5 -6 9t-7 8h-105q-16 -10 -29.5 -23t-22.5 -27l4 -9h-8q-5 -14 -6 -20.5t-1 -13.5z" />
    <glyph glyph-name="FL002Fh" unicode="/" horiz-adv-x="689" 
d="M34 0l8 7h213l-8 -7h-213zM839 522h-214l9 8h214zM580 483h214l-27 -24h-214zM514 424h214l-31 -27h-214zM446 364h214l-34 -30h-214zM379 305h214l-39 -34h-214zM311 245h214l-42 -37h-214zM244 186h214l-46 -40h-214zM176 126h214l-49 -43h-214zM109 67h214l-54 -47
h-213zM883 544h-254l-40 -36h11l11 -11h-36l-58 -52h11l7 -7h-26l-63 -55h11l5 -5h-21l-66 -58h11l1 -1h-13l-71 -62l-64 -57l-7 -6l-71 -62h1l-72 -63l-53 -48l-10 -9l-7 -6l-23 -20h11l17 -17h246l33 29l61 54l7 6l67 59l68 60l67 59l-4 4h8l64 56l-7 7h15l59 52l-11 11
h23l56 49l-13 13h27l51 46l-17 17h38l33 30l-18 18z" />
    <glyph glyph-name="FL0030h" unicode="0" horiz-adv-x="753" 
d="M544 7q-28 -7 -59 -7h-100q-52 0 -93 7h252zM384 522q30 8 57 8h132q23 0 45 -2t42 -6h-276zM817 364q0 -5 0.5 -11t0.5 -11v-8h-195q-3 19 -11 30h205zM165 334q4 8 8 15t9 15h211q-18 -14 -33 -30h-195zM139 271q4 15 12 34h188q-2 -3 -4 -7q-9 -17 -11 -27h-185z
M813 287q-1 -5 -1.5 -8.5t-1.5 -7.5h-188l1 2q1 8 1.5 16t0.5 16h190q0 -5 -0.5 -9t-1.5 -9zM129 208q0 8 1 16.5t3 18.5v2h187v-1q0 -18 6 -36h-197zM802 245q-6 -18 -15 -37h-198q5 6 9 12l8 12q2 3 3.5 6.5t3.5 6.5h189zM132 146q-3 18 -3 40h207q14 -26 36 -40h-240z
M775 186q-11 -19 -27 -40h-239q14 7 29 17t29 23h208zM268 459l16 12l16 12h454q7 -5 13.5 -11t11.5 -13h-511zM230 424h572q6 -14 9 -27h-605zM667 67q-38 -31 -83 -47h-342q-44 15 -73 47h498zM731 126q-10 -12 -21 -22.5t-23 -20.5h-530q-7 9 -11.5 20t-8.5 23h594z
M381 508h6l11 -11h-102q-11 -8 -15 -10.5t-6 -4.5t-4 -3t-4 -3t-4.5 -3.5t-5.5 -4.5l9 -23h5l7 -7h-53l-49 -55h9l5 -5h-16l-2.5 -5l-1.5 -3q-5 -8 -10.5 -17t-8.5 -15l12 -18h5l1 -1h-27q-7 -16 -11 -27t-6 -18l11 -15h-17v-16q0 -1 -1 -1v0q-2 -8 -2.5 -16t-0.5 -19l7 -7
h-7q0 -39 3 -57l3 -3h-2q5 -17 10.5 -32t12.5 -27h-4q26 -31 56 -51q32 -29 67 -41h34l13 -13q41 -7 97 -7h100q34 0 62 7l-2 13h40q53 20 89 49l-5 14h23q13 11 25 22t23 25l-8 16h22q15 21 31 46l-10 16h19q6 13 11 24t8 21l-11 14l-4 4h21q1 4 2.5 12t2.5 13t1.5 11
t0.5 20l-7 7h10v19q0 2 -0.5 5t-0.5 6v22l-11 11h8q-3 14 -7 26t-9 23l-13 13h6q-5 7 -10 13.5t-10 11.5q-13 17 -24 27t-19 17h-77l2 16l-18 17l1 6q-20 4 -43.5 6t-50.5 2h-132q-30 0 -63 -9zM360 180q-9 27 -9 44v12l-4 4h6q4 19 12 33q2 3 4 7.5t10 15.5l-7 7h12
q13 15 63 52l-11 11h158q8 -14 11.5 -24.5t5.5 -21.5h6l1 -1h-7q0 -14 -0.5 -23.5t-1.5 -16.5l-9 -20h-1q0 -1 -0.5 -4.5t-0.5 -5.5v-3q-1 -1 -1 -2q-2 -4 -5 -7q-5 -7 -10 -14.5t-18 -22.5h-3q-14 -13 -31 -24.5t-34 -19.5l3 -16h-91q-25 17 -45 35v2z" />
    <glyph glyph-name="FL0031h" unicode="1" horiz-adv-x="357" 
d="M121 0l2 7h192l-2 -7h-192zM290 522q3 2 5.5 4t5.5 4h205l-3 -8h-213zM253 364h192l-11 -30h-192zM251 483h238l-9 -24h-250zM232 305h192l-13 -34h-192zM210 245h192l-14 -37h-192zM183 397q3 7 19 27h265l-10 -27h-274zM188 186h192l-14 -40h-192zM166 126h192l-15 -43
h-192zM145 67h192l-17 -47h-192zM256 508h10l11 -11h-32l-45 -52h9l7 -7h-21q-10 -13 -17 -22.5t-9 -14.5l12 -18h5l17 -17h36l-18 -46h8l1 -1h-7l-25 -62h2l-25 -63h1l-19 -54h-1l-20 -59l-22 -60h-2l-10 -35h7l17 -17h216l7 26l1 3l20 54h1l21 63h2l21 62l23 59l-4 4h4
l22 56l-7 7h8l20 52l-11 11h14l19 49l-13 13h17l18 46l-17 17h22l12 30l-18 17l3 6h-227q-12 -4 -17 -9z" />
    <glyph glyph-name="FL0032h" unicode="2" horiz-adv-x="693" 
d="M128 0q-19 0 -30 7h492l-7 -7h-455zM749 530q17 0 30 -8h-480l8 8h442zM776 352q-6 -9 -15 -18h-207q3 2 6.5 3t5.5 3q4 2 10 5.5t6 4.5l4 5q5 5 6 9h191q-2 -3 -3.5 -6t-3.5 -6zM284 146h-189q3 6 6.5 12.5t8.5 12.5q4 7 12 15h188q-4 -4 -10 -12zM805 483q2 -6 2.5 -12
t1.5 -12h-570q5 6 10.5 12t11.5 12h544zM734 305q-16 -16 -39 -34h-478q30 20 57 34h460zM806 424q-1 -7 -3 -13.5t-4 -13.5h-609q5 6 9.5 12.5t10.5 14.5h596zM659 245q-17 -11 -35 -20.5t-35 -16.5h-447q9 9 19.5 18.5t21.5 18.5h476zM73 83q3 20 12 43h606
q-5 -6 -14 -17.5t-20 -25.5h-584zM84 20q-12 16 -12 44v3h571q-22 -26 -41 -47h-518zM749 544h-448l-36 -36h10l11 -11h-31q-3 -3 -7.5 -8.5t-10 -11.5t-11 -12.5t-9.5 -10.5l-9 -9h10l7 -7h-21q-7 -9 -11.5 -15.5t-8.5 -11.5q1 2 -2 -2t-5 -8q-3 -5 -6 -9t-8 -9h10l17 -17
h386q0 -1 -0.5 -1.5l-0.5 -0.5l-6 -7q-3 0 -5 -2q-1 -1 -2 -1l-1 -1l1 1q-1 -1 -2 -1l-1 -1q-2 -1 -3.5 -2t-6.5 -3q-1 -1 -5 -4.5t-8 -7.5q-5 -4 -6.5 -5.5l-9.5 -9.5h10l1 -1h-261q-12 -6 -37 -22t-60 -40h1q-11 -10 -28.5 -26.5t-37.5 -36.5h2q-4 -5 -6.5 -8t-4.5 -6
q-7 -9 -11.5 -17.5t-8.5 -16.5q-1 -1 -1.5 -2.5t-1.5 -3.5v-1q-2 -2 -2.5 -4t-1.5 -3h1q-6 -15 -9 -27t-5 -21l2 -3h-3v-17q0 -12 2 -22.5t7 -20.5h-18q5 -4 10 -7l10 -6l11 -10q25 -16 41 -22.5t27 -6.5h460l29 29l-1 1q10 11 22.5 26.5t22.5 26.5h1q5 5 10 12t9 12
q3 4 8 10t10 12.5t9 11.5t6 7l-18 18l5 5h-396l4 7v1q2 3 7 8l21 21h253q20 8 39 18t36 21l-6 20l-4 4h44q25 19 43 37l-8 19l-7 7h39q12 12 19 23l1 1l3 6q1 2 6 11t6 11l-11 11h16q4 11 7 21.5t4 15.5l-11 12l-7 6q1 1 1 3l-4 4h25q-2 14 -3 25t-2 13l-17 17v4l-5 4h23
l-17 17h8q-56 36 -79 36z" />
    <glyph glyph-name="FL0033h" unicode="3" horiz-adv-x="703" 
d="M285 522l4 4l4 4h385q17 0 33 -8h-426zM578 7q-35 -7 -93 -7h-441q1 2 2 3.5t3 3.5h529zM568 334q5 7 10.5 15.5t7.5 12.5l1 2h191q-3 -15 -9 -30h-201zM491 146q5 3 10 6.5t8 5.5l1.5 2t2.5 3l2 5q3 4 3 18h207q-5 -22 -13 -40h-221zM235 459l8 12t9 12h498q4 -6 7 -12
l6 -12h-528zM754 305q-13 -21 -29 -34h-387l39 34h377zM211 424h563q2 -8 2.5 -14.5t1.5 -12.5h-585zM710 245q5 -7 10.5 -15.5t6.5 -21.5h-461l42 37h402zM705 126q-5 -12 -10.5 -23t-10.5 -20h-583q9 11 17.5 21.5t18.5 21.5h568zM675 67q-21 -31 -55 -47h-563
q8 12 16.5 24t16.5 23h585zM282 508h6l11 -11h-54q-5 -6 -10.5 -13t-12.5 -18l11 -21h5l7 -7h-42l-36 -55h9l17 -17h379l-7.5 -12.5t-9.5 -12.5l11 -21h5l1 -1h-200l-69 -60l-74 -65h11l17 -17h246q0 -1 -0.5 -2l-0.5 -1l-1 -3q-2 -2 -3 -4l-6 -3t-10 -6l4 -18h-354
q-7 -8 -15 -17.5t-16 -17.5q-2 -2 -3.5 -4t-3.5 -4q-2 -3 -5.5 -6.5l-5.5 -5.5q-4 -5 -6 -6.5t-11 -9.5h8q-8 -12 -18 -26t-17 -25q-2 -2 -2.5 -3t-2.5 -3t-4 -4.5t-5 -5.5q-4 -5 -5.5 -6.5l-9.5 -9.5h10l17 -17h468q60 0 95 7l-1 13h44q20 9 34.5 21.5t26.5 30.5l-6 11h13
q5 9 11 22t13 28l-9 13h13q6 13 11.5 29t8.5 33q-2 26 -8 36.5t-12 18.5l-8 8h19q19 16 33 39l-9 17l-7 7h29q5 14 9.5 27t6.5 25l-11 11h8v16q-1 5 -2.5 15.5t-3.5 17.5l-13 13h11q-6 11 -11.5 22.5t-13.5 23.5l-11 11q-2 3 -3.5 6t-3.5 6h-22l4 13l-17 17l1 5
q-23 12 -46 12h-391l-7 -7q-3 -3 -3 -6z" />
    <glyph glyph-name="FL0034h" unicode="4" horiz-adv-x="686" 
d="M450 0l2 7h192l-2 -7h-192zM424 522h-190l3 8h190zM832 522h-192l3 8h192zM220 483h190l-9 -24h-190zM626 483h192l-9 -24h-192zM198 424h190l-10 -27h-190zM604 424h192l-10 -27h-192zM176 364h190l-11 -30h-190zM582 364h192l-11 -30h-192zM539 245h192l-14 -37h-192z
M517 186h192l-14 -40h-192zM495 126h192l-15 -43h-192zM474 67h192l-17 -47h-192zM133 245h375l-36 -37h-353zM534 271h-392l13 34h598l-13 -34h-192l9 23zM448 544h-220l-15 -36h8l11 -11h-21l-21 -52h8l7 -7h-16l-22 -55h8l5 -5h-13l-23 -58h8l1 -1h-7l-25 -62h2l-25 -63
h8l17 -17h374l3 3l-14 -40h-1l-20 -59l-22 -60h-2l-10 -35h7l17 -17h216l7 26l1 3l20 54v1l1 -1l21 63h2l21 62l23 59l-4 4h4l22 56l-7 7h8l20 52l-11 11h14l19 49l-13 13h17l18 46l-17 17h22l12 30l-18 17l3 6h-222l-15 -36h8l11 -11h-21l-21 -52h8l7 -7h-16l-22 -55h8
l5 -5h-13l-23 -58h8l1 -1h-171l14 36l-11 11h14l19 49l-13 13h17l18 46l-17 17h22l12 30l-18 17z" />
    <glyph glyph-name="FL0035h" unicode="5" horiz-adv-x="686" 
d="M592 7q-15 -7 -34 -7h-510q2 4 4 7h540zM232 530h601q-2 -2 -2.5 -4t-2.5 -4h-599zM165 334q0 5 0.5 9.5t1.5 9.5l4 11h190l-3 -9v-5q0 -1 4 -4.5t6 -5.5q1 -2 7 -6h-210zM502 146q10 15 10 28q0 4 -2 12h188q0 -4 0.5 -7.5t0.5 -6.5v-4q0 -5 -0.5 -11t-1.5 -11h-195z
M798 483l-10 -12l-10 -12h-572l9 24h583zM746 424q-7 -7 -14 -13.5t-14 -13.5h-535l10 27h553zM185 271q-11 17 -15 34h462q18 -13 32 -34h-479zM252 208q-26 15 -47 37h475q5 -9 8 -18.5t6 -18.5h-442zM692 126q-4 -11 -9 -21.5t-11 -21.5h-566q11 14 20 25t16 18h550z
M662 67q-20 -29 -47 -47h-555q7 10 15.5 22t18.5 25h568zM208 508h8l11 -11h-21l-21 -52h8l7 -7h-16l-22 -55h8l5 -5h-13l-9 -23q0 -1 -0.5 -1.5l-0.5 -0.5q-1 -5 -1 -20l13 -13h4l1 -1h-18q9 -37 22 -56l7 -4h-8q14 -16 28 -28.5t25 -21.5q12 -11 22.5 -18.5t19.5 -12.5
l5 -1h224q0 -3 2 -5q-1 -10 -8 -20l6 -12h-360q-10 -10 -25.5 -29t-33.5 -42h1q-11 -16 -25 -35.5t-19 -27.5h1q-6 -10 -10 -20h8l17 -17h528q9 0 19 1.5t20 6.5l-3 12h24q31 21 53 52l-6 11h14q6 11 12 23t11 28l-9 12h14q1 8 2 16.5t1 16.5v10q0 2 -0.5 9.5t-0.5 9.5l-4 4
q-1 3 -1 7v6q-3 8 -8 21t-9 21l-4 4h2q-8 10 -14.5 18.5t-13.5 16.5q-11 14 -21.5 25.5t-18.5 18.5h-222l-1 1h8q-9 6 -17 11t-14 9l5 15l-11 11h358q3 3 7.5 7t8.5 8l15 15l-8 19l-13 13h51q2 3 6.5 8t6.5 8q6 8 9 11l-8 19l-14 14l-2 3h51q4 4 6 8q1 1 4 4.5t7 7t7 7
l3 3.5l-18 18l5 5h-644z" />
    <glyph glyph-name="FL0036h" unicode="6" horiz-adv-x="668" 
d="M519 7q-21 -7 -45 -7q-25 0 -49.5 1.5t-48.5 5.5h143zM349 522q29 8 55 8h413q-4 -6 -6 -8h-462zM160 334q3 8 6 15t7 15h203q-6 -7 -11.5 -14.5t-10.5 -15.5h-194zM696 186q-4 -11 -9 -20.5t-10 -19.5h-191l19 28q-2 4 -4 12h195zM160 146q-8 18 -12 40h214
q16 -27 32 -40h-234zM243 459l14 12t15 12h508l-21 -24h-516zM192 397q5 7 9.5 13.5t9.5 13.5h515l-30 -27h-504zM616 67q-15 -14 -31 -26.5t-33 -20.5h-236q-27 8 -51 19t-44 28h395zM144 271q2 8 3.5 16.5t3.5 17.5h530q15 -15 21 -34h-558zM664 126l-16 -22t-17 -21h-428
q-18 17 -33 43h494zM145 208q-2 8 -2 17v18v2h563v-4q0 -15 -3 -33h-558zM346 508h6l11 -11h-97q-6 -5 -13 -11.5t-13 -11.5q-2 -2 -4 -3.5t-4 -3.5l9 -22h5l7 -7h-49q-7 -7 -11.5 -14.5t-9.5 -15.5q-1 -2 -2 -2.5t-2 -2.5l11 -20h5l5 -5h-36q-5 -8 -8 -15.5t-6 -15.5l-3 -9
l12 -18h4l1 -1h-25q-2 -9 -4.5 -23.5t-4.5 -22.5l11 -14h-12v-16v-21q0 -9 2 -17l6 -5h-7q4 -18 8 -32.5t9 -26.5l1 -1h-2q10 -17 19.5 -32t20.5 -27h-5q5 -5 11 -9t11 -9l6 -5q34 -28 64.5 -44.5t59.5 -24.5h46l13 -13q24 -4 50 -5.5t52 -1.5q25 0 48 8l-2 12h35
q20 10 36.5 23t32.5 27l-6 13h17q13 13 22 25t16 23l-8 15h19q5 11 11 22t11 25l-10 15h16q2 15 3.5 25.5t1.5 18.5v15l-4 4h4q-12 37 -31 56l-5 4q-7 12 -14 19h-297q6 9 14 18l16 18l-11 11h311l54 49l-13 13h22l41 46l-17 17h29q2 2 8 10.5t13 19.5l-18 17q1 2 2 3t2 3
h-439q-31 0 -61 -9zM388 177h100q1 -1 0.5 -1.5t0.5 -1.5l-24 -34h-42q-18 14 -31 30q-3 2 -4 7z" />
    <glyph glyph-name="FL0037h" unicode="7" horiz-adv-x="643" 
d="M78 7h203l-7 -7h-202zM290 522q3 2 5.5 4t5.5 4h501l-8 -8h-504zM422 364h215l-30 -30h-214zM365 305h213l-33 -34h-213zM307 245h212l-37 -37h-210zM251 186h209l-40 -40h-208zM193 126h207l-43 -43h-206zM136 67h205l-47 -47h-203zM251 483h504l-24 -24h-501zM183 397
q3 7 19 27h495l-27 -27h-487zM256 508h10l11 -11h-32l-45 -52h9l7 -7h-21q-10 -13 -17 -22.5t-9 -14.5l12 -18h5l17 -17h201l-44 -46h10l1 -1h-12l-58 -60l-2 -2l-60 -63l-61 -62h1l-62 -63h1l-46 -48l-3 -3l-11 -12h1l-16 -20h9l17 -17h230l267 267l-4 4h8l54 56l-7 7h15
l52 52l-11 11h22l49 49l-13 13h25l46 46l-17 17h34l30 30l-18 18l5 5h-536q-12 -4 -17 -9z" />
    <glyph glyph-name="FL0038h" unicode="8" horiz-adv-x="734" 
d="M609 7q-35 -7 -93 -7h-298q-59 0 -88 7h479zM326 522q17 4 38 6t47 2h298q18 0 34 -8h-417zM808 364q-1 -6 -3 -12t-4 -13q-1 -2 -1 -3t-1 -2h-200q4 4 10 13.5t8 14.5v2h191zM177 364h207l-11 -30h-202zM177 271q-7 13 -7 34h193l-12 -34h-174zM756 186q-5 -20 -11 -35
l-2 -5h-221q5 3 10 6.5t8 5.5l1.5 2t2.5 3l2 5q1 2 3 7t4 11h203zM97 146q3 8 8 18.5t10 21.5h203l-7 -20l1 -2q0 -1 -0.5 -1.5t-0.5 -1.5l-1 -3q2 -2 4 -5.5t4 -6.5h-221zM785 305q-13 -21 -29 -34h-362l40 34h351zM219 459q9 12 21 24h544q7 -12 12 -24h-577zM195 409
q1 5 5 15h607q2 -7 2 -14t1 -13h-620zM741 245q5 -7 10.5 -15.5t6.5 -21.5h-629q11 13 22.5 21.5t21.5 15.5h168l-10 -29l33 29h377zM736 126q-5 -12 -10.5 -23t-10.5 -20h-636q2 10 4.5 20.5t6.5 22.5h646zM706 67q-21 -31 -55 -47h-555q-19 12 -19 41v6h629zM323 508h6
l11 -11h-106q-16 -16 -27 -31l10 -21h5l7 -7h-38q-2 -5 -3.5 -9t-3.5 -9q-1 -2 -1 -3t-1 -3l-13 -31h8l5 -5h-17l-12 -58h7l1 -1h-5q0 -20 1.5 -34t6.5 -22l7 -4h-4l-4 -4l-2 -1q-2 -2 -3.5 -2.5t-3.5 -2.5q-7 -5 -18 -15t-37 -40h4q-5 -11 -10 -22.5t-9 -21.5l6 -10h-10
q-5 -15 -8.5 -28.5t-6.5 -30.5h-2v-20q0 -18 6 -31.5t22 -23.5h3l8 -8q3 -3 11 -9h20l12 -12q19 -5 41.5 -6.5t51.5 -1.5h298q60 0 95 7l-1 13h44q20 9 34.5 21.5t26.5 30.5l-6 11h13q5 9 11 22t13 28l-9 13h13l5 12q4 10 7 19t5 17l-11 14h14q-2 26 -8 36.5t-12 18.5l-8 8
h19q19 16 33 39l-9 17l-7 7h26q5 5 6 6.5t1 6.5q0 1 0.5 1.5t0.5 1.5q3 7 4.5 12.5t2.5 10.5l-11 13l-6 6v2l-3 3h22q0 2 -0.5 10t-0.5 10q0 4 -1 12t-3 17l-13 13h9q-11 28 -22 46l-11 11q-2 3 -3.5 6t-3.5 6h-24l4 13l-17 17l1 5q-23 12 -47 12h-298q-53 0 -90 -8z
M398 296l-7 7h9l20 52l-11 11h194v-2q-4 -6 -16 -20t-22 -24h10l1 -1h-146l-35 -29zM343 147l10 30h181l-2 -6q-1 -1 -1 -2l-2 -2l-4 -3q1 1 -4.5 -2t-12.5 -7l4 -15h-169v7z" />
    <glyph glyph-name="FL0039h" unicode="9" horiz-adv-x="668" 
d="M339 522q24 8 48 8h8q42 0 78 -2t65 -6h-199zM507 7q-24 -7 -50 -7h-413q2 4 5 7h458zM161 335q5 15 12 29h188l-5 -8q2 -6 3.5 -11.5t6.5 -10.5h-206v0q1 0 1 1zM713 364q1 -8 1.5 -15t0.5 -15h-211q-5 8 -10 15.5t-10 14.5h229zM695 186q-4 -11 -9 -20.5t-11 -19.5
h-214q21 13 39 40h195zM268 483h383q14 -10 25 -24h-435zM192 397q5 7 9.5 13.5t9.5 13.5h486q6 -14 9 -27h-514zM717 287v-3q0 -9 -1 -13h-560q-1 5 -1 18v16h562v-18zM713 245q-3 -19 -9 -37h-495q-32 12 -45 37h549zM662 126q-8 -12 -16.5 -22.5t-18.5 -20.5h-515
q11 11 22 21.5t22 21.5h506zM612 67q-16 -14 -33.5 -26.5t-36.5 -20.5h-483q10 12 19.5 24t19.5 23h514zM336 508h6l11 -11h-90l-58 -52h11l7 -7h-19q-7 -7 -11.5 -14.5t-9.5 -15.5q-1 -2 -2 -2.5t-2 -2.5l11 -20h5l5 -5h-36q-5 -10 -9 -19.5t-7 -19.5l-1 -3l3 -1l7 -7v-8h6
l1 -1h-23v-30v-14t2 -16h-2q18 -36 45 -54l4 -4q16 -16 38 -24h244q-18 -18 -49 -37h-273q-6 -5 -15.5 -15t-20 -20.5t-20.5 -20t-15 -15.5h2q-12 -15 -28 -34t-24 -29h3q-7 -10 -11 -20h8l17 -17h431q29 0 53 7l-2 13h36q20 9 39 22t36 28l-5 13h18q11 11 21 22.5t18 25.5
l-8 15h18q8 12 14 24t10 23l-10 15h16q5 17 8.5 28t4.5 18l-11 13l-4 4h16q2 9 2.5 14t0.5 10v32l-7 7h5q0 17 -0.5 25.5t-1.5 16.5l-17 16v5h13q-3 14 -7 26t-9 23l-13 13h8q-4 5 -7.5 9t-6.5 8q-14 18 -26.5 31t-23.5 21h-96l1 16l-17 17v6q-29 4 -66 6t-82 2h-8
q-27 0 -54 -10zM388 335l13 20l-11 11h74q7 -8 11 -13.5t7 -9.5l-1 1q2 -5 3 -5q1 -1 2 -3t4 -7q4 -6 7 -9h4l1 -1h-102l-1 1h5q-11 7 -16 13v2zM684 465l-1 1q1 0 1 -1z" />
    <glyph glyph-name="FL003Ah" unicode=":" horiz-adv-x="241" 
d="M235 397q17 5 31 5q15 0 27 -5h-58zM157 7q-17 -7 -36 -7q-21 0 -32 7h68zM301 305q-11 -14 -25 -24q-4 -3 -8 -5.5t-9 -4.5h-81q-16 10 -18 34h141zM165 334q7 15 20 30h135q0 -2 0.5 -4.5t0.5 -4.5q0 -12 -4 -21h-152zM76 83q15 25 44 43h94q13 -13 13 -32
q0 -3 -0.5 -6t-0.5 -5h-150zM220 67q-11 -28 -38 -47h-108q-8 9 -8 27v11t2 9h152zM52 47q0 -16 5 -26h-17q5 -4 10 -7l10 -6l11 -10q25 -16 42 -22.5t28 -6.5q10 0 20 1.5t20 6.5l-3 12h27q17 11 28 25.5t17 28.5l-6 9h13v16q0 2 0.5 3t0.5 3q0 24 -19 43l-6 6q-3 5 -6 9
t-7 8h-105q-16 -10 -29.5 -23t-22.5 -27l4 -9h-8q-5 -14 -6 -20.5t-1 -13.5zM232 383h6l5 -5h-63q-11 -11 -18.5 -21.5t-10.5 -18.5l12 -18h5l1 -1h-24q3 -47 28 -62h3l11 -11q2 -2 8 -6h87q6 3 11.5 6t9.5 6h-1q19 14 28 26l-9 18l-7 7h30q8 20 8 32q0 1 -0.5 1.5t-0.5 2.5
v16l-17 17v6h-15l2 7l-17 17l1 5q-9 5 -19.5 7t-19.5 2q-19 0 -37 -6z" />
    <glyph glyph-name="FL003Bh" unicode=";" horiz-adv-x="241" 
d="M266 402q15 0 27 -5h-58q17 5 31 5zM88 -72q-19 0 -27 20h75q-12 -9 -22 -14.5t-17 -5.5h-9zM178 271q-16 10 -18 34h141q0 -1 -0.5 -1.5l-0.5 -0.5q-17 -21 -43 -32h-79zM321 355q0 -5 -1 -10t-3 -11h-152q7 15 20 30h135q0 -2 0.5 -4.5t0.5 -4.5zM226 94q0 -3 -2 -11
h-149q15 25 44 43h94q13 -13 13 -32zM57 -42q-2 10 -3 20.5t-1 20.5v8h142q-19 -25 -46 -49h-92zM68 67h152l-14 -39q-2 -6 -4 -8h-149q0 6 1 8zM83 -91q12 -12 25 -12h9q10 0 29 11.5t44 30.5l-2 2q12 13 25 27.5t24 29.5l-3 2q1 1 1 2t1 2l17 48v2l2 4h-1q3 9 3 16
q0 24 -19 43l-6 6q-3 5 -6 9t-7 8h-105q-16 -10 -32.5 -27.5t-31.5 -43.5h4l-13 -35q-2 -6 -2 -13v-22v-18q0 -10 2 -19h-1q6 -17 15 -28.5t20 -16.5zM266 416q-20 0 -40 -7l3 -26h6l5 -5h-60q-20 -22 -37 -58h8l1 -1h-7q2 -21 8.5 -36.5t18.5 -23.5l1 -1l12 -11q1 -2 5 -4
l2 -1l6 -2h81q31 12 49 35l1 1q2 2 2.5 5.5t0.5 14.5l-7 7h23v4t1 7q3 10 3 21q0 1 -0.5 1.5t-0.5 2.5v16l-17 17v6h-15l2 7l-17 17l1 5q-9 5 -19.5 7t-19.5 2z" />
    <glyph glyph-name="FL003Ch" unicode="&#x3c;" horiz-adv-x="486" 
d="M236 7h213l3 -7h-213zM430 530h214l-9 -8h-214zM376 483h214l-27 -24h-214zM310 424h214l-31 -27h-214zM242 364h214l-34 -30h-214zM175 305h214l-39 -34h-214zM139 245h214l15 -37h-214zM163 186h214l16 -40h-214zM187 126h214l17 -43h-213zM211 67h214l19 -47h-213z
M385 508h11l11 -11h-36l-58 -52h11l7 -7h-26l-63 -55h11l5 -5h-21l-66 -58h11l1 -1h-13l-71 -62h11l15 -15l17 -42l24 -60l25 -59h-1l25 -60l15 -35h5l17 -17h236l-9 20h1l-28 69h-1l-23 57h1l-25 62l-24 59l-5 5l63 55l-7 7h15l59 52l-11 11h23l56 49l-13 13h27l51 46
l-17 17h38l33 30l-18 18l5 5h-254z" />
    <glyph glyph-name="FL003Dh" unicode="=" horiz-adv-x="464" 
d="M140 289l17 16h302l-17 -16h-302zM72 102l25 24h302l-25 -24h-302zM283 424h302l-29 -27h-302zM215 237h302l-31 -29h-302zM219 364h302l-32 -30h-302zM161 186h302l-43 -40h-302zM149 194l-57 -54h-1l-54 -52h10l17 -17h335l48 46h-1l64 60h1l54 51l-18 18l5 5h-343z
M220 383h10l5 -5h-22l-61 -58h10l1 -1h-12l-46 -44h10l17 -17h335l40 38l-7 7h14l55 52l-11 11h22l52 49l-18 18l5 5h-341z" />
    <glyph glyph-name="FL003Eh" unicode="&#x3e;" horiz-adv-x="486" 
d="M34 0l8 7h213l-8 -7h-213zM442 530l3 -8h-214l-3 8h214zM247 483h214l9 -24h-214zM270 424h214l11 -27h-214zM295 364h214l12 -30h-214zM319 305h214l14 -34h-214zM311 245h214l-42 -37h-214zM244 186h214l-45 -40h-214zM176 126h214l-49 -43h-214zM109 67h214l-53 -47
h-214zM207 544l15 -36h5l11 -11h-12l21 -52h5l7 -7h-10l23 -55h5l5 -5h-8l24 -58h5l1 -1h-6l25 -60h-17l-67 -59l-7 -6l-60 -54h-1l-81 -71l-53 -48l-10 -9l-7 -6l-23 -20h11l17 -17h246l23 20l70 63h1l71 63h1l69 62h1l67 59l-4 4h13l-23 56l-7 7h4l-21 52l-11 11h6l-20 49
l-13 13h8l-18 46l-15 14l-1 3h9l-12 30l-15 14l-3 9h-244z" />
    <glyph glyph-name="FL003Fh" unicode="?" horiz-adv-x="686" 
d="M195 7q-17 -7 -36 -7q-21 0 -32 7h68zM155 170q2 4 5.5 7.5t6.5 8.5h162q-9 -5 -13.5 -9t-5.5 -6v-1h-155zM300 530h442q18 0 31 -8h-481zM114 83q15 25 44 43h94q13 -13 13 -32q0 -3 -0.5 -6t-0.5 -5h-150zM547 334q3 2 6.5 3t5.5 3q4 2 10 5.5t6 4.5l4 5q5 5 6 9h192
l-4 -6l-4 -6q-6 -9 -15 -18h-207zM258 67q-11 -28 -38 -47h-108q-8 9 -8 27v11t2 9h152zM232 459q5 6 10.5 12t11.5 12h545q2 -6 2 -12t1 -12h-570zM262 271q27 19 56 34h409q-16 -16 -39 -34h-426zM187 208q9 9 19.5 18.5t21.5 18.5h424q-17 -11 -35 -20.5t-35 -16.5h-395z
M183 397q5 6 9.5 12.5t10.5 14.5h596q-1 -7 -3 -13.5t-4 -13.5h-609zM258 508h10l11 -11h-31q-5 -5 -10.5 -11.5t-10.5 -11.5q-2 -2 -3.5 -4t-3.5 -4l10 -21h5l7 -7h-45q-7 -9 -11.5 -15.5t-8.5 -11.5l-3 -3q-1 -2 -4 -5l11 -20h5l17 -17h366q0 -1 -0.5 -1.5l-0.5 -0.5
l-6 -7q-3 0 -5 -2q-1 -1 -2 -1l-1 -1l1 1q-1 -1 -2 -1v0q-3 -2 -4.5 -2.5t-6.5 -3.5l-1 -1q-2 0 -2.5 -0.5l-3.5 -3.5l10 -22h5l1 -1h-237q-14 -7 -29.5 -17t-32.5 -21l7 -22h-37q-11 -9 -23 -20t-24 -23l7 -16h-23q-2 -2 -3 -4.5t-2 -3.5q-2 -2 -3.5 -4.5l-1.5 -2.5
q-1 -2 -1.5 -2.5l-0.5 -0.5q-1 -1 -2.5 -3t-2.5 -3l11 -20h5l16 -16h-21q-16 -10 -29.5 -23t-22.5 -27l4 -9h-8q-5 -14 -6 -20.5t-1 -13.5q0 -16 5 -26h-17q5 -4 10 -7l10 -6l11 -10q25 -16 42 -22.5t28 -6.5q10 0 20 1.5t20 6.5l-3 12h27q17 11 28 25.5t17 28.5l-6 9h13v16
q0 2 0.5 3t0.5 3q0 24 -19 43l-6 6q-2 4 -5.5 8t-6.5 8h82v8q2 4 17 11l-4 19h249q20 8 47 23.5t59 35.5l-4 4h7q25 19 62 56l-7 7h12q9 9 21 26l1 2q1 0 2 2q0 1 3 4l18 18l-11 11h6q4 11 7 22.5t5 26.5l-13 13h15q0 2 -0.5 9.5t-0.5 9.5q0 5 -1 12t-3 15l-16 15v2h19
l-17 17h8q-56 36 -80 36h-448z" />
    <glyph glyph-name="FL0040h" unicode="@" horiz-adv-x="783" 
d="M537 364q25 -6 38 -30h-140q32 23 65 30h37zM457 168q-16 2 -27.5 6.5t-19.5 11.5h343q-26 -11 -57 -14.5t-69 -3.5h-170zM387 275q4 14 17 30h178v-2q0 -7 -5 -29q-2 -2 -2 -3h-65q1 5 1.5 7t0.5 1q0 14 -16 14q-10 0 -18 -6.5t-13 -15.5h-79q0 3 1 4zM854 360
q0 -7 -0.5 -13.5t-1.5 -12.5h-186q0 14 -7 30h195v-1v-3zM167 334l7.5 15t8.5 15h195q-5 -8 -9.5 -15t-9.5 -15h-192zM143 271q2 7 4.5 13.5t5.5 14.5q0 2 2 6h190q-1 -2 -1 -4q0 -1 -1 -3l-9 -27h-191zM840 278q-1 -3 -3 -7h-205q19 8 27 27q2 4 3 7h185q-2 -7 -3.5 -13.5
t-3.5 -13.5zM134 208q0 17 3 37h188q-6 -18 -6 -24v-1q0 -8 1 -12h-186zM376 -37q-23 5 -59 14t-72 30h233q-3 -9 -6.5 -20t-8.5 -24h-87zM675 543q20 -3 40.5 -8t40.5 -13h-430q20 13 43 21h306zM140 146q-2 9 -3 19t-2 21h194q5 -11 13 -21t16 -19h-218zM165 83
q-11 18 -19 43h232q14 -14 25.5 -24t17.5 -17q2 -2 6 -2h-262zM813 483q10 -11 18 -24h-580l24 24h538zM846 424q2 -7 3 -13.5t2 -13.5h-221q-20 13 -53 19h-128q-11 0 -21 -5.5t-21 -13.5h-204q5 7 9.5 13.5t9.5 13.5h624zM225 20q-28 19 -49 47h324q-2 -7 -6 -18.5
t-11 -28.5h-258zM393 208q-7 15 -7 37h438q-12 -21 -32 -37h-399zM814 497h-34l4 13l-17 17l1 5q-26 11 -48.5 16.5t-42.5 8.5h-310q-28 -10 -89 -49h14l11 -11h-34l-52 -52h10l7 -7h-19q-4 -5 -13.5 -18t-15.5 -23h1q-5 -7 -9 -14h8l5 -5h-16q-5 -8 -11.5 -20t-10.5 -20
l12 -18h5l1 -1h-25q-7 -12 -7 -21l1 -1q-2 -6 -3.5 -12t-3.5 -11l10 -14l4 -4h-20q-4 -23 -4 -48l11 -11h-11q1 -16 2.5 -30.5t3.5 -23.5l6 -6h-3q6 -20 11.5 -35t11.5 -24h-1q17 -24 35 -42l6 -7q-9 11 -21 29h1l1 -1l9 -5h262v6h61q-3 -10 -7 -20.5t-8 -20.5v1h-285
q-2 1 -2.5 1.5t-2.5 1.5l4 -3h-4l8 -9q61 -33 100 -44.5t62 -15.5h100l8.5 25.5l9.5 28.5l1 3q6 15 13.5 36.5t11.5 32.5l-2 3h-71l-3 3h-11v10h1l-1 1v-1v1l-1 1l-4 3l2 -2v-16h-262q-4 8 -7 18t-6 21h5l3 -2h242q-2 0 -2 2h3l6.5 -6.5t7.5 -6.5l-6 7q-5 4 -10.5 9
t-11.5 10l-6 7q-2 2 -3.5 4t-3.5 4q-11 13 -21.5 27t-16.5 28h-2q-2 11 -2.5 14.5t-0.5 5.5v1q0 2 2.5 12t8.5 26q1 2 1.5 4t1.5 4q2 7 5 15t5 13q1 3 1 7v7q0 2 0.5 5.5t0.5 4.5h-188l3 -3h-26q-5 -8 -6 -13l-2 1q-2 -6 -4 -11.5t-4 -10.5q-1 -2 -1 -4t-1 -4l10 -15h-16
q-4 -23 -4 -52l7 -7h-7q1 -18 2.5 -34t3.5 -24l2 -2q11 -40 21 -59h-1q29 -41 52 -60h-9l10 -6l10 -6l12 -11q63 -37 105 -49t66 -17h97q4 11 9 28t10 29q3 9 7 19.5t7.5 20.5t6.5 18t4 11l-18 17l2 6h-78l-11 11l2 2l-5.5 5.5l-8.5 8.5l-8.5 8.5t-8.5 7.5q-4 4 -8.5 8
t-8.5 8h-3q-2 1 -2.5 2t-2.5 3q-13 16 -20 32l-3 3q-3 10 -3 13v7v1q0 2 2.5 11t7.5 24l-4 4h5q2 5 5.5 13t5.5 16v-10q0 -18 2 -33t7 -26h-10q10 -10 23 -18l5 -5q20 -17 39.5 -27.5t37.5 -12.5h171q38 0 71.5 4.5t62.5 16.5l-4 19h38q11 10 23 24.5t25 34.5l-4 4h5l2.5 5
t3.5 10q5 13 7 22.5t4 18.5l-7 7h8q1 9 2 18.5t1 18.5v15l-11 11h9q-2 20 -3.5 27.5l-2.5 12.5l-17 16v5l-1 1h11q-8 16 -15.5 26.5t-13.5 16.5l-3 2q-10 15 -16 21zM380 137q-9 10 -17 19.5t-15 20.5h-205q0 -11 1 -21.5t2 -18.5h234zM540 378h-43q-16 -4 -41.5 -17.5
t-56.5 -34.5q5 8 11 16t9 13l-11 11h23q11 8 20.5 13.5t17.5 5.5h126q13 -3 24 -6.5t21 -8.5q5 -12 8.5 -24.5t3.5 -25.5h6l1 -1h-6q-2 -5 -3.5 -8.5t-3.5 -7.5q-3 -7 -10 -12t-16 -10l4 -22h-15q2 7 3 13t1 11v13l-7 7h8q-10 20 -24 34l-1 1q-23 34 -49 40zM330 221
q0 3 3 15h-186q-4 -19 -4 -39h191q-3 12 -3.5 16t-0.5 7v1zM354 295v1h-186l-3.5 -7t-2.5 -6h1l-1 -4h-1q-2 -5 -3 -9.5t-3 -9.5h186q2 5 5 13l6 16l-1 1zM374 -48h97q2 7 5.5 17t6.5 20h-225q41 -19 69 -26t47 -11zM376 296l-7 7h16q-7 -10 -10 -19q0 2 0.5 6.5t0.5 5.5z
M395 320h8l1 -1h-7q-9 -10 -12 -16q2 2 4.5 7t5.5 10zM142 301q-1 -1 -1 -2t-1 -2h5l1 5l-4 1v-2zM209 16l-2 2q0 -2 2 -2z" />
    <glyph glyph-name="FL0041h" unicode="A" 
d="M575 0l-1 7h178l1 -7h-178zM449 522q11 8 19 8h168q8 0 16 -8h-203zM469 7q-3 -3 -5.5 -4.5t-4.5 -2.5h-423q2 10 2 7h431zM519 364h178l4 -30h-177zM315 364h200l-22 -30h-202zM528 305h178l5 -34h-178zM537 245h178l5 -37h-177zM398 470q2 6 9 13h265q2 -6 3.5 -12
t3.5 -12h-290zM269 305h202l-25 -34h-204zM546 186h178l6 -40h-178zM222 245h204l-27 -37h-206zM176 186h206l-30 -40h-208zM562 67h180l8 -47h-179zM362 424h326l4 -27h-351zM522 67q-10 -13 -20 -25t-20 -22h-436l37 47h439zM554 113q-4 -9 -20 -30h-439l34 43h604l7 -43
h-181zM559 6l3 -20h6l17 -17h201l-4 29l-1 1l-9 53h1l-10 65h-1l-8 60l-1 1l-8 58l-4 4h3l-8 56l-7 7h5l-7 52l-11 11h9l-7 49l-13 13h8q-3 10 -6 20.5t-8 25.5l-15 15l-0.5 0.5t-0.5 1.5h16l-17 17h4q-36 36 -50 36h-168q-6 0 -13.5 -3.5t-15.5 -8.5l8 -24h5l11 -11h-62
q-5 -5 -8.5 -9.5t-5.5 -8.5l-28 -34h9l7 -7h-20l-43 -55h9l5 -5h-18l-46 -58h9l1 -1h-10l-49 -62l-49 -63l-49 -62l-49 -63l-22 -29q-1 0 -1.5 0.5t-1.5 0.5q-8 0 -15 -24l-9 -11h5q-1 -5 -2 -9.5t-2 -10.5h7l17 -17h440q2 2 6.5 4t8.5 6l-4 10h14q12 12 23 25t21 26l-6 12
h5zM424 177l43 59l-4 4h9l41 56l-7 7h8l6 -46h1l9 -63h1l7 -54h-142z" />
    <glyph glyph-name="FL0042h" unicode="B" horiz-adv-x="721" 
d="M589 7q-34 -7 -86 -7h-459l2 7h543zM696 530q22 0 41 -8h-503l3 8h459zM176 364h192l-11 -30h-192zM795 364q-3 -16 -11 -30h-198q5 7 10.5 15.5t7.5 12.5l1 2h190zM155 305h192l-13 -34h-192zM111 186h193l-15 -40h-192zM743 186q-2 -11 -5.5 -21t-7.5 -19h-221
q5 3 10 6.5t8 5.5l4 7.5t5 8.5l2 5q2 2 2 7h203zM766 305q-8 -11 -16.5 -19t-17.5 -15h-376l39 34h371zM777 483q3 -6 5.5 -12t4.5 -12h-576l9 24h557zM797 397h-609l10 27h596zM327 245h400q11 -14 16 -37h-624l14 37h192l-1 -3zM723 126q-5 -12 -11 -23t-11 -20h-627
l15 43h634zM690 67q-12 -16 -26 -27.5t-33 -19.5h-580l17 47h622zM779 497h-18l4 13l-17 17l1 5q-26 12 -53 12h-468l-15 -36h8l11 -11h-21l-21 -52h8l7 -7h-16l-22 -55h8l5 -5h-13l-23 -58h8l1 -1h-7l-25 -62h2l-25 -63h1l-19 -54h-1l-20 -59l-22 -60h-2l-10 -35h7l17 -17
h474q54 0 88 7l-1 13h43q22 10 37.5 22t28.5 29l-6 12h15q5 8 11 20.5t14 29.5l-9 13h13q5 12 10 25.5t7 23.5l-11 13h14q-4 18 -9.5 33t-14.5 26l-4 4h7q21 15 39 39l-9 17l-7 7h32q5 10 9 20t6 19l-11 13l-6 6v1l-4 4h24l-5 49l-13 13h12q-5 12 -9 23t-7 17l-14 14
q-2 3 -2.5 5t-1.5 4zM404 355l-11 11h196q-5 -8 -13.5 -21t-18.5 -25h9l1 -1h-177zM340 177h180q-1 -2 -2 -4.5t-3 -6.5q-1 -1 -2 -1l-1 -1q1 1 -4.5 -2t-12.5 -7l4 -15h-174zM520 170v1h1h-1v-1z" />
    <glyph glyph-name="FL0043h" unicode="C" horiz-adv-x="663" 
d="M562 7q-5 -5 -8 -7h-80q-25 0 -49.5 1.5t-48.5 5.5h186zM349 522q29 8 55 8h413q-4 -6 -6 -8h-462zM160 334q3 8 6 15t7 15h205q-14 -15 -23 -30h-195zM144 271q2 8 3.5 16.5t3.5 17.5h188q-1 -2 -1 -4q0 -1 -1 -3q-2 -8 -4 -14.5t-3 -12.5h-186zM143 245h187
q2 -9 5 -18.5t8 -18.5h-198q-2 8 -2 17v18v2zM357 186q9 -12 20 -22.5t22 -17.5h-239q-8 18 -12 40h209zM243 459l14 12t15 12h508l-21 -24h-516zM192 397q5 7 9.5 13.5t9.5 13.5h515l-30 -27h-504zM622 67q-21 -26 -45 -47h-261q-27 8 -51 19t-44 28h401zM667 126
q-8 -11 -16 -21.5t-16 -21.5h-432q-18 17 -33 43h497zM346 508h6l11 -11h-97q-6 -5 -13 -11.5t-13 -11.5q-2 -2 -4 -3.5t-4 -3.5l9 -22h5l7 -7h-49q-7 -7 -11.5 -14.5t-9.5 -15.5q-1 -2 -2 -2.5t-2 -2.5l11 -20h5l5 -5h-36q-5 -8 -8 -15.5t-6 -15.5l-3 -9l12 -18h4l1 -1h-25
q-2 -9 -4.5 -23.5t-4.5 -22.5l11 -14h-12v-16q0 -10 0.5 -19.5t2.5 -23.5h-2q3 -16 7 -31t10 -29h-1q10 -17 19.5 -32t20.5 -27h-5q5 -5 11 -9t11 -9l6 -5q34 -28 64.5 -44.5t59.5 -24.5h46l13 -13q24 -4 50 -5.5t52 -1.5h83q7 5 9 6.5t4 3.5l-4 10h15q33 30 50 51l-6 12h16
q8 11 17.5 24t17.5 24l-9 17l-12 12l-6 11h-233q-18 11 -31.5 21t-23.5 18q-11 18 -15.5 32t-6.5 25l-4 4h5q3 23 7 32q2 3 2 10q0 1 0.5 7t0.5 7l-7 7h18q8 12 18.5 25t22.5 27l-11 11h309l54 49l-13 13h22l41 46l-17 17h29q2 2 8 10.5t13 19.5l-18 17q1 2 2 3t2 3h-439
q-31 0 -61 -9z" />
    <glyph glyph-name="FL0044h" unicode="D" horiz-adv-x="690" 
d="M44 0l2 7h351q-24 -4 -50 -5.5t-54 -1.5h-249zM672 530q28 0 50 -8h-488l3 8h435zM176 364h194l-11 -30h-194zM780 364q-2 -8 -3.5 -15t-3.5 -15h-199q2 5 3 10.5t1 10.5q0 6 -1 9h203zM155 305h194l-13 -34h-194zM762 305q-7 -17 -18 -34h-200q9 11 15 25l3 9h200z
M133 245h194l-14 -37h-194zM725 241q-6 -9 -11.5 -17t-10.5 -16h-216q11 9 21 18t18 19h202q-1 -2 -3 -4zM111 186h194l-14 -40h-194zM687 186q-8 -11 -16 -21t-16 -19h-284q44 14 85 40h231zM769 483q4 -6 6.5 -12t4.5 -12h-569l9 24h549zM786 413v-8t-1 -8h-597l10 27h587
q0 -3 0.5 -6t0.5 -5zM565 67q-46 -30 -106 -47h-408l17 47h497zM636 126q-11 -12 -23 -23t-25 -20h-514l15 43h547zM770 497h-24l3 14l-18 17l1 5q-31 11 -60 11h-444l-15 -36h8l11 -11h-21l-21 -52h8l7 -7h-16l-22 -55h8l5 -5h-13l-23 -58h8l1 -1h-7l-25 -62h2l-25 -63h1
l-19 -54h-1l-20 -59l-22 -60h-2l-10 -35h7l17 -17h264q30 0 57 1.5t51 5.5l-1 13h62q59 17 109 49l-4 14h24q31 23 53 46l-7 17h22q11 12 20.5 23t16.5 22l-9 17h21q4 5 8.5 12.5t8.5 12.5h1l4 6l4 6q1 1 3.5 5.5t8.5 16.5l-4 4h8q7 11 12 21l10 20l-10 15l-7 7h27
q3 9 5 18.5t4 20.5l-11 13l-6 6v1l-4 4h24q2 11 2.5 17t0.5 10v5q0 2 -0.5 8.5t-0.5 8.5l-13 13h13q-5 11 -9 22t-9 19l-10 10q-2 4 -3.5 6.5t-3.5 5.5zM340 177l23 59l-4 4h4l22 56l-7 7h8l20 52l-11 11h167q2 -6 2 -8v-3q0 -3 -3 -13.5t-6 -21.5h7l1 -1h-10l-7 -17
q-8 -19 -31 -45h2q-9 -11 -26 -25.5t-37 -31.5h-3q-23 -14 -46 -25t-43 -18l2 -17h-37z" />
    <glyph glyph-name="FL0045h" unicode="E" horiz-adv-x="657" 
d="M556 7q-4 -4 -6.5 -5.5l-2.5 -1.5h-503l2 7h510zM807 530l-2 -4l-2 -4h-569l3 8h570zM176 364h192l-11 -30h-192zM155 305h191l-12 -34h-192zM111 186h191l-14 -40h-191zM391 305h230l-36 -34h-229zM776 483q-5 -6 -9.5 -12t-9.5 -12h-546l9 24h556zM726 424
q-10 -10 -18 -17t-14 -10h-506l10 27h528zM133 245h191l-2 -7l7 7h229l-39 -37h-400zM662 126q-5 -9 -12 -20t-9 -13t-4 -5t-4 -5h-559l15 43h573zM618 67q-11 -13 -23.5 -25t-23.5 -22h-520l17 47h550zM664 140h-340l13 37h207l62 59l-4 4h8l59 56l-18 18l5 5h-266l14 36
l-11 11h324q15 8 37 30l-8 19l-13 13h50l12 16q2 3 5 6t5 6l-9 18l-13 12l-2 5h53q0 3 -0.5 5l-0.5 2l3.5 7.5t8.5 15.5l-18 18q1 1 3 5h-602l-15 -36h8l11 -11h-21l-21 -52h8l7 -7h-16l-22 -55h8l5 -5h-13l-23 -58h8l1 -1h-7l-25 -62h2l-25 -63h1l-19 -54h-1l-20 -59
l-22 -60h-2l-10 -35h7l17 -17h521q6 3 7.5 4t6.5 6l-4 10h15q11 11 25 24t26 27l-6 12h18q2 2 4.5 5t4.5 6l2 2q2 2 10 14t13 21l-10 17l-11 10z" />
    <glyph glyph-name="FL0046h" unicode="F" horiz-adv-x="653" 
d="M44 0l2 7h191l-2 -7h-191zM807 530l-2 -4l-2 -4h-569l3 8h570zM176 364h192l-11 -30h-192zM155 305h191l-12 -34h-192zM111 186h191l-14 -40h-191zM391 305h230l-36 -34h-229zM89 126h191l-15 -43h-191zM68 67h191l-17 -47h-191zM776 483q-5 -6 -9.5 -12t-9.5 -12h-546
l9 24h556zM726 424q-10 -10 -18 -17t-14 -10h-506l10 27h528zM133 245h191l-2 -7l7 7h229l-39 -37h-400zM228 544l-15 -36h8l11 -11h-21l-21 -52h8l7 -7h-16l-22 -55h8l5 -5h-13l-23 -58h8l1 -1h-7l-25 -62h2l-25 -63h1l-19 -54h-1l-20 -59l-22 -60h-2l-10 -35h7l17 -17h215
l7 26l1 3l20 54h1l21 63h2l21 62h207l62 59l-4 4h8l59 56l-18 18l5 5h-266l14 36l-11 11h324q15 8 37 30l-8 19l-13 13h50l12 16q2 3 5 6t5 6l-9 18l-13 12l-2 5h53q0 3 -0.5 5l-0.5 2l3.5 7.5t8.5 15.5l-18 18q1 1 3 5h-602z" />
    <glyph glyph-name="FL0047h" unicode="G" horiz-adv-x="672" 
d="M474 0q-25 0 -49.5 1.5t-48.5 5.5h249l-2 -7h-149zM817 530q-4 -6 -6 -8h-462q29 8 55 8h413zM375 364q-6 -7 -11 -14.5t-10 -15.5h-194q3 8 6.5 15l7.5 15h201zM337 298q-2 -8 -4 -14.5t-3 -12.5h-185q1 16 6 34h188q-1 -2 -1 -4q0 -1 -1 -3zM330 245q3 -20 12 -37h-197
q-2 8 -2 17v18v2h187zM511 186h182l-15 -40h-181zM356 186q9 -12 20 -22.5t22 -17.5h-238q-8 18 -12 40h208zM453 271q7 9 14 17.5t15 16.5h256l-12 -34h-273zM406 208q4 6 11 15.5t16 21.5h283l-14 -37h-296zM759 459h-515q7 6 13.5 12t14.5 12h508zM696 397h-504
q5 7 10 13.5t10 13.5h514zM316 20q-27 8 -51 19t-44 28h427l-18 -47h-314zM203 83q-18 17 -33 43h501l-17 -43h-451zM819 544h-415q-33 0 -64 -10l3 -26h6l11 -11h-94q-5 -4 -16 -14l-22 -20q-5 -5 -11 -10.5t-8 -7.5h10l7 -7h-21q-3 -3 -8 -11t-11 -16.5t-11.5 -16.5
t-7.5 -11h8l5 -5h-15q-5 -11 -10.5 -22.5t-15.5 -35.5h8l1 -1h-9q-2 -11 -4.5 -25.5t-4.5 -34.5h-1v-16q0 -10 0.5 -19.5t2.5 -23.5h-2q3 -16 7 -31t10 -29h-1q11 -18 20.5 -33t19.5 -26h-5q5 -5 11 -9t11 -9l6 -5q34 -28 64.5 -44.5t59.5 -24.5h46l13 -13q24 -4 50 -5.5
t52 -1.5h158l7 25l25 64h-1l24 59h-1l23 60l23 59l-4 4h6l19 56l-18 18l2 5h-280q-2 -3 -5.5 -6t-5.5 -6q-9 -10 -16.5 -18.5t-9.5 -10.5l10 -19h-25q-2 -2 -3 -4.5t-2 -3.5l-2 -3l-4 -4q-8 -10 -12.5 -16.5t-9.5 -14.5l12 -19h5l17 -17h67l-13 -37h-45q-21 13 -36 23.5
t-24 20.5q-6 14 -9 24.5t-5 18.5l-13 13h12q2 11 3 18.5t3 12.5q3 4 3 11q0 1 0.5 7t0.5 7l-7 7h17q5 9 11.5 18.5t11.5 15.5l-8 18l-11 11h336l54 49l-13 13h22l41 46l-17 17h29q5 5 10 13l-9 17l-13 12z" />
    <glyph glyph-name="FL0048h" unicode="H" horiz-adv-x="686" 
d="M452 0l2 7h190l-2 -7h-190zM46 7h192l-2 -7h-192zM645 530h190l-3 -8h-190zM237 530h192l-3 -8h-192zM628 483h190l-9 -24h-190zM220 483h192l-9 -24h-192zM606 424h190l-10 -27h-190zM198 424h192l-10 -27h-192zM584 364h190l-11 -30h-190zM176 364h192l-11 -30h-192z
M155 305h192l-13 -34h-192zM519 186h190l-14 -40h-190zM111 186h192l-14 -40h-192zM497 126h190l-15 -43h-190zM89 126h192l-15 -43h-192zM476 67h190l-17 -47h-190zM68 67h192l-17 -47h-192zM398 305h355l-13 -34h-375zM133 245h192l-9 -25l24 25h391l-14 -37h-598z
M213 508h8l11 -11h-21l-21 -52h8l7 -7h-16l-22 -55h8l5 -5h-13l-23 -58h8l1 -1h-7l-25 -62h2l-25 -63h1l-19 -54h-1l-20 -59l-22 -60h-2l-10 -35h7l17 -17h216l7 26l1 3l20 54v1l1 -1l21 63h2l21 62h163l-13 -37h-1l-20 -59l-22 -60h-2l-10 -35h7l17 -17h214l7 26l1 3l20 54
h1l21 63h2l21 62l23 59l-4 4h4l22 56l-7 7h8l20 52l-11 11h14l19 49l-13 13h17l18 46l-17 17h22l12 30l-18 17l3 6h-220l-15 -36h8l11 -11h-21l-21 -52h8l7 -7h-16l-22 -55h8l5 -5h-13l-23 -58h8l1 -1h-169l-4 -4l16 40l-11 11h14l19 49l-13 13h17l18 46l-17 17h22l12 30
l-18 17l3 6h-222zM376 303v-1v1z" />
    <glyph glyph-name="FL0049h" unicode="I" horiz-adv-x="648" 
d="M39 1q0 1 3 6h511q-8 -7 -15 -7h-499v1zM290 522q3 2 5.5 4t5.5 4h501l-2 -4l-2 -4h-508zM360 364h192l-11 -30h-192zM339 305h192l-13 -34h-192zM317 245h192l-14 -37h-192zM295 186h192l-14 -40h-192zM251 483h520q-5 -6 -9.5 -12t-9.5 -12h-522zM183 397q3 7 19 27
h519q-10 -10 -18 -17t-14 -10h-506zM102 83q11 12 22 23.5t21 19.5h508q-5 -9 -13 -20t-17 -23h-521zM51 20q8 9 17.5 21t20.5 26h521q-11 -14 -21.5 -26t-20.5 -21h-517zM256 508h10l11 -11h-32l-45 -52h9l7 -7h-21q-10 -13 -17 -22.5t-9 -14.5l12 -18h5l17 -17h143
l-18 -46h8l1 -1h-7l-25 -62h2l-25 -63h1l-19 -54h-123q-19 -16 -30 -27t-21 -22l4 -10h-12q-2 -3 -5.5 -7t-6.5 -8q-4 -5 -10 -12t-9 -11h1q-4 -5 -8 -9t-6 -7l3 -6h-6q-10 -15 -10 -20v-15h6l17 -17h510q7 0 34 20l2 2t4 3.5t5 3.5l-1 1q11 11 22.5 24t23.5 29h1
q11 15 22 31t22 34l-18 17q1 2 2 3t2 3h-170l13 37l23 59l-4 4h4l22 56l-7 7h8l20 52l-11 11h135q8 5 22.5 17.5t33.5 31.5l-13 13h23l12 16q1 1 4.5 5.5t7 9.5t7 9t4.5 6l-17 17h33q0 3 -0.5 5l-0.5 2l3.5 7.5t8.5 15.5l-18 18q1 1 3 5h-525q-12 -4 -17 -9z" />
    <glyph glyph-name="FL004Ah" unicode="J" horiz-adv-x="605" 
d="M564 530h190l-3 -8h-190zM39 0q2 4 4 7h403q-16 -4 -33.5 -5.5t-37.5 -1.5h-336zM547 483h190l-9 -24h-190zM525 424h190l-10 -27h-189zM504 364h189l-11 -30h-189zM482 305h189l-12 -34h-189zM441 208q10 15 15 25l4 12h190q-4 -10 -7.5 -19t-6.5 -18h-195zM380 146
q13 7 24.5 17.5t21.5 22.5h201q-5 -11 -9.5 -21t-9.5 -19h-228zM94 83q8 11 17 21.5t20 21.5h467q-14 -25 -28 -43h-476zM51 20q8 12 15.5 23.5t15.5 23.5h474q-30 -31 -67 -47h-438zM540 508h8l11 -11h-21l-21 -52h8l7 -7h-16l-19 -55h7l5 -5h-14l-23 -58h8l1 -1h-9
l-21 -60l-7 -19l-1 -2q-4 -8 -7 -13.5t-7 -10.5l7 -14h-17q-11 -13 -22.5 -24t-25.5 -18l4 -18h-250q-16 -16 -26 -27.5t-18 -22.5l4 -9h-10q-8 -12 -18.5 -27t-18.5 -27l3 -6h-5q-8 -11 -9.5 -13.5t-1.5 -3.5l12 -18h5l17 -17h336q20 0 38.5 1.5t37.5 6.5l-1 12h41
q44 19 91 69h-1q15 21 36 59h-1q5 11 13.5 30t13.5 30q2 6 5.5 14.5t9.5 22.5q1 3 3 11t3 11l-4 4h7l19 56l-7 7h10l20 52l-11 11h14l19 49l-13 13h17l18 46l-17 17h22l12 30l-18 17l3 6h-220z" />
    <glyph glyph-name="FL004Bh" unicode="K" horiz-adv-x="730" 
d="M46 7h192l-2 -7h-192zM733 0h-214l-6 7h215zM237 530h192l-3 -8h-192zM673 530h214l-11 -8h-214zM220 483h192l-9 -24h-192zM198 424h192l-10 -27h-192zM607 483h218l-31 -24h-220zM176 364h192l-11 -30h-192zM525 424h223l-35 -27h-225zM442 364h228l-39 -30h-231z
M111 186h193l-15 -40h-192zM89 126h193l-16 -43h-192zM68 67h192l-17 -47h-192zM365 186h233l29 -40h-229zM415 126h227l31 -43h-223zM463 67h221l34 -47h-216zM155 305h192l-5 -13l18 13h233l-44 -34h-407zM312 208h-193l14 37h422l27 -37h-235l-24 30zM213 508h8l11 -11
h-21l-21 -52h8l7 -7h-16l-22 -55h8l5 -5h-13l-23 -58h8l1 -1h-7l-25 -62h2l-25 -63h1l-19 -54h-1l-20 -59l-22 -60h-2l-10 -35h7l17 -17h216l7 26l1 3l20 54l25 65h-1l23 60h-1l5 13l41 -50l58 -71h1l52 -63l17 -20h4l17 -17h240l-21 29l-2 2l-38 52h1l-47 65l-2 1l-42 59
l-43 59l-6 5l72 55l-7 7h16l68 52l-11 11h25l64 49l-13 13h30l60 46l-17 17h38l41 30l-18 18l7 5h-260l-50 -36h12l11 -11h-39l-72 -52h12l7 -7h-29l-75 -55h12l5 -5h-25l-35 -25l1 2l-11 11h14l19 49l-13 13h17l18 46l-17 17h22l12 30l-18 17l3 6h-222z" />
    <glyph glyph-name="FL004Ch" unicode="L" horiz-adv-x="592" 
d="M425 522h-191l3 8h191zM46 7h445q-2 -2 -4 -3.5t-4 -3.5h-439zM220 483h191l-9 -24h-191zM198 424h191l-10 -27h-191zM176 364h191l-11 -30h-191zM155 305h191l-13 -34h-191zM133 245h191l-14 -37h-191zM111 186h191l-14 -40h-191zM595 126q-5 -7 -14 -18t-20 -25h-487
l15 43h506zM548 67q-11 -13 -21.5 -24.5t-21.5 -22.5h-454l17 47h480zM597 140h-273l13 37l23 59l-4 4h4l22 56l-7 7h8l20 52l-11 11h14l19 49l-13 13h17l18 46l-17 17h22l12 30l-18 17l3 6h-221l-15 -36h8l11 -11h-21l-21 -52h8l7 -7h-16l-22 -55h8l5 -5h-13l-23 -58h8
l1 -1h-7l-25 -62h2l-25 -63h1l-19 -54h-1l-20 -59l-22 -60h-2l-10 -35h7l17 -17h459l6 6q0 1 5 5t10 9h1q10 10 20.5 22.5t21.5 24.5h1l22 22l-2 2q11 12 18.5 22.5l12.5 17.5l-9 17l-13 13z" />
    <glyph glyph-name="FL004Dh" unicode="M" horiz-adv-x="868" 
d="M399 0l-1 7h76l-6 -7h-69zM44 0l2 7h192l-2 -7h-192zM632 0l2 7h192l-2 -7h-192zM237 530h242l1 -8h-246zM775 530h242l-3 -8h-247zM387 67h142l-43 -47h-91zM220 483h268l4 -24h-281zM731 483h269l-9 -24h-282zM133 245h192l-14 -37h-192zM721 245h192l-14 -37h-192z
M111 186h192l-14 -40h-192zM699 186h192l-14 -40h-192zM376 126h207l-39 -43h-160zM677 126h192l-15 -43h-192zM89 126h192l-15 -43h-192zM198 424h301l5 -27h-316zM677 424h301l-10 -27h-316zM656 67h192l-17 -47h-192zM68 67h192l-17 -47h-192zM365 186h273l-37 -40h-229z
M176 364h334l6 -30h-351zM622 364h334l-11 -30h-351zM354 245h337l-33 -37h-297zM740 298l-25 -27h-179l32 34h367l-13 -34h-192zM334 271h-192l13 34h367l6 -34h-179l-5 27zM881 52v1l1 -1l21 63h2l21 62l23 59l-4 4h4l22 56l-7 7h8l20 52l-11 11h14l19 49l-13 13h17l18 46
l-17 17h22l12 30l-18 17l3 6h-269l-36 -36h10l11 -11h-28l-49 -52h10l7 -7h-22l-52 -55h10l5 -5h-19l-55 -58h10l1 -1h-10l-13 -13l-10 49l-11 11h9l-9 49l-13 13h10l-8 46l-16 16v1h11l-3 30l-17 16v7h-264l-15 -36h8l11 -11h-21l-21 -52h8l7 -7h-16l-22 -55h8l5 -5h-13
l-23 -58h8l1 -1h-7l-25 -62h2l-25 -63h1l-19 -54h-1l-20 -59l-22 -60h-2l-10 -35h7l17 -17h216l7 26l1 3l20 54h1l21 63h2l21 62l9 24l2 -7l11 -62l10 -51l2 -12l11 -63l3 -20h6l17 -17h84l16 20h1l57 63h1l57 63l2 2l53 56l-12 -33h-1l-20 -59l-22 -60h-2l-10 -35h7l17 -17
h216l7 26l1 3zM546 303l-1 -2l-1 2h2z" />
    <glyph glyph-name="FL004Eh" unicode="N" horiz-adv-x="686" 
d="M46 7h192l-2 -7h-192zM645 530h190l-3 -8h-190zM400 0l-1 7h245l-2 -7h-242zM237 530h242l1 -8h-246zM628 483h190l-9 -24h-190zM606 424h190l-10 -27h-190zM584 364h190l-11 -30h-190zM563 305h190l-13 -34h-190zM220 483h268l4 -24h-281zM133 245h192l-14 -37h-192z
M111 186h192l-14 -40h-192zM89 126h192l-15 -43h-192zM198 424h301l5 -27h-316zM68 67h192l-17 -47h-192zM176 364h334l6 -30h-351zM387 67h279l-17 -47h-253zM334 271h-192l13 34h367l6 -34h-179l-5 27zM376 126h311l-15 -43h-288zM365 186h344l-14 -40h-323zM536 232l5 13
h190l-14 -37h-356l-7 37h179zM621 508h8l11 -11h-21l-21 -52h8l7 -7h-16l-22 -55h8l5 -5h-13l-23 -58h8l1 -1h-7l-5 -12l-10 48l-11 11h9l-9 49l-13 13h10l-8 46l-16 16v1h11l-3 30l-17 16v7h-264l-15 -36h8l11 -11h-21l-21 -52h8l7 -7h-16l-22 -55h8l5 -5h-13l-23 -58h8
l1 -1h-7l-25 -62h2l-25 -63h1l-19 -54h-1l-20 -59l-22 -60h-2l-10 -35h7l17 -17h216l7 26l1 3l20 54v1l1 -1l21 63h2l21 62l9 24l2 -7l11 -62l24 -126l3 -20h6l17 -17h261l7 26l1 3l20 54h1l21 63h2l21 62l23 59l-4 4h4l22 56l-7 7h8l20 52l-11 11h14l19 49l-13 13h17l18 46
l-17 17h22l12 30l-18 17l3 6h-220zM544 303h3l-1 -3z" />
    <glyph glyph-name="FL004Fh" unicode="O" horiz-adv-x="753" 
d="M548 7q-29 -7 -63 -7h-100q-52 0 -93 7h256zM381 522q32 8 60 8h132q27 0 51 -2t46 -6h-289zM819 351v-9q0 -3 -1 -8h-195q-3 19 -11 30h207v-13zM161 334q4 8 8 15t9 15h215q-18 -14 -33 -30h-199zM138 271q4 15 11 34h190q-2 -3 -4 -7q-9 -17 -11 -27h-186zM813 287
q-1 -5 -1.5 -8.5t-1.5 -7.5h-188l1 2q1 8 1.5 16t0.5 16h191zM129 208q0 8 1 16.5t3 18.5v2h187v-1q0 -18 6 -36h-197zM803 245q-3 -10 -6 -19t-7 -18h-201q12 13 17 24q2 3 3.5 6.5t3.5 6.5h190zM132 146q-3 18 -3 40h207q14 -26 36 -40h-240zM779 186q-13 -22 -25 -40
h-247q14 7 30 17t30 23h212zM261 459l16 12t17 12h469q13 -11 24 -24h-526zM200 397q5 7 11 13.5t12 13.5h584q2 -7 3.5 -13.5t3.5 -13.5h-614zM677 67q-39 -30 -85 -47h-350q-44 15 -73 47h508zM739 126q-18 -22 -42 -43h-540q-7 9 -11.5 20t-8.5 23h602zM378 508h6l11 -11
h-105q-2 -2 -10 -7t-14 -10q-1 -1 -2 -1l-1 -1t-5 -3q-2 -1 -4 -2.5t-4 -2.5l9 -25h5l7 -7h-53q-2 -2 -5 -5.5t-6 -6.5q-7 -7 -11.5 -12t-8.5 -10l11 -21h5l5 -5h-38l-2.5 -5l-1.5 -3q-5 -8 -10.5 -17t-8.5 -15l12 -18h5l1 -1h-25l-10.5 -28t-6.5 -17l12 -15h-16v-16
q0 -1 -1 -1v0q-2 -8 -2.5 -16t-0.5 -19l7 -7h-7q0 -39 3 -57l3 -3h-2q5 -17 10.5 -32t12.5 -27h-4q26 -31 56 -51q32 -29 67 -41h34l13 -13q41 -7 97 -7h100q37 0 66 7l-2 13h44q50 18 91 49l-5 14h22q29 24 47 47l-8 16h20q9 12 16 23.5t13 22.5l-10 16h18q8 17 11.5 27.5
t5.5 17.5l-11 14l-4 4h20q1 4 2.5 12t2.5 13l5 31l-7 7h5q2 14 2.5 19t0.5 9v24l-11 11h9l-4.5 18t-9.5 31l-13 13h9q-5 6 -9.5 11.5t-8.5 10.5q-13 17 -24 28.5t-20 18.5h-76l2 16l-18 17l1 6q-22 4 -47.5 6t-56.5 2h-132q-33 0 -66 -9zM360 180q-9 27 -9 44v12l-4 4h6
q4 19 12 33q2 3 4 7.5t10 15.5l-7 7h12q13 15 63 52l-11 11h158q8 -14 11.5 -24.5t5.5 -21.5h6l1 -1h-7q0 -14 -0.5 -23.5t-1.5 -16.5l-9 -20h-1q0 -1 -0.5 -4.5t-0.5 -5.5v-4q-2 -2 -2 -3l1 1q-2 -2 -3.5 -4.5l-1.5 -2.5q-2 -5 -10 -14t-19 -22h-1q-14 -14 -32.5 -25
t-35.5 -19l3 -16h-89q-25 17 -45 35v2zM799 463l-1 1q1 0 1 -1z" />
    <glyph glyph-name="FL0050h" unicode="P" horiz-adv-x="707" 
d="M46 7h192l-2 -7h-192zM237 530h459q19 0 37 -8h-499zM176 364h192l-11 -30h-192zM795 364q-2 -17 -6 -30h-203q5 7 10.5 15.5t7.5 12.5l1 2h190zM155 305h192l-13 -34h-192zM111 186h193l-15 -40h-192zM89 126h193l-16 -43h-192zM68 67h192l-17 -47h-192zM776 305
q-5 -9 -11 -17.5t-13 -16.5h-396l39 34h381zM773 483l6 -12t5 -12h-573l9 24h553zM793 424q3 -15 3 -27h-608l10 27h595zM725 245q-27 -23 -62 -37h-544l14 37h192l-1 -3l3 3h398zM775 497h-17l4 13l-17 17l1 5q-24 12 -50 12h-468l-15 -36h8l11 -11h-21l-21 -52h8l7 -7h-16
l-22 -55h8l5 -5h-13l-23 -58h8l1 -1h-7l-25 -62h2l-25 -63h1l-19 -54h-1l-20 -59l-22 -60h-2l-10 -35h7l17 -17h216l7 26l1 3l20 54l25 65h-1l23 60h345q18 8 35 17.5t32 22.5l-7 19l-4 4h35q10 11 18 21.5t12 18.5l-10 16l-7 7h27q8 25 10 40l-11 12l-6 6v3l-2 2h20
q0 25 -3 40l-16 16q-1 1 -1 5l-1 1h14q-7 18 -10.5 26t-6.5 14l-14 13q-2 4 -4 10zM404 355l-11 11h196q-5 -8 -13.5 -21t-18.5 -25h9l1 -1h-177z" />
    <glyph glyph-name="FL0051h" unicode="Q" horiz-adv-x="746" 
d="M379 522q16 4 31 6t31 2h132q42 0 80 -8h-274zM813 364q1 -6 1 -13v-12v-5h-195q-5 16 -15 30h209zM161 334l7.5 15t8.5 15h216q-18 -14 -33 -30h-199zM809 287q-1 -5 -1.5 -8.5t-1.5 -7.5h-184l1 2q1 1 1 10v12v10h187q0 -5 -0.5 -9t-1.5 -9zM138 271q2 8 4.5 17t5.5 17
h191q-2 -3 -4 -7q-9 -17 -11 -27h-186zM130 208q0 17 3 35v2h187v-1q0 -18 6 -36h-196zM718 -28h-200l-17 28h-90q-26 0 -50 1.5t-47 5.5h386zM135 146q-5 20 -5 40h206q14 -26 36 -40h-237zM260 459q8 6 16 12.5t16 11.5h454q15 -12 26 -24h-512zM771 186q-11 -19 -27 -40
h-328l-18 40h373zM798 245q-3 -10 -7 -19t-9 -18h-394l-17 37h210l16 -30q2 4 4.5 8t4.5 9q2 3 3.5 6.5t3.5 6.5h185zM200 397q5 7 10.5 13.5t11.5 13.5h573q3 -7 6 -13.5t5 -13.5h-606zM261 20q-49 15 -82 47h490l24 -47h-432zM728 126q-19 -24 -41 -43h-522q-14 17 -24 43
h587zM376 508h6l11 -11h-105q-16 -11 -21 -14.5t-8 -6.5q-1 -1 -2 -1.5t-3 -2.5l-1 -1q-1 -1 -6 -1l11 -25h5l7 -7h-53q-2 -2 -3.5 -4t-3.5 -4q-5 -5 -13.5 -15.5l-8.5 -10.5l10 -21h5l5 -5h-39q-5 -8 -11.5 -20t-10.5 -20l12 -18h5l1 -1h-26l-4 -10t-3 -10q-3 -9 -5 -17
q-1 -1 -1 -2v-1q0 -1 -0.5 -2.5t-0.5 -2.5l9 -15h-15v-14q-3 -18 -3 -38l7 -7h-7q0 -22 1.5 -35.5t3.5 -22.5l2 -2h-3q7 -17 14 -31.5t16 -27.5h-6q8 -8 17 -15.5t17 -14.5q53 -47 100 -61l3 -1h36l13 -13q23 -4 48 -5.5t53 -1.5h72l7 -11h5l17 -17h224l-29 57l-1 1l-27 53
h12q14 12 25.5 24t20.5 23l-8 16h21q15 21 31 46l-10 16h18q6 12 11.5 23.5t8.5 21.5l-11 14l-4 4h21q1 4 2.5 12t2.5 13t1.5 11t0.5 20l-7 7h10v16v13t-1 13l-17 16v5h14q-6 19 -10.5 29.5t-8.5 19.5l-13 13h7l-2 2l-7.5 7.5t-6.5 7.5h2q-20 22 -31.5 34t-19.5 18h-76l2 16
l-18 17l1 6q-38 8 -87 8h-132q-34 0 -68 -9zM365 273q2 3 4 7.5t10 15.5l-7 7h12q13 15 63 52l-11 11h148q10 -14 15.5 -25t8.5 -21h5l1 -1h-4v-40l-10 -20h-1q0 -1 -0.5 -4.5t-0.5 -5.5v-4l-3 3l-5 11h-232q4 10 7 14zM363 177l-3 3q-9 27 -9 44v12l-4 4h6l1 6l22 -46
l25 -55q-24 16 -38 30v2zM785 460l-1 1q1 0 1 -1z" />
    <glyph glyph-name="FL0052h" unicode="R" horiz-adv-x="725" 
d="M46 7h192l-2 -7h-192zM733 0h-214l-8 7h215zM237 530h446q23 0 42 -8h-491zM176 364h192l-11 -30h-192zM792 364q-1 -8 -2 -15.5t-3 -14.5h-202q7 5 10 13.5t4 16.5h193zM155 305h192l-13 -34h-192zM289 146h-192l14 40h196l-5 -4zM89 126h192l-15 -43h-192zM68 67h192
l-17 -47h-192zM317 186h234l39 -40h-229zM382 126h228l42 -43h-223zM446 67h221l46 -47h-216zM775 305q-5 -10 -11.5 -18t-14.5 -16h-396l34 34h388zM768 483q7 -12 12 -24h-569l9 24h548zM789 424q1 -7 2 -13.5t1 -13.5h-604l10 27h591zM714 245q-26 -15 -55.5 -23.5
t-60.5 -13.5h-479l14 37h192l-2 -5l5 5h386zM213 508h8l11 -11h-21l-21 -52h8l7 -7h-16l-22 -55h8l5 -5h-13l-23 -58h8l1 -1h-7l-25 -62h2l-25 -63h1l-19 -54h-1l-20 -59l-22 -60h-2l-10 -35h7l17 -17h216l7 26l1 3l20 54h1l21 63h1l14 39l1 1l16 -15l64 -59l65 -60h-2
l40 -35h1l20 -17h245l-17 17h4l-35 35l-47 48h1l-62 63l-8 8l-37 37h41q31 5 61.5 13.5t58.5 25.5l-6 20l-4 4h44q9 9 17 19t14 21l-10 16l-7 7h26q5 17 6.5 25t2.5 15l-11 12l-6 6v3l-2 2h19q0 14 -0.5 20t-1.5 11q-1 2 -1 7l-17 17v4l-3 3h16q-5 13 -9.5 23t-9.5 18
l-12 11q-2 3 -2.5 6t-2.5 5l-11 6h-20l4 13l-17 17l1 5q-26 12 -54 12h-455zM404 355l-11 11h189q-4 -10 -12.5 -21.5t-25.5 -24.5h11l1 -1h-166z" />
    <glyph glyph-name="FL0053h" unicode="S" horiz-adv-x="692" 
d="M55 0q2 4 4 7h540q-15 -7 -34 -7h-510zM840 530q-2 -2 -2.5 -4t-2.5 -4h-541q19 8 36 8h510zM375 340q3 -3 9 -6h-209q-1 5 -1 9v10v11h192q-1 -4 -1 -9v-5q0 -1 4 -4.5t6 -5.5zM519 174q0 4 -2 12h188q1 -4 1 -12v-6q0 -5 -0.5 -11t-1.5 -11h-187q2 5 2 16v12zM805 483
l-10 -12l-10 -12h-566l10 12l10 12h566zM725 397h-542q3 7 5.5 13.5t6.5 13.5h557zM651 305q8 -8 15.5 -16t12.5 -18h-483q-9 17 -15 34h470zM692 245q4 -9 6 -18.5t4 -18.5h-440q-27 11 -48 37h478zM113 83q11 14 20 25t16 18h550q-4 -11 -9 -21.5t-11 -21.5h-566zM67 20
q7 10 15.5 22t18.5 25h568q-20 -29 -47 -47h-555zM842 544h-512q-23 0 -48 -12l5 -24h6l11 -11h-71q-3 -3 -9 -10.5t-13 -15.5t-13 -15.5t-8 -10.5h9l7 -7h-20q-5 -11 -12 -28q-1 -2 -5 -12t-4 -15h6l5 -5h-16v-25v-16q0 -8 2 -17h6l1 -1h-7q6 -21 12.5 -35.5t11.5 -24.5h-2
q26 -35 53 -53q21 -20 43 -29h223q0 -3 2 -5v-10q0 -3 -0.5 -7t-5.5 -15h-356q-10 -10 -21 -23t-22 -27l4 -9h-10q-8 -11 -18.5 -26l-17.5 -25q-1 -2 -2 -2t-2 -2l2 -5h-4q-8 -11 -9.5 -13.5t-1.5 -3.5l12 -18h5l17 -17h510q20 0 43 10l-2 10h19q34 23 65 69h-1
q6 11 12 24.5t12 32.5h1q1 8 2 16.5t1 16.5v6q0 4 -0.5 9t-2.5 14h1q-2 14 -5 27.5t-8 24.5l-11 11h7q-18 30 -33 45q-7 10 -13.5 17.5t-12.5 13.5l-7 3h-240l1 3l-17 17l1 5h-1q1 2 1.5 4.5t2.5 6.5l-11 11h361l49 49l-13 13h25q2 3 6.5 8t6.5 8q6 8 9 11l-8 19l-14 14
l-2 3h51q4 4 6 8l2 3l-8 19l-14 14z" />
    <glyph glyph-name="FL0054h" unicode="T" horiz-adv-x="648" 
d="M230 7h192l-2 -7h-192zM290 522q3 2 5.5 4t5.5 4h501l-2 -4l-2 -4h-508zM360 364h192l-11 -30h-192zM339 305h192l-13 -34h-192zM317 245h192l-14 -37h-192zM295 186h192l-14 -40h-192zM273 126h192l-15 -43h-192zM252 67h192l-17 -47h-192zM251 483h520q-5 -6 -9.5 -12
t-9.5 -12h-522zM183 397q3 7 19 27h519q-10 -10 -18 -17t-14 -10h-506zM256 508h10l11 -11h-32l-45 -52h9l7 -7h-21q-10 -13 -17 -22.5t-9 -14.5l12 -18h5l17 -17h143l-18 -46h8l1 -1h-7l-25 -62h2l-25 -63h1l-19 -54h-1l-20 -59l-22 -60h-2l-10 -35h7l17 -17h216l7 26l1 3
l20 54h1l21 63h2l21 62l23 59l-4 4h4l22 56l-7 7h8l20 52l-11 11h135q8 5 22.5 17.5t33.5 31.5l-13 13h23l12 16q1 1 4.5 5.5t7 9.5t7 9t4.5 6l-17 17h33q0 3 -0.5 5l-0.5 2l3.5 7.5t8.5 15.5l-18 18q1 1 3 5h-525q-12 -4 -17 -9zM477 52v1l1 -1h-1z" />
    <glyph glyph-name="FL0055h" unicode="U" horiz-adv-x="714" 
d="M426 530q-1 -2 -1.5 -4t-1.5 -4h-189l3 8h189zM860 522h-190l3 8h190zM367 0q-33 0 -60 1.5t-50 5.5h294q-15 -4 -32 -5.5t-35 -1.5h-117zM220 483h189q-2 -6 -4 -12.5t-4 -11.5h-190zM656 483h190l-9 -24h-190zM634 424h190l-10 -27h-189zM389 424l-9 -27h-191l10 27
h190zM613 364h189l-11 -30h-189zM369 364q-3 -8 -5.5 -15.5t-4.5 -14.5h-192l11 30h191zM773 283q-2 -3 -2.5 -6t-2.5 -6h-189l12 34h190zM148 271q2 8 4 16.5t5 17.5h192q-3 -11 -6 -19.5t-5 -14.5h-190zM759 245q-4 -10 -8 -19l-8 -18h-193q10 15 15 25l4 12h190zM131 208
q2 9 4.5 18t4.5 19h191q-1 -2 -0.5 -2.5t0.5 -1.5q-5 -22 -5 -32v-1h-195zM124 147q0 16 3 39h201q6 -28 24 -40h-228v1zM734 186q-5 -11 -10 -21t-10 -19h-231q15 7 27.5 17.5t22.5 22.5h201zM204 20q-44 16 -62 47h515q-31 -31 -67 -47h-386zM134 83q-7 18 -9 43h578
q-15 -24 -31 -43h-538zM428 544h-200l-15 -36h8l11 -11h-21l-21 -52h8l7 -7h-15l-22 -55h8l5 -5h-12l-23 -58h8l1 -1h-10q-1 -3 -1.5 -7t-1.5 -8q-2 -10 -3 -13q-1 -2 -1.5 -5t-1.5 -5q-2 -4 -2 -8l11 -14h-17q-2 -10 -5.5 -24.5t-5.5 -23.5l8 -11h-11q-2 -15 -3 -27.5
t-1 -25.5v-15q3 -33 9 -51h-2q22 -38 53 -60q20 -20 50 -31l4 -1h36l13 -13q23 -4 51 -5.5t63 -1.5h117q19 0 37.5 1.5t35.5 6.5l-2 12h37q21 9 44 26.5t48 42.5l-1 1q9 11 19 26t21 32l-1 1q5 8 8 15.5t7 14.5l3.5 7l3.5 7l-10 15h16l9 22q2 5 5 10.5t5 11.5l-10 15l-4 4
h20q1 2 2.5 6t2.5 6l2 3l14 41l-7 7h9l20 52l-11 11h14l19 49l-13 13h17l18 46l-17 17h22l12 30l-18 17l3 6h-220l-15 -36h8l11 -11h-21l-21 -52h8l7 -7h-16l-19 -55h7l5 -5h-14l-23 -58h8l1 -1h-9l-21 -60l-7 -19q-8 -16 -24 -40h-3q-11 -13 -25 -24.5t-31 -19.5l3 -16h-86
q-8 5 -14 10t-11 10q-2 5 -3 8.5t-2 8.5v12q0 8 5 30v17l-4 4h7q5 13 10 28t9 28l-7 7h9l6 17q2 8 7 20l-10 15l-11 11h29q2 6 6.5 16.5t6.5 18.5l-11 14l-6 6l-6 7h31q6 12 8 21q1 3 3.5 12.5t3.5 12.5l-17 17h28v5q0 4 1 5v1q0 2 1 3l-10 16l-10 9z" />
    <glyph glyph-name="FL0056h" unicode="V" horiz-adv-x="773" 
d="M521 7q-8 -7 -17 -7h-165q-9 0 -16 7h198zM401 530l1 -8h-174l-1 8h174zM726 530h206l-6 -8h-206zM233 483h174l3 -24h-173zM242 424h173l3 -27h-172zM689 483h207l-18 -24h-208zM251 364h172l4 -30h-172zM643 424h208l-20 -27h-209zM259 305h172l4 -34h-171zM597 364
h209l-23 -30h-210zM268 245h171l5 -37h-171zM551 305h210l-26 -34h-211zM504 245h211l-28 -37h-211zM577 62q-5 -7 -16 -19t-24 -23h-223q-11 20 -17 47h284zM293 83q-2 5 -2.5 9.5t-1.5 8.5l-4 25h340l-32 -43h-300zM459 186h212l-31 -40h-358l-6 40h171l2 -13zM691 508h9
l11 -11h-29l-41 -52h9l7 -7h-21l-43 -55h9l5 -5h-17l-46 -58h9l1 -1h-10l-49 -62l-25 -33l-1 12l-4 4h2l-6 56l-7 7h6l-7 52l-11 11h8l-5 49l-13 13h10l-5 46l-17 16v1h14l-3 30l-17 16v7h-203l4 -36h6l11 -11h-15l7 -52h6l7 -7h-11l7 -55h6l5 -5h-9l7 -58h6l1 -1h-6l8 -62
h1l8 -63h1l8 -62h1l5 -33v-2q0 -3 1 -4q0 -2 0.5 -3t0.5 -2q1 -3 1 -6q0 -2 1 -4q4 -16 8.5 -30.5t9.5 -26.5h-8q19 -19 31 -28q25 -24 39 -24h165q11 0 24 10l-4 10h16q17 14 29 27t17 19l18 23h-1l42 57h1l48 62h-1l45 59l-4 4h7l43 56l-7 7h12l40 52l-11 11h19l36 49
l-13 13h24l34 46l-17 17h31l22 30l-18 18l4 5h-241zM303 10q-2 2 -3.5 4t-3.5 4z" />
    <glyph glyph-name="FL0077h" unicode="W" horiz-adv-x="904" 
d="M716 7q-7 -7 -13 -7h-118q-6 0 -10 7h141zM383 7q-7 -7 -14 -7h-119q-6 0 -10 7h143zM562 530h154v-8h-159zM227 530h165v-8h-165v8zM887 530h176l-5 -8h-176zM227 483h165v-24h-165v24zM857 483h176l-16 -24h-175zM227 424h165v-27h-165v27zM531 483h188l1 -24h-204z
M820 424h175l-18 -27h-174zM227 364h165v-30h-165v30zM782 364h174l-20 -30h-173zM227 305h165v-34h-165v34zM493 424h230l2 -27h-249zM761 63q-5 -7 -14 -19.5t-19 -23.5h-157q-5 18 -9 47h201zM454 364h273l2 -30h-294zM426 63q-6 -7 -14 -19.5t-17 -23.5h-161
q-3 10 -4.5 22t-2.5 25h202zM227 91v35h243l-30 -43h-213v8zM560 83q-1 9 -2 20t-3 23h247l-28 -43h-214zM227 186h285l-28 -40h-257v40zM553 146q-1 9 -2 19t-2 21h292l-26 -40h-262zM745 305h173l-22 -34h-502l22 34h315l2 -19zM547 208q-1 6 -1.5 11.5t-1.5 12.5l-17 -24
h-300v37h652l-24 -37h-308zM531 508h9l11 -11h-28l-33 -52h9l7 -7h-21l-35 -55h9l5 -5h-18l-23 -36v13l-11 11h11v49l-13 13h13v46l-17 17h17v30l-17 17v6h-193v-36h6l11 -11h-17v-52h6l7 -7h-13v-55h6l5 -5h-11v-58h6l1 -1h-7v-238h-1q1 -16 2.5 -31t4.5 -29h-3
q2 -2 2.5 -4.5t2.5 -4.5q0 -2 2 -6h2q13 -18 21 -19l11 -11q7 -7 13 -7h119q12 0 22 10l-4 10h13q13 14 21 29q1 2 5.5 7.5t8.5 10.5l16 22h-1l39 57h1l27 39q2 -8 2 -9l5 -5h-3v-14q0 -4 0.5 -6.5t0.5 -3.5q2 -9 2.5 -16.5t1.5 -14.5v-4q5 -41 10 -60h-5q4 -9 9 -15
q13 -18 21 -19l11 -11q7 -7 13 -7h118q4 0 10 2.5t11 7.5l-4 10h12q10 11 17 20.5t12 15.5h1q2 3 4 6.5t4 5.5l1 1l7 14h2l40 63h1l40 62l38 59l-4 4h7l36 56l-7 7h11l34 52l-11 11h18l32 49l-13 13h21l30 46l-17 17h28l19 30l-18 17l4 6h-210l-23 -36h9l11 -11h-27l-33 -52
h9l7 -7h-20l-35 -55h9l5 -5h-17l-17 -27v4l-11 11h11l-4 49l-13 13h11l-1 46l-17 17h14v30l-17 17v6h-176z" />
    <glyph glyph-name="FL0058h" unicode="X" horiz-adv-x="690" 
d="M34 0l8 7h213l-8 -7h-213zM656 0h-213l-3 7h213zM442 530l3 -8h-214l-3 8h214zM634 530h214l-9 -8h-214zM247 483h213l10 -24h-214zM580 483h214l-27 -24h-214zM319 305h274l-39 -34h-221zM176 126h214l-49 -43h-214zM391 126h214l17 -43h-213zM415 67h214l19 -47h-213z
M109 67h214l-54 -47h-213zM311 245h246l15 -37h-303zM295 364h365l-34 -30h-319zM492 405l21 19h215l-31 -27h-416l-11 27h214zM244 186h337l16 -40h-398zM207 544l15 -36h5l11 -11h-12l21 -52h5l7 -7h-10l23 -55h5l5 -5h-8l24 -58h5l1 -1h-6l25 -60h-17l-67 -59l-7 -6
l-60 -54h-1l-81 -71l-53 -48l-17 -15l-23 -20h11l17 -17h246l33 29l61 54l7 6l23 20l24 -57l15 -35h5l17 -17h236l-9 20h1l-28 69h-1l-23 57h1l-25 62l-24 59l-5 5l63 55l-7 7h15l59 52l-11 11h23l56 49l-13 13h27l51 46l-17 17h38l33 30l-18 18l5 5h-254l-40 -36h11l11 -11
h-36l-58 -52h11l7 -7h-27l-5 -4l-16 40l-15 14l-1 3h10l-12 30l-15 14l-3 9h-244z" />
    <glyph glyph-name="FL0059h" unicode="Y" horiz-adv-x="688" 
d="M250 7h192l-2 -7h-192zM441 530l3 -8h-214l-3 8h214zM633 530h214l-9 -8h-214zM246 483h213l10 -24h-213zM579 483h214l-27 -24h-214zM337 245h192l-13 -37h-192zM316 186h192l-15 -40h-192zM294 126h192l-16 -43h-192zM318 305h274l-39 -34h-221zM272 67h192l-17 -47
h-192zM294 364h365l-34 -30h-319zM491 405l21 19h215l-31 -27h-415l-11 27h213zM588 508h11l11 -11h-36l-58 -52h11l7 -7h-27l-5 -4l-16 40l-15 14l-1 3h10l-12 30l-15 14l-3 9h-244l15 -36h5l11 -11h-12l22 -52h5l7 -7h-10l23 -55h5l5 -5h-9l24 -58h5l1 -1h-6l26 -62h3
l-19 -57l-27 -68h2l-25 -63h1l-17 -48h-2l-10 -35h7l17 -17h216l7 26l1 3l20 54l25 65h-1l23 60l20 59l-4 4h17l64 56l-7 7h15l59 52l-11 11h23l56 49l-13 13h27l51 46l-17 17h38l33 30l-18 18l5 5h-254z" />
    <glyph glyph-name="FL005Ah" unicode="Z" horiz-adv-x="648" 
d="M46 7h507q-8 -7 -15 -7h-499zM290 522q3 2 5.5 4t5.5 4h501l-9 -8h-503zM419 364h209l-31 -30h-209zM357 305h209l-35 -34h-209zM295 245h209l-39 -37h-209zM233 186h209l-42 -40h-209zM251 483h501l-25 -24h-497zM183 397q3 7 19 27h489l-28 -27h-480zM653 126
q-5 -9 -13 -20t-17 -23h-498l45 43h483zM610 67q-11 -14 -21.5 -26t-20.5 -21h-508l49 47h501zM256 508h10l11 -11h-32l-45 -52h9l7 -7h-21q-10 -13 -17 -22.5t-9 -14.5l12 -18h5l17 -17h197l-47 -46h10l1 -1h-13l-62 -60l-2 -2l-60 -57l-63 -60l-74 -71l-50 -48l-35 -35h10
l17 -17h526q7 0 34 20l2 2t4 3.5t5 3.5l-1 1q11 10 20 20t17 21l-6 12h16q11 15 20 27.5t14 20.5l-10 17l-11 10l-7 13h-204l39 37l62 59l-4 4h8l58 56l-7 7h15l54 52l-11 11h23l51 49l-13 13h26l48 46l-17 17h34l33 30l-18 18l5 5h-537q-12 -4 -17 -9z" />
    <glyph glyph-name="FL005Bh" unicode="[" horiz-adv-x="444" 
d="M309 -56h-285l1 4h290zM613 597q-4 -8 -7 -12h-350l5 12h352zM198 424h191l-9 -27h-191zM177 364h191l-11 -30h-191zM155 305h191l-12 -34h-191zM524 483q-21 -21 -31 -21h-90l-1 -3h-191l8 24h305zM576 543q-4 -5 -8 -10.5t-9 -10.5h-326l8 21h335zM133 245h191l-13 -37
h-191zM112 186h191l-15 -40h-191zM90 126h191l-16 -43h-191zM376 7q-13 -14 -26 -26.5t-24 -22.5h-297l18 49h329zM422 67q-6 -9 -12 -18.5t-8 -11.5q-3 -4 -6.5 -8t-7.5 -9h-337l17 47h354zM252 611l-17 -40h8l14 -14h-25l-20 -49h8l11 -11h-21l-18 -52h7l7 -7h-17l-19 -55
h7l5 -5h-14l-23 -58h8l1 -1h-9l-21 -60h-1l-20 -59l-27 -68h2l-25 -63h1l-22 -63l-17 -44h-1l-2 -9l-4 -9h1l-4 -14h7l17 -17h303l39 26l-4 4q9 9 19 18t18 18l-4 10h13q3 5 8 10.5t9 9.5l3 5.5t8 12.5h1q2 3 4.5 6.5t4.5 6.5l-9 18l-13 12l-5 11h-121l14 36h-1l23 60l20 59
l-4 4h7l19 56l-7 7h10l20 52l-11 11h14l17 49l-13 13h18l1 3h83q15 0 39 24l-8 19l-14 14l-2 3h56q5 6 10.5 12.5t10.5 13.5l-9 17l-12 12l-5 8h53q5 6 9.5 15l9.5 19l-18 17l3 6h-384z" />
    <glyph glyph-name="FL005Ch" unicode="\" horiz-adv-x="689" 
d="M439 7h213l3 -7h-213zM441 530l3 -8h-214l-3 8h214zM246 483h214l9 -24h-214zM269 424h214l11 -27h-214zM294 364h214l12 -30h-214zM318 305h213l14 -34h-213zM342 245h214l15 -37h-214zM366 186h214l16 -40h-214zM390 126h214l17 -43h-213zM414 67h214l19 -47h-213z
M206 544l15 -36h5l11 -11h-12l21 -52h5l7 -7h-10l23 -55h5l5 -5h-8l24 -58h5l1 -1h-6l25 -60h-1l24 -59l24 -60l25 -59h-1l25 -60l15 -35h5l17 -17h236l-9 20h1l-28 69h-1l-23 57h1l-25 62l-24 59l-4 4h2l-23 56l-7 7h5l-21 52l-11 11h6l-20 49l-13 13h8l-18 46l-15 14l-1 3
h9l-12 30l-15 14l-3 9h-244z" />
    <glyph glyph-name="FL005Dh" unicode="]" horiz-adv-x="444" 
d="M27 -57q1 2 1 3t1 2h352l-2 -5h-352zM318 585q11 11 14 11h285l-4 -11h-295zM363 424h191l-10 -27h-191zM341 364h191l-11 -30h-191zM320 305h191l-13 -34h-191zM254 522q5 5 10 10.5t10 10.5h323l-7 -21h-336zM298 245h191l-14 -37h-191zM276 186h191l-14 -40h-191z
M377 461h-165q1 2 4.5 8t8.5 14h351l-9 -24h-191zM254 126h191l-15 -43h-191zM82 20q11 14 23 26.5t22 20.5h297l-17 -47h-325zM36 -42q7 11 15.5 23.5t19.5 25.5h331l-18 -49h-348zM332 383h8l5 -5h-13l-23 -58h8l1 -1h-7l-25 -62h2l-25 -63h1l-19 -54h-1l-20 -59h-101
q-14 -12 -28.5 -26t-25.5 -28l3 -6h-7q-19 -23 -28 -35t-14 -21l1 -3h-1q-7 -7 -8 -9t-1 -7q0 -1 -0.5 -3t-0.5 -4v-10h6l17 -17h370l11 27l-1 1l22 58l-1 1l20 53h1l21 63h2l21 62l23 59l-4 4h4l22 56l-7 7h8l20 52l-11 11h14l19 49l-13 13h17l18 46l-17 17h22l15 43
l-18 18l1 2h25l12 33l-18 18l2 5h-304q-2 0 -10 -4.5t-16 -12.5l10 -22h5l14 -14h-67q-5 -5 -13 -14t-13 -14l10 -21h5l11 -11h-51l-10 -15h1q-8 -11 -12.5 -21t-6.5 -14h8l17 -17h137zM457 52v1l1 -1h-1z" />
    <glyph glyph-name="FL005Eh" unicode="^" 
d="M574 7h178l1 -7h-178zM36 0q2 10 2 7h216l-5 -7h-213zM636 530q8 0 16 -8h-203q11 8 19 8h168zM520 364h177l4 -30h-177zM529 305h177l5 -34h-177zM315 364h200l-22 -30h-202zM538 245h177l5 -37h-177zM672 483q2 -6 3.5 -12t3.5 -12h-290l9 11q2 6 9 13h265zM269 305
h203l-25 -34h-205zM547 186h177l6 -40h-177zM556 126h177l7 -43h-178zM222 245h206l-27 -37h-208zM565 67h177l8 -47h-178zM176 186h209l-30 -40h-211zM362 424h326l4 -27h-351zM129 126h212l-32 -43h-214zM83 67h215l-35 -47h-217zM636 544h-168q-12 0 -62 -36h12l11 -11
h-28q-5 -5 -8.5 -9.5t-5.5 -8.5l-28 -34h9l7 -7h-20l-43 -55h9l5 -5h-18l-46 -58h9l1 -1h-10l-49 -62l-49 -63l-49 -62l-70 -90q-2 2 -4 2q-7 0 -16 -27l-8 -11h6q-1 -2 -1 -4l13 -16h4l17 -17h218l14 20h1l51 69h-1l44 59h-1l45 60h-1l43 59l-4 4h8l41 56l-7 7h8l6 -46h1
l8 -63h2l8 -62h1l8 -63h1l9 -63l3 -20h6l17 -17h201l-4 29l-1 1l-9 53h1l-10 65h-1l-8 60l-1 1l-8 58l-4 4h3l-8 56l-7 7h5l-7 52l-11 11h9l-7 49l-13 13h8q-3 11 -5.5 21t-5.5 18l-14 14q-1 2 -1.5 3.5t-1.5 3.5l-4 3h18l-17 17h4q-36 36 -50 36z" />
    <glyph glyph-name="FL005Fh" unicode="_" horiz-adv-x="494" 
d="M34 0l7 7h332l-7 -7h-332zM167 126h332l-45 -43h-332zM105 67h332l-50 -47h-332zM27 -31h364l20 20h1l66 63h1l68 65l-18 18l5 5h-373l-62 -59l-63 -60h-1l-35 -35h10z" />
    <glyph glyph-name="FL0060h" unicode="`" horiz-adv-x="202" 
d="M284 530q10 0 15 -8h-43q22 8 28 8zM277 399q-12 0 -25 7t-21 18h80q-3 -6 -7 -11.5t-10 -7.5l-6 -4q-2 -2 -11 -2zM219 480q0 2 1 3h94l2 -5q0 -5 0.5 -9.5t1.5 -9.5h-99q-2 5 -2.5 10t2.5 11zM284 544q-7 0 -29 -8q-2 -1 -4.5 -1.5t-4.5 -1.5l3 -25h6l11 -11h-52
q-9 -9 -9 -14q-2 -4 -2 -8v-5t2 -9.5t5 -15.5h5l7 -7h-18q19 -25 41 -41q13 -12 27 -20.5t25 -8.5q14 0 19 5l4 3q9 5 15.5 15.5t13.5 23.5l-13 13h13v16q-1 5 -1.5 8.5t-0.5 6.5l-6 15l-15 14l-1 3h13q-8 13 -15 20l-2 2q-20 31 -37 31z" />
    <glyph glyph-name="a" unicode="a" 
d="M575 0l-1 7h178l1 -7h-178zM449 522q11 8 19 8h168q8 0 16 -8h-203zM469 7q-3 -3 -5.5 -4.5t-4.5 -2.5h-423q2 10 2 7h431zM519 364h178l4 -30h-177zM315 364h200l-22 -30h-202zM528 305h178l5 -34h-178zM537 245h178l5 -37h-177zM398 470q2 6 9 13h265q2 -6 3.5 -12
t3.5 -12h-290zM269 305h202l-25 -34h-204zM546 186h178l6 -40h-178zM222 245h204l-27 -37h-206zM176 186h206l-30 -40h-208zM562 67h180l8 -47h-179zM362 424h326l4 -27h-351zM522 67q-10 -13 -20 -25t-20 -22h-436l37 47h439zM554 113q-4 -9 -20 -30h-439l34 43h604l7 -43
h-181zM559 6l3 -20h6l17 -17h201l-4 29l-1 1l-9 53h1l-10 65h-1l-8 60l-1 1l-8 58l-4 4h3l-8 56l-7 7h5l-7 52l-11 11h9l-7 49l-13 13h8q-3 10 -6 20.5t-8 25.5l-15 15l-0.5 0.5t-0.5 1.5h16l-17 17h4q-36 36 -50 36h-168q-6 0 -13.5 -3.5t-15.5 -8.5l8 -24h5l11 -11h-62
q-5 -5 -8.5 -9.5t-5.5 -8.5l-28 -34h9l7 -7h-20l-43 -55h9l5 -5h-18l-46 -58h9l1 -1h-10l-49 -62l-49 -63l-49 -62l-49 -63l-22 -29q-1 0 -1.5 0.5t-1.5 0.5q-8 0 -15 -24l-9 -11h5q-1 -5 -2 -9.5t-2 -10.5h7l17 -17h440q2 2 6.5 4t8.5 6l-4 10h14q12 12 23 25t21 26l-6 12
h5zM424 177l43 59l-4 4h9l41 56l-7 7h8l6 -46h1l9 -63h1l7 -54h-142z" />
    <glyph glyph-name="FL0062h" unicode="b" horiz-adv-x="721" 
d="M589 7q-34 -7 -86 -7h-459l2 7h543zM696 530q22 0 41 -8h-503l3 8h459zM176 364h192l-11 -30h-192zM795 364q-3 -16 -11 -30h-198q5 7 10.5 15.5t7.5 12.5l1 2h190zM155 305h192l-13 -34h-192zM111 186h193l-15 -40h-192zM743 186q-2 -11 -5.5 -21t-7.5 -19h-221
q5 3 10 6.5t8 5.5l4 7.5t5 8.5l2 5q2 2 2 7h203zM766 305q-8 -11 -16.5 -19t-17.5 -15h-376l39 34h371zM777 483q3 -6 5.5 -12t4.5 -12h-576l9 24h557zM797 397h-609l10 27h596zM327 245h400q11 -14 16 -37h-624l14 37h192l-1 -3zM723 126q-5 -12 -11 -23t-11 -20h-627
l15 43h634zM690 67q-12 -16 -26 -27.5t-33 -19.5h-580l17 47h622zM779 497h-18l4 13l-17 17l1 5q-26 12 -53 12h-468l-15 -36h8l11 -11h-21l-21 -52h8l7 -7h-16l-22 -55h8l5 -5h-13l-23 -58h8l1 -1h-7l-25 -62h2l-25 -63h1l-19 -54h-1l-20 -59l-22 -60h-2l-10 -35h7l17 -17
h474q54 0 88 7l-1 13h43q22 10 37.5 22t28.5 29l-6 12h15q5 8 11 20.5t14 29.5l-9 13h13q5 12 10 25.5t7 23.5l-11 13h14q-4 18 -9.5 33t-14.5 26l-4 4h7q21 15 39 39l-9 17l-7 7h32q5 10 9 20t6 19l-11 13l-6 6v1l-4 4h24l-5 49l-13 13h12q-5 12 -9 23t-7 17l-14 14
q-2 3 -2.5 5t-1.5 4zM404 355l-11 11h196q-5 -8 -13.5 -21t-18.5 -25h9l1 -1h-177zM340 177h180q-1 -2 -2 -4.5t-3 -6.5q-1 -1 -2 -1l-1 -1q1 1 -4.5 -2t-12.5 -7l4 -15h-174zM520 170v1h1h-1v-1z" />
    <glyph glyph-name="c" unicode="c" horiz-adv-x="663" 
d="M562 7q-5 -5 -8 -7h-80q-25 0 -49.5 1.5t-48.5 5.5h186zM349 522q29 8 55 8h413q-4 -6 -6 -8h-462zM160 334q3 8 6 15t7 15h205q-14 -15 -23 -30h-195zM144 271q2 8 3.5 16.5t3.5 17.5h188q-1 -2 -1 -4q0 -1 -1 -3q-2 -8 -4 -14.5t-3 -12.5h-186zM143 245h187
q2 -9 5 -18.5t8 -18.5h-198q-2 8 -2 17v18v2zM357 186q9 -12 20 -22.5t22 -17.5h-239q-8 18 -12 40h209zM243 459l14 12t15 12h508l-21 -24h-516zM192 397q5 7 9.5 13.5t9.5 13.5h515l-30 -27h-504zM622 67q-21 -26 -45 -47h-261q-27 8 -51 19t-44 28h401zM667 126
q-8 -11 -16 -21.5t-16 -21.5h-432q-18 17 -33 43h497zM346 508h6l11 -11h-97q-6 -5 -13 -11.5t-13 -11.5q-2 -2 -4 -3.5t-4 -3.5l9 -22h5l7 -7h-49q-7 -7 -11.5 -14.5t-9.5 -15.5q-1 -2 -2 -2.5t-2 -2.5l11 -20h5l5 -5h-36q-5 -8 -8 -15.5t-6 -15.5l-3 -9l12 -18h4l1 -1h-25
q-2 -9 -4.5 -23.5t-4.5 -22.5l11 -14h-12v-16q0 -10 0.5 -19.5t2.5 -23.5h-2q3 -16 7 -31t10 -29h-1q10 -17 19.5 -32t20.5 -27h-5q5 -5 11 -9t11 -9l6 -5q34 -28 64.5 -44.5t59.5 -24.5h46l13 -13q24 -4 50 -5.5t52 -1.5h83q7 5 9 6.5t4 3.5l-4 10h15q33 30 50 51l-6 12h16
q8 11 17.5 24t17.5 24l-9 17l-12 12l-6 11h-233q-18 11 -31.5 21t-23.5 18q-11 18 -15.5 32t-6.5 25l-4 4h5q3 23 7 32q2 3 2 10q0 1 0.5 7t0.5 7l-7 7h18q8 12 18.5 25t22.5 27l-11 11h309l54 49l-13 13h22l41 46l-17 17h29q2 2 8 10.5t13 19.5l-18 17q1 2 2 3t2 3h-439
q-31 0 -61 -9z" />
    <glyph glyph-name="FL0064h" unicode="d" horiz-adv-x="690" 
d="M44 0l2 7h352q-24 -4 -50 -5.5t-55 -1.5h-249zM672 530q28 0 50 -8h-488l3 8h435zM176 364h194l-11 -30h-194zM780 364q-2 -8 -4 -15t-4 -15h-198q4 9 4 21q0 6 -1 9h203zM155 305h194l-13 -34h-194zM761 305q-4 -9 -8 -17.5t-9 -16.5h-198q4 5 7.5 11t6.5 14l3 9h198z
M133 245h194l-14 -37h-194zM723 239q-5 -8 -11 -15.5t-11 -15.5h-213q11 9 20.5 18t17.5 19h201q-1 -2 -2 -3t-2 -3zM111 186h194l-14 -40h-194zM685 186q-8 -11 -16.5 -21t-16.5 -19h-279q21 7 42.5 17t41.5 23h228zM769 483q4 -6 6.5 -12t4.5 -12h-569l9 24h549zM786 413
v-8t-1 -8h-597l10 27h587q0 -3 0.5 -6t0.5 -5zM563 67q-46 -30 -104 -47h-408l17 47h495zM634 126q-12 -12 -24 -23t-25 -20h-511l15 43h545zM770 497h-24l3 14l-18 17l1 5q-31 11 -60 11h-444l-15 -36h8l11 -11h-21l-21 -52h8l7 -7h-16l-22 -55h8l5 -5h-13l-23 -58h8l1 -1
h-7l-25 -62h2l-25 -63h1l-19 -54h-1l-20 -59l-22 -60h-2l-10 -35h7l17 -17h264q31 0 58 1.5t51 5.5l-1 13h61q57 16 107 49l-4 14h23q17 12 30 23.5t24 22.5l-7 17h21q8 9 19 21t19 23l-9 18h22q2 3 5.5 7.5t5.5 7.5h-1q12 13 16 22q1 1 4 4.5t7 7t7 7l3 3.5l-4 4h1
q5 8 9.5 17.5t10.5 23.5l-10 15l-7 7h27q2 8 5 17t5 22l-11 13l-7 6l0.5 0.5t0.5 1.5l-3 3h23q2 11 2.5 17t0.5 10v5q0 2 -0.5 8.5t-0.5 8.5l-13 13h13q-5 11 -9 22t-9 19l-10 10q-2 4 -3.5 6.5t-3.5 5.5zM340 177l23 59l-4 4h4l22 56l-7 7h8l20 52l-11 11h167q2 -6 2 -8v-3
q0 -9 -11 -35h8l1 -1h-8l-7 -17q-5 -11 -11.5 -21.5t-14.5 -21.5h-2q-17 -23 -64 -59h-2q-45 -29 -89 -43l2 -17h-39z" />
    <glyph glyph-name="e" unicode="e" horiz-adv-x="657" 
d="M556 7q-4 -4 -6.5 -5.5l-2.5 -1.5h-503l2 7h510zM807 530l-2 -4l-2 -4h-569l3 8h570zM176 364h192l-11 -30h-192zM155 305h191l-12 -34h-192zM111 186h191l-14 -40h-191zM391 305h230l-36 -34h-229zM776 483q-5 -6 -9.5 -12t-9.5 -12h-546l9 24h556zM726 424
q-10 -10 -18 -17t-14 -10h-506l10 27h528zM133 245h191l-2 -7l7 7h229l-39 -37h-400zM662 126q-5 -9 -12 -20t-9 -13t-4 -5t-4 -5h-559l15 43h573zM618 67q-11 -13 -23.5 -25t-23.5 -22h-520l17 47h550zM664 140h-340l13 37h207l62 59l-4 4h8l59 56l-18 18l5 5h-266l14 36
l-11 11h324q15 8 37 30l-8 19l-13 13h50l12 16q2 3 5 6t5 6l-9 18l-13 12l-2 5h53q0 3 -0.5 5l-0.5 2l3.5 7.5t8.5 15.5l-18 18q1 1 3 5h-602l-15 -36h8l11 -11h-21l-21 -52h8l7 -7h-16l-22 -55h8l5 -5h-13l-23 -58h8l1 -1h-7l-25 -62h2l-25 -63h1l-19 -54h-1l-20 -59
l-22 -60h-2l-10 -35h7l17 -17h521q6 3 7.5 4t6.5 6l-4 10h15q11 11 25 24t26 27l-6 12h18q2 2 4.5 5t4.5 6l2 2q2 2 10 14t13 21l-10 17l-11 10z" />
    <glyph glyph-name="FL0066h" unicode="f" horiz-adv-x="653" 
d="M44 0l2 7h191l-2 -7h-191zM807 530l-2 -4l-2 -4h-569l3 8h570zM176 364h192l-11 -30h-192zM155 305h191l-12 -34h-192zM111 186h191l-14 -40h-191zM391 305h230l-36 -34h-229zM89 126h191l-15 -43h-191zM68 67h191l-17 -47h-191zM776 483q-5 -6 -9.5 -12t-9.5 -12h-546
l9 24h556zM726 424q-10 -10 -18 -17t-14 -10h-506l10 27h528zM133 245h191l-2 -7l7 7h229l-39 -37h-400zM228 544l-15 -36h8l11 -11h-21l-21 -52h8l7 -7h-16l-22 -55h8l5 -5h-13l-23 -58h8l1 -1h-7l-25 -62h2l-25 -63h1l-19 -54h-1l-20 -59l-22 -60h-2l-10 -35h7l17 -17h215
l7 26l1 3l20 54h1l21 63h2l21 62h207l62 59l-4 4h8l59 56l-18 18l5 5h-266l14 36l-11 11h324q15 8 37 30l-8 19l-13 13h50l12 16q2 3 5 6t5 6l-9 18l-13 12l-2 5h53q0 3 -0.5 5l-0.5 2l3.5 7.5t8.5 15.5l-18 18q1 1 3 5h-602z" />
    <glyph glyph-name="FL0067h" unicode="g" horiz-adv-x="672" 
d="M474 0q-25 0 -49.5 1.5t-48.5 5.5h249l-2 -7h-149zM817 530q-4 -6 -6 -8h-462q29 8 55 8h413zM375 364q-6 -7 -11 -14.5t-10 -15.5h-194q3 8 6.5 15l7.5 15h201zM337 298q-2 -8 -4 -14.5t-3 -12.5h-185q1 16 6 34h188q-1 -2 -1 -4q0 -1 -1 -3zM330 245q3 -20 12 -37h-197
q-2 8 -2 17v18v2h187zM511 186h182l-15 -40h-181zM356 186q9 -12 20 -22.5t22 -17.5h-238q-8 18 -12 40h208zM453 271q7 9 14 17.5t15 16.5h256l-12 -34h-273zM406 208q4 6 11 15.5t16 21.5h283l-14 -37h-296zM759 459h-515q7 6 13.5 12t14.5 12h508zM696 397h-504
q5 7 10 13.5t10 13.5h514zM316 20q-27 8 -51 19t-44 28h427l-18 -47h-314zM203 83q-18 17 -33 43h501l-17 -43h-451zM819 544h-415q-33 0 -64 -10l3 -26h6l11 -11h-94q-5 -4 -16 -14l-22 -20q-5 -5 -11 -10.5t-8 -7.5h10l7 -7h-21q-3 -3 -8 -11t-11 -16.5t-11.5 -16.5
t-7.5 -11h8l5 -5h-15q-5 -11 -10.5 -22.5t-15.5 -35.5h8l1 -1h-9q-2 -11 -4.5 -25.5t-4.5 -34.5h-1v-16q0 -10 0.5 -19.5t2.5 -23.5h-2q3 -16 7 -31t10 -29h-1q11 -18 20.5 -33t19.5 -26h-5q5 -5 11 -9t11 -9l6 -5q34 -28 64.5 -44.5t59.5 -24.5h46l13 -13q24 -4 50 -5.5
t52 -1.5h158l7 25l25 64h-1l24 59h-1l23 60l23 59l-4 4h6l19 56l-18 18l2 5h-280q-2 -3 -5.5 -6t-5.5 -6q-9 -10 -16.5 -18.5t-9.5 -10.5l10 -19h-25q-2 -2 -3 -4.5t-2 -3.5l-2 -3l-4 -4q-8 -10 -12.5 -16.5t-9.5 -14.5l12 -19h5l17 -17h67l-13 -37h-45q-21 13 -36 23.5
t-24 20.5q-6 14 -9 24.5t-5 18.5l-13 13h12q2 11 3 18.5t3 12.5q3 4 3 11q0 1 0.5 7t0.5 7l-7 7h17q5 9 11.5 18.5t11.5 15.5l-8 18l-11 11h336l54 49l-13 13h22l41 46l-17 17h29q5 5 10 13l-9 17l-13 12z" />
    <glyph glyph-name="h" unicode="h" horiz-adv-x="686" 
d="M452 0l2 7h190l-2 -7h-190zM46 7h192l-2 -7h-192zM645 530h190l-3 -8h-190zM237 530h192l-3 -8h-192zM628 483h190l-9 -24h-190zM220 483h192l-9 -24h-192zM606 424h190l-10 -27h-190zM198 424h192l-10 -27h-192zM584 364h190l-11 -30h-190zM176 364h192l-11 -30h-192z
M155 305h192l-13 -34h-192zM519 186h190l-14 -40h-190zM111 186h192l-14 -40h-192zM497 126h190l-15 -43h-190zM89 126h192l-15 -43h-192zM476 67h190l-17 -47h-190zM68 67h192l-17 -47h-192zM398 305h355l-13 -34h-375zM133 245h192l-9 -25l24 25h391l-14 -37h-598z
M213 508h8l11 -11h-21l-21 -52h8l7 -7h-16l-22 -55h8l5 -5h-13l-23 -58h8l1 -1h-7l-25 -62h2l-25 -63h1l-19 -54h-1l-20 -59l-22 -60h-2l-10 -35h7l17 -17h216l7 26l1 3l20 54v1l1 -1l21 63h2l21 62h163l-13 -37h-1l-20 -59l-22 -60h-2l-10 -35h7l17 -17h214l7 26l1 3l20 54
h1l21 63h2l21 62l23 59l-4 4h4l22 56l-7 7h8l20 52l-11 11h14l19 49l-13 13h17l18 46l-17 17h22l12 30l-18 17l3 6h-220l-15 -36h8l11 -11h-21l-21 -52h8l7 -7h-16l-22 -55h8l5 -5h-13l-23 -58h8l1 -1h-169l-4 -4l16 40l-11 11h14l19 49l-13 13h17l18 46l-17 17h22l12 30
l-18 17l3 6h-222zM376 303v-1v1z" />
    <glyph glyph-name="FL0069h" unicode="i" horiz-adv-x="284" 
d="M48 7h192l-2 -7h-192zM239 530h192l-3 -8h-192zM222 483h192l-9 -24h-192zM200 424h192l-10 -27h-192zM178 364h192l-11 -30h-192zM157 305h192l-13 -34h-192zM135 245h192l-14 -37h-192zM113 186h192l-14 -40h-192zM91 126h192l-15 -43h-192zM70 67h192l-17 -47h-192z
M215 508h8l11 -11h-21l-21 -52h8l7 -7h-16l-22 -55h8l5 -5h-13l-23 -58h8l1 -1h-7l-25 -62h2l-25 -63h1l-19 -54h-1l-20 -59l-22 -60h-2l-10 -35h7l17 -17h216l7 26l1 3l20 54h1l21 63h2l21 62l23 59l-4 4h4l22 56l-7 7h8l20 52l-11 11h14l19 49l-13 13h17l18 46l-17 17h22
l12 30l-18 17l3 6h-222z" />
    <glyph glyph-name="FL006Ah" unicode="j" horiz-adv-x="605" 
d="M564 530h190l-3 -8h-190zM39 0q2 4 4 7h403q-16 -4 -33.5 -5.5t-37.5 -1.5h-336zM547 483h190l-9 -24h-190zM525 424h190l-10 -27h-189zM504 364h189l-11 -30h-189zM482 305h189l-12 -34h-189zM441 208q10 15 15 25l4 12h190q-4 -10 -7.5 -19t-6.5 -18h-195zM380 146
q13 7 24.5 17.5t21.5 22.5h201q-5 -11 -9.5 -21t-9.5 -19h-228zM94 83q8 11 17 21.5t20 21.5h467q-14 -25 -28 -43h-476zM51 20q8 12 15.5 23.5t15.5 23.5h474q-30 -31 -67 -47h-438zM540 508h8l11 -11h-21l-21 -52h8l7 -7h-16l-19 -55h7l5 -5h-14l-23 -58h8l1 -1h-9
l-21 -60l-7 -19l-1 -2q-4 -8 -7 -13.5t-7 -10.5l7 -14h-17q-11 -13 -22.5 -24t-25.5 -18l4 -18h-250q-16 -16 -26 -27.5t-18 -22.5l4 -9h-10q-8 -12 -18.5 -27t-18.5 -27l3 -6h-5q-8 -11 -9.5 -13.5t-1.5 -3.5l12 -18h5l17 -17h336q20 0 38.5 1.5t37.5 6.5l-1 12h41
q44 19 91 69h-1q15 21 36 59h-1q5 11 13.5 30t13.5 30q2 6 5.5 14.5t9.5 22.5q1 3 3 11t3 11l-4 4h7l19 56l-7 7h10l20 52l-11 11h14l19 49l-13 13h17l18 46l-17 17h22l12 30l-18 17l3 6h-220z" />
    <glyph glyph-name="FL006Bh" unicode="k" horiz-adv-x="730" 
d="M46 7h192l-2 -7h-192zM733 0h-214l-6 7h215zM237 530h192l-3 -8h-192zM673 530h214l-11 -8h-214zM220 483h192l-9 -24h-192zM198 424h192l-10 -27h-192zM607 483h218l-31 -24h-220zM176 364h192l-11 -30h-192zM525 424h223l-35 -27h-225zM442 364h228l-39 -30h-231z
M111 186h193l-15 -40h-192zM89 126h193l-16 -43h-192zM68 67h192l-17 -47h-192zM365 186h233l29 -40h-229zM415 126h227l31 -43h-223zM463 67h221l34 -47h-216zM155 305h192l-5 -13l18 13h233l-44 -34h-407zM312 208h-193l14 37h422l27 -37h-235l-24 30zM213 508h8l11 -11
h-21l-21 -52h8l7 -7h-16l-22 -55h8l5 -5h-13l-23 -58h8l1 -1h-7l-25 -62h2l-25 -63h1l-19 -54h-1l-20 -59l-22 -60h-2l-10 -35h7l17 -17h216l7 26l1 3l20 54l25 65h-1l23 60h-1l5 13l41 -50l58 -71h1l52 -63l17 -20h4l17 -17h240l-21 29l-2 2l-38 52h1l-47 65l-2 1l-42 59
l-43 59l-6 5l72 55l-7 7h16l68 52l-11 11h25l64 49l-13 13h30l60 46l-17 17h38l41 30l-18 18l7 5h-260l-50 -36h12l11 -11h-39l-72 -52h12l7 -7h-29l-75 -55h12l5 -5h-25l-35 -25l1 2l-11 11h14l19 49l-13 13h17l18 46l-17 17h22l12 30l-18 17l3 6h-222z" />
    <glyph glyph-name="FL006Ch" unicode="l" horiz-adv-x="592" 
d="M425 522h-191l3 8h191zM46 7h445q-2 -2 -4 -3.5t-4 -3.5h-439zM220 483h191l-9 -24h-191zM198 424h191l-10 -27h-191zM176 364h191l-11 -30h-191zM155 305h191l-13 -34h-191zM133 245h191l-14 -37h-191zM111 186h191l-14 -40h-191zM595 126q-5 -7 -14 -18t-20 -25h-487
l15 43h506zM548 67q-11 -13 -21.5 -24.5t-21.5 -22.5h-454l17 47h480zM597 140h-273l13 37l23 59l-4 4h4l22 56l-7 7h8l20 52l-11 11h14l19 49l-13 13h17l18 46l-17 17h22l12 30l-18 17l3 6h-221l-15 -36h8l11 -11h-21l-21 -52h8l7 -7h-16l-22 -55h8l5 -5h-13l-23 -58h8
l1 -1h-7l-25 -62h2l-25 -63h1l-19 -54h-1l-20 -59l-22 -60h-2l-10 -35h7l17 -17h459l6 6q0 1 5 5t10 9h1q10 10 20.5 22.5t21.5 24.5h1l22 22l-2 2q11 12 18.5 22.5l12.5 17.5l-9 17l-13 13z" />
    <glyph glyph-name="FL006Dh" unicode="m" horiz-adv-x="868" 
d="M399 0l-1 7h76l-6 -7h-69zM44 0l2 7h192l-2 -7h-192zM632 0l2 7h192l-2 -7h-192zM237 530h242l1 -8h-246zM775 530h242l-3 -8h-247zM387 67h142l-43 -47h-91zM220 483h268l4 -24h-281zM731 483h269l-9 -24h-282zM133 245h192l-14 -37h-192zM721 245h192l-14 -37h-192z
M111 186h192l-14 -40h-192zM699 186h192l-14 -40h-192zM376 126h207l-39 -43h-160zM677 126h192l-15 -43h-192zM89 126h192l-15 -43h-192zM198 424h301l5 -27h-316zM677 424h301l-10 -27h-316zM656 67h192l-17 -47h-192zM68 67h192l-17 -47h-192zM365 186h273l-37 -40h-229z
M176 364h334l6 -30h-351zM622 364h334l-11 -30h-351zM354 245h337l-33 -37h-297zM740 298l-25 -27h-179l32 34h367l-13 -34h-192zM334 271h-192l13 34h367l6 -34h-179l-5 27zM881 52v1l1 -1l21 63h2l21 62l23 59l-4 4h4l22 56l-7 7h8l20 52l-11 11h14l19 49l-13 13h17l18 46
l-17 17h22l12 30l-18 17l3 6h-269l-36 -36h10l11 -11h-28l-49 -52h10l7 -7h-22l-52 -55h10l5 -5h-19l-55 -58h10l1 -1h-10l-13 -13l-10 49l-11 11h9l-9 49l-13 13h10l-8 46l-16 16v1h11l-3 30l-17 16v7h-264l-15 -36h8l11 -11h-21l-21 -52h8l7 -7h-16l-22 -55h8l5 -5h-13
l-23 -58h8l1 -1h-7l-25 -62h2l-25 -63h1l-19 -54h-1l-20 -59l-22 -60h-2l-10 -35h7l17 -17h216l7 26l1 3l20 54h1l21 63h2l21 62l9 24l2 -7l11 -62l10 -51l2 -12l11 -63l3 -20h6l17 -17h84l16 20h1l57 63h1l57 63l2 2l53 56l-12 -33h-1l-20 -59l-22 -60h-2l-10 -35h7l17 -17
h216l7 26l1 3zM546 303l-1 -2l-1 2h2z" />
    <glyph glyph-name="FL006Eh" unicode="n" horiz-adv-x="686" 
d="M46 7h192l-2 -7h-192zM645 530h190l-3 -8h-190zM400 0l-1 7h245l-2 -7h-242zM237 530h242l1 -8h-246zM628 483h190l-9 -24h-190zM606 424h190l-10 -27h-190zM584 364h190l-11 -30h-190zM563 305h190l-13 -34h-190zM220 483h268l4 -24h-281zM133 245h192l-14 -37h-192z
M111 186h192l-14 -40h-192zM89 126h192l-15 -43h-192zM198 424h301l5 -27h-316zM68 67h192l-17 -47h-192zM176 364h334l6 -30h-351zM387 67h279l-17 -47h-253zM334 271h-192l13 34h367l6 -34h-179l-5 27zM376 126h311l-15 -43h-288zM365 186h344l-14 -40h-323zM536 232l5 13
h190l-14 -37h-356l-7 37h179zM621 508h8l11 -11h-21l-21 -52h8l7 -7h-16l-22 -55h8l5 -5h-13l-23 -58h8l1 -1h-7l-5 -12l-10 48l-11 11h9l-9 49l-13 13h10l-8 46l-16 16v1h11l-3 30l-17 16v7h-264l-15 -36h8l11 -11h-21l-21 -52h8l7 -7h-16l-22 -55h8l5 -5h-13l-23 -58h8
l1 -1h-7l-25 -62h2l-25 -63h1l-19 -54h-1l-20 -59l-22 -60h-2l-10 -35h7l17 -17h216l7 26l1 3l20 54v1l1 -1l21 63h2l21 62l9 24l2 -7l11 -62l24 -126l3 -20h6l17 -17h261l7 26l1 3l20 54h1l21 63h2l21 62l23 59l-4 4h4l22 56l-7 7h8l20 52l-11 11h14l19 49l-13 13h17l18 46
l-17 17h22l12 30l-18 17l3 6h-220zM544 303h3l-1 -3z" />
    <glyph glyph-name="FL006Fh" unicode="o" horiz-adv-x="770" 
d="M565 7q-29 -7 -63 -7h-117q-52 0 -93 7h273zM381 522q32 8 60 8h149q47 0 90 -8h-299zM834 364q1 -5 1 -10v-9v-11h-195q-3 19 -11 30h205zM162 334l7.5 15t8.5 15h215q-18 -14 -33 -30h-198zM138 271q2 8 4.5 17t6.5 17h190q-2 -3 -4 -7q-9 -17 -11 -27h-186zM830 287
q-1 -5 -1.5 -8.5t-1.5 -7.5h-188l1 2q1 8 1.5 16t0.5 16h191zM129 208q0 8 1 16.5t3 18.5v2h187v-1q0 -18 6 -36h-197zM820 245q-3 -10 -6.5 -19t-7.5 -18h-200q12 13 17 24q2 3 3.5 6.5t3.5 6.5h190zM132 146q-3 18 -3 40h207q14 -26 36 -40h-240zM795 186
q-6 -11 -12 -20.5t-14 -19.5h-246q14 7 29.5 17t30.5 23h212zM295 483h480q13 -11 24 -24h-537zM201 397q5 7 11 13.5t12 13.5h596q6 -14 9 -27h-628zM692 67q-39 -30 -85 -47h-365q-44 15 -73 47h523zM754 126q-19 -24 -43 -43h-554q-7 9 -11.5 20t-8.5 23h617zM378 508h6
l11 -11h-104l-72 -52h12l7 -7h-19q-2 -2 -5 -5.5t-6 -6.5q-7 -7 -11.5 -12t-8.5 -10l11 -21h5l5 -5h-39q-5 -8 -11.5 -20t-10.5 -20l12 -18h5l1 -1h-26q-8 -20 -10.5 -27.5t-4.5 -12.5q0 -1 -0.5 -2.5t-0.5 -2.5v-4l11 -11h-16v-16q0 -1 -1 -1v0q-2 -8 -2.5 -16t-0.5 -19
l7 -7h-7q0 -39 3 -57l3 -3h-2q5 -17 10.5 -32t12.5 -27h-4q26 -31 56 -51q32 -29 67 -41h34l13 -13q41 -7 97 -7h117q37 0 66 7l-2 13h42q50 18 91 49l-5 14h22q26 21 47 47l-8 16h20q8 12 15.5 23t14.5 23l-10 16h18q6 14 11 27t7 18l-11 14l-4 4h20q1 4 2.5 12t2.5 13
l5 31l-7 7h7v22v10q0 6 -1 11l-17 16v4h15q-3 14 -7 26t-9 23l-13 13h8q-5 6 -9.5 11.5t-8.5 10.5q-13 17 -24 28.5t-20 18.5h-78l2 16l-18 17l1 6q-20 4 -44 6t-53 2h-149q-33 0 -66 -9zM360 180q-9 27 -9 44v12l-4 4h6q4 19 12 33q2 3 4 7.5t10 15.5l-7 7h12q13 15 63 52
l-11 11h175q8 -14 11.5 -24.5t5.5 -21.5h6l1 -1h-7q0 -14 -0.5 -23.5t-1.5 -16.5l-9 -20h-1q0 -1 -0.5 -4.5t-0.5 -5.5v-4q-2 -2 -2 -3l1 1q-2 -2 -3.5 -4.5l-1.5 -2.5q-2 -5 -10 -14t-19 -22h-1q-14 -11 -32.5 -22.5t-36.5 -21.5l3 -16h-105q-25 17 -45 35v2zM811 463l-1 1
q1 0 1 -1z" />
    <glyph glyph-name="p" unicode="p" horiz-adv-x="707" 
d="M46 7h192l-2 -7h-192zM237 530h459q18 0 34 -8h-496zM176 364h192l-11 -30h-192zM795 364q-2 -17 -6 -30h-203q5 7 10.5 15.5t7.5 12.5l1 2h190zM155 305h192l-13 -34h-192zM111 186h193l-15 -40h-192zM89 126h193l-16 -43h-192zM68 67h192l-17 -47h-192zM776 305
q-5 -9 -11 -17.5t-13 -16.5h-395l38 34h381zM770 483q7 -12 12 -24h-571l9 24h550zM792 424q2 -8 3 -14.5t1 -12.5h-608l10 27h594zM725 245q-27 -23 -62 -37h-544l14 37h192l-1 -3l3 3h398zM213 508h8l11 -11h-21l-21 -52h8l7 -7h-16l-22 -55h8l5 -5h-13l-23 -58h8l1 -1h-7
l-25 -62h2l-25 -63h1l-19 -54h-1l-20 -59l-22 -60h-2l-10 -35h7l17 -17h216l7 26l1 3l20 54l25 65h-1l23 60h345q18 8 35 17.5t32 22.5l-7 19l-4 4h35q10 11 18 21.5t12 18.5l-10 16l-7 7h27q8 25 10 40l-11 12l-6 6v3l-2 2h20q0 23 -3 37l-16 15q0 2 -0.5 3.5t-0.5 3.5h-1
l-3 3h15q-5 13 -9.5 23t-9.5 18l-12 11q-2 3 -2.5 6t-2.5 5l-11 6h-16l4 13l-17 17l1 5q-23 12 -47 12h-468zM404 355l-11 11h196q-5 -8 -13.5 -21t-18.5 -25h9l1 -1h-177z" />
    <glyph glyph-name="FL0071h" unicode="q" horiz-adv-x="743" 
d="M381 522q32 8 60 8h132q42 0 80 -8h-272zM813 364q1 -6 1 -13v-12v-5h-195q-5 16 -15 30h209zM162 334q4 8 8 15t9 15h214q-18 -14 -33 -30h-198zM809 287q-1 -5 -1.5 -8.5t-1.5 -7.5h-184l1 2q1 1 1 10v12v10h187q0 -5 -0.5 -9t-1.5 -9zM139 271q2 8 4.5 17t5.5 17h190
q-2 -3 -4 -7q-9 -17 -11 -27h-185zM130 208q0 17 3 35v2h187v-1q0 -18 6 -36h-196zM718 -28h-200l-17 28h-90q-26 0 -50 1.5t-47 5.5h386zM135 146q-5 20 -5 40h206q14 -26 36 -40h-237zM295 483h451q15 -12 26 -24h-510zM771 186q-11 -19 -27 -40h-328l-18 40h373zM798 245
q-3 -10 -7 -19t-9 -18h-394l-17 37h210l16 -30q2 4 4.5 8t4.5 9q2 3 3.5 6.5t3.5 6.5h185zM202 397q5 7 11 13.5t12 13.5h570q3 -7 6 -13.5t5 -13.5h-604zM261 20q-49 15 -82 47h490l24 -47h-432zM728 126q-19 -24 -41 -43h-522q-14 17 -24 43h587zM378 508h6l11 -11h-104
l-72 -52h12l7 -7h-18q-2 -2 -5 -5.5t-6 -6.5q-7 -7 -11.5 -12t-8.5 -10l11 -21h5l5 -5h-39l-2.5 -5l-1.5 -3q-5 -8 -10.5 -17t-8.5 -15l12 -18h5l1 -1h-26l-4 -10t-3 -10q-3 -9 -5 -17q-1 -1 -1 -2v-1q0 -1 -0.5 -2.5t-0.5 -2.5l9 -15h-16v-14q-3 -18 -3 -38l7 -7h-7
q0 -22 1.5 -35.5t3.5 -22.5l2 -2h-3q7 -17 14 -31.5t16 -27.5h-6q8 -8 17 -15.5t17 -14.5q53 -47 100 -61l3 -1h36l13 -13q23 -4 48 -5.5t53 -1.5h72l7 -11h5l17 -17h224l-29 57l-1 1l-27 53h12q14 12 25.5 24t20.5 23l-8 16h21q15 21 31 46l-10 16h18q6 12 11.5 23.5
t8.5 21.5l-11 14l-4 4h21q1 4 2.5 12t2.5 13t1.5 11t0.5 20l-7 7h10v16v13t-1 13l-17 16v5h14q-6 19 -10.5 29.5t-8.5 19.5l-13 13h7q-2 0 -2 2l-7.5 7.5t-6.5 7.5h2q-20 22 -31.5 34t-19.5 18h-76l2 16l-18 17l1 6q-38 8 -87 8h-132q-33 0 -66 -9zM365 273q2 3 4 7.5
t10 15.5l-7 7h12q13 15 63 52l-11 11h148q10 -14 15.5 -25t8.5 -21h5l1 -1h-4v-40l-10 -20h-1q0 -1 -0.5 -4.5t-0.5 -5.5v-4l-3 3l-5 11h-232q4 10 7 14zM363 177l-3 3q-9 27 -9 44v12l-4 4h6l1 6l22 -46l25 -55q-24 16 -38 30v2zM785 460l-1 1q1 0 1 -1z" />
    <glyph glyph-name="r" unicode="r" horiz-adv-x="731" 
d="M46 7h192l-2 -7h-192zM733 0h-214l-8 7h215zM237 530h446q25 0 44 -8h-493zM176 364h192l-11 -30h-192zM792 364q-1 -8 -2 -15.5t-3 -14.5h-202q7 5 10 13.5t4 16.5h193zM155 305h192l-13 -34h-192zM289 146h-192l14 40h196l-5 -4zM89 126h192l-15 -43h-192zM68 67h192
l-17 -47h-192zM317 186h234l39 -40h-229zM382 126h228l42 -43h-223zM446 67h221l46 -47h-216zM775 305q-5 -10 -11.5 -18t-14.5 -16h-395l33 34h388zM771 483q3 -6 5.5 -12t4.5 -12h-570l9 24h551zM790 424q1 -7 1.5 -13.5t0.5 -13.5h-604l10 27h592zM714 245
q-26 -15 -55.5 -23.5t-60.5 -13.5h-479l14 37h192l-2 -5l5 5h386zM773 497h-22l4 13l-17 17l1 5q-26 12 -56 12h-455l-15 -36h8l11 -11h-21l-21 -52h8l7 -7h-16l-22 -55h8l5 -5h-13l-23 -58h8l1 -1h-7l-25 -62h2l-25 -63h1l-19 -54h-1l-20 -59l-22 -60h-2l-10 -35h7l17 -17
h216l7 26l1 3l20 54h1l21 63h1l14 39l1 1l16 -15l64 -59l65 -60h-2l40 -35h1l20 -17h245l-17 17h4l-35 35l-47 48h1l-62 63l-8 8l-37 37h41q31 5 61.5 13.5t58.5 25.5l-6 20l-4 4h44q9 9 17 19t14 21l-10 16l-7 7h26q5 17 6.5 25t2.5 15l-11 12l-6 6v3l-2 2h19q0 16 -0.5 24
t-1.5 15l-17 16v5l-2 2h15q-5 12 -9 23t-7 17l-14 14q-2 3 -2.5 5t-1.5 4zM404 355l-11 11h189q-4 -10 -12.5 -21.5t-25.5 -24.5h11l1 -1h-166zM293 52v1l1 -1h-1z" />
    <glyph glyph-name="FL201Ch" unicode="s" horiz-adv-x="692" 
d="M55 0q2 4 4 7h540q-15 -7 -34 -7h-510zM840 530q-2 -2 -2.5 -4t-2.5 -4h-541q19 8 36 8h510zM375 340q3 -3 9 -6h-209q-1 5 -1 9v10v11h192q-1 -4 -1 -9v-5q0 -1 4 -4.5t6 -5.5zM519 174q0 4 -2 12h188q1 -4 1 -12v-6q0 -5 -0.5 -11t-1.5 -11h-187q2 5 2 16v12zM805 483
l-10 -12l-10 -12h-566l10 12l10 12h566zM725 397h-542q3 7 5.5 13.5t6.5 13.5h557zM652 305q8 -8 15.5 -16t12.5 -18h-484q-9 17 -15 34h471zM693 245q3 -9 5.5 -18.5t4.5 -18.5h-441q-27 11 -48 37h479zM113 83q11 14 20 25t16 18h550q-4 -11 -9 -21.5t-11 -21.5h-566z
M67 20q7 10 15.5 22t18.5 25h568q-20 -29 -47 -47h-555zM842 544h-512q-23 0 -48 -12l5 -24h6l11 -11h-71q-3 -3 -9 -10.5t-13 -15.5t-13 -15.5t-8 -10.5h9l7 -7h-20q-5 -11 -12 -28q-1 -2 -5 -12t-4 -15h6l5 -5h-16v-25v-16q0 -8 2 -17h6l1 -1h-7q6 -21 12.5 -35.5
t11.5 -24.5h-2q26 -35 53 -53q21 -20 43 -29h223q0 -3 2 -5v-10q0 -3 -0.5 -7t-5.5 -15h-356q-10 -10 -21 -23t-22 -27l4 -9h-10q-8 -11 -18.5 -26l-17.5 -25q-1 -2 -2 -2t-2 -2l2 -5h-4q-8 -11 -9.5 -13.5t-1.5 -3.5l12 -18h5l17 -17h510q20 0 43 10l-2 10h19q34 23 65 69
h-1q6 11 12 24.5t12 32.5h1q1 8 2 16.5t1 16.5v6q0 4 -0.5 9t-2.5 14h2q-2 16 -5.5 28t-7.5 23l-12 12h8q-18 30 -33 45q-7 10 -13.5 17.5t-12.5 13.5l-7 3h-241l1 3l-17 17l1 5h-1q1 2 1.5 4.5t2.5 6.5l-11 11h361l49 49l-13 13h25q2 3 6.5 8t6.5 8q6 8 9 11l-8 19l-14 14
l-2 3h51q4 4 6 8l2 3l-8 19l-14 14z" />
    <glyph glyph-name="FL0074h" unicode="t" horiz-adv-x="648" 
d="M230 7h192l-2 -7h-192zM290 522q3 2 5.5 4t5.5 4h501l-2 -4l-2 -4h-508zM360 364h192l-11 -30h-192zM339 305h192l-13 -34h-192zM317 245h192l-14 -37h-192zM295 186h192l-14 -40h-192zM273 126h192l-15 -43h-192zM252 67h192l-17 -47h-192zM251 483h520q-5 -6 -9.5 -12
t-9.5 -12h-522zM183 397q3 7 19 27h519q-10 -10 -18 -17t-14 -10h-506zM256 508h10l11 -11h-32l-45 -52h9l7 -7h-21q-10 -13 -17 -22.5t-9 -14.5l12 -18h5l17 -17h143l-18 -46h8l1 -1h-7l-25 -62h2l-25 -63h1l-19 -54h-1l-20 -59l-22 -60h-2l-10 -35h7l17 -17h216l7 26l1 3
l20 54h1l21 63h2l21 62l23 59l-4 4h4l22 56l-7 7h8l20 52l-11 11h135q8 5 22.5 17.5t33.5 31.5l-13 13h23l12 16q1 1 4.5 5.5t7 9.5t7 9t4.5 6l-17 17h33q0 3 -0.5 5l-0.5 2l3.5 7.5t8.5 15.5l-18 18q1 1 3 5h-525q-12 -4 -17 -9zM477 52v1l1 -1h-1z" />
    <glyph glyph-name="FL2022h" unicode="u" horiz-adv-x="714" 
d="M426 530q-1 -2 -1.5 -4t-1.5 -4h-189l3 8h189zM860 522h-190l3 8h190zM367 0q-32 0 -58.5 1.5t-49.5 5.5h292q-15 -4 -32 -5.5t-35 -1.5h-117zM220 483h189q-2 -6 -4 -12.5t-4 -11.5h-190zM656 483h190l-9 -24h-190zM634 424h190l-10 -27h-189zM389 424l-9 -27h-191
l10 27h190zM613 364h189l-11 -30h-189zM369 364q-3 -8 -5.5 -15.5t-4.5 -14.5h-192l11 30h191zM773 283q-2 -3 -2.5 -6t-2.5 -6h-189l12 34h190zM147 271q3 8 5 16.5t5 17.5h192q-3 -11 -6 -19.5t-5 -14.5h-191zM759 245q-4 -10 -8 -19l-8 -18h-193q10 15 15 25l4 12h190z
M128 208q2 9 4.5 18t5.5 19h193q-1 -2 -0.5 -2.5t0.5 -1.5q-5 -22 -5 -32v-1h-198zM734 186q-5 -11 -10 -21t-10 -19h-231q15 7 27.5 17.5t22.5 22.5h201zM122 150v17t2 19h204q7 -27 27 -40h-233v4zM204 20q-44 17 -63 47h516q-31 -31 -67 -47h-386zM133 83q-4 9 -6.5 20
t-3.5 23h580q-15 -24 -31 -43h-539zM428 544h-200l-15 -36h8l11 -11h-21l-21 -52h8l7 -7h-15l-22 -55h8l5 -5h-12l-23 -58h8l1 -1h-7q-5 -11 -6.5 -17t-2.5 -8v-4l-11 -31h-1q-3 -10 -7 -24.5t-6 -23.5l8 -11h-11q-2 -16 -2.5 -27t-0.5 -23v-18q1 -17 3.5 -29.5t6.5 -21.5
h-3q26 -41 55 -60q11 -11 23.5 -18.5t26.5 -12.5l4 -1h38l13 -13q23 -4 50 -5.5t62 -1.5h117q19 0 37.5 1.5t35.5 6.5l-2 12h37q21 9 44 26.5t48 42.5l-1 1q9 11 19 26t21 32l-1 1q5 8 8 15.5t7 14.5l3.5 7l3.5 7l-10 15h16l9 22q2 5 5 10.5t5 11.5l-10 15l-4 4h20
q1 2 2.5 6t2.5 6l2 3l14 41l-7 7h9l20 52l-11 11h14l19 49l-13 13h17l18 46l-17 17h22l12 30l-18 17l3 6h-220l-15 -36h8l11 -11h-21l-21 -52h8l7 -7h-16l-19 -55h7l5 -5h-14l-23 -58h8l1 -1h-9l-21 -60l-7 -19q-8 -16 -24 -40h-3q-11 -13 -25 -24.5t-31 -19.5l3 -16h-85
q-12 8 -24 20l-4 8t-3 9v12q0 8 5 30v17l-4 4h7q5 13 10 28t9 28l-7 7h9l6 17q2 8 7 20l-10 15l-11 11h29q2 6 6.5 16.5t6.5 18.5l-11 14l-6 6l-6 7h31q7 13 8 21q1 4 3.5 13t3.5 12l-17 17h28v5q0 4 1 5v1q0 2 1 3l-10 16l-10 9z" />
    <glyph glyph-name="FL0076h" unicode="v" horiz-adv-x="773" 
d="M521 7q-8 -7 -17 -7h-165q-9 0 -16 7h198zM401 530l1 -8h-174l-1 8h174zM726 530h206l-6 -8h-206zM233 483h174l3 -24h-173zM242 424h173l3 -27h-172zM689 483h207l-18 -24h-208zM251 364h172l4 -30h-172zM643 424h208l-20 -27h-209zM259 305h172l4 -34h-171zM597 364
h209l-23 -30h-210zM268 245h171l5 -37h-171zM551 305h210l-26 -34h-211zM504 245h211l-28 -37h-211zM577 62q-5 -7 -16 -19t-24 -23h-223q-11 20 -17 47h284zM293 83q-2 5 -2.5 9.5t-1.5 8.5l-4 25h340l-32 -43h-300zM459 186h212l-31 -40h-358l-6 40h171l2 -13zM691 508h9
l11 -11h-29l-41 -52h9l7 -7h-21l-43 -55h9l5 -5h-17l-46 -58h9l1 -1h-10l-49 -62l-25 -33l-1 12l-4 4h2l-6 56l-7 7h6l-7 52l-11 11h8l-5 49l-13 13h10l-5 46l-17 16v1h14l-3 30l-17 16v7h-203l4 -36h6l11 -11h-15l7 -52h6l7 -7h-11l7 -55h6l5 -5h-9l7 -58h6l1 -1h-6l8 -62
h1l8 -63h1l8 -62h1l5 -33v-2q0 -3 1 -4q0 -2 0.5 -3t0.5 -2q1 -3 1 -6q0 -2 1 -4q4 -16 8.5 -30.5t9.5 -26.5h-8q19 -19 31 -28q25 -24 39 -24h165q11 0 24 10l-4 10h16q17 14 29 27t17 19l18 23h-1l42 57h1l48 62h-1l45 59l-4 4h7l43 56l-7 7h12l40 52l-11 11h19l36 49
l-13 13h24l34 46l-17 17h31l22 30l-18 18l4 5h-241zM303 10q-2 2 -3.5 4t-3.5 4z" />
    <glyph glyph-name="FL0057h" unicode="w" horiz-adv-x="904" 
d="M238 530h188l-3 -8h-188zM552 530h190l-3 -8h-190zM863 530h190l-3 -8h-190zM325 0q-53 0 -88 7h625l-2 -7h-535zM221 483h189l-8 -24h-190zM535 483h190l-9 -24h-190zM846 483h190l-9 -24h-190zM824 424h190l-10 -27h-189zM513 424h190l-9 -27h-190zM199 424h191l-9 -27
h-192zM803 364h189l-11 -30h-189zM492 364h190l-11 -30h-190zM177 364h193l-10 -30h-194zM781 305h190l-13 -34h-189zM470 305h190l-12 -34h-190zM156 305h194l-12 -34h-195zM759 245h190l-14 -37h-189zM448 245h190l-13 -37h-190zM332 245q-3 -11 -5.5 -21.5t-2.5 -15.5
h-204l14 37h198zM738 186h189l-14 -40h-190zM427 186h190l-15 -40h-190zM325 186q4 -22 15.5 -30t26.5 -10h-263q1 10 3 19.5t5 20.5h213zM115 83q-11 20 -11 43h801l-15 -43h-775zM189 20q-23 8 -39 20.5t-26 26.5h760l-17 -47h-678zM528 508h8l11 -11h-21l-21 -52h8l7 -7
h-16l-19 -55h7l5 -5h-14l-23 -58h8l1 -1h-9l-21 -60h-1l-20 -59l-24 -60h-6l-15 14l1 6q-5 1 -9.5 2t-8.5 3v3l-9 9h8q0 10 2.5 22t5.5 23l-11 14l-4 4h18l19 56l-7 7h9l18 52l-11 11h14l17 49l-13 13h17l16 46l-17 17h22l12 30l-18 17l3 6h-218l-15 -36h8l11 -11h-21
l-21 -52h8l7 -7h-16l-22 -55h8l5 -5h-13l-23 -58h8l1 -1h-7l-25 -62h2l-23 -57q-1 -2 -1 -4l-1 -2q-3 -13 -5.5 -27.5t-4.5 -34.5h1q0 -32 9 -51h-1q25 -36 53 -57q12 -11 25 -20t29 -14l4 -1h31l13 -13q35 -7 92 -7h544l7 26l1 3l20 54h1l21 63h2l21 62l23 59l-4 4h4l22 56
l-7 7h8l20 52l-11 11h14l19 49l-13 13h17l18 46l-17 17h22l12 30l-18 17l3 6h-220l-15 -36h8l11 -11h-21l-21 -52h8l7 -7h-16l-19 -55h7l5 -5h-14l-23 -58h8l1 -1h-9l-21 -60h-1l-20 -59l-24 -60h-67l15 37l20 59l-4 4h7l19 56l-7 7h10l20 52l-11 11h14l17 49l-13 13h18
l18 46l-17 17h22l12 30l-18 17l3 6h-220zM917 52v1l1 -1h-1z" />
    <glyph glyph-name="FL0079h" unicode="x" horiz-adv-x="690" 
d="M34 0l8 7h213l-8 -7h-213zM656 0h-213l-3 7h213zM442 530l3 -8h-214l-3 8h214zM634 530h214l-9 -8h-214zM247 483h213l10 -24h-214zM580 483h214l-27 -24h-214zM319 305h274l-39 -34h-221zM176 126h214l-49 -43h-214zM391 126h214l17 -43h-213zM415 67h214l19 -47h-213z
M109 67h214l-54 -47h-213zM311 245h246l15 -37h-303zM295 364h365l-34 -30h-319zM492 405l21 19h215l-31 -27h-416l-11 27h214zM244 186h337l16 -40h-398zM207 544l15 -36h5l11 -11h-12l21 -52h5l7 -7h-10l23 -55h5l5 -5h-8l24 -58h5l1 -1h-6l25 -60h-17l-67 -59l-7 -6
l-60 -54h-1l-81 -71l-53 -48l-17 -15l-23 -20h11l17 -17h246l33 29l61 54l7 6l23 20l24 -57l15 -35h5l17 -17h236l-9 20h1l-28 69h-1l-23 57h1l-25 62l-24 59l-5 5l63 55l-7 7h15l59 52l-11 11h23l56 49l-13 13h27l51 46l-17 17h38l33 30l-18 18l5 5h-254l-40 -36h11l11 -11
h-36l-58 -52h11l7 -7h-27l-5 -4l-16 40l-15 14l-1 3h10l-12 30l-15 14l-3 9h-244z" />
    <glyph glyph-name="FL007Bh" unicode="y" horiz-adv-x="688" 
d="M250 7h192l-2 -7h-192zM441 530l3 -8h-214l-3 8h214zM633 530h214l-9 -8h-214zM246 483h213l10 -24h-213zM579 483h214l-27 -24h-214zM337 245h192l-13 -37h-192zM316 186h192l-15 -40h-192zM294 126h192l-16 -43h-192zM318 305h274l-39 -34h-221zM272 67h192l-17 -47
h-192zM294 364h365l-34 -30h-319zM491 405l21 19h215l-31 -27h-415l-11 27h213zM588 508h11l11 -11h-36l-58 -52h11l7 -7h-27l-5 -4l-16 40l-15 14l-1 3h10l-12 30l-15 14l-3 9h-244l15 -36h5l11 -11h-12l22 -52h5l7 -7h-10l23 -55h5l5 -5h-9l24 -58h5l1 -1h-6l26 -62h3
l-19 -57l-27 -68h2l-25 -63h1l-17 -48h-2l-10 -35h7l17 -17h216l7 26l1 3l20 54l25 65h-1l23 60l20 59l-4 4h17l64 56l-7 7h15l59 52l-11 11h23l56 49l-13 13h27l51 46l-17 17h38l33 30l-18 18l5 5h-254z" />
    <glyph glyph-name="FL007Ah" unicode="z" horiz-adv-x="648" 
d="M46 7h507q-8 -7 -15 -7h-499zM290 522q3 2 5.5 4t5.5 4h501l-9 -8h-503zM419 364h209l-31 -30h-209zM357 305h209l-35 -34h-209zM295 245h209l-39 -37h-209zM233 186h209l-42 -40h-209zM251 483h501l-25 -24h-497zM183 397q3 7 19 27h489l-28 -27h-480zM653 126
q-5 -9 -13 -20t-17 -23h-498l45 43h483zM610 67q-11 -14 -21.5 -26t-20.5 -21h-508l49 47h501zM256 508h10l11 -11h-32l-45 -52h9l7 -7h-21q-10 -13 -17 -22.5t-9 -14.5l12 -18h5l17 -17h197l-47 -46h10l1 -1h-13l-62 -60l-2 -2l-60 -57l-63 -60l-74 -71l-50 -48l-35 -35h10
l17 -17h526q7 0 34 20l2 2t4 3.5t5 3.5l-1 1q11 10 20 20t17 21l-6 12h16q11 15 20 27.5t14 20.5l-10 17l-11 10l-7 13h-204l39 37l62 59l-4 4h8l58 56l-7 7h15l54 52l-11 11h23l51 49l-13 13h26l48 46l-17 17h34l33 30l-18 18l5 5h-537q-12 -4 -17 -9z" />
    <glyph glyph-name="FL007Dh" unicode="{" horiz-adv-x="587" 
d="M167 -56l1 4h290l-6 -4h-285zM756 597q-4 -8 -7 -12h-350l5 12h352zM341 424h191l-9 -27h-192zM319 364h192l-11 -30h-192zM545 459h-191l8 24h305q-21 -21 -31 -21h-90zM719 543q-4 -5 -8 -10.5t-9 -10.5h-326l8 21h335zM254 186h192l-15 -40h-191zM233 126h191l-16 -43
h-191zM221 305h268l-12 -34h-292zM158 245h309l-13 -37h-335zM519 7q-13 -14 -26 -26.5t-24 -22.5h-297l18 49h329zM545 37q-3 -4 -6.5 -8t-7.5 -9h-337l17 47h354q-6 -9 -12 -18.5t-8 -11.5zM395 611l-17 -40h8l14 -14h-25l-20 -49h8l11 -11h-21l-18 -52h7l7 -7h-17
l-22 -55h8l5 -5h-13l-23 -58h8l1 -1h-81l-63 -60l-2 -2l-66 -63h10l17 -17h125l-15 -45l-25 -63h1l-22 -63l-17 -44h-1l-6 -18h1l-4 -14h7l17 -17h303l39 26l-4 4q9 9 19 18t18 18l-4 10h13q3 5 8 10.5t9 9.5l1 1q1 2 4 6.5t6 10.5h1q1 1 4 5.5t7 10t7 9.5t4 6l-18 17
q2 3 5 6h-148l14 36h-1l23 60l20 59l-4 4h7l19 56l-7 7h10l20 52l-11 11h14l17 49l-13 13h18l1 3h83q7 0 22.5 11.5t35.5 31.5l-17 17h30q5 6 10.5 12.5t10.5 13.5l-9 17l-12 12l-5 8h53q5 6 9.5 15l9.5 19l-18 17l3 6h-384z" />
    <glyph glyph-name="FL007Ch" unicode="|" horiz-adv-x="280" 
d="M284 662h192l-5 -14h-192zM262 602h192l-6 -17h-192zM241 543h192l-8 -21h-192zM219 483h192l-8 -24h-192zM198 424h192l-10 -27h-192zM4 -112h191l-10 -29h-192zM176 364h192l-11 -30h-192zM155 305h192l-13 -34h-192zM133 245h192l-14 -37h-192zM111 186h192l-14 -40
h-192zM89 126h192l-15 -43h-192zM68 67h192l-17 -47h-192zM46 7h192l-18 -49h-192zM25 -52h192l-19 -53h-192zM237 571h7l14 -14h-26l-20 -49h8l11 -11h-21l-18 -52h7l7 -7h-17l-22 -55h8l5 -5h-13l-23 -58h8l1 -1h-7l-25 -62h2l-25 -63h1l-19 -54h-1l-20 -59l-22 -60
l-30 -77h3l-19 -52l-19 -47h8l17 -17h216l12 36l27 75l-1 1l23 58l-1 1l20 53h1l21 63h2l21 62l23 59l-4 4h4l22 56l-7 7h8l20 52l-11 11h14l19 49l-13 13h17l16 46l-17 17h23l17 43l-18 17l1 3h24l13 39l-18 17l2 6h-221zM260 634h7l17 -17h214l13 36l-18 18l2 5h-221z" />
    <glyph glyph-name="FL007Eh" unicode="}" horiz-adv-x="587" 
d="M27 -57q1 2 1 3t1 2h352l-2 -5h-352zM613 585h-295q11 11 14 11h285zM363 424h192l-10 -27h-192zM254 522q5 5 10 10.5t10 10.5h323l-7 -21h-336zM667 334h-337l11 30h192l-7 -19h153zM276 186h191l-14 -40h-191zM212 461q1 2 4.5 8t8.5 14h351l-9 -24h-191l1 2h-165z
M254 126h191l-15 -43h-191zM475 208h-191l14 37h274l-37 -35h-59zM320 305h316l-36 -34h-293zM82 20q11 14 23 26.5t22 20.5h297l-17 -47h-325zM36 -42q7 11 15.5 23.5t19.5 25.5h331l-18 -49h-348zM636 610h-304q-2 0 -15.5 -10t-32.5 -29h10l14 -14h-40q-5 -5 -13 -14
t-13 -14l10 -21h5l11 -11h-51l-10 -15h1q-10 -15 -9 -14v-4l11 -17h5l17 -17h119l-19 -47h8l5 -5h-13l-23 -58h8l1 -1h-7l-25 -62h2l-25 -63h1l-19 -54h-1l-20 -59h-101q-14 -12 -28.5 -26t-25.5 -28l3 -6h-7q-19 -23 -28 -35t-14 -21l1 -3h-1q-7 -7 -8 -9t-1 -7
q0 -1 -0.5 -3t-0.5 -4v-10h6l17 -17h370l11 27l-1 1l22 58l-1 1l20 53h1l21 63h2l21 62l1 2h57l60 57l-4 4h9l59 56l-7 7h14l36 33l-18 18l5 5h-149l-7 7h14l19 49l-13 13h16l18 46l-17 17h22l15 43l-18 18l1 2h25l12 33l-18 18zM457 52v1l1 -1h-1z" />
    <glyph glyph-name="FL0080h" unicode="~" horiz-adv-x="445" 
d="M507 305q-6 -6 -14 -14.5t-19 -19.5h-98l32 34h99zM154 245h97l-35 -37h-98zM413 209q-1 -1 -2 -1h-117l-18 37h172q-8 -8 -16 -16.5t-19 -19.5zM212 305h136l16 -34h-185zM85 194h10l17 -17h129l34 36l10 -19h5l17 -17h124q5 0 6 0.5t4 3.5l20 20l7 7t10 10.5t10 10.5
l7 7l-4 4h8l26 26q3 4 5.5 6.5l4.5 4.5l-8 19l-14 14l-4 9h-107l-25 -27l-2 4l-14 13l-4 10h-151l-58 -60l-2 -2z" />
    <glyph glyph-name="FL007Fh" horiz-adv-x="175" 
 />
    <glyph glyph-name="FL00A1h" unicode="&#xa1;" horiz-adv-x="280" 
d="M296 522q19 8 39 8q19 0 33 -8h-72zM44 0l2 7h192l-2 -7h-192zM362 424q-16 -17 -40 -27h-71q-17 9 -21 27h132zM385 460q0 -1 -1 -1v0h-152v0q1 0 1 1q5 13 12 23h144q0 -12 -4 -23zM357 334h-192l10 25h192zM155 305h192l-13 -34h-192zM133 245h192l-14 -37h-192z
M111 186h192l-14 -40h-192zM89 126h192l-15 -43h-192zM68 67h192l-17 -47h-192zM388 373h-30q18 10 32 24l-8 18l-13 13h35q8 0 10 1t2 9q2 7 3 16t1 20l-17 17v6h-8l3 12l-17 17l1 4q-26 14 -47 14q-26 0 -47 -10l5 -26h6l11 -11h-71q-16 -24 -20 -35l3 -1l7 -7v-9h6l7 -7
h-31q11 -42 36 -55h1l10 -10h-92l-22 -53h8l1 -1h-7l-25 -62h2l-25 -63h1l-19 -54h-1l-20 -59l-22 -60h-2l-10 -35h7l17 -17h216l7 26l1 3l20 54h1l21 63h2l21 62l23 59l-4 4h4l22 56l-7 7h8l19 47l-18 17z" />
    <glyph glyph-name="FL00A2h" unicode="&#xa2;" horiz-adv-x="663" 
d="M575 662h126l-5 -14h-126zM554 602h126l-6 -17h-126zM294 -112h126l-11 -30h-126zM467 364h126l-11 -30h-126zM446 305h126l-13 -34h-126zM424 245h126l-14 -37h-126zM349 522q29 8 55 8h124l4 13h126l-4 -13h163q-4 -6 -6 -8h-462zM160 334q3 8 6 15t7 15h202
q-6 -7 -11 -14.5t-10 -15.5h-194zM144 271q2 8 3.5 16.5t3.5 17.5h188q-1 -2 -1 -4q0 -1 -1 -3q-2 -8 -4 -14.5t-3 -12.5h-186zM316 -52h126l-20 -53h-126zM562 7q-5 -5 -8 -7h-93l-16 -42h-126l18 49h225zM145 208q-2 8 -2 16v19v2h187q1 -9 4 -18.5t8 -18.5h-197zM243 459
l14 12t15 12h508l-21 -24h-516zM192 397q5 7 9.5 13.5t9.5 13.5h515l-30 -27h-504zM160 146q-7 17 -12 40h208q15 -20 34 -34l12 34h126l-14 -40h-354zM315 20q-27 8 -51 19t-44 28h402q-21 -26 -45 -47h-262zM202 83q-10 9 -17.5 20t-14.5 23h497q-8 -11 -16 -21.5
t-16 -21.5h-433zM529 571h7l14 -14h-29l-4 -13h-113q-31 0 -61 -9l3 -27h6l11 -11h-97q-6 -5 -13 -11.5t-13 -11.5q-2 -2 -4 -3.5t-4 -3.5l9 -22h5l7 -7h-49q-7 -7 -11.5 -14.5t-9.5 -15.5q-1 -2 -2 -2.5t-2 -2.5l11 -20h5l5 -5h-36q-5 -8 -8 -15.5t-6 -15.5l-3 -9l12 -18h4
l1 -1h-25q-2 -9 -4.5 -23.5t-4.5 -22.5l11 -14h-12v-16v-21q0 -9 2 -17l6 -5h-7q3 -17 7.5 -32.5t9.5 -26.5l1 -1h-2q18 -35 39 -59h-5q5 -5 11 -9t11 -9l6 -5q29 -25 56.5 -40.5t52.5 -23.5l-19 -50h2l-25 -63h1l-14 -37h8l17 -17h149l20 52l-1 1l23 59l-1 1l11 29h89
q7 5 9 6.5t4 3.5l-4 10h15q17 15 33.5 32.5t31.5 36.5q9 12 22 30.5t20 28.5l-18 18q2 4 3 5h-143l13 37l23 59l-4 4h4l22 56l-7 7h8l20 52l-11 11h102l54 49l-13 13h22l41 46l-17 17h29q2 2 8 10.5t13 19.5l-18 17q1 2 2 3t2 3h-160l-8 7l1 3h26l13 39l-18 18l2 5h-155z
M551 634h7l17 -17h148l13 36l-18 18l2 5h-155zM435 320h8l1 -1h-7l-25 -62h2l-25 -63h1l-6 -18q-4 3 -7 7q-14 28 -17 53l-4 4h4q3 23 7 32q2 3 2 10q0 1 0.5 7t0.5 7l-7 7h17q5 9 14 21.5t25 30.5l-11 11h45z" />
    <glyph glyph-name="FL00A3h" unicode="&#xa3;" horiz-adv-x="706" 
d="M515 522q22 8 39 8h70q0 -2 0.5 -4t0.5 -4h-110zM34 0l7 7h631v-7h-638zM418 459l14 12t15 12h183v-24h-212zM319 334q0 1 2 5q3 6 5.5 12.5t5.5 12.5h193l-1 -2q-2 -5 -3 -12.5t-1 -15.5h-201zM356 397q10 12 24 27h249q-1 -7 -1.5 -13.5t-2.5 -13.5h-269zM245 158
q2 6 4 13t7 15h207q-4 -6 -6 -11t-4 -7l-2 -5q1 -1 1.5 -3l0.5 -2q2 -2 4 -5.5t4 -6.5h-221zM227 305h391l14 -34h-441zM163 245h480l15 -37h-534zM670 126q2 -10 3 -20.5t2 -22.5h-553l45 43h503zM675 67q0 -11 -0.5 -23t-1.5 -24h-618l50 47h570zM512 508h6l11 -11h-88
q-6 -5 -13 -11.5t-13 -11.5q-2 -2 -4 -3.5t-4 -3.5l9 -22h5l7 -7h-53q-2 -3 -5.5 -6.5l-6.5 -6.5q-5 -5 -10.5 -11t-8.5 -10l10 -21h5l5 -5h-41l-6 -12q-2 -3 -2.5 -5t-1.5 -4l-3 -6q-1 -2 -1 -3t-1 -3l1 1q-4 -5 -4 -13l13 -13h4l1 -1h-102l-63 -60h-1l-68 -65h10l17 -17
h120q-1 -2 -1 -4q0 -1 -1 -3t-1 -3v-1q0 -2 -1 -2v-1l-10 -23h-61l-62 -59l-63 -60h-1l-35 -35h10l17 -17h676v20q1 12 2 29.5t1 28.5l-5 5h6q-2 17 -3 31t-3 25l-16 16q-1 1 -1 5l-13 11h-187v1l-1 1v1l3 6q2 4 8 14t8 14h192l-24 59l-4 4h2l-23 56l-15 14l-3 9h-76
q0 10 2 18h1l9 18l-11 11h102q2 11 3.5 23t3.5 26l-13 13h13v46l-17 17h12v14q0 1 -0.5 7.5t-0.5 8.5l-16 16q-1 3 -1 7h-84q-21 0 -47 -10z" />
    <glyph glyph-name="FL00A4h" unicode="&#xa4;" horiz-adv-x="690" 
d="M656 0h-213l-3 7h213zM34 0l8 7h213l-8 -7h-213zM442 530l3 -8h-214l-3 8h214zM634 530h214l-9 -8h-214zM220 271q2 8 5.5 16.5t8.5 17.5h131q-8 -9 -15 -20q-2 -4 -3.5 -7.5t-3.5 -6.5h-123zM668 279q-1 -2 -1 -4t-1 -4h-124q1 8 1 17t-2 17h129q0 -6 -0.5 -12.5
t-1.5 -13.5zM658 245q-7 -18 -21 -37h-145q26 16 39 37h127zM216 208q-1 8 -1.5 17t1.5 20h126q5 -22 20 -37h-146zM247 483h214l9 -24h-213zM580 483h214l-27 -24h-214zM416 67h212l20 -47h-213zM110 67h213l-53 -47h-214zM254 334q6 8 13 15l15 15h377l-3 -3
q3 -6 5.5 -12.5t4.5 -14.5h-144q-6 4 -14.5 6.5t-20.5 2.5h-54q-8 0 -15.5 -2.5t-15.5 -6.5h-148zM485 423h28l1 1h213l-30 -27h-415l-11 27h213zM619 186q-6 -8 -13 -14t-15 -12l5 -14h-397l29 25l1 1q-3 4 -7 14h397zM371 109l-30 -26h-213l49 43h427l18 -43h-213l-10 26
h-28zM589 508h11l11 -11h-36l-58 -52h11l7 -7h-27l-1 -1h-5l-14 37l-15 14l-1 3h9l-12 30l-15 14l-3 9h-244l15 -36h5l11 -11h-12l22 -52h5l7 -7h-10l23 -55h5l5 -5h-7l-20 -20t-15 -17l11 -21h5l1 -1h-33q-1 -2 -2 -4.5t-2 -4.5q-9 -20 -15 -36l11 -15h-14q-2 -9 -2 -17
v-14v-13q0 -5 1 -10l6 -5h-6q2 -7 4.5 -13.5t5.5 -11.5l-50 -43h1l-144 -126h1l-23 -20h11l17 -17h246l23 20l70 63h1l29 26h2l24 -57h-1l15 -35h5l17 -17h236l-9 20h1l-27 63h1l-27 65l-1 1l-6 17q12 10 24 24l-9 18h24q16 21 25 44l-10 15l-4 4h17q5 5 6 8t1 7v1t1 2
q1 7 1.5 15t0.5 23l-7 7h6q-2 12 -5 20.5t-5 15.5l16 16l-11 11h26l54 49l-13 13h29l51 46l-17 17h38l33 30l-18 18l5 5h-254zM371 236l-4 4h1q1 1 2 3t2 3q2 3 3.5 6l3.5 7q4 5 10.5 14t18.5 23l-7 7h24q8 4 15 6.5t13 2.5h54q10 0 18 -3q2 -8 3 -15t1 -9t-0.5 -6t-0.5 -8
v-12h-5q-7 -11 -26 -26.5t-46 -32.5h-61l-6 6q-12 18 -13 30z" />
    <glyph glyph-name="FL00A5h" unicode="&#xa5;" horiz-adv-x="688" 
d="M250 7h192l-2 -7h-192zM441 530l3 -8h-214l-3 8h214zM838 522h-214l9 8h214zM246 483h213l10 -24h-214zM579 483h214l-27 -24h-214zM318 305h274l-39 -34h-222zM447 20h-192l16 43h-160l6 4h415l-6 -4h-63zM294 364h365l-34 -30h-319zM493 146h-192l10 27h-160l20 13h415
l-20 -13h-63zM491 405l21 19h215l-31 -27h-416l-11 27h214zM263 245h415l-57 -37h-415zM209 126h415l-67 -43h-415zM882 544h-254l-40 -36h11l11 -11h-36l-58 -52h11l7 -7h-27l-5 -4l-16 40l-15 14l-1 3h10l-12 30l-15 14l-3 9h-244l15 -36h5l11 -11h-12l21 -52h5l7 -7h-10
l23 -55h5l5 -5h-8l24 -58h5l1 -1h-6l24 -60h-63l-91 -59h-1l-63 -41h14l17 -17h149v-2h-79l-110 -71h1l-30 -20h13l17 -17h149l-4 -11h-1l-2 -8l-3 -7h1l-6 -20h7l17 -17h216l7 25l14 38h59l30 20h1l101 65l-18 17l9 6h-143l1 2h59l54 35h1l91 59l-18 17l9 6h-128l43 37
l-7 7h15l59 52l-11 11h23l56 49l-13 13h27l51 46l-17 17h38l33 30l-18 18z" />
    <glyph glyph-name="FL00A6h" unicode="&#xa6;" horiz-adv-x="280" 
d="M284 662h192l-5 -14h-192zM262 602h192l-6 -17h-192zM241 543h192l-8 -21h-192zM219 483h192l-8 -24h-192zM198 424h192l-10 -27h-192zM4 -112h191l-10 -29h-192zM176 364h192l-11 -30h-192zM155 305h192l-13 -34h-192zM133 245h192l-14 -37h-192zM111 186h192l-14 -40
h-192zM89 126h192l-15 -43h-192zM68 67h192l-17 -47h-192zM46 7h192l-18 -49h-192zM25 -52h192l-19 -53h-192zM237 571h7l14 -14h-26l-20 -49h8l11 -11h-21l-18 -52h7l7 -7h-17l-22 -55h8l5 -5h-13l-23 -58h8l1 -1h-7l-25 -62h2l-25 -63h1l-19 -54h-1l-20 -59l-22 -60
l-30 -77h3l-19 -52l-19 -47h8l17 -17h216l12 36l27 75l-1 1l23 58l-1 1l20 53h1l21 63h2l21 62l23 59l-4 4h4l22 56l-7 7h8l20 52l-11 11h14l19 49l-13 13h17l16 46l-17 17h23l17 43l-18 17l1 3h24l13 39l-18 17l2 6h-221zM260 634h7l17 -17h214l13 36l-18 18l2 5h-221z" />
    <glyph glyph-name="FL00A7h" unicode="&#xa7;" horiz-adv-x="690" 
d="M34 0l8 7h213l-8 -7h-213zM634 530h214l-9 -8h-214zM668 279q-2 -6 -3 -8h-123q1 8 1 17t-2 17h129q0 -6 -0.5 -12.5t-1.5 -13.5zM220 271q2 6 3 10q2 6 4.5 12t6.5 12h131q-8 -9 -15 -20l-6 -14h-124zM658 245q-7 -18 -21 -37h-145q26 16 39 37h127zM216 208
q-1 8 -1.5 17t1.5 20h126q5 -22 20 -37h-146zM580 483h214l-27 -24h-214zM336 397q35 15 72.5 20.5t76.5 5.5h28l1 1h213l-30 -27h-361zM110 67h213l-53 -47h-214zM512 126q-51 -17 -113 -17h-28l-30 -26h-213l49 43h335zM254 334q6 8 13 15l15 15h377l-3 -3q3 -6 5.5 -12.5
t4.5 -14.5h-144q-6 4 -14.5 6.5t-20.5 2.5h-54q-8 0 -15.5 -2.5t-15.5 -6.5h-148zM620 186q-14 -14 -29 -26q-7 -4 -13.5 -7.5t-14.5 -6.5h-364l30 26q-3 4 -7 14h398zM589 508h11l11 -11h-36l-58 -52h11l7 -7h-27l-1 -1h-22q-41 0 -80 -5.5t-77 -22.5l5 -26h6l5 -5h-68
l-20 -20t-15 -17l11 -21h5l1 -1h-32q-7 -11 -11 -20t-7 -19q-1 -2 -1 -4v-3l10 -14h-14q-2 -9 -2 -17v-14v-13q0 -5 1 -10l6 -5h-6q2 -7 4.5 -13.5t5.5 -11.5l-50 -43h1l-144 -126h1l-23 -20h11l17 -17h246l23 20l70 63h1l29 26h25q63 0 116 18l-3 19h52q14 5 21 8.5t13 7.5
q15 12 30 27l-8 19h23q16 21 25 44l-10 15l-4 4h18q2 3 3 7t3 9l1 2q1 7 1.5 15t0.5 23l-7 7h6q-2 12 -5 20.5t-5 15.5l16 16l-11 11h26l54 49l-13 13h29l51 46l-17 17h38l33 30l-18 18l5 5h-254zM371 236l-4 4h4l8 19q4 5 10.5 14t18.5 23l-7 7h24q8 4 15 6.5t13 2.5h54
q10 0 18 -3q2 -8 3 -15t1 -9t-0.5 -6t-0.5 -8v-12h-5q-7 -11 -26 -26.5t-46 -32.5h-61l-6 6q-12 18 -13 30z" />
    <glyph glyph-name="FL00A8h" unicode="&#xa8;" horiz-adv-x="396" 
d="M300 530q18 0 29 -8h-65q18 8 36 8zM482 530q18 0 29 -8h-66q19 8 37 8zM257 412q-23 0 -35 12h78q-20 -12 -43 -12zM439 412q-23 0 -35 12h78q-20 -12 -43 -12zM215 471q1 4 5 12h125l-3 -12l-6 -12h-124q0 6 3 12zM517 459h-124q0 6 3 12q1 4 5 12h125l-3 -12zM300 544
q-25 0 -49 -12l5 -24h6l11 -11h-62q-3 -5 -5.5 -10t-3.5 -9q-4 -7 -4 -33h6l7 -7h-23q8 -8 14.5 -14t13.5 -11q33 -32 61 -32q25 0 81 34l-13 13h18l10 20l6 26l-17 17h21l-17 17h6q-50 36 -72 36zM482 544q-11 0 -23.5 -3t-25.5 -9l5 -24h6l11 -11h-63q-3 -5 -5.5 -10
t-3.5 -9q-4 -7 -4 -33h6l7 -7h-22q8 -8 14.5 -14t13.5 -11q33 -32 61 -32q25 0 81 34l-13 13h17l10 20l6 26l-17 17h22l-17 17h6q-50 36 -72 36zM195 435l5 -5q-3 2 -5 5z" />
    <glyph glyph-name="copyright" unicode="&#xa9;" horiz-adv-x="310" 
d="M377 461q-1 -1 -1 -2v0h-20q2 2 2.5 3.5t2.5 3.5zM332 424q-11 -4 -24 -4q-15 0 -23 4h47zM241 522q3 4 6.5 8t7.5 9q2 2 3 4h23q-4 -3 -7 -6.5t-6 -6.5l-4 -4l-4 -4h-19zM446 543q1 -2 1 -4q2 -10 2 -17h-20q0 2 -0.5 4t-0.5 4q-1 3 -1.5 6.5t-2.5 6.5h22zM442 483
q-2 -7 -5 -12.5t-7 -11.5h-19q6 10 12 24h19zM213 459q1 6 3 12l4 12h19q-5 -14 -6 -24h-20zM267 459q1 5 2 11t4 13h20q-6 -15 -6 -24h-20zM371 594q20 0 40 -9h-86q25 9 46 9zM230 397q-10 11 -14 27h23q6 -12 17 -20q5 -4 13 -7h-39zM403 424q-15 -17 -33 -27h-41
q5 2 9.5 3.5t9.5 3.5q15 5 31 20h24zM297 522q15 15 35 21h42q14 -6 17 -21h-23q-6 8 -19 8q-15 0 -28 -8h-24zM266 445h4l7 -7l-5 -24q5 -3 10 -5l14 -13q11 -7 26 -7l1 -6h6l17 -17h48q19 10 37 31l-8 18l-14 13l-2 4l5 -4h44q5 8 8.5 15t7.5 17l-10 14l-10 9l-5 8h33
q0 13 -0.5 19.5t-1.5 10.5q0 1 -2 7l-15 15q-2 4 -3 8l-10 6h-12l4 16l-17 17l1 5q-14 7 -27.5 10t-25.5 3q-22 0 -56 -12l3 -25h6l14 -14h-10q-9 -3 -17 -7l-1 2l5 5h-66l-5 -10h1q-1 -2 -2 -2.5t-2 -1.5q-3 -4 -8 -10t-4 -4l10 -21h5l11 -11h-44q-1 -2 -1.5 -4.5
t-1.5 -4.5q-3 -8 -5.5 -14t-3.5 -15l13 -14h4l7 -7h-26q5 -17 10.5 -30t13.5 -21l8 -4l13 -13l8 -4h43l4 19l-17 17l1 6q-1 0 -2.5 0.5t-2.5 0.5q-3 1 -5.5 2t-4.5 2v2l-13 13h10q1 5 1 8q0 4 2 9zM335 438h-17q1 12 11 36l-18 18q0 1 0.5 1.5t0.5 1.5l5 -4h27q13 8 25 8
q7 0 13 -8h28q-2 -5 -5 -10.5t-5 -11.5l-44 12q-10 -10 -10 -12l-24 -24h10l17 -17h13q-7 -5 -14 -9l-12 11zM409 525l-9 8q-6 13 -18 21h19q8 -12 10 -18l3 -9h1v-11zM293 499l8 8l10 -10h-20zM419 508h2l11 -11h-9q-2 6 -4 11zM261 491q0 -2 -0.5 -2.5t-0.5 -1.5l-4 4
q1 1 1 3z" />
    <glyph glyph-name="FL00ABh" unicode="&#xab;" horiz-adv-x="340" 
d="M305 397h-13l17 11zM440 397h-14l19 12zM301 186h63l-15 -40h-1zM165 186h63l-15 -40h-3zM242 364h51l-10 -30h-87zM376 364h52l-11 -30h-87zM338 271h-61l9 23q1 3 7 11h90l-47 -32zM202 271h-60l9 22q2 6 8 12h90l-48 -33zM269 214q-2 3 -5 8t-1 10l5 13h103l11 -9
l-10 -28h-96zM134 213q-2 3 -5 8t-1 10l5 14h101l13 -10l-10 -27h-98zM475 445l-99 -62h15l5 -5h-25l-46 -30l3 7l-11 11h15l18 49l-18 17l5 12l-93 -61h14l5 -5h-26l-89 -58h14l1 -1h-10q-12 -12 -15 -20l-17 -42h1l-7 -20q-2 -3 -2 -6v-4q0 -6 2.5 -10.5t4.5 -8.5
q1 -1 2 -2.5t2 -2.5l9 -9h2l17 -16l2 -1l51 -45h2l19 -17h14l24 62l6 17h1l73 -62h1l20 -17h11l24 62h-1l16 43l-18 17l2 4l-18 15l57 40l-7 7h13l20 52l-11 11h14l21 50l-18 17zM258 257l-4 -10l-10 7l15 10l-3 -7h2z" />
    <glyph glyph-name="FL00ACh" unicode="&#xac;" horiz-adv-x="505" 
d="M372 126h135l-10 -28h-135zM393 186h136l-15 -40h-135zM221 305h351l-12 -34h-375zM158 245h392l-13 -37h-418zM84 194h10l17 -17h264l-13 -37l-19 -56h7l17 -17h157l18 50l23 60l20 59l-4 4h7l19 56l-18 18l2 5h-376l-63 -60z" />
    <glyph glyph-name="FL00ADh" unicode="&#xad;" horiz-adv-x="350" 
d="M221 305h188l-36 -34h-188zM158 245h188l-39 -37h-188zM84 194h10l17 -17h221l62 59l-4 4h8l59 56l-18 18l5 5h-229l-63 -60z" />
    <glyph glyph-name="registered" unicode="&#xae;" horiz-adv-x="310" 
d="M256 540l1 1q0 1 1 2h22l-12 -12q-2 -2 -4 -4.5t-4 -4.5h-19zM447 543q3 -11 3 -21h-21q0 2 -0.5 4.5t-0.5 4.5q-2 8 -4 12h23zM441 483q-2 -6 -5 -12l-6 -12h-20q5 6 7.5 12t4.5 12h19zM214 459l2 12t3 12h19q-2 -7 -3 -13t-1 -11h-20zM372 595q22 0 42 -10h-92
q15 5 27 7.5t23 2.5zM231 397q-10 11 -14 27h22q5 -9 17 -19q6 -5 16 -8h-41zM403 424q-8 -8 -16.5 -15t-18.5 -12h-42q5 2 10.5 3.5t11.5 4.5q8 3 15 8t15 11h25zM359 483q-9 -6 -21 -6q10 -5 14 -18h-22q-3 9 -7 11q-3 4 -13 4h-11l-6 -15h-19l9 24h76zM305 543h40
q25 0 29 -4q10 -4 10 -11q0 -2 0.5 -3t0.5 -3h-23q-1 1 -2 1.5t-2 1.5t-20 1h-21l-2 -4h-18zM448 557h-9l4 16l-17 17l1 5q-26 14 -55 14q-23 0 -59 -12l3 -26h6l14 -14h-84q-9 -9 -9 -12l-31 -37h9l11 -11h-22q-5 -16 -7 -24t-3 -14l13 -14h4l7 -7h-26q5 -17 10.5 -30
t13.5 -21l8 -4l13 -13l8 -4h44l3 20l-18 17l1 5q-5 1 -17 8l-11 12h12v12l13 -12h42l6 15h2l15 -15h16q-11 -9 -21 -12h1q-1 0 -1.5 -0.5t-1.5 -0.5q-3 -1 -8.5 -2.5t-10.5 -3.5l3 -26h6l17 -17h48q13 7 22.5 14.5t17.5 15.5l-8 19l-13 13h47q3 7 6.5 14.5t7.5 16.5l-10 15
l-11 11l-4 6h35q0 24 -3 35l-16 15q0 2 -0.5 3t-0.5 3zM370 496h1q0 -1 1 -1q3 -3 4 -3.5t6 -0.5h29q-3 -7 -9 -16.5t-21 -29.5h9l7 -7h-14l-6 12q4 1 8 4l-6 20l-16 16l-2 5q9 0 9 1zM409 522l-12 11q-3 10 -17 18q-2 1 -3.5 1.5t-3.5 1.5h29q7 -14 8.5 -19t3.5 -9
q0 -1 0.5 -4t0.5 -6v-8q0 8 -6 14zM252 491h19l-6 -15zM415 505v3h6l11 -11h-17v8zM291 498h1l1 1l2 -2h-5z" />
    <glyph glyph-name="FL00AFh" unicode="&#xaf;" horiz-adv-x="494" 
d="M321 530h332l-9 -8h-332zM271 483h332l-26 -24h-332zM208 424h332l-28 -27h-332zM276 508h11l11 -11h-32l-56 -52h10l7 -7h-25l-57 -55h10l17 -17h365l51 49l-13 13h26l50 46l-17 17h34l33 30l-18 18l5 5h-372z" />
    <glyph glyph-name="FL00B0h" unicode="&#xb0;" horiz-adv-x="215" 
d="M300 530q18 0 29 -8h-65q18 8 36 8zM257 412q-23 0 -35 12h78q-20 -12 -43 -12zM215 471q1 4 5 12h125l-3 -12l-6 -12h-124q0 6 3 12zM300 544q-25 0 -49 -12l5 -24h6l11 -11h-62q-3 -5 -5.5 -10t-3.5 -9q-4 -7 -4 -33h6l7 -7h-23q8 -8 14.5 -14t13.5 -11q33 -32 61 -32
q25 0 81 34l-13 13h18l10 20l6 26l-17 17h21l-17 17h6q-50 36 -72 36zM195 435l5 -5q-3 2 -5 5z" />
    <glyph glyph-name="FL00B1h" unicode="&#xb1;" horiz-adv-x="493" 
d="M40 7h331l-7 -7h-331zM249 186h135l-8 -22h-135zM357 483h135l-9 -24h-135zM335 424h135l-10 -27h-135zM270 245h135l-13 -37h-135zM237 364h331l-32 -30h-331zM174 305h331l-36 -34h-331zM166 126h331l-45 -43h-331zM104 67h331l-50 -47h-331zM327 445h8l7 -7h-16
l-22 -55h8l5 -5h-86l-61 -58h10l1 -1h-13l-65 -62h10l17 -17h123l-13 -40l-18 -50h7l10 -10h-79l-62 -59l-63 -60h-1l-35 -35h10l17 -17h363l20 20h1l66 63h1l68 65l-18 18l5 5h-127l14 37h1l20 59l-4 4h58l59 56l-7 7h15l55 52l-18 18l5 5h-112l15 37l-13 13h17l18 46
l-18 17l3 6h-165z" />
    <glyph glyph-name="FL00B4h" unicode="&#xb4;" horiz-adv-x="202" 
d="M282 522q11 8 22 8t22 -8h-44zM278 424q-14 -10 -32.5 -17.5t-30.5 -7.5q-7 0 -9 2l-4 4q-8 5 -4 19h80zM334 483q-1 -1 -1 -3q-5 -10 -16 -21h-100q4 5 8 9.5t9 9.5l5 5h95zM280 508h5l11 -11h-63l-9 -9q-2 -2 -4.5 -5t-6.5 -7.5t-9.5 -11.5t-13.5 -19h9l7 -7h-17
q-5 -14 -5.5 -17t-0.5 -4q0 -13 8 -21l5 -5q1 -5 9 -6l14 -13q6 -4 16 -4q14 0 34 8t35 19l-6 20l-13 13h57q14 14 22 29l-5 5l-5 12l-15 14l-1 3h42l-17 17h6q-50 36 -65 36q-8 0 -16 -3.5t-16 -8.5z" />
    <glyph glyph-name="FL00B5h" unicode="&#xb5;" horiz-adv-x="869" 
d="M713 272v-1h-1zM321 67h4l-4 -1v1zM757 126h14l-2 -5zM472 67h30l-41 -19zM425 245q-1 -1 -1 -2l-1 -1q-21 -9 -28 -9q-11 0 -11 12h41zM468 290q0 10 -1 15h16l-12 -34h-14q3 5 5.5 9.5t5.5 9.5zM633 272l28 33h4l-2 -33h-30zM323 305q-17 -14 -25 -34h-13l14 34h24z
M690 300q0 1 0.5 2t0.5 3h18l-12 -34h-18zM449 483h6l18 -24h-52zM558 305h25l-15 -34h-23zM783 305h25l-14 -34h-24zM725 305h40l-14 -34h-12zM639 305q-8 -9 -14.5 -17.5t-12.5 -16.5h-23l14 34h36zM496 305h44l-14 -34h-15zM443 275q-1 -1 -1 -2t-1 -2h-47q23 31 38 31
q12 0 12 -15q2 -2 -1 -12zM402 305q-13 -14 -25 -34h-57q7 10 17 19q13 12 24 15h12q1 -1 2 -1t2 -1l1 2h24zM214 276l-10 29h77l-15 -34h-112zM214 215l-40 30h80l-15 -33l25 8l10 25h16q-3 -28 7 -37h-99zM858 276q0 -2 1 -3t1 -2h-47l17 34h84l15 -11l1 -12zM554 483h51
l-5 -21l131 21h17l-15 -24h-231zM323 424q17 -14 30 -14q9 0 16 4l11 10h460l-27 -18l32 -9h-555l13 27h20zM536 83h-65l-4 14l-66 -14h-68l20 26l-149 7l16 10h465l-46 -43h-23l-24 26zM761 245h109q7 -24 7 -37h-92l5 4l-13 6l-15 -10h-435q4 0 6 1l5 18q-5 -1 -9.5 -1.5
t-9.5 -0.5q-20 0 -13 20h59q-2 -4 -2.5 -7.5t-2.5 -7.5q-2 -18 26 -18q3 0 7 0.5t9 1.5q17 0 39 31h21l-11 -33l16 3l11 30h15q13 -31 32 -31l11 31h20l-12 -28l26 8l8 20h18q-4 -5 -6.5 -11t-5.5 -11h20q13 16 22 22h19q4 -6 6 -22l10 -5l9 27h18l-10 -28l15 1l10 27h20
q12 -27 28 -27zM200 357l68 -7l6 14h652l1 -2h-6l-61 -17l15 -11h-197h-6h-476zM707 146h-454l8 5l-118 33l4 2h649l-17 -40h-69l-2 1zM489 469l1 -9l-9 14l-8 7l-11 16h-18l-60 -52h11l7 -7h-27l-14 -13q-2 -1 -8 -1q-10 0 -22 11l-7 3h-30l-27 -55h8l5 -5h-15l-6 -13
l-71 7l-9 -52h7l1 -1h-2l10 -30l-46 -4l1 -26h-19l23 -18l6 -5l26 -20l3 -16h-46l-40 -20l14 -4l15 -15l80 -23l-54 -33l13 -1l18 -17l118 -7v-7l-3 -4h3v-22l5 1l18 -17l21 6l-2 15h74l26 5l-24 -41l10 4l18 -17l78 36l-3 13h31l47 22l5 -5h4l17 -17h32l67 63h16l8 -3
l14 -14l26 -11l11 28l1 2l25 60h76q0 26 -9 59l-4 4h12q-4 4 -5 4l-2 2l62 6l-2 28l-17 16v5l-24 18h-6l-1 1h6l-4 3l30 8h21l-12 24l-13 13l-5 10h-66l2 9l-7 7l32 21l-18 18l7 5h-120l23 36l-18 17l4 6h-45l-98 -16l-10 10l2 6h-73zM503 254l1 3h2l14 -14l-2 -6l-12 12
q-1 1 -3 5zM744 248l2 -3l-1 -4l-1 1v6z" />
    <glyph glyph-name="FL00B7h" unicode="&#xb6;" horiz-adv-x="648" 
d="M259 303q-1 0 -3 2h4zM667 208h-23l15 10l13 -6zM560 217l10 28h15l-10 -27zM533 223q-2 16 -6 22h25l-9 -27zM333 212l11 33h16l-11 -30zM426 217l12 28h22l-8 -20zM466 223q3 5 5.5 11t6.5 11h30q-9 -6 -22 -22h-20zM121 212l15 33h20l-10 -25zM647 305h18l-13 -34h-19
zM163 305h18l-14 -34h-19zM422 305h18l-13 -34h-19zM633 218q-16 0 -28 27h38zM465 305h20l-14 -34h-21zM690 305h22l-17 -34h-19zM407 214q-19 0 -32 31h43zM365 305h13l15 -34h-40zM180 271q8 20 25 34h38q-11 -3 -24 -15q-10 -9 -17 -19h-22zM594 271h-15l12 34h16
l14 -34h-26v1zM179 208q-10 9 -7 37h16q-7 -20 13 -20q5 0 9.5 0.5t9.5 1.5l-5 -18q-2 -1 -6 -1h-30zM547 305h26q0 -2 -0.5 -3t-0.5 -2l-11 -29h-67q6 8 12.5 16.5t14.5 17.5h22l-28 -33h30zM325 275q3 10 1 12q0 15 -12 15q-15 0 -38 -31h-17q12 20 25 34h65q1 -5 1 -15
q-3 -5 -5.5 -9.5t-5.5 -9.5h-16q1 1 1 2t1 2zM242 230q2 4 2.5 7.5t2.5 7.5h19q0 -12 11 -12q7 0 28 9l1 1q0 1 1 2h16q-22 -31 -39 -31q-5 -1 -9 -1.5t-7 -0.5q-28 0 -26 18zM679 236l-4 4h47l28 56l-18 17l3 6h-97l-8 -20l-11 11l-3 9h-101q-2 -2 -4 -4.5t-4 -5.5l-4 4
l3 6h-93l-10 -22l-12 13l-4 9h-233l-27 -60l-1 -2l-31 -67l8 2l18 -17l53 17l1 3l16 -15l8 -3h30q3 0 6.5 0.5t9.5 3.5l4 15l8 -7q8 -8 31 -8h7t7 1h-1q1 0 1.5 0.5t1.5 0.5q8 0 19 8l14 -13l40 7l9 23q5 -5 10 -6l5 -6v-2h2l2 -1q9 -9 18 -10l4 -4l53 16l1 2l5 -5h26
q6 8 17 17l14 -13l20 -10l1 -1h1l4 -2v2l34 2l2 7h6l17 -17h63l22 17l-18 18l4 3l-24 11zM619 208l-12 -8l5 12q2 -3 7 -4zM233 247q-1 -2 -1 -4q0 -1 -1 -3h-3q2 2 2.5 4t2.5 4v-1zM199 177l-17 16q-1 0 -1 1h1z" />
    <glyph glyph-name="FL00B9h" unicode="&#xb7;" horiz-adv-x="215" 
d="M231 341q14 0 28 -7h-62q8 3 16.5 5t17.5 2zM188 223q-31 0 -42 22h101q-27 -22 -59 -22zM147 282q5 14 13 23h118v-4q0 -12 -4 -19q-2 -3 -2.5 -6t-2.5 -5h-126q2 8 4 11zM231 355q-11 0 -22.5 -2.5t-23.5 -7.5l5 -25h6l1 -1h-43q-16 -19 -20 -32q-4 -6 -6 -13t-4 -15
h-1q15 -30 36 -42l7 -7q18 -18 42 -18q17 0 40 11.5t49 32.5l-4 4h3l6 12l1 2q0 1 1 3h-1q6 10 6 24v15l-17 17v6h-5l1 3l-17 17l1 5q-19 11 -41 11z" />
    <glyph glyph-name="FL00B8h" unicode="&#xb8;" horiz-adv-x="208" 
d="M-133 -112h256l-1 -4h-261zM148 -42h-189l24 18h53l11 30h119zM-54 -52h199l-19 -53h-250zM187 20h-149l-12 -30h-48l-62 -46h1l-64 -49l-38 -25h13l17 -17h306l3 15l26 71l-1 1l23 57l-18 17z" />
    <glyph glyph-name="FL00BBh" unicode="&#xbb;" horiz-adv-x="340" 
d="M192 407l11 -10h-15zM327 408l13 -11h-17zM231 146l15 40h49l-61 -40h-3zM162 186l-62 -40h-3l14 40h51zM309 305h98l-13 -34h-67l13 9zM172 305h99l-12 -34h-66l12 8zM272 338q1 -1 1 -2t1 -2h-109l11 30h66zM407 339q1 -2 1.5 -2.5t1.5 -2.5h-110l11 30h67zM261 226
l28 19h90q-6 -6 -12.5 -11t-11.5 -9l-26 -17h-75zM126 225l29 20h90q-6 -6 -13 -11.5t-12 -9.5l-25 -16h-76zM304 383h7l5 -5h-14l-16 -40v1l-4 8l-35 31h-8l-5 5h5l-52 47l-20 -47h8l5 -5h-13l-23 -58h8l1 -1h-21l24 -20l4 -3l20 -17l-33 -22h1l-34 -24l-16 -39h1l-21 -62
h7l17 -17h21l96 62h-1l12 8l-20 -53h8l17 -17h22l94 62h1l29 19q7 5 17.5 14t27.5 26l-5 4l22 56l-7 7h21l-17 17h4l-23 23q-1 1 -2 1l-1 1l-1 3l-34 30h-6l-5 5h5l-57 48zM304 290l12 -10l-21 -15z" />
    <glyph glyph-name="FL00BFh" unicode="&#xbf;" horiz-adv-x="686" 
d="M681 522q19 8 39 8t33 -8h-72zM747 424q-16 -17 -40 -27h-71q-17 9 -21 27h132zM137 0q-19 0 -30 7h479l-7 -7h-442zM770 460q0 -1 -1 -1v0h-152v0q1 0 1 1q5 13 12 23h145q0 -6 -5 -23zM724 360q-8 -12 -22 -26h-362q5 0 8.5 0.5t7.5 0.5h149q31 0 46.5 10.5t17.5 13.5
v1h155zM304 180l-4 -5q-5 -5 -8 -13t-3 -15v-1h-197q7 15 18 31q4 6 7 9h195zM674 305q-10 -9 -20 -17.5t-21 -16.5h-427q27 19 54 34h414zM596 245q-44 -28 -81 -37h-379q8 9 17.5 18.5t20.5 18.5h422zM643 67q-23 -26 -44 -47h-507q-13 18 -15 47h566zM690 126
q-7 -11 -15.5 -21.5t-17.5 -21.5h-580q0 11 2 21.5t5 21.5h606zM678 508h6l11 -11h-71q-16 -24 -20 -35l3 -1l7 -7v-9h6l7 -7h-31q11 -42 36 -55h1l7 -7q0 -1 0.5 -1.5l0.5 -0.5h-86v-9q-5 -5 -17.5 -10.5t-32.5 -5.5h-156q-2 0 -3 -0.5t-2 -0.5h-7v-28h6l1 -1h-88
q-13 -7 -37 -23t-56 -39h3q-14 -13 -29.5 -29.5t-32.5 -33.5h1l-4 -6q-1 -1 -1 -2l-1 -1q-11 -15 -26 -45q-1 -2 -1 -3l-1 -2q0 -1 -0.5 -1.5t-0.5 -1.5q-3 -11 -4.5 -24t-2.5 -27h-1q2 -37 13 -60h-17q5 -4 10 -7l10 -6l11 -10q25 -16 41 -22.5t27 -6.5h447l20 20
q11 11 23.5 24.5t23.5 26.5l-6 12h17q11 12 20.5 24.5t16.5 23.5l-9 17l-13 12l-5 11h-369q1 3 6 8l2 3l35 26h172q19 5 40 15t44 24l-6 20l-4 4h45q11 8 22.5 18t21.5 19l-7 19l-7 7h40q8 8 14 15.5t12 15.5l-9 17l-13 13l-1 2q25 11 45 31l-8 18l-13 13h35q8 0 10 1t2 8
q2 8 3.5 16t1.5 21l-17 17h22l-17 17h8q-56 36 -82 36t-47 -10z" />
    <glyph glyph-name="FL00C0h" unicode="&#xc0;" 
d="M585 717q8 0 15 -7h-40l15 5t10 2zM578 586q-20 0 -38 16h67q-4 -7 -12 -10l-6 -4q-2 -2 -11 -2zM574 7h178l1 -7h-178zM519 648q-2 8 -1 14h99q0 -4 0.5 -7t1.5 -7h-100zM636 530q8 0 16 -8h-203q11 8 19 8h168zM36 0q2 10 2 7h431q-3 -3 -5.5 -4.5t-4.5 -2.5h-423z
M519 364h178l4 -30h-177zM315 364h200l-22 -30h-202zM528 305h178l5 -34h-178zM537 245h178l5 -37h-177zM672 483q2 -6 3.5 -12t3.5 -12h-290l9 11q2 6 9 13h265zM269 305h202l-25 -34h-204zM546 186h178l6 -40h-178zM222 245h204l-27 -37h-206zM176 186h206l-30 -40h-208z
M562 67h180l8 -47h-179zM362 424h326l4 -27h-351zM522 67q-10 -13 -20 -25t-20 -22h-436l37 47h439zM554 113q-4 -9 -20 -30h-439l34 43h604l7 -43h-181zM636 544h-168q-12 0 -62 -36h12l11 -11h-28q-5 -5 -8.5 -9.5t-5.5 -8.5l-28 -34h9l7 -7h-20l-43 -55h9l5 -5h-18
l-46 -58h9l1 -1h-10l-49 -62l-49 -63l-49 -62l-70 -90q-2 2 -4 2q-7 0 -16 -27l-8 -11h6q-1 -2 -1 -4l13 -16h4l17 -17h426q2 2 7 5t18 15q6 6 8 9h1q9 10 18 20.5t17 21.5l-6 12h5l9 -46l3 -20h6l17 -17h201l-4 29l-1 1l-9 53h1l-10 65h-1l-8 60l-1 1l-8 58l-4 4h3l-8 56
l-7 7h5l-7 52l-11 11h9l-7 49l-13 13h8q-3 11 -5.5 21t-5.5 18l-14 14q-1 2 -1.5 3.5t-1.5 3.5l-4 3h18l-17 17h4q-36 36 -50 36zM424 177l43 59l-4 4h9l41 56l-7 7h8l6 -46h1l9 -63h1l7 -54h-142zM518 634h2l9 -9l10 -8h111v16q-1 3 -1.5 7t-0.5 13l-17 17v6h-127v-18v-6
q0 -3 2 -8zM598 555q14 0 19 5l2 2q5 2 11.5 9t15.5 22l-18 17q1 2 2 3t2 3h-128q13 -13 28 -23q20 -17 37 -27.5t29 -10.5zM585 731q-8 0 -30 -8q-1 -1 -2 -1v0q-1 0 -3 -0.5t-3 -0.5l5 -25h6l17 -17h72l-8 7l-1 1l-8 9h4q-16 16 -28.5 25.5t-20.5 9.5zM639 686q0 1 -1 1z
" />
    <glyph glyph-name="FL00C1h" unicode="&#xc1;" 
d="M621 718q11 0 22 -8h-44q11 8 22 8zM520 593q-3 2 -5 9h65q-13 -7 -25.5 -11t-21.5 -4q-8 0 -10 2zM574 7h178l1 -7h-178zM536 648q3 4 6 7t6 7h99q-2 -4 -5.5 -7.5l-6.5 -6.5h-99zM636 530q8 0 16 -8h-203q11 8 19 8h168zM36 0q2 10 2 7h431q-3 -3 -5.5 -4.5t-4.5 -2.5
h-423zM519 364h178l4 -30h-177zM315 364h200l-22 -30h-202zM528 305h178l5 -34h-178zM537 245h178l5 -37h-177zM672 483q2 -6 3.5 -12t3.5 -12h-290l9 11q2 6 9 13h265zM269 305h202l-25 -34h-204zM546 186h178l6 -40h-178zM222 245h204l-27 -37h-206zM176 186h206l-30 -40
h-208zM562 67h180l8 -47h-179zM362 424h326l4 -27h-351zM522 67q-10 -13 -20 -25t-20 -22h-436l37 47h439zM554 113q-4 -9 -20 -30h-439l34 43h604l7 -43h-181zM636 544h-168q-12 0 -62 -36h12l11 -11h-28q-5 -5 -8.5 -9.5t-5.5 -8.5l-28 -34h9l7 -7h-20l-43 -55h9l5 -5h-18
l-46 -58h9l1 -1h-10l-49 -62l-49 -63l-49 -62l-70 -90q-2 2 -4 2q-7 0 -16 -27l-8 -11h6q-1 -2 -1 -4l13 -16h4l17 -17h426q2 2 7 5t18 15q6 6 8 9h1q9 10 18 20.5t17 21.5l-6 12h5l9 -46l3 -20h6l17 -17h201l-4 29l-1 1l-9 53h1l-10 65h-1l-8 60l-1 1l-8 58l-4 4h3l-8 56
l-7 7h5l-7 52l-11 11h9l-7 49l-13 13h8q-3 11 -5.5 21t-5.5 18l-14 14q-1 2 -1.5 3.5t-1.5 3.5l-4 3h18l-17 17h4q-36 36 -50 36zM424 177l43 59l-4 4h9l41 56l-7 7h8l6 -46h1l9 -63h1l7 -54h-142zM534 634h5l17 -17h104q4 4 9.5 10.5t16.5 25.5l-18 17q1 2 2 3t2 3h-131
q-3 -5 -5 -7l-4 -4q-1 -1 -1.5 -2t-1.5 -2l-5 -5zM512 580q1 -2 9 -6l13 -12q6 -6 19 -6q11 0 26 5t31 13l-5 19l-16 16l-2 7h-91q2 -13 5 -21.5t9 -12.5zM621 732q-15 0 -65 -36h12l17 -17h112l-17 17h6q-50 36 -65 36z" />
    <glyph glyph-name="FL00C2h" unicode="&#xc2;" 
d="M612 602h82l5 -9h-82zM526 593q-93 -2 -91 0l9 9h90zM574 7h178l1 -7h-178zM636 530q8 0 16 -8h-203q11 8 19 8h168zM579 648h-88l14 14h159l7 -14h-86l-2 4zM36 0q2 10 2 7h431q-3 -3 -5.5 -4.5t-4.5 -2.5h-423zM519 364h178l4 -30h-177zM315 364h200l-22 -30h-202z
M528 305h178l5 -34h-178zM537 245h178l5 -37h-177zM672 483q2 -6 3.5 -12t3.5 -12h-290l9 11q2 6 9 13h265zM269 305h202l-25 -34h-204zM546 186h178l6 -40h-178zM222 245h204l-27 -37h-206zM176 186h206l-30 -40h-208zM562 67h180l8 -47h-179zM362 424h326l4 -27h-351z
M522 67q-10 -13 -20 -25t-20 -22h-436l37 47h439zM554 113q-4 -9 -20 -30h-439l34 43h604l7 -43h-181zM636 544h-168q-12 0 -62 -36h12l11 -11h-28q-5 -5 -8.5 -9.5t-5.5 -8.5l-28 -34h9l7 -7h-20l-43 -55h9l5 -5h-18l-46 -58h9l1 -1h-10l-49 -62l-49 -63l-49 -62l-70 -90
q-2 2 -4 2q-7 0 -16 -27l-8 -11h6q-1 -2 -1 -4l13 -16h4l17 -17h426q2 2 9 6.5t24 22.5q10 10 19 20.5t17 21.5l-6 12h5l9 -46l3 -20h6l17 -17h201l-4 29l-1 1l-9 53h1l-10 65h-1l-8 60l-1 1l-8 58l-4 4h3l-8 56l-7 7h5l-7 52l-11 11h9l-7 49l-13 13h8q-3 11 -5.5 21
t-5.5 18l-14 14q-1 2 -1.5 3.5t-1.5 3.5l-4 3h18l-17 17h4q-36 36 -50 36zM484 617h225l-18 36l-13 13l-5 10h-174l-42 -42h10zM424 177l43 59l-4 4h9l41 56l-7 7h8l6 -46h1l9 -63h1l7 -54h-142zM440 565q3 -3 13 -3.5t24 -0.5h28q18 0 41 1l8 4l24 27l-18 18l4 5h-126
l-13 -13q-10 -10 -10 -15q0 -6 10 -9zM608 579h5l17 -17h108l-17 31l-12 12l-6 11h-115z" />
    <glyph glyph-name="FL00C3h" unicode="&#xc3;" 
d="M405 593l9 9h91l-9 -9h-91zM582 602h105q-4 -3 -9 -6t-9 -3h-82zM574 7h178l1 -7h-178zM636 530q8 0 16 -8h-203q11 8 19 8h168zM36 0q2 10 2 7h431q-3 -3 -5.5 -4.5t-4.5 -2.5h-423zM660 662h90l-7 -7t-8 -7h-179l-2 4l-4 -4h-89l14 14h168l6 -11zM519 364h178l4 -30
h-177zM315 364h200l-22 -30h-202zM528 305h178l5 -34h-178zM537 245h178l5 -37h-177zM672 483q2 -6 3.5 -12t3.5 -12h-290l9 11q2 6 9 13h265zM269 305h202l-25 -34h-204zM546 186h178l6 -40h-178zM222 245h204l-27 -37h-206zM176 186h206l-30 -40h-208zM562 67h180l8 -47
h-179zM362 424h326l4 -27h-351zM522 67q-10 -13 -20 -25t-20 -22h-436l37 47h439zM554 113q-4 -9 -20 -30h-439l34 43h604l7 -43h-181zM636 544h-168q-12 0 -62 -36h12l11 -11h-28q-5 -5 -8.5 -9.5t-5.5 -8.5l-28 -34h9l7 -7h-20l-43 -55h9l5 -5h-18l-46 -58h9l1 -1h-10
l-49 -62l-49 -63l-49 -62l-70 -90q-2 2 -4 2q-7 0 -16 -27l-8 -11h6q-1 -2 -1 -4l13 -16h4l17 -17h426q2 2 9 6.5t24 22.5q10 10 19 20.5t17 21.5l-6 12h5l9 -46l3 -20h6l17 -17h201l-4 29l-1 1l-9 53h1l-10 65h-1l-8 60l-1 1l-8 58l-4 4h3l-8 56l-7 7h5l-7 52l-11 11h9
l-7 49l-13 13h8q-3 11 -5.5 21t-5.5 18l-14 14q-1 2 -1.5 3.5t-1.5 3.5l-4 3h18l-17 17h4q-36 36 -50 36zM469 676l-42 -42h10l17 -17h304q14 11 22 19l17 17l-18 18l5 5h-130l-2 -2v2h-183zM424 177l43 59l-4 4h9l41 56l-7 7h8l6 -46h1l9 -63h1l7 -54h-142zM398 562h123
l31 31l-18 18l5 5h-131l-37 -37h10zM578 579h5l17 -17h89q6 0 21 10t29 21l-18 18q2 1 6 5h-169z" />
    <glyph glyph-name="FL00C4h" unicode="&#xc4;" 
d="M701 712q5 0 8.5 -0.5t7.5 -1.5h-34q5 1 9 1.5t9 0.5zM519 712q5 0 8.5 -0.5t7.5 -1.5h-34q5 1 9 1.5t9 0.5zM658 594q-21 0 -30 8h65q-18 -8 -35 -8zM476 594q-17 0 -30 8h66q-19 -8 -36 -8zM574 7h178l1 -7h-178zM636 530q8 0 16 -8h-203q11 8 19 8h168zM435 653
q2 6 4 9h125q0 -3 -2 -9q-2 -4 -2 -5h-127q1 1 1 2t1 3zM743 653q-2 -4 -2 -5h-127q1 1 1 2t1 3q2 6 4 9h125q0 -3 -2 -9zM36 0q2 10 2 7h431q-3 -3 -5.5 -4.5t-4.5 -2.5h-423zM519 364h178l4 -30h-177zM315 364h200l-22 -30h-202zM528 305h178l5 -34h-178zM537 245h178
l5 -37h-177zM672 483q2 -6 3.5 -12t3.5 -12h-290l9 11q2 6 9 13h265zM269 305h202l-25 -34h-204zM546 186h178l6 -40h-178zM222 245h204l-27 -37h-206zM176 186h206l-30 -40h-208zM562 67h180l8 -47h-179zM362 424h326l4 -27h-351zM522 67q-10 -13 -20 -25t-20 -22h-436
l37 47h439zM554 113q-4 -9 -20 -30h-439l34 43h604l7 -43h-181zM636 544h-168q-12 0 -62 -36h12l11 -11h-28q-5 -5 -8.5 -9.5t-5.5 -8.5l-28 -34h9l7 -7h-20l-43 -55h9l5 -5h-18l-46 -58h9l1 -1h-10l-49 -62l-49 -63l-49 -62l-70 -90q-2 2 -4 2q-7 0 -16 -27l-8 -11h6
q-1 -2 -1 -4l13 -16h4l17 -17h426q2 2 9 6.5t24 22.5q10 10 19 20.5t17 21.5l-6 12h5l9 -46l3 -20h6l17 -17h201l-4 29l-1 1l-9 53h1l-10 65h-1l-8 60l-1 1l-8 58l-4 4h3l-8 56l-7 7h5l-7 52l-11 11h9l-7 49l-13 13h8q-3 11 -5.5 21t-5.5 18l-14 14q-1 2 -1.5 3.5t-1.5 3.5
l-4 3h18l-17 17h4q-36 36 -50 36zM399 634h10l17 -17h165q0 5 -0.5 6.5l-0.5 1.5q0 2 1 3t1 3l15 -14h165v8q0 2 1 3v2q1 3 2 7.5t1 15.5l-17 17v6h-146q-7 -8 -7.5 -11.5t-2.5 -8.5q0 -1 -1 -1v0q-3 -3 -7 -6v4l-17 17v6h-146q-5 -8 -7 -12t-3 -7l-1 -2q-2 -1 -22 -21z
M424 177l43 59l-4 4h9l41 56l-7 7h8l6 -46h1l9 -63h1l7 -54h-142zM428 593q47 -30 68 -30q19 0 44 11l-4 19l-16 15l-1 8h-122q5 -4 10 -7l10 -6zM619 593q20 -17 34 -23.5t25 -6.5q20 0 44 11l-4 19l-16 15l-1 8h-110q7 -6 13 -11t12 -9zM701 726q-5 0 -11.5 -1t-13.5 -2
l2 -27h6l17 -17h38l2 22l-18 17l1 6q-4 1 -8.5 1.5t-14.5 0.5zM519 726q-5 0 -11.5 -1t-13.5 -2l2 -27h6l17 -17h38l2 22l-18 17l1 6q-4 1 -8.5 1.5t-14.5 0.5z" />
    <glyph glyph-name="FL00C5h" unicode="&#xc5;" 
d="M611 712q5 0 8.5 -0.5t7.5 -1.5h-34q5 1 9 1.5t9 0.5zM568 594q-17 0 -30 8h66q-19 -8 -36 -8zM574 7h178l1 -7h-178zM636 530q8 0 16 -8h-203q11 8 19 8h168zM527 653q2 6 4 9h125q0 -3 -2 -9q-2 -4 -2 -5h-127q1 1 1 2t1 3zM36 0q2 10 2 7h431q-3 -3 -5.5 -4.5
t-4.5 -2.5h-423zM519 364h178l4 -30h-177zM315 364h200l-22 -30h-202zM528 305h178l5 -34h-178zM537 245h178l5 -37h-177zM672 483q2 -6 3.5 -12t3.5 -12h-290l9 11q2 6 9 13h265zM269 305h202l-25 -34h-204zM546 186h178l6 -40h-178zM222 245h204l-27 -37h-206zM176 186
h206l-30 -40h-208zM562 67h180l8 -47h-179zM362 424h326l4 -27h-351zM522 67q-10 -13 -20 -25t-20 -22h-436l37 47h439zM554 113q-4 -9 -20 -30h-439l34 43h604l7 -43h-181zM636 544h-168q-12 0 -62 -36h12l11 -11h-28q-5 -5 -8.5 -9.5t-5.5 -8.5l-28 -34h9l7 -7h-20
l-43 -55h9l5 -5h-18l-46 -58h9l1 -1h-10l-49 -62l-49 -63l-49 -62l-70 -90q-2 2 -4 2q-7 0 -16 -27l-8 -11h6q-1 -2 -1 -4l13 -16h4l17 -17h426q2 2 7 5t18 15q6 6 8 9h1q9 10 18 20.5t17 21.5l-6 12h5l9 -46l3 -20h6l17 -17h201l-4 29l-1 1l-9 53h1l-10 65h-1l-8 60l-1 1
l-8 58l-4 4h3l-8 56l-7 7h5l-7 52l-11 11h9l-7 49l-13 13h8q-3 11 -5.5 21t-5.5 18l-14 14q-1 2 -1.5 3.5t-1.5 3.5l-4 3h18l-17 17h4q-36 36 -50 36zM424 177l43 59l-4 4h9l41 56l-7 7h8l6 -46h1l9 -63h1l7 -54h-142zM491 634h10l17 -17h165q0 5 -0.5 6.5l-0.5 1.5
q2 5 3.5 11t1.5 17l-17 17v6h-146q-5 -8 -7 -12t-3 -7l-1 -2q-2 -1 -22 -21zM520 593q47 -30 68 -30q19 0 44 11l-4 19l-16 15l-1 8h-122q5 -4 10 -7l10 -6zM611 726q-5 0 -11.5 -1t-13.5 -2l2 -27h6l17 -17h38l2 22l-18 17l1 6q-4 1 -8.5 1.5t-14.5 0.5z" />
    <glyph glyph-name="FL00C6h" unicode="&#xc6;" horiz-adv-x="1195" 
d="M636 530q7 0 15 -8h-202q11 8 19 8h168zM36 0q2 10 2 7h431q-3 -3 -5.5 -4.5t-4.5 -2.5h-423zM574 7h515q-4 -4 -6.5 -5.5l-2.5 -1.5h-505zM1340 530l-2 -4l-2 -4h-569l3 8h570zM315 364h200l-22 -30h-202zM673 483l4 -12l4 -12h-292l9 11q2 6 9 13h266zM269 305h202
l-25 -34h-204zM222 245h204l-27 -37h-206zM924 305h230l-36 -34h-229zM176 186h206l-30 -40h-208zM362 424h326l4 -27h-351zM701 340l8 24h192l-11 -30h-366l-5 30h178zM546 186h289l-14 -40h-269zM528 305h351l-12 -34h-334zM1309 483q-5 -6 -9.5 -12t-9.5 -12h-546l9 24
h556zM1259 424q-10 -10 -18 -17t-14 -10h-506l10 27h528zM537 245h320l-2 -7l7 7h229l-39 -37h-509zM522 67q-10 -13 -20 -25t-20 -22h-436l37 47h439zM1151 67q-11 -13 -23.5 -25t-23.5 -22h-533l-9 47h589zM554 113q-4 -9 -20 -30h-439l34 43h1066q-5 -9 -12 -20t-9 -13
t-4 -5t-4 -5h-607zM761 544l-15 -36h8l11 -11h-21l-21 -52h8l7 -7h-16l-8 -20l-9 10h10q-4 16 -7 24t-5 15l-15 14v1q-1 2 -1 3t-1 3l-4 3h16l-17 17h4q-36 36 -49 36h-168q-12 0 -62 -36h12l11 -11h-28q-5 -5 -8.5 -9.5t-5.5 -8.5l-28 -34h9l7 -7h-20l-43 -55h9l5 -5h-18
l-46 -58h9l1 -1h-10l-49 -62l-49 -63l-49 -62l-70 -90q-2 2 -4 2q-7 0 -16 -27l-8 -11h6q-1 -2 -1 -4l13 -16h4l17 -17h426q2 2 7 5t18 15q6 6 8 9h1q9 10 18 20.5t17 21.5l-6 12h5l9 -46l3 -20h6l17 -17h518q5 3 8.5 6t15.5 14h1q11 11 25 24t26 27l-6 12h18q2 2 4.5 5
t4.5 6l2 2q1 1 5 6.5t8.5 13.5t10 16.5t9.5 15.5l-18 17q1 2 2 3t2 3h-364l13 37h207l62 59l-4 4h8l59 56l-18 18l5 5h-266l14 36l-11 11h324q15 8 37 30l-8 19l-13 13h50l12 16q2 3 5 6t5 6l-9 18l-13 12l-2 5h53q0 3 -0.5 5l-0.5 2l3.5 7.5t8.5 15.5l-18 18q1 1 3 5h-602z
M424 177l43 59l-4 4h9l41 56l-7 7h8l6 -46h1l9 -63h1l7 -54h-142z" />
    <glyph glyph-name="FL00C7h" unicode="&#xc7;" horiz-adv-x="663" 
d="M129 -112h257l-1 -4h-261zM349 522q29 8 55 8h413q-4 -6 -6 -8h-462zM160 334q3 8 6.5 15l7.5 15h201q-6 -7 -11 -14.5t-10 -15.5h-194zM145 271q1 16 6 34h188q-1 -2 -1 -4q0 -1 -1 -3q-2 -8 -4 -14.5t-3 -12.5h-185zM145 208q-2 8 -2 17v18v2h187q2 -9 5 -18.5t8 -18.5
h-198zM246 -24h53l11 31h252q-5 -5 -8 -7h-115q-9 0 -12 1l-16 -43h-189zM160 146q-8 18 -12 40h209q9 -12 20 -22.5t22 -17.5h-239zM209 -52h199l-19 -53h-250zM244 459q7 6 13.5 12t14.5 12h508l-21 -24h-515zM192 397q5 7 10 13.5t10 13.5h514l-30 -27h-504zM315 20
q-54 15 -95 47h402q-21 -26 -45 -47h-262zM202 83q-10 9 -17.5 20t-14.5 23h497q-8 -11 -16 -21.5t-16 -21.5h-433zM346 508h6l11 -11h-97q-5 -4 -10.5 -9t-10.5 -10q-4 -3 -12 -11l9 -22h5l7 -7h-49l-12.5 -17.5l-12.5 -17.5l10 -20h5l5 -5h-35l-8.5 -17t-9.5 -23l12 -18h4
l1 -1h-25q-3 -12 -4.5 -23t-3.5 -25l11 -12h-13v-16v-21q0 -9 2 -17l6 -5h-7q4 -18 8 -32.5t9 -26.5l1 -1h-2q18 -35 39 -59h-6q5 -5 10.5 -8.5t10.5 -7.5l7 -7q43 -36 86 -55l-4 -13h-48l-62 -46h1l-55 -42h-2l-20 -16l-6 -5l-13 -11h11l17 -17h302l3 15l26 71l-1 1l12 29
h123q10 7 23 20h1q17 15 33.5 32.5t31.5 36.5q9 12 22 30.5t20 28.5l-18 18q2 4 3 5h-257q-19 11 -33 22t-24 21q-10 17 -14 30t-6 23l-4 4h5q3 23 7 32q2 3 2 10q0 1 0.5 7t0.5 7l-7 7h17q5 9 14 21.5t25 30.5l-11 11h312l54 49l-13 13h22l41 46l-17 17h29q2 2 8 10.5
t13 19.5l-18 17q1 2 2 3t2 3h-439q-31 0 -61 -9z" />
    <glyph glyph-name="FL00C8h" unicode="&#xc8;" horiz-adv-x="657" 
d="M535 591q-17 0 -31 11h55q-4 -4 -7 -5l-6 -4q-10 -2 -11 -2zM548 721q8 -3 11 -11h-52q2 1 3.5 1.5t3.5 2.5q15 5 20 7h14zM477 648q-2 8 -2 14h99q1 -4 1.5 -7t0.5 -7h-99zM46 7h510q-4 -4 -6.5 -5.5l-2.5 -1.5h-503zM807 530l-2 -4l-2 -4h-569l3 8h570zM176 364h192
l-11 -30h-192zM155 305h191l-12 -34h-192zM111 186h191l-14 -40h-191zM391 305h230l-36 -34h-229zM776 483q-5 -6 -9.5 -12t-9.5 -12h-546l9 24h556zM726 424q-10 -10 -18 -17t-14 -10h-506l10 27h528zM133 245h191l-2 -7l7 7h229l-39 -37h-400zM641 93q-2 -2 -4 -5t-4 -5
h-559l15 43h573q-5 -9 -12 -20t-9 -13zM618 67q-11 -13 -23.5 -25t-23.5 -22h-520l17 47h550zM809 544h-581l-15 -36h8l11 -11h-21l-21 -52h8l7 -7h-16l-22 -55h8l5 -5h-13l-23 -58h8l1 -1h-7l-25 -62h2l-25 -63h1l-19 -54h-1l-20 -59l-22 -60h-2l-10 -35h7l17 -17h521
q5 3 8.5 6t15.5 14h1q11 11 25 24t26 27l-6 12h18q2 2 4.5 5t4.5 6l2 2q1 1 5 6.5t8.5 13.5t10 16.5t9.5 15.5l-18 17q1 2 2 3t2 3h-364l13 37h207l62 59l-4 4h8l59 56l-18 18l5 5h-266l14 36l-11 11h324q15 8 37 30l-8 19l-13 13h50l12 16q2 3 5 6t5 6l-9 18l-13 12l-2 5
h53q0 3 -0.5 5l-0.5 2l1 2.5t3 4.5l-10 16l-8 8zM476 634h1l9 -9l11 -8h110q0 14 -0.5 18.5t-1.5 7.5v10l-17 17v6h-127q0 -15 0.5 -22t1.5 -10zM491 593q42 -33 64 -33q3 0 7 1q1 0 3.5 0.5t3.5 0.5l9 6q5 3 12.5 10t15.5 15l-18 18l5 5h-130q8 -7 19 -14zM549 735h-17
q-1 0 -2 -0.5t-2 -0.5q-5 -2 -11.5 -4.5t-11.5 -4.5l-1 -1q-3 -1 -9 -6.5t-22 -21.5h10l17 -17h95q-7 16 -16 27l-2 1q1 0 1 -1h1l-8 7q-10 18 -18 21z" />
    <glyph glyph-name="FL00C9h" unicode="&#xc9;" horiz-adv-x="657" 
d="M478 598q-3 1 -4 4h52q-22 -10 -36 -10q-7 0 -9 2zM601 715q1 -2 2 -2.5t2 -2.5h-54q7 6 17 11h22q3 -2 5.5 -3t5.5 -3zM489 648q3 4 6 7t6 7h100q-3 -4 -6.5 -7.5l-6.5 -6.5h-99zM46 7h510q-4 -4 -6.5 -5.5l-2.5 -1.5h-503zM807 530l-2 -4l-2 -4h-569l3 8h570zM176 364
h192l-11 -30h-192zM155 305h191l-12 -34h-192zM111 186h191l-14 -40h-191zM391 305h230l-36 -34h-229zM776 483q-5 -6 -9.5 -12t-9.5 -12h-546l9 24h556zM726 424q-10 -10 -18 -17t-14 -10h-506l10 27h528zM133 245h191l-2 -7l7 7h229l-39 -37h-400zM641 93q-2 -2 -4 -5
t-4 -5h-559l15 43h573q-5 -9 -12 -20t-9 -13zM618 67q-11 -13 -23.5 -25t-23.5 -22h-520l17 47h550zM809 544h-581l-15 -36h8l11 -11h-21l-21 -52h8l7 -7h-16l-22 -55h8l5 -5h-13l-23 -58h8l1 -1h-7l-25 -62h2l-25 -63h1l-19 -54h-1l-20 -59l-22 -60h-2l-10 -35h7l17 -17
h521q5 3 8.5 6t15.5 14h1q11 11 25 24t26 27l-6 12h18q2 2 4.5 5t4.5 6l2 2q1 1 5 6.5t8.5 13.5t10 16.5t9.5 15.5l-18 17q1 2 2 3t2 3h-364l13 37h207l62 59l-4 4h8l59 56l-18 18l5 5h-266l14 36l-11 11h324q15 8 37 30l-8 19l-13 13h50l12 16q2 3 5 6t5 6l-9 18l-13 12
l-2 5h53q0 3 -0.5 5l-0.5 2l1 2.5t3 4.5l-10 16l-8 8zM487 634h5l17 -17h104q4 4 10 10.5t21 25.5l-18 18q1 1 1.5 2t2.5 3h-136q-3 -5 -5 -7l-4 -4q-1 -1 -1.5 -2t-1.5 -2l-5 -5zM609 727l-8 4q-3 0 -3 1q-1 1 -2 1.5t-2 1.5h-30q-5 -3 -15 -10t-36 -29h11l17 -17h111
l-17 17h4l-29 28zM470 585q3 -5 10 -6l12 -12q6 -6 18 -6q17 0 45 13l-4 19l-16 15l-1 8h-83q8 -17 15 -26z" />
    <glyph glyph-name="FL00CAh" unicode="&#xca;" horiz-adv-x="657" 
d="M586 713q4 0 9 -3h-81q6 3 10 3h62zM573 602h82l3 -6h-82zM394 596l6 6h91l-6 -6h-91zM537 648h-90l14 14h164l7 -14h-84l-4 7zM46 7h510q-4 -4 -6.5 -5.5l-2.5 -1.5h-503zM807 530l-2 -4l-2 -4h-569l3 8h570zM176 364h192l-11 -30h-192zM155 305h191l-12 -34h-192z
M111 186h191l-14 -40h-191zM391 305h230l-36 -34h-229zM776 483q-5 -6 -9.5 -12t-9.5 -12h-546l9 24h556zM726 424q-10 -10 -18 -17t-14 -10h-506l10 27h528zM133 245h191l-2 -7l7 7h229l-39 -37h-400zM641 93q-2 -2 -4 -5t-4 -5h-559l15 43h573q-5 -9 -12 -20t-9 -13z
M618 67q-11 -13 -23.5 -25t-23.5 -22h-520l17 47h550zM809 544h-581l-15 -36h8l11 -11h-21l-21 -52h8l7 -7h-16l-22 -55h8l5 -5h-13l-23 -58h8l1 -1h-7l-25 -62h2l-25 -63h1l-19 -54h-1l-20 -59l-22 -60h-2l-10 -35h7l17 -17h521q5 3 8.5 6t15.5 14h1q11 11 25 24t26 27
l-6 12h18q2 2 4.5 5t4.5 6l2 2q1 1 5 6.5t8.5 13.5t10 16.5t9.5 15.5l-18 17q1 2 2 3t2 3h-364l13 37h207l62 59l-4 4h8l59 56l-18 18l5 5h-266l14 36l-11 11h324q15 8 37 30l-8 19l-13 13h50l12 16q2 3 5 6t5 6l-9 18l-13 12l-2 5h53q0 3 -0.5 5l-0.5 2l1 2.5t3 4.5l-10 16
l-8 8zM440 617h230l-18 36l-13 13l-5 10h-179l-42 -42h10zM387 565h123l28 28l-18 18l5 5h-131l-34 -34h10zM567 582h5l17 -17h107l-14 28l-13 13l-5 10h-114zM586 727h-62q-10 0 -23 -7l5 -24h6l17 -17h122l-17 17h8q-22 14 -36.5 22.5t-19.5 8.5z" />
    <glyph glyph-name="FL00CBh" unicode="&#xcb;" horiz-adv-x="657" 
d="M491 712q5 0 8.5 -0.5t7.5 -1.5h-34q5 1 9 1.5t9 0.5zM673 712q5 0 8.5 -0.5t7.5 -1.5h-34q5 1 9 1.5t9 0.5zM630 594q-21 0 -30 8h65q-18 -8 -35 -8zM448 594q-17 0 -30 8h66q-19 -8 -36 -8zM715 653q-2 -4 -2 -5h-127q1 1 1 2t1 3q2 6 4 9h125q0 -3 -2 -9zM407 653
q2 6 4 9h125q0 -3 -2 -9q-2 -4 -2 -5h-127q1 1 1 2t1 3zM46 7h510q-4 -4 -6.5 -5.5l-2.5 -1.5h-503zM807 530l-2 -4l-2 -4h-569l3 8h570zM176 364h192l-11 -30h-192zM155 305h191l-12 -34h-192zM111 186h191l-14 -40h-191zM391 305h230l-36 -34h-229zM776 483
q-5 -6 -9.5 -12t-9.5 -12h-546l9 24h556zM726 424q-10 -10 -18 -17t-14 -10h-506l10 27h528zM133 245h191l-2 -7l7 7h229l-39 -37h-400zM641 93q-2 -2 -4 -5t-4 -5h-559l15 43h573q-5 -9 -12 -20t-9 -13zM618 67q-11 -13 -23.5 -25t-23.5 -22h-520l17 47h550zM809 544h-581
l-15 -36h8l11 -11h-21l-21 -52h8l7 -7h-16l-22 -55h8l5 -5h-13l-23 -58h8l1 -1h-7l-25 -62h2l-25 -63h1l-19 -54h-1l-20 -59l-22 -60h-2l-10 -35h7l17 -17h521q5 3 8.5 6t15.5 14h1q11 11 25 24t26 27l-6 12h18q2 2 4.5 5t4.5 6l2 2q1 1 5 6.5t8.5 13.5t10 16.5t9.5 15.5
l-18 17q1 2 2 3t2 3h-364l13 37h207l62 59l-4 4h8l59 56l-18 18l5 5h-266l14 36l-11 11h324q15 8 37 30l-8 19l-13 13h50l12 16q2 3 5 6t5 6l-9 18l-13 12l-2 5h53q0 3 -0.5 5l-0.5 2l1 2.5t3 4.5l-10 16l-8 8zM371 634h10l17 -17h165q0 5 -0.5 6.5l-0.5 1.5q0 2 1 3t1 3
l15 -14h165v8q0 2 1 3v2q1 3 2 7.5t1 15.5l-17 17v6h-146q-7 -8 -7.5 -11.5t-2.5 -8.5q0 -1 -1 -1v0q-3 -3 -7 -6v4l-17 17v6h-146q-5 -8 -7 -12t-3 -7l-1 -2q-2 -1 -22 -21zM400 593q47 -30 68 -30q19 0 44 11l-4 19l-16 15l-1 8h-122q5 -4 10 -7l10 -6zM591 593
q20 -17 34 -23.5t25 -6.5q20 0 44 11l-4 19l-16 15l-1 8h-110q7 -6 13 -11t12 -9zM673 726q-5 0 -11.5 -1t-13.5 -2l2 -27h6l17 -17h38l2 22l-18 17l1 6q-4 1 -8.5 1.5t-14.5 0.5zM491 726q-5 0 -11.5 -1t-13.5 -2l2 -27h6l17 -17h38l2 22l-18 17l1 6q-4 1 -8.5 1.5
t-14.5 0.5z" />
    <glyph glyph-name="FL00CCh" unicode="&#xcc;" horiz-adv-x="280" 
d="M376 718q10 0 16 -8h-44q22 8 28 8zM370 587q-20 0 -37 15h65q-4 -6 -11 -9l-7 -4q-2 -2 -10 -2zM44 0l2 7h192l-2 -7h-192zM311 648q-2 4 -2 14h99q1 -4 1.5 -7t1.5 -7h-100zM429 530l-3 -8h-192l3 8h192zM220 483h192l-9 -24h-192zM198 424h192l-10 -27h-192zM176 364
h192l-11 -30h-192zM155 305h192l-13 -34h-192zM133 245h192l-14 -37h-192zM111 186h192l-14 -40h-192zM89 126h192l-15 -43h-192zM68 67h192l-17 -47h-192zM228 544l-15 -36h8l11 -11h-21l-21 -52h8l7 -7h-16l-22 -55h8l5 -5h-13l-23 -58h8l1 -1h-7l-25 -62h2l-25 -63h1
l-19 -54h-1l-20 -59l-22 -60h-2l-10 -35h7l17 -17h216l7 26l1 3l20 54h1l21 63h2l21 62l23 59l-4 4h4l22 56l-7 7h8l20 52l-11 11h14l19 49l-13 13h17l18 46l-17 17h22l12 30l-18 17l3 6h-222zM309 634h1l11 -11l10 -6h118q-4 7 -6.5 13t-2.5 8q-1 2 -1 15l-17 17v6h-127
q0 -11 0.5 -20.5t3.5 -15.5zM325 593q18 -17 36 -27t29 -10q13 0 18 5l4 2q9 4 28 30l-18 17q2 4 4 6h-128q5 -5 11.5 -10t11.5 -10zM376 732q-7 0 -29 -8q-2 -1 -4.5 -1.5t-4.5 -1.5l3 -25h6l17 -17h71l-1 1q-4 4 -6.5 7.5t-5.5 6.5l-2 2h1q-28 36 -45 36zM293 52v1l1 -1
h-1z" />
    <glyph glyph-name="FL00CDh" unicode="&#xcd;" horiz-adv-x="280" 
d="M410 720q11 0 22 -8q0 -2 2 -2h-48q13 10 24 10zM309 595q-4 4 -5 7h59q-11 -6 -22.5 -9.5t-19.5 -3.5q-7 0 -9 2zM44 0l2 7h192l-2 -7h-192zM322 648q3 4 6.5 7t6.5 7h100q-3 -4 -6.5 -7.5l-6.5 -6.5h-100zM426 522h-192l3 8h192zM220 483h192l-9 -24h-192zM198 424h192
l-10 -27h-192zM176 364h192l-11 -30h-192zM155 305h192l-13 -34h-192zM133 245h192l-14 -37h-192zM111 186h192l-14 -40h-192zM89 126h192l-15 -43h-192zM68 67h192l-17 -47h-192zM450 544h-222l-15 -36h8l11 -11h-21l-21 -52h8l7 -7h-16l-22 -55h8l5 -5h-13l-23 -58h8l1 -1
h-7l-25 -62h2l-25 -63h1l-19 -54h-1l-20 -59l-22 -60h-2l-10 -35h7l17 -17h216l7 26l1 3l20 54h1l21 63h2l21 62l23 59l-4 4h4l22 56l-7 7h8l20 52l-11 11h14l19 49l-13 13h17l18 46l-17 17h22l12 30l-18 17zM320 634h5l17 -17h105q4 4 10 10.5t21 25.5l-18 18q1 1 1.5 2
t2.5 3h-136q-5 -6 -6.5 -7.5l-3.5 -3.5q-1 -1 -1.5 -2t-1.5 -2l-5 -5zM301 582q3 -5 10 -6l12 -12q6 -6 18 -6q9 0 23.5 4t28.5 12l-5 19l-16 16l-2 7h-85q6 -19 8 -24t5 -7zM410 734q-19 0 -66 -38h11l17 -17h82v22q2 0 3 -1l6 -3v1l-20 20l2 1q-21 15 -35 15z" />
    <glyph glyph-name="FL00CEh" unicode="&#xce;" horiz-adv-x="280" 
d="M416 712q3 0 7 -2h-77q6 2 8 2h62zM403 602h82l4 -7h-82zM225 595l7 7h91l-7 -7h-91zM44 0l2 7h192l-2 -7h-192zM426 522h-192l3 8h192zM368 648h-89l14 14h162l7 -14h-85l-3 6zM220 483h192l-9 -24h-192zM198 424h192l-10 -27h-192zM176 364h192l-11 -30h-192zM155 305
h192l-13 -34h-192zM133 245h192l-14 -37h-192zM111 186h192l-14 -40h-192zM89 126h192l-15 -43h-192zM68 67h192l-17 -47h-192zM450 544h-222l-15 -36h8l11 -11h-21l-21 -52h8l7 -7h-16l-22 -55h8l5 -5h-13l-23 -58h8l1 -1h-7l-25 -62h2l-25 -63h1l-19 -54h-1l-20 -59
l-22 -60h-2l-10 -35h7l17 -17h216l7 26l1 3l20 54h1l21 63h2l21 62l23 59l-4 4h4l22 56l-7 7h8l20 52l-11 11h14l19 49l-13 13h17l18 46l-17 17h22l12 30l-18 17zM272 617h228l-18 36l-13 13l-5 10h-177l-42 -42h10zM218 564h123l29 29l-18 18l5 5h-131l-35 -35h10zM398 581
h5l17 -17h108l-16 29l-12 12l-6 11h-115zM416 726h-62q-9 0 -13 -2l2 -6v-22h6l17 -17h82l4 19l-18 17l1 4q-5 3 -4 3q-10 4 -15 4z" />
    <glyph glyph-name="FL00CFh" unicode="&#xcf;" horiz-adv-x="280" 
d="M310 712q5 0 8.5 -0.5t7.5 -1.5h-34q5 1 9 1.5t9 0.5zM492 712q5 0 8.5 -0.5t7.5 -1.5h-34q5 1 9 1.5t9 0.5zM449 594q-21 0 -30 8h65q-18 -8 -35 -8zM267 594q-17 0 -30 8h66q-19 -8 -36 -8zM44 0l2 7h192l-2 -7h-192zM426 522h-192l3 8h192zM226 653q2 6 4 9h125
q0 -3 -2 -9q-2 -4 -2 -5h-127q1 1 1 2t1 3zM534 653q-2 -4 -2 -5h-127q1 1 1 2t1 3q2 6 4 9h125q0 -3 -2 -9zM220 483h192l-9 -24h-192zM198 424h192l-10 -27h-192zM176 364h192l-11 -30h-192zM155 305h192l-13 -34h-192zM133 245h192l-14 -37h-192zM111 186h192l-14 -40
h-192zM89 126h192l-15 -43h-192zM68 67h192l-17 -47h-192zM450 544h-222l-15 -36h8l11 -11h-21l-21 -52h8l7 -7h-16l-22 -55h8l5 -5h-13l-23 -58h8l1 -1h-7l-25 -62h2l-25 -63h1l-19 -54h-1l-20 -59l-22 -60h-2l-10 -35h7l17 -17h216l7 26l1 3l20 54h1l21 63h2l21 62l23 59
l-4 4h4l22 56l-7 7h8l20 52l-11 11h14l19 49l-13 13h17l18 46l-17 17h22l12 30l-18 17zM190 634h10l17 -17h165q0 5 -0.5 6.5l-0.5 1.5q0 2 1 3t1 3l15 -14h165v8q0 2 1 3v2q1 3 2 7.5t1 15.5l-17 17v6h-146q-7 -8 -7.5 -11.5t-2.5 -8.5q0 -1 -1 -1v0q-3 -3 -7 -6v4l-17 17
v6h-146q-5 -8 -7 -12t-3 -7l-1 -2q-2 -1 -22 -21zM219 593q47 -30 68 -30q19 0 44 11l-4 19l-16 15l-1 8h-122q5 -4 10 -7l10 -6zM410 593q20 -17 34 -23.5t25 -6.5q20 0 44 11l-4 19l-16 15l-1 8h-110q7 -6 13 -11t12 -9zM492 726q-5 0 -11.5 -1t-13.5 -2l2 -27h6l17 -17
h38l2 22l-18 17l1 6q-4 1 -8.5 1.5t-14.5 0.5zM310 726q-5 0 -11.5 -1t-13.5 -2l2 -27h6l17 -17h38l2 22l-18 17l1 6q-4 1 -8.5 1.5t-14.5 0.5z" />
    <glyph glyph-name="FL00D0h" unicode="&#xd0;" horiz-adv-x="805" 
d="M154 0l2 7h341q-23 -4 -46 -5.5t-48 -1.5h-249zM782 530q26 0 48 -8h-486l3 8h435zM286 364h194l-11 -30h-194zM890 364q-2 -8 -4 -15t-4 -15h-196q1 5 1.5 10.5t0.5 10.5q0 6 -1 9h203zM870 305q-7 -17 -18 -34h-192q9 13 16 27q2 4 3 7h191zM833 243q-7 -9 -13.5 -18
t-13.5 -17h-210q13 9 24 18.5t20 18.5h194q0 -1 -0.5 -1.5zM221 186h194l-14 -40h-194zM788 186q-9 -11 -18.5 -21t-18.5 -19h-273q43 14 84 40h226zM221 305h341l-36 -34h-341zM158 245h341l-39 -37h-341zM878 483l6 -12t5 -12h-568l9 24h548zM896 424v-14q0 -6 -1 -13
h-597l10 27h588zM657 67q-48 -31 -103 -47h-393l17 47h479zM731 126q-13 -12 -25.5 -23t-25.5 -20h-496l15 43h532zM880 497h-26l3 14l-18 17l1 5q-31 11 -58 11h-444l-15 -36h8l11 -11h-21l-21 -52h8l7 -7h-16l-22 -55h8l5 -5h-13l-23 -58h8l1 -1h-48l-63 -60l-68 -65h10
l17 -17h92l-13 -37h-1l-20 -59l-22 -60h-2l-10 -35h7l17 -17h264q27 0 51 1.5t47 5.5l-1 13h57q27 8 53 20t53 29l-4 14h24q33 23 56 46l-7 17h24q11 11 21.5 22t19.5 22l-9 18h24q7 8 15 19t15 20q2 2 2.5 5.5t0.5 14.5l-4 4h17q7 11 12 21l10 20l-10 15l-7 7h28q2 8 5 17
t5 22l-11 13l-7 6l0.5 0.5t0.5 1.5l-3 3h24q2 14 2 22v16l-17 17v4l-3 3h18q-7 18 -10.5 26t-6.5 14l-14 13q-2 4 -4 10zM516 355l-11 11h167q2 -6 2 -8v-3q0 -5 -1 -14.5t-3 -20.5h6l1 -1h-7l-4 -8q-1 -2 -1.5 -3.5t-1.5 -3.5q-3 -6 -11 -18t-21 -29h1q-21 -21 -71 -57h-4
q-23 -14 -45.5 -25.5t-42.5 -17.5l2 -17h-34l13 37h35l62 59l-4 4h8l59 56l-18 18l5 5h-95z" />
    <glyph glyph-name="FL00D1h" unicode="&#xd1;" horiz-adv-x="686" 
d="M364 593l9 9h91l-9 -9h-91zM541 602h105q-4 -3 -9 -6t-9 -3h-82zM44 0l2 7h192l-2 -7h-192zM832 522h-190l3 8h190zM399 7h245l-2 -7h-242zM479 530l1 -8h-246l3 8h242zM619 662h90l-7 -7t-8 -7h-179l-2 4l-4 -4h-89l14 14h168l6 -11zM628 483h190l-9 -24h-190zM606 424
h190l-10 -27h-190zM584 364h190l-11 -30h-190zM563 305h190l-13 -34h-190zM220 483h268l4 -24h-281zM133 245h192l-14 -37h-192zM111 186h192l-14 -40h-192zM89 126h192l-15 -43h-192zM198 424h301l5 -27h-316zM68 67h192l-17 -47h-192zM176 364h334l6 -30h-351zM387 67h279
l-17 -47h-253zM334 271h-192l13 34h367l6 -34h-179l-5 27zM376 126h311l-15 -43h-288zM365 186h344l-14 -40h-323zM536 232l5 13h190l-14 -37h-356l-7 37h179zM699 52v1l1 -1l21 63h2l21 62l23 59l-4 4h4l22 56l-7 7h8l20 52l-11 11h14l19 49l-13 13h17l18 46l-17 17h22
l12 30l-18 17l3 6h-220l-15 -36h8l11 -11h-21l-21 -52h8l7 -7h-16l-22 -55h8l5 -5h-13l-23 -58h8l1 -1h-7l-5 -12l-10 48l-11 11h9l-9 49l-13 13h10l-8 46l-16 16v1h11l-3 30l-17 16v7h-264l-15 -36h8l11 -11h-21l-21 -52h8l7 -7h-16l-22 -55h8l5 -5h-13l-23 -58h8l1 -1h-7
l-25 -62h2l-25 -63h1l-19 -54h-1l-20 -59l-22 -60h-2l-10 -35h7l17 -17h216l7 26l1 3l20 54v1l1 -1l21 63h2l21 62l9 24l1 -1l1 -6l11 -62l10 -51l2 -12l12 -63l3 -20h6l17 -17h261l7 26l1 3zM428 676l-42 -42h10l17 -17h304q14 11 22 19l17 17l-18 18l5 5h-130l-2 -2v2
h-183zM357 562h123l31 31l-18 18l5 5h-131l-37 -37h10zM537 579h5l17 -17h89q6 0 21 10t29 21l-18 18q2 1 6 5h-169zM544 303h3l-1 -3z" />
    <glyph glyph-name="FL00D2h" unicode="&#xd2;" horiz-adv-x="753" 
d="M613 720q10 0 17 -10h-49q2 0 4 2q22 8 28 8zM606 589q-18 0 -34 13h60q-4 -6 -8 -7l-7 -4q-2 -2 -11 -2zM548 648q-2 8 -2 14h99q1 -4 1.5 -7t0.5 -7h-99zM385 0q-25 0 -48 1.5t-44 5.5h251q-28 -7 -59 -7h-100zM573 530q45 0 88 -8h-276q29 8 56 8h132zM623 334
q-3 15 -11 30h204q1 -8 1.5 -15t-0.5 -15h-194zM393 364q-18 -14 -33 -30h-196q7 15 18 30h211zM335 298q-9 -17 -11 -27h-186q4 15 12 34h189q-2 -3 -4 -7zM813 287q-1 -5 -1.5 -8.5t-1.5 -7.5h-188q0 1 0.5 1.5l0.5 0.5q1 8 1 15q0 8 1 17h190q0 -5 -0.5 -9t-1.5 -9z
M320 245q0 -19 6 -37h-198q1 8 1.5 17t2.5 18v2h188zM606 232q2 3 3.5 6.5t3.5 6.5h189q-6 -18 -15 -37h-198q5 6 9 12zM509 146q14 7 29 17t29 23h208q-11 -19 -27 -40h-239zM336 186q14 -26 36 -40h-240q-2 9 -3 19t-1 21h208zM754 483q14 -10 25 -24h-511l33 24h453z
M801 424q3 -7 5.5 -13.5t4.5 -13.5h-605q10 13 24 27h571zM242 20q-47 16 -74 47h499q-38 -31 -83 -47h-342zM156 83q-7 9 -11.5 20t-8.5 23h595q-10 -12 -21 -22.5t-23 -20.5h-531zM573 544h-132q-34 0 -65 -10l3 -26h6l11 -11h-99l-72 -52h12l7 -7h-20q-10 -10 -21.5 -23
t-25.5 -32h9l5 -5h-16q-8 -12 -17 -26.5t-17 -31.5h8l1 -1h-9q-8 -17 -13 -31.5t-9 -28.5h-1v-14q-1 -6 -2 -14.5t-2 -16.5v-14q0 -26 1.5 -41.5t3.5 -26.5h1q5 -16 10.5 -29t10.5 -22h-3q22 -26 46 -44q19 -18 37.5 -29t37.5 -18l3 -1h34l13 -13q21 -4 45.5 -5.5t50.5 -1.5
h100q16 0 32 1.5t33 6.5l-2 12h37q49 18 107 63q13 10 28 25t33 38h1q8 11 18 25.5t22 36.5q6 12 12 26.5t11 32.5l-4 4h6q1 4 2.5 12t2.5 13t1.5 11t0.5 20l-7 7h9v20v14t-2 18l-11 11h11q-5 12 -8.5 23.5t-6.5 18.5l-14 14l-3 6h8q-5 5 -8.5 10t-8.5 10q-13 16 -24 27.5
t-21 19.5l-5 2h-72l2 16l-18 17l1 6q-43 8 -95 8zM622 320h2l1 -1h-14q0 -2 -0.5 -7.5t-0.5 -10.5v-12q0 -7 -1 -11q-1 -3 -1 -19h-9q0 -1 -0.5 -4.5t-0.5 -5.5v-3q-1 -1 -1 -2l-2 -4h-1q-5 -8 -10.5 -16.5t-19.5 -23.5h-3q-29 -26 -61 -42l4 -18h-97q-16 10 -27.5 19.5
t-19.5 17.5h1q-10 29 -10 48l-15 15h17q4 19 12 33q2 3 4 7.5t10 15.5l-7 7h12q7 8 16 16t20 16l-7 20l-11 11h192q6 -11 10 -20t5 -15zM547 634h1l9 -9l11 -8h110q0 14 -0.5 18.5t-1.5 7.5v10l-17 17v6h-127q0 -15 0.5 -22t1.5 -10zM560 593q20 -17 38 -26t28 -9q14 0 19 5
l4 2h-1q5 3 11.5 11t12.5 17l-18 18q1 1 3 5h-125q5 -5 11 -9.5t11 -8.5zM613 734q-7 0 -29 -8q-2 -1 -4 -1.5t-4 -1.5l1 -5h1v-22h6l17 -17h69q-4 7 -8 12t-8 9l-1 1q-10 15 -19.5 24t-20.5 9zM167 53l7 -7l-3.5 3.5zM792 461l-1 1q1 0 1 -1z" />
    <glyph glyph-name="FL00D3h" unicode="&#xd3;" horiz-adv-x="753" 
d="M643 720q11 0 22 -8q0 -2 2 -2h-48q13 10 24 10zM542 595q-4 4 -5 7h59q-11 -6 -22.5 -9.5t-19.5 -3.5q-7 0 -9 2zM555 648q3 4 6.5 7t6.5 7h100q-3 -4 -6.5 -7.5l-6.5 -6.5h-100zM385 0q-25 0 -48 1.5t-44 5.5h251q-28 -7 -59 -7h-100zM573 530q45 0 88 -8h-276
q29 8 56 8h132zM623 334q-3 15 -11 30h204q1 -8 1.5 -15t-0.5 -15h-194zM393 364q-18 -14 -33 -30h-196q7 15 18 30h211zM335 298q-9 -17 -11 -27h-186q4 15 12 34h189q-2 -3 -4 -7zM813 287q-1 -5 -1.5 -8.5t-1.5 -7.5h-188q0 1 0.5 1.5l0.5 0.5q1 8 1 15q0 8 1 17h190
q0 -5 -0.5 -9t-1.5 -9zM320 245q0 -19 6 -37h-198q1 8 1.5 17t2.5 18v2h188zM606 232q2 3 3.5 6.5t3.5 6.5h189q-6 -18 -15 -37h-198q5 6 9 12zM509 146q14 7 29 17t29 23h208q-11 -19 -27 -40h-239zM336 186q14 -26 36 -40h-240q-2 9 -3 19t-1 21h208zM754 483
q14 -10 25 -24h-511l33 24h453zM801 424q3 -7 5.5 -13.5t4.5 -13.5h-605q10 13 24 27h571zM242 20q-47 16 -74 47h499q-38 -31 -83 -47h-342zM156 83q-7 9 -11.5 20t-8.5 23h595q-10 -12 -21 -22.5t-23 -20.5h-531zM755 497h-72l2 16l-18 17l1 6q-43 8 -95 8h-132
q-34 0 -65 -10l3 -26h6l11 -11h-99l-72 -52h12l7 -7h-20q-10 -10 -21.5 -23t-25.5 -32h9l5 -5h-16q-8 -12 -17 -26.5t-17 -31.5h8l1 -1h-9q-8 -17 -13 -31.5t-9 -28.5h-1v-12q-1 -6 -2 -15.5t-2 -17.5v-14q0 -26 1.5 -41.5t3.5 -26.5h1q5 -16 10.5 -29t10.5 -22h-3
q22 -26 46 -44q19 -18 37.5 -29t37.5 -18l3 -1h34l13 -13q21 -4 45.5 -5.5t50.5 -1.5h100q16 0 32 1.5t33 6.5l-2 12h37q49 18 107 63q13 10 28 25t33 38h1q8 11 18 25.5t22 36.5q6 12 12 26.5t11 32.5l-4 4h6q1 4 2.5 12t2.5 13t1.5 11t0.5 20l-7 7h9v20v14t-2 18l-11 11
h11q-5 12 -8.5 23.5t-6.5 18.5l-14 14l-3 6h8q-5 5 -8.5 10t-8.5 10q-13 16 -24 27.5t-21 19.5zM622 320h2l1 -1h-14q0 -2 -0.5 -7.5t-0.5 -10.5v-12q0 -7 -1 -11q-1 -3 -1 -19h-9q0 -1 -0.5 -4.5t-0.5 -5.5v-3q-1 -1 -1 -2l-2 -4h-1q-5 -8 -10.5 -16.5t-19.5 -23.5h-3
q-29 -26 -61 -42l4 -18h-97q-16 10 -27.5 19.5t-19.5 17.5h1q-10 29 -10 48l-15 15h17q4 19 12 33q2 3 4 7.5t10 15.5l-7 7h12q7 8 16 16t20 16l-7 20l-11 11h192q6 -11 10 -20t5 -15zM553 634h5l17 -17h105q4 4 10 10.5t21 25.5l-18 18q1 1 1.5 2t2.5 3h-136
q-5 -6 -6.5 -7.5l-3.5 -3.5q-1 -1 -1.5 -2t-1.5 -2l-5 -5zM534 582q3 -5 10 -6l8 -8v-1l4 -3q6 -6 18 -6q9 0 23.5 4t28.5 12l-5 19l-16 16l-2 7h-85q6 -19 8 -24t5 -7zM643 734q-19 0 -66 -38h11l17 -17h82v22q2 0 3 -1l6 -3v1l-20 20l2 1q-21 15 -35 15zM167 53l7 -7
l-3.5 3.5z" />
    <glyph glyph-name="FL00D4h" unicode="&#xd4;" horiz-adv-x="753" 
d="M638 711q1 0 2 -0.5t3 -0.5h-72q2 0 2.5 0.5t2.5 0.5h62zM623 602h83l4 -8h-82zM446 594l8 8h91l-8 -8h-91zM385 0q-25 0 -48 1.5t-44 5.5h251q-28 -7 -59 -7h-100zM573 530q45 0 88 -8h-276q29 8 56 8h132zM591 648h-90l14 14h161l7 -14h-85l-2 5zM623 334q-3 15 -11 30
h204q1 -8 1.5 -15t-0.5 -15h-194zM393 364q-18 -14 -33 -30h-196q7 15 18 30h211zM335 298q-9 -17 -11 -27h-186q4 15 12 34h189q-2 -3 -4 -7zM813 287q-1 -5 -1.5 -8.5t-1.5 -7.5h-188q0 1 0.5 1.5l0.5 0.5q1 8 1 15q0 8 1 17h190q0 -5 -0.5 -9t-1.5 -9zM320 245
q0 -19 6 -37h-198q1 8 1.5 17t2.5 18v2h188zM606 232q2 3 3.5 6.5t3.5 6.5h189q-6 -18 -15 -37h-198q5 6 9 12zM509 146q14 7 29 17t29 23h208q-11 -19 -27 -40h-239zM336 186q14 -26 36 -40h-240q-2 9 -3 19t-1 21h208zM754 483q14 -10 25 -24h-511l33 24h453zM801 424
q3 -7 5.5 -13.5t4.5 -13.5h-605q10 13 24 27h571zM242 20q-47 16 -74 47h499q-38 -31 -83 -47h-342zM156 83q-7 9 -11.5 20t-8.5 23h595q-10 -12 -21 -22.5t-23 -20.5h-531zM573 544h-132q-34 0 -65 -10l3 -26h6l11 -11h-99l-72 -52h12l7 -7h-20q-10 -10 -21.5 -23
t-25.5 -32h9l5 -5h-16q-8 -12 -17 -26.5t-17 -31.5h8l1 -1h-9q-8 -17 -13 -31.5t-9 -28.5h-1v-12q-1 -6 -2 -15.5t-2 -17.5v-14q0 -26 1.5 -41.5t3.5 -26.5h1q5 -16 10.5 -29t10.5 -22h-3q22 -26 46 -44q19 -18 37.5 -29t37.5 -18l3 -1h34l13 -13q21 -4 45.5 -5.5t50.5 -1.5
h100q16 0 32 1.5t33 6.5l-2 12h37q49 18 107 63q13 10 28 25t33 38h1q8 11 18 25.5t22 36.5q6 12 12 26.5t11 32.5l-4 4h6q1 4 2.5 12t2.5 13t1.5 11t0.5 20l-7 7h9v20v14t-2 18l-11 11h11q-5 12 -8.5 23.5t-6.5 18.5l-14 14l-3 6h8q-5 5 -8.5 10t-8.5 10q-13 16 -24 27.5
t-21 19.5l-5 2h-72l2 16l-18 17l1 6q-43 8 -95 8zM622 320h2l1 -1h-14q0 -2 -0.5 -7.5t-0.5 -10.5v-12q0 -7 -1 -11q-1 -3 -1 -19h-9q0 -1 -0.5 -4.5t-0.5 -5.5v-3q-1 -1 -1 -2l-2 -4h-1q-5 -8 -10.5 -16.5t-19.5 -23.5h-3q-29 -26 -61 -42l4 -18h-97q-16 10 -27.5 19.5
t-19.5 17.5h1q-10 29 -10 48l-15 15h17q4 19 12 33q2 3 4 7.5t10 15.5l-7 7h12q7 8 16 16t20 16l-7 20l-11 11h192q6 -11 10 -20t5 -15zM494 617h227l-18 36l-13 13l-5 10h-176l-42 -42h10zM439 563h123l30 30l-18 18l5 5h-131l-36 -36h10zM620 580h5l17 -17h106l-15 30
l-13 13l-5 10h-118zM643 725h-67q-2 0 -3 -1h-5v-28h6l17 -17h72v22l-17 17v6h-3v1zM167 53q-1 1 -1 2l10 -11z" />
    <glyph glyph-name="FL00D5h" unicode="&#xd5;" horiz-adv-x="753" 
d="M400 593l9 9h91l-9 -9h-91zM577 602h105q-4 -3 -9 -6t-9 -3h-82zM385 0q-25 0 -48 1.5t-44 5.5h251q-28 -7 -59 -7h-100zM573 530q45 0 88 -8h-276q29 8 56 8h132zM655 662h90l-7 -7t-8 -7h-179l-2 4l-4 -4h-89l14 14h168l6 -11zM816 364q1 -8 1.5 -15t-0.5 -15h-194
q-3 15 -11 30h204zM164 334q7 15 18 30h211q-18 -14 -33 -30h-196zM138 271q4 15 12 34h189q-2 -3 -4 -7q-9 -17 -11 -27h-186zM813 287q-1 -5 -1.5 -8.5t-1.5 -7.5h-188q0 1 0.5 1.5l0.5 0.5q1 8 1 15q0 8 1 17h190q0 -5 -0.5 -9t-1.5 -9zM128 208q1 8 1.5 17t2.5 18v2h188
q0 -19 6 -37h-198zM802 245q-6 -18 -15 -37h-198q5 6 9 12l8 12q2 3 3.5 6.5t3.5 6.5h189zM775 186q-11 -19 -27 -40h-239q14 7 29 17t29 23h208zM132 146q-2 9 -3 19t-1 21h208q14 -26 36 -40h-240zM754 483q14 -10 25 -24h-511l33 24h453zM801 424q3 -7 5.5 -13.5
t4.5 -13.5h-605q10 13 24 27h571zM242 20q-47 16 -74 47h499q-38 -31 -83 -47h-342zM156 83q-7 9 -11.5 20t-8.5 23h595q-10 -12 -21 -22.5t-23 -20.5h-531zM573 544h-132q-34 0 -65 -10l3 -26h6l11 -11h-99l-72 -52h12l7 -7h-20q-10 -10 -21.5 -23t-25.5 -32h9l5 -5h-16
q-8 -12 -14.5 -22t-10.5 -18l12 -18h5l1 -1h-27q-7 -16 -11 -27t-6 -18l11 -15h-17v-12q-1 -6 -2 -15.5t-2 -17.5v-14q0 -23 1 -35.5t3 -21.5l3 -3h-3q6 -18 11.5 -33t11.5 -26h-3q22 -26 46 -44q19 -18 37.5 -29t37.5 -18l3 -1h34l13 -13q21 -4 45.5 -5.5t50.5 -1.5h100
q16 0 32 1.5t33 6.5l-2 12h37q49 18 107 63q13 10 28 25t33 38h1q15 21 31 46l-10 16h19q6 13 11 24t8 21l-11 14l-4 4h21q1 4 2.5 12t2.5 13t1.5 11t0.5 20l-7 7h9v20v12t-1 11l-17 16v4h16q-5 12 -8.5 23.5t-6.5 18.5l-14 14l-3 6h8q-5 5 -8.5 10t-8.5 10q-13 16 -24 27.5
t-21 19.5l-5 2h-72l2 16l-18 17l1 6q-43 8 -95 8zM360 180q-5 14 -7 28.5t-2 27.5l-4 4h6q4 19 12 33q2 3 4 7.5t10 15.5l-7 7h12q13 15 63 52l-11 11h158q13 -27 17 -46h6l1 -1h-7q0 -2 -0.5 -7.5t-0.5 -10.5v-12q0 -7 -1 -11q-1 -3 -1 -19h-9q0 -1 -0.5 -4.5t-0.5 -5.5v-3
q-1 -1 -1 -2q-2 -4 -5 -7q-5 -7 -10 -14.5t-18 -22.5h-3q-14 -13 -31 -24.5t-34 -19.5l3 -16h-91q-25 17 -45 35v2zM464 676l-42 -42h10l17 -17h304q14 11 22 19l17 17l-18 18l5 5h-130l-2 -2v2h-183zM393 562h123l31 31l-18 18l5 5h-131l-37 -37h10zM573 579h5l17 -17h89
q6 0 21 10t29 21l-18 18q2 1 6 5h-169zM167 53l7 -7l-3.5 3.5zM792 461l-1 1q1 0 1 -1z" />
    <glyph glyph-name="FL00D6h" unicode="&#xd6;" horiz-adv-x="753" 
d="M719 712q5 0 8.5 -0.5t7.5 -1.5h-34q5 1 9 1.5t9 0.5zM537 712q5 0 8.5 -0.5t7.5 -1.5h-34q5 1 9 1.5t9 0.5zM676 594q-17 0 -30 8h65q-18 -8 -35 -8zM494 594q-17 0 -30 8h66q-19 -8 -36 -8zM385 0q-25 0 -48 1.5t-44 5.5h251q-28 -7 -59 -7h-100zM453 653q2 6 4 9h125
q0 -3 -2 -9q-2 -4 -2 -5h-127q1 1 1 2t1 3zM761 653q-2 -4 -2 -5h-127q1 1 1 2t1 3q2 6 4 9h125q0 -3 -2 -9zM573 530q45 0 88 -8h-276q29 8 56 8h132zM623 334q-3 15 -11 30h204q1 -8 1.5 -15t-0.5 -15h-194zM393 364q-18 -14 -33 -30h-196q7 15 18 30h211zM335 298
q-9 -17 -11 -27h-186q4 15 12 34h189q-2 -3 -4 -7zM813 287q-1 -5 -1.5 -8.5t-1.5 -7.5h-188q0 1 0.5 1.5l0.5 0.5q1 8 1 15q0 8 1 17h190q0 -5 -0.5 -9t-1.5 -9zM320 245q0 -19 6 -37h-198q1 8 1.5 17t2.5 18v2h188zM606 232q2 3 3.5 6.5t3.5 6.5h189q-6 -18 -15 -37h-198
q5 6 9 12zM509 146q14 7 29 17t29 23h208q-11 -19 -27 -40h-239zM336 186q14 -26 36 -40h-240q-2 9 -3 19t-1 21h208zM754 483q14 -10 25 -24h-511l33 24h453zM801 424q3 -7 5.5 -13.5t4.5 -13.5h-605q10 13 24 27h571zM242 20q-47 16 -74 47h499q-38 -31 -83 -47h-342z
M156 83q-7 9 -11.5 20t-8.5 23h595q-10 -12 -21 -22.5t-23 -20.5h-531zM573 544h-132q-34 0 -65 -10l3 -26h6l11 -11h-99l-72 -52h12l7 -7h-20q-10 -10 -21.5 -23t-25.5 -32h9l5 -5h-16q-8 -12 -17 -26.5t-17 -31.5h8l1 -1h-9q-8 -17 -13 -31.5t-9 -28.5h-1v-14
q-1 -6 -2 -14.5t-2 -16.5v-14q0 -26 1.5 -41.5t3.5 -26.5h1q5 -16 10.5 -29t10.5 -22h-3q22 -26 46 -44q19 -18 37.5 -29t37.5 -18l3 -1h34l13 -13q21 -4 45.5 -5.5t50.5 -1.5h100q16 0 32 1.5t33 6.5l-2 12h37q49 18 107 63q13 10 28 25t33 38h1q8 11 18 25.5t22 36.5
q6 12 12 26.5t11 32.5l-4 4h6q1 4 2.5 12t2.5 13t1.5 11t0.5 20l-7 7h9v20v14t-2 18l-11 11h11q-5 12 -8.5 23.5t-6.5 18.5l-14 14l-3 6h8q-5 5 -8.5 10t-8.5 10q-13 16 -24 27.5t-21 19.5l-5 2h-72l2 16l-18 17l1 6q-43 8 -95 8zM622 320h2l1 -1h-14q0 -2 -0.5 -7.5
t-0.5 -10.5v-12q0 -7 -1 -11q-1 -3 -1 -19h-9q0 -1 -0.5 -4.5t-0.5 -5.5v-3q-1 -1 -1 -2l-2 -4h-1q-5 -8 -10.5 -16.5t-19.5 -23.5h-3q-29 -26 -61 -42l4 -18h-97q-16 10 -27.5 19.5t-19.5 17.5h1q-10 29 -10 48l-15 15h17q4 19 12 33q2 3 4 7.5t10 15.5l-7 7h12q7 8 16 16
t20 16l-7 20l-11 11h192q6 -11 10 -20t5 -15zM417 634h10l17 -17h165q0 5 -0.5 6.5l-0.5 1.5q0 2 1 3t1 3l15 -14h165v8q0 2 1 3v2q1 3 2 7.5t1 15.5l-17 17v6h-146q-7 -8 -7.5 -11.5t-2.5 -8.5q0 -1 -1 -1v0q-3 -3 -7 -6v4l-17 17v6h-146q-5 -8 -7 -12t-3 -7l-1 -2
q-2 -1 -22 -21zM628 593q47 -30 68 -30q20 0 44 11l-4 19l-16 15l-1 8h-122q5 -4 10 -7l10 -6zM446 593q47 -30 68 -30q19 0 44 11l-4 19l-16 15l-1 8h-122q5 -4 10 -7l10 -6zM719 726q-5 0 -11.5 -1t-13.5 -2l2 -27h6l17 -17h38l2 22l-18 17l1 6q-4 1 -8.5 1.5t-14.5 0.5z
M537 726q-5 0 -11.5 -1t-13.5 -2l2 -27h6l17 -17h38l2 22l-18 17l1 6q-4 1 -8.5 1.5t-14.5 0.5zM167 53q-1 1 -1 2l10 -11zM792 461l-1 1q1 0 1 -1z" />
    <glyph glyph-name="FL00D7h" unicode="&#xd7;" horiz-adv-x="431" 
d="M417 398h124l-1 -1h-124zM304 398v-1h-124v1h124zM442 125h-124l-1 1h124zM79 125l1 1h124l-1 -1h-124zM375 364h124l-37 -30h-124zM338 334h-126l-15 30h125zM287 186h124l20 -40h-124zM154 186h126l-51 -40h-125zM226 305h200l-42 -34h-141zM227 245h154l19 -37h-219z
M166 412v-29h6l5 -5h-3l29 -58h5l1 -1h-6l30 -60h-12l-73 -59l-74 -60l-10 -8h2l-21 -21h10l17 -17h156l21 21h4l31 24l28 -28h4l17 -17h156l-17 17h4l-10 10l-28 56l-30 59l-4 4h5l69 56l-7 7h16l64 52l-11 11h25l23 23l-18 18l5 5h-164l-29 -29h10l5 -5h-28l-24 -20l-9 10
l-1 2v19l-17 17v6h-152zM294 140h-9l6 5z" />
    <glyph glyph-name="FL00D8h" unicode="&#xd8;" horiz-adv-x="753" 
d="M385 0q-25 0 -48 1.5t-44 5.5h251q-28 -7 -59 -7h-100zM573 530q45 0 88 -8h-276q29 8 56 8h132zM456 305h136l-47 -34h-137zM164 334q7 15 18 30h211q-18 -14 -33 -30h-196zM138 271q4 15 12 34h189q-2 -3 -4 -7q-9 -17 -11 -27h-186zM623 273q1 8 1.5 16t-0.5 16h191
q0 -5 -0.5 -9t-1.5 -9t-1.5 -8.5t-1.5 -7.5h-188q0 1 0.5 1.5zM802 245q-6 -18 -15 -37h-198q5 6 9 12l8 12q2 3 3.5 6.5t3.5 6.5h189zM775 186q-11 -19 -27 -40h-239q14 7 29 17t29 23h208zM816 364q1 -8 1.5 -15t-0.5 -15h-320l43 30h276zM132 146q-2 9 -3 19t-1 21h297
l-54 -39v-1h1h-240zM754 483q14 -10 25 -24h-511l33 24h453zM128 208q1 8 1.5 17t2.5 18v2h187q0 -15 5 -33l47 33h137l-52 -37h-328zM801 424q3 -7 5.5 -13.5t4.5 -13.5h-605q10 13 24 27h571zM242 20q-47 16 -74 47h499q-38 -31 -83 -47h-342zM156 83q-7 9 -11.5 20
t-8.5 23h595q-10 -12 -21 -22.5t-23 -20.5h-531zM573 544h-132q-34 0 -65 -10l3 -26h6l11 -11h-99l-72 -52h12l7 -7h-20q-10 -10 -21.5 -23t-25.5 -32h9l5 -5h-16q-8 -12 -14.5 -22t-10.5 -18l12 -18h5l1 -1h-27q-7 -16 -11 -27t-6 -18l11 -15h-17v-12q-1 -6 -2 -15.5
t-2 -17.5v-14q0 -23 1 -35.5t3 -21.5l3 -3h-3q6 -18 11.5 -33t11.5 -26h-3q22 -26 46 -44q19 -18 37.5 -29t37.5 -18l3 -1h34l13 -13q21 -4 45.5 -5.5t50.5 -1.5h100q16 0 32 1.5t33 6.5l-2 12h37q49 18 107 63q13 10 28 25t33 38h1q15 21 31 46l-10 16h19q6 13 11 24t8 21
l-11 14l-4 4h21q1 4 2.5 12t2.5 13t1.5 11t0.5 20l-7 7h9v20v12t-1 11l-17 16v4h16q-5 12 -8.5 23.5t-6.5 18.5l-14 14l-3 6h8q-5 5 -8.5 10t-8.5 10q-13 16 -24 27.5t-21 19.5l-5 2h-72l2 16l-18 17l1 6q-43 8 -95 8zM479 177l83 59l-4 4h10l40 29v-10h-9q0 -1 -0.5 -4.5
t-0.5 -5.5v-3q-1 -1 -1 -2q-2 -4 -5 -7q-5 -7 -10 -14.5t-18 -22.5h-3q-14 -13 -31 -24.5t-34 -19.5l3 -16h-72zM365 273q2 3 4 7.5t10 15.5l-7 7h12q13 15 63 52l-11 11h83l-66 -46h12l1 -1h-14l-84 -60h-1l-12 -9q4 13 10 23zM167 53q-1 1 -1 2l10 -11zM792 461l-1 1
q1 0 1 -1z" />
    <glyph glyph-name="FL00D9h" unicode="&#xd9;" horiz-adv-x="714" 
d="M595 719q9 0 16 -9h-46v0q1 0 2 1q22 8 28 8zM588 588q-19 0 -35 14h62q-4 -5 -10 -8l-6 -4q-10 -2 -11 -2zM529 648q-2 8 -2 14h100q0 -4 0.5 -7t1.5 -7h-100zM426 530q-1 -2 -1.5 -4t-1.5 -4h-189l3 8h189zM860 522h-190l3 8h190zM367 0q-29 0 -54 1.5t-48 5.5h286
q-15 -4 -32 -5.5t-35 -1.5h-117zM220 483h189q-2 -6 -4 -12.5t-4 -11.5h-190zM656 483h190l-9 -24h-190zM634 424h190l-10 -27h-189zM389 424l-9 -27h-191l10 27h190zM613 364h189l-11 -30h-189zM369 364q-3 -8 -5.5 -15.5t-4.5 -14.5h-192l11 30h191zM773 283
q-2 -3 -2.5 -6t-2.5 -6h-189l12 34h190zM148 271q2 8 4 16.5t5 17.5h192q-3 -11 -6 -19.5t-5 -14.5h-190zM759 245q-4 -10 -8 -19l-8 -18h-193q10 15 15 25l4 12h190zM131 208q2 9 4.5 18t4.5 19h191q-1 -2 -0.5 -2.5t0.5 -1.5q-3 -18 -3 -33h-197zM734 186q-5 -11 -10 -21
t-10 -19h-231q15 7 27.5 17.5t22.5 22.5h201zM124 146q0 9 0.5 19t2.5 21h203q5 -27 22 -40h-228zM213 20q-45 17 -67 47h511q-31 -31 -67 -47h-377zM136 83q-10 19 -11 43h578q-15 -24 -31 -43h-536zM428 544h-200l-15 -36h8l11 -11h-21l-21 -52h8l7 -7h-15l-22 -55h8l5 -5
h-12l-23 -58h8l1 -1h-10q-1 -3 -1.5 -7t-1.5 -8q-2 -10 -3 -13q-1 -2 -1.5 -5t-1.5 -5q-2 -4 -2 -8l11 -14h-17q-2 -10 -5.5 -24.5t-5.5 -23.5l8 -11h-10q-4 -19 -4.5 -31.5t-0.5 -23.5l5 -5h-5q1 -37 11 -59h-2q13 -17 25 -30.5t26 -23.5q27 -25 59 -37l4 -1h35l13 -13
q23 -4 48.5 -5.5t57.5 -1.5h117q19 0 37.5 1.5t35.5 6.5l-2 12h37q21 9 44 26.5t48 42.5l-1 1q9 11 19 26t21 32l-1 1q5 8 8 15.5t7 14.5l3.5 7l3.5 7l-10 15h16l9 22q2 5 5 10.5t5 11.5l-10 15l-4 4h20q1 2 2.5 6t2.5 6l2 3l14 41l-7 7h9l20 52l-11 11h14l19 49l-13 13h17
l18 46l-17 17h22l12 30l-18 17l3 6h-220l-15 -36h8l11 -11h-21l-21 -52h8l7 -7h-16l-19 -55h7l5 -5h-14l-23 -58h8l1 -1h-9l-21 -60l-7 -19q-8 -16 -24 -40h-3q-11 -13 -25 -24.5t-31 -19.5l3 -16h-90q-5 4 -9 7.5t-8 7.5q-7 12 -7 22q0 24 3 42v17l-4 4h7q5 13 10 28t9 28
l-7 7h9l6 17q2 8 7 20l-10 15l-11 11h29q2 6 6.5 16.5t6.5 18.5l-11 14l-6 6l-6 7h31q6 12 8 21v1q1 4 3.5 12.5t3.5 11.5l-17 17h28v5q0 4 1 5v1q0 2 1 3l-10 16l-10 9zM528 634h1l9 -9l11 -8h111v16q-1 3 -1.5 7t-0.5 13l-17 17v6h-128q0 -15 0.5 -22t1.5 -10zM545 593
q39 -36 63 -36q3 0 7 1q1 0 3.5 0.5t3.5 0.5l8 5q4 2 10 8t17 21l-18 18q1 1 1.5 2t2.5 3h-125q6 -6 12.5 -11t12.5 -10zM595 733q-7 0 -29 -8q-2 -1 -4 -1q-1 0 -3 -1l1 -3l2 -2v-22h6l17 -17h69l-1 1q-4 4 -7 7.5t-6 7.5l-1 1h1q-12 15 -23.5 26t-21.5 11z" />
    <glyph glyph-name="FL00DAh" unicode="&#xda;" horiz-adv-x="714" 
d="M630 719q11 0 22 -8q0 -1 1 -1h-46q6 4 11.5 6.5t11.5 2.5zM528 594q-4 2 -5 8h62q-12 -6 -24 -10t-20 -4q-9 0 -9 2zM543 648q3 4 6.5 7t6.5 7h98q-2 -4 -5.5 -7.5l-6.5 -6.5h-99zM426 530q-1 -2 -1.5 -4t-1.5 -4h-189l3 8h189zM860 522h-190l3 8h190zM367 0
q-29 0 -54 1.5t-48 5.5h286q-15 -4 -32 -5.5t-35 -1.5h-117zM220 483h189q-2 -6 -4 -12.5t-4 -11.5h-190zM656 483h190l-9 -24h-190zM634 424h190l-10 -27h-189zM389 424l-9 -27h-191l10 27h190zM613 364h189l-11 -30h-189zM369 364q-3 -8 -5.5 -15.5t-4.5 -14.5h-192l11 30
h191zM773 283q-2 -3 -2.5 -6t-2.5 -6h-189l12 34h190zM148 271q2 8 4 16.5t5 17.5h192q-3 -11 -6 -19.5t-5 -14.5h-190zM759 245q-4 -10 -8 -19l-8 -18h-193q10 15 15 25l4 12h190zM131 208q2 9 4.5 18t4.5 19h191q-1 -2 -0.5 -2.5t0.5 -1.5q-3 -18 -3 -33h-197zM734 186
q-5 -11 -10 -21t-10 -19h-231q15 7 27.5 17.5t22.5 22.5h201zM124 146q0 9 0.5 19t2.5 21h203q5 -27 22 -40h-228zM213 20q-45 17 -67 47h511q-31 -31 -67 -47h-377zM136 83q-10 19 -11 43h578q-15 -24 -31 -43h-536zM428 544h-200l-15 -36h8l11 -11h-21l-21 -52h8l7 -7h-15
l-22 -55h8l5 -5h-12l-23 -58h8l1 -1h-10q-1 -3 -1.5 -7t-1.5 -8q-2 -10 -3 -13q-1 -2 -1.5 -5t-1.5 -5q-2 -4 -2 -8l11 -14h-17q-2 -10 -5.5 -24.5t-5.5 -23.5l8 -11h-10q-4 -19 -4.5 -31.5t-0.5 -23.5l5 -5h-5q1 -37 11 -59h-2q13 -17 25 -30.5t26 -23.5q27 -25 59 -37
l4 -1h35l13 -13q23 -4 48.5 -5.5t57.5 -1.5h117q19 0 37.5 1.5t35.5 6.5l-2 12h37q21 9 44 26.5t48 42.5l-1 1q9 11 19 26t21 32l-1 1q5 8 8 15.5t7 14.5l3.5 7l3.5 7l-10 15h16l9 22q2 5 5 10.5t5 11.5l-10 15l-4 4h20q1 2 2.5 6t2.5 6l2 3l14 41l-7 7h9l20 52l-11 11h14
l19 49l-13 13h17l18 46l-17 17h22l12 30l-18 17l3 6h-220l-15 -36h8l11 -11h-21l-21 -52h8l7 -7h-16l-19 -55h7l5 -5h-14l-23 -58h8l1 -1h-9l-21 -60l-7 -19q-8 -16 -24 -40h-3q-11 -13 -25 -24.5t-31 -19.5l3 -16h-90q-5 4 -9 7.5t-8 7.5q-7 12 -7 22q0 24 3 42v17l-4 4h7
q5 13 10 28t9 28l-7 7h9l6 17q2 8 7 20l-10 15l-11 11h29q2 6 6.5 16.5t6.5 18.5l-11 14l-6 6l-6 7h31q7 13 8 21v1q1 4 3.5 12.5t3.5 11.5l-17 17h28v5q0 4 1 5v1q0 2 1 3l-10 16l-10 9zM541 634h5l17 -17h104q4 4 9.5 10.5t16.5 25.5l-18 17q1 2 2 3t2 3h-130
q-5 -6 -6.5 -7.5l-3.5 -3.5q-1 -1 -1.5 -2t-1.5 -2l-5 -5zM523 579q2 -2 8 -4l12 -12h1q6 -6 17 -6q10 0 24.5 4.5t28.5 12.5l-4 19l-16 15l-1 8h-89q6 -24 13 -31zM630 733q-8 0 -27 -10t-45 -27h14l17 -17h84v22h2q2 -2 3.5 -2.5t3.5 -1.5l1 -1q0 3 -1 4l-18 17l1 1
q-21 15 -35 15z" />
    <glyph glyph-name="FL00DBh" unicode="&#xdb;" horiz-adv-x="714" 
d="M621 711q3 0 5 -1h-72q2 0 2.5 0.5t2.5 0.5h62zM607 602h83l4 -8h-82zM430 594l8 8h91l-8 -8h-91zM426 530q-1 -2 -1.5 -4t-1.5 -4h-189l3 8h189zM860 522h-190l3 8h190zM367 0q-29 0 -54 1.5t-48 5.5h286q-15 -4 -32 -5.5t-35 -1.5h-117zM574 648h-89l14 14h161l7 -14
h-85l-3 5zM220 483h189q-2 -6 -4 -12.5t-4 -11.5h-190zM656 483h190l-9 -24h-190zM634 424h190l-10 -27h-189zM389 424l-9 -27h-191l10 27h190zM613 364h189l-11 -30h-189zM369 364q-3 -8 -5.5 -15.5t-4.5 -14.5h-192l11 30h191zM773 283q-2 -3 -2.5 -6t-2.5 -6h-189l12 34
h190zM148 271q2 8 4 16.5t5 17.5h192q-3 -11 -6 -19.5t-5 -14.5h-190zM759 245q-4 -10 -8 -19l-8 -18h-193q10 15 15 25l4 12h190zM131 208q2 9 4.5 18t4.5 19h191q-1 -2 -0.5 -2.5t0.5 -1.5q-3 -18 -3 -33h-197zM734 186q-5 -11 -10 -21t-10 -19h-231q15 7 27.5 17.5
t22.5 22.5h201zM124 146q0 9 0.5 19t2.5 21h203q5 -27 22 -40h-228zM213 20q-45 17 -67 47h511q-31 -31 -67 -47h-377zM136 83q-10 19 -11 43h578q-15 -24 -31 -43h-536zM428 544h-200l-15 -36h8l11 -11h-21l-21 -52h8l7 -7h-15l-22 -55h8l5 -5h-12l-23 -58h8l1 -1h-10
q-1 -3 -1.5 -7t-1.5 -8q-2 -10 -3 -13q-1 -2 -1.5 -5t-1.5 -5q-2 -4 -2 -8l11 -14h-17q-2 -10 -5.5 -24.5t-5.5 -23.5l8 -11h-10q-4 -19 -4.5 -31.5t-0.5 -23.5l5 -5h-5q1 -37 11 -59h-2q13 -17 25 -30.5t26 -23.5q27 -25 59 -37l4 -1h35l13 -13q23 -4 48.5 -5.5t57.5 -1.5
h117q19 0 37.5 1.5t35.5 6.5l-2 12h37q21 9 44 26.5t48 42.5l-1 1q9 11 19 26t21 32l-1 1q5 8 8 15.5t7 14.5l3.5 7l3.5 7l-10 15h16l9 22q2 5 5 10.5t5 11.5l-10 15l-4 4h20q1 2 2.5 6t2.5 6l2 3l14 41l-7 7h9l20 52l-11 11h14l19 49l-13 13h17l18 46l-17 17h22l12 30
l-18 17l3 6h-220l-15 -36h8l11 -11h-21l-21 -52h8l7 -7h-16l-19 -55h7l5 -5h-14l-23 -58h8l1 -1h-9l-21 -60l-7 -19q-8 -16 -24 -40h-3q-11 -13 -25 -24.5t-31 -19.5l3 -16h-90q-5 4 -9 7.5t-8 7.5q-7 12 -7 22q0 24 3 42v17l-4 4h7q5 13 10 28t9 28l-7 7h9l6 17q2 8 7 20
l-10 15l-11 11h29q2 6 6.5 16.5t6.5 18.5l-11 14l-6 6l-6 7h31q6 12 8 21v1q1 4 3.5 12.5t3.5 11.5l-17 17h28v5q0 4 1 5v1q0 2 1 3l-10 16l-10 9zM478 617h227l-18 36l-13 13l-5 10h-176l-42 -42h10zM423 563h123l30 30l-18 18l5 5h-131l-36 -36h10zM604 580h5l17 -17h106
l-15 30l-13 13l-5 10h-118zM621 725h-62q-2 0 -3 -1h-5v-28h6l17 -17h77l4 19l-17 17l1 5q-8 4 -11 4.5t-7 0.5z" />
    <glyph glyph-name="FL00DCh" unicode="&#xdc;" horiz-adv-x="714" 
d="M523 711q8 0 12 -1h-26q5 1 14 1zM705 711q8 0 12 -1h-26q5 1 14 1zM480 593q-21 0 -31 9h69q-18 -9 -38 -9zM662 593q-20 0 -32 9h70q-18 -9 -38 -9zM426 530q-1 -2 -1.5 -4t-1.5 -4h-189l3 8h189zM860 522h-190l3 8h190zM367 0q-29 0 -54 1.5t-48 5.5h286
q-15 -4 -32 -5.5t-35 -1.5h-117zM746 652l-2 -4h-127l2 4q1 2 1.5 5t2.5 5h125q0 -4 -2 -10zM438 652q1 2 2 5t2 5h125q0 -4 -2 -10l-2 -4h-127zM220 483h189q-2 -6 -4 -12.5t-4 -11.5h-190zM656 483h190l-9 -24h-190zM634 424h190l-10 -27h-189zM389 424l-9 -27h-191l10 27
h190zM613 364h189l-11 -30h-189zM369 364q-3 -8 -5.5 -15.5t-4.5 -14.5h-192l11 30h191zM773 283q-2 -3 -2.5 -6t-2.5 -6h-189l12 34h190zM148 271q2 8 4 16.5t5 17.5h192q-3 -11 -6 -19.5t-5 -14.5h-190zM759 245q-4 -10 -8 -19l-8 -18h-193q10 15 15 25l4 12h190zM131 208
q2 9 4.5 18t4.5 19h191q-1 -2 -0.5 -2.5t0.5 -1.5q-3 -18 -3 -33h-197zM734 186q-5 -11 -10 -21t-10 -19h-231q15 7 27.5 17.5t22.5 22.5h201zM124 146q0 9 0.5 19t2.5 21h203q5 -27 22 -40h-228zM213 20q-45 17 -67 47h511q-31 -31 -67 -47h-377zM136 83q-10 19 -11 43h578
q-15 -24 -31 -43h-536zM428 544h-200l-15 -36h8l11 -11h-21l-21 -52h8l7 -7h-15l-22 -55h8l5 -5h-12l-23 -58h8l1 -1h-10q-1 -3 -1.5 -7t-1.5 -8q-2 -10 -3 -13q-1 -2 -1.5 -5t-1.5 -5q-2 -4 -2 -8l11 -14h-17q-2 -10 -5.5 -24.5t-5.5 -23.5l8 -11h-10q-4 -19 -4.5 -31.5
t-0.5 -23.5l5 -5h-5q1 -37 11 -59h-2q13 -17 25 -30.5t26 -23.5q27 -25 59 -37l4 -1h35l13 -13q23 -4 48.5 -5.5t57.5 -1.5h117q19 0 37.5 1.5t35.5 6.5l-2 12h37q21 9 44 26.5t48 42.5l-1 1q9 11 19 26t21 32l-1 1q5 8 8 15.5t7 14.5l3.5 7l3.5 7l-10 15h16l9 22
q2 5 5 10.5t5 11.5l-10 15l-4 4h20q1 2 2.5 6t2.5 6l2 3l14 41l-7 7h9l20 52l-11 11h14l19 49l-13 13h17l18 46l-17 17h22l12 30l-18 17l3 6h-220l-15 -36h8l11 -11h-21l-21 -52h8l7 -7h-16l-19 -55h7l5 -5h-14l-23 -58h8l1 -1h-9l-21 -60l-7 -19q-8 -16 -24 -40h-3
q-11 -13 -25 -24.5t-31 -19.5l3 -16h-90q-5 4 -9 7.5t-8 7.5q-7 12 -7 22q0 24 3 42v17l-4 4h7q5 13 10 28t9 28l-7 7h9l6 17q2 8 7 20l-10 15l-11 11h29q2 6 6.5 16.5t6.5 18.5l-11 14l-6 6l-6 7h31q6 12 8 21q1 4 3.5 13t3.5 12l-17 17h28v5q0 4 1 5v1q0 2 1 3l-10 16
l-10 9zM762 676h-145q-8 -8 -9 -12t-1 -6q0 -1 -1 -3q0 1 -1 1v-2q-4 -2 -7 -5v4l-17 17v6h-147l-2 -3t-3 -5q-2 -4 -2 -5q-3 -5 -3 -9q-3 -1 -22 -20h10l17 -17h159q5 5 6 6.5t1 5.5v2l15 -14h159q5 5 6 6.5t1 5.5l1 3q1 3 1.5 7.5t0.5 13.5l-17 17v6zM616 593
q40 -31 66 -31q23 0 47 12l-4 19l-16 15l-1 8h-120q8 -7 19 -14zM440 593q36 -31 60 -31q23 0 47 12l-4 19l-16 15l-1 8h-114l12 -10t11 -9zM705 725q-16 0 -21 -1l2 -28h6l17 -17h31l3 21l-18 17l1 5q-9 2 -13.5 2.5t-7.5 0.5zM523 725q-16 0 -21 -1l2 -28h6l17 -17h31
l3 21l-18 17l1 5q-9 2 -13.5 2.5t-7.5 0.5z" />
    <glyph glyph-name="FL00DDh" unicode="&#xdd;" horiz-adv-x="688" 
d="M620 719q11 0 22 -8q0 -1 1 -1h-46q6 4 11.5 6.5t11.5 2.5zM518 594q-4 2 -5 8h62q-12 -6 -24 -10t-20 -4q-9 0 -9 2zM248 0l2 7h192l-2 -7h-192zM533 648q3 4 6.5 7t6.5 7h98q-2 -4 -5.5 -7.5l-6.5 -6.5h-99zM441 530l3 -8h-214l-3 8h214zM838 522h-214l9 8h214z
M246 483h213l10 -24h-213zM579 483h214l-27 -24h-214zM337 245h192l-13 -37h-192zM316 186h192l-15 -40h-192zM294 126h192l-16 -43h-192zM318 305h274l-39 -34h-221zM272 67h192l-17 -47h-192zM294 364h365l-34 -30h-319zM491 405l21 19h215l-31 -27h-415l-11 27h213z
M882 544h-254l-40 -36h11l11 -11h-36l-58 -52h11l7 -7h-27l-5 -4l-16 40l-15 14l-1 3h10l-12 30l-15 14l-3 9h-244l15 -36h5l11 -11h-12l22 -52h5l7 -7h-10l23 -55h5l5 -5h-9l24 -58h5l1 -1h-6l26 -62h3l-19 -57l-27 -68h2l-25 -63h1l-17 -48h-2l-10 -35h7l17 -17h216l7 26
l1 3l20 54l25 65h-1l23 60l20 59l-4 4h17l64 56l-7 7h15l59 52l-11 11h23l56 49l-13 13h27l51 46l-17 17h38l33 30l-18 18zM531 634h5l17 -17h104q4 4 9.5 10.5t16.5 25.5l-18 17q1 2 2 3t2 3h-130q-5 -6 -6.5 -7.5l-3.5 -3.5q-1 -1 -1.5 -2t-1.5 -2l-5 -5zM513 579
q2 -2 8 -4l12 -12h1q6 -6 17 -6q10 0 24.5 4.5t28.5 12.5l-4 19l-16 15l-1 8h-89q3 -12 5.5 -19t7.5 -12zM620 733q-8 0 -27 -10t-45 -27h14l17 -17h84v22h2q2 -2 4 -2.5t4 -2.5q0 3 -1 4l-18 17l1 1q-21 15 -35 15z" />
    <glyph glyph-name="FL00DEh" unicode="&#xde;" horiz-adv-x="712" 
d="M46 7h192l-2 -7h-192zM426 522h-192l3 8h192zM220 483h192l-9 -24h-192zM133 245h192l-13 -37h-193zM111 186h193l-15 -40h-192zM68 67h192l-17 -47h-192zM756 245q-3 -10 -6.5 -19.5t-8.5 -17.5h-379l22 19h160q1 0 5 5.5t9 12.5h198zM688 424q19 -9 33 -27h-533l10 27
h490zM335 271h-193l13 34h603q2 -6 2 -12q0 -5 1 -10q0 -8 -1 -12h-192v1q-3 5 -10.5 13.5t-9.5 8.5h-205zM728 186q-18 -24 -38 -40h-398l45 40h391zM741 364q3 -8 6 -15t5 -15h-587l11 30h565zM266 83h-192l15 43h572q-56 -34 -111 -34h-281zM450 544h-222l-15 -36h8
l11 -11h-21l-21 -52h8l7 -7h-16l-22 -55h8l5 -5h-13l-23 -58h8l1 -1h-7l-25 -62h2l-25 -63h1l-19 -54h-1l-20 -59l-22 -60h-2l-10 -35h7l17 -17h216l7 26l1 3l20 54l3 9h274q28 0 66.5 14.5t83.5 41.5l-2 1q11 10 21 20t18 21l-9 18h19q9 14 13 24.5t7 20.5l-11 14l-4 4h17
q2 9 2.5 13.5t0.5 9.5q0 2 -0.5 3.5t-0.5 3.5q0 5 -1 11.5t-3 14.5l-7 7h7q-5 15 -8.5 25t-7.5 20l-15 15q-1 1 -1 3h8q-5 6 -9 11l-8 10q-33 40 -52 50l-5 1h-256l15 36l-17 17h22l12 30l-18 17zM360 236l-4 4h7l7 23h184v-4h-3q-4 -5 -6.5 -10t-4.5 -8h-161l-25 -22z" />
    <glyph glyph-name="FL00DFh" unicode="&#xdf;" horiz-adv-x="703" 
d="M578 7q-35 -7 -93 -7h-229q1 2 2 3.5t3 3.5h317zM285 522l4 4l4 4h385q17 0 33 -8h-426zM4 -112h191l-10 -29h-192zM177 364h191l-11 -30h-191zM778 364q-3 -15 -9 -30h-201q5 7 10.5 15.5t7.5 12.5l1 2h191zM155 305h192l-13 -34h-191zM133 245h192l-14 -37h-191z
M112 186h191l-14 -40h-192zM90 126h191l-15 -43h-192zM725 186q-5 -22 -13 -40h-221q5 3 10 6.5t8 5.5l1.5 2t2.5 3l2 5q3 4 3 18h207zM754 305q-13 -21 -29 -34h-263l39 34h253zM68 67h192l-17 -47h-192zM47 7h191l-18 -49h-191zM25 -52h192l-19 -53h-192zM710 245
q5 -7 10.5 -15.5t6.5 -21.5h-337l42 37h278zM231 459l10 12l10 12h499q4 -6 7 -12l6 -12h-532zM189 398q4 6 7.5 12.5t8.5 13.5h569q2 -8 2.5 -14.5t1.5 -12.5h-590zM705 126q-5 -12 -10.5 -23t-10.5 -20h-371q9 11 17.5 21.5t18.5 21.5h356zM675 67q-21 -31 -55 -47h-351
q8 12 16.5 24t16.5 23h373zM282 508h6l11 -11h-54q-7 -7 -10 -10.5t-5 -6.5q-2 -2 -2.5 -3t-2.5 -3q-6 -6 -7 -8l11 -21h5l7 -7h-43l-10 -15q1 2 -1.5 -2.5t-3.5 -6.5l1 1l-4 -6l-26 -26h10l5 -5h-1l-23 -58h8l1 -1h-9l-21 -60h-1l-20 -59l-27 -68h2l-25 -63h1l-22 -63
l-24 -62h2l-19 -52l-19 -47h8l17 -17h216l12 36l27 75l-1 1l12 29h242q60 0 95 7l-1 13h44q20 9 34.5 21.5t26.5 30.5l-6 11h13q5 9 11 22t13 28l-9 13h13q5 13 10 25.5t7 23.5l-11 13h14q-2 26 -8 36.5t-12 18.5l-8 8h19q19 16 33 39l-9 17l-7 7h29q5 13 8 22.5t5 16.5
l-11 13l-6 6v1l-4 4h21v16q-1 5 -2.5 15.5t-3.5 17.5l-13 13h11q-6 11 -11.5 22.5t-13.5 23.5l-11 11q-2 3 -3.5 6t-3.5 6h-22l4 13l-17 17l1 5q-23 12 -46 12h-391l-7 -7q-3 -3 -3 -6zM381 177h122q0 -1 -0.5 -2l-0.5 -1l-1 -3q-2 -2 -3 -4l-4 -3q1 1 -4.5 -2t-12.5 -7
l4 -15h-137q-7 -8 -15 -17.5t-16 -17.5l-2 -2l4 12h2l21 62l23 59l-4 4h4l22 56l-7 7h8l20 52l-11 11h178q-5 -8 -13.5 -21t-18.5 -25h9l1 -1h-53l-69 -60l-74 -65h11z" />
    <glyph glyph-name="FL00E0h" unicode="&#xe0;" 
d="M585 717q8 0 15 -7h-40l15 5t10 2zM578 586q-20 0 -38 16h67q-4 -7 -12 -10l-6 -4q-2 -2 -11 -2zM574 7h178l1 -7h-178zM519 648q-2 8 -1 14h99q0 -4 0.5 -7t1.5 -7h-100zM636 530q8 0 16 -8h-203q11 8 19 8h168zM36 0q2 10 2 7h431q-3 -3 -5.5 -4.5t-4.5 -2.5h-423z
M519 364h178l4 -30h-177zM315 364h200l-22 -30h-202zM528 305h178l5 -34h-178zM537 245h178l5 -37h-177zM672 483q2 -6 3.5 -12t3.5 -12h-290l9 11q2 6 9 13h265zM269 305h202l-25 -34h-204zM546 186h178l6 -40h-178zM222 245h204l-27 -37h-206zM176 186h206l-30 -40h-208z
M562 67h180l8 -47h-179zM362 424h326l4 -27h-351zM522 67q-10 -13 -20 -25t-20 -22h-436l37 47h439zM554 113q-4 -9 -20 -30h-439l34 43h604l7 -43h-181zM636 544h-168q-12 0 -62 -36h12l11 -11h-28q-5 -5 -8.5 -9.5t-5.5 -8.5l-28 -34h9l7 -7h-20l-43 -55h9l5 -5h-18
l-46 -58h9l1 -1h-10l-49 -62l-49 -63l-49 -62l-70 -90q-2 2 -4 2q-7 0 -16 -27l-8 -11h6q-1 -2 -1 -4l13 -16h4l17 -17h426q2 2 7 5t18 15q6 6 8 9h1q9 10 18 20.5t17 21.5l-6 12h5l9 -46l3 -20h6l17 -17h201l-4 29l-1 1l-9 53h1l-10 65h-1l-8 60l-1 1l-8 58l-4 4h3l-8 56
l-7 7h5l-7 52l-11 11h9l-7 49l-13 13h8q-3 11 -5.5 21t-5.5 18l-14 14q-1 2 -1.5 3.5t-1.5 3.5l-4 3h18l-17 17h4q-36 36 -50 36zM424 177l43 59l-4 4h9l41 56l-7 7h8l6 -46h1l9 -63h1l7 -54h-142zM518 634h2l9 -9l10 -8h111v16q-1 3 -1.5 7t-0.5 13l-17 17v6h-127v-18v-6
q0 -3 2 -8zM598 555q14 0 19 5l2 2q5 2 11.5 9t15.5 22l-18 17q1 2 2 3t2 3h-128q13 -13 28 -23q20 -17 37 -27.5t29 -10.5zM585 731q-8 0 -30 -8q-1 -1 -2 -1v0q-1 0 -3 -0.5t-3 -0.5l5 -25h6l17 -17h72l-8 7l-1 1l-8 9h4q-16 16 -28.5 25.5t-20.5 9.5zM639 686q0 1 -1 1z
" />
    <glyph glyph-name="FL00E1h" unicode="&#xe1;" 
d="M621 718q11 0 22 -8h-44q11 8 22 8zM520 593q-3 2 -5 9h65q-13 -7 -25.5 -11t-21.5 -4q-8 0 -10 2zM574 7h178l1 -7h-178zM536 648q3 4 6 7t6 7h99q-2 -4 -5.5 -7.5l-6.5 -6.5h-99zM636 530q8 0 16 -8h-203q11 8 19 8h168zM36 0q2 10 2 7h431q-3 -3 -5.5 -4.5t-4.5 -2.5
h-423zM519 364h178l4 -30h-177zM315 364h200l-22 -30h-202zM528 305h178l5 -34h-178zM537 245h178l5 -37h-177zM672 483q2 -6 3.5 -12t3.5 -12h-290l9 11q2 6 9 13h265zM269 305h202l-25 -34h-204zM546 186h178l6 -40h-178zM222 245h204l-27 -37h-206zM176 186h206l-30 -40
h-208zM562 67h180l8 -47h-179zM362 424h326l4 -27h-351zM522 67q-10 -13 -20 -25t-20 -22h-436l37 47h439zM554 113q-4 -9 -20 -30h-439l34 43h604l7 -43h-181zM636 544h-168q-12 0 -62 -36h12l11 -11h-28q-5 -5 -8.5 -9.5t-5.5 -8.5l-28 -34h9l7 -7h-20l-43 -55h9l5 -5h-18
l-46 -58h9l1 -1h-10l-49 -62l-49 -63l-49 -62l-70 -90q-2 2 -4 2q-7 0 -16 -27l-8 -11h6q-1 -2 -1 -4l13 -16h4l17 -17h426q2 2 7 5t18 15q6 6 8 9h1q9 10 18 20.5t17 21.5l-6 12h5l9 -46l3 -20h6l17 -17h201l-4 29l-1 1l-9 53h1l-10 65h-1l-8 60l-1 1l-8 58l-4 4h3l-8 56
l-7 7h5l-7 52l-11 11h9l-7 49l-13 13h8q-3 11 -5.5 21t-5.5 18l-14 14q-1 2 -1.5 3.5t-1.5 3.5l-4 3h18l-17 17h4q-36 36 -50 36zM424 177l43 59l-4 4h9l41 56l-7 7h8l6 -46h1l9 -63h1l7 -54h-142zM534 634h5l17 -17h104q4 4 9.5 10.5t16.5 25.5l-18 17q1 2 2 3t2 3h-131
q-3 -5 -5 -7l-4 -4q-1 -1 -1.5 -2t-1.5 -2l-5 -5zM512 580q1 -2 9 -6l13 -12q6 -6 19 -6q11 0 26 5t31 13l-5 19l-16 16l-2 7h-91q2 -13 5 -21.5t9 -12.5zM621 732q-15 0 -65 -36h12l17 -17h112l-17 17h6q-50 36 -65 36z" />
    <glyph glyph-name="FL00E2h" unicode="&#xe2;" 
d="M612 602h82l5 -9h-82zM526 593q-93 -2 -91 0l9 9h90zM574 7h178l1 -7h-178zM636 530q8 0 16 -8h-203q11 8 19 8h168zM579 648h-88l14 14h159l7 -14h-86l-2 4zM36 0q2 10 2 7h431q-3 -3 -5.5 -4.5t-4.5 -2.5h-423zM519 364h178l4 -30h-177zM315 364h200l-22 -30h-202z
M528 305h178l5 -34h-178zM537 245h178l5 -37h-177zM672 483q2 -6 3.5 -12t3.5 -12h-290l9 11q2 6 9 13h265zM269 305h202l-25 -34h-204zM546 186h178l6 -40h-178zM222 245h204l-27 -37h-206zM176 186h206l-30 -40h-208zM562 67h180l8 -47h-179zM362 424h326l4 -27h-351z
M522 67q-10 -13 -20 -25t-20 -22h-436l37 47h439zM554 113q-4 -9 -20 -30h-439l34 43h604l7 -43h-181zM636 544h-168q-12 0 -62 -36h12l11 -11h-28q-5 -5 -8.5 -9.5t-5.5 -8.5l-28 -34h9l7 -7h-20l-43 -55h9l5 -5h-18l-46 -58h9l1 -1h-10l-49 -62l-49 -63l-49 -62l-70 -90
q-2 2 -4 2q-7 0 -16 -27l-8 -11h6q-1 -2 -1 -4l13 -16h4l17 -17h426q2 2 9 6.5t24 22.5q10 10 19 20.5t17 21.5l-6 12h5l9 -46l3 -20h6l17 -17h201l-4 29l-1 1l-9 53h1l-10 65h-1l-8 60l-1 1l-8 58l-4 4h3l-8 56l-7 7h5l-7 52l-11 11h9l-7 49l-13 13h8q-3 11 -5.5 21
t-5.5 18l-14 14q-1 2 -1.5 3.5t-1.5 3.5l-4 3h18l-17 17h4q-36 36 -50 36zM484 617h225l-18 36l-13 13l-5 10h-174l-42 -42h10zM424 177l43 59l-4 4h9l41 56l-7 7h8l6 -46h1l9 -63h1l7 -54h-142zM440 565q3 -3 13 -3.5t24 -0.5h28q18 0 41 1l8 4l24 27l-18 18l4 5h-126
l-13 -13q-10 -10 -10 -15q0 -6 10 -9zM608 579h5l17 -17h108l-17 31l-12 12l-6 11h-115z" />
    <glyph glyph-name="FL00E3h" unicode="&#xe3;" 
d="M405 593l9 9h91l-9 -9h-91zM582 602h105q-4 -3 -9 -6t-9 -3h-82zM574 7h178l1 -7h-178zM636 530q8 0 16 -8h-203q11 8 19 8h168zM36 0q2 10 2 7h431q-3 -3 -5.5 -4.5t-4.5 -2.5h-423zM660 662h90l-7 -7t-8 -7h-179l-2 4l-4 -4h-89l14 14h168l6 -11zM519 364h178l4 -30
h-177zM315 364h200l-22 -30h-202zM528 305h178l5 -34h-178zM537 245h178l5 -37h-177zM672 483q2 -6 3.5 -12t3.5 -12h-290l9 11q2 6 9 13h265zM269 305h202l-25 -34h-204zM546 186h178l6 -40h-178zM222 245h204l-27 -37h-206zM176 186h206l-30 -40h-208zM562 67h180l8 -47
h-179zM362 424h326l4 -27h-351zM522 67q-10 -13 -20 -25t-20 -22h-436l37 47h439zM554 113q-4 -9 -20 -30h-439l34 43h604l7 -43h-181zM636 544h-168q-12 0 -62 -36h12l11 -11h-28q-5 -5 -8.5 -9.5t-5.5 -8.5l-28 -34h9l7 -7h-20l-43 -55h9l5 -5h-18l-46 -58h9l1 -1h-10
l-49 -62l-49 -63l-49 -62l-70 -90q-2 2 -4 2q-7 0 -16 -27l-8 -11h6q-1 -2 -1 -4l13 -16h4l17 -17h426q2 2 9 6.5t24 22.5q10 10 19 20.5t17 21.5l-6 12h5l9 -46l3 -20h6l17 -17h201l-4 29l-1 1l-9 53h1l-10 65h-1l-8 60l-1 1l-8 58l-4 4h3l-8 56l-7 7h5l-7 52l-11 11h9
l-7 49l-13 13h8q-3 11 -5.5 21t-5.5 18l-14 14q-1 2 -1.5 3.5t-1.5 3.5l-4 3h18l-17 17h4q-36 36 -50 36zM469 676l-42 -42h10l17 -17h304q14 11 22 19l17 17l-18 18l5 5h-130l-2 -2v2h-183zM424 177l43 59l-4 4h9l41 56l-7 7h8l6 -46h1l9 -63h1l7 -54h-142zM398 562h123
l31 31l-18 18l5 5h-131l-37 -37h10zM578 579h5l17 -17h89q6 0 21 10t29 21l-18 18q2 1 6 5h-169z" />
    <glyph glyph-name="FL00E4h" unicode="&#xe4;" 
d="M701 712q5 0 8.5 -0.5t7.5 -1.5h-34q5 1 9 1.5t9 0.5zM519 712q5 0 8.5 -0.5t7.5 -1.5h-34q5 1 9 1.5t9 0.5zM658 594q-21 0 -30 8h65q-18 -8 -35 -8zM476 594q-17 0 -30 8h66q-19 -8 -36 -8zM574 7h178l1 -7h-178zM636 530q8 0 16 -8h-203q11 8 19 8h168zM435 653
q2 6 4 9h125q0 -3 -2 -9q-2 -4 -2 -5h-127q1 1 1 2t1 3zM743 653q-2 -4 -2 -5h-127q1 1 1 2t1 3q2 6 4 9h125q0 -3 -2 -9zM36 0q2 10 2 7h431q-3 -3 -5.5 -4.5t-4.5 -2.5h-423zM519 364h178l4 -30h-177zM315 364h200l-22 -30h-202zM528 305h178l5 -34h-178zM537 245h178
l5 -37h-177zM672 483q2 -6 3.5 -12t3.5 -12h-290l9 11q2 6 9 13h265zM269 305h202l-25 -34h-204zM546 186h178l6 -40h-178zM222 245h204l-27 -37h-206zM176 186h206l-30 -40h-208zM562 67h180l8 -47h-179zM362 424h326l4 -27h-351zM522 67q-10 -13 -20 -25t-20 -22h-436
l37 47h439zM554 113q-4 -9 -20 -30h-439l34 43h604l7 -43h-181zM636 544h-168q-12 0 -62 -36h12l11 -11h-28q-5 -5 -8.5 -9.5t-5.5 -8.5l-28 -34h9l7 -7h-20l-43 -55h9l5 -5h-18l-46 -58h9l1 -1h-10l-49 -62l-49 -63l-49 -62l-70 -90q-2 2 -4 2q-7 0 -16 -27l-8 -11h6
q-1 -2 -1 -4l13 -16h4l17 -17h426q2 2 9 6.5t24 22.5q10 10 19 20.5t17 21.5l-6 12h5l9 -46l3 -20h6l17 -17h201l-4 29l-1 1l-9 53h1l-10 65h-1l-8 60l-1 1l-8 58l-4 4h3l-8 56l-7 7h5l-7 52l-11 11h9l-7 49l-13 13h8q-3 11 -5.5 21t-5.5 18l-14 14q-1 2 -1.5 3.5t-1.5 3.5
l-4 3h18l-17 17h4q-36 36 -50 36zM399 634h10l17 -17h165q0 5 -0.5 6.5l-0.5 1.5q0 2 1 3t1 3l15 -14h165v8q0 2 1 3v2q1 3 2 7.5t1 15.5l-17 17v6h-146q-7 -8 -7.5 -11.5t-2.5 -8.5q0 -1 -1 -1v0q-3 -3 -7 -6v4l-17 17v6h-146q-5 -8 -7 -12t-3 -7l-1 -2q-2 -1 -22 -21z
M424 177l43 59l-4 4h9l41 56l-7 7h8l6 -46h1l9 -63h1l7 -54h-142zM428 593q47 -30 68 -30q19 0 44 11l-4 19l-16 15l-1 8h-122q5 -4 10 -7l10 -6zM619 593q20 -17 34 -23.5t25 -6.5q20 0 44 11l-4 19l-16 15l-1 8h-110q7 -6 13 -11t12 -9zM701 726q-5 0 -11.5 -1t-13.5 -2
l2 -27h6l17 -17h38l2 22l-18 17l1 6q-4 1 -8.5 1.5t-14.5 0.5zM519 726q-5 0 -11.5 -1t-13.5 -2l2 -27h6l17 -17h38l2 22l-18 17l1 6q-4 1 -8.5 1.5t-14.5 0.5z" />
    <glyph glyph-name="FL00E5h" unicode="&#xe5;" 
d="M611 712q5 0 8.5 -0.5t7.5 -1.5h-34q5 1 9 1.5t9 0.5zM568 594q-17 0 -30 8h66q-19 -8 -36 -8zM574 7h178l1 -7h-178zM636 530q8 0 16 -8h-203q11 8 19 8h168zM527 653q2 6 4 9h125q0 -3 -2 -9q-2 -4 -2 -5h-127q1 1 1 2t1 3zM36 0q2 10 2 7h431q-3 -3 -5.5 -4.5
t-4.5 -2.5h-423zM519 364h178l4 -30h-177zM315 364h200l-22 -30h-202zM528 305h178l5 -34h-178zM537 245h178l5 -37h-177zM672 483q2 -6 3.5 -12t3.5 -12h-290l9 11q2 6 9 13h265zM269 305h202l-25 -34h-204zM546 186h178l6 -40h-178zM222 245h204l-27 -37h-206zM176 186
h206l-30 -40h-208zM562 67h180l8 -47h-179zM362 424h326l4 -27h-351zM522 67q-10 -13 -20 -25t-20 -22h-436l37 47h439zM554 113q-4 -9 -20 -30h-439l34 43h604l7 -43h-181zM636 544h-168q-12 0 -62 -36h12l11 -11h-28q-5 -5 -8.5 -9.5t-5.5 -8.5l-28 -34h9l7 -7h-20
l-43 -55h9l5 -5h-18l-46 -58h9l1 -1h-10l-49 -62l-49 -63l-49 -62l-70 -90q-2 2 -4 2q-7 0 -16 -27l-8 -11h6q-1 -2 -1 -4l13 -16h4l17 -17h426q2 2 7 5t18 15q6 6 8 9h1q9 10 18 20.5t17 21.5l-6 12h5l9 -46l3 -20h6l17 -17h201l-4 29l-1 1l-9 53h1l-10 65h-1l-8 60l-1 1
l-8 58l-4 4h3l-8 56l-7 7h5l-7 52l-11 11h9l-7 49l-13 13h8q-3 11 -5.5 21t-5.5 18l-14 14q-1 2 -1.5 3.5t-1.5 3.5l-4 3h18l-17 17h4q-36 36 -50 36zM424 177l43 59l-4 4h9l41 56l-7 7h8l6 -46h1l9 -63h1l7 -54h-142zM491 634h10l17 -17h165q0 5 -0.5 6.5l-0.5 1.5
q2 5 3.5 11t1.5 17l-17 17v6h-146q-5 -8 -7 -12t-3 -7l-1 -2q-2 -1 -22 -21zM520 593q47 -30 68 -30q19 0 44 11l-4 19l-16 15l-1 8h-122q5 -4 10 -7l10 -6zM611 726q-5 0 -11.5 -1t-13.5 -2l2 -27h6l17 -17h38l2 22l-18 17l1 6q-4 1 -8.5 1.5t-14.5 0.5z" />
    <glyph glyph-name="FL00E6h" unicode="&#xe6;" horiz-adv-x="1195" 
d="M636 530q7 0 15 -8h-202q11 8 19 8h168zM36 0q2 10 2 7h431q-3 -3 -5.5 -4.5t-4.5 -2.5h-423zM574 7h515q-4 -4 -6.5 -5.5l-2.5 -1.5h-505zM1340 530l-2 -4l-2 -4h-569l3 8h570zM315 364h200l-22 -30h-202zM673 483l4 -12l4 -12h-292l9 11q2 6 9 13h266zM269 305h202
l-25 -34h-204zM222 245h204l-27 -37h-206zM924 305h230l-36 -34h-229zM176 186h206l-30 -40h-208zM362 424h326l4 -27h-351zM701 340l8 24h192l-11 -30h-366l-5 30h178zM546 186h289l-14 -40h-269zM528 305h351l-12 -34h-334zM1309 483q-5 -6 -9.5 -12t-9.5 -12h-546l9 24
h556zM1259 424q-10 -10 -18 -17t-14 -10h-506l10 27h528zM537 245h320l-2 -7l7 7h229l-39 -37h-509zM522 67q-10 -13 -20 -25t-20 -22h-436l37 47h439zM1151 67q-11 -13 -23.5 -25t-23.5 -22h-533l-9 47h589zM554 113q-4 -9 -20 -30h-439l34 43h1066q-5 -9 -12 -20t-9 -13
t-4 -5t-4 -5h-607zM761 544l-15 -36h8l11 -11h-21l-21 -52h8l7 -7h-16l-8 -20l-9 10h10q-4 16 -7 24t-5 15l-15 14v1q-1 2 -1 3t-1 3l-4 3h16l-17 17h4q-36 36 -49 36h-168q-12 0 -62 -36h12l11 -11h-28q-5 -5 -8.5 -9.5t-5.5 -8.5l-28 -34h9l7 -7h-20l-43 -55h9l5 -5h-18
l-46 -58h9l1 -1h-10l-49 -62l-49 -63l-49 -62l-70 -90q-2 2 -4 2q-7 0 -16 -27l-8 -11h6q-1 -2 -1 -4l13 -16h4l17 -17h426q2 2 7 5t18 15q6 6 8 9h1q9 10 18 20.5t17 21.5l-6 12h5l9 -46l3 -20h6l17 -17h518q5 3 8.5 6t15.5 14h1q11 11 25 24t26 27l-6 12h18q2 2 4.5 5
t4.5 6l2 2q1 1 5 6.5t8.5 13.5t10 16.5t9.5 15.5l-18 17q1 2 2 3t2 3h-364l13 37h207l62 59l-4 4h8l59 56l-18 18l5 5h-266l14 36l-11 11h324q15 8 37 30l-8 19l-13 13h50l12 16q2 3 5 6t5 6l-9 18l-13 12l-2 5h53q0 3 -0.5 5l-0.5 2l3.5 7.5t8.5 15.5l-18 18q1 1 3 5h-602z
M424 177l43 59l-4 4h9l41 56l-7 7h8l6 -46h1l9 -63h1l7 -54h-142z" />
    <glyph glyph-name="FL00E7h" unicode="&#xe7;" horiz-adv-x="663" 
d="M129 -112h257l-1 -4h-261zM349 522q29 8 55 8h413q-4 -6 -6 -8h-462zM160 334q3 8 6.5 15l7.5 15h201q-6 -7 -11 -14.5t-10 -15.5h-194zM145 271q1 16 6 34h188q-1 -2 -1 -4q0 -1 -1 -3q-2 -8 -4 -14.5t-3 -12.5h-185zM145 208q-2 8 -2 17v18v2h187q2 -9 5 -18.5t8 -18.5
h-198zM246 -24h53l11 31h252q-5 -5 -8 -7h-115q-9 0 -12 1l-16 -43h-189zM160 146q-8 18 -12 40h209q9 -12 20 -22.5t22 -17.5h-239zM209 -52h199l-19 -53h-250zM244 459q7 6 13.5 12t14.5 12h508l-21 -24h-515zM192 397q5 7 10 13.5t10 13.5h514l-30 -27h-504zM315 20
q-54 15 -95 47h402q-21 -26 -45 -47h-262zM202 83q-10 9 -17.5 20t-14.5 23h497q-8 -11 -16 -21.5t-16 -21.5h-433zM346 508h6l11 -11h-97q-5 -4 -10.5 -9t-10.5 -10q-4 -3 -12 -11l9 -22h5l7 -7h-49l-12.5 -17.5l-12.5 -17.5l10 -20h5l5 -5h-35l-8.5 -17t-9.5 -23l12 -18h4
l1 -1h-25q-3 -12 -4.5 -23t-3.5 -25l11 -12h-13v-16v-21q0 -9 2 -17l6 -5h-7q4 -18 8 -32.5t9 -26.5l1 -1h-2q18 -35 39 -59h-6q5 -5 10.5 -8.5t10.5 -7.5l7 -7q43 -36 86 -55l-4 -13h-48l-62 -46h1l-55 -42h-2l-20 -16l-6 -5l-13 -11h11l17 -17h302l3 15l26 71l-1 1l12 29
h123q10 7 23 20h1q17 15 33.5 32.5t31.5 36.5q9 12 22 30.5t20 28.5l-18 18q2 4 3 5h-257q-19 11 -33 22t-24 21q-10 17 -14 30t-6 23l-4 4h5q3 23 7 32q2 3 2 10q0 1 0.5 7t0.5 7l-7 7h17q5 9 14 21.5t25 30.5l-11 11h312l54 49l-13 13h22l41 46l-17 17h29q2 2 8 10.5
t13 19.5l-18 17q1 2 2 3t2 3h-439q-31 0 -61 -9z" />
    <glyph glyph-name="FL00E8h" unicode="&#xe8;" horiz-adv-x="657" 
d="M535 591q-17 0 -31 11h55q-4 -4 -7 -5l-6 -4q-10 -2 -11 -2zM548 721q8 -3 11 -11h-52q2 1 3.5 1.5t3.5 2.5q15 5 20 7h14zM477 648q-2 8 -2 14h99q1 -4 1.5 -7t0.5 -7h-99zM46 7h510q-4 -4 -6.5 -5.5l-2.5 -1.5h-503zM807 530l-2 -4l-2 -4h-569l3 8h570zM176 364h192
l-11 -30h-192zM155 305h191l-12 -34h-192zM111 186h191l-14 -40h-191zM391 305h230l-36 -34h-229zM776 483q-5 -6 -9.5 -12t-9.5 -12h-546l9 24h556zM726 424q-10 -10 -18 -17t-14 -10h-506l10 27h528zM133 245h191l-2 -7l7 7h229l-39 -37h-400zM641 93q-2 -2 -4 -5t-4 -5
h-559l15 43h573q-5 -9 -12 -20t-9 -13zM618 67q-11 -13 -23.5 -25t-23.5 -22h-520l17 47h550zM809 544h-581l-15 -36h8l11 -11h-21l-21 -52h8l7 -7h-16l-22 -55h8l5 -5h-13l-23 -58h8l1 -1h-7l-25 -62h2l-25 -63h1l-19 -54h-1l-20 -59l-22 -60h-2l-10 -35h7l17 -17h521
q5 3 8.5 6t15.5 14h1q11 11 25 24t26 27l-6 12h18q2 2 4.5 5t4.5 6l2 2q1 1 5 6.5t8.5 13.5t10 16.5t9.5 15.5l-18 17q1 2 2 3t2 3h-364l13 37h207l62 59l-4 4h8l59 56l-18 18l5 5h-266l14 36l-11 11h324q15 8 37 30l-8 19l-13 13h50l12 16q2 3 5 6t5 6l-9 18l-13 12l-2 5
h53q0 3 -0.5 5l-0.5 2l1 2.5t3 4.5l-10 16l-8 8zM476 634h1l9 -9l11 -8h110q0 14 -0.5 18.5t-1.5 7.5v10l-17 17v6h-127q0 -15 0.5 -22t1.5 -10zM491 593q42 -33 64 -33q3 0 7 1q1 0 3.5 0.5t3.5 0.5l9 6q5 3 12.5 10t15.5 15l-18 18l5 5h-130q8 -7 19 -14zM549 735h-17
q-1 0 -2 -0.5t-2 -0.5q-5 -2 -11.5 -4.5t-11.5 -4.5l-1 -1q-3 -1 -9 -6.5t-22 -21.5h10l17 -17h95q-7 16 -16 27l-2 1q1 0 1 -1h1l-8 7q-10 18 -18 21z" />
    <glyph glyph-name="FL00E9h" unicode="&#xe9;" horiz-adv-x="657" 
d="M478 598q-3 1 -4 4h52q-22 -10 -36 -10q-7 0 -9 2zM601 715q1 -2 2 -2.5t2 -2.5h-54q7 6 17 11h22q3 -2 5.5 -3t5.5 -3zM489 648q3 4 6 7t6 7h100q-3 -4 -6.5 -7.5l-6.5 -6.5h-99zM46 7h510q-4 -4 -6.5 -5.5l-2.5 -1.5h-503zM807 530l-2 -4l-2 -4h-569l3 8h570zM176 364
h192l-11 -30h-192zM155 305h191l-12 -34h-192zM111 186h191l-14 -40h-191zM391 305h230l-36 -34h-229zM776 483q-5 -6 -9.5 -12t-9.5 -12h-546l9 24h556zM726 424q-10 -10 -18 -17t-14 -10h-506l10 27h528zM133 245h191l-2 -7l7 7h229l-39 -37h-400zM641 93q-2 -2 -4 -5
t-4 -5h-559l15 43h573q-5 -9 -12 -20t-9 -13zM618 67q-11 -13 -23.5 -25t-23.5 -22h-520l17 47h550zM809 544h-581l-15 -36h8l11 -11h-21l-21 -52h8l7 -7h-16l-22 -55h8l5 -5h-13l-23 -58h8l1 -1h-7l-25 -62h2l-25 -63h1l-19 -54h-1l-20 -59l-22 -60h-2l-10 -35h7l17 -17
h521q5 3 8.5 6t15.5 14h1q11 11 25 24t26 27l-6 12h18q2 2 4.5 5t4.5 6l2 2q1 1 5 6.5t8.5 13.5t10 16.5t9.5 15.5l-18 17q1 2 2 3t2 3h-364l13 37h207l62 59l-4 4h8l59 56l-18 18l5 5h-266l14 36l-11 11h324q15 8 37 30l-8 19l-13 13h50l12 16q2 3 5 6t5 6l-9 18l-13 12
l-2 5h53q0 3 -0.5 5l-0.5 2l1 2.5t3 4.5l-10 16l-8 8zM487 634h5l17 -17h104q4 4 10 10.5t21 25.5l-18 18q1 1 1.5 2t2.5 3h-136q-3 -5 -5 -7l-4 -4q-1 -1 -1.5 -2t-1.5 -2l-5 -5zM609 727l-8 4q-3 0 -3 1q-1 1 -2 1.5t-2 1.5h-30q-5 -3 -15 -10t-36 -29h11l17 -17h111
l-17 17h4l-29 28zM470 585q3 -5 10 -6l12 -12q6 -6 18 -6q17 0 45 13l-4 19l-16 15l-1 8h-83q8 -17 15 -26z" />
    <glyph glyph-name="FL00EAh" unicode="&#xea;" horiz-adv-x="657" 
d="M586 713q4 0 9 -3h-81q6 3 10 3h62zM573 602h82l3 -6h-82zM394 596l6 6h91l-6 -6h-91zM537 648h-90l14 14h164l7 -14h-84l-4 7zM46 7h510q-4 -4 -6.5 -5.5l-2.5 -1.5h-503zM807 530l-2 -4l-2 -4h-569l3 8h570zM176 364h192l-11 -30h-192zM155 305h191l-12 -34h-192z
M111 186h191l-14 -40h-191zM391 305h230l-36 -34h-229zM776 483q-5 -6 -9.5 -12t-9.5 -12h-546l9 24h556zM726 424q-10 -10 -18 -17t-14 -10h-506l10 27h528zM133 245h191l-2 -7l7 7h229l-39 -37h-400zM641 93q-2 -2 -4 -5t-4 -5h-559l15 43h573q-5 -9 -12 -20t-9 -13z
M618 67q-11 -13 -23.5 -25t-23.5 -22h-520l17 47h550zM809 544h-581l-15 -36h8l11 -11h-21l-21 -52h8l7 -7h-16l-22 -55h8l5 -5h-13l-23 -58h8l1 -1h-7l-25 -62h2l-25 -63h1l-19 -54h-1l-20 -59l-22 -60h-2l-10 -35h7l17 -17h521q5 3 8.5 6t15.5 14h1q11 11 25 24t26 27
l-6 12h18q2 2 4.5 5t4.5 6l2 2q1 1 5 6.5t8.5 13.5t10 16.5t9.5 15.5l-18 17q1 2 2 3t2 3h-364l13 37h207l62 59l-4 4h8l59 56l-18 18l5 5h-266l14 36l-11 11h324q15 8 37 30l-8 19l-13 13h50l12 16q2 3 5 6t5 6l-9 18l-13 12l-2 5h53q0 3 -0.5 5l-0.5 2l1 2.5t3 4.5l-10 16
l-8 8zM440 617h230l-18 36l-13 13l-5 10h-179l-42 -42h10zM387 565h123l28 28l-18 18l5 5h-131l-34 -34h10zM567 582h5l17 -17h107l-14 28l-13 13l-5 10h-114zM586 727h-62q-10 0 -23 -7l5 -24h6l17 -17h122l-17 17h8q-22 14 -36.5 22.5t-19.5 8.5z" />
    </font>
</defs>
</svg>
