<?xml version="1.0" standalone="no"?>
<!DOCTYPE svg PUBLIC "-//W3C//DTD SVG 1.1//EN" "http://www.w3.org/Graphics/SVG/1.1/DTD/svg11.dtd" >
<svg xmlns="http://www.w3.org/2000/svg" xmlns:xlink="http://www.w3.org/1999/xlink" version="1.1">
<metadata>
Created by FontForge 20170731 at Thu Aug  5 14:57:44 2010
 By Aleksey,,,
2010 Iconian Fonts - www.iconian.com
</metadata>
<defs>
<font id="AegisCondensedItalic" horiz-adv-x="818" >
  <font-face 
    font-family="Aegis Condensed Italic"
    font-weight="400"
    font-style="italic"
    font-stretch="condensed"
    units-per-em="1000"
    panose-1="2 0 0 0 0 0 0 0 0 0"
    ascent="800"
    descent="-200"
    x-height="800"
    cap-height="809"
    bbox="-131 -290 1980 1082"
    underline-thickness="50"
    underline-position="-175"
    slope="-12"
    unicode-range="U+0020-2122"
  />
<missing-glyph horiz-adv-x="400" 
 />
    <glyph glyph-name=".notdef" horiz-adv-x="400" 
 />
    <glyph glyph-name=".null" horiz-adv-x="0" 
 />
    <glyph glyph-name="nonmarkingreturn" horiz-adv-x="400" 
 />
    <glyph glyph-name="space" unicode=" " horiz-adv-x="445" 
 />
    <glyph glyph-name="space" unicode="&#xa0;" horiz-adv-x="445" 
 />
    <glyph glyph-name="FL0021h" unicode="!" horiz-adv-x="198" 
d="M259 800l-158 -542q-2 -8 8 -9.5t26.5 0t36.5 6.5t37.5 10.5t29.5 11t13 9.5l152 525h-11q-8 0 -17.5 -0.5t-17.5 -0.5h-11zM212 160l-121 -1q-2 0 -5.5 -4t-5.5 -6q-6 -8 -13 -22t-13 -29.5t-11 -31t-8 -26.5l-4 -16l-6 -21q24 0 41.5 -0.5t32.5 -0.5t29.5 0.5t33.5 2.5
q15 20 25 48.5t18 54.5l9 32q2 5 3 12.5t-5 7.5z" />
    <glyph glyph-name="FL0022h" unicode="&#x22;" horiz-adv-x="368" 
d="M389 810q7 0 6.5 -7.5t-2.5 -12.5l-10 -32q-4 -13 -13 -41t-19.5 -58.5t-21 -56.5t-17.5 -36q-19 -2 -30.5 -6.5t-26.5 -4.5t-28 2t-37 2l6 21l5 16q2 9 7 28.5t10.5 43.5t12 49t11.5 45q5 14 9 23.5t6 13.5q2 2 5.5 6t5.5 4zM567 809q7 0 6 -7.5t-3 -12.5l-9 -32
q-4 -13 -13 -41t-19.5 -58.5t-21 -56.5t-16.5 -36q-20 -2 -31.5 -6.5t-26.5 -4.5t-28 2t-37 2l6 21l5 16q2 9 6.5 28.5t10.5 43.5t12 49t12 45q10 30 15 37q2 2 5.5 6t5.5 4z" />
    <glyph glyph-name="E" unicode="#" horiz-adv-x="636" 
d="M229 710q13 -4 26 -8.5t22 -13t12 -22.5t-3 -36l-182 -634h35q28 0 68.5 0.5t80.5 1.5t73 1.5t48 0.5q18 0 54 6t73.5 21t69.5 39t42 60q-9 0 -27.5 0.5t-43.5 0.5q-24 0 -50 1t-51 1q-24 0 -42.5 0.5t-27.5 0.5q-3 0 -10.5 1t-16 2.5t-16 3.5t-10.5 3q-5 1 -9.5 4.5
t-3.5 5.5l57 200l193 30q2 0 9 4t10 6q7 5 17.5 15l21 20t18.5 17.5l8 7.5l9 30h-248l60 210l11 10q1 1 16.5 3.5t36.5 5.5t43.5 6t36.5 5h5q5 0 10.5 0.5t10.5 0.5h8q5 0 13.5 -0.5l8.5 -0.5l52 -100l22 20l49 171q-62 0 -121 -2.5l-118 -5t-120 -4t-125 0.5q-5 -3 -16 -10
t-23.5 -15t-23.5 -15t-15 -10q-12 -8 -17 -13.5t-9 -16.5q0 -2 -0.5 -5.5t-0.5 -4.5z" />
    <glyph glyph-name="FL0024h" unicode="$" horiz-adv-x="637" 
d="M575 826l-70 -3l-33 -115h-73q-27 -3 -58 -10t-59.5 -21.5t-51 -37.5t-32.5 -57q-8 -29 -7.5 -54t8.5 -46t22 -37t32 -26l121 -43l-56 -193q-17 1 -35 1.5t-38 0.5q-9 0 -47.5 10t-106.5 36l-37 -131q-2 -1 6 -3.5t13 -3.5q19 -4 45 -7t54.5 -4.5t57.5 -2.5t55 -1
l-33 -115q8 0 29.5 2.5t44 7t40 9.5t19.5 11l26 90q42 5 86 16.5t82.5 34t68 57.5t44.5 86q12 40 5 65t-25.5 40.5t-46 24t-56.5 14.5q-9 5 -22 8.5t-27 8.5q-1 0 -2 0.5t-2 0.5l59 207q32 -5 62 -16.5t47 -30.5h2q8 0 18 7.5t22 19t25 25.5t26 26v24l-9.5 1.5t-23 2.5
t-28 2t-23.5 1h-20h-77l34 119h-11h-33zM366 545q11 36 33 62t53 38l-51 -177q-23 8 -34.5 23t-0.5 54zM514 258q-12 -42 -29 -58t-44 -20l46 162q21 -8 29.5 -27t-2.5 -57z" />
    <glyph glyph-name="FL0025h" unicode="%" horiz-adv-x="873" 
d="M822 792q6 -4 12 -8.5t11 -8.5l7 -6l-518 -813q-3 -5 -17.5 -0.5t-31 13.5t-31.5 18t-21 13l525 823l57 -25zM184 557q16 58 44.5 98.5t64 66t77 36.5t84.5 11q35 0 63.5 -11t46 -33.5t22 -57.5t-9.5 -83q-17 -59 -44 -102t-62 -72t-77 -43t-87 -14q-39 0 -69 12t-47 37
t-19 63.5t13 91.5zM308 579q-7 -24 -13 -53t-5.5 -54t10.5 -42t35 -17q24 0 42 14.5t32 37t23.5 49.5t17.5 53q7 27 13 54t5.5 48t-11.5 34.5t-36 13.5t-42.5 -11.5t-30.5 -30.5t-22.5 -44t-17.5 -52zM523 207q17 58 45 98.5t63.5 66t77 36.5t84.5 11q35 0 63.5 -11
t46.5 -33.5t22.5 -57.5t-9.5 -83q-34 -117 -106.5 -174t-163.5 -57q-39 0 -69 12t-47 37t-19.5 63.5t12.5 91.5zM646 224q-7 -24 -13 -53.5t-5.5 -54.5t10.5 -42t36 -17q25 0 44 14.5t33 37t23.5 49.5t17.5 53q8 28 14 55t5 48.5t-12 35t-38 13.5q-26 0 -44 -11.5t-31 -30.5
t-22.5 -44.5t-17.5 -52.5z" />
    <glyph glyph-name="FL0026h" unicode="&#x26;" horiz-adv-x="718" 
d="M161 470q-6 -19 -15.5 -47.5t-17 -61.5t-11 -69.5t3.5 -72t27 -68.5t59 -60q5 -7 20.5 -15t36.5 -16t44.5 -16.5t44.5 -15.5t37.5 -13.5t22.5 -11.5h14h21h24h22q19 0 36.5 2t30.5 8q6 3 10 6.5t6 11.5q4 20 16 65t26.5 99.5t29.5 110.5t26 98h36q2 0 14.5 -3t28 -5
t17.5 -1l35 19q7 4 10 14q4 14 3.5 31t1.5 22q1 5 1 6q0 2 -0.5 4.5t-2 8.5t-2.5 20q-1 3 -2 8.5t-2 5.5l-111 1q5 26 12 51t14 48q8 26 17 55.5t30 53.5l29 67q-23 0 -42.5 1t-37 -0.5t-35 -6.5t-37.5 -17q-8 -5 -16.5 -12t-16 -14t-12 -11.5t-3.5 -4.5l-16 -25l-55 -186
h-10l-203 23q-14 8 -34 8q-35 0 -66 -27.5t-59 -67.5zM496 411q3 0 11 -6l-62 -231l-70 -3q-14 10 -31 23.5t-33 29t-27.5 33t-13.5 35.5q0 14 4 29.5t9 31.5t9.5 31.5t4.5 29.5z" />
    <glyph glyph-name="FL0027h" unicode="'" horiz-adv-x="190" 
d="M389 810q7 0 6.5 -7.5t-2.5 -12.5l-10 -32q-4 -13 -13 -41t-19.5 -58.5t-21 -56.5t-17.5 -36q-19 -2 -30.5 -6.5t-26.5 -4.5t-28 2t-37 2l6 21l5 16q2 9 7 28.5t10.5 43.5t12 49t11.5 45q5 14 9 23.5t6 13.5q2 2 5.5 6t5.5 4z" />
    <glyph glyph-name="FL0028h" unicode="(" horiz-adv-x="434" 
d="M626 829q-38 -4 -73.5 -11.5t-70.5 -20t-69.5 -32t-69.5 -48.5q-70 -57 -124.5 -143.5t-88.5 -204.5q-28 -96 -19.5 -166t44 -115t93.5 -66.5t129 -21.5q19 13 30.5 27t16.5 25t5 19t-4 9l-22 4q-42 32 -64.5 70t-30 80t-2 87t18.5 90q16 55 43 115.5t64.5 110t84.5 82
t103 32.5z" />
    <glyph glyph-name="FL0029h" unicode=")" horiz-adv-x="434" 
d="M284 829q36 -4 67.5 -11.5t59.5 -20t51 -32t42 -48.5q37 -57 41.5 -143.5t-29.5 -204.5q-28 -96 -76.5 -166t-109.5 -115t-131 -66.5t-141 -21.5q-12 13 -15.5 27t-2 25t6 19t8.5 9l24 4q60 32 104.5 70t76 80t52 87t33.5 90q10 37 17 76.5t8.5 77.5t-4 71.5t-20.5 59
t-39.5 40.5t-61.5 15z" />
    <glyph glyph-name="FL002Ah" unicode="*" horiz-adv-x="425" 
d="M429 464q-1 -1 -2 -1h8l-2 1l3 2q2 0 1 0.5l-1 0.5q14 6 25 9.5t19 6.5q16 4 27 9t30 22l-18 5q-5 0 -15.5 7t-11.5 10l-31 57h73q14 22 20.5 32t13.5 18l2 1q11 15 18.5 27.5t15.5 36.5l-21 -14l-2 -1q-5 -4 -18.5 -10t-16.5 -6h-63l67 63q-1 19 0 31.5t2 21.5
q1 17 0 29.5t-9 31.5q-2 3 -1.5 2.5t1.5 -2.5l-12 -26l-2 -6q0 1 0 -2t-2 -5q-8 -12 -15 -23.5t-14 -11.5l-37 -35l21 76q-2 -3 -2 -5v-1h-1l-19.5 10.5t-14.5 8.5v1q-11 8 -23 14.5t-26 9.5q-2 1 -0.5 -1.5t4 -6.5l5 -8t4.5 -5l5 -26l-24 -84l-33 63q5 4 -3 4l3 -4
q0 -2 -3 -2l-19 -9.5t-25 -10.5q-17 -7 -30.5 -14.5t-9.5 -16.5l22 -8l28 -54h-72q5 -1 5 -4q-11 -17 -16 -26.5t-13 -20.5h-1q-11 -17 -21.5 -34.5t-18.5 -35.5l24 22l25 15h66l-69 -64v-3q-1 -1 0 -2q2 -6 2 -20t1 -28q0 -17 1 -33.5t4 -30.5l7 26l16 32l77 71l-30 -105
q14 -9 20.5 -14.5t11.5 -10.5v-1q10 -8 18 -13.5t28 -6.5l-5 21l-1 1q-2 6 -2.5 21t0.5 18l22 78l34 -64h-4z" />
    <glyph glyph-name="FL002Bh" unicode="+" horiz-adv-x="419" 
d="M119 330l-2 -4q2 -4 11 -7t11 -3l17.5 7t17.5 11h84l-36 -126q-1 -1 3 -4.5t6 -5.5q15 -10 21 -17.5t11.5 -12t13.5 -6.5t27 -2q9 0 15 8t8 18l7 29q-1 4 -2 11.5t-1 8.5l29 100h92q1 0 5.5 5.5t6.5 9.5q15 22 24 33.5t15.5 21t11.5 21.5t12 36q4 11 -1.5 15t-13.5 4h-4
l-22 -8q-4 -2 -11 -6t-8 -4h-71l31 110q1 1 -4 4.5t-9 5.5q-11 5 -18 12t-14.5 13t-16.5 10.5t-22 4.5h-3q-2 -2 -5 -6.5t-5.5 -9.5l-4.5 -9t-2 -5q-1 -7 -4 -20t1 -17l-27 -94h-97q-1 0 -5.5 -7.5l-7.5 -12.5q-17 -30 -35.5 -54t-28.5 -58z" />
    <glyph glyph-name="FL002Ch" unicode="," horiz-adv-x="272" 
d="M285 160q7 0 6 -7.5t-3 -12.5q-3 -9 -14 -29.5t-27 -46.5t-35 -55t-36 -55t-30.5 -46.5t-19.5 -28.5q-20 -2 -34.5 -2.5t-29.5 -0.5t-32 0.5t-41 0.5l6 21l10 17t26 42.5t35 55.5t36.5 58t31.5 49t19 29q2 2 5.5 6t5.5 4z" />
    <glyph glyph-name="FL002Dh" unicode="-" horiz-adv-x="431" 
d="M101 269q5 17 17 41.5t25.5 50t27 49t21.5 38.5q3 5 8 12.5t6 7.5l270 1q1 0 8 4t11 6l30 20h4q8 0 13.5 -4t2.5 -15q-14 -48 -38 -88.5t-53 -85.5q-3 -4 -7.5 -9.5t-5.5 -5.5l-278 -1q-2 -3 -8 -8.5t-12.5 -11t-12.5 -10t-9 -5.5q-2 0 -10.5 3t-10.5 7z" />
    <glyph glyph-name="FL002Eh" unicode="." horiz-adv-x="226" 
d="M239 160q7 0 6 -7.5t-3 -12.5q-4 -14 -13.5 -32.5t-21.5 -38t-24.5 -38t-21.5 -31.5q-20 -2 -34.5 -2.5t-29.5 -0.5t-32.5 0.5t-41.5 0.5l6 21q0 1 9.5 17t22 37.5t25.5 43t21 32.5q2 2 5.5 6t5.5 4z" />
    <glyph glyph-name="FL002Fh" unicode="/" horiz-adv-x="495" 
d="M655 798l-87 42l-541 -831q6 -5 27 -15t45 -19t44.5 -15t23.5 -1l525 810l-7 6q-5 4 -11 8.5t-12 8.5z" />
    <glyph glyph-name="O" unicode="0" 
d="M140 406q-30 -105 -24.5 -182t39 -127t93 -74t137.5 -24q91 0 174.5 28t153.5 85.5t124.5 144.5t88.5 204q28 96 19.5 166t-44 115t-93.5 67t-129 22q-86 0 -168 -22.5t-153.5 -73t-127.5 -131.5t-90 -198zM368 445q17 60 38 115.5t50 98t70 67.5t98 25q60 0 86 -29.5
t29 -76.5t-10.5 -107t-30.5 -120q-16 -56 -38 -115.5t-53.5 -109.5t-73.5 -82t-97 -32q-38 0 -60.5 17t-33.5 46t-12 66.5t4 78t14.5 81.5t19.5 77z" />
    <glyph glyph-name="FL0031h" unicode="1" horiz-adv-x="537" 
d="M221 137q-1 0 -10.5 -1.5t-23 -3.5t-20.5 -3q-13 -2 -25 -2.5t-24 -0.5l-88 -105l15 -21q69 5 117.5 7.5t84 3t62.5 0t52.5 -1.5t54.5 -2t69 -1h8q18 29 35 66t28 77q-2 0 -10.5 -1t-10.5 -2h-26q-14 -3 -19.5 -6.5t-9 -6t-9 -4.5t-20.5 -2q-7 0 -17 0.5t-11 0.5l-3 5
q23 85 43.5 167.5t44.5 167.5l12 41q8 27 15.5 52.5t13.5 45.5l7 23l22 50q-12 -14 -12 -11q0 4 4 17t8.5 32.5t2 37.5t-16 30.5t-45.5 12.5q-38 0 -62 1.5t-45.5 4t-45.5 4t-60 1.5h-8q-8 -14 -20 -34t-24 -42t-22.5 -45t-15.5 -42q2 0 10 1t10 2q2 0 9 3t14.5 7t14 7
t8.5 3q14 3 19.5 5t9.5 3.5t10 2t20 0.5q7 0 17.5 -0.5t11.5 -0.5l5 -10l-153 -533h-1z" />
    <glyph glyph-name="FL0032h" unicode="2" horiz-adv-x="640" 
d="M415 358q-23 -5 -45 -10.5t-41.5 -18t-35.5 -36t-28 -63.5l-25 -97q15 0 45 1t66 1.5t72.5 1.5t63.5 1q9 0 54 12t130 46l-47 -167l-4.5 -4t-10.5 -8.5t-11.5 -8t-8.5 -3.5h-564l74 250q15 51 38 83.5t52 52.5t62 30.5t66 18.5q33 18 83 29t107 29q16 6 26 12.5t17.5 17
t13.5 27.5t14 44q19 66 12 104t-57 38q-5 0 -25.5 -2t-49 -9.5t-60.5 -21.5t-59 -38v1q-8 -2 -13.5 7.5t-10.5 24.5t-9 33.5t-9 34.5l16 30q0 1 10.5 2.5t25 3t29.5 3t25 1.5h20h67h69q21 0 31.5 -1t31.5 -1h30q25 -5 51.5 -14t46 -27t27 -47.5t-5.5 -74.5q-21 -74 -66 -128
t-96 -82z" />
    <glyph glyph-name="FL0033h" unicode="3" horiz-adv-x="650" 
d="M630 15q1 1 0.5 2.5t0.5 2.5q-1 6 -3 22t-4.5 33.5t-5.5 33t-4 21.5q-2 2 -5 10t-5 10l-153 176l341 331l6 20q0 1 -4 12.5t-9.5 27.5t-11.5 32.5l-10 27.5q-2 4 -8 15.5t-8 14.5q-14 0 -42.5 -0.5t-64.5 -0.5h-77h-76q-37 0 -65.5 0.5t-42.5 0.5q-5 0 -16 1t-23 2.5
t-23 3.5t-15 3q-2 -1 -5.5 -4.5l-5.5 -5.5l-1 -2t-1 -3v-5q3 -25 15.5 -49.5t22.5 -40.5q11 0 40 -2.5t61.5 -6t61 -7t39.5 -4.5q3 0 10.5 -1t16.5 -2.5t16.5 -3.5t9.5 -3q-16 -16 -42.5 -39t-57.5 -48.5t-63 -52t-58.5 -48.5t-44 -38t-18.5 -21q-1 -2 -1 -6v-4
q15 -34 34 -64.5t38.5 -60.5t38.5 -60.5t34 -64.5q-53 -20 -105.5 -20.5t-100.5 -0.5q-44 0 -83 6t-83 6q-11 -39 0 -69t33.5 -50.5t51.5 -31t54 -10.5h408q1 0 4.5 4t6.5 6l1 2t1 3z" />
    <glyph glyph-name="FL0034h" unicode="4" horiz-adv-x="708" 
d="M116 320q74 40 132 85t112 93.5t110.5 99.5t126.5 105q13 11 27.5 25.5t29.5 29t30 27.5t29 21q8 1 24 2.5t35 1.5t35.5 -2t24.5 -8q5 -3 6.5 -7t-0.5 -12q-5 -14 -14.5 -42t-22 -64t-26.5 -78t-28 -83.5t-26.5 -79.5t-21.5 -67h36q1 0 9 6t10 4l24 -20q4 -4 3.5 -11
t-3.5 -14.5t-7 -14t-5 -9.5q-1 -5 -1.5 -6.5t-3 -4t-7 -8.5t-14.5 -21q-3 -4 -7 -9.5t-5 -5.5l-66 -1q-9 -27 -17 -52.5t-14 -50.5q-9 -27 -13 -62.5t-1 -61.5q0 -2 1.5 -7.5t4 -11.5t4 -11t1.5 -6l-1.5 -3l-2.5 -5q-5 -6 -9 -10.5t-11 -4.5q-38 13 -72.5 25.5t-64.5 33.5
q-5 5 -13.5 12t-17 13t-14 10.5l-5.5 4.5l-1 27l57 160h-10l-240 -23q-18 -7 -37 -7q-36 0 -50.5 28t-19.5 70zM508 369q3 0 14 7l81 209l-245 -217z" />
    <glyph glyph-name="FL0035h" unicode="5" horiz-adv-x="638" 
d="M428 363q20 -5 39.5 -11t32 -19.5t16 -37.5t-8.5 -65q-15 -54 -35 -75t-50.5 -24.5t-76 2t-112.5 5.5q-9 0 -47.5 12t-104.5 46l-49 -167q0 -1 7 -5t12 -5q22 -6 53 -10t65 -6t66.5 -3t58.5 -1q31 0 67.5 3t75 12.5t76 27t71 46t60.5 69.5t43 98q15 51 9.5 85.5t-24 57
t-45.5 35.5t-56 21q-11 9 -28 13.5t-37 8.5l-42.5 8.5t-44.5 13.5q-13 6 -22 12.5t-13 17.5t-3 28t9 44l37 130l102 1q5 0 20.5 -0.5t35 -6t39.5 -18t34 -36.5v1q7 -2 18.5 7.5t25 24.5t28 33.5t28.5 34.5l2 30q0 1 -9.5 2.5t-23 3t-27.5 3t-24 1.5h-20h-40h-69h-252
l-56 -194q-11 -37 -10.5 -64t8.5 -47.5t22 -36t31 -29.5z" />
    <glyph glyph-name="FL0036h" unicode="6" horiz-adv-x="659" 
d="M513 689q-31 -20 -57 -39.5t-47 -43.5t-37.5 -55t-28.5 -74q96 0 156 -5.5t95 -14.5t50.5 -19.5t21.5 -19.5q17 -28 28 -56t9 -36q0 -2 -1 -2q5 -54 -4.5 -98.5t-27.5 -89.5q-9 -23 -19 -44t-31 -39.5t-58 -34.5t-98 -29q-32 -1 -50.5 -2t-29.5 -1t-17.5 0.5t-15.5 2
t-25 4.5t-44 7q-92 28 -122 98q-14 35 -23 74t-10.5 83t5.5 94.5t24 109.5q38 96 93 163t117.5 109t126 61t119.5 19h201l-51 -146q-56 4 -91.5 12t-60 14.5t-42 9t-38.5 -4.5zM580 254q-5 16 -8.5 28t-10 21t-17.5 16t-31 13h-63h-42h-43h-61q-9 -44 -6.5 -85.5t16.5 -73.5
t42 -51t70 -18l93 7q10 25 20 36t18 22t14 28.5t9 56.5z" />
    <glyph glyph-name="FL0037h" unicode="7" horiz-adv-x="670" 
d="M30 20l2 -20l176 -8l661 787l9 30h-560q-2 0 -15 -21t-28.5 -49t-30 -56.5t-18.5 -43.5h27q39 42 84 57.5t90 17.5t87.5 -3.5t76.5 -5.5q0 -3 -1 -6q0 -2 -5 -10t-8 -10z" />
    <glyph glyph-name="FL0038h" unicode="8" horiz-adv-x="706" 
d="M687 17v5l-42 448l200 185l6 20q0 1 -4 12.5t-9 27.5t-11 32.5l-10 27.5q-1 4 -6.5 15.5t-7.5 14.5q-7 0 -12 0.5t-13 0.5q-7 0 -18 0.5t-28 0.5h-147q-11 0 -20 -0.5t-18 -0.5h-106h-27q-10 0 -17 0.5t-12 0.5h-12q-2 -2 -6.5 -6t-9.5 -8.5t-9.5 -9t-5.5 -6.5l-25 -27.5
t-29.5 -32.5t-25 -27.5t-10.5 -12.5l-6 -20l89 -192q-63 -84 -108.5 -148t-77.5 -111.5t-52.5 -80t-33.5 -54.5t-20 -34.5t-13 -19.5q0 -2 -3 -5v-5q1 -2 2.5 -6t2.5 -4l369 1h7q5 0 7 1l259 3q1 0 4.5 4t5.5 6l1.5 2t1.5 3zM462 377q16 -15 24 -38t12 -49.5t6 -54.5t7 -53
q-26 -8 -55.5 -12.5t-58.5 -4.5t-54.5 4t-45.5 14q19 26 38.5 53.5t39.5 53.5t41.5 48.5t45.5 38.5zM681 678q-12 -12 -31.5 -29t-42.5 -36.5t-49 -41t-50 -41.5q-26 40 -51 81t-37 66q3 1 22 3t42 4t42 3.5t22 1.5z" />
    <glyph glyph-name="FL0039h" unicode="9" horiz-adv-x="625" 
d="M452 286l-75 -281h6q29 0 46.5 -1.5t32.5 -2t32 1t46 7.5q5 1 15.5 5t11.5 5l186 650q5 17 9 26.5t11 18.5t18 20t30 32l1 30q0 2 -16 7.5t-37 5.5h-23q-20 0 -45.5 0.5t-51.5 0.5h-76q-23 0 -49.5 -0.5t-49.5 -0.5h-33q-30 -5 -65 -14t-67.5 -27t-59 -47.5t-39.5 -74.5
q-12 -43 -12 -89t10 -88t27.5 -75t40.5 -49q40 -30 83.5 -42t92.5 -18zM581 740l-104 -362q-28 3 -48.5 22.5t-31.5 50t-12 69.5t11 80q19 66 62 103.5t99 37.5q3 0 12.5 -0.5t11.5 -0.5z" />
    <glyph glyph-name="FL003Ah" unicode=":" horiz-adv-x="201" 
d="M214 160q7 0 6 -7.5t-3 -12.5l-9 -32q-8 -26 -18.5 -54.5t-25.5 -48.5q-19 -2 -33.5 -2.5t-29.5 -0.5t-32.5 0.5t-41.5 0.5l6 21l4 16q3 11 8.5 26.5t11.5 31t12.5 29.5t12.5 22q2 2 5.5 6t5.5 4zM311 504q6 0 5 -7.5t-3 -12.5l-9 -32q-8 -26 -18 -54.5t-25 -48.5
q-20 -2 -34.5 -2.5t-29.5 -0.5t-32 0.5t-41 0.5l6 21l4 16q3 11 8 26.5t11 31t12.5 29.5t12.5 22q2 2 5.5 6t5.5 4z" />
    <glyph glyph-name="FL003Bh" unicode=";" horiz-adv-x="246" 
d="M234 503q-2 0 -6 -4t-5 -6q-6 -8 -12.5 -22t-12.5 -29.5t-11 -31t-8 -26.5l-4 -16l-6 -21q24 0 40.5 -0.5t31.5 -0.5t30 0.5t35 2.5q15 20 25 48.5t18 54.5l9 32q2 5 3 12.5t-6 7.5zM259 161l-121 -1q-2 0 -5.5 -4t-5.5 -6q-6 -8 -17.5 -28.5t-26 -47.5t-29.5 -56
t-27.5 -53.5t-21 -41l-8.5 -16.5l-6 -21q24 0 41.5 -0.5t32.5 -0.5t29.5 0.5t34.5 2.5q6 9 17.5 28.5t25 44.5t28.5 53t28 53t22.5 45t11.5 29q2 5 3 12.5t-6 7.5z" />
    <glyph glyph-name="FL003Ch" unicode="&#x3c;" horiz-adv-x="505" 
d="M246 76q7 -17 16 -33t23 -27q32 -24 80 -37t94 -13h3q2 2 7 9.5l7 10.5l1 2l2 4v4l-46 90l-93 327l245 233l49 170q1 2 -2.5 9.5t-7.5 10.5l-1.5 0.5t-2.5 0.5t-2.5 -0.5l-1.5 -0.5l-310 -292l-174 -168z" />
    <glyph glyph-name="FL003Dh" unicode="=" horiz-adv-x="427" 
d="M136 382l-2 -4q2 -4 11 -7t11 -3q3 1 8.5 5.5t12.5 10t12.5 11l8.5 8.5l278 1q1 0 5.5 5.5t6.5 9.5q14 22 24.5 35t18.5 25t14.5 26t13.5 38q3 11 -2.5 15t-13.5 4h-4l-30 -20q-3 -2 -10 -6t-8 -4l-271 -1q-1 0 -5.5 -7.5l-7.5 -12.5q-17 -30 -39.5 -62.5t-31.5 -66.5z
M73 170l-1 -4q2 -4 10.5 -7t10.5 -3q3 1 9 5.5t12.5 10t12 11l8.5 8.5l278 1q1 0 5.5 5.5t6.5 9.5q14 22 24.5 35t19 25t15 26t13.5 38q3 11 -2.5 15t-13.5 4h-4l-29 -20q-4 -2 -11 -6t-8 -4l-272 -1l-4.5 -7.5t-8.5 -12.5q-17 -30 -39 -62.5t-32 -66.5z" />
    <glyph glyph-name="FL003Eh" unicode="&#x3e;" horiz-adv-x="505" 
d="M303 76q-17 -17 -35 -33t-38 -27q-23 -12 -49 -21.5t-53 -15.5t-53.5 -9.5t-48.5 -3.5h-3q-2 2 -1.5 9.5t-0.5 10.5v2t1 4q0 1 1 2.5l1 1.5l98 90l278 327l-110 233l49 170q1 2 9 9.5t13 10.5l1.5 0.5t2.5 0.5t2.5 -0.5l1.5 -0.5l141 -292l79 -168z" />
    <glyph glyph-name="FL003Fh" unicode="?" horiz-adv-x="564" 
d="M384 486q4 4 21 9t39 15t46 27.5t43 46.5q20 31 23 50t-6.5 28.5t-29 12.5t-42.5 2t-47.5 -3t-44.5 -2q-9 0 -54.5 -12t-130.5 -46l47 167q0 1 10 5t15 5q25 6 58.5 10t68.5 6t68 3t59 1q46 0 88.5 -7.5t69.5 -33t33.5 -76t-18.5 -135.5q-14 -50 -36 -79t-49 -45.5
t-57.5 -24.5t-62.5 -15.5t-64.5 -19t-62.5 -34.5q-10 -4 -22 -8.5t-22 -11.5t-16.5 -17t-4.5 -23q0 -19 -14 -29l-146 3q10 36 17.5 58.5t17.5 37.5t24.5 26t39.5 25zM261 155q7 0 6.5 -7.5t-2.5 -12.5l-9 -32q-8 -26 -18.5 -54.5t-25.5 -48.5q-20 -2 -39 -1t-34 1t-32 0.5
t-41 0.5l6 21l5 16q3 11 8 26.5t10.5 31t12 29.5t12.5 22q2 2 5.5 6t5.5 4z" />
    <glyph glyph-name="FL0040h" unicode="@" horiz-adv-x="703" 
d="M293 272q22 24 36.5 45.5t27.5 43t27 45t34 51.5v-1l53 76q5 8 7.5 13t7.5 12h-1q9 18 27.5 30.5t40.5 23.5q8 5 19.5 9.5t20.5 4.5q11 0 11 -11v1l35 -277q16 30 38 73.5t39.5 89.5t24.5 90.5t-5 76.5q-9 16 -26.5 24t-38 12t-40.5 5t-34 3l-80 -4q-37 0 -68 -15
t-56.5 -40t-46 -59t-37 -71.5t-30 -77t-23.5 -76.5q-13 -45 -8 -83t20 -69t36.5 -56.5t42.5 -46.5l10 -6q-4 2 -6.5 3t-3.5 3l13 -7q21 -6 34.5 -6.5t34 2.5t55 7t96.5 7l-34 -117h-169q-71 0 -129 21.5t-93.5 66.5t-44 115t19.5 166q34 118 88.5 204.5t124.5 143.5
q35 29 69.5 48.5t69.5 32t70.5 20t73.5 11.5l67 1q45 -3 77.5 -18.5t53 -35t31 -38t12.5 -26.5q5 -31 -7 -78.5t-33.5 -101t-48.5 -106t-50.5 -94t-39 -65.5t-15.5 -20l-5 -6q-8 -9 -12 -9h-119q-9 0 -9 12v29q2 21 -4 35t-14 14l-20 -2q-3 0 -6.5 -0.5t-7.5 -0.5
q-23 -2 -41 -0.5t-27 -11.5l-51 -58l-9 -9q-4 -1 -9 -1h-6h-10q-2 0 -2.5 0.5t-2.5 0.5h-3q-3 0 -8 2t-9.5 4.5t-7 5t-2.5 3.5zM430 390l77 -3l-6 82z" />
    <glyph glyph-name="FL0041h" unicode="A" horiz-adv-x="841" 
d="M33 32l-8 -30q0 -1 5 -2.5t12 -3t15 -3t13 -1.5h6q5 0 11 -0.5t11 -0.5h9q5 0 15.5 0.5t11.5 0.5l11 10l109 160q14 19 43 30.5t63.5 17.5t68.5 8.5t58 4.5l43 3q14 1 20.5 -15t8 -41t0 -54.5t-3 -54.5t-1 -42t6.5 -17h248q2 0 5 4t5 6l1.5 2t1.5 3q3 12 -5.5 16t-12.5 9
q-20 29 -30.5 70t-14.5 80l-54 620q-1 8 -4 9.5t-8 1.5q-8 0 -19 -3.5t-22.5 -8t-22 -10t-18.5 -9.5q-26 -12 -42.5 -28.5t-29 -37t-25 -44.5t-29.5 -50q-8 -12 -25 -36t-34.5 -49.5t-32 -47t-18.5 -27.5q-81 -112 -165.5 -224.5t-176.5 -215.5zM368 337q0 1 1 3l1 2
l147 213l6 -13l12 -220h-163q-1 0 -3 4t-2 6v2t1 3z" />
    <glyph glyph-name="FL0042h" unicode="B" horiz-adv-x="697" 
d="M245 770q13 -7 25.5 -14.5t20.5 -18t10 -26.5t-5 -41l-186 -650q-1 -1 7.5 -5t13.5 -5q24 -6 45.5 -8.5t43 -3t45 0t52.5 0.5q34 0 74.5 3t83 12.5t84 27t78 46t65 69.5t44.5 98q15 51 8.5 83.5t-27 52.5t-50.5 30.5t-63 18.5l3 10q32 16 64 33t60.5 39t51 52t34.5 73
q13 45 3 74.5t-32 47.5t-52 27t-58 14h-33q-23 0 -48.5 0.5t-48.5 0.5h-33h-43q-26 0 -53 -0.5t-47 -0.5h-22q-11 0 -27.5 -1.5t-32 -3t-27.5 -3t-12 -2.5zM409 394q35 0 66.5 -5.5t52.5 -23t27 -49.5t-9 -86q-9 -31 -23.5 -60t-34 -51.5t-43 -36t-49.5 -13.5q-8 0 -21 2
t-24.5 7.5t-18.5 15.5t-2 26zM508 740q2 0 11.5 0.5t12.5 0.5q56 0 78 -37.5t3 -103.5q-12 -41 -31 -67t-43 -41t-52.5 -22t-58.5 -10z" />
    <glyph glyph-name="FL0043h" unicode="C" horiz-adv-x="712" 
d="M689 752l84 -88l74 8q28 34 42 56.5t19 38.5q5 17 2 31t-11 31h-273q-38 -4 -73.5 -11.5t-70.5 -20t-69.5 -32t-69.5 -48.5q-70 -57 -124.5 -143.5t-88.5 -204.5q-28 -96 -19.5 -166t44 -115t93.5 -66.5t129 -21.5h284l35 117q-125 -6 -209.5 -14t-126.5 4l-13 7
q-21 21 -26.5 53t-1.5 71.5t15 84t24 89.5q16 55 38 115t53.5 110t73 82t97.5 32zM360 107l-13 7q1 -2 4.5 -3.5t8.5 -3.5z" />
    <glyph glyph-name="FL0044h" unicode="D" horiz-adv-x="790" 
d="M57 0l196 684q-9 34 -11 52t2 29t14.5 20.5t28.5 26.5h345q35 -4 67 -11.5t59.5 -20t51 -32t41.5 -48.5q19 -29 31 -62t15.5 -73.5t-2.5 -89t-23 -106.5q-28 -96 -76.5 -166t-110 -115t-131.5 -66.5t-141 -21.5h-356zM453 735l-189 -658q102 1 143.5 1.5t24.5 -0.5h15
q8 1 58 30q33 21 57.5 54t43.5 73.5t34 86t28 90.5q16 55 27 112.5t6.5 104t-29.5 76t-80 29.5z" />
    <glyph glyph-name="three" unicode="E" horiz-adv-x="650" 
d="M28 15q1 1 1.5 2.5t1.5 2.5q4 6 15 22t24 33.5t24 33t16 21.5q2 2 10.5 10t11.5 10l253 176l-151 331l6 20q0 1 10.5 12.5t25.5 27.5t30.5 32.5t26.5 27.5q1 2 5.5 6.5t10 9t10 8.5t6.5 6q14 0 42.5 -0.5t64.5 -0.5h77h76q36 0 65 0.5t43 0.5q4 0 16 1t25 2.5t25 3.5
t17 3q5 -3 5 -10l-0.5 -2t-0.5 -3t-0.5 -3l-0.5 -2q-18 -25 -44.5 -49.5t-45.5 -40.5q-12 0 -42.5 -2.5t-64.5 -6t-64.5 -7t-42.5 -4.5q-3 0 -11.5 -1t-18.5 -2.5t-18 -3.5t-11 -3q6 -16 19.5 -39t30 -48.5t33 -52t30 -48.5t22 -38t6.5 -21q-1 -2 -1.5 -5.5t-2.5 -4.5
q-35 -34 -71 -64.5t-72.5 -60.5t-73 -60.5t-70.5 -64.5q20 -10 43.5 -14.5t49 -6t51.5 -1t50 0.5q43 0 85.5 6t86.5 6q-11 -39 -39 -69t-62.5 -50.5t-69.5 -31t-60 -10.5h-408q-1 0 -2.5 4t-2.5 6v5z" />
    <glyph glyph-name="FL0046h" unicode="F" horiz-adv-x="609" 
d="M229 710q0 1 0.5 4.5t0.5 5.5q4 11 9 16.5t17 13.5q4 3 14.5 10t23 15t24 15t16.5 10q64 -2 125 -0.5t120 4l118 5t121 2.5l-49 -171l-22 -20l-52 100l-8.5 0.5t-13.5 0.5h-8q-5 0 -10.5 -0.5t-10.5 -0.5h-5q-14 -2 -36.5 -5t-43.5 -6t-36.5 -5.5t-16.5 -3.5l-11 -10
l-60 -210h248l-9 -30l-8 -7.5t-18.5 -17.5l-21 -20t-17.5 -15q-3 -2 -10 -6t-9 -4l-193 -30l-99 -350l-194 -4l182 634q6 22 3 36t-12 22.5t-22 13t-26 8.5z" />
    <glyph glyph-name="FL0047h" unicode="G" horiz-adv-x="744" 
d="M593 423h248l-8 -30q-1 0 -4.5 -7.5t-9 -17t-12 -19t-13.5 -15.5q-1 -1 -7 -2t-12.5 -2.5l-13 -3t-8.5 -2.5q0 -40 -9 -90t-23 -98t-30 -85t-30 -52l-379 1q-92 28 -122 98q-14 35 -23 74t-10.5 83t5.5 94.5t24 109.5q38 96 93 163t117.5 109t126 61t119.5 19h252
l-25 -88q-225 15 -303 -13l-17 -7q-33 -21 -57 -51.5t-42.5 -67.5t-33 -80t-27.5 -88q-16 -56 -28 -115.5t-9 -109.5t26 -82t79 -32l152 1q11 25 21.5 49.5t19 51.5t15.5 58t10 70l-89 -14z" />
    <glyph glyph-name="FL0048h" unicode="H" horiz-adv-x="834" 
d="M93 10l189 660q8 28 2.5 44.5t-15 26t-17.5 16.5t-5 16q2 7 5 16t11 11q12 1 43 3t66 3.5t66.5 2.5t43.5 1h9q8 0 16 0.5t16 0.5h9q-18 -61 -44.5 -122t-44.5 -124l-4 -13q-2 -9 -4.5 -19.5t-5.5 -19.5l-4 -13q1 -15 20.5 -22t44.5 -9t50.5 -1t39.5 1h11q7 0 14.5 0.5
t12.5 0.5h7q9 0 24 1.5t29.5 3t25.5 3t12 2.5l11 10l77 270q1 4 9 9t14 8t7 3q8 2 29.5 6t46 9t46.5 9t30 6l3.5 0.5t5.5 0.5q9 0 14.5 -7t1.5 -18q-25 -88 -54.5 -175.5t-54.5 -175.5l-10 -35q-8 -25 -15 -52.5t-14 -52.5l-10 -35q-1 -3 -2.5 -10t-2.5 -15t-2 -15t0 -10
q0 -2 2.5 -6t5.5 -9t5.5 -9.5t2.5 -5.5q-2 -9 -12.5 -29t-24 -41t-27.5 -38.5t-22 -21.5q-8 -3 -27 -10t-40 -15t-40.5 -15t-26.5 -10q-7 -2 -20 -6t-15 -4q-5 0 -11.5 4t-5.5 6l112 391l-318 -35l-91 -316l-10 -10q-43 -3 -90.5 -15t-89.5 -25z" />
    <glyph glyph-name="FL0049h" unicode="I" horiz-adv-x="646" 
d="M259 128h1l159 542l-5 10q-1 0 -11.5 0.5t-17.5 0.5q-29 0 -55 -3t-53 -9q-2 0 -8.5 -3t-14.5 -7t-14.5 -7t-8.5 -3q-2 -1 -10.5 -2t-10.5 -1q6 19 16 42t22 45t24 42t21 34h8q36 0 67.5 -1.5t62.5 -3.5t63 -3.5t69 -1.5q40 0 75.5 1.5t70 3.5t70 3.5t75.5 1.5l-6 -20
l-98 -90q-6 0 -16.5 -1t-22 -2.5t-22 -3t-16.5 -2.5t-14.5 -2.5t-16.5 -3t-14 -3l-6 -1.5l-22 -50l-7 -23q-6 -20 -13.5 -45.5t-15.5 -52.5l-12 -41q-24 -85 -44.5 -167.5t-43.5 -167.5l3 -5q1 0 11 -0.5t17 -0.5q29 0 53 2t52 8q2 0 8.5 3t14.5 7t14.5 7t8.5 3q2 1 10.5 2
t10.5 1q-6 -20 -16 -42.5t-22 -44.5t-24 -42t-21 -34h-8q-60 0 -115 2.5t-117.5 4.5t-139.5 1t-181 -8l6 20l98 90q7 0 18 1.5t23 3t23 3.5t17 3t14.5 2.5t16.5 3t14 3z" />
    <glyph glyph-name="FL004Ah" unicode="J" horiz-adv-x="642" 
d="M578 755q24 -8 38 -25.5t4 -54.5l-149 -520q-14 -17 -41 -23.5t-63 -6.5t-77 4.5t-86 10.5q-5 0 -12 4t-20.5 12.5t-34 21t-52.5 29.5l-53 -178q0 -1 7 -5t12 -5q22 -6 53 -10t65 -6t66.5 -3t58.5 -1q44 0 98 7t107 29.5t99.5 65.5t75.5 115q3 4 3 5l172 585h-11
q-8 0 -16.5 -0.5t-16.5 -0.5h-12q-11 0 -37.5 -1t-56 -2.5t-56 -3.5t-37.5 -3q-11 3 -16.5 -6.5t-7.5 -18.5q-1 -2 -2 -7.5t-2 -7.5z" />
    <glyph glyph-name="FL004Bh" unicode="K" horiz-adv-x="842" 
d="M571 31q-4 6 -12.5 21.5t-17.5 32.5t-16.5 33t-10.5 23q-6 13 -18.5 48.5t-27 75t-26.5 75.5t-16 51h-32l-97 -340l-11 -10l-20 -5t-47.5 -11.5t-56.5 -13t-48 -10.5q-1 0 -4 -0.5t-5 -0.5q-5 0 -9.5 1.5t-2.5 9.5l192 670q9 29 3 45t-15.5 25.5t-18 16t-5.5 17.5
q3 9 9 19t17 7q12 1 44.5 3t68.5 3.5t68 2.5t45 1h14q7 0 12 -2t2 -13l-1 -5q-21 -43 -36.5 -84t-27.5 -82t-23 -83t-24 -87q22 0 44 10t43.5 26.5t42 37t38.5 42.5q16 20 40.5 46.5t50 57t49 63t38.5 63.5h176q17 0 24 -3.5t2 -21.5q-1 -2 -23.5 -16.5t-57.5 -36.5
t-76.5 -50t-79.5 -57t-67 -56.5t-38 -48.5q-2 -3 -0.5 -10.5t3.5 -9.5q4 -14 13 -42t21 -62.5t25.5 -72.5t26 -72t22.5 -61t15 -40q3 -7 10.5 -23t16.5 -33t17.5 -32.5t12.5 -21.5q1 2 4.5 5.5t6.5 4.5l1.5 0.5t2.5 0.5q2 0 3 -0.5l1 -0.5q1 -2 0.5 -9.5t1.5 -10.5l-2 -5
l-1 -5q-2 -4 -8 -15.5t-9 -14.5q-5 0 -16.5 -0.5t-15.5 -0.5q-26 0 -54 1t-55 5.5t-51.5 12.5t-43.5 22z" />
    <glyph glyph-name="FL004Ch" unicode="L" horiz-adv-x="634" 
d="M297 773q-2 -5 -0.5 -16t4 -22.5t5.5 -21.5t6 -14l-151 -527q-9 -31 -22.5 -42.5t-29.5 -17.5t-33 -12.5t-31 -27.5q8 -28 29.5 -47.5t43.5 -32.5q58 6 100.5 8.5t86.5 2.5h66q60 0 117.5 -6t117.5 -6q3 10 9 30.5t12.5 45t12 50.5t7.5 47t-1 34.5t-13 13.5
q-17 0 -34.5 -20.5t-35.5 -45t-36.5 -45t-37.5 -20.5q-3 0 -9 0.5t-8 0.5q-15 1 -37 4.5t-42.5 7t-35.5 6t-16 2.5l-5 10l146 510l56 140q3 6 11.5 13.5t14 14t4.5 12.5t-17.5 11t-52.5 7.5t-99 2.5q-17 0 -33.5 -2t-30.5 -7.5t-24 -15.5t-14 -25z" />
    <glyph glyph-name="FL004Dh" unicode="M" horiz-adv-x="1001" 
d="M805 777l20 84q-23 0 -46 -4.5t-46.5 -10.5t-47 -11.5t-46.5 -7.5l-11 -10l-7 -40q-44 -8 -87 -21t-83 -36.5t-77 -60.5t-69 -92q-3 -4 -17 -37.5t-33 -81.5t-41.5 -103.5t-41.5 -104t-32.5 -82t-15.5 -37.5q-5 -6 -14.5 -20t-13.5 -20q-6 -8 -16 -13.5t-19.5 -10.5
t-17 -10.5t-10.5 -14.5q-6 -21 10 -21q21 0 50 1.5t60.5 8.5t60.5 21t50 39q13 30 34 87t47 125t56 138.5t62.5 128.5t66 95t66.5 37l-203 -692q4 0 15.5 0.5t16.5 0.5q8 0 30.5 1t46.5 2q13 1 24.5 2t22.5 2q23 2 31.5 3t10.5 9l4 14l24 83l30 105l80 281l31 106l23 83
q2 0 7.5 1t12 2t12 2t7.5 0q23 -7 30 -37t3 -75t-15.5 -101t-25.5 -115l-28 -118t-22 -108.5t-8.5 -87t13.5 -54.5h10q8 0 16 -0.5t15 -0.5h11h38q26 0 50.5 2.5t62.5 8.5q2 2 7 10t7 10l1 5l2 5q-23 8 -30 36t-4 69t13 92.5t22 106t23.5 109.5t16.5 103.5t1 87.5t-22 62
q-17 21 -41 33.5t-52 19.5t-57 10.5t-54 6.5z" />
    <glyph glyph-name="N" unicode="N" horiz-adv-x="877" 
d="M153 171q-5 -17 -9.5 -46t-4.5 -57t6.5 -48.5t23.5 -20.5q8 0 32.5 3.5t51.5 10.5t49 17t26 24q28 97 50.5 190.5t50.5 190.5l13 45q9 32 19.5 67.5t19.5 67.5l13 45q0 18 7 28t17.5 14.5t21 5.5t17.5 2q6 1 27 3t45.5 3.5t47.5 2.5t34 1h17q10 0 21.5 -0.5t22.5 -0.5
q10 0 18 -0.5t13 -0.5l-203 -708l9 -10l195 40q2 0 5.5 4t5.5 6l1 4l2 6q5 35 8 64.5t13 65.5l135 470q12 42 28.5 61.5t32.5 31.5t30 23.5t21 36.5h-620l-119 2q-8 0 -25.5 -8t-35.5 -20t-33 -26t-18 -26q-2 -8 10.5 -13t27 -12t25 -18.5t4.5 -31.5l-129 -450
q-10 -9 -13.5 -18.5t-6.5 -20.5z" />
    <glyph glyph-name="zero" unicode="O" 
d="M138 398q34 117 90 198t127.5 131.5t153.5 73t168 22.5q71 0 128.5 -22t93 -67t44 -115t-18.5 -166q-34 -117 -88 -203t-123.5 -141.5t-152.5 -82.5t-174 -27q-78 0 -138 23t-94.5 71.5t-40 124t24.5 180.5zM364 432q-10 -36 -19.5 -76t-14 -79t-3 -75t13 -63.5
t34.5 -43.5t62 -16q56 0 99.5 33.5t76 85t56 113t39.5 117.5q16 57 24.5 113.5t1.5 101t-33 72.5t-79 28q-76 0 -129 -50t-94 -141l-7 -24q-5 -17 -10.5 -36t-10.5 -36zM673 502q7 0 6 -7.5t-3 -12.5q-4 -14 -12.5 -29.5t-19.5 -31.5t-22.5 -31t-20.5 -28q-20 -2 -47.5 -4
t-58 -3.5t-60 -2.5t-53.5 -1l6 21q0 1 8 14t19.5 30.5t23.5 36t20 29.5q2 2 5.5 6t5.5 4z" />
    <glyph glyph-name="FL0050h" unicode="P" horiz-adv-x="665" 
d="M376 286q53 6 103.5 18t107.5 42q32 16 69 49t71 75t61 88t39 89q13 45 3 74.5t-32 47.5t-52 27t-58 14h-33q-23 0 -48.5 0.5t-48.5 0.5h-76q-26 0 -53 -0.5t-47 -0.5h-22q-11 0 -27.5 -1.5t-32 -3t-27.5 -3t-12 -2.5l-16 -30q13 -7 25.5 -14.5t20.5 -18t10 -26.5t-5 -41
l-186 -650q-1 -1 7.5 -5t13.5 -5q25 -6 41 -7.5t31 -1t33 2t47 1.5h7zM508 740q2 0 11.5 0.5t12.5 0.5q56 0 78 -37.5t3 -103.5q-12 -41 -34.5 -80t-51 -69.5t-61 -50t-62.5 -22.5z" />
    <glyph glyph-name="FL0051h" unicode="Q" horiz-adv-x="978" 
d="M409 0q-81 5 -145.5 26.5t-102.5 68.5t-44.5 125t27.5 197q29 102 83 168t121.5 107.5t142.5 65.5t147 42l173 11l25.5 -3t56.5 -6.5t57.5 -7t29.5 -4.5q38 -21 65.5 -53t42 -74.5t14.5 -94.5t-18 -113q-28 -99 -77.5 -171t-107.5 -122t-118 -82t-109 -50.5t-80.5 -27
t-33.5 -12.5l-114 -260q-1 -2 -9 -9.5t-13 -10.5h-4q-27 0 -38.5 15.5t-13 40t4 56t13.5 63.5t15.5 62.5t9.5 52.5zM342 441q-15 -54 -21.5 -112.5t2.5 -107.5t36.5 -81t80.5 -32l170 592q4 15 -5 18t-16 3q-44 0 -83 -27.5t-71.5 -69.5t-56.5 -91t-36 -92zM781 710
q-6 -20 -19 -63t-29.5 -97t-34.5 -114t-34.5 -114.5t-29.5 -97.5t-19 -64l-15 -53q49 0 94.5 24t84 64.5t68 95t46.5 114.5q13 45 15 98.5t-9.5 99.5t-37.5 77t-68 31q-2 0 -6 -0.5t-6 -0.5z" />
    <glyph glyph-name="FL0052h" unicode="R" horiz-adv-x="695" 
d="M409 394q35 0 62.5 -6t45.5 -24t25.5 -50t3.5 -84l-19 -213q26 4 46 0.5t35 -8t27 -6t22.5 6.5t20.5 29t22 61q15 51 15.5 107.5t-11 105.5t-34.5 84t-56 43l3 10q32 16 64 33t60.5 39t51 52t34.5 73q13 45 3 74.5t-32 47.5t-52 27t-58 14h-33q-23 0 -48.5 0.5t-48.5 0.5
h-76q-26 0 -53 -0.5t-47 -0.5h-22q-11 0 -27.5 -1.5t-32 -3t-27.5 -3t-12 -2.5l-16 -30q13 -7 25.5 -14.5t20.5 -18t10 -26.5t-5 -41l-186 -650q-1 -1 7.5 -5t13.5 -5q25 -6 41 -7.5t31 -1t33 2t47 1.5h7zM508 740q2 0 11.5 0.5t12.5 0.5q56 0 78 -37.5t3 -103.5
q-12 -41 -31 -67t-43 -41t-52.5 -22t-58.5 -10z" />
    <glyph glyph-name="FL0053h" unicode="S" horiz-adv-x="699" 
d="M681 20l-14 -20h-480q-19 0 -44.5 8t-47 23t-34 36.5t-4.5 48.5h32q25 0 62 0.5t73 1.5t66 1.5t43 0.5q7 0 19 1.5t25 4t26.5 6t23.5 8.5l-151 639l9 30h560q2 0 3 -21t0.5 -49t-3 -56.5t-6.5 -43.5h-27q-15 42 -51 57.5t-80 17.5t-89.5 -3.5t-79.5 -5.5q0 -1 -1 -2.5
t-2 -3.5q1 -2 1 -10t2 -10z" />
    <glyph glyph-name="FL0054h" unicode="T" horiz-adv-x="700" 
d="M250 12l2 -12q1 0 9 -0.5t13 -0.5q42 0 88.5 6.5t87.5 14.5q8 3 9.5 7.5l3.5 10.5q31 109 57 215t57 215l12 41q8 27 15.5 52.5t13.5 45.5l7 23l22 50l6 1.5t14 3t16.5 3t14.5 2.5t22.5 0t35 -3t35 -4t22.5 -2l90 109l5 20h-321h-287h-8q-9 -14 -20.5 -34t-23.5 -42
t-22.5 -45t-15.5 -42q2 0 10 1t10 2q2 0 8.5 3t14.5 7t14.5 7t8.5 3q13 3 30.5 5t35.5 3.5t36 2t32 0.5q7 0 17.5 -0.5t11.5 -0.5l5 -10z" />
    <glyph glyph-name="FL0055h" unicode="U" horiz-adv-x="877" 
d="M957 643q-3 -11 -6 -20.5t-14 -18.5l-129 -450q-6 -20 5 -31.5t25.5 -18.5t27 -12t10.5 -13q-4 -12 -19 -26t-33 -26t-35 -20t-25 -8l-120 2h-620q7 25 21 36.5t30 23.5t32.5 31.5t28.5 61.5l135 470q11 36 13.5 65.5t7.5 64.5l2 6l1 4q2 2 5.5 6t5.5 4l195 40l10 -10
l-203 -708q3 0 11.5 -0.5t18.5 -0.5q11 0 22.5 -0.5t20.5 -0.5h18q11 0 34 1t47.5 2.5t45.5 3.5t28 3t17.5 2t20.5 5.5t17 14.5t7 28l13 45q9 32 19.5 67.5t20.5 67.5l13 45q28 97 50 190.5t50 190.5q4 13 26 23.5t49 17.5t52 10.5t33 3.5q17 0 23.5 -20.5t6 -48.5t-5 -57
t-9.5 -46z" />
    <glyph glyph-name="FL0059h" unicode="V" horiz-adv-x="833" 
d="M1035 788q-9 26 -31 33.5t-46 7.5h-8q-8 0 -18.5 -1.5t-15.5 -9.5l-363 -546l-35 526l-10 20q-1 0 -9 0.5t-19 0.5t-22.5 0.5t-19.5 0.5q-38 0 -84 -0.5t-89 -11.5q-8 -3 -10.5 -9t-4.5 -12q-1 -2 -1.5 -5.5l-0.5 -3.5q0 -1 4 -4t8.5 -6t8.5 -6t5 -4q11 -14 18.5 -33.5
t12.5 -40.5q3 -14 4 -26t4 -34q3 -26 7 -61t7.5 -68.5t6.5 -60.5t5 -36q1 -15 3 -46t4.5 -70.5t4.5 -83t4 -83t3.5 -71t1.5 -46.5q0 -8 4 -9.5t9 -1.5q11 0 29.5 7.5t38 18t36.5 20.5t26 15q12 13 22 31t19.5 37l19 38t19.5 34q106 159 216.5 308t235.5 292z" />
    <glyph glyph-name="FL0057h" unicode="W" horiz-adv-x="1018" 
d="M1194 810q3 9 -1 12t-10 3h-9q-10 -2 -25.5 -5.5t-30.5 -6.5t-26 -5.5t-12 -2.5l-15 -10l-143 -500l-15 -10l-89 500q-2 2 -5 10t-5 10h-4q-14 0 -25.5 -13t-22.5 -27l-340 -460l-21 -20l132 520h-247q-9 0 -19.5 -9.5t-14.5 -20.5q-1 -2 -1 -6q0 -3 -1 -4q35 -6 48 -34
t12.5 -67t-11 -84t-22.5 -85l-17 -60l-7 -25q-7 -23 -15 -52.5t-17 -59.5l-13 -48l-11 -36q-8 -27 -16.5 -56.5t-16.5 -55.5l-10 -37q-11 -15 -23 -34t-17 -38q17 0 35 5t35.5 11.5t35 11.5t34.5 5q9 0 13 -5.5t12 -5.5q10 0 17.5 6t13.5 15t11.5 19.5t11.5 19.5l68 100
q57 81 118.5 159.5t130.5 150.5q1 0 2 0.5t2 0.5t2.5 -0.5l1.5 -0.5q1 -3 4.5 -9l7 -12t6 -11.5t3.5 -7.5l84 -430q4 -15 6.5 -18t13.5 -3q25 0 52 3t54.5 6.5t54.5 7t51 4.5q8 2 11 10t5 15q1 2 2 7.5t2 7.5q-9 5 -20 10.5t-20 13.5t-15 19t-5 27q2 5 4.5 16.5t6.5 24.5
q4 14 7.5 28.5t6.5 26.5l7 24l9 31q4 13 9 28.5t8 27.5q4 13 7 22t4 11q6 16 19 50.5t30 78t36 91.5t36.5 91.5t31.5 78t21 50.5q0 1 1 2.5t1 2.5z" />
    <glyph glyph-name="FL0058h" unicode="X" horiz-adv-x="793" 
d="M27 10l403 400l-8 30q-3 11 -10.5 34t-16.5 51.5t-19 60t-19.5 60t-16.5 51t-11 33.5q-5 17 -17.5 29.5t-23.5 20.5l8 30q10 1 36 4t55.5 6t55 6t35.5 4h5q5 0 10.5 0.5t10.5 0.5h8q5 0 13.5 -0.5l8.5 -0.5l70 -252l309 292l2 0.5t3 0.5t2 -0.5l1 -0.5q4 -3 8 -10.5
t3 -9.5l-49 -170l-245 -233l92 -327l47 -90v-2q0 -1 -1 -2q0 -2 -1 -4l-1 -2l-7 -10.5t-7 -9.5h-3q-23 0 -47 3.5t-47 9.5t-44 15.5t-37 21.5q-13 11 -22 27t-16 33l-67 160q-1 4 -4.5 11.5t-5.5 8.5l-1.5 0.5t-2.5 0.5t-2.5 -0.5l-1.5 -0.5l-261 -240q-19 -18 -42.5 -31
t-47.5 -22.5t-48 -16t-45 -10.5z" />
    <glyph glyph-name="FL0056h" unicode="Y" horiz-adv-x="785" 
d="M225 670q60 6 96.5 -10t56.5 -50t25 -84t2 -112q0 -4 -3 -20t-6.5 -34t-6.5 -33t-3 -17l-91 -317q-2 -6 1.5 -8t8 -3t9 -0.5t5.5 0.5q41 0 89 10.5t85 20.5l7 25q5 17 10.5 39t12.5 46l14 47q13 45 24.5 84.5t16.5 55.5q10 33 27 72t38.5 78t48 75t55.5 64t60.5 45
t63.5 17q17 0 30.5 -6t30.5 -6q5 0 11 3.5t9 12.5l1 5q0 7 1 23.5t2.5 34t2.5 32.5t2 20q0 16 -7.5 24.5t-19.5 12t-25.5 4t-24.5 0.5q-34 0 -65 -15t-59.5 -40t-54.5 -57.5t-48 -68.5q-11 -16 -25.5 -44t-29 -55t-25 -47t-11.5 -20h-16l6 50q9 60 13.5 114t-6 94.5
t-41 64.5t-90.5 24q-19 0 -51.5 -11t-65.5 -29.5t-60 -43t-35 -52.5v-5q0 -2 1.5 -5.5t3.5 -4.5z" />
    <glyph glyph-name="FL005Ah" unicode="Z" horiz-adv-x="699" 
d="M30 20l2 -20h480q19 0 49 8t60 23t54.5 36.5t32.5 48.5h-32q-26 0 -62 0.5t-72 1.5t-65.5 1.5t-42.5 0.5q-7 0 -18 1.5t-23 4t-23 6t-18 8.5l514 620l9 30h-560q-2 0 -15 -21t-29 -49t-30 -56.5t-18 -43.5h27q39 42 84 57.5t90 17.5t87 -3.5t76 -5.5q-1 -1 0 -2.5t0 -3.5
q-2 -2 -7 -10t-7 -10z" />
    <glyph glyph-name="FL005Bh" unicode="[" horiz-adv-x="634" 
d="M294 665q-4 -11 -5.5 -20.5t3.5 -18.5l-130 -450q-9 -31 -22.5 -42.5t-29.5 -17.5t-33 -12.5t-31 -27.5q8 -28 29.5 -47.5t43.5 -32.5q58 6 100.5 8.5t86.5 2.5h66q60 0 118 -6t118 -6q3 10 9 30.5t12 45t11.5 50.5t7.5 47t-1 34.5t-13 13.5q-17 0 -34.5 -20.5t-35.5 -45
t-36.5 -45t-37.5 -20.5q-3 0 -9 0.5t-8 0.5q-15 1 -37 4.5t-42.5 7t-35.5 6t-16 2.5l-5 10l147 510q3 10 5.5 18.5t3.5 15.5l13 46l11 10l16.5 2.5t39.5 6t47 6.5t39 5q2 0 8.5 0.5t9.5 0.5q19 0 26 -20.5t10.5 -45t9.5 -45t23 -20.5q10 0 21 13.5t21 34.5t19 47t17 50.5
t13.5 45t8.5 30.5q-60 0 -121 -6t-121 -6h-66q-44 0 -85 2.5t-96 8.5q-29 -13 -61.5 -32.5t-57.5 -47.5q1 -20 12 -27t23 -11.5t21 -13t6 -30.5q-2 0 -3 0.5t-3 0.5z" />
    <glyph glyph-name="FL005Ch" unicode="\" horiz-adv-x="495" 
d="M299 798l119 49l56 -838q-6 -3 -21.5 -9t-35 -12.5t-41 -13.5t-39 -12t-29.5 -7t-13 1l-50 813l9 6q8 4 16.5 8.5t16.5 8.5z" />
    <glyph glyph-name="FL005Dh" unicode="]" horiz-adv-x="634" 
d="M721 665q-4 -11 -7 -20.5t-12 -18.5l-130 -450q-9 -31 -1.5 -42.5t20 -17.5t25.5 -12.5t16 -27.5q-26 -28 -58 -47.5t-61 -32.5q-28 3 -51.5 5t-45 3.5t-42 2t-42.5 0.5h-66q-60 0 -121 -6t-121 -6q3 10 8.5 30.5t13 45t16.5 50.5t19.5 47t21 34.5t21.5 13.5
q17 0 22.5 -20.5t9 -45t10 -45t25.5 -20.5q3 0 10.5 0.5t9.5 0.5q15 1 39 4.5t46.5 7t39 6l16.5 2.5l11 10l147 510q2 10 4.5 18.5t4.5 15.5l13 46l-5 10l-15 2.5t-35.5 6t-42.5 6.5t-37 5q-2 0 -9 0.5t-10 0.5q-19 0 -37 -20.5t-36 -45t-35 -45t-34 -20.5q-11 0 -14 13.5
t-1 34.5t7.5 47t12 50.5t12.5 45t9 30.5q60 0 118 -6t118 -6h66q22 0 43 0.5t43.5 2t47 3.5t53.5 5q22 -13 43 -32.5t30 -47.5q-13 -19 -28.5 -26t-30.5 -12t-28.5 -13.5t-23.5 -30.5q2 0 4 0.5t4 0.5z" />
    <glyph glyph-name="FL005Eh" unicode="^" horiz-adv-x="390" 
d="M366 810q-6 0 -8.5 -6t-4.5 -11q-10 -9 -26 -29t-34.5 -45.5t-37.5 -53.5t-34.5 -50.5t-25.5 -38l-10 -15.5l-6 -21q24 0 41.5 -0.5t32.5 -0.5q7 0 10.5 -0.5t8.5 -0.5h8h6h4q3 0 6 1q2 4 15 27.5t29 51.5t32 53.5t25 33.5q3 -8 4.5 -33t1.5 -53v-50v-27q3 -1 8 -1h6h10
q5 0 8.5 0.5t11.5 0.5q15 0 33 0.5t42 0.5l6 21l-1 15.5t-3.5 38.5t-5.5 50.5t-6.5 53.5t-8.5 46t-10 28q2 10 -4 11q0 2 -2 2z" />
    <glyph glyph-name="FL005Fh" unicode="_" horiz-adv-x="373" 
d="M-7 -25q10 34 31.5 65t38.5 61q4 5 9 12.5l5 7.5l271 1q1 0 8 4t11 6l30 20h4q8 0 13 -4t2 -15q-7 -24 -13.5 -37.5t-14.5 -25t-18 -24t-25 -34.5q-2 -4 -6.5 -9.5t-5.5 -5.5l-278 -1q-2 -3 -8 -8.5t-12.5 -11t-12.5 -10t-9 -5.5q-2 0 -10.5 3t-10.5 7z" />
    <glyph glyph-name="FL0060h" unicode="`" horiz-adv-x="270" 
d="M252 809q-7 0 -10 -7.5l-5 -12.5q-4 -14 4 -37.5t19 -48.5t21 -48t11 -36q19 -2 33.5 -2.5t29.5 -0.5t32.5 0.5t41.5 0.5l6 21q0 1 -6 22t-15 47.5t-19 52.5t-17 38q-2 2 -2.5 6t-2.5 4z" />
    <glyph glyph-name="a" unicode="a" horiz-adv-x="833" 
d="M33 30q125 143 235 292t217 308q10 16 19 34.5t18.5 37.5t20 36.5t22.5 31.5q9 5 26 15t36 20.5t37.5 18t29.5 7.5q5 0 9 -1.5t4 -9.5q0 -15 1.5 -46.5t3.5 -71t4.5 -83t4.5 -83t4 -70.5t3 -46q1 -12 5 -47.5t8.5 -77t9 -80t7.5 -55.5q2 -25 11.5 -54t23.5 -46
q0 -2 4 -4.5t9 -5.5t9 -6t4 -4v-4q0 -3 -1 -5q-2 -6 -4.5 -12t-10.5 -9q-44 -11 -90 -11.5t-84 -0.5q-8 0 -19 0.5t-22 0.5t-19 0.5t-9 0.5l-10 20l-35 526l-363 -546q-3 -5 -9.5 -7.5t-13 -3.5t-12 -0.5t-7.5 0.5q-24 0 -46 7.5t-31 33.5z" />
    <glyph glyph-name="b" unicode="b" horiz-adv-x="697" 
d="M245 770q13 -7 25.5 -14.5t20.5 -18t10 -26.5t-5 -41l-186 -650q-1 -1 7.5 -5t13.5 -5q24 -6 45.5 -8.5t43 -3t45 0t52.5 0.5q34 0 74.5 3t83 12.5t84 27t78 46t65 69.5t44.5 98q15 51 8.5 83.5t-27 52.5t-50.5 30.5t-63 18.5l3 10q32 16 64 33t60.5 39t51 52t34.5 73
q13 45 3 74.5t-32 47.5t-52 27t-58 14h-33q-23 0 -48.5 0.5t-48.5 0.5h-33h-43q-26 0 -53 -0.5t-47 -0.5h-22q-11 0 -27.5 -1.5t-32 -3t-27.5 -3t-12 -2.5zM409 394q35 0 66.5 -5.5t52.5 -23t27 -49.5t-9 -86q-9 -31 -23.5 -60t-34 -51.5t-43 -36t-49.5 -13.5q-8 0 -21 2
t-24.5 7.5t-18.5 15.5t-2 26zM508 740q2 0 11.5 0.5t12.5 0.5q56 0 78 -37.5t3 -103.5q-12 -41 -31 -67t-43 -41t-52.5 -22t-58.5 -10z" />
    <glyph glyph-name="c" unicode="c" horiz-adv-x="634" 
d="M148 157q-5 -15 -9.5 -42.5t-5 -54t5.5 -46t23 -19.5l14.5 3t36 8t47 12t47.5 14t36.5 14.5t14.5 13.5v138l148 508l11 10l16.5 2.5t39.5 6t47 6.5t39 5q2 0 8.5 0.5t9.5 0.5q19 0 26 -20.5t10.5 -45t9.5 -45t23 -20.5q10 0 21 13.5t21 34.5t19 47t17 50.5t13.5 45
t8.5 30.5q-60 0 -121 -6t-121 -6h-66q-44 0 -85 2.5t-96 8.5q-29 -13 -61.5 -32.5t-57.5 -47.5q1 -14 8 -21t15.5 -11.5t17.5 -7.5t15 -9.5t7.5 -18t-4.5 -32.5l-129 -450q-10 -9 -13.5 -18.5t-6.5 -20.5z" />
    <glyph glyph-name="d" unicode="d" horiz-adv-x="808" 
d="M27 10q-1 -2 1 -6t4 -4h616l160 85l-28 125l-68 600q-1 2 -4.5 10t-5.5 10h-3h-5q-12 -3 -30 -8.5t-36.5 -13t-35.5 -17t-27 -21.5q-2 -2 -7 -10.5t-10.5 -19t-10 -19.5l-5.5 -11q-17 -29 -37.5 -60t-41 -61t-40 -58t-35.5 -51q-8 -11 -34 -45.5t-60.5 -80.5t-73.5 -98.5
t-74 -98.5t-61 -81t-34 -46q-3 -4 -8.5 -11.5t-5.5 -8.5zM243 150l278 410h8l47 -420l-35 -10h-248q-3 0 -9 1t-13 2.5t-13.5 3.5t-9.5 3q-2 1 -4.5 4.5t-0.5 5.5z" />
    <glyph glyph-name="e" unicode="e" horiz-adv-x="633" 
d="M601 200h-472q-1 0 -5.5 -7.5l-7.5 -12.5q-9 -16 -23.5 -41t-27.5 -49t-22.5 -41.5t-9.5 -18.5l-9 -30h520q5 0 15.5 13t23.5 33.5t26.5 44t25.5 45t19.5 36.5t8.5 18q3 8 2 14t-8 6h-5q-2 0 -9.5 -1.5t-15.5 -3t-15.5 -3t-10.5 -2.5zM177 284l-1 -4q2 -4 10.5 -7
t10.5 -3q3 1 9 5.5t12.5 10t12.5 11t8 8.5h328q1 0 5.5 5.5t7.5 9.5q29 45 55.5 94t40.5 97q3 11 -2.5 15t-13.5 4h-4l-30 -20q-4 -2 -11 -6t-8 -4h-320q-1 0 -5.5 -7.5l-7.5 -12.5q-8 -15 -22.5 -41t-29.5 -55t-27.5 -56t-17.5 -44zM221 605q-3 -13 3.5 -14t13.5 -1h19
q17 0 52.5 0.5t81 2t96 2.5t96 2.5t81 2t52.5 0.5q15 19 31.5 43.5t31 51.5t26 54t18.5 51h-34q-17 -1 -53 -1.5t-81.5 -1.5t-95 -2t-95 -2t-81 -2t-52.5 -1q-6 -3 -13.5 -13t-13.5 -20.5t-10.5 -18.5l-4.5 -8q-4 -8 -13.5 -25t-20 -36.5t-20 -36t-12.5 -22.5z" />
    <glyph glyph-name="FL0066h" unicode="f" horiz-adv-x="609" 
d="M232 721q13 -4 26 -8.5t22 -13t12 -22.5t-3 -36l-185 -645l194 4l99 350l193 30q2 0 9 4t10 6q7 5 17.5 15l21 20t18.5 17.5l8 7.5l9 30h-248l63 221l11 10q1 1 16.5 3.5t37 5.5t43.5 6t37 5h5q5 0 10 0.5t10 0.5h8q5 0 14 -0.5l9 -0.5l51 -100l22 20l49 171
q-62 0 -121 -2.5l-118 -5t-119.5 -4t-124.5 0.5q-5 -3 -16.5 -10t-24 -15t-23.5 -15t-15 -10q-12 -8 -17 -13.5t-8 -16.5q-2 -6 -2 -10z" />
    <glyph glyph-name="FL0067h" unicode="g" horiz-adv-x="682" 
d="M596 393q24 -8 36 -22t2 -50l-45 -163q-27 0 -66 -3t-79.5 -5t-76 0t-54.5 12q35 43 56 73t33.5 52t21 39l17.5 35q2 4 8 17l12 26t10.5 22.5t3.5 6.5q2 7 -1.5 36t-10.5 65.5t-16.5 73.5t-19.5 61q3 1 14 2.5t24 3t24.5 2.5t14.5 1q9 1 37.5 2t63 2t69.5 1.5t58 0.5h28
q9 8 24 23.5t30 33t29 35t22 29.5l1 2t1 3q1 1 1 3v2q1 2 -1 5.5t-4 4.5q-5 -1 -16.5 -3t-25 -3.5t-25 -2.5t-16.5 -1h-187h-153q-18 0 -28 0.5t-17 0.5t-11 0.5t-12 0.5q-2 -2 -6.5 -6t-9.5 -8.5t-9.5 -9l-6.5 -6.5q-11 -11 -27 -26t-31 -29.5t-25.5 -24.5t-10.5 -11
l-6 -20l90 -270l-197 -252q-3 -3 -11.5 -10.5t-10.5 -9.5q-5 -6 -16 -21.5t-24 -33t-24 -33.5t-15 -22q0 -2 -3 -5v-5q1 -2 2.5 -6t2.5 -4l478 -4h14q14 0 28.5 1.5t22.5 6.5q35 8 63.5 19.5t31.5 20.5l109 396h-11q-8 0 -16.5 -0.5t-16.5 -0.5h-12q-21 0 -50.5 -4t-51.5 -6
q-12 3 -17 -6.5t-7 -18.5q-1 -2 -2 -7.5t-1 -7.5z" />
    <glyph glyph-name="h" unicode="h" horiz-adv-x="834" 
d="M93 10l189 660q8 28 2.5 44.5t-15 26t-17.5 16.5t-5 16q2 7 5 16t11 11q12 1 43 3t66 3.5t66.5 2.5t43.5 1h9q8 0 16 0.5t16 0.5h9q-18 -61 -44.5 -122t-44.5 -124l-4 -13q-2 -9 -4.5 -19.5t-5.5 -19.5l-4 -13q1 -15 20.5 -22t44.5 -9t50.5 -1t39.5 1h11q7 0 14.5 0.5
t12.5 0.5h7q9 0 24 1.5t29.5 3t25.5 3t12 2.5l11 10l77 270q1 4 9 9t14 8t7 3q8 2 29.5 6t46 9t46.5 9t30 6l3.5 0.5t5.5 0.5q9 0 14.5 -7t1.5 -18q-25 -88 -54.5 -175.5t-54.5 -175.5l-10 -35q-8 -25 -15 -52.5t-14 -52.5l-10 -35q-1 -3 -2.5 -10t-2.5 -15t-2 -15t0 -10
q0 -2 2.5 -6t5.5 -9t5.5 -9.5t2.5 -5.5q-2 -9 -12.5 -29t-24 -41t-27.5 -38.5t-22 -21.5q-8 -3 -27 -10t-40 -15t-40.5 -15t-26.5 -10q-7 -2 -20 -6t-15 -4q-5 0 -11.5 4t-5.5 6l112 391l-318 -35l-91 -316l-10 -10q-43 -3 -90.5 -15t-89.5 -25z" />
    <glyph glyph-name="i" unicode="i" horiz-adv-x="306" 
d="M244 760q23 -8 37 -25.5t4 -54.5l-196 -684q6 0 23 2t39.5 6t47 8.5t45 9.5t34.5 9.5t15 8.5l222 771h-12q-8 0 -17 -0.5t-17 -0.5h-11q-11 0 -37.5 -1t-56 -2.5t-56 -3.5t-37.5 -3q-11 3 -16.5 -6.5t-8.5 -18.5q-1 -2 -1.5 -7.5t-0.5 -7.5z" />
    <glyph glyph-name="FL006Ah" unicode="j" horiz-adv-x="644" 
d="M580 755q0 2 1 7.5t2 7.5q2 9 7.5 18.5t17.5 6.5q11 1 37.5 3t56 3.5t56 2.5t37.5 1h11q8 0 17 0.5t17 0.5h11l-172 -585q0 -1 -1 -2t-2 -3q-29 -72 -75.5 -115t-99.5 -65.5t-107 -29.5t-98 -7q-26 0 -59 1t-67 3t-65 6t-53 10q-4 1 -11 5t-7 5l55 197q48 -22 80 -40.5
t60.5 -32t60 -21t79.5 -7.5q36 0 62.5 6.5t41.5 23.5l149 520q10 37 -4.5 54.5t-37.5 25.5z" />
    <glyph glyph-name="k" unicode="k" horiz-adv-x="842" 
d="M569 24q19 -14 43.5 -22t51.5 -12.5t55 -5.5t54 -1q4 0 15.5 0.5t16.5 0.5q3 3 9 14.5t8 15.5l1 5l2 5q-2 3 -1.5 10.5t-0.5 9.5l-1 0.5t-3 0.5q-1 0 -2.5 -0.5l-1.5 -0.5q-3 -1 -6.5 -4.5t-4.5 -5.5q-4 6 -12.5 21.5t-17.5 32.5t-16.5 33t-10.5 23q-5 13 -15 40
t-22.5 61t-26 72t-25.5 72.5t-21 62.5t-13 42q-2 2 -3.5 9.5t0.5 10.5q9 21 38 48.5t66.5 56.5t79.5 57t77 50t57.5 36.5t23.5 16.5q5 18 -2 21.5t-24 3.5h-176q-15 -31 -38.5 -63.5t-49 -63t-50 -57t-40.5 -46.5q-18 -22 -38.5 -42.5t-42 -37t-43.5 -26.5t-44 -10
q13 45 24 87t23 83t27.5 82t36.5 84l1 5q3 11 -2 13t-12 2h-14q-13 0 -45 -1t-68 -2.5t-68.5 -3.5t-44.5 -3q-11 3 -17 -7t-9 -19q-3 -11 5.5 -17.5t18 -16t15.5 -25.5t-3 -45l-192 -670q-2 -8 2.5 -9.5t9.5 -1.5q2 0 5 0.5t4 0.5q19 4 48 10.5t56.5 13t47.5 11.5l20 5
l11 10l97 340h32q4 -15 16 -51t26.5 -75.5t27 -75t18.5 -48.5q3 -7 10.5 -23t16.5 -33t17.5 -32.5t12.5 -21.5z" />
    <glyph glyph-name="FL006Ch" unicode="l" horiz-adv-x="634" 
d="M292 658q4 15 15 42.5t25.5 54t31.5 46t34 19.5l11.5 -2.5t27.5 -7.5t35 -11t34.5 -12.5t24.5 -14t7 -13.5l-57 -140l-146 -510l5 -10q1 0 16 -2.5t35.5 -6t42.5 -7t37 -4.5q2 0 8 -0.5t9 -0.5q19 0 37.5 20.5t36.5 45t35.5 45t34.5 20.5q10 0 13 -13.5t1 -34.5t-7.5 -47
t-11.5 -50.5t-12 -45t-9 -30.5q-60 0 -118 6t-118 6h-66q-44 0 -86.5 -2.5t-100.5 -8.5q-22 13 -43.5 32.5t-29.5 47.5q14 21 31 27.5t33 12.5t29.5 17.5t22.5 42.5l129 450q-5 9 -3 18.5t6 20.5z" />
    <glyph glyph-name="m" unicode="m" horiz-adv-x="1018" 
d="M56 -5q0 1 1 2.5t1 2.5q7 16 21 50.5t31 78t36 91.5t36 91.5t30.5 78t19.5 50.5q0 1 3 10.5t6 21.5q4 13 8.5 28t9.5 29l9 31l6 24q4 12 7.5 26.5t7.5 27.5q4 14 7 25.5t5 16.5q0 16 -6 27t-15 19t-19.5 13.5t-19.5 10.5q1 2 1.5 7.5t1.5 7.5q2 7 5.5 15t11.5 10
q24 1 51 4.5t54.5 7t54.5 6.5t51 3q11 0 13.5 -3t7.5 -18l84 -430q0 -2 3 -7.5t6 -11.5t6.5 -12t5.5 -9l1 -0.5t2 -0.5l2 0.5t3 0.5q69 72 130 150.5t119 159.5l68 100q6 9 11 19.5t11 19.5t13.5 15t18.5 6q8 0 11.5 -5.5t12.5 -5.5q16 0 33.5 5t35.5 11.5t36 11.5t35 5
q-5 -19 -16.5 -38t-22.5 -34l-10 -37q-8 -26 -17 -55.5t-17 -56.5l-10 -36l-14 -48q-8 -30 -16 -59.5t-15 -52.5l-7 -25l-17 -60q-12 -40 -22.5 -85t-11.5 -84t12 -67t48 -34q0 -1 -1 -4.5t-1 -5.5q-4 -11 -14 -20.5t-19 -9.5h-248l133 520l-22 -20l-340 -460
q-11 -14 -22 -27t-25 -13h-4q-2 2 -5.5 10t-4.5 10l-89 500l-15 -10l-143 -500l-15 -10q-1 0 -12 -2.5t-26 -5.5t-30.5 -6.5t-25.5 -5.5h-9q-7 0 -10.5 3t-0.5 12z" />
    <glyph glyph-name="n" unicode="n" horiz-adv-x="779" 
d="M364 548q8 -17 25 -51.5t38.5 -78t45 -91.5t45 -91t39 -77.5t25.5 -50.5q2 -5 9 -17.5t16 -26.5t17 -27t12 -19q2 -2 6.5 -5.5t6.5 -4.5q7 -4 22 -9t25 -8t12 -3l10 10l19 64l28 98l33 115l25 88q18 64 33.5 115t24.5 75q20 67 42 124t58 116q1 2 3 7t2 6q-31 0 -64 -6.5
t-63 -16.5q-10 -2 -12 -11.5t-4 -15.5q-16 -54 -29 -106t-26 -103t-26 -103t-28 -106h-6l-253 475l-4 0.5t-6 0.5q-24 0 -50 -3t-52.5 -6.5t-52.5 -7t-49 -4.5q-8 -2 -11 -10t-5 -15q-1 -2 -1.5 -7.5t-1.5 -7.5q25 -14 38 -30t16 -38t-2.5 -51.5t-17.5 -69.5
q-41 -144 -87.5 -278.5t-107.5 -277.5q0 -8 3.5 -9t8.5 -1h9q11 1 28.5 4.5t34 7t28 6l11.5 2.5l152 530h8z" />
    <glyph glyph-name="o" unicode="o" horiz-adv-x="865" 
d="M67 10q-1 2 -1.5 10t-0.5 10v24q0 18 0.5 37t1 36t0.5 23l1 5l2 5l5.5 5.5t5.5 4.5h3q22 0 43 -3.5l42 -7l42 -7t44 -3.5h10q8 0 16 0.5t16 0.5h10q-31 25 -61.5 54t-51 65.5t-26.5 83.5t11 107q19 66 52 118t75.5 92t91.5 67.5t99.5 45.5t100 26t92.5 8q40 0 80 -8
t75 -25.5t63 -44t44.5 -63t18.5 -84.5t-15 -107q-18 -62 -50.5 -111.5t-74.5 -90.5t-90.5 -73.5t-97.5 -59.5q29 -10 55 -10.5t58 -0.5h32q23 0 45 1.5t50 9.5q-1 -2 -1.5 -7.5t-1.5 -7.5q-8 -27 -27.5 -51.5t-44 -43t-50.5 -29.5t-46 -11h-226q1 3 5 14.5t6 15.5
q2 6 8.5 22t14 33.5t14.5 33t10 21.5q42 21 70.5 50.5t48 65.5t32.5 77.5t26 86.5l7 22q5 16 9 33.5t9 32.5l8 28q2 23 3 57.5t-3.5 66t-17 54t-37.5 22.5h-104q-25 0 -53 -21.5t-53 -52.5t-44.5 -65.5t-26.5 -60.5l-62 -216q-10 -35 -4 -65.5t17 -56t20.5 -45t6.5 -31.5
q-1 -4 -3.5 -12t-3.5 -10q-5 -10 -11.5 -25t-13 -29.5t-11.5 -25t-6 -10.5l-27 -10q-2 0 -11.5 -0.5t-23.5 -0.5q-13 0 -26.5 -0.5t-21.5 -0.5q-16 0 -38 -0.5t-46 0.5t-47 3.5t-39 8.5z" />
    <glyph glyph-name="p" unicode="p" horiz-adv-x="690" 
d="M292 680q-6 -19 -17 -59t-24.5 -90.5t-28.5 -106t-28.5 -105.5t-24 -90t-15.5 -59q-6 -23 -14 -58t-17 -74.5t-18 -80t-16 -74t-11.5 -56.5t-5.5 -27l-4 -40l2 -0.5t4 -0.5q26 0 57 14t50 47q7 9 18 29t24 45.5t27 54t26 54t20.5 46.5t11.5 31l188 657q30 0 60.5 -4.5
t53 -19.5t31.5 -43.5t-5 -76.5q-13 -45 -34 -76t-48 -52.5t-59 -36.5t-67 -28q-1 -1 -2 -4.5t-2 -5.5q-5 -14 0 -23t13 -17h8q5 0 12 -0.5t12 -0.5h8q50 0 105.5 14t106 45t91 80.5t61.5 121.5l3 11q3 9 5.5 19l4.5 18l3 12q1 39 -14.5 64.5t-41 41t-55.5 23t-57 11.5h-30
q-21 0 -44 0.5t-44 0.5h-29h-69q-51 0 -99 -1.5t-104 -9.5q-11 1 -15.5 -5t-6.5 -14q-5 -15 4.5 -21.5t20.5 -14t18.5 -21.5t0.5 -44z" />
    <glyph glyph-name="q" unicode="q" horiz-adv-x="978" 
d="M409 0q-2 -22 -9.5 -52.5t-15.5 -62.5t-13.5 -63.5t-4 -56t13 -40t38.5 -15.5h4q5 3 13 10.5t9 9.5l114 260q2 4 33.5 12.5t80.5 27t109 50.5t118 82t107.5 122t77.5 171q18 61 16.5 110t-17.5 88t-45 68t-67 50q-5 2 -13 6l-8 4l-143 19q6 22 14 38.5t15.5 30t14.5 26
t11 26.5q1 4 1.5 29.5t-0.5 55t-3.5 53t-8.5 23.5q-2 0 -4.5 -0.5t-3.5 -0.5q-6 -4 -21.5 -14t-32.5 -21t-32.5 -21t-21.5 -14t-14.5 -10.5t-17 -12.5t-14.5 -11t-6 -6l-45 -171q-72 -18 -147 -42t-142.5 -65.5t-121.5 -107.5t-83 -168q-34 -119 -27.5 -197t44.5 -125
t102.5 -68.5t145.5 -26.5zM342 441q12 43 36 92t56.5 91t71.5 69.5t83 27.5q7 0 16 -3t5 -18l-170 -592q-53 0 -80.5 32t-36.5 81t-2.5 107.5t21.5 112.5zM781 710q2 0 6 0.5t6 0.5q42 0 68 -31t37.5 -77t9.5 -99.5t-15 -98.5q-17 -60 -46.5 -114.5t-68 -95t-84 -64.5
t-94.5 -24l15 53q6 21 19 64t29.5 97.5t34.5 114.5t34.5 114t29.5 97t19 63z" />
    <glyph glyph-name="FL0072h" unicode="r" horiz-adv-x="695" 
d="M409 394q35 0 62.5 -6t45.5 -24t25.5 -50t3.5 -84l-19 -213q26 4 46 0.5t35 -8t27 -6t22.5 6.5t20.5 29t22 61q15 51 15.5 107.5t-11 105.5t-34.5 84t-56 43l3 10q32 16 64 33t60.5 39t51 52t34.5 73q13 45 3 74.5t-32 47.5t-52 27t-58 14h-33q-23 0 -48.5 0.5t-48.5 0.5
h-76q-26 0 -53 -0.5t-47 -0.5h-22q-11 0 -27.5 -1.5t-32 -3t-27.5 -3t-12 -2.5l-16 -30q13 -7 25.5 -14.5t20.5 -18t10 -26.5t-5 -41l-186 -650q-1 -1 7.5 -5t13.5 -5q25 -6 41 -7.5t31 -1t33 2t47 1.5h7zM508 740q2 0 11.5 0.5t12.5 0.5q56 0 78 -37.5t3 -103.5
q-12 -41 -31 -67t-43 -41t-52.5 -22t-58.5 -10z" />
    <glyph glyph-name="FL0073h" unicode="s" horiz-adv-x="638" 
d="M431 358l-173 79q-35 28 -49 82t8 128q13 45 37.5 74.5t54 47.5t61.5 27t59 14h29q21 0 44.5 0.5t44.5 0.5h69q23 0 46.5 -0.5t40.5 -0.5h20q10 0 24.5 -1.5t28 -3t22.5 -3t9 -2.5l-1 -30q-14 -17 -29 -35t-28.5 -33t-24.5 -24.5t-18 -7.5v-1q-14 24 -41.5 38t-55.5 21.5
t-50.5 10t-27.5 2.5q-51 0 -90.5 -37.5t-58.5 -103.5q-8 -27 -8 -44t6 -28t16 -17.5t23 -12.5q22 -9 45.5 -16t44.5 -13t38 -13t28 -16q29 -8 55.5 -18.5t44 -30.5t22.5 -52.5t-10 -83.5q-16 -57 -43 -98t-60.5 -69.5t-71 -46t-76 -27t-75 -12.5t-67.5 -3q-26 0 -58.5 1
t-66.5 3t-65 6t-53 10q-5 1 -12 5t-7 5l49 167q66 -34 104.5 -46t47.5 -12q67 0 112.5 -5.5t76 -2t50.5 24.5t35 75q12 40 9 63.5t-15 36t-31 18t-39 10.5z" />
    <glyph glyph-name="t" unicode="t" horiz-adv-x="700" 
d="M250 12l2 -12q1 0 9 -0.5t13 -0.5q42 0 88.5 6.5t87.5 14.5q8 3 9.5 7.5l3.5 10.5q31 109 57 215t57 215l12 41q8 27 15.5 52.5t13.5 45.5l7 23l22 50h7h16h19q9 0 15.5 1t20.5 1h30q17 0 30.5 -0.5t19.5 -0.5l98 109l5 20h-328h-280h-8q-9 -14 -20.5 -34t-23.5 -42
t-22.5 -45t-15.5 -42q2 0 10 1t10 2q2 0 8.5 3t14.5 7t14.5 7t8.5 3q13 3 30.5 5t35.5 3.5t36 2t32 0.5q7 0 17.5 -0.5t11.5 -0.5l5 -10z" />
    <glyph glyph-name="FL0075h" unicode="u" horiz-adv-x="851" 
d="M235 139q-18 22 -22.5 59t-0.5 82.5t14.5 96.5t21 101.5t20 98t11.5 85.5t-6 63.5t-31 33.5l1 5l2 5q1 2 6 10t7 10q38 6 62.5 8.5t50.5 2.5h38h10q8 0 16 -0.5t16 -0.5h10q13 -17 12.5 -54.5t-9 -87.5t-22 -108.5t-26.5 -117t-23.5 -112.5t-13 -96t6 -67.5t33.5 -26.5
l47 -2q25 0 51.5 21t53 56t52 81.5t49.5 97.5t46 103t41 98.5t34 84t26 60.5q21 25 50 39t60.5 21t60.5 8.5t50 1.5q16 0 10 -21q-3 -9 -10.5 -14.5t-17 -10.5t-19 -10.5t-16.5 -13.5q-5 -5 -14 -19.5t-13 -20.5q-2 -4 -17 -39t-36 -85t-45.5 -107.5t-46.5 -107t-37 -84
t-18 -38.5q-27 -29 -55 -60t-57 -58.5t-60 -49.5t-65 -33q-12 -10 -22.5 -15t-24 -8t-31.5 -4.5t-46 -3.5q-32 7 -56 18t-43 28t-34.5 41t-30.5 56z" />
    <glyph glyph-name="v" unicode="v" horiz-adv-x="785" 
d="M223 662q39 4 66 -11t44 -43t26 -66.5t12 -81.5t2 -88t-3 -86q0 -4 -2 -15t-9 -41t-21.5 -84t-39.5 -144q-2 -6 1 -8t7.5 -3t9 -0.5t5.5 0.5q20 0 43 3t46 7.5t45 10t40 10.5l3 12t3 10q2 7 4.5 18t9.5 34q13 45 24.5 84.5t16.5 55.5q10 33 28.5 76.5t42 90t52.5 91.5
t60 80.5t64 57t65 21.5q17 0 31 -6t31 -6q5 0 11 3.5t8 12.5l2 5q0 7 1 23.5t2 34t2.5 32.5t1.5 20q1 16 -7 24.5t-19.5 12t-25 4t-24.5 0.5q-34 0 -65.5 -15t-60 -40t-54.5 -57.5t-48 -68.5q-7 -11 -18.5 -36t-25 -57t-27.5 -66t-25.5 -62.5t-19 -46.5l-7.5 -18h-16l7 50
q6 40 12.5 86.5t9.5 93t0.5 89t-14.5 75.5t-36 53t-64 20q-19 0 -51.5 -11t-65.5 -29.5t-60 -43t-35 -52.5v-5q0 -2 1.5 -5.5t3.5 -4.5z" />
    <glyph glyph-name="FL0077h" unicode="w" horiz-adv-x="1001" 
d="M442 80q-25 3 -54 6.5t-56.5 10.5t-52.5 19.5t-41 33.5q-18 22 -22.5 59t-0.5 82.5t14.5 96.5t21 101.5t20 98t11.5 85.5t-6 63.5t-31 33.5l1 5l2 5q2 2 6.5 10t6.5 10q38 6 63 8.5t51 2.5h38h10q8 0 15.5 -0.5t15.5 -0.5h10q13 -17 13 -53q0 -35 -7 -82t-19.5 -101.5
t-25 -109.5t-22.5 -106.5t-12.5 -93.5t4.5 -69.5t30 -34.5q2 -1 7.5 0t11.5 2l12 2t8 1l24 83l31 106q16 57 32.5 117t33.5 117l30 106l24 83l4 14q-1 11 22 11q24 0 65 4q26 2 47.5 3t30.5 1q5 0 16.5 0.5t16.5 0.5l-191 -646q33 0 66 33.5t64 86.5t59.5 117.5t53 127.5
t44 116.5t32.5 83.5q21 25 50.5 39t60.5 21t60 8.5t50 1.5q16 0 10 -21q-3 -9 -10.5 -14.5t-17 -10.5t-19 -10.5t-16.5 -13.5q-5 -5 -14.5 -19.5t-12.5 -20.5q-2 -5 -14.5 -35t-30 -73t-38 -92.5t-38.5 -92.5t-31 -73t-16 -34q-32 -56 -68.5 -92.5t-77 -60t-83.5 -36.5
t-87 -21l-7 -40l-10 -10q-23 -2 -46.5 -7.5t-47 -11.5t-47 -10.5t-45.5 -4.5z" />
    <glyph glyph-name="x" unicode="x" horiz-adv-x="793" 
d="M24 1l-11 -40q20 4 44 10.5t48.5 16t47.5 22.5t43 31l261 240l1.5 0.5t2.5 0.5t2.5 -0.5l1.5 -0.5q1 -1 4.5 -8.5t5.5 -11.5l66 -160q7 -17 16 -33t23 -27q32 -24 80 -37t94 -13h3q2 2 7 9.5l7 10.5l1 2l2 4v4l-46 90l-92 327l244 233l49 170q1 2 -2.5 9.5t-7.5 10.5
l-1.5 0.5t-2.5 0.5t-2.5 -0.5l-1.5 -0.5l-310 -292l-70 252l-8 0.5t-13 0.5h-8q-5 0 -11 -0.5t-11 -0.5h-5q-9 -1 -35 -4t-55 -6t-55 -6t-36 -4l-9 -30q11 -8 24 -20.5t18 -29.5q3 -11 10.5 -33.5t16.5 -51t19 -60t19.5 -60t17 -51.5t10.5 -34l7 -30z" />
    <glyph glyph-name="y" unicode="y" horiz-adv-x="1001" 
d="M507 290l-84 -294q22 0 45.5 4.5t47 10.5t47 11.5t46.5 7.5l10 10l72 250q44 8 87 21t83.5 36.5t77 60t68.5 92.5q3 4 11 18t19 34t23 42t22.5 42t18 34.5t9.5 19.5q3 6 12.5 20.5t14.5 19.5q7 8 16.5 13.5t19 10.5t17 10.5t10.5 14.5q6 21 -10 21q-21 0 -50 -1.5
t-60 -8.5t-60.5 -21t-50.5 -39q-13 -30 -28 -68t-32 -77.5t-37 -77t-44 -67t-51.5 -47.5t-60.5 -18l125 436q-5 0 -16.5 -0.5t-16.5 -0.5q-9 0 -30.5 -1t-47.5 -3q-40 -4 -64 -4t-23 -11l-4 -14q-29 -103 -54.5 -201t-54.5 -201q-2 0 -8 -1l-12 -2l-12 -2t-8 0
q-30 9 -39 38.5t-6 71t12.5 89.5t16.5 93.5t7 84.5q0 40 -17 63h-10q-8 0 -15.5 0.5t-15.5 0.5h-10h-38q-26 0 -51 -2.5t-63 -8.5q-2 -2 -6.5 -10t-6.5 -10l-2 -5l-1 -5q30 -10 39.5 -36t8 -61.5t-9 -77.5t-11 -84t1.5 -81.5t29 -69.5q16 -21 40.5 -33.5t52.5 -19.5
t56.5 -10.5t54.5 -6.5z" />
    <glyph glyph-name="z" unicode="z" horiz-adv-x="699" 
d="M30 20l548 656q2 2 7 10t7 10q0 2 -0.5 3.5t-0.5 2.5q-34 0 -76 5.5t-87 3.5t-90 -17.5t-84 -57.5h-27q4 15 18.5 43.5t30 56.5t28.5 49t15 21h560l-8 -30l-519 -636q7 -5 18 -8.5t23 -6t23 -4t18 -1.5q13 0 42.5 -0.5t65.5 -1.5t72 -1.5t62 -0.5h32q-8 -27 -32.5 -48.5
t-54.5 -36.5t-60 -23t-49 -8h-480z" />
    <glyph glyph-name="FL007Bh" unicode="{" horiz-adv-x="505" 
d="M432 726q17 17 35 33t38 27q47 24 102.5 37t101.5 13h3q1 -2 1 -10q0 -7 1 -10v-2t-1 -4q0 -1 -1 -2.5l-1 -1.5l-98 -90l-279 -327l111 -233l-49 -170q-1 -2 -9 -9.5t-13 -10.5l-1.5 -0.5t-2.5 -0.5t-2.5 0.5l-1.5 0.5l-142 292l-78 168z" />
    <glyph glyph-name="FL007Ch" unicode="|" horiz-adv-x="210" 
d="M362 810l-110 -15l-229 -797q8 0 36 4.5t58 11t54 13.5t26 13l222 771h-11q-8 0 -17 -0.5t-17 -0.5h-12z" />
    <glyph glyph-name="FL007Dh" unicode="}" horiz-adv-x="505" 
d="M489 726q-7 17 -16 33t-23 27q-15 12 -36 21.5t-44 15.5t-47.5 9.5t-46.5 3.5h-3q-3 -2 -7.5 -9.5t-6.5 -10.5l-1 -2l-2 -4v-4l46 -90l92 -327l-244 -233l-49 -170q-1 -2 2.5 -9.5t7.5 -10.5l1.5 -0.5t2.5 -0.5t2.5 0.5l1.5 0.5l309 292l175 168z" />
    <glyph glyph-name="FL007Eh" unicode="~" horiz-adv-x="435" 
d="M100 266l-1 -4q2 -4 10.5 -7t10.5 -3q3 1 11.5 11.5t18.5 23.5t18.5 24.5t10.5 14.5h278q2 1 6.5 6.5t6.5 9.5q29 45 53 89.5t38 92.5q4 11 -1.5 15t-13.5 4h-4l-46 -60q-3 -2 -10 -6t-8 -4h-270q-2 -1 -6.5 -8.5l-7.5 -12.5q-8 -15 -22 -39.5t-28.5 -51.5t-26.5 -52.5
t-17 -42.5z" />
    <glyph glyph-name="FL007Fh" horiz-adv-x="205" 
 />
    <glyph glyph-name="FL00A1h" unicode="&#xa1;" horiz-adv-x="198" 
d="M172 12l-88 -10h-11q-8 0 -17.5 -0.5t-17.5 -0.5h-11l152 525q1 4 13 9.5t29.5 11t37.5 10.5t36.5 6.5t26.5 -0.5t8 -9zM220 652q-7 0 -6 7.5t3 12.5l9 32q8 26 18.5 54.5t24.5 48.5q19 2 34 2.5t30 0.5t32 -0.5t41 -0.5l-6 -21l-5 -16q-3 -11 -8 -26.5t-11 -31
t-12.5 -29.5t-11.5 -22q-2 -2 -5.5 -6t-5.5 -4z" />
    <glyph glyph-name="FL00A2h" unicode="&#xa2;" horiz-adv-x="689" 
d="M663 799l-111 -15l-41 -142q-57 -7 -109 -21t-103 -43q-62 -35 -105.5 -87t-64.5 -124q-15 -54 -2.5 -94.5t46 -67.5t84 -42t112.5 -18l-46 -158q8 0 36 4.5t58.5 11t54.5 13.5t26 13l33 115h148l22 71q-44 -2 -80.5 -3.5t-70.5 -3.5l107 375l64 -37l70 5q44 41 48 57
q4 11 -1 19t-15 19h-148l44 154h-12q-8 0 -16.5 -0.5t-16.5 -0.5h-11zM378 208l8 -3l-2 -5l-17 11q4 0 4 -1l-6 3q-22 13 -30.5 32.5t-8.5 42.5q0 24 6 51t14 54q8 28 19.5 57.5t28.5 56.5t42 48.5t60 32.5l-110 -382q-1 1 -5 1q-3 0 -3 1zM378 208l-7 2q-3 0 7 -2z" />
    <glyph glyph-name="FL00A3h" unicode="&#xa3;" horiz-adv-x="732" 
d="M100 266q5 17 17 41.5t26 50t27.5 49t21.5 38.5l7.5 12.5t5.5 7.5h156l99 345l192 -4l-101 -350l175 -30q2 0 7 -4t6 -6q4 -5 9.5 -15t10 -20t8 -17.5l3.5 -7.5l-9 -30h-248l-60 -210l5 -10q1 -1 15 -3.5t33.5 -5.5t40 -6t34.5 -5h5q5 0 10 -0.5t10 -0.5h8q5 0 14 0.5
l9 0.5l108 100l11 -20l-49 -171q-62 0 -119.5 2.5t-115.5 5t-117.5 4t-124.5 -0.5q-3 3 -10.5 10t-15.5 15l-15 15t-9 10q-8 8 -10 13.5t2 16.5q1 2 2 5.5t2 4.5q15 4 30.5 8.5t29.5 13t25 22t17 36.5l32 111h-148q-2 -3 -8 -8.5t-12.5 -11t-12.5 -10t-9 -5.5q-2 0 -10.5 3
t-10.5 7z" />
    <glyph glyph-name="FL00A4h" unicode="&#xa4;" horiz-adv-x="793" 
d="M307 402q14 48 32 85.5t41 66.5q-9 25 -17.5 51t-15 48.5t-12 40.5t-8.5 27q-5 17 -18 29.5t-24 20.5l9 30q10 1 36 4t55 6t55 6t35 4h5q5 0 11 0.5t11 0.5h8q5 0 13 -0.5l8 -0.5l42 -154q5 1 9.5 1.5t8.5 0.5h18q43 0 78 -20l224 212l1.5 0.5t2.5 0.5t2.5 -0.5l1.5 -0.5
q4 -3 7.5 -10.5t2.5 -9.5l-49 -170l-135 -129q3 -45 -14 -105q-11 -38 -25.5 -71.5t-31.5 -63.5l54 -191l46 -90v-4l-2 -4l-1 -2l-7 -10.5t-7 -9.5h-3q-46 0 -94 13t-80 37q-14 11 -23 27t-16 33l-28 64q-38 -13 -83 -13q-55 0 -89 23l-145 -134q-20 -18 -43 -31
t-47.5 -22.5t-48.5 -16t-44 -10.5l11 40l266 265q-6 54 17 136zM421 413q-20 -69 -3.5 -100t57.5 -31q46 0 85 35.5t62 114.5q9 31 8 54.5t-9 38.5t-21.5 22.5t-30.5 7.5q-45 0 -85 -32t-63 -110z" />
    <glyph glyph-name="FL00A5h" unicode="&#xa5;" horiz-adv-x="785" 
d="M200 263l-1 -4q2 -4 10.5 -7t10.5 -3q3 1 9 5.5t12.5 10t12.5 11t8 8.5l117 1l-24 -84l-132 -1q-1 0 -5.5 -7.5l-7.5 -12.5q-17 -30 -39.5 -62.5t-32.5 -66.5l-2 -4q2 -4 11 -7t11 -3q3 1 8.5 5.5t12.5 10t12.5 11l8.5 8.5l118 1l-23 -80q-2 -6 1.5 -8t8 -3t9 -0.5
t5.5 0.5q41 0 89 10.5t85 20.5l7 25q2 8 4 17t5 19l122 1q1 0 4.5 5.5t7.5 9.5q14 22 24 35t18 25t14.5 26t13.5 38q4 11 -1.5 15t-13.5 4h-4l-30 -20q-4 -2 -11 -6t-8 -4l-99 -1q7 25 13.5 46t11.5 38l121 1q1 0 5.5 5.5t7.5 9.5q14 22 24 35t18.5 25t15 26t13.5 38
q3 11 -2 15t-13 4h-4l-30 -20q-4 -2 -11 -6t-8 -4l-88 -1q21 45 49 89t60.5 79t68.5 57t73 22q17 0 30.5 -6t30.5 -6q5 0 11 3.5t9 12.5l1 5q0 7 1 23.5t2.5 34t2.5 32.5t2 20q0 16 -7.5 24.5t-19.5 12t-25.5 4t-24.5 0.5q-34 0 -65 -15t-59.5 -40t-54.5 -57.5t-48 -68.5
q-11 -16 -25.5 -44t-29 -55t-25 -47t-11.5 -20h-16l6 50q9 60 13.5 114t-6 94.5t-41 64.5t-90.5 24q-19 0 -51.5 -11t-65.5 -29.5t-60 -43t-35 -52.5v-5q0 -2 1.5 -5.5t3.5 -4.5q60 6 96.5 -10t56.5 -50t25 -84t2 -112l-1 -1l-119 -1q-1 0 -5.5 -7.5t-8.5 -12.5
q-16 -30 -38.5 -62.5t-32.5 -66.5z" />
    <glyph glyph-name="FL00A6h" unicode="&#xa6;" horiz-adv-x="212" 
d="M378 857l-111 -15l-263 -911q8 0 36 4.5t58 11t54 13.5t26 13l256 885h-11q-8 0 -17 -0.5t-17 -0.5h-11z" />
    <glyph glyph-name="FL00A7h" unicode="&#xa7;" horiz-adv-x="712" 
d="M307 402q14 48 32 85.5t41 66.5q34 37 67.5 59t64 34t55.5 16t42 6q43 0 78 -20l224 212l1.5 0.5t2.5 0.5t2.5 -0.5l1.5 -0.5q4 -3 7.5 -10.5t2.5 -9.5l-49 -170l-135 -129q3 -45 -14 -105q-11 -38 -25.5 -71.5t-31.5 -63.5q-30 -49 -73 -82.5t-88 -54.5q-38 -13 -83 -13
q-55 0 -89 23l-145 -134q-20 -18 -43 -31t-47.5 -22.5t-48.5 -16t-44 -10.5l11 40l266 265q-6 54 17 136zM421 413q-20 -69 -3.5 -100t57.5 -31q46 0 85 35.5t62 114.5q9 31 8 54.5t-9 38.5t-21.5 22.5t-30.5 7.5q-45 0 -85 -32t-63 -110z" />
    <glyph glyph-name="FL00A8h" unicode="&#xa8;" horiz-adv-x="392" 
d="M399 812q6 0 5 -7.5t-3 -12.5l-9 -32q-8 -26 -18 -54.5t-25 -48.5q-19 -2 -33.5 -2.5t-29.5 -0.5t-32.5 0.5t-41.5 0.5l6 21l4 16q3 11 8 26.5t11 31t13 29.5t13 22q2 2 5.5 6t5.5 4zM592 813q7 0 6 -7.5t-3 -12.5l-9 -32q-8 -26 -18.5 -54.5t-24.5 -48.5
q-19 -2 -34 -2.5t-30 -0.5t-32 0.5t-41 0.5l6 21l5 16q3 11 8 26.5t10.5 31t12 29.5t12.5 22q2 2 5.5 6t5.5 4z" />
    <glyph glyph-name="FL00A9h" unicode="&#xa9;" horiz-adv-x="1869" 
d="M192 272l64 222q1 4 23 16t51.5 26.5t59.5 28t48 21.5l-35 -123zM1482 743l-201 -701h84l201 701h-84zM518 294q-2 -10 5.5 -19.5t11.5 -13.5l2 -2q9 -7 31 -26.5t50 -44.5t58 -51.5t55 -48.5q14 -12 24.5 -21.5t17.5 -16.5l4 -3h-1q4 -3 8 -5t15 -2l35 121l-6 11
q-32 23 -67.5 52t-64.5 61l7 6l-2 -1l187 121l18 17q-8 4 -13.5 8t-10.5 8q-5 3 -8 9q-8 6 -28.5 22.5t-41.5 33.5q-12 8 -21 14.5t-15 11.5q6 3 9 5t5 3q10 6 36 22t55.5 33.5t55.5 33.5t37 22l13 12l35 123l-389 -222l-1.5 -1t-3.5 -2q-6 -4 -14.5 -10t-19.5 -19l8 -13
q4 -2 10 -8t13 -14q16 -12 30.5 -25t19.5 -18q9 -8 19 -19t16 -24l-177 -109q-5 -6 -5.5 -7.5t-1.5 -3.5zM1500 189l-1 -11q6 -9 21 -32t32.5 -49t33.5 -49t22 -32q2 -1 3.5 -4t3.5 -5l-1 1q2 -2 6.5 -5.5t6.5 -5.5l346 448h-266q1 1 1.5 2l0.5 1q6 8 22 28.5t34.5 43.5
t35 44t23.5 30q3 1 3 3q5 -5 11 -12.5t14 -15.5l10 -12t7 -8q1 -1 3 -2t3 -2h-1q2 -2 7.5 -3.5l5.5 -1.5l11 12l56 62q-3 7 -13 24t-20.5 36t-20.5 35.5t-13 22.5q-2 2 -11.5 13t-16.5 17q-1 1 -3 2t-4 3q-1 2 -2.5 2.5t-8.5 0.5l-337 -450h262l-107 -141l-5 -7.5t-4 -4.5
q-7 0 -14 11.5t-15 25.5q-8 16 -17 30t-22 20q-3 -2 -10.5 -8t-16.5 -13.5t-18.5 -14.5t-15.5 -11q-3 -2 -6.5 -4.5l-3.5 -2.5l-5.5 -5.5zM1067 750l-204 -711q13 4 21 8l14 7l10 4q13 5 37.5 17.5t55.5 28.5q35 18 74 37.5t74.5 37.5t64 32.5t42.5 21.5l-2 -1q2 2 7 6t7 7
q4 6 4 7q1 1 1 2v10l-30 221q-29 -11 -60 -27t-54 -28q-1 -4 -1 -13t2 -13l-1 1l16 -84q1 -6 5.5 -17t7.5 -11l-10 -8l-138 -68l114 396l197 -38h8q3 2 8.5 7.5t7.5 8.5q4 6 10.5 20t14.5 30q7 14 11.5 24t7.5 16l5 16q-5 2 -17 6.5t-16 4.5q-17 3 -41 6.5t-50.5 7.5l-53 8
t-48.5 8q-32 5 -52.5 8.5t-22.5 3.5h-26zM187 567l-149 -518h85l5 16q3 12 8.5 28t9.5 23q2 1 2.5 2t2.5 3l-2 -1q10 8 25.5 22.5t24.5 22.5v-1q7 7 27 23t43.5 35l47 38t39.5 32l-68 -235h94l207 719z" />
    <glyph glyph-name="FL00AAh" unicode="&#xaa;" horiz-adv-x="445" 
d="M158 468l-4 -15q0 -1 8.5 -3t13.5 -2h3q2 0 5.5 -0.5t5.5 -0.5h5q2 0 7.5 0.5l5.5 0.5l6 5l55 80q7 10 21.5 15.5t31.5 8.5t34 4t29 2l22 2q11 1 13 -16.5t1.5 -38.5t-2 -39t2.5 -18h124l5 5l2 2q2 6 -2.5 8t-6.5 5q-10 14 -15.5 34.5t-7.5 40.5l-27 310q0 5 -6 5
q-9 0 -21 -5.5t-20 -9.5q-12 -6 -20.5 -14.5t-15 -18.5t-12.5 -22t-15 -25l-55 -80q-41 -57 -82.5 -113t-88.5 -107zM326 620l1 3l73 106l3 -6l7 -110h-82l-1.5 1.5t-1.5 3.5z" />
    <glyph glyph-name="FL00ABh" unicode="&#xab;" horiz-adv-x="384" 
d="M289 304q-2 -8 2 -9t9 -1q7 -14 21.5 -35.5t29.5 -41.5t27 -34.5l12 -14.5h17q9 30 15.5 51.5t12.5 40.5l4 14l3 11l3 11l2 7q2 6 2 11q-3 2 -10.5 9.5t-15.5 18l-16 21t-12 18.5q8 7 22 17.5t27.5 20.5t25 18.5t15.5 10.5q2 3 2.5 5.5t1.5 4.5l3 8l3 12q2 5 2.5 10.5
t2.5 14.5q5 19 11 40.5t15 51.5h-17q-1 0 -21 -14.5t-46.5 -35t-53.5 -42t-40 -35.5q-8 -2 -11 -9q-3 -2 -3 -3zM111 302q-3 -8 1.5 -9t9.5 -1q6 -14 21 -35.5t30 -41.5t26.5 -34.5t12.5 -14.5h17q8 30 15 51.5t12 40.5l4 14l3 11l3 11l2 7q2 6 2 11q-3 2 -10 9.5t-15.5 18
t-16 21t-11.5 18.5q8 7 21.5 17.5t27.5 20.5t25 18.5t15 10.5q2 4 4 10l2 8l3 12q2 5 3 10.5t4 14.5q5 19 11 40.5t14 51.5h-17q-1 0 -21 -14.5t-46.5 -35t-53.5 -42t-40 -35.5q-9 -2 -12 -9q0 -1 -1 -1.5t-1 -1.5z" />
    <glyph glyph-name="braceleft" unicode="&#xac;" horiz-adv-x="573" 
d="M136 199q2 5 6 16t6 19l3 9q11 39 12.5 76.5t1 74.5t2 75t15.5 78q11 45 34.5 89t55 81.5t68.5 65.5t75 40q18 6 39.5 9.5t43.5 11.5h118l22 -14q-13 -8 -24.5 -22.5t-21 -31.5t-18 -33.5t-14.5 -28.5q-48 1 -97 -11t-91.5 -40.5t-77 -75t-53.5 -114.5q-8 -26 -11 -51
l-6 -50t-6.5 -50.5t-10.5 -51.5q-6 -23 -18.5 -46t-28.5 -43.5t-35 -35.5t-40 -21l1 4q1 0 6 8t11.5 18t12.5 19.5t9 11.5q2 2 5.5 7.5t5.5 6.5zM360 92q-17 0 -35 -7t-36 -16t-35.5 -19t-34.5 -16q18 30 26 51t16 48q9 32 13 61.5t7 58.5t6.5 58t12.5 60q12 41 31.5 76.5
t44.5 61.5t55 41t62 15q17 0 35 -7.5t28 -21.5q6 -10 14 -31.5t16.5 -49t16.5 -58t13 -59t7 -52t-2 -36.5q-27 0 -39 17t-18.5 37t-13 37t-24.5 17h-7q-7 0 -14.5 -2t-9.5 -9q0 -9 6 -13t13 -7.5t12.5 -9.5t5.5 -19q-5 -21 -10.5 -47t-10 -54.5t-6 -58t3.5 -56.5
q5 -12 10 -34t0 -42q-34 0 -61 9t-50 29q-2 0 -7.5 5t-11.5 12t-11 13t-7 8l-5 9zM236 339l1 2q1 4 7.5 7t8.5 3q-10 0 -13 13t2 24q2 2 7.5 5t10.5 4q3 0 11 0.5t13 0.5h6q-3 -10 -7.5 -19t-12.5 -19q14 4 12.5 -5t-3.5 -16q-6 -23 -21 -42.5t-26 -45.5q-1 20 -1.5 43.5
t5.5 44.5zM256 449q11 0 23 4.5t23 9.5h-43l2 8q3 10 5.5 15t7.5 16q5 7 6.5 11t2.5 7q8 -6 11 -7.5t5 -1.5t5.5 1t11.5 1l2 7l-22 17l32 43l1.5 0.5t2.5 0.5l3 -1l20 -26l2 -2q1 0 2 1t3 1l-15 43l37 34q1 0 3.5 -3t0.5 -6q1 -2 1.5 -10t1.5 -18.5t1 -19.5t-1 -12l-1 -3
q-2 -9 -5 -11t-7 -2q-5 0 -8.5 0.5t-6.5 0.5q-8 -27 -18.5 -51t-25 -43t-33 -31t-42.5 -15zM415 645q3 10 12 14t13 4h5q-1 -18 -3.5 -31t-7.5 -30q-2 -7 -5.5 -20t-11.5 -13q-3 0 -3.5 0.5l-0.5 0.5q1 2 0.5 9.5t-1 15.5t-0.5 15v9q1 6 1 16t2 10zM461 652l7 26
q21 8 31.5 9t25.5 1h19q-11 -10 -24.5 -28.5t-27.5 -37t-26 -31.5t-19 -11q2 22 5 36.5t9 35.5z" />
    <glyph glyph-name="FL00ADh" unicode="&#xad;" horiz-adv-x="370" 
d="M101 269l-1 -4q2 -4 10.5 -7t10.5 -3q3 1 9 5.5t12.5 10t12.5 11t8 8.5l218 -1l12 15q29 45 52.5 85.5t37.5 88.5q3 11 -1.5 15t-12.5 4h-4l-30 -20q-4 -2 -11.5 -6l-7.5 -4l-210 1q-1 0 -6 -7.5t-8 -12.5q-8 -15 -21.5 -38.5t-27 -49t-25.5 -50t-17 -41.5z" />
    <glyph glyph-name="FL00AEh" unicode="&#xae;" horiz-adv-x="1874" 
d="M1827 589q-5 -5 -6 -5q3 2 6 5zM215 298l56 194q1 3 19 12.5t42.5 21t51.5 23.5t47 20l-30 -104zM1471 744l-201 -703h99l201 703h-99zM516 297q-4 -13 3.5 -23.5t12.5 -15.5q3 -5 5 -5q9 -8 31 -27t49.5 -42.5t57.5 -49t54 -46.5q27 -24 42 -39l4 -2h-1q3 -4 9 -6t25 -2
l38 131l-9 16q-30 20 -63.5 46t-61.5 55l176 114l35 31q-23 11 -29 17l-7.5 6t-3.5 3q-8 6 -29.5 23.5t-42.5 33.5q-6 5 -12.5 9t-11.5 9q15 9 41.5 24.5t54 32t52 31t34.5 20.5l16 14l40 140l-402 -226q0 2 -2 0q-6 -5 -15 -11.5t-27 -26.5l12 -21q3 -2 9.5 -7.5
t14.5 -12.5q14 -12 29 -25t20 -18l-1 1q8 -7 16 -15t14 -17l-169 -104q-5 -7 -5.5 -8.5t-2.5 -6.5zM1492 199l-3 -23q6 -9 21.5 -32t33 -49t33 -48.5t21.5 -31.5q2 -1 3.5 -2.5t4.5 -3.5l-1 1q2 -4 7.5 -8.5t10.5 -7.5l357 459h-264q9 11 22.5 28t28 35t28 34.5t23.5 27.5
q3 -4 8.5 -10t10.5 -11q5 -6 11 -12l8 -8q0 1 6 -5l-1 1q4 -2 11 -4l7 -2q9 8 10.5 10t4.5 5l62 68q-4 6 -14 23.5t-21.5 37.5t-22 37.5t-14.5 23.5l1 -1q0 1 -3.5 4.5l-8 8t-9.5 9t-8 7.5q-4 6 -7 7q-2 3 -4.5 3.5t-13.5 0.5l-347 -459h259l-97 -128q-2 -2 1 -2
q-5 1 -10.5 10.5t-11.5 22.5q-8 16 -18.5 30t-28.5 21q-3 -2 -14.5 -10.5t-23.5 -18t-22 -17l-10 -7.5q-4 -2 -8.5 -6.5zM1060 751l-205 -715q25 8 33.5 10.5t13.5 6.5l-1 -1q4 2 7.5 3.5l3.5 1.5h-1q13 6 38 18t56 28q34 17 72.5 36t73.5 36.5l63 31.5t41 21l-4 -1
q5 2 12.5 8t9.5 9q3 4 3.5 5t2.5 6q1 3 1 4v8l-32 227q-35 -13 -69 -30t-56 -29q-2 -5 -3 -18.5t0 -18.5l1 2l15 -82q1 -3 8.5 -8t12.5 -5l-11 -10l-123 -58l103 359l188 -35h12q5 2 11.5 9t8.5 9q3 6 10 22t15 31q7 13 12.5 25t8.5 17l7 22q-7 2 -19.5 7t-18.5 7
q-17 2 -40.5 5.5t-49.5 8t-52.5 8.5t-50.5 7h1q-32 5 -53 8.5t-23 3.5h-33zM187 569l-149 -521h100l7 25q3 10 8 24t9 22q3 3 3 4l-1 -2q8 8 23 21.5t24 21.5l-1 -1q7 6 23 19t36 28.5t41 32.5t39 31l-63 -219h108l208 727z" />
    <glyph glyph-name="FL00AFh" unicode="&#xaf;" horiz-adv-x="426" 
d="M215 665l-1 -4q2 -4 10.5 -7t10.5 -3q3 1 9 5.5t12.5 10t12 11l8.5 8.5l278 1q1 0 5.5 5.5t6.5 9.5q14 22 24.5 34.5t18.5 23.5t14.5 25t13.5 38q3 11 -2.5 15t-13.5 4h-4l-29 -20q-4 -2 -11 -6t-8 -4l-271 -1l-5 -7.5t-9 -12.5q-17 -30 -38.5 -61t-31.5 -65z" />
    <glyph glyph-name="FL00B0h" unicode="&#xb0;" horiz-adv-x="852" 
d="M422 56q1 -5 2 -18.5t3 -17.5q0 -4 -1 -10.5t3 -9.5l35 52l2 8q-1 11 -0.5 26.5t4.5 29.5q3 8 8 8q3 0 3.5 -6.5t-0.5 -15.5t-1 -17t3 -11q3 0 5 2l19 22l3 3v1l1 1l-10 33l1 3q1 7 10 7h1l20 -27l1 -1q2 0 6 3t7 5q2 1 10 3.5t11 4.5l1 2l-5.5 4t-7.5 6l-11 5l-12 10
l90 64l5 4q-5 6 -8 6h-1q-1 -1 -5.5 -4t-5.5 -4l-135 -91l-4 -1h-2q-2 0 -5 4l-95 96h-2l-9 -6l2 -4q14 -18 27 -32t30 -29l1 -3q-5 -5 -14.5 -9t-13.5 -6t-11.5 -6l-7.5 -4l-1 -2q2 -2 7.5 -4.5t7.5 -3.5q2 -2 4.5 -5t4.5 -3l1 1q3 2 10 7l14 10q4 4 7.5 7t5.5 3h1h1l2 -2
t2 -3v-2q-3 -11 -14 -18t-14 -18l-1 -2q2 -3 4 -12t4 -11v-4v-1q1 0 1.5 0.5l0.5 0.5q2 2 7.5 10.5t11 17.5t10 16.5t5.5 7.5h1q0 -2 5 -2q-8 -18 -16 -35t-19 -33zM410 124q-3 0 -3 -3q-2 -2 1 -2q1 0 3 2q0 3 -1 3zM271 183q-5 -16 -14 -23.5t-11 -11.5q13 0 21.5 12.5
t12.5 25.5l2 6q3 14 4 31.5t3 28.5v10q-2 23 -1 43.5t9 46.5l5 17q4 13 9.5 25.5t13.5 23.5l-1 -4q-5 -16 -12 -31t-12 -32q-6 -19 -8.5 -39.5t0.5 -38t12 -28.5t27 -11h2q2 0 2.5 0.5t2.5 0.5h2q-2 0 -2 2q-2 0 -10 3t-8 5q-22 14 -23.5 44t8.5 62q5 17 11.5 34.5
t17.5 32.5q11 4 24 10.5t18 20.5l2 7q-7 -13 -21.5 -21t-23.5 -8t-16 5t-3 17q2 7 6 13.5t11 6.5q3 0 7 -4t2 -9l-1 -2q0 -1 -2.5 -4.5l-2.5 -3.5q0 -2 2 -2q2 1 6.5 8.5t9 17t8 18t4.5 11.5l1 3l4 14l2 6q3 11 4.5 21t5.5 21l1 3q3 -11 -1.5 -26t-8.5 -27
q-5 -19 -12.5 -36.5t-18.5 -33.5q1 0 3 -0.5t3 -0.5q10 0 19.5 8.5t17 20.5t12.5 25.5t8 22.5t5 21t2 23t-3 20.5t-10 13.5h-1q-5 0 -11.5 -6t-6.5 -12q-5 2 -2 9q1 7 15 14q-1 5 -8.5 5.5t-9.5 1.5q3 5 7 5h9q5 0 8.5 -4t9.5 -4h1q-2 26 -14 44.5t-35 18.5q-8 0 -18.5 -5
t-13.5 -16l-1 -4q0 -1 -0.5 -1.5l-0.5 -0.5q9 10 17 10q13 0 8 -19q-3 -9 -10 -14.5t-14 -5.5q-11 0 -17 10.5t-2 24.5q6 22 22 32.5t33 14.5l1 4q-12 32 -14.5 72t9.5 82q4 14 9.5 27t9.5 26l1 3q-14 -18 -23 -38t-14 -40q-4 -13 -6 -24.5t-5 -24.5l-2 -7q-1 22 3 45.5
t11 46.5q4 14 7 23t11 26h-1q-3 0 -7 -6t-8.5 -13.5t-8 -15t-4.5 -10.5l-1 -4q-2 -5 -2.5 -8.5t-2.5 -8.5l-2 -8q-5 -19 -7.5 -36.5t-7.5 -37.5l-1 -3q-6 8 -6.5 23.5t1.5 33t5.5 34t6.5 26.5q-5 0 -8.5 -8t-5.5 -16l-2 -8q-8 -26 -8 -52q0 -25 2 -48l-1 -3q-10 16 -11 38
t-1 43l-2 3q-1 -2 -2.5 -5.5t-1.5 -4.5q-5 -15 -5 -28t1.5 -25t3.5 -23.5t3 -24.5h-2q-1 0 -4.5 6.5t-4.5 10.5q-2 4 -4 11.5t-3.5 14.5t-3.5 12.5t-5 5.5q-8 -26 -6.5 -46t10.5 -40l-1 -0.5t-2 -0.5v1q-1 1 -4.5 3.5t-2.5 4.5q-2 1 -6 5.5t-6 5.5h-3q-3 -11 0.5 -18.5
t1.5 -17.5q-2 0 -4.5 0.5t-4.5 0.5q-1 0 -1 -1v0q-2 -6 6 -19t11 -17l-4 -4h-20q0 -8 4.5 -12.5t10.5 -6.5l-1 -3q-2 -1 -8 -4.5t-7 -6.5l-1 -1l3 -2l13 -15l2 -3q-4 -2 -8 -3.5t-6 -3.5l2 -6l21 -15l-18 -4l-2 -4l4 -2t7 -3l15 -5q-5 -2 -12.5 -6t-12.5 -9v-1q-2 -6 4 -7
t7 -2q2 -1 7.5 -1.5t7.5 -0.5q-3 -2 -11 -6t-13 -9l-1 -2v-1q0 -1 1 -2.5l1 -1.5h36q-8 -7 -17 -14t-13 -19q8 0 18.5 4.5t18.5 7.5h1h1l-30 -28q-1 -1 -3 -3.5t-3 -3.5l-0.5 -0.5t-0.5 -1.5v-1h1q-1 -1 1.5 -2t3.5 -1q2 1 9.5 3.5t10.5 4.5h1h1q-5 -4 -12 -11.5t-9 -12.5
v-2q-1 -1 1 -1h2q5 1 11 5t10 4h2q-7 -8 -13.5 -16t-9.5 -19q7 0 14.5 4t13.5 8q-1 -2 -4.5 -7.5t-6.5 -10.5q-2 -3 -2.5 -4t-2.5 -4q-2 -2 -2 -3v-1q-2 -3 3 -3t11 5t12 8q-5 -7 -7 -13.5t-4 -14.5h4q8 11 21 21l-3 -10q-8 -25 -16 -46t-15 -50q-3 -13 -14 -13
q-3 0 -4.5 0.5t-1.5 5.5q-1 1 0.5 1.5l1.5 0.5h7l2 8h-4q-5 0 -7.5 -1t-4.5 -7q-4 -16 10 -16q5 0 9.5 4.5t9.5 4.5q9 0 6.5 -11.5t-4.5 -18.5q-3 -11 -9 -21t-18 -10q-5 0 -8.5 2.5t-1.5 10.5q5 18 18 18q6 0 3 -6q0 -2 -2 -5t-3 -6q3 0 6.5 3.5t4.5 7.5q3 8 -0.5 10.5
t-8.5 2.5q-9 0 -15 -7.5t-9 -18.5q-4 -11 2.5 -15t14.5 -4q11 0 19 10.5t12 22.5q7 26 5 50t3 50h3q-4 -17 -4 -33t1 -32.5t0.5 -33t-5.5 -33.5zM679 185q-4 -12 -3 -24t13 -12h2q-5 8 -7.5 14.5t0.5 18.5q5 18 14.5 35.5t20 35t21 34.5t16.5 35l-2 -9q-8 -26 -23.5 -49
t-22.5 -49q-5 -14 -2 -23.5t14 -9.5q8 0 16 4t12 15q2 10 0.5 18t-10.5 8q-5 0 -9.5 -2.5t-7.5 -10.5q-2 -5 -1 -7t4 -4l4 14q1 0 4 1.5t5 1.5q2 -2 4 -6.5t2 -6.5v-5q-2 -7 -8.5 -10t-11.5 -3q-11 0 -11 11t4 22q2 5 6.5 16.5t11.5 11.5q5 0 7.5 -4.5t9.5 -4.5q5 0 11 5
t7 14q0 5 -5 5h-2h-4q-2 0 -5 -3q0 -2 -1 -3v-2h8v-2q0 -1 -2 -3q0 -3 -4 -3h-4q-5 0 -6 8l3 13l6 18l5 20l4 12q0 1 1 6t2 11t2 11.5t1 6.5l2 7l2 6l10 -21h5q2 8 2 14t2 12l1 2q3 -5 6.5 -9t10.5 -4q2 8 0.5 14t0.5 14q7 0 10 -3t10 -3q3 9 1.5 17.5t-3.5 14.5l1 2
q1 -2 6 -5.5t9 -3.5q5 0 5 4q2 5 -1 13t-5 10h1q7 0 11 -3.5t11 -3.5l2 7l-17 33h1q9 0 15 -5.5t14 -5.5q5 0 6 4v1q0 2 1 3q-3 2 -7 12t-5 12h34q1 0 2.5 1.5t3.5 2.5v1q1 3 -1.5 5t-4.5 4q-2 1 -6 3.5t-6 4.5l29 5q3 0 5 5q2 8 -5.5 9.5t-8.5 7.5l17 5q1 1 6.5 2.5
t6.5 4.5l1 2l-18 4q9 5 17.5 8.5t18.5 8.5l1 4q1 3 -3 4t-6 3q6 5 15 9.5t11 12.5q2 5 -2 7t-7 3q5 5 15 8.5t12 13.5h-23q11 11 21.5 18.5t21.5 21.5q-1 2 -6 2.5t-7 1.5q8 7 14 14t9 18h-2l-29 -19q-5 -3 -6 -3q14 17 29.5 36.5t21.5 41.5l2 6q1 4 -3 4
q-14 -17 -27.5 -34.5t-30.5 -28.5l-1 1q0 1 1 1.5l1 0.5l9 10q14 20 29 42t22 46l3 10l-2 3q-3 -3 -3 -6l-12 -22q-12 -18 -22.5 -32.5t-24.5 -25.5v2q17 26 30.5 50.5t21.5 53.5l1 4l4 13l-1 13h-1q-3 -11 -9.5 -28t-15 -35t-18 -33.5t-18.5 -22.5l1 3q5 20 15 40.5
t16 41.5q5 16 7.5 34.5t-2.5 32.5l-23 -82q-10 -34 -32 -64v2l1 2q7 17 12.5 29.5t10.5 29.5v1q1 6 3.5 17t2.5 12q0 2 1 8.5t1 13.5v14t-1 7l-2 -4q-3 -11 -5 -22t-5 -22q-14 -48 -38.5 -84.5t-55.5 -74.5v-2q14 -5 24 -13.5t3 -31.5q-5 -14 -15.5 -25t-22.5 -11
q-19 0 -13 23q2 6 7.5 10.5t10.5 4.5t5.5 -5.5t5.5 -5.5q5 15 -2 21.5t-18 6.5q-22 0 -41.5 -17t-36.5 -38l-2.5 -5l-1.5 -3l-1 -2q13 10 24 10h7q8 0 6 -5q-2 0 -9.5 -1.5t-11.5 -3.5v-2q1 -2 4.5 -5t2.5 -6q-3 -3 -4 -7q-6 -9 -10.5 -16.5t-7.5 -14.5t-6 -15t-6 -20l-2 -8
q-2 -5 -2.5 -9.5t-2.5 -9.5l-1 -3q-1 -3 -2 -11t-2 -15.5t-0.5 -13.5t3.5 -6l5 19q2 3 5 3.5t5 0.5h2q12 0 7 -17q-4 -12 -13.5 -17t-18.5 -5q-11 0 -18 8t-12 19l-1 -5q-3 -10 -0.5 -14.5t7 -6.5t10 -4t7.5 -6q3 -14 0.5 -32.5t-7.5 -34.5q-11 -35 -31.5 -65t-50.5 -44
q-5 -2 -11.5 -2.5t-8.5 -4.5q1 0 3.5 -0.5t4.5 -0.5q18 0 33.5 11.5t28.5 28.5t22.5 38t14.5 39q5 16 5.5 30.5t5.5 28.5q0 1 1 3t1 3q1 -14 -2 -31.5t-8 -33.5q-6 -22 -17 -42.5t-22 -40.5t-22 -40.5t-17 -42.5zM337 344q-10 -32 -7 -62t21 -47q4 1 10 7q-2 5 -6.5 7
t-5.5 8q-7 25 -6.5 48.5t8.5 55.5q-2 -2 -6.5 -5.5t-4.5 -4.5l-1 -2.5t-2 -4.5zM628 242q3 -6 7 -6q5 0 6.5 2t6.5 7q22 20 38.5 43t24.5 52q2 5 2.5 11.5t-4.5 6.5q-7 -18 -13 -31t-13 -24.5t-15.5 -22.5t-19.5 -25q-4 -6 -9.5 -7t-10.5 -6zM654 247l-2 -2v-3q4 0 4 3
q2 2 -2 2zM278 322v0q1 0 1 -1t-1.5 -1.5t-0.5 1.5v1h1zM809 395q2 0 2 -2q-2 -2 -3 -2h-1l1 2q0 1 0.5 1.5zM766 420l0.5 -0.5t0.5 -1.5t-1 -1.5l-1 -0.5v2t1 2zM748 522q-3 -12 -6 -26t-2 -25.5t6 -19.5t17 -8l1 3v8q-1 4 1 16t2 14q1 8 2 13.5t3 11.5l3 10q6 20 13 33.5
t20 32.5l1 4h-2l-6 6h-1h-1q-21 -24 -31.5 -45.5t-21.5 -50.5l1 3l3 11l1 4q7 22 18 42t28 39h-2q-1 -2 -4 -3.5t-3 -2.5q-17 -14 -26 -32t-14 -38zM375 459q-2 0 -2 -3q-2 -2 0 -2l2 2q1 2 0.5 2.5zM363 469l1.5 -1.5t2.5 -1.5l-1 -2q-1 -4 -8 -4h-3q1 3 3 6t5 3zM758 469
q2 0 1 -3.5l-1 -3.5h-8q2 7 8 7zM851 473q1 0 0 -1q0 -3 -2 -3q-1 0 -1 3q1 1 3 1zM371 489h2q5 0 3 -5q-1 -3 -7 -3zM384 484v-2q0 -1 -2 -1q-1 0 -1 1q0 2 3 2zM758 489q3 0 3 -3t-1 -5h-7q1 2 2 5t3 3zM749 497l-2 -6l-1 -4q-4 -4 -1 4q1 6 4 6zM402 562l1 2q3 -9 -1 -23
l-7 -24l-1 -5l-4 -15l-2 -6q2 6 5.5 22t4.5 22q2 6 2 13t2 14zM378 509q7 0 6 -4v-1q-4 -2 -3 -2l-0.5 -0.5t-1.5 -0.5q-2 0 -2 3t1 5zM759 509h1q7 0 5 -2q0 -1 -1.5 -3l-1.5 -2v-1h-1q-2 0 -2.5 3t0.5 5zM383 527q2 4 4.5 4.5t4.5 0.5l-2.5 -5t-4.5 -3q-1 0 -1 3h-1z
M762 527q2 4 5 4.5t4 0.5l-2.5 -5t-3.5 -3h-1q-1 0 -1 3h-1zM773 553l1.5 1.5t3.5 2.5t2.5 -1t0.5 -3q-2 -3 -3 -5.5t-3 -0.5q-4 0 -2 6zM390 554h6l-2 -5h-6zM398 585q0 1 2 3q4 -10 2 -18v-3q-2 2 -2.5 8.5t-0.5 9.5h-1zM381 572l1 -1q-1 -1 -2.5 -1.5t-0.5 1.5l0.5 0.5
t1.5 0.5zM386 573l1 1h1q0 1 2 3l3 3q2 -2 1 -4l-1 -5l-1 -2q-7 0 -6 4zM787 574q1 6 5 6q1 0 1 -6q-2 -5 -6 -5q-2 0 0 5zM323 589q2 8 8 14.5t13 6.5h1q-2 -2 -7 -6.5t-7 -5.5l-2 -7q-4 -14 9 -19l-1.5 -0.5t-3.5 -0.5q-15 0 -10 18zM862 589q3 14 -6 21h1q6 0 8.5 -6.5
t0.5 -14.5q-5 -18 -20 -18h-3q-2 0 -3 1q5 2 12.5 5.5t9.5 11.5zM380 578l-1 -1q1 0 1 -2q0 -1 -1 -1v1q0 2 0.5 2.5zM399 592l0.5 -0.5t-0.5 -2.5v-1h-1q-2 0 -2 1q0 3 3 3zM398 595v-3l-2 -3q-2 0 0 3q0 3 2 3zM396 598q1 0 1 -3l-2 -3q-3 0 -1 3q0 3 2 3zM422 641
q-6 -20 1 -31l9 30l6.5 3.5t15 8t18 9t15.5 7.5q26 12 51.5 18.5t51.5 11.5q5 1 10 1.5t10 0.5h19q46 0 85 -15.5t72 -41.5q0 -1 1 -2l1 -1l-8 -27q7 1 11.5 11t6.5 16q0 2 1 5t1 5q-2 8 -10.5 13.5t-14.5 9.5q-32 20 -66 31t-75 11q-39 0 -77.5 -8.5t-80.5 -27.5
q-5 -3 -12.5 -7t-15 -7.5t-12.5 -6.5l-5 -3l-6 -5q-1 0 -1.5 -3.5t-1.5 -5.5zM350 615q2 0 2 -2q-2 -3 -3 -3l-0.5 0.5t0.5 2.5q0 1 0.5 1.5zM852 615q2 0 2 -2q-2 -3 -3 -3q-3 0 -1 3q0 2 2 2zM363 632q3 11 10 11q9 0 6 -9q-1 -3 -3.5 -8t-6.5 -3q-8 1 -6 9zM400 625h1v-2
q-1 -2 -1.5 -2.5l-0.5 -0.5q-3 0 -1 3q0 2 2 2zM872 665h3q-18 -4 -33 -15t-31 -27h-2q13 14 29.5 28t33.5 14zM394 634q1 0 1 1q1 -1 1.5 -4t2.5 -3l-1 -3q-2 0 -2.5 3t-0.5 5zM836 634q2 9 10 9t5 -11q-1 -7 -10 -7q-8 0 -5 9zM395 640v-2l-2 -3q-3 0 -1 3q0 2 3 2z
M239 643q2 0 2 -3q-2 -2 -3 -2q-2 0 0 2q0 3 1 3zM368 663h2q8 0 14.5 -7.5t8.5 -15.5q-1 0 -2 -1h-1v1q0 1 -3 5.5t-4 4.5q-2 2 -7.5 6.5t-7.5 6.5zM365 665q-1 -1 -4 -1q-2 0 -1 1q-1 1 2 1t3 -1zM278 721q2 0 2 -3q-2 -3 -4 -3t0 3q0 3 2 3zM293 746q3 0 2 -3q0 -2 -4 -2
v2q1 3 2 3zM310 766v-3l-2 -2q-3 0 -1 2q0 3 3 3zM331 769v-3l-2 -3q-3 0 -1 3q0 3 3 3zM330 773l-1 -2v-2q-2 0 -2 2t3 2zM1020 925q-1 0 -2 -3q0 -2 1 -2t1 2q1 3 0 3z" />
    <glyph glyph-name="FL00B1h" unicode="&#xb1;" horiz-adv-x="420" 
d="M132 378l-1 -4q2 -4 10.5 -7t10.5 -3q6 2 18.5 7t17.5 11h84l-37 -126q0 -1 3.5 -4.5t6.5 -5.5q15 -10 21 -17.5t11.5 -12t13.5 -6.5t27 -2q9 0 14.5 8t8.5 18l6 29q0 4 -1 11.5t-1 8.5l29 100h92q1 0 5.5 5.5t6.5 9.5q15 22 24 33.5t15.5 21t11.5 21.5t12 36
q4 11 -1.5 15t-13.5 4h-4l-23 -8q-3 -2 -10 -6t-8 -4h-71l31 110q0 1 -4.5 4.5t-8.5 5.5q-11 5 -18.5 12t-15 13t-16.5 10.5t-22 4.5h-3q-4 -4 -9.5 -16t-6.5 -14q-1 -7 -4 -20t1 -17l-27 -94h-97q-1 0 -5.5 -7.5l-7.5 -12.5q-17 -30 -36 -54t-29 -58zM35 34l-1 -4
q2 -4 10.5 -7t10.5 -3q6 2 17.5 7t16.5 11l279 1q1 0 5 5.5t7 9.5q14 22 23.5 33.5t16 21t12 21.5t12.5 36q3 11 -2.5 15t-13.5 4h-4l-22 -8q-4 -2 -11 -6t-8 -4l-270 -1q-1 0 -6 -7.5t-8 -12.5q-17 -30 -35.5 -54t-28.5 -58z" />
    <glyph glyph-name="FL00B2h" unicode="&#xb2;" horiz-adv-x="1337" 
d="M1111 298v1v-1zM1282 643l16 56h5l-16 -56h-5zM601 677q-4 -10 -6.5 -19t-3.5 -12q0 -3 -4 -3q-1 0 -1 3q1 3 3 12t4 19q1 6 2 11.5t3 10.5h11q-2 -5 -4 -10.5t-4 -11.5zM879 677q-4 -10 -7 -19l-4 -12q0 -3 -3 -3q-2 0 -2 3q1 3 3.5 12t4.5 19q2 14 4 22h11
q-2 -5 -3.5 -10.5t-3.5 -11.5zM949 437q-9 6 -7 13l25 88q1 3 5.5 4t9.5 2l-31 -108q-1 0 -1.5 0.5zM1446 696l-43 -148q-1 -2 -4 -7t-5 -7h-1l-2 1q-1 0 -1 2h-2v1l47 163q4 -1 7.5 -2t3.5 -3zM886 83h-5q-2 0 -2 2q-2 0 -1.5 0.5l0.5 0.5l73 255q3 10 11 16t17 8l-80 -279
q0 2 -4 0.5t-9 -3.5zM1285 742l-35 -122h45q4 0 11 9.5t9 15.5l2 6q2 6 4.5 15.5t4.5 14.5q1 2 1.5 6.5t2.5 10.5l6 19q1 20 -7.5 23.5t-19.5 3.5h-3q-2 0 -5 -0.5t-5 -0.5q-1 -1 -6 -1h-5zM587 742l-35 -122h45q5 0 11.5 9.5t8.5 15.5l5 17q1 6 5 13l3 11q1 2 1.5 8t2.5 11
l7 23q-6 11 -13.5 13t-16.5 2h-3q-2 0 -4 -0.5t-4 -0.5h-13zM703 546q7 2 14.5 5.5t12.5 15.5l2 10q5 15 8 31t5 22l2 8h-29l17 61h61l-47 -164h-66q3 5 8 7t12 4zM1134 551q4 2 9 7.5t7 9.5l2 9q5 15 8 31t5 22l2 8h-28l17 61h60l-47 -164h-58l1 3l-2 3l1 2q3 2 12 5t11 3z
M864 742l-36 -126q14 0 28 2t19 2q3 0 9.5 6.5t8.5 10.5l25 88q3 12 -4 15.5t-15 3.5q-3 0 -4.5 -0.5t-3.5 -0.5h-1q-2 0 -5 -0.5t-6 -0.5h-15zM1084 336q-2 0 -5.5 1t-8.5 3l-64 -225q-2 -8 -11 -15t-17 -9l72 252h-44l6 21h110q-5 -13 -16 -20.5t-22 -7.5zM1225 762
q1 2 1 -4v-11h-83l-38 -132h40l-7 -26h-40l-24 -82h79l-6 -21h-100l66 229q10 34 30 44.5t43 10.5q8 0 19.5 -1t22.5 -2q-2 -2 -3 -5zM741 747l-27 -31l-29 -101h39l-7 -26h-39l-24 -82h79l-6 -21h-100l72 249q3 11 11 17.5t17.5 10t19 4.5t15.5 1h6q11 0 21 -1.5t23 -10.5
l-8 -9h-63zM1103 60l36 126h-35l51 178h17l-38 -134q7 0 12.5 -0.5t12.5 -1.5q6 -1 12.5 -1.5t11.5 -0.5q3 1 11 6.5t10 10.5l35 123q6 -3 9 -10t1 -15l-34 -118q-2 -6 -8 -12.5t-13.5 -11.5l-15 -10t-13.5 -8l-2.5 -1t-4.5 -2l-40 -138zM1454 743h-2q-5 0 -15.5 -2.5
t-14.5 -15.5l-57 -197q-2 -6 0.5 -9.5t6 -5t8 -2t6.5 -0.5h2q5 0 15 2t13 15l57 197q2 6 0 10t-5.5 5.5t-7.5 2t-6 0.5zM404 514q5 -1 10 -1.5t10 -0.5q4 1 11.5 6t9.5 10l69 239h16l-74 -258q0 -1 -4 -6.5t-8 -9.5l-2 -3q-3 -2 -3 -3v-1h-90l72 249q2 7 11 16t16 14l5 -5
l-70 -244q8 0 11.5 -0.5t9.5 -1.5zM206 358q-3 -11 -6 -29.5t-3.5 -37.5t3.5 -32.5t15 -13.5q7 0 12 2t11 5q5 2 9 4t15 2q6 19 4 32t-5 24t-5.5 22t2.5 26q3 12 11.5 20.5t19 14t21.5 8.5t20 3h245l4 14l-284 5q-10 0 -23.5 -6t-27 -16t-24.5 -22.5t-14 -24.5zM1016 584
h-59l-28 -98h-16l77 269l0.5 -0.5t3.5 1.5l3 3q2 1 4.5 2l7.5 3l-41 -144h59l40 140q24 -1 15 -35l-82 -285q-3 -10 -10.5 -21.5t-17.5 -11.5q-2 0 -4 1t-1 2zM1027 448h178l5 5t9 11l3.5 5.5t4.5 7.5q1 3 4.5 10.5t7.5 17.5t8 19.5t6 16.5h5q-2 -11 -6.5 -31.5t-9.5 -42.5
t-9.5 -41t-6.5 -26l-6 -19q-2 -8 -8 -25.5t-13 -38t-13.5 -39.5t-10.5 -29h-3q-3 0 -9 0.5t-4 3.5l41 144h-195zM308 796l-30 -107q5 0 14.5 -1.5t19.5 -3t19 -3t13 -2.5h-1q4 -2 8.5 -11t3.5 -12l-49 -170h-97q-2 0 -5 9.5t-5 15.5q0 1 2 3l1 3h85l34 117q-4 0 -14 0.5
t-21 2t-20 3.5t-12 4q-4 2 -8 10t-3 12l40 138l4.5 6.5t6.5 9.5q3 2 4 3.5l5 7.5h92l1 2l11 -21l-10 -16h-89zM928 402h-106l-80 -279h100q2 0 1.5 -5.5t-2.5 -10.5l-3 -9q-2 -5 -2.5 -9t-5.5 -6h-7q-4 0 -7 -0.5t-6 -0.5h-35q-14 0 -28.5 1.5t-24 7.5t-13.5 18.5t3 35.5
l67 236q1 5 6 14t11 17.5t12.5 14.5t12.5 6h95q5 0 9 -10t3 -21zM492 486l81 281h14q3 0 6 0.5t6 0.5h27q15 0 29 -7t9 -26l-34 -116q-4 -5 -11.5 -16t-9.5 -14h-70l-30 -103h-17zM935 707l-4 -13q-10 -35 -22 -59t-20 -53l-2 -5q0 -7 2 -10q1 -3 1 -6v-3q-2 -5 -4.5 -16.5
t-5.5 -24.5q-2 -9 -3.5 -17t-3.5 -14h-20l28 98h-67l-28 -98h-17l81 281h80l13 -25l-1 -1l-3 -15t-4 -19zM935 364h3v-3l-67 -204l-6 -5h-95l58 203q9 1 24.5 2.5t31.5 3t30.5 2.5t20.5 1zM1301 584h-66l-28 -98h-17l82 285q5 0 8 0.5t7 0.5q6 0 12 0.5t11 0.5q21 0 36 -7
t15 -33l-7 -26q-2 -5 -2 -8t-2 -7l-3 -11q-4 -13 -8.5 -25.5t-10.5 -23.5q-5 -12 -9.5 -24t-8.5 -26l-2 -5q0 -4 -1 -15.5t0 -16.5l-40 -139q-2 4 -7.5 8.5t-5.5 5.5zM1460 768h14q11 0 20.5 -4.5t5.5 -18.5l-70 -243l-18 -16h-69q-2 0 -3.5 4t-3 9.5t-2 11t0.5 7.5l59 207
q8 28 27.5 35.5t38.5 7.5zM1106 300l-36 -126q-2 -6 6 -11h-1l5 -5q10 -6 14 -16t4.5 -22t-2 -24.5t-6.5 -24.5q-4 -15 -7 -28t-2 -23t7.5 -15.5t20.5 -5.5q5 0 15.5 2t14.5 16l39 135l47 39q5 21 12.5 48.5t15.5 55.5q12 42 25.5 84.5t30.5 78.5q1 4 3 4t6 -3.5t6 -5.5h89
q3 0 10 6t14 13.5t12.5 15.5t6.5 11l68 236q5 17 3.5 28t-7.5 17.5t-15 9t-19 2.5h-21q-21 0 -38 -3.5t-38 -24.5q-2 4 -7 9t-6 7q-2 2 -8 6.5t-8 4.5h-95q-3 0 -12 -6t-17 -12l-9 18h-4q-4 0 -6 1q-5 1 -10.5 1.5t-10.5 0.5q-14 0 -26 -4t-23 -9l1 1q-10 -4 -19 -7.5
t-17 -3.5q-11 0 -22 11q-5 5 -11.5 9t-20.5 4l-43 -149q2 2 -6 -1l-4 -2h-4h-1q-2 0 -1 4v1l4 13q2 8 5.5 18.5t6.5 20.5q3 11 5.5 21.5t4.5 18.5l4 15q1 3 1 6q4 18 3.5 24.5t-13.5 6.5q-2 0 -3.5 -0.5t-3.5 -0.5h-2q-1 0 -6 -2.5t-11.5 -5.5t-13 -6.5t-9.5 -5.5
q0 -1 -2 -1t-2 1l1 -1l-9.5 9.5t-9.5 11.5h-108l-24 -29l2 4q0 1 2 3q0 2 0.5 4t0.5 4q-5 10 -14.5 13t-19.5 3q-5 0 -7.5 -0.5t-5.5 -0.5h-9q-14 0 -22.5 -3.5t-18.5 -7.5q-9 -4 -17.5 -7t-16.5 -3h-3l-26 20h-154l-22 -24l-66 -231q-2 -1 -9 -1q-3 0 -3 3l68 236q1 4 -3 9
t-8 8h-11q-3 -1 -11 -5.5t-16.5 -10t-15.5 -11.5t-8 -9l-20 -73h-4q1 0 0 -1h1q-12 8 -22 11.5t-19 5.5q-17 4 -26.5 10.5t-3.5 26.5l1 6l4.5 13.5t5.5 7.5h79q4 0 13 11l-1 -1q1 1 3 3.5t5 7.5l3 13q1 2 -0.5 13t-5.5 16l-2 -3l5 18h-21l1 5l-93 5q-8 0 -16.5 -6.5
t-16 -15.5t-13 -18t-7.5 -14l-4 -15q-2 -5 -3.5 -10t-3.5 -10l-9 -31q-13 -45 -13.5 -70t6 -36.5t17 -14t21.5 -2.5q12 -1 20 -5.5t1 -28.5l-3 -10q-2 -7 -4.5 -15t-4.5 -8h-80q-3 0 -9 -7.5l-10 -12.5l-2 -6q-2 -9 -3 -19.5t1 -19.5t7.5 -15.5t14.5 -6.5h248q3 2 8.5 5.5
t7.5 3.5l1.5 -1t3.5 -3h-1q5 -5 9 -5h3q5 0 9.5 -0.5t7.5 -0.5h10q3 0 7 0.5t6 0.5q6 7 13 18.5t13 24.5t11 25t7 20q8 2 14.5 4t13.5 4q11 3 21.5 6t19.5 4l-32 -111h81q-5 -8 -8.5 -16.5t-4.5 -10.5l-1 -4l-2 -4l-2 -4q-2 -8 0 -13t5 -10q2 -3 3.5 -6t-0.5 -8
q-4 -11 -10.5 -19.5t-14.5 -16.5l10 35q2 5 -4 10.5t-11 6.5q-4 2 -13 2.5t-15 0.5h-7h-6l-13 -47q-6 6 -14 13t-16.5 13t-15.5 11t-10 7h-4q-10 2 -22 2h-9q-23 0 -46 -6.5t-45.5 -15t-44.5 -15t-43 -6.5q-2 0 -6.5 0.5t-22.5 4.5l19 -37q5 1 13 1h12q15 0 26.5 -2t22.5 -4
t23 -4t28 -2q11 0 19.5 3.5t18.5 7.5q11 5 19.5 8t17.5 3h3q-1 -1 -4 -1h1q-4 -2 -8 -3.5t-9 -3.5h1q-6 -3 -15.5 -10.5t-18.5 -15t-15.5 -13.5l-6.5 -6l-9 -32q5 0 13.5 2t11.5 3h-1q4 1 14 13q6 6 8 7t3 1q10 0 23 -5q2 -1 4.5 -1.5t4.5 -1.5q1 -1 1 -2q-2 -2 0 -3
q-1 -4 -0.5 -6t-0.5 -3q-1 -4 -4 -5q-1 1 -5 1h-8h-39q-12 0 -13 -1q-23 -5 -33.5 -20.5t-18.5 -33.5q-6 -13 -13 -25t-25 -23q-2 -14 3.5 -17.5t12.5 -3.5h6q14 0 24 6t27 23l5 -3q-32 -32 -60.5 -54t-66.5 -39l-6 -23q29 0 69 15.5t84 42t89 61.5t83 74.5t66 80.5t39 80
q5 14 1.5 31t-9.5 31h69l31 23l21 75h9l-13 -73l-2 -6l-54 -49l-88 -308q-7 -23 1.5 -39.5t28.5 -16.5h199l72 252l2 1h1q3 0 4 1q10 2 15 2q2 -1 5 -2l3 -1l-68 -236q-2 -6 6 -11h-1q0 -2 7 -6h10q3 1 11 5.5t16 10.5t15 11.5t8 9.5l59 206q3 13 11 13q5 0 8 -1l6 -2
q0 -1 2 -1q3 0 4 -1z" />
    <glyph glyph-name="g" unicode="&#xb3;" horiz-adv-x="1337" 
d="M1116 303l-38 -133q-1 -1 3 -4.5t6 -5.5q21 -16 19.5 -42.5t-9.5 -52.5q-8 -28 -8.5 -47t24.5 -19q4 0 12.5 1.5t10.5 9.5l40 140l47 40q7 28 16 62t20 70t23.5 71.5t26.5 66.5q1 2 5 6t6 4t6.5 -4t6.5 -6h88q2 0 7.5 5t11.5 12t10.5 13.5t5.5 9.5l69 240q9 31 -2.5 41
t-30.5 10h-23q-21 0 -37.5 -4t-36.5 -27q-2 2 -9 10t-9 10t-7 6t-6 4h-96q-3 -2 -10 -5.5l-9 -4.5h-4q-8 0 -14 1.5t-12 4t-13 4t-17 1.5q-21 0 -38.5 -10.5t-36.5 -10.5q-7 0 -12.5 3.5t-11 8t-11.5 8.5t-14 4l-42 -144q0 -1 -6 -4.5t-8 -5.5h-4h-4q-2 1 -3.5 4.5t-2.5 5.5
q2 6 7 22t10 33t9 33t6 22q3 18 3.5 24.5t-9.5 6.5q-2 0 -5 -0.5t-4 -0.5t-7 -3t-12.5 -6.5t-12.5 -6.5t-6 -4l-1.5 -0.5t-2.5 -0.5t-2.5 0.5l-1.5 0.5l-9.5 9.5t-8.5 10.5h-104l-22 -20q-2 10 -8 14.5t-14.5 6t-17.5 1t-17 -0.5q-21 0 -38.5 -10.5t-36.5 -10.5h-4l-26 20
h-152l-18 -20l-68 -238q-2 0 -6 -1t-9 -1q-10 0 -7 10l69 240q0 1 -3.5 4.5l-5.5 5.5h-4h-4q-3 -1 -10 -5t-14.5 -8.5t-13.5 -9t-7 -7.5l-22 -77l-5.5 -2.5t-7.5 -0.5q-14 9 -29 12.5t-26 8t-16.5 13t-0.5 26.5l2 6q2 8 6 18.5t11 10.5h80q1 0 5 6t8 9l1 5q2 7 2.5 16.5
t-1.5 18t-6 14.5t-11 6h-96q-7 0 -14.5 -6t-14 -14t-11.5 -16.5t-7 -13.5l-3 -13l-13 -39l-3 -13q-14 -49 -14 -74q0 -24 8 -33.5t21 -10t23.5 -2t15.5 -9t-2 -31.5l-3 -10q-2 -9 -7.5 -19.5t-10.5 -10.5h-80q-1 0 -5 -5.5t-7 -9.5l-1 -5q-2 -8 -3 -17.5t0.5 -17.5t6 -14
t12.5 -6h248q2 2 9.5 6t9.5 4t6.5 -5t6.5 -5q1 0 8 -0.5t12 -0.5q2 0 10 0.5t10 0.5q7 7 14 20.5t13 27.5t10 26t5 16q20 4 40.5 11t40.5 7l-33 -113h84q-3 -4 -9.5 -17.5t-8.5 -17.5q0 -1 -1.5 -5t-2.5 -6q-2 -7 0 -11l4 -8t3.5 -8t-0.5 -11q-5 -16 -16 -29t-23 -22l14 50
q1 2 -4 5.5t-9 4.5q-5 2 -15.5 2.5t-15.5 0.5h-4l-15 -53q-3 4 -11.5 11.5t-18.5 15.5t-19 14.5t-13 8.5q-2 0 -9 1t-16 1h-9q-24 0 -48.5 -7.5t-49 -16.5t-49 -15t-47.5 -3l11 -20q22 2 37 0.5t28 -4l26 -5t31 -2.5q19 0 38 11t39 11q2 0 10 -0.5t10 -0.5q-9 -12 -19 -13
t-19 -7q-6 -3 -14.5 -9.5l-17 -13t-14.5 -11.5t-6 -6l-7 -25q2 0 8.5 2t9.5 3q1 0 4 3t6.5 7t6.5 7t4 3q3 1 9 0t12.5 -2.5t12.5 -3t9 -1.5q-2 -8 -2.5 -18.5t-11.5 -14.5q-2 1 -13 1h-19h-20q-11 0 -12 -1q-19 -4 -28.5 -16.5t-16 -28t-15 -31t-25.5 -24.5
q-1 -10 5.5 -10.5t12.5 -0.5q14 0 24.5 6t27.5 25l13 -10q-35 -35 -64.5 -58.5t-68.5 -41.5l-3 -13q28 0 67 15.5t82.5 42t87 61.5t81 74.5t65 80.5t38.5 79q5 19 -1.5 38.5l-10.5 31.5h80l26 20l23 80h20l-15 -80l-2 -6l-1 -4l-54 -50l-89 -310q-6 -20 1 -35t24 -15h196
l74 256q3 0 14.5 2.5t14.5 1.5q2 -1 6 -4.5t3 -5.5l-69 -240q0 -1 3.5 -4.5l5.5 -5.5h4h4q3 1 10 5t14.5 8.5t13.5 9t7 7.5l60 210q4 13 10 16.5t12 3t12 -3.5t10 -3zM824 360q7 1 23 3t34.5 3.5t34.5 2.5t23 1h8l-3 -10l-68 -210l-11 -10h-104zM1197 390h-198l28 65h184
q1 0 6.5 10t9.5 15q1 3 5.5 13t9 21.5t8.5 22t5 13.5h16q-2 -8 -7 -29.5t-10.5 -45.5t-10.5 -45.5t-7 -29.5l-3 -10l-3 -10q-2 -8 -9 -28t-14.5 -42.5t-14.5 -42t-10 -27.5q-1 0 -3.5 -0.5t-4.5 -0.5q-5 0 -12 1.5t-5 9.5zM206 357q-3 -10 -6 -28t-4 -36t2 -31t13 -13
q11 0 21 6.5t21 6.5q4 14 2 25t-5 22t-5 23t3 29q4 13 13 23.5t20.5 17t24 10t22.5 3.5h248l-287 5q-9 0 -21.5 -5.5t-25 -14.5t-23 -20.5t-13.5 -22.5zM992 553l-37 -126q-2 0 -3.5 1t-3.5 2q-4 3 -7.5 10.5t-2.5 9.5l26 90q2 9 14 11t14 2zM711 635l22 75h72l-52 -180h-79
q4 13 11 17.5t14.5 6.5t14.5 4.5t10 11.5q3 8 6 19t5 21l3.5 17.5l1.5 7.5h-29zM1109 546q0 1 1 2.5l1 1.5q2 2 13.5 6t13.5 4q2 1 6 4.5t4 5.5q3 8 6 19t5 21l3.5 17.5l1.5 7.5h-29l22 75h72l-52 -180h-64q-2 0 -3 4t-2 6v2t1 4zM1437 713q2 0 12.5 -2t8.5 -11l-43 -150
q-1 -2 -6.5 -10t-7.5 -10l-1 -0.5t-3 -0.5q-1 0 -2.5 0.5l-1.5 0.5q-2 2 -4 5t-1 5zM594 710h22q-1 -3 -4 -11.5t-6.5 -18.5t-6.5 -18.5t-4 -11.5q0 -2 -4 -6t-6 -4t-4 4t-2 6q1 3 3 11.5t4.5 18.5t4.5 18.5t3 11.5zM874 710h22q-1 -3 -4 -11.5t-6.5 -18.5t-6.5 -18.5
t-4 -11.5q0 -2 -4 -6t-6 -4t-4 4t-2 6q1 3 3 11.5t4.5 18.5t4.5 18.5t3 11.5zM1301 710h16l-20 -70h-16z" />
    <glyph glyph-name="FL00B4h" unicode="&#xb4;" horiz-adv-x="289" 
d="M488 809l-121 -1q-2 0 -5 -4t-6 -6q-10 -8 -24.5 -23t-31 -32.5t-33 -35.5t-30 -33t-22 -25t-8.5 -11l-6 -21q24 0 41.5 -0.5t32.5 -0.5t29.5 0.5t33.5 2.5q9 13 32.5 36t49 48t46.5 48.5t25 37.5q2 5 3 12.5t-6 7.5z" />
    <glyph glyph-name="FL00B5h" unicode="&#xb5;" horiz-adv-x="852" 
d="M422 56q1 -5 2 -18.5t3 -17.5q0 -4 -1 -10.5t3 -9.5l35 52l2 8q-1 11 -0.5 26.5t4.5 29.5q3 8 8 8q3 0 3.5 -6.5t-0.5 -15.5t-1 -17t3 -11q3 0 5 2l19 22l3 3v1l1 1l-10 33l1 3q1 7 10 7h1l20 -27l1 -1q2 0 6 3t7 5q2 1 10 3.5t11 4.5l1 2l-5.5 4t-7.5 6l-11 5l-12 10
l90 64l5 4q-5 6 -8 6h-1q-1 -1 -5.5 -4t-5.5 -4l-135 -91l-4 -1h-2q-2 0 -5 4l-95 96h-2l-9 -6l2 -4q14 -18 27 -32t30 -29l1 -3q-5 -5 -14.5 -9t-13.5 -6t-11.5 -6l-7.5 -4l-1 -2q2 -2 7.5 -4.5t7.5 -3.5q2 -2 4.5 -5t4.5 -3l1 1q3 2 10 7l14 10q4 4 7.5 7t5.5 3h1h1l2 -2
t2 -3v-2q-3 -11 -14 -18t-14 -18l-1 -2q2 -3 4 -12t4 -11v-4v-1q1 0 1.5 0.5l0.5 0.5q2 2 7.5 10.5t11 17.5t10 16.5t5.5 7.5h1q0 -2 5 -2q-8 -18 -16 -35t-19 -33zM410 124q-3 0 -3 -3q-2 -2 1 -2q1 0 3 2q0 3 -1 3zM378 237l90 -91h3q3 0 4 0.5l5 2.5q7 5 20 14t26 17
t23 14.5t11 7.5q6 4 15.5 10.5t18.5 12.5t15.5 11t6.5 6l6 20q2 8 9 9t13 1h6q7 2 14.5 12.5t15 23.5t13 26t7.5 20v3l3 8l1 3q-5 2 -8.5 3.5t-8.5 1.5q1 3 4 3.5t5 0.5h6q2 0 5 3q-3 8 -4 16t2 18q2 8 9 20q0 -3 -0.5 -8.5t0 -11t1.5 -10t4 -4.5h2q0 1 3 3t4 2h2q5 0 4 -7
t-2.5 -15t-2 -14.5t6.5 -5.5l-1 -5l-3 -11l-1 -3q-9 -30 -25 -51t-40 -41l1 -1q5 0 10 3.5t10 7.5q24 17 36.5 42t20.5 53q2 6 1.5 9t-1.5 4.5t-2.5 3t-1.5 4.5q1 10 3 21t-4 17q-2 2 -7 2q-4 0 -6 2q-1 6 0.5 20.5t4 31t6 32t5.5 23.5q6 20 15 40t15 40l4 13l4 13
q-65 55 -156 55q-45 0 -88 -13t-89 -37q-4 -2 -7 -4t-5 -6q-8 -26 -12.5 -51t-12.5 -50q-6 -20 -12.5 -38t-12.5 -37l-4 -4l-14 -28l-2 -2h-2h-7h-1q-11 -5 -17 -19.5t-11 -23.5q-7 3 -10 -7l-2 -4q0 -2 -1 -4.5t-2 -4.5l-1 -4q-11 -35 -7 -60.5t27 -40.5v2q-1 7 -8 17
t-9 21q-2 14 -1.5 27t5.5 30l2 7q1 4 4 7.5t8 3.5q2 5 8 18t8 17q3 7 3 5q0 -1 4 -1q3 0 3 -2t3 -2t6.5 4t7.5 9.5t6.5 10.5l3.5 7h1q4 0 1 -7.5t-3 -8.5q-3 -11 -9.5 -18.5t-8.5 -16.5l-1 -2q2 0 6.5 -1t6.5 -2v-2q-3 0 -10 -1.5t-9 -8.5q-3 -9 -5.5 -22t-4 -26t-0.5 -24.5
t7 -18.5q16 2 21.5 -4t-2.5 -26zM271 183q-5 -16 -14 -23.5t-11 -11.5q13 0 21.5 12.5t12.5 25.5l2 6q3 14 4 31.5t3 28.5v10q-2 23 -1 43.5t9 46.5l5 17q4 13 9.5 25.5t13.5 23.5l-1 -4q-5 -16 -12 -31t-12 -32q-6 -19 -8.5 -39.5t0.5 -38t12 -28.5t27 -11h2q2 0 2.5 0.5
t2.5 0.5h2q-2 0 -2 2q-2 0 -10 3t-8 5q-22 14 -23.5 44t8.5 62q5 17 11.5 34.5t17.5 32.5q11 4 24 10.5t18 20.5l2 7q-7 -13 -21.5 -21t-23.5 -8t-16 5t-3 17q2 7 6 13.5t11 6.5q3 0 7 -4t2 -9l-1 -2q0 -1 -2.5 -4.5l-2.5 -3.5q0 -2 2 -2q2 1 6.5 8.5t9 17t8 18t4.5 11.5
l1 3l4 14l2 6q3 11 4.5 21t5.5 21l1 3q3 -11 -1.5 -26t-8.5 -27q-5 -19 -12.5 -36.5t-18.5 -33.5q1 0 3 -0.5t3 -0.5q10 0 19.5 8.5t17 20.5t12.5 25.5t8 22.5t5 21t2 23t-3 20.5t-10 13.5h-1q-5 0 -11.5 -6t-6.5 -12q-5 2 -2 9q1 7 15 14q-1 5 -8.5 5.5t-9.5 1.5q3 5 7 5h9
q5 0 8.5 -4t9.5 -4h1q-2 26 -14 44.5t-35 18.5q-8 0 -18.5 -5t-13.5 -16l-1 -4q0 -1 -0.5 -1.5l-0.5 -0.5q9 10 17 10q13 0 8 -19q-3 -9 -10 -14.5t-14 -5.5q-11 0 -17 10.5t-2 24.5q6 22 22 32.5t33 14.5l1 4q-12 32 -14.5 72t9.5 82q4 14 9.5 27t9.5 26l1 3
q-14 -18 -23 -38t-14 -40q-4 -13 -6 -24.5t-5 -24.5l-2 -7q-1 22 3 45.5t11 46.5q4 14 7 23t11 26h-1q-3 0 -7 -6t-8.5 -13.5t-8 -15t-4.5 -10.5l-1 -4q-2 -5 -2.5 -8.5t-2.5 -8.5l-2 -8q-5 -19 -7.5 -36.5t-7.5 -37.5l-1 -3q-6 8 -6.5 23.5t1.5 33t5.5 34t6.5 26.5
q-5 0 -8.5 -8t-5.5 -16l-2 -8q-8 -26 -8 -52q0 -25 2 -48l-1 -3q-10 16 -11 38t-1 43l-2 3q-1 -2 -2.5 -5.5t-1.5 -4.5q-5 -15 -5 -28t1.5 -25t3.5 -23.5t3 -24.5h-2q-1 0 -4.5 6.5t-4.5 10.5q-2 4 -4 11.5t-3.5 14.5t-3.5 12.5t-5 5.5q-8 -26 -6.5 -46t10.5 -40l-1 -0.5
t-2 -0.5v1q-1 1 -4.5 3.5t-2.5 4.5q-2 1 -6 5.5t-6 5.5h-3q-3 -11 0.5 -18.5t1.5 -17.5q-2 0 -4.5 0.5t-4.5 0.5q-1 0 -1 -1v0q-2 -6 6 -19t11 -17l-4 -4h-20q0 -8 4.5 -12.5t10.5 -6.5l-1 -3q-2 -1 -8 -4.5t-7 -6.5l-1 -1l3 -2l13 -15l2 -3q-4 -2 -8 -3.5t-6 -3.5l2 -6
l21 -15l-18 -4l-2 -4l4 -2t7 -3l15 -5q-5 -2 -12.5 -6t-12.5 -9v-1q-2 -6 4 -7t7 -2q2 -1 7.5 -1.5t7.5 -0.5q-3 -2 -11 -6t-13 -9l-1 -2v-1q0 -1 1 -2.5l1 -1.5h36q-8 -7 -17 -14t-13 -19q8 0 18.5 4.5t18.5 7.5h1h1l-30 -28q-1 -1 -3 -3.5t-3 -3.5l-0.5 -0.5t-0.5 -1.5v-1
h1q-1 -1 1.5 -2t3.5 -1q2 1 9.5 3.5t10.5 4.5h1h1q-5 -4 -12 -11.5t-9 -12.5v-2q-1 -1 1 -1h2q5 1 11 5t10 4h2q-7 -8 -13.5 -16t-9.5 -19q7 0 14.5 4t13.5 8q-1 -2 -4.5 -7.5t-6.5 -10.5q-2 -3 -2.5 -4t-2.5 -4q-2 -2 -2 -3v-1q-2 -3 3 -3t11 5t12 8q-5 -7 -7 -13.5
t-4 -14.5h4q8 11 21 21l-3 -10q-8 -25 -16 -46t-15 -50q-3 -13 -14 -13q-3 0 -4.5 0.5t-1.5 5.5q-1 1 0.5 1.5l1.5 0.5h7l2 8h-4q-5 0 -7.5 -1t-4.5 -7q-4 -16 10 -16q5 0 9.5 4.5t9.5 4.5q9 0 6.5 -11.5t-4.5 -18.5q-3 -11 -9 -21t-18 -10q-5 0 -8.5 2.5t-1.5 10.5
q5 18 18 18q6 0 3 -6q0 -2 -2 -5t-3 -6q3 0 6.5 3.5t4.5 7.5q3 8 -0.5 10.5t-8.5 2.5q-9 0 -15 -7.5t-9 -18.5q-4 -11 2.5 -15t14.5 -4q11 0 19 10.5t12 22.5q7 26 5 50t3 50h3q-4 -17 -4 -33t1 -32.5t0.5 -33t-5.5 -33.5zM679 185q-4 -12 -3 -24t13 -12h2q-5 8 -7.5 14.5
t0.5 18.5q5 18 14.5 35.5t20 35t21 34.5t16.5 35l-2 -9q-8 -26 -23.5 -49t-22.5 -49q-5 -14 -2 -23.5t14 -9.5q8 0 16 4t12 15q2 10 0.5 18t-10.5 8q-5 0 -9.5 -2.5t-7.5 -10.5q-2 -5 -1 -7t4 -4l4 14q1 0 4 1.5t5 1.5q2 -2 4 -6.5t2 -6.5v-5q-2 -7 -8.5 -10t-11.5 -3
q-11 0 -11 11t4 22q2 5 6.5 16.5t11.5 11.5q5 0 7.5 -4.5t9.5 -4.5q5 0 11 5t7 14q0 5 -5 5h-2h-4q-2 0 -5 -3q0 -2 -1 -3v-2h8v-2q0 -1 -2 -3q0 -3 -4 -3h-4q-5 0 -6 8l3 13l6 18l5 20l4 12q0 1 1 6t2 11t2 11.5t1 6.5l2 7l2 6l10 -21h5q2 8 2 14t2 12l1 2q3 -5 6.5 -9
t10.5 -4q2 8 0.5 14t0.5 14q7 0 10 -3t10 -3q3 9 1.5 17.5t-3.5 14.5l1 2q1 -2 6 -5.5t9 -3.5q5 0 5 4q2 5 -1 13t-5 10h1q7 0 11 -3.5t11 -3.5l2 7l-17 33h1q9 0 15 -5.5t14 -5.5q5 0 6 4v1q0 2 1 3q-3 2 -7 12t-5 12h34q1 0 2.5 1.5t3.5 2.5v1q1 3 -1.5 5t-4.5 4
q-2 1 -6 3.5t-6 4.5l29 5q3 0 5 5q2 8 -5.5 9.5t-8.5 7.5l17 5q1 1 6.5 2.5t6.5 4.5l1 2l-18 4q9 5 17.5 8.5t18.5 8.5l1 4q1 3 -3 4t-6 3q6 5 15 9.5t11 12.5q2 5 -2 7t-7 3q5 5 15 8.5t12 13.5h-23q11 11 21.5 18.5t21.5 21.5q-1 2 -6 2.5t-7 1.5q8 7 14 14t9 18h-2
l-29 -19q-5 -3 -6 -3q14 17 29.5 36.5t21.5 41.5l2 6q1 4 -3 4q-14 -17 -27.5 -34.5t-30.5 -28.5l-1 1q0 1 1 1.5l1 0.5l9 10q14 20 29 42t22 46l3 10l-2 3q-3 -3 -3 -6l-12 -22q-12 -18 -22.5 -32.5t-24.5 -25.5v2q17 26 30.5 50.5t21.5 53.5l1 4l4 13l-1 13h-1
q-3 -11 -9.5 -28t-15 -35t-18 -33.5t-18.5 -22.5l1 3q5 20 15 40.5t16 41.5q5 16 7.5 34.5t-2.5 32.5l-23 -82q-10 -34 -32 -64v2l1 2q7 17 12.5 29.5t10.5 29.5v1q1 6 3.5 17t2.5 12q0 2 1 8.5t1 13.5v14t-1 7l-2 -4q-3 -11 -5 -22t-5 -22q-14 -48 -38.5 -84.5t-55.5 -74.5
v-2q14 -5 24 -13.5t3 -31.5q-5 -14 -15.5 -25t-22.5 -11q-19 0 -13 23q2 6 7.5 10.5t10.5 4.5t5.5 -5.5t5.5 -5.5q5 15 -2 21.5t-18 6.5q-22 0 -41.5 -17t-36.5 -38l-2.5 -5l-1.5 -3l-1 -2q13 10 24 10h7q8 0 6 -5q-2 0 -9.5 -1.5t-11.5 -3.5v-2q1 -2 4.5 -5t2.5 -6
q-3 -3 -4 -7q-6 -9 -10.5 -16.5t-7.5 -14.5t-6 -15t-6 -20l-2 -8q-2 -5 -2.5 -9.5t-2.5 -9.5l-1 -3q-1 -3 -2 -11t-2 -15.5t-0.5 -13.5t3.5 -6l5 19q2 3 5 3.5t5 0.5h2q12 0 7 -17q-4 -12 -13.5 -17t-18.5 -5q-11 0 -18 8t-12 19l-1 -5q-3 -10 -0.5 -14.5t7 -6.5t10 -4
t7.5 -6q3 -14 0.5 -32.5t-7.5 -34.5q-11 -35 -31.5 -65t-50.5 -44q-5 -2 -11.5 -2.5t-8.5 -4.5q1 0 3.5 -0.5t4.5 -0.5q18 0 33.5 11.5t28.5 28.5t22.5 38t14.5 39q5 16 5.5 30.5t5.5 28.5q0 1 1 3t1 3q1 -14 -2 -31.5t-8 -33.5q-6 -22 -17 -42.5t-22 -40.5t-22 -40.5
t-17 -42.5zM337 344q-10 -32 -7 -62t21 -47q4 1 10 7q-2 5 -6.5 7t-5.5 8q-7 25 -6.5 48.5t8.5 55.5q-2 -2 -6.5 -5.5t-4.5 -4.5l-1 -2.5t-2 -4.5zM628 242q3 -6 7 -6q5 0 6.5 2t6.5 7q22 20 38.5 43t24.5 52q2 5 2.5 11.5t-4.5 6.5q-7 -18 -13 -31t-13 -24.5t-15.5 -22.5
t-19.5 -25q-4 -6 -9.5 -7t-10.5 -6zM654 247l-2 -2v-3q4 0 4 3q2 2 -2 2zM502 280l24 111q-4 -2 -5 -1t-2 3.5t-2 4.5t-4 2l8 5q-3 0 -7 3.5t2 9.5l-101 12l15 4l110 11l51 143l5 10q0 -2 -1 -8t-2 -8q-1 -7 -4.5 -24.5t-8 -37t-8.5 -37t-6 -24.5l-1 -13q6 0 19 -1.5
t28 -3.5t28.5 -3.5t19.5 -1.5q5 -1 11 -2t11 -3q-28 -5 -53 -8t-51 -5q-4 0 -7 -5q2 -2 2 -8v-1v-1q-8 1 -13.5 -5.5t-7.5 -14.5v5q-6 -1 -13 -17t-14 -36.5t-13 -40t-10 -27.5v13zM278 322v0q1 0 1 -1t-1.5 -1.5t-0.5 1.5v1h1zM809 395q2 0 2 -2q-2 -2 -3 -2h-1l1 2
q0 1 0.5 1.5zM565 398l0.5 -0.5t-0.5 -2.5q0 -1 -0.5 -1.5l-0.5 -0.5q-2 0 -2 2q1 3 3 3zM766 420l0.5 -0.5t0.5 -1.5t-1 -1.5l-1 -0.5v2t1 2zM748 522q-3 -12 -6 -26t-2 -25.5t6 -19.5t17 -8l1 3v8q-1 4 1 16t2 14q1 8 2 13.5t3 11.5l3 10q6 20 13 33.5t20 32.5l1 4h-2
l-6 6h-1h-1q-21 -24 -31.5 -45.5t-21.5 -50.5l1 3l3 11l1 4q7 22 18 42t28 39h-2q-1 -2 -4 -3.5t-3 -2.5q-17 -14 -26 -32t-14 -38zM538 452q1 0 0 -4q0 -2 -2 -2q-1 0 -1 2q1 4 3 4zM571 454v-2h-3zM375 459q-2 0 -2 -3q-2 -2 0 -2l2 2q1 2 0.5 2.5zM363 469l1.5 -1.5
t2.5 -1.5l-1 -2q-1 -4 -8 -4h-3q1 3 3 6t5 3zM758 469q2 0 1 -3.5l-1 -3.5h-8q2 7 8 7zM851 473q1 0 0 -1q0 -3 -2 -3q-1 0 -1 3q1 1 3 1zM371 489h2q5 0 3 -5q-1 -3 -7 -3zM384 484v-2q0 -1 -2 -1q-1 0 -1 1q0 2 3 2zM758 489q3 0 3 -3t-1 -5h-7q1 2 2 5t3 3zM749 497
l-2 -6l-1 -4q-4 -4 -1 4q1 6 4 6zM402 562l1 2q3 -9 -1 -23l-7 -24l-1 -5l-4 -15l-2 -6q2 6 5.5 22t4.5 22q2 6 2 13t2 14zM378 509q7 0 6 -4v-1q-4 -2 -3 -2l-0.5 -0.5t-1.5 -0.5q-2 0 -2 3t1 5zM759 509h1q7 0 5 -2q0 -1 -1.5 -3l-1.5 -2v-1h-1q-2 0 -2.5 3t0.5 5z
M383 527q2 4 4.5 4.5t4.5 0.5l-2.5 -5t-4.5 -3q-1 0 -1 3h-1zM762 527q2 4 5 4.5t4 0.5l-2.5 -5t-3.5 -3h-1q-1 0 -1 3h-1zM773 553l1.5 1.5t3.5 2.5t2.5 -1t0.5 -3q-2 -3 -3 -5.5t-3 -0.5q-4 0 -2 6zM390 554h6l-2 -5h-6zM398 585q0 1 2 3q4 -10 2 -18v-3q-2 2 -2.5 8.5
t-0.5 9.5h-1zM381 572l1 -1q-1 -1 -2.5 -1.5t-0.5 1.5l0.5 0.5t1.5 0.5zM386 573l1 1h1q0 1 2 3l3 3q2 -2 1 -4l-1 -5l-1 -2q-7 0 -6 4zM787 574q1 6 5 6q1 0 1 -6q-2 -5 -6 -5q-2 0 0 5zM323 589q2 8 8 14.5t13 6.5h1q-2 -2 -7 -6.5t-7 -5.5l-2 -7q-4 -14 9 -19l-1.5 -0.5
t-3.5 -0.5q-15 0 -10 18zM862 589q3 14 -6 21h1q6 0 8.5 -6.5t0.5 -14.5q-5 -18 -20 -18h-3q-2 0 -3 1q5 2 12.5 5.5t9.5 11.5zM380 578l-1 -1q1 0 1 -2q0 -1 -1 -1v1q0 2 0.5 2.5zM399 592l0.5 -0.5t-0.5 -2.5v-1h-1q-2 0 -2 1q0 3 3 3zM398 595v-3l-2 -3q-2 0 0 3q0 3 2 3
zM396 598q1 0 1 -3l-2 -3q-3 0 -1 3q0 3 2 3zM422 641q-6 -20 1 -31l9 30l6.5 3.5t15 8t18 9t15.5 7.5q26 12 51.5 18.5t51.5 11.5q5 1 10 1.5t10 0.5h19q46 0 85 -15.5t72 -41.5q0 -1 1 -2l1 -1l-8 -27q7 1 11.5 11t6.5 16q0 2 1 5t1 5q-2 8 -10.5 13.5t-14.5 9.5
q-32 20 -66 31t-75 11q-39 0 -77.5 -8.5t-80.5 -27.5q-5 -3 -12.5 -7t-15 -7.5t-12.5 -6.5l-5 -3l-6 -5q-1 0 -1.5 -3.5t-1.5 -5.5zM350 615q2 0 2 -2q-2 -3 -3 -3l-0.5 0.5t0.5 2.5q0 1 0.5 1.5zM852 615q2 0 2 -2q-2 -3 -3 -3q-3 0 -1 3q0 2 2 2zM363 632q3 11 10 11
q9 0 6 -9q-1 -3 -3.5 -8t-6.5 -3q-8 1 -6 9zM400 625h1v-2q-1 -2 -1.5 -2.5l-0.5 -0.5q-3 0 -1 3q0 2 2 2zM872 665h3q-18 -4 -33 -15t-31 -27h-2q13 14 29.5 28t33.5 14zM394 634q1 0 1 1q1 -1 1.5 -4t2.5 -3l-1 -3q-2 0 -2.5 3t-0.5 5zM836 634q2 9 10 9t5 -11
q-1 -7 -10 -7q-8 0 -5 9zM395 640v-2l-2 -3q-3 0 -1 3q0 2 3 2zM239 643q2 0 2 -3q-2 -2 -3 -2q-2 0 0 2q0 3 1 3zM368 663h2q8 0 14.5 -7.5t8.5 -15.5q-1 0 -2 -1h-1v1q0 1 -3 5.5t-4 4.5q-2 2 -7.5 6.5t-7.5 6.5zM365 665q-1 -1 -4 -1q-2 0 -1 1q-1 1 2 1t3 -1zM278 721
q2 0 2 -3q-2 -3 -4 -3t0 3q0 3 2 3zM293 746q3 0 2 -3q0 -2 -4 -2v2q1 3 2 3zM310 766v-3l-2 -2q-3 0 -1 2q0 3 3 3zM331 769v-3l-2 -3q-3 0 -1 3q0 3 3 3zM330 773l-1 -2v-2q-2 0 -2 2t3 2zM1020 925q-1 0 -2 -3q0 -2 1 -2t1 2q1 3 0 3z" />
    <glyph glyph-name="FL00B6h" unicode="&#xb6;" horiz-adv-x="573" 
d="M551 199q2 5 4 16t4 19l3 9q11 39 31 76.5t41.5 74.5t41 75t29.5 78q14 45 16 89t-8 81.5t-31 65.5t-52 40q-15 6 -34.5 9.5t-36.5 11.5h-118l-30 -14q8 -8 11 -22.5t3.5 -31.5t-1 -33.5t-1.5 -28.5q49 1 91 -11t68.5 -40.5t33.5 -75t-12 -114.5q-8 -26 -19 -51
t-23.5 -50t-24 -50.5t-18.5 -51.5q-6 -23 -7 -46t3.5 -43.5t15.5 -35.5t29 -21l1 4q-1 0 -1.5 8t-1.5 18t-2 19.5t-2 11.5q0 2 -0.5 7.5t-2.5 6.5zM265 92q17 0 31 -7t26.5 -16t25 -19t26.5 -16q-2 30 2 51t12 48q9 32 22 61.5t26.5 58.5t26 58t21.5 60q12 41 13 76.5
t-9 61.5t-31 41t-53 15q-17 0 -39.5 -7.5t-40.5 -21.5q-12 -10 -32.5 -31.5t-44.5 -49t-49.5 -58t-46.5 -59t-36 -52t-19 -36.5q27 0 48.5 17t39.5 37t34.5 37t34.5 17h7q7 0 13.5 -2t4.5 -9q-7 -9 -15.5 -12.5t-18 -7.5t-18 -10t-15.5 -19q-7 -21 -16 -47t-21 -54.5
t-27.5 -58t-34.5 -56.5q-6 -6 -14 -15t-16 -19t-14.5 -21t-9.5 -21q34 0 65.5 9t67.5 29q1 0 9.5 5t18 12t19 13t12.5 8l9 9zM531 339l1 2q1 4 -3.5 7t-6.5 3q10 0 20 13t11 24q0 2 -3.5 5t-8.5 4q-3 0 -11.5 0.5t-13.5 0.5h-5q-3 -10 -4 -19t2 -19q-11 4 -15.5 -5t-6.5 -16
q-3 -11 -3 -22q0 -10 1 -20.5t1.5 -21.5t-1.5 -24q13 20 26.5 43.5t19.5 44.5zM575 449q-12 0 -21 4.5t-17 9.5h42l2 8q3 10 4 15t1 16q1 7 1 11v7q-11 -6 -14 -7.5t-5 -1.5t-5.5 1t-11.5 1l2 7l32 17l-8 43l-0.5 0.5t-1.5 0.5l-5 -1l-34 -26l-4 -2q-1 0 -1 1t-2 1l39 43
l-17 34q-1 0 -4.5 -3t-5.5 -6q-2 -2 -7.5 -10t-12 -18.5t-11.5 -19.5t-6 -12l-1 -3q-2 -9 -0.5 -11t6.5 -2t8 0.5t6 0.5q-8 -27 -11 -51t1 -43t16 -31t34 -15zM527 645q3 10 -3.5 14t-11.5 4h-4q-10 -18 -14 -31t-9 -30l-3 -9t-3.5 -11t-1 -9t4.5 -4q2 0 2.5 0.5l0.5 0.5
q1 2 5.5 9.5t10 15.5t10 15t4.5 9q4 6 9 16t3 10zM485 652l7 26q-14 8 -24.5 9t-25.5 1h-19q5 -10 8 -28.5t6.5 -37t8 -31.5t12.5 -11q11 22 16 36.5t11 35.5z" />
    <glyph glyph-name="FL00B7h" unicode="&#xb7;" horiz-adv-x="198" 
d="M307 491q6 0 5 -7.5t-3 -12.5l-9 -32q-8 -26 -18 -54.5t-25 -48.5q-20 -2 -34.5 -2.5t-29.5 -0.5t-32 0.5t-41 0.5l6 21l4 16q3 11 8 26.5t11 31t13 29.5t13 22q1 2 5 6t6 4z" />
    <glyph glyph-name="FL00B8h" unicode="&#xb8;" horiz-adv-x="153" 
d="M22 0h121q-14 -22 -30.5 -46.5t-32 -47t-28.5 -41t-19 -27.5q-20 -2 -34.5 -2.5t-29.5 -0.5t-32.5 0.5t-41.5 0.5l-26 63l17 9.5t41 24t50.5 32t44.5 35.5z" />
    <glyph glyph-name="four" unicode="&#xb9;" horiz-adv-x="504" 
d="M55 4v-2q-2 -2 2 -2h41q9 0 14.5 13t9.5 24q2 5 3 8.5t2 5.5t5.5 9t5.5 9q0 1 1 5.5t3 9.5q4 10 6 14q1 2 4 9t5 12q0 1 3.5 6t5.5 5q5 0 13.5 -9t22.5 -9h7l7 5l-6 -19q5 0 4.5 -6t2.5 -11l-14 -49l-1 -4l2.5 0.5t4.5 2.5q10 4 17.5 10.5t17.5 14.5l40 35q4 2 5.5 3.5
t3.5 6.5q1 2 1 7t1 9q0 3 0.5 12.5t1.5 20.5t2 20.5t1 13.5l2 7q15 -5 23 -7.5t11 -18.5h2h5h2q15 0 30.5 2t32.5 5q4 0 4 -2q11 -20 11 -36t-5 -43l-1 -3l-2 -9l-1 -3q-1 -2 0 -11.5t3 -10.5q-1 -4 -1 -8q0 -3 -2 -6q-3 -11 -4 -20t9 -13q3 -2 9.5 -3t8.5 -1h6q5 0 10.5 1
t7.5 9l-0.5 1t0.5 2q-5 18 -7.5 33t-7.5 32q1 9 6 24l8 27l1 5l4 2l40 11l7 7l5 19q8 4 13.5 11.5t7.5 15.5q3 9 3.5 13.5t-1.5 13.5l14 188l17.5 17.5t10.5 21.5q2 8 -0.5 13.5t-0.5 14.5v1l8 12q0 2 3.5 9t8 15t9 15t6.5 9l1 6q2 4 2 5t-4 5q-1 2 -3 10.5t-3 11.5
q-2 2 -1.5 3t-4.5 1h-1h-2q-2 0 -7 1t-7 1q-5 5 -6.5 14.5t-7.5 14.5q2 3 4 14t3 13q0 7 -1.5 11t0.5 11q2 6 4.5 10t4.5 11q2 9 2.5 21t-2 23.5t-7 20t-12.5 9.5h-13h-14q-2 1 -5.5 4t-7 6.5t-5.5 6.5t-2 4l9 32l4 6q4 14 7.5 21t6.5 19q5 18 -3.5 25.5t-16.5 15.5h-29
q-5 0 -9.5 -4t-12.5 -4v-1q0 -6 1 -9.5t-1 -7.5v-2q-1 -2 -3 -6.5t-5 -5.5q2 -2 3 -8t1 -8l-1 -3l-1 -3l-2 -8q-1 -8 -1 -15q0 -6 -2 -13l-6 -18q-16 -1 -28 -3t-30 -7q-10 -2 -21 -5.5t-20 -12.5q-30 -39 -58.5 -77t-57.5 -80l-1 -1q-2 -10 -2 -19q0 -8 -2 -18l-2 -6
l-15 -28q-11 -23 -22 -45.5t-22 -47.5l-80 -190q-3 -5 -5.5 -11t-4.5 -12l-6 -22q-2 -8 -1 -9.5t9 -1.5q-5 -10 -9 -22q7 0 14 -0.5t15 -0.5t15.5 2t15.5 4l-21 -73l-2 -4l-2 -4q-12 -17 -21 -32.5t-23 -32.5q-2 -5 -9 -12t-9 -12zM527 437q-5 21 -9.5 45.5t-2.5 50.5
q0 9 1 26t1.5 28.5t0.5 13.5l1 1q6 -4 4 -13q-2 -7 -1 -15q-1 -2 -1 -6v-3q3 -11 3.5 -22.5t2 -22.5t5 -20.5t11.5 -15.5q2 0 1.5 -1.5l-0.5 -1.5q0 -1 -1.5 -3t-2.5 -4v-1l-2 -7l-1 -2q-3 -11 0 -17.5t1 -15.5q-1 -4 -4 -4h-2q0 2 -2.5 5t-2.5 5z" />
    <glyph glyph-name="FL00BAh" unicode="&#xba;" horiz-adv-x="198" 
d="M399 812q6 0 5 -7.5t-3 -12.5l-9 -32q-8 -26 -18 -54.5t-25 -48.5q-19 -2 -33.5 -2.5t-29.5 -0.5t-32.5 0.5t-41.5 0.5l6 21l4 16q3 11 8 26.5t11 31t13 29.5t13 22q2 2 5.5 6t5.5 4z" />
    <glyph glyph-name="FL00BBh" unicode="&#xbb;" horiz-adv-x="384" 
d="M269 304q-2 -8 -7 -9t-10 -1q-14 -14 -41 -35.5t-54 -41.5t-47 -34.5l-20 -14.5h-17q9 30 14.5 51.5t11.5 40.5l4 14l3 11l3 11l2 7q1 2 1.5 5t2.5 6q4 2 15.5 10t26 18t28 20.5t22.5 18.5l-12.5 17.5t-15 20.5t-14.5 18.5t-10 10.5q1 3 1 5q0 3 1 5l3 8l3 12
q2 5 4.5 10.5t4.5 14.5q5 19 12 40.5t16 51.5h17q1 0 12.5 -14.5t26.5 -35t29 -42t19 -35.5q7 -1 7 -9q0 -1 0.5 -1.5t0.5 -1.5zM447 302q-3 -8 -7.5 -9t-9.5 -1q-15 -14 -41.5 -35.5t-53 -41.5t-46.5 -34.5t-21 -14.5h-17q8 30 14 51.5t11 40.5l4 14l3 11l3 11l2 7
q1 2 1.5 5t2.5 6q4 2 16 10t26 18t28 20.5t23 18.5l-12.5 17.5t-15.5 20.5t-14.5 18.5t-8.5 10.5q0 4 2 10l2 8l3 12q2 5 4 10.5t5 14.5q5 19 12 40.5t15 51.5h17q1 0 12.5 -14.5t26.5 -35t29.5 -42t20.5 -35.5q6 -2 6 -9v-3z" />
    <glyph glyph-name="asciitilde" unicode="&#xbc;" horiz-adv-x="485" 
d="M206 97q13 45 31.5 86.5t32.5 87.5q2 0 6.5 1.5l4.5 1.5q4 -2 9.5 -11.5t8.5 -9.5q2 -2 13 2.5t15 7.5l1 1.5t2 3.5q4 16 1.5 30.5t-6.5 28.5t-6.5 29.5t3.5 34.5q4 13 11 21.5t16 14.5t19.5 10t19.5 9q10 -10 25 -13.5t22 -16.5q8 -17 7.5 -28.5t0 -20.5t7 -16.5
t27.5 -16.5q19 12 39 30.5t37.5 41t31 47.5t20.5 50q6 22 10 41.5t2 34t-10.5 23t-26.5 8.5q-1 0 -7.5 -0.5t-8.5 -0.5q-11 -7 -21.5 -14t-18.5 -15q-14 -16 -22.5 -26.5t-16.5 -22.5q-6 -12 -12 -24.5t-9 -18.5q-8 2 -18.5 7t-19.5 12.5t-13.5 18t-1.5 22.5l5 17l22 -17
q12 4 30 35l30 80q6 0 10 -2q0 -1 23 -1l1 10q4 35 -14.5 59t-45.5 24q-24 0 -36.5 -9t-22.5 -23q-9 -13 -16.5 -25.5t-14.5 -37.5q1 -13 -8 -13q-5 1 -13 -1q-6 -1 -9.5 -2.5t-5.5 -1.5q-3 -2 -14.5 -9.5t-16.5 -11.5l2 6q7 24 20 47.5t28 47.5t28.5 48.5t21.5 49.5l1 4
q1 2 0.5 4.5t-0.5 4.5q-21 -20 -38.5 -45.5t-33 -53.5t-30.5 -57t-31 -56q-11 -20 -25 -34.5t-20 -36.5q-5 -18 -0.5 -31t0.5 -29q-1 -3 -2 -6.5t-2 -5.5q-16 -15 -34.5 -34t-35.5 -40.5t-30.5 -44t-19.5 -44.5q-3 -10 -5 -22.5t-1 -23.5t6.5 -18.5t16.5 -7.5q8 0 17 12.5
t13 20.5q-4 -13 -2.5 -27t14.5 -14q-2 -3 -9 -10.5t-14.5 -15.5t-14 -15.5t-9.5 -10.5l-1.5 -3t-2.5 -6q-3 -11 1.5 -19t12.5 -13t17 -7t15 -2q-10 -28 -14.5 -52t-1 -41.5t16.5 -27.5t37 -10q4 15 3 26t-3.5 22t-3.5 22.5t4 26.5zM241 395q6 0 11 -8t8 -19.5t4 -23
t-1 -18.5q-12 0 -18 7t-8 17t-0.5 22t4.5 23zM238 231q-3 -12 -11.5 -29t-20.5 -17q6 19 8 31t3 23t2 23.5t3 33.5l1 5l1 4q11 -12 16 -32t-2 -42zM313 405q-2 -5 -7.5 -7t-10.5 -2h-5q-8 0 -15 1t-13 8q4 3 11 9t10 7h3h4q0 -2 10.5 -8t12.5 -8zM360 551q-15 7 -24 -5
t-19 -32q-12 -23 -22.5 -39t-29.5 -16h-3q-2 0 -3 3t-3 6l0.5 1.5t1.5 3.5v3q5 4 13.5 17t15.5 21q7 7 7.5 14t1.5 15h-27q0 1 2 3.5t3 4.5q3 4 9 10.5t12.5 12.5t11 10.5l4.5 4.5q3 0 11 -3t16.5 -8t15 -12t6.5 -15zM582 495q-5 -14 -22 -20t-32 -6q6 20 15 33.5t35 17.5
q5 -6 5.5 -11.5t-1.5 -13.5zM519 435q8 0 4 -12q-3 -13 -11 -13t-5 13q4 12 12 12zM267 295q2 3 4 2t3.5 -4t1.5 -6t-2 -4q-6 -3 -8.5 1.5t1.5 10.5zM446 395q-5 -30 16 -30q7 25 -16 30zM462 420q-8 0 -11 -12q-4 -13 4 -13t12 13q3 12 -5 12zM477 433q-8 0 -12 -13
q-3 -12 5 -12t11 12q4 13 -4 13zM210 423q8 0 5 -13q-5 -12 -12 -12l-4 12q3 13 11 13zM284 458l6 -13h-9zM253 458q8 0 5 -13q-5 -12 -12 -12q-9 0 -4 12q3 13 11 13zM380 483q8 0 5 -13q-5 -12 -12 -12q-9 0 -4 12q3 13 11 13zM457 686q-4 -12 -15 -17.5t-20 -5.5
q3 11 8 17t17 6h10zM548 578q22 15 28 15h10q6 0 6 1l-11 -10l-1 -5l-1 -5q1 -3 3 -6t2 -4q-8 -4 -16 -11.5t-16.5 -14.5t-17 -12t-15.5 -5q-6 0 -5.5 11.5t3.5 20.5z" />
    <glyph glyph-name="FL00BDh" unicode="&#xbd;" horiz-adv-x="382" 
d="M56 7q0 1 6 8t13 16.5t13.5 19.5t8.5 17q5 6 8 14t6 19v1q1 2 0.5 3t0.5 3v1l14 88l1 1q1 2 1 4t1 4l2 5q5 16 10 32.5t16 30.5l15 24q8 11 11.5 20.5t12.5 25.5q0 2 1 3t1 2q8 9 10 15.5t4 16.5q4 11 4 21t3 21q8 29 19 54t25 52q5 10 11.5 17.5t9.5 17.5l3 11l5 19
q2 6 4 17v2q0 3 -2 3q0 1 -2 5t-1 6q-1 2 -1.5 11t-0.5 14l-29 -43q-4 -3 -5.5 -4t-4.5 -6q-8 -12 -10.5 -25t-8.5 -24l-6 -8q-14 -16 -18 -25.5t-9 -26.5l-1 -2q-1 -3 -1 -7l-1 -3q1 0 3.5 -4t4.5 -9t3 -10t0 -7q-2 -5 -6.5 -12t-7.5 -11l-19 -13h-2q-9 0 -13.5 12.5
t-1.5 23.5l9 30v2l0.5 5.5t2 12.5t3.5 14t3 11l1 3l2 9l2 4q5 17 12.5 31t18.5 29l2 6q5 10 12 17.5t13 18.5q1 2 3.5 8t2.5 8l1 3l3 11l2 4l3 5t5 8q4 6 8 18q2 5 4 8.5t4 7.5l25 28q8 5 16.5 8t17.5 7l43 18q4 1 6 5q2 2 4.5 9.5t2.5 9.5l2 6q2 5 2 11t2 13l5 16l2 8t3 9
q5 6 11 13.5t11 7.5h27q6 0 9 -13q2 0 2 -1v0q1 0 0 -4l-1 -5l-3 -9l-3 -12l-2 -6l-1 -5l-3 -8l-1 -5l-6 -9l-9 -33l2 -4q3 0 11.5 -4.5t13.5 -4.5q1 -2 7 -6t8 -4q1 -2 6 -2.5t6 -1.5q5 -3 7 -9t2.5 -13t0.5 -15q0 -7 1 -13q1 -29 7 -53t11 -50v-6q-2 -18 -6 -34t-7 -35
q1 -9 -2 -19.5t-6 -20.5l-1 -4l-2 -7v-2q-2 -6 -6 -17l-4 -11l-7 -4l-1 -0.5t-3 -0.5q-14 0 -19.5 3t-7.5 17q-2 5 0 13q3 11 14.5 18t14.5 17t1.5 17.5t-4 13.5t-5.5 12t-3 14q-2 12 1 28.5t1 25.5q-1 7 -2 7.5t-6 6.5q-5 5 -7.5 15.5t-1.5 18.5h-2q-3 -6 -8.5 -14.5
t-11.5 -17t-10.5 -15t-4.5 -7.5l-12 -42v-9q0 -1 -0.5 -6.5t1.5 -5.5q0 -3 1 -15t1 -20q1 -5 1 -7q0 -1 -1 -3v-6q0 -1 -0.5 -2t0.5 -3q-1 -7 -3.5 -17t-3.5 -12q0 -8 1 -17.5t-1 -19.5l-20 -68q-5 -10 -7.5 -14.5t-5.5 -14.5q-5 -16 -7.5 -30.5t-1.5 -28.5v-7v-12
q0 -6 1 -11t2 -5q0 -33 -10 -66q-8 -26 -17.5 -50.5t-16.5 -48.5l-2 -4l3 -40q2 -3 6.5 -9.5t2.5 -13.5v-1h-36q-7 0 -8 6.5t-3 11.5l-4 3q-3 0 -1 3q1 2 3 11.5t3 12.5l1 4l1 4l1 1t1 2q1 2 0 5.5t0 5.5l1 2q2 5 3.5 8.5t3.5 8.5q3 12 6 24.5t1 23.5q-1 2 -3 13.5t-3 13.5
q-3 5 -3 13t2 13l20 71q1 17 2.5 28t1.5 26q1 2 0.5 5t-0.5 4q1 14 1.5 28t2.5 28v1l1 3l1 2v1q0 4 0.5 5.5t-1.5 7.5q0 8 -0.5 17.5t-0.5 11.5l-1 8q1 2 2 10.5t2 11.5h-1q0 1 -2 1h-3q-1 0 -5.5 -8.5t-10.5 -20t-12 -22t-10 -14.5q-8 -11 -10 -23t-10 -23q-1 -2 -6.5 -11
t-6.5 -11q-1 -1 -5 -7t-8 -13l-8 -14t-5 -10q-4 -6 -7 -15.5t-6 -20.5l-6 -21l-5 -18q-8 -17 -17.5 -31t-18.5 -28q-4 -5 -6 -13.5t-4 -13.5q-3 -11 -3.5 -21t-3.5 -20v-1q0 -1 -2.5 -6l-3.5 -7t-2 -11t-2 -11l-2 -6q-2 -8 -5.5 -8.5t-8.5 -6.5q-11 -14 -21 -21.5t-24 -7.5
h-3q-2 0 -2 1h-2h-2q-2 1 -2 3q0 3 -2 4z" />
    <glyph glyph-name="FL00BEh" unicode="&#xbe;" horiz-adv-x="485" 
d="M335 97q6 22 10 43.5t7.5 43t7.5 43t11 44.5q-2 0 -5.5 1.5t-4.5 1.5q-2 -1 -6.5 -4.5l-9 -7t-8.5 -6.5t-6 -3q-4 -2 -12.5 2.5t-10.5 7.5v1q0 2 1 4q4 16 15 30.5t23 28.5t23 29.5t17 34.5q4 13 1.5 21.5t-8.5 14.5t-13.5 10t-13.5 9q-16 -10 -33.5 -13.5t-31.5 -16.5
q-18 -17 -24 -28.5t-11.5 -20.5t-15.5 -16.5t-37 -16.5q-26 25 -36 71.5t4 97.5q6 22 14 41.5t18 34t23.5 23t31.5 8.5q1 0 7.5 -0.5t8.5 -0.5q14 -14 22 -29q5 -16 7.5 -26.5t3.5 -22.5q0 -12 -2 -24.5t-1 -18.5q8 2 21.5 7t27 12.5t24.5 18t14 22.5l5 17l-32 -17
q-10 5 -10 35l16 80q-5 0 -11 -2q-1 -1 -24 -1l5 10q8 18 21 33t28 26t30 17.5t29 6.5q24 0 31 -9t9 -23q2 -13 2.5 -25.5t-6.5 -37.5q-10 -13 0 -13q5 1 13 -1q5 -1 7.5 -2.5t4.5 -1.5q2 -2 8.5 -9.5t8.5 -11.5l2 6q7 24 7 47q0 24 -0.5 48t0 48.5t8.5 49.5l1 4l3 9
q10 -20 13 -45.5t2.5 -53.5t-2.5 -57t-1 -56q0 -10 2 -18.5t3.5 -16.5t2 -16.5t-2.5 -19.5q-5 -18 -17.5 -31t-17.5 -29q-1 -3 -1.5 -6.5t-1.5 -5.5q8 -15 15.5 -34t12.5 -40.5t5.5 -44t-5.5 -44.5q-3 -10 -8.5 -22.5t-13 -23.5t-17 -18.5t-20.5 -7.5q-8 0 -10 12.5t0 20.5
q-4 -13 -13.5 -27t-22.5 -14q1 -3 3 -10.5t5 -15.5t5.5 -15.5l3.5 -10.5l-0.5 -3t-1.5 -6q-3 -11 -12 -19t-19.5 -13t-20.5 -7t-16 -2q-7 -28 -16.5 -52t-23 -41.5t-32 -27.5t-43.5 -10q4 15 12 26t16.5 22t16 22.5t12.5 26.5zM470 395q-6 0 -16 -8t-19.5 -19.5t-17.5 -23
t-10 -18.5q12 0 22 7t18.5 17t14 22t8.5 23zM379 231q-2 -6 -3.5 -14t-1.5 -15t2.5 -12t8.5 -5q6 19 10.5 31t9.5 23t11.5 23.5t16.5 33.5l1 5l1 4q-17 -12 -33 -32t-23 -42zM404 405q-2 -5 3.5 -7t10.5 -2h5q8 0 15.5 1t15.5 8q-2 3 -5 9t-5 7h-3h-4q-1 -1 -6 -3
t-10.5 -4.5t-10.5 -5t-6 -3.5zM440 551q20 7 22 -5t0 -32q-1 -12 -1 -22t1.5 -17.5t6.5 -11.5t15 -4h3q2 0 4.5 3t4.5 6l1 1.5t2 3.5l-1 3q-1 4 -2.5 17t-3.5 21q-3 7 0.5 14t8.5 15h27q0 1 -1 3.5t0 4.5q0 5 -4.5 14.5t-7.5 16t-4 7.5q-2 0 -11.5 -3t-21 -8t-22.5 -12
t-16 -15zM187 495q-5 -14 9 -20t28 -6q6 20 5.5 33.5t-24.5 17.5q-9 -6 -12.5 -11.5t-5.5 -13.5zM215 435q-8 0 -12 -12q-3 -13 5 -13t11 13q4 12 -4 12zM387 295q-1 3 -3.5 2t-5.5 -4t-4.5 -6t-0.5 -4q4 -3 9 1.5t5 10.5zM265 395q-11 -30 -32 -30q8 26 32 30zM262 420
q8 0 5 -12q-4 -13 -12 -13t-4 13q3 12 11 12zM256 433q8 0 4 -13q-3 -12 -11 -12t-5 12q4 13 12 13zM517 423q-8 0 -11 -13q-5 -12 4 -12l12 12q3 13 -5 13zM463 458l-13 -13h10zM493 458q-8 0 -11 -13q-5 -12 4 -12q7 0 12 12q3 13 -5 13zM380 483q-8 0 -11 -13
q-5 -12 4 -12q7 0 12 12q3 13 -5 13zM422 686q-4 -12 4 -17.5t17 -5.5q3 11 1.5 17t-13.5 6h-9zM269 578q-15 15 -20 15h-10q-6 0 -7 1l5 -10l-1 -5l-1 -5q-3 -3 -6.5 -6t-4.5 -4q6 -4 10 -11.5t8 -14.5t9 -12t12 -5t13 11.5t9 20.5z" />
    <glyph glyph-name="FL00BFh" unicode="&#xbf;" horiz-adv-x="564" 
d="M411 322q-4 -4 -21 -9t-39 -15t-46 -27.5t-43 -46.5q-21 -31 -23.5 -50t7.5 -28.5t29 -12.5t42.5 -2t48 3t44.5 2q9 0 54.5 12t130.5 46l-47 -167q-1 -1 -10.5 -5t-14.5 -5q-26 -6 -59 -10t-68 -6t-68.5 -3t-58.5 -1q-47 0 -89 7.5t-69 33t-33.5 75.5t17.5 136
q15 51 37 80t49 45.5t57.5 24t62.5 14.5t64.5 18.5t62.5 35.5q10 4 22 8.5t22 11.5t16 16.5t5 22.5q0 21 13 30l147 -3q-11 -36 -18 -58.5t-17 -37.5t-25 -26t-40 -25zM534 653q-7 0 -6 7.5t3 12.5l9 32q8 26 18.5 54.5t25.5 48.5q20 2 39 1t34 -1t31.5 -0.5t40.5 -0.5
l-6 -21l-4 -16q-3 -11 -8.5 -26.5t-11.5 -31t-12 -29.5t-11 -22q-2 -2 -5.5 -6t-5.5 -4z" />
    <glyph glyph-name="FL00C0h" unicode="&#xc0;" horiz-adv-x="841" 
d="M368 337q-1 -1 -1 -3v-2q0 -2 2 -6t3 -4h163l-12 220l-6 13l-147 -213l-1 -2t-1 -3zM33 32q92 103 176.5 215.5t165.5 224.5q4 6 18.5 27.5t32 47t34.5 49.5t25 36q17 26 29.5 50t25 44.5t29 37t42.5 28.5q8 4 18.5 9.5t22 10t22.5 8t19 3.5q5 0 8 -1.5t4 -9.5l54 -620
q4 -39 14.5 -80t30.5 -70q4 -5 12.5 -9t5.5 -16q0 -1 -1.5 -3l-1.5 -2q-2 -2 -5 -6t-5 -4h-248q-6 0 -6.5 17t1 42t3 54.5t0 54.5t-8 41t-20.5 15l-43 -3q-24 -2 -58 -4.5t-68.5 -8.5t-63.5 -17.5t-43 -30.5l-109 -160l-11 -10q-1 0 -11.5 -0.5t-15.5 -0.5h-9q-5 0 -11 0.5
t-11 0.5h-6q-5 0 -13 1.5t-15 3t-12 3t-5 2.5zM592 1056l121 -1q2 0 2.5 -4t2.5 -6q7 -11 17 -37t19 -53.5t15 -48.5l6 -21l-6 -21q-24 0 -42 -0.5t-33 -0.5t-29.5 0.5t-32.5 2.5q-1 13 -11.5 36t-21.5 48t-18.5 48.5t-3.5 37.5l5 12.5t10 7.5z" />
    <glyph glyph-name="FL00C1h" unicode="&#xc1;" horiz-adv-x="841" 
d="M33 32l-8 -30q0 -1 5 -2.5t12 -3t15 -3t13 -1.5h6q5 0 11 -0.5t11 -0.5h9q5 0 15.5 0.5t11.5 0.5l11 10l109 160q14 19 43 30.5t63.5 17.5t68.5 8.5t58 4.5l43 3q14 1 20.5 -15t8 -41t0 -54.5t-3 -54.5t-1 -42t6.5 -17h248q2 0 5 4t5 6l1.5 2t1.5 3q3 12 -5.5 16t-12.5 9
q-20 29 -30.5 70t-14.5 80l-54 620q-1 8 -4 9.5t-8 1.5q-8 0 -19 -3.5t-22.5 -8t-22 -10t-18.5 -9.5q-26 -12 -42.5 -28.5t-29 -37t-25 -44.5t-29.5 -50q-8 -12 -25 -36t-34.5 -49.5t-32 -47t-18.5 -27.5q-81 -112 -165.5 -224.5t-176.5 -215.5zM368 337q0 1 1 3l1 2
l147 213l6 -13l12 -220h-163q-1 0 -3 4t-2 6v2t1 3zM828 1053l-121 -1q-2 0 -5.5 -4t-5.5 -6q-10 -8 -24.5 -23t-31 -32.5t-33 -35.5t-30 -33t-22 -25t-8.5 -11l-6 -21q24 0 41 -0.5t32 -0.5t30 0.5t33 2.5q9 13 32.5 36t49 48t46.5 48.5t25 37.5q2 5 3 12.5t-5 7.5z" />
    <glyph glyph-name="FL00C2h" unicode="&#xc2;" horiz-adv-x="841" 
d="M33 32l-8 -30q0 -1 5 -2.5t12 -3t15 -3t13 -1.5h6q5 0 11 -0.5t11 -0.5h9q5 0 15.5 0.5t11.5 0.5l11 10l109 160q14 19 43 30.5t63.5 17.5t68.5 8.5t58 4.5l43 3q14 1 20.5 -15t8 -41t0 -54.5t-3 -54.5t-1 -42t6.5 -17h248q2 0 5 4t5 6l1.5 2t1.5 3q3 12 -5.5 16t-12.5 9
q-20 29 -30.5 70t-14.5 80l-54 620q-1 8 -4 9.5t-8 1.5q-8 0 -19 -3.5t-22.5 -8t-22 -10t-18.5 -9.5q-26 -12 -42.5 -28.5t-29 -37t-25 -44.5t-29.5 -50q-8 -12 -25 -36t-34.5 -49.5t-32 -47t-18.5 -27.5q-81 -112 -165.5 -224.5t-176.5 -215.5zM368 337q0 1 1 3l1 2
l147 213l6 -13l12 -220h-163q-1 0 -3 4t-2 6v2t1 3zM667 1056q-7 0 -9.5 -6t-4.5 -11q-15 -13 -39.5 -38.5t-48 -52t-41 -46t-17.5 -20.5l-6 -21q24 0 41.5 -0.5t32.5 -0.5q8 0 11 -0.5t8 -0.5h9h5q6 0 10 1q3 4 12.5 16t21.5 26t24.5 27.5t21.5 21.5q3 -8 7.5 -21t9 -26.5
t7.5 -25t3 -15.5q4 -1 8 -1h7h9q5 0 9 0.5t11 0.5q15 0 33 0.5t42 0.5l6 21q0 1 -6 21t-14.5 46t-18.5 52t-18 38q3 9 -4 11q-2 2 -1 2z" />
    <glyph glyph-name="FL00C3h" unicode="&#xc3;" horiz-adv-x="841" 
d="M33 32l-8 -30q0 -1 5 -2.5t12 -3t15 -3t13 -1.5h6q5 0 11 -0.5t11 -0.5h9q5 0 15.5 0.5t11.5 0.5l11 10l109 160q13 19 43 30.5t64.5 18.5t68.5 9.5t57 2.5h27q19 0 29.5 -16.5t14 -41t3.5 -53.5q0 -28 -1.5 -52.5t-2 -41t3.5 -16.5h248q2 0 5 4t5 6l1.5 2t1.5 3
q3 12 -5.5 16t-12.5 9q-20 29 -30.5 70t-14.5 80l-54 620q-1 8 -4 9.5t-8 1.5q-8 0 -19 -3.5t-22.5 -8t-22 -10t-18.5 -9.5q-26 -12 -42.5 -28.5t-29 -37t-25 -44.5t-29.5 -50q-8 -12 -25 -36t-34.5 -49.5t-32 -47t-18.5 -27.5q-81 -112 -165.5 -224.5t-176.5 -215.5z
M368 337q0 1 1 3l1 2l147 213l6 -13l12 -220h-163q-1 0 -3 4t-2 6v2t1 3zM465 820l-1 -4q2 -4 10.5 -7t10.5 -3q3 1 11.5 11.5t18 23.5t18 24.5t10.5 14.5h279q1 1 5 6.5t8 9.5q14 22 25 37t19.5 29t15.5 29.5t14 39.5q3 11 -2.5 15t-13.5 4h-4l-45 -60q-4 -2 -11 -6t-8 -4
h-270q-1 -1 -6 -8.5t-8 -12.5q-8 -15 -19 -32.5t-22 -35.5t-20.5 -36t-14.5 -35z" />
    <glyph glyph-name="FL00C4h" unicode="&#xc4;" horiz-adv-x="841" 
d="M368 337q-1 -1 -1 -3v-2q0 -2 2 -6t3 -4h163l-12 220l-6 13l-147 -213l-1 -2t-1 -3zM33 32q92 103 176.5 215.5t165.5 224.5q4 6 18.5 27.5t32 47t34.5 49.5t25 36q17 26 29.5 50t25 44.5t29 37t42.5 28.5q8 4 18.5 9.5t22 10t22.5 8t19 3.5q5 0 8 -1.5t4 -9.5l54 -620
q4 -39 14.5 -80t30.5 -70q4 -5 12.5 -9t5.5 -16q0 -1 -1.5 -3l-1.5 -2q-2 -2 -5 -6t-5 -4h-248q-4 0 -3.5 16.5t2 41t1.5 52.5q0 29 -3.5 53.5t-14 41t-29.5 16.5h-27q-23 0 -57 -2.5t-68.5 -9.5t-64.5 -18.5t-43 -30.5l-109 -160l-11 -10q-1 0 -11.5 -0.5t-15.5 -0.5h-9
q-5 0 -11 0.5t-11 0.5h-6q-5 0 -13 1.5t-15 3t-12 3t-5 2.5zM690 1020q6 0 5.5 -7.5t-2.5 -12.5l-9 -32q-8 -26 -18 -54.5t-25 -48.5q-20 -2 -34.5 -2.5t-29.5 -0.5t-32.5 0.5t-41.5 0.5l6 21l5 16q3 11 8 26.5t11 31t12.5 29.5t12.5 22q2 2 5.5 6t5.5 4zM884 1021
q7 0 6 -7.5t-3 -12.5l-9 -32q-8 -26 -18.5 -54.5t-25.5 -48.5q-19 -2 -34 -2.5t-30 -0.5t-31.5 0.5t-40.5 0.5l6 21l4 16q3 11 8 26.5t11 31t12.5 29.5t12.5 22q1 2 4.5 6t5.5 4z" />
    <glyph glyph-name="FL00C5h" unicode="&#xc5;" horiz-adv-x="841" 
d="M368 337q-1 -1 -1 -3v-2q0 -2 2 -6t3 -4h163l-12 220l-6 13l-147 -213l-1 -2t-1 -3zM33 32q92 103 176.5 215.5t165.5 224.5q4 6 18.5 27.5t32 47t34.5 49.5t25 36q17 26 29.5 50t25 44.5t29 37t42.5 28.5q8 4 18.5 9.5t22 10t22.5 8t19 3.5q5 0 8 -1.5t4 -9.5l54 -620
q4 -39 14.5 -80t30.5 -70q4 -5 12.5 -9t5.5 -16q0 -1 -1.5 -3l-1.5 -2q-2 -2 -5 -6t-5 -4h-248q-4 0 -3.5 16.5t2 41t1.5 52.5q0 29 -3.5 53.5t-14 41t-29.5 16.5h-27q-23 0 -57 -2.5t-68.5 -9.5t-64.5 -18.5t-43 -30.5l-109 -160l-11 -10q-1 0 -11.5 -0.5t-15.5 -0.5h-9
q-5 0 -11 0.5t-11 0.5h-6q-5 0 -13 1.5t-15 3t-12 3t-5 2.5zM774 1022q7 0 6 -7.5t-3 -12.5l-9 -32q-8 -26 -18.5 -54.5t-24.5 -48.5q-20 -2 -34.5 -2.5t-29.5 -0.5t-32.5 0.5t-41.5 0.5l6 21l5 16q3 11 8 26.5t11 31t12.5 29.5t12.5 22q2 2 5.5 6t5.5 4z" />
    <glyph glyph-name="FL00C6h" unicode="&#xc6;" horiz-adv-x="1198" 
d="M33 32l-8 -30q0 -1 5 -2.5t12 -3t15 -3t13 -1.5h6q5 0 11 -0.5t11 -0.5h9q5 0 15.5 0.5t11.5 0.5l11 10l109 160q13 19 43 30.5t64.5 18.5t68.5 9.5t57 2.5h27q19 0 29.5 -16.5t14 -41t3.5 -53.5q0 -28 -1.5 -52.5t-2 -41t3.5 -16.5h18q0 -2 2 -2h408q25 0 60 10.5
t69.5 31t62.5 50.5t39 69q-44 0 -86.5 -6t-85.5 -6q-24 0 -50 -0.5t-51.5 1t-49 6t-43.5 14.5q34 34 70.5 64.5t73 60.5t72.5 60.5t71 64.5q2 1 2.5 4.5t1.5 5.5q1 5 -7 21t-21.5 38t-30 48.5t-33 52t-30 48.5t-19.5 39q3 1 11 3t18 3.5t18.5 2.5t11.5 1q12 1 42.5 4.5
t64.5 7t64.5 6t42.5 2.5q19 16 45.5 40.5t44.5 49.5l0.5 2t0.5 3t0.5 3l0.5 2q0 7 -5 10q-5 -1 -17 -3t-25 -3.5t-25 -2.5t-16 -1q-14 0 -43 -0.5t-65 -0.5h-153q-36 0 -64.5 0.5t-42.5 0.5q-2 -2 -6.5 -6t-10 -8.5t-10 -9t-5.5 -6.5q-11 -11 -26.5 -27.5t-30.5 -32.5
t-25.5 -27.5t-10.5 -12.5l-6 -20l151 -331l-176 -122l-52 608q-1 8 -4 9.5t-8 1.5q-8 0 -19 -3.5t-22.5 -8t-22 -10t-18.5 -9.5q-26 -12 -42.5 -28.5t-29 -37t-25 -44.5t-29.5 -50q-8 -12 -25 -36t-34.5 -49.5t-32 -47t-18.5 -27.5q-81 -112 -165.5 -224.5t-176.5 -215.5z
M368 337q0 1 1 3l1 2l147 213l6 -13l12 -220h-163q-1 0 -3 4t-2 6v2t1 3z" />
    <glyph glyph-name="FL00C7h" unicode="&#xc7;" horiz-adv-x="712" 
d="M689 752l84 -88l74 8q28 34 42 56.5t19 38.5q5 17 2 31t-11 31h-273q-38 -4 -73.5 -11.5t-70.5 -20t-69.5 -32t-69.5 -48.5q-70 -57 -124.5 -143.5t-88.5 -204.5q-25 -87 -13.5 -153t47 -111.5t89.5 -71.5t114 -33q-18 -18 -44.5 -35.5t-51 -32t-41.5 -24l-17 -9.5
l27 -63q24 0 41.5 -0.5t32.5 -0.5t29.5 0.5t34.5 2.5q6 9 18.5 27.5t28.5 41t32.5 47t30.5 46.5h173l35 117q-125 -6 -209.5 -14t-126.5 4l-11 4q1 -1 8 -3l-10 6q-21 21 -26.5 53t-1.5 71.5t15 84t24 89.5q16 55 38 115t53.5 110t73 82t97.5 32z" />
    <glyph glyph-name="FL00C8h" unicode="&#xc8;" horiz-adv-x="650" 
d="M28 15q1 1 1.5 2.5t1.5 2.5q4 6 15 22t24 33.5t24 33t16 21.5q2 2 10.5 10t11.5 10l253 176l-151 331l6 20q0 1 10.5 12.5t25.5 27.5t30.5 32.5t26.5 27.5q1 2 5.5 6.5t10 9t10 8.5t6.5 6q14 0 42.5 -0.5t64.5 -0.5h77h76q36 0 65 0.5t43 0.5q4 0 16 1t25 2.5t25 3.5
t17 3q5 -3 5 -10l-0.5 -2t-0.5 -3t-0.5 -3l-0.5 -2q-18 -25 -44.5 -49.5t-45.5 -40.5q-12 0 -42.5 -2.5t-64.5 -6t-64.5 -7t-42.5 -4.5q-3 0 -11.5 -1t-18.5 -2.5t-18 -3.5t-11 -3q6 -16 19.5 -39t30 -48.5t33 -52t30 -48.5t22 -38t6.5 -21q-1 -2 -1.5 -5.5t-2.5 -4.5
q-35 -34 -71 -64.5t-72.5 -60.5t-73 -60.5t-70.5 -64.5q20 -10 43.5 -14.5t49 -6t51.5 -1t50 0.5q43 0 85.5 6t86.5 6q-11 -39 -39 -69t-62.5 -50.5t-69.5 -31t-60 -10.5h-408q-1 0 -2.5 4t-2.5 6v5zM520 1055l120 -1q2 0 2.5 -4t2.5 -6q7 -12 17 -38t19 -52.5t15.5 -47.5
t5.5 -22l-6 -21q-24 0 -41.5 -0.5t-32.5 -0.5t-29.5 0.5t-32.5 2.5q-1 13 -11.5 36t-21.5 48t-18.5 48.5t-3.5 37.5l5 12.5t10 7.5z" />
    <glyph glyph-name="FL00C9h" unicode="&#xc9;" horiz-adv-x="650" 
d="M28 15v-5q1 -2 2.5 -6t2.5 -4h408q25 0 60 10.5t69.5 31t62.5 50.5t39 69q-44 0 -86.5 -6t-85.5 -6q-24 0 -50 -0.5t-51.5 1t-49 6t-43.5 14.5q34 34 70.5 64.5t73 60.5t72.5 60.5t71 64.5q2 1 2.5 4.5t1.5 5.5q1 5 -7 21t-21.5 38t-30 48.5t-33 52t-30 48.5t-19.5 39
q3 1 11 3t18 3.5t18.5 2.5t11.5 1q12 1 42.5 4.5t64.5 7t64.5 6t42.5 2.5q19 16 45.5 40.5t44.5 49.5l0.5 2t0.5 3t0.5 3l0.5 2q0 7 -5 10q-5 -1 -17 -3t-25 -3.5t-25 -2.5t-16 -1q-14 0 -43 -0.5t-65 -0.5h-76h-77q-36 0 -64.5 0.5t-42.5 0.5q-2 -2 -6.5 -6t-10 -8.5
t-10 -9t-5.5 -6.5q-11 -11 -26.5 -27.5t-30.5 -32.5t-25.5 -27.5t-10.5 -12.5l-6 -20l151 -331l-253 -176q-3 -2 -11.5 -10t-10.5 -10q-5 -6 -16 -21.5t-24 -33t-24 -33.5t-15 -22q-1 -1 -1.5 -2.5t-1.5 -2.5zM766 1054l-121 -1q-2 0 -5 -4t-6 -6q-9 -8 -23.5 -22.5t-31 -32
t-33.5 -36t-30.5 -34t-22 -25.5l-8.5 -10l-6 -21q24 0 41.5 -0.5t32.5 -0.5t29.5 0.5t34.5 2.5q9 13 32 36t48.5 48t46.5 48.5t25 37.5q2 5 3 12.5t-6 7.5z" />
    <glyph glyph-name="FL00CAh" unicode="&#xca;" horiz-adv-x="650" 
d="M28 15v-5q1 -2 2.5 -6t2.5 -4h408q25 0 60 10.5t69.5 31t62.5 50.5t39 69q-44 0 -86.5 -6t-85.5 -6q-24 0 -50 -0.5t-51.5 1t-49 6t-43.5 14.5q34 34 70.5 64.5t73 60.5t72.5 60.5t71 64.5q2 1 2.5 4.5t1.5 5.5q1 5 -7 21t-21.5 38t-30 48.5t-33 52t-30 48.5t-19.5 39
q3 1 11 3t18 3.5t18.5 2.5t11.5 1q12 1 42.5 4.5t64.5 7t64.5 6t42.5 2.5q19 16 45.5 40.5t44.5 49.5l0.5 2t0.5 3t0.5 3l0.5 2q0 7 -5 10q-5 -1 -17 -3t-25 -3.5t-25 -2.5t-16 -1q-14 0 -43 -0.5t-65 -0.5h-76h-77q-36 0 -64.5 0.5t-42.5 0.5q-2 -2 -6.5 -6t-10 -8.5
t-10 -9t-5.5 -6.5q-11 -11 -26.5 -27.5t-30.5 -32.5t-25.5 -27.5t-10.5 -12.5l-6 -20l151 -331l-253 -176q-3 -2 -11.5 -10t-10.5 -10q-5 -6 -16 -21.5t-24 -33t-24 -33.5t-15 -22q-1 -1 -1.5 -2.5t-1.5 -2.5zM576 1057q-7 0 -9.5 -6t-4.5 -11q-15 -13 -39.5 -38.5t-48 -52
t-41 -46t-17.5 -20.5l-6 -21q24 0 41.5 -0.5t32.5 -0.5q7 0 11 -0.5t9 -0.5h9h5q6 0 9 1q3 4 12.5 16t21.5 26t24.5 27.5t21.5 21.5q3 -8 7.5 -21t9 -26.5t7.5 -25t4 -15.5q2 -1 7 -1h7h9q5 0 9.5 0.5t11.5 0.5q15 0 32.5 0.5t41.5 0.5l6 21q0 1 -5.5 21t-14.5 46t-19 52
t-18 38q2 10 -4 11q0 1 -0.5 1.5l-0.5 0.5z" />
    <glyph glyph-name="FL00CBh" unicode="&#xcb;" horiz-adv-x="650" 
d="M28 15q1 1 1.5 2.5t1.5 2.5q4 6 15 22t24 33.5t24 33t16 21.5q2 2 10.5 10t11.5 10l253 176l-151 331l6 20q0 1 10.5 12.5t25.5 27.5t30.5 32.5t26.5 27.5q1 2 5.5 6.5t10 9t10 8.5t6.5 6q14 0 42.5 -0.5t64.5 -0.5h77h76q36 0 65 0.5t43 0.5q4 0 16 1t25 2.5t25 3.5
t17 3q5 -3 5 -10l-0.5 -2t-0.5 -3t-0.5 -3l-0.5 -2q-18 -25 -44.5 -49.5t-45.5 -40.5q-12 0 -42.5 -2.5t-64.5 -6t-64.5 -7t-42.5 -4.5q-3 0 -11.5 -1t-18.5 -2.5t-18 -3.5t-11 -3q6 -16 19.5 -39t30 -48.5t33 -52t30 -48.5t22 -38t6.5 -21q-1 -2 -1.5 -5.5t-2.5 -4.5
q-35 -34 -71 -64.5t-72.5 -60.5t-73 -60.5t-70.5 -64.5q20 -10 43.5 -14.5t49 -6t51.5 -1t50 0.5q43 0 85.5 6t86.5 6q-11 -39 -39 -69t-62.5 -50.5t-69.5 -31t-60 -10.5h-408q-1 0 -2.5 4t-2.5 6v5zM601 1020q7 0 6.5 -7.5t-2.5 -12.5l-9 -32q-8 -26 -18.5 -54.5
t-25.5 -48.5q-20 -2 -34.5 -2.5t-29.5 -0.5t-32.5 0.5t-41.5 0.5l6 21l5 16q3 11 8 26.5t11 31t12.5 29.5t12.5 22q2 2 5.5 6t5.5 4zM795 1021q7 0 6 -7.5t-3 -12.5l-9 -32q-8 -26 -18 -54.5t-25 -48.5q-20 -2 -35 -2.5t-30 -0.5t-31.5 0.5t-40.5 0.5l6 21l4 16q3 11 8 26.5
t11 31t13 29.5t13 22q0 2 4 6t6 4z" />
    <glyph glyph-name="FL00CCh" unicode="&#xcc;" horiz-adv-x="646" 
d="M259 128h1l159 542l-5 10q-1 0 -11.5 0.5t-17.5 0.5q-29 0 -55 -3t-53 -9q-2 0 -8.5 -3t-14.5 -7t-14.5 -7t-8.5 -3q-2 -1 -10.5 -2t-10.5 -1q6 19 16 42t22 45t24 42t21 34h8q36 0 67.5 -1.5t62.5 -3.5t63 -3.5t69 -1.5q40 0 75.5 1.5t70 3.5t70 3.5t75.5 1.5l-6 -20
l-98 -90q-6 0 -16.5 -1t-22 -2.5t-22 -3t-16.5 -2.5t-14.5 -2.5t-16.5 -3t-14 -3l-6 -1.5l-22 -50l-7 -23q-6 -20 -13.5 -45.5t-15.5 -52.5l-12 -41q-24 -85 -44.5 -167.5t-43.5 -167.5l3 -5q1 0 11 -0.5t17 -0.5q29 0 53 2t52 8q2 0 8.5 3t14.5 7t14.5 7t8.5 3q2 1 10.5 2
t10.5 1q-6 -20 -16 -42.5t-22 -44.5t-24 -42t-21 -34h-8q-60 0 -115 2.5t-117.5 4.5t-139.5 1t-181 -8l6 20l98 90q7 0 18 1.5t23 3t23 3.5t17 3t14.5 2.5t16.5 3t14 3zM491 1055l120 -1q2 0 2.5 -4t2.5 -6q7 -12 17 -38t19 -52.5t15.5 -47.5t5.5 -22l-6 -21
q-24 0 -41.5 -0.5t-32.5 -0.5t-29.5 0.5t-32.5 2.5q-1 13 -11.5 36t-21.5 48t-18.5 48.5t-3.5 37.5l5 12.5t10 7.5z" />
    <glyph glyph-name="FL00CDh" unicode="&#xcd;" horiz-adv-x="646" 
d="M259 128l-6 -1.5t-14 -3t-16.5 -3t-14.5 -2.5t-17 -3t-23 -3.5t-23 -3t-18 -1.5l-98 -90l-6 -20q104 7 181 8t139.5 -1t117.5 -4.5t115 -2.5h8q9 14 21 34t24 42t22 44.5t16 42.5q-2 0 -10.5 -1t-10.5 -2q-2 0 -8.5 -3t-14.5 -7t-14.5 -7t-8.5 -3q-28 -6 -52 -8t-53 -2
q-7 0 -17 0.5t-11 0.5l-3 5q23 85 43.5 167.5t44.5 167.5l12 41q8 27 15.5 52.5t13.5 45.5l7 23l22 50l6 1.5t14 3t16.5 3t14.5 2.5t16.5 2.5t22 3t22 2.5t16.5 1l98 90l6 20q-40 0 -75.5 -1.5t-70 -3.5t-70 -3.5t-75.5 -1.5q-37 0 -69 1.5t-63 3.5t-62.5 3.5t-67.5 1.5h-8
q-9 -14 -21 -34t-24 -42t-22 -45t-16 -42q2 0 10.5 1t10.5 2q2 0 8.5 3t14.5 7t14.5 7t8.5 3q27 6 53 9t55 3q7 0 17.5 -0.5t11.5 -0.5l5 -10l-159 -542h-1zM754 1056l-121 -1q-2 0 -5 -4t-6 -6q-9 -7 -24 -21.5t-31.5 -32.5t-33 -36.5t-30 -34t-22 -25.5l-8.5 -10l-6 -21
q24 0 41 -0.5t32 -0.5t29.5 0.5t34.5 2.5q9 13 32 36t48.5 48t47 48.5t25.5 37.5q2 5 3 12.5t-6 7.5z" />
    <glyph glyph-name="FL00CFh" unicode="&#xce;" horiz-adv-x="701" 
d="M285 128q-1 0 -7 -1.5t-14 -3t-16.5 -3t-13.5 -2.5q-7 -1 -22 -3t-31.5 -3.5t-31.5 -2.5t-22 -1l-98 -90l-6 -20q104 7 189.5 8t158.5 -1t136.5 -4.5t123.5 -2.5h8q9 14 21 34t24 42t22 44.5t16 42.5q-2 0 -10.5 -1t-10.5 -2q-2 0 -8.5 -3t-14 -7t-14 -7t-8.5 -3
q-14 -3 -31.5 -5t-35.5 -3.5t-35.5 -2t-32.5 -0.5q-7 0 -17 0.5t-11 0.5l-3 5q23 85 43.5 167.5t44.5 167.5l12 41q8 27 15.5 52.5t13.5 45.5l7 23l22 50l6 1.5t14 3t16.5 3t14.5 2.5t21.5 3t32 3.5t32 2.5t21.5 1l98 90l5 20q-81 0 -160.5 -5.5t-159.5 -5.5q-75 0 -145 5.5
t-143 5.5h-8q-9 -14 -20.5 -34t-23.5 -42t-22.5 -45t-15.5 -42q2 0 10 1t10 2q2 0 8.5 3t14.5 7t14.5 7t8.5 3q13 3 30.5 5t35.5 3.5t36 2t32 0.5q7 0 17.5 -0.5t11.5 -0.5l5 -10l-159 -542h-1zM585 1058q-6 0 -8 -6t-4 -11q-15 -13 -39.5 -38.5t-48.5 -52t-41.5 -46
t-17.5 -20.5l-6 -21q24 0 41 -0.5t32 -0.5q8 0 12 -0.5t8 -0.5h9h6q5 0 9 1l12 16t21 26t24.5 27.5t21.5 21.5q3 -8 8 -21t9.5 -26.5t7.5 -25t4 -15.5q3 -1 8 -1h6h10q4 0 8 0.5t12 0.5q15 0 32 0.5t41 0.5l6 21q0 1 -5.5 21t-14 46t-18.5 52t-18 38q2 9 -3 11q-2 2 -3 2z
" />
    <glyph glyph-name="FL00D1h" unicode="&#xcf;" horiz-adv-x="646" 
d="M259 128h1l159 542l-5 10q-1 0 -11.5 0.5t-17.5 0.5q-29 0 -55 -3t-53 -9q-2 0 -8.5 -3t-14.5 -7t-14.5 -7t-8.5 -3q-2 -1 -10.5 -2t-10.5 -1q6 19 16 42t22 45t24 42t21 34h8q36 0 67.5 -1.5t62.5 -3.5t63 -3.5t69 -1.5q40 0 75.5 1.5t70 3.5t70 3.5t75.5 1.5l-6 -20
l-98 -90q-6 0 -16.5 -1t-22 -2.5t-22 -3t-16.5 -2.5t-14.5 -2.5t-16.5 -3t-14 -3l-6 -1.5l-22 -50l-7 -23q-6 -20 -13.5 -45.5t-15.5 -52.5l-12 -41q-24 -85 -44.5 -167.5t-43.5 -167.5l3 -5q1 0 11 -0.5t17 -0.5q29 0 53 2t52 8q2 0 8.5 3t14.5 7t14.5 7t8.5 3q2 1 10.5 2
t10.5 1q-6 -20 -16 -42.5t-22 -44.5t-24 -42t-21 -34h-8q-60 0 -115 2.5t-117.5 4.5t-139.5 1t-181 -8l6 20l98 90q7 0 18 1.5t23 3t23 3.5t17 3t14.5 2.5t16.5 3t14 3zM586 1017q7 0 6 -7.5t-3 -12.5l-9 -32q-8 -26 -18 -54.5t-25 -48.5q-20 -2 -35 -2.5t-30 -0.5
t-31.5 0.5t-40.5 0.5l6 21l4 16q3 11 8 26.5t11 31t12.5 29.5t12.5 22q1 2 5 6t6 4zM780 1018q7 0 6 -7.5t-3 -12.5l-9 -32q-8 -26 -18.5 -54.5t-25.5 -48.5q-19 -2 -33.5 -2.5t-29.5 -0.5t-32.5 0.5t-41.5 0.5l6 21l4 16q3 11 8.5 26.5t11.5 31t12.5 29.5t12.5 22
q2 2 5.5 6t5.5 4z" />
    <glyph glyph-name="FL00D0h" unicode="&#xd0;" horiz-adv-x="927" 
d="M112 307l-1 -4q2 -4 10.5 -7t10.5 -3q3 1 9 5.5t12.5 10t12.5 11t8 8.5h114l-94 -328h356q71 0 141.5 21.5t131.5 66.5t109.5 115t76.5 166q34 117 25.5 195.5t-46.5 135.5q-18 29 -41 48.5t-50.5 32t-59.5 20t-67 11.5h-345q-18 -17 -28.5 -26.5t-15 -20.5t-2 -29
t10.5 -52l-56 -197h-122q-1 0 -6 -7.5t-8 -12.5q-8 -15 -21 -35.5t-25.5 -42.5t-23.5 -43.5t-16 -38.5zM591 735l139 -1q37 0 60 -13.5t35 -37t14.5 -55t-1.5 -67.5t-13 -74t-20 -75q-13 -45 -28 -90.5t-33.5 -86t-43 -73.5t-57.5 -54q-49 -28 -59 -30h-11h-38h-55h-36
q-19 0 -42 -1l72 252h138l4.5 5.5t8.5 9.5q14 22 26.5 40t23 35.5t19 36.5t15.5 43q3 11 -1.5 15t-12.5 4h-4l-30 -20q-4 -2 -11.5 -6l-7.5 -4h-122z" />
    <glyph glyph-name="FL00DFh" unicode="&#xd1;" horiz-adv-x="877" 
d="M153 171q-5 -17 -9.5 -46t-4.5 -57t6.5 -48.5t23.5 -20.5q8 0 32.5 3.5t51.5 10.5t49 17t26 24q28 97 50.5 190.5t50.5 190.5l13 45q9 32 19.5 67.5t19.5 67.5l13 45q0 18 7 28t17.5 14.5t21 5.5t17.5 2t27.5 3t45 3.5t47.5 2.5t34 1h17q10 0 21.5 -0.5t22.5 -0.5
q10 0 18 -0.5t13 -0.5l-203 -708l9 -10l195 40q2 0 5.5 4t5.5 6l1 4l2 6q5 35 8 64.5t13 65.5l135 470q12 42 28.5 61.5t32.5 31.5t30 23.5t21 36.5h-620l-119 2q-8 0 -25.5 -8t-35.5 -20t-33 -26t-18 -26q-2 -8 10.5 -13t27 -12t25 -18.5t4.5 -31.5l-129 -450
q-10 -9 -13.5 -18.5t-6.5 -20.5zM498 851l-1 -4q2 -4 10.5 -7t10.5 -3q3 1 11.5 11.5t18.5 23.5t18.5 24.5t10.5 14.5h278q2 1 6 6.5t7 9.5q15 22 25.5 37t19.5 29t16 29.5t14 39.5q3 11 -2.5 15t-13.5 4h-4l-45 -60q-4 -2 -11 -6t-8 -4h-271q0 -1 -5 -8.5t-9 -12.5
q-8 -15 -19 -32.5t-22 -35.5t-20.5 -36t-14.5 -35z" />
    <glyph glyph-name="FL00D2h" unicode="&#xd2;" 
d="M673 502q7 0 6 -7.5t-3 -12.5q-4 -14 -12.5 -29.5t-19.5 -31.5t-22.5 -31t-20.5 -28q-20 -2 -47.5 -4t-58 -3.5t-60 -2.5t-53.5 -1l6 21q0 1 8 14t19.5 30.5t23.5 36t20 29.5q2 2 5.5 6t5.5 4zM364 432q-10 -36 -19.5 -76t-14 -79t-3 -75t13 -63.5t34.5 -43.5t62 -16
q56 0 99.5 33.5t76 85t56 113t39.5 117.5q16 57 24.5 113.5t1.5 101t-33 72.5t-79 28q-76 0 -129 -50t-94 -141l-7 -24q-5 -17 -10.5 -36t-10.5 -36zM138 398q34 117 90 198t127.5 131.5t153.5 73t168 22.5q71 0 128.5 -22t93 -67t44 -115t-18.5 -166q-34 -117 -88 -203
t-123.5 -141.5t-152.5 -82.5t-174 -27q-78 0 -138 23t-94.5 71.5t-40 124t24.5 180.5zM593 1056l120 -1q2 0 3 -4t2 -6q7 -11 17 -37t19 -53.5t15.5 -48.5l6.5 -21l-6 -21q-24 0 -42 -0.5t-33 -0.5t-29.5 0.5t-32.5 2.5q-1 13 -11.5 36t-21.5 48t-18.5 48.5t-3.5 37.5
l5 12.5t10 7.5z" />
    <glyph glyph-name="FL00D3h" unicode="&#xd3;" 
d="M138 398q-30 -105 -24.5 -180.5t40 -124t94.5 -71.5t138 -23q91 0 174 27t152.5 82.5t123.5 141.5t88 203q27 96 18.5 166t-44 115t-93 67t-128.5 22q-86 0 -168 -22.5t-153.5 -73t-127.5 -131.5t-90 -198zM364 432l7 24q5 17 10.5 36t10.5 36l7 24q41 91 94 141t129 50
q53 0 79 -28t33 -72.5t-1.5 -101t-24.5 -113.5q-16 -56 -39.5 -117.5t-56 -113t-76 -85t-99.5 -33.5q-39 0 -62 16t-34.5 43.5t-13 63.5t3 75t14 79t19.5 76zM673 502l-203 -10q-2 0 -5.5 -4t-5.5 -6q-8 -11 -20 -29.5t-23.5 -36t-19.5 -30.5t-8 -14l-6 -21q24 0 53.5 1
t60 2.5t58 3.5t47.5 4q9 13 20.5 28t22.5 31t19.5 31.5t12.5 29.5q2 5 3 12.5t-6 7.5zM831 1056l-121 -1q-2 0 -5 -4t-6 -6q-9 -7 -24 -21.5t-31.5 -32.5t-33 -36.5t-30 -34t-22 -25.5l-8.5 -10l-6 -21q24 0 41 -0.5t32 -0.5t29.5 0.5t34.5 2.5q9 13 32 36t48.5 48t47 48.5
t25.5 37.5q2 5 3 12.5t-6 7.5z" />
    <glyph glyph-name="FL00D4h" unicode="&#xd4;" 
d="M138 398q-30 -105 -24.5 -180.5t40 -124t94.5 -71.5t138 -23q91 0 174 27t152.5 82.5t123.5 141.5t88 203q27 96 18.5 166t-44 115t-93 67t-128.5 22q-86 0 -168 -22.5t-153.5 -73t-127.5 -131.5t-90 -198zM364 432l7 24q5 17 10.5 36t10.5 36l7 24q41 91 94 141t129 50
q53 0 79 -28t33 -72.5t-1.5 -101t-24.5 -113.5q-16 -56 -39.5 -117.5t-56 -113t-76 -85t-99.5 -33.5q-39 0 -62 16t-34.5 43.5t-13 63.5t3 75t14 79t19.5 76zM653 1062q-7 0 -9.5 -6t-4.5 -11q-15 -13 -39.5 -38.5t-48 -52t-41 -46t-17.5 -20.5l-6 -21q24 0 41 -0.5t32 -0.5
q8 0 11.5 -0.5t8.5 -0.5h9h5q6 0 9 1q3 4 12.5 16t21.5 26t24.5 27.5t21.5 21.5q3 -8 7.5 -21t9 -26.5t8 -25t3.5 -15.5q4 -1 8 -1h7h9q5 0 9 0.5t11 0.5q15 0 32.5 0.5t41.5 0.5l6 21q0 1 -5.5 21t-14 46t-18.5 52t-18 38q2 9 -4 11l-2 2zM673 502l-203 -10q-2 0 -5.5 -4
t-5.5 -6q-8 -11 -20 -29.5t-23.5 -36t-19.5 -30.5t-8 -14l-6 -21q24 0 53.5 1t60 2.5t58 3.5t47.5 4q9 13 20.5 28t22.5 31t19.5 31.5t12.5 29.5q2 5 3 12.5t-6 7.5z" />
    <glyph glyph-name="FL00D5h" unicode="&#xd5;" 
d="M138 398q-30 -105 -24.5 -180.5t40 -124t94.5 -71.5t138 -23q91 0 174 27t152.5 82.5t123.5 141.5t88 203q27 96 18.5 166t-44 115t-93 67t-128.5 22q-86 0 -168 -22.5t-153.5 -73t-127.5 -131.5t-90 -198zM364 432l7 24l20 72l7 24q41 91 95 141t129 50q53 0 79 -28
t33 -72.5t-1.5 -101t-24.5 -113.5q-16 -56 -39.5 -117.5t-56 -113t-76 -85t-99.5 -33.5q-39 0 -62 16t-34.5 43.5t-13 63.5t3 75t14 79t19.5 76zM673 502l-203 -10q-2 0 -5.5 -4t-5.5 -6q-8 -11 -20 -29.5t-23.5 -36t-19.5 -30.5t-8 -14l-6 -21q24 0 53.5 1t60 2.5t58 3.5
t47.5 4q9 13 20.5 28t22.5 31t19.5 31.5t12.5 29.5q2 5 3 12.5t-6 7.5zM444 839l-2 -4q2 -4 11 -7t11 -3q3 1 11.5 11.5t18 23.5t18 24.5t11.5 14.5h278q1 1 5.5 6.5t6.5 9.5q15 22 25.5 37t19 29t15.5 29.5t14 39.5q3 11 -1.5 15t-12.5 4h-4l-46 -60q-4 -2 -11.5 -6
l-7.5 -4h-271q-1 -1 -5.5 -8.5t-8.5 -12.5q-8 -15 -19 -32.5t-22 -35.5t-20.5 -36t-13.5 -35z" />
    <glyph glyph-name="FL00D6h" unicode="&#xd6;" 
d="M673 502q7 0 6 -7.5t-3 -12.5q-4 -14 -12.5 -29.5t-19.5 -31.5t-22.5 -31t-20.5 -28q-20 -2 -47.5 -4t-58 -3.5t-60 -2.5t-53.5 -1l6 21q0 1 8 14t19.5 30.5t23.5 36t20 29.5q2 2 5.5 6t5.5 4zM364 432q-10 -36 -19.5 -76t-14 -79t-3 -75t13 -63.5t34.5 -43.5t62 -16
q56 0 99.5 33.5t76 85t56 113t39.5 117.5q16 57 24.5 113.5t1.5 101t-33 72.5t-79 28q-76 0 -129 -50t-94 -141l-7 -24q-5 -17 -10.5 -36t-10.5 -36zM138 398q34 117 90 198t127.5 131.5t153.5 73t168 22.5q71 0 128.5 -22t93 -67t44 -115t-18.5 -166q-34 -117 -88 -203
t-123.5 -141.5t-152.5 -82.5t-174 -27q-78 0 -138 23t-94.5 71.5t-40 124t24.5 180.5zM681 1022q7 0 6 -7.5t-3 -12.5l-9 -32q-8 -26 -18.5 -54.5t-24.5 -48.5q-20 -2 -34.5 -2.5t-29.5 -0.5t-32.5 0.5t-41.5 0.5l6 21l5 16q3 11 8 26.5t11 31t12.5 29.5t12.5 22q2 2 5.5 6
t5.5 4zM875 1023q6 0 5.5 -7.5t-2.5 -12.5l-10 -32q-8 -26 -17.5 -54.5t-24.5 -48.5q-20 -2 -34.5 -2.5t-29.5 -0.5t-32.5 0.5t-41.5 0.5l6 21l5 16q3 11 8 26.5t11 31t12.5 29.5t12.5 22q2 2 5.5 6t5.5 4z" />
    <glyph glyph-name="FL00D7h" unicode="&#xd7;" horiz-adv-x="434" 
d="M66 147l212 216l-4 16q-2 9 -9 31.5t-14.5 47.5t-14 47t-8.5 31q-3 10 -10 16t-12 11l5 17q5 0 18.5 1.5t29 3.5t28.5 3.5t18 1.5h2q3 0 6 0.5t6 0.5h4q2 0 6.5 -0.5l4.5 -0.5l35 -136l162 158l3 1l1 -1q2 -2 4.5 -5.5t1.5 -5.5l-26 -92l-128 -126l45 -177l23 -49l-1 -2
v-3q-2 -2 -4 -5.5t-4 -5.5h-2q-23 0 -48 7t-42 20q-8 6 -11.5 14.5t-6.5 18.5l-35 86q-1 2 -2.5 6.5t-2.5 4.5l-1 1q-1 0 -2.5 -0.5l-1.5 -0.5l-136 -130q-20 -19 -47 -28.5t-48 -14.5z" />
    <glyph glyph-name="FL00D8h" unicode="&#xd8;" 
d="M831 909l-74 -94q-40 8 -80 8q-86 0 -168 -22.5t-153.5 -73t-127.5 -131.5t-90 -198q-34 -118 -24 -198t57 -128l-51 -65q-2 -2 -2 -7t2 -7q3 -10 10.5 -22t16 -22.5t15.5 -17.5t8 -7l13 -9q7 10 27 37t50 65q54 -18 126 -18q91 0 174 27t152.5 82.5t123.5 141.5t88 203
q18 62 20.5 112.5t-8 90.5t-32 70t-52.5 51q22 29 36.5 49t19.5 27q-7 24 -25 34.5t-33 22.5l-9 4.5t-10 -5.5zM736 627q4 -45 -4.5 -96t-23.5 -103q-16 -56 -39.5 -117.5t-56 -113t-76 -85t-99.5 -33.5q-35 0 -57 12.5t-34 35.5q43 56 93 120t101 129.5t101.5 129.5
t94.5 121zM364 432l7 24q5 17 10.5 36t10.5 36l7 24q41 91 94 141t129 50q38 0 64 -17l-357 -453q5 40 14.5 81t20.5 78z" />
    <glyph glyph-name="FL00D9h" unicode="&#xd9;" horiz-adv-x="877" 
d="M957 643q-3 -11 -6 -20.5t-14 -18.5l-129 -450q-6 -20 5 -31.5t25.5 -18.5t27 -12t10.5 -13q-4 -12 -19 -26t-33 -26t-35 -20t-25 -8l-120 2h-620q7 25 21 36.5t30 23.5t32.5 31.5t28.5 61.5l135 470q11 36 13.5 65.5t7.5 64.5l2 6l1 4q2 2 5.5 6t5.5 4l195 40l10 -10
l-203 -708q3 0 11.5 -0.5t18.5 -0.5q11 0 22.5 -0.5t20.5 -0.5h18q11 0 34 1t47.5 2.5t45.5 3.5t28 3t17.5 2t20.5 5.5t17 14.5t7 28l13 45q9 32 19.5 67.5t20.5 67.5l13 45q28 97 50 190.5t50 190.5q4 13 26 23.5t49 17.5t52 10.5t33 3.5q17 0 23.5 -20.5t6 -48.5t-5 -57
t-9.5 -46zM583 1015l121 -1q2 0 2.5 -4t2.5 -6q7 -11 17 -37.5t19 -53.5t15 -47.5t6 -21.5l-6 -21q-24 0 -41.5 -0.5t-32.5 -0.5t-29.5 0.5t-32.5 2.5q-1 13 -11.5 36t-21.5 48t-19 48.5t-4 37.5l5 12.5t10 7.5z" />
    <glyph glyph-name="FL00DAh" unicode="&#xda;" horiz-adv-x="877" 
d="M957 643q5 17 9.5 46t5 57t-6 48.5t-23.5 20.5q-8 0 -33 -3.5t-52 -10.5t-49 -17.5t-26 -23.5q-28 -97 -50 -190.5t-50 -190.5l-13 -45q-10 -32 -20.5 -67.5t-19.5 -67.5l-13 -45q0 -18 -7 -28t-17 -14.5t-20.5 -5.5t-17.5 -2t-28 -3t-45.5 -3.5t-47.5 -2.5t-34 -1h-18
q-9 0 -20.5 0.5t-22.5 0.5q-10 0 -18.5 0.5t-11.5 0.5l203 708l-10 10l-195 -40q-2 0 -5.5 -4t-5.5 -6l-1 -4l-2 -6q-5 -35 -7.5 -64.5t-13.5 -65.5l-135 -470q-12 -42 -28.5 -61.5t-32.5 -31.5t-30 -23.5t-21 -36.5h620l120 -2q8 0 25 8t35 20t33 26t19 26q2 8 -10.5 13
t-27 12t-25.5 18.5t-5 31.5l129 450q11 9 14 18.5t6 20.5zM859 1032l-121 -1q-2 0 -5 -4t-6 -6q-10 -8 -24.5 -23t-31 -32.5t-33 -35.5t-30 -33t-22 -25t-8.5 -11l-6 -21q24 0 41.5 -0.5t32.5 -0.5t29.5 0.5t33.5 2.5q9 13 32.5 36t49 48t46.5 48.5t25 37.5q2 5 3 12.5
t-6 7.5z" />
    <glyph glyph-name="FL00DBh" unicode="&#xdb;" horiz-adv-x="877" 
d="M957 643q5 17 9.5 46t5 57t-6 48.5t-23.5 20.5q-8 0 -33 -3.5t-52 -10.5t-49 -17.5t-26 -23.5q-28 -97 -50 -190.5t-50 -190.5l-13 -45q-10 -32 -20.5 -67.5t-19.5 -67.5l-13 -45q0 -18 -7 -28t-17 -14.5t-20.5 -5.5t-17.5 -2t-28 -3t-45.5 -3.5t-47.5 -2.5t-34 -1h-18
q-9 0 -20.5 0.5t-22.5 0.5q-10 0 -18.5 0.5t-11.5 0.5l203 708l-10 10l-195 -40q-2 0 -5.5 -4t-5.5 -6l-1 -4l-2 -6q-5 -35 -7.5 -64.5t-13.5 -65.5l-135 -470q-12 -42 -28.5 -61.5t-32.5 -31.5t-30 -23.5t-21 -36.5h620l120 -2q8 0 25 8t35 20t33 26t19 26q2 8 -10.5 13
t-27 12t-25.5 18.5t-5 31.5l129 450q11 9 14 18.5t6 20.5zM672 1051q-7 0 -9.5 -6t-4.5 -11q-14 -13 -38.5 -38.5t-48 -52t-41 -46t-17.5 -20.5l-6 -21q24 0 41 -0.5t32 -0.5q8 0 12 -0.5t8 -0.5h9h6q5 0 8 1q3 4 12.5 16t21.5 26t24.5 27.5t21.5 21.5q3 -8 7.5 -21t9 -26.5
t8 -25t4.5 -15.5q3 -1 8 -1h6h10q4 0 8 0.5t12 0.5q15 0 32 0.5t41 0.5l6 21q0 1 -5.5 21t-14 46t-18.5 52t-18 38q2 9 -4 11q0 2 -2 2z" />
    <glyph glyph-name="FL00DCh" unicode="&#xdc;" horiz-adv-x="877" 
d="M957 643q-3 -11 -6 -20.5t-14 -18.5l-129 -450q-6 -20 5 -31.5t25.5 -18.5t27 -12t10.5 -13q-4 -12 -19 -26t-33 -26t-35 -20t-25 -8l-120 2h-620q7 25 21 36.5t30 23.5t32.5 31.5t28.5 61.5l135 470q11 36 13.5 65.5t7.5 64.5l2 6l1 4q2 2 5.5 6t5.5 4l195 40l10 -10
l-203 -708q3 0 11.5 -0.5t18.5 -0.5q11 0 22.5 -0.5t20.5 -0.5h18q11 0 34 1t47.5 2.5t45.5 3.5t28 3t17.5 2t20.5 5.5t17 14.5t7 28l13 45q9 32 19.5 67.5t20.5 67.5l13 45q28 97 50 190.5t50 190.5q4 13 26 23.5t49 17.5t52 10.5t33 3.5q17 0 23.5 -20.5t6 -48.5t-5 -57
t-9.5 -46zM697 1016q7 0 6.5 -7.5t-2.5 -12.5l-10 -32q-8 -26 -17.5 -54.5t-24.5 -48.5q-20 -2 -35 -2.5t-30 -0.5t-32 0.5t-41 0.5l6 21l5 16q3 11 8 26.5t11 31t12.5 29.5t12.5 22q1 2 5 6t6 4zM892 1017q7 0 6 -7.5t-3 -12.5l-9 -32q-8 -26 -18.5 -54.5t-25.5 -48.5
q-20 -2 -34.5 -2.5t-29.5 -0.5t-32 0.5t-41 0.5l6 21l4 16q3 11 8 26.5t11 31t12.5 29.5t12.5 22q2 2 5.5 6t5.5 4z" />
    <glyph glyph-name="FL00DDh" unicode="&#xdd;" horiz-adv-x="785" 
d="M225 670q60 6 96.5 -10t56.5 -50t25 -84t2 -112q0 -4 -3 -20t-6.5 -34t-6.5 -33t-3 -17l-91 -317q-2 -6 1.5 -8t8 -3t9 -0.5t5.5 0.5q41 0 89 10.5t85 20.5l7 25q5 17 10.5 39t12.5 46l14 47q13 45 24.5 84.5t16.5 55.5q10 33 27 72t38.5 78t48 75t55.5 64t60.5 45
t63.5 17q17 0 30.5 -6t30.5 -6q5 0 11 3.5t9 12.5l1 5q0 7 1 23.5t2.5 34t2.5 32.5t2 20q0 16 -7.5 24.5t-19.5 12t-25.5 4t-24.5 0.5q-34 0 -65 -15t-59.5 -40t-54.5 -57.5t-48 -68.5q-11 -16 -25.5 -44t-29 -55t-25 -47t-11.5 -20h-16l6 50q9 60 13.5 114t-6 94.5
t-41 64.5t-90.5 24q-19 0 -51.5 -11t-65.5 -29.5t-60 -43t-35 -52.5v-5q0 -2 1.5 -5.5t3.5 -4.5zM855 1035l-122 -1q-2 0 -5 -4t-5 -6q-9 -8 -24 -22.5t-31.5 -32t-33 -36t-30 -34t-22 -25.5l-8.5 -10l-6 -21q24 0 40.5 -0.5t31.5 -0.5t30 0.5t34 2.5q9 13 32 36t48.5 48
t47 48.5t25.5 37.5q2 5 3 12.5t-5 7.5z" />
    <glyph glyph-name="FL00DEh" unicode="&#xde;" horiz-adv-x="605" 
d="M414 967l-111 -15q-78 -241 -132 -440.5t-98 -349.5q-7 -23 -15.5 -57.5t-17.5 -73t-18.5 -78t-16.5 -72t-12 -55t-5 -26.5l-4 -40l2 -0.5t4 -0.5q26 0 57 14t50 47q7 9 18 29t24 45.5t27 54t26 54t20.5 46.5t11.5 31l152 533q30 0 60.5 -4.5t52.5 -19.5t31 -43.5
t-5 -76.5q-13 -45 -34 -76t-48 -52.5t-59 -36.5t-67 -28q0 -1 -1.5 -4.5t-2.5 -5.5q-4 -14 0.5 -23t13.5 -17h8q5 0 12 -0.5t12 -0.5h8q50 0 105.5 14t106 45t91 80.5t60.5 121.5l4 11q2 9 4.5 19l4.5 18l4 12q1 39 -14.5 64.5t-41 41t-55.5 23t-57 11.5h-30q-21 0 -44 0.5
t-45 0.5h-62l83 281h-11q-8 0 -17.5 -0.5t-17.5 -0.5h-11z" />
    <glyph glyph-name="FL0899h" unicode="&#xdf;" horiz-adv-x="578" 
d="M431 157q6 22 9.5 43t3.5 43q0 2 1 3v2q-2 10 -1.5 13t-1.5 10q1 3 4 5.5t5 4.5q17 14 26 30q4 2 12 5.5t17 6.5t16.5 5t10.5 1q3 2 11 5.5l16 7t15.5 7t10.5 5.5q8 4 12.5 9t12.5 10q5 3 12 4t14 7q9 6 10 12.5t7 12.5q2 2 4 8.5t2 7.5v1q1 2 1 4q0 3 1 5q-1 1 -1 2v1v1
l2 6v1q-2 7 -8.5 12.5t-13.5 5.5q8 -2 11 5t8 15q3 5 5.5 9.5t4.5 10.5q1 9 -5 12v2q0 2 7.5 10.5t9.5 12.5q3 3 5.5 6.5t7.5 3.5q2 0 3.5 -2t0.5 -4q-2 0 -4.5 -2.5t-3.5 -4.5v-5h2q2 0 8.5 3.5t8.5 8.5q2 6 2 12q-2 16 -6 18.5t-17 2.5q4 14 2 17.5t-7 11.5q-2 1 -2 4
q0 2 -3 2h-2q-1 -2 1 -3.5l2 -1.5v-1q-5 0 -9 3t-9 3l-1 -3q10 0 8 -8q-2 -6 -5.5 -10t-8.5 -8h-2v4l-8 12v11t-5 9h-1q3 -9 0 -15l-5 9h-3q-1 -2 0.5 -3l1.5 -1q-1 -2 -4.5 -2.5t-5.5 -2.5l1 1q0 2 -1 2q-5 8 -9.5 16t-15.5 11q-15 3 -24.5 15t-18.5 25.5t-19.5 24
t-28.5 10.5q-7 0 -16 -2.5t-16 -7.5q-1 -1 -3 -2.5t-3 -2.5q-2 -3 -4 -3.5t-4 -2.5q-12 -8 -20 -21t-14 -25q-2 -6 -3 -10t-2 -7q-2 -3 -3.5 -6l-3.5 -7q-3 -5 -6 -5q-1 2 -1 4q0 3 -2 5h-2l-1 -2q0 -1 -1 -1v0q2 3 0 5h-1h-1q0 -1 -0.5 -1.5t-0.5 -1.5l-4 -13
q-2 -6 0.5 -7.5t0.5 -5.5l-1 -2.5t-2 -2.5q-11 -14 -16 -32q-2 -5 -1 -7t-1 -7q-11 0 -14.5 3.5t-8.5 11.5q-2 1 -7 6t-7 9q-2 1 -7 1h-2q0 1 -2 2q-2 3 -2 7q0 5 -1 7q-5 22 -12.5 40t-6.5 41q2 2 0 2v1q2 8 9 15.5t9 15.5q2 5 2 7t-2 8q0 5 -3 5q-5 0 -6 4q-7 7 -7.5 13
t-2.5 17l-1 3l-7 8q-4 3 -7 12t-6 18.5t-6.5 17t-8.5 7.5q-6 0 -7 -6q-4 -13 0 -21q0 -2 1 -7t3 -10t3.5 -9.5t2.5 -5.5q0 -1 0.5 -4t-0.5 -5q1 0 1 -1q-1 -1 -4.5 -1.5t-6.5 -2.5q-2 -8 -5 -10q-1 0 -4.5 -1.5t-5.5 -2.5q-3 -1 -7 -6.5t-7.5 -13t-6 -14.5t-3.5 -10t0 -14
t3 -12q2 0 4.5 -1t4.5 -1q2 -1 4.5 -5t3.5 -6q6 -3 7 -5t3 -11q-4 -26 -5.5 -49.5t3.5 -47.5l1.5 -1.5t0.5 -3.5q2 -9 4.5 -18.5t8.5 -16.5q15 -16 31 -28.5t35 -23.5q1 -2 1 -7t-0.5 -10.5t-1 -10.5t0.5 -8l5 -49q-1 -4 -2 -12.5t-2 -17.5t-1.5 -17.5t-0.5 -11.5
q-1 -4 -0.5 -5.5t0.5 0.5l-1 -3q-2 -6 -6.5 -9.5t-10 -6t-11 -5.5t-9.5 -8l-19 -30q-5 -10 -8.5 -18t-6.5 -18q-4 -13 -6 -37t-0.5 -47.5t7.5 -41t19 -17.5q5 0 7.5 1.5t5.5 3.5v-1q-3 -10 -14 -15q-16 -20 -29.5 -39.5t-20.5 -44.5q-3 -11 3 -18t15 -7q5 0 6 0.5t6 4.5
q58 40 105.5 91t68.5 125zM296 65q1 0 0 -1q-1 -2 -1.5 -2.5l-0.5 -0.5q-2 0 -2 3q1 1 4 1zM297 67v-1v-1q-1 0 -1 1t1 1zM298 71q1 0 1 -2q-1 -1 -2 -1l1 1v2zM591 409q-1 -3 -10 -6.5t-20 -6.5t-21 -5t-13 -2h-1l-5 26l1 4q2 -7 6 -8.5t9 -1.5l1 4l-1 2t-1 4q4 -1 7 -6h1
h4h2h14q6 -1 14 2t10 9h6q-2 -4 -1.5 -7.5t-1.5 -7.5zM536 423q1 0 1 -2l-2 -2q-2 0 0 2q0 2 1 2zM665 514q1 0 1.5 -0.5l0.5 -0.5q0 -1 -2 -1h-1v1z" />
    <glyph glyph-name="FL00E0h" unicode="&#xe0;" horiz-adv-x="833" 
d="M33 30q125 143 235 292t217 308q10 16 19 34.5t18.5 37.5t20 36.5t22.5 31.5q9 5 26 15t36 20.5t37.5 18t29.5 7.5q5 0 9 -1.5t4 -9.5q0 -15 1.5 -46.5t3.5 -71t4.5 -83t4.5 -83t4 -70.5t3 -46q1 -12 5 -47.5t8.5 -77t9 -80t7.5 -55.5q2 -25 11.5 -54t23.5 -46
q0 -2 4 -4.5t9 -5.5t9 -6t4 -4v-4q0 -3 -1 -5q-2 -6 -4.5 -12t-10.5 -9q-44 -11 -90 -11.5t-84 -0.5q-8 0 -19 0.5t-22 0.5t-19 0.5t-9 0.5l-10 20l-35 526l-363 -546q-3 -5 -9.5 -7.5t-13 -3.5t-12 -0.5t-7.5 0.5q-24 0 -46 7.5t-31 33.5zM591 1056l121 -1q2 0 2.5 -4
t2.5 -6q7 -11 17 -37t19 -53.5t15 -48.5l6 -21l-6 -21q-24 0 -42 -0.5t-33 -0.5t-29.5 0.5t-32.5 2.5q-1 13 -11.5 36t-21.5 48t-18.5 48.5t-3.5 37.5l5 12.5t10 7.5z" />
    <glyph glyph-name="FL00E1h" unicode="&#xe1;" horiz-adv-x="833" 
d="M33 30q9 -26 31 -33.5t46 -7.5q2 0 7.5 -0.5t12 0.5t13 3.5t9.5 7.5l363 546l35 -526l10 -20q1 0 9 -0.5t19 -0.5t22 -0.5t19 -0.5q38 0 84 0.5t90 11.5q8 3 10.5 9t4.5 12q1 2 1 5v4q0 1 -4 4t-9 6t-9 5.5t-4 4.5q-14 17 -23.5 46t-11.5 54q-3 17 -7.5 55.5t-9 80
t-8.5 77t-5 47.5q-1 15 -3 46t-4 70.5t-4.5 83t-4.5 83t-3.5 71t-1.5 46.5q0 8 -4 9.5t-9 1.5q-11 0 -29.5 -7.5t-37.5 -18t-36 -20.5t-26 -15q-12 -14 -22.5 -31.5t-20 -36.5t-18.5 -37.5t-19 -34.5q-107 -159 -217 -308t-235 -292zM829 1056l-120 -1q-2 0 -5.5 -4t-5.5 -6
q-9 -7 -24 -21.5t-31.5 -32.5t-33.5 -36.5t-30.5 -34t-22 -25.5l-8.5 -10l-6 -21q24 0 41 -0.5t32 -0.5t29.5 0.5t34.5 2.5q9 13 32 36t48.5 48t47 48.5t25.5 37.5q2 5 3 12.5t-6 7.5z" />
    <glyph glyph-name="FL00E2h" unicode="&#xe2;" horiz-adv-x="833" 
d="M33 30q9 -26 31 -33.5t46 -7.5q2 0 7.5 -0.5t12 0.5t13 3.5t9.5 7.5l363 546l35 -526l10 -20q1 0 9 -0.5t19 -0.5t22 -0.5t19 -0.5q38 0 84 0.5t90 11.5q8 3 10.5 9t4.5 12q1 2 1 5v4q0 1 -4 4t-9 6t-9 5.5t-4 4.5q-14 17 -23.5 46t-11.5 54q-3 17 -7.5 55.5t-9 80
t-8.5 77t-5 47.5q-1 15 -3 46t-4 70.5t-4.5 83t-4.5 83t-3.5 71t-1.5 46.5q0 8 -4 9.5t-9 1.5q-11 0 -29.5 -7.5t-37.5 -18t-36 -20.5t-26 -15q-12 -14 -22.5 -31.5t-20 -36.5t-18.5 -37.5t-19 -34.5q-107 -159 -217 -308t-235 -292zM651 1062q-6 0 -8.5 -6t-4.5 -11
q-15 -13 -39.5 -38.5t-48.5 -52t-41 -46t-17 -20.5l-6 -21q24 0 40.5 -0.5t31.5 -0.5q8 0 12 -0.5t8 -0.5h9h6q5 0 9 1l12 16t21 26t24.5 27.5t21.5 21.5q3 -8 8 -21t9.5 -26.5t7.5 -25t4 -15.5q3 -1 8 -1h6h10q4 0 8 0.5t12 0.5q15 0 32 0.5t41 0.5l6 21q0 1 -5.5 21
t-14 46t-18.5 52t-17 38q0 10 -4 11q-2 2 -3 2z" />
    <glyph glyph-name="FL00E3h" unicode="&#xe3;" horiz-adv-x="833" 
d="M33 30q9 -26 31 -33.5t46 -7.5q2 0 7.5 -0.5t12 0.5t13 3.5t9.5 7.5l363 546l35 -526l10 -20q1 0 9 -0.5t19 -0.5t22 -0.5t19 -0.5q38 0 84 0.5t90 11.5q8 3 10.5 9t4.5 12q1 2 1 5v4q0 1 -4 4t-9 6t-9 5.5t-4 4.5q-14 17 -23.5 46t-11.5 54q-3 17 -7.5 55.5t-9 80
t-8.5 77t-5 47.5q-1 15 -3 46t-4 70.5t-4.5 83t-4.5 83t-3.5 71t-1.5 46.5q0 8 -4 9.5t-9 1.5q-11 0 -29.5 -7.5t-37.5 -18t-36 -20.5t-26 -15q-12 -14 -22.5 -31.5t-20 -36.5t-18.5 -37.5t-19 -34.5q-107 -159 -217 -308t-235 -292zM454 833l-1 -4q2 -4 10.5 -7t10.5 -3
q3 1 11.5 11.5t18.5 23.5t18.5 24.5t10.5 14.5h278q1 1 5.5 6.5t7.5 9.5q15 22 25.5 37t19 29t15 29.5t13.5 39.5q4 11 -1 15t-13 4h-4l-45 -60q-4 -2 -11.5 -6l-7.5 -4h-271q-2 -1 -6 -8.5t-8 -12.5q-8 -15 -19 -32.5t-22 -35.5t-20.5 -36t-14.5 -35z" />
    <glyph glyph-name="FL00E4h" unicode="&#xe4;" horiz-adv-x="833" 
d="M33 30q125 143 235 292t217 308q10 16 19 34.5t18.5 37.5t20 36.5t22.5 31.5q9 5 26 15t36 20.5t37.5 18t29.5 7.5q5 0 9 -1.5t4 -9.5q0 -15 1.5 -46.5t3.5 -71t4.5 -83t4.5 -83t4 -70.5t3 -46q1 -12 5 -47.5t8.5 -77t9 -80t7.5 -55.5q2 -25 11.5 -54t23.5 -46
q0 -2 4 -4.5t9 -5.5t9 -6t4 -4v-4q0 -3 -1 -5q-2 -6 -4.5 -12t-10.5 -9q-44 -11 -90 -11.5t-84 -0.5q-8 0 -19 0.5t-22 0.5t-19 0.5t-9 0.5l-10 20l-35 526l-363 -546q-3 -5 -9.5 -7.5t-13 -3.5t-12 -0.5t-7.5 0.5q-24 0 -46 7.5t-31 33.5zM685 1019q7 0 6 -7.5t-3 -12.5
l-9 -32q-8 -26 -18.5 -54.5t-24.5 -48.5q-20 -2 -34.5 -2.5t-29.5 -0.5t-32.5 0.5t-41.5 0.5l6 21l5 16q3 11 8 26.5t11 31t12.5 29.5t12.5 22q2 2 5.5 6t5.5 4zM878 1020q7 0 6.5 -7.5t-2.5 -12.5l-9 -32q-8 -26 -18 -54.5t-25 -48.5q-20 -2 -35 -2.5t-30 -0.5t-32 0.5
t-41 0.5l6 21l5 16q3 11 8 26.5t11 31t12.5 29.5t12.5 22q1 2 5 6t6 4z" />
    <glyph glyph-name="FL00E5h" unicode="&#xe5;" horiz-adv-x="833" 
d="M33 30q125 143 235 292t217 308q10 16 19 34.5t18.5 37.5t20 36.5t22.5 31.5q9 5 26 15t36 20.5t37.5 18t29.5 7.5q5 0 9 -1.5t4 -9.5q0 -15 1.5 -46.5t3.5 -71t4.5 -83t4.5 -83t4 -70.5t3 -46q1 -12 5 -47.5t8.5 -77t9 -80t7.5 -55.5q2 -25 11.5 -54t23.5 -46
q0 -2 4 -4.5t9 -5.5t9 -6t4 -4v-4q0 -3 -1 -5q-2 -6 -4.5 -12t-10.5 -9q-44 -11 -90 -11.5t-84 -0.5q-8 0 -19 0.5t-22 0.5t-19 0.5t-9 0.5l-10 20l-35 526l-363 -546q-3 -5 -9.5 -7.5t-13 -3.5t-12 -0.5t-7.5 0.5q-24 0 -46 7.5t-31 33.5zM772 1028q7 0 6 -7.5t-3 -12.5
l-9 -32q-8 -26 -18.5 -54.5t-25.5 -48.5q-20 -2 -34.5 -2.5t-29.5 -0.5t-32 0.5t-41 0.5l6 21l4 16q3 11 8.5 26.5t11.5 31t12.5 29.5t12.5 22q1 2 4.5 6t5.5 4z" />
    <glyph glyph-name="FL00E6h" unicode="&#xe6;" horiz-adv-x="1186" 
d="M1155 200h-403q-2 15 -4 33t-4 38q6 -2 7 -1q3 1 9 5.5t12.5 10t12.5 11t8 8.5h328l4.5 5.5t8.5 9.5q29 45 55 94t40 97q3 11 -2 15t-13 4h-4l-30 -20q-4 -2 -11.5 -6l-7.5 -4h-320q-1 0 -5.5 -7.5l-7.5 -12.5q-7 -13 -19 -34t-24.5 -45t-24.5 -48.5t-20 -43.5
q-5 38 -7.5 69t-4.5 42q-1 15 -3 46t-4 70.5t-4.5 83t-4.5 83t-3.5 71t-1.5 46.5q0 8 -4 9.5t-9 1.5q-11 0 -29.5 -7.5t-37.5 -18t-36 -20.5t-26 -15q-12 -14 -22.5 -31.5t-20 -36.5t-18.5 -37.5t-19 -34.5q-107 -159 -217 -308t-235 -292q9 -26 31 -33.5t46 -7.5
q2 0 7.5 -0.5t12 0.5t13 3.5t9.5 7.5l363 546l35 -526l10 -20q1 0 9 -0.5t19 -0.5t22 -0.5t19 -0.5h53q14 0 29 0.5t29 1.5h358q5 0 15.5 13t23 33.5t26.5 44t25.5 45t19 36.5t8.5 18q3 8 2 14t-8 6h-4q-2 0 -9.5 -1.5t-16 -3t-16 -3t-9.5 -2.5zM775 605q-3 -13 3.5 -14
t12.5 -1h20q17 0 52.5 0.5t81 2t95.5 2.5t95.5 2.5t81.5 2t53 0.5q15 19 31 43.5t30.5 51.5t26 54t18.5 51h-33q-17 -1 -53 -1.5t-81 -1.5t-95 -2t-95 -2t-81 -2t-53 -1q-6 -3 -13.5 -13t-13.5 -20.5t-10.5 -18.5l-4.5 -8q-4 -8 -13.5 -25t-20 -36.5t-20 -36t-12.5 -22.5z
" />
    <glyph glyph-name="FL00E7h" unicode="&#xe7;" horiz-adv-x="712" 
d="M689 752l84 -88l74 8q28 34 42 56.5t19 38.5q5 17 2 31t-11 31h-273q-38 -4 -73.5 -11.5t-70.5 -20t-69.5 -32t-69.5 -48.5q-70 -57 -124.5 -143.5t-88.5 -204.5q-25 -87 -13.5 -153t47 -111.5t89.5 -71.5t114 -33q-18 -18 -44.5 -35.5t-51 -32t-41.5 -24l-17 -9.5
l27 -63q24 0 41.5 -0.5t32.5 -0.5t29.5 0.5t34.5 2.5q6 9 18.5 27.5t28.5 41t32.5 47t30.5 46.5h173l35 117q-125 -6 -209.5 -14t-126.5 4l-11 4q1 -1 8 -3l-10 6q-21 21 -26.5 53t-1.5 71.5t15 84t24 89.5q16 55 38 115t53.5 110t73 82t97.5 32z" />
    <glyph glyph-name="FL00E8h" unicode="&#xe8;" horiz-adv-x="633" 
d="M601 200q3 1 10.5 2.5t15.5 3t15.5 3t9.5 1.5h5q7 0 8 -6t-2 -14q-1 -3 -8.5 -18t-19.5 -36.5t-25.5 -45t-26.5 -44t-23.5 -33.5t-15.5 -13h-520l9 30q0 1 9.5 18.5t22.5 41.5t27.5 49t23.5 41l7.5 12.5t5.5 7.5h472zM177 284q5 17 17.5 44t27.5 56t29.5 55t22.5 41
l7.5 12.5t5.5 7.5h320q1 0 8 4t11 6l30 20h4q8 0 13.5 -4t2.5 -15q-14 -48 -40.5 -97t-55.5 -94q-3 -4 -7.5 -9.5t-5.5 -5.5h-328q-2 -3 -8 -8.5t-12.5 -11t-12.5 -10t-9 -5.5q-2 0 -10.5 3t-10.5 7zM221 605l2 5q3 6 12.5 22.5t20 36t20 36.5t13.5 25l4.5 8t10.5 18.5
t13.5 20.5t13.5 13q17 0 52.5 0.5t81 1t95.5 2t95 2.5t81 2t53 2h34q-7 -24 -18.5 -51t-26 -54t-31 -51.5t-31.5 -43.5q-17 0 -52.5 -0.5t-81 -2t-96 -2.5t-96 -2.5t-81 -2t-52.5 -0.5h-19q-7 0 -13.5 1t-3.5 14zM499 1050l121 -1q2 0 3 -4t2 -6q7 -11 17 -37.5t19 -53.5
t15 -47.5t6 -21.5l-6 -21q-24 0 -41 -0.5t-32 -0.5t-30 0.5t-32 2.5q-1 13 -11.5 36t-21.5 48t-19 48.5t-4 37.5l5 12.5t9 7.5z" />
    <glyph glyph-name="FL00E9h" unicode="&#xe9;" horiz-adv-x="633" 
d="M221 605q-3 -13 3.5 -14t13.5 -1h19q17 0 52.5 0.5t81 2t96 2.5t96 2.5t81 2t52.5 0.5q15 19 31.5 43.5t31 51.5t26 54t18.5 51h-34q-17 -1 -53 -1.5t-81.5 -1.5t-95 -2t-95 -2t-81 -2t-52.5 -1q-6 -3 -13.5 -13t-13.5 -20.5t-10.5 -18.5l-4.5 -8q-4 -8 -13.5 -25
t-20 -36.5t-20 -36t-12.5 -22.5zM176 280q2 -4 10.5 -7t10.5 -3q3 1 9 5.5t12.5 10t12.5 11t8 8.5h328q1 0 5.5 5.5t7.5 9.5q29 45 55.5 94t40.5 97q3 11 -2.5 15t-13.5 4h-4l-30 -20q-4 -2 -11 -6t-8 -4h-320q-1 0 -5.5 -7.5l-7.5 -12.5q-8 -15 -22.5 -41t-29.5 -55
t-27.5 -56t-17.5 -44zM129 200q-1 0 -5.5 -7.5l-7.5 -12.5q-9 -16 -23.5 -41t-27.5 -49t-22.5 -41.5t-9.5 -18.5l-9 -30h520q5 0 15.5 13t23.5 33.5t26.5 44t25.5 45t19.5 36.5t8.5 18q3 8 2 14t-8 6h-5q-2 0 -9.5 -1.5t-15.5 -3t-15.5 -3t-10.5 -2.5h-472zM761 1055
l-121 -1q-2 0 -5.5 -4t-5.5 -6q-14 -12 -39 -38t-49.5 -52.5t-42.5 -47.5t-19 -22l-6 -21q24 0 41.5 -0.5t32.5 -0.5t29.5 0.5t34.5 2.5q9 13 32 36t48.5 48t47 48.5t25.5 37.5q2 5 3 12.5t-6 7.5z" />
    <glyph glyph-name="FL00EAh" unicode="&#xea;" horiz-adv-x="633" 
d="M221 605q-3 -13 3.5 -14t13.5 -1h19q17 0 52.5 0.5t81 2t96 2.5t96 2.5t81 2t52.5 0.5q15 19 31.5 43.5t31 51.5t26 54t18.5 51h-34q-17 -1 -53 -1.5t-81.5 -1.5t-95 -2t-95 -2t-81 -2t-52.5 -1q-6 -3 -13.5 -13t-13.5 -20.5t-10.5 -18.5l-4.5 -8q-4 -8 -13.5 -25
t-20 -36.5t-20 -36t-12.5 -22.5zM176 280q2 -4 10.5 -7t10.5 -3q3 1 9 5.5t12.5 10t12.5 11t8 8.5h328q1 0 5.5 5.5t7.5 9.5q29 45 55.5 94t40.5 97q3 11 -2.5 15t-13.5 4h-4l-30 -20q-4 -2 -11 -6t-8 -4h-320q-1 0 -5.5 -7.5l-7.5 -12.5q-8 -15 -22.5 -41t-29.5 -55
t-27.5 -56t-17.5 -44zM129 200q-1 0 -5.5 -7.5l-7.5 -12.5q-9 -16 -23.5 -41t-27.5 -49t-22.5 -41.5t-9.5 -18.5l-9 -30h520q5 0 15.5 13t23.5 33.5t26.5 44t25.5 45t19.5 36.5t8.5 18q3 8 2 14t-8 6h-5q-2 0 -9.5 -1.5t-15.5 -3t-15.5 -3t-10.5 -2.5h-472zM579 1055
q-7 0 -9.5 -6t-4.5 -11q-15 -13 -39.5 -38.5t-48 -52t-41 -46t-17.5 -20.5l-6 -21q24 0 41 -0.5t32 -0.5q8 0 11.5 -0.5t8.5 -0.5h9h5q6 0 9 1q3 4 12.5 16t21.5 26t24.5 27.5t21.5 21.5q3 -8 7.5 -21t9 -26.5t8 -25t3.5 -15.5q4 -1 8 -1h7h9q5 0 9 0.5t11 0.5
q15 0 32.5 0.5t41.5 0.5l6 21q0 1 -5.5 21t-14 46t-18.5 52t-18 38q2 9 -4 11l-2 2z" />
    <glyph glyph-name="FL00EBh" unicode="&#xeb;" horiz-adv-x="633" 
d="M601 200q3 1 10.5 2.5t15.5 3t15.5 3t9.5 1.5h5q7 0 8 -6t-2 -14q-1 -3 -8.5 -18t-19.5 -36.5t-25.5 -45t-26.5 -44t-23.5 -33.5t-15.5 -13h-520l9 30q0 1 9.5 18.5t22.5 41.5t27.5 49t23.5 41l7.5 12.5t5.5 7.5h472zM177 284q5 17 17.5 44t27.5 56t29.5 55t22.5 41
l7.5 12.5t5.5 7.5h320q1 0 8 4t11 6l30 20h4q8 0 13.5 -4t2.5 -15q-14 -48 -40.5 -97t-55.5 -94q-3 -4 -7.5 -9.5t-5.5 -5.5h-328q-2 -3 -8 -8.5t-12.5 -11t-12.5 -10t-9 -5.5q-2 0 -10.5 3t-10.5 7zM221 605l2 5q3 6 12.5 22.5t20 36t20 36.5t13.5 25l4.5 8t10.5 18.5
t13.5 20.5t13.5 13q17 0 52.5 0.5t81 1t95.5 2t95 2.5t81 2t53 2h34q-7 -24 -18.5 -51t-26 -54t-31 -51.5t-31.5 -43.5q-17 0 -52.5 -0.5t-81 -2t-96 -2.5t-96 -2.5t-81 -2t-52.5 -0.5h-19q-7 0 -13.5 1t-3.5 14zM603 1020q7 0 6.5 -7.5t-2.5 -12.5l-9 -32
q-8 -26 -18.5 -54.5t-25.5 -48.5q-19 -2 -34 -2.5t-30 -0.5t-32 0.5t-41 0.5l6 21l5 16q3 11 8 26.5t10.5 31t12 29.5t12.5 22q2 2 5.5 6t5.5 4zM798 1021q7 0 6 -7.5t-3 -12.5l-9 -32q-8 -26 -18.5 -54.5t-25.5 -48.5q-20 -2 -34.5 -2.5t-29.5 -0.5t-32 0.5t-41 0.5l6 21
l4 16q3 11 8.5 26.5t11.5 31t12.5 29.5t12.5 22q1 2 4.5 6t5.5 4z" />
    <glyph glyph-name="FL00ECh" unicode="&#xec;" horiz-adv-x="306" 
d="M244 760q0 2 0.5 7.5t1.5 7.5q3 9 8.5 18.5t16.5 6.5q11 1 37.5 3t56 3.5t56 2.5t37.5 1h11q8 0 17 0.5t17 0.5h12l-222 -771q-1 -4 -15 -8.5t-34.5 -9.5t-45 -9.5t-47 -8.5t-39.5 -6t-23 -2l196 684q10 37 -4 54.5t-37 25.5zM339 1056l121 -1q2 0 2.5 -4t2.5 -6
q7 -11 17 -37t19 -53.5t15 -48.5l6 -21l-6 -21q-24 0 -42 -0.5t-33 -0.5t-29.5 0.5t-32.5 2.5q-1 13 -11.5 36t-21.5 48t-18.5 48.5t-3.5 37.5l5 12.5t10 7.5z" />
    <glyph glyph-name="FL00EDh" unicode="&#xed;" horiz-adv-x="328" 
d="M244 760q23 -8 37 -25.5t4 -54.5l-196 -684q6 0 23 2t39.5 6t47 8.5t45 9.5t34.5 9.5t15 8.5l222 771h-12q-8 0 -17 -0.5t-17 -0.5h-11q-11 0 -37.5 -1t-56 -2.5t-56 -3.5t-37.5 -3q-11 3 -16.5 -6.5t-8.5 -18.5q-1 -2 -1.5 -7.5t-0.5 -7.5zM597 1053l-121 -1q-2 0 -5 -4
t-6 -6q-10 -8 -24.5 -23t-31 -32.5t-33 -35.5t-30 -33t-22 -25t-8.5 -11l-6 -21q24 0 41.5 -0.5t32.5 -0.5t29.5 0.5t33.5 2.5q9 13 32.5 36t49 48t46.5 48.5t25 37.5q2 5 3 12.5t-6 7.5z" />
    <glyph glyph-name="FL00EEh" unicode="&#xee;" horiz-adv-x="390" 
d="M262 760q23 -8 37 -25.5t4 -54.5l-196 -684q6 0 23 2t39.5 6t47 8.5t45 9.5t34.5 9.5t15 8.5l222 771h-11q-8 0 -17.5 -0.5t-17.5 -0.5h-11q-11 0 -37.5 -1t-56 -2.5t-56 -3.5t-37.5 -3q-11 3 -16.5 -6.5t-8.5 -18.5q-1 -2 -1.5 -7.5t-0.5 -7.5zM438 1059q-7 0 -9.5 -6
t-4.5 -11q-15 -13 -39.5 -38.5t-48.5 -52t-41 -46t-17 -20.5l-6 -21q24 0 41 -0.5t32 -0.5q7 0 11 -0.5t9 -0.5h8h6h4q3 0 5 1q3 4 13 16t22 26t24.5 27.5t20.5 21.5q3 -8 7.5 -21t9 -26.5t7.5 -25t4 -15.5q3 -1 8 -1h6h10q5 0 8.5 0.5t11.5 0.5q15 0 33 0.5t42 0.5l6 21
q0 1 -6 21t-15 46t-19 52t-17 38q0 10 -4 11q-2 2 -3 2z" />
    <glyph glyph-name="FL00EFh" unicode="&#xef;" horiz-adv-x="392" 
d="M268 760q1 2 1.5 7.5t1.5 7.5q3 9 8 18.5t16 6.5q11 1 37.5 3t56 3.5t56 2.5t37.5 1h12q8 0 17 0.5t17 0.5h11l-222 -771q-1 -4 -15 -8.5t-34.5 -9.5t-45 -9.5t-47 -8.5t-39.5 -6t-23 -2l196 684q10 37 -3.5 54.5t-37.5 25.5zM459 1021q6 0 5 -7.5t-3 -12.5l-9 -32
q-8 -26 -18 -54.5t-25 -48.5q-20 -2 -34.5 -2.5t-29.5 -0.5t-32 0.5t-41 0.5l6 21l4 16q3 11 8 26.5t11 31t13 29.5t13 22q1 2 4.5 6t5.5 4zM652 1022q7 0 6 -7.5t-3 -12.5l-9 -32q-8 -26 -18.5 -54.5t-24.5 -48.5q-19 -2 -34 -2.5t-30 -0.5t-32 0.5t-41 0.5l6 21l5 16
q3 11 8 26.5t10.5 31t12 29.5t12.5 22q2 2 5.5 6t5.5 4z" />
    <glyph glyph-name="FL00F0h" unicode="&#xf0;" horiz-adv-x="659" 
d="M542 689q2 -5 7 -7l-71 -43q-1 0 -2.5 -8.5t-2.5 -13.5q-1 -7 -2 -13.5t-3 -13.5l-6 -22q-3 -10 -4.5 -21t1.5 -26l1 -3q5 -2 15 1.5t11 4.5q6 7 15.5 6.5t11.5 7.5l87 53q5 -22 3 -50t-13 -64q-96 0 -159.5 -5.5t-103 -14.5t-60.5 -19.5t-33 -19.5q-17 -14 -33 -28.5
t-29 -27.5t-21 -22.5t-9 -13.5q0 -1 0.5 -1.5l0.5 -0.5q-37 -54 -52.5 -98.5t-23.5 -89.5q-4 -23 -6 -44t8.5 -39.5t38 -34.5t81.5 -29q32 -1 49.5 -2t28.5 -1q10 0 17 0.5t17.5 2t28 4.5t48.5 7q108 29 177 98q69 70 123.5 157t88.5 204q13 72 6 126t-27 96l57 35l5 18
q5 25 9.5 38.5t7.5 24t3 21.5q0 12 -4 33q-2 9 -9.5 8.5t-15.5 -5.5l-5 -3l-19 -20q-3 -4 -8.5 -11t-6.5 -7l-83 -51q-35 26 -77.5 37.5t-86.5 11.5h-201l-33 -146q58 4 98 12t68 14.5t47.5 9t36.5 -4.5zM225 254l24.5 28t22.5 21t27 16t38 13h208q-16 -44 -42 -85.5
t-58.5 -73.5t-71 -51t-80.5 -18l-89 7q3 24 -0.5 35.5t-5.5 22.5t2.5 29t24.5 56z" />
    <glyph glyph-name="FL00F1h" unicode="&#xf1;" horiz-adv-x="779" 
d="M364 548q8 -17 25 -51.5t38.5 -78t45 -91.5t45 -91t39 -77.5t25.5 -50.5q2 -5 9 -17.5t16 -26.5t17 -27t12 -19q2 -2 6.5 -5.5t6.5 -4.5q7 -4 22 -9t25 -8t12 -3l10 10l19 64l28 98l33 115l25 88q18 64 33.5 115t24.5 75q20 67 42 124t58 116q1 2 3 7t2 6q-31 0 -64 -6.5
t-63 -16.5q-10 -2 -12 -11.5t-4 -15.5q-16 -54 -29 -106t-26 -103t-26 -103t-28 -106h-6l-253 475l-4 0.5t-6 0.5q-24 0 -50 -3t-52.5 -6.5t-52.5 -7t-49 -4.5q-8 -2 -11 -10t-5 -15q-1 -2 -1.5 -7.5t-1.5 -7.5q25 -14 38 -30t16 -38t-2.5 -51.5t-17.5 -69.5
q-41 -144 -87.5 -278.5t-107.5 -277.5q0 -8 3.5 -9t8.5 -1h9q11 1 28.5 4.5t34 7t28 6l11.5 2.5l152 530h8zM478 851l-1 -4q2 -4 10.5 -7t10.5 -3q3 1 11.5 11.5t18 23.5t18 24.5t10.5 14.5h279q1 1 5 6.5t8 9.5q14 22 25 37t19.5 29t15.5 29.5t14 39.5q3 11 -2.5 15
t-13.5 4h-4l-45 -60q-4 -2 -11 -6t-8 -4h-270q-1 -1 -6 -8.5t-8 -12.5q-9 -15 -20 -32.5t-22 -35.5t-20 -36t-14 -35z" />
    <glyph glyph-name="FL00F2h" unicode="&#xf2;" horiz-adv-x="865" 
d="M67 10q-1 2 -1.5 10t-0.5 10v24q0 18 0.5 37t1 36t0.5 23l1 5l2 5l5.5 5.5t5.5 4.5h3q22 0 43 -3.5l42 -7l42 -7t44 -3.5h10q8 0 16 0.5t16 0.5h10q-31 25 -61.5 54t-51 65.5t-26.5 83.5t11 107q19 66 52 118t75.5 92t91.5 67.5t99.5 45.5t100 26t92.5 8q40 0 80 -8
t75 -25.5t63 -44t44.5 -63t18.5 -84.5t-15 -107q-18 -62 -50.5 -111.5t-74.5 -90.5t-90.5 -73.5t-97.5 -59.5q29 -10 55 -10.5t58 -0.5h32q23 0 45 1.5t50 9.5q-1 -2 -1.5 -7.5t-1.5 -7.5q-8 -27 -27.5 -51.5t-44 -43t-50.5 -29.5t-46 -11h-226q1 3 5 14.5t6 15.5
q2 6 8.5 22t14 33.5t14.5 33t10 21.5q42 21 70.5 50.5t48 65.5t32.5 77.5t26 86.5l7 22q5 16 9 33.5t9 32.5l8 28q2 23 3 57.5t-3.5 66t-17 54t-37.5 22.5h-104q-25 0 -53 -21.5t-53 -52.5t-44.5 -65.5t-26.5 -60.5l-62 -216q-10 -35 -4 -65.5t17 -56t20.5 -45t6.5 -31.5
q-1 -4 -3.5 -12t-3.5 -10q-5 -10 -11.5 -25t-13 -29.5t-11.5 -25t-6 -10.5l-27 -10q-2 0 -11.5 -0.5t-23.5 -0.5q-13 0 -26.5 -0.5t-21.5 -0.5q-16 0 -38 -0.5t-46 0.5t-47 3.5t-39 8.5zM606 1057l121 -1q2 0 3 -4t2 -6q7 -11 17 -37.5t19 -53.5t15 -47.5t6 -21.5l-6 -21
q-24 0 -41 -0.5t-32 -0.5t-30 0.5t-33 2.5q-1 13 -11 36t-21.5 48t-19.5 48.5t-4 37.5l5 12.5t10 7.5z" />
    <glyph glyph-name="FL00F3h" unicode="&#xf3;" horiz-adv-x="865" 
d="M67 10q16 -6 39 -8.5t47 -3.5t46 -0.5t38 0.5q8 0 21.5 0.5t26.5 0.5q14 0 23.5 0.5t11.5 0.5l27 10q1 0 6 10.5t11.5 25t13 29.5t11.5 25q1 2 3.5 10t3.5 12q3 12 -6.5 31.5t-20.5 45t-17 56t4 65.5l62 216q7 26 26.5 60.5t44.5 65.5t53 52.5t53 21.5h104
q25 0 37.5 -22.5t17 -54t3.5 -66t-3 -57.5l-8 -28q-5 -15 -9 -32.5t-9 -33.5l-7 -22q-13 -45 -26 -86.5t-32.5 -77.5t-48 -65.5t-70.5 -50.5q-3 -6 -10 -21.5t-14.5 -33t-14 -33.5t-8.5 -22q-2 -4 -6 -15.5t-5 -14.5h226q20 0 46 11t50.5 29.5t44 43t27.5 51.5q1 2 1.5 7.5
t1.5 7.5q-28 -8 -50 -9.5t-45 -1.5h-32q-32 0 -58 0.5t-55 10.5q49 27 97.5 59.5t90.5 73.5t74.5 90.5t50.5 111.5q17 59 15 107t-18.5 84.5t-44.5 63t-63 44t-75 25.5t-80 8q-44 0 -93 -8t-99.5 -26t-99.5 -45.5t-91.5 -67.5t-75.5 -92t-52 -118q-17 -60 -11 -107
t26.5 -83.5t51 -65.5t61.5 -54h-10q-8 0 -16 -0.5t-16 -0.5h-10q-23 0 -44 3.5l-42 7l-42 7t-43 3.5h-3q-2 -1 -5.5 -4.5l-5.5 -5.5l-2 -5l-1 -5q0 -6 -0.5 -23t-1 -36t-0.5 -37v-24q0 -2 0.5 -10t1.5 -10zM845 1057l-121 -1q-2 0 -5.5 -4t-5.5 -6q-9 -8 -23.5 -22.5
t-31 -32t-33.5 -36t-30.5 -34t-22 -25.5l-8.5 -10l-6 -21q24 0 41 -0.5t32 -0.5t30 0.5t34 2.5q9 13 32 36t48.5 48t46.5 48.5t25 37.5q2 5 3 12.5t-5 7.5z" />
    <glyph glyph-name="FL00F4h" unicode="&#xf4;" horiz-adv-x="865" 
d="M67 10q16 -6 39 -8.5t47 -3.5t46 -0.5t38 0.5q8 0 21.5 0.5t26.5 0.5q14 0 23.5 0.5t11.5 0.5l27 10q1 0 6 10.5t11.5 25t13 29.5t11.5 25q1 2 3.5 10t3.5 12q3 12 -6.5 31.5t-20.5 45t-17 56t4 65.5l62 216q7 26 26.5 60.5t44.5 65.5t53 52.5t53 21.5h104
q25 0 37.5 -22.5t17 -54t3.5 -66t-3 -57.5l-8 -28q-5 -15 -9 -32.5t-9 -33.5l-7 -22q-13 -45 -26 -86.5t-32.5 -77.5t-48 -65.5t-70.5 -50.5q-3 -6 -10 -21.5t-14.5 -33t-14 -33.5t-8.5 -22q-2 -4 -6 -15.5t-5 -14.5h226q20 0 46 11t50.5 29.5t44 43t27.5 51.5q1 2 1.5 7.5
t1.5 7.5q-28 -8 -50 -9.5t-45 -1.5h-32q-32 0 -58 0.5t-55 10.5q49 27 97.5 59.5t90.5 73.5t74.5 90.5t50.5 111.5q17 59 15 107t-18.5 84.5t-44.5 63t-63 44t-75 25.5t-80 8q-44 0 -93 -8t-99.5 -26t-99.5 -45.5t-91.5 -67.5t-75.5 -92t-52 -118q-17 -60 -11 -107
t26.5 -83.5t51 -65.5t61.5 -54h-10q-8 0 -16 -0.5t-16 -0.5h-10q-23 0 -44 3.5l-42 7l-42 7t-43 3.5h-3q-2 -1 -5.5 -4.5l-5.5 -5.5l-2 -5l-1 -5q0 -6 -0.5 -23t-1 -36t-0.5 -37v-24q0 -2 0.5 -10t1.5 -10zM669 1056q-7 0 -9.5 -6t-4.5 -11q-15 -13 -39.5 -38.5t-48.5 -52
t-41 -46t-17 -20.5l-6 -21q24 0 41.5 -0.5t32.5 -0.5q7 0 10.5 -0.5t8.5 -0.5h8h6h4q3 0 6 1q3 4 12.5 16t21.5 26t24.5 27.5t20.5 21.5q3 -8 8 -21t9 -26.5t7.5 -25t3.5 -15.5q3 -1 8 -1h6h10q5 0 8.5 0.5t11.5 0.5q15 0 33 0.5t42 0.5l6 21q0 1 -6 21t-14.5 46t-18.5 52
t-18 38q2 10 -4 11l-2 2z" />
    <glyph glyph-name="FL00F5h" unicode="&#xf5;" horiz-adv-x="865" 
d="M67 10q16 -6 39 -8.5t47 -3.5t46 -0.5t38 0.5q8 0 21.5 0.5t26.5 0.5q14 0 23.5 0.5t11.5 0.5l27 10q1 0 6 10.5t11.5 25t13 29.5t11.5 25q1 2 3.5 10t3.5 12q3 12 -6.5 31.5t-20.5 45t-17 56t4 65.5l62 216q7 26 26.5 60.5t44.5 65.5t53 52.5t53 21.5h104
q25 0 37.5 -22.5t17 -54t3.5 -66t-3 -57.5l-8 -28q-5 -15 -9 -32.5t-9 -33.5l-7 -22q-13 -45 -26 -86.5t-32.5 -77.5t-48 -65.5t-70.5 -50.5q-3 -6 -10 -21.5t-14.5 -33t-14 -33.5t-8.5 -22q-2 -4 -6 -15.5t-5 -14.5h226q20 0 46 11t50.5 29.5t44 43t27.5 51.5q1 2 1.5 7.5
t1.5 7.5q-28 -8 -50 -9.5t-45 -1.5h-32q-32 0 -58 0.5t-55 10.5q49 27 97.5 59.5t90.5 73.5t74.5 90.5t50.5 111.5q17 59 15 107t-18.5 84.5t-44.5 63t-63 44t-75 25.5t-80 8q-44 0 -93 -8t-99.5 -26t-99.5 -45.5t-91.5 -67.5t-75.5 -92t-52 -118q-17 -60 -11 -107
t26.5 -83.5t51 -65.5t61.5 -54h-10q-8 0 -16 -0.5t-16 -0.5h-10q-23 0 -44 3.5l-42 7l-42 7t-43 3.5h-3q-2 -1 -5.5 -4.5l-5.5 -5.5l-2 -5l-1 -5q0 -6 -0.5 -23t-1 -36t-0.5 -37v-24q0 -2 0.5 -10t1.5 -10zM456 823l-1 -4q2 -4 10.5 -7t10.5 -3q3 1 11.5 11.5t18.5 23.5
t18.5 24.5t10.5 14.5h278q1 1 5.5 6.5t7.5 9.5q15 22 25.5 37t19 29t15 29.5t13.5 39.5q4 11 -1.5 15t-13.5 4h-4l-45 -60q-4 -2 -11 -6t-8 -4h-270q-1 -1 -6 -8.5t-8 -12.5q-8 -15 -19 -32.5t-22 -35.5t-20.5 -36t-14.5 -35z" />
    <glyph glyph-name="FL00F6h" unicode="&#xf6;" horiz-adv-x="865" 
d="M67 10q-1 2 -1.5 10t-0.5 10v24q0 18 0.5 37t1 36t0.5 23l1 5l2 5l5.5 5.5t5.5 4.5h3q22 0 43 -3.5l42 -7l42 -7t44 -3.5h10q8 0 16 0.5t16 0.5h10q-31 25 -61.5 54t-51 65.5t-26.5 83.5t11 107q19 66 52 118t75.5 92t91.5 67.5t99.5 45.5t100 26t92.5 8q40 0 80 -8
t75 -25.5t63 -44t44.5 -63t18.5 -84.5t-15 -107q-18 -62 -50.5 -111.5t-74.5 -90.5t-90.5 -73.5t-97.5 -59.5q29 -10 55 -10.5t58 -0.5h32q23 0 45 1.5t50 9.5q-1 -2 -1.5 -7.5t-1.5 -7.5q-8 -27 -27.5 -51.5t-44 -43t-50.5 -29.5t-46 -11h-226q1 3 5 14.5t6 15.5
q2 6 8.5 22t14 33.5t14.5 33t10 21.5q42 21 70.5 50.5t48 65.5t32.5 77.5t26 86.5l7 22q5 16 9 33.5t9 32.5l8 28q2 23 3 57.5t-3.5 66t-17 54t-37.5 22.5h-104q-25 0 -53 -21.5t-53 -52.5t-44.5 -65.5t-26.5 -60.5l-62 -216q-10 -35 -4 -65.5t17 -56t20.5 -45t6.5 -31.5
q-1 -4 -3.5 -12t-3.5 -10q-5 -10 -11.5 -25t-13 -29.5t-11.5 -25t-6 -10.5l-27 -10q-2 0 -11.5 -0.5t-23.5 -0.5q-13 0 -26.5 -0.5t-21.5 -0.5q-16 0 -38 -0.5t-46 0.5t-47 3.5t-39 8.5zM705 1016q7 0 6.5 -7.5t-2.5 -12.5l-10 -32q-8 -26 -17.5 -54.5t-24.5 -48.5
q-20 -2 -35 -2.5t-30 -0.5t-32 0.5t-41 0.5l6 21l5 16q3 11 8 26.5t11 31t12.5 29.5t12.5 22q1 2 5 6t6 4zM900 1017q7 0 6 -7.5t-3 -12.5l-9 -32q-8 -26 -18.5 -54.5t-25.5 -48.5q-20 -2 -34.5 -2.5t-29.5 -0.5t-32 0.5t-41 0.5l6 21l4 16q3 11 8 26.5t11 31t12.5 29.5
t12.5 22q2 2 5.5 6t5.5 4z" />
    <glyph glyph-name="FL00F7h" unicode="&#xf7;" horiz-adv-x="511" 
d="M100 265l1 4q5 17 17 41.5t25.5 50t27 49t21.5 38.5q3 5 8 12.5t6 7.5l351 2q1 0 8 4t11 6l29 20h4q8 0 13.5 -4t2.5 -15q-14 -48 -38 -88.5t-53 -85.5q-2 -4 -6.5 -9.5t-5.5 -5.5l-359 -2q-2 -3 -8 -8.5t-12.5 -11t-12.5 -10t-9 -5.5q-2 0 -10.5 3t-10.5 7zM389 204
q7 0 6.5 -7.5t-2.5 -12.5l-9 -32q-8 -26 -18.5 -54.5t-25.5 -48.5q-19 -2 -34 -2.5t-30 -0.5t-32 0.5t-41 0.5l6 21l5 16q3 11 8 26.5t10.5 31t12 29.5t12.5 22q2 2 5.5 6t5.5 4zM535 710q7 0 6 -7.5t-3 -12.5l-9 -32q-8 -26 -18.5 -54.5t-25.5 -48.5q-19 -2 -34 -2.5
t-30 -0.5t-31.5 0.5t-40.5 0.5l6 21l4 16q3 11 8 26.5t10.5 31t12 29.5t12.5 22q2 2 5.5 6t5.5 4z" />
    <glyph glyph-name="FL00F8h" unicode="&#xf8;" 
d="M138 398q34 117 90 198t127.5 131.5t153.5 73t168 22.5q71 0 128.5 -22t93 -67t44 -115t-18.5 -166q-34 -117 -88 -203t-123.5 -141.5t-152.5 -82.5t-174 -27q-78 0 -138 23t-94.5 71.5t-40 124t24.5 180.5zM364 432q-10 -36 -19.5 -76t-14 -79t-3 -75t13 -63.5
t34.5 -43.5t62 -16q56 0 99.5 33.5t76 85t56 113t39.5 117.5q16 57 24.5 113.5t1.5 101t-33 72.5t-79 28q-76 0 -129 -50t-94 -141l-7 -24q-5 -17 -10.5 -36t-10.5 -36zM580 594q5 8 9.5 5.5t9.5 -4.5q8 -6 13.5 -18t9.5 -26t7.5 -29t7.5 -27q-13 -21 -33.5 -52.5t-43 -65.5
t-44.5 -67.5t-40 -59.5l-13 9q-1 0 -5 11t-9.5 26t-10.5 31t-8 26q-2 2 -2 7t3 7z" />
    <glyph glyph-name="FL00F9h" unicode="&#xf9;" horiz-adv-x="851" 
d="M235 139q-19 22 -23.5 59t-0.5 82t14.5 96t21.5 101.5t20 98t11 85.5t-5.5 64t-30.5 34l1 5l2 5q1 2 6 10t7 10q38 6 62.5 8.5t50.5 2.5h38h10q8 0 16 -0.5t16 -0.5h10q13 -17 12.5 -54.5t-9 -87.5t-21.5 -108.5t-26.5 -117t-24 -112.5t-12.5 -96t6 -67.5t33 -26.5l47 -2
q25 0 51.5 21t52.5 56t52 81.5t50.5 97.5t46.5 103t41 98.5t34 84t25 60.5q21 25 50 39t60.5 21t60.5 8.5t50 1.5q16 0 10 -21q-3 -9 -10.5 -14.5t-17 -10.5t-19 -10.5t-16.5 -13.5q-5 -5 -14 -19.5t-13 -20.5q-2 -4 -17 -39t-36.5 -85t-46 -107.5t-46 -107.5t-36.5 -84.5
t-18 -37.5q-27 -29 -55 -60t-57 -58.5t-60 -49.5t-65 -33q-12 -10 -22.5 -15t-24 -8t-31.5 -4.5t-46 -3.5q-32 7 -56 18t-43 28t-34.5 41t-30.5 56zM585 1004l121 -1q2 0 2.5 -4t2.5 -6q7 -12 17 -38t19 -52.5t15 -47.5t6 -22l-6 -21q-24 0 -41.5 -0.5t-32.5 -0.5t-29.5 0.5
t-33.5 2.5q-1 13 -11 36t-21 48t-19 48.5t-4 37.5l5 12.5t10 7.5z" />
    <glyph glyph-name="FL00FAh" unicode="&#xfa;" horiz-adv-x="851" 
d="M235 139q15 -32 30.5 -56t34.5 -41t43 -28t56 -18q28 2 46 3.5t31.5 4.5t24 8t22.5 15q34 11 65 33t60 49.5t57 58.5t55 60q2 3 11.5 23.5t23.5 52.5t31 72t35 81.5t35 81.5t30.5 72.5t22.5 53.5t11 24q4 6 13 20.5t14 19.5q7 8 16.5 13.5t19 10.5t17 10.5t10.5 14.5
q6 21 -10 21q-21 0 -50 -1.5t-60.5 -8.5t-60.5 -21t-50 -39q-10 -23 -25 -60.5t-34 -84t-41 -98.5t-46.5 -103t-50.5 -97.5t-52 -81.5t-52.5 -56t-51.5 -21l-47 2q-25 1 -33 26.5t-6 67.5t12.5 96t24 112.5t26.5 117t21.5 108.5t9 87.5t-12.5 54.5h-10q-8 0 -16 0.5t-16 0.5
h-10h-38q-26 0 -50.5 -2.5t-62.5 -8.5q-2 -2 -7 -10t-6 -10l-2 -5l-1 -5q23 -8 30.5 -33.5t5.5 -63.5t-11 -85.5t-20 -98t-21 -101.5t-14.5 -96.5t0 -82.5t23.5 -59zM856 1032l-121 -1q-2 0 -5 -4t-6 -6q-10 -8 -24.5 -23t-31 -32.5t-33 -35.5t-30 -33t-22 -25t-8.5 -11
l-6 -21q24 0 41.5 -0.5t32.5 -0.5t29.5 0.5t33.5 2.5q9 13 32.5 36t49 48t46.5 48.5t25 37.5q2 5 3 12.5t-6 7.5z" />
    <glyph glyph-name="FL00FBh" unicode="&#xfb;" horiz-adv-x="851" 
d="M235 139q15 -32 30.5 -56t34.5 -41t43 -28t56 -18q28 2 46 3.5t31.5 4.5t24 8t22.5 15q34 11 65 33t60 49.5t57 58.5t55 60q2 3 11.5 23.5t23.5 52.5t31 72t35 81.5t35 81.5t30.5 72.5t22.5 53.5t11 24q4 6 13 20.5t14 19.5q7 8 16.5 13.5t19 10.5t17 10.5t10.5 14.5
q6 21 -10 21q-21 0 -50 -1.5t-60.5 -8.5t-60.5 -21t-50 -39q-10 -23 -25 -60.5t-34 -84t-41 -98.5t-46.5 -103t-50.5 -97.5t-52 -81.5t-52.5 -56t-51.5 -21l-47 2q-25 1 -33 26.5t-6 67.5t12.5 96t24 112.5t26.5 117t21.5 108.5t9 87.5t-12.5 54.5h-10q-8 0 -16 0.5t-16 0.5
h-10h-38q-26 0 -50.5 -2.5t-62.5 -8.5q-2 -2 -7 -10t-6 -10l-2 -5l-1 -5q23 -8 30.5 -33.5t5.5 -63.5t-11 -85.5t-20 -98t-21 -101.5t-14.5 -96.5t0 -82.5t23.5 -59zM669 1051q-7 0 -9.5 -6t-4.5 -11q-14 -13 -38.5 -38.5t-48.5 -52t-41.5 -46t-17.5 -20.5l-6 -21
q24 0 41.5 -0.5t32.5 -0.5q8 0 11.5 -0.5t8.5 -0.5h9h5q6 0 9 1q3 4 12.5 16t21.5 26t24.5 27.5t21.5 21.5q3 -8 7.5 -21t9 -26.5t8 -25t3.5 -15.5q4 -1 8 -1h7h9q5 0 9 0.5t11 0.5q15 0 32.5 0.5t41.5 0.5l6 21q0 1 -5.5 21t-14.5 46t-19 52t-18 38q3 9 -3 11l-2 2z" />
    <glyph glyph-name="FL00FCh" unicode="&#xfc;" horiz-adv-x="851" 
d="M235 139q-19 22 -23.5 59t-0.5 82t14.5 96t21.5 101.5t20 98t11 85.5t-5.5 64t-30.5 34l1 5l2 5q1 2 6 10t7 10q38 6 62.5 8.5t50.5 2.5h38h10q8 0 16 -0.5t16 -0.5h10q13 -17 12.5 -54.5t-9 -87.5t-21.5 -108.5t-26.5 -117t-24 -112.5t-12.5 -96t6 -67.5t33 -26.5l47 -2
q25 0 51.5 21t52.5 56t52 81.5t50.5 97.5t46.5 103t41 98.5t34 84t25 60.5q21 25 50 39t60.5 21t60.5 8.5t50 1.5q16 0 10 -21q-3 -9 -10.5 -14.5t-17 -10.5t-19 -10.5t-16.5 -13.5q-5 -5 -14 -19.5t-13 -20.5q-2 -4 -17 -39t-36.5 -85t-46 -107.5t-46 -107.5t-36.5 -84.5
t-18 -37.5q-27 -29 -55 -60t-57 -58.5t-60 -49.5t-65 -33q-12 -10 -22.5 -15t-24 -8t-31.5 -4.5t-46 -3.5q-32 7 -56 18t-43 28t-34.5 41t-30.5 56zM694 1016q7 0 6.5 -7.5t-2.5 -12.5l-10 -32q-8 -26 -18 -54.5t-25 -48.5q-19 -2 -34 -2.5t-30 -0.5t-32 0.5t-41 0.5l6 21
l5 16q3 11 8 26.5t10.5 31t12 29.5t12.5 22q2 2 5.5 6t5.5 4zM889 1017q7 0 6 -7.5t-3 -12.5l-9 -32q-8 -26 -18.5 -54.5t-25.5 -48.5q-20 -2 -34.5 -2.5t-29.5 -0.5t-32 0.5t-41 0.5l6 21l4 16q3 11 8 26.5t11 31t12.5 29.5t12.5 22q2 2 5.5 6t5.5 4z" />
    <glyph glyph-name="FL00FDh" unicode="&#xfd;" horiz-adv-x="1001" 
d="M423 -4q22 0 45.5 4.5t47 10.5t47 11.5t46.5 7.5l10 10l72 250q44 8 87 21t83.5 36.5t77 60t68.5 92.5q3 4 11 18.5t18.5 34t22.5 41.5t22.5 42t18.5 34.5t10 19.5q3 6 12.5 20.5t14.5 19.5q7 8 16.5 13.5t19 10.5t17 10.5t10.5 14.5q6 21 -10 21q-21 0 -50 -1.5
t-60 -8.5t-60.5 -21t-50.5 -39q-13 -30 -28 -68t-32 -77.5t-37 -77t-44 -67t-51.5 -47.5t-60.5 -18l125 436q-5 0 -16.5 -0.5t-16.5 -0.5q-7 0 -21 -0.5t-32 -1.5t-36.5 -2.5t-34.5 -2.5q-23 -2 -31 -3t-10 -9l-4 -14q-29 -103 -54.5 -201t-54.5 -201q-2 0 -8 -1l-12 -2
l-12 -2t-8 0q-30 9 -39 38.5t-6 71t12.5 89.5t16.5 93.5t7 84.5q0 40 -17 63h-10q-8 0 -15.5 0.5t-15.5 0.5h-10h-38q-26 0 -51 -2.5t-63 -8.5q-2 -2 -6.5 -10t-6.5 -10l-2 -5l-1 -5q30 -10 39.5 -36t8 -61.5t-9 -77.5t-11 -84.5t1.5 -81.5t29 -69q16 -21 40.5 -33.5
t52.5 -19.5t56.5 -10.5t54.5 -6.5zM922 1055l-122 -1q-2 0 -5 -4t-6 -6q-14 -12 -38.5 -38t-49 -52.5t-42.5 -47.5t-19 -22l-6 -21q24 0 41.5 -0.5t32.5 -0.5t29.5 0.5t34.5 2.5q9 13 32 36t48.5 48t47 48.5t25.5 37.5q2 5 3 12.5t-6 7.5z" />
    <glyph glyph-name="FL00FEh" unicode="&#xfe;" horiz-adv-x="605" 
d="M414 967l-111 -15q-78 -241 -132 -440.5t-98 -349.5q-7 -23 -15.5 -57.5t-17.5 -73t-18.5 -78t-16.5 -72t-12 -55t-5 -26.5l-4 -40l2 -0.5t4 -0.5q26 0 57 14t50 47q7 9 18 29t24 45.5t27 54t26 54t20.5 46.5t11.5 31l152 533q30 0 60.5 -4.5t52.5 -19.5t31 -43.5
t-5 -76.5q-13 -45 -34 -76t-48 -52.5t-59 -36.5t-67 -28q0 -1 -1.5 -4.5t-2.5 -5.5q-4 -14 0.5 -23t13.5 -17h8q5 0 12 -0.5t12 -0.5h8q50 0 105.5 14t106 45t91 80.5t60.5 121.5l4 11q2 9 4.5 19l4.5 18l4 12q1 39 -14.5 64.5t-41 41t-55.5 23t-57 11.5h-30q-21 0 -44 0.5
t-45 0.5h-62l83 281h-11q-8 0 -17.5 -0.5t-17.5 -0.5h-11z" />
    <glyph glyph-name="FL00FFh" unicode="&#xff;" horiz-adv-x="1001" 
d="M507 290q-26 3 -54.5 6.5t-56.5 10.5t-52.5 19.5t-40.5 33.5q-24 30 -29 69t-1.5 81.5t11 84.5t9 77.5t-8 61.5t-39.5 36l1 5l2 5q2 2 6.5 10t6.5 10q38 6 63 8.5t51 2.5h38h10q8 0 15.5 -0.5t15.5 -0.5h10q17 -23 17 -63q0 -39 -7 -84.5t-16.5 -93.5t-12.5 -89.5t6 -71
t39 -38.5q2 -1 8 0l12 2l12 2t8 1q29 103 54.5 201t54.5 201l4 14q-1 11 22 11q24 0 65 4q26 2 47.5 3t30.5 1q5 0 16.5 0.5t16.5 0.5l-125 -436q33 0 60.5 18t51.5 47.5t44 67t37 77t32 77.5t28 68q21 25 50.5 39t60.5 21t60 8.5t50 1.5q16 0 10 -21q-3 -9 -10.5 -14.5
t-17 -10.5t-19 -10.5t-16.5 -13.5q-5 -5 -14.5 -19.5t-12.5 -20.5q-2 -5 -10 -19.5t-18.5 -34.5t-22.5 -42t-22.5 -41.5t-18.5 -34t-11 -18.5q-32 -56 -68.5 -92.5t-77 -60t-83.5 -36.5t-87 -21l-72 -250l-10 -10q-23 -2 -46.5 -7.5t-47 -11.5t-47 -10.5t-45.5 -4.5z
M781 1016q7 0 6.5 -7.5t-2.5 -12.5l-10 -32q-8 -26 -17.5 -54.5t-24.5 -48.5q-20 -2 -35 -2.5t-30 -0.5t-32 0.5t-41 0.5l6 21l5 16q3 11 8 26.5t11 31t12.5 29.5t12.5 22q1 2 5 6t6 4zM976 1017q7 0 6 -7.5t-3 -12.5l-9 -32q-8 -26 -18.5 -54.5t-25.5 -48.5
q-20 -2 -34.5 -2.5t-29.5 -0.5t-32 0.5t-41 0.5l6 21l4 16q3 11 8 26.5t11 31t12.5 29.5t12.5 22q2 2 5.5 6t5.5 4z" />
    <glyph glyph-name="FL0152h" unicode="&#x152;" horiz-adv-x="1143" 
d="M844 829h-218q-38 -4 -73.5 -11.5t-70.5 -20t-69.5 -32t-69.5 -48.5q-70 -57 -124.5 -143.5t-88.5 -204.5q-28 -96 -19.5 -166t44 -115t93.5 -66.5t129 -21.5h557q25 0 60.5 10.5t69.5 31t62 50.5t39 69q-43 0 -85.5 -6t-86.5 -6q-24 0 -49.5 -0.5t-51 1t-49.5 6
t-44 14.5q35 34 71 64.5t72.5 60.5t72.5 60.5t71 64.5q2 1 3 4.5t2 5.5q1 5 -7 21t-21.5 38t-30.5 48.5t-33.5 52t-30 48.5t-19.5 39q3 1 11.5 3t18.5 3.5t18 2.5t11 1q12 1 42.5 4.5t65 7t65 6t41.5 2.5q9 8 21 18.5t24.5 22t24 24.5t20.5 25l2.5 6t5 11t2.5 6t0.5 3l0.5 2
q0 2 -2 5.5t-4 4.5q-5 -1 -16.5 -3t-24.5 -3.5t-24.5 -2.5t-16.5 -1h-148q-63 0 -105 -0.5t-68 -0.5h-32q-17 0 -25 1t-13 4zM689 752l29 -88l9 -7l169 -277l-271 -230q-3 -2 -11 -10t-11 -10q-2 -2 -4.5 -6.5t-7.5 -9.5q-52 -3 -88 -6.5t-61.5 -6t-44.5 -1.5t-37 7l-11 4
q1 -1 8 -3l-10 6q-15 15 -21.5 36.5t-6.5 47.5t6 55.5t15 61.5l26 89q16 55 36.5 116.5t50.5 112.5t70.5 84.5t96.5 33.5z" />
    <glyph glyph-name="FL0153h" unicode="&#x153;" horiz-adv-x="1060" 
d="M851 0q25 0 60 10.5t69.5 31t62.5 50.5t39 69q-44 0 -86 -6t-86 -6q-24 0 -49.5 -0.5t-51 1t-49.5 6t-44 14.5q35 34 71 64.5t72.5 60.5t72.5 60.5t71 64.5q2 1 3 4.5t2 5.5q1 5 -7 21t-21.5 38t-30.5 48.5t-33.5 52t-29.5 48.5t-20 39q3 1 11.5 3t18 3.5t18 2.5t11.5 1
q12 1 42.5 4.5t65 7t65 6t41.5 2.5q19 16 45.5 40.5t44.5 49.5l1 2t1 3l4 14q0 7 -5 10q-60 -1 -106.5 -2t-81 -1.5t-58.5 -0.5h-40h-25q-13 0 -17 1.5t-4 3.5h-273q-38 -4 -73.5 -11.5t-70.5 -20t-69.5 -32t-69.5 -48.5q-70 -57 -124.5 -143.5t-88.5 -204.5
q-27 -96 -18.5 -166t43.5 -115t93 -66.5t129 -21.5h284l1 2h190zM688 750l14 -16l105 -312l-265 -272q-2 -3 -10.5 -10.5t-11.5 -9.5q-2 -4 -8 -11.5t-13 -17.5q-50 -3 -84 -3q-36 0 -56 7l-13 7q1 -2 3.5 -3t6.5 -3l-10 6q-21 21 -26.5 53t-1.5 71.5t15.5 84t24.5 89.5
q10 37 23.5 76.5t30 77t37.5 71.5t46.5 59t56.5 40t68 15z" />
    <glyph glyph-name="FL0160h" unicode="&#x160;" horiz-adv-x="699" 
d="M681 20l-169 659q-2 2 -2 10t-1 10q1 2 2 3.5t1 2.5q34 0 79.5 5.5t89.5 3.5t80 -17.5t51 -57.5h27q4 15 6.5 43.5t3 56.5t-0.5 49t-3 21h-560l-9 -30l151 -639q-10 -5 -23.5 -8.5t-26.5 -6t-25 -4t-19 -1.5q-13 0 -43 -0.5t-66 -1.5t-73 -1.5t-62 -0.5h-32
q-8 -27 4.5 -48.5t34 -36.5t47 -23t44.5 -8h480zM658 864q6 0 8.5 6t4.5 11q15 13 39.5 38.5t48 52t41 46t17.5 20.5l6 21q-24 0 -41 0.5t-32 0.5q-8 0 -12 0.5t-8 0.5h-9h-7q-4 0 -8 -1q-3 -5 -12.5 -16.5t-21.5 -25.5t-24 -27.5t-21 -21.5q-3 8 -8 21t-9.5 26.5t-7.5 25
t-4 15.5q-3 1 -9 1h-6h-9q-4 0 -8 -0.5t-12 -0.5q-15 0 -32 -0.5t-41 -0.5l-6 -21q0 -1 5.5 -21t14 -46t18.5 -52t18 -38q-2 -10 4 -11q0 -2 2 -2z" />
    <glyph glyph-name="FL0161h" unicode="&#x161;" horiz-adv-x="638" 
d="M431 358q20 -5 39 -10.5t31 -18t15 -36t-9 -63.5q-15 -54 -35 -75t-50.5 -24.5t-76 2t-112.5 5.5q-9 0 -47.5 12t-104.5 46l-49 -167q0 -1 7 -5t12 -5q22 -6 53 -10t65 -6t66.5 -3t58.5 -1q31 0 67.5 3t75 12.5t76 27t71 46t60.5 69.5t43 98q15 51 10 83.5t-22.5 52.5
t-44 30.5t-55.5 18.5q-11 9 -28 16t-38 13t-44.5 13t-45.5 16q-13 6 -23 12.5t-16 17.5t-6 28t8 44q19 66 58.5 103.5t90.5 37.5q5 0 27.5 -2.5t50.5 -10t55.5 -21.5t41.5 -38v1q7 -2 18 7.5t24.5 24.5t28.5 33.5t29 34.5l1 30q0 1 -9 2.5t-22.5 3t-28 3t-24.5 1.5h-20
q-17 0 -40.5 0.5t-46.5 0.5h-69q-21 0 -44.5 -0.5t-44.5 -0.5h-29q-27 -5 -59 -14t-61.5 -27t-54 -47.5t-37.5 -74.5q-22 -74 -8 -128t49 -82zM620 860q7 0 9 6t4 11q15 13 39.5 38.5t48 52t40.5 46t17 20.5l7 21q-24 0 -41 0.5t-32 0.5q-8 0 -12 0.5t-8 0.5h-9h-6
q-5 0 -8 -1q-3 -5 -12.5 -16.5t-21.5 -25.5t-24.5 -27.5t-21.5 -21.5q-3 8 -7.5 21t-9 26.5t-8 25t-4.5 15.5q-3 1 -8 1h-7h-9q-4 0 -8 -0.5t-12 -0.5q-15 0 -32 -0.5t-41 -0.5l-6 -21q0 -1 5.5 -21t14 -46t18.5 -52t18 -38q-2 -9 4 -11q0 -2 2 -2z" />
    <glyph glyph-name="FL0178h" unicode="&#x178;" horiz-adv-x="785" 
d="M225 670q-2 1 -3.5 4.5t-1.5 5.5v5q8 28 35 52.5t60 43t65.5 29.5t51.5 11q60 0 90.5 -24t41 -64.5t6 -94.5t-13.5 -114l-6 -50h16q1 0 11.5 20t25 47t29 55t25.5 44q22 36 48 68.5t54.5 57.5t59.5 40t65 15q11 0 24.5 -0.5t25.5 -4t19.5 -12t7.5 -24.5q-1 -5 -2 -20
t-2.5 -32.5t-2.5 -34t-1 -23.5l-1 -5q-3 -9 -9 -12.5t-11 -3.5q-17 0 -30.5 6t-30.5 6q-32 0 -63.5 -17t-60.5 -45t-55.5 -64t-48 -75t-38.5 -78t-27 -72q-5 -16 -16.5 -55.5t-24.5 -84.5l-14 -47q-7 -24 -12.5 -46t-10.5 -39l-7 -25q-37 -10 -85 -20.5t-89 -10.5
q-1 0 -5.5 -0.5t-9 0.5t-8 3t-1.5 8l91 317q0 2 3 17t6.5 33t6.5 34t3 20q3 62 -2 112t-25 84t-56.5 50t-96.5 10zM670 1017q6 0 5 -7.5t-3 -12.5l-9 -32q-8 -26 -18 -54.5t-25 -48.5q-20 -2 -34.5 -2.5t-29.5 -0.5t-32 0.5t-41 0.5l6 21l4 16q3 11 8 26.5t11 31t12.5 29.5
t12.5 22q2 2 5.5 6t5.5 4zM863 1018q7 0 6 -7.5t-3 -12.5l-9 -32q-8 -26 -18.5 -54.5t-25.5 -48.5q-18 -2 -33 -2.5t-30 -0.5t-32 0.5t-41 0.5l6 21l4 16q3 11 8 26.5t11 31t12.5 29.5t12.5 22q2 2 5.5 6t5.5 4z" />
    <glyph glyph-name="FL017Dh" unicode="&#x17d;" horiz-adv-x="699" 
d="M30 20l2 -20h480q19 0 49 8t60 23t54.5 36.5t32.5 48.5h-32q-26 0 -62 0.5t-72 1.5t-65.5 1.5t-42.5 0.5q-7 0 -18 1.5t-23 4t-23.5 6t-17.5 8.5l519 636l8 30h-560q-2 0 -15 -21t-28.5 -49t-30 -56.5t-18.5 -43.5h27q39 42 84 57.5t90 17.5t87 -3.5t76 -5.5
q0 -1 0.5 -2.5t0.5 -3.5q-2 -2 -7 -10t-7 -10zM671 861q7 0 9.5 6t4.5 11q15 13 39.5 38.5t48 52t41 46t17.5 20.5l6 21q-24 0 -41.5 0.5t-32.5 0.5q-8 0 -11.5 0.5t-8.5 0.5h-9h-6q-5 0 -8 -1q-3 -5 -12.5 -16.5t-21.5 -25.5t-24.5 -27.5t-21.5 -21.5q-3 8 -7.5 21t-9 26.5
t-8 25t-3.5 15.5q-3 1 -8 1h-7h-8q-5 0 -9.5 -0.5t-11.5 -0.5q-15 0 -32.5 -0.5t-41.5 -0.5l-6 -21q0 -1 5.5 -21t14.5 -46t19 -52t18 -38q-3 -9 4 -11q0 -2 1 -2z" />
    <glyph glyph-name="FL017Eh" unicode="&#x17e;" horiz-adv-x="699" 
d="M30 20l2 -20h480q19 0 49 8t60 23t54.5 36.5t32.5 48.5h-32q-26 0 -62 0.5t-72 1.5t-65.5 1.5t-42.5 0.5q-7 0 -18 1.5t-23 4t-23.5 6t-17.5 8.5l519 636l8 30h-560q-2 0 -15 -21t-28.5 -49t-30 -56.5t-18.5 -43.5h27q39 42 84 57.5t90 17.5t87 -3.5t76 -5.5
q0 -1 0.5 -2.5t0.5 -3.5q-2 -2 -7 -10t-7 -10zM671 861q7 0 9.5 6t4.5 11q15 13 39.5 38.5t48 52t41 46t17.5 20.5l6 21q-24 0 -41.5 0.5t-32.5 0.5q-8 0 -11.5 0.5t-8.5 0.5h-9h-6q-5 0 -8 -1q-3 -5 -12.5 -16.5t-21.5 -25.5t-24.5 -27.5t-21.5 -21.5q-3 8 -7.5 21t-9 26.5
t-8 25t-3.5 15.5q-3 1 -8 1h-7h-8q-5 0 -9.5 -0.5t-11.5 -0.5q-15 0 -32.5 -0.5t-41.5 -0.5l-6 -21q0 -1 5.5 -21t14.5 -46t19 -52t18 -38q-3 -9 4 -11q0 -2 1 -2z" />
    <glyph glyph-name="FL0192h" unicode="&#x192;" horiz-adv-x="852" 
d="M422 56q1 -5 2 -18.5t3 -17.5q0 -4 -1 -10.5t3 -9.5l35 52l2 8q-1 11 -0.5 26.5t4.5 29.5q3 8 8 8q3 0 3.5 -6.5t-0.5 -15.5t-1 -17t3 -11q3 0 5 2l19 22l3 3v1l1 1l-10 33l1 3q1 7 10 7h1l20 -27l1 -1q2 0 6 3t7 5q2 1 10 3.5t11 4.5l1 2l-5.5 4t-7.5 6l-11 5l-12 10
l90 64l5 4q-5 6 -8 6h-1q-1 -1 -5.5 -4t-5.5 -4l-135 -91l-4 -1h-2q-2 0 -5 4l-95 96h-2l-9 -6l2 -4q14 -18 27 -32t30 -29l1 -3q-5 -5 -14.5 -9t-13.5 -6t-11.5 -6l-7.5 -4l-1 -2q2 -2 7.5 -4.5t7.5 -3.5q2 -2 4.5 -5t4.5 -3l1 1q3 2 10 7l14 10q4 4 7.5 7t5.5 3h1h1l2 -2
t2 -3v-2q-3 -11 -14 -18t-14 -18l-1 -2q2 -3 4 -12t4 -11v-4v-1q1 0 1.5 0.5l0.5 0.5q2 2 7.5 10.5t11 17.5t10 16.5t5.5 7.5h1q0 -2 5 -2q-8 -18 -16 -35t-19 -33zM410 124q-3 0 -3 -3q-2 -2 1 -2q1 0 3 2q0 3 -1 3zM378 237l90 -91h3q3 0 4 0.5l5 2.5q7 5 20 14t26 17
t23 14.5t11 7.5q6 4 15.5 10.5t18.5 12.5t15.5 11t6.5 6l6 20q2 8 9 9t13 1h6q7 2 14.5 12.5t15 23.5t13 26t7.5 20v3l3 8l1 3q-5 2 -8.5 3.5t-8.5 1.5q1 3 4 3.5t5 0.5h6q2 0 5 3q-3 8 -4 16t2 18q2 8 9 20q0 -3 -0.5 -8.5t0 -11t1.5 -10t4 -4.5h2q0 1 3 3t4 2h2q5 0 4 -7
t-2.5 -15t-2 -14.5t6.5 -5.5l-1 -5l-3 -11l-1 -3q-9 -30 -25 -51t-40 -41l1 -1q5 0 10 3.5t10 7.5q24 17 36.5 42t20.5 53q2 6 1.5 9t-1.5 4.5t-2.5 3t-1.5 4.5q1 10 3 21t-4 17q-2 2 -7 2q-4 0 -6 2q-1 6 0.5 20.5t4 31t6 32t5.5 23.5q6 20 15 40t15 40l4 13l4 13
q-31 27 -69.5 40.5t-82 14t-90 -12t-91.5 -37.5q-4 -2 -7 -4t-5 -6q-8 -26 -12.5 -51t-12.5 -50q-6 -20 -12.5 -38t-12.5 -37l-4 -4l-14 -28l-2 -2h-2h-7h-1q-11 -5 -17 -19.5t-11 -23.5q-7 3 -10 -7l-2 -4q0 -2 -1 -4.5t-2 -4.5l-1 -4q-11 -35 -7 -60.5t27 -40.5v2
q-1 7 -8 17t-9 21q-2 14 -1.5 27t5.5 30l2 7q1 4 4 7.5t8 3.5q2 5 8 18t8 17q3 7 3 5q0 -1 4 -1q3 0 3 -2t3 -2t6.5 4t7.5 9.5t6.5 10.5l3.5 7h1q4 0 1 -7.5t-3 -8.5q-3 -11 -9.5 -18.5t-8.5 -16.5l-1 -2q2 0 6.5 -1t6.5 -2v-2q-3 0 -10 -1.5t-9 -8.5q-3 -9 -5.5 -22t-4 -26
t-0.5 -24.5t7 -18.5q16 2 21.5 -4t-2.5 -26zM271 183q-5 -16 -14 -23.5t-11 -11.5q13 0 21.5 12.5t12.5 25.5l2 6q3 14 4 31.5t3 28.5v10q-2 23 -1 43.5t9 46.5l5 17q4 13 9.5 25.5t13.5 23.5l-1 -4q-5 -16 -12 -31t-12 -32q-6 -19 -8.5 -39.5t0.5 -38t12 -28.5t27 -11h2
q2 0 2.5 0.5t2.5 0.5h2q-2 0 -2 2q-2 0 -10 3t-8 5q-22 14 -23.5 44t8.5 62q5 17 11.5 34.5t17.5 32.5q11 4 24 10.5t18 20.5l2 7q-7 -13 -21.5 -21t-23.5 -8t-16 5t-3 17q2 7 6 13.5t11 6.5q3 0 7 -4t2 -9l-1 -2q0 -1 -2.5 -4.5l-2.5 -3.5q0 -2 2 -2q2 1 6.5 8.5t9 17t8 18
t4.5 11.5l1 3l4 14l2 6q3 11 4.5 21t5.5 21l1 3q3 -11 -1.5 -26t-8.5 -27q-5 -19 -12.5 -36.5t-18.5 -33.5q1 0 3 -0.5t3 -0.5q10 0 19.5 8.5t17 20.5t12.5 25.5t8 22.5t5 21t2 23t-3 20.5t-10 13.5h-1q-5 0 -11.5 -6t-6.5 -12q-5 2 -2 9q1 7 15 14q-1 5 -8.5 5.5t-9.5 1.5
q3 5 7 5h9q5 0 8.5 -4t9.5 -4h1q-2 26 -14 44.5t-35 18.5q-8 0 -18.5 -5t-13.5 -16l-1 -4q0 -1 -0.5 -1.5l-0.5 -0.5q9 10 17 10q13 0 8 -19q-3 -9 -10 -14.5t-14 -5.5q-11 0 -17 10.5t-2 24.5q6 22 22 32.5t33 14.5l1 4q-12 32 -14.5 72t9.5 82q4 14 9.5 27t9.5 26l1 3
q-14 -18 -23 -38t-14 -40q-4 -13 -6 -24.5t-5 -24.5l-2 -7q-1 22 3 45.5t11 46.5q4 14 7 23t11 26h-1q-3 0 -7 -6t-8.5 -13.5t-8 -15t-4.5 -10.5l-1 -4q-2 -5 -2.5 -8.5t-2.5 -8.5l-2 -8q-5 -19 -7.5 -36.5t-7.5 -37.5l-1 -3q-6 8 -6.5 23.5t1.5 33t5.5 34t6.5 26.5
q-5 0 -8.5 -8t-5.5 -16l-2 -8q-8 -26 -8 -52q0 -25 2 -48l-1 -3q-10 16 -11 38t-1 43l-2 3q-1 -2 -2.5 -5.5t-1.5 -4.5q-5 -15 -5 -28t1.5 -25t3.5 -23.5t3 -24.5h-2q-1 0 -4.5 6.5t-4.5 10.5q-2 4 -4 11.5t-3.5 14.5t-3.5 12.5t-5 5.5q-8 -26 -6.5 -46t10.5 -40l-1 -0.5
t-2 -0.5v1q-1 1 -4.5 3.5t-2.5 4.5q-2 1 -6 5.5t-6 5.5h-3q-3 -11 0.5 -18.5t1.5 -17.5q-2 0 -4.5 0.5t-4.5 0.5q-1 0 -1 -1v0q-2 -6 6 -19t11 -17l-4 -4h-20q0 -8 4.5 -12.5t10.5 -6.5l-1 -3q-2 -1 -8 -4.5t-7 -6.5l-1 -1l3 -2l13 -15l2 -3q-4 -2 -8 -3.5t-6 -3.5l2 -6
l21 -15l-18 -4l-2 -4l4 -2t7 -3l15 -5q-5 -2 -12.5 -6t-12.5 -9v-1q-2 -6 4 -7t7 -2q2 -1 7.5 -1.5t7.5 -0.5q-3 -2 -11 -6t-13 -9l-1 -2v-1q0 -1 1 -2.5l1 -1.5h36q-8 -7 -17 -14t-13 -19q8 0 18.5 4.5t18.5 7.5h1h1l-30 -28q-1 -1 -3 -3.5t-3 -3.5l-0.5 -0.5t-0.5 -1.5v-1
h1q-1 -1 1.5 -2t3.5 -1q2 1 9.5 3.5t10.5 4.5h1h1q-5 -4 -12 -11.5t-9 -12.5v-2q-1 -1 1 -1h2q5 1 11 5t10 4h2q-7 -8 -13.5 -16t-9.5 -19q7 0 14.5 4t13.5 8q-1 -2 -4.5 -7.5t-6.5 -10.5q-2 -3 -2.5 -4t-2.5 -4q-2 -2 -2 -3v-1q-2 -3 3 -3t11 5t12 8q-5 -7 -7 -13.5
t-4 -14.5h4q8 11 21 21l-3 -10q-8 -25 -16 -46t-15 -50q-3 -13 -14 -13q-3 0 -4.5 0.5t-1.5 5.5q-1 1 0.5 1.5l1.5 0.5h7l2 8h-4q-5 0 -7.5 -1t-4.5 -7q-4 -16 10 -16q5 0 9.5 4.5t9.5 4.5q9 0 6.5 -11.5t-4.5 -18.5q-3 -11 -9 -21t-18 -10q-5 0 -8.5 2.5t-1.5 10.5
q5 18 18 18q6 0 3 -6q0 -2 -2 -5t-3 -6q3 0 6.5 3.5t4.5 7.5q3 8 -0.5 10.5t-8.5 2.5q-9 0 -15 -7.5t-9 -18.5q-4 -11 2.5 -15t14.5 -4q11 0 19 10.5t12 22.5q7 26 5 50t3 50h3q-4 -17 -4 -33t1 -32.5t0.5 -33t-5.5 -33.5zM679 185q-4 -12 -3 -24t13 -12h2q-5 8 -7.5 14.5
t0.5 18.5q5 18 14.5 35.5t20 35t21 34.5t16.5 35l-2 -9q-8 -26 -23.5 -49t-22.5 -49q-5 -14 -2 -23.5t14 -9.5q8 0 16 4t12 15q2 10 0.5 18t-10.5 8q-5 0 -9.5 -2.5t-7.5 -10.5q-2 -5 -1 -7t4 -4l4 14q1 0 4 1.5t5 1.5q2 -2 4 -6.5t2 -6.5v-5q-2 -7 -8.5 -10t-11.5 -3
q-11 0 -11 11t4 22q2 5 6.5 16.5t11.5 11.5q5 0 7.5 -4.5t9.5 -4.5q5 0 11 5t7 14q0 5 -5 5h-2h-4q-2 0 -5 -3q0 -2 -1 -3v-2h8v-2q0 -1 -2 -3q0 -3 -4 -3h-4q-5 0 -6 8l3 13l6 18l5 20l4 12q0 1 1 6t2 11t2 11.5t1 6.5l2 7l2 6l10 -21h5q2 8 2 14t2 12l1 2q3 -5 6.5 -9
t10.5 -4q2 8 0.5 14t0.5 14q7 0 10 -3t10 -3q3 9 1.5 17.5t-3.5 14.5l1 2q1 -2 6 -5.5t9 -3.5q5 0 5 4q2 5 -1 13t-5 10h1q7 0 11 -3.5t11 -3.5l2 7l-17 33h1q9 0 15 -5.5t14 -5.5q5 0 6 4v1q0 2 1 3q-3 2 -7 12t-5 12h34q1 0 2.5 1.5t3.5 2.5v1q1 3 -1.5 5t-4.5 4
q-2 1 -6 3.5t-6 4.5l29 5q3 0 5 5q2 8 -5.5 9.5t-8.5 7.5l17 5q1 1 6.5 2.5t6.5 4.5l1 2l-18 4q9 5 17.5 8.5t18.5 8.5l1 4q1 3 -3 4t-6 3q6 5 15 9.5t11 12.5q2 5 -2 7t-7 3q5 5 15 8.5t12 13.5h-23q11 11 21.5 18.5t21.5 21.5q-1 2 -6 2.5t-7 1.5q8 7 14 14t9 18h-2
l-29 -19q-5 -3 -6 -3q14 17 29.5 36.5t21.5 41.5l2 6q1 4 -3 4q-14 -17 -27.5 -34.5t-30.5 -28.5l-1 1q0 1 1 1.5l1 0.5l9 10q14 20 29 42t22 46l3 10l-2 3q-3 -3 -3 -6l-12 -22q-12 -18 -22.5 -32.5t-24.5 -25.5v2q17 26 30.5 50.5t21.5 53.5l1 4l4 13l-1 13h-1
q-3 -11 -9.5 -28t-15 -35t-18 -33.5t-18.5 -22.5l1 3q5 20 15 40.5t16 41.5q5 16 7.5 34.5t-2.5 32.5l-23 -82q-10 -34 -32 -64v2l1 2q7 17 12.5 29.5t10.5 29.5v1q1 6 3.5 17t2.5 12q0 2 1 8.5t1 13.5v14t-1 7l-2 -4q-3 -11 -5 -22t-5 -22q-14 -48 -38.5 -84.5t-55.5 -74.5
v-2q14 -5 24 -13.5t3 -31.5q-5 -14 -15.5 -25t-22.5 -11q-19 0 -13 23q2 6 7.5 10.5t10.5 4.5t5.5 -5.5t5.5 -5.5q5 15 -2 21.5t-18 6.5q-22 0 -41.5 -17t-36.5 -38l-2.5 -5l-1.5 -3l-1 -2q13 10 24 10h7q8 0 6 -5q-2 0 -9.5 -1.5t-11.5 -3.5v-2q1 -2 4.5 -5t2.5 -6
q-3 -3 -4 -7q-6 -9 -10.5 -16.5t-7.5 -14.5t-6 -15t-6 -20l-2 -8q-2 -5 -2.5 -9.5t-2.5 -9.5l-1 -3q-1 -3 -2 -11t-2 -15.5t-0.5 -13.5t3.5 -6l5 19q2 3 5 3.5t5 0.5h2q12 0 7 -17q-4 -12 -13.5 -17t-18.5 -5q-11 0 -18 8t-12 19l-1 -5q-3 -10 -0.5 -14.5t7 -6.5t10 -4
t7.5 -6q3 -14 0.5 -32.5t-7.5 -34.5q-11 -35 -31.5 -65t-50.5 -44q-5 -2 -11.5 -2.5t-8.5 -4.5q1 0 3.5 -0.5t4.5 -0.5q18 0 33.5 11.5t28.5 28.5t22.5 38t14.5 39q5 16 5.5 30.5t5.5 28.5q0 1 1 3t1 3q1 -14 -2 -31.5t-8 -33.5q-6 -22 -17 -42.5t-22 -40.5t-22 -40.5
t-17 -42.5zM337 344q-10 -32 -7 -62t21 -47q4 1 10 7q-2 5 -6.5 7t-5.5 8q-7 25 -6.5 48.5t8.5 55.5q-2 -2 -6.5 -5.5t-4.5 -4.5l-1 -2.5t-2 -4.5zM628 242q3 -6 7 -6q5 0 6.5 2t6.5 7q22 20 38.5 43t24.5 52q2 5 2.5 11.5t-4.5 6.5q-7 -18 -13 -31t-13 -24.5t-15.5 -22.5
t-19.5 -25q-4 -6 -9.5 -7t-10.5 -6zM654 247l-2 -2v-3q4 0 4 3q2 2 -2 2zM278 322v0q1 0 1 -1t-1.5 -1.5t-0.5 1.5v1h1zM809 395q2 0 2 -2q-2 -2 -3 -2h-1l1 2q0 1 0.5 1.5zM766 420l0.5 -0.5t0.5 -1.5t-1 -1.5l-1 -0.5v2t1 2zM748 522q-3 -12 -6 -26t-2 -25.5t6 -19.5
t17 -8l1 3v8q-1 4 1 16t2 14q1 8 2 13.5t3 11.5l3 10q6 20 13 33.5t20 32.5l1 4h-2l-6 6h-1h-1q-21 -24 -31.5 -45.5t-21.5 -50.5l1 3l3 11l1 4q7 22 18 42t28 39h-2q-1 -2 -4 -3.5t-3 -2.5q-17 -14 -26 -32t-14 -38zM375 459q-2 0 -2 -3q-2 -2 0 -2l2 2q1 2 0.5 2.5z
M363 469l1.5 -1.5t2.5 -1.5l-1 -2q-1 -4 -8 -4h-3q1 3 3 6t5 3zM758 469q2 0 1 -3.5l-1 -3.5h-8q2 7 8 7zM851 473q1 0 0 -1q0 -3 -2 -3q-1 0 -1 3q1 1 3 1zM371 489h2q5 0 3 -5q-1 -3 -7 -3zM384 484v-2q0 -1 -2 -1q-1 0 -1 1q0 2 3 2zM758 489q3 0 3 -3t-1 -5h-7q1 2 2 5
t3 3zM749 497l-2 -6l-1 -4q-4 -4 -1 4q1 6 4 6zM402 562l1 2q3 -9 -1 -23l-7 -24l-1 -5l-4 -15l-2 -6q2 6 5.5 22t4.5 22q2 6 2 13t2 14zM378 509q7 0 6 -4v-1q-4 -2 -3 -2l-0.5 -0.5t-1.5 -0.5q-2 0 -2 3t1 5zM759 509h1q7 0 5 -2q0 -1 -1.5 -3l-1.5 -2v-1h-1q-2 0 -2.5 3
t0.5 5zM383 527q2 4 4.5 4.5t4.5 0.5l-2.5 -5t-4.5 -3q-1 0 -1 3h-1zM762 527q2 4 5 4.5t4 0.5l-2.5 -5t-3.5 -3h-1q-1 0 -1 3h-1zM773 553l1.5 1.5t3.5 2.5t2.5 -1t0.5 -3q-2 -3 -3 -5.5t-3 -0.5q-4 0 -2 6zM390 554h6l-2 -5h-6zM398 585q0 1 2 3q4 -10 2 -18v-3
q-2 2 -2.5 8.5t-0.5 9.5h-1zM381 572l1 -1q-1 -1 -2.5 -1.5t-0.5 1.5l0.5 0.5t1.5 0.5zM386 573l1 1h1q0 1 2 3l3 3q2 -2 1 -4l-1 -5l-1 -2q-7 0 -6 4zM787 574q1 6 5 6q1 0 1 -6q-2 -5 -6 -5q-2 0 0 5zM323 589q2 8 8 14.5t13 6.5h1q-2 -2 -7 -6.5t-7 -5.5l-2 -7
q-4 -14 9 -19l-1.5 -0.5t-3.5 -0.5q-15 0 -10 18zM862 589q3 14 -6 21h1q6 0 8.5 -6.5t0.5 -14.5q-5 -18 -20 -18h-3q-2 0 -3 1q5 2 12.5 5.5t9.5 11.5zM380 578l-1 -1q1 0 1 -2q0 -1 -1 -1v1q0 2 0.5 2.5zM399 592l0.5 -0.5t-0.5 -2.5v-1h-1q-2 0 -2 1q0 3 3 3zM398 595v-3
l-2 -3q-2 0 0 3q0 3 2 3zM396 598q1 0 1 -3l-2 -3q-3 0 -1 3q0 3 2 3zM422 641q-6 -20 1 -31l9 30l6.5 3.5t15 8t18 9t15.5 7.5q26 12 51.5 18.5t51.5 11.5q5 1 10 1.5t10 0.5h19q46 0 85 -15.5t72 -41.5q0 -1 1 -2l1 -1l-8 -27q7 1 11.5 11t6.5 16q0 2 1 5t1 5
q-2 8 -10.5 13.5t-14.5 9.5q-32 20 -66 31t-75 11q-39 0 -77.5 -8.5t-80.5 -27.5q-5 -3 -12.5 -7t-15 -7.5t-12.5 -6.5l-5 -3l-6 -5q-1 0 -1.5 -3.5t-1.5 -5.5zM350 615q2 0 2 -2q-2 -3 -3 -3l-0.5 0.5t0.5 2.5q0 1 0.5 1.5zM852 615q2 0 2 -2q-2 -3 -3 -3q-3 0 -1 3
q0 2 2 2zM363 632q3 11 10 11q9 0 6 -9q-1 -3 -3.5 -8t-6.5 -3q-8 1 -6 9zM400 625h1v-2q-1 -2 -1.5 -2.5l-0.5 -0.5q-3 0 -1 3q0 2 2 2zM872 665h3q-18 -4 -33 -15t-31 -27h-2q13 14 29.5 28t33.5 14zM394 634q1 0 1 1q1 -1 1.5 -4t2.5 -3l-1 -3q-2 0 -2.5 3t-0.5 5z
M836 634q2 9 10 9t5 -11q-1 -7 -10 -7q-8 0 -5 9zM395 640v-2l-2 -3q-3 0 -1 3q0 2 3 2zM239 643q2 0 2 -3q-2 -2 -3 -2q-2 0 0 2q0 3 1 3zM368 663h2q8 0 14.5 -7.5t8.5 -15.5q-1 0 -2 -1h-1v1q0 1 -3 5.5t-4 4.5q-2 2 -7.5 6.5t-7.5 6.5zM365 665q-1 -1 -4 -1q-2 0 -1 1
q-1 1 2 1t3 -1zM278 721q2 0 2 -3q-2 -3 -4 -3t0 3q0 3 2 3zM293 746q3 0 2 -3q0 -2 -4 -2v2q1 3 2 3zM310 766v-3l-2 -2q-3 0 -1 2q0 3 3 3zM331 769v-3l-2 -3q-3 0 -1 3q0 3 3 3zM330 773l-1 -2v-2q-2 0 -2 2t3 2zM1020 925q-1 0 -2 -3q0 -2 1 -2t1 2q1 3 0 3z" />
    <glyph glyph-name="FL02C6h" unicode="&#x2c6;" horiz-adv-x="390" 
d="M366 810q-7 0 -9.5 -6t-4.5 -11q-15 -13 -39.5 -38.5t-48 -52t-41 -46t-17.5 -20.5l-6 -21q24 0 41.5 -0.5t32.5 -0.5q7 0 11 -0.5t9 -0.5h8h6h4q3 0 5 1q3 4 12.5 16t21.5 26t24.5 27.5t20.5 21.5q3 -8 8 -21t9.5 -26.5t7.5 -25t4 -15.5q3 -1 8 -1h6h10q5 0 8.5 0.5
t11.5 0.5q15 0 32.5 0.5t41.5 0.5l6 21q0 1 -5.5 21t-14.5 46t-19 52t-18 38q2 10 -4 11q0 2 -2 2z" />
    <glyph glyph-name="FL02DCh" unicode="&#x2dc;" horiz-adv-x="431" 
d="M211 653l-1 -4q2 -4 10.5 -7t10.5 -3q3 1 11.5 11.5t18.5 23.5t18.5 24.5t10.5 14.5h278q2 1 6.5 6.5t6.5 9.5q15 22 25.5 37t19 29t15.5 29.5t14 39.5q3 11 -2.5 15t-13.5 4h-4l-45 -60q-4 -2 -11 -6t-8 -4h-270q-1 -1 -6 -8.5t-8 -12.5q-8 -15 -19 -32.5t-22 -35.5
t-20.5 -36t-14.5 -35z" />
    <glyph glyph-name="FL2013h" unicode="&#x2013;" horiz-adv-x="431" 
d="M101 269q5 17 17 41.5t25.5 50t27 49t21.5 38.5q3 5 8 12.5t6 7.5l270 1q1 0 8 4t11 6l30 20h4q8 0 13.5 -4t2.5 -15q-14 -48 -38 -88.5t-53 -85.5q-3 -4 -7.5 -9.5t-5.5 -5.5l-278 -1q-2 -3 -8 -8.5t-12.5 -11t-12.5 -10t-9 -5.5q-2 0 -10.5 3t-10.5 7z" />
    <glyph glyph-name="FL2014h" unicode="&#x2014;" horiz-adv-x="511" 
d="M101 269l-1 -4q2 -4 10.5 -7t10.5 -3q3 1 9 5.5t12.5 10t12.5 11t8 8.5l359 2q1 0 5.5 5.5t6.5 9.5q29 45 53 85.5t38 88.5q3 11 -2.5 15t-13.5 4h-4l-29 -20q-4 -2 -11 -6t-8 -4l-351 -2q-1 0 -6 -7.5t-8 -12.5q-8 -15 -21.5 -38.5t-27 -49t-25.5 -50t-17 -41.5z" />
    <glyph glyph-name="FL2018h" unicode="&#x2018;" horiz-adv-x="190" 
d="M389 810q7 0 6.5 -7.5t-2.5 -12.5l-10 -32q-4 -13 -13 -41t-19.5 -58.5t-21 -56.5t-17.5 -36q-19 -2 -30.5 -6.5t-26.5 -4.5t-28 2t-37 2l6 21l5 16q2 9 7 28.5t10.5 43.5t12 49t11.5 45q5 14 9 23.5t6 13.5q2 2 5.5 6t5.5 4z" />
    <glyph glyph-name="FL2019h" unicode="&#x2019;" horiz-adv-x="190" 
d="M389 810q7 0 6.5 -7.5t-2.5 -12.5l-10 -32q-4 -13 -13 -41t-19.5 -58.5t-21 -56.5t-17.5 -36q-19 -2 -30.5 -6.5t-26.5 -4.5t-28 2t-37 2l6 21l5 16q2 9 7 28.5t10.5 43.5t12 49t11.5 45q5 14 9 23.5t6 13.5q2 2 5.5 6t5.5 4z" />
    <glyph glyph-name="FL201Bh" unicode="&#x201a;" horiz-adv-x="201" 
d="M225 160l-121 -1q-2 0 -5.5 -4t-5.5 -6q-5 -8 -19 -29t-31.5 -49t-36.5 -58t-35 -55.5t-26 -42.5l-10 -17l-6 -21q24 0 41 -0.5t32 -0.5t29.5 0.5t34.5 2.5q6 8 19.5 28.5t30.5 46.5t36 55t35 55t27.5 46.5t13.5 29.5q2 5 3 12.5t-6 7.5z" />
    <glyph glyph-name="FL201Ch" unicode="&#x201c;" horiz-adv-x="368" 
d="M389 810q7 0 6.5 -7.5t-2.5 -12.5l-10 -32q-4 -13 -13 -41t-19.5 -58.5t-21 -56.5t-17.5 -36q-19 -2 -30.5 -6.5t-26.5 -4.5t-28 2t-37 2l6 21l5 16q2 9 7 28.5t10.5 43.5t12 49t11.5 45q5 14 9 23.5t6 13.5q2 2 5.5 6t5.5 4zM567 809q7 0 6 -7.5t-3 -12.5l-9 -32
q-4 -13 -13 -41t-19.5 -58.5t-21 -56.5t-16.5 -36q-20 -2 -31.5 -6.5t-26.5 -4.5t-28 2t-37 2l6 21l5 16q2 9 6.5 28.5t10.5 43.5t12 49t12 45q10 30 15 37q2 2 5.5 6t5.5 4z" />
    <glyph glyph-name="FL201Dh" unicode="&#x201d;" horiz-adv-x="368" 
d="M389 810q7 0 6.5 -7.5t-2.5 -12.5l-10 -32q-4 -13 -13 -41t-19.5 -58.5t-21 -56.5t-17.5 -36q-19 -2 -30.5 -6.5t-26.5 -4.5t-28 2t-37 2l6 21l5 16q2 9 7 28.5t10.5 43.5t12 49t11.5 45q5 14 9 23.5t6 13.5q2 2 5.5 6t5.5 4zM567 809q7 0 6 -7.5t-3 -12.5l-9 -32
q-4 -13 -13 -41t-19.5 -58.5t-21 -56.5t-16.5 -36q-20 -2 -31.5 -6.5t-26.5 -4.5t-28 2t-37 2l6 21l5 16q2 9 6.5 28.5t10.5 43.5t12 49t12 45q10 30 15 37q2 2 5.5 6t5.5 4z" />
    <glyph glyph-name="FL201Ah" unicode="&#x201e;" horiz-adv-x="402" 
d="M426 160q7 0 6 -7.5t-3 -12.5q-3 -9 -14 -29.5t-27 -46.5t-35 -55t-36 -55t-30.5 -46.5t-19.5 -28.5q-20 -2 -35 -2.5t-30 -0.5t-31.5 0.5t-40.5 0.5l6 21l10 17t26 42.5t35 55.5t36.5 58t31.5 49t19 29q2 2 5.5 6t5.5 4zM236 159q7 0 6 -7.5t-3 -12.5q-3 -9 -14 -29.5
t-27 -46.5t-34.5 -55t-36 -55t-31 -46.5t-19.5 -28.5q-20 -2 -34.5 -2.5t-29.5 -0.5t-32.5 0.5t-41.5 0.5l6 21l10.5 17t26.5 42.5t35 55.5t36.5 58t31.5 49.5t19 28.5q1 2 5 6t6 4z" />
    <glyph glyph-name="FL2020h" unicode="&#x2020;" horiz-adv-x="962" 
d="M396 198v-1q1 0 2 -2t1 -3q0 -2 2.5 -9t5 -14.5t5 -14.5t2.5 -9q2 -5 7 -17t10 -26t10 -26.5t7 -18.5q7 -14 15 -30.5t19 -26.5h1h1q51 43 97 89.5t91 100.5l6 5h1q8 0 15.5 -6.5t18.5 -6.5q5 19 4 28t-6 25l2 4q0 3 3 6q8 -9 19.5 -21t23.5 -12q3 12 5 24.5t5 23.5
q-2 4 -4.5 7.5t-5.5 7.5h3q11 0 20.5 -3t20.5 -3q4 12 2 20.5t-6.5 15t-11 11t-12.5 9.5v1t-1 1h2q5 -2 10 -5t9 -5q13 -3 20.5 -4t19.5 -1h10q10 0 20.5 1.5t11.5 4.5q2 8 -0.5 17.5t-4.5 14.5l1 2q3 9 12.5 13.5t21 7.5t23 5.5t17.5 8.5l1 1q5 16 -7 25t-23 7
q3 6 17.5 11.5t30.5 11t30 12t16 14.5l1 1q-5 5 -12.5 10t-15.5 5h-4q-2 -1 -10 -4t-10 -4h-1h-1q5 8 11 10.5t14 7.5q2 1 7 4t10 7t10 7t7 4q15 10 36 28.5t30 34.5l1 1v1q0 3 -1 3h-30q-4 -3 -14.5 -9.5t-21.5 -13t-21 -13t-14 -9.5q-2 0 -12.5 -6.5t-15.5 -8.5
q-2 -1 -4 -1.5t-3 -1.5l5 5q49 27 97.5 64.5t83.5 93.5l1 1v1q-7 0 -14.5 -1t-15.5 -6q-25 -23 -47.5 -43t-48.5 -40q-3 -2 -9.5 -7t-14.5 -10t-14.5 -9t-9.5 -4h-2q7 8 21.5 17t23.5 16q47 36 86.5 80.5t65.5 101.5l-1 0.5t-2 0.5q-20 0 -39 -21q-3 -5 -13.5 -17t-23 -25.5
t-23.5 -25.5t-16 -17l-40 -37q-1 -1 -4.5 -4t-6.5 -4l1 3q75 66 130 153t82 183l3 9l-7 -10q-57 -100 -119 -188.5t-130 -179.5q-1 -2 -2.5 -3.5t-1.5 -3.5h12q-3 -8 -12 -19.5t-14 -15.5l-2 2q2 7 9 12.5t9 12.5q1 1 0.5 2l-0.5 1q-1 -1 -5 -2t-6 -1l-1 0.5t-2 0.5v2
q22 25 40 52t36 53q10 14 18 29t13 30l2 6q-17 -26 -34.5 -51.5t-38.5 -48.5q-2 -2 -5.5 -7t-8 -10t-8 -9t-4.5 -4l-101 -93l1 3q1 4 4 7l79 73q14 13 20 27l80 168q5 9 7 15.5t4 14.5l1 2q1 2 0.5 4t0.5 4l1 2q-10 -7 -18 -25t-13 -27q-2 -3 -4.5 -8t-5.5 -10t-5 -9.5
t-3 -5.5q-8 -15 -21.5 -35t-24.5 -35l1 3q35 57 59 109.5t41 112.5l2 9l6 19l1 5q1 2 3 12.5t-2 12.5l-115 -243q0 -1 -4.5 -8t-10 -16.5t-11.5 -19.5t-9 -16q-2 -2 -5.5 -7.5t-5.5 -7.5l1 2v1q10 18 20.5 36t15.5 37q6 21 4 44l-4 -5l-21 -47l-4 -5l2 5q3 11 8 21t9 21h-5
q-59 -30 -115.5 -51t-111.5 -21q-31 0 -57 5.5t-49.5 15t-46 22.5t-46.5 29q-2 3 -5 3l-2 -5q-4 -13 -5 -25.5t-4 -25.5q-3 -3 -3 -7v8q0 3 1 12t2 19t2 19t1 12q-6 -4 -12 -19.5t-8 -22.5q-5 -17 -4 -32.5t-4 -32.5q0 -1 -1 -1.5t-1 -1.5q0 5 -0.5 11.5t-0.5 11.5v22
q0 14 0.5 27t0.5 23v10l22 203l-1 2q-8 -13 -12.5 -27t-9.5 -28q-9 -32 -14 -58.5t-7.5 -51.5t-3.5 -50.5t-2 -54.5v-2q0 -1 -1 -1.5t-1 -1.5q-5 32 -4.5 63.5t3.5 66.5q3 11 -4 18l-2 -5q-3 -10 -4.5 -21t-3.5 -22l-16 -167q-1 -9 2 -16t5 -14q1 -3 5 -10t7.5 -15t7 -15
t4.5 -10h-4q-1 2 -6.5 12.5t-13.5 25.5t-12 24q-14 28 -18 63.5t-8 69.5l-2 -8q-8 -26 -4.5 -54t6.5 -48q1 -3 2.5 -11.5t3 -18.5t3 -18.5t2.5 -11.5h-16q1 -14 5.5 -25.5t8.5 -22.5v-1q-5 0 -8.5 6.5t-6 15.5t-3.5 18.5t-2 15.5h14q0 1 0.5 3t-0.5 2q-1 1 -2 6.5t-2 12
t-2 12t-1 7.5q-1 1 -2 11t-2.5 22t-3 22t-1.5 12t-1.5 8.5t-3 14t-3 14t-1.5 8.5q0 7 -1.5 18.5l-3 23t-3 20.5t-1.5 11l-5 150l-1 5l-1 -4l-3 -11l-1 -4q-27 -94 -19.5 -177t41.5 -149h-1h-1q-2 0 -3.5 3t-2.5 4l-16 33l-31 95q-2 8 -11 11t-17 4l-1 -3q-5 -22 -2 -42
q3 -28 9 -50t15.5 -41.5t21 -37t25.5 -36.5q2 0 1 -3h-1h-1l-13 10q-2 2 -7.5 9t-7.5 9q-1 1 -4 5.5t-6 9.5t-5.5 9t-3.5 6l-25 47q-5 8 -12 9.5t-17 1.5l-1 -3l3 -20q8 -51 36 -85.5t63 -57.5l1 -2h-2h-2l-2 1t-3 1q-2 1 -6 4t-8.5 6.5l-9 7t-6.5 5.5l-5 5t-6 5
q-11 11 -18 22t-24 11h-11q-8 0 -11 -6q11 -38 33 -65.5t54 -41.5l-1 -5l-34 15h-6q-2 0 -8 -1.5t-12.5 -3.5t-12 -5t-6.5 -6v-2q13 -14 29.5 -22.5t33.5 -14.5q2 0 1 -3v-1v-1q-10 -2 -24 -12t-18 -24l-1 -2l26 -12l-9 -30q0 -1 3.5 -7.5t6.5 -10.5q2 -2 2.5 -5t2.5 -5
q5 -1 8.5 -1.5t8.5 -0.5h18q32 0 68 12h1h1l-1 -1t-2 -1q-17 -10 -33.5 -20t-23.5 -34q13 0 24 3t23 3q-5 -5 -9 -7.5t-9 -7.5q-4 -12 -9 -24t-9 -24q7 0 15.5 4t17 9.5t16.5 11t15 8.5q1 0 1 -2t-1 -3q-2 -8 -11 -16t-14 -16q-3 -6 -4 -10t-3 -9l-3 -9q10 0 21.5 8t20.5 8z
M757 277v-1q-2 0 -2 1q2 2 3 2v-1zM367 282q3 0 1 -2q0 -3 -3 -3v3zM826 405l-2 5q1 1 8.5 7.5t9.5 7.5q1 0 3 -3q2 -2 8 -10t8 -10h2q3 0 5 3l34 49h-78l81 113q11 -5 18.5 -15.5t12.5 -21.5l1 -1l-2 -2l-11 -10h-1h-1l-7 8q-2 1 -5.5 3.5t-4.5 3.5q-2 -2 -6.5 -8.5
t-6.5 -8.5q-5 -7 -13 -18.5l-8 -11.5l-2 -6h76l-81 -118zM271 365l50 142l117 57l-64 -194l-13 -3h-8h-2q5 18 11 35.5t11 34.5h-4l-7.5 -6l-17.5 -14t-21 -16t-18 -14q-6 -5 -8 -8.5t-4 -13.5h-22zM447 435l55 32l1 2q2 5 -0.5 7t-4.5 4l-17 12q-2 2 -6.5 6l-4.5 4l1 3
l116 62l-8 -25q-3 -2 -10.5 -6.5t-16.5 -9.5t-17 -9.5t-11 -6.5q-2 -1 -4 -3t-3 -2v-1l-1 -2l42 -29l-61 -38l-2 -5l14 -14q8 -4 16 -10.5t13 -8.5l-9 -30h-2l-8 6.5t-19.5 16t-23.5 19.5t-20 16q-2 1 -4 3.5t-4 3.5q0 1 -1 1.5t0 1.5zM635 560h2l86 -13l-1 -2q-1 -3 -4 -13
t-7 -10q-17 0 -32.5 3.5t-32.5 3.5l-9 -31l-2 -8q-2 -4 -4.5 -15t-5.5 -23q-4 -12 -6.5 -22.5t-3.5 -14.5q0 -3 3 -3h2q2 1 7 3t7 2q7 3 17.5 9l10.5 6l2 8q-1 3 -3 13.5t-3 13.5l-1 5l1 2q2 6 11.5 8.5t14.5 4.5q0 -3 1.5 -11t3.5 -17t3.5 -17.5t2.5 -11.5q2 -2 1.5 -3
t-0.5 -2q-6 -3 -20.5 -10.5t-31 -16t-31 -16t-20.5 -10.5q-2 0 -6 -2l-6 -3q13 49 26.5 97t27.5 96zM779 560h18l-42 -188h-20l-1 5l5 20t11.5 47t13.5 55.5t11 47.5l1 3l2 7zM403 522h-3q-1 0 -7.5 -3t-16 -7t-15.5 -7l-14 -8l-5 -2.5t-3 -2.5q-9 -14 -14 -34.5t-10 -35.5
h2l8 6t18.5 14.5t21 17.5l17.5 15l6 5q9 21 15 42zM329 570q2 0 2 -3q-2 -2 -3 -2l-0.5 0.5t0.5 1.5q0 2 0.5 2.5zM327 570q0 -1 -1 -1t-1 1t2 1t0 -1zM340 635q2 0 1 -3q0 -2 -2 -2l-0.5 0.5t-0.5 1.5q1 2 1.5 2.5zM453 652q3 0 1 -2q0 -3 -2 -3l-0.5 0.5t-0.5 2.5z
M883 652q3 0 1 -2q0 -3 -2 -3t-2 3q2 2 3 2zM452 657q2 0 2 -2q-2 -3 -3 -3q-3 0 -1 3q0 2 2 2zM886 657q2 0 2 -2q-2 -3 -3 -3l-0.5 0.5t0.5 2.5q0 1 0.5 1.5zM452 662q1 0 1 -1q-2 -2 -1 0v1zM890 662q2 0 2 -1q-1 -1 -2.5 -1.5t-0.5 1.5q0 1 0.5 1.5t0.5 -0.5zM451 667
q2 0 2 -1t-2 -1.5t-1 1.5q0 1 1 1.5t0 -0.5zM452 675v-3l-2 -2v0q0 1 1 2q0 2 0.5 2.5zM422 705q2 0 1 -3q0 -2 -2 -2t-2 2q1 3 3 3zM422 710q1 0 0 -1q0 -2 -1 -2v2z" />
    <glyph glyph-name="FL2021h" unicode="&#x2021;" horiz-adv-x="962" 
d="M396 198v-1q1 0 2 -2t1 -3q0 -2 2.5 -9t5 -14.5t5 -14.5t2.5 -9q2 -5 7 -17t10 -26t10 -26.5t7 -18.5q7 -14 15 -30.5t19 -26.5h1h1q51 43 97 89.5t91 100.5l6 5h1q8 0 15.5 -6.5t18.5 -6.5q5 19 4 28t-6 25l2 4q0 3 3 6q8 -9 19.5 -21t23.5 -12q3 12 5 24.5t5 23.5
q-2 4 -4.5 7.5t-5.5 7.5h3q11 0 20.5 -3t20.5 -3q4 12 2 20.5t-6.5 15t-11 11t-12.5 9.5v1t-1 1h2q5 -2 10 -5t9 -5q13 -3 20.5 -4t19.5 -1h10q10 0 20.5 1.5t11.5 4.5q2 8 -0.5 17.5t-4.5 14.5l1 2q3 9 12.5 13.5t21 7.5t23 5.5t17.5 8.5l1 1q5 16 -7 25t-23 7
q3 6 17.5 11.5t30.5 11t30 12t16 14.5l1 1q-5 5 -12.5 10t-15.5 5h-4q-2 -1 -10 -4t-10 -4h-1h-1q5 8 11 10.5t14 7.5q2 1 7 4t10 7t10 7t7 4q15 10 36 28.5t30 34.5l1 1v1q0 3 -1 3h-30q-4 -3 -14.5 -9.5t-21.5 -13t-21 -13t-14 -9.5q-2 0 -12.5 -6.5t-15.5 -8.5
q-2 -1 -4 -1.5t-3 -1.5l5 5q49 27 97.5 64.5t83.5 93.5l1 1v1q-7 0 -14.5 -1t-15.5 -6q-25 -23 -47.5 -43t-48.5 -40q-3 -2 -9.5 -7t-14.5 -10t-14.5 -9t-9.5 -4h-2q7 8 21.5 17t23.5 16q47 36 86.5 80.5t65.5 101.5l-1 0.5t-2 0.5q-20 0 -39 -21q-3 -5 -13.5 -17t-23 -25.5
t-23.5 -25.5t-16 -17l-40 -37q-1 -1 -4.5 -4t-6.5 -4l1 3q75 66 130 153t82 183l3 9l-7 -10q-57 -100 -119 -188.5t-130 -179.5q-1 -2 -2.5 -3.5t-1.5 -3.5h12q-1 -2 -3.5 -6t-4.5 -4h-1q-1 2 -1 5q-1 -1 -5 -2t-6 -1l-1 0.5t-2 0.5v2q22 25 40 52t36 53q10 14 18 29t13 30
l2 6q-21 -32 -46.5 -67t-52.5 -63q-6 -5 -14 -13t-15.5 -15t-13 -12t-6.5 -5h-4q13 12 30 28t26 34l80 168q5 9 7 15.5t4 14.5l1 2q1 2 0.5 4t0.5 4l1 2q-10 -7 -18 -25t-13 -27q-2 -3 -4.5 -8t-5.5 -10t-5 -9.5t-3 -5.5q-8 -15 -21.5 -35t-24.5 -35l1 3q35 57 59 109.5
t41 112.5l2 9l6 19l1 5q1 2 3 12.5t-2 12.5l-115 -243q0 -1 -4.5 -8t-10 -16.5t-11.5 -19.5t-9 -16q-2 -2 -5.5 -7.5t-5.5 -7.5l1 2v1q10 18 20.5 36t15.5 37q6 21 4 44l-4 -5l-21 -47l-4 -5l2 5q3 11 8 21t9 21h-5q-59 -30 -115.5 -51t-111.5 -21q-31 0 -57 5.5t-49.5 15
t-46 22.5t-46.5 29q-2 3 -5 3l-2 -5q-4 -13 -5 -25.5t-4 -25.5q-3 -3 -3 -7v8q0 3 1 12t2 19t2 19t1 12q-6 -4 -12 -19.5t-8 -22.5q-5 -17 -4 -32.5t-4 -32.5q0 -1 -1 -1.5t-1 -1.5q0 5 -0.5 11.5t-0.5 11.5v22q0 14 0.5 27t0.5 23v10l22 203l-1 2q-8 -13 -12.5 -27
t-9.5 -28q-9 -32 -14 -58.5t-7.5 -51.5t-3.5 -50.5t-2 -54.5v-2q0 -1 -1 -1.5t-1 -1.5q-5 32 -4.5 63.5t3.5 66.5q3 11 -4 18l-2 -5q-3 -10 -4.5 -21t-3.5 -22l-16 -167q-1 -9 2 -16t5 -14q3 -5 10 -20t9 -20h-4q-1 1 -5.5 10t-11.5 22t-10 20q-14 28 -18 63.5t-8 69.5
l-2 -8q-8 -26 -4.5 -54t6.5 -48q1 -3 2.5 -11.5t3 -18.5t3 -18.5t2.5 -11.5h-16l2 -15l-0.5 -0.5t-1.5 -0.5q-5 0 -5.5 10.5t-0.5 12.5h14q0 1 0.5 3t-0.5 2q-1 1 -2 6.5t-2 12t-2 12t-1 7.5q-1 1 -2 11t-2.5 22t-3 22t-1.5 12t-1.5 8.5t-3 14t-3 14t-1.5 8.5q0 7 -1.5 18.5
l-3 23t-3 20.5t-1.5 11l-5 150l-1 5l-1 -4l-3 -11l-1 -4q-27 -94 -19.5 -177t41.5 -149h-1h-1q-2 0 -3.5 3t-2.5 4l-16 33l-31 95q-2 8 -11 11t-17 4l-1 -3q-5 -22 -2 -42q3 -28 9 -50t15.5 -41.5t21 -37t25.5 -36.5q2 0 1 -3h-1h-1l-13 10q-2 2 -7.5 9t-7.5 9q-1 1 -4 5.5
t-6 9.5t-5.5 9t-3.5 6l-25 47q-5 8 -12 9.5t-17 1.5l-1 -3l3 -20q8 -51 36 -85.5t63 -57.5l1 -2h-2h-2l-2 1t-3 1q-2 1 -6 4t-8.5 6.5l-9 7t-6.5 5.5l-5 5t-6 5q-11 11 -18 22t-24 11h-11q-8 0 -11 -6q11 -38 33 -65.5t54 -41.5l-1 -5l-34 15h-6q-2 0 -8 -1.5t-12.5 -3.5
t-12 -5t-6.5 -6v-2q13 -14 29.5 -22.5t33.5 -14.5q2 0 1 -3v-1v-1q-10 -2 -24 -12t-18 -24l-1 -2l26 -12l-9 -30q0 -1 3.5 -7.5t6.5 -10.5q2 -2 2.5 -5t2.5 -5q5 -1 8.5 -1.5t8.5 -0.5h18q32 0 68 12h1h1l-1 -1t-2 -1q-17 -10 -33.5 -20t-23.5 -34q13 0 24 3t23 3
q-5 -5 -9 -7.5t-9 -7.5q-4 -12 -9 -24t-9 -24q7 0 15.5 4t17 9.5t16.5 11t15 8.5q1 0 1 -2t-1 -3q-2 -8 -11 -16t-14 -16q-3 -6 -4 -10t-3 -9l-3 -9q10 0 21.5 8t20.5 8zM757 277v-1q-2 0 -2 1q2 2 3 2v-1zM367 282q3 0 1 -2q0 -3 -3 -3v3zM329 570q2 0 2 -3q-2 -2 -3 -2
l-0.5 0.5t0.5 1.5q0 2 0.5 2.5zM327 570q0 -1 -1 -1t-1 1t2 1t0 -1zM340 635q2 0 1 -3q0 -2 -2 -2l-0.5 0.5t-0.5 1.5q1 2 1.5 2.5zM453 652q3 0 1 -2q0 -3 -2 -3l-0.5 0.5t-0.5 2.5zM883 652q3 0 1 -2q0 -3 -2 -3t-2 3q2 2 3 2zM452 657q2 0 2 -2q-2 -3 -3 -3q-3 0 -1 3
q0 2 2 2zM886 657q2 0 2 -2q-2 -3 -3 -3l-0.5 0.5t0.5 2.5q0 1 0.5 1.5zM452 662q1 0 1 -1q-2 -2 -1 0v1zM890 662q2 0 2 -1q-1 -1 -2.5 -1.5t-0.5 1.5q0 1 0.5 1.5t0.5 -0.5zM451 667q2 0 2 -1t-2 -1.5t-1 1.5q0 1 1 1.5t0 -0.5zM452 675v-3l-2 -2v0q0 1 1 2q0 2 0.5 2.5z
M422 705q2 0 1 -3q0 -2 -2 -2t-2 2q1 3 3 3zM422 710q1 0 0 -1q0 -2 -1 -2v2z" />
    <glyph glyph-name="FL2022h" unicode="&#x2022;" horiz-adv-x="429" 
d="M133 381q-15 -51 -12 -88t20 -61.5t46 -36t68 -11.5q90 0 162 55t105 169q13 46 9 80t-22 56t-47 32.5t-64 10.5q-42 0 -82.5 -11t-75.5 -35.5t-63 -63.5t-44 -96z" />
    <glyph glyph-name="FL2026h" unicode="&#x2026;" horiz-adv-x="593" 
d="M196 160l-120 -1q-2 0 -6 -4t-5 -6q-6 -8 -13 -22t-13 -29.5t-11 -31t-8 -26.5l-4 -16l-6 -21q24 0 41 -0.5t32 -0.5t30 0.5t34 2.5q15 20 25 48.5t18 54.5l9 32q2 5 3 12.5t-6 7.5zM588 161l-120 -1q-2 0 -6 -4t-5 -6q-6 -8 -12.5 -22t-12.5 -29.5t-11 -31t-8 -26.5
l-5 -16l-6 -21q24 0 41 -0.5t32 -0.5t30 0.5t35 2.5q14 20 24 48.5t18 54.5l9 32q2 5 3 12.5t-6 7.5zM390 161l-121 -1q-2 0 -5.5 -4t-5.5 -6q-6 -8 -12.5 -22t-12.5 -29.5t-11 -31t-8 -26.5l-5 -16l-6 -21q24 0 41.5 -0.5t32.5 -0.5t29.5 0.5t34.5 2.5q14 20 24.5 48.5
t18.5 54.5l9 32q2 5 3 12.5t-6 7.5z" />
    </font>
</defs>
</svg>
