<?xml version="1.0" standalone="no"?>
<!DOCTYPE svg PUBLIC "-//W3C//DTD SVG 1.1//EN" "http://www.w3.org/Graphics/SVG/1.1/DTD/svg11.dtd" >
<svg xmlns="http://www.w3.org/2000/svg" xmlns:xlink="http://www.w3.org/1999/xlink" version="1.1">
<metadata>
Created by FontForge 20170731 at Fri Dec 13 16:39:06 2013
 By Aleksey,,,
2013 Iconian Font - www.iconian.com
</metadata>
<defs>
<font id="FederalEscort3D" horiz-adv-x="826" >
  <font-face 
    font-family="Federal Escort 3D"
    font-weight="400"
    font-stretch="normal"
    units-per-em="1000"
    panose-1="0 0 0 0 0 0 0 0 0 0"
    ascent="800"
    descent="-200"
    x-height="573"
    cap-height="573"
    bbox="-51 -228 1612 806"
    underline-thickness="50"
    underline-position="-175"
    unicode-range="U+0020-2122"
  />
<missing-glyph horiz-adv-x="500" 
 />
    <glyph glyph-name=".notdef" horiz-adv-x="500" 
 />
    <glyph glyph-name=".null" horiz-adv-x="0" 
 />
    <glyph glyph-name="nonmarkingreturn" horiz-adv-x="500" 
 />
    <glyph glyph-name="space" unicode=" " horiz-adv-x="384" 
 />
    <glyph glyph-name="space" unicode="&#xa0;" horiz-adv-x="384" 
 />
    <glyph glyph-name="FL0021h" unicode="!" horiz-adv-x="380" 
d="M330 315l-23 -88h-235l-22 88v246h280v-246zM72 92q0 19 9.5 36t25.5 29.5t37.5 19.5t45.5 7t45.5 -7t37 -19.5t25 -29.5t9.5 -36q0 -20 -9.5 -36.5t-25 -29t-37 -19.5t-45.5 -7t-45.5 7t-37.5 19.5t-25.5 29t-9.5 36.5zM342 573h-304v-261l25 -97h5l40 -42
q-22 -14 -35 -35t-13 -46q0 -26 13 -46.5t35 -34.5l32 -32q17 -17 43.5 -27.5t56.5 -10.5q26 0 49 8t40 21.5t27 32t10 39.5q0 36 -27 63l-32 32q-11 17 -28 31h85l25 95v257l-47 47v6z" />
    <glyph glyph-name="FL0022h" unicode="&#x22;" horiz-adv-x="544" 
d="M38 469q0 44 33.5 73.5t83.5 29.5q34 0 61.5 -15.5t41.5 -40.5l19 -19q10 33 40.5 54.5t72.5 21.5q34 0 61 -15t42 -40l32 -32q28 -28 28 -66v-101q0 -21 -9 -39.5t-24.5 -32t-36 -21t-43.5 -7.5q-26 0 -48 9t-38 25l-33 32h-1q-3 3 -7 5q-9 -32 -39.5 -52t-68.5 -20
q-26 0 -48 9t-38 25l-31 31q-23 14 -36.5 36t-13.5 49v101zM50 368q0 -19 8 -35.5t22.5 -29t33.5 -19.5t41 -7q21 0 40 7t33.5 19.5t22.5 29t8 35.5v101q0 19 -8 35.5t-22.5 29t-33.5 19.5t-40 7q-22 0 -41 -7t-33.5 -19.5t-22.5 -29t-8 -35.5v-101zM285 369q0 -19 8 -35.5
t22.5 -29t33.5 -19.5t41 -7q21 0 40 7t33.5 19.5t22.5 29t8 35.5v101q0 19 -8 35.5t-22.5 29t-33.5 19.5t-40 7q-22 0 -41 -7t-33.5 -19.5t-22.5 -29t-8 -35.5v-101z" />
    <glyph glyph-name="FL0023h" unicode="#" horiz-adv-x="879" 
d="M829 453v-143h-67v-59h67v-143h-67v-108h-280v108h-85v-108h-280v108h-67v143h67v59h-67v143h67v108h280v-108h85v108h280v-108h67zM482 251v59h-85v-59h85zM774 573h-304v-108h-14v55l-47 47v6h-304v-108h-67v-167h6l35 -35h-41v-167h6l47 -47h14v-61h6l47 -47h298v108
h14v-61h6l47 -47h298v108h67v161l-41 41h41v161l-47 47v6h-20v55l-47 47v6z" />
    <glyph glyph-name="FL0024h" unicode="$" horiz-adv-x="808" 
d="M528 643v-6l47 -47v-43h194v-6l47 -47v-165h-88q16 -13 29 -31l32 -32q13 -13 20.5 -28.5t7.5 -32.5v-85q0 -26 -11.5 -52.5t-32 -48t-47 -35.5t-56.5 -14h-96v-89h-242l-47 47h-6v42h-188l-47 47h-6v171h109q-3 2 -6 5.5t-6 6.5l-24 24q-30 20 -51.5 51t-21.5 62v61
q0 28 11.5 55t32 48t47.5 33.5t58 12.5h93v96h248zM292 631v-96h-105q-28 0 -53 -11.5t-43.5 -31t-29.5 -44t-11 -50.5v-61q0 -23 13 -45.5t32.5 -40.5t42 -29.5t42.5 -11.5h297v-12q0 -8 -5.5 -15t-15.5 -7h-406v-147h241v-89h224v89h105q28 0 53 13t44 33.5t30 45.5t11 49
v85q0 21 -12.5 39t-31.5 31t-41.5 20.5t-42.5 7.5h-300v13q0 8 5.5 15t15.5 7h406v147h-241v96h-224z" />
    <glyph glyph-name="FL0025h" unicode="%" horiz-adv-x="977" 
d="M859 280q14 0 26.5 -6.5t21.5 -16.5t14.5 -22.5t5.5 -25.5v-148q0 -12 -6 -23t-15 -19.5t-20.5 -13.5t-23.5 -5h-233q-11 0 -22.5 5t-21 13.5t-15.5 19.5t-6 23v146l-188 -207h-284l254 280h-231q-11 0 -22.5 5t-21 13.5t-15.5 19.5t-6 23v148q0 13 5.5 25.5t15 22.5
t22 16.5t26.5 6.5h226q14 0 26.5 -6.5t21.5 -16.5t14.5 -22.5t5.5 -25.5v-136l189 208h283l-255 -281h229zM725 111q0 -6 5 -6h31q4 0 6 6v53q0 2 -1.5 5t-4.5 3h-31q-5 -2 -5 -8v-53zM211 391q0 -6 5 -6h31q4 0 6 6v53q0 2 -1.5 5t-4.5 3h-31q-5 -2 -5 -8v-53zM859 292
h-111l208 228l-48 48l5 5h-316l-125 -138v4q0 32 -25 57l-35 34q-11 18 -28.5 30t-38.5 12h-226q-17 0 -31.5 -7.5t-25.5 -19.5t-17.5 -26.5t-6.5 -29.5v-148q0 -19 11 -35t27 -26l36 -35q24 -24 53 -24h111l-212 -233h10l47 -47h309l122 133v-13q0 -19 11 -34.5t27 -26.5
l36 -35q24 -24 53 -24h233q13 0 26.5 5.5t24 15.5t17 22.5t6.5 26.5v148q0 32 -25 57l-35 34q-11 18 -28.5 30t-38.5 12z" />
    <glyph glyph-name="FL0026h" unicode="&#x26;" horiz-adv-x="886" 
d="M772 144q0 -30 -7.5 -56.5t-22.5 -46t-36 -30.5t-48 -11h-457q-42 0 -71 16t-47 41t-25.5 55t-7.5 58q0 32 8.5 63t32.5 52q-22 17 -31 47.5t-9 58.5q0 27 10 57t29 55t47 41.5t65 16.5h481v-147h-323q-19 0 -27 -10t-8 -24q0 -17 7.5 -23.5t28.5 -6.5h475v-142h-64v-64z
M324 181q0 -14 8 -24t27 -10h111q9 0 15.5 11t6.5 26v27h-132q-21 0 -28.5 -7t-7.5 -23zM742 520l-47 47v6h-493q-40 0 -70.5 -17.5t-51 -44.5t-31 -59t-10.5 -61q0 -27 8 -55.5t28 -50.5q-22 -25 -29.5 -54.5t-7.5 -60.5q0 -21 4 -43.5t13 -43.5t23 -39.5t34 -31.5l29 -29
q19 -19 46 -30.5t64 -11.5h457q29 0 52 12t38.5 32.5t24 48.5t8.5 60v55h64v160l-47 47v6h-106v158zM128 235l7 -7l-3.5 3.5z" />
    <glyph glyph-name="FL0027h" unicode="'" horiz-adv-x="319" 
d="M50 470q0 19 8.5 35.5t23.5 29t35 19.5t43 7q22 0 42 -7t35 -19.5t23.5 -29t8.5 -35.5v-101q0 -19 -8.5 -35.5t-23.5 -29t-35 -19.5t-42 -7q-23 0 -43 7t-35 19.5t-23.5 29t-8.5 35.5v101zM38 470v-101q0 -27 14 -49t38 -36l29 -29q17 -17 40 -26.5t51 -9.5
q24 0 45.5 7.5t37.5 21t25.5 32t9.5 39.5v101q0 19 -7.5 35t-20.5 29l-31 30q-14 26 -43.5 42.5t-65.5 16.5q-26 0 -48 -8t-38.5 -22t-26 -32.5t-9.5 -40.5z" />
    <glyph glyph-name="FL0028h" unicode="(" horiz-adv-x="470" 
d="M432 627v-6l47 -47v-165h-77q-5 0 -8.5 -7.5t-3.5 -13.5v-283h35v-6l47 -47v-165h-242q-26 0 -52.5 13t-46.5 33l-28 28q-28 19 -46.5 47.5t-18.5 60.5v403q0 28 12 55.5t32.5 49.5t47.5 36t58 14h244zM188 615q-28 0 -53 -12.5t-44 -33t-30 -46t-11 -51.5v-403
q0 -24 12 -46t30.5 -39t41.5 -27.5t46 -10.5h233v147h-62q-8 0 -14 6.5t-6 16.5v322q0 8 5.5 19t15.5 11h68v147h-232z" />
    <glyph glyph-name="FL0029h" unicode=")" horiz-adv-x="470" 
d="M38 627h244q38 0 69.5 -20t52.5 -50l27 -27q22 -22 35 -50.5t13 -57.5v-403q0 -26 -12.5 -49.5t-33 -42t-45 -29.5t-48.5 -11h-242l-47 47h-6v171h74q8 0 8 11v293h-36l-47 47h-6v171zM50 468h68q10 0 15.5 -11t5.5 -19v-322q0 -10 -6 -16.5t-14 -6.5h-62v-147h233
q22 0 45.5 10.5t42 27.5t30.5 39t12 46v403q0 26 -11 51.5t-30 46t-44 33t-53 12.5h-232v-147z" />
    <glyph glyph-name="asterisk" unicode="*" horiz-adv-x="328" 
d="M50 441l-19 16l20 19l-22 22l-8 2l41 123l35 -21l-4 38h133l-1 -6l24 -23l15 7l3 -10l45 -44l41 -114l-49 -10l33 -33l-103 -79l-31 31l-16 -32l-102 80zM187 391l86 66l-42 38l60 12l-34 95l-49 -24l5 50h-107l5 -50l-42 26l-32 -96l51 -13l-39 -37l85 -67l26 53z" />
    <glyph glyph-name="FL002Bh" unicode="+" horiz-adv-x="435" 
d="M385 351v-143h-96v-97h-143v97h-96v143h96v95h143v-95h96zM301 458h-167v-95h-96v-167h6l47 -47h43v-50h6l47 -47h161v97h96v161l-47 47v6h-49v42l-47 47v6z" />
    <glyph glyph-name="FL002Ch" unicode="," horiz-adv-x="335" 
d="M50 92q0 19 9.5 36t25.5 29.5t37.5 19.5t45.5 7t45.5 -7t37 -19.5t25 -29.5t9.5 -36v-103q0 -20 -9.5 -36.5t-25 -29t-37 -19.5t-45.5 -7t-45.5 7t-37.5 19.5t-25.5 29t-9.5 36.5v103zM38 92v-103q0 -25 13 -46t35 -35l32 -32q17 -17 43.5 -27.5t56.5 -10.5q26 0 49 8
t40 21.5t27 32t10 39.5v103q0 36 -27 63l-32 32q-16 26 -47.5 42.5t-69.5 16.5q-27 0 -50.5 -8t-41 -22t-28 -33t-10.5 -41z" />
    <glyph glyph-name="FL002Dh" unicode="-" horiz-adv-x="435" 
d="M385 351v-143h-335v143h335zM38 363v-167h6l47 -47h353v161l-47 47v6h-359z" />
    <glyph glyph-name="FL002Eh" unicode="." horiz-adv-x="335" 
d="M38 92q0 22 10.5 41t28 33t41 22t50.5 8q38 0 69.5 -16.5t47.5 -42.5l32 -32q27 -27 27 -63q0 -21 -10 -39.5t-27 -32t-40 -21.5t-49 -8q-30 0 -56.5 10.5t-43.5 27.5l-32 32q-22 14 -35 34.5t-13 46.5zM50 92q0 -20 9.5 -36.5t25.5 -29t37.5 -19.5t45.5 -7t45.5 7
t37 19.5t25 29t9.5 36.5q0 19 -9.5 36t-25 29.5t-37 19.5t-45.5 7t-45.5 -7t-37.5 -19.5t-25.5 -29.5t-9.5 -36z" />
    <glyph glyph-name="FL002Fh" unicode="/" horiz-adv-x="867" 
d="M37 0l465 561h328l-465 -561h-328zM68 -59h352l479 579l-48 48l4 5h-359l-484 -585h9z" />
    <glyph glyph-name="FL0030h" unicode="0" horiz-adv-x="807" 
d="M620 561q28 0 53 -12.5t43.5 -33t29.5 -46t11 -51.5v-295q0 -24 -11.5 -46t-30.5 -39t-42 -27.5t-46 -10.5h-447q-23 0 -46 10.5t-41.5 27.5t-30.5 39t-12 46v295q0 26 11 51.5t29.5 46t43.5 33t53 12.5h433zM329 170q1 -5 5 -14t17 -9h105q6 0 12.5 8.5t9.5 14.5v212
q0 8 -5.5 20t-16.5 12h-107q-10 -2 -15 -13t-5 -19v-212zM620 573h-433q-31 0 -58 -14t-47.5 -36t-32 -49.5t-11.5 -55.5v-295q0 -32 18.5 -60.5t46.5 -48.5l28 -27q20 -20 46.5 -33t52.5 -13h447q24 0 49 11t45 29.5t32.5 42t12.5 49.5v295q0 29 -13 57.5t-35 50.5l-27 27
q-20 30 -51.5 50t-69.5 20zM388 332q0 6 3.5 13.5t9.5 9.5h65v-181q-2 -5 -5 -10t-5 -5h-68v173z" />
    <glyph glyph-name="FL0031h" unicode="1" horiz-adv-x="492" 
d="M454 567l47 -47v-579h-298l-47 47h-6v367h-59l-47 47h-6v171h416v-6zM442 561h-392v-147h112v-414h280v561z" />
    <glyph glyph-name="FL0032h" unicode="2" horiz-adv-x="808" 
d="M817 287q0 -20 -9 -39.5t-23.5 -36.5t-33 -31t-37.5 -21h56v-6l47 -47v-165h-726l-47 47h-6v267q0 34 27 60.5t62 39.5h-35l-47 47h-6v171h582q38 0 71 -20t53 -51l27 -26q20 -20 32.5 -46.5t12.5 -55.5v-87zM758 0v147h-427v63h297q19 0 42 11.5t42.5 29.5t32.5 40.5
t13 45.5v87q0 26 -11 50.5t-30 44t-43.5 31t-52.5 11.5h-570v-147h406q10 0 15.5 -11t5.5 -19v-31h-300q-20 0 -42.5 -7.5t-41.5 -20.5t-31.5 -31t-12.5 -39v-255h708z" />
    <glyph glyph-name="FL0033h" unicode="3" horiz-adv-x="765" 
d="M404 350q21 0 28.5 6.5t7.5 23.5q0 14 -8 24t-27 10h-355v147h513q37 0 65 -16.5t47 -41.5t29 -55t10 -57q0 -28 -9 -58.5t-31 -47.5q24 -21 32.5 -52t8.5 -63q0 -28 -7.5 -58t-25.5 -55t-47 -41t-71 -16h-514v147h356q19 0 27 10t8 24q0 16 -7.5 23t-28.5 7h-355v139
h354zM91 -59h523q45 0 75.5 17t49.5 43t27 57.5t8 61.5q0 32 -8 61.5t-29 52.5q19 20 27.5 49.5t8.5 57.5q0 33 -14 70t-42 65l-27 26q-21 30 -52.5 50.5t-74.5 20.5h-525v-171h6l40 -40h-46v-163h6l40 -40h-46v-171h6z" />
    <glyph glyph-name="FL0034h" unicode="4" horiz-adv-x="966" 
d="M38 184l263 336v-1q6 7 15 16.5t20 17.5t22.5 14t22.5 6h424v-6l47 -47v-284h76v-6l47 -47v-161h-123v-81h-297l-47 47h-6v34h-411l-47 47h-6v115zM490 333q3 5 5 7t7 2q3 -2 7.5 -4t4.5 -3v-111h-104zM50 81h464v-81h279v81h123v143h-123v337h-412q-10 0 -22 -6.5
t-22.5 -15.5t-19 -18t-12.5 -15l-255 -326v-99z" />
    <glyph glyph-name="FL0035h" unicode="5" horiz-adv-x="808" 
d="M758 141q0 -24 -11 -49t-30 -45.5t-44 -33.5t-53 -13h-570v147h406q10 0 15.5 11t5.5 19v33h-297q-20 0 -42.5 11.5t-42 29.5t-32.5 40.5t-13 45.5v224h707v-147h-427v-61h300q20 0 42.5 -7.5t41.5 -20.5t31.5 -31t12.5 -39v-114zM816 355v165l-47 47v6h-731v-236
q0 -31 21.5 -62t51.5 -51l24 -24q27 -29 59 -41h-156v-171h6l47 -47h579q30 0 56.5 14t47 35.5t32 48t11.5 52.5v114q0 17 -7.5 32.5t-20.5 28.5l-32 32q-12 19 -32.5 33.5t-43.5 23.5h135z" />
    <glyph glyph-name="FL0036h" unicode="6" 
d="M800 272l-2 2zM342 170q2 0 0 2v-2zM708 355q20 -10 37 -24t28 -31l30 -30q14 -14 23 -31t9 -36v-130q0 -26 -12.5 -49.5t-32.5 -42t-45 -29.5t-49 -11h-466q-26 0 -52 13t-46 33l-29 29q-28 20 -46.5 48.5t-18.5 58.5v295q0 28 11.5 55.5t32 49.5t47.5 36t58 14h598v-6
l47 -47v-165h-124zM776 253q0 21 -12.5 40.5t-32 34t-42.5 23t-43 8.5h-316v23h-2l2 2q0 8 5.5 19t15.5 11h422v147h-586q-28 0 -53 -12.5t-43.5 -33t-29.5 -46t-11 -51.5v-295q0 -23 12 -45t30.5 -39t41.5 -28t46 -11h466q23 0 46 10.5t42 27.5t30.5 39t11.5 46v130z
M351 147q-11 0 -14.5 8.5t-6.5 14.5v41h167v-41q-3 -6 -8.5 -14.5t-13.5 -8.5h-124z" />
    <glyph glyph-name="FL0037h" unicode="7" horiz-adv-x="855" 
d="M477 414h-427v147h755v-147l-343 -414h-328zM109 -12h9l47 -47h352l347 419v160l-47 47v6h-779v-171h6l47 -47h321z" />
    <glyph glyph-name="FL0038h" unicode="8" horiz-adv-x="809" 
d="M608 561q37 0 65 -16.5t47 -41.5t29 -55t10 -57q0 -28 -9 -58.5t-31 -47.5q24 -21 32.5 -52t8.5 -63q0 -28 -7.5 -58t-25.5 -55t-47 -41t-71 -16h-409q-42 0 -71 16t-47 41t-25.5 55t-7.5 58q0 32 8.5 63t32.5 52q-22 17 -31 47.5t-9 58.5q0 27 10 57t29 55t47 41.5
t65 16.5h407zM323 181q0 -14 8 -24t27 -10h98q30 4 30 34q0 14 -6.5 21t-23.5 9h-103q-17 -2 -23.5 -9t-6.5 -21zM449 350q21 0 28.5 6.5t7.5 23.5q0 14 -8 24t-27 10h-97q-16 -2 -22.5 -11.5t-6.5 -22.5q0 -17 7.5 -23.5t28.5 -6.5h89zM608 573h-407q-40 0 -70.5 -17.5
t-51 -44.5t-31 -59t-10.5 -61q0 -27 8 -55.5t28 -50.5q-22 -25 -29.5 -54.5t-7.5 -60.5q0 -21 4 -43.5t13 -43.5t23 -39.5t34 -31.5l29 -29q19 -19 46 -30.5t64 -11.5h409q45 0 75.5 17t49.5 43t27 57.5t8 61.5q0 32 -8 61.5t-29 52.5q19 20 27.5 49.5t8.5 57.5q0 33 -14 70
t-42 65l-27 26q-21 30 -52.5 50.5t-74.5 20.5zM134 228l-3.5 3.5l-3.5 3.5z" />
    <glyph glyph-name="FL0039h" unicode="9" 
d="M38 438q0 26 13 50.5t33.5 43t45.5 30t50 11.5h466q32 0 64.5 -20t53.5 -50l30 -29q18 -18 29.5 -40.5t11.5 -45.5v-295q0 -27 -11.5 -54.5t-31.5 -49t-46.5 -35t-56.5 -13.5h-595l-47 47h-6v171h126q-26 12 -44 32l-29 29q-24 17 -40 39.5t-16 48.5v130zM50 308
q0 -21 12.5 -40.5t32 -34t42.5 -23t43 -8.5h316v-23h2l-2 -2q0 -8 -5.5 -19t-15.5 -11h-422v-147h586q28 0 52.5 12.5t43.5 33t30 46t11 51.5v295q0 22 -12 44.5t-30.5 39.5t-42 28t-45.5 11h-466q-23 0 -46 -10.5t-42 -27.5t-30.5 -39t-11.5 -46v-130zM475 414
q11 0 14.5 -8.5t6.5 -14.5v-41h-167v41q3 6 8.5 14.5t13.5 8.5h124z" />
    <glyph glyph-name="FL003Ah" unicode=":" horiz-adv-x="335" 
d="M37 323q0 22 10.5 41t28 33t41 22t50.5 8q38 0 69.5 -16.5t47.5 -42.5l32 -32q27 -27 27 -63q0 -37 -27.5 -64t-68.5 -35q25 -16 38 -37l31 -31h-1l2 -1q27 -27 27 -63q0 -21 -10 -39.5t-27 -32t-40 -21.5t-49 -8q-30 0 -56.5 10.5t-43.5 27.5l-32 32q-22 14 -35 34.5
t-13 46.5q0 38 28.5 65.5t70.5 35.5q-6 3 -10.5 7.5l-9.5 9.5l-32 32q-22 14 -35 34.5t-13 46.5zM49 323q0 -20 9.5 -36.5t25.5 -29t37.5 -19.5t45.5 -7t45.5 7t37 19.5t25 29t9.5 36.5q0 19 -9.5 36t-25 29.5t-37 19.5t-45.5 7t-45.5 -7t-37.5 -19.5t-25.5 -29.5t-9.5 -36z
M50 92q0 -20 9.5 -36.5t25.5 -29t37.5 -19.5t45.5 -7t45.5 7t37 19.5t25 29t9.5 36.5q0 19 -9.5 36t-25 29.5t-37 19.5t-45.5 7t-45.5 -7t-37.5 -19.5t-25.5 -29.5t-9.5 -36z" />
    <glyph glyph-name="FL003Bh" unicode=";" horiz-adv-x="335" 
d="M37 323q0 22 10.5 41t28 33t41 22t50.5 8q38 0 69.5 -16.5t47.5 -42.5l31 -31h-1l2 -1q27 -27 27 -63q0 -37 -27.5 -64t-68.5 -35q25 -16 38 -37l31 -31h-1l2 -1q27 -27 27 -63v-103q0 -21 -10 -39.5t-27 -32t-40 -21.5t-49 -8q-30 0 -56.5 10.5t-43.5 27.5l-32 32
q-22 14 -35 35t-13 46v103q0 38 28.5 65.5t70.5 35.5q-6 3 -10.5 7.5l-9.5 9.5l-32 32q-22 14 -35 34.5t-13 46.5zM50 -11q0 -20 9.5 -36.5t25.5 -29t37.5 -19.5t45.5 -7t45.5 7t37 19.5t25 29t9.5 36.5v103q0 19 -9.5 36t-25 29.5t-37 19.5t-45.5 7t-45.5 -7t-37.5 -19.5
t-25.5 -29.5t-9.5 -36v-103zM49 323q0 -20 9.5 -36.5t25.5 -29t37.5 -19.5t45.5 -7t45.5 7t37 19.5t25 29t9.5 36.5q0 19 -9.5 36t-25 29.5t-37 19.5t-45.5 7t-45.5 -7t-37.5 -19.5t-25.5 -29.5t-9.5 -36z" />
    <glyph glyph-name="FL003Ch" unicode="&#x3c;" horiz-adv-x="635" 
d="M268 -12h-4l-243 293l242 292h359l-4 -5l48 -48l-239 -289l240 -290h-352zM598 0l-233 281l232 280h-328l-232 -280l233 -281h328z" />
    <glyph glyph-name="FL003Dh" unicode="=" horiz-adv-x="476" 
d="M426 251v-143h-376v143h376zM426 453v-143h-376v143h376zM38 465v-167h6l35 -35h-41v-167h6l47 -47h394v161l-41 41h41v161l-47 47v6h-400z" />
    <glyph glyph-name="FL003Eh" unicode="&#x3e;" horiz-adv-x="635" 
d="M36 0l233 281l-232 280h328l232 -280l-233 -281h-328zM67 -59h352l240 290l-239 289l-30 29l-19 24h-359l241 -292l-242 -293h9z" />
    <glyph glyph-name="FL003Fh" unicode="?" horiz-adv-x="808" 
d="M158 255q0 21 12.5 39t31.5 31t41.5 20.5t42.5 7.5h192v31q0 8 -5.5 19t-15.5 11h-406v147h570q28 0 52.5 -11.5t43.5 -31t30 -44t11 -50.5v-87q0 -23 -13 -45t-32.5 -39t-42.5 -28t-42 -11h-470v41zM158 92q0 19 9.5 36t25.5 29.5t37.5 19.5t45.5 7t45.5 -7t37 -19.5
t25 -29.5t9.5 -36q0 -20 -9.5 -36.5t-25 -29t-37 -19.5t-45.5 -7t-45.5 7t-37.5 19.5t-25.5 29t-9.5 36.5zM146 255v-53h6l34 -35q-19 -14 -29.5 -33t-10.5 -42q0 -26 13 -46.5t35 -34.5l32 -32q17 -17 43.5 -27.5t56.5 -10.5q26 0 49 8t40 21.5t27 32t10 39.5q0 36 -27 63
l-2 1h1l-31 31q-3 5 -6.5 9t-7.5 9h299q21 0 45.5 11.5t45 30.5t34.5 42.5t14 47.5v87q0 29 -12.5 55.5t-32.5 46.5l-27 26q-20 31 -53 51t-71 20h-582v-171h6l47 -47h143q-35 -13 -62 -39.5t-27 -60.5z" />
    <glyph glyph-name="FL0040h" unicode="@" horiz-adv-x="1077" 
d="M382 141q-2 1 -5 4v-40h41v1zM705 409q4 -5 7 -9t6 -9l29 -28v46h-42zM90 -39q-28 19 -46.5 47.5t-18.5 60.5v403q0 28 12 55.5t32.5 49.5t47.5 36t58 14h727q38 0 69.5 -20t52.5 -50l27 -27q22 -22 35 -50.5t13 -57.5v-208q0 -26 -12.5 -49.5t-33 -42t-45 -29.5
t-48.5 -11h-212l30 -30v-165h-561q-26 0 -52.5 13t-46.5 33zM517 305q0 6 5 8h31q3 0 4.5 -3t1.5 -5v-53q-2 -6 -6 -6h-31q-5 0 -5 6v53zM425 421q-14 0 -26.5 -6.5t-22 -16.5t-15 -22.5t-5.5 -25.5v-148q0 -12 6 -23t15.5 -19.5t21 -13.5t22.5 -5h489q22 0 45.5 10.5
t42 27.5t30.5 39t12 46v208q0 26 -11 51.5t-30 46t-44 33t-53 12.5h-727q-28 0 -53 -12.5t-44 -33t-30 -46t-11 -51.5v-403q0 -24 12 -46t30.5 -39t41.5 -27.5t46 -10.5h552v147h-381q-8 0 -14 6.5t-6 16.5v322q0 8 5.5 19t15.5 11h399q10 0 15.5 -11t5.5 -19v-128
q0 -10 -6 -16.5t-14 -6.5h-20v63q0 13 -5.5 25.5t-14.5 22.5t-21.5 16.5t-26.5 6.5h-226z" />
    <glyph glyph-name="FL0041h" unicode="A" 
d="M401 355q-5 0 -8 -5t-5 -10v-27h96v42h-83zM44 -12h-6v449q0 26 13 50.5t33.5 43.5t46 30.5t49.5 11.5h466q32 0 64.5 -20t53.5 -49l29 -29q19 -19 30.5 -42t11.5 -46v-446h-298l-47 47h-6v111h-96v-158h-297zM776 437q0 22 -11.5 44.5t-30.5 40t-42 28.5t-46 11h-466
q-23 0 -46 -10.5t-41.5 -28t-30.5 -39.5t-12 -46v-437h279v158h167v-158h280v437zM329 392q3 6 8.5 14t13.5 8h124q12 0 15 -8.5t6 -14.5v-90h-167v90v1z" />
    <glyph glyph-name="FL0042h" unicode="B" 
d="M44 -12h-6v585h586q43 0 74.5 -20.5t52.5 -50.5l23 -22l4 -4q28 -28 42 -65t14 -70q0 -28 -8.5 -57.5t-27.5 -49.5q21 -23 29 -52.5t8 -61.5q0 -30 -8 -61.5t-27 -57.5t-49.5 -43t-75.5 -17h-584zM625 0q42 0 71 16t47 41t25.5 55t7.5 58q0 32 -8.5 63t-32.5 52
q22 17 31 47.5t9 58.5q0 27 -10 57t-29 55t-47 41.5t-65 16.5h-574v-561h575zM466 211q21 0 28.5 -7t7.5 -23q0 -14 -8 -24t-27 -10h-138v64h137zM329 414h137q19 0 27 -10t8 -24q0 -17 -7.5 -23.5t-28.5 -6.5h-136v64z" />
    <glyph glyph-name="FL0043h" unicode="C" horiz-adv-x="743" 
d="M705 573v-6l47 -47v-165h-351q-5 0 -8.5 -7.5t-3.5 -13.5v-175h310v-6l47 -47v-165h-516q-26 0 -52.5 13t-46.5 33l-28 27q-28 20 -46.5 48.5t-18.5 60.5v295q0 28 11.5 55.5t32 49.5t47.5 36t58 14h518zM187 561q-28 0 -53 -12.5t-43.5 -33t-29.5 -46t-11 -51.5v-295
q0 -24 12 -46t30.5 -39t41.5 -27.5t46 -10.5h507v147h-336q-8 0 -14 6.5t-7 16.5v214q0 8 5.5 19t15.5 11h342v147h-506z" />
    <glyph glyph-name="FL0044h" unicode="D" horiz-adv-x="819" 
d="M389 162h44q16 0 25 8t13 20t5 26.5t1 28.5v68q0 7 -0.5 15t-1.5 16h-86v-182zM44 -12h-6v585h621q26 0 50.5 -18t42.5 -44l26 -26q22 -22 36 -50t14 -54v-321q0 -20 -9.5 -41t-24.5 -38t-34 -28.5t-38 -11.5h-631zM672 0q18 0 35 10.5t31 26.5t22.5 35.5t8.5 37.5v321
q0 20 -9.5 43t-25 42.5t-35.5 32t-40 12.5h-609v-561h622zM447 403q14 0 22.5 -9t13 -22.5t5.5 -29.5t1 -29v-68q0 -15 -1 -32t-6.5 -31t-16.5 -23t-32 -9h-103v253h117z" />
    <glyph glyph-name="FL0045h" unicode="E" horiz-adv-x="743" 
d="M705 573v-6l47 -47v-165h-45l45 -45v-161h-43l43 -43v-165h-522q-26 0 -52.5 13t-46.5 33l-28 27q-28 20 -46.5 48.5t-18.5 60.5v295q0 28 11.5 55.5t32 49.5t47.5 36t58 14h518zM187 561q-28 0 -53 -12.5t-43.5 -33t-29.5 -46t-11 -51.5v-295q0 -24 12 -46t30.5 -39
t41.5 -27.5t46 -10.5h513v147h-342q-2 0 -10 8.5t-11 14.5q0 1 -0.5 3t-0.5 4t0.5 4t0.5 3q3 6 11 15t10 9h342v143h-335q-13 0 -21 10t-8 21q0 8 6 20t16 12h342v147h-506z" />
    <glyph glyph-name="FL0046h" unicode="F" horiz-adv-x="743" 
d="M705 573v-6l47 -47v-165h-45l45 -45v-161h-351q-1 0 -5.5 -6.5t-6.5 -11.5v-190h-298l-47 47h-6v430q0 28 11.5 55.5t32 49.5t47.5 36t58 14h518zM187 561q-28 0 -53 -12.5t-43.5 -33t-29.5 -46t-11 -51.5v-418h280v184q3 6 11 15t10 9h342v143h-335q-13 0 -21 10t-8 21
q0 8 6 20t16 12h342v147h-506z" />
    <glyph glyph-name="FL00B9h" unicode="G" 
d="M389 159h86q2 0 5 4.5t5 9.5v182h-84q-5 0 -8 -7t-4 -14v-175zM705 573v-6l47 -47v-126h36v-6l47 -47v-268q0 -26 -12.5 -49.5t-32.5 -42t-45 -29.5t-49 -11h-466q-26 0 -52 13t-46 33l-29 29q-28 20 -46.5 48.5t-18.5 58.5v295q0 28 11.5 55.5t32 49.5t47.5 36t58 14
h518zM187 561q-28 0 -53 -12.5t-43.5 -33t-29.5 -46t-11 -51.5v-295q0 -23 12 -45t30.5 -39t41.5 -28t46 -11h466q23 0 46 10.5t42 27.5t30.5 39t11.5 46v259h-279v-213q-3 -6 -8.5 -14t-13.5 -8h-124q-11 0 -14.5 8.5t-6.5 14.5v212h-2l2 2q0 8 5.5 19t15.5 11h342v147
h-506z" />
    <glyph glyph-name="FL0048h" unicode="H" horiz-adv-x="796" 
d="M342 567l47 -47v-157h64v210h305v-6l47 -47v-579h-299l-47 47h-6v161h-64v-208h-298l-47 47h-6v585h304v-6zM465 351h-135v210h-280v-561h280v208h135v-208h281v561h-281v-210z" />
    <glyph glyph-name="FL0049h" unicode="I" horiz-adv-x="764" 
d="M241 147v267h-190v147h663v-147h-193v-267h192v-147h-663v147h191zM38 159v-171h6l47 -47h681v165l-47 47v6h-145v196h193v165l-47 47v6h-687v-171h6l47 -47h137v-196h-191z" />
    <glyph glyph-name="FL004Ah" unicode="J" 
d="M330 170q3 -6 6.5 -14.5t14.5 -8.5h124q8 0 13.5 8.5t8.5 14.5v391h279v-438q0 -24 -11.5 -46t-30.5 -39t-42 -27.5t-46 -10.5h-466q-23 0 -46 11t-41.5 28t-30.5 39t-12 45v150h280v-103zM342 285h-304v-162q0 -30 18.5 -58.5t46.5 -48.5l29 -29q20 -20 46 -33t52 -13
h466q24 0 49 11t45 29.5t32.5 42t12.5 49.5v447l-47 47v6h-303v-399q-2 -5 -5 -10t-5 -5h-86v73l-47 47v6z" />
    <glyph glyph-name="FL004Bh" unicode="K" horiz-adv-x="791" 
d="M593 251q0 -27 16 -56q21 -17 44 -26t44 -9h56v-6l47 -47v-166h-241q-32 0 -61.5 20t-53.5 44l-18 18q-10 8 -19.5 16t-17.5 17v-115h-298l-47 47h-6v585h304v-6l47 -47v-28q7 9 20.5 22t31 25t39.5 21.5t48 12.5h225v-6l47 -47v-166h-104q-12 0 -30 -10t-34 -25.5
t-27.5 -33.5t-11.5 -34zM368 97q12 -14 28 -31t34.5 -31.5t38.5 -24.5t40 -10h232v148h-44q-25 0 -53.5 13t-53 34.5t-40.5 49t-16 56.5q0 18 12.5 37.5t30 36t36.5 27.5t33 11h95v148h-212q-29 -3 -53 -15t-41.5 -26t-28.5 -27t-14 -18v-2q-25 -23 -36.5 -53.5t-25.5 -60.5
v202h-280v-561h280v164z" />
    <glyph glyph-name="FL004Ch" unicode="L" horiz-adv-x="743" 
d="M38 573h304v-6l47 -47v-361h316v-6l47 -47v-165h-537q-47 0 -80 33l-31 30q-31 19 -48.5 55.5t-17.5 82.5v431zM50 142q0 -30 8 -55.5t23 -45t36.5 -30.5t47.5 -11h528v147h-325q-21 2 -29.5 9.5t-8.5 27.5v377h-280v-419z" />
    <glyph glyph-name="FL004Dh" unicode="M" horiz-adv-x="1149" 
d="M43 -12h-6v450q0 26 13 50.5t33.5 43t45.5 30t50 11.5h789q32 0 64.5 -20t53.5 -50l30 -29q18 -18 29.5 -40.5t11.5 -45.5v-447h-298l-47 47h-6v367h-22q-3 0 -6.5 -5t-5.5 -9v-400h-299l-47 47h-6v367h-20q-4 0 -7.5 -5.5t-5.5 -10.5v-398h-297zM1098 0v438
q0 22 -12 44.5t-30.5 39.5t-42 28t-45.5 11h-789q-23 0 -46 -10.5t-42 -27.5t-30.5 -39t-11.5 -46v-438h279v391q3 6 8.5 14.5t13.5 8.5h62q11 0 14.5 -8.5t5.5 -14.5v-391h281v393l1 2q3 5 8 12t12 7h63q11 0 14.5 -8.5t6.5 -14.5v-391h280z" />
    <glyph glyph-name="FL004Eh" unicode="N" 
d="M496 391q-3 6 -6.5 14.5t-14.5 8.5h-146v-414h-279v561h596q22 0 45.5 -11t42 -28t30.5 -39.5t12 -44.5v-438h-280v391zM91 -59h297v414h96v-367h6l47 -47h298v447q0 23 -11.5 45.5t-29.5 40.5l-30 29q-21 30 -53.5 50t-64.5 20h-608v-585h6z" />
    <glyph glyph-name="FL004Fh" unicode="O" 
d="M639 561q28 0 53 -12.5t43.5 -33t29.5 -46t11 -51.5v-295q0 -24 -11.5 -46t-30.5 -39t-42 -27.5t-46 -10.5h-466q-23 0 -46 10.5t-41.5 27.5t-30.5 39t-12 46v295q0 26 11 51.5t29.5 46t43.5 33t53 12.5h452zM329 170q1 -5 5 -14t17 -9h124q6 0 12.5 8.5t9.5 14.5v212
q0 8 -5.5 20t-16.5 12h-126q-10 -2 -15 -13t-5 -19v-212zM639 573h-452q-31 0 -58 -14t-47.5 -36t-32 -49.5t-11.5 -55.5v-295q0 -32 18.5 -60.5t46.5 -48.5l28 -27q20 -20 46.5 -33t52.5 -13h466q24 0 49 11t45 29.5t32.5 42t12.5 49.5v295q0 29 -13 57.5t-35 50.5l-27 27
q-20 30 -51.5 50t-69.5 20zM388 332q0 6 3.5 13.5t9.5 9.5h84v-181q-2 -5 -5 -10t-5 -5h-87v173z" />
    <glyph glyph-name="FL0050h" unicode="P" 
d="M485 386v0q0 1 -1 1l-14 15zM388 316h73q12 0 19.5 13t9.5 26h-102v-39zM44 -12h-6v585h587q42 0 71.5 -18.5t48.5 -46.5l26 -26l-3 3l6 -5q16 -17 28 -37.5t19 -43t10.5 -44t3.5 -39.5q0 -39 -8.5 -78t-27 -70t-49 -50.5t-74.5 -19.5h-288v-157h-297zM329 0v157h297
q42 0 70.5 18.5t46 48t25.5 67t8 75.5q0 27 -7.5 61t-25.5 63.5t-47 50t-71 20.5h-575v-561h279zM467 414q9 0 16 -6t11 -14.5t6 -17.5t2 -16q0 -8 -3 -18t-8 -18.5t-12.5 -14t-17.5 -5.5h-132v110h138z" />
    <glyph glyph-name="FL0051h" unicode="Q" horiz-adv-x="828" 
d="M177 0q-22 1 -44 12t-40 28t-29.5 38.5t-11.5 44.5v295q0 26 11 51.5t29.5 46t43.5 33t53 12.5h452q28 0 52.5 -12.5t43.5 -33t30 -46t11 -51.5v-295q0 -24 -12 -46t-30.5 -39t-42 -27.5t-45.5 -10.5h-96l-22 -40q-11 -19 -28 -38.5t-38 -35t-44 -25.5t-47 -10h-390v149
h194zM498 291v42v23v13q0 12 1 13q0 8 -5 19t-15 13h-126q-11 0 -16.5 -12t-5.5 -20v-212q3 -6 10 -14.5t9 -8.5h127q11 0 14.5 8.5t6.5 14.5v56v65zM-29 -161h6l47 -47h399q25 0 49.5 10.5t46.5 27t40 36.5t29 40l19 35h91q24 0 48.5 11t45 29.5t33 42t12.5 49.5v295
q0 29 -13 57.5t-35 50.5l-27 27q-21 30 -52.5 50t-68.5 20h-452q-31 0 -58 -14t-47.5 -36t-32 -49.5t-11.5 -55.5v-295q0 -31 18.5 -59t46.5 -48l4 -4h-138v-173zM390 332q0 6 3 14.5t10 8.5h83v-182q-3 -3 -1 -3q-4 -11 -8 -11h-87v173z" />
    <glyph glyph-name="FL0052h" unicode="R" horiz-adv-x="849" 
d="M692 214v-1v1zM388 316h73q12 0 19.5 13t9.5 26h-102v-39zM44 -12h-6v585h597q47 0 76.5 -17.5t46.5 -43.5l30 -30q27 -27 37 -65.5t10 -75.5q0 -25 -5 -54t-15.5 -54.5t-28.5 -43t-43 -18.5v-4q0 -4 -1 -4l170 -222h-368l-47 47h-4l-81 107q-8 3 -15 3h-2q-5 -2 -6 -1
l-1 1v-157h-297zM329 0v150q0 1 5 3t11 4h2q17 0 32.5 -10t26.5 -24l92 -123h346l-159 209q-1 1 -1 8q0 8 5 13q24 0 40.5 16t27 40.5t15 52.5t4.5 52q0 28 -6 58t-21.5 55t-43 41t-70.5 16h-585v-561h279zM467 414q9 0 16 -5.5t11 -14t6 -17.5t2 -16q0 -8 -3 -18t-8 -18.5
t-12.5 -14.5t-17.5 -6h-132v110h138z" />
    <glyph glyph-name="FL005Ah" unicode="S" horiz-adv-x="808" 
d="M758 141q0 -24 -11 -49t-30 -45.5t-44 -33.5t-53 -13h-570v147h406q10 0 15.5 11t5.5 19v33h-297q-20 0 -42.5 11.5t-42 29.5t-32.5 40.5t-13 45.5v87q0 26 11 50.5t29.5 44t43.5 31t53 11.5h570v-147h-406q-10 0 -15.5 -11t-5.5 -19v-31h300q20 0 42.5 -7.5t41.5 -20.5
t31.5 -31t12.5 -39v-114zM816 355v165l-47 47v6h-582q-31 0 -58 -12.5t-47.5 -33.5t-32 -48t-11.5 -55v-87q0 -31 21.5 -62t51.5 -51l24 -24q27 -29 59 -41h-156v-171h6l47 -47h579q30 0 56.5 14t47 35.5t32 48t11.5 52.5v114q0 17 -7.5 32.5t-20.5 28.5l-32 32
q-12 19 -32.5 33.5t-43.5 23.5h135z" />
    <glyph glyph-name="FL0055h" unicode="T" horiz-adv-x="789" 
d="M38 573h713v-6l47 -47v-165h-206v-414h-298l-47 47h-6v367h-150l-47 47h-6v171zM50 414h203v-414h280v414h206v147h-689v-147z" />
    <glyph glyph-name="FL0056h" unicode="U" 
d="M330 170q3 -6 6.5 -14.5t14.5 -8.5h146v414h279v-561h-596q-23 0 -46 11t-41.5 28t-30.5 39t-12 45v438h280v-391zM342 573h-304v-450q0 -30 18.5 -58.5t46.5 -48.5l29 -29q20 -20 46 -33t52 -13h605v579l-47 47v6h-303v-414h-96v361l-47 47v6z" />
    <glyph glyph-name="FL0057h" unicode="V" horiz-adv-x="964" 
d="M538 54q-4 -5 -12.5 -14.5t-19 -18.5t-22.5 -15.5t-22 -6.5h-412v561h279v-335q0 -1 4.5 -3t7.5 -4q5 0 7.5 3.5t6.5 8.5l244 331h328zM951 573h-357l-206 -280v226l-47 47v6h-303v-585h6l47 -47h421q12 0 24.5 7t24 16.5t20.5 19t14 15.5v1l400 521l-48 48z" />
    <glyph glyph-name="FL0059h" unicode="W" horiz-adv-x="1149" 
d="M818 282v279h280v-561h-360q-15 0 -40 23t-50.5 52.5t-46 57t-26.5 36.5q-1 1 -1 3h-3q-3 -6 -23.5 -33.5t-47 -58.5t-54 -55.5t-44.5 -24.5h-353v561h280v-279l232 279h22zM588 573h-33l-167 -202v149l-47 47v6h-304v-585h6l47 -47h362q15 0 37 17.5t45.5 42t45 51
t34.5 44.5q21 -26 45 -51.5t45 -41.5l20 -19q19 -19 36 -31t28 -12h369v579l-47 47v6h-304v-254l-169 201l-28 27z" />
    <glyph glyph-name="FL0058h" unicode="X" horiz-adv-x="791" 
d="M50 149h89q9 0 28.5 12t40.5 31t38 40.5t22 41.5l-42 58t-50 56q-10 9 -23.5 14t-26.5 7.5t-23 3t-13 0.5h-40v148h233q27 0 48 -11.5t36.5 -27.5t27 -32.5t20.5 -26.5q1 0 8.5 12.5t22 29t35.5 33t48 23.5h212v-148h-123q-8 0 -22 -11.5t-27.5 -28t-24 -34t-10.5 -29.5
q0 -24 16 -52.5t40.5 -53t53 -40.5t53.5 -16h44v-148h-232q-20 0 -40 10t-38.5 24.5t-34.5 31.5t-28 31q-2 3 -3.5 5t-3.5 4q-19 -29 -38.5 -47.5t-38.5 -31.5q-24 -17 -51.5 -22t-56.5 -5h-126v149zM38 -12h6l47 -47h135q31 0 59 5t54 24q18 12 35.5 27.5t34.5 39.5
q3 -3 6 -5.5t6 -4.5l23 -22q24 -24 53.5 -44t61.5 -20h241v166l-47 47v6h-56q-19 0 -40 10t-41 26q-23 34 -23 64q0 11 9 27t21.5 31t25 25.5t19.5 10.5h132v166l-47 47v6h-227q-21 -6 -38 -16t-31 -22t-24.5 -25t-17.5 -23l-18 19q-9 12 -20.5 23.5t-25.5 21.5t-31 16
t-37 6h-245v-172h6l47 -47h49q4 0 24 -2t40 -11q21 -26 39 -51l-1 1l1 -2q0 1 1 -1l8 -12q0 -1 2 -3q-6 -18 -22 -38t-34 -36.5t-34.5 -27t-24.5 -10.5h-101v-173z" />
    <glyph glyph-name="FL007Ch" unicode="Y" horiz-adv-x="813" 
d="M463 362q1 0 3 3.5t4 7.5v200h305v-6l47 -47v-426q0 -32 -9 -60t-25 -48.5t-38.5 -32.5t-50.5 -12h-603l-47 47h-6v171h138q-28 12 -49 35l-29 29q-28 20 -46.5 48.5t-18.5 58.5v243h304v-6l47 -47v-158h74zM482 372q-2 -6 -7.5 -14t-11.5 -8h-112q-11 0 -14.5 9.5
t-6.5 14.5v187h-280v-231q0 -23 12 -45t30.5 -39t41.5 -28t46 -11h302v-23q0 -20 -8 -27.5t-28 -9.5h-391v-147h594q26 0 47 11t36 30.5t23 46t8 56.5v417h-281v-189z" />
    <glyph glyph-name="FL007Bh" unicode="Z" horiz-adv-x="972" 
d="M770 124l-3 3zM934 160v-6l47 -47v-166h-373q-33 0 -66 17.5t-59 43.5l-26 25q-45 34 -67 78l-126 228v-1q-3 5 -6.5 10.5t-8.5 12.5h-158l-47 47h-6v171h368q18 0 37.5 -8.5t38 -21.5t35 -29.5t28.5 -31.5l21 -21q29 -29 42 -55l128 -230q1 -3 2.5 -7t4.5 -8q1 -1 5 -1
h186zM748 148q-9 0 -19.5 8.5t-20.5 20t-17.5 23.5t-10.5 19l-130 233q-8 15 -23.5 34t-35.5 35.5t-42 28t-43 11.5h-356v-147h151q9 0 19 -7t19.5 -17.5t17 -21.5t12.5 -19l132 -239q10 -20 27 -39.5t38 -35.5t44.5 -25.5t47.5 -9.5h364v148h-174z" />
    <glyph glyph-name="FL005Bh" unicode="[" horiz-adv-x="470" 
d="M420 468h-89v-375h82v-147h-363v669h370v-147zM432 627h-394v-693h6l47 -47h381v165l-47 47v6h-35v304h89v165l-47 47v6z" />
    <glyph glyph-name="FL005Ch" unicode="\" horiz-adv-x="867" 
d="M499 -12h-4l-484 585h359l19 -23l30 -30l479 -579h-352zM829 0l-465 561h-328l465 -561h328z" />
    <glyph glyph-name="FL005Dh" unicode="]" horiz-adv-x="470" 
d="M38 627h394v-6l47 -47v-687h-381l-47 47h-6v171h82v304h-36l-47 47h-6v171zM50 468h89v-375h-82v-147h363v669h-370v-147z" />
    <glyph glyph-name="FL005Eh" unicode="^" horiz-adv-x="965" 
d="M550 508l24 -23q2 -2 3.5 -4t3.5 -4l6 -6h-1q2 -4 5 -7l4 -3l401 -521h-351l-47 47h-4l-206 280v-326h-297l-47 47h-6v585h425q11 0 22 -5.5t21.5 -14t20 -18t16.5 -17.5h-1q0 -2 2 -2l3 -3zM538 506q-5 5 -13.5 14.5t-18.5 18.5t-21 15.5t-22 6.5h-413v-561h279v335
q0 1 5 3t8 4q5 0 7 -2t5 -7l245 -334h329z" />
    <glyph glyph-name="FL005Fh" unicode="_" horiz-adv-x="629" 
d="M591 159v-6l47 -47v-165h-547l-47 47h-6v171h553zM50 147v-147h529v147h-529z" />
    <glyph glyph-name="FL0061h" unicode="`" horiz-adv-x="1501" 
d="M751 567l47 -47v-165h-206v-313l362 472q4 6 13.5 16t21.5 20t25 17t25 7h424v-6l47 -47v-579h-297l-47 47h-6v229l-204 -277h-350l-14 14v-14h-298l-47 47h-6v367h-150l-47 47h-6v171h713v-6zM902 0l246 334q3 5 5 7t7 2q3 -2 7.5 -4t4.5 -3v-335h279v561h-412
q-10 0 -22 -6.5t-22.5 -15.5t-19 -18t-12.5 -15l-389 -507h328zM739 561h-689v-147h203v-414h280v414h206v147z" />
    <glyph glyph-name="a" unicode="a" horiz-adv-x="964" 
d="M22 -13h-9l404 526q4 6 13.5 16t21.5 20t25 17t25 7h424v-6l47 -47v-579h-297l-47 47h-6v229l-204 -277h-350zM365 -1l246 334q3 5 5 7t7 2q3 -2 7.5 -4t4.5 -3v-335h279v561h-412q-10 0 -22 -6.5t-22.5 -15.5t-19 -18t-12.5 -15l-389 -507h328z" />
    <glyph glyph-name="FL0062h" unicode="b" 
d="M44 -12h-6v585h586q43 0 74.5 -20.5t52.5 -50.5l23 -22l4 -4q28 -28 42 -65t14 -70q0 -28 -8.5 -57.5t-27.5 -49.5q21 -23 29 -52.5t8 -61.5q0 -30 -8 -61.5t-27 -57.5t-49.5 -43t-75.5 -17h-584zM625 0q42 0 71 16t47 41t25.5 55t7.5 58q0 32 -8.5 63t-32.5 52
q22 17 31 47.5t9 58.5q0 27 -10 57t-29 55t-47 41.5t-65 16.5h-574v-561h575zM466 211q21 0 28.5 -7t7.5 -23q0 -14 -8 -24t-27 -10h-138v64h137zM329 414h137q19 0 27 -10t8 -24q0 -17 -7.5 -23.5t-28.5 -6.5h-136v64z" />
    <glyph glyph-name="FL0063h" unicode="c" horiz-adv-x="743" 
d="M693 414h-342q-10 0 -15.5 -11t-5.5 -19v-214q1 -10 7 -16.5t14 -6.5h336v-147h-507q-23 0 -46 10.5t-41.5 27.5t-30.5 39t-12 46v295q0 26 11 51.5t29.5 46t43.5 33t53 12.5h506v-147zM705 573h-518q-31 0 -58 -14t-47.5 -36t-32 -49.5t-11.5 -55.5v-295
q0 -32 18.5 -60.5t46.5 -48.5l28 -27q20 -20 46.5 -33t52.5 -13h516v165l-47 47v6h-310v175q0 6 3.5 13.5t8.5 7.5h351v165l-47 47v6z" />
    <glyph glyph-name="d" unicode="d" horiz-adv-x="819" 
d="M389 162h44q16 0 25 8t13 20t5 26.5t1 28.5v68q0 7 -0.5 15t-1.5 16h-86v-182zM44 -12h-6v585h621q26 0 50.5 -18t42.5 -44l26 -26q22 -22 36 -50t14 -54v-321q0 -20 -9.5 -41t-24.5 -38t-34 -28.5t-38 -11.5h-631zM672 0q18 0 35 10.5t31 26.5t22.5 35.5t8.5 37.5v321
q0 20 -9.5 43t-25 42.5t-35.5 32t-40 12.5h-609v-561h622zM447 403q14 0 22.5 -9t13 -22.5t5.5 -29.5t1 -29v-68q0 -15 -1 -32t-6.5 -31t-16.5 -23t-32 -9h-103v253h117z" />
    <glyph glyph-name="E" unicode="e" horiz-adv-x="743" 
d="M693 414h-342q-10 0 -16 -12t-6 -20q0 -11 8 -21t21 -10h335v-143h-342q-2 0 -10 -9t-11 -15q0 -1 -0.5 -3t-0.5 -4t0.5 -4t0.5 -3q3 -6 11 -14.5t10 -8.5h342v-147h-513q-23 0 -46 10.5t-41.5 27.5t-30.5 39t-12 46v295q0 26 11 51.5t29.5 46t43.5 33t53 12.5h506v-147z
M705 573h-518q-31 0 -58 -14t-47.5 -36t-32 -49.5t-11.5 -55.5v-295q0 -32 18.5 -60.5t46.5 -48.5l28 -27q20 -20 46.5 -33t52.5 -13h522v165l-43 43h43v161l-45 45h45v165l-47 47v6z" />
    <glyph glyph-name="FL0066h" unicode="f" horiz-adv-x="743" 
d="M693 414h-342q-10 0 -16 -12t-6 -20q0 -11 8 -21t21 -10h335v-143h-342q-2 0 -10 -9t-11 -15v-184h-280v418q0 26 11 51.5t29.5 46t43.5 33t53 12.5h506v-147zM705 573h-518q-31 0 -58 -14t-47.5 -36t-32 -49.5t-11.5 -55.5v-430h6l47 -47h298v190q2 5 6.5 11.5t5.5 6.5
h351v161l-45 45h45v165l-47 47v6z" />
    <glyph glyph-name="FL0067h" unicode="g" 
d="M389 159h31l-31 31v-31zM708 355q20 -10 37 -24t28 -31l30 -30q14 -14 23 -31t9 -36v-130q0 -26 -12.5 -49.5t-32.5 -42t-45 -29.5t-49 -11h-466q-26 0 -52 13t-46 33l-29 29q-28 20 -46.5 48.5t-18.5 58.5v295q0 28 11.5 55.5t32 49.5t47.5 36t58 14h598v-6l47 -47v-165
h-124zM776 253q0 21 -12.5 40.5t-32 34t-42.5 23t-43 8.5h-260v-148h111v-41q-3 -6 -8.5 -14.5t-13.5 -8.5h-124q-11 0 -14.5 8.5t-6.5 14.5v212h-2l2 2q0 8 5.5 19t15.5 11h422v147h-586q-28 0 -53 -12.5t-43.5 -33t-29.5 -46t-11 -51.5v-295q0 -23 12 -45t30.5 -39
t41.5 -28t46 -11h466q23 0 46 10.5t42 27.5t30.5 39t11.5 46v130z" />
    <glyph glyph-name="FL0068h" unicode="h" horiz-adv-x="796" 
d="M342 567l47 -47v-157h64v210h305v-6l47 -47v-579h-299l-47 47h-6v161h-64v-208h-298l-47 47h-6v585h304v-6zM465 351h-135v210h-280v-561h280v208h135v-208h281v561h-281v-210z" />
    <glyph glyph-name="FL0069h" unicode="i" horiz-adv-x="380" 
d="M38 573h304v-6l47 -47v-579h-298l-47 47h-6v585zM50 0h280v561h-280v-561z" />
    <glyph glyph-name="FL006Ah" unicode="j" horiz-adv-x="743" 
d="M693 144q0 -30 -7.5 -56.5t-22.5 -46t-36 -30.5t-48 -11h-529v147h325q21 2 29.5 9.5t8.5 27.5v377h280v-417zM91 -59h538q29 0 52 12t38.5 32.5t24 48.5t8.5 60v426l-47 47v6h-304v-389q0 -14 -6 -19t-21 -6h-336v-171h6z" />
    <glyph glyph-name="FL006Bh" unicode="k" horiz-adv-x="791" 
d="M593 251q0 -27 16 -56q21 -17 44 -26t44 -9h56v-6l47 -47v-166h-241q-32 0 -61.5 20t-53.5 44l-18 18q-10 8 -19.5 16t-17.5 17v-115h-298l-47 47h-6v585h304v-6l47 -47v-28q7 9 20.5 22t31 25t39.5 21.5t48 12.5h225v-6l47 -47v-166h-104q-12 0 -30 -10t-34 -25.5
t-27.5 -33.5t-11.5 -34zM368 97q12 -14 28 -31t34.5 -31.5t38.5 -24.5t40 -10h232v148h-44q-25 0 -53.5 13t-53 34.5t-40.5 49t-16 56.5q0 18 12.5 37.5t30 36t36.5 27.5t33 11h95v148h-212q-29 -3 -53 -15t-41.5 -26t-28.5 -27t-14 -18v-2q-25 -23 -36.5 -53.5t-25.5 -60.5
v202h-280v-561h280v164z" />
    <glyph glyph-name="l" unicode="l" horiz-adv-x="743" 
d="M330 561v-377q0 -20 8.5 -27.5t29.5 -9.5h325v-147h-528q-26 0 -47.5 11t-36.5 30.5t-23 45t-8 55.5v419h280zM38 573v-431q0 -46 17.5 -82.5t48.5 -55.5l31 -30q33 -33 80 -33h537v165l-47 47v6h-316v361l-47 47v6h-304z" />
    <glyph glyph-name="FL006Dh" unicode="m" horiz-adv-x="1149" 
d="M522 479q14 -15 29 -32t29 -34q15 20 37.5 47.5t46 52.5t45.5 42.5t37 17.5h365v-6l47 -47v-579h-298l-47 47h-6v151l-165 -198h-31l-47 47h-4l-171 202v-249h-298l-47 47h-6v585h372q9 0 21.5 -7.5t26.5 -20t28.5 -28.5t28.5 -32zM819 279v-279h280v561h-353
q-11 0 -27.5 -11.5t-35 -29.5t-36.5 -39t-33.5 -40t-25.5 -33.5t-12 -18.5h-2q0 1 -2 3q-6 9 -26.5 36.5t-45.5 57t-50 52.5t-40 23h-360v-561h280v279l235 -279h22z" />
    <glyph glyph-name="FL0071h" unicode="n" horiz-adv-x="959" 
d="M394 573q16 0 34 -9.5t35.5 -23.5t33 -30t26.5 -30l15 -15q29 -29 41 -50l40 -68v226h302v-6l47 -47v-579h-331q-30 0 -56 15t-48 37l-21 20q-24 17 -44 40t-34 44l-45 69v-225h-298l-47 47h-6v585h356zM631 275l-110 185q-8 13 -22.5 30.5t-32.5 33t-37 26.5t-35 11
h-344v-561h280v279l115 -175q12 -17 27 -35.5t33 -33.5t38.5 -25t43.5 -10h322v561h-278v-286z" />
    <glyph glyph-name="FL006Fh" unicode="o" 
d="M388 159h87q2 0 5 5t5 10v181h-84q-6 -2 -9.5 -9.5t-3.5 -13.5v-173zM639 573q38 0 69.5 -20t51.5 -50l27 -27q22 -22 35 -50.5t13 -57.5v-295q0 -26 -12.5 -49.5t-32.5 -42t-45 -29.5t-49 -11h-466q-26 0 -52.5 13t-46.5 33l-28 27q-28 20 -46.5 48.5t-18.5 60.5v295
q0 28 11.5 55.5t32 49.5t47.5 36t58 14h452zM329 382q0 8 5 19t15 13h126q11 0 16.5 -12t5.5 -20v-212q-3 -6 -9.5 -14.5t-12.5 -8.5h-124q-13 0 -17 9t-5 14v212zM187 561q-28 0 -53 -12.5t-43.5 -33t-29.5 -46t-11 -51.5v-295q0 -24 12 -46t30.5 -39t41.5 -27.5t46 -10.5
h466q23 0 46 10.5t42 27.5t30.5 39t11.5 46v295q0 26 -11 51.5t-29.5 46t-43.5 33t-53 12.5h-452z" />
    <glyph glyph-name="FL0070h" unicode="p" 
d="M461 304q10 0 17.5 5.5t12.5 14t8 18.5t3 18q0 7 -2 16t-6 17.5t-11 14.5t-16 6h-138v-110h132zM625 561q42 0 71 -20.5t47 -50t25.5 -63.5t7.5 -61q0 -38 -8 -75.5t-25.5 -67t-46 -48t-70.5 -18.5h-297v-157h-279v561h575zM38 573v-585h6l47 -47h297v157h288
q44 0 74.5 19.5t49 50.5t27 70t8.5 78q0 18 -3.5 39.5t-10.5 44t-19 43t-28 37.5l-29 28q-19 28 -48.5 46.5t-71.5 18.5h-587zM388 355h102q-2 -13 -9.5 -26t-19.5 -13h-73v39zM485 386l-15 16l14 -15q1 0 1 -1v0z" />
    <glyph glyph-name="FL0072h" unicode="q" 
d="M330 170q3 -6 6.5 -14.5t14.5 -8.5h127q2 0 9 8.5t10 14.5v212q0 8 -5.5 20t-16.5 12h-126q-10 -2 -15 -13t-5 -19q1 -1 1 -13v-13v-23v-42v-65v-56zM845 -149h-390q-24 0 -47 10t-44 25.5t-38 35t-28 38.5l-22 40h-96q-23 0 -46 10.5t-41.5 27.5t-30.5 39t-12 46v295
q0 26 11 51.5t29.5 46t43.5 33t53 12.5h452q28 0 53 -12.5t43.5 -33t29.5 -46t11 -51.5v-295q0 -23 -11.5 -44.5t-29.5 -38.5t-40 -28t-44 -12h194v-149zM857 12h-43q21 29 21 61v295q0 29 -13 57.5t-35 50.5l-27 27q-20 30 -51.5 50t-69.5 20h-452q-31 0 -58 -14t-47.5 -36
t-32 -49.5t-11.5 -55.5v-295q0 -32 18.5 -60.5t46.5 -48.5l28 -27q20 -20 46.5 -33t52.5 -13h65q12 -17 28.5 -34.5t36.5 -31.5l21 -21q26 -26 58.5 -44t65.5 -18h399v167l-47 47v6zM389 319q0 11 -1 14q0 6 3.5 13t9.5 9h84v-181q-2 -5 -5 -10t-2 -5h-89v160zM342 170v2
q2 -2 0 -2z" />
    <glyph glyph-name="r" unicode="r" horiz-adv-x="849" 
d="M692 214v-1v1zM388 316h73q12 0 19.5 13t9.5 26h-102v-39zM44 -12h-6v585h597q47 0 76.5 -17.5t46.5 -43.5l30 -30q27 -27 37 -65.5t10 -75.5q0 -25 -5 -54t-15.5 -54.5t-28.5 -43t-43 -18.5v-4q0 -4 -1 -4l170 -222h-368l-47 47h-4l-81 107q-8 3 -15 3h-2q-5 -2 -6 -1
l-1 1v-157h-297zM329 0v150q0 1 5 3t11 4h2q17 0 32.5 -10t26.5 -24l92 -123h346l-159 209q-1 1 -1 8q0 8 5 13q24 0 40.5 16t27 40.5t15 52.5t4.5 52q0 28 -6 58t-21.5 55t-43 41t-70.5 16h-585v-561h279zM467 414q9 0 16 -5.5t11 -14t6 -17.5t2 -16q0 -8 -3 -18t-8 -18.5
t-12.5 -14.5t-17.5 -6h-132v110h138z" />
    <glyph glyph-name="s" unicode="s" horiz-adv-x="940" 
d="M44 -12h-6v172h159q7 0 15 6.5t16 16.5t14.5 20.5t11.5 18.5l130 235q6 10 22.5 29t38.5 38.5t47 34t47 14.5h363v-6l47 -47v-165h-155q-8 0 -17.5 -7t-18 -16.5t-15.5 -20.5t-10 -18l-131 -237q-11 -20 -28.5 -40.5t-39 -37t-46 -27t-51.5 -10.5h-346zM387 0
q25 0 48.5 10t44 26t37 35.5t27.5 38.5l132 239q3 8 10.5 19t17.5 21.5t20.5 17.5t19.5 7h146v147h-351q-21 0 -44 -13.5t-43.5 -31.5t-36 -36.5t-20.5 -27.5l-131 -237q-5 -8 -13 -19.5t-17 -22t-18.5 -18t-18.5 -7.5h-147v-148h337z" />
    <glyph glyph-name="FL0074h" unicode="t" horiz-adv-x="789" 
d="M739 414h-206v-414h-280v414h-203v147h689v-147zM751 573h-713v-171h6l47 -47h150v-367h6l47 -47h298v414h206v165l-47 47v6z" />
    <glyph glyph-name="FL0075h" unicode="u" 
d="M330 170q3 -6 6.5 -14.5t14.5 -8.5h124q8 0 13.5 8t8.5 14v392h279v-438q0 -24 -11.5 -46t-30.5 -39t-42 -27.5t-46 -10.5h-466q-23 0 -46 11t-41.5 28t-30.5 39t-12 45v438h280v-391zM342 573h-304v-450q0 -30 18.5 -58.5t46.5 -48.5l29 -29q20 -20 46 -33t52 -13h466
q24 0 49 11t45 29.5t32.5 42t12.5 49.5v447l-47 47v6h-303v-400q-2 -5 -5 -9.5t-5 -4.5h-86v361l-47 47v6z" />
    <glyph glyph-name="FL0076h" unicode="v" horiz-adv-x="964" 
d="M365 561l244 -331q4 -5 6.5 -8.5t7.5 -3.5q3 2 7.5 4t4.5 3v335h279v-561h-412q-11 0 -22.5 6.5t-22 15.5t-19 18.5t-12.5 14.5l-389 507h328zM13 573l404 -527q5 -8 17.5 -21t28.5 -24l26 -25q13 -13 29.5 -24.5t33.5 -11.5h421v579l-47 47v6h-303v-329l-204 277l-38 37
l-11 16h-357z" />
    <glyph glyph-name="FL0077h" unicode="w" horiz-adv-x="1149" 
d="M730 159q0 -2 2 -2zM342 573v-6l47 -47v-361h25q1 0 3 3.5t4 6.5l2 2v402h305v-6l47 -47v-361h23q2 0 5 5t5 10v399h303v-6l47 -47v-447q0 -26 -12.5 -49.5t-32.5 -42t-45 -29.5t-49 -11h-789q-26 0 -52 13t-46 33l-29 29q-28 20 -46.5 48.5t-18.5 58.5v450h304zM50 561
v-438q0 -23 12 -45t30.5 -39t41.5 -28t46 -11h789q23 0 46 10.5t42 27.5t30.5 39t11.5 46v438h-279v-391q-3 -6 -8.5 -14.5t-13.5 -8.5h-62q-11 0 -14.5 8.5t-5.5 14.5v391h-281v-393l-1 -2q-3 -5 -8 -12t-12 -7h-63q-11 0 -14.5 8.5t-6.5 14.5v391h-280z" />
    <glyph glyph-name="x" unicode="x" horiz-adv-x="791" 
d="M593 260q0 -30 23 -64q20 -16 41 -26t40 -10h56v-6l47 -47v-166h-241q-32 0 -61.5 20t-53.5 44l-23 22q-3 2 -6 4.5t-6 5.5q-17 -24 -34.5 -39.5t-35.5 -27.5q-26 -19 -54 -24t-59 -5h-135l-47 47h-6v173h101q8 0 24.5 10.5t34.5 27t34 36.5t22 38q-2 2 -2 3l-8 12
q-1 2 -1 1l-1 2l1 -1q-18 25 -39 51q-20 9 -40 11t-24 2h-49l-47 47h-6v172h245q20 0 37 -6t31 -16t25.5 -21.5t20.5 -23.5l18 -19q7 10 17.5 23t24.5 25t31 22t38 16h227v-6l47 -47v-166h-132q-7 0 -19.5 -10.5t-25 -25.5t-21.5 -31t-9 -27zM176 0q29 0 56.5 5t51.5 22
q19 13 38.5 31.5t38.5 47.5q2 -2 3.5 -4t3.5 -5q12 -14 28 -31t34.5 -31.5t38.5 -24.5t40 -10h232v148h-44q-25 0 -53.5 16t-53 40.5t-40.5 53t-16 52.5q0 12 10.5 29.5t24 34t27.5 28t22 11.5h123v148h-212q-27 -7 -48 -23.5t-35.5 -33t-22 -29t-8.5 -12.5
q-9 10 -20.5 26.5t-27 32.5t-36.5 27.5t-48 11.5h-233v-148h40q3 0 13 -0.5t23 -3t26.5 -7.5t23.5 -14q29 -27 50 -56l42 -58q-5 -20 -22 -41.5t-38 -40.5t-40.5 -31t-28.5 -12h-89v-149h126z" />
    <glyph glyph-name="FL0079h" unicode="y" horiz-adv-x="791" 
d="M639 413q-9 -4 -26.5 -15.5t-35 -27t-30.5 -33.5t-13 -35v-302h-280v284q-10 34 -31.5 54.5t-44.5 41.5q-13 12 -27 18.5t-26.5 9.5t-22 4t-12.5 1h-40v148h226q27 0 48 -12t37 -28.5t28 -33.5t22 -27q1 0 8.5 13t21 30t34 33.5t47.5 24.5h219v-148h-102zM91 354h49
q2 0 10 -0.5t18.5 -3.5t23 -8.5t24.5 -14.5q18 -21 26 -47v-292h6l47 -47h298v311q0 15 12 31t28 30t32.5 25t25.5 16h109v166l-47 47v6h-234q-21 -6 -38.5 -17.5t-31 -24t-23.5 -25.5t-16 -23l-18 19q-20 25 -47.5 48t-68.5 23h-238v-172h6z" />
    <glyph glyph-name="FL007Dh" unicode="z" horiz-adv-x="939" 
d="M554 0q-24 0 -48 10t-45 26t-38 35.5t-27 38.5l-132 239q-5 8 -12.5 19t-17 21.5t-19.5 17.5t-20 7h-145v147h351q21 0 44 -13.5t43 -31.5t35.5 -36.5t21.5 -27.5l129 -233q4 -7 11.5 -19t17 -23.5t20 -20t20.5 -8.5h146v-148h-335zM732 174l-2 1l-126 228q-5 8 -17 23
t-29 32l-19 18q-12 15 -28.5 32t-34.5 31.5t-37.5 24t-37.5 9.5h-363v-171h6l47 -47h153q5 -7 8.5 -12.5t6.5 -10.5v1l126 -228q22 -43 69 -79l24 -23q26 -26 59 -44t67 -18h344v166l-47 47v6h-158h-4q-5 9 -7 14zM267 343l-1 1q1 0 1 -1z" />
    <glyph glyph-name="FL0060h" unicode="{" horiz-adv-x="1527" 
d="M658 160h126q7 0 15 6.5t16 16.5t14.5 20.5t11.5 18.5l73 133h-120q-8 0 -17.5 -7t-18 -16.5t-15.5 -20.5t-10 -18zM949 417l22 40q6 10 22.5 29t38.5 38.5t47 34t47 14.5h363v-6l47 -47v-165h-155q-8 0 -17.5 -7t-18 -16.5t-15.5 -20.5t-10 -18l-131 -237
q-11 -20 -28.5 -40.5t-39 -37t-46 -27t-51.5 -10.5h-346l-47 47h-6v109l-23 -41q-11 -20 -28.5 -40.5t-39 -37t-46 -27t-51.5 -10.5h-346l-47 47h-6v172h159q7 0 15 6.5t16 16.5t14.5 20.5t11.5 18.5l130 235q6 10 22.5 29t38.5 38.5t47 34t47 14.5h363v-6l47 -47v-103z
M974 0q25 0 48.5 10t44 26t37 35.5t27.5 38.5l132 239q3 8 10.5 19t17.5 21.5t20.5 17.5t19.5 7h146v147h-351q-21 0 -44 -13.5t-43.5 -31.5t-36 -36.5t-20.5 -27.5l-131 -237q-5 -8 -13 -19.5t-17 -22t-18.5 -18t-18.5 -7.5h-147v-148h337zM387 0q25 0 48.5 10t44 26
t37 35.5t27.5 38.5l132 239q3 8 10.5 19t17.5 21.5t20.5 17.5t19.5 7h146v147h-351q-21 0 -44 -13.5t-43.5 -31.5t-36 -36.5t-20.5 -27.5l-131 -237q-5 -8 -13 -19.5t-17 -22t-18.5 -18t-18.5 -7.5h-147v-148h337z" />
    <glyph glyph-name="FL007Eh" unicode="|" horiz-adv-x="380" 
d="M330 -169h-280v899h280v-899zM342 742h-304v-923h6l47 -47h298v917l-47 47v6z" />
    <glyph glyph-name="FL0083h" unicode="}" horiz-adv-x="1577" 
d="M949 408l81 106q4 6 13.5 16t21.5 20t25 17t25 7h424v-6l47 -47v-579h-297l-47 47h-6v229l-204 -277h-350l-47 47h-9l282 367h-114q-8 0 -17.5 -7t-18 -16.5t-15.5 -20.5t-10 -18l-131 -237q-11 -20 -28.5 -40.5t-39 -37t-46 -27t-51.5 -10.5h-346l-47 47h-6v172h159
q7 0 15 6.5t16 16.5t14.5 20.5t11.5 18.5l130 235q6 10 22.5 29t38.5 38.5t47 34t47 14.5h363v-6l47 -47v-112zM978 0l246 334q3 5 5 7t7 2q3 -2 7.5 -4t4.5 -3v-335h279v561h-412q-10 0 -22 -6.5t-22.5 -15.5t-19 -18t-12.5 -15l-389 -507h328zM387 0q25 0 48.5 10t44 26
t37 35.5t27.5 38.5l132 239q3 8 10.5 19t17.5 21.5t20.5 17.5t19.5 7h146v147h-351q-21 0 -44 -13.5t-43.5 -31.5t-36 -36.5t-20.5 -27.5l-131 -237q-5 -8 -13 -19.5t-17 -22t-18.5 -18t-18.5 -7.5h-147v-148h337z" />
    <glyph glyph-name="FL0082h" unicode="~" horiz-adv-x="1506" 
d="M751 567l47 -47v-165h-206v-414h-298l-47 47h-6v367h-150l-47 47h-6v171h713v-6zM610 -12h-6v172h159q6 0 14 6.5t15.5 15.5t14.5 19.5t12 18.5l1 2l130 235q6 10 22.5 29t38.5 38.5t47 34t47 14.5h363v-6l47 -47v-165h-155q-8 0 -17.5 -7t-18 -16.5t-15.5 -20.5t-10 -18
l-131 -237q-11 -20 -28.5 -40.5t-39 -37t-46 -27t-51.5 -10.5h-346zM953 0q25 0 48.5 10t44 26t37 35.5t27.5 38.5l132 239q3 8 10.5 19t17.5 21.5t20.5 17.5t19.5 7h146v147h-351q-21 0 -44 -13.5t-43.5 -31.5t-36 -36.5t-20.5 -27.5l-131 -237q-5 -8 -13 -19.5t-17 -22
t-18.5 -18t-18.5 -7.5h-147v-148h337zM739 561h-689v-147h203v-414h280v414h206v147z" />
    <glyph glyph-name="FL007Fh" horiz-adv-x="236" 
 />
    <glyph glyph-name="FL20ACh" horiz-adv-x="847" 
d="M38 371h118v47q0 28 11.5 55.5t32 49.5t47.5 36t58 14h504v-6l47 -47v-165h-205l37 -37v-82h-14l14 -14v-63h115v-6l47 -47v-165h-502q-26 0 -52.5 13t-46.5 33l-28 27q-28 20 -46.5 48.5t-18.5 60.5v17h-65l-47 47h-6v88h14l-8 8h-6v88zM50 295h118v-32h-118v-64h118
v-76q0 -24 12 -46t30.5 -39t41.5 -27.5t46 -10.5h493v147h-322q-8 0 -14 6.5t-7 16.5v29h181v64h-181v32h181v64h-181v25q0 8 5.5 19t15.5 11h328v147h-492q-28 0 -53 -12.5t-43.5 -33t-29.5 -46t-11 -51.5v-59h-118v-64z" />
    <glyph glyph-name="FL20ACh" unicode="&#x20ac;" horiz-adv-x="847" 
d="M38 371h118v47q0 28 11.5 55.5t32 49.5t47.5 36t58 14h504v-6l47 -47v-165h-205l37 -37v-82h-14l14 -14v-63h115v-6l47 -47v-165h-502q-26 0 -52.5 13t-46.5 33l-28 27q-28 20 -46.5 48.5t-18.5 60.5v17h-65l-47 47h-6v88h14l-8 8h-6v88zM50 295h118v-32h-118v-64h118
v-76q0 -24 12 -46t30.5 -39t41.5 -27.5t46 -10.5h493v147h-322q-8 0 -14 6.5t-7 16.5v29h181v64h-181v32h181v64h-181v25q0 8 5.5 19t15.5 11h328v147h-492q-28 0 -53 -12.5t-43.5 -33t-29.5 -46t-11 -51.5v-59h-118v-64z" />
    <glyph glyph-name="FL017Fh" horiz-adv-x="1527" 
d="M553 0q-24 0 -47.5 10t-44.5 26t-38 35.5t-27 38.5l-132 239q-3 8 -10.5 19t-17.5 21.5t-20.5 17.5t-19.5 7h-146v147h351q21 0 44 -13.5t43.5 -31.5t36 -36.5t20.5 -27.5l131 -237q5 -8 13 -19.5t17 -22t18.5 -18t18.5 -7.5h147v-148h-337zM1140 0q-24 0 -47.5 10
t-44.5 26t-38 35.5t-27 38.5l-132 239q-3 8 -10.5 19t-17.5 21.5t-20.5 17.5t-19.5 7h-146v147h351q21 0 44 -13.5t43.5 -31.5t36 -36.5t20.5 -27.5l131 -237q5 -8 13 -19.5t17 -22t18.5 -18t18.5 -7.5h147v-148h-337zM1321 170l-1 1l-130 235q-10 16 -40 48l-16 15
q-10 13 -26.5 31t-37 34t-42 27.5t-40.5 11.5h-363v-171h6l47 -47h155h1q2 -4 3.5 -7.5t3.5 -5.5l131 -237q22 -43 69 -79l24 -23q26 -26 59 -44t66 -18h346v166l-47 47v6h-159h-3q-2 3 -3.5 5.5t-2.5 4.5zM734 170l-1 1l-130 235q-10 16 -40 48l-16 15q-10 13 -26.5 31
t-37 34t-42 27.5t-40.5 11.5h-363v-171h6l47 -47h155h1q2 -4 3.5 -7.5t3.5 -5.5l131 -237q22 -43 69 -79l24 -23q26 -26 59 -44t66 -18h346v166l-47 47v6h-159h-3q-2 3 -3.5 5.5t-2.5 4.5zM858 341l-1 1q1 0 1 -1zM271 341l-1 1q1 0 1 -1z" />
    <glyph glyph-name="FL017Fh" unicode="&#x17d;" horiz-adv-x="1527" 
d="M553 0q-24 0 -47.5 10t-44.5 26t-38 35.5t-27 38.5l-132 239q-3 8 -10.5 19t-17.5 21.5t-20.5 17.5t-19.5 7h-146v147h351q21 0 44 -13.5t43.5 -31.5t36 -36.5t20.5 -27.5l131 -237q5 -8 13 -19.5t17 -22t18.5 -18t18.5 -7.5h147v-148h-337zM1140 0q-24 0 -47.5 10
t-44.5 26t-38 35.5t-27 38.5l-132 239q-3 8 -10.5 19t-17.5 21.5t-20.5 17.5t-19.5 7h-146v147h351q21 0 44 -13.5t43.5 -31.5t36 -36.5t20.5 -27.5l131 -237q5 -8 13 -19.5t17 -22t18.5 -18t18.5 -7.5h147v-148h-337zM1321 170l-1 1l-130 235q-10 16 -40 48l-16 15
q-10 13 -26.5 31t-37 34t-42 27.5t-40.5 11.5h-363v-171h6l47 -47h155h1q2 -4 3.5 -7.5t3.5 -5.5l131 -237q22 -43 69 -79l24 -23q26 -26 59 -44t66 -18h346v166l-47 47v6h-159h-3q-2 3 -3.5 5.5t-2.5 4.5zM734 170l-1 1l-130 235q-10 16 -40 48l-16 15q-10 13 -26.5 31
t-37 34t-42 27.5t-40.5 11.5h-363v-171h6l47 -47h155h1q2 -4 3.5 -7.5t3.5 -5.5l131 -237q22 -43 69 -79l24 -23q26 -26 59 -44t66 -18h346v166l-47 47v6h-159h-3q-2 3 -3.5 5.5t-2.5 4.5zM858 341l-1 1q1 0 1 -1zM271 341l-1 1q1 0 1 -1z" />
    <glyph glyph-name="FL017Eh" horiz-adv-x="940" 
d="M468 728l46 64h169l-126 -166h-177l-127 166h169zM553 0q-24 0 -47.5 10t-44.5 26t-38 35.5t-27 38.5l-132 239q-3 8 -10.5 19t-17.5 21.5t-20.5 17.5t-19.5 7h-146v147h351q21 0 44.5 -13.5t44 -31.5t35.5 -36t20 -28l131 -237q5 -8 13 -19.5t17 -22t18.5 -18t18.5 -7.5
h147v-148h-337zM427 804h-198l146 -190h4l44 -45q-5 2 -11 3t-11 1h-363v-171h6l47 -47h155h1q2 -4 3.5 -7.5t3.5 -5.5l131 -237q22 -43 69 -79l24 -23q26 -26 59 -44t66 -18h346v166l-47 47v6h-159h-3q-2 3 -3.5 5.5t-2.5 4.5l-1 1l-130 235q-5 8 -15.5 22t-25.5 29l-10 9
q2 -2 3 -2l-11 11q-9 11 -21.5 24.5t-27.5 26t-31.5 24t-32.5 17.5h180l140 184l-48 48l4 5h-198l-37 -50l-34 35zM271 341l-1 1q1 0 1 -1z" />
    <glyph glyph-name="FL017Eh" unicode="&#x17e;" horiz-adv-x="940" 
d="M468 728l46 64h169l-126 -166h-177l-127 166h169zM553 0q-24 0 -47.5 10t-44.5 26t-38 35.5t-27 38.5l-132 239q-3 8 -10.5 19t-17.5 21.5t-20.5 17.5t-19.5 7h-146v147h351q21 0 44.5 -13.5t44 -31.5t35.5 -36t20 -28l131 -237q5 -8 13 -19.5t17 -22t18.5 -18t18.5 -7.5
h147v-148h-337zM427 804h-198l146 -190h4l44 -45q-5 2 -11 3t-11 1h-363v-171h6l47 -47h155h1q2 -4 3.5 -7.5t3.5 -5.5l131 -237q22 -43 69 -79l24 -23q26 -26 59 -44t66 -18h346v166l-47 47v6h-159h-3q-2 3 -3.5 5.5t-2.5 4.5l-1 1l-130 235q-5 8 -15.5 22t-25.5 29l-10 9
q2 -2 3 -2l-11 11q-9 11 -21.5 24.5t-27.5 26t-31.5 24t-32.5 17.5h180l140 184l-48 48l4 5h-198l-37 -50l-34 35zM271 341l-1 1q1 0 1 -1z" />
    <glyph glyph-name="FL00A1h" unicode="&#xa1;" horiz-adv-x="380" 
d="M110 387q-23 14 -36 35t-13 47q0 22 10 41t27.5 33t41 22t50.5 8q38 0 69.5 -16t47.5 -42l32 -32h-1l2 -1q27 -27 27 -63q0 -25 -13 -45.5t-36 -34.5l1 -1l46 -45l24 -95v-257h-298l-47 47h-6v261l26 97h88q-8 6 -11 10zM308 469q0 19 -9.5 36t-25.5 29.5t-37.5 19.5
t-45.5 7t-45.5 -7t-37 -19.5t-25 -29.5t-9.5 -36q0 -20 9.5 -36.5t25 -29t37 -19.5t45.5 -7t45.5 7t37.5 19.5t25.5 29t9.5 36.5zM330 246l-22 88h-235l-23 -88v-246h280v246z" />
    <glyph glyph-name="FL00A2h" unicode="&#xa2;" horiz-adv-x="808" 
d="M758 29h-188v-89h-224v89h-158q-28 0 -53 13t-44 33.5t-30 45.5t-11 49v228q0 26 11 50.5t29.5 44t43.5 31t53 11.5h157v96h224v-96h189v-147h-406q-9 0 -14.5 -6t-5.5 -14v-170q4 -1 6 -4.5t3.5 -7.5t4 -7t7.5 -3h406v-147zM770 188h-380v130q0 11 11 11h415v165l-47 47
v6h-142v43l-47 47v6h-248v-96h-145q-31 0 -58 -12.5t-47.5 -33.5t-32 -48t-11.5 -55v-228q0 -35 20.5 -70.5t54.5 -58.5l27 -27q20 -20 44.5 -32t53.5 -12h96v-42h6l47 -47h242v89h188v165l-47 47v6z" />
    <glyph glyph-name="FL00A3h" unicode="&#xa3;" horiz-adv-x="757" 
d="M38 363h102q-1 8 -1 14v14q0 29 10.5 61t31 59t51 44.5t70.5 17.5h231v-6l47 -47v-158h31v-6l47 -47v-150h61v-6l47 -47v-165h-675l-47 47h-6v171h43l-37 37h-6v167zM50 208h103q-3 -20 -3 -38v-12q0 -10 1 -11h-101v-147h657v147h-248q-19 0 -27 10t-8 24q0 16 7.5 23
t28.5 7h139v139h-138q-21 0 -28.5 6.5t-7.5 23.5q0 14 8 24t27 10h61v147h-219q-37 0 -65 -16.5t-47 -41.5t-29 -55t-10 -57q0 -10 1 -20t3 -20h-105v-143z" />
    <glyph glyph-name="FL00BDh" unicode="&#xa4;" horiz-adv-x="867" 
d="M392 369q-19 0 -32.5 -14t-13.5 -30v-82q0 -14 14 -26t29 -12h94q16 0 29.5 12t13.5 26v82q0 16 -13.5 30t-31.5 14h-89zM268 281l-232 280h328l68 -82l68 82h328l-232 -280l233 -281h-328l-69 83l-69 -83h-328zM10 -12h9l47 -47h352l57 70l20 -23h4l47 -47h352l-240 290
l239 289l-48 48l4 5h-359l-60 -72l-15 19l-30 30l-19 23h-359l241 -292zM405 275q0 13 11 24t26 11h72v-67q0 -10 -10 -18t-21 -8h-78v58z" />
    <glyph glyph-name="FL00A5h" unicode="&#xa5;" horiz-adv-x="791" 
d="M91 301h143q-9 15 -23 30q-23 16 -44.5 19.5t-26.5 3.5h-49l-47 47h-6v172h238q41 0 68.5 -23t47.5 -48l18 -19q6 10 16 23t23.5 25.5t31 24t38.5 17.5h234v-6l47 -47v-166h-109q-12 -6 -33.5 -20.5t-38.5 -32.5h75v-6l47 -47v-82h-47v-2l47 -47v-82h-148v-94h-298
l-47 47h-6v47h-98l-47 47h-6v88h49l-43 43h-6v88zM103 225h151v-67h-151v-64h151v-94h280v94h148v64h-148v67h148v64h-148v13q0 17 13 35t30.5 33.5t35 27t26.5 15.5h102v148h-219q-27 -8 -47.5 -24.5t-34 -33.5t-21 -30t-8.5 -13q-10 10 -22 27t-28 33.5t-37 28.5t-48 12
h-226v-148h40q3 0 12.5 -1t22 -4t26.5 -9.5t27 -18.5q22 -20 42.5 -39.5t31.5 -51.5h-149v-64z" />
    <glyph glyph-name="FL00B8h" unicode="&#xa6;" horiz-adv-x="380" 
d="M330 -118h-280v803h280v-803zM342 697h-304v-827h6l47 -47h298v821l-47 47v6z" />
    <glyph glyph-name="FL00A7h" unicode="&#xa7;" horiz-adv-x="867" 
d="M392 369q-19 0 -32.5 -14t-13.5 -30v-82q0 -14 14 -26t29 -12h94q16 0 29.5 12t13.5 26v82q0 16 -13.5 30t-31.5 14h-89zM500 561h328l-465 -561h-328zM10 -12h9l47 -47h352l479 579l-48 48l4 5h-359zM405 275q0 13 11 24t26 11h72v-67q0 -10 -10 -18t-21 -8h-78v58z" />
    <glyph glyph-name="FL00A8h" unicode="&#xa8;" horiz-adv-x="522" 
d="M253 479l19 -20q0 1 -1 1v0zM33 482q0 19 8.5 36t23 30t34.5 20t44 7q33 0 59 -14t39 -37l29 -29q6 35 35.5 57.5t73.5 22.5q33 0 59 -14t39 -37l34 -33q25 -25 25 -59q0 -39 -31 -65t-76 -26q-25 0 -46.5 8.5t-35.5 22.5l-34 33l-15 12q-6 -34 -35 -55t-70 -21
q-25 0 -46.5 8.5t-35.5 22.5l-34 33q-20 13 -32 32.5t-12 44.5zM477 482q0 34 -28 57.5t-70 23.5t-70 -23.5t-28 -57.5q0 -35 28.5 -58.5t69.5 -23.5t69.5 23.5t28.5 58.5zM45 482q0 -35 28.5 -58.5t69.5 -23.5t69.5 23.5t28.5 58.5q0 34 -28 57.5t-70 23.5t-70 -23.5
t-28 -57.5z" />
    <glyph glyph-name="copyright" unicode="&#xa9;" horiz-adv-x="312" 
d="M233 538q-1 2 -1.5 5t-1.5 5l-8 2zM156 641q32 0 59 -15q25 -14 42 -37v2l2 -4l2 -4l31 -30q10 -11 17 -23l1 -1q16 -26 16 -61q0 -33 -16 -59h-1q-15 -28 -44 -45q-15 -4 -26.5 -7t-18.5 -5l-12 -3q-34 0 -67 18q-9 5 -19 15l-32 31q-13 9 -23 19t-18 26v-1
q-16 26 -16 61q0 17 4 31.5t12 29.5q16 30 48 47q27 15 59 15zM192 501q-7 -28 -37 -28q-37 0 -37 45q0 23 10.5 35t28.5 12q22 0 33 -23l17 4q-11 35 -50 35q-27 0 -43 -16t-16 -47q0 -30 16 -46.5t42 -16.5q20 0 34.5 11t19.5 30zM156 611q11 0 22.5 -2.5t22.5 -9.5
q13 -7 21.5 -15.5t13.5 -18.5q12 -23 12 -47q0 -23 -12 -45q-15 -24 -34 -34q-23 -12 -46 -12q-24 0 -46 12q-24 15 -34 34q-12 22 -12 45q0 24 12 47q13 23 35 34.5t45 11.5zM156 629q-28 0 -54 -14q-28 -15 -42 -41q-7 -14 -11 -27.5t-4 -28.5q0 -29 15 -54q8 -14 18 -24
t23 -18q26 -14 55 -14q-1 0 55 14q14 8 24 18t17 24q15 25 15 54q0 30 -15 56q-14 26 -42 41q-26 14 -54 14z" />
    <glyph glyph-name="FL00AAh" unicode="&#xaa;" horiz-adv-x="463" 
d="M265 425h-68v-76h-147v215q0 12 6 24t16 21t22 14.5t24 5.5h226q12 0 24.5 -5.5t22.5 -15t16 -21t6 -23.5v-215h-148v76zM202 547q-4 0 -5 -6v-37h68v40q0 3 -3 3h-60zM91 290h165v47h3l47 -47h166v224q0 13 -6 25t-17 23l-33 32q-11 20 -31.5 33.5t-40.5 13.5h-226
q-14 0 -28 -6.5t-25.5 -17t-19 -24.5t-7.5 -29v-227h6z" />
    <glyph glyph-name="FL00ABh" unicode="&#xab;" horiz-adv-x="602" 
d="M307 211l-101 -101l-169 169l169 168l101 -101l-67 -67zM565 211l-101 -101l-169 169l169 168l101 -101l-67 -67zM581 346l-117 117l-132 -131l-11 12l2 2l-117 117l-185 -184l185 -185l2 2l48 -48l113 113l-48 48l2 2l-20 19l12 12l149 -148l2 2l48 -48l113 113l-48 48
l2 2l-20 19l66 66l-48 48z" />
    <glyph glyph-name="FL00ACh" unicode="&#xac;" horiz-adv-x="435" 
d="M385 111h-143v97h-192v143h335v-240zM397 363h-359v-167h6l47 -47h139v-50h6l47 -47h161v258l-47 47v6z" />
    <glyph glyph-name="FL00ADh" unicode="&#xad;" horiz-adv-x="395" 
d="M345 351v-143h-295v143h295zM38 363v-167h6l47 -47h313v161l-47 47v6h-319z" />
    <glyph glyph-name="registered" unicode="&#xae;" horiz-adv-x="312" 
d="M156 641q32 0 59 -15q25 -14 42 -37v2l2 -4l2 -4l31 -30q10 -11 17 -23l1 -1q16 -26 16 -61q0 -33 -16 -59h-1q-15 -28 -44 -45q-15 -4 -26.5 -7t-18.5 -5l-12 -3q-34 0 -67 18q-9 5 -19 15l-32 31q-13 9 -23 19t-18 26v-1q-16 26 -16 61q0 17 4 31.5t12 29.5
q16 30 48 47q27 15 59 15zM127 560h21q19 0 20 -1q11 -5 11 -17q0 -8 -6 -13t-23 -5h-23v36zM127 458v50h11q11 0 15 -4q7 -4 21 -28l10 -18h24l-15 23q-8 13 -13.5 19.5t-14.5 10.5q16 1 25 10.5t9 22.5q0 10 -6 18q-3 6 -14 11q-7 4 -31 4h-40v-119h19zM156 611
q11 0 22.5 -2.5t22.5 -9.5q13 -7 21.5 -15.5t13.5 -18.5q12 -23 12 -47q0 -23 -12 -45q-15 -24 -34 -34q-23 -12 -46 -12q-24 0 -46 12q-24 15 -34 34q-12 22 -12 45q0 24 12 47q13 23 35 34.5t45 11.5zM156 629q-28 0 -54 -14q-28 -15 -42 -41q-7 -14 -11 -27.5t-4 -28.5
q0 -29 15 -54q8 -14 18 -24t23 -18q26 -14 55 -14q-1 0 55 14q14 8 24 18t17 24q15 25 15 54q0 30 -15 56q-14 26 -42 41q-26 14 -54 14z" />
    <glyph glyph-name="FL00B3h" unicode="&#xaf;" horiz-adv-x="629" 
d="M591 572v-6l47 -47v-165h-547l-47 47h-6v171h553zM50 560v-147h529v147h-529z" />
    <glyph glyph-name="FL00B1h" unicode="&#xb0;" horiz-adv-x="286" 
d="M108 480q0 -9 10 -15.5t24 -6.5t24 6.5t10 15.5t-10 15t-24 6t-24 -6t-10 -15zM45 480q0 34 28 57.5t70 23.5t70 -23.5t28 -57.5q0 -35 -28.5 -58.5t-69.5 -23.5t-69.5 23.5t-28.5 58.5zM33 480q0 -25 12 -44.5t32 -32.5l34 -33q14 -14 35.5 -22.5t46.5 -8.5q45 0 76 26
t31 65q0 34 -25 59l-34 33q-13 23 -39 37t-59 14q-24 0 -44 -7t-34.5 -20t-23 -30t-8.5 -36z" />
    <glyph glyph-name="FL00B2h" unicode="&#xb1;" horiz-adv-x="435" 
d="M386 0h-335v143h335v-143zM385 419v-143h-96v-97h-143v97h-96v143h96v95h143v-95h96zM398 155h-50v62h96v161l-47 47v6h-49v42l-47 47v6h-167v-95h-96v-167h6l47 -47h43v-50h6l12 -12h-113v-167h6l47 -47h353v161l-47 47v6z" />
    <glyph glyph-name="FL00B6h" unicode="&#xb2;" horiz-adv-x="454" 
d="M44 337h-6v140q0 24 21 42l-14 16h-6v106h293q24 0 43.5 -12.5t30.5 -32.5l33 -33q24 -24 24 -55v-42q0 -14 -7.5 -26.5t-18.5 -23.5l26 -26v-100h-372zM404 349v82h-206v19h137q10 0 22 6t22.5 15t17.5 21t7 24v42q0 13 -6 26t-15.5 23t-22.5 16t-28 6h-281v-82h202
q2 0 3 -3t1 -5v-10h-140q-11 0 -23 -4t-21.5 -10.5t-16 -16t-6.5 -21.5v-128h354z" />
    <glyph glyph-name="FL00BCh" unicode="&#xb3;" horiz-adv-x="433" 
d="M226 528q12 0 12 9q0 10 -11 10h-177v82h253q19 0 34 -8.5t25 -21t15 -28t5 -29.5t-4 -28t-13 -23q11 -11 14.5 -26t3.5 -29q0 -15 -4 -30t-13.5 -28t-25 -21t-37.5 -8h-253v82h177q12 0 12 10q0 9 -12 9h-177v78h176zM38 337h6l47 -47h262q25 0 42 9t27.5 23t15 31
t4.5 33q0 14 -3 28t-13 27q8 11 11.5 24t3.5 27q0 18 -7.5 37.5t-22.5 34.5l-33 32q-11 19 -30 32t-45 13h-265v-304z" />
    <glyph glyph-name="FL00B4h" unicode="&#xb4;" horiz-adv-x="867" 
d="M475 11l-57 -70h-352l-47 47h-9l242 293l-241 292h359l19 -23l30 -30l15 -19l60 72h359l-4 -5l48 -48l-239 -289l240 -290h-352l-47 47h-4zM432 83l69 -83h328l-233 281l232 280h-328l-68 -82l-68 82h-328l232 -280l-233 -281h328z" />
    <glyph glyph-name="FL00B5h" unicode="&#xb5;" horiz-adv-x="813" 
d="M330 372q2 -6 7.5 -14t11.5 -8h112q11 0 14.5 9.5t6.5 14.5v187h280v-231q0 -23 -12 -45t-30.5 -39t-42 -28t-45.5 -11h-302v-23q0 -20 8 -27.5t28 -9.5h391v-147h-594q-26 0 -47 11t-36 30.5t-23 46t-8 56.5v417h281v-189zM342 573h-305v-429q0 -48 17.5 -84.5
t49.5 -55.5l30 -30q33 -33 79 -33h603v165l-47 47v6h-40q18 8 34.5 21t29.5 29t20.5 34.5t7.5 36.5v240l-47 47v6h-304v-197q-1 -2 -1 -4q-4 -10 -8 -10h-72v158l-47 47v6z" />
    <glyph glyph-name="FL007Ah" unicode="&#xb6;" horiz-adv-x="1003" 
d="M282 342q0 1 -1 1zM965 160v-6l47 -47v-166h-399q-33 0 -66 18t-59 44l-24 23q-47 36 -69 79l-130 239q-2 2 -3.5 5t-3.5 6h-167l-47 47h-6v171h375q18 0 37.5 -8.5t38 -22t34.5 -29.5t28 -32l20 -19q30 -30 43 -56l129 -231l2 -1q1 -3 3.5 -6.5t4.5 -7.5h2h210zM755 148
q-9 0 -19.5 8.5t-20 20t-17 23.5t-11.5 19l-131 233q-8 15 -23.5 34t-35 35.5t-41.5 28t-43 11.5h-363v-147h158q9 0 19 -7t19.5 -17.5t17.5 -21.5t12 -19l130 -239q10 -19 27 -38.5t38 -35.5t44.5 -26t47.5 -10h390v148h-198z" />
    <glyph glyph-name="FL00B7h" unicode="&#xb7;" horiz-adv-x="335" 
d="M37 295q0 22 10.5 41t28 33t41 22t50.5 8q38 0 69.5 -16.5t47.5 -42.5l32 -32q27 -27 27 -63q0 -21 -10 -39.5t-27 -32t-40 -21.5t-49 -8q-30 0 -56.5 10.5t-43.5 27.5l-32 32q-22 14 -35 34.5t-13 46.5zM49 295q0 -20 9.5 -36.5t25.5 -29t37.5 -19.5t45.5 -7t45.5 7
t37 19.5t25 29t9.5 36.5q0 19 -9.5 36t-25 29.5t-37 19.5t-45.5 7t-45.5 -7t-37.5 -19.5t-25.5 -29.5t-9.5 -36z" />
    <glyph glyph-name="FL00BAh" unicode="&#xb8;" horiz-adv-x="235" 
d="M197 6l47 -47v-175h-234l-47 47h-6v139h83v42h157v-6zM185 0h-133v-42h-83v-115h216v157z" />
    <glyph glyph-name="FL00BEh" unicode="&#xb9;" horiz-adv-x="296" 
d="M258 634l47 -47v-298h-161l-47 47h-6v151l-47 47h-6v106h220v-6zM246 628h-196v-82h53v-198h143v280z" />
    <glyph glyph-name="FL00B0h" unicode="&#xba;" horiz-adv-x="463" 
d="M345 641q21 0 38.5 -12t28.5 -30l35 -34q25 -25 25 -57v-148q0 -14 -6.5 -26.5t-17 -22.5t-24 -15.5t-26.5 -5.5h-233q-29 0 -53 24l-36 35q-16 10 -27 26t-11 35v148q0 15 6.5 29.5t17.5 26.5t25.5 19.5t31.5 7.5h226zM119 629q-14 0 -26.5 -6.5t-22 -16.5t-15 -22.5
t-5.5 -25.5v-148q0 -12 6 -23t15.5 -19.5t21 -13.5t22.5 -5h233q12 0 23.5 5t20.5 13.5t15 19.5t6 23v148q0 13 -5.5 25.5t-14.5 22.5t-21.5 16.5t-26.5 6.5h-226zM211 513q0 6 5 8h31q3 0 4.5 -3t1.5 -5v-53q-2 -6 -6 -6h-31q-5 0 -5 6v53z" />
    <glyph glyph-name="FL00BBh" unicode="&#xbb;" horiz-adv-x="602" 
d="M88 279l-67 67l117 117l185 -184l-2 -2l11 -12l14 14l-67 67l117 117l185 -184l-2 -2l48 -48l-181 -181l-48 48l-2 -2l-81 81l-127 -127l-48 48l-2 -2l-117 117zM295 211l101 -101l169 169l-169 168l-101 -101l67 -67zM37 211l101 -101l169 169l-169 168l-101 -101
l67 -67z" />
    <glyph glyph-name="FL0763h" unicode="&#xbc;" horiz-adv-x="945" 
d="M587 251q4 6 17 17.5t25 11.5h206v-161h60v-81h-60v-38h-148v38h-225v57l125 157v-1zM687 119v44l-33 -44h33zM292 281h-110v198h-53v82h196v-244l222 244h283l-509 -561h-284zM9 -12h10l47 -47h309l77 85h4l47 -47h187l38 -38h166v38h60v99l-47 47v6h-13v108l-47 47v6
h-154l208 228l-48 48l5 5h-316l-158 -174v121l-47 47v6h-220v-106h6l47 -47v-151h6l46 -47z" />
    <glyph glyph-name="FL0740h" unicode="&#xbd;" horiz-adv-x="948" 
d="M693 292h133q24 0 43.5 -12.5t30.5 -32.5l33 -33q24 -24 24 -55v-42q0 -14 -7.5 -26.5t-18.5 -23.5l26 -26v-100h-372l-47 47h-6v125l-157 -172h-309l-47 47h-10l213 234l-46 47h-6v151l-47 47h-6v106h220v-6l47 -47v-121l158 174h316l-5 -5l48 -48zM545 247v-49h202
q2 0 3 -3t1 -5v-10h-140q-11 0 -23 -4t-21.5 -10.5t-16 -16t-6.5 -21.5v-128h354v82h-206v19h137q10 0 22 6t22.5 15t17.5 21t7 24v42q0 13 -6 26t-15.5 23t-22.5 16t-28 6h-251l255 281h-283l-222 -244v244h-196v-82h53v-198h110l-255 -281h284z" />
    <glyph glyph-name="FL077Ch" unicode="&#xbe;" horiz-adv-x="982" 
d="M303 573q26 0 45 -13t30 -32l33 -32q15 -15 22.5 -34.5t7.5 -37.5v-2l138 151h316l-5 -5l48 -48l-208 -228h154v-6l47 -47v-108h13v-6l47 -47v-99h-60v-38h-166l-38 38h-187l-47 47h-4l-77 -85h-309l-47 47h-10l213 234h-168l-47 47h-6v304h265zM724 163v-44h-33zM499 95
v-57h225v-38h148v38h60v81h-60v161h-206q-12 0 -25 -11.5t-17 -17.5v1zM50 460v-78h177q12 0 12 -9q0 -10 -12 -10h-177v-82h253q5 0 12.5 1.5t18.5 3.5l-260 -286h284l509 561h-283l-207 -227q6 16 6 34q0 14 -3.5 29t-14.5 26q9 9 13 23t4 28t-5 29.5t-15 28t-25 21
t-34 8.5h-253v-82h177q11 0 11 -10q0 -9 -12 -9h-176z" />
    <glyph glyph-name="FL00BFh" unicode="&#xbf;" horiz-adv-x="808" 
d="M480 359l-28 28q-23 14 -36 35t-13 47q0 22 10 41t27.5 33t41 22t50.5 8q38 0 69.5 -16t47.5 -42l33 -33q27 -27 27 -63q0 -23 -10.5 -41.5t-29.5 -32.5l40 -39v-50q0 -33 -26.5 -59t-59.5 -38h146v-6l47 -47v-165h-579q-29 0 -55 11.5t-46 31.5l-29 29q-32 21 -50.5 54
t-18.5 70v87q0 24 14 48.5t35.5 43.5t46.5 31t46 12h300zM650 469q0 19 -9.5 36t-25.5 29.5t-37.5 19.5t-45.5 7t-45.5 -7t-37 -19.5t-25 -29.5t-9.5 -36q0 -20 9.5 -36.5t25 -29t37 -19.5t45.5 -7t45.5 7t37.5 19.5t25.5 29t9.5 36.5zM180 347q-20 0 -42.5 -11t-42 -28
t-32.5 -39.5t-13 -44.5v-87q0 -26 11 -50.5t29.5 -44t43.5 -31t53 -11.5h570v147h-406q-10 0 -15.5 11t-5.5 19v31h192q20 0 42.5 7.5t41.5 20.5t31.5 31t12.5 39v41h-470z" />
    <glyph glyph-name="FL00C0h" unicode="&#xc0;" 
d="M401 355q-5 0 -8 -5t-5 -10v-27h96v42h-83zM452 772l36 -35q3 -3 4 -5l36 -49l3 -3q8 -10 12.5 -18t4.5 -20v-11q0 -14 -2.5 -23t-14.5 -21q-11 -10 -20 -14h135q32 0 64.5 -20t53.5 -49l29 -29q19 -19 30.5 -42t11.5 -46v-446h-298l-47 47h-6v111h-96v-158h-297l-47 47
h-6v449q0 26 13 50.5t33.5 43.5t46 30.5t49.5 11.5h265q-6 3 -12 10l-35 35q-6 2 -10.5 6.5l-9.5 9.5l-47 55l-2 2q-6 8 -9 13.5t-3 19.5q0 38 31 68v-1q12 11 23 13t25 2q31 0 48 -22zM776 437q0 22 -11.5 44.5t-30.5 40t-42 28.5t-46 11h-466q-23 0 -46 -10.5t-41.5 -28
t-30.5 -39.5t-12 -46v-437h279v158h167v-158h280v437zM329 392q3 6 8.5 14t13.5 8h124q12 0 15 -8.5t6 -14.5v-90h-167v90v1zM435 777q-14 17 -39 17q-13 0 -23.5 -2.5t-21.5 -13.5q-12 -11 -17 -25t-5 -29q0 -11 4 -17.5t11 -14.5l43 -50q15 -18 40 -18t48 20q10 10 12 18
t2 19v11q0 10 -4 17t-11 15z" />
    <glyph glyph-name="FL00C1h" unicode="&#xc1;" 
d="M401 355q-5 0 -8 -5t-5 -10v-27h96v42h-83zM325 692q0 12 6 22t17 24l34 46q16 22 48 22q14 0 24.5 -2t23.5 -13v1q5 -6 10 -11.5t8 -11.5l37 -36q23 -24 23 -59q0 -13 -3 -18.5t-8 -12.5l-7 -7h1l-43 -50l-7.5 -7.5t-7.5 -5.5h165q32 0 64.5 -20t53.5 -49l29 -29
q19 -19 30.5 -42t11.5 -46v-446h-298l-47 47h-6v111h-96v-158h-297l-47 47h-6v449q0 26 13 50.5t33.5 43.5t46 30.5t49.5 11.5h234q-9 4 -19 14l-37 36q-8 4 -15 12q-13 13 -15.5 22.5t-2.5 23.5v11zM776 437q0 22 -11.5 44.5t-30.5 40t-42 28.5t-46 11h-466
q-23 0 -46 -10.5t-41.5 -28t-30.5 -39.5t-12 -46v-437h279v158h167v-158h280v437zM329 392q3 6 8.5 14t13.5 8h124q12 0 15 -8.5t6 -14.5v-90h-167v90v1zM352 724q-7 -8 -11 -15t-4 -17v-11q0 -11 2 -19t12 -18q23 -20 48 -20t40 18l43 50q7 8 11 14.5t4 17.5q0 15 -5 29
t-17 25q-11 11 -21.5 13.5t-23.5 2.5q-25 0 -39 -17z" />
    <glyph glyph-name="FL00C2h" unicode="&#xc2;" 
d="M425 573h74l-41 41h-4zM401 355q-5 0 -8 -5t-5 -10v-27h96v42h-83zM681 567q24 -8 45.5 -25t37.5 -38l29 -29q19 -19 30.5 -42t11.5 -46v-446h-298l-47 47h-6v111h-96v-158h-297l-47 47h-6v449q0 26 13 50.5t33.5 43.5t46 30.5t49.5 11.5h44l-41 41h-9l146 190h187
l13 -17l36 -36l140 -184h-15zM776 437q0 22 -11.5 44.5t-30.5 40t-42 28.5t-46 11h-466q-23 0 -46 -10.5t-41.5 -28t-30.5 -39.5t-12 -46v-437h279v158h167v-158h280v437zM329 392q3 6 8.5 14t13.5 8h124q12 0 15 -8.5t6 -14.5v-90h-167v90v1zM413 690l46 -64h169l-126 166
h-177l-127 -166h169z" />
    <glyph glyph-name="FL00C3h" unicode="&#xc3;" 
d="M391 573h74l-41 41h-4zM401 355q-5 0 -8 -5t-5 -10v-27h96v42h-83zM683 799l48 -48l-137 -178h52q32 0 64.5 -20t53.5 -49l29 -29q19 -19 30.5 -42t11.5 -46v-446h-298l-47 47h-6v111h-96v-158h-297l-47 47h-6v449q0 26 13 50.5t33.5 43.5t46 30.5t49.5 11.5h10l-41 41
h-9l146 190h121l12 -16l34 -34l36 50h198zM776 437q0 22 -11.5 44.5t-30.5 40t-42 28.5t-46 11h-466q-23 0 -46 -10.5t-41.5 -28t-30.5 -39.5t-12 -46v-437h279v158h167v-158h280v437zM329 392q3 6 8.5 14t13.5 8h124q12 0 15 -8.5t6 -14.5v-90h-167v90v1zM663 792h-169
l-45 -63l-47 63h-111l-127 -166h169l45 63l47 -63h111z" />
    <glyph glyph-name="FL00C4h" unicode="&#xc4;" 
d="M401 355q-5 0 -8 -5t-5 -10v-27h96v42h-83zM465 632l-15 12q-5 -26 -23.5 -44.5t-45.5 -26.5h162q-27 8 -44 26zM185 709q0 19 8.5 36t23 30t34.5 20t44 7q33 0 59 -14t39 -37l29 -29q6 35 35.5 57.5t73.5 22.5q33 0 59 -14t39 -37l34 -33q25 -25 25 -59q0 -31 -19.5 -54
t-50.5 -32h28q32 0 64.5 -20t53.5 -49l29 -29q19 -19 30.5 -42t11.5 -46v-446h-298l-47 47h-6v111h-96v-158h-297l-47 47h-6v449q0 26 13 50.5t33.5 43.5t46 30.5t49.5 11.5h127q-27 8 -44 26l-34 33q-20 13 -32 32.5t-12 44.5zM776 437q0 22 -11.5 44.5t-30.5 40t-42 28.5
t-46 11h-466q-23 0 -46 -10.5t-41.5 -28t-30.5 -39.5t-12 -46v-437h279v158h167v-158h280v437zM329 392q3 6 8.5 14t13.5 8h124q12 0 15 -8.5t6 -14.5v-90h-167v90v1zM629 709q0 34 -28 57.5t-70 23.5t-70 -23.5t-28 -57.5q0 -35 28.5 -58.5t69.5 -23.5t69.5 23.5t28.5 58.5
zM197 709q0 -35 28.5 -58.5t69.5 -23.5t69.5 23.5t28.5 58.5q0 34 -28 57.5t-70 23.5t-70 -23.5t-28 -57.5z" />
    <glyph glyph-name="FL00C5h" unicode="&#xc5;" 
d="M401 355q-5 0 -8 -5t-5 -10v-27h96v42h-83zM304 709q0 19 8.5 36t23 30t34.5 20t44 7q33 0 59 -14t39 -37l34 -33q25 -25 25 -59q0 -31 -19.5 -54t-50.5 -32h145q32 0 64.5 -20t53.5 -49l29 -29q19 -19 30.5 -42t11.5 -46v-446h-298l-47 47h-6v111h-96v-158h-297l-47 47
h-6v449q0 26 13 50.5t33.5 43.5t46 30.5t49.5 11.5h246q-27 8 -44 26l-34 33q-20 13 -32 32.5t-12 44.5zM776 437q0 22 -11.5 44.5t-30.5 40t-42 28.5t-46 11h-466q-23 0 -46 -10.5t-41.5 -28t-30.5 -39.5t-12 -46v-437h279v158h167v-158h280v437zM329 392q3 6 8.5 14
t13.5 8h124q12 0 15 -8.5t6 -14.5v-90h-167v90v1zM316 709q0 -35 28.5 -58.5t69.5 -23.5t69.5 23.5t28.5 58.5q0 34 -28 57.5t-70 23.5t-70 -23.5t-28 -57.5zM379 709q0 9 10 15t24 6t24 -6t10 -15t-10 -15.5t-24 -6.5t-24 6.5t-10 15.5z" />
    <glyph glyph-name="FL00C6h" unicode="&#xc6;" horiz-adv-x="1415" 
d="M496 301v90q-3 6 -6 14.5t-15 8.5h-124q-8 0 -13.5 -8t-8.5 -14v-91h167zM496 0v158h-167v-158h-279v437q0 24 12 46t30.5 39.5t41.5 28t46 10.5h466q29 0 57.5 -17t47.5 -42q19 26 47 42.5t61 16.5h506v-147h-342q-10 0 -16 -12t-6 -20q0 -11 8 -21t21 -10h335v-143
h-342q-2 0 -10 -9t-11 -15q0 -1 -0.5 -3t-0.5 -4t0.5 -4t0.5 -3q3 -6 11 -14.5t10 -8.5h342v-147h-513q-42 0 -76 28v-28h-280zM91 -59h297v158h96v-111h6l47 -47h298v19q32 -19 67 -19h522v165l-43 43h43v161l-45 45h45v165l-47 47v6h-518q-32 0 -59.5 -14.5t-49.5 -38.5
q-21 23 -48.5 38t-55.5 15h-466q-24 0 -49.5 -11.5t-46 -30.5t-33.5 -43.5t-13 -50.5v-449h6zM401 355h83v-42h-96v27q2 5 5 10t8 5z" />
    <glyph glyph-name="FL00C7h" unicode="&#xc7;" horiz-adv-x="743" 
d="M389 159h310v-6l47 -47v-165h-197v-157h-234l-47 47h-6v110h-32q-26 0 -52.5 13t-46.5 33l-28 27q-28 20 -46.5 48.5t-18.5 60.5v295q0 28 11.5 55.5t32 49.5t47.5 36t58 14h518v-6l47 -47v-165h-351q-5 0 -8.5 -7.5t-3.5 -13.5v-175zM490 0h197v147h-336q-8 0 -14 6.5
t-7 16.5v214q0 8 5.5 19t15.5 11h342v147h-506q-28 0 -53 -12.5t-43.5 -33t-29.5 -46t-11 -51.5v-295q0 -24 12 -46t30.5 -39t41.5 -27.5t46 -10.5h177v-42h-83v-115h216v157z" />
    <glyph glyph-name="FL00C8h" unicode="&#xc8;" horiz-adv-x="743" 
d="M397 110q1 -3 3 -3zM402 573q-6 3 -12 10l-35 35q-6 2 -10.5 6.5l-9.5 9.5l-47 55l-2 2q-6 8 -9 13.5t-3 19.5q0 38 31 68v-1q12 11 23 13t25 2q31 0 48 -22l8 -12l36 -35q3 -3 4 -5l36 -49l3 -3q8 -10 12.5 -18t4.5 -20v-11q0 -14 -2.5 -23t-14.5 -21q-11 -10 -20 -14
h237v-6l47 -47v-165h-45l45 -45v-161h-43l43 -43v-165h-522q-26 0 -52.5 13t-46.5 33l-28 27q-28 20 -46.5 48.5t-18.5 60.5v295q0 28 11.5 55.5t32 49.5t47.5 36t58 14h215zM392 777q-14 17 -39 17q-13 0 -23.5 -2.5t-21.5 -13.5q-12 -11 -17 -25t-5 -29q0 -11 4 -17.5
t11 -14.5l43 -50q15 -18 40 -18t48 20q10 10 12 18t2 19v11q0 10 -4 17t-11 15zM187 561q-28 0 -53 -12.5t-43.5 -33t-29.5 -46t-11 -51.5v-295q0 -24 12 -46t30.5 -39t41.5 -27.5t46 -10.5h513v147h-342q-2 0 -10 8.5t-11 14.5q0 1 -0.5 3t-0.5 4t0.5 4t0.5 3q3 6 11 15
t10 9h342v143h-335q-13 0 -21 10t-8 21q0 8 6 20t16 12h342v147h-506z" />
    <glyph glyph-name="FL00C9h" unicode="&#xc9;" horiz-adv-x="743" 
d="M397 110q1 -3 3 -3zM406 573q-9 4 -19 14l-37 36q-8 4 -15 12q-13 13 -15.5 22.5t-2.5 23.5v11q0 12 6 22t17 24l34 46q16 22 48 22q14 0 24.5 -2t23.5 -13v1q5 -6 10 -11.5t8 -11.5l37 -36q23 -24 23 -59q0 -13 -3 -18.5t-8 -12.5l-7 -7h1l-43 -50l-7.5 -7.5t-7.5 -5.5
h232v-6l47 -47v-165h-45l45 -45v-161h-43l43 -43v-165h-522q-26 0 -52.5 13t-46.5 33l-28 27q-28 20 -46.5 48.5t-18.5 60.5v295q0 28 11.5 55.5t32 49.5t47.5 36t58 14h219zM344 724q-7 -8 -11 -15t-4 -17v-11q0 -11 2 -19t12 -18q23 -20 48 -20t40 18l43 50q7 8 11 14.5
t4 17.5q0 15 -5 29t-17 25q-11 11 -21.5 13.5t-23.5 2.5q-25 0 -39 -17zM187 561q-28 0 -53 -12.5t-43.5 -33t-29.5 -46t-11 -51.5v-295q0 -24 12 -46t30.5 -39t41.5 -27.5t46 -10.5h513v147h-342q-2 0 -10 8.5t-11 14.5q0 1 -0.5 3t-0.5 4t0.5 4t0.5 3q3 6 11 15t10 9h342
v143h-335q-13 0 -21 10t-8 21q0 8 6 20t16 12h342v147h-506z" />
    <glyph glyph-name="FL00CAh" unicode="&#xca;" horiz-adv-x="743" 
d="M397 110q1 -3 3 -3zM387 573h74l-41 41h-4zM103 14q-28 20 -46.5 48.5t-18.5 60.5v295q0 27 11.5 54.5t31.5 50t47 36.5t58 14l-41 41h-9l146 190h187l13 -17l36 -36l134 -178h53v-6l47 -47v-165h-45l45 -45v-161h-43l43 -43v-165h-522q-26 0 -52.5 13t-46.5 33zM375 690
l46 -64h169l-126 166h-177l-127 -166h169zM187 561q-28 0 -53 -12.5t-43.5 -33t-29.5 -46t-11 -51.5v-295q0 -24 12 -46t30.5 -39t41.5 -27.5t46 -10.5h513v147h-342q-2 0 -10 8.5t-11 14.5q0 1 -0.5 3t-0.5 4t0.5 4t0.5 3q3 6 11 15t10 9h342v143h-335q-13 0 -21 10t-8 21
q0 8 6 20t16 12h342v147h-506z" />
    <glyph glyph-name="FL00CBh" unicode="&#xcb;" horiz-adv-x="743" 
d="M427 632l-15 12q-5 -26 -23.5 -44.5t-45.5 -26.5h162q-27 8 -44 26zM269 573q-27 8 -44 26l-34 33q-20 13 -32 32.5t-12 44.5q0 19 8.5 36t23 30t34.5 20t44 7q33 0 59 -14t39 -37l29 -29q6 35 35.5 57.5t73.5 22.5q33 0 59 -14t39 -37l34 -33q25 -25 25 -59
q0 -31 -19.5 -54t-50.5 -32h125v-6l47 -47v-165h-45l45 -45v-161h-43l43 -43v-165h-522q-26 0 -52.5 13t-46.5 33l-28 27q-28 20 -46.5 48.5t-18.5 60.5v295q0 28 11.5 55.5t32 49.5t47.5 36t58 14h82zM591 709q0 34 -28 57.5t-70 23.5t-70 -23.5t-28 -57.5
q0 -35 28.5 -58.5t69.5 -23.5t69.5 23.5t28.5 58.5zM159 709q0 -35 28.5 -58.5t69.5 -23.5t69.5 23.5t28.5 58.5q0 34 -28 57.5t-70 23.5t-70 -23.5t-28 -57.5zM187 561q-28 0 -53 -12.5t-43.5 -33t-29.5 -46t-11 -51.5v-295q0 -24 12 -46t30.5 -39t41.5 -27.5t46 -10.5h513
v147h-342q-2 0 -10 8.5t-11 14.5q0 1 -0.5 3t-0.5 4t0.5 4t0.5 3q3 6 11 15t10 9h342v143h-335q-13 0 -21 10t-8 21q0 8 6 20t16 12h342v147h-506z" />
    <glyph glyph-name="FL00D0h" unicode="&#xd0;" horiz-adv-x="880" 
d="M111 561h609q20 0 40 -12.5t35.5 -32t25 -42.5t9.5 -43v-321q0 -18 -8.5 -37.5t-22.5 -35.5t-31 -26.5t-35 -10.5h-622v208h-61v143h61v210zM494 150q21 0 32 9t16.5 23t6.5 31t1 32v68q0 13 -1 29t-5.5 29.5t-13 22.5t-22.5 9h-117v-52h55v-143h-55v-58h103zM38 196h6
l47 -47h8v-161h6l47 -47h631q19 0 38 11.5t34 28.5t24.5 38t9.5 41v321q0 26 -14 54t-36 50l-26 26q-18 26 -42.5 44t-50.5 18h-621v-210h-61v-167zM505 310l-34 34h65q1 -8 1.5 -16t0.5 -15v-68q0 -12 -0.5 -25.5t-4 -25t-10 -20t-18.5 -11.5v147z" />
    <glyph glyph-name="FL00D1h" unicode="&#xd1;" 
d="M536 626h-111l-47 63l-45 -63h-169l127 166h111l47 -63l45 63h169zM496 391q-3 6 -6.5 14.5t-14.5 8.5h-146v-414h-279v561h596q22 0 45.5 -11t42 -28t30.5 -39.5t12 -44.5v-438h-280v391zM687 804h-198l-36 -50l-34 34l-12 16h-121l-146 -190h9l41 -41h-152v-585h6
l47 -47h297v414h96v-367h6l47 -47h298v447q0 23 -11.5 45.5t-29.5 40.5l-30 29q-21 30 -53.5 50t-64.5 20h-52l137 178l-48 48zM420 614h4l41 -41h-74z" />
    <glyph glyph-name="FL00D2h" unicode="&#xd2;" 
d="M388 159h87q2 0 5 5t5 10v181h-84q-6 -2 -9.5 -9.5t-3.5 -13.5v-173zM445 573q-6 3 -12 10l-35 35q-6 2 -10.5 6.5l-9.5 9.5l-47 55l-2 2q-6 8 -9 13.5t-3 19.5q0 38 31 68v-1q12 11 23 13t25 2q31 0 48 -22l8 -12l36 -35q3 -3 4 -5l36 -49l3 -3q8 -10 12.5 -18t4.5 -20
v-11q0 -14 -2.5 -23t-14.5 -21q-11 -10 -20 -14h128q38 0 69.5 -20t51.5 -50l27 -27q22 -22 35 -50.5t13 -57.5v-295q0 -26 -12.5 -49.5t-32.5 -42t-45 -29.5t-49 -11h-466q-26 0 -52.5 13t-46.5 33l-28 27q-28 20 -46.5 48.5t-18.5 60.5v295q0 28 11.5 55.5t32 49.5
t47.5 36t58 14h258zM435 777q-14 17 -39 17q-13 0 -23.5 -2.5t-21.5 -13.5q-12 -11 -17 -25t-5 -29q0 -11 4 -17.5t11 -14.5l43 -50q15 -18 40 -18t48 20q10 10 12 18t2 19v11q0 10 -4 17t-11 15zM329 382q0 8 5 19t15 13h126q11 0 16.5 -12t5.5 -20v-212q-3 -6 -9.5 -14.5
t-12.5 -8.5h-124q-13 0 -17 9t-5 14v212zM187 561q-28 0 -53 -12.5t-43.5 -33t-29.5 -46t-11 -51.5v-295q0 -24 12 -46t30.5 -39t41.5 -27.5t46 -10.5h466q23 0 46 10.5t42 27.5t30.5 39t11.5 46v295q0 26 -11 51.5t-29.5 46t-43.5 33t-53 12.5h-452z" />
    <glyph glyph-name="FL00D3h" unicode="&#xd3;" 
d="M388 159h87q2 0 5 5t5 10v181h-84q-6 -2 -9.5 -9.5t-3.5 -13.5v-173zM414 573q-9 4 -19 14l-37 36q-8 4 -15 12q-13 13 -15.5 22.5t-2.5 23.5v11q0 12 6 22t17 24l34 46q16 22 48 22q14 0 24.5 -2t23.5 -13v1q5 -6 10 -11.5t8 -11.5l37 -36q23 -24 23 -59q0 -13 -3 -18.5
t-8 -12.5l-7 -7h1l-43 -50l-7.5 -7.5t-7.5 -5.5h158q38 0 69.5 -20t51.5 -50l27 -27q22 -22 35 -50.5t13 -57.5v-295q0 -26 -12.5 -49.5t-32.5 -42t-45 -29.5t-49 -11h-466q-26 0 -52.5 13t-46.5 33l-28 27q-28 20 -46.5 48.5t-18.5 60.5v295q0 28 11.5 55.5t32 49.5
t47.5 36t58 14h227zM352 724q-7 -8 -11 -15t-4 -17v-11q0 -11 2 -19t12 -18q23 -20 48 -20t40 18l43 50q7 8 11 14.5t4 17.5q0 15 -5 29t-17 25q-11 11 -21.5 13.5t-23.5 2.5q-25 0 -39 -17zM329 382q0 8 5 19t15 13h126q11 0 16.5 -12t5.5 -20v-212q-3 -6 -9.5 -14.5
t-12.5 -8.5h-124q-13 0 -17 9t-5 14v212zM187 561q-28 0 -53 -12.5t-43.5 -33t-29.5 -46t-11 -51.5v-295q0 -24 12 -46t30.5 -39t41.5 -27.5t46 -10.5h466q23 0 46 10.5t42 27.5t30.5 39t11.5 46v295q0 26 -11 51.5t-29.5 46t-43.5 33t-53 12.5h-452z" />
    <glyph glyph-name="FL00D4h" unicode="&#xd4;" 
d="M425 573h74l-41 41h-4zM388 159h87q2 0 5 5t5 10v181h-84q-6 -2 -9.5 -9.5t-3.5 -13.5v-173zM224 573l-41 41h-9l146 190h187l13 -17l36 -36l140 -184h-19q26 -8 47 -25t36 -39l27 -27q22 -22 35 -50.5t13 -57.5v-295q0 -26 -12.5 -49.5t-32.5 -42t-45 -29.5t-49 -11
h-466q-26 0 -52.5 13t-46.5 33l-28 27q-28 20 -46.5 48.5t-18.5 60.5v295q0 28 11.5 55.5t32 49.5t47.5 36t58 14h37zM413 690l46 -64h169l-126 166h-177l-127 -166h169zM329 382q0 8 5 19t15 13h126q11 0 16.5 -12t5.5 -20v-212q-3 -6 -9.5 -14.5t-12.5 -8.5h-124
q-13 0 -17 9t-5 14v212zM187 561q-28 0 -53 -12.5t-43.5 -33t-29.5 -46t-11 -51.5v-295q0 -24 12 -46t30.5 -39t41.5 -27.5t46 -10.5h466q23 0 46 10.5t42 27.5t30.5 39t11.5 46v295q0 26 -11 51.5t-29.5 46t-43.5 33t-53 12.5h-452z" />
    <glyph glyph-name="FL00D5h" unicode="&#xd5;" 
d="M639 561q28 0 53 -12.5t43.5 -33t29.5 -46t11 -51.5v-295q0 -24 -11.5 -46t-30.5 -39t-42 -27.5t-46 -10.5h-466q-23 0 -46 10.5t-41.5 27.5t-30.5 39t-12 46v295q0 26 11 51.5t29.5 46t43.5 33t53 12.5h452zM536 626h-111l-47 63l-45 -63h-169l127 166h111l47 -63l45 63
h169zM329 170q1 -5 5 -14t17 -9h124q6 0 12.5 8.5t9.5 14.5v212q0 8 -5.5 20t-16.5 12h-126q-10 -2 -15 -13t-5 -19v-212zM639 573h-45l137 178l-48 48l4 5h-198l-36 -50l-34 34l-12 16h-121l-146 -190h9l41 -41h-3q-31 0 -58 -14t-47.5 -36t-32 -49.5t-11.5 -55.5v-295
q0 -32 18.5 -60.5t46.5 -48.5l28 -27q20 -20 46.5 -33t52.5 -13h466q24 0 49 11t45 29.5t32.5 42t12.5 49.5v295q0 29 -13 57.5t-35 50.5l-27 27q-20 30 -51.5 50t-69.5 20zM388 332q0 6 3.5 13.5t9.5 9.5h84v-181q-2 -5 -5 -10t-5 -5h-87v173zM420 614h4l41 -41h-74z" />
    <glyph glyph-name="FL00D6h" unicode="&#xd6;" 
d="M465 632l-15 12q-5 -26 -23.5 -44.5t-45.5 -26.5h162q-27 8 -44 26zM388 159h87q2 0 5 5t5 10v181h-84q-6 -2 -9.5 -9.5t-3.5 -13.5v-173zM307 573q-27 8 -44 26l-34 33q-20 13 -32 32.5t-12 44.5q0 19 8.5 36t23 30t34.5 20t44 7q33 0 59 -14t39 -37l29 -29
q6 35 35.5 57.5t73.5 22.5q33 0 59 -14t39 -37l34 -33q25 -25 25 -59q0 -31 -19.5 -54t-50.5 -32h21q38 0 69.5 -20t51.5 -50l27 -27q22 -22 35 -50.5t13 -57.5v-295q0 -26 -12.5 -49.5t-32.5 -42t-45 -29.5t-49 -11h-466q-26 0 -52.5 13t-46.5 33l-28 27q-28 20 -46.5 48.5
t-18.5 60.5v295q0 28 11.5 55.5t32 49.5t47.5 36t58 14h120zM629 709q0 34 -28 57.5t-70 23.5t-70 -23.5t-28 -57.5q0 -35 28.5 -58.5t69.5 -23.5t69.5 23.5t28.5 58.5zM197 709q0 -35 28.5 -58.5t69.5 -23.5t69.5 23.5t28.5 58.5q0 34 -28 57.5t-70 23.5t-70 -23.5
t-28 -57.5zM329 382q0 8 5 19t15 13h126q11 0 16.5 -12t5.5 -20v-212q-3 -6 -9.5 -14.5t-12.5 -8.5h-124q-13 0 -17 9t-5 14v212zM187 561q-28 0 -53 -12.5t-43.5 -33t-29.5 -46t-11 -51.5v-295q0 -24 12 -46t30.5 -39t41.5 -27.5t46 -10.5h466q23 0 46 10.5t42 27.5
t30.5 39t11.5 46v295q0 26 -11 51.5t-29.5 46t-43.5 33t-53 12.5h-452z" />
    <glyph glyph-name="FL00D7h" unicode="&#xd7;" horiz-adv-x="438" 
d="M388 211l-101 -101l-68 68l-68 -69l-101 101l68 69l-68 68l102 101l67 -68l68 67l101 -101l-67 -67zM404 346l-117 117l-68 -67l-67 68l-118 -117l68 -68l-68 -69l117 -117l2 2l48 -48l66 67l20 -20l2 2l48 -48l113 113l-48 48l2 2l-20 19l66 66l-48 48z" />
    <glyph glyph-name="FL00D8h" unicode="&#xd8;" 
d="M639 573q38 0 69.5 -20t51.5 -50l27 -27q22 -22 35 -50.5t13 -57.5v-295q0 -26 -12.5 -49.5t-32.5 -42t-45 -29.5t-49 -11h-466q-26 0 -52.5 13t-46.5 33l-28 27q-28 20 -46.5 48.5t-18.5 60.5v295q0 28 11.5 55.5t32 49.5t47.5 36t58 14h452zM329 296v86q0 8 5 19t15 13
h99zM497 170q-3 -6 -9.5 -14.5t-12.5 -8.5h-102l124 117v-94zM187 561q-28 0 -53 -12.5t-43.5 -33t-29.5 -46t-11 -51.5v-295q0 -24 12 -46t30.5 -39t41.5 -27.5t46 -10.5h466q23 0 46 10.5t42 27.5t30.5 39t11.5 46v295q0 26 -11 51.5t-29.5 46t-43.5 33t-53 12.5h-452z
" />
    <glyph glyph-name="FL00D9h" unicode="&#xd9;" 
d="M330 170q3 -6 6.5 -14.5t14.5 -8.5h146v414h279v-561h-596q-23 0 -46 11t-41.5 28t-30.5 39t-12 45v438h280v-391zM474 724q7 -8 11 -15t4 -17v-11q0 -11 -2 -19t-12 -18q-23 -20 -48 -20t-40 18l-43 50q-7 8 -11 14.5t-4 17.5q0 15 5 29t17 25q11 11 21.5 13.5t23.5 2.5
q25 0 39 -17zM342 573h-304v-450q0 -30 18.5 -58.5t46.5 -48.5l29 -29q20 -20 46 -33t52 -13h605v579l-47 47v6h-277q9 4 20 14q12 12 14.5 21t2.5 23v11q0 12 -4.5 20t-12.5 18l-3 3l-36 49q-1 2 -4 5l-36 35l-8 12q-17 22 -48 22q-14 0 -25 -2t-23 -13v1q-31 -30 -31 -68
q0 -14 3 -19.5t9 -13.5l2 -2l47 -55l9.5 -9.5t10.5 -6.5l35 -35q16 -18 44 -18h8v-406h-96v361l-47 47v6z" />
    <glyph glyph-name="FL00DAh" unicode="&#xda;" 
d="M330 170q3 -6 6.5 -14.5t14.5 -8.5h146v414h279v-561h-596q-23 0 -46 11t-41.5 28t-30.5 39t-12 45v438h280v-391zM391 777q14 17 39 17q13 0 23.5 -2.5t21.5 -13.5q12 -11 17 -25t5 -29q0 -11 -4 -17.5t-11 -14.5l-43 -50q-15 -18 -40 -18t-48 20q-10 10 -12 18t-2 19
v11q0 10 4 17t11 15zM342 573h-304v-450q0 -30 18.5 -58.5t46.5 -48.5l29 -29q20 -20 46 -33t52 -13h605v579l-47 47v6h-303v-414h-96v361l-47 47v6zM325 692v-11q0 -14 2.5 -23.5t15.5 -22.5q7 -8 15 -12l37 -36q25 -22 54 -22t47 21l43 50h-1l7 7q5 7 8 12.5t3 18.5
q0 35 -23 59l-37 36q-3 6 -8 11.5t-10 11.5v-1q-13 11 -23.5 13t-24.5 2q-32 0 -49 -22v-2l-33 -44q-11 -14 -17 -24t-6 -22z" />
    <glyph glyph-name="FL00DBh" unicode="&#xdb;" 
d="M330 170q3 -6 6.5 -14.5t14.5 -8.5h146v414h279v-561h-596q-23 0 -46 11t-41.5 28t-30.5 39t-12 45v438h280v-391zM325 792h177l126 -166h-169l-46 64l-46 -64h-169zM174 614h9l41 -41h-186v-450q0 -30 18.5 -58.5t46.5 -48.5l29 -29q20 -20 46 -33t52 -13h605v579
l-47 47v6h-98l-134 178l-36 36l-13 17h-187zM389 520l-47 47h79l33 47h4l41 -41h-14v-414h-96v361z" />
    <glyph glyph-name="FL00DCh" unicode="&#xdc;" 
d="M330 170q3 -6 6.5 -14.5t14.5 -8.5h146v414h279v-561h-596q-23 0 -46 11t-41.5 28t-30.5 39t-12 45v438h280v-391zM197 709q0 34 28 57.5t70 23.5t70 -23.5t28 -57.5q0 -35 -28.5 -58.5t-69.5 -23.5t-69.5 23.5t-28.5 58.5zM629 709q0 -35 -28.5 -58.5t-69.5 -23.5
t-69.5 23.5t-28.5 58.5q0 34 28 57.5t70 23.5t70 -23.5t28 -57.5zM185 709q0 -25 12 -44.5t32 -32.5l34 -33q17 -18 44 -26h-269v-450q0 -30 18.5 -58.5t46.5 -48.5l29 -29q20 -20 46 -33t52 -13h605v579l-47 47v6h-170q31 9 50.5 32t19.5 54q0 34 -25 59l-34 33
q-13 23 -39 37t-59 14q-44 0 -73.5 -22.5t-35.5 -57.5l-29 29q-13 23 -39 37t-59 14q-24 0 -44 -7t-34.5 -20t-23 -30t-8.5 -36zM389 520l-47 47v1h3q41 0 70 21t35 55l15 -12l34 -33q17 -18 44 -26h-58v-414h-96v361z" />
    <glyph glyph-name="FL00DDh" unicode="&#xdd;" horiz-adv-x="813" 
d="M379 777q14 17 39 17q13 0 23.5 -2.5t21.5 -13.5q12 -11 17 -25t5 -29q0 -11 -4 -17.5t-11 -14.5l-43 -50q-15 -18 -40 -18t-48 20q-10 10 -12 18t-2 19v11q0 10 4 17t11 15zM763 144q0 -30 -8 -56.5t-23 -46t-36 -30.5t-47 -11h-594v147h391q20 2 28 9.5t8 27.5v23h-302
q-23 0 -46 11t-41.5 28t-30.5 39t-12 45v231h280v-187q3 -5 6.5 -14.5t14.5 -9.5h112q6 0 11.5 8t7.5 14v189h281v-417zM775 573h-305v-200q-2 -4 -4 -7.5t-3 -3.5h-74v158l-47 47v6h-304v-243q0 -30 18.5 -58.5t46.5 -48.5l29 -29q21 -23 49 -35h-138v-171h6l47 -47h603
q28 0 50.5 12t38.5 32.5t25 48.5t9 60v426l-47 47v6zM313 692v-11q0 -14 2.5 -23.5t15.5 -22.5q7 -8 15 -12l37 -36q25 -22 54 -22t47 21l43 50h-1l7 7q5 7 8 12.5t3 18.5q0 35 -23 59l-37 36q-3 6 -8 11.5t-10 11.5v-1q-13 11 -23.5 13t-24.5 2q-32 0 -49 -22v-2l-33 -44
q-11 -14 -17 -24t-6 -22z" />
    <glyph glyph-name="FL00DEh" unicode="&#xde;" 
d="M485 310v0q0 1 -1 1l-14 15zM389 240h72q12 0 19.5 13t9.5 26h-101v-39zM38 573h304v-6l47 -47v-23h236q42 0 71.5 -18.5t48.5 -46.5l26 -26l-3 3l6 -5q16 -17 28 -37.5t19 -43t10.5 -44t3.5 -39.5q0 -39 -8.5 -78t-27 -70t-49 -50.5t-74.5 -19.5h-287v-81h-298l-47 47
h-6v585zM467 338q9 0 16 -6t11 -14.5t6 -17.5t2 -16q0 -8 -3 -18t-8 -18.5t-12.5 -14t-17.5 -5.5h-131v110h137zM50 0h280v81h296q42 0 70.5 18.5t46 48t25.5 67t8 75.5q0 27 -7.5 61t-25.5 63.5t-47 50t-71 20.5h-295v76h-280v-561z" />
    <glyph glyph-name="FL00DFh" unicode="&#xdf;" horiz-adv-x="765" 
d="M389 159h17h4l-21 22v-22zM44 -150h-6v723h525q43 0 74.5 -20.5t52.5 -50.5l23 -22l4 -4q28 -28 42 -65t14 -70q0 -28 -8.5 -57.5t-27.5 -49.5q21 -23 29 -52.5t8 -61.5q0 -30 -8 -61.5t-27 -57.5t-49.5 -43t-75.5 -17h-196l-29 29v-167h-298zM377 350v-139h28
q21 0 28.5 -7t7.5 -23q0 -14 -8 -24t-27 -10h-29v-147h187q42 0 71 16t47 41t25.5 55t7.5 58q0 32 -8.5 63t-32.5 52q22 17 31 47.5t9 58.5q0 27 -10 57t-29 55t-47 41.5t-65 16.5h-513v-699h280v552h75q19 0 27 -10t8 -24q0 -17 -7.5 -23.5t-28.5 -6.5h-27z" />
    <glyph glyph-name="FL00E0h" unicode="&#xe0;" horiz-adv-x="964" 
d="M693 772l36 -35q3 -3 4 -5l36 -49l3 -3q8 -10 12.5 -18t4.5 -20v-11q0 -14 -2.5 -23t-14.5 -21q-11 -10 -20 -14h174v-6l47 -47v-579h-297l-47 47h-6v229l-204 -277h-350l-47 47h-9l404 526q4 6 13.5 16t21.5 20t25 17t25 7h184q-6 3 -12 10l-35 35q-6 2 -10.5 6.5
l-9.5 9.5l-47 55l-2 2q-6 8 -9 13.5t-3 19.5q0 38 31 68v-1q12 11 23 13t25 2q31 0 48 -22zM676 777q-14 17 -39 17q-13 0 -23.5 -2.5t-21.5 -13.5q-12 -11 -17 -25t-5 -29q0 -11 4 -17.5t11 -14.5l43 -50q15 -18 40 -18t48 20q10 10 12 18t2 19v11q0 10 -4 17t-11 15z
M365 -1l246 334q3 5 5 7t7 2q3 -2 7.5 -4t4.5 -3v-335h279v561h-412q-10 0 -22 -6.5t-22.5 -15.5t-19 -18t-12.5 -15l-389 -507h328z" />
    <glyph glyph-name="FL00E1h" unicode="&#xe1;" horiz-adv-x="964" 
d="M587 692q0 12 6 22t17 24l34 46q16 22 48 22q14 0 24.5 -2t23.5 -13v1q5 -6 10 -11.5t8 -11.5l37 -36q23 -24 23 -59q0 -13 -3 -18.5t-8 -12.5l-7 -7h1l-43 -50l-7.5 -7.5t-7.5 -5.5h183v-6l47 -47v-579h-297l-47 47h-6v229l-204 -277h-350l-47 47h-9l404 526
q4 6 13.5 16t21.5 20t25 17t25 7h174q-9 4 -19 14l-37 36q-8 4 -15 12q-13 13 -15.5 22.5t-2.5 23.5v11zM614 724q-7 -8 -11 -15t-4 -17v-11q0 -11 2 -19t12 -18q23 -20 48 -20t40 18l43 50q7 8 11 14.5t4 17.5q0 15 -5 29t-17 25q-11 11 -21.5 13.5t-23.5 2.5
q-25 0 -39 -17zM365 -1l246 334q3 5 5 7t7 2q3 -2 7.5 -4t4.5 -3v-335h279v561h-412q-10 0 -22 -6.5t-22.5 -15.5t-19 -18t-12.5 -15l-389 -507h328z" />
    <glyph glyph-name="FL00E2h" unicode="&#xe2;" horiz-adv-x="964" 
d="M680 573h74l-41 41h-4zM22 -13h-9l404 526q3 5 10 12.5t16 16t19 15.5t21 12l-45 45h-9l146 190h187l13 -17l36 -36l140 -184h-25l47 -47v-579h-297l-47 47h-6v229l-204 -277h-350zM668 690l46 -64h169l-126 166h-177l-127 -166h169zM365 -1l246 334q3 5 5 7t7 2
q3 -2 7.5 -4t4.5 -3v-335h279v561h-412q-10 0 -22 -6.5t-22.5 -15.5t-19 -18t-12.5 -15l-389 -507h328z" />
    <glyph glyph-name="FL00E3h" unicode="&#xe3;" horiz-adv-x="964" 
d="M761 626h-111l-47 63l-45 -63h-169l127 166h111l47 -63l45 63h169zM426 506q4 6 12.5 15t19 18t22.5 15.5t22 6.5h412v-561h-279v335q0 1 -4.5 3t-7.5 4q-5 0 -7 -2t-5 -7l-246 -334h-328zM912 804h-198l-36 -50l-34 34l-12 16h-121l-146 -190h9l47 -47h58
q-20 -10 -38 -27.5t-24 -26.5l-404 -526h9l47 -47h350l204 277v-229h6l47 -47h297v579l-47 47v6h-107l137 178l-48 48zM645 614h4l41 -41h-74z" />
    <glyph glyph-name="FL00E4h" unicode="&#xe4;" horiz-adv-x="964" 
d="M734 632l-15 12q-5 -26 -23.5 -44.5t-45.5 -26.5h162q-27 8 -44 26zM454 709q0 19 8.5 36t23 30t34.5 20t44 7q33 0 59 -14t39 -37l29 -29q6 35 35.5 57.5t73.5 22.5q33 0 59 -14t39 -37l34 -33q25 -25 25 -59q0 -31 -19.5 -54t-50.5 -32h39v-6l47 -47v-579h-297l-47 47
h-6v229l-204 -277h-350l-47 47h-9l404 526q4 6 13.5 16t21.5 20t25 17t25 7h74q-27 8 -44 26l-34 33q-20 13 -32 32.5t-12 44.5zM898 709q0 34 -28 57.5t-70 23.5t-70 -23.5t-28 -57.5q0 -35 28.5 -58.5t69.5 -23.5t69.5 23.5t28.5 58.5zM466 709q0 -35 28.5 -58.5
t69.5 -23.5t69.5 23.5t28.5 58.5q0 34 -28 57.5t-70 23.5t-70 -23.5t-28 -57.5zM365 -1l246 334q3 5 5 7t7 2q3 -2 7.5 -4t4.5 -3v-335h279v561h-412q-10 0 -22 -6.5t-22.5 -15.5t-19 -18t-12.5 -15l-389 -507h328z" />
    <glyph glyph-name="FL00E5h" unicode="&#xe5;" horiz-adv-x="964" 
d="M637 709q0 -9 10 -15.5t24 -6.5t24 6.5t10 15.5t-10 15t-24 6t-24 -6t-10 -15zM574 709q0 34 28 57.5t70 23.5t70 -23.5t28 -57.5q0 -35 -28.5 -58.5t-69.5 -23.5t-69.5 23.5t-28.5 58.5zM426 506q4 6 12.5 15t19 18t22.5 15.5t22 6.5h412v-561h-279v335q0 1 -4.5 3
t-7.5 4q-5 0 -7 -2t-5 -7l-246 -334h-328zM562 709q0 -25 12 -44.5t32 -32.5l34 -33q17 -18 44 -26h-182q-12 0 -25 -7t-25 -17t-21.5 -20t-13.5 -16l-404 -526h9l47 -47h350l204 277v-229h6l47 -47h297v579l-47 47v6h-167q31 9 50.5 32t19.5 54q0 34 -25 59l-34 33
q-13 23 -39 37t-59 14q-24 0 -44 -7t-34.5 -20t-23 -30t-8.5 -36z" />
    <glyph glyph-name="FL00E6h" unicode="&#xe6;" horiz-adv-x="1331" 
d="M985 110q1 -3 3 -3zM22 -13h-9l404 526q4 6 13.5 16t21.5 20t25 17t25 7h791v-6l47 -47v-165h-45l45 -45v-161h-43l43 -43v-165h-664l-47 47h-6v229l-204 -277h-350zM365 -1l246 334q3 5 5 7t7 2q3 -2 7.5 -4t4.5 -3v-335h646v147h-342q-2 0 -10 8.5t-11 14.5q0 1 -0.5 3
t-0.5 4t0.5 4t0.5 3q3 6 11 15t10 9h342v143h-335q-13 0 -21 10t-8 21q0 8 6 20t16 12h342v147h-779q-10 0 -22 -6.5t-22.5 -15.5t-19 -18t-12.5 -15l-389 -507h328z" />
    <glyph glyph-name="FL00E7h" unicode="&#xe7;" horiz-adv-x="743" 
d="M389 159h310v-6l47 -47v-165h-197v-157h-234l-47 47h-6v110h-32q-26 0 -52.5 13t-46.5 33l-28 27q-28 20 -46.5 48.5t-18.5 60.5v295q0 28 11.5 55.5t32 49.5t47.5 36t58 14h518v-6l47 -47v-165h-351q-5 0 -8.5 -7.5t-3.5 -13.5v-175zM490 0h197v147h-336q-8 0 -14 6.5
t-7 16.5v214q0 8 5.5 19t15.5 11h342v147h-506q-28 0 -53 -12.5t-43.5 -33t-29.5 -46t-11 -51.5v-295q0 -24 12 -46t30.5 -39t41.5 -27.5t46 -10.5h177v-42h-83v-115h216v157z" />
    <glyph glyph-name="FL00E8h" unicode="&#xe8;" horiz-adv-x="743" 
d="M397 110q1 -3 3 -3zM402 573q-6 3 -12 10l-35 35q-6 2 -10.5 6.5l-9.5 9.5l-47 55l-2 2q-6 8 -9 13.5t-3 19.5q0 38 31 68v-1q12 11 23 13t25 2q31 0 48 -22l8 -12l36 -35q3 -3 4 -5l36 -49l3 -3q8 -10 12.5 -18t4.5 -20v-11q0 -14 -2.5 -23t-14.5 -21q-11 -10 -20 -14
h237v-6l47 -47v-165h-45l45 -45v-161h-43l43 -43v-165h-522q-26 0 -52.5 13t-46.5 33l-28 27q-28 20 -46.5 48.5t-18.5 60.5v295q0 28 11.5 55.5t32 49.5t47.5 36t58 14h215zM392 777q-14 17 -39 17q-13 0 -23.5 -2.5t-21.5 -13.5q-12 -11 -17 -25t-5 -29q0 -11 4 -17.5
t11 -14.5l43 -50q15 -18 40 -18t48 20q10 10 12 18t2 19v11q0 10 -4 17t-11 15zM187 561q-28 0 -53 -12.5t-43.5 -33t-29.5 -46t-11 -51.5v-295q0 -24 12 -46t30.5 -39t41.5 -27.5t46 -10.5h513v147h-342q-2 0 -10 8.5t-11 14.5q0 1 -0.5 3t-0.5 4t0.5 4t0.5 3q3 6 11 15
t10 9h342v143h-335q-13 0 -21 10t-8 21q0 8 6 20t16 12h342v147h-506z" />
    <glyph glyph-name="FL00E9h" unicode="&#xe9;" horiz-adv-x="743" 
d="M397 110q1 -3 3 -3zM406 573q-9 4 -19 14l-37 36q-8 4 -15 12q-13 13 -15.5 22.5t-2.5 23.5v11q0 12 6 22t17 24l34 46q16 22 48 22q14 0 24.5 -2t23.5 -13v1q5 -6 10 -11.5t8 -11.5l37 -36q23 -24 23 -59q0 -13 -3 -18.5t-8 -12.5l-7 -7h1l-43 -50l-7.5 -7.5t-7.5 -5.5
h232v-6l47 -47v-165h-45l45 -45v-161h-43l43 -43v-165h-522q-26 0 -52.5 13t-46.5 33l-28 27q-28 20 -46.5 48.5t-18.5 60.5v295q0 28 11.5 55.5t32 49.5t47.5 36t58 14h219zM344 724q-7 -8 -11 -15t-4 -17v-11q0 -11 2 -19t12 -18q23 -20 48 -20t40 18l43 50q7 8 11 14.5
t4 17.5q0 15 -5 29t-17 25q-11 11 -21.5 13.5t-23.5 2.5q-25 0 -39 -17zM187 561q-28 0 -53 -12.5t-43.5 -33t-29.5 -46t-11 -51.5v-295q0 -24 12 -46t30.5 -39t41.5 -27.5t46 -10.5h513v147h-342q-2 0 -10 8.5t-11 14.5q0 1 -0.5 3t-0.5 4t0.5 4t0.5 3q3 6 11 15t10 9h342
v143h-335q-13 0 -21 10t-8 21q0 8 6 20t16 12h342v147h-506z" />
    <glyph glyph-name="FL00EAh" unicode="&#xea;" horiz-adv-x="743" 
d="M397 110q1 -3 3 -3zM387 573h74l-41 41h-4zM103 14q-28 20 -46.5 48.5t-18.5 60.5v295q0 27 11.5 54.5t31.5 50t47 36.5t58 14l-41 41h-9l146 190h187l13 -17l36 -36l134 -178h53v-6l47 -47v-165h-45l45 -45v-161h-43l43 -43v-165h-522q-26 0 -52.5 13t-46.5 33zM375 690
l46 -64h169l-126 166h-177l-127 -166h169zM187 561q-28 0 -53 -12.5t-43.5 -33t-29.5 -46t-11 -51.5v-295q0 -24 12 -46t30.5 -39t41.5 -27.5t46 -10.5h513v147h-342q-2 0 -10 8.5t-11 14.5q0 1 -0.5 3t-0.5 4t0.5 4t0.5 3q3 6 11 15t10 9h342v143h-335q-13 0 -21 10t-8 21
q0 8 6 20t16 12h342v147h-506z" />
    <glyph glyph-name="FL00EBh" unicode="&#xeb;" horiz-adv-x="743" 
d="M427 632l-15 12q-5 -26 -23.5 -44.5t-45.5 -26.5h162q-27 8 -44 26zM269 573q-27 8 -44 26l-34 33q-20 13 -32 32.5t-12 44.5q0 19 8.5 36t23 30t34.5 20t44 7q33 0 59 -14t39 -37l29 -29q6 35 35.5 57.5t73.5 22.5q33 0 59 -14t39 -37l34 -33q25 -25 25 -59
q0 -31 -19.5 -54t-50.5 -32h125v-6l47 -47v-165h-45l45 -45v-161h-43l43 -43v-165h-522q-26 0 -52.5 13t-46.5 33l-28 27q-28 20 -46.5 48.5t-18.5 60.5v295q0 28 11.5 55.5t32 49.5t47.5 36t58 14h82zM591 709q0 34 -28 57.5t-70 23.5t-70 -23.5t-28 -57.5
q0 -35 28.5 -58.5t69.5 -23.5t69.5 23.5t28.5 58.5zM159 709q0 -35 28.5 -58.5t69.5 -23.5t69.5 23.5t28.5 58.5q0 34 -28 57.5t-70 23.5t-70 -23.5t-28 -57.5zM187 561q-28 0 -53 -12.5t-43.5 -33t-29.5 -46t-11 -51.5v-295q0 -24 12 -46t30.5 -39t41.5 -27.5t46 -10.5h513
v147h-342q-2 0 -10 8.5t-11 14.5q0 1 -0.5 3t-0.5 4t0.5 4t0.5 3q3 6 11 15t10 9h342v143h-335q-13 0 -21 10t-8 21q0 8 6 20t16 12h342v147h-506z" />
    <glyph glyph-name="FL00ECh" unicode="&#xec;" horiz-adv-x="380" 
d="M230 772l36 -35q3 -3 4 -5l36 -49l3 -3q8 -10 12.5 -18t4.5 -20v-11q0 -14 -2.5 -23t-14.5 -21q-11 -10 -20 -14h53v-6l47 -47v-579h-298l-47 47h-6v585h185q-6 3 -12 10l-35 35q-6 2 -10.5 6.5l-9.5 9.5l-47 55l-2 2q-6 8 -9 13.5t-3 19.5q0 38 31 68v-1q12 11 23 13
t25 2q31 0 48 -22zM50 0h280v561h-280v-561zM213 777q-14 17 -39 17q-13 0 -23.5 -2.5t-21.5 -13.5q-12 -11 -17 -25t-5 -29q0 -11 4 -17.5t11 -14.5l43 -50q15 -18 40 -18t48 20q10 10 12 18t2 19v11q0 10 -4 17t-11 15z" />
    <glyph glyph-name="FL00EDh" unicode="&#xed;" horiz-adv-x="380" 
d="M38 573h152q-9 4 -19 14l-36 36q-8 4 -16 12q-13 13 -15.5 22.5t-2.5 23.5v11q0 12 6 22t17 24l34 46q16 22 48 22q14 0 24.5 -2t23.5 -13v1q5 -6 10 -11.5t8 -11.5l37 -36q23 -24 23 -59q0 -13 -3 -18.5t-8 -12.5l-7 -7h1l-43 -50l-7.5 -7.5t-7.5 -5.5h85v-6l47 -47
v-579h-298l-47 47h-6v585zM128 724q-7 -8 -11 -15t-4 -17v-11q0 -11 2 -19t12 -18q23 -20 48 -20t40 18l43 50q7 8 11 14.5t4 17.5q0 15 -5 29t-17 25q-11 11 -21.5 13.5t-23.5 2.5q-25 0 -39 -17zM50 0h280v561h-280v-561z" />
    <glyph glyph-name="FL00EEh" unicode="&#xee;" horiz-adv-x="380" 
d="M200 573h74l-41 41h-4zM38 567h-33l-47 47h-9l146 190h187l13 -17l36 -36l140 -184h-129l47 -47v-579h-298l-47 47h-6v579zM188 690l46 -64h169l-126 166h-177l-127 -166h169zM50 0h280v561h-280v-561z" />
    <glyph glyph-name="FL00EFh" unicode="&#xef;" horiz-adv-x="380" 
d="M183 706l19 -20q0 1 -1 1v0zM243 632l-15 12q-5 -26 -23.5 -44.5t-45.5 -26.5h162q-27 8 -44 26zM38 573h47q-27 8 -44 26l-33 33q-20 13 -32.5 32.5t-12.5 44.5q0 19 8.5 36t23 30t34.5 20t44 7q33 0 59 -14t39 -37l29 -29q6 35 35.5 57.5t73.5 22.5q33 0 59 -14t39 -37
l34 -33q25 -25 25 -59q0 -39 -31 -65t-76 -26h-17v-2l47 -46v-579h-298l-47 47h-6v585zM407 709q0 34 -28 57.5t-70 23.5t-70 -23.5t-28 -57.5q0 -35 28.5 -58.5t69.5 -23.5t69.5 23.5t28.5 58.5zM-25 709q0 -35 28.5 -58.5t69.5 -23.5t69.5 23.5t28.5 58.5q0 34 -28 57.5
t-70 23.5t-70 -23.5t-28 -57.5zM50 0h280v561h-280v-561z" />
    <glyph glyph-name="FL0047h" unicode="&#xf0;" 
d="M50 253q0 21 12.5 40.5t32 34t42.5 23t43 8.5h316v23h2l-2 2q0 8 -5.5 19t-15.5 11h-422v147h586q28 0 52.5 -12.5t43.5 -33t30 -46t11 -51.5v-295q0 -23 -12 -45t-30.5 -39t-42 -28t-45.5 -11h-466q-23 0 -46 10.5t-42 27.5t-30.5 39t-11.5 46v130zM475 147
q11 0 14.5 8.5t6.5 14.5v41h-167v-41q3 -6 8.5 -14.5t13.5 -8.5h124zM38 253v-130q0 -32 18 -60t45 -48l30 -29q20 -20 46.5 -32.5t52.5 -12.5h466q24 0 48.5 11.5t45 30.5t33 42.5t12.5 47.5v295q0 29 -13 57.5t-35 50.5l-27 27q-21 30 -52.5 50t-68.5 20h-598v-171h6
l47 -47h23q-32 -16 -55.5 -43t-23.5 -59z" />
    <glyph glyph-name="FL00F1h" unicode="&#xf1;" horiz-adv-x="988" 
d="M629 626h-111l-47 63l-45 -63h-169l127 166h111l47 -63l45 63h169zM938 0h-340q-23 0 -43.5 10t-38 25t-32 33.5t-26.5 35.5l-128 175v-279h-280v561h365q16 0 34.5 -11t35.5 -26.5t31 -33t22 -30.5l119 -185v286h281v-561zM950 573h-263l137 178l-48 48l4 5h-198
l-36 -50l-34 34l-12 16h-121l-146 -190h9l41 -41h-245v-585h6l47 -47h298v238l60 -82q14 -21 32.5 -43.5t41.5 -39.5l26 -25q20 -20 45 -34t54 -14h349v579l-47 47v6zM480 567l33 47h4l47 -47h81v-229l-49 77q-7 11 -19 26.5t-27 29.5l-11 11q-8 11 -19.5 23.5t-24 24.5
t-26.5 21.5t-28 15.5h39z" />
    <glyph glyph-name="FL00F2h" unicode="&#xf2;" 
d="M388 159h87q2 0 5 5t5 10v181h-84q-6 -2 -9.5 -9.5t-3.5 -13.5v-173zM445 573q-6 3 -12 10l-35 35q-6 2 -10.5 6.5l-9.5 9.5l-47 55l-2 2q-6 8 -9 13.5t-3 19.5q0 38 31 68v-1q12 11 23 13t25 2q31 0 48 -22l8 -12l36 -35q3 -3 4 -5l36 -49l3 -3q8 -10 12.5 -18t4.5 -20
v-11q0 -14 -2.5 -23t-14.5 -21q-11 -10 -20 -14h128q38 0 69.5 -20t51.5 -50l27 -27q22 -22 35 -50.5t13 -57.5v-295q0 -26 -12.5 -49.5t-32.5 -42t-45 -29.5t-49 -11h-466q-26 0 -52.5 13t-46.5 33l-28 27q-28 20 -46.5 48.5t-18.5 60.5v295q0 28 11.5 55.5t32 49.5
t47.5 36t58 14h258zM435 777q-14 17 -39 17q-13 0 -23.5 -2.5t-21.5 -13.5q-12 -11 -17 -25t-5 -29q0 -11 4 -17.5t11 -14.5l43 -50q15 -18 40 -18t48 20q10 10 12 18t2 19v11q0 10 -4 17t-11 15zM329 382q0 8 5 19t15 13h126q11 0 16.5 -12t5.5 -20v-212q-3 -6 -9.5 -14.5
t-12.5 -8.5h-124q-13 0 -17 9t-5 14v212zM187 561q-28 0 -53 -12.5t-43.5 -33t-29.5 -46t-11 -51.5v-295q0 -24 12 -46t30.5 -39t41.5 -27.5t46 -10.5h466q23 0 46 10.5t42 27.5t30.5 39t11.5 46v295q0 26 -11 51.5t-29.5 46t-43.5 33t-53 12.5h-452z" />
    <glyph glyph-name="FL00F3h" unicode="&#xf3;" 
d="M388 159h87q2 0 5 5t5 10v181h-84q-6 -2 -9.5 -9.5t-3.5 -13.5v-173zM414 573q-9 4 -19 14l-37 36q-8 4 -15 12q-13 13 -15.5 22.5t-2.5 23.5v11q0 12 6 22t17 24l34 46q16 22 48 22q14 0 24.5 -2t23.5 -13v1q5 -6 10 -11.5t8 -11.5l37 -36q23 -24 23 -59q0 -13 -3 -18.5
t-8 -12.5l-7 -7h1l-43 -50l-7.5 -7.5t-7.5 -5.5h158q38 0 69.5 -20t51.5 -50l27 -27q22 -22 35 -50.5t13 -57.5v-295q0 -26 -12.5 -49.5t-32.5 -42t-45 -29.5t-49 -11h-466q-26 0 -52.5 13t-46.5 33l-28 27q-28 20 -46.5 48.5t-18.5 60.5v295q0 28 11.5 55.5t32 49.5
t47.5 36t58 14h227zM352 724q-7 -8 -11 -15t-4 -17v-11q0 -11 2 -19t12 -18q23 -20 48 -20t40 18l43 50q7 8 11 14.5t4 17.5q0 15 -5 29t-17 25q-11 11 -21.5 13.5t-23.5 2.5q-25 0 -39 -17zM329 382q0 8 5 19t15 13h126q11 0 16.5 -12t5.5 -20v-212q-3 -6 -9.5 -14.5
t-12.5 -8.5h-124q-13 0 -17 9t-5 14v212zM187 561q-28 0 -53 -12.5t-43.5 -33t-29.5 -46t-11 -51.5v-295q0 -24 12 -46t30.5 -39t41.5 -27.5t46 -10.5h466q23 0 46 10.5t42 27.5t30.5 39t11.5 46v295q0 26 -11 51.5t-29.5 46t-43.5 33t-53 12.5h-452z" />
    <glyph glyph-name="FL00F4h" unicode="&#xf4;" 
d="M425 573h74l-41 41h-4zM388 159h87q2 0 5 5t5 10v181h-84q-6 -2 -9.5 -9.5t-3.5 -13.5v-173zM224 573l-41 41h-9l146 190h187l13 -17l36 -36l140 -184h-19q26 -8 47 -25t36 -39l27 -27q22 -22 35 -50.5t13 -57.5v-295q0 -26 -12.5 -49.5t-32.5 -42t-45 -29.5t-49 -11
h-466q-26 0 -52.5 13t-46.5 33l-28 27q-28 20 -46.5 48.5t-18.5 60.5v295q0 28 11.5 55.5t32 49.5t47.5 36t58 14h37zM413 690l46 -64h169l-126 166h-177l-127 -166h169zM329 382q0 8 5 19t15 13h126q11 0 16.5 -12t5.5 -20v-212q-3 -6 -9.5 -14.5t-12.5 -8.5h-124
q-13 0 -17 9t-5 14v212zM187 561q-28 0 -53 -12.5t-43.5 -33t-29.5 -46t-11 -51.5v-295q0 -24 12 -46t30.5 -39t41.5 -27.5t46 -10.5h466q23 0 46 10.5t42 27.5t30.5 39t11.5 46v295q0 26 -11 51.5t-29.5 46t-43.5 33t-53 12.5h-452z" />
    <glyph glyph-name="FL00F5h" unicode="&#xf5;" 
d="M639 561q28 0 53 -12.5t43.5 -33t29.5 -46t11 -51.5v-295q0 -24 -11.5 -46t-30.5 -39t-42 -27.5t-46 -10.5h-466q-23 0 -46 10.5t-41.5 27.5t-30.5 39t-12 46v295q0 26 11 51.5t29.5 46t43.5 33t53 12.5h452zM536 626h-111l-47 63l-45 -63h-169l127 166h111l47 -63l45 63
h169zM329 170q1 -5 5 -14t17 -9h124q6 0 12.5 8.5t9.5 14.5v212q0 8 -5.5 20t-16.5 12h-126q-10 -2 -15 -13t-5 -19v-212zM639 573h-45l137 178l-48 48l4 5h-198l-36 -50l-34 34l-12 16h-121l-146 -190h9l41 -41h-3q-31 0 -58 -14t-47.5 -36t-32 -49.5t-11.5 -55.5v-295
q0 -32 18.5 -60.5t46.5 -48.5l28 -27q20 -20 46.5 -33t52.5 -13h466q24 0 49 11t45 29.5t32.5 42t12.5 49.5v295q0 29 -13 57.5t-35 50.5l-27 27q-20 30 -51.5 50t-69.5 20zM388 332q0 6 3.5 13.5t9.5 9.5h84v-181q-2 -5 -5 -10t-5 -5h-87v173zM420 614h4l41 -41h-74z" />
    <glyph glyph-name="FL00F6h" unicode="&#xf6;" 
d="M465 632l-15 12q-5 -26 -23.5 -44.5t-45.5 -26.5h162q-27 8 -44 26zM388 159h87q2 0 5 5t5 10v181h-84q-6 -2 -9.5 -9.5t-3.5 -13.5v-173zM307 573q-27 8 -44 26l-34 33q-20 13 -32 32.5t-12 44.5q0 19 8.5 36t23 30t34.5 20t44 7q33 0 59 -14t39 -37l29 -29
q6 35 35.5 57.5t73.5 22.5q33 0 59 -14t39 -37l34 -33q25 -25 25 -59q0 -31 -19.5 -54t-50.5 -32h21q38 0 69.5 -20t51.5 -50l27 -27q22 -22 35 -50.5t13 -57.5v-295q0 -26 -12.5 -49.5t-32.5 -42t-45 -29.5t-49 -11h-466q-26 0 -52.5 13t-46.5 33l-28 27q-28 20 -46.5 48.5
t-18.5 60.5v295q0 28 11.5 55.5t32 49.5t47.5 36t58 14h120zM629 709q0 34 -28 57.5t-70 23.5t-70 -23.5t-28 -57.5q0 -35 28.5 -58.5t69.5 -23.5t69.5 23.5t28.5 58.5zM197 709q0 -35 28.5 -58.5t69.5 -23.5t69.5 23.5t28.5 58.5q0 34 -28 57.5t-70 23.5t-70 -23.5
t-28 -57.5zM329 382q0 8 5 19t15 13h126q11 0 16.5 -12t5.5 -20v-212q-3 -6 -9.5 -14.5t-12.5 -8.5h-124q-13 0 -17 9t-5 14v212zM187 561q-28 0 -53 -12.5t-43.5 -33t-29.5 -46t-11 -51.5v-295q0 -24 12 -46t30.5 -39t41.5 -27.5t46 -10.5h466q23 0 46 10.5t42 27.5
t30.5 39t11.5 46v295q0 26 -11 51.5t-29.5 46t-43.5 33t-53 12.5h-452z" />
    <glyph glyph-name="FL00F7h" unicode="&#xf7;" horiz-adv-x="497" 
d="M160 463q0 36 26.5 60.5t64.5 24.5q26 0 47.5 -12.5t32.5 -32.5l35 -34q11 -11 17 -25t6 -31q0 -29 -18 -50h88v-6l47 -47v-161h-178l3 -6l35 -34q11 -11 17 -25t6 -31q0 -35 -25.5 -59t-62.5 -24q-38 0 -64 26l-34 33q-20 11 -31.5 30.5t-11.5 43.5q0 26 14 46h-83
l-47 47h-6v167h192l-27 26q-20 11 -31.5 30.5t-11.5 43.5zM172 103q0 -31 23 -52.5t56 -21.5t56 21.5t23 52.5t-23 52t-56 21t-56 -21t-23 -52zM172 463q0 -31 23 -52.5t56 -21.5t56 21.5t23 52.5t-23 52t-56 21t-56 -21t-23 -52zM447 208v143h-397v-143h397z" />
    <glyph glyph-name="FL00F8h" unicode="&#xf8;" 
d="M639 573q38 0 69.5 -20t51.5 -50l27 -27q22 -22 35 -50.5t13 -57.5v-295q0 -26 -12.5 -49.5t-32.5 -42t-45 -29.5t-49 -11h-466q-26 0 -52.5 13t-46.5 33l-28 27q-28 20 -46.5 48.5t-18.5 60.5v295q0 28 11.5 55.5t32 49.5t47.5 36t58 14h452zM329 296v86q0 8 5 19t15 13
h99zM497 170q-3 -6 -9.5 -14.5t-12.5 -8.5h-102l124 117v-94zM187 561q-28 0 -53 -12.5t-43.5 -33t-29.5 -46t-11 -51.5v-295q0 -24 12 -46t30.5 -39t41.5 -27.5t46 -10.5h466q23 0 46 10.5t42 27.5t30.5 39t11.5 46v295q0 26 -11 51.5t-29.5 46t-43.5 33t-53 12.5h-452z
" />
    <glyph glyph-name="FL00F9h" unicode="&#xf9;" 
d="M452 772l36 -35q3 -3 4 -5l36 -49l3 -3q8 -10 12.5 -18t4.5 -20v-11q0 -14 -2.5 -23t-14.5 -21q-11 -10 -20 -14h277v-6l47 -47v-447q0 -24 -12.5 -47.5t-33 -42.5t-45 -30.5t-48.5 -11.5h-466q-26 0 -52.5 12.5t-46.5 32.5l-30 29q-27 20 -45 48t-18 60v450h303v-6
l47 -47v-361h87q4 0 8 11q-2 0 1 3v392h-7q-28 0 -44 18l-35 35q-6 2 -10.5 6.5l-9.5 9.5l-47 55l-2 2q-6 8 -9 13.5t-3 19.5q0 38 31 68v-1q12 11 23 13t25 2q31 0 48 -22zM496 170q-3 -6 -6.5 -14.5t-14.5 -8.5h-124q-8 0 -13.5 8.5t-8.5 14.5v391h-279v-438
q0 -24 11.5 -46t30.5 -39t42 -27.5t46 -10.5h466q22 0 45.5 11t42 28t30.5 39t12 45v438h-280v-391zM435 777q-14 17 -39 17q-13 0 -23.5 -2.5t-21.5 -13.5q-12 -11 -17 -25t-5 -29q0 -11 4 -17.5t11 -14.5l43 -50q15 -18 40 -18t48 20q10 10 12 18t2 19v11q0 10 -4 17
t-11 15z" />
    <glyph glyph-name="FL00FAh" unicode="&#xfa;" 
d="M325 692q0 12 6 22t17 24l34 46q16 22 48 22q14 0 24.5 -2t23.5 -13v1q5 -6 10 -11.5t8 -11.5l37 -36q23 -24 23 -59q0 -13 -3 -18.5t-8 -12.5l-7 -7h1l-43 -50q-18 -21 -47 -21t-54 22l-37 36q-8 4 -15 12q-13 13 -15.5 22.5t-2.5 23.5v11zM342 573v-6l47 -47v-361h86
q2 0 5 5t5 10v399h303v-6l47 -47v-447q0 -26 -12.5 -49.5t-32.5 -42t-45 -29.5t-49 -11h-466q-26 0 -52 13t-46 33l-29 29q-28 20 -46.5 48.5t-18.5 58.5v450h304zM352 724q-7 -8 -11 -15t-4 -17v-11q0 -11 2 -19t12 -18q23 -20 48 -20t40 18l43 50q7 8 11 14.5t4 17.5
q0 15 -5 29t-17 25q-11 11 -21.5 13.5t-23.5 2.5q-25 0 -39 -17zM50 561v-438q0 -23 12 -45t30.5 -39t41.5 -28t46 -11h466q23 0 46 10.5t42 27.5t30.5 39t11.5 46v438h-279v-391q-3 -6 -8.5 -14.5t-13.5 -8.5h-124q-11 0 -14.5 8.5t-6.5 14.5v391h-280z" />
    <glyph glyph-name="FL00FBh" unicode="&#xfb;" 
d="M389 159h86q2 0 5 5t5 10v399h14l-41 41h-4l-33 -47h-79l47 -47v-361zM224 573l-41 41h-9l146 190h187l13 -17l36 -36l134 -178h98v-6l47 -47v-447q0 -26 -12.5 -49.5t-32.5 -42t-45 -29.5t-49 -11h-466q-26 0 -52 13t-46 33l-29 29q-28 20 -46.5 48.5t-18.5 58.5v450
h186zM413 690l46 -64h169l-126 166h-177l-127 -166h169zM50 561v-438q0 -23 12 -45t30.5 -39t41.5 -28t46 -11h466q23 0 46 10.5t42 27.5t30.5 39t11.5 46v438h-279v-391q-3 -6 -8.5 -14.5t-13.5 -8.5h-124q-11 0 -14.5 8.5t-6.5 14.5v391h-280z" />
    <glyph glyph-name="FL00FCh" unicode="&#xfc;" 
d="M389 159h86q2 0 5 5t5 10v399h58q-27 8 -44 26l-34 33l-15 12q-6 -34 -35 -55t-70 -21h-3v-1l47 -47v-361zM307 573q-27 8 -44 26l-34 33q-20 13 -32 32.5t-12 44.5q0 19 8.5 36t23 30t34.5 20t44 7q33 0 59 -14t39 -37l29 -29q6 35 35.5 57.5t73.5 22.5q33 0 59 -14
t39 -37l34 -33q25 -25 25 -59q0 -31 -19.5 -54t-50.5 -32h170v-6l47 -47v-447q0 -26 -12.5 -49.5t-32.5 -42t-45 -29.5t-49 -11h-466q-26 0 -52 13t-46 33l-29 29q-28 20 -46.5 48.5t-18.5 58.5v450h269zM629 709q0 34 -28 57.5t-70 23.5t-70 -23.5t-28 -57.5
q0 -35 28.5 -58.5t69.5 -23.5t69.5 23.5t28.5 58.5zM197 709q0 -35 28.5 -58.5t69.5 -23.5t69.5 23.5t28.5 58.5q0 34 -28 57.5t-70 23.5t-70 -23.5t-28 -57.5zM50 561v-438q0 -23 12 -45t30.5 -39t41.5 -28t46 -11h466q23 0 46 10.5t42 27.5t30.5 39t11.5 46v438h-279v-391
q-3 -6 -8.5 -14.5t-13.5 -8.5h-124q-11 0 -14.5 8.5t-6.5 14.5v391h-280z" />
    <glyph glyph-name="FL00FDh" unicode="&#xfd;" horiz-adv-x="791" 
d="M322 692q0 12 6 22t17 24l34 46q16 22 48 22q14 0 24.5 -2t23.5 -13v1q5 -6 10 -11.5t8 -11.5l37 -36q23 -24 23 -59q0 -13 -3 -18.5t-8 -12.5l-7 -7h1l-43 -50q-18 -21 -47 -21t-54 22l-37 36q-8 4 -15 12q-13 13 -15.5 22.5t-2.5 23.5v11zM753 573v-6l47 -47v-166h-109
q-9 -5 -25.5 -16t-32.5 -25t-28 -30t-12 -31v-311h-298l-47 47h-6v292q-8 26 -26 47q-12 9 -24.5 14.5t-23 8.5t-18.5 3.5t-10 0.5h-49l-47 47h-6v172h238q41 0 68.5 -23t47.5 -48l18 -19q6 10 16 23t23.5 25.5t31 24t38.5 17.5h234zM349 724q-7 -8 -11 -15t-4 -17v-11
q0 -11 2 -19t12 -18q23 -20 48 -20t40 18l43 50q7 8 11 14.5t4 17.5q0 15 -5 29t-17 25q-11 11 -21.5 13.5t-23.5 2.5q-25 0 -39 -17zM522 561q-27 -8 -47.5 -24.5t-34 -33.5t-21 -30t-8.5 -13q-10 10 -22 27t-28 33.5t-37 28.5t-48 12h-226v-148h40q3 0 12.5 -1t22 -4
t26.5 -9.5t27 -18.5q23 -21 44.5 -41.5t31.5 -54.5v-284h280v302q0 17 13 35t30.5 33.5t35 27t26.5 15.5h102v148h-219z" />
    <glyph glyph-name="FL00FEh" unicode="&#xfe;" 
d="M485 310v0q0 1 -1 1l-14 15zM389 240h72q12 0 19.5 13t9.5 26h-101v-39zM38 573h304v-6l47 -47v-23h236q42 0 71.5 -18.5t48.5 -46.5l26 -26l-3 3l6 -5q16 -17 28 -37.5t19 -43t10.5 -44t3.5 -39.5q0 -39 -8.5 -78t-27 -70t-49 -50.5t-74.5 -19.5h-287v-81h-298l-47 47
h-6v585zM467 338q9 0 16 -6t11 -14.5t6 -17.5t2 -16q0 -8 -3 -18t-8 -18.5t-12.5 -14t-17.5 -5.5h-131v110h137zM50 0h280v81h296q42 0 70.5 18.5t46 48t25.5 67t8 75.5q0 27 -7.5 61t-25.5 63.5t-47 50t-71 20.5h-295v76h-280v-561z" />
    <glyph glyph-name="FL00FFh" unicode="&#xff;" horiz-adv-x="791" 
d="M521 573q-27 8 -44 26l-34 33l-15 12q-6 -34 -35 -55t-70 -21h-9t-8 1q29 -8 49.5 -27.5t36.5 -39.5l18 -19q6 10 16 23t23.5 25.5t31 24t38.5 17.5h2zM163 709q0 19 8.5 36t23 30t34.5 20t44 7q33 0 59 -14t39 -37l29 -29q6 35 35.5 57.5t73.5 22.5q33 0 59 -14t39 -37
l34 -33q25 -25 25 -59q0 -31 -19.5 -54t-50.5 -32h157v-6l47 -47v-166h-109q-9 -5 -25.5 -16t-32.5 -25t-28 -30t-12 -31v-311h-298l-47 47h-6v292q-8 26 -26 47q-12 9 -24.5 14.5t-23 8.5t-18.5 3.5t-10 0.5h-49l-47 47h-6v172h238q4 0 7.5 -0.5t6.5 -0.5q-14 4 -27 10.5
t-22 16.5l-34 33q-20 13 -32 32.5t-12 44.5zM607 709q0 34 -28 57.5t-70 23.5t-70 -23.5t-28 -57.5q0 -35 28.5 -58.5t69.5 -23.5t69.5 23.5t28.5 58.5zM175 709q0 -35 28.5 -58.5t69.5 -23.5t69.5 23.5t28.5 58.5q0 34 -28 57.5t-70 23.5t-70 -23.5t-28 -57.5zM522 561
q-27 -8 -47.5 -24.5t-34 -33.5t-21 -30t-8.5 -13q-10 10 -22 27t-28 33.5t-37 28.5t-48 12h-226v-148h40q3 0 12.5 -1t22 -4t26.5 -9.5t27 -18.5q23 -21 44.5 -41.5t31.5 -54.5v-284h280v302q0 17 13 35t30.5 33.5t35 27t26.5 15.5h102v148h-219z" />
    <glyph glyph-name="FL0152h" unicode="&#x152;" horiz-adv-x="1251" 
d="M389 159h157v196h-145q-5 0 -8.5 -7.5t-3.5 -13.5v-175zM1213 573v-6l47 -47v-165h-45l45 -45v-161h-43l43 -43v-165h-1030q-26 0 -52.5 13t-46.5 33l-28 27q-28 20 -46.5 48.5t-18.5 60.5v295q0 28 11.5 55.5t32 49.5t47.5 36t58 14h1026zM558 147h-207q-8 0 -14 6.5
t-7 16.5v214q0 8 5.5 19t15.5 11h207v-267zM187 561q-28 0 -53 -12.5t-43.5 -33t-29.5 -46t-11 -51.5v-295q0 -24 12 -46t30.5 -39t41.5 -27.5t46 -10.5h1021v147h-342q-2 0 -10 8.5t-11 14.5q0 1 -0.5 3t-0.5 4t0.5 4t0.5 3q3 6 11 15t10 9h342v143h-335q-13 0 -21 10
t-8 21q0 8 6 20t16 12h342v147h-1014z" />
    <glyph glyph-name="FL0153h" unicode="&#x153;" horiz-adv-x="1251" 
d="M389 159h157v196h-145q-5 0 -8.5 -7.5t-3.5 -13.5v-175zM1213 573v-6l47 -47v-165h-45l45 -45v-161h-43l43 -43v-165h-1030q-26 0 -52.5 13t-46.5 33l-28 27q-28 20 -46.5 48.5t-18.5 60.5v295q0 28 11.5 55.5t32 49.5t47.5 36t58 14h1026zM558 147h-207q-8 0 -14 6.5
t-7 16.5v214q0 8 5.5 19t15.5 11h207v-267zM187 561q-28 0 -53 -12.5t-43.5 -33t-29.5 -46t-11 -51.5v-295q0 -24 12 -46t30.5 -39t41.5 -27.5t46 -10.5h1021v147h-342q-2 0 -10 8.5t-11 14.5q0 1 -0.5 3t-0.5 4t0.5 4t0.5 3q3 6 11 15t10 9h342v143h-335q-13 0 -21 10
t-8 21q0 8 6 20t16 12h342v147h-1014z" />
    <glyph glyph-name="FL0160h" unicode="&#x160;" horiz-adv-x="808" 
d="M365 804l11 -15l34 -35l37 50h198l-4 -5l48 -48l-137 -178h217v-6l47 -47v-165h-135q23 -9 43.5 -23.5t32.5 -33.5l32 -32q13 -13 20.5 -28.5t7.5 -32.5v-114q0 -26 -11.5 -52.5t-32 -48t-47 -35.5t-56.5 -14h-579l-47 47h-6v171h156q-32 12 -59 41l-24 24
q-30 20 -51.5 51t-21.5 62v87q0 28 11.5 55t32 48t47.5 33.5t58 12.5h170l-41 41h-4l-145 190h198zM406 728l-46 64h-169l126 -166h177l127 166h-169zM758 255q0 21 -12.5 39t-31.5 31t-41.5 20.5t-42.5 7.5h-300v31q0 8 5.5 19t15.5 11h406v147h-570q-28 0 -53 -11.5
t-43.5 -31t-29.5 -44t-11 -50.5v-87q0 -23 13 -45.5t32.5 -40.5t42 -29.5t42.5 -11.5h297v-33q0 -8 -5.5 -19t-15.5 -11h-406v-147h570q28 0 53 13t44 33.5t30 45.5t11 49v114z" />
    <glyph glyph-name="FL0161h" unicode="&#x161;" horiz-adv-x="940" 
d="M431 804l11 -15l34 -35l37 50h198l-4 -5l48 -48l-137 -178h284v-6l47 -47v-165h-155q-8 0 -17.5 -7t-18 -16.5t-15.5 -20.5t-10 -18l-131 -238q-11 -20 -28.5 -40t-39.5 -36.5t-46.5 -27t-50.5 -10.5h-346l-47 47h-6v172h159q7 0 15 6.5t16 16.5t14.5 20.5t11.5 18.5
l130 235q4 9 16.5 24t30 31.5t37.5 31.5t41 23h-80l-47 47h-4l-145 190h198zM472 728l-46 64h-169l126 -166h177l127 166h-169zM387 0q24 0 47.5 10t44.5 26t37.5 35.5t27.5 38.5l132 239q3 8 10.5 19t17.5 21.5t20.5 17.5t19.5 7h146v147h-351q-21 0 -44.5 -13.5t-44 -31.5
t-35.5 -36t-20 -28l-131 -237q-5 -8 -13 -19.5t-17 -22t-18.5 -18t-18.5 -7.5h-147v-148h337z" />
    <glyph glyph-name="FL0178h" unicode="&#x178;" horiz-adv-x="813" 
d="M463 362q1 0 3 3.5t4 7.5v200h64q-27 8 -44 26l-34 33l-15 12q-6 -32 -33.5 -53t-65.5 -23v-1l47 -47v-158h74zM176 709q0 19 8.5 36t23 30t34.5 20t44 7q33 0 59 -14t39 -37l29 -29q6 35 35.5 57.5t73.5 22.5q33 0 59 -14t39 -37l34 -33q25 -25 25 -59q0 -31 -19.5 -54
t-50.5 -32h166v-6l47 -47v-426q0 -32 -9 -60t-25 -48.5t-38.5 -32.5t-50.5 -12h-603l-47 47h-6v171h138q-28 12 -49 35l-29 29q-28 20 -46.5 48.5t-18.5 58.5v243h260q-27 8 -44 26l-34 33q-20 13 -32 32.5t-12 44.5zM620 709q0 34 -28 57.5t-70 23.5t-70 -23.5t-28 -57.5
q0 -35 28.5 -58.5t69.5 -23.5t69.5 23.5t28.5 58.5zM188 709q0 -35 28.5 -58.5t69.5 -23.5t69.5 23.5t28.5 58.5q0 34 -28 57.5t-70 23.5t-70 -23.5t-28 -57.5zM482 372q-2 -6 -7.5 -14t-11.5 -8h-112q-11 0 -14.5 9.5t-6.5 14.5v187h-280v-231q0 -23 12 -45t30.5 -39
t41.5 -28t46 -11h302v-23q0 -20 -8 -27.5t-28 -9.5h-391v-147h594q26 0 47 11t36 30.5t23 46t8 56.5v417h-281v-189z" />
    <glyph glyph-name="FL00AFh" unicode="&#x192;" 
d="M342 389q2 2 0 2v-2zM113 10q-34 23 -54.5 59t-20.5 74v295q0 24 13 48.5t33.5 43.5t46 31t49.5 12h466q33 0 66 -19.5t54 -49.5l29 -29q18 -18 29 -40.5t11 -46.5v-130q0 -32 -23 -58t-55 -41h28v-6l47 -47v-165h-595q-29 0 -53.5 12t-44.5 32zM475 414q8 0 13.5 -8.5
t8.5 -14.5v-41h-167v41q3 6 6.5 14.5t14.5 8.5h124zM776 438q0 24 -11.5 46t-30.5 39t-42 27.5t-46 10.5h-466q-23 0 -46 -11t-41.5 -28t-30.5 -39.5t-12 -44.5v-295q0 -26 11 -51.5t29.5 -46t43.5 -33t53 -12.5h586v147h-422q-10 0 -15.5 11t-5.5 19l-2 2h2v23h316
q20 0 43 8.5t42.5 23t32 34t12.5 40.5v130z" />
    <glyph glyph-name="FL02C6h" unicode="&#x2c6;" horiz-adv-x="504" 
d="M22 382h-9l146 190h187l13 -17l36 -36l140 -184h-191l-47 47h-4l-33 -47h-191zM252 458l46 -64h169l-126 166h-177l-127 -166h169z" />
    <glyph glyph-name="FL02DCh" unicode="&#x2dc;" horiz-adv-x="573" 
d="M409 395h-111l-47 63l-45 -63h-169l127 166h111l47 -63l45 63h169zM560 573h-198l-36 -50l-34 34l-12 16h-121l-146 -190h9l47 -47h191l33 47h4l47 -47h119l141 184l-48 48z" />
    <glyph glyph-name="FL2013h" unicode="&#x2013;" horiz-adv-x="435" 
d="M385 351v-143h-335v143h335zM38 363v-167h6l47 -47h353v161l-47 47v6h-359z" />
    <glyph glyph-name="FL2014h" unicode="&#x2014;" horiz-adv-x="497" 
d="M447 351v-143h-397v143h397zM38 363v-167h6l47 -47h415v161l-47 47v6h-421z" />
    <glyph glyph-name="FL2018h" unicode="&#x2018;" horiz-adv-x="319" 
d="M38 470q0 22 9.5 40.5t26 32.5t38.5 22t48 8q36 0 65.5 -16.5t43.5 -42.5l31 -30q13 -13 20.5 -29t7.5 -35v-101q0 -21 -9.5 -39.5t-25.5 -32t-37.5 -21t-45.5 -7.5q-28 0 -51 9.5t-40 26.5l-29 29q-24 14 -38 36t-14 49v101zM50 369q0 -19 8.5 -35.5t23.5 -29t35 -19.5
t43 -7q22 0 42 7t35 19.5t23.5 29t8.5 35.5v101q0 19 -8.5 35.5t-23.5 29t-35 19.5t-42 7q-23 0 -43 -7t-35 -19.5t-23.5 -29t-8.5 -35.5v-101z" />
    <glyph glyph-name="FL2019h" unicode="&#x2019;" horiz-adv-x="319" 
d="M38 470q0 22 9.5 40.5t26 32.5t38.5 22t48 8q36 0 65.5 -16.5t43.5 -42.5l31 -30q13 -13 20.5 -29t7.5 -35v-101q0 -21 -9.5 -39.5t-25.5 -32t-37.5 -21t-45.5 -7.5q-28 0 -51 9.5t-40 26.5l-29 29q-24 14 -38 36t-14 49v101zM50 369q0 -19 8.5 -35.5t23.5 -29t35 -19.5
t43 -7q22 0 42 7t35 19.5t23.5 29t8.5 35.5v101q0 19 -8.5 35.5t-23.5 29t-35 19.5t-42 7q-23 0 -43 -7t-35 -19.5t-23.5 -29t-8.5 -35.5v-101z" />
    <glyph glyph-name="FL201Ah" unicode="&#x201a;" horiz-adv-x="335" 
d="M38 92q0 22 10.5 41t28 33t41 22t50.5 8q38 0 69.5 -16.5t47.5 -42.5l31 -31h-1l2 -1q27 -27 27 -63v-103q0 -21 -10 -39.5t-27 -32t-40 -21.5t-49 -8q-30 0 -56.5 10.5t-43.5 27.5l-32 32q-22 14 -35 35t-13 46v103zM50 -11q0 -20 9.5 -36.5t25.5 -29t37.5 -19.5
t45.5 -7t45.5 7t37 19.5t25 29t9.5 36.5v103q0 19 -9.5 36t-25 29.5t-37 19.5t-45.5 7t-45.5 -7t-37.5 -19.5t-25.5 -29.5t-9.5 -36v-103z" />
    <glyph glyph-name="FL201Ch" unicode="&#x201c;" horiz-adv-x="544" 
d="M38 469q0 44 33.5 73.5t83.5 29.5q34 0 61.5 -15.5t41.5 -40.5l19 -19q10 33 40.5 54.5t72.5 21.5q34 0 61 -15t42 -40l32 -32q28 -28 28 -66v-101q0 -21 -9 -39.5t-24.5 -32t-36 -21t-43.5 -7.5q-26 0 -48 9t-38 25l-33 32h-1q-3 3 -7 5q-9 -32 -39.5 -52t-68.5 -20
q-26 0 -48 9t-38 25l-31 31q-23 14 -36.5 36t-13.5 49v101zM50 368q0 -19 8 -35.5t22.5 -29t33.5 -19.5t41 -7q21 0 40 7t33.5 19.5t22.5 29t8 35.5v101q0 19 -8 35.5t-22.5 29t-33.5 19.5t-40 7q-22 0 -41 -7t-33.5 -19.5t-22.5 -29t-8 -35.5v-101zM285 369q0 -19 8 -35.5
t22.5 -29t33.5 -19.5t41 -7q21 0 40 7t33.5 19.5t22.5 29t8 35.5v101q0 19 -8 35.5t-22.5 29t-33.5 19.5t-40 7q-22 0 -41 -7t-33.5 -19.5t-22.5 -29t-8 -35.5v-101z" />
    <glyph glyph-name="FL201Dh" unicode="&#x201d;" horiz-adv-x="544" 
d="M38 469q0 44 33.5 73.5t83.5 29.5q34 0 61.5 -15.5t41.5 -40.5l19 -19q10 33 40.5 54.5t72.5 21.5q34 0 61 -15t42 -40l32 -32q28 -28 28 -66v-101q0 -21 -9 -39.5t-24.5 -32t-36 -21t-43.5 -7.5q-26 0 -48 9t-38 25l-33 32h-1q-3 3 -7 5q-9 -32 -39.5 -52t-68.5 -20
q-26 0 -48 9t-38 25l-31 31q-23 14 -36.5 36t-13.5 49v101zM50 368q0 -19 8 -35.5t22.5 -29t33.5 -19.5t41 -7q21 0 40 7t33.5 19.5t22.5 29t8 35.5v101q0 19 -8 35.5t-22.5 29t-33.5 19.5t-40 7q-22 0 -41 -7t-33.5 -19.5t-22.5 -29t-8 -35.5v-101zM285 369q0 -19 8 -35.5
t22.5 -29t33.5 -19.5t41 -7q21 0 40 7t33.5 19.5t22.5 29t8 35.5v101q0 19 -8 35.5t-22.5 29t-33.5 19.5t-40 7q-22 0 -41 -7t-33.5 -19.5t-22.5 -29t-8 -35.5v-101z" />
    <glyph glyph-name="FL201Eh" unicode="&#x201e;" horiz-adv-x="598" 
d="M38 92q0 22 10.5 41t28 33t41 22t50.5 8q38 0 69.5 -16.5t47.5 -42.5l19 -20q11 35 46 57t81 22q38 0 69.5 -16.5t47.5 -42.5l32 -32q27 -27 27 -63v-103q0 -21 -10 -39.5t-27 -32t-40 -21.5t-49 -8q-30 0 -56.5 10.5t-43.5 27.5l-32 32l-9 6q-11 -33 -44.5 -54.5
t-77.5 -21.5q-30 0 -56.5 10.5t-43.5 27.5l-32 32q-22 14 -35 35t-13 46v103zM50 -11q0 -20 9.5 -36.5t25.5 -29t37.5 -19.5t45.5 -7t45.5 7t37 19.5t25 29t9.5 36.5v103q0 19 -9.5 36t-25 29.5t-37 19.5t-45.5 7t-45.5 -7t-37.5 -19.5t-25.5 -29.5t-9.5 -36v-103zM313 -11
q0 -20 9.5 -36.5t25.5 -29t37.5 -19.5t45.5 -7t45.5 7t37 19.5t25 29t9.5 36.5v103q0 19 -9.5 36t-25 29.5t-37 19.5t-45.5 7t-45.5 -7t-37.5 -19.5t-25.5 -29.5t-9.5 -36v-103z" />
    <glyph glyph-name="FL2020h" unicode="&#x2020;" horiz-adv-x="478" 
d="M391 573v-6l47 -47v-55h2v-6l47 -47v-161h-49v-310h-298l-47 47h-6v267l-43 43h-6v167h49v108h304zM99 561v-108h-49v-143h49v-310h280v310h49v143h-49v108h-280z" />
    <glyph glyph-name="FL2021h" unicode="&#x2021;" horiz-adv-x="478" 
d="M391 573v-6l47 -47v-55h2v-6l47 -47v-161h-41l41 -41v-161h-49v-108h-298l-47 47h-6v65l-43 43h-6v167h41l-35 35h-6v167h49v108h304zM99 561v-108h-49v-143h49v-59h-49v-143h49v-108h280v108h49v143h-49v59h49v143h-49v108h-280z" />
    <glyph glyph-name="FL2022h" unicode="&#x2022;" 
d="M639 573q38 0 69.5 -20t51.5 -50l27 -27q22 -22 35 -50.5t13 -57.5v-295q0 -26 -12.5 -49.5t-32.5 -42t-45 -29.5t-49 -11h-466q-26 0 -52.5 13t-46.5 33l-28 27q-28 20 -46.5 48.5t-18.5 60.5v295q0 28 11.5 55.5t32 49.5t47.5 36t58 14h452zM187 561q-28 0 -53 -12.5
t-43.5 -33t-29.5 -46t-11 -51.5v-295q0 -24 12 -46t30.5 -39t41.5 -27.5t46 -10.5h466q23 0 46 10.5t42 27.5t30.5 39t11.5 46v295q0 26 -11 51.5t-29.5 46t-43.5 33t-53 12.5h-452z" />
    <glyph glyph-name="FL2026h" unicode="&#x2026;" horiz-adv-x="857" 
d="M38 92q0 22 10.5 41t28 33t41 22t50.5 8q39 0 70.5 -16.5t46.5 -43.5l18 -18q11 34 46 56t80 22q39 0 70.5 -16.5t46.5 -43.5l18 -18q11 34 46 56t80 22q38 0 69.5 -16.5t47.5 -42.5l32 -32q27 -27 27 -63q0 -21 -10 -39.5t-27 -32t-40 -21.5t-49 -8q-30 0 -56.5 10.5
t-43.5 27.5l-34 33q-2 2 -3 2t-3 2q-10 -32 -44 -53.5t-77 -21.5q-30 0 -56.5 10.5t-43.5 27.5l-34 33q-2 2 -3 2t-3 2q-10 -32 -44 -53.5t-77 -21.5q-30 0 -56.5 10.5t-43.5 27.5l-32 32q-22 14 -35 34.5t-13 46.5zM50 92q0 -20 9.5 -36.5t25.5 -29t37.5 -19.5t45.5 -7
t45.5 7t37 19.5t25 29t9.5 36.5q0 19 -9.5 36t-25 29.5t-37 19.5t-45.5 7t-45.5 -7t-37.5 -19.5t-25.5 -29.5t-9.5 -36zM311 92q0 -20 9.5 -36.5t25.5 -29t37.5 -19.5t45.5 -7t45.5 7t37 19.5t25 29t9.5 36.5q0 19 -9.5 36t-25 29.5t-37 19.5t-45.5 7t-45.5 -7t-37.5 -19.5
t-25.5 -29.5t-9.5 -36zM572 92q0 -20 9.5 -36.5t25.5 -29t37.5 -19.5t45.5 -7t45.5 7t37 19.5t25 29t9.5 36.5q0 19 -9.5 36t-25 29.5t-37 19.5t-45.5 7t-45.5 -7t-37.5 -19.5t-25.5 -29.5t-9.5 -36z" />
    <glyph glyph-name="FL2030h" unicode="&#x2030;" horiz-adv-x="1357" 
d="M1105 111q0 -6 5 -6h31q4 0 6 6v53q0 2 -1.5 5t-4.5 3h-31q-5 -2 -5 -8v-53zM1239 280q14 0 26.5 -6.5t21.5 -16.5t14.5 -22.5t5.5 -25.5v-148q0 -12 -6 -23t-15 -19.5t-20.5 -13.5t-23.5 -5h-233q-11 0 -22.5 5t-21 13.5t-15.5 19.5t-6 23v148q0 13 5.5 25.5t15 22.5
t22 16.5t26.5 6.5h226zM859 280q14 0 26.5 -6.5t21.5 -16.5t14.5 -22.5t5.5 -25.5v-148q0 -12 -6 -23t-15 -19.5t-20.5 -13.5t-23.5 -5h-233q-11 0 -22.5 5t-21 13.5t-15.5 19.5t-6 23v146l-188 -207h-284l254 280h-231q-11 0 -22.5 5t-21 13.5t-15.5 19.5t-6 23v148
q0 13 5.5 25.5t15 22.5t22 16.5t26.5 6.5h226q14 0 26.5 -6.5t21.5 -16.5t14.5 -22.5t5.5 -25.5v-136l189 208h283l-255 -281h229zM725 111q0 -6 5 -6h31q4 0 6 6v53q0 2 -1.5 5t-4.5 3h-31q-5 -2 -5 -8v-53zM211 391q0 -6 5 -6h31q4 0 6 6v53q0 2 -1.5 5t-4.5 3h-31
q-5 -2 -5 -8v-53zM1239 292h-226q-26 0 -45.5 -16t-29.5 -38l-11 11q-11 18 -29 30.5t-39 12.5h-111l208 228l-48 48l5 5h-316l-125 -138v4q0 32 -25 57l-35 34q-11 18 -28.5 30t-38.5 12h-226q-17 0 -31.5 -7.5t-25.5 -19.5t-17.5 -26.5t-6.5 -29.5v-148q0 -19 11 -35
t27 -26l36 -35q24 -24 53 -24h111l-212 -233h10l47 -47h309l122 133v-13q0 -19 11 -34.5t27 -26.5l36 -35q24 -24 53 -24h233q21 0 41 14t28 35l25 -25q24 -24 53 -24h233q13 0 26.5 5.5t24 15.5t17 22.5t6.5 26.5v148q0 32 -25 57l-35 34q-11 18 -28.5 30t-38.5 12z" />
    <glyph glyph-name="FL2039h" unicode="&#x2039;" horiz-adv-x="344" 
d="M307 211l-101 -101l-169 169l169 168l101 -101l-67 -67zM323 346l-117 117l-185 -184l185 -185l2 2l48 -48l113 113l-48 48l2 2l-20 19l66 66l-48 48z" />
    <glyph glyph-name="FL203Ah" unicode="&#x203a;" horiz-adv-x="344" 
d="M88 279l-67 67l117 117l185 -184l-2 -2l48 -48l-181 -181l-48 48l-2 -2l-117 117zM37 211l101 -101l169 169l-169 168l-101 -101l67 -67z" />
    <glyph glyph-name="FL2122h" unicode="&#x2122;" horiz-adv-x="1603" 
d="M485 386v0q0 1 -1 1l-14 15zM388 316h73q12 0 19.5 13t9.5 26h-102v-39zM835 316q0 -42 -9.5 -83t-30.5 -73h65q7 0 15 6.5t16 16.5t14.5 20.5t11.5 18.5l130 235q6 10 22.5 29t38.5 38.5t47 34t47 14.5h363v-6l47 -47v-165h-155q-8 0 -17.5 -7t-18 -16.5t-15.5 -20.5
t-10 -18l-131 -237q-11 -20 -28.5 -40.5t-39 -37t-46 -27t-51.5 -10.5h-346l-47 47h-6v111q-6 -1 -12 -1h-13h-288v-157h-297l-47 47h-6v585h587q42 0 71.5 -18.5t48.5 -46.5l29 -28q16 -17 28 -37.5t19 -43t10.5 -44t3.5 -39.5zM1050 0q25 0 48.5 10t44 26t37 35.5
t27.5 38.5l132 239q3 8 10.5 19t17.5 21.5t20.5 17.5t19.5 7h146v147h-351q-21 0 -44 -13.5t-43.5 -31.5t-36 -36.5t-20.5 -27.5l-131 -237q-5 -8 -13 -19.5t-17 -22t-18.5 -18t-18.5 -7.5h-147v-148h337zM329 0v157h297q42 0 70.5 18.5t46 48t25.5 67t8 75.5q0 27 -7.5 61
t-25.5 63.5t-47 50t-71 20.5h-575v-561h279zM467 414q9 0 16 -6t11 -14.5t6 -17.5t2 -16q0 -8 -3 -18t-8 -18.5t-12.5 -14t-17.5 -5.5h-132v110h138z" />
    <glyph glyph-name="FL017Dh" horiz-adv-x="894" 
d="M867 0v148h-147q-9 0 -18.5 7.5t-18.5 18t-17 22t-13 19.5l-131 237q-5 10 -20 28t-35.5 36t-44 31.5t-44.5 13.5h-351v-147h146q9 0 19.5 -7t20.5 -17.5t17.5 -21.5t10.5 -19l132 -239q10 -19 27 -38.5t38 -35.5t44.5 -26t47.5 -10h337zM399 792h-169l127 -166h177
l126 166h-169l-46 -64z" />
    </font>
</defs>
</svg>
