<?xml version="1.0" standalone="no"?>
<!DOCTYPE svg PUBLIC "-//W3C//DTD SVG 1.1//EN" "http://www.w3.org/Graphics/SVG/1.1/DTD/svg11.dtd" >
<svg xmlns="http://www.w3.org/2000/svg" xmlns:xlink="http://www.w3.org/1999/xlink" version="1.1">
<metadata>
Created by FontForge 20170731 at Sun Dec 20 01:46:45 2015
 By Aleksey,,,
Copyright 2015 Adobe Systems Incorporated. All rights reserved.
</metadata>
<defs>
<font id="BoldBrush" horiz-adv-x="833" >
  <font-face 
    font-family="BoldBrush"
    font-weight="400"
    font-stretch="normal"
    units-per-em="1000"
    panose-1="0 0 0 0 0 0 0 0 0 0"
    ascent="800"
    descent="-200"
    x-height="673"
    cap-height="705.5"
    bbox="-100.9 -260.811 1003.67 928"
    underline-thickness="50"
    underline-position="-200"
    unicode-range="U+0020-FB02"
  />
<missing-glyph horiz-adv-x="262" 
 />
    <glyph glyph-name="lo" unicode="Lo" horiz-adv-x="592" 
d="M595 96q2 -2 4.5 -6t6.5 -11.5t3 -10.5l-11 -41l-9 4q-31 9 -76.5 9.5t-96.5 -6.5t-101.5 -16.5t-100.5 -23t-82.5 -22.5t-59.5 -18q-33 -10 -53 11.5t-20 56.5t13 70q4 3 12 6q3 511 -11 590q-1 4 3 9t12 7q17 4 34 5t41 -5t41 -22t28 -51.5t8 -87.5q-14 -220 -36 -416
q103 13 172 18.5t150 -1t129 -30.5l-5 1l13 -17zM409 180q-60 1 -109.5 48.5t-73 106t-23.5 105.5q0 63 20 120.5t38.5 84.5t27.5 31q28 13 62.5 -8t38.5 -40q7 2 4 5q-6 6 -6 7q0 9 12 14q13 8 33 5.5t42 -8t45 -22.5t41 -39.5t29.5 -59t11.5 -79.5q0 -114 -53.5 -193
t-139.5 -78zM380 604q-41 -68 -41 -135q0 -51 15.5 -88t30 -49.5t23.5 -13.5q11 -1 27.5 15t31.5 57t15 94q0 41 -9.5 70.5t-23 42.5t-26.5 20t-23 7l-9 1q0 -20 -11 -21z" />
    <glyph glyph-name="lu" unicode="Lu" horiz-adv-x="601" 
d="M595 96q2 -2 4.5 -6t6.5 -11.5t3 -10.5l-11 -41l-9 4q-31 9 -76.5 9.5t-96.5 -6.5t-101.5 -16.5t-100.5 -23t-82.5 -22.5t-59.5 -18q-33 -10 -53 11.5t-20 56.5t13 70q4 3 12 6q3 511 -11 590q-1 4 3 9t12 7q17 4 34 5t41 -5t41 -22t28 -51.5t8 -87.5q-14 -220 -36 -416
q103 13 172 18.5t150 -1t129 -30.5l-5 1l13 -17zM211 449q-1 64 7 118.5t17 80.5t16 29q23 8 50 0.5t48.5 -23.5t19.5 -26q-19 -78 -23 -139t2 -93t18 -53.5t20.5 -27t14.5 -6.5q8 -1 22.5 8t30.5 26t27.5 50t11.5 73q0 62 -7.5 106t-15.5 58l-8 13l-4 1l8 7q-6 6 -6 7
q0 9 12 14q16 4 34 3t36 -18t33 -41t24 -65t8 -91q-2 -115 -54.5 -195.5t-136.5 -79.5q-61 1 -109.5 45.5t-71.5 103t-24 115.5z" />
    <glyph glyph-name="lq" unicode="Lq" horiz-adv-x="615" 
d="M595 96q2 -2 4.5 -6t6.5 -11.5t3 -10.5l-11 -41l-9 4q-31 9 -76.5 9.5t-96.5 -6.5t-101.5 -16.5t-100.5 -23t-82.5 -22.5t-59.5 -18q-33 -10 -53 11.5t-20 56.5t13 70q4 3 12 6q3 511 -11 590q-1 4 3 9t12 7q17 4 34 5t41 -5t41 -22t28 -51.5t8 -87.5q-14 -220 -36 -416
q103 13 172 18.5t150 -1t129 -30.5l-5 1l13 -17zM652 254l1 -11q-1 -3 -6.5 -6t-10.5 -5l-5 -1l4 -5l-15 -4q1 0 2.5 -0.5t0.5 -1.5q-26 -12 -95 26q-50 -58 -122 -58q-60 1 -109.5 48.5t-73 106t-23.5 105.5q0 39 7.5 76.5t18 63.5t22.5 46.5t20.5 30.5t12.5 12
q28 13 63.5 -8.5t35.5 -40.5q0 -7 -11 -25.5t-22.5 -51t-11.5 -74.5q0 -51 15.5 -88t30.5 -49.5t23 -13.5q7 0 16 6q-21 24 -31 47q7 33 31.5 43.5t48.5 -7.5q9 40 9 77q0 39 -8 67t-20 41t-23.5 20.5t-19.5 8.5l-8 1l-5 1l8 7q0 1 -3 3.5t-3 3.5q0 9 12 14q13 8 32 5.5
t40 -8t42.5 -23t38 -40t27 -57.5t10.5 -77q-2 -83 -31 -151q36 -29 78 -52z" />
    <glyph glyph-name="la" unicode="La" horiz-adv-x="652" 
d="M212 245q-6 14 -12 14q93 235 118 441q116 17 151 -7q74 2 83 -58q31 -222 118 -454l-16 16l-7 -11l-11 6l-9 6l-11 -9q-4 9 -9 17l-17 -38l-8 5q-117 34 -306 1q-33 -6 -49 15t-15 56zM373 336q64 -5 119 -20q-30 67 -60 150q-25 -63 -59 -130zM659 69q2 -2 4.5 -6
t7 -12t3.5 -11l-12 -41l-9 5q-69 19 -190 11.5t-234.5 -25t-159.5 -32.5q-33 -10 -53.5 11.5t-20.5 56.5t13 70l12 6q3 516 -10 590q-1 4 3 9t11 6q17 4 34.5 5.5t41 -5t40.5 -22.5t28 -51.5t8 -87.5q-8 -146 -35 -415q121 17 283 5t236 -49h-5l13 -16z" />
    <glyph glyph-name="ao" unicode="ao" horiz-adv-x="974" 
d="M24 233q-6 14 -12 14q92 228 118 441q116 17 151 -7q74 2 83 -58q32 -224 118 -454l-16 16l-7 -11l-11 7l-9 5l-11 -9q-4 9 -9 18l-16 -39l-9 6q-122 34 -306 0q-33 -6 -49 15t-15 56zM185 324q57 -3 119 -20q-29 67 -60 150q-25 -63 -59 -130zM516 57q2 -2 4.5 -6
t6.5 -12t3 -11l-11 -41l-9 5q-80 11 -225.5 2t-207.5 -29q-33 -11 -53.5 11t-20.5 57t13 70q49 29 165.5 32t218 -15.5t116.5 -44.5l-5 1l14 -17zM464 347q0 73 12 134t27 95.5t34 60.5t28.5 34.5t14.5 10.5q34 18 79.5 -12.5t45.5 -60.5q0 -7 -13.5 -26t-30 -43.5t-30 -76
t-13.5 -114.5q0 -55 10 -101t24.5 -73.5t31.5 -47.5t29 -27.5t19 -8.5q10 -1 24.5 9t31.5 33t32 54.5t24.5 80.5t9.5 105q0 70 -15 120t-36.5 72t-43 33.5t-36.5 11.5l-15 1l-7 2l13 11h8q7 1 21 -2t27.5 -7t27 -12.5t19.5 -19.5q-8 21 -36 33.5t-52 16.5l-24 4q0 17 19 25
q22 10 49.5 10.5t58 -8t59.5 -31.5t52 -56t37 -86t14 -118q0 -89 -23.5 -163.5t-59 -118.5t-73 -68t-69.5 -24q-62 0 -114 22t-86.5 57.5t-58.5 81.5t-35 93.5t-11 93.5z" />
    <glyph glyph-name="au" unicode="au" horiz-adv-x="970" 
d="M24 233q-6 14 -12 14q92 228 118 441q116 17 151 -7q74 2 83 -58q32 -224 118 -454l-16 16l-7 -11l-11 7l-9 5l-11 -9q-4 9 -9 18l-16 -39l-9 6q-122 34 -306 0q-33 -6 -49 15t-15 56zM185 324q57 -3 119 -20q-29 67 -60 150q-25 -63 -59 -130zM493 59q2 -2 4.5 -6
t6.5 -12t3 -11l-11 -41l-9 5q-81 11 -214 1.5t-196 -30.5q-33 -11 -53.5 11t-20.5 57t13 70q49 29 160 32.5t206.5 -14.5t110.5 -44l-5 1l14 -17zM659 606q0 31 -21.5 51t-50 25t-55 2.5t-37.5 -11.5q-3 -3 -2.5 -10t2.5 -14l2 -7q-35 -133 -37 -222q-1 -25 0 -51.5t7.5 -71
t17.5 -83t33.5 -81.5t53 -74t79 -52.5t108.5 -24.5t106.5 32t71 94t36.5 131.5t2 148t-32 140.5t-64.5 111.5t-96.5 58.5l6 -4l14.5 -14.5t19.5 -21.5t20 -29.5t15 -35.5q-3 9 -8 17.5t-11 16.5t-13 16t-14 14.5t-13.5 12.5t-12 10.5t-10 8t-7.5 5.5l-2 2q-6 1 -17 1l-7 -9
q29 -20 52.5 -82t31 -142t0 -159.5t-44 -143t-97.5 -84.5q-41 55 -53.5 147t-4 166.5t20.5 145.5z" />
    <glyph glyph-name="aq" unicode="aq" horiz-adv-x="981" 
d="M24 233q-6 14 -12 14q92 228 118 441q116 17 151 -7q74 2 83 -58q32 -224 118 -454l-16 16l-7 -11l-11 7l-9 5l-11 -9q-4 9 -9 18l-16 -39l-9 6q-122 34 -306 0q-33 -6 -49 15t-15 56zM185 324q57 -3 119 -20q-29 67 -60 150q-25 -63 -59 -130zM499 58q2 -2 4.5 -6
t6.5 -12t3 -11l-11 -41l-9 5q-81 11 -217 1.5t-199 -29.5q-33 -11 -53.5 11t-20.5 57t13 70q49 29 161.5 32.5t209.5 -15t112 -44.5l-5 1l14 -17zM1003 15q2 -8 -2 -15q-2 -3 -9.5 -5.5t-14.5 -3.5l-7 -1l5 -7l-21 -2q0 -1 4 -4q-37 -9 -113 50q-40 -25 -74 -25
q-77 0 -138.5 32.5t-97 84t-53.5 109t-18 115.5q0 65 10 123.5t24 95.5t29.5 65t26 40t13.5 13q34 17 76 -7.5t52 -54.5q2 -6 2.5 -10.5t0 -8.5t-1.5 -6.5t-3.5 -5l-3.5 -3.5t-4.5 -3t-4.5 -3q-60 -104 -60 -233q0 -54 10 -99t24.5 -72t31.5 -46.5t29 -27t19 -8.5
q11 -1 30 13q-59 67 -75 128q20 50 63 51t67 -48q2 -4 6.5 -12.5t6.5 -12.5q25 68 25 158q0 65 -13.5 114.5t-33 74t-39 40t-33.5 18.5l-13 3l-7 3l10 6q-23 6 -23 10q0 1 10 3t25 4.5t27 3.5q-12 2 -25.5 1t-23.5 -2l-11 -2q14 14 33 22q18 8 41 9.5t47.5 -6t48.5 -22
t45.5 -40t38 -58.5t26.5 -80t10 -102q0 -169 -83 -277q39 -42 79 -73z" />
    <glyph glyph-name="oa" unicode="oa" horiz-adv-x="862" 
d="M24 448q0 63 19.5 120.5t38.5 84.5t27 31q28 13 62.5 -8t38.5 -40q2 -7 -0.5 -15t-9.5 -9q-1 -1 -6 -10t-6.5 -12l-6.5 -13t-7 -16t-5.5 -17t-5 -20.5t-3 -21.5t-1.5 -25q0 -51 15.5 -88t30.5 -49.5t23 -13.5q11 -1 27.5 15t31.5 57t15 94q0 41 -9.5 70.5t-23 42.5
t-26.5 20t-23 7l-9 1l-4 1l8 7l-7 7q3 10 12 14q13 8 33 6t42 -7.5t45 -22.5t41 -39.5t29.5 -59t11.5 -80.5q0 -114 -53.5 -193t-138.5 -78q-61 1 -110.5 49t-72.5 106t-23 105zM865 99q0 -4 7.5 -26t7.5 -25q-1 -16 -7 -32q-1 -2 -3.5 -4.5t-5.5 -4t-4 -2.5q-2 -2 -2 -4.5
t-1 -3.5q-2 -2 -5.5 -3.5t-4.5 -2.5l-16 -2q-32 0 -101 147q-14 -6 -22 -8q-42 5 -221 -19q-38 -73 -74 -130q-2 -1 -3.5 1.5t-3.5 6.5t-4 6q-1 1 -7 -0.5t-8 0.5l-6 31q-10 2 -16 11q-113 7 -272 -44q-33 -11 -53.5 11t-20.5 57t13 70q60 35 167 37t163 -23
q122 318 139 539q115 14 151 -8q74 2 80 -55q20 -162 56 -284q34 -117 87 -239q1 -6 -5 0q-4 4 -5 3zM551 247q63 1 131 -5q-36 85 -67 177q-33 -97 -64 -172z" />
    <glyph glyph-name="oo" unicode="oo" horiz-adv-x="805" 
d="M12 131q-13 -35 -13 -70t20.5 -57t53.5 -11q50 16 154.5 32t252.5 23.5t283 -13.5l9 -5q9 34 11 41q1 7 -10 23q-2 3 -71.5 15t-177.5 21t-186 2q89 9 179 4t157 -16l68 -11l-13 16q2 -1 3 -1t2 1q-15 26 -172 39t-328.5 4.5t-221.5 -37.5zM-3 450q0 63 19.5 120.5
t38.5 84.5t27 31q28 13 62.5 -8t38.5 -40q2 -7 -0.5 -15t-9.5 -9q-1 -1 -6 -10t-6.5 -12l-6.5 -13t-7 -16t-5.5 -17t-5 -20.5t-3 -21.5t-1.5 -25q0 -51 15.5 -88t30.5 -49.5t23 -13.5q11 -1 27.5 15t31.5 57t15 94q0 41 -9.5 70.5t-22.5 42.5t-26.5 20t-22.5 7l-10 1l-4 1
l8 7l-7 7q3 10 12 14q13 8 33 6t42 -7.5t45 -22.5t41 -39.5t29.5 -59t11.5 -80.5q0 -114 -53.5 -193t-138.5 -78q-61 1 -110.5 49t-72.5 106t-23 105zM401 450q0 63 19.5 120.5t38.5 84.5t27 31q28 13 62.5 -8t38.5 -40q2 -7 -0.5 -15t-9.5 -9q-1 -1 -6 -10t-6.5 -12
l-6.5 -13t-7 -16t-5.5 -17t-5 -20.5t-3 -21.5t-1.5 -25q0 -51 15.5 -88t30.5 -49.5t23 -13.5q11 -1 27.5 15t31.5 57t15 94q0 41 -9.5 70.5t-22.5 42.5t-26.5 20t-22.5 7l-10 1l-4 1l8 7l-7 7q3 10 12 14q13 8 33 6t42 -7.5t45 -22.5t41 -39.5t29.5 -59t11.5 -80.5
q0 -114 -53.5 -193t-138.5 -78q-61 1 -110.5 49t-72.5 106t-23 105z" />
    <glyph glyph-name="ou" unicode="ou" horiz-adv-x="889" 
d="M19 131q-13 -35 -13 -70t20.5 -57t53.5 -11q181 59 316 40l9 -5q9 34 11 41q1 3 -2.5 10.5t-7.5 12.5l-4 6l8 2l-13 16q2 -1 3 -1t2 1q-15 27 -87 41.5t-159 8.5t-137 -35zM699 699q54 -12 96.5 -58.5t64.5 -111.5t32 -140.5t-2 -148t-36.5 -131.5t-71 -94t-106.5 -32
q-68 3 -121 30.5t-84 65t-52 89.5t-29 94t-11 88q-22 -74 -68.5 -117.5t-108.5 -42.5q-61 1 -110.5 49t-72.5 106t-23 105q0 63 19.5 120.5t38.5 84.5t27 31q28 13 62.5 -8t38.5 -40v-1q6 2 5 6l-7 7q3 10 12 14q43 19 109.5 -18t86.5 -126l26 123q-1 3 -2 7t-2 14t2 10
q11 9 37.5 11.5t55 -2.5t50 -25t21.5 -51l-12 -71q-12 -70 -20.5 -144.5t4 -166.5t53.5 -147q61 21 97.5 84.5t44 143t0 159.5t-31 142t-52.5 82l7 9q11 0 17 -1l3 -2q2 -2 6.5 -5.5t10 -8t12 -10.5t13.5 -12.5t14 -14.5t13 -16t11 -16.5t8 -17.5q-3 10 -7.5 20.5t-10 19
t-11 16.5t-11 14.5t-11 12t-10 9.5t-8 7t-5.5 5zM200 328q11 -1 27.5 15t31.5 57t15 94q0 41 -9.5 70.5t-23 42.5t-26.5 20t-23 7l-9 1q2 -20 -11 -21q-1 -1 -6 -10t-6.5 -12l-6.5 -13t-7 -16t-5.5 -17t-5 -20.5t-3 -21.5t-1.5 -25q0 -51 15.5 -88t30.5 -49.5t23 -13.5z" />
    <glyph glyph-name="oq" unicode="oq" horiz-adv-x="828" 
d="M818 204q1 -7 -2 -12l-24 -5l3 -6h-17q0 -1 3 -3q-23 -3 -68 35q-43 -30 -92 -29q-61 1 -110.5 49t-72.5 106t-23 105q0 63 19.5 120.5t38.5 84.5t27 31q28 13 62.5 -8t38.5 -40v-1q6 2 5 6l-7 7q3 10 12 14q13 8 33 6t42 -7.5t45 -22.5t41 -39.5t29.5 -59t11.5 -80.5
q0 -114 -52 -191q20 -27 50 -57zM619 322q3 0 5 1q-22 40 -26 71q15 29 41 33t44 -17q10 35 10 78q0 41 -9.5 70.5t-22.5 42.5t-26.5 20t-22.5 7l-10 1q2 -18 -11 -21q-1 -1 -6 -10t-6.5 -12l-6.5 -13t-7 -16t-5.5 -17t-5 -20.5t-3 -21.5t-1.5 -25q0 -51 15.5 -88
t30.5 -49.5t23 -13.5zM359 126q78 7 186 -2t177 -21t72 -15q11 -19 9 -23l-11 -41l-9 5q-135 21 -283 13.5t-252 -23.5t-154 -32q-33 -11 -53.5 11t-20.5 57t13 70q50 29 221.5 37.5t328.5 -4.5t172 -39h-5l13 -16q-10 2 -27 5t-66.5 9.5t-96.5 10.5t-107 4t-107 -6z
M216 184q-61 1 -110.5 49t-72.5 106t-23 105q0 63 19.5 120.5t38.5 84.5t27 31q28 13 62.5 -8t38.5 -40v-1q6 2 5 6l-7 7q3 10 12 14q13 8 33 6t42 -7.5t45 -22.5t41 -39.5t29.5 -59t11.5 -80.5q0 -114 -53.5 -193t-138.5 -78zM186 608q-1 -1 -6 -10t-6.5 -12l-6.5 -13
t-7 -16t-5.5 -17t-5 -20.5t-3 -21.5t-1.5 -25q0 -51 15.5 -88t30.5 -49.5t23 -13.5q11 -1 27.5 15t31.5 57t15 94q0 41 -9.5 70.5t-23 42.5t-26.5 20t-23 7l-9 1q2 -18 -11 -21z" />
    <glyph glyph-name="uu" unicode="uu" horiz-adv-x="800" 
d="M5 443q-1 64 6.5 118.5t16.5 80.5t16 29q29 13 66.5 -9.5t33.5 -39.5q-19 -78 -21.5 -139t6.5 -93t24 -53.5t25.5 -27t16.5 -6.5q8 -1 22.5 8t30.5 26t27.5 49.5t11.5 72.5q0 62 -7.5 106.5t-15.5 58.5l-8 13l-4 1l8 7q-6 6 -6 7q0 9 12 14q16 4 34 3t36.5 -18t33.5 -41
t24 -65.5t9 -91.5q-2 -114 -55 -192.5t-137 -77.5q-90 1 -147 85t-59 175zM411 445q-1 64 6.5 118.5t16.5 80.5t16 29q29 13 66.5 -9.5t33.5 -39.5q-19 -78 -21.5 -139t6.5 -93t24 -53.5t25.5 -27t16.5 -6.5q8 -1 22.5 8t30.5 26t27.5 49.5t11.5 72.5q0 62 -7.5 106.5
t-15.5 58.5l-8 13l-4 1l8 7q-6 6 -6 7q0 9 12 14q16 4 34 3t36.5 -18t33.5 -41t24 -65.5t9 -91.5q-2 -114 -55 -192.5t-137 -77.5q-90 1 -147 85t-59 175zM22 129q-13 -35 -13 -70t20.5 -57t53.5 -11q50 16 154.5 32t252.5 23.5t283 -13.5l9 -5q9 34 11 41q1 7 -10 23
q-2 3 -71.5 15t-177.5 21t-186 2q89 9 179 4t157 -16l68 -11l-13 16q2 -1 3 -1t2 1q-15 26 -172 39t-328.5 4.5t-221.5 -37.5z" />
    <glyph glyph-name="ua" unicode="ua" horiz-adv-x="864" 
d="M21 446q-1 64 7 118.5t17 80.5t16 29q23 8 49.5 0.5t47.5 -23t18 -26.5q-19 -78 -23 -139t3 -93t19 -53.5t21 -27t15 -6.5q8 -1 22.5 8t30.5 26t27.5 50t11.5 73q0 62 -7.5 106t-15.5 57l-8 14l-4 1l8 7q-6 6 -6 7q0 9 12 14q16 4 34 3t36.5 -18t33.5 -41t24.5 -65
t8.5 -91q-2 -115 -54.5 -193.5t-137.5 -77.5q-61 1 -109.5 44.5t-72 101t-24.5 114.5zM866 101q0 -4 7.5 -26t7.5 -25q-1 -16 -7 -32q-1 -2 -3.5 -4.5t-5.5 -4t-4 -2.5q-1 -2 -1 -4.5t-2 -3.5q-2 -2 -5.5 -3.5t-4.5 -2.5l-16 -2q-32 0 -101 147q-14 -6 -22 -8
q-42 5 -221 -19q-38 -73 -74 -130q-2 -1 -3.5 1.5t-3.5 6.5t-4 6q-1 1 -7 -0.5t-8 0.5q-5 15 -5 30l-5 2q-119 16 -295 -40q-32 -10 -51 11t-19 55t12 68q61 36 172.5 36t160.5 -28q0 1 13.5 35t19.5 51t20.5 59t23.5 72t21.5 76t20.5 85t15 86t10 91q115 14 151 -8
q74 2 80 -55q20 -162 56 -284q34 -117 87 -239q1 -6 -5 0q-4 4 -5 3zM552 249q63 1 131 -5q-36 85 -67 177q-33 -97 -64 -172z" />
    <glyph glyph-name="uq" unicode="uq" horiz-adv-x="872" 
d="M2 446q-1 64 7 118.5t17 80.5t16 29q23 8 49.5 0.5t47.5 -23t18 -26.5q-19 -78 -23 -139t3 -93t19 -53.5t21 -27t15 -6.5q8 -1 22.5 8t30.5 26t27.5 50t11.5 73q0 62 -8 106t-16 57l-7 14l-4 1l8 7q-6 6 -6 7q0 9 12 14q16 4 34 3t36.5 -18t33.5 -41t24.5 -65t8.5 -91
q-2 -115 -54.5 -193.5t-137.5 -77.5q-61 1 -109.5 44.5t-72 101t-24.5 114.5zM24 120q-12 -34 -12 -68t19 -55t51 -11q176 56 295 40l9 -5q8 33 11 40q1 3 -2.5 10t-7.5 13l-4 5l8 2l-13 16l5 -1q-15 26 -82 40.5t-148 8t-129 -34.5zM906 15q2 -8 -2 -15q-2 -3 -9.5 -5.5
t-14.5 -3.5l-7 -1l5 -7l-21 -2q0 -1 4 -4q-37 -9 -113 50q-40 -25 -74 -25q-77 0 -138.5 32.5t-97 84t-53.5 109t-18 115.5q0 65 10 123.5t24 95.5t29.5 65t26 40t13.5 13q34 17 76 -7.5t52 -54.5q2 -6 2.5 -10.5t0 -8.5t-1.5 -6.5t-3.5 -5l-3.5 -3.5t-4.5 -3t-4.5 -3
q-60 -104 -60 -233q0 -54 10 -99t24.5 -72t31.5 -46.5t29 -27t19 -8.5q11 -1 30 13q-59 67 -75 128q20 50 63 51t67 -48q2 -4 6.5 -12.5t6.5 -12.5q25 68 25 158q0 65 -13.5 114.5t-33 74t-39 40t-32.5 18.5l-14 3l-7 3l10 6q-23 6 -23 10q0 1 10 3t25 4.5t27 3.5
q-12 2 -25.5 1t-24.5 -2l-10 -2q14 14 33 22q18 8 41 9.5t47.5 -6t48.5 -22t45.5 -40t38 -58.5t26.5 -80t10 -102q0 -169 -83 -277q39 -42 79 -73z" />
    <glyph glyph-name="uo" unicode="uo" horiz-adv-x="885" 
d="M2 446q-1 64 7 118.5t17 80.5t16 29q23 8 49.5 0.5t47.5 -23t18 -26.5q-19 -78 -23 -139t3 -93t19 -53.5t21 -27t15 -6.5q8 -1 22.5 8t30.5 26t27.5 50t11.5 73q0 62 -8 106t-16 57l-7 14l-4 1l8 7q-6 6 -6 7q0 9 12 14q16 4 34 3t36.5 -18t33.5 -41t24.5 -65t8.5 -91
q-2 -115 -54.5 -193.5t-137.5 -77.5q-61 1 -109.5 44.5t-72 101t-24.5 114.5zM24 120q-12 -34 -12 -68t19 -55t51 -11q176 56 295 40l9 -5q8 33 11 40q1 3 -2.5 10t-7.5 13l-4 5l8 2l-13 16l5 -1q-15 26 -82 40.5t-148 8t-129 -34.5zM374 347q0 73 12 134t27 95.5t34 60.5
t28.5 34.5t14.5 10.5q34 18 79.5 -12.5t45.5 -60.5q0 -7 -13.5 -26t-30 -43.5t-30 -76t-13.5 -114.5q0 -55 10 -101t24.5 -73.5t31.5 -47.5t29 -27.5t19 -8.5q10 -1 24.5 9t31.5 33t32 54.5t24.5 80.5t9.5 105q0 70 -15 120t-36.5 72t-43 33.5t-36.5 11.5l-15 1l-7 2l13 11
h8q7 1 21 -2t27.5 -7t27 -12.5t19.5 -19.5q-8 21 -36 33.5t-52 16.5l-24 4q0 17 19 25q22 10 49.5 10.5t58 -8t59.5 -31.5t52 -56t37 -86t14 -118q0 -89 -23.5 -163.5t-59 -118.5t-73 -68t-69.5 -24q-62 0 -114 22t-86.5 57.5t-58.5 81.5t-35 93.5t-11 93.5z" />
    <glyph glyph-name="qa" unicode="qa" horiz-adv-x="862" 
d="M452 254l1 -11q-1 -3 -6.5 -6t-10.5 -5l-5 -1l4 -5l-15 -4q1 0 2.5 -0.5t0.5 -1.5q-26 -12 -95 26q-50 -58 -122 -58q-60 1 -109.5 48.5t-73 106t-23.5 105.5q0 39 7.5 76.5t18 63.5t22.5 46.5t20.5 30.5t12.5 12q28 13 63.5 -8.5t35.5 -40.5q0 -7 -11 -25.5t-22.5 -51
t-11.5 -74.5q0 -51 15.5 -88t30.5 -49.5t23 -13.5q7 0 16 6q-21 24 -31 47q7 33 31.5 43.5t48.5 -7.5q9 40 9 77q0 39 -8 67t-20 41t-23.5 20.5t-19.5 8.5l-8 1l-5 1l8 7q0 1 -3 3.5t-3 3.5q0 9 12 14q13 8 32 5.5t40 -8t42.5 -23t38 -40t27 -57.5t10.5 -77q-2 -83 -31 -151
q36 -29 78 -52zM396 92l-9 -2q2 -2 4.5 -6t6.5 -11.5t3 -10.5l-11 -41l-9 4q-125 18 -303 -40q-33 -11 -53.5 11t-20.5 57t13 69q50 29 133.5 35.5t152.5 -7.5t85 -41h-5zM864 100q0 -4 7.5 -26t7.5 -25q-1 -16 -7 -32q-1 -2 -3.5 -4.5t-5.5 -4t-4 -2.5q-1 -2 -1 -4.5
t-2 -3.5q-2 -2 -5.5 -4t-4.5 -2l-16 -2q-32 0 -101 147q-14 -6 -22 -8q-42 5 -221 -19q-38 -73 -74 -130q-2 -1 -3.5 1.5t-3.5 6.5t-4 6q-1 1 -7 -0.5t-8 0.5l-6 31q-14 3 -19 17l3 40l-9 -8q-3 -1 -4 2q-4 23 -1 37q2 6 20.5 54t35.5 98.5t37.5 119t36 147t20.5 151.5
q115 14 151 -8q74 2 80 -55q20 -162 56 -284q34 -117 87 -239q1 -6 -5 0q-4 4 -5 3zM550 248q63 1 131 -5q-36 85 -67 177q-33 -97 -64 -172z" />
    <glyph glyph-name="qo" unicode="qo" horiz-adv-x="806" 
d="M403 204q1 -7 -2 -12l-24 -5l3 -6h-17q0 -1 3 -3q-23 -3 -68 35q-43 -30 -92 -29q-61 1 -110.5 49t-72.5 106t-23 105q0 63 19.5 120.5t38.5 84.5t27 31q28 13 62.5 -8t38.5 -40v-1q6 2 5 6l-7 7q3 10 12 14q13 8 33 6t42 -7.5t45 -22.5t41 -39.5t29.5 -59t11.5 -80.5
q0 -114 -52 -191q20 -27 50 -57zM204 322q3 0 5 1q-22 40 -26 71q15 29 41 33t44 -17q10 35 10 78q0 41 -9.5 70.5t-23 42.5t-26.5 20t-23 7l-9 1q2 -18 -11 -21q-1 -1 -6 -10t-6.5 -12l-6.5 -13t-7 -16t-5.5 -17t-5 -20.5t-3 -21.5t-1.5 -25q0 -51 15.5 -88t30.5 -49.5
t23 -13.5zM359 126q78 7 186 -2t177 -21t72 -15q11 -19 9 -23l-11 -41l-9 5q-135 21 -283 13.5t-252 -23.5t-154 -32q-33 -11 -53.5 11t-20.5 57t13 70q50 29 221.5 37.5t328.5 -4.5t172 -39h-5l13 -16q-10 2 -27 5t-66.5 9.5t-96.5 10.5t-107 4t-107 -6zM617 180
q-61 1 -110.5 49t-72.5 106t-23 105q0 63 19.5 120.5t38.5 84.5t27 31q28 13 62.5 -8t38.5 -40v-1q6 2 5 6l-7 7q3 10 12 14q13 8 33 6t42 -7.5t45 -22.5t41 -39.5t29.5 -59t11.5 -80.5q0 -114 -53.5 -193t-138.5 -78zM587 604q-1 -1 -6 -10t-6.5 -12l-6.5 -13t-7 -16
t-5.5 -17t-5 -20.5t-3 -21.5t-1.5 -25q0 -51 15.5 -88t30.5 -49.5t23 -13.5q11 -1 27.5 15t31.5 57t15 94q0 41 -9.5 70.5t-22.5 42.5t-26.5 20t-22.5 7l-10 1q2 -18 -11 -21z" />
    <glyph glyph-name="qu" unicode="qu" horiz-adv-x="901" 
d="M440 85l-9 -2q2 -2 4.5 -6t6.5 -11.5t3 -10.5l-11 -41l-9 4q-74 10 -179.5 -2.5t-174.5 -35.5q-33 -11 -53.5 11t-20.5 57t13 69q50 29 146.5 35.5t178 -9t97.5 -41.5h-5zM715 693q54 -12 96.5 -58.5t64.5 -111.5t32 -140.5t-2 -148t-36.5 -131.5t-71 -94t-106.5 -32
q-117 6 -185.5 73.5t-96.5 165.5l-1 -1q-26 -12 -95 26q-50 -58 -122 -58q-60 1 -109.5 48.5t-73 106t-23.5 105.5q0 39 7.5 76.5t18 63.5t22.5 46.5t20.5 30.5t12.5 12q28 13 63.5 -8.5t35.5 -40.5q0 -7 -11 -25.5t-22.5 -51t-11.5 -74.5q0 -51 15.5 -88t30.5 -49.5
t23 -13.5q7 0 16 6q-21 24 -31 47q7 33 31.5 43.5t48.5 -7.5q9 40 9 77q0 39 -8 67t-20 41t-23.5 20.5t-19.5 8.5l-8 1l-5 1l8 7q0 1 -3 3.5t-3 3.5q0 9 12 14q13 8 32 5.5t40 -8t42.5 -23t38 -40t27 -57.5t10.5 -77q-2 -83 -31 -151q22 -17 44 -31q-5 27 -6 54.5t0.5 56
t1.5 32.5q1 40 10 95.5t18 91.5l9 35q0 1 -0.5 1.5t-2 3.5t-3 5.5t-2.5 6t-2 6t-0.5 5t1.5 3.5q11 9 39 11.5t57.5 -2.5t52 -25t22.5 -51l-12 -71q-12 -70 -20.5 -144.5t4 -166.5t53.5 -147q61 21 97.5 84.5t44 143t0 159.5t-31 142t-52.5 82l7 9q11 0 17 -1l3 -2
q2 -2 6.5 -5.5t10 -8t12 -10.5t13.5 -12.5t14 -14.5t13 -16t11 -16.5t8 -17.5q-3 10 -7.5 20.5t-10 19t-11 16.5t-11 14.5t-11 12t-10 9.5t-8 7t-5.5 5zM406 217q3 0 4 -1l-1 2z" />
    <glyph glyph-name=".notdef" horiz-adv-x="262" 
 />
    <glyph glyph-name=".null" horiz-adv-x="0" 
 />
    <glyph glyph-name="nonmarkingreturn" horiz-adv-x="333" 
 />
    <glyph glyph-name="space" unicode=" " horiz-adv-x="262" 
 />
    <glyph glyph-name="exclam" unicode="!" horiz-adv-x="222" 
d="M199 687q1 -18 -15.5 -209t-29.5 -236q-6 -19 -32.5 -33t-48.5 -14.5t-28 8.5q-20 81 -22.5 213.5t-2.5 221t-13 92.5q16 28 61.5 36t86.5 -13t44 -66zM14 115q4 3 11.5 7.5t29 13.5t41.5 11.5t44.5 -5.5t42.5 -30q5 -19 -0.5 -51.5t-13.5 -59.5l-8 -27q-3 -15 -45 -30.5
t-68 -5.5q-21 43 -27 109t-7 68z" />
    <glyph glyph-name="quotedbl" unicode="&#x22;" horiz-adv-x="267" 
d="M-18 754q15 12 26 17.5t26 7.5t29.5 -11t26.5 -40q-9 -28 -12.5 -65.5t-3 -72t2 -64.5t3.5 -49t2 -20q-4 -16 -7.5 -24.5t-6.5 -12t-7.5 -0.5t-8 7t-11 13t-13.5 15q-25 37 -39.5 110.5t-13.5 123t7 65.5zM126 746q15 11 30.5 17.5t34 8t35 -11t26.5 -39.5
q-11 -28 -18 -71t-9.5 -84.5t-3 -78.5t-0.5 -62v-25q-8 -23 -16 -32.5t-18.5 -5.5t-18.5 11t-21 22q-22 37 -30 121t-4 153t13 77z" />
    <glyph glyph-name="numbersign" unicode="#" horiz-adv-x="800" 
d="M792 475q-2 0 3 -3q2 -1 9 -4l14 -7h-1q-7 -3 -50 -15q-2 0 -42.5 -2.5t-43.5 -3.5l30 -2l30 -2q-13 -4 -44 -12.5t-43 -12.5q-22 0 -55 -2.5t-55.5 -5t-23.5 -3.5q-18 -2 -26 -3q-3 -26 -7 -82q185 17 311 -9q6 -6 -21 -10q-11 -2 -27 -3q-2 0 3 -3q13 -7 13 -8
q-7 -2 -63 -16q-1 -1 -7.5 -4.5t-12 -6.5t-7.5 -3l24 1l24 1q-16 -5 -64.5 -12t-56.5 -10q-12 0 -29 -1t-32 -3t-28.5 -3.5t-21.5 -2.5l-9 -1v-71q0 -15 -22 -84q-28 -86 -48 -78q-2 1 -3 2q-19 78 -22 216q-44 -9 -73 -16v-55q0 -14 -22 -72q-27 -71 -48 -63q-1 1 -3 2
q-15 64 -20 164q-20 -6 -48 -14.5t-39.5 -12t-32 -8.5t-24 -4.5t-16.5 0.5q-28 8 -37 30t-4 41l5 18q2 2 25.5 9.5t70 20.5t98.5 25q0 25 2 71q-21 -6 -52 -14.5t-43.5 -12t-35 -8.5t-27 -4.5t-18.5 0.5q-31 8 -41 31.5t-5 42.5l6 19q2 2 28.5 10t80.5 22t113 26
q12 181 21 190q1 1 4 2t10.5 4t15 4.5t18 1t19 -4t17 -12.5t14.5 -22q7 -16 -10 -143q6 1 27.5 4.5t33.5 5.5q11 160 19 176q8 4 20.5 9t39 -1t38.5 -36q2 -4 2.5 -9t0.5 -13.5t-0.5 -15.5t-2 -20t-2.5 -22t-3.5 -26.5t-3.5 -28.5q215 21 368 -9q4 -4 -23 -7q-15 -2 -59 -6z
M389 303q0 26 2 78q-9 -2 -32 -6.5t-35 -7.5q-3 -40 -6 -76q23 4 71 12z" />
    <glyph glyph-name="dollar" unicode="$" horiz-adv-x="545" 
d="M556 169q0 -35 -7 -62t-18 -45t-31 -30.5t-37.5 -19.5t-46.5 -10.5t-50 -4t-56 -0.5l-5 -102l-18 -31q-10 7 -21 19q-12 37 -22 118q-88 13 -154 59.5t-66 95.5q0 32 7 59.5t15 38.5l7 11l23 28l6 -12q-3 -59 39 -92t110 -44q-4 78 -5 124q-48 16 -84 31t-71.5 36
t-54.5 47.5t-19 56.5q0 80 11 78q0 69 214 127l1 110l-9 12q1 0 11 4t18 4t20 -3.5t23.5 -19t21.5 -41.5q5 -15 8 -43q92 19 115 19q4 -2 9.5 -5.5t18.5 -16t20 -27t7 -37.5t-14 -48q-57 0 -150 -24v-134q234 -91 234 -226zM122 461q0 -2 4.5 -4t14.5 -5t20.5 -6l28 -8
t32.5 -10q0 48 -1 71q-99 -31 -99 -38zM315 142q48 2 81.5 12t33.5 23q0 25 -112 62q0 -4 -3 -97z" />
    <glyph glyph-name="ampersand" unicode="&#x26;" horiz-adv-x="710" 
d="M511 220q1 -1 6 -5.5t6 -6t5 -6.5t5 -8t4 -9.5t4 -13t2.5 -15.5t2 -20.5t0.5 -24.5q0 -64 -99 -114.5t-227 -50.5q-26 0 -57 7t-66.5 24t-64.5 42t-48 64.5t-19 87.5q0 73 37 140.5t99 113.5q-63 52 -63 125q0 38 14.5 77t42.5 74.5t79 58t115 22.5q51 0 83 -34.5
t32 -69.5t-101 -35q-50 0 -96 -23.5t-68 -47t-22 -31.5q0 -5 9.5 -14.5t34.5 -22.5t59 -20q34 8 64 8q36 0 60 -47q22 -45 7 -72q-9 -14 -27 -14q-56 0 -121.5 -34.5t-108.5 -80.5t-43 -79q0 -28 57.5 -52t132.5 -24q47 0 91 10t73.5 23.5t52.5 28.5t34 25.5t12 13.5
q1 4 -1 10t-5 10l-2 4v5.5t3 6.5t12 -6zM729 461q36 -5 61.5 -43t25.5 -68q0 -15 -10.5 -26t-20.5 -14.5t-13 -2.5q-60 16 -154 -12t-162.5 -74t-68.5 -77q-4 -13 -19 -13q-1 0 -4.5 1.5t-9.5 6.5t-11 14t-9 26t-4 39q0 29 37.5 75t93 87.5t129.5 66.5t139 14z" />
    <glyph glyph-name="quotesingle" unicode="'" horiz-adv-x="182" 
d="M19 794q19 15 45 22.5t56.5 -3t46.5 -45.5q-9 -28 -12.5 -65.5t-3 -71.5t2 -63.5t3.5 -48.5t2 -20q-6 -23 -17 -32.5t-24.5 -5.5t-26.5 12.5t-26 21.5q-25 37 -39.5 110.5t-13.5 123t7 65.5z" />
    <glyph glyph-name="parenleft" unicode="(" 
 />
    <glyph glyph-name="parenright" unicode=")" 
 />
    <glyph glyph-name="asterisk" unicode="*" horiz-adv-x="737" 
d="M742 553q-13 -77 -94 -144t-200 -114q10 -16 16 -25q137 -73 150 -127q17 -75 -6 -89q-5 -8 -12 -10q-71 43 -156 159q-38 23 -71 40q-15 -105 -41.5 -185.5t-52.5 -101.5q-20 -2 -32 16t-14 38l-2 19q5 14 21.5 57t29.5 82.5t22 82.5q-93 -21 -173.5 -17.5t-117.5 33.5
q-28 23 -34.5 54.5t-1 48.5t11.5 26l1 1v2q93 12 248 -36q33 3 82 11q0 5 0.5 15t0.5 15q-85 173 -57 232q16 33 31 49.5t23 16.5h7q-1 -1 -1 -3h3q63 -88 61 -281q5 -12 11 -25q157 45 347 160z" />
    <glyph glyph-name="plus" unicode="+" horiz-adv-x="528" 
d="M453 434q25 -4 37.5 -40.5t4 -73.5t-34.5 -40q-5 0 -23.5 1.5t-52 4t-62.5 4.5q-12 -187 -11 -216q0 -3 -9 -3.5t-22.5 3t-28 12t-27.5 27.5t-18 45q-12 59 -19 131q-75 -5 -127 -26q-28 -11 -42 37q-17 55 1 103q12 30 33 35q55 12 122 15q-9 150 -27 156q24 21 55 24.5
t44 -0.5q35 -1 58 -18.5t30 -33t6 -24.5q0 -1 -7 -108q59 -5 120 -15z" />
    <glyph glyph-name="comma" unicode="," horiz-adv-x="187" 
d="M24 227q18 15 45 22.5t58 -2.5t47 -45q-9 -28 -14.5 -60t-7.5 -56.5t-3 -47.5t0 -33.5t0 -14.5q-6 -23 -17.5 -32t-25.5 -6t-27 12t-26 22q-25 37 -34.5 94t-6 98.5t11.5 48.5z" />
    <glyph glyph-name="hyphen" unicode="-" horiz-adv-x="532" 
d="M395 326l-9 -2q2 -2 4.5 -6t6.5 -11.5t3 -10.5l-11 -41l-9 4q-27 1 -67 3.5t-57.5 3t-43.5 -0.5t-47 -5t-45 -12q-33 -11 -53.5 11t-20.5 57t13 69q94 33 198.5 17t129.5 -59h-5z" />
    <glyph glyph-name="period" unicode="." horiz-adv-x="178" 
d="M5 198q18 15 44 20.5t58.5 -6.5t55.5 -46q4 -14 1 -36t-8.5 -38.5t-11.5 -31.5l-5 -15q-2 -14 -30.5 -20.5t-55.5 4.5q-32 49 -46 103.5t-2 65.5z" />
    <glyph glyph-name="slash" unicode="/" horiz-adv-x="414" 
d="M307 757h10.5t23 -3t29.5 -9.5t24.5 -21t13.5 -35.5q2 -23 -47 -130.5t-129.5 -292.5t-133.5 -346q0 -2 -7.5 -5t-18 -3.5t-21.5 2.5t-21 16t-14 35q17 96 83.5 266.5t131.5 325t76 201.5z" />
    <glyph glyph-name="zero" unicode="0" horiz-adv-x="541" 
d="M306 666q27 0 55.5 -6t63 -24t61 -46.5t44.5 -79t18 -115.5q0 -185 -68 -289t-159 -111q-75 -6 -133.5 17t-93.5 65.5t-57 100t-28 120.5t-4 126.5t13.5 119t27.5 97t34 61.5q51 22 89 3.5t47 -57.5q11 7 26 12q14 6 64 6zM286 622q-53 -31 -56.5 -93t35 -131.5
t105.5 -130.5q30 72 30 129q0 124 -28.5 180.5t-57.5 51.5zM262 96q9 0 34 34.5t49 81.5q-47 27 -89 76.5t-68 107.5q-1 -17 -1 -54q0 -57 6.5 -103t16 -71.5t21 -42.5t19 -23t12.5 -6z" />
    <glyph glyph-name="one" unicode="1" horiz-adv-x="331" 
d="M234 770q22 -2 40.5 -8.5t38 -20.5t23.5 -36t-5 -56q-44 -127 -68 -240.5t-26.5 -185t1.5 -124t10 -77.5l6 -26q-3 -6 -21 -14.5t-42 -6t-36 24.5q-66 123 -50 339q-31 -9 -59.5 8t-40.5 42.5t0 38.5q30 33 76.5 118.5t78.5 154.5l32 69q21 4 42 0z" />
    <glyph glyph-name="two" unicode="2" horiz-adv-x="498" 
d="M368 162q110 -25 162 -117q26 -47 20 -68q-2 -7 -7 -3q-1 1 -4 3q-136 108 -412 -33q-37 5 -82 54.5t-46 93.5q-1 3 1 9q6 21 33 35q74 90 184 258t110 205q-24 5 -77.5 -38t-101.5 -87t-58 -42q-19 4 -47 34.5t-28 54.5q0 32 56.5 90t126.5 101t103 35q60 -14 109 -69.5
t48 -137.5q-1 -49 -68 -161t-150 -207q81 0 128 -10z" />
    <glyph glyph-name="three" unicode="3" horiz-adv-x="555" 
d="M346 505q65 -18 115 -53.5t76.5 -73t43.5 -79.5t21.5 -69.5t4.5 -46.5q0 -29 -16.5 -61.5t-50.5 -64.5t-97.5 -53t-145.5 -21q-83 0 -148.5 22t-103 57t-56.5 73t-19 74q0 26 7.5 49.5t18 38.5t21.5 27t19 17l7 5l5 1q3 -3 -3 -25q-13 -44 4 -81.5t55.5 -60.5t89 -39
t105 -19t102 2t82.5 22t44 42q-25 47 -67.5 84.5t-89.5 58.5t-98.5 34.5t-93.5 12.5t-75 -7q-6 -2 -19.5 25t-16.5 56.5t18 51.5v3q1 0 3 1h1q14 9 32 10q3 0 10 1t10 1q96 26 174 75q-176 -13 -236 -13q-31 0 -47.5 41.5t-10 83t31.5 41.5q-11 -11 4 -14q45 -2 192.5 -1
t215.5 3v1v-1q3 0 4 1q5 0 12 -17q21 -32 21 -90q0 -69 -156 -125z" />
    <glyph glyph-name="four" unicode="4" horiz-adv-x="523" 
d="M441 487q36 -7 66 -41t20 -54q-22 -42 -37.5 -114.5t-19.5 -124.5l-4 -52q-1 -6 -4.5 -23t-6 -28t-7 -27t-10.5 -26.5t-14 -20t-19 -13.5t-24 -2q-24 19 -38 110.5t-6 197.5q-167 -54 -264 -106q-22 -11 -57 19.5t-35 69.5q0 30 6.5 46.5t24.5 28.5q24 57 44 107.5
t34 89.5t25 72t17.5 59t11 44.5t6.5 34.5l3 24t1.5 17t0.5 10q1 11 42 6q71 -8 104 -55q38 -53 1 -136q-13 -28 -31.5 -71t-32 -74t-24.5 -54q82 21 152 26q24 70 75 60z" />
    <glyph glyph-name="five" unicode="5" horiz-adv-x="591" 
d="M328 491q104 0 182.5 -74.5t78.5 -174.5q0 -71 -52 -137.5t-118 -103t-116 -36.5q-49 0 -94.5 24.5t-74.5 58t-46.5 64.5t-17.5 48q0 40 10.5 69t21.5 38l10 9q21 -6 21 -22l-3 -14q-7 -21 -8 -38t5 -29t13.5 -20.5t21 -14t24 -8.5t27 -4t24.5 -1.5t21 -0.5q63 0 140 73
t77 116q0 21 -63.5 24t-162 -13t-194.5 -46q-13 -4 -38.5 14t-43.5 48t-9 53q-3 8 2.5 18.5t11.5 16.5l7 7q92 110 129 187q-18 25 -32 56q-4 9 5 15.5t19 6.5h4q11 26 26 26q25 0 51 -23q47 3 88.5 8t73.5 11.5t57 13t45.5 14.5t32 12.5t23.5 10.5l12 6q9 4 27 -26
q34 -60 18 -114q-20 -62 -111 -76q-152 -22 -231 -5q-22 -51 -43 -84q77 17 149 17z" />
    <glyph glyph-name="six" unicode="6" horiz-adv-x="566" 
d="M232 326l-26 -10l-12 2l36 21l-61 -16l53 28l50 13l-8 5l-84 -23l19 11l57 20q-13 2 -34 -4q-2 -1 -32 -12q-18 -7 -18 -4q1 3 17 11q65 33 131.5 23.5t121 -42t89 -83.5t34.5 -101q0 -94 -78.5 -153t-163.5 -59q-44 0 -97.5 22t-105 62t-86 107t-34.5 147q0 79 32 166
t76.5 150t90.5 104.5t74 41.5q21 0 66 -29.5t45 -61.5q-1 -7 -38.5 -48.5t-82 -93t-81.5 -128.5t-37 -148q0 -85 30.5 -128t73.5 -41t86 23t73.5 59t30.5 71q0 15 -3 27.5t-7.5 21.5t-11.5 16t-14 11.5t-15 7t-15 4t-14.5 2t-12.5 0.5h-10l-4 -1q-7 10 -12 11q-16 8 -52 -5
q-16 -6 -22.5 -0.5t-13.5 3.5z" />
    <glyph glyph-name="seven" unicode="7" horiz-adv-x="536" 
d="M539 677q20 -26 32 -61t8 -67.5t-28 -42.5q-106 -44 -167 -135q35 -5 51 -12q17 -10 16.5 -28t-9.5 -35l-9 -18l-96 2q-45 -112 -66 -296q-6 -56 -63 2l-15 16q-18 137 8 265q-22 -4 -44 -12q-17 -6 -29.5 22.5t-8.5 60t27 33.5q48 5 86 5q40 107 111 193
q-179 -4 -290 -41q-29 -10 -50 37t-14 100t45 56q156 13 293.5 7t186.5 -27q18 -7 25 -24z" />
    <glyph glyph-name="eight" unicode="8" horiz-adv-x="485" 
d="M464 758q35 -2 48 -71q11 -59 -5 -87q-7 -13 -17 -7q-30 17 -149 -5.5t-206 -63.5q50 -24 104 -72l6 6l148 128l-103 -110l102 86l-3 -11l-44 -57l18 7l-31 -39l23 22l3 -15l-47 -92q55 -67 85.5 -137t21.5 -126q-16 -97 -80.5 -146.5t-132.5 -45.5q-56 3 -91 54t-44 115
t1 124q8 54 75 136q-88 57 -128 99q-37 41 -36.5 109t29.5 89q45 33 158.5 60.5t204.5 38.5zM338 156q5 33 -22 65.5t-80 69.5q-67 -81 -74 -134q-10 -62 44 -71q48 -7 96 24q32 21 36 46z" />
    <glyph glyph-name="nine" unicode="9" horiz-adv-x="525" 
d="M360 742q86 -4 131.5 -49.5t41.5 -103.5q-3 -34 -31.5 -159t-50 -243t-11.5 -161q12 -52 -21 -48q-31 3 -69 37q-6 6 -8 9q-49 76 -29 263q-77 -46 -131 -46q-82 0 -138.5 73.5t-51.5 158.5q3 41 33.5 109t73.5 122t75 54q44 0 75 -11t44 -27t19.5 -31.5t5.5 -26.5v-11
q-54 -9 -109 -91.5t-62 -182.5q63 27 121 82.5t89 120.5q6 49 7 67q1 20 -1 38t-5 27.5t-5.5 17t-1 10t8.5 2.5z" />
    <glyph glyph-name="colon" unicode=":" horiz-adv-x="215" 
d="M34 260q18 15 44 20.5t58.5 -6.5t55.5 -46q4 -14 1 -36t-8.5 -38.5l-10.5 -31.5l-6 -15q-2 -14 -30.5 -20.5t-55.5 4.5q-32 49 -46 103.5t-2 65.5zM31 624q18 15 41 20.5t52 -6.5t52 -46q3 -14 2 -30t-5.5 -35.5t-8.5 -34t-8 -26.5l-4 -12q-3 -13 -30.5 -12t-55.5 13
q-21 32 -32.5 71.5t-10 63t7.5 34.5z" />
    <glyph glyph-name="semicolon" unicode=";" horiz-adv-x="209" 
d="M26 236q32 26 79 26t70 -51q-8 -28 -13 -62.5t-6 -64t-0.5 -55t1.5 -41t1 -16.5q-6 -23 -17.5 -32t-25.5 -6t-27 12t-26 22q-25 37 -36.5 100.5t-9.5 112t10 55.5zM18 625q18 15 41 20.5t52 -6.5t52 -46q3 -14 2 -30t-5.5 -35.5t-8.5 -34t-8 -26.5l-4 -12
q-3 -13 -30.5 -12t-55.5 13q-21 32 -32.5 71.5t-10 63t7.5 34.5z" />
    <glyph glyph-name="less" unicode="&#x3c;" horiz-adv-x="708" 
d="M333 477q135 3 369 -13q-7 -28 -50 -66t-83 -51q-3 0 -232 -19q44 -26 46 -37q5 -41 -20.5 -80.5t-80.5 -32.5q-19 22 -48.5 45t-59 41t-55.5 32t-43 22.5t-18 9.5q-24 26 -16 47q-7 17 10 43q0 1 15.5 12.5t38.5 30.5t48.5 41.5t50 51t38.5 53.5q53 18 85.5 -16
t35.5 -75q0 -10 -31 -39z" />
    <glyph glyph-name="equal" unicode="=" horiz-adv-x="506" 
d="M101 533q77 10 146.5 7t98 -7.5t67.5 -13.5q25 -6 37.5 -40t4 -64.5t-35.5 -27.5q-179 18 -309 -7q-28 -5 -42.5 32t-5.5 77.5t39 43.5zM101 342q71 15 168 13t144 -17q25 -8 37 -41t4 -65t-35 -35q-4 0 -46.5 7t-113 6t-150.5 -20q-28 -7 -42 28t-5 75.5t39 48.5z" />
    <glyph glyph-name="greater" unicode="&#x3e;" horiz-adv-x="727" 
d="M664 390q8 -21 -16 -47q-1 -1 -18 -9.5t-43 -22.5t-55 -32t-59 -41t-49 -45q-55 -7 -80.5 32.5t-20.5 80.5q2 9 39 32q-187 -2 -358 14q8 28 51 66t83 50q2 0 41 3.5t98.5 8.5t100.5 8q-36 33 -36 43q3 41 35.5 75t85.5 16q15 -25 39.5 -53.5t50 -51t48.5 -41.5
t38.5 -30.5t15.5 -12.5q15 -27 9 -43z" />
    <glyph glyph-name="question" unicode="?" horiz-adv-x="438" 
d="M301 801q52 0 89.5 -16t54.5 -40.5t24 -45t7 -37.5q0 -34 -28 -81t-68 -94l-80 -94t-68 -93.5t-28 -79.5l33 3q14 -55 -12 -72q-14 -10 -42.5 4t-53 50.5t-24.5 81.5q0 43 36.5 114t81 131.5t81 110.5t36.5 57q0 6 -40.5 -9.5t-93 -57.5t-77.5 -99q-25 -28 -52.5 -26
t-49 16.5t-21.5 24.5q1 27 23.5 68t59.5 83t94 71.5t118 29.5zM107 86q4 3 10 6.5t24 11t35 10t37.5 -4.5t35.5 -26q4 -16 -0.5 -43t-10.5 -50l-7 -22q-2 -12 -35 -22.5t-55 -1.5q-16 24 -20.5 55.5t-5.5 55t-8 31.5z" />
    <glyph glyph-name="at" unicode="@" horiz-adv-x="697" 
d="M338 693q163 8 267 -106q80 -87 87 -199q7 -107 -60 -161q-44 -35 -111 -35q-46 0 -92 33t-49 49q-1 4 -2 10q-29 -51 -104 -51q-71 0 -92.5 65.5t11.5 131.5t95 66q29 0 53.5 -21.5t39.5 -56.5q7 -10 14 -29q28 -61 75.5 -66.5t84 36t36.5 100.5q0 68 -85 103
q-92 38 -204 14q-130 -27 -181 -121q-27 -49 -27 -110q0 -76 21.5 -126t56.5 -69.5t77 -25.5t84 3t77 20t56 21l22 11q13 -34 9.5 -60.5t-12.5 -46t-28.5 -33.5t-39 -22.5t-44 -13.5t-43 -6.5t-36.5 -1.5q-32 0 -79 22.5t-95.5 63t-82.5 110.5t-34 153q0 72 18.5 130
t48 93.5t65 61.5t71.5 37.5t65.5 18.5t48.5 7zM247 342q19 -8 43 5t29.5 33.5t-14.5 39.5q-9 -3 -17.5 -14.5t-21.5 -33.5t-19 -30z" />
    <glyph glyph-name="A" unicode="A" horiz-adv-x="519" 
d="M515 100q0 -4 7.5 -26t7.5 -25q-1 -16 -7 -32q-1 -2 -3.5 -4.5t-5.5 -4t-4 -2.5q-2 -2 -2 -4.5t-1 -3.5q-2 -2 -5.5 -4t-4.5 -2l-16 -2q-32 0 -101 147q-14 -6 -22 -8q-42 5 -221 -19q-38 -73 -74 -130q-2 -1 -3.5 1.5t-3.5 6.5t-4 6q-1 1 -7 -0.5t-8 0.5l-6 31
q-14 3 -19 17l3 40l-9 -8q-3 -1 -4 2q-4 23 -1 37q2 6 20.5 54t35.5 98.5t37.5 119t36 147t20.5 151.5q115 14 151 -8q74 2 80 -55q20 -162 56 -284q34 -117 87 -239q1 -6 -5 0q-4 4 -5 3zM201 248q63 1 131 -5q-36 85 -67 177q-33 -97 -64 -172z" />
    <glyph glyph-name="B" unicode="B" horiz-adv-x="623" 
d="M620 232q6 -112 -79 -167t-223 -56q-2 0 -30 -0.5t-43 0t-41.5 3t-48.5 8.5q-1 -2 -5 -8.5t-6 -10.5q-4 -5 -8 -1t-7 12q-1 -5 -1.5 -9.5t-1 -7l-1 -5t-1 -4t-1.5 -3t-3 -2.5t-7.5 -9.5t-7.5 -9.5q-2 11 -4 79q-86 47 -101 162q36 -22 98 -37q-2 111 -4 160q-15 0 -51 -2
q-2 1 -5.5 4t-11 12.5t-11 20.5t-2.5 30.5t10 40.5q4 4 25 8l-1 11q17 4 43 11q-3 58 -6 97q-17 0 -23 4q-13 10 -20 40t3 49q11 2 29 5q-2 9 -4 12q3 1 8 3t20 6t28.5 5t30.5 -1.5t29 -10.5q192 21 276 -4q41 -30 41 -133q-1 -5 -4.5 -14t-25.5 -32t-57 -42
q196 -47 205 -214zM218 567q0 -12 0.5 -33.5t0.5 -31.5q108 37 146 69q-13 8 -147 -4zM496 232l-3 16q-25 60 -197 76q-36 3 -78 4q-4 -98 -14 -175q175 -5 292 79z" />
    <glyph glyph-name="C" unicode="C" horiz-adv-x="515" 
d="M510 330q36 -132 -36.5 -230.5t-204.5 -98.5q-52 0 -100 19.5t-87.5 57.5t-62 100.5t-19.5 141.5q7 192 141 296q88 68 187 69q77 1 98 -40q5 -11 5 -24q-1 -36 -17 -76.5t-39 -49.5q-81 38 -146 14.5t-106 -82t-43 -122.5q-2 -51 52 -101.5t130 -50.5q87 0 156 65.5
t70 112.5q1 33 20 2z" />
    <glyph glyph-name="D" unicode="D" horiz-adv-x="605" 
d="M-84 662q9 9 50.5 15.5t104.5 6t136 -9t145 -35.5t130.5 -68t94.5 -111.5t36 -161.5q-1 -69 -32.5 -121.5t-75.5 -81t-100.5 -46.5t-97.5 -23.5t-75 -5.5q-5 0 -27 2l-6 -13l-18 1l-10 -24l-11 3q-6 -12 -9 -12q-1 10 -3 58q-138 48 -138 220q1 1 2 3t3.5 6t5 5t4 -2
t1.5 -13q0 -19 33.5 -42.5t84.5 -36.5q-6 258 -18 359q-87 3 -180 -19q-28 11 -42 64.5t12 82.5zM231 164h2q1 1 2 1v118l-9 -118l2 -1h3zM530 330q3 44 -73 101t-192 85q-1 -129 -12 -351q94 8 183.5 60t93.5 105z" />
    <glyph glyph-name="E" unicode="E" horiz-adv-x="498" 
d="M150 173q115 41 234 63t199 8q0 -3 -5 -9.5t-10 -10.5l-4 -5l-5 -12l-38 -19l28 -3q-27 -11 -44 -24q-7 -6 -16.5 -18t-16.5 -15q-9 0 -67 -15.5t-161.5 -53t-192.5 -82.5q-15 -8 -35.5 23t-24 65t17.5 52q14 6 22 9q0 19 -1.5 111t-2.5 137.5t-3.5 116t-6.5 112t-9 59.5
q4 2 12 4.5t29 6t39 2.5q98 15 399 15v-26q-18 -8 -31 -22l-23 -18h20l-32 -18l-1 -12q-40 -18 -46 -20q-2 0 -30.5 -5t-78.5 -14t-85 -15q0 -4 -0.5 -12t-0.5 -12q-2 -48 -4 -74q147 20 252 20l-8 -21l-4 -24l-31 -18h13l-33 -22l2 -10l-36 -10l-6 -12q-36 -17 -50 -23
q-3 0 -19 -4.5t-44.5 -12.5t-47.5 -13q-5 -71 -13 -119z" />
    <glyph glyph-name="F" unicode="F" horiz-adv-x="494" 
d="M461 712q9 -8 17.5 -32t10.5 -52t-17 -49.5t-60 -21.5q-2 0 -35.5 -2t-90.5 -5.5t-99 -6.5l-3 -84q118 13 223 13l-8 -21l-3 -24l-31 -17l12 -1l-32 -21l1 -10l-36 -9l-7 -12q-35 -17 -50 -23q-4 0 -76 -19l-14 -204l-7 8l-4 -25l-12 -3l-13 -38l-29 -18l-17 -24l-9 5
l-8 -26q-8 -12 -12 -12q-2 13 -5 106.5t-7 230.5t-9 224l-12 3l7 12l-19 6l-27 6l9 10l-15 13l16 14l-39 1q-8 12 -8 18q5 1 81 13q-3 32 -8 57q-1 3 3 8.5t11 7.5q105 32 142 -50q248 40 289 54z" />
    <glyph glyph-name="G" unicode="G" horiz-adv-x="528" 
d="M525 282q12 -117 -60 -198t-190 -81q-52 0 -100 19.5t-87.5 57.5t-62 100.5t-19.5 141.5q7 192 141 296q88 68 187 69q77 1 98 -40q5 -11 5 -24q-1 -36 -17 -76.5t-39 -49.5q-81 38 -146 14.5t-106 -82t-43 -122.5q-2 -51 52 -101.5t130 -50.5q58 0 109.5 31.5t84.5 75.5
q-32 2 -81.5 6.5t-84 8t-37.5 3.5q-47 14 -102 84q-5 5 133 25q-19 1 -38 0t-38.5 -2.5t-34.5 -3t-25 -3.5l-11 -1q-11 3 -12 8q10 1 70 9.5t94 12t98 8t81 -1.5q28 -3 42.5 -50t8.5 -83z" />
    <glyph glyph-name="H" unicode="H" horiz-adv-x="487" 
d="M494 659q1 -4 2 -9t1.5 -9.5t0.5 -11.5v-12t-1 -14.5t-1.5 -15t-2 -18t-2.5 -19.5t-3 -22t-3 -24q-12 -95 -18.5 -196t-6.5 -155v-54l-4 -10l-6 1l-6 -31l-7 1l-7 2l-14 -61l-11 9l-5 -9l-12 -1q-3 -15 -7 -16q-2 -1 -7 -1q-31 78 -44 220q-6 -4 -13 -6q-33 0 -175 -25
l-5 -73l-7 9l-5 -26l-12 -3l-13 -38l-29 -18l-17 -24l-9 6l-8 -27q-9 -11 -13 -12q-1 8 -9.5 327t-22.5 387q-3 11 14 16t34 7.5t41 -2t41.5 -19.5t29.5 -50t10 -87q-2 -94 -10 -232q82 10 171 2q-10 236 11 372q31 17 90 10.5t70 -38.5z" />
    <glyph glyph-name="I" unicode="I" horiz-adv-x="216" 
d="M23 684q0 11 13 15q16 5 32.5 6.5t39 -3.5t39 -19.5t28 -48.5t10.5 -83q-2 -86 -8 -192t-11 -169l-6 -64q-4 -8 -14 -24l-20 -40q-12 -4 -19 -13l-8 -20l-8 1l-12 -19l-9 4q-2 -1 -6 -7t-6 -6q-1 7 -11 312t-24 370z" />
    <glyph glyph-name="J" unicode="J" horiz-adv-x="500" 
d="M156 340q-20 -73 -3 -136t60 -114q74 22 110 114t32.5 194.5t-30.5 193t-65 112.5l7 10q3 0 8.5 -0.5t8.5 -0.5q2 0 20 -12.5t42 -36.5t34 -47q-4 13 -10.5 25.5t-14 22t-15.5 18t-15 14.5t-12.5 10.5t-8.5 6.5l-3 2q65 -10 112 -68t67 -137.5t17 -169.5t-28.5 -166.5
t-79 -126.5t-125.5 -50q-67 0 -118.5 20t-79.5 52t-42.5 71.5t-13.5 78t13 72.5q14 40 45 59.5t57 15t31 -26.5z" />
    <glyph glyph-name="K" unicode="K" horiz-adv-x="519" 
d="M497 591q-24 -103 -158 -225q61 -61 102.5 -174.5t21.5 -185.5q1 42 -8 82t-19 60l-9 19q4 -14 10.5 -37t13.5 -69.5t1 -66.5l-5 6q-11 -21 -18 -22l-28 -5l-9 10q-16 64 -67.5 156.5t-93.5 141.5q-47 -30 -71 -41l-10 -142q-7 -11 -17 -29l-21 -41q-13 -4 -20 -12
l-9 -20h-8l-12 -20l-10 5q-2 -1 -6 -7.5t-6 -6.5q-2 9 -12 320.5t-25 377.5q0 12 15 15q16 5 33 6.5t40.5 -4t41 -20t29 -48.5t10.5 -84t-5 -143q141 120 184 292q9 15 28 17t40.5 -7.5t40.5 -24.5t29.5 -35.5t6.5 -37.5z" />
    <glyph glyph-name="L" unicode="L" horiz-adv-x="418" 
d="M434 226l1 -37l-14 -28l6 -3q-11 -10 -18 -12q-6 0 -51 -22.5t-123 -70t-148 -99.5q-15 -11 -47.5 27t-45 80t13.5 64q7 5 14 8q8 105 12 162t8.5 159t1 164t-15.5 86q4 2 10.5 4.5t25 7t35 5.5t37 -4.5t35.5 -19.5t25 -43.5t10 -71.5q0 -147 -47 -380q174 79 276 72
q1 -1 -1.5 -2t-5.5 -2.5l-6 -3t-5.5 -3t-1.5 -2.5q1 -2 15 -5.5t15 -6.5t-2 -8.5t-6 -10.5z" />
    <glyph glyph-name="M" unicode="M" horiz-adv-x="673" 
d="M645 512q1 -98 9 -202.5t16 -159.5l7 -55l-10 -36l-10 -2l-4 -25l-8 -30l-13 -2l-2 -23q-11 2 -16 -1q-2 0 -3 -5t-2 -6q-71 130 -112 429q-49 -155 -117 -337q-4 -12 -29 -21t-51 3t-30 53q-13 29 -49.5 118.5t-55.5 135.5q-7 -67 -16 -133t-14 -99l-5 -32l-13 2
l-38 -67l-26 -8l-8 -16q-2 1 -5 3.5t-9.5 5t-10.5 0.5t-10.5 -14t-9.5 -12q11 117 19 328.5t0 348.5q0 1 -2 3l2 1q-2 21 -4 30q4 2 11.5 3.5t30 4t39.5 -3.5q44 9 80.5 -1.5t46.5 -42.5q64 -222 97 -348q63 172 153 351q-1 9 -1 22q35 22 88 23.5t75 -30.5q4 -8 6 -18
t3 -22.5t1 -28.5v-37v-47z" />
    <glyph glyph-name="N" unicode="N" horiz-adv-x="518" 
d="M503 573q-3 -98 -3 -180.5t2 -133t5 -93.5t6.5 -61.5t5.5 -37.5t3 -22t-1 -14q-6 -16 -42.5 -27t-65.5 -9q-21 2 -32 16t-16 44q-64 95 -205 367l-25 -315l-6 2l-25 -49l-15 -8l-12 -33l-12 10l-14 -34q-12 0 -18 -3q-5 -3 -12 -12q-1 7 -5.5 326t-18.5 368q17 6 41 9
q40 20 89.5 10t66.5 -54q54 -146 169 -389q5 137 19 283t27 192q2 -1 4 -11.5t3 -11.5t2.5 2.5t3 6.5t2.5 2q2 -2 7.5 -19.5t6.5 -19.5q3 -3 7.5 -3.5t7.5 0.5l3 1q27 -46 44 -90z" />
    <glyph glyph-name="O" unicode="O" horiz-adv-x="516" 
d="M-16 347q0 73 12 134t27 95.5t34 60.5t28.5 34.5t14.5 10.5q34 18 79.5 -12.5t45.5 -60.5q0 -7 -13.5 -26t-30 -43.5t-30 -76t-13.5 -114.5q0 -55 10 -101t24.5 -73.5t31.5 -47.5t29 -27.5t19 -8.5q10 -1 24.5 9t31.5 33t32 54.5t24.5 80.5t9.5 105q0 70 -15 120
t-36.5 72t-43 33.5t-36.5 11.5l-15 1l-7 2l13 11h8q7 1 21 -2t27.5 -7t27 -12.5t19.5 -19.5q-8 21 -36 33.5t-52 16.5l-24 4q0 17 19 25q22 10 49.5 10.5t58 -8t59.5 -31.5t52 -56t37 -86t14 -118q0 -89 -23.5 -163.5t-59 -118.5t-73 -68t-69.5 -24q-62 0 -114 22
t-86.5 57.5t-58.5 81.5t-35 93.5t-11 93.5z" />
    <glyph glyph-name="P" unicode="P" horiz-adv-x="556" 
d="M557 438q0 -44 -15.5 -80t-39 -59t-57.5 -40t-65 -26t-67.5 -14.5t-60 -6.5t-47.5 -1l-8 -114q-7 -12 -18 -30l-21 -42q-12 -4 -20 -13l-9 -22l-8 1l-13 -20l-9 5q-2 -1 -6 -7.5t-7 -7.5q-2 15 -10 286q-82 53 -82 171q15 29 15 -1q0 -12 17 -26.5t46 -27.5q-3 80 -8 173
q-5 -1 -18 -3.5t-20 -3.5q-21 -15 -44 24q-26 43 -16 83q7 28 33 34q45 9 51 10v3q-3 11 13 16q57 16 96 -4q56 2 111.5 2t107.5 -17t92 -44t63.5 -78t23.5 -120zM477 460q3 40 -68.5 67t-187.5 25v-9q-3 -110 -9 -205q94 2 178 38.5t87 83.5z" />
    <glyph glyph-name="Q" unicode="Q" horiz-adv-x="549" 
d="M553 15q2 -8 -2 -15q-2 -3 -9.5 -5.5t-14.5 -3.5l-7 -1l5 -7l-21 -2q0 -1 4 -4q-37 -9 -113 50q-40 -25 -74 -25q-77 0 -138.5 32.5t-97 84t-53.5 109t-18 115.5q0 65 10 123.5t24 95.5t29.5 65t26 40t13.5 13q34 17 76 -7.5t52 -54.5q2 -6 2.5 -10.5t0 -8.5t-1.5 -6.5
t-3.5 -5l-3.5 -3.5t-4.5 -3t-4.5 -3q-60 -104 -60 -233q0 -54 10 -99t24.5 -72t31.5 -46.5t29 -27t19 -8.5q11 -1 30 13q-59 67 -75 128q20 50 63 51t67 -48q2 -4 6.5 -12.5t6.5 -12.5q25 68 25 158q0 65 -13.5 114.5t-33 74t-39 40t-33.5 18.5l-13 3l-7 3l10 6
q-23 6 -23 10q0 1 10 3t25 4.5t27 3.5q-12 2 -25.5 1t-23.5 -2l-11 -2q14 14 33 22q18 8 41 9.5t47.5 -6t48.5 -22t45.5 -40t38 -58.5t26.5 -80t10 -102q0 -169 -83 -277q39 -42 79 -73z" />
    <glyph glyph-name="R" unicode="R" horiz-adv-x="547" 
d="M566 425q-1 -130 -134 -188q29 -52 40 -111t1 -104q3 41 -6 80.5t-19 58.5l-10 19q4 -14 10 -36.5t13.5 -68.5t1.5 -65l-5 6q-12 -20 -18 -21l-26 -6l-9 10q-24 95 -110 204q-43 -6 -89 -6h-6l-7 -103q-7 -12 -17 -28l-20 -40q-12 -4 -19 -13l-8 -20l-8 1l-12 -19l-9 4
q-2 -1 -6 -7t-6 -6q-2 14 -10 267q-53 32 -72 97q-7 28 -4 41q4 -20 13.5 -43t16.5 -30q-29 58 -20 97q8 -25 63 -47q-6 127 -9 185q-29 -4 -61 -12q-26 10 -39 57t11 72q7 7 35.5 15.5t71.5 17.5t95.5 12t106.5 0t104.5 -20.5t89.5 -46.5t63 -81.5t23 -121.5zM488 453
q3 44 -71.5 73t-202.5 24q1 -10 1 -35q-1 -90 -8 -192q94 1 185.5 41.5t95.5 88.5z" />
    <glyph glyph-name="S" unicode="S" horiz-adv-x="511" 
d="M397 715q4 -2 9.5 -6t17.5 -17.5t18.5 -28.5t5 -39.5t-16.5 -50.5q-53 0 -121.5 -13t-111.5 -26.5t-43 -17.5t27 -13.5t68 -22.5t88 -37.5t87 -54t65 -76t22 -99.5q-3 -54 -19.5 -94.5t-41 -65t-60 -39.5t-72 -20.5t-80.5 -5.5q-95 0 -161 77t-62 144q2 35 7 67t9 46
l5 15l-3 -98q0 22 3 49t6 44l3 16l16 18l5 -12q-9 -163 118 -198q83 -23 181 12q60 22 62 42q1 20 -30 39.5t-78.5 35t-103 37t-102.5 44t-77 57t-28 75.5q5 85 16 83q2 38 54.5 66.5t123 42t122 19.5t72.5 6z" />
    <glyph glyph-name="T" unicode="T" horiz-adv-x="451" 
d="M269 692q99 -4 313 -20q-4 -35 -34 -74t-89 -58q-30 -1 -79.5 -3.5t-60.5 -3.5q-3 -90 -11.5 -198t-15.5 -171l-7 -63l-22 -49l-8 1l-16 -36q-5 8 -12 -1l-9 -21h-8l-13 -20l-9 25q-9 -34 -13 -35q-2 13 -3.5 106t-3.5 229.5t-6 224.5q-90 -5 -158 -9q-39 -1 -57 40
t-9.5 83.5t34.5 46.5q64 9 179 9q6 6 11 8q65 18 107 -11z" />
    <glyph glyph-name="U" unicode="U" horiz-adv-x="532" 
d="M209 606l-12 -70q-12 -71 -20.5 -145.5t4 -166.5t53.5 -147q61 21 97.5 84.5t44 143t0 159.5t-31 142t-52.5 82l7 9q11 0 17 -1l2 -2q3 -2 7.5 -5.5t10 -8t12 -10.5t13.5 -12.5t14 -14.5t13 -16t11 -16.5t8 -17.5q-3 10 -7.5 20.5t-10 19t-11 16.5t-11 14.5t-11 12
t-10 9.5t-8 7t-4.5 4l-2 2q54 -12 96.5 -58.5t64.5 -111.5t32 -140.5t-2 -148t-36.5 -131.5t-71 -94t-106.5 -32t-108.5 24.5t-79 52.5t-53 74t-33.5 81.5t-17.5 83t-7.5 71t0 51.5q1 40 10 95.5t18 90.5l9 36q-1 3 -2 7t-2 14t2 10q11 9 37.5 11.5t55 -2.5t50 -25t21.5 -51
z" />
    <glyph glyph-name="V" unicode="V" horiz-adv-x="552" 
d="M547 630q3 -18 -1 -38q-2 -5 -32.5 -79t-56.5 -143t-56.5 -176.5t-43.5 -201.5q-89 -13 -127.5 -4t-43.5 42q-23 -14 -28 -3q-1 5 -15.5 61.5t-29 111.5t-37.5 131t-43.5 135t-44.5 108t-43 64q4 3 10.5 7t26 12t38.5 11.5t44 0t45.5 -18t40 -47.5t30.5 -83
q8 -35 25 -98.5t28.5 -112.5t16.5 -86q106 283 248 507q2 1 3 -1.5t2.5 -7.5t3.5 -7q1 -1 7 1t7 0l4 -31q12 -5 16 -18l-6 -42l10 8q2 0 2 -2z" />
    <glyph glyph-name="W" unicode="W" horiz-adv-x="677" 
d="M716 687q33 -41 -31 -176q-99 -208 -102 -496q-4 -2 -11.5 -4t-28 -4.5t-37.5 -0.5q-44 -9 -72 32q-51 134 -99 406q-94 -282 -104 -425q-56 -21 -87 7l-3 -4q-2 -2 -6 4.5t-7 13.5l-3 8q1 -35 -1 -35q-7 0 -10 9q-1 5 -17.5 99t-33.5 180t-43.5 186t-50.5 146
q-16 5 -23.5 14.5t1.5 17.5q4 2 11 6t28 10.5t40.5 9t44.5 -3.5t45 -22.5t37 -52t25 -87.5q15 -98 21 -192q59 163 110 246q-1 3 -2.5 8t-1.5 6q-6 2 -7 8t6 11q94 32 110 -22q10 -32 29 -133.5t30 -148.5q72 232 178 419q2 0 3 -2.5t2 -4.5v-3l13 8q7 -16 11 -20
q4 -3 19 -9.5t17 -8.5z" />
    <glyph glyph-name="X" unicode="X" horiz-adv-x="555" 
d="M470 706q3 -1 9 -2.5t20.5 -7.5t25.5 -14t19.5 -22.5t7.5 -31.5q-1 -15 -30.5 -48.5t-93 -100.5t-113.5 -129q83 -155 211 -274q0 -10 -3 -23q0 -1 3.5 -7.5t2.5 -8.5q-1 -1 -8 2t-8 3t1.5 -5t1.5 -5q-2 -2 -7.5 -3.5t-6.5 -2.5q-27 -18 -59.5 -22t-59.5 11
q-78 56 -172 198q-81 -119 -136 -233q-3 4 -3 8l-16 -17q0 6 -4 7q-3 0 -6.5 2t-5.5 4l-2 2q-15 -4 -22 7q-9 15 -7 47q32 121 136 279q-41 71 -80 148t-58 121t-19 49q7 7 18 17.5t43 28.5t60 18q14 0 26 -5t22.5 -17.5t19 -25t19.5 -36t18.5 -41.5t20.5 -50t22 -54
q49 61 100 118t80 85.5t33 30.5z" />
    <glyph glyph-name="Y" unicode="Y" horiz-adv-x="553" 
d="M474 686q34 -4 53.5 -25.5t23 -37.5t2.5 -27q0 -1 -6.5 -25t-15.5 -59.5t-20 -87.5t-20 -108.5t-16 -123t-7.5 -130.5t5.5 -131q-4 -33 -5 -40q0 -1 -4 25.5t-8 53.5l-4 27l12 -127q-1 -19 -3 -37l-1 3q0 4 -1 8l-1 4q0 -1 1 -14t1 -14q-1 -22 -0.5 -31.5t1 -16.5t0.5 -8
l-5 3q0 -12 -8 -17q-31 -20 -39 -3q-103 203 -79 520q-10 -28 -25 -69t-23.5 -63.5t-19 -48t-18 -38.5t-13.5 -18q-17 -13 -64 -8q-55 7 -84.5 59.5t-36 129t-6.5 155t-4 152t-20 105.5q-3 5 -7 10t-7 7l-2 2q0 54 78 43q27 -3 45 -12.5t28.5 -29t15.5 -40.5t6.5 -58
t1.5 -71.5t1 -91.5t4 -107q7 -1 42.5 66t84 158t74.5 130q1 3 1 8.5t1 8.5q7 51 91 40z" />
    <glyph glyph-name="Z" unicode="Z" horiz-adv-x="617" 
d="M628 276q6 -15 6 -33q0 -69 -36 -123.5t-93 -82.5t-126 -41t-138 0.5t-125.5 43t-91 86.5t-32.5 130q3 112 58.5 177.5t156.5 115.5q-32 2 -74 -1t-57 -4t-32 5q-54 44 -21 142q30 -4 81 -8.5t184.5 -4.5t238.5 17q6 -9 15 -23.5t20.5 -45.5t3.5 -47q-2 -5 -8 -8
q3 -21 -2 -35t-20 -13q-74 0 -148 -19t-130.5 -49.5t-100.5 -66.5t-67.5 -71t-23.5 -61q0 -46 50.5 -74.5t123 -32t144.5 7t122.5 41t50.5 70.5v1q-6 20 -25 35.5t-41.5 23.5t-50.5 13.5t-45.5 7t-33.5 1.5l-1 13l-19 8q22 4 56 8q-8 3 -19.5 3.5t-19.5 -0.5h-8l-29 5l67 6
l-45 8l-28 7l39 9q-28 7 -45 16q21 5 45 6.5t68 -1.5t90 -28.5t82 -70.5q28 -37 34 -63z" />
    <glyph glyph-name="bracketleft" unicode="[" 
 />
    <glyph glyph-name="backslash" unicode="\" horiz-adv-x="438" 
d="M6 724q3 3 7.5 7t18.5 13t27.5 13.5t32 2t34.5 -16.5q18 -15 56.5 -126.5t107.5 -301t142 -342.5q3 -4 -8 -18.5t-30.5 -21t-51.5 15.5q-54 81 -123.5 250.5t-128.5 326.5t-84 198z" />
    <glyph glyph-name="bracketright" unicode="]" 
 />
    <glyph glyph-name="asciicircum" unicode="^" 
 />
    <glyph glyph-name="underscore" unicode="_" horiz-adv-x="551" 
d="M1 78q3 73 75 73q3 0 103 -5.5t211.5 -11t143.5 -5.5q3 0 4 -9t-2.5 -22.5t-12 -28t-27.5 -27.5t-45 -19q-84 -17 -192 -21.5t-167.5 -6.5t-64.5 -16q-15 17 -21.5 37t-5.5 34.5t1 27.5z" />
    <glyph glyph-name="grave" unicode="`" 
 />
    <glyph glyph-name="a" unicode="a" horiz-adv-x="473" 
d="M24 227q-6 14 -12 14q92 228 118 441q116 17 151 -7q74 2 83 -58q32 -224 118 -454l-16 16l-7 -11l-11 7l-9 5l-11 -9q-4 9 -9 18l-16 -39l-9 6q-122 34 -306 0q-33 -6 -49 15t-15 56zM185 318q57 -3 119 -20q-29 67 -60 150q-25 -63 -59 -130zM468 59q2 -2 4.5 -6
t6.5 -12t3 -11l-11 -41l-9 5q-77 11 -198 -1t-187 -34q-33 -11 -53.5 11t-20.5 57t13 70q50 29 154 34t193.5 -11.5t104.5 -42.5l-5 1l14 -17z" />
    <glyph glyph-name="b" unicode="b" horiz-adv-x="621" 
d="M620 232q6 -112 -79 -167t-223 -56q-2 0 -30 -0.5t-43 0t-41.5 3t-48.5 8.5q-1 -2 -5 -8.5t-6 -10.5q-4 -5 -8 -1t-7 12q-1 -5 -1.5 -9.5t-1 -7l-1 -5t-1 -4t-1.5 -3t-3 -2.5t-7.5 -9.5t-7.5 -9.5q-2 11 -4 79q-86 47 -101 162q36 -22 98 -37q-2 111 -4 160q-15 0 -51 -2
q-2 1 -5.5 4t-11 12.5t-11 20.5t-2.5 30.5t10 40.5q4 4 25 8l-1 11q17 4 43 11q-3 58 -6 97q-17 0 -23 4q-13 10 -20 40t3 49q11 2 29 5q-2 9 -4 12q3 1 8 3t20 6t28.5 5t30.5 -1.5t29 -10.5q192 21 276 -4q41 -30 41 -133q-1 -5 -4.5 -14t-25.5 -32t-57 -42
q196 -47 205 -214zM218 567q0 -12 0.5 -33.5t0.5 -31.5q108 37 146 69q-13 8 -147 -4zM496 232l-3 16q-25 60 -197 76q-36 3 -78 4q-4 -98 -14 -175q175 -5 292 79z" />
    <glyph glyph-name="c" unicode="c" horiz-adv-x="517" 
d="M510 330q36 -132 -36.5 -230.5t-204.5 -98.5q-52 0 -100 19.5t-87.5 57.5t-62 100.5t-19.5 141.5q7 192 141 296q88 68 187 69q77 1 98 -40q5 -11 5 -24q-1 -36 -17 -76.5t-39 -49.5q-81 38 -146 14.5t-106 -82t-43 -122.5q-2 -51 52 -101.5t130 -50.5q87 0 156 65.5
t70 112.5q1 33 20 2z" />
    <glyph glyph-name="d" unicode="d" horiz-adv-x="603" 
d="M22 664q7 8 36 15.5t73 13t96.5 2t107 -15t105.5 -40t90.5 -70t63.5 -109t23 -153.5q0 -62 -22 -112t-58.5 -81t-78 -53t-87.5 -32.5t-79.5 -15t-61.5 -4.5q-8 0 -28 2l-6 -13l-18 1l-11 -27l-11 3q-7 -12 -9 -12q-1 10 -3 62q-141 53 -141 236q1 1 2 3.5t4 6.5t5 5
t4 -2.5t2 -13.5q0 -21 34 -46t86 -39q-6 245 -14 349q-50 -10 -75 -18q-27 12 -41 70t12 88zM229 164h4v127l-9 -127h5zM533 342q3 50 -77.5 107t-192.5 74q-3 -172 -12 -358q96 8 187 64.5t95 112.5z" />
    <glyph glyph-name="e" unicode="e" horiz-adv-x="506" 
d="M140 177q117 38 235.5 58t197.5 5q0 -3 -4.5 -9.5t-9.5 -10.5l-5 -5l-5 -12l-38 -18l28 -3q-28 -11 -44 -24q-7 -6 -17.5 -17.5t-17.5 -14.5q-9 0 -67 -14.5t-162 -50.5t-194 -80q-15 -7 -34.5 24.5t-22.5 66t19 51.5q7 5 21 9q0 26 0.5 111.5t0 136t-1.5 118t-4 110
t-8 60.5q4 2 12 4.5t28.5 6t38.5 1.5q96 13 400 8l-1 -26q-18 -8 -31 -22l-23 -17l20 -1l-33 -17l-1 -12q-40 -17 -46 -19l-195 -31q0 -4 -0.5 -12t-0.5 -12q-1 -26 -5 -74q144 18 251 16l-8 -21l-4 -24l-31 -17l13 -1l-33 -21l1 -10l-36 -9l-7 -12q-36 -17 -50 -22
q-3 0 -19 -4t-44 -11.5t-48 -12.5q-6 -62 -15 -119z" />
    <glyph glyph-name="f" unicode="f" horiz-adv-x="439" 
d="M461 712q9 -8 17.5 -32t10.5 -52t-17 -49.5t-60 -21.5q-2 0 -35.5 -2t-90.5 -5.5t-99 -6.5l-3 -84q118 13 223 13l-8 -21l-3 -24l-31 -17l12 -1l-32 -21l1 -10l-36 -9l-7 -12q-35 -17 -50 -23q-4 0 -76 -19l-14 -204l-7 8l-4 -25l-12 -3l-13 -38l-29 -18l-17 -24l-9 5
l-8 -26q-8 -12 -12 -12q-2 13 -5 106.5t-7 230.5t-9 224l-12 3l7 12l-19 6l-27 6l9 10l-15 13l16 14l-39 1q-8 12 -8 18q5 1 81 13q-3 32 -8 57q-1 3 3 8.5t11 7.5q105 32 142 -50q248 40 289 54z" />
    <glyph glyph-name="g" unicode="g" horiz-adv-x="518" 
d="M525 282q12 -117 -60 -198t-190 -81q-52 0 -100 19.5t-87.5 57.5t-62 100.5t-19.5 141.5q7 192 141 296q88 68 187 69q77 1 98 -40q5 -11 5 -24q-1 -36 -17 -76.5t-39 -49.5q-81 38 -146 14.5t-106 -82t-43 -122.5q-2 -51 52 -101.5t130 -50.5q58 0 109.5 31.5t84.5 75.5
q-32 2 -81.5 6.5t-84 8t-37.5 3.5q-47 14 -102 84q-5 5 133 25q-19 1 -38 0t-38.5 -2.5t-34.5 -3t-25 -3.5l-11 -1q-11 3 -12 8q10 1 70 9.5t94 12t98 8t81 -1.5q28 -3 42.5 -50t8.5 -83z" />
    <glyph glyph-name="h" unicode="h" horiz-adv-x="481" 
d="M494 659q1 -4 2 -9t1.5 -9.5t0.5 -11.5v-12t-1 -14.5t-1.5 -15t-2 -18t-2.5 -19.5t-3 -22t-3 -24q-12 -95 -18.5 -196t-6.5 -155v-54l-4 -10l-6 1l-6 -31l-7 1l-7 2l-14 -61l-11 9l-5 -9l-12 -1q-3 -15 -7 -16q-2 -1 -7 -1q-31 78 -44 220q-6 -4 -13 -6q-33 0 -175 -25
l-5 -73l-7 9l-5 -26l-12 -3l-13 -38l-29 -18l-17 -24l-9 6l-8 -27q-9 -11 -13 -12q-1 8 -9.5 327t-22.5 387q-3 11 14 16t34 7.5t41 -2t41.5 -19.5t29.5 -50t10 -87q-2 -94 -10 -232q82 10 171 2q-10 236 11 372q31 17 90 10.5t70 -38.5z" />
    <glyph glyph-name="i" unicode="i" horiz-adv-x="210" 
d="M35 693q17 4 34 5.5t40.5 -5t41 -22t29 -52t9.5 -88.5q-4 -92 -11 -204.5t-12 -178.5l-6 -67l-7 9l-5 -25l-12 -3l-13 -37l-29 -17l-17 -23l-8 7l-8 -27q-9 -11 -13 -11q-1 9 -7 331.5t-20 392.5q-1 4 3 9t11 6z" />
    <glyph glyph-name="j" unicode="j" horiz-adv-x="491" 
d="M152 340q-20 -73 -3 -136t60 -114q74 22 110 114t32.5 194.5t-30.5 193t-65 112.5l7 10q3 0 8.5 -0.5t8.5 -0.5q2 0 20 -12.5t42 -36.5t34 -47q-4 13 -10.5 25.5t-14 22t-15.5 18t-15 14.5t-12.5 10.5t-8.5 6.5l-3 2q65 -10 112 -68t67 -137.5t17 -169.5t-28.5 -166.5
t-79 -126.5t-125.5 -50q-67 0 -118.5 20t-79.5 52t-42.5 71.5t-13.5 78t13 72.5q14 40 45 59.5t57 15t31 -26.5z" />
    <glyph glyph-name="k" unicode="k" horiz-adv-x="503" 
d="M497 587q-24 -103 -158 -225q61 -61 102.5 -174.5t21.5 -185.5q1 42 -8 82t-19 60l-9 19q4 -14 10.5 -37t13.5 -69.5t1 -66.5l-5 6q-11 -21 -18 -22l-28 -5l-9 10q-16 64 -67.5 156.5t-93.5 141.5q-47 -30 -71 -41l-10 -142q-7 -11 -17 -29l-21 -41q-13 -4 -20 -12
l-9 -20h-8l-12 -20l-10 5q-2 -1 -6 -7.5t-6 -6.5q-2 9 -12 320.5t-25 377.5q0 12 15 15q16 5 33 6.5t40.5 -4t41 -20t29 -48.5t10.5 -84t-5 -143q141 120 184 292q9 15 28 17t40.5 -7.5t40.5 -24.5t29.5 -35.5t6.5 -37.5z" />
    <glyph glyph-name="l" unicode="l" horiz-adv-x="377" 
d="M391 80q2 -2 4.5 -6t7 -11.5t3.5 -10.5l-12 -41l-9 4q-123 17 -303 -41q-33 -10 -53 12t-20 57t12 69l12 6q3 490 -11 568q-1 3 3 8.5t11 7.5q17 4 34.5 5.5t41.5 -5t41 -22.5t27.5 -51.5t7.5 -87.5q-6 -113 -34 -394q79 7 151 -7.5t87 -41.5l-5 1l13 -17z" />
    <glyph glyph-name="m" unicode="m" horiz-adv-x="666" 
d="M645 521q1 -98 9 -202.5t16 -159.5l7 -55l-10 -36l-10 -2l-4 -25l-8 -30l-13 -2l-2 -23q-11 2 -16 -1q-2 -1 -3 -6t-2 -5q-71 130 -112 429q-49 -155 -117 -337q-4 -12 -29 -21t-51 3t-30 53q-13 29 -49.5 118.5t-55.5 135.5q-7 -67 -16 -133t-14 -98l-5 -33l-13 2
l-38 -67l-26 -8l-8 -16q-2 1 -5 3.5t-9.5 5t-10.5 0.5t-10.5 -14t-9.5 -12q11 117 19 328.5t0 348.5q0 1 -2 3l2 1q-2 21 -4 30q4 2 11.5 3.5t30 4t39.5 -3.5q44 9 80.5 -1.5t46.5 -42.5q64 -222 97 -348q63 172 153 351q-1 9 -1 22q35 22 88 23.5t75 -30.5q4 -8 6 -18
t3 -22.5t1 -28.5v-37v-47z" />
    <glyph glyph-name="n" unicode="n" horiz-adv-x="513" 
d="M512 584q-14 -252 -9.5 -365t10 -151.5t2.5 -46.5q-5 -16 -25.5 -29t-44.5 -17t-47.5 14t-33.5 59q-20 31 -40 66t-44 81.5t-38 73t-43 85.5t-37 75q-5 -76 -12.5 -159.5t-12.5 -129.5l-5 -45l-6 3l-25 -53l-15 -8l-12 -35l-12 11l-14 -37q-12 0 -18 -3q-5 -3 -12 -12
q-1 8 -2.5 344.5t-15.5 388.5q17 7 41 9q40 22 89.5 11t66.5 -57q52 -148 166 -405q10 144 28 296t31 201q2 -1 4 -13t3 -13l4 6l4 6q2 -2 7 -21t6 -21q3 -3 7.5 -3.5t7.5 0.5l3 1q26 -49 41 -97q2 -6 3 -10z" />
    <glyph glyph-name="o" unicode="o" horiz-adv-x="401" 
d="M22 118q-13 -35 -13 -70t20.5 -57t53.5 -11q180 58 304 41l9 -5q9 34 11 41q1 3 -2.5 10.5t-7.5 12.5l-4 6l8 2l-13 16q2 -1 3 -1t2 1q-15 27 -84 41.5t-153 8t-134 -35.5zM-1 437q0 63 19.5 120.5t38.5 84.5t27 31q28 13 62.5 -8t38.5 -40q2 -7 -0.5 -15t-9.5 -9
q-1 -1 -6 -10t-6.5 -12l-6.5 -13t-7 -16t-5.5 -17t-5 -20.5t-3 -21.5t-1.5 -25q0 -51 15.5 -88t30.5 -49.5t23 -13.5q11 -1 27.5 15t31.5 57t15 94q0 41 -9.5 70.5t-22.5 42.5t-26.5 20t-22.5 8h-10l-4 1l8 7l-7 7q3 10 12 14q13 8 33 6t42 -7.5t45 -22.5t41 -39.5t29.5 -59
t11.5 -80.5q0 -114 -53.5 -193t-138.5 -78q-61 1 -110.5 49t-72.5 106t-23 105z" />
    <glyph glyph-name="p" unicode="p" horiz-adv-x="532" 
d="M557 441q0 -44 -15.5 -80t-39 -59t-57.5 -40t-65 -26t-67.5 -14.5t-60 -6.5t-47.5 -1l-8 -114q-7 -12 -18 -30l-21 -42q-12 -4 -20 -13l-9 -22l-8 1l-13 -20l-9 5q-2 -1 -6 -7.5t-7 -7.5q-2 15 -10 286q-82 53 -82 171q15 29 15 -1q0 -12 17 -26.5t46 -27.5q-3 80 -8 173
q-5 -1 -18 -3.5t-20 -3.5q-21 -15 -44 24q-26 43 -16 83q7 28 33 34q45 9 51 10v3q-3 11 13 16q57 16 96 -4q56 2 111.5 2t107.5 -17t92 -44t63.5 -78t23.5 -120zM477 463q3 40 -68.5 67t-187.5 25v-9q-3 -110 -9 -205q94 2 178 38.5t87 83.5z" />
    <glyph glyph-name="q" unicode="q" horiz-adv-x="435" 
d="M452 254l1 -11q-1 -3 -6.5 -6t-10.5 -5l-5 -1l4 -5l-15 -4q1 0 2.5 -0.5t0.5 -1.5q-26 -12 -95 26q-50 -58 -122 -58q-60 1 -109.5 48.5t-73 106t-23.5 105.5q0 39 7.5 76.5t18 63.5t22.5 46.5t20.5 30.5t12.5 12q28 13 63.5 -8.5t35.5 -40.5q0 -7 -11 -25.5t-22.5 -51
t-11.5 -74.5q0 -51 15.5 -88t30.5 -49.5t23 -13.5q7 0 16 6q-21 24 -31 47q7 33 31.5 43.5t48.5 -7.5q9 40 9 77q0 39 -8 67t-20 41t-23.5 20.5t-19.5 8.5l-8 1l-5 1l8 7q0 1 -3 3.5t-3 3.5q0 9 12 14q13 8 32 5.5t40 -8t42.5 -23t38 -40t27 -57.5t10.5 -77q-2 -83 -31 -151
q36 -29 78 -52zM396 92l-9 -2q2 -2 4.5 -6t6.5 -11.5t3 -10.5l-11 -41l-9 4q-125 18 -303 -40q-33 -11 -53.5 11t-20.5 57t13 69q50 29 133.5 35.5t152.5 -7.5t85 -41h-5z" />
    <glyph glyph-name="r" unicode="r" horiz-adv-x="550" 
d="M566 425q-1 -130 -134 -188q29 -52 40 -111t1 -104q3 41 -6 80.5t-19 58.5l-10 19q4 -14 10 -36.5t13.5 -68.5t1.5 -65l-5 6q-12 -20 -18 -21l-26 -6l-9 10q-24 95 -110 204q-43 -6 -89 -6h-6l-7 -103q-7 -12 -17 -28l-20 -40q-12 -4 -19 -13l-8 -20l-8 1l-12 -19l-9 4
q-2 -1 -6 -7t-6 -6q-2 14 -10 267q-53 32 -72 97q-7 28 -4 41q4 -20 13.5 -43t16.5 -30q-29 58 -20 97q8 -25 63 -47q-6 127 -9 185q-29 -4 -61 -12q-26 10 -39 57t11 72q7 7 35.5 15.5t71.5 17.5t95.5 12t106.5 0t104.5 -20.5t89.5 -46.5t63 -81.5t23 -121.5zM488 453
q3 44 -71.5 73t-202.5 24q1 -10 1 -35q-1 -90 -8 -192q94 1 185.5 41.5t95.5 88.5z" />
    <glyph glyph-name="s" unicode="s" horiz-adv-x="521" 
d="M397 701q4 -2 9.5 -6t17.5 -17.5t18.5 -28.5t5 -39.5t-16.5 -50.5q-53 0 -121.5 -13t-111.5 -26.5t-43 -17.5t27 -13.5t68 -22.5t88 -37.5t87 -54t65 -76t22 -99.5q-3 -54 -19.5 -94.5t-41 -65t-60 -39.5t-72 -20.5t-80.5 -5.5q-95 0 -161 77t-62 144q2 35 7 67t9 46
l5 15l-3 -98q0 22 3 49t6 44l3 16l16 18l5 -12q-9 -163 118 -198q83 -23 181 12q60 22 62 42q1 20 -30 39.5t-78.5 35t-103 37t-102.5 44t-77 57t-28 75.5q5 85 16 83q2 38 54.5 66.5t123 42t122 19.5t72.5 6z" />
    <glyph glyph-name="t" unicode="t" horiz-adv-x="439" 
d="M269 692q99 -4 313 -20q-4 -35 -34 -74t-89 -58q-30 -1 -79.5 -3.5t-60.5 -3.5q-3 -90 -11.5 -198t-15.5 -171l-7 -63l-22 -49l-8 1l-16 -36q-5 8 -12 -1l-9 -21h-8l-13 -20l-9 25q-9 -34 -13 -35q-2 13 -3.5 106t-3.5 229.5t-6 224.5q-90 -5 -158 -9q-39 -1 -57 40
t-9.5 83.5t34.5 46.5q64 9 179 9q6 6 11 8q65 18 107 -11z" />
    <glyph glyph-name="u" unicode="u" horiz-adv-x="410" 
d="M2 446q-1 64 7 118.5t17 80.5t16 29q23 8 49.5 0.5t47.5 -23t18 -26.5q-19 -78 -23 -139t3 -93t19 -53.5t21 -27t15 -6.5q8 -1 22.5 8t30.5 26t27.5 50t11.5 73q0 62 -8 106t-16 57l-7 14l-4 1l8 7q-6 6 -6 7q0 9 12 14q16 4 34 3t36.5 -18t33.5 -41t24.5 -65t8.5 -91
q-2 -115 -54.5 -193.5t-137.5 -77.5q-61 1 -109.5 44.5t-72 101t-24.5 114.5zM24 120q-12 -34 -12 -68t19 -55t51 -11q176 56 295 40l9 -5q8 33 11 40q1 3 -2.5 10t-7.5 13l-4 5l8 2l-13 16l5 -1q-15 26 -82 40.5t-148 8t-129 -34.5z" />
    <glyph glyph-name="v" unicode="v" horiz-adv-x="529" 
d="M564 657q3 -18 -1 -39q0 -1 -33 -80.5t-59 -148t-57.5 -180t-44.5 -207.5q-92 -14 -131.5 -5t-44.5 44q-24 -15 -29 -3q-2 5 -21 80.5t-40.5 151t-48.5 163t-56 151t-53 82.5q4 3 10.5 7t27 12.5t40 12t45 -0.5t46.5 -18.5t41 -49t32 -85.5q6 -24 35 -139.5t37 -165.5
q108 290 254 521q2 1 3 -1.5l3 -7.5t4 -7q1 -1 7 1t7 0l4 -32q13 -5 17 -19l-6 -43l10 8q2 0 2 -2z" />
    <glyph glyph-name="w" unicode="w" horiz-adv-x="681" 
d="M716 692q33 -41 -31 -176q-99 -208 -102 -496q-4 -2 -11.5 -4t-28 -4.5t-37.5 -0.5q-44 -9 -72 32q-51 134 -99 406q-94 -282 -104 -425q-56 -21 -87 7l-3 -4q-2 -2 -6 4.5t-7 14.5l-3 7q1 -35 -1 -35q-7 0 -10 9q-1 5 -17.5 99t-33.5 180t-43.5 186t-50.5 146
q-16 5 -23.5 14.5t1.5 17.5q4 2 11 6t28 10.5t40.5 9t44.5 -3.5t45 -22.5t37 -52t25 -87.5q15 -98 21 -192q59 163 110 246q-1 3 -2.5 8t-1.5 6q-6 2 -7 8t6 11q94 32 110 -22q10 -32 29 -133.5t30 -148.5q72 232 178 419q2 0 3 -2.5t2 -5.5v-2l13 8q7 -16 11 -20
q4 -3 19 -9.5t17 -8.5z" />
    <glyph glyph-name="x" unicode="x" horiz-adv-x="523" 
d="M470 726q3 -1 9 -2.5t20.5 -7.5t25.5 -14t19.5 -22.5t7.5 -31.5q-1 -15 -30.5 -48.5t-93 -100.5t-113.5 -129q83 -155 211 -274q0 -10 -3 -23q0 -1 3.5 -7.5t2.5 -8.5q-1 -1 -8 2t-8 3t1.5 -5t1.5 -5q-2 -2 -7.5 -3.5t-6.5 -2.5q-27 -18 -59.5 -22t-59.5 11
q-78 56 -172 198q-81 -119 -136 -233q-3 4 -3 8l-16 -17q0 6 -4 7q-3 0 -6.5 2t-5.5 4l-2 2q-15 -4 -22 7q-9 15 -7 47q32 121 136 279q-41 71 -80 148t-58 121t-19 49q7 7 18 17.5t43 28.5t60 18q14 0 26 -5t22.5 -17.5t19 -25t19.5 -36t18.5 -41.5t20.5 -50t22 -54
q49 61 100 118t80 85.5t33 30.5z" />
    <glyph glyph-name="y" unicode="y" horiz-adv-x="531" 
d="M474 686q34 -4 53.5 -25.5t23 -37.5t2.5 -27q0 -1 -6.5 -25t-15.5 -59.5t-20 -87.5t-20 -108.5t-16 -123t-7.5 -130.5t5.5 -131q-4 -33 -5 -40q0 -1 -4 25.5t-8 53.5l-4 27l12 -127q-1 -19 -3 -37l-1 3q0 4 -1 8l-1 4q0 -1 1 -14t1 -14q-1 -22 -0.5 -31.5t1 -16.5t0.5 -8
l-5 3q0 -12 -8 -17q-31 -20 -39 -3q-103 203 -79 520q-10 -28 -25 -69t-23.5 -63.5t-19 -48t-18 -38.5t-13.5 -18q-17 -13 -64 -8q-55 7 -84.5 59.5t-36 129t-6.5 155t-4 152t-20 105.5q-3 5 -7 10t-7 7l-2 2q0 54 78 43q27 -3 45 -12.5t28.5 -29t15.5 -40.5t6.5 -58
t1.5 -71.5t1 -91.5t4 -107q7 -1 42.5 66t84 158t74.5 130q1 3 1 8.5t1 8.5q7 51 91 40z" />
    <glyph glyph-name="z" unicode="z" horiz-adv-x="609" 
d="M628 276q6 -15 6 -33q0 -69 -36 -123.5t-93 -82.5t-126 -41t-138 0.5t-125.5 43t-91 86.5t-32.5 130q3 112 58.5 177.5t156.5 115.5q-32 2 -74 -1t-57 -4t-32 5q-54 44 -21 142q30 -4 81 -8.5t184.5 -4.5t238.5 17q6 -9 15 -23.5t20.5 -45.5t3.5 -47q-2 -5 -8 -8
q3 -21 -2 -35t-20 -13q-74 0 -148 -19t-130.5 -49.5t-100.5 -66.5t-67.5 -71t-23.5 -61q0 -46 50.5 -74.5t123 -32t144.5 7t122.5 41t50.5 70.5v1q-6 20 -25 35.5t-41.5 23.5t-50.5 13.5t-45.5 7t-33.5 1.5l-1 13l-19 8q22 4 56 8q-8 3 -19.5 3.5t-19.5 -0.5h-8l-29 5l67 6
l-45 8l-28 7l39 9q-28 7 -45 16q21 5 45 6.5t68 -1.5t90 -28.5t82 -70.5q28 -37 34 -63z" />
    <glyph glyph-name="braceleft" unicode="{" 
 />
    <glyph glyph-name="bar" unicode="|" horiz-adv-x="207" 
d="M49 817q3 2 9 4t23 5t31.5 1.5t30.5 -11t25 -28.5q8 -17 5.5 -111t-11 -224t-12.5 -289t1 -307q0 -2 -5.5 -7.5t-15.5 -9.5t-21.5 -5t-25 7.5t-24.5 27.5q-18 96 -17 316t8.5 379t-1.5 252z" />
    <glyph glyph-name="braceright" unicode="}" 
 />
    <glyph glyph-name="asciitilde" unicode="~" 
 />
    <glyph glyph-name="exclamdown" unicode="&#xa1;" horiz-adv-x="220" 
d="M199 687q1 -18 -15.5 -209t-29.5 -236q-6 -19 -32.5 -33t-48.5 -14.5t-28 8.5q-20 81 -22.5 213.5t-2.5 221t-13 92.5q16 28 61.5 36t86.5 -13t44 -66zM14 115q4 3 11.5 7.5t29 13.5t41.5 11.5t44.5 -5.5t42.5 -30q5 -19 -0.5 -51.5t-13.5 -59.5l-8 -27q-3 -15 -45 -30.5
t-68 -5.5q-21 43 -27 109t-7 68z" />
    <glyph glyph-name="cent" unicode="&#xa2;" horiz-adv-x="587" 
d="M0 300q6 178 153 274q102 67 220 68q91 1 116 -39q6 -10 6 -23q-1 -34 -18 -72t-41 -46q-103 39 -181 16.5t-124 -76.5t-48 -116q-2 -47 58 -94t141 -49q66 -2 120.5 17.5t84.5 49t46.5 57.5t16.5 48q0 31 21 2l2 -3q16 -67 5.5 -126t-40.5 -102t-93.5 -66.5
t-154.5 -20.5q-55 2 -106 21t-94 54t-68 93.5t-22 132.5zM237 817q3 2 9 4t23 5t31.5 1.5t30.5 -11t25 -28.5q8 -17 5.5 -111t-11 -224t-12.5 -289t1 -307q0 -2 -5.5 -7.5t-15.5 -9.5t-21.5 -5t-25 7.5t-24.5 27.5q-18 96 -17 316t8.5 379t-1.5 252z" />
    <glyph glyph-name="sterling" unicode="&#xa3;" horiz-adv-x="418" 
d="M281 78q79 -11 113 -79q18 -34 10 -46q-1 -3 -4 -1q-10 6 -22.5 11.5t-45 11.5t-66.5 3.5t-84 -21t-100 -54.5q-22 1 -35.5 30.5t-17.5 68.5q-1 13 9 25l-1 1q5 4 12 11.5t21.5 33.5t18.5 55q8 51 -2 105q-27 -4 -42 -4q-11 0 -21 19.5t-9 41t18 27.5q14 4 23 5
q-10 20 -30 58t-30.5 59t-17.5 52.5t-2 59.5q17 109 112 147q82 31 168 -3q81 -32 103 -101q21 -63 -20 -137q-10 -6 -16 15q-22 86 -135 86q-49 0 -79 -7.5t-39.5 -17.5t-7.5 -21q0 -3 12 -27.5t30 -68t32 -85.5q133 7 184 -3q0 -16 -28.5 -43.5t-56.5 -38.5q-14 0 -76 -6
q19 -96 1 -168q78 13 121 6z" />
    <glyph glyph-name="currency" unicode="&#xa4;" 
 />
    <glyph glyph-name="yen" unicode="&#xa5;" horiz-adv-x="548" 
d="M542 648l-10 -40q-11 -39 -25 -101.5t-27 -138.5t-19.5 -169t-1.5 -174l10 -12l-9 -5q0 -7 2 -25q-4 -29 -5 -39l-1 3q0 3 -1 9t-2 13.5t-2.5 16.5t-2.5 17l-2 -1q1 -16 3 -36t3 -32l2 -12l-4 -36q0 9 -3 14q0 -1 1 -14l2 -13q-1 -21 -0.5 -31.5t0.5 -17v-8.5l-2 1l-3 3
q0 -12 -8 -17q-31 -21 -39 -3q-22 44 -39 95q-21 0 -103.5 1t-114.5 0q-19 -1 -34 1.5t-23.5 6t-14 9.5t-7.5 11t-2 11.5t1 11t3 9.5l1 5l9 -7q145 11 270 -10q-1 6 -4 18t-5 21.5t-3 17.5q-145 2 -202 1q-17 0 -31 1.5t-23.5 4t-16.5 7t-11 9t-6 10t-2 10t0.5 10t1.5 8.5
t2 8l2 4l9 -8q137 11 268 -6q-14 114 -4 259q-11 -28 -25.5 -68.5t-23 -63.5t-19 -48t-18 -38.5t-13.5 -18.5q-18 -14 -63 -7q-55 7 -84.5 59.5t-36 129t-7 155t-4.5 152t-20 105.5q-3 5 -7 10t-6 7l-3 2q0 52 79 43q27 -4 44.5 -13.5t28 -28.5t15.5 -40.5t6.5 -58.5
t1.5 -71.5t1 -91t4 -106.5q7 -1 42.5 66t84 158t74.5 130q2 12 2 16q7 52 91 41q34 -5 54 -26t23.5 -38t1.5 -27zM442 34h1l-2 15q0 -6 1 -15z" />
    <glyph glyph-name="brokenbar" unicode="&#xa6;" 
 />
    <glyph glyph-name="copyright" unicode="&#xa9;" horiz-adv-x="571" 
d="M533 501q24 -107 16 -182t-47 -122.5t-94 -69t-124 -21.5q-20 0 -46.5 3.5t-71 19t-79 41t-60.5 77.5t-25 121q1 78 28 137t69 89.5t91 48.5t98 20t86.5 -2.5t58.5 -13.5q28 -12 52 -44.5t-4 -47.5q-147 58 -248 32q18 -2 25 -4q45 15 79.5 -23t34.5 -75q0 -20 -24 -43
t-46 -13q-2 53 -22 97q-15 -39 -24 -66.5t-20 -79.5t-2 -96t38 -74q34 16 58.5 45.5t34 58t14.5 56t0 40.5q3 0 6 -3l5 -5l2 -3l15 1l9 -16q7 -1 9 -5q19 -27 19 -64q0 -42 -30 -84t-73 -60q68 12 109 53.5t51.5 99t8.5 109t-14 99.5q-5 21 6 12q11 -11 31 -43zM76 360
q0 -26 9 -55t28 -59t56 -51.5t86 -26.5q-45 15 -78.5 58.5t-33.5 127.5q0 107 45 216q-56 -29 -84 -85t-28 -125z" />
    <glyph glyph-name="registered" unicode="&#xae;" horiz-adv-x="239" 
d="M229 631q8 -55 -24.5 -92.5t-91.5 -37.5q-12 0 -28 3.5t-40.5 13.5t-40.5 36t-15 63q1 41 20 70t47 41.5t58 16.5t53.5 0.5t33.5 -11.5q8 -6 10 -16.5t-11 -18.5q-81 33 -132 6q1 0 3 -1h2q81 0 86 -1q8 -3 12.5 -18.5t4.5 -22.5q0 -12 -14 -23t-35 -16q11 -23 27 -47
t28 -25l3 -3q8 7 14.5 16.5t9.5 18t5 20t2 18t0.5 17t0.5 12.5q0 16 8 -8zM21 613q0 -43 35 -69q-3 116 -6 141q0 1 -0.5 2t-0.5 2q-28 -28 -28 -76zM110 528q15 -1 38 3q-12 2 -16 9q-40 57 -42 95v4q6 3 8 3q47 22 52 29h-59v-6l-6 -110l-5 -15l-4 -5h-2q18 -7 36 -7z" />
    <glyph glyph-name="degree" unicode="&#xb0;" 
 />
    <glyph glyph-name="plusminus" unicode="&#xb1;" horiz-adv-x="563" 
d="M490 194q25 -4 37.5 -40.5t4 -73.5t-35.5 -40q-2 0 -78.5 7t-168.5 3.5t-152 -27.5q-28 -11 -42 37q-17 55 1 103q10 30 32 35q68 14 154 16q-10 51 -19 125q-74 -5 -126 -26q-28 -11 -42 37q-17 55 1 103q11 30 32 35q57 12 123 15q-3 44 -4.5 62t-4.5 44.5t-7.5 37
t-10.5 12.5q24 21 55 24.5t44 -0.5q34 -1 57.5 -18.5t30.5 -33t6 -24.5q0 -10 -8 -108q58 -4 121 -15q25 -4 37.5 -40.5t4 -73.5t-35.5 -40q-5 0 -23 1.5t-51.5 4t-62.5 4.5q-6 -96 -8 -129q63 -4 139 -17z" />
    <glyph glyph-name="twosuperior" unicode="&#xb2;" horiz-adv-x="498" 
 />
    <glyph glyph-name="threesuperior" unicode="&#xb3;" horiz-adv-x="555" 
 />
    <glyph glyph-name="acute" unicode="&#xb4;" 
 />
    <glyph glyph-name="mu" unicode="&#xb5;" 
 />
    <glyph glyph-name="paragraph" unicode="&#xb6;" 
 />
    <glyph glyph-name="periodcentered" unicode="&#xb7;" horiz-adv-x="230" 
d="M59 351q15 12 34.5 18.5t43.5 -2t37 -38.5q25 -52 -11 -92q-15 -16 -47 -19t-51 12q-23 19 -26.5 47t4.5 48t16 26z" />
    <glyph glyph-name="cedilla" unicode="&#xb8;" 
 />
    <glyph glyph-name="questiondown" unicode="&#xbf;" horiz-adv-x="787" 
 />
    <glyph glyph-name="Agrave" unicode="&#xc0;" horiz-adv-x="475" 
d="M163 845q11 39 50 66t87 -1q14 -44 29 -76.5t23 -45.5l8 -13q16 -42 -9.5 -54t-66.5 -4q-60 23 -93 66t-28 62zM473 96q0 -5 -6 2q-4 3 -5 1q0 -3 5.5 -27t4.5 -27q-1 -17 -9 -35q-2 -2 -7.5 -6.5t-6.5 -5.5q-1 -2 -1 -4.5t-2 -3.5q-2 -2 -6 -3.5t-5 -2.5l-16 -2
q-16 -1 -40 47t-52 130q-8 -3 -26 -9q-41 4 -149 -11l-25 -65l-4 -5l-8 -8l-23 -29l18 97l-40 -117q-20 0 -26 -4q-1 0 -6 -12t-6 -13q-4 -2 -12 -5q-5 -2 -10 0q0 11 30 149h-8q-15 1 -21 32.5t4.5 64.5t35.5 38q9 2 21 3q80 360 73 413q39 5 75 -5q10 9 36.5 17t56 11
t52.5 -11.5t24 -47.5q0 -2 0.5 -46.5t1.5 -67.5t6 -79t13.5 -102.5t24.5 -114t38 -136.5zM199 271q52 -2 96 -6q-26 92 -43 175q-22 -82 -53 -169z" />
    <glyph glyph-name="Aacute" unicode="&#xc1;" horiz-adv-x="474" 
d="M289 917q39 -11 66 -49.5t-2 -87.5q-28 -9 -51.5 -18t-38 -16.5t-24 -13t-15 -9t-6.5 -3.5q-41 -16 -53 10t-4 67q23 59 65.5 92.5t62.5 27.5zM454 96q0 -5 -6 2q-4 3 -5 1q0 -3 5.5 -27t4.5 -27q-1 -17 -9 -35q-2 -2 -7.5 -6.5t-6.5 -5.5q-2 -2 -2 -4.5t-1 -3.5
q-2 -2 -6 -3.5t-5 -2.5l-16 -2q-16 -1 -40 47t-52 130q-8 -3 -26 -9q-41 4 -149 -11l-25 -65l-4 -5l-8 -8l-23 -29l18 97l-40 -117q-20 0 -26 -4q-1 0 -6 -12t-6 -13q-4 -2 -12 -5q-5 -2 -10 0q0 11 30 149h-8q-15 1 -21 32.5t4.5 64.5t35.5 38q9 2 21 3q80 360 73 413
q39 5 75 -5q10 9 36.5 17t56 11t52.5 -11.5t24 -47.5q0 -2 0.5 -46.5t1.5 -67.5t6 -79t13.5 -102.5t24.5 -114t38 -136.5zM180 271q52 -2 96 -6q-26 92 -43 175q-22 -82 -53 -169z" />
    <glyph glyph-name="Acircumflex" unicode="&#xc2;" horiz-adv-x="475" 
d="M169 879q15 2 34.5 1.5t36.5 -15.5t18 -42q-13 -15 -23 -29.5t-16 -24t-9.5 -16t-5.5 -11.5l-2 -4q-34 -44 -63 23q-9 44 4 79t26 39zM265 823q7 25 31 41.5t55 -0.5q17 -53 38 -85q9 -26 -7 -34t-42 -2q-37 14 -58 41t-17 39zM464 96q0 -5 -6 2q-4 3 -5 1q0 -3 5.5 -27
t4.5 -27q-1 -17 -9 -35q-2 -2 -7.5 -6.5t-6.5 -5.5q-2 -2 -2 -4.5t-1 -3.5q-2 -2 -6 -3.5t-5 -2.5l-16 -2q-16 -1 -40 47t-52 130q-8 -3 -26 -9q-41 4 -149 -11l-25 -65l-4 -5l-8 -8l-23 -29l18 97l-40 -117q-20 0 -26 -4q-1 0 -6 -12t-6 -13q-4 -2 -12 -5q-5 -2 -10 0
q0 11 30 149h-8q-15 1 -21 32.5t4.5 64.5t35.5 38q9 2 21 3q80 360 73 413q39 5 75 -5q10 9 36.5 17t56 11t52.5 -11.5t24 -47.5q0 -2 0.5 -46.5t1.5 -67.5t6 -79t13.5 -102.5t24.5 -114t38 -136.5zM190 271q52 -2 96 -6q-26 92 -43 175q-22 -82 -53 -169z" />
    <glyph glyph-name="Atilde" unicode="&#xc3;" horiz-adv-x="458" 
d="M358 853q12 -15 18 -35.5t-2.5 -45t-36.5 -36.5q-22 7 -51.5 9.5t-56 2t-50 -2t-38.5 -3t-16 -1.5q-23 6 -28 20t3 28t22 28q29 20 87 31.5t97.5 10.5t51.5 -6zM453 96q1 -6 -5 1q-5 6 -5 2q-1 -4 4.5 -28t5.5 -26q-2 -18 -10 -35q-2 -2 -7.5 -6.5t-6.5 -5.5
q-1 -2 -1 -4.5t-2 -3.5q-2 -2 -11 -6l-16 -2q-16 -1 -40 47.5t-51 129.5q-18 -6 -26 -9q-42 4 -150 -11l-25 -65l-4 -5l-7 -8l-24 -29l19 97l-41 -117q-20 0 -26 -4q-1 0 -6 -12t-6 -13q-4 -2 -12 -5q-5 -2 -10 0q0 15 31 149h-9q-15 1 -21 32.5t4.5 64.5t35.5 38l21 3
q80 360 73 413q39 5 75 -5q10 9 36.5 17t56 11t52.5 -11.5t24 -47.5q0 -2 0.5 -46.5t1.5 -67.5t6 -79t13.5 -102.5t24.5 -114t38 -136.5zM179 271q52 -2 96 -6q-26 92 -43 175q-22 -82 -53 -169z" />
    <glyph glyph-name="Adieresis" unicode="&#xc4;" horiz-adv-x="463" 
d="M117 871q13 11 32.5 15t43.5 -5t41 -34q2 -10 1.5 -20.5t-4 -23t-6.5 -22t-6 -17.5l-3 -7q-2 -10 -23 -14.5t-41 3.5q-23 35 -33.5 76t-1.5 49zM264 871q13 11 32.5 15t43.5 -5t41 -34q2 -10 1.5 -20.5t-4 -23t-6.5 -22t-6 -17.5l-3 -7q-2 -10 -22.5 -14.5t-41.5 3.5
q-23 35 -33.5 76t-1.5 49zM453 96q1 -6 -5 1q-5 6 -5 2q-1 -4 4.5 -28t5.5 -26q-2 -18 -10 -35q-2 -2 -7.5 -6.5t-6.5 -5.5q-1 -2 -1 -4.5t-2 -3.5q-2 -2 -11 -6l-16 -2q-16 -1 -40 47.5t-51 129.5q-18 -6 -26 -9q-42 4 -150 -11l-25 -65l-4 -5l-7 -8l-24 -29l19 97
l-41 -117q-20 0 -26 -4q-1 0 -6 -12t-6 -13q-4 -2 -12 -5q-5 -2 -10 0q0 15 31 149h-9q-15 1 -21 32.5t4.5 64.5t35.5 38l21 3q80 360 73 413q39 5 75 -5q10 9 36.5 17t56 11t52.5 -11.5t24 -47.5q0 -2 0.5 -46.5t1.5 -67.5t6 -79t13.5 -102.5t24.5 -114t38 -136.5zM179 271
q52 -2 96 -6q-26 92 -43 175q-22 -82 -53 -169z" />
    <glyph glyph-name="Aring" unicode="&#xc5;" horiz-adv-x="464" 
d="M453 96q1 -6 -5 1q-5 6 -5 2q-1 -4 4.5 -28t5.5 -26q-2 -18 -10 -35q-2 -2 -7.5 -6.5t-6.5 -5.5q-1 -2 -1 -4.5t-2 -3.5q-2 -2 -11 -6l-16 -2q-16 -1 -40 47.5t-51 129.5q-18 -6 -26 -9q-42 4 -150 -11l-25 -65l-4 -5l-7 -8l-24 -29l19 97l-41 -117q-20 0 -26 -4
q-1 0 -6 -12t-6 -13q-4 -2 -12 -5q-5 -2 -10 0q0 15 31 149h-9q-15 1 -21 32.5t4.5 64.5t35.5 38l21 3q80 360 73 413q39 5 75 -5q10 9 36.5 17t56 11t52.5 -11.5t24 -47.5q0 -2 0.5 -46.5t1.5 -67.5t6 -79t13.5 -102.5t24.5 -114t38 -136.5zM179 271q52 -2 96 -6
q-26 92 -43 175q-22 -82 -53 -169zM211 898q32 11 64.5 11t48.5 -5t19 -9q11 -14 6 -35t-15 -24q-3 -1 -14 1.5t-30 2.5t-41 -7q-26 -9 -42.5 -23t-20.5 -23.5t-3 -14.5q2 -6 13.5 -11.5t33.5 -7t51 8.5q32 11 46.5 27t12.5 27l-1 11v2l5 -3q0 4 2 4q5 2 10 -3
q8 -9 9.5 -26.5t-3.5 -37t-25 -39t-52 -29.5q-57 -19 -108 -5t-65 58q-14 45 22.5 90.5t76.5 59.5z" />
    <glyph glyph-name="AE" unicode="&#xc6;" horiz-adv-x="809" 
d="M422 149q67 14 143 20.5t165 0t147 -31.5q-2 -25 -38.5 -53t-71.5 -35q-7 2 -52 -1t-130 -15.5t-165 -34.5q-2 -4 -3 -5q-1 -3 -7 -7t-7 -6q-2 -2 -2.5 -4.5t-1.5 -3.5q-8 -4 -11 -5l-16 -3q-32 0 -73 182q-4 -2 -26 -10q-32 4 -148 -10l-30 -66l-4 -5l-9 -9l-25 -29
l27 98l-51 -118q-20 -1 -26 -4q-1 -1 -7 -13t-7 -13q-4 -2 -12 -5q-5 -2 -10 0q1 15 44 152h-8q-14 1 -17 33.5t10 66t38 38.5q6 1 20 3q113 367 111 421q39 5 73 -6q11 8 37 16.5t55 11.5t50.5 -10.5t20.5 -45.5q22 3 95 0t110.5 -5t102.5 -7t70 -5q-5 -29 -38 -64t-70 -48
q-3 0 -55 -5.5t-121.5 -12.5t-103.5 -10q-1 -42 0 -93q71 6 183.5 3.5t166.5 -9.5q0 -31 -28.5 -58t-58 -39.5t-63.5 -22.5q-3 1 -36.5 -3.5t-79.5 -11t-71 -8.5q4 -40 14 -95zM184 261q55 -2 93 -7q-16 94 -26 179q-17 -51 -67 -172z" />
    <glyph glyph-name="Ccedilla" unicode="&#xc7;" horiz-adv-x="498" 
d="M491 250q-1 -87 -73.5 -166.5t-164.5 -83.5q20 -41 16 -65q-20 -38 -53.5 -38t-60.5 18q-9 4 -5 34.5t21 65.5q-32 12 -59.5 32.5t-54 55t-42 89.5t-15.5 124q0 88 20.5 180t41.5 140l20 49q10 8 42.5 10.5t64.5 -5.5q39 12 75 -1.5t59.5 -41.5t37.5 -60.5t14 -57.5
q-1 -34 -40.5 -71t-75.5 -20q0 81 -34 159q-14 -35 -21.5 -54.5t-23.5 -67t-22.5 -81t-12 -82t-1 -85.5t20.5 -77t44 -69q45 22 80 57.5t53.5 72.5t31.5 76.5t13 69t-2 50.5q5 0 10 -4.5t8 -9.5l3 -5q2 1 5.5 1.5t11.5 1t8 -1.5q3 -2 6.5 -8.5t5.5 -11.5l2 -5q12 -3 16 -8
q30 -48 30 -106z" />
    <glyph glyph-name="Egrave" unicode="&#xc8;" horiz-adv-x="498" 
d="M140 177q117 38 235.5 58t197.5 5q0 -3 -4.5 -9.5t-9.5 -10.5l-5 -5l-5 -12l-38 -18l28 -3q-28 -11 -44 -24q-7 -6 -17.5 -17.5t-17.5 -14.5q-9 0 -67 -14.5t-162 -50.5t-194 -80q-15 -7 -34.5 24.5t-22.5 66t19 51.5q7 5 21 9q0 26 0.5 111.5t0 136t-1.5 118t-4 110
t-8 60.5q4 2 12 4.5t28.5 6t38.5 1.5q96 13 400 8l-1 -26q-18 -8 -31 -22l-23 -17l20 -1l-33 -17l-1 -12q-40 -17 -46 -19l-195 -31q0 -4 -0.5 -12t-0.5 -12q-1 -26 -5 -74q144 18 251 16l-8 -21l-4 -24l-31 -17l13 -1l-33 -21l1 -10l-36 -9l-7 -12q-36 -17 -50 -22
q-3 0 -19 -4t-44 -11.5t-48 -12.5q-6 -62 -15 -119zM123 845q11 39 50 66t87 -1q14 -44 29 -76.5t23 -45.5l8 -13q16 -42 -9.5 -54t-66.5 -4q-60 23 -93 66t-28 62z" />
    <glyph glyph-name="Eacute" unicode="&#xc9;" horiz-adv-x="498" 
d="M140 177q117 38 235.5 58t197.5 5q0 -3 -4.5 -9.5t-9.5 -10.5l-5 -5l-5 -12l-38 -18l28 -3q-28 -11 -44 -24q-7 -6 -17.5 -17.5t-17.5 -14.5q-9 0 -67 -14.5t-162 -50.5t-194 -80q-15 -7 -34.5 24.5t-22.5 66t19 51.5q7 5 21 9q0 26 0.5 111.5t0 136t-1.5 118t-4 110
t-8 60.5q4 2 12 4.5t28.5 6t38.5 1.5q96 13 400 8l-1 -26q-18 -8 -31 -22l-23 -17l20 -1l-33 -17l-1 -12q-40 -17 -46 -19l-195 -31q0 -4 -0.5 -12t-0.5 -12q-1 -26 -5 -74q144 18 251 16l-8 -21l-4 -24l-31 -17l13 -1l-33 -21l1 -10l-36 -9l-7 -12q-36 -17 -50 -22
q-3 0 -19 -4t-44 -11.5t-48 -12.5q-6 -62 -15 -119zM289 917q39 -11 66 -49.5t-2 -87.5q-28 -9 -51.5 -18t-38 -16.5t-24 -13t-15 -9t-6.5 -3.5q-41 -16 -53 10t-4 67q23 59 65.5 92.5t62.5 27.5z" />
    <glyph glyph-name="Ecircumflex" unicode="&#xca;" horiz-adv-x="498" 
d="M140 177q117 38 235.5 58t197.5 5q0 -3 -4.5 -9.5t-9.5 -10.5l-5 -5l-5 -12l-38 -18l28 -3q-28 -11 -44 -24q-7 -6 -17.5 -17.5t-17.5 -14.5q-9 0 -67 -14.5t-162 -50.5t-194 -80q-15 -7 -34.5 24.5t-22.5 66t19 51.5q7 5 21 9q0 26 0.5 111.5t0 136t-1.5 118t-4 110
t-8 60.5q4 2 12 4.5t28.5 6t38.5 1.5q96 13 400 8l-1 -26q-18 -8 -31 -22l-23 -17l20 -1l-33 -17l-1 -12q-40 -17 -46 -19l-195 -31q0 -4 -0.5 -12t-0.5 -12q-1 -26 -5 -74q144 18 251 16l-8 -21l-4 -24l-31 -17l13 -1l-33 -21l1 -10l-36 -9l-7 -12q-36 -17 -50 -22
q-3 0 -19 -4t-44 -11.5t-48 -12.5q-6 -62 -15 -119zM169 879q15 2 34.5 1.5t36.5 -15.5t18 -42q-13 -15 -23 -29.5t-16 -24t-9.5 -16t-5.5 -11.5l-2 -4q-34 -44 -63 23q-9 44 4 79t26 39zM265 823q7 25 31 41.5t55 -0.5q17 -53 38 -85q9 -26 -7 -34t-42 -2q-37 14 -58 41
t-17 39z" />
    <glyph glyph-name="Edieresis" unicode="&#xcb;" horiz-adv-x="498" 
d="M140 177q117 38 235.5 58t197.5 5q0 -3 -4.5 -9.5t-9.5 -10.5l-5 -5l-5 -12l-38 -18l28 -3q-28 -11 -44 -24q-7 -6 -17.5 -17.5t-17.5 -14.5q-9 0 -67 -14.5t-162 -50.5t-194 -80q-15 -7 -34.5 24.5t-22.5 66t19 51.5q7 5 21 9q0 26 0.5 111.5t0 136t-1.5 118t-4 110
t-8 60.5q4 2 12 4.5t28.5 6t38.5 1.5q96 13 400 8l-1 -26q-18 -8 -31 -22l-23 -17l20 -1l-33 -17l-1 -12q-40 -17 -46 -19l-195 -31q0 -4 -0.5 -12t-0.5 -12q-1 -26 -5 -74q144 18 251 16l-8 -21l-4 -24l-31 -17l13 -1l-33 -21l1 -10l-36 -9l-7 -12q-36 -17 -50 -22
q-3 0 -19 -4t-44 -11.5t-48 -12.5q-6 -62 -15 -119zM77 871q13 11 32.5 15t43.5 -5t41 -34q2 -10 1.5 -20.5t-4 -23t-6.5 -22t-6 -17.5l-3 -7q-2 -10 -23 -14.5t-41 3.5q-23 35 -33.5 76t-1.5 49zM274 871q13 11 32.5 15t43.5 -5t41 -34q2 -10 1.5 -20.5t-4 -23t-6.5 -22
t-6 -17.5l-3 -7q-2 -10 -22.5 -14.5t-41.5 3.5q-23 35 -33.5 76t-1.5 49z" />
    <glyph glyph-name="Igrave" unicode="&#xcc;" horiz-adv-x="216" 
d="M35 703q17 4 34 5.5t40.5 -5t41 -22t29 -52t9.5 -88.5q-4 -92 -11 -204.5t-12 -178.5l-6 -67l-7 9l-5 -25l-12 -3l-13 -37l-29 -17l-17 -23l-8 7l-8 -27q-9 -11 -13 -11q-1 9 -7 331.5t-20 392.5q-1 4 3 9t11 6zM-37 845q11 39 50 66t87 -1q14 -44 29 -76.5t23 -45.5
l8 -13q16 -42 -9.5 -54t-66.5 -4q-60 23 -93 66t-28 62z" />
    <glyph glyph-name="Iacute" unicode="&#xcd;" horiz-adv-x="216" 
d="M35 703q17 4 34 5.5t40.5 -5t41 -22t29 -52t9.5 -88.5q-4 -92 -11 -204.5t-12 -178.5l-6 -67l-7 9l-5 -25l-12 -3l-13 -37l-29 -17l-17 -23l-8 7l-8 -27q-9 -11 -13 -11q-1 9 -7 331.5t-20 392.5q-1 4 3 9t11 6zM139 917q39 -11 66 -49.5t-2 -87.5q-28 -9 -51.5 -18
t-38 -16.5t-24 -13t-15 -9t-6.5 -3.5q-41 -16 -53 10t-4 67q23 59 65.5 92.5t62.5 27.5z" />
    <glyph glyph-name="Icircumflex" unicode="&#xce;" horiz-adv-x="216" 
d="M35 703q17 4 34 5.5t40.5 -5t41 -22t29 -52t9.5 -88.5q-4 -92 -11 -204.5t-12 -178.5l-6 -67l-7 9l-5 -25l-12 -3l-13 -37l-29 -17l-17 -23l-8 7l-8 -27q-9 -11 -13 -11q-1 9 -7 331.5t-20 392.5q-1 4 3 9t11 6zM-1 879q15 2 34.5 1.5t36.5 -15.5t18 -42
q-13 -15 -23 -29.5t-16 -24t-9.5 -16t-5.5 -11.5l-2 -4q-34 -44 -63 23q-9 44 4 79t26 39zM95 823q7 25 31 41.5t55 -0.5q17 -53 38 -85q9 -26 -7 -34t-42 -2q-37 14 -58 41t-17 39z" />
    <glyph glyph-name="Idieresis" unicode="&#xcf;" horiz-adv-x="216" 
d="M35 703q17 4 34 5.5t40.5 -5t41 -22t29 -52t9.5 -88.5q-4 -92 -11 -204.5t-12 -178.5l-6 -67l-7 9l-5 -25l-12 -3l-13 -37l-29 -17l-17 -23l-8 7l-8 -27q-9 -11 -13 -11q-1 9 -7 331.5t-20 392.5q-1 4 3 9t11 6zM-23 871q13 11 32.5 15t43.5 -5t41 -34q2 -10 1.5 -20.5
t-4 -23t-6.5 -22t-6 -17.5l-3 -7q-2 -10 -23 -14.5t-41 3.5q-23 35 -33.5 76t-1.5 49zM134 871q13 11 32.5 15t43.5 -5t41 -34q2 -10 1.5 -20.5t-4 -23t-6.5 -22t-6 -17.5l-3 -7q-2 -10 -22.5 -14.5t-41.5 3.5q-23 35 -33.5 76t-1.5 49z" />
    <glyph glyph-name="Eth" unicode="&#xd0;" horiz-adv-x="587" 
d="M-6 664q7 7 30.5 13t59 8.5t79.5 1.5t91.5 -11.5t94 -27.5t88.5 -49.5t74 -74t50 -104t18 -137.5q-1 -72 -32.5 -127.5t-75.5 -85.5t-100.5 -49t-97.5 -24.5t-75 -5.5q-16 0 -26 1l-7 -13l-17 1l-10 -26l-12 4q-6 -13 -8 -13q-2 9 -4 61q-137 53 -137 232q1 1 2 3.5
t3.5 6.5t5 5t4 -3t1.5 -14q0 -20 33.5 -44t83.5 -38q-1 41 -3 129q-40 -5 -74 -17q-36 14 -48 44.5t-5.5 57.5t20.5 46q11 13 101 10q-3 81 -5 101q-30 -4 -72 -16q-27 11 -41 68t11 87zM197 143h4v124l-9 -124h5zM497 317q3 53 -78 122t-188 85q0 -12 -0.5 -56t-0.5 -59
q42 -9 71 -26q14 -12 23 -25t13.5 -26.5t-4.5 -25.5t-31 -19l-10 1q-10 0 -28.5 1t-37.5 1q-4 -103 -6 -147q95 8 184 63.5t93 110.5z" />
    <glyph glyph-name="Ntilde" unicode="&#xd1;" horiz-adv-x="477" 
d="M466 628q-13 -261 -7.5 -377.5t11 -156.5t2.5 -48q-5 -16 -24.5 -29t-43.5 -17.5t-47.5 12.5t-34.5 57q-53 94 -164 353l-28 -303l-6 3l-26 -53l-14 -8l-13 -35l-11 11l-15 -37q-12 0 -17 -2q-3 -2 -13 -13q-1 5 -2 343t-15 390q18 7 42 10q41 22 89.5 11t62.5 -58
q48 -162 129 -372q9 147 25 294.5t29 194.5q2 -1 4 -13t3 -13l4 6l4 6q1 -1 6.5 -20.5t7.5 -22.5t6.5 -3.5t7.5 0.5l3 1q27 -51 42 -100q1 -2 2 -5.5t1 -5.5zM54 780q-14 19 -20.5 46t5.5 57.5t48 44.5q27 -10 64.5 -15.5t71.5 -7t64 -1t49 1.5t20 1q22 -7 31 -19t4.5 -25.5
t-13.5 -26.5t-23 -25q-38 -23 -110 -33.5t-128.5 -8.5t-62.5 11z" />
    <glyph glyph-name="Ograve" unicode="&#xd2;" horiz-adv-x="487" 
d="M-20 332q0 67 10 124.5t24 92t30 60.5t25.5 36t13.5 12q35 18 81 -9.5t46 -56.5q0 -11 -11.5 -33t-25.5 -47t-25.5 -73t-11.5 -104q0 -54 10 -100t24.5 -74t31.5 -47.5t29 -27.5t19 -9q10 -1 24.5 9t32 33t32 55t24.5 81t10 105q0 66 -13.5 115t-33 71t-39 34.5
t-33.5 14.5l-13 1l-7 2l12 12q-1 2 17 -0.5t40 -12.5t32 -27q-8 21 -32.5 32.5t-45.5 14.5l-21 4q0 16 20 25q22 10 48.5 10.5t55.5 -7.5t56.5 -30.5t49 -55.5t34.5 -85.5t13 -117.5q0 -72 -15.5 -135.5t-40.5 -106t-55.5 -73.5t-60 -45.5t-54.5 -14.5q-62 0 -114.5 22
t-87 57.5t-59 82t-35.5 93.5t-11 93zM93 803q11 39 50 66t87 -1q14 -44 29 -76.5t23 -45.5l8 -13q16 -42 -9.5 -54t-66.5 -4q-60 23 -93 66t-28 62z" />
    <glyph glyph-name="Oacute" unicode="&#xd3;" horiz-adv-x="518" 
d="M-10 332q0 67 10 124.5t24 92t30 60.5t25.5 36t13.5 12q35 18 81 -9.5t46 -56.5q0 -11 -11.5 -33t-25.5 -47t-25.5 -73t-11.5 -104q0 -54 10 -100t24.5 -74t31.5 -47.5t29 -27.5t19 -9q10 -1 24.5 9t32 33t32 55t24.5 81t10 105q0 66 -13.5 115t-33 71t-39 34.5
t-33.5 14.5l-13 1l-7 2l12 12q-1 2 17 -0.5t40 -12.5t32 -27q-8 21 -32.5 32.5t-45.5 14.5l-21 4q0 16 20 25q22 10 48.5 10.5t55.5 -7.5t56.5 -30.5t49 -55.5t34.5 -85.5t13 -117.5q0 -72 -15.5 -135.5t-40.5 -106t-55.5 -73.5t-60 -45.5t-54.5 -14.5q-62 0 -114.5 22
t-87 57.5t-59 82t-35.5 93.5t-11 93zM309 867q39 -11 66 -49.5t-2 -87.5q-28 -9 -51.5 -18t-38 -16.5t-24 -13t-15 -9t-6.5 -3.5q-41 -16 -53 10t-4 67q23 59 65.5 92.5t62.5 27.5z" />
    <glyph glyph-name="Ocircumflex" unicode="&#xd4;" horiz-adv-x="518" 
d="M-10 332q0 67 10 124.5t24 92t30 60.5t25.5 36t13.5 12q35 18 81 -9.5t46 -56.5q0 -11 -11.5 -33t-25.5 -47t-25.5 -73t-11.5 -104q0 -54 10 -100t24.5 -74t31.5 -47.5t29 -27.5t19 -9q10 -1 24.5 9t32 33t32 55t24.5 81t10 105q0 66 -13.5 115t-33 71t-39 34.5
t-33.5 14.5l-13 1l-7 2l12 12q-1 2 17 -0.5t40 -12.5t32 -27q-8 21 -32.5 32.5t-45.5 14.5l-21 4q0 16 20 25q22 10 48.5 10.5t55.5 -7.5t56.5 -30.5t49 -55.5t34.5 -85.5t13 -117.5q0 -72 -15.5 -135.5t-40.5 -106t-55.5 -73.5t-60 -45.5t-54.5 -14.5q-62 0 -114.5 22
t-87 57.5t-59 82t-35.5 93.5t-11 93zM149 846q15 2 34.5 1.5t36.5 -15.5t18 -42q-13 -15 -23 -29.5t-16 -24t-9.5 -16t-5.5 -10.5l-2 -5q-34 -44 -63 23q-9 44 4 79t26 39zM245 790q7 25 31 41.5t55 -0.5q17 -53 38 -85q9 -26 -7 -34t-42 -2q-37 14 -58 41t-17 39z" />
    <glyph glyph-name="Otilde" unicode="&#xd5;" horiz-adv-x="518" 
d="M-10 332q0 67 10 124.5t24 92t30 60.5t25.5 36t13.5 12q35 18 81 -9.5t46 -56.5q0 -11 -11.5 -33t-25.5 -47t-25.5 -73t-11.5 -104q0 -54 10 -100t24.5 -74t31.5 -47.5t29 -27.5t19 -9q10 -1 24.5 9t32 33t32 55t24.5 81t10 105q0 66 -13.5 115t-33 71t-39 34.5
t-33.5 14.5l-13 1l-7 2l12 12q-1 2 17 -0.5t40 -12.5t32 -27q-8 21 -32.5 32.5t-45.5 14.5l-21 4q0 16 20 25q22 10 48.5 10.5t55.5 -7.5t56.5 -30.5t49 -55.5t34.5 -85.5t13 -117.5q0 -72 -15.5 -135.5t-40.5 -106t-55.5 -73.5t-60 -45.5t-54.5 -14.5q-62 0 -114.5 22
t-87 57.5t-59 82t-35.5 93.5t-11 93zM358 813q12 -15 18 -35.5t-2.5 -45t-36.5 -36.5q-22 7 -51.5 9.5t-56 2t-50 -2t-38.5 -3t-16 -1.5q-23 6 -28 20t3 28t22 28q29 20 87 31.5t97.5 10.5t51.5 -6z" />
    <glyph glyph-name="Odieresis" unicode="&#xd6;" horiz-adv-x="518" 
d="M-10 332q0 67 10 124.5t24 92t30 60.5t25.5 36t13.5 12q35 18 81 -9.5t46 -56.5q0 -11 -11.5 -33t-25.5 -47t-25.5 -73t-11.5 -104q0 -54 10 -100t24.5 -74t31.5 -47.5t29 -27.5t19 -9q10 -1 24.5 9t32 33t32 55t24.5 81t10 105q0 66 -13.5 115t-33 71t-39 34.5
t-33.5 14.5l-13 1l-7 2l12 12q-1 2 17 -0.5t40 -12.5t32 -27q-8 21 -32.5 32.5t-45.5 14.5l-21 4q0 16 20 25q22 10 48.5 10.5t55.5 -7.5t56.5 -30.5t49 -55.5t34.5 -85.5t13 -117.5q0 -72 -15.5 -135.5t-40.5 -106t-55.5 -73.5t-60 -45.5t-54.5 -14.5q-62 0 -114.5 22
t-87 57.5t-59 82t-35.5 93.5t-11 93zM77 831q13 11 32.5 15t43.5 -5t41 -34q2 -10 1.5 -20.5t-4 -23t-6.5 -22t-6 -17.5l-3 -7q-2 -10 -23 -14.5t-41 3.5q-23 35 -33.5 76t-1.5 49zM274 831q13 11 32.5 15t43.5 -5t41 -34q2 -10 1.5 -20.5t-4 -23t-6.5 -22t-6 -17.5l-3 -7
q-2 -10 -22.5 -14.5t-41.5 3.5q-23 35 -33.5 76t-1.5 49z" />
    <glyph glyph-name="multiply" unicode="&#xd7;" 
 />
    <glyph glyph-name="Oslash" unicode="&#xd8;" horiz-adv-x="504" 
d="M437 629q82 -79 82 -246q0 -72 -15.5 -135.5t-40.5 -106t-55.5 -73.5t-60 -45.5t-54.5 -14.5q-56 0 -111 20q-12 -34 -28 -82q-2 -5 -19 -8.5t-37 8t-26 45.5q7 40 23 94q-53 51 -81 125t-28 146q0 67 10 124.5t24 92t30 60.5t25.5 36t13.5 12q35 18 81 -9.5t46 -56.5
q0 -11 -11.5 -33t-25.5 -47t-25.5 -73t-11.5 -104q0 -58 11 -105q17 44 143 350q-12 7 -24 11t-18 4l-7 1l-7 2l12 12h2q3 0 8.5 -0.5t11.5 -1.5t14.5 -3.5t15.5 -5.5q0 3 2 5q-13 6 -29 10t-25.5 5t-9.5 2q0 16 20 25q28 13 65 11q28 73 36 104q1 -1 10 0t23.5 -2.5
t28.5 -9.5t25 -20.5t13 -35.5q3 -19 -26 -87zM256 100q10 -1 24.5 9t32 33t32 55t24.5 81t10 105q0 47 -9 96q-94 -206 -152 -354q22 -22 38 -25z" />
    <glyph glyph-name="Ugrave" unicode="&#xd9;" horiz-adv-x="532" 
d="M209 606l-12 -70q-12 -71 -20.5 -145.5t4 -166.5t53.5 -147q61 21 97.5 84.5t44 143t0 159.5t-31 142t-52.5 82l7 9q11 0 17 -1l2 -2q3 -2 7.5 -5.5t10 -8t12 -10.5t13.5 -12.5t14 -14.5t13 -16t11 -16.5t8 -17.5q-3 10 -7.5 20.5t-10 19t-11 16.5t-11 14.5t-11 12
t-10 9.5t-8 7t-4.5 4l-2 2q54 -12 96.5 -58.5t64.5 -111.5t32 -140.5t-2 -148t-36.5 -131.5t-71 -94t-106.5 -32t-108.5 24.5t-79 52.5t-53 74t-33.5 81.5t-17.5 83t-7.5 71t0 51.5q1 40 10 95.5t18 90.5l9 36q-1 3 -2 7t-2 14t2 10q11 9 37.5 11.5t55 -2.5t50 -25t21.5 -51
zM123 845q11 39 50 66t87 -1q14 -44 29 -76.5t23 -45.5l8 -13q16 -42 -9.5 -54t-66.5 -4q-60 23 -93 66t-28 62z" />
    <glyph glyph-name="Uacute" unicode="&#xda;" horiz-adv-x="532" 
d="M209 606l-12 -70q-12 -71 -20.5 -145.5t4 -166.5t53.5 -147q61 21 97.5 84.5t44 143t0 159.5t-31 142t-52.5 82l7 9q11 0 17 -1l2 -2q3 -2 7.5 -5.5t10 -8t12 -10.5t13.5 -12.5t14 -14.5t13 -16t11 -16.5t8 -17.5q-3 10 -7.5 20.5t-10 19t-11 16.5t-11 14.5t-11 12
t-10 9.5t-8 7t-4.5 4l-2 2q54 -12 96.5 -58.5t64.5 -111.5t32 -140.5t-2 -148t-36.5 -131.5t-71 -94t-106.5 -32t-108.5 24.5t-79 52.5t-53 74t-33.5 81.5t-17.5 83t-7.5 71t0 51.5q1 40 10 95.5t18 90.5l9 36q-1 3 -2 7t-2 14t2 10q11 9 37.5 11.5t55 -2.5t50 -25t21.5 -51
zM289 917q39 -11 66 -49.5t-2 -87.5q-28 -9 -51.5 -18t-38 -16.5t-24 -13t-15 -9t-6.5 -3.5q-41 -16 -53 10t-4 67q23 59 65.5 92.5t62.5 27.5z" />
    <glyph glyph-name="Ucircumflex" unicode="&#xdb;" horiz-adv-x="532" 
d="M209 606l-12 -70q-12 -71 -20.5 -145.5t4 -166.5t53.5 -147q61 21 97.5 84.5t44 143t0 159.5t-31 142t-52.5 82l7 9q11 0 17 -1l2 -2q3 -2 7.5 -5.5t10 -8t12 -10.5t13.5 -12.5t14 -14.5t13 -16t11 -16.5t8 -17.5q-3 10 -7.5 20.5t-10 19t-11 16.5t-11 14.5t-11 12
t-10 9.5t-8 7t-4.5 4l-2 2q54 -12 96.5 -58.5t64.5 -111.5t32 -140.5t-2 -148t-36.5 -131.5t-71 -94t-106.5 -32t-108.5 24.5t-79 52.5t-53 74t-33.5 81.5t-17.5 83t-7.5 71t0 51.5q1 40 10 95.5t18 90.5l9 36q-1 3 -2 7t-2 14t2 10q11 9 37.5 11.5t55 -2.5t50 -25t21.5 -51
zM169 879q15 2 34.5 1.5t36.5 -15.5t18 -42q-13 -15 -23 -29.5t-16 -24t-9.5 -16t-5.5 -11.5l-2 -4q-34 -44 -63 23q-9 44 4 79t26 39zM265 823q7 25 31 41.5t55 -0.5q17 -53 38 -85q9 -26 -7 -34t-42 -2q-37 14 -58 41t-17 39z" />
    <glyph glyph-name="Udieresis" unicode="&#xdc;" horiz-adv-x="532" 
d="M209 606l-12 -70q-12 -71 -20.5 -145.5t4 -166.5t53.5 -147q61 21 97.5 84.5t44 143t0 159.5t-31 142t-52.5 82l7 9q11 0 17 -1l2 -2q3 -2 7.5 -5.5t10 -8t12 -10.5t13.5 -12.5t14 -14.5t13 -16t11 -16.5t8 -17.5q-3 10 -7.5 20.5t-10 19t-11 16.5t-11 14.5t-11 12
t-10 9.5t-8 7t-4.5 4l-2 2q54 -12 96.5 -58.5t64.5 -111.5t32 -140.5t-2 -148t-36.5 -131.5t-71 -94t-106.5 -32t-108.5 24.5t-79 52.5t-53 74t-33.5 81.5t-17.5 83t-7.5 71t0 51.5q1 40 10 95.5t18 90.5l9 36q-1 3 -2 7t-2 14t2 10q11 9 37.5 11.5t55 -2.5t50 -25t21.5 -51
zM77 871q13 11 32.5 15t43.5 -5t41 -34q2 -10 1.5 -20.5t-4 -23t-6.5 -22t-6 -17.5l-3 -7q-2 -10 -23 -14.5t-41 3.5q-23 35 -33.5 76t-1.5 49zM274 871q13 11 32.5 15t43.5 -5t41 -34q2 -10 1.5 -20.5t-4 -23t-6.5 -22t-6 -17.5l-3 -7q-2 -10 -22.5 -14.5t-41.5 3.5
q-23 35 -33.5 76t-1.5 49z" />
    <glyph glyph-name="Yacute" unicode="&#xdd;" horiz-adv-x="553" 
d="M474 686q34 -4 53.5 -25.5t23 -37.5t2.5 -27q0 -1 -6.5 -25t-15.5 -59.5t-20 -87.5t-20 -108.5t-16 -123t-7.5 -130.5t5.5 -131q-4 -33 -5 -40q0 -1 -4 25.5t-8 53.5l-4 27l12 -127q-1 -19 -3 -37l-1 3q0 4 -1 8l-1 4q0 -1 1 -14t1 -14q-1 -22 -0.5 -31.5t1 -16.5t0.5 -8
l-5 3q0 -12 -8 -17q-31 -20 -39 -3q-103 203 -79 520q-10 -28 -25 -69t-23.5 -63.5t-19 -48t-18 -38.5t-13.5 -18q-17 -13 -64 -8q-55 7 -84.5 59.5t-36 129t-6.5 155t-4 152t-20 105.5q-3 5 -7 10t-7 7l-2 2q0 54 78 43q27 -3 45 -12.5t28.5 -29t15.5 -40.5t6.5 -58
t1.5 -71.5t1 -91.5t4 -107q7 -1 42.5 66t84 158t74.5 130q1 3 1 8.5t1 8.5q7 51 91 40zM339 917q39 -11 66 -49.5t-2 -87.5q-28 -9 -51.5 -18t-38 -16.5t-24 -13t-15 -9t-6.5 -3.5q-41 -16 -53 10t-4 67q23 59 65.5 92.5t62.5 27.5z" />
    <glyph glyph-name="Thorn" unicode="&#xde;" 
 />
    <glyph glyph-name="germandbls" unicode="&#xdf;" 
 />
    <glyph glyph-name="agrave" unicode="&#xe0;" horiz-adv-x="475" 
d="M163 845q11 39 50 66t87 -1q14 -44 29 -76.5t23 -45.5l8 -13q16 -42 -9.5 -54t-66.5 -4q-60 23 -93 66t-28 62zM473 96q0 -5 -6 2q-4 3 -5 1q0 -3 5.5 -27t4.5 -27q-1 -17 -9 -35q-2 -2 -7.5 -6.5t-6.5 -5.5q-1 -2 -1 -4.5t-2 -3.5q-2 -2 -6 -3.5t-5 -2.5l-16 -2
q-16 -1 -40 47t-52 130q-8 -3 -26 -9q-41 4 -149 -11l-25 -65l-4 -5l-8 -8l-23 -29l18 97l-40 -117q-20 0 -26 -4q-1 0 -6 -12t-6 -13q-4 -2 -12 -5q-5 -2 -10 0q0 11 30 149h-8q-15 1 -21 32.5t4.5 64.5t35.5 38q9 2 21 3q80 360 73 413q39 5 75 -5q10 9 36.5 17t56 11
t52.5 -11.5t24 -47.5q0 -2 0.5 -46.5t1.5 -67.5t6 -79t13.5 -102.5t24.5 -114t38 -136.5zM199 271q52 -2 96 -6q-26 92 -43 175q-22 -82 -53 -169z" />
    <glyph glyph-name="aacute" unicode="&#xe1;" horiz-adv-x="453" 
d="M289 917q39 -11 66 -49.5t-2 -87.5q-28 -9 -51.5 -18t-38 -16.5t-24 -13t-15 -9t-6.5 -3.5q-41 -16 -53 10t-4 67q23 59 65.5 92.5t62.5 27.5zM454 96q0 -5 -6 2q-4 3 -5 1q0 -3 5.5 -27t4.5 -27q-1 -17 -9 -35q-2 -2 -7.5 -6.5t-6.5 -5.5q-2 -2 -2 -4.5t-1 -3.5
q-2 -2 -6 -3.5t-5 -2.5l-16 -2q-16 -1 -40 47t-52 130q-8 -3 -26 -9q-41 4 -149 -11l-25 -65l-4 -5l-8 -8l-23 -29l18 97l-40 -117q-20 0 -26 -4q-1 0 -6 -12t-6 -13q-4 -2 -12 -5q-5 -2 -10 0q0 11 30 149h-8q-15 1 -21 32.5t4.5 64.5t35.5 38q9 2 21 3q80 360 73 413
q39 5 75 -5q10 9 36.5 17t56 11t52.5 -11.5t24 -47.5q0 -2 0.5 -46.5t1.5 -67.5t6 -79t13.5 -102.5t24.5 -114t38 -136.5zM180 271q52 -2 96 -6q-26 92 -43 175q-22 -82 -53 -169z" />
    <glyph glyph-name="acircumflex" unicode="&#xe2;" horiz-adv-x="464" 
d="M169 879q15 2 34.5 1.5t36.5 -15.5t18 -42q-13 -15 -23 -29.5t-16 -24t-9.5 -16t-5.5 -11.5l-2 -4q-34 -44 -63 23q-9 44 4 79t26 39zM265 823q7 25 31 41.5t55 -0.5q17 -53 38 -85q9 -26 -7 -34t-42 -2q-37 14 -58 41t-17 39zM464 96q0 -5 -6 2q-4 3 -5 1q0 -3 5.5 -27
t4.5 -27q-1 -17 -9 -35q-2 -2 -7.5 -6.5t-6.5 -5.5q-2 -2 -2 -4.5t-1 -3.5q-2 -2 -6 -3.5t-5 -2.5l-16 -2q-16 -1 -40 47t-52 130q-8 -3 -26 -9q-41 4 -149 -11l-25 -65l-4 -5l-8 -8l-23 -29l18 97l-40 -117q-20 0 -26 -4q-1 0 -6 -12t-6 -13q-4 -2 -12 -5q-5 -2 -10 0
q0 11 30 149h-8q-15 1 -21 32.5t4.5 64.5t35.5 38q9 2 21 3q80 360 73 413q39 5 75 -5q10 9 36.5 17t56 11t52.5 -11.5t24 -47.5q0 -2 0.5 -46.5t1.5 -67.5t6 -79t13.5 -102.5t24.5 -114t38 -136.5zM190 271q52 -2 96 -6q-26 92 -43 175q-22 -82 -53 -169z" />
    <glyph glyph-name="atilde" unicode="&#xe3;" horiz-adv-x="451" 
d="M358 853q12 -15 18 -35.5t-2.5 -45t-36.5 -36.5q-22 7 -51.5 9.5t-56 2t-50 -2t-38.5 -3t-16 -1.5q-23 6 -28 20t3 28t22 28q29 20 87 31.5t97.5 10.5t51.5 -6zM453 96q1 -6 -5 1q-5 6 -5 2q-1 -4 4.5 -28t5.5 -26q-2 -18 -10 -35q-2 -2 -7.5 -6.5t-6.5 -5.5
q-1 -2 -1 -4.5t-2 -3.5q-2 -2 -11 -6l-16 -2q-16 -1 -40 47.5t-51 129.5q-18 -6 -26 -9q-42 4 -150 -11l-25 -65l-4 -5l-7 -8l-24 -29l19 97l-41 -117q-20 0 -26 -4q-1 0 -6 -12t-6 -13q-4 -2 -12 -5q-5 -2 -10 0q0 15 31 149h-9q-15 1 -21 32.5t4.5 64.5t35.5 38l21 3
q80 360 73 413q39 5 75 -5q10 9 36.5 17t56 11t52.5 -11.5t24 -47.5q0 -2 0.5 -46.5t1.5 -67.5t6 -79t13.5 -102.5t24.5 -114t38 -136.5zM179 271q52 -2 96 -6q-26 92 -43 175q-22 -82 -53 -169z" />
    <glyph glyph-name="adieresis" unicode="&#xe4;" horiz-adv-x="453" 
d="M117 871q13 11 32.5 15t43.5 -5t41 -34q2 -10 1.5 -20.5t-4 -23t-6.5 -22t-6 -17.5l-3 -7q-2 -10 -23 -14.5t-41 3.5q-23 35 -33.5 76t-1.5 49zM264 871q13 11 32.5 15t43.5 -5t41 -34q2 -10 1.5 -20.5t-4 -23t-6.5 -22t-6 -17.5l-3 -7q-2 -10 -22.5 -14.5t-41.5 3.5
q-23 35 -33.5 76t-1.5 49zM453 96q1 -6 -5 1q-5 6 -5 2q-1 -4 4.5 -28t5.5 -26q-2 -18 -10 -35q-2 -2 -7.5 -6.5t-6.5 -5.5q-1 -2 -1 -4.5t-2 -3.5q-2 -2 -11 -6l-16 -2q-16 -1 -40 47.5t-51 129.5q-18 -6 -26 -9q-42 4 -150 -11l-25 -65l-4 -5l-7 -8l-24 -29l19 97
l-41 -117q-20 0 -26 -4q-1 0 -6 -12t-6 -13q-4 -2 -12 -5q-5 -2 -10 0q0 15 31 149h-9q-15 1 -21 32.5t4.5 64.5t35.5 38l21 3q80 360 73 413q39 5 75 -5q10 9 36.5 17t56 11t52.5 -11.5t24 -47.5q0 -2 0.5 -46.5t1.5 -67.5t6 -79t13.5 -102.5t24.5 -114t38 -136.5zM179 271
q52 -2 96 -6q-26 92 -43 175q-22 -82 -53 -169z" />
    <glyph glyph-name="aring" unicode="&#xe5;" horiz-adv-x="453" 
d="M453 96q1 -6 -5 1q-5 6 -5 2q-1 -4 4.5 -28t5.5 -26q-2 -18 -10 -35q-2 -2 -7.5 -6.5t-6.5 -5.5q-1 -2 -1 -4.5t-2 -3.5q-2 -2 -11 -6l-16 -2q-16 -1 -40 47.5t-51 129.5q-18 -6 -26 -9q-42 4 -150 -11l-25 -65l-4 -5l-7 -8l-24 -29l19 97l-41 -117q-20 0 -26 -4
q-1 0 -6 -12t-6 -13q-4 -2 -12 -5q-5 -2 -10 0q0 15 31 149h-9q-15 1 -21 32.5t4.5 64.5t35.5 38l21 3q80 360 73 413q39 5 75 -5q10 9 36.5 17t56 11t52.5 -11.5t24 -47.5q0 -2 0.5 -46.5t1.5 -67.5t6 -79t13.5 -102.5t24.5 -114t38 -136.5zM179 271q52 -2 96 -6
q-26 92 -43 175q-22 -82 -53 -169zM211 898q32 11 64.5 11t48.5 -5t19 -9q11 -14 6 -35t-15 -24q-3 -1 -14 1.5t-30 2.5t-41 -7q-26 -9 -42.5 -23t-20.5 -23.5t-3 -14.5q2 -6 13.5 -11.5t33.5 -7t51 8.5q32 11 46.5 27t12.5 27l-1 11v2l5 -3q0 4 2 4q5 2 10 -3
q8 -9 9.5 -26.5t-3.5 -37t-25 -39t-52 -29.5q-57 -19 -108 -5t-65 58q-14 45 22.5 90.5t76.5 59.5z" />
    <glyph glyph-name="ae" unicode="&#xe6;" horiz-adv-x="1049" 
 />
    <glyph glyph-name="ccedilla" unicode="&#xe7;" horiz-adv-x="484" 
d="M491 250q-1 -87 -73.5 -166.5t-164.5 -83.5q20 -41 16 -65q-20 -38 -53.5 -38t-60.5 18q-9 4 -5 34.5t21 65.5q-32 12 -59.5 32.5t-54 55t-42 89.5t-15.5 124q0 88 20.5 180t41.5 140l20 49q10 8 42.5 10.5t64.5 -5.5q39 12 75 -1.5t59.5 -41.5t37.5 -60.5t14 -57.5
q-1 -34 -40.5 -71t-75.5 -20q0 81 -34 159q-14 -35 -21.5 -54.5t-23.5 -67t-22.5 -81t-12 -82t-1 -85.5t20.5 -77t44 -69q45 22 80 57.5t53.5 72.5t31.5 76.5t13 69t-2 50.5q5 0 10 -4.5t8 -9.5l3 -5q2 1 5.5 1.5t11.5 1t8 -1.5q3 -2 6.5 -8.5t5.5 -11.5l2 -5q12 -3 16 -8
q30 -48 30 -106z" />
    <glyph glyph-name="egrave" unicode="&#xe8;" horiz-adv-x="506" 
d="M140 177q117 38 235.5 58t197.5 5q0 -3 -4.5 -9.5t-9.5 -10.5l-5 -5l-5 -12l-38 -18l28 -3q-28 -11 -44 -24q-7 -6 -17.5 -17.5t-17.5 -14.5q-9 0 -67 -14.5t-162 -50.5t-194 -80q-15 -7 -34.5 24.5t-22.5 66t19 51.5q7 5 21 9q0 26 0.5 111.5t0 136t-1.5 118t-4 110
t-8 60.5q4 2 12 4.5t28.5 6t38.5 1.5q96 13 400 8l-1 -26q-18 -8 -31 -22l-23 -17l20 -1l-33 -17l-1 -12q-40 -17 -46 -19l-195 -31q0 -4 -0.5 -12t-0.5 -12q-1 -26 -5 -74q144 18 251 16l-8 -21l-4 -24l-31 -17l13 -1l-33 -21l1 -10l-36 -9l-7 -12q-36 -17 -50 -22
q-3 0 -19 -4t-44 -11.5t-48 -12.5q-6 -62 -15 -119zM123 845q11 39 50 66t87 -1q14 -44 29 -76.5t23 -45.5l8 -13q16 -42 -9.5 -54t-66.5 -4q-60 23 -93 66t-28 62z" />
    <glyph glyph-name="eacute" unicode="&#xe9;" horiz-adv-x="506" 
d="M140 177q117 38 235.5 58t197.5 5q0 -3 -4.5 -9.5t-9.5 -10.5l-5 -5l-5 -12l-38 -18l28 -3q-28 -11 -44 -24q-7 -6 -17.5 -17.5t-17.5 -14.5q-9 0 -67 -14.5t-162 -50.5t-194 -80q-15 -7 -34.5 24.5t-22.5 66t19 51.5q7 5 21 9q0 26 0.5 111.5t0 136t-1.5 118t-4 110
t-8 60.5q4 2 12 4.5t28.5 6t38.5 1.5q96 13 400 8l-1 -26q-18 -8 -31 -22l-23 -17l20 -1l-33 -17l-1 -12q-40 -17 -46 -19l-195 -31q0 -4 -0.5 -12t-0.5 -12q-1 -26 -5 -74q144 18 251 16l-8 -21l-4 -24l-31 -17l13 -1l-33 -21l1 -10l-36 -9l-7 -12q-36 -17 -50 -22
q-3 0 -19 -4t-44 -11.5t-48 -12.5q-6 -62 -15 -119zM289 917q39 -11 66 -49.5t-2 -87.5q-28 -9 -51.5 -18t-38 -16.5t-24 -13t-15 -9t-6.5 -3.5q-41 -16 -53 10t-4 67q23 59 65.5 92.5t62.5 27.5z" />
    <glyph glyph-name="ecircumflex" unicode="&#xea;" horiz-adv-x="506" 
d="M140 177q117 38 235.5 58t197.5 5q0 -3 -4.5 -9.5t-9.5 -10.5l-5 -5l-5 -12l-38 -18l28 -3q-28 -11 -44 -24q-7 -6 -17.5 -17.5t-17.5 -14.5q-9 0 -67 -14.5t-162 -50.5t-194 -80q-15 -7 -34.5 24.5t-22.5 66t19 51.5q7 5 21 9q0 26 0.5 111.5t0 136t-1.5 118t-4 110
t-8 60.5q4 2 12 4.5t28.5 6t38.5 1.5q96 13 400 8l-1 -26q-18 -8 -31 -22l-23 -17l20 -1l-33 -17l-1 -12q-40 -17 -46 -19l-195 -31q0 -4 -0.5 -12t-0.5 -12q-1 -26 -5 -74q144 18 251 16l-8 -21l-4 -24l-31 -17l13 -1l-33 -21l1 -10l-36 -9l-7 -12q-36 -17 -50 -22
q-3 0 -19 -4t-44 -11.5t-48 -12.5q-6 -62 -15 -119zM169 879q15 2 34.5 1.5t36.5 -15.5t18 -42q-13 -15 -23 -29.5t-16 -24t-9.5 -16t-5.5 -11.5l-2 -4q-34 -44 -63 23q-9 44 4 79t26 39zM265 823q7 25 31 41.5t55 -0.5q17 -53 38 -85q9 -26 -7 -34t-42 -2q-37 14 -58 41
t-17 39z" />
    <glyph glyph-name="edieresis" unicode="&#xeb;" horiz-adv-x="506" 
d="M140 177q117 38 235.5 58t197.5 5q0 -3 -4.5 -9.5t-9.5 -10.5l-5 -5l-5 -12l-38 -18l28 -3q-28 -11 -44 -24q-7 -6 -17.5 -17.5t-17.5 -14.5q-9 0 -67 -14.5t-162 -50.5t-194 -80q-15 -7 -34.5 24.5t-22.5 66t19 51.5q7 5 21 9q0 26 0.5 111.5t0 136t-1.5 118t-4 110
t-8 60.5q4 2 12 4.5t28.5 6t38.5 1.5q96 13 400 8l-1 -26q-18 -8 -31 -22l-23 -17l20 -1l-33 -17l-1 -12q-40 -17 -46 -19l-195 -31q0 -4 -0.5 -12t-0.5 -12q-1 -26 -5 -74q144 18 251 16l-8 -21l-4 -24l-31 -17l13 -1l-33 -21l1 -10l-36 -9l-7 -12q-36 -17 -50 -22
q-3 0 -19 -4t-44 -11.5t-48 -12.5q-6 -62 -15 -119zM77 871q13 11 32.5 15t43.5 -5t41 -34q2 -10 1.5 -20.5t-4 -23t-6.5 -22t-6 -17.5l-3 -7q-2 -10 -23 -14.5t-41 3.5q-23 35 -33.5 76t-1.5 49zM274 871q13 11 32.5 15t43.5 -5t41 -34q2 -10 1.5 -20.5t-4 -23t-6.5 -22
t-6 -17.5l-3 -7q-2 -10 -22.5 -14.5t-41.5 3.5q-23 35 -33.5 76t-1.5 49z" />
    <glyph glyph-name="igrave" unicode="&#xec;" horiz-adv-x="210" 
d="M35 703q17 4 34 5.5t40.5 -5t41 -22t29 -52t9.5 -88.5q-4 -92 -11 -204.5t-12 -178.5l-6 -67l-7 9l-5 -25l-12 -3l-13 -37l-29 -17l-17 -23l-8 7l-8 -27q-9 -11 -13 -11q-1 9 -7 331.5t-20 392.5q-1 4 3 9t11 6zM-37 845q11 39 50 66t87 -1q14 -44 29 -76.5t23 -45.5
l8 -13q16 -42 -9.5 -54t-66.5 -4q-60 23 -93 66t-28 62z" />
    <glyph glyph-name="iacute" unicode="&#xed;" horiz-adv-x="210" 
d="M35 703q17 4 34 5.5t40.5 -5t41 -22t29 -52t9.5 -88.5q-4 -92 -11 -204.5t-12 -178.5l-6 -67l-7 9l-5 -25l-12 -3l-13 -37l-29 -17l-17 -23l-8 7l-8 -27q-9 -11 -13 -11q-1 9 -7 331.5t-20 392.5q-1 4 3 9t11 6zM139 917q39 -11 66 -49.5t-2 -87.5q-28 -9 -51.5 -18
t-38 -16.5t-24 -13t-15 -9t-6.5 -3.5q-41 -16 -53 10t-4 67q23 59 65.5 92.5t62.5 27.5z" />
    <glyph glyph-name="icircumflex" unicode="&#xee;" horiz-adv-x="210" 
d="M35 703q17 4 34 5.5t40.5 -5t41 -22t29 -52t9.5 -88.5q-4 -92 -11 -204.5t-12 -178.5l-6 -67l-7 9l-5 -25l-12 -3l-13 -37l-29 -17l-17 -23l-8 7l-8 -27q-9 -11 -13 -11q-1 9 -7 331.5t-20 392.5q-1 4 3 9t11 6zM-1 879q15 2 34.5 1.5t36.5 -15.5t18 -42
q-13 -15 -23 -29.5t-16 -24t-9.5 -16t-5.5 -11.5l-2 -4q-34 -44 -63 23q-9 44 4 79t26 39zM95 823q7 25 31 41.5t55 -0.5q17 -53 38 -85q9 -26 -7 -34t-42 -2q-37 14 -58 41t-17 39z" />
    <glyph glyph-name="idieresis" unicode="&#xef;" horiz-adv-x="210" 
d="M35 703q17 4 34 5.5t40.5 -5t41 -22t29 -52t9.5 -88.5q-4 -92 -11 -204.5t-12 -178.5l-6 -67l-7 9l-5 -25l-12 -3l-13 -37l-29 -17l-17 -23l-8 7l-8 -27q-9 -11 -13 -11q-1 9 -7 331.5t-20 392.5q-1 4 3 9t11 6zM-23 871q13 11 32.5 15t43.5 -5t41 -34q2 -10 1.5 -20.5
t-4 -23t-6.5 -22t-6 -17.5l-3 -7q-2 -10 -23 -14.5t-41 3.5q-23 35 -33.5 76t-1.5 49zM134 871q13 11 32.5 15t43.5 -5t41 -34q2 -10 1.5 -20.5t-4 -23t-6.5 -22t-6 -17.5l-3 -7q-2 -10 -22.5 -14.5t-41.5 3.5q-23 35 -33.5 76t-1.5 49z" />
    <glyph glyph-name="eth" unicode="&#xf0;" horiz-adv-x="525" 
 />
    <glyph glyph-name="ntilde" unicode="&#xf1;" horiz-adv-x="472" 
 />
    <glyph glyph-name="ograve" unicode="&#xf2;" horiz-adv-x="407" 
d="M0 449q0 63 18.5 118.5t36.5 80.5t26 29q28 13 63.5 -8.5t35.5 -40.5q0 -7 -11 -25t-22.5 -50.5t-11.5 -74.5q0 -51 16 -88.5t30 -49.5t23 -14q11 -1 27.5 15.5t31.5 57t15 93.5q0 39 -8 67.5t-20 41.5t-23.5 20.5t-19.5 8.5h-8l-5 2l8 6q0 1 -3 3.5t-3 3.5q0 9 12 15
q13 7 32 4.5t40 -8t42.5 -23t38 -39.5t27 -57.5t10.5 -77.5q-2 -114 -55 -192.5t-137 -77.5q-60 0 -109.5 48t-73 106.5t-23.5 105.5zM13 117q49 29 133 35.5t153 -8t84 -41.5h-5l13 -16l-8 -2q2 -2 4.5 -6t6.5 -12t3 -11l-11 -41l-9 5q-123 17 -304 -41q-33 -10 -53 11.5
t-20 56.5t13 70zM71 827q11 39 50 66t87 -1q14 -44 29 -76.5t23 -45.5l8 -13q16 -42 -9.5 -54t-66.5 -4q-60 23 -93 66t-28 62z" />
    <glyph glyph-name="oacute" unicode="&#xf3;" horiz-adv-x="393" 
d="M0 449q0 63 18.5 118.5t36.5 80.5t26 29q28 13 63.5 -8.5t35.5 -40.5q0 -7 -11 -25t-22.5 -50.5t-11.5 -74.5q0 -51 16 -88.5t30 -49.5t23 -14q11 -1 27.5 15.5t31.5 57t15 93.5q0 39 -8 67.5t-20 41.5t-23.5 20.5t-19.5 8.5h-8l-5 2l8 6q0 1 -3 3.5t-3 3.5q0 9 12 15
q13 7 32 4.5t40 -8t42.5 -23t38 -39.5t27 -57.5t10.5 -77.5q-2 -114 -55 -192.5t-137 -77.5q-60 0 -109.5 48t-73 106.5t-23.5 105.5zM13 117q49 29 133 35.5t153 -8t84 -41.5h-5l13 -16l-8 -2q2 -2 4.5 -6t6.5 -12t3 -11l-11 -41l-9 5q-123 17 -304 -41q-33 -10 -53 11.5
t-20 56.5t13 70zM289 899q39 -11 66 -49.5t-2 -87.5q-28 -9 -51.5 -18t-38 -16.5t-24 -13t-15 -9t-6.5 -3.5q-41 -16 -53 10t-4 67q23 59 65.5 92.5t62.5 27.5z" />
    <glyph glyph-name="ocircumflex" unicode="&#xf4;" horiz-adv-x="404" 
d="M0 449q0 63 18.5 118.5t36.5 80.5t26 29q28 13 63.5 -8.5t35.5 -40.5q0 -7 -11 -25t-22.5 -50.5t-11.5 -74.5q0 -51 16 -88.5t30 -49.5t23 -14q11 -1 27.5 15.5t31.5 57t15 93.5q0 39 -8 67.5t-20 41.5t-23.5 20.5t-19.5 8.5h-8l-5 2l8 6q0 1 -3 3.5t-3 3.5q0 9 12 15
q13 7 32 4.5t40 -8t42.5 -23t38 -39.5t27 -57.5t10.5 -77.5q-2 -114 -55 -192.5t-137 -77.5q-60 0 -109.5 48t-73 106.5t-23.5 105.5zM13 117q49 29 133 35.5t153 -8t84 -41.5h-5l13 -16l-8 -2q2 -2 4.5 -6t6.5 -12t3 -11l-11 -41l-9 5q-123 17 -304 -41q-33 -10 -53 11.5
t-20 56.5t13 70zM92 854q15 2 34.5 1.5t36.5 -15.5t18 -42q-13 -15 -23 -29.5t-16 -24t-9.5 -16t-5.5 -10.5l-2 -5q-34 -44 -63 23q-9 44 4 79t26 39zM188 798q7 25 31 41.5t55 -0.5q17 -53 38 -85q9 -26 -7 -34t-42 -2q-37 14 -58 41t-17 39z" />
    <glyph glyph-name="otilde" unicode="&#xf5;" horiz-adv-x="401" 
d="M0 449q0 63 18.5 118.5t36.5 80.5t26 29q28 13 63.5 -8.5t35.5 -40.5q0 -7 -11 -25t-22.5 -50.5t-11.5 -74.5q0 -51 16 -88.5t30 -49.5t23 -14q11 -1 27.5 15.5t31.5 57t15 93.5q0 39 -8 67.5t-20 41.5t-23.5 20.5t-19.5 8.5h-8l-5 2l8 6q0 1 -3 3.5t-3 3.5q0 9 12 15
q13 7 32 4.5t40 -8t42.5 -23t38 -39.5t27 -57.5t10.5 -77.5q-2 -114 -55 -192.5t-137 -77.5q-60 0 -109.5 48t-73 106.5t-23.5 105.5zM13 117q49 29 133 35.5t153 -8t84 -41.5h-5l13 -16l-8 -2q2 -2 4.5 -6t6.5 -12t3 -11l-11 -41l-9 5q-123 17 -304 -41q-33 -10 -53 11.5
t-20 56.5t13 70zM312 827q12 -15 18 -35.5t-2.5 -45t-36.5 -36.5q-22 7 -51.5 9.5t-56 2t-50 -2t-38.5 -3t-16 -1.5q-23 6 -28 20t3 28t22 28q29 20 87 31.5t97.5 10.5t51.5 -6z" />
    <glyph glyph-name="odieresis" unicode="&#xf6;" horiz-adv-x="401" 
d="M0 449q0 63 18.5 118.5t36.5 80.5t26 29q28 13 63.5 -8.5t35.5 -40.5q0 -7 -11 -25t-22.5 -50.5t-11.5 -74.5q0 -51 16 -88.5t30 -49.5t23 -14q11 -1 27.5 15.5t31.5 57t15 93.5q0 39 -8 67.5t-20 41.5t-23.5 20.5t-19.5 8.5h-8l-5 2l8 6q0 1 -3 3.5t-3 3.5q0 9 12 15
q13 7 32 4.5t40 -8t42.5 -23t38 -39.5t27 -57.5t10.5 -77.5q-2 -114 -55 -192.5t-137 -77.5q-60 0 -109.5 48t-73 106.5t-23.5 105.5zM13 117q49 29 133 35.5t153 -8t84 -41.5h-5l13 -16l-8 -2q2 -2 4.5 -6t6.5 -12t3 -11l-11 -41l-9 5q-123 17 -304 -41q-33 -10 -53 11.5
t-20 56.5t13 70zM46 851q13 11 32.5 15t43.5 -5t41 -34q2 -10 1.5 -20.5t-4 -23t-6.5 -22t-6 -17.5l-3 -7q-2 -10 -23 -14.5t-41 3.5q-23 35 -33.5 76t-1.5 49zM213 851q13 11 32.5 15t43.5 -5t41 -34q2 -10 1.5 -20.5t-4 -23t-6.5 -22t-6 -17.5l-3 -7q-2 -10 -22.5 -14.5
t-41.5 3.5q-23 35 -33.5 76t-1.5 49z" />
    <glyph glyph-name="divide" unicode="&#xf7;" horiz-adv-x="572" 
d="M17 348q35 19 121.5 23t175 -4t161 -25.5t82.5 -38.5l-5 1l13 -18l-9 -1q1 -1 2 -2.5t3.5 -6t4.5 -8t3.5 -7.5t0.5 -6l-12 -40l-8 6q-82 16 -246 8.5t-231 -24.5q-31 -8 -50 16t-18.5 59t12.5 68zM219 171q15 12 34.5 18.5t43.5 -2t37 -38.5q25 -52 -11 -92
q-15 -16 -47 -19t-51 12q-23 19 -26.5 47t4.5 48t16 26zM219 551q15 12 34.5 18.5t43.5 -2t37 -38.5q25 -52 -11 -92q-15 -16 -47 -19t-51 12q-23 19 -26.5 47t4.5 48t16 26z" />
    <glyph glyph-name="oslash" unicode="&#xf8;" horiz-adv-x="399" 
d="M27 210q12 21 36 65q-29 40 -46 89t-17 86q0 63 18.5 118.5t36.5 80.5t26 29q28 13 63.5 -8.5t35.5 -40.5q0 -7 -11 -25t-22.5 -50.5t-11.5 -74.5q0 -25 5 -50q59 131 83 196l-24 7l-5 1l8 6q0 1 -3 3.5t-3 3.5q0 10 12 15q13 5 29 5q12 34 18 60l10 2.5t21.5 2t28 -3
t23.5 -16t13 -33.5q1 -16 -15 -55q62 -57 62 -162q-2 -115 -54.5 -193.5t-137.5 -77.5q-38 0 -77 22q-12 -26 -20 -47q-2 -5 -19 -9t-37 8t-26 46zM278 493v15q-51 -92 -91 -171q10 -8 17 -10q11 -1 27.5 15.5t31.5 57t15 93.5zM393 92q2 -2 4.5 -6t6.5 -12t3 -11l-11 -41
l-9 5q-123 17 -303 -41q-33 -10 -53.5 11.5t-20.5 56.5t13 70q50 29 133.5 35.5t152.5 -8t85 -41.5h-5l13 -16z" />
    <glyph glyph-name="ugrave" unicode="&#xf9;" horiz-adv-x="410" 
d="M0 462q-1 64 7 118.5t17 80.5t16 29q28 13 65.5 -9t33.5 -40q-19 -78 -21 -139t6.5 -93t23.5 -53.5t25.5 -27t16.5 -6.5q8 -1 22.5 8t30.5 26t27.5 50t11.5 73q0 62 -8 106t-16 57l-7 14l-4 1l8 7q-6 6 -6 7q0 9 12 14q16 4 34 3t36.5 -18t33.5 -41t24.5 -65t8.5 -91
q-2 -115 -54.5 -193.5t-137.5 -77.5q-61 1 -109.5 44.5t-72 101t-24.5 114.5zM22 136q48 28 129 34.5t148 -8t82 -40.5l-5 1l13 -16l-8 -2q2 -2 4.5 -6t6.5 -11.5t3 -10.5l-11 -40l-9 5q-119 16 -295 -40q-32 -10 -51 11t-19 55t12 68zM71 827q11 39 50 66t87 -1
q14 -44 29 -76.5t23 -45.5l8 -13q16 -42 -9.5 -54t-66.5 -4q-60 23 -93 66t-28 62z" />
    <glyph glyph-name="uacute" unicode="&#xfa;" horiz-adv-x="410" 
d="M0 462q-1 64 7 118.5t17 80.5t16 29q28 13 65.5 -9t33.5 -40q-19 -78 -21 -139t6.5 -93t23.5 -53.5t25.5 -27t16.5 -6.5q8 -1 22.5 8t30.5 26t27.5 50t11.5 73q0 62 -8 106t-16 57l-7 14l-4 1l8 7q-6 6 -6 7q0 9 12 14q16 4 34 3t36.5 -18t33.5 -41t24.5 -65t8.5 -91
q-2 -115 -54.5 -193.5t-137.5 -77.5q-61 1 -109.5 44.5t-72 101t-24.5 114.5zM22 136q48 28 129 34.5t148 -8t82 -40.5l-5 1l13 -16l-8 -2q2 -2 4.5 -6t6.5 -11.5t3 -10.5l-11 -40l-9 5q-119 16 -295 -40q-32 -10 -51 11t-19 55t12 68zM289 899q39 -11 66 -49.5t-2 -87.5
q-28 -9 -51.5 -18t-38 -16.5t-24 -13t-15 -9t-6.5 -3.5q-41 -16 -53 10t-4 67q23 59 65.5 92.5t62.5 27.5z" />
    <glyph glyph-name="ucircumflex" unicode="&#xfb;" horiz-adv-x="410" 
d="M0 462q-1 64 7 118.5t17 80.5t16 29q28 13 65.5 -9t33.5 -40q-19 -78 -21 -139t6.5 -93t23.5 -53.5t25.5 -27t16.5 -6.5q8 -1 22.5 8t30.5 26t27.5 50t11.5 73q0 62 -8 106t-16 57l-7 14l-4 1l8 7q-6 6 -6 7q0 9 12 14q16 4 34 3t36.5 -18t33.5 -41t24.5 -65t8.5 -91
q-2 -115 -54.5 -193.5t-137.5 -77.5q-61 1 -109.5 44.5t-72 101t-24.5 114.5zM22 136q48 28 129 34.5t148 -8t82 -40.5l-5 1l13 -16l-8 -2q2 -2 4.5 -6t6.5 -11.5t3 -10.5l-11 -40l-9 5q-119 16 -295 -40q-32 -10 -51 11t-19 55t12 68zM92 854q15 2 34.5 1.5t36.5 -15.5
t18 -42q-13 -15 -23 -29.5t-16 -24t-9.5 -16t-5.5 -10.5l-2 -5q-34 -44 -63 23q-9 44 4 79t26 39zM188 798q7 25 31 41.5t55 -0.5q17 -53 38 -85q9 -26 -7 -34t-42 -2q-37 14 -58 41t-17 39z" />
    <glyph glyph-name="udieresis" unicode="&#xfc;" horiz-adv-x="410" 
d="M0 462q-1 64 7 118.5t17 80.5t16 29q28 13 65.5 -9t33.5 -40q-19 -78 -21 -139t6.5 -93t23.5 -53.5t25.5 -27t16.5 -6.5q8 -1 22.5 8t30.5 26t27.5 50t11.5 73q0 62 -8 106t-16 57l-7 14l-4 1l8 7q-6 6 -6 7q0 9 12 14q16 4 34 3t36.5 -18t33.5 -41t24.5 -65t8.5 -91
q-2 -115 -54.5 -193.5t-137.5 -77.5q-61 1 -109.5 44.5t-72 101t-24.5 114.5zM22 136q48 28 129 34.5t148 -8t82 -40.5l-5 1l13 -16l-8 -2q2 -2 4.5 -6t6.5 -11.5t3 -10.5l-11 -40l-9 5q-119 16 -295 -40q-32 -10 -51 11t-19 55t12 68zM46 851q13 11 32.5 15t43.5 -5t41 -34
q2 -10 1.5 -20.5t-4 -23t-6.5 -22t-6 -17.5l-3 -7q-2 -10 -23 -14.5t-41 3.5q-23 35 -33.5 76t-1.5 49zM213 851q13 11 32.5 15t43.5 -5t41 -34q2 -10 1.5 -20.5t-4 -23t-6.5 -22t-6 -17.5l-3 -7q-2 -10 -22.5 -14.5t-41.5 3.5q-23 35 -33.5 76t-1.5 49z" />
    <glyph glyph-name="yacute" unicode="&#xfd;" 
d="M474 686q34 -4 53.5 -25.5t23 -37.5t2.5 -27q0 -1 -6.5 -25t-15.5 -59.5t-20 -87.5t-20 -108.5t-16 -123t-7.5 -130.5t5.5 -131q-4 -33 -5 -40q0 -1 -4 25.5t-8 53.5l-4 27l12 -127q-1 -19 -3 -37l-1 3q0 4 -1 8l-1 4q0 -1 1 -14t1 -14q-1 -22 -0.5 -31.5t1 -16.5t0.5 -8
l-5 3q0 -12 -8 -17q-31 -20 -39 -3q-103 203 -79 520q-10 -28 -25 -69t-23.5 -63.5t-19 -48t-18 -38.5t-13.5 -18q-17 -13 -64 -8q-55 7 -84.5 59.5t-36 129t-6.5 155t-4 152t-20 105.5q-3 5 -7 10t-7 7l-2 2q0 54 78 43q27 -3 45 -12.5t28.5 -29t15.5 -40.5t6.5 -58
t1.5 -71.5t1 -91.5t4 -107q7 -1 42.5 66t84 158t74.5 130q1 3 1 8.5t1 8.5q7 51 91 40zM339 917q39 -11 66 -49.5t-2 -87.5q-28 -9 -51.5 -18t-38 -16.5t-24 -13t-15 -9t-6.5 -3.5q-41 -16 -53 10t-4 67q23 59 65.5 92.5t62.5 27.5z" />
    <glyph glyph-name="thorn" unicode="&#xfe;" horiz-adv-x="207" 
 />
    <glyph glyph-name="ydieresis" unicode="&#xff;" horiz-adv-x="547" 
d="M474 686q34 -4 53.5 -25.5t23 -37.5t2.5 -27q0 -1 -6.5 -25t-15.5 -59.5t-20 -87.5t-20 -108.5t-16 -123t-7.5 -130.5t5.5 -131q-4 -33 -5 -40q0 -1 -4 25.5t-8 53.5l-4 27l12 -127q-1 -19 -3 -37l-1 3q0 4 -1 8l-1 4q0 -1 1 -14t1 -14q-1 -22 -0.5 -31.5t1 -16.5t0.5 -8
l-5 3q0 -12 -8 -17q-31 -20 -39 -3q-103 203 -79 520q-10 -28 -25 -69t-23.5 -63.5t-19 -48t-18 -38.5t-13.5 -18q-17 -13 -64 -8q-55 7 -84.5 59.5t-36 129t-6.5 155t-4 152t-20 105.5q-3 5 -7 10t-7 7l-2 2q0 54 78 43q27 -3 45 -12.5t28.5 -29t15.5 -40.5t6.5 -58
t1.5 -71.5t1 -91.5t4 -107q7 -1 42.5 66t84 158t74.5 130q1 3 1 8.5t1 8.5q7 51 91 40zM117 871q13 11 32.5 15t43.5 -5t41 -34q2 -10 1.5 -20.5t-4 -23t-6.5 -22t-6 -17.5l-3 -7q-2 -10 -23 -14.5t-41 3.5q-23 35 -33.5 76t-1.5 49zM344 871q13 11 32.5 15t43.5 -5t41 -34
q2 -10 1.5 -20.5t-4 -23t-6.5 -22t-6 -17.5l-3 -7q-2 -10 -22.5 -14.5t-41.5 3.5q-23 35 -33.5 76t-1.5 49z" />
    <glyph glyph-name="Cacute" unicode="&#x106;" horiz-adv-x="515" 
d="M347 913q39 -11 66 -49.5t-2 -87.5q-28 -9 -51.5 -18t-38 -16.5t-24 -13t-15 -9t-6.5 -3.5q-41 -16 -53 10t-4 67q23 59 65.5 92.5t62.5 27.5zM510 330q36 -132 -36.5 -230.5t-204.5 -98.5q-52 0 -100 19.5t-87.5 57.5t-62 100.5t-19.5 141.5q7 192 141 296q88 68 187 69
q77 1 98 -40q5 -11 5 -24q-1 -36 -17 -76.5t-39 -49.5q-81 38 -146 14.5t-106 -82t-43 -122.5q-2 -51 52 -101.5t130 -50.5q87 0 156 65.5t70 112.5q1 33 20 2z" />
    <glyph glyph-name="cacute" unicode="&#x107;" horiz-adv-x="517" 
d="M347 913q39 -11 66 -49.5t-2 -87.5q-28 -9 -51.5 -18t-38 -16.5t-24 -13t-15 -9t-6.5 -3.5q-41 -16 -53 10t-4 67q23 59 65.5 92.5t62.5 27.5zM510 330q36 -132 -36.5 -230.5t-204.5 -98.5q-52 0 -100 19.5t-87.5 57.5t-62 100.5t-19.5 141.5q7 192 141 296q88 68 187 69
q77 1 98 -40q5 -11 5 -24q-1 -36 -17 -76.5t-39 -49.5q-81 38 -146 14.5t-106 -82t-43 -122.5q-2 -51 52 -101.5t130 -50.5q87 0 156 65.5t70 112.5q1 33 20 2z" />
    <glyph glyph-name="Ccaron" unicode="&#x10c;" horiz-adv-x="515" 
d="M126 734q-14 19 -20.5 46t5.5 57.5t48 44.5q27 -10 64.5 -15.5t71.5 -7t64 -1t49 1.5t20 1q22 -7 31 -19t4.5 -25.5t-13.5 -26.5t-23 -25q-38 -23 -110 -33.5t-128.5 -8.5t-62.5 11zM510 330q36 -132 -36.5 -230.5t-204.5 -98.5q-52 0 -100 19.5t-87.5 57.5t-62 100.5
t-19.5 141.5q7 192 141 296q88 68 187 69q77 1 98 -40q5 -11 5 -24q-1 -36 -17 -76.5t-39 -49.5q-81 38 -146 14.5t-106 -82t-43 -122.5q-2 -51 52 -101.5t130 -50.5q87 0 156 65.5t70 112.5q1 33 20 2z" />
    <glyph glyph-name="ccaron" unicode="&#x10d;" horiz-adv-x="517" 
d="M126 734q-14 19 -20.5 46t5.5 57.5t48 44.5q27 -10 64.5 -15.5t71.5 -7t64 -1t49 1.5t20 1q22 -7 31 -19t4.5 -25.5t-13.5 -26.5t-23 -25q-38 -23 -110 -33.5t-128.5 -8.5t-62.5 11zM510 330q36 -132 -36.5 -230.5t-204.5 -98.5q-52 0 -100 19.5t-87.5 57.5t-62 100.5
t-19.5 141.5q7 192 141 296q88 68 187 69q77 1 98 -40q5 -11 5 -24q-1 -36 -17 -76.5t-39 -49.5q-81 38 -146 14.5t-106 -82t-43 -122.5q-2 -51 52 -101.5t130 -50.5q87 0 156 65.5t70 112.5q1 33 20 2z" />
    <glyph glyph-name="Dcroat" unicode="&#x110;" horiz-adv-x="605" 
d="M-6 664q7 7 30.5 13t59 8.5t79.5 1.5t91.5 -11.5t94 -27.5t88.5 -49.5t74 -74t50 -104t18 -137.5q-1 -72 -32.5 -127.5t-75.5 -85.5t-100.5 -49t-97.5 -24.5t-75 -5.5q-16 0 -26 1l-7 -13l-17 1l-10 -26l-12 4q-6 -13 -8 -13q-2 9 -4 61q-137 53 -137 232q1 1 2 3.5
t3.5 6.5t5 5t4 -3t1.5 -14q0 -20 33.5 -44t83.5 -38q-1 41 -3 129q-40 -5 -74 -17q-36 14 -48 44.5t-5.5 57.5t20.5 46q11 13 101 10q-3 81 -5 101q-30 -4 -72 -16q-27 11 -41 68t11 87zM197 143h4v124l-9 -124h5zM497 317q3 53 -78 122t-188 85q0 -12 -0.5 -56t-0.5 -59
q42 -9 71 -26q14 -12 23 -25t13.5 -26.5t-4.5 -25.5t-31 -19l-10 1q-10 0 -28.5 1t-37.5 1q-4 -103 -6 -147q95 8 184 63.5t93 110.5z" />
    <glyph glyph-name="dotlessi" unicode="&#x131;" horiz-adv-x="807" 
 />
    <glyph glyph-name="Lslash" unicode="&#x141;" horiz-adv-x="418" 
 />
    <glyph glyph-name="lslash" unicode="&#x142;" horiz-adv-x="342" 
 />
    <glyph glyph-name="OE" unicode="&#x152;" horiz-adv-x="824" 
 />
    <glyph glyph-name="oe" unicode="&#x153;" horiz-adv-x="907" 
 />
    <glyph glyph-name="Scaron" unicode="&#x160;" horiz-adv-x="499" 
d="M86 748q-9 14 -14.5 33.5t-5.5 41.5t14.5 42t42.5 30q27 -11 64 -17.5t71 -8t63.5 -2t48.5 0t20 0.5q22 -7 30.5 -19t4 -26t-14 -26.5t-23.5 -24.5q-38 -22 -110.5 -30.5t-128.5 -5.5t-62 12zM389 716q4 -2 9.5 -6t17.5 -17t18.5 -28.5t4.5 -40t-17 -50.5
q-53 0 -121 -12.5t-111.5 -26t-43.5 -17.5t38 -16.5t92 -34t107 -53t89 -84.5t32 -116q-4 -67 -27 -112.5t-63 -69t-83.5 -33t-100.5 -9.5q-95 0 -160.5 76t-62.5 144q2 35 7.5 67t9.5 47l4 15q-3 -41 -3 -98q0 22 3.5 49t6.5 43l3 16l15 19l6 -12q-9 -139 81 -182.5
t184 -17.5t96 56q1 23 -42.5 45.5t-106.5 44t-125.5 46.5t-105.5 64.5t-40 87.5q5 84 16 82q2 38 55 67t123.5 42t121.5 19t73 6z" />
    <glyph glyph-name="scaron" unicode="&#x161;" horiz-adv-x="502" 
d="M86 748q-9 14 -14.5 33.5t-5.5 41.5t14.5 42t42.5 30q27 -11 64 -17.5t71 -8t63.5 -2t48.5 0t20 0.5q22 -7 30.5 -19t4 -26t-14 -26.5t-23.5 -24.5q-38 -22 -110.5 -30.5t-128.5 -5.5t-62 12zM389 716q4 -2 9.5 -6t17.5 -17t18.5 -28.5t4.5 -40t-17 -50.5
q-53 0 -121 -12.5t-111.5 -26t-43.5 -17.5t38 -16.5t92 -34t107 -53t89 -84.5t32 -116q-4 -67 -27 -112.5t-63 -69t-83.5 -33t-100.5 -9.5q-95 0 -160.5 76t-62.5 144q2 35 7.5 67t9.5 47l4 15q-3 -41 -3 -98q0 22 3.5 49t6.5 43l3 16l15 19l6 -12q-9 -139 81 -182.5
t184 -17.5t96 56q1 23 -42.5 45.5t-106.5 44t-125.5 46.5t-105.5 64.5t-40 87.5q5 84 16 82q2 38 55 67t123.5 42t121.5 19t73 6z" />
    <glyph glyph-name="Zcaron" unicode="&#x17d;" horiz-adv-x="646" 
d="M153 737q-14 19 -20.5 46t5.5 57.5t48 44.5q27 -10 64.5 -15.5t71.5 -7t64 -1t49 1.5t20 1q22 -7 31 -19t4.5 -25.5t-13.5 -26.5t-23 -25q-38 -23 -110 -33.5t-128.5 -8.5t-62.5 11zM628 276q6 -15 6 -33q0 -69 -36 -123.5t-93 -82.5t-126 -41t-138 0.5t-125.5 43
t-91 86.5t-32.5 130q3 112 58.5 177.5t156.5 115.5q-32 2 -74 -1t-57 -4t-32 5q-54 44 -21 142q30 -4 81 -8.5t184.5 -4.5t238.5 17q6 -9 15 -23.5t20.5 -45.5t3.5 -47q-2 -5 -8 -8q3 -21 -2 -35t-20 -13q-74 0 -148 -19t-130.5 -49.5t-100.5 -66.5t-67.5 -71t-23.5 -61
q0 -46 50.5 -74.5t123 -32t144.5 7t122.5 41t50.5 70.5v1q-6 20 -25 35.5t-41.5 23.5t-50.5 13.5t-45.5 7t-33.5 1.5l-1 13l-19 8q22 4 56 8q-8 3 -19.5 3.5t-19.5 -0.5h-8l-29 5l67 6l-45 8l-28 7l39 9q-28 7 -45 16q21 5 45 6.5t68 -1.5t90 -28.5t82 -70.5q28 -37 34 -63z
" />
    <glyph glyph-name="zcaron" unicode="&#x17e;" horiz-adv-x="606" 
d="M153 737q-14 19 -20.5 46t5.5 57.5t48 44.5q27 -10 64.5 -15.5t71.5 -7t64 -1t49 1.5t20 1q22 -7 31 -19t4.5 -25.5t-13.5 -26.5t-23 -25q-38 -23 -110 -33.5t-128.5 -8.5t-62.5 11zM628 276q6 -15 6 -33q0 -69 -36 -123.5t-93 -82.5t-126 -41t-138 0.5t-125.5 43
t-91 86.5t-32.5 130q3 112 58.5 177.5t156.5 115.5q-32 2 -74 -1t-57 -4t-32 5q-54 44 -21 142q30 -4 81 -8.5t184.5 -4.5t238.5 17q6 -9 15 -23.5t20.5 -45.5t3.5 -47q-2 -5 -8 -8q3 -21 -2 -35t-20 -13q-74 0 -148 -19t-130.5 -49.5t-100.5 -66.5t-67.5 -71t-23.5 -61
q0 -46 50.5 -74.5t123 -32t144.5 7t122.5 41t50.5 70.5v1q-6 20 -25 35.5t-41.5 23.5t-50.5 13.5t-45.5 7t-33.5 1.5l-1 13l-19 8q22 4 56 8q-8 3 -19.5 3.5t-19.5 -0.5h-8l-29 5l67 6l-45 8l-28 7l39 9q-28 7 -45 16q21 5 45 6.5t68 -1.5t90 -28.5t82 -70.5q28 -37 34 -63z
" />
    <glyph glyph-name="florin" unicode="&#x192;" horiz-adv-x="523" 
d="M499 688q9 -8 17 -32t9.5 -51t-18.5 -46t-63 -16l-374 6l-35 9l8 11l-19 8l-28 7l9 10l-15 13l17 12l-40 4q-8 13 -9 18q9 1 133.5 10t251 19.5t156.5 17.5zM185 465q133 6 253 -3l-8 -20l-4 -22l-33 -14l13 -3l-34 -17l1 -10l-38 -6l-7 -11q-37 -13 -52 -17q-4 0 -60 -9
q-6 -91 -17.5 -145.5t-19.5 -63.5l-8 -10l-6 8l-6 -25l-12 -3l-15 -38l-29 -18l-18 -24l-9 5l-8 -26q-10 -12 -14 -12q-1 6 3.5 215.5t-7.5 271.5q0 12 15 17q81 23 120 -20z" />
    <glyph glyph-name="circumflex" unicode="&#x2c6;" 
 />
    <glyph glyph-name="caron" unicode="&#x2c7;" 
 />
    <glyph glyph-name="breve" unicode="&#x2d8;" 
 />
    <glyph glyph-name="dotaccent" unicode="&#x2d9;" 
 />
    <glyph glyph-name="ring" unicode="&#x2da;" 
 />
    <glyph glyph-name="ogonek" unicode="&#x2db;" 
 />
    <glyph glyph-name="tilde" unicode="&#x2dc;" 
 />
    <glyph glyph-name="hungarumlaut" unicode="&#x2dd;" 
 />
    <glyph glyph-name="endash" unicode="&#x2013;" horiz-adv-x="378" 
d="M17 325q56 24 128.5 24t139.5 -20.5t81 -48.5l-5 1l13 -18l-9 -1q1 -1 2 -2.5t3.5 -6t4.5 -8t3.5 -7.5t0.5 -6l-12 -40l-8 6q-114 27 -286 -16q-31 -8 -50 16t-18.5 59t12.5 68z" />
    <glyph glyph-name="emdash" unicode="&#x2014;" horiz-adv-x="572" 
d="M17 325q35 19 121.5 23t175 -4t161 -25.5t82.5 -38.5l-5 1l13 -18l-9 -1q1 -1 2 -2.5t3.5 -6t4.5 -8t3.5 -7.5t0.5 -6l-12 -40l-8 6q-82 16 -246 8.5t-231 -24.5q-31 -8 -50 16t-18.5 59t12.5 68z" />
    <glyph glyph-name="quoteleft" unicode="&#x2018;" horiz-adv-x="184" 
d="M20 794q19 15 45 22.5t56.5 -3t46.5 -45.5q-9 -28 -12.5 -65.5t-3 -71.5t2 -63.5t3.5 -48.5t2 -20q-6 -23 -17 -32.5t-24.5 -5.5t-26.5 12.5t-26 21.5q-25 37 -39.5 110.5t-13.5 123t7 65.5z" />
    <glyph glyph-name="quoteright" unicode="&#x2019;" horiz-adv-x="196" 
d="M150 798q28 -73 10 -169.5t-68 -147.5q24 34 36.5 72.5t13.5 59.5l1 21q-32 -129 -66 -159v8l-6 -3t-11 -4.5t-9 -1.5l-27 9l-2 13q30 104 4 266q-5 29 16 43.5t51.5 11.5t56.5 -19z" />
    <glyph glyph-name="quotesinglbase" unicode="&#x201a;" 
 />
    <glyph glyph-name="quotedblleft" unicode="&#x201c;" horiz-adv-x="263" 
d="M-18 754q15 12 26 17.5t26 7.5t29.5 -11t26.5 -40q-9 -28 -12.5 -65.5t-3 -72t2 -64.5t3.5 -49t2 -20q-4 -16 -7.5 -24.5t-6.5 -12t-7.5 -0.5t-8 7t-11 13t-13.5 15q-25 37 -39.5 110.5t-13.5 123t7 65.5zM126 746q15 11 30.5 17.5t34 8t35 -11t26.5 -39.5
q-11 -28 -18 -71t-9.5 -84.5t-3 -78.5t-0.5 -62v-25q-8 -23 -16 -32.5t-18.5 -5.5t-18.5 11t-21 22q-22 37 -30 121t-4 153t13 77z" />
    <glyph glyph-name="quotedblright" unicode="&#x201d;" horiz-adv-x="281" 
d="M278 754q6 -16 7 -65.5t-13.5 -123t-39.5 -110.5q-6 -6 -13.5 -15t-11 -13t-8 -7t-7.5 0.5t-6.5 12t-7.5 24.5q0 1 2 20t3.5 49t2 64.5t-3 72t-12.5 65.5q12 27 26.5 40t29.5 11t26 -7.5t26 -17.5zM134 746q9 -8 13 -77t-4 -153t-30 -121q-13 -15 -21 -22t-18.5 -11
t-18.5 5.5t-16 32.5v25q0 25 -0.5 62t-3 78.5t-9.5 84.5t-18 71q10 27 26.5 39.5t35 11t34 -8t30.5 -17.5z" />
    <glyph glyph-name="quotedblbase" unicode="&#x201e;" 
 />
    <glyph glyph-name="dagger" unicode="&#x2020;" horiz-adv-x="486" 
d="M445 476q25 -4 37.5 -40.5t4 -73.5t-35.5 -40q-5 -1 -27.5 1t-61.5 5.5t-73 4.5q-13 -283 -5 -468q0 -5 -14.5 -15t-37.5 -6t-41 34q-22 125 -15 453q-79 -7 -124 -26q-28 -11 -42 37q-17 55 1 103q11 30 32 35q60 13 137 16q9 277 2 330q3 2 9 4t23 5t31 1.5t30 -11
t25 -28.5q13 -26 -3 -304q79 -5 148 -17z" />
    <glyph glyph-name="daggerdbl" unicode="&#x2021;" horiz-adv-x="307" 
d="M97 817q3 2 9 4t23 5t31.5 1.5t30.5 -11t25 -28.5q8 -17 5.5 -111t-11 -224t-12.5 -289t1 -307q0 -2 -5.5 -7.5t-15.5 -9.5t-21.5 -5t-25 7.5t-24.5 27.5q-18 96 -17 316t8.5 379t-1.5 252z" />
    <glyph glyph-name="bullet" unicode="&#x2022;" horiz-adv-x="286" 
d="M64 380q20 15 45 23t55.5 -2.5t48.5 -46.5q30 -66 -15 -113q-19 -20 -60.5 -23t-65.5 15q-29 24 -33.5 58t5.5 57.5t20 31.5z" />
    <glyph glyph-name="ellipsis" unicode="&#x2026;" horiz-adv-x="534" 
d="M5 198q18 15 44 20.5t58.5 -6.5t55.5 -46q4 -14 1 -36t-8.5 -38.5t-11.5 -31.5l-5 -15q-2 -14 -30.5 -20.5t-55.5 4.5q-32 49 -46 103.5t-2 65.5zM183 198q18 15 44 20.5t58.5 -6.5t55.5 -46q4 -14 1 -36t-8.5 -38.5t-11.5 -31.5l-5 -15q-2 -14 -30.5 -20.5t-55.5 4.5
q-32 49 -46 103.5t-2 65.5zM361 198q18 15 44 20.5t58.5 -6.5t55.5 -46q4 -14 1 -36t-8.5 -38.5t-11.5 -31.5l-5 -15q-2 -14 -30.5 -20.5t-55.5 4.5q-32 49 -46 103.5t-2 65.5z" />
    <glyph glyph-name="perthousand" unicode="&#x2030;" horiz-adv-x="307" 
d="M307 777h10.5t23 -3t29.5 -9.5t24.5 -21t13.5 -35.5q2 -23 -47 -130.5t-129.5 -292.5t-133.5 -346q0 -2 -7.5 -5t-18 -3.5t-21.5 2.5t-21 16t-14 35q17 96 83.5 266.5t131.5 325t76 201.5z" />
    <glyph glyph-name="guilsinglleft" unicode="&#x2039;" 
 />
    <glyph glyph-name="guilsinglright" unicode="&#x203a;" 
 />
    <glyph glyph-name="fraction" unicode="&#x2044;" horiz-adv-x="399" 
d="M295 777h10.5t23 -3t29.5 -9.5t24.5 -21t13.5 -35.5q2 -23 -47 -130.5t-129.5 -292.5t-133.5 -346q0 -2 -7.5 -5t-18 -3.5t-21.5 2.5t-21 16t-14 35q17 96 83.5 266.5t131.5 325t76 201.5z" />
    <glyph glyph-name="Euro" unicode="&#x20ac;" horiz-adv-x="563" 
d="M561 343q15 -71 5 -133.5t-38.5 -108.5t-89.5 -71t-148 -22q-95 3 -172.5 63t-97.5 172q-4 0 -9 -0.5t-6 -0.5q-13 1 -17.5 34t5 70.5t29.5 49.5q32 160 172 242q100 58 200 50q78 -5 92 -48q2 -8 2 -16q-1 -36 -17.5 -76t-39.5 -49q-71 32 -132.5 24t-105 -37.5
t-70.5 -76.5q98 4 313 -5q-9 -30 -44.5 -66.5t-74.5 -51.5q-2 0 -205 -30q23 -39 69.5 -66.5t101.5 -29.5q63 -2 115 19t80.5 52t44.5 61t16 52q1 32 20 2z" />
    <glyph glyph-name="trademark" unicode="&#x2122;" horiz-adv-x="456" 
d="M413 752q1 -32 4 -66t5 -52l3 -18l-4 -12h-3l-2 -9l-3 -9l-4 -1l-1 -7q-4 0 -5 -1q-1 0 -1 -1.5t-1 -1.5q-25 42 -38 140q-20 -58 -40 -111q-2 -4 -10.5 -6.5t-17.5 1.5t-10 17q-17 39 -36 83l-12 -86h-5l-13 -21l-9 -3l-2 -5l-9 3q-1 -1 -3.5 -5t-3.5 -4q9 107 8 192
q-2 -1 -8 -3q-17 0 -41 -2l-9 -152l-7 -17l-3 1l-5 -13q-2 3 -5 0l-3 -8l-2 1l-5 -7l-3 8q-3 -11 -5 -12q0 4 -1 36.5t-2.5 79t-3.5 77.5q-15 -2 -29.5 -4t-22 -3.5t-9.5 -1.5q-13 0 -19.5 15.5t-3.5 31.5t12 17q38 4 69 4q0 1 3 2q18 5 33 -2q33 -1 103 -5q30 2 36 -16
q5 -17 17 -57.5t16 -55.5q19 48 52 114v7q12 8 30.5 8t25.5 -10q3 -7 3 -50z" />
    <glyph glyph-name="fi" unicode="&#xfb01;" horiz-adv-x="613" 
d="M474 715q23 2 43 -3t41 -20t33 -52t10 -92q-4 -92 -11 -204.5t-12 -179.5l-6 -66l-7 9l-5 -25l-12 -3l-13 -37l-29 -17l-17 -23l-8 7l-8 -27q-9 -11 -13 -11q-2 13 -3.5 119.5t-4.5 253t-8 234.5q-16 -4 -30 -4q-2 0 -35.5 -2t-90.5 -5.5t-99 -6.5l-3 -84q118 13 223 13
l-8 -21l-3 -24l-31 -17l12 -1l-32 -21l1 -10l-36 -9l-7 -12q-35 -17 -50 -23q-4 0 -76 -19l-14 -204l-7 8l-4 -25l-12 -3l-13 -38l-29 -18l-17 -24l-9 5l-8 -26q-8 -12 -12 -12q-2 13 -5 106.5t-7 230.5t-9 224l-12 3l7 12l-19 6l-27 6l9 10l-15 13l16 14l-39 1q-8 12 -8 18
q5 1 81 13q-3 32 -8 57q-1 3 3 8.5t11 7.5q105 32 142 -50q248 40 289 54q5 -3 11 -14z" />
    <glyph glyph-name="fl" unicode="&#xfb02;" horiz-adv-x="865" 
 />
    <glyph glyph-name="CR" horiz-adv-x="262" 
 />
    <glyph glyph-name="_0007" horiz-adv-x="0" 
 />
    <glyph glyph-name="_0009" horiz-adv-x="0" 
 />
    </font>
</defs>
</svg>
