<?xml version="1.0" standalone="no"?>
<!DOCTYPE svg PUBLIC "-//W3C//DTD SVG 1.1//EN" "http://www.w3.org/Graphics/SVG/1.1/DTD/svg11.dtd" >
<svg xmlns="http://www.w3.org/2000/svg" xmlns:xlink="http://www.w3.org/1999/xlink" version="1.1">
<metadata>
Created by FontForge 20170731 at Fri Dec 13 16:49:56 2013
 By Aleksey,,,
2013 Iconian Font - www.iconian.com
</metadata>
<defs>
<font id="FederalEscortChrome" horiz-adv-x="800" >
  <font-face 
    font-family="Federal Escort Chrome"
    font-weight="400"
    font-stretch="normal"
    units-per-em="1000"
    panose-1="2 0 0 0 0 0 0 0 0 0"
    ascent="800"
    descent="-200"
    x-height="554"
    cap-height="554"
    bbox="-55 -201 1573 792"
    underline-thickness="50"
    underline-position="-175"
    unicode-range="U+0020-2122"
  />
<missing-glyph horiz-adv-x="500" 
 />
    <glyph glyph-name=".notdef" horiz-adv-x="500" 
 />
    <glyph glyph-name=".null" horiz-adv-x="0" 
 />
    <glyph glyph-name="nonmarkingreturn" horiz-adv-x="500" 
 />
    <glyph glyph-name="space" unicode=" " horiz-adv-x="384" 
 />
    <glyph glyph-name="space" unicode="&#xa0;" horiz-adv-x="384" 
 />
    <glyph glyph-name="FL0021h" unicode="!" horiz-adv-x="354" 
d="M56 216l22 -22h82q-28 -4 -55 -19.5t-49 -39.5h3q-11 -25 -11 -43v-14h-1q0 -2 1 -3v-3h1q18 -43 50 -63h1l5 -5q5 -5 10.5 -9t10.5 -8h13l11 -11q25 -9 52 -9q25 0 51 9l-3 11h27q35 23 50 63l-3 2q2 5 2.5 8t0.5 7q0 15 -11 42l-4 4h5l-22 22h4q-25 24 -51.5 39.5
t-54.5 19.5h133l7 34l-10 10h13l14 50l-13 13h13v46l-17 17h17v43l-19 19h19v40l-22 22v1h22v37l-22 22v6h-302v-43h6l17 -17h-23v-46h6l13 -13h-19v-49h6l11 -11h-17v-52h6l7 -7h-15l16 -56h5l4 -4h-10l12 -40h5zM177 0q-29 0 -46 7h91q-17 -7 -45 -7zM294 227h-235l-5 18
h244zM177 184q29 0 53.5 -10.5t41.5 -27.5h-191q16 17 41.5 27.5t54.5 10.5zM317 522h-280v21h280v-21zM317 459h-280v24h280v-24zM317 397h-280v27h280v-27zM317 334h-280v30h280v-30zM305 271h-257l-9 34h275zM250 20h-147q-30 19 -40 47h227q-10 -28 -40 -47zM59 83v9
q0 16 8 34h219q8 -21 8 -34q0 -8 -1 -9h-234z" />
    <glyph glyph-name="FL0022h" unicode="&#x22;" horiz-adv-x="518" 
d="M44 313l2 -3q-2 2 -2 3zM261 425l-1 1h1v-1zM279 435v1l1 -1h-1zM243 515l-1 1q1 0 1 -1zM261 482l-6 5v2h8q-2 -8 -2 -7zM276 323h1l7 -7h-11q1 3 3 7zM247 511h2q-26 31 -44 43h-130l-7 -7q-5 -5 -12.5 -12t-22.5 -24h9l17 -17h-29q-3 -9 -3.5 -12.5t-0.5 -6.5v-27h6
l13 -13h-19v-49h6l11 -11h-17q0 -12 2.5 -25.5t8.5 -26.5h5l7 -7h-12q14 -14 25 -21l7 -7q46 -44 98 -44q23 0 48 12t48 32l-13 13h18q2 4 3 7t2 7q7 -5 13 -10l12 -10l8 -7q46 -43 96 -43q49 0 95 43l-13 13h19q5 11 7.5 22.5t4.5 23.5l-17 17h16v43l-19 19h19v19
q0 2 -0.5 3t-0.5 3v15l-22 22v1h13q-5 5 -9 9.5t-8 8.5l-4 4h2q-15 17 -25 26.5t-18 16.5h-132q-8 -7 -17.5 -16.5t-25.5 -26.5h9l17 -17h-27q-1 -1 -1 -2q-4 5 -7.5 9t-7.5 8zM302 305h149q-30 -27 -74 -27q-45 0 -75 27zM65 305h152q-14 -13 -33.5 -20.5t-41.5 -7.5
q-49 0 -77 28zM227 522h-171q5 6 11 11t13 10h122q14 -7 25 -21zM462 522h-172q8 9 23 21h126q16 -13 23 -21zM246 459h-209v10v6q0 6 1 8h206q1 -5 1.5 -8.5t0.5 -5.5v-10zM481 459h-209v11v6q0 6 1 7h207q0 -3 0.5 -6.5t0.5 -6.5v-11zM481 397h-209v27h209v-27zM246 397
h-209v27h209v-27zM272 364h209q-1 -16 -8 -30h-194q-7 14 -7 30zM37 364h209q-1 -8 -2.5 -15.5t-5.5 -14.5h-194q-7 14 -7 30z" />
    <glyph glyph-name="FL0023h" unicode="#" horiz-adv-x="853" 
d="M417 256v32l-13 13h54v-41h6l4 -4h-51zM782 256v32l-13 13h80v46l-17 17h17v43l-22 22v6h-45v31l-22 22v1h22v37l-22 22v6h-302v-43h6l17 -17h-23v-46h6l13 -13h-60v31l-22 22v1h22v37l-22 22v6h-302v-43h6l17 -17h-23v-46h6l13 -13h-86v-49h6l11 -11h-17v-52h6l22 -22
h39v-41h6l4 -4h-77v-159h6l22 -22h39v-86h6l22 -22h296v108h41v-86h6l22 -22h296v108h67v34l-4 4h4v56l-6 6h6v53l-22 22v6h-45zM749 7v-7h-280v7h280zM384 7v-7h-280v7h280zM749 522h-280v21h280v-21zM384 522h-280v21h280v-21zM384 459h-280v24h280v-24zM749 459h-280v24
h280v-24zM749 271h-280v34h280v-34zM384 271h-280v34h280v-34zM749 20h-280v47h280v-47zM384 20h-280v47h280v-47zM816 397h-779v27h779v-27zM816 334h-779v30h779v-30zM104 83v25h-67v18h779v-18h-67v-25h-280v25h-85v-25h-280zM816 208h-779v37h779v-37zM816 146h-779v40
h779v-40z" />
    <glyph glyph-name="FL0024h" unicode="$" horiz-adv-x="782" 
d="M39 316h-12q8 -18 15.5 -32.5t16.5 -23.5h4l4 -4h-8l12 -10l12 -10l9 -8q15 -14 31 -24.5t30 -16.5h-127v-169h6l22 -22h213v-67h6l22 -22h240v89h97q27 0 55.5 14.5t54.5 39.5l-2 2q19 22 32 57l-4 4h5q2 11 3.5 19t1.5 13v24l-6 6h6v53l-10 10h10q-7 30 -26 50l-10 9
q-3 5 -6.5 9.5t-7.5 9.5h-12l-20 20l1 5q-19 11 -37.5 16t-35.5 7h153v43l-19 19h19v40l-22 22v1h22v29l-22 22v6h-239l-2 2v4h22v33l-22 22v6h-246v-39h6l20 -20h-26v-8h-94q-16 0 -32.5 -3.5t-33.5 -12.5l4 -19h6l17 -17h-70l-16 -22t-14 -24h8l13 -13h-26q-4 -15 -4 -37
v-12h6l11 -11h-17v-52h6zM502 -52v-8h-224v8h224zM503 585h-224v17h224v-17zM503 543v-8h241v-13h-626q26 13 56 13h105v8h224zM502 -42h-224v49h224v-49zM317 364v-11h300q35 0 69 -19h-649v3v27h280zM744 459h-691q8 15 16 24h675v-24zM744 397h-707v1q0 12 3 26h704v-27z
M745 208h-281v2h-297q-18 0 -38.5 9.5t-39.5 25.5h656v-37zM43 305h681q15 -18 19 -34h-679q-14 14 -21 34zM745 186v-16q0 -12 -3 -24h-705v30h406q11 0 18 10h284zM37 67h659q-18 -17 -41 -27.5t-48 -10.5h-105v-9h-224v9h-241v38zM37 126h699q-9 -23 -26 -43h-673v43z
" />
    <glyph glyph-name="FL0025h" unicode="%" horiz-adv-x="951" 
d="M433 375v3l3 -3h-3zM231 375v11h4l11 -11h-15zM229 409l-17 17h17v-17zM379 554h-321q-9 -9 -17.5 -20.5t-16.5 -22.5h9l17 -17h-24v-46h6l13 -13h-19v-49h6l11 -11h-17v-52h6l7 -7h-10q14 -17 29 -28l9 -8q15 -15 31 -24t29 -9h162l-46 -50h1l-58 -62h1l-58 -63h1
l-58 -63h1l-17 -20h9l22 -22h304l17 20h1l58 63h-1l54 59l-4 4h7l17 18v-70q0 -27 27 -52h4l7 -8v-1q1 -1 2 -1t2 -1l11 -11h4l10 -10q19 -10 34 -10h233q15 0 34 10l-3 10h19q10 10 16.5 22.5t6.5 26.5v73l-4 4h4v56l-6 6h6v9q0 21 -15 44l-18 18q-5 6 -6 10h-4l-18 18l1 5
q-11 5 -20.5 8.5t-20.5 3.5h-168l-10 10h26l42 46l-17 17h32l39 43l-19 19h36l37 40l-23 23h43l34 37l-23 23l5 5h-312l-40 -43h10l17 -17h-41l-43 -46h10l13 -13h-34l-27 -30v2l-19 19h19v40l-22 22v1h20q-8 13 -14.5 21.5t-13.5 15.5l-2 2q-6 8 -11.5 14t-10.5 12zM849 0
h-233q-14 0 -27 7h287q-13 -7 -27 -7zM369 7l-6 -7h-284l6 7h284zM400 397h-160v27h160v-27zM198 397h-161v27h161v-27zM836 522h-283l19 21h283zM779 459h-283l22 24h283zM63 543h311q5 -5 9 -10.5t8 -10.5h-345q4 5 8 10.5t9 10.5zM723 397h-283l24 27h283zM400 459h-363
v24h363v-24zM495 146h-284l37 40h284zM438 83h-284l39 43h284zM381 20h-284l43 47h284zM712 164v-18h-161v40h363v-40h-160v18q0 2 -1.5 5t-4.5 3h-31q-5 -2 -5 -8zM712 126v-15q0 -6 5 -6h31q4 0 6 6v15h160v-43h-363v43h161zM895 20h-324q-20 18 -20 41v6h363v-6
q0 -11 -5.5 -22t-13.5 -19zM617 280h229q8 0 15.5 -2.5t15.5 -6.5h-552l8 9h-231q-13 0 -26.5 7t-23.5 18h587zM666 334h-629v7v23h363v-11l10 11h283zM914 209v-1h-646l33 37h602q11 -17 11 -36z" />
    <glyph glyph-name="FL0026h" unicode="&#x26;" horiz-adv-x="860" 
d="M90 259l3 -2q-1 0 -3 2zM344 158v11l-6 6h15q9 3 19 3h95q-1 -8 -3.5 -14t-6.5 -6h-111h-2zM834 361h-486q-10 0 -17 3h14q8 17 27 17h331v26l-19 19h19v40l-22 22v1h22v37l-22 22v6h-564q-8 -5 -20.5 -15t-32.5 -28h11l17 -17h-36q-5 -8 -9 -18t-11 -28h8l13 -13h-26
q-2 -10 -3 -22.5t-1 -26.5h6l11 -11h-16q1 -15 3.5 -28t6.5 -24h5l7 -7h-9q5 -10 10.5 -18t10.5 -13l-25 -25h10l4 -4h-9q-6 -14 -8 -21.5t-3 -12.5v1q-2 -2 -2 -5q0 -4 -1 -6q-1 -4 -1.5 -5.5t-0.5 -9.5v-39v-11q0 -7 1 -10q5 -31 18 -59h-1q14 -26 29 -42t32 -27
q6 -6 12.5 -11.5t14.5 -10.5h13l12 -12q11 -5 25 -6.5t31 -1.5h457q12 0 23 2t22 7l-3 11h22q14 10 25.5 25t21.5 38q7 19 10 59l-4 4h5v56l-6 6h70v53l-10 10h10v50l-13 13h13v32l-22 22v6zM645 0h-457q-32 0 -50 7h546q-14 -7 -39 -7zM670 414h-323q-24 0 -32 -17h-277
q0 12 3 27h629v-10zM670 522h-577q18 15 28 21h549v-21zM670 459h-618q2 6 5 12l6 12h607v-24zM348 350h475v-16h-777q-5 13 -6 30h274q5 -14 34 -14zM311 186v-5q0 -14 8 -24t27 -10h111q9 0 15.5 11t6.5 26v2h280v-40h-721q-1 3 -1 12v12v16h274zM78 285q-10 7 -18 20h763
v-34h-759q3 4 6.5 7t7.5 7zM479 211h-132q-13 0 -22 -3h-285q2 10 3.5 19t5.5 18h774v-37h-344v3zM707 20h-598q-29 19 -46 47h681q-7 -16 -16.5 -27.5t-20.5 -19.5zM750 83h-695q-5 11 -8.5 21.5t-5.5 21.5h717q-1 -12 -3 -22.5t-5 -20.5z" />
    <glyph glyph-name="FL0027h" unicode="'" horiz-adv-x="293" 
d="M215 554h-137q-18 -12 -44 -43h9l17 -17h-29q-4 -8 -4.5 -11t-0.5 -7v-28h6l13 -13h-19v-49h6l11 -11h-17q0 -31 12 -52h5l7 -7h-11q5 -5 11 -9.5t11 -8.5l11 -10q50 -43 100 -43q48 0 98 43l-13 13h20q11 18 13 46l-17 17h16v43l-19 19h19v19q0 2 -0.5 3t-0.5 3v15
l-22 22v1h11q-5 6 -9.5 11.5t-9.5 10.5q-12 15 -22 26.5t-21 16.5zM147 278q-48 0 -79 27h156q-32 -27 -77 -27zM81 543h131q15 -9 24 -21h-180q11 14 25 21zM37 459v11v6q0 6 1 7h217q0 -3 0.5 -6.5t0.5 -6.5v-11h-219zM256 397h-219v27h219v-27zM247 334h-202q-8 14 -8 30
h219q-2 -17 -9 -30z" />
    <glyph glyph-name="FL0028h" unicode="(" horiz-adv-x="444" 
d="M351 104v5l-4 4h4v56l-6 6h6v53l-10 10h10v50l-13 13h13v46l-17 17h17v43l-19 19h20q7 9 12 9h76v31l-22 22v1h22v37l-22 22v4h22v33l-22 22v6h-299q-1 0 -1 -1h-1q-7 -5 -21 -14t-34 -24h12l20 -20h-43q-5 -8 -9 -16t-12 -27h8l17 -17h-29v-46h6l13 -13h-19v-49h6
l11 -11h-17v-52h6l7 -7h-13v-56h6l4 -4h-10v-178q0 -19 4 -36.5t13 -32.5h1q26 -32 50 -49q23 -23 48 -35h17l10 -10q5 -1 10.5 -1.5t12.5 -0.5h241v163l-22 22v6h-60zM400 -52v-2h-233q-5 0 -10.5 0.5t-10.5 1.5h254zM407 585h-313q7 5 13.5 9t13.5 8h286v-17zM407 522
h-360q2 5 5 10.5t6 10.5h349v-21zM318 397h-281v27h281v-27zM407 483v-15h-68q-8 0 -15 -9h-287v13v11h370zM318 334h-281v30h281v-30zM318 271h-281v34h281v-34zM318 208h-281v37h281v-37zM318 146h-281v40h281v-40zM318 126v-10q0 -10 6 -16.5t14 -6.5h62v-10h-363v43h281
zM400 -42h-282q-37 17 -59 49h341v-49zM400 20h-350q-13 22 -13 47h363v-47z" />
    <glyph glyph-name="FL0029h" unicode=")" horiz-adv-x="444" 
d="M326 613h-300v-39h6l20 -20h-26v-43h6l17 -17h-23v-37h6l22 -22h61v-49h6l11 -11h-17v-52h6l7 -7h-13v-56h6l4 -4h-10v-140q0 -12 -9 -12h-73v-169h6l22 -22h241q5 0 9.5 0.5t9.5 1.5h1v10h30q20 10 39 26t35 39l-1 1q8 12 11 27t4 32v59l-4 4h4v56l-6 6h6v53l-10 10h10
v50l-13 13h13v46l-17 17h17v43l-19 19h19v21q0 5 -0.5 8.5t-2.5 10.5l-21 20q0 2 -1 3h18q-5 11 -9 21t-8 16l-17 16q-2 6 -5 10h3l-22 22h6q-23 17 -35 26t-20 13zM44 -52h253q-5 -1 -10 -1.5t-10 -0.5h-233v2zM37 602h286q13 -7 26 -17h-312v17zM37 543h349
q3 -5 5.5 -10.5t4.5 -10.5h-359v21zM407 397h-281v27h281v-27zM37 483h369q1 -2 1 -11v-13h-288q-8 9 -14 9h-68v15zM407 334h-281v30h281v-30zM407 271h-281v34h281v-34zM407 208h-281v37h281v-37zM407 146h-281v40h281v-40zM407 83h-363v10h62q8 0 14 6.5t6 16.5v10h281
v-43zM44 7h341q-22 -32 -59 -49h-282v49zM44 67h363q-1 -25 -14 -47h-349v47z" />
    <glyph glyph-name="asterisk" unicode="*" horiz-adv-x="302" 
d="M227 554v1l1 -1h-1zM282 448h5l-47 41h69l-13 37l-21 20l-2 6h14l-13 36l-20 20l-3 9l-35 -17l-8 7l1 6h-126l1 -13l-21 13h-16l-14 -39h7l20 -20h-33l-15 -43h7l22 -22h11l-43 -41h10l22 -22h18l12 -10l10 -9l55 -43h18l10 22h5l22 -22h18l56 43l-19 19h58zM86 585h-37
l6 17h4zM250 585h-41l35 17zM124 397h-11l-34 27h58zM182 397h-11l-14 27h60zM195 585h-98l-2 17h102zM258 459h-221l25 24h169zM272 522h-244l7 21h230z" />
    <glyph glyph-name="FL002Bh" unicode="+" horiz-adv-x="409" 
d="M292 364h17v43l-22 22v6h-165v-49h6l11 -11h-17v-13h-96v-39h6l7 -7h-13v-56h6l4 -4h-10v-59h6l22 -22h68v-75h6l22 -22h159v31l-4 4h4v56l-6 6h102v53l-10 10h10v50l-13 13h13v33l-22 22v6h-89zM276 126v-15h-143v15h143zM276 397h-143v27h143v-27zM276 146h-143v40h143
v-40zM276 364v-13h96v-17h-335v17h96v13h143zM372 271h-335v34h335v-34zM372 245v-37h-335v37h335z" />
    <glyph glyph-name="FL002Ch" unicode="," horiz-adv-x="309" 
d="M74 -89l5 -5q42 -42 101 -42q35 0 67.5 18t51.5 49l-1 1q7 15 7 32v103q0 15 -11 42l-4 4h5l-22 22h4q-28 28 -59 44t-63 16t-63.5 -16t-57.5 -44h3q-11 -25 -11 -43v-103q0 -6 1 -13.5t4 -16.5h-3q3 -6 8 -11v-1q17 -22 38 -36zM155 184q29 0 53.5 -10.5t41.5 -27.5
h-191q16 17 41.5 27.5t54.5 10.5zM155 -103q-35 0 -63 14t-43 37h211q-14 -23 -42.5 -37t-62.5 -14zM37 83v9q0 16 8 34h219q8 -21 8 -34v-9h-235zM272 20h-235v47h235v-47zM265 -42h-222q-6 15 -6 31v18h235v-18q0 -18 -7 -31z" />
    <glyph glyph-name="FL002Dh" unicode="-" horiz-adv-x="409" 
d="M26 362v-39h6l7 -7h-13v-56h6l4 -4h-10v-59h6l22 -22h351v53l-10 10h10v50l-13 13h13v33l-22 22v6h-357zM37 334v17h335v-17h-335zM372 271h-335v34h335v-34zM372 208h-335v37h335v-37z" />
    <glyph glyph-name="FL002Eh" unicode="." horiz-adv-x="309" 
d="M273 135h4q-28 28 -59 44t-63 16t-63.5 -16t-57.5 -44h3q-11 -25 -11 -43v-14h-1q0 -2 1 -3v-3h1q18 -43 50 -63h1l5 -5q5 -5 10.5 -9t10.5 -8h13l11 -11q25 -9 52 -9q25 0 51 9l-3 11h27q35 23 50 63l-3 2q2 5 2.5 8t0.5 7q0 15 -11 42l-4 4h5zM109 7h91q-17 -7 -45 -7
q-29 0 -46 7zM250 146h-191q16 17 41.5 27.5t54.5 10.5t53.5 -10.5t41.5 -27.5zM41 67h227q-10 -28 -40 -47h-147q-30 19 -40 47zM37 83v9q0 16 8 34h219q8 -21 8 -34q0 -8 -1 -9h-234z" />
    <glyph glyph-name="FL002Fh" unicode="/" horiz-adv-x="841" 
d="M10 -11l22 -22h348l17 20h1l52 63l48 59l-4 4h8l46 56l-6 6h11l43 53l-10 10h19l41 50l-13 13h23l39 46l-17 17h32l35 43l-19 19h34l34 40l-23 23h41l32 37l-23 23l4 5h-356l-35 -43h9l17 -17h-41l-38 -46h9l13 -13h-33l-40 -49h9l11 -11h-30l-43 -52h9l7 -7h-22l-46 -56
h9l4 -4h-17l-48 -59l-50 -60l-48 -59l-5 -6l-52 -63l-17 -20h9zM358 7l-6 -7h-328l6 7h328zM784 522h-327l17 21h328zM732 459h-328l20 24h328zM681 397h-328l22 27h328zM628 334h-328l25 30h328zM576 271h-328l28 34h328zM524 208h-328l30 37h328zM473 146h-328l33 40h328z
M421 83h-328l35 43h328zM369 20h-328l39 47h328z" />
    <glyph glyph-name="FL0030h" unicode="0" horiz-adv-x="781" 
d="M733 497l1 -1q0 1 -1 1zM349 158v11l-6 6h6v53l-10 10h10v50l-13 13h13v46l-17 17h18q5 14 12 17h103l6 -6h-17v-52h6l7 -7h-13v-56h6l4 -4h-10v-83q-2 -5 -5.5 -10t-5.5 -5h-94zM720 511h4q-17 17 -29.5 27.5t-20.5 15.5h-567q-8 -5 -20.5 -15t-32.5 -28h11l17 -17h-35
q-5 -11 -9.5 -22.5t-9.5 -23.5h8l13 -13h-23v-49h6l11 -11h-17v-52h6l7 -7h-13v-56h6l4 -4h-10v-133q0 -24 10 -45h-3q14 -23 29 -39t31 -27q8 -8 16.5 -14t16.5 -11h11l11 -11q24 -9 44 -9h447q20 0 44 9l-3 11h25q36 24 61 63h-1q5 13 8.5 25t3.5 23v11l-4 4h4v56l-6 6h6
v53l-10 10h10v50l-13 13h13v46l-17 17h17v43l-19 19h15q-7 18 -10.5 26t-6.5 14l-19 18l-1 1v1q0 2 -1 3h7l-8 7l-1 1zM614 0h-447q-23 0 -38 7h523q-15 -7 -38 -7zM744 334h-279v30h279v-30zM316 334h-279v30h279v-30zM744 271h-279v34h279v-34zM316 271h-279v34h279v-34z
M744 208h-279v37h279v-37zM316 208h-279v37h279v-37zM697 522h-614q18 15 28 21h559q15 -9 27 -21zM737 459h-693q2 6 4.5 12t5.5 12h672l6 -12t5 -12zM443 414h-107q-12 -3 -17 -17h-282v21v6h707v-6v-21h-282q-3 7 -7.5 12t-11.5 5zM316 186v-16q1 -5 5 -14t17 -9h105
q6 0 12.5 8.5t9.5 14.5v16h279v-40h-707v40h279zM678 20h-575q-14 9 -27 21t-22 26h672q-17 -28 -48 -47zM735 83h-689q-9 19 -9 40v3h707v-3q0 -11 -2.5 -20.5t-6.5 -19.5z" />
    <glyph glyph-name="FL0031h" unicode="1" horiz-adv-x="466" 
d="M32 403l22 -22h95l6 -6h-17v-52h6l7 -7h-13v-56h6l4 -4h-10v-267h6l22 -22h296v142l-4 4h4v56l-6 6h6v53l-10 10h10v50l-13 13h13v46l-17 17h17v43l-19 19h19v40l-22 22v1h22v37l-22 22v6h-414v-43h6l17 -17h-23v-46h6l13 -13h-19v-32h6zM429 7v-7h-280v7h280zM429 522
h-392v21h392v-21zM429 334h-280v30h280v-30zM429 397h-280v17h-112v10h392v-27zM429 459h-392v24h392v-24zM429 271h-280v34h280v-34zM429 208h-280v37h280v-37zM429 146h-280v40h280v-40zM429 83h-280v43h280v-43zM429 20h-280v47h280v-47z" />
    <glyph glyph-name="FL0032h" unicode="2" horiz-adv-x="782" 
d="M677 554h-650v-43h6l17 -17h-23v-46h6l13 -13h-19v-32h6l22 -22h409l6 -6h-16v-11h-289q-38 0 -81 -23l4 -18h6l7 -7h-47q-21 -24 -30 -56h7l4 -4h-9v-267h6l22 -22h724v142l-4 4h4v17l-22 22v6h-405v11l-6 6h6v2h289q19 0 45.5 14t52.5 37l-10 10h19q8 11 15.5 22.5
t12.5 27.5l-13 13h16v46l-17 17h17v43l-19 19h17q-5 12 -9 23t-7 17l-19 19q-1 1 -1 2t-1 2h8l-22 22h5q-20 18 -32.5 28t-20.5 15zM745 0h-708v7h708v-7zM318 186v-39h427v-1h-708v40h281zM745 397h-283q-2 7 -7 12t-11 5h-406v10h707v-27zM38 543h635q10 -6 28 -21h-663
v21zM745 334h-650q34 19 70 19h300v11h280v-27v-3zM38 483h692q3 -6 5.5 -12t4.5 -12h-702v24zM37 245h655q-18 -16 -39 -25.5t-38 -9.5h-297v-2h-281v37zM718 271h-679q4 16 19 34h680q-3 -9 -8.5 -17.5t-11.5 -16.5zM745 83h-708v43h708v-43zM745 20h-708v47h708v-47z" />
    <glyph glyph-name="FL0033h" unicode="3" horiz-adv-x="739" 
d="M391 361h-365v-38h6l7 -7h-13v-56h6l4 -4h-10v-56h6l22 -22h363q-2 -20 -24 -20h-367v-169h6l22 -22h522q34 0 55 8l-3 12h28q34 19 58 63q8 15 12 29t7 30l-4 4h3q2 9 2.5 13t0.5 7v19q0 3 -0.5 6.5t-2.5 10.5l-6 6h7q-2 15 -5.5 28.5t-8.5 24.5l-10 10h6q-7 8 -11 13
t-6 8q5 5 10 11.5t10 17.5l-13 13h17q2 8 4 13t3 9l2.5 12.5t2.5 11.5l-17 17h17q0 2 -0.5 7.5t-0.5 7.5q-1 5 -2 13.5t-3 14.5l-19 19h15q-1 2 -4.5 9.5t-4.5 9.5q-5 14 -10 21l-18 17l-3 6h6l-22 22h4q-17 17 -29 27t-22 16h-595v-43h6l17 -17h-23v-46h6l13 -13h-19v-32h6
l22 -22h363q2 0 10 -2l4 -4h-15q-5 -14 -25 -14zM551 0h-514v7h563q-18 -7 -49 -7zM37 424h660q2 -8 2.5 -14t1.5 -13h-278q-8 17 -31 17h-355v10zM428 181v5h273q1 -2 1 -9v-7v-12q0 -9 -1 -12h-664v1h356q19 0 27 10t8 24zM37 543h580q8 -5 15.5 -10.5t12.5 -10.5h-608v21
zM37 350h354q28 0 33 14h275q-2 -8 -3.5 -15.5t-3.5 -14.5h-655v16zM37 483h638q4 -6 6.5 -12t5.5 -12h-650v24zM661 285l7 -7t6 -7h-637v34h642q-8 -13 -18 -20zM392 211h-355v34h652q7 -14 10 -37h-286q-8 3 -21 3zM37 126h661q-2 -11 -5.5 -21.5t-8.5 -21.5h-647v43z
M37 67h638q-17 -31 -46 -47h-592v47z" />
    <glyph glyph-name="FL0034h" unicode="4" horiz-adv-x="940" 
d="M490 295l-6 6h6v-6zM443 238h17l30 40v-18h6l4 -4h-10v-21h-44zM803 238h10v50l-13 13h13v46l-17 17h17v43l-19 19h19v40l-22 22v1h22v37l-22 22v6h-467q-3 -3 -9.5 -9t-14 -13t-13.5 -12.5t-9 -8.5h10l17 -17h-36l-36 -46h9l13 -13h-33l-38 -49h9l11 -11h-29l-40 -52h9
l7 -7h-22l-43 -56h9l4 -4h-17l-46 -59l-10 -15v-110h6l22 -22h436v-61h6l22 -22h295v83h123v59l-4 4h4v56l-6 6h6v32l-22 22v6h-108zM780 7v-7h-279v7h279zM780 271h-279v34h279v-34zM780 522h-475q5 5 11 10.5t12 10.5h452v-21zM431 271h-323l26 34h322zM780 459h-525
l19 24h506v-24zM780 20h-279v47h279v-47zM780 397h-574l21 27h553v-27zM780 334h-279v1q0 1 -4.5 3t-7.5 4q-5 0 -7 -1.5t-5 -6.5h-320l23 30h600v-30zM412 245l-15 -21h104v21h279v-21h123v-16h-845l29 37h325zM37 146v34l4 6h862v-40h-866zM903 83h-866v43h866v-43z" />
    <glyph glyph-name="FL0035h" unicode="5" horiz-adv-x="782" 
d="M39 316h-12q8 -18 15.5 -32.5t16.5 -23.5h4l4 -4h-8l12 -10l12 -10l9 -8q27 -23 53.5 -37t46.5 -14h261q0 -5 -2.5 -12t-7.5 -7h-417v-169h6l22 -22h578q21 0 45 9l-3 11h25q33 21 62 63h-1q6 14 11 28.5t7 30.5l-4 4h4v56l-6 6h6v53l-10 10h10q-7 30 -26 50l-10 9
q-3 5 -6.5 9.5t-7.5 9.5h-12l-20 20l1 5q-20 12 -40.5 17.5t-39.5 5.5h-267v17h427v26l-19 19h19v40l-22 22v1h22v37l-22 22v6h-729v-43h6l17 -17h-23v-46h6l13 -13h-19v-49h6l11 -11h-17v-52h6zM607 0h-570v7h609q-15 -7 -39 -7zM37 147h406q10 0 15.5 11t5.5 19v9h281v-40
h-708v1zM744 414h-427v-17h-280v27h707v-10zM744 522h-707v21h707v-21zM317 353h300q35 0 69 -19h-649v3v27h280v-11zM744 459h-707v24h707v-24zM464 210h-297q-18 0 -38.5 9.5t-39.5 25.5h656v-37h-281v2zM43 305h681q15 -18 19 -34h-679q-14 14 -21 34zM37 126h707
q-3 -17 -14 -43h-693v43zM37 67h683q-20 -29 -48 -47h-635v47z" />
    <glyph glyph-name="FL0036h" unicode="6" 
d="M328 170v2q2 -2 0 -2zM350 158v11l-6 6h6v3h123v-5q-2 -5 -5.5 -10t-5.5 -5h-112zM39 316h-13v-56h6l4 -4h-10v-133q0 -24 10 -45h-2q14 -23 29 -39t31 -27q8 -8 16.5 -14t16.5 -11h11l11 -11q11 -5 21.5 -7t21.5 -2h466q20 0 44 9l-3 11h25q36 24 61 63h-1q5 13 8.5 25
t3.5 23v11l-4 4h4v56l-6 6h6v53l-10 10h10q-7 28 -25 50l-13 13h4l-22 22h9q-35 22 -65.5 34.5t-50.5 12.5h-282q5 11 12 11h430v26l-19 19h19v40l-22 22v1h22v37l-22 22v6h-664q-8 -5 -20.5 -15t-32.5 -28h11l17 -17h-35q-5 -11 -9.5 -22.5t-9.5 -23.5h8l13 -13h-23v-49h6
l11 -11h-17v-52h6zM130 7h541q-15 -7 -38 -7h-466q-23 0 -37 7zM319 397h-282v21v6h723v-10h-422q-7 0 -11.5 -5t-7.5 -12zM760 522h-677q18 15 28 21h649v-21zM760 459h-716q2 6 4.5 12t5.5 12h706v-24zM317 364v-5h316q18 0 38 -7t38 -18h-672v30h280zM338 147h124
q8 0 13.5 8.5t8.5 14.5v16h279v-40h-726v40h280v-16q3 -6 6.5 -14.5t14.5 -8.5zM37 305h705q14 -17 18 -34h-723v34zM763 208h-279v3h-167v-3h-280v37h726v-37zM55 67h690q-17 -28 -48 -47h-593q-14 9 -27 21t-22 26zM763 126v-3q0 -11 -2.5 -20.5t-6.5 -19.5h-708
q-9 19 -9 40v3h726z" />
    <glyph glyph-name="FL0037h" unicode="7" horiz-adv-x="829" 
d="M32 403l22 -22h387l6 -6h-30l-43 -52h9l7 -7h-22l-46 -56h9l4 -4h-17l-48 -59l-50 -60l-48 -59l-5 -6l-52 -63l-17 -20h9l22 -22h348l17 20h1l52 63l48 59l-4 4h8l46 56l-6 6h11l43 53l-10 10h19l41 50l-13 13h23l39 46l-17 17h32l18 22v21l-19 19h19v40l-22 22v1h22v37
l-22 22v6h-777v-43h6l17 -17h-23v-46h6l13 -13h-19v-32h6zM449 0h-328l6 7h328zM725 334h-328l25 30h328zM673 271h-328l28 34h328zM621 208h-328l30 37h328zM570 146h-328l33 40h328zM792 424v-10l-14 -17h-328l14 17h-427v10h755zM518 83h-328l35 43h328zM466 20h-328
l39 47h328zM792 522h-755v21h755v-21zM792 459h-755v24h755v-24z" />
    <glyph glyph-name="FL0038h" unicode="8" horiz-adv-x="783" 
d="M89 259l3 -2q-1 0 -3 2zM436 361h-89q-10 0 -17 3h14q6 16 22 17h96q2 0 10 -2l4 -4h-15q-5 -14 -25 -14zM343 158v11l-6 6h14q1 0 2.5 0.5t2.5 0.5l3.5 0.5t6.5 1.5h96q-2 -17 -20 -20h-97h-2zM713 511h4q-17 17 -29 27t-22 16h-550q-8 -5 -20.5 -15t-32.5 -28h11
l17 -17h-36q-5 -8 -9 -18t-11 -28h8l13 -13h-26q-2 -10 -3 -22.5t-1 -26.5h6l11 -11h-16q1 -15 3.5 -28t6.5 -24h5l7 -7h-9q5 -10 10.5 -18t10.5 -13l-25 -25h10l4 -4h-9q-6 -14 -8 -21t-3 -12q-2 -2 -2 -5q0 -4 -1 -6q-1 -4 -1.5 -5.5t-0.5 -9.5v-39v-11q0 -7 1 -10
q5 -31 18 -59h-1q14 -26 29 -42t32 -27q6 -6 12.5 -11.5t14.5 -10.5h13l12 -12q11 -5 25 -6.5t31 -1.5h409q34 0 55 8l-3 12h28q34 19 58 63q8 15 12 29t7 30l-4 4h3q2 9 2.5 13t0.5 7v19q0 3 -0.5 6.5t-2.5 10.5l-6 6h7q-2 15 -5.5 28.5t-8.5 24.5l-10 10h6q-7 8 -11 13
t-6 8q5 5 10 11.5t10 17.5l-13 13h17q2 8 4 13t3 9t2.5 12t2.5 12l-17 17h17q0 2 -0.5 7.5t-0.5 7.5q-1 5 -2 13.5t-3 14.5l-19 19h15q-1 2 -4.5 9.5t-4.5 9.5q-5 14 -10 21l-18 17l-3 6h6zM596 0h-409q-32 0 -50 7h508q-18 -7 -49 -7zM690 522h-598q18 15 28 21h542
q8 -5 15.5 -10.5t12.5 -10.5zM732 459h-681q2 6 5 12l6 12h658q4 -6 6.5 -12t5.5 -12zM437 414h-97q-20 -3 -26 -17h-277q0 12 3 27h702q2 -8 2.5 -14t1.5 -13h-278q-8 17 -31 17zM347 350h89q28 0 33 14h275q-2 -8 -3.5 -15.5t-3.5 -14.5h-692q-5 13 -6 30h274
q5 -14 34 -14zM77 285q-10 7 -18 20h665q-8 -13 -18 -20l7 -7t6 -7h-656q3 4 6.5 7t7.5 7zM310 186v-5q0 -14 8 -24t27 -10h98q30 4 30 34v5h273q1 -2 1 -9v-7v-12q0 -9 -1 -12h-709q-1 3 -1 12v12v16h274zM443 211h-103q-5 -1 -8 -1.5t-6 -1.5h-287q2 10 3.5 19t5.5 18h686
q7 -14 10 -37h-288q-3 2 -13 3zM674 20h-566q-29 19 -46 47h658q-17 -31 -46 -47zM729 83h-675q-5 11 -8.5 21.5t-5.5 21.5h703q-2 -11 -5.5 -21.5t-8.5 -21.5z" />
    <glyph glyph-name="FL0039h" unicode="9" 
d="M48 253l4 -4q-3 1 -4 4zM332 364h17q3 6 6.5 11.5t7.5 5.5h120l6 -6h-17v-14h-137zM743 511h4q-17 17 -29.5 27.5t-20.5 15.5h-595q-10 -6 -20.5 -14.5t-30.5 -28.5h10l17 -17h-37q-6 -11 -10 -23t-7 -23h7l13 -13h-18v-49h6l11 -11h-17v-52h6l7 -7h-13q0 -31 16 -56h4
l4 -4h-9q8 -9 17 -16.5t17 -14.5q20 -19 39.5 -32t39.5 -18h317q-1 -6 -3.5 -11.5t-5.5 -5.5h-433v-169h6l22 -22h594q12 0 23 2t22 7l-3 11h28q15 11 29 25.5t28 37.5q7 11 11 26t6 33l-4 4h5v56l-6 6h6v53l-10 10h10v50l-13 13h13v46l-17 17h17v43l-19 19h18
q-3 12 -6.5 22t-7.5 18l-19 18q0 -1 -2 5h5zM40 7h625q-14 -7 -39 -7h-586v7zM763 146h-723v1h422q10 0 15.5 11t5.5 19l2 2h-2v7h280v-40zM720 522h-642q6 6 13 11t15 10h587q15 -9 27 -21zM462 414h-124q-7 0 -11.5 -5.5t-7.5 -11.5h-282v27h726v-27h-283q-2 6 -5.5 11.5
t-12.5 5.5zM760 459h-721q3 12 9 24h703q6 -12 9 -24zM316 364v-14h167v14h280v-30h-726v30h279zM763 271h-716q-10 16 -10 34h726v-34zM763 208h-632q-37 11 -63 37h695v-37zM40 126h721q-3 -28 -13 -43h-708v43zM40 67h698q-16 -27 -46 -47h-652v47z" />
    <glyph glyph-name="FL003Ah" unicode=":" horiz-adv-x="309" 
d="M38 316h-14q8 -36 28 -56h4l22 -22h3v-1q5 -3 10 -5l19 -18q36 -16 69 -16q35 0 68 16l-3 14l-10 10h46q16 19 23 50l-13 13h14q-4 32 -15 46l-20 19q-1 2 -2 4.5t-2 4.5h-10l1 2l-22 22l1 5q-37 22 -81 22q-22 0 -51 -10.5t-61 -29.5h15l11 -11h-25q-16 -22 -18 -52h6z
M273 135h4q-28 28 -59 44t-63 16t-63.5 -16t-57.5 -44h3q-11 -25 -11 -43v-14h-1q0 -2 1 -3v-3h1q18 -43 50 -63h1l5 -5q5 -5 10.5 -9t10.5 -8h13l11 -11q25 -9 52 -9q25 0 51 9l-3 11h27q35 23 50 63l-3 2q2 5 2.5 8t0.5 7q0 15 -11 42l-4 4h5zM109 7h91q-17 -7 -45 -7
q-29 0 -46 7zM91 245h125q-31 -14 -62 -14q-30 0 -63 14zM224 397h-140q14 8 32 13t38 5t37.5 -5t32.5 -13zM250 146h-191q16 17 41.5 27.5t54.5 10.5t53.5 -10.5t41.5 -27.5zM270 334h-233q2 18 11 30h211q8 -11 11 -30zM38 305h230q-4 -18 -17 -34h-195q-14 15 -18 34z
M41 67h227q-10 -28 -40 -47h-147q-30 19 -40 47zM37 83v9q0 16 8 34h219q8 -21 8 -34q0 -8 -1 -9h-234z" />
    <glyph glyph-name="FL003Bh" unicode=";" horiz-adv-x="309" 
d="M38 316h-14q8 -36 28 -56h4l22 -22h3v-1q5 -3 10 -5l19 -18q36 -16 69 -16q35 0 68 16l-3 14l-10 10h46q16 19 23 50l-13 13h14q-4 32 -15 46l-20 19q-1 2 -2 4.5t-2 4.5h-10l1 2l-22 22l1 5q-37 22 -81 22q-22 0 -51 -10.5t-61 -29.5h15l11 -11h-25q-16 -22 -18 -52h6z
M26 92v-103q0 -6 1 -13.5t4 -16.5h-3q3 -6 8 -11v-1q17 -22 38 -36l5 -5q42 -42 101 -42q35 0 67.5 18t51.5 49l-1 1q7 15 7 32v103q0 15 -11 42l-4 4h5l-22 22h4q-28 28 -59 44t-63 16t-63.5 -16t-57.5 -44h3q-11 -25 -11 -43zM91 245h125q-31 -14 -62 -14q-30 0 -63 14z
M224 397h-140q14 8 32 13t38 5t37.5 -5t32.5 -13zM250 146h-191q16 17 41.5 27.5t54.5 10.5t53.5 -10.5t41.5 -27.5zM270 334h-233q2 18 11 30h211q8 -11 11 -30zM38 305h230q-4 -18 -17 -34h-195q-14 15 -18 34zM49 -52h211q-14 -23 -42.5 -37t-62.5 -14q-35 0 -63 14
t-43 37zM272 83h-235v9q0 16 8 34h219q8 -21 8 -34v-9zM272 20h-235v47h235v-47zM37 -11v18h235v-18q0 -18 -7 -31h-222q-6 15 -6 31z" />
    <glyph glyph-name="FL003Ch" unicode="&#x3c;" horiz-adv-x="609" 
d="M10 281l17 -21h4l4 -4h-4l48 -59l51 -62l49 -57h-1l57 -69h1l17 -20h4l22 -22h348l-18 20h1l-52 63l-50 59l-4 4h1l-46 56l-6 6h1l-43 53l-6 6l-18 21l27 33l-13 13h23l39 46l-17 17h30l37 43l-19 19h34l34 40l-23 23h42l30 37l-23 23l4 5h-356l-35 -43h9l17 -17h-40
l-38 -46h9l13 -13h-32l-42 -49h9l11 -11h-29l-43 -52h9l7 -7h-22zM585 0h-328l-6 7h328zM552 522h-328l17 21h328zM500 459h-328l20 24h328zM448 397h-328l23 27h328zM396 334h-328l25 30h328zM32 271l-8 10l20 24h328l-20 -24l8 -10h-328zM412 208h-328l-30 37h328z
M463 146h-328l-33 40h328zM516 83h-328l-36 43h328zM568 20h-328l-39 47h328z" />
    <glyph glyph-name="FL003Dh" unicode="=" horiz-adv-x="450" 
d="M32 323l22 -22h392v46l-17 17h17v43l-22 22v6h-398v-49h6l11 -11h-17v-52h6zM32 97l22 -22h392v34l-4 4h4v56l-6 6h6v53l-22 22v6h-398v-159h6zM413 126v-18h-376v18h376zM413 397h-376v27h376v-27zM413 334h-376v30h376v-30zM413 208h-376v37h376v-37zM413 146h-376v40
h376v-40z" />
    <glyph glyph-name="FL003Eh" unicode="&#x3e;" horiz-adv-x="609" 
d="M9 -11l22 -22h348l17 20h1l52 63l48 59l-4 4h8l46 56l-6 6h10l45 53l-10 10h17l16 18l-21 25l-6 7l-11 13h1l-39 46l-2 2l-13 15h2l-35 43l-6 5l-11 14h1l-34 40l-3 2l-17 21h1l-30 37l-7 6l-17 22h-356l35 -43h4l17 -17h-6l39 -46h4l13 -13h-7l40 -49h4l11 -11h-6
l44 -52h4l7 -7h-6l29 -35l-20 -21h10l4 -4h-14l-50 -59l-50 -60l-48 -59l-5 -6l-52 -63l-17 -20h9zM357 7l-6 -7h-328l6 7h328zM384 522h-328l-17 21h328zM437 459h-328l-20 24h328zM488 397h-328l-22 27h328zM540 334h-328l-25 30h328zM564 305l20 -24l-9 -10h-328l9 10
l-20 24h328zM523 208h-328l31 37h328zM472 146h-328l33 40h328zM420 83h-328l35 43h328zM368 20h-328l39 47h328z" />
    <glyph glyph-name="FL003Fh" unicode="?" horiz-adv-x="782" 
d="M677 554h-650v-43h6l17 -17h-23v-46h6l13 -13h-19v-32h6l22 -22h409l6 -6h-16v-11h-181q-38 0 -81 -23l4 -18h6l7 -7h-47q-21 -24 -30 -56h7l4 -4h-9v-53h6l22 -22h41q-17 -8 -32 -20t-29 -26h3q-11 -25 -11 -43v-14h-1q0 -2 1 -3v-3h1q18 -43 50 -63h1l5 -5
q5 -5 10.5 -9t10.5 -8h13l11 -11q25 -9 52 -9q25 0 51 9l-3 11h27q35 23 50 63l-3 2q2 5 2.5 8t0.5 7q0 15 -11 42l-4 4h5l-22 22h4q-30 30 -63 46h318q19 0 45 12.5t53 34.5l-10 10h18q8 8 14.5 20.5t13.5 29.5l-13 13h17v46l-17 17h17v43l-19 19h17q-5 12 -9 23t-7 17
l-19 19q-1 1 -1 2t-1 2h8l-22 22h5q-20 18 -32.5 28t-20.5 15zM263 0q-29 0 -46 7h91q-17 -7 -45 -7zM263 184q29 0 53.5 -10.5t41.5 -27.5h-191q16 17 41.5 27.5t54.5 10.5zM336 20h-147q-30 19 -40 47h227q-10 -28 -40 -47zM145 83v9q0 16 8 34h219q8 -21 8 -34
q0 -8 -1 -9h-234zM38 424h707v-27h-283q-2 7 -7 12t-11 5h-406v10zM745 364v-27v-3h-542q34 19 70 19h192v11h280zM38 543h635q10 -6 28 -21h-663v21zM615 214h-470v31h545q-18 -14 -38 -22.5t-37 -8.5zM38 483h692q3 -6 5.5 -12t4.5 -12h-702v24zM166 305h572
q-7 -20 -21 -34h-570q4 16 19 34z" />
    <glyph glyph-name="FL0040h" unicode="@" horiz-adv-x="1051" 
d="M728 298l-2 3h4q0 -1 -2 -3zM332 234l-4 4h4v-4zM338 256v4l4 -4h-4zM537 256v4h4l4 -4h-8zM332 294l-7 7h7v-7zM338 316v7l7 -7h-7zM739 316v7h2l7 -7h-9zM535 290l-11 11h11v-11zM332 356v-3l-11 11h11q-1 -3 -0.5 -4.5t0.5 -3.5zM638 432h-226q-17 0 -35.5 -12
t-37.5 -34h9l11 -11h-21v32l-19 19h20q7 9 12 9h384v-49h6l11 -11h-17v-26l-15 15h9q-1 1 -2 1l-1 1q-2 2 -2.5 3.5t-2.5 3.5l-13 13h2q-19 22 -37 34t-35 12zM995 574h6q-23 17 -35 26t-20 13h-840q-1 0 -1 -1h-1q-7 -5 -21 -14t-34 -24h12l20 -20h-43q-5 -8 -9 -16
t-12 -27h8l17 -17h-29v-46h6l13 -13h-19v-49h6l11 -11h-17v-52h6l7 -7h-13v-56h6l4 -4h-10v-178q0 -17 2.5 -31.5t9.5 -28.5v-1q2 -2 2.5 -4t2.5 -4h1q26 -32 50 -49q23 -23 48 -35h17l10 -10q5 -1 10.5 -1.5t12.5 -0.5h560v163l-22 22v6h-379v5l-4 4h4v56l-6 6h6v3
q13 -29 36 -39l8 -8q12 -12 27 -18h547q37 12 81 56l-6 6h8q13 18 21 53l-10 10h10v50l-13 13h13v46l-17 17h17v43l-19 19h19v21q0 5 -0.5 8.5t-2.5 10.5l-21 20q0 2 -1 3h18q-5 11 -9 21t-8 16l-17 16q-2 6 -5 10h3zM706 -52v-2h-552q-5 0 -10.5 0.5t-10.5 1.5h573z
M343 305h161v-34h-161v34zM412 421h226q28 0 49 -24h-325q21 24 50 24zM1027 397h-281v27h281v-27zM305 397h-281v27h281v-27zM1027 334h-281v30h281v-30zM305 334h-281v30h281v-30zM305 271h-281v34h281v-34zM305 208h-281v37h281v-37zM344 364h360q1 -5 1.5 -8.5t0.5 -5.5
v-16h-363v16v6q0 6 1 8zM305 146h-281v40h281v-40zM969 585h-888q7 5 13.5 9t13.5 8h835q13 -7 26 -17zM706 305v-18h20q16 0 19 18h282v-34h-481v34h160zM305 126v-10q0 -10 6 -16.5t14 -6.5h381v-10h-682v43h281zM1027 459h-288q-8 9 -14 9h-399q-8 0 -15 -9h-287v13v11
h1002q1 -2 1 -11v-13zM1016 522h-982q2 5 5 10.5t6 10.5h961q3 -5 5.5 -10.5t4.5 -10.5zM346 186h646q-29 -29 -63 -40h-544q-13 5 -23.5 15.5t-15.5 24.5zM343 245h682q-5 -22 -16 -37h-666v37zM706 -42h-601q-37 17 -59 49h660v-49zM706 20h-669q-13 22 -13 47h682v-47z
" />
    <glyph glyph-name="FL0041h" unicode="A" 
d="M349 312v35l-17 17h16q3 6 7 11.5t8 5.5h120l6 -6h-17v-52h6l7 -7h-13v-4h-123zM743 511h4q-17 17 -29 27t-22 16h-593q-10 -6 -20.5 -14.5t-30.5 -28.5h10l17 -17h-38q-6 -11 -10 -23t-7 -23h7l13 -13h-18v-49h6l11 -11h-17v-52h6l7 -7h-13v-56h6l4 -4h-10v-267h6
l22 -22h295v142l-4 4h4v12h123v-136h6l22 -22h296v142l-4 4h4v56l-6 6h6v53l-10 10h10v50l-13 13h13v46l-17 17h17v43l-19 19h19q-5 12 -9 23t-7 17l-19 19q-1 1 -1 2t-1 2h6zM316 7v-7h-279v7h279zM763 7v-7h-280v7h280zM316 334h-279v30h279v-30zM763 334h-280v30h280v-30
zM316 83h-279v43h279v-43zM763 83h-280v43h280v-43zM720 522h-641q6 6 13 11t15 10h585q8 -5 15.5 -10.5t12.5 -10.5zM316 20h-279v47h279v-47zM763 20h-280v47h280v-47zM763 397h-283q-2 6 -5.5 11.5t-12.5 5.5h-124q-7 0 -12 -5.5t-8 -11.5h-281v27h726v-27zM760 459h-721
q3 12 9 24h702q3 -6 5.5 -12t4.5 -12zM316 305v-4h167v4h280v-34h-726v34h279zM763 208h-726v37h726v-37zM763 146h-280v12h-167v-12h-279v40h726v-40z" />
    <glyph glyph-name="FL0042h" unicode="B" 
d="M742 497l1 -1q0 1 -1 1zM349 158v11l-6 6h6v3h129q-2 -20 -24 -20h-105zM332 364h17v17h129q2 0 10 -2l4 -4h-15q-5 -14 -25 -14h-117zM683 554h-657v-43h6l17 -17h-23v-46h6l13 -13h-19v-49h6l11 -11h-17v-52h6l7 -7h-13v-56h6l4 -4h-10v-267h6l22 -22h583q34 0 55 8
l-3 12h28q34 19 58 63q8 15 12 29t7 30l-4 4h3q2 9 2.5 13t0.5 7v19q0 3 -0.5 6.5t-2.5 10.5l-6 6h7q-2 15 -5.5 28.5t-8.5 24.5l-10 10h6q-7 8 -11 13t-6 8q5 5 10 11.5t10 17.5l-13 13h17q2 8 4 13t3 9t2.5 12t2.5 12l-17 17h17q0 2 -0.5 7.5t-0.5 7.5q-1 5 -2 13.5
t-3 14.5l-19 19h15q-1 2 -4.5 9.5t-4.5 9.5q-5 14 -10 21l-18 17l-3 6h6l-8 7l-1 1l-13 14h4q-17 17 -29.5 27.5t-20.5 15.5zM612 0h-575v7h624q-18 -7 -49 -7zM37 543h642q15 -9 27 -21h-669v21zM762 397h-278q-8 17 -31 17h-137v-17h-279v27h721q2 -8 2.5 -14t1.5 -13z
M37 483h699q4 -6 6.5 -12t5.5 -12h-711v24zM316 364v-14h136q28 0 33 14h275q-2 -8 -3.5 -15.5t-3.5 -14.5h-716v30h279zM316 186v-39h138q19 0 27 10t8 24v5h273q1 -2 1 -9v-7v-12q0 -9 -1 -12h-725v40h279zM37 305h703q-8 -13 -18 -20l7 -7t6 -7h-698v34zM453 211h-137v-3
h-279v37h713q7 -14 10 -37h-286q-8 3 -21 3zM37 126h722q-2 -11 -5.5 -21.5t-8.5 -21.5h-708v43zM37 67h699q-17 -31 -46 -47h-653v47z" />
    <glyph glyph-name="FL0043h" unicode="C" horiz-adv-x="717" 
d="M350 158v11l-6 6h6v53l-10 10h10v50l-13 13h13v46l-17 17h16q3 7 6.5 12t7.5 5h350v26l-19 19h19v40l-22 22v1h22v37l-22 22v6h-584q-8 -5 -20.5 -15t-32.5 -28h11l17 -17h-35q-5 -11 -9.5 -22.5t-9.5 -23.5h8l13 -13h-23v-49h6l11 -11h-17v-52h6l7 -7h-13v-56h6l4 -4
h-10v-133q0 -24 10 -45h-3q14 -23 29 -39t31 -27q8 -8 16.5 -14t16.5 -11h11l11 -11q24 -9 44 -9h515v142l-4 4h4v17l-22 22v6h-335zM674 7v-7h-507q-23 0 -38 7h545zM317 334h-280v30h280v-30zM317 271h-280v34h280v-34zM317 208h-280v37h280v-37zM680 424v-10h-342
q-7 0 -11.5 -5t-7.5 -12h-282v21v6h643zM317 186v-16q1 -10 7 -16.5t14 -6.5h336v-1h-637v40h280zM680 522h-597q18 15 28 21h569v-21zM680 459h-636q2 6 4.5 12t5.5 12h626v-24zM674 83h-628q-9 19 -9 40v3h637v-43zM674 20h-571q-14 9 -27 21t-22 26h620v-47z" />
    <glyph glyph-name="FL0044h" unicode="D" horiz-adv-x="793" 
d="M350 161v8l-6 6h6v53l-10 10h10v50l-13 13h13v46l-17 17h17v6h106q5 -14 6.5 -25t1.5 -22h6l7 -7h-12v-56h6l4 -4h-10v-30q0 1 -1.5 -8.5t-3.5 -20.5h2q-5 -16 -15 -26t-27 -10h-70zM699 554h-673v-43h6l17 -17h-23v-46h6l13 -13h-19v-49h6l11 -11h-17v-52h6l7 -7h-13
v-56h6l4 -4h-10v-267h6l22 -22h630q16 0 35 10l-3 10h19q27 22 48 63l-1 1q3 10 5 18t2 16v24l-4 4h4v56l-6 6h6v53l-10 10h10v50l-13 13h13v46l-17 17h17v43l-19 19h16q-3 12 -6.5 22t-7.5 18l-19 18q0 -1 -2 5h6q-8 10 -13 16.5t-10 11.5l-4 3q-23 29 -31 34zM659 0h-622
v7h650q-13 -7 -28 -7zM317 334h-280v30h280v-30zM756 334h-281q0 19 -4 30h285v-30zM756 271h-280v34h280v-34zM317 271h-280v34h280v-34zM317 208h-280v37h280v-37zM756 208h-282q1 5 1.5 9t0.5 9v19h280v-37zM37 543h657q5 -4 11 -9t11 -12h-679v21zM37 483h705
q6 -12 9 -24h-714v24zM434 403h-117v-6h-280v27h719v-27h-303q-4 2 -9 4t-10 2zM317 186v-36h103q22 0 33.5 10t16.5 26h286v-40h-719v40h280zM756 126v-16q0 -9 -5 -27h-714v43h719zM37 67h708q-17 -32 -37 -47h-671v47z" />
    <glyph glyph-name="FL0045h" unicode="E" horiz-adv-x="717" 
d="M43 375h-17v-52h6l7 -7h-13v-56h6l4 -4h-10v-133q0 -24 10 -45h-3q14 -23 29 -39t31 -27q8 -8 16.5 -14t16.5 -11h11l11 -11q24 -9 44 -9h521v142l-4 4h4v17l-22 22v6h-339q2 1 4 3.5t7 7.5l-6 6h356v53l-10 10h10v50l-13 13h13v33l-22 22v6h-346q-6 0 -8 2h12q3 7 7 12
t7 5h350v26l-19 19h19v40l-22 22v1h22v37l-22 22v6h-584q-8 -5 -20.5 -15t-32.5 -28h11l17 -17h-35q-5 -11 -9.5 -22.5t-9.5 -23.5h8l13 -13h-23v-49h6zM680 7v-7h-513q-23 0 -38 7h551zM680 424v-10h-342q-6 0 -11 -5t-8 -12h-282v21v6h643zM37 186h281q-1 -1 -1 -2
t-0.5 -3t-0.5 -4t0.5 -4t0.5 -3q3 -6 11 -14.5t10 -8.5h342v-1h-643v40zM680 522h-597q18 15 28 21h569v-21zM37 364h284q7 -13 24 -13h335v-17h-643v30zM680 459h-636q2 6 4.5 12t5.5 12h626v-24zM680 271h-643v34h643v-34zM680 245v-37h-643v37h643zM680 83h-634
q-9 19 -9 40v3h643v-43zM680 20h-577q-14 9 -27 21t-22 26h626v-47z" />
    <glyph glyph-name="FL0046h" unicode="F" horiz-adv-x="717" 
d="M43 375h-17v-52h6l7 -7h-13v-56h6l4 -4h-10v-267h6l22 -22h296v142l-4 4h4v44q0 -1 13 12l-6 6h356v53l-10 10h10v50l-13 13h13v33l-22 22v6h-346q-6 0 -8 2h12q3 7 7 12t7 5h350v26l-19 19h19v40l-22 22v1h22v37l-22 22v6h-584q-8 -5 -20.5 -15t-32.5 -28h11l17 -17h-35
q-5 -11 -9.5 -22.5t-9.5 -23.5h8l13 -13h-23v-49h6zM317 7v-7h-280v7h280zM37 186h281q-1 -1 -1 -2v-38h-280v40zM680 424v-10h-342q-6 0 -11 -5t-8 -12h-282v21v6h643zM317 83h-280v43h280v-43zM680 522h-597q18 15 28 21h569v-21zM317 20h-280v47h280v-47zM37 364h284
q7 -13 24 -13h335v-17h-643v30zM680 459h-636q2 6 4.5 12t5.5 12h626v-24zM680 271h-643v34h643v-34zM680 245v-37h-643v37h643z" />
    <glyph glyph-name="FL00B9h" unicode="G" 
d="M350 158v11l-6 6h6v53l-10 10h10v50l-13 13h13v46l-17 17h16q3 7 6.5 12t7.5 5h350v26l-19 19h19v40l-22 22v1h22v37l-22 22v6h-584q-8 -5 -20.5 -15t-32.5 -28h11l17 -17h-35q-5 -11 -9.5 -22.5t-9.5 -23.5h8l13 -13h-23v-49h6l11 -11h-17v-52h6l7 -7h-13v-56h6l4 -4
h-10v-133q0 -24 10 -45h-2q14 -23 29 -39t31 -27q8 -8 16.5 -14t16.5 -11h11l11 -11q11 -5 21.5 -7t21.5 -2h466q20 0 44 9l-3 11h25q36 24 61 63h-1q5 13 8.5 25t3.5 23v11l-4 4h4v56l-6 6h6v53l-10 10h10v50l-13 13h13v46l-22 22v6h-301v-52h6l7 -7h-13v-56h6l4 -4h-10
v-84q-2 -5 -5.5 -9.5t-5.5 -4.5h-112zM130 7h541q-15 -7 -38 -7h-466q-23 0 -37 7zM763 334h-279v30h279v-30zM317 334h-280v30h280v-30zM763 271h-279v34h279v-34zM317 271h-280v34h280v-34zM763 208h-279v37h279v-37zM317 208h-280v37h280v-37zM680 424v-10h-342
q-7 0 -11.5 -5t-7.5 -12h-282v21v6h643zM680 522h-597q18 15 28 21h569v-21zM680 459h-636q2 6 4.5 12t5.5 12h626v-24zM317 186v-16q3 -6 6.5 -14.5t14.5 -8.5h124q8 0 13.5 8t8.5 14v17h279v-40h-726v40h280zM55 67h690q-17 -28 -48 -47h-593q-14 9 -27 21t-22 26z
M763 126v-3q0 -11 -2.5 -20.5t-6.5 -19.5h-708q-9 19 -9 40v3h726z" />
    <glyph glyph-name="FL0048h" unicode="H" horiz-adv-x="770" 
d="M447 -11l22 -22h297v142l-4 4h4v56l-6 6h6v53l-10 10h10v50l-13 13h13v46l-17 17h17v43l-19 19h19v40l-22 22v1h22v37l-22 22v6h-303v-43h6l17 -17h-23v-46h6l13 -13h-19v-49h6l11 -11h-17v-13h-106l-2 2h17v43l-19 19h19v40l-22 22v1h22v37l-22 22v6h-302v-43h6l17 -17
h-23v-46h6l13 -13h-19v-49h6l11 -11h-17v-52h6l7 -7h-13v-56h6l4 -4h-10v-267h6l22 -22h296v142l-4 4h4v56l-6 6h97v-186h6zM317 7v-7h-280v7h280zM733 7v-7h-281v7h281zM317 522h-280v21h280v-21zM733 522h-281v21h281v-21zM317 459h-280v24h280v-24zM733 459h-281v24h281
v-24zM317 397h-280v27h280v-27zM733 397h-281v27h281v-27zM317 146h-280v40h280v-40zM733 146h-281v40h281v-40zM317 83h-280v43h280v-43zM733 83h-281v43h281v-43zM317 20h-280v47h280v-47zM733 20h-281v47h281v-47zM317 364v-13h135v13h281v-30h-696v30h280zM733 271h-696
v34h696v-34zM733 245v-37h-696v37h696z" />
    <glyph glyph-name="FL0049h" unicode="I" horiz-adv-x="738" 
d="M541 158v11l-6 6h6v53l-10 10h10v50l-13 13h13v46l-17 17h17v17h193v26l-19 19h19v40l-22 22v1h22v37l-22 22v6h-685v-43h6l17 -17h-23v-46h6l13 -13h-19v-32h6l22 -22h173l6 -6h-17v-52h6l7 -7h-13v-56h6l4 -4h-10v-98h-191v-169h6l22 -22h679v142l-4 4h4v17l-22 22v6
h-170zM700 7v-7h-663v7h663zM508 334h-280v30h280v-30zM508 271h-280v34h280v-34zM508 208h-280v37h280v-37zM701 414h-193v-17h-280v17h-190v10h663v-10zM37 146v1h191v39h280v-39h192v-1h-663zM701 522h-663v21h663v-21zM701 459h-663v24h663v-24zM700 83h-663v43h663v-43
zM700 20h-663v47h663v-47z" />
    <glyph glyph-name="FL004Ah" unicode="J" 
d="M328 284h-302v-24h6l4 -4h-10v-133q0 -24 10 -45h-2q14 -23 29 -39t31 -27q8 -8 16.5 -14t16.5 -11h11l11 -11q11 -5 21.5 -7t21.5 -2h466q20 0 44 9l-3 11h25q36 24 61 63h-1q5 13 8.5 25t3.5 23v11l-4 4h4v56l-6 6h6v53l-10 10h10v50l-13 13h13v46l-17 17h17v43l-19 19
h19v40l-22 22v1h22v37l-22 22v6h-301v-43h6l17 -17h-23v-46h6l13 -13h-19v-49h6l11 -11h-17v-52h6l7 -7h-13v-56h6l4 -4h-10v-83q-2 -5 -5.5 -10t-5.5 -5h-112v11l-6 6h6v53l-10 10h10v18l-22 22v6zM37 273h280v-2h-280v2zM633 0h-466q-23 0 -37 7h541q-15 -7 -38 -7z
M763 522h-279v21h279v-21zM763 459h-279v24h279v-24zM763 397h-279v27h279v-27zM763 334h-279v30h279v-30zM763 271h-279v34h279v-34zM763 208h-279v37h279v-37zM317 208h-280v37h280v-37zM317 186v-16q3 -6 6.5 -14.5t14.5 -8.5h124q8 0 13.5 8.5t8.5 14.5v16h279v-40h-726
v40h280zM697 20h-593q-14 9 -27 21t-22 26h690q-17 -28 -48 -47zM754 83h-708q-9 19 -9 40v3h726v-3q0 -11 -2.5 -20.5t-6.5 -19.5z" />
    <glyph glyph-name="FL004Bh" unicode="K" horiz-adv-x="765" 
d="M332 424l-1 2h2q0 -1 -1 -1v-1zM350 435v13h3l13 -13h-16zM43 375h-17v-52h6l7 -7h-13v-56h6l4 -4h-10v-267h6l22 -22h296v117l12 -12q16 -17 31 -31t29 -24q21 -18 39 -30h9l10 -10q19 -10 41 -10h240v142l-4 4h4v18l-22 22v6h-55q-22 0 -45.5 10.5t-46.5 27.5h-1
q-4 4 -7.5 7t-6.5 7q-4 5 -6.5 9t-4.5 8l-10 10h6q-8 30 -8 38v12l-13 13h19q5 8 14 20t22 26l-17 17h39q25 16 40 16h103v27l-19 19h19v40l-22 22v1h22v37l-22 22v6h-285q-11 -6 -26 -16t-35 -27h11l17 -17h-44q-8 -13 -9 -14v-2q-2 -3 -6 -8l-12 -15v11l-22 22v1h22v37
l-22 22v6h-302v-43h6l17 -17h-23v-46h6l13 -13h-19v-49h6zM728 7v-7h-232q-21 0 -34 7h266zM317 7v-7h-280v7h280zM317 522h-280v21h280v-21zM728 522h-304q13 10 33 21h271v-21zM317 459h-280v24h280v-24zM317 397h-280v27h280v-27zM728 459h-362q3 4 6 7l7 7v2q2 2 5 8
h344v-24zM591 397h-258q2 7 5.5 13.5t6.5 13.5h383v-11h-95q-17 0 -42 -16zM317 83h-280v43h280v-43zM317 20h-280v47h280v-47zM728 20h-290q-30 20 -56 47h346v-47zM319 364h234q-8 -9 -13.5 -16.5t-9.5 -13.5h-493v30h280v-5q1 1 1 2q0 2 1 3zM355 97l-17 29h390v-43h-361
l-7 7t-5 7zM37 305h484v-4q0 -10 5 -30h-489v34zM37 245h499q6 -10 13 -19.5t15 -17.5h-527v37zM327 146l-10 18v-18h-280v40h552q23 -17 47.5 -27.5t47.5 -10.5h44v-2h-401z" />
    <glyph glyph-name="FL004Ch" unicode="L" horiz-adv-x="717" 
d="M350 158v11l-6 6h6v53l-10 10h10v50l-13 13h13v46l-17 17h17v43l-19 19h19v40l-22 22v1h22v37l-22 22v6h-302v-43h6l17 -17h-23v-46h6l13 -13h-19v-49h6l11 -11h-17v-52h6l7 -7h-13v-56h6l4 -4h-10v-119q1 -14 3 -29t7 -30h-1q11 -25 23.5 -43t25.5 -26h2l13 -13
q3 -3 6 -5l6 -4h10l11 -11q11 -5 22 -7t23 -2h536v142l-4 4h4v17l-22 22v6h-336h-5zM680 7v-7h-528q-25 0 -39 7h567zM317 522h-280v21h280v-21zM317 459h-280v24h280v-24zM317 397h-280v27h280v-27zM317 334h-280v30h280v-30zM317 271h-280v34h280v-34zM317 208h-280v37
h280v-37zM317 186v-2q0 -20 8.5 -27.5t29.5 -9.5h325v-1h-643v40h280zM680 83h-634q-4 10 -5.5 21t-2.5 22h642v-43zM680 20h-590q-12 8 -21.5 20.5t-16.5 26.5h628v-47z" />
    <glyph glyph-name="FL004Dh" unicode="M" horiz-adv-x="1123" 
d="M1078 497l1 -1q0 1 -1 1zM1065 511h4q-17 17 -29.5 27.5t-20.5 15.5h-918q-10 -6 -20.5 -14.5t-30.5 -28.5h10l17 -17h-37q-6 -11 -10 -23t-7 -23h7l13 -13h-18v-49h6l11 -11h-17v-52h6l7 -7h-13v-56h6l4 -4h-10v-267h6l22 -22h295v142l-4 4h4v56l-6 6h6v53l-10 10h10v50
l-13 13h13v46l-17 17h17q3 6 6.5 11.5t7.5 5.5h58l6 -6h-18v-52h6l7 -7h-13v-56h6l4 -4h-10v-267h6l22 -22h297v142l-4 4h4v56l-6 6h6v53l-10 10h10v50l-13 13h13v46l-17 17h16q3 5 7 11t7 6h59l6 -6h-17v-52h6l7 -7h-13v-56h6l4 -4h-10v-267h6l22 -22h296v142l-4 4h4v56
l-6 6h6v53l-10 10h10v50l-13 13h13v46l-17 17h17v43l-19 19h18q-3 12 -6.5 22t-7.5 18l-19 18q0 -1 -2 5h5l-8 7l-1 1zM315 7v-7h-279v7h279zM1085 0h-280v7h280v-7zM700 7v-7h-281v7h281zM315 334h-279v30h279v-30zM1085 334h-280v30h280v-30zM700 334h-281v30h281v-30z
M315 271h-279v34h279v-34zM1085 271h-280v34h280v-34zM700 271h-281v34h281v-34zM315 208h-279v37h279v-37zM1085 208h-280v37h280v-37zM700 208h-281v37h281v-37zM315 146h-279v40h279v-40zM1085 146h-280v40h280v-40zM700 146h-281v40h281v-40zM315 83h-279v43h279v-43z
M1085 83h-280v43h280v-43zM700 83h-281v43h281v-43zM315 20h-279v47h279v-47zM1085 20h-280v47h280v-47zM700 20h-281v47h281v-47zM1042 522h-965q6 6 13 11t15 10h910q15 -9 27 -21zM1082 459h-1044q3 12 9 24h1026q6 -12 9 -24zM1085 397h-283q-2 6 -5.5 11.5t-12.5 5.5
h-63q-7 0 -11.5 -6t-7.5 -11h-285q-2 6 -6 11.5t-12 5.5h-62q-7 0 -11.5 -5.5t-7.5 -11.5h-282v27h1049v-27z" />
    <glyph glyph-name="FL004Eh" unicode="N" 
d="M756 497l1 -1q0 1 -1 1zM697 554h-671v-43h6l17 -17h-23v-46h6l13 -13h-19v-49h6l11 -11h-17v-52h6l7 -7h-13v-56h6l4 -4h-10v-267h6l22 -22h295v142l-4 4h4v56l-6 6h6v53l-10 10h10v50l-13 13h13v46l-17 17h17v17h134l6 -6h-17v-52h6l7 -7h-13v-56h6l4 -4h-10v-267h6
l22 -22h296v142l-4 4h4v56l-6 6h6v53l-10 10h10v50l-13 13h13v46l-17 17h17v43l-19 19h18q-3 12 -6.5 22t-7.5 18l-19 18q0 -1 -2 5h5l-8 7l-1 1l-13 14h4q-17 17 -29.5 27.5t-20.5 15.5zM316 7v-7h-279v7h279zM763 7v-7h-280v7h280zM316 334h-279v30h279v-30zM763 334h-280
v30h280v-30zM316 271h-279v34h279v-34zM763 271h-280v34h280v-34zM316 208h-279v37h279v-37zM763 208h-280v37h280v-37zM316 146h-279v40h279v-40zM763 146h-280v40h280v-40zM316 83h-279v43h279v-43zM763 83h-280v43h280v-43zM316 20h-279v47h279v-47zM763 20h-280v47h280
v-47zM37 543h656q15 -9 27 -21h-683v21zM462 414h-146v-17h-279v27h726v-27h-283q-2 6 -5.5 11.5t-12.5 5.5zM37 483h714q6 -12 9 -24h-723v24z" />
    <glyph glyph-name="FL004Fh" unicode="O" 
d="M752 497l1 -1q0 1 -1 1zM349 158v11l-6 6h6v53l-10 10h10v50l-13 13h13v46l-17 17h18q5 14 12 17h122l6 -6h-17v-52h6l7 -7h-13v-56h6l4 -4h-10v-83q-2 -5 -5.5 -10t-5.5 -5h-113zM739 511h4q-17 17 -29.5 27.5t-20.5 15.5h-586q-8 -5 -20.5 -15t-32.5 -28h11l17 -17h-35
q-5 -11 -9.5 -22.5t-9.5 -23.5h8l13 -13h-23v-49h6l11 -11h-17v-52h6l7 -7h-13v-56h6l4 -4h-10v-133q0 -24 10 -45h-3q14 -23 29 -39t31 -27q8 -8 16.5 -14t16.5 -11h11l11 -11q24 -9 44 -9h466q20 0 44 9l-3 11h25q36 24 61 63h-1q5 13 8.5 25t3.5 23v11l-4 4h4v56l-6 6h6
v53l-10 10h10v50l-13 13h13v46l-17 17h17v43l-19 19h15q-7 18 -10.5 26t-6.5 14l-19 18l-1 1v1q0 2 -1 3h7l-5 5v-1l-3 3l-1 1zM633 0h-466q-23 0 -38 7h542q-15 -7 -38 -7zM763 334h-279v30h279v-30zM316 334h-279v30h279v-30zM763 271h-279v34h279v-34zM316 271h-279v34
h279v-34zM763 208h-279v37h279v-37zM316 208h-279v37h279v-37zM716 522h-633q18 15 28 21h578q15 -9 27 -21zM756 459h-712q2 6 4.5 12t5.5 12h691l6 -12t5 -12zM462 414h-126q-12 -3 -17 -17h-282v21v6h726v-6v-21h-282q-3 7 -7.5 12t-11.5 5zM316 186v-16q1 -5 5 -14
t17 -9h124q6 0 12.5 8.5t9.5 14.5v16h279v-40h-726v40h279zM697 20h-594q-14 9 -27 21t-22 26h691q-17 -28 -48 -47zM754 83h-708q-9 19 -9 40v3h726v-3q0 -11 -2.5 -20.5t-6.5 -19.5z" />
    <glyph glyph-name="FL0050h" unicode="P" 
d="M349 315v32l-17 17h17v17h130q-1 0 5 -2l4 -4h-10v-15q0 -5 -2.5 -14t-9.5 -23h8l7 -7h-31q-1 -1 -2 -1h-99zM684 554h-658v-43h6l17 -17h-23v-46h6l13 -13h-19v-49h6l11 -11h-17v-52h6l7 -7h-13v-56h6l4 -4h-10v-267h6l22 -22h295v142l-4 4h4v11h289q54 0 107 45l-6 6h9
q8 9 14.5 22.5t13.5 30.5l-10 10h15q5 16 7 26.5t5 23.5l-13 13h14q2 10 2 13v10v23l-17 17h16q-2 11 -3 21.5t-5 21.5l-19 19h13q-7 18 -10.5 26t-6.5 14l-19 18l-1 1v1q0 2 -1 3h8l-22 22h4q-17 17 -28.5 27.5t-20.5 15.5zM316 0h-279v7h279v-7zM762 334h-279q6 13 6 26v4
h274v-15q0 -12 -1 -15zM316 334h-279v30h279v-30zM316 83h-279v43h279v-43zM316 20h-279v47h279v-47zM37 543h643q8 -5 14 -10t12 -11h-669v21zM454 414h-138v-17h-279v27h719q2 -7 3 -13.5t2 -13.5h-282q-5 7 -11 12t-14 5zM37 483h697l6 -12t5 -12h-708v24zM37 186h661
q-35 -29 -85 -29h-297v-11h-279v40zM316 305v-1h132q6 0 7 1h303q-2 -9 -4 -17.5t-4 -16.5h-713v34h279zM37 245h703q-7 -20 -21 -37h-682v37z" />
    <glyph glyph-name="FL0051h" unicode="Q" horiz-adv-x="802" 
d="M351 158v11l-6 6h6v53l-10 10h10v50l-13 13h13v46l-17 17h18q2 7 5 12t8 5h119l6 -6h-16v-52h6l7 -7h-13v-56h6l4 -4h-10v-83q-3 -3 -1 -3q-5 -12 -9 -12h-113zM694 554h-585q-8 -5 -20.5 -15t-32.5 -28h11l17 -17h-35q-5 -11 -9.5 -22.5t-9.5 -23.5h8l13 -13h-23v-49h6
l11 -11h-17v-52h6l7 -7h-13v-56h6l4 -4h-10v-133q0 -24 10 -45h-2q28 -45 61 -67h-138v-171h6l22 -22h398q25 0 56 15t61 38l-1 1q13 11 24 24.5t22 28.5h2v1l-1 1q1 1 1.5 2t1.5 2l-1 1l19 35h91q11 0 21.5 2t21.5 7l-3 11h26q36 24 61 63h-1q12 27 12 48v11l-4 4h4v56
l-6 6h6v53l-10 10h10v50l-13 13h13v46l-17 17h17v43l-19 19h15q-5 11 -9 21t-9 19l-17 17l-3 6h8l-22 22h5q-20 18 -32.5 28t-20.5 15zM318 334h-279v30h279v-30zM765 334h-280v30h280v-30zM318 271h-279v34h279v-34zM765 271h-280v34h280v-34zM318 208h-279v37h279v-37z
M485 208v37h280v-37h-280zM113 543h577q10 -6 28 -21h-633q18 15 28 21zM360 -149h-390v37h483q-21 -16 -45 -26.5t-48 -10.5zM56 483h691q4 -6 6.5 -12t4.5 -12h-712q2 6 4.5 12t5.5 12zM466 414h-126q-8 0 -12.5 -5t-6.5 -12h-282v21v6h726v-6v-21h-283q-5 14 -16 17z
M337 147h127q11 0 14.5 8.5t6.5 14.5v16h280v-40h-726v40h279v-16q3 -6 10 -14.5t9 -8.5zM-30 0h194q-16 0 -33 7h541q-14 -7 -37 -7h-96l-22 -40q-1 0 -1 -2h-546v42zM-30 -52h540q-20 -31 -48 -53h-492v53zM57 67h690q-17 -28 -48 -47h-594q-31 19 -48 47zM765 126v-3
q0 -21 -9 -40h-708q-9 19 -9 40v3h726z" />
    <glyph glyph-name="FL0052h" unicode="R" horiz-adv-x="823" 
d="M349 315v32l-17 17h17v17h130q1 0 1.5 -0.5t2.5 -0.5l5 -5h-10v-14q0 -5 -2.5 -14.5t-9.5 -23.5h8l7 -7h-31q-1 -1 -2 -1h-99zM700 554h-674v-43h6l17 -17h-23v-46h6l13 -13h-19v-49h6l11 -11h-17v-52h6l7 -7h-13v-56h6l4 -4h-10v-267h6l22 -22h295v142l-4 4h4v11l1 -1
q1 -1 7 1h2q13 0 23 -7l6 -5l25 -34l45 -60h-2l25 -29h4l22 -22h366l-18 20h2l-48 63l-45 59l-4 4h1l-43 56l-6 6h6l-15 14q1 0 1 3q0 4 1 5q24 2 55 31l-10 10h15q8 11 11 19t5 16q2 3 4 8t3 7l-13 13h13q5 14 6 24.5t2 21.5l-17 17h17q0 12 -1 22t-2 21l-19 19h16
q-3 12 -6.5 22t-7.5 18l-19 18q0 -1 -2 5h12l-22 22h4q-14 14 -26.5 25.5t-22.5 17.5zM316 0h-279v7h279v-7zM479 7h346l6 -7h-346zM757 334h-274q6 13 6 27v3h273q-1 -8 -2 -15t-3 -15zM316 334h-279v30h279v-30zM316 83h-279v43h279v-43zM316 20h-279v47h279v-47zM37 543
h659q8 -5 14.5 -10.5t11.5 -10.5h-685v21zM423 83l-30 40l-3 3h345l33 -43h-345zM816 20h-346l-35 47h345zM454 414h-138v-17h-279v27h724q1 -7 1.5 -13.5t0.5 -13.5h-284q-4 7 -10.5 12t-14.5 5zM37 483h709q6 -12 9 -24h-718v24zM316 305v-1h132q6 0 7 1h295
q-3 -9 -6 -17.5t-8 -16.5h-699v34h279zM37 245h678q-17 -15 -39 -15q-5 -5 -5 -13q0 -7 1 -8l1 -1h-636v37zM720 146h-352q-17 11 -34 11h-2q-6 -2 -11 -4t-5 -3v-4h-279v40h652z" />
    <glyph glyph-name="FL005Ah" unicode="S" horiz-adv-x="782" 
d="M39 316h-12q8 -18 15.5 -32.5t16.5 -23.5h4l4 -4h-8l12 -10l12 -10l9 -8q27 -23 53.5 -37t46.5 -14h261q0 -5 -2.5 -12t-7.5 -7h-417v-169h6l22 -22h578q21 0 45 9l-3 11h25q33 21 62 63h-1q6 14 11 28.5t7 30.5l-4 4h4v56l-6 6h6v53l-10 10h10q-7 30 -26 50l-10 9
q-3 5 -6.5 9.5t-7.5 9.5h-12l-20 20l1 5q-20 12 -40.5 17.5t-39.5 5.5h-268q3 7 6.5 12t7.5 5h414v26l-19 19h19v40l-22 22v1h22v37l-22 22v6h-651q-8 -5 -20.5 -15.5t-29.5 -27.5h10l17 -17h-36q-5 -11 -9.5 -22.5t-9.5 -23.5h8l13 -13h-21v-49h6l11 -11h-17v-52h6zM607 0
h-570v7h609q-15 -7 -39 -7zM37 147h406q10 0 15.5 11t5.5 19v9h281v-40h-708v1zM744 414h-406q-7 0 -11.5 -5t-7.5 -12h-282v27h707v-10zM744 522h-663q12 12 27 21h636v-21zM317 353h300q35 0 69 -19h-649v3v27h280v-11zM744 459h-702q2 6 4.5 12t5.5 12h692v-24zM464 210
h-297q-18 0 -38.5 9.5t-39.5 25.5h656v-37h-281v2zM43 305h681q15 -18 19 -34h-679q-14 14 -21 34zM37 126h707q-3 -17 -14 -43h-693v43zM37 67h683q-20 -29 -48 -47h-635v47z" />
    <glyph glyph-name="FL0055h" unicode="T" horiz-adv-x="763" 
d="M32 403l22 -22h186l6 -6h-17v-52h6l7 -7h-13v-56h6l4 -4h-10v-267h6l22 -22h296v142l-4 4h4v56l-6 6h6v53l-10 10h10v50l-13 13h13v46l-17 17h17v17h206v26l-19 19h19v40l-22 22v1h22v37l-22 22v6h-711v-43h6l17 -17h-23v-46h6l13 -13h-19v-32h6zM520 7v-7h-280v7h280z
M520 334h-280v30h280v-30zM520 271h-280v34h280v-34zM520 208h-280v37h280v-37zM520 146h-280v40h280v-40zM726 424v-10h-206v-17h-280v17h-203v10h689zM520 83h-280v43h280v-43zM520 20h-280v47h280v-47zM726 522h-689v21h689v-21zM726 459h-689v24h689v-24z" />
    <glyph glyph-name="FL0056h" unicode="U" 
d="M350 158v11l-6 6h6v53l-10 10h10v50l-13 13h13v46l-17 17h17v43l-19 19h19v40l-22 22v1h22v37l-22 22v6h-302v-43h6l17 -17h-23v-46h6l13 -13h-19v-49h6l11 -11h-17v-52h6l7 -7h-13v-56h6l4 -4h-10v-133q0 -24 10 -45h-2q14 -23 29 -39t31 -27q8 -8 16.5 -14t16.5 -11h11
l11 -11q11 -5 21.5 -7t21.5 -2h604v142l-4 4h4v56l-6 6h6v53l-10 10h10v50l-13 13h13v46l-17 17h17v43l-19 19h19v40l-22 22v1h22v37l-22 22v6h-301v-43h6l17 -17h-23v-46h6l13 -13h-19v-49h6l11 -11h-17v-52h6l7 -7h-13v-56h6l4 -4h-10v-98h-123zM763 0h-596q-23 0 -37 7
h633v-7zM763 522h-279v21h279v-21zM317 522h-280v21h280v-21zM763 459h-279v24h279v-24zM317 459h-280v24h280v-24zM763 397h-279v27h279v-27zM317 397h-280v27h280v-27zM763 334h-279v30h279v-30zM317 334h-280v30h280v-30zM763 271h-279v34h279v-34zM317 271h-280v34h280
v-34zM763 208h-279v37h279v-37zM317 208h-280v37h280v-37zM317 186v-16q3 -6 6.5 -14.5t14.5 -8.5h146v39h279v-40h-726v40h280zM763 83h-717q-9 19 -9 40v3h726v-43zM763 20h-659q-14 9 -27 21t-22 26h708v-47z" />
    <glyph glyph-name="FL0057h" unicode="V" horiz-adv-x="938" 
d="M349 256v32l-13 13h13v46l-17 17h17v43l-19 19h19v40l-22 22v1h22v37l-22 22v6h-301v-43h6l17 -17h-23v-46h6l13 -13h-19v-49h6l11 -11h-17v-52h6l7 -7h-13v-56h6l4 -4h-10v-268h6l22 -22h420q11 0 31 11l-3 10h17q12 10 17.5 16t10.5 12h1l5 5l23 30l45 59l-4 4h8l42 56
l-6 6h11l41 53l-10 10h18l38 50l-13 13h23l35 46l-17 17h30l33 43l-19 19h34l30 40l-23 23h41l28 37l-23 23l4 5h-356l-31 -43h9l17 -17h-39l-33 -46h9l13 -13h-31l-37 -49h9l11 -11h-28l-39 -52h9l7 -7h-20l-42 -56h9l4 -4h-14zM449 -1h-412v8h436q-14 -8 -24 -8zM316 522
h-279v21h279v-21zM316 459h-279v24h279v-24zM884 522h-327l15 21h328zM316 397h-279v27h279v-27zM836 459h-325l17 24h326zM316 334h-279v30h279v-30zM788 397h-323l20 27h324zM316 271h-279v34h279v-34zM740 334h-322l22 30h323zM692 271h-320l25 34h321zM328 218
q5 0 7.5 3.5t6.5 8.5l11 15h319l-29 -37h-606v37h279v-20q0 -1 4.5 -3t7.5 -4zM535 67l-10 -13q-5 -5 -13.5 -15t-19.5 -19h-455v47h498zM547 83h-510v43h543zM596 146h-559v40h589z" />
    <glyph glyph-name="FL0059h" unicode="W" horiz-adv-x="1123" 
d="M349 316v3l3 -3h-3zM349 338v9l-17 17h17v43l-19 19h19v40l-22 22v1h22v37l-22 22v6h-302v-43h6l17 -17h-23v-46h6l13 -13h-19v-49h6l11 -11h-17v-52h6l7 -7h-13v-56h6l4 -4h-10v-267h6l22 -22h361q12 0 46 23l-1 1q12 11 26.5 25t31.5 34h1q14 16 25.5 29.5t22.5 29.5
l-4 4h8l8 13q11 -14 22 -27t24 -27q14 -17 26.5 -31t23.5 -23h-3q5 -4 9.5 -7t8.5 -6l16 -15q34 -23 45 -23h368v142l-4 4h4v56l-6 6h6v53l-10 10h10v50l-13 13h13v46l-17 17h17v43l-19 19h19v40l-22 22v1h22v37l-22 22v6h-302v-43h6l17 -17h-23v-46h6l13 -13h-19v-49h6
l11 -11h-17v-52h6l7 -7h-13v-5l-30 36l-1 1l-14 16h1l-37 43l-17 19h1l-34 40l-3 2l-17 21h1l-30 37l-7 6l-17 22h-61l-37 -43h9l17 -17h-40l-38 -46h9l13 -13h-32l-42 -49h9l11 -11h-29zM602 522h-87l18 21h52zM389 0h-353v7h373q-10 -7 -20 -7zM1085 0h-360q-9 0 -19 7
h379v-7zM655 459h-192l20 24h152zM1085 522h-280v21h280v-21zM316 522h-280v21h280v-21zM1085 459h-280v24h280v-24zM316 459h-280v24h280v-24zM708 397h-297l23 27h251zM1085 397h-280v27h280v-27zM316 397h-280v27h280v-27zM1085 334h-280v30h280v-30zM316 334h-280v30
h280v-30zM761 334h-402l25 30h352zM36 67h439q-12 -14 -24.5 -26t-23.5 -21h-391v47zM1085 20h-397q-11 9 -22.5 21t-23.5 26h443v-47zM36 126h489q-8 -11 -16.5 -21.5t-18.5 -21.5h-454v43zM1085 83h-457q-10 11 -18.5 21.5t-16.5 21.5h492v-43zM335 305h450l20 -23v23h280
v-34h-1049v34h280v-23zM1085 208h-1049v37h1049v-37zM561 172h-3q-2 -3 -6.5 -9.5t-11.5 -16.5h-504v40h1049v-40h-507q-5 8 -9.5 13.5t-6.5 9.5q-1 1 -1 3z" />
    <glyph glyph-name="FL0058h" unicode="X" horiz-adv-x="765" 
d="M398 41l4 -4q-3 1 -4 4zM332 554h-306v-43h6l17 -17h-23v-46h6l13 -13h-19v-33h6l22 -22h48q5 0 27 -2.5t43 -13.5l7 -7q3 -4 5.5 -7t4.5 -5q5 -5 9 -11t8 -11h4l7 -7h-4q8 -14 15 -24.5t14 -18.5q0 -1 1 -1v-12h6l4 -4h-19q-14 -23 -50 -59q-20 -17 -36 -27t-22 -10
h-100v-171h6l22 -22h134q18 0 35.5 1t34.5 7l-2 12h32q2 1 5 3.5t8 5.5q11 8 25 19.5t35 34.5l8 12l1 1q14 -14 27 -26t25 -20q21 -18 39 -30h9l10 -10q19 -10 41 -10h240v142l-4 4h4v18l-22 22v6h-55q-18 0 -39.5 10.5t-42.5 27.5h-1q-12 10 -21 21q-2 2 -3 5t-3 5l-10 10
h3q-12 25 -14 50l-13 13h18q11 21 30 46l-17 17h35q16 16 24 16h131v27l-19 19h19v40l-22 22v1h22v37l-22 22v6h-268q-9 -5 -15 -10.5t-11 -10.5q-2 -1 -4.5 -2l-2.5 -1l4 -19h6l17 -17h-55q-3 -4 -5 -7.5t-4 -5.5q-2 2 -3.5 4t-3.5 4h5l-22 22h4q-12 12 -20 19t-16 13
q-3 2 -6.5 5.5t-6.5 5.5zM163 0h-126v7h191q-15 -5 -31.5 -6t-33.5 -1zM728 0h-232q-21 0 -34 7h266v-7zM728 522h-279q6 5 12 10.5t14 10.5h253v-21zM37 543h292q7 -5 13.5 -10.5t11.5 -10.5h-317v21zM233 305h288q2 -18 9 -34h-276q0 1 0.5 1.5t0.5 1.5q-5 7 -11 15
t-11 16zM187 364h361q-6 -8 -11 -15.5t-9 -14.5h-316q-6 8 -12 15t-13 15zM271 27q-4 -3 -6.5 -4.5t-4.5 -2.5h-223v47h281q-12 -13 -24 -22.5t-23 -17.5zM241 245h303q7 -10 14.5 -19.5t15.5 -17.5h-363q10 10 17.5 19.5t12.5 17.5zM728 413h-123q-11 0 -27 -16h-428
q-11 6 -22.5 9t-22 4.5t-18 2t-10.5 0.5h-40v11h691v-11zM728 20h-290q-30 20 -56 47h346v-47zM402 463l3.5 6t9.5 14h313v-24h-691v24h349q5 -6 8.5 -11t7.5 -9zM684 148h44v-2h-691v3h89q8 0 25 10t37 27h410q21 -17 43.5 -27.5t42.5 -10.5zM348 106q-5 -7 -8.5 -12.5
t-7.5 -10.5h-295v43h691v-43h-361l-7 7t-5 7q-2 3 -3.5 5t-3.5 4z" />
    <glyph glyph-name="FL007Ch" unicode="Y" horiz-adv-x="787" 
d="M43 375h-17v-52h6l7 -7h-13q4 -14 10 -28.5t16 -27.5h4l4 -4h-8q7 -6 13 -11.5t13 -10.5l6 -6q24 -23 48.5 -36.5t44.5 -16.5h280q-3 -15 -24 -17h-402v-169h6l22 -22h602q26 0 45 10l-3 10h21q27 19 47 63h-1q7 13 7.5 20.5t2.5 15.5q1 3 2 11t2 12l-4 4h3v56l-6 6h6v53
l-10 10h10v50l-13 13h13v46l-17 17h17v43l-19 19h19v40l-22 22v1h22v37l-22 22v6h-303v-43h6l17 -17h-23v-46h6l13 -13h-19v-49h6l11 -11h-17l-8 -14h-112h-2l-2 3h16v43l-19 19h19v40l-22 22v1h22v37l-22 22v6h-302v-43h6l17 -17h-23v-46h6l13 -13h-19v-49h6zM42 7h632
q-13 -7 -38 -7h-594v7zM317 522h-280v21h280v-21zM750 522h-281v21h281v-21zM317 459h-280v24h280v-24zM750 459h-281v24h281v-24zM317 397h-280v27h280v-27zM750 397h-281v27h281v-27zM750 146h-708v1h391q20 2 28 9.5t8 27.5v2h281v-40zM37 364h284q2 -5 5.5 -9.5
t11.5 -4.5h112q4 0 8 4.5t7 9.5h285v-30h-713v30zM750 208h-597q-19 3 -38 12.5t-35 24.5h670v-37zM750 271h-693q-12 17 -16 34h709v-34zM42 126h707q-2 -12 -3.5 -22.5t-5.5 -20.5h-698v43zM42 67h692q-14 -31 -37 -47h-655v47z" />
    <glyph glyph-name="FL007Bh" unicode="Z" horiz-adv-x="946" 
d="M438 35l-6 6l-2 3zM452 554h-426v-43h6l17 -17h-23v-46h6l13 -13h-19v-32h6l22 -22h159q5 0 13 -6q7 -12 11.5 -19.5t9.5 -12.5l10 -20h5l7 -7h-8l31 -56h5l4 -4h-7l33 -59l33 -60l1 -2l17 -29q3 -8 8 -15.5t13 -18.5h1q28 -33 50 -49q13 -11 25 -20t25 -16h13l11 -11
q24 -9 46 -9h372v142l-4 4h4v18l-22 22v6h-185q-12 0 -25 16h2q-5 6 -8 12l-4 8v1l-18 32l-10 10h5l-28 50l-13 13h6l-26 46l-17 17h7l-24 43l-17 17l-1 2h14q-11 11 -15 14.5t-5 4.5h2q1 0 -2 3h2l-11 10q-1 1 -2 3t-3 5l-8 8q-2 2 -2.5 3t-1.5 2q-6 6 -12 15h-2l-17 17h5
q-20 18 -32.5 28t-21.5 15zM909 7v-7h-364q-25 0 -40 7h404zM37 543h411l16.5 -11t12.5 -10h-440v21zM264 334l-8 15q-2 3 -4.5 6.5t-5.5 8.5h340l17 -30h-339zM567 397h-348q-17 17 -31 17h-151v10h515zM638 271h-339l-19 34h339zM37 483h479q5 -7 9 -13t8 -11h-496v24z
M313 245h339l15 -26q1 -2 2 -4.5t3 -6.5h-338zM735 148h174v-2h-541l-22 40h341q11 -14 24 -26t24 -12zM909 20h-432q-35 18 -59 47h491v-47zM909 83h-505q-8 10 -16 27l-9 16h530v-43z" />
    <glyph glyph-name="FL005Bh" unicode="[" horiz-adv-x="444" 
d="M351 104v5l-4 4h4v56l-6 6h6v53l-10 10h10v50l-13 13h13v46l-17 17h17v43l-19 19h19v9h89v31l-22 22v1h22v37l-22 22v4h22v33l-22 22v6h-392v-39h6l20 -20h-26v-43h6l17 -17h-23v-46h6l13 -13h-19v-49h6l11 -11h-17v-52h6l7 -7h-13v-56h6l4 -4h-10v-321h6l22 -22h379v163
l-22 22v6h-60zM400 -52v-2h-363v2h363zM407 585h-370v17h370v-17zM318 397h-281v27h281v-27zM407 522h-370v21h370v-21zM407 468h-89v-9h-281v24h370v-15zM318 334h-281v30h281v-30zM318 271h-281v34h281v-34zM318 208h-281v37h281v-37zM318 146h-281v40h281v-40zM318 93h82
v-10h-363v43h281v-33zM400 20h-363v47h363v-47zM400 -42h-363v49h363v-49z" />
    <glyph glyph-name="FL005Ch" unicode="\" horiz-adv-x="841" 
d="M488 -11l22 -22h348l-18 20h1l-52 63l-50 59l-4 4h2l-46 56l-6 6h1l-45 53h-1l-8 10h2l-41 50l-6 5l-6 8h1l-39 46l-2 2l-13 15h1l-35 43l-6 6l-11 13h1l-34 40l-2 1l-18 22h1l-30 37l-7 6l-17 22h-356l35 -43h4l17 -17h-6l39 -46h4l13 -13h-7l40 -49h4l11 -11h-5l44 -52
h4l7 -7h-6l46 -56h4l4 -4h-5l50 -59h-1l49 -60l50 -59h-1l57 -69h1l17 -20h4zM816 0h-328l-6 7h328zM383 522h-328l-17 21h328zM436 459h-328l-20 24h328zM487 397h-328l-22 27h328zM540 334h-328l-25 30h328zM592 271h-328l-28 34h328zM644 208h-328l-31 37h328zM695 146
h-328l-33 40h328zM747 83h-328l-36 43h328zM799 20h-328l-39 47h328z" />
    <glyph glyph-name="FL005Dh" unicode="]" horiz-adv-x="444" 
d="M32 457l22 -22h61v-49h6l11 -11h-17v-52h6l7 -7h-13v-56h6l4 -4h-10v-152h-82v-169h6l22 -22h379v196l-4 4h4v56l-6 6h6v53l-10 10h10v50l-13 13h13v46l-17 17h17v43l-19 19h19v40l-22 22v1h22v37l-22 22v4h22v33l-22 22v6h-392v-39h6l20 -20h-26v-43h6l17 -17h-23v-37h6
zM407 -52v-2h-363v2h363zM407 585h-370v17h370v-17zM407 397h-281v27h281v-27zM407 522h-370v21h370v-21zM407 459h-281v9h-89v15h370v-24zM407 334h-281v30h281v-30zM407 271h-281v34h281v-34zM407 208h-281v37h281v-37zM407 146h-281v40h281v-40zM407 83h-363v10h82v33
h281v-43zM407 20h-363v47h363v-47zM407 -42h-363v49h363v-49z" />
    <glyph glyph-name="FL005Eh" unicode="^" horiz-adv-x="939" 
d="M492 554h-466v-43h6l17 -17h-23v-46h6l13 -13h-19v-49h6l11 -11h-17v-52h6l7 -7h-13v-56h6l4 -4h-10v-267h6l22 -22h295v142l-4 4h4v56l-6 6h6v53l-10 10h10v50l-13 13h13v1l32 -42h4l4 -4h-5l43 -59h-1l45 -60h-1l49 -65l39 -54l7 -9l16 -21h4l22 -22h349l-18 24l-1 1
l-45 59l-4 4l-42 55l-4 4h1l-43 56l-6 6h1l-40 53l-10 10h2l-38 50l-11 11l-2 2h2l-35 46l-11 10l-5 7h3l-33 43l-10 10l-7 9h2l-31 40l-10 9l-10 14h4l-22 22h4q-3 3 -9.5 9t-13 12.5t-13 12.5t-9.5 9zM316 7v-7h-279v7h279zM580 7h329l6 -8h-329zM316 271h-279v34h279v-34
zM37 543h451q6 -5 11.5 -10.5l10.5 -10.5h-473v21zM316 208h-279v37h279v-37zM706 271h-320l-25 34h319zM316 146h-279v40h279v-40zM754 208h-322l-27 37h321zM316 83h-279v43h279v-43zM561 459h-524v24h505zM802 146h-324l-30 40h323zM316 20h-279v47h279v-47zM850 83h-326
l-32 43h325zM609 397h-572v27h551zM899 20h-329l-34 47h327zM657 334h-317q-5 8 -11 8q-3 -2 -8 -4t-5 -3v-1h-279v30h597z" />
    <glyph glyph-name="FL005Fh" unicode="_" horiz-adv-x="603" 
d="M32 -11l22 -22h545v142l-4 4h4v17l-22 22v6h-551v-169h6zM37 147h529v-1h-529v1zM566 7v-7h-529v7h529zM566 83h-529v43h529v-43zM566 20h-529v47h529v-47z" />
    <glyph glyph-name="FL0061h" unicode="`" horiz-adv-x="1475" 
d="M1148 294l-7 7h7v-7zM553 7v102l-4 4h4v56l-6 6h6v53l-10 10h10v50l-13 13h13v46l-17 17h17v17h206v26l-19 19h19v40l-22 22v1h22v37l-22 22v6h-711v-43h6l17 -17h-23v-46h6l13 -13h-19v-32h6l22 -22h186l6 -6h-17v-52h6l7 -7h-13v-56h6l4 -4h-10v-267h6l22 -22h296v17
l17 -17h349l16 23l-1 1l45 59l42 59l-4 4h8l42 56l-6 6h10l38 53l-10 10h18l31 42v-20h6l4 -4h-10v-266h6l22 -22h295v141l-4 4h4v56l-6 6h6v53l-10 10h10v50l-13 13h13v46l-17 17h17v43l-19 19h19v40l-22 22v1h22v37l-22 22v6h-468q-10 -7 -20.5 -18t-21.5 -25h9l17 -17
h-39l-35 -46h9l13 -13h-32l-37 -49h9l11 -11h-29l-40 -52h9l7 -7h-21l-43 -56h9l4 -4h-16l-45 -59l-48 -62l-44 -57l-46 -60h-1zM1438 7v-6h-279v6h279zM520 7v-7h-280v7h280zM889 0h-328l5 7h328zM520 334h-280v30h280v-30zM1438 271h-279v34h279v-34zM520 271h-280v34h280
v-34zM1438 522h-476q5 6 23 21h453v-21zM1438 208h-279v37h279v-37zM520 208h-280v37h280v-37zM1088 271h-319l26 34h318zM1438 146h-279v40h279v-40zM520 146h-280v40h280v-40zM726 424v-10h-206v-17h-280v17h-203v10h689zM1042 208h-321l28 37h320zM1438 83h-279v43h279
v-43zM520 83h-280v43h280v-43zM1438 459h-525l18 24h507v-24zM996 146h-323l31 40h322zM1438 20h-279v47h279v-47zM520 20h-280v47h280v-47zM950 83h-325l33 43h323zM726 522h-689v21h689v-21zM1438 397h-572l20 27h552v-27zM903 20h-327l36 47h326zM726 459h-689v24h689
v-24zM1438 334h-279v2q0 1 -4.5 3t-7.5 4q-5 0 -7 -2t-5 -7h-318l23 30h598v-30z" />
    <glyph glyph-name="a" unicode="a" horiz-adv-x="938" 
d="M611 295l-6 6h6v-6zM11 -12l22 -22h348l18 24l-1 1l45 59l42 59l-4 4h8l40 56l-6 6h11l40 53l-10 10h17l30 40v-18h6l4 -4h-10v-267h6l22 -22h295v142l-4 4h4v56l-6 6h6v53l-10 10h10v50l-13 13h13v46l-17 17h17v43l-19 19h19v40l-22 22v1h22v37l-22 22v6h-467
q-3 -3 -9.5 -9t-14 -13t-13.5 -12.5t-9 -8.5h10l17 -17h-36l-35 -46h9l13 -13h-32l-38 -49h9l11 -11h-28l-40 -52h9l7 -7h-21l-43 -56h9l4 -4h-16l-46 -59l-46 -60l-50 -65l-41 -54l-7 -9l-16 -21h9zM901 7v-7h-279v7h279zM352 -1h-328l6 8h328zM901 271h-279v34h279v-34z
M901 522h-475q5 5 11 10.5t12 10.5h452v-21zM901 208h-279v37h279v-37zM552 271h-319l26 34h318zM901 146h-279v40h279v-40zM505 208h-321l29 37h320zM901 83h-279v43h279v-43zM901 459h-524l18 24h506v-24zM460 146h-323l30 40h322zM901 20h-279v47h279v-47zM414 83h-326
l33 43h324zM901 397h-572l21 27h551v-27zM367 20h-327l36 47h326zM901 334h-279v1q0 1 -4.5 3t-7.5 4q-5 0 -7 -1.5t-5 -6.5h-317l23 30h597v-30z" />
    <glyph glyph-name="FL0062h" unicode="b" 
d="M742 497l1 -1q0 1 -1 1zM349 158v11l-6 6h6v3h129q-2 -20 -24 -20h-105zM332 364h17v17h129q2 0 10 -2l4 -4h-15q-5 -14 -25 -14h-117zM683 554h-657v-43h6l17 -17h-23v-46h6l13 -13h-19v-49h6l11 -11h-17v-52h6l7 -7h-13v-56h6l4 -4h-10v-267h6l22 -22h583q34 0 55 8
l-3 12h28q34 19 58 63q8 15 12 29t7 30l-4 4h3q2 9 2.5 13t0.5 7v19q0 3 -0.5 6.5t-2.5 10.5l-6 6h7q-2 15 -5.5 28.5t-8.5 24.5l-10 10h6q-7 8 -11 13t-6 8q5 5 10 11.5t10 17.5l-13 13h17q2 8 4 13t3 9t2.5 12t2.5 12l-17 17h17q0 2 -0.5 7.5t-0.5 7.5q-1 5 -2 13.5
t-3 14.5l-19 19h15q-1 2 -4.5 9.5t-4.5 9.5q-5 14 -10 21l-18 17l-3 6h6l-8 7l-1 1l-13 14h4q-17 17 -29.5 27.5t-20.5 15.5zM612 0h-575v7h624q-18 -7 -49 -7zM37 543h642q15 -9 27 -21h-669v21zM762 397h-278q-8 17 -31 17h-137v-17h-279v27h721q2 -8 2.5 -14t1.5 -13z
M37 483h699q4 -6 6.5 -12t5.5 -12h-711v24zM316 364v-14h136q28 0 33 14h275q-2 -8 -3.5 -15.5t-3.5 -14.5h-716v30h279zM316 186v-39h138q19 0 27 10t8 24v5h273q1 -2 1 -9v-7v-12q0 -9 -1 -12h-725v40h279zM37 305h703q-8 -13 -18 -20l7 -7t6 -7h-698v34zM453 211h-137v-3
h-279v37h713q7 -14 10 -37h-286q-8 3 -21 3zM37 126h722q-2 -11 -5.5 -21.5t-8.5 -21.5h-708v43zM37 67h699q-17 -31 -46 -47h-653v47z" />
    <glyph glyph-name="FL0063h" unicode="c" horiz-adv-x="717" 
d="M26 435v-49h6l11 -11h-17v-52h6l7 -7h-13v-56h6l4 -4h-10v-133q0 -24 10 -45h-3q14 -23 29 -39t31 -27q8 -8 16.5 -14t16.5 -11h11l11 -11q24 -9 44 -9h515v142l-4 4h4v17l-22 22v6h-335v11l-6 6h6v53l-10 10h10v50l-13 13h13v46l-17 17h16q3 7 6.5 12t7.5 5h350v26
l-19 19h19v40l-22 22v1h22v37l-22 22v6h-584q-8 -5 -20.5 -15t-32.5 -28h11l17 -17h-35q-5 -11 -9.5 -22.5t-9.5 -23.5h8l13 -13h-23zM674 0h-507q-23 0 -38 7h545v-7zM317 334h-280v30h280v-30zM317 271h-280v34h280v-34zM317 208h-280v37h280v-37zM37 397v21v6h643v-10
h-342q-7 0 -11.5 -5t-7.5 -12h-282zM338 147h336v-1h-637v40h280v-16q1 -10 7 -16.5t14 -6.5zM680 522h-597q18 15 28 21h569v-21zM680 459h-636q2 6 4.5 12t5.5 12h626v-24zM674 83h-628q-9 19 -9 40v3h637v-43zM674 20h-571q-14 9 -27 21t-22 26h620v-47z" />
    <glyph glyph-name="d" unicode="d" horiz-adv-x="793" 
d="M350 161v8l-6 6h6v53l-10 10h10v50l-13 13h13v46l-17 17h17v6h106q5 -14 6.5 -25t1.5 -22h6l7 -7h-12v-56h6l4 -4h-10v-30q0 1 -1.5 -8.5t-3.5 -20.5h2q-5 -16 -15 -26t-27 -10h-70zM699 554h-673v-43h6l17 -17h-23v-46h6l13 -13h-19v-49h6l11 -11h-17v-52h6l7 -7h-13
v-56h6l4 -4h-10v-267h6l22 -22h630q16 0 35 10l-3 10h19q27 22 48 63l-1 1q3 10 5 18t2 16v24l-4 4h4v56l-6 6h6v53l-10 10h10v50l-13 13h13v46l-17 17h17v43l-19 19h16q-3 12 -6.5 22t-7.5 18l-19 18q0 -1 -2 5h6q-8 10 -13 16.5t-10 11.5l-4 3q-23 29 -31 34zM659 0h-622
v7h650q-13 -7 -28 -7zM317 334h-280v30h280v-30zM756 334h-281q0 19 -4 30h285v-30zM756 271h-280v34h280v-34zM317 271h-280v34h280v-34zM317 208h-280v37h280v-37zM756 208h-282q1 5 1.5 9t0.5 9v19h280v-37zM37 543h657q5 -4 11 -9t11 -12h-679v21zM37 483h705
q6 -12 9 -24h-714v24zM434 403h-117v-6h-280v27h719v-27h-303q-4 2 -9 4t-10 2zM317 186v-36h103q22 0 33.5 10t16.5 26h286v-40h-719v40h280zM756 126v-16q0 -9 -5 -27h-714v43h719zM37 67h708q-17 -32 -37 -47h-671v47z" />
    <glyph glyph-name="E" unicode="e" horiz-adv-x="717" 
d="M691 362h-346q-6 0 -8 2h12q3 7 7 12t7 5h350v26l-19 19h19v40l-22 22v1h22v37l-22 22v6h-584q-8 -5 -20.5 -15t-32.5 -28h11l17 -17h-35q-5 -11 -9.5 -22.5t-9.5 -23.5h8l13 -13h-23v-49h6l11 -11h-17v-52h6l7 -7h-13v-56h6l4 -4h-10v-133q0 -24 10 -45h-3
q14 -23 29 -39t31 -27q8 -8 16.5 -14t16.5 -11h11l11 -11q24 -9 44 -9h521v142l-4 4h4v17l-22 22v6h-339q2 1 4 3.5t7 7.5l-6 6h356v53l-10 10h10v50l-13 13h13v33l-22 22v6zM680 0h-513q-23 0 -38 7h551v-7zM37 397v21v6h643v-10h-342q-6 0 -11 -5t-8 -12h-282zM338 147
h342v-1h-643v40h281q-1 -1 -1 -2t-0.5 -3t-0.5 -4t0.5 -4t0.5 -3q3 -6 11 -14.5t10 -8.5zM680 522h-597q18 15 28 21h569v-21zM345 351h335v-17h-643v30h284q7 -13 24 -13zM680 459h-636q2 6 4.5 12t5.5 12h626v-24zM680 271h-643v34h643v-34zM680 208h-342h-1h-300v37h643
v-37zM680 83h-634q-9 19 -9 40v3h643v-43zM680 20h-577q-14 9 -27 21t-22 26h626v-47z" />
    <glyph glyph-name="FL0066h" unicode="f" horiz-adv-x="717" 
d="M26 435v-49h6l11 -11h-17v-52h6l7 -7h-13v-56h6l4 -4h-10v-267h6l22 -22h296v142l-4 4h4v44q0 -1 13 12l-6 6h356v53l-10 10h10v50l-13 13h13v33l-22 22v6h-346q-6 0 -8 2h12q3 7 7 12t7 5h350v26l-19 19h19v40l-22 22v1h22v37l-22 22v6h-584q-8 -5 -20.5 -15t-32.5 -28
h11l17 -17h-35q-5 -11 -9.5 -22.5t-9.5 -23.5h8l13 -13h-23zM317 7v-7h-280v7h280zM317 184v-38h-280v40h281q-1 -1 -1 -2zM37 397v21v6h643v-10h-342q-6 0 -11 -5t-8 -12h-282zM317 83h-280v43h280v-43zM680 522h-597q18 15 28 21h569v-21zM317 20h-280v47h280v-47z
M345 351h335v-17h-643v30h284q7 -13 24 -13zM680 459h-636q2 6 4.5 12t5.5 12h626v-24zM680 271h-643v34h643v-34zM680 208h-342h-1h-300v37h643v-37z" />
    <glyph glyph-name="FL0067h" unicode="g" 
d="M740 323h9q-35 22 -65.5 34.5t-50.5 12.5h-271v-47h6l7 -7h-13v-56h6l4 -4h-10v-56h6l22 -22h83v-5q-2 -5 -5.5 -10t-5.5 -5h-112v11l-6 6h6v53l-10 10h10v50l-13 13h13v46l-17 17h16q3 7 6.5 12t7.5 5h430v26l-19 19h19v40l-22 22v1h22v37l-22 22v6h-664
q-8 -5 -20.5 -15t-32.5 -28h11l17 -17h-35q-5 -11 -9.5 -22.5t-9.5 -23.5h8l13 -13h-23v-49h6l11 -11h-17v-52h6l7 -7h-13v-56h6l4 -4h-10v-133q0 -24 10 -45h-2q14 -23 29 -39t31 -27q8 -8 16.5 -14t16.5 -11h11l11 -11q11 -5 21.5 -7t21.5 -2h466q20 0 44 9l-3 11h25
q36 24 61 63h-1q5 13 8.5 25t3.5 23v11l-4 4h4v56l-6 6h6v53l-10 10h10q-7 28 -25 50l-13 13h4zM130 7h541q-15 -7 -38 -7h-466q-23 0 -37 7zM709 334h-336v25h260q18 0 38 -7t38 -18zM317 334h-280v30h280v-30zM317 271h-280v34h280v-34zM317 208h-280v37h280v-37zM319 397
h-282v21v6h723v-10h-422q-7 0 -11.5 -5t-7.5 -12zM373 305h369q14 -17 18 -34h-387v34zM760 522h-677q18 15 28 21h649v-21zM763 208h-279v3h-111v34h390v-37zM760 459h-716q2 6 4.5 12t5.5 12h706v-24zM317 186v-16q3 -6 6.5 -14.5t14.5 -8.5h124q8 0 13.5 8.5t8.5 14.5v16
h279v-40h-726v40h280zM55 67h690q-17 -28 -48 -47h-593q-14 9 -27 21t-22 26zM763 126v-3q0 -11 -2.5 -20.5t-6.5 -19.5h-708q-9 19 -9 40v3h726z" />
    <glyph glyph-name="FL0068h" unicode="h" horiz-adv-x="770" 
d="M447 -11l22 -22h297v142l-4 4h4v56l-6 6h6v53l-10 10h10v50l-13 13h13v46l-17 17h17v43l-19 19h19v40l-22 22v1h22v37l-22 22v6h-303v-43h6l17 -17h-23v-46h6l13 -13h-19v-49h6l11 -11h-17v-13h-106l-2 2h17v43l-19 19h19v40l-22 22v1h22v37l-22 22v6h-302v-43h6l17 -17
h-23v-46h6l13 -13h-19v-49h6l11 -11h-17v-52h6l7 -7h-13v-56h6l4 -4h-10v-267h6l22 -22h296v142l-4 4h4v56l-6 6h97v-186h6zM317 7v-7h-280v7h280zM733 7v-7h-281v7h281zM317 522h-280v21h280v-21zM733 522h-281v21h281v-21zM317 459h-280v24h280v-24zM733 459h-281v24h281
v-24zM317 397h-280v27h280v-27zM733 397h-281v27h281v-27zM317 146h-280v40h280v-40zM733 146h-281v40h281v-40zM317 83h-280v43h280v-43zM733 83h-281v43h281v-43zM317 20h-280v47h280v-47zM733 20h-281v47h281v-47zM317 364v-13h135v13h281v-30h-696v30h280zM733 271h-696
v34h696v-34zM733 245v-37h-696v37h696z" />
    <glyph glyph-name="FL0069h" unicode="i" horiz-adv-x="354" 
d="M32 -11l22 -22h296v142l-4 4h4v56l-6 6h6v53l-10 10h10v50l-13 13h13v46l-17 17h17v43l-19 19h19v40l-22 22v1h22v37l-22 22v6h-302v-43h6l17 -17h-23v-46h6l13 -13h-19v-49h6l11 -11h-17v-52h6l7 -7h-13v-56h6l4 -4h-10v-267h6zM317 7v-7h-280v7h280zM317 522h-280v21
h280v-21zM317 459h-280v24h280v-24zM317 397h-280v27h280v-27zM317 334h-280v30h280v-30zM317 271h-280v34h280v-34zM317 208h-280v37h280v-37zM317 146h-280v40h280v-40zM317 83h-280v43h280v-43zM317 20h-280v47h280v-47z" />
    <glyph glyph-name="FL006Ah" unicode="j" horiz-adv-x="717" 
d="M32 -11l22 -22h537q12 0 23 2t22 7l-3 11h22q14 10 25.5 25t21.5 38q7 19 10 59l-4 4h5v56l-6 6h6v53l-10 10h10v50l-13 13h13v46l-17 17h17v43l-19 19h19v40l-22 22v1h22v37l-22 22v6h-302v-43h6l17 -17h-23v-46h6l13 -13h-19v-49h6l11 -11h-17v-52h6l7 -7h-13v-56h6
l4 -4h-10v-72q0 -14 -6 -19.5t-22 -6.5h-335v-169h6zM566 0h-529v7h568q-14 -7 -39 -7zM680 522h-280v21h280v-21zM680 459h-280v24h280v-24zM680 397h-280v27h280v-27zM680 334h-280v30h280v-30zM680 271h-280v34h280v-34zM680 208h-280v37h280v-37zM37 147h325
q21 2 29.5 9.5t8.5 27.5v2h280v-40h-643v1zM37 126h642q-1 -12 -3 -22.5t-5 -20.5h-634v43zM37 67h628q-7 -16 -16.5 -27.5t-20.5 -19.5h-591v47z" />
    <glyph glyph-name="FL006Bh" unicode="k" horiz-adv-x="765" 
d="M332 424l-1 2h2q0 -1 -1 -1v-1zM350 435v13h3l13 -13h-16zM43 375h-17v-52h6l7 -7h-13v-56h6l4 -4h-10v-267h6l22 -22h296v117l12 -12q16 -17 31 -31t29 -24q21 -18 39 -30h9l10 -10q19 -10 41 -10h240v142l-4 4h4v18l-22 22v6h-55q-22 0 -45.5 10.5t-46.5 27.5h-1
q-4 4 -7.5 7t-6.5 7q-4 5 -6.5 9t-4.5 8l-10 10h6q-8 30 -8 38v12l-13 13h19q5 8 14 20t22 26l-17 17h39q25 16 40 16h103v27l-19 19h19v40l-22 22v1h22v37l-22 22v6h-285q-11 -6 -26 -16t-35 -27h11l17 -17h-44q-8 -13 -9 -14v-2q-2 -3 -6 -8l-12 -15v11l-22 22v1h22v37
l-22 22v6h-302v-43h6l17 -17h-23v-46h6l13 -13h-19v-49h6zM728 7v-7h-232q-21 0 -34 7h266zM317 7v-7h-280v7h280zM317 522h-280v21h280v-21zM728 522h-304q13 10 33 21h271v-21zM317 459h-280v24h280v-24zM317 397h-280v27h280v-27zM728 459h-362q3 4 6 7l7 7v2q2 2 5 8
h344v-24zM591 397h-258q2 7 5.5 13.5t6.5 13.5h383v-11h-95q-17 0 -42 -16zM317 83h-280v43h280v-43zM317 20h-280v47h280v-47zM728 20h-290q-30 20 -56 47h346v-47zM319 364h234q-8 -9 -13.5 -16.5t-9.5 -13.5h-493v30h280v-5q1 1 1 2q0 2 1 3zM355 97l-17 29h390v-43h-361
l-7 7t-5 7zM37 305h484v-4q0 -10 5 -30h-489v34zM37 245h499q6 -10 13 -19.5t15 -17.5h-527v37zM327 146l-10 18v-18h-280v40h552q23 -17 47.5 -27.5t47.5 -10.5h44v-2h-401z" />
    <glyph glyph-name="l" unicode="l" horiz-adv-x="717" 
d="M350 158v11l-6 6h6v53l-10 10h10v50l-13 13h13v46l-17 17h17v43l-19 19h19v40l-22 22v1h22v37l-22 22v6h-302v-43h6l17 -17h-23v-46h6l13 -13h-19v-49h6l11 -11h-17v-52h6l7 -7h-13v-56h6l4 -4h-10v-119q1 -14 3 -29t7 -30h-1q11 -25 23.5 -43t25.5 -26h2l13 -13
q3 -3 6 -5l6 -4h10l11 -11q11 -5 22 -7t23 -2h536v142l-4 4h4v17l-22 22v6h-336h-5zM680 0h-528q-25 0 -39 7h567v-7zM317 522h-280v21h280v-21zM317 459h-280v24h280v-24zM317 397h-280v27h280v-27zM317 334h-280v30h280v-30zM317 271h-280v34h280v-34zM317 208h-280v37
h280v-37zM355 147h325v-1h-643v40h280v-2q0 -20 8.5 -27.5t29.5 -9.5zM680 83h-634q-4 10 -5.5 21t-2.5 22h642v-43zM680 20h-590q-12 8 -21.5 20.5t-16.5 26.5h628v-47z" />
    <glyph glyph-name="FL006Dh" unicode="m" horiz-adv-x="1123" 
d="M435 554h-409v-43h6l17 -17h-23v-46h6l13 -13h-19v-49h6l11 -11h-17v-52h6l7 -7h-13v-56h6l4 -4h-10v-267h6l22 -22h296v142l-4 4h4v56l-6 6h6v48l22 -26l51 -60l50 -59h-1l51 -60l8 -9l17 -20h4l22 -22h28l17 20h1l52 63h-1l50 59l-4 4h7l46 56l-6 6h12l19 23v-209h6
l22 -22h296v142l-4 4h4v56l-6 6h6v53l-10 10h10v50l-13 13h13v46l-17 17h17v43l-19 19h19v40l-22 22v1h22v37l-22 22v6h-406l-13 -13q-6 -5 -15 -13.5t-17 -16.5h10l17 -17h-41l-40 -46h9l13 -13h-33q-2 -2 -6.5 -9t-6.5 -10l-1.5 -3l-0.5 -1l-2 -2l-1 -1l-13 14q-2 2 -2 3
h6q-11 11 -16 15.5t-7 6.5h5l-23 23t-5 6q-2 1 -7 8q-2 2 -4 5.5l-2 3.5h-2l-17 17h4l-16 16q-5 4 -8.5 7.5t-7.5 6.5zM580 7l-6 -7h-22l-6 7h34zM317 7v-7h-280v7h280zM1086 7v-7h-280v7h280zM591 20h-56l-40 47h135zM1086 522h-413q6 6 12 11t11 10h390v-21zM643 83h-161
l-36 43h233zM37 543h393q5 -5 11 -10t12 -11h-416v21zM317 208h-280v37h280v-37zM1086 208h-280v37h280v-37zM1086 459h-471l21 24h450v-24zM37 483h452l10 -12l10 -12h-472v24zM1086 146h-280v40h280v-40zM317 146h-280v40h280v-40zM695 146h-266l-34 40h333zM1086 83h-280
v43h280v-43zM317 83h-280v43h280v-43zM1086 20h-280v47h280v-47zM317 20h-280v47h280v-47zM1086 397h-518q4 5 8.5 12t10.5 15h499v-27zM37 424h499q6 -8 10.5 -15t8.5 -12h-518v27zM747 208h-371l-31 37h432zM1086 334h-1049v30h1049v-30zM323 271l-6 8v-8h-280v34h1049
v-34h-280v8l-7 -8h-476z" />
    <glyph glyph-name="FL0071h" unicode="n" horiz-adv-x="933" 
d="M613 316l-4 7h4l7 -7h-7zM431 554h-405v-43h6l17 -17h-23v-46h6l13 -13h-19v-49h6l11 -11h-17v-52h6l7 -7h-13v-56h6l4 -4h-10v-267h6l22 -22h296v142l-4 4h4v56l-6 6h6v35l9 -13h-2l39 -60l27 -40l18 -25h2q17 -23 33 -38t29 -24q8 -7 15 -12.5t15 -10.5h10l11 -11
q11 -5 21.5 -7t21.5 -2h330v142l-4 4h4v56l-6 6h6v53l-10 10h10v50l-13 13h13v46l-17 17h17v43l-19 19h19v40l-22 22v1h22v37l-22 22v6h-300v-43h6l17 -17h-23v-46h6l13 -13h-19v-49h6l11 -11h-17v-49l-12 21l-16 15l-1 2h6l-25 43l-16 16l-2 3v11q-4 7 -9 14t-11 15l-11 11
q-7 7 -8 10l1 -1q-1 3 -6 8h-2l-17 17h5q-3 3 -10.5 9t-15.5 12.5t-15.5 12.5t-10.5 9zM317 7v-7h-280v7h280zM896 7v-7h-322q-23 0 -37 7h359zM896 522h-278v21h278v-21zM896 459h-278v24h278v-24zM896 397h-278v27h278v-27zM896 334h-278v30h278v-30zM37 543h391
q7 -5 13.5 -10.5t12.5 -10.5h-417v21zM317 208h-280v37h280v-37zM37 483h455q5 -7 9.5 -12.5t6.5 -10.5v-1h-471v24zM317 146h-280v40h280v-40zM317 83h-280v43h280v-43zM317 20h-280v47h280v-47zM545 397h-508v27h492zM583 334h-546v30h528zM896 20h-384q-31 20 -52 47h436
v-47zM896 83h-449l-15 21l-15 22h479v-43zM896 208h-532l-25 37h557v-37zM896 146h-492l-26 40h518v-40zM322 271l-5 8v-8h-280v34h563l18 -30v30h278v-34h-574z" />
    <glyph glyph-name="FL006Fh" unicode="o" 
d="M752 497l1 -1q0 1 -1 1zM349 158v11l-6 6h6v53l-10 10h10v50l-13 13h13v46l-17 17h18q5 14 12 17h122l6 -6h-17v-52h6l7 -7h-13v-56h6l4 -4h-10v-83q-2 -5 -5.5 -10t-5.5 -5h-113zM693 554h-586q-8 -5 -20.5 -15t-32.5 -28h11l17 -17h-35q-5 -11 -9.5 -22.5t-9.5 -23.5h8
l13 -13h-23v-49h6l11 -11h-17v-52h6l7 -7h-13v-56h6l4 -4h-10v-133q0 -24 10 -45h-3q14 -23 29 -39t31 -27q8 -8 16.5 -14t16.5 -11h11l11 -11q24 -9 44 -9h466q20 0 44 9l-3 11h25q36 24 61 63h-1q5 13 8.5 25t3.5 23v11l-4 4h4v56l-6 6h6v53l-10 10h10v50l-13 13h13v46
l-17 17h17v43l-19 19h15q-7 18 -10.5 26t-6.5 14l-19 18l-1 1v1q0 2 -1 3h7l-8 7l-1 1l-13 14h4q-17 17 -29.5 27.5t-20.5 15.5zM129 7h542q-15 -7 -38 -7h-466q-23 0 -38 7zM763 334h-279v30h279v-30zM316 334h-279v30h279v-30zM763 271h-279v34h279v-34zM316 271h-279v34
h279v-34zM763 208h-279v37h279v-37zM316 208h-279v37h279v-37zM111 543h578q15 -9 27 -21h-633q18 15 28 21zM54 483h691l6 -12t5 -12h-712q2 6 4.5 12t5.5 12zM37 424h726v-6v-21h-282q-3 7 -7.5 12t-11.5 5h-126q-12 -3 -17 -17h-282v21v6zM316 186v-16q1 -5 5 -14t17 -9
h124q6 0 12.5 8.5t9.5 14.5v16h279v-40h-726v40h279zM54 67h691q-17 -28 -48 -47h-594q-14 9 -27 21t-22 26zM763 126v-3q0 -11 -2.5 -20.5t-6.5 -19.5h-708q-9 19 -9 40v3h726z" />
    <glyph glyph-name="FL0070h" unicode="p" 
d="M488 375h-10v-15q0 -5 -2.5 -14t-9.5 -23h8l7 -7h-31q-1 -1 -2 -1h-99v32l-17 17h17v17h130q-1 0 5 -2zM684 554h-658v-43h6l17 -17h-23v-46h6l13 -13h-19v-49h6l11 -11h-17v-52h6l7 -7h-13v-56h6l4 -4h-10v-267h6l22 -22h295v142l-4 4h4v11h289q54 0 107 45l-6 6h9
q8 9 14.5 22.5t13.5 30.5l-10 10h15q3 8 4 14t2 11v1q1 5 3 12.5t3 11.5l-13 13h14q2 10 2 13v10v23l-17 17h16q-2 11 -3 21.5t-5 21.5l-19 19h13q-7 18 -10.5 26t-6.5 14l-19 18l-1 1v1q0 2 -1 3h8l-22 22h4q-17 17 -28.5 27.5t-20.5 15.5zM316 7v-7h-279v7h279zM489 364
h274v-15q0 -12 -1 -15h-279q6 13 6 26v4zM316 334h-279v30h279v-30zM316 83h-279v43h279v-43zM316 20h-279v47h279v-47zM37 543h643q8 -5 14 -10t12 -11h-669v21zM37 424h719q2 -7 3 -13.5t2 -13.5h-282q-5 7 -11 12t-14 5h-138v-17h-279v27zM37 483h697l6 -12t5 -12h-708
v24zM613 157h-297v-11h-279v40h661q-35 -29 -85 -29zM316 305v-1h132q6 0 7 1h303q-2 -9 -4 -17.5t-4 -16.5h-713v34h279zM37 245h703q-7 -20 -21 -37h-682v37z" />
    <glyph glyph-name="FL0072h" unicode="q" 
d="M752 497l1 -1q0 1 -1 1zM350 158v11l-6 6h6v53l-10 10h10v50l-13 13h13v46l-17 17h17q5 14 12 17h122l6 -6h-17v-52h6l7 -7h-13v-56h6l4 -4h-10v-59v-23q-3 -5 -6 -10.5t-2 -5.5h-115zM693 554h-586q-8 -5 -20.5 -15t-32.5 -28h11l17 -17h-35q-5 -11 -9.5 -22.5
t-9.5 -23.5h8l13 -13h-23v-49h6l11 -11h-17v-52h6l7 -7h-13v-56h6l4 -4h-10v-133q0 -24 10 -45h-3q14 -23 29 -39t31 -27q8 -8 16.5 -14t16.5 -11h11l11 -11q24 -9 44 -9h75l5 -8h-1q10 -17 21.5 -32t24.5 -28h-2q4 -2 7 -5t7 -5q2 -2 3 -2.5t3 -2.5h1l13 -13q2 -2 4.5 -3.5
t5.5 -3.5l2 -2q27 -19 55 -31.5t51 -12.5h398v165l-22 22v6h-90q9 8 16.5 17.5t15.5 21.5l-2 1q7 13 10 23.5t3 23.5v11l-4 4h4v56l-6 6h6v53l-10 10h10v50l-13 13h13v46l-17 17h17v43l-19 19h15q-7 18 -10.5 26t-6.5 14l-19 18l-1 1v1q0 2 -1 3h7l-8 7l-1 1l-13 14h4
q-17 17 -29.5 27.5t-20.5 15.5zM763 334h-279v30h279v-30zM37 364h280v-30h-280v30zM763 271h-279v34h279v-34zM37 305h280v-34h-280v34zM763 208h-279v37h279v-37zM37 245h280v-37h-280v37zM111 543h578q15 -9 27 -21h-633q18 15 28 21zM832 -149h-390q-25 0 -49 10.5
t-45 26.5h484v-37zM54 483h691l6 -12t5 -12h-712q2 6 4.5 12t5.5 12zM763 424v-6v-21h-282q-3 7 -7.5 12t-11.5 5h-126q-12 -3 -17 -17h-282v21v6h726zM317 186v-16q3 -6 6.5 -14.5t14.5 -8.5h127q2 0 9 8.5t10 14.5v16h279v-40h-726v40h280zM638 0h194v-42h-546q-1 1 -1 2
l-22 40h-96q-23 0 -38 7h541q-17 -7 -32 -7zM832 -105h-493q-29 24 -47 53h540v-53zM54 67h691q-9 -14 -22 -26t-27 -21h-593q-14 9 -27 21t-22 26zM763 126v-3q0 -21 -10 -40h-707q-9 19 -9 40v3h726z" />
    <glyph glyph-name="r" unicode="r" horiz-adv-x="823" 
d="M349 315v32l-17 17h17v17h130q1 0 1.5 -0.5t2.5 -0.5l5 -5h-10v-14q0 -5 -2.5 -14.5t-9.5 -23.5h8l7 -7h-31q-1 -1 -2 -1h-99zM700 554h-674v-43h6l17 -17h-23v-46h6l13 -13h-19v-49h6l11 -11h-17v-52h6l7 -7h-13v-56h6l4 -4h-10v-267h6l22 -22h295v142l-4 4h4v11l1 -1
q1 -1 7 1h2q13 0 23 -7l6 -5l25 -34l45 -60h-2l25 -29h4l22 -22h366l-18 20h2l-48 63l-45 59l-4 4h1l-43 56l-6 6h6l-15 14q1 0 1 3q0 4 1 5q24 2 55 31l-10 10h15q8 11 11 19t5 16q2 3 4 8t3 7l-13 13h13q5 14 6 24.5t2 21.5l-17 17h17q0 12 -1 22t-2 21l-19 19h16
q-3 12 -6.5 22t-7.5 18l-19 18q0 -1 -2 5h12l-22 22h4q-14 14 -26.5 25.5t-22.5 17.5zM316 0h-279v7h279v-7zM479 7h346l6 -7h-346zM757 334h-274q6 13 6 27v3h273q-1 -8 -2 -15t-3 -15zM316 334h-279v30h279v-30zM316 83h-279v43h279v-43zM316 20h-279v47h279v-47zM37 543
h659q8 -5 14.5 -10.5t11.5 -10.5h-685v21zM423 83l-30 40l-3 3h345l33 -43h-345zM816 20h-346l-35 47h345zM454 414h-138v-17h-279v27h724q1 -7 1.5 -13.5t0.5 -13.5h-284q-4 7 -10.5 12t-14.5 5zM37 483h709q6 -12 9 -24h-718v24zM316 305v-1h132q6 0 7 1h295
q-3 -9 -6 -17.5t-8 -16.5h-699v34h279zM37 245h678q-17 -15 -39 -15q-5 -5 -5 -13q0 -7 1 -8l1 -1h-636v37zM720 146h-352q-17 11 -34 11h-2q-6 -2 -11 -4t-5 -3v-4h-279v40h652z" />
    <glyph glyph-name="s" unicode="s" horiz-adv-x="914" 
d="M351 375h-25l-27 -52h8l7 -7h-20l-31 -56h8l4 -4h-15l-19 -36q-1 -1 -1 -2q-2 -2 -3 -6t-1 -15h-10q-11 -14 -22.5 -26t-19.5 -12h-158v-170h6l22 -22h345q23 0 47 9l-3 11h27q17 10 35.5 25.5t36.5 37.5q16 20 21 31l16 28l-4 4h6l31 56l-6 6h9l28 53l-10 10h17l26 50
l-13 13h21l11 19l4 8q2 4 5 11.5l3 7.5l-17 17h37q17 17 29 17h154v26l-19 19h19v40l-22 22v1h22v37l-22 22v6h-418q-2 -1 -1.5 -1.5t-1.5 -1.5q-8 -5 -12 -9q-3 -2 -11.5 -8.5t-15.5 -11.5q-3 -2 -8 -6.5l-5 -4.5h10l17 -17h-41q-8 -9 -14 -17t-11 -14q-2 -3 -5.5 -8
t-5.5 -7h8l13 -13h-27l-27 -49h8zM374 0h-337v7h378q-15 -7 -41 -7zM877 522h-431q7 5 14 10.5t14 10.5h403v-21zM333 364h337q-2 -5 -4 -8.5t-3 -6.5l-9 -15h-337zM877 424v-10h-146q-16 0 -33 -17h-347l15 27h511zM620 271h-338l19 34h337zM877 459h-491q4 5 8.5 11
t10.5 13h472v-24zM585 208h-338q1 2 2 3.5t2 3.5l16 30h338zM551 146h-514v2h147q11 0 23.5 12t23.5 26h342zM37 67h463q-21 -27 -57 -47h-406v47zM540 126l-9 -16q-8 -14 -18 -27h-476v43h503z" />
    <glyph glyph-name="FL0074h" unicode="t" horiz-adv-x="763" 
d="M32 403l22 -22h186l6 -6h-17v-52h6l7 -7h-13v-56h6l4 -4h-10v-267h6l22 -22h296v142l-4 4h4v56l-6 6h6v53l-10 10h10v50l-13 13h13v46l-17 17h17v17h206v26l-19 19h19v40l-22 22v1h22v37l-22 22v6h-711v-43h6l17 -17h-23v-46h6l13 -13h-19v-32h6zM520 7v-7h-280v7h280z
M520 334h-280v30h280v-30zM520 271h-280v34h280v-34zM520 208h-280v37h280v-37zM520 146h-280v40h280v-40zM240 397v17h-203v10h689v-10h-206v-17h-280zM520 83h-280v43h280v-43zM520 20h-280v47h280v-47zM726 522h-689v21h689v-21zM726 459h-689v24h689v-24z" />
    <glyph glyph-name="FL0075h" unicode="u" 
d="M350 158v11l-6 6h6v53l-10 10h10v50l-13 13h13v46l-17 17h17v43l-19 19h19v40l-22 22v1h22v37l-22 22v6h-302v-43h6l17 -17h-23v-46h6l13 -13h-19v-49h6l11 -11h-17v-52h6l7 -7h-13v-56h6l4 -4h-10v-133q0 -24 10 -45h-2q14 -23 29 -39t31 -27q8 -8 16.5 -14t16.5 -11h11
l11 -11q11 -5 21.5 -7t21.5 -2h466q20 0 44 9l-3 11h25q36 24 61 63h-1q5 13 8.5 25t3.5 23v11l-4 4h4v56l-6 6h6v53l-10 10h10v50l-13 13h13v46l-17 17h17v43l-19 19h19v40l-22 22v1h22v37l-22 22v6h-301v-43h6l17 -17h-23v-46h6l13 -13h-19v-49h6l11 -11h-17v-52h6l7 -7
h-13v-56h6l4 -4h-10v-84q-2 -5 -5.5 -9.5t-5.5 -4.5h-112zM633 0h-466q-23 0 -37 7h541q-15 -7 -38 -7zM763 522h-279v21h279v-21zM317 522h-280v21h280v-21zM763 459h-279v24h279v-24zM317 459h-280v24h280v-24zM763 397h-279v27h279v-27zM317 397h-280v27h280v-27z
M763 334h-279v30h279v-30zM317 334h-280v30h280v-30zM763 271h-279v34h279v-34zM317 271h-280v34h280v-34zM763 208h-279v37h279v-37zM317 208h-280v37h280v-37zM317 186v-16q3 -6 6.5 -14.5t14.5 -8.5h124q8 0 13.5 8t8.5 14v17h279v-40h-726v40h280zM697 20h-593
q-14 9 -27 21t-22 26h690q-17 -28 -48 -47zM754 83h-708q-9 19 -9 40v3h726v-3q0 -11 -2.5 -20.5t-6.5 -19.5z" />
    <glyph glyph-name="FL0076h" unicode="v" horiz-adv-x="938" 
d="M604 238h3l-37 50l-13 13h3l-34 46l-13 13l-3 4h4l-32 43l-11 11l-6 8h3l-30 40l-11 10l-9 13h4l-28 37l-11 11l-13 17h-354l33 -43h4l17 -17h-8l35 -46h4l13 -13h-7l38 -49h4l11 -11h-7l40 -52h4l7 -7h-6l43 -56h4l4 -4h-5l46 -59l47 -62l44 -57l20 -26h-1l15 -18
t26 -25h2l8 -8q4 -4 7.5 -7t8.5 -7h5l10 -10q20 -11 32 -11h420v143l-4 4h4v56l-6 6h6v53l-10 10h10v50l-13 13h13v46l-17 17h17v43l-19 19h19v40l-22 22v1h22v37l-22 22v6h-301v-43h6l17 -17h-23v-46h6l13 -13h-19v-49h6l11 -11h-17v-52h6l7 -7h-13v-56h6l4 -4h-10v-25z
M901 -1h-412q-11 0 -25 8h437v-8zM901 522h-279v21h279v-21zM901 459h-279v24h279v-24zM381 522h-327l-16 21h327zM901 397h-279v27h279v-27zM427 459h-325l-18 24h325zM901 334h-279v30h279v-30zM473 397h-323l-21 27h324zM901 271h-279v34h279v-34zM519 334h-321l-23 30
h322zM566 271h-320l-26 34h321zM610 218q3 2 7.5 4t4.5 3v20h279v-37h-606l-29 37h319l11 -15q4 -5 6.5 -8.5t7.5 -3.5zM413 54l-10 13h498v-47h-456q-11 9 -19.5 19t-12.5 15zM901 83h-510l-33 43h543v-43zM901 146h-559l-30 40h589v-40z" />
    <glyph glyph-name="FL0077h" unicode="w" horiz-adv-x="1123" 
d="M736 158v11l-6 6h6v53l-10 10h10v50l-13 13h13v46l-17 17h17v43l-19 19h19v40l-22 22v1h22v37l-22 22v6h-303v-43h6l17 -17h-23v-46h6l13 -13h-19v-49h6l11 -11h-17v-52h6l7 -7h-13v-56h6l4 -4h-10v-85q-2 -4 -5 -8.5t-5 -4.5h-51v11l-6 6h6v53l-10 10h10v50l-13 13h13
v46l-17 17h17v43l-19 19h19v40l-22 22v1h22v37l-22 22v6h-302v-43h6l17 -17h-23v-46h6l13 -13h-19v-49h6l11 -11h-17v-52h6l7 -7h-13v-56h6l4 -4h-10v-133q0 -24 10 -45h-2q14 -23 29 -39t31 -27q8 -8 16.5 -14t16.5 -11h11l11 -11q11 -5 21.5 -7t21.5 -2h789q20 0 44 9
l-3 11h25q36 24 61 63h-1q5 13 8.5 25t3.5 23v11l-4 4h4v56l-6 6h6v53l-10 10h10v50l-13 13h13v46l-17 17h17v43l-19 19h19v40l-22 22v1h22v37l-22 22v6h-301v-43h6l17 -17h-23v-46h6l13 -13h-19v-49h6l11 -11h-17v-52h6l7 -7h-13v-56h6l4 -4h-10v-83q-2 -5 -5.5 -10
t-5.5 -5h-49zM1086 522h-279v21h279v-21zM130 7h864q-15 -7 -38 -7h-789q-23 0 -37 7zM317 522h-280v21h280v-21zM703 522h-281v21h281v-21zM1086 459h-279v24h279v-24zM317 459h-280v24h280v-24zM703 459h-281v24h281v-24zM1086 397h-279v27h279v-27zM317 397h-280v27h280
v-27zM703 397h-281v27h281v-27zM1086 334h-279v30h279v-30zM317 334h-280v30h280v-30zM703 334h-281v30h281v-30zM1086 271h-279v34h279v-34zM317 271h-280v34h280v-34zM703 271h-281v34h281v-34zM1086 208h-279v37h279v-37zM317 208h-280v37h280v-37zM703 208h-281v37h281
v-37zM317 186v-16q3 -6 6.5 -14.5t14.5 -8.5h63q7 0 12 7t8 12l1 2v18h281v-16q2 -6 5.5 -14.5t14.5 -8.5h62q8 0 13.5 8.5t8.5 14.5v16h279v-40h-1049v40h280zM1086 126v-3q0 -11 -2.5 -20.5t-6.5 -19.5h-1031q-9 19 -9 40v3h1049zM55 67h1013q-17 -28 -48 -47h-916
q-14 9 -27 21t-22 26z" />
    <glyph glyph-name="x" unicode="x" horiz-adv-x="765" 
d="M332 554h-306v-43h6l17 -17h-23v-46h6l13 -13h-19v-33h6l22 -22h48q5 0 27 -2.5t43 -13.5l7 -7q3 -4 5.5 -7t4.5 -5q5 -5 9 -11t8 -11h4l7 -7h-4q8 -14 15 -24.5t14 -18.5q0 -1 1 -1v-12h6l4 -4h-19q-14 -23 -50 -59q-20 -17 -36 -27t-22 -10h-100v-171h6l22 -22h134
q18 0 35.5 1t34.5 7l-2 12h32q2 1 5 3.5t8 5.5q11 8 25 19.5t35 34.5l8 12l1 1q14 -14 27 -26t25 -20q21 -18 39 -30h9l10 -10q19 -10 41 -10h240v142l-4 4h4v18l-22 22v6h-55q-18 0 -39.5 10.5t-42.5 27.5h-1q-6 5 -10.5 10t-9.5 10q-2 3 -3.5 6t-3.5 5l-10 10h3
q-12 25 -14 50l-13 13h18q11 21 30 46l-17 17h35q16 16 24 16h131v27l-19 19h19v40l-22 22v1h22v37l-22 22v6h-268q-9 -5 -15 -10.5t-11 -10.5q-2 -1 -4.5 -2l-2.5 -1l4 -19h6l17 -17h-56q-2 -4 -4 -7t-4 -5l-1 -1l-6 8h5l-22 22h4q-12 12 -20 19t-16 13q-3 2 -6.5 5.5
t-6.5 5.5zM163 0h-126v7h191q-15 -5 -31.5 -6t-33.5 -1zM728 7v-7h-232q-21 0 -34 7h266zM728 522h-279q6 5 12 10.5t14 10.5h253v-21zM37 543h292q7 -5 13.5 -10.5t11.5 -10.5h-317v21zM530 271h-276q0 1 0.5 1.5t0.5 1.5q-5 7 -11 15t-11 16h288q2 -18 9 -34zM528 334
h-316q-6 8 -12 15t-13 15h361q-6 -8 -11 -15.5t-9 -14.5zM37 67h281q-12 -13 -24 -22.5t-23 -17.5q-4 -3 -6.5 -4.5t-4.5 -2.5h-223v47zM574 208h-363q10 10 17.5 19.5t12.5 17.5h303q7 -10 14.5 -19.5t15.5 -17.5zM578 397h-428q-11 6 -22.5 9t-22 4.5t-18 2t-10.5 0.5h-40
v11h691v-11h-123q-11 0 -27 -16zM728 20h-290q-30 20 -56 47h346v-47zM37 483h349q5 -6 8.5 -11t7.5 -9l3.5 5.5t9.5 14.5h313v-24h-691v24zM728 146h-691v3h89q8 0 25 10t37 27h410q21 -17 43.5 -27.5t42.5 -10.5h44v-2zM728 83h-361l-7 7t-5 7q-2 3 -3.5 5t-3.5 4
q-5 -7 -8.5 -12.5t-7.5 -10.5h-295v43h691v-43z" />
    <glyph glyph-name="FL0079h" unicode="y" horiz-adv-x="765" 
d="M324 554h-298v-43h6l17 -17h-23v-46h6l13 -13h-19v-33h6l22 -22h48q5 0 22.5 -2.5t39.5 -13.5h3q4 -4 8 -7.5t12 -11.5q12 -10 22 -22h3l1 -1h1l6 -6h-2q1 -3 4 -14t4 -13q1 -4 4 -8v-21h6l4 -4h-10v-267h6l22 -22h296v142l-4 4h4v56l-6 6h6v53l-10 10h10v50l-13 13h20
q5 8 14.5 18.5t26.5 27.5l-17 17h41q8 5 15 9t12 7h108v27l-19 19h19v40l-22 22v1h22v37l-22 22v6h-272l-3 -3q-10 -8 -20.5 -16.5t-25.5 -23.5h10l17 -17h-38l-5 -7.5l-5 -7.5q-7 7 -8 10h2l-4 3v2h-1l-17 17h4q-12 12 -20 19t-16 13q-3 2 -6.5 5.5t-6.5 5.5zM521 7v-7
h-280v7h280zM728 522h-283q5 5 11.5 10.5t13.5 10.5h258v-21zM37 543h284q7 -5 13.5 -10.5t11.5 -10.5h-309v21zM241 271v13q-2 5 -4 10.5t-4 10.5h288v-3v-31h-280zM532 334h-319q-7 8 -14.5 15t-15.5 15h374q-8 -8 -14 -15t-11 -15zM521 208h-280v37h280v-37zM521 146
h-280v40h280v-40zM521 83h-280v43h280v-43zM521 20h-280v47h280v-47zM728 424v-11h-102q-8 -4 -27 -16h-458q-22 11 -40.5 13.5t-23.5 2.5h-40v11h691zM398 460q1 0 4.5 6.5t10.5 16.5h315v-24h-691v24h342q5 -7 9.5 -12.5t9.5 -10.5z" />
    <glyph glyph-name="FL007Dh" unicode="z" horiz-adv-x="913" 
d="M445 554h-419v-43h6l17 -17h-23v-46h6l13 -13h-19v-32h6l22 -22h153q7 0 15 -6h-1q7 -12 11.5 -19.5t9.5 -12.5l10 -20h5l7 -7h-8l31 -56h5l4 -4h-7l33 -59l33 -60l1 -2l17 -29q2 -6 8 -14.5t14 -19.5h1q14 -16 26.5 -29t26.5 -22q22 -22 46 -34h14l11 -11q24 -9 46 -9
h343v142l-4 4h4v18l-22 22v6h-157q-12 0 -25 16h3q-12 15 -13 20l-19 33l-10 10h5l-28 50l-13 13h5l-24 46l-17 17h7l-24 43l-17 17l-1 2h9q-11 17 -27 34q-6 8 -12 14.5t-13 14.5h6l-24 23l1 4q-4 1 -10 6q-13 8 -19.5 12.5t-10.5 7.5q-8 6 -14 12zM876 7v-7h-335
q-25 0 -40 7h375zM37 543h403q7 -5 14 -10.5t14 -10.5h-431v21zM259 334l-8 15q-2 3 -4.5 6.5t-5.5 8.5h340l16 -30h-338zM182 414h-145v10h510l15 -27h-348q-17 17 -32 17zM632 271h-338l-19 34h338zM37 483h470q6 -7 11 -13t9 -11h-490v24zM646 245l15 -26q2 -5 6 -11
h-338l-21 37h338zM730 148h146v-2h-513l-22 40h341q11 -14 23 -26t25 -12zM876 20h-404q-31 16 -58 47h462v-47zM383 110l-9 16h502v-43h-476q-7 8 -11 15t-6 12z" />
    <glyph glyph-name="FL0060h" unicode="{" horiz-adv-x="1501" 
d="M351 375h-25l-27 -52h8l7 -7h-20l-31 -56h8l4 -4h-15l-19 -36q-1 -1 -1 -2q-2 -2 -3 -6t-1 -15h-10q-11 -14 -22.5 -26t-19.5 -12h-158v-170h6l22 -22h345q23 0 47 9l-3 11h27q17 10 35.5 25.5t36.5 37.5q16 20 21 31l16 28l-4 4h6l31 56l-6 6h9l28 53l-10 10h17l26 50
l-13 13h21l11 19l4 8q2 4 5 11.5l3 7.5l-17 17h37q17 17 29 17h154v26l-19 19h19v40l-22 22v1h22v37l-22 22v6h-418q-2 -1 -1.5 -1.5t-1.5 -1.5q-8 -5 -12 -9q-3 -2 -11.5 -8.5t-15.5 -11.5q-3 -2 -8 -6.5l-5 -4.5h10l17 -17h-41q-8 -9 -14 -17t-11 -14q-2 -3 -5.5 -8
t-5.5 -7h8l13 -13h-27l-27 -49h8zM938 375h-25l-27 -52h8l7 -7h-20l-31 -56h8l4 -4h-15l-19 -36q-1 -1 -1 -2q-2 -2 -3 -6t-1 -15h-10q-11 -14 -22.5 -26t-19.5 -12h-158v-170h6l22 -22h345q23 0 47 9l-3 11h27q17 10 35.5 25.5t36.5 37.5q16 20 21 31l16 28l-4 4h6l31 56
l-6 6h9l28 53l-10 10h17l26 50l-13 13h21l11 19l4 8q2 4 5 11.5l3 7.5l-17 17h37q17 17 29 17h154v26l-19 19h19v40l-22 22v1h22v37l-22 22v6h-418q-2 -1 -1.5 -1.5t-1.5 -1.5q-8 -5 -12 -9q-3 -2 -11.5 -8.5t-15.5 -11.5q-3 -2 -8 -6.5l-5 -4.5h10l17 -17h-41
q-8 -9 -14 -17t-11 -14q-2 -3 -5.5 -8t-5.5 -7h8l13 -13h-27l-27 -49h8zM961 0h-337v7h378q-15 -7 -41 -7zM374 0h-337v7h378q-15 -7 -41 -7zM877 522h-431q7 5 14 10.5t14 10.5h403v-21zM1464 522h-431q7 5 14 10.5t14 10.5h403v-21zM920 364h337q-2 -5 -4 -8.5t-3 -6.5
l-9 -15h-337zM333 364h337q-2 -5 -4 -8.5t-3 -6.5l-9 -15h-337zM1464 424v-10h-146q-16 0 -33 -17h-347l15 27h511zM877 424v-10h-146q-16 0 -33 -17h-347l15 27h511zM1207 271h-338l19 34h337zM620 271h-338l19 34h337zM1464 459h-491q4 5 8.5 11t10.5 13h472v-24zM877 459
h-491q4 5 8.5 11t10.5 13h472v-24zM585 208h-338q1 2 2 3.5t2 3.5l16 30h338zM1172 208h-338q1 2 2 3.5t2 3.5l16 30h338zM551 146h-514v2h147q11 0 23.5 12t23.5 26h342zM1138 146h-514v2h147q11 0 23.5 12t23.5 26h342zM624 67h463q-21 -27 -57 -47h-406v47zM37 67h463
q-21 -27 -57 -47h-406v47zM1127 126l-9 -16q-8 -14 -18 -27h-476v43h503zM540 126l-9 -16q-8 -14 -18 -27h-476v43h503z" />
    <glyph glyph-name="FL007Eh" unicode="|" horiz-adv-x="354" 
d="M32 699l22 -22h296v27l-22 22v6h-302v-33h6zM32 637l22 -22h296v30l-22 22v6h-302v-36h6zM32 -179l22 -22h296v310l-4 4h4v56l-6 6h6v53l-10 10h10v50l-13 13h13v46l-17 17h17v43l-19 19h19v40l-22 22v1h22v37l-22 22v4h22v33l-22 22v6h-302v-39h6l20 -20h-26v-43h6
l17 -17h-23v-46h6l13 -13h-19v-49h6l11 -11h-17v-52h6l7 -7h-13v-56h6l4 -4h-10v-435h6zM317 710h-280v11h280v-11zM317 648h-280v14h280v-14zM317 585h-280v17h280v-17zM317 522h-280v21h280v-21zM317 459h-280v24h280v-24zM317 397h-280v27h280v-27zM317 334h-280v30h280
v-30zM317 271h-280v34h280v-34zM317 208h-280v37h280v-37zM317 146h-280v40h280v-40zM317 83h-280v43h280v-43zM317 20h-280v47h280v-47zM317 -42h-280v49h280v-49zM317 -105h-280v53h280v-53zM317 -168h-280v56h280v-56z" />
    <glyph glyph-name="FL0083h" unicode="}" horiz-adv-x="1551" 
d="M1224 294l-7 7h7v-7zM351 375h-25l-27 -52h8l7 -7h-20l-31 -56h8l4 -4h-15l-19 -36q-1 -1 -1 -2q-2 -2 -3 -6t-1 -15h-10q-11 -14 -22.5 -26t-19.5 -12h-158v-170h6l22 -22h345q23 0 47 9l-3 11h27q17 10 35.5 25.5t36.5 37.5q16 20 21 31l16 28l-4 4h6l31 56l-6 6h9
l28 53l-10 10h17l26 50l-13 13h21l11 19l4 8q2 4 5 11.5l3 7.5l-17 17h37q17 17 29 17h154v26l-19 19h19v40l-22 22v1h22v37l-22 22v6h-418q-2 -1 -1.5 -1.5t-1.5 -1.5q-8 -5 -12 -9q-3 -2 -11.5 -8.5t-15.5 -11.5q-3 -2 -8 -6.5l-5 -4.5h10l17 -17h-41q-8 -9 -14 -17
t-11 -14q-2 -3 -5.5 -8t-5.5 -7h8l13 -13h-27l-27 -49h8zM624 -11l22 -22h349l16 23l-1 1l45 59l42 59l-4 4h8l42 56l-6 6h10l38 53l-10 10h18l31 42v-20h6l4 -4h-10v-266h6l22 -22h295v141l-4 4h4v56l-6 6h6v53l-10 10h10v50l-13 13h13v46l-17 17h17v43l-19 19h19v40
l-22 22v1h22v37l-22 22v6h-468q-10 -7 -20.5 -18t-21.5 -25h9l17 -17h-39l-35 -46h9l13 -13h-32l-37 -49h9l11 -11h-29l-40 -52h9l7 -7h-21l-43 -56h9l4 -4h-16l-45 -59l-48 -62l-44 -57l-46 -60h-1l-20 -29h8zM1514 7v-6h-279v6h279zM965 0h-328l5 7h328zM374 0h-337v7h378
q-15 -7 -41 -7zM877 522h-431q7 5 14 10.5t14 10.5h403v-21zM1514 271h-279v34h279v-34zM1514 522h-476q5 6 23 21h453v-21zM333 364h337q-2 -5 -4 -8.5t-3 -6.5l-9 -15h-337zM1514 208h-279v37h279v-37zM1164 271h-319l26 34h318zM877 424v-10h-146q-16 0 -33 -17h-347
l15 27h511zM1514 146h-279v40h279v-40zM620 271h-338l19 34h337zM877 459h-491q4 5 8.5 11t10.5 13h472v-24zM1118 208h-321l28 37h320zM1514 83h-279v43h279v-43zM1514 459h-525l18 24h507v-24zM585 208h-338q1 2 2 3.5t2 3.5l16 30h338zM1072 146h-323l31 40h322zM1514 20
h-279v47h279v-47zM1026 83h-325l33 43h323zM551 146h-514v2h147q11 0 23.5 12t23.5 26h342zM1514 397h-572l20 27h552v-27zM979 20h-327l36 47h326zM1514 334h-279v2q0 1 -4.5 3t-7.5 4q-5 0 -7 -2t-5 -7h-318l23 30h598v-30zM37 67h463q-21 -27 -57 -47h-406v47zM540 126
l-9 -16q-8 -14 -18 -27h-476v43h503z" />
    <glyph glyph-name="FL0082h" unicode="~" horiz-adv-x="1480" 
d="M32 403l22 -22h186l6 -6h-17v-52h6l7 -7h-13v-56h6l4 -4h-10v-267h6l22 -22h296v142l-4 4h4v56l-6 6h6v53l-10 10h10v50l-13 13h13v46l-17 17h17v17h206v26l-19 19h19v40l-22 22v1h22v37l-22 22v6h-711v-43h6l17 -17h-23v-46h6l13 -13h-19v-32h6zM917 375h-25l-27 -52h8
l7 -7h-20l-31 -56h8l4 -4h-15l-19 -36q-1 -1 -1 -2q-2 -2 -3 -6t-1 -15h-10q-11 -14 -22.5 -26t-19.5 -12h-158v-170h6l22 -22h345q23 0 47 9l-3 11h27q17 10 35.5 25.5t36.5 37.5q16 20 21 31l16 28l-4 4h6l31 56l-6 6h9l28 53l-10 10h17l26 50l-13 13h21l11 19l4 8
q2 4 5 11.5l3 7.5l-17 17h37q17 17 29 17h154v26l-19 19h19v40l-22 22v1h22v37l-22 22v6h-418q-2 -1 -1.5 -1.5t-1.5 -1.5q-8 -5 -12 -9q-3 -2 -11.5 -8.5t-15.5 -11.5q-3 -2 -8 -6.5l-5 -4.5h10l17 -17h-41q-8 -9 -14 -17t-11 -14q-2 -3 -5.5 -8t-5.5 -7h8l13 -13h-27
l-27 -49h8zM520 7v-7h-280v7h280zM940 0h-337v7h378q-15 -7 -41 -7zM520 334h-280v30h280v-30zM1443 522h-431q7 5 14 10.5t14 10.5h403v-21zM520 271h-280v34h280v-34zM899 364h337q-2 -5 -4 -8.5t-3 -6.5l-9 -15h-337zM520 208h-280v37h280v-37zM1443 424v-10h-146
q-16 0 -33 -17h-347l15 27h511zM520 146h-280v40h280v-40zM1186 271h-338l19 34h337zM1443 459h-491q4 5 8.5 11t10.5 13h472v-24zM726 424v-10h-206v-17h-280v17h-203v10h689zM520 83h-280v43h280v-43zM1151 208h-338q1 2 2 3.5t2 3.5l16 30h338zM520 20h-280v47h280v-47z
M1117 146h-514v2h147q11 0 23.5 12t23.5 26h342zM726 522h-689v21h689v-21zM726 459h-689v24h689v-24zM603 67h463q-21 -27 -57 -47h-406v47zM1106 126l-9 -16q-8 -14 -18 -27h-476v43h503z" />
    <glyph glyph-name="FL007Fh" horiz-adv-x="236" 
 />
    <glyph glyph-name="FL20ACh" horiz-adv-x="821" 
d="M26 370v-47h6l7 -7h-13v-32h6l22 -22h90v-2h6l4 -4h-128v-59h6l22 -22h90v-52q0 -24 10 -45h-3q14 -23 29 -39t31 -27q8 -8 16.5 -14t16.5 -11h11l11 -11q24 -9 44 -9h501v142l-4 4h4v17l-22 22v6h-321v11l-6 6h187v53l-22 22v6h-159v6h181v26l-13 13h13v41l-22 22v6
h-158q5 11 12 11h336v26l-19 19h19v40l-22 22v1h22v37l-22 22v6h-570q-8 -5 -20.5 -15t-32.5 -28h11l17 -17h-35q-5 -11 -9.5 -22.5t-9.5 -23.5h8l13 -13h-23v-49h6l11 -11h-17v-5h-118zM778 7v-7h-493q-23 0 -38 7h531zM437 397h-282v21v6h629v-10h-328q-7 0 -11.5 -5
t-7.5 -12zM435 186v-16q1 -10 7 -16.5t14 -6.5h322v-1h-623v40h280zM784 522h-583q18 15 28 21h555v-21zM616 305v-10h-181v-24h-280v24h-118v10h579zM784 459h-622q2 6 4.5 12t5.5 12h612v-24zM37 334v25h118v5h280v-5h181v-25h-579zM616 208h-579v37h579v-37zM778 83h-614
q-9 19 -9 40v3h623v-43zM778 20h-557q-14 9 -27 21t-22 26h606v-47z" />
    <glyph glyph-name="FL20ACh" unicode="&#x20ac;" horiz-adv-x="821" 
d="M26 370v-47h6l7 -7h-13v-32h6l22 -22h90v-2h6l4 -4h-128v-59h6l22 -22h90v-52q0 -24 10 -45h-3q14 -23 29 -39t31 -27q8 -8 16.5 -14t16.5 -11h11l11 -11q24 -9 44 -9h501v142l-4 4h4v17l-22 22v6h-321v11l-6 6h187v53l-22 22v6h-159v6h181v26l-13 13h13v41l-22 22v6
h-158q5 11 12 11h336v26l-19 19h19v40l-22 22v1h22v37l-22 22v6h-570q-8 -5 -20.5 -15t-32.5 -28h11l17 -17h-35q-5 -11 -9.5 -22.5t-9.5 -23.5h8l13 -13h-23v-49h6l11 -11h-17v-5h-118zM778 7v-7h-493q-23 0 -38 7h531zM437 397h-282v21v6h629v-10h-328q-7 0 -11.5 -5
t-7.5 -12zM435 186v-16q1 -10 7 -16.5t14 -6.5h322v-1h-623v40h280zM784 522h-583q18 15 28 21h555v-21zM616 305v-10h-181v-24h-280v24h-118v10h579zM784 459h-622q2 6 4.5 12t5.5 12h612v-24zM37 334v25h118v5h280v-5h181v-25h-579zM616 208h-579v37h579v-37zM778 83h-614
q-9 19 -9 40v3h623v-43zM778 20h-557q-14 9 -27 21t-22 26h606v-47z" />
    <glyph glyph-name="FL017Fh" horiz-adv-x="1501" 
d="M1030 554h-417v-43h6l17 -17h-23v-46h6l13 -13h-19v-32h6l22 -22h154q8 0 19 -9q8 -22 15 -29l10 -20h5l7 -7h-8l31 -56h5l4 -4h-7l33 -59l33 -60l1 -2l17 -29q2 -5 6.5 -12t10.5 -16q0 -1 2 -3l3 -3q15 -17 28 -29t24 -21q12 -11 24 -19.5t24 -15.5h13l11 -11
q24 -9 46 -9h345v142l-4 4h4v18l-22 22v6h-158q-12 0 -25 16h7l-16 16v1l-3 5h1l-2 2l-16 29l-10 10h5l-28 50l-13 13h6l-26 46l-17 17h8l-24 43l-17 17l-1 2h9q-6 8 -13.5 17.5t-18.5 22.5l-10 9q-3 5 -6.5 9.5t-7.5 9.5h-1l-17 17h6q-5 4 -13.5 10t-13.5 10
q-11 9 -18.5 15t-11.5 8zM443 554h-417v-43h6l17 -17h-23v-46h6l13 -13h-19v-32h6l22 -22h154q8 0 19 -9q8 -22 15 -29l10 -20h5l7 -7h-8l31 -56h5l4 -4h-7l33 -59l34 -62l17 -30q4 -9 17 -27q0 -1 2 -3l3 -3q15 -17 28 -29t24 -21q12 -11 24 -19.5t24 -15.5h13l11 -11
q24 -9 46 -9h345v142l-4 4h4v18l-22 22v6h-158q-12 0 -25 16h7l-16 16v1l-3 5h1l-2 2l-16 29l-10 10h5l-28 50l-13 13h6l-26 46l-17 17h8l-24 43l-17 17l-1 2h9q-6 8 -13.5 17.5t-18.5 22.5l-10 9q-3 5 -6.5 9.5t-7.5 9.5h-1l-17 17h6q-5 4 -13.5 10t-13.5 10
q-11 9 -18.5 15t-11.5 8zM877 7v-7h-337q-25 0 -40 7h377zM1464 7v-7h-337q-25 0 -40 7h377zM624 543h402q8 -5 15 -10.5t14 -10.5h-431v21zM37 543h402q8 -5 15 -10.5t14 -10.5h-431v21zM846 334l-8 15q-3 3 -8 15h337l17 -30h-338zM259 334l-8 15q-3 3 -8 15h337l17 -30
h-338zM183 414h-146v10h510l15 -27h-347q-17 17 -32 17zM770 414h-146v10h510l15 -27h-347q-17 17 -32 17zM1219 271h-338l-19 34h338zM632 271h-338l-19 34h338zM37 483h471q6 -7 10.5 -13t8.5 -11h-490v24zM624 483h471q6 -7 10.5 -13t8.5 -11h-490v24zM1233 245l17 -30
q1 -2 1.5 -3.5t2.5 -3.5h-338l-21 37h338zM646 245l17 -30q1 -2 1.5 -3.5t2.5 -3.5h-338l-21 37h338zM1317 148h147v-2h-514l-22 40h341q11 -14 24 -26t24 -12zM730 148h147v-2h-514l-22 40h341q11 -14 24 -26t24 -12zM877 20h-405q-33 18 -58 47h463v-47zM1464 20h-405
q-33 18 -58 47h463v-47zM383 110l-9 16h503v-43h-477q-7 8 -11 15t-6 12zM970 110l-9 16h503v-43h-477q-7 8 -11 15t-6 12z" />
    <glyph glyph-name="FL017Fh" unicode="&#x17d;" horiz-adv-x="1501" 
d="M1030 554h-417v-43h6l17 -17h-23v-46h6l13 -13h-19v-32h6l22 -22h154q8 0 19 -9q8 -22 15 -29l10 -20h5l7 -7h-8l31 -56h5l4 -4h-7l33 -59l33 -60l1 -2l17 -29q2 -5 6.5 -12t10.5 -16q0 -1 2 -3l3 -3q15 -17 28 -29t24 -21q12 -11 24 -19.5t24 -15.5h13l11 -11
q24 -9 46 -9h345v142l-4 4h4v18l-22 22v6h-158q-12 0 -25 16h7l-16 16v1l-3 5h1l-2 2l-16 29l-10 10h5l-28 50l-13 13h6l-26 46l-17 17h8l-24 43l-17 17l-1 2h9q-6 8 -13.5 17.5t-18.5 22.5l-10 9q-3 5 -6.5 9.5t-7.5 9.5h-1l-17 17h6q-5 4 -13.5 10t-13.5 10
q-11 9 -18.5 15t-11.5 8zM443 554h-417v-43h6l17 -17h-23v-46h6l13 -13h-19v-32h6l22 -22h154q8 0 19 -9q8 -22 15 -29l10 -20h5l7 -7h-8l31 -56h5l4 -4h-7l33 -59l34 -62l17 -30q4 -9 17 -27q0 -1 2 -3l3 -3q15 -17 28 -29t24 -21q12 -11 24 -19.5t24 -15.5h13l11 -11
q24 -9 46 -9h345v142l-4 4h4v18l-22 22v6h-158q-12 0 -25 16h7l-16 16v1l-3 5h1l-2 2l-16 29l-10 10h5l-28 50l-13 13h6l-26 46l-17 17h8l-24 43l-17 17l-1 2h9q-6 8 -13.5 17.5t-18.5 22.5l-10 9q-3 5 -6.5 9.5t-7.5 9.5h-1l-17 17h6q-5 4 -13.5 10t-13.5 10
q-11 9 -18.5 15t-11.5 8zM877 7v-7h-337q-25 0 -40 7h377zM1464 7v-7h-337q-25 0 -40 7h377zM624 543h402q8 -5 15 -10.5t14 -10.5h-431v21zM37 543h402q8 -5 15 -10.5t14 -10.5h-431v21zM846 334l-8 15q-3 3 -8 15h337l17 -30h-338zM259 334l-8 15q-3 3 -8 15h337l17 -30
h-338zM183 414h-146v10h510l15 -27h-347q-17 17 -32 17zM770 414h-146v10h510l15 -27h-347q-17 17 -32 17zM1219 271h-338l-19 34h338zM632 271h-338l-19 34h338zM37 483h471q6 -7 10.5 -13t8.5 -11h-490v24zM624 483h471q6 -7 10.5 -13t8.5 -11h-490v24zM1233 245l17 -30
q1 -2 1.5 -3.5t2.5 -3.5h-338l-21 37h338zM646 245l17 -30q1 -2 1.5 -3.5t2.5 -3.5h-338l-21 37h338zM1317 148h147v-2h-514l-22 40h341q11 -14 24 -26t24 -12zM730 148h147v-2h-514l-22 40h341q11 -14 24 -26t24 -12zM877 20h-405q-33 18 -58 47h463v-47zM1464 20h-405
q-33 18 -58 47h463v-47zM383 110l-9 16h503v-43h-477q-7 8 -11 15t-6 12zM970 110l-9 16h503v-43h-477q-7 8 -11 15t-6 12z" />
    <glyph glyph-name="FL017Eh" horiz-adv-x="914" 
d="M253 762l22 -22h187l-16 24l-16 16l-8 12h-196l23 -30h4zM474 762l22 -22h188l18 24l-23 23l4 5h-195l-23 -30h9zM349 637l22 -22h218l23 30l-23 23l4 5h-276l28 -36h4zM302 699l22 -22h312l22 27l-23 23l4 5h-368l27 -33h4zM446 554h-420v-43h6l17 -17h-23v-46h6l13 -13
h-19v-32h6l22 -22h154q8 0 19 -9q8 -22 15 -29l10 -20h5l7 -7h-8l31 -56h5l4 -4h-7l33 -59l34 -62l17 -29q2 -5 6.5 -12t10.5 -16q0 -1 2 -3l3 -3q15 -17 28 -29t24 -21q12 -11 24 -19.5t24 -15.5h13l11 -11q24 -9 46 -9h345v142l-4 4h4v18l-22 22v6h-158q-12 0 -25 16h7
l-16 16v1l-3 5h1l-2 2l-16 29l-10 10h5l-28 50l-13 13h6l-26 46l-17 17h8l-24 43l-17 17l-1 2h10q-6 8 -13.5 17.5t-18.5 22.5l-10 9q-2 3 -4.5 6.5t-5.5 7.5h2l-22 22h4q-3 2 -7.5 6.5t-7.5 6.5q-5 3 -10.5 7.5t-8.5 6.5q-5 4 -10.5 8t-10.5 8zM655 773h-168l6 8h168z
M422 773h-168l-6 8h169zM877 7v-7h-337q-25 0 -40 7h377zM560 648h-210l-11 14h232zM607 710h-304l-9 11h322zM37 543h404q8 -5 14.5 -10t14.5 -11h-433v21zM259 334l-8 15q-3 3 -8 15h337l17 -30h-338zM183 414h-146v10h510l15 -27h-347q-17 17 -32 17zM632 271h-338
l-19 34h338zM37 483h472q6 -7 10.5 -13t8.5 -11h-491v24zM646 245l17 -30q1 -2 1.5 -3.5t2.5 -3.5h-338l-21 37h338zM730 148h147v-2h-514l-22 40h341q11 -14 24 -26t24 -12zM877 20h-405q-33 18 -58 47h463v-47zM383 110l-9 16h503v-43h-477q-7 8 -11 15t-6 12z" />
    <glyph glyph-name="FL017Eh" unicode="&#x17e;" horiz-adv-x="914" 
d="M253 762l22 -22h187l-16 24l-16 16l-8 12h-196l23 -30h4zM474 762l22 -22h188l18 24l-23 23l4 5h-195l-23 -30h9zM349 637l22 -22h218l23 30l-23 23l4 5h-276l28 -36h4zM302 699l22 -22h312l22 27l-23 23l4 5h-368l27 -33h4zM446 554h-420v-43h6l17 -17h-23v-46h6l13 -13
h-19v-32h6l22 -22h154q8 0 19 -9q8 -22 15 -29l10 -20h5l7 -7h-8l31 -56h5l4 -4h-7l33 -59l34 -62l17 -29q2 -5 6.5 -12t10.5 -16q0 -1 2 -3l3 -3q15 -17 28 -29t24 -21q12 -11 24 -19.5t24 -15.5h13l11 -11q24 -9 46 -9h345v142l-4 4h4v18l-22 22v6h-158q-12 0 -25 16h7
l-16 16v1l-3 5h1l-2 2l-16 29l-10 10h5l-28 50l-13 13h6l-26 46l-17 17h8l-24 43l-17 17l-1 2h10q-6 8 -13.5 17.5t-18.5 22.5l-10 9q-2 3 -4.5 6.5t-5.5 7.5h2l-22 22h4q-3 2 -7.5 6.5t-7.5 6.5q-5 3 -10.5 7.5t-8.5 6.5q-5 4 -10.5 8t-10.5 8zM655 773h-168l6 8h168z
M422 773h-168l-6 8h169zM877 7v-7h-337q-25 0 -40 7h377zM560 648h-210l-11 14h232zM607 710h-304l-9 11h322zM37 543h404q8 -5 14.5 -10t14.5 -11h-433v21zM259 334l-8 15q-3 3 -8 15h337l17 -30h-338zM183 414h-146v10h510l15 -27h-347q-17 17 -32 17zM632 271h-338
l-19 34h338zM37 483h472q6 -7 10.5 -13t8.5 -11h-491v24zM646 245l17 -30q1 -2 1.5 -3.5t2.5 -3.5h-338l-21 37h338zM730 148h147v-2h-514l-22 40h341q11 -14 24 -26t24 -12zM877 20h-405q-33 18 -58 47h463v-47zM383 110l-9 16h503v-43h-477q-7 8 -11 15t-6 12z" />
    <glyph glyph-name="FL00A1h" unicode="&#xa1;" horiz-adv-x="354" 
d="M296 511h4q-14 14 -26.5 25.5t-22.5 17.5h-148q-9 -5 -21.5 -16.5t-27.5 -26.5h10l17 -17h-28q-3 -9 -3.5 -14.5t-0.5 -10.5t0.5 -9t4.5 -12h5l13 -13h-19q27 -37 46 -49h1l7 -7q10 -10 19 -15h152q10 5 20.5 16t22.5 27l-19 19h25v12q0 2 0.5 3t0.5 3q0 5 -0.5 8t-1.5 6
v8l-22 22v1h14zM32 -11l22 -22h296v142l-4 4h4v56l-6 6h6v53l-10 10h5l-11 50l-21 20l-1 8h-268l-16 -56h7l4 -4h-13v-267h6zM317 7v-7h-280v7h280zM273 522h-192q5 5 11.5 10.5t14.5 10.5h140q8 -5 14.5 -10.5t11.5 -10.5zM74 424h206q-13 -19 -29 -27h-148q-17 11 -29 27z
M295 469q0 -3 -0.5 -5.5t-0.5 -4.5h-233q-1 1 -1 10q0 12 1 14h232q1 -4 1.5 -7t0.5 -7zM310 271h-267l9 34h250zM317 208h-280v37h280v-37zM317 146h-280v40h280v-40zM317 83h-280v43h280v-43zM317 20h-280v47h280v-47z" />
    <glyph glyph-name="FL00A2h" unicode="&#xa2;" horiz-adv-x="782" 
d="M26 398v-12h6l11 -11h-17v-52h6l7 -7h-13v-56h6l4 -4h-10v-86q0 -18 4 -33h-1q7 -16 14.5 -30.5t18.5 -28.5h-4q15 -15 30 -27l2 -1q26 -25 53.5 -39.5t56.5 -14.5h122v-67h6l22 -22h240v89h188v113l-4 4h4v46l-22 22v6h-405v41l-10 10h10v50l-13 13h13v46l-17 17h443v43
l-19 19h19v40l-22 22v1h22v29l-22 22v6h-187l-2 2v4h22v33l-22 22v6h-246v-39h6l20 -20h-26v-8h-146q-16 0 -32.5 -3.5t-33.5 -12.5l4 -19h6l17 -17h-70l-16 -22t-14 -24h8l13 -13h-26q-4 -15 -4 -37zM557 -52v-8h-224v8h224zM555 585h-224v17h224v-17zM318 334h-281v30h281
v-30zM318 271h-281v34h281v-34zM555 535h189v-13h-626q26 13 56 13h157v8h224v-8zM318 208h-281v37h281v-37zM557 -42h-224v49h224v-49zM744 459h-691q8 15 16 24h675v-24zM37 397v1q0 12 3 26h704v-27h-707zM339 176h406v-30h-705q-3 12 -3 24v16h290q4 -10 12 -10zM333 29
h-158q-26 0 -48.5 10.5t-40.5 27.5h659v-38h-188v-9h-224v9zM745 83h-674q-8 10 -14 21t-11 22h699v-43z" />
    <glyph glyph-name="FL00A3h" unicode="&#xa3;" horiz-adv-x="731" 
d="M26 362v-39h6l7 -7h-13v-56h6l4 -4h-10v-59h6l22 -22h72v-17h-100v-169h6l22 -22h673v142l-4 4h4v17l-22 22v6h-259h-2v11l-6 6h15q9 3 19 3h147v50l-10 10h10v50l-13 13h13v32l-22 22v6h-149q-10 0 -17 3h14q8 17 27 17h69v26l-19 19h19v40l-22 22v1h22v37l-22 22v6
h-302q-8 -5 -20.5 -15t-32.5 -28h11l17 -17h-36q-5 -8 -9 -18t-11 -28h8l13 -13h-26q-2 -10 -3 -22.5t-1 -26.5h6l11 -11h-21q1 -4 2 -7l2 -6h-101zM694 7v-7h-657v7h657zM508 522h-315q18 15 28 21h287v-21zM508 459h-356q2 6 5 12l6 12h345v-24zM415 397h-277q0 12 3 27
h367v-10h-61q-24 0 -32 -17zM137 186h274v-5q0 -14 8 -24t27 -10h248v-1h-657v1h101q-1 1 -1 11v12v16zM37 334v17h105q-1 10 -3 13h275q5 -14 34 -14h138v-16h-549zM586 271h-549v34h549v-34zM586 245v-34h-139q-13 0 -22 -3h-388v37h549zM694 83h-657v43h657v-43zM694 20
h-657v47h657v-47z" />
    <glyph glyph-name="FL00BDh" unicode="&#xa4;" horiz-adv-x="841" 
d="M366 218v10l-10 10h10v50l-13 13h13q4 22 24 33l-3 13l-17 17h107l-1 -7q21 -10 25 -34h6l7 -7h-12v-56h6l4 -4h-10v-13q0 -8 -8 -15t-19 -12l4 -19h-95l-14 14l1 5q-3 0 -5 2zM71 494h-6l39 -46h4l13 -13h-7l40 -49h4l11 -11h-6l44 -52h4l7 -7h-6l29 -35l-20 -21h10
l4 -4h-14l-50 -59l-50 -60l-48 -59l-5 -6l-52 -63l-17 -20h9l22 -22h348l17 20h1l44 53l26 -31h1l17 -20h4l22 -22h348l-18 20h1l-52 63l-50 59l-4 4h1l-46 56l-6 6h1l-43 53l-6 6l-18 21l27 33l-13 13h23l39 46l-17 17h30l37 43l-19 19h34l34 40l-23 23h42l30 37l-23 23
l4 5h-356l-35 -43h9l17 -17h-38l-25 32l-7 6l-17 22h-356l35 -43h4zM350 0h-328l6 7h328zM816 0h-328l-6 7h328zM591 271h-78v34h90l-20 -24zM246 271l9 10l-20 24h98v-34h-87zM627 334h-116q-5 19 -24 30h165zM186 364h172q-20 -11 -24 -30h-123zM643 208h-158
q11 5 19.5 14.5t8.5 20.5v2h100zM333 245v-2q0 -11 8.5 -20.5t19.5 -14.5h-167l31 37h108zM783 522h-328l17 21h328zM383 522h-328l-17 21h328zM679 397h-520l-22 27h565zM799 20h-328l-39 47h328zM367 20h-328l39 47h328zM88 483h327l4 -4l3 4h329l-20 -24h-623zM694 146
h-551l33 40h485zM747 83h-656l35 43h585z" />
    <glyph glyph-name="FL00A5h" unicode="&#xa5;" horiz-adv-x="765" 
d="M324 554h-298v-43h6l17 -17h-23v-46h6l13 -13h-19v-33h6l22 -22h48q5 0 22.5 -2.5t39.5 -13.5h3q4 -4 8 -7.5t12 -11.5q12 -10 22 -22h3l1 -1h1l6 -6h-3q0 -8 3 -14v-2h-141v-40h6l4 -4h-10v-42h6l22 -22h123v-23h-151v-86h6l22 -22h123v-72h6l22 -22h296v94h148v48l-4 4
h4v28l-22 22v6h-126l-6 6h6v17h148v36l-10 10h10v34l-22 22v6h-138l-1 1h20q5 8 14.5 18.5t26.5 27.5l-17 17h41q8 5 15 9t12 7h108v27l-19 19h19v40l-22 22v1h22v37l-22 22v6h-272l-3 -3q-10 -8 -20.5 -16.5t-25.5 -23.5h10l17 -17h-38l-5 -7.5l-5 -7.5q-7 7 -8 10h2l-4 3
v2h-1l-17 17h4q-12 12 -20 19t-16 13q-3 2 -6.5 5.5t-6.5 5.5zM521 7v-7h-280v7h280zM728 522h-283q5 5 11.5 10.5t13.5 10.5h258v-21zM37 543h284q7 -5 13.5 -10.5t11.5 -10.5h-309v21zM532 334h-319q-7 8 -14.5 15t-15.5 15h374q-8 -8 -14 -15t-11 -15zM521 20h-280v47
h280v-47zM521 186v-28h148v-12h-579v12h151v28h280zM90 271v18h149q-2 4 -3.5 8t-3.5 8h289v-3v-13h148v-18h-579zM599 397h-458q-22 11 -40.5 13.5t-23.5 2.5h-40v11h691v-11h-102q-8 -4 -27 -16zM37 483h342q5 -7 9.5 -12.5t9.5 -10.5q1 0 4.5 6.5t10.5 16.5h315v-24h-691
v24zM669 245v-20h-148v-17h-280v17h-151v20h579zM669 126v-32h-148v-11h-280v11h-151v32h579z" />
    <glyph glyph-name="FL00B8h" unicode="&#xa6;" horiz-adv-x="354" 
d="M32 637l22 -22h296v30l-22 22v6h-302v-36h6zM32 -129l22 -22h296v260l-4 4h4v56l-6 6h6v53l-10 10h10v50l-13 13h13v46l-17 17h17v43l-19 19h19v40l-22 22v1h22v37l-22 22v4h22v33l-22 22v6h-302v-39h6l20 -20h-26v-43h6l17 -17h-23v-46h6l13 -13h-19v-49h6l11 -11h-17
v-52h6l7 -7h-13v-56h6l4 -4h-10v-385h6zM317 -112v-6h-280v6h280zM317 648h-280v14h280v-14zM317 585h-280v17h280v-17zM317 522h-280v21h280v-21zM317 459h-280v24h280v-24zM317 397h-280v27h280v-27zM317 334h-280v30h280v-30zM317 271h-280v34h280v-34zM317 208h-280v37
h280v-37zM317 146h-280v40h280v-40zM317 83h-280v43h280v-43zM317 20h-280v47h280v-47zM317 -42h-280v49h280v-49zM317 -105h-280v53h280v-53z" />
    <glyph glyph-name="FL00A7h" unicode="&#xa7;" horiz-adv-x="841" 
d="M366 218v10l-10 10h10v50l-13 13h13q4 22 24 33l-3 13l-17 17h107l-1 -7q21 -10 25 -34h6l7 -7h-12v-56h6l4 -4h-10v-13q0 -8 -8 -15t-19 -12l4 -19h-95l-14 14l1 5q-3 0 -5 2zM348 375h-30l-43 -52h9l7 -7h-22l-46 -56h9l4 -4h-17l-48 -59l-50 -60l-48 -59l-5 -6
l-52 -63l-17 -20h9l22 -22h348l17 20h1l52 63l48 59l-4 4h8l46 56l-6 6h11l43 53l-10 10h19l41 50l-13 13h23l39 46l-17 17h32l35 43l-19 19h34l34 40l-23 23h41l32 37l-23 23l4 5h-356l-35 -43h9l17 -17h-41l-38 -46h9l13 -13h-33l-40 -49h9zM323 364h35q-20 -11 -24 -30
h-36zM522 208h-37q11 5 19.5 14.5t8.5 20.5v2h39zM350 0h-328l6 7h328zM333 271h-87l28 34h59v-34zM574 271h-61v34h89zM626 334h-115q-5 19 -24 30h164zM333 245v-2q0 -11 8.5 -20.5t19.5 -14.5h-167l30 37h109zM782 522h-327l17 21h328zM730 459h-328l20 24h328zM679 397
h-328l22 27h328zM471 146h-328l33 40h328zM419 83h-328l35 43h328zM367 20h-328l39 47h328z" />
    <glyph glyph-name="FL00A8h" unicode="&#xa8;" horiz-adv-x="496" 
d="M283 435h-18q5 -5 10 -9t12 -8l11 -11q46 -40 93 -40q48 0 91 40l-19 19h27q7 15 7 31v9l-22 22v1h18q-5 7 -9.5 12.5t-9.5 10.5h-1q0 1 -1 1q-10 15 -20 24.5t-18 16.5h-137q-12 -8 -21 -19t-18 -24h9l17 -17h-27v-12q0 -10 1 -13l-19 19v1h18q-5 7 -9.5 12.5t-9.5 10.5
h-1q0 1 -1 1q-10 15 -20 24.5t-18 16.5h-137q-12 -8 -21 -19t-18 -24h9l17 -17h-27v-12q0 -18 8 -34h5l13 -13h-18q5 -5 10 -9t12 -8l11 -11q46 -40 93 -40q48 0 91 40l-19 19h27q7 15 7 30q1 -4 4 -8h5zM59 424h141q-27 -24 -70 -24t-71 24zM295 424h141q-27 -24 -70 -24
t-71 24zM216 522h-172q4 5 8.5 10.5t11.5 10.5h131q12 -9 21 -21zM452 522h-172q4 5 8.5 10.5t11.5 10.5h131q12 -9 21 -21zM464 483v-1q0 -15 -4 -23h-188q-4 7 -4 23v1h196zM32 482v1h196v-1q0 -15 -4 -23h-188q-4 7 -4 23z" />
    <glyph glyph-name="copyright" unicode="&#xa9;" horiz-adv-x="286" 
d="M211 439l4 -4h-8q3 1 4 4zM85 505l12 -11h-13q0 8 1 11zM76 540l-9 8q1 1 0.5 2t0.5 2h10q-2 -10 -2 -12zM96 448h3q-6 6 -8 7q-2 8 -2 11l-21 21l-0.5 0.5t-0.5 1.5h9q17 -31 35 -39l12 -12q1 -1 1 -2l1 -1h-17q-5 4 -7.5 7.5t-4.5 5.5zM171 531l22 -22h11l6 1l-2 16
l-22 21v7h-21v-23h6zM222 613h-47l-4 -18l12 -6l17 -17l9 -5q3 -2 5.5 -3.5t4.5 -3.5l2 -1q1 -2 2.5 -2.5t3.5 -2.5h-12q5 -11 7 -16t2 -6t-0.5 -1.5t-0.5 -1.5v-9q0 -2 0.5 -5t0.5 -4h6l17 -17h-27q0 -1 -0.5 -2.5t-0.5 -2.5v1q-4 -5 -4 -8l-1 -1l-6 7q1 2 2 3t2 3h-47
q-10 -10 -23 -10q-11 0 -18 5h14q0 16 8 37l-22 22l2 6h-17q11 11 24 17l-3 14l-21 20l-1 8h-45q-6 -4 -13.5 -13.5t-18.5 -25.5h9l20 -20h-34q-2 -10 -3.5 -20t-1.5 -23h6l17 -17h-21q3 -11 6.5 -19.5t7.5 -15.5q0 -3 1 -4.5t6 -6.5h4l13 -13h-4q12 -14 25 -21v-2
q1 -1 2 -1.5t2 -1.5l3 -2q11 -12 19 -16l1 -1q27 -15 59 -15v16q13 0 30 -0.5t24 -0.5l1 -1h2q3 2 9.5 7t12.5 11l-19 19h37q5 5 7 10q1 3 2 5.5t2 4.5l10 20l-23 22v1h24q0 15 -5 37l-21 21l-1 1v1q0 2 -1 3h14l-1 1q-7 8 -11 15t-9 12l-7 7q-8 10 -13 16.5t-10 9.5z
M181 543l-4 -1h-1v1h5zM51 522h-19q0 10 3 21h19q-3 -11 -3 -21zM231 543h20q3 -11 3 -21h-19q-1 5 -1.5 10.5t-2.5 10.5zM105 522h-20q0 10 3 21h21q-4 -8 -4 -21zM78 585h-25q4 5 7.5 9t8.5 8h33q-13 -6 -24 -17zM182 602h34q5 -4 8.5 -8t7.5 -9h-24q-5 4 -9.5 7.5
t-10.5 6.5zM72 459h-23q-1 1 -1 2q0 2 -1 3q-6 9 -9 19h20q1 -4 5 -10q3 -8 9 -14zM228 483h20q-2 -5 -4.5 -9.5t-4.5 -9.5q-2 -4 -3 -5h-23q2 3 4.5 6.5t5.5 7.5q2 2 2.5 4.5t2.5 5.5zM84 424h118q-2 -2 -4 -2q-29 -7 -43 -10.5t-12 -3.5q-29 0 -55 14q-2 0 -4 2zM170 483
h22q-11 -18 -27 -24h-46q-18 6 -27 24h23q9 -10 27 -10t28 10z" />
    <glyph glyph-name="FL00AAh" unicode="&#xaa;" horiz-adv-x="437" 
d="M217 494v32l-22 22v4h46v-41h6l17 -17h-47zM389 613h-342q-3 -3 -3 -4q-1 -1 -1.5 -2t-2.5 -3q-1 -1 -1 -2l-1 -1q-3 -5 -6.5 -10.5t-8.5 -16.5h8l20 -20h-25v-43h6l17 -17h-23v-46h6l13 -13h-19v-49h6l11 -11h-17v-37h6l22 -22h163v31l-17 17h17v43l-19 19h43v-40h6
l11 -11h-17v-37h6l22 -22h164v31l-17 17h17v43l-19 19h19v40l-22 22v1h22v37l-22 22v4h22q-6 12 -9 16.5t-5 8.5l-4 3l-1 1v1q0 2 -1 3l-13 13q-2 2 -2 3l-1 1q0 1 -1 2q-2 2 -2.5 3t-1.5 2q0 -1 -3 4zM184 364v-15h-147v15h147zM400 349h-148v15h148v-15zM184 543v-2v-19
h-147v21h147zM400 522h-148v21h148v-21zM184 397h-147v27h147v-27zM400 397h-148v27h148v-27zM52 602h332q3 -5 6 -8.5t5 -8.5h-354q2 5 5 8.5t6 8.5zM400 459h-363v24h363v-24z" />
    <glyph glyph-name="FL00ABh" unicode="&#xab;" horiz-adv-x="576" 
d="M286 299l-1 2h3zM568 346l-29 29h-4l-11 11h4l-49 49h-56l-51 -49h10l11 -11h-31l-43 -43l-11 12l2 2l-29 29h-4l-11 11h4l-49 49h-56l-51 -49h10l11 -11h-31l-52 -52h10l7 -7h-24l-37 -37l19 -19h4l4 -4h-4l162 -162l2 2l23 -23l36 36l-4 4h8l56 56l-6 6h12l11 11
l-23 23l2 2l-45 44l12 12l8 -7h3l4 -4h-3l162 -162l2 2l23 -23l36 36l-4 4h8l56 56l-6 6h12l11 11l-23 23l2 2l-45 44l33 33l-13 13h26l20 20l-23 23zM209 126l-16 -16l-16 16h32zM467 126l-16 -16l-16 16h32zM243 397h-101l28 27h46zM501 397h-101l28 27h46zM229 146h-72
l-40 40h152zM487 146h-72l-40 40h152zM276 364l18 -18l-12 -12h-203l30 30h167zM534 364l18 -18l-12 -12h-203l30 30h167zM253 305l-26 -26l8 -8h-203l-8 8l26 26h203zM511 305l-26 -26l8 -8h-203l-8 8l26 26h203zM260 245l34 -34l-3 -3h-196l-37 37h202zM518 245l34 -34
l-3 -3h-196l-37 37h202z" />
    <glyph glyph-name="FL00ACh" unicode="&#xac;" horiz-adv-x="409" 
d="M383 362h-357v-39h6l7 -7h-13v-56h6l4 -4h-10v-59h6l22 -22h164v-75h6l22 -22h159v31l-4 4h4v56l-6 6h6v53l-10 10h10v50l-13 13h13v33l-22 22v6zM372 126v-15h-143v15h143zM37 351h335v-17h-335v17zM372 146h-143v40h143v-40zM372 271h-335v34h335v-34zM372 208h-335v37
h335v-37z" />
    <glyph glyph-name="FL00ADh" unicode="&#xad;" horiz-adv-x="369" 
d="M26 362v-39h6l7 -7h-13v-56h6l4 -4h-10v-59h6l22 -22h311v53l-10 10h10v50l-13 13h13v33l-22 22v6h-317zM37 334v17h295v-17h-295zM332 271h-295v34h295v-34zM332 208h-295v37h295v-37z" />
    <glyph glyph-name="registered" unicode="&#xae;" horiz-adv-x="286" 
d="M67 489h17v-18l-16 16l-0.5 0.5t-0.5 1.5zM68 552h16v-20l-17 16q1 1 0.5 2t0.5 2zM86 511h4l17 -17h-23q0 4 0.5 8t1.5 9zM147 435v31l-22 22v1h21v-9q0 -1 0.5 -1.5t0.5 -1.5q2 -6 5 -9l11 -20h5l13 -13h-34zM222 390l1 -1h2q3 2 9.5 7t12.5 11l-19 19h37q5 5 7 10
q1 3 2 5.5t2 4.5l10 20l-23 22v1h24q0 15 -5 37l-21 21l-1 1v1q0 2 -1 3h14q-7 9 -11.5 16t-9.5 12l-7 7q-8 10 -13 16.5t-10 9.5h-47l-4 -18l12 -6l17 -17l9 -5q3 -2 5.5 -3.5t4.5 -3.5l2 -1q1 -2 2.5 -2.5t3.5 -2.5h-12q5 -11 7 -16t2 -6t-0.5 -1.5t-0.5 -1.5v-9
q0 -2 0.5 -5t0.5 -4h6l17 -17h-27q0 -1 -0.5 -2t-0.5 -2q-4 -5 -4 -8v-2l-7 -10l-19 18v1h16q14 12 14 37l-22 22v6h-42v-12q0 -3 -3 -5t-14 -2l-13 13v6h-16q11 11 24 17l-3 14l-21 20l-1 8h-45q-6 -4 -13.5 -13.5t-18.5 -25.5h9l20 -20h-34q-2 -10 -3.5 -20t-1.5 -23h6
l17 -17h-21q3 -11 6.5 -19.5t7.5 -15.5q0 -3 1 -4.5t6 -6.5h4l13 -13h-4q12 -14 25 -21v-2q1 -1 2 -1.5t2 -1.5l3 -2q11 -12 19 -16l1 -1q27 -15 59 -15v16q13 0 30 -0.5t24 -0.5zM51 522h-19q0 10 3 21h19q-3 -11 -3 -21zM231 543h20q3 -11 3 -21h-19q-1 5 -1.5 10.5
t-2.5 10.5zM114 459h-19v24h19v-24zM78 585h-25q4 5 7.5 9t8.5 8h33q-13 -6 -24 -17zM182 602h34q5 -4 8.5 -8t7.5 -9h-24q-5 4 -9.5 7.5t-10.5 6.5zM72 459h-23q-1 1 -1 2q0 2 -1 3q-6 9 -9 19h20q1 -4 5 -10q3 -8 9 -14zM228 483h20q-2 -5 -4.5 -9.5t-4.5 -9.5
q-2 -4 -3 -5h-23q2 3 4.5 6.5t5.5 7.5q2 2 2.5 4.5t2.5 5.5zM157 483h22q0 -2 1 -2l14 -22h-24l-9 17q-2 2 -2.5 3.5t-1.5 3.5zM114 543v-19h23q17 0 23 5t6 13v1h20q0 -14 -9 -21h-82v21h19zM84 424h118q-2 -2 -4 -2q-29 -7 -43 -10.5t-12 -3.5q-29 0 -55 14q-2 0 -4 2z
" />
    <glyph glyph-name="FL00B3h" unicode="&#xaf;" horiz-adv-x="603" 
d="M32 402l22 -22h545v27l-19 19h19v40l-22 22v1h22v37l-22 22v6h-551v-43h6l17 -17h-23v-46h6l13 -13h-19v-33h6zM566 424v-11h-529v11h529zM566 522h-529v21h529v-21zM566 459h-529v24h529v-24z" />
    <glyph glyph-name="FL00B1h" unicode="&#xb0;" horiz-adv-x="260" 
d="M145 435l2 7l7 -7h-9zM128 461v5l-22 22v1h46v-9q0 -7 -19 -10l1 -16zM195 554h-133l-9 -9q-4 -4 -10.5 -11t-20.5 -23h9l17 -17h-27v-14q0 -14 6 -32h5l13 -13h-18q6 -5 11.5 -9.5t11.5 -9.5l10 -9q48 -42 95 -42q46 0 94 42l-19 19h26q5 18 5 29v11l-22 22v1h16
q-5 7 -10 12t-9 10q-13 17 -23 27t-18 16zM95 483v-3q0 -16 23 -21h-83q-3 9 -3 21v3h63zM228 483v-3q0 -12 -3 -21h-85q10 2 16.5 7.5t6.5 13.5v3h65zM130 398q-22 0 -40.5 7t-32.5 19h145q-14 -12 -32 -19t-40 -7zM67 543h125q5 -4 11 -9t11 -12h-169q5 6 10.5 11t11.5 10
z" />
    <glyph glyph-name="FL00B2h" unicode="&#xb1;" horiz-adv-x="409" 
d="M33 -11l22 -22h351v142l-22 22v6h-357v-148h6zM309 430v36l-22 22v6h-165v-46h6l13 -13h-19v-5h-96v-44h6l11 -11h-17v-52h6l7 -7h-13v-51h6l22 -22h68v-46v-29h6l22 -22h159v23l-6 6h6v53l-10 10h10v5h96v45l-13 13h13v46l-17 17h17v38l-22 22v6h-74zM276 186v-7h-143v7
h143zM373 7v-7h-335v7h335zM276 459h-143v24h143v-24zM276 208h-143v37h143v-37zM276 424v-5h96v-22h-335v22h96v5h143zM372 334h-335v30h335v-30zM133 271v5h-96v29h335v-29h-96v-5h-143zM373 83h-335v43h335v-43zM373 20h-335v47h335v-47z" />
    <glyph glyph-name="FL00B6h" unicode="&#xb2;" horiz-adv-x="428" 
d="M379 613h-352v-39h6l22 -22h163q4 -5 6.5 -7.5t5.5 -4.5h-126q-16 0 -42 -10l4 -19h6l17 -17h-63v-46h6l13 -13h-19v-49h6l11 -11h-17v-37h6l22 -22h370v31l-17 17h17v43l-22 22v6h-12q7 5 14 13t15 18l-23 23h28v37l-22 22v4h20q-5 12 -9.5 20t-9.5 13l-12 11
q-4 9 -12 17zM391 522h-319q17 7 32 7h140v10q0 3 -1 4h148v-21zM391 349h-354v15h354v-15zM38 602h336l6 -8t5 -9h-347v17zM350 459h-313v18v6h341q-12 -15 -28 -24zM391 397h-354v27h354v-27z" />
    <glyph glyph-name="FL00BCh" unicode="&#xb3;" horiz-adv-x="407" 
d="M352 613h-326v-39h6l22 -22h158v-13h-186v-28h6l17 -17h-23v-46h6l13 -13h-19v-49h6l11 -11h-17v-37h6l22 -22h261q34 0 71 31l-17 17h24q4 8 6.5 19t3.5 24l-19 19h18q-2 11 -5 20.5t-10 19.5l-18 17l-3 6h34v9q1 5 1.5 9.5t0.5 9.5v9l-22 22v4h16q-6 12 -9 16.5t-5 8.5
q-1 1 -2 1.5t-2 1.5l-1 1v1q0 2 -1 3l-13 13q-2 2 -2 3l-1 1q0 1 -1 2q-2 2 -2.5 3t-1.5 2q0 -1 -3 4zM37 528h176q12 0 12 9l-0.5 1.5l-1.5 4.5h146v-1q0 -5 -0.5 -10t-1.5 -10h-330v6zM290 349h-253v15h302q-18 -15 -49 -15zM37 602h310q3 -5 6 -8.5t5 -8.5h-321v17z
M37 483h321q4 -7 6.5 -13t3.5 -11h-331v24zM37 424h332q-2 -17 -6 -27h-326v27z" />
    <glyph glyph-name="FL00B4h" unicode="&#xb4;" horiz-adv-x="841" 
d="M71 494h-6l39 -46h4l13 -13h-7l40 -49h4l11 -11h-6l44 -52h4l7 -7h-6l29 -35l-20 -21h10l4 -4h-14l-50 -59l-50 -60l-48 -59l-5 -6l-52 -63l-17 -20h9l22 -22h348l17 20h1l44 53l26 -31h1l17 -20h4l22 -22h348l-18 20h1l-52 63l-50 59l-4 4h1l-46 56l-6 6h1l-43 53l-6 6
l-18 21l27 33l-13 13h23l39 46l-17 17h30l37 43l-19 19h34l34 40l-23 23h42l30 37l-23 23l4 5h-356l-35 -43h9l17 -17h-38l-25 32l-7 6l-17 22h-356l35 -43h4zM482 7h328l6 -7h-328zM356 7l-6 -7h-328l6 7h328zM783 522h-328l17 21h328zM383 522h-328l-17 21h328zM591 271
h-345l9 10l-20 24h368l-20 -24zM627 334h-416l-25 30h466zM679 397h-520l-22 27h565zM799 20h-328l-39 47h328zM367 20h-328l39 47h328zM88 483h327l4 -4l3 4h329l-20 -24h-623zM643 208h-449l31 37h388zM694 146h-551l33 40h485zM747 83h-656l35 43h585z" />
    <glyph glyph-name="FL00B5h" unicode="&#xb5;" horiz-adv-x="787" 
d="M448 361h-112h-1l-1 1l-1 1q1 0 0 1h17v43l-19 19h19v40l-22 22v1h22v37l-22 22v6h-303v-43h6l17 -17h-23v-46h6l13 -13h-19v-49h6l11 -11h-17v-52h6l7 -7h-13v-56h6l4 -4h-10v-121q2 -16 4.5 -30t5.5 -27q0 -2 1 -3q0 -2 1 -3h1q11 -22 22.5 -38.5t23.5 -24.5h3l14 -14
q7 -7 9 -8h9l11 -11q11 -5 22 -7t23 -2h602v142l-4 4h4v17l-22 22v6h-402h-3v11l-6 6h314q46 7 92 53l-10 10h17q9 13 14.5 25t10.5 25l-13 13h13v46l-17 17h17v43l-19 19h19v40l-22 22v1h22v37l-22 22v6h-302v-43h6l17 -17h-23v-46h6l13 -13h-19v-49h6l11 -11h-17
q-2 -5 -5 -9.5t-5 -4.5zM744 0h-594q-25 0 -39 7h633v-7zM749 522h-280v21h280v-21zM317 522h-281v21h281v-21zM749 459h-280v24h280v-24zM317 459h-281v24h281v-24zM749 397h-280v27h280v-27zM317 397h-281v27h281v-27zM353 147h391v-1h-708v40h281v-2q0 -20 8 -27.5
t28 -9.5zM336 350h112q7 0 11 4.5t6 9.5h284v-30h-713v30h284q3 -5 7 -9.5t9 -4.5zM36 245h669q-31 -31 -73 -37h-596v37zM36 305h709q-3 -9 -7 -17.5t-10 -16.5h-692v34zM744 83h-699q-3 10 -5 20.5t-3 22.5h707v-43zM744 20h-655q-12 8 -21 20.5t-16 26.5h692v-47z" />
    <glyph glyph-name="FL007Ah" unicode="&#xb6;" horiz-adv-x="977" 
d="M564 445l-1 1zM460 554h-434v-43h6l17 -17h-23v-46h6l13 -13h-19v-32h6l22 -22h166q6 0 18 -9q6 -15 9 -20.5t7 -8.5l10 -20h5l7 -7h-7l29 -56h5l4 -4h-6l31 -59l34 -62l17 -30q4 -9 17 -27q0 -1 2 -3l3 -3q15 -17 28 -29t24 -21q12 -11 24 -19.5t24 -15.5h13l11 -11
q24 -9 46 -9h398v142l-4 4h4v18l-22 22v6h-209q-11 0 -24 16h3q-12 15 -13 20l-19 33l-10 10h4l-28 50l-13 13h6l-26 46l-17 17h7l-24 43l-17 17l-1 2h14q-11 11 -15 14.5t-5 4.5h2q1 0 -2 3h2l-11 10q-1 1 -2 3t-3 5l-8 8q-2 2 -2.5 3t-1.5 2q-7 7 -9 10h4l-22 22h4
q-3 2 -7.5 6.5t-7.5 6.5q-5 3 -10.5 7.5t-8.5 6.5q-5 4 -10.5 8t-10.5 8zM940 7v-7h-390q-25 0 -40 7h430zM37 543h418q8 -5 14.5 -10t14.5 -11h-447v21zM271 334l-8 15q-2 3 -4.5 6.5t-4.5 8.5h338l17 -30h-338zM573 397h-347q-17 17 -31 17h-158v10h521zM644 271h-339
l-18 34h338zM37 483h485q5 -7 9 -13t8 -11h-502v24zM319 245h340l15 -26q2 -5 6 -11h-341zM742 148h198v-2h-567l-22 40h344q11 -14 23.5 -26t23.5 -12zM940 20h-458q-33 18 -58 47h516v-47zM940 83h-530q-7 8 -11 15t-6 12l-9 16h556v-43z" />
    <glyph glyph-name="FL00B7h" unicode="&#xb7;" horiz-adv-x="309" 
d="M25 295q0 -19 8 -35h5l4 -4h-10q9 -11 18 -19l18 -16l5 -4q30 -31 65 -42h81q20 5 38.5 19t36.5 34l-10 10h13q7 15 7 32v4q0 2 -0.5 7t-0.5 7l-13 13h10q-6 8 -12.5 17t-14.5 17q-8 12 -18 22t-20 18h-164q-11 -10 -22.5 -22.5t-22.5 -29.5h9l7 -7h-13q-3 -9 -3.5 -13
t-0.5 -8zM55 245h197q-23 -26 -60 -37h-77q-37 11 -60 37zM260 334h-213q5 8 12.5 15.5t15.5 14.5h157q9 -6 16 -14t12 -16zM36 295q0 8 1 10h233q0 -3 0.5 -5.5t0.5 -4.5q0 -16 -4 -24h-227q-4 7 -4 24z" />
    <glyph glyph-name="FL00BAh" unicode="&#xb8;" horiz-adv-x="209" 
d="M183 5v6h-155v-52h-83v-127h6l22 -22h232v173zM172 -42h-133v42h133v-42zM172 -112v-45h-216v45h216zM172 -105h-216v53h216v-53z" />
    <glyph glyph-name="FL00BEh" unicode="&#xb9;" horiz-adv-x="270" 
d="M85 337l22 -22h159v32l-17 17h17v43l-19 19h19v40l-22 22v1h22v37l-22 22v4h22v33l-22 22v6h-218v-39h6l22 -22h25v-41h6l17 -17h-23v-46h6l13 -13h-19v-49h6l11 -11h-17v-38h6zM233 364v-16h-143v16h143zM233 522h-143v21h143v-21zM233 585h-196v17h196v-17zM233 459
h-143v24h143v-24zM233 397h-143v27h143v-27z" />
    <glyph glyph-name="FL00B0h" unicode="&#xba;" horiz-adv-x="437" 
d="M209 488v1h20v-21zM231 460h1l4 -4v-8h6l13 -13h-24v25zM388 613h-339q-5 -7 -12 -17.5t-12 -21.5h8l20 -20h-27v-43h6l17 -17h-23v-46h6l13 -13h-19v-25q0 -9 4 -24h5l11 -11h-14q6 -5 11.5 -9.5t10.5 -8.5l11 -10q37 -31 62 -31h233q25 0 62 31l-17 17h25q1 5 2 10.5
t1 10.5v22l-19 19h19v40l-22 22v1h22v37l-22 22v4h21q-6 12 -9 16.5t-5 8.5l-4 3l-1 1v1q0 2 -1 3l-13 13q-2 2 -2 3l-1 1q0 1 -1 2q-2 2 -2.5 3t-1.5 2q0 -1 -3 4zM400 459h-161q1 0 1 1v23h160v-24zM198 483v-23v-1h-161v24h161zM62 364h313q-18 -15 -40 -15h-233
q-22 0 -40 15zM54 602h329q3 -5 6 -8.5t5 -8.5h-351q2 5 4.5 9t6.5 8zM400 522h-363v21h363v-21zM400 424v-14q0 -2 -0.5 -5t-1.5 -8h-359q-1 5 -1.5 8t-0.5 5v14h363z" />
    <glyph glyph-name="FL00BBh" unicode="&#xbb;" horiz-adv-x="576" 
d="M277 200l106 -106l2 2l23 -23l36 36l-4 4h8l56 56l-6 6h12l53 53l-10 10h20l16 16l-23 23l2 2l-37 37h-5l-7 7h4l-52 52h-4l-11 11h4l-49 49h-56l-49 -49h10l11 -11h-32l-29 -29l23 -23h4l7 -7h-4l37 -37l-14 -14l-11 12l2 2l-37 37h-5l-7 7h4l-52 52h-4l-11 11h4l-49 49
h-56l-49 -49h10l11 -11h-32l-29 -29l23 -23h4l7 -7h-4l37 -37l-19 -19h10l4 -4h-18l-44 -45l117 -117l2 2l23 -23l36 36l-4 4h8l56 56l-6 6h12zM399 126l-16 -16l-16 16h32zM141 126l-16 -16l-16 16h32zM175 397h-100l27 27h46zM433 397h-100l27 27h46zM161 146h-72l-40 40
h152zM419 146h-72l-40 40h152zM36 334l-12 12l18 18h166l30 -30h-202zM294 334l-12 12l18 18h166l30 -30h-202zM83 271l8 8l-26 26h203l26 -26l-8 -8h-203zM341 271l8 8l-26 26h203l26 -26l-8 -8h-203zM223 208h-196l-3 3l33 34h203zM481 208h-196l-3 3l33 34h203z" />
    <glyph glyph-name="FL0763h" unicode="&#xbc;" horiz-adv-x="919" 
d="M502 198l8 -8l-1 -1zM334 357l-6 7h12zM855 130v39l-6 6h6v53l-10 10h10v25l-22 22v6h-208l-10 10h24l42 46l-17 17h32l40 43l-19 19h35l37 40l-23 23h43l34 37l-23 23l5 5h-312l-40 -43h10l17 -17h-41l-43 -46h10l13 -13h-34l-45 -49h10l11 -11h-30l-6 -7v39l-19 19h19
v40l-22 22v1h22v37l-22 22v6h-218v-43h6l17 -17h-23v-26h6l22 -22h33l11 -11h-19v-49h6l11 -11h-17v-52h6l7 -7h-13v-46h6l22 -22h48l-46 -51h1l-58 -62h1l-58 -63h1l-58 -63h1l-17 -20h9l22 -22h304l17 20h1l58 63h-1l27 29v-52h6l22 -22h197v-16h6l22 -22h164v38h60v97
l-22 22v6h-38zM822 7v-7h-148v7h148zM616 280h206v-9h-228q5 4 11 6.5t11 2.5zM308 0h-284l6 7h284zM169 459v20h-53v4h196v-24h-143zM312 397h-143v27h143v-27zM312 522h-196v21h196v-21zM312 334h-143v30h143v-30zM781 522h-283l19 21h283zM724 459h-283l22 24h283z
M668 397h-283l24 27h284zM611 334h-284l28 30h283zM822 208h-283l29 37h254v-37zM497 208h-284l33 37h284zM440 146h-284l37 40h284zM383 83h-284l39 43h284zM674 146v17l-13 -17h-172l32 40h301v-40h-148zM270 271l9 10h-110v24h416l-31 -34h-284zM326 20h-284l43 47h284z
M674 20v18h-225v29h433v-29h-60v-18h-148zM646 126l-5 -7h33v7h148v-7h60v-36h-433v12l24 31h173z" />
    <glyph glyph-name="FL0740h" unicode="&#xbd;" horiz-adv-x="922" 
d="M334 357l-6 7h12zM526 -11l22 -22h370v83l-22 22v6h-26q10 5 19.5 13t19.5 18l-4 4h4q9 16 9 29v27l-6 6h6v9q0 21 -15 44l-18 18q-5 6 -6 10h-5l-18 18l1 5q-11 5 -21.5 8.5t-22.5 3.5h-190l-10 10h26l42 46l-17 17h32l39 43l-19 19h36l37 40l-23 22v1h43l34 37l-23 23
l5 5h-312l-40 -43h10l17 -17h-41l-43 -46h10l13 -13h-34l-45 -49h10l11 -11h-30l-6 -7v39l-19 19h19v40l-22 22v1h22v37l-22 22v6h-218v-43h6l17 -17h-23v-26h6l22 -22h33l11 -11h-19v-49h6l11 -11h-17v-52h6l7 -7h-13v-46h6l22 -22h48l-46 -51h1l-58 -62h1l-58 -63h1
l-58 -63h1l-17 -20h9l22 -22h304l17 20h1l58 63h-1l54 59l-4 4h7l51 56l-6 6h11l12 13l13 -13h3q-11 -8 -20 -17.5t-15 -22.5h3v-146h6zM314 7l-6 -7h-284l6 7h284zM885 7v-7h-354v7h354zM312 459h-143v20h-53v4h196v-24zM312 397h-143v27h143v-27zM312 522h-196v21h196v-21
zM312 334h-143v30h143v-30zM781 522h-283l19 21h283zM724 459h-283l22 24h283zM668 397h-283l24 27h283zM611 334h-284l28 30h283zM496 208h-283l33 37h284zM531 126h333q-11 -11 -24 -18t-24 -7h-137v-18h-148v43zM440 146h-284l37 40h283zM885 186v-19q0 -11 -6 -21h-344
q8 16 27 25t36 9h140v6h147zM383 83h-284l39 43h284zM532 245h342q11 -17 11 -36v-1h-353v37zM326 20h-284l43 47h284zM847 271h-577l9 10h-110v24h415l-22 -25h251q9 0 17.5 -2.5t16.5 -6.5zM885 20h-354v47h354v-47z" />
    <glyph glyph-name="FL077Ch" unicode="&#xbe;" horiz-adv-x="956" 
d="M539 198l8 -8l-1 -1zM343 554h-317v-43h6l17 -17h-23v-46h6l13 -13h-19v-49h6l12 -12h-18v-51h6l7 -7h-13v-46h6l22 -22h217l-46 -51h1l-58 -62h1l-58 -63h1l-58 -63h1l-17 -20h9l22 -22h304l17 20h1l58 63h-1l27 29v-52h6l22 -22h197v-16h6l22 -22h164v38h60v97l-22 22
v6h-38v39l-6 6h6v53l-10 10h10v25l-22 22v6h-208l-10 10h24l42 46l-17 17h32l40 43l-19 19h35l37 40l-23 22v1h43l34 37l-23 23l5 5h-312l-40 -43h10l17 -17h-41l-43 -46h10l13 -13h-34l-46 -49h10l11 -11h-19q-2 5 -4.5 10.5t-6.5 10.5l11 11l-19 19h22v15q0 2 0.5 4t0.5 4
q0 4 -0.5 7.5t-3.5 9.5l-19 19l-0.5 1l-1.5 3h17q-8 14 -14.5 22.5t-12.5 14.5l-4 3q-7 9 -11.5 15t-8.5 10zM859 7v-7h-148v7h148zM859 271h-228q5 4 11 6.5t11 2.5h206v-9zM351 7l-6 -7h-284l6 7h284zM37 460h176q12 0 12 9q0 10 -11 10h-177v4h331q1 -1 1 -9
q0 -4 -0.5 -7.5t-0.5 -7.5h-331v1zM818 522h-283l19 21h283zM37 543h301q13 -13 17 -21h-318v21zM761 459h-283l22 24h283zM705 397h-284l25 27h284zM37 424h316l-1 -1q13 -16 14 -26h-329v27zM859 208h-283l29 37h254v-37zM534 208h-284l33 37h284zM477 146h-284l37 40h284
zM420 83h-284l39 43h284zM859 146h-148v17l-13 -17h-172l32 40h301v-40zM363 20h-284l43 47h284zM919 67v-29h-60v-18h-148v18h-225v29h433zM591 271h-284l14 15q-11 -2 -18.5 -3.5t-12.5 -1.5h-253v24h585zM683 126l-5 -7h33v7h148v-7h60v-36h-433v12l24 31h173zM220 364
h150q-2 -17 -6 -30l27 30h284l-27 -30h-611v29h177q5 0 6 1z" />
    <glyph glyph-name="FL00BFh" unicode="&#xbf;" horiz-adv-x="782" 
d="M638 511h4q-14 14 -26.5 25.5t-22.5 17.5h-148q-9 -5 -21.5 -16.5t-27.5 -26.5h10l17 -17h-28q-3 -9 -3.5 -14.5t-0.5 -10.5t0.5 -9t4.5 -12h5l13 -13h-19q27 -37 46 -49h1l7 -7q10 -10 19 -15h152q10 5 20.5 16t22.5 27l-19 19h25v12q0 2 0.5 3t0.5 3q0 5 -0.5 8t-1.5 6
v8l-22 22v1h14zM648 358h-481q-12 0 -27 -4t-31 -13l4 -18h6l7 -7h-52q-9 -9 -19 -22.5t-24 -33.5h8l4 -4h-12q-2 -9 -3.5 -16.5t-1.5 -15.5v-87h-1q2 -17 5 -32t9 -27h-2q14 -23 29.5 -40t31.5 -28q7 -8 14.5 -13t15.5 -10h12l11 -11q24 -9 48 -9h578v142l-4 4h4v17l-22 22
v6h-405v11l-6 6h190q24 0 55.5 14t60.5 39l-10 10h16q8 11 11 24t3 26l-13 13h13v29l-22 22v6zM615 522h-192q5 5 11.5 10.5t14.5 10.5h140q8 -5 14.5 -10.5t11.5 -10.5zM744 7v-7h-570q-27 0 -42 7h612zM416 424h206q-13 -19 -29 -27h-148q-17 11 -29 27zM637 469
q0 -3 -0.5 -5.5t-0.5 -4.5h-233q-1 1 -1 10q0 12 1 14h232q1 -4 1.5 -7t0.5 -7zM167 347h470v-13h-517q25 13 47 13zM317 186v-9q0 -8 5.5 -19t15.5 -11h406v-1h-707v40h280zM79 305h558q0 -18 -10 -34h-576q12 18 28 34zM40 245h564q-20 -17 -46 -27t-49 -10h-472v16
q0 10 3 21zM744 83h-695q-9 19 -12 43h707v-43zM744 20h-639q-29 18 -47 47h686v-47z" />
    <glyph glyph-name="FL00C0h" unicode="&#xc0;" 
d="M427 788l-4 4h-87l-5 -5h-1q-4 -4 -5.5 -7t-9.5 -18h8l22 -22h121l-16 21l-10 9zM490 673h-156l31 -36h4l22 -22h104q4 7 15 30l-22 22q1 1 1 3t1 3zM349 312v35l-17 17h16q3 6 7 11.5t8 5.5h120l6 -6h-17v-52h6l7 -7h-13v-4h-123zM468 732h-163q0 -14 1 -20.5t3 -12.5h5
l22 -22h173q-5 8 -9 15t-8 12l-14 14q-3 4 -5.5 7.5t-4.5 6.5zM743 511h4q-17 17 -29 27t-22 16h-593q-10 -6 -20.5 -14.5t-30.5 -28.5h10l17 -17h-38q-6 -11 -10 -23t-7 -23h7l13 -13h-18v-49h6l11 -11h-17v-52h6l7 -7h-13v-56h6l4 -4h-10v-267h6l22 -22h295v142l-4 4h4v12
h123v-136h6l22 -22h296v142l-4 4h4v56l-6 6h6v53l-10 10h10v50l-13 13h13v46l-17 17h17v43l-19 19h19q-5 12 -9 23t-7 17l-19 19q-1 1 -1 2t-1 2h6zM418 781l4 -4l3 -4h-92q1 2 2 2.5t3 2.5l3 3h77zM357 662h117q-2 -4 -4 -7t-4 -7h-97zM316 721h147q4 -4 5.5 -6.5t2.5 -4.5
h-153q-2 10 -2 11zM316 7v-7h-279v7h279zM763 7v-7h-280v7h280zM316 334h-279v30h279v-30zM763 334h-280v30h280v-30zM316 83h-279v43h279v-43zM763 83h-280v43h280v-43zM720 522h-641q6 6 13 11t15 10h585q8 -5 15.5 -10.5t12.5 -10.5zM316 20h-279v47h279v-47zM763 20
h-280v47h280v-47zM763 397h-283q-2 6 -5.5 11.5t-12.5 5.5h-124q-7 0 -12 -5.5t-8 -11.5h-281v27h726v-27zM760 459h-721q3 12 9 24h702q3 -6 5.5 -12t4.5 -12zM316 305v-4h167v4h280v-34h-726v34h279zM763 208h-726v37h726v-37zM763 146h-280v12h-167v-12h-279v40h726v-40z
" />
    <glyph glyph-name="FL00C1h" unicode="&#xc1;" 
d="M490 762h4l-30 30h-88l-4 -4q-5 -5 -5 -7l-14 -19h9l22 -22h128zM334 637l22 -22h103l26 30l-23 23l4 5h-156q2 -6 6.5 -15.5t13.5 -20.5h4zM349 312v35l-17 17h16q3 6 7 11.5t8 5.5h120l6 -6h-17v-52h6l7 -7h-13v-4h-123zM500 732h-170q-3 -3 -5 -7l-2 -4q-1 -1 -6 -6.5
t-15 -15.5h10l22 -22h176q6 6 6 12l5 15l-23 22zM743 511h4q-17 17 -29 27t-22 16h-593q-10 -6 -20.5 -14.5t-30.5 -28.5h10l17 -17h-38q-6 -11 -10 -23t-7 -23h7l13 -13h-18v-49h6l11 -11h-17v-52h6l7 -7h-13v-56h6l4 -4h-10v-267h6l22 -22h295v142l-4 4h4v12h123v-136h6
l22 -22h296v142l-4 4h4v56l-6 6h6v53l-10 10h10v50l-13 13h13v46l-17 17h17v43l-19 19h19q-5 12 -9 23t-7 17l-19 19q-1 1 -1 2t-1 2h6zM467 773h-92l3 4q1 1 1.5 2t1.5 2h78l3 -3zM431 648h-97q-7 9 -8 14h117zM336 721h148q-1 -2 -1 -7q0 -2 -2 -4h-152q2 2 3.5 5t3.5 6z
M316 7v-7h-279v7h279zM763 7v-7h-280v7h280zM316 334h-279v30h279v-30zM763 334h-280v30h280v-30zM316 83h-279v43h279v-43zM763 83h-280v43h280v-43zM720 522h-641q6 6 13 11t15 10h585q8 -5 15.5 -10.5t12.5 -10.5zM316 20h-279v47h279v-47zM763 20h-280v47h280v-47z
M763 397h-283q-2 6 -5.5 11.5t-12.5 5.5h-124q-7 0 -12 -5.5t-8 -11.5h-281v27h726v-27zM760 459h-721q3 12 9 24h702q3 -6 5.5 -12t4.5 -12zM316 305v-4h167v4h280v-34h-726v34h279zM763 208h-726v37h726v-37zM763 146h-280v12h-167v-12h-279v40h726v-40z" />
    <glyph glyph-name="FL00C2h" unicode="&#xc2;" 
d="M398 668l2 3l12 -17zM349 312v35l-17 17h16q3 6 7 11.5t8 5.5h120l6 -6h-17v-52h6l7 -7h-13v-4h-123zM284 762l22 -22h238l-18 24l-11 11l-13 17h-204l-23 -30h9zM237 699l22 -22h332l-19 27l-14 13l-10 15h-296l-24 -33h9zM189 637l22 -22h189l19 28l5 -6h4l22 -22h189
l-21 30l-15 15l-9 13h-388l-26 -36h9zM743 511h4q-17 17 -29 27t-22 16h-593q-10 -6 -20.5 -14.5t-30.5 -28.5h10l17 -17h-38q-6 -11 -10 -23t-7 -23h7l13 -13h-18v-49h6l11 -11h-17v-52h6l7 -7h-13v-56h6l4 -4h-10v-267h6l22 -22h295v142l-4 4h4v12h123v-136h6l22 -22h296
v142l-4 4h4v56l-6 6h6v53l-10 10h10v50l-13 13h13v46l-17 17h17v43l-19 19h19q-5 12 -9 23t-7 17l-19 19q-1 1 -1 2t-1 2h6zM503 773h-206l6 8h194zM316 7v-7h-279v7h279zM763 7v-7h-280v7h280zM370 648h-168l10 14h168zM598 648h-168l-10 14h168zM551 710h-302l8 11h286z
M316 334h-279v30h279v-30zM763 334h-280v30h280v-30zM316 83h-279v43h279v-43zM763 83h-280v43h280v-43zM720 522h-641q6 6 13 11t15 10h585q8 -5 15.5 -10.5t12.5 -10.5zM316 20h-279v47h279v-47zM763 20h-280v47h280v-47zM763 397h-283q-2 6 -5.5 11.5t-12.5 5.5h-124
q-7 0 -12 -5.5t-8 -11.5h-281v27h726v-27zM760 459h-721q3 12 9 24h702q3 -6 5.5 -12t4.5 -12zM316 305v-4h167v4h280v-34h-726v34h279zM763 208h-726v37h726v-37zM763 146h-280v12h-167v-12h-279v40h726v-40z" />
    <glyph glyph-name="FL00C3h" unicode="&#xc3;" 
d="M363 668l2 3l12 -17zM250 762l22 -22h172l-18 24l-11 11l-13 17h-138l-23 -30h9zM349 312v35l-17 17h16q3 6 7 11.5t8 5.5h120l6 -6h-17v-52h6l7 -7h-13v-4h-123zM454 762l22 -22h188l18 24l-23 23l4 5h-195l-23 -30h9zM203 699l22 -22h391l19 27l-23 23l4 5h-398
l-24 -33h9zM155 637l22 -22h188l19 28l5 -6h4l22 -22h155l21 30l-24 23l4 5h-399l-26 -36h9zM743 511h4q-17 17 -29 27t-22 16h-593q-10 -6 -20.5 -14.5t-30.5 -28.5h10l17 -17h-38q-6 -11 -10 -23t-7 -23h7l13 -13h-18v-49h6l11 -11h-17v-52h6l7 -7h-13v-56h6l4 -4h-10
v-267h6l22 -22h295v142l-4 4h4v12h123v-136h6l22 -22h296v142l-4 4h4v56l-6 6h6v53l-10 10h10v50l-13 13h13v46l-17 17h17v43l-19 19h19q-5 12 -9 23t-7 17l-19 19q-1 1 -1 2t-1 2h6zM403 773h-140l6 8h128zM635 773h-168l6 8h168zM316 7v-7h-279v7h279zM763 7v-7h-280v7
h280zM540 648h-145l-10 14h165zM335 648h-167l10 14h167zM587 710h-372l8 11h372zM316 334h-279v30h279v-30zM763 334h-280v30h280v-30zM316 83h-279v43h279v-43zM763 83h-280v43h280v-43zM720 522h-641q6 6 13 11t15 10h585q8 -5 15.5 -10.5t12.5 -10.5zM316 20h-279v47
h279v-47zM763 20h-280v47h280v-47zM763 397h-283q-2 6 -5.5 11.5t-12.5 5.5h-124q-7 0 -12 -5.5t-8 -11.5h-281v27h726v-27zM760 459h-721q3 12 9 24h702q3 -6 5.5 -12t4.5 -12zM316 305v-4h167v4h280v-34h-726v34h279zM763 208h-726v37h726v-37zM763 146h-280v12h-167v-12
h-279v40h726v-40z" />
    <glyph glyph-name="FL00C4h" unicode="&#xc4;" 
d="M200 762l22 -22h165l-25 25v3q-1 0 -7 6q-7 3 -7 8q-3 2 -7.5 4.5t-10.5 5.5h-96q-8 -3 -17.5 -9.5t-28.5 -20.5h12zM436 762l22 -22h164h1l-25 25v3q-1 0 -7 6q-7 3 -7 8q-3 2 -7.5 4.5t-10.5 5.5h-96q-8 -3 -17.5 -9.5t-28.5 -20.5h12zM349 312v35l-17 17h16
q3 6 7 11.5t8 5.5h120l6 -6h-17v-52h6l7 -7h-13v-4h-123zM621 673h-207q0 -7 9 -14q1 -2 8 -7h-1q2 -4 6 -8t12 -7h1l10 -10q1 -3 5 -5q2 -2 4 -3.5t6 -3.5h138l12.5 12.5t15.5 17.5l-23 23q1 1 1.5 2t2.5 3zM385 673h-207q0 -7 9 -14q1 -2 8 -7h-1q2 -4 6 -8t12 -7h1
l10 -10q1 -3 5 -5q2 -2 4 -3.5t6 -3.5h138l12.5 12.5t15.5 17.5l-23 23q1 1 1.5 2t2.5 3zM179 699l22 -22h212q0 2 -0.5 6.5t-0.5 6.5v9h3l22 -22h212q0 2 -0.5 6.5t-0.5 6.5v14l-22 22v6h-213q-4 -11 -4 -25l-19 19v6h-213q-3 -9 -3.5 -16t-0.5 -17h6zM743 511h4
q-17 17 -29 27t-22 16h-593q-10 -6 -20.5 -14.5t-30.5 -28.5h10l17 -17h-38q-6 -11 -10 -23t-7 -23h7l13 -13h-18v-49h6l11 -11h-17v-52h6l7 -7h-13v-56h6l4 -4h-10v-267h6l22 -22h295v142l-4 4h4v12h123v-136h6l22 -22h296v142l-4 4h4v56l-6 6h6v53l-10 10h10v50l-13 13h13
v46l-17 17h17v43l-19 19h19q-5 12 -9 23t-7 17l-19 19q-1 1 -1 2t-1 2h6zM342 773h-121q3 3 15 8h92q4 -2 7 -4t7 -4zM578 773h-121q3 3 15 8h92q4 -2 7 -4t7 -4zM316 7v-7h-279v7h279zM763 7v-7h-280v7h280zM201 662h162q-6 -8 -14 -14h-134q-5 3 -8 6.5t-6 7.5zM437 662
h162q-6 -8 -14 -14h-134q-5 3 -8 6.5t-6 7.5zM380 710h-196q0 9 1 11h194q0 -3 0.5 -5.5t0.5 -5.5zM616 710h-196q0 9 1 11h194q0 -3 0.5 -5.5t0.5 -5.5zM316 334h-279v30h279v-30zM763 334h-280v30h280v-30zM316 83h-279v43h279v-43zM763 83h-280v43h280v-43zM720 522h-641
q6 6 13 11t15 10h585q8 -5 15.5 -10.5t12.5 -10.5zM316 20h-279v47h279v-47zM763 20h-280v47h280v-47zM763 397h-283q-2 6 -5.5 11.5t-12.5 5.5h-124q-7 0 -12 -5.5t-8 -11.5h-281v27h726v-27zM760 459h-721q3 12 9 24h702q3 -6 5.5 -12t4.5 -12zM316 305v-4h167v4h280v-34
h-726v34h279zM763 208h-726v37h726v-37zM763 146h-280v12h-167v-12h-279v40h726v-40z" />
    <glyph glyph-name="FL00C5h" unicode="&#xc5;" 
d="M343 762l22 -22h141l-25 25v3q-1 0 -7 6q-7 3 -7 8q-3 2 -7.5 4.5t-10.5 5.5h-97q-3 -2 -5 -3l-4 -2l-7 -3l1 -3v-19h6zM349 312v35l-17 17h16q3 6 7 11.5t8 5.5h120l6 -6h-17v-52h6l7 -7h-13v-4h-123zM504 673h-207q0 -7 9 -14q1 -2 8 -7h-1q2 -4 6 -8t12 -7h1l10 -10
q1 -3 5 -5q2 -2 4 -3.5t6 -3.5h138l12.5 12.5t15.5 17.5l-23 23q1 1 1.5 2t2.5 3zM298 699l22 -22h79q0 10 17 27l-23 23l2 2q28 -20 29 -30h6l22 -22h80q0 2 -0.5 6.5t-0.5 6.5v14l-22 22v6h-213q-3 -9 -3.5 -16t-0.5 -17h6zM743 511h4q-17 17 -29 27t-22 16h-593
q-10 -6 -20.5 -14.5t-30.5 -28.5h10l17 -17h-38q-6 -11 -10 -23t-7 -23h7l13 -13h-18v-49h6l11 -11h-17v-52h6l7 -7h-13v-56h6l4 -4h-10v-267h6l22 -22h295v142l-4 4h4v12h123v-136h6l22 -22h296v142l-4 4h4v56l-6 6h6v53l-10 10h10v50l-13 13h13v46l-17 17h17v43l-19 19h19
q-5 12 -9 23t-7 17l-19 19q-1 1 -1 2t-1 2h6zM304 721h67q-5 -5 -5 -11h-63q0 9 1 11zM499 710h-65q-2 8 -6 11h70q0 -3 0.5 -5.5t0.5 -5.5zM461 773h-121q4 2 7 4t8 4h92q4 -2 7 -4t7 -4zM316 7v-7h-279v7h279zM763 7v-7h-280v7h280zM320 662h162q-6 -8 -14 -14h-134
q-5 3 -8 6.5t-6 7.5zM316 334h-279v30h279v-30zM763 334h-280v30h280v-30zM316 83h-279v43h279v-43zM763 83h-280v43h280v-43zM720 522h-641q6 6 13 11t15 10h585q8 -5 15.5 -10.5t12.5 -10.5zM316 20h-279v47h279v-47zM763 20h-280v47h280v-47zM763 397h-283
q-2 6 -5.5 11.5t-12.5 5.5h-124q-7 0 -12 -5.5t-8 -11.5h-281v27h726v-27zM760 459h-721q3 12 9 24h702q3 -6 5.5 -12t4.5 -12zM316 305v-4h167v4h280v-34h-726v34h279zM763 208h-726v37h726v-37zM763 146h-280v12h-167v-12h-279v40h726v-40z" />
    <glyph glyph-name="FL00C6h" unicode="&#xc6;" horiz-adv-x="1389" 
d="M349 312v35l-17 17h16q3 6 7 11.5t8 5.5h120l6 -6h-17v-52h6l7 -7h-13v-4h-123zM1363 362h-346q-6 0 -8 2h12q3 7 7 12t7 5h350v26l-19 19h19v40l-22 22v1h22v37l-22 22v6h-585q-8 -5 -17.5 -12.5t-22.5 -20.5q-30 25 -42 33h-593q-10 -6 -20.5 -14.5t-30.5 -28.5h10
l17 -17h-38q-6 -11 -10 -23t-7 -23h7l13 -13h-18v-49h6l11 -11h-17v-52h6l7 -7h-13v-56h6l4 -4h-10v-267h6l22 -22h295v142l-4 4h4v12h123v-136h6l22 -22h296v20h10l11 -11q24 -9 47 -9h521v142l-4 4h4v17l-22 22v6h-339q2 1 4 3.5t7 7.5l-6 6h356v53l-10 10h10v50l-13 13
h13v33l-22 22v6zM316 7v-7h-279v7h279zM763 7v-7h-280v7h280zM1352 0h-513q-26 0 -41 7h554v-7zM316 334h-279v30h279v-30zM316 83h-279v43h279v-43zM1352 522h-597q12 12 27 21h570v-21zM107 543h585q10 -6 28 -21h-641q6 6 13 11t15 10zM316 20h-279v47h279v-47zM1017 351
h335v-17h-869v30h510q7 -13 24 -13zM1352 414h-342q-6 0 -11 -5t-8 -12h-511q-2 6 -5.5 11.5t-12.5 5.5h-124q-7 0 -12 -5.5t-8 -11.5h-281v27h1315v-10zM1352 459h-1313q3 12 9 24h1304v-24zM1010 147h342v-1h-869v12h-167v-12h-279v40h953q-1 -1 -1 -2t-0.5 -3t-0.5 -4
t0.5 -4t0.5 -3q3 -6 11 -14.5t10 -8.5zM1352 83h-869v43h869v-43zM763 28v-8h-280v47h869v-47h-579q-3 2 -5.5 4t-4.5 4zM316 305v-4h167v4h869v-34h-1315v34h279zM1352 245v-37h-1315v37h1315z" />
    <glyph glyph-name="FL00C7h" unicode="&#xc7;" horiz-adv-x="717" 
d="M126 -13h11l11 -11q24 -9 44 -9h141v-8h-83v-127h6l22 -22h232v157h197v142l-4 4h4v17l-22 22v6h-335v11l-6 6h6v53l-10 10h10v50l-13 13h13v46l-17 17h16q3 7 6.5 12t7.5 5h350v26l-19 19h19v40l-22 22v1h22v37l-22 22v6h-584q-8 -5 -20.5 -15t-32.5 -28h11l17 -17h-35
q-5 -11 -9.5 -22.5t-9.5 -23.5h8l13 -13h-23v-49h6l11 -11h-17v-52h6l7 -7h-13v-56h6l4 -4h-10v-133q0 -24 10 -45h-3q14 -23 29 -39t31 -27q8 -8 16.5 -14t16.5 -11zM317 334h-280v30h280v-30zM477 -42h-133v42h-177q-23 0 -38 7h545v-7h-197v-42zM317 271h-280v34h280v-34
zM477 -112v-45h-216v45h216zM317 208h-280v37h280v-37zM319 397h-282v21v6h643v-10h-342q-7 0 -11.5 -5t-7.5 -12zM477 -105h-216v53h216v-53zM317 186v-16q1 -10 7 -16.5t14 -6.5h336v-1h-637v40h280zM680 522h-597q18 15 28 21h569v-21zM680 459h-636q2 6 4.5 12t5.5 12
h626v-24zM674 83h-628q-9 19 -9 40v3h637v-43zM674 20h-571q-14 9 -27 21t-22 26h620v-47z" />
    <glyph glyph-name="FL00C8h" unicode="&#xc8;" horiz-adv-x="717" 
d="M384 788l-4 4h-87l-5 -5h-1q-4 -4 -5.5 -7t-9.5 -18h8l22 -22h121l-16 21l-10 9zM447 673h-156l31 -36h4l22 -22h104q4 7 15 30l-22 22q1 1 1 3t1 3zM425 732h-163q0 -14 1 -20.5t3 -12.5h5l22 -22h173q-5 8 -9 15t-8 12l-14 14q-3 4 -5.5 7.5t-4.5 6.5zM43 375h-17v-52
h6l7 -7h-13v-56h6l4 -4h-10v-133q0 -24 10 -45h-3q14 -23 29 -39t31 -27q8 -8 16.5 -14t16.5 -11h11l11 -11q24 -9 44 -9h521v142l-4 4h4v17l-22 22v6h-339q2 1 4 3.5t7 7.5l-6 6h356v53l-10 10h10v50l-13 13h13v33l-22 22v6h-346q-6 0 -8 2h12q3 7 7 12t7 5h350v26l-19 19
h19v40l-22 22v1h22v37l-22 22v6h-584q-8 -5 -20.5 -15t-32.5 -28h11l17 -17h-35q-5 -11 -9.5 -22.5t-9.5 -23.5h8l13 -13h-23v-49h6zM375 781l4 -4l3 -4h-92q1 2 2 2.5t3 2.5l3 3h77zM314 662h117q-2 -4 -4 -7t-4 -7h-97zM273 721h147q4 -4 5.5 -6.5t2.5 -4.5h-153
q-2 10 -2 11zM680 7v-7h-513q-23 0 -38 7h551zM680 424v-10h-342q-6 0 -11 -5t-8 -12h-282v21v6h643zM37 186h281q-1 -1 -1 -2t-0.5 -3t-0.5 -4t0.5 -4t0.5 -3q3 -6 11 -14.5t10 -8.5h342v-1h-643v40zM680 522h-597q18 15 28 21h569v-21zM37 364h284q7 -13 24 -13h335v-17
h-643v30zM680 459h-636q2 6 4.5 12t5.5 12h626v-24zM680 271h-643v34h643v-34zM680 245v-37h-643v37h643zM680 83h-634q-9 19 -9 40v3h643v-43zM680 20h-577q-14 9 -27 21t-22 26h626v-47z" />
    <glyph glyph-name="FL00C9h" unicode="&#xc9;" horiz-adv-x="717" 
d="M482 762h4l-30 30h-88l-4 -4q-5 -5 -5 -7l-14 -19h9l22 -22h128zM326 637l22 -22h103l26 30l-23 23l4 5h-156q2 -6 6.5 -15.5t13.5 -20.5h4zM492 732h-170q-3 -3 -5 -7l-2 -4q-1 -1 -6 -6.5t-15 -15.5h10l22 -22h176q6 6 6 12l5 15l-23 22zM43 375h-17v-52h6l7 -7h-13
v-56h6l4 -4h-10v-133q0 -24 10 -45h-3q14 -23 29 -39t31 -27q8 -8 16.5 -14t16.5 -11h11l11 -11q24 -9 44 -9h521v142l-4 4h4v17l-22 22v6h-339q2 1 4 3.5t7 7.5l-6 6h356v53l-10 10h10v50l-13 13h13v33l-22 22v6h-346q-6 0 -8 2h12q3 7 7 12t7 5h350v26l-19 19h19v40
l-22 22v1h22v37l-22 22v6h-584q-8 -5 -20.5 -15t-32.5 -28h11l17 -17h-35q-5 -11 -9.5 -22.5t-9.5 -23.5h8l13 -13h-23v-49h6zM459 773h-92l3 4q1 1 1.5 2t1.5 2h78l3 -3zM423 648h-97q-7 9 -8 14h117zM328 721h148q-1 -2 -1 -7q0 -2 -2 -4h-152q2 2 3.5 5t3.5 6zM680 7v-7
h-513q-23 0 -38 7h551zM680 424v-10h-342q-6 0 -11 -5t-8 -12h-282v21v6h643zM37 186h281q-1 -1 -1 -2t-0.5 -3t-0.5 -4t0.5 -4t0.5 -3q3 -6 11 -14.5t10 -8.5h342v-1h-643v40zM680 522h-597q18 15 28 21h569v-21zM37 364h284q7 -13 24 -13h335v-17h-643v30zM680 459h-636
q2 6 4.5 12t5.5 12h626v-24zM680 271h-643v34h643v-34zM680 208h-342h-1h-300v37h643v-37zM680 83h-634q-9 19 -9 40v3h643v-43zM680 20h-577q-14 9 -27 21t-22 26h626v-47z" />
    <glyph glyph-name="FL00CAh" unicode="&#xca;" horiz-adv-x="717" 
d="M360 668l2 3l12 -17zM246 762l22 -22h238l-18 24l-11 11l-13 17h-204l-23 -30h9zM199 699l22 -22h332l-19 27l-14 13l-10 15h-296l-24 -33h9zM151 637l22 -22h189l19 28l5 -6h4l22 -22h189l-21 30l-15 15l-9 13h-388l-26 -36h9zM43 375h-17v-52h6l7 -7h-13v-56h6l4 -4
h-10v-133q0 -24 10 -45h-3q14 -23 29 -39t31 -27q8 -8 16.5 -14t16.5 -11h11l11 -11q24 -9 44 -9h521v142l-4 4h4v17l-22 22v6h-339q2 1 4 3.5t7 7.5l-6 6h356v53l-10 10h10v50l-13 13h13v33l-22 22v6h-346q-6 0 -8 2h12q3 7 7 12t7 5h350v26l-19 19h19v40l-22 22v1h22v37
l-22 22v6h-584q-8 -5 -20.5 -15t-32.5 -28h11l17 -17h-35q-5 -11 -9.5 -22.5t-9.5 -23.5h8l13 -13h-23v-49h6zM465 773h-206l6 8h194zM332 648h-168l10 14h168zM560 648h-168l-10 14h168zM513 710h-302l8 11h286zM680 7v-7h-513q-23 0 -38 7h551zM680 424v-10h-342
q-6 0 -11 -5t-8 -12h-282v21v6h643zM37 186h281q-1 -1 -1 -2t-0.5 -3t-0.5 -4t0.5 -4t0.5 -3q3 -6 11 -14.5t10 -8.5h342v-1h-643v40zM680 522h-597q18 15 28 21h569v-21zM37 364h284q7 -13 24 -13h335v-17h-643v30zM680 459h-636q2 6 4.5 12t5.5 12h626v-24zM680 271h-643
v34h643v-34zM680 245v-37h-643v37h643zM680 83h-634q-9 19 -9 40v3h643v-43zM680 20h-577q-14 9 -27 21t-22 26h626v-47z" />
    <glyph glyph-name="FL00CBh" unicode="&#xcb;" horiz-adv-x="717" 
d="M162 762l22 -22h165l-25 25v3q-1 0 -7 6q-7 3 -7 8q-3 2 -7.5 4.5t-10.5 5.5h-96q-8 -3 -17.5 -9.5t-28.5 -20.5h12zM398 762l22 -22h165l-25 25v3q-1 0 -7 6q-7 3 -7 8q-3 2 -7.5 4.5t-10.5 5.5h-96q-8 -3 -17.5 -9.5t-28.5 -20.5h12zM583 673h-207q0 -7 9 -14
q1 -2 8 -7h-1q2 -4 6 -8t12 -7h1l10 -10q1 -3 5 -5q2 -2 4 -3.5t6 -3.5h138l12.5 12.5t15.5 17.5l-23 23q1 1 1.5 2t2.5 3zM347 673h-207q0 -7 9 -14q1 -2 8 -7h-1q2 -4 6 -8t12 -7h1l10 -10q1 -3 5 -5q2 -2 4 -3.5t6 -3.5h138l12.5 12.5t15.5 17.5l-23 23q1 1 1.5 2t2.5 3z
M141 699l22 -22h212q0 2 -0.5 6.5t-0.5 6.5v9h3l22 -22h212q0 2 -0.5 6.5t-0.5 6.5v14l-22 22v6h-213q-4 -11 -4 -25l-19 19v6h-213q-3 -9 -3.5 -16t-0.5 -17h6zM43 375h-17v-52h6l7 -7h-13v-56h6l4 -4h-10v-133q0 -24 10 -45h-3q14 -23 29 -39t31 -27q8 -8 16.5 -14
t16.5 -11h11l11 -11q24 -9 44 -9h521v142l-4 4h4v17l-22 22v6h-339q2 1 4 3.5t7 7.5l-6 6h356v53l-10 10h10v50l-13 13h13v33l-22 22v6h-346q-6 0 -8 2h12q3 7 7 12t7 5h350v26l-19 19h19v40l-22 22v1h22v37l-22 22v6h-584q-8 -5 -20.5 -15t-32.5 -28h11l17 -17h-35
q-5 -11 -9.5 -22.5t-9.5 -23.5h8l13 -13h-23v-49h6zM540 773h-121q3 3 15 8h92q4 -2 7 -4t7 -4zM304 773h-121q3 3 15 8h92q4 -2 7 -4t7 -4zM163 662h162q-6 -8 -14 -14h-134q-5 3 -8 6.5t-6 7.5zM399 662h162q-6 -8 -14 -14h-134q-5 3 -8 6.5t-6 7.5zM578 710h-196
q0 9 1 11h194q0 -3 0.5 -5.5t0.5 -5.5zM342 710h-196q0 9 1 11h194q0 -3 0.5 -5.5t0.5 -5.5zM680 7v-7h-513q-23 0 -38 7h551zM680 424v-10h-342q-6 0 -11 -5t-8 -12h-282v21v6h643zM37 186h281q-1 -1 -1 -2t-0.5 -3t-0.5 -4t0.5 -4t0.5 -3q3 -6 11 -14.5t10 -8.5h342v-1
h-643v40zM680 522h-597q18 15 28 21h569v-21zM37 364h284q7 -13 24 -13h335v-17h-643v30zM680 459h-636q2 6 4.5 12t5.5 12h626v-24zM680 271h-643v34h643v-34zM680 245v-37h-643v37h643zM680 83h-634q-9 19 -9 40v3h643v-43zM680 20h-577q-14 9 -27 21t-22 26h626v-47z" />
    <glyph glyph-name="FL00CCh" unicode="&#xcc;" horiz-adv-x="738" 
d="M395 788l-4 4h-87l-5 -5h-1q-4 -4 -5.5 -7t-9.5 -18h8l22 -22h121l-16 21l-10 9zM458 673h-156l31 -36h4l22 -22h104q4 7 15 30l-22 22q1 1 1 3t1 3zM436 732h-163q0 -14 1 -20.5t3 -12.5h5l22 -22h173q-5 8 -9 15t-8 12l-14 14q-3 4 -5.5 7.5t-4.5 6.5zM543 158v11l-6 6
h6v53l-10 10h10v50l-13 13h13v46l-17 17h17v17h190v26l-19 19h19v40l-22 22v1h22v37l-22 22v6h-685v-43h6l17 -17h-23v-46h6l13 -13h-19v-32h6l22 -22h176l6 -6h-17v-52h6l7 -7h-13v-56h6l4 -4h-10v-98h-192v-169h6l22 -22h679v142l-4 4h4v17l-22 22v6h-169zM386 781l4 -4
l3 -4h-92q1 2 2 2.5t3 2.5l3 3h77zM325 662h117q-2 -4 -4 -7t-4 -7h-97zM284 721h147q4 -4 5.5 -6.5t2.5 -4.5h-153q-2 10 -2 11zM701 7v-7h-663v7h663zM510 334h-280v30h280v-30zM510 271h-280v34h280v-34zM510 208h-280v37h280v-37zM700 414h-190v-17h-280v17h-193v10h663
v-10zM510 147h191v-1h-663v1h192v39h280v-39zM700 522h-663v21h663v-21zM700 459h-663v24h663v-24zM701 83h-663v43h663v-43zM701 20h-663v47h663v-47z" />
    <glyph glyph-name="FL00CDh" unicode="&#xcd;" horiz-adv-x="738" 
d="M460 762h4l-30 30h-88l-4 -4q-5 -5 -5 -7l-14 -19h9l22 -22h128zM304 637l22 -22h103l26 30l-23 23l4 5h-156q2 -6 6.5 -15.5t13.5 -20.5h4zM470 732h-170q-3 -3 -5 -7l-2 -4q-1 -1 -6 -6.5t-15 -15.5h10l22 -22h176q6 6 6 12l5 15l-23 22zM541 158v11l-6 6h6v53l-10 10
h10v50l-13 13h13v46l-17 17h17v17h193v26l-19 19h19v40l-22 22v1h22v37l-22 22v6h-685v-43h6l17 -17h-23v-46h6l13 -13h-19v-32h6l22 -22h173l6 -6h-17v-52h6l7 -7h-13v-56h6l4 -4h-10v-98h-191v-169h6l22 -22h679v142l-4 4h4v17l-22 22v6h-170zM437 773h-92l3 4q1 1 1.5 2
t1.5 2h78l3 -3zM401 648h-97q-7 9 -8 14h117zM306 721h148q-1 -2 -1 -7q0 -2 -2 -4h-152q2 2 3.5 5t3.5 6zM700 7v-7h-663v7h663zM508 334h-280v30h280v-30zM508 271h-280v34h280v-34zM508 208h-280v37h280v-37zM701 414h-193v-17h-280v17h-190v10h663v-10zM37 146v1h191v39
h280v-39h192v-1h-663zM701 522h-663v21h663v-21zM701 459h-663v24h663v-24zM700 83h-663v43h663v-43zM700 20h-663v47h663v-47z" />
    <glyph glyph-name="FL00CEh" unicode="&#xce;" horiz-adv-x="738" 
d="M363 668l2 3l12 -17zM249 762l22 -22h238l-18 24l-11 11l-13 17h-204l-23 -30h9zM202 699l22 -22h332l-19 27l-14 13l-10 15h-296l-24 -33h9zM154 637l22 -22h189l19 28l5 -6h4l22 -22h189l-21 30l-15 15l-9 13h-388l-26 -36h9zM541 158v11l-6 6h6v53l-10 10h10v50
l-13 13h13v46l-17 17h17v17h193v26l-19 19h19v40l-22 22v1h22v37l-22 22v6h-685v-43h6l17 -17h-23v-46h6l13 -13h-19v-32h6l22 -22h173l6 -6h-17v-52h6l7 -7h-13v-56h6l4 -4h-10v-98h-191v-169h6l22 -22h679v142l-4 4h4v17l-22 22v6h-170zM468 773h-206l6 8h194zM335 648
h-168l10 14h168zM563 648h-168l-10 14h168zM516 710h-302l8 11h286zM700 7v-7h-663v7h663zM508 334h-280v30h280v-30zM508 271h-280v34h280v-34zM508 208h-280v37h280v-37zM701 414h-193v-17h-280v17h-190v10h663v-10zM37 146v1h191v39h280v-39h192v-1h-663zM701 522h-663
v21h663v-21zM701 459h-663v24h663v-24zM700 83h-663v43h663v-43zM700 20h-663v47h663v-47z" />
    <glyph glyph-name="FL00CFh" unicode="&#xcf;" horiz-adv-x="738" 
d="M400 762l22 -22h165l-25 25v3q-1 0 -7 6q-7 3 -7 8q-3 2 -7.5 4.5t-10.5 5.5h-96q-8 -3 -17.5 -9.5t-28.5 -20.5h12zM164 762l22 -22h165l-25 25v3q-1 0 -7 6q-7 3 -7 8q-3 2 -7.5 4.5t-10.5 5.5h-96q-8 -3 -17.5 -9.5t-28.5 -20.5h12zM585 673h-207q0 -7 9 -14
q1 -2 8 -7h-1q2 -4 6 -8t12 -7h1l10 -10q1 -3 5 -5q2 -2 4 -3.5t6 -3.5h138l12.5 12.5t15.5 17.5l-23 23q1 1 1.5 2t2.5 3zM349 673h-207q0 -7 9 -14q1 -2 8 -7h-1q2 -4 6 -8t12 -7h1l10 -10q1 -3 5 -5q2 -2 4 -3.5t6 -3.5h138l12.5 12.5t15.5 17.5l-23 23q1 1 1.5 2t2.5 3z
M143 699l22 -22h212q0 2 -0.5 6.5t-0.5 6.5v9h3l22 -22h212q0 2 -0.5 6.5t-0.5 6.5v14l-22 22v6h-213q-4 -11 -4 -25l-19 19v6h-213q-3 -9 -3.5 -16t-0.5 -17h6zM541 158v11l-6 6h6v53l-10 10h10v50l-13 13h13v46l-17 17h17v17h193v26l-19 19h19v40l-22 22v1h22v37l-22 22v6
h-685v-43h6l17 -17h-23v-46h6l13 -13h-19v-32h6l22 -22h173l6 -6h-17v-52h6l7 -7h-13v-56h6l4 -4h-10v-98h-191v-169h6l22 -22h679v142l-4 4h4v17l-22 22v6h-170zM306 773h-121q3 3 15 8h92q4 -2 7 -4t7 -4zM542 773h-121q3 3 15 8h92q4 -2 7 -4t7 -4zM401 662h162
q-6 -8 -14 -14h-134q-5 3 -8 6.5t-6 7.5zM165 662h162q-6 -8 -14 -14h-134q-5 3 -8 6.5t-6 7.5zM344 710h-196q0 9 1 11h194q0 -3 0.5 -5.5t0.5 -5.5zM580 710h-196q0 9 1 11h194q0 -3 0.5 -5.5t0.5 -5.5zM700 7v-7h-663v7h663zM508 334h-280v30h280v-30zM508 271h-280v34
h280v-34zM508 208h-280v37h280v-37zM701 414h-193v-17h-280v17h-190v10h663v-10zM37 146v1h191v39h280v-39h192v-1h-663zM701 522h-663v21h663v-21zM701 459h-663v24h663v-24zM700 83h-663v43h663v-43zM700 20h-663v47h663v-47z" />
    <glyph glyph-name="FL00D0h" unicode="&#xd0;" horiz-adv-x="854" 
d="M411 161v8l-6 6h61v53l-10 10h10v50l-13 13h13v33l-22 22v6h-48l-2 2h17v6h106q5 -14 6.5 -25t1.5 -22h6l7 -7h-12v-56h6l4 -4h-10v-30q0 1 -1.5 -8.5t-3.5 -20.5h2q-5 -16 -15 -26t-27 -10h-70zM760 554h-673v-43h6l17 -17h-23v-46h6l13 -13h-19v-49h6l11 -11h-17v-13
h-61v-39h6l7 -7h-13v-56h6l4 -4h-10v-59h6l22 -22h33v-186h6l22 -22h630q16 0 35 10l-3 10h19q27 22 48 63l-1 1q3 10 5 18t2 16v24l-4 4h4v56l-6 6h6v53l-10 10h10v50l-13 13h13v46l-17 17h17v43l-19 19h16q-3 12 -6.5 22t-7.5 18l-19 18q0 -1 -2 5h6q-8 10 -13 16.5
t-10 11.5l-4 3q-23 29 -31 34zM720 0h-622v7h650q-13 -7 -28 -7zM817 334h-281q0 19 -4 30h285v-30zM817 271h-280v34h280v-34zM37 351h61v13h280v-13h55v-17h-396v17zM817 208h-282q1 5 1.5 9t0.5 9v19h280v-37zM433 271h-396v34h396v-34zM98 543h657q5 -4 11 -9t11 -12
h-679v21zM433 245v-37h-396v37h396zM98 483h705q6 -12 9 -24h-714v24zM495 403h-117v-6h-280v27h719v-27h-303q-4 2 -9 4t-10 2zM378 150h103q22 0 33.5 10t16.5 26h286v-40h-719v40h280v-36zM817 126v-16q0 -9 -5 -27h-714v43h719zM98 67h708q-17 -32 -37 -47h-671v47z" />
    <glyph glyph-name="FL00D1h" unicode="&#xd1;" 
d="M756 497l1 -1q0 1 -1 1zM363 668l2 3l12 -17zM250 762l22 -22h172l-18 24l-11 11l-13 17h-138l-23 -30h9zM454 762l22 -22h188l18 24l-23 23l4 5h-195l-23 -30h9zM203 699l22 -22h391l19 27l-23 23l4 5h-398l-24 -33h9zM155 637l22 -22h188l19 28l5 -6h4l22 -22h155
l21 30l-24 23l4 5h-399l-26 -36h9zM697 554h-671v-43h6l17 -17h-23v-46h6l13 -13h-19v-49h6l11 -11h-17v-52h6l7 -7h-13v-56h6l4 -4h-10v-267h6l22 -22h295v142l-4 4h4v56l-6 6h6v53l-10 10h10v50l-13 13h13v46l-17 17h17v17h134l6 -6h-17v-52h6l7 -7h-13v-56h6l4 -4h-10
v-267h6l22 -22h296v142l-4 4h4v56l-6 6h6v53l-10 10h10v50l-13 13h13v46l-17 17h17v43l-19 19h18q-3 12 -6.5 22t-7.5 18l-19 18q0 -1 -2 5h5l-8 7l-1 1l-13 14h4q-17 17 -29.5 27.5t-20.5 15.5zM403 773h-140l6 8h128zM635 773h-168l6 8h168zM316 7v-7h-279v7h279zM763 7
v-7h-280v7h280zM540 648h-145l-10 14h165zM335 648h-167l10 14h167zM587 710h-372l8 11h372zM316 334h-279v30h279v-30zM763 334h-280v30h280v-30zM316 271h-279v34h279v-34zM763 271h-280v34h280v-34zM316 208h-279v37h279v-37zM763 208h-280v37h280v-37zM316 146h-279v40
h279v-40zM763 146h-280v40h280v-40zM316 83h-279v43h279v-43zM763 83h-280v43h280v-43zM316 20h-279v47h279v-47zM763 20h-280v47h280v-47zM37 543h656q15 -9 27 -21h-683v21zM462 414h-146v-17h-279v27h726v-27h-283q-2 6 -5.5 11.5t-12.5 5.5zM37 483h714q6 -12 9 -24
h-723v24z" />
    <glyph glyph-name="FL00D2h" unicode="&#xd2;" 
d="M427 788l-4 4h-87l-5 -5h-1q-4 -4 -5.5 -7t-9.5 -18h8l22 -22h121l-16 21l-10 9zM490 673h-156l31 -36h4l22 -22h104q4 7 15 30l-22 22q1 1 1 3t1 3zM468 732h-163q0 -14 1 -20.5t3 -12.5h5l22 -22h173q-5 8 -9 15t-8 12l-14 14q-3 4 -5.5 7.5t-4.5 6.5zM349 158v11l-6 6
h6v53l-10 10h10v50l-13 13h13v46l-17 17h18q5 15 13 17h121l6 -6h-17v-52h6l7 -7h-13v-56h6l4 -4h-10v-83q-2 -5 -5.5 -10t-5.5 -5h-113zM693 554h-586q-8 -5 -20.5 -15t-32.5 -28h11l17 -17h-35q-5 -11 -9.5 -22.5t-9.5 -23.5h8l13 -13h-23v-49h6l11 -11h-17v-52h6l7 -7
h-13v-56h6l4 -4h-10v-133q0 -24 10 -45h-3q14 -23 29 -39t31 -27q8 -8 16.5 -14t16.5 -11h11l11 -11q24 -9 44 -9h466q20 0 44 9l-3 11h25q36 24 61 63h-1q5 13 8.5 25t3.5 23v11l-4 4h4v56l-6 6h6v53l-10 10h10v50l-13 13h13v46l-17 17h17v43l-19 19h15q-7 18 -10.5 26
t-6.5 14l-19 18l-1 1v1q0 2 -1 3h7l-22 22h4q-17 17 -29.5 27.5t-20.5 15.5zM418 781l4 -4l3 -4h-92q1 2 2 2.5t3 2.5l3 3h77zM357 662h117q-2 -4 -4 -7t-4 -7h-97zM316 721h147q4 -4 5.5 -6.5t2.5 -4.5h-153q-2 10 -2 11zM129 7h542q-15 -7 -38 -7h-466q-23 0 -38 7z
M763 334h-279v30h279v-30zM316 334h-279v30h279v-30zM763 271h-279v34h279v-34zM316 271h-279v34h279v-34zM763 208h-279v37h279v-37zM316 208h-279v37h279v-37zM111 543h578q15 -9 27 -21h-633q18 15 28 21zM54 483h691l6 -12t5 -12h-712q2 6 4.5 12t5.5 12zM37 424h726v-6
v-21h-282q-3 7 -7.5 12t-11.5 5h-126q-12 -3 -17 -17h-282v21v6zM316 186v-16q1 -5 5 -14t17 -9h124q6 0 12.5 8.5t9.5 14.5v16h279v-40h-726v40h279zM54 67h691q-17 -28 -48 -47h-594q-14 9 -27 21t-22 26zM763 126v-3q0 -11 -2.5 -20.5t-6.5 -19.5h-708q-9 19 -9 40v3h726
z" />
    <glyph glyph-name="FL00D3h" unicode="&#xd3;" 
d="M490 762h4l-30 30h-88q-2 -2 -3 -2.5t-2 -2.5q-4 -4 -4 -6l-14 -19h9l22 -22h128zM334 637l22 -22h103l26 30l-23 23l4 5h-156q2 -6 6.5 -15.5t13.5 -20.5h4zM500 732h-170q-3 -3 -5 -7l-2 -4q-1 -1 -6 -6.5t-15 -15.5h10l22 -22h176q6 6 6 12l5 15l-23 22zM349 158v11
l-6 6h6v53l-10 10h10v50l-13 13h13v46l-17 17h18q5 14 12 17h122l6 -6h-17v-52h6l7 -7h-13v-56h6l4 -4h-10v-83q-2 -5 -5.5 -10t-5.5 -5h-113zM693 554h-586q-8 -5 -20.5 -15t-32.5 -28h11l17 -17h-35q-5 -11 -9.5 -22.5t-9.5 -23.5h8l13 -13h-23v-49h6l11 -11h-17v-52h6
l7 -7h-13v-56h6l4 -4h-10v-133q0 -24 10 -45h-3q14 -23 29 -39t31 -27q8 -8 16.5 -14t16.5 -11h11l11 -11q24 -9 44 -9h466q20 0 44 9l-3 11h25q36 24 61 63h-1q5 13 8.5 25t3.5 23v11l-4 4h4v56l-6 6h6v53l-10 10h10v50l-13 13h13v46l-17 17h17v43l-19 19h15
q-7 18 -10.5 26t-6.5 14l-19 18l-1 1v1q0 2 -1 3h7l-22 22h4q-17 17 -29.5 27.5t-20.5 15.5zM467 773h-92l3 4q1 1 1.5 2t1.5 2h78l3 -3zM431 648h-97q-7 9 -8 14h117zM336 721h148q-1 -2 -1 -7q0 -2 -2 -4h-152q2 2 3.5 5t3.5 6zM129 7h542q-15 -7 -38 -7h-466q-23 0 -38 7
zM316 334h-279v30h279v-30zM763 334h-279v30h279v-30zM763 271h-279v34h279v-34zM316 271h-279v34h279v-34zM763 208h-279v37h279v-37zM316 208h-279v37h279v-37zM111 543h578q15 -9 27 -21h-633q18 15 28 21zM54 483h691l6 -12t5 -12h-712q2 6 4.5 12t5.5 12zM37 424h726
v-6v-21h-282q-3 7 -7.5 12t-11.5 5h-126q-12 -3 -17 -17h-282v21v6zM316 186v-16q1 -5 5 -14t17 -9h124q6 0 12.5 8.5t9.5 14.5v16h279v-40h-726v40h279zM54 67h691q-17 -28 -48 -47h-594q-14 9 -27 21t-22 26zM763 126v-3q0 -11 -2.5 -20.5t-6.5 -19.5h-708q-9 19 -9 40v3
h726z" />
    <glyph glyph-name="FL00D4h" unicode="&#xd4;" 
d="M398 668l2 3l12 -17zM284 762l22 -22h238l-18 24l-11 11l-13 17h-204l-23 -30h9zM237 699l22 -22h332l-19 27l-14 13l-10 15h-296l-24 -33h9zM189 637l22 -22h189l19 28l5 -6h4l22 -22h189l-21 30l-15 15l-9 13h-388l-26 -36h9zM349 158v11l-6 6h6v53l-10 10h10v50
l-13 13h13v46l-17 17h18q5 14 12 17h122l6 -6h-17v-52h6l7 -7h-13v-56h6l4 -4h-10v-83q-2 -5 -5.5 -10t-5.5 -5h-113zM693 554h-586q-8 -5 -20.5 -15t-32.5 -28h11l17 -17h-35q-5 -11 -9.5 -22.5t-9.5 -23.5h8l13 -13h-23v-49h6l11 -11h-17v-52h6l7 -7h-13v-56h6l4 -4h-10
v-133q0 -24 10 -45h-3q14 -23 29 -39t31 -27q8 -8 16.5 -14t16.5 -11h11l11 -11q24 -9 44 -9h466q20 0 44 9l-3 11h25q36 24 61 63h-1q5 13 8.5 25t3.5 23v11l-4 4h4v56l-6 6h6v53l-10 10h10v50l-13 13h13v46l-17 17h17v43l-19 19h15q-7 18 -10.5 26t-6.5 14l-19 18l-1 1v1
q0 2 -1 3h7l-22 22h4q-17 17 -29.5 27.5t-20.5 15.5zM503 773h-206l6 8h194zM370 648h-168l10 14h168zM598 648h-168l-10 14h168zM551 710h-302l8 11h286zM129 7h542q-15 -7 -38 -7h-466q-23 0 -38 7zM763 334h-279v30h279v-30zM316 334h-279v30h279v-30zM763 271h-279v34
h279v-34zM316 271h-279v34h279v-34zM763 208h-279v37h279v-37zM316 208h-279v37h279v-37zM111 543h578q15 -9 27 -21h-633q18 15 28 21zM54 483h691l6 -12t5 -12h-712q2 6 4.5 12t5.5 12zM37 424h726v-6v-21h-282q-3 7 -7.5 12t-11.5 5h-126q-12 -3 -17 -17h-282v21v6z
M316 186v-16q1 -5 5 -14t17 -9h124q6 0 12.5 8.5t9.5 14.5v16h279v-40h-726v40h279zM54 67h691q-17 -28 -48 -47h-594q-14 9 -27 21t-22 26zM763 126v-3q0 -11 -2.5 -20.5t-6.5 -19.5h-708q-9 19 -9 40v3h726z" />
    <glyph glyph-name="FL00D5h" unicode="&#xd5;" 
d="M363 668l2 3l12 -17zM250 762l22 -22h172l-18 24l-11 11l-13 17h-138l-23 -30h9zM454 762l22 -22h188l18 24l-23 23l4 5h-195l-23 -30h9zM203 699l22 -22h391l19 27l-23 23l4 5h-398l-24 -33h9zM155 637l22 -22h188l19 28l5 -6h4l22 -22h155l21 30l-24 23l4 5h-399
l-26 -36h9zM349 158v11l-6 6h6v53l-10 10h10v50l-13 13h13v46l-17 17h18q5 15 13 17h121l6 -6h-17v-52h6l7 -7h-13v-56h6l4 -4h-10v-83q-2 -5 -5.5 -10t-5.5 -5h-113zM739 511h4q-17 17 -29.5 27.5t-20.5 15.5h-586q-8 -5 -20.5 -15t-32.5 -28h11l17 -17h-35
q-5 -11 -9.5 -22.5t-9.5 -23.5h8l13 -13h-23v-49h6l11 -11h-17v-52h6l7 -7h-13v-56h6l4 -4h-10v-133q0 -24 10 -45h-3q14 -23 29 -39t31 -27q8 -8 16.5 -14t16.5 -11h11l11 -11q24 -9 44 -9h466q20 0 44 9l-3 11h25q36 24 61 63h-1q5 13 8.5 25t3.5 23v11l-4 4h4v56l-6 6h6
v53l-10 10h10v50l-13 13h13v46l-17 17h17v43l-19 19h15q-7 18 -10.5 26t-6.5 14l-19 18l-1 1v1q0 2 -1 3h7zM403 773h-140l6 8h128zM635 773h-168l6 8h168zM540 648h-145l-10 14h165zM335 648h-167l10 14h167zM633 0h-466q-23 0 -38 7h542q-15 -7 -38 -7zM587 710h-372l8 11
h372zM763 334h-279v30h279v-30zM316 334h-279v30h279v-30zM763 271h-279v34h279v-34zM316 271h-279v34h279v-34zM763 208h-279v37h279v-37zM316 208h-279v37h279v-37zM716 522h-633q18 15 28 21h578q15 -9 27 -21zM756 459h-712q2 6 4.5 12t5.5 12h691l6 -12t5 -12zM462 414
h-126q-12 -3 -17 -17h-282v21v6h726v-6v-21h-282q-3 7 -7.5 12t-11.5 5zM316 186v-16q1 -5 5 -14t17 -9h124q6 0 12.5 8.5t9.5 14.5v16h279v-40h-726v40h279zM697 20h-594q-14 9 -27 21t-22 26h691q-17 -28 -48 -47zM754 83h-708q-9 19 -9 40v3h726v-3q0 -11 -2.5 -20.5
t-6.5 -19.5z" />
    <glyph glyph-name="FL00D6h" unicode="&#xd6;" 
d="M200 762l22 -22h165l-25 25v3q-1 0 -7 6q-7 3 -7 8q-3 2 -7.5 4.5t-10.5 5.5h-96q-8 -3 -17.5 -9.5t-28.5 -20.5h12zM436 762l22 -22h164h1l-25 25v3q-1 0 -7 6q-7 3 -7 8q-3 2 -7.5 4.5t-10.5 5.5h-96q-8 -3 -17.5 -9.5t-28.5 -20.5h12zM621 673h-207q0 -7 9 -14
q1 -2 8 -7h-1q2 -4 6 -8t12 -7h1l10 -10q1 -3 5 -5q2 -2 4 -3.5t6 -3.5h138l12.5 12.5t15.5 17.5l-23 23q1 1 1.5 2t2.5 3zM385 673h-207q0 -7 9 -14q1 -2 8 -7h-1q2 -4 6 -8t12 -7h1l10 -10q1 -3 5 -5q2 -2 4 -3.5t6 -3.5h138l12.5 12.5t15.5 17.5l-23 23q1 1 1.5 2t2.5 3z
M179 699l22 -22h212q0 2 -0.5 6.5t-0.5 6.5v9h3l22 -22h212q0 2 -0.5 6.5t-0.5 6.5v14l-22 22v6h-213q-4 -11 -4 -25l-19 19v6h-213q-3 -9 -3.5 -16t-0.5 -17h6zM349 158v11l-6 6h6v53l-10 10h10v50l-13 13h13v46l-17 17h18q5 14 12 17h122l6 -6h-17v-52h6l7 -7h-13v-56h6
l4 -4h-10v-83q-2 -5 -5.5 -10t-5.5 -5h-113zM693 554h-586q-8 -5 -20.5 -15t-32.5 -28h11l17 -17h-35q-5 -11 -9.5 -22.5t-9.5 -23.5h8l13 -13h-23v-49h6l11 -11h-17v-52h6l7 -7h-13v-56h6l4 -4h-10v-133q0 -24 10 -45h-3q14 -23 29 -39t31 -27q8 -8 16.5 -14t16.5 -11h11
l11 -11q24 -9 44 -9h466q20 0 44 9l-3 11h25q36 24 61 63h-1q5 13 8.5 25t3.5 23v11l-4 4h4v56l-6 6h6v53l-10 10h10v50l-13 13h13v46l-17 17h17v43l-19 19h15q-7 18 -10.5 26t-6.5 14l-19 18l-1 1v1q0 2 -1 3h7l-8 7l1 -1q1 0 2 -1l-17 17h4q-17 17 -29.5 27.5t-20.5 15.5z
M578 773h-121q3 3 15 8h92q4 -2 7 -4t7 -4zM342 773h-121q3 3 15 8h92q4 -2 7 -4t7 -4zM201 662h162q-6 -8 -14 -14h-134q-5 3 -8 6.5t-6 7.5zM437 662h162q-6 -8 -14 -14h-134q-5 3 -8 6.5t-6 7.5zM616 710h-196q0 9 1 11h194q0 -3 0.5 -5.5t0.5 -5.5zM380 710h-196
q0 9 1 11h194q0 -3 0.5 -5.5t0.5 -5.5zM129 7h542q-15 -7 -38 -7h-466q-23 0 -38 7zM763 334h-279v30h279v-30zM316 334h-279v30h279v-30zM763 271h-279v34h279v-34zM316 271h-279v34h279v-34zM763 208h-279v37h279v-37zM316 208h-279v37h279v-37zM111 543h578q15 -9 27 -21
h-633q18 15 28 21zM54 483h691l6 -12t5 -12h-712q2 6 4.5 12t5.5 12zM37 424h726v-6v-21h-282q-3 7 -7.5 12t-11.5 5h-126q-12 -3 -17 -17h-282v21v6zM316 186v-16q1 -5 5 -14t17 -9h124q6 0 12.5 8.5t9.5 14.5v16h279v-40h-726v40h279zM54 67h691q-17 -28 -48 -47h-594
q-14 9 -27 21t-22 26zM763 126v-3q0 -11 -2.5 -20.5t-6.5 -19.5h-708q-9 19 -9 40v3h726z" />
    <glyph glyph-name="FL00D7h" unicode="&#xd7;" horiz-adv-x="412" 
d="M391 346l-29 29h-4l-11 11h4l-49 49h-56l-41 -39l-38 39h-57l-51 -49h10l11 -11h-31l-28 -28l24 -24h4l7 -7h-4l37 -37l-19 -19h10l4 -4h-18l-45 -46l117 -117l2 2l23 -23l37 37l-4 4h7l26 26l45 -45l2 2l23 -23l36 36l-4 4h8l56 56l-6 6h12l11 11l-23 23l2 2l-45 44
l33 33l-13 13h26l20 20l-23 23zM290 126l-16 -16l-16 16h32zM155 126l-17 -17l-17 17h34zM324 397h-101l28 27h46zM189 397h-102l28 27h47zM334 305l-26 -26l8 -8h-219l8 8l-26 26h255zM238 146l-32 32l-32 -32h-73l-40 40h289l-40 -40h-72zM357 364l18 -18l-12 -12h-313
l-13 13l17 17h303zM341 245l34 -34l-3 -3h-333l-2 2l34 35h270z" />
    <glyph glyph-name="FL00D8h" unicode="&#xd8;" 
d="M435 158l12 11l-6 6h13l19 18v-20q-2 -5 -5.5 -10t-5.5 -5h-27zM349 345v2l-17 17h18q5 14 12 17h44l6 -6h-33zM693 554h-586q-8 -5 -20.5 -15t-32.5 -28h11l17 -17h-35q-5 -11 -9.5 -22.5t-9.5 -23.5h8l13 -13h-23v-49h6l11 -11h-17v-52h6l7 -7h-13v-56h6l4 -4h-10v-133
q0 -24 10 -45h-3q14 -23 29 -39t31 -27q8 -8 16.5 -14t16.5 -11h11l11 -11q24 -9 44 -9h466q20 0 44 9l-3 11h25q36 24 61 63h-1q5 13 8.5 25t3.5 23v11l-4 4h4v56l-6 6h6v53l-10 10h10v50l-13 13h13v46l-17 17h17v43l-19 19h15q-7 18 -10.5 26t-6.5 14l-19 18l-1 1v1
q0 2 -1 3h7l-22 22h4q-17 17 -29.5 27.5t-20.5 15.5zM129 7h542q-15 -7 -38 -7h-466q-23 0 -38 7zM316 334h-279v30h279v-30zM763 208h-279v37h279v-37zM763 334h-409l30 30h379v-30zM111 543h578q15 -9 27 -21h-633q18 15 28 21zM425 208h-388v37h427zM54 483h691l6 -12
t5 -12h-712q2 6 4.5 12t5.5 12zM418 397l17 17h-99q-12 -3 -17 -17h-282v21v6h726v-6v-21h-345zM763 271h-726v34h279v-9l9 9h438v-34zM401 186l-41 -39h102q6 0 12.5 8.5t9.5 14.5v16h279v-40h-726v40h364zM54 67h691q-17 -28 -48 -47h-594q-14 9 -27 21t-22 26zM763 126
v-3q0 -11 -2.5 -20.5t-6.5 -19.5h-708q-9 19 -9 40v3h726z" />
    <glyph glyph-name="FL00D9h" unicode="&#xd9;" 
d="M423 792h-87l-5 -5h-1q-4 -4 -5.5 -7t-9.5 -18h8l22 -22h121l-16 21l-10 9l-13 18zM490 673h-156l31 -36h4l22 -22h104q4 7 15 30l-22 22q1 1 1 3t1 3zM314 699l22 -22h173q-5 8 -9 15t-8 12l-14 14q-3 4 -5.5 7.5t-4.5 6.5h-163q0 -14 1 -20.5t3 -12.5h5zM350 158v11
l-6 6h6v53l-10 10h10v50l-13 13h13v46l-17 17h17v43l-19 19h19v40l-22 22v1h22v37l-22 22v6h-302v-43h6l17 -17h-23v-46h6l13 -13h-19v-49h6l11 -11h-17v-52h6l7 -7h-13v-56h6l4 -4h-10v-133q0 -24 10 -45h-2q14 -23 29 -39t31 -27q8 -8 16.5 -14t16.5 -11h11l11 -11
q11 -5 21.5 -7t21.5 -2h604v142l-4 4h4v56l-6 6h6v53l-10 10h10v50l-13 13h13v46l-17 17h17v43l-19 19h19v40l-22 22v1h22v37l-22 22v6h-301v-43h6l17 -17h-23v-46h6l13 -13h-19v-49h6l11 -11h-17v-52h6l7 -7h-13v-56h6l4 -4h-10v-98h-123zM341 781h77l4 -4l3 -4h-92
q1 2 2 2.5t3 2.5zM357 662h117q-2 -4 -4 -7t-4 -7h-97zM471 710h-153q-2 10 -2 11h147q4 -4 5.5 -6.5t2.5 -4.5zM763 0h-596q-23 0 -37 7h633v-7zM763 522h-279v21h279v-21zM317 522h-280v21h280v-21zM763 459h-279v24h279v-24zM317 459h-280v24h280v-24zM763 397h-279v27
h279v-27zM317 397h-280v27h280v-27zM763 334h-279v30h279v-30zM317 334h-280v30h280v-30zM763 271h-279v34h279v-34zM317 271h-280v34h280v-34zM763 208h-279v37h279v-37zM317 208h-280v37h280v-37zM317 186v-16q3 -6 6.5 -14.5t14.5 -8.5h146v39h279v-40h-726v40h280z
M763 83h-717q-9 19 -9 40v3h726v-43zM763 20h-659q-14 9 -27 21t-22 26h708v-47z" />
    <glyph glyph-name="FL00DAh" unicode="&#xda;" 
d="M367 781l-14 -19h9l22 -22h128l-22 22h4l-30 30h-88q-2 -2 -3 -2.5t-2 -2.5q-4 -4 -4 -6zM334 637l22 -22h103l26 30l-23 23l4 5h-156q2 -6 6.5 -15.5t13.5 -20.5h4zM312 699l22 -22h176q6 6 6 12l5 15l-23 22l2 6h-170q-3 -3 -5 -7l-2 -4q-1 -1 -6 -6.5t-15 -15.5h10z
M350 158v11l-6 6h6v53l-10 10h10v50l-13 13h13v46l-17 17h17v43l-19 19h19v40l-22 22v1h22v37l-22 22v6h-302v-43h6l17 -17h-23v-46h6l13 -13h-19v-49h6l11 -11h-17v-52h6l7 -7h-13v-56h6l4 -4h-10v-133q0 -24 10 -45h-2q14 -23 29 -39t31 -27q8 -8 16.5 -14t16.5 -11h11
l11 -11q11 -5 21.5 -7t21.5 -2h604v142l-4 4h4v56l-6 6h6v53l-10 10h10v50l-13 13h13v46l-17 17h17v43l-19 19h19v40l-22 22v1h22v37l-22 22v6h-301v-43h6l17 -17h-23v-46h6l13 -13h-19v-49h6l11 -11h-17v-52h6l7 -7h-13v-56h6l4 -4h-10v-98h-123zM375 773l3 4q1 1 1.5 2
t1.5 2h78l3 -3l5 -5h-92zM431 648h-97q-7 9 -8 14h117zM481 710h-152q2 2 3.5 5t3.5 6h148q-1 -2 -1 -7q0 -2 -2 -4zM763 0h-596q-23 0 -37 7h633v-7zM763 522h-279v21h279v-21zM317 522h-280v21h280v-21zM763 459h-279v24h279v-24zM317 459h-280v24h280v-24zM763 397h-279
v27h279v-27zM317 397h-280v27h280v-27zM763 334h-279v30h279v-30zM317 334h-280v30h280v-30zM763 271h-279v34h279v-34zM317 271h-280v34h280v-34zM763 208h-279v37h279v-37zM317 208h-280v37h280v-37zM317 186v-16q3 -6 6.5 -14.5t14.5 -8.5h146v39h279v-40h-726v40h280z
M763 83h-717q-9 19 -9 40v3h726v-43zM763 20h-659q-14 9 -27 21t-22 26h708v-47z" />
    <glyph glyph-name="FL00DBh" unicode="&#xdb;" 
d="M398 668l2 3l12 -17zM284 762l22 -22h238l-18 24l-11 11l-13 17h-204l-23 -30h9zM237 699l22 -22h332l-19 27l-14 13l-10 15h-296l-24 -33h9zM189 637l22 -22h189l19 28l5 -6h4l22 -22h189l-21 30l-15 15l-9 13h-388l-26 -36h9zM350 158v11l-6 6h6v53l-10 10h10v50
l-13 13h13v46l-17 17h17v43l-19 19h19v40l-22 22v1h22v37l-22 22v6h-302v-43h6l17 -17h-23v-46h6l13 -13h-19v-49h6l11 -11h-17v-52h6l7 -7h-13v-56h6l4 -4h-10v-133q0 -24 10 -45h-2q14 -23 29 -39t31 -27q8 -8 16.5 -14t16.5 -11h11l11 -11q11 -5 21.5 -7t21.5 -2h604v142
l-4 4h4v56l-6 6h6v53l-10 10h10v50l-13 13h13v46l-17 17h17v43l-19 19h19v40l-22 22v1h22v37l-22 22v6h-301v-43h6l17 -17h-23v-46h6l13 -13h-19v-49h6l11 -11h-17v-52h6l7 -7h-13v-56h6l4 -4h-10v-98h-123zM503 773h-206l6 8h194zM370 648h-168l10 14h168zM598 648h-168
l-10 14h168zM551 710h-302l8 11h286zM763 0h-596q-23 0 -37 7h633v-7zM763 522h-279v21h279v-21zM317 522h-280v21h280v-21zM763 459h-279v24h279v-24zM317 459h-280v24h280v-24zM763 397h-279v27h279v-27zM317 397h-280v27h280v-27zM763 334h-279v30h279v-30zM317 334h-280
v30h280v-30zM763 271h-279v34h279v-34zM317 271h-280v34h280v-34zM763 208h-279v37h279v-37zM317 208h-280v37h280v-37zM317 186v-16q3 -6 6.5 -14.5t14.5 -8.5h146v39h279v-40h-726v40h280zM763 83h-717q-9 19 -9 40v3h726v-43zM763 20h-659q-14 9 -27 21t-22 26h708v-47z
" />
    <glyph glyph-name="FL00DCh" unicode="&#xdc;" 
d="M566 792h-96q-8 -3 -17.5 -9.5t-28.5 -20.5h12l22 -22h165l-25 25v3q-1 0 -7 6q-7 3 -7 8q-3 2 -7.5 4.5t-10.5 5.5zM330 792h-96q-8 -3 -17.5 -9.5t-28.5 -20.5h12l22 -22h165l-25 25v3q-1 0 -7 6q-7 3 -7 8q-3 2 -7.5 4.5t-10.5 5.5zM449 637l10 -10q1 -3 5 -5
q2 -2 4 -3.5t6 -3.5h138l12.5 12.5t15.5 17.5l-23 23q1 1 1.5 2t2.5 3h-207q0 -7 9 -14q1 -2 8 -7h-1q2 -4 6 -8t12 -7h1zM228 622q2 -2 4 -3.5t6 -3.5h138l12.5 12.5t15.5 17.5l-23 23q1 1 1.5 2t2.5 3h-207q0 -7 9 -14q1 -2 8 -7h-1q2 -4 6 -8t12 -7h1l10 -10q1 -3 5 -5z
M626 732h-213q-4 -11 -4 -25l-19 19v6h-213q-3 -9 -3.5 -16t-0.5 -17h6l22 -22h212q0 2 -0.5 6.5t-0.5 6.5v9h3l22 -22h212q0 2 -0.5 6.5t-0.5 6.5v14l-22 22v6zM350 158v11l-6 6h6v53l-10 10h10v50l-13 13h13v46l-17 17h17v43l-19 19h19v40l-22 22v1h22v37l-22 22v6h-302
v-43h6l17 -17h-23v-46h6l13 -13h-19v-49h6l11 -11h-17v-52h6l7 -7h-13v-56h6l4 -4h-10v-133q0 -24 10 -45h-2q14 -23 29 -39t31 -27q8 -8 16.5 -14t16.5 -11h11l11 -11q11 -5 21.5 -7t21.5 -2h604v142l-4 4h4v56l-6 6h6v53l-10 10h10v50l-13 13h13v46l-17 17h17v43l-19 19
h19v40l-22 22v1h22v37l-22 22v6h-301v-43h6l17 -17h-23v-46h6l13 -13h-19v-49h6l11 -11h-17v-52h6l7 -7h-13v-56h6l4 -4h-10v-98h-123zM472 781h92q4 -2 7 -4t7 -4h-121q3 3 15 8zM236 781h92q4 -2 7 -4t7 -4h-121q3 3 15 8zM349 648h-134q-5 3 -8 6.5t-6 7.5h162
q-6 -8 -14 -14zM585 648h-134q-5 3 -8 6.5t-6 7.5h162q-6 -8 -14 -14zM185 721h194q0 -3 0.5 -5.5t0.5 -5.5h-196q0 9 1 11zM421 721h194q0 -3 0.5 -5.5t0.5 -5.5h-196q0 9 1 11zM763 0h-596q-23 0 -37 7h633v-7zM763 522h-279v21h279v-21zM317 522h-280v21h280v-21z
M763 459h-279v24h279v-24zM317 459h-280v24h280v-24zM763 397h-279v27h279v-27zM317 397h-280v27h280v-27zM763 334h-279v30h279v-30zM317 334h-280v30h280v-30zM763 271h-279v34h279v-34zM317 271h-280v34h280v-34zM763 208h-279v37h279v-37zM317 208h-280v37h280v-37z
M317 186v-16q3 -6 6.5 -14.5t14.5 -8.5h146v39h279v-40h-726v40h280zM763 83h-717q-9 19 -9 40v3h726v-43zM763 20h-659q-14 9 -27 21t-22 26h708v-47z" />
    <glyph glyph-name="FL00DDh" unicode="&#xdd;" horiz-adv-x="787" 
d="M355 781l-14 -19h9l22 -22h128l-22 22h4l-30 30h-88q-2 -2 -3 -2.5t-2 -2.5q-4 -4 -4 -6zM322 637l22 -22h103l26 30l-23 23l4 5h-156q2 -6 6.5 -15.5t13.5 -20.5h4zM300 699l22 -22h176q6 6 6 12l5 15l-23 22l2 6h-170q-3 -3 -5 -7l-2 -4q-1 -1 -6 -6.5t-15 -15.5h10z
M450 361h-112h-2l-2 3h16v43l-19 19h19v40l-22 22v1h22v37l-22 22v6h-302v-43h6l17 -17h-23v-46h6l13 -13h-19v-49h6l11 -11h-17v-52h6l7 -7h-13q4 -14 10 -28.5t16 -27.5h4l4 -4h-8q7 -6 13 -11.5t13 -10.5l6 -6q24 -23 48.5 -36.5t44.5 -16.5h280q-3 -15 -24 -17h-402
v-169h6l22 -22h602q26 0 45 10l-3 10h21q27 19 47 63h-1q7 13 7.5 20.5t2.5 15.5q1 3 2 11t2 12l-4 4h3v56l-6 6h6v53l-10 10h10v50l-13 13h13v46l-17 17h17v43l-19 19h19v40l-22 22v1h22v37l-22 22v6h-303v-43h6l17 -17h-23v-46h6l13 -13h-19v-49h6l11 -11h-17zM363 773
l3 4q1 1 1.5 2t1.5 2h78l3 -3l5 -5h-92zM419 648h-97q-7 9 -8 14h117zM469 710h-152q2 2 3.5 5t3.5 6h148q-1 -2 -1 -7q0 -2 -2 -4zM636 0h-594v7h632q-13 -7 -38 -7zM317 522h-280v21h280v-21zM750 522h-281v21h281v-21zM317 459h-280v24h280v-24zM750 459h-281v24h281v-24
zM317 397h-280v27h280v-27zM750 397h-281v27h281v-27zM42 147h391q20 2 28 9.5t8 27.5v2h281v-40h-708v1zM338 350h112q4 0 8 4.5t7 9.5h285v-30h-713v30h284q2 -5 5.5 -9.5t11.5 -4.5zM750 208h-597q-19 3 -38 12.5t-35 24.5h670v-37zM750 271h-693q-12 17 -16 34h709v-34z
M42 126h707q-2 -12 -3.5 -22.5t-5.5 -20.5h-698v43zM42 67h692q-14 -31 -37 -47h-655v47z" />
    <glyph glyph-name="FL00DEh" unicode="&#xde;" 
d="M484 256h-13q-12 -17 -23 -17h-98v49l-13 13h13v4h124q4 -12 4 -21q0 1 -1.5 -7t-3.5 -17h7zM49 494h-23v-46h6l13 -13h-19v-49h6l11 -11h-17v-52h6l7 -7h-13v-56h6l4 -4h-10v-267h6l22 -22h296v83h313q49 7 93 59l-4 4h5q20 29 27 56l-6 6h6l6 26t4 27l-10 10h9
q2 7 2.5 10.5t0.5 6.5v10q0 6 -0.5 11t-2.5 12l-13 13h15q-3 7 -4.5 13.5t-2.5 11.5l-2.5 10t-2.5 11l-17 17h13q-1 0 -1 1q-10 11 -10 16h-1q-2 5 -4 9t-11 17l-13 12q-1 2 -2 3.5t-2 3.5h8l-22 22h6q-26 18 -49 30t-40 16h-288v32l-22 22v6h-302v-43h6zM317 7v-7h-280v7
h280zM317 522h-280v21h280v-21zM485 305h277q1 -2 1 -15v-10q0 -7 -1 -9h-275q1 5 1.5 8t0.5 5q0 12 -4 21zM317 271h-280v34h280v-34zM317 20h-280v47h280v-47zM37 483h599q16 -3 29.5 -9.5t25.5 -14.5h-654v24zM37 424h687q5 -7 8 -13.5t7 -13.5h-702v27zM454 338h-137v-4
h-280v30h714q2 -8 4 -15t4 -15h-292q-7 4 -13 4zM476 245h284q-1 -10 -3 -19l-4 -18h-716v37h280v-17h131q16 0 28 17zM37 126h677q-29 -36 -77 -43h-600v43zM37 186h710q-4 -11 -9 -21.5t-10 -18.5h-691v40z" />
    <glyph glyph-name="FL00DFh" unicode="&#xdf;" horiz-adv-x="739" 
d="M391 361h-38v-38h6l7 -7h-13v-56h6l4 -4h-10v-56h6l22 -22h36q-2 -20 -24 -20h-40v-169h6l22 -22h195q34 0 55 8l-3 12h28q34 19 58 63q8 15 12 29t7 30l-4 4h3q2 9 2.5 13t0.5 7v19q0 3 -0.5 6.5t-2.5 10.5l-6 6h7q-2 15 -5.5 28.5t-8.5 24.5l-10 10h6q-7 8 -11 13t-6 8
q5 5 10 11.5t10 17.5l-13 13h17q2 8 4 13t3 9v1q1 4 2.5 11.5t2.5 11.5l-17 17h17q0 2 -0.5 7.5t-0.5 7.5q-1 5 -2 13.5t-3 14.5l-19 19h15q-1 2 -4.5 9.5t-4.5 9.5q-5 14 -10 21l-18 17l-3 6h6l-22 22h4q-17 17 -29 27t-22 16h-595v-43h6l17 -17h-23v-46h6l13 -13h-19v-49
h6l11 -11h-17v-52h6l7 -7h-13v-56h6l4 -4h-10v-405h6l22 -22h296v280l-4 4h4v56l-6 6h6v53l-10 10h10v50l-13 13h13v46l-17 17h17v17h67q2 0 10 -2l4 -4h-15q-5 -14 -25 -14zM364 7h236q-18 -7 -49 -7h-187v7zM317 -112v-26h-280v26h280zM317 334h-280v30h280v-30zM364 350
h27q28 0 33 14h275q-2 -8 -3.5 -15.5t-3.5 -14.5h-328v16zM317 271h-280v34h280v-34zM317 208h-280v37h280v-37zM364 305h315q-8 -13 -18 -20l7 -7t6 -7h-310v34zM317 146h-280v40h280v-40zM428 186h273q1 -2 1 -9v-7v-12q0 -9 -1 -12h-337v1h29q19 0 27 10t8 24v5zM317 83
h-280v43h280v-43zM364 245h325q7 -14 10 -37h-286q-8 3 -21 3h-28v34zM37 543h580q8 -5 15.5 -10.5t12.5 -10.5h-608v21zM317 20h-280v47h280v-47zM317 -42h-280v49h280v-49zM364 67h311q-17 -31 -46 -47h-265v47zM364 126h334q-2 -11 -5.5 -21.5t-8.5 -21.5h-320v43z
M317 -105h-280v53h280v-53zM37 483h638q4 -6 6.5 -12t5.5 -12h-650v24zM701 397h-278q-8 17 -31 17h-75v-17h-280v27h660q2 -8 2.5 -14t1.5 -13z" />
    <glyph glyph-name="FL00E0h" unicode="&#xe0;" horiz-adv-x="938" 
d="M611 295l-6 6h6v-6zM668 788l-4 4h-87l-5 -5h-1q-4 -4 -5.5 -7t-9.5 -18h8l22 -22h121l-16 21l-10 9zM731 673h-156l31 -36h4l22 -22h104q4 7 15 30l-22 22q1 1 1 3t1 3zM709 732h-163q0 -14 1 -20.5t3 -12.5h5l22 -22h173q-5 8 -9 15t-8 12l-14 14q-3 4 -5.5 7.5
t-4.5 6.5zM11 -12l22 -22h348l18 24l-1 1l45 59l42 59l-4 4h8l40 56l-6 6h11l40 53l-10 10h17l30 40v-18h6l4 -4h-10v-267h6l22 -22h295v142l-4 4h4v56l-6 6h6v53l-10 10h10v50l-13 13h13v46l-17 17h17v43l-19 19h19v40l-22 22v1h22v37l-22 22v6h-467q-3 -3 -9.5 -9t-14 -13
t-13.5 -12.5t-9 -8.5h10l17 -17h-36l-35 -46h9l13 -13h-32l-38 -49h9l11 -11h-28l-40 -52h9l7 -7h-21l-43 -56h9l4 -4h-16l-46 -59l-46 -60l-50 -65l-41 -54l-7 -9l-16 -21h9zM659 781l4 -4l3 -4h-92q1 2 2 2.5t3 2.5l3 3h77zM598 662h117q-2 -4 -4 -7t-4 -7h-97zM557 721
h147q4 -4 5.5 -6.5t2.5 -4.5h-153q-2 10 -2 11zM901 7v-7h-279v7h279zM352 -1h-328l6 8h328zM901 271h-279v34h279v-34zM901 522h-475q5 5 11 10.5t12 10.5h452v-21zM901 208h-279v37h279v-37zM552 271h-319l26 34h318zM901 146h-279v40h279v-40zM505 208h-321l29 37h320z
M901 83h-279v43h279v-43zM901 459h-524l18 24h506v-24zM460 146h-323l30 40h322zM901 20h-279v47h279v-47zM414 83h-326l33 43h324zM901 397h-572l21 27h551v-27zM367 20h-327l36 47h326zM901 334h-279v1q0 1 -4.5 3t-7.5 4q-5 0 -7 -1.5t-5 -6.5h-317l23 30h597v-30z" />
    <glyph glyph-name="FL00E1h" unicode="&#xe1;" horiz-adv-x="938" 
d="M611 295l-6 6h6v-6zM752 762h4l-30 30h-88l-4 -4q-5 -5 -5 -7l-14 -19h9l22 -22h128zM596 637l22 -22h103l26 30l-23 23l4 5h-156q2 -6 6.5 -15.5t13.5 -20.5h4zM762 732h-170q-3 -3 -5 -7l-2 -4q-1 -1 -6 -6.5t-15 -15.5h10l22 -22h176q6 6 6 12l5 15l-23 22zM11 -12
l22 -22h348l18 24l-1 1l45 59l42 59l-4 4h8l40 56l-6 6h11l40 53l-10 10h17l30 40v-18h6l4 -4h-10v-267h6l22 -22h295v142l-4 4h4v56l-6 6h6v53l-10 10h10v50l-13 13h13v46l-17 17h17v43l-19 19h19v40l-22 22v1h22v37l-22 22v6h-467q-3 -3 -9.5 -9t-14 -13t-13.5 -12.5
t-9 -8.5h10l17 -17h-36l-35 -46h9l13 -13h-32l-38 -49h9l11 -11h-28l-40 -52h9l7 -7h-21l-43 -56h9l4 -4h-16l-46 -59l-46 -60l-50 -65l-41 -54l-7 -9l-16 -21h9zM729 773h-92l3 4q1 1 1.5 2t1.5 2h78l3 -3zM693 648h-97q-7 9 -8 14h117zM598 721h148q-1 -2 -1 -7
q0 -2 -2 -4h-152q2 2 3.5 5t3.5 6zM901 7v-7h-279v7h279zM352 -1h-328l6 8h328zM901 271h-279v34h279v-34zM901 522h-475q5 5 11 10.5t12 10.5h452v-21zM901 208h-279v37h279v-37zM552 271h-319l26 34h318zM901 146h-279v40h279v-40zM505 208h-321l29 37h320zM901 83h-279
v43h279v-43zM901 459h-524l18 24h506v-24zM460 146h-323l30 40h322zM901 20h-279v47h279v-47zM414 83h-326l33 43h324zM901 397h-572l21 27h551v-27zM367 20h-327l36 47h326zM901 334h-279v1q0 1 -4.5 3t-7.5 4q-5 0 -7 -1.5t-5 -6.5h-317l23 30h597v-30z" />
    <glyph glyph-name="FL00E2h" unicode="&#xe2;" horiz-adv-x="938" 
d="M611 295l-6 6h6v-6zM653 668l2 3l12 -17zM539 762l22 -22h238l-18 24l-11 11l-13 17h-204l-23 -30h9zM492 699l22 -22h332l-19 27l-14 13l-10 15h-296l-24 -33h9zM444 637l22 -22h189l19 28l5 -6h4l22 -22h189l-21 30l-15 15l-9 13h-388l-26 -36h9zM11 -12l22 -22h348
l18 24l-1 1l45 59l42 59l-4 4h8l40 56l-6 6h11l40 53l-10 10h17l30 40v-18h6l4 -4h-10v-267h6l22 -22h295v142l-4 4h4v56l-6 6h6v53l-10 10h10v50l-13 13h13v46l-17 17h17v43l-19 19h19v40l-22 22v1h22v37l-22 22v6h-467q-3 -3 -9.5 -9t-14 -13t-13.5 -12.5t-9 -8.5h10
l17 -17h-36l-35 -46h9l13 -13h-32l-38 -49h9l11 -11h-28l-40 -52h9l7 -7h-21l-43 -56h9l4 -4h-16l-46 -59l-46 -60l-50 -65l-41 -54l-7 -9l-16 -21h9zM758 773h-206l6 8h194zM901 7v-7h-279v7h279zM625 648h-168l10 14h168zM853 648h-168l-10 14h168zM352 -1h-328l6 8h328z
M806 710h-302l8 11h286zM901 271h-279v34h279v-34zM901 522h-475q5 5 11 10.5t12 10.5h452v-21zM901 208h-279v37h279v-37zM552 271h-319l26 34h318zM901 146h-279v40h279v-40zM505 208h-321l29 37h320zM901 83h-279v43h279v-43zM901 459h-524l18 24h506v-24zM460 146h-323
l30 40h322zM901 20h-279v47h279v-47zM414 83h-326l33 43h324zM901 397h-572l21 27h551v-27zM367 20h-327l36 47h326zM901 334h-279v1q0 1 -4.5 3t-7.5 4q-5 0 -7 -1.5t-5 -6.5h-317l23 30h597v-30z" />
    <glyph glyph-name="FL00E3h" unicode="&#xe3;" horiz-adv-x="938" 
d="M611 295l-6 6h6v-6zM588 668l2 3l12 -17zM475 762l22 -22h172l-18 24l-11 11l-13 17h-138l-23 -30h9zM679 762l22 -22h188l18 24l-23 23l4 5h-195l-23 -30h9zM428 699l22 -22h391l19 27l-23 23l4 5h-398l-24 -33h9zM380 637l22 -22h188l19 28l5 -6h4l22 -22h155l21 30
l-24 23l4 5h-399l-26 -36h9zM11 -12l22 -22h348l18 24l-1 1l45 59l42 59l-4 4h8l40 56l-6 6h11l40 53l-10 10h17l30 40v-18h6l4 -4h-10v-267h6l22 -22h295v142l-4 4h4v56l-6 6h6v53l-10 10h10v50l-13 13h13v46l-17 17h17v43l-19 19h19v40l-22 22v1h22v37l-22 22v6h-467
q-10 -7 -20.5 -18t-21.5 -25h9l17 -17h-39l-35 -46h9l13 -13h-32l-38 -49h9l11 -11h-28l-40 -52h9l7 -7h-21l-43 -56h9l4 -4h-16l-46 -59l-46 -60l-50 -65l-41 -54l-7 -9l-16 -21h9zM628 773h-140l6 8h128zM860 773h-168l6 8h168zM901 7v-7h-279v7h279zM765 648h-145l-10 14
h165zM560 648h-167l10 14h167zM358 7l-6 -8h-328l6 8h328zM812 710h-372l8 11h372zM901 271h-279v34h279v-34zM901 522h-475q5 6 23 21h452v-21zM901 208h-279v37h279v-37zM552 271h-319l26 34h318zM901 146h-279v40h279v-40zM505 208h-321l29 37h320zM901 83h-279v43h279
v-43zM901 459h-524l18 24h506v-24zM460 146h-323l30 40h322zM901 20h-279v47h279v-47zM414 83h-326l33 43h324zM901 397h-572l21 27h551v-27zM367 20h-327l36 47h326zM610 342q-5 0 -7 -1.5t-5 -6.5h-317l23 30h597v-30h-279v1q0 1 -4.5 3t-7.5 4z" />
    <glyph glyph-name="FL00E4h" unicode="&#xe4;" horiz-adv-x="938" 
d="M611 295l-6 6h6v-6zM705 762l22 -22h149l2 15l-23 22l1 5q-8 4 -10.5 5t-4.5 2l-3 3h-99q-8 -3 -17.5 -9.5t-28.5 -20.5h12zM469 762l22 -22h165l-25 25v3q-1 0 -7 6q-7 3 -7 8q-3 2 -7.5 4.5t-10.5 5.5h-96q-8 -3 -17.5 -9.5t-28.5 -20.5h12zM654 673h-207q0 -7 9 -14
q1 -2 8 -7h-1q2 -4 6 -8t12 -7h1l10 -10q1 -3 5 -5q2 -2 4 -3.5t6 -3.5h138l12.5 12.5t15.5 17.5l-23 23q1 1 1.5 2t2.5 3zM890 673h-207q0 -7 9 -14q1 -2 8 -7h-1q2 -4 6 -8t12 -7h1l10 -10q1 -3 5 -5q5 -6 10 -7h138l12.5 12.5t15.5 17.5l-23 23q1 1 1.5 2t2.5 3zM448 699
l22 -22h212q0 2 -0.5 6.5t-0.5 6.5v9h3l22 -22h212q0 2 -0.5 6.5t-0.5 6.5v14l-22 22v6h-213q-4 -11 -4 -25l-19 19v6h-213q-3 -9 -3.5 -16t-0.5 -17h6zM11 -12l22 -22h348l18 24l-1 1l45 59l42 59l-4 4h8l40 56l-6 6h11l40 53l-10 10h17l30 40v-18h6l4 -4h-10v-267h6
l22 -22h295v142l-4 4h4v56l-6 6h6v53l-10 10h10v50l-13 13h13v46l-17 17h17v43l-19 19h19v40l-22 22v1h22v37l-22 22v6h-467q-3 -3 -9.5 -9t-14 -13t-13.5 -12.5t-9 -8.5h10l17 -17h-36l-35 -46h9l13 -13h-32l-38 -49h9l11 -11h-28l-40 -52h9l7 -7h-21l-43 -56h9l4 -4h-16
l-46 -59l-46 -60l-50 -65l-41 -54l-7 -9l-16 -21h9zM611 773h-121q3 3 15 8h92q4 -2 7 -4t7 -4zM848 773h-122q3 3 15 8h92q4 -2 7.5 -4t7.5 -4zM901 7v-7h-279v7h279zM706 662h162q-6 -8 -14 -14h-134q-5 3 -8 6.5t-6 7.5zM470 662h162q-6 -8 -14 -14h-134q-5 3 -8 6.5
t-6 7.5zM885 710h-196q0 9 1 11h194q0 -3 0.5 -5.5t0.5 -5.5zM649 710h-196q0 9 1 11h194q0 -3 0.5 -5.5t0.5 -5.5zM352 -1h-328l6 8h328zM901 271h-279v34h279v-34zM901 522h-475q5 5 11 10.5t12 10.5h452v-21zM901 208h-279v37h279v-37zM552 271h-319l26 34h318zM901 146
h-279v40h279v-40zM505 208h-321l29 37h320zM901 83h-279v43h279v-43zM901 459h-524l18 24h506v-24zM460 146h-323l30 40h322zM901 20h-279v47h279v-47zM414 83h-326l33 43h324zM901 397h-572l21 27h551v-27zM367 20h-327l36 47h326zM901 334h-279v1q0 1 -4.5 3t-7.5 4
q-5 0 -7 -1.5t-5 -6.5h-317l23 30h597v-30z" />
    <glyph glyph-name="FL00E5h" unicode="&#xe5;" horiz-adv-x="938" 
d="M611 295l-6 6h6v-6zM707 792h-96q-8 -3 -17.5 -9.5t-28.5 -20.5h12l22 -22h165l-25 25v3q-1 0 -7 6q-7 3 -7 8q-3 2 -7.5 4.5t-10.5 5.5zM605 622q5 -6 10 -7h138l12.5 12.5t15.5 17.5l-23 23q1 1 1.5 2t2.5 3h-207q0 -7 9 -14q1 -2 8 -7h-1q2 -4 6 -8t12 -7h1l10 -10
q1 -3 5 -5zM556 699l22 -22h79q0 10 17 27l-23 23l2 2q28 -20 29 -30h6l22 -22h80q0 2 -0.5 6.5t-0.5 6.5v14l-22 22v6h-213q-3 -9 -3.5 -16t-0.5 -17h6zM11 -12l22 -22h348l18 24l-1 1l45 59l42 59l-4 4h8l40 56l-6 6h11l40 53l-10 10h17l30 40v-18h6l4 -4h-10v-267h6
l22 -22h295v142l-4 4h4v56l-6 6h6v53l-10 10h10v50l-13 13h13v46l-17 17h17v43l-19 19h19v40l-22 22v1h22v37l-22 22v6h-467q-10 -7 -20.5 -18t-21.5 -25h9l17 -17h-39l-35 -46h9l13 -13h-32l-38 -49h9l11 -11h-28l-40 -52h9l7 -7h-21l-43 -56h9l4 -4h-16l-46 -59l-46 -60
l-50 -65l-41 -54l-7 -9l-16 -21h9zM624 710h-63q0 9 1 11h67q-5 -5 -5 -11zM686 721h70q0 -3 0.5 -5.5t0.5 -5.5h-65q-2 8 -6 11zM613 781h92q4 -2 7 -4t7 -4h-121q3 3 15 8zM901 7v-7h-279v7h279zM726 648h-134q-5 3 -8 6.5t-6 7.5h162q-6 -8 -14 -14zM358 7l-6 -8h-328
l6 8h328zM901 271h-279v34h279v-34zM901 522h-475q5 6 23 21h452v-21zM901 208h-279v37h279v-37zM552 271h-319l26 34h318zM901 146h-279v40h279v-40zM505 208h-321l29 37h320zM901 83h-279v43h279v-43zM901 459h-524l18 24h506v-24zM460 146h-323l30 40h322zM901 20h-279
v47h279v-47zM414 83h-326l33 43h324zM901 397h-572l21 27h551v-27zM367 20h-327l36 47h326zM610 342q-5 0 -7 -1.5t-5 -6.5h-317l23 30h597v-30h-279v1q0 1 -4.5 3t-7.5 4z" />
    <glyph glyph-name="FL00E6h" unicode="&#xe6;" horiz-adv-x="1305" 
d="M611 295l-6 6h6v-6zM327 375h-28l-40 -52h9l7 -7h-21l-43 -56h9l4 -4h-16l-46 -59l-46 -60l-50 -65l-41 -54l-7 -9l-16 -21h9l22 -22h348l18 24l-1 1l45 59l42 59l-4 4h8l40 56l-6 6h11l40 53l-10 10h17l30 40v-18h6l4 -4h-10v-267h6l22 -22h662v142l-4 4h4v17l-22 22v6
h-339q2 1 4 3.5t7 7.5l-6 6h356v53l-10 10h10v50l-13 13h13v33l-22 22v6h-346q-6 0 -8 2h12q3 7 7 12t7 5h350v26l-19 19h19v40l-22 22v1h22v37l-22 22v6h-834q-3 -3 -9.5 -9t-14 -13t-13.5 -12.5t-9 -8.5h10l17 -17h-36l-35 -46h9l13 -13h-32l-38 -49h9zM352 -1h-328l6 8
h328zM1268 7v-7h-646v7h646zM552 271h-319l26 34h318zM505 208h-321l29 37h320zM622 186h284q-1 -1 -1 -2t-0.5 -3t-0.5 -4t0.5 -4t0.5 -3q3 -6 11 -14.5t10 -8.5h342v-1h-646v40zM460 146h-323l30 40h322zM414 83h-326l33 43h324zM367 20h-327l36 47h326zM1268 522h-842
q5 5 11 10.5t12 10.5h819v-21zM1268 424v-10h-342q-6 0 -11 -5t-8 -12h-578l21 27h918zM1268 459h-891l18 24h873v-24zM1268 271h-646v34h646v-34zM1268 245v-37h-342h-1h-303v37h646zM304 364h605q7 -13 24 -13h335v-17h-646v1q0 1 -4.5 3t-7.5 4q-5 0 -7 -1.5t-5 -6.5
h-317zM1268 83h-646v43h646v-43zM1268 20h-646v47h646v-47z" />
    <glyph glyph-name="FL00E7h" unicode="&#xe7;" horiz-adv-x="717" 
d="M126 -13h11l11 -11q24 -9 44 -9h141v-8h-83v-127h6l22 -22h232v157h197v142l-4 4h4v17l-22 22v6h-335v11l-6 6h6v53l-10 10h10v50l-13 13h13v46l-17 17h16q3 7 6.5 12t7.5 5h350v26l-19 19h19v40l-22 22v1h22v37l-22 22v6h-584q-8 -5 -20.5 -15t-32.5 -28h11l17 -17h-35
q-5 -11 -9.5 -22.5t-9.5 -23.5h8l13 -13h-23v-49h6l11 -11h-17v-52h6l7 -7h-13v-56h6l4 -4h-10v-133q0 -24 10 -45h-3q14 -23 29 -39t31 -27q8 -8 16.5 -14t16.5 -11zM317 334h-280v30h280v-30zM477 -42h-133v42h-177q-23 0 -38 7h545v-7h-197v-42zM317 271h-280v34h280v-34
zM477 -112v-45h-216v45h216zM317 208h-280v37h280v-37zM319 397h-282v21v6h643v-10h-342q-7 0 -11.5 -5t-7.5 -12zM477 -105h-216v53h216v-53zM317 186v-16q1 -10 7 -16.5t14 -6.5h336v-1h-637v40h280zM680 522h-597q18 15 28 21h569v-21zM680 459h-636q2 6 4.5 12t5.5 12
h626v-24zM674 83h-628q-9 19 -9 40v3h637v-43zM674 20h-571q-14 9 -27 21t-22 26h620v-47z" />
    <glyph glyph-name="FL00E8h" unicode="&#xe8;" horiz-adv-x="717" 
d="M384 788l-4 4h-87l-5 -5h-1q-4 -4 -5.5 -7t-9.5 -18h8l22 -22h121l-16 21l-10 9zM447 673h-156l31 -36h4l22 -22h104q4 7 15 30l-22 22q1 1 1 3t1 3zM425 732h-163q0 -14 1 -20.5t3 -12.5h5l22 -22h173q-5 8 -9 15t-8 12l-14 14q-3 4 -5.5 7.5t-4.5 6.5zM43 375h-17v-52
h6l7 -7h-13v-56h6l4 -4h-10v-133q0 -24 10 -45h-3q14 -23 29 -39t31 -27q8 -8 16.5 -14t16.5 -11h11l11 -11q24 -9 44 -9h521v142l-4 4h4v17l-22 22v6h-339q2 1 4 3.5t7 7.5l-6 6h356v53l-10 10h10v50l-13 13h13v33l-22 22v6h-346q-6 0 -8 2h12q3 7 7 12t7 5h350v26l-19 19
h19v40l-22 22v1h22v37l-22 22v6h-584q-8 -5 -20.5 -15t-32.5 -28h11l17 -17h-35q-5 -11 -9.5 -22.5t-9.5 -23.5h8l13 -13h-23v-49h6zM375 781l4 -4l3 -4h-92q1 2 2 2.5t3 2.5l3 3h77zM314 662h117q-2 -4 -4 -7t-4 -7h-97zM273 721h147q4 -4 5.5 -6.5t2.5 -4.5h-153
q-2 10 -2 11zM680 7v-7h-513q-23 0 -38 7h551zM680 424v-10h-342q-6 0 -11 -5t-8 -12h-282v21v6h643zM37 186h281q-1 -1 -1 -2t-0.5 -3t-0.5 -4t0.5 -4t0.5 -3q3 -6 11 -14.5t10 -8.5h342v-1h-643v40zM680 522h-597q18 15 28 21h569v-21zM37 364h284q7 -13 24 -13h335v-17
h-643v30zM680 459h-636q2 6 4.5 12t5.5 12h626v-24zM680 271h-643v34h643v-34zM680 245v-37h-643v37h643zM680 83h-634q-9 19 -9 40v3h643v-43zM680 20h-577q-14 9 -27 21t-22 26h626v-47z" />
    <glyph glyph-name="FL00E9h" unicode="&#xe9;" horiz-adv-x="717" 
d="M482 762h4l-30 30h-88l-4 -4q-5 -5 -5 -7l-14 -19h9l22 -22h128zM326 637l22 -22h103l26 30l-23 23l4 5h-156q2 -6 6.5 -15.5t13.5 -20.5h4zM492 732h-170q-3 -3 -5 -7l-2 -4q-1 -1 -6 -6.5t-15 -15.5h10l22 -22h176q6 6 6 12l5 15l-23 22zM43 375h-17v-52h6l7 -7h-13
v-56h6l4 -4h-10v-133q0 -24 10 -45h-3q14 -23 29 -39t31 -27q8 -8 16.5 -14t16.5 -11h11l11 -11q24 -9 44 -9h521v142l-4 4h4v17l-22 22v6h-339q2 1 4 3.5t7 7.5l-6 6h356v53l-10 10h10v50l-13 13h13v33l-22 22v6h-346q-6 0 -8 2h12q3 7 7 12t7 5h350v26l-19 19h19v40
l-22 22v1h22v37l-22 22v6h-584q-8 -5 -20.5 -15t-32.5 -28h11l17 -17h-35q-5 -11 -9.5 -22.5t-9.5 -23.5h8l13 -13h-23v-49h6zM459 773h-92l3 4q1 1 1.5 2t1.5 2h78l3 -3zM423 648h-97q-7 9 -8 14h117zM328 721h148q-1 -2 -1 -7q0 -2 -2 -4h-152q2 2 3.5 5t3.5 6zM680 7v-7
h-513q-23 0 -38 7h551zM680 424v-10h-342q-6 0 -11 -5t-8 -12h-282v21v6h643zM37 186h281q-1 -1 -1 -2t-0.5 -3t-0.5 -4t0.5 -4t0.5 -3q3 -6 11 -14.5t10 -8.5h342v-1h-643v40zM680 522h-597q18 15 28 21h569v-21zM37 364h284q7 -13 24 -13h335v-17h-643v30zM680 459h-636
q2 6 4.5 12t5.5 12h626v-24zM680 271h-643v34h643v-34zM680 208h-342h-1h-300v37h643v-37zM680 83h-634q-9 19 -9 40v3h643v-43zM680 20h-577q-14 9 -27 21t-22 26h626v-47z" />
    <glyph glyph-name="FL00EAh" unicode="&#xea;" horiz-adv-x="717" 
d="M360 668l2 3l12 -17zM246 762l22 -22h238l-18 24l-11 11l-13 17h-204l-23 -30h9zM199 699l22 -22h332l-19 27l-14 13l-10 15h-296l-24 -33h9zM151 637l22 -22h189l19 28l5 -6h4l22 -22h189l-21 30l-15 15l-9 13h-388l-26 -36h9zM43 375h-17v-52h6l7 -7h-13v-56h6l4 -4
h-10v-133q0 -24 10 -45h-3q14 -23 29 -39t31 -27q8 -8 16.5 -14t16.5 -11h11l11 -11q24 -9 44 -9h521v142l-4 4h4v17l-22 22v6h-339q2 1 4 3.5t7 7.5l-6 6h356v53l-10 10h10v50l-13 13h13v33l-22 22v6h-346q-6 0 -8 2h12q3 7 7 12t7 5h350v26l-19 19h19v40l-22 22v1h22v37
l-22 22v6h-584q-8 -5 -20.5 -15t-32.5 -28h11l17 -17h-35q-5 -11 -9.5 -22.5t-9.5 -23.5h8l13 -13h-23v-49h6zM465 773h-206l6 8h194zM332 648h-168l10 14h168zM560 648h-168l-10 14h168zM513 710h-302l8 11h286zM680 7v-7h-513q-23 0 -38 7h551zM680 424v-10h-342
q-6 0 -11 -5t-8 -12h-282v21v6h643zM37 186h281q-1 -1 -1 -2t-0.5 -3t-0.5 -4t0.5 -4t0.5 -3q3 -6 11 -14.5t10 -8.5h342v-1h-643v40zM680 522h-597q18 15 28 21h569v-21zM37 364h284q7 -13 24 -13h335v-17h-643v30zM680 459h-636q2 6 4.5 12t5.5 12h626v-24zM680 271h-643
v34h643v-34zM680 245v-37h-643v37h643zM680 83h-634q-9 19 -9 40v3h643v-43zM680 20h-577q-14 9 -27 21t-22 26h626v-47z" />
    <glyph glyph-name="FL00EBh" unicode="&#xeb;" horiz-adv-x="717" 
d="M162 762l22 -22h165l-25 25v3q-1 0 -7 6q-7 3 -7 8q-3 2 -7.5 4.5t-10.5 5.5h-96q-8 -3 -17.5 -9.5t-28.5 -20.5h12zM398 762l22 -22h165l-25 25v3q-1 0 -7 6q-7 3 -7 8q-3 2 -7.5 4.5t-10.5 5.5h-96q-8 -3 -17.5 -9.5t-28.5 -20.5h12zM583 673h-207q0 -7 9 -14
q1 -2 8 -7h-1q2 -4 6 -8t12 -7h1l10 -10q1 -3 5 -5q2 -2 4 -3.5t6 -3.5h138l12.5 12.5t15.5 17.5l-23 23q1 1 1.5 2t2.5 3zM347 673h-207q0 -7 9 -14q1 -2 8 -7h-1q2 -4 6 -8t12 -7h1l10 -10q1 -3 5 -5q2 -2 4 -3.5t6 -3.5h138l12.5 12.5t15.5 17.5l-23 23q1 1 1.5 2t2.5 3z
M141 699l22 -22h212q0 2 -0.5 6.5t-0.5 6.5v9h3l22 -22h212q0 2 -0.5 6.5t-0.5 6.5v14l-22 22v6h-213q-4 -11 -4 -25l-19 19v6h-213q-3 -9 -3.5 -16t-0.5 -17h6zM43 375h-17v-52h6l7 -7h-13v-56h6l4 -4h-10v-133q0 -24 10 -45h-3q14 -23 29 -39t31 -27q8 -8 16.5 -14
t16.5 -11h11l11 -11q24 -9 44 -9h521v142l-4 4h4v17l-22 22v6h-339q2 1 4 3.5t7 7.5l-6 6h356v53l-10 10h10v50l-13 13h13v33l-22 22v6h-346q-6 0 -8 2h12q3 7 7 12t7 5h350v26l-19 19h19v40l-22 22v1h22v37l-22 22v6h-584q-8 -5 -20.5 -15t-32.5 -28h11l17 -17h-35
q-5 -11 -9.5 -22.5t-9.5 -23.5h8l13 -13h-23v-49h6zM540 773h-121q3 3 15 8h92q4 -2 7 -4t7 -4zM304 773h-121q3 3 15 8h92q4 -2 7 -4t7 -4zM163 662h162q-6 -8 -14 -14h-134q-5 3 -8 6.5t-6 7.5zM399 662h162q-6 -8 -14 -14h-134q-5 3 -8 6.5t-6 7.5zM578 710h-196
q0 9 1 11h194q0 -3 0.5 -5.5t0.5 -5.5zM342 710h-196q0 9 1 11h194q0 -3 0.5 -5.5t0.5 -5.5zM680 7v-7h-513q-23 0 -38 7h551zM680 424v-10h-342q-6 0 -11 -5t-8 -12h-282v21v6h643zM37 186h281q-1 -1 -1 -2t-0.5 -3t-0.5 -4t0.5 -4t0.5 -3q3 -6 11 -14.5t10 -8.5h342v-1
h-643v40zM680 522h-597q18 15 28 21h569v-21zM37 364h284q7 -13 24 -13h335v-17h-643v30zM680 459h-636q2 6 4.5 12t5.5 12h626v-24zM680 271h-643v34h643v-34zM680 245v-37h-643v37h643zM680 83h-634q-9 19 -9 40v3h643v-43zM680 20h-577q-14 9 -27 21t-22 26h626v-47z" />
    <glyph glyph-name="FL00ECh" unicode="&#xec;" horiz-adv-x="354" 
d="M205 788l-4 4h-87l-5 -5h-1q-4 -4 -5.5 -7t-9.5 -18h8l22 -22h121l-16 21l-10 9zM268 673h-156l31 -36h4l22 -22h104q4 7 15 30l-22 22q1 1 1 3t1 3zM246 732h-163q0 -14 1 -20.5t3 -12.5h5l22 -22h173q-5 8 -9 15t-8 12l-14 14q-3 4 -5.5 7.5t-4.5 6.5zM32 -11l22 -22
h296v142l-4 4h4v56l-6 6h6v53l-10 10h10v50l-13 13h13v46l-17 17h17v43l-19 19h19v40l-22 22v1h22v37l-22 22v6h-302v-43h6l17 -17h-23v-46h6l13 -13h-19v-49h6l11 -11h-17v-52h6l7 -7h-13v-56h6l4 -4h-10v-267h6zM196 781l4 -4l3 -4h-92q1 2 2 2.5t3 2.5l3 3h77zM135 662
h117q-2 -4 -4 -7t-4 -7h-97zM94 721h147q4 -4 5.5 -6.5t2.5 -4.5h-153q-2 10 -2 11zM317 7v-7h-280v7h280zM317 522h-280v21h280v-21zM317 459h-280v24h280v-24zM317 397h-280v27h280v-27zM317 334h-280v30h280v-30zM317 271h-280v34h280v-34zM317 208h-280v37h280v-37z
M317 146h-280v40h280v-40zM317 83h-280v43h280v-43zM317 20h-280v47h280v-47z" />
    <glyph glyph-name="FL00EDh" unicode="&#xed;" horiz-adv-x="354" 
d="M266 762h4l-30 30h-88l-4 -4q-5 -5 -5 -7l-14 -19h9l22 -22h128zM110 637l22 -22h103l26 30l-23 23l4 5h-156q2 -6 6.5 -15.5t13.5 -20.5h4zM276 732h-170q-3 -3 -5 -7l-2 -4q-1 -1 -6 -6.5t-15 -15.5h10l22 -22h176q6 6 6 12l5 15l-23 22zM32 -11l22 -22h296v142l-4 4h4
v56l-6 6h6v53l-10 10h10v50l-13 13h13v46l-17 17h17v43l-19 19h19v40l-22 22v1h22v37l-22 22v6h-302v-43h6l17 -17h-23v-46h6l13 -13h-19v-49h6l11 -11h-17v-52h6l7 -7h-13v-56h6l4 -4h-10v-267h6zM243 773h-92l3 4q1 1 1.5 2t1.5 2h78l3 -3zM207 648h-97q-7 9 -8 14h117z
M112 721h148q-1 -2 -1 -7q0 -2 -2 -4h-152q2 2 3.5 5t3.5 6zM317 7v-7h-280v7h280zM317 522h-280v21h280v-21zM317 459h-280v24h280v-24zM317 397h-280v27h280v-27zM317 334h-280v30h280v-30zM317 271h-280v34h280v-34zM317 208h-280v37h280v-37zM317 146h-280v40h280v-40z
M317 83h-280v43h280v-43zM317 20h-280v47h280v-47z" />
    <glyph glyph-name="FL00EEh" unicode="&#xee;" horiz-adv-x="354" 
d="M173 668l2 3l12 -17zM59 762l22 -22h238l-18 24l-11 11l-13 17h-204l-23 -30h9zM12 699l22 -22h332l-19 27l-14 13l-10 15h-296l-24 -33h9zM-36 637l22 -22h189l19 28l5 -6h4l22 -22h189l-21 30l-15 15l-9 13h-386l-28 -36h9zM32 -11l22 -22h296v142l-4 4h4v56l-6 6h6v53
l-10 10h10v50l-13 13h13v46l-17 17h17v43l-19 19h19v40l-22 22v1h22v37l-22 22v6h-302v-43h6l17 -17h-23v-46h6l13 -13h-19v-49h6l11 -11h-17v-52h6l7 -7h-13v-56h6l4 -4h-10v-267h6zM278 773h-206l6 8h194zM317 7v-7h-280v7h280zM145 648h-168l11 14h167zM373 648h-168
l-10 14h168zM326 710h-302l8 11h286zM317 522h-280v21h280v-21zM317 459h-280v24h280v-24zM317 397h-280v27h280v-27zM317 334h-280v30h280v-30zM317 271h-280v34h280v-34zM317 208h-280v37h280v-37zM317 146h-280v40h280v-40zM317 83h-280v43h280v-43zM317 20h-280v47h280
v-47z" />
    <glyph glyph-name="FL00EFh" unicode="&#xef;" horiz-adv-x="354" 
d="M2 762l22 -22h141l-25 25v3q-1 0 -7 6q-7 3 -7 8q-3 2 -7.5 4.5t-10.5 5.5h-97q-3 -2 -5 -3l-4 -2l-7 -3l1 -3v-19h6zM214 762l22 -22h165l-25 25v3q-1 0 -7 6q-7 3 -7 8q-3 2 -7.5 4.5t-10.5 5.5h-96q-8 -3 -17.5 -9.5t-28.5 -20.5h12zM163 673h-206q11 -14 19.5 -23.5
t12.5 -12.5h4l22 -22h139l12.5 12.5t15.5 17.5l-23 23q1 1 1.5 2t2.5 3zM399 673h-207q0 -7 9 -14q1 -2 8 -7h-1q2 -4 6 -8t12 -7h1l10 -10q1 -3 5 -5q2 -2 4 -3.5t6 -3.5h138l12.5 12.5t15.5 17.5l-23 23q1 1 1.5 2t2.5 3zM-43 699l22 -22h212q0 2 -0.5 6.5t-0.5 6.5v9h3
l22 -22h212q0 2 -0.5 6.5t-0.5 6.5v14l-22 22v6h-213q-4 -11 -4 -25l-19 19v6h-216q0 -1 -0.5 -4.5t-0.5 -5.5v-23h6zM32 -11l22 -22h296v142l-4 4h4v56l-6 6h6v53l-10 10h10v50l-13 13h13v46l-17 17h17v43l-19 19h19v40l-22 22v1h22v37l-22 22v6h-302v-43h6l17 -17h-23v-46
h6l13 -13h-19v-49h6l11 -11h-17v-52h6l7 -7h-13v-56h6l4 -4h-10v-267h6zM120 773h-121q4 2 7 4t8 4h92q4 -2 7 -4t7 -4zM356 773h-121q3 3 15 8h92q4 -2 7 -4t7 -4zM317 7v-7h-280v7h280zM215 662h162q-6 -8 -14 -14h-134q-5 3 -8 6.5t-6 7.5zM-21 662h162q-6 -8 -14 -14
h-134q-8 6 -14 14zM394 710h-196q0 9 1 11h194q0 -3 0.5 -5.5t0.5 -5.5zM158 710h-196q0 3 0.5 5.5t0.5 5.5h194q0 -3 0.5 -5.5t0.5 -5.5zM317 522h-280v21h280v-21zM317 459h-280v24h280v-24zM317 397h-280v27h280v-27zM317 334h-280v30h280v-30zM317 271h-280v34h280v-34z
M317 208h-280v37h280v-37zM317 146h-280v40h280v-40zM317 83h-280v43h280v-43zM317 20h-280v47h280v-47z" />
    <glyph glyph-name="FL0047h" unicode="&#xf0;" 
d="M349 158v11l-6 6h6v3h123v-5q-3 -3 -1 -3q-5 -12 -9 -12h-113zM472 370h-305q-20 0 -50.5 -12.5t-65.5 -34.5h15l7 -7h-20q-10 -11 -17 -25t-13 -31h7l4 -4h-8v-133q0 -24 10 -45h-3q27 -45 63 -68q12 -13 29 -23h12l11 -11q11 -5 22 -7t22 -2h466q11 0 21 2t21 7l-3 11
h26q36 24 61 63h-1q13 25 13 48v11l-4 4h4v56l-6 6h6v53l-10 10h10v50l-13 13h13v46l-17 17h17v43l-19 19h15q-5 11 -9 21t-9 19l-17 17l-3 6h8l-22 22h5q-20 18 -32.5 28t-20.5 15h-663v-43h6l17 -17h-23v-46h6l13 -13h-19v-32h6l22 -22h425l6 -6h-16v-5zM633 0h-466
q-24 0 -38 7h540q-14 -7 -36 -7zM763 424v-6v-21h-283q-2 7 -7 12t-11 5h-422v10h723zM40 543h648q10 -6 28 -21h-676v21zM40 483h705q4 -6 6.5 -12t4.5 -12h-716v24zM167 359h316v5h280v-30h-672q18 11 38 18t38 7zM338 147h124q11 0 14.5 8.5t6.5 14.5v16h280v-40h-726v40
h279v-16q3 -6 8.5 -14.5t13.5 -8.5zM763 271h-724q6 18 19 34h705v-34zM483 211h-167v-3h-279v37h726v-37h-280v3zM696 20h-594q-31 19 -48 47h690q-17 -28 -48 -47zM753 83h-707q-9 19 -9 40v3h726v-3q0 -21 -10 -40z" />
    <glyph glyph-name="FL00F1h" unicode="&#xf1;" horiz-adv-x="962" 
d="M456 668l2 3l12 -17zM343 762l22 -22h172l-18 24l-11 11l-13 17h-138l-23 -30h9zM547 762l22 -22h188l18 24l-23 23l4 5h-195l-23 -30h9zM296 699l22 -22h391l19 27l-23 23l4 5h-398l-24 -33h9zM248 637l22 -22h188l19 28l5 -6h4l22 -22h155l21 30l-24 23l4 5h-399
l-26 -36h9zM459 547v1q-1 0 0 -1l-1 -2v1v3h-1v1q-1 1 -1.5 2.5l-0.5 1.5h-429v-43h6l17 -17h-23v-46h6l13 -13h-19v-49h6l11 -11h-17v-52h6l7 -7h-13v-56h6l4 -4h-10v-267h6l22 -22h296v142l-4 4h4v56l-6 6h6v41l14 -19l45 -62l30 -41q0 -2 1 -2q3 -5 6 -9.5t9 -10.5
q17 -21 32 -36.5t29 -24.5q8 -8 15 -13.5t15 -10.5h10l10 -10q19 -10 44 -10h348v142l-4 4h4v56l-6 6h6v53l-10 10h10v50l-13 13h13v46l-17 17h17v43l-19 19h19v40l-22 22v1h22v37l-22 22v6h-303v-43h6l17 -17h-23v-46h6l13 -13h-19v-49h6l11 -11h-17v-52h6l7 -7h-10l-21 31
l-16 15l-1 2h7l-28 43l-14 13l-5 9v8q-4 7 -9 14t-11 15l-15 14l-3 6l-1 1q0 1 -1 2h2l-22 22h5q-4 3 -13.5 11.5t-16.5 13.5l-8 6t-6 5zM496 773h-140l6 8h128zM728 773h-168l6 8h168zM317 7v-7h-280v7h280zM633 648h-145l-10 14h165zM428 648h-167l10 14h167zM925 0h-340
q-24 0 -37 7h377v-7zM680 710h-372l8 11h372zM925 522h-281v21h281v-21zM925 459h-281v24h281v-24zM925 397h-281v27h281v-27zM925 334h-281v30h281v-30zM37 543h411q7 -5 13 -10t13 -11h-437v21zM317 208h-280v37h280v-37zM317 146h-280v40h280v-40zM37 483h472
q5 -7 9.5 -12.5t6.5 -10.5v-1h-488v24zM317 83h-280v43h280v-43zM317 20h-280v47h280v-47zM565 397h-528v27h511zM606 334h-569v30h549zM925 20h-402q-14 9 -26.5 21t-23.5 26h452v-47zM445 104l-16 22h496v-43h-465q-5 5 -8 10.5t-7 10.5zM925 146h-511l-29 40h540v-40z
M925 208h-556l-27 37h583v-37zM37 305h587l20 -30v30h281v-34h-602l-6 8v-8h-280v34z" />
    <glyph glyph-name="FL00F2h" unicode="&#xf2;" 
d="M427 788l-4 4h-87l-5 -5h-1q-4 -4 -5.5 -7t-9.5 -18h8l22 -22h121l-16 21l-10 9zM490 673h-156l31 -36h4l22 -22h104q4 7 15 30l-22 22q1 1 1 3t1 3zM468 732h-163q0 -14 1 -20.5t3 -12.5h5l22 -22h173q-5 8 -9 15t-8 12l-14 14q-3 4 -5.5 7.5t-4.5 6.5zM349 158v11l-6 6
h6v53l-10 10h10v50l-13 13h13v46l-17 17h18q5 15 13 17h121l6 -6h-17v-52h6l7 -7h-13v-56h6l4 -4h-10v-83q-2 -5 -5.5 -10t-5.5 -5h-113zM693 554h-586q-8 -5 -20.5 -15t-32.5 -28h11l17 -17h-35q-5 -11 -9.5 -22.5t-9.5 -23.5h8l13 -13h-23v-49h6l11 -11h-17v-52h6l7 -7
h-13v-56h6l4 -4h-10v-133q0 -24 10 -45h-3q14 -23 29 -39t31 -27q8 -8 16.5 -14t16.5 -11h11l11 -11q24 -9 44 -9h466q20 0 44 9l-3 11h25q36 24 61 63h-1q5 13 8.5 25t3.5 23v11l-4 4h4v56l-6 6h6v53l-10 10h10v50l-13 13h13v46l-17 17h17v43l-19 19h15q-7 18 -10.5 26
t-6.5 14l-19 18l-1 1v1q0 2 -1 3h7l-22 22h4q-17 17 -29.5 27.5t-20.5 15.5zM418 781l4 -4l3 -4h-92q1 2 2 2.5t3 2.5l3 3h77zM357 662h117q-2 -4 -4 -7t-4 -7h-97zM316 721h147q4 -4 5.5 -6.5t2.5 -4.5h-153q-2 10 -2 11zM129 7h542q-15 -7 -38 -7h-466q-23 0 -38 7z
M763 334h-279v30h279v-30zM316 334h-279v30h279v-30zM763 271h-279v34h279v-34zM316 271h-279v34h279v-34zM763 208h-279v37h279v-37zM316 208h-279v37h279v-37zM111 543h578q15 -9 27 -21h-633q18 15 28 21zM54 483h691l6 -12t5 -12h-712q2 6 4.5 12t5.5 12zM37 424h726v-6
v-21h-282q-3 7 -7.5 12t-11.5 5h-126q-12 -3 -17 -17h-282v21v6zM316 186v-16q1 -5 5 -14t17 -9h124q6 0 12.5 8.5t9.5 14.5v16h279v-40h-726v40h279zM54 67h691q-17 -28 -48 -47h-594q-14 9 -27 21t-22 26zM763 126v-3q0 -11 -2.5 -20.5t-6.5 -19.5h-708q-9 19 -9 40v3h726
z" />
    <glyph glyph-name="FL00F3h" unicode="&#xf3;" 
d="M490 762h4l-30 30h-88q-2 -2 -3 -2.5t-2 -2.5q-4 -4 -4 -6l-14 -19h9l22 -22h128zM334 637l22 -22h103l26 30l-23 23l4 5h-156q2 -6 6.5 -15.5t13.5 -20.5h4zM500 732h-170q-3 -3 -5 -7l-2 -4q-1 -1 -6 -6.5t-15 -15.5h10l22 -22h176q6 6 6 12l5 15l-23 22zM349 158v11
l-6 6h6v53l-10 10h10v50l-13 13h13v46l-17 17h18q5 14 12 17h122l6 -6h-17v-52h6l7 -7h-13v-56h6l4 -4h-10v-83q-2 -5 -5.5 -10t-5.5 -5h-113zM693 554h-586q-8 -5 -20.5 -15t-32.5 -28h11l17 -17h-35q-5 -11 -9.5 -22.5t-9.5 -23.5h8l13 -13h-23v-49h6l11 -11h-17v-52h6
l7 -7h-13v-56h6l4 -4h-10v-133q0 -24 10 -45h-3q14 -23 29 -39t31 -27q8 -8 16.5 -14t16.5 -11h11l11 -11q24 -9 44 -9h466q20 0 44 9l-3 11h25q36 24 61 63h-1q5 13 8.5 25t3.5 23v11l-4 4h4v56l-6 6h6v53l-10 10h10v50l-13 13h13v46l-17 17h17v43l-19 19h15
q-7 18 -10.5 26t-6.5 14l-19 18l-1 1v1q0 2 -1 3h7l-22 22h4q-17 17 -29.5 27.5t-20.5 15.5zM467 773h-92l3 4q1 1 1.5 2t1.5 2h78l3 -3zM431 648h-97q-7 9 -8 14h117zM336 721h148q-1 -2 -1 -7q0 -2 -2 -4h-152q2 2 3.5 5t3.5 6zM129 7h542q-15 -7 -38 -7h-466q-23 0 -38 7
zM316 334h-279v30h279v-30zM763 334h-279v30h279v-30zM763 271h-279v34h279v-34zM316 271h-279v34h279v-34zM763 208h-279v37h279v-37zM316 208h-279v37h279v-37zM111 543h578q15 -9 27 -21h-633q18 15 28 21zM54 483h691l6 -12t5 -12h-712q2 6 4.5 12t5.5 12zM37 424h726
v-6v-21h-282q-3 7 -7.5 12t-11.5 5h-126q-12 -3 -17 -17h-282v21v6zM316 186v-16q1 -5 5 -14t17 -9h124q6 0 12.5 8.5t9.5 14.5v16h279v-40h-726v40h279zM54 67h691q-17 -28 -48 -47h-594q-14 9 -27 21t-22 26zM763 126v-3q0 -11 -2.5 -20.5t-6.5 -19.5h-708q-9 19 -9 40v3
h726z" />
    <glyph glyph-name="FL00F4h" unicode="&#xf4;" 
d="M398 668l2 3l12 -17zM284 762l22 -22h238l-18 24l-11 11l-13 17h-204l-23 -30h9zM237 699l22 -22h332l-19 27l-14 13l-10 15h-296l-24 -33h9zM189 637l22 -22h189l19 28l5 -6h4l22 -22h189l-21 30l-15 15l-9 13h-388l-26 -36h9zM349 158v11l-6 6h6v53l-10 10h10v50
l-13 13h13v46l-17 17h18q5 14 12 17h122l6 -6h-17v-52h6l7 -7h-13v-56h6l4 -4h-10v-83q-2 -5 -5.5 -10t-5.5 -5h-113zM693 554h-586q-8 -5 -20.5 -15t-32.5 -28h11l17 -17h-35q-5 -11 -9.5 -22.5t-9.5 -23.5h8l13 -13h-23v-49h6l11 -11h-17v-52h6l7 -7h-13v-56h6l4 -4h-10
v-133q0 -24 10 -45h-3q14 -23 29 -39t31 -27q8 -8 16.5 -14t16.5 -11h11l11 -11q24 -9 44 -9h466q20 0 44 9l-3 11h25q36 24 61 63h-1q5 13 8.5 25t3.5 23v11l-4 4h4v56l-6 6h6v53l-10 10h10v50l-13 13h13v46l-17 17h17v43l-19 19h15q-7 18 -10.5 26t-6.5 14l-19 18l-1 1v1
q0 2 -1 3h7l-22 22h4q-17 17 -29.5 27.5t-20.5 15.5zM503 773h-206l6 8h194zM370 648h-168l10 14h168zM598 648h-168l-10 14h168zM551 710h-302l8 11h286zM129 7h542q-15 -7 -38 -7h-466q-23 0 -38 7zM763 334h-279v30h279v-30zM316 334h-279v30h279v-30zM763 271h-279v34
h279v-34zM316 271h-279v34h279v-34zM763 208h-279v37h279v-37zM316 208h-279v37h279v-37zM111 543h578q15 -9 27 -21h-633q18 15 28 21zM54 483h691l6 -12t5 -12h-712q2 6 4.5 12t5.5 12zM37 424h726v-6v-21h-282q-3 7 -7.5 12t-11.5 5h-126q-12 -3 -17 -17h-282v21v6z
M316 186v-16q1 -5 5 -14t17 -9h124q6 0 12.5 8.5t9.5 14.5v16h279v-40h-726v40h279zM54 67h691q-17 -28 -48 -47h-594q-14 9 -27 21t-22 26zM763 126v-3q0 -11 -2.5 -20.5t-6.5 -19.5h-708q-9 19 -9 40v3h726z" />
    </font>
</defs>
</svg>
