<?xml version="1.0" standalone="no"?>
<!DOCTYPE svg PUBLIC "-//W3C//DTD SVG 1.1//EN" "http://www.w3.org/Graphics/SVG/1.1/DTD/svg11.dtd" >
<svg xmlns="http://www.w3.org/2000/svg" xmlns:xlink="http://www.w3.org/1999/xlink" version="1.1">
<metadata>
Created by FontForge 20170731 at Sun Feb 13 06:55:03 2005
 By Aleksey,,,
Copyright \(c\) M. Klein, 2005. All rights reserved.
</metadata>
<defs>
<font id="CyberCaligraphic" horiz-adv-x="238" >
  <font-face 
    font-family="CyberCaligraphic"
    font-weight="500"
    font-stretch="normal"
    units-per-em="1000"
    panose-1="2 0 6 6 8 0 0 2 0 4"
    ascent="800"
    descent="-200"
    x-height="454"
    cap-height="612"
    bbox="-70.5417 -317.235 1091.53 878"
    underline-thickness="51"
    underline-position="-273"
    unicode-range="U+0005-E00E"
  />
<missing-glyph horiz-adv-x="152" 
d="M121 568v2q-11 11 -22 18q-5 5 -11 9t-11 9q-11 -11 -22.5 -20.5t-22.5 -20.5q0 -1 -1 -1v-1l1 -1q23 -13 44 -34l1 -1h1q0 1 1 1q8 13 19.5 21.5t22.5 18.5z" />
    <glyph glyph-name=".notdef" horiz-adv-x="152" 
d="M121 568v2q-11 11 -22 18q-5 5 -11 9t-11 9q-11 -11 -22.5 -20.5t-22.5 -20.5q0 -1 -1 -1v-1l1 -1q23 -13 44 -34l1 -1h1q0 1 1 1q8 13 19.5 21.5t22.5 18.5z" />
    <glyph glyph-name=".null" horiz-adv-x="0" 
 />
    <glyph glyph-name="nonmarkingreturn" horiz-adv-x="333" 
 />
    <glyph glyph-name="breve" horiz-adv-x="241" 
d="M211 619q-8 -2 -15.5 -2.5t-14.5 -2.5q-4 -18 -15 -32.5t-28 -22.5q-17 -2 -28 3.5t-17 15t-7.5 21.5t1.5 22l-55 -15q-2 -6 -1 -12t-1 -12q2 -21 12.5 -41t29.5 -31q16 -6 30 -5.5t25.5 6t21 13.5t17.5 16q15 17 29 36.5t16 42.5z" />
    <glyph glyph-name="dotaccent" horiz-adv-x="197" 
d="M166 572q-15 17 -31.5 30.5t-32.5 29.5q-1 0 -1.5 0.5t-1.5 0.5q-17 -18 -33.5 -36.5t-34.5 -35.5v-1q1 0 1 -1q18 -12 33.5 -26t30.5 -29q1 0 1.5 -0.5t1.5 -0.5h1q0 1 1 1q14 20 31 36z" />
    <glyph glyph-name="ring" 
d="M208 576q0 16 -7 30.5t-18.5 26t-26 18.5t-30.5 8q-20 0 -37.5 -7t-30.5 -18t-20 -26t-7 -32q0 -16 6.5 -31t18 -26.5t26 -19t30.5 -8.5q41 2 68.5 26.5t27.5 58.5zM170 575q0 -24 -16 -36t-35 -12t-35 12t-16 36t15.5 36t34.5 12q20 0 36 -12t16 -36z" />
    <glyph glyph-name="hungarumlaut" unicode="&#xa;" horiz-adv-x="279" 
d="M249 663l-4 2q-11 4 -22.5 7.5t-23.5 2.5q-13 -36 -28 -70.5t-31 -69.5q-5 -10 -9 -20.5t-9 -21.5l3 -2q2 -1 5 -1t5 -1q35 36 64.5 76.5t46.5 88.5q1 2 2 4.5t1 4.5zM155 668l-3 3q-11 4 -22.5 6t-22.5 0q-18 -35 -36.5 -69t-29.5 -71q-4 -9 -7 -18.5t-3 -19.5l2 -2
l9 -3l2 1q29 39 56.5 79t50.5 84z" />
    <glyph glyph-name="ogonek" horiz-adv-x="201" 
d="M170 -119v3l-5 7l-7 4l-4 -2l-8 -8l-9 -9l-1 -2q-7 -4 -13.5 -8.5t-14.5 -2.5q-12 0 -22 10q-3 15 -3 22q0 6 1 11q10 26 18 42t17 30l24 32t26 30q-10 -2 -19 -5.5t-17 -8.5q-17 -15 -33.5 -32t-30.5 -36t-24 -39.5t-14 -43.5q2 -18 14.5 -33t31.5 -15q23 -2 41.5 10.5
t35.5 26.5l8 9z" />
    <glyph glyph-name="caron" horiz-adv-x="284" 
d="M255 662q-5 2 -9 4.5t-8 4.5q-10 -5 -19.5 -11.5t-17.5 -14.5q-14 -11 -28 -21.5t-30 -21.5q-4 -3 -9 -6t-9 -7q-22 18 -39.5 40.5t-37.5 42.5v0q0 1 -2 1q-2 -1 -5 -1.5t-5 -1.5t-2.5 -1.5t-2.5 -1.5v-1h-2q9 -19 15 -38.5t16 -37.5q14 -26 29 -50.5t29 -50.5
q20 29 43 55t46 53q12 16 26 30.5t22 34.5z" />
    <glyph glyph-name="dotlessi" unicode="&#xd;" horiz-adv-x="237" 
d="M205 13q-2 6 -6.5 6.5t-9.5 -1t-10.5 -4t-9.5 -2.5q-23 0 -30.5 12.5t-8.5 25.5q-3 91 5 180t23 178q4 9 5 18.5t2 18.5l-4 6q-1 1 -2 1t-2 1q-22 3 -43.5 0t-43.5 -4l-18 -2t-17 -5q-2 -5 -3.5 -8.5t0.5 -8.5l3 -3q6 1 14 2t14.5 -0.5t11.5 -6t5 -13.5q4 -24 2 -47
t-4 -47q-2 -51 -5.5 -102t-8.5 -102q-2 -29 -6 -57t-3 -57q6 -12 16.5 -15.5t23 -2.5t25.5 4.5t23 6.5q14 3 26.5 6.5t25.5 9.5q2 3 5 5.5t5 6.5z" />
    <glyph glyph-name="fraction" horiz-adv-x="349" 
d="M319 648q-14 4 -27.5 7t-27.5 5q-47 -179 -107.5 -352.5t-126.5 -345.5q14 -4 26.5 -7.5t26.5 -4.5q26 91 58 179.5t62 179.5q27 85 56.5 169.5t59.5 169.5z" />
    <glyph glyph-name="fi" horiz-adv-x="626" 
d="M596 13q-2 7 -7 8.5t-11 1t-12 -2t-11 -1.5q-23 2 -29.5 14t-7.5 25q-2 87 4 172.5t10 172.5q1 9 2.5 18.5t-0.5 18.5l-4 6l-4 1q-21 5 -42.5 4t-42.5 1q-9 2 -18.5 3t-18.5 3l-4 -10l2 -8l6 -6q14 -1 30 -5.5t18 -22.5q7 -23 6.5 -47t-0.5 -47q1 -51 -1.5 -101
t-8.5 -101q-4 -29 -8 -58.5t-6 -58.5q1 -7 5.5 -9.5t10.5 -3t12.5 0.5t11.5 1q20 3 31.5 6.5t22.5 5.5q13 3 26 5.5t27 4.5l6 4t5 5zM368 466l-1 3q-11 4 -22 2l-22 -4q-32 -7 -58 -24.5t-47.5 -40.5t-39.5 -50.5t-34 -53.5q7 25 8.5 50t5.5 50q3 17 7.5 33.5t1.5 33.5l-6 2
q-30 -5 -58 -16.5t-59 -14.5l-6 -6q0 -3 -0.5 -6.5t-0.5 -6.5l4 -2q8 2 14.5 3.5t14.5 3.5q9 2 13 -5t4 -15q2 -65 -4 -128.5t-14 -127.5q-6 -54 -10 -107t-11 -107q-5 -42 -10 -82t-8 -82l4 -4q20 5 38.5 13.5t35.5 19.5q-1 58 3 114.5t6 114.5q36 -2 73 -1.5t73 7.5
q17 3 30 13.5t27 19.5q16 7 27 21l-1 5l-4 2q-10 0 -18.5 -2.5t-18.5 -3.5q-92 -3 -183 6q4 41 7.5 81t16.5 79q7 24 20.5 48t32 43t42 31.5t50.5 14.5q9 -1 19 -3.5t12 -13.5q-2 -11 -5.5 -20.5t-5.5 -20.5q2 -2 5 -4.5t5 -4.5q9 3 11 5.5t4 4.5q2 32 6 65t24 61z" />
    <glyph glyph-name="fl" horiz-adv-x="739" 
d="M709 53l-2 5l-5 1q-45 -17 -93 -19t-95 9q5 84 11.5 168.5t12 169.5t8 169.5t-0.5 169.5q-1 1 -2 1l-1 1q-18 -2 -36 -6t-36 -6q-34 3 -64 -4v-9q2 -2 2.5 -5t2.5 -5l11 -1l11 1q23 -6 28.5 -19.5t7.5 -26.5q10 -94 5.5 -187t-9.5 -187q-4 -62 -8.5 -123t-16.5 -121
q-1 -14 -8 -24.5t-18 -18.5l1 -3l4 -1q26 6 51.5 4.5t51.5 -1.5q29 1 60 3t57 17q14 8 26 16.5t25 17.5q11 5 19 14zM384 457l-1 4q-11 4 -23.5 1t-23.5 -5q-33 -6 -60 -22.5t-50 -39t-42 -49t-35 -53.5q3 25 6 49t6 49q2 17 6 33t0 32q-2 1 -3.5 1.5t-3.5 1.5
q-32 -5 -62 -14.5t-62 -11.5l-6 -5v-13l6 -2q7 2 13.5 3t14.5 3q9 2 15 -5t6 -16q7 -64 3 -128t-9 -128q-4 -53 -7.5 -105t-9.5 -105q-5 -42 -9.5 -82t-7.5 -82q1 -1 1.5 -2t1.5 -2q20 5 39 12t36 19q0 57 2.5 113.5t4.5 113.5q35 -4 71 -4t71 8q17 3 30.5 12.5t27.5 18.5
l14 10t12 12l-1 4q-1 1 -2 1t-2 1q-9 0 -18.5 -2t-18.5 -3q-46 -2 -91.5 0.5t-90.5 8.5q2 40 5.5 80t14.5 79q7 25 20.5 49t32.5 42.5t43 30t52 12.5q9 -1 20.5 -3t12.5 -13q-2 -11 -6.5 -21t-4.5 -21l8 -8l11 1l6 8q2 33 8 65.5t26 60.5z" />
    <glyph glyph-name="Lslash" horiz-adv-x="422" 
d="M392 148q-7 11 -18 6t-11 -15q1 -10 1.5 -21t-1.5 -21t-7 -18.5t-16 -13.5q-35 -16 -74 -21.5t-77 -5.5q-7 33 -8.5 66t-1 66t1 66.5t-2.5 66.5q26 16 50.5 32.5t51.5 30.5l-19 45q-20 -17 -40.5 -31.5t-40.5 -29.5q-2 56 5 111.5t12 111.5q5 9 13.5 12t17.5 3
q10 0 19.5 -1t18.5 -1l3 2q4 7 1 15.5t-12 8.5q-29 2 -59 0t-61 -5l-40 -4t-40 -6q-6 -5 -7 -11t-1 -13l4 -2q10 2 19 5t19 4q14 -4 16 -17.5t2 -24.5q-2 -60 2.5 -119.5t-3.5 -119.5q-19 -14 -39 -25.5t-40 -23.5q5 -11 7.5 -22.5t6.5 -22.5q17 12 32.5 24.5t32.5 23.5
q-3 -29 -3 -60q0 -30 -0.5 -60t-3.5 -60t-13 -58q-11 -5 -21 -1t-21 6q0 -3 -2 -4q0 -6 2.5 -12.5t8.5 -9.5q38 -11 78 -11t80 -3q29 -2 58.5 -3.5t58.5 2.5q17 3 26 17q14 36 22 74.5t13 77.5z" />
    <glyph glyph-name="lslash" horiz-adv-x="375" 
d="M345 53q-2 1 -2 4l-4 1q-10 -5 -19 -10.5t-21 -8.5q-33 -8 -69.5 -9.5t-70.5 10.5q0 78 6.5 155t11.5 155q23 20 50 35t53 30q-6 11 -9.5 23t-8.5 23q-38 -34 -82 -61q4 68 10 134.5t11 133.5q1 15 3 30t0 30q0 1 -2 1q-1 0 -1 1q-2 0 -3.5 -0.5t-3.5 -0.5
q-24 -13 -51.5 -16t-53.5 -11q-6 -3 -12 -5l-12 -4l-3 -11q2 -5 5.5 -6t8 -0.5t9 2.5t7.5 3q9 3 15 -0.5t9 -10t4.5 -14.5t1.5 -14q4 -73 -1.5 -145t-10.5 -145q-20 -13 -39.5 -26.5t-40.5 -24.5q5 -11 8 -23t6 -23q16 12 31.5 24t32.5 23q-5 -69 -8.5 -136.5t-11.5 -136.5
q-1 -11 -5 -21t-15 -13v-2q2 -1 2 -3l3 -2q25 -1 48.5 -6t47.5 -7q35 -7 70 2t61 35q11 8 21.5 17.5t21.5 18.5q0 3 2 5z" />
    <glyph glyph-name="Zcaron" horiz-adv-x="561" 
d="M414 839q-9 5 -16 10q-27 -19 -53 -40.5t-52 -41.5q-23 20 -41 43.5t-41 43.5l-2 1q-5 -2 -8 -3t-7 -2l-2 -2q22 -48 47.5 -92t51.5 -89q32 43 63 85t60 87zM531 585l-4 4l-6 3q-10 0 -18 -3t-19 -5q-18 -2 -37 -3.5t-39 0.5q-67 5 -130 12q-32 4 -63.5 9.5t-64.5 7.5
q-19 2 -40.5 3.5t-37.5 -13.5q-2 -11 -2.5 -20.5t-2.5 -20.5q-4 -35 -12.5 -67.5t-13.5 -66.5v-6q5 -6 12 -8.5t14 -4.5q10 8 7 20q0 25 6.5 51t31.5 38q71 24 145 25.5t148 0.5q-35 -38 -59.5 -82t-52.5 -88q-39 -63 -78.5 -126t-81.5 -126q-20 -31 -44 -58.5t-54 -48.5
q-2 -2 -3.5 -4t-1.5 -5q7 -7 15.5 -9.5t17.5 -2.5q60 -10 120 -17t122 -9q20 -1 40.5 -1.5t40.5 2.5q19 5 31.5 15.5t20.5 23t13 26.5t9 27q8 31 17.5 61t12.5 62q-3 7 -9.5 9.5t-13 1.5t-11 -6t-3.5 -12q-1 -17 -1.5 -37t-5 -38t-14 -33.5t-28.5 -23.5q-66 -17 -134 -12
t-134 14q13 13 24 25t24 25q63 68 115 144.5t101 155.5q11 20 23 39l24 38q17 28 37.5 53t42.5 49q0 3 2.5 6t0.5 6h1z" />
    <glyph glyph-name="zcaron" horiz-adv-x="465" 
d="M399 667q-5 3 -8.5 6t-8.5 5h-3l-99 -75q-23 21 -44 45t-44 45q-3 -2 -6.5 -2.5t-6.5 -2.5v-1v-2q23 -47 47.5 -92.5t52.5 -89.5q29 42 62 80.5t58 83.5zM435 438q-2 1 -2 2t-2 2l-4 2q-62 -5 -123 -1.5t-124 4.5q-17 0 -36.5 0.5t-33.5 -10.5q2 -15 -0.5 -29.5
t-2.5 -29.5q-5 -17 -11 -34t-8 -35q5 -3 10 -5.5t11 -1.5l4 1l3 3q3 16 3 32t6 32q19 16 41.5 24t47.5 11t50 3t49 2q-42 -79 -92.5 -151.5t-104.5 -144.5q-20 -27 -39 -54.5t-45 -50.5q0 -4 -2 -6l5 -4q60 -14 121.5 -20t123.5 -2q17 -1 34.5 0t30.5 13q5 19 7.5 37.5
t5.5 37.5q2 15 9 29.5t9 29.5q-7 7 -10.5 7.5t-6.5 0.5q-10 -8 -12 -21t-3.5 -26.5t-5.5 -26t-17 -19.5q-41 -23 -88.5 -24t-92.5 6q5 6 8 12.5t8 11.5q65 100 132.5 197t143.5 189z" />
    <glyph glyph-name="space" unicode=" " horiz-adv-x="217" 
 />
    <glyph glyph-name="exclam" unicode="!" 
d="M208 632q0 1 -1 1t-1 1t-1 1t-1 1q-22 5 -43 2t-42 -5q-5 -1 -9 -1q-3 0 -8 -2l-2 -3v-6q2 -93 -0.5 -185t-2.5 -185q-1 -20 -3 -39.5t3 -39.5l6 -4q5 -1 9.5 -2t9.5 1q11 44 16.5 88t13.5 88q11 69 25 137t28 137zM182 49q-18 13 -36 27l-36 28q-2 2 -3.5 2.5t-3.5 2.5
q-18 -15 -35.5 -30.5t-37.5 -29.5q18 -24 39 -44.5t43 -40.5l2 1l66 78l2 3v3z" />
    <glyph glyph-name="quotedbl" unicode="&#x22;" horiz-adv-x="254" 
d="M219 599q-7 10 -18 9.5t-21 0.5q-4 0 -9.5 1.5t-11.5 1.5q-5 0 -8.5 -2t-4.5 -8q5 -42 12 -83t10 -83q2 -12 10 -16q22 8 23 17q10 40 16.5 80t1.5 82zM105 596v12l-1 2l-8 1q-15 -2 -31 -2q-15 0 -30 -5q-1 -2 -1 -3l-1 -2q0 -4 -0.5 -7t-0.5 -7q0 -38 5.5 -75t13.5 -73
q5 -15 21 -17q8 -1 11 4.5t3 11.5q2 41 8 80.5t11 79.5z" />
    <glyph glyph-name="numbersign" unicode="#" horiz-adv-x="666" 
d="M636 421q-35 2 -69 2t-69 2q9 48 15.5 96t16.5 96q-16 -4 -32 -6.5t-32 -3.5q-3 -46 -10 -91t-15 -90q-40 1 -80 2.5t-80 -0.5q11 51 22 100t25 99q-17 -5 -33 -10t-33 -7q-8 -46 -18.5 -91t-21.5 -90q-32 1 -63.5 -0.5t-63.5 -1.5q-5 -16 -13 -30.5t-15 -28.5
q36 1 71.5 2.5t71.5 4.5q-10 -39 -18.5 -78.5t-17.5 -78.5q-31 1 -61.5 2t-60.5 4q-5 -15 -10 -29t-12 -28q33 1 65.5 -1.5t65.5 0.5q-4 -44 -15 -85.5t-19 -84.5q-5 -26 -7.5 -51.5t-9.5 -50.5q17 0 34.5 3t34.5 5q8 66 19.5 131t24.5 131q41 1 80 -0.5t80 -0.5
q-9 -45 -20.5 -88t-22.5 -87q-7 -27 -11.5 -54.5t-15.5 -53.5q17 4 34.5 8.5t35.5 7.5q15 67 30.5 133t32.5 133q32 -1 64.5 -0.5t64.5 0.5q5 16 12.5 30.5t15.5 29.5q-72 -6 -145 -6q17 80 30 157q31 1 61.5 -3.5t61.5 -4.5q4 15 10.5 28.5t14.5 27.5zM430 375
q-9 -40 -16.5 -79.5t-17.5 -79.5q-41 0 -80.5 0.5t-80.5 0.5q8 40 15 79.5t18 79.5q41 1 81 0t81 -1z" />
    <glyph glyph-name="dollar" unicode="$" horiz-adv-x="514" 
d="M448 111q16 27 21.5 56t0.5 55t-21 46.5t-42 30.5q-29 15 -60.5 23.5t-61.5 20.5q5 57 10 111.5t8 111.5q31 -7 53.5 -30t18.5 -57q1 -8 -1.5 -15t0.5 -15q3 -1 5.5 -2t5.5 -2l11 2l3 2q-4 38 2.5 76.5t20.5 73.5q-54 24 -115 24q2 19 2.5 37t1.5 37q-10 -5 -20 -9
t-20 -9q-2 -14 -1.5 -29t-1.5 -29q-10 -2 -19.5 -3.5t-19.5 -3.5q-50 -11 -89 -45t-63 -79q-15 -27 -17 -54t5.5 -50.5t24.5 -42t40 -28.5q27 -11 53.5 -20.5t54.5 -18.5q-6 -63 -11 -125.5t-10 -125.5q-20 7 -40 17.5t-37 24t-29 31.5t-16 40q-1 16 2 31.5t5 31.5l-1 2
q0 1 -1 3q-6 1 -11.5 2t-11.5 3l-3 -2q-2 -16 -2.5 -32t-2.5 -32q-1 -12 -5.5 -23.5t-9.5 -23t-9 -23t-4 -24.5q11 -19 27.5 -32.5t36 -23t41 -15.5t41.5 -10q6 0 13 -1t13 -1q-3 -26 -3.5 -51t-3.5 -51q9 3 18.5 4t17.5 6q2 23 3.5 46.5t3.5 46.5q5 1 11 1.5t11 2.5
q58 10 103 49.5t74 88.5zM264 567q-5 -53 -9.5 -104.5t-9.5 -104.5q-13 6 -25.5 12t-26.5 12q-21 10 -35 28.5t-19.5 40t-1 44t20.5 40.5q20 22 49 27.5t57 4.5zM393 153q4 -26 -4 -50t-24.5 -42.5t-40 -28.5t-49.5 -7h-12h-7q6 60 11.5 119.5t10.5 119.5q21 -4 41 -13.5
t36.5 -23.5t26.5 -32.5t11 -41.5z" />
    <glyph glyph-name="percent" unicode="%" horiz-adv-x="781" 
d="M748 254q0 24 -8 46.5t-23 39.5t-36 27.5t-46 9.5q-51 -1 -85 -28t-55 -66.5t-29.5 -86.5t-6.5 -88q1 -19 5.5 -39.5t13.5 -38t23.5 -31t35.5 -17.5q26 -2 48.5 4.5t41 17.5t34.5 26t29 31q33 40 45 91t13 102zM538 696q-14 -2 -27 -0.5t-27 -0.5q-33 -132 -77 -258.5
t-89 -254.5q-26 -73 -49 -145t-48 -145q14 2 26.5 0.5t26.5 -1.5q16 73 40.5 143t47.5 141l36 108t39 108q29 75 55.5 151t45.5 154zM322 498q-2 30 -12.5 60.5t-36.5 49.5q-32 15 -60 12.5t-49 -16.5q-35 -23 -60.5 -52t-41.5 -62t-23 -68.5t-5 -70.5q-2 -26 7.5 -51
t26.5 -43.5t40.5 -28t50.5 -3.5q54 11 90 46t51 80q11 36 18 72.5t4 74.5zM682 218q-1 -24 -2.5 -53t-9 -56t-22.5 -48t-43 -30q-23 -1 -38.5 10t-25 29t-13.5 39t-4 39q0 24 1.5 47.5t6.5 46.5q3 16 8.5 32t13 28.5t18.5 20t26 7.5q21 0 36.5 -11t25.5 -27.5t15.5 -36
t6.5 -37.5zM257 460q1 -48 -6 -96q-3 -17 -7.5 -33.5t-12 -30t-18 -22t-26.5 -8.5q-23 0 -39.5 11.5t-27.5 29t-16 38.5t-5 41q-1 51 14 102q4 13 10 27.5t15.5 26.5t22 19t29.5 6q38 -19 51.5 -50t15.5 -61z" />
    <glyph glyph-name="ampersand" unicode="&#x26;" horiz-adv-x="628" 
d="M592 36q0 1 -0.5 2t-0.5 2v2q-26 1 -48.5 11t-43.5 25t-40.5 32.5t-38.5 32.5q16 26 33.5 51.5t33.5 51.5t29.5 53.5t22.5 56.5q-2 2 -5 3t-5 3q-38 -1 -75 -0.5t-75 1.5q-2 0 -4.5 -0.5t-4.5 -0.5q-2 -3 -6 -6t-2 -8q4 -10 11.5 -11.5t16.5 -0.5t18 1.5t17 -3.5
q7 -8 9 -17.5t2 -19.5q1 -35 -10 -68t-28 -64q-38 42 -70.5 87t-61.5 93q25 19 50 41t45 47.5t31.5 55.5t9.5 64q-2 31 -24.5 53t-53.5 19q-38 -4 -68 -24.5t-51.5 -51t-33 -66.5t-12.5 -71q-1 -26 4.5 -51.5t16.5 -48.5v1q-11 -9 -23.5 -16.5t-24.5 -14.5q-23 -13 -42 -32
t-32 -41.5t-19 -47.5t-1 -52q5 -29 21.5 -53t36.5 -44q32 -32 70.5 -39.5t76 3.5t70.5 36.5t53 58.5q29 -28 60.5 -53.5t67.5 -44.5q23 19 48 33.5t50 29.5zM340 520q2 -21 -3 -41.5t-15 -39.5t-24 -35t-30 -29q-3 -3 -6 -5.5t-6 -5.5q-11 23 -19.5 49.5t-11 53.5t3 53
t23.5 49q7 8 16 16t21 8q13 -2 22 -9t15 -17.5t9.5 -23t4.5 -23.5zM347 93q-17 -18 -37 -33.5t-43 -23.5q-28 -9 -56.5 -4t-52.5 21t-40.5 40.5t-19.5 53.5q-2 23 3 45t19 40t32.5 33t38.5 28q34 -54 73 -103.5t83 -96.5z" />
    <glyph glyph-name="quotesingle" unicode="'" horiz-adv-x="125" 
d="M99 593q0 3 1 6.5t-3 6.5l-4 2l-4 2q-15 1 -30.5 2.5t-29.5 -6.5l-3 -6v-14q0 -38 3.5 -74.5t8.5 -73.5l3 -12q9 -5 11.5 -6t4.5 -2q8 0 11 5t5 12q7 40 14 79t12 79z" />
    <glyph glyph-name="parenleft" unicode="(" horiz-adv-x="314" 
d="M268 642q-5 6 -9.5 13t-9.5 13q-69 -51 -113 -123.5t-66.5 -155t-23.5 -169.5t16 -168q16 -76 49.5 -146t80.5 -132q6 5 13 10.5t12 11.5q-38 69 -60 144.5t-26 153.5q-3 64 -1.5 130t11.5 130.5t30 126.5t53 119q9 12 19.5 23.5t24.5 18.5z" />
    <glyph glyph-name="parenright" unicode=")" horiz-adv-x="327" 
d="M196 -69q46 89 64.5 188.5t10 199t-44.5 193.5t-99 172q-7 -5 -13.5 -10t-11.5 -11q3 -7 7 -12t8 -11q37 -80 55 -166t20 -173.5t-11 -175.5t-37 -171q-16 -37 -36 -74.5t-55 -60.5q4 -8 9 -14t9 -13q43 22 73 59.5t52 79.5z" />
    <glyph glyph-name="asterisk" unicode="*" horiz-adv-x="325" 
d="M295 516q-9 14 -15.5 29t-13.5 29q-17 -17 -36.5 -32t-42.5 -23q-3 24 3.5 47.5t13.5 46.5q-16 0 -31.5 -0.5t-30.5 1.5q9 -22 9 -46q0 -23 -4 -46q-20 8 -35 23t-24 35q-9 -17 -21.5 -31t-25.5 -28q23 -2 43.5 -10.5t38.5 -21.5q-21 -15 -45 -21.5t-48 -11.5
q11 -14 19 -28.5t16 -29.5q14 21 34 35.5t42 25.5q-4 -46 -20 -91q16 -1 30.5 0t29.5 -1q-5 23 -6 46t6 46q20 -11 36 -27t29 -35q9 16 21 29.5t23 27.5q-23 5 -46 12.5t-41 22.5q21 13 44.5 19t47.5 8z" />
    <glyph glyph-name="plus" unicode="+" horiz-adv-x="456" 
d="M426 245q-44 -2 -86.5 -3t-85.5 -1q-2 42 0.5 82.5t0.5 82.5q-14 -6 -28.5 -11t-29.5 -8q7 -36 6 -73t-1 -74q-38 -1 -76.5 0t-76.5 4q-2 -15 -7 -29t-12 -28q44 2 87 2.5t86 -0.5q-2 -42 -2 -82t-2 -82q15 5 30 9.5t29 9.5q-2 36 -2.5 72t-0.5 73q38 -1 75.5 1t75.5 -3
q5 14 9.5 29t10.5 29z" />
    <glyph glyph-name="comma" unicode="," horiz-adv-x="272" 
d="M242 127q0 1 -1 2t-1 2l-3 3q-9 4 -18 1.5t-18 -0.5q-6 1 -13 3t-14 2.5t-13 -1.5t-10 -8q-25 -63 -55.5 -121.5t-56.5 -120.5q-2 -6 -5 -12t-3 -13q4 -6 11 -10t14 1q49 66 97.5 133t88.5 139z" />
    <glyph glyph-name="hyphen" unicode="-" horiz-adv-x="289" 
d="M261 254q-51 -5 -102.5 -4.5t-102.5 5.5q-10 -14 -18.5 -24.5t-9.5 -28.5q51 3 102.5 2.5t102.5 -3.5q11 14 21 24.5t7 28.5z" />
    <glyph glyph-name="period" unicode="." horiz-adv-x="224" 
d="M194 58q-10 9 -20.5 16.5t-21.5 15.5q-10 8 -18.5 17.5t-19.5 16.5q-20 -20 -40.5 -37.5t-40.5 -36.5q-1 -1 -1 -2l-1 -1q0 -1 0.5 -1.5t0.5 -1.5q21 -14 41.5 -28.5t37.5 -33.5q1 0 1.5 -0.5t1.5 -0.5t1 1h1q14 23 36.5 38t40.5 35q0 1 0.5 1.5t0.5 1.5z" />
    <glyph glyph-name="slash" unicode="/" horiz-adv-x="417" 
d="M387 676q-14 3 -27.5 5.5t-27.5 4.5q-39 -129 -91.5 -254t-102.5 -250q-27 -68 -53 -135.5t-55 -134.5q14 -2 26.5 -6t26.5 -5q21 71 47.5 138t53.5 136q21 54 42.5 108t44.5 108q31 71 62 141t54 144z" />
    <glyph glyph-name="zero" unicode="0" horiz-adv-x="535" 
d="M489 417q-3 34 -14.5 70.5t-32.5 66.5t-51 49.5t-69 20.5q-52 -5 -93.5 -28t-73.5 -58.5t-54.5 -80t-36 -93t-17.5 -98t0 -94.5q3 -33 13.5 -68t30 -64.5t48 -49.5t66.5 -23t71 12q59 29 101.5 77.5t69.5 107.5t37.5 124.5t4.5 128.5zM401 363q5 -69 -5.5 -135.5
t-32.5 -132.5q-11 -32 -38.5 -53t-62.5 -15q-26 4 -46.5 19t-35.5 35t-24.5 44.5t-13.5 48.5q-4 19 -6 38.5t-4 38.5q-1 36 1 73t9.5 73t21.5 70t37 64q11 14 27 24.5t35 8.5q36 -3 61 -24t41 -50t24.5 -63t11.5 -64z" />
    <glyph glyph-name="one" unicode="1" horiz-adv-x="328" 
d="M296 16q-1 1 -2 1t-2 1q-9 -1 -19.5 -4.5t-20.5 -4.5t-18.5 2t-12.5 16q-9 148 -5.5 295t14.5 295q0 1 -0.5 1.5t-0.5 1.5q-8 2 -14 -1.5t-12 -7.5q-34 -17 -68.5 -32t-70.5 -27q-16 -4 -31 -15q0 -2 -0.5 -2.5t-0.5 -2.5q1 -5 1.5 -10t3.5 -10l5 -3q20 13 41.5 21.5
t44.5 16.5q2 -2 2.5 -5t2.5 -5q2 -13 2.5 -18t2.5 -9q3 -50 5.5 -99.5t0.5 -99.5q-2 -46 -4 -91t-3 -91q-1 -17 -1.5 -34t-1.5 -34q-6 -25 -15.5 -40.5t-27.5 -13.5q-9 1 -17 5t-17 3l-5 -8l2 -11l1 -2q21 -11 44 -8.5t46 0.5q6 0 12.5 1t14.5 2q17 2 32.5 0.5t29.5 -2.5
t28 0.5t29 8.5q3 5 5 9.5t0 10.5z" />
    <glyph glyph-name="two" unicode="2" horiz-adv-x="469" 
d="M428 133q0 2 -0.5 2.5t-0.5 2.5q-4 2 -7.5 3.5t-7.5 1.5h-9q-11 -5 -11.5 -17t-2.5 -22q-4 -18 -12 -28t-19 -12q-57 -14 -113.5 -14.5t-112.5 4.5q40 49 83.5 99.5t79 105.5t59 114t23.5 124q0 26 -9.5 49.5t-25.5 41.5q-30 34 -68 37t-77 -12.5t-75 -43.5t-62 -56
q-7 -9 -9 -12t-3 -5q3 -8 9.5 -12t13.5 -6l3.5 3.5l3.5 3.5q17 29 44.5 52.5t61.5 26.5q30 3 50.5 -10t32.5 -34.5t16.5 -48.5t3.5 -51q-2 -49 -18 -94t-41 -87t-56 -80t-64 -73q-20 -21 -41 -41t-38 -43l-1 -2l2 -4l5 -3l112 -10t112 -9q24 -2 48.5 -5t48.5 -1
q11 7 14 18.5t6 22.5q10 32 24 62.5t28 61.5z" />
    <glyph glyph-name="three" unicode="3" horiz-adv-x="490" 
d="M428 112q18 37 14.5 71t-21 61.5t-45.5 45.5t-59 24q-9 3 -18 5.5t-18 5.5q25 12 50 29t44.5 39t30 49.5t6.5 59.5q-4 25 -15.5 48t-29.5 40t-41 26t-49 8q-26 1 -49.5 -5.5t-45.5 -18t-42.5 -27t-39.5 -30.5q-8 -7 -14 -15t-13 -16q1 -7 5 -11.5t9 -8.5l4.5 -4.5
t5.5 -2.5q13 12 25.5 25.5t27 25.5t30.5 20t36 8q23 0 41 -10t35 -25q26 -24 32 -58.5t-5 -65.5t-37 -52t-64 -18q-17 1 -34.5 2.5t-34.5 0.5l-5 -4q-1 -4 -1 -8q0 -3 -2 -6q5 -10 7 -13.5t4 -5.5q18 -8 37 -5t38 -1q31 -7 50.5 -20t33.5 -30q20 -19 30 -45t11 -53
t-6.5 -53.5t-23.5 -47t-40 -33t-55 -11.5q-39 1 -73.5 19.5t-59.5 47.5q-5 5 -10 11t-11 10l-3 1l-3 -1q-9 -9 -15 -20.5t-4 -25.5q13 -20 31.5 -33.5t40 -22.5t45 -14.5t45.5 -8.5q36 -1 68.5 10t60.5 31.5t51 47.5t38 58z" />
    <glyph glyph-name="four" unicode="4" horiz-adv-x="528" 
d="M498 287l-3 3q-2 0 -3 -0.5t-3 -0.5q-34 -5 -67.5 -9.5t-67.5 -2.5q0 85 2 169t2 169l-3 6q-1 1 -2 1t-2 1q-66 -75 -126 -154t-124 -157q-18 -22 -37.5 -42t-33.5 -44q1 -2 1.5 -2.5t1.5 -2.5q63 -2 126.5 -2.5t126.5 -1.5q-2 -31 -4.5 -66.5t-5 -71.5t-5.5 -71.5
t-7 -66.5q-2 -14 -3.5 -28t-2.5 -28q18 16 40 25t45 16q3 33 4 70t2 75.5t1.5 75.5t1.5 70q27 2 54 2t54 3q9 17 19.5 32.5t18.5 32.5zM298 523q-3 -62 -3.5 -123.5t-5.5 -123.5q-40 0 -79 -1.5t-79 3.5l-5 3q3 6 7.5 11.5t8.5 10.5q43 53 81 108t75 112z" />
    <glyph glyph-name="five" unicode="5" horiz-adv-x="488" 
d="M449 602q-2 1 -2.5 2t-2.5 2q-2 -2 -5 -3.5t-4 -5.5q-15 -9 -30.5 -11.5t-32 -1.5t-33 3t-32.5 3q-30 2 -60 5t-60 8q-10 -1 -20.5 2.5t-18.5 -5.5q-4 -23 -6 -47t-5 -47q-6 -43 -11 -86t-15 -85q-5 -17 -4 -31l3 -4q11 3 22 7t23 6q30 6 60.5 -0.5t56 -22.5t43.5 -41
t24 -56q6 -35 0 -69.5t-22.5 -62t-42.5 -44t-60 -15.5q-22 1 -41 8.5t-36.5 19.5t-32.5 26.5t-30 29.5q-8 4 -15 2.5t-12 -7.5t-7 -14t1 -15q8 -21 23.5 -36.5t35.5 -25.5t42 -15.5t43 -7.5q48 -4 91.5 16t78.5 54q22 22 41 50t29.5 59t10 63.5t-15.5 63.5q-23 36 -55 57
t-67.5 29t-72.5 4t-69 -18q5 46 12 91t13 90q63 1 124.5 -4t124.5 -9q5 23 11 44.5t8 44.5z" />
    <glyph glyph-name="six" unicode="6" horiz-adv-x="575" 
d="M455 321q-23 20 -52 28.5t-59 10.5q-29 1 -55 -7.5t-49.5 -23.5t-43 -35t-35.5 -42q3 50 17.5 98.5t39.5 92t59 81t76 64.5q15 10 31 18t30 19l1 2q-1 10 -8 20q-6 10 -18 15q-13 -8 -19.5 -13.5t-11.5 -10.5q-52 -49 -110 -105.5t-102 -120t-64 -135.5t3 -153
q13 -45 41 -83t70 -60q37 -19 79.5 -16t78.5 23q47 27 83 70q22 26 39.5 61t23 71t-4 70.5t-40.5 60.5zM417 109q-5 -20 -16 -37t-26.5 -29.5t-34 -20.5t-38.5 -8q-27 4 -47.5 15.5t-35 28t-24 36t-15.5 39.5q-7 22 -11 44t-8 45q20 20 40.5 39t46.5 31q42 19 78.5 6.5
t60.5 -42.5t33 -70t-3 -77z" />
    <glyph glyph-name="seven" unicode="7" horiz-adv-x="459" 
d="M429 575q-5 20 -11 19q-8 -7 -18 -13t-21 -3q-61 9 -121.5 23t-123.5 14q-9 2 -19.5 1.5t-20.5 -1.5q-10 -2 -18 -8.5t-8 -17.5q-8 -30 -12.5 -60.5t-14.5 -59.5q-2 -8 -5.5 -16.5t-5.5 -16.5q9 -9 25 -6q5 10 6 22t3 23t7.5 20.5t18.5 13.5q66 22 135 26t138 3
q-33 -69 -69.5 -147.5t-76 -158t-81 -155t-84.5 -139.5v-5v-2q0 -1 1 -1q2 0 2 -1q25 3 48.5 -2t47.5 -5q14 43 33 94t40 103.5t42.5 103t40.5 91.5q29 63 57.5 127t60.5 126q0 2 1.5 4t1.5 4h1z" />
    <glyph glyph-name="eight" unicode="8" horiz-adv-x="503" 
d="M465 183q2 25 -9.5 47.5t-29.5 39.5q-25 23 -55 37.5t-60 28.5q41 23 75 59q22 23 35.5 52.5t9.5 61.5q-3 29 -18.5 53t-38.5 40t-51 21.5t-55 -1.5q-38 -10 -71.5 -28.5t-58.5 -44t-40 -56.5t-15 -67q0 -25 11 -45t28.5 -35.5t39 -27t41.5 -20.5q-3 -1 -6.5 -1.5
t-6.5 -2.5q-30 -8 -59.5 -24t-51.5 -39.5t-33.5 -53.5t-5.5 -65q5 -32 22 -59.5t42 -47t55 -30t62 -10.5q44 0 86.5 17.5t76.5 47t56 69t25 84.5zM294 344q-9 4 -18 7.5t-18 8.5q-33 16 -56 45.5t-28 65.5q-3 21 0.5 40t12.5 34t22.5 23.5t31.5 7.5q42 -2 68 -30t33.5 -65.5
t-4 -76t-44.5 -60.5zM330 220q28 -23 37 -58.5t1 -69t-33.5 -57t-66.5 -21.5q-24 -1 -47 7t-42 22.5t-32 34.5t-18 44q-6 29 -1 55.5t18.5 48.5t34 38t44.5 24q27 -15 54.5 -30.5t50.5 -37.5z" />
    <glyph glyph-name="nine" unicode="9" horiz-adv-x="525" 
d="M442 518q-19 43 -56.5 74.5t-87.5 33.5q-36 1 -68.5 -12t-60 -34.5t-50 -49.5t-37.5 -58q-21 -41 -20 -82t19.5 -73t50.5 -51t73 -16q27 0 52 8.5t47.5 22.5t41.5 33t35 40q-7 -57 -31.5 -119t-62.5 -118t-86.5 -101.5t-102.5 -68.5l-7 -3l-2 -2q5 -11 11.5 -21t13.5 -21
q2 2 5 2.5t5 2.5q37 22 75 55t73 71t65.5 78t51.5 76q23 40 41 82t26.5 84.5t6 84.5t-20.5 82zM371 444q3 -23 -3 -46t-19 -41.5t-32 -31t-43 -14.5q-29 -3 -54 6t-43 25.5t-27.5 39.5t-8.5 47q-2 24 4 49t19.5 46t33.5 36t46 18q30 -3 52.5 -15.5t38.5 -31t24.5 -41.5
t11.5 -46z" />
    <glyph glyph-name="colon" unicode=":" 
d="M208 389q-19 20 -38.5 39t-39.5 38q-2 0 -2.5 -0.5t-2.5 -0.5q-20 -20 -38 -40.5t-36 -40.5v-3q21 -11 39.5 -25t35.5 -29l7 -4l5 4l2 3q16 15 31.5 30t35.5 25v4h1zM186 53v2q-17 16 -37 28.5t-36 29.5l-3 1q-19 -17 -38 -33.5t-40 -30.5l-2 -2q0 -1 1 -1.5t1 -1.5l6 -6
q17 -17 35.5 -33.5t34.5 -34.5l3 -1q2 0 2 1v0q16 23 36 40.5t37 37.5v4z" />
    <glyph glyph-name="semicolon" unicode=";" horiz-adv-x="322" 
d="M287 387q-17 20 -35 38.5t-36 37.5q-2 2 -3.5 2.5t-3.5 2.5h-4q-16 -21 -36 -38t-36 -37l1 -4q22 -13 40.5 -29.5t36.5 -33.5h2l9 6q13 15 28 27t32 22zM251 82q0 1 -0.5 2t-0.5 2l-3 2q-11 -1 -20.5 -3t-20.5 -2q-12 0 -22 3q-18 1 -24.5 -5.5t-10.5 -14.5
q-26 -53 -51.5 -104t-48.5 -105q-3 -5 -7 -11t-6 -12t-1.5 -11.5t5.5 -11.5q2 -1 4.5 -2t4.5 -2q22 10 35 32.5t27 41.5q34 45 65.5 91t63.5 92q7 8 11 18z" />
    <glyph glyph-name="less" unicode="&#x3c;" horiz-adv-x="597" 
d="M567 39q-54 18 -108 43t-107 52t-106 53.5t-107 46.5q51 21 102 47t102 53t102 52t103 44q-2 10 -4 15.5t-4.5 10t-5 9.5t-5.5 15q-127 -53 -250 -109.5t-249 -110.5q2 -14 1.5 -26.5t0.5 -26.5q132 -54 260.5 -110.5t262.5 -105.5q2 10 4 15t3.5 9t2.5 9t2 15z" />
    <glyph glyph-name="equal" unicode="=" horiz-adv-x="463" 
d="M409 246q2 14 2.5 28t-3.5 28q-66 2 -130.5 0.5t-130.5 -0.5q-22 1 -43.5 2t-43.5 -1q-18 -27 -30 -57q48 2 95.5 4t95.5 1h94q47 0 94 -5zM433 186q-33 -4 -65 -4t-64 -1q-39 -2 -78 -3.5t-78 1.5q-23 2 -47 4.5t-47 1.5q-6 -29 0 -57q44 0 86 -2t87 0q43 1 86 2.5
t87 -0.5q9 14 17.5 28.5t15.5 29.5z" />
    <glyph glyph-name="greater" unicode="&#x3e;" horiz-adv-x="597" 
d="M567 218q-2 14 -1.5 26.5t-0.5 26.5q-133 53 -262 109.5t-263 106.5q-2 -10 -3.5 -15t-3 -9t-2 -9l-1.5 -15q54 -18 107.5 -43t106.5 -52t106.5 -53t106.5 -47q-51 -21 -101.5 -47.5t-101.5 -53.5t-102.5 -52t-103.5 -43q2 -10 4 -15.5t4 -10t4 -9.5t5 -15
q128 51 251.5 108t250.5 112z" />
    <glyph glyph-name="question" unicode="?" horiz-adv-x="392" 
d="M354 536q-3 23 -15 40.5t-26 33.5q-13 15 -30 23.5t-35.5 10.5t-37.5 -1.5t-35 -12.5q-46 -26 -83 -54t-55 -69q9 -6 16.5 -13.5t18.5 -10.5l4 1q6 11 11.5 22.5t10.5 22.5q9 20 26.5 35.5t38.5 21.5t42 1t36 -26q17 -23 23 -47.5t3 -47.5t-13.5 -43.5t-25.5 -36.5
q-22 -23 -50 -42t-61 -19q-5 1 -10 1.5t-10 -0.5l-2 -3q0 -1 -0.5 -1.5t-0.5 -1.5q4 -38 4 -75t-6 -75q14 -1 26.5 -1.5t26.5 1.5q-4 61 -6 125q17 7 33.5 14.5t33.5 17.5q27 16 55.5 37t50.5 47t34 57.5t8 67.5zM194 43q-19 18 -39 34t-40 33l-3 2q-20 -14 -37 -31t-35 -33
q1 -2 2 -2.5t2 -2.5q21 -18 41 -36t39 -38q17 18 33 35.5t35 32.5z" />
    <glyph glyph-name="at" unicode="@" horiz-adv-x="737" 
d="M658 233q19 52 12.5 98.5t-31 84.5t-64 66t-84.5 43q-43 14 -89 14t-90 -11t-82.5 -32.5t-66.5 -49.5q-21 -22 -40.5 -47.5t-33 -54t-19.5 -59.5t-2 -63q7 -54 37.5 -98t74 -75.5t95.5 -49.5t103 -19q35 -1 67.5 7.5t63 23.5t59 34t54.5 39q-6 3 -12 7t-12 7
q-24 -17 -48.5 -31t-51.5 -27q-44 -21 -94.5 -22.5t-99 13t-90 43t-67 68t-30.5 87t19 100.5q17 37 45.5 69t63 56t74 38t79.5 15t79 -12t73 -44q31 -28 56.5 -62t27.5 -77q1 -33 -12 -60.5t-35.5 -49t-50.5 -37t-57 -22.5l-2 -1q-13 32 -15.5 66t0.5 68.5t9 69.5t9 68
q2 10 5 20t-2 19q-8 -1 -13.5 -4.5t-13.5 -3.5q-28 -3 -56.5 -3.5t-54.5 -14.5q-36 -19 -61 -49t-40 -67t-20.5 -77t-2.5 -78q2 -18 8 -38.5t27 -24.5q16 1 30.5 8t25.5 18q17 17 31 35.5t27 38.5q15 22 27 45t25 46q0 -8 -1.5 -15t-2.5 -15q0 -20 -4 -41.5t-6.5 -42.5
t0 -41t14.5 -37l9 4q8 2 17 5t17 4q31 5 59.5 17.5t53.5 28.5t47 34.5t33 47.5zM434 392q-3 -18 -7 -36t-11 -35q-16 -43 -37 -82.5t-50 -74.5q-7 -5 -13.5 -10t-15.5 -4q-14 12 -17.5 22t-4.5 19q-1 45 5.5 90.5t26.5 87.5q9 18 26 28.5t37 9.5q16 0 31.5 -3.5t29.5 -11.5z
" />
    <glyph glyph-name="A" unicode="A" horiz-adv-x="599" 
d="M582 15l-8 5l-12 -4q-11 0 -15 0.5t-6 1.5l-9 6l-3 9l-2 5q-26 65 -48 130.5t-43 131.5q-25 79 -51.5 157t-42.5 160q-8 12 -23 7q-13 -26 -22.5 -53.5t-20.5 -53.5q-53 -120 -113 -235.5t-109 -236.5q-5 -11 -8 -23.5t-1 -24.5q24 -5 49 -5.5t49 -4.5q7 0 15 -2
t15.5 -3.5t14.5 -0.5t13 6v8q-5 8 -13 10.5t-16 1.5q-34 1 -34 23q-2 54 16 105t37 101q45 8 91 12.5t91 12.5q12 -49 26 -97.5t25 -97.5q7 -34 12 -71q5 -14 13 -17.5t17.5 -2t19 5t17.5 3.5q18 3 36.5 6.5t36.5 9.5l5 5q0 2 0.5 5t0.5 5zM366 287q-38 0 -77 2t-77 6
q20 55 45 107t46 106q16 -55 29.5 -111t33.5 -110z" />
    <glyph glyph-name="B" unicode="B" horiz-adv-x="529" 
d="M497 210q1 24 -7.5 45.5t-24 38t-36 28t-43.5 14.5q-17 3 -34 6.5t-34 5.5q22 15 45.5 32t42 38t28.5 46t6 55q-5 29 -23.5 53t-45.5 34q-41 14 -84 17.5t-85.5 -2t-83.5 -19.5t-78 -35q-2 -2 -4 -4.5t-4 -4.5l1 -9l10 -4q21 6 41 16t42 8q1 -4 3 -7t0 -7
q3 -113 -0.5 -225t-5.5 -224q0 -20 1 -40t-1 -40q-1 -10 -6.5 -13t-13.5 -3q-7 0 -15.5 1.5t-14.5 1.5q-2 -11 4 -19q14 -5 29.5 -6.5t30.5 -2.5q32 -5 66 -6t66.5 4t63.5 17t57 35q20 16 39.5 35t34.5 41t24.5 46.5t8.5 52.5zM310 556q29 -21 38.5 -51t3.5 -60.5t-25.5 -57
t-48.5 -39.5q-20 2 -41 1.5t-41 -1.5q1 58 4 114.5t9 114.5q26 2 52.5 -2t48.5 -19zM302 26q-6 -1 -12 -1h-12q-12 -1 -27 -0.5t-27.5 5t-21.5 13.5t-9 26q1 34 0 67t0 67q1 30 2.5 59.5t-0.5 59.5q26 1 51.5 -0.5t50.5 -9.5q34 -8 57 -30.5t35.5 -52t13.5 -62.5t-9.5 -62.5
t-33.5 -51t-58 -27.5z" />
    <glyph glyph-name="C" unicode="C" horiz-adv-x="576" 
d="M543 106q2 6 -2 11t-10 4q-16 -16 -33 -32.5t-36.5 -30t-41.5 -21.5t-47 -6q-48 -3 -85.5 17t-63.5 54t-39.5 77t-12.5 85q-8 50 2.5 104.5t38 98.5t71.5 70t103 20q17 -2 33.5 -3t30.5 -9q18 -9 26.5 -27t8.5 -38q0 -11 -1.5 -21.5t-1 -19.5t4 -15t13.5 -7q9 -1 12.5 4
t3.5 12t-1.5 15t-2.5 13q-6 35 0.5 69t13.5 68q-5 4 -9.5 7t-10.5 4q-45 12 -92.5 8t-90.5 -24q-53 -25 -96 -64t-78 -86q-30 -40 -44 -90t-13.5 -101.5t15 -101.5t43 -90t70.5 -65.5t97 -29.5q28 -2 53.5 6t49 22t44.5 32.5t39 37.5l21 21t18 22z" />
    <glyph glyph-name="D" unicode="D" horiz-adv-x="666" 
d="M581 207q21 47 23.5 96.5t-11 96t-41 88t-65.5 72t-84.5 48t-97.5 16.5q-36 -1 -71.5 -7.5t-70.5 -11.5q-12 -2 -23.5 -2.5t-23.5 -3.5q-13 -1 -27 -1.5t-25 -6.5q-1 -2 -2 -5t-2 -5q10 -5 16 -6.5t11 -0.5q20 -3 26 -14t7 -23q2 -60 0.5 -118t-3.5 -118q-2 -63 -1 -126
t1 -126q0 -8 -2 -15t-7 -13q-14 -4 -24 -3.5t-18 2.5q-5 -5 -2.5 -11.5t7.5 -9.5q53 -10 105 -15t106 -7q58 -2 111.5 21.5t94.5 64.5q31 31 55 67t38 77zM494 136q-14 -36 -41 -61t-60.5 -38t-71.5 -14t-72 10q-20 3 -37.5 15t-18.5 35q0 17 -1.5 34.5t-2.5 34.5
q-2 45 -1.5 89.5t0.5 89.5q-1 61 2 121.5t13 120.5q58 13 110 -0.5t93 -46t70 -79.5t42 -100t8 -108t-32 -103z" />
    <glyph glyph-name="E" unicode="E" horiz-adv-x="485" 
d="M454 153l-5 9h-10l-6 -2q-5 -9 -8 -18t-5 -18.5t-5.5 -19t-9.5 -19.5q-19 -30 -46.5 -45.5t-58.5 -21.5t-64 -5t-63 5q-5 64 -3.5 137t4.5 137q23 -2 44 -0.5t42 4.5t43.5 6.5t48.5 7.5q9 1 18 0.5t17 -0.5q9 0 16 1.5t13 8.5q-1 2 -2 5t-2 5q-18 -1 -36 6t-36 5l-48 -4
t-49 -1q-18 1 -36.5 2t-36.5 4q2 43 3 85.5t6 84.5q2 15 5 30t3 31q46 1 94 -6.5t85 -38.5q8 -9 15.5 -19t9.5 -23v-20q0 -17 1 -20l8 -9l10 3q3 9 2.5 18.5t-0.5 18.5q-1 14 1 28t5 28t5.5 27.5t3.5 27.5q-8 7 -18 10t-21 5q-43 6 -86.5 7t-87.5 1q-45 -1 -87.5 -4.5
t-86.5 -11.5q-2 -5 -4 -9.5t-1 -9.5q8 -1 16 0.5t16.5 2.5t16.5 0.5t15 -4.5q6 -67 6.5 -134.5t-2 -135.5t-5.5 -136t-3 -135q-1 -8 -6.5 -14.5t-14.5 -5.5l-11 1l-12 1l-12 3q-7 -6 -7.5 -9t-0.5 -6q11 -11 25 -12.5t28 -1.5q32 -5 64.5 -4.5t64.5 -1.5q48 -3 97.5 -2.5
t94.5 20.5q14 15 18.5 35t9.5 39q5 20 12.5 38.5t8.5 38.5z" />
    <glyph glyph-name="F" unicode="F" horiz-adv-x="483" 
d="M453 594q-4 10 -12.5 12t-16.5 4q-21 2 -41.5 1t-41.5 -2q-63 -3 -126 -2t-126 -4q-8 -1 -17 -1t-17 -1.5t-15 -6t-10 -13.5q2 -7 6.5 -8.5t10.5 -0.5t12 2.5t11 1.5q36 3 46 -14q7 -13 9 -28t2 -30q-3 -62 -4 -124t-3 -124t-6 -123.5t-14 -121.5q-14 -3 -26.5 0.5
t-26.5 3.5l-4 -2q2 -5 2 -14q3 -2 5.5 -3.5t4.5 -3.5q4 -1 8 -1t8 -1q42 -2 83 0.5t84 -2.5q7 -1 14.5 -2t15.5 1l6 6t1 8v11l-7 2q-18 1 -37 -2.5t-35 7.5q-12 60 -11 114.5t3 114.5q50 11 99 19.5t98 23.5q9 3 19 4t20 5l10 4q8 7 12.5 16t-1.5 11q-8 1 -15.5 -0.5
t-15.5 -2.5q-56 -6 -111 -7t-111 -3q2 26 2 53t2 53q1 32 2.5 65t4.5 65v11l5 6q19 5 37.5 3t38.5 -2t42 -4.5t40.5 -14.5t32 -26t16.5 -38q1 -8 -1 -17t-2.5 -18t2.5 -15.5t14 -9.5q14 4 12.5 16.5t-3.5 23.5q-2 32 7 62.5t9 62.5z" />
    <glyph glyph-name="G" unicode="G" horiz-adv-x="641" 
d="M600 263l-5 9q-30 1 -59.5 -0.5t-59.5 -2.5q-29 -1 -58 1t-58 -2q-2 -10 0 -19l3 -3q10 0 22 1.5t23 1.5q12 0 22.5 -3t18.5 -12q10 -51 5.5 -104t-14.5 -104q-38 -14 -77.5 -9.5t-76.5 17.5q-36 13 -66 37t-51.5 55t-34 67.5t-14.5 74.5q-3 51 6 100.5t35 94.5
q24 41 66 65t89.5 29t93 -9.5t75.5 -49.5q4 -17 0.5 -34.5t-0.5 -34.5q11 -6 22 -5q6 9 7 18.5t0 20t-2.5 20.5t-0.5 20q2 23 7.5 46.5t7.5 46.5q-7 11 -19 12.5t-23 6.5q-38 7 -77 8.5t-77 -9.5q-60 -16 -116 -52.5t-97 -87.5t-62 -112.5t-13 -127.5q2 -8 3.5 -15t2.5 -15
q5 -50 29 -94.5t61 -77t84 -51t98 -16.5q25 0 44 4q43 8 82 26.5t81 30.5q-5 25 -4.5 50t3 50t5.5 50t4 50q1 9 6.5 16t15.5 7q18 0 30 1.5t13 12.5z" />
    <glyph glyph-name="H" unicode="H" horiz-adv-x="595" 
d="M565 12l-7 4l-10 1q-19 5 -24.5 15t-6.5 21q-7 74 -5.5 146.5t2.5 146.5q1 57 1 113t-2 113q-1 8 0 16.5t-1 16.5l-3 7q-4 0 -7.5 1.5t-6.5 -1.5q-28 -8 -56.5 -6.5t-57.5 3.5q-8 0 -16 1.5t-16 -0.5q-1 -2 -2 -4.5t-2 -4.5q1 -3 2.5 -5.5t2.5 -5.5q10 -3 21.5 -3.5
t22.5 -2t19.5 -6.5t11.5 -18q16 -57 16.5 -116.5t2.5 -118.5q-72 -6 -144.5 -3t-143.5 21q1 42 2 83t7 83q3 24 7.5 47.5t8.5 47.5l-5 4q-16 0 -30.5 -3t-30.5 -4q-21 -1 -42 -1t-41 -10q-1 -3 -1 -6q0 -2 -1 -5q11 -4 18 -5t12 0q19 -5 22.5 -17t3.5 -23q-2 -49 -3 -98
t0 -98q2 -72 2 -144t-1 -144l-2 -16t-6 -14l-8 -5h-10l-10 2q-7 -5 -7.5 -6t-0.5 -3q2 -5 4 -9.5t9 -4.5q41 -5 81.5 -8.5t81.5 -7.5q9 7 8 16l-2 6l-7 3h-9h-11l-11 1l-9 3q-17 63 -18 127.5t-2 128.5q72 5 144 12t144 16q3 -127 -15 -253q-1 -7 -3 -14.5t-3 -15t0 -14
t6 -12.5q16 -1 31.5 1.5t31.5 5.5t31.5 5.5t31.5 0.5q2 2 5 3.5t5 3.5q0 2 0.5 5t0.5 5z" />
    <glyph glyph-name="I" unicode="I" horiz-adv-x="263" 
d="M232 15l-2 2l-8 -1q-9 -4 -20.5 -5t-18.5 9q-8 21 -9 35.5t-1 28.5q-1 27 -2 53.5t-2 53.5q-2 52 -1 103t2 103q0 40 1 80t7 80q0 8 3.5 15.5t11.5 9.5q14 -3 22.5 -6.5t12.5 4.5q0 3 -0.5 5.5t-0.5 5.5q-14 12 -31.5 14t-34.5 4q-29 4 -58.5 3t-57.5 -12q-3 -4 -7 -7.5
t-3 -8.5q3 -11 12 -9t18.5 5t17.5 3q9 0 11 -13q5 -137 8 -272t-14 -271q-1 -8 -7 -14t-14 -5q-13 5 -20 7.5t-13 2.5q-1 -1 -1.5 -2t-1.5 -2q-2 -12 8 -20q1 -1 2 -1t2 -1q23 -8 46.5 -10t46.5 -2q21 0 41.5 1.5t40.5 9.5q8 4 10.5 10t3.5 14z" />
    <glyph glyph-name="J" unicode="J" horiz-adv-x="379" 
d="M349 570q1 8 -1 15t-8 12q-19 9 -39 10t-40 5q-31 5 -61.5 6t-61.5 -1l-9 -6l-1 -9v-8q8 -4 16.5 -3t16.5 2q21 -1 29.5 -10t11.5 -20q9 -51 9.5 -102.5t1.5 -102.5q2 -61 2.5 -122t-2.5 -122q-2 -38 -3.5 -79.5t-10 -81t-25.5 -75t-49 -62.5q-7 -6 -16 -10t-18 -2
q-14 2 -25 9.5t-23 13.5q-8 -4 -10 -6.5t-3 -4.5q4 -16 10 -22t14 -10q11 -5 23.5 -5.5t24.5 1.5q31 3 58 17.5t48 36t36 49t21 57.5q9 43 12 87q4 67 5 134t1.5 134.5t2.5 134.5t7 134l2 10l7 7l11 -1q14 -6 21.5 -7t14.5 -3z" />
    <glyph glyph-name="K" unicode="K" horiz-adv-x="561" 
d="M529 10q-2 10 -9.5 8t-13.5 -3q-11 -2 -19 1.5t-14.5 10.5t-12 15t-10.5 15q-47 70 -91.5 141t-88.5 143q36 29 70 59t66 63q30 30 59 60.5t58 60.5q0 2 -0.5 3.5t-0.5 3.5l-4 4q-38 5 -76 9t-76 6q-16 4 -29 1l-2 -4l-1 -7q10 -12 26 -12q17 0 31 -2l10 -3l5 -8
q-29 -60 -73.5 -110t-88.5 -100q-20 -19 -41 -36.5t-44 -33.5q-1 66 9 131t13 131q1 9 4 17.5t12 12.5l10 2h11q11 5 15.5 9.5t3.5 10.5q-35 5 -70.5 -0.5t-70.5 -7.5q-13 -1 -26 -1.5t-24 -8.5q-1 -3 -1 -6q0 -2 -1 -5l6 -5l12 1l20 2l12 -9t3 -8q2 -29 0.5 -58.5
t-3.5 -58.5q-3 -52 -3.5 -103.5t-0.5 -103.5t-1.5 -103.5t-7.5 -102.5q-1 -2 -1.5 -5t-1.5 -5q-10 -4 -14.5 -5t-8.5 -1l-9 3q-19 -1 -14 -11q3 -3 4.5 -6.5t6.5 -5.5q20 -3 39.5 -4.5t39.5 -3.5q24 -2 48 -5t49 -4l7 7q-1 13 -9.5 16t-19.5 3q-10 0 -19 2.5t-11 14.5
q-4 18 -4 36q0 19 -1 37q-2 43 -3 85.5t0 85.5q8 6 17.5 11t17.5 10q8 -11 14.5 -21.5t15.5 -21.5q41 -61 80.5 -122t74.5 -125q6 -12 19 -15q30 5 60 8l60 6q3 4 7.5 7t3.5 8z" />
    <glyph glyph-name="L" unicode="L" horiz-adv-x="407" 
d="M377 149q-3 5 -8 6.5t-9.5 -0.5t-8 -6t-3.5 -9q1 -10 1.5 -21t-1 -21.5t-7 -19.5t-16.5 -13q-35 -16 -74 -21t-77 -5q-2 8 -1.5 15t-2.5 15q-14 124 -9.5 247.5t21.5 246.5q1 8 6.5 14.5t13.5 9.5q19 3 30.5 0.5t22.5 2.5q2 7 -0.5 14.5t-11.5 8.5q-49 2 -98 -2t-98 -12
q-12 -5 -12 -15q1 -8 5 -9.5t9 -0.5t10.5 3t10.5 2q20 -4 23 -16.5t3 -23.5q-4 -65 -3.5 -131t0.5 -132t-3.5 -131t-15.5 -129q-11 -5 -21.5 -1.5t-21.5 3.5v-4q3 -11 5.5 -14t4.5 -5q38 -11 77.5 -11.5t80.5 -3.5q23 -2 47 -3t47 -1l16 2t16 4q15 14 20 25.5t8 22.5
q8 29 15 58.5t9 60.5z" />
    <glyph glyph-name="M" unicode="M" horiz-adv-x="744" 
d="M714 12v5l-2 2q-8 0 -15.5 1.5t-15.5 -0.5q-12 9 -15.5 17.5t-4.5 16.5q-13 107 -16 214t-14 215q-3 33 -7 65.5t-13 64.5q-5 2 -12 4t-12 -2q-13 -37 -19.5 -75.5t-20.5 -74.5q-32 -88 -74 -169.5t-85 -164.5q-30 63 -56.5 126.5t-52.5 128.5q-11 26 -19.5 52t-17.5 53
q-9 29 -18 57t-17 57q0 15 -16 15q-13 -2 -15 -10q-8 -29 -13.5 -59t-12.5 -59q-10 -46 -18.5 -91.5t-18.5 -91.5q-14 -66 -22 -132.5t-19 -133.5q-2 -8 -4.5 -17t-12.5 -10q-12 3 -21 2q-1 -1 -2 -1.5t-2 -1.5q1 -3 2.5 -6t1.5 -7q2 -2 5 -3t5 -3q23 -3 47 -4t47 -3
q18 -2 36 -4.5t36 -3.5l8 16l-6 7q-13 2 -26.5 2.5t-22.5 11.5q-14 30 -13.5 62.5t-1.5 64.5q-6 167 30 328l2 -10l2 -8q25 -100 61.5 -194.5t73.5 -191.5q4 -10 6.5 -21.5t6 -22.5t9 -20.5t14.5 -16.5q2 2 5 3t5 3l6 9l1 2q57 114 111.5 227t102.5 231q0 -72 -2.5 -144
t-6.5 -144q-2 -42 -5 -83.5t-10 -83.5l-2 -10t-1 -10q-2 -7 2.5 -11.5t10.5 -5.5q35 5 70.5 12.5t69.5 18.5q1 2 2 5t2 5z" />
    <glyph glyph-name="N" unicode="N" horiz-adv-x="620" 
d="M590 574q-2 8 -2 13q-1 2 -2 2.5t-2 2.5q-45 8 -90.5 12t-91.5 6l-8 -2q-3 -15 11 -24q12 1 24.5 0.5t23.5 -5.5q20 -58 28 -118t9.5 -121.5t-2 -123.5t-6.5 -122q-77 129 -159.5 253t-166.5 249l-12 18l-9 3l-11 -3l-3 -1q-11 -56 -14 -111.5t-8 -112.5q-7 -92 -7 -185
q0 -92 -11 -183q-11 -9 -24.5 -5t-25.5 1v-8q0 -3 2 -7q2 -2 5 -3.5t5 -3.5q27 -2 53.5 -4.5t53.5 -4.5q19 -2 38 -4.5t38 -2.5l9 2l1 2q0 4 0.5 8t-1.5 8q-9 4 -20.5 4.5t-22 2t-19 6.5t-12.5 18q-10 55 -14.5 110t-8.5 111q-3 55 -4.5 110t3.5 110q40 -60 82 -118.5
t83.5 -117.5t81.5 -119t76 -123q3 -5 8.5 -10.5t11.5 -8t11.5 -1t8.5 10.5q12 35 17 72l10 74q10 74 13 147.5t1 148.5q-1 34 -2.5 68t0.5 68q2 10 8.5 12t14 1t15 -2.5t13.5 1.5z" />
    <glyph glyph-name="O" unicode="O" horiz-adv-x="594" 
d="M549 389q-2 18 -6 35.5t-9 34.5q-9 32 -26.5 61.5t-42 52t-55 36t-65.5 14.5q-45 1 -82.5 -17.5t-69.5 -44.5q-38 -30 -68 -69t-49.5 -83.5t-27.5 -92.5t-3 -97q2 -23 6.5 -44.5t11.5 -44.5q9 -33 27 -63t43.5 -53t57 -36.5t66.5 -11.5q75 3 132 44t94.5 103t54.5 135.5
t11 140.5zM474 313q3 -42 -2.5 -91t-24.5 -91t-53.5 -71t-87.5 -30q-40 -1 -75.5 19t-59.5 50q-32 40 -40 89.5t-10 98.5q-2 42 6 89.5t29 88t56 67.5t86 26q46 -1 78 -25t52.5 -60t31.5 -79t14 -81z" />
    <glyph glyph-name="P" unicode="P" horiz-adv-x="512" 
d="M473 473q-12 47 -40 79t-65.5 49.5t-82.5 22t-89.5 -2t-86 -23t-72.5 -41.5q2 -3 2.5 -6.5t2.5 -5.5h5q16 8 32.5 14.5t33.5 9.5q16 2 22.5 -10.5t4.5 -25.5q-1 -62 -1.5 -123t-5.5 -123q-3 -41 -4.5 -81.5t-3.5 -81.5q-1 -17 -2 -33.5t-2 -33.5v-17q0 -8 -3 -15.5
t-9 -11.5t-17 -2q-5 1 -10.5 3t-11 2.5t-9.5 -1.5t-5 -9q6 -9 9.5 -11.5t5.5 -3.5q32 -5 64.5 -7.5t64.5 -2.5q22 0 44.5 -4t42.5 6q-1 10 -2.5 13t-3.5 5q-14 -1 -22 -1h-13q-25 5 -33.5 20t-9.5 30q-2 40 -3.5 79t-0.5 79q0 11 1 22t0 22q14 -2 28.5 -3.5t28.5 0.5
q42 4 83 22t72.5 48t49 69t11.5 85zM375 369q-11 -45 -49.5 -70.5t-83.5 -22.5q-11 -1 -20.5 0.5t-19.5 3.5q4 45 5.5 88.5t3.5 88.5q1 30 5 60.5t6 60.5q13 -1 25.5 0t25.5 -1q35 -5 60 -27t38.5 -52t14.5 -64t-11 -65z" />
    <glyph glyph-name="Q" unicode="Q" horiz-adv-x="644" 
d="M559 460q-9 31 -26.5 61t-41.5 53.5t-54 38t-65 15.5q-43 2 -82 -17t-71 -46q-45 -39 -79 -89.5t-52.5 -108t-20 -118t17.5 -118.5q6 -30 22 -57.5t38.5 -48.5t50.5 -35t60 -18q3 -19 8 -48t15.5 -56.5t28.5 -49.5t48 -26q33 -5 57 15t41 49.5t28 60.5t18 48
q-8 -3 -11.5 0t-11.5 0q-2 -5 -12 -17.5t-21 -26.5t-21.5 -26t-14.5 -16q-19 -14 -36.5 -11t-26.5 11q-18 27 -26 48.5t-8 44.5q53 9 96 35.5t75.5 65t54 86t31.5 98.5t8 103t-17 100zM500 315q4 -43 -1 -92.5t-24 -91.5t-54 -69.5t-89 -27.5q-41 0 -77 17.5t-61 49.5
q-15 20 -24 43t-13.5 47.5t-6 49.5t-2.5 49q-1 42 7 90t28.5 89t55 68t85.5 26q46 -1 78 -25.5t52 -61t31 -80t15 -81.5z" />
    <glyph glyph-name="R" unicode="R" horiz-adv-x="614" 
d="M583 7q-2 9 -3.5 11t-3.5 4q-12 -5 -18 -6.5t-11 -2.5q-11 1 -18 7.5t-15 13.5q-24 21 -43 46.5t-39 50.5q-31 38 -60.5 76.5t-57.5 79.5q27 14 52 34.5t43.5 45.5t28.5 54t7 62q-3 32 -19 60.5t-42 46.5q-32 22 -66.5 28.5t-70.5 4.5t-72.5 -9t-70.5 -12q-18 -2 -36 -5
t-35 -8q-2 -5 -3 -10t1 -10h4q13 5 26.5 6.5t27.5 0.5q12 -5 14.5 -18.5t2.5 -24.5q0 -27 -0.5 -73.5t-2 -100.5t-3.5 -109.5t-3.5 -100.5t-2.5 -73.5l-1 -28.5l-0.5 -6t0.5 -11q0 -8 -5 -12t-11.5 -5t-14 0t-12.5 3l-5 -2l-2 -10l6 -8q17 -5 33.5 -5.5t33.5 -2.5
q30 -4 60 -7t60 -1l3 10l-1 8q-8 6 -16.5 4.5t-16.5 -0.5q-17 3 -22 10.5t-7 15.5q-8 58 -6.5 116.5t2.5 117.5q15 -1 30 -1t29 -8q17 -16 26 -28.5t17 -23.5q29 -38 57 -76t54 -78q8 -12 15 -24t14 -25q15 -21 33 -23.5t33 0.5q26 5 51.5 11t48.5 17q1 1 1.5 2t1.5 2z
M313 537q19 -19 30 -45.5t12.5 -54t-5 -54.5t-22 -48.5t-39.5 -34t-56 -11.5q-16 1 -31 0t-31 0q-3 30 -1 60l4 60q2 38 4.5 76.5t5.5 76.5q2 10 11 12.5t17 2.5q29 3 56 -7.5t45 -32.5z" />
    <glyph glyph-name="S" unicode="S" horiz-adv-x="490" 
d="M457 187v16q0 30 -14.5 51t-36.5 35.5t-48 24t-49 17.5q-32 10 -64.5 20.5t-59.5 25.5t-45 37t-19 55q-1 34 14 57t39 35t53.5 13.5t56.5 -7.5t47.5 -28t28.5 -47q1 -10 -2 -19.5t-2 -19.5l8 -9q20 4 19 12q-2 37 3.5 73t15.5 71q-32 14 -68 20t-71.5 2.5t-69 -16.5
t-61.5 -36q-35 -29 -61.5 -68t-27.5 -87q0 -31 17.5 -56.5t43.5 -39.5q34 -19 70.5 -29t73.5 -21q24 -8 48 -18t42 -24.5t29 -33t10 -42.5q3 -27 -5 -53.5t-25.5 -47t-42 -31t-52.5 -4.5q-29 6 -60 15t-57 24t-43 37.5t-18 54.5q-1 20 5.5 34.5t8.5 31.5l-2 4
q-6 1 -14.5 2.5l-8.5 1.5l-5 -1l-3 -11t-7.5 -26.5t-9 -32.5t-7.5 -29q-6 -14 -12 -28.5t-6 -30.5q4 -15 17 -23t24 -18q32 -24 73 -36.5t84 -12t83 14t70 41.5q17 16 33.5 34t30 38t21.5 42t8 46z" />
    <glyph glyph-name="T" unicode="T" horiz-adv-x="466" 
d="M461 571h-1l2 2q9 5 10 13q-1 1 -1 2t-1 2q-2 1 -3 1t-3 1h-10q-4 0 -9 -2q-19 -3 -38 -3t-39 2q-78 6 -156 10t-156 -1q-5 -1 -9.5 -1.5t-9.5 -2.5q-4 -4 -7 -8t-3 -9q-3 -14 -5.5 -28t-5.5 -28q-5 -23 -11.5 -44t-10.5 -44l8 -8h9q10 7 13.5 17.5t4.5 22.5t2.5 24.5
t9.5 21.5q34 16 73 16q40 0 78 1q-3 -92 -5.5 -183t-1.5 -183q0 -32 -1 -63.5t-3 -63.5q-1 -11 -6.5 -21.5t-18.5 -11.5l-21 3t-12 2l-12 1q-5 -9 -5.5 -13t0.5 -8l2 -2l7 -3q56 2 111 1l110 -2q3 0 6.5 -1t5.5 2l4 11l1 2q0 2 -0.5 3.5t-0.5 3.5l-2 3q-9 2 -19.5 0.5
l-21 -3t-19.5 0t-16 9.5q-7 64 -9 128.5t-2 129.5t0.5 129.5t-0.5 129.5q26 2 53 0t53 -2q11 2 24 5t21 4.5t9 1.5l-1 -13.5t-2.5 -31.5t-3 -35.5t-2.5 -24.5l8 -8h9q3 0 8.5 22.5t10 50t8 50.5z" />
    <glyph glyph-name="U" unicode="U" horiz-adv-x="619" 
d="M589 13q0 2 -0.5 2.5t-0.5 2.5q-7 2 -13 0.5t-13 -2.5q-15 -1 -24 7.5t-13.5 21.5t-6 27.5t-1.5 25.5q-3 91 2 181t8 181q1 38 3.5 76.5t-5.5 76.5q-1 0 -2 0.5t-2 0.5q-29 -10 -59.5 -8.5t-59.5 5.5q-6 1 -9.5 -2.5t-3.5 -8.5q0 -4 2 -9t7 -7q10 2 13 2q4 0 6 1
q11 -1 21 -6.5t12 -17.5q5 -50 8.5 -100t2.5 -100t-7 -99.5t-20 -97.5q-11 -25 -27 -49t-37 -42.5t-46 -30.5t-54 -13q-34 -1 -59.5 15t-42.5 41.5t-25.5 57t-8.5 60.5q-6 57 -1.5 113t12.5 112q6 48 15.5 95.5t17.5 95.5q-60 -21 -123 -23q-7 1 -13 -2.5t-10 -8.5
q-1 -4 -0.5 -7.5t-1.5 -7.5q6 -3 15 -1t16.5 3.5t13.5 -0.5t6 -13q-5 -58 -9.5 -115.5t-7.5 -115.5q-2 -36 -1.5 -72.5t-1.5 -72.5t7 -74.5t28.5 -70.5t50.5 -52.5t73 -20.5q41 0 74 16t61 41t52 55t47 58q-3 -35 -7 -70l-8 -70v-10l6 -9l4 1q16 0 31.5 3.5t31.5 6.5
q17 3 34.5 4t34.5 7q2 2 2.5 3t2.5 3q1 2 1.5 3.5t1.5 3.5z" />
    <glyph glyph-name="V" unicode="V" horiz-adv-x="494" 
d="M517 600q-5 5 -11 7t-12 -1q-38 -3 -77.5 -3.5t-77.5 6.5q-2 -1 -3.5 -2t-3.5 -2v-11l5 -10q10 -2 22 -1.5t23.5 -1.5t19.5 -8t10 -20q2 -29 -5 -56.5t-15 -54.5q-26 -94 -55.5 -185.5t-63.5 -182.5q-38 136 -78.5 271.5t-64.5 275.5q-37 -9 -73.5 -16.5t-74.5 -12.5
q-7 -3 -9 -10.5t5 -12.5q13 2 28 6.5t26 -6.5q40 -127 83.5 -250t83.5 -250q6 -21 11 -43t11 -44q2 -12 11 -16q12 -4 23 0.5t15 17.5q31 77 66.5 152.5t69 151.5t63 153.5t48.5 158.5z" />
    <glyph glyph-name="W" unicode="W" horiz-adv-x="697" 
d="M697 603q-18 7 -37.5 4.5t-38.5 -3.5q-29 -1 -58 0.5t-58 3.5l-7 -4q-6 -14 8 -21q23 0 46.5 1t45.5 -5l4 -2q2 -59 -4.5 -117.5t-18 -116t-26 -115t-27.5 -114.5q-27 71 -53 141.5t-49 142.5q-14 45 -29 88t-21 90q0 3 -0.5 5.5t-0.5 5.5l-2 10v5l-3 2q-6 2 -12 2
q-5 0 -11 -2q-8 -29 -13.5 -57t-14.5 -56q-28 -90 -56.5 -179t-57.5 -178q-12 59 -25 119t-23 120t-13.5 120.5t3.5 121.5l-3 4q-24 -11 -49.5 -14.5t-51.5 -8.5q-8 -2 -15 -0.5t-15 0.5q-6 -5 -9 -11t-1 -14q1 0 2 -0.5t2 -0.5q5 1 9.5 2t9.5 3q8 0 16 -5q16 -64 28.5 -129
t24.5 -131t25.5 -131.5t31.5 -129.5q6 -20 9.5 -42.5t18.5 -37.5l2 1q1 0 3 1q31 114 69.5 224t78.5 221q34 -109 73 -215t71 -216q2 -5 5.5 -10.5t8.5 -6.5q2 2 4.5 2.5t4.5 2.5q17 32 30.5 65.5t27.5 68.5q40 103 76.5 207t55.5 213q3 19 6 37.5t3 38.5z" />
    <glyph glyph-name="X" unicode="X" horiz-adv-x="584" 
d="M549 601l-4 4q-10 3 -22 1q-22 -1 -44 -2.5t-44 0.5q-13 1 -25.5 4t-25.5 1l-3 -2v-10v-2l6 -11q10 -2 14 -1.5t6 0.5q20 0 31 -4.5t12 -17.5q-8 -31 -20.5 -59.5t-28 -56t-32.5 -54.5t-33 -54q-61 137 -99 286q-23 -5 -46.5 -11.5t-47.5 -8.5q-11 -1 -21 1t-21 -1
l-10 -3l-5 -11l16 -9q15 -2 24 -5t14 -10q9 -14 16 -28.5t13 -29.5q13 -29 31.5 -68.5t35.5 -75.5t29.5 -61l12.5 -25l-8.5 -10.5t-20.5 -25.5t-25 -31t-23 -28q-31 -38 -61.5 -76t-59.5 -77q-4 -7 -9.5 -9t-11.5 -2h-13q-6 0 -12 -1q-2 -7 2 -13.5t11 -8.5q18 -2 36 -3
t36 -3q29 -4 58.5 -7.5t58.5 -2.5l5 9v10l-2 3q-2 1 -5 1q-2 0 -4 1q-13 0 -27.5 -0.5t-23.5 10.5q-2 10 -2 15q11 29 30.5 66.5t38.5 71.5t33 57l14 23l8 -20q8 -20 15.5 -40.5t15.5 -40.5q16 -44 29 -88t29 -88q2 0 2.5 -0.5t2.5 -0.5q15 1 29 7t28 10q16 5 32 6t33 3
q8 2 16.5 4t12.5 11q-6 10 -17 7.5t-21 -1.5q-16 5 -24.5 9t-13.5 12q-35 64 -63 131t-57 134q14 19 26.5 38t26.5 37q32 38 62.5 77.5t57.5 81.5q10 15 20.5 31t5.5 35z" />
    <glyph glyph-name="Y" unicode="Y" horiz-adv-x="548" 
d="M514 605q-2 2 -3.5 3t-3.5 3q-13 2 -26 0.5t-26 -2.5q-27 -1 -54 1.5t-54 2.5l-8 -6v-7q5 -11 14.5 -11.5t20.5 0.5t21 -0.5t16 -12.5q0 -39 -9 -76.5t-22.5 -74t-30 -72t-31.5 -70.5q-26 78 -52 155.5t-64 149.5q-9 17 -25.5 27t-36.5 9q-17 -1 -31.5 -6t-30.5 -10
q-12 -3 -24.5 -5.5t-23.5 -8.5l-3 -3q0 -2 -0.5 -4.5t-0.5 -4.5l5 -5q10 1 20 0.5t18 -7.5q45 -36 75 -86.5t55 -102.5q10 -22 21 -43.5t20.5 -44t16 -45.5t8.5 -48q1 -21 -0.5 -42t-3.5 -42q-2 -14 -2.5 -29.5t-3.5 -30.5t-9.5 -27.5t-19.5 -20.5q-11 2 -22.5 0t-21.5 -4
q-2 -6 1 -12.5t10 -7.5q42 2 82.5 3t82.5 -1q16 -3 34 2l3 17q-7 5 -15.5 4t-16.5 -1.5t-15.5 1t-11.5 10.5q-5 58 -6 116t10 115q7 32 25.5 58.5t33.5 54.5q23 44 46 87.5t44 88.5q8 17 16.5 32.5t8.5 33.5z" />
    <glyph glyph-name="Z" unicode="Z" horiz-adv-x="544" 
d="M514 585q-1 2 -2 2.5t-2 2.5q-1 1 -2 1t-2 1q-9 2 -17.5 -1t-16.5 -5q-18 -2 -36 -2.5t-36 1.5q-31 3 -61 6.5t-61 8.5q-29 5 -58.5 9.5t-59.5 6.5q-18 2 -39 2.5t-35 -15.5q-3 -11 -4 -21t-3 -21q-6 -35 -16 -68t-18 -68v-5q4 -6 10 -8t13 -3l9 8v10v1q1 12 4.5 28.5
t9.5 32.5t15 29.5t22 19.5q27 10 63 14t71.5 3.5t67.5 -3t50.5 -5t19.5 -2.5l-17.5 -24t-45.5 -62.5t-62 -86.5t-67 -95t-61.5 -88t-44.5 -66q-20 -31 -44 -59t-53 -51q-2 -2 -3.5 -4.5t-1.5 -5.5q6 -8 14.5 -9.5t17.5 -0.5q30 -3 65 -6t71 -6t71.5 -5.5t65.5 -3.5
q23 -1 46 -1.5t46 2.5q34 14 46.5 39t19.5 49q9 30 19 59.5t12 61.5q-2 7 -8 10t-13 2.5t-12.5 -5.5t-4.5 -12v-37q0 -19 -4 -37.5t-14 -33.5t-29 -22q-34 -8 -73 -9.5t-79 0t-79 5t-73 7.5q11 13 23.5 24.5t24.5 24.5q41 43 76 88t69 92t69 95.5t76 98.5q20 23 35.5 49
t33.5 51q2 8 2 12z" />
    <glyph glyph-name="bracketleft" unicode="[" 
d="M206 649q-30 22 -67 25t-72 -6q2 -32 0 -65t-2 -65q-1 -67 -4.5 -133t-5.5 -133q-6 -174 -18 -350l-4 -48t-2 -48q15 -10 31 -15t33 -6.5t34 -1.5q18 0 35 1l2 2q1 2 1 3t1 3q3 12 0 24l-3 2q-7 -3 -16.5 -6t-18 -3.5t-15 3.5t-7.5 16q-4 29 -3.5 59t0.5 59
q0 152 13 301.5t22 300.5q1 17 0 33t2 32q6 7 14 7.5t16 -2t16 -7.5t15 -8q8 12 3 26z" />
    <glyph glyph-name="backslash" unicode="\" horiz-adv-x="313" 
d="M283 -91q-17 58 -30 116.5t-29 117.5q-35 138 -72.5 274t-70.5 275q-14 -1 -26 -4.5t-25 -8.5q18 -75 38 -149.5t41 -149.5q34 -121 68 -241t55 -245q14 2 26 6t25 9z" />
    <glyph glyph-name="bracketright" unicode="]" horiz-adv-x="237" 
d="M207 651q-32 15 -66 19.5t-68 -0.5q0 -1 -2 -1q-1 0 -1 -1q-2 -7 -3.5 -14.5t2.5 -14.5l4 -1q8 3 16 4t16 3q15 -2 20 -9t5 -15q3 -28 2.5 -56t-0.5 -56q-5 -158 -14.5 -315t-20.5 -315q0 -9 1 -18.5t-3 -18.5q-7 -9 -15 -9q-7 0 -15 3.5t-16 8.5t-15 8l-2 -1
q-2 -5 -2 -9v-10q0 -2 1 -2.5t1 -2.5l8 -8q29 -17 63.5 -19t66.5 6q-3 32 -1 64.5t2 64.5q2 67 5.5 133.5t6.5 133.5q5 112 10.5 224t13.5 224z" />
    <glyph glyph-name="asciicircum" unicode="^" horiz-adv-x="441" 
d="M411 333q-15 52 -37 101.5t-46.5 97.5t-50 96t-47.5 97q-15 0 -30 0.5t-30 -1.5q-18 -48 -39 -96t-40.5 -96.5t-35.5 -98t-25 -100.5q18 -3 35 -5t34 -3q18 77 48 150t57 147q36 -74 74.5 -146.5t64.5 -150.5l34 4z" />
    <glyph glyph-name="underscore" unicode="_" horiz-adv-x="611" 
d="M581 -249q-7 16 -15 21t-16 9q-248 4 -495 0q-8 -5 -14 -9.5t-11 -12.5q5 -14 11.5 -20t13.5 -10q250 -4 500 0q8 4 15 8.5t11 13.5z" />
    <glyph glyph-name="grave" unicode="`" horiz-adv-x="231" 
d="M201 501q-26 46 -56.5 88.5t-59.5 86.5h-6q-10 -7 -21.5 -10.5t-22.5 -7.5l-5 -5q29 -48 71 -87t85 -73q4 2 7.5 2.5t6.5 3.5v2h1z" />
    <glyph glyph-name="a" unicode="a" horiz-adv-x="467" 
d="M434 24q1 4 2.5 7.5t-2.5 6.5q-8 -1 -16.5 -3t-16.5 -4q-11 -1 -18 4.5t-11.5 13.5t-7 18t-3.5 19q-4 33 -4 57q0 25 1 48q4 63 10.5 114.5t11.5 102.5q1 12 5.5 26.5t-5.5 24.5q-9 0 -17.5 -3.5t-17.5 -5.5q-36 0 -73 -1.5t-70 -19.5q-47 -26 -82 -66.5t-56 -89.5
t-28 -102t2 -105q2 -12 5.5 -26t9 -26t14 -21.5t22.5 -13.5q20 -2 37.5 7t31.5 23q22 23 40.5 48t35.5 51q20 30 37.5 61t34.5 63q-1 -10 -2.5 -19.5t-3.5 -19.5q-3 -25 -6.5 -49.5t-5.5 -49.5q0 -19 -2 -37t-2 -34t3.5 -29.5t14.5 -22.5q2 1 5 2t5 2q29 11 58.5 21.5
t58.5 23.5q2 1 2.5 2t2.5 2zM320 380q-5 -50 -21 -96q-21 -58 -50 -112t-70 -102q-7 -8 -16 -15.5t-21 -5.5q-19 15 -24.5 30t-7.5 30q-5 62 5 123t39 117q12 23 35.5 37t49.5 15q41 1 81 -21z" />
    <glyph glyph-name="b" unicode="b" horiz-adv-x="415" 
d="M391 136q-2 38 -21 58.5t-45 28.5q-19 5 -37.5 8.5t-38.5 5.5q22 11 43 24.5t39 30.5q25 24 38 59t2 70q-17 24 -37 28t-40 -3t-38.5 -21t-31.5 -26q-24 -23 -44 -50t-34 -57q-1 11 -0.5 13t1.5 1.5t2 1t2 12.5q2 28 5 46.5t6 31.5t6 23.5t5.5 23.5t4.5 31t3 47l-2 2
q-25 -7 -50 -13.5t-51 -11.5l-16 -2t-16 -3q-2 -1 -3 -2t-3 -2l-3 -12l3 -9l4 -1l8 2q4 2 8 3.5t8 1.5q11 4 18 -9.5t10.5 -32.5t4 -38t-1.5 -27q0 -51 -1 -82.5t-3.5 -53.5t-5.5 -39t-6.5 -39t-8 -53.5t-8.5 -81.5q-2 -8 -2.5 -15t-3.5 -14q21 -7 42 -15.5t44 -10.5
q56 -5 109.5 16.5t91.5 61.5q18 19 30 43t14 50zM269 264q-26 -17 -55.5 -18t-58.5 2q9 19 18.5 41t21 41.5t27.5 35t39 21.5q21 -5 29 -20.5t7 -34.5t-8.5 -38t-19.5 -30zM311 104q2 -39 -22 -70q-22 -27 -55.5 -30t-64.5 4q-10 2 -18.5 8.5t-8.5 17.5q-4 25 -1.5 49
t4.5 49q1 23 3 46l4 46q26 0 55.5 -6.5t53.5 -21t38.5 -37t11.5 -55.5z" />
    <glyph glyph-name="c" unicode="c" horiz-adv-x="406" 
d="M370 428q1 12 -3 17.5t-11.5 8t-16 3.5t-14.5 3q-41 4 -77.5 -9.5t-67.5 -37.5t-56 -56.5t-41 -66.5q-21 -42 -27.5 -93t4 -97t38.5 -81.5t76 -47.5q23 -1 45.5 4t42.5 19q22 17 45 31.5t43 34.5q-1 5 -2.5 9t-6.5 6q-6 -4 -11.5 -8t-12.5 -8q-14 -11 -31 -16.5t-34 -7.5
q-52 5 -79.5 38t-36.5 78t-2.5 94t21.5 87q10 25 33.5 42.5t50 23.5t52 -2t40.5 -33q0 -8 -3.5 -15.5t-6.5 -15.5l-3 -10l3 -10l11 -4l5 1l9 4l3 5q2 18 0.5 36.5t3.5 36.5q2 10 7 19.5t10 17.5z" />
    <glyph glyph-name="d" unicode="d" horiz-adv-x="475" 
d="M296 625q-9 15 -22.5 35t-29 37.5t-32.5 28.5t-32 8q-9 -2 -19 -8.5l-10 -6.5q27 -26 49 -55.5t39.5 -62t32.5 -67t29 -68.5q-5 -1 -10.5 -1.5t-10.5 -0.5q-55 -9 -97 -42t-69 -79t-38.5 -100t-5.5 -105q3 -26 11 -54t22.5 -52t36.5 -40t53 -18q33 -2 61 15t50 40
q61 61 82 137t14 155.5t-36 158t-68 145.5zM326 280q1 -32 0 -64t-4 -64q-2 -17 -7 -35.5t-14 -34.5t-22.5 -26.5t-33.5 -10.5q-29 0 -48 15.5t-30.5 39t-16.5 51t-7 51.5q-3 33 1 73t18 74t41 57t70 22q9 0 19 -2.5t18 -6.5q9 -35 11.5 -69.5t4.5 -69.5z" />
    <glyph glyph-name="e" unicode="e" horiz-adv-x="412" 
d="M404 254l-4 4q-58 -5 -116 -9.5t-116 -4.5q32 19 67 34.5t65 37.5q23 16 39 40t12 53q-2 23 -20.5 39t-41.5 15q-45 3 -85 -16.5t-72 -48.5q-28 -26 -49.5 -58.5t-36.5 -67.5q-16 -38 -21 -82.5t4.5 -86t34.5 -76t69 -50.5q22 -8 44 -6.5t42.5 9t39.5 19.5t36 25
q11 6 20.5 12.5t14.5 17.5q-2 4 -4.5 7t-7.5 4q-17 -11 -34.5 -19.5t-37.5 -10.5q-36 -3 -64.5 12.5t-47.5 42t-27.5 59.5t-4.5 65h77q44 0 86.5 -3.5t86.5 -2.5q25 23 52 46zM266 376q-2 -24 -14 -42t-29.5 -32t-38 -25t-38.5 -21q-11 -5 -21.5 -9.5t-21.5 -9.5
q3 35 14.5 68.5t28.5 64.5q7 17 25.5 29.5t38 15.5t36 -5.5t20.5 -33.5z" />
    <glyph glyph-name="f" unicode="f" horiz-adv-x="398" 
d="M368 446q-2 1 -2 4q-11 5 -21.5 6t-21.5 1q-27 1 -52.5 -7.5t-47 -24.5t-39 -37t-28.5 -45q5 14 5 29t2 29q2 17 5 33.5t-1 33.5l-6 3q-30 -5 -58 -16.5t-58 -16.5q-2 -2 -3 -3.5t-3 -3.5v-11v-2l5 -2q7 3 14 5.5t15 4.5q9 2 13 -5t4 -15q5 -66 0.5 -130.5t-12.5 -129.5
q-6 -54 -10.5 -107.5t-12.5 -107.5q-6 -41 -13 -81t-12 -82q2 -1 2 -2t2 -2q21 2 40.5 10t37.5 18q2 51 8 100.5t9 100.5q36 -2 72.5 -1.5t71.5 9.5q17 4 29.5 15t26.5 20q8 3 14.5 8.5t12.5 12.5l-2 4l-4 2q-27 -7 -54 -9t-54.5 -1t-55 3.5t-54.5 4.5q6 60 11 119t18 117
q4 23 17.5 41t32.5 30t41 16.5t44 1.5q9 -2 19 -5.5t12 -14.5q-2 -18 -8.5 -35t-8.5 -35q3 -2 4 -4.5t4 -4.5l11 -2l7 9v1q0 38 5.5 75.5t24.5 70.5q1 2 1 5h1z" />
    <glyph glyph-name="g" unicode="g" horiz-adv-x="469" 
d="M425 203q-28 0 -55.5 -0.5t-55.5 0.5q-11 1 -21 2.5t-21 1.5q-8 -2 -11 -9.5t1 -14.5l3 -2q16 -3 32 -0.5t32 2.5q9 -12 11.5 -26.5t1.5 -30.5t-4.5 -31.5t-6.5 -28.5q-9 -17 -27.5 -21t-35.5 -4q-25 0 -51 1t-49 12q-30 18 -37.5 43.5t-8.5 48.5q-4 41 2.5 81.5
t20.5 78.5q8 24 20.5 46t28.5 39t35.5 26.5t43.5 8.5q25 -1 49 -10t41 -28q-2 -13 -4.5 -24.5t-4.5 -24.5q1 -2 1 -3l1 -2q2 -2 5 -3t5 -3l11 1v2q3 12 3.5 24.5t3.5 24.5q2 11 7.5 19.5t9.5 18.5q7 22 -5 31t-24 11q-8 2 -15 3t-15 2q-41 5 -78.5 -7.5t-70 -36t-59.5 -54.5
t-48 -63q-17 -27 -27.5 -60.5t-13 -69.5t3.5 -70.5t23 -62t44.5 -45.5t68.5 -20q25 -2 49 5t44 21q7 5 12.5 8.5t11 6.5t10.5 6.5t12 8.5q-8 -32 -23 -73.5t-38 -78.5t-53.5 -64t-68.5 -31q-10 2 -19.5 3.5t-19.5 -0.5q-7 -14 3 -26t23 -15q37 -1 68 19.5t54 48.5
q24 30 49.5 67.5t48 78t39 82t22.5 79.5q3 20 7.5 40.5t8.5 40.5z" />
    <glyph glyph-name="h" unicode="h" horiz-adv-x="368" 
d="M362 315q0 22 -1.5 45t-7.5 43t-18 34t-33 19q-27 -5 -49 -21t-40 -37t-33.5 -44t-30.5 -44q-7 -12 -15 -23l-16 -22q7 141 21 282l12 129q2 12 3.5 24t0.5 24q-2 1 -3 1t-3 1q-8 -2 -15.5 -3.5t-14.5 -5.5q-25 -8 -50.5 -12t-50.5 -9q-3 -2 -6.5 -4t-5.5 -5
q-1 -5 -1 -10t5 -8q12 1 23 5.5t23 4.5q11 -15 14.5 -32.5t3 -37t-2.5 -39t-1 -37.5q-7 -137 -14.5 -272.5t-17.5 -272.5q16 -3 32 -4.5t33 -2.5q-5 82 8 165.5t54 156.5q11 18 22 35t26 31q5 5 11 8.5t13 3.5q15 0 22.5 -11.5t10.5 -23.5q26 -101 7 -207q1 -16 -4 -30.5
t-7 -30.5q-3 -19 -22 -29q-17 -1 -28 -4.5t-14 -13.5q-2 -8 -4 -18t-2 -20t3 -18t12 -12q8 2 14.5 8t11.5 12q36 42 62.5 90.5t43.5 100.5q11 35 15 70.5t4 70.5z" />
    <glyph glyph-name="i" unicode="i" horiz-adv-x="242" 
d="M191 570v2q-5 5 -10 11t-11 11q-5 5 -10 9.5t-10 9.5q-11 -11 -21.5 -23t-21.5 -23l-1 -3h1q24 -13 42 -31l1 -1l2 1q8 11 18 20t21 17zM211 13q-3 5 -8 5q-4 0 -9 -2t-10.5 -4.5t-9.5 -2.5q-23 -2 -30.5 10.5t-7.5 25.5q-3 91 5 180.5t26 177.5q3 9 5 17.5t2 18.5l-3 6
l-5 1q-23 5 -47 1.5t-47 -4.5q-10 0 -19 -0.5t-19 -2.5q-1 -5 -2.5 -9t0.5 -9l5 -3q5 0 10 0.5t10 0.5q15 -2 20.5 -7.5t6.5 -12.5q6 -23 3 -47t-4 -47q-3 -102 -12 -204q-2 -29 -6 -56.5t-4 -56.5q5 -13 15.5 -17.5t23.5 -3.5t26 5t23 7l26 8t25 12q8 8 9.5 10t1.5 3z" />
    <glyph glyph-name="j" unicode="j" horiz-adv-x="283" 
d="M253 448q0 1 -1 1.5t-1 1.5l-2 2q-30 5 -60.5 6t-60.5 3q-12 -8 -5 -25l2 -1q8 -2 16.5 -0.5t16.5 1.5q8 -13 11 -28t3 -30t-1 -30.5t-1 -30.5q-4 -125 -9.5 -249.5t-26.5 -248.5q-2 -14 -8.5 -27.5t-18.5 -21.5q-11 -3 -19 -0.5t-14.5 6.5t-13 6t-15.5 -2
q-10 -5 -17 -11.5t-9 -17.5q-1 -18 12 -30q4 -4 7.5 -5.5t9.5 -3.5q18 -7 36 -2t34 16t28.5 26t19.5 29q26 51 38.5 105t18.5 110t7.5 112.5t5.5 112.5q3 57 5 113.5t12 112.5zM271 570v2q-5 5 -10 11t-11 11q-5 5 -10 9.5t-10 9.5q-11 -11 -21.5 -23t-21.5 -23l-1 -3h1
q24 -13 42 -31l1 -1l2 1q8 11 18 20t21 17z" />
    <glyph glyph-name="k" unicode="k" horiz-adv-x="382" 
d="M385 -29q1 10 0 13t-2 5l-10 -2l-3 -1q-27 17 -50 45t-43.5 59.5t-39.5 63.5t-38 57q30 9 59 26t51.5 40t35.5 53t10 65q-1 12 -7 23.5t-15 20.5t-21 13.5t-25 3.5q-28 -3 -55 -23.5t-49 -47t-39 -53.5t-25.5 -44t-9.5 -18l1 19.5t3 47.5t4 58.5t4 53.5q3 40 7.5 79
t9.5 78q5 29 9.5 59t2.5 59q-2 0 -5 -0.5t-5 -0.5q-23 -9 -47.5 -14.5t-48.5 -10.5q-9 -1 -18.5 -2.5t-17.5 -6.5q-2 -5 -3.5 -10t3.5 -10q14 2 21.5 4t13.5 3q12 2 17 -8t5 -20v-30q0 -11 -2 -21q-8 -154 -13 -305.5t-16 -305.5q17 -2 33.5 -3.5t33.5 -1.5q-2 55 -2 110
q0 56 5 111q14 4 25 -4t16 -20q15 -24 31 -53.5t31.5 -60t30.5 -60t29 -54.5l9 -4q20 2 39.5 7t39.5 8q8 1 16 2.5t14 7.5zM276 345q4 -28 -11 -48.5t-38.5 -34t-49.5 -22t-42.5 -12t-17.5 -3.5q0 2 3 12t8.5 25t11.5 24q10 15 19 32.5t20.5 32.5t25.5 26.5t34 14.5
q19 0 28.5 -15t8.5 -32z" />
    <glyph glyph-name="l" unicode="l" horiz-adv-x="342" 
d="M318 53q-1 1 -1 2t-1 2l-4 1q-20 -13 -44 -20.5t-50 -9.5t-51.5 1.5t-47.5 11.5q5 173 20.5 343.5t26.5 343.5q-1 1 -2 1l-1 1q-20 -4 -37.5 -11t-37.5 -11q-16 -3 -33 -7t-29 -16q0 -2 -0.5 -4t-0.5 -4q2 -9 10.5 -6.5t14.5 4.5q11 1 17.5 -2.5t10 -9t4.5 -12t1 -12.5
q3 -94 -4.5 -185.5t-12.5 -185.5q-3 -59 -6 -117.5t-11 -117.5q-1 -5 -1.5 -9.5t-2.5 -9.5q-5 -8 -9 -9.5t-6 -4.5q0 -1 0.5 -2t0.5 -2l1 -1q1 0 2 -1q25 -6 53 -12t57 -8t56.5 1.5t51.5 17.5q5 5 10 9t10 10q13 9 24 19.5t22 21.5z" />
    <glyph glyph-name="m" unicode="m" horiz-adv-x="663" 
d="M510 34q32 22 55.5 62t37 86.5t17 93t-3.5 82.5q-11 35 -24.5 60.5t-38.5 36.5q-19 2 -33.5 -2.5t-26.5 -13t-22 -19t-20 -19.5q-23 -27 -41.5 -56.5t-35.5 -59.5q2 23 2.5 47t-1.5 47q-2 30 -21 56.5t-51 31.5q-54 0 -93 -24.5t-70 -54.5q-58 -57 -83.5 -129.5
t-11.5 -144.5q4 -20 10.5 -42.5t17 -42.5t27 -34t40.5 -17q27 0 51 10.5t49 18.5l5 11q-11 11 -23 10t-24 -1q-20 2 -34.5 13.5t-23.5 27.5t-13 35t-5 36q-2 36 -0.5 79t12 82t33 70t64.5 43q21 2 35.5 -13.5t19.5 -34.5q11 -37 13.5 -67.5t1.5 -59.5q-2 -73 -11 -133
t-17 -119q16 -1 31.5 -0.5t31.5 1.5l6 44l6 44q5 35 8 70.5t17 67.5q10 24 20 50.5t23 50.5t31 43.5t44 28.5q17 -5 27 -16.5t16 -27t9 -32t5 -31.5q2 -48 -0.5 -95.5t-24.5 -89.5q-6 -11 -16 -19t-22.5 -14t-26 -11t-24.5 -11q-9 -18 -12 -38q-2 -6 -2 -13t1 -13l6 -3
q4 0 6 1q4 0 7 2q10 6 20 14l3 2q24 14 55.5 23t55.5 9q7 0 17 -4.5t18 -12.5q7 -8 15 -6t1 10q-11 13 -25.5 24t-25.5 11q-29 0 -64 -11z" />
    <glyph glyph-name="n" unicode="n" horiz-adv-x="446" 
d="M419 18q-11 5 -21.5 2t-20.5 -5q-8 -1 -13 3.5t-7.5 11t-3 13.5t-0.5 13q-1 38 6 75.5t12 75.5q5 30 9 59.5t5 59.5q1 19 1.5 40t-2.5 39.5t-11.5 33t-25.5 21.5q-28 -3 -48 -22t-38 -38q-23 -24 -42 -50.5t-36 -55.5q-10 -16 -19 -32t-21 -30q1 28 5.5 56.5t10 56.5
t10.5 56t5 57q-6 5 -12 5t-13 -2t-13.5 -5.5t-12.5 -4.5q-20 -4 -40 -7.5t-40 -9.5q-2 -3 -5.5 -5.5t-3.5 -6.5q3 -10 11 -7.5t15 4.5q21 -1 26 -12.5t3 -22.5q-1 -99 -9.5 -196t-15.5 -195q17 -2 34 -2.5t34 -2.5q-8 49 -2 96.5t21.5 92.5t40 87t54.5 80q10 13 21 27t29 17
q11 -2 15.5 -12t5.5 -21q2 -43 -1.5 -85t-8.5 -84q-5 -39 -11.5 -78t-12.5 -78q-2 -14 -5 -31t8 -28q14 2 27.5 6.5t27.5 8.5q19 5 37.5 9t36.5 11q1 3 1.5 6.5t2.5 5.5z" />
    <glyph glyph-name="o" unicode="o" horiz-adv-x="430" 
d="M392 331q-3 23 -11.5 47t-23 43.5t-35 32t-45.5 11.5q-59 -1 -104 -33t-75.5 -80.5t-44.5 -106.5t-9 -111q4 -39 19.5 -77t46.5 -65q22 -16 43.5 -18.5t41 3t37.5 17.5t32 25q23 20 43 42.5t37 48.5q31 49 43 106.5t5 114.5zM315 277q1 -31 1 -69t-8 -73t-27 -62.5
t-56 -37.5q-28 -1 -47.5 12.5t-32 35t-18.5 46.5t-7 48q-2 54 7.5 109.5t39.5 102.5q17 27 50 27q27 0 45 -14t29.5 -34.5t17 -44.5t6.5 -46z" />
    <glyph glyph-name="p" unicode="p" horiz-adv-x="431" 
d="M386 211q4 31 6.5 66.5t-1.5 70t-17.5 65t-42.5 50.5q-37 -4 -64 -24.5t-48 -49.5t-38 -62t-35 -60q5 51 11 101t12 101l-1 2q0 1 -1 3q-21 -7 -41.5 -14.5t-43.5 -11.5q-10 -1 -20 -2.5t-19 -4.5q-1 -2 -1.5 -2.5t-1.5 -2.5q0 -5 -1 -9t1 -9q6 -2 11.5 0t11 4.5
t10.5 2.5q6 0 11 -5q4 -47 3 -95t-4.5 -95.5t-8.5 -95.5t-8 -95q-2 -14 -2 -28t-2 -28q-8 -66 -13.5 -131.5t-10.5 -131.5q9 0 18 5t18 12t17.5 13t17.5 8q2 31 3.5 58t2.5 53t2 52.5t3 58.5q27 1 54.5 5.5t53 13.5t49 23.5t41.5 36.5q27 33 45 71.5t23 80.5zM309 352
q11 -56 9.5 -112t-12.5 -112q-5 -28 -19 -53.5t-39 -40.5q-36 -15 -67 -12.5t-57 16.5q3 47 8 92.5t20 90.5q9 27 21 53.5t27 50.5q14 23 31.5 46.5t45.5 27.5q17 -4 23 -18.5t9 -28.5z" />
    <glyph glyph-name="q" unicode="q" horiz-adv-x="455" 
d="M389 184q12 37 14.5 82.5t-8 87t-36.5 73.5t-72 41q-41 1 -74.5 -16.5t-59.5 -46t-46 -63t-34 -68.5q-17 -42 -22 -91.5t6 -94t39 -76.5t78 -38q4 -20 11.5 -40.5t19.5 -38t28 -30.5t38 -17q20 0 38 7t32.5 20t26 29t18.5 34q-8 -4 -16 -7.5t-16 -7.5q-5 -9 -9 -18.5
t-11 -17.5q-19 -14 -32.5 -12t-21.5 11q-18 26 -30 46.5t-13 43.5q23 16 40 38.5t37 42.5q26 26 45 59t30 68zM324 283q3 -33 1.5 -66.5t-6.5 -66.5q-5 -20 -12 -39.5t-17 -35t-24 -25.5t-33 -11q-28 -1 -48 12t-32.5 34t-18 46t-5.5 49q1 35 3 69t11 67q6 20 13 38.5
t16.5 32.5t22.5 23t30 9q26 0 44.5 -13t30 -33t17 -44t7.5 -46z" />
    <glyph glyph-name="r" unicode="r" horiz-adv-x="480" 
d="M480 3l-8 4l-5 2q-18 7 -29 16.5t-27 21.5q-52 39 -90 78t-70 76q36 17 68 42t46 65q8 23 10.5 47t-0.5 47q0 13 -6 27t-15.5 23.5t-22 12.5t-27.5 -5q-32 -18 -53.5 -37.5t-41.5 -39.5q-14 -14 -26.5 -29t-23.5 -32q3 32 5 65t9 65q-1 4 -1 8q0 5 -5 4q-14 -2 -27.5 -7
t-27.5 -8q-11 -2 -23.5 -3t-23.5 -4h-11q-12 -5 -16.5 -8.5t-6.5 -8.5q2 -2 2 -5t2 -5q5 1 11 3t11 3q12 2 20 -3.5t13 -14.5t6.5 -20.5t1.5 -20.5q-1 -42 -4.5 -97.5t-8.5 -113.5t-10 -113.5t-8 -97.5q-2 -19 -5 -37.5t-1 -37.5q12 15 22.5 26t25.5 23l7 8l3 4q4 20 7.5 54
t6.5 71.5t6 72t5 54.5q6 1 12 1t12 -2q28 -19 54.5 -46t53.5 -54t56.5 -50t63.5 -33q22 -1 47 2q9 2 18.5 2.5t18.5 4.5zM273 394q22 -18 28.5 -47t0 -57.5t-25.5 -51.5t-48 -29q-20 -5 -41.5 -6.5t-42.5 -0.5q2 32 12.5 62.5t31.5 55.5q18 22 37 44.5t48 29.5z" />
    <glyph glyph-name="s" unicode="s" horiz-adv-x="382" 
d="M351 142q-1 30 -15 50t-35 34t-45.5 25.5t-46.5 24.5t-39 31t-22 45q-1 23 8.5 38t25.5 23t36 9t38.5 -4.5t33.5 -17.5t21 -30q-1 -7 -2.5 -14t-2.5 -14q2 -2 5 -2.5t5 -2.5l10 3v3q-2 14 2 27.5t9 26.5l10 22t4 24q-1 2 -1 3t-1 3q-11 5 -22.5 7t-22.5 4q-38 5 -79 -3
t-76 -28t-57.5 -52.5t-22.5 -75.5q3 -29 18.5 -48t37 -32.5t46 -25t46 -25t37 -33t17.5 -48.5q2 -15 -5 -30t-20 -24q-21 -16 -47.5 -18.5t-52 5.5t-47 24.5t-32.5 38.5q2 8 2.5 16t3.5 16q2 16 -4.5 21t-13.5 4q-7 -7 -6 -15.5t1 -16.5q-2 -22 -5.5 -44t-13.5 -42
q2 -8 8 -13t13 -8q29 -18 63 -26t67.5 -4.5t64 19t52.5 44.5q21 21 37 48.5t15 57.5z" />
    <glyph glyph-name="t" unicode="t" horiz-adv-x="408" 
d="M393 415q2 3 5 15.5t4 16.5q-1 1 -1 2t-1 2q-2 1 -2.5 1.5t-2.5 1.5q-10 2 -20 0.5t-20 -3.5q-26 -4 -51.5 -2t-51.5 3q-38 2 -75.5 3.5t-75.5 4.5q-7 -1 -13.5 0.5t-13.5 -0.5q-6 -2 -12 -6t-8 -10q-9 -28 -17.5 -56t-19.5 -54q-2 -5 1 -10q2 -3 3.5 -5.5t6.5 -0.5
q13 6 13 20t3 26q10 16 26.5 23.5t35 9.5t37.5 2q20 0 37 1q6 -85 1 -170t-18 -170q-3 -20 -8.5 -40.5t-4.5 -41.5l7 -7q14 1 28 5.5t28 6.5q19 3 37.5 3.5t37.5 5.5l9 8l-3 10l-5 2q-8 -3 -16.5 -3.5t-16.5 -0.5q-17 11 -21 22t-4 22q-2 88 4 174t20 173q21 0 51.5 1
t51.5 1q1 0 2 -0.5t2 -0.5q-5 -13 -9 -26t-11 -26q-3 -5 -1 -9t5.5 -6t8 -1t7.5 6q9 18 14.5 39t16.5 38z" />
    <glyph glyph-name="u" unicode="u" horiz-adv-x="456" 
d="M423 13q-2 11 -14 11h-20q-16 3 -24.5 13.5t-12.5 24.5t-4.5 29.5t-1.5 28.5q-3 66 3.5 132t14.5 132q2 16 3.5 31.5t1.5 31.5q-17 2 -32.5 1.5t-32.5 0.5q2 -84 -21.5 -163.5t-65.5 -151.5q-7 -12 -14.5 -25.5t-16 -25.5t-19.5 -21t-26 -13q-18 4 -23 21t-7 32
q-4 44 1 88t13 87q9 46 19 91t17 91l-2 4l-3 2q-10 -1 -18.5 -6t-18.5 -8q-20 -5 -40 -6t-40 -4l-6 -3q-1 -5 -2.5 -10.5t2.5 -10.5h6q12 3 21 2q8 -11 9.5 -17t2.5 -11q0 -26 -2.5 -44t-4.5 -35q-5 -54 -10 -106t-10 -106q-1 -16 -1.5 -35.5t3.5 -37t13.5 -31.5t29.5 -19
q17 -2 30.5 7t25.5 19q23 20 40.5 44t34.5 50q20 32 37.5 64.5t34.5 65.5q-2 -32 -6 -64l-8 -64t-4.5 -64t5.5 -63q3 0 7 -1t6 2q12 3 24 5.5t24 7.5q18 6 37 8t37 10q2 2 4 4.5t4 4.5z" />
    <glyph glyph-name="v" unicode="v" horiz-adv-x="406" 
d="M376 452l-4 3q0 1 -1.5 1.5t-1.5 1.5q-17 -2 -32 -5t-32 -3q-16 1 -32.5 3t-32.5 -3l-3 -4l2 -11v-2l2 -4q11 -1 15 -0.5t6 1.5q17 -2 22.5 -9.5t5.5 -15.5q-1 -42 -9.5 -83.5t-21.5 -81.5t-28.5 -80t-30.5 -79q-8 48 -16.5 96t-16.5 96t-13.5 96t-6.5 97l-2 3l-2 1
q-7 -1 -12 -4q-18 -12 -41 -17t-45 -8q-14 -5 -14 -17l22 -2l9 -3q15 -55 25.5 -111.5t20.5 -112.5t22 -112t29 -110l16 8q12 28 26 54t27 54q27 63 54.5 126t53.5 126q11 28 23 55t17 56z" />
    <glyph glyph-name="w" unicode="w" horiz-adv-x="562" 
d="M532 436q-3 2 -5 5t-6 4q-3 -1 -7 -1q-3 0 -6 -1q-24 -8 -50 -8.5t-52 0.5q-2 -1 -4.5 -2t-4.5 -2q2 -10 2.5 -13.5t2.5 -5.5q6 0 14 0.5t15 0t13 -3.5t9 -11q2 -38 -2.5 -75t-13 -74t-19 -73t-20.5 -72q-25 73 -48.5 146.5t-41.5 148.5q-1 10 -2.5 19t-6.5 18q-2 1 -5 1
q-2 0 -4 1q-6 -6 -8 -10q-7 -17 -10.5 -33.5t-8.5 -33.5q-21 -62 -48 -120t-57 -116q-3 63 -3.5 125.5t-1.5 125.5q0 22 1 44t-1 44l-1 3q-2 0 -2.5 0.5t-2.5 0.5q-3 -2 -6.5 -2.5t-6.5 -2.5q-18 -9 -37 -13t-39 -8q-8 -1 -16 -2.5t-12 -10.5q4 -5 10 -6t12.5 -1.5
t11.5 -2.5t7 -10q12 -60 15.5 -120.5t8.5 -121.5q2 -31 3.5 -62t3.5 -62q1 -17 1 -37q0 -19 15 -30q16 19 23 42.5t18 45.5q26 54 51.5 106t51.5 105q2 5 3.5 10t4.5 10q22 -78 45 -155.5t39 -157.5q2 -3 3.5 -7.5t6.5 -2.5q10 4 13 13t8 17q21 53 43.5 106t42.5 107t36 109
t25 112z" />
    <glyph glyph-name="x" unicode="x" horiz-adv-x="432" 
d="M407 431q-2 13 -11 19t-21 6q-11 0 -22 -5t-18 -13q-29 -36 -46.5 -78t-36.5 -84q-13 42 -24 84.5t-19 86.5q-2 5 -4 11.5t-7 8.5q-20 -6 -39.5 -12t-39.5 -9q-9 0 -18 1t-18 -1q-4 -5 -6 -12t2 -13q8 0 16.5 2t16.5 2q21 -21 34 -47t23 -54t19 -57t21 -55
q-17 -35 -47.5 -71.5t-55.5 -67.5q-6 -6 -13 -10t-15 -5q-19 1 -30.5 6t-22.5 -1q-4 -14 -7 -28.5t-1 -29.5q3 -13 15 -18t23 -7q26 -5 45 14q31 42 66 89t55 95q14 -48 23.5 -96t23.5 -96q2 -4 2 -8t4 -6q14 0 27 5.5t27 9.5q18 3 36 7t35 12l2 11l-3 4q-11 -1 -15 -2
t-6 -2l-10 -3h-11l-5 8q-32 51 -51 107.5t-36 113.5q11 30 25 58t36 51q11 15 29 16.5t35 2.5q20 14 20 30t-2 30z" />
    <glyph glyph-name="y" unicode="y" horiz-adv-x="319" 
d="M355 434q-1 2 -1.5 2.5t-1.5 2.5q-2 1 -3 2t-3 2q-58 -6 -112 4q-10 2 -12 -7t1 -16q2 -1 2.5 -1.5t2.5 -1.5q2 0 3.5 0.5t3.5 0.5q11 2 22.5 -3t14.5 -16q-3 -45 -13.5 -88t-25 -86t-30.5 -85t-31 -84q-16 101 -32 201.5t-33 201.5h-3q-20 -5 -38.5 -12t-38.5 -9
q-9 -1 -19 1t-17 -7q-1 -5 -2 -9.5t1 -9.5l3 -2l6 1l9 4q3 0 5.5 -0.5t5.5 -0.5q21 -54 35 -109.5t25.5 -112.5t21.5 -114.5t23 -113.5q-12 -25 -23 -50t-25.5 -46t-34 -37.5t-49.5 -25.5q-13 2 -25.5 5.5t-25.5 5.5q-8 -11 -10.5 -25t1 -27.5t13 -24t26.5 -13.5
q27 2 46.5 17t34.5 36.5t27.5 45.5t26.5 43q5 9 8 14t5.5 8.5t5.5 8.5t8 15q45 93 88.5 185t81.5 188q14 35 29.5 69.5t22.5 72.5z" />
    <glyph glyph-name="z" unicode="z" horiz-adv-x="447" 
d="M417 438l-4 4l-3 3q-57 -2 -113 3.5t-113 5.5q-16 0 -34 -0.5t-31 -11.5q-1 -15 -3 -29.5t-4 -29.5q-5 -17 -11.5 -34t-10.5 -34q10 -8 20 -8l5 1l2 4q3 16 4 32t7 31q17 17 38.5 25.5t45.5 12t48 3.5t47 1q-18 -41 -40.5 -79t-47.5 -74.5t-51.5 -72t-52.5 -71.5
q-20 -29 -39.5 -57t-43.5 -54q0 -2 -0.5 -3t-0.5 -3q1 -1 1.5 -2t1.5 -2q122 -18 246 -15q17 1 34 0.5t31 10.5q5 18 9 36.5t7 37.5q3 15 10 29t9 30q-7 7 -10.5 7.5t-6.5 0.5q-13 -4 -12.5 -15.5t-2.5 -21.5q-2 -23 -9 -34.5t-16 -19.5q-42 -21 -89.5 -22t-93.5 4
q3 7 7.5 13t7.5 13q62 97 129 189.5t131 189.5q1 2 1 3t1 3z" />
    <glyph glyph-name="braceleft" unicode="{" horiz-adv-x="382" 
d="M355 672q-1 6 -1 11v12q-38 9 -78 1t-69 -36q-37 -45 -44 -94t0 -94q3 -22 5.5 -44t-1.5 -44q-3 -22 -15 -39t-28 -30.5t-35 -24t-37 -19.5q1 -5 0 -11t-1 -11q14 -4 25.5 -10t23.5 -13q30 -22 39 -48t6.5 -54.5t-12 -58.5t-16 -60.5t-5.5 -60.5t19 -57
q13 -20 30.5 -36.5t37.5 -28.5t43 -17.5t47 -3.5q1 6 2 11.5t0 11.5q-22 4 -41 15.5t-30 31.5q-14 24 -16 49.5t1.5 51t10.5 51t12 50.5q7 37 -2 67.5t-29 54t-47 40t-54 26.5q22 10 45 21t44 24.5t37.5 31.5t24.5 43q8 24 8.5 48.5t-1.5 49.5q-2 30 -1 61.5t9 61.5
q10 37 36 55.5t57 14.5z" />
    <glyph glyph-name="bar" unicode="|" horiz-adv-x="135" 
d="M100 702q-3 10 -11.5 16.5t-18 7.5t-18.5 -3.5t-13 -15.5q-3 -221 -4.5 -439.5t1.5 -439.5q4 -8 8.5 -14.5t12.5 -11.5q18 -1 26.5 4t12.5 13q5 222 6.5 441.5t-3.5 441.5h1z" />
    <glyph glyph-name="braceright" unicode="}" horiz-adv-x="384" 
d="M357 269q-13 5 -25.5 9.5t-24.5 11.5q-29 16 -38.5 41t-8.5 53t9 56.5t16 52.5q12 36 8.5 70.5t-18 63.5t-39 50t-54.5 32q-34 11 -66 8q0 -6 -1 -12t-1 -12q31 -3 51 -21t29 -43.5t9 -54.5t-8 -54q-9 -42 -16 -74.5t-1 -63.5q9 -46 36.5 -71t57.5 -39q9 -4 19 -7.5
t19 -8.5q-21 -11 -44 -22t-44 -24.5t-37.5 -31t-24.5 -42.5q-8 -24 -8 -49q0 -24 1 -49q0 -30 -0.5 -61.5t-9.5 -61.5q-11 -35 -36.5 -54t-55.5 -15q1 -5 1 -11v-11q31 -11 64 -5.5t60 23t46 44.5t24 60q3 25 2 50t-6 49q-1 22 -3 43.5t2 43.5q3 22 14.5 39.5t28 31t35.5 24
t37 20.5q-1 5 0 11t1 11z" />
    <glyph glyph-name="asciitilde" unicode="~" horiz-adv-x="578" 
d="M548 399q-14 8 -26.5 15t-26.5 15q0 -7 -1 -14t-4 -13q-14 -27 -37 -36t-49 -6.5t-52 12.5t-47 21q-34 14 -58.5 25.5t-50.5 12.5q-43 2 -74 -16.5t-54 -42.5q-12 -17 -22.5 -34.5t-15.5 -37.5q13 -8 25.5 -15.5t25.5 -15.5q-2 8 1.5 15t5.5 15q12 26 32.5 37t44.5 11
q25 0 50.5 -8t45.5 -18q29 -15 58 -27t57.5 -16.5t55 1t49.5 26.5q22 19 40.5 42t26.5 52z" />
    <glyph glyph-name="exclamdown" unicode="&#xa1;" 
d="M208 387v2q0 1 -1 2t-1 2q-20 20 -39 41t-41 38l-2 -1q-19 -19 -33.5 -40.5t-34.5 -38.5l-2 -5q22 -14 41.5 -29.5t39.5 -29.5l4 1q16 16 32.5 31.5t36.5 26.5zM142 260l-3 6q-5 2 -11.5 3.5t-11.5 -1.5l-2 -3q-13 -57 -20.5 -115.5t-15.5 -117t-18.5 -116t-29.5 -113.5
q0 -1 1 -1.5t1 -1.5q2 -1 5 -1t5 -1q24 2 48.5 -0.5t47.5 6.5q0 32 1 64.5t1 64.5q0 63 1 125.5t-1 125.5q0 19 2 38t0 38z" />
    <glyph glyph-name="cent" unicode="&#xa2;" horiz-adv-x="405" 
d="M367 441q-9 12 -22.5 16.5t-28.5 4.5t-30 -2.5t-28 -3.5q2 19 1.5 38t1.5 38q-10 -6 -20.5 -10t-19.5 -10q-1 -17 -2.5 -33.5t-2.5 -33.5q-63 -31 -107 -86.5t-61 -121.5q-11 -42 -10.5 -88t13 -86.5t39.5 -69.5t69 -36q8 1 17 0q-1 -17 -1.5 -33.5t-1.5 -33.5q9 2 18 5
t18 5q1 16 2 31.5t3 31.5q34 14 66 33.5t55 49.5q0 2 0.5 4t0.5 4l-5 9l-6 -2q-21 -18 -48 -30.5t-56 -7.5q8 96 18.5 190t16.5 190q9 -1 22 -5q11 -2 22.5 -7.5t14.5 -18.5q-1 -22 -6.5 -35t-2.5 -26q7 -5 16 -5t12 10q0 16 0.5 33t3 33.5t9 31.5t20.5 27zM215 403
q-8 -91 -16.5 -181t-15.5 -181q-8 6 -13 8q-33 35 -47.5 86t-9.5 103t30.5 97t71.5 68z" />
    <glyph glyph-name="sterling" unicode="&#xa3;" horiz-adv-x="470" 
d="M439 149q0 9 -7.5 10.5t-14.5 0.5q-8 -12 -9.5 -28.5t-4 -32t-10 -28t-26.5 -16.5q-52 -10 -103.5 -3t-103.5 12q25 56 34 115.5t18 119.5q26 1 52.5 0.5t52.5 -2.5q5 11 9.5 21t11.5 20q-31 -3 -61 -3h-61q7 30 8.5 61t7.5 61q4 21 8.5 42t12 38.5t19.5 28.5t32 12
q28 -4 48.5 -22.5t37.5 -38.5q5 18 14 34.5t14 35.5q-7 16 -23.5 22t-31.5 8q-59 8 -100.5 -17.5t-69 -69t-42 -97t-18.5 -99.5q-20 0 -41 -0.5t-41 1.5q-2 -11 -8.5 -20t-11.5 -19q25 2 50 3t50 0q-3 -11 -3.5 -23t-0.5 -23q-2 -63 -6 -124q-1 -17 -2 -33t-4 -33
q-5 -24 -17.5 -38.5t-29.5 -8.5q-5 1 -9 1.5t-8 2.5h-4l-2 -2q0 -9 5 -21l2 -2q38 -8 78 -8.5t78 -8.5q35 -8 70.5 -14t72.5 -1q14 2 26.5 11t17.5 23q11 34 18.5 68.5t22.5 67.5q1 4 2.5 8t0.5 8z" />
    <glyph glyph-name="currency" unicode="&#xa4;" horiz-adv-x="575" 
d="M544 106q2 6 -1.5 11t-9.5 5q-17 -16 -34.5 -32.5t-37 -30t-41.5 -21.5t-47 -6q-38 -3 -71 10.5t-58.5 38t-42 57.5t-20.5 68h41q48 0 94.5 1.5t94.5 -3.5q7 15 14 30.5t15 29.5q-32 -3 -65 -3q-32 0 -64 -1l-68 -2t-68 -1v6q-2 17 -2 34t1 34q17 0 33 0.5t33 -0.5
q48 -1 95 0t95 -4q6 15 14 29.5t14 29.5q-69 -2 -138.5 -3t-138.5 0q5 37 23 71t45.5 58.5t63 37.5t74.5 7q17 -1 33 -3t31 -10q17 -8 26.5 -25t10.5 -36q1 -11 -0.5 -22.5t-1 -21t4 -16t14.5 -6.5q8 1 11 5.5t3 11.5t-1.5 14t-2.5 12q-6 35 0 69.5t12 68.5q-5 4 -9.5 7
t-10.5 3q-46 12 -93.5 8.5t-90.5 -23.5q-52 -24 -95 -62.5t-76 -85.5q-20 -29 -31 -60q-11 0 -22 0.5t-22 -0.5q-8 -14 -14.5 -29t-14.5 -29l54 3q-3 -17 -5.5 -32.5t-3.5 -32.5h-36q-5 -15 -12.5 -28.5t-13.5 -27.5q17 0 32.5 -0.5t32.5 -0.5q4 -43 21 -86.5t45.5 -78.5
t67.5 -57t87 -21q28 0 53.5 8.5t49 22t45 31t40.5 36.5q11 11 21 21.5t18 21.5z" />
    <glyph glyph-name="yen" unicode="&#xa5;" horiz-adv-x="558" 
d="M528 279q-44 -5 -88 -5h-87q10 17 19 34.5t21 34.5q27 0 54 -1t54 -3l10 20l10 20q-28 -1 -55 -1h-55q15 27 30.5 54.5t30 55t26 56.5t18.5 59l-6 3q-14 2 -27 -0.5t-27 -1.5q-19 -1 -37.5 0.5t-37.5 2.5q-8 1 -16 1t-16 3l-5 -2q0 -4 -0.5 -7t-1.5 -7q5 -11 14.5 -11.5
t20.5 0.5t21 -0.5t16 -12.5q0 -39 -8.5 -76.5t-22 -73.5t-30 -71.5t-32.5 -70.5q-20 59 -40.5 116t-42.5 115q-6 16 -13.5 35t-18.5 35.5t-26 27.5t-36 11q-17 0 -32.5 -5.5t-31.5 -10.5q-12 -3 -24 -5.5t-23 -8.5l-3 -3q1 -3 0.5 -6t1.5 -5q1 -1 1 -2l1 -1q10 1 20 0t18 -7
q46 -36 75 -86t54 -101h-46t-46 2q-7 -11 -14 -20.5t-15 -20.5q35 2 69 3t69 1q11 -16 17 -34t13 -36q-34 1 -67 0t-67 4q-8 -10 -14 -20t-14 -20q45 0 88 1t88 0q2 -11 3 -20.5t3 -20.5q-2 -24 -2 -50q0 -25 -2 -50t-7.5 -48.5t-18.5 -44.5q-10 0 -20 -1.5t-20 -0.5l-4 3
l-7 -2q-1 -7 -1 -14q0 -8 9 -10q6 -1 12.5 0t12.5 1q23 -2 46.5 -1t46.5 1h39q20 0 40 2q10 11 5 24q-14 2 -26.5 -0.5t-26.5 -0.5l-6 9l-1 11v4q0 53 -1 105.5t6 104.5q42 0 82 -1.5t82 0.5q5 11 11 20.5t11 20.5z" />
    <glyph glyph-name="brokenbar" unicode="&#xa6;" horiz-adv-x="130" 
d="M98 316q0 192 -3 386q-5 7 -9.5 13.5t-12.5 9.5q-18 -1 -25.5 -9t-12.5 -16q-3 -210 -3 -421q16 10 32.5 19t33.5 18zM98 235q-15 -12 -31.5 -21.5t-34.5 -15.5q0 -186 3 -370q5 -8 9.5 -15t12.5 -12q19 0 26 8.5t12 16.5q2 103 3 204.5t0 204.5z" />
    <glyph glyph-name="section" unicode="&#xa7;" horiz-adv-x="365" 
d="M325 581q-2 14 -13 23t-25 13q-17 4 -33.5 1.5t-31.5 -10t-28.5 -18t-26.5 -20.5q-23 -18 -38 -44t-13 -56q9 -35 22.5 -58t30.5 -43q-26 -13 -51 -33.5t-41 -46.5t-18.5 -55.5t16.5 -60.5q19 -30 42 -55.5t45 -49.5t39 -49t24 -56q1 -15 -3 -30t-14 -27
q-21 -17 -40.5 -17.5t-36.5 4.5q-16 3 -30.5 11t-27.5 18q-8 4 -14.5 2t-11 -7.5t-7 -12.5t-0.5 -14q3 -12 10.5 -20t18 -13.5t22 -9t22.5 -5.5q36 -3 67.5 12t55.5 41t38 59.5t15 66.5q1 34 -19 62.5t-42 52.5q34 25 58 62t20 81q-3 36 -20 66t-38 58t-40.5 56.5
t-27.5 62.5q-2 23 8 39q14 16 30 15.5t33 -8t33.5 -17t32.5 -9.5q3 5 4 10t3 10q1 5 1 9v10zM212 149q-20 20 -39.5 40.5t-34.5 44.5q-20 32 -12 62t35 42q6 3 11.5 6.5t10.5 6.5q16 -21 31 -46.5t22 -52.5t3 -53.5t-27 -49.5z" />
    <glyph glyph-name="dieresis" unicode="&#xa8;" horiz-adv-x="375" 
d="M345 573q-17 17 -37 31t-39 28q-15 -17 -27 -36t-31 -33v-2q15 -14 30 -27.5t29 -29.5l3 1q17 17 36 33t36 35zM164 573v2q-17 13 -31 27.5t-28 29.5q-21 -15 -39.5 -33.5t-35.5 -37.5q0 -1 1 -1t1 -1q2 -2 4 -2.5t4 -2.5q16 -14 32.5 -25.5t33.5 -24.5v1q11 20 28 35.5
t31 32.5h-1z" />
    <glyph glyph-name="copyright" unicode="&#xa9;" horiz-adv-x="579" 
d="M547 514q0 32 -10.5 62.5t-28.5 56.5q-40 59 -99 94q-27 17 -58 27t-64 10q-50 0 -94 -22.5t-79 -55.5q-35 -34 -59 -78t-24 -94q1 -32 11 -62.5t27 -57.5q39 -59 97 -94q28 -17 59.5 -27t63.5 -10q33 0 64 9.5t57 26.5q29 19 54 42.5t44 52.5q18 27 29 57.5t10 62.5z
M508 514q2 -43 -18 -80.5t-51 -66.5q-30 -29 -68 -47.5t-82 -18.5q-43 0 -81.5 18t-69.5 47t-49.5 67t-19.5 81q0 42 19 80t50 66t69.5 47.5t81.5 17.5q28 2 54 -8t50 -23q24 -16 46 -34.5t37 -43.5q15 -23 23.5 -49t8.5 -53zM408 471h-22q-1 -5 -1.5 -8.5t-1.5 -8.5
q-4 -27 -25 -46.5t-50 -19.5q-25 0 -41 13t-25.5 32t-12.5 41.5t-3 42.5q1 19 3 42t9.5 43t22 34t39.5 15q17 1 30 -8.5t23 -22.5q5 -8 9 -15t7 -15q5 -8 7 -16t6 -16q5 1 10.5 2t10.5 1q0 28 -1 55.5t-3 55.5h-20l-8 -8v-1l-9 -6h-2q-3 1 -6.5 0.5t-5.5 1.5
q-14 7 -28.5 11.5t-29.5 4.5q-28 0 -51.5 -14.5t-40.5 -34.5q-9 -11 -17 -23.5t-14 -26.5q-5 -14 -7.5 -29t-2.5 -30q0 -17 2.5 -34.5t10.5 -33.5q15 -38 49.5 -63t76.5 -22q20 -2 39 3.5t34.5 17.5t25.5 29t11 38q1 5 1 9q0 5 1 10z" />
    <glyph glyph-name="ordfeminine" unicode="&#xaa;" horiz-adv-x="326" 
d="M294 338q-1 1 -1 2t-1 2l-4 1q-5 -2 -10.5 -3t-10.5 -2q-9 0 -14 5.5t-7 13t-2.5 16t-0.5 15.5q-3 25 -1.5 41t2.5 30q2 40 6 72t7 63q2 5 2.5 9.5t1.5 9.5q-2 2 -3 4t-3 4q-7 -2 -13 -5.5t-14 -3.5q-40 8 -77.5 -6t-61.5 -47q-20 -22 -33.5 -48t-19.5 -55
q-5 -22 -5.5 -44.5t1.5 -45.5q5 -20 8.5 -33t12.5 -22q19 -8 29.5 -1.5t18.5 14.5q14 15 28 29t25 32q14 23 27 45t26 45q-2 -7 -1 -13.5t-1 -13.5q-2 -11 -4 -23t-3 -23q-1 -12 -3 -26t-2 -28q0 -13 2 -25.5t10 -22.5q22 6 42.5 14t41.5 16l4 4q0 1 0.5 2t0.5 2zM205 555
q-8 -28 -17.5 -56t-22 -55t-28.5 -51.5t-38 -44.5q-9 1 -13.5 6t-6 12.5t-2 16t-1.5 14.5q-1 24 2 53t12.5 54.5t27 44.5t47.5 23q11 0 22 -3.5t18 -13.5z" />
    <glyph glyph-name="guillemotleft" unicode="&#xab;" horiz-adv-x="503" 
d="M473 387l-10 10t-10 9q-60 -53 -124 -102t-120 -106q22 -21 47.5 -38t52.5 -32t54.5 -28.5t54.5 -28.5q6 6 11 12t11 12q-33 27 -66 56t-59 64q37 46 77.5 87.5t80.5 84.5zM306 396q-4 5 -8 9t-7 9q-65 -54 -133 -104t-128 -109q24 -22 51.5 -40t56.5 -33.5t58.5 -31
t58.5 -31.5q5 5 8.5 11.5t8.5 11.5q-36 31 -72 60.5t-66 66.5q40 48 84.5 92t87.5 89z" />
    <glyph glyph-name="logicalnot" unicode="&#xac;" horiz-adv-x="903" 
d="M788 530q-23 6 -46 16.5t-43 24.5q18 12 39 16.5t43 5.5q-9 15 -17.5 30t-16.5 31q-14 -16 -30.5 -31.5t-37.5 -21.5q-7 23 -3.5 46.5t6.5 46.5q-15 0 -30.5 0.5t-30.5 2.5q11 -21 15 -45t4 -47q-21 9 -37.5 25t-28.5 35q-6 -16 -15.5 -30.5t-20.5 -27.5q23 -2 44 -11.5
t39 -23.5q-19 -14 -41.5 -21.5t-45.5 -12.5q10 -14 18.5 -29.5t16.5 -30.5q13 20 30.5 36.5t40.5 27.5q2 -23 -1.5 -46t-10.5 -45q16 2 32 1.5t32 -1.5q-6 22 -10 44.5t-2 45.5q44 -26 77 -65q7 14 13.5 28t17.5 26zM866 -7q-21 33 -38 68.5t-33.5 71.5t-35 70.5t-42.5 66.5
q35 38 71 75.5t78 67.5q-5 6 -10.5 11t-8.5 12q-30 -17 -60 -34.5t-58.5 -37t-55.5 -41.5t-49 -48q54 -78 112 -150.5t111 -150.5q4 5 9 9.5t10 9.5zM615 360q-3 36 -14.5 61.5t-34.5 35.5q-21 0 -37.5 -5t-30.5 -14t-26 -20t-23 -22q-26 -25 -46 -56t-38 -62q1 23 2 47.5
t0 47.5q-2 31 -22 56.5t-52 28.5q-51 0 -89 -17t-66 -43q-65 -61 -88 -136.5t-6 -147.5q5 -20 12 -43t18 -42.5t27.5 -34t40.5 -17.5q26 1 50 11t48 17l5 10q-3 7 -8.5 9.5t-12.5 2.5q-6 0 -13 -1t-13 -1q-20 2 -34 13.5t-23 27.5t-14 35t-7 36q-4 35 -4.5 70t5.5 70
q4 23 11.5 46t18.5 41t27.5 30t39.5 13q22 1 37 -14.5t20 -34.5q11 -37 13.5 -66.5t2.5 -58.5q1 -72 -5.5 -132.5t-11.5 -118.5q16 1 31 0t31 1q2 22 3.5 43t3.5 43q3 35 6.5 70t14.5 68q11 24 21.5 51t24.5 51.5t32.5 44t45.5 28.5q17 -4 26.5 -15.5t14.5 -27.5t6.5 -33
t3.5 -31q0 -48 -4.5 -96t-18.5 -94q-4 -15 -13.5 -23.5t-21.5 -13.5t-25 -8.5t-24 -8.5q-5 -8 -6.5 -18t-2.5 -20q-2 -7 -1 -13t3 -13l6 -3l10 2l9 5l9 5l3 4q33 25 57.5 58t44.5 68q32 57 44 122.5t7 131.5z" />
    <glyph glyph-name="registered" unicode="&#xae;" horiz-adv-x="579" 
d="M547 514q0 32 -10.5 62.5t-28.5 56.5q-40 59 -99 94q-27 17 -58 27t-64 10q-50 0 -94 -22.5t-79 -55.5q-35 -34 -59 -78t-24 -94q1 -32 11 -62.5t27 -57.5q39 -59 97 -94q28 -17 59.5 -27t63.5 -10q33 0 64 9.5t57 26.5q29 19 54 42.5t44 52.5q18 27 29 57.5t10 62.5z
M508 514q2 -43 -18 -80.5t-51 -66.5q-30 -29 -68 -47.5t-82 -18.5q-43 0 -81.5 18t-69.5 47t-49.5 67t-19.5 81q0 42 19 80t50 66t69.5 47.5t81.5 17.5q28 2 54 -8t50 -23q24 -16 46 -34.5t37 -43.5q15 -23 23.5 -49t8.5 -53zM449 444v11l-12 -1h-8l-2 -7l-1 -10v-2
q-2 -6 -6 -11t-10 -7l-11 3v2l-5 9l-1 4l-6 18q-1 3 -1.5 5.5t-1.5 5.5l-4 10l-1 1q-6 11 -13.5 22t-18.5 18q-2 2 -4 2.5t-4 2.5q12 2 20 4q24 3 40.5 22.5t14.5 43.5q1 26 -18.5 46t-45.5 22q-14 1 -27.5 3t-28.5 2q-33 -1 -67 -1q-33 0 -67 -2q-1 -5 -1.5 -10t-0.5 -10
h22q14 -2 20 -13.5t5 -23.5q-2 -81 0 -162q1 -14 -6 -28t-24 -14q-5 -1 -9 -1.5t-9 0.5q0 -5 1 -10.5t1 -10.5q38 -2 75 -2h76v21q-5 1 -9 1t-9 1q-7 1 -14 4t-12 10q-2 8 -3 15.5t-1 15.5v72h9q9 -2 18.5 -2.5t17.5 -6.5q4 -6 7 -13t5 -14l2 -10q4 -11 4.5 -15t1.5 -7
q5 -17 11 -34t20 -28q7 -5 14.5 -6.5t15.5 -2.5q14 -1 25 5t19 16t12.5 22.5t4.5 24.5zM348 590q0 -13 -4.5 -25.5t-15.5 -20.5q-17 -8 -42 -8h-24q0 16 -0.5 32t0.5 32q1 5 1 9v10q1 14 14 19t24 4q22 2 35 -15t12 -37z" />
    <glyph glyph-name="macron" unicode="&#xaf;" horiz-adv-x="322" 
d="M282 597q-54 -5 -107.5 -3.5t-107.5 4.5q-11 -12 -22 -25.5t-7 -31.5q20 3 41 2t41 -1q34 -1 67.5 0.5t66.5 -2.5q6 5 13 11t11.5 13.5t6 15.5t-2.5 17z" />
    <glyph glyph-name="degree" unicode="&#xb0;" horiz-adv-x="409" 
d="M374 452q-2 31 -16.5 59t-37 49.5t-51.5 35.5t-59 18q-37 0 -70 -13t-57 -35.5t-37.5 -51.5t-11.5 -62q2 -32 16 -60t36 -49.5t50.5 -35.5t59.5 -17q37 0 70.5 13.5t58 35.5t38 51t11.5 62zM321 452q2 -23 -6 -43.5t-23 -36.5t-35 -25t-42 -8q-28 1 -51 10.5t-40 24.5
t-27.5 35t-11.5 43q-2 22 6.5 42.5t23.5 35.5t35 24t42 10q55 -4 91 -35.5t38 -76.5z" />
    <glyph glyph-name="plusminus" unicode="&#xb1;" horiz-adv-x="453" 
d="M423 244q-43 1 -85.5 0t-84.5 0q-2 41 -1 81.5t3 81.5q-30 -13 -58 -20q7 -35 6 -71.5t-1 -71.5q-38 -1 -76 -1q-37 0 -75 2q-3 -15 -9 -29l-12 -28q44 5 86.5 5.5t85.5 0.5q-2 -40 -3.5 -80t-1.5 -80q15 6 30.5 10t31.5 9q-4 35 -4.5 70.5t-0.5 70.5q38 -1 75.5 -0.5
t75.5 -4.5q0 12 7 24q3 14 11 31zM414 -49q-66 -13 -133 -15.5t-135 0.5q-22 1 -44.5 4t-44.5 8q2 -14 -3 -27t-7 -27q85 -14 170.5 -12.5t170.5 8.5q7 16 13 31t14 30h-1z" />
    <glyph glyph-name="twosuperior" unicode="&#xb2;" horiz-adv-x="330" 
d="M299 317q-8 2 -15 2t-14 2l-5 -2q-2 -10 -2 -20t-3 -20l-6 -3q-30 -9 -61 -9.5t-63 1.5q29 44 59.5 86.5t50.5 92.5q7 18 9.5 37.5t-0.5 39.5q-4 29 -22 55t-49 32q-38 2 -66.5 -11t-48.5 -35q-8 -8 -16 -17.5t-16 -18.5v-4q5 -8 15 -13q13 2 18.5 5.5t9.5 8.5
q14 17 26.5 27t26.5 9q14 1 25 -5t18.5 -16t11.5 -23t4 -26q1 -39 -10.5 -74t-31.5 -67t-45.5 -60.5t-50.5 -54.5l-5 -8v-1q4 -4 4 -6q5 -2 8.5 -3.5t7.5 -1.5q33 -4 65.5 -3.5t66.5 -4.5q17 -2 35 -4.5t35 2.5l3 3q5 25 11.5 49t17.5 47q0 3 1.5 6.5t-0.5 5.5h1z" />
    <glyph glyph-name="threesuperior" unicode="&#xb3;" horiz-adv-x="344" 
d="M286 282q15 23 16 45t-8 40t-25 31t-35 19q-6 2 -12 5t-13 5q10 7 20.5 13t20.5 12q28 18 33.5 45.5t-5.5 53t-34.5 44t-53.5 17.5q-19 0 -37 -4.5t-33 -15.5q-17 -12 -34.5 -24.5t-25.5 -32.5q2 -5 5.5 -9t6.5 -8l10 -7h2q13 9 22.5 22t23.5 21q23 13 41.5 8t29.5 -19
q8 -10 13 -20.5t6 -22.5q3 -15 -2 -27t-15.5 -20.5t-24 -12t-26.5 -2.5q-12 -2 -24 1t-24 0q0 -8 -1.5 -15t0.5 -15l3 -4q4 -1 7.5 -2.5t8.5 -0.5q20 1 41 -3.5t37.5 -16t27 -28.5t9.5 -40q2 -22 -8.5 -38.5t-27.5 -26.5t-37.5 -11.5t-38.5 7.5q-18 8 -30 23t-29 24l-7 -3
q-2 -2 -2.5 -4.5t-2.5 -4.5l-7 -9l-5 -12q8 -13 21 -22q18 -16 41 -24.5t47 -9.5q42 -1 77 22t58 57z" />
    <glyph glyph-name="acute" unicode="&#xb4;" horiz-adv-x="223" 
d="M193 653q-4 4 -4 5q-26 6 -48 18h-6q-19 -28 -36 -57t-35 -58q-9 -15 -18.5 -29.5t-15.5 -30.5q0 -1 1 -1t1 -1q4 -2 7 -3t7 -3q12 5 21 14.5t19 17.5q31 27 59.5 58.5t47.5 69.5z" />
    <glyph glyph-name="mu" unicode="&#xb5;" horiz-adv-x="663" 
d="M292 342q5 -19 6.5 -35.5t2.5 -32.5q-4 -2 -6 -4q-2 -3 -12 -5t-14 -2q-14 0 -29 9t-15 21q0 9 6.5 18t16.5 16t22 11.5t22 3.5zM549 242q-2 -38 -7.5 -75t-18.5 -73q-5 -15 -15 -23t-23 -13t-26.5 -9t-24.5 -10q-9 -18 -12 -38q-2 -6 -2 -13t1 -13l6 -3q4 0 6 1q4 0 7 2
q10 6 20 14l3 2q24 14 55.5 23t55.5 9q7 0 17 -4.5t18 -12.5q7 -8 15 -6t1 10q-11 13 -25.5 24t-25.5 11q-29 0 -64 -11q35 38 62 83q33 53 44.5 116t-0.5 125q-11 35 -24.5 60.5t-38.5 36.5q-19 2 -33.5 -2.5t-26.5 -13t-22 -19t-20 -19.5q-23 -27 -41.5 -56.5t-35.5 -59.5
q2 23 2.5 47t-1.5 47q-2 30 -21 56.5t-51 31.5q-54 0 -93 -24.5t-70 -54.5q-58 -57 -83.5 -129.5t-11.5 -144.5q4 -20 10.5 -42.5t17 -42.5t27 -34t40.5 -17q27 0 51 10.5t49 18.5l5 11q-3 7 -8.5 9.5t-12.5 2.5q-6 0 -13 -1.5t-13 -1.5q-20 2 -34.5 13.5t-23.5 27.5t-13 35
t-5 36q-2 36 -0.5 79t12 82t33 70t64.5 43q21 2 35.5 -13.5t19.5 -34.5l1 -1q-12 0 -27 -5.5t-27.5 -15t-21 -22.5t-8.5 -28q0 -11 6 -20.5t16 -16.5t21.5 -11t22.5 -4q7 0 16 1.5t17 5.5l-1 -10q-1 -73 -10.5 -133t-17.5 -119q16 -1 31.5 -0.5t31.5 1.5l6 44l6 44
q5 35 8 70.5t17 67.5q10 24 20 50.5t23 50.5t31 43.5t44 28.5q11 -2 18 -7.5t13 -12.5q-27 -5 -50 -20t-23 -44q0 -14 9.5 -25.5t23 -19.5t27 -13t21.5 -5q10 0 19 3zM543 312q2 -8 3 -16.5t2 -16.5q1 -5 1 -14q-7 -4 -19 -4q-7 0 -17 4t-19.5 10.5t-16 13.5t-6.5 13
q0 10 6 18t15 13t20 8t21 4q6 -12 9 -26q-4 6 -12.5 4.5t-8.5 -10.5v-3q0 -11 11 -11t11 11v2zM285 296q11 0 11 11t-11 11h-1q-11 0 -11 -11t11 -11h1zM259 -44q-2 5 -6 6.5t-8 0t-6 -5.5t0 -9q5 -12 14 -19.5t19 -12t19 -6t15 -1.5q20 0 36 11.5t27 26.5q3 4 2 8t-4.5 6.5
t-8 2t-7.5 -4.5q-9 -12 -20.5 -20t-24.5 -8q-10 0 -26 5.5t-21 19.5z" />
    <glyph glyph-name="paragraph" unicode="&#xb6;" horiz-adv-x="501" 
d="M471 549q-1 11 -2 21t-3 21q-49 11 -98.5 17t-99.5 -3q-46 -8 -88 -30.5t-74 -56t-52.5 -76t-22.5 -89.5q-2 -40 12.5 -78t41.5 -69q18 -20 39 -34.5t45 -25t49 -17t51 -10.5v-143t-1 -143h19q10 0 20 1q13 367 6 734q12 -1 24.5 -1.5t24.5 -1.5q8 -183 6.5 -363.5
t-13.5 -363.5q10 1 19.5 2t19.5 3q16 180 17.5 358.5t-9.5 358.5q17 -2 34.5 -4.5t34.5 -6.5z" />
    <glyph glyph-name="periodcentered" unicode="&#xb7;" horiz-adv-x="224" 
d="M194 281q-22 15 -41.5 32.5t-39.5 33.5q-21 -20 -42 -38.5t-41 -38.5q0 -1 1 -1t1 -1q2 -2 3.5 -2.5t3.5 -2.5q9 -7 17.5 -13t18.5 -12q11 -7 19.5 -16.5t19.5 -17.5v0q0 1 2 1q8 13 19.5 23t21.5 21q9 8 18.5 14.5t17.5 14.5v3h1z" />
    <glyph glyph-name="periodcentered" unicode="&#x2219;" horiz-adv-x="224" 
d="M194 281q-22 15 -41.5 32.5t-39.5 33.5q-21 -20 -42 -38.5t-41 -38.5q0 -1 1 -1t1 -1q2 -2 3.5 -2.5t3.5 -2.5q9 -7 17.5 -13t18.5 -12q11 -7 19.5 -16.5t19.5 -17.5v0q0 1 2 1q8 13 19.5 23t21.5 21q9 8 18.5 14.5t17.5 14.5v3h1z" />
    <glyph glyph-name="cedilla" unicode="&#xb8;" horiz-adv-x="268" 
d="M204 -165q18 23 19.5 46t-8 41.5t-27.5 29t-40 9.5q6 11 10.5 22t9.5 22q-7 1 -14 1h-13q-6 -18 -16 -34t-19 -33l21 -3q17 -2 28.5 -18t9.5 -33q-8 -26 -25 -37t-35 -10q-14 1 -27.5 5t-26.5 9q-4 -9 -4.5 -12t-1.5 -5q17 -13 38 -22t43 -10.5t42.5 5.5t35.5 27z" />
    <glyph glyph-name="onesuperior" unicode="&#xb9;" horiz-adv-x="239" 
d="M207 242q0 1 -1 1v1h-4l-5 -3q-19 -7 -34 -7l-1 2q-8 74 -5 148t5 148q0 17 3 34.5t2 34.5q-2 2 -4 4.5t-4 4.5q-18 -8 -34.5 -18.5t-36.5 -16.5q-13 -4 -25.5 -7.5t-24.5 -8.5l-6 -4q1 -8 0.5 -15.5t5.5 -12.5q15 4 28.5 10t27.5 11l5 -1q1 -3 2.5 -6t1.5 -7
q2 -8 1 -16.5t1 -16.5q-2 -66 0 -132.5t-9 -132.5q-6 -2 -11.5 -2.5t-11.5 1.5q-17 8 -24.5 2t-3.5 -15q1 -1 1.5 -2t1.5 -2q4 -1 7 -3t7 0q35 -5 71.5 -6.5t69.5 12.5l1 1q0 1 1 2q1 5 2 9t0 9z" />
    <glyph glyph-name="ordmasculine" unicode="&#xba;" horiz-adv-x="301" 
d="M261 524q0 24 -12 44.5t-31 33t-42 13t-44 -16.5q-51 -41 -75.5 -93t-17.5 -107q3 -21 10.5 -42.5t24.5 -35.5q14 -11 27.5 -15t25.5 -3t23 6t19 13q48 43 74 95t18 108zM216 495q2 -35 -4 -70t-27 -64q-21 -19 -39.5 -18t-32 13.5t-21 31.5t-6.5 36q-3 34 3 68t28 61
q20 18 38.5 17.5t32 -11.5t21.5 -29.5t7 -34.5z" />
    <glyph glyph-name="guillemotright" unicode="&#xbb;" horiz-adv-x="505" 
d="M475 280q-51 42 -110 72t-117 62q-5 -5 -8.5 -11t-8.5 -11q38 -28 72.5 -59.5t66.5 -66.5q-39 -50 -83.5 -93.5t-89.5 -88.5q4 -5 8 -9.5t8 -9.5q35 35 76 63t79 60q15 13 30 25t30 25q11 9 22 16.5t19 19.5zM296 282l-1 5q-48 37 -102.5 65.5t-108.5 56.5
q-5 -7 -10.5 -12t-10.5 -11q35 -26 67 -57t61 -63q-38 -45 -79 -87t-82 -85l20 -20q29 28 61 52.5l64 49t63 50.5t58 56z" />
    <glyph glyph-name="onequarter" unicode="&#xbc;" horiz-adv-x="749" 
d="M719 177l-3 2q-20 -6 -41 -8.5t-42 -2.5q5 50 4.5 99t3.5 99q-6 8 -9 9t-6 1q-54 -62 -105.5 -125t-103.5 -126l3 -4l5 -2q37 1 74 1t74 1q-1 -49 -10 -96.5t-23 -94.5q17 11 34 21.5t37 17.5q6 38 10 77t7 78q16 1 31.5 2.5t31.5 2.5q6 13 14.5 23.5t13.5 24.5zM487 669
q-14 0 -28 0.5t-28 -1.5q-19 -90 -48 -175t-58 -172q-32 -94 -62 -188.5t-69 -186.5q14 -1 27.5 -0.5t27.5 -0.5q23 94 56 183.5t62 181.5q29 91 60.5 179.5t59.5 179.5zM205 220q3 12 -3 21l-4 1h-7q-9 -2 -18 -2t-18 1q-7 36 -8 72.5t0.5 73.5t5.5 74t7 73q4 17 8 34.5
t6 34.5l-6 8h-1l-4 -1q-35 -27 -72 -40q-14 -2 -28 -6.5t-28 -9.5q-3 -7 -3 -15q0 -7 6 -13q15 3 28 8.5t27 10.5h7q4 -11 4 -23t-2 -23q-7 -64 -7 -128t-11 -127q-6 -2 -12 -2t-12 1l-11 2l-11 1l-8 -8v-12l2 -4q10 -2 20 0t20 1q29 -2 58 -3.5t58 -2.5q4 0 7.5 -0.5
t7.5 0.5zM589 296q-2 -32 -4.5 -65t-6.5 -65q-21 -1 -42 -1q-20 0 -41 -1q24 32 47 65.5t47 66.5z" />
    <glyph glyph-name="onehalf" unicode="&#xbd;" horiz-adv-x="736" 
d="M706 90l-5 5q-5 0 -10.5 1t-10.5 2q-9 -6 -10 -16l-2 -20q-24 -16 -53 -17t-57 -5q-6 0 -11.5 0.5t-11.5 0.5q32 43 63.5 86t54.5 92q9 19 13.5 42t1.5 45t-15 39.5t-35 26.5q-29 7 -54 4t-47 -13t-40.5 -25t-32.5 -33q0 -1 -0.5 -2t-0.5 -2q6 -7 13 -11t15 -9l6 3
q1 2 2.5 3.5t2.5 3.5q5 13 16 22.5t24.5 14t27.5 3t26 -10.5q13 -15 19.5 -30.5t7 -30.5t-2.5 -29.5t-7 -27.5q-17 -49 -44 -91.5t-64 -79.5q-11 -11 -25.5 -22t-13.5 -29l5 -3q51 3 100.5 5.5t100.5 -1.5l11 1l3 1q5 11 8 21t6 21q5 17 13 32.5t13 32.5zM487 669
q-14 -2 -27.5 -1t-27.5 -1q-24 -92 -52.5 -182.5t-59.5 -180.5t-62.5 -180t-60.5 -180q13 1 26 0t27 0q26 93 57 183.5t61 181.5t59.5 180t59.5 180zM206 219v10l-3 11l-1 1l-3 1l-7 -1q-8 -3 -17 -2.5t-18 1.5l-2 2q-5 23 -5.5 47t-1.5 48q-2 62 4.5 123t17.5 122q2 8 5 16
t-6 13l-4 -1q-17 -12 -35.5 -22.5t-38.5 -16.5q-14 -3 -28 -6.5t-28 -9.5q-7 -15 3 -28q15 3 29 8t28 11h6q4 -21 1 -46q-7 -64 -6.5 -128.5t-11.5 -127.5q-8 -3 -16.5 -2.5t-16.5 2.5l-20 -5l-1 -10l1 -3l2 -4q10 -2 20 -0.5t20 0.5q29 -2 58 -3t58 -3l12 1h2z" />
    <glyph glyph-name="threequarters" unicode="&#xbe;" horiz-adv-x="814" 
d="M784 177l-4 2q-5 -2 -9.5 -3t-9.5 -3q-16 -2 -31.5 -3t-31.5 -2q6 50 6 99t2 99q-6 8 -9 9t-6 1q-54 -61 -105 -124.5t-103 -126.5l2 -4l6 -2q37 0 73.5 1.5t73.5 0.5q-8 -48 -14 -95.5t-21 -94.5q17 11 34.5 22.5t37.5 16.5q5 38 9 77t9 77q16 1 31.5 3t31.5 2
q5 14 15 24t13 24zM552 669q-14 -1 -28 -1h-27q-48 -186 -110.5 -365.5t-126.5 -359.5q14 1 27 1h28q26 94 57.5 184t61.5 182q29 90 59.5 179t58.5 180zM286 536q0 20 -8 35.5t-20.5 25.5t-28 14t-30.5 1q-20 -2 -38 -7t-35 -16q-15 -13 -32.5 -23.5t-28.5 -27.5
q-2 -10 5 -17.5t16 -9.5q11 10 25.5 23.5t30.5 21.5t32.5 7.5t30.5 -17.5q5 -10 10.5 -20.5t5.5 -22.5q2 -15 -4 -27t-17 -20.5t-24.5 -12.5t-26.5 -3q-12 -2 -23.5 0.5t-22.5 -1.5q-3 -7 -3.5 -13.5t-0.5 -14.5l2 -5q10 -2 15 -2q19 1 40.5 -3t38.5 -14.5t27.5 -27
t8.5 -39.5q1 -14 -3.5 -28.5t-15.5 -25.5t-25.5 -14t-29.5 -4q-31 -2 -54.5 13.5t-45.5 32.5q-20 -15 -27 -35q10 -13 21 -20q20 -15 44 -20t49 -6q41 -2 78.5 15.5t59.5 52.5q14 23 15.5 46t-7 42.5t-24.5 33.5t-37 19q-6 3 -13 3.5t-13 4.5q3 2 5.5 3.5t5.5 2.5
q29 14 50.5 40.5t21.5 59.5zM654 296q-2 -32 -5 -65t-6 -65q-21 -1 -41.5 -1.5t-41.5 -0.5q24 32 47.5 65.5t46.5 66.5z" />
    <glyph glyph-name="questiondown" unicode="&#xbf;" horiz-adv-x="403" 
d="M356 391l-2 3q-42 34 -79 73q-1 0 -1.5 0.5t-1.5 0.5q-10 -10 -18.5 -20t-18.5 -20q-8 -8 -16 -15.5t-15 -17.5q19 -18 39 -34t39 -34l3 -1l4 1q31 31 66 60zM362 -71l-3 3q-8 6 -16 11.5t-18 8.5q-9 -17 -19 -35.5t-23 -34.5t-29.5 -27t-38.5 -11q-17 -1 -33.5 6.5
t-27.5 21.5q-30 36 -27 78.5t27 79t62.5 59.5t80.5 20l4 1l2 2l1 4q-9 77 1 151h-26t-26 -1q1 -32 2.5 -62.5t2.5 -62.5q-29 -14 -57 -30t-54 -35t-48.5 -41.5t-39.5 -50.5q-14 -23 -17 -48.5t3 -49.5t21 -44.5t38 -33.5q39 -16 74.5 -12t66.5 20t56.5 40t45.5 50q5 5 9 11
t6 12z" />
    <glyph glyph-name="Agrave" unicode="&#xc0;" horiz-adv-x="601" 
d="M340 672q-30 45 -59.5 90t-58.5 91h-5q-12 -6 -25 -10t-24 -11v-3q30 -48 67.5 -88t82.5 -74l5 -1l11 2l4 1zM567 5q3 10 -4.5 12.5t-14.5 -2.5l-12 -2l-10 3q-8 8 -10 12t-5 6q-31 63 -50.5 128.5t-39.5 131.5q-24 78 -48.5 155.5t-39.5 158.5q-5 6 -11.5 7.5
t-13.5 -0.5q-14 -25 -24.5 -52t-21.5 -53q-53 -119 -109.5 -233.5t-109.5 -232.5q-3 -11 -7.5 -23t-2.5 -24q23 -8 48 -9.5t49 -5.5q7 -1 15 -3.5t15.5 -3.5t14.5 0t13 6l1 8q-5 8 -13.5 10.5t-16.5 1.5q-17 1 -25 8t-8 17q-1 53 17 104t37 100q45 6 90 10.5t90 13.5
q11 -49 24.5 -97t24.5 -98q5 -17 7 -35t6 -35q6 -14 14 -17.5t17.5 -2t19 5.5t17.5 5q18 5 36.5 8.5t35.5 11.5zM352 281q-38 -1 -76 0.5t-76 6.5q20 54 44.5 106.5t46.5 106.5q16 -55 28.5 -110.5t32.5 -109.5z" />
    <glyph glyph-name="Aacute" unicode="&#xc1;" horiz-adv-x="601" 
d="M444 830q-13 7 -26.5 11t-25.5 12h-6q-6 -20 -18 -37.5t-21 -35.5q-14 -27 -26 -54t-29 -51l-1 -3v-3q12 -3 21 -2q20 21 41.5 39.5t41.5 39.5q8 9 14 20l12 22t13.5 20.5t9.5 21.5zM567 5q3 10 -4.5 12.5t-14.5 -2.5l-12 -2l-10 3q-8 8 -10 12t-5 6q-31 63 -50.5 128.5
t-39.5 131.5q-24 78 -48.5 155.5t-39.5 158.5q-5 6 -11.5 7.5t-13.5 -0.5q-14 -25 -24.5 -52t-21.5 -53q-53 -119 -109.5 -233.5t-109.5 -232.5q-3 -11 -7.5 -23t-2.5 -24q23 -8 48 -9.5t49 -5.5q7 -1 15 -3.5t15.5 -3.5t14.5 0t13 6l1 8q-5 8 -13.5 10.5t-16.5 1.5
q-17 1 -25 8t-8 17q-1 53 17 104t37 100q45 6 90 10.5t90 13.5q11 -49 24.5 -97t24.5 -98q5 -17 7 -35t6 -35q6 -14 14 -17.5t17.5 -2t19 5.5t17.5 5q18 5 36.5 8.5t35.5 11.5zM352 281q-38 -1 -76 0.5t-76 6.5q20 54 44.5 106.5t46.5 106.5q16 -55 28.5 -110.5t32.5 -109.5
z" />
    <glyph glyph-name="Acircumflex" unicode="&#xc2;" horiz-adv-x="601" 
d="M423 670q-25 48 -52.5 93.5t-53.5 93.5q-31 -46 -63 -91t-67 -89l-1 -4l3 -2q3 -2 5.5 -3.5t6.5 -1.5q31 20 58 44t56 46q23 -22 43.5 -46t43.5 -45l4 -1l10 2l5 1zM567 5q3 10 -4.5 12.5t-14.5 -2.5l-12 -2l-10 3q-8 8 -10 12t-5 6q-31 63 -50.5 128.5t-39.5 131.5
q-24 78 -48.5 156t-39.5 159q-5 6 -11.5 7.5t-13.5 -0.5q-14 -25 -24 -52t-22 -53q-53 -118 -109.5 -233.5t-109.5 -233.5q-3 -11 -7.5 -23t-2.5 -24q23 -8 48 -9.5t49 -5.5q7 -1 15 -3.5t15.5 -3.5t14.5 0t13 6l1 8q-5 8 -13.5 10.5t-16.5 1.5q-17 1 -25 8t-8 17
q-1 54 17 104.5t37 100.5q45 5 90 9.5t90 13.5q12 -49 25 -97t24 -98q5 -17 7 -35t6 -35q6 -14 14 -17.5t17.5 -2t19 5.5t17.5 5q18 5 36.5 8.5t35.5 11.5zM352 281q-38 -1 -76 0.5t-76 6.5q20 55 44.5 107.5t46.5 106.5q16 -56 28.5 -111.5t32.5 -109.5z" />
    <glyph glyph-name="Atilde" unicode="&#xc3;" horiz-adv-x="598" 
d="M449 747q-3 8 -7.5 14t-9.5 13q-9 -10 -19 -19t-24 -11q-12 -2 -21.5 2t-18 11.5t-17 15.5t-17.5 13q-18 7 -32.5 5t-26.5 -8.5t-22 -16t-19 -18.5q-7 -7 -15 -13.5t-13 -15.5q3 -6 4 -12t6 -11q16 11 31 23t35 14q10 1 17 -3.5t13.5 -11.5t12.5 -14.5t13 -12.5
q30 -8 51.5 0t38.5 21q11 8 21.5 16t18.5 19zM568 5v10l-7 5l-11 -3l-11 -2h-9q-9 7 -13 11.5t-6 8.5q-30 63 -50 129t-41 132q-25 78 -48.5 155.5t-40.5 158.5q-2 2 -4 3.5t-4 3.5h-12l-4 -1q-14 -26 -24 -52t-22 -52q-52 -119 -109.5 -234t-109.5 -234q-5 -11 -9 -23
t-2 -24q25 -7 50 -8t50 -5q7 -1 14.5 -3t15 -3t14.5 -0.5t13 5.5l-2 8q-4 9 -12.5 11t-16.5 1q-17 1 -24 8t-7 16q-1 27 3.5 53t12.5 51.5t18 50.5t19 50q45 5 90 10.5t90 13.5q11 -50 25 -97.5t25 -97.5q4 -17 7 -35l6 -36q5 -13 13 -16.5t17.5 -2.5t19 4.5t17.5 5.5
q19 4 38 7.5t36 11.5zM352 282q-38 -1 -76.5 0.5t-76.5 6.5q23 54 46 106.5t46 106.5q16 -55 29 -110.5t33 -109.5h-1z" />
    <glyph glyph-name="Adieresis" unicode="&#xc4;" horiz-adv-x="546" 
d="M431 706l-4 6q-16 12 -30 26l-28 28l-5 5q-18 -15 -29.5 -35t-28.5 -36q17 -16 35 -30.5t35 -29.5q1 0 1.5 0.5t1.5 0.5q10 19 26 32.5t26 32.5zM264 712q-14 15 -29 28t-29 28q-2 1 -2.5 2t-2.5 2l-4 -3q-6 -11 -14 -19.5t-16.5 -17t-16.5 -17t-14 -19.5l1 -3
q17 -12 33 -26.5t34 -25.5l2 2q13 19 28.5 35.5t29.5 33.5zM542 15l-7 5l-10 -3l-12 -2h-9q-10 7 -13.5 11.5t-5.5 9.5q-31 63 -50 128.5t-40 131.5q-24 78 -49 156t-40 159q-5 7 -11.5 8t-13.5 -1q-13 -26 -23.5 -52.5t-21.5 -52.5q-52 -119 -110 -234t-109 -235
q-5 -11 -9.5 -23t-3.5 -24q25 -6 50 -8t50 -5q7 -1 14.5 -3t15 -3t14.5 -0.5t13 5.5v8q-4 8 -11.5 10.5t-15.5 1.5q-32 3 -35 23q0 54 17.5 105t36.5 101q45 7 89.5 11.5t89.5 13.5q12 -49 25 -97t25 -98q4 -17 7 -35l6 -36q6 -14 14 -17t17.5 -1.5t19 5t17.5 3.5
q19 4 37.5 7.5t35.5 11.5l5 5q0 2 0.5 5t0.5 5zM326 283q-38 -1 -76 1t-76 7q20 54 44 106t46 106q16 -55 29 -110.5t33 -109.5z" />
    <glyph glyph-name="Aring" unicode="&#xc5;" horiz-adv-x="600" 
d="M396 750q-4 32 -24.5 57.5t-52.5 30.5q-22 1 -39 -6t-28.5 -19.5t-17 -28.5t-4.5 -32q0 -16 5.5 -30.5t16 -26t24.5 -18.5t30 -8q21 -2 39 4t30 17.5t18 27t3 32.5zM568 5v10l-7 5l-10 -3l-11 -3h-10q-9 8 -13 12.5t-6 8.5q-31 63 -50 128t-40 131q-24 78 -47.5 156.5
t-39.5 159.5l-9 7h-12l-5 -1q-14 -25 -24.5 -51.5t-22.5 -52.5q-52 -118 -109 -233.5t-108 -234.5q-5 -11 -10 -23t-2 -24q24 -7 49 -10t50 -4q7 -1 14.5 -3.5t15 -4t14.5 -0.5t13 6v8q-4 9 -12.5 11.5t-17.5 0.5q-17 2 -23.5 9t-7.5 16q-1 27 3.5 53t12 51.5t17.5 50.5
t19 49q45 7 90 11t90 13q12 -49 25.5 -97t24.5 -97q5 -17 7.5 -35t5.5 -36q6 -13 14.5 -16.5t17.5 -2.5t18.5 4.5t16.5 5.5q20 4 38 8t36 12zM361 752q3 -24 -12.5 -36t-34.5 -11.5t-35 13t-14 35.5q-2 17 8 32.5t28 15.5q28 0 43 -15t17 -34zM353 281q-38 -1 -76.5 1.5
t-76.5 6.5q22 54 45 106.5t46 106.5q16 -56 29 -111.5t33 -109.5z" />
    <glyph glyph-name="AE" unicode="&#xc6;" horiz-adv-x="840" 
d="M810 143l-5 10h-10q-8 -5 -11.5 -12t-5 -15.5t-2.5 -17t-4 -15.5q-25 -23 -55 -37t-63 -22t-67 -11.5t-67 -4.5q0 57 5 114l10 114q46 4 90 15t86 31q16 8 32.5 13.5t31.5 16.5v10l-3 3q-18 -2 -36.5 -6t-36.5 -6q-24 -4 -48 -1.5t-48 3.5h-36t-36 2v92t1 92
q0 15 1.5 30.5t-0.5 30.5q31 0 69.5 -4.5t71.5 -18t54.5 -38.5t17.5 -67l3 -5q3 -1 5.5 -1.5t5.5 -1.5l9 6v2q-2 8 -2.5 15.5t-2.5 15.5q2 28 4 55.5t1 55.5q-9 10 -26 12q-57 6 -113.5 7.5t-113.5 3.5q-34 1 -67.5 2.5t-68.5 0.5q-5 -13 1 -23q6 -3 12.5 -2t13 1.5t13 0
t11.5 -5.5l3 -5l-1 -4q-52 -108 -120 -205.5t-146 -187.5q-32 -37 -62 -75.5t-59 -77.5q-4 -7 -8.5 -12t-7.5 -12q0 -2 0.5 -2.5t0.5 -2.5l3 -3l2 -1q1 0 3 -1q37 1 74 -4t74 1l3 3q0 2 0.5 3.5t0.5 3.5l-3 4l-2 2l-11 2l-10 -1q-15 2 -20.5 7.5t-7.5 12.5q18 59 52.5 109
t72.5 98q43 11 86.5 14.5t88.5 8.5q5 1 11 1t11 2q3 -59 0 -117t-16 -115q-2 -13 -11.5 -20.5t-21.5 -6.5q-11 1 -15 1.5t-6 0.5q-11 -5 -13.5 -10.5t-0.5 -10.5l3 -4q13 -3 24.5 0t24.5 2q12 0 24 0.5t24 -1.5q34 0 68.5 -2t68.5 -2q35 0 69 4t67 15q14 14 20.5 33.5
t14.5 38.5q7 17 12.5 33t12.5 33q1 2 1 5t1 5zM458 288q-38 0 -76.5 0.5t-76.5 8.5q43 60 83 121t63 132q5 -66 7 -131t0 -131z" />
    <glyph glyph-name="Ccedilla" unicode="&#xc7;" horiz-adv-x="524" 
d="M490 108q-2 4 -4.5 7.5t-6.5 6.5l-4 1q-11 -8 -20 -17.5t-18 -19.5q-23 -25 -54.5 -37t-64.5 -12q-48 -5 -86.5 14.5t-65.5 53t-40.5 76.5t-11.5 86q-2 48 5 94t25 91q11 27 30 49t43 37t52.5 21.5t57.5 3.5q17 -2 33 -4t31 -10q17 -10 24.5 -27t9.5 -36q0 -11 -1 -22
t-1 -20t3 -15.5t13 -9.5h10l7 17q-2 20 -6 39t0 39q3 19 6.5 37t8.5 36q2 8 2 13q0 1 -0.5 1.5t-0.5 1.5q-17 8 -34.5 12t-35.5 6q-34 3 -68 -2t-65 -20q-54 -26 -97.5 -66.5t-74 -91.5t-45.5 -109t-11 -117q2 -22 5 -44t11 -42q8 -31 25.5 -57.5t41.5 -46.5t53 -33.5
t60 -17.5q-9 -13 -15 -27.5t-12 -28.5q5 -1 11 -1t11 -2q16 -2 28.5 -13t11.5 -28q2 -17 -5.5 -35t-27.5 -21q-26 -4 -43 0.5t-33 10.5q-1 -5 -2.5 -9t-3.5 -9q15 -11 33.5 -20.5t38 -13t38.5 -0.5t36 17q18 19 24.5 41t3.5 42.5t-16 36t-34 21.5q-7 2 -14 3.5t-14 2.5
q2 8 4.5 15.5t5.5 15.5q57 4 107 28t88 66q10 11 21.5 19.5t16.5 22.5z" />
    <glyph glyph-name="Egrave" unicode="&#xc8;" horiz-adv-x="492" 
d="M354 669q-32 47 -62 93.5t-61 93.5h-5q-12 -6 -25 -9.5t-24 -10.5v-4q26 -35 53.5 -68.5t60.5 -62.5q10 -9 21 -17.5t21 -18.5q2 -1 5 -2q4 1 7 1q4 0 8 2zM462 144q-4 6 -4 8h-12l-5 -2q-5 -9 -6.5 -19.5t-3.5 -21t-5.5 -20.5t-13.5 -17q-49 -35 -109 -52t-120 -8
q-5 64 -2.5 127t5.5 127q45 -5 89 2.5t87 22.5q17 6 34.5 11t30.5 18l-5 10q-18 0 -36.5 -3t-36.5 -3q-24 -1 -47 3.5t-48 7.5q-18 2 -37 4t-37 6q2 41 3 81t5 81q1 15 5 29.5t2 29.5q49 0 98.5 -6t89.5 -36q9 -8 16.5 -17.5t7.5 -22.5q0 -5 -0.5 -10.5t-0.5 -10.5l-2 -10
l2 -10l8 -9l12 3q2 10 2.5 20t0.5 20q1 29 10.5 55.5t14.5 54.5q-9 8 -20 9.5t-22 2.5q-48 4 -94.5 4.5t-94.5 -0.5q-48 0 -94.5 -1.5t-94.5 -7.5l-4 -11l3 -7q8 -2 17 -1.5t18 1.5t17 0.5t16 -5.5q10 -67 12.5 -134.5t1 -135.5t-4.5 -136t-4 -135q0 -8 -6.5 -14t-14.5 -5
q-11 2 -16 2.5t-8 1.5l-11 4q-7 -6 -7 -10v-5q9 -12 23.5 -14.5t28.5 -3.5q32 -7 64 -12.5t65 -7.5q48 -4 98 -1.5t95 24.5q11 17 14.5 36.5t9.5 39.5q5 20 12 39.5t9 39.5z" />
    <glyph glyph-name="Eacute" unicode="&#xc9;" horiz-adv-x="492" 
d="M373 828q-11 10 -25.5 13t-25.5 12h-6q-5 -9 -9 -18.5t-10 -17.5q-21 -35 -35.5 -72.5t-40.5 -69.5v-3v-3l16 -3l5 1q86 66 131 161zM462 144q-4 6 -4 8h-12l-5 -2q-5 -9 -6.5 -19.5t-3.5 -21t-5.5 -20.5t-13.5 -17q-49 -35 -109 -52t-120 -8q-5 64 -2.5 127t5.5 127
q45 -5 89 2.5t87 22.5q17 6 34.5 11t30.5 18l-5 10q-18 0 -36.5 -3t-36.5 -3q-24 -1 -47 3.5t-48 7.5q-18 2 -37 4t-37 6q2 41 3 81t5 81q1 15 5 29.5t2 29.5q49 0 98.5 -6t89.5 -36q9 -8 16.5 -17.5t7.5 -22.5q0 -5 -0.5 -10.5t-0.5 -10.5l-2 -10l2 -10l8 -9l12 3
q2 10 2.5 20t0.5 20q1 29 10.5 55.5t14.5 54.5q-9 8 -20 9.5t-22 2.5q-48 4 -94.5 4.5t-94.5 -0.5q-48 0 -94.5 -1.5t-94.5 -7.5l-4 -11l3 -7q8 -2 17 -1.5t18 1.5t17 0.5t16 -5.5q10 -67 12.5 -134.5t1 -135.5t-4.5 -136t-4 -135q0 -8 -6.5 -14t-14.5 -5q-11 2 -16 2.5
t-8 1.5l-11 4q-7 -6 -7 -10v-5q9 -12 23.5 -14.5t28.5 -3.5q32 -7 64 -12.5t65 -7.5q48 -4 98 -1.5t95 24.5q11 17 14.5 36.5t9.5 39.5q5 20 12 39.5t9 39.5z" />
    <glyph glyph-name="Ecircumflex" unicode="&#xca;" horiz-adv-x="492" 
d="M389 665q-26 49 -52.5 96t-54.5 94q-30 -47 -64 -90.5t-65 -89.5l-2 -3l3 -2l10 -5l4 -1q30 21 57 44.5t56 45.5q24 -22 43.5 -46.5t44.5 -45.5l4 -2q4 1 7 1q4 0 8 2zM462 144q-4 6 -4 8h-12l-5 -2q-5 -9 -6.5 -19.5t-3.5 -21t-5.5 -20.5t-13.5 -17q-49 -35 -109 -52
t-120 -8q-5 63 -2.5 126.5t5.5 126.5q89 -7 176 26q16 6 34 11t31 18q-4 6 -4 10q-19 0 -37.5 -3.5t-36.5 -3.5q-24 -1 -47 3.5t-48 7.5q-18 2 -37 4.5t-37 6.5q2 41 3 80.5t5 80.5q1 15 5 30t2 30q24 0 49 -1t49.5 -5t47 -12.5t42.5 -23.5q9 -8 16 -17.5t9 -22.5
q-2 -5 -2 -11v-10l-2 -11l2 -10l20 -5q2 10 2.5 19.5t0.5 19.5q1 29 10.5 55.5t14.5 54.5q-9 7 -19.5 9t-21.5 3q-48 4 -95 4.5t-95 -0.5q-48 0 -94.5 -1.5t-94.5 -7.5l-4 -11l3 -7q8 -2 17 -1.5t17.5 1.5t17 0.5t16.5 -5.5q10 -66 12.5 -133.5t1 -135.5t-4.5 -136t-4 -135
q0 -8 -6.5 -14t-14.5 -5q-11 2 -16 2t-8 1l-11 4q-7 -5 -7 -9v-5q9 -13 24 -15t29 -4q32 -5 63.5 -11t64.5 -8q48 -4 98 -1.5t95 24.5q11 17 14.5 36.5t9.5 39.5q5 20 12 39.5t9 39.5z" />
    <glyph glyph-name="Edieresis" unicode="&#xcb;" horiz-adv-x="492" 
d="M423 740q-16 17 -32.5 32t-30.5 32q-2 2 -3 2.5t-3 2.5q-30 -34 -56 -68l3 -4q19 -12 33.5 -29t33.5 -29l2 1q14 15 26.5 30.5t26.5 29.5zM254 754v2q-17 14 -32.5 29t-31.5 29q-16 -19 -31.5 -38.5t-30.5 -39.5v-2q10 -5 18 -12t16 -14.5t16 -14t18 -10.5l2 1
q12 20 29 35t28 35h-1zM462 144q-2 2 -3 4t-3 4l-11 1l-5 -3q-6 -9 -7 -19.5t-2.5 -21t-5 -20t-13.5 -16.5q-50 -35 -109.5 -52t-120.5 -8q-3 64 -1.5 126.5t4.5 126.5q91 -8 176 26q17 7 34.5 11.5t31.5 17.5q-4 6 -4 10q-19 0 -36.5 -3t-37.5 -3q-24 0 -48 4.5t-48 6.5
q-19 2 -37.5 4.5t-36.5 6.5q2 41 2.5 80.5t5.5 80.5q1 15 4.5 30t3.5 30q48 0 97 -6.5t90 -35.5l16 -18t8 -23q-2 -5 -2 -11v-10q-2 -17 5 -24.5t16 -1.5q2 10 2 19v20q2 29 11 55t14 54q-9 8 -20 10.5t-22 3.5q-46 5 -93 4.5t-95 -0.5t-94 -2t-93 -8l-5 -11l3 -7
q8 -2 17 -1.5t17.5 1.5t16.5 0t16 -5q10 -66 12.5 -133.5t1 -135.5t-5 -136t-4.5 -135q0 -8 -6 -14t-14 -5q-11 2 -16 2.5t-8 1.5l-11 3l-9 -15q11 -12 25.5 -13.5t28.5 -3.5q32 -5 64 -11.5t65 -8.5q48 -4 97.5 -1t94.5 24q13 17 17 36.5t9 39.5t12 39t9 39z" />
    <glyph glyph-name="Igrave" unicode="&#xcc;" horiz-adv-x="270" 
d="M202 664v2q-10 19 -21.5 36.5t-22.5 34.5q-18 29 -35 58.5t-39 55.5q-2 -1 -3 -1t-3 -1q-11 -11 -24.5 -17.5t-22.5 -18.5v-4q36 -38 73.5 -75t78.5 -70l4 -1q10 0 15 1zM239 579l-1 10v1q-15 10 -33.5 9.5t-35.5 1.5q-32 2 -64 3t-64 -6q-4 -3 -7.5 -6t-2.5 -8
q3 -11 12.5 -10.5t20 2.5t19.5 1t12 -14q7 -136 9 -271.5t-12 -271.5q-2 -8 -7.5 -13.5t-13.5 -4.5l-19.5 9t-12.5 4q-2 -1 -2.5 -1.5t-2.5 -1.5q0 -13 7 -21q1 -1 2 -1t2 -1q23 -11 46.5 -15t47.5 -2q21 2 42.5 3.5t39.5 13.5q6 4 10 11t3 15l-2 2q-2 -1 -4 -1q-1 0 -3 -1
q-8 -6 -19.5 -7.5t-19.5 6.5q-8 19 -8.5 33.5t-1.5 28.5q-1 27 -2 54.5t-2 54.5q-2 52 -0.5 103t2.5 103q1 40 2.5 80t8.5 80q2 8 5 16t12 10q14 -1 23.5 -3.5t13.5 5.5z" />
    <glyph glyph-name="Iacute" unicode="&#xcd;" horiz-adv-x="280" 
d="M250 813q-13 10 -25 19t-26 17q-1 1 -2 1t-3 1q-26 -45 -50.5 -90t-47.5 -91v-3q11 -2 14 -2q4 0 6 1q19 22 42 39.5t43 37.5q9 8 14 18t12 19q5 8 12.5 15.5t10.5 17.5zM238 581v11v1q-16 10 -34 8.5t-35 -0.5q-32 2 -64.5 3t-64.5 -7l-8 -7l-2 -7q4 -11 13.5 -10.5
t20.5 3t20 1.5t11 -14q7 -136 9 -271t-12 -271q-2 -7 -7 -13.5t-14 -4.5l-19.5 9t-12.5 5q-2 -1 -2.5 -2t-2.5 -2q0 -13 9 -20q0 -1 1 -1t1 -1q44 -21 95 -19q20 0 41.5 1t41.5 10q14 10 11 25l-2 2h-5q-10 -5 -21.5 -6t-19.5 8q-8 20 -8.5 34.5t-0.5 28.5q-2 27 -2.5 54.5
t-2.5 54.5q-2 52 0 103.5t2 103.5q1 41 2.5 81t8.5 80q1 8 5 16t13 10q14 0 23.5 -2.5t12.5 5.5h-1z" />
    <glyph glyph-name="Icircumflex" unicode="&#xce;" horiz-adv-x="294" 
d="M264 657q-26 51 -51 100.5t-53 98.5q-32 -48 -64.5 -96t-64.5 -97v-3v-2q4 -1 7 -2t6 -1l3 2q27 25 54.5 50t56.5 48q21 -25 45 -48t41 -51l6 -2h7q4 0 7 3zM240 581v11q-17 9 -35.5 8t-35.5 0q-32 2 -64 3t-63 -7l-9 -6l-2 -8q4 -11 13.5 -10.5t20 3t20 1.5t12.5 -14
q6 -136 8 -271t-12 -270q-2 -7 -7 -13t-14 -4q-13 5 -19.5 8t-12.5 5q-2 -1 -2.5 -2t-2.5 -2q0 -13 9 -20q0 -1 1 -1t1 -1q44 -21 95 -19q20 0 41.5 0.5t41.5 8.5q2 2 5 4t5 4l2 11v6l-2 2h-6q-10 -4 -21.5 -6t-19.5 9q-8 20 -9 35t-1 29q-2 27 -2.5 54.5t-2.5 54.5
q-2 52 0 103t2 103q1 41 2.5 81.5t9.5 80.5q1 8 5 15.5t12 10.5q15 -1 24 -2t14 5h-1z" />
    <glyph glyph-name="Idieresis" unicode="&#xcf;" horiz-adv-x="355" 
d="M325 733q-17 17 -32 35t-32 35l-5 5q-19 -13 -30 -32.5t-28 -33.5q17 -17 35.5 -32t35.5 -31h3q13 14 25.5 28t27.5 26zM156 754q-30 26 -59 50q-2 1 -2.5 1.5t-2.5 1.5q0 -1 -1.5 -1.5t-1.5 -1.5q-13 -23 -30.5 -41.5t-28.5 -41.5v-2q19 -6 33.5 -19t32.5 -20l2 1
q13 20 29 37t30 36h-1zM273 586q0 3 -1.5 5.5t-1.5 5.5q-16 9 -34 7t-35 -1q-32 2 -63.5 3t-63.5 -5l-10 -6v-8q4 -11 13 -11q10 0 21 2t20 1t11 -14q8 -137 10 -272t-15 -271q-3 -8 -7.5 -15.5t-13.5 -5.5q-10 3 -14 4t-6 2l-10 1h-2l-5 -5l9 -20l3 -1q23 -6 47 -7.5
t48 -0.5q20 0 41.5 -0.5t41.5 4.5q2 2 5 3t5 3l3 11v5l-3 3h-7q-11 -3 -21.5 -1.5t-18.5 10.5q-8 20 -8.5 35t-0.5 29q-2 28 -2.5 54.5t-2.5 54.5q-2 52 -0.5 104t1.5 104q1 41 3 81t9 80q1 8 4.5 16t12.5 11q15 -1 24.5 -2t13.5 7z" />
    <glyph glyph-name="Eth" unicode="&#xd0;" horiz-adv-x="696" 
d="M609 206q21 48 23 97.5t-12 96.5t-41.5 88t-65.5 71.5t-84 48t-97 16.5q-23 -1 -45 -4.5t-45 -7.5q-68 -11 -136 -15q-3 -1 -5.5 -2t-5.5 -1q-2 -3 -3 -5.5t-2 -5.5q1 -2 1.5 -3.5t1.5 -3.5l9 1l5 -1q8 -2 15 -3t15 -4q8 -11 9 -18t2 -13q3 -51 -1.5 -102t-0.5 -102h-31
q-15 0 -30 3q-5 -13 -10.5 -24.5t-10.5 -24.5q20 2 41 3t41 0v-5q0 -60 0.5 -118t0.5 -118q0 -14 -10 -27t-26 -7q-5 1 -9.5 2t-9.5 2l-2 -2q-3 -13 9 -20q12 -2 24 -3.5t24 -3.5q56 -8 112 -13t112 4q43 7 79.5 29t66 52.5t52.5 67.5t40 75zM520 135q-9 -25 -25.5 -45.5
t-37.5 -35t-46 -22.5t-52 -7q-31 1 -61.5 5t-58.5 19q-9 5 -13.5 14t-4.5 20q-2 17 -3 35t-1 35q-2 35 -1.5 69t-0.5 69q42 1 82 -0.5t82 -3.5l8 26t7 26q-45 -6 -88.5 -5.5t-88.5 0.5q1 40 1 79t5 79q2 20 4.5 40.5t3.5 40.5q58 12 109.5 -2t92.5 -46.5t70 -79.5t42 -100
t7.5 -107.5t-32.5 -102.5z" />
    <glyph glyph-name="Ntilde" unicode="&#xd1;" horiz-adv-x="636" 
d="M460 747q-4 8 -8.5 14t-9.5 13q-18 -23 -43 -30q-12 -2 -22 2.5t-18.5 11t-16.5 14.5t-17 14q-18 7 -33 5t-27 -8.5t-22 -16.5t-19 -18q-7 -7 -14.5 -13.5t-12.5 -15.5q3 -5 4 -11t6 -11q16 11 31 22.5t35 13.5q10 1 17 -3.5t13.5 -11.5t12.5 -14.5t13 -12.5
q30 -8 51.5 0t38.5 21l22 16t19 19zM607 574q-2 4 -2 12l-4 5q-48 5 -96.5 8.5t-97.5 5.5l-9 -4v-10l7 -10l4 -2q13 0 26 0.5t25 -4.5q17 -58 23 -118t5.5 -121t-4.5 -122.5t-7 -121.5q-79 128 -163.5 251t-168.5 248q-5 11 -15.5 18.5t-22.5 -0.5q-8 -56 -7.5 -111.5
t-3.5 -111.5q-2 -46 -2.5 -92t-1.5 -91.5t-4 -91.5t-9 -91q-6 -5 -12 -5.5t-12.5 0.5t-13 2.5t-12.5 0.5q2 -4 2 -8v-8q3 -2 5.5 -3.5t4.5 -3.5q27 -4 53.5 -7t54.5 -6q18 -2 36.5 -4t37.5 -4q3 1 7 0t4 4t0.5 9t-2.5 8q-9 4 -20 5t-22 3t-19 7t-11 17q-11 55 -14.5 110
t-7.5 111q-3 55 -7.5 109.5t0.5 110.5q83 -120 167 -237t159 -242q3 -5 8.5 -10.5t12 -8t12 -0.5t8.5 11q11 36 16 73l10 74q9 75 13 148.5t6 148.5q0 34 1 67.5t6 67.5q3 9 10 11.5t15 2t17 -1.5t15 2z" />
    <glyph glyph-name="Ograve" unicode="&#xd2;" horiz-adv-x="585" 
d="M376 671l-6 8q-32 42 -58 87.5t-56 88.5q-2 0 -3 -0.5t-3 -0.5q-11 -7 -24 -10.5t-24 -10.5q5 -12 12.5 -22.5t15.5 -20.5q26 -36 58.5 -66t67.5 -58h9q5 0 10 2zM545 390q-1 18 -4 35.5t-7 34.5q-10 50 -42 86t-75.5 54.5t-92 16.5t-91.5 -27q-51 -30 -89.5 -71.5
t-63 -90.5t-34.5 -102t-4 -107q2 -23 6.5 -44.5t10.5 -43.5q9 -33 26.5 -64.5t42.5 -56t56 -39t67 -12.5q51 2 93 22.5t75 53.5t57.5 76t40.5 90t23 96t5 93zM467 309q2 -42 -4 -91.5t-24.5 -92t-52 -71.5t-86.5 -30q-40 -1 -75 18.5t-59 51.5q-15 20 -24 43t-14 47.5t-7 50
t-4 49.5q-3 42 4 89.5t28 87.5t56 66t87 25q46 -1 78.5 -24.5t53.5 -59t31 -78t12 -81.5z" />
    <glyph glyph-name="Oacute" unicode="&#xd3;" horiz-adv-x="585" 
d="M446 826q-13 7 -25.5 12.5t-25.5 12.5h-6q-5 -8 -9 -18t-9 -18q-20 -35 -35.5 -70.5t-38.5 -69.5l-2 -3q0 -1 0.5 -1.5t0.5 -1.5q4 -1 8 -1.5t8 -1.5l5 1q8 10 17.5 17t17.5 17q20 20 39 40t33 44q6 10 12.5 20t9.5 21zM545 390q-1 18 -4 35.5t-7 34.5q-10 50 -42 86
t-75.5 54.5t-92 16.5t-91.5 -27q-51 -30 -89.5 -71.5t-63 -90.5t-34.5 -102t-4 -107q2 -23 6.5 -44.5t10.5 -43.5q9 -33 26.5 -64.5t42.5 -56t56 -39t67 -12.5q51 2 93 22.5t75 53.5t57.5 76t40.5 90t23 96t5 93zM467 309q2 -42 -4 -91.5t-24.5 -92t-52 -71.5t-86.5 -30
q-40 -1 -75 18.5t-59 51.5q-15 20 -24 43t-14 47.5t-7 50t-4 49.5q-3 42 4 89.5t28 87.5t56 66t87 25q46 -1 78.5 -24.5t53.5 -59t31 -78t12 -81.5z" />
    <glyph glyph-name="Ocircumflex" unicode="&#xd4;" horiz-adv-x="585" 
d="M449 666q-27 48 -53 95t-53 95q-31 -46 -62 -91t-65 -89q0 -1 -0.5 -1.5t-0.5 -1.5l2 -2q3 -2 6 -3.5t7 -2.5q30 20 56.5 43.5t55.5 45.5q23 -22 45 -44.5t42 -47.5l5 -1h10zM545 390q-1 18 -4 35.5t-7 34.5q-10 49 -42 85.5t-75 55t-92 17t-92 -27.5q-51 -30 -89.5 -72
t-63 -90.5t-34.5 -101.5t-4 -106q4 -43 17 -89q9 -33 26.5 -64.5t42.5 -56t56 -39t67 -12.5q51 2 93 22.5t75 54t57.5 76t40.5 90t23 96t5 92.5zM467 309q2 -42 -4 -91.5t-24.5 -92t-52 -71.5t-86.5 -30q-40 -1 -75.5 18.5t-58.5 51.5q-16 21 -25 44t-13.5 47.5t-6.5 49.5
l-4 50q-3 42 4 89.5t28 87t56 65.5t87 25q46 -1 78.5 -24.5t53.5 -59t31 -78t12 -81.5z" />
    <glyph glyph-name="Otilde" unicode="&#xd5;" horiz-adv-x="588" 
d="M452 743q-5 7 -8.5 14t-8.5 14q-11 -10 -23 -19.5t-28 -8.5q-14 3 -25.5 11t-22 16.5t-22 16t-25.5 10.5q-17 -1 -29.5 -9.5t-23.5 -20t-21.5 -24t-22.5 -21.5l-1 -3q2 -5 3 -10t3 -10l3 -2q13 14 29.5 24t35.5 13q10 0 17 -4t13 -10.5t12 -14t13 -12.5q29 -11 51 -2.5
t40 20.5q11 7 21.5 15t19.5 17zM547 390q-1 18 -3.5 35.5t-7.5 34.5q-10 51 -43.5 87.5t-78.5 54.5t-95.5 14.5t-93.5 -32.5q-48 -32 -84.5 -73.5t-60.5 -89t-33.5 -99t-3.5 -103.5q4 -44 18 -88q9 -33 27 -64t43 -55t56 -38.5t67 -12.5q76 3 132.5 45.5t93 105.5t53.5 137
t14 141zM469 310q4 -42 -1.5 -91t-25 -91.5t-53.5 -71.5t-87 -30q-40 -1 -75.5 18.5t-58.5 51.5q-30 42 -38 91t-11 98q-3 42 4.5 89.5t28 87.5t55.5 66t87 25q46 -1 79 -24.5t54.5 -59t31.5 -78t10 -81.5z" />
    <glyph glyph-name="Odieresis" unicode="&#xd6;" horiz-adv-x="506" 
d="M434 701q-16 16 -32 31t-31 32l-6 4q-15 -17 -28.5 -34.5t-27.5 -34.5l2 -5q19 -11 34 -27.5t34 -28.5l2 1q13 16 25.5 32t27.5 30zM266 712l-2 2q-17 13 -31.5 28.5t-30.5 29.5q-17 -18 -32 -37.5t-30 -39.5l1 -2q19 -11 32.5 -27t33.5 -25l1 1q12 20 29 35t29 35z
M506 390q-2 18 -5.5 35.5t-6.5 34.5q-10 49 -42 85.5t-75.5 55.5t-92 18t-91.5 -28q-50 -31 -88.5 -73t-63.5 -90.5t-35 -101.5t-4 -107q2 -23 6 -45t11 -44q9 -33 27 -64t42.5 -55t56 -38t67.5 -12q51 2 93 22t75.5 53t58 75.5t40.5 89.5t22.5 96t4.5 93zM429 310
q2 -42 -4 -91.5t-24.5 -92t-52.5 -71.5t-87 -30q-41 -2 -75.5 18.5t-58.5 51.5q-16 20 -25 43t-14 47.5t-7 50t-4 49.5q-3 42 4.5 89.5t28.5 87.5t56 66.5t87 25.5q46 0 78.5 -24t53.5 -60t31.5 -78.5t12.5 -81.5z" />
    <glyph glyph-name="multiply" unicode="&#xd7;" horiz-adv-x="367" 
d="M337 80q-32 25 -61 52.5t-58 54.5q29 29 58.5 55.5t60.5 52.5q-13 12 -25 24.5t-25 23.5q-23 -33 -50 -62.5t-56 -57.5q-27 28 -53.5 56.5t-49.5 60.5q-13 -11 -23.5 -23.5t-24.5 -23.5q31 -25 60 -51t56 -55q-29 -28 -58 -54l-58 -52q14 -11 25.5 -22.5l23.5 -23.5
q24 31 49.5 60.5t53.5 56.5q29 -28 56 -57.5t50 -62.5q12 12 24.5 24t24.5 24z" />
    <glyph glyph-name="Oslash" unicode="&#xd8;" horiz-adv-x="594" 
d="M528 209q16 48 21 101.5t-4 104.5t-33 97t-67 79q4 17 12 32t15 31q-10 7 -18.5 14.5t-18.5 13.5q-6 -18 -11.5 -36t-13.5 -35q-16 3 -32 7.5t-33 4.5q-45 -1 -85.5 -18.5t-74 -45.5t-60.5 -64t-46 -73q-24 -47 -31 -99t-4 -104q4 -62 29 -121t76 -97q-8 -17 -14.5 -32.5
t-14.5 -32.5q9 -7 16.5 -15t16.5 -15q6 20 14 38.5t15 38.5q42 -20 89.5 -16.5t87.5 25.5q62 35 104 93t65 124zM440 454q19 -44 28 -92t7 -97t-15 -95.5t-39 -87.5q-21 -25 -51.5 -38t-62.5 -13q-25 0 -49.5 6.5t-44.5 21.5q52 110 97.5 221.5t98.5 221.5q8 -12 17 -23
t14 -25zM378 529q-19 -46 -39 -91l-40 -90q-22 -51 -44 -99.5t-44 -99.5q-7 -17 -13.5 -33.5t-13.5 -33.5q-21 20 -33 44.5t-18.5 51.5t-9 55t-3.5 55q-2 42 6 89t28.5 87.5t55 67t85.5 26.5q25 0 52 -11q9 -2 16 -8t15 -10z" />
    <glyph glyph-name="Ugrave" unicode="&#xd9;" horiz-adv-x="634" 
d="M376 672q-11 17 -22.5 33.5t-22.5 33.5q-18 29 -36 58.5t-38 57.5h-6q-11 -8 -24 -10.5t-24 -10.5v-3q29 -48 68 -88t84 -75l4 -1q4 1 7 1q4 0 8 2zM604 13q-1 1 -1 2t-1 2q-6 2 -12 0.5t-12 -3.5q-15 -1 -24 7t-14 20.5t-6.5 27t-1.5 25.5q-3 91 2 182t14 182
q4 38 9.5 75.5t4.5 75.5q-2 0 -2.5 0.5t-2.5 0.5q-31 -11 -64.5 -10.5t-65.5 4.5q-3 -1 -5 -1t-5 -1q-3 -12 -2 -17t6 -7h10q6 0 11 2q11 0 21 -5t11 -17q5 -100 4 -200t-29 -197q-10 -25 -26 -49.5t-36.5 -44t-45.5 -31.5t-54 -12q-35 0 -59.5 16.5t-41 42.5t-25 57.5
t-10.5 60.5q-4 57 0 112.5t9 111.5q5 48 12.5 94.5t12.5 94.5q-32 -11 -65 -15t-66 -3q-7 -1 -14 -2.5t-10 -7.5v-14q7 -3 16 -1.5t17.5 2.5t14.5 -1.5t8 -13.5q0 -58 -2 -115t-2 -115q0 -36 -1 -72t1 -72q-3 -36 5 -75.5t27 -72t49.5 -54t73.5 -22.5q41 -1 74 15t60.5 41.5
t51.5 56t46 59.5q-5 -35 -7 -70.5t-7 -70.5q-1 -5 1.5 -11.5t9.5 -6.5q16 1 30.5 5t30.5 7q17 3 35 5t35 10q2 2 2.5 3t2.5 3q1 2 1 3q0 2 1 4z" />
    <glyph glyph-name="Uacute" unicode="&#xda;" horiz-adv-x="634" 
d="M433 834q-13 6 -25.5 10t-25.5 11h-6q-5 -9 -9.5 -18.5t-9.5 -18.5q-20 -35 -36 -72.5t-41 -69.5l-1 -4l1 -2q4 -1 8 -1.5t8 -1.5l4 1q8 10 18.5 17.5t18.5 17.5q21 20 40 41.5t33 46.5q7 11 13.5 21t9.5 22zM604 13q-1 1 -1 2t-1 2q-6 2 -12 0.5t-12 -3.5q-15 -1 -24 7
t-14 20.5t-6.5 27t-1.5 25.5q-3 91 2 182t14 182q4 38 9.5 75.5t4.5 75.5q-2 0 -2.5 0.5t-2.5 0.5q-31 -11 -64.5 -10.5t-65.5 4.5q-3 -1 -5 -1t-5 -1q-3 -12 -2 -17t6 -7h10q6 0 11 2q11 0 21 -5t11 -17q5 -100 4 -200t-29 -197q-10 -25 -26 -49.5t-36.5 -44t-45.5 -31.5
t-54 -12q-35 0 -59.5 16.5t-41 42.5t-25 57.5t-10.5 60.5q-4 57 0 112.5t9 111.5q5 48 12.5 94.5t12.5 94.5q-32 -11 -65 -15t-66 -3q-7 -1 -14 -2.5t-10 -7.5v-14q7 -3 16 -1.5t17.5 2.5t14.5 -1.5t8 -13.5q0 -58 -2 -115t-2 -115q0 -36 -1 -72t1 -72q-3 -36 5 -75.5
t27 -72t49.5 -54t73.5 -22.5q41 -1 74 15t60.5 41.5t51.5 56t46 59.5q-5 -35 -7 -70.5t-7 -70.5q-1 -5 1.5 -11.5t9.5 -6.5q16 1 30.5 5t30.5 7q17 3 35 5t35 10q2 2 2.5 3t2.5 3q1 2 1 3q0 2 1 4z" />
    <glyph glyph-name="Ucircumflex" unicode="&#xdb;" horiz-adv-x="634" 
d="M447 669q-25 48 -51.5 93.5t-52.5 93.5q-30 -48 -65 -92.5t-67 -91.5l2 -2l10 -5l3 -1q30 21 57.5 44.5t56.5 46.5q20 -24 43.5 -45t43.5 -46l3 -1q5 1 9 2t8 4zM604 13q-1 1 -1 2t-1 2q-6 2 -12 0.5t-12 -3.5q-15 -2 -24 6t-14 21t-6.5 27.5t-1.5 25.5q-3 91 2 181.5
t14 181.5q4 38 9.5 76t4.5 76q-1 0 -2 0.5t-2 0.5q-32 -11 -65.5 -10.5t-65.5 4.5l-11 -2q-2 -12 -1 -17t6 -7h10q6 0 11 2q11 0 21 -5t11 -18q5 -100 3.5 -200t-28.5 -197q-11 -25 -27 -49t-36 -43.5t-45 -31.5t-54 -12q-35 0 -59.5 16.5t-41 42.5t-25 57t-10.5 60
q-4 57 0 112t9 112q5 48 12.5 95t12.5 95q-62 -21 -131 -19q-7 -1 -13 -2.5t-11 -6.5v-14q7 -3 16 -1.5t17 2.5t14.5 -1.5t8.5 -13.5q0 -58 -2 -115.5t-2 -115.5q0 -36 -1 -72t1 -72q-3 -36 5 -75t27 -71.5t49.5 -54t73.5 -22.5q41 -1 74 15t61 41.5t51.5 56t45.5 59.5
q-4 -35 -6.5 -70.5t-7.5 -70.5q-1 -5 1.5 -11.5t9.5 -6.5q16 1 30.5 5t30.5 7q17 3 35 5t35 10q2 2 2.5 3t2.5 3q1 2 1 3q0 2 1 4z" />
    <glyph glyph-name="Udieresis" unicode="&#xdc;" horiz-adv-x="632" 
d="M455 709q-14 17 -31 30t-31 30q-2 1 -2.5 2t-2.5 2q-16 -17 -30 -35.5t-28 -36.5l3 -5q19 -11 33 -27t33 -27l2 2q13 17 26 33t28 32zM287 713l-1 3q-17 12 -32 26.5t-30 28.5q-17 -17 -32.5 -37t-31.5 -39l1 -2q9 -5 17 -12t15.5 -14.5t15 -14t17.5 -10.5l2 1
q12 20 29.5 35t29.5 35zM602 13q-1 1 -1.5 2t-1.5 2q-6 2 -12 0t-12 -2q-16 -2 -25 6t-13.5 21t-6 27.5t-1.5 25.5q-4 92 2 182.5t14 181.5q3 38 7.5 75.5t2.5 75.5q-1 0 -2 0.5t-2 0.5q-31 -9 -64 -9q-32 0 -64 5q-6 1 -9.5 -2.5t-5 -8.5t0 -10t7.5 -6q5 1 11 1.5t11 1.5
l11 -2q11 -6 15.5 -11t5.5 -10q7 -100 5.5 -200t-29.5 -197q-10 -25 -26 -49t-36.5 -43.5t-46 -31.5t-53.5 -12q-34 -1 -59 15.5t-41.5 42t-25 57t-10.5 60.5q-4 57 -0.5 112.5t9.5 112.5q5 48 13 94.5t15 94.5q-32 -11 -64.5 -15.5t-65.5 -4.5q-7 0 -14 -2t-10 -8
q0 -4 -0.5 -7t-0.5 -7q7 -3 16 -1t17 3t14.5 -1.5t7.5 -13.5q-1 -58 -3.5 -115t-3.5 -115v-73t-2 -73q-2 -36 6.5 -74.5t28 -71t50 -53.5t73.5 -21q41 0 74.5 16t61.5 41t51.5 55.5t45.5 59.5q-3 -35 -6.5 -71t-7.5 -71l-1 -10l7 -8h4q16 2 31 6t30 6q18 3 36 5t35 8
q1 2 2 3t2 3t1.5 3.5t1.5 3.5z" />
    <glyph glyph-name="Yacute" unicode="&#xdd;" horiz-adv-x="585" 
d="M423 830q-11 9 -25.5 12t-25.5 12h-6q-5 -9 -9 -18.5t-9 -18.5q-11 -17 -19.5 -35.5t-16.5 -37t-17.5 -36t-22.5 -33.5l-2 -3q0 -1 0.5 -1.5t0.5 -1.5q4 -1 8 -1.5t8 -1.5l3 1q43 32 76.5 73.5t56.5 89.5zM555 600q-2 2 -4 2.5t-4 2.5q-15 2 -29 -1t-29 -4q-29 -2 -58 0
t-58 2q-3 -3 -6.5 -6t-1.5 -8q6 -10 16 -10.5t21 0.5t21 0t16 -12q-3 -39 -13.5 -76.5t-24.5 -74t-30.5 -72t-32.5 -71.5q-27 77 -53 155t-67 149q-11 18 -30 27t-39 10q-17 0 -33 -5t-33 -9q-13 -3 -25.5 -4t-24.5 -6l-2 -3q0 -2 -0.5 -4.5t-0.5 -4.5q2 -2 3.5 -2.5
t3.5 -2.5q11 -1 21.5 -2t19.5 -7q50 -36 82.5 -87.5t58.5 -105.5q10 -22 21 -44t20.5 -44.5t16 -45.5t8.5 -48q2 -21 -0.5 -42t-3.5 -42q-2 -14 -3 -29.5t-4 -30.5t-9.5 -28t-19.5 -20q-11 0 -21.5 -0.5t-21.5 -3.5q-2 -7 1 -13t10 -8q82 3 165 3h17t17 3q1 5 2.5 8.5
t0.5 8.5q-7 4 -15.5 3.5t-17 -1.5t-15.5 0.5t-11 11.5q-7 57 -7.5 115.5t11.5 115.5q7 32 25.5 58.5t34.5 55.5q25 45 49 90t51 90q10 17 20 32.5t15 34.5z" />
    <glyph glyph-name="Thorn" unicode="&#xde;" horiz-adv-x="517" 
d="M441 418q-11 17 -28.5 28.5t-34.5 22.5q-21 13 -44.5 19t-47.5 7t-48.5 0t-48.5 -1q2 12 2.5 25.5t2 26.5t6.5 24.5t16 19.5q5 -1 10 -1.5t10 -1.5q11 6 13 11t0 10q-16 7 -32 3.5t-33 -3.5q-26 -1 -51 -3t-51 -5l-10 -2l-10 -2q-2 -3 -2.5 -6.5t-2.5 -6.5q1 -2 1 -5
t2 -5l2 -2q6 1 14.5 4t16.5 4t14 -1.5t8 -12.5q-4 -134 -1.5 -266.5t-5.5 -266.5q-1 -2 -2 -5t-2 -5l-6 -7l-9 -2q-14 4 -21 5.5t-13 1.5l-3 -3q-2 -8 2 -14.5t12 -8.5q17 -2 33 -4t33 -4q20 -2 41 -4.5t41 -1.5q15 -1 31.5 -3t30.5 5l2 11l-4 10q-11 2 -21 1t-21 -2
q-16 -1 -24.5 11.5t-12.5 25.5q-5 28 -6 48t-1 39q7 0 13.5 -1.5t13.5 -2.5q32 2 62.5 8.5t59.5 22.5q33 18 62.5 48t47 66t18.5 75.5t-24 75.5zM371 332q5 -33 -3 -67.5t-27 -61.5t-48.5 -42.5t-67.5 -10.5q-10 1 -19.5 1.5t-19.5 3.5q-7 60 -4.5 120.5t3.5 121.5v28t2 28
q18 1 36 1q19 0 37 -3t35 -9.5t32 -18.5q20 -17 31.5 -41t12.5 -50z" />
    <glyph glyph-name="germandbls" unicode="&#xdf;" horiz-adv-x="577" 
d="M547 143q-4 31 -25 51.5t-50.5 35t-62.5 27.5t-59.5 29.5t-42.5 39.5t-11 59q6 20 24.5 36t41 30t46 26t39.5 23q15 7 28.5 17.5t22.5 24t12 29t-2 33.5q-4 22 -16 41t-29 33t-36.5 23.5t-41.5 12.5q-27 4 -52.5 -5.5t-45.5 -28.5q-29 -29 -55 -61t-49 -65
q-12 -17 -24 -35t-27 -33t-33 -24.5t-41 -10.5q-4 0 -7.5 -0.5t-7.5 0.5q-5 -4 -6 -12t7 -8h17t17 -5q6 -15 9 -23.5t2 -16.5q5 -32 1 -63t-6 -63q-3 -45 -8 -89.5t-10 -89.5q-7 -66 -11 -132.5t-15 -132.5q-2 -11 -5 -22.5t-5 -22.5v-1q1 0 1 -1l2 -2q20 2 33 7t27 20
q6 50 14.5 99t13.5 99q6 69 14.5 138t15.5 138q4 42 9 86t14 86.5t25.5 82t44.5 74.5q17 20 39 35.5t49 13.5q18 -2 35.5 -8.5t32.5 -17t25 -25.5t12 -34q-2 -20 -13.5 -33.5t-27 -24.5t-32.5 -20.5t-30 -20.5q-19 -16 -41 -32.5t-40 -34t-29.5 -36t-9.5 -37.5
q-1 -35 16.5 -57t45 -37.5t59.5 -27t60.5 -26t48.5 -34.5t23 -51q3 -32 -24 -53q-15 -11 -37 -15.5t-46 -4t-46.5 6t-38.5 13.5q-13 8 -27.5 18t-16.5 27q1 8 3.5 16.5t4.5 16.5l1 11l-2 10l-11 4l-6 -2q-7 -8 -5.5 -16.5t0.5 -17.5q-2 -24 -10 -46.5t-19 -44.5v-6
q20 -15 44.5 -22.5t48.5 -10.5q39 -5 85 5t86 32.5t67 56t29 76.5z" />
    <glyph glyph-name="agrave" unicode="&#xe0;" horiz-adv-x="476" 
d="M340 506v2q-30 47 -61 92.5t-61 92.5h-6q-9 -7 -20.5 -10.5t-22.5 -6.5l-4 -4l1 -3q23 -36 52 -68t61 -61q11 -10 22 -20.5t24 -17.5q10 2 15 4zM436 23q0 4 1 8t-1 8q-9 -1 -17.5 -4t-16.5 -7q-11 0 -18 5t-11.5 13.5t-7.5 18t-4 17.5q-2 32 -2 56q0 25 2 48
q5 63 13 115t18 103q1 6 4 12.5t5 13.5t1.5 13.5t-4.5 11.5q-11 0 -19.5 -4t-19.5 -6q-39 -2 -78.5 -4t-76.5 -20q-48 -24 -82 -63t-54 -87t-25.5 -101t2.5 -103q4 -26 12.5 -53t35.5 -38q20 -4 38 4.5t32 22.5q21 23 40 47.5t36 51.5q19 29 36.5 60t34.5 63l-6 -39
q-4 -24 -7 -48.5t-6 -49.5q-4 -26 -4 -42t1 -30q2 -20 3.5 -34t14.5 -17q2 1 5 2t5 2q29 11 58 23.5t58 26.5zM327 374q-5 -25 -10 -49t-14 -48q-22 -57 -50.5 -111t-67.5 -102q-8 -8 -17 -15t-21 -5q-18 16 -23.5 31t-7.5 30q-5 60 4 121.5t35 116.5q12 25 36.5 38.5
t51.5 13.5q45 0 84 -21z" />
    <glyph glyph-name="aacute" unicode="&#xe1;" horiz-adv-x="476" 
d="M385 663l-5 6q-11 6 -23 9t-23 11h-5q-23 -45 -47 -89.5t-48 -89.5l2 -2l3 -2q8 -2 12 -2q12 8 21.5 17t20.5 18q20 19 38.5 40t32.5 44q6 10 12 19.5t9 20.5zM436 23q0 4 1 8t-1 8q-9 -1 -17.5 -4t-16.5 -7q-11 0 -18 5t-11.5 13.5t-7.5 18t-4 17.5q-2 32 -2 56
q0 25 2 48q5 63 13 115t18 103q1 6 4 12.5t5 13.5t1.5 13.5t-4.5 11.5q-11 0 -19.5 -4t-19.5 -6q-39 -2 -78.5 -4t-76.5 -20q-48 -24 -82 -63t-54 -87t-25.5 -101t2.5 -103q4 -26 12.5 -53t35.5 -38q20 -4 38 4.5t32 22.5q21 23 40 47.5t36 51.5q19 29 36.5 60t34.5 63
l-6 -39q-4 -24 -7 -48.5t-6 -49.5q-4 -26 -4 -42t1 -30q2 -20 3.5 -34t14.5 -17q2 1 5 2t5 2q29 11 58 23.5t58 26.5zM327 374q-5 -25 -10 -49t-14 -48q-22 -57 -50.5 -111t-67.5 -102q-8 -8 -17 -15t-21 -5q-18 16 -23.5 31t-7.5 30q-5 60 4 121.5t35 116.5
q12 25 36.5 38.5t51.5 13.5q45 0 84 -21z" />
    <glyph glyph-name="acircumflex" unicode="&#xe2;" horiz-adv-x="476" 
d="M395 504l-1 1q-17 31 -35 61t-34 62q-9 17 -18.5 32.5t-19.5 31.5q-30 -46 -61.5 -90.5t-66.5 -87.5l-2 -3l2 -2l10 -5l4 -1q31 20 57.5 43.5t55.5 45.5q23 -22 45.5 -44.5t42.5 -47.5l5 -1l10 1l5 2zM436 23q0 4 1 8t-1 8q-9 -1 -17.5 -4t-16.5 -7q-11 0 -18 5
t-11.5 13.5t-7.5 18t-4 17.5q-2 32 -2 56q0 25 2 48q5 63 13 115t18 103q1 6 4 12.5t5 13.5t1.5 13.5t-4.5 11.5q-11 0 -19.5 -4t-19.5 -6q-39 -2 -78.5 -4t-76.5 -20q-48 -24 -82 -63t-54 -87t-25.5 -101t2.5 -103q4 -26 12.5 -53t35.5 -38q20 -4 38 4.5t32 22.5
q21 23 40 47.5t36 51.5q19 29 36.5 60t34.5 63l-6 -39q-4 -24 -7 -48.5t-6 -49.5q-4 -26 -4 -42t1 -30q2 -20 3.5 -34t14.5 -17q2 1 5 2t5 2q29 11 58 23.5t58 26.5zM327 374q-5 -25 -10 -49t-14 -48q-22 -57 -50.5 -111t-67.5 -102q-8 -8 -17 -15t-21 -5q-18 16 -23.5 31
t-7.5 30q-5 60 4 121.5t35 116.5q12 25 36.5 38.5t51.5 13.5q45 0 84 -21z" />
    <glyph glyph-name="atilde" unicode="&#xe3;" horiz-adv-x="480" 
d="M417 575q-7 6 -10 14.5t-9 14.5q-10 -10 -22.5 -18.5t-27.5 -8.5q-14 3 -25.5 10.5t-22.5 16t-22.5 16.5t-24.5 11q-17 -1 -30 -9t-24 -19.5t-21.5 -23.5t-22.5 -21l-1 -4q2 -10 3.5 -14t2.5 -6l3 -2l3 1l9 8l9 9l2 1q8 6 17 10.5t20 6.5q21 -5 31.5 -14t18.5 -18
q15 -11 29.5 -13.5t28 0t25 8.5t21.5 13q11 8 21.5 14.5t18.5 16.5zM439 39q-9 1 -17 -2.5t-16 -6.5q-11 -1 -18 4t-12 13t-7.5 17.5t-3.5 18.5q-3 33 -2.5 57.5t0.5 47.5q7 63 14.5 115t16.5 102q1 6 3.5 12.5t4.5 13.5t1.5 13t-4.5 11q-11 1 -19.5 -4t-18.5 -5
q-20 -1 -40 -1q-19 0 -38.5 -2t-38.5 -6t-37 -13q-49 -23 -83.5 -62.5t-54.5 -88t-26 -102t3 -104.5q2 -12 5 -26t8 -26.5t13.5 -22.5t22.5 -15q20 -4 38.5 5t32.5 23q22 23 40.5 48t35.5 51q20 30 37 61.5t34 62.5q-2 -10 -3.5 -20t-3.5 -20q-9 -48 -12 -98q-1 -19 -3 -37
t-2 -34t4 -29.5t15 -22.5q2 1 5 2t5 2q29 12 58.5 23.5t58.5 25.5q1 1 1.5 2t1.5 2q1 4 2.5 7.5t-1.5 7.5zM329 377q-6 -50 -24 -98q-21 -57 -50 -111t-67 -102l-8 -8l-9 -8l-20 -4q-19 16 -25 31t-8 30q-5 61 4.5 121t35.5 116q12 26 36 38.5t51 14.5q22 1 43 -4.5
t41 -15.5z" />
    <glyph glyph-name="adieresis" unicode="&#xe4;" horiz-adv-x="480" 
d="M418 535q0 1 -1 1v1q-19 14 -34.5 32t-33.5 33q-16 -16 -28.5 -34t-27.5 -35q17 -16 34.5 -30.5t35.5 -29.5l3 1q12 17 26 31t26 30zM250 546q-14 16 -30.5 30t-31.5 29h-1q0 1 -1 1q-1 -1 -2 -1.5t-2 -1.5q-12 -20 -29 -37t-30 -37l1 -2q18 -11 33 -25.5t33 -25.5l1 1
q14 19 29 35.5t30 33.5zM439 24q0 4 1 7.5t-2 6.5q-9 1 -17 -2.5t-16 -5.5q-11 -2 -18.5 3.5t-12 14t-7 18.5t-3.5 18q-5 32 -3 57t1 48q7 63 13.5 114t17.5 101q3 12 8.5 26.5t-4.5 24.5q-11 1 -19 -4.5t-19 -4.5q-39 -1 -78 -3.5t-75 -19.5q-48 -24 -82.5 -63.5
t-54.5 -87.5t-26 -101t3 -104q2 -12 4.5 -26t8 -26.5t14 -22.5t22.5 -14q20 -4 38 5t31 23q23 21 41 46.5t35 51.5q20 30 37.5 61t34.5 63q-1 -10 -2.5 -19.5t-3.5 -19.5q-4 -25 -7 -49.5t-6 -49.5t-3.5 -41t0.5 -30q2 -20 3.5 -34t14.5 -17q2 1 5 1.5t5 1.5
q29 14 58.5 24.5t57.5 24.5q2 1 2.5 2t2.5 2zM329 376q-5 -25 -10.5 -49t-14.5 -47q-23 -57 -51 -111.5t-66 -102.5q-8 -7 -17 -14.5t-21 -5.5q-18 17 -24 31.5t-8 28.5q-5 60 4.5 122t35.5 117q12 25 36.5 38.5t51.5 13.5q45 0 84 -21z" />
    <glyph glyph-name="aring" unicode="&#xe5;" horiz-adv-x="475" 
d="M367 585q-6 32 -28 58.5t-55 29.5q-21 1 -37 -6t-27 -19t-16.5 -27.5t-4.5 -31.5q1 -32 24 -56t55 -27q21 -2 38.5 3.5t29.5 16.5t18 26.5t3 32.5zM437 24q0 4 1 7.5t-1 6.5q-9 1 -17 -3.5t-17 -5.5q-11 -1 -18.5 4t-12 13.5t-7 18.5t-3.5 18q-5 32 -2.5 56.5t0.5 47.5
q7 63 14.5 114.5t18.5 101.5q1 5 2 10.5t3 10.5l4 10l2 10l-4 11l-2 -1q-10 0 -19 -3.5t-19 -5.5q-39 -1 -78.5 -4t-76.5 -20q-49 -24 -83.5 -63.5t-54.5 -87.5t-26 -100.5t2 -103.5q2 -12 5 -26t8.5 -26.5t14.5 -22.5t22 -15q20 -3 38 5.5t32 22.5q23 22 41 46.5t35 51.5
q19 30 36 61.5t35 62.5q-1 -10 -3 -19.5t-3 -19.5q-4 -25 -7.5 -49t-5.5 -49q-2 -26 -2.5 -42t-2.5 -30q5 -20 6 -34t14 -17q2 1 4.5 2t4.5 2q29 13 59 24t59 26zM333 586q3 -24 -12.5 -35t-35 -9.5t-35.5 13.5t-15 34q-2 17 8.5 31.5t27.5 17.5q28 -3 44 -17.5t18 -34.5z
M327 375q-4 -25 -9.5 -49.5t-14.5 -47.5q-22 -57 -50.5 -112t-68.5 -101q-8 -8 -16.5 -15.5t-20.5 -5.5q-18 16 -24 31t-7 30q-5 61 4 121.5t35 116.5q11 26 36 38t52 14q22 1 43 -5t41 -15z" />
    <glyph glyph-name="ae" unicode="&#xe6;" horiz-adv-x="663" 
d="M621 247l-3 3l-3 1q-15 2 -30 0t-30 -2q-61 -2 -121 0q22 15 51 28.5t54 30.5t41 40t11 57q-4 24 -23.5 38t-42.5 16q-14 1 -28 -1.5t-27.5 -6l-27 -7t-27.5 -4.5q-19 2 -36 11t-34 14q-32 9 -64 -1t-61 -22q-50 -27 -87 -69t-59.5 -93t-29 -107t5.5 -110
q5 -23 15.5 -46.5t34.5 -34.5q32 5 50.5 22.5t34.5 34.5q28 30 52.5 62.5t45.5 67.5q-6 -32 -1 -68.5t21.5 -66.5t44 -48.5t68.5 -14.5q20 2 38.5 7t35.5 16q23 15 47.5 28.5t45.5 31.5l1 4l-11 11q-13 -6 -25.5 -12.5t-26.5 -11.5q-11 -3 -21 -5t-21 -2q-36 -4 -60.5 12.5
t-39 43.5t-19 59t0.5 61q26 3 52 2.5t51.5 -3t51.5 -4.5t52 -2q13 10 25.5 20t26.5 18v1q1 0 1 1zM508 375q-1 -30 -12 -49t-27 -32q-24 -19 -51.5 -31.5t-55.5 -24.5q2 9 3 18t3 18q4 19 9 39.5t13.5 39t21 34t31.5 25.5q28 4 44 -8t21 -29zM331 393q-8 -42 -20.5 -82.5
t-30.5 -78.5q-15 -32 -30.5 -64t-33.5 -63q-12 -16 -23 -33t-31 -25q-15 10 -23.5 21.5t-12.5 24.5t-5.5 26t-2.5 25q3 73 16 136t51 112q14 13 32 18t36 5q20 1 40.5 -4t37.5 -18z" />
    <glyph glyph-name="ccedilla" unicode="&#xe7;" horiz-adv-x="404" 
d="M360 432q2 16 -6 20.5t-18 6.5q-42 9 -81 -2t-72.5 -35t-60.5 -57t-45 -69q-21 -42 -30 -94t-0.5 -99.5t36 -82.5t79.5 -44q-8 -13 -13.5 -26.5t-13.5 -26.5q8 -2 20 -4q23 -2 32.5 -19t7.5 -36t-16 -32.5t-37 -9.5q-14 2 -27.5 6t-25.5 11q-1 -5 -2 -8.5t-3 -7.5
q15 -13 35.5 -23.5t41.5 -14.5t41 1t34 25q17 22 19.5 44.5t-6 41t-25.5 31.5t-39 15l-10 1q2 10 8.5 17.5t8.5 17.5q35 5 65 22.5t59 37.5q8 5 15 9t13 11l2 4l-3 10l-3 3h-4q-22 -11 -43.5 -23.5t-47.5 -11.5q-24 -2 -45 7.5t-36.5 25.5t-25.5 37.5t-13 43.5
q-7 52 -0.5 96t21.5 84q13 32 41 51.5t63 17.5q17 -2 35 -5.5t29 -18.5q4 -17 1.5 -26t-4.5 -17l-3 -12l1 -11l12 -4l5 1q7 4 9.5 10.5t2.5 13.5t-1 14.5t-1 14.5q2 14 5 26.5t7 25.5l6 8z" />
    <glyph glyph-name="egrave" unicode="&#xe8;" horiz-adv-x="410" 
d="M307 506q-30 47 -61 93t-61 93h-6q-9 -7 -20 -10t-22 -8q-2 -2 -3 -2.5t-3 -2.5q31 -49 72 -91.5t88 -77.5q10 2 15 4zM371 244l-4 4q-46 -9 -92.5 -10.5t-93.5 0.5q31 17 62 33.5t58 39.5q21 17 41 40t17 53q0 12 -5 21.5t-14 16t-20 10.5t-22 4q-45 1 -85 -17t-72 -47
q-55 -49 -83 -122q-14 -38 -18 -83t5 -87.5t33 -77t66 -52.5q22 -9 44 -7.5t42 10t38.5 21.5t34.5 27q10 8 20.5 15t14.5 20l-4 8l-8 1q-17 -11 -33.5 -22t-36.5 -13q-36 -4 -64 12t-46.5 42.5t-26.5 59.5t-5 64q20 -1 39 -0.5t39 -0.5q32 -1 63 -4t63 0q14 9 28 18.5
t25 22.5zM269 369q-1 -23 -11.5 -41t-26.5 -32t-35 -25.5t-37 -20.5q-11 -4 -22 -9l-22 -10q2 35 13.5 68t28.5 64q11 16 25.5 28t33.5 16q24 2 38 -9.5t15 -28.5z" />
    <glyph glyph-name="eacute" unicode="&#xe9;" horiz-adv-x="416" 
d="M376 653q-1 2 -2 2.5t-2 2.5q-12 5 -24 11t-23 14q-2 0 -3 0.5t-3 0.5q-17 -26 -29 -54.5t-28 -55.5q-8 -17 -18 -32.5t-19 -32.5l1 -2l8 -2l8 -2q13 6 22.5 15.5t19.5 18.5q29 24 52 53t40 63zM374 242l-5 4q-47 -8 -93 -9.5t-93 1.5q31 17 62.5 33t58.5 39
q22 17 41 40.5t16 53.5q1 25 -18 38.5t-42 14.5q-45 1 -85 -18.5t-73 -47.5q-29 -25 -49.5 -56t-34.5 -66q-15 -38 -18.5 -83t6 -87t34 -76.5t66.5 -52.5q22 -9 43.5 -8t42 9.5t39 21t35.5 26.5q10 8 20 14.5t14 18.5q-2 5 -4 8.5t-7 2.5q-16 -12 -33.5 -22t-37.5 -12
q-36 -3 -64 12.5t-46.5 42.5t-27 60t-5.5 65q20 -2 39 -1.5t39 -0.5q32 -2 63 -4.5t63 -0.5q14 10 28.5 18.5t25.5 21.5zM271 369q-1 -23 -11.5 -41t-26 -32.5t-34.5 -26t-38 -19.5q-20 -10 -44 -18q2 35 13.5 68t28.5 63q10 16 25 27.5t34 16.5q25 2 38.5 -9.5t14.5 -28.5z
" />
    <glyph glyph-name="ecircumflex" unicode="&#xea;" horiz-adv-x="409" 
d="M372 498q-6 11 -12.5 23t-12.5 23q-19 38 -40.5 73t-41.5 72q-32 -46 -65 -90t-66 -89l2 -2q4 -2 7.5 -3.5t7.5 -2.5l3 1q27 23 55.5 44t55.5 44q20 -25 43.5 -47t43.5 -48l5 -2q4 1 8 1t7 3zM371 244l-5 3q-46 -9 -92.5 -10t-93.5 1q31 17 62.5 33.5t59.5 38.5
q21 17 40 40.5t17 53.5q1 24 -18.5 38t-41.5 14q-45 1 -85.5 -17t-72.5 -47q-57 -50 -84 -122q-14 -38 -18.5 -83t5 -87.5t33.5 -77t67 -52.5q22 -9 44 -7.5t42 10t39 21.5t35 27q10 7 20.5 14t13.5 20l-4 8l-7 2q-16 -12 -33.5 -22.5t-37.5 -12.5q-36 -4 -64 11.5t-46.5 42
t-26.5 60t-5 64.5q20 -1 38.5 -0.5t38.5 -0.5q32 -1 63.5 -4t63.5 0q14 9 28 19t25 22zM269 369q-1 -23 -11.5 -41t-26.5 -32.5t-35.5 -25.5t-37.5 -20q-11 -5 -21.5 -9.5t-21.5 -9.5q2 35 14 67.5t28 64.5q8 16 25.5 28t35.5 15t33 -5t18 -32z" />
    <glyph glyph-name="edieresis" unicode="&#xeb;" horiz-adv-x="426" 
d="M386 572q0 1 -1 1v1l-34 32t-31 35h-1q0 1 -1 1q-16 -15 -29 -33t-28 -34q17 -17 34.5 -32t35.5 -30l3 1q12 15 25.5 29.5t26.5 28.5zM218 588q-14 15 -29 28t-30 27q-2 1 -3 2t-3 2l-3 -3q-13 -21 -29.5 -38.5t-30.5 -37.5q15 -14 33 -25.5t34 -25.5l1 1
q14 18 28.5 35.5t31.5 34.5zM374 242l-5 4q-47 -7 -93.5 -8t-93.5 2q32 17 62.5 34t59.5 38q11 8 22 18t19 22t13 25.5t4 28.5q-1 25 -20.5 38.5t-42.5 13.5q-44 1 -83.5 -17t-71.5 -47q-28 -26 -49.5 -57t-35.5 -66q-15 -38 -19 -83t6 -87t34.5 -76.5t66.5 -52.5
q22 -9 44 -7.5t42 9.5t39 20.5t35 26.5q10 6 20 13.5t15 18.5q-2 4 -4.5 7.5t-7.5 2.5q-17 -11 -34 -20t-37 -11q-36 -3 -64 12.5t-47 42t-27 59.5t-5 65q20 -2 39 -1.5t39 -0.5q32 -2 63 -5t63 -1q14 9 28.5 18t25.5 21zM270 371q0 -23 -10.5 -41t-26 -32t-35 -25.5
t-37.5 -20.5q-11 -4 -22 -9t-22 -9q2 35 13.5 69t29.5 63q10 17 24.5 28.5t33.5 15.5q26 2 39 -10t13 -29z" />
    <glyph glyph-name="igrave" unicode="&#xec;" horiz-adv-x="250" 
d="M203 505q-31 47 -60 93t-60 92q-2 0 -3 -0.5t-3 -0.5q-9 -9 -21 -14.5t-21 -14.5q-2 -2 -2.5 -3t-2.5 -3q35 -42 75 -80.5t82 -73.5q9 2 11 2q3 0 3 1zM220 12q-2 2 -3 3.5t-3 3.5l-21 -7.5t-12 -4.5q-12 -1 -18.5 2.5t-10 9t-5 12.5t-2.5 13q-2 91 6.5 180t26.5 178
q6 18 6 37l-4 6l-3 1q-24 2 -47.5 -1t-47.5 -2q-9 0 -19 1t-20 -1l-4 -10l3 -7l3 -4h15q9 0 16 -1.5t12.5 -6t6.5 -14.5q6 -24 3 -48t-3 -48q-2 -51 -5.5 -102t-8.5 -102q-2 -29 -6.5 -58t-4.5 -58q6 -12 17 -16t23.5 -3t25.5 5.5t23 7.5q27 8 50 21l6 6t5 7z" />
    <glyph glyph-name="iacute" unicode="&#xed;" horiz-adv-x="306" 
d="M275 654l-7 6q-11 8 -22.5 14t-22.5 13q-2 0 -2.5 0.5t-2.5 0.5q-25 -45 -48.5 -88t-49.5 -87v-6q9 -3 17 -3q13 7 22 17t20 19q20 18 38.5 37.5t35.5 41.5q5 10 11.5 17.5t10.5 17.5zM213 -5q-2 6 -6.5 8t-10 1t-11.5 -2.5t-10 -1.5q-23 3 -29.5 16.5t-6.5 26.5
q-5 91 3 180.5t26 178.5q3 9 5 19t2 20l-4 5l-3 1q-25 1 -48 -2.5t-48 -2.5q-9 0 -19 1t-20 -1q-2 -5 -2.5 -9t1.5 -9l5 -4h15t15 -1.5t11.5 -6t4.5 -14.5q7 -23 4 -47t-3 -47q-5 -101 -12 -201q-2 -29 -5.5 -56.5t-1.5 -56.5q5 -12 15.5 -16.5t22.5 -4.5q13 0 26 2.5
t24 4.5q12 2 25 4.5t26 5.5q2 2 5 4t5 5h-1z" />
    <glyph glyph-name="icircumflex" unicode="&#xee;" horiz-adv-x="298" 
d="M268 499q-7 12 -13.5 23t-11.5 24q-20 37 -40 73.5t-40 73.5q-32 -48 -67 -94.5t-66 -96.5l3 -1l9 -4h3q29 23 58 47.5t58 48.5q21 -25 42.5 -49t44.5 -47l4 -1h10zM242 6l-5 7q-14 -4 -20.5 -5t-11.5 -3q-23 0 -30 12.5t-7 25.5q-4 91 4.5 180.5t27.5 178.5q2 9 5 18.5
t3 19.5l-5 5l-3 1q-25 2 -48.5 -1t-47.5 -2q-10 1 -20 2.5t-20 -0.5q-2 -5 -2.5 -9.5t1.5 -9.5l4 -4h15q9 0 16.5 -2t12.5 -7t6 -14q5 -24 2.5 -47.5t-2.5 -47.5q-2 -51 -5.5 -102.5t-8.5 -102.5q-2 -29 -6 -58t-4 -58q6 -12 17 -15.5t23.5 -2t25 5.5t22.5 6q13 5 26 8.5
t25 9.5l10 9v2z" />
    <glyph glyph-name="idieresis" unicode="&#xef;" horiz-adv-x="357" 
d="M327 571q-19 17 -35 35.5t-35 35.5q-17 -14 -28 -32.5t-28 -32.5v-2q16 -17 34 -32l36 -30v1q14 14 27 29.5t29 27.5zM157 587l-2 3q-17 11 -30.5 26t-31.5 26q-17 -20 -31.5 -41.5t-31.5 -41.5q7 -6 15 -10t15 -9q9 -7 17 -14t19 -12v1q15 19 31.5 36t30.5 36h-1z
M265 -1q-2 7 -6 8.5t-9 0.5t-11 -2.5t-10 -1.5q-24 1 -31 14t-7 27q-3 91 5 180t26 178q3 9 5.5 18.5t2.5 19.5l-5 5l-3 1q-25 1 -48.5 -1.5t-47.5 -1.5q-10 1 -20 1h-19q-2 -9 -1.5 -12t0.5 -5l5 -4h15t15.5 -2.5t12.5 -7.5t6 -14q6 -23 3.5 -47t-4.5 -48
q-2 -51 -5.5 -102.5t-8.5 -102.5q-2 -29 -6 -58.5t-2 -58.5q6 -11 17 -14t23 -1.5t24.5 5t22.5 5.5q13 4 25.5 6.5t25.5 5.5q2 2 5 4.5t5 4.5z" />
    <glyph glyph-name="eth" unicode="&#xf0;" horiz-adv-x="435" 
d="M378 607l-10 18l-10 18q-18 -7 -35 -16t-35 -14q-15 31 -32 61t-34 59q-24 -3 -46.5 -10t-45.5 -14q29 -28 52 -61.5t42 -68.5q-22 -4 -40.5 -17t-38.5 -21q5 -8 9.5 -16t9.5 -16q19 11 37 22.5t38 19.5q10 -25 22.5 -48.5t20.5 -49.5q-4 -1 -8 -0.5t-8 -1.5
q-43 -8 -81 -31.5t-67 -55.5q-44 -48 -60 -111.5t-8 -126.5q3 -26 11.5 -54t23.5 -51.5t37 -39.5t53 -18q27 -2 51.5 10.5t44.5 30.5q45 42 72 95.5t37.5 112.5t5.5 120t-25 117q-12 34 -26.5 66.5t-30.5 64.5v1q17 9 35.5 16t38.5 10zM306 268q2 -30 2 -61q0 -30 -5 -60
q-3 -21 -9 -41t-15 -36t-22.5 -26t-31.5 -10q-29 0 -48 15.5t-30.5 39t-16.5 51t-7 50.5q-3 33 1 72.5t18.5 73.5t41 56.5t69.5 21.5q10 0 20 -1t18 -6q9 -35 11 -69.5t4 -69.5z" />
    <glyph glyph-name="ntilde" unicode="&#xf1;" horiz-adv-x="454" 
d="M411 574q-5 7 -9 14.5t-10 13.5l-5 -3q-6 -10 -16.5 -14.5t-21.5 -8.5q-16 0 -28 8t-23.5 17.5t-23.5 18t-27 11.5q-17 -1 -30 -9.5t-24 -19.5t-21.5 -23.5t-22.5 -21.5v-3q2 -5 3 -11t5 -11l4 1q6 4 10 9t10 9q13 10 31.5 16.5t32.5 -7.5q17 -18 31 -31t31 -12
q29 2 54 18.5t48 33.5zM424 18q-10 7 -20.5 1.5t-20.5 -6.5q-9 -1 -13.5 3t-7 10.5t-3.5 14t-2 13.5q2 38 7.5 75.5t12.5 74.5q5 30 10 60.5t9 60.5q0 19 2 39.5t0.5 39t-9 33t-25.5 20.5q-29 -5 -52 -23.5t-43 -38.5q-46 -50 -80 -105q-9 -16 -18.5 -32t-20.5 -30
q0 28 4.5 56t10 56t10 55.5t4.5 56.5q-6 5 -13 5.5t-14.5 -2t-14.5 -5t-14 -3.5q-21 -3 -42.5 -6t-43.5 -7q-2 -3 -4.5 -5.5t-2.5 -5.5q5 -10 13 -8l16 4q23 -1 27.5 -13.5t4.5 -23.5q3 -98 -4 -195t-17 -195q18 -3 35.5 -5t34.5 -3q-8 49 -2 96.5t21.5 92.5t40 87t54.5 79
q11 14 22.5 28t29.5 17q11 -1 15.5 -11.5t4.5 -20.5q2 -43 -3.5 -85.5t-10.5 -84.5q-4 -39 -9.5 -78t-13.5 -78q0 -7 -2 -15t-2.5 -16t1 -15.5t7.5 -12.5q15 1 27.5 7t27.5 9q18 5 37 10t36 13z" />
    <glyph glyph-name="ograve" unicode="&#xf2;" horiz-adv-x="433" 
d="M320 507q-31 47 -61.5 92.5t-60.5 93.5h-5q-10 -7 -21.5 -10t-22.5 -8q-2 -1 -2.5 -1.5t-2.5 -1.5v-3q24 -35 53 -68t61 -62q11 -10 21.5 -20.5t24.5 -17.5l11 2l4 1zM391 332q1 24 -7 46.5t-23 40.5t-36 28.5t-46 10.5q-60 -1 -107 -31.5t-78 -78t-44 -104t-7 -110.5
q5 -40 19.5 -78t42.5 -68q22 -17 43.5 -20t42 2t38 17t31.5 25q22 21 41 44.5t36 49.5q31 51 45 109t9 117zM312 272q1 -33 0 -66.5t-9 -66.5q-5 -20 -12 -39.5t-16.5 -35.5t-23 -25.5t-31.5 -10.5q-27 -1 -46.5 13t-31.5 35.5t-18 46.5t-6 48q-1 27 -0.5 54.5t4.5 54.5
t13 53t24 49q8 13 23 20t31 7q27 1 45.5 -12.5t30 -33.5t17 -44.5t6.5 -46.5z" />
    <glyph glyph-name="oacute" unicode="&#xf3;" horiz-adv-x="433" 
d="M366 657q-1 2 -2 2.5t-2 2.5q-12 6 -24 11t-23 13q-2 0 -3 0.5t-3 0.5q-23 -45 -46.5 -88.5t-47.5 -88.5v-2q4 -1 7.5 -3t8.5 -1q13 6 21.5 16t19.5 19q20 19 38.5 38t33.5 42l12 18t10 20zM391 332q1 24 -7 46.5t-23 40.5t-36 28.5t-46 10.5q-60 -1 -107 -31.5t-78 -78
t-44 -104t-7 -110.5q5 -40 19.5 -78t42.5 -68q22 -17 43.5 -20t42 2t38 17t31.5 25q22 21 41 44.5t36 49.5q31 51 45 109t9 117zM312 272q1 -33 0 -66.5t-9 -66.5q-5 -20 -12 -39.5t-16.5 -35.5t-23 -25.5t-31.5 -10.5q-27 -1 -46.5 13t-31.5 35.5t-18 46.5t-6 48
q-1 27 -0.5 54.5t4.5 54.5t13 53t24 49q8 13 23 20t31 7q27 1 45.5 -12.5t30 -33.5t17 -44.5t6.5 -46.5z" />
    <glyph glyph-name="ocircumflex" unicode="&#xf4;" horiz-adv-x="433" 
d="M375 500q-27 48 -54 95.5t-54 95.5q-31 -46 -62.5 -90.5t-66.5 -86.5q0 -1 -0.5 -1.5t-0.5 -1.5l2 -2l9 -5l4 -1q32 19 58.5 43t55.5 46q24 -22 44 -47.5t45 -46.5l4 -2q4 1 7 1q4 0 7 2h1q0 1 1 1zM391 332q1 24 -7 46.5t-23 40.5t-36 28.5t-46 10.5q-60 -1 -107 -31.5
t-78 -78t-44 -104t-7 -110.5q5 -40 19.5 -78t42.5 -68q22 -17 43.5 -20t42 2t38 17t31.5 25q22 21 41 44.5t36 49.5q31 51 45 109t9 117zM312 272q1 -33 0 -66.5t-9 -66.5q-5 -20 -12 -39.5t-16.5 -35.5t-23 -25.5t-31.5 -10.5q-27 -1 -46.5 13t-31.5 35.5t-18 46.5t-6 48
q-1 27 -0.5 54.5t4.5 54.5t13 53t24 49q8 13 23 20t31 7q27 1 45.5 -12.5t30 -33.5t17 -44.5t6.5 -46.5z" />
    <glyph glyph-name="otilde" unicode="&#xf5;" horiz-adv-x="432" 
d="M393 571q-5 7 -9 15t-10 14q-11 -9 -22.5 -16.5t-26.5 -8.5l-11 4l-2 1q-20 10 -36.5 24t-36.5 24q-16 2 -28.5 -2t-22 -11t-18 -16t-15.5 -16q-6 -8 -13 -14t-12 -15q2 -5 3.5 -10t3.5 -10l2 -3l3 2q5 5 10 9.5t10 8.5q8 7 17.5 11t19.5 7q21 -5 31.5 -14.5t20.5 -17.5
q15 -11 28.5 -14t26.5 -1t24.5 8t21.5 12q10 8 21 14t20 15zM388 332q1 24 -6.5 47t-22.5 41.5t-36 29.5t-47 10q-60 -1 -106.5 -32t-77.5 -78.5t-44.5 -104.5t-7.5 -111q5 -40 20.5 -77.5t44.5 -66.5q21 -17 42.5 -20t41.5 2.5t37.5 17t31.5 24.5q23 20 42.5 43.5
t36.5 48.5q29 51 42.5 109t8.5 117zM309 273q2 -33 0 -66t-7 -66q-6 -21 -13 -40.5t-16.5 -35t-23 -25t-31.5 -10.5q-27 -1 -46 13t-31 35.5t-18 47t-7 47.5q-2 54 5.5 108.5t36.5 102.5q8 14 22.5 20.5t30.5 6.5q27 1 45.5 -12.5t30 -34t16.5 -45t6 -46.5z" />
    <glyph glyph-name="odieresis" unicode="&#xf6;" horiz-adv-x="431" 
d="M394 531q-2 2 -2.5 3t-2.5 3q-15 14 -29.5 28.5t-28.5 29.5q-2 2 -3 2.5t-3 2.5q-1 0 -2 -0.5t-2 -0.5q-23 -36 -52 -66q17 -16 34 -31.5t37 -29.5h1q10 17 26.5 29.5t26.5 29.5zM226 546q-15 15 -30.5 29.5t-31.5 28.5h-1q0 1 -1 1q-1 -1 -2 -1t-2 -1q-12 -21 -29 -38.5
t-30 -37.5v-2q18 -11 33 -25.5t34 -23.5l1 1q14 19 29 35.5t30 33.5zM388 333q-1 24 -9.5 47t-23 41.5t-35 29.5t-46.5 10q-60 -1 -106 -32.5t-76.5 -79t-44.5 -105t-8 -110.5q4 -40 20 -77.5t45 -66.5q21 -16 42.5 -19t41.5 2.5t37.5 17t31.5 24.5q22 21 42.5 43t36.5 48
q31 51 42.5 109.5t9.5 117.5zM309 274q2 -33 0.5 -66.5t-8.5 -66.5q-5 -21 -11.5 -40.5t-16.5 -35t-23.5 -25t-31.5 -9.5q-27 -1 -46.5 13t-31.5 35t-17.5 46t-6.5 48q-2 54 5 108.5t36 102.5q21 27 54 27q27 1 45.5 -12.5t29.5 -33.5t16.5 -44.5t6.5 -46.5z" />
    <glyph glyph-name="divide" unicode="&#xf7;" horiz-adv-x="463" 
d="M301 358v3q-19 14 -34.5 30t-34.5 28q-19 -14 -34 -32.5t-33 -33.5v-2v-3q37 -23 67 -52l6 2q13 18 30 31.5t33 28.5zM433 245q-50 -2 -99 -2q-48 0 -97 -1q-48 -1 -94.5 -2.5t-93.5 5.5q-2 -15 -7 -29t-12 -28q49 0 97.5 0.5t96.5 0.5t94.5 1.5t94.5 -2.5q4 15 9 29
t11 28zM301 80q-17 14 -32.5 28.5t-32.5 27.5q-20 -12 -36.5 -30t-33.5 -34l-2 -3l2 -2q20 -11 35.5 -26.5t32.5 -28.5l2 1q14 18 30.5 33.5t33.5 30.5z" />
    <glyph glyph-name="oslash" unicode="&#xf8;" horiz-adv-x="432" 
d="M375 191q8 31 12.5 65t1.5 67.5t-15 64t-38 53.5q5 15 11.5 28.5t12.5 27.5q-13 10 -25 15q-5 -15 -11.5 -29.5t-10.5 -30.5q-26 14 -56.5 11t-55.5 -17q-41 -22 -72 -55.5t-51.5 -74.5t-29.5 -87t-5 -91q3 -37 14.5 -74t39.5 -63q-8 -12 -13.5 -25.5t-11.5 -27.5
q5 -5 12 -8.5t12 -8.5q6 13 9 27.5t12 26.5q26 -14 51 -12t48 13t43.5 29t36.5 37q26 31 47 65.5t32 73.5zM280 378q-27 -54 -52.5 -108.5t-52.5 -108.5q-9 -18 -16.5 -34.5t-18.5 -33.5q-18 41 -19 83q-2 33 0 66.5t11 65.5q5 20 12 39t17 33.5t23.5 24t31.5 9.5
q20 1 36.5 -9.5t27.5 -26.5zM311 194q-4 -26 -9 -52.5t-14.5 -48.5t-25 -37.5t-39.5 -19.5q-20 1 -38.5 8.5t-29.5 24.5q35 72 68.5 143t70.5 142q17 -38 18 -79t-1 -81z" />
    <glyph glyph-name="ugrave" unicode="&#xf9;" horiz-adv-x="469" 
d="M323 506v3q-29 47 -60 91.5t-60 91.5h-6q-10 -7 -21 -10t-22 -7l-5 -5q30 -50 70.5 -91.5t87.5 -75.5l11 2h1zM436 13q-4 11 -15 9.5t-20 -1.5q-16 2 -25 12.5t-13 24.5t-5 29.5t-1 27.5q-2 67 6 133t20 132q3 16 6.5 31.5t5.5 32.5q-17 -1 -35 -1h-34q-6 -84 -29 -164
t-66 -152q-7 -12 -14 -25t-16 -24.5t-20 -20.5t-25 -13q-18 5 -23 22t-6 33q-3 44 0 86.5t11 85.5q8 45 17.5 90t14.5 91l-1 2q0 1 -1 3l-3 2q-11 -2 -20.5 -5.5t-19.5 -7.5q-21 -5 -42.5 -4t-43.5 0l-6 -3q-2 -5 -3 -11.5t4 -10.5l7 -1q15 8 27 -2.5t10 -25.5q2 -25 1 -43
t-2 -35q-2 -54 -6.5 -106t-8.5 -105q-1 -16 -2 -35.5t2.5 -37.5t13 -32.5t28.5 -20.5q16 -2 30.5 6t25.5 18q23 20 41 44.5t34 50.5q20 31 36.5 63.5t33.5 64.5q-2 -32 -6.5 -64t-7.5 -64t-3.5 -64t6.5 -63q3 0 6.5 -0.5t6.5 1.5q12 3 23.5 7t23.5 8q18 6 37.5 10t36.5 12
q2 2 4 5t4 5z" />
    <glyph glyph-name="uacute" unicode="&#xfa;" horiz-adv-x="469" 
d="M370 664l-1 3l-4 3q-11 5 -23 9.5t-23 10.5q-2 0 -3 0.5t-3 0.5q-17 -28 -30.5 -57t-28.5 -58q-9 -17 -18.5 -33t-18.5 -33l2 -2l10 -3l5 -1q13 6 22.5 16.5t20.5 19.5q29 26 51 58t42 66zM436 13q-4 11 -15 9.5t-20 -1.5q-16 2 -25 12.5t-13 24.5t-5 29.5t-1 27.5
q-2 67 6 133t20 132q3 16 6.5 31.5t5.5 32.5q-17 -1 -35 -1h-34q-6 -84 -29 -164t-66 -152q-7 -12 -14 -25t-16 -24.5t-20 -20.5t-25 -13q-18 5 -23 22t-6 33q-3 44 0 86.5t11 85.5q8 45 17.5 90t14.5 91l-1 2q0 1 -1 3l-3 2q-11 -2 -20.5 -5.5t-19.5 -7.5q-21 -5 -42.5 -4
t-43.5 0l-6 -3q-2 -5 -3 -11.5t4 -10.5l7 -1q15 8 27 -2.5t10 -25.5q2 -25 1 -43t-2 -35q-2 -54 -6.5 -106t-8.5 -105q-1 -16 -2 -35.5t2.5 -37.5t13 -32.5t28.5 -20.5q16 -2 30.5 6t25.5 18q23 20 41 44.5t34 50.5q20 31 36.5 63.5t33.5 64.5q-2 -32 -6.5 -64t-7.5 -64
t-3.5 -64t6.5 -63q3 0 6.5 -0.5t6.5 1.5q12 3 23.5 7t23.5 8q18 6 37.5 10t36.5 12q2 2 4 5t4 5z" />
    <glyph glyph-name="ucircumflex" unicode="&#xfb;" horiz-adv-x="469" 
d="M379 505q-15 21 -26 46q-21 35 -41 71t-40 71q-30 -48 -64.5 -92.5t-67.5 -90.5l2 -2q4 -2 7.5 -3.5t7.5 -2.5l3 1q28 23 56 45t55 45q20 -25 44 -45.5t43 -46.5l4 -1q5 0 9.5 0.5t7.5 4.5zM436 13q-4 11 -15 9.5t-20 -1.5q-16 2 -25 12.5t-13 24.5t-5 29.5t-1 27.5
q-2 67 6 133t20 132q3 16 6.5 31.5t5.5 32.5q-17 -1 -35 -1h-34q-6 -84 -29 -164t-66 -152q-7 -12 -14 -25t-16 -24.5t-20 -20.5t-25 -13q-18 5 -23 22t-6 33q-3 44 0 86.5t11 85.5q8 45 17.5 90t14.5 91l-1 2q0 1 -1 3l-3 2q-11 -2 -20.5 -5.5t-19.5 -7.5q-21 -5 -42.5 -4
t-43.5 0l-6 -3q-2 -5 -3 -11.5t4 -10.5l7 -1q15 8 27 -2.5t10 -25.5q2 -25 1 -43t-2 -35q-2 -54 -6.5 -106t-8.5 -105q-1 -16 -2 -35.5t2.5 -37.5t13 -32.5t28.5 -20.5q16 -2 30.5 6t25.5 18q23 20 41 44.5t34 50.5q20 31 36.5 63.5t33.5 64.5q-2 -32 -6.5 -64t-7.5 -64
t-3.5 -64t6.5 -63q3 0 6.5 -0.5t6.5 1.5q12 3 23.5 7t23.5 8q18 6 37.5 10t36.5 12q2 2 4 5t4 5z" />
    <glyph glyph-name="udieresis" unicode="&#xfc;" horiz-adv-x="463" 
d="M399 537l-3 3q-18 15 -34.5 31t-33.5 32q-8 -7 -14.5 -16t-12.5 -18t-12.5 -17.5t-15.5 -15.5v-2q16 -17 34 -31.5t36 -28.5v1q14 16 28.5 30.5t27.5 31.5zM228 546v3q-18 13 -32 28.5t-31 27.5q-17 -19 -32 -39t-31 -39q6 -8 13.5 -13t15.5 -10q9 -8 18 -15.5t20 -13.5
v1q15 18 30.5 34.5t29.5 35.5h-1zM433 13q-5 11 -16 10t-19 -1q-16 3 -24 13.5t-12 24.5t-4.5 29.5t-1.5 27.5q-2 67 5.5 132.5t18.5 131.5q2 16 5.5 31.5t5.5 30.5q-18 0 -35 1t-34 0q-5 -83 -28.5 -162.5t-65.5 -151.5q-7 -12 -14 -25t-16 -25t-20 -21t-25 -13
q-18 5 -23.5 22t-7.5 33q-4 44 1 86.5t13 85.5q8 45 18 90t15 90l-2 2q0 1 -2 3l-3 2q-11 -2 -19.5 -7t-19.5 -6q-20 -7 -42 -6t-43 -2l-6 -2q0 -7 -2 -10l2 -10l2 -2h7q14 8 25.5 -2t9.5 -25q3 -24 1 -42.5t-2 -35.5q-3 -54 -7.5 -105.5t-8.5 -105.5q-1 -16 -1.5 -35t3 -37
t12.5 -32t29 -20q17 -2 29.5 6.5t25.5 18.5q23 19 41 43.5t35 50.5q19 31 36 63.5t34 64.5q-2 -32 -6.5 -63.5t-8 -63.5t-3.5 -64t7 -63q3 0 6.5 -0.5t6.5 1.5q12 3 23.5 6t23.5 8q17 7 36.5 9.5t37.5 10.5q2 2 3.5 5t3.5 5z" />
    <glyph glyph-name="yacute" unicode="&#xfd;" horiz-adv-x="515" 
d="M428 662v3l-4 4l-24 10t-23 13q-2 0 -3 0.5t-3 0.5q-17 -26 -29.5 -55t-27.5 -56q-9 -17 -18 -32t-17 -32l1 -2q10 -4 15 -5q13 6 21.5 15.5t19.5 18.5q29 25 50.5 55t41.5 62zM480 444l-2 5l-7 3q-30 -5 -60.5 -6t-60.5 5q-10 1 -12.5 -6t-0.5 -15l5 -4l8 2q12 3 23 -2
t15 -17q-13 -90 -45 -175t-63 -170q-16 101 -31.5 201t-34.5 200l-3 1q-21 -5 -41 -11.5t-42 -7.5q-10 -1 -21 1.5t-18 -6.5l-1 -11l2 -6l3 -2h6q2 1 4.5 2t4.5 2h6q4 0 7 -1q24 -53 39.5 -109.5t27 -114t21.5 -115t23 -114.5q-10 -28 -22 -55t-25 -53q-9 -15 -17.5 -29.5
t-18 -25.5t-20.5 -17.5t-26 -5.5q-14 1 -26 6.5t-26 7.5q-8 -11 -12.5 -25t-3 -27.5t9 -24t24.5 -14.5q27 0 46.5 14.5t34.5 35.5t27.5 44.5t26.5 42.5q10 19 19 38l18 38q45 94 88.5 188.5t86.5 189.5q17 36 33.5 71t30.5 72z" />
    <glyph glyph-name="thorn" unicode="&#xfe;" horiz-adv-x="428" 
d="M397 337q-2 20 -5 39.5t-9 36t-16 28.5t-27 17q-38 -5 -66.5 -25.5t-51.5 -49t-41.5 -61t-36.5 -61.5q6 72 11 143t12 143q2 32 5 63t6 63q1 14 3.5 29t0.5 29v2h-2v1q-17 -2 -31.5 -10t-31.5 -11q-17 -4 -34.5 -8.5t-35.5 -7.5l-2 -1q-2 -2 -2 -3l-2 -2q0 -5 -1 -9t2 -9
l6 -2l6 2q7 5 14.5 8t15.5 3q11 -8 14 -13.5t3 -11.5q4 -53 2 -104.5t-6 -103.5q-5 -75 -10.5 -150.5t-11.5 -151.5q-2 -28 -1.5 -56t-6.5 -56q-17 -14 -36 -24v-3l2 -3q9 -4 16 -10.5t14 -13.5q-6 -66 -12.5 -131.5t-13.5 -131.5q19 -1 37 -2t35 4q7 126 12 252
q54 0 107 18t89 62q27 34 45 74t26 82q6 32 8.5 63.5t-0.5 63.5h1zM317 218q-1 -30 -6 -66.5t-18.5 -67.5t-38.5 -51.5t-65 -19.5q-26 1 -53 14l-12 6q2 25 3.5 49.5t6.5 49.5q9 60 33 117.5t62 105.5q10 13 22.5 24.5t29.5 13.5q8 -1 13.5 -6t9 -12t5 -14.5t3.5 -14.5
q5 -32 6 -64t-1 -64z" />
    <glyph glyph-name="ydieresis" unicode="&#xff;" horiz-adv-x="513" 
d="M458 574l-1 2q-17 18 -34 35l-34 34q-16 -14 -26.5 -32t-27.5 -32l-1 -1q16 -18 33.5 -33.5t36.5 -30.5h3q11 16 25 29.5t26 28.5zM290 595v2q-17 14 -32 30t-32 29q-17 -18 -31 -37.5t-30 -38.5q6 -8 14 -14.5t16 -11.5l18 -16t20 -14l2 1q14 18 28 35t27 35zM478 443
l-2 5l-7 4q-30 -5 -60.5 -5.5t-60.5 5.5q-10 1 -12.5 -7t0.5 -16l6 -3q2 1 4 1t4 1q11 1 23 -2.5t14 -16.5q-6 -45 -17.5 -88t-26.5 -85.5t-31.5 -85t-31.5 -84.5q-16 100 -31.5 199.5t-34.5 199.5l-3 1q-20 -5 -40.5 -11t-42.5 -8q-10 -1 -20.5 1t-17.5 -7q0 -5 -0.5 -9
t0.5 -9l3 -2l7 1l4 2l4 2q3 -1 7 -0.5t7 -1.5q24 -53 39 -108.5t26.5 -112.5t21.5 -115t23 -114q-13 -24 -23.5 -53.5t-24 -56.5t-33 -48t-49.5 -28q-13 2 -25.5 6.5t-25.5 6.5q-8 -11 -12.5 -25t-3 -27.5t9 -24t24.5 -14.5q27 1 46.5 15.5t34.5 35.5t27.5 45t26.5 43
q10 19 19 38l18 38q46 94 89.5 187.5t85.5 188.5q16 36 32.5 70.5t29.5 71.5z" />
    <glyph glyph-name="OE" unicode="&#x152;" horiz-adv-x="801" 
d="M767 143l-4 9l-11 1q-9 -4 -12 -11t-4 -15t-1.5 -17t-4.5 -16q-24 -23 -54 -37.5t-62.5 -23.5t-66.5 -12.5t-67 -3.5q-2 14 -1 28l2 28q3 50 5 98.5t5 98.5q60 2 117 19t111 43q4 2 7.5 4.5t4.5 7.5l-4 7q-19 0 -37 -3t-37 -5q-42 -3 -83.5 0t-83.5 8q2 56 2 111t5 110
q28 -2 60 -4.5t61.5 -11.5t53 -27t34.5 -49q2 -6 1.5 -12.5t0 -13t3.5 -11.5t11 -6q10 6 8 17.5t-2 21.5q-2 14 -1 28t3.5 27.5t4.5 27.5t1 28q-8 9 -20 10t-23 3q-55 5 -109.5 7t-109.5 1q-11 2 -22 3.5t-22 3.5q-21 2 -42.5 5t-42.5 3q-37 0 -70 -12.5t-62 -33.5t-54 -48
t-46 -54q-42 -54 -61.5 -119.5t-11.5 -133.5q1 -51 21.5 -98t55.5 -82.5t81.5 -56t98.5 -18.5q34 -2 67.5 6t67.5 7q35 0 70 -2.5t70 -2.5q36 0 70.5 3.5t68.5 15.5q10 5 14 14.5t7 19.5q8 27 18 53l20 52q0 2 0.5 5t0.5 5zM408 43q-48 -14 -99 -13t-95 27
q-27 16 -45.5 37.5t-30.5 46.5t-17.5 51.5t-6.5 52.5q-3 11 -2 21t-1 21q-2 56 11 114t53 101q25 27 54.5 39.5t60.5 14t61 -6t57 -19.5q12 -122 10 -243.5t-10 -243.5z" />
    <glyph glyph-name="oe" unicode="&#x153;" horiz-adv-x="666" 
d="M631 242q-1 2 -1 3t-1 3q-46 0 -91.5 -1.5t-92.5 -0.5q32 18 63.5 35t59.5 41q21 13 29 36t4 45.5t-20 38.5t-44 16q-26 3 -49.5 -5t-44 -21.5t-39 -31.5t-34.5 -36q1 19 -5.5 38.5t-19 34.5t-30 23t-39.5 5q-31 1 -58 -9.5t-50.5 -28.5t-43.5 -40.5t-36 -45.5
q-31 -45 -45 -99.5t-6 -108.5q4 -26 13.5 -53t25 -49.5t37.5 -37.5t51 -18q20 -2 39 6.5t36 19.5q20 17 38.5 35t30.5 41q1 -5 2 -10.5t3 -10.5q4 -29 23 -48.5t44.5 -28.5t53.5 -7.5t52 14.5q20 11 37 22t35 22q10 6 19 12t17 13l1 5l-7 7l-4 4q-14 -5 -26 -14t-27 -12
q-24 -5 -49.5 -6t-48.5 10q-32 21 -43.5 48t-16.5 54q-4 28 -1 60q52 2 103 -1t103 -6q14 8 26.5 18.5t26.5 19.5zM498 311q-24 -29 -57.5 -45.5t-67.5 -31.5q2 23 7 45t13 43q5 14 12 29.5t16.5 28.5t22 22t29.5 12q21 -6 32 -18.5t13 -28t-3.5 -31t-16.5 -25.5zM312 264
q1 -30 0 -60t-8 -59q-5 -21 -12 -40.5t-16.5 -34t-23.5 -23.5t-32 -9q-26 0 -45.5 12t-33 31.5t-20.5 43.5t-8 47q-1 30 1.5 66.5t13 69.5t31.5 58t58 32q27 1 45 -11.5t29 -32.5t16 -44.5t5 -45.5z" />
    <glyph glyph-name="Scaron" unicode="&#x160;" horiz-adv-x="485" 
d="M384 833q-4 3 -7.5 5.5t-7.5 5.5q-29 -17 -54 -37.5t-52 -40.5q-22 20 -40.5 43.5t-41.5 42.5q-1 0 -1.5 0.5t-1.5 0.5l-9 -3l-7 -4q23 -46 47.5 -91t51.5 -89q31 42 62.5 83t60.5 84zM452 203q1 30 -13 50t-36.5 33.5t-49 22t-49.5 15.5q-31 10 -64 20.5t-60 26t-45 38
t-20 55.5q-2 34 13.5 56.5t40 34.5t54.5 13t58 -8t49.5 -27.5t29.5 -45.5q1 -10 -2 -19t-2 -19l7 -8q21 3 20 12q-2 37 6.5 73t22.5 70q-35 11 -73 16t-75.5 2t-73.5 -15t-67 -34q-36 -26 -61.5 -65.5t-23.5 -87.5q2 -32 19.5 -57.5t43.5 -41.5q33 -20 70.5 -30t73.5 -21
q24 -8 47 -18t41 -23.5t29 -31.5t10 -42q3 -27 -5 -53.5t-25 -47t-41.5 -31.5t-53.5 -6q-29 6 -55.5 16.5t-48.5 26.5t-37.5 36t-22.5 45q-1 17 0.5 33t3.5 32q-1 1 -1.5 2t-1.5 2q-5 2 -11 3t-11 3q-1 -1 -2 -1t-2 -1q0 -24 -1.5 -48.5t-7.5 -47.5q-5 -14 -10.5 -28
t-6.5 -30q4 -15 16 -24.5t23 -19.5q31 -26 70 -38t78 -10t76 18t66 45q33 34 60 75t30 89q1 4 1 8v8z" />
    <glyph glyph-name="scaron" unicode="&#x161;" horiz-adv-x="393" 
d="M356 663q-5 3 -8 6.5t-8 5.5q-29 -14 -53 -34t-50 -38q-23 21 -43.5 44.5t-43.5 44.5q-4 -2 -7 -3t-7 -2v-1v-2q23 -46 48 -91t51 -90q29 42 62 79.5t59 80.5zM363 444l-3 5q-11 4 -23.5 5t-24.5 2q-37 2 -81.5 -5t-82 -26t-61 -50.5t-20.5 -77.5q2 -30 16.5 -49t36 -33
t46 -25.5t46.5 -25.5t37.5 -33t18.5 -48q0 -15 -5.5 -29.5t-18.5 -24.5q-21 -17 -47.5 -19t-52 6.5t-46.5 26t-31 40.5q3 8 4 15.5t3 15.5l2 9l-4 10l-11 6h-6q-7 -6 -5 -14.5t2 -16.5q-3 -21 -7 -43t-15 -41q3 -8 9 -13t13 -10q28 -21 62 -30t67.5 -5.5t64 20t51.5 46.5
q20 23 33.5 50t15.5 58q-2 30 -16 49t-34.5 33t-45 24.5t-46 23.5t-38 30.5t-21.5 44.5q-2 34 20.5 51t52 19t58 -10.5t38.5 -37.5q-2 -8 -4.5 -14.5t-2.5 -14.5q2 -2 5 -2.5t5 -2.5l11 4v3q0 30 15 56q5 12 12 23t7 25h1z" />
    <glyph glyph-name="Ydieresis" unicode="&#x178;" horiz-adv-x="581" 
d="M472 744q-16 16 -32.5 30.5t-31.5 31.5l-5 4q-16 -16 -29 -34t-27 -35l3 -4q19 -11 33.5 -28t34.5 -28h2q12 17 25 32t27 31zM304 754l-2 3q-17 14 -31.5 28.5t-30.5 28.5q-18 -17 -32 -37.5t-30 -38.5v-2q18 -12 33 -27.5t35 -25.5l2 2q10 20 27.5 34.5t28.5 34.5z
M551 600l-6 6q-15 1 -30 -1.5t-30 -3.5q-29 -2 -57.5 -0.5t-57.5 2.5l-8 -6v-7q5 -11 15.5 -11.5t21.5 1t21.5 0.5t16.5 -13q-3 -39 -13.5 -76.5t-24.5 -74t-30.5 -72t-32.5 -71.5q-27 77 -53 155.5t-67 149.5q-10 17 -28.5 27.5t-38.5 9.5q-17 0 -33.5 -5t-32.5 -10
q-13 -3 -26 -4.5t-25 -6.5q-1 -1 -1 -2l-1 -1v-9l6 -5q11 -1 21.5 -1.5t19.5 -6.5q25 -18 45.5 -40t37 -47t30.5 -51.5t27 -53.5q21 -44 42 -88.5t24 -93.5q2 -21 0 -42l-4 -42q-2 -14 -2.5 -29.5t-3.5 -30.5t-9.5 -27.5t-19.5 -20.5q-11 0 -22 -0.5t-22 -3.5q-2 -6 1 -13
t10 -8q82 3 165 3q19 -3 34 2q1 5 3 9t0 9q-7 5 -15.5 4t-16.5 -2.5t-15.5 0t-11.5 11.5q-7 57 -7 115q0 59 11 116q7 32 25.5 58.5t34.5 55.5q25 45 49 89.5t50 89.5q10 16 19.5 32.5t14.5 34.5z" />
    <glyph glyph-name="florin" unicode="&#x192;" horiz-adv-x="567" 
d="M537 583l-1 2q0 1 -1 3q-14 19 -36 25.5t-45 6.5q-31 -1 -57.5 -16t-49.5 -35q-24 -21 -38 -47.5t-23 -55.5t-14 -59.5t-11 -59.5q-17 0 -32.5 0.5t-32.5 1.5q-3 -11 -9 -19.5t-12 -16.5q20 2 40.5 2.5t40.5 0.5q-11 -58 -23 -115.5t-23 -115.5q-11 -60 -23 -119
t-23 -119q-3 -17 -4.5 -34.5t-6.5 -34.5q-6 -21 -13 -39.5t-25 -19.5q-21 5 -37 19.5t-34 25.5q-5 -14 -7.5 -29t-6.5 -29q2 -2 2.5 -3t2.5 -3q17 -14 36.5 -16.5t38 3.5t34 19.5t24.5 31.5q33 68 55.5 139.5t40 144.5t32 147t31.5 147q29 0 57 -1t57 -4q3 9 7.5 17.5
t8.5 17.5q-32 0 -63.5 1.5t-63.5 -1.5q6 32 12 63t14 62q7 18 13 37.5t14.5 35.5t21 26t32.5 10q25 -4 41.5 -22t32.5 -35q6 15 12 30.5t14 29.5z" />
    <glyph glyph-name="circumflex" unicode="&#x2c6;" horiz-adv-x="284" 
d="M254 500q-4 11 -7.5 20.5t-6.5 20.5q-16 36 -35.5 69.5t-38.5 67.5q-15 -23 -33 -44.5t-36 -42.5t-35.5 -42.5t-31.5 -45.5l2 -2q4 -2 7.5 -4t6.5 -4q29 20 56.5 42t56.5 44q18 -22 39 -41.5t35 -44.5q1 0 1.5 -0.5t1.5 -0.5q5 2 9.5 3t8.5 5z" />
    <glyph glyph-name="tilde" unicode="&#x2dc;" horiz-adv-x="340" 
d="M310 572q-8 12 -20 24q-12 -10 -24.5 -20.5t-29.5 -11.5q-14 3 -26 9.5t-23 14.5t-22.5 15t-24.5 11q-32 -6 -59 -26.5t-50 -42.5v-3q5 -13 14 -22l4 1q11 14 26.5 22.5t33.5 9.5q10 1 17.5 -3.5t14 -11.5t12.5 -14.5t13 -13.5q16 -4 29 -2.5t24.5 6t21.5 10.5t20 11
q14 8 26.5 17t22.5 20z" />
    <glyph glyph-name="endash" unicode="&#x2013;" horiz-adv-x="564" 
d="M512 254q-54 -5 -107 -3.5t-107 1.5q-55 0 -109.5 -1t-109.5 3q-7 -5 -15.5 -12t-13.5 -15t-5.5 -17t7.5 -18q6 0 11.5 2t11.5 0q51 -1 101 -1h102t102 1.5t102 -3.5q7 4 16 11t15 15.5t6.5 18t-7.5 18.5z" />
    <glyph glyph-name="emdash" unicode="&#x2014;" horiz-adv-x="713" 
d="M650 254q-69 -2 -138 -2h-137q-72 1 -143 0t-143 2q-9 -3 -18.5 -10t-15.5 -16t-5.5 -19t12.5 -17q5 0 10.5 2t10.5 0q66 0 131 -0.5t131 -0.5q69 0 137.5 1.5t137.5 -3.5q9 3 19.5 10.5t17 16.5t6.5 18q0 10 -13 18z" />
    <glyph glyph-name="quoteleft" unicode="&#x2018;" horiz-adv-x="228" 
d="M198 589q-10 18 -19 19q-38 -48 -76 -94.5t-73 -96.5v-6l3 -1.5l3 -1.5q20 -2 39.5 -4t39.5 0l9 18q18 37 35 73.5t32 74.5q6 9 6 19h1z" />
    <glyph glyph-name="quoteright" unicode="&#x2019;" horiz-adv-x="231" 
d="M201 604q-22 5 -45.5 7t-44.5 -7q-20 -47 -42.5 -91.5t-38.5 -92.5q2 -1 2 -2t2 -2q4 -3 7.5 -5.5t8.5 -4.5l3 1q19 18 32 39.5t30 41.5q20 25 40.5 50t40.5 51l3.5 7t1.5 8z" />
    <glyph glyph-name="quotesinglbase" unicode="&#x201a;" horiz-adv-x="230" 
d="M200 67v4q-2 1 -2 3q-22 3 -43 5t-42 0q-22 -47 -46 -93t-37 -97l2 -2q0 -1 2 -3q9 -9 19 -9q17 20 31 40.5t31 40.5q23 27 44 55t41 56z" />
    <glyph glyph-name="quotedblleft" unicode="&#x201c;" horiz-adv-x="363" 
d="M333 595q-4 4 -4 5q-6 3 -13.5 6.5t-12.5 -3.5q-29 -52 -67 -98t-73 -94v-5v-2l6 -2q20 1 39.5 -0.5t39.5 3.5q3 5 6 9.5t5 9.5q23 41 44.5 82.5t29.5 88.5zM199 600l-3 6q-4 2 -7 4t-8 2q-11 -5 -15 -15q-14 -18 -27.5 -35t-27.5 -35q-21 -27 -44.5 -54t-36.5 -60l3 -2
q20 -5 41 -5q22 0 43 -1q20 49 43 96.5t40 98.5h-1z" />
    <glyph glyph-name="quotedblright" unicode="&#x201d;" horiz-adv-x="362" 
d="M331 603q0 1 -1 1v1q-21 3 -42.5 4.5t-42.5 -0.5q-15 -44 -34.5 -85.5t-37.5 -83.5l-9 -21q-2 -8 4 -12t13 -5q1 0 1.5 0.5t1.5 0.5q18 21 34 43t34 43q20 24 39.5 49t36.5 52q4 8 3 13zM201 611q-21 1 -42.5 1.5t-42.5 -3.5q-27 -45 -52.5 -91t-32.5 -98q1 -1 1.5 -2
t1.5 -2q5 -2 8.5 -4.5t8.5 -4.5q1 0 2 0.5t2 0.5q14 20 26.5 41t27.5 40q22 26 43.5 52t41.5 53l4 8t3 9z" />
    <glyph glyph-name="quotedblbase" unicode="&#x201e;" horiz-adv-x="363" 
d="M333 67q0 1 -1 2t-1 2q0 2 -2 3l-42 4t-42 0q-20 -49 -42 -97t-41 -98l4 -6q9 -6 19 -6q19 20 34.5 42.5t33.5 43.5q21 26 42 53.5t38 56.5zM201 77v3q-22 -1 -43.5 0t-42.5 -2q-27 -45 -52 -91t-33 -98q4 -4 4 -5q8 -4 11 -6q3 -1 5 -1q3 0 6 -1q13 20 25 41t27 40
q23 29 47 56.5t46 58.5v5z" />
    <glyph glyph-name="dagger" unicode="&#x2020;" horiz-adv-x="552" 
d="M522 354q-32 5 -65.5 3.5t-65.5 -0.5q-20 1 -39.5 1.5t-39.5 0.5q6 60 5 120.5t1 120.5q-18 8 -36.5 15.5t-36.5 15.5q2 -68 4.5 -135.5t0.5 -136.5q-49 -1 -97 -1t-97 -2q-5 -17 -12.5 -32t-13.5 -31q55 8 109 8q55 0 110 1q0 -131 -3.5 -259.5t-12.5 -258.5
q18 -5 36.5 -9.5t35.5 -11.5q-7 67 -7.5 134.5t2 135t6.5 134.5t7 135q47 -2 92.5 -3.5t92.5 -4.5q1 17 7.5 31.5t16.5 28.5z" />
    <glyph glyph-name="daggerdbl" unicode="&#x2021;" horiz-adv-x="579" 
d="M549 355q-29 3 -57 2t-57 0q-24 1 -48.5 2.5t-48.5 -0.5q8 60 11 120.5t6 120.5q-19 7 -36 15.5t-36 15.5q1 -68 -0.5 -135.5t-6.5 -135.5q-49 2 -97.5 0.5t-97.5 -1.5q-7 -17 -14.5 -33t-15.5 -32q55 4 110 6.5t111 1.5q-3 -48 -6 -94.5t-8 -94.5q-51 2 -100.5 2.5
t-99.5 5.5q-7 -15 -13.5 -30t-14.5 -29q56 -4 111 -5.5t112 0.5q-11 -137 -24 -273q19 -4 36.5 -9.5t35.5 -11.5q-7 74 0.5 147t11.5 147q47 1 92.5 0t91.5 1q4 18 13 33t18 31q-29 -1 -56.5 -4t-56.5 -4q-25 -1 -49 -1h-49q5 48 9.5 94.5t9.5 94.5q47 0 92.5 -2t92.5 -6
q4 34 28 61z" />
    <glyph glyph-name="bullet" unicode="&#x2022;" horiz-adv-x="244" 
d="M213 321q-1 1 -8 6.5t-17.5 14.5t-18.5 17t-17 20t-14 19.5t-6 8.5q-1 -1 -7 -8.5t-16.5 -19.5t-19.5 -20q-10 -9 -24 -18.5t-23.5 -14.5t-10.5 -6q1 -1 7.5 -5.5t17 -12.5t17.5 -15q9 -9 19 -22t15.5 -21.5t6.5 -9.5q1 1 7 10t17 22.5t21 22.5q9 8 22.5 15.5t22 11.5
t9.5 5z" />
    <glyph glyph-name="ellipsis" unicode="&#x2026;" horiz-adv-x="939" 
d="M909 67l-1 2q0 1 -1 3q-22 14 -45 27t-46 24q-2 1 -5 2t-5 2l-2 -1q4 -11 1.5 -20t-8.5 -17t-13.5 -16t-13.5 -15l1 -2l23 -23t10 -30v-4q1 0 2 0.5t2 0.5q27 14 53.5 29t47.5 38zM540 67l-2 5q-18 14 -33.5 29.5t-34.5 28.5q-17 -20 -35.5 -37t-35.5 -36l2 -2
q17 -17 35 -29.5t34 -29.5l3 1q16 19 34 35t33 35zM168 66l-1 5q-12 11 -21 25.5t-13 30.5q-28 -14 -55.5 -29.5t-47.5 -40.5l5 -5q21 -15 44 -26t46 -23q2 -1 4.5 -2t4.5 -2l1 1q-5 20 7.5 36.5t25.5 29.5z" />
    <glyph glyph-name="perthousand" unicode="&#x2030;" horiz-adv-x="1126" 
d="M1091 246q2 21 -3.5 41.5t-17 37.5t-29 28.5t-39.5 13.5q-56 0 -94.5 -24t-59.5 -60q-49 -84 -55 -179q-2 -20 1 -44.5t12.5 -44.5t26.5 -32.5t44 -9.5q24 3 46.5 12t41.5 24q30 19 53 45.5t39 57.5t25 65t9 69zM743 243q3 23 -3.5 46.5t-21 41.5t-35.5 28.5t-47 9.5
q-50 -3 -86 -29.5t-59 -66t-33 -86t-9 -89.5q-2 -24 5 -49.5t21.5 -45.5t36 -30.5t49.5 -4.5q55 12 93.5 47.5t58.5 79.5q16 35 23 72.5t7 75.5zM571 700q-14 -2 -27 -1.5t-27 -1.5q-24 -65 -50.5 -129.5t-54 -128t-54.5 -127.5t-51 -129q-26 -71 -50 -141.5t-44 -142.5
q14 0 26.5 -1.5t26.5 -0.5q18 91 47.5 178.5t65 173t74 170t73.5 169.5q11 28 22.5 56t22.5 56zM331 497q2 29 -5.5 59t-31.5 49q-31 17 -58.5 12.5t-50.5 -15.5q-72 -45 -109.5 -112t-40.5 -139q-1 -19 3 -39t13 -37t23.5 -30t34.5 -18q54 -7 93.5 14.5t65.5 53.5
q34 42 47 95t16 107zM1024 209q-3 -25 -7 -54.5t-14 -56t-27 -47t-46 -27.5q-23 -2 -37.5 9.5t-22 29.5t-9.5 39t0 39q2 22 4.5 45t7.5 45t15 42t27 36q27 11 48.5 4t35.5 -23.5t20.5 -39t4.5 -41.5zM675 205q-2 -25 -3.5 -49t-6.5 -48q-5 -17 -10.5 -33.5t-13.5 -29
t-19 -21t-26 -8.5q-23 0 -39 11.5t-26 29.5t-13.5 39.5t-2.5 40.5q1 22 2.5 46.5t7 47.5t16 44t28.5 37q28 9 48 1t33.5 -25.5t19.5 -40.5t5 -42zM263 459q-1 -25 -3.5 -48.5t-8.5 -47.5q-9 -35 -23.5 -63t-45.5 -29q-23 0 -39 11t-26 28t-13.5 38t-1.5 41q2 22 6 45.5
t11 46t19 42t31 34.5q27 11 46 4t30.5 -24t16 -38.5t1.5 -39.5z" />
    <glyph glyph-name="guilsinglleft" unicode="&#x2039;" horiz-adv-x="330" 
d="M300 387l-9.5 9.5t-8.5 9.5q-31 -26 -63.5 -50.5l-65 -49t-64 -50.5t-59.5 -55q46 -44 104 -74t114 -58q4 7 9.5 12.5t9.5 12.5q-37 26 -70.5 56t-62.5 65q39 46 81 88t85 84z" />
    <glyph glyph-name="guilsinglright" unicode="&#x203a;" horiz-adv-x="331" 
d="M301 285q-51 38 -106.5 69t-113.5 57q-4 -6 -8.5 -12t-9.5 -12q38 -27 70 -58t64 -63q-37 -48 -80.5 -89t-86.5 -83q5 -5 9 -10t9 -10q52 42 104.5 81t103.5 83q11 9 22 16.5t21 18.5q0 3 1 6t1 6z" />
    <glyph glyph-name="trademark" unicode="&#x2122;" horiz-adv-x="697" 
d="M667 396q-9 0 -14 1l-10 1l-8 5l-5 8q2 8 2.5 15.5t2.5 15.5q8 41 7.5 82t-8.5 82q-1 5 -1.5 10t-1.5 10l2 9l5 8l9 2l6 1h14q-2 5 -4.5 10t-4.5 10q-28 2 -55 3t-55 3q-1 -52 -16 -102t-33 -98q-15 52 -33 102.5t-38 100.5h-110q0 -5 -0.5 -10.5t-0.5 -10.5l11 -1l10 -1
h1q6 -1 12.5 -3.5t9.5 -8.5q1 -7 1.5 -13.5t0.5 -13.5v-177q0 -16 -8 -29.5t-24 -17.5l-11 -1l-3 -1v-11q0 -5 1 -10q28 1 55.5 0t54.5 1q1 5 1 10q0 6 1 11l-15 3q-16 3 -21.5 18t-5.5 29q2 51 1.5 100.5t-2.5 100.5q21 -68 44 -134.5t31 -137.5h12q32 66 60 135t36 143
q14 -50 15 -101.5t-6 -102.5q-2 -17 -9 -32q-5 -8 -13 -11l-16 -6q-5 -1 -9 -1q-3 0 -8 -1q-2 -5 -2.5 -10.5t-2.5 -10.5q35 1 69.5 2.5t69.5 4.5q2 5 4.5 10t4.5 10zM299 559q-2 29 -1 58t0 58q-59 -2 -117 -3t-116 -6q-13 -26 -22 -53t-13 -56h21q4 7 7 13.5t7 12.5
q13 26 32 45q24 19 52 22q-13 -51 -15 -103.5t5 -104.5q1 -6 1 -15q0 -8 -2 -15.5t-6.5 -12.5t-13.5 -5l-9 -1h-4q2 -5 3 -10t3 -10q35 -3 70 -3.5t70 -2.5q-1 5 -2 10.5t-1 10.5q-5 1 -9 1t-9 2q-9 1 -16.5 5.5t-11.5 12.5q-3 8 -4 16l-2 16q-5 53 -3.5 105.5t10.5 105.5
q14 -2 27.5 -7t21.5 -18q5 -9 9.5 -18t6.5 -20q2 -8 4 -15t5 -15h22z" />
    <glyph glyph-name="minus" unicode="&#xe000;" horiz-adv-x="467" 
d="M416 244q-45 -2 -89 -1.5t-89 -0.5q-43 -1 -86 -3t-85 5q-14 -8 -22.5 -25t5.5 -31q44 1 87 1h87q43 0 86 2t86 -3q7 4 14 10.5t11 14t3.5 16t-8.5 15.5z" />
    <glyph glyph-name="notequal" unicode="&#xe001;" horiz-adv-x="546" 
d="M516 307q-60 -2 -118 -2.5t-118 -1.5q12 23 24 44.5t23 44.5h94t94 -1q0 11 -0.5 23t-1.5 23q-40 2 -79.5 3t-79.5 2q17 34 32.5 67.5t29.5 68.5q-11 7 -22.5 12.5t-22.5 12.5q-17 -42 -35.5 -82t-38.5 -79q-66 0 -132 -0.5t-132 -4.5q-1 -12 -1.5 -23.5t-0.5 -23.5
q120 3 241 3q-13 -22 -24.5 -44.5t-24.5 -44.5h-97q-48 0 -96 2q1 -12 1.5 -23.5t0.5 -23.5q40 -2 79.5 -3.5t79.5 -1.5q-17 -36 -34.5 -72.5t-31.5 -74.5q12 -5 23.5 -12t22.5 -13q17 45 38.5 86.5t42.5 84.5q66 0 131 1t131 5q1 12 1 24t1 24z" />
    <glyph glyph-name="infinity" unicode="&#xe002;" horiz-adv-x="836" 
d="M798 330q-3 40 -20.5 71t-44.5 53t-59.5 34t-64.5 14q-31 1 -57.5 -9t-50 -27.5t-44 -39t-38.5 -42.5q-29 33 -64.5 60t-74.5 47q-26 10 -51 10q-24 0 -46.5 -6.5t-43 -18.5t-38.5 -25t-32 -31t-22.5 -38.5t-8.5 -42.5q0 -21 11 -42q27 -53 74.5 -82t99.5 -31
q30 -1 57.5 9.5t52 27.5t46 38.5t40.5 42.5l41.5 -41.5t45.5 -39t51 -28.5t58 -9q31 1 61 12.5t55 30.5t43 45t24 58zM705 416q23 -16 31 -39.5t4 -48t-19 -45.5t-39 -31q-36 -15 -68 -10.5t-60 20t-52 38.5t-44 44q16 19 34 38t38 34t43.5 23.5t50.5 7.5q22 -2 43 -9
t38 -22zM383 343q-18 -19 -37.5 -38t-41.5 -34t-46.5 -24.5t-52.5 -8.5q-20 0 -39.5 8t-34.5 21.5t-25 31t-11 38.5q7 52 41 80.5t75 29.5q19 1 37 -4t35 -13q28 -18 52.5 -40.5t47.5 -46.5z" />
    <glyph glyph-name="lessequal" unicode="&#xe003;" horiz-adv-x="562" 
d="M532 161q-100 54 -194.5 114t-191.5 117q94 56 187 112.5t191 105.5q-9 14 -17 28.5t-17 28.5q-118 -66 -231 -137t-229 -140q120 -69 235 -142.5t236 -139.5q8 14 16.5 26.5t14.5 26.5zM523 59q-118 -19 -239 -19q-120 0 -238 19q2 -15 4 -29.5t4 -29.5q114 -23 230 -23
t230 23q3 14 5 29z" />
    <glyph glyph-name="greaterequal" unicode="&#xe004;" horiz-adv-x="566" 
d="M536 390q-118 69 -231.5 140.5t-233.5 135.5q-8 -14 -14.5 -28.5t-15.5 -27.5q96 -51 188 -106t185 -112q-96 -59 -190.5 -117.5t-193.5 -112.5q8 -14 15.5 -26.5t13.5 -26.5q123 64 239.5 138.5t237.5 142.5zM521 59q-118 -18 -238 -18.5t-239 17.5q2 -15 4 -29.5
t4 -29.5q114 -22 230 -21.5t230 22.5q3 14 5 29z" />
    <glyph glyph-name="partialdiff" unicode="&#xe005;" horiz-adv-x="554" 
d="M507 477q-3 42 -18.5 85.5t-42 78.5t-64 58t-84.5 24q-27 0 -52 -8.5t-47 -23.5t-40.5 -35t-31.5 -42l7 -7q30 16 63 25t67 9q44 4 81 -13t63 -47t40 -69t13 -80q-38 29 -85 45t-96 18q-57 2 -103.5 -23.5t-78 -67.5t-46 -95t-7.5 -106q5 -39 20 -79t39.5 -72.5t58.5 -53
t78 -21.5q47 -1 85 19.5t67.5 53t50.5 73t34 79.5q25 71 30 139.5t-1 135.5zM460 391q-1 -69 -15 -135.5t-46 -127.5q-16 -32 -40.5 -58.5t-56.5 -41.5q-20 -10 -39 -8t-36.5 12t-32 25t-24.5 32q-14 27 -21 56t-9 59q-2 28 -1 57.5t7 58t19.5 54t36.5 44.5q33 22 67 26.5
t67.5 -2.5t65 -21.5t58.5 -29.5z" />
    <glyph glyph-name="summation" unicode="&#xe006;" horiz-adv-x="672" 
d="M642 15q-7 1 -13 2t-13 2q-11 -31 -31.5 -54.5t-47 -39t-57.5 -22t-63 -3.5q-44 -2 -87 -2t-87 2q-8 0 -17 0.5t-17.5 2t-16 6t-11.5 12.5q45 94 101 180.5t109 176.5q-51 96 -102 190t-97 193q43 3 85.5 5t85.5 0q28 -1 56.5 -4.5t53.5 -17.5q34 -25 47.5 -56t21.5 -60
q8 0 14.5 -0.5t14.5 -1.5q-12 85 -27 172q-127 16 -253.5 14t-251.5 -25q48 -124 110 -240t124 -234q-63 -101 -126 -200.5t-117 -205.5q132 -28 266 -29.5t267 18.5q20 55 40 109t39 110z" />
    <glyph glyph-name="product" unicode="&#xe007;" horiz-adv-x="798" 
d="M768 -248q-21 -2 -44 -2.5t-40 15.5q-14 25 -15 47.5t1 43.5q12 151 12 301t-11 301q-2 24 -2.5 48.5t7.5 47.5q21 24 46 25.5t46 -1.5q-2 7 -2.5 13.5t-2.5 12.5q-182 27 -364 27.5t-364 -27.5q-1 -7 -2.5 -13t-1.5 -13q20 3 43 3q24 0 39 -18q14 -31 14.5 -56.5
t-1.5 -49.5q-10 -151 -9 -300.5t10 -300.5q2 -20 2 -41t-10 -39q-20 -23 -44 -25t-45 1q2 -7 2.5 -13t2.5 -13q79 -15 158.5 -21t160.5 -8q0 7 -0.5 14t-0.5 14q-27 -5 -49 4.5t-38 27.5t-24 42.5t-6 48.5q-7 154 -6.5 305.5t5.5 305.5q1 21 2.5 43t9.5 42q18 26 43 32t47 6
q31 0 61.5 0.5t61.5 -0.5q20 0 41 -3.5t37 -17.5q18 -29 20.5 -54t4.5 -48q15 -306 0 -611q1 -24 -7 -48t-24 -42t-38 -28t-48 -5q0 -7 -0.5 -14t-0.5 -14q80 2 159.5 8t158.5 21q2 7 2.5 13t2.5 13z" />
    <glyph glyph-name="pi" unicode="&#xe008;" horiz-adv-x="627" 
d="M601 396q-4 19 -7 38t-9 37q-92 11 -183.5 14t-184.5 -1q-25 2 -48 -6t-42 -25q-24 -23 -49.5 -44t-51.5 -41q4 -5 6.5 -10t6.5 -10q39 27 84.5 42.5t93.5 13.5q-5 -55 -13 -108.5t-19 -107.5q-11 -55 -47 -94q-13 -15 -27.5 -31.5t-11.5 -38.5q3 -18 15.5 -31.5
t29.5 -19.5q31 -2 45 15t20 36q14 46 22 93.5t12.5 95.5t7.5 96t8 96q46 2 90.5 1.5t90.5 -2.5l-9.5 -9.5l-9.5 -9.5q-26 -27 -34 -64t-8 -73q0 -40 -1 -79.5t0 -79.5v-33q0 -17 2.5 -33.5t9.5 -31t22 -23.5q35 14 68.5 31.5t66.5 34.5q1 7 2 13.5t1 13.5q-16 -7 -33 -12.5
t-34 -0.5q-14 25 -14.5 45t-0.5 39q1 29 1 57v57q0 40 -1 79t8 78q32 -2 62.5 -3t62.5 -4z" />
    <glyph glyph-name="integral" unicode="&#xe009;" horiz-adv-x="550" 
d="M516 719q-2 19 -12 34.5t-22 29.5q-26 29 -58 32.5t-62.5 -9.5t-56.5 -38t-39 -53q-23 -47 -30.5 -97.5t-8.5 -101.5q-1 -155 -1 -308q0 -152 2 -307q0 -10 -1.5 -21.5t-6.5 -21t-13 -15.5t-21 -5q-8 2 -16 4.5t-13 10.5q-12 20 -28 39.5t-42 22.5q-21 5 -40 -4
q-11 -13 -12.5 -23t-1.5 -19q1 -32 19 -54t44 -32.5t55.5 -7.5t53.5 21q20 15 37 32.5t30 38.5q29 47 39.5 100t10.5 107q2 151 1.5 300.5t-2.5 300.5q1 10 1.5 22.5t4 24t10.5 19.5t21 8q15 -6 25.5 -19l21 -26t23 -23t32.5 -9q11 -3 22 -0.5t19.5 9t12.5 16.5t2 22z" />
    <glyph glyph-name="Omega" unicode="&#xe00a;" horiz-adv-x="883" 
d="M828 170q-7 -2 -13.5 -1t-13.5 -1q-6 -19 -17 -36t-26 -30t-33.5 -20.5t-39.5 -6.5q-27 -2 -54.5 -2.5t-54.5 -2.5q50 23 90 59.5t69 82.5q35 55 41 114.5t-10.5 116t-52 107t-83 89t-103.5 61.5t-114 24q-68 1 -128.5 -30.5t-106.5 -79.5q-26 -27 -47.5 -58.5
t-35.5 -66.5t-18 -72.5t6 -74.5q25 -99 87 -168t143 -104q-28 0 -59.5 -0.5t-61 5.5t-55 21t-41.5 44q-4 7 -7 14t-8 14q-7 1 -13 1.5t-13 0.5q17 -45 33 -88.5t34 -87.5q67 -8 133.5 -11.5t134.5 -5.5q-1 22 -2.5 43t-2.5 43q-42 22 -75.5 56t-57.5 74.5t-37.5 86.5
t-15.5 93q-3 53 10 106.5t40.5 97t69 72t95.5 30.5q67 -9 116.5 -47t80.5 -93t42 -120.5t1.5 -129.5t-40.5 -120t-85 -92q-6 -4 -12 -6.5t-11 -7.5q-1 -21 0 -42.5t0 -42.5q67 0 133.5 5t133.5 13q16 43 29.5 86t25.5 88z" />
    <glyph glyph-name="radical" unicode="&#xe00b;" horiz-adv-x="633" 
d="M603 800l-4 28l-4 28q-35 8 -70 12.5t-70 9.5q-26 -92 -56.5 -182t-63.5 -179t-66.5 -178.5t-64.5 -179.5q-15 55 -30.5 109.5t-30.5 109.5q-56 0 -113 3q1 -14 1 -28v-27q17 -1 32.5 -1.5t32.5 -1.5q28 -87 56 -173t54 -174q32 106 69.5 210.5t76.5 209t76 209t69 211.5
q26 -3 53 -7t53 -9z" />
    <glyph glyph-name="approxequal" unicode="&#xe00c;" horiz-adv-x="544" 
d="M503 447q-11 11 -23 21t-23 21q-4 -14 -11.5 -27.5t-18 -24t-24 -16.5t-29.5 -4q-25 2 -46.5 11.5t-44.5 18.5q-32 13 -66 24t-69 4q-45 -15 -71.5 -42.5t-46.5 -58.5l19.5 -19.5t20.5 -19.5q13 21 29 40t39 31q20 4 38 2t34 -6.5t31 -10.5t29 -12q11 -5 23 -9t23 -9
q24 -11 51.5 -12.5t53.5 6t46 24.5t29 44q2 6 3 12t4 12zM514 296q-9 10 -18 19.5t-19 18.5q-16 -20 -32.5 -40t-39.5 -31q-38 -7 -66.5 3t-55.5 20q-18 6 -36 12.5t-36 11.5t-36.5 7t-37.5 -1q-41 -11 -63.5 -37t-32.5 -57q12 -11 24 -21t23 -21q4 13 11 26t17 23.5
t22.5 17t28.5 5.5q24 -2 46 -10t43 -18t42.5 -19.5t44.5 -14.5q28 -6 53.5 1.5t47.5 23.5t39.5 37t30.5 44z" />
    <glyph glyph-name="Delta" unicode="&#xe00d;" horiz-adv-x="609" 
d="M604 268l-4 4q-19 -2 -53.5 -4.5t-76 -5t-86.5 -5t-86.5 -4.5t-76 -3.5t-53.5 -1.5q32 19 67 34.5t65 37.5q23 16 39 40t12 53q-2 23 -20.5 39t-41.5 15q-45 3 -85 -16.5t-72 -48.5q-28 -26 -49.5 -58.5t-36.5 -67.5q-16 -38 -21 -82.5t4.5 -86t34.5 -76t69 -50.5
q22 -8 44 -6.5t42.5 9t39.5 19.5t36 25q11 6 20.5 12.5t14.5 17.5q-2 4 -4.5 7t-7.5 4q-17 -11 -34.5 -19.5t-37.5 -10.5q-36 -3 -64.5 12.5t-47.5 42t-27.5 59.5t-4.5 65h77h43q30 0 66.5 0.5t77 1t77 1t65.5 1t44 0.5q25 23 52 46zM266 380q-2 -24 -14 -42t-29.5 -32
t-38 -25t-38.5 -21q-11 -5 -21.5 -9.5t-21.5 -9.5q3 35 14.5 68.5t28.5 64.5q7 17 25.5 29.5t38 15.5t36 -5.5t20.5 -33.5z" />
    <glyph glyph-name="lozenge" unicode="&#xe00e;" horiz-adv-x="562" 
d="M532 341q-65 94 -128.5 186.5t-123.5 189.5q-58 -98 -122.5 -190.5t-127.5 -186.5q64 -95 127.5 -189t123.5 -192q60 98 123 192.5t128 189.5zM456 340q-45 -69 -88.5 -136.5t-86.5 -136.5q-43 69 -87.5 137t-89.5 136q45 69 90 136t87 137q42 -69 86.5 -136.5
t88.5 -136.5z" />
    </font>
</defs>
</svg>
