<?xml version="1.0" standalone="no"?>
<!DOCTYPE svg PUBLIC "-//W3C//DTD SVG 1.1//EN" "http://www.w3.org/Graphics/SVG/1.1/DTD/svg11.dtd" >
<svg xmlns="http://www.w3.org/2000/svg" xmlns:xlink="http://www.w3.org/1999/xlink" version="1.1">
<metadata>
Created by FontForge 20170731 at Sun Aug 16 13:04:00 2015
 By Aleksey,,,
2015 Iconian Fonts - www.iconian.com
</metadata>
<defs>
<font id="GrandNationalExpanded" horiz-adv-x="960" >
  <font-face 
    font-family="Grand National Expanded"
    font-weight="400"
    font-stretch="expanded"
    units-per-em="1000"
    panose-1="0 0 0 0 0 0 0 0 0 0"
    ascent="800"
    descent="-200"
    x-height="446"
    cap-height="580"
    bbox="-62 -166 1633 734"
    underline-thickness="50"
    underline-position="-175"
    unicode-range="U+0020-2122"
  />
<missing-glyph horiz-adv-x="500" 
 />
    <glyph glyph-name=".notdef" horiz-adv-x="500" 
 />
    <glyph glyph-name=".null" horiz-adv-x="0" 
 />
    <glyph glyph-name="nonmarkingreturn" horiz-adv-x="500" 
 />
    <glyph glyph-name="space" unicode=" " horiz-adv-x="409" 
 />
    <glyph glyph-name="space" unicode="&#xa0;" horiz-adv-x="409" 
 />
    <glyph glyph-name="FL0021h" unicode="!" horiz-adv-x="353" 
d="M293 164v416h-233v-416h233zM293 114h-233v-114h233v114z" />
    <glyph glyph-name="FL0022h" unicode="&#x22;" horiz-adv-x="506" 
d="M361 395q43 0 64 23.5t21 50.5v111h-162v-185h77zM137 395q42 0 63.5 23.5t21.5 50.5v111h-162v-185h77z" />
    <glyph glyph-name="FL0023h" unicode="#" horiz-adv-x="1020" 
d="M584 0v118h-150v-118h-240v118h-134v110h134v124h-134v110h134v118h240v-118h150v118h240v-118h136v-110h-136v-124h136v-110h-136v-118h-240zM434 352v-124h150v124h-150z" />
    <glyph glyph-name="FL0024h" unicode="$" 
d="M424 685h111v-105h365v-110h-365v-125h245q23 0 45 -10.5t38.5 -26.5t26.5 -35.5t10 -37.5v-125q0 -18 -10 -37.5t-26.5 -35.5t-38.5 -26.5t-45 -10.5h-245v-108h-111v108h-364v110h364v125h-244q-23 0 -45 10.5t-38.5 26.5t-26.5 35.5t-10 37.5v125q0 18 10 37.5
t26.5 35.5t38.5 26.5t45 10.5h244v105zM660 235h-125v-125h125v125zM300 470v-125h124v125h-124z" />
    <glyph glyph-name="FL0026h" unicode="%" horiz-adv-x="1236" 
d="M433 0h-194l560 580h195zM899 213v-135h134v135h-134zM1176 235v-180q0 -18 -18 -36.5t-42 -18.5h-300q-24 0 -42 18.5t-18 36.5v180q0 18 18 36.5t42 18.5h300q24 0 42 -18.5t18 -36.5zM203 503v-135h134v135h-134zM480 525v-180q0 -18 -18 -36.5t-42 -18.5h-300
q-24 0 -42 18.5t-18 36.5v180q0 18 18 36.5t42 18.5h300q24 0 42 -18.5t18 -36.5z" />
    <glyph glyph-name="FL002Ah" unicode="&#x26;" horiz-adv-x="1006" 
d="M300 110h329v125h-263v110h580v-110h-78v-235h-688q-23 0 -45 10.5t-38.5 26.5t-26.5 35.5t-10 37.5v112q0 7 6.5 16.5t15.5 19.5t17.5 18.5l13.5 13.5q-5 4 -13.5 12.5t-17.5 19t-15.5 20.5t-6.5 16v112q0 18 10 37.5t26.5 35.5t38.5 26.5t45 10.5h524q24 0 45.5 -10.5
t38 -26.5t26.5 -35.5t10 -37.5v-55h-240v55h-284v-360z" />
    <glyph glyph-name="FL0027h" unicode="'" horiz-adv-x="282" 
d="M137 395q42 0 63.5 23.5t21.5 50.5v111h-162v-185h77z" />
    <glyph glyph-name="FL0028h" unicode="(" horiz-adv-x="551" 
d="M491 -110h-311q-23 0 -45 10.5t-38.5 26.5t-26.5 35.5t-10 37.5v579q0 18 10 37.5t26.5 35.5t38.5 26.5t45 10.5h311v-110h-191v-579h191v-110z" />
    <glyph glyph-name="FL0029h" unicode=")" horiz-adv-x="551" 
d="M59 -110h311q23 0 45 10.5t38.5 26.5t26.5 35.5t10 37.5v579q0 18 -10 37.5t-26.5 35.5t-38.5 26.5t-45 10.5h-311v-110h191v-579h-191v-110z" />
    <glyph glyph-name="FL0F98h" unicode="*" horiz-adv-x="329" 
d="M187 469l61 40l-31 31l52 9l-31 58l-45 -16l3 37h-76l5 -37l-42 16l-23 -58l46 -8l-40 -33l65 -39l29 36z" />
    <glyph glyph-name="FL002Bh" unicode="+" horiz-adv-x="624" 
d="M246 500h132v-155h186v-110h-186v-155h-132v155h-186v110h186v155z" />
    <glyph glyph-name="FL002Ch" unicode="," horiz-adv-x="281" 
d="M136 -72q42 0 63.5 23.5t21.5 50.5v108h-161v-182h76z" />
    <glyph glyph-name="FL002Dh" unicode="-" horiz-adv-x="528" 
d="M60 235v110h408v-110h-408z" />
    <glyph glyph-name="period" unicode="." horiz-adv-x="281" 
d="M60 0h161v110h-161v-110z" />
    <glyph glyph-name="FL002Fh" unicode="/" horiz-adv-x="620" 
d="M584 580l-279 -580h-269l280 580h268z" />
    <glyph glyph-name="FL0030h" unicode="0" 
d="M900 470v-360q0 -18 -10 -37.5t-26.5 -35.5t-38.5 -26.5t-45 -10.5h-600q-23 0 -45 10.5t-38.5 26.5t-26.5 35.5t-10 37.5v360q0 18 10 37.5t26.5 35.5t38.5 26.5t45 10.5h600q23 0 45 -10.5t38.5 -26.5t26.5 -35.5t10 -37.5zM300 470v-360h360v360h-360z" />
    <glyph glyph-name="one" unicode="1" horiz-adv-x="468" 
d="M168 0h240v580h-348v-110h108v-470z" />
    <glyph glyph-name="FL0032h" unicode="2" 
d="M300 235h480q23 0 45 10.5t38.5 26.5t26.5 35.5t10 37.5v125q0 18 -10 37.5t-26.5 35.5t-38.5 26.5t-45 10.5h-720v-110h600v-125h-480q-23 0 -45 -10.5t-38.5 -26.5t-26.5 -35.5t-10 -37.5v-235h840v110h-600v125z" />
    <glyph glyph-name="FL0033h" unicode="3" horiz-adv-x="877" 
d="M109 345v-110h468v-125h-517v-110h637q24 0 45.5 10.5t38 26.5t26.5 35.5t10 37.5v112q0 7 -6.5 16.5t-15.5 19.5t-18 18.5t-13 13.5l13 13t18 19t15.5 20t6.5 16v112q0 18 -10 37.5t-26.5 35.5t-38 26.5t-45.5 10.5h-637v-110h517v-125h-468z" />
    <glyph glyph-name="four" unicode="4" horiz-adv-x="1032" 
d="M630 423l-373 -203h373v203zM630 110h-570v157l577 313h233v-360h102v-110h-102v-110h-240v110z" />
    <glyph glyph-name="five" unicode="5" 
d="M660 235h-600v345h808v-110h-568v-125h480q23 0 45 -10.5t38.5 -26.5t26.5 -35.5t10 -37.5v-125q0 -18 -10 -37.5t-26.5 -35.5t-38.5 -26.5t-45 -10.5h-720v110h600v125z" />
    <glyph glyph-name="FL0036h" unicode="6" 
d="M900 235q0 18 -10 37.5t-26.5 35.5t-38.5 26.5t-45 10.5h-414v-110h294v-125h-360v360h584v110h-704q-23 0 -45 -10.5t-38.5 -26.5t-26.5 -35.5t-10 -37.5v-360q0 -18 10 -37.5t26.5 -35.5t38.5 -26.5t45 -10.5h600q23 0 45 10.5t38.5 26.5t26.5 35.5t10 37.5v125z" />
    <glyph glyph-name="seven" unicode="7" horiz-adv-x="836" 
d="M240 0h263l273 484v96h-716v-105h443z" />
    <glyph glyph-name="FL0038h" unicode="8" 
d="M180 580q-23 0 -45 -10.5t-38.5 -26.5t-26.5 -35.5t-10 -37.5v-112q0 -6 6.5 -16t15.5 -20.5t17.5 -19t13.5 -12.5l-13.5 -13.5t-17.5 -18.5t-15.5 -19.5t-6.5 -16.5v-112q0 -18 10 -37.5t26.5 -35.5t38.5 -26.5t45 -10.5h600q23 0 45 10.5t38.5 26.5t26.5 35.5t10 37.5
v112q0 7 -6.5 16.5t-15.5 19.5t-18 18.5t-13 13.5l13 13t18 19t15.5 20t6.5 16v112q0 18 -10 37.5t-26.5 35.5t-38.5 26.5t-45 10.5h-600zM300 110v360h360v-125h-294v-110h294v-125h-360z" />
    <glyph glyph-name="FL0039h" unicode="9" 
d="M60 345q0 -18 10 -37.5t26.5 -35.5t38.5 -26.5t45 -10.5h414v110h-294v125h360v-360h-584v-110h704q23 0 45 10.5t38.5 26.5t26.5 35.5t10 37.5v360q0 18 -10 37.5t-26.5 35.5t-38.5 26.5t-45 10.5h-600q-23 0 -45 -10.5t-38.5 -26.5t-26.5 -35.5t-10 -37.5v-125z" />
    <glyph glyph-name="FL003Ah" unicode=":" horiz-adv-x="281" 
d="M60 268h161v110h-161v-110zM60 0h161v110h-161v-110z" />
    <glyph glyph-name="FL003Bh" unicode=";" horiz-adv-x="281" 
d="M60 268h161v110h-161v-110zM136 -72q42 0 63.5 23.5t21.5 50.5v108h-161v-182h76z" />
    <glyph glyph-name="FL003Ch" unicode="&#x3c;" horiz-adv-x="692" 
d="M358 0l-322 269l427 311h193l-370 -270l370 -310h-298z" />
    <glyph glyph-name="FL003Dh" unicode="=" horiz-adv-x="635" 
d="M60 435h515v-110h-515v110zM60 255h515v-110h-515v110z" />
    <glyph glyph-name="FL003Eh" unicode="&#x3e;" horiz-adv-x="691" 
d="M229 0h-193l370 269l-370 311h299l320 -270z" />
    <glyph glyph-name="FL003Fh" unicode="?" horiz-adv-x="922" 
d="M385 235h357q23 0 45 10.5t38.5 26.5t26.5 35.5t10 37.5v125q0 18 -10 37.5t-26.5 35.5t-38.5 26.5t-45 10.5h-682v-110h562v-125h-348q-24 0 -45.5 -10.5t-38 -26.5t-26.5 -35.5t-10 -37.5v-70h231v70zM385 114h-233v-114h233v114z" />
    <glyph glyph-name="FL0040h" unicode="@" horiz-adv-x="1475" 
d="M628 404v-226h133v-110h-259q-23 0 -43.5 10.5t-36 27t-25 35.5t-9.5 37v226q0 18 10 37.5t26.5 35.5t38 26.5t45.5 10.5h459q24 0 45.5 -10.5t38 -26.5t26.5 -35.5t10 -37.5v-226h88v401h-875v-579h1091v-110h-1211q-23 0 -45 10.5t-38.5 26.5t-26.5 35.5t-10 37.5v579
q0 18 10 37.5t26.5 35.5t38.5 26.5t45 10.5h1115q23 0 45 -10.5t38.5 -26.5t26.5 -35.5t10 -37.5v-401q0 -18 -10 -37.5t-26.5 -35.5t-38.5 -26.5t-45 -10.5h-448v336h-219z" />
    <glyph glyph-name="FL005Eh" unicode="A" horiz-adv-x="996" 
d="M710 518l250 -518h-269l-85 170h-217v110h162l-94 187l-12 1q-16 -1 -23 -20l-214 -448h-172l242 508q26 46 64 59t91 13h123q61 0 98 -12t56 -50z" />
    <glyph glyph-name="FL0062h" unicode="B" 
d="M900 222v-112q0 -18 -10 -37.5t-26.5 -35.5t-38.5 -26.5t-45 -10.5h-720v580h720q23 0 45 -10.5t38.5 -26.5t26.5 -35.5t10 -37.5v-112q0 -6 -6.5 -16t-15.5 -20t-18 -19l-13 -13q4 -5 13 -13.5t18 -18.5t15.5 -19.5t6.5 -16.5zM366 345h294v125h-360v-360h360v125h-294
v110z" />
    <glyph glyph-name="FL0063h" unicode="C" horiz-adv-x="877" 
d="M817 0h-637q-23 0 -45 10.5t-38.5 26.5t-26.5 35.5t-10 37.5v360q0 18 10 37.5t26.5 35.5t38.5 26.5t45 10.5h637v-110h-517v-360h517v-110z" />
    <glyph glyph-name="FL0064h" unicode="D" 
d="M900 110q0 -18 -10 -37.5t-26.5 -35.5t-38.5 -26.5t-45 -10.5h-414v110h294v360h-360v-470h-240v580h720q23 0 45 -10.5t38.5 -26.5t26.5 -35.5t10 -37.5v-360z" />
    <glyph glyph-name="FL0065h" unicode="E" horiz-adv-x="877" 
d="M817 0h-637q-23 0 -45 10.5t-38.5 26.5t-26.5 35.5t-10 37.5v360q0 18 10 37.5t26.5 35.5t38.5 26.5t45 10.5h637v-110h-517v-125h468v-110h-468v-125h517v-110z" />
    <glyph glyph-name="FL0066h" unicode="F" horiz-adv-x="877" 
d="M300 0h-240v470q0 18 10 37.5t26.5 35.5t38.5 26.5t45 10.5h637v-110h-517v-125h468v-110h-468v-235z" />
    <glyph glyph-name="g" unicode="G" 
d="M900 339v-229q0 -18 -10 -37.5t-26.5 -35.5t-38.5 -26.5t-45 -10.5h-600q-23 0 -45 10.5t-38.5 26.5t-26.5 35.5t-10 37.5v360q0 18 10 37.5t26.5 35.5t38.5 26.5t45 10.5h720v-110h-600v-360h360v229h240z" />
    <glyph glyph-name="FL0068h" unicode="H" 
d="M300 580v-235h359v235h241v-580h-241v235h-359v-235h-240v580h240z" />
    <glyph glyph-name="i" unicode="I" horiz-adv-x="360" 
d="M60 0h240v580h-240v-580z" />
    <glyph glyph-name="j" unicode="J" horiz-adv-x="803" 
d="M743 110q0 -18 -10 -37.5t-26.5 -35.5t-38.5 -26.5t-45 -10.5h-563v110h443v470h240v-470z" />
    <glyph glyph-name="FL006Bh" unicode="K" 
d="M900 0h-240v235h-360v-235h-240v580h240v-234l323 235h277l-323 -236h203q23 0 45 -10.5t38.5 -26.5t26.5 -35.5t10 -37.5v-235z" />
    <glyph glyph-name="FL006Ch" unicode="L" horiz-adv-x="803" 
d="M59 110q0 -18 10 -37.5t26.5 -35.5t38 -26.5t45.5 -10.5h563v110h-443v470h-240v-470z" />
    <glyph glyph-name="FL006Dh" unicode="M" horiz-adv-x="1340" 
d="M1279 580v-580h-240v448l-311 -448h-195l-312 449v-449h-162v580h344l270 -397l276 397h330z" />
    <glyph glyph-name="FL006Eh" unicode="N" horiz-adv-x="972" 
d="M60 580v-580h162v450l349 -450h341v580h-174v-430l-332 430h-346z" />
    <glyph glyph-name="FL006Fh" unicode="O" 
d="M900 470v-360q0 -18 -10 -37.5t-26.5 -35.5t-38.5 -26.5t-45 -10.5h-600q-23 0 -45 10.5t-38.5 26.5t-26.5 35.5t-10 37.5v360q0 18 10 37.5t26.5 35.5t38.5 26.5t45 10.5h600q23 0 45 -10.5t38.5 -26.5t26.5 -35.5t10 -37.5zM300 470v-360h360v360h-360z" />
    <glyph glyph-name="FL00B2h" unicode="P" 
d="M900 345q0 -18 -10 -37.5t-26.5 -35.5t-38.5 -26.5t-45 -10.5h-414v110h294v125h-360v-470h-240v580h720q23 0 45 -10.5t38.5 -26.5t26.5 -35.5t10 -37.5v-125z" />
    <glyph glyph-name="FL0071h" unicode="Q" 
d="M588 -68l-53 68h-355q-23 0 -45 10.5t-38.5 26.5t-26.5 35.5t-10 37.5v360q0 18 10 37.5t26.5 35.5t38.5 26.5t45 10.5h600q23 0 45 -10.5t38.5 -26.5t26.5 -35.5t10 -37.5v-360q0 -18 -10 -37.5t-26.5 -35.5t-38.5 -26.5t-45 -10.5h-84l53 -68h-161zM300 470v-360h150
l-84 108h161l84 -108h49v360h-360z" />
    <glyph glyph-name="FL0072h" unicode="R" 
d="M900 345q0 -18 -10 -37.5t-26.5 -35.5t-38.5 -26.5t-45 -10.5h-108l262 -235h-281l-287 250v95h294v125h-360v-470h-240v580h720q23 0 45 -10.5t38.5 -26.5t26.5 -35.5t10 -37.5v-125z" />
    <glyph glyph-name="FL00B8h" unicode="S" 
d="M660 235h-480q-23 0 -45 10.5t-38.5 26.5t-26.5 35.5t-10 37.5v125q0 18 10 37.5t26.5 35.5t38.5 26.5t45 10.5h720v-110h-600v-125h480q23 0 45 -10.5t38.5 -26.5t26.5 -35.5t10 -37.5v-125q0 -18 -10 -37.5t-26.5 -35.5t-38.5 -26.5t-45 -10.5h-720v110h600v125z" />
    <glyph glyph-name="t" unicode="T" horiz-adv-x="888" 
d="M60 470v110h768v-110h-264v-470h-240v470h-264z" />
    <glyph glyph-name="FL0075h" unicode="U" 
d="M900 580v-470q0 -18 -10 -37.5t-26.5 -35.5t-38.5 -26.5t-45 -10.5h-600q-23 0 -45 10.5t-38.5 26.5t-26.5 35.5t-10 37.5v470h240v-470h360v470h240z" />
    <glyph glyph-name="v" unicode="V" horiz-adv-x="996" 
d="M36 580l250 -518q19 -38 56 -50t98 -12h123q53 0 91 13t64 59l242 508h-172l-214 -448q-7 -19 -23 -20l-12 1l-234 467h-269z" />
    <glyph glyph-name="FL0077h" unicode="W" horiz-adv-x="1550" 
d="M595 580l94 -196l-120 -252q-7 -19 -23 -20l-7 1q-1 0 -3.5 2.5t-10 16t-22 42t-40.5 80.5t-64.5 131.5t-93.5 194.5h-269l250 -518q19 -38 56 -50t98 -12h118q53 0 91 13t64 59l63 131l69 -141q19 -38 55.5 -50t99.5 -12h117q53 0 91 13t64 59l242 508h-171l-215 -448
q-7 -19 -23 -20l-7 1l-234 467h-269z" />
    <glyph glyph-name="FL00A5h" unicode="X" horiz-adv-x="1045" 
d="M227 0h-191l361 269l-361 311h294l226 -193l262 193h191l-362 -270l362 -310h-294l-227 193z" />
    <glyph glyph-name="FL0025h" unicode="Y" horiz-adv-x="1046" 
d="M646 270v-270h-236v262l-374 318h294l240 -198l250 198h190z" />
    <glyph glyph-name="z" unicode="Z" horiz-adv-x="900" 
d="M60 0h780v110h-456l444 350v120h-768v-110h456l-456 -360v-110z" />
    <glyph glyph-name="FL005Bh" unicode="[" horiz-adv-x="551" 
d="M491 -110h-431v799h431v-110h-191v-579h191v-110z" />
    <glyph glyph-name="FL005Ch" unicode="\" horiz-adv-x="620" 
d="M36 580l280 -580h268l-279 580h-269z" />
    <glyph glyph-name="FL005Dh" unicode="]" horiz-adv-x="551" 
d="M59 -110h431v799h-431v-110h191v-579h-191v-110z" />
    <glyph glyph-name="a" unicode="^" 
d="M60 470v-470h240v470h360v-125h-294v-110h294v-235h240v470q0 18 -10 37.5t-26.5 35.5t-38.5 26.5t-45 10.5h-600q-23 0 -45 -10.5t-38.5 -26.5t-26.5 -35.5t-10 -37.5z" />
    <glyph glyph-name="FL005Fh" unicode="_" horiz-adv-x="796" 
d="M60 61h676v-73h-676v73z" />
    <glyph glyph-name="FL0060h" unicode="`" horiz-adv-x="316" 
d="M280 579l-59 95h-185l88 -95h156z" />
    <glyph glyph-name="FL0061h" unicode="a" horiz-adv-x="820" 
d="M60 168v-58q0 -18 10 -37.5t26.5 -35.5t38.5 -26.5t45 -10.5h580v336q0 18 -10 37.5t-26.5 35.5t-38.5 26.5t-45 10.5h-564v-110h444v-226h-220v58h154v110h-274q-23 0 -45 -10.5t-38.5 -26.5t-26.5 -35.5t-10 -37.5z" />
    <glyph glyph-name="FL0B3Bh" unicode="b" horiz-adv-x="820" 
d="M760 336q0 18 -10 37.5t-26.5 35.5t-38.5 26.5t-45 10.5h-274v-110h154v-226h-220v470h-240v-580h580q23 0 45 10.5t38.5 26.5t26.5 35.5t10 37.5v226z" />
    <glyph glyph-name="FL0069h" unicode="c" horiz-adv-x="736" 
d="M676 336h-376v-226h376v-110h-496q-23 0 -45 10.5t-38.5 26.5t-26.5 35.5t-10 37.5v226q0 18 10 37.5t26.5 35.5t38.5 26.5t45 10.5h496v-110z" />
    <glyph glyph-name="FL0B45h" unicode="d" horiz-adv-x="820" 
d="M60 336q0 18 10 37.5t26.5 35.5t38.5 26.5t45 10.5h274v-110h-154v-226h220v470h240v-580h-580q-23 0 -45 10.5t-38.5 26.5t-26.5 35.5t-10 37.5v226z" />
    <glyph glyph-name="FL0067h" unicode="e" horiz-adv-x="820" 
d="M760 278q0 -18 -10 -37.5t-26.5 -35.5t-38.5 -26.5t-45 -10.5h-274v110h154v58h-220v-226h444v-110h-564q-23 0 -45 10.5t-38.5 26.5t-26.5 35.5t-10 37.5v226q0 18 10 37.5t26.5 35.5t38.5 26.5t45 10.5h460q23 0 45 -10.5t38.5 -26.5t26.5 -35.5t10 -37.5v-58z" />
    <glyph glyph-name="FL0CF3h" unicode="f" horiz-adv-x="736" 
d="M60 0v404q0 18 10 37.5t26.5 35.5t38.5 26.5t45 10.5h496v-110h-376v-117h326v-110h-326v-177h-240z" />
    <glyph glyph-name="FL0BD3h" unicode="g" horiz-adv-x="820" 
d="M760 -48v494h-580q-23 0 -45 -10.5t-38.5 -26.5t-26.5 -35.5t-10 -37.5v-226q0 -18 10 -37.5t26.5 -35.5t38.5 -26.5t45 -10.5h274v110h-154v226h220v-384h-365v-110h485q23 0 45 10.5t38.5 26.5t26.5 35.5t10 37.5z" />
    <glyph glyph-name="FL0073h" unicode="h" horiz-adv-x="820" 
d="M60 0h240v336h220v-336h240v336q0 18 -10 37.5t-26.5 35.5t-38.5 26.5t-45 10.5h-340v134h-240v-580z" />
    <glyph glyph-name="FL006Ah" unicode="i" horiz-adv-x="360" 
d="M60 445v-445h240v445h-240zM60 484h240v96h-240v-96z" />
    <glyph glyph-name="FL0B4Fh" unicode="j" horiz-adv-x="360" 
d="M300 -49v494h-240v-494h-71v-110h191q23 0 45 10.5t38.5 26.5t26.5 35.5t10 37.5zM60 580v-96h240v96h-240z" />
    <glyph glyph-name="FL0C2Dh" unicode="k" horiz-adv-x="820" 
d="M60 580v-580h240v202h220v-202h240v202q0 18 -10 37.5t-26.5 35.5t-38.5 26.5t-45 10.5h-82l184 134h-262l-180 -132v266h-240z" />
    <glyph glyph-name="FL0070h" unicode="l" horiz-adv-x="360" 
d="M60 0h240v580h-240v-580z" />
    <glyph glyph-name="FL0078h" unicode="m" horiz-adv-x="1138" 
d="M838 0v336h-173v-336h-192v336h-173v-336h-240v446h414q9 0 23.5 -3.5t29 -8.5t26 -10t16.5 -9q4 4 16 9t26.5 10t29 8.5t23.5 3.5h294q23 0 45 -10.5t38.5 -26.5t26.5 -35.5t10 -37.5v-336h-240z" />
    <glyph glyph-name="FL007Ch" unicode="n" horiz-adv-x="829" 
d="M769 0h-240v336h-229v-336h-240v446h589q24 0 45.5 -10.5t38 -26.5t26.5 -35.5t10 -37.5v-336z" />
    <glyph glyph-name="FL0074h" unicode="o" horiz-adv-x="820" 
d="M760 336v-226q0 -18 -10 -37.5t-26.5 -35.5t-38.5 -26.5t-45 -10.5h-460q-23 0 -45 10.5t-38.5 26.5t-26.5 35.5t-10 37.5v226q0 18 10 37.5t26.5 35.5t38.5 26.5t45 10.5h460q23 0 45 -10.5t38.5 -26.5t26.5 -35.5t10 -37.5zM300 336v-226h220v226h-220z" />
    <glyph glyph-name="FL0076h" unicode="p" horiz-adv-x="820" 
d="M760 110q0 -18 -10 -37.5t-26.5 -35.5t-38.5 -26.5t-45 -10.5h-274v110h154v226h-220v-473h-240v583h580q23 0 45 -10.5t38.5 -26.5t26.5 -35.5t10 -37.5v-226z" />
    <glyph glyph-name="FL007Ah" unicode="q" horiz-adv-x="820" 
d="M60 110q0 -18 10 -37.5t26.5 -35.5t38.5 -26.5t45 -10.5h274v110h-154v226h220v-473h240v583h-580q-23 0 -45 -10.5t-38.5 -26.5t-26.5 -35.5t-10 -37.5v-226z" />
    <glyph glyph-name="FL007Dh" unicode="r" horiz-adv-x="599" 
d="M60 0h240v336h239v110h-359q-23 0 -45 -10.5t-38.5 -26.5t-26.5 -35.5t-10 -37.5v-336z" />
    <glyph glyph-name="FL0081h" unicode="s" horiz-adv-x="820" 
d="M760 168v-58q0 -18 -10 -37.5t-26.5 -35.5t-38.5 -26.5t-45 -10.5h-580v110h460v58h-340q-23 0 -45 10.5t-38.5 26.5t-26.5 35.5t-10 37.5v58q0 18 10 37.5t26.5 35.5t38.5 26.5t45 10.5h580v-110h-460v-58h340q23 0 45 -10.5t38.5 -26.5t26.5 -35.5t10 -37.5z" />
    <glyph glyph-name="FL007Fh" unicode="t" horiz-adv-x="688" 
d="M628 0h-448q-23 0 -45 10.5t-38.5 26.5t-26.5 35.5t-10 37.5v470h240v-134h328v-110h-328v-226h328v-110z" />
    <glyph glyph-name="FL007Bh" unicode="u" horiz-adv-x="820" 
d="M760 446h-240v-336h-220v336h-240v-336q0 -18 10 -37.5t26.5 -35.5t38.5 -26.5t45 -10.5h460q23 0 45 10.5t38.5 26.5t26.5 35.5t10 37.5v336z" />
    <glyph glyph-name="FL0082h" unicode="v" horiz-adv-x="835" 
d="M236 48l-200 398h269l155 -333q3 3 6.5 5.5t6.5 6.5l155 321h171l-194 -391q-23 -35 -55.5 -45t-79.5 -10h-99q-54 0 -84.5 10.5t-50.5 37.5z" />
    <glyph glyph-name="FL0083h" unicode="w" horiz-adv-x="1274" 
d="M557 271l-76 175h261l157 -333q4 3 7 5.5t6 6.5l155 321h171l-194 -391q-23 -35 -55.5 -45t-78.5 -10h-102q-54 0 -86 9t-49 39l-37 66l-31 -59q-23 -35 -54 -45t-77 -10h-103q-53 0 -83 10.5t-52 37.5l-200 398h269l158 -335q9 8 13 14z" />
    <glyph glyph-name="FL0085h" unicode="x" horiz-adv-x="893" 
d="M228 0h-192l284 202l-284 244h298l150 -128l182 128h191l-285 -203l285 -243h-298l-150 127z" />
    <glyph glyph-name="FL0080h" unicode="y" horiz-adv-x="820" 
d="M760 -48v494h-240v-336h-220v336h-240v-336q0 -18 10 -37.5t26.5 -35.5t38.5 -26.5t45 -10.5h340v-48h-365v-110h485q23 0 45 10.5t38.5 26.5t26.5 35.5t10 37.5z" />
    <glyph glyph-name="FL0084h" unicode="z" horiz-adv-x="755" 
d="M695 0v110h-334l334 226v110h-635v-110h326l-326 -226v-110h635z" />
    <glyph glyph-name="FL0087h" unicode="{" horiz-adv-x="551" 
d="M491 -55h-311q-23 0 -45 10.5t-38.5 26.5t-26.5 35.5t-10 37.5v469q0 18 10 37.5t26.5 35.5t38.5 26.5t45 10.5h311v-110h-191v-469h191v-110z" />
    <glyph glyph-name="FL007Eh" unicode="|" horiz-adv-x="353" 
d="M60 -158h233v891h-233v-891z" />
    <glyph glyph-name="FL0088h" unicode="}" horiz-adv-x="551" 
d="M59 -55h311q23 0 45 10.5t38.5 26.5t26.5 35.5t10 37.5v469q0 18 -10 37.5t-26.5 35.5t-38.5 26.5t-45 10.5h-311v-110h191v-469h-191v-110z" />
    <glyph glyph-name="FL0089h" unicode="~" horiz-adv-x="632" 
d="M256 308l-48 -73h-172l79 109h209l53 -73l48 73h171l-79 -109h-209z" />
    <glyph glyph-name="FL0086h" horiz-adv-x="310" 
 />
    <glyph glyph-name="FL00A1h" unicode="&#xa1;" horiz-adv-x="353" 
d="M60 417v-417h233v417h-233zM60 466h233v114h-233v-114z" />
    <glyph glyph-name="FL00A2h" unicode="&#xa2;" horiz-adv-x="736" 
d="M428 580h112v-66h136v-110h-136v-226h136v-110h-136v-68h-112v68h-248q-23 0 -45 10.5t-38.5 26.5t-26.5 35.5t-10 37.5v226q0 18 10 37.5t26.5 35.5t38.5 26.5t45 10.5h248v66zM300 404v-226h128v226h-128z" />
    <glyph glyph-name="FL00A3h" unicode="&#xa3;" horiz-adv-x="826" 
d="M60 344h126q-5 7 -5 14v112q0 18 10 37.5t26.5 35.5t38.5 26.5t45 10.5h234v-110h-114v-125h222v-110h-222v-125h345v-110h-706v110h121v112q0 6 4 13h-125v109z" />
    <glyph glyph-name="FL00A4h" unicode="&#xa4;" horiz-adv-x="1062" 
d="M772 389v-176l254 -213h-299l-155 129h-165l-178 -129h-193l260 190v170l-260 220h299l155 -130h163l180 130h193l-254 -186v-5zM458 365v-150h152v150h-152z" />
    <glyph glyph-name="FL00A6h" unicode="&#xa5;" horiz-adv-x="1068" 
d="M185 333h149l-298 247h299l247 -198l256 198h194l-298 -247h137v-110h-212v-46h212v-110h-212v-67h-240v67h-234v110h234v46h-234v110z" />
    <glyph glyph-name="FL00A7h" unicode="&#xa6;" horiz-adv-x="353" 
d="M60 -158v421h233v-421h-233zM293 312h-233v421h233v-421z" />
    <glyph glyph-name="FL00ACh" unicode="&#xa7;" horiz-adv-x="820" 
d="M760 318v-58q0 -14 -11.5 -28t-21.5 -27q10 -14 21.5 -27.5t11.5 -27.5v-58q0 -18 -10 -37.5t-26.5 -35.5t-38.5 -26.5t-45 -10.5h-556v110h436v58h-340q-23 0 -45 10.5t-38.5 26.5t-26.5 35.5t-10 37.5v58q0 14 10.5 27.5t20.5 27.5q-10 13 -20.5 27t-10.5 28v58
q0 18 10 37.5t26.5 35.5t38.5 26.5t45 10.5h556v-110h-436v-58h340q23 0 45 -10.5t38.5 -26.5t26.5 -35.5t10 -37.5zM300 321v-64h220v64h-220z" />
    <glyph glyph-name="FL00A8h" unicode="&#xa8;" horiz-adv-x="605" 
d="M60 579h191v95h-191v-95zM354 579h191v95h-191v-95z" />
    <glyph glyph-name="FL00B1h" unicode="&#xa9;" horiz-adv-x="324" 
d="M162 630q-9 0 -50 -11q-22 -7 -39 -31q-6 -11 -9.5 -21t-3.5 -22q0 -24 13 -41q8 -11 16 -17t19 -13l4 -2q42 -11 50 -11q1 0 13.5 1.5t36.5 9.5q14 8 22.5 14.5t15.5 17.5q14 23 14 41q0 23 -14 43q-13 20 -39 31q-25 11 -49 11zM162 617q22 0 41 -10q22 -9 33 -26
t11 -36t-12 -34q-13 -19 -31 -26q-20 -9 -42 -9t-37 7l-6 2q-12 5 -30 26q-12 15 -12 34q0 30 26 51t59 21zM194 533q-4 -22 -33 -22q-34 0 -34 34q0 36 36 36q19 0 30 -17l16 3q-14 27 -46 27q-25 0 -39.5 -12.5t-14.5 -36.5q0 -23 14.5 -35.5t38.5 -12.5q39 0 49 31z" />
    <glyph glyph-name="FL00AAh" unicode="&#xaa;" horiz-adv-x="835" 
d="M341 88v110h97l-62 135q-4 -3 -7.5 -5.5t-6.5 -6.5l-154 -321h-172l194 391q23 35 56 45t79 10h99q54 0 85 -10.5t50 -37.5l200 -398h-269l-40 88h-149z" />
    <glyph glyph-name="FL00ABh" unicode="&#xab;" horiz-adv-x="416" 
d="M276 290l79 43v155l-114 -68v-260l114 -68v155zM94 290l79 43v155l-114 -68v-260l114 -68v155z" />
    <glyph glyph-name="FL00ADh" unicode="&#xac;" horiz-adv-x="624" 
d="M60 345h504v-265h-132v155h-372v110z" />
    <glyph glyph-name="FL00AEh" unicode="&#xad;" horiz-adv-x="432" 
d="M60 235v110h312v-110h-312z" />
    <glyph glyph-name="FL00A9h" unicode="&#xae;" horiz-adv-x="324" 
d="M162 630q-9 0 -50 -11q-14 -6 -22.5 -14t-16.5 -17q-6 -11 -9.5 -21t-3.5 -22q0 -24 13 -41t39 -32q20 -11 50 -11q1 0 15.5 1.5t34.5 9.5q27 14 38 32q14 23 14 41q0 23 -14 43q-7 10 -16 18t-23 13q-25 11 -49 11zM162 617q22 0 41 -10q44 -21 44 -57q0 -11 -2.5 -20.5
t-9.5 -19.5q-6 -8 -14.5 -14t-16.5 -11q-19 -10 -42 -10q4 0 -5 2t-32 6l-6 2q-18 10 -30 25q-7 17 -9.5 26l-2.5 9q0 30 26 51t59 21zM118 499h18v39h9q10 0 13 -4q7 -2 21 -21l8 -14h23l-14 18q-8 10 -13 15t-13 8q15 1 23.5 8t8.5 17q0 3 -2 6.5t-4 7.5q-2 1 -4 3t-8 5
q-8 3 -29 3h-37v-91zM136 549v28h37q11 -5 11 -13q0 -7 -5.5 -11t-22.5 -4h-20z" />
    <glyph glyph-name="FL00AFh" unicode="&#xaf;" horiz-adv-x="796" 
d="M60 592h676v-73h-676v73z" />
    <glyph glyph-name="FL00B0h" unicode="&#xb0;" horiz-adv-x="311" 
d="M251 580h-191v95h191v-95zM124 615h63v26h-63v-26z" />
    <glyph glyph-name="FL00BEh" unicode="&#xb1;" horiz-adv-x="624" 
d="M246 580h132v-155h186v-110h-186v-155h-132v155h-186v110h186v155zM60 110h504v-110h-504v110z" />
    <glyph glyph-name="FL00B6h" unicode="&#xb2;" horiz-adv-x="540" 
d="M203 444h217q12 0 23 7t19 17t13 21.5t5 20.5v63q0 18 -18 36.5t-42 18.5h-360v-77h277v-30h-217q-24 0 -42 -18.5t-18 -36.5v-128h420v78h-277v28z" />
    <glyph glyph-name="FL00B3h" unicode="&#xb3;" horiz-adv-x="498" 
d="M84 521v-77h211v-28h-235v-78h318q24 0 42 18.5t18 36.5v56q0 3 -3 8t-7.5 10t-8.5 9l-7 7q5 5 15.5 16t10.5 18v56q0 18 -18 36.5t-42 18.5h-318v-77h235v-30h-211z" />
    <glyph glyph-name="FL00B4h" unicode="&#xb4;" horiz-adv-x="316" 
d="M36 579l59 95h185l-88 -95h-156z" />
    <glyph glyph-name="FL00B5h" unicode="&#xb5;" horiz-adv-x="820" 
d="M520 446h240v-336q0 -18 -10 -37.5t-26.5 -35.5t-38.5 -26.5t-45 -10.5h-340v-137h-240v583h240v-336h220v336z" />
    <glyph glyph-name="FL00BDh" unicode="&#xb6;" horiz-adv-x="890" 
d="M60 345q0 -18 10 -37.5t26.5 -35.5t38.5 -26.5t45 -10.5h68v-385h242v620h100v-620h240v730h-650q-23 0 -45 -10.5t-38.5 -26.5t-26.5 -35.5t-10 -37.5v-125z" />
    <glyph glyph-name="FL00B7h" unicode="&#xb7;" horiz-adv-x="281" 
d="M60 235h161v110h-161v-110z" />
    <glyph glyph-name="FL00B9h" unicode="&#xb8;" horiz-adv-x="259" 
d="M199 -57q0 -18 -10 -37.5t-26.5 -35t-38 -26t-45.5 -10.5h-96v109h78v58h138v-58z" />
    <glyph glyph-name="FL00BCh" unicode="&#xb9;" horiz-adv-x="328" 
d="M268 628v-290h-143v213h-65v77h208z" />
    <glyph glyph-name="FL00BAh" unicode="&#xba;" horiz-adv-x="540" 
d="M203 551v-135h134v135h-134zM480 573v-180q0 -18 -18 -36.5t-42 -18.5h-300q-24 0 -42 18.5t-18 36.5v180q0 18 18 36.5t42 18.5h300q24 0 42 -18.5t18 -36.5z" />
    <glyph glyph-name="FL00BBh" unicode="&#xbb;" horiz-adv-x="416" 
d="M139 290l-79 43v155l114 -68v-260l-114 -68v155zM322 290l-80 43v155l114 -68v-260l-114 -68v155z" />
    <glyph glyph-name="FL03A7h" unicode="&#xbc;" horiz-adv-x="979" 
d="M254 0h-194l560 580h195zM274 580v-290h-143v213h-65v77h208zM724 188l-100 -54h100v54zM724 55h-261v78l288 157h117v-156h51v-79h-51v-55h-144v55z" />
    <glyph glyph-name="FL037Ah" unicode="&#xbd;" horiz-adv-x="1085" 
d="M965 106h-217v-28h277v-78h-420v128q0 18 17.5 36.5t42.5 18.5h217v30h-277v77h360q24 0 42 -18.5t18 -36.5v-63q0 -9 -5 -20.5t-13 -21.5t-19 -17t-23 -7zM254 0h-194l560 580h195zM274 580v-290h-143v213h-65v77h208z" />
    <glyph glyph-name="FL03CFh" unicode="&#xbe;" horiz-adv-x="1117" 
d="M601 55h261v-55h144v55h51v79h-51v156h-117l-288 -157v-78zM762 134l100 54v-54h-100zM198 0h194l561 580h-195zM84 473v-77h211v-28h-235v-78h318q24 0 42 18.5t18 36.5v56q0 3 -3 8t-7.5 10t-8.5 9l-7 7q5 5 15.5 16t10.5 18v56q0 18 -18 36.5t-42 18.5h-318v-77h235
v-30h-211z" />
    <glyph glyph-name="FL00BFh" unicode="&#xbf;" horiz-adv-x="922" 
d="M536 345h-356q-23 0 -45 -10.5t-38.5 -26.5t-26.5 -35.5t-10 -37.5v-125q0 -18 10 -37.5t26.5 -35.5t38.5 -26.5t45 -10.5h682v110h-562v125h348q23 0 45 10.5t38.5 26.5t26.5 35.5t10 37.5v70h-232v-70zM536 466h233v114h-233v-114z" />
    <glyph glyph-name="FL00C0h" unicode="&#xc0;" 
d="M588 638l-59 95h-185l88 -95h156zM60 470v-470h240v470h360v-125h-294v-110h294v-235h240v470q0 18 -10 37.5t-26.5 35.5t-38.5 26.5t-45 10.5h-600q-23 0 -45 -10.5t-38.5 -26.5t-26.5 -35.5t-10 -37.5z" />
    <glyph glyph-name="FL00C1h" unicode="&#xc1;" 
d="M431 733l-59 -95h156l88 95h-185zM60 470v-470h240v470h360v-125h-294v-110h294v-235h240v470q0 18 -10 37.5t-26.5 35.5t-38.5 26.5t-45 10.5h-600q-23 0 -45 -10.5t-38.5 -26.5t-26.5 -35.5t-10 -37.5z" />
    <glyph glyph-name="FL00C2h" unicode="&#xc2;" 
d="M480 705l52 -66h186l-82 95h-312l-82 -95h186zM60 470v-470h240v470h360v-125h-294v-110h294v-235h240v470q0 18 -10 37.5t-26.5 35.5t-38.5 26.5t-45 10.5h-600q-23 0 -45 -10.5t-38.5 -26.5t-26.5 -35.5t-10 -37.5z" />
    <glyph glyph-name="FL00C3h" unicode="&#xc3;" 
d="M366 639l49 63l54 -63h213l81 95h-174l-49 -63l-54 63h-212l-82 -95h174zM60 470v-470h240v470h360v-125h-294v-110h294v-235h240v470q0 18 -10 37.5t-26.5 35.5t-38.5 26.5t-45 10.5h-600q-23 0 -45 -10.5t-38.5 -26.5t-26.5 -35.5t-10 -37.5z" />
    <glyph glyph-name="FL00C4h" unicode="&#xc4;" 
d="M238 639h190v95h-190v-95zM532 639h190v95h-190v-95zM60 470v-470h240v470h360v-125h-294v-110h294v-235h240v470q0 18 -10 37.5t-26.5 35.5t-38.5 26.5t-45 10.5h-600q-23 0 -45 -10.5t-38.5 -26.5t-26.5 -35.5t-10 -37.5z" />
    <glyph glyph-name="FL00C5h" unicode="&#xc5;" 
d="M60 0v470q0 18 10 37.5t26.5 35.5t38.5 26.5t45 10.5h600q23 0 45 -10.5t38.5 -26.5t26.5 -35.5t10 -37.5v-470h-240v235h-294v110h294v125h-360v-470h-240zM575 639h-191v95h191v-95zM448 674h63v26h-63v-26z" />
    <glyph glyph-name="FL00C6h" unicode="&#xc6;" horiz-adv-x="1477" 
d="M60 0v470q0 18 10 37.5t26.5 35.5t38.5 26.5t45 10.5h1237v-110h-517v-125h468v-110h-468v-125h517v-110h-757v235h-294v110h294v125h-360v-470h-240z" />
    <glyph glyph-name="FL00C7h" unicode="&#xc7;" horiz-adv-x="877" 
d="M569 -57q0 -18 -10 -37.5t-26.5 -35t-38.5 -26t-45 -10.5h-96v109h78v57h-251q-23 0 -45 10.5t-38.5 26.5t-26.5 35.5t-10 37.5v360q0 18 10 37.5t26.5 35.5t38.5 26.5t45 10.5h637v-110h-517v-360h517v-110h-248v-57z" />
    <glyph glyph-name="FL00C8h" unicode="&#xc8;" horiz-adv-x="877" 
d="M180 0h637v110h-517v125h468v110h-468v125h517v110h-637q-23 0 -45 -10.5t-38.5 -26.5t-26.5 -35.5t-10 -37.5v-360q0 -18 10 -37.5t26.5 -35.5t38.5 -26.5t45 -10.5zM570 638l-59 95h-185l88 -95h156z" />
    <glyph glyph-name="FL00C9h" unicode="&#xc9;" horiz-adv-x="877" 
d="M395 733l-59 -95h156l88 95h-185zM180 0h637v110h-517v125h468v110h-468v125h517v110h-637q-23 0 -45 -10.5t-38.5 -26.5t-26.5 -35.5t-10 -37.5v-360q0 -18 10 -37.5t26.5 -35.5t38.5 -26.5t45 -10.5z" />
    <glyph glyph-name="FL00CAh" unicode="&#xca;" horiz-adv-x="877" 
d="M448 705l51 -66h186l-81 95h-312l-82 -95h186zM180 0h637v110h-517v125h468v110h-468v125h517v110h-637q-23 0 -45 -10.5t-38.5 -26.5t-26.5 -35.5t-10 -37.5v-360q0 -18 10 -37.5t26.5 -35.5t38.5 -26.5t45 -10.5z" />
    <glyph glyph-name="FL00CBh" unicode="&#xcb;" horiz-adv-x="877" 
d="M690 639h-191v95h191v-95zM396 639h-191v95h191v-95zM817 0h-637q-23 0 -45 10.5t-38.5 26.5t-26.5 35.5t-10 37.5v360q0 18 10 37.5t26.5 35.5t38.5 26.5t45 10.5h637v-110h-517v-125h468v-110h-468v-125h517v-110z" />
    <glyph glyph-name="FL00CCh" unicode="&#xcc;" horiz-adv-x="360" 
d="M301 638l-59 95h-184l87 -95h156zM60 0h240v580h-240v-580z" />
    <glyph glyph-name="FL00CDh" unicode="&#xcd;" horiz-adv-x="360" 
d="M116 733l-58 -95h156l87 95h-185zM60 0h240v580h-240v-580z" />
    <glyph glyph-name="FL00CEh" unicode="&#xce;" horiz-adv-x="360" 
d="M180 705l52 -66h186l-82 95h-312l-82 -95h186zM60 0h240v580h-240v-580z" />
    <glyph glyph-name="FL00CFh" unicode="&#xcf;" horiz-adv-x="360" 
d="M-62 639h190v95h-190v-95zM232 639h190v95h-190v-95zM60 0h240v580h-240v-580z" />
    <glyph glyph-name="FL00D0h" unicode="&#xd0;" horiz-adv-x="1100" 
d="M60 235v110h140v235h720q24 0 45.5 -10.5t38 -26.5t26.5 -35.5t10 -37.5v-360q0 -18 -10 -37.5t-26.5 -35.5t-38 -26.5t-45.5 -10.5h-414v110h294v360h-360v-125h153v-110h-153v-235h-240v235h-140z" />
    <glyph glyph-name="FL00D1h" unicode="&#xd1;" horiz-adv-x="972" 
d="M424 702l-50 -63h-174l82 95h212l54 -63l50 63h174l-82 -95h-212zM60 0v580h346l332 -430v430h174v-580h-341l-349 450v-450h-162z" />
    <glyph glyph-name="FL00D2h" unicode="&#xd2;" 
d="M60 470v-360q0 -18 10 -37.5t26.5 -35.5t38.5 -26.5t45 -10.5h600q23 0 45 10.5t38.5 26.5t26.5 35.5t10 37.5v360q0 18 -10 37.5t-26.5 35.5t-38.5 26.5t-45 10.5h-600q-23 0 -45 -10.5t-38.5 -26.5t-26.5 -35.5t-10 -37.5zM660 470v-360h-360v360h360zM588 638l-59 95
h-185l88 -95h156z" />
    <glyph glyph-name="FL00D3h" unicode="&#xd3;" 
d="M431 733l-59 -95h156l88 95h-185zM300 110v360h360v-360h-360zM900 110v360q0 18 -10 37.5t-26.5 35.5t-38.5 26.5t-45 10.5h-600q-23 0 -45 -10.5t-38.5 -26.5t-26.5 -35.5t-10 -37.5v-360q0 -18 10 -37.5t26.5 -35.5t38.5 -26.5t45 -10.5h600q23 0 45 10.5t38.5 26.5
t26.5 35.5t10 37.5z" />
    <glyph glyph-name="FL00D4h" unicode="&#xd4;" 
d="M480 705l52 -66h186l-82 95h-312l-82 -95h186zM300 110v360h360v-360h-360zM900 110v360q0 18 -10 37.5t-26.5 35.5t-38.5 26.5t-45 10.5h-600q-23 0 -45 -10.5t-38.5 -26.5t-26.5 -35.5t-10 -37.5v-360q0 -18 10 -37.5t26.5 -35.5t38.5 -26.5t45 -10.5h600q23 0 45 10.5
t38.5 26.5t26.5 35.5t10 37.5z" />
    <glyph glyph-name="FL00D5h" unicode="&#xd5;" 
d="M415 702l-49 -63h-174l82 95h212l54 -63l49 63h174l-81 -95h-213zM900 470v-360q0 -18 -10 -37.5t-26.5 -35.5t-38.5 -26.5t-45 -10.5h-600q-23 0 -45 10.5t-38.5 26.5t-26.5 35.5t-10 37.5v360q0 18 10 37.5t26.5 35.5t38.5 26.5t45 10.5h600q23 0 45 -10.5t38.5 -26.5
t26.5 -35.5t10 -37.5zM300 470v-360h360v360h-360z" />
    <glyph glyph-name="FL00D6h" unicode="&#xd6;" 
d="M238 639h190v95h-190v-95zM532 639h190v95h-190v-95zM300 110v360h360v-360h-360zM900 110v360q0 18 -10 37.5t-26.5 35.5t-38.5 26.5t-45 10.5h-600q-23 0 -45 -10.5t-38.5 -26.5t-26.5 -35.5t-10 -37.5v-360q0 -18 10 -37.5t26.5 -35.5t38.5 -26.5t45 -10.5h600
q23 0 45 10.5t38.5 26.5t26.5 35.5t10 37.5z" />
    <glyph glyph-name="FL00D7h" unicode="&#xd7;" horiz-adv-x="569" 
d="M416 477l93 -77l-131 -110l131 -110l-93 -77l-132 109l-132 -109l-92 77l131 110l-131 110l92 77l132 -109z" />
    <glyph glyph-name="FL00D8h" unicode="&#xd8;" 
d="M900 470v-360q0 -18 -10 -37.5t-26.5 -35.5t-38.5 -26.5t-45 -10.5h-600q-23 0 -45 10.5t-38.5 26.5t-26.5 35.5t-10 37.5v360q0 18 10 37.5t26.5 35.5t38.5 26.5t45 10.5h600q23 0 45 -10.5t38.5 -26.5t26.5 -35.5t10 -37.5zM300 470v-275l259 275h-259zM660 110v275
l-259 -275h259z" />
    <glyph glyph-name="FL00D9h" unicode="&#xd9;" 
d="M529 733l59 -95h-156l-88 95h185zM900 580v-470q0 -18 -10 -37.5t-26.5 -35.5t-38.5 -26.5t-45 -10.5h-600q-23 0 -45 10.5t-38.5 26.5t-26.5 35.5t-10 37.5v470h240v-470h360v470h240z" />
    <glyph glyph-name="FL00DAh" unicode="&#xda;" 
d="M372 638l59 95h185l-88 -95h-156zM900 580v-470q0 -18 -10 -37.5t-26.5 -35.5t-38.5 -26.5t-45 -10.5h-600q-23 0 -45 10.5t-38.5 26.5t-26.5 35.5t-10 37.5v470h240v-470h360v470h240z" />
    <glyph glyph-name="FL00DBh" unicode="&#xdb;" 
d="M532 639l-52 66l-52 -66h-186l82 95h312l82 -95h-186zM900 580v-470q0 -18 -10 -37.5t-26.5 -35.5t-38.5 -26.5t-45 -10.5h-600q-23 0 -45 10.5t-38.5 26.5t-26.5 35.5t-10 37.5v470h240v-470h360v470h240z" />
    <glyph glyph-name="FL00DCh" unicode="&#xdc;" 
d="M722 639h-190v95h190v-95zM428 639h-190v95h190v-95zM900 580v-470q0 -18 -10 -37.5t-26.5 -35.5t-38.5 -26.5t-45 -10.5h-600q-23 0 -45 10.5t-38.5 26.5t-26.5 35.5t-10 37.5v470h240v-470h360v470h240z" />
    <glyph glyph-name="FL00DDh" unicode="&#xdd;" horiz-adv-x="1068" 
d="M659 0v270l373 310h-194l-256 -198l-247 198h-299l383 -318v-262h240zM524 733l-58 -95h156l87 95h-185z" />
    <glyph glyph-name="FL00DEh" unicode="&#xde;" 
d="M60 0v580h240v-118h480q23 0 45 -10.5t38.5 -26.5t26.5 -35.5t10 -37.5v-125q0 -18 -10 -37.5t-26.5 -35.5t-38.5 -26.5t-45 -10.5h-414v110h294v125h-360v-352h-240z" />
    <glyph glyph-name="FL00DFh" unicode="&#xdf;" 
d="M180 580h600q23 0 45 -10.5t38.5 -26.5t26.5 -35.5t10 -37.5v-112q0 -6 -6.5 -16t-15.5 -20t-18 -19l-13 -13q4 -5 13 -13.5t18 -18.5t15.5 -19.5t6.5 -16.5v-112q0 -18 -10 -37.5t-26.5 -35.5t-38.5 -26.5t-45 -10.5h-354v110h234v125h-234v110h234v125h-360v-470h-240
v470q0 18 10 37.5t26.5 35.5t38.5 26.5t45 10.5z" />
    <glyph glyph-name="FL00E0h" unicode="&#xe0;" horiz-adv-x="820" 
d="M520 505l-59 95h-185l88 -95h156zM60 168v-58q0 -18 10 -37.5t26.5 -35.5t38.5 -26.5t45 -10.5h580v336q0 18 -10 37.5t-26.5 35.5t-38.5 26.5t-45 10.5h-564v-110h444v-226h-220v58h154v110h-274q-23 0 -45 -10.5t-38.5 -26.5t-26.5 -35.5t-10 -37.5z" />
    <glyph glyph-name="FL00E1h" unicode="&#xe1;" horiz-adv-x="820" 
d="M358 600l-59 -95h156l87 95h-184zM60 168v-58q0 -18 10 -37.5t26.5 -35.5t38.5 -26.5t45 -10.5h580v336q0 18 -10 37.5t-26.5 35.5t-38.5 26.5t-45 10.5h-564v-110h444v-226h-220v58h154v110h-274q-23 0 -45 -10.5t-38.5 -26.5t-26.5 -35.5t-10 -37.5z" />
    <glyph glyph-name="FL00E2h" unicode="&#xe2;" horiz-adv-x="820" 
d="M409 571l52 -66h186l-82 95h-312l-81 -95h186zM60 168v-58q0 -18 10 -37.5t26.5 -35.5t38.5 -26.5t45 -10.5h580v336q0 18 -10 37.5t-26.5 35.5t-38.5 26.5t-45 10.5h-564v-110h444v-226h-220v58h154v110h-274q-23 0 -45 -10.5t-38.5 -26.5t-26.5 -35.5t-10 -37.5z" />
    <glyph glyph-name="FL00E3h" unicode="&#xe3;" horiz-adv-x="820" 
d="M296 505l50 63l54 -63h212l82 95h-174l-50 -63l-54 63h-212l-82 -95h174zM60 168v-58q0 -18 10 -37.5t26.5 -35.5t38.5 -26.5t45 -10.5h580v336q0 18 -10 37.5t-26.5 35.5t-38.5 26.5t-45 10.5h-564v-110h444v-226h-220v58h154v110h-274q-23 0 -45 -10.5t-38.5 -26.5
t-26.5 -35.5t-10 -37.5z" />
    <glyph glyph-name="FL00E4h" unicode="&#xe4;" horiz-adv-x="820" 
d="M167 505h191v95h-191v-95zM461 505h191v95h-191v-95zM60 168v-58q0 -18 10 -37.5t26.5 -35.5t38.5 -26.5t45 -10.5h580v336q0 18 -10 37.5t-26.5 35.5t-38.5 26.5t-45 10.5h-564v-110h444v-226h-220v58h154v110h-274q-23 0 -45 -10.5t-38.5 -26.5t-26.5 -35.5t-10 -37.5z
" />
    <glyph glyph-name="FL00E5h" unicode="&#xe5;" horiz-adv-x="820" 
d="M505 505h-191v95h191v-95zM378 540h64v26h-64v-26zM60 110v58q0 18 10 37.5t26.5 35.5t38.5 26.5t45 10.5h274v-110h-154v-58h220v226h-444v110h564q23 0 45 -10.5t38.5 -26.5t26.5 -35.5t10 -37.5v-336h-580q-23 0 -45 10.5t-38.5 26.5t-26.5 35.5t-10 37.5z" />
    <glyph glyph-name="FL00E6h" unicode="&#xe6;" horiz-adv-x="1279" 
d="M60 168q0 18 10 37.5t26.5 35.5t38.5 26.5t45 10.5h274v-110h-154v-58h220v226h-444v110h1023q24 0 45.5 -10.5t38 -26.5t26.5 -35.5t10 -37.5v-58q0 -18 -10 -37.5t-26.5 -35.5t-38 -26.5t-45.5 -10.5h-273v110h153v58h-219v-226h444v-110h-1024q-23 0 -45 10.5
t-38.5 26.5t-26.5 35.5t-10 37.5v58z" />
    <glyph glyph-name="FL00E7h" unicode="&#xe7;" horiz-adv-x="736" 
d="M498 -57q0 -18 -10 -37.5t-26.5 -35t-38.5 -26t-45 -10.5h-96v109h78v57h-180q-23 0 -45 10.5t-38.5 26.5t-26.5 35.5t-10 37.5v226q0 18 10 37.5t26.5 35.5t38.5 26.5t45 10.5h496v-110h-376v-226h376v-110h-178v-57z" />
    <glyph glyph-name="FL00E8h" unicode="&#xe8;" horiz-adv-x="820" 
d="M461 600l59 -95h-156l-88 95h185zM760 278q0 -18 -10 -37.5t-26.5 -35.5t-38.5 -26.5t-45 -10.5h-274v110h154v58h-220v-226h444v-110h-564q-23 0 -45 10.5t-38.5 26.5t-26.5 35.5t-10 37.5v226q0 18 10 37.5t26.5 35.5t38.5 26.5t45 10.5h460q23 0 45 -10.5t38.5 -26.5
t26.5 -35.5t10 -37.5v-58z" />
    <glyph glyph-name="FL00E9h" unicode="&#xe9;" horiz-adv-x="820" 
d="M299 505l59 95h184l-87 -95h-156zM760 278q0 -18 -10 -37.5t-26.5 -35.5t-38.5 -26.5t-45 -10.5h-274v110h154v58h-220v-226h444v-110h-564q-23 0 -45 10.5t-38.5 26.5t-26.5 35.5t-10 37.5v226q0 18 10 37.5t26.5 35.5t38.5 26.5t45 10.5h460q23 0 45 -10.5t38.5 -26.5
t26.5 -35.5t10 -37.5v-58z" />
    <glyph glyph-name="FL00EAh" unicode="&#xea;" horiz-adv-x="820" 
d="M461 505l-52 66l-51 -66h-186l81 95h312l82 -95h-186zM760 278q0 -18 -10 -37.5t-26.5 -35.5t-38.5 -26.5t-45 -10.5h-274v110h154v58h-220v-226h444v-110h-564q-23 0 -45 10.5t-38.5 26.5t-26.5 35.5t-10 37.5v226q0 18 10 37.5t26.5 35.5t38.5 26.5t45 10.5h460
q23 0 45 -10.5t38.5 -26.5t26.5 -35.5t10 -37.5v-58z" />
    <glyph glyph-name="FL00EBh" unicode="&#xeb;" horiz-adv-x="820" 
d="M652 505h-191v95h191v-95zM358 505h-191v95h191v-95zM760 278q0 -18 -10 -37.5t-26.5 -35.5t-38.5 -26.5t-45 -10.5h-274v110h154v58h-220v-226h444v-110h-564q-23 0 -45 10.5t-38.5 26.5t-26.5 35.5t-10 37.5v226q0 18 10 37.5t26.5 35.5t38.5 26.5t45 10.5h460
q23 0 45 -10.5t38.5 -26.5t26.5 -35.5t10 -37.5v-58z" />
    <glyph glyph-name="FL00ECh" unicode="&#xec;" horiz-adv-x="360" 
d="M301 505l-59 95h-184l87 -95h156zM60 445v-445h240v445h-240z" />
    <glyph glyph-name="FL00EDh" unicode="&#xed;" horiz-adv-x="360" 
d="M116 600l-58 -95h156l87 95h-185zM60 445v-445h240v445h-240z" />
    <glyph glyph-name="FL00EEh" unicode="&#xee;" horiz-adv-x="360" 
d="M180 571l52 -66h186l-82 95h-312l-82 -95h186zM60 445v-445h240v445h-240z" />
    <glyph glyph-name="FL00EFh" unicode="&#xef;" horiz-adv-x="360" 
d="M-62 485h190v95h-190v-95zM232 485h190v95h-190v-95zM60 445v-445h240v445h-240z" />
    <glyph glyph-name="FL00F0h" unicode="&#xf0;" 
d="M362 650h132v-70h286q23 0 45 -10.5t38.5 -26.5t26.5 -35.5t10 -37.5v-360q0 -18 -10 -37.5t-26.5 -35.5t-38.5 -26.5t-45 -10.5h-600q-23 0 -45 10.5t-38.5 26.5t-26.5 35.5t-10 37.5v125q0 18 10 37.5t26.5 35.5t38.5 26.5t45 10.5h414v-110h-294v-125h360v360h-166
v-69h-132v69h-286v110h286v70z" />
    <glyph glyph-name="FL00F1h" unicode="&#xf1;" horiz-adv-x="829" 
d="M348 568l-49 -63h-174l81 95h213l54 -63l49 63h174l-82 -95h-212zM769 0h-240v336h-229v-336h-240v446h589q24 0 45.5 -10.5t38 -26.5t26.5 -35.5t10 -37.5v-336z" />
    <glyph glyph-name="FL00F2h" unicode="&#xf2;" horiz-adv-x="820" 
d="M520 505l-59 95h-185l88 -95h156zM520 110h-220v226h220v-226zM760 110v226q0 18 -10 37.5t-26.5 35.5t-38.5 26.5t-45 10.5h-460q-23 0 -45 -10.5t-38.5 -26.5t-26.5 -35.5t-10 -37.5v-226q0 -18 10 -37.5t26.5 -35.5t38.5 -26.5t45 -10.5h460q23 0 45 10.5t38.5 26.5
t26.5 35.5t10 37.5z" />
    <glyph glyph-name="FL00F3h" unicode="&#xf3;" horiz-adv-x="820" 
d="M59 336v-226q0 -18 10 -37.5t26.5 -35.5t38 -26.5t45.5 -10.5h459q24 0 45.5 10.5t38 26.5t26.5 35.5t10 37.5v226q0 18 -10 37.5t-26.5 35.5t-38 26.5t-45.5 10.5h-459q-24 0 -45.5 -10.5t-38 -26.5t-26.5 -35.5t-10 -37.5zM518 110h-219v226h219v-226zM358 600l-59 -95
h156l87 95h-184z" />
    <glyph glyph-name="FL00F4h" unicode="&#xf4;" horiz-adv-x="820" 
d="M520 110h-220v226h220v-226zM760 110v226q0 18 -10 37.5t-26.5 35.5t-38.5 26.5t-45 10.5h-460q-23 0 -45 -10.5t-38.5 -26.5t-26.5 -35.5t-10 -37.5v-226q0 -18 10 -37.5t26.5 -35.5t38.5 -26.5t45 -10.5h460q23 0 45 10.5t38.5 26.5t26.5 35.5t10 37.5zM409 571l52 -66
h186l-82 95h-312l-81 -95h186z" />
    <glyph glyph-name="FL00F5h" unicode="&#xf5;" horiz-adv-x="820" 
d="M346 568l-50 -63h-174l82 95h212l54 -63l50 63h174l-82 -95h-212zM760 110q0 -18 -10 -37.5t-26.5 -35.5t-38.5 -26.5t-45 -10.5h-460q-23 0 -45 10.5t-38.5 26.5t-26.5 35.5t-10 37.5v226q0 18 10 37.5t26.5 35.5t38.5 26.5t45 10.5h460q23 0 45 -10.5t38.5 -26.5
t26.5 -35.5t10 -37.5v-226zM520 110v226h-220v-226h220z" />
    <glyph glyph-name="FL00F6h" unicode="&#xf6;" horiz-adv-x="820" 
d="M167 505h191v95h-191v-95zM461 505h191v95h-191v-95zM300 110v226h220v-226h-220zM760 110v226q0 18 -10 37.5t-26.5 35.5t-38.5 26.5t-45 10.5h-460q-23 0 -45 -10.5t-38.5 -26.5t-26.5 -35.5t-10 -37.5v-226q0 -18 10 -37.5t26.5 -35.5t38.5 -26.5t45 -10.5h460
q23 0 45 10.5t38.5 26.5t26.5 35.5t10 37.5z" />
    <glyph glyph-name="FL00F7h" unicode="&#xf7;" horiz-adv-x="642" 
d="M240 380h161v110h-161v-110zM240 90h161v110h-161v-110zM582 345h-522v-110h522v110z" />
    <glyph glyph-name="FL00F8h" unicode="&#xf8;" horiz-adv-x="820" 
d="M760 336v-226q0 -18 -10 -37.5t-26.5 -35.5t-38.5 -26.5t-45 -10.5h-460q-23 0 -45 10.5t-38.5 26.5t-26.5 35.5t-10 37.5v226q0 18 10 37.5t26.5 35.5t38.5 26.5t45 10.5h460q23 0 45 -10.5t38.5 -26.5t26.5 -35.5t10 -37.5zM378 110h142v169zM440 336h-141v-169z" />
    <glyph glyph-name="FL00F9h" unicode="&#xf9;" horiz-adv-x="820" 
d="M520 505l-59 95h-185l88 -95h156zM760 446h-240v-336h-220v336h-240v-336q0 -18 10 -37.5t26.5 -35.5t38.5 -26.5t45 -10.5h460q23 0 45 10.5t38.5 26.5t26.5 35.5t10 37.5v336z" />
    <glyph glyph-name="FL00FAh" unicode="&#xfa;" horiz-adv-x="820" 
d="M358 600l-59 -95h156l87 95h-184zM760 446h-240v-336h-220v336h-240v-336q0 -18 10 -37.5t26.5 -35.5t38.5 -26.5t45 -10.5h460q23 0 45 10.5t38.5 26.5t26.5 35.5t10 37.5v336z" />
    <glyph glyph-name="FL00FBh" unicode="&#xfb;" horiz-adv-x="820" 
d="M409 571l52 -66h186l-82 95h-312l-81 -95h186zM760 446h-240v-336h-220v336h-240v-336q0 -18 10 -37.5t26.5 -35.5t38.5 -26.5t45 -10.5h460q23 0 45 10.5t38.5 26.5t26.5 35.5t10 37.5v336z" />
    <glyph glyph-name="FL00FCh" unicode="&#xfc;" horiz-adv-x="820" 
d="M167 505h191v95h-191v-95zM461 505h191v95h-191v-95zM760 446h-240v-336h-220v336h-240v-336q0 -18 10 -37.5t26.5 -35.5t38.5 -26.5t45 -10.5h460q23 0 45 10.5t38.5 26.5t26.5 35.5t10 37.5v336z" />
    <glyph glyph-name="FL00FDh" unicode="&#xfd;" horiz-adv-x="820" 
d="M760 -48v494h-240v-336h-220v336h-240v-336q0 -18 10 -37.5t26.5 -35.5t38.5 -26.5t45 -10.5h340v-48h-365v-110h485q23 0 45 10.5t38.5 26.5t26.5 35.5t10 37.5zM358 600l-59 -95h156l87 95h-184z" />
    <glyph glyph-name="FL00FEh" unicode="&#xfe;" horiz-adv-x="820" 
d="M760 110q0 -18 -10 -37.5t-26.5 -35.5t-38.5 -26.5t-45 -10.5h-274v110h154v226h-220v-473h-240v717h240v-134h340q23 0 45 -10.5t38.5 -26.5t26.5 -35.5t10 -37.5v-226z" />
    <glyph glyph-name="FL00FFh" unicode="&#xff;" horiz-adv-x="820" 
d="M760 -48v494h-240v-336h-220v336h-240v-336q0 -18 10 -37.5t26.5 -35.5t38.5 -26.5t45 -10.5h340v-48h-365v-110h485q23 0 45 10.5t38.5 26.5t26.5 35.5t10 37.5zM167 505h191v95h-191v-95zM461 505h191v95h-191v-95z" />
    <glyph glyph-name="FL0152h" unicode="&#x152;" horiz-adv-x="1522" 
d="M1462 0h-1282q-23 0 -45 10.5t-38.5 26.5t-26.5 35.5t-10 37.5v360q0 18 10 37.5t26.5 35.5t38.5 26.5t45 10.5h1282v-110h-518v-125h468v-110h-468v-125h518v-110zM704 110v360h-404v-360h404z" />
    <glyph glyph-name="FL0153h" unicode="&#x153;" horiz-adv-x="1318" 
d="M1258 278q0 -18 -10 -37.5t-26.5 -35.5t-38.5 -26.5t-45 -10.5h-274v110h154v58h-220v-226h444v-110h-1062q-23 0 -45 10.5t-38.5 26.5t-26.5 35.5t-10 37.5v226q0 18 10 37.5t26.5 35.5t38.5 26.5t45 10.5h958q23 0 45 -10.5t38.5 -26.5t26.5 -35.5t10 -37.5v-58z
M558 110v226h-258v-226h258z" />
    <glyph glyph-name="FL0160h" unicode="&#x160;" 
d="M482 668l-51 66h-186l81 -95h312l82 95h-186zM180 235h480v-125h-600v-110h720q23 0 45 10.5t38.5 26.5t26.5 35.5t10 37.5v125q0 18 -10 37.5t-26.5 35.5t-38.5 26.5t-45 10.5h-480v125h600v110h-720q-23 0 -45 -10.5t-38.5 -26.5t-26.5 -35.5t-10 -37.5v-125
q0 -18 10 -37.5t26.5 -35.5t38.5 -26.5t45 -10.5z" />
    <glyph glyph-name="FL0161h" unicode="&#x161;" horiz-adv-x="820" 
d="M760 110v58q0 18 -10 37.5t-26.5 35.5t-38.5 26.5t-45 10.5h-340v58h460v110h-580q-23 0 -45 -10.5t-38.5 -26.5t-26.5 -35.5t-10 -37.5v-58q0 -18 10 -37.5t26.5 -35.5t38.5 -26.5t45 -10.5h340v-58h-460v-110h580q23 0 45 10.5t38.5 26.5t26.5 35.5t10 37.5zM410 534
l-51 66h-186l81 -95h312l82 95h-186z" />
    <glyph glyph-name="FL0178h" unicode="&#x178;" horiz-adv-x="1068" 
d="M787 639h-191v95h191v-95zM493 639h-191v95h191v-95zM659 270v-270h-240v262l-383 318h299l247 -198l256 198h194z" />
    <glyph glyph-name="FL017Dh" unicode="&#x17d;" 
d="M475 668l-51 66h-186l81 -95h312l82 95h-186zM60 0h780v110h-456l444 350v120h-768v-110h456l-456 -360v-110z" />
    <glyph glyph-name="FL017Eh" unicode="&#x17e;" horiz-adv-x="755" 
d="M377 534l-52 66h-186l82 -95h312l81 95h-186zM695 0v110h-334l334 226v110h-635v-110h326l-326 -226v-110h635z" />
    <glyph glyph-name="FL0192h" unicode="&#x192;" horiz-adv-x="736" 
d="M60 -68v404q0 18 10 37.5t26.5 35.5t38.5 26.5t45 10.5h496v-110h-376v-117h326v-110h-326v-177h-240z" />
    <glyph glyph-name="FL02C6h" unicode="&#x2c6;" horiz-adv-x="547" 
d="M274 646l51 -66h186l-81 95h-312l-82 -95h186z" />
    <glyph glyph-name="FL02DCh" unicode="&#x2dc;" horiz-adv-x="643" 
d="M259 642l-49 -63h-174l82 95h212l54 -63l49 63h174l-81 -95h-213z" />
    <glyph glyph-name="FL2013h" unicode="&#x2013;" horiz-adv-x="528" 
d="M60 235v110h408v-110h-408z" />
    <glyph glyph-name="FL2014h" unicode="&#x2014;" horiz-adv-x="642" 
d="M60 345h522v-110h-522v110z" />
    <glyph glyph-name="FL2018h" unicode="&#x2018;" horiz-adv-x="282" 
d="M144 580q-42 0 -63.5 -23.5t-21.5 -50.5v-111h162v185h-77z" />
    <glyph glyph-name="FL2019h" unicode="&#x2019;" horiz-adv-x="282" 
d="M137 395q42 0 63.5 23.5t21.5 50.5v111h-162v-185h77z" />
    <glyph glyph-name="FL201Ah" unicode="&#x201a;" horiz-adv-x="281" 
d="M136 -72q42 0 63.5 23.5t21.5 50.5v108h-161v-182h76z" />
    <glyph glyph-name="FL201Ch" unicode="&#x201c;" horiz-adv-x="506" 
d="M145 580q-42 0 -63.5 -23.5t-21.5 -50.5v-111h162v185h-77zM370 580q-43 0 -64.5 -23.5t-21.5 -50.5v-111h162v185h-76z" />
    <glyph glyph-name="FL201Dh" unicode="&#x201d;" horiz-adv-x="506" 
d="M361 395q43 0 64 23.5t21 50.5v111h-162v-185h77zM137 395q42 0 63.5 23.5t21.5 50.5v111h-162v-185h77z" />
    <glyph glyph-name="FL201Eh" unicode="&#x201e;" horiz-adv-x="504" 
d="M359 -72q42 0 63.5 23.5t21.5 50.5v108h-161v-182h76zM136 -72q42 0 63.5 23.5t21.5 50.5v108h-161v-182h76z" />
    <glyph glyph-name="FL2020h" unicode="&#x2020;" horiz-adv-x="635" 
d="M197 0v350h-137v110h137v120h240v-120h138v-110h-138v-350h-240z" />
    <glyph glyph-name="FL2021h" unicode="&#x2021;" horiz-adv-x="635" 
d="M197 0v120h-137v110h137v120h-137v110h137v120h240v-120h138v-110h-138v-120h138v-110h-138v-120h-240z" />
    <glyph glyph-name="FL2022h" unicode="&#x2022;" horiz-adv-x="820" 
d="M760 402v-226q0 -18 -10 -37.5t-26.5 -35.5t-38.5 -26.5t-45 -10.5h-460q-23 0 -45 10.5t-38.5 26.5t-26.5 35.5t-10 37.5v226q0 18 10 37.5t26.5 35.5t38.5 26.5t45 10.5h460q23 0 45 -10.5t38.5 -26.5t26.5 -35.5t10 -37.5z" />
    <glyph glyph-name="FL2026h" unicode="&#x2026;" horiz-adv-x="782" 
d="M311 0h161v110h-161v-110zM562 0h160v110h-160v-110zM60 0h161v110h-161v-110z" />
    <glyph glyph-name="FL2030h" unicode="&#x2030;" horiz-adv-x="1693" 
d="M433 0h-194l560 580h195zM899 213v-135h134v135h-134zM1176 235v-180q0 -18 -18 -36.5t-42 -18.5h-300q-24 0 -42 18.5t-18 36.5v180q0 18 18 36.5t42 18.5h300q24 0 42 -18.5t18 -36.5zM203 503v-135h134v135h-134zM480 525v-180q0 -18 -18 -36.5t-42 -18.5h-300
q-24 0 -42 18.5t-18 36.5v180q0 18 18 36.5t42 18.5h300q24 0 42 -18.5t18 -36.5zM1356 213v-135h134v135h-134zM1633 235v-180q0 -18 -17.5 -36.5t-42.5 -18.5h-300q-24 0 -42 18.5t-18 36.5v180q0 18 18 36.5t42 18.5h300q25 0 42.5 -18.5t17.5 -36.5z" />
    <glyph glyph-name="FL2039h" unicode="&#x2039;" horiz-adv-x="234" 
d="M95 290l79 43v155l-114 -68v-260l114 -68v155z" />
    <glyph glyph-name="FL203Ah" unicode="&#x203a;" horiz-adv-x="234" 
d="M138 290l-79 43v155l114 -68v-260l-114 -68v155z" />
    <glyph glyph-name="FL20ACh" unicode="&#x20ac;" horiz-adv-x="1032" 
d="M60 423h166v47q0 18 10 37.5t26.5 35.5t38 26.5t45.5 10.5h626v-110h-506v-47h279v-110h-279v-46h279v-110h-279v-47h506v-110h-626q-24 0 -45.5 10.5t-38 26.5t-26.5 35.5t-10 37.5v47h-166v110h166v46h-166v110z" />
    <glyph glyph-name="FL2122h" unicode="&#x2122;" horiz-adv-x="398" 
d="M204 496v119q1 3 6 3q6 0 6 1v1q6 0 18 -11t18 -24l1 -7q7 -15 10.5 -26.5t6.5 -19.5q5 11 7 19.5t6 22.5q11 28 22.5 37t26.5 9h6v-124h-15v80l-6 9l-35 -81q-3 -6 -4.5 -7t-7.5 -1q-3 0 -5 1t-6 7l-35 79l-4 -7v-80h-16zM109 496v104h-49v20h120v-20h-49v-104h-22z" />
    <glyph glyph-name="FLE003h" horiz-adv-x="940" 
d="M690 0v336h-143v-336h-154v336h-143v-336h-200v446h352q6 0 16 -5.5t20.5 -13t19 -14.5t12.5 -11q4 4 12.5 11t19 14.5t20.5 13t16 5.5h252q19 0 37.5 -10.5t32 -26.5t22 -35.5t8.5 -37.5v-336h-200z" />
    </font>
</defs>
</svg>
