<?xml version="1.0" standalone="no"?>
<!DOCTYPE svg PUBLIC "-//W3C//DTD SVG 1.1//EN" "http://www.w3.org/Graphics/SVG/1.1/DTD/svg11.dtd" >
<svg xmlns="http://www.w3.org/2000/svg" xmlns:xlink="http://www.w3.org/1999/xlink" version="1.1">
<metadata>
Created by FontForge 20170731 at Sat Aug 30 15:06:00 2003
 By Aleksey,,,
Copyright (c) Typographer Mediengestaltung, 2000. All rights reserved. Digitized and hinted by Dieter Steffmann, Kreuztal.
</metadata>
<defs>
<font id="EnglishTowne-Medium" horiz-adv-x="686" >
  <font-face 
    font-family="English Towne"
    font-weight="500"
    font-stretch="normal"
    units-per-em="1000"
    panose-1="2 0 6 6 2 0 0 2 0 3"
    ascent="800"
    descent="-200"
    x-height="415"
    cap-height="622"
    bbox="-146 -240 1420 876"
    underline-thickness="50"
    underline-position="-155"
    unicode-range="U+000D-E002"
  />
<missing-glyph horiz-adv-x="500" 
 />
    <glyph glyph-name=".notdef" horiz-adv-x="500" 
 />
    <glyph glyph-name=".null" horiz-adv-x="0" 
 />
    <glyph glyph-name="nonmarkingreturn" horiz-adv-x="333" 
 />
    <glyph glyph-name="dotlessi" unicode="&#xd;" horiz-adv-x="248" 
d="M243 42l-4 7q-15 -6 -26 -6q-32 0 -41 19q-5 10 -5 16v212q14 6 27 20.5t21 37.5q0 8 2 14v11q-26 -13 -32 -13q-32 0 -72 58v-12q-3 -3 -6.5 -6l-3.5 -3q-9 -9 -15.5 -14.5t-11.5 -8.5q-20 -17 -32.5 -28.5t-22.5 -20.5l1 1l-2 -1l-2 -2l-1 1l-3 -6l14 -19l14 8
q8 -17 23 -18v-251q0 -31 30 -55q28 -22 62 -24z" />
    <glyph glyph-name="fraction" horiz-adv-x="296" 
d="M287 580q-36 -6 -41 -6q-16 0 -22 2h-1l-2 1q-3 0 -3 -1h-8v-6q-2 -8 -2.5 -13t-1.5 -10q0 -2 -0.5 -3.5t-0.5 -3.5v1l-180 -549q0 -1 -0.5 -2t-0.5 -2v1q-1 -2 -1 -5l-1 -2v-2l-3 -6q-2 -6 -4.5 -12t-4.5 -17q17 9 33.5 12.5t34.5 3.5h3h1h15l-4 7q-1 1 -1 9l-1 1
l182 562q5 14 9 17v1l1 1v1l2 4l3 3q2 5 3 6z" />
    <glyph glyph-name="fi" horiz-adv-x="478" 
d="M472 42l-4 7q-15 -6 -27 -6q-32 0 -41 19q-5 10 -5 16v213q32 13 48 59q1 9 3 14v11q-13 -6 -20.5 -9.5t-12.5 -3.5q-31 0 -73 58v-12q-3 -3 -6.5 -6l-3.5 -3q-11 -10 -17 -15.5t-9 -7.5q-17 -14 -27.5 -23t-16.5 -14v4q0 20 3 40v5l2 2v3l1 1v9q-8 -2 -14.5 -2.5
t-9.5 -0.5q-7 -4 -71 -4l-1 1v113l1 1h-1q7 1 10 4l2 1l2 2q21 -22 63 -22q9 0 10 1q26 1 50 20.5t32 45.5h-13l-2 -1q-33 0 -65 34q-8 10 -12 14.5t-6 6.5q-78 -94 -162 -94h-10t-11 2v-10l1 -2q4 -11 6 -15v1l1 -100h-1q-10 0 -11 1q-13 0 -14 1q-12 0 -21 3v-18l1 -2v-6
l1 -3v-26q-1 -5 -1 -21h8l1 1q26 0 37 3v-256q-39 -17 -53 -65q6 2 11.5 3t10.5 1l2 1h2q57 0 125 -59l108 103l-21 20l-22 -23q-11 7 -18 11t-9 6q-7 0 -15 5q-11 0 -17 3v248q8 -2 16 -2h20q1 0 1 -1h1h-1q2 -1 4 -1h5q5 -1 9.5 -1.5t8.5 -1.5q2 -1 6 -1l-1 -2l15 -20
l13 8q10 -17 24 -18v-251q0 -31 30 -56q30 -24 64 -24zM433 499v9h-6l-1 -1h-1l-1 -1h-1l-2 -2h1q-5 -2 -9 -2.5t-9 -2.5q-27 0 -55 37q-11 -7 -21 -14t-16 -12q-5 -4 -11 -8.5t-9 -6.5l2 2l-17 -8.5t-18 -12.5l14 -23l16 8q9 -30 48 -30l2 -1h10v-1h9q14 0 27.5 5.5
t24 15.5t17 22.5t6.5 26.5z" />
    <glyph glyph-name="fl" horiz-adv-x="493" 
d="M487 37l-21 26l-16 -14l-3 3q-1 2 -2.5 3.5t-2.5 3.5q-4 2 -2 0q-10 7 -18.5 12.5t-14.5 8.5v427q0 16 7 43q4 14 7 25t7 19l-6 4q-60 -48 -93 -57q3 5 6 10.5t5 11.5h-14l-2 -1q-33 0 -64 34q-8 9 -12.5 13.5l-6.5 6.5q-77 -93 -162 -93h-10t-11 2v-10l1 -2q2 -5 3.5 -9
t2.5 -6v1l1 -100h-1q-10 0 -11 1q-13 0 -14 1q-12 0 -21 3v-18l1 -2v-6l1 -3v-26q-1 -5 -1 -21h8l1 1q26 0 37 3v-256q-39 -17 -53 -65q6 2 11.5 3t10.5 1l2 1h2q57 0 125 -59l108 103l-21 20l-22 -23q-11 7 -17.5 11t-8.5 6q-8 0 -16 5q-11 0 -17 3v248q8 -2 16 -2h20
q1 0 1 -1h1h-1q2 -1 4 -1h4q31 -6 39 -6l1 -1h13l-6 7v10l-1 2v5q0 20 3 40v5l1 2v3l1 1v9q-8 -2 -14.5 -2.5t-9.5 -0.5q-7 -4 -71 -4l-1 1v113l1 1h-1q7 1 10 4l2 1l2 2q21 -22 63 -22q9 0 11 1q21 0 44 15q0 -1 0.5 -2l0.5 -1l6 -31v-408q-27 -14 -49 -50q73 -17 125 -62z
" />
    <glyph glyph-name="Lslash" horiz-adv-x="606" 
d="M18 111l22 -37l79 50q-1 -37 -24 -73q72 7 115 76q16 25 16 40v23l32 20v-29q0 -2 -0.5 -3.5t-0.5 -3.5v1q-1 -5 -1 -9v-5q-2 -18 -10 -33t-22 -29h15q5 0 8 1q2 0 4 0.5t4 0.5q1 1 2 1q2 0 4 1h-1q13 5 20 6.5t12 5.5v-1q14 6 27 17t23.5 24.5t17 29t6.5 29.5v64
l229 142l-23 36l-206 -128v190q0 7 10 20q11 19 45 19l1 -1h6l2 -1h3q8 -6 15 -10.5t13 -7.5q8 -7 12.5 -9.5t7.5 -4.5l6 -6q1 -2 2.5 -3t3.5 -3l-17 -20l26 -24l90 101q-11 19 -41 34q-48 19 -65 19h-4q-57 0 -137 -52q-87 -56 -87 -110v-198l-32 -21l2 210q0 4 12 40l-5 2
h-1l-2 1l-1 -1q-28 -2 -65 -31q-42 -29 -46 -57q-1 -5 -1 -19v-37q-13 -2 -23.5 -3.5t-20.5 -3.5q-60 -23 -60 -78q0 -9 1 -11q1 -17 14.5 -32.5t30.5 -15.5h4l1 1h5v7l-1 1q1 11 10 18t20 7h3q5 -4 9.5 -5.5t6.5 -3.5v-55zM601 67l-28 22l-14 -17l-4 2l-1 1l-2 1v-1
q-1 1 -5 3h2l-4 3q-9 2 -11 4v193q18 8 18 32q0 14 -10.5 25.5t-24.5 11.5t-25 -11.5t-11 -25.5q0 -24 17 -30v-185q-45 15 -105 15q-91 0 -178 -35q-51 -20 -86 -50t-57 -72q11 5 20.5 10.5t16.5 7.5q75 34 174 34q115 0 226 -47zM315 593q-5 -2 -7 -4q-6 -2 -10 -3t-7 -1
q-20 0 -66 17q-23 8 -42.5 12.5t-36.5 4.5q-54 0 -85 -34.5t-31 -90.5v-10q11 9 18.5 14.5t11.5 6.5q7 7 13 7q4 3 15 3l1 1q3 0 12 -1.5t15 -3.5q2 -1 6 -1q3 -1 7 -3q1 -2 8 -2q30 -12 55 -12q42 0 80 27q43 27 48 69z" />
    <glyph glyph-name="lslash" horiz-adv-x="240" 
d="M-3 225l18 -40l45 19v-134q-26 -15 -48 -50q73 -18 123 -62l100 79l-20 26l-16 -14l-3 3q-1 2 -2.5 3.5t-2.5 3.5q-4 2 -2 0q-10 7 -18.5 12.5t-13.5 8.5v169l68 31l-18 40l-50 -24v211q0 13 6 43q4 14 7 25t7 19l-5 4q-75 -60 -110 -60q-3 0 -6 0.5t-9 3.5v-13l1 -2
q1 -2 1 -5l1 -1l2 -3q0 -5 1 -7v1q0 -1 0.5 -1.5t0.5 -1.5l6 -31v-224z" />
    <glyph glyph-name="Zcaron" horiz-adv-x="523" 
d="M517 79l-26 17l-17 -20l-28 8q-51 13 -98 13q-85 0 -190 -39q32 26 59 58t50 67q14 25 27 49t24 49l111 -10l49 99h-9q-5 -1 -9.5 -1.5t-9.5 -0.5l-2 -1q-10 0 -20 -3h1l-43 -5q-15 -2 -25.5 -3t-16.5 -1q14 45 35 89.5t48 89.5q22 31 36 50.5t23 28.5l-15 19
q-77 -44 -181 -44q-68 0 -128 27q-32 13 -40 22l-96 -119l21 -20l19 18q27 -27 96 -27q77 0 183 43q-48 -50 -80 -95t-50 -85q-64 0 -106 13l-43 -107q14 2 27.5 5.5t28.5 8.5q20 3 36 5t28 3q-73 -204 -172 -292l8 -26q21 8 37 13.5t27 8.5q69 18 144 18h11q8 0 19 -1
t18 -1h9q21 0 68 -14q24 -7 40 -14t27 -15zM439 804q-11 11 -24 25.5t-30 34.5q-40 -46 -85 -83q-45 39 -85 82q-15 -17 -29.5 -32.5t-28.5 -29.5q26 -20 61 -53.5t82 -84.5q92 99 138 135z" />
    <glyph glyph-name="zcaron" horiz-adv-x="368" 
d="M364 413l-33 15q-6 -7 -10.5 -11.5t-7.5 -9.5v1q-38 -38 -86 -38q-61 0 -110 64l-93 -97q61 -51 124 -51q27 0 54.5 7t54.5 24l-54 -81q-8 0 -10 -1h-36q-50 0 -74 15q0 -60 -27 -94q12 4 31.5 6.5t45.5 2.5h17h6l-121 -179l31 -21l20 31q13 17 39 37q28 19 47 19
q17 0 39 -22q20 -20 20 -37v-5l1 -1v-2q0 -43 -29 -75q-29 27 -63 27q-13 0 -15 -1q-43 -7 -74 -42t-38 -83l9 10h1q2 1 4.5 2.5t7.5 6.5h-1q25 17 46 17q35 0 87 -46l73 87q2 4 7 9.5l5 5.5q6 9 13 16v-1q2 2 2.5 3t2.5 3q28 35 37 49q21 31 21 65q0 39 -26.5 65t-65.5 26
q-14 0 -32 -6t-44 -17l41 61q26 -3 44.5 -4t31.5 -3q9 0 16.5 -1t9.5 -1v11l-1 1q0 34 30 73h-13l-1 -1h-5l-1 -1q-3 0 -8.5 -0.5t-10.5 -1.5q-8 -1 -14 -1.5t-9 -0.5h-14q-5 0 -9 1zM343 597q-11 11 -24 26.5t-30 35.5q-23 -26 -43.5 -47.5t-40.5 -36.5q-20 16 -41 37
t-44 47q-16 -20 -30 -36.5t-26 -28.5q25 -18 60 -52t81 -84q46 50 80 83t57 50z" />
    <glyph glyph-name="space" unicode=" " horiz-adv-x="353" 
 />
    <glyph glyph-name="exclam" unicode="!" horiz-adv-x="229" 
d="M219 533q-26 -6 -29 -6q-26 0 -72 61v-10q-69 -76 -111 -76q5 -5 11 -11.5t8 -9.5l10 -10l4 -2q12 -6 20 -10.5t13 -8.5l43 -316h29l29 313q14 14 21.5 22t10.5 13q18 25 18 47zM207 34l-77 81l-78 -81l78 -77z" />
    <glyph glyph-name="quotedbl" unicode="&#x22;" horiz-adv-x="406" 
d="M376 536q0 42 -65 84q-17 -21 -38.5 -42t-49.5 -41q56 -24 56 -56q0 -24 -34 -49l13 -14q118 45 118 118zM198 536q0 42 -63 84q-36 -42 -89 -83q56 -24 56 -56q0 -25 -33 -48l11 -15q118 45 118 118z" />
    <glyph glyph-name="numbersign" unicode="#" horiz-adv-x="471" 
d="M395 178q1 17 5 34.5t12 36.5q-20 -3 -40 -4t-42 -1l21 78q24 0 43 -0.5t33 -2.5q2 31 17 71q-15 -2 -34.5 -3t-42.5 -1q11 42 26 88t35 97q-12 -2 -22.5 -3t-19.5 -1q-8 0 -17.5 1t-21.5 3q-5 -30 -15 -78t-24 -109q-12 -1 -23 -1h-21h-13t-17 1h-5q10 38 25.5 85
t35.5 102q-12 -2 -22.5 -3t-19.5 -1q-18 0 -38 4q-5 -25 -13.5 -64t-19.5 -90q-2 -8 -3 -15.5t-3 -15.5q-61 0 -81 4q-1 -18 -5 -36t-10 -35q20 2 39 2.5t39 0.5l-20 -78q-26 0 -44.5 1t-30.5 4q-2 -32 -19 -71q33 3 78 3q-11 -41 -26.5 -86.5t-33.5 -96.5h9q8 1 16.5 1.5
t16.5 0.5q12 0 21 -0.5t17 -1.5q5 28 14.5 71.5t22.5 100.5q1 3 1 6t1 6q12 1 23 1.5t22 0.5h12q8 0 18 -1q1 0 2 -0.5t3 -0.5q-10 -37 -25.5 -82.5t-36.5 -101.5h9q9 1 17 1.5t17 0.5q12 0 21 -0.5t17 -1.5q5 28 15.5 74t24.5 109q54 0 80 -3zM228 242h-36l21 81
q2 0 3.5 0.5t3.5 0.5q11 1 19 1h17h12q8 0 16 -1h4q3 0 5 -1l-22 -81q-13 -1 -24 -0.5t-19 0.5z" />
    <glyph glyph-name="dollar" unicode="$" horiz-adv-x="406" 
d="M402 17q-15 28 -15 33l-1 166h-2q5 7 8 22q0 1 2.5 3.5l5.5 5.5q-72 13 -112.5 22.5t-52.5 14.5v150q13 -4 28 -4q104 0 124 90q-5 0 -8 -1t-5 -2q-6 -2 -10 -3t-6 -1q-43 0 -78 49q-8 -6 -14 -10q-2 -2 -4.5 -3.5t-3.5 -2.5l1 1l-2 -1q-15 -12 -22 -12v47h-40v-60
q-56 -24 -119 -24q-10 0 -11 1h-29q8 -9 8 -12q0 -2 1 -4v-6h1q1 -5 2.5 -8t3.5 -6v-138q0 -16 -11 -30v1q-2 -2 -2 -6v2h2l3 -3l-4 -3q16 -4 32 -4q49 -8 79.5 -14.5t43.5 -9.5v-177q-20 8 -51 8h-10q-1 -1 -13 -1q-11 -4 -18 -5q-8 -2 -12.5 -2.5t-6.5 -1.5
q-57 -20 -73 -79q27 15 52 15q49 0 89 -38l16 -16l5 4q20 15 22 17v-41h40v60q69 20 111 20h8q3 -1 16 -1q2 -1 12 -1l2 -1h18zM268 52h-3l-1 -1l-4 -2q-3 -1 -7 -1.5t-6 -1.5l-12 14v187l42 -11v-182l-1 -1h-6zM165 464l2 1h1q3 0 7 2q1 0 2 1h1l4 2l2 1h2l1 1l8 -8v-169
l-35 9v160h5z" />
    <glyph glyph-name="percent" unicode="%" horiz-adv-x="608" 
d="M258 529v11h-6l-1 -1h-2l-1 -1h-2q-2 0 -3.5 -0.5t-2.5 -0.5q-2 -1 -4 -1l-2 -1h-1q-19 0 -50 36q-41 -41 -113 -41h-4l-3 1q-7 0 -15 2l-1 1h-2l-8 9v-12l-1 -1v-3q0 -16 8 -21v-215q-9 -5 -19 -17.5t-10 -20.5v-8h7l1 1q3 0 4 1l2 1h8v1h2l2 -1h3q4 -1 10 -3l9 -3
q20 -10 32 -22q29 24 59 29l28 4h7q35 0 52 -9v11l-1 2v5l-1 1q-2 4 -5 13l-2 2v218q10 2 18 12t8 21zM600 274v12h-7l-2 -2h-3l-2 -2h-1q-8 -2 -12 -2h-3l-1 1q-12 2 -22 13q-1 1 -2 2.5t-3 3.5v-1q-5 6 -8.5 10t-8.5 9q-43 -43 -112 -43h-3l-2 1q-8 0 -9 1h-2l-2 1h-5
l-1 1h-2l-9 9v-12l-1 -1v-3q0 -12 8 -18v-217q-1 0 -1.5 -0.5l-0.5 -0.5h1q-8 -7 -13 -10l-5 -3q-4 -7 -7 -12t-4 -7q0 -7 4 -11l5 2h-1q5 2 7 2t5 1v1h4q8 0 25 -6q8 -6 17 -11.5t14 -9.5q2 -1 1.5 -1.5t1.5 -1.5q5 5 13.5 10.5t18.5 10t19 7.5t15 3h43q8 0 16.5 -2
t18.5 -5v11l-1 1v2l-1 2q0 4 -1 6l-2 2l-4 9v216q10 2 18.5 12t8.5 20zM609 569l-117 -14v-9l1 -1v-3h1l1 -1q-1 -5 -17 -21l-358 -451q-13 -17 -36.5 -39.5t-55.5 -49.5l119 20q-9 7 -10 8q2 16 31 51v-1l332 413q17 20 37.5 39.5t46.5 39.5v-1l2 1q6 6 9.5 8t5.5 4z
M166 275h-8l-2 -1h-4l-1 -1q-15 9 -25.5 15.5t-18.5 10.5v211q3 0 5 1q3 0 5.5 0.5t4.5 0.5l2 1h5h1q4 -4 15 -11q14 -10 22 -10v-216zM507 22h-5l-1 -1h-4l-1 -1h-3q-5 2 -8 4t-1 0q-13 8 -22 13t-14 8v211q1 0 2 0.5t3 0.5q3 1 6 1h6l1 1h2l1 1h2q19 -21 37 -21v-216z" />
    <glyph glyph-name="ampersand" unicode="&#x26;" horiz-adv-x="596" 
d="M584 299q-24 -9 -37 -9q-44 0 -53 63q-5 -8 -10.5 -17t-12.5 -17q-14 -16 -17 -16l-79 -84l-24 49q-10 18 -19 34t-19 33l134 130q-27 28 -46 48.5t-28 31.5q-22 26 -38 46.5t-24 31.5q-7 -6 -14.5 -12.5t-12.5 -11.5q-16 -14 -23 -20q-30 -26 -59 -50t-56 -45
q-17 -13 -32 -22t-30 -17v-7q48 -39 85 -90l11 -18q6 -10 14 -22t12 -17l-194 -192q27 -26 49 -47.5t36 -35.5l31 -31l14.5 -14.5t8.5 -10.5h-1q1 -2 2 -2t2 -2t2.5 -4t6.5 -4l146 145q26 -54 53.5 -87.5t54.5 -47.5q24 -11 54 -11h6l2 1h7l2 1q6 0 14.5 3.5t20.5 8.5
q64 37 64 89v10l-1 2v3l-1 2v4l-1 1v9q-40 -40 -62 -40q-67 0 -127 142l26 27q11 -9 27 -13t34 -4q21 0 40.5 8t34 21.5t23.5 32.5t10 40zM159 127q-10 5 -16 11t-10 11q-2 2 -3.5 3t-2.5 2l101 99q13 -21 21 -36.5t16 -32.5q0 -2 1 -3l4 -8v2q0 -1 0.5 -1.5t0.5 -1.5
q3 -8 6.5 -14t5.5 -11q3 -9 6 -15l-68 -75q-18 22 -33 39t-29 31zM286 372l-12 18q-15 26 -35 50l-39 40l51 43q2 -4 5.5 -8.5t7.5 -10.5q11 -18 18 -23q16 -21 29 -36t26 -25l-50 -51q0 1 -1 3zM135 148q-1 0 -2 1v1z" />
    <glyph glyph-name="quotesingle" unicode="'" horiz-adv-x="164" 
d="M157 514v3q0 69 -71 82l-73 -76v-6q6 -4 12.5 -7.5t11.5 -7.5h-1l5 -5h1q19 -19 19 -35q0 -22 -38 -52h9v-1h6q69 0 104 57q11 20 13 34q0 2 1 3v8z" />
    <glyph glyph-name="parenleft" unicode="(" horiz-adv-x="214" 
d="M209 6l-5 3l-5 5q-44 53 -72 129q-14 38 -21 74.5t-7 71.5l1 2v14l-1 1q0 72 59 178q1 4 5 10q18 29 25 41v-1q6 6 9.5 12t5.5 13l-99 94q0 -38 -8 -62v1q-3 -6 -5.5 -11.5t-5.5 -11.5q-2 -5 -4 -10.5t-6 -14.5v1q-31 -72 -47 -128.5t-16 -100.5q0 -72 23 -133
q16 -48 63 -120q2 -3 9 -12.5t20 -25.5q8 -11 14 -20t10 -18q5 -15 8 -29.5t3 -31.5z" />
    <glyph glyph-name="parenright" unicode=")" horiz-adv-x="213" 
d="M117 -69q0 39 17 75q7 14 11.5 23.5t6.5 14.5q56 133 56 217q0 126 -75 239l-6 8l-6 8q-12 17 -21.5 29.5t-15.5 21.5q-14 17 -20 36t-6 36q1 2 1 7l-6 2l-41 -73l5 -5q21 -21 55 -89q50 -99 50 -190v-26q0 -9 -1 -14q-4 -36 -20.5 -78.5t-45.5 -93.5q-13 -22 -22 -35
t-16 -20z" />
    <glyph glyph-name="asterisk" unicode="*" horiz-adv-x="338" 
d="M339 466q-26 30 -33 51v1l-1 1l-1 3v1q-4 7 -4 32l1 1v11h-6l-3 -3h1q-21 -12 -22 -12h-3q-3 -1 -5.5 -2t-4.5 -1q-26 -9 -33 -12h-1q-6 2 -6 6v48q0 14 5 23l1 1q0 1 0.5 5.5l0.5 4.5q-14 -5 -26 -8.5t-20 -3.5v1h-10l-1 -1q-17 0 -49 13q0 -3 0.5 -8t2.5 -9
q2 -5 3 -9.5t1 -6.5l1 -3v-48q0 -3 -5 -5v1l-46 12q-7 1 -16 10h-1l-2 2l-2 1q-4 4 -5 5.5t-6 7.5v-31q-1 -3 -2 -7t-1 -6q-1 -2 -1 -5v-2v-3l-1 -1v-3l-1 -1v-2q-4 -4 -4 -7q-6 -11 -11.5 -20.5t-12.5 -15.5q9 -3 18 -3l2 -1h11l1 -1h9l1 1l40 -16l-1 1l2 -2v-3v-1v-5
q-12 -15 -19 -23.5t-12 -13.5l2 1q-8 -6 -18 -11.5t-18 -9.5q29 -11 52 -29t40 -44v12l1 1q4 10 5.5 14.5l1.5 4.5q8 11 16 21t14 18v-1l1 1q0 1 1 2h1q1 1 3 2h1l1 1q3 0 5 2l2 -1h2q1 -2 5 -2l2 -1l1 -1h4q21 -29 26.5 -39t6.5 -13q1 -1 1.5 -2.5l0.5 -1.5v-3l1 -2l4 -8
q32 48 86 67l-7 7h-3l-2 2l-2 1l-1 1l-3 2q-2 2 -5 3.5l-3 1.5l-1 1q-4 4 -4 6l-29 34v2l-2 2v1l3 6l1 1q38 13 47 13l1 1h10l1 1h9v1zM225 473q0 -23 -15 -38.5t-37 -15.5q-23 0 -38.5 15.5t-15.5 38.5q0 45 50 54v-1q56 -4 56 -53zM205 473q0 25 -36 36v-4q-29 -5 -29 -32
q0 -33 33 -33q12 0 22 10.5t10 22.5z" />
    <glyph glyph-name="plus" unicode="+" horiz-adv-x="584" 
d="M549 214v55h-225v223h-57v-223h-225v-55h225v-223h57v223h225z" />
    <glyph glyph-name="comma" unicode="," horiz-adv-x="166" 
d="M157 36v6q0 74 -71 81l-73 -75v-6q48 -30 48 -51q0 -23 -38 -53h16q67 0 105 59q13 20 13 39z" />
    <glyph glyph-name="hyphen" unicode="-" horiz-adv-x="225" 
d="M215 234q-28 -2 -45 -3t-25 -2h-66q-22 0 -32 2l2 -1l-8 1q-1 -2 -1 -3t-1 -7q0 -27 -27 -81h11h6q5 0 12 1h72q31 0 55 -3h-1q11 -2 14 -2t9 -1v7l2 -3v3h-1q0 4 -1 6v7q0 35 27 74z" />
    <glyph glyph-name="period" unicode="." horiz-adv-x="167" 
d="M163 32l-75 78l-77 -78l77 -74z" />
    <glyph glyph-name="slash" unicode="/" horiz-adv-x="296" 
d="M287 580q-36 -6 -41 -6q-16 0 -22 2h-1l-2 1q-3 0 -3 -1h-8v-6q-2 -8 -2.5 -13t-1.5 -10q0 -2 -0.5 -3.5t-0.5 -3.5v1l-180 -549q0 -1 -0.5 -2t-0.5 -2v1q-1 -2 -1 -5l-1 -2v-2l-3 -6q-2 -6 -4.5 -12t-4.5 -17q17 9 33.5 12.5t34.5 3.5h3h1h15l-4 7q-1 1 -1 9l-1 1
l182 562q5 14 9 17v1l1 1v1l2 4l3 3q2 5 3 6z" />
    <glyph glyph-name="zero" unicode="0" horiz-adv-x="446" 
d="M439 500v15q-28 -11 -41 -11q-31 0 -88 65q-71 -72 -192 -72q-46 0 -64 14v-13l-1 -2v-4q0 -20 13 -33v-383q-19 -11 -35 -32t-16 -38v-3l4 -4q4 2 6 2q1 0 2.5 0.5t3.5 0.5q20 4 23 4h6l38 -8q20 -9 57 -41q65 58 169 58q30 0 83 -15v12q-2 5 -2 9t-1 7t-1.5 6l-0.5 3
q-2 3 -4.5 7.5t-5.5 9.5v388q18 2 32.5 19.5t14.5 38.5zM280 47q-7 -4 -21 -4h-4q-8 5 -17 10.5t-22 13.5q-31 15 -40 17l-1 1h-2h-1l-1 1v382q32 0 43 7q38 -39 70 -40v-387h-2z" />
    <glyph glyph-name="one" unicode="1" horiz-adv-x="313" 
d="M311 63l-25 27l-21 -23q-11 8 -19 14t-15 8h1q-8 3 -10.5 4t-5.5 2v351q0 98 -47 127q-36 -38 -106 -57q-8 -3 -14 -3q-4 0 -7 1q-1 0 -3.5 0.5t-3.5 0.5v-30q11 -2 21 -4l15 -3q15 -5 27 -20.5t12 -29.5v-338q-39 -12 -67 -45l-3 -3q-5 -5 -13.5 -15.5t-15.5 -19.5
l28 -15q8 11 46 11q71 0 113 -50z" />
    <glyph glyph-name="two" unicode="2" horiz-adv-x="411" 
d="M407 57l-28 25l-18 -20q-65 48 -132 48q-81 0 -147 -72v7q0 5 1 11q0 5 0.5 9t0.5 7q0 5 0.5 8t0.5 5v80h-1q2 13 11 24q24 29 124 64q88 29 150 35q-15 30 -15 36v140q0 19 22 41h-13l-1 -1h-7h-1h-7l-2 -1h-2q-49 0 -96 16q-58 20 -81 57q-45 -57 -98 -57q-31 0 -53 15
q0 -56 47 -85q34 -22 81 -22q56 0 94 51l8 -2v-143q0 -26 -62 -50q-30 -12 -36 -12h-1h-2l-2 -1h1l-11 -4q-12 -5 -19.5 -7.5t-11.5 -4.5q-37 -16 -54 -34q-17 -20 -19 -61l-1 -64q-1 -38 -2.5 -72t-5.5 -69q65 51 152 51q74 0 139 -53z" />
    <glyph glyph-name="three" unicode="3" horiz-adv-x="416" 
d="M409 12q-15 30 -15 50v157q0 13 13 38h-19l-1 -1q-36 0 -37 1q-60 0 -78 13q12 8 57 17l78 13q-18 18 -18 41v127q0 21 18 56q-43 -22 -74 -22q-79 0 -149 71q-44 -53 -84 -53q-4 0 -7 1q-1 0 -1.5 0.5t-1.5 0.5q-13 0 -29 21v-14l-1 -1v-4q0 -28 26 -52q39 -35 103 -35
q9 0 11 1q44 0 73 33l7 -1v-147q-47 -32 -85 -32q-26 0 -48 22v-91q46 23 53 23h3q23 0 59 -14h-1q5 -2 8.5 -4t7.5 -4h-1l1 -1q5 -5 8 -6v-166q-13 9 -29 16.5t-34 14.5q-9 2 -15.5 2.5t-11.5 1.5q-2 0 -3 0.5t-3 0.5h-5q-37 0 -62 -9q-91 -30 -110 -112q48 34 86 34
q49 0 93 -49q21 27 52 42h-1q10 4 25 8.5t38 9.5q11 2 20 3.5t18 1.5q34 0 61 -9z" />
    <glyph glyph-name="four" unicode="4" horiz-adv-x="458" 
d="M453 60l-27 26l-21 -24q-9 8 -16.5 12.5t-13.5 8.5v48q7 -1 14 -1.5t14 -2.5l-1 1q11 -7 23 -14.5t26 -18.5v119q-35 -31 -47 -31h-29v261l1 1h-1q18 12 26 22q7 10 15 27q0 3 1 4v11q-9 -3 -15.5 -4t-11.5 -1q-12 0 -25 3q-16 5 -60 67v-11l-54 -67q-60 -66 -86 -89
q-37 -38 -75.5 -73t-77.5 -68q14 -19 19 -34v-2l1 -2v-68l-2 -2v-5l-1 -1v-2q-3 -8 -4 -10l-3 -6l-1 -2l250 -1v-50l-1 -1h-2l-2 -1q-8 -3 -28 -17q-42 -29 -54 -67q34 9 59 9q63 0 113 -47zM133 315l138 135v-267h-138v132z" />
    <glyph glyph-name="five" unicode="5" horiz-adv-x="427" 
d="M415 335q-25 -7 -31 -7q-55 0 -102 59l-162 -75v137l191 -2q34 0 54 23q6 9 13.5 19.5t13.5 19.5q3 4 5.5 7.5t4.5 7.5q12 15 14 31h-337v-259l-37 -15l42 -63l37 44l82 36q21 -22 29 -23l-2 1q-2 3 -1 2.5t9 -7.5q-3 1 5 -3t16 -7l8 -3l1 -1v-194l-15 -6q-48 30 -91 30
h-2l-2 1h-7q-120 0 -138 -101q30 21 63 21q45 0 100 -52q62 70 147 70h1q3 -1 16 -1q2 0 3.5 -0.5t3.5 -0.5q3 0 5 -1h-1q2 -1 15 -1q9 -3 16 -3h10q-20 28 -20 61v187q44 27 48 64z" />
    <glyph glyph-name="six" unicode="6" horiz-adv-x="433" 
d="M426 299v19q-25 -13 -27 -13h-2q-43 0 -78 59q-7 -7 -10 -9.5t-4 -3.5v1q-3 -2 -5 -5l1 1q-5 -5 -9.5 -7.5t-8.5 -4.5q-15 -10 -30 -13l-85 -42v183l21 5q35 -44 91 -44q42 0 74 18q42 24 43 70q-23 -13 -29 -13l-1 -1h-14l-1 1q-47 12 -65 55l-6 -1v-1
q-128 -64 -207 -64h-6l-3 1q-19 0 -25 3l-5 -5l3 -3l1 -1l4 -4v1q6 -8 11 -18t10 -21v2l1 -374q-50 -31 -50 -76q19 12 47 12q46 0 114 -47q72 54 171 54h2l3 -1q2 0 4.5 -0.5t5.5 -0.5q2 0 5 -0.5t7 -0.5t6.5 -0.5t4.5 -0.5q3 0 7.5 -0.5t6.5 -0.5q-3 14 -4 15l-2 1
q-1 5 -1 6q0 2 -1 5h-1q-5 10 -5 24v191q12 5 25 19t14 24l1 1v4zM169 84v158l67 30h1q23 -30 44 -34v-192l-28 -8q-41 27 -84 46z" />
    <glyph glyph-name="seven" unicode="7" horiz-adv-x="434" 
d="M427 555l-27 14q-57 -58 -130 -58q-78 0 -163 70v-11q-15 -20 -23 -31t-10 -16v1q-27 -31 -41.5 -48t-19.5 -20l26 -26l18 18q29 -30 101 -30q50 0 113 20q3 2 5 2t5 2h-1q11 5 16 7t8 4t6.5 3t6.5 3q-14 -15 -27.5 -34.5t-28.5 -42.5q-167 -257 -205 -432q44 44 87 44
q37 0 95 -43q-4 27 -6 51t-2 44q0 221 198 503z" />
    <glyph glyph-name="eight" unicode="8" horiz-adv-x="433" 
d="M421 511q-9 -2 -16 -3t-12 -3q-29 0 -44 10h1l-6.5 6.5l-9.5 9.5t-9.5 10.5t-7.5 8.5l-1 1q-3 3 -3 4l-1 2l-6 6q-45 -32 -124 -52q-65 -17 -136 -18q2 -4 4.5 -11t7.5 -16v-1l1 -1q0 -3 2 -7l2 -6v2l1 -132l-9 -34q42 -4 71.5 -9t46.5 -11q-31 -10 -95 -10h-5l-2 1h-7
l-8 7q0 -1 0.5 -6.5t0.5 -6.5q5 -17 7 -29v-157q-49 -43 -50 -75q12 8 22.5 10.5t18.5 3.5q6 0 8 1h2q24 0 47.5 -12.5t49.5 -35.5q94 57 183 57h1q3 -1 16 -1q5 -3 12 -3.5t18 -0.5q3 0 5.5 0.5t7.5 2.5l-15 33v183l14 29h-27q-1 -1 -17 -1q-58 0 -77 10v1l28 9q55 9 89 9
l-10 26v143q32 20 36 51zM278 47h-2q-11 0 -30 -7q-7 3 -8 6l-3 2v-1q-27 19 -62 30v147l7.5 3t6.5 3q5 2 9.5 3t7.5 2q4 0 11 5q4 0 16 5q38 -19 51 -22v-175h-2zM251 301q-2 -1 -1.5 -0.5t-1.5 -0.5q-11 -6 -18 -12q-8 4 -12.5 5.5t-7.5 3.5q-2 1 -3 1t-2 1l-1 1h-4h1
l-28 14v154h1q2 0 5 1q2 1 8.5 2.5t14.5 3.5q4 2 8 2.5t7 1.5q31 -32 45 -33q6 -7 20 -12v-121q-7 -3 -15 -6.5t-16 -5.5z" />
    <glyph glyph-name="nine" unicode="9" horiz-adv-x="448" 
d="M437 491h-3l-1 -1h-3q-6 -6 -21 -6q-43 0 -92 78v-12q-115 -64 -262 -64q2 -5 2.5 -8.5t2.5 -5.5l2 -4v-4q1 0 1.5 -1l0.5 -1l1 -2q0 -3 1 -6.5t2 -5.5l1 -2v-201q-18 -8 -29.5 -21.5t-22.5 -32.5h17l2 1q74 -2 144 -58q27 28 55 47q16 10 29 18.5t23 14.5v-168
q-11 -1 -20 -5q-16 18 -42 31.5t-49 13.5l-1 1h-12q-26 0 -51 -9t-45 -25t-34.5 -38t-20.5 -48l8 4q17 14 34 20t34 6q45 0 109 -38q67 49 151 49q29 0 66 -10l-11 11q-1 2 -1 4l-1 1q-1 4 -1 6t-2 4q-2 6 -2.5 8.5t-0.5 3.5v390q46 29 46 61zM273 252v1q-6 -3 -13 -7
t-12 -7q-6 -4 -10 -6t-6 -4q-21 14 -28.5 18.5t-8.5 5.5q-12 0 -18 6v198q-1 0 7 1.5t13 2.5q3 1 7 1l1 1q4 0 6 1h-2q1 0 1.5 0.5t1.5 0.5q9 1 18 5q21 -35 56 -41v-170l-7 -3.5t-6 -3.5z" />
    <glyph glyph-name="colon" unicode=":" horiz-adv-x="167" 
d="M163 255l-75 80l-77 -80l77 -80zM163 33l-75 81l-77 -81l77 -76z" />
    <glyph glyph-name="semicolon" unicode=";" horiz-adv-x="167" 
d="M157 18v4q0 69 -71 82l-73 -77v-5q48 -29 48 -55l-1 -2v-2l-8 -18l-8 -8t-7 -9l-13 -13h15q67 0 108 65q6 14 8 23t2 15zM163 274l-75 82l-77 -82l77 -79z" />
    <glyph glyph-name="less" unicode="&#x3c;" horiz-adv-x="728" 
d="M246 83q0 25 -15.5 43.5t-40.5 18.5q-37 0 -37 -38t39 -38q5 0 15 2q-5 -40 -43 -40q-37 0 -68 36q-29 37 -29 84q0 55 37 94q40 40 89 40q62 0 122 -69l107 -129q70 -71 156 -71q61 0 101 41q41 40 41 101q0 19 -6 36.5t-16 30.5t-23.5 20.5t-27.5 7.5q-22 0 -36 -14
t-14 -34q0 -18 17 -42q4 40 28 40q31 0 31 -49q0 -35 -20.5 -59.5t-52.5 -24.5q-45 0 -102 70q-55 68 -81.5 101.5l-26.5 33.5q-73 72 -157 72q-91 0 -151 -59q-60 -60 -60 -148q0 -61 35 -107q37 -42 89 -42q43 0 71.5 26.5t28.5 65.5z" />
    <glyph glyph-name="equal" unicode="=" horiz-adv-x="597" 
d="M48 284h507v54h-507v-54zM48 106h507v54h-507v-54z" />
    <glyph glyph-name="greater" unicode="&#x3e;" horiz-adv-x="728" 
d="M715 140q0 88 -61 148q-60 59 -151 59q-85 0 -157 -72l-27 -33.5t-82 -101.5q-55 -70 -102 -70q-31 0 -52 24.5t-21 59.5q0 49 32 49q24 0 28 -40q16 25 16 42q0 20 -13.5 34t-35.5 14q-15 0 -28 -7.5t-23 -20.5t-16 -30.5t-6 -36.5q0 -61 40 -101q41 -41 101 -41
q88 0 156 71l107 129q61 69 123 69q51 0 88 -40q37 -39 37 -94q0 -47 -29 -84q-29 -36 -68 -36q-38 0 -43 40q4 -1 7.5 -1.5t8.5 -0.5q38 0 38 38t-36 38q-26 0 -41.5 -18.5t-15.5 -43.5q0 -39 29 -65.5t71 -26.5q53 0 89 42q37 46 37 107z" />
    <glyph glyph-name="question" unicode="?" horiz-adv-x="366" 
d="M361 416q0 67 -71 115q-61 43 -131 43q-54 0 -95 -31.5t-51 -83.5l108 -52q0 40 28 77q26 35 59 35q24 0 35 -35q11 -30 11 -59q0 -25 -6 -50q-21 -90 -115 -90q-32 0 -59 7v-8l1 -2l1 -3q19 -17 32 -67l12 -36q0 -1 0.5 -2l0.5 -1q2 -5 4 -14.5t4 -15.5l31 -2q0 28 9 64
q9 42 20 50q25 0 64 17q46 21 74 57q34 38 34 87zM222 34l-78 81l-79 -81l79 -77z" />
    <glyph glyph-name="at" unicode="@" horiz-adv-x="788" 
d="M567 151q86 0 148 82q64 79 64 189q0 131 -95 217t-248 86q-180 0 -299 -112q-120 -113 -120 -280q0 -73 24.5 -135.5t75.5 -114.5q111 -114 300 -114q108 0 195 37q25 11 56.5 29.5t69.5 45.5l-29 40q-33 -23 -62 -39.5t-55 -27.5q-42 -17 -85 -25.5t-90 -8.5
q-163 0 -261 98q-88 90 -88 216q0 137 98 235q107 105 268 105q137 0 219 -76q75 -72 75 -176q0 -91 -49 -156q-48 -64 -106 -64q-40 0 -40 31q0 23 26 106l64 207h-59l-21 -66q-30 79 -125 79q-89 0 -153 -85q-56 -77 -56 -163q0 -37 11 -66.5t30.5 -50.5t46 -32t57.5 -11
q78 0 128 63q5 -29 29 -46t56 -17zM422 509q40 0 64.5 -26.5t24.5 -70.5q0 -61 -38 -129q-47 -81 -114 -81q-40 0 -65 28t-25 79q0 72 44 134q45 66 109 66z" />
    <glyph glyph-name="A" unicode="A" 
d="M684 100q-51 -14 -56 -14q-24 0 -40 23q-3 3 -14 33l-164 435q-12 29 -46 44h1q-7 3 -11.5 4.5t-6.5 2.5q-7 1 -13.5 1.5t-11.5 1.5h-5q-93 0 -136 -72q-20 -29 -20 -50v-13q40 31 59 31q7 4 31 4h1q3 -1 5 -1q3 0 5 -1q4 -1 6 -1h2q46 -14 46 -42l-1 -2v-2q-1 -2 -1 -3
l-1 -2l-2 -4v-1l-1 -1l-4 2l1 -1l-7 4q-12 12 -43 12q-71 0 -108 -74h1q-8 -13 -8 -25q0 -25 17 -42q21 40 56 40q23 0 48 -28l-107 -256q-14 -5 -23.5 -8t-12.5 -4q-106 -47 -106 -110v-3l1 -1v-8q12 5 13 10q6 4 10 5q37 20 86 20q4 0 25 -3q54 -8 91 -43l105 117l-25 21
l-16 -20q-13 9 -26 14.5t-26 9.5q-14 2 -27 4l-26 4l33 81h203q17 -51 28 -83t15 -43l1 -1q0 -9 19 -39q30 -52 93 -69zM339 449l56 -155h-120zM300 476q0 1 -1 1v0z" />
    <glyph glyph-name="B" unicode="B" horiz-adv-x="595" 
d="M588 31l-10 17q-3 6 -3 18v222q0 33 -47 54q-5 2 -13.5 3.5t-14.5 2.5q-1 0 -2 0.5t-2 0.5h-3q7 5 14.5 14l17.5 21q39 57 46 103q1 4 1 15v4q0 98 -91 132l-207 -142v-1q-10 -7 -16 -19q2 7 -1.5 -2t-5.5 -15v-305l-1 -2q0 1 -1 -4t-2 -9q-2 -8 -2 -11q-6 -7 -8 -9.5
l-2 -2.5l3 -8q36 0 80 33q41 36 41 70v298l57 39q61 -30 61 -110v-3q-1 -5 -1 -9q0 -3 -1 -6t-1.5 -5t-0.5 -4q-15 -57 -50 -68v28h-37v-277q-29 13 -73 13q-70 0 -135 -40q-66 -38 -97 -111q71 46 154 46h6h7t9 -1q5 0 9.5 -0.5t6.5 -0.5q32 0 103 -43q45 41 106 61
q13 2 22.5 4t15.5 4q3 1 5 1.5l2 0.5q11 0 13 1h15q3 -1 7.5 -1.5t12.5 -0.5q1 0 1.5 -0.5t1.5 -0.5h-1q3 -1 7 -1zM246 505q-29 -5 -51.5 -16.5t-40.5 -28.5q-41 -38 -41 -93v-5l1 -1v-6q-69 -9 -69 -75q0 -41 18 -56v1q4 -3 10.5 -9t12.5 -12q0 33 24 33l2 1h3v-166
q-4 -11 -4 -19v1l-1 -2l1 1q-2 -2 -2 -4l-6 -7h13l2 1h2l1 1q14 0 38 17q70 47 70 107v290q0 27 20 40l-3 7q2 0 8 2q19 5 37 13t34 21q40 28 42 65l-6 3q-24 -18 -51 -18q-14 0 -50 12q-71 24 -117 24q-34 0 -68 -18q-34 -19 -47 -44t-13 -41v-12q25 25 49 25q14 0 41 -8
q70 -24 115 -24l1 -1h3h11q6 0 11 1zM427 74q-2 1 -4 3v58l2 1h2l2 2h3l2 1h5l1 1h4l2 -1h2q2 -1 10 -1l1.5 -0.5t2.5 -1.5v-85q-14 10 -22.5 15t-12.5 8zM458 260l-1 -1h-1q-2 -1 -3 -1v0q-3 0 -4 -1h-12q-7 0 -11 3h-1q-2 2 -2 0v47h11l1 -3q27 0 27 -17v-26q-1 -1 -4 -1z
M451 177q-2 0 -3 0.5t-2 0.5h-12l-2 -1h-1q-4 -1 -8 -3v49h3q4 -3 11 -3h16l1 1h5l2 2h1v-49q-5 1 -11 3zM64 223h1q-1 0 -1.5 0.5l-0.5 0.5z" />
    <glyph glyph-name="C" unicode="C" horiz-adv-x="605" 
d="M591 153q-67 -67 -112 -78v420q32 2 60.5 26t43.5 59q-17 -8 -27.5 -12.5t-15.5 -4.5l-1 -1h-1q-47 0 -82 57l-252 -136l14 -30l43 22v-332q0 -12 -4.5 -22.5t-12.5 -21.5h12q47 0 82 32q36 33 36 80v315q3 -2 6.5 -3.5t6.5 -3.5l-1 1q32 -23 55 -23h1v-438
q-24 -7 -38 -9.5t-19 -2.5q-42 0 -72 9q-59 17 -107 68q-75 78 -75 189l1 2q0 172 162 298l-3 6q-3 -2 -7 -2.5l-4 -0.5q-5 -1 -8.5 -1.5t-5.5 -0.5q-60 -26 -94 -51q-36 -26 -64.5 -59t-49.5 -71q-43 -83 -43 -167q0 -94 51 -172q88 -135 265 -135h11q8 0 18 2q4 1 11 1
q65 12 122 51t89 93q12 18 16 43zM282 617h-1l-1 -1l0.5 0.5t1.5 0.5z" />
    <glyph glyph-name="D" unicode="D" horiz-adv-x="536" 
d="M527 52l-2 2q-6 6 -6 8l-1 442q0 25 -9.5 46.5t-26 37.5t-38.5 24.5t-48 8.5l-289 -10v-2h-8v-1h-1q-20 0 -40 2.5t-40 8.5v-5l-1 -1v-7l-1 -1v-5l-1 -2v-4q0 -31 12 -49q26 -42 144 -42h39q-43 -12 -73 -42q-41 -37 -41 -92v-5l1 -1v-5q-68 -9 -68 -75q0 -20 3.5 -34
t13.5 -22v1q4 -3 10.5 -9.5t12.5 -11.5q0 33 25 33l2 1h2v-144q-2 -5 -4 -11t-1 -8q-2 -2 -2.5 -5.5t-1.5 -4.5h9l1 1h4l1 1q13 2 38 18q70 47 70 107v265q0 28 19 41l-2 3q4 1 9 1v-408q-69 -2 -124 -37t-84 -98q65 38 140 38q76 0 156 -42q66 69 199 87zM275 98v113
q18 8 31 8q20 5 25 5l5 -2q26 0 69 -10v-156q-53 32 -130 42zM355 393h-41q-27 0 -39 12v106q20 -1 39 -1h39q12 -1 19 -1h9l1 -1q23 -12 23 -26v-78q-47 -11 -50 -11zM334 261l-11 -1.5t-20 -3.5q-20 -5 -28 -5v111q17 -5 38 -5q2 -1 6 -1h33q9 0 29 4q9 1 15 3q3 0 5 0.5
t4 0.5v-114q-38 11 -71 11zM47 226h1q-1 0 -1.5 0.5l-0.5 0.5z" />
    <glyph glyph-name="E" unicode="E" horiz-adv-x="569" 
d="M563 587l-30 16l-7 -14q-51 31 -82 31h-1l-2 1q-10 0 -14 4l-4 -4q-88 -2 -137 -81q-20 -31 -20 -50v-390q-37 -14 -38 -14q-17 -7 -35 -16.5t-35 -22.5q-21 -14 -35.5 -26t-22.5 -24q-8 -10 -11 -20t-3 -19q52 42 172 42q110 0 232 -42l68 115l-33 16l-8 -16
q-77 37 -181 37h-6q-1 -1 -15 -1q-1 -1 -9 -1l-1 -1h-2v152q12 21 32 22q5 0 6 1h7l2 1q25 0 78 -30l-12 -19l28 -17l85 134l-28 17l-8 -13q-2 2 -3.5 2.5l-1.5 0.5q-7 2 -11 5l-4 2l-4 2q-17 6 -31.5 8.5t-26.5 2.5q-3 0 -8.5 -0.5t-13.5 -1.5q-39 -8 -54 -23l-32 -33v146
q0 19 22 38q21 18 44 20q6 1 7 1h6h2q24 0 48 -11v1q11 -7 20.5 -13.5t18.5 -11.5l-12 -19l31 -15zM252 500q-55 -10 -91 -45q-41 -38 -41 -93v-5l1 -1v-3q-4 -1 -16 -1l-2 -1q-13 0 -30 -5q-31 -10 -43 -28t-12 -51l-1 -1v-14l1 -1q1 -17 15 -33t31 -16q7 0 11 2v6l-1 1
q2 24 37 24h2q2 -1 9 -1v-168q-7 -21 -7 -28h7l1 1h4l1 1q5 1 15 5t24 12q70 44 70 107v290q0 8 5 21.5t12 16.5zM312 604v24q-24 -26 -35 -26q-1 -1 -7 -1q-1 0 -23 6q-8 2 -19.5 4.5t-26.5 6.5q-19 4 -32 6.5t-27 3.5v-1q-26 -1 -47 -11t-41 -28q-19 -19 -29 -43.5
t-10 -56.5q33 35 59 35q7 0 29 -5q55 -15 91 -15l1 1h2l1 -1q39 0 77 32q20 16 28.5 33.5t8.5 35.5z" />
    <glyph glyph-name="F" unicode="F" horiz-adv-x="665" 
d="M653 616q-27 -21 -45 -21q-36 0 -72 43l-141 -97q-33 -24 -33 -60v-410l-1 -1q0 -15 -9.5 -30t-20.5 -15h-2v10l-8 -11q-15 1 -78 35v-1q-64 37 -107 37q-44 0 -81 -33q-17 -15 -27.5 -36.5t-13.5 -50.5q22 26 54 29q6 0 8 1h2q22 0 85 -25q30 -12 73 -12q60 0 130 32
q80 37 100 88q3 7 3 14l1 172h69v-212h37v453q20 5 36 19.5t31 37.5q13 20 13 29l1 1q0 4 2 10zM349 529q-29 -5 -51.5 -17t-40.5 -29q-41 -37 -41 -93v-5l1 -1v-4q-4 0 -6 1h-9q-81 0 -81 -83q0 -24 14 -42.5t38 -18.5v7l-1 1v4l-1 1q0 23 34 23h7l2 -1h4v-147
q-1 -2 -1.5 -5t-1.5 -5q-2 -4 -3.5 -9.5t-2.5 -7.5h10l2 1h2l1 1q14 0 38 17q70 46 70 106v259q0 11 5.5 23.5t13.5 15.5zM415 635q-24 -22 -54 -22q-42 0 -60 9h-2l-1 1q-17 3 -28 5.5t-16 3.5h-10q-29 3 -31 5l-7 -3q-86 -2 -120 -60q-15 -26 -15 -46v-9q35 22 45 22h4
l1 1q23 0 76 -11q50 -11 75 -11l1 -1h4q49 0 93 32q47 34 52 81zM535 513q1 0 1.5 -0.5t2.5 0.5v-134h-69v160q37 -26 65 -26z" />
    <glyph glyph-name="G" unicode="G" horiz-adv-x="630" 
d="M623 174q0 151 -206 188l163 219l-21 16l-22 -11q-7 -3 -9 -3.5t-7 -1.5q-2 0 -3 -0.5t-3 -0.5q-42 0 -76 45l-227 -140v-45l25 15v-364l-2 -10q-1 -4 -2 -9.5t-1 -4.5l1 3l-1 -1q-2 -2 -2 -5l-1 -1v-7h7q66 0 99 56q14 23 14 41v119l27 35v-303h-1h-4l-2 -1
q-10 0 -12 -1h-11q-4 0 -6 -1h-2q-42 0 -69 9q-53 20 -88 86q-17 29 -26.5 60t-11.5 62q-3 36 -3 51l1 1v10l-1 1q0 172 110 273q12 11 25.5 22t25.5 19l-2 6q-128 -19 -207 -118q-77 -96 -77 -227q0 -134 89 -216q85 -82 220 -82q125 0 227 74q72 52 72 142zM378 516
q29 -20 51 -20q27 0 55 14l-135 -182v196l13 7q7 -5 10.5 -9t5.5 -6zM494 114q-28 11 -52 11h-9h-2h-5l-12 -3v67h2h-1q3 -1 5 -1q8 -4 20 -4h18q7 0 19 4q1 0 1.5 0.5t1.5 0.5q7 1 12 3q4 2 5 2l1 -1q0 -17 1 -20v-8q0 -13 -1.5 -26t-3.5 -25zM455 222h-15h-3q-3 1 -9 2.5
l-14 3.5v88q55 -19 77 -85q-17 -9 -36 -9zM414 16v67h2l2 1h-1q2 0 8 2q10 2 13 2l2 1h6q9 0 32 -10q-17 -37 -64 -63z" />
    <glyph glyph-name="H" unicode="H" horiz-adv-x="669" 
d="M661 47l-17 25l-20 -12l-24 25v432l7 2l3 3h-1q5 4 9 6.5t8 4.5q20 17 36 47q-9 0 -13 -2q-12 -4 -14 -5h-2q-40 0 -93 62l-112 -76l16 -27l17 10q4 -4 6 -5h-1q5 -5 10 -8t8 -5h-1q1 -2 4 -2v-151h-121v201q19 9 19 33q0 14 -10.5 25.5t-24.5 11.5q-36 0 -36 -37
q0 -25 17 -31v-487q-38 12 -78 12q-36 0 -68.5 -7.5t-63.5 -21.5q-35 -18 -59.5 -44t-35.5 -62q52 38 118 38q73 0 144 -45l115 114l-28 24l-9 -10v185h121v-185l-43 -45q37 -20 92 -74l1 -2l3 -3l2 -1l2 -2l1 -1l5 -5q22 29 37 39q23 17 41.5 30.5t31.5 21.5zM319 549
q-33 0 -64 -20q-48 -28 -64 -69v-85l-38 -2q-14 0 -26 -7t-22 -18.5t-15.5 -25.5t-5.5 -28q0 -10 2 -16q0 -7 4.5 -15t11 -16t14 -14.5t15.5 -9.5v14l-1 1q0 22 13 31q1 0 2 0.5t2 0.5l10 4h34v-125q-1 -1 -1 -4q-2 -4 -5.5 -10.5l-3.5 -6.5v1l-7 -14q-5 -5 -7 -6l-10 -10
h10l1 -1h5q16 0 32.5 5t31.5 14t27.5 21t20.5 26q15 27 15 43v281q0 40 10 50v2zM307 601q-1 0 -1.5 -0.5t-1.5 -0.5q-3 0 -4 -1q-8 -5 -31 -5q-4 0 -9 0.5t-11 1.5h-2q-17 6 -21 7t-8 3h1q-2 1 -4.5 2l-7.5 3h1q-2 0 -6 2q-38 18 -81 18t-74.5 -26t-31.5 -67v-5l1 -2v-4
l1 -1v-14q10 17 19 24.5t20 8.5q5 0 6 1h7l2 1q13 0 50 -14q39 -14 57 -14h3l1 1q12 0 14 1q31 1 62.5 22.5t51.5 51.5z" />
    <glyph glyph-name="I" unicode="I" horiz-adv-x="490" 
d="M478 608q-94 -19 -123 -83q-5 -12 -5 -17v-455q0 -20 -13.5 -34t-32.5 -14q-11 0 -34 4q-2 1 -22 14q-16 13 -18 17q-7 4 -12 8t-10 9q-48 33 -80 33q-6 0 -8 -1q-28 -3 -57 -27q-25 -20 -36.5 -44t-11.5 -51q39 33 71 33h5q15 0 77 -27q26 -8 49 -11t46 -3h4h13q3 1 6 1
q51 3 105 39q27 17 47 41q24 31 24 58v472q0 11 20 31zM327 517h-3l-1 -1h-1q-8 -2 -21.5 -8t-30.5 -17q-33 -20 -42 -35q-17 -21 -17 -32v-60q-6 0 -9 1t-5 1.5t-5 0.5h-3q-35 0 -58.5 -19.5t-23.5 -51.5q0 -61 57 -70v8l-1 1v3l-1 1q2 23 29 23l1 -1q12 0 19 -13v-109
q0 -20 -15 -56q41 0 83 37q43 36 43 71v280q0 11 2 20.5t7 19.5zM385 613q-32 -18 -57 -18l-2 -1q-9 0 -39 6q-14 3 -22.5 5t-13.5 5h-2l-1 1q-23 5 -38 8t-23 3q-91 0 -128 -70q-13 -23 -13 -47v-14q5 7 13.5 13.5t18 12t19 8.5t16.5 3q24 0 45 -6q8 -2 11 -3q27 -8 33 -9
q9 -3 45 -3q15 0 16 2l-2 -1q46 4 82 31t48 70z" />
    <glyph glyph-name="J" unicode="J" horiz-adv-x="465" 
d="M457 609l-3 7q-4 -2 -6.5 -2.5t-4.5 -1.5q-111 -57 -111 -103v-404q0 -49 -42 -77q-39 -27 -89 -27h-4l-2 1q-40 0 -65 15q-29 16 -39 41q9 -3 20 -3q24 0 42 19t18 44q0 14 -6 27t-16.5 23.5t-24 16.5t-27.5 6q-36 0 -59 -27t-23 -65q0 -31 12 -55q20 -41 77 -65
q49 -21 100 -21h19q13 0 34 3q120 16 164 83q24 37 24 63v466h-1q0 4 1 5q0 8 10 27v2zM313 529h-3l-2 -2l-10 -6t-9 -5v1q-8 -5 -14 -8.5t-10 -5.5v1q-71 -39 -71 -75v-62h-2l-1 1h-6l-2 1h-7q-38 0 -62.5 -21t-24.5 -56q0 -51 58 -62v9l-1 1q1 10 9 16.5t19 7.5l2 -1h4
l1 -1h1q2 -1 3.5 -1.5l7.5 -2.5h-1l1 -1l1 -1v-177q0 -22 -29 -57q41 0 81 23q19 13 32.5 26.5t20.5 28.5v1l1 1q0 2 1 4q0 1 0.5 2.5t0.5 3.5v348q0 17 3.5 32t11.5 31zM331 612q-12 -7 -23 -10.5t-23 -3.5q-9 0 -59 14q-21 6 -39.5 8.5t-35.5 2.5h-6h-2h-7q-3 -1 -5 -1
q-8 -2 -18.5 -5t-21.5 -8q-69 -35 -69 -95v-9q12 9 21.5 14.5t17.5 9.5q5 0 13 3h2q11 0 27.5 -3t38.5 -10q45 -13 70 -13q9 0 11 1q39 0 76 31q36 30 38 71z" />
    <glyph glyph-name="K" unicode="K" horiz-adv-x="656" 
d="M650 75l-18 11q-20 -15 -31 -15q-2 0 -5 3l-2 -3q-31 2 -57 71q-9 26 -15.5 46t-10.5 33q-7 17 -13.5 32.5t-13.5 29.5q-28 51 -69 92l67 121h2q14 -7 36 -7q49 0 81 43q30 37 30 88l-4 -4l-2 7q-22 -22 -53 -22q-14 0 -25 4q-36 12 -36 24l-7 2l-140 -261v185l9 27
l-1 -1q5 7 13 17t13 16q-22 -3 -41 -12.5t-38 -25.5q-37 -31 -49 -59q-7 -14 -12 -36v-306l-1.5 -5.5t-3.5 -10.5q-3 -9 -3 -12v1q-2 -5 -6 -9t-6 -7h-5l4 -10q39 0 75 30h-1q39 31 48 65q2 8 3 19t2 28q8 -8 16 -27t18 -47q15 -50 24.5 -81t13.5 -43l-22 17l-10 -10
q-45 36 -118 36h-5q-1 -1 -12 -1q-3 -1 -6 -1q-31 -2 -68 -15q-119 -43 -154 -135q64 49 158 49q71 0 116 -28h-1l10.5 -7l19.5 -13l93 104l1 -1q22 -53 40 -74q14 -17 33 -25t42 -8h5zM241 502l-3 7q-23 -7 -42 -17t-36 -24q-38 -31 -38 -75v-41h-3l-2 1h-5q-35 0 -57 -23
t-22 -57q0 -19 12.5 -38t30.5 -23q5 26 28 27l2 -1h8q2 -1 8 -3v-112q0 -7 -5 -19t-16 -31v-6q43 0 87 39q42 39 42 80v286l2 7t7 21zM296 615q-18 -12 -40 -12h-3l-1 1q-6 1 -17 4.5t-28 8.5q-21 5 -40 9t-33 6l-2 -2q-23 -1 -44 -10t-38 -26q-35 -37 -35 -83v-14
q25 36 62 36q5 0 25 -3q19 -3 25 -3l3 -1h1q24 -12 70 -12h5q31 2 62 35q34 34 34 63z" />
    <glyph glyph-name="L" unicode="L" horiz-adv-x="606" 
d="M592 568q-11 19 -41 34q-48 19 -65 19h-4q-57 0 -137 -52q-87 -56 -87 -110v-278q0 -2 -0.5 -3t-0.5 -3q-1 -5 -1 -9v-5q-2 -18 -10 -33t-22 -29h15q5 0 8 1q2 0 4 0.5t4 0.5q1 1 2 1q2 0 4 1h-1q13 5 20 6.5t12 5.5v-1q14 6 27 17t23.5 24.5t17 29t6.5 29.5v304
q0 7 10 20q11 19 45 19l1 -1h6l2 -1h3q8 -6 15 -10.5t13 -7.5q8 -7 12.5 -9.5t7.5 -4.5l6 -6q1 -2 2.5 -3t3.5 -3l-17 -20l26 -24zM601 67l-28 22l-14 -17l-4 2l-1 1l-2 1v-1q-1 1 -5 3h2l-4 3q-9 2 -11 4v193q18 8 18 32q0 14 -10.5 25.5t-24.5 11.5t-25 -11.5t-11 -25.5
q0 -24 17 -30v-185q-45 15 -105 15q-91 0 -178 -35q-51 -20 -86 -50t-57 -72q11 5 20.5 10.5t16.5 7.5q75 34 174 34q115 0 226 -47zM235 492q-29 0 -69 -31q-42 -29 -46 -57q-1 -5 -1 -19v-37q-13 -2 -23.5 -3.5t-20.5 -3.5q-60 -23 -60 -78q0 -9 1 -11q1 -17 14.5 -32.5
t30.5 -15.5h4l1 1h5v7l-1 1q1 11 10 18t20 7h3q5 -4 9.5 -5.5t6.5 -3.5v-102q0 -37 -24 -76q72 7 115 76q16 25 16 40v2l2 281q0 3 12 39l-7 2zM315 593q-5 -2 -7 -4q-6 -2 -10 -3t-7 -1q-20 0 -66 17q-23 8 -42.5 12.5t-36.5 4.5q-54 0 -85 -34.5t-31 -90.5v-10
q11 9 18.5 14.5t11.5 6.5q7 7 13 7q4 3 15 3l1 1q3 0 12 -1.5t15 -3.5q2 -1 6 -1q3 -1 7 -3q1 -2 8 -2q30 -12 55 -12q42 0 80 27q43 27 48 69z" />
    <glyph glyph-name="M" unicode="M" horiz-adv-x="791" 
d="M785 59l-28 20l-10 -14q-14 3 -24 14.5t-10 25.5v398q14 6 26 21.5t13 29.5l1 1v5l1 2v17q-9 -6 -13 -6l-1 -1h-3q-6 -3 -13 -3h-3q-35 18 -74 62q-67 -76 -103 -76h-2v70h-36v-72q-49 3 -93 77l-240 -122q-44 -24 -44 -57v-97l-38 -2q-5 0 -20 -9q-35 -21 -35 -59
q0 -26 13 -45q17 -23 42 -23h3l1 1h5l-2 10l-2 2q0 4 -1 6q0 16 18 18l1 -1h3l2 -1h1q8 -4 7 -4l2 -2v-110q0 -14 -16 -30h-1l-10 -10h9v-1h6q16 0 33.5 5.5t33 14.5t28.5 21t21 26q5 10 7 18t2 15v290q0 5 3 8q0 3 3 6v1l3 2l1 1l21 12v-422q0 -11 -12.5 -21.5t-22.5 -10.5
q-2 0 -10 8v-8q-12 0 -21 6q-5 2 -5.5 2.5t-5.5 2.5q-21 8 -38.5 12t-31.5 4q-52 0 -81.5 -35.5t-29.5 -92.5q23 32 60 32q11 0 51 -13v-2q13 0 34 -7q26 -8 36 -8q65 0 101 69q14 28 14 44v175h56v-171q-32 -22 -55 -64h1q-3 -5 -4.5 -10t-1.5 -8q18 6 32.5 9.5t26.5 3.5
q46 0 91 -51l121 93l-24 27l-12 -11v182h57v-142q0 -149 108 -149h4zM501 85l-1 1q-4 0 -5 1q-5 2 -10 3.5t-10 2.5v402h1q4 0 6 1q11 0 23 5v-417q-2 0 -2.5 0.5t-1.5 0.5zM327 530l2 -1v1q18 -15 23 -15h-1q2 -1 4.5 -2t6.5 -2q1 -1 2 -1t3 -2v-153h-56v179l9 2l3.5 -3.5
t3.5 -2.5zM543 518q5 0 11 8q17 -20 45 -25v-146h-57v162z" />
    <glyph glyph-name="N" unicode="N" horiz-adv-x="634" 
d="M621 618q-31 -16 -56 -16q-40 0 -86 36l-110 -105l24 -24l19 16q21 -20 71 -20h5l2 1h2l1 -117h-2l-8 -2h-4q-6 -3 -30 -3q-1 -1 -11 -1q-38 0 -53 10q-26 47 -41.5 76.5t-26.5 49.5q-41 60 -66 83q-38 35 -92 35q-55 0 -92 -43q-38 -41 -38 -95q0 -39 21 -43l-2 2h7
q3 34 45 55q2 2 5 2q4 0 7 1q7 2 14.5 3.5t12.5 5.5h2v-164q-18 -2 -29 -4t-15 -3q-44 -18 -44 -79q0 -28 18 -49t44 -21v7v4l-1 1q0 8 4.5 16.5t11.5 8.5h2q3 -2 5 -2.5t4 -1.5v-134q-99 -30 -128 -136q6 2 14.5 5.5l8.5 3.5q4 2 10 6v-1q42 20 87 20q61 0 131 -44l80 105
l-22 22l-12 -16q-29 20 -59 30.5t-63 10.5h-6l-2 -1h-1v96q24 16 77 16q40 0 92 -22q5 -11 10 -21.5t10 -19.5q20 -39 30.5 -61.5t20.5 -37.5h-1q56 -101 105 -101h6v554l7.5 2.5t10.5 5.5v-1q27 14 50 38q15 15 22 29t8 28zM261 258q-31 0 -82 -14v268q23 -11 56 -71
q16 -32 45 -96q17 -37 28 -60.5t17 -35.5q-32 9 -64 9zM426 297q-9 20 -15 33t-9 20q12 -4 26 -4h27q12 0 21.5 1t15.5 4l1 -179q-15 22 -31.5 52.5t-35.5 72.5z" />
    <glyph glyph-name="O" unicode="O" horiz-adv-x="671" 
d="M327 -42q73 0 134 29q97 45 150 147q53 98 53 207q0 42 -10 81q-35 137 -162 215v-7q-9 -6 -18.5 -11t-19.5 -8l-1 -1h-1q-19 -10 -26 -13v30h-37v-49q-69 -27 -114 -44t-63 -23v-39q5 0 17.5 3.5t20.5 7.5v-386l-1 -2q0 -8 -1 -9q-1 -2 -1 -5v-4l1 2q-3 -5 -4.5 -10
t-3.5 -10h4l1 -1h2l1 -1q11 0 24.5 4.5t28.5 15.5q7 5 15.5 12t17.5 18q25 26 25 37v377q9 5 17 8.5t13 6.5v-532q-3 0 -6 -1q-1 -1 -2 -1t-2.5 -0.5t-2.5 -0.5q-23 -5 -44 -5q-121 0 -169 143q-26 80 -26 157v7q16 17 16 54v13q-3 33 -3 53q0 11 2 19q30 123 132 175l-1 7
h-6v1h-9q-76 0 -146 -76q-102 -111 -106 -232q-1 -3 -1 -23l1 -1v-3q0 -2 -1 -3q0 -76 24 -136q35 -87 114 -140q77 -53 174 -53zM549 262q0 -4 -3 -44q0 -1 -1 -4t-2 -7t-1 -8q-2 0 -4.5 0.5t-5.5 0.5h-6q-2 0 -7 1q-20 3 -25 3h-25q-5 0 -23 -3q-11 -2 -14.5 -2.5
t-5.5 -0.5v174q16 -6 40 -6h24q8 0 19 2.5t25 7.5q4 2 6 2q9 -38 9 -82v-34zM494 73q-31 -40 -68 -56v141v0q1 0 2 1q8 1 13 3q10 3 28 3h19q2 -1 10 -2t23 -2q3 -2 5.5 -3t6.5 -2q-5 -22 -14 -42.5t-25 -40.5zM487 399h-13q-36 0 -48 12v144l7 2q60 -53 96 -143
q-23 -15 -42 -15z" />
    <glyph glyph-name="P" unicode="P" horiz-adv-x="550" 
d="M543 556v14h-8l-1 -1h-5l-2 -2h-1q-3 -1 -7 -1q-15 0 -16 1q-27 9 -68 60q-78 -65 -141 -99v91h-32v-112q-2 -1 -2.5 -1.5l-0.5 -0.5h1q-5 -2 -9.5 -5t-6.5 -5l-5 -2.5t-5 -3.5v1q-1 -1 -3 -1q1 2 1 11q0 112 -105 120l-5 -2q-42 0 -75 -30q-32 -30 -32 -72q0 -6 0.5 -10
t1.5 -7q0 -18 13 -30l-1 1h7q0 20 13.5 39t32.5 19q13 0 24.5 -11.5t11.5 -22.5v-152l-2 1q-89 0 -89 -72q0 -23 13.5 -42t35.5 -23v10h-1v2h-1v1l-1 1v1l1 1q0 17 22 17l1 1h5l2 -1h3l-2 1q4 -2 7.5 -4t5.5 -4v-111q-76 -32 -76 -120q0 -13 9 -47q2 2 6.5 7.5t6.5 7.5
q6 7 9.5 10.5t10.5 14.5q11 8 18.5 13t15.5 9v-129q0 -10 -11 -56l-1 -2v-8h48l1.5 2t2.5 3q2 4 2 5l-2 -3q21 30 45 41q26 -48 77 -48h15v162q2 -4 7 -6l28 -28q65 77 153 77h2l3 -1q14 0 16 -1l1 -1h6l2 -1h11q-5 8 -7.5 14t-3.5 10l-1 1v1q-2 2 -2.5 5l-0.5 3v451
q31 13 33 48zM231 -82v527l14 7h2q3 2 5 3l4 2q2 2 6 4v-594q-31 18 -31 51zM363 217h-13q1 -1 -14.5 -1.5t-32.5 -2.5q-2 0 -4 -0.5t-4 -0.5v151q20 -7 34 -7h29q25 0 38 5v-150q-6 2 -18 4t-15 2zM357 395h-14q-32 0 -48 10v72l2 2h-1q10 7 19.5 12t14.5 9q10 4 28 18
q23 -16 38 -16v-100h-1q-13 -7 -38 -7zM295 125v45q3 0 7 1t9 3q7 2 13 3t10 1h20q1 0 1.5 -0.5t2.5 -0.5q3 -1 7 -1h5q2 -1 4.5 -1.5t0.5 1.5q7 -2 11.5 -3.5l4.5 -1.5l5 -2v-111l-5 -3q-20 20 -43.5 37.5t-52.5 32.5zM269 466h-1h1z" />
    <glyph glyph-name="Q" unicode="Q" horiz-adv-x="670" 
d="M600 126q63 102 63 225q0 91 -44 168t-124 124q-9 -5 -19.5 -10.5t-21.5 -10.5q-2 -2 -3 -2l-2 -2h1q-17 -10 -22 -10q-4 -2 -3 -2v30h-37v-47q-20 -11 -44 -21t-50 -19q-37 -12 -57.5 -19t-25.5 -8v-39q5 0 17.5 3t20.5 8v-389q-2 -6 -3 -12.5t-3 -13.5q-1 -2 -2 -3.5
t-7 -7.5h10v-1h5q25 0 53 22q30 23 45 43q11 14 11 21v379l10 5q2 1 4 1q3 0 6 1l3 3q1 0 1.5 0.5t1.5 0.5t1.5 0.5t1.5 0.5h1v-531q-33 15 -54 15q-32 0 -54 -18q-73 25 -112 121v-1q-32 79 -32 172q0 14 1 15v48q1 2 1 9q0 2 0.5 3.5t0.5 3.5q15 134 78 199
q14 14 30.5 25.5t36.5 22.5l-2 6h-6v1h-9q-73 0 -146 -78q-52 -54 -78 -111t-28 -119q-1 -3 -1 -24l1 -1v-6l-1 -2q0 -73 22 -129q16 -43 43.5 -78t62 -60.5t76 -41t86.5 -18.5q92 -88 116 -99q18 -8 47 -8h8q1 1 12 1q3 1 6 1q4 1 7.5 2t6.5 2q4 1 10 3q43 18 43 52v7h-1
v10q-24 -19 -37 -19q-23 0 -93 64v1q-1 0 -1 1v0q104 31 172 141zM548 271q0 -4 -3 -43q0 -1 -1 -4q-1 -4 -2 -8.5t-1 -8.5q-20 7 -48 7h-25q-8 0 -30 -3l-4.5 -1.5t-8.5 -2.5v175q7 -4 16.5 -5t23.5 -1h24q22 0 49 11q0 -8 1.5 -18t3.5 -24q2 -17 3.5 -30t1.5 -22v-22z
M493 82q-31 -40 -68 -56v141q6 0 15 3q8 2 16 3.5t12 1.5h18q6 -3 28 -3q2 -1 1 0q4 -2 8.5 -3.5t8.5 -3.5q-4 -21 -13.5 -42t-25.5 -41zM486 410h-13q-37 0 -48 11v144l7 2q60 -52 96 -142q-23 -15 -42 -15z" />
    <glyph glyph-name="R" unicode="R" horiz-adv-x="614" 
d="M611 76q-8 -2 -15.5 -4t-11.5 -4h1q-2 -1 -4 -1.5t-4 -1.5q-22 0 -34 15q-7 9 -17 38q-11 36 -11 43q-2 6 -2.5 10.5t-1.5 9.5q-1 4 -2 9t-1 3q-17 83 -77 112q42 26 67 71q30 51 30 100v14q0 2 -0.5 4t-0.5 4q-1 4 -1.5 7.5t-1.5 8.5q-20 76 -80 104l-167 -97v-2
q-36 -25 -36 -62q-1 -2 -1 -14v-291q0 -11 -5.5 -21.5t-16.5 -23.5h15l2 1h2l2 1q13 0 39 13q69 31 69 83v54q41 -9 58 -140q3 -28 8 -40l1 -2l-6 -9q-32 11 -51 17.5t-24 7.5q-14 3 -25 4.5t-19 3.5q-3 1 -7 1q-3 0 -5 1q-17 -3 -32 -5t-26 -3q-53 -12 -99 -46
q-55 -39 -66 -95q58 48 133 48q5 0 11.5 -0.5t14.5 -0.5q8 -1 15 -1h12q40 -3 108 -42l80 76q7 -25 36 -48q16 -14 32 -20t31 -6h4l1 1h3l1 1h3zM222 492q-8 -2 -13.5 -5t-13.5 -7q-44 -25 -65 -46q-27 -28 -27 -75v-5l1 -2v-8q-34 -2 -54 -22.5t-20 -52.5v-6l1 -2
q4 -54 36 -54q4 0 6 1h-1h1q0 1 2 1v7l3 -3v4l1 1q0 2 1 3.5t1 3.5q8 8 13 10l1 -1h2l4 -2l4 -4v-139q0 -15 -18 -37q41 0 84 40q20 21 30.5 38.5t10.5 34.5l1 276l2 10q2 8 2 14q2 5 3.5 10t1.5 3l1.5 4t3.5 6l-7 1zM303 607q-1 -1 -2 -1q-5 -5 -25 -14q-18 -9 -24 -9l-1 1
q-1 0 -3.5 0.5t-3.5 0.5l-3 -3q-24 0 -52 15h-1l-1 1q-45 15 -59 15h-4l-1 -1q-14 0 -28.5 -6.5t-28 -16.5t-24.5 -23t-18 -28q-9 -18 -9 -46v-12q37 39 65 39q5 0 41 -11h-1q2 -1 7 -1q1 0 1 -1h1h-2q25 -13 59 -13h5v1q22 1 42 9.5t35.5 23t26.5 34t15 42.5zM437 399
q-1 -3 -1.5 -5t-0.5 -4q-8 -27 -21.5 -47.5t-33.5 -34.5v1q-20 -10 -23.5 -11.5t-7.5 -2.5h-2v209q0 12 30 33q34 -18 51 -66q2 -10 4 -17q1 -7 5 -16q0 -5 0.5 -8t1.5 -6v-11q-1 -5 -1 -8t-1 -6z" />
    <glyph glyph-name="S" unicode="S" horiz-adv-x="634" 
d="M628 305q0 86 -109 115q-31 10 -56 10q-44 1 -66 3q37 51 72 86q13 13 24 21l18 18h-1q7 4 13 13l-25 23l-28 -23q-45 28 -95 42q-15 3 -24 5t-14 2h-2q-15 0 -16 1h-20q-1 -1 -14 -1q-3 -1 -6 -1q-16 -1 -33 -5t-36 -12q-121 -52 -121 -160q0 -30 11 -54q29 -62 181 -62
h4l-7 -16h-2l-1 -1q-76 0 -118 11q-67 19 -82 78q-34 -34 -34 -80q0 -29 10 -48q18 -33 73 -50q42 -12 88 -12h12l2 1h3v-2q-6 -6 -6 -10q-4 -5 -6 -9t-4 -6q-6 -8 -13 -14.5t-12 -11.5q-8 51 -63 51h-3l-1 -1q-5 0 -8 -1.5t-8 -3.5q-32 -18 -32 -47l-1 -1q0 -42 51 -58
q8 -2 12 -2q68 0 128 92q11 19 14 23h4q3 0 7 1h52q114 0 114 -44l-1 -2q0 -6 -3 -13q-1 -2 -1.5 -4.5t-1.5 -4.5l1 1l-10 -14q49 16 66 63q8 21 9 26q0 2 0.5 3t0.5 3q1 11 3 13q-4 39 -29 54q-30 21 -108 21h-6q-1 -1 -31 -1q-1 -1 -6 -1h-10l8 17h5t8 1h65q82 0 110 -40
q17 -25 17 -41q0 -38 -35 -90q-6 -10 -21.5 -28.5t-40.5 -49.5q-65 22 -83 23q-13 2 -22.5 3t-17.5 2q-5 1 -8 1.5t-8 0.5q-21 -2 -39 -3q-32 -2 -63 -9q-29 -8 -56.5 -19t-52.5 -28q-60 -37 -82 -95q63 40 138 53q33 6 37 6q45 0 101 -14t124 -41l3.5 6.5t5.5 10.5q1 2 1 4
q0 1 2 6q19 24 34.5 43.5t25.5 31.5q11 15 21.5 28t20.5 24q11 11 19 21t15 18q23 29 37.5 53t22.5 47q9 25 9 54zM380 480q-2 -3 -3.5 -5t-3.5 -4q-2 -3 -5.5 -8t-5.5 -7q-6 -7 -10 -13t-7 -11h-13q-4 -1 -8 -1h-6h-44q-19 0 -47 6q-69 14 -70 61q4 49 69 64q5 1 8 1
q4 0 7 1l8 2h4q39 0 76.5 -22.5t55.5 -58.5zM447 140v1v-1zM422 -16l1 1z" />
    <glyph glyph-name="T" unicode="T" horiz-adv-x="566" 
d="M553 603q-29 -19 -70 -19l-1 1h-14l-1 -1h-25l-21 3l-21 2q-15 2 -24.5 4t-14.5 4l-55 10q-75 10 -108 12l-5 -2q-106 -1 -157 -81q-18 -30 -18 -53v-13q30 41 75 46q19 0 23 1h5q38 0 91 -10q18 -3 32 -5.5t25 -4.5q14 -2 22.5 -3.5t12.5 -2.5q15 -2 32.5 -3t37.5 -1h3
l1 1q39 0 48 4q5 0 13 3h2v-392q-53 -37 -124 -37l-2 -1h-1q-89 0 -146 69v-1q-26 32 -39 71.5t-13 87.5q0 91 92 194q-74 -9 -124 -81q-68 -92 -68 -199l-1 -1v-4q0 -79 41 -138t114 -88q42 -16 108 -16q42 0 93 19q164 62 164 222q-38 -52 -57 -66v376q13 5 26 14.5
t24 21.5t19.5 26t11.5 27zM368 207v271h-21l-120 -70v-41l29 14v-248l-1 -1v-2l-1 -1v-3q-5 -5 -5 -9l-3 -3q-1 -1 -1 -3l-2 -1v-3l-7 -8h9v-1h6q41 0 78 34q39 36 39 75z" />
    <glyph glyph-name="U" unicode="U" horiz-adv-x="644" 
d="M641 75h-11l-1 -1h-3l-1 -1h-4l-2 -1h-2q-1 -1 -7 -1l-2 -1h-4q-44 0 -44 35v401q21 7 36.5 28t15.5 47q-24 -12 -32 -12q-10 0 -19 4q-39 15 -62 60l-149 -94v81h-38v-530q-5 2 -9.5 2.5t-8.5 2.5q-6 2 -10.5 2.5t-7.5 2.5v380q0 58 -35 99q-36 41 -90 46l-4 -2
q-32 0 -57 -11q-34 -16 -54.5 -57.5t-20.5 -89.5q8 8 9.5 10t2.5 4h-1q1 2 2 3l1 1q32 44 77 44q35 0 55 -33q8 -14 8 -18v-110h-2q-21 -5 -39 -6q-56 -20 -56 -80q0 -22 14 -38.5t34 -16.5v10h-1q2 10 11 16.5t20 6.5l1 1q4 0 5 -1q5 -1 13 -7v-159q-84 -32 -105 -108h7
t3 2l4 2l1 1h1q51 21 80 21q65 0 153 -52q23 28 68 59q14 10 31 21.5t37 25.5l2 -6t3 -8q36 -88 95 -91zM373 56l-9 7q-3 2 -6.5 4.5t-7.5 7.5v145q22 4 38 6q5 0 7 1q10 0 14 -1q5 -1 10 -1.5t3 -0.5q5 -1 13 -3t11 -2v-114q-17 -11 -35 -23t-38 -26zM411 384h-28
q-28 0 -33 8v102l60 36q16 -18 36 -24v-113q-18 -9 -35 -9zM420 260q-15 0 -18 1h-12q-1 -1 -15 -1q-12 -5 -25 -5v101q11 -3 18.5 -4t11.5 -1h22q29 0 44 7v-103q-8 1 -14.5 2t-11.5 3z" />
    <glyph glyph-name="V" unicode="V" horiz-adv-x="615" 
d="M608 572q-25 -13 -32 -13q-40 0 -104 78l-135 -98v80h-35v-528q-3 1 -6.5 3t-8.5 4q-16 0 -20 4v405q0 24 -11 48q-32 60 -118 67l-2 -2q-26 0 -41 -6q-29 -10 -56 -40q-25 -28 -25 -59q0 -26 19 -51q11 67 64 67q34 0 52 -28q9 -14 9 -18v-392q-28 -7 -50.5 -28.5
t-42.5 -56.5h-4q0 -3 -1.5 -6.5t-2.5 -4.5l5 -5q31 20 81 20q37 0 88 -16q14 -5 31 -17t37 -32q98 89 221 89h4l3 -1h4q6 0 38 -8q-15 18 -15 29v443q22 6 42 38q8 14 9 19l1 1v3l2 2v10zM421 58l-37 -15h-1q-18 14 -38 28h1l-2 2l-4 2l-2 2v124q4 0 6 1h-2h1q0 1 1 1h6
q3 1 5 1q12 4 23 4h5v-2h11q8 -2 15.5 -3t15.5 -3q1 0 2.5 -0.5t3.5 -0.5l1 -1q5 -1 6 -1t2 -1v-134q-8 -2 -12.5 -3t-6.5 -1zM402 391h-25q-21 0 -39 9v95l53 40q24 -26 46 -33l3 -2v-102q-17 -7 -38 -7zM433 236q-18 7 -48 7h-15l-2 -1h-7q-7 -4 -23 -4v120q10 -3 30 -3
q1 -1 5 -1h31q21 0 36 6v-127l-4 2q-2 0 -3 1z" />
    <glyph glyph-name="W" unicode="W" horiz-adv-x="763" 
d="M756 570v7q-16 -5 -24.5 -6.5t-10.5 -1.5q-27 0 -80 59l-11 -11t-7 -9v1q-42 -41 -75 -47v58h-41v-64q-49 1 -82 57q-8 13 -10 16q-22 -20 -42 -34t-40 -25h1q-15 -6 -21 -9h1q-2 -2 -2 -1v60h-38v-76l-30 -14q-3 39 -33 69q-32 32 -77 32q-79 0 -107 -68
q-11 -32 -12 -45v-20l1 -2v-5l1 -2q0 -5 1 -7q0 -2 0.5 -6.5t0.5 -5.5q45 61 72 61q21 0 34 -23q5 -5 10 -23v-125h-1l-2 1q-95 0 -95 -85v-8l1 -2q1 -18 13.5 -33.5t28.5 -15.5q2 0 3 1l8 -4v12h-1v3h-1l-1 1q0 23 22 23h1l2 -1h4l2 -1h2q4 -3 7 -6t7 -6v-155
q-77 -18 -99 -99l7 -3l2 2h1l1 2h-1q36 21 74 21q54 0 99 -50q48 56 115 76l2 -1q61 -4 130 -75q75 83 204 83h8l2 -1h13q6 -2 20 -2h6q4 0 7 2q-7 25 -9 32v450q39 12 39 49zM244 86v407l30 13v-431h-1q-22 5 -29 11zM506 71q-5 7 -10 9l1 -1q-11 6 -16 10v404q8 3 11.5 4
t8.5 3h2l1 1h1l1 -429l-1 1zM565 59q-12 -7 -16 -8v146l6 6h3l1 2h3l1 1h5l2 1h4l3 -1q18 0 26 -8v-131q-19 -5 -27.5 -6t-10.5 -2zM584 392h-15l-2 1q-14 0 -18 4v127l15 7l4 -4l2 -1l2 -2l12 -6q12 -5 18 -5h1v-116q-7 -5 -19 -5zM317 67v137q6 0 10 4h14l2 1h4
q7 -1 20 -3v-115q-27 -11 -50 -24zM575 244l-5 -2q-3 -1 -8 -2t-13 -3v121q9 -3 20 -3h3h12h5t5 1q3 0 5 2l-2 -1q2 1 3.5 1.5t2.5 1.5v-123q-12 4 -17 4.5t-11 2.5zM347 392h-15l-1 1q-14 0 -14 7v125l9 3l8 -8q15 -16 33 -21v-99q-13 -8 -20 -8zM365 245l1 -1q-2 2 -6 2h1
q-2 1 -5 1h-5h-13q-17 -3 -21 -3v116q2 -1 5 -2t6 -1l1 -1h8v-1h7q1 1 8 3q-1 -1 4 0t9 2h2v-116z" />
    <glyph glyph-name="X" unicode="X" horiz-adv-x="614" 
d="M607 83l-5 5q-23 -15 -45 -18q-20 0 -37.5 12.5t-35.5 39t-36.5 67.5t-40.5 98h1q3 -1 12 -1q3 0 10 -1t19 -3t20 -3t11 -1q5 0 8 3l46 94q-8 -2 -19 -3.5t-16 -2.5q-6 -1 -13 -2t-5 -1q-75 -9 -86 -9h-15q-2 5 -3 9t-2 6l-1 2l1 -1q-4 8 -4.5 9.5t-0.5 2.5q42 84 51 114
q19 -10 41 -10q54 0 92 40q39 39 40 101q-46 -34 -83 -34q-44 0 -81 49l-10 -29q-1 -1 -1 -2t-1 -3q-20 -53 -37 -95.5t-34 -75.5q-47 93 -66 118q-50 71 -122 76l-1 -3q-52 -3 -85.5 -38t-33.5 -87v-9l1 -3v1q0 -1 0.5 -1.5t0.5 -1.5q0 -4 1 -5q0 -13 10 -30q10 26 29.5 45
t39.5 19q38 0 73 -43v1q8 -10 19.5 -29.5t27.5 -48.5q5 -12 10 -20.5t8 -16.5q0 -3 2 -7q-49 0 -100 15l-41 -100q11 0 20 3l44 7q20 3 42.5 5t48.5 2q-30 -66 -50.5 -113.5t-31.5 -77.5q-9 0 -16 3q-11 0 -12 1h-4q-61 0 -99.5 -40t-47.5 -104q11 4 14 9l3 1l4 4h-1
q29 23 59 23q15 0 59 -18q2 -1 5.5 -2.5t5.5 -2l2 -0.5l-4 2q16 -7 22 -11l3 -2q14 35 24.5 60.5t15.5 37.5q4 13 5 14v-1q1 2 1 3t1 3q2 5 3.5 8.5l1.5 3.5q0 8 30 80q12 29 20 48t13 28q12 -38 26.5 -74t32.5 -71q49 -96 99 -126q25 -17 58 -17h11z" />
    <glyph glyph-name="Y" unicode="Y" horiz-adv-x="531" 
d="M524 561v9h-7l-2 -2q-2 0 -2.5 -0.5t-1.5 -0.5h1q-5 -2 -12.5 -4.5t-9.5 -2.5q-40 0 -93 79v-12q-37 -32 -64.5 -52.5t-45.5 -30.5v83h-36v-111q-13 -12 -22 -17q-2 -1 -2.5 -1.5t-2.5 -1.5q-2 131 -100 131q-40 0 -76 -33q-33 -33 -33 -74q0 -27 20 -48q0 20 14 37.5
t31 17.5h4l1 -1h1q9 -6 16 -10.5t10 -9.5v-131q-13 -2 -23 -4t-16 -4q-45 -17 -45 -77q0 -53 35 -63v9l1 2q0 20 28 26q15 -7 20 -13v-169q0 -45 34 -76q11 -11 26.5 -18.5t33.5 -12.5q-66 -26 -66 -86q0 -36 29 -62q14 -13 31 -19t34 -7l2 -1h4q44 0 93 40h2l3 3h-1
q50 35 78 35q7 0 12.5 -6t5.5 -13q0 -12 -10.5 -19t-23.5 -7t-39 8v-31q21 -9 40 -9h3l2 1q15 0 29 6t25.5 15.5t18 22.5t6.5 28q0 57 -56 76q-11 2 -17.5 3.5t-11.5 3.5q-1 0 -1.5 0.5t-1.5 0.5h-4q-50 0 -102 -32q-9 -6 -14.5 -9.5t-7.5 -5.5h1h-1v-1v1q-1 -1 -2 -1l-1 -1
h1q-5 -2 -8 -4t-5 -3q-26 -8 -28 -8q-20 0 -20 16q0 57 153 57q8 2 13 2l21 7t16 5q2 1 5.5 1.5t2.5 0.5q78 36 78 96v427q27 15 28 40q0 2 1 3v9zM386 49q0 -9 -6 -18q-10 -17 -44 -25q-9 -2 -15 -3q-2 0 -3 -0.5t-3 -0.5h-14q-5 2 -8 2t-6 1v178q10 2 18 3.5t15 3.5
q2 1 4 1t4 1q20 -3 34.5 -5t22.5 -3h1v-135zM354 376h-10v1q-50 0 -57 6v112q29 14 41 31q17 -15 31.5 -22t23.5 -7h3v-113q-13 -8 -32 -8zM358 224q-15 3 -27 3h-3q-8 -2 -23 -3l-5 -1t-8 -2t-4 -1h-1v124q18 -5 37 -5h22q11 0 21.5 1t18.5 6v-126q-6 0 -13.5 1t-14.5 3z
M226 41v-1l-1 413q13 7 18 12q2 0 8 4v-460q-19 9 -25 32zM113 249l-1 2q0 -2 1 -2z" />
    <glyph glyph-name="Z" unicode="Z" horiz-adv-x="523" 
d="M517 79l-26 17l-17 -20l-28 8q-51 13 -98 13q-85 0 -190 -39q61 51 109 125q14 24 27 48t24 49l111 -10l49 99h-9q-5 -1 -9.5 -1.5t-9.5 -0.5l-2 -1h2q-10 0 -22 -3h1l-43 -5q-15 -2 -25.5 -3t-16.5 -1q14 45 35 89t48 90q22 30 36 49.5t23 28.5l-15 20q-77 -45 -181 -45
q-68 0 -128 27q-31 15 -40 22l-96 -118l21 -21l19 19q27 -28 96 -28q78 0 183 44q-94 -99 -130 -180q-64 0 -106 13l-43 -107q14 2 27.5 5.5t28.5 8.5q20 3 36 5t28 3q-74 -205 -172 -291l8 -26q21 8 37 13.5t27 8.5q69 18 144 18h11q8 0 19 -1t18 -1h9q21 0 68 -14
q24 -7 40 -14t27 -14z" />
    <glyph glyph-name="bracketleft" unicode="[" horiz-adv-x="359" 
d="M322 -6q16 0 41 -7q-47 74 -126 74q-33 0 -61 -9v489q14 -5 29 -6.5t32 -1.5q77 0 126 75q-25 -7 -41 -7q-56 0 -106 47q-65 -55 -144 -55q-4 0 -8 0.5t-9 1.5h-11q12 -19 18.5 -42.5t6.5 -54.5v-403q0 -59 -25 -96h11q5 1 9 1.5t8 0.5q78 0 144 -54q26 23 51.5 35
t54.5 12z" />
    <glyph glyph-name="backslash" unicode="\" horiz-adv-x="321" 
d="M169 392l-1 118l1 1h-1q7 1 10 4l2 1l1 2q21 -22 63 -22q9 0 11 1q25 1 49 20.5t32 45.5h-13l-2 -1h2q-34 0 -66 34q-8 9 -12.5 13.5l-6.5 6.5q-77 -93 -161 -93h-10t-10 2v-10l1 -2q2 -5 3 -9t2 -6v1l1 -100h-1q-9 0 -10 1q-13 0 -14 1q-14 0 -21 3v-18l1 -2v-6l1 -3
v-26q-1 -5 -1 -21h7l2 1q27 0 36 3v-256q-40 -18 -52 -65q6 2 11.5 3t10.5 1l2 1h2q56 0 124 -59l107 103l-21 20l-22 -23q-10 7 -17 11t-9 6q-8 0 -16 5q-10 0 -16 3z" />
    <glyph glyph-name="bracketright" unicode="]" horiz-adv-x="359" 
d="M294 1q4 0 8.5 -0.5t9.5 -1.5h11q-26 37 -26 96v403q0 59 26 97h-11q-5 -1 -9.5 -1.5t-8.5 -0.5q-77 0 -144 55q-48 -47 -105 -47q-17 0 -41 7q47 -75 126 -75q16 0 31 1.5t29 6.5v-489q-29 9 -60 9q-80 0 -126 -74q24 7 41 7q55 0 105 -47q67 54 144 54z" />
    <glyph glyph-name="asciicircum" unicode="^" horiz-adv-x="581" 
d="M430 259h62l-172 430h-52l-172 -430h63l135 349z" />
    <glyph glyph-name="underscore" unicode="_" horiz-adv-x="856" 
d="M873 -4q0 10 -21 10h-840q-20 0 -20 -10q0 -11 20 -11h840q21 0 21 11z" />
    <glyph glyph-name="grave" unicode="`" horiz-adv-x="356" 
d="M271 529q-20 8 -43.5 19t-49.5 28q-29 18 -51.5 34.5t-36.5 32.5q-10 -26 -22.5 -49t-28.5 -40q24 -9 48.5 -21t49.5 -28q57 -34 88 -66q10 26 21.5 46.5t26.5 37.5z" />
    <glyph glyph-name="a" unicode="a" horiz-adv-x="396" 
d="M392 49h-11l-1 -1q-21 1 -35 12.5t-14 30.5v207q43 25 43 68v8q-27 -9 -38 -9q-24 0 -50 32v-1q-4 4 -6.5 7.5t-1.5 3.5q-1 1 -1 10q-8 -8 -9.5 -10t-3.5 -5l-1 -2q-41 -54 -61 -54q-2 0 -4 2l-5 -2h2q-18 0 -35 22v-1q-5 8 -14 20.5t-14 17.5l-1 2l-5 6
q-43 -52 -115 -78q21 -23 31 -29h-1q12 -14 21.5 -25.5t17.5 -20.5q13 -14 19.5 -21.5t8.5 -10.5q-91 -62 -91 -141q0 -24 4 -37q5 -20 17.5 -36t32.5 -30q41 -25 84 -25h6l68 58q5 -10 13 -18.5t18 -18.5q26 -22 50 -22h8l1 1h3l1 1h4l1 1h1zM201 45q-35 0 -62 30
q-25 28 -25 67q0 11 4 25.5t14 33.5l62 -67l25 22l-112 127q3 -1 6 -1h6h21l2 1q33 0 55 28q16 -21 30 -21v-238l-1 -1h-1q-8 -6 -24 -6z" />
    <glyph glyph-name="b" unicode="b" horiz-adv-x="406" 
d="M396 367q-1 0 -1.5 -0.5t-1.5 -0.5q-3 0 -4 -1q-5 0 -7 -2l1 1q-5 -3 -6 -3h-3q-52 0 -84 56l-124 -83v206q0 4 4 20t15 45q-28 -20 -45.5 -32t-22.5 -16q-33 -18 -66 -18l-1 1h-2l-7 7v-13l1 -1v-1l3 -3h1q7 -10 14 -28v1l1 -435q-38 -16 -47 -59h15l2 1h6l1 1h1
q63 0 119 -52q67 52 162 52q18 0 34 -3t33 -8q-8 9 -12.5 16t-4.5 12v286q26 20 30 49zM245 39l-7 -2v1v1q-38 30 -70 39l-2 212l50 32q7 -12 34 -25q2 -2 5 -2q2 -1 6 -1h1v-252q-12 -2 -17 -3z" />
    <glyph glyph-name="c" unicode="c" horiz-adv-x="320" 
d="M309 382q-22 -14 -29 -14q-36 0 -79 56q-22 -30 -57 -47t-72 -17q-17 0 -19 2l-9 9v-13q2 -9 3 -10q0 -5 5 -17q0 -11 3 -17q0 -6 0.5 -10t0.5 -7v-228q-35 -24 -45 -72q16 18 44 18q83 0 152 -58l91 112l-24 19l-26 -31q-5 6 -12.5 10.5t-17.5 8.5q-17 6 -25.5 8.5
t-9.5 3.5q-14 0 -23 5v232q19 -28 65 -28q35 0 61.5 23.5t28.5 58.5z" />
    <glyph glyph-name="d" unicode="d" horiz-adv-x="403" 
d="M397 374l-8 -10q-16 0 -32 15h1q-2 2 -4.5 4t-4.5 4q-7 6 -12 11l-9 9l-23 24q0 -1 -2 3l-104 103l-25 25v-1q-19 26 -26 47q-25 -13 -51 -20t-52 -7q-10 0 -11 1q-9 0 -18 9v-14q32 -37 45 -48q9 -8 16.5 -13.5t11.5 -8.5q18 -14 36 -31t35 -35l42 -46q-50 -35 -124 -35
h-3l-2 1h-12l-2 1h-12q20 -28 20 -44v-239q-45 -23 -54 -77q26 19 59 19q56 0 97 -48q2 -2 3.5 -4t3.5 -4l9 -8q53 65 138 65q41 0 73 -19l-7 14q-1 2 -1 4l-1 1v1l-1 2q-1 1 -1 5l-1 1l-1 5q0 1 -1 2v-1l-1 3v2q-1 1 -1 3v286q1 6 7 14v2q2 2 3.5 4t3.5 4l1 2l2 2v15z
M269 53h-5l-1 -1h-3l-2 -2h-1l-2 -2q-20 20 -48 34q-13 4 -20 5.5t-10 2.5l-7 2v244q33 7 60 33l40 -41v-274zM387 344l2 4q-2 -2 -2 -3v-1zM386 346v1v-2q-1 0 0 1z" />
    <glyph glyph-name="e" unicode="e" horiz-adv-x="338" 
d="M331 264q-10 14 -21.5 33.5t-24.5 42.5q-14 26 -22 47t-13 39q-99 -66 -178 -66h-4l-3 1h-3l-1 1h-6l-9 9v-14q16 -35 16 -50v-242q-20 -15 -27 -24q-1 -1 -5.5 -8t-11.5 -18v1q-2 -2 -4 -5.5t-4 -8.5q12 2 24 3.5t24 1.5q32 0 76 -9q26 -5 46 -14.5t41 -20.5l10 -5
l91 100l-25 23l-24 -25q-23 11 -49.5 19t-57.5 13v75q11 8 20 13q61 36 96.5 56.5t47.5 26.5zM198 283q7 -15 12.5 -24.5t9.5 -15.5l-54 -35v128l8 2q5 -14 11 -28t13 -27z" />
    <glyph glyph-name="f" unicode="f" horiz-adv-x="321" 
d="M331 563h-8l-2 -1h2q-34 0 -66 34q-8 10 -12.5 14.5l-6.5 6.5q-78 -94 -161 -94h-10t-10 2v-10l1 -2q2 -5 3 -9t2 -6v1l1 -100h-1q-9 0 -10 1q-13 0 -14 1q-14 0 -21 3v-18l1 -2v-6l1 -3v-26q-1 -5 -1 -21h7l2 1q27 0 36 3v-256q-40 -18 -52 -65q6 2 11.5 3t10.5 1l2 1h2
q56 0 124 -59l107 103l-21 20l-22 -23q-10 7 -17 11t-9 6q-8 0 -16 5q-10 0 -16 3v248q8 -2 16 -2h20q1 0 1 -1h1h-1q2 -1 4 -1h4q30 -6 38 -6l1 -1h13l-6 7v10l-1 2v5q0 20 3 40v5l1 2v3l1 1v9q-8 -2 -14.5 -2.5t-9.5 -0.5q-7 -4 -70 -4l-1 1v113l1 1h-1q7 1 10 4l2 1l1 2
q21 -22 63 -22q9 0 11 1q25 1 49 18.5t31 42.5z" />
    <glyph glyph-name="g" unicode="g" horiz-adv-x="417" 
d="M410 -2q0 16 -17 39h1l-1 2l-5 4h1l-1 2q-24 31 -24 59v205q20 13 32 32.5t14 46.5q-8 -5 -19.5 -10.5t-19.5 -9.5h-3q-47 0 -82 59q-18 -11 -32 -18l-20 -10q-78 -37 -146 -37h-5l-3 1q-23 0 -37 10v-11q2 -3 7 -16q1 -3 1.5 -5t1.5 -4q1 -4 1.5 -6.5l0.5 -2.5v-256
q-5 -2 -11 -8t-14 -17q-16 -22 -16 -38q9 0 11 1q24 7 33 7q1 1 6 1q47 0 94 -61q43 53 105 85q5 -28 26 -45q22 -22 22 -34q0 -19 -36 -52q-31 22 -89 22q-48 0 -90 -24q-47 -26 -65 -79q45 27 81 27q41 0 63 -17q5 -3 6.5 -3.5t3.5 -2.5h-1q5 -5 10 -8.5t9 -6.5h-1
q5 -4 6.5 -6t8.5 -5q14 14 27.5 27t24.5 23q6 7 21 17.5t39 27.5q2 2 4 3q47 34 60 51q17 21 17 41zM257 81q-8 -5 -17.5 -11.5t-13.5 -8.5l1 1l-4 -2l-1 -1q-21 21 -49 26q-7 0 -13 2v245q7 0 11 2l8 4q9 0 21 6v-1h1v1q4 -5 6.5 -9.5t4.5 -6.5q21 -29 48 -29v-217
q-1 -1 -3 -1z" />
    <glyph glyph-name="h" unicode="h" horiz-adv-x="426" 
d="M420 389v14q-37 -23 -50 -23q-5 0 -6 1q-30 0 -57 55l-126 -96v188q0 3 1 10t3 18v1t1 2q4 22 8 30l3 6q1 3 3.5 10t4.5 13l-8 1l1 1q-20 -17 -22 -18q-32 -23 -61 -35t-58 -12q19 -41 19 -60v-419q-49 -21 -63 -76q2 0 8 1t11 3q8 4 12 5t6 1h5q46 0 102 -54l92 84
q-8 10 -19.5 19t-27.5 17q-7 2 -12 4t-9 3v207l44 33l1 -1q4 -4 24 -17q18 -12 28 -12v-259q0 -13 -11 -24v-1q-12 -7 -12 -30q0 -33 19 -61l-1 1q1 -9 4 -10q11 -13 11 -31q0 -22 -32 -34q12 -29 42 -29h4l1 1h6l2 1q6 0 20 9q36 22 36 60q0 41 -49 81q-8 7 -13.5 12
t-7.5 8h6l-7 7q3 17 55 17q33 0 52 -10l5 7l-2 2v1l-2 2v-1q-14 18 -22 41v-1l-1 260q24 14 35 52q1 5 1 8q0 4 1 7t1.5 5t0.5 5z" />
    <glyph glyph-name="i" unicode="i" horiz-adv-x="248" 
d="M243 42l-4 7q-15 -6 -26 -6q-32 0 -41 19q-5 10 -5 16v213q14 6 27 20.5t21 37.5q0 8 2 14v12q-25 -14 -32 -14q-31 0 -72 58v-12q-3 -3 -6.5 -6l-3.5 -3q-16 -15 -27 -22q-20 -17 -32 -28.5t-22 -20.5l-2 -1l-2 -2l-1 1l-3 -5l14 -20l14 8q8 -17 23 -18v-252
q0 -31 30 -55q14 -12 30 -17.5t32 -6.5zM205 498v9h-7l-1 -1h-1l-1 -1h-1l-2 -2h1q-5 -2 -8.5 -2.5t-8.5 -2.5q-28 0 -54 38q-11 -8 -20.5 -15t-16.5 -12q-5 -4 -10.5 -8.5t-8.5 -6.5l2 2l-17 -8.5t-17 -12.5l13 -22l16 8q9 -31 47 -31l2 -1h10v-1h8q14 0 27.5 6t24 15.5
t17 22t6.5 26.5z" />
    <glyph glyph-name="j" unicode="j" horiz-adv-x="233" 
d="M228 -10q0 36 -58 91q-4 1 -4 3v208q31 13 47 58q1 9 3 14v12q-25 -14 -39 -14q-24 0 -65 58v-11q-3 -3 -6.5 -6l-3.5 -3q-9 -9 -15.5 -14.5t-11.5 -8.5q-20 -17 -32 -28.5t-22 -20.5l-2 -1l-2 -2l-1 1l-3 -6l14 -19l13 8q10 -17 24 -18v-254q3 -6 9 -9q8 -7 13.5 -12
t10.5 -10q4 -4 7 -6.5t5 -4.5q21 -26 21 -40q0 -20 -29 -53q-14 -20 -22.5 -32t-10.5 -20v1q-2 -8 -2 -18v-7l8 -9v-8h29v10h-1q2 15 17.5 34t44.5 44q12 11 20 19l13 13q31 32 31 61zM203 500v8h-6l-1 -1h-1l-1 -1h-1l-2 -2h1q-5 -2 -9 -2.5t-8 -1.5q-28 0 -54 37
q-11 -8 -20.5 -15t-16.5 -12q-5 -4 -11 -8t-8 -6l2 2l-17 -8.5t-17 -12.5l13 -23l16 8q8 -31 47 -31l2 -1h10v-1h8q14 0 27 6t23.5 15.5t17 22.5t6.5 27zM74 -191h-3v3l-2 2q2 -9 3 -9.5t2 4.5zM72 -189l-1 3v-2z" />
    <glyph glyph-name="k" unicode="k" horiz-adv-x="411" 
d="M406 41l-5 7l-3 -3q-6 -3 -22 -3t-26.5 12t-24.5 45q-5 12 -9 23t-9 24q-8 18 -17 37t-19 36l96 62q-57 74 -82 139l-120 -88v199q0 30 9 41q0 7 4 11q0 5 5 13l-5 5q-82 -65 -127 -65h-2l-1 1h-6l-9 9v-14q23 -21 23 -38v-426q-41 -23 -41 -59h9l1 1q70 -1 113 -56
l82 77q-5 7 -9 12.5t-9 9.5t-10.5 7.5t-10.5 6.5l-4 2l-4 2l-1 1q-2 1 -4 1q-1 0 -3 2v73l22 15q10 -21 15 -35.5t9 -24.5q11 -38 18 -59.5t11 -29.5q23 -47 70 -62zM260 254l-95 -63v95l53 36q16 -28 26.5 -44.5t15.5 -23.5z" />
    <glyph glyph-name="l" unicode="l" horiz-adv-x="239" 
d="M234 37l-20 26l-15 -14l-3 3q-1 2 -6 7q-4 2 -2 0q-20 15 -32 21v427q0 15 7 43q4 14 7 25t7 19l-5 4q-75 -60 -110 -60q-3 0 -6 0.5t-9 3.5v-13l1 -2q1 -2 1 -5l1 -1l2 -3q0 -5 1 -7v1q0 -1 0.5 -1.5t0.5 -1.5l6 -31v-408q-25 -13 -48 -50q71 -17 123 -62z" />
    <glyph glyph-name="m" unicode="m" horiz-adv-x="643" 
d="M642 53h-13l-2 -2h-2l-2 -1h1q-13 -4 -19 -4q-10 0 -19.5 8.5t-9.5 18.5v230q11 11 18 21.5t9 24.5q0 3 0.5 5.5t0.5 4.5t0.5 3.5t0.5 2.5v17q-27 -18 -50 -18q-25 0 -67 54l-108 -84q-13 55 -72 89l-120 -96q-15 69 -77 96l-96 -99v-7q59 -14 59 -40v-217
q-18 -8 -33.5 -28.5t-20.5 -40.5q15 9 38 9q49 0 87 -53l89 86q-5 9 -13.5 16.5t-23.5 13.5q-5 2 -9.5 3.5t-8.5 3.5v203l65 50q28 -19 28 -50v-211q-43 -31 -53 -74q18 12 35 12q40 0 99 -53l86 83q-26 17 -40.5 27t-21.5 13v214l39 29q13 -17 34 -26q2 -1 4.5 -2t4.5 -2
l4 -2t1 0h2v-269q0 -11 6 -22.5t15 -20.5t21 -14.5t24 -5.5h6z" />
    <glyph glyph-name="n" unicode="n" horiz-adv-x="444" 
d="M442 60h-13l-1 -1h-8l-1 -1h-4q-30 0 -30 20v233q27 27 27 51l1 2v10l1 2v14q-40 -17 -51 -17q-23 0 -65 58l-118 -99q-1 28 -17 53q-7 11 -18.5 22.5t-27.5 25.5l-102 -102v-7h5l2 -1q32 0 50 -30v-225q-39 -23 -47 -62h10l1 1h4l1 1h5l1 1h3q56 0 110 -51l93 67
q-7 9 -15.5 17.5t-19.5 15.5q-6 5 -16 10t-22 10v210l41 33q8 -11 18 -18t26 -11h-1l4 -2l1 -1h2q2 -1 6 -1v-262q0 -28 24 -47q13 -10 27 -16t28 -7z" />
    <glyph glyph-name="o" unicode="o" horiz-adv-x="418" 
d="M411 367v13q-13 -8 -20 -10.5t-12 -2.5q-8 0 -23 5q-27 10 -60 59q-85 -70 -191 -70q-17 0 -31 2t-26 6v-11l1 -2v3v-2q1 0 1 -1q0 -3 2 -5l2 -4l1 -1v-2l2 -2q0 -2 1 -2l3 -9v1l1 -261q-44 -21 -48 -64l20 3q12 3 20 3q43 0 97 -56q72 69 187 69q23 0 61 -8
q-27 25 -27 59v230q5 2 10.5 8t12.5 14q6 10 10 16.5t4 12.5l1 2v5zM249 55l-12 -6q-26 24 -36 28l-3.5 1t-6.5 2h1l-4 2q-11 0 -19 5v241q21 0 38 10q24 -37 58 -38v-242h-1q-9 -3 -15 -3z" />
    <glyph glyph-name="p" unicode="p" horiz-adv-x="448" 
d="M442 367v8h-7l-2 -2h-2q-4 -4 -13 -4q-1 -1 -5 -1q-7 0 -8 1q-16 0 -38 24q-11 12 -18.5 22t-12.5 18l-149 -119q0 24 -2.5 41.5t-7.5 29.5q-13 32 -55 52l-107 -113v-8h10l1 1h8l1 1q16 0 29.5 -8t13.5 -21v-199q-27 -12 -45 -41t-18 -57q3 2 8 5t7 4q7 3 8 3l14 7h-1
q7 2 12.5 3.5t10.5 3.5h4v-147l-1 -2v-4q-1 -5 -1 -6t-1 -3q-2 -17 -18 -39l4 -5q10 5 20.5 11t16.5 10v-1q54 26 84 26q5 0 12 -1t13 -3q-20 30 -20 58v80q10 -8 17.5 -15.5t13.5 -14.5l-1 1l1 -2l4 -3q80 61 157 61h5q5 -3 12 -3.5t16 -0.5l-3 6q-10 14 -10 19q-3 4 -3 10
v257q17 5 31.5 24t14.5 36zM220 89q-23 10 -30 11l-3 172l65 52q18 -18 35 -18v-264l-7 -3q-21 30 -60 50z" />
    <glyph glyph-name="q" unicode="q" horiz-adv-x="414" 
d="M403 361h-3l-2 -2h-1q-8 -6 -24 -6q-34 0 -77 63q-56 -35 -108 -51.5t-100 -16.5q-8 0 -9 1q-12 0 -13 1q-11 0 -23 12q1 -4 2.5 -14t2.5 -13q3 -16 6 -31v-235q-15 -10 -27.5 -31.5t-14.5 -39.5q18 6 29 9.5t15 3.5q41 0 100 -53l103 70v-121q0 -21 -7 -39l-6 -18l1 1
l-3 -6l5 -5q2 2 7 2q34 0 78 -18v0q1 0 2 -1q1 0 2.5 -0.5t2.5 -0.5q9 0 33 -12q4 0 11 -4l5 6q-12 16 -17 33q-5 22 -7.5 37t-2.5 19v388q40 22 44 68zM189 74q-13 5 -19.5 8t-10.5 5v229h1q16 0 29 7q-1 0 7 2q4 0 6 2l-1 -1q1 0 1.5 0.5t1.5 0.5l3 -3q0 -3 3 -3
q24 -31 49 -36v-207l-36 -26q-15 14 -34 22z" />
    <glyph glyph-name="r" unicode="r" horiz-adv-x="346" 
d="M340 360v23q-20 -18 -32 -18q-35 0 -53 57l-8 -1v-3q-23 -36 -42 -55q-6 -7 -11 -12.5t-10 -10.5l-9 -12q-17 69 -70 96q-35 -68 -97 -104q3 -1 9.5 -2.5t8.5 -2.5l9 -3q11 -5 19.5 -11.5t15.5 -16.5v-207l-1 -1h-3l-3 -3l2 1l-7.5 -5t-10.5 -9q-31 -31 -31 -62l13 5
q8 2 15.5 4.5t17.5 2.5q49 0 105 -53l103 100l-22 24l-18 -18q-21 21 -41 23h1q-5 1 -9 2t-6 2v180l27 28q27 -26 56 -26q36 0 59 25t23 63z" />
    <glyph glyph-name="s" unicode="s" horiz-adv-x="399" 
d="M388 411l-27 -2q-18 -29 -47 -29q-28 0 -60 37q-36 -36 -40 -38q-43 -23 -89 -23q-9 0 -10 1q-28 0 -35 4q-11 0 -21 9v-9t2 -6v-1l3 -7q0 -4 1 -5v1q0 -1 0.5 -1.5t0.5 -1.5l1 -174l-1 -2q0 -13 -9 -25l1 3l-7 -7l66 -3q-6 -6 -10.5 -11t-7.5 -8l-4 -4
q-34 -42 -54 -78.5t-28 -71.5h29q18 44 64 44q11 0 17 -3q9 0 16 -3.5t15 -10.5l29 -29q49 52 125 52h6q3 -1 18 -1q5 -3 13 -3.5t20 -0.5q2 0 3 -1h-1q2 -1 13 -1l-4 8l-6 10t-1 3l1 -2l-1 5q0 1 -1 2v-1l-1 2v3q-1 1 -1 3v170q0 -1 1 3.5t2 7.5v-1q0 1 0.5 2t0.5 3l1 2v2
l2 2v2l1 1q0 3 1 5q0 1 0.5 4t0.5 4l-94 -2q84 86 110 166zM262 42h-4q-5 -2 -7.5 -2.5l-2.5 -0.5l-4 -2q-37 46 -89 46q-5 0 -14 -1.5l-21 -3.5q13 13 22 23.5t16 17.5l52 52h51l2 -2v-126zM246 255q-23 -23 -37.5 -37t-22.5 -19h-11v126q5 0 11 3h4q1 1 4 2q37 -29 66 -29
q19 0 36 7q-16 -17 -50 -53z" />
    <glyph glyph-name="t" unicode="t" horiz-adv-x="265" 
d="M261 43l-21 24l-10 -11q-6 4 -11 7.5t-8 5.5h1q-1 1 -2.5 1.5t-2.5 1.5q-3 0 -6 3q-1 1 -4 2l-3 1q-10 0 -17 7v239q19 -1 33.5 -3.5t25.5 -6.5h1l1 -1l12 -6q-6 36 -6 58h-1q0 20 3 26q0 4 1 6q0 1 0.5 5.5t0.5 5.5q-20 -14 -37 -14l-2 1h-32v83q0 8 4 25q1 2 1 5t0 1
q2 6 2.5 10t1.5 6l1 1v14q-52 -64 -110 -64v1h-5l-1 2l-7 -2q0 -7 2 -9v-1q1 -2 1.5 -4.5t1.5 -4.5t1.5 -3.5l0.5 -1.5v-10l1 -2v-46h-8q-12 0 -14 -1q-5 1 -14 4t-22 10q0 -26 4 -37v-10l1 -3v-6q-1 -4 -1.5 -7t-0.5 -6v-8q-1 -2 -1 -6l-1 -2v-3q-1 -2 -1 -6v-7l11 6h2l2 2
q8 2 9 3q9 2 16 6h18v-251q-25 -13 -39 -45q-9 -20 -9 -24v-14q12 18 36 18q50 0 104 -51z" />
    <glyph glyph-name="u" unicode="u" horiz-adv-x="463" 
d="M456 46l-4 7q-15 -6 -23 -6l-2 -1h-2q-48 0 -48 51v196q50 15 50 75h-7l-1 -1h-2l-1 -1h-2l-1 -1l-2 -2q-6 -2 -15 -2q-22 0 -73 54q-76 -76 -108 -86l19 -28l20 10q4 -5 6.5 -7.5l4.5 -4.5l3 -1l2 -1h1l2 -211l-6 -3q-3 -3 -6 -3q-8 -6 -12 -10t-8 -6v1q-2 -1 -2.5 -2
t-2.5 -2l-2 -1l-2 -2q-4 3 -10.5 7.5t-15.5 10.5q-2 1 1 0t4 -1q-25 7 -31 12v245q0 56 -68 91l-97 -100v-7h9q2 0 4 -1q5 -2 12 -3t12 -3l-1 1q16 -9 21 -22v-214q-35 -18 -44 -69q13 10 33 10q42 0 105 -58q14 14 24.5 23.5t19.5 16.5q20 14 34 24t25 17q2 1 2.5 2t2.5 2
q11 -65 89 -84z" />
    <glyph glyph-name="v" unicode="v" horiz-adv-x="421" 
d="M414 353v13q-14 -9 -24 -9q-34 0 -74 53l-108 -82l16 -25l14 9q11 -17 31 -23v-241q0 -22 -35 -22q-25 0 -42 12.5t-17 34.5v277q0 13 -5 22q-18 36 -50 43l-105 -84v-7h6l2 -1h7l3 -1h2q9 0 21 -10.5t12 -18.5v-254q0 -61 40 -76q15 -6 43 -6q26 0 83 18q41 13 71 19.5
t51 6.5h6q4 -1 28 -1v6l2 -1l-13 32q-3 4 -3 13v245q17 13 26.5 24.5t9.5 23.5l1 2v6z" />
    <glyph glyph-name="w" unicode="w" horiz-adv-x="613" 
d="M601 367q-5 -2 -7 -4q-4 -1 -6 -1t-4 -1v-1h-1q-2 -1 -4 -1q-9 0 -10 1q-32 3 -57 55l-110 -81l15 -24l12 5q16 -19 30 -23v-242q0 -19 -18 -19h-11q-1 0 -1.5 0.5l-0.5 0.5q-4 2 -9 3.5t-8 3.5q-33 16 -33 51v261q-2 8 -3 11q-2 3 -2.5 6t-1.5 5q-11 28 -52 49l-102 -88
v-8q18 0 35 -11.5t17 -25.5v-223q-6 -4 -13 -6q-1 -1 -2.5 -2t-2.5 -2l-4 -4q-6 5 -15 10t-20 10q-5 2 -6 2.5t-6 2.5q-11 0 -16 4v248q0 31 -20 56t-50 36l-101 -101l8 -5h3l2 -1h8l3 -1h2q21 0 36 -30v-216h-1l-1 -2q-31 -23 -41 -58q5 2 10.5 3t9.5 1l2 1h2q31 0 59 -14
t57 -40q15 11 26 19t15 11v-1q6 4 8 5l2 1l2 2q1 1 9 4q18 10 43 26q17 -27 45.5 -46.5t58.5 -21.5q13 6 21.5 10.5t14.5 6.5q72 33 144 33h2q3 -1 21 -1q-11 16 -11 17q-10 14 -10 29v243q39 23 43 68z" />
    <glyph glyph-name="x" unicode="x" horiz-adv-x="431" 
d="M428 71h-11l-2 -2h-2l-2 -1h1q-4 -2 -7.5 -2.5t-5.5 -1.5q-8 -2 -11 -3q-18 0 -33 9v-1q-40 23 -64 87h5h4q3 0 8 -1q3 0 6.5 -0.5t7.5 -0.5q5 0 8 -0.5t6 -0.5t5 -0.5t4 -0.5h6v16l-1 2q0 20 11 58q-68 -6 -92 -6q-3 0 -3 1l1 -1l-3 7l25 60q20 -7 32 -7q36 0 62 35
q23 31 23 67v6l-1 2q-1 7 -2 11.5t-2 8.5q-1 2 -1 3v11q-8 -12 -12.5 -19.5t-6.5 -10.5v1l-2 -2q-2 -1 -7 -6h1q-11 -8 -24 -8q-12 0 -18 4q-28 21 -28 32l-7 1l-55 -131q-14 30 -23 49t-14 27q-25 47 -63 62l-104 -73v-7q71 -23 117 -123h-6q-26 0 -44 9v-8l-1 -1
q0 -6 -1.5 -12l-3.5 -14q-3 -11 -3 -16q-6 -13 -9 -29q32 4 55 6.5t39 3.5l4 -9l-29 -71q-6 2 -11 4t-8 3h-4h-1h-5q-23 0 -42.5 -8t-36.5 -26q-32 -35 -32 -80v-3l1 -1v-12l12 13q3 3 5.5 6t0.5 2q11 8 22.5 13t21.5 5q32 0 69 -42l61 137q5 -15 13 -31t19 -33
q44 -66 98 -74z" />
    <glyph glyph-name="y" unicode="y" horiz-adv-x="430" 
d="M423 367v16q-14 -11 -31 -11l-1 -1h-2q-37 0 -68 42l-150 -101v39l-1 1v6l-1 2q0 11 -17 34q-7 9 -15 16t-15 11l-107 -84v-7q48 -5 48 -28v-261q0 -23 24 -45q16 -16 36 -25q-49 -24 -51 -75h-1v-5q0 -17 7.5 -31.5t19.5 -25.5t28 -17.5t33 -6.5q11 0 18 0.5t12 1.5
q9 2 25.5 10t39.5 23q39 24 62 24h1l2 -1q13 0 13 -10q0 -6 -8 -11t-14 -5h-3l-2 -1h-1q-15 0 -31 9v-34q8 -8 36 -8q31 0 52.5 19t21.5 48q0 33 -25 55t-60 22q-40 0 -90 -28q-52 -29 -61 -29q-19 0 -19 15q0 40 106 48q8 1 9 1h6q8 0 18.5 1.5t22.5 3.5q87 20 87 72v267
q7 3 15 9.5t14 14.5t10.5 16.5t4.5 15.5l1 1v5zM227 -2l-2 -1h-6q-1 0 -1.5 0.5t-1.5 0.5q-2 0 -3 0.5t-2 0.5h-4q-35 7 -35 27v240l61 42l17 -8q5 -2 9 -4t8 -3v-273q0 -11 -13 -16.5t-27 -5.5z" />
    <glyph glyph-name="z" unicode="z" horiz-adv-x="368" 
d="M364 412l-33 15q-6 -7 -10.5 -11.5t-7.5 -9.5v1q-39 -39 -86 -39q-59 0 -110 64l-93 -96q61 -51 124 -51q27 0 54.5 7t54.5 24l-54 -81q-8 0 -10 -1h-36q-50 0 -74 15q0 -58 -27 -94q12 5 31.5 7.5t45.5 2.5h17h6l-121 -179l31 -21l20 31q13 17 39 37q29 18 47 18
q10 0 19 -5.5t20 -15.5q20 -20 20 -37v-5l1 -1v-2q0 -43 -29 -75q-29 27 -63 27q-13 0 -15 -1q-43 -7 -74 -42t-38 -83l9 10h1q2 1 4.5 2.5t7.5 6.5h-1q24 18 46 18q18 0 39.5 -11.5t47.5 -34.5l73 86q2 4 7 9.5l5 5.5q6 9 13 16v-1q2 2 2.5 3t2.5 3q28 35 37 49
q21 31 21 65q0 39 -26.5 64.5t-65.5 25.5q-14 0 -32 -5.5t-44 -16.5l41 61q26 -3 44.5 -4t31.5 -3q9 -1 16.5 -2t9.5 -1v12l-1 1q0 18 8 35.5t22 36.5h-13l-1 -1h-5l-1 -1q-3 0 -8.5 -0.5t-10.5 -1.5q-8 -1 -14 -1.5t-9 -0.5h-14q-5 0 -9 1z" />
    <glyph glyph-name="braceleft" unicode="{" horiz-adv-x="487" 
d="M408 -208q-53 12 -80 51q-24 34 -24 81q0 13 1.5 33.5t5.5 48.5q6 55 6 79q0 72 -58 121q-31 25 -86 52q28 12 49 24.5t37 25.5q58 49 58 123q0 23 -6 79q-4 28 -5.5 48.5t-1.5 34.5q0 46 24 81q28 39 80 51v32q-82 -3 -145 -51q-68 -51 -68 -122q0 -18 3 -42t8 -54
q8 -39 12 -62.5t4 -29.5q0 -88 -107 -123v-30q44 -14 75 -47q32 -34 32 -76q0 -6 -4 -29.5t-12 -62.5q-5 -29 -8 -53t-3 -42q0 -71 68 -122q63 -48 145 -51v32z" />
    <glyph glyph-name="bar" unicode="|" horiz-adv-x="175" 
d="M76 -211h30v999h-30v-999z" />
    <glyph glyph-name="braceright" unicode="}" horiz-adv-x="487" 
d="M300 -67q0 36 -12 95q-8 39 -11.5 62.5t-3.5 29.5q0 44 32 76q14 16 32.5 27.5t42.5 19.5v30q-107 35 -107 123q0 6 3.5 29.5t11.5 62.5q12 60 12 96q0 35 -17.5 65.5t-50.5 56.5q-63 48 -145 51v-32q52 -12 79 -51q25 -36 25 -81q0 -14 -1.5 -34.5t-5.5 -48.5t-5.5 -48
t-1.5 -31q0 -73 59 -123q30 -26 84 -50q-27 -14 -48.5 -26.5t-35.5 -25.5q-59 -50 -59 -121q0 -12 1.5 -31.5t5.5 -47.5t5.5 -48.5t1.5 -33.5q0 -45 -25 -81q-25 -39 -79 -51v-32q82 3 145 51q68 53 68 122z" />
    <glyph glyph-name="asciitilde" unicode="~" horiz-adv-x="584" 
d="M434 169q28 0 57 17q52 32 73 115h-53q-21 -79 -79 -79q-21 0 -75 18q-174 54 -202 54q-56 0 -97 -49q-11 -13 -18.5 -33.5t-15.5 -48.5h53q12 45 37 64q19 14 41 14q11 0 46 -9t92 -28q107 -35 141 -35z" />
    <glyph glyph-name="exclamdown" unicode="&#xa1;" horiz-adv-x="229" 
d="M18 5q27 6 29 6q25 0 72 -59v10q70 75 110 75q-9 11 -18 20.5t-10 10.5h-2l-1 2q-14 6 -21.5 10.5l-12.5 7.5l-43 316h-29l-29 -313q-14 -14 -21.5 -22t-10.5 -13q-9 -13 -13.5 -24t-4.5 -23zM30 505l77 -81l78 81l-78 79z" />
    <glyph glyph-name="cent" unicode="&#xa2;" horiz-adv-x="358" 
d="M308 113l14 16t12 14l-22 21l-32 -34q-2 2 -6.5 3t-6.5 3h1l-3 1l-6 2v247q67 4 94 71l-5 9q-9 -7 -17 -9.5t-14 -2.5q-33 0 -58 26v82h-31v-73q-50 -46 -120 -46h-7q-4 0 -9 1q-3 0 -10 0.5t-11 0.5q21 -35 21 -81v-226q-29 -21 -40 -45l6 -9q15 9 33 9q56 0 137 -49
v-78h31v93q14 16 26 29.5t23 24.5zM192 161v259q10 -10 18.5 -16.5t17.5 -10.5v-241q-23 7 -36 9zM284 129q2 -1 1 -1l-2 1h1z" />
    <glyph glyph-name="sterling" unicode="&#xa3;" horiz-adv-x="472" 
d="M479 72l-24 20l-18 -23q-71 31 -154 31q-49 0 -100 -16q14 21 21 45t7 54v50h71q29 0 51 -7q-8 12 -8 24q0 14 7 36q6 20 9 30.5t3 17.5q-29 -16 -67 -16h-66v136q0 53 47 53q42 0 89 -44l-22 -27l20 -16l96 107q-51 44 -121 44q-44 0 -107 -45q-62 -44 -83 -75
q-27 -36 -27 -83v-50h-20q-31 0 -53 7q9 -14 9 -24q0 -6 -1.5 -15.5t-5.5 -21.5l-14 -49q33 18 69 18h16v-108q0 -41 -15 -60v1q-7 -9 -23.5 -21.5t-42.5 -29.5l13 -28q37 15 72 22t68 7q125 0 213 -58z" />
    <glyph glyph-name="currency" unicode="&#xa4;" horiz-adv-x="584" 
d="M491 88l53 53l-65 66q21 29 32 61t11 69q0 70 -44 129l65 65l-52 55l-66 -65q-59 41 -130 41q-69 0 -130 -41l-66 65l-53 -54l65 -66q-41 -57 -41 -129q0 -74 42 -131l-65 -64l53 -53l65 64q58 -42 130 -42q35 0 68 10t62 32zM295 486q32 0 57.5 -11t48.5 -33
q44 -44 44 -105q0 -32 -11 -57.5t-33 -48.5q-23 -22 -48.5 -33t-57.5 -11q-61 0 -105 44t-44 106t44 105q44 44 105 44z" />
    <glyph glyph-name="yen" unicode="&#xa5;" horiz-adv-x="551" 
d="M427 65l-18 17l-22 -20q-26 20 -51 26v164h105v38h-105v28h105v38h-96q11 23 20.5 46.5t18.5 45.5q16 -6 41 -6q44 0 74.5 30t43.5 80l-13 8q-22 -25 -58 -25q-38 0 -78 39q-21 -60 -43 -114.5t-45 -105.5q-25 64 -47.5 107.5t-42.5 66.5q-34 40 -93 43
q-15 -29 -31.5 -56t-36.5 -54l12 -12q21 16 35 16q29 0 49 -24q8 -11 20.5 -32t27.5 -53h-84v-38h101l12 -28h-113v-38h120v-168q-28 -11 -54 -31t-50 -52l11 -12q28 15 62 15q59 0 117 -47q33 33 60 59t46 43v6z" />
    <glyph glyph-name="brokenbar" unicode="&#xa6;" horiz-adv-x="191" 
d="M74 397h50v275h-50v-275zM74 -97h50v274h-50v-274z" />
    <glyph glyph-name="section" unicode="&#xa7;" horiz-adv-x="436" 
d="M408 338q19 28 19 46q0 41 -67 61q-14 3 -26 6l-24 6q-19 5 -35.5 9t-31.5 7q-35 8 -58 14t-34 11q-18 9 -18 22q0 14 20 36q26 26 71 26q67 0 80 -71l85 113q-44 62 -124 62q-37 0 -96 -53q-64 -60 -95.5 -104.5t-31.5 -72.5q0 -31 29 -49q-32 -33 -46.5 -58.5
t-14.5 -42.5q0 -34 37 -54q23 -11 103 -31q57 -13 92.5 -22.5t51.5 -16.5q24 -11 24 -26q0 -25 -28.5 -47.5t-82.5 -22.5q-79 0 -86 69l-91 -126q55 -50 124 -50q89 0 177 109q74 92 74 134q0 35 -37 57q16 23 25.5 37.5t14.5 21.5zM234 359q16 -4 27 -6.5t19 -4.5
q10 -3 13 -3q44 -14 44 -28q0 -5 -11 -24q-52 14 -94 24.5t-75 18.5q-57 13 -57 35q0 9 11 20q38 -11 68.5 -19t54.5 -13z" />
    <glyph glyph-name="dieresis" unicode="&#xa8;" horiz-adv-x="395" 
d="M372 521q-42 34 -79 77q-42 -48 -81 -80q45 -39 81 -79q36 40 79 76v6zM175 521q-19 16 -38.5 35t-39.5 42q-20 -23 -40 -43t-40 -37q22 -19 42 -38.5t38 -40.5q18 20 38 39t40 37v6z" />
    <glyph glyph-name="copyright" unicode="&#xa9;" horiz-adv-x="770" 
d="M389 -22q157 0 266 109q110 110 110 266q0 158 -111 266q-109 110 -265 110q-154 0 -266 -110q-110 -109 -110 -266t110 -266q109 -109 266 -109zM389 678q133 0 228 -95q96 -96 96 -230q0 -135 -96 -229q-94 -95 -228 -95q-135 0 -230 95t-95 229q0 133 95 230
q97 95 230 95zM401 132q35 0 64.5 11.5t52.5 32t38.5 49t21.5 61.5h-54q-12 -48 -45.5 -74.5t-77.5 -26.5q-62 0 -108 49q-44 47 -44 125q0 36 10 65.5t30 54.5v-1q40 49 106 49q41 0 76 -24q39 -28 49 -87h52q-4 36 -17.5 66t-37.5 52q-52 46 -124 46q-88 0 -145 -64
q-55 -65 -55 -159q0 -100 60 -163q59 -62 148 -62z" />
    <glyph glyph-name="guillemotleft" unicode="&#xab;" horiz-adv-x="392" 
d="M339 40q11 0 24.5 -1t30.5 -3q-11 11 -22 23t-21 25l-84 111l84 111q20 28 43 47h-17q-11 -1 -20.5 -1.5t-17.5 -0.5q-12 0 -24.5 0.5t-23.5 1.5q-1 -8 -5 -15.5t-10 -16.5l-75 -102v1q-8 -9 -14.5 -15.5l-9.5 -9.5q8 -5 13.5 -11t10.5 -12l75 -103q13 -17 15 -33
q14 2 26 3t22 1zM172 40q12 0 26.5 -1t30.5 -3q-27 24 -45 48l-83 111l83 111q22 30 43 47h-17q-11 -1 -20.5 -1.5t-17.5 -0.5q-11 0 -24 0.5t-24 1.5q-1 -8 -5 -15.5t-9 -16.5l-76 -102v1q-8 -9 -14 -15.5t-9 -9.5q8 -5 13 -11l10 -12l76 -103q13 -17 14 -33q15 2 27 3
t21 1z" />
    <glyph glyph-name="logicalnot" unicode="&#xac;" horiz-adv-x="584" 
d="M493 121h56v231h-507v-54h451v-177z" />
    <glyph glyph-name="registered" unicode="&#xae;" horiz-adv-x="381" 
d="M194 306q81 0 137 57q57 57 57 137q0 81 -57 136q-55 57 -137 57q-79 0 -136 -57q-57 -55 -57 -136q0 -80 57 -137q56 -57 136 -57zM250 391h43q-20 -20 -45 -29t-54 -9q-60 0 -103 43t-43 104q0 58 42 103q44 44 104 44q59 0 104 -43q43 -45 43 -104t-42 -103
q-10 14 -11.5 21t-2.5 24t-6 30.5t-13 22.5q11 9 16.5 20t5.5 27q0 30 -22 51q-21 18 -71 18h-80v-220h48v82h25q46 0 48 -26q2 -23 5 -35.5t6 -18.5zM193 565q23 0 33 -2q14 -5 14 -20q0 -24 -45 -24h-32v46h30z" />
    <glyph glyph-name="plusminus" unicode="&#xb1;" horiz-adv-x="584" 
d="M549 251v55h-225v188h-57v-188h-225v-55h225v-189h57v189h225zM42 -12h507v54h-507v-54z" />
    <glyph glyph-name="acute" unicode="&#xb4;" horiz-adv-x="356" 
d="M314 559q-14 16 -26.5 37t-20.5 47q-15 -16 -37 -32.5t-51 -34.5q-26 -16 -50.5 -27.5t-48.5 -21.5q17 -19 29.5 -40.5t21.5 -47.5q32 32 88 66q25 16 48.5 27.5t45.5 19.5z" />
    <glyph glyph-name="paragraph" unicode="&#xb6;" horiz-adv-x="601" 
d="M540 641v55h-234q-103 0 -160 -42q-94 -68 -94 -195q0 -94 54 -157q56 -63 154 -71v-430h57v840h110v-840h57v840h56z" />
    <glyph glyph-name="guillemotright" unicode="&#xbb;" horiz-adv-x="392" 
d="M61 40q9 0 21 -1t27 -3q1 16 14 33l76 103v-1q17 21 22 24q-7 5 -12 11t-10 13l-76 102q-5 9 -9 16.5t-5 15.5q-11 -1 -24 -1.5t-24 -0.5q-8 0 -17.5 0.5t-20.5 1.5h-17q20 -17 42 -47l83 -111l-83 -111q-20 -26 -42 -48q17 2 30.5 3t24.5 1zM227 40q10 0 22 -1t26 -3
q1 16 15 33l75 103v-1q16 18 23 24q-7 5 -12.5 11t-10.5 13l-75 102q-6 9 -10 16.5t-5 15.5q-11 -1 -23.5 -1.5t-24.5 -0.5q-8 0 -17.5 0.5t-20.5 1.5h-17q11 -9 22 -20.5t21 -26.5l83 -111l-83 -111q-8 -12 -19.5 -24t-25.5 -24q17 2 31 3t26 1z" />
    <glyph glyph-name="onequarter" unicode="&#xbc;" horiz-adv-x="739" 
d="M675 29l-18 18l-16 -14q-5 3 -9 4.5t-6 3.5v40h43v32h-43v166q12 8 27 31l-5 14q-11 -6 -18 -6q-21 0 -53 41q-46 -63 -94 -113.5t-99 -89.5q11 -11 11 -30v-18q0 -14 -16 -27h166v-44q-35 -13 -61 -49l9 -9q15 9 41 9q19 0 37 -8t38 -22q21 21 38 37.5t28 27.5v6z
M257 247l-15 17l-15 -13q-6 5 -12 7.5t-13 4.5v220q0 66 -25 89q-39 -30 -100 -41v-23q28 -2 36.5 -8t8.5 -28v-213q-37 -15 -62 -54l14 -11q21 10 37 10q36 0 79 -35q14 17 30.5 35.5t36.5 36.5v6zM169 -10q-2 5 -2 7v4q0 7 33 49v-1l333 413q42 52 93 95l-3 6l-100 -24
q1 -4 2 -6.5t1 -4.5q0 -8 -33 -50v1l-333 -414q-19 -24 -42.5 -47t-51.5 -46l3 -6zM545 271v-158h-82v71q22 20 42 42t40 45z" />
    <glyph glyph-name="onehalf" unicode="&#xbd;" horiz-adv-x="740" 
d="M697 37l-16 15l-14 -14q-41 26 -82 26q-54 0 -109 -46v42q0 36 9 50q9 13 44 27q72 34 151 38q-15 19 -15 45v44q0 30 15 54q-88 2 -144 40q-29 -30 -63 -30q-16 0 -28 9l-12 -11q31 -61 83 -61q20 0 36.5 6.5t30.5 22.5h2v-62q0 -27 -19 -41q-4 -3 -15.5 -8.5
t-30.5 -13.5h1q-52 -19 -66 -35q-16 -19 -16 -64v-57q0 -33 -9 -46l14 -8q51 30 105 30q48 0 88 -31q15 20 30 38t30 35v6zM231 247l-15 17l-14 -13q-6 5 -12 7.5t-13 4.5v220q0 66 -26 89q-39 -30 -100 -41v-27q29 -1 37.5 -6.5t8.5 -28.5v-210q-38 -15 -62 -54l13 -11
q21 10 37 10q35 0 78 -35q14 16 31 34t37 38v6zM147 -10q-3 6 -3 11q0 7 35 48l333 413q20 26 43.5 49.5t49.5 45.5l-3 6l-100 -24q1 -4 2 -6.5t1 -4.5q0 -8 -35 -49l-333 -414q-18 -23 -41.5 -46.5t-51.5 -46.5l3 -6z" />
    <glyph glyph-name="threequarters" unicode="&#xbe;" horiz-adv-x="740" 
d="M705 29l-18 18l-16 -14q-5 3 -9 4.5t-7 3.5v40h45v32h-45v165q8 5 14.5 13.5t14.5 19.5l-7 13q-11 -6 -17 -6q-21 0 -53 41q-90 -124 -193 -203q10 -12 10 -30v-18q0 -13 -14 -27h164v-44q-33 -13 -61 -49l9 -9q18 9 41 9q35 0 76 -30q20 21 37.5 37.5t28.5 27.5v6z
M248 211q25 0 48 -4q-7 10 -11 24t-4 31v62q0 27 15 45q-35 1 -62 4t-46 9q44 14 107 17q-14 20 -14 46v39q0 33 15 56q-35 -8 -56 -8q-49 0 -101 40q-25 -29 -58 -29q-9 0 -19 6l-14 -9q39 -54 90 -54q31 0 55 23l8 -2v-93q-21 -8 -34 -11t-18 -3q-10 0 -37 13v-69
q31 17 37 17q8 0 52 -12v-113l-7 -2q-27 24 -61 24q-62 0 -111 -70l14 -7q19 15 43 15q34 0 63 -27q54 42 106 42zM224 -10q-3 6 -3 11q0 7 34 49v-1l333 413q39 51 94 95l-3 6l-100 -24q2 -5 2 -7v-4q0 -8 -33 -50v1l-334 -414q-18 -23 -41.5 -46.5t-50.5 -46.5l3 -6z
M574 271v-158h-82v71q22 20 42 42t40 45z" />
    <glyph glyph-name="questiondown" unicode="&#xbf;" horiz-adv-x="366" 
d="M13 115q0 -65 70 -114q61 -42 131 -42q55 0 95.5 29.5t51.5 82.5l-109 52q0 -40 -28 -77q-27 -35 -59 -35q-23 0 -35 35q-11 33 -11 60q0 139 121 139q34 0 59 -7v11h-3v1q-13 13 -31 69q-10 35 -13 38q-1 5 -3 14.5t-5 15.5l-31 2q0 -28 -9 -64q-11 -44 -20 -51l1 1
q-59 0 -116 -51q-56 -50 -56 -109zM152 497l78 -81l79 81l-79 79z" />
    <glyph glyph-name="Agrave" unicode="&#xc0;" 
d="M684 100q-51 -14 -56 -14q-24 0 -40 23q-3 3 -14 34l-164 436q-12 29 -46 44h1q-7 3 -11.5 4.5t-6.5 2.5q-7 1 -14 1q-6 0 -11 1h-5q-93 0 -136 -71q-20 -30 -20 -50v-13q40 30 59 30q7 4 31 4h1q3 -1 5 -1q3 0 5 -1q4 -1 6 -1h2q23 -7 34.5 -16.5t11.5 -24.5l-1 -2v-2
q-1 -2 -1 -3l-1 -2l-2 -4v-1l-1 -1l-4 2l1 -1l-7 4q-12 12 -43 12q-69 0 -108 -75h1q-8 -13 -8 -24q0 -26 17 -43q21 41 56 41q22 0 48 -29l-107 -257q-14 -5 -23.5 -8t-12.5 -4q-106 -47 -106 -110v-3l1 -1v-8q12 5 13 10q6 4 10 5q37 20 86 20q4 0 25 -3q55 -8 91 -44
l105 118l-25 21l-16 -20q-13 9 -26 14.5t-26 9.5q-14 2 -27 4l-26 4l33 81h203q17 -51 28 -83t15 -43l1 -1q0 -7 19 -39q30 -51 93 -70zM346 759q-21 8 -44.5 20t-50.5 29q-30 18 -52 35t-38 33q-20 -55 -52 -91q24 -10 49.5 -22.5t50.5 -27.5q60 -36 90 -69q18 53 49 86z
M339 450l56 -156h-120zM300 478q0 1 -1 1v0z" />
    <glyph glyph-name="Aacute" unicode="&#xc1;" 
d="M684 100q-51 -14 -56 -14q-24 0 -40 23q-3 3 -14 34l-164 436q-12 29 -46 44h1q-7 3 -11.5 4t-6.5 2q-7 1 -13.5 1.5t-11.5 1.5h-5q-93 0 -136 -71q-20 -30 -20 -50v-13q40 30 59 30q7 4 31 4h1q3 -1 5 -1q3 0 5 -1q4 -1 6 -1h2q23 -7 34.5 -16.5t11.5 -24.5l-1 -2v-2
q-1 -2 -1 -3l-1 -2l-2 -4v-1l-1 -1l-4 2l1 -1l-7 4q-12 12 -43 12q-69 0 -108 -75h1q-8 -13 -8 -24q0 -26 17 -43q21 41 56 41q22 0 48 -29l-107 -257q-14 -5 -23.5 -8t-12.5 -4q-106 -47 -106 -110v-3l1 -1v-8q12 5 13 10q6 4 10 5q37 20 86 20q4 0 25 -3q55 -8 91 -44
l105 118l-25 21l-16 -20q-13 9 -26 14.5t-26 9.5q-14 2 -27 4l-26 4l33 81h203q17 -51 28 -83t15 -43l1 -1q0 -7 19 -39q30 -51 93 -70zM526 786q-31 34 -49 86q-31 -33 -90 -68q-25 -16 -50.5 -28.5t-49.5 -22.5q32 -35 52 -91q16 17 38 34t52 35q26 16 50 28t45 20z
M339 450l56 -156h-120zM300 478q0 1 -1 1v0z" />
    <glyph glyph-name="Acircumflex" unicode="&#xc2;" 
d="M684 100q-51 -14 -56 -14q-24 0 -40 23q-3 3 -14 34l-164 436q-12 29 -46 44h1q-7 3 -11.5 4t-6.5 2q-7 1 -13.5 1.5t-11.5 1.5h-5q-93 0 -136 -71q-20 -30 -20 -50v-13q40 30 59 30q7 4 31 4h1q3 -1 5 -1q3 0 5 -1q4 -1 6 -1h2q23 -7 34.5 -16.5t11.5 -24.5l-1 -2v-2
q-1 -2 -1 -3l-1 -2l-2 -4v-1l-1 -1l-4 2l1 -1l-7 4q-12 12 -43 12q-71 0 -108 -75h1q-8 -13 -8 -24q0 -26 17 -43q21 41 56 41q22 0 48 -29l-107 -257q-14 -5 -23.5 -8t-12.5 -4q-106 -47 -106 -110v-3l1 -1v-8q12 5 13 10q6 4 10 5q37 20 86 20q4 0 25 -3q55 -8 91 -44
l105 118l-25 21l-16 -20q-13 9 -26 14.5t-26 9.5q-14 2 -27 4l-26 4l33 81h203q17 -51 28 -83t15 -43l1 -1q0 -7 19 -39q30 -51 93 -70zM459 732q-25 18 -60.5 51.5t-81.5 84.5q-47 -50 -82 -84t-60 -52q11 -12 26.5 -29.5t29.5 -34.5q21 23 42 43t44 38q22 -17 43.5 -37
t41.5 -45q14 17 27.5 32.5t24.5 26.5zM339 450l56 -156h-120zM300 478q0 1 -1 1v0z" />
    <glyph glyph-name="Atilde" unicode="&#xc3;" 
d="M684 100q-51 -14 -56 -14q-24 0 -40 23q-3 3 -14 34l-164 435q-12 29 -46 44h1q-7 3 -11.5 4.5t-6.5 2.5q-7 1 -13.5 1.5t-11.5 1.5h-5q-92 0 -136 -71q-20 -30 -20 -51v-13q40 31 59 31q7 4 31 4h1q3 -1 5 -1q3 0 5 -1q4 -1 6 -1h2q46 -14 46 -42l-1 -2v-2q-1 -2 -1 -3
l-1 -2l-2 -4v-1l-1 -1l-4 2l1 -1l-7 4q-12 12 -43 12q-70 0 -108 -74h1q-8 -13 -8 -25q0 -25 17 -42q22 40 56 40q22 0 48 -28l-107 -257q-14 -5 -23.5 -8t-12.5 -4q-106 -47 -106 -110v-3l1 -1v-8q12 5 13 10q6 4 10 5q37 20 86 20q4 0 25 -3q55 -8 91 -44l105 118l-25 21
l-16 -20q-13 9 -26 14.5t-26 9.5q-14 2 -27 4l-26 4l33 81h203q17 -51 28 -83t15 -43l1 -1q0 -5 5 -14.5t14 -24.5q30 -51 93 -70zM445 681q4 24 10.5 49t18.5 51q-56 -25 -74 -25q-19 0 -62 12q-42 12 -70 12q-29 0 -61 -13q-2 -30 -7.5 -56t-13.5 -46q38 26 69 26
q25 0 57 -13q38 -11 64 -11q39 0 67 11zM339 450l56 -156h-120zM300 477q0 1 -1 1v0z" />
    <glyph glyph-name="Adieresis" unicode="&#xc4;" 
d="M684 100q-51 -14 -56 -14q-24 0 -40 23q-3 3 -14 34l-164 436q-12 28 -46 43h1q-7 3 -11.5 4.5t-6.5 2.5q-7 1 -13.5 1.5t-11.5 1.5h-5q-92 0 -136 -71q-20 -30 -20 -51v-13q40 31 59 31q7 4 31 4h1q3 -1 5 -1q3 0 5 -1q4 -1 6 -1h2q46 -14 46 -41l-1 -2v-2q-1 -2 -1 -3
l-1 -2l-2 -4v-1l-1 -1l-4 2l1 -1l-7 4q-12 12 -43 12q-69 0 -108 -75h1q-8 -13 -8 -25q0 -25 17 -42q21 40 56 40q23 0 48 -28l-107 -257q-14 -5 -23.5 -8t-12.5 -4q-106 -47 -106 -110v-3l1 -1v-8q12 5 13 10q6 4 10 5q37 20 86 20q4 0 25 -3q55 -8 91 -44l105 118l-25 21
l-16 -20q-13 9 -26 14.5t-26 9.5q-14 2 -27 4l-26 4l33 81h203q17 -51 28 -83t15 -43l1 -1q0 -5 5 -14.5t14 -24.5q30 -51 93 -70zM508 752q-20 17 -39.5 37t-39.5 43q-38 -45 -83 -83q24 -21 45 -41.5t38 -40.5q37 42 79 79v6zM309 752q-20 17 -39.5 37t-38.5 43
q-20 -24 -41 -45t-41 -38q22 -20 42.5 -40t39.5 -42q18 21 38 40.5t40 38.5v6zM339 450l56 -156h-120zM300 478q0 1 -1 1v0z" />
    <glyph glyph-name="Aring" unicode="&#xc5;" 
d="M684 100q-51 -14 -56 -14q-24 0 -40 23q-3 3 -14 34l-164 435q-12 29 -46 44h1q-7 3 -11.5 4.5t-6.5 2.5q-7 1 -13.5 1.5t-11.5 1.5h-5q-92 0 -136 -71q-20 -30 -20 -51v-13q40 31 59 31q7 4 31 4h1q3 -1 5 -1q3 0 5 -1q4 -1 6 -1h2q46 -14 46 -42l-1 -2v-2q-1 -2 -1 -3
l-1 -2l-2 -4v-1l-1 -1l-4 2l1 -1l-7 4q-12 12 -43 12q-70 0 -108 -74h1q-8 -13 -8 -25q0 -25 17 -42q22 40 56 40q22 0 48 -28l-107 -257q-14 -5 -23.5 -8t-12.5 -4q-106 -47 -106 -110v-3l1 -1v-8q12 5 13 10q6 4 10 5q37 20 86 20q4 0 25 -3q55 -8 91 -44l105 118l-25 21
l-16 -20q-13 9 -26 14.5t-26 9.5q-14 2 -27 4l-26 4l33 81h203q17 -51 28 -83t15 -43l1 -1q0 -5 5 -14.5t14 -24.5q30 -51 93 -70zM422 736q0 38 -30 44h1q-9 4 -55 4q-51 0 -70 -9q-31 -17 -31 -63q0 -34 29 -45q12 -3 55 -3q50 0 70 9q31 15 31 63zM339 450l56 -156h-120z
M325 692q-17 0 -17 22q0 41 26 41q17 0 17 -22q0 -41 -26 -41zM300 477q0 1 -1 1v0z" />
    <glyph glyph-name="Ccedilla" unicode="&#xc7;" horiz-adv-x="605" 
d="M392 -118q0 48 -52 76h2q10 1 18 3q4 1 11 1q65 12 122 51t89 93q12 17 16 44l-7 4q-67 -68 -112 -79v421q32 2 60.5 26t43.5 59q-17 -8 -27.5 -12t-15.5 -4l-1 -1h-1q-48 0 -82 57l-252 -137l14 -30l43 22v-332q0 -22 -17 -45h12q47 0 82 33q36 33 36 80v315
q3 -2 6.5 -3.5t6.5 -3.5l-1 1q32 -23 55 -23h1v-439q-24 -6 -38 -8.5t-19 -2.5q-40 0 -72 8q-59 17 -107 68q-75 78 -75 190l1 2q0 172 162 298l-3 6q-3 -2 -7 -2.5l-4 -0.5q-5 -1 -8.5 -1.5t-5.5 -0.5q-29 -13 -53 -26t-41 -24q-36 -27 -64.5 -60t-49.5 -71
q-43 -83 -43 -168q0 -94 51 -172q54 -78 137 -114q51 -22 128 -22h9q-16 -16 -34.5 -33t-39.5 -34q37 -34 37 -56q0 -30 -28 -39v-16q52 1 85 33q32 29 32 69zM282 618h-1l-1 -1l0.5 0.5t1.5 0.5z" />
    <glyph glyph-name="Egrave" unicode="&#xc8;" horiz-adv-x="569" 
d="M563 589l-30 16l-7 -14q-51 31 -82 31h-1l-2 1q-10 0 -14 4l-4 -4q-88 -2 -137 -82q-20 -31 -20 -49v-392q-37 -14 -38 -14q-17 -7 -35 -16.5t-35 -21.5q-21 -14 -35.5 -26.5t-22.5 -24.5q-8 -10 -11 -20t-3 -19q52 42 172 42q112 0 232 -43l68 116l-33 16l-8 -16
q-77 37 -181 37h-6q-1 -1 -15 -1q-1 -1 -9 -1l-1 -1h-2v153q12 21 32 22q5 0 6 1h7l2 1q25 0 78 -30l-12 -19l28 -17l85 134l-28 17l-8 -13q-2 2 -3.5 2.5l-1.5 0.5q-7 2 -11 5l-4 2l-4 2q-33 12 -58 12q-6 0 -22 -3q-39 -8 -54 -23l-32 -33v147q0 19 22 38q22 17 44 19
q6 1 7 1h6h2q24 0 48 -11v1q11 -6 20.5 -12.5t18.5 -11.5l-12 -19l31 -16zM252 502q-56 -11 -91 -46q-41 -38 -41 -93v-5l1 -1v-3q-4 -1 -16 -1l-2 -1q-13 0 -30 -5q-31 -10 -43 -28t-12 -51l-1 -1v-14l1 -1q1 -17 15 -33.5t31 -16.5q7 0 11 2v7l-1 1q2 24 37 24h2
q2 -1 9 -1v-169q-4 -11 -5.5 -18.5t-1.5 -9.5h7l1 1h4l1 1q9 1 39 17q70 44 70 108v290q0 9 5 22.5t12 16.5zM312 606v23q-25 -25 -35 -25q-1 -1 -7 -1q-1 0 -23 6q-8 2 -19.5 4.5t-26.5 6.5q-19 4 -32 6t-27 4v-2q-26 0 -47 -10t-41 -28q-39 -39 -39 -100q33 34 59 34
q7 0 29 -5q58 -14 91 -14l1 1h2l1 -1q40 0 77 31q20 17 28.5 34.5t8.5 35.5zM325 759q-20 8 -44 20t-50 29q-30 18 -52 35t-38 33q-20 -55 -52 -91q24 -10 49.5 -22.5t50.5 -27.5q30 -18 52 -35t38 -34q9 27 21.5 48.5t26.5 37.5z" />
    <glyph glyph-name="Eacute" unicode="&#xc9;" horiz-adv-x="569" 
d="M563 589l-30 16l-7 -14q-51 31 -82 31h-1l-2 1q-5 0 -8.5 1t-5.5 2l-4 -3q-88 -2 -137 -82q-20 -31 -20 -49v-392q-37 -14 -38 -14q-17 -7 -35 -16.5t-35 -21.5q-21 -14 -35.5 -26.5t-22.5 -24.5q-8 -10 -11 -20t-3 -19q52 42 172 42q112 0 232 -43l68 116l-33 16l-8 -16
q-77 37 -181 37h-6q-1 -1 -15 -1q-1 -1 -9 -1l-1 -1h-2v153q12 21 32 22q5 0 6 1h7l2 1q25 0 78 -30l-12 -19l28 -17l85 134l-28 17l-8 -13q-2 2 -3.5 2.5l-1.5 0.5q-7 2 -11 5l-4 2l-4 2q-33 12 -58 12q-6 0 -22 -3q-39 -8 -54 -23l-32 -33v147q0 19 22 38q22 17 44 19
q6 1 7 1h6h2q24 0 48 -11v1q11 -6 20.5 -12.5t18.5 -11.5l-12 -19l31 -16zM252 502q-56 -11 -91 -46q-41 -38 -41 -93v-5l1 -1v-3q-4 -1 -16 -1l-2 -1q-13 0 -30 -5q-31 -10 -43 -28t-12 -51l-1 -1v-14l1 -1q1 -17 15 -33.5t31 -16.5q7 0 11 2v7l-1 1q2 24 37 24h2
q2 -1 9 -1v-169q-4 -11 -5.5 -18.5t-1.5 -9.5h7l1 1h4l1 1q9 1 39 17q70 44 70 108v290q0 9 5 22.5t12 16.5zM312 606v23q-25 -25 -35 -25q-1 -1 -7 -1q-1 0 -23 6q-8 2 -19.5 4.5t-26.5 6.5q-19 4 -32 6t-27 4v-2q-26 -1 -47 -10.5t-41 -27.5q-39 -39 -39 -100q34 34 59 34
q7 0 29 -5q58 -14 91 -14l1 1h2l1 -1q40 0 77 31q20 17 28.5 34.5t8.5 35.5zM505 786q-31 34 -49 86q-30 -32 -89 -68q-50 -31 -101 -51q33 -35 52 -91q31 33 90 69q27 16 50.5 28t44.5 20z" />
    <glyph glyph-name="Ecircumflex" unicode="&#xca;" horiz-adv-x="569" 
d="M563 589l-30 16l-7 -14q-51 31 -82 31h-1l-2 1q-11 0 -14 3l-4 -3q-88 -2 -137 -82q-20 -31 -20 -49v-392q-37 -14 -38 -14q-17 -7 -35 -16.5t-35 -21.5q-21 -14 -35.5 -26.5t-22.5 -24.5q-8 -10 -11 -20t-3 -19q52 42 172 42q112 0 232 -43l68 116l-33 16l-8 -16
q-77 37 -181 37h-6q-1 -1 -15 -1q-1 -1 -9 -1l-1 -1h-2v153q12 21 32 22q5 0 6 1h7l2 1q25 0 78 -30l-12 -19l28 -17l85 134l-28 17l-8 -13q-2 2 -3.5 2.5l-1.5 0.5q-7 2 -11 5l-4 2l-4 2q-33 12 -58 12q-6 0 -22 -3q-39 -8 -54 -23l-32 -33v147q0 19 22 38q22 17 44 19
q6 1 7 1h6h2q24 0 48 -11v1q11 -6 20.5 -12.5t18.5 -11.5l-12 -19l31 -16zM252 502q-56 -11 -91 -46q-41 -38 -41 -93v-5l1 -1v-3q-4 -1 -16 -1l-2 -1q-13 0 -30 -5q-31 -10 -43 -28t-12 -51l-1 -1v-14l1 -1q1 -17 15 -33.5t31 -16.5q7 0 11 2v7l-1 1q2 24 37 24h2
q2 -1 9 -1v-169q-4 -11 -5.5 -18.5t-1.5 -9.5h7l1 1h4l1 1q9 1 39 17q70 44 70 108v290q0 9 5 22.5t12 16.5zM312 606v23q-25 -25 -35 -25q-1 -1 -7 -1q-1 0 -23 6q-8 2 -19.5 4.5t-26.5 6.5q-19 3 -32 5.5t-27 4.5v-2q-26 -1 -47 -10.5t-41 -27.5q-39 -39 -39 -100
q34 34 59 34q7 0 29 -5q58 -14 91 -14l1 1h2l1 -1q40 0 77 31q20 17 28.5 34.5t8.5 35.5zM439 732q-51 36 -142 136q-94 -100 -142 -136q11 -12 26.5 -29.5t29.5 -34.5q21 23 42 43t44 38q21 -17 42.5 -37t41.5 -45q14 17 27.5 32.5t24.5 26.5z" />
    <glyph glyph-name="Edieresis" unicode="&#xcb;" horiz-adv-x="569" 
d="M563 589l-30 15l-7 -13q-25 14 -45.5 22t-36.5 8h-1l-2 1q-10 0 -14 4l-4 -4q-89 -2 -137 -81q-20 -31 -20 -50v-391q-37 -14 -38 -14q-17 -7 -35 -16.5t-35 -21.5q-21 -14 -35.5 -26.5t-22.5 -24.5q-8 -10 -11 -20t-3 -19q52 42 172 42q112 0 232 -43l68 116l-33 16
l-8 -16q-77 37 -181 37h-6q-1 -1 -15 -1q-1 -1 -9 -1l-1 -1h-2v153q12 20 32 21q5 0 6 1h7l2 1q25 0 78 -29l-12 -19l28 -17l85 134l-28 17l-8 -13q-2 2 -3.5 2.5l-1.5 0.5q-7 2 -11 5l-4 2l-4 2q-33 12 -58 12q-6 0 -22 -3q-39 -8 -54 -23l-32 -33v147q0 18 22 37
q21 18 44 20q6 1 7 1h6h2q24 0 48 -11v1q11 -7 20.5 -13.5t18.5 -11.5l-12 -18l31 -16zM252 501q-57 -11 -91 -45q-41 -38 -41 -93v-5l1 -1v-3q-4 -1 -16 -1l-2 -1q-13 0 -30 -5q-31 -10 -43 -28t-12 -51l-1 -1v-14l1 -1q1 -17 15 -33.5t31 -16.5q7 0 11 2v7l-1 1
q2 24 37 24h2q2 -1 9 -1v-169q-4 -11 -5.5 -18.5t-1.5 -9.5h7l1 1h4l1 1q9 1 39 17q70 44 70 107v291q0 9 5 22.5t12 15.5zM312 605v24q-24 -26 -35 -26q-1 -1 -7 -1q-1 0 -23 6q-8 2 -19.5 4.5t-26.5 6.5q-19 4 -32 6.5t-27 4.5v-2q-26 -1 -47 -11t-41 -27
q-39 -39 -39 -100q34 34 59 34q7 0 29 -5q55 -15 91 -15l1 1h2l1 -1q39 0 77 32q20 17 28.5 34.5t8.5 34.5zM487 752q-20 17 -39.5 37t-39.5 43q-19 -22 -39.5 -43t-43.5 -40q25 -21 45.5 -41.5t37.5 -40.5q37 42 79 79v6zM289 752q-20 17 -39.5 37t-38.5 43
q-21 -24 -41.5 -45t-40.5 -38q43 -39 82 -82q18 21 37.5 40.5t40.5 38.5v6z" />
    <glyph glyph-name="Igrave" unicode="&#xcc;" horiz-adv-x="490" 
d="M478 610q-95 -20 -123 -84q-5 -12 -5 -16v-456q0 -20 -13.5 -34.5t-32.5 -14.5q-11 0 -34 4q-2 1 -22 14q-16 13 -18 17q-7 5 -12 9l-10 8q-48 33 -80 33q-6 0 -8 -1q-28 -3 -57 -27q-25 -20 -36.5 -44t-11.5 -51q39 33 71 33h5q15 0 77 -27q51 -15 95 -15h4q1 1 13 1
q3 1 6 1q53 3 104 38q25 15 47 43v-1q25 31 25 58v474q0 11 20 31zM327 518h-3l-1 -1h-1q-8 -2 -21.5 -7.5t-30.5 -16.5q-33 -20 -42 -35q-17 -23 -17 -33v-60q-6 0 -9 1t-5 1.5t-5 0.5h-3q-35 0 -58.5 -19.5t-23.5 -51.5q0 -61 57 -70v8l-1 1v3l-1 1q2 23 29 23l1 -1
q12 0 19 -13v-109q0 -21 -15 -57q41 0 83 37q43 37 43 71v282q0 11 2 20.5t7 19.5zM385 615q-32 -18 -57 -18l-2 -1q-9 0 -39 6q-14 3 -22.5 5t-13.5 5h-2l-1 1q-23 5 -38 8t-23 3q-91 0 -128 -70q-13 -25 -13 -47v-14q5 7 13.5 13.5t18 11.5t19 8t16.5 3q24 0 45 -6
q8 -2 11 -3q14 -4 22 -5.5t11 -2.5q9 -3 45 -3q15 0 16 2l-2 -1q46 3 82 30.5t48 70.5zM324 759q-20 8 -44 20t-50 29q-59 36 -89 68q-10 -26 -23 -49.5t-30 -41.5q48 -19 101 -50q60 -37 89 -69q9 27 21.5 48.5t26.5 37.5z" />
    <glyph glyph-name="Iacute" unicode="&#xcd;" horiz-adv-x="490" 
d="M478 610q-95 -20 -123 -84q-5 -12 -5 -16v-456q0 -20 -13 -34.5t-33 -14.5q-5 0 -13 1t-20 3q-4 1 -23 14q-16 13 -18 17q-12 8 -21 17q-50 33 -81 33q-6 0 -8 -1q-28 -3 -57 -27q-48 -39 -48 -95q39 33 71 33h6q14 0 76 -27q51 -15 95 -15h5q1 1 12 1q3 1 6 1
q52 3 105 38q24 15 46 43v-1q14 16 19.5 30t5.5 28v474q0 11 20 31zM328 518h-3l-1 -1h-1q-9 -2 -22.5 -7.5t-29.5 -16.5q-33 -20 -43 -35q-9 -12 -12.5 -20t-3.5 -13v-60q-7 0 -10 1t-5 1.5t-5 0.5h-3q-35 0 -58.5 -19.5t-23.5 -51.5q0 -61 57 -70v8l-1 1v3l-1 1
q2 23 29 23l1 -1q13 0 20 -13v-109q0 -22 -16 -57q41 0 83 37q43 37 43 71l1 282h-1q0 22 10 39zM386 615q-33 -18 -57 -18l-2 -1q-10 0 -40 6q-13 3 -22 5t-14 5h-2l-1 1q-23 5 -38 8t-23 3q-91 0 -128 -70q-13 -25 -13 -47v-14q5 7 13.5 13.5t18 11.5t19 8t16.5 3
q24 0 45 -6q8 -2 11 -3q29 -8 33 -8q10 -3 45 -3q15 0 17 2l-3 -1q47 3 82.5 30.5t48.5 70.5zM504 786q-32 35 -48 86q-33 -33 -90 -68q-25 -16 -50.5 -28.5t-49.5 -22.5q32 -35 52 -91q29 32 89 69q27 16 50.5 28t44.5 20z" />
    <glyph glyph-name="Icircumflex" unicode="&#xce;" horiz-adv-x="490" 
d="M478 610q-95 -20 -123 -84q-5 -12 -5 -16v-456q0 -20 -13.5 -34.5t-32.5 -14.5q-11 0 -34 4q-2 1 -22 14q-16 13 -18 17q-7 5 -12 9l-10 8q-48 33 -80 33q-6 0 -8 -1q-28 -3 -57 -27q-25 -20 -36.5 -44t-11.5 -51q39 33 71 33h5q15 0 77 -27q51 -15 95 -15h4q1 1 13 1
q3 1 6 1q53 3 104 38q25 15 47 43v-1q25 31 25 58v474q0 11 20 31zM327 518h-3l-1 -1h-1q-8 -2 -21.5 -7.5t-30.5 -16.5q-33 -20 -42 -35q-17 -23 -17 -33v-60q-6 0 -9 1t-5 1.5t-5 0.5h-3q-35 0 -58.5 -19.5t-23.5 -51.5q0 -61 57 -70v8l-1 1v3l-1 1q2 23 29 23l1 -1
q12 0 19 -13v-109q0 -21 -15 -57q41 0 83 37q43 37 43 71v282q0 11 2 20.5t7 18.5zM385 615q-32 -18 -57 -18l-2 -1q-9 0 -39 6q-14 3 -22.5 5t-13.5 5h-2l-1 1q-23 5 -38 8t-23 3q-91 0 -128 -70q-13 -25 -13 -47v-14q5 7 13.5 13.5t18 11.5t19 8t16.5 3q24 0 45 -6
q8 -2 11 -3q27 -8 33 -9q5 -1 16 -1.5t29 -0.5q15 0 16 2l-2 -1q46 3 82 30.5t48 70.5zM438 732q-51 36 -142 136q-47 -50 -82 -84t-60 -52q11 -12 26.5 -29.5t29.5 -34.5q21 23 42 43t44 38q21 -17 42.5 -37t41.5 -45q14 17 27.5 32.5t24.5 26.5z" />
    <glyph glyph-name="Idieresis" unicode="&#xcf;" horiz-adv-x="490" 
d="M478 609q-94 -18 -123 -83q-5 -12 -5 -17v-455q0 -20 -13.5 -34.5t-32.5 -14.5q-11 0 -34 4q-2 1 -22 14q-16 13 -18 17q-7 5 -12 9l-10 8q-48 33 -80 33q-6 0 -8 -1q-28 -3 -57 -27q-25 -20 -36.5 -44t-11.5 -51q39 33 71 33h5q15 0 77 -27q51 -15 95 -15h4q1 1 13 1
q3 1 6 1q53 3 104 38q25 15 47 43v-1q25 31 25 58v474q0 12 20 30zM327 518h-3v-1h-1q-9 -2 -22.5 -8t-30.5 -17q-32 -18 -42 -34q-17 -23 -17 -33v-60q-6 0 -9 1t-5 1.5t-5 0.5h-3q-35 0 -58.5 -19.5t-23.5 -51.5q0 -61 57 -70v8l-1 1v3l-1 1q2 23 29 23l1 -1q12 0 19 -13
v-109q0 -21 -15 -57q41 0 83 37q43 37 43 71l1 282h-1q0 11 2 20t7 19zM385 614q-30 -17 -57 -17l-2 -1q-4 0 -14 1.5t-25 3.5q-14 3 -22.5 5t-13.5 5h-2l-1 1q-23 5 -38 8t-23 3q-91 0 -128 -69q-13 -25 -13 -48v-14q5 7 13.5 13.5t18 12t19 8.5t16.5 3q24 0 45 -6
q8 -2 11 -3q27 -8 33 -9q9 -3 45 -3q6 0 10 -0.5t6 1.5q46 4 81 31.5t47 69.5zM486 752q-20 17 -39.5 37t-39.5 43q-37 -45 -83 -83q25 -21 45.5 -41.5t37.5 -40.5q37 42 79 79v6zM288 752q-20 17 -39.5 37t-38.5 43q-20 -24 -40.5 -45t-40.5 -38q21 -20 41.5 -40t39.5 -42
q18 21 38 40.5t40 38.5v6z" />
    <glyph glyph-name="Ntilde" unicode="&#xd1;" horiz-adv-x="634" 
d="M621 619q-31 -16 -56 -16q-40 0 -86 37l-110 -106l24 -24l19 16q21 -20 71 -20h5l2 1h2l1 -117h-2l-8 -2h-4q-6 -3 -30 -3q-1 -1 -11 -1q-38 0 -53 10q-26 47 -41.5 76.5t-26.5 49.5q-20 30 -36.5 50.5t-29.5 32.5q-38 35 -92 35q-55 0 -92 -43q-38 -41 -38 -95
q0 -39 21 -43l-2 2h7q3 34 45 55q2 2 5 2q4 0 7 1q7 2 14.5 3.5t12.5 5.5h2v-165q-18 -2 -29 -3.5t-15 -2.5q-44 -18 -44 -80q0 -27 18 -48.5t44 -21.5v7v1v4l-1 1q0 8 4.5 16.5t11.5 8.5h2q3 -2 5 -2.5t4 -1.5v-135q-99 -30 -128 -136q6 2 14.5 5.5l8.5 3.5q4 2 10 6v-1
q42 20 87 20q62 0 131 -45l80 106l-22 22l-12 -16q-29 20 -59 30.5t-63 10.5h-6l-2 -1h-1v96q23 17 77 17q41 0 92 -23q5 -11 10 -21.5t10 -19.5q20 -39 30.5 -61.5t20.5 -37.5h-1q56 -101 105 -101h6v555l7.5 2.5t10.5 5.5v-1q28 14 50 39q28 27 30 56zM444 681q4 24 11 49
t19 51q-28 -12 -46 -18.5t-28 -6.5q-20 0 -62 12t-70 12q-29 0 -62 -13q-2 -30 -7.5 -56t-12.5 -46q38 26 69 26q11 0 25.5 -3t31.5 -10q18 -6 33.5 -8.5t30.5 -2.5q41 0 66 11zM261 258q-34 0 -82 -13v268q23 -11 56 -71q16 -32 45 -96q17 -38 28 -61.5t17 -34.5
q-16 5 -32 6.5t-32 1.5zM426 297l-24 54q12 -4 26 -4h27q12 0 21.5 1t15.5 4l1 -180q-30 43 -67 125z" />
    <glyph glyph-name="Ograve" unicode="&#xd2;" horiz-adv-x="671" 
d="M327 -42q73 0 134 29q48 23 85.5 59t64.5 89q53 97 53 207q0 44 -10 81q-35 138 -162 216v-8q-9 -5 -18.5 -10t-19.5 -8l-1 -1h-1q-19 -10 -26 -13v29h-37v-48q-139 -56 -177 -67v-39q5 0 17.5 3.5t20.5 7.5v-388l-1 -2q0 -8 -1 -9q-1 -2 -1 -5v-4l1 2q-3 -5 -4.5 -10
t-3.5 -10h4l1 -1h2l1 -1q11 0 24.5 4.5t28.5 15.5q7 5 15.5 12t17.5 18q25 26 25 38v377q9 5 17 8.5t13 6.5v-533q-3 0 -6 -1q-1 -1 -2 -1t-2.5 -0.5t-2.5 -0.5q-23 -5 -44 -5q-121 0 -169 144q-26 78 -26 156v8q16 17 16 54v13q-3 34 -3 53q0 11 2 19q30 124 132 176l-1 7
h-6v1h-9q-76 0 -146 -77q-101 -109 -106 -232q-1 -3 -1 -24l1 -1v-3q0 -2 -1 -3q0 -77 24 -135q34 -86 114 -141q77 -53 174 -53zM549 263q0 -4 -3 -44q0 -1 -1 -4l-2 -8t-1 -8q-2 0 -4.5 0.5t-5.5 0.5h-6q-2 0 -7 1q-20 3 -25 3h-25q-5 0 -23 -3q-11 -2 -14.5 -2.5
t-5.5 -0.5v175q16 -6 40 -6h24q8 0 19 2.5t25 7.5q4 2 6 2q9 -38 9 -82v-34zM346 759q-21 8 -45 20t-50 29q-30 18 -52 35t-38 33q-20 -55 -52 -91q24 -10 49.5 -22.5t50.5 -27.5q60 -36 90 -69q18 53 49 86zM494 73q-33 -40 -68 -56v142v0q1 0 2 1q8 1 13 3q10 3 28 3h19
q2 -1 10 -2t23 -2q3 -2 5.5 -3t6.5 -2q-5 -22 -14 -43t-25 -41zM487 400h-13q-36 0 -48 12v145l7 2q29 -26 53.5 -61.5t42.5 -82.5q-23 -15 -42 -15z" />
    <glyph glyph-name="Oacute" unicode="&#xd3;" horiz-adv-x="671" 
d="M327 -42q73 0 134 29q48 23 85.5 59t64.5 89q53 97 53 207q0 44 -10 81q-35 138 -162 216v-8q-9 -5 -18.5 -10t-19.5 -8l-1 -1h-1q-19 -10 -26 -13v29h-37v-48q-69 -28 -114 -45t-63 -23v-38q5 0 17.5 3.5t20.5 7.5v-388l-1 -2q0 -8 -1 -9q-1 -2 -1 -5v-4l1 2
q-3 -5 -4.5 -10t-3.5 -10h4l1 -1h2l1 -1q11 0 24.5 4.5t28.5 15.5q7 5 15.5 12t17.5 18q25 26 25 38v377q9 5 17 8.5t13 6.5v-533q-3 0 -6 -1q-1 -1 -2 -1t-2.5 -0.5t-2.5 -0.5q-23 -5 -44 -5q-121 0 -169 144q-26 78 -26 156v8q16 17 16 54v13q-3 34 -3 53q0 11 2 19
q30 124 132 176l-1 7h-6h-9q-77 0 -146 -76q-101 -109 -106 -232q-1 -3 -1 -24l1 -1v-3q0 -2 -1 -3q0 -77 24 -135q34 -86 114 -141q77 -53 174 -53zM549 263q0 -4 -3 -44q0 -1 -1 -4l-2 -8t-1 -8q-2 0 -4.5 0.5t-5.5 0.5h-6q-2 0 -7 1q-20 3 -25 3h-25q-5 0 -23 -3
q-11 -2 -14.5 -2.5t-5.5 -0.5v175q16 -6 40 -6h24q8 0 19 2.5t25 7.5q4 2 6 2q9 -38 9 -82v-34zM555 786q-30 33 -48 86q-33 -33 -90 -68q-50 -31 -101 -51q33 -35 52 -91q31 33 90 69q27 16 51 28t44 20zM494 73q-33 -40 -68 -56v142v0q1 0 2 1q8 1 13 3q10 3 28 3h19
q2 -1 10 -2t23 -2q3 -2 5.5 -3t6.5 -2q-5 -22 -14 -43t-25 -41zM487 400h-13q-36 0 -48 12v145l7 2q29 -26 53.5 -61.5t42.5 -82.5q-23 -15 -42 -15z" />
    <glyph glyph-name="Ocircumflex" unicode="&#xd4;" horiz-adv-x="671" 
d="M327 -42q73 0 134 29q48 23 85.5 59t64.5 89q53 97 53 207q0 44 -10 81q-35 138 -162 216v-8q-9 -5 -18.5 -10t-19.5 -8l-1 -1h-1q-19 -10 -26 -13v29h-37v-48q-69 -28 -114 -45t-63 -23v-38q5 0 17.5 3.5t20.5 7.5v-388l-1 -2q0 -8 -1 -9q-1 -2 -1 -5v-4l1 2
q-3 -5 -4.5 -10t-3.5 -10h4l1 -1h2l1 -1q11 0 24.5 4.5t28.5 15.5q7 5 15.5 12t17.5 18q25 26 25 38v377q9 5 17 8.5t13 6.5v-533q-3 0 -6 -1q-1 -1 -2 -1t-2.5 -0.5t-2.5 -0.5q-23 -5 -44 -5q-121 0 -169 144q-26 78 -26 156v8q16 17 16 54v13q-3 34 -3 53q0 11 2 19
q30 124 132 176l-1 6h-6v1h-9q-77 0 -146 -76q-101 -109 -106 -232q-1 -3 -1 -24l1 -1v-3q0 -2 -1 -3q0 -77 24 -135q34 -86 114 -141q77 -53 174 -53zM499 732q-51 36 -142 136q-48 -50 -83 -84t-60 -52q11 -12 27 -29.5t30 -34.5q20 23 41.5 43t44.5 38q21 -17 42.5 -37
t42.5 -45q13 17 26.5 32.5t24.5 26.5zM549 263q0 -4 -3 -44q0 -1 -1 -4l-2 -8t-1 -8q-2 0 -4.5 0.5t-5.5 0.5h-6q-2 0 -7 1q-20 3 -25 3h-25q-5 0 -23 -3q-11 -2 -14.5 -2.5t-5.5 -0.5v175q16 -6 40 -6h24q8 0 19 2.5t25 7.5q4 2 6 2q9 -38 9 -82v-34zM494 73
q-33 -40 -68 -56v142v0q1 0 2 1q8 1 13 3q10 3 28 3h19q2 -1 10 -2t23 -2q3 -2 5.5 -3t6.5 -2q-5 -22 -14 -43t-25 -41zM487 400h-13q-36 0 -48 12v145l7 2q29 -26 53.5 -61.5t42.5 -82.5q-23 -15 -42 -15z" />
    <glyph glyph-name="Otilde" unicode="&#xd5;" horiz-adv-x="671" 
d="M327 -42q73 0 134 29q48 23 85.5 59t64.5 89q53 97 53 207q0 42 -10 81q-35 136 -162 216v-8q-9 -6 -18.5 -11t-19.5 -8l-1 -1h-1q-19 -10 -26 -13v30h-37v-49q-69 -27 -114 -44t-63 -23v-39q5 0 17.5 3.5t20.5 7.5v-387l-1 -2q0 -8 -1 -9q-1 -2 -1 -5v-4l1 2
q-3 -5 -4.5 -10t-3.5 -10h4l1 -1h2l1 -1q11 0 24.5 4.5t28.5 15.5q7 5 15.5 12t17.5 18q25 26 25 38v377q9 5 17 8.5t13 6.5v-533q-3 0 -6 -1q-1 -1 -2 -1t-2.5 -0.5t-2.5 -0.5q-23 -5 -44 -5q-121 0 -169 144q-26 78 -26 156v8q16 17 16 54v12q-3 34 -3 54q0 11 2 19
q30 123 132 175l-1 7h-6v1h-9q-76 0 -146 -76q-102 -111 -106 -232q-1 -3 -1 -24l1 -1v-3q0 -2 -1 -3q0 -77 24 -135q34 -86 114 -141q77 -53 174 -53zM464 681q4 24 11 49t19 51q-28 -12 -46 -18.5t-28 -6.5q-20 0 -62 12t-71 12q-28 0 -61 -13q-2 -30 -7.5 -56t-13.5 -46
q40 26 70 26q11 0 25.5 -3t31.5 -10q18 -6 33.5 -8.5t30.5 -2.5q20 0 36.5 2.5t29.5 8.5zM549 262q0 -3 -3 -43q0 -1 -1 -4l-2 -8t-1 -8q-2 0 -4.5 0.5t-5.5 0.5h-6q-2 0 -7 1q-20 3 -25 3h-25q-5 0 -23 -3q-11 -2 -14.5 -2.5t-5.5 -0.5v174q16 -6 40 -6h24q8 0 19 2.5
t25 7.5q4 2 6 2q9 -36 9 -81v-35zM494 73q-33 -40 -68 -56v141v0q1 0 2 1q8 1 13 3q10 3 28 3h19q2 -1 10 -2t23 -2q3 -2 5.5 -3t6.5 -2q-5 -21 -14 -42t-25 -41zM487 400h-13q-36 0 -48 12v145l7 2q29 -26 53.5 -62t42.5 -82q-23 -15 -42 -15z" />
    <glyph glyph-name="Odieresis" unicode="&#xd6;" horiz-adv-x="671" 
d="M327 -42q73 0 134 29q48 23 85.5 59t64.5 89q53 97 53 207q0 42 -10 81q-35 138 -162 216v-8q-9 -6 -18.5 -11t-19.5 -8l-1 -1h-1q-20 -11 -26 -12v29h-37v-48q-69 -28 -114 -45t-63 -23v-38q5 0 17.5 3.5t20.5 7.5v-388l-1 -2q0 -8 -1 -9q-1 -2 -1 -5v-4l1 2
q-3 -5 -4.5 -10t-3.5 -10h4l1 -1h2l1 -1q11 0 24.5 4.5t28.5 15.5q7 5 15.5 12t17.5 18q25 26 25 38v377q9 5 17 8.5t13 6.5v-533q-3 0 -6 -1q-1 -1 -2 -1t-2.5 -0.5t-2.5 -0.5q-23 -5 -44 -5q-121 0 -169 144q-26 78 -26 156v8q16 17 16 54v13q-3 33 -3 53q0 11 2 19
q30 125 132 175l-1 7h-6v1h-9q-76 0 -146 -76q-101 -109 -106 -232q-1 -3 -1 -24l1 -1v-3q0 -2 -1 -3q0 -77 24 -135q34 -86 114 -141q77 -53 174 -53zM549 263q0 -4 -3 -44q0 -1 -1 -4l-2 -8t-1 -8q-2 0 -4.5 0.5t-5.5 0.5h-6q-2 0 -7 1q-20 3 -25 3h-25q-5 0 -23 -3
q-11 -2 -14.5 -2.5t-5.5 -0.5v175q16 -6 40 -6h24q8 0 19 2.5t25 7.5q4 2 6 2q9 -38 9 -82v-34zM527 752q-19 17 -39 37t-40 43q-37 -45 -83 -83q25 -21 45.5 -41.5t37.5 -40.5q19 21 39 40.5t40 38.5v6zM329 752q-20 17 -39.5 37t-38.5 43q-21 -24 -41.5 -45t-40.5 -38
q43 -39 82 -82q18 21 37.5 40.5t40.5 38.5v6zM494 73q-33 -40 -68 -56v142v0q1 0 2 1q8 1 13 3q5 1 12.5 1.5t15.5 0.5h19q5 -2 33 -3q3 -2 5.5 -3t6.5 -2q-5 -22 -14 -43t-25 -41zM487 400h-13q-36 0 -48 12v145l7 2q29 -26 53.5 -61.5t42.5 -82.5q-23 -15 -42 -15z" />
    <glyph glyph-name="multiply" unicode="&#xd7;" horiz-adv-x="583" 
d="M497 -1l40 40l-202 202l202 202l-40 40l-202 -202l-203 202l-40 -40l203 -202l-203 -203l40 -39l203 202z" />
    <glyph glyph-name="Ugrave" unicode="&#xd9;" horiz-adv-x="644" 
d="M641 75h-11l-1 -1h-3l-1 -1h-4l-2 -1h-2q-1 -1 -7 -1l-2 -1h-4q-44 0 -44 35v403q21 6 36.5 27.5t15.5 47.5q-24 -12 -32 -12q-10 0 -19 4q-39 15 -62 60l-149 -95v82h-38v-532q-5 2 -9.5 2.5t-8.5 2.5q-6 2 -10.5 2.5t-7.5 2.5v382q0 58 -35 99q-36 41 -90 46l-4 -2
q-32 0 -57 -11q-34 -16 -54.5 -58t-20.5 -89q8 8 9.5 10t2.5 4h-1q1 2 2 3l1 1q31 43 77 43q35 0 55 -32q8 -14 8 -18v-111h-2q-21 -5 -39 -6q-56 -20 -56 -80q0 -22 14 -38.5t34 -16.5v10h-1q2 10 11 16.5t20 6.5l1 1q4 0 5 -1q5 -1 13 -7v-160q-84 -32 -105 -108h7t3 2
l4 2l1 1h1q51 21 80 21q32 0 70 -13t83 -40q23 28 68 60q14 10 31 21.5t37 25.5q1 -3 2 -5.5l3 -7.5q36 -89 95 -92zM326 759q-21 8 -44.5 20t-50.5 29q-57 35 -90 68q-10 -26 -22.5 -49.5t-29.5 -41.5q24 -10 49.5 -22.5t51.5 -27.5q60 -37 89 -69q18 53 49 86zM373 57
l-9 6q-3 2 -6.5 4.5t-7.5 7.5v146q22 4 38 6q5 0 7 1q10 0 14 -1q3 -1 7.5 -1.5t5.5 -0.5q5 -1 13 -3t11 -2v-115q-17 -11 -35 -23t-38 -25zM411 386h-28q-28 0 -33 8v102l60 35q15 -17 36 -23v-113q-18 -9 -35 -9zM420 261q-15 0 -18 1h-12q-1 -1 -15 -1q-12 -5 -25 -5v101
q11 -3 18.5 -4t11.5 -1h22q29 0 44 7v-103q-8 1 -14.5 2t-11.5 3z" />
    <glyph glyph-name="Uacute" unicode="&#xda;" horiz-adv-x="644" 
d="M641 75h-11l-1 -1h-3l-1 -1h-4l-2 -1h-2q-1 -1 -7 -1l-2 -1h-4q-44 0 -44 35v403q21 6 36.5 27.5t15.5 47.5q-24 -12 -32 -12q-10 0 -19 4q-39 15 -62 60l-149 -95v82h-38v-532q-5 2 -9.5 2.5t-8.5 2.5q-6 2 -10.5 2.5t-7.5 2.5v382q0 58 -35 99q-36 42 -90 45l-4 -1
q-32 0 -57 -11q-34 -16 -54.5 -58t-20.5 -89q8 8 9.5 10t2.5 4h-1q1 2 2 3l1 1q32 43 77 43q35 0 55 -32q8 -14 8 -18v-111h-2q-21 -5 -39 -6q-56 -20 -56 -80q0 -22 14 -38.5t34 -16.5v10h-1q2 10 11 16.5t20 6.5l1 1q4 0 5 -1q5 -1 13 -7v-160q-84 -32 -105 -108h7t3 2
l4 2l1 1h1q51 21 80 21q32 0 70 -13t83 -40q23 28 68 60q14 10 31 21.5t37 25.5q1 -3 2 -5.5l3 -7.5q36 -89 95 -92zM545 786q-32 35 -48 86q-33 -33 -90 -68q-50 -31 -101 -51q33 -35 52 -91q31 33 90 69q27 16 50.5 28t44.5 20zM373 57l-9 6q-3 2 -6.5 4.5t-7.5 7.5v146
q22 4 38 6q5 0 7 1q10 0 14 -1q5 -1 10 -1.5t3 -0.5q5 -1 13 -3t11 -2v-115q-17 -11 -35 -23t-38 -25zM411 386h-28q-28 0 -33 8v102l60 35q15 -17 36 -23v-113q-18 -9 -35 -9zM420 261q-15 0 -18 1h-12q-1 -1 -15 -1q-12 -5 -25 -5v101q11 -3 18.5 -4t11.5 -1h22q29 0 44 7
v-103q-8 1 -14.5 2t-11.5 3z" />
    <glyph glyph-name="Ucircumflex" unicode="&#xdb;" horiz-adv-x="644" 
d="M641 75h-11l-1 -1h-3l-1 -1h-4l-2 -1h-2q-1 -1 -7 -1l-2 -1h-4q-44 0 -44 35v403q21 6 36.5 27.5t15.5 47.5q-24 -12 -32 -12q-10 0 -19 4q-39 15 -62 60l-149 -95v82h-38v-532q-5 2 -9.5 2.5t-8.5 2.5q-6 2 -10.5 2.5t-7.5 2.5v382q0 58 -35 99q-36 42 -90 45l-4 -2
q-34 0 -57 -10q-34 -16 -54.5 -58t-20.5 -89q8 8 9.5 10t2.5 4h-1q1 2 2 3l1 1q32 43 77 43q35 0 55 -32q8 -14 8 -18v-111h-2q-21 -5 -39 -6q-56 -20 -56 -80q0 -22 14 -38.5t34 -16.5v10h-1q2 10 11 16.5t20 6.5l1 1q4 0 5 -1q5 -1 13 -7v-160q-84 -32 -105 -108h7t3 2
l4 2l1 1h1q51 21 80 21q32 0 70 -13t83 -40q23 28 68 60q14 10 31 21.5t37 25.5q1 -3 2 -5.5l3 -7.5q36 -89 95 -92zM479 732q-51 36 -142 136q-48 -50 -83 -84t-60 -52q11 -12 27 -29.5t30 -34.5q20 23 41.5 43t44.5 38q21 -17 42.5 -37t42.5 -45q13 17 26.5 32.5
t24.5 26.5zM373 57l-9 6q-3 2 -6.5 4.5t-7.5 7.5v146q22 4 38 6q5 0 7 1q10 0 14 -1q3 -1 7.5 -1.5t5.5 -0.5q5 -1 13 -3t11 -2v-115q-17 -11 -35 -23t-38 -25zM411 386h-28q-28 0 -33 8v102l60 35q17 -19 36 -23v-113q-18 -9 -35 -9zM420 261q-15 0 -18 1h-12q-1 -1 -15 -1
q-12 -5 -25 -5v101q11 -3 18.5 -4t11.5 -1h22q29 0 44 7v-103q-8 1 -14.5 2t-11.5 3z" />
    <glyph glyph-name="Udieresis" unicode="&#xdc;" horiz-adv-x="644" 
d="M641 75h-11l-1 -1h-3l-1 -1h-4l-2 -1h-2q-1 -1 -7 -1l-2 -1h-4q-44 0 -44 35v402q21 7 36.5 28.5t15.5 47.5q-24 -12 -32 -12q-10 0 -19 4q-40 15 -62 60l-149 -95v81h-38v-531q-5 2 -9.5 2.5t-8.5 2.5q-6 2 -10.5 2.5t-7.5 2.5v382q0 58 -35 99q-36 40 -90 45l-4 -2
q-32 0 -57 -11q-17 -8 -31 -23t-23.5 -34.5t-15 -42.5t-5.5 -46q8 8 9.5 10t2.5 4h-1q1 2 2 3l1 1q32 43 77 43q35 0 55 -33q8 -13 8 -17v-111h-2q-21 -5 -39 -6q-56 -20 -56 -81q0 -21 14 -37.5t34 -16.5v10h-1q2 10 11 16.5t20 6.5l1 1q4 0 5 -1q5 -1 13 -7v-160
q-84 -32 -105 -108h7t3 2l4 2l1 1h1q51 21 80 21q32 0 70 -13t83 -40q23 28 68 60q14 10 31 21.5t37 25.5l2 -6t3 -7q36 -89 95 -92zM373 56l-9 7q-3 2 -6.5 4.5t-7.5 7.5v146q22 4 38 6q5 0 7 1q10 0 14 -1q3 -1 7.5 -1.5t5.5 -0.5q5 -1 13 -3t11 -2v-115q-17 -11 -35 -23
t-38 -26zM507 752q-19 17 -39 37t-40 43q-18 -22 -39 -43t-43 -40q24 -21 44.5 -41.5t37.5 -40.5q19 21 39 40.5t40 38.5v6zM309 752q-20 17 -39.5 37t-38.5 43q-21 -24 -41.5 -45t-40.5 -38q43 -39 82 -82q18 21 37.5 40.5t40.5 38.5v6zM411 385h-28q-28 0 -33 8v102l60 36
q16 -18 36 -24v-113q-18 -9 -35 -9zM420 261q-15 0 -18 1h-12q-1 -1 -15 -1q-12 -5 -25 -5v101q11 -3 18.5 -4t11.5 -1h22q29 0 44 7v-103q-8 1 -14.5 2t-11.5 3z" />
    <glyph glyph-name="Yacute" unicode="&#xdd;" horiz-adv-x="531" 
d="M524 562v9h-7l-2 -2q-2 0 -2.5 -0.5t-1.5 -0.5h1q-5 -2 -12.5 -4.5t-9.5 -2.5q-39 0 -93 79v-12q-74 -64 -110 -83v83h-36v-111q-13 -12 -22 -17q-2 -1 -2.5 -1.5t-2.5 -1.5q-1 131 -100 131q-21 0 -40 -8.5t-36 -23.5q-33 -33 -33 -75q0 -27 20 -48q0 20 14 37.5
t31 17.5h4l1 -1h1q9 -6 16 -10.5t10 -9.5v-131q-12 -2 -22.5 -4t-16.5 -4q-45 -19 -45 -77q0 -54 35 -64v9l1 2q0 20 28 27q14 -6 20 -14v-169q0 -45 34 -76q11 -11 26.5 -18.5t33.5 -12.5q-66 -26 -66 -86q0 -36 29 -63q14 -13 31 -19t34 -7l2 -1h4q44 0 93 40h2l3 3h-1
q49 36 78 36q7 0 12.5 -6t5.5 -13q0 -13 -10.5 -20t-23.5 -7t-39 8v-31q21 -9 40 -9h3l2 1q15 0 29 6t25.5 16t18 23t6.5 28q0 55 -56 76q-11 2 -17.5 3.5t-11.5 3.5q-1 0 -1.5 0.5t-1.5 0.5h-4q-47 0 -102 -32q-9 -6 -14.5 -9.5t-7.5 -5.5q-1 -1 -2 -1l-1 -1h1q-5 -2 -8 -4
t-5 -3q-26 -8 -28 -8q-20 0 -20 16q0 57 153 57q8 2 13 2l21 7t16 5q2 1 5.5 1.5t2.5 0.5q78 36 78 96v428q27 15 28 40q0 2 1 3v9zM524 787q-32 35 -48 86q-33 -33 -90 -68q-26 -16 -51 -28.5t-49 -22.5q32 -35 52 -91q29 32 89 69q27 16 50.5 28t44.5 20zM386 49
q0 -9 -6 -18q-10 -17 -44 -25q-9 -2 -15 -3h1q-2 0 -3.5 -0.5t-3.5 -0.5h-14q-5 2 -8 2t-6 1v179q10 2 18 3.5t15 3.5q2 1 4 1t4 1q20 -3 34.5 -5t22.5 -3h1v-136zM354 377h-10v1q-50 0 -57 6v112q29 14 41 31q17 -15 31.5 -22t23.5 -7h3v-113q-13 -8 -32 -8zM358 224
q-15 3 -27 3h-3q-8 -2 -23 -3l-5 -1t-8 -2t-4 -1h-1v124q18 -5 37 -5h22q11 0 21.5 1t18.5 6v-126q-6 0 -13.5 1t-14.5 3zM226 41v-1l-1 414q13 7 18 12q2 0 8 4v-461q-19 9 -25 32zM113 249l-1 2q0 -2 1 -2z" />
    <glyph glyph-name="germandbls" unicode="&#xdf;" horiz-adv-x="407" 
d="M178 515q-3 -3 -9 -4l-1 -104q23 6 44.5 18.5t44.5 32.5q35 -37 62 -37q32 0 50 30l24 -4q-41 -90 -119 -172q21 0 39.5 1.5t34.5 3.5q44 -80 44 -152q0 -149 -172 -194l-8 20q88 36 88 135q0 55 -34 125q-16 -1 -29 -1t-24 -1q-5 0 -11 -0.5t-11 -0.5l-8 15
q39 37 69.5 70t52.5 64q-21 -11 -45 -11q-52 0 -92 33v-299q5 -4 17 -4q8 -5 16 -5q2 -2 8.5 -6t17.5 -11l22 23l21 -20l-107 -103q-68 59 -125 59h-2l-2 -1q-5 0 -10.5 -1t-11.5 -3q13 47 53 65v256q-11 -3 -37 -3l-2 -1h-7q0 16 1 21v27l-1 3v5l-1 2v18q9 -3 21 -3
q1 -1 14 -1q1 -1 11 -1h1l-1 100v-2q-4 7 -6 17l-1 1v10q6 -2 10 -2h10q86 0 162 94q2 -2 6.5 -7t12.5 -14q32 -34 66 -34h-2l2 1h13q-8 -26 -32 -45.5t-49 -20.5q-2 -1 -11 -1q-42 0 -63 22l-2 -2z" />
    <glyph glyph-name="agrave" unicode="&#xe0;" horiz-adv-x="396" 
d="M392 49h-11l-1 -1q-21 1 -35 12.5t-14 31.5v208q43 25 43 68v9q-14 -5 -23 -7.5t-15 -2.5q-23 0 -50 32v-1q-4 4 -6.5 7.5t-1.5 3.5q-1 1 -1 10q-8 -8 -9.5 -10t-3.5 -5l-1 -2q-41 -54 -61 -54q-2 0 -4 2l-5 -2q-18 2 -33 22v-1q-5 8 -14 20.5t-14 17.5l-1 2l-5 6
q-45 -53 -115 -78q21 -22 31 -30h-1q24 -27 39 -45q13 -14 19.5 -22t8.5 -11q-91 -62 -91 -141q0 -25 4 -38q5 -20 17.5 -36t32.5 -30q40 -26 84 -26h6l68 59q5 -10 13 -18.5t18 -18.5q26 -23 50 -23h8l1 1h3l1 1h4l1 1h1zM201 45q-35 0 -62 30q-25 29 -25 68q0 11 4 25.5
t14 34.5l62 -69l25 23l-112 128q3 -1 6 -1h6h21l2 1q33 0 55 27q8 -9 15 -14.5t15 -5.5v-240l-1 -1h-1q-8 -6 -24 -6zM245 545q-21 8 -44.5 19t-49.5 28q-29 19 -52 36t-37 33q-20 -55 -52 -91q48 -18 100 -50q58 -36 89 -68q18 52 48 86z" />
    <glyph glyph-name="aacute" unicode="&#xe1;" horiz-adv-x="396" 
d="M392 49h-11l-1 -1q-20 1 -34.5 12.5t-14.5 31.5v208q43 25 43 68v9q-28 -10 -38 -10q-23 0 -50 32v-1q-4 4 -6.5 7.5t-1.5 3.5q-1 1 -1 10q-8 -8 -9.5 -10t-3.5 -5l-1 -2q-41 -54 -61 -54q-2 0 -4 2l-5 -2q-18 2 -33 22v-1q-5 8 -14 20.5t-14 17.5l-1 2l-5 6
q-45 -53 -115 -78q21 -22 31 -30h-1q24 -27 39 -45q13 -14 19.5 -22t8.5 -11q-91 -62 -91 -141q0 -25 4 -38q8 -38 51 -66q39 -26 83 -26h6l68 59q5 -10 13 -18.5t19 -18.5q24 -23 50 -23h7l1 1h3l1 1h4l1 1h1zM201 45q-35 0 -62 30q-25 29 -25 68q0 21 18 60l62 -69l25 23
l-112 128q3 -1 6 -1h7h20l2 1q33 0 55 27q8 -9 15 -14.5t15 -5.5v-240l-1 -1h-1q-8 -6 -24 -6zM397 575q-32 35 -48 86q-29 -31 -89 -69q-26 -16 -51 -27.5t-49 -21.5q32 -38 52 -91q15 17 37.5 33.5t51.5 34.5q25 16 48.5 28t46.5 21z" />
    <glyph glyph-name="acircumflex" unicode="&#xe2;" horiz-adv-x="396" 
d="M392 49h-11l-1 -1q-21 1 -35 12.5t-14 31.5v208q43 25 43 68v9q-14 -5 -23 -7.5t-15 -2.5q-23 0 -50 32v-1q-4 4 -6.5 7.5t-1.5 3.5q-1 1 -1 10q-8 -8 -9.5 -10t-3.5 -5l-1 -2q-41 -54 -61 -54q-2 0 -4 2l-5 -2q-18 2 -33 22v-1q-5 8 -14 20.5t-14 17.5l-1 2l-5 6
q-45 -53 -115 -78q21 -22 31 -30h-1q24 -27 39 -45q13 -14 19.5 -22t8.5 -11q-91 -62 -91 -141q0 -25 4 -38q5 -20 17.5 -36t32.5 -30q40 -26 84 -26h6l68 59q5 -10 13 -18.5t18 -18.5q26 -23 50 -23h8l1 1h3l1 1h4l1 1h1zM341 523q-23 17 -57 50t-80 83q-91 -97 -141 -136
q11 -12 25.5 -28t30.5 -36q22 26 43 46.5t42 36.5q20 -16 40.5 -36.5t43.5 -46.5q16 20 29.5 35t24.5 26zM201 45q-35 0 -62 30q-25 29 -25 68q0 11 4 25.5t14 34.5l62 -69l25 23l-112 128q3 -1 6 -1h6h21l2 1q33 0 55 27q8 -9 15 -14.5t15 -5.5v-240l-1 -1h-1q-8 -6 -24 -6
z" />
    <glyph glyph-name="atilde" unicode="&#xe3;" horiz-adv-x="396" 
d="M392 49h-11l-1 -1q-21 1 -35 12.5t-14 31.5v207q43 26 43 68v9q-14 -5 -23 -7.5t-15 -2.5q-23 0 -50 33v-1q-4 4 -6.5 7.5t-1.5 3.5q-1 1 -1 10q-8 -8 -9.5 -10t-3.5 -5l-1 -2q-39 -54 -61 -54q-2 0 -4 2l-5 -2q-19 2 -33 21v-1q-5 8 -14 21t-14 18l-1 2l-5 6
q-45 -54 -115 -78q21 -22 31 -30h-1q24 -29 39 -45q13 -14 19.5 -22t8.5 -11q-91 -62 -91 -141q0 -25 4 -38q5 -20 17.5 -36t32.5 -30q21 -14 41 -19.5t43 -5.5h6l68 58q5 -10 13 -18.5t18 -18.5q14 -12 26.5 -17t23.5 -5h8l1 1h3l1 1h4l1 1h1zM327 483q4 23 11 48.5
t18 51.5q-55 -26 -73 -26q-19 0 -62 12q-39 13 -69 13q-28 0 -61 -13q-4 -58 -21 -103q39 27 69 27q24 0 57 -13q34 -12 64 -12q38 0 65 12zM201 45q-35 0 -62 30q-25 29 -25 68q0 11 4 25.5t14 33.5l62 -68l25 23l-112 127q3 -1 6 -1h6h21l2 1q33 0 55 28q16 -21 30 -21
v-239l-1 -1h-1q-8 -6 -24 -6z" />
    <glyph glyph-name="adieresis" unicode="&#xe4;" horiz-adv-x="396" 
d="M392 49h-11l-1 -1q-21 1 -35 12.5t-14 31.5v207q43 26 43 69v8q-14 -4 -23 -6.5t-15 -2.5q-24 0 -50 32v-1q-4 4 -6.5 7.5t-1.5 3.5q-1 1 -1 10q-8 -8 -9.5 -10t-3.5 -5l-1 -2q-41 -54 -61 -54q-2 0 -4 2l-5 -2q-18 2 -33 22v-1q-5 8 -14 20.5t-14 17.5l-1 2l-5 6
q-43 -52 -115 -78q21 -22 31 -30h-1q24 -27 39 -45q13 -14 19.5 -22t8.5 -11q-91 -62 -91 -141q0 -25 4 -38q5 -20 17.5 -36t32.5 -30q21 -14 41 -19.5t43 -5.5h6l68 58q5 -10 13 -18.5t18 -18.5q14 -12 26.5 -17t23.5 -5h8l1 1h3h1h4l1 1h1zM201 45q-35 0 -62 30
q-25 29 -25 68q0 11 4 25.5t14 34.5l62 -69l25 23l-112 128q3 -1 6 -1h6h21l2 1q34 0 55 27q16 -21 30 -21v-239l-1 -1h-1q-8 -6 -24 -6zM372 541q-20 17 -39.5 37t-38.5 43q-21 -24 -41.5 -45t-40.5 -38q22 -19 42 -39.5t40 -42.5q17 21 37 41t41 39v5zM175 541
q-19 17 -38.5 37t-39.5 43q-20 -23 -40 -44t-40 -39q42 -37 80 -82q18 21 38 41t40 39v5z" />
    <glyph glyph-name="aring" unicode="&#xe5;" horiz-adv-x="396" 
d="M392 49h-11l-1 -1q-21 1 -35 12.5t-14 31.5v207q43 26 43 68v9q-14 -5 -23 -7.5t-15 -2.5q-23 0 -50 33v-1q-4 4 -6.5 7.5t-1.5 3.5q-1 1 -1 10q-8 -8 -9.5 -10t-3.5 -5l-1 -2q-39 -54 -61 -54q-2 0 -4 2l-5 -2h2q-19 0 -35 21v-1q-5 8 -14 21t-14 18l-1 2l-5 6
q-43 -52 -115 -78q21 -22 31 -30h-1q12 -14 21.5 -25t17.5 -20q13 -14 19.5 -22t8.5 -11q-91 -62 -91 -141q0 -25 4 -38q5 -20 17.5 -36t32.5 -30q21 -14 41 -19.5t43 -5.5h6l68 58q5 -10 13 -18.5t18 -18.5q14 -12 26.5 -17t23.5 -5h8l1 1h3l1 1h4l1 1h1zM201 45
q-35 0 -62 30q-25 29 -25 68q0 11 4 25.5t14 33.5l62 -68l25 23l-112 127q3 -1 6 -1h6h21l2 1q33 0 55 28q16 -21 30 -21v-239l-1 -1h-1q-8 -6 -24 -6zM301 540q0 35 -30 46q-11 3 -54 3q-50 0 -69 -9q-31 -17 -31 -64q0 -37 30 -44h-1q9 -4 55 -4q50 0 69 10q31 17 31 62z
M205 498q-17 0 -17 21q0 41 25 41q17 0 17 -22q0 -40 -25 -40z" />
    <glyph glyph-name="ccedilla" unicode="&#xe7;" horiz-adv-x="320" 
d="M309 384q-21 -15 -29 -15q-36 0 -79 57q-22 -30 -57 -47t-72 -17q-18 0 -19 1l-9 9v-12q2 -9 3 -10q0 -5 5 -17q0 -11 3 -18q0 -6 0.5 -10t0.5 -7v-229q-35 -24 -45 -72q16 18 44 18q83 0 152 -58l91 112l-24 20l-26 -32q-5 6 -12.5 10.5t-17.5 8.5l-35 13q-14 0 -23 5
v233q19 -29 65 -29q17 0 33 6.5t28 17.5t20 26.5t9 32.5zM213 -118q0 48 -50 77q-17 -17 -35 -34t-38 -34q36 -33 36 -56q0 -31 -28 -38v-16q26 1 47.5 9.5t36.5 22.5q31 28 31 69z" />
    <glyph glyph-name="egrave" unicode="&#xe8;" horiz-adv-x="338" 
d="M332 266q-21 29 -46 76q-14 26 -22.5 47t-13.5 39q-49 -32 -93.5 -49t-84.5 -17h-4l-2 1h-3l-1 1h-7l-9 9v-14q17 -37 17 -51v-243q-11 -8 -17.5 -13.5t-10.5 -9.5q-1 -1 -5.5 -8t-11.5 -19v1q-2 -2 -4 -5.5t-4 -8.5q12 2 24 3.5t24 1.5q34 0 76 -9q26 -5 46.5 -15
t41.5 -21l10 -5l91 101l-26 23l-23 -25q-23 11 -50 19.5t-58 13.5v75q5 4 10.5 7t10.5 6q61 36 96.5 56.5t47.5 26.5zM205 545q-20 8 -43.5 19t-49.5 28q-60 37 -90 69q-18 -53 -50 -91q24 -10 49 -22.5t49 -27.5q60 -36 89 -68q20 52 48 86zM199 285q6 -15 11.5 -25
t10.5 -16l-55 -34v128l8 2q6 -15 12 -28.5t13 -26.5z" />
    <glyph glyph-name="eacute" unicode="&#xe9;" horiz-adv-x="338" 
d="M331 266q-9 14 -20.5 33t-25.5 43q-26 51 -35 86q-49 -32 -93.5 -49t-84.5 -17h-4l-3 1h-2l-1 1h-7l-9 9v-14q17 -37 17 -51v-243q-11 -8 -17.5 -13.5t-10.5 -9.5q-1 -1 -5.5 -8t-11.5 -19v1q-2 -2 -4 -5.5t-4 -8.5q12 2 24 3.5t24 1.5q34 0 76 -9q26 -5 46 -15l42 -21
l10 -5l90 101l-25 23l-23 -25q-24 11 -50.5 19.5t-57.5 13.5v75q5 4 10.5 7t10.5 6q61 36 96.5 56.5t46.5 26.5zM357 575q-30 33 -48 86q-29 -31 -89 -69q-26 -16 -51 -27.5t-49 -21.5q17 -20 29.5 -42.5t22.5 -48.5q31 32 89 68q49 31 95 48zM198 285q7 -15 12.5 -25
t10.5 -16l-55 -34v128l8 2q6 -15 12 -28.5t12 -26.5z" />
    <glyph glyph-name="ecircumflex" unicode="&#xea;" horiz-adv-x="338" 
d="M331 266q-21 29 -46 76q-14 26 -22 47t-13 39q-101 -66 -178 -66h-4l-3 1h-3l-1 1h-6l-9 9v-14q16 -35 16 -51v-243q-10 -8 -16.5 -13.5t-10.5 -9.5q-1 -1 -5.5 -8t-11.5 -19v1q-2 -2 -4 -5.5t-4 -8.5q12 2 24 3.5t24 1.5q32 0 76 -9q26 -5 46 -15t41 -21l10 -5l91 101
l-25 23l-24 -25q-23 11 -49.5 19.5t-57.5 13.5v75q11 8 20 13q61 36 96.5 56.5t47.5 26.5zM310 523q-22 17 -56 50t-80 83q-91 -97 -141 -136q12 -12 26 -28t31 -36q43 52 84 83q37 -30 84 -83q16 20 29.5 35t23.5 26zM198 285q7 -15 12.5 -25t9.5 -16l-54 -34v128l8 2
q10 -29 24 -55z" />
    <glyph glyph-name="edieresis" unicode="&#xeb;" horiz-adv-x="338" 
d="M331 266q-9 14 -20.5 33t-24.5 43q-14 26 -22.5 47t-13.5 39q-98 -66 -178 -66h-4l-2 1h-3l-1 1h-7l-9 8v-13q17 -37 17 -51v-243q-20 -14 -28 -24q-2 0 -17 -26v1q-2 -2 -4 -5.5t-4 -8.5q12 2 24 3.5t24 1.5q34 0 76 -9q26 -5 46.5 -15t41.5 -21l10 -4l91 100l-26 23
l-23 -25q-23 11 -50 19.5t-58 13.5v75q5 4 10.5 7t10.5 6q61 36 96.5 56.5t47.5 26.5v6zM352 541q-20 17 -39.5 37t-38.5 43q-21 -24 -41 -45t-40 -38q21 -19 41 -39.5t40 -42.5q17 21 37 41t41 39v5zM155 541q-19 17 -38.5 37t-39.5 43q-19 -23 -39 -44t-40 -39
q43 -40 79 -82q19 21 38.5 41t39.5 39v5zM199 285q6 -15 11.5 -25t10.5 -16l-55 -35v129l8 2q6 -15 12 -29t13 -26z" />
    <glyph glyph-name="igrave" unicode="&#xec;" horiz-adv-x="252" 
d="M246 43l-4 6q-13 -5 -26 -5q-34 0 -42 18q-4 8 -4 16v214q14 6 27 20.5t21 37.5q1 5 1 8q0 4 1 6v12q-25 -14 -33 -14q-31 0 -72 58v-12q-3 -3 -6.5 -6l-3.5 -3q-19 -16 -28 -22q-20 -17 -33 -29t-22 -21l1 1l-2 -1l-2 -2l-1 1l-4 -6l14 -19l14 7q10 -16 24 -17v-252
q0 -32 30 -56q29 -23 64 -25zM88 545q-20 8 -43.5 19t-49.5 28q-60 38 -89 69q-10 -26 -22.5 -49.5t-29.5 -41.5q24 -9 49.5 -21.5t50.5 -28.5q29 -18 51 -34.5t37 -33.5q20 52 48 86z" />
    <glyph glyph-name="iacute" unicode="&#xed;" horiz-adv-x="251" 
d="M245 43l-4 6q-7 -3 -13.5 -4t-12.5 -1q-33 0 -41 18q-5 10 -5 16v214q32 13 48 58q1 9 3 14v12q-26 -14 -33 -14q-17 0 -34.5 14.5t-38.5 43.5v-12l-9 -9q-19 -16 -28 -22q-20 -17 -33 -29t-23 -21l1 1l-1 -1l-2 -2l-1 1l-4 -6l14 -19l14 7q10 -16 23 -17v-252
q0 -31 31 -56q14 -12 30.5 -18t32.5 -7zM357 575q-30 33 -48 86q-29 -31 -89 -69q-26 -16 -51 -27.5t-49 -21.5q17 -20 29.5 -42.5t22.5 -48.5q31 32 89 68q49 31 95 48z" />
    <glyph glyph-name="icircumflex" unicode="&#xee;" horiz-adv-x="250" 
d="M244 43l-4 6q-15 -6 -26 -6q-32 0 -41 19q-5 10 -5 16v214q32 13 48 58q1 9 3 14v12q-26 -14 -33 -14q-31 0 -72 58v-12q-3 -3 -6.5 -6l-3.5 -3q-10 -8 -16 -13.5t-11 -8.5q-20 -17 -33 -29t-23 -21l1 1l-2 -1l-2 -2l-1 1l-3 -6l14 -19l14 7q10 -16 23 -17v-252
q0 -31 30 -56q29 -23 63 -25zM251 523q-22 17 -56 50t-80 83q-93 -99 -139 -136q11 -12 25 -28.5t30 -35.5q43 52 84 83q39 -32 83 -83q17 20 30 35t24 26z" />
    <glyph glyph-name="idieresis" unicode="&#xef;" horiz-adv-x="251" 
d="M245 42l-3 7q-15 -6 -27 -6q-32 0 -41 19q-5 10 -5 16v213q32 13 48 59q1 9 3 14v11q-13 -6 -20.5 -9.5t-12.5 -3.5q-31 0 -73 58v-12l-9 -9q-10 -9 -16.5 -14.5t-11.5 -8.5q-20 -17 -32.5 -28t-22.5 -20l-1 -1l-2 -2l-1 1l-4 -6l14 -20l14 8q10 -17 24 -18v-251
q0 -32 30 -56q14 -12 30.5 -18t32.5 -6zM293 541q-20 17 -39 37t-39 43q-20 -24 -40.5 -45t-40.5 -38q21 -19 41.5 -39.5t39.5 -42.5q38 44 78 80v5zM97 541q-38 32 -78 80q-20 -23 -39.5 -44t-40.5 -39q22 -20 41.5 -40.5t38.5 -41.5q38 44 78 80v5z" />
    <glyph glyph-name="ntilde" unicode="&#xf1;" horiz-adv-x="444" 
d="M442 60h-13l-1 -1h-8l-1 -1h-4q-30 0 -30 20v234q27 28 27 51l1 2v10l1 2v15q-39 -18 -51 -18q-22 0 -65 58l-118 -98q-1 27 -17 52q-13 21 -46 48l-102 -101v-8h5l2 -1q32 0 50 -30v-226q-40 -23 -47 -62h10l1 1h4l1 1h5l1 1h3q56 0 110 -51l93 67q-14 21 -35 33
q-6 5 -16 10t-22 10v211l41 33q8 -11 18 -18t26 -11h-1l4 -2l1 -1h2q2 -1 6 -1v-263q0 -28 24 -47q26 -21 55 -23zM347 483q4 23 11 48.5t19 51.5q-55 -26 -74 -26t-62 12q-39 13 -69 13q-29 0 -61 -13q-4 -58 -21 -103q39 27 69 27q24 0 57 -13q34 -12 65 -12q38 0 64 12z
" />
    <glyph glyph-name="ograve" unicode="&#xf2;" horiz-adv-x="418" 
d="M411 369v13q-13 -8 -19.5 -10.5t-11.5 -2.5q-9 0 -24 5q-27 11 -60 59q-87 -70 -191 -70q-17 0 -31 2t-26 6v-11l1 -2v3v-2q1 0 1 -1q0 -3 2 -5l2 -4l1 -1v-2l2 -2q0 -2 1 -2l3 -9v1l1 -263q-44 -21 -48 -64l20 3q12 3 20 3q43 0 97 -57q72 70 188 70q23 0 60 -8
q-26 28 -26 59v231q9 4 22 23q6 10 10 16.5t4 12.5l1 2v5zM249 55l-12 -6q-26 24 -36 28l-3.5 1t-6.5 2h1l-4 2q-11 0 -19 5v243q21 0 38 10q23 -37 58 -38v-244h-1q-9 -3 -15 -3zM226 545q-21 8 -44.5 19t-50.5 28q-60 38 -89 69q-10 -26 -22 -49t-29 -42q51 -20 99 -50
q59 -35 90 -68q18 52 48 86z" />
    <glyph glyph-name="oacute" unicode="&#xf3;" horiz-adv-x="418" 
d="M411 369v13q-13 -8 -20 -10.5t-12 -2.5q-8 0 -23 5q-27 10 -60 59q-87 -70 -191 -70q-17 0 -31 2t-26 6v-11l1 -2v3v-2q1 0 1 -1q0 -3 2 -5l2 -4l1 -1v-2l2 -2q0 -2 1 -2l3 -9v1l1 -263q-44 -21 -48 -64l20 3q12 3 20 3q43 0 97 -57q72 70 187 70q24 0 61 -8
q-26 26 -26 59v231q8 4 22 23q6 10 10 16.5t4 12.5l1 2v5zM249 55l-12 -6q-26 24 -36 28l-3.5 1t-6.5 2h1l-4 2q-11 0 -19 5v243q21 0 38 10q23 -37 58 -38v-244h-1q-9 -3 -15 -3zM417 575q-32 35 -48 86q-30 -32 -90 -69q-26 -16 -50.5 -27.5t-49.5 -21.5q34 -38 52 -91
q31 33 90 68q49 31 95 48z" />
    <glyph glyph-name="ocircumflex" unicode="&#xf4;" horiz-adv-x="418" 
d="M411 369v13q-13 -8 -20 -10.5t-12 -2.5q-8 0 -23 5q-27 10 -60 59q-87 -70 -191 -70q-17 0 -31 2t-26 6v-11l1 -2v3v-2q1 0 1 -1q0 -3 2 -5l2 -4l1 -1v-2l2 -2q0 -2 1 -2l3 -9v1l1 -263q-44 -21 -48 -64l20 3q12 3 20 3q43 0 97 -57q72 70 187 70q23 0 61 -8
q-27 27 -27 59v231q8 4 23 23q6 10 10 16.5t4 12.5l1 2v5zM351 523q-22 17 -56.5 50t-80.5 83q-91 -97 -141 -136q11 -12 25.5 -28t30.5 -36q22 26 43 46.5t42 36.5q20 -16 41 -36.5t43 -46.5q17 20 30 35t24 26zM249 55l-12 -6q-26 24 -36 28l-3.5 1t-6.5 2h1l-4 2
q-11 0 -19 5v243q21 0 38 10q23 -37 58 -38v-244h-1q-9 -3 -15 -3z" />
    <glyph glyph-name="otilde" unicode="&#xf5;" horiz-adv-x="418" 
d="M411 368v13q-13 -8 -20 -10.5t-12 -2.5q-8 0 -23 5q-14 5 -28.5 20.5t-31.5 38.5q-87 -70 -191 -70q-17 0 -31 2t-26 6v-11l1 -2v3v-2q1 0 1 -1q0 -3 2 -5l2 -3l1 -1v-2l2 -2q0 -2 1 -2l3 -9v1l1 -263q-44 -21 -48 -64l20 3q12 3 20 3q43 0 97 -56q72 69 187 69
q23 0 61 -8q-27 27 -27 59v231q8 4 23 23q6 10 10 16t4 12l1 2v5zM249 55l-12 -6q-26 24 -36 28l-3.5 1t-6.5 2h1l-4 2q-11 0 -19 5v243q21 0 38 10q24 -38 58 -39v-243h-1q-9 -3 -15 -3zM347 483q4 23 11 48.5t18 51.5q-55 -26 -73 -26q-19 0 -62 12q-39 13 -69 13
q-29 0 -61 -13q-4 -58 -21 -103q39 27 69 27q24 0 57 -13q34 -12 64 -12q38 0 65 12z" />
    <glyph glyph-name="odieresis" unicode="&#xf6;" horiz-adv-x="418" 
d="M411 369v12q-13 -8 -20 -10t-12 -2t-10.5 1t-12.5 3q-26 10 -60 60q-85 -70 -191 -70q-17 0 -31 2t-26 6v-11l1 -2v3v-2q1 0 1 -1q0 -3 2 -5l2 -4l1 -1v-2l2 -2q0 -2 1 -2l3 -9v1l1 -263q-44 -21 -48 -64l20 3q12 3 20 3q43 0 97 -56q72 69 187 69q23 0 61 -8
q-27 27 -27 59v231q8 4 23 23q6 10 10 16.5t4 12.5l1 2v5zM249 55l-12 -6q-26 24 -36 28l-3.5 1t-6.5 2h1l-4 2q-11 0 -19 5v243q21 0 38 10q24 -38 58 -39v-243h-1q-9 -3 -15 -3zM392 541q-20 17 -39.5 37t-38.5 43q-21 -24 -41.5 -45t-40.5 -38q22 -19 42 -39.5t40 -42.5
q17 21 37 41t41 39v5zM195 541q-19 17 -38.5 37t-39.5 43q-20 -23 -40 -44t-41 -39q23 -19 43 -39.5t38 -42.5q18 21 38 41t40 39v5z" />
    <glyph glyph-name="divide" unicode="&#xf7;" horiz-adv-x="584" 
d="M42 213h507v55h-507v-55zM295 25q20 0 33.5 13t13.5 33q0 19 -13.5 32.5t-33.5 13.5q-19 0 -32.5 -13.5t-13.5 -32.5q0 -20 13.5 -33t32.5 -13zM295 364q20 0 33.5 13.5t13.5 32.5q0 20 -13.5 33.5t-33.5 13.5q-18 0 -32 -13.5t-14 -33.5q0 -19 14 -32.5t32 -13.5z" />
    <glyph glyph-name="ugrave" unicode="&#xf9;" horiz-adv-x="463" 
d="M456 46l-4 7q-15 -6 -23 -6l-2 -1h-2q-48 0 -48 52v197q50 15 50 75h-7l-1 -1h-2l-1 -1h-1l-1 -1h-1l-2 -2q-6 -2 -15 -2q-21 0 -73 54q-76 -76 -108 -86l19 -28l20 9q7 -8 11 -11l3 -1l2 -1h1l2 -213l-6 -3q-3 -3 -6 -3q-8 -6 -12 -10t-8 -6v1q-2 -1 -2.5 -2t-2.5 -2
l-2 -1l-2 -2q-4 3 -10.5 7.5t-15.5 10.5q-2 1 1 0t4 -1q-25 7 -31 12v247q0 56 -68 91l-97 -100v-8h9q2 0 4 -1q5 -2 12 -3t12 -3l-1 1q16 -7 21 -21v-216q-35 -18 -44 -69q13 10 33 10q43 0 105 -59q14 14 24.5 24t19.5 17q20 14 34 24.5t25 17.5q2 1 2.5 2t2.5 2
q10 -65 89 -86zM246 545q-21 8 -44.5 19t-50.5 28q-60 38 -89 69q-20 -55 -52 -91q24 -9 49.5 -21.5t50.5 -28.5q29 -18 51.5 -34.5t37.5 -33.5q20 53 49 86z" />
    <glyph glyph-name="uacute" unicode="&#xfa;" horiz-adv-x="463" 
d="M456 46l-4 7q-15 -6 -23 -6l-2 -1h-2q-48 0 -48 52v197q50 15 50 75h-7l-1 -1h-2l-1 -1h-2l-1 -1l-2 -2q-6 -2 -15 -2q-21 0 -73 54q-76 -76 -108 -86l19 -28l20 9q7 -8 11 -11l3 -1l2 -1h1l2 -213l-6 -3q-3 -3 -6 -3q-8 -6 -12 -10t-8 -6v1q-2 -1 -2.5 -2t-2.5 -2l-2 -1
l-2 -2q-4 3 -10.5 7.5t-15.5 10.5q-2 1 1 0t4 -1q-25 7 -31 12v247q0 56 -68 91l-97 -100v-8h9q2 0 4 -1q5 -2 12 -3t12 -3l-1 1q16 -7 21 -21v-216q-35 -18 -44 -69q13 10 33 10q43 0 105 -59q14 14 24.5 24t19.5 17q20 14 34 24.5t25 17.5q2 1 2.5 2t2.5 2q10 -65 89 -86z
M417 575q-14 17 -26.5 38.5t-21.5 47.5q-14 -16 -37 -33t-52 -36q-26 -16 -51 -27.5t-49 -21.5q32 -38 52 -91q15 17 37.5 33.5t51.5 34.5q50 31 95 48z" />
    <glyph glyph-name="ucircumflex" unicode="&#xfb;" horiz-adv-x="463" 
d="M456 46l-4 7q-15 -6 -23 -6l-2 -1h-2q-48 0 -48 52v197q50 13 50 75h-7l-1 -1h-2l-1 -1h-2l-1 -1l-1 -1q-5 -3 -16 -3q-21 0 -73 54q-76 -76 -108 -86l19 -28l20 9q7 -8 11 -11l3 -1l2 -1h1l2 -213l-6 -3q-3 -3 -6 -3q-8 -6 -12 -10t-8 -6v1q-2 -1 -2.5 -2t-2.5 -2l-2 -1
l-2 -2q-4 3 -10.5 7.5t-15.5 10.5q-2 1 1 0t4 -1q-25 7 -31 12v247q0 56 -68 91l-97 -100v-8h9q2 0 4 -1q5 -2 12 -3t12 -3l-1 1q16 -9 21 -21v-216q-35 -18 -44 -69q13 10 33 10q43 0 105 -59q14 14 24.5 24t19.5 17q20 14 34 24.5t25 17.5q2 1 2.5 2t2.5 2q10 -65 89 -86z
M361 523q-22 17 -56 50t-81 83q-91 -97 -141 -136q11 -12 25.5 -28t30.5 -36q22 26 43 46.5t42 36.5q20 -16 41 -36.5t43 -46.5q17 20 30.5 35t23.5 26z" />
    <glyph glyph-name="udieresis" unicode="&#xfc;" horiz-adv-x="463" 
d="M456 46l-4 7q-15 -6 -23 -6l-2 -1h-2q-48 0 -48 52v196q50 15 50 76h-7l-1 -1h-2l-1 -1h-2l-1 -1l-1 -1q-5 -3 -16 -3q-22 0 -73 54q-76 -76 -108 -86l19 -29l20 10q4 -5 6.5 -7.5l4.5 -4.5l3 -1l2 -1h1l2 -212l-6 -3q-3 -3 -6 -3q-8 -6 -12 -10t-8 -6v1q-2 -1 -2.5 -2
t-2.5 -2l-2 -1l-2 -2q-4 3 -10.5 7.5t-15.5 10.5q-2 1 1 0t4 -1q-25 7 -31 12v247q0 56 -68 91l-97 -100v-8h9q2 0 4 -1q5 -2 12 -3t12 -3l-1 1q16 -9 21 -22v-215q-35 -18 -44 -69q13 10 33 10q42 0 105 -58q14 14 24.5 23.5t19.5 16.5q20 14 34 24.5t25 17.5q2 1 2.5 1.5
t2.5 1.5q11 -65 89 -84zM393 541q-20 17 -39.5 37t-39.5 43q-20 -24 -40.5 -45t-40.5 -38q21 -19 41.5 -39.5t39.5 -42.5q18 21 37.5 41t41.5 39v5zM195 541q-19 17 -38.5 37t-39.5 43q-20 -23 -40 -44t-41 -39q23 -19 43 -39.5t38 -42.5q18 21 38 41t40 39v5z" />
    <glyph glyph-name="yacute" unicode="&#xfd;" horiz-adv-x="430" 
d="M423 369v15q-14 -11 -31 -11l-1 -1h-2q-37 0 -68 42l-150 -101v40l-1 1v6l-1 2q0 10 -17 33q-7 9 -15 16t-15 12l-107 -85v-7q48 -5 48 -28v-261q0 -24 24 -46q16 -16 36 -25q-50 -26 -51 -75h-1v-5q0 -17 7.5 -31.5t19.5 -25.5t28 -17.5t33 -6.5q11 0 18 0.5t12 1.5
q9 2 25.5 10t39.5 22q39 24 62 24h1l2 -1q13 0 13 -10q0 -6 -8 -11t-14 -5h-3l-2 -1h-1q-15 0 -31 9v-33q8 -8 36 -8q31 0 52.5 19t21.5 47q0 34 -25 55.5t-60 21.5q-19 0 -41.5 -6.5t-48.5 -20.5q-52 -29 -61 -29q-19 0 -19 15q0 39 106 47q8 1 9 1h6q17 0 41 6
q87 20 87 72v268q15 6 29 24.5t15 32.5l1 1v5zM227 -2l-2 -1h-6q-1 0 -1.5 0.5t-1.5 0.5q-2 0 -3 0.5t-2 0.5h-4q-35 7 -35 27v240l61 43l17 -8q5 -2 9 -4t8 -3v-274q0 -11 -13 -16.5t-27 -5.5zM417 577q-30 31 -48 86q-15 -17 -37.5 -34t-51.5 -36q-52 -30 -101 -49
q34 -38 52 -91q31 33 90 68q25 16 48.5 28t46.5 21z" />
    <glyph glyph-name="ydieresis" unicode="&#xff;" horiz-adv-x="430" 
d="M423 368v16q-14 -11 -31 -11l-1 -1h-2q-37 0 -68 42l-150 -101v40l-1 1v5l-1 2q0 11 -17 34q-7 9 -15 16t-15 12l-107 -85v-7q48 -5 48 -28v-261q0 -24 24 -46q16 -16 36 -25q-50 -26 -51 -75h-1v-5q0 -17 7.5 -31.5t19.5 -25.5t28 -17.5t33 -6.5q11 0 18 0.5t12 1.5
q9 2 25.5 10t39.5 23q20 11 34.5 17t27.5 6h1l2 -1q13 0 13 -10q0 -6 -8 -10.5t-14 -4.5h-3l-2 -1h-1q-13 0 -31 8v-33q8 -8 36 -8q31 0 52.5 19t21.5 47q0 34 -25 55.5t-60 21.5q-19 0 -41.5 -6.5t-48.5 -20.5q-52 -29 -61 -29q-19 0 -19 15q0 39 106 47q8 1 9 1h6
q17 0 41 6q87 20 87 72v268q7 3 15 9.5t14 14.5t10.5 16.5t4.5 15.5l1 1v5zM227 -2l-2 -1h-6q-1 0 -1.5 0.5t-1.5 0.5q-2 0 -3 0.5t-2 0.5h-4q-35 7 -35 27v240l61 43l17 -8q5 -2 9 -4t8 -3v-274q0 -11 -13 -16.5t-27 -5.5zM392 543q-20 17 -39.5 37t-38.5 43
q-21 -25 -41.5 -45.5t-40.5 -37.5q22 -20 42 -40.5t40 -42.5q17 21 37 41t41 39v6zM195 543q-19 16 -38.5 36t-39.5 44q-20 -24 -40 -45t-41 -38q44 -38 81 -83q18 21 38 41t40 39v6z" />
    <glyph glyph-name="Scaron" unicode="&#x160;" horiz-adv-x="634" 
d="M628 306q0 86 -109 115q-31 10 -56 10q-44 1 -66 3q37 53 72 86q7 7 13 12t11 10l18 18h-1q7 4 13 13l-25 23l-28 -23q-45 28 -95 42q-15 3 -24 5t-14 2h-2q-15 0 -16 1h-20q-1 -1 -14 -1q-3 -1 -6 -1q-16 -1 -33 -5t-36 -12q-121 -52 -121 -161q0 -31 11 -53
q28 -63 181 -63h4l-7 -16h-2l-1 -1q-76 0 -118 11q-67 19 -82 78q-34 -33 -34 -80q0 -29 10 -48q18 -33 73 -50q42 -12 88 -12h12l2 1h3v-2q-6 -8 -6 -11q-4 -5 -6 -9t-4 -6q-6 -8 -13 -14t-12 -11q-8 50 -63 50h-3l-1 -1q-5 0 -8 -1.5t-8 -3.5q-32 -18 -32 -46l-1 -1
q0 -43 51 -59q8 -2 12 -2q68 0 128 92q5 9 8.5 14.5t5.5 9.5h4q3 0 7 1h52q114 0 114 -44l-1 -2q0 -6 -3 -13q-1 -2 -1.5 -4.5t-1.5 -4.5l1 1l-10 -14q49 16 66 62q7 19 9 27q0 2 0.5 3t0.5 3q1 11 3 13q-4 39 -29 54q-30 21 -108 21h-6q-1 -1 -31 -1q-1 -1 -6 -1h-10l8 17
h5t8 1h65q82 0 110 -41q17 -23 17 -40q0 -40 -35 -90q-6 -10 -21.5 -29t-40.5 -50q-65 22 -83 23q-13 2 -23 3t-18 2q-5 1 -8 1.5t-7 0.5q-21 -2 -39 -3q-32 -2 -63 -9q-61 -16 -109 -46q-60 -38 -82 -97q61 40 138 54q33 6 37 6q89 0 225 -56l3.5 7l5.5 11q1 2 1 4q0 1 2 6
q19 24 34.5 44t25.5 31q11 15 21.5 28t20.5 24q20 22 34 40q45 56 60 100q9 25 9 54zM464 808q-11 11 -24.5 26t-29.5 35q-23 -26 -44 -46.5t-41 -37.5q-21 17 -42.5 37.5t-42.5 46.5q-17 -20 -31.5 -36t-25.5 -28q50 -39 142 -137q95 101 138 134zM368 465q-16 -21 -23 -32
h-13q-4 -1 -8 -1h-6h-44q-19 0 -47 6q-70 14 -70 64q6 47 69 62q5 1 8 1q4 0 7 1l8 2h4q19 0 39 -6t37.5 -17t32 -26t23.5 -32v-1q-5 -7 -11 -15t-6 -6zM369 468h1q-2 -2 -2 -3q0 1 1 3zM447 141v1v-1zM422 -16l1 1z" />
    <glyph glyph-name="scaron" unicode="&#x161;" horiz-adv-x="399" 
d="M388 413l-27 -2q-18 -28 -47 -28t-60 36q-34 -34 -40 -37q-42 -24 -89 -24q-9 0 -10 1q-28 0 -35 4q-11 0 -21 10v-10q0 -4 2 -6v-1l3 -7q0 -4 1 -5v1q0 -1 0.5 -1.5t0.5 -1.5l1 -175l-1 -2q0 -13 -9 -26l1 3l-7 -7l66 -3q-6 -5 -10.5 -10t-7.5 -8l-4 -4
q-66 -82 -82 -152h29q18 45 64 45q11 0 17 -3q9 0 16 -3.5t15 -10.5l29 -30q48 53 125 53h6q3 -1 18 -1q5 -3 13 -3.5t20 -0.5q2 0 3 -1h-1q2 -1 13 -1l-4 8l-6 10t-1 3l1 -2l-1 5q0 1 -1 2v-1l-1 3v3q-1 1 -1 3v171q0 -1 1 3.5t2 6.5l0.5 1t0.5 3l1 2v2l2 2v2l1 1q0 3 1 5
q0 1 0.5 4t0.5 4l-94 -2q84 87 110 167zM363 596q-10 11 -23.5 26t-30.5 35q-23 -26 -43.5 -47t-40.5 -37q-39 32 -85 84q-17 -19 -30.5 -35.5t-26.5 -28.5q51 -37 142 -136q92 100 137 133zM262 43h-4q-5 -2 -7.5 -2.5l-2.5 -0.5l-4 -2q-38 45 -89 45q-5 0 -14 -1.5
l-21 -3.5q13 14 22 24.5t16 17.5l52 52h51l2 -2v-127h-1zM246 256q-23 -23 -37.5 -36.5t-22.5 -18.5h-11v126q5 0 11 3h4q1 1 4 2q35 -29 66 -29q9 0 18 1t18 5q-17 -17 -50 -53z" />
    <glyph glyph-name="Ydieresis" unicode="&#x178;" horiz-adv-x="531" 
d="M524 562v9h-7l-2 -2q-2 0 -2.5 -0.5t-1.5 -0.5h1q-5 -2 -12.5 -4.5t-9.5 -2.5q-40 0 -93 79v-12q-37 -32 -64.5 -52.5t-45.5 -30.5v83h-36v-111q-13 -12 -22 -17q-2 -1 -2.5 -1.5t-2.5 -1.5q-2 131 -100 131q-40 0 -76 -33q-33 -31 -33 -74q0 -27 20 -48q0 20 14 37.5
t31 17.5h4l1 -1h1q9 -6 16 -10.5t10 -9.5v-131q-13 -2 -23 -4t-16 -4q-45 -19 -45 -77q0 -54 35 -64v9l1 2q0 20 28 27q14 -6 20 -14v-169q0 -45 34 -76q11 -11 26.5 -18.5t33.5 -12.5q-66 -26 -66 -86q0 -36 29 -63q14 -13 31 -18.5t34 -6.5l2 -1h4q45 0 93 39h2l3 3h-1
q49 36 78 36q7 0 12.5 -6t5.5 -13q0 -13 -10.5 -20t-23.5 -7t-39 8v-31q22 -8 40 -8h3l2 1q30 1 54.5 21.5t24.5 50.5q0 55 -56 76q-11 2 -17.5 3.5t-11.5 3.5q-1 0 -1.5 0.5t-1.5 0.5h-4q-47 0 -102 -32q-9 -6 -14.5 -9.5t-7.5 -5.5h1h-1v-1v1q-1 -1 -2 -1l-1 -1h1
q-5 -2 -8 -4t-5 -3q-26 -8 -28 -8q-20 0 -20 16q0 57 153 57q8 2 13 2l21 7t16 5q2 1 5.5 1.5t2.5 0.5q78 36 78 96v428q27 15 28 40q0 2 1 3v9zM386 49q0 -9 -6 -18q-10 -17 -44 -25q-9 -2 -15 -3h1q-2 0 -3.5 -0.5t-3.5 -0.5h-14q-5 2 -8 2t-6 1v179q10 2 18 3.5t15 3.5
q2 1 4 1t4 1q20 -3 34.5 -5t22.5 -3h1v-136zM467 753q-20 17 -39.5 37t-39.5 44q-19 -23 -39.5 -44t-43.5 -40q25 -21 45.5 -41.5t37.5 -40.5q37 42 79 79v6zM354 377h-10v1q-50 0 -57 6v112q29 14 41 31q17 -15 31.5 -22t23.5 -7h3v-113q-13 -8 -32 -8zM269 753
q-20 17 -39.5 37.5t-38.5 43.5q-43 -51 -82 -84q43 -39 82 -82q18 21 37.5 40.5t40.5 38.5v6zM358 224q-15 3 -27 3h-3q-8 -2 -23 -3l-5 -1t-8 -2t-4 -1h-1v124q18 -5 37 -5h22q11 0 21.5 1t18.5 6v-126q-6 0 -13.5 1t-14.5 3zM226 41v-1l-1 413q13 7 18 12q3 0 8 5v-461
q-19 9 -25 32zM113 249l-1 2q0 -2 1 -2z" />
    <glyph glyph-name="florin" unicode="&#x192;" horiz-adv-x="383" 
d="M329 525l90 84q-23 29 -52.5 49.5t-64.5 30.5l-158 -125l-18 -173h-48l-59 -77h98l-41 -377q-22 6 -40 17t-32 29l-81 -99q31 -24 61 -36.5t60 -15.5l156 149l34 333h77l56 77h-124l21 192q34 -17 59 -57z" />
    <glyph glyph-name="circumflex" unicode="&#x2c6;" horiz-adv-x="358" 
d="M319 508q-22 17 -56 49t-80 80q-47 -48 -81.5 -81t-58.5 -51q11 -12 25.5 -27.5t30.5 -35.5q42 51 84 81q40 -31 83 -81q33 39 54 60z" />
    <glyph glyph-name="tilde" unicode="&#x2dc;" horiz-adv-x="358" 
d="M295 455q4 23 11 46t19 48q-54 -24 -73 -24q-10 0 -25 2.5t-37 8.5q-41 12 -69 12q-26 0 -60 -12q-2 -27 -7 -51.5t-13 -45.5q37 25 68 25q11 0 25 -2.5t31 -9.5q38 -11 64 -11q37 0 64 11z" />
    <glyph glyph-name="emdash" unicode="&#x2014;" horiz-adv-x="856" 
d="M184 155h451q53 0 96 -1t75 -3q5 20 13 43t21 49q-81 -9 -161 -9h-450q-54 0 -97 1.5t-75 3.5q-5 -21 -12.5 -44t-20.5 -48q41 4 81 6t79 2z" />
    <glyph glyph-name="quoteleft" unicode="&#x2018;" horiz-adv-x="227" 
d="M189 504q-48 19 -48 54q0 21 33 49l-12 13q-115 -45 -115 -117q0 -43 63 -85q17 20 36.5 40t42.5 39v7z" />
    <glyph glyph-name="quoteright" unicode="&#x2019;" horiz-adv-x="227" 
d="M192 536q0 41 -61 84q-35 -42 -86 -83q54 -24 54 -56q0 -25 -32 -48l11 -15q114 46 114 118z" />
    <glyph glyph-name="quotesinglbase" unicode="&#x201a;" horiz-adv-x="227" 
d="M192 32q0 41 -61 84q-17 -21 -38.5 -41.5t-47.5 -41.5q54 -24 54 -55q0 -25 -32 -48l11 -15q114 46 114 117z" />
    <glyph glyph-name="quotedblleft" unicode="&#x201c;" horiz-adv-x="406" 
d="M374 504q-51 21 -51 54q0 21 34 49l-12 13q-119 -45 -119 -117q0 -43 65 -85q36 42 83 79v7zM196 504q-50 20 -50 54q0 22 35 49l-13 13q-118 -45 -118 -117q0 -44 63 -85q18 20 38.5 40t44.5 39v7z" />
    <glyph glyph-name="quotedblright" unicode="&#x201d;" horiz-adv-x="406" 
d="M376 536q0 42 -65 84q-17 -21 -38.5 -42t-49.5 -41q56 -24 56 -56q0 -24 -34 -49l13 -14q118 45 118 118zM198 536q0 42 -63 84q-36 -42 -89 -83q56 -24 56 -56q0 -25 -33 -48l11 -15q118 45 118 118z" />
    <glyph glyph-name="quotedblbase" unicode="&#x201e;" horiz-adv-x="406" 
d="M376 32q0 42 -65 84q-32 -40 -88 -83q56 -24 56 -55q0 -24 -34 -49l13 -14q118 45 118 117zM198 32q0 42 -63 84q-18 -21 -40.5 -41.5t-48.5 -41.5q56 -24 56 -55q0 -25 -33 -48l11 -15q118 45 118 117z" />
    <glyph glyph-name="dagger" unicode="&#x2020;" horiz-adv-x="381" 
d="M337 406l59 81h-142q0 63 1.5 117.5t4.5 94.5l-132 -76q3 -17 5 -51t3 -85h-84l-57 -81h141v-223q0 -75 -2.5 -133t-7.5 -100l136 76q-3 7 -4 12t-1 7q-3 58 -3 153v208h83z" />
    <glyph glyph-name="bullet" unicode="&#x2022;" horiz-adv-x="489" 
d="M248 530q-74 0 -126 -52t-52 -126t52 -126t126 -52t127 52q51 51 51 126q0 74 -52 126q-53 52 -126 52z" />
    <glyph glyph-name="ellipsis" unicode="&#x2026;" horiz-adv-x="520" 
d="M516 32l-78 78l-80 -78l80 -74zM343 32l-78 78l-80 -78l80 -74zM169 32l-77 78l-80 -78l80 -74z" />
    <glyph glyph-name="perthousand" unicode="&#x2030;" horiz-adv-x="858" 
d="M260 529v11h-7l-1 -1h-2l-1 -1h-2q-2 0 -3.5 -0.5t-2.5 -0.5q-2 -1 -4 -1l-2 -1h-1q-19 0 -50 36q-41 -41 -114 -41h-4l-3 1q-8 0 -14 2l-1 1h-2l-9 9v-12l-1 -1v-3q0 -15 9 -21v-215q-10 -5 -20 -17.5t-10 -20.5v-8h7l1 1q3 0 4 1l2 1h8l1 1h2l2 -1h3l9 -3l9 -3
q20 -10 32 -22q30 25 60 29l27 4h8q35 0 52 -9v11l-1 2v5l-1 1q-2 4 -5 13l-2 2v218q10 2 18.5 12t8.5 21zM851 274v12h-7l-2 -2h-3l-2 -2h-1q-8 -2 -12 -2h-3l-1 1q-12 2 -23 13q-1 1 -2 2.5t-3 3.5v-1q-5 6 -8 10t-8 9q-43 -43 -112 -43h-3l-2 1q-9 0 -10 1h-2l-2 1h-5
l-1 1h-2l-9 9v-12l-1 -1v-3q0 -12 8 -18v-217q-1 0 -1.5 -0.5l-0.5 -0.5h1q-8 -7 -13 -10l-5 -3q-4 -7 -7 -12t-4 -7q0 -7 4 -11l5 2h-1q5 2 7 2t5 1v1h4q8 0 26 -6q8 -6 16.5 -11.5t13.5 -9.5q2 -1 1.5 -1.5t1.5 -1.5q5 5 14 10.5t18.5 10t19 7.5t15.5 3h42q8 0 17 -2
t19 -5v11l-1 1v2l-1 2q0 4 -1 6l-2 2l-4 9v216q10 2 18.5 12t8.5 20zM602 274v12h-7l-2 -2h-3l-2 -2h-1q-8 -2 -12 -2h-2l-1 1q-12 2 -23 13q-1 1 -2 2.5t-3 3.5v-1q-5 6 -8.5 10t-8.5 9q-43 -43 -112 -43h-3l-2 1q-9 0 -10 1h-2l-2 1h-5l-1 1h-2l-9 9v-12l-1 -1v-3
q0 -12 8 -18v-217q-1 0 -1.5 -0.5l-0.5 -0.5h1q-8 -7 -13 -10l-5 -3q-3 -7 -6 -12t-4 -7q0 -7 4 -11l5 2h-1q5 2 6 2q2 0 5 1v1h4q8 0 26 -6q8 -6 17 -11.5t14 -9.5q2 -1 1.5 -1.5t1.5 -1.5q5 5 13.5 10.5t18.5 10t19 7.5t15 3h43q8 0 17 -2t18 -5v11l-1 1v2l-1 2q0 4 -1 6
l-2 2l-4 9v216q10 2 18.5 12t8.5 20zM611 569l-117 -14v-9l1 -1v-3h1l1 -1q-1 -5 -17 -21l-359 -451q-14 -17 -37.5 -39.5t-55.5 -49.5l120 20q-9 7 -10 8q2 15 30 51v-1l334 413q17 20 37.5 39.5t46.5 39.5v-1l2 1q6 6 9.5 8t5.5 4zM166 275h-8l-1 -1h-4l-1 -1
q-15 9 -26 15.5t-19 10.5v211q4 0 6 1q3 0 5.5 0.5t4.5 0.5l2 1h5h1q4 -4 15 -11q14 -10 21 -10v-216zM758 22h-5l-1 -1h-4l-1 -1h-3q-5 2 -8 4t-1 0q-14 8 -23 13t-14 8v211q1 0 2 0.5t3 0.5q3 1 6 1h6l1 1h2l1 1h2q21 -21 38 -21v-216zM509 22h-5l-1 -1h-4l-1 -1h-3
q-5 2 -8 4t-1 0q-13 8 -22 13t-14 8v211q1 0 2 0.5t3 0.5q3 1 6 1h6l1 1h2v1h2q21 -21 38 -21v-216z" />
    <glyph glyph-name="guilsinglleft" unicode="&#x2039;" horiz-adv-x="231" 
d="M169 40q12 0 26 -1t30 -3q-13 12 -24.5 24t-19.5 24l-82 111l82 111q11 16 21.5 27.5t20.5 19.5h-16q-11 -1 -20.5 -1.5t-17.5 -0.5q-11 0 -23.5 0.5t-23.5 1.5q-1 -8 -5 -15.5t-9 -16.5l-74 -102v1q-8 -9 -14.5 -15.5t-8.5 -9.5q7 -5 12.5 -11t10.5 -12l74 -103
q13 -17 14 -33q14 2 26 3t21 1z" />
    <glyph glyph-name="guilsinglright" unicode="&#x203a;" horiz-adv-x="231" 
d="M69 40q10 0 21.5 -1t25.5 -3q3 16 16 33l73 103v-1q17 21 22 24q-7 5 -12 11t-10 13l-73 102q-14 19 -16 32q-11 -1 -23 -1.5t-24 -0.5q-8 0 -17 0.5t-20 1.5h-17q23 -18 43 -47l81 -111l-81 -111q-18 -24 -45 -48q17 2 31 3t25 1z" />
    <glyph glyph-name="trademark" unicode="&#x2122;" horiz-adv-x="946" 
d="M749 311h52v376h-62l-116 -290l-115 290h-63v-376h52v260l103 -260h46l103 260v-260zM400 635v52h-311v-52h129v-324h53v324h129z" />
    <glyph glyph-name="minus" unicode="&#xe000;" horiz-adv-x="584" 
d="M42 186h507v48h-507v-48z" />
    <glyph glyph-name="longs" unicode="&#xe001;" horiz-adv-x="321" 
d="M169 392l-1 118l1 1h-1q7 1 10 4l2 1l1 2q21 -22 63 -22q9 0 11 1q25 1 49 20.5t32 45.5h-13l-2 -1h2q-34 0 -66 34q-8 9 -12.5 13.5l-6.5 6.5q-77 -93 -161 -93h-10t-10 2v-10l1 -2q2 -5 3 -9t2 -6v1l1 -100h-1q-9 0 -10 1q-13 0 -14 1q-14 0 -21 3v-18l1 -2v-6l1 -3
v-26q-1 -5 -1 -21h7l2 1q27 0 36 3v-256q-40 -18 -52 -65q6 2 11.5 3t10.5 1l2 1h2q56 0 124 -59l107 103l-21 20l-22 -23q-10 7 -17 11t-9 6q-8 0 -16 5q-10 0 -16 3z" />
    <glyph glyph-name="DST" unicode="&#xe002;" horiz-adv-x="1428" 
d="M1420 -37v837h-1404v-837h1404zM429 50q-31 0 -49.5 20t-18.5 52q0 61 -0.5 103t-1.5 65q-1 10 -88 94l-94 92q-15 15 -30 15q-12 0 -21 -8q-8 -26 -8 -33v-307q0 -47 39 -47h83q5 2 11.5 7.5t11.5 13.5h47q-15 -64 -71 -64h-82q-83 0 -83 92v326q0 30 23 48q22 16 54 16
q31 0 49 -18l178 -175q30 -30 30 -72v-149q0 -25 23 -25q7 0 14 8.5t7 16.5l-2 671h48l-1 -673q0 -29 -20 -49t-48 -20zM1002 139q0 -38 -22 -61t-59 -23h-281q-28 0 -46.5 18.5t-18.5 47.5t16.5 48.5t43.5 19.5h274v-44h-265q-24 0 -24 -22q0 -25 26 -25h249q65 0 65 49v75
q0 48 -49 48h-249q-39 0 -63 24t-24 64v88q0 43 25 70t68 27h245q68 0 83 -68h-42q-20 21 -45 21h-243q-45 0 -45 -46v-94q0 -41 45 -41h245q42 0 66.5 -22.5t24.5 -60.5v-93zM1387 561q0 -28 -20.5 -47.5t-48.5 -19.5h-145q-38 0 -38 -48v-299q0 -31 18 -44v-49
q-63 18 -63 81v319q0 91 110 91q16 0 48 -3q5 0 9 -0.5t8 -0.5q10 -1 18 -1h14q43 0 43 25q0 22 -44 22h-14t-19 -1q-4 0 -7.5 -0.5t-7.5 -0.5q-5 0 -8.5 -0.5t-7.5 -0.5q-10 -1 -18 -1h-13q-111 0 -111 84v125h49v-125q0 -39 40 -39h147q26 0 43.5 -19.5t17.5 -47.5z" />
  </font>
</defs>
</svg>
