<?xml version="1.0" standalone="no"?>
<!DOCTYPE svg PUBLIC "-//W3C//DTD SVG 1.1//EN" "http://www.w3.org/Graphics/SVG/1.1/DTD/svg11.dtd" >
<svg xmlns="http://www.w3.org/2000/svg" xmlns:xlink="http://www.w3.org/1999/xlink" version="1.1">
<metadata>
Created by FontForge 20170731 at Wed Nov 17 07:20:19 2004
 By Aleksey,,,
4.1 (c)1986-92 by Richard A. Ware. All Rights Reserved.
</metadata>
<defs>
<font id="GatsbyFLF-Italic" horiz-adv-x="335" >
  <font-face 
    font-family="GatsbyFLF"
    font-weight="500"
    font-style="italic"
    font-stretch="normal"
    units-per-em="1000"
    panose-1="2 0 6 6 2 0 0 9 0 3"
    ascent="800"
    descent="-200"
    x-height="325"
    cap-height="595"
    bbox="-79 -332 974 755"
    underline-thickness="10"
    underline-position="-148"
    slope="-12"
    unicode-range="U+0005-E00A"
  />
<missing-glyph horiz-adv-x="500" 
 />
    <glyph glyph-name=".notdef" horiz-adv-x="500" 
 />
    <glyph glyph-name=".null" horiz-adv-x="0" 
 />
    <glyph glyph-name="nonmarkingreturn" unicode="&#xe002;" horiz-adv-x="0" 
 />
    <glyph glyph-name="breve" horiz-adv-x="300" 
d="M91 416l-8 -9q33 -24 79 -24q23 0 45.5 6t43.5 19l-6 9q-38 -22 -82 -22q-19 0 -37 5t-35 16z" />
    <glyph glyph-name="dotaccent" horiz-adv-x="170" 
d="M112 414q0 5 -1.5 9.5t-7.5 4.5q-8 0 -12 -10.5t-4 -18.5q0 -6 2 -10.5t8 -4.5q8 0 11.5 10.5t3.5 19.5z" />
    <glyph glyph-name="ring" horiz-adv-x="210" 
d="M69 422q0 -17 10.5 -29.5t33.5 -12.5q27 0 41.5 17.5t14.5 37.5q0 17 -10.5 29.5t-33.5 12.5q-27 0 -41.5 -17.5t-14.5 -37.5zM78 422q0 17 12 32t34 15q18 0 27 -10t9 -24q0 -17 -12.5 -32t-34.5 -15q-18 0 -26.5 10t-8.5 24z" />
    <glyph glyph-name="hungarumlaut" unicode="&#xa;" horiz-adv-x="198" 
d="M123 502q-1 -5 -9.5 -21t-19 -35t-21 -37t-16.5 -28q-4 -6 0 -8t8 4q6 10 16.5 28.5l21 37t20 34t14.5 19.5q7 6 6.5 11t-4.5 7t-9 -0.5t-7 -11.5zM168 502q-1 -5 -9.5 -21t-19 -35t-21 -37t-16.5 -28q-4 -6 0 -8t8 4q6 10 16 28.5t21 37t20.5 34t14.5 19.5q7 6 6.5 11
t-4.5 7t-9 -0.5t-7 -11.5z" />
    <glyph glyph-name="ogonek" horiz-adv-x="110" 
d="M42 -79q0 25 7.5 48.5t15.5 42.5h-12q-9 -19 -16.5 -42.5t-7.5 -49.5q0 -34 17 -64l11 6q-8 14 -11.5 29t-3.5 30z" />
    <glyph glyph-name="caron" horiz-adv-x="250" 
d="M135 393l-84 46l-6 -8l89 -50l109 49l-5 9z" />
    <glyph glyph-name="dotlessi" unicode="&#xd;" horiz-adv-x="133" 
d="M69 0h10l69 325h-10z" />
    <glyph glyph-name="fraction" horiz-adv-x="440" 
d="M-25 -70l10 -2l578 700l-9 2z" />
    <glyph glyph-name="fi" horiz-adv-x="210" 
d="M98 319h25l-68 -319h10l68 319h80l2 10h-80l44 206q8 38 33 61t67 23l2 10q-48 -1 -75.5 -26.5t-36.5 -67.5l-44 -206h-25zM176 0h10l70 329h-10zM275 403q1 7 -0.5 14t-8.5 7t-10.5 -6.5t-4.5 -14.5t0.5 -15.5t8.5 -7.5t10.5 7.5t4.5 15.5z" />
    <glyph glyph-name="fl" horiz-adv-x="211" 
d="M98 319h25l-68 -319h10l68 319h80l2 10h-80l44 206q3 15 10 30t19 27t29.5 19.5t41.5 7.5l2 10q-28 0 -48 -8.5t-33 -22t-20.5 -30.5t-10.5 -33l-44 -206h-25zM176 0h10l134 629h-10z" />
    <glyph glyph-name="Lslash" horiz-adv-x="301" 
d="M115 311l-43 -43l-3 -16l42 42l-62 -294h224l2 10h-214l62 294l51 51l3 16l-50 -50l58 274h-10z" />
    <glyph glyph-name="lslash" horiz-adv-x="130" 
d="M129 315l-47 -47l-3 -16l46 46l-4.5 -22t-11.5 -55t-15 -71.5t-15.5 -72t-12 -55.5l-4.5 -22h10l65 308l47 47l3 16l-46 -46l65 304h-10z" />
    <glyph glyph-name="Zcaron" 
d="M426 595h-251l-2 -10h235l-385 -585h286l2 10h-269zM297 642l-84 47l-6 -8l89 -50l109 49l-5 8z" />
    <glyph glyph-name="zcaron" horiz-adv-x="307" 
d="M117 325l-2 -10h201l-293 -315h259l2 10h-238l293 315h-222zM230 393l-84 46l-6 -8l89 -50l109 49l-5 9z" />
    <glyph glyph-name="space" unicode=" " horiz-adv-x="280" 
 />
    <glyph glyph-name="exclam" unicode="!" horiz-adv-x="90" 
d="M59 90h12l107 505h-12zM62 29q0 5 -1.5 9.5t-7.5 4.5q-8 0 -12 -10.5t-4 -18.5q0 -6 2 -10.5t8 -4.5q8 0 11.5 10.5t3.5 19.5z" />
    <glyph glyph-name="quotedbl" unicode="&#x22;" horiz-adv-x="123" 
d="M178 609h-10l-25 -122h10zM217 609h-10l-25 -122h10z" />
    <glyph glyph-name="numbersign" unicode="#" horiz-adv-x="310" 
d="M230 423l27 62h-10l-27 -62h-66l-4 -10h66l-25 -56h-61l-4 -10h60l-27 -62h10l28 62h60l-28 -62h10l28 62h62l4 10h-62l25 56h60l4 10h-60l27 62h-10l-27 -62h-60zM201 357l25 56h60l-25 -56h-60z" />
    <glyph glyph-name="dollar" unicode="$" horiz-adv-x="390" 
d="M442 505q-5 33 -26 57.5t-57 33.5l7 36h-10l-7 -35q-8 1 -15.5 1.5t-15.5 0.5h-10t-10 -1l7 34h-10l-7 -36q-32 -4 -56 -16t-40 -30t-24 -40.5t-8 -46.5q0 -39 24 -66t53 -41l-75 -352q-50 13 -74 41t-28 76l-10 -2q6 -101 110 -125l-10 -47h10l9 45q7 -2 14 -2h15h11
q6 0 11 1l-9 -44h10l9 45q44 5 77 24t54.5 46t32.5 58.5t11 60.5q0 33 -9 58.5t-23.5 44.5t-32.5 32.5t-36 22.5l53 248q62 -16 76 -84zM320 590h13q7 0 14 -2l-52 -245q-13 5 -24.5 9.5t-22.5 9.5l48 227q7 1 12 1h12zM170 463q0 44 28 79t88 45l-47 -221q-12 6 -24 15
t-22 21.5t-16.5 27.5t-6.5 33zM200 0h-14t-15 2l75 350q11 -5 22.5 -9.5t23.5 -9.5l-70 -332q-5 -1 -11 -1h-11zM395 181q0 -30 -10.5 -60t-31 -55t-51 -42.5t-70.5 -21.5l70 327q15 -8 31.5 -20t30 -30t22.5 -42.5t9 -55.5z" />
    <glyph glyph-name="percent" unicode="%" horiz-adv-x="568" 
d="M108 112l8 -9l490 399l-5 9zM411 473q0 25 -7 47.5t-22.5 39.5t-40 27.5t-58.5 10.5q-33 0 -61.5 -14t-49.5 -37.5t-32.5 -53t-11.5 -59.5q0 -26 7 -49t22.5 -40.5t39.5 -27.5t58 -10t62.5 14.5t49.5 37.5t32.5 53t11.5 61zM401 471q0 -26 -11 -53.5t-30.5 -50t-46 -36.5
t-56.5 -14q-32 0 -54.5 9.5t-37 26t-21 38t-6.5 45.5q0 26 11 53t30 49t45.5 36t56.5 14q33 0 55.5 -9.5t37 -25.5t21 -37.5t6.5 -44.5zM574 167q0 25 -7 47.5t-22.5 39.5t-40 27.5t-58.5 10.5q-33 0 -61.5 -14t-49.5 -37.5t-32.5 -53t-11.5 -59.5q0 -26 7 -49t22.5 -40.5
t39.5 -27.5t58 -10t62.5 14.5t49.5 37.5t32.5 53t11.5 61zM564 165q0 -26 -11 -53.5t-30.5 -50t-46 -36.5t-56.5 -14q-32 0 -54.5 9.5t-37 26t-21 38t-6.5 45.5q0 26 11 53t30 49t45.5 36t56.5 14q33 0 55.5 -9.5t37 -25.5t21 -37.5t6.5 -44.5z" />
    <glyph glyph-name="ampersand" unicode="&#x26;" horiz-adv-x="476" 
d="M293 206l2 -9l137 55q2 -8 4 -19t2 -22q0 -34 -11 -70.5t-36 -66.5t-64.5 -49.5t-96.5 -19.5q-40 0 -70 14.5t-50 37.5t-30 51.5t-10 55.5q0 44 17.5 79.5t46.5 61.5t66 41t76 18l2 10q-38 6 -56 32.5t-18 56.5q0 23 10 45.5t27 40.5t39.5 29.5t48.5 11.5
q41 0 61.5 -15.5t30.5 -40.5l9 3q-10 26 -32.5 44.5t-65.5 18.5q-29 0 -54.5 -12t-44 -31.5t-29 -44t-10.5 -49.5q0 -29 13.5 -54t42.5 -37q-35 -8 -69 -24.5t-61 -42t-43.5 -61t-16.5 -80.5q0 -30 11 -60.5t32 -54.5t52.5 -39t72.5 -15q60 0 102 20.5t68.5 52t38 70
t11.5 73.5q0 13 -2.5 24.5t-4.5 20.5l79 33l-2 9z" />
    <glyph glyph-name="quotesingle" unicode="'" horiz-adv-x="90" 
d="M178 609h-10l-25 -122h10z" />
    <glyph glyph-name="parenleft" unicode="(" horiz-adv-x="280" 
d="M76 170q0 -50 9 -93.5t28 -79.5t48 -62t69 -39l2 10q-38 13 -65.5 39t-45.5 60.5t-26.5 76.5t-8.5 88q0 71 22.5 147.5t62.5 142t95 113t120 60.5l2 10q-69 -13 -126.5 -61t-99 -115t-64 -145.5t-22.5 -151.5z" />
    <glyph glyph-name="parenright" unicode=")" horiz-adv-x="280" 
d="M322 372q0 45 -9 88t-27.5 79t-48 63t-70.5 41l-2 -10q38 -14 66 -41t46 -61.5t26.5 -75.5t8.5 -83q0 -78 -24 -156t-65 -143t-96 -110t-116 -57l-2 -10q64 12 121 57.5t100 112t67.5 146.5t24.5 160z" />
    <glyph glyph-name="asterisk" unicode="*" horiz-adv-x="192" 
d="M219 585q-7 0 -10.5 -11t-5 -24.5t-2 -25.5t-0.5 -15q-3 3 -9.5 10.5t-14.5 14.5t-16 12.5t-13 5.5q-7 0 -7 -7q0 -6 7 -12t16 -12t18 -11t14 -7q-5 -2 -15.5 -5t-21 -7.5t-18.5 -10t-8 -11.5q0 -7 8 -7q5 0 13 4.5t17 10t16.5 11t10.5 8.5q-2 -5 -5 -13t-5.5 -16
t-4.5 -16t-2 -14q0 -13 8 -13q6 0 9 8.5t4.5 20.5t2 24t0.5 19q3 -3 10 -9.5t14.5 -13t15.5 -11.5t14 -5q7 0 7 7q0 5 -6 10.5t-15 11t-18.5 10t-16.5 7.5q7 3 18.5 7t22.5 9t19 10.5t8 10.5q0 8 -9 8q-6 0 -14.5 -4.5t-18 -11t-17.5 -13t-12 -10.5q5 11 12 29.5t7 34.5
q0 12 -7 12z" />
    <glyph glyph-name="plus" unicode="+" horiz-adv-x="280" 
d="M211 340l-21 -100h-100l-2 -10h100l-21 -100h10l21 100h100l2 10h-100l21 100h-10z" />
    <glyph glyph-name="comma" unicode="," horiz-adv-x="90" 
d="M84 27l-7 7l-96 -96l7 -7z" />
    <glyph glyph-name="hyphen" unicode="-" horiz-adv-x="280" 
d="M298 230l2 10h-210l-2 -10h210z" />
    <glyph glyph-name="period" unicode="." horiz-adv-x="90" 
d="M62 29q0 5 -1.5 9.5t-7.5 4.5q-8 0 -12 -10.5t-4 -18.5q0 -6 2 -10.5t8 -4.5q8 0 11.5 10.5t3.5 19.5z" />
    <glyph glyph-name="slash" unicode="/" horiz-adv-x="170" 
d="M-25 -70l10 -2l323 700l-9 2z" />
    <glyph glyph-name="zero" unicode="0" horiz-adv-x="666" 
d="M84 244q0 -57 20 -104t55.5 -80t85 -51t109.5 -18q75 0 140 28.5t112.5 78t75 114.5t27.5 139q0 54 -19 101t-54.5 81t-85.5 53.5t-112 19.5q-75 0 -139.5 -28.5t-112 -78t-75 -115.5t-27.5 -140zM436 596q61 0 110 -18.5t83 -51.5t52 -78t18 -97q0 -72 -27.5 -135.5
t-74 -111t-109 -75.5t-132.5 -28q-58 0 -106 18.5t-82.5 50.5t-54 76.5t-19.5 97.5q0 70 26.5 134t72.5 112.5t108.5 77t134.5 28.5z" />
    <glyph glyph-name="one" unicode="1" horiz-adv-x="173" 
d="M120 0h12l126 595l-137 -114h16l104 86z" />
    <glyph glyph-name="two" unicode="2" horiz-adv-x="360" 
d="M151 543l7 -7q23 26 53 42t68 16q22 0 43.5 -7.5t38 -22.5t26.5 -37t10 -50q0 -43 -17 -81t-50 -73l-311 -323h310l2 10h-286l290 305q36 39 54 78t18 84q0 31 -10.5 55t-28.5 40t-41 24t-48 8q-45 0 -75 -17.5t-53 -43.5z" />
    <glyph glyph-name="three" unicode="3" horiz-adv-x="340" 
d="M386 595h-220l-2 -10h195l-137 -116q19 -7 46 -18.5t51.5 -33t41.5 -57t17 -89.5q0 -55 -30.5 -102.5t-79.5 -83t-110 -55.5t-121 -20l-2 -10q65 0 128.5 20.5t113.5 56.5t80.5 85.5t30.5 108.5q0 53 -15.5 88.5t-37.5 58.5t-47.5 35.5t-44.5 19.5z" />
    <glyph glyph-name="four" unicode="4" horiz-adv-x="380" 
d="M339 185h-266l311 410h-13l-319 -420h285l-37 -175h10l37 175h50l2 10h-50l43 200h-10z" />
    <glyph glyph-name="five" unicode="5" horiz-adv-x="340" 
d="M375 586l1 9h-198l-45 -120q17 0 42 -2t52 -8.5t54 -19.5t48.5 -34.5t35 -53.5t13.5 -77q0 -59 -31 -108.5t-80 -85.5t-109.5 -56t-120.5 -20l-2 -10q64 0 127.5 21t113.5 58t81 88.5t31 112.5q0 70 -29.5 111t-69.5 61.5t-80 26t-62 6.5l38 101h190z" />
    <glyph glyph-name="six" unicode="6" horiz-adv-x="510" 
d="M72 209q0 58 23.5 106t61.5 82.5t85.5 54t95.5 19.5q47 0 85.5 -16.5t65.5 -44.5t41.5 -64.5t14.5 -75.5q0 -59 -20 -108t-54.5 -84t-81.5 -54.5t-100 -19.5q-49 0 -89 17t-68.5 45.5t-44 65.5t-15.5 77zM408 588l-3 10q-65 -19 -127 -59t-110 -93.5t-77 -114.5t-29 -122
q0 -44 16.5 -83.5t46 -68.5t71 -46t91.5 -17q57 0 106 20.5t85 57.5t56.5 87.5t20.5 110.5q0 42 -15.5 80.5t-44 67.5t-68 46t-88.5 17q-40 0 -73.5 -10.5t-59.5 -25.5t-44 -31t-28 -28q12 19 35.5 46t57.5 56t79 55.5t102 44.5z" />
    <glyph glyph-name="seven" unicode="7" 
d="M451 595h-310l-2 -10h295l-354 -585h10z" />
    <glyph glyph-name="eight" unicode="8" horiz-adv-x="406" 
d="M443 204q0 27 -9 53.5t-24.5 49t-37.5 39t-49 23.5q21 4 41 13.5t35.5 25t25 37.5t9.5 51q0 21 -6.5 39.5t-20 33t-34.5 23t-49 8.5q-25 0 -48 -10t-41 -27t-29 -41t-11 -52q0 -36 18 -60.5t45 -36.5q-49 -5 -86 -26t-62 -50.5t-38 -63.5t-13 -65q0 -38 11 -69.5
t33 -54.5t54 -36t74 -13q48 0 87 17t66.5 46t43 66.5t15.5 79.5zM433 204q0 -41 -15 -77t-41.5 -63t-63.5 -43t-81 -16q-39 0 -69.5 12.5t-51 34t-31.5 51.5t-11 65q0 28 12.5 62t38.5 64t65.5 50t93.5 20q37 0 66 -15.5t48.5 -39t29.5 -51.5t10 -54zM296 374
q-38 0 -64.5 28t-26.5 68q0 27 9.5 49t26 37.5t38 24.5t45.5 9q52 0 76 -27.5t24 -66.5q0 -30 -11 -52.5t-29 -38t-41 -23.5t-47 -8z" />
    <glyph glyph-name="nine" unicode="9" horiz-adv-x="392" 
d="M168 8l5 -8q54 37 108 89.5t97 110t70 114t27 101.5q0 36 -12 67t-34 53.5t-54.5 35.5t-72.5 13q-44 0 -82.5 -17.5t-67 -47t-45 -67.5t-16.5 -79t13 -72t36 -52t54.5 -32t69.5 -11q51 0 88.5 21t63.5 47q-14 -26 -39.5 -60.5t-59 -71.5t-72 -72t-77.5 -62zM465 415
q0 -40 -17.5 -76t-45.5 -63.5t-64 -43.5t-73 -16q-72 0 -118 39.5t-46 117.5q0 38 15 74t42 64.5t64 45.5t80 17q38 0 68.5 -12t51.5 -33.5t32 -50.5t11 -63z" />
    <glyph glyph-name="colon" unicode=":" horiz-adv-x="90" 
d="M62 29q0 5 -1.5 9.5t-7.5 4.5q-8 0 -12 -10.5t-4 -18.5q0 -6 2 -10.5t8 -4.5q8 0 11.5 10.5t3.5 19.5zM118 299q0 5 -1.5 9.5t-7.5 4.5q-8 0 -12 -10.5t-4 -18.5q0 -6 2 -10.5t8 -4.5q8 0 11.5 10.5t3.5 19.5z" />
    <glyph glyph-name="semicolon" unicode=";" horiz-adv-x="90" 
d="M84 27l-7 7l-96 -96l7 -7zM118 299q0 5 -1.5 9.5t-7.5 4.5q-8 0 -12 -10.5t-4 -18.5q0 -6 2 -10.5t8 -4.5q8 0 11.5 10.5t3.5 19.5z" />
    <glyph glyph-name="less" unicode="&#x3c;" horiz-adv-x="155" 
d="M87 235l107 150h-12l-107 -150l43 -150h10z" />
    <glyph glyph-name="equal" unicode="=" horiz-adv-x="315" 
d="M305 170l2 10h-210l-2 -10h210zM329 280l2 10h-210l-2 -10h210z" />
    <glyph glyph-name="greater" unicode="&#x3e;" horiz-adv-x="155" 
d="M158 233l-44 150h-10l44 -150l-105 -150h12z" />
    <glyph glyph-name="question" unicode="?" horiz-adv-x="268" 
d="M325 402q0 -36 -16 -77t-48 -77.5t-79 -65t-109 -38.5l-13 -54h10l11 45q61 10 109 38.5t80 66t49 80.5t17 82q0 80 -42.5 130.5t-123.5 63.5l-2 -10q78 -14 117.5 -61t39.5 -123zM62 29q0 5 -1.5 9.5t-7.5 4.5q-8 0 -12 -10.5t-4 -18.5q0 -6 2 -10.5t8 -4.5
q8 0 11.5 10.5t3.5 19.5z" />
    <glyph glyph-name="at" unicode="@" horiz-adv-x="390" 
d="M193 323q0 19 7.5 35t19 27t25.5 17.5t27 6.5q27 0 39 -13.5t12 -32.5q0 -10 -3 -19q-6 -26 -26 -46.5t-52 -20.5q-25 0 -37 13t-12 33zM124 317q0 35 13.5 66t36.5 54.5t55 37.5t69 14q51 0 85.5 -27t34.5 -83q0 -17 -5 -35t-14 -33t-22.5 -24.5t-29.5 -9.5
q-22 0 -22 26q0 8 3 19l27 94h-10l-12 -40q-2 12 -16 27.5t-44 15.5q-17 0 -33 -7.5t-29 -20t-20.5 -30t-7.5 -38.5q0 -23 15 -39.5t44 -16.5t47.5 14.5t26.5 29.5q-1 -4 -1 -14q0 -11 8 -20.5t23 -9.5q19 0 34.5 10.5t26 26.5t16 36t5.5 39q0 30 -10.5 52.5t-28 37.5
t-41 22.5t-50.5 7.5q-39 0 -72.5 -15t-58.5 -40t-39 -58t-14 -69q0 -24 8 -45t24 -37.5t39.5 -26t55.5 -9.5q38 0 65.5 11t42.5 25l-6 8q-14 -13 -41.5 -23.5t-59.5 -10.5q-30 0 -52 9t-36.5 24t-22 34.5t-7.5 40.5z" />
    <glyph glyph-name="A" unicode="A" horiz-adv-x="435" 
d="M27 0l75 136h305l18 -136h9l-78 620l-261 -474h-34l-2 -10h31l-75 -136h12zM349 587l57 -441h-299z" />
    <glyph glyph-name="B" unicode="B" horiz-adv-x="291" 
d="M330 265q0 44 -15 78t-39 57.5t-54 35.5t-60 12q13 0 30 3.5t32 12.5t25.5 24.5t10.5 40.5q0 26 -19.5 46t-67.5 20l-126 -597q45 0 95 16t92 48.5t69 83t27 119.5zM60 9l90 431q33 0 63.5 -11.5t54 -34t38 -55t14.5 -74.5q0 -67 -26.5 -115t-66 -79t-85 -46t-82.5 -16z
M154 457l27 128q35 0 52 -16.5t17 -39.5q0 -39 -28.5 -55.5t-67.5 -16.5z" />
    <glyph glyph-name="C" unicode="C" horiz-adv-x="294" 
d="M85 238q0 -45 12.5 -85t36.5 -71.5t58.5 -52.5t77.5 -28l2 9q-41 7 -74 27.5t-55.5 50.5t-34.5 68.5t-12 81.5q0 74 25 135.5t66 106.5t92 73t104 35l2 10q-55 -6 -109 -34.5t-96.5 -75t-68.5 -110t-26 -140.5z" />
    <glyph glyph-name="D" unicode="D" horiz-adv-x="347" 
d="M170 596l-126 -596q71 1 134.5 25t111 68.5t75.5 107.5t28 141q0 52 -19 96.5t-50.5 78t-71.5 54t-82 25.5zM382 342q0 -77 -28.5 -137.5t-74.5 -103t-104.5 -66t-117.5 -25.5l122 574q36 -5 72 -25.5t65.5 -52t47.5 -73.5t18 -91z" />
    <glyph glyph-name="E" unicode="E" horiz-adv-x="305" 
d="M373 487h-209l21 98h208l2 10h-218l-23 -108h-18l-3 -10h19l-54 -257q-5 -24 -7 -41t-2 -32q0 -70 43 -110.5t136 -40.5l2 10q-89 0 -130 38t-41 107q0 14 2 31t7 42l54 253h208z" />
    <glyph glyph-name="F" unicode="F" horiz-adv-x="284" 
d="M361 487h-187l21 98h186l2 10h-196l-23 -108h-18l-3 -10h19l-101 -477h10l101 477h186z" />
    <glyph glyph-name="G" unicode="G" horiz-adv-x="351" 
d="M274 486h127l-101 -472q-35 7 -70.5 25.5t-65 47.5t-48 70t-18.5 95q0 69 27 131t72.5 109t107 74.5t130.5 27.5l2 10q-72 0 -136 -28t-111.5 -76t-75 -112t-27.5 -136q0 -57 20 -101t51.5 -75t71.5 -50t79 -26l105 496h-138z" />
    <glyph glyph-name="H" unicode="H" horiz-adv-x="429" 
d="M172 487l23 108h-10l-23 -108h-18l-3 -10h19l-101 -477h10l101 477h310l-101 -477h10l126 595h-10l-23 -108h-310z" />
    <glyph glyph-name="I" unicode="I" horiz-adv-x="115" 
d="M61 0h10l126 595h-10z" />
    <glyph glyph-name="J" unicode="J" horiz-adv-x="282" 
d="M17 -4q48 0 93.5 16t82.5 45.5t63 70t36 88.5l80 379h-10l-79 -375q-10 -47 -36 -86t-62 -67.5t-79 -44.5t-87 -16z" />
    <glyph glyph-name="K" unicode="K" horiz-adv-x="358" 
d="M163 490l22 105h-10l-126 -595h10l102 479l89 42l83 -521h10l-84 525l148 70h-20z" />
    <glyph glyph-name="L" unicode="L" horiz-adv-x="301" 
d="M61 10l124 585h-10l-126 -595h224l2 10h-214z" />
    <glyph glyph-name="M" unicode="M" horiz-adv-x="560" 
d="M295 602l-273 -602h12l263 581l80 -124l132 125l28 -582h10l-30 603l-138 -131z" />
    <glyph glyph-name="N" unicode="N" horiz-adv-x="427" 
d="M43 0h10l124 585q31 -2 68 -9.5t76 -22t78.5 -36.5t77.5 -52l-99 -465h10l126 595h-10l-25 -119q-74 60 -154 87.5t-156 31.5z" />
    <glyph glyph-name="O" unicode="O" horiz-adv-x="666" 
d="M84 250q0 -60 20 -107.5t56 -81.5t86.5 -52t111.5 -18q73 0 137.5 27.5t111.5 75.5t74.5 112.5t27.5 138.5q0 57 -19 104.5t-54.5 82.5t-85.5 54.5t-113 19.5q-76 0 -140.5 -28t-112 -76t-74 -113t-26.5 -139zM433 596q62 0 111.5 -19t84 -52.5t52.5 -79.5t18 -100
q0 -71 -27.5 -134t-74 -109.5t-108.5 -73.5t-131 -27q-59 0 -107.5 18.5t-83 51.5t-54 78.5t-19.5 100.5q0 70 26 133t71.5 110t107.5 75t134 28z" />
    <glyph glyph-name="P" unicode="P" horiz-adv-x="298" 
d="M59 0h10l39 184q52 0 98 18t80 49.5t53.5 74.5t19.5 92q0 41 -13 74t-36 56t-55 35t-70 12zM348 417q0 -46 -19 -86.5t-51.5 -71t-76 -48t-91.5 -17.5l83 391q31 0 59.5 -11t49.5 -32t33.5 -52.5t12.5 -72.5z" />
    <glyph glyph-name="Q" unicode="Q" horiz-adv-x="670" 
d="M358 -9q43 0 81.5 9t73.5 26l61 -119l8 5l-61 119q40 24 74.5 55.5t59.5 70.5t39.5 85.5t14.5 100.5q0 57 -19 105.5t-54.5 83.5t-85.5 54.5t-113 19.5q-76 0 -140.5 -28t-112 -75t-74 -110.5t-26.5 -133.5q0 -63 20 -113t56 -84.5t86.5 -52.5t111.5 -18zM429 189
l79 -153q-35 -17 -72.5 -26t-77.5 -9q-59 0 -107.5 18.5t-83 52.5t-54 81.5t-19.5 105.5q0 67 26 128t71.5 107.5t107.5 74t134 27.5q62 0 111.5 -19t84 -52.5t52.5 -80t18 -101.5q0 -52 -14 -97t-39 -83t-58 -68.5t-72 -53.5l-78 153z" />
    <glyph glyph-name="R" unicode="R" horiz-adv-x="286" 
d="M58 0h10l39 182q14 -63 54.5 -109.5t91.5 -78.5l2 11q-23 15 -45 33.5t-40.5 41t-32.5 49t-21 57.5q45 0 87 18t74 50t51.5 75t19.5 93q0 40 -12.5 72.5t-34.5 55t-52 34.5t-64 12zM337 422q0 -48 -18.5 -89t-50 -71.5t-72.5 -48t-86 -17.5l83 390q28 0 54 -11.5
t46 -32.5t32 -51.5t12 -68.5z" />
    <glyph glyph-name="S" unicode="S" horiz-adv-x="282" 
d="M223 327q-29 21 -49.5 45t-20.5 65q0 33 15.5 61.5t40 49.5t55.5 33t62 12l2 10q-34 0 -67.5 -13t-59.5 -35.5t-42.5 -52.5t-16.5 -65q0 -44 21.5 -69.5t53.5 -48.5t53.5 -53t21.5 -74q0 -42 -24.5 -77.5t-62 -61t-81.5 -39.5t-84 -14l-2 -10q46 0 93 15.5t85.5 43
t62.5 64.5t24 79q0 48 -22.5 78.5t-57.5 56.5z" />
    <glyph glyph-name="T" unicode="T" horiz-adv-x="306" 
d="M386 595h-220l-2 -10h105l-123 -585h10l123 585h105z" />
    <glyph glyph-name="U" unicode="U" horiz-adv-x="364" 
d="M185 595h-10l-95 -451q-2 -8 -3 -17t-1 -18q0 -21 6.5 -42.5t21 -38t38 -27t58.5 -10.5q36 0 63.5 12t47.5 32.5t32.5 47t18.5 56.5l97 456h-10l-97 -456q-6 -25 -17.5 -50t-29.5 -44.5t-44 -31.5t-60 -12q-33 0 -55.5 9.5t-36 25.5t-19 35.5t-5.5 39.5q0 9 1 18t3 17z
" />
    <glyph glyph-name="V" unicode="V" horiz-adv-x="276" 
d="M148 28v567h-10v-621l248 621h-11z" />
    <glyph glyph-name="W" unicode="W" horiz-adv-x="524" 
d="M148 21v574h-10v-621l240 533v-533l251 621h-11l-230 -568v525z" />
    <glyph glyph-name="X" unicode="X" horiz-adv-x="324" 
d="M241 349l-63 246h-10l65 -256l-222 -339h12l213 326l85 -326h10l-86 335l169 260h-11z" />
    <glyph glyph-name="Y" unicode="Y" horiz-adv-x="337" 
d="M275 470l-125 125h-13l131 -131l-98 -466h10l98 464l180 133h-16z" />
    <glyph glyph-name="Z" unicode="Z" 
d="M426 595h-251l-2 -10h235l-385 -585h286l2 10h-269z" />
    <glyph glyph-name="bracketleft" unicode="[" horiz-adv-x="104" 
d="M75 -85h-50l150 704h50l2 10h-60l-154 -724h60z" />
    <glyph glyph-name="backslash" unicode="\" horiz-adv-x="170" 
d="M139 628h-11v-700h10z" />
    <glyph glyph-name="bracketright" unicode="]" horiz-adv-x="195" 
d="M156 619h50l-150 -704h-50l-2 -10h60l154 724h-60z" />
    <glyph glyph-name="asciicircum" unicode="^" horiz-adv-x="250" 
d="M174 534l84 -103l6 6l-90 109l-110 -110l6 -6z" />
    <glyph glyph-name="underscore" unicode="_" horiz-adv-x="260" 
d="M0 -15l-2 -10h270l2 10h-270z" />
    <glyph glyph-name="grave" unicode="`" horiz-adv-x="180" 
d="M54 473q4 -3 14 -16t21.5 -29t23 -31t17.5 -24q3 -3 5 -3q3 0 3 3q0 2 -2 4q-6 9 -17 24.5t-22 32t-20 29.5t-10 18q-5 12 -12 12q-8 0 -8 -8q0 -6 7 -12z" />
    <glyph glyph-name="a" unicode="a" horiz-adv-x="338" 
d="M164 299l6 -8q35 29 94 29q77 0 77 -59q0 -5 -0.5 -10t-1.5 -10l-13 -63q-2 7 -7.5 19t-18 23.5t-33.5 20t-54 8.5q-36 0 -64.5 -13t-47.5 -34t-29 -46.5t-10 -50.5q0 -22 7 -42t20.5 -35.5t34.5 -24.5t50 -9q26 0 47 7t36.5 17t26 21t16.5 19l-12 -58h10l52 245
q1 5 1.5 9t0.5 8q0 30 -22 49t-64 19q-34 0 -58.5 -8t-43.5 -23zM72 105q0 23 9 46.5t26.5 43t43.5 32t61 12.5q56 0 81.5 -26.5t25.5 -64.5q0 -32 -11.5 -58t-31 -45.5t-45.5 -30t-55 -10.5q-27 0 -46.5 8.5t-32.5 23t-19 32.5t-6 37z" />
    <glyph glyph-name="b" unicode="b" horiz-adv-x="410" 
d="M268 332q-58 0 -101.5 -30t-64.5 -70l85 398h-10l-134 -630h10l23 107q3 -20 13 -40t28 -36.5t44 -27t62 -10.5q45 0 81.5 16.5t62 43.5t39.5 61t14 69q0 31 -10 58t-29.5 47.5t-47.5 32t-65 11.5zM85 133q0 41 15 75.5t40 60t58 39.5t68 14q70 0 107 -39.5t37 -99.5
q0 -32 -13.5 -64.5t-37.5 -58t-58 -41.5t-76 -16q-34 0 -60 10.5t-44 28t-27 41t-9 50.5z" />
    <glyph glyph-name="c" unicode="c" horiz-adv-x="197" 
d="M225 318l2 10q-33 -6 -62 -23t-51.5 -42.5t-35.5 -58t-13 -69.5q0 -49 26 -86.5t77 -51.5l2 10q-49 14 -72 48.5t-23 79.5q0 35 12.5 66t33 55t47.5 40t57 22z" />
    <glyph glyph-name="d" unicode="d" horiz-adv-x="424" 
d="M514 630h-10l-88 -412q-2 16 -10.5 36t-26.5 37t-45 29t-65 12q-45 0 -81.5 -16.5t-62 -43.5t-39 -61t-13.5 -68q0 -69 40.5 -109.5t113.5 -40.5q33 0 59.5 10t46.5 25t34 32.5t23 33.5l-20 -94h10zM83 143q0 32 13 64t37 57.5t57.5 41.5t75.5 16q36 0 65 -12t47.5 -33.5
t25.5 -51t1 -63.5q-7 -36 -23.5 -65.5t-40 -50t-53 -32t-60.5 -11.5q-69 0 -107 38t-38 102z" />
    <glyph glyph-name="e" unicode="e" horiz-adv-x="290" 
d="M59 134q0 -46 24 -84t81 -54l4 10q-55 16 -77.5 51.5t-22.5 77.5l280 171q-16 12 -38.5 19t-50.5 7q-44 0 -81 -16t-63.5 -43.5t-41 -63.5t-14.5 -75zM329 306l-260 -159q3 35 17.5 67t39.5 56t58.5 38t73.5 14q23 0 41 -5t30 -11z" />
    <glyph glyph-name="f" unicode="f" horiz-adv-x="213" 
d="M119 319h25l-68 -319h10l68 319h80l2 10h-80l43 203q3 15 10.5 30.5t20 28t30 20.5t40.5 8l2 10q-26 -1 -45.5 -10t-33 -22.5t-22 -29.5t-11.5 -32l-44 -206h-25z" />
    <glyph glyph-name="g" unicode="g" horiz-adv-x="370" 
d="M387 315l1 10h-142q-41 0 -73.5 -15.5t-55 -40t-34.5 -54.5t-12 -59q0 -54 25.5 -85t66.5 -38q-30 -2 -57.5 -15.5t-52.5 -35.5l6 -8q24 21 54 37t78 16q32 0 57 -10.5t42 -28.5t26 -41.5t9 -49.5q0 -39 -12.5 -74.5t-37 -62.5t-60 -43t-80.5 -16q-58 0 -89 26t-42 61
l-9 -4q10 -36 44 -64.5t93 -28.5q49 0 87 17t64 45.5t39 65.5t13 78q0 50 -29.5 89t-83.5 47q33 4 59.5 19.5t45.5 37.5t29 48.5t10 54.5q0 47 -19 78.5t-53 43.5h93zM81 156q0 27 11 55.5t32 51.5t51 38t68 15q28 0 49.5 -10t35.5 -27t21 -39.5t7 -46.5q0 -27 -11 -54.5
t-31.5 -50t-50 -36.5t-66.5 -14q-60 0 -88 34t-28 84z" />
    <glyph glyph-name="h" unicode="h" horiz-adv-x="341" 
d="M244 331q-26 0 -47 -7.5t-37 -18.5t-26.5 -23.5t-16.5 -23.5l79 371h-10l-134 -629h10l47 223q14 39 48.5 68.5t85.5 29.5q45 0 70.5 -19.5t25.5 -61.5q0 -19 -4 -38l-43 -202h10l43 203q2 10 3 19.5t1 17.5q0 47 -28.5 69t-76.5 22z" />
    <glyph glyph-name="i" unicode="i" horiz-adv-x="133" 
d="M69 0h10l69 325h-10zM171 403q1 7 -0.5 14t-8.5 7t-10.5 -6.5t-4.5 -14.5t0.5 -15.5t8.5 -7.5t10.5 7.5t4.5 15.5z" />
    <glyph glyph-name="j" unicode="j" horiz-adv-x="147" 
d="M-79 -329q28 1 47.5 10t32.5 23t21 31t12 34l118 556h-10l-118 -556q-4 -15 -11 -30.5t-19 -28t-29.5 -21t-41.5 -8.5zM171 403q1 7 -0.5 14t-8.5 7t-10.5 -6.5t-4.5 -14.5t0.5 -15.5t8.5 -7.5t10.5 7.5t4.5 15.5z" />
    <glyph glyph-name="k" unicode="k" horiz-adv-x="272" 
d="M288 326l-191 -186l102 489h-10l-133 -624h10l24 111q15 -25 37 -50.5t52 -47.5t69 -39t87 -24l2 9q-45 7 -83 23.5t-68 38.5t-53 47.5t-38 51.5l208 201h-15z" />
    <glyph glyph-name="l" unicode="l" horiz-adv-x="130" 
d="M62 0h10l134 629h-10z" />
    <glyph glyph-name="m" unicode="m" horiz-adv-x="578" 
d="M591 245q0 33 -24.5 59.5t-81.5 26.5q-28 0 -50.5 -7.5t-39 -19t-27.5 -24.5t-17 -25q-1 12 -6 25.5t-16.5 24.5t-31 18.5t-48.5 7.5q-30 0 -51.5 -7t-37 -17.5t-26 -24.5t-18.5 -27l15 70h-10l-69 -325h10l44 208q0 2 6 20t22 38.5t43 37.5t70 17q47 0 71 -21t24 -56
q0 -11 -3 -24l-47 -220h10l47 220q4 17 15 35t28 32.5t40.5 24t51.5 9.5q52 0 74.5 -22t22.5 -56q0 -13 -3 -28l-46 -215h10l47 224q2 5 2 10v11z" />
    <glyph glyph-name="n" unicode="n" horiz-adv-x="348" 
d="M244 331q-26 0 -47 -7t-37 -17.5t-27 -23.5t-16 -25l14 67h-10l-69 -325h10l47 223q14 39 48 68.5t85 29.5q46 0 72 -20.5t26 -58.5q0 -13 -3 -28l-45 -214h10l45 214q3 15 3 28q0 43 -29 66t-77 23z" />
    <glyph glyph-name="o" unicode="o" horiz-adv-x="399" 
d="M404 186q0 31 -10 58t-29.5 46.5t-47.5 30.5t-64 11q-45 0 -80.5 -16t-61 -42.5t-39 -61.5t-13.5 -72q0 -66 39.5 -106.5t111.5 -40.5q44 0 79.5 17t61 44t39.5 61.5t14 70.5zM251 322q67 0 105 -37.5t38 -98.5q0 -33 -13 -66t-37 -59t-57.5 -42t-73.5 -16
q-69 0 -106.5 37.5t-37.5 99.5q0 35 13 68t36.5 58.5t57 40.5t75.5 15z" />
    <glyph glyph-name="p" unicode="p" horiz-adv-x="417" 
d="M-9 -305h10l88 415q3 -21 13.5 -42t28.5 -37.5t44.5 -27t63.5 -10.5q44 0 79.5 17t61 44.5t39 62t13.5 69.5q0 64 -40 105t-111 41q-35 0 -62 -9t-47 -22t-33 -28t-20 -27l16 79h-10zM279 322q67 0 105 -37.5t38 -98.5q0 -33 -13 -66t-37 -59t-57.5 -42t-73.5 -16
q-69 0 -106.5 37.5t-37.5 99.5q0 35 13 68t36.5 58.5t57 40.5t75.5 15z" />
    <glyph glyph-name="q" unicode="q" horiz-adv-x="424" 
d="M224 -7q34 0 60.5 9t46.5 22.5t33.5 30t22.5 31.5l-83 -391h10l134 630h-10l-23 -108q-1 15 -10 35t-27 37.5t-45 30t-65 12.5q-46 0 -82 -16t-61.5 -42.5t-39 -61.5t-13.5 -72q0 -69 40 -108t112 -39zM264 322q67 0 105 -37.5t38 -98.5q0 -33 -13 -66t-37 -59t-57.5 -42
t-73.5 -16q-69 0 -106.5 37.5t-37.5 99.5q0 35 13 68t36.5 58.5t57 40.5t75.5 15z" />
    <glyph glyph-name="r" unicode="r" horiz-adv-x="216" 
d="M253 315l2 10q-31 0 -53.5 -7t-38.5 -16.5t-25.5 -20.5t-13.5 -20l14 64h-10l-69 -325h10l45 214q3 15 12 32.5t25.5 33t41.5 25.5t60 10z" />
    <glyph glyph-name="s" unicode="s" horiz-adv-x="189" 
d="M144 179q-17 17 -27.5 30t-10.5 32q0 18 7 31.5t18.5 22.5t25 14t27.5 7l1 10q-16 -2 -32 -7.5t-28.5 -16t-20.5 -25.5t-8 -36t12 -36.5t29 -32.5q16 -15 25.5 -31.5t9.5 -36.5q0 -23 -12 -40.5t-30.5 -30t-42 -21t-45.5 -11.5l-2 -10q25 4 50 12.5t45.5 22.5t33.5 33
t13 45q0 27 -12 44t-26 31z" />
    <glyph glyph-name="t" unicode="t" horiz-adv-x="200" 
d="M167 447h-10l-26 -122h-25l-2 -10h25l-47 -219q-2 -11 -3.5 -20t-1.5 -18q0 -28 16.5 -45t59.5 -17l2 10q-39 0 -53.5 15t-14.5 39q0 14 5 36l47 219h80l2 10h-80z" />
    <glyph glyph-name="u" unicode="u" horiz-adv-x="348" 
d="M125 325l-46 -219q-3 -14 -3 -26q0 -37 25 -63t82 -26q35 0 60 9t41.5 25t26 36.5t14.5 44.5l46 219h-10l-46 -219q-4 -20 -12.5 -38.5t-23.5 -33.5t-37.5 -24t-55.5 -9q-54 0 -77 23t-23 56q0 12 3 26l46 219h-10z" />
    <glyph glyph-name="v" unicode="v" horiz-adv-x="279" 
d="M110 325h-11l49 -345l195 345h-12l-177 -315z" />
    <glyph glyph-name="w" unicode="w" horiz-adv-x="432" 
d="M141 -21l127 222l33 -221l195 345h-11l-179 -315l-32 221l-127 -221l-45 315h-10z" />
    <glyph glyph-name="x" unicode="x" horiz-adv-x="310" 
d="M197 180l-82 145h-12l87 -151l-174 -174h14l166 166l94 -166h11l-98 172l153 153h-14z" />
    <glyph glyph-name="y" unicode="y" horiz-adv-x="286" 
d="M110 325h-10l45 -329l-187 -328h11l374 657h-12l-178 -314z" />
    <glyph glyph-name="z" unicode="z" horiz-adv-x="307" 
d="M117 325l-2 -10h201l-293 -315h259l2 10h-238l293 315h-222z" />
    <glyph glyph-name="braceleft" unicode="{" horiz-adv-x="195" 
d="M132 217q0 -8 -1 -13l-46 -218q-3 -15 -3 -28q0 -24 13 -40.5t46 -23.5l3 10q-29 6 -40.5 21t-11.5 35q0 12 3 27l46 220q1 4 1.5 7t0.5 7q0 21 -13 35t-26 22q20 9 40 22.5t26 42.5l45 211q8 35 26.5 53t57.5 26l2 10q-43 -6 -65 -27.5t-30 -57.5l-46 -213
q-3 -14 -10.5 -24.5t-18 -18t-22.5 -13t-24 -11.5q19 -11 33 -24.5t14 -36.5z" />
    <glyph glyph-name="bar" unicode="|" horiz-adv-x="90" 
d="M24 -75h10l148 695h-10z" />
    <glyph glyph-name="braceright" unicode="}" horiz-adv-x="195" 
d="M187 334q0 13 1 18l41 198q3 15 3 28q0 24 -13 40.5t-46 23.5l-3 -10q29 -6 40.5 -21t11.5 -35q0 -12 -3 -27l-40 -195q-2 -8 -2 -12v-7q0 -21 12.5 -34t25.5 -21q-20 -9 -40 -23.5t-26 -43.5l-50 -231q-8 -35 -27.5 -53.5t-56.5 -25.5l-2 -10q43 6 65 27.5t30 57.5
l51 233q3 14 10.5 24.5t18 18t22.5 13t24 11.5q-19 11 -33 24t-14 32z" />
    <glyph glyph-name="asciitilde" unicode="~" horiz-adv-x="320" 
d="M110 263h10q2 14 15 25t33 11q16 0 25 -5t17 -12q8 -8 19.5 -14t30.5 -6q23 0 36.5 12.5t18.5 33.5h-10q-3 -16 -13 -26t-32 -10q-17 0 -26 5t-17 12t-18.5 13.5t-30.5 6.5q-23 0 -39.5 -14t-18.5 -32z" />
    <glyph glyph-name="exclamdown" unicode="&#xa1;" horiz-adv-x="85" 
d="M125 354h-12l-107 -505h12zM122 415q0 -5 1.5 -9.5t7.5 -4.5q8 0 12 10.5t4 18.5q0 6 -2 10.5t-8 4.5q-8 0 -11.5 -10.5t-3.5 -19.5z" />
    <glyph glyph-name="cent" unicode="&#xa2;" horiz-adv-x="370" 
d="M92 252q0 -30 7.5 -56.5t23 -47t39.5 -33.5t57 -14l-12 -56h10l12 56q42 0 74.5 13.5t52.5 27.5l2 12q-26 -19 -58 -31t-69 -12l81 381q33 0 58.5 -11t49.5 -33l3 10q-19 18 -45.5 30.5t-63.5 13.5l10 48h-10l-10 -48q-47 0 -86 -22.5t-67 -58t-43.5 -80t-15.5 -89.5z
M102 252q0 43 15 85.5t41.5 77t63 56t80.5 21.5l-81 -381q-32 2 -54.5 14t-37 31t-21 44t-6.5 52z" />
    <glyph glyph-name="sterling" unicode="&#xa3;" horiz-adv-x="284" 
d="M233 143h-163l12 55h163l2 10h-163l43 199q9 43 32 76.5t55.5 57t73 35.5t85.5 13l2 10q-47 0 -89.5 -12.5t-77 -36.5t-58.5 -59t-33 -80l-43 -203h-19l-2 -10h19l-12 -55h-19l-2 -10h19l-28 -133h218l2 10h-208l26 123h163z" />
    <glyph glyph-name="yen" unicode="&#xa5;" horiz-adv-x="344" 
d="M275 472l-119 123h-12l124 -133l-15 -72h-75l-2 -10h75l-6 -27h-75l-2 -10h75l-73 -345h10l73 345h75l2 10h-75l6 27h75l2 10h-75l15 72l180 133h-12z" />
    <glyph glyph-name="brokenbar" unicode="&#xa6;" horiz-adv-x="133" 
d="M89 327h-35v-327h35v327zM54 436h35v319h-35v-319z" />
    <glyph glyph-name="section" unicode="&#xa7;" horiz-adv-x="189" 
d="M194 378q12 -14 17.5 -32.5t5.5 -33.5q0 -27 -8.5 -45.5t-20.5 -31t-25 -19.5t-21 -11q-10 15 -16.5 32.5t-6.5 40.5q0 32 21.5 59t53.5 41zM183 112q0 24 -12 45t-24 40q8 3 21.5 11t26.5 21.5t22.5 34t9.5 48.5q0 40 -30 77q-16 19 -29 36.5t-13 39.5q0 29 23 50.5
t61 25.5l2 10q-45 -3 -70.5 -28.5t-25.5 -57.5q0 -25 14.5 -44t28.5 -36q-16 -7 -30 -18t-25 -25t-17.5 -30t-6.5 -34q0 -24 7 -43.5t21 -40.5q14 -22 25 -40.5t11 -41.5q0 -24 -10.5 -43t-28.5 -33t-41.5 -22.5t-48.5 -12.5l-2 -10q27 4 52.5 13t45 24t31.5 35.5t12 48.5z
" />
    <glyph glyph-name="dieresis" unicode="&#xa8;" horiz-adv-x="260" 
d="M206 403q2 7 0.5 14t-8.5 7t-10.5 -6.5t-5.5 -14.5q-2 -7 -0.5 -15t8.5 -8t10.5 7.5t5.5 15.5zM103 403q2 7 0.5 14t-8.5 7t-10.5 -6.5t-5.5 -14.5q-2 -7 -0.5 -15t8.5 -8t10.5 7.5t5.5 15.5z" />
    <glyph glyph-name="copyright" unicode="&#xa9;" horiz-adv-x="430" 
d="M209 320q0 23 17.5 42.5t50.5 19.5q19 0 33 -8t24 -19v14q-9 9 -22 16t-35 7q-39 0 -58.5 -22.5t-19.5 -49.5t19.5 -50t58.5 -23q23 0 36 7.5t21 15.5v15q-8 -11 -20.5 -19.5t-35.5 -8.5q-34 0 -51.5 20t-17.5 43zM435 317q0 33 -12.5 61.5t-34 50t-50 34t-61.5 12.5
t-61.5 -12.5t-50 -34t-34 -50t-12.5 -61.5t12.5 -61.5t34 -50t50 -34t61.5 -12.5t61.5 12.5t50 34t34 50t12.5 61.5zM129 318q0 31 11.5 58t31.5 47t47 31.5t59 11.5q31 0 58 -11.5t47 -31.5t31.5 -47t11.5 -58q0 -32 -11.5 -59t-31.5 -47t-47 -31.5t-58 -11.5
q-32 0 -59 11.5t-47 31.5t-31.5 47t-11.5 59z" />
    <glyph glyph-name="ordfeminine" unicode="&#xaa;" horiz-adv-x="225" 
d="M67 322l-1 -10h166l1 10h-166zM140 526l3 -4q19 14 47 14q39 0 39 -29q0 -2 -0.5 -5t-0.5 -5l-7 -32q-1 4 -3.5 10t-9 12t-17 10t-26.5 4q-18 0 -32.5 -6.5t-24 -17t-14.5 -23.5t-5 -25q0 -22 13.5 -39t42.5 -17q26 0 42 12t21 20l-6 -29h5l26 123q1 3 1 8q0 15 -11 24.5
t-32 9.5q-32 0 -51 -15zM94 429q0 11 4.5 23t13.5 21.5t22 16t30 6.5q28 0 41 -13t13 -33q0 -32 -21.5 -52t-50.5 -20q-27 0 -39.5 15.5t-12.5 35.5z" />
    <glyph glyph-name="guillemotleft" unicode="&#xab;" horiz-adv-x="200" 
d="M51 185l107 150h-10l-107 -150l43 -150h10zM103 185l107 150h-10l-107 -150l43 -150h10z" />
    <glyph glyph-name="registered" unicode="&#xae;" horiz-adv-x="355" 
d="M332 532q0 17 -10 28.5t-28 11.5h-63l-20 -164h9l10 75h35l44 -75h11l-44 75h8q25 0 36.5 14t11.5 35zM323 532q0 -12 -7.5 -26t-30.5 -14h-54l8 71h54q16 0 23 -10t7 -21zM413 504q0 26 -9.5 48.5t-26.5 39.5t-40.5 26.5t-51.5 9.5q-29 0 -57 -11t-50.5 -31.5
t-36.5 -50.5t-14 -67q0 -26 9.5 -48.5t27 -39.5t41 -26.5t51.5 -9.5q33 0 61.5 12.5t49.5 34t33.5 50.5t12.5 63zM137 470q0 33 13 60.5t34 47t47.5 30t52.5 10.5q53 0 86 -33t33 -83q0 -32 -12 -59t-32.5 -47t-46.5 -31t-54 -11q-27 0 -49.5 9t-38 24.5t-24.5 36.5t-9 46z
" />
    <glyph glyph-name="macron" unicode="&#xaf;" horiz-adv-x="270" 
d="M67 380l-1 -10h166l1 10h-166z" />
    <glyph glyph-name="degree" unicode="&#xb0;" horiz-adv-x="208" 
d="M165 517q0 -17 10.5 -29.5t33.5 -12.5q27 0 41.5 17.5t14.5 37.5q0 17 -10.5 29.5t-33.5 12.5q-27 0 -41.5 -17.5t-14.5 -37.5zM174 517q0 17 12 32t34 15q18 0 27 -10t9 -24q0 -17 -12.5 -32t-34.5 -15q-18 0 -26.5 10t-8.5 24z" />
    <glyph glyph-name="twosuperior" unicode="&#xb2;" horiz-adv-x="203" 
d="M154 579l3 -4q23 26 55 26q20 0 36.5 -13t16.5 -39q0 -38 -30 -69l-140 -146h139l1 5h-128l130 137q32 33 32 73q0 28 -17.5 42.5t-39.5 14.5q-20 0 -33.5 -8t-24.5 -19z" />
    <glyph glyph-name="threesuperior" unicode="&#xb3;" horiz-adv-x="203" 
d="M259 599h-99l-1 -4h88l-62 -52q9 -3 21 -8t23 -15t18.5 -26t7.5 -40q0 -25 -14 -46.5t-35.5 -37.5t-49 -25t-54.5 -9l-1 -4q29 0 57.5 9t51 25.5t36.5 39t14 48.5q0 24 -7 39.5t-17 26t-21 16.5t-20 9z" />
    <glyph glyph-name="acute" unicode="&#xb4;" horiz-adv-x="230" 
d="M184 475q-3 -4 -16 -16t-29.5 -26.5t-33 -28.5t-24.5 -21q-3 -3 -3 -5q0 -3 3 -3t5 2q8 7 24.5 21t33.5 28t31.5 25.5t19.5 13.5q10 4 10 12q0 7 -7 7t-14 -9z" />
    <glyph glyph-name="paragraph" unicode="&#xb6;" horiz-adv-x="325" 
d="M111 358q0 -47 16.5 -80t40.5 -54t52.5 -30.5t52.5 -9.5l-61 -284h10l149 696q-49 0 -96 -17t-83.5 -48.5t-58.5 -75t-22 -97.5zM121 358q0 51 21.5 93t55.5 71.5t76.5 46t84.5 16.5l-84 -390q-22 0 -49 9t-50 28.5t-39 50.5t-16 75zM258 -100h10l148 695h-10z" />
    <glyph glyph-name="periodcentered" unicode="&#xb7;" horiz-adv-x="138" 
d="M112 293q0 5 -1.5 9.5t-7.5 4.5q-8 0 -12 -10.5t-4 -18.5q0 -6 2 -10.5t8 -4.5q8 0 11.5 10.5t3.5 19.5z" />
    <glyph glyph-name="periodcentered" unicode="&#x2219;" horiz-adv-x="138" 
d="M112 293q0 5 -1.5 9.5t-7.5 4.5q-8 0 -12 -10.5t-4 -18.5q0 -6 2 -10.5t8 -4.5q8 0 11.5 10.5t3.5 19.5z" />
    <glyph glyph-name="cedilla" unicode="&#xb8;" horiz-adv-x="135" 
d="M31 -143q17 16 28 35.5t17.5 39.5t9.5 40.5t5 39.5h-10q-2 -35 -13.5 -76t-42.5 -71z" />
    <glyph glyph-name="onesuperior" unicode="&#xb9;" horiz-adv-x="203" 
d="M160 343h6l56 267l-61 -51h7l47 39z" />
    <glyph glyph-name="ordmasculine" unicode="&#xba;" horiz-adv-x="248" 
d="M82 322l-1 -10h166l1 10h-166zM268 469q0 32 -19.5 52.5t-55.5 20.5q-22 0 -40 -8t-30.5 -21.5t-19.5 -30.5t-7 -36q0 -32 20 -53t56 -21q22 0 39.5 8.5t30 22.5t19.5 31t7 35zM192 537q34 0 52.5 -18.5t18.5 -49.5q0 -17 -6.5 -33t-18.5 -29t-28.5 -21t-36.5 -8
q-34 0 -53 18.5t-19 49.5q0 18 6.5 34t18.5 29t28.5 20.5t37.5 7.5z" />
    <glyph glyph-name="guillemotright" unicode="&#xbb;" horiz-adv-x="200" 
d="M163 185l-43 150h-10l43 -150l-107 -150h10zM219 185l-43 150h-10l43 -150l-107 -150h10z" />
    <glyph glyph-name="onequarter" unicode="&#xbc;" horiz-adv-x="203" 
d="M160 343h6l56 267l-61 -51h7l47 39zM211 304l2 6h-130l-2 -6h130zM156 83h-119l140 185h-6l-144 -189h128l-16 -79h4l17 79h22l1 4h-22l19 90h-4z" />
    <glyph glyph-name="onehalf" unicode="&#xbd;" horiz-adv-x="203" 
d="M160 343h6l56 267l-61 -51h7l47 39zM211 304l2 6h-130l-2 -6h130zM89 245l3 -4q23 26 55 26q20 0 36.5 -13t16.5 -39q0 -38 -30 -69l-140 -146h139l1 5h-128l130 137q32 33 32 73q0 28 -17.5 42.5t-39.5 14.5q-20 0 -33.5 -8t-24.5 -19z" />
    <glyph glyph-name="threequarters" unicode="&#xbe;" horiz-adv-x="203" 
d="M211 304l2 6h-130l-2 -6h130zM156 83h-119l140 185h-6l-144 -189h128l-16 -79h4l17 79h22l1 4h-22l19 90h-4zM259 599h-99l-1 -4h88l-62 -52q9 -3 21 -8t23 -15t18.5 -26t7.5 -40q0 -25 -14 -46.5t-35.5 -37.5t-49 -25t-54.5 -9l-1 -4q29 0 57.5 9t51 25.5t36.5 39
t14 48.5q0 24 -7 39.5t-17 26t-21 16.5t-20 9z" />
    <glyph glyph-name="questiondown" unicode="&#xbf;" horiz-adv-x="268" 
d="M41 46q0 36 16 77t48 77.5t79 64.5t109 39l13 54h-10l-11 -45q-62 -11 -109.5 -39t-79.5 -65.5t-49 -80.5t-17 -82q0 -80 42.5 -130.5t123.5 -63.5l2 10q-78 14 -117.5 61t-39.5 123zM304 419q0 -5 1.5 -9.5t7.5 -4.5q8 0 12 10.5t4 18.5q0 6 -2 10.5t-8 4.5
q-8 0 -11.5 -10.5t-3.5 -19.5z" />
    <glyph glyph-name="Agrave" unicode="&#xc0;" horiz-adv-x="440" 
d="M310 693q4 -3 10.5 -11t14.5 -18t16 -20.5t14 -19.5q3 -3 5 -3q3 0 3 3q0 2 -2 4q-6 9 -14 20t-15 21t-12.5 18.5t-6.5 13.5q-5 12 -12 12q-8 0 -8 -8q0 -6 7 -12zM27 0l75 136h305l18 -136h9l-78 620l-261 -474h-34l-2 -10h31l-75 -136h12zM349 587l57 -441h-299z" />
    <glyph glyph-name="Aacute" unicode="&#xc1;" horiz-adv-x="422" 
d="M390 682q-3 -4 -11 -12t-18 -17.5t-21 -19.5t-19 -17q-3 -3 -3 -5q0 -3 3 -3t5 2q8 7 19 17t22 19t20 16.5t14 9.5q10 4 10 12q0 7 -7 7t-14 -9zM27 0l75 136h305l18 -136h9l-78 620l-261 -474h-34l-2 -10h31l-75 -136h12zM349 587l57 -441h-299z" />
    <glyph glyph-name="Acircumflex" unicode="&#xc2;" horiz-adv-x="440" 
d="M374 696l84 -47l6 8l-89 50l-109 -49l5 -8zM27 0l75 136h305l18 -136h9l-78 620l-261 -474h-34l-2 -10h31l-75 -136h12zM349 587l57 -441h-299z" />
    <glyph glyph-name="Atilde" unicode="&#xc3;" horiz-adv-x="440" 
d="M255 634h10q2 14 15 25t33 11q16 0 25 -5t17 -12q8 -8 19.5 -14t30.5 -6q23 0 36.5 12.5t18.5 33.5h-10q-3 -16 -13 -26t-32 -10q-17 0 -26 5t-17 12t-18.5 13.5t-30.5 6.5q-23 0 -39.5 -14t-18.5 -32zM27 0l75 136h305l18 -136h9l-78 620l-261 -474h-34l-2 -10h31
l-75 -136h12zM349 587l57 -441h-299z" />
    <glyph glyph-name="Adieresis" unicode="&#xc4;" horiz-adv-x="440" 
d="M323 655q2 7 0.5 14t-8.5 7t-10.5 -6.5t-5.5 -14.5q-2 -7 -0.5 -15t8.5 -8t10.5 7.5t5.5 15.5zM426 655q2 7 0.5 14t-8.5 7t-10.5 -6.5t-5.5 -14.5q-2 -7 -0.5 -15t8.5 -8t10.5 7.5t5.5 15.5zM27 0l75 136h305l18 -136h9l-78 620l-261 -474h-34l-2 -10h31l-75 -136h12z
M349 587l57 -441h-299z" />
    <glyph glyph-name="Aring" unicode="&#xc5;" horiz-adv-x="440" 
d="M315 667q0 -17 10.5 -29.5t33.5 -12.5q27 0 41.5 17.5t14.5 37.5q0 17 -10.5 29.5t-33.5 12.5q-27 0 -41.5 -17.5t-14.5 -37.5zM324 667q0 17 12 32t34 15q18 0 27 -10t9 -24q0 -17 -12.5 -32t-34.5 -15q-18 0 -26.5 10t-8.5 24zM27 0l75 136h305l18 -136h9l-78 620
l-261 -474h-34l-2 -10h31l-75 -136h12zM349 587l57 -441h-299z" />
    <glyph glyph-name="AE" unicode="&#xc6;" horiz-adv-x="568" 
d="M12 0h12l341 477h51l-62 -290q-4 -16 -4 -38q0 -30 10.5 -57.5t32.5 -48.5t56.5 -34t82.5 -13l2 10q-46 0 -78.5 12t-53.5 32t-31 46t-10 55q0 21 4 38l61 288h208l3 10h-209l21 98h208l2 10h-222zM418 487h-46l66 92z" />
    <glyph glyph-name="Ccedilla" unicode="&#xc7;" horiz-adv-x="290" 
d="M85 238q0 -66 26 -119t74 -85q0 -3 -1 -20t-6.5 -40.5t-17 -50t-31.5 -48.5l8 -6q20 21 31.5 46t17.5 48t7.5 40.5t1.5 23.5q34 -20 75 -26l2 9q-41 7 -74 27.5t-55.5 50.5t-34.5 68.5t-12 81.5q0 74 25 135.5t66 106.5t92 73t104 35l2 10q-55 -6 -109 -34.5t-96.5 -75
t-68.5 -110t-26 -140.5z" />
    <glyph glyph-name="Egrave" unicode="&#xc8;" horiz-adv-x="305" 
d="M244 693q4 -3 10.5 -11t14.5 -18t16 -20.5t14 -19.5q3 -3 5 -3q3 0 3 3q0 2 -2 4q-6 9 -14 20t-15 21t-12.5 18.5t-6.5 13.5q-5 12 -12 12q-8 0 -8 -8q0 -6 7 -12zM373 487h-209l21 98h208l2 10h-218l-23 -108h-18l-3 -10h19l-54 -257q-5 -24 -7 -41t-2 -32
q0 -70 43 -110.5t136 -40.5l2 10q-89 0 -130 38t-41 107q0 14 2 31t7 42l54 253h208z" />
    <glyph glyph-name="Eacute" unicode="&#xc9;" horiz-adv-x="305" 
d="M333 682q-3 -4 -11 -12t-18 -17.5t-21 -19.5t-19 -17q-3 -3 -3 -5q0 -3 3 -3t5 2q8 7 19 17t22 19t20 16.5t14 9.5q10 4 10 12q0 7 -7 7t-14 -9zM373 487h-209l21 98h208l2 10h-218l-23 -108h-18l-3 -10h19l-54 -257q-5 -24 -7 -41t-2 -32q0 -70 43 -110.5t136 -40.5
l2 10q-89 0 -130 38t-41 107q0 14 2 31t7 42l54 253h208z" />
    <glyph glyph-name="Ecircumflex" unicode="&#xca;" horiz-adv-x="305" 
d="M309 696l84 -47l6 8l-89 50l-109 -49l5 -8zM373 487h-209l21 98h208l2 10h-218l-23 -108h-18l-3 -10h19l-54 -257q-5 -24 -7 -41t-2 -32q0 -70 43 -110.5t136 -40.5l2 10q-89 0 -130 38t-41 107q0 14 2 31t7 42l54 253h208z" />
    <glyph glyph-name="Edieresis" unicode="&#xcb;" horiz-adv-x="305" 
d="M267 655q2 7 0.5 14t-8.5 7t-10.5 -6.5t-5.5 -14.5q-2 -7 -0.5 -15t8.5 -8t10.5 7.5t5.5 15.5zM370 655q2 7 0.5 14t-8.5 7t-10.5 -6.5t-5.5 -14.5q-2 -7 -0.5 -15t8.5 -8t10.5 7.5t5.5 15.5zM373 487h-209l21 98h208l2 10h-218l-23 -108h-18l-3 -10h19l-54 -257
q-5 -24 -7 -41t-2 -32q0 -70 43 -110.5t136 -40.5l2 10q-89 0 -130 38t-41 107q0 14 2 31t7 42l54 253h208z" />
    <glyph glyph-name="Igrave" unicode="&#xcc;" horiz-adv-x="120" 
d="M138 693q4 -3 10.5 -11t14.5 -18t16 -20.5t14 -19.5q3 -3 5 -3q3 0 3 3q0 2 -2 4q-6 9 -14 20t-15 21t-12.5 18.5t-6.5 13.5q-5 12 -12 12q-8 0 -8 -8q0 -6 7 -12zM61 0h10l126 595h-10z" />
    <glyph glyph-name="Iacute" unicode="&#xcd;" horiz-adv-x="120" 
d="M251 682q-3 -4 -11 -12t-18 -17.5t-21 -19.5t-19 -17q-3 -3 -3 -5q0 -3 3 -3t5 2q8 7 19 17t22 19t20 16.5t14 9.5q10 4 10 12q0 7 -7 7t-14 -9zM61 0h10l126 595h-10z" />
    <glyph glyph-name="Icircumflex" unicode="&#xce;" horiz-adv-x="120" 
d="M212 696l84 -47l6 8l-89 50l-109 -49l5 -8zM61 0h10l126 595h-10z" />
    <glyph glyph-name="Idieresis" unicode="&#xcf;" horiz-adv-x="120" 
d="M157 655q2 7 0.5 14t-8.5 7t-10.5 -6.5t-5.5 -14.5q-2 -7 -0.5 -15t8.5 -8t10.5 7.5t5.5 15.5zM260 655q2 7 0.5 14t-8.5 7t-10.5 -6.5t-5.5 -14.5q-2 -7 -0.5 -15t8.5 -8t10.5 7.5t5.5 15.5zM61 0h10l126 595h-10z" />
    <glyph glyph-name="Eth" unicode="&#xd0;" horiz-adv-x="347" 
d="M118 298l61 286q36 -5 72 -25.5t65.5 -52t47.5 -73.5t18 -91q0 -77 -28.5 -137.5t-74.5 -103t-104.5 -66t-117.5 -25.5l59 278h128l2 10h-128zM105 288l-61 -288q71 1 134.5 25t111 68.5t75.5 107.5t28 141q0 52 -19 96.5t-50.5 78t-71.5 54t-82 25.5l-63 -298h-71
l-2 -10h71z" />
    <glyph glyph-name="Ntilde" unicode="&#xd1;" horiz-adv-x="425" 
d="M255 634h10q2 14 15 25t33 11q16 0 25 -5t17 -12q8 -8 19.5 -14t30.5 -6q23 0 36.5 12.5t18.5 33.5h-10q-3 -16 -13 -26t-32 -10q-17 0 -26 5t-17 12t-18.5 13.5t-30.5 6.5q-23 0 -39.5 -14t-18.5 -32zM43 0h10l124 585q31 -2 68 -9.5t76 -22t78.5 -36.5t77.5 -52
l-99 -465h10l126 595h-10l-25 -119q-74 60 -154 87.5t-156 31.5z" />
    <glyph glyph-name="Ograve" unicode="&#xd2;" horiz-adv-x="665" 
d="M430 693q4 -3 10.5 -11t14.5 -18t16 -20.5t14 -19.5q3 -3 5 -3q3 0 3 3q0 2 -2 4q-6 9 -14 20t-15 21t-12.5 18.5t-6.5 13.5q-5 12 -12 12q-8 0 -8 -8q0 -6 7 -12zM84 250q0 -60 20 -107.5t56 -81.5t86.5 -52t111.5 -18q73 0 137.5 27.5t111.5 75.5t74.5 112.5
t27.5 138.5q0 57 -19 104.5t-54.5 82.5t-85.5 54.5t-113 19.5q-76 0 -140.5 -28t-112 -76t-74 -113t-26.5 -139zM433 596q62 0 111.5 -19t84 -52.5t52.5 -79.5t18 -100q0 -71 -27.5 -134t-74 -109.5t-108.5 -73.5t-131 -27q-59 0 -107.5 18.5t-83 51.5t-54 78.5t-19.5 100.5
q0 70 26 133t71.5 110t107.5 75t134 28z" />
    <glyph glyph-name="Oacute" unicode="&#xd3;" horiz-adv-x="665" 
d="M510 692q-3 -4 -11 -12t-18 -17.5t-21 -19.5t-19 -17q-3 -3 -3 -5q0 -3 3 -3t5 2q8 7 19 17t22 19t20 16.5t14 9.5q10 4 10 12q0 7 -7 7t-14 -9zM84 250q0 -60 20 -107.5t56 -81.5t86.5 -52t111.5 -18q73 0 137.5 27.5t111.5 75.5t74.5 112.5t27.5 138.5q0 57 -19 104.5
t-54.5 82.5t-85.5 54.5t-113 19.5q-76 0 -140.5 -28t-112 -76t-74 -113t-26.5 -139zM433 596q62 0 111.5 -19t84 -52.5t52.5 -79.5t18 -100q0 -71 -27.5 -134t-74 -109.5t-108.5 -73.5t-131 -27q-59 0 -107.5 18.5t-83 51.5t-54 78.5t-19.5 100.5q0 70 26 133t71.5 110
t107.5 75t134 28z" />
    <glyph glyph-name="Ocircumflex" unicode="&#xd4;" horiz-adv-x="665" 
d="M478 696l84 -47l6 8l-89 50l-109 -49l5 -8zM84 250q0 -60 20 -107.5t56 -81.5t86.5 -52t111.5 -18q73 0 137.5 27.5t111.5 75.5t74.5 112.5t27.5 138.5q0 57 -19 104.5t-54.5 82.5t-85.5 54.5t-113 19.5q-76 0 -140.5 -28t-112 -76t-74 -113t-26.5 -139zM433 596
q62 0 111.5 -19t84 -52.5t52.5 -79.5t18 -100q0 -71 -27.5 -134t-74 -109.5t-108.5 -73.5t-131 -27q-59 0 -107.5 18.5t-83 51.5t-54 78.5t-19.5 100.5q0 70 26 133t71.5 110t107.5 75t134 28z" />
    <glyph glyph-name="Otilde" unicode="&#xd5;" horiz-adv-x="665" 
d="M357 634h10q2 14 15 25t33 11q16 0 25 -5t17 -12q8 -8 19.5 -14t30.5 -6q23 0 36.5 12.5t18.5 33.5h-10q-3 -16 -13 -26t-32 -10q-17 0 -26 5t-17 12t-18.5 13.5t-30.5 6.5q-23 0 -39.5 -14t-18.5 -32zM84 250q0 -60 20 -107.5t56 -81.5t86.5 -52t111.5 -18
q73 0 137.5 27.5t111.5 75.5t74.5 112.5t27.5 138.5q0 57 -19 104.5t-54.5 82.5t-85.5 54.5t-113 19.5q-76 0 -140.5 -28t-112 -76t-74 -113t-26.5 -139zM433 596q62 0 111.5 -19t84 -52.5t52.5 -79.5t18 -100q0 -71 -27.5 -134t-74 -109.5t-108.5 -73.5t-131 -27
q-59 0 -107.5 18.5t-83 51.5t-54 78.5t-19.5 100.5q0 70 26 133t71.5 110t107.5 75t134 28z" />
    <glyph glyph-name="Odieresis" unicode="&#xd6;" horiz-adv-x="665" 
d="M526 655q2 7 0.5 14t-8.5 7t-10.5 -6.5t-5.5 -14.5q-2 -7 -0.5 -15t8.5 -8t10.5 7.5t5.5 15.5zM423 655q2 7 0.5 14t-8.5 7t-10.5 -6.5t-5.5 -14.5q-2 -7 -0.5 -15t8.5 -8t10.5 7.5t5.5 15.5zM84 250q0 -60 20 -107.5t56 -81.5t86.5 -52t111.5 -18q73 0 137.5 27.5
t111.5 75.5t74.5 112.5t27.5 138.5q0 57 -19 104.5t-54.5 82.5t-85.5 54.5t-113 19.5q-76 0 -140.5 -28t-112 -76t-74 -113t-26.5 -139zM433 596q62 0 111.5 -19t84 -52.5t52.5 -79.5t18 -100q0 -71 -27.5 -134t-74 -109.5t-108.5 -73.5t-131 -27q-59 0 -107.5 18.5
t-83 51.5t-54 78.5t-19.5 100.5q0 70 26 133t71.5 110t107.5 75t134 28z" />
    <glyph glyph-name="multiply" unicode="&#xd7;" horiz-adv-x="361" 
d="M67 413l-33 -22l123 -183l-125 -185l33 -23l117 173l117 -173l34 21l-126 188l123 183l-34 21l-114 -171z" />
    <glyph glyph-name="Oslash" unicode="&#xd8;" horiz-adv-x="648" 
d="M189 -27l28 49q59 -31 141 -31q73 0 137.5 27.5t111.5 75.5t74.5 112.5t27.5 138.5q0 87 -42.5 150.5t-117.5 91.5l23 40h-11l-22 -37q-45 16 -102 16q-76 0 -140.5 -28t-112 -76t-74 -113t-26.5 -139q0 -78 32.5 -134.5t90.5 -88.5l-31 -54h13zM358 1q-76 0 -135 31
l320 546q75 -28 115.5 -89.5t40.5 -143.5q0 -71 -27.5 -134t-74 -109.5t-108.5 -73.5t-131 -27zM534 581l-320 -544q-57 32 -88.5 87t-31.5 126q0 70 26 133t71.5 110t107.5 75t134 28q56 0 101 -15z" />
    <glyph glyph-name="Ugrave" unicode="&#xd9;" horiz-adv-x="365" 
d="M258 693q4 -3 10.5 -11t14.5 -18t16 -20.5t14 -19.5q3 -3 5 -3q3 0 3 3q0 2 -2 4q-6 9 -14 20t-15 21t-12.5 18.5t-6.5 13.5q-5 12 -12 12q-8 0 -8 -8q0 -6 7 -12zM185 595h-10l-95 -451q-2 -8 -3 -17t-1 -18q0 -21 6.5 -42.5t21 -38t38 -27t58.5 -10.5q36 0 63.5 12
t47.5 32.5t32.5 47t18.5 56.5l97 456h-10l-97 -456q-6 -25 -17.5 -50t-29.5 -44.5t-44 -31.5t-60 -12q-33 0 -55.5 9.5t-36 25.5t-19 35.5t-5.5 39.5q0 9 1 18t3 17z" />
    <glyph glyph-name="Uacute" unicode="&#xda;" horiz-adv-x="360" 
d="M377 682q-3 -4 -11 -12t-18 -17.5t-21 -19.5t-19 -17q-3 -3 -3 -5q0 -3 3 -3t5 2q8 7 19 17t22 19t20 16.5t14 9.5q10 4 10 12q0 7 -7 7t-14 -9zM185 595h-10l-95 -451q-2 -8 -3 -17t-1 -18q0 -21 6.5 -42.5t21 -38t38 -27t58.5 -10.5q36 0 63.5 12t47.5 32.5t32.5 47
t18.5 56.5l97 456h-10l-97 -456q-6 -25 -17.5 -50t-29.5 -44.5t-44 -31.5t-60 -12q-33 0 -55.5 9.5t-36 25.5t-19 35.5t-5.5 39.5q0 9 1 18t3 17z" />
    <glyph glyph-name="Ucircumflex" unicode="&#xdb;" horiz-adv-x="360" 
d="M336 696l84 -47l6 8l-89 50l-109 -49l5 -8zM185 595h-10l-95 -451q-2 -8 -3 -17t-1 -18q0 -21 6.5 -42.5t21 -38t38 -27t58.5 -10.5q36 0 63.5 12t47.5 32.5t32.5 47t18.5 56.5l97 456h-10l-97 -456q-6 -25 -17.5 -50t-29.5 -44.5t-44 -31.5t-60 -12q-33 0 -55.5 9.5
t-36 25.5t-19 35.5t-5.5 39.5q0 9 1 18t3 17z" />
    <glyph glyph-name="Udieresis" unicode="&#xdc;" horiz-adv-x="365" 
d="M392 655q2 7 0.5 14t-8.5 7t-10.5 -6.5t-5.5 -14.5q-2 -7 -0.5 -15t8.5 -8t10.5 7.5t5.5 15.5zM289 655q2 7 0.5 14t-8.5 7t-10.5 -6.5t-5.5 -14.5q-2 -7 -0.5 -15t8.5 -8t10.5 7.5t5.5 15.5zM185 595h-10l-95 -451q-2 -8 -3 -17t-1 -18q0 -21 6.5 -42.5t21 -38t38 -27
t58.5 -10.5q36 0 63.5 12t47.5 32.5t32.5 47t18.5 56.5l97 456h-10l-97 -456q-6 -25 -17.5 -50t-29.5 -44.5t-44 -31.5t-60 -12q-33 0 -55.5 9.5t-36 25.5t-19 35.5t-5.5 39.5q0 9 1 18t3 17z" />
    <glyph glyph-name="Yacute" unicode="&#xdd;" horiz-adv-x="337" 
d="M275 470l-125 125h-13l131 -131l-98 -466h10l98 464l180 133h-16zM358 682q-3 -4 -11 -12t-18 -17.5t-21 -19.5t-19 -17q-3 -3 -3 -5q0 -3 3 -3t5 2q8 7 19 17t22 19t20 16.5t14 9.5q10 4 10 12q0 7 -7 7t-14 -9z" />
    <glyph glyph-name="Thorn" unicode="&#xde;" horiz-adv-x="298" 
d="M59 0h10l24 114q52 0 98 18t80 49.5t53.5 74.5t19.5 92q0 80 -46 126.5t-118 50.5l15 70h-10zM333 347q0 -46 -19 -86.5t-51.5 -71t-76 -48t-91.5 -17.5l83 391q31 0 59.5 -11t49.5 -32t33.5 -52.5t12.5 -72.5z" />
    <glyph glyph-name="germandbls" unicode="&#xdf;" horiz-adv-x="382" 
d="M303 600q-38 0 -65 -11.5t-45.5 -32t-30.5 -47t-18 -56.5l-27 -124h-25l-2 -10h25l-67 -319h10l96 452q6 28 17 53t28.5 44t42 30t58.5 11q31 0 52.5 -9t35.5 -25t20.5 -37t6.5 -46q0 -16 -6.5 -40.5t-24 -47t-48 -39t-78.5 -16.5l-2 -10q66 0 98.5 -34t32.5 -94
q0 -36 -15 -68.5t-41 -58t-61.5 -40.5t-75.5 -15l-2 -10q43 0 81 15.5t65.5 42t43.5 61.5t16 73q0 31 -8 54.5t-21.5 39.5t-31 25.5t-36.5 14.5q30 4 53 18.5t39 35t24.5 45t8.5 49.5q0 54 -29.5 90t-93.5 36z" />
    <glyph glyph-name="agrave" unicode="&#xe0;" 
d="M205 473q4 -3 14 -16t21.5 -29t23 -31t17.5 -24q3 -3 5 -3q3 0 3 3q0 2 -2 4q-6 9 -17 24.5t-22 32t-20 29.5t-10 18q-5 12 -12 12q-8 0 -8 -8q0 -6 7 -12zM164 299l6 -8q35 29 94 29q77 0 77 -59q0 -5 -0.5 -10t-1.5 -10l-13 -63q-2 7 -7.5 19t-18 23.5t-33.5 20
t-54 8.5q-36 0 -64.5 -13t-47.5 -34t-29 -46.5t-10 -50.5q0 -22 7 -42t20.5 -35.5t34.5 -24.5t50 -9q26 0 47 7t36.5 17t26 21t16.5 19l-12 -58h10l52 245q1 5 1.5 9t0.5 8q0 30 -22 49t-64 19q-34 0 -58.5 -8t-43.5 -23zM72 105q0 23 9 46.5t26.5 43t43.5 32t61 12.5
q56 0 81.5 -26.5t25.5 -64.5q0 -32 -11.5 -58t-31 -45.5t-45.5 -30t-55 -10.5q-27 0 -46.5 8.5t-32.5 23t-19 32.5t-6 37z" />
    <glyph glyph-name="aacute" unicode="&#xe1;" 
d="M372 475q-3 -4 -16 -16t-29.5 -26.5t-33 -28.5t-24.5 -21q-3 -3 -3 -5q0 -3 3 -3t5 2q8 7 24.5 21t33.5 28t31.5 25.5t19.5 13.5q10 4 10 12q0 7 -7 7t-14 -9zM164 299l6 -8q35 29 94 29q77 0 77 -59q0 -5 -0.5 -10t-1.5 -10l-13 -63q-2 7 -7.5 19t-18 23.5t-33.5 20
t-54 8.5q-36 0 -64.5 -13t-47.5 -34t-29 -46.5t-10 -50.5q0 -22 7 -42t20.5 -35.5t34.5 -24.5t50 -9q26 0 47 7t36.5 17t26 21t16.5 19l-12 -58h10l52 245q1 5 1.5 9t0.5 8q0 30 -22 49t-64 19q-34 0 -58.5 -8t-43.5 -23zM72 105q0 23 9 46.5t26.5 43t43.5 32t61 12.5
q56 0 81.5 -26.5t25.5 -64.5q0 -32 -11.5 -58t-31 -45.5t-45.5 -30t-55 -10.5q-27 0 -46.5 8.5t-32.5 23t-19 32.5t-6 37z" />
    <glyph glyph-name="acircumflex" unicode="&#xe2;" 
d="M291 440l83 -47l6 8l-89 50l-109 -49l5 -8zM164 299l6 -8q35 29 94 29q77 0 77 -59q0 -5 -0.5 -10t-1.5 -10l-13 -63q-2 7 -7.5 19t-18 23.5t-33.5 20t-54 8.5q-36 0 -64.5 -13t-47.5 -34t-29 -46.5t-10 -50.5q0 -22 7 -42t20.5 -35.5t34.5 -24.5t50 -9q26 0 47 7
t36.5 17t26 21t16.5 19l-12 -58h10l52 245q1 5 1.5 9t0.5 8q0 30 -22 49t-64 19q-34 0 -58.5 -8t-43.5 -23zM72 105q0 23 9 46.5t26.5 43t43.5 32t61 12.5q56 0 81.5 -26.5t25.5 -64.5q0 -32 -11.5 -58t-31 -45.5t-45.5 -30t-55 -10.5q-27 0 -46.5 8.5t-32.5 23t-19 32.5
t-6 37z" />
    <glyph glyph-name="atilde" unicode="&#xe3;" 
d="M178 388h10q2 14 15 25t33 11q16 0 25 -5t17 -12q8 -8 19.5 -14t30.5 -6q23 0 36.5 12.5t18.5 33.5h-10q-3 -16 -13 -26t-32 -10q-17 0 -26 5t-17 12t-18.5 13.5t-30.5 6.5q-23 0 -39.5 -14t-18.5 -32zM164 299l6 -8q35 29 94 29q77 0 77 -59q0 -5 -0.5 -10t-1.5 -10
l-13 -63q-2 7 -7.5 19t-18 23.5t-33.5 20t-54 8.5q-36 0 -64.5 -13t-47.5 -34t-29 -46.5t-10 -50.5q0 -22 7 -42t20.5 -35.5t34.5 -24.5t50 -9q26 0 47 7t36.5 17t26 21t16.5 19l-12 -58h10l52 245q1 5 1.5 9t0.5 8q0 30 -22 49t-64 19q-34 0 -58.5 -8t-43.5 -23zM72 105
q0 23 9 46.5t26.5 43t43.5 32t61 12.5q56 0 81.5 -26.5t25.5 -64.5q0 -32 -11.5 -58t-31 -45.5t-45.5 -30t-55 -10.5q-27 0 -46.5 8.5t-32.5 23t-19 32.5t-6 37z" />
    <glyph glyph-name="adieresis" unicode="&#xe4;" 
d="M342 403q2 7 0.5 14t-8.5 7t-10.5 -6.5t-5.5 -14.5q-2 -7 -0.5 -15t8.5 -8t10.5 7.5t5.5 15.5zM239 403q2 7 0.5 14t-8.5 7t-10.5 -6.5t-5.5 -14.5q-2 -7 -0.5 -15t8.5 -8t10.5 7.5t5.5 15.5zM164 299l6 -8q35 29 94 29q77 0 77 -59q0 -5 -0.5 -10t-1.5 -10l-13 -63
q-2 7 -7.5 19t-18 23.5t-33.5 20t-54 8.5q-36 0 -64.5 -13t-47.5 -34t-29 -46.5t-10 -50.5q0 -22 7 -42t20.5 -35.5t34.5 -24.5t50 -9q26 0 47 7t36.5 17t26 21t16.5 19l-12 -58h10l52 245q1 5 1.5 9t0.5 8q0 30 -22 49t-64 19q-34 0 -58.5 -8t-43.5 -23zM72 105
q0 23 9 46.5t26.5 43t43.5 32t61 12.5q56 0 81.5 -26.5t25.5 -64.5q0 -32 -11.5 -58t-31 -45.5t-45.5 -30t-55 -10.5q-27 0 -46.5 8.5t-32.5 23t-19 32.5t-6 37z" />
    <glyph glyph-name="aring" unicode="&#xe5;" 
d="M236 422q0 -17 10.5 -29.5t33.5 -12.5q27 0 41.5 17.5t14.5 37.5q0 17 -10.5 29.5t-33.5 12.5q-27 0 -41.5 -17.5t-14.5 -37.5zM245 422q0 17 12 32t34 15q18 0 27 -10t9 -24q0 -17 -12.5 -32t-34.5 -15q-18 0 -26.5 10t-8.5 24zM164 299l6 -8q35 29 94 29q77 0 77 -59
q0 -5 -0.5 -10t-1.5 -10l-13 -63q-2 7 -7.5 19t-18 23.5t-33.5 20t-54 8.5q-36 0 -64.5 -13t-47.5 -34t-29 -46.5t-10 -50.5q0 -22 7 -42t20.5 -35.5t34.5 -24.5t50 -9q26 0 47 7t36.5 17t26 21t16.5 19l-12 -58h10l52 245q1 5 1.5 9t0.5 8q0 30 -22 49t-64 19
q-34 0 -58.5 -8t-43.5 -23zM72 105q0 23 9 46.5t26.5 43t43.5 32t61 12.5q56 0 81.5 -26.5t25.5 -64.5q0 -32 -11.5 -58t-31 -45.5t-45.5 -30t-55 -10.5q-27 0 -46.5 8.5t-32.5 23t-19 32.5t-6 37z" />
    <glyph glyph-name="ae" unicode="&#xe6;" horiz-adv-x="542" 
d="M72 105q0 23 9 46.5t27.5 43t46 32t65.5 12.5q50 0 74.5 -26.5t24.5 -64.5q0 -31 -11.5 -57t-32 -45.5t-47.5 -30.5t-58 -11q-25 0 -43.5 8.5t-30.5 23t-18 32.5t-6 37zM590 306l-260 -158l0.5 6t2.5 12q8 39 26.5 68t43.5 48.5t55 29.5t61 10q23 0 41 -5t30 -11z
M350 245q8 38 -14 61.5t-70 23.5q-34 0 -58.5 -8t-43.5 -23l6 -8q35 29 94 29q45 0 64 -20.5t11 -58.5l-13 -63q-2 7 -7.5 19t-17 23.5t-31 20t-48.5 8.5q-40 0 -70 -13t-50 -34t-30 -46.5t-10 -50.5q0 -22 6.5 -42t20 -35.5t33.5 -24.5t46 -9q28 0 50.5 7t38.5 17t26.5 21
t16.5 19l-12 -58h10l23 108q9 -43 33.5 -71t70.5 -41l4 10q-55 15 -78 51.5t-22 77.5l280 171q-16 12 -38.5 19t-50.5 7q-51 0 -97 -24.5t-75 -73.5z" />
    <glyph glyph-name="ccedilla" unicode="&#xe7;" horiz-adv-x="197" 
d="M65 135q0 -64 41 -103q0 -5 -2.5 -24t-9.5 -44.5t-19.5 -52.5t-33.5 -49l7 -6q21 21 34 48t20 51.5t9.5 44t2.5 25.5q22 -19 54 -28l2 10q-49 14 -72 48.5t-23 79.5q0 35 12.5 66t33 55t47.5 40t57 22l2 10q-33 -6 -62 -23t-51.5 -42.5t-35.5 -58t-13 -69.5z" />
    <glyph glyph-name="egrave" unicode="&#xe8;" horiz-adv-x="290" 
d="M177 473q4 -3 14 -16t21.5 -29t23 -31t17.5 -24q3 -3 5 -3q3 0 3 3q0 2 -2 4q-6 9 -17 24.5t-22 32t-20 29.5t-10 18q-5 12 -12 12q-8 0 -8 -8q0 -6 7 -12zM59 134q0 -46 24 -84t81 -54l4 10q-55 16 -77.5 51.5t-22.5 77.5l280 171q-16 12 -38.5 19t-50.5 7
q-44 0 -81 -16t-63.5 -43.5t-41 -63.5t-14.5 -75zM329 306l-260 -159q3 35 17.5 67t39.5 56t58.5 38t73.5 14q23 0 41 -5t30 -11z" />
    <glyph glyph-name="eacute" unicode="&#xe9;" horiz-adv-x="290" 
d="M320 475q-3 -4 -16 -16t-29.5 -26.5t-33 -28.5t-24.5 -21q-3 -3 -3 -5q0 -3 3 -3t5 2q8 7 24.5 21t33.5 28t31.5 25.5t19.5 13.5q10 4 10 12q0 7 -7 7t-14 -9zM59 134q0 -46 24 -84t81 -54l4 10q-55 16 -77.5 51.5t-22.5 77.5l280 171q-16 12 -38.5 19t-50.5 7
q-44 0 -81 -16t-63.5 -43.5t-41 -63.5t-14.5 -75zM329 306l-260 -159q3 35 17.5 67t39.5 56t58.5 38t73.5 14q23 0 41 -5t30 -11z" />
    <glyph glyph-name="ecircumflex" unicode="&#xea;" horiz-adv-x="290" 
d="M270 441l82 -47l5 7l-87 50l-109 -49l4 -8zM59 134q0 -46 24 -84t81 -54l4 10q-55 16 -77.5 51.5t-22.5 77.5l280 171q-16 12 -38.5 19t-50.5 7q-44 0 -81 -16t-63.5 -43.5t-41 -63.5t-14.5 -75zM329 306l-260 -159q3 35 17.5 67t39.5 56t58.5 38t73.5 14q23 0 41 -5
t30 -11z" />
    <glyph glyph-name="edieresis" unicode="&#xeb;" horiz-adv-x="290" 
d="M314 403q2 7 0.5 14t-8.5 7t-10.5 -6.5t-5.5 -14.5q-2 -7 -0.5 -15t8.5 -8t10.5 7.5t5.5 15.5zM211 403q2 7 0.5 14t-8.5 7t-10.5 -6.5t-5.5 -14.5q-2 -7 -0.5 -15t8.5 -8t10.5 7.5t5.5 15.5zM59 134q0 -46 24 -84t81 -54l4 10q-55 16 -77.5 51.5t-22.5 77.5l280 171
q-16 12 -38.5 19t-50.5 7q-44 0 -81 -16t-63.5 -43.5t-41 -63.5t-14.5 -75zM329 306l-260 -159q3 35 17.5 67t39.5 56t58.5 38t73.5 14q23 0 41 -5t30 -11z" />
    <glyph glyph-name="igrave" unicode="&#xec;" horiz-adv-x="133" 
d="M64 0h10l69 325h-10zM72 473q4 -3 14 -16t21.5 -29t23 -31t17.5 -24q3 -3 5 -3q3 0 3 3q0 2 -2 4q-6 9 -17 24.5t-22 32t-20 29.5t-10 18q-5 12 -12 12q-8 0 -8 -8q0 -6 7 -12z" />
    <glyph glyph-name="iacute" unicode="&#xed;" horiz-adv-x="133" 
d="M60 0h10l69 325h-10zM242 475q-3 -4 -16 -16t-29.5 -26.5t-33 -28.5t-24.5 -21q-3 -3 -3 -5q0 -3 3 -3t5 2q8 7 24.5 21t33.5 28t31.5 25.5t19.5 13.5q10 4 10 12q0 7 -7 7t-14 -9z" />
    <glyph glyph-name="icircumflex" unicode="&#xee;" horiz-adv-x="133" 
d="M156 441l85 -48l6 8l-89 50l-109 -49l2 -8zM62 0h10l69 325h-10z" />
    <glyph glyph-name="idieresis" unicode="&#xef;" horiz-adv-x="133" 
d="M63 0h10l69 325h-10zM212 403q2 7 0.5 14t-8.5 7t-10.5 -6.5t-5.5 -14.5q-2 -7 -0.5 -15t8.5 -8t10.5 7.5t5.5 15.5zM109 403q2 7 0.5 14t-8.5 7t-10.5 -6.5t-5.5 -14.5q-2 -7 -0.5 -15t8.5 -8t10.5 7.5t5.5 15.5z" />
    <glyph glyph-name="eth" unicode="&#xf0;" horiz-adv-x="399" 
d="M251 322q67 0 105 -37.5t38 -98.5q0 -33 -13 -66t-37 -59t-57.5 -42t-73.5 -16q-69 0 -106.5 37.5t-37.5 99.5q0 35 13 68t36.5 58.5t57 40.5t75.5 15zM247 533l-72 -71l8 -8l72 72q54 -48 90 -120.5t45 -152.5q-17 35 -51.5 57t-85.5 22q-45 0 -80.5 -16t-61 -42.5
t-39 -61.5t-13.5 -72q0 -66 39.5 -106.5t111.5 -40.5q44 0 79.5 17t61 44t39.5 61.5t14 70.5q0 121 -37.5 206t-102.5 143l63 62l-8 8l-63 -63q-33 28 -70.5 43t-77.5 15v-10q38 0 72.5 -15t66.5 -42z" />
    <glyph glyph-name="ntilde" unicode="&#xf1;" horiz-adv-x="345" 
d="M148 388h10q2 14 15 25t33 11q16 0 25 -5t17 -12q8 -8 19.5 -14t30.5 -6q23 0 36.5 12.5t18.5 33.5h-10q-3 -16 -13 -26t-32 -10q-17 0 -26 5t-17 12t-18.5 13.5t-30.5 6.5q-23 0 -39.5 -14t-18.5 -32zM244 331q-26 0 -47 -7t-37 -17.5t-27 -23.5t-16 -25l14 67h-10
l-69 -325h10l47 223q14 39 48 68.5t85 29.5q46 0 72 -20.5t26 -58.5q0 -13 -3 -28l-45 -214h10l45 214q3 15 3 28q0 43 -29 66t-77 23z" />
    <glyph glyph-name="ograve" unicode="&#xf2;" horiz-adv-x="395" 
d="M209 473q4 -3 14 -16t21.5 -29t23 -31t17.5 -24q3 -3 5 -3q3 0 3 3q0 2 -2 4q-6 9 -17 24.5t-22 32t-20 29.5t-10 18q-5 12 -12 12q-8 0 -8 -8q0 -6 7 -12zM404 186q0 31 -10 58t-29.5 46.5t-47.5 30.5t-64 11q-45 0 -80.5 -16t-61 -42.5t-39 -61.5t-13.5 -72
q0 -66 39.5 -106.5t111.5 -40.5q44 0 79.5 17t61 44t39.5 61.5t14 70.5zM251 322q67 0 105 -37.5t38 -98.5q0 -33 -13 -66t-37 -59t-57.5 -42t-73.5 -16q-69 0 -106.5 37.5t-37.5 99.5q0 35 13 68t36.5 58.5t57 40.5t75.5 15z" />
    <glyph glyph-name="oacute" unicode="&#xf3;" horiz-adv-x="395" 
d="M360 475q-3 -4 -16 -16t-29.5 -26.5t-33 -28.5t-24.5 -21q-3 -3 -3 -5q0 -3 3 -3t5 2q8 7 24.5 21t33.5 28t31.5 25.5t19.5 13.5q10 4 10 12q0 7 -7 7t-14 -9zM404 186q0 31 -10 58t-29.5 46.5t-47.5 30.5t-64 11q-45 0 -80.5 -16t-61 -42.5t-39 -61.5t-13.5 -72
q0 -66 39.5 -106.5t111.5 -40.5q44 0 79.5 17t61 44t39.5 61.5t14 70.5zM251 322q67 0 105 -37.5t38 -98.5q0 -33 -13 -66t-37 -59t-57.5 -42t-73.5 -16q-69 0 -106.5 37.5t-37.5 99.5q0 35 13 68t36.5 58.5t57 40.5t75.5 15z" />
    <glyph glyph-name="ocircumflex" unicode="&#xf4;" horiz-adv-x="400" 
d="M291 440l83 -47l6 8l-89 50l-109 -49l5 -8zM404 186q0 31 -10 58t-29.5 46.5t-47.5 30.5t-64 11q-45 0 -80.5 -16t-61 -42.5t-39 -61.5t-13.5 -72q0 -66 39.5 -106.5t111.5 -40.5q44 0 79.5 17t61 44t39.5 61.5t14 70.5zM251 322q67 0 105 -37.5t38 -98.5q0 -33 -13 -66
t-37 -59t-57.5 -42t-73.5 -16q-69 0 -106.5 37.5t-37.5 99.5q0 35 13 68t36.5 58.5t57 40.5t75.5 15z" />
    <glyph glyph-name="otilde" unicode="&#xf5;" horiz-adv-x="400" 
d="M176 388h10q2 14 15 25t33 11q16 0 25 -5t17 -12q8 -8 19.5 -14t30.5 -6q23 0 36.5 12.5t18.5 33.5h-10q-3 -16 -13 -26t-32 -10q-17 0 -26 5t-17 12t-18.5 13.5t-30.5 6.5q-23 0 -39.5 -14t-18.5 -32zM404 186q0 31 -10 58t-29.5 46.5t-47.5 30.5t-64 11
q-45 0 -80.5 -16t-61 -42.5t-39 -61.5t-13.5 -72q0 -66 39.5 -106.5t111.5 -40.5q44 0 79.5 17t61 44t39.5 61.5t14 70.5zM251 322q67 0 105 -37.5t38 -98.5q0 -33 -13 -66t-37 -59t-57.5 -42t-73.5 -16q-69 0 -106.5 37.5t-37.5 99.5q0 35 13 68t36.5 58.5t57 40.5t75.5 15
z" />
    <glyph glyph-name="odieresis" unicode="&#xf6;" horiz-adv-x="400" 
d="M239 403q2 7 0.5 14t-8.5 7t-10.5 -6.5t-5.5 -14.5q-2 -7 -0.5 -15t8.5 -8t10.5 7.5t5.5 15.5zM342 403q2 7 0.5 14t-8.5 7t-10.5 -6.5t-5.5 -14.5q-2 -7 -0.5 -15t8.5 -8t10.5 7.5t5.5 15.5zM404 186q0 31 -10 58t-29.5 46.5t-47.5 30.5t-64 11q-45 0 -80.5 -16
t-61 -42.5t-39 -61.5t-13.5 -72q0 -66 39.5 -106.5t111.5 -40.5q44 0 79.5 17t61 44t39.5 61.5t14 70.5zM251 322q67 0 105 -37.5t38 -98.5q0 -33 -13 -66t-37 -59t-57.5 -42t-73.5 -16q-69 0 -106.5 37.5t-37.5 99.5q0 35 13 68t36.5 58.5t57 40.5t75.5 15z" />
    <glyph glyph-name="divide" unicode="&#xf7;" horiz-adv-x="345" 
d="M363 230l2 10h-275l-2 -10h275zM215 133q0 5 -1.5 9.5t-7.5 4.5q-8 0 -12 -10.5t-4 -18.5q0 -6 2 -10.5t8 -4.5q8 0 11.5 10.5t3.5 19.5zM262 355q0 5 -1.5 9.5t-7.5 4.5q-8 0 -12 -10.5t-4 -18.5q0 -6 2 -10.5t8 -4.5q8 0 11.5 10.5t3.5 19.5z" />
    <glyph glyph-name="oslash" unicode="&#xf8;" horiz-adv-x="385" 
d="M112 -17l17 28q17 -8 37.5 -13t43.5 -5q44 0 79.5 17t61 44t39.5 61.5t14 70.5q0 48 -22 83t-64 52l14 24h-11l-13 -21q-27 8 -55 8q-45 0 -80.5 -16t-61 -42.5t-39 -61.5t-13.5 -72q0 -41 16 -72.5t45 -50.5l-20 -34h12zM213 3q-44 0 -78 17l177 292q39 -15 60.5 -47.5
t21.5 -78.5q0 -33 -13 -66t-37 -59t-57.5 -42t-73.5 -16zM303 315l-177 -289q-28 17 -42.5 46.5t-14.5 67.5q0 35 13 68t36.5 58.5t57 40.5t75.5 15q30 0 52 -7z" />
    <glyph glyph-name="ugrave" unicode="&#xf9;" horiz-adv-x="345" 
d="M192 473q4 -3 14 -16t21.5 -29t23 -31t17.5 -24q3 -3 5 -3q3 0 3 3q0 2 -2 4q-6 9 -17 24.5t-22 32t-20 29.5t-10 18q-5 12 -12 12q-8 0 -8 -8q0 -6 7 -12zM125 325l-46 -219q-3 -14 -3 -26q0 -37 25 -63t82 -26q35 0 60 9t41.5 25t26 36.5t14.5 44.5l46 219h-10
l-46 -219q-4 -20 -12.5 -38.5t-23.5 -33.5t-37.5 -24t-55.5 -9q-54 0 -77 23t-23 56q0 12 3 26l46 219h-10z" />
    <glyph glyph-name="uacute" unicode="&#xfa;" horiz-adv-x="345" 
d="M352 475q-3 -4 -16 -16t-29.5 -26.5t-33 -28.5t-24.5 -21q-3 -3 -3 -5q0 -3 3 -3t5 2q8 7 24.5 21t33.5 28t31.5 25.5t19.5 13.5q10 4 10 12q0 7 -7 7t-14 -9zM125 325l-46 -219q-3 -14 -3 -26q0 -37 25 -63t82 -26q35 0 60 9t41.5 25t26 36.5t14.5 44.5l46 219h-10
l-46 -219q-4 -20 -12.5 -38.5t-23.5 -33.5t-37.5 -24t-55.5 -9q-54 0 -77 23t-23 56q0 12 3 26l46 219h-10z" />
    <glyph glyph-name="ucircumflex" unicode="&#xfb;" horiz-adv-x="345" 
d="M275 440l83 -47l6 8l-89 50l-109 -49l5 -8zM125 325l-46 -219q-3 -14 -3 -26q0 -37 25 -63t82 -26q35 0 60 9t41.5 25t26 36.5t14.5 44.5l46 219h-10l-46 -219q-4 -20 -12.5 -38.5t-23.5 -33.5t-37.5 -24t-55.5 -9q-54 0 -77 23t-23 56q0 12 3 26l46 219h-10z" />
    <glyph glyph-name="udieresis" unicode="&#xfc;" horiz-adv-x="345" 
d="M324 403q2 7 0.5 14t-8.5 7t-10.5 -6.5t-5.5 -14.5q-2 -7 -0.5 -15t8.5 -8t10.5 7.5t5.5 15.5zM221 403q2 7 0.5 14t-8.5 7t-10.5 -6.5t-5.5 -14.5q-2 -7 -0.5 -15t8.5 -8t10.5 7.5t5.5 15.5zM125 325l-46 -219q-3 -14 -3 -26q0 -37 25 -63t82 -26q35 0 60 9t41.5 25
t26 36.5t14.5 44.5l46 219h-10l-46 -219q-4 -20 -12.5 -38.5t-23.5 -33.5t-37.5 -24t-55.5 -9q-54 0 -77 23t-23 56q0 12 3 26l46 219h-10z" />
    <glyph glyph-name="yacute" unicode="&#xfd;" horiz-adv-x="286" 
d="M110 325h-10l45 -329l-187 -328h11l374 657h-12l-178 -314zM304 475q-3 -4 -16 -16t-29.5 -26.5t-33 -28.5t-24.5 -21q-3 -3 -3 -5q0 -3 3 -3t5 2q8 7 24.5 21t33.5 28t31.5 25.5t19.5 13.5q10 4 10 12q0 7 -7 7t-14 -9z" />
    <glyph glyph-name="thorn" unicode="&#xfe;" horiz-adv-x="417" 
d="M-9 -305h10l88 415q3 -21 13.5 -42t28.5 -37.5t44.5 -27t63.5 -10.5q44 0 79.5 17t61 44.5t39 62t13.5 69.5q0 64 -40 105t-111 41q-35 0 -62 -9t-47 -22t-33 -28t-20 -27l81 384h-10zM279 322q67 0 105 -37.5t38 -98.5q0 -33 -13 -66t-37 -59t-57.5 -42t-73.5 -16
q-69 0 -106.5 37.5t-37.5 99.5q0 35 13 68t36.5 58.5t57 40.5t75.5 15z" />
    <glyph glyph-name="ydieresis" unicode="&#xff;" horiz-adv-x="285" 
d="M110 325h-10l45 -329l-187 -328h11l374 657h-12l-178 -314zM290 403q2 7 0.5 14t-8.5 7t-10.5 -6.5t-5.5 -14.5q-2 -7 -0.5 -15t8.5 -8t10.5 7.5t5.5 15.5zM187 403q2 7 0.5 14t-8.5 7t-10.5 -6.5t-5.5 -14.5q-2 -7 -0.5 -15t8.5 -8t10.5 7.5t5.5 15.5zM110 325h-10
l45 -329l-187 -328h11l374 657h-12l-178 -314z" />
    <glyph glyph-name="OE" unicode="&#x152;" horiz-adv-x="865" 
d="M84 244q0 -57 18 -104t51.5 -80t81 -51t107.5 -18q65 0 119 20t96 50t70.5 65t42.5 65q-5 -20 -5 -41q0 -25 8 -52.5t29 -50t56 -37t89 -14.5l2 10q-51 0 -84.5 13t-53 34t-27.5 47t-8 52q0 21 5 43l60 282h208l3 10h-209l21 98h208l2 10h-218l-23 -108h-18l-2 -10h18
l-22 -105q-4 51 -23 94t-51.5 74t-79 48.5t-105.5 17.5q-75 0 -141.5 -28.5t-116.5 -78t-79 -115.5t-29 -140zM448 595q60 0 106.5 -18.5t78.5 -51.5t48.5 -77.5t16.5 -96.5q0 -72 -29 -135.5t-78 -111t-113 -75t-134 -27.5q-58 0 -104 18t-78.5 50.5t-49.5 76.5t-17 97
q0 70 27.5 133.5t75.5 112t112.5 77t137.5 28.5z" />
    <glyph glyph-name="oe" unicode="&#x153;" horiz-adv-x="620" 
d="M659 306l-260 -159q0 7 3 19q9 39 27.5 68.5t43 49t54.5 29t61 9.5q23 0 41 -5t30 -11zM589 332q-68 0 -117 -35.5t-69 -93.5q-5 56 -44 92.5t-106 36.5q-45 0 -80.5 -16t-61 -42.5t-39 -61.5t-13.5 -72q0 -66 39.5 -106.5t111.5 -40.5q33 0 61 9.5t51 26t40 38.5t27 47
q4 -38 28 -70.5t77 -47.5l4 10q-54 15 -76.5 49.5t-23.5 79.5l280 171q-16 12 -38.5 19t-50.5 7zM251 322q67 0 105 -37.5t38 -98.5q0 -33 -13 -66t-37 -59t-57.5 -42t-73.5 -16q-69 0 -106.5 37.5t-37.5 99.5q0 35 13 68t36.5 58.5t57 40.5t75.5 15z" />
    <glyph glyph-name="Scaron" unicode="&#x160;" horiz-adv-x="282" 
d="M223 327q-29 21 -49.5 45t-20.5 65q0 33 15.5 61.5t40 49.5t55.5 33t62 12l2 10q-34 0 -67.5 -13t-59.5 -35.5t-42.5 -52.5t-16.5 -65q0 -44 21.5 -69.5t53.5 -48.5t53.5 -53t21.5 -74q0 -42 -24.5 -77.5t-62 -61t-81.5 -39.5t-84 -14l-2 -10q46 0 93 15.5t85.5 43
t62.5 64.5t24 79q0 48 -22.5 78.5t-57.5 56.5zM267 642l-84 47l-6 -8l89 -50l109 49l-5 8z" />
    <glyph glyph-name="scaron" unicode="&#x161;" horiz-adv-x="189" 
d="M144 179q-17 17 -27.5 30t-10.5 32q0 18 7 31.5t18.5 22.5t25 14t27.5 7l1 10q-16 -2 -32 -7.5t-28.5 -16t-20.5 -25.5t-8 -36t12 -36.5t29 -32.5q16 -15 25.5 -31.5t9.5 -36.5q0 -23 -12 -40.5t-30.5 -30t-42 -21t-45.5 -11.5l-2 -10q25 4 50 12.5t45.5 22.5t33.5 33
t13 45q0 27 -12 44t-26 31zM143 393l-84 46l-6 -8l89 -50l109 49l-5 9z" />
    <glyph glyph-name="Ydieresis" unicode="&#x178;" horiz-adv-x="345" 
d="M275 470l-125 125h-13l131 -131l-98 -466h10l98 464l180 133h-16zM269 655q2 7 0.5 14t-8.5 7t-10.5 -6.5t-5.5 -14.5q-2 -7 -0.5 -15t8.5 -8t10.5 7.5t5.5 15.5zM372 655q2 7 0.5 14t-8.5 7t-10.5 -6.5t-5.5 -14.5q-2 -7 -0.5 -15t8.5 -8t10.5 7.5t5.5 15.5zM275 470
l-125 125h-13l131 -131l-98 -466h10l98 464l180 133h-16z" />
    <glyph glyph-name="florin" unicode="&#x192;" horiz-adv-x="445" 
d="M472 346h-346l-74 -346h346z" />
    <glyph glyph-name="circumflex" unicode="&#x2c6;" horiz-adv-x="295" 
d="M174 447l84 -47l6 8l-89 50l-109 -49l5 -8z" />
    <glyph glyph-name="tilde" unicode="&#x2dc;" horiz-adv-x="300" 
d="M60 388h10q2 14 15 25t33 11q16 0 25 -5t17 -12q8 -8 19.5 -14t30.5 -6q23 0 36.5 12.5t18.5 33.5h-10q-3 -16 -13 -26t-32 -10q-17 0 -26 5t-17 12t-18.5 13.5t-30.5 6.5q-23 0 -39.5 -14t-18.5 -32z" />
    <glyph glyph-name="endash" unicode="&#x2013;" horiz-adv-x="345" 
d="M363 230l2 10h-275l-2 -10h275z" />
    <glyph glyph-name="emdash" unicode="&#x2014;" horiz-adv-x="520" 
d="M524 230l2 10h-411l-2 -10h411z" />
    <glyph glyph-name="quoteleft" unicode="&#x2018;" horiz-adv-x="118" 
d="M161 612l-11 -5l50 -100l11 5z" />
    <glyph glyph-name="quoteright" unicode="&#x2019;" horiz-adv-x="118" 
d="M138 523l9 -8l77 81l-9 8z" />
    <glyph glyph-name="quotesinglbase" unicode="&#x201a;" horiz-adv-x="120" 
d="M52 6l9 -10l80 81l-9 14z" />
    <glyph glyph-name="quotedblleft" unicode="&#x201c;" horiz-adv-x="180" 
d="M222 612l-11 -5l50 -100l11 5zM161 612l-11 -5l50 -100l11 5z" />
    <glyph glyph-name="quotedblright" unicode="&#x201d;" horiz-adv-x="180" 
d="M138 523l9 -8l77 81l-9 8zM209 522l8 -7l78 80l-9 9z" />
    <glyph glyph-name="quotedblbase" unicode="&#x201e;" horiz-adv-x="185" 
d="M95 6l9 -10l80 81l-9 9zM34 6l9 -10l80 81l-9 9z" />
    <glyph glyph-name="dagger" unicode="&#x2020;" horiz-adv-x="160" 
d="M221 623h-10l-27 -134h-35l-2 -10h35l-54 -264h10l54 264h37l2 10h-37z" />
    <glyph glyph-name="daggerdbl" unicode="&#x2021;" horiz-adv-x="160" 
d="M157 534h36l-20 -100h-36l-2 -10h36l-54 -268h10l54 268h36l2 10h-36l20 100h36l2 10h-36l16 79h-10l-16 -79h-36z" />
    <glyph glyph-name="bullet" unicode="&#x2022;" horiz-adv-x="290" 
d="M79 214q0 -20 6 -38.5t18.5 -33t31 -23t43.5 -8.5q30 0 52.5 11t37.5 28t22.5 39t7.5 44q0 19 -6 37t-18.5 32t-31 22.5t-43.5 8.5q-30 0 -52.5 -10.5t-37.5 -27.5t-22.5 -38t-7.5 -43z" />
    <glyph glyph-name="ellipsis" unicode="&#x2026;" horiz-adv-x="293" 
d="M69 29q0 5 -1.5 9.5t-7.5 4.5q-8 0 -12 -10.5t-4 -18.5q0 -6 2 -10.5t8 -4.5q8 0 11.5 10.5t3.5 19.5zM169 29q0 5 -1.5 9.5t-7.5 4.5q-8 0 -12 -10.5t-4 -18.5q0 -6 2 -10.5t8 -4.5q8 0 11.5 10.5t3.5 19.5zM269 29q0 5 -1.5 9.5t-7.5 4.5q-8 0 -12 -10.5t-4 -18.5
q0 -6 2 -10.5t8 -4.5q8 0 11.5 10.5t3.5 19.5z" />
    <glyph glyph-name="perthousand" unicode="&#x2030;" horiz-adv-x="262" 
d="M328 422q0 40 -12.5 72.5t-35 55t-52.5 34.5t-64 12l-127 -596h10l39 182q20 -81 68.5 -148.5t141.5 -115.5l2 10q-86 44 -135.5 111.5t-67.5 146.5q45 0 87.5 18t74.5 50t51.5 75t19.5 93zM317 422q0 -48 -18.5 -89t-50 -71.5t-72.5 -48t-86 -17.5l83 390q28 0 54 -11.5
t46 -32.5t32 -51.5t12 -68.5z" />
    <glyph glyph-name="guilsinglleft" unicode="&#x2039;" horiz-adv-x="160" 
d="M79 184l107 151h-10l-107 -150l43 -150h10z" />
    <glyph glyph-name="guilsinglright" unicode="&#x203a;" horiz-adv-x="155" 
d="M163 185l-43 150h-10l43 -150l-107 -150h10z" />
    <glyph glyph-name="trademark" unicode="&#x2122;" horiz-adv-x="330" 
d="M277 622h-107l-1 -6h50l-32 -151h7l32 151h50zM308 624l-69 -158h7l59 135l18 -143l79 141v-133h7v158l-82 -145z" />
    <glyph glyph-name="NUL" unicode="&#xe000;" horiz-adv-x="0" 
 />
    <glyph glyph-name="HT" unicode="&#xe001;" horiz-adv-x="0" 
 />
    <glyph glyph-name="minus" unicode="&#xe003;" horiz-adv-x="464" 
d="M407 285h-350v-41h350v41z" />
    <glyph glyph-name="notequal" unicode="&#xe004;" horiz-adv-x="315" 
d="M307 180h-131l60 100h93l2 10h-89l43 72h-12l-43 -72h-109l-2 -10h105l-60 -100h-67l-2 -10h63l-43 -72h12l43 72h135z" />
    <glyph glyph-name="integral" unicode="&#xe005;" horiz-adv-x="653" 
d="M664 518h-518l-110 -518h518zM546 10h-498l106 498h498z" />
    <glyph glyph-name="radical" unicode="&#xe006;" horiz-adv-x="364" 
d="M89 205l-8 -9q19 -32 19 -90q0 -44 -9 -101q44 80 93.5 162.5t98.5 156t95.5 133.5t84.5 96l-9 7q-33 -29 -78 -86t-93 -128t-95 -148.5t-84 -146.5q3 13 4 27.5t1 28.5q0 27 -4.5 52.5t-15.5 45.5z" />
    <glyph glyph-name="approxequal" unicode="&#xe007;" horiz-adv-x="698" 
d="M312 215l26 121h122l-26 -121h-122zM322 356h-72q-40 0 -66.5 20.5t-26.5 58.5q0 42 29.5 72.5t77.5 30.5q44 0 60 -21t16 -53q0 -11 -1 -22.5t-4 -24.5zM484 356l16 72q11 50 36.5 80t70.5 30q42 0 61 -22t19 -57q0 -30 -11.5 -50t-31 -31.5t-45 -16.5t-54.5 -5h-61z
M450 195h72q39 0 66 -20.5t27 -58.5q0 -48 -30.5 -75.5t-73.5 -27.5q-40 0 -60 18.5t-20 51.5q0 22 6 51zM288 195l-15 -72q-11 -51 -41 -80.5t-65 -29.5q-39 0 -60.5 21.5t-21.5 56.5q0 32 12.5 52t31.5 31.5t42.5 16t44.5 4.5h72zM518 215h-64l26 121h65q33 0 62.5 6.5
t51.5 21t35 37.5t13 57q0 46 -25 73t-73 27q-52 0 -84 -34.5t-46 -96.5l-15 -71h-122l14 65q6 27 6 44q0 40 -21.5 66.5t-74.5 26.5q-30 0 -54.5 -11t-41 -28t-25.5 -39t-9 -44q0 -51 32.5 -75.5t85.5 -24.5h64l-26 -121h-75q-27 0 -54 -6.5t-48.5 -21t-35.5 -38.5t-14 -58
q0 -45 26 -71.5t74 -26.5q45 0 79 32.5t48 96.5l16 73h122l-13 -62q-4 -17 -5 -30t-1 -20q0 -90 99 -90q32 0 55.5 10.5t39.5 27.5t23.5 39.5t7.5 45.5q0 51 -32.5 75t-85.5 24z" />
    <glyph glyph-name="nonbreakingspace" unicode="&#xe008;" horiz-adv-x="330" 
 />
    <glyph glyph-name="lozenge" unicode="&#xe009;" horiz-adv-x="470" 
d="M285 430l-200 -200l200 -200l200 200zM473 230l-188 -188l-188 188l188 188z" />
    <glyph glyph-name="apple" unicode="&#xe00a;" horiz-adv-x="690" 
d="M232 423q-35 0 -63.5 -11.5t-48.5 -32.5t-30.5 -49.5t-10.5 -62.5q0 -56 21.5 -106.5t51.5 -88t62 -59.5t52 -22q32 0 53 25q5 7 13.5 10t17.5 3q20 0 32 -13q11 -14 26 -20t32 -6q31 0 56.5 17t45 41.5t34 52t22.5 47.5q-32 9 -57 38t-25 75q0 41 19 65t45 44
q-3 12 -13.5 21.5t-26 17t-33.5 11.5t-35 4q-42 0 -67 -20q-16 -13 -28.5 -17.5t-24.5 -4.5t-21.5 5.5t-26.5 16.5q-14 10 -33 14.5t-39 4.5zM438 534q-17 0 -34 -10t-31.5 -25.5t-23.5 -34.5t-9 -37q0 -5 2 -9.5t8 -4.5q19 0 36.5 12t31 29.5t21 37.5t7.5 35q0 7 -8 7z" />
    </font>
</defs>
</svg>
