<?xml version="1.0" standalone="no"?>
<!DOCTYPE svg PUBLIC "-//W3C//DTD SVG 1.1//EN" "http://www.w3.org/Graphics/SVG/1.1/DTD/svg11.dtd" >
<svg xmlns="http://www.w3.org/2000/svg" xmlns:xlink="http://www.w3.org/1999/xlink" version="1.1">
<metadata></metadata>
<defs>
<font id="chandstateregular" horiz-adv-x="1600" >
<font-face units-per-em="2048" ascent="1638" descent="-410" />
<missing-glyph horiz-adv-x="508" />
<glyph unicode="&#xd;" horiz-adv-x="508" />
<glyph horiz-adv-x="0" />
<glyph horiz-adv-x="0" />
<glyph unicode=" "  horiz-adv-x="508" />
<glyph unicode="&#x09;" horiz-adv-x="508" />
<glyph unicode="&#xa0;" horiz-adv-x="508" />
<glyph unicode="!" horiz-adv-x="400" d="M0 0v200h200v-200h-200zM0 400v1000h200v-1000h-200z" />
<glyph unicode="&#x22;" horiz-adv-x="700" d="M0 1000v400h200v-400h-200zM300 1000v400h200v-400h-200z" />
<glyph unicode="#" d="M0 200v200h200v600h-200v200h200v200h200v-200h600v200h200v-200h200v-200h-200v-600h200v-200h-200v-200h-200v200h-600v-200h-200v200h-200zM400 400h600v600h-600v-600z" />
<glyph unicode="$" d="M0 0v200h400v400q-166 0 -283 117t-117 283t117 283t283 117v100h200v-100h200v100h200v-100h400v-200h-400v-400q166 0 283 -117t117 -283t-117 -283t-283 -117v-100h-200v100h-200v-100h-200v100h-400zM200 1000q0 -83 58.5 -141.5t141.5 -58.5v400q-83 0 -141.5 -58.5 t-58.5 -141.5zM600 200h200v400h-200v-400zM600 800h200v400h-200v-400zM1000 200q83 0 141.5 58.5t58.5 141.5t-58.5 141.5t-141.5 58.5v-400z" />
<glyph unicode="%" d="M0 0v400q0 166 117 283t283 117h600q83 0 141.5 58.5t58.5 141.5v400h200v-400q0 -166 -117 -283t-283 -117h-600q-83 0 -141.5 -58.5t-58.5 -141.5v-400h-200zM200 1100q0 41 29.5 70.5t70.5 29.5t70.5 -29.5t29.5 -70.5t-29.5 -70.5t-70.5 -29.5t-70.5 29.5t-29.5 70.5 zM1000 300q0 41 29.5 70.5t70.5 29.5t70.5 -29.5t29.5 -70.5t-29.5 -70.5t-70.5 -29.5t-70.5 29.5t-29.5 70.5z" />
<glyph unicode="&#x26;" d="M0 700q0 290 205 495t495 205h400v-200h-400q-207 0 -353 -146q-110 -110 -138 -254h691v200h200v-200h300v-200h-300v-400h300v-200h-700q-290 0 -495 205t-205 495zM209 600q28 -144 138 -253q146 -147 353 -147h200v400h-691z" />
<glyph unicode="'" horiz-adv-x="400" d="M0 1000v400h200v-400h-200z" />
<glyph unicode="(" horiz-adv-x="900" d="M0 700q0 290 205 495t495 205v-200q-207 0 -353.5 -146.5t-146.5 -353.5t146.5 -353.5t353.5 -146.5v-200q-290 0 -495 205t-205 495z" />
<glyph unicode=")" horiz-adv-x="900" d="M0 0v200q207 0 353.5 146.5t146.5 353.5t-146.5 353.5t-353.5 146.5v200q290 0 495 -205t205 -495t-205 -495t-495 -205z" />
<glyph unicode="*" d="M0 600v200h459l-325 324l142 142l324 -325v459h200v-459l324 325l142 -142l-325 -324h459v-200h-459l325 -324l-142 -142l-324 325v-459h-200v459l-324 -325l-142 142l325 324h-459z" />
<glyph unicode="+" d="M0 600v200h600v600h200v-600h600v-200h-600v-600h-200v600h-600z" />
<glyph unicode="," horiz-adv-x="400" d="M0 -200v400h200v-400h-200z" />
<glyph unicode="-" d="M0 600v200h1400v-200h-1400z" />
<glyph unicode="." horiz-adv-x="400" d="M0 0v200h200v-200h-200z" />
<glyph unicode="/" d="M0 0v400q0 166 117 283t283 117h600q83 0 141.5 58.5t58.5 141.5v400h200v-400q0 -166 -117 -283t-283 -117h-600q-83 0 -141.5 -58.5t-58.5 -141.5v-400h-200z" />
<glyph unicode="0" d="M0 700q0 290 205 495t495 205t495 -205t205 -495t-205 -495t-495 -205t-495 205t-205 495zM200 700q0 -207 146.5 -353.5t353.5 -146.5t353.5 146.5t146.5 353.5t-146.5 353.5t-353.5 146.5t-353.5 -146.5t-146.5 -353.5z" />
<glyph unicode="1" horiz-adv-x="400" d="M0 0v1400h200v-1400h-200z" />
<glyph unicode="2" d="M0 400q0 166 117 283t283 117h600q83 0 141.5 58.5t58.5 141.5t-58.5 141.5t-141.5 58.5h-1000v200h1000q166 0 283 -117t117 -283t-117 -283t-283 -117h-600q-83 0 -141.5 -58.5t-58.5 -141.5t58.5 -141.5t141.5 -58.5h1000v-200h-1000q-166 0 -283 117t-117 283z" />
<glyph unicode="3" d="M0 0v200h700q207 0 354 147q109 109 137 253h-1191v200h1191q-28 144 -137 254q-147 146 -354 146h-700v200h700q290 0 495 -205t205 -495t-205 -495t-495 -205h-700z" />
<glyph unicode="4" d="M0 600v800h200v-600h1000v600h200v-1400h-200v600h-1200z" />
<glyph unicode="5" d="M0 0v200h1000q83 0 141.5 58.5t58.5 141.5t-58.5 141.5t-141.5 58.5h-600q-166 0 -283 117t-117 283t117 283t283 117h1000v-200h-1000q-83 0 -141.5 -58.5t-58.5 -141.5t58.5 -141.5t141.5 -58.5h600q166 0 283 -117t117 -283t-117 -283t-283 -117h-1000z" />
<glyph unicode="6" d="M0 400v600q0 166 117 283t283 117h1000v-200h-1000q-83 0 -141.5 -58.5t-58.5 -141.5v-200h800q166 0 283 -117t117 -283t-117 -283t-283 -117h-600q-166 0 -283 117t-117 283zM200 400q0 -83 58.5 -141.5t141.5 -58.5h600q83 0 141.5 58.5t58.5 141.5t-58.5 141.5 t-141.5 58.5h-800v-200z" />
<glyph unicode="7" d="M0 1200v200h700q290 0 495 -205t205 -495v-700h-200v700q0 207 -146.5 353.5t-353.5 146.5h-700z" />
<glyph unicode="8" d="M0 400q0 166 117 283q9 9 18 17q-9 8 -18 17q-117 117 -117 283t117 283t283 117h600q166 0 283 -117t117 -283t-117 -283q-9 -9 -18 -17q9 -8 18 -17q117 -117 117 -283t-117 -283t-283 -117h-600q-166 0 -283 117t-117 283zM200 400q0 -83 58.5 -141.5t141.5 -58.5h600 q83 0 141.5 58.5t58.5 141.5t-58.5 141.5t-141.5 58.5h-600q-83 0 -141.5 -58.5t-58.5 -141.5zM200 1000q0 -83 58.5 -141.5t141.5 -58.5h600q83 0 141.5 58.5t58.5 141.5t-58.5 141.5t-141.5 58.5h-600q-83 0 -141.5 -58.5t-58.5 -141.5z" />
<glyph unicode="9" d="M0 0v200h1000q83 0 141.5 58.5t58.5 141.5v200h-800q-166 0 -283 117t-117 283t117 283t283 117h600q166 0 283 -117t117 -283v-600q0 -166 -117 -283t-283 -117h-1000zM200 1000q0 -83 58.5 -141.5t141.5 -58.5h800v200q0 83 -58.5 141.5t-141.5 58.5h-600 q-83 0 -141.5 -58.5t-58.5 -141.5z" />
<glyph unicode=":" horiz-adv-x="400" d="M0 200v200h200v-200h-200zM0 1000v200h200v-200h-200z" />
<glyph unicode=";" horiz-adv-x="400" d="M0 0v400h200v-400h-200zM0 1000v200h200v-200h-200z" />
<glyph unicode="&#x3c;" d="M0 700q0 290 455 495t745 205h200v-200h-200q-207 0 -578.5 -146.5t-421.5 -353.5q50 -207 421.5 -353.5t578.5 -146.5h200v-200h-200q-290 0 -745 205t-455 495z" />
<glyph unicode="=" d="M0 200v200h1400v-200h-1400zM0 1000v200h1400v-200h-1400z" />
<glyph unicode="&#x3e;" d="M0 0v200h200q207 0 578.5 146.5t421.5 353.5q-50 207 -421.5 353.5t-578.5 146.5h-200v200h200q290 0 745 -205t455 -495t-455 -495t-745 -205h-200z" />
<glyph unicode="?" d="M0 0v200h200v-200h-200zM0 400q0 166 117 283t283 117h600q83 0 141.5 58.5t58.5 141.5t-58.5 141.5t-141.5 58.5h-1000v200h1000q166 0 283 -117t117 -283t-117 -283t-283 -117h-600q-83 0 -141.5 -58.5t-58.5 -141.5h-200z" />
<glyph unicode="@" d="M0 700q0 290 205 495t495 205t495 -205t205 -495t-205 -495t-495 -205t-495 205t-205 495zM200 700q0 -207 146.5 -353.5t353.5 -146.5t353.5 146.5t146.5 353.5t-146.5 353.5t-353.5 146.5t-353.5 -146.5t-146.5 -353.5zM400 700q0 124 88 212t212 88t212 -88t88 -212 t-88 -212t-212 -88t-212 88t-88 212zM600 700q0 -41 29.5 -70.5t70.5 -29.5t70.5 29.5t29.5 70.5t-29.5 70.5t-70.5 29.5t-70.5 -29.5t-29.5 -70.5z" />
<glyph unicode="A" d="M0 0v700q0 290 205 495t495 205t495 -205t205 -495v-700h-200v700q0 207 -146.5 353.5t-353.5 146.5t-353.5 -146.5t-146.5 -353.5v-200h800v-200h-800v-300h-200z" />
<glyph unicode="B" d="M0 0v200h1000q83 0 141.5 58.5t58.5 141.5t-58.5 141.5t-141.5 58.5h-800v-200h-200v1000h1000q166 0 283 -117t117 -283t-117 -283q-9 -9 -18 -17q9 -8 18 -17q117 -117 117 -283t-117 -283t-283 -117h-1000zM200 800h800q83 0 141.5 58.5t58.5 141.5t-58.5 141.5 t-141.5 58.5h-800v-400z" />
<glyph unicode="C" d="M0 700q0 290 205 495t495 205h700v-200h-700q-207 0 -353.5 -146.5t-146.5 -353.5t146.5 -353.5t353.5 -146.5h700v-200h-700q-290 0 -495 205t-205 495z" />
<glyph unicode="D" d="M0 0v200h700q207 0 353.5 146.5t146.5 353.5t-146.5 353.5t-353.5 146.5h-500v-800h-200v1000h700q290 0 495 -205t205 -495t-205 -495t-495 -205h-700z" />
<glyph unicode="E" d="M0 700q0 290 205 495t495 205h700v-200h-700q-207 0 -353 -146q-110 -110 -138 -254h1191v-200h-1191q28 -144 138 -253q146 -147 353 -147h700v-200h-700q-290 0 -495 205t-205 495z" />
<glyph unicode="F" d="M0 0v700q0 290 205 495t495 205h700v-200h-700q-207 0 -353 -146q-110 -110 -138 -254h1191v-200h-1200v-600h-200z" />
<glyph unicode="G" d="M0 700q0 290 205 495t495 205h700v-200h-700q-207 0 -353.5 -146.5t-146.5 -353.5t146.5 -353.5t353.5 -146.5h500v400h-500v200h700v-800h-700q-290 0 -495 205t-205 495z" />
<glyph unicode="H" d="M0 0v1400h200v-600h1000v600h200v-1400h-200v600h-1000v-600h-200z" />
<glyph unicode="I" horiz-adv-x="400" d="M0 0v1400h200v-1400h-200z" />
<glyph unicode="J" d="M0 0v200h700q207 0 353.5 146.5t146.5 353.5v700h200v-700q0 -290 -205 -495t-495 -205h-700z" />
<glyph unicode="K" d="M0 0v1400h200v-600h800q83 0 141.5 58.5t58.5 141.5v400h200v-400q0 -166 -117 -283q-75 -75 -171 -102q27 -23 54 -49q234 -235 234 -566h-200q0 249 -175.5 424.5t-424.5 175.5h-400v-600h-200z" />
<glyph unicode="L" d="M0 700v700h200v-700q0 -207 146.5 -353.5t353.5 -146.5h700v-200h-700q-290 0 -495 205t-205 495z" />
<glyph unicode="M" d="M0 0v700q0 290 205 495t495 205t495 -205t205 -495v-700h-200v700q0 207 -146 354q-110 109 -254 137v-1191h-200v1191q-144 -28 -253 -137q-147 -147 -147 -354v-700h-200z" />
<glyph unicode="N" d="M0 0v700q0 290 205 495t495 205t495 -205t205 -495v-700h-200v700q0 207 -146.5 353.5t-353.5 146.5t-353.5 -146.5t-146.5 -353.5v-700h-200z" />
<glyph unicode="O" d="M0 700q0 290 205 495t495 205t495 -205t205 -495t-205 -495t-495 -205t-495 205t-205 495zM200 700q0 -207 146.5 -353.5t353.5 -146.5t353.5 146.5t146.5 353.5t-146.5 353.5t-353.5 146.5t-353.5 -146.5t-146.5 -353.5z" />
<glyph unicode="P" d="M0 0v1000h200v-200h800q83 0 141.5 58.5t58.5 141.5t-58.5 141.5t-141.5 58.5h-1000v200h1000q166 0 283 -117t117 -283t-117 -283t-283 -117h-800v-600h-200z" />
<glyph unicode="Q" d="M0 700q0 290 205 495t495 205t495 -205t205 -495t-205 -495t-495 -205t-495 205t-205 495zM200 700q0 -207 147 -353q109 -110 253 -138v591h200v-591q144 28 254 138q146 146 146 353t-146.5 353.5t-353.5 146.5t-353.5 -146.5t-146.5 -353.5z" />
<glyph unicode="R" d="M0 0v1000h200v-200h800q83 0 141.5 58.5t58.5 141.5t-58.5 141.5t-141.5 58.5h-1000v200h1000q166 0 283 -117t117 -283t-117 -283q-75 -75 -171 -102q27 -23 54 -49q234 -235 234 -566h-200q0 249 -175.5 424.5t-424.5 175.5h-400v-600h-200z" />
<glyph unicode="S" d="M0 0v200h1000q83 0 141.5 58.5t58.5 141.5t-58.5 141.5t-141.5 58.5h-600q-166 0 -283 117t-117 283t117 283t283 117h1000v-200h-1000q-83 0 -141.5 -58.5t-58.5 -141.5t58.5 -141.5t141.5 -58.5h600q166 0 283 -117t117 -283t-117 -283t-283 -117h-1000z" />
<glyph unicode="T" d="M0 1200v200h1400v-200h-600v-1200h-200v1200h-600z" />
<glyph unicode="U" d="M0 700v700h200v-700q0 -207 146.5 -353.5t353.5 -146.5t353.5 146.5t146.5 353.5v700h200v-700q0 -290 -205 -495t-495 -205t-495 205t-205 495z" />
<glyph unicode="V" d="M0 1200v200h200v-200q0 -207 146.5 -578.5t353.5 -421.5q207 50 353.5 421.5t146.5 578.5v200h200v-200q0 -290 -205 -745t-495 -455t-495 455t-205 745z" />
<glyph unicode="W" d="M0 700v700h200v-700q0 -207 147 -353q109 -110 253 -138v1191h200v-1191q144 28 254 138q146 146 146 353v700h200v-700q0 -290 -205 -495t-495 -205t-495 205t-205 495z" />
<glyph unicode="X" d="M0 0v100q0 290 205 495q62 62 131 105q-69 43 -131 105q-205 205 -205 495v100h200v-100q0 -207 146.5 -353.5t353.5 -146.5t353.5 146.5t146.5 353.5v100h200v-100q0 -290 -205 -495q-62 -62 -131 -105q69 -43 131 -105q205 -205 205 -495v-100h-200v100 q0 207 -146.5 353.5t-353.5 146.5t-353.5 -146.5t-146.5 -353.5v-100h-200z" />
<glyph unicode="Y" d="M0 1300v100h200v-100q0 -207 146.5 -353.5t353.5 -146.5t353.5 146.5t146.5 353.5v100h200v-100q0 -290 -205 -495q-169 -169 -395 -199v-606h-200v606q-226 30 -395 199q-205 205 -205 495z" />
<glyph unicode="Z" d="M0 400q0 166 117 283t283 117h600q83 0 141.5 58.5t58.5 141.5t-58.5 141.5t-141.5 58.5h-1000v200h1000q166 0 283 -117t117 -283t-117 -283t-283 -117h-600q-83 0 -141.5 -58.5t-58.5 -141.5t58.5 -141.5t141.5 -58.5h1000v-200h-1000q-166 0 -283 117t-117 283z" />
<glyph unicode="[" horiz-adv-x="900" d="M0 0v1400h700v-200h-500v-1000h500v-200h-700z" />
<glyph unicode="\" d="M0 1000v400h200v-400q0 -83 58.5 -141.5t141.5 -58.5h600q166 0 283 -117t117 -283v-400h-200v400q0 83 -58.5 141.5t-141.5 58.5h-600q-166 0 -283 117t-117 283z" />
<glyph unicode="]" horiz-adv-x="900" d="M0 0v200h500v1000h-500v200h700v-1400h-700z" />
<glyph unicode="_" d="M0 0v200h1400v-200h-1400z" />
<glyph unicode="`" horiz-adv-x="400" d="M0 1000v400h200v-400h-200z" />
<glyph unicode="a" d="M0 0v700q0 290 205 495t495 205t495 -205t205 -495v-700h-200v700q0 207 -146.5 353.5t-353.5 146.5t-353.5 -146.5t-146.5 -353.5v-200h800v-200h-800v-300h-200z" />
<glyph unicode="b" d="M0 0v200h1000q83 0 141.5 58.5t58.5 141.5t-58.5 141.5t-141.5 58.5h-800v-200h-200v1000h1000q166 0 283 -117t117 -283t-117 -283q-9 -9 -18 -17q9 -8 18 -17q117 -117 117 -283t-117 -283t-283 -117h-1000zM200 800h800q83 0 141.5 58.5t58.5 141.5t-58.5 141.5 t-141.5 58.5h-800v-400z" />
<glyph unicode="c" d="M0 700q0 290 205 495t495 205h700v-200h-700q-207 0 -353.5 -146.5t-146.5 -353.5t146.5 -353.5t353.5 -146.5h700v-200h-700q-290 0 -495 205t-205 495z" />
<glyph unicode="d" d="M0 0v200h700q207 0 353.5 146.5t146.5 353.5t-146.5 353.5t-353.5 146.5h-500v-800h-200v1000h700q290 0 495 -205t205 -495t-205 -495t-495 -205h-700z" />
<glyph unicode="e" d="M0 700q0 290 205 495t495 205h700v-200h-700q-207 0 -353 -146q-110 -110 -138 -254h1191v-200h-1191q28 -144 138 -253q146 -147 353 -147h700v-200h-700q-290 0 -495 205t-205 495z" />
<glyph unicode="f" d="M0 0v700q0 290 205 495t495 205h700v-200h-700q-207 0 -353 -146q-110 -110 -138 -254h1191v-200h-1200v-600h-200z" />
<glyph unicode="g" d="M0 700q0 290 205 495t495 205h700v-200h-700q-207 0 -353.5 -146.5t-146.5 -353.5t146.5 -353.5t353.5 -146.5h500v400h-500v200h700v-800h-700q-290 0 -495 205t-205 495z" />
<glyph unicode="h" d="M0 0v1400h200v-600h1000v600h200v-1400h-200v600h-1000v-600h-200z" />
<glyph unicode="i" horiz-adv-x="400" d="M0 0v1400h200v-1400h-200z" />
<glyph unicode="j" d="M0 0v200h700q207 0 353.5 146.5t146.5 353.5v700h200v-700q0 -290 -205 -495t-495 -205h-700z" />
<glyph unicode="k" d="M0 0v1400h200v-600h800q83 0 141.5 58.5t58.5 141.5v400h200v-400q0 -166 -117 -283q-75 -75 -171 -102q27 -23 54 -49q234 -235 234 -566h-200q0 249 -175.5 424.5t-424.5 175.5h-400v-600h-200z" />
<glyph unicode="l" d="M0 700v700h200v-700q0 -207 146.5 -353.5t353.5 -146.5h700v-200h-700q-290 0 -495 205t-205 495z" />
<glyph unicode="m" d="M0 0v700q0 290 205 495t495 205t495 -205t205 -495v-700h-200v700q0 207 -146 354q-110 109 -254 137v-1191h-200v1191q-144 -28 -253 -137q-147 -147 -147 -354v-700h-200z" />
<glyph unicode="n" d="M0 0v700q0 290 205 495t495 205t495 -205t205 -495v-700h-200v700q0 207 -146.5 353.5t-353.5 146.5t-353.5 -146.5t-146.5 -353.5v-700h-200z" />
<glyph unicode="o" d="M0 700q0 290 205 495t495 205t495 -205t205 -495t-205 -495t-495 -205t-495 205t-205 495zM200 700q0 -207 146.5 -353.5t353.5 -146.5t353.5 146.5t146.5 353.5t-146.5 353.5t-353.5 146.5t-353.5 -146.5t-146.5 -353.5z" />
<glyph unicode="p" d="M0 0v1000h200v-200h800q83 0 141.5 58.5t58.5 141.5t-58.5 141.5t-141.5 58.5h-1000v200h1000q166 0 283 -117t117 -283t-117 -283t-283 -117h-800v-600h-200z" />
<glyph unicode="q" d="M0 700q0 290 205 495t495 205t495 -205t205 -495t-205 -495t-495 -205t-495 205t-205 495zM200 700q0 -207 147 -353q109 -110 253 -138v591h200v-591q144 28 254 138q146 146 146 353t-146.5 353.5t-353.5 146.5t-353.5 -146.5t-146.5 -353.5z" />
<glyph unicode="r" d="M0 0v1000h200v-200h800q83 0 141.5 58.5t58.5 141.5t-58.5 141.5t-141.5 58.5h-1000v200h1000q166 0 283 -117t117 -283t-117 -283q-75 -75 -171 -102q27 -23 54 -49q234 -235 234 -566h-200q0 249 -175.5 424.5t-424.5 175.5h-400v-600h-200z" />
<glyph unicode="s" d="M0 0v200h1000q83 0 141.5 58.5t58.5 141.5t-58.5 141.5t-141.5 58.5h-600q-166 0 -283 117t-117 283t117 283t283 117h1000v-200h-1000q-83 0 -141.5 -58.5t-58.5 -141.5t58.5 -141.5t141.5 -58.5h600q166 0 283 -117t117 -283t-117 -283t-283 -117h-1000z" />
<glyph unicode="t" d="M0 1200v200h1400v-200h-600v-1200h-200v1200h-600z" />
<glyph unicode="u" d="M0 700v700h200v-700q0 -207 146.5 -353.5t353.5 -146.5t353.5 146.5t146.5 353.5v700h200v-700q0 -290 -205 -495t-495 -205t-495 205t-205 495z" />
<glyph unicode="v" d="M0 1200v200h200v-200q0 -207 146.5 -578.5t353.5 -421.5q207 50 353.5 421.5t146.5 578.5v200h200v-200q0 -290 -205 -745t-495 -455t-495 455t-205 745z" />
<glyph unicode="w" d="M0 700v700h200v-700q0 -207 147 -353q109 -110 253 -138v1191h200v-1191q144 28 254 138q146 146 146 353v700h200v-700q0 -290 -205 -495t-495 -205t-495 205t-205 495z" />
<glyph unicode="x" d="M0 0v100q0 290 205 495q62 62 131 105q-69 43 -131 105q-205 205 -205 495v100h200v-100q0 -207 146.5 -353.5t353.5 -146.5t353.5 146.5t146.5 353.5v100h200v-100q0 -290 -205 -495q-62 -62 -131 -105q69 -43 131 -105q205 -205 205 -495v-100h-200v100 q0 207 -146.5 353.5t-353.5 146.5t-353.5 -146.5t-146.5 -353.5v-100h-200z" />
<glyph unicode="y" d="M0 1300v100h200v-100q0 -207 146.5 -353.5t353.5 -146.5t353.5 146.5t146.5 353.5v100h200v-100q0 -290 -205 -495q-169 -169 -395 -199v-606h-200v606q-226 30 -395 199q-205 205 -205 495z" />
<glyph unicode="z" d="M0 400q0 166 117 283t283 117h600q83 0 141.5 58.5t58.5 141.5t-58.5 141.5t-141.5 58.5h-1000v200h1000q166 0 283 -117t117 -283t-117 -283t-283 -117h-600q-83 0 -141.5 -58.5t-58.5 -141.5t58.5 -141.5t141.5 -58.5h1000v-200h-1000q-166 0 -283 117t-117 283z" />
<glyph unicode="{" horiz-adv-x="900" d="M0 700q0 290 205 495t495 205v-200q-207 0 -353.5 -146.5t-146.5 -353.5t146.5 -353.5t353.5 -146.5v-200q-290 0 -495 205t-205 495z" />
<glyph unicode="|" horiz-adv-x="400" d="M0 0v1400h200v-1400h-200z" />
<glyph unicode="}" horiz-adv-x="900" d="M0 0v200q207 0 353.5 146.5t146.5 353.5t-146.5 353.5t-353.5 146.5v200q290 0 495 -205t205 -495t-205 -495t-495 -205z" />
<glyph unicode="&#xad;" d="M0 600v200h1400v-200h-1400z" />
<glyph unicode="&#x2000;" horiz-adv-x="750" />
<glyph unicode="&#x2001;" horiz-adv-x="1500" />
<glyph unicode="&#x2002;" horiz-adv-x="750" />
<glyph unicode="&#x2003;" horiz-adv-x="1500" />
<glyph unicode="&#x2004;" horiz-adv-x="500" />
<glyph unicode="&#x2005;" horiz-adv-x="375" />
<glyph unicode="&#x2006;" horiz-adv-x="250" />
<glyph unicode="&#x2007;" horiz-adv-x="250" />
<glyph unicode="&#x2008;" horiz-adv-x="187" />
<glyph unicode="&#x2009;" horiz-adv-x="300" />
<glyph unicode="&#x200a;" horiz-adv-x="83" />
<glyph unicode="&#x2010;" d="M0 600v200h1400v-200h-1400z" />
<glyph unicode="&#x2011;" d="M0 600v200h1400v-200h-1400z" />
<glyph unicode="&#x2012;" d="M0 600v200h1400v-200h-1400z" />
<glyph unicode="&#x2013;" horiz-adv-x="1224" d="M0 600v200h1024v-200h-1024z" />
<glyph unicode="&#x2014;" horiz-adv-x="2248" d="M0 600v200h2048v-200h-2048z" />
<glyph unicode="&#x202f;" horiz-adv-x="300" />
<glyph unicode="&#x205f;" horiz-adv-x="375" />
<glyph unicode="&#x25fc;" horiz-adv-x="1400" d="M0 0v1400h1400v-1400h-1400z" />
</font>
</defs>
</svg>
