<?xml version="1.0" standalone="no"?>
<!DOCTYPE svg PUBLIC "-//W3C//DTD SVG 1.1//EN" "http://www.w3.org/Graphics/SVG/1.1/DTD/svg11.dtd" >
<svg xmlns="http://www.w3.org/2000/svg" xmlns:xlink="http://www.w3.org/1999/xlink" version="1.1">
<metadata>
Created by FontForge 20170731 at Wed Aug 27 18:02:37 2003
 By Aleksey,,,
Copyright (c) Typographer Mediengestaltung, 2000. All rights reserved. Full character set added by Dieter Steffmann, Kreuztal
</metadata>
<defs>
<font id="CelticHand" horiz-adv-x="500" >
  <font-face 
    font-family="Celtic Hand"
    font-weight="400"
    font-stretch="normal"
    units-per-em="1000"
    panose-1="2 0 5 3 2 0 0 2 0 4"
    ascent="800"
    descent="-200"
    x-height="601"
    cap-height="800"
    bbox="-28 -192 1326 992"
    underline-thickness="16"
    underline-position="-157"
    unicode-range="U+001C-E001"
  />
<missing-glyph 
d="M63 0h375v817h-375v-817zM125 63v692h250v-692h-250z" />
    <glyph glyph-name=".notdef" 
d="M63 0h375v817h-375v-817zM125 63v692h250v-692h-250z" />
    <glyph glyph-name=".null" unicode="&#xe000;" horiz-adv-x="0" 
 />
    <glyph glyph-name="nonmarkingreturn" unicode="&#xe001;" horiz-adv-x="400" 
 />
    <glyph glyph-name="Lslash" horiz-adv-x="566" 
d="M10 280l31 -57l84 44q-2 -54 -6 -103q-8 -104 -24 -164q25 4 73 5.5t120 1.5q91 0 157.5 -3.5t109.5 -10.5q0 3 -0.5 9.5t-0.5 13.5q0 8 -0.5 15t-0.5 11q0 10 1.5 20.5t3.5 22.5q-64 -16 -166 -20q-43 -1 -85 -2t-85 -2q-5 141 -6 255l130 69l-31 57l-99 -52
q0 270 24 410q-9 0 -21.5 -0.5t-28.5 -1.5q-17 -1 -29.5 -1.5t-19.5 -0.5h-31q-8 2 -14.5 2.5t-10.5 1.5q42 -110 42 -414v-44z" />
    <glyph glyph-name="lslash" horiz-adv-x="428" 
d="M8 212l23 -44l63 34q-2 -69 -8 -119t-14 -83q19 2 55 3.5t91 1.5q69 0 119 -2.5t83 -7.5q0 5 -1 17.5t-1 19.5q0 16 4 32q-47 -11 -126 -15q-32 -1 -64 -1.5t-64 -1.5q-2 54 -3 102t-2 91l99 52l-23 43l-76 -40q1 204 18 311q-7 0 -16 -0.5t-21 -1.5q-14 -1 -23 -1h-14
h-24q-13 1 -19 3q32 -84 32 -313v-33z" />
    <glyph glyph-name="Zcaron" horiz-adv-x="550" 
d="M555 800l-151 -1q-212 -3 -208 -3h-90q-43 0 -56 4q0 -58 -34 -107q55 11 118 16.5t135 5.5q35 0 63.5 -1.5t51.5 -5.5q-32 -124 -153 -361q-52 -102 -101 -188.5t-95 -158.5q51 7 153 10.5t258 3.5q24 0 42.5 -0.5t31.5 -1.5q0 64 28 152q-35 -22 -143 -37
q-46 -7 -84 -10.5t-69 -3.5h-19q-5 1 -8 1.5t-5 0.5q5 32 19.5 74t39.5 96q26 57 59.5 122t73.5 138q7 12 42 75.5t101 179.5zM191 915q17 -13 40.5 -32.5t54.5 -45.5q25 26 51 51t54 50l-23 23l-65 -58l-69 58z" />
    <glyph glyph-name="zcaron" horiz-adv-x="416" 
d="M420 605l-115 -1q-80 -1 -119 -1.5t-38 -0.5h-68q-32 0 -42 3q0 -43 -26 -81q85 17 191 17q52 0 87 -6q-11 -46 -40 -114t-75 -159q-40 -77 -77 -142t-72 -120q38 5 115.5 8t195.5 3q18 0 32 -0.5t24 -1.5q0 47 21 115q-26 -16 -108 -28q-35 -5 -63.5 -8t-51.5 -3h-15
l-6 1.5t-4 0.5q8 49 45 128q20 43 45 92t55 105q5 9 32.5 57t76.5 136zM144 691q25 -19 43 -33.5t29 -24.5q38 38 79 76l-17 18l-49 -45l-52 45z" />
    <glyph glyph-name="space" unicode=" " horiz-adv-x="499" 
 />
    <glyph glyph-name="exclam" unicode="!" horiz-adv-x="187" 
d="M137 766h-84v-198q0 -133 27 -365h24q13 112 20 204.5t9 166.5zM148 48q0 22 -15.5 38t-37.5 16q-23 0 -39 -16t-16 -39t15.5 -37.5t38.5 -14.5t38.5 15t15.5 38z" />
    <glyph glyph-name="quotedbl" unicode="&#x22;" horiz-adv-x="274" 
d="M246 791h-88l14 -268h60zM117 791h-89l15 -268h60z" />
    <glyph glyph-name="dollar" unicode="$" horiz-adv-x="535" 
d="M496 218q0 58 -33 104t-88 62q-17 5 -44 8.5t-65 5.5v220q62 -4 113 -37q57 -36 72 -92h17q-10 37 -10 98q0 29 5 46q2 5 3 9.5t2 8.5q-22 -5 -27 -5t-33 7q-83 20 -142 18v70h-36v-70q-109 -15 -161 -84q-42 -54 -42 -128q0 -58 26 -101q43 -71 177 -81v-231
q-43 3 -85 27q-60 35 -70 90h-16q4 -26 6 -53.5t2 -55.5v-24t-1 -19q8 1 13 1.5t7 0.5q5 0 23.5 -2.5t50.5 -7.5q34 -4 70 -6v-78h36v78q109 6 165 65q65 68 65 156zM230 400q-126 4 -126 103q0 98 126 115v-218zM407 164q0 -53 -38 -88q-37 -34 -91 -34q-9 0 -12 1v232
q141 0 141 -111z" />
    <glyph glyph-name="percent" unicode="%" horiz-adv-x="599" 
d="M555 792l-22 24l-455 -774l21 -20zM302 603q0 119 -69 170q-35 26 -78 32q-20 -17 -51.5 -43t-73.5 -60q-4 -24 -5.5 -48t-1.5 -48q0 -122 62 -163q31 -20 88 -34q37 25 64.5 43.5t46.5 30.5q18 63 18 120zM570 183q0 179 -147 202q-42 -35 -73 -60.5t-52 -42.5
q-6 -51 -6 -96q0 -123 61 -163q16 -11 38 -19t50 -13q10 5 23.5 14t32.5 21q19 13 32.5 22l22.5 15q18 63 18 120zM224 583q0 -42 -12 -109q-115 13 -115 160q0 43 9 90q4 1 14 1q104 0 104 -142zM492 163q0 -42 -12 -109q-115 16 -115 160q0 43 9 91h15q103 0 103 -142z
" />
    <glyph glyph-name="ampersand" unicode="&#x26;" horiz-adv-x="559" 
d="M460 120l-9 12q-11 -12 -21 -12q-18 0 -36 23q-22 28 -65 104l-39 68q-29 50 -40 68q55 30 78 56q35 44 35 102q0 40 -18 76q-20 43 -54 53q-29 9 -74 9h-30l-113 -240q42 -45 78 -99q-19 -16 -34 -28.5t-26 -23.5q-59 -57 -59 -134q0 -43 20 -81q21 -41 57 -59
q26 -13 67 -20l100 126q13 -20 51 -75q23 -34 50 -51zM283 494q0 -64 -45 -92q-42 63 -102 144q16 42 70 42q37 0 57 -27.5t20 -66.5zM269 139q-22 -37 -57 -37q-42 0 -70 42q-25 37 -25 81q0 54 43 97q40 -59 54 -84q9 -14 22.5 -39t32.5 -60z" />
    <glyph glyph-name="quotesingle" unicode="'" horiz-adv-x="142" 
d="M117 791h-89l15 -268h60z" />
    <glyph glyph-name="parenleft" unicode="(" horiz-adv-x="365" 
d="M323 0v38q-137 30 -175 161q-17 60 -17 199q0 112 9 166q13 75 60.5 126.5t122.5 66.5v39q-85 -19 -162 -86q-130 -112 -130 -312q0 -186 111 -294q83 -81 181 -104z" />
    <glyph glyph-name="parenright" unicode=")" horiz-adv-x="365" 
d="M31 0v38q137 30 175 161q17 60 17 199q0 112 -9 166q-13 75 -60.5 126.5t-122.5 66.5v39q85 -19 162 -86q130 -112 130 -312q0 -186 -111 -294q-83 -81 -181 -104z" />
    <glyph glyph-name="asterisk" unicode="*" horiz-adv-x="430" 
d="M381 637q-24 37 -24 77v9l-113 -52l18 119q-11 -2 -21 -3.5t-20 -1.5q-24 0 -46 9l11 -121l-109 50q2 -48 -25 -85l117 -23l-84 -87q43 -15 71 -52l56 98l57 -102q35 41 71 49l-82 94z" />
    <glyph glyph-name="plus" unicode="+" 
d="M483 321v56h-204v196h-59v-196h-203v-56h203v-196h59v196h204z" />
    <glyph glyph-name="comma" unicode="," horiz-adv-x="176" 
d="M152 0q0 44 -36 79q-9 9 -42 28q-17 -19 -29.5 -34.5t-21.5 -26.5q25 -8 37 -22q25 -24 25 -65q0 -48 -37 -84q-15 -15 -45 -34l9 -16q43 22 76 52q64 58 64 123z" />
    <glyph glyph-name="hyphen" unicode="-" horiz-adv-x="240" 
d="M240 285q-42 -2 -76.5 -3t-62.5 -1h-65q-19 -38 -36 -65q35 4 63 5.5t50 1.5q18 0 40 -1t48 -3q18 33 39 66z" />
    <glyph glyph-name="period" unicode="." horiz-adv-x="176" 
d="M143 48q0 22 -16 38t-38 16q-23 0 -38.5 -16t-15.5 -39t15.5 -37.5t38.5 -14.5t38.5 15t15.5 38z" />
    <glyph glyph-name="slash" unicode="/" horiz-adv-x="327" 
d="M302 808l-36 12l-224 -818l37 -9z" />
    <glyph glyph-name="zero" unicode="0" horiz-adv-x="700" 
d="M680 381q0 76 -28 175q-28 105 -119 182q-94 79 -201 79q-68 0 -132 -32q-92 -46 -144 -142q-48 -89 -48 -198q0 -104 54 -240q34 -87 124 -145q90 -57 186 -57q52 0 124 31q86 36 139 146q45 97 45 201zM585 354q0 -89 -31 -157q-13 -28 -30.5 -51t-40.5 -40
q-50 -39 -107 -39q-103 0 -185 106q-71 93 -87 204q-6 40 -6 86q0 87 30 156q12 27 30.5 51t42 42t50.5 28t56 10q89 0 169 -89q109 -124 109 -307z" />
    <glyph glyph-name="one" unicode="1" horiz-adv-x="260" 
d="M245 2q-27 289 -27 487q0 94 5.5 171.5t16.5 139.5q-9 0 -21.5 -0.5t-28.5 -1.5q-17 -1 -29.5 -1.5t-19.5 -0.5h-31q-8 2 -14.5 2.5t-10.5 1.5q-4 -32 -25.5 -52t-53.5 -16q7 -18 7 -69q0 -44 -6 -60q51 23 97 23q6 0 14 -2q9 -54 9 -221q0 -277 -32 -403q36 6 78 6
q17 0 34.5 -1t37.5 -3z" />
    <glyph glyph-name="two" unicode="2" horiz-adv-x="632" 
d="M625 140q-168 -54 -306 -54q-30 0 -65 2t-75 6q22 60 85 114q23 20 55 41t72 43q32 17 65 33.5t65 33.5q92 63 92 165q0 118 -84 196q-83 75 -201 75q-121 0 -198 -50q-87 -57 -105 -170q63 0 108 -17q16 72 66 119q53 50 124 50q42 0 75 -14.5t55.5 -40t34.5 -62
t12 -79.5q0 -126 -109 -184l-123 -61.5t-88 -43.5q-121 -82 -145 -246q67 10 152.5 14.5t191.5 4.5q64 0 113 -2.5t83 -7.5q16 73 50 135z" />
    <glyph glyph-name="three" unicode="3" horiz-adv-x="615" 
d="M556 555q0 5 -2 24t-6 53q-10 83 -127 130q-90 36 -190 36q-106 0 -223 -31q0 -56 -12 -102q157 78 279 78q160 0 160 -153q0 -142 -246 -142q-29 0 -55 1.5t-49 5.5q1 -2 1 -12q0 -30 -14 -69q60 6 104 6q239 0 239 -165q0 -150 -139 -150q-103 0 -261 80q3 -12 3 -24
q0 -40 -18 -86l138 -21q34 -5 64.5 -8t58.5 -3q87 0 164 33q96 40 107 115q5 37 7.5 57.5t2.5 24.5q0 78 -57 123q-39 30 -130 59q46 10 78 19t52 19q71 36 71 102z" />
    <glyph glyph-name="four" unicode="4" horiz-adv-x="576" 
d="M558 265l-44 -10q-25 -5 -48 -5q0 128 8 174q-18 -7 -53 -7q-36 0 -50 7q9 -38 9 -133v-41q-23 0 -58 -1t-83 -3q-93 -3 -140 -3q9 13 36.5 49t74.5 96q221 285 310 415q-71 -13 -141 -13h-14q-8 0 -11 1q-14 -29 -38.5 -74.5t-61.5 -106.5q-181 -305 -243 -367
q0 -2 0.5 -6t1.5 -9v-16q0 -49 -10 -76q67 9 140.5 13.5t155.5 3.5h8t13 -1h21h46q0 -92 -19 -155q26 4 46.5 6t37.5 2q5 0 12.5 -0.5t17.5 -1.5q-15 49 -15 152h19q40 0 65 -5q-1 5 -1.5 10.5t-0.5 11.5q0 34 9 93z" />
    <glyph glyph-name="five" unicode="5" horiz-adv-x="632" 
d="M594 655q-34 62 -50 135q-34 -5 -83 -7.5t-113 -2.5q-106 0 -191.5 5t-152.5 15q30 -77 30 -176q0 -91 -22 -172q63 80 192 80q121 0 193 -74t72 -194q0 -88 -45 -140q-47 -56 -132 -56q-71 0 -124 50q-50 47 -66 119q-45 -17 -107 -17q17 -113 104 -170q77 -50 198 -50
q120 0 202 76q83 77 83 195q0 133 -102 231q-102 99 -236 99q-68 0 -126 -31q-6 16 -6 48q0 46 14 93q61 6 118 6q161 0 350 -62z" />
    <glyph glyph-name="six" unicode="6" horiz-adv-x="630" 
d="M611 250q0 46 -16 114q-17 72 -86 116q-64 40 -142 40q-67 0 -130 -29q-70 -33 -92 -91q-8 18 -8 67q0 55 9 123q21 153 172 153q112 0 268 -78q-13 45 -13 102q-123 35 -225 35q-332 0 -332 -347q0 -182 78 -309q95 -152 264 -152q111 0 182 72q71 73 71 184zM522 241
q0 -78 -49 -127q-48 -49 -125 -49q-52 0 -101 30q-53 32 -68 79q-19 57 -19 93q0 75 56 125q53 47 130 47q69 0 113 -38.5t57 -105.5q6 -30 6 -54z" />
    <glyph glyph-name="seven" unicode="7" horiz-adv-x="585" 
d="M580 800q-132 -33 -407 -33q-104 0 -159 11q3 -12 3 -29q0 -54 -19 -101q145 43 322 43q67 0 97 -6q5 -27 -50 -156q-75 -174 -142 -305t-130 -224q36 6 78 6q17 0 34.5 -1t37.5 -3q31 118 96 282q142 359 239 516z" />
    <glyph glyph-name="eight" unicode="8" horiz-adv-x="570" 
d="M553 220q0 37 -11 70.5t-31 61.5t-48 48t-63 30q91 30 91 146q0 95 -65 157t-161 62q-108 0 -178 -48q-80 -56 -80 -159q0 -59 30 -107q33 -53 88 -66q-117 -42 -117 -166q0 -114 94 -187q85 -66 203 -66q107 0 175 57q73 61 73 167zM403 552q0 -32 -11 -57.5t-30 -44
t-46 -28.5t-58 -10q-33 0 -61.5 10.5t-48.5 30t-31.5 47t-11.5 60.5q0 72 35 125q40 60 109 60q62 0 104 -51q37 -44 47 -109q3 -18 3 -33zM450 230q0 -71 -51 -120q-51 -48 -123 -48q-69 0 -113 47q-40 43 -48 116v12q0 63 55 100q46 31 114 31q69 0 115 -34
q51 -38 51 -104z" />
    <glyph glyph-name="nine" unicode="9" horiz-adv-x="630" 
d="M612 341q0 181 -78 309q-95 153 -264 153q-113 0 -183 -73q-70 -71 -70 -184q0 -22 4 -50t12 -62q17 -74 86 -118q64 -40 142 -40q67 0 130 29q70 33 92 91q12 -21 12 -70t-13 -120q-26 -146 -164 -146q-101 0 -246 81q1 -5 1.5 -9t0.5 -6q0 -24 -37 -97q124 -34 231 -34
q344 0 344 346zM468 529q0 -76 -55 -124q-54 -48 -131 -48q-69 0 -113 38.5t-57 105.5q-6 30 -6 54q0 76 48 126q50 50 126 50q52 0 102 -31q52 -31 67 -78q19 -57 19 -93z" />
    <glyph glyph-name="colon" unicode=":" horiz-adv-x="176" 
d="M143 381q0 22 -16 38t-38 16q-23 0 -38.5 -15.5t-15.5 -38.5t15.5 -38.5t38.5 -15.5t38.5 15.5t15.5 38.5zM143 48q0 22 -16 38t-38 16q-23 0 -38.5 -16t-15.5 -39t15.5 -37.5t38.5 -14.5t38.5 15t15.5 38z" />
    <glyph glyph-name="semicolon" unicode=";" horiz-adv-x="176" 
d="M143 381q0 21 -16.5 37.5t-37.5 16.5q-23 0 -39 -15.5t-16 -38.5q0 -22 16 -38t38 -16q23 0 39 15.5t16 38.5zM152 0q0 44 -36 79q-9 9 -42 28q-17 -19 -29.5 -34.5t-21.5 -26.5q25 -8 37 -22q25 -24 25 -65q0 -48 -37 -84q-15 -15 -45 -34l9 -16q43 22 76 52
q64 58 64 123z" />
    <glyph glyph-name="less" unicode="&#x3c;" 
d="M466 72v113l-312 151l312 151v114l-433 -216v-97z" />
    <glyph glyph-name="equal" unicode="=" 
d="M483 395v55h-466v-55h466zM483 249v55h-466v-55h466z" />
    <glyph glyph-name="greater" unicode="&#x3e;" 
d="M467 288v96l-433 217v-113l312 -152l-312 -150v-114z" />
    <glyph glyph-name="question" unicode="?" horiz-adv-x="356" 
d="M323 551q0 91 -36 151q-44 72 -129 72q-44 0 -92 -19q-14 -45 -26 -84t-23 -71q50 53 125 53q62 0 93 -49q25 -40 25 -109q0 -120 -72 -190q-40 -40 -104 -60v-81q79 35 137 103q102 118 102 284zM215 48q0 22 -15.5 38t-37.5 16q-23 0 -39 -16t-16 -39t15.5 -37.5
t38.5 -14.5t38.5 15t15.5 38z" />
    <glyph glyph-name="at" unicode="@" horiz-adv-x="674" 
d="M654 381q0 109 -75 186q-90 91 -224 91q-130 0 -224 -84q-111 -99 -111 -251q0 -117 70 -205q99 -124 261 -124q88 0 162 40.5t119 113.5l-34 20q-24 -41 -62 -71q-82 -67 -183 -67q-123 0 -209 89q-81 84 -81 205q0 115 72 198q87 99 221 99q101 0 175 -63
q83 -71 83 -179q0 -88 -57 -148q-32 -33 -79 -45v187q0 73 3 118q-77 21 -150 48q-69 -60 -138 -100q-7 -35 -10 -66.5t-3 -60.5q0 -101 49 -144q34 -31 106 -40q25 37 58 73v-69l67 18q51 13 57 17q26 8 53 31q84 67 84 183zM393 216q-20 -7 -37 -7q-59 0 -78 55
q-8 24 -8 77q0 39 2.5 69.5t7.5 52.5l113 -34v-213z" />
    <glyph glyph-name="A" unicode="A" horiz-adv-x="597" 
d="M590 12q-29 54 -56.5 119t-53.5 143q-116 345 -116 453q25 3 53 3q89 0 143 -16q0 34 14 78q-26 -2 -62 -3.5t-84 -1.5l-218 3q-72 1 -112.5 1.5t-51.5 0.5q0 -17 -3 -51q-3 -35 -3 -51q111 37 187 37q14 0 17 -1q-14 -100 -45 -224q-57 -227 -159 -507q58 13 92 13
q14 0 28 -1t28 -3q31 229 50 290l154 -2q54 -186 54 -297q79 17 144 17zM372 362q-23 -6 -56 -6q-15 0 -31.5 1t-34.5 3q4 29 10 65.5t16 79.5q8 35 17 71t17 72q10 -36 19 -72t19 -72q24 -98 24 -142z" />
    <glyph glyph-name="B" unicode="B" horiz-adv-x="600" 
d="M583 220q0 35 -13 90q-21 85 -237 124q104 24 149 51q74 45 74 127q0 10 -3 28q-27 165 -367 165q-42 0 -144 -6q64 -19 64 -339q0 -103 -12 -239q-17 -197 -47 -217q61 -6 133 -6q403 0 403 222zM440 616q0 -72 -91 -129q-82 -52 -158 -52q-6 61 -6 147q0 66 2 112t6 73
q15 3 32 3q76 0 141 -38q74 -44 74 -116zM474 238q0 -96 -92 -144q-28 -14 -72.5 -26.5t-106.5 -22.5q-7 35 -10 97.5t-3 154.5q0 63 3 96q281 0 281 -155z" />
    <glyph glyph-name="C" unicode="C" horiz-adv-x="665" 
d="M640 755q-41 16 -77.5 26t-70.5 14q-21 2 -60 3.5t-97 1.5q-159 0 -239 -98q-54 -66 -77 -136q-20 -66 -20 -154q0 -162 148 -288q143 -120 308 -119q54 1 97 5.5t78 14.5l5 135q-78 -94 -207 -94q-104 0 -174 54q-132 99 -132 286q0 27 3 54q12 110 48 179q31 60 92 91
q58 30 128 30q145 0 222 -125z" />
    <glyph glyph-name="D" unicode="D" horiz-adv-x="665" 
d="M649 358q0 43 -6 96q-17 146 -83 226q-115 136 -342 136q-29 0 -72.5 -4.5t-103.5 -12.5q64 -19 64 -339q0 -103 -12 -239q-17 -197 -47 -217q83 -7 130 -10.5t59 -3.5q114 0 202 28q111 35 164 131q47 86 47 209zM522 340q0 -289 -239 -289q-10 0 -31 2t-31 2
q-8 82 -12 227t-4 356q0 91 3 114q96 0 188 -54q126 -77 126 -358z" />
    <glyph glyph-name="E" unicode="E" horiz-adv-x="665" 
d="M640 755q-41 16 -77.5 26t-70.5 14q-21 2 -60 3.5t-97 1.5q-159 0 -239 -98q-54 -66 -77 -136q-20 -66 -20 -154q0 -162 148 -288q143 -120 308 -119q54 1 97 5.5t78 14.5l5 135q-92 -95 -217 -95q-99 0 -169 54q-124 94 -124 296l395 -45l80 145q-22 -10 -42.5 -18
t-40.5 -15q-120 -39 -240 -39q-31 0 -69 4.5t-83 12.5q0 89 42 170q68 131 225 131q146 0 223 -126z" />
    <glyph glyph-name="F" unicode="F" horiz-adv-x="532" 
d="M536 702q-40 57 -67 76q-37 26 -95 26h-28q-14 -3 -62 -9q-83 -12 -177 -124l-12 109q-9 -3 -21 -3q-34 0 -69 23q25 -75 25 -334q0 -179 -6 -295t-19 -171q26 14 90 14q31 0 49 -6q-17 96 -25.5 179.5t-8.5 155.5q0 29 3 47q46 13 123 13q35 0 69.5 -3t66.5 -10
q-1 3 -1 13q0 29 34 82q-115 -23 -221 -23q-46 0 -71 6v34q0 62 16 104q17 45 75 82q59 38 109 38q68 0 132 -91q9 25 37 46t54 21z" />
    <glyph glyph-name="G" unicode="G" horiz-adv-x="665" 
d="M641 457q-23 -2 -50 -3.5t-58 -1.5q-94 0 -162 4.5t-113 14.5q2 -13 3.5 -26.5t1.5 -29.5q0 12 -3 -57v-8t1 -8q14 0 35 1.5l49 3.5q57 6 85 6q48 0 80 -8q11 -46 11 -158q0 -34 -0.5 -60.5t-1.5 -45.5q-77 -23 -114 -23q-71 0 -166 73q-117 88 -117 275q0 27 3 54
q12 110 48 179q31 60 92 91q58 30 128 30q145 0 222 -125l25 120q-41 16 -77.5 26t-70.5 14q-21 2 -60 3.5t-97 1.5q-159 0 -239 -98q-54 -66 -77 -136q-20 -66 -20 -154q0 -163 149 -286t307 -121q32 2 55.5 4t39.5 4q50 5 80 12q-9 82 -9 170q0 75 5 140t15 122z" />
    <glyph glyph-name="H" unicode="H" horiz-adv-x="610" 
d="M590 7q-27 289 -27 487q0 94 5.5 171.5t16.5 139.5q-9 0 -21.5 -0.5t-28.5 -1.5q-17 -1 -29.5 -1.5t-19.5 -0.5h-31q-8 2 -14.5 2.5t-10.5 1.5q46 -117 46 -292v-19q0 -10 -1 -14l-325 -10v16q-1 5 -1 9v7q0 61 7.5 135.5t23.5 162.5q-9 0 -21.5 -0.5t-28.5 -1.5
q-17 -1 -29.5 -1.5t-19.5 -0.5h-31q-8 2 -14.5 2.5t-10.5 1.5q42 -110 42 -414q0 -264 -32 -386q36 6 78 6q17 0 34.5 -1t37.5 -3l-35 383l325 20v-20v-13q1 -5 1 -10v-7q2 -200 -36 -350q36 6 78 6q17 0 34.5 -1t37.5 -3z" />
    <glyph glyph-name="I" unicode="I" horiz-adv-x="222" 
d="M185 2q-27 289 -27 487q0 94 5.5 171.5t16.5 139.5q-9 0 -21.5 -0.5t-28.5 -1.5q-17 -1 -29.5 -1.5t-19.5 -0.5h-31q-8 2 -14.5 2.5t-10.5 1.5q42 -110 42 -414q0 -264 -32 -386q36 6 78 6q17 0 34.5 -1t37.5 -3z" />
    <glyph glyph-name="J" unicode="J" horiz-adv-x="368" 
d="M350 795q-48 0 -145 -9q-48 -4 -84 -6t-60 -2q-7 0 -20.5 1t-20.5 1q12 -41 12 -64q0 -8 -1 -23t-1 -23q24 9 82 18l108 17q0 -51 6 -166l10 -221q2 -53 3 -91t1 -63q0 -142 -22 -164q-30 -30 -83 -30q-44 0 -95 23l-16 -120q120 0 173 17q112 37 120 186q1 91 1 182
t1 183q2 236 31 354z" />
    <glyph glyph-name="K" unicode="K" horiz-adv-x="540" 
d="M534 804q-23 -2 -44.5 -3t-40.5 -1q-31 0 -50 3q-113 -209 -259 -378v47q-1 16 -1 27v20q0 188 25 284q-27 -7 -82 -7q-35 0 -52 4q8 -42 12.5 -99t6.5 -129v-230q0 -294 -19 -342q11 2 26.5 3t35.5 1h33q7 0 15.5 -1t18.5 -3q-19 77 -19 340q30 -37 56 -69.5t48 -61.5
q80 -104 136 -212q55 6 99 6h24q5 -1 9 -1.5t6 -0.5q-36 31 -102 117q-82 105 -136.5 181.5t-80.5 126.5q15 32 67 100q126 167 268 278z" />
    <glyph glyph-name="L" unicode="L" horiz-adv-x="506" 
d="M498 85q-64 -16 -166 -20q-43 -1 -85 -2t-85 -2q-6 159 -6 303q0 293 24 436q-9 0 -21.5 -0.5t-28.5 -1.5q-17 -1 -29.5 -1.5t-19.5 -0.5h-31q-8 2 -14.5 2.5t-10.5 1.5q42 -110 42 -414q0 -264 -32 -386q25 4 73 5.5t120 1.5q91 0 157.5 -3.5t109.5 -10.5q0 3 -0.5 9.5
t-0.5 13.5q0 8 -0.5 15t-0.5 11q0 10 1.5 20.5t3.5 22.5z" />
    <glyph glyph-name="M" unicode="M" horiz-adv-x="895" 
d="M891 7q-35 67 -72 162t-77 221q-87 273 -87 395q0 17 1 21q-5 -1 -12 -1.5t-16 -2.5h-33q-29 0 -65 6q11 -38 11 -103q0 -45 -6 -108t-19 -146q-29 -184 -58 -243q-8 15 -21.5 50t-33.5 91q-111 310 -111 433q0 17 1 21q-5 -1 -12 -1.5t-16 -2.5h-33q-29 0 -65 6
q7 -20 7 -60q0 -87 -30 -229q-32 -155 -68 -283.5t-75 -232.5q15 2 24 3t13 1h19q42 -2 66.5 -3t32.5 -1q0 47 4.5 102t14.5 120q56 386 69 386q4 -5 37 -117q95 -320 95 -456q0 -7 -0.5 -15t-1.5 -17l31.5 3.5t21.5 0.5q48 -2 70.5 -3t21.5 -1q0 86 18 233q45 383 56 383
q3 -8 42 -141q101 -357 101 -471q15 2 24 3t13 1h19q42 -2 66.5 -3t32.5 -1z" />
    <glyph glyph-name="N" unicode="N" horiz-adv-x="610" 
d="M590 7q-27 289 -27 487q0 94 5.5 171.5t16.5 139.5q-9 0 -21 -0.5t-27 -1.5q-17 -1 -29 -1.5t-19 -0.5h-31q-8 2 -14 2.5t-10 1.5q12 -32 21 -81.5t16 -115.5q8 -76 12.5 -174.5t6.5 -221.5q-3 0 -82 109q-212 293 -252 475h-34q-11 -1 -20 -1h-14q-11 0 -26.5 1.5
t-36.5 3.5q42 -110 42 -414q0 -264 -32 -386q36 6 76 6h40q10 -2 17.5 -2.5t12.5 -1.5q-19 199 -33 434l-10 168q2 0 97 -126q245 -334 245 -473q37 6 56 6h20q10 -2 18.5 -2.5t15.5 -1.5z" />
    <glyph glyph-name="O" unicode="O" horiz-adv-x="810" 
d="M799 381q0 74 -33 175q-36 111 -148 187q-109 74 -227 74q-81 0 -156 -32q-53 -23 -95 -57.5t-71 -78t-44.5 -95.5t-15.5 -109q0 -102 52 -213q50 -108 155 -170q101 -59 222 -59q61 0 145 31q98 35 159 140q57 97 57 207zM689 354q0 -89 -37 -157q-31 -60 -87.5 -95
t-122.5 -35q-116 0 -210 100q-91 92 -110 210q-4 23 -6 43.5t-2 39.5q0 88 36 157q15 30 37.5 54.5t50.5 42t59 27t64 9.5q106 0 200 -89q128 -125 128 -307z" />
    <glyph glyph-name="P" unicode="P" horiz-adv-x="588" 
d="M559 602q0 87 -81 135q-113 65 -334 65q-8 0 -21 -0.5t-30 -1.5t-30 -1h-21q64 -19 64 -339q0 -103 -12 -239q-17 -197 -47 -217q22 4 45 6t49 2q23 0 44.5 -1.5t41.5 -5.5q-17 51 -29 158q-5 48 -7.5 88t-2.5 75v16v9q0 5 1 10q108 0 230 67q140 77 140 174zM444 600
q0 -73 -95 -138q-86 -59 -162 -59q-2 19 -3 35t-1 29v58q0 81 2.5 140.5t7.5 101.5q5 0 13.5 1t13.5 1q79 0 147 -44q77 -50 77 -125z" />
    <glyph glyph-name="Q" unicode="Q" horiz-adv-x="810" 
d="M544 92q-53 -25 -102 -25q-116 0 -210 100q-91 92 -110 210q-4 23 -6 43.5t-2 39.5q0 88 36 157q15 30 37.5 54.5t50.5 42t59 27t64 9.5q106 0 200 -89q128 -125 128 -307q0 -133 -78 -215q-51 65 -92 92q-56 38 -126 38q-69 0 -164 -64q126 0 207 -28q53 -20 108 -85z
M883 -7q-45 -20 -84 -20q-38 0 -65 15q-7 4 -74 89q20 17 38.5 37.5t35.5 46.5q65 98 65 220q0 74 -33 175q-36 111 -148 187q-109 74 -227 74q-81 0 -156 -32q-53 -23 -95 -57.5t-71 -78t-44.5 -95.5t-15.5 -109q0 -102 52 -213q50 -108 155 -170q101 -59 222 -59
q64 0 145 31l5 1q39 -51 59 -71q32 -33 65 -41q43 -8 66 -8q41 0 66 20q20 16 39 58z" />
    <glyph glyph-name="R" unicode="R" horiz-adv-x="600" 
d="M589 15q-17 22 -40 55.5t-52 79.5q-46 72 -89 140.5t-85 137.5q107 25 154 54q78 46 78 131q0 5 -1.5 19t-5.5 37q-12 77 -157 113q-97 23 -205 23q-42 0 -144 -6q64 -19 64 -339q0 -103 -12 -239q-17 -197 -47 -217q112 -9 139 -9q13 0 14 1q-9 166 -9 326
q0 19 0.5 36.5t1.5 34.5l68 14q56 -57 121 -203q66 -147 66 -223q93 34 141 34zM440 616q0 -72 -91 -129q-82 -52 -158 -52q-6 61 -6 147q0 66 2 112t6 73q15 3 32 3q76 0 141 -38q74 -44 74 -116z" />
    <glyph glyph-name="S" unicode="S" horiz-adv-x="540" 
d="M535 800q-45 7 -86 10t-80 3q-319 0 -319 -193q0 -97 96 -151q60 -31 104 -54t74 -37q96 -53 96 -148q0 -158 -171 -158q-100 0 -214 53l-15 -125q36 -5 72 -8t71 -3q147 0 239 43q123 58 123 189v24q0 77 -97 138q-60 36 -104.5 62.5t-75.5 43.5q-98 62 -98 136
q0 65 44 100q40 31 108 31q121 0 225 -71z" />
    <glyph glyph-name="T" unicode="T" horiz-adv-x="650" 
d="M635 669q-11 41 -11 88q0 25 3 49q-90 -9 -319 -9q-211 0 -292 9v-20q0 -72 -13 -114q43 16 130 25q16 2 49.5 4.5t84.5 6.5v-23q0 -48 -0.5 -103t-1.5 -119q-7 -338 -39 -463q36 6 78 6q17 0 34.5 -1t37.5 -3q-20 194 -24 542l-3 164q258 -18 286 -39z" />
    <glyph glyph-name="U" unicode="U" horiz-adv-x="720" 
d="M720 0q-30 31 -30 335q0 52 1.5 111.5t3.5 127.5q4 98 8.5 154t11.5 72q-41 -15 -75 -15q-36 0 -67 16q21 -44 21 -300l-1 -142q-1 -46 -1 -77v-47q-53 -150 -156 -150q-151 0 -211 191q-77 245 -77 528q-36 -14 -82 -14q-37 0 -66 10q26 -30 72 -280q26 -144 43 -225.5
t25 -103.5q32 -96 92 -150q68 -59 163 -59q72 0 122 44q37 34 75 111q-7 -24 -7 -137q16 9 61 9q51 0 74 -9z" />
    <glyph glyph-name="V" unicode="V" horiz-adv-x="536" 
d="M528 796q-9 0 -21.5 -0.5t-28.5 -1.5q-17 -1 -29.5 -1.5t-19.5 -0.5h-31q-8 2 -14.5 2.5t-10.5 1.5q0 -71 -28 -202q-13 -59 -25 -117t-24 -117q-38 -168 -52 -168q-1 3 -7.5 35t-18.5 94q-31 160 -46.5 279t-15.5 200q-9 0 -21.5 -0.5t-28.5 -1.5q-17 -1 -29.5 -1.5
t-19.5 -0.5h-31q-8 2 -14.5 2.5t-10.5 1.5q13 -35 30.5 -90t39.5 -131q103 -360 103 -524q0 -41 -7 -59q18 2 34.5 3.5t30.5 1.5h33q17 -1 28 -3q-1 3 -1 20q0 122 87 395q40 126 77 221t72 162z" />
    <glyph glyph-name="W" unicode="W" horiz-adv-x="895" 
d="M891 793q-9 0 -21.5 -0.5t-28.5 -1.5q-17 -1 -29.5 -1.5t-19.5 -0.5h-31q-8 2 -14.5 2.5t-10.5 1.5q0 -65 -29 -201q-13 -60 -25 -119.5t-25 -119.5q-39 -172 -54 -172q-5 28 -12.5 67t-16.5 90q-55 296 -55 459q-9 0 -21.5 -0.5t-28.5 -1.5q-17 -1 -29.5 -1.5
t-19.5 -0.5h-31q-8 2 -14.5 2.5t-10.5 1.5q1 -10 1.5 -18.5t0.5 -15.5q0 -76 -26 -200l-45 -216q-36 -155 -51 -155q-1 3 -7.5 35t-18.5 94q-31 160 -46.5 279t-15.5 200q-9 0 -21.5 -0.5t-28.5 -1.5q-17 -1 -29.5 -1.5t-19.5 -0.5h-31q-8 2 -14.5 2.5t-10.5 1.5
q13 -35 30.5 -90t39.5 -131q103 -360 103 -524q0 -41 -7 -59q18 2 34.5 3.5t30.5 1.5h33q17 -1 28 -3q-1 3 -1 12v11q0 66 30 189q37 153 66 248.5t52 133.5q7 -14 16.5 -44t21.5 -76q62 -240 62 -394q0 -56 -10 -85q36 6 65 6h33q9 -2 16 -2.5t12 -1.5q-1 3 -1 20
q0 122 87 395q40 126 77 221t72 162z" />
    <glyph glyph-name="X" unicode="X" horiz-adv-x="584" 
d="M570 2q-35 52 -75 129q-34 61 -69 128t-73 140l40 82q83 171 177 314q-9 0 -21.5 -0.5t-28.5 -1.5q-17 -1 -29.5 -1.5t-19.5 -0.5h-31q-8 2 -14.5 2.5t-10.5 1.5q0 -77 -33 -165q-11 -29 -28.5 -67t-42.5 -86q-3 0 -25 45q-32 63 -55 130.5t-36 142.5q-9 0 -21.5 -0.5
t-28.5 -1.5q-17 -1 -29.5 -1.5t-19.5 -0.5h-31q-8 2 -14.5 2.5t-10.5 1.5q75 -101 177 -294l50 -95l-55 -112q-107 -213 -177 -294q36 6 78 6q17 0 34.5 -1t37.5 -3q12 55 42 132q11 29 21 57.5t21 57.5q30 77 42 77q2 0 31 -51q78 -149 78 -275q36 6 78 6q17 0 34.5 -1
t37.5 -3z" />
    <glyph glyph-name="Y" unicode="Y" horiz-adv-x="560" 
d="M568 796q-9 0 -21.5 -0.5t-28.5 -1.5q-17 -1 -29.5 -1.5t-19.5 -0.5h-31q-8 2 -14.5 2.5t-10.5 1.5q0 -118 -99 -341q-9 20 -20 44t-24 53q-91 201 -100 252q-63 -12 -124 -12q-21 0 -30 3q19 -14 71 -96q66 -107 114 -187t80 -134l-40 -92q-83 -187 -154 -289
q18 2 37.5 3.5t40.5 1.5q33 0 72 -3q8 55 26.5 120.5t46.5 141.5q116 319 258 535z" />
    <glyph glyph-name="Z" unicode="Z" horiz-adv-x="550" 
d="M555 800l-151 -1q-212 -3 -208 -3h-90q-43 0 -56 4q0 -58 -34 -107q55 11 118 16.5t135 5.5q35 0 63.5 -1.5t51.5 -5.5q-32 -124 -153 -361q-52 -102 -101 -188.5t-95 -158.5q51 7 153 10.5t258 3.5q24 0 42.5 -0.5t31.5 -1.5q0 64 28 152q-35 -22 -143 -37
q-46 -7 -84 -10.5t-69 -3.5h-19q-5 1 -8 1.5t-5 0.5q5 32 19.5 74t39.5 96q26 57 59.5 122t73.5 138q7 12 42 75.5t101 179.5z" />
    <glyph glyph-name="bracketleft" unicode="[" horiz-adv-x="349" 
d="M312 798q-28 -4 -59.5 -5.5t-67.5 -1.5h-12q-6 1 -12 1h-10h-89q4 -63 6 -131t2 -144v-205q0 -109 -2.5 -186.5t-7.5 -125.5h176q23 0 70 -6q-9 31 -15 63q-38 -2 -62 -3.5t-33 -1.5h-31q-3 24 -4.5 40.5t-2.5 25.5q-2 40 -3.5 91t-1.5 114v200q0 69 3 123t8 96h28
q25 0 49.5 -1.5t49.5 -5.5q7 31 21 63z" />
    <glyph glyph-name="backslash" unicode="\" horiz-adv-x="327" 
d="M42 808l36 12l224 -818l-37 -9z" />
    <glyph glyph-name="bracketright" unicode="]" horiz-adv-x="349" 
d="M60 798q28 -4 59.5 -5.5t67.5 -1.5h12q6 1 11 1h11h89q-4 -63 -6 -131t-2 -144v-205q0 -109 2.5 -186.5t7.5 -125.5h-176q-24 0 -70 -6q9 31 15 63q38 -2 62 -3.5t33 -1.5h31q3 24 4.5 40.5t2.5 25.5q2 40 3.5 91t1.5 114v200q0 69 -3 123t-8 96h-28q-25 0 -49.5 -1.5
t-49.5 -5.5q-8 31 -21 63z" />
    <glyph glyph-name="asciicircum" unicode="^" 
d="M477 362l-163 307h-128l-163 -307h103l124 230l124 -230h103z" />
    <glyph glyph-name="underscore" unicode="_" 
d="M500 -132v70h-500v-70h500z" />
    <glyph glyph-name="grave" unicode="`" horiz-adv-x="597" 
d="M323 864q-21 26 -40.5 50.5t-37.5 47.5l-55 -38q25 -20 51 -41.5t52 -44.5q10 9 17.5 15.5t12.5 10.5z" />
    <glyph glyph-name="a" unicode="a" horiz-adv-x="451" 
d="M446 9q-45 82 -84 198q-87 259 -87 343q10 1 20 1.5t20 0.5q66 0 108 -12q0 26 11 59q-20 -2 -47.5 -3t-62.5 -1l-165 2q-54 1 -85 1.5t-39 0.5q0 -14 -3 -39q-1 -13 -1.5 -22.5t-0.5 -15.5q84 28 142 28q10 0 12 -1q-5 -38 -13.5 -80t-20.5 -90q-44 -173 -120 -383
q44 10 70 10q19 0 42 -3q24 173 38 219l116 -1q41 -143 41 -225q56 13 109 13zM281 274q-18 -5 -42 -5q-23 0 -50 3q2 23 7 50t13 59q6 28 12 55t13 54q47 -183 47 -216z" />
    <glyph glyph-name="b" unicode="b" horiz-adv-x="454" 
d="M441 166q0 27 -10 68q-17 66 -179 94q77 18 112 39q56 33 56 96q0 4 -0.5 9t-1.5 12q-21 125 -277 125q-16 0 -43.5 -1.5t-65.5 -3.5q48 -15 48 -256q0 -78 -9 -181q-14 -150 -35 -164q23 -2 48 -3t52 -1q305 0 305 167zM333 466q0 -55 -69 -98q-62 -39 -120 -39
q-2 23 -3 51t-1 60q0 99 6 140q5 1 11 1.5t13 0.5q59 0 106 -28q57 -35 57 -88zM358 180q0 -73 -69 -109q-42 -22 -136 -37q-9 52 -9 191q0 23 0.5 41t1.5 31q212 0 212 -117z" />
    <glyph glyph-name="c" unicode="c" horiz-adv-x="503" 
d="M484 571q-61 24 -112 30q-16 2 -45.5 3t-73.5 1q-121 0 -181 -74q-73 -91 -73 -220q0 -123 112 -217q108 -92 233 -90q79 0 132 15l4 102q-59 -71 -156 -71q-79 0 -132 40q-100 76 -100 217q0 102 38 176q47 92 167 92q109 0 168 -95z" />
    <glyph glyph-name="d" unicode="d" horiz-adv-x="503" 
d="M491 271q0 16 -1.5 34t-3.5 38q-12 109 -63 171q-87 103 -258 103q-22 0 -55 -3t-78 -10q48 -15 48 -256q0 -78 -9 -181q-14 -150 -35 -164q63 -5 98 -7.5t44 -2.5q84 0 153 20q160 51 160 258zM395 257q0 -218 -181 -218q-8 0 -23.5 1.5t-23.5 1.5q-12 123 -12 440
q0 35 0.5 56.5t1.5 30.5q74 0 142 -42q96 -57 96 -270z" />
    <glyph glyph-name="e" unicode="e" horiz-adv-x="503" 
d="M484 571q-61 24 -112 30q-16 2 -45.5 3t-73.5 1q-121 0 -181 -74q-73 -91 -73 -220q0 -123 112 -217q108 -92 233 -90q79 0 132 15l4 102q-69 -72 -164 -72q-73 0 -128 41q-94 70 -94 224l299 -34l61 109q-17 -8 -32.5 -14t-30.5 -11q-93 -29 -182 -29q-23 0 -51.5 3
t-63.5 10q0 66 32 128q51 99 170 99q110 0 169 -95z" />
    <glyph glyph-name="f" unicode="f" horiz-adv-x="402" 
d="M405 531q-30 43 -50 57q-29 20 -72 20h-21l-18 -3t-29 -4q-64 -9 -134 -94l-9 83q-8 -3 -16 -3q-25 0 -52 18q19 -57 19 -253q0 -135 -4.5 -222.5t-14.5 -129.5q20 11 68 11q22 0 37 -5q-13 72 -19.5 135t-6.5 118q0 11 0.5 20t1.5 16q36 10 93 10q56 0 103 -10
q-1 2 -1 10q0 21 26 62q-86 -18 -167 -18q-32 0 -54 5v26q0 45 12 78q13 33 57 62q46 29 83 29q51 0 99 -69q3 9 10.5 18.5t17 16.5t20.5 11.5t21 4.5z" />
    <glyph glyph-name="g" unicode="g" horiz-adv-x="503" 
d="M485 345q-36 -3 -82 -3q-71 0 -122.5 3.5t-85.5 10.5q4 -17 4 -42q0 5 -0.5 -6t-1.5 -37q-2 -6 0 -12q11 0 27 1t37 3q22 2 37.5 3t26.5 1q38 0 61 -6q8 -35 8 -120q0 -26 -0.5 -46t-1.5 -34q-59 -17 -86 -17q-53 0 -126 55q-88 67 -88 208q0 102 38 176q47 92 167 92
q109 0 168 -95l19 91q-61 24 -112 30q-16 2 -45.5 3t-73.5 1q-121 0 -181 -74q-73 -91 -73 -220q0 -121 113 -217q108 -91 232 -90q79 1 132 15q-4 32 -5.5 64t-1.5 64q0 115 16 198z" />
    <glyph glyph-name="h" unicode="h" horiz-adv-x="461" 
d="M446 5q-10 110 -15 201.5t-5 166.5q0 72 4 130.5t12 105.5q-7 0 -16.5 -0.5t-20.5 -1.5q-14 -1 -24 -1h-14h-23q-13 1 -19 3q35 -93 35 -221v-15q0 -7 -1 -10l-246 -8v25q0 89 23 225q-7 0 -16.5 -0.5t-20.5 -1.5q-14 -1 -24 -1h-14h-23q-13 1 -19 3q32 -84 32 -313
q0 -202 -25 -292q14 2 28.5 3.5t30.5 1.5q25 0 55 -3l-27 289l246 15v-15v-10q1 -4 1 -8v-5q1 -152 -27 -264q14 2 28.5 3t30.5 1q25 0 54 -3z" />
    <glyph glyph-name="i" unicode="i" horiz-adv-x="168" 
d="M140 2q-21 217 -21 368q0 72 4.5 130t12.5 105q-7 0 -16.5 -0.5t-20.5 -1.5q-14 -1 -24 -1h-14h-23q-13 1 -19 3q32 -84 32 -313q0 -202 -25 -292q14 2 28.5 3.5t30.5 1.5q25 0 55 -3z" />
    <glyph glyph-name="j" unicode="j" horiz-adv-x="278" 
d="M265 601q-19 0 -46 -1.5t-64 -5.5q-72 -6 -109 -6q-5 0 -15.5 1t-15.5 1q9 -32 9 -49v-7q0 -4 -1 -10v-17q9 3 24 6t37 7l82 13q0 -19 1 -50t3 -76l8 -167q3 -80 3 -116q0 -105 -17 -124q-22 -22 -62 -22q-33 0 -72 17l-12 -91q93 0 131 13q85 28 91 140v138t1 139
q1 177 24 267z" />
    <glyph glyph-name="k" unicode="k" horiz-adv-x="408" 
d="M404 608q-36 -3 -65 -3q-11 0 -20 0.5t-17 1.5q-86 -156 -196 -286v15t-1 21v35q0 143 19 215q-23 -5 -62 -5q-26 0 -39 3q6 -32 9.5 -75t4.5 -97v-174q0 -220 -14 -259q16 3 47 3h24q11 0 26 -3q-14 62 -14 257q45 -56 78 -99q59 -77 103 -160q22 2 40.5 3t34.5 1h18
q5 -1 7 -1h5q-30 25 -78 88q-124 158 -164 233q6 11 18.5 30.5t32.5 45.5q48 63 98 115t105 95z" />
    <glyph glyph-name="l" unicode="l" horiz-adv-x="383" 
d="M376 64q-47 -11 -125 -15l-129 -3q-2 60 -3 117t-1 112q0 222 18 330q-7 0 -16.5 -0.5t-20.5 -1.5q-14 -1 -24 -1h-14h-23q-13 1 -19 3q32 -84 32 -313q0 -202 -25 -292q19 2 55.5 3.5t90.5 1.5q69 0 119.5 -2.5t82.5 -7.5v6q0 5 -1 12v19q0 14 3 32z" />
    <glyph glyph-name="m" unicode="m" horiz-adv-x="677" 
d="M674 5q-53 102 -113 290q-66 205 -66 298q0 13 1 16q-8 0 -21 -3h-25q-11 0 -23 1.5t-26 3.5q8 -29 8 -78q0 -34 -4.5 -81.5t-14.5 -110.5q-21 -136 -44 -184q-11 21 -42 107q-83 237 -83 327q0 13 1 16q-6 -1 -22 -3h-25q-11 0 -23 1.5t-26 3.5q6 -17 6 -46
q0 -64 -23 -173q-50 -233 -108 -390q22 3 27 3h15q61 -3 75 -3q0 35 3.5 77t10.5 91q42 292 52 292q2 -3 28 -89q72 -240 72 -345v-11t-1 -13q27 4 40 3q70 -3 69 -3q0 32 3.5 76t10.5 100q35 290 42 290q4 -5 32 -107q76 -267 76 -356q22 3 28 3h15q61 -3 75 -3z" />
    <glyph glyph-name="n" unicode="n" horiz-adv-x="461" 
d="M446 5q-10 110 -15 201.5t-5 166.5q0 72 4 130.5t12 105.5q-7 0 -16 -0.5t-20 -1.5q-13 -1 -22 -1h-14h-24q-12 1 -18 3q9 -25 16 -62t12 -87q5 -58 8.5 -132.5t5.5 -167.5q-2 0 -62 83q-159 220 -190 359h-12q-6 0 -14 -1h-25q-8 0 -20 1t-28 3q32 -84 32 -313
q0 -202 -25 -292q14 2 28.5 3.5t29.5 1.5h30q15 -3 23 -3q-8 76 -14 157.5t-11 170.5l-8 127q2 0 73 -96q186 -251 186 -357q14 2 24.5 3t17.5 1h15q17 -2 26 -3z" />
    <glyph glyph-name="o" unicode="o" horiz-adv-x="612" 
d="M604 288q0 57 -25 132q-27 85 -110 141q-83 57 -173 57q-30 0 -60 -6q-101 -21 -165 -97q-64 -74 -64 -179q0 -76 39 -161q38 -82 117 -128q76 -45 168 -45q44 0 110 23q74 27 120 106q43 73 43 157zM521 268q0 -67 -28 -119q-24 -45 -66 -71.5t-93 -26.5q-87 0 -159 75
q-66 69 -83 159q-6 34 -6 63q0 65 27 118q12 22 29 41t38 32t45 20.5t48 7.5q80 0 151 -68q97 -94 97 -231z" />
    <glyph glyph-name="p" unicode="p" horiz-adv-x="445" 
d="M423 455q0 66 -62 102q-85 49 -252 49q-6 0 -16.5 -0.5t-22.5 -0.5q-11 0 -21.5 -0.5t-16.5 -0.5q48 -15 48 -256q0 -78 -9 -181q-14 -150 -35 -164q31 6 71 6q17 0 33.5 -1.5t31.5 -3.5q-7 19 -12 48.5t-10 70.5q-4 35 -6 66t-2 57v12q0 10 1 15q80 0 174 50
q106 58 106 132zM336 454q0 -56 -72 -105q-67 -44 -123 -44q-3 28 -3 48v44q0 60 2 105.5t6 77.5q5 0 10 1h10q60 0 111 -33q59 -38 59 -94z" />
    <glyph glyph-name="q" unicode="q" horiz-adv-x="612" 
d="M411 70q-39 -19 -77 -19q-87 0 -159 75q-66 69 -83 159q-6 34 -6 63q0 65 27 118q12 22 29 41t38 32t45 20.5t48 7.5q80 0 151 -68q97 -94 97 -231q0 -101 -59 -163q-38 48 -69 70q-41 28 -96 28q-51 0 -124 -48q96 0 156 -22q42 -14 82 -63zM668 -5q-33 -15 -64 -15
q-28 0 -49 12q-6 4 -56 66q32 27 56 64q49 73 49 166q0 57 -25 132q-27 85 -110 141q-83 57 -173 57q-30 0 -60 -6q-101 -21 -165 -97q-64 -74 -64 -179q0 -76 39 -161q38 -82 117 -128q76 -45 168 -45q46 0 110 23l3 2q60 -78 94 -85q30 -6 50 -6q54 0 80 59z" />
    <glyph glyph-name="r" unicode="r" horiz-adv-x="454" 
d="M445 11q-13 17 -30 42.5t-40 59.5q-34 54 -66.5 106.5t-64.5 104.5q42 10 71 20t46 21q59 35 59 98q0 7 -6 42q-9 59 -118 86q-72 18 -155 18q-16 0 -43.5 -1.5t-65.5 -3.5q48 -15 48 -256q0 -78 -9 -181q-14 -150 -35 -164q42 -4 68 -5.5t37 -1.5q9 0 10 1
q-4 63 -5.5 124t-1.5 122q0 14 0.5 27.5t1.5 26.5l51 11q42 -43 92 -153q50 -114 50 -169q69 25 106 25zM333 466q0 -55 -69 -98q-62 -39 -120 -39q-2 23 -3 51t-1 60q0 99 6 140q5 1 11 1.5t13 0.5q59 0 106 -28q57 -35 57 -88z" />
    <glyph glyph-name="s" unicode="s" horiz-adv-x="408" 
d="M404 605q-33 5 -64.5 7.5t-60.5 2.5q-241 0 -241 -146q0 -74 72 -114q90 -47 135 -69q73 -40 73 -112q0 -120 -130 -120q-78 0 -162 40l-11 -94q28 -4 55 -6t53 -2q109 0 181 32q93 45 93 143v18q0 59 -73 105q-46 27 -80 47t-57 33q-74 47 -74 102q0 100 115 100
q92 0 170 -54z" />
    <glyph glyph-name="t" unicode="t" horiz-adv-x="491" 
d="M480 506q-8 30 -8 66q0 10 0.5 19t1.5 18q-68 -6 -241 -6q-160 0 -221 6v-15q0 -55 -10 -86q17 6 41.5 10.5t56.5 8.5q13 2 38.5 4t63.5 4v-17q0 -36 -0.5 -78t-1.5 -90q-2 -129 -9.5 -215.5t-19.5 -134.5q14 2 28.5 3.5t30.5 1.5q25 0 54 -3q-14 146 -18 409l-2 124
q195 -14 216 -29z" />
    <glyph glyph-name="u" unicode="u" horiz-adv-x="544" 
d="M544 0q-22 23 -22 253q0 307 19 352q-32 -12 -57 -12q-28 0 -51 13q16 -32 16 -227l-1 -108v-93q-41 -114 -118 -114q-114 0 -160 144q-58 183 -58 400q-27 -11 -62 -11q-26 0 -50 8q19 -22 54 -212q40 -216 51 -249q52 -157 194 -157q54 0 92 33q27 25 57 84
q-6 -20 -6 -104q13 7 46 7q41 0 56 -7z" />
    <glyph glyph-name="v" unicode="v" horiz-adv-x="405" 
d="M399 602q-7 0 -16.5 -0.5t-20.5 -1.5q-14 -1 -24 -1h-14h-23q-13 1 -19 3q0 -55 -22 -153l-36 -177q-28 -127 -40 -127q-1 2 -5.5 26.5t-13.5 70.5q-47 244 -47 363q-7 0 -16.5 -0.5t-20.5 -1.5q-14 -1 -24 -1h-14h-23q-13 1 -19 3q19 -50 52 -167q79 -273 79 -396
q0 -30 -6 -45q14 2 26 3t23 1h25q7 -1 12.5 -1.5t9.5 -0.5q-1 2 -1 15q0 91 65 298q60 188 113 290z" />
    <glyph glyph-name="w" unicode="w" horiz-adv-x="677" 
d="M674 600q-7 0 -16.5 -0.5t-21.5 -1.5q-14 -1 -23 -1t-14 -1h-24q-7 2 -11.5 2.5t-7.5 1.5q0 -55 -22 -153l-18 -90t-19 -90q-28 -130 -41 -130q-4 21 -9.5 51t-12.5 68q-42 223 -42 347q-7 0 -16 -0.5t-21 -1.5q-14 -1 -23 -1h-14h-24q-13 1 -19 3q1 -8 1.5 -14.5
t0.5 -11.5q0 -57 -20 -152q-8 -41 -17 -81t-17 -82q-27 -117 -39 -117q-1 2 -5.5 26.5t-13.5 70.5q-47 244 -47 363q-7 0 -16.5 -0.5t-20.5 -1.5q-14 -1 -24 -1h-14h-23q-13 1 -19 3q19 -50 52 -167q79 -273 79 -396q0 -30 -6 -45q14 2 26 3t23 1h25q7 -1 12.5 -1.5
t9.5 -0.5q-1 2 -1 8v9q0 25 5.5 60.5t16.5 81.5q56 232 90 290q10 -21 28 -91q47 -182 47 -298q0 -43 -7 -64q14 2 26 3t23 1h25q13 -2 21 -3q-1 3 -1 15q0 92 66 299q60 188 113 290z" />
    <glyph glyph-name="x" unicode="x" horiz-adv-x="441" 
d="M431 2q-13 20 -27 44t-30 53q-26 47 -52.5 97.5t-54.5 105.5l30 61q31 65 64.5 124t69.5 114h-17q-9 0 -21 -1q-14 -1 -23 -1.5t-14 -0.5h-23q-13 1 -19 3q0 -91 -79 -240q-1 1 -6 9t-13 24q-50 94 -69 207h-16t-21 -1q-14 -1 -23 -1.5t-14 -0.5h-24q-13 1 -19 3
q29 -38 62.5 -93.5t71.5 -128.5l38 -72l-42 -85q-79 -159 -134 -222q14 2 28.5 3.5t30.5 1.5q25 0 55 -3q5 21 12.5 45.5t18.5 53.5q8 22 16 43.5t16 43.5q22 58 32 58q2 0 23 -38q60 -113 60 -208q14 2 28 3.5t30 1.5q25 0 55 -3z" />
    <glyph glyph-name="y" unicode="y" horiz-adv-x="423" 
d="M429 602q-7 0 -16 -0.5t-21 -1.5q-14 -1 -23 -1h-14h-24q-13 1 -19 3q0 -89 -75 -258q-7 14 -15 32.5t-18 40.5q-69 155 -75 191q-48 -9 -94 -9q-8 0 -13.5 0.5t-9.5 1.5q13 -10 53 -73q50 -81 86.5 -141t60.5 -101l-30 -70q-31 -70 -59.5 -124.5t-56.5 -93.5
q14 2 28.5 3t30.5 1q25 0 54 -3q14 85 55 198q88 240 195 405z" />
    <glyph glyph-name="z" unicode="z" horiz-adv-x="416" 
d="M420 605l-115 -1q-80 -1 -119 -1.5t-38 -0.5h-68q-32 0 -42 3q0 -43 -26 -81q85 17 191 17q52 0 87 -6q-11 -46 -40 -114t-75 -159q-40 -77 -77 -142t-72 -120q38 5 115.5 8t195.5 3q18 0 32 -0.5t24 -1.5q0 47 21 115q-26 -16 -108 -28q-35 -5 -63.5 -8t-51.5 -3h-15
l-6 1.5t-4 0.5q8 49 45 128q20 43 45 92t55 105q5 9 32.5 57t76.5 136z" />
    <glyph glyph-name="braceleft" unicode="{" 
d="M382 -28v97q-70 -1 -87 29q-9 16 -9 60v125q0 43 -10 66q-15 35 -47 53q35 20 47 48q10 21 10 69v127q0 28 3 42q11 44 93 44v103q-5 1 -11 1h-10q-29 0 -48.5 -0.5t-29.5 -1.5q-47 -6 -72 -27q-38 -32 -38 -108v-162q0 -44 -15 -62q-16 -20 -42 -25v-90q57 -11 57 -93
v-150q0 -45 9 -73q16 -53 69 -66q22 -6 109 -6h22z" />
    <glyph glyph-name="bar" unicode="|" 
d="M308 0v833h-115v-833h115z" />
    <glyph glyph-name="braceright" unicode="}" 
d="M116 -28v97q70 -1 87 29q9 16 9 60v125q0 43 10 66q15 35 47 53q-35 20 -47 48q-10 21 -10 69v127q0 28 -3 42q-11 44 -93 44v103q5 1 10 1h11q29 0 48.5 -0.5t29.5 -1.5q46 -6 72 -27q38 -32 38 -108v-162q0 -44 15 -62q16 -20 42 -25v-90q-57 -11 -57 -93v-150
q0 -45 -9 -73q-17 -53 -69 -66q-23 -6 -109 -6h-22z" />
    <glyph glyph-name="asciitilde" unicode="~" horiz-adv-x="667" 
d="M575 693l-57 47q-38 -69 -83 -69q-4 0 -10 1.5t-16 3.5q-14 3 -59 25q-77 36 -114 36q-90 0 -142 -124l57 -47q38 68 79 68q28 0 79 -24q84 -40 114 -40q99 0 152 123z" />
    <glyph glyph-name="exclamdown" unicode="&#xa1;" horiz-adv-x="187" 
d="M51 -5h84v196q0 133 -27 366h-24q-13 -113 -20 -205.5t-9 -166.5zM40 712q0 -22 15.5 -38t37.5 -16q23 0 39 15.5t16 39.5q0 22 -15.5 37.5t-38.5 15.5t-38.5 -15.5t-15.5 -38.5z" />
    <glyph glyph-name="cent" unicode="&#xa2;" horiz-adv-x="407" 
d="M380 199l-7 11q-19 -10 -22 -10q-14 -7 -51 -7q-28 0 -48 7v262l53 -31l68 90l-121 75v92h-26v-85l-33 -27q-54 -45 -139 -96q-4 -51 -6 -84t-2 -49q0 -63 20 -117q42 -110 160 -131v-106h26v102q10 -1 17 -1.5t11 -0.5h13zM226 211q-42 28 -58 79q-11 36 -11 101
q0 34 2 65t6 60q16 -10 28.5 -18t22.5 -14l10 -6v-267z" />
    <glyph glyph-name="sterling" unicode="&#xa3;" horiz-adv-x="505" 
d="M465 476l-12 128q-39 32 -57 41q-49 28 -108 28q-48 0 -90 -20q-45 -21 -74 -63.5t-29 -90.5q0 -38 22 -117h-37v-35h50q7 -20 10.5 -33t5.5 -19q12 -44 12 -66q0 -28 -15 -50q-25 -39 -110 -51v-33q14 1 22.5 1.5t11.5 0.5q17 0 22 -1q30 -5 67 -30q75 -50 89 -57
q45 -20 82 -20q62 0 133 60l-20 22q-25 -22 -58 -22q-19 0 -36 10q-13 7 -43 39q-44 44 -100 44q-25 0 -53 -6q14 7 17 9q17 9 28 14.5l15 7.5q70 37 70 107q0 25 -12 69h125v39h-137q-13 42 -26 76q-26 75 -26 100q0 29 25 54q31 31 74 31q55 0 93 -51q11 -14 22 -43
t22 -73h25z" />
    <glyph glyph-name="currency" unicode="&#xa4;" horiz-adv-x="496" 
d="M466 328q0 97 -39 160l39 39l-41 41l-37 -38q-64 54 -151 63q-32 -23 -60 -42.5t-54 -36.5l-53 53l-40 -40l45 -45l-36 -24q-5 -32 -7.5 -63t-2.5 -62q0 -79 25 -136l-25 -25l41 -41l17 17q47 -52 177 -74q38 22 66 38t48 27l26 14l22 -22l39 40l-20 21q21 69 21 136z
M353 302q0 -59 -21 -152q-20 2 -35 5t-24 5q-138 40 -138 209q0 65 16 128q6 1 13 1h16q85 0 133 -58q40 -47 40 -138z" />
    <glyph glyph-name="yen" unicode="&#xa5;" horiz-adv-x="663" 
d="M644 655q-50 18 -81 18q-95 0 -170 -84q-43 -49 -60 -124q-6 41 -12 61q-20 65 -75 107q-55 43 -123 43q-46 0 -103 -27q12 -48 12 -90q0 -9 -1.5 -19t-3.5 -21q3 -2 7 -5.5t9 -8.5q42 59 107 59q36 0 61 -22q49 -43 56 -145l-168 -2q1 -4 1 -13q0 -1 -0.5 -6t-1.5 -14
h169v-72h-156q1 -5 1 -16q0 -13 -1 -18h156v-103q0 -4 1 -6q5 -89 -60 -127q10 -17 15 -24q46 9 101 9q48 0 92 -10q3 5 6.5 10.5t7.5 11.5q-46 34 -58 71q-3 13 -3 67v101h156q-1 4 -1 14q0 1 0.5 6t1.5 14h-158v71h168q-1 3 -1 13q0 5 3 22h-169q6 56 28 91q45 75 123 75
q52 0 79 -50q8 4 13 6t9 4q-1 7 -1 15v17q0 54 24 101z" />
    <glyph glyph-name="brokenbar" unicode="&#xa6;" 
d="M308 324v343h-115v-343h115zM308 -165v318h-115v-318h115z" />
    <glyph glyph-name="section" unicode="&#xa7;" horiz-adv-x="540" 
d="M191 380q-6 37 -6 91q0 118 16 197l289 -30q-5 37 -8.5 70.5t-7.5 62.5q-17 -1 -43.5 0t-63.5 5q-38 4 -65 7.5t-41 8.5q-8 -11 -28 -34.5t-52 -58.5q-24 -26 -43.5 -45t-33.5 -33q-7 -50 -10.5 -105t-3.5 -118q0 -73 10 -106q6 -21 24 -42q35 -41 149 -70q17 45 37 85.5
t42 76.5q12 -32 12 -121q0 -81 -3 -142.5t-10 -104.5l-271 5q-9 -26 -21 -58.5t-28 -70.5q105 9 145 9q26 0 53 -1.5t56 -5.5q53 63 155 127q23 113 23 252q0 149 -31 208q-35 69 -173 79zM198 364l15 21q37 23 55 23q36 0 77 -53l-29 -42q-24 -11 -35 -11q-42 0 -83 62z
" />
    <glyph glyph-name="dieresis" unicode="&#xa8;" horiz-adv-x="597" 
d="M297 892q0 22 -16 38t-38 16q-23 0 -38.5 -16t-15.5 -39t15.5 -38t38.5 -15t38.5 15.5t15.5 38.5zM433 892q0 22 -16 38t-38 16q-23 0 -38.5 -16t-15.5 -39t15.5 -38t38.5 -15t38.5 15.5t15.5 38.5z" />
    <glyph glyph-name="copyright" unicode="&#xa9;" horiz-adv-x="776" 
d="M733 333q0 144 -102 245q-103 101 -238 101q-88 0 -161 -37q-44 -23 -79 -55.5t-59.5 -72t-37.5 -86t-13 -95.5q0 -143 101 -244q100 -100 245 -100q142 0 242 100q102 100 102 244zM677 333q0 -123 -85 -208q-86 -86 -204 -86t-204 86q-85 86 -85 208t85 208
q85 87 201 87q120 0 206 -86t86 -209zM531 213l-10 10l-9 -6l-3 -2q-21 -12 -69 -12q-82 0 -120 31q-43 34 -43 111q0 20 3 44.5t8 54.5q43 21 106 21q51 0 119 -27q-1 24 -1.5 42t-0.5 31v13q-54 18 -113 18q-47 0 -87 -14q-30 -43 -55.5 -73.5t-47.5 -48.5v-9
q-2 -14 -3 -28t-1 -30q0 -69 21 -109q37 -74 117 -91q17 -4 38 -5.5t44 -1.5q4 0 15 0.5t30 1.5q18 24 33.5 43.5t28.5 35.5z" />
    <glyph glyph-name="guillemotleft" unicode="&#xab;" horiz-adv-x="415" 
d="M395 346h-99l-108 -103l106 -104h98l-107 104zM227 346h-99l-108 -103l105 -104h98l-107 104z" />
    <glyph glyph-name="registered" unicode="&#xae;" horiz-adv-x="776" 
d="M733 333q0 81 -38 157q-43 85 -125 137t-177 52q-88 0 -161 -37q-44 -23 -79 -55.5t-59.5 -72t-37.5 -86t-13 -95.5q0 -143 101 -244q100 -100 244 -100t244 100q101 101 101 244zM677 333q0 -121 -84 -208q-84 -86 -205 -86q-120 0 -205 87q-84 87 -84 207q0 122 85 208
q85 87 201 87q120 0 206 -86t86 -209zM573 194l-10 9q-11 -6 -16 -6q-27 0 -43 18q-8 9 -21 48q-19 61 -42 88q14 6 31 13t38 15q1 15 1.5 23t0.5 9q0 95 -60 122q-28 13 -73 14l-53 -61v18q0 1 0.5 12.5l1.5 34.5q-26 -6 -46.5 -10t-37.5 -6v-7q4 -29 6 -73t1 -104
q-1 -64 0 -112q1 -63 -3 -106l33 1.5t10 0.5l10.5 -0.5l31.5 -1.5l-2 8q-8 48 -6 128l1 196q20 7 43 7q40 0 54 -17.5t14 -59.5q0 -20 -7 -35q-6 4 -10.5 6.5t-8.5 4.5q-31 -22 -79 -47q37 -13 54 -32q7 -7 14 -23t15 -41q13 -43 21 -55q13 -24 40 -33q15 -7 42 -11
q20 23 33.5 39.5t21.5 25.5z" />
    <glyph glyph-name="degree" unicode="&#xb0;" 
d="M399 519q0 61 -43 104q-44 44 -103 44q-65 0 -108 -43q-44 -42 -44 -106q0 -63 43 -106t107 -43q60 0 104 44t44 106zM351 517q0 -40 -31 -71q-30 -30 -70 -30q-21 0 -39.5 8t-32 22t-21.5 32.5t-8 39.5q0 39 29 71q30 31 70 31q21 0 40 -8t33 -22t22 -33t8 -40z" />
    <glyph glyph-name="plusminus" unicode="&#xb1;" 
d="M483 330v56h-204v196h-59v-196h-203v-56h203v-191h59v191h204zM483 40v56h-466v-56h466z" />
    <glyph glyph-name="acute" unicode="&#xb4;" horiz-adv-x="597" 
d="M315 864q21 26 40.5 50.5t37.5 47.5l55 -38q-25 -20 -51 -41.5t-52 -44.5q-10 9 -17.5 15.5t-12.5 10.5z" />
    <glyph glyph-name="paragraph" unicode="&#xb6;" horiz-adv-x="678" 
d="M473 712l-66 19q-82 22 -188 68q-56 -57 -84 -81q-25 -22 -88 -63q-8 -54 -12.5 -100t-4.5 -85q0 -147 61 -209q45 -45 133 -58q34 58 72 105v-377l-2 -60q37 3 57 3q18 0 56 -3q-2 19 -3.5 58t-1.5 100v629q47 32 68 32q-1 -17 -1.5 -30t-0.5 -21v-667q0 -23 -1.5 -48.5
t-3.5 -52.5q39 3 58 3t57 -3q-2 40 -3.5 75.5t-1.5 67.5v583q0 100 56 100q11 0 22 -9l10 16l-101 94q-67 -36 -87 -86zM155 690l141 -51v-308q-27 -10 -45 -10q-19 0 -38 8q-42 20 -59 71q-11 36 -11 111q0 111 12 179z" />
    <glyph glyph-name="periodcentered" unicode="&#xb7;" horiz-adv-x="610" 
d="M360 265q0 23 -15.5 38t-38.5 15t-39 -15.5t-16 -38.5q0 -22 16.5 -38t38.5 -16q23 0 38.5 16t15.5 39z" />
    <glyph glyph-name="periodcentered" unicode="&#x2219;" horiz-adv-x="610" 
d="M360 265q0 23 -15.5 38t-38.5 15t-39 -15.5t-16 -38.5q0 -22 16.5 -38t38.5 -16q23 0 38.5 16t15.5 39z" />
    <glyph glyph-name="cedilla" unicode="&#xb8;" 
d="M335 -64q-22 13 -38.5 22.5t-27.5 17.5q-28 -40 -48 -56q-17 -14 -56 -37q9 -15 21 -30q23 2 46 9.5t43.5 18.5t36 25.5t23.5 29.5z" />
    <glyph glyph-name="guillemotright" unicode="&#xbb;" horiz-adv-x="415" 
d="M395 243l-108 103h-99l111 -103l-107 -104h98zM227 243l-109 103h-98l110 -103l-107 -104h98z" />
    <glyph glyph-name="questiondown" unicode="&#xbf;" horiz-adv-x="356" 
d="M17 217q0 -91 36 -151q44 -71 129 -71q42 0 92 18q14 45 26 84t23 71q-50 -53 -125 -53q-62 0 -93 49q-25 40 -25 108q0 120 72 191q40 40 104 60v81q-79 -35 -137 -103q-102 -120 -102 -284zM125 720q0 -22 15.5 -38t37.5 -16q23 0 39 16t16 39q0 22 -15.5 37.5
t-38.5 15.5t-38.5 -15.5t-15.5 -38.5z" />
    <glyph glyph-name="Agrave" unicode="&#xc0;" horiz-adv-x="597" 
d="M590 12q-29 54 -56.5 119t-53.5 143q-116 345 -116 453q25 3 53 3q89 0 143 -16q0 34 14 78q-26 -2 -62 -3.5t-84 -1.5l-218 3q-72 1 -112.5 1.5t-51.5 0.5q0 -17 -3 -51q-3 -35 -3 -51q111 37 187 37q14 0 17 -1q-14 -100 -45 -224q-57 -227 -159 -507q58 13 92 13
q14 0 28 -1t28 -3q31 229 50 290l154 -2q54 -186 54 -297q79 17 144 17zM372 362q-23 -6 -56 -6q-15 0 -31.5 1t-34.5 3q4 29 10 65.5t16 79.5q8 35 17 71t17 72q10 -36 19 -72t19 -72q24 -98 24 -142zM323 864q-21 26 -40.5 50.5t-37.5 47.5l-55 -38q25 -20 51 -41.5
t52 -44.5q10 9 17.5 15.5t12.5 10.5z" />
    <glyph glyph-name="Aacute" unicode="&#xc1;" horiz-adv-x="597" 
d="M590 12q-29 54 -56.5 119t-53.5 143q-116 345 -116 453q25 3 53 3q89 0 143 -16q0 34 14 78q-26 -2 -62 -3.5t-84 -1.5l-218 3q-72 1 -112.5 1.5t-51.5 0.5q0 -17 -3 -51q-3 -35 -3 -51q111 37 187 37q14 0 17 -1q-14 -100 -45 -224q-57 -227 -159 -507q58 13 92 13
q14 0 28 -1t28 -3q31 229 50 290l154 -2q54 -186 54 -297q79 17 144 17zM372 362q-23 -6 -56 -6q-15 0 -31.5 1t-34.5 3q4 29 10 65.5t16 79.5q8 35 17 71t17 72q10 -36 19 -72t19 -72q24 -98 24 -142zM315 864q21 26 40.5 50.5t37.5 47.5l55 -38q-25 -20 -51 -41.5
t-52 -44.5q-10 9 -17.5 15.5t-12.5 10.5z" />
    <glyph glyph-name="Acircumflex" unicode="&#xc2;" horiz-adv-x="597" 
d="M590 12q-29 54 -56.5 119t-53.5 143q-116 345 -116 453q25 3 53 3q89 0 143 -16q0 34 14 78q-26 -2 -62 -3.5t-84 -1.5l-218 3q-72 1 -112.5 1.5t-51.5 0.5q0 -17 -3 -51q-3 -35 -3 -51q111 37 187 37q14 0 17 -1q-14 -100 -45 -224q-57 -227 -159 -507q58 13 92 13
q14 0 28 -1t28 -3q31 229 50 290l154 -2q54 -186 54 -297q79 17 144 17zM372 362q-23 -6 -56 -6q-15 0 -31.5 1t-34.5 3q4 29 10 65.5t16 79.5q8 35 17 71t17 72q10 -36 19 -72t19 -72q24 -98 24 -142zM417 883q-17 13 -40.5 32.5t-54.5 45.5q-25 -26 -51 -51t-54 -50
l23 -23l65 58l69 -58z" />
    <glyph glyph-name="Atilde" unicode="&#xc3;" horiz-adv-x="597" 
d="M590 12q-29 54 -56.5 119t-53.5 143q-116 345 -116 453q25 3 53 3q89 0 143 -16q0 34 14 78q-26 -2 -62 -3.5t-84 -1.5l-218 3q-72 1 -112.5 1.5t-51.5 0.5q0 -17 -3 -51q-3 -35 -3 -51q111 37 187 37q14 0 17 -1q-14 -100 -45 -224q-57 -227 -159 -507q58 13 92 13
q14 0 28 -1t28 -3q31 229 50 290l154 -2q54 -186 54 -297q79 17 144 17zM372 362q-23 -6 -56 -6q-15 0 -31.5 1t-34.5 3q4 29 10 65.5t16 79.5q8 35 17 71t17 72q10 -36 19 -72t19 -72q24 -98 24 -142zM449 898q-12 9 -19 17l-13 -11q-23 -18 -34 -18q-10 0 -45 16l-26 11
l-25 11q-7 4 -21 4q-27 0 -72 -49l-19 -20q14 -7 20 -13l11 10l15 15q8 8 21 8q11 0 44 -16l27 -12q34 -14 52 -14q16 0 39 21l7.5 7.5t19.5 17.5z" />
    <glyph glyph-name="Adieresis" unicode="&#xc4;" horiz-adv-x="597" 
d="M590 12q-29 54 -56.5 119t-53.5 143q-116 345 -116 453q25 3 53 3q89 0 143 -16q0 34 14 78q-26 -2 -62 -3.5t-84 -1.5l-218 3q-72 1 -112.5 1.5t-51.5 0.5q0 -17 -3 -51q-3 -35 -3 -51q111 37 187 37q14 0 17 -1q-14 -100 -45 -224q-57 -227 -159 -507q58 13 92 13
q14 0 28 -1t28 -3q31 229 50 290l154 -2q54 -186 54 -297q79 17 144 17zM372 362q-23 -6 -56 -6q-15 0 -31.5 1t-34.5 3q4 29 10 65.5t16 79.5q8 35 17 71t17 72q10 -36 19 -72t19 -72q24 -98 24 -142zM297 892q0 22 -16 38t-38 16q-23 0 -38.5 -16t-15.5 -39t15.5 -38
t38.5 -15t38.5 15.5t15.5 38.5zM433 892q0 22 -16 38t-38 16q-23 0 -38.5 -16t-15.5 -39t15.5 -38t38.5 -15t38.5 15.5t15.5 38.5z" />
    <glyph glyph-name="Aring" unicode="&#xc5;" horiz-adv-x="597" 
d="M384 918q0 60 -80 74q-30 -53 -69 -93q7 -20 15 -30q23 -32 55 -32q30 0 54 25q25 25 25 56zM590 12q-29 54 -56.5 119t-53.5 143q-116 345 -116 453q25 3 53 3q89 0 143 -16q0 34 14 78q-26 -2 -62 -3.5t-84 -1.5l-218 3q-72 1 -112.5 1.5t-51.5 0.5q0 -17 -3 -51
q-3 -35 -3 -51q111 37 187 37q14 0 17 -1q-14 -100 -45 -224q-57 -227 -159 -507q58 13 92 13q14 0 28 -1t28 -3q31 229 50 290l154 -2q54 -186 54 -297q79 17 144 17zM355 871h-11q-31 0 -44 18q-26 38 -26 42q0 12 17 12q7 0 20 -5q28 -14 36 -25q11 -16 8 -42zM372 362
q-23 -6 -56 -6q-15 0 -31.5 1t-34.5 3q4 29 10 65.5t16 79.5q8 35 17 71t17 72q10 -36 19 -72t19 -72q24 -98 24 -142z" />
    <glyph glyph-name="AE" unicode="&#xc6;" horiz-adv-x="104" 
d="M372 362q-23 -6 -56 -6q-15 0 -31.5 1t-34.5 3q4 29 10 65.5t16 79.5q8 35 17 71t17 72q10 -36 19 -72t19 -72q24 -98 24 -142zM392 573q-14 60 -21 98.5t-7 55.5q25 3 53 3q19 0 37.5 -1t36.5 -3q-68 -65 -99 -153zM1013 755q-41 16 -77.5 26t-70.5 14q-21 2 -60 3.5
t-97 1.5q-79 0 -139 -24q1 7 5 16q-26 -2 -62 -3.5t-84 -1.5l-218 3q-72 1 -112.5 1.5t-51.5 0.5q0 -17 -3 -51q-3 -35 -3 -51q111 37 187 37q14 0 17 -1q-14 -100 -45 -224q-57 -227 -159 -507q58 13 92 13q14 0 28 -1t28 -3q31 229 50 290l154 -2q54 -186 54 -297
q79 17 144 17q-12 23 -24 47t-23 50q139 -105 285 -104q54 1 97 5.5t78 14.5l5 135q-92 -95 -217 -95q-99 0 -169 54q-124 94 -124 296l395 -45l80 145q-22 -10 -42.5 -18t-40.5 -15q-120 -39 -240 -39q-31 0 -69 4.5t-83 12.5q0 89 42 170q68 131 225 131q146 0 223 -126z
" />
    <glyph glyph-name="Ccedilla" unicode="&#xc7;" horiz-adv-x="665" 
d="M640 755q-41 16 -77.5 26t-70.5 14q-21 2 -60 3.5t-97 1.5q-159 0 -239 -98q-54 -66 -77 -136q-20 -66 -20 -154q0 -160 145 -284q140 -120 301 -123q-15 -20 -33 -33q-5 -4 -15 -10.5t-24 -14.5l8 -12t9 -12q33 3 67 20q39 20 52 46q-10 5 -17.5 9.5l-12.5 7.5
q48 2 85.5 6.5t65.5 12.5l5 135q-78 -94 -207 -94q-104 0 -174 54q-132 99 -132 286q0 27 3 54q12 110 48 179q31 60 92 91q58 30 128 30q145 0 222 -125z" />
    <glyph glyph-name="Egrave" unicode="&#xc8;" horiz-adv-x="665" 
d="M640 755q-41 16 -77.5 26t-70.5 14q-21 2 -60 3.5t-97 1.5q-159 0 -239 -98q-54 -66 -77 -136q-20 -66 -20 -154q0 -162 148 -288q143 -120 308 -119q54 1 97 5.5t78 14.5l5 135q-92 -95 -217 -95q-99 0 -169 54q-124 94 -124 296l395 -45l80 145q-22 -10 -42.5 -18
t-40.5 -15q-120 -39 -240 -39q-31 0 -69 4.5t-83 12.5q0 89 42 170q68 131 225 131q146 0 223 -126zM373 864q-21 26 -40.5 50.5t-37.5 47.5l-55 -38q25 -20 51 -41.5t52 -44.5q10 9 17.5 15.5t12.5 10.5z" />
    <glyph glyph-name="Eacute" unicode="&#xc9;" horiz-adv-x="665" 
d="M640 755q-41 16 -77.5 26t-70.5 14q-21 2 -60 3.5t-97 1.5q-159 0 -239 -98q-54 -66 -77 -136q-20 -66 -20 -154q0 -162 148 -288q143 -120 308 -119q54 1 97 5.5t78 14.5l5 135q-92 -95 -217 -95q-99 0 -169 54q-124 94 -124 296l395 -45l80 145q-22 -10 -42.5 -18
t-40.5 -15q-120 -39 -240 -39q-31 0 -69 4.5t-83 12.5q0 89 42 170q68 131 225 131q146 0 223 -126zM355 864q21 26 40.5 50.5t37.5 47.5l55 -38q-25 -20 -51 -41.5t-52 -44.5q-10 9 -17.5 15.5t-12.5 10.5z" />
    <glyph glyph-name="Ecircumflex" unicode="&#xca;" horiz-adv-x="665" 
d="M640 755q-41 16 -77.5 26t-70.5 14q-21 2 -60 3.5t-97 1.5q-159 0 -239 -98q-54 -66 -77 -136q-20 -66 -20 -154q0 -162 148 -288q143 -120 308 -119q54 1 97 5.5t78 14.5l5 135q-92 -95 -217 -95q-99 0 -169 54q-124 94 -124 296l395 -45l80 145q-22 -10 -42.5 -18
t-40.5 -15q-120 -39 -240 -39q-31 0 -69 4.5t-83 12.5q0 89 42 170q68 131 225 131q146 0 223 -126zM502 883q-17 13 -40.5 32.5t-54.5 45.5q-25 -26 -51 -51t-54 -50l23 -23l65 58l69 -58z" />
    <glyph glyph-name="Edieresis" unicode="&#xcb;" horiz-adv-x="665" 
d="M640 755q-41 16 -77.5 26t-70.5 14q-21 2 -60 3.5t-97 1.5q-159 0 -239 -98q-54 -66 -77 -136q-20 -66 -20 -154q0 -162 148 -288q143 -120 308 -119q54 1 97 5.5t78 14.5l5 135q-92 -95 -217 -95q-99 0 -169 54q-124 94 -124 296l395 -45l80 145q-22 -10 -42.5 -18
t-40.5 -15q-120 -39 -240 -39q-31 0 -69 4.5t-83 12.5q0 89 42 170q68 131 225 131q146 0 223 -126zM358 892q0 22 -16 38t-38 16q-23 0 -38.5 -16t-15.5 -39t15.5 -38t38.5 -15t38.5 15.5t15.5 38.5zM494 892q0 22 -16 38t-38 16q-23 0 -38.5 -16t-15.5 -39t15.5 -38
t38.5 -15t38.5 15.5t15.5 38.5z" />
    <glyph glyph-name="Igrave" unicode="&#xcc;" horiz-adv-x="222" 
d="M185 2q-27 289 -27 487q0 94 5.5 171.5t16.5 139.5q-9 0 -21.5 -0.5t-28.5 -1.5q-17 -1 -29.5 -1.5t-19.5 -0.5h-31q-8 2 -14.5 2.5t-10.5 1.5q42 -110 42 -414q0 -264 -32 -386q36 6 78 6q17 0 34.5 -1t37.5 -3zM108 864q-21 26 -40.5 50.5t-37.5 47.5l-54 -38
q25 -20 50.5 -41.5t51.5 -44.5q10 9 17.5 15.5t12.5 10.5z" />
    <glyph glyph-name="Iacute" unicode="&#xcd;" horiz-adv-x="222" 
d="M185 2q-27 289 -27 487q0 94 5.5 171.5t16.5 139.5q-9 0 -21.5 -0.5t-28.5 -1.5q-17 -1 -29.5 -1.5t-19.5 -0.5h-31q-8 2 -14.5 2.5t-10.5 1.5q42 -110 42 -414q0 -264 -32 -386q36 6 78 6q17 0 34.5 -1t37.5 -3zM115 864q21 26 40.5 50.5t37.5 47.5l55 -38
q-25 -20 -51 -41.5t-52 -44.5q-10 9 -17.5 15.5t-12.5 10.5z" />
    <glyph glyph-name="Icircumflex" unicode="&#xce;" horiz-adv-x="222" 
d="M185 2q-27 289 -27 487q0 94 5.5 171.5t16.5 139.5q-9 0 -21.5 -0.5t-28.5 -1.5q-17 -1 -29.5 -1.5t-19.5 -0.5h-31q-8 2 -14.5 2.5t-10.5 1.5q42 -110 42 -414q0 -264 -32 -386q36 6 78 6q17 0 34.5 -1t37.5 -3zM201 863q-17 13 -40.5 32.5t-54.5 45.5q-25 -26 -51 -51
t-54 -50l23 -23l65 58l69 -58z" />
    <glyph glyph-name="Idieresis" unicode="&#xcf;" horiz-adv-x="222" 
d="M185 2q-27 289 -27 487q0 94 5.5 171.5t16.5 139.5q-9 0 -21.5 -0.5t-28.5 -1.5q-17 -1 -29.5 -1.5t-19.5 -0.5h-31q-8 2 -14.5 2.5t-10.5 1.5q42 -110 42 -414q0 -264 -32 -386q36 6 78 6q17 0 34.5 -1t37.5 -3zM95 892q0 22 -16 38t-38 16q-23 0 -38 -16t-15 -39
t15 -38t38 -15t38.5 15.5t15.5 38.5zM231 892q0 22 -16 38t-38 16q-23 0 -38.5 -16t-15.5 -39t15.5 -38t38.5 -15t38.5 15.5t15.5 38.5z" />
    <glyph glyph-name="Eth" unicode="&#xd0;" horiz-adv-x="705" 
d="M247 424q-1 57 -1.5 110t-0.5 104q0 91 3 114q96 0 188 -54q126 -77 126 -358q0 -289 -239 -289q-10 0 -31 2t-31 2q-3 32 -6 94t-5 153l-1 56h249v66h-251zM41 424v-66h103q-2 -51 -6 -99.5t-10 -96.5q-18 -143 -41 -158q83 -7 130 -10.5t59 -3.5q114 0 202 28
q111 35 164 131q47 86 47 209q0 43 -6 96q-17 146 -83 226q-115 136 -342 136q-29 0 -72.5 -4.5t-103.5 -12.5q64 -19 64 -339v-36h-105z" />
    <glyph glyph-name="Ntilde" unicode="&#xd1;" horiz-adv-x="610" 
d="M590 7q-27 289 -27 487q0 94 5.5 171.5t16.5 139.5q-9 0 -21 -0.5t-27 -1.5q-17 -1 -29 -1.5t-19 -0.5h-31q-8 2 -14 2.5t-10 1.5q12 -32 21 -81.5t16 -115.5q8 -76 12.5 -174.5t6.5 -221.5q-3 0 -82 109q-212 293 -252 475h-34q-11 -1 -20 -1h-14q-11 0 -26.5 1.5
t-36.5 3.5q42 -110 42 -414q0 -264 -32 -386q36 6 76 6h40q10 -2 17.5 -2.5t12.5 -1.5q-19 199 -33 434l-10 168q2 0 97 -126q245 -334 245 -473q37 6 56 6h20q10 -2 18.5 -2.5t15.5 -1.5zM449 898q-12 9 -19 17l-13 -11q-23 -18 -34 -18q-10 0 -45 16l-26 11l-25 11
q-7 4 -21 4q-27 0 -72 -49l-19 -20q14 -7 20 -13l11 10l15 15q8 8 21 8q11 0 44 -16l27 -12q34 -14 52 -14q16 0 39 21l7.5 7.5t19.5 17.5z" />
    <glyph glyph-name="Ograve" unicode="&#xd2;" horiz-adv-x="810" 
d="M799 381q0 74 -33 175q-36 111 -148 187q-109 74 -227 74q-81 0 -156 -32q-53 -23 -95 -57.5t-71 -78t-44.5 -95.5t-15.5 -109q0 -102 52 -213q50 -108 155 -170q101 -59 222 -59q61 0 145 31q98 35 159 140q57 97 57 207zM689 354q0 -89 -37 -157q-31 -60 -87.5 -95
t-122.5 -35q-116 0 -210 100q-91 92 -110 210q-4 23 -6 43.5t-2 39.5q0 88 36 157q15 30 37.5 54.5t50.5 42t59 27t64 9.5q106 0 200 -89q128 -125 128 -307zM368 864q-21 26 -40.5 50.5t-37.5 47.5l-55 -38q25 -20 51 -41.5t52 -44.5q10 9 17.5 15.5t12.5 10.5z" />
    <glyph glyph-name="Oacute" unicode="&#xd3;" horiz-adv-x="810" 
d="M799 381q0 74 -33 175q-36 111 -148 187q-109 74 -227 74q-81 0 -156 -32q-53 -23 -95 -57.5t-71 -78t-44.5 -95.5t-15.5 -109q0 -102 52 -213q50 -108 155 -170q101 -59 222 -59q61 0 145 31q98 35 159 140q57 97 57 207zM689 354q0 -89 -37 -157q-31 -60 -87.5 -95
t-122.5 -35q-116 0 -210 100q-91 92 -110 210q-4 23 -6 43.5t-2 39.5q0 88 36 157q15 30 37.5 54.5t50.5 42t59 27t64 9.5q106 0 200 -89q128 -125 128 -307zM395 864q21 26 40.5 50.5t37.5 47.5l55 -38q-25 -20 -51 -41.5t-52 -44.5q-10 9 -17.5 15.5t-12.5 10.5z" />
    <glyph glyph-name="Ocircumflex" unicode="&#xd4;" horiz-adv-x="810" 
d="M799 381q0 74 -33 175q-36 111 -148 187q-109 74 -227 74q-81 0 -156 -32q-53 -23 -95 -57.5t-71 -78t-44.5 -95.5t-15.5 -109q0 -102 52 -213q50 -108 155 -170q101 -59 222 -59q61 0 145 31q98 35 159 140q57 97 57 207zM689 354q0 -89 -37 -157q-31 -60 -87.5 -95
t-122.5 -35q-116 0 -210 100q-91 92 -110 210q-4 23 -6 43.5t-2 39.5q0 88 36 157q15 30 37.5 54.5t50.5 42t59 27t64 9.5q106 0 200 -89q128 -125 128 -307zM502 883q-17 13 -40.5 32.5t-54.5 45.5q-25 -26 -51 -51t-54 -50l23 -23l65 58l69 -58z" />
    <glyph glyph-name="Otilde" unicode="&#xd5;" horiz-adv-x="810" 
d="M799 381q0 74 -33 175q-36 111 -148 187q-109 74 -227 74q-81 0 -156 -32q-53 -23 -95 -57.5t-71 -78t-44.5 -95.5t-15.5 -109q0 -102 52 -213q50 -108 155 -170q101 -59 222 -59q61 0 145 31q98 35 159 140q57 97 57 207zM689 354q0 -89 -37 -157q-31 -60 -87.5 -95
t-122.5 -35q-116 0 -210 100q-91 92 -110 210q-4 23 -6 43.5t-2 39.5q0 88 36 157q15 30 37.5 54.5t50.5 42t59 27t64 9.5q106 0 200 -89q128 -125 128 -307zM534 898q-12 9 -19 17l-13 -11q-23 -18 -34 -18q-10 0 -45 16l-26 11l-25 11q-7 4 -21 4q-27 0 -72 -49l-19 -20
q14 -7 20 -13l11 10l15 15q8 8 21 8q11 0 44 -16l27 -12q34 -14 52 -14q16 0 39 21l7.5 7.5t19.5 17.5z" />
    <glyph glyph-name="Odieresis" unicode="&#xd6;" horiz-adv-x="810" 
d="M799 381q0 74 -33 175q-36 111 -148 187q-109 74 -227 74q-81 0 -156 -32q-53 -23 -95 -57.5t-71 -78t-44.5 -95.5t-15.5 -109q0 -102 52 -213q50 -108 155 -170q101 -59 222 -59q61 0 145 31q98 35 159 140q57 97 57 207zM689 354q0 -89 -37 -157q-31 -60 -87.5 -95
t-122.5 -35q-116 0 -210 100q-91 92 -110 210q-4 23 -6 43.5t-2 39.5q0 88 36 157q15 30 37.5 54.5t50.5 42t59 27t64 9.5q106 0 200 -89q128 -125 128 -307zM384 892q0 22 -16 38t-38 16q-23 0 -38.5 -16t-15.5 -39t15.5 -38t38.5 -15t38.5 15.5t15.5 38.5zM520 892
q0 22 -16 38t-38 16q-23 0 -38.5 -16t-15.5 -39t15.5 -38t38.5 -15t38.5 15.5t15.5 38.5z" />
    <glyph glyph-name="multiply" unicode="&#xd7;" 
d="M445 503l-41 41l-155 -155l-153 154l-40 -40l154 -153l-155 -155l41 -41l154 156l154 -155l40 40l-154 154z" />
    <glyph glyph-name="Oslash" unicode="&#xd8;" horiz-adv-x="810" 
d="M208 193q-68 83 -86 184q-4 23 -6 43.5t-2 39.5q0 88 36 157q15 30 37.5 54.5t50.5 42t59 27t64 9.5q108 0 200 -89l7 -7zM594 626q64 -73 77 -140q18 -86 18 -132q0 -89 -37 -157q-31 -60 -87.5 -95t-122.5 -35q-110 0 -204 94l-4 4zM695 817l-65 -83l-4 3
q-107 80 -235 80q-81 0 -156 -32q-53 -23 -95 -57.5t-71 -78t-44.5 -95.5t-15.5 -109q0 -102 52 -213q16 -35 37.5 -64.5t47.5 -54.5l-71 -90l30 -23l70 89q116 -86 263 -86q61 0 145 31q98 35 159 140q57 97 57 207q0 74 -33 175q-28 84 -106 154l65 83z" />
    <glyph glyph-name="Ugrave" unicode="&#xd9;" horiz-adv-x="720" 
d="M720 0q-30 31 -30 335q0 52 1.5 111.5t3.5 127.5q4 98 8.5 154t11.5 72q-41 -15 -75 -15q-36 0 -67 16q21 -44 21 -300l-1 -142q-1 -46 -1 -77v-47q-53 -150 -156 -150q-151 0 -211 191q-77 245 -77 528q-36 -14 -82 -14q-37 0 -66 10q26 -30 72 -280q26 -144 43 -225.5
t25 -103.5q32 -96 92 -150q68 -59 163 -59q72 0 122 44q37 34 75 111q-7 -24 -7 -137q16 9 61 9q51 0 74 -9zM368 864q-21 26 -40.5 50.5t-37.5 47.5l-55 -38q25 -20 51 -41.5t52 -44.5q10 9 17.5 15.5t12.5 10.5z" />
    <glyph glyph-name="Uacute" unicode="&#xda;" horiz-adv-x="720" 
d="M720 0q-30 31 -30 335q0 52 1.5 111.5t3.5 127.5q4 98 8.5 154t11.5 72q-41 -15 -75 -15q-36 0 -67 16q21 -44 21 -300l-1 -142q-1 -46 -1 -77v-47q-53 -150 -156 -150q-151 0 -211 191q-77 245 -77 528q-36 -14 -82 -14q-37 0 -66 10q26 -30 72 -280q26 -144 43 -225.5
t25 -103.5q32 -96 92 -150q68 -59 163 -59q72 0 122 44q37 34 75 111q-7 -24 -7 -137q16 9 61 9q51 0 74 -9zM335 864q21 26 40.5 50.5t37.5 47.5l55 -38q-25 -20 -51 -41.5t-52 -44.5q-10 9 -17.5 15.5t-12.5 10.5z" />
    <glyph glyph-name="Ucircumflex" unicode="&#xdb;" horiz-adv-x="720" 
d="M720 0q-30 31 -30 335q0 52 1.5 111.5t3.5 127.5q4 98 8.5 154t11.5 72q-41 -15 -75 -15q-36 0 -67 16q21 -44 21 -300l-1 -142q-1 -46 -1 -77v-47q-53 -150 -156 -150q-151 0 -211 191q-77 245 -77 528q-36 -14 -82 -14q-37 0 -66 10q26 -30 72 -280q26 -144 43 -225.5
t25 -103.5q32 -96 92 -150q68 -59 163 -59q72 0 122 44q37 34 75 111q-7 -24 -7 -137q16 9 61 9q51 0 74 -9zM457 883q-17 13 -40.5 32.5t-54.5 45.5q-25 -26 -51 -51t-54 -50l23 -23l65 58l69 -58z" />
    <glyph glyph-name="Udieresis" unicode="&#xdc;" horiz-adv-x="720" 
d="M720 0q-30 31 -30 335q0 52 1.5 111.5t3.5 127.5q4 98 8.5 154t11.5 72q-41 -15 -75 -15q-36 0 -67 16q21 -44 21 -300l-1 -142q-1 -46 -1 -77v-47q-53 -150 -156 -150q-151 0 -211 191q-77 245 -77 528q-36 -14 -82 -14q-37 0 -66 10q26 -30 72 -280q26 -144 43 -225.5
t25 -103.5q32 -96 92 -150q68 -59 163 -59q72 0 122 44q37 34 75 111q-7 -24 -7 -137q16 9 61 9q51 0 74 -9zM346 892q0 22 -16 38t-38 16q-23 0 -38.5 -16t-15.5 -39t15.5 -38t38.5 -15t38.5 15.5t15.5 38.5zM482 892q0 22 -16 38t-38 16q-23 0 -38.5 -16t-15.5 -39
t15.5 -38t38.5 -15t38.5 15.5t15.5 38.5z" />
    <glyph glyph-name="Yacute" unicode="&#xdd;" horiz-adv-x="560" 
d="M568 796q-9 0 -21.5 -0.5t-28.5 -1.5q-17 -1 -29.5 -1.5t-19.5 -0.5h-31q-8 2 -14.5 2.5t-10.5 1.5q0 -118 -99 -341q-9 20 -20 44t-24 53q-91 201 -100 252q-63 -12 -124 -12q-21 0 -30 3q19 -14 71 -96q66 -107 114 -187t80 -134l-40 -92q-83 -187 -154 -289
q18 2 37.5 3.5t40.5 1.5q33 0 72 -3q8 55 26.5 120.5t46.5 141.5q116 319 258 535zM295 864q21 26 40.5 50.5t37.5 47.5l55 -38q-25 -20 -51 -41.5t-52 -44.5q-10 9 -17.5 15.5t-12.5 10.5z" />
    <glyph glyph-name="germandbls" unicode="&#xdf;" horiz-adv-x="816" 
d="M813 605q-34 5 -65.5 7.5t-60.5 2.5q-241 0 -241 -146q0 -74 73 -114q45 -23 78 -40.5t56 -28.5q73 -40 73 -112q0 -120 -130 -120q-77 0 -161 40l-12 -94q28 -4 55 -6t53 -2q109 0 181 32q93 45 93 143v18q0 59 -73 105q-45 27 -79 47t-57 33q-74 47 -74 102
q0 100 115 100q90 0 170 -54zM404 605q-33 5 -64.5 7.5t-60.5 2.5q-241 0 -241 -146q0 -74 72 -114q90 -47 135 -69q73 -40 73 -112q0 -120 -130 -120q-78 0 -162 40l-11 -94q28 -4 55 -6t53 -2q109 0 181 32q93 45 93 143v18q0 59 -73 105q-46 27 -80 47t-57 33
q-74 47 -74 102q0 100 115 100q92 0 170 -54z" />
    <glyph glyph-name="agrave" unicode="&#xe0;" horiz-adv-x="451" 
d="M446 9q-45 82 -84 198q-87 259 -87 343q10 1 20 1.5t20 0.5q66 0 108 -12q0 26 11 59q-20 -2 -47.5 -3t-62.5 -1l-165 2q-54 1 -85 1.5t-39 0.5q0 -14 -3 -39q-1 -13 -1.5 -22.5t-0.5 -15.5q84 28 142 28q10 0 12 -1q-5 -38 -13.5 -80t-20.5 -90q-44 -173 -120 -383
q44 10 70 10q19 0 42 -3q24 173 38 219l116 -1q41 -143 41 -225q56 13 109 13zM281 274q-18 -5 -42 -5q-23 0 -50 3q2 23 7 50t13 59q6 28 12 55t13 54q47 -183 47 -216zM244 653q-16 20 -30.5 38.5t-28.5 35.5l-42 -28q20 -15 39.5 -31.5t39.5 -33.5q7 7 12.5 11.5t9.5 7.5
z" />
    <glyph glyph-name="aacute" unicode="&#xe1;" horiz-adv-x="451" 
d="M446 9q-45 82 -84 198q-87 259 -87 343q10 1 20 1.5t20 0.5q66 0 108 -12q0 26 11 59q-20 -2 -47.5 -3t-62.5 -1l-165 2q-54 1 -85 1.5t-39 0.5q0 -14 -3 -39q-1 -13 -1.5 -22.5t-0.5 -15.5q84 28 142 28q10 0 12 -1q-5 -38 -13.5 -80t-20.5 -90q-44 -173 -120 -383
q44 10 70 10q19 0 42 -3q24 173 38 219l116 -1q41 -143 41 -225q56 13 109 13zM281 274q-18 -5 -42 -5q-23 0 -50 3q2 23 7 50t13 59q6 28 12 55t13 54q47 -183 47 -216zM238 653q16 20 30.5 38.5t28.5 35.5l42 -28q-19 -15 -38.5 -31.5t-39.5 -33.5q-8 7 -13.5 11.5
t-9.5 7.5z" />
    <glyph glyph-name="acircumflex" unicode="&#xe2;" horiz-adv-x="451" 
d="M446 9q-45 82 -84 198q-87 259 -87 343q10 1 20 1.5t20 0.5q66 0 108 -12q0 26 11 59q-20 -2 -47.5 -3t-62.5 -1l-165 2q-54 1 -85 1.5t-39 0.5q0 -14 -3 -39q-1 -13 -1.5 -22.5t-0.5 -15.5q84 28 142 28q10 0 12 -1q-5 -38 -13.5 -80t-20.5 -90q-44 -173 -120 -383
q44 10 70 10q19 0 42 -3q24 173 38 219l116 -1q41 -143 41 -225q56 13 109 13zM281 274q-18 -5 -42 -5q-23 0 -50 3q2 23 7 50t13 59q6 28 12 55t13 54q47 -183 47 -216zM315 668q-24 20 -42 34.5t-30 24.5q-19 -20 -38.5 -39t-40.5 -38l18 -17l49 44l52 -44z" />
    <glyph glyph-name="atilde" unicode="&#xe3;" horiz-adv-x="451" 
d="M446 9q-45 82 -84 198q-87 259 -87 343q10 1 20 1.5t20 0.5q66 0 108 -12q0 26 11 59q-20 -2 -47.5 -3t-62.5 -1l-165 2q-54 1 -85 1.5t-39 0.5q0 -14 -3 -39q-1 -13 -1.5 -22.5t-0.5 -15.5q84 28 142 28q10 0 12 -1q-5 -38 -13.5 -80t-20.5 -90q-44 -173 -120 -383
q44 10 70 10q19 0 42 -3q24 173 38 219l116 -1q41 -143 41 -225q56 13 109 13zM281 274q-18 -5 -42 -5q-23 0 -50 3q2 23 7 50t13 59q6 28 12 55t13 54q47 -183 47 -216zM339 679q-4 3 -7.5 6t-6.5 6l-10 -7q-17 -14 -25 -14q-7 0 -35 12l-19 8l-19 9q-6 3 -16 3
q-21 0 -54 -37l-14 -15q9 -5 15 -11l8 8q8 9 11 11q6 6 16 6q6 0 33 -11l21 -9q25 -11 39 -11q13 0 30 15q2 4 20 19z" />
    <glyph glyph-name="adieresis" unicode="&#xe4;" horiz-adv-x="451" 
d="M446 9q-45 82 -84 198q-87 259 -87 343q10 1 20 1.5t20 0.5q66 0 108 -12q0 26 11 59q-20 -2 -47.5 -3t-62.5 -1l-165 2q-54 1 -85 1.5t-39 0.5q0 -14 -3 -39q-1 -13 -1.5 -22.5t-0.5 -15.5q84 28 142 28q10 0 12 -1q-5 -38 -13.5 -80t-20.5 -90q-44 -173 -120 -383
q44 10 70 10q19 0 42 -3q24 173 38 219l116 -1q41 -143 41 -225q56 13 109 13zM281 274q-18 -5 -42 -5q-23 0 -50 3q2 23 7 50t13 59q6 28 12 55t13 54q47 -183 47 -216zM225 674q0 17 -12 29t-29 12t-29 -12t-12 -29q0 -18 12 -29t29 -11t29 11.5t12 28.5zM327 674
q0 17 -12 29t-28 12q-18 0 -29.5 -12t-11.5 -29q0 -18 11.5 -29t29.5 -11q17 0 28.5 11.5t11.5 28.5z" />
    <glyph glyph-name="aring" unicode="&#xe5;" horiz-adv-x="451" 
d="M290 679q0 45 -60 56q-11 -20 -24.5 -37.5t-27.5 -32.5q4 -15 11 -23q16 -24 42 -24q11 0 21.5 5t19 13.5t13.5 19.5t5 23zM446 9q-45 82 -84 198q-87 259 -87 343q10 1 20 1.5t20 0.5q66 0 108 -12q0 26 11 59q-20 -2 -47.5 -3t-62.5 -1l-165 2q-54 1 -85 1.5t-39 0.5
q0 -14 -3 -39q-1 -13 -1.5 -22.5t-0.5 -15.5q84 28 142 28q10 0 12 -1q-5 -38 -13.5 -80t-20.5 -90q-44 -173 -120 -383q44 10 70 10q19 0 42 -3q24 173 38 219l116 -1q41 -143 41 -225q56 13 109 13zM269 643h-9q-22 0 -33 14q-20 29 -20 32q0 9 13 9q7 0 15 -4
q36 -16 34 -51zM281 274q-18 -5 -42 -5q-23 0 -50 3q2 23 7 50t13 59q6 28 12 55t13 54q47 -183 47 -216z" />
    <glyph glyph-name="ae" unicode="&#xe6;" horiz-adv-x="79" 
d="M281 274q-18 -5 -42 -5q-23 0 -50 3q2 23 7 50t13 59q6 28 12 55t13 54q47 -183 47 -216zM297 433q-22 88 -22 117q10 1 20 1.5t20 0.5q29 0 56 -3q-52 -51 -74 -116zM766 571q-61 24 -112 30q-16 2 -45.5 3t-73.5 1q-60 0 -105 -18l2 6l2 6q-20 -2 -47.5 -3t-62.5 -1
l-165 2q-54 1 -85 1.5t-39 0.5q0 -14 -3 -39q-1 -13 -1.5 -22.5t-0.5 -15.5q84 28 142 28q10 0 12 -1q-5 -38 -13.5 -80t-20.5 -90q-44 -173 -120 -383q44 10 70 10q19 0 42 -3q24 173 38 219l116 -1q41 -143 41 -225q56 13 109 13q-9 17 -18 35t-18 38q105 -80 216 -78
q79 0 132 15l4 102q-69 -72 -164 -72q-73 0 -128 41q-94 70 -94 224l299 -34l61 109q-17 -8 -32.5 -14t-30.5 -11q-93 -29 -182 -29q-23 0 -51.5 3t-63.5 10q0 66 32 128q51 99 170 99q110 0 169 -95z" />
    <glyph glyph-name="ccedilla" unicode="&#xe7;" horiz-adv-x="503" 
d="M484 571q-61 24 -112 30q-16 2 -45.5 3t-73.5 1q-121 0 -181 -74q-73 -91 -73 -220q0 -120 110 -215q106 -91 228 -92q-6 -7 -12 -13.5t-13 -11.5q-4 -3 -11.5 -7.5t-18.5 -11.5q2 -5 5.5 -9t7.5 -9q12 1 25.5 5t26 11t22.5 15.5t16 18.5q-7 4 -12.5 7t-10.5 5
q72 3 114 15l4 102q-59 -71 -156 -71q-79 0 -132 40q-100 76 -100 217q0 102 38 176q47 92 167 92q109 0 168 -95z" />
    <glyph glyph-name="egrave" unicode="&#xe8;" horiz-adv-x="503" 
d="M484 571q-61 24 -112 30q-16 2 -45.5 3t-73.5 1q-121 0 -181 -74q-73 -91 -73 -220q0 -123 112 -217q108 -92 233 -90q79 0 132 15l4 102q-69 -72 -164 -72q-73 0 -128 41q-94 70 -94 224l299 -34l61 109q-17 -8 -32.5 -14t-30.5 -11q-93 -29 -182 -29q-23 0 -51.5 3
t-63.5 10q0 66 32 128q51 99 170 99q110 0 169 -95zM282 653q-16 20 -30.5 38.5t-28.5 35.5l-42 -28q19 -15 38.5 -31.5t39.5 -33.5q8 7 13.5 11.5t9.5 7.5z" />
    <glyph glyph-name="eacute" unicode="&#xe9;" horiz-adv-x="503" 
d="M484 571q-61 24 -112 30q-16 2 -45.5 3t-73.5 1q-121 0 -181 -74q-73 -91 -73 -220q0 -123 112 -217q108 -92 233 -90q79 0 132 15l4 102q-69 -72 -164 -72q-73 0 -128 41q-94 70 -94 224l299 -34l61 109q-17 -8 -32.5 -14t-30.5 -11q-93 -29 -182 -29q-23 0 -51.5 3
t-63.5 10q0 66 32 128q51 99 170 99q110 0 169 -95zM269 653q16 20 30 38.5t28 35.5l42 -28q-19 -15 -38.5 -31.5t-39.5 -33.5q-7 7 -12.5 11.5t-9.5 7.5z" />
    <glyph glyph-name="ecircumflex" unicode="&#xea;" horiz-adv-x="503" 
d="M484 571q-61 24 -112 30q-16 2 -45.5 3t-73.5 1q-121 0 -181 -74q-73 -91 -73 -220q0 -123 112 -217q108 -92 233 -90q79 0 132 15l4 102q-69 -72 -164 -72q-73 0 -128 41q-94 70 -94 224l299 -34l61 109q-17 -8 -32.5 -14t-30.5 -11q-93 -29 -182 -29q-23 0 -51.5 3
t-63.5 10q0 66 32 128q51 99 170 99q110 0 169 -95zM380 668q-25 20 -43 34.5t-29 24.5q-38 -39 -80 -77l18 -17l49 44l52 -44z" />
    <glyph glyph-name="edieresis" unicode="&#xeb;" horiz-adv-x="503" 
d="M484 571q-61 24 -112 30q-16 2 -45.5 3t-73.5 1q-121 0 -181 -74q-73 -91 -73 -220q0 -123 112 -217q108 -92 233 -90q79 0 132 15l4 102q-69 -72 -164 -72q-73 0 -128 41q-94 70 -94 224l299 -34l61 109q-17 -8 -32.5 -14t-30.5 -11q-93 -29 -182 -29q-23 0 -51.5 3
t-63.5 10q0 66 32 128q51 99 170 99q110 0 169 -95zM271 674q0 17 -12 29t-29 12t-29 -12t-12 -29q0 -18 12 -29t29 -11t29 11.5t12 28.5zM373 674q0 17 -12 29t-28 12q-18 0 -29.5 -12t-11.5 -29q0 -18 11.5 -29t29.5 -11q17 0 28.5 11.5t11.5 28.5z" />
    <glyph glyph-name="igrave" unicode="&#xec;" horiz-adv-x="168" 
d="M140 2q-21 217 -21 368q0 72 4.5 130t12.5 105q-7 0 -16.5 -0.5t-20.5 -1.5q-14 -1 -24 -1h-14h-23q-13 1 -19 3q32 -84 32 -313q0 -202 -25 -292q14 2 28.5 3.5t30.5 1.5q25 0 55 -3zM81 653q-16 20 -30 38.5t-28 35.5l-41 -28q19 -15 38 -31.5t39 -33.5q7 7 12.5 11.5
t9.5 7.5z" />
    <glyph glyph-name="iacute" unicode="&#xed;" horiz-adv-x="168" 
d="M140 2q-21 217 -21 368q0 72 4.5 130t12.5 105q-7 0 -16.5 -0.5t-20.5 -1.5q-14 -1 -24 -1h-14h-23q-13 1 -19 3q32 -84 32 -313q0 -202 -25 -292q14 2 28.5 3.5t30.5 1.5q25 0 55 -3zM87 653q16 20 30.5 38.5t28.5 35.5l42 -28q-19 -15 -38.5 -31.5t-39.5 -33.5
q-8 7 -13.5 11.5t-9.5 7.5z" />
    <glyph glyph-name="icircumflex" unicode="&#xee;" horiz-adv-x="168" 
d="M140 2q-21 217 -21 368q0 72 4.5 130t12.5 105q-7 0 -16.5 -0.5t-20.5 -1.5q-14 -1 -24 -1h-14h-23q-13 1 -19 3q32 -84 32 -313q0 -202 -25 -292q14 2 28.5 3.5t30.5 1.5q25 0 55 -3zM152 653q-13 9 -31 23.5t-41 34.5q-19 -19 -38.5 -38t-40.5 -38l17 -17l49 44l52 -44
z" />
    <glyph glyph-name="idieresis" unicode="&#xef;" horiz-adv-x="168" 
d="M140 2q-21 217 -21 368q0 72 4.5 130t12.5 105q-7 0 -16.5 -0.5t-20.5 -1.5q-14 -1 -24 -1h-14h-23q-13 1 -19 3q32 -84 32 -313q0 -202 -25 -292q14 2 28.5 3.5t30.5 1.5q25 0 55 -3zM72 674q0 17 -12 29t-29 12t-28.5 -12t-11.5 -29q0 -18 11.5 -29t28.5 -11
q18 0 29.5 11.5t11.5 28.5zM175 674q0 17 -12 29t-29 12t-29 -12t-12 -29q0 -18 12 -29t29 -11t29 11.5t12 28.5z" />
    <glyph glyph-name="eth" unicode="&#xf0;" horiz-adv-x="533" 
d="M187 321q-1 43 -1.5 83t-0.5 78q0 35 0.5 56.5t1.5 30.5q74 0 142 -42q96 -57 96 -270q0 -218 -181 -218q-8 0 -23.5 1.5t-23.5 1.5q-2 25 -4 71t-4 115l-1 43h188v50h-189zM31 321v-50h78q-3 -77 -12 -149q-13 -108 -31 -119q63 -5 98 -7.5t45 -2.5q83 0 152 20
q160 51 160 258q0 16 -1.5 34t-3.5 38q-12 109 -63 171q-85 103 -258 103q-22 0 -55 -3t-78 -10q48 -15 48 -256v-27h-79z" />
    <glyph glyph-name="ntilde" unicode="&#xf1;" horiz-adv-x="461" 
d="M446 5q-10 110 -15 201.5t-5 166.5q0 72 4 130.5t12 105.5q-7 0 -16 -0.5t-20 -1.5q-13 -1 -22 -1h-14h-24q-12 1 -18 3q9 -25 16 -62t12 -87q5 -58 8.5 -132.5t5.5 -167.5q-2 0 -62 83q-159 220 -190 359h-12q-6 0 -14 -1h-25q-8 0 -20 1t-28 3q32 -84 32 -313
q0 -202 -25 -292q14 2 28.5 3.5t29.5 1.5h30q15 -3 23 -3q-8 76 -14 157.5t-11 170.5l-8 127q2 0 73 -96q186 -251 186 -357q14 2 24.5 3t17.5 1h15q17 -2 26 -3zM339 679q-4 3 -7.5 6t-6.5 6l-10 -7q-17 -14 -25 -14q-7 0 -35 12l-19 8l-19 9q-6 3 -16 3q-21 0 -54 -37
l-14 -15q9 -5 15 -11l8 8q8 9 11 11q6 6 16 6q6 0 33 -11l21 -9q25 -11 39 -11q13 0 30 15q2 4 20 19z" />
    <glyph glyph-name="ograve" unicode="&#xf2;" horiz-adv-x="612" 
d="M604 288q0 57 -25 132q-27 85 -110 141q-83 57 -173 57q-30 0 -60 -6q-101 -21 -165 -97q-64 -74 -64 -179q0 -76 39 -161q38 -82 117 -128q76 -45 168 -45q44 0 110 23q74 27 120 106q43 73 43 157zM521 268q0 -67 -28 -119q-24 -45 -66 -71.5t-93 -26.5q-87 0 -159 75
q-66 69 -83 159q-6 34 -6 63q0 65 27 118q12 22 29 41t38 32t45 20.5t48 7.5q80 0 151 -68q97 -94 97 -231zM278 653q-16 20 -30.5 38.5t-28.5 35.5l-41 -28q19 -15 38.5 -31.5t39.5 -33.5q7 7 12.5 11.5t9.5 7.5z" />
    <glyph glyph-name="oacute" unicode="&#xf3;" horiz-adv-x="612" 
d="M604 288q0 57 -25 132q-27 85 -110 141q-83 57 -173 57q-30 0 -60 -6q-101 -21 -165 -97q-64 -74 -64 -179q0 -76 39 -161q38 -82 117 -128q76 -45 168 -45q44 0 110 23q74 27 120 106q43 73 43 157zM521 268q0 -67 -28 -119q-24 -45 -66 -71.5t-93 -26.5q-87 0 -159 75
q-66 69 -83 159q-6 34 -6 63q0 65 27 118q12 22 29 41t38 32t45 20.5t48 7.5q80 0 151 -68q97 -94 97 -231zM299 653q16 20 30.5 38.5t28.5 35.5l41 -28q-19 -15 -38.5 -31.5t-39.5 -33.5q-7 7 -12.5 11.5t-9.5 7.5z" />
    <glyph glyph-name="ocircumflex" unicode="&#xf4;" horiz-adv-x="612" 
d="M604 288q0 57 -25 132q-27 85 -110 141q-83 57 -173 57q-30 0 -60 -6q-101 -21 -165 -97q-64 -74 -64 -179q0 -76 39 -161q38 -82 117 -128q76 -45 168 -45q44 0 110 23q74 27 120 106q43 73 43 157zM521 268q0 -67 -28 -119q-24 -45 -66 -71.5t-93 -26.5q-87 0 -159 75
q-66 69 -83 159q-6 34 -6 63q0 65 27 118q12 22 29 41t38 32t45 20.5t48 7.5q80 0 151 -68q97 -94 97 -231zM380 668q-25 20 -43 34.5t-29 24.5q-38 -39 -80 -77l18 -17l49 44l52 -44z" />
    <glyph glyph-name="otilde" unicode="&#xf5;" horiz-adv-x="612" 
d="M604 288q0 57 -25 132q-27 85 -110 141q-83 57 -173 57q-30 0 -60 -6q-101 -21 -165 -97q-64 -74 -64 -179q0 -76 39 -161q38 -82 117 -128q76 -45 168 -45q44 0 110 23q74 27 120 106q43 73 43 157zM521 268q0 -67 -28 -119q-24 -45 -66 -71.5t-93 -26.5q-87 0 -159 75
q-66 69 -83 159q-6 34 -6 63q0 65 27 118q12 22 29 41t38 32t45 20.5t48 7.5q80 0 151 -68q97 -94 97 -231zM404 679l-15 12l-9 -7q-19 -14 -26 -14t-34 12l-20 8l-18 9q-8 3 -17 3q-20 0 -54 -37l-14 -15q9 -5 15 -11l8 8q8 9 11 11q6 6 16 6q6 0 33 -11l21 -9
q27 -11 39 -11q13 0 30 15q2 4 20 19z" />
    <glyph glyph-name="odieresis" unicode="&#xf6;" horiz-adv-x="612" 
d="M604 288q0 57 -25 132q-27 85 -110 141q-83 57 -173 57q-30 0 -60 -6q-101 -21 -165 -97q-64 -74 -64 -179q0 -76 39 -161q38 -82 117 -128q76 -45 168 -45q44 0 110 23q74 27 120 106q43 73 43 157zM521 268q0 -67 -28 -119q-24 -45 -66 -71.5t-93 -26.5q-87 0 -159 75
q-66 69 -83 159q-6 34 -6 63q0 65 27 118q12 22 29 41t38 32t45 20.5t48 7.5q80 0 151 -68q97 -94 97 -231zM290 674q0 17 -12 29t-29 12t-28.5 -12t-11.5 -29q0 -18 11.5 -29t28.5 -11q18 0 29.5 11.5t11.5 28.5zM393 674q0 17 -12 29t-29 12t-29 -12t-12 -29q0 -18 12 -29
t29 -11q18 0 29.5 11.5t11.5 28.5z" />
    <glyph glyph-name="divide" unicode="&#xf7;" 
d="M297 528q0 20 -13.5 33.5t-32.5 13.5q-21 0 -34.5 -13.5t-13.5 -34.5q0 -19 15 -33t32 -14q20 0 33.5 14t13.5 34zM483 321v56h-466v-56h466zM297 170q0 20 -13.5 33.5t-33.5 13.5q-18 0 -35 -14q-12 -14 -12 -33q0 -20 13.5 -33.5t33.5 -13.5q19 0 33 14t14 33z" />
    <glyph glyph-name="oslash" unicode="&#xf8;" horiz-adv-x="612" 
d="M157 146q-51 62 -65 139q-6 34 -6 63q0 65 27 118q12 22 29 41t38 32t45 20.5t48 7.5q81 0 151 -68l5 -5zM449 473q48 -56 58 -106q14 -67 14 -99q0 -67 -28 -119q-24 -45 -66 -71.5t-93 -26.5q-83 0 -154 71l-3 3zM526 617l-49 -62l-4 2q-79 61 -177 61q-30 0 -60 -6
q-101 -21 -165 -97q-64 -74 -64 -179q0 -76 39 -161q24 -52 64 -89l-53 -68l22 -18l53 67q88 -65 199 -65q44 0 110 23q74 27 120 106q43 73 43 157q0 156 -105 249l49 63z" />
    <glyph glyph-name="ugrave" unicode="&#xf9;" horiz-adv-x="544" 
d="M544 0q-22 23 -22 253q0 307 19 352q-32 -12 -57 -12q-28 0 -51 13q16 -32 16 -227l-1 -108v-93q-41 -114 -118 -114q-114 0 -160 144q-58 183 -58 400q-27 -11 -62 -11q-26 0 -50 8q19 -22 54 -212q40 -216 51 -249q52 -157 194 -157q54 0 92 33q27 25 57 84
q-6 -20 -6 -104q13 7 46 7q41 0 56 -7zM278 653q-16 20 -30.5 38.5t-28.5 35.5l-41 -28q19 -15 38.5 -31.5t39.5 -33.5q7 7 12.5 11.5t9.5 7.5z" />
    <glyph glyph-name="uacute" unicode="&#xfa;" horiz-adv-x="544" 
d="M544 0q-22 23 -22 253q0 307 19 352q-32 -12 -57 -12q-28 0 -51 13q16 -32 16 -227l-1 -108v-93q-41 -114 -118 -114q-114 0 -160 144q-58 183 -58 400q-27 -11 -62 -11q-26 0 -50 8q19 -22 54 -212q40 -216 51 -249q52 -157 194 -157q54 0 92 33q27 25 57 84
q-6 -20 -6 -104q13 7 46 7q41 0 56 -7zM254 653q16 20 30 38.5t28 35.5l42 -28q-19 -15 -38.5 -31.5t-39.5 -33.5q-14 13 -22 19z" />
    <glyph glyph-name="ucircumflex" unicode="&#xfb;" horiz-adv-x="544" 
d="M544 0q-22 23 -22 253q0 307 19 352q-32 -12 -57 -12q-28 0 -51 13q16 -32 16 -227l-1 -108v-93q-41 -114 -118 -114q-114 0 -160 144q-58 183 -58 400q-27 -11 -62 -11q-26 0 -50 8q19 -22 54 -212q40 -216 51 -249q52 -157 194 -157q54 0 92 33q27 25 57 84
q-6 -20 -6 -104q13 7 46 7q41 0 56 -7zM346 668q-25 20 -43 34.5t-29 24.5q-38 -39 -80 -77l18 -17l49 44l52 -44z" />
    <glyph glyph-name="udieresis" unicode="&#xfc;" horiz-adv-x="544" 
d="M544 0q-22 23 -22 253q0 307 19 352q-32 -12 -57 -12q-28 0 -51 13q16 -32 16 -227l-1 -108v-93q-41 -114 -118 -114q-114 0 -160 144q-58 183 -58 400q-27 -11 -62 -11q-26 0 -50 8q19 -22 54 -212q40 -216 51 -249q52 -157 194 -157q54 0 92 33q27 25 57 84
q-6 -20 -6 -104q13 7 46 7q41 0 56 -7zM262 674q0 17 -12 29t-29 12t-29 -12t-12 -29q0 -18 12 -29t29 -11t29 11.5t12 28.5zM364 674q0 17 -12 29t-28 12q-18 0 -29.5 -12t-11.5 -29q0 -18 11.5 -29t29.5 -11q17 0 28.5 11.5t11.5 28.5z" />
    <glyph glyph-name="yacute" unicode="&#xfd;" horiz-adv-x="423" 
d="M429 602q-7 0 -16 -0.5t-21 -1.5q-14 -1 -23 -1h-14h-24q-13 1 -19 3q0 -89 -75 -258q-7 14 -15 32.5t-18 40.5q-69 155 -75 191q-48 -9 -94 -9q-8 0 -13.5 0.5t-9.5 1.5q13 -10 53 -73q50 -81 86.5 -141t60.5 -101l-30 -70q-31 -70 -59.5 -124.5t-56.5 -93.5
q14 2 28.5 3t30.5 1q25 0 54 -3q14 85 55 198q88 240 195 405zM223 653q16 20 30.5 38.5t28.5 35.5l42 -28q-19 -15 -38.5 -31.5t-39.5 -33.5q-8 7 -13.5 11.5t-9.5 7.5z" />
    <glyph glyph-name="ydieresis" unicode="&#xff;" horiz-adv-x="423" 
d="M429 602q-7 0 -16 -0.5t-21 -1.5q-14 -1 -23 -1h-14h-24q-13 1 -19 3q0 -89 -75 -258q-7 14 -15 32.5t-18 40.5q-69 155 -75 191q-48 -9 -94 -9q-8 0 -13.5 0.5t-9.5 1.5q13 -10 53 -73q50 -81 86.5 -141t60.5 -101l-30 -70q-31 -70 -59.5 -124.5t-56.5 -93.5
q14 2 28.5 3t30.5 1q25 0 54 -3q14 85 55 198q88 240 195 405zM225 674q0 17 -12 29t-29 12t-29 -12t-12 -29q0 -18 12 -29t29 -11t29 11.5t12 28.5zM327 674q0 17 -12 29t-28 12q-18 0 -29.5 -12t-11.5 -29q0 -18 11.5 -29t29.5 -11q17 0 28.5 11.5t11.5 28.5z" />
    <glyph glyph-name="OE" unicode="&#x152;" horiz-adv-x="1353" 
d="M689 354q0 -89 -37 -157q-31 -60 -87.5 -95t-122.5 -35q-116 0 -210 100q-91 92 -110 210q-4 23 -6 43.5t-2 39.5q0 88 36 157q15 30 37.5 54.5t50.5 42t59 27t64 9.5q97 0 195 -84q94 -82 115 -180q5 -20 8 -38.5t5 -34.5v-1q0 -15 1.5 -29.5t3.5 -28.5zM1326 755
q-41 16 -77.5 26t-70.5 14q-21 2 -60 3.5t-97 1.5q-159 0 -239 -98q-16 -19 -28.5 -37.5t-22.5 -35.5q-38 58 -105 108q-107 80 -235 80q-81 0 -156 -32q-53 -23 -95 -57.5t-71 -78t-44.5 -95.5t-15.5 -109q0 -102 52 -213q50 -108 155 -170q101 -59 222 -59q91 0 168 41.5
t128 116.5q13 18 24 41q31 -39 75 -75q149 -123 308 -122q54 1 97 5.5t78 14.5l5 135q-92 -95 -217 -95q-99 0 -169 54q-124 94 -124 296l395 -45l80 145q-22 -10 -42.5 -18t-40.5 -15q-120 -39 -240 -39q-31 0 -69 4.5t-83 12.5q0 89 42 170q68 131 225 131q146 0 223 -126
z" />
    <glyph glyph-name="oe" unicode="&#x153;" horiz-adv-x="1023" 
d="M521 267q0 -66 -28 -118q-24 -45 -66 -71.5t-93 -26.5q-87 0 -159 75q-66 69 -83 159q-6 34 -6 63q0 65 27 118q12 22 29 41t38 32t45 20.5t48 7.5q74 0 146 -63q73 -62 88 -137q4 -16 6 -29.5t4 -24.5v-2q0 -24 4 -44zM1002 571q-62 24 -112 30q-16 2 -45 3t-73 1
q-121 0 -181 -74q-23 -29 -38 -56q-29 45 -80 82q-80 61 -177 61q-30 0 -60 -6q-101 -21 -165 -97q-64 -74 -64 -179q0 -76 39 -161q38 -82 117 -128q76 -45 168 -45q44 0 110 23q82 30 132 128q22 -29 56 -57q113 -93 234 -92q79 0 132 15l4 102q-69 -72 -164 -72
q-73 0 -128 41q-94 70 -94 224l299 -34l60 109q-16 -8 -31.5 -14t-31.5 -11q-92 -29 -181 -29q-23 0 -52 3t-63 10q0 67 31 128q52 99 171 99q110 0 169 -95z" />
    <glyph glyph-name="Scaron" unicode="&#x160;" horiz-adv-x="540" 
d="M535 800q-45 7 -86 10t-80 3q-319 0 -319 -193q0 -97 96 -151q60 -31 104 -54t74 -37q96 -53 96 -148q0 -158 -171 -158q-100 0 -214 53l-15 -125q36 -5 72 -8t71 -3q147 0 239 43q123 58 123 189v24q0 77 -97 138q-60 36 -104.5 62.5t-75.5 43.5q-98 62 -98 136
q0 65 44 100q40 31 108 31q121 0 225 -71zM271 915q17 -13 40.5 -32.5t54.5 -45.5q25 26 51 51t54 50l-23 23l-65 -58l-69 58z" />
    <glyph glyph-name="scaron" unicode="&#x161;" horiz-adv-x="408" 
d="M404 605q-33 5 -64.5 7.5t-60.5 2.5q-241 0 -241 -146q0 -74 72 -114q90 -47 135 -69q73 -40 73 -112q0 -120 -130 -120q-78 0 -162 40l-11 -94q28 -4 55 -6t53 -2q109 0 181 32q93 45 93 143v18q0 59 -73 105q-46 27 -80 47t-57 33q-74 47 -74 102q0 100 115 100
q92 0 170 -54zM205 691q13 -9 31 -23.5t41 -34.5q19 19 38.5 38t40.5 38l-18 18l-49 -45l-52 45z" />
    <glyph glyph-name="Ydieresis" unicode="&#x178;" horiz-adv-x="560" 
d="M568 796q-9 0 -21.5 -0.5t-28.5 -1.5q-17 -1 -29.5 -1.5t-19.5 -0.5h-31q-8 2 -14.5 2.5t-10.5 1.5q0 -118 -99 -341q-9 20 -20 44t-24 53q-91 201 -100 252q-63 -12 -124 -12q-21 0 -30 3q19 -14 71 -96q66 -107 114 -187t80 -134l-40 -92q-83 -187 -154 -289
q18 2 37.5 3.5t40.5 1.5q33 0 72 -3q8 55 26.5 120.5t46.5 141.5q116 319 258 535zM297 892q0 22 -16 38t-38 16q-23 0 -38.5 -16t-15.5 -39t15.5 -38t38.5 -15t38.5 15.5t15.5 38.5zM433 892q0 22 -16 38t-38 16q-23 0 -38.5 -16t-15.5 -39t15.5 -38t38.5 -15t38.5 15.5
t15.5 38.5z" />
    <glyph glyph-name="florin" unicode="&#x192;" horiz-adv-x="467" 
d="M517 657q-26 21 -49 41t-43 40q-30 -23 -49.5 -38.5t-29.5 -22.5q-9 -7 -31.5 -20.5t-57.5 -35.5q-5 -42 -11.5 -80t-14.5 -73h-16l-11 -1q-5 0 -15.5 1t-26.5 3q-8 -10 -20.5 -23.5t-29.5 -32.5q53 14 87 14h25l-63 -295q-16 -72 -28.5 -127.5t-23.5 -96.5
q-13 14 -28 29l-32 32q-17 -19 -36 -37t-41 -35q26 -25 48 -48t40 -43q40 33 82.5 64.5t87.5 61.5q6 44 13 85t15 80l68 333h22q26 -2 44 -5t29 -5q11 16 21.5 30t21.5 27q-35 -4 -59.5 -6t-39.5 -2h-32l42 173q33 -27 67 -66q17 20 35.5 39.5t39.5 39.5z" />
    <glyph glyph-name="circumflex" unicode="&#x2c6;" horiz-adv-x="597" 
d="M417 883q-17 13 -40.5 32.5t-54.5 45.5q-25 -26 -51 -51t-54 -50l23 -23l65 58l69 -58z" />
    <glyph glyph-name="tilde" unicode="&#x2dc;" horiz-adv-x="597" 
d="M449 898q-12 9 -19 17l-13 -11q-23 -18 -34 -18q-10 0 -45 16l-26 11l-25 11q-7 4 -21 4q-27 0 -72 -49l-19 -20q14 -7 20 -13l11 10l15 15q8 8 21 8q11 0 44 -16l27 -12q34 -14 52 -14q16 0 39 21l7.5 7.5t19.5 17.5z" />
    <glyph glyph-name="emdash" unicode="&#x2014;" horiz-adv-x="614" 
d="M614 285q-142 -2 -235 -3.5t-140 -1.5h-108t-95 1q-19 -38 -36 -65q102 4 182.5 5.5t140.5 1.5q52 0 114 -1t137 -3q10 19 20 35.5t20 30.5z" />
    <glyph glyph-name="quoteleft" unicode="&#x2018;" horiz-adv-x="200" 
d="M167 680l-11 13q-30 -17 -57 -43q-66 -65 -66 -124q0 -40 33 -74q19 -20 42 -31l48 60q-13 8 -22 15.5l-15 12.5q-21 21 -21 56q0 67 69 115z" />
    <glyph glyph-name="quoteright" unicode="&#x2019;" horiz-adv-x="200" 
d="M167 581q0 40 -33 75q-19 20 -42 31l-49 -61q14 -8 23.5 -15t14.5 -12q21 -21 21 -57q0 -67 -69 -115l10 -13q31 16 59 44q65 65 65 123z" />
    <glyph glyph-name="quotesinglbase" unicode="&#x201a;" horiz-adv-x="176" 
d="M152 0q0 44 -36 79q-9 9 -42 28q-17 -19 -29.5 -34.5t-21.5 -26.5q25 -8 37 -22q25 -24 25 -65q0 -48 -37 -84q-15 -15 -45 -34l9 -16q43 22 76 52q64 58 64 123z" />
    <glyph glyph-name="quotedblleft" unicode="&#x201c;" horiz-adv-x="354" 
d="M320 680l-10 13q-32 -17 -58 -43q-65 -65 -65 -124q0 -40 33 -74q18 -20 41 -31l49 60q-13 8 -22.5 15t-15.5 13q-21 21 -21 56q0 67 69 115zM167 680l-11 13q-30 -17 -57 -43q-66 -65 -66 -124q0 -40 33 -74q19 -20 42 -31l48 60q-13 8 -22 15.5l-15 12.5q-21 21 -21 56
q0 67 69 115z" />
    <glyph glyph-name="quotedblright" unicode="&#x201d;" horiz-adv-x="354" 
d="M320 581q0 40 -33 75q-19 22 -42 31l-48 -61q13 -8 22.5 -15t14.5 -12q21 -21 21 -57q0 -67 -68 -115l10 -13q16 10 30.5 20.5t27.5 23.5q65 65 65 123zM167 581q0 40 -33 75q-19 20 -42 31l-49 -61q14 -8 23.5 -15t14.5 -12q21 -21 21 -57q0 -67 -69 -115l10 -13
q31 16 59 44q65 65 65 123z" />
    <glyph glyph-name="quotedblbase" unicode="&#x201e;" horiz-adv-x="354" 
d="M320 2q0 40 -33 75q-20 19 -42 30l-48 -60q22 -14 37 -27q21 -20 21 -55q0 -67 -68 -115l10 -13q34 19 58 43q65 65 65 122zM167 2q0 40 -33 75q-20 19 -42 30l-49 -60q28 -17 38 -27q21 -20 21 -55q0 -67 -69 -115l10 -13q30 16 59 43q65 63 65 122z" />
    <glyph glyph-name="dagger" unicode="&#x2020;" horiz-adv-x="461" 
d="M438 511q-32 -5 -64 -8t-64 -3h-38v33q0 45 3.5 86.5t10.5 79.5q-17 -8 -29 -14t-19 -9q-7 -2 -21 -5.5t-36 -8.5q6 -65 6 -119v-45h-33q-41 0 -88 14q-7 -25 -18 -49t-25 -48l42 11q23 2 43 3t37 2l42 2v-260l-2 -59q-2 -42 -3 -70.5t-2 -43.5q31 3 49 3q16 0 48 -3
q-2 38 -3.5 79.5t-1.5 86.5v267h30q35 0 89 -6q12 34 15 38q5 12 32 46z" />
    <glyph glyph-name="daggerdbl" unicode="&#x2021;" horiz-adv-x="458" 
d="M270 432h30q23 0 43.5 -1.5t39.5 -3.5q7 16 11.5 26t6.5 14q8 14 34 43q-29 -5 -58 -7.5t-59 -2.5h-48v56q0 80 16 143q-14 -7 -27 -12.5t-25 -10.5q-5 -2 -18 -5t-33 -8q2 -31 3.5 -58t1.5 -50v-55h-22q-29 0 -53.5 2t-44.5 6q-7 -23 -16 -45.5t-22 -45.5q20 5 32 7.5
t16 3.5q20 4 82 4h27l1 -176h-27q-63 0 -92 7q-8 -19 -12.5 -30t-6.5 -15q-5 -11 -27 -45q52 15 131 15h34v-42q0 -37 -2 -73.5t-6 -72.5q33 3 49 3q18 0 51 -3q-4 28 -5.5 62.5t-1.5 77.5v48h24l16 1q36 2 83 -7q11 47 38 89q-77 -15 -134 -15h-29z" />
    <glyph glyph-name="bullet" unicode="&#x2022;" horiz-adv-x="667" 
d="M473 339q0 56 -41 97q-41 42 -96 42q-60 0 -100 -40t-40 -99t40 -99t98 -40t98 40q41 41 41 99z" />
    <glyph glyph-name="ellipsis" unicode="&#x2026;" horiz-adv-x="528" 
d="M495 48q0 22 -16 38t-38 16t-38.5 -16.5t-16.5 -38.5q0 -23 15.5 -37.5t38.5 -14.5q24 0 39.5 14.5t15.5 38.5zM319 48q0 22 -16 38t-38 16q-21 0 -38 -16t-17 -39q0 -22 16.5 -37t38.5 -15q23 0 38.5 15t15.5 38zM143 48q0 22 -16 38t-38 16q-23 0 -38.5 -16t-15.5 -39
t15.5 -37.5t38.5 -14.5t38.5 15t15.5 38z" />
    <glyph glyph-name="perthousand" unicode="&#x2030;" horiz-adv-x="910" 
d="M555 792l-22 24l-455 -774l21 -20zM302 603q0 119 -69 170q-35 26 -78 32q-20 -17 -51.5 -43t-73.5 -60q-4 -24 -5.5 -48t-1.5 -48q0 -122 62 -163q31 -20 88 -34q37 25 64.5 43.5t46.5 30.5q18 63 18 120zM570 183q0 179 -147 202q-42 -35 -73 -60.5t-52 -42.5
q-6 -51 -6 -96q0 -123 61 -163q16 -11 38 -19t50 -13q10 5 23.5 14t32.5 21q19 13 32.5 22l22.5 15q18 63 18 120zM224 583q0 -42 -12 -109q-115 13 -115 160q0 43 9 90q4 1 14 1q104 0 104 -142zM492 163q0 -42 -12 -109q-115 16 -115 160q0 43 9 91h15q103 0 103 -142z
M879 184q0 178 -147 201q-42 -35 -73 -60.5t-52 -42.5q-6 -51 -6 -96q0 -123 61 -163q16 -11 38 -19t50 -13q10 5 23.5 14t32.5 21q19 13 32.5 22l22.5 15q18 63 18 121zM801 163q0 -42 -12 -108q-115 15 -115 159q0 44 9 91h15q103 0 103 -142z" />
    <glyph glyph-name="guilsinglleft" unicode="&#x2039;" horiz-adv-x="247" 
d="M227 346h-99l-108 -103l105 -104h98l-107 104z" />
    <glyph glyph-name="guilsinglright" unicode="&#x203a;" horiz-adv-x="247" 
d="M227 243l-109 103h-98l110 -103l-107 -104h98z" />
  </font>
</defs>
</svg>
