<?xml version="1.0" standalone="no"?>
<!DOCTYPE svg PUBLIC "-//W3C//DTD SVG 1.1//EN" "http://www.w3.org/Graphics/SVG/1.1/DTD/svg11.dtd" >
<svg xmlns="http://www.w3.org/2000/svg" xmlns:xlink="http://www.w3.org/1999/xlink" version="1.1">
<metadata>
Created by FontForge 20170731 at Fri May 29 12:51:27 2015
 By Aleksey,,,
2015 Iconian Fonts - www.iconian.com
</metadata>
<defs>
<font id="GentlemanCallerExpandedItalic" horiz-adv-x="611" >
  <font-face 
    font-family="Gentleman Caller Expanded Italic"
    font-weight="400"
    font-style="italic"
    font-stretch="expanded"
    units-per-em="1000"
    panose-1="0 0 0 0 0 0 0 0 0 0"
    ascent="800"
    descent="-200"
    x-height="643"
    cap-height="721"
    bbox="-76 -123 1234.09 807"
    underline-thickness="50"
    underline-position="-175"
    unicode-range="U+0020-2122"
  />
<missing-glyph horiz-adv-x="500" 
 />
    <glyph glyph-name=".notdef" horiz-adv-x="500" 
 />
    <glyph glyph-name=".null" horiz-adv-x="0" 
 />
    <glyph glyph-name="nonmarkingreturn" horiz-adv-x="500" 
 />
    <glyph glyph-name="FL0020h" unicode=" " horiz-adv-x="381" 
 />
    <glyph glyph-name="FL0021h" unicode="!" horiz-adv-x="326" 
d="M294 197h-192l67 382q2 11 -10.5 20t-22.5 12l5 32h270l-5 -32q-11 -3 -27 -12t-18 -20zM81 71q6 30 35.5 50.5t70.5 20.5q39 0 64.5 -20.5t20.5 -50.5q-3 -15 -13.5 -28t-25.5 -22.5t-33.5 -15t-37.5 -5.5q-40 0 -63.5 20.5t-17.5 50.5z" />
    <glyph glyph-name="FL0022h" unicode="&#x22;" horiz-adv-x="515" 
d="M184 643l-28 -162q-3 -14 -19 -24.5t-30 -13.5v-1h-1l-6 -34h110q18 0 40 5.5t42.5 15.5t35 25t17.5 33l27 156h-188zM411 643l-28 -162q-3 -14 -19 -24.5t-30 -13.5v-1h-2l-6 -34h111q18 0 40 5.5t42.5 15.5t35 25t17.5 33l27 156h-188z" />
    <glyph glyph-name="FL0023h" unicode="#" horiz-adv-x="775" 
d="M797 280l-17 -96h-47q5 30 -7.5 37.5t-33.5 7.5h-28l-29 -164q-2 -11 11 -20.5t24 -12.5l-6 -32h-176q-11 5 -19.5 15t-14 20t-8.5 18.5t-3 11.5l29 164h-91l-29 -164q-1 -5 2.5 -10.5t8.5 -10t11.5 -8t11.5 -4.5l-6 -32h-270l6 32q6 1 13.5 4.5t14 8t11 10t5.5 10.5
l29 164h-24q-23 0 -38.5 -7.5t-20.5 -37.5h-46l17 96h121l17 93h-121l17 96h46q-3 -16 -1 -25t8 -13.5t15.5 -6t20.5 -1.5h24l27 156q2 11 -10 20t-23 12l5 32h146q8 0 21 -7.5t25 -18t20.5 -21.5t7.5 -17l-27 -156h91l27 156q2 11 -10.5 20t-21.5 12l5 32h270l-5 -32
q-12 -3 -28 -12t-18 -20l-27 -156h28q10 0 19.5 1.5t16.5 6t12.5 13.5t8.5 25h47l-17 -96h-124l-17 -93h124zM498 373h-91l-17 -93h91z" />
    <glyph glyph-name="FL0024h" unicode="$" horiz-adv-x="610" 
d="M403 0h-192l17 99h-3q-10 0 -32 4.5t-43.5 12.5t-37 20.5t-12.5 27.5l7 38q2 13 -10.5 24t-26.5 15l6 34h109q18 -1 38.5 -6t37 -15t26 -24t6.5 -33l-3 -17q-3 -17 10 -27t30 -10h3q45 0 51 40l14 76q-1 16 -7.5 27.5t-32.5 16.5h-109q-15 0 -35.5 4t-39 12t-30.5 19.5
t-9 26.5l24 134q4 24 20.5 38t37.5 20.5t42.5 8t36.5 1.5h15l13 76h192l-13 -76h10q14 0 35 -1t40 -7t30.5 -19.5t7.5 -38.5l-10 -57q-1 -6 2.5 -12t9 -12t12 -10t12.5 -5l-6 -34h-109q-18 1 -38 6t-36 15t-25.5 24t-6.5 33l4 21q1 7 -0.5 16.5t-6 17.5t-12.5 13.5t-19 5.5
q-27 -5 -38 -17t-17 -27l-15 -88q-3 -17 2.5 -29.5t21.5 -15.5h124q14 0 35 -1t39.5 -7.5t30 -20t7.5 -37.5l-20 -116q-3 -15 -19.5 -27.5t-37.5 -20.5t-43 -12.5t-36 -4.5h-11z" />
    <glyph glyph-name="FL0025h" unicode="%" horiz-adv-x="623" 
d="M222 676h130q7 0 20 -1t24.5 -5t19 -12.5t4.5 -23.5l-41 -232l207 241h110l-5 -32q-11 -3 -23.5 -12.5t-20.5 -19.5l-194 -225h129q8 0 20.5 -1t24 -5t18.5 -13t4 -24l-54 -305q-2 -9 -11.5 -16t-22.5 -12t-26 -7.5t-21 -2.5h-131q-8 0 -20.5 2.5t-23.5 7.5t-18.5 12
t-5.5 16l41 235l-206 -241h-112l6 32q11 3 26.5 12.5t17.5 20.5l193 225h-127q-8 0 -20 2.5t-23.5 7.5t-19 12t-5.5 16l54 306q3 15 12.5 23.5t22 12.5t25.5 5t22 1zM505 292q-11 0 -14.5 -9.5t-5.5 -17.5l-38 -214q-2 -8 -1 -15t11 -7q11 0 15.5 7.5t6.5 20.5l37 208
q2 8 -1 17.5t-10 9.5zM278 615q-10 0 -13.5 -9t-5.5 -17l-38 -215q-2 -8 -1 -15t11 -7q11 0 15.5 7.5t6.5 20.5l37 209q2 8 -1 17t-11 9z" />
    <glyph glyph-name="FL0026h" unicode="&#x26;" horiz-adv-x="578" 
d="M391 571q-8 10 -14.5 16.5t-20.5 9.5q-14 -4 -27.5 -9.5t-15.5 -16.5l-27 -152q-4 -20 -1.5 -37.5t24.5 -19.5h219q11 0 20.5 1.5t17 6t12.5 13.5t8 25h46l-24 -136h-46l1 5q2 13 0.5 19t-6 8t-12 3t-16.5 5l-44 -247q-3 -15 -19 -27.5t-37 -20.5t-42.5 -12.5t-36.5 -4.5
h-198q-15 0 -35.5 4.5t-38.5 12.5t-30 20.5t-9 27.5l41 231q5 25 21.5 41t27.5 19l2 4q-9 6 -21 20t-10 30l28 157q4 21 19 35.5t35.5 23.5t44 13t44.5 4h194q14 0 35 -1t39 -7t29.5 -19.5t7.5 -37.5l-14 -80q-2 -11 10 -24t26 -15l-6 -34h-105q-20 1 -40 6t-36.5 15
t-25.5 24t-6 33zM229 103q-5 -26 -1.5 -42.5t24.5 -16.5h14q21 0 29 16.5t13 42.5l33 188l-3.5 10.5t-5.5 7t-11 4t-20 2.5q-11 -1 -16.5 -2.5t-9 -4.5t-6 -7t-7.5 -10z" />
    <glyph glyph-name="FL0027h" unicode="'" horiz-adv-x="288" 
d="M184 643l-28 -162q-3 -14 -19 -24.5t-30 -13.5v-1h-1l-6 -34h110q18 0 40 5.5t42.5 15.5t35 25t17.5 33l27 156h-188z" />
    <glyph glyph-name="FL0028h" unicode="(" horiz-adv-x="283" 
d="M35 39l99 560q3 19 17 33.5t33.5 24t41 15t40.5 6.5h108l-7 -35q-7 -2 -15 -5.5t-15 -8.5t-12.5 -10.5t-6.5 -11.5l-35 -198q-5 -15 -21.5 -29.5t-28.5 -19.5l3 -4q9 -2 19.5 -19t6.5 -41l-45 -257q-4 -24 8 -31.5t29 -7.5l-6 -35h-90q-19 0 -41.5 4t-41.5 13t-31 23
t-9 34z" />
    <glyph glyph-name="FL0029h" unicode=")" horiz-adv-x="283" 
d="M261 39l99 560q3 19 -6 33.5t-24.5 24t-35 15t-37.5 6.5h-109l-7 -35q14 -3 26.5 -14t10.5 -22l-35 -198h1q1 -15 12.5 -29.5t19.5 -19.5l-3 -4q-11 -2 -27 -19t-21 -41l-45 -257q-5 -24 -20 -31.5t-32 -7.5l-6 -35h91q18 0 42 4t46.5 13t39.5 23t20 34z" />
    <glyph glyph-name="FL002Ah" unicode="*" horiz-adv-x="299" 
d="M274 622q13 9 13 15q1 7 -9 16l-5 7l36 26l70 -73l-35 -27q-8 10 -13.5 13t-9.5 3q-3 0 -16 -7l-19 -15l14 -13q8 -8 14 -8q7 0 28 15l26 -26l-96 -72l-27 25l8 7q11 9 12 13q-2 5 -3.5 8.5t-3.5 11.5l-11 11l-16 -13q-13 -9 -13 -14q-2 -9 13 -24l-34 -26l-72 73l36 27
l5 -7q8 -8 15 -8q1 0 10 4l11 5l15 11l-10 13q-13 10 -17 10q-3 0 -6.5 -2t-11.5 -6l-9 -9l-27 27l98 74l25 -27q-21 -17 -22 -23q-1 -7 9 -14l12 -13z" />
    <glyph glyph-name="FL002Bh" unicode="+" horiz-adv-x="386" 
d="M236 383q3 20 -3.5 31t-38.5 11h-6l7 38h163l-7 -38q-19 0 -30.5 -3t-18 -8.5t-9.5 -13.5t-4 -17l-7 -35h42q22 0 37 7.5t20 38.5h47l-24 -136h-47l2 6q2 14 -0.5 20.5t-8.5 9.5t-14.5 4.5t-18.5 5.5h-42l-7 -36q-2 -9 -1.5 -16.5t5 -13t15 -8.5t29.5 -3l-7 -39h-163
l7 39h6q16 0 24.5 3t13.5 8.5t8.5 13t9.5 16.5l7 36h-43q-25 0 -39 -6.5t-19 -33.5l-2 -6h-46l24 136h46q-5 -31 7.5 -38.5t35.5 -7.5h43z" />
    <glyph glyph-name="FL002Ch" unicode="," horiz-adv-x="245" 
d="M41 71q6 30 36.5 50.5t71.5 20.5q38 0 61 -20.5t18 -50.5l-4 -20q-2 -8 -3.5 -23.5t-6.5 -41.5q-3 -18 -17.5 -32.5t-35 -24.5t-43 -16t-40.5 -7h-111l7 35h2q14 4 30 14.5t18 23.5z" />
    <glyph glyph-name="FL002Dh" unicode="-" horiz-adv-x="308" 
d="M179 304q-25 0 -39 -6.5t-19 -33.5l-2 -6h-46l24 136h46q-5 -31 7.5 -38.5t35.5 -7.5h59q21 0 36.5 7.5t20.5 38.5h47l-24 -136h-47l2 6q2 14 -0.5 20.5t-8.5 9.5t-14.5 4.5t-18.5 5.5h-59z" />
    <glyph glyph-name="FL002Eh" unicode="." horiz-adv-x="245" 
d="M41 71q6 30 36 50.5t70 20.5q39 0 63 -20.5t19 -50.5q-6 -30 -37 -50.5t-70 -20.5t-63 20.5t-18 50.5z" />
    <glyph glyph-name="FL002Fh" unicode="/" horiz-adv-x="601" 
d="M77 65l498 578h110l-5 -32q-11 -3 -23.5 -12.5t-20.5 -19.5l-497 -579h-111l6 32q5 1 12 4.5t13.5 8t11.5 9.5t6 11z" />
    <glyph glyph-name="FL0030h" unicode="0" horiz-adv-x="523" 
d="M265 643h218q14 0 35 -1.5t39.5 -8.5t30 -21.5t7.5 -39.5l-90 -507q-3 -15 -19 -27.5t-36.5 -20.5t-42 -12.5t-36.5 -4.5h-219q-15 0 -35.5 4.5t-38.5 12.5t-30 20.5t-9 27.5l90 510q4 24 20.5 37.5t37.5 20.5t42.5 8.5t35.5 1.5zM266 44q32 0 43.5 16.5t16.5 42.5
l44 248l-129 -205l-10 -55q-3 -19 4.5 -33t30.5 -14zM368 599q-11 0 -21 -5t-17.5 -13t-12.5 -17t-6 -18l-40 -231l129 207l4 24q3 17 -5 35t-31 18z" />
    <glyph glyph-name="FL0031h" unicode="1" horiz-adv-x="354" 
d="M141 643h259l-102 -578q-1 -5 2.5 -10.5t8.5 -10t11.5 -8t11.5 -4.5l-6 -32h-270l6 32q6 1 13.5 4.5t14 8t11 10t5.5 10.5l94 528q-23 -10 -34 -30h-39z" />
    <glyph glyph-name="FL0032h" unicode="2" horiz-adv-x="610" 
d="M411 599q25 -5 32 -16.5t7 -27.5l-28 -156q-3 -17 -13 -30t-28 -16h-123q-15 0 -36.5 -1t-42.5 -7.5t-37 -20t-20 -37.5l-51 -287h467l37 210q2 12 19 23t31 15l6 35h-109q-18 -1 -40 -6.5t-42 -15t-34.5 -24t-17.5 -33.5l-28 -160h-51q-23 0 -30.5 14t-4.5 33l31 175
q6 16 16.5 27.5t38.5 16.5h109q14 0 36 4t43 12t37 20t19 27l36 203q4 24 -7.5 37.5t-30.5 20t-40 8t-35 1.5h-217q-15 0 -36.5 -1t-42.5 -7t-37.5 -19.5t-20.5 -37.5l-22 -127q-1 -5 -6.5 -11.5t-13 -12t-15.5 -10t-15 -5.5l-6 -34h109q18 1 40.5 6.5t42 15t34 23.5
t17.5 33l16 90q1 9 6 18t12.5 17t17.5 13t21 5z" />
    <glyph glyph-name="FL00D0h" unicode="3" horiz-adv-x="566" 
d="M411 599q-11 0 -21 -5t-17.5 -13t-12.5 -17t-6 -18l-16 -90q-3 -19 -17.5 -33t-34 -23.5t-42 -15t-40.5 -6.5h-109l6 34q7 1 15 5.5t15.5 10t13 12t6.5 11.5l22 127q4 24 20.5 37.5t37.5 19.5t42.5 7t36.5 1h217q18 0 38.5 -4.5t38 -13.5t27.5 -23.5t7 -34.5l-27 -155
q-4 -17 -22 -31t-32 -21l3 -4q4 -2 10.5 -7t11.5 -13t7.5 -18.5t0.5 -23.5l-41 -233q-3 -14 -21.5 -25t-40.5 -19t-42 -12.5t-26 -4.5h-211q-10 0 -32 4.5t-44 12.5t-37.5 20.5t-12.5 27.5l26 145q2 11 -10.5 23t-25.5 15l6 35h109q18 -1 38 -6.5t36.5 -15t26 -24t6.5 -33.5
l-20 -116q-3 -16 9.5 -30t29.5 -14h3q23 0 36 14t16 33l31 175q-1 11 -4 19.5t-13 16.5q-14 -2 -22 -10.5t-11 -27.5l-2 -6h-46l24 136h46q-3 -18 -0.5 -27t11.5 -14h15q20 6 23 26l31 179l-1 -3q0 16 -7 27.5t-32 16.5z" />
    <glyph glyph-name="FL0034h" unicode="4" horiz-adv-x="601" 
d="M572 0l6 32q-5 1 -11 4.5t-11.5 8t-8.5 10t-2 10.5l91 514q2 11 17.5 20t26.5 12l5 32h-186q-9 0 -17.5 -7t-15.5 -17t-11.5 -21t-5.5 -19l-36 -203h-94l37 209q2 7 17 14.5t27 11.5l5 32h-264l-5 -32q9 -3 22 -12t11 -20l-44 -249h280l-47 -265q-2 -11 -17.5 -20.5
t-26.5 -12.5l-6 -32h264z" />
    <glyph glyph-name="FL0035h" unicode="5" horiz-adv-x="610" 
d="M411 599h-47l-36 -200q-3 -17 2.5 -30t21.5 -16h124q14 0 35 -1t40 -7.5t30.5 -20t7.5 -37.5l-40 -222q-3 -15 -19 -27.5t-37 -20.5t-43 -12.5t-36 -4.5h-206q-10 0 -32 4.5t-44 12.5t-37.5 20.5t-12.5 27.5l26 145q2 11 -10.5 23t-25.5 15l6 35h109q18 -1 38 -6.5
t36.5 -15t26 -24t6.5 -33.5l-20 -116q-3 -16 9.5 -30t29.5 -14h3q23 0 36 14t16 33l31 175q0 16 -7 27.5t-32 16.5h-109q-15 0 -35.5 4t-39 12t-30.5 20t-9 27l47 270h467l-33 -192q-2 -11 10 -24t26 -15l-6 -34h-109q-18 1 -38 6.5t-36.5 15t-26 23.5t-6.5 33l16 90
q3 17 -5.5 35t-31.5 18z" />
    <glyph glyph-name="FL0036h" unicode="6" horiz-adv-x="566" 
d="M505 65q-3 -15 -22.5 -27.5t-44 -20.5t-47.5 -12.5t-32 -4.5h-207q-15 0 -35.5 4.5t-38.5 12.5t-30 20.5t-9 27.5l91 511q4 24 20 37.5t37 20t42 8t36 1.5h218q14 0 35 -1t39.5 -7t30.5 -19.5t8 -37.5l-13 -72q-1 -6 2.5 -12t9 -12t12.5 -10t13 -5l-6 -34h-110
q-18 1 -38 6.5t-36 15t-25.5 23.5t-6.5 33l6 35q3 17 -5 35t-31 18q-28 -5 -39 -16.5t-16 -27.5l-22 -125q8 -27 36 -37h176q25 -11 38 -32t11 -33zM368 328q-13 28 -43 28q-14 0 -29 -6t-23 -19l-42 -240q-3 -19 4.5 -33t30.5 -14h4q17 0 33.5 14t22.5 30z" />
    <glyph glyph-name="FL0037h" unicode="7" horiz-adv-x="612" 
d="M161 0l6 32q11 3 27.5 12.5t18.5 20.5h4l302 504l6 31h-145q-11 0 -14.5 -6t-4.5 -11l-26 -144q-3 -19 -17.5 -33t-34 -23.5t-42 -15t-40.5 -6.5h-109l6 34q7 1 15 5.5t15.5 10t13 12t6.5 11.5l36 209h512l-13 -75l-306 -510q5 -9 14.5 -16.5t20.5 -9.5l-6 -32h-245z" />
    <glyph glyph-name="FL0038h" unicode="8" horiz-adv-x="515" 
d="M271 643h198q21 0 43.5 -4t40.5 -13t28 -23.5t6 -35.5l-27 -155q-2 -8 -8 -16t-14 -15t-16.5 -12.5t-14.5 -8.5l1 -4q4 -2 10.5 -7.5t11.5 -13t8 -18t1 -23.5l-41 -229q-3 -15 -19.5 -27.5t-37.5 -20.5t-43 -12.5t-36 -4.5h-210q-15 0 -35.5 4.5t-38.5 12.5t-30 20.5
t-9 27.5l41 229q2 13 8.5 23.5t14.5 18.5t16 13t14 7l2 4q-5 3 -11.5 8.5t-12 12.5t-9 15t-1.5 16l27 155q4 21 19 35.5t35.5 23.5t44 13t44.5 4zM229 103q-5 -26 -1.5 -42.5t24.5 -16.5h27q21 0 29.5 16.5t13.5 42.5l35 200q-2 6 -4 10.5t-6 7.5t-11 4.5t-20 2.5
q-14 -1 -22 -2.5t-13 -4.5t-8.5 -7.5t-8.5 -10.5zM284 409q-4 -20 7 -26.5t33 -8.5q22 2 34 8.5t16 26.5l29 162q2 14 -10.5 22t-32.5 8h6q-17 0 -34 -8t-19 -22z" />
    <glyph glyph-name="FL0039h" unicode="9" horiz-adv-x="566" 
d="M173 579q3 15 22.5 27t44 20t47.5 12.5t34 4.5h206q14 0 34.5 -4.5t39 -12.5t30.5 -20t9 -27l-90 -512q-4 -24 -20.5 -37.5t-37.5 -20t-42.5 -8t-35.5 -1.5h-217q-14 0 -35.5 1t-40.5 7t-31 19.5t-7 38.5l12 72q1 5 -2 11t-8 11.5t-12 10t-14 5.5l6 35h109q19 -1 39 -6.5
t36 -15t25.5 -24t6.5 -33.5l-6 -35q-2 -8 -0.5 -17t6.5 -17t13 -13.5t19 -5.5q27 5 38 16.5t17 27.5l22 125q-7 25 -38 37h-176q-26 11 -38.5 32.5t-10.5 32.5zM312 315q9 -27 43 -27q14 0 28.5 6t23.5 19l43 240q3 19 -6 32.5t-32 13.5h-4q-17 0 -33 -13.5t-21 -30.5z" />
    <glyph glyph-name="FL003Ah" unicode=":" horiz-adv-x="245" 
d="M41 71q6 30 36 50.5t70 20.5q39 0 63 -20.5t19 -50.5q-6 -30 -37 -50.5t-70 -20.5t-63 20.5t-18 50.5zM85 326q6 29 35.5 50t70.5 21q39 0 62.5 -21t18.5 -50q-6 -30 -36 -50.5t-70 -20.5t-63 20.5t-18 50.5z" />
    <glyph glyph-name="FL003Bh" unicode=";" horiz-adv-x="245" 
d="M85 326q6 29 35.5 50t70.5 21q39 0 62.5 -21t18.5 -50q-6 -30 -36 -50.5t-70 -20.5t-63 20.5t-18 50.5zM41 71q6 30 36.5 50.5t71.5 20.5q38 0 61 -20.5t18 -50.5l-2 -7l-2 -13q-2 -8 -3.5 -23.5t-6.5 -41.5q-3 -18 -17.5 -32.5t-35 -24.5t-43 -16t-40.5 -7h-111l7 35h2
q14 4 30 14.5t18 23.5z" />
    <glyph glyph-name="FL003Ch" unicode="&#x3c;" horiz-adv-x="692" 
d="M360 583l-26 -144q-3 -19 -17.5 -33t-34 -23.5t-42 -15t-40.5 -6.5h-108l6 34q6 1 14.5 5t16 9.5t13 12t6.5 12.5l36 209h593l-13 -75h-40q-2 9 -10 20.5t-22 11.5h-89q-8 -5 -13.5 -10.5t-6.5 -10.5l-91 -514q-2 -11 10.5 -20.5t23.5 -12.5l-6 -32h-270l6 32
q11 3 26 12.5t17 20.5l91 514q2 11 -10 21q-18 -6 -20 -17z" />
    <glyph glyph-name="FL003Dh" unicode="=" horiz-adv-x="308" 
d="M89 348h252l16 90h-47q-5 -31 -20.5 -38.5t-36.5 -7.5h-59q-23 0 -35.5 7.5t-7.5 38.5h-46zM334 304h-252l-16 -90h46q5 31 20.5 38.5t38.5 7.5h59q21 0 33.5 -7.5t7.5 -38.5h47z" />
    <glyph glyph-name="FL0054h" unicode="&#x3e;" horiz-adv-x="692" 
d="M537 583l-26 -144q-3 -19 6.5 -33t26 -23.5t37 -15t39.5 -6.5h109l6 34q-7 1 -14 5.5t-12.5 10.5t-8 12t-1.5 11l36 209h-594l-13 -75h39q5 9 18 20.5t27 11.5h88q14 -13 13 -21l-91 -514q-2 -11 -17.5 -20.5t-26.5 -12.5l-6 -32h270l6 32q-11 3 -23.5 12.5t-10.5 20.5
l91 514q2 11 19 21q15 -6 13 -17z" />
    <glyph glyph-name="FL003Fh" unicode="?" horiz-adv-x="566" 
d="M411 599q-11 0 -21 -5t-17.5 -13t-12.5 -17t-6 -18l-16 -90q-3 -19 -17.5 -33t-34 -23.5t-42 -15t-40.5 -6.5h-109l6 34q7 1 15 5.5t15.5 10t13 12t6.5 11.5l22 127q4 24 20.5 37.5t37.5 19.5t42.5 7t36.5 1h217q14 0 35 -1.5t40 -8t30.5 -20t7.5 -37.5l-36 -203
q-3 -15 -19 -27t-37 -20t-43 -12t-36 -4h-52q-27 -5 -39 -16.5t-15 -27.5l-12 -69h-191l16 90q4 24 20 37.5t36.5 20t42 7.5t35.5 1h71q18 3 28 16t13 30l28 156q0 16 -7 27.5t-32 16.5zM138 71q6 30 36.5 50.5t71.5 20.5q19 0 35.5 -5.5t28 -15t17 -22.5t2.5 -28t-13.5 -28
t-25.5 -22.5t-34 -15t-38 -5.5q-39 0 -62.5 20.5t-17.5 50.5z" />
    <glyph glyph-name="FL0040h" unicode="@" horiz-adv-x="806" 
d="M426 501h131q8 0 21 -1t24.5 -5t18.5 -12.5t4 -23.5l-55 -309h7q17 0 32.5 7.5t19.5 31.5l68 383q0 12 -12.5 23t-26.5 14h-297q-14 -3 -29.5 -14t-20.5 -23l-94 -533q-4 -24 8 -31.5t29 -7.5h380l-6 -35h-470q-19 0 -41.5 4t-41.5 13t-31 23t-9 34l93 526q3 19 17 33.5
t33.5 24t41 14.5t39.5 6h514q18 -1 38 -6t36 -14.5t25 -24t6 -33.5l-67 -376q-3 -20 -20 -34t-39.5 -23t-47 -13t-42.5 -4h-304q-8 0 -20 2.5t-23 8t-18.5 12.5t-5.5 16l54 306q3 15 12.5 23t21.5 12t25 5t22 1zM480 439q-10 0 -14.5 -9t-6.5 -17l-38 -214q-2 -9 0 -16
t12 -7q11 0 15 7.5t6 20.5l37 209q2 8 -0.5 17t-10.5 9z" />
    <glyph glyph-name="FL0041h" unicode="A" horiz-adv-x="614" 
d="M37 0l6 36q5 1 12.5 5t15 9t13 11t6.5 12l101 575q2 13 -11 23t-22 13l6 37h376q9 0 36 -1.5t54 -8t46.5 -21.5t14.5 -42l-118 -671q-2 -13 7.5 -21.5t23 -13t28 -6.5t23.5 -2l-6 -38h-138q-19 0 -43 4.5t-44.5 14t-33 25t-8.5 37.5l69 393h-112l-52 -297q-2 -13 9 -23.5
t24 -13.5l-6 -36h-277zM447 670h-55l-44 -249h106l34 191q3 18 -7 38t-34 20z" />
    <glyph glyph-name="FL0042h" unicode="B" horiz-adv-x="608" 
d="M29 0l6 36q14 3 30.5 13.5t18.5 23.5l101 575q2 13 -10 23t-25 13l6 37h395q21 0 44.5 -4.5t41.5 -15t28.5 -27t6.5 -39.5l-31 -173q-2 -9 -8.5 -18t-15 -17t-17 -14.5t-14.5 -9.5l2 -3q4 -3 10 -9t11.5 -15t8.5 -20.5t0 -26.5l-45 -256q-3 -17 -20 -30.5t-39.5 -23
t-45.5 -14.5t-38 -5h-401zM387 116l40 223q-3 19 -29.5 24t-63.5 5l-52 -295q-3 -11 10 -24h51q21 0 30 18.5t14 48.5zM387 671l-44 -252q9 0 25 1t32.5 4.5t30 11t16.5 21.5l32 183q2 10 -3.5 16t-15.5 9.5t-23 4.5t-26 1h-24z" />
    <glyph glyph-name="FL0043h" unicode="C" horiz-adv-x="594" 
d="M393 671q-30 -5 -41 -18t-16 -31l-92 -520q-4 -21 3.5 -37t32.5 -16h4q18 0 35.5 16t20.5 34l23 130q4 21 19.5 37t36 26.5t44 16.5t43.5 8h115l-7 -39q-8 -2 -16.5 -6.5t-16.5 -10.5t-13.5 -13t-6.5 -13l-28 -162q-3 -17 -24 -30.5t-47 -23t-50.5 -14.5t-34.5 -5h-217
q-15 0 -36.5 5t-40.5 14.5t-31.5 23t-9.5 30.5l101 572q4 27 21.5 42t39.5 22.5t45 9.5t38 2h228q15 0 37.5 -1t42 -8t32 -22t7.5 -43l-28 -162q-1 -5 2 -12t8.5 -13.5t12.5 -11.5t14 -6l-7 -39h-115q-20 1 -41 7t-37.5 17t-26.5 26.5t-7 36.5l22 122q1 9 0 19.5t-5.5 19
t-12.5 14.5t-20 6z" />
    <glyph glyph-name="FL0044h" unicode="D" horiz-adv-x="590" 
d="M156 721h390q16 0 39.5 -2t44.5 -10t34.5 -24t8.5 -44l-100 -568q-3 -17 -21 -30.5t-41 -23t-47 -14.5t-40 -5h-395l6 36q14 3 30.5 13.5t18.5 23.5l101 575q2 13 -10 23t-25 13zM434 671q-26 0 -39 -6t-16 -24l-99 -562q-2 -11 7.5 -20.5t33.5 -9.5q26 0 42 18.5
t21 48.5l88 496q1 9 -0.5 19.5t-6.5 19t-12.5 14.5t-18.5 6z" />
    <glyph glyph-name="FL0045h" unicode="E" horiz-adv-x="643" 
d="M487 653q2 11 -12.5 20t-34.5 11q-16 -2 -34 -12.5t-20 -23.5l-45 -258q23 0 39 8.5t22 43.5h49l-27 -153h-49l1 6q5 31 -7 38.5t-37 7.5l-47 -268q-2 -13 12 -23.5t34 -15.5q17 2 33.5 10t19.5 23l28 162q4 21 19.5 37t36.5 26.5t44 16.5t43 8h114l-7 -39
q-7 -2 -16 -6.5t-16.5 -10.5t-13.5 -13t-7 -13l-41 -235h-539l6 36q14 3 30.5 13.5t18.5 23.5l101 575q2 13 -10 23t-25 13l6 37h539l-41 -235q-1 -5 2 -12t9 -13.5t13 -11.5t13 -6l-7 -39h-114q-19 1 -40 7t-38.5 17t-27 27t-5.5 37z" />
    <glyph glyph-name="FL0046h" unicode="F" horiz-adv-x="643" 
d="M29 0l6 36q15 5 31 15.5t18 21.5l101 575q2 13 -10 23t-25 13l6 37h539l-41 -235q-1 -5 2 -12t9 -13.5t13 -11.5t13 -6l-7 -39h-114q-19 1 -40 7t-38.5 17t-27 27t-5.5 37l28 161q2 11 -12.5 20t-34.5 11q-5 -2 -14 -5.5t-17.5 -8t-15 -10.5t-7.5 -12l-48 -272
q11 0 21 1.5t18 6.5t13.5 15.5t8.5 27.5h49l-27 -152h-49l2 6q5 30 -7 38t-37 8l-46 -258q2 -11 13 -20.5t22 -12.5l-6 -36h-284z" />
    <glyph glyph-name="FL0047h" unicode="G" horiz-adv-x="594" 
d="M533 73q-3 -17 -24 -30.5t-47 -23t-50.5 -14.5t-34.5 -5h-217q-15 0 -36.5 5t-40.5 14.5t-31.5 23t-9.5 30.5l101 572q4 27 21.5 42t39.5 22.5t45 9.5t38 2h228q15 0 37.5 -1t42 -8t32 -22t7.5 -43l-14 -81q-1 -5 2 -12t8.5 -13.5t12.5 -11.5t14 -6l-6 -38h-115
q-19 1 -40.5 7t-39 16.5t-27 26.5t-5.5 37l7 40q1 9 0 19.5t-5.5 19t-12.5 14.5t-20 6q-30 -5 -41 -18t-16 -31l-92 -520q-4 -21 3.5 -37t32.5 -16h4q17 0 35 16t23 34l40 227q2 13 -10.5 23t-23.5 13l6 36h276l-6 -36q-12 -3 -28.5 -13t-18.5 -23z" />
    <glyph glyph-name="FL0048h" unicode="H" horiz-adv-x="644" 
d="M37 0l6 36q5 1 12.5 5t15 9t13 11t6.5 12l101 575q2 13 -11 23t-22 13l6 37h195q10 0 16 -8t9.5 -19.5t4 -24t-0.5 -21.5l-40 -227h98l41 234q1 4 -3 8.5t-10 8.5t-12 7l-10 5l6 37h277l-6 -37q-11 -4 -28 -13t-19 -23l-118 -671q-2 -11 5.5 -18.5t19.5 -12t26.5 -7
t27.5 -4.5l3 -1l-6 -38h-138q-20 0 -44 4.5t-44 14t-32.5 25t-8.5 37.5l69 393h-103l-52 -297q-2 -13 9 -23.5t24 -13.5l-6 -36h-277z" />
    <glyph glyph-name="FL0049h" unicode="I" horiz-adv-x="342" 
d="M29 0l6 36q14 3 30.5 13.5t18.5 23.5l101 575q2 13 -10 23t-25 13l6 37h284l-6 -37q-12 -3 -29 -13t-19 -23l-101 -575q-2 -13 10.5 -23.5t23.5 -13.5l-6 -36h-284z" />
    <glyph glyph-name="FL004Ah" unicode="J" horiz-adv-x="636" 
d="M387 99l99 556q1 4 -3 8t-10 8t-12 7.5t-10 5.5l6 37h277l-6 -37q-6 -2 -13.5 -5.5t-15 -8t-13 -10t-6.5 -12.5l-101 -575q-3 -17 -24 -30.5t-47 -23t-50.5 -14.5t-33.5 -5h-206q-11 0 -33.5 5t-45.5 14.5t-39 23t-13 30.5l28 162q2 13 -10.5 26t-26.5 17l7 39h115
q19 -2 40 -8t38.5 -16.5t27 -26.5t5.5 -37l-23 -130q-3 -18 9.5 -34t30.5 -16h1q20 0 37.5 16t20.5 34z" />
    <glyph glyph-name="FL004Bh" unicode="K" horiz-adv-x="634" 
d="M434 684q-19 -5 -31.5 -13.5t-19.5 -22.5l-40 -229h18q19 0 40.5 3t41.5 12l35 199q4 21 19 37t35 26.5t43 16.5t43 8h114l-7 -39q-7 -2 -15.5 -6t-16.5 -9.5t-14 -12t-7 -13.5l-32 -180h-1q-3 -9 -10 -18t-15.5 -17t-16.5 -14t-14 -9l3 -3q4 -2 10.5 -8t11.5 -15.5
t7.5 -21.5t-0.5 -26l-62 -352q-2 -13 7 -21.5t22.5 -13t28.5 -6.5t24 -2l-6 -38h-138q-20 0 -44 4.5t-44 14t-32.5 25t-8.5 37.5l64 362q-3 19 -29 24t-63 5l-52 -295q-2 -13 9.5 -23.5t22.5 -13.5l-6 -36h-279l6 36q14 3 30.5 13.5t18.5 23.5l101 575q-1 10 -10 20.5
t-25 15.5l6 37h284z" />
    <glyph glyph-name="FL004Ch" unicode="L" horiz-adv-x="643" 
d="M186 650q-5 13 -12 21.5t-24 12.5l6 37h284l-6 -37q-12 -3 -28 -12.5t-18 -22.5l-101 -574q-2 -13 11 -24.5t33 -16.5q14 2 23 4.5t20 10.5q9 9 10 18l28 162q4 21 19.5 37t36.5 26.5t44 16.5t43 8h114l-7 -39q-7 -2 -16 -6.5t-16.5 -10.5t-13.5 -13t-7 -13l-41 -235
h-539l6 36q14 3 30.5 13.5t18.5 23.5z" />
    <glyph glyph-name="FL004Dh" unicode="M" horiz-adv-x="847" 
d="M683 648l-197 -297l-95 297q-3 19 -11.5 33t-18.5 23t-19.5 13t-14.5 4h-171l-6 -37q13 -3 25 -13t10 -23l-101 -575q-2 -13 -18.5 -23.5t-30.5 -13.5l-6 -36h278l6 36q-10 3 -23 13.5t-11 23.5l61 345l102 -315l213 316l-61 -346q-1 -6 -6.5 -12t-13 -11.5t-15 -9
t-13.5 -4.5l-6 -36h277l6 36q-11 3 -23.5 13.5t-10.5 23.5l101 575q2 13 19 23t29 13l6 37h-170q-6 0 -18 -7t-26 -17.5t-27 -23.5t-20 -25z" />
    <glyph glyph-name="FL004Eh" unicode="N" horiz-adv-x="641" 
d="M686 647h-1v1q1 6 6.5 12t13 10.5t15 8t12.5 5.5l6 36h-276l-6 -36l10 -5t12 -7t10 -8.5t3 -8.5l-49 -281l-123 274q-1 12 -8 24.5t-16 23t-18 17.5t-14 7h-107l-6 -36q11 -3 24 -13.5t11 -22.5l-101 -575q-1 -6 -6.5 -12t-13 -11t-15.5 -9t-14 -5l-6 -36h278l6 36
q-10 3 -22 13.5t-10 23.5l45 254l125 -258q0 -10 5.5 -22t14.5 -22.5t19.5 -17.5t20.5 -7h61z" />
    <glyph glyph-name="FL004Fh" unicode="O" horiz-adv-x="548" 
d="M287 721q-15 0 -38 -2t-45 -9.5t-39.5 -23t-21.5 -42.5l-101 -571q-3 -17 9.5 -30.5t31.5 -23t40.5 -14.5t36.5 -5h229q15 0 38 5t45.5 14.5t40 23t20.5 30.5l100 568q5 28 -7.5 44t-32 24t-41.5 10t-37 2h-228zM393 671q12 0 20 -6t12.5 -14.5t5.5 -19t0 -19.5l-88 -496
q-5 -30 -17 -48.5t-46 -18.5q-25 0 -32.5 16t-3.5 37l90 510q1 9 6 19.5t12.5 19t18 14.5t22.5 6z" />
    <glyph glyph-name="FL0050h" unicode="P" horiz-adv-x="590" 
d="M29 0l6 36q14 3 30.5 13.5t18.5 23.5l101 575q2 13 -10 23t-25 13l6 37h379q10 0 35 -1.5t50 -8.5t42 -22.5t12 -42.5l-37 -210q-5 -26 -22.5 -41t-42 -22.5t-52 -10t-51.5 -2.5h-140l-50 -287q-2 -13 11 -23.5t23 -13.5l-6 -36h-278zM431 670h-47l-46 -259h46
q11 2 31.5 17t31.5 40l25 144q3 18 -7.5 38t-33.5 20z" />
    <glyph glyph-name="FL0051h" unicode="Q" horiz-adv-x="548" 
d="M160 0q-15 0 -36.5 5t-40.5 14.5t-31.5 23t-9.5 30.5l101 572q4 27 21.5 42t39.5 22.5t45 9.5t38 2h228q15 0 37 -2t41.5 -10t32 -24t7.5 -44l-100 -568q-2 -13 -12.5 -24t-25.5 -20t-33 -15t-34 -9l-5 -28q-2 -13 8 -21.5t24 -13t28.5 -6.5t22.5 -2l-6 -38h-138
q-19 0 -43 4.5t-44.5 14t-32.5 25t-8 37.5l4 23h-78zM393 671q-12 0 -22.5 -6t-18 -14.5t-12.5 -19t-6 -19.5l-90 -510q-4 -21 3.5 -37t32.5 -16q34 0 46 18.5t17 48.5l88 496q1 9 0 19.5t-5.5 19t-12.5 14.5t-20 6z" />
    <glyph glyph-name="FL0052h" unicode="R" horiz-adv-x="589" 
d="M29 0l6 36q14 3 30.5 13.5t18.5 23.5l101 575q2 13 -10 23t-25 13l6 37h393q22 0 45 -4.5t41.5 -15t29 -27t6.5 -39.5l-31 -173q-2 -9 -8.5 -18t-15.5 -17t-18 -14.5t-15 -9.5l3 -3q4 -2 10.5 -8t11.5 -15.5t8 -21.5t0 -26l-62 -352q-2 -13 7.5 -21.5t23 -13t28.5 -6.5
t24 -2l-6 -38h-139q-20 0 -44 4.5t-44 14t-32.5 25t-8.5 37.5l64 362q-3 19 -29.5 24t-63.5 5l-52 -295q-2 -13 9.5 -23.5t22.5 -13.5l-6 -36h-279zM387 671l-44 -252q9 0 25 1t32.5 4.5t29.5 11t16 21.5l32 183q2 10 -3 16t-14.5 9.5t-22.5 4.5t-27 1h-24z" />
    <glyph glyph-name="FL0053h" unicode="S" horiz-adv-x="640" 
d="M437 671q-29 -5 -39.5 -18t-16.5 -31l-31 -176q-4 -19 1.5 -32.5t23.5 -18.5h129q15 0 37 -1.5t41.5 -8.5t31.5 -22t8 -42l-44 -248q-3 -17 -20.5 -30.5t-40 -23t-45.5 -14.5t-38 -5h-216q-11 0 -33.5 5t-45.5 14.5t-39 23t-13 30.5l28 162q2 13 -10.5 26t-26.5 17l7 39
h115q19 -2 40 -8t38.5 -16.5t27 -26.5t5.5 -37l-23 -130q-3 -18 9.5 -34t30.5 -16h4q25 0 37.5 16t16.5 37l35 197q1 17 -5.5 30t-35.5 18h-114q-15 0 -36 4.5t-40.5 13.5t-32 22.5t-9.5 30.5l40 227q4 27 21.5 42t39.5 22.5t45 9.5t38 2h228q15 0 37.5 -1t42 -8t32 -22
t7.5 -43l-25 -142q-1 -6 2 -13t8.5 -13.5t13 -11t14.5 -5.5l-6 -39h-115q-20 1 -41.5 7t-38.5 17t-27 27t-6 37l18 101q1 9 0 19.5t-5.5 19t-12.5 14.5t-21 6z" />
    <glyph glyph-name="FL0055h" unicode="T" horiz-adv-x="628" 
d="M156 720l-16 -89h42q5 10 18.5 23.5t27.5 13.5h88q5 -6 10 -12.5t3 -12.5l-100 -570q-1 -6 -6.5 -12t-13.5 -11.5t-16 -9t-13 -4.5l-6 -36h283l6 36q-10 3 -22 13.5t-10 23.5l100 570q3 15 19 25h86q14 0 23 -13.5t11 -23.5h41l16 89h-571z" />
    <glyph glyph-name="FL0056h" unicode="U" horiz-adv-x="641" 
d="M731 682q-14 -4 -32 -17t-20 -26l-100 -566q-3 -17 -24 -30.5t-47 -23t-50.5 -14.5t-33.5 -5h-206q-11 0 -33.5 5t-45.5 14.5t-39 23t-13 30.5l100 566q2 13 -11 26t-27 17l7 39h115q19 -2 40.5 -8t38.5 -16.5t27 -26.5t6 -37l-95 -534q-3 -18 9.5 -34t30.5 -16h1
q20 0 37.5 16t20.5 34l95 534q4 21 19.5 37t36 26.5t43.5 16.5t43 8h114z" />
    <glyph glyph-name="FL0057h" unicode="V" horiz-adv-x="641" 
d="M369 633l-35 -556l167 575q9 17 24.5 29t34 20.5t38 13t37.5 6.5h103l-7 -39q-3 0 -10 -3t-15.5 -9t-16 -14t-10.5 -17l-173 -566q-3 -17 -23.5 -30.5t-46.5 -23t-50.5 -14.5t-35.5 -5h-62q-11 0 -33.5 5t-45 14.5t-38.5 23t-13 30.5l29 566q-1 9 -6 17t-11 13.5t-12 9
t-9 3.5l7 39h104q19 -2 40 -8t37.5 -16.5t26 -26.5t5.5 -37z" />
    <glyph glyph-name="FL0058h" unicode="W" horiz-adv-x="936" 
d="M776 632q3 18 18.5 34t36 28t42.5 19.5t38 7.5h122l-7 -39q-7 -2 -16 -6.5t-16.5 -10.5t-13.5 -13t-7 -13l-100 -566q-3 -17 -24 -30.5t-46.5 -23t-50 -14.5t-33.5 -5h-501q-11 0 -33.5 5t-45.5 14.5t-39 23t-13 30.5l100 566q2 13 -11 26t-27 17l7 39h115q19 -2 40.5 -8
t38.5 -16.5t27 -26.5t6 -37l-95 -534q-3 -18 9.5 -34t30.5 -16h1q20 0 37.5 16t20.5 34l91 511q2 13 -11 23t-24 13l6 36h278l-6 -36q-14 -3 -29.5 -13t-17.5 -23l-91 -511q-3 -18 9 -34t31 -16h2q19 0 36.5 16t20.5 34z" />
    <glyph glyph-name="FL0059h" unicode="X" horiz-adv-x="634" 
d="M426 341l-45 -257q-4 -23 8 -39t32.5 -25.5t44 -14t43.5 -4.5h95l7 39q-20 0 -32 9t-7 35l43 247q3 13 0 25t-8 21t-11 15t-10 8l-3 4q12 6 31 23t25 35h1l32 180q1 7 7 13.5t14 12t16.5 9.5t15.5 6l7 39h-114q-20 -1 -43 -7t-43 -17t-35 -27t-19 -37l-35 -199
q-7 -4 -23.5 -6t-26.5 -4q-5 1 -12 2l-14 2t-13 2t-9 3l35 199q4 21 -5.5 37t-26 26.5t-37.5 16.5t-40 8h-115l-7 -39q14 -3 27 -15.5t11 -25.5l-32 -180h2q0 -18 12.5 -35t22.5 -23l-2 -3q-5 -2 -13.5 -8t-16.5 -15.5t-15 -21.5t-10 -26l-43 -246q-5 -26 -21 -34.5
t-35 -8.5l-7 -40h96q19 0 45 4t49.5 14t41.5 26t22 39l45 256q8 11 19.5 15t22.5 6l12 1q12 -4 27 -8t17 -12z" />
    <glyph glyph-name="FL005Ah" unicode="Y" horiz-adv-x="641" 
d="M731 682l7 39h-114q-20 -2 -43 -8t-43.5 -16.5t-36 -26.5t-19.5 -37l-34 -189q-3 -17 -16.5 -30.5t-31.5 -18.5h-19q-33 10 -33 44l35 194q4 21 -6 37t-27 26.5t-38.5 16.5t-40.5 8h-115l-7 -39q14 -4 27 -17t11 -26l-39 -220q-3 -15 11 -28.5t35 -23.5t44.5 -15.5
t40.5 -5.5h106q25 -6 31.5 -18t6.5 -29l-35 -197q-4 -21 -16.5 -37t-38.5 -16h-4q-18 0 -30.5 16t-9.5 34l23 130q4 21 -5.5 37t-27 26.5t-38.5 16.5t-40 8h-115l-7 -39q14 -4 27 -17t11 -26l-28 -162q-3 -17 13 -30.5t38.5 -23t45.5 -14.5t34 -5h216q15 0 38 5t45.5 14.5
t39.5 23t20 30.5l100 566q2 13 20 26t32 17z" />
    <glyph glyph-name="FL005Bh" unicode="Z" horiz-adv-x="643" 
d="M724 636l-473 -533l-9 -54h123q18 11 19 18l28 162q4 21 19.5 37t36.5 26.5t44 16.5t43 8h114l-7 -39q-7 -1 -16 -6t-16.5 -11.5t-13.5 -13.5t-7 -12l-41 -235h-538l14 77l475 539l9 56h-123l-11 -8q-2 -2 -4.5 -5t-3.5 -6l-28 -161q-4 -21 -19.5 -37t-36 -27t-44 -17
t-43.5 -7h-115l7 39q7 1 16 6t17 11t13.5 13t6.5 13l41 235h538z" />
    <glyph glyph-name="FL005Dh" unicode="[" horiz-adv-x="283" 
d="M35 39l99 560q3 19 17 33.5t33.5 24t41 15t40.5 6.5h108l-7 -35q-14 -3 -29.5 -14t-20.5 -22l-100 -568q-4 -24 8 -31.5t29 -7.5l-6 -35h-90q-19 0 -41.5 4t-41.5 13t-31 23t-9 34z" />
    <glyph glyph-name="FL005Ch" unicode="\" horiz-adv-x="601" 
d="M546 65l-295 578h-110l-5 -32q10 -3 19 -12.5t14 -19.5l292 -579h113l6 32q-11 3 -23.5 12.5t-10.5 20.5z" />
    <glyph glyph-name="FL005Eh" unicode="]" horiz-adv-x="283" 
d="M261 39l99 560q3 19 -6 33.5t-24.5 24t-35 15t-37.5 6.5h-109l-7 -35q14 -3 26.5 -14t12.5 -22l-100 -568q-5 -24 -20 -31.5t-32 -7.5l-6 -35h91q18 0 42 4t46.5 13t39.5 23t20 34z" />
    <glyph glyph-name="FL005Fh" unicode="^" horiz-adv-x="571" 
d="M544 0l6 32q-11 3 -24 12.5t-11 20.5l91 514q2 11 18 20t28 12l5 32h-359q-9 0 -35 -1t-54 -7t-51.5 -19t-27.5 -37l-106 -599q-2 -12 -13.5 -19.5t-26.5 -12t-29.5 -6t-23.5 -1.5l-7 -35h132q19 0 43.5 4t47 13t39.5 23t20 34l62 350h108l-47 -265q-1 -5 -6 -10.5
t-11.5 -10t-14 -8t-13.5 -4.5l-6 -32h266zM370 598h53l-39 -222h-102l30 170q3 17 18.5 34.5t39.5 17.5z" />
    <glyph glyph-name="FL0060h" unicode="_" horiz-adv-x="413" 
d="M28 0l8 44h356l-8 -44h-356z" />
    <glyph glyph-name="FL0067h" unicode="`" horiz-adv-x="240" 
d="M322 628h-117l-50 92h127z" />
    <glyph glyph-name="FL0061h" unicode="a" horiz-adv-x="584" 
d="M35 0l6 32q11 3 26 12.5t17 20.5l91 514q2 11 -10 20t-22 12l5 32h359q9 0 34.5 -1t51.5 -7t44.5 -19t14.5 -37l-106 -599q-2 -12 7 -19.5t22.5 -12t27.5 -6t23 -1.5l-7 -35h-132q-19 0 -41.5 4t-41.5 13t-31 23t-9 34l62 350h-108l-47 -265q-1 -5 2.5 -10.5t9 -10
t11.5 -8t11 -4.5l-6 -32h-264zM418 598h-53l-39 -222h102l30 170q3 17 -7 34.5t-33 17.5z" />
    <glyph glyph-name="FL0062h" unicode="b" horiz-adv-x="580" 
d="M28 0l6 32q11 3 26.5 12.5t17.5 20.5l91 514q2 11 -10.5 20t-22.5 12l5 32h375q21 0 43.5 -4t40.5 -13t28 -23.5t6 -35.5l-27 -155q-4 -16 -22.5 -31t-31.5 -21l2 -4q4 -2 10.5 -7.5t11.5 -13t8 -18t1 -23.5l-41 -229q-3 -15 -19.5 -27.5t-37.5 -20.5t-43 -12.5t-36 -4.5
h-381zM368 103l35 200q-4 16 -29 20.5t-60 4.5l-47 -263q-2 -14 11 -21h48q21 0 29 16.5t13 42.5zM362 599l-40 -225q8 0 24 0.5t32 4t28.5 10.5t14.5 20l29 162q2 18 -18.5 23t-47.5 5h-22z" />
    <glyph glyph-name="FL0063h" unicode="c" horiz-adv-x="566" 
d="M368 599q-28 -5 -39 -16.5t-16 -27.5l-82 -464q-3 -19 4.5 -33t30.5 -14h4q17 0 34 14t20 30l20 116q3 19 17.5 33.5t34.5 24t42 15t40 6.5h110l-6 -35q-14 -4 -31.5 -15t-19.5 -23l-26 -145q-3 -15 -22.5 -27.5t-44 -20.5t-47.5 -12.5t-32 -4.5h-207q-15 0 -35.5 4.5
t-38.5 12.5t-30 20.5t-9 27.5l91 511q4 24 20 37.5t37 20t42 8t36 1.5h218q14 0 35 -1t39.5 -7t30.5 -19.5t8 -37.5l-26 -145q-1 -6 2.5 -12t9 -12t12.5 -10t13 -5l-6 -34h-110q-18 1 -38 6.5t-36 15t-25.5 23.5t-6.5 33l19 108q3 17 -5 35t-31 18z" />
    <glyph glyph-name="FL0064h" unicode="d" horiz-adv-x="562" 
d="M141 643h372q14 0 36.5 -1.5t43 -8.5t33.5 -21.5t9 -39.5l-90 -507q-3 -15 -19.5 -27.5t-38.5 -20.5t-45 -12.5t-39 -4.5h-375l6 32q11 3 26.5 12.5t17.5 20.5l91 514q2 11 -10.5 20t-22.5 12zM406 599q-23 0 -35.5 -5t-15.5 -22l-88 -501q-2 -10 7 -18.5t32 -8.5
q24 0 39 16.5t20 42.5l78 443q3 17 -6.5 35t-30.5 18z" />
    <glyph glyph-name="FL0065h" unicode="e" horiz-adv-x="612" 
d="M457 583q2 9 -12 17.5t-32 10.5q-14 -2 -32 -11.5t-20 -20.5l-41 -231q22 0 37 7.5t20 38.5h47l-24 -136h-47l2 6q5 27 -7 33.5t-35 6.5l-43 -239q-2 -11 12.5 -20t32.5 -14q15 2 31 8.5t19 20.5l25 144q3 19 17.5 33.5t35 24t42.5 15t40 6.5h109l-6 -35q-14 -4 -31 -15
t-19 -23l-37 -210h-513l6 32q11 3 26.5 12.5t17.5 20.5l91 514q2 11 -10.5 20t-22.5 12l5 32h513l-36 -209q-2 -11 10 -24t26 -15l-6 -34h-109q-18 1 -38.5 6.5t-37 15t-26 23.5t-6.5 33z" />
    <glyph glyph-name="FL0066h" unicode="f" horiz-adv-x="612" 
d="M28 0l6 32q14 5 28 13.5t16 19.5l91 514q2 11 -10.5 20t-22.5 12l5 32h513l-36 -209q-2 -11 10 -24t26 -15l-6 -34h-109q-18 1 -38.5 6.5t-37 15t-26 23.5t-6.5 33l26 144q2 9 -12 17.5t-32 10.5q-6 -2 -14.5 -5t-16.5 -7t-14 -9t-7 -11l-43 -243q11 0 20 1.5t16.5 6
t12.5 13.5t8 25h47l-24 -136h-47l1 5q5 27 -7 34t-35 7l-40 -230q2 -10 12.5 -18.5t21.5 -11.5l-6 -32h-270z" />
    <glyph glyph-name="FL00A7h" unicode="g" horiz-adv-x="566" 
d="M505 65q-3 -15 -22.5 -27.5t-44 -20.5t-47.5 -12.5t-32 -4.5h-207q-15 0 -35.5 4.5t-38.5 12.5t-30 20.5t-9 27.5l91 511q4 24 20 37.5t37 20t42 8t36 1.5h218q14 0 35 -1t39.5 -7t30.5 -19.5t8 -37.5l-13 -72q-1 -6 2.5 -12t9 -12t12.5 -10t13 -5l-6 -34h-110
q-18 1 -38 6.5t-36 15t-25.5 23.5t-6.5 33l6 35q3 17 -5 35t-31 18q-28 -5 -39 -16.5t-16 -27.5l-82 -464q-3 -19 4.5 -33t30.5 -14h4q17 0 33.5 14t22.5 30l35 203q2 11 -10 20t-23 12l6 32h263l-6 -32q-11 -3 -27.5 -12t-18.5 -20z" />
    <glyph glyph-name="h" unicode="h" horiz-adv-x="613" 
d="M35 0l6 32q11 3 26 12.5t17 20.5l91 514q2 11 -10 20t-22 12l5 32h186q10 0 16 -7t9 -17t3.5 -21t-0.5 -19l-36 -203h94l37 209q1 7 -11.5 15t-21.5 11l5 32h262l-5 -32q-5 -2 -12 -5t-14 -7t-12 -9t-6 -11l-106 -599q-2 -10 6 -17t20.5 -11.5t27 -7t26.5 -3.5l-7 -35
h-132q-19 0 -41.5 4t-41.5 13t-30.5 23t-8.5 34l62 350h-99l-47 -265q-1 -5 2.5 -10.5t9 -10t11.5 -8t11 -4.5l-6 -32h-264z" />
    <glyph glyph-name="i" unicode="i" horiz-adv-x="326" 
d="M28 0l6 32q11 3 26.5 12.5t17.5 20.5l91 514q2 11 -10.5 20t-22.5 12l5 32h270l-5 -32q-11 -3 -27 -12t-18 -20l-91 -514q-1 -5 2.5 -10.5t8.5 -10t11.5 -8t11.5 -4.5l-6 -32h-270z" />
    <glyph glyph-name="FL006Ah" unicode="j" horiz-adv-x="606" 
d="M368 88l88 497q1 7 -11.5 15t-22.5 11l5 32h264l-5 -32l-12.5 -5t-14 -7t-12 -9t-6.5 -11l-91 -514q-3 -15 -22.5 -27.5t-44 -20.5t-47.5 -12.5t-33 -4.5h-195q-10 0 -32 4.5t-44 12.5t-37.5 20.5t-12.5 27.5l26 145q2 11 -10.5 23t-25.5 15l6 35h109q18 -1 38 -6.5
t36.5 -15t26 -24t6.5 -33.5l-20 -116q-3 -16 9.5 -30t29.5 -14h1q17 0 34 14t20 30z" />
    <glyph glyph-name="FL006Bh" unicode="k" horiz-adv-x="604" 
d="M406 611q-18 -5 -30.5 -12t-17.5 -20l-36 -205h18q17 0 38.5 2.5t38.5 10.5l32 178q3 19 17.5 33.5t34 24.5t41 15t38.5 5h109l-6 -34q-14 -4 -30.5 -14t-18.5 -23l-29 -161h-1q-2 -8 -8.5 -15.5t-15 -14.5t-16.5 -12.5t-13 -8.5l2 -4q4 -1 10 -6.5t10.5 -13.5t7.5 -19
t1 -23l-56 -314q-2 -12 7 -19.5t22.5 -12t28 -6t23.5 -1.5l-7 -35h-132q-19 0 -41.5 4t-41.5 13t-31 23t-9 34l57 323q-3 16 -28 20.5t-60 4.5l-47 -263q-1 -5 2 -10.5t8.5 -10t11.5 -8t11 -4.5l-6 -32h-266l6 32q11 3 26.5 12.5t17.5 20.5l91 514q-1 8 -9 17.5t-24 14.5
l5 32h270z" />
    <glyph glyph-name="FL006Ch" unicode="l" horiz-adv-x="612" 
d="M169 580q-4 11 -10.5 19.5t-22.5 11.5l5 32h270l-5 -32q-11 -3 -26.5 -11.5t-17.5 -19.5l-90 -513q-2 -11 11.5 -21t31.5 -15q14 2 22 3.5t19 9.5q8 8 9 16l25 144q3 19 17.5 33.5t35 24t42.5 15t40 6.5h109l-6 -35q-14 -4 -31 -15t-19 -23l-37 -210h-513l6 32
q11 3 26.5 12.5t17.5 20.5z" />
    <glyph glyph-name="FL006Dh" unicode="m" horiz-adv-x="806" 
d="M644 579l-186 -267l-91 267q-4 17 -12.5 29.5t-18 20t-18.5 11t-15 3.5h-162l-5 -32q10 -3 22.5 -12t10.5 -20l-91 -514q-2 -11 -17.5 -20.5t-26.5 -12.5l-6 -32h265l6 32q-11 3 -23.5 12.5t-10.5 20.5l55 311l99 -284l200 283l-55 -310q-2 -11 -17.5 -20.5t-26.5 -12.5
l-6 -32h265l6 32q-11 3 -23.5 12.5t-10.5 20.5l91 514q2 11 17.5 20t27.5 12l5 32h-162q-6 0 -17.5 -6t-25 -15.5t-25.5 -21t-18 -21.5z" />
    <glyph glyph-name="FL006Eh" unicode="n" 
d="M647 578h-1v1q1 6 6 11t12 9t14 7t12 5l5 32h-263l-5 -32q3 -2 9.5 -5t12 -6.5t9.5 -7.5t3 -7l-44 -251l-119 245q-2 10 -9 21.5t-15.5 21t-17 15.5t-13.5 6h-102l-5 -32q10 -3 22.5 -12t10.5 -20l-91 -514q-2 -11 -17.5 -20.5t-26.5 -12.5l-6 -32h265l6 32
q-11 3 -23.5 12.5t-10.5 20.5l40 227l125 -230q0 -9 5 -20t13.5 -20t18.5 -15.5t20 -6.5h58z" />
    <glyph glyph-name="o" unicode="o" horiz-adv-x="523" 
d="M265 643q-14 0 -35.5 -1.5t-42.5 -8.5t-37.5 -20.5t-20.5 -37.5l-90 -510q-3 -15 9 -27.5t30 -20.5t38.5 -12.5t35.5 -4.5h219q15 0 36.5 4.5t42 12.5t36.5 20.5t19 27.5l90 507q4 25 -7.5 39.5t-30 21.5t-39.5 8.5t-35 1.5h-218zM368 599q23 0 31 -18t5 -35l-78 -443
q-5 -26 -16.5 -42.5t-43.5 -16.5q-23 0 -30.5 14t-4.5 33l80 455q1 9 6 18t12.5 17t17.5 13t21 5z" />
    <glyph glyph-name="FL0070h" unicode="p" horiz-adv-x="562" 
d="M28 0l6 32q11 3 26.5 12.5t17.5 20.5l91 514q2 11 -10.5 20t-22.5 12l5 32h361q9 0 33 -1t47.5 -7.5t40.5 -20t13 -37.5l-33 -188q-4 -23 -21 -36t-40 -20.5t-49.5 -9.5t-49.5 -2h-132l-46 -256q-2 -11 10.5 -20.5t23.5 -12.5l-6 -32h-265zM403 598h-44l-40 -231h44
q10 2 28.5 15t29.5 36l22 128q3 17 -6.5 34.5t-33.5 17.5z" />
    <glyph glyph-name="FL0071h" unicode="q" horiz-adv-x="523" 
d="M152 0q-15 0 -35.5 4.5t-38.5 12.5t-30 20.5t-9 27.5l91 511q4 24 20 37.5t37 20t42 8t36 1.5h218q14 0 35 -1.5t39.5 -8.5t30 -21.5t7.5 -39.5l-90 -507q-4 -24 -33.5 -38.5t-63.5 -22.5l-5 -24q-2 -12 7.5 -19.5t23.5 -12t28 -6t21 -1.5l-7 -35h-131q-20 0 -42.5 4
t-41 13t-30 23t-8.5 34l4 20h-75zM368 599q-11 0 -21 -5t-17.5 -13t-12.5 -17t-6 -18l-80 -455q-3 -19 4.5 -33t30.5 -14q32 0 43.5 16.5t16.5 42.5l78 443q3 17 -5 35t-31 18z" />
    <glyph glyph-name="FL0073h" unicode="r" horiz-adv-x="560" 
d="M28 0l6 32q11 3 26.5 12.5t17.5 20.5l91 514q2 11 -10.5 20t-22.5 12l5 32h374q21 0 43.5 -4t40.5 -13t28 -23.5t6 -35.5l-27 -155q-4 -17 -22.5 -31t-32.5 -21l3 -4q4 -1 10 -6.5t11 -13.5t8 -19t1 -23l-56 -314q-2 -12 7 -19.5t22.5 -12t27.5 -6t23 -1.5l-7 -35h-132
q-19 0 -41.5 4t-41.5 13t-31 23t-9 34l57 323q-4 16 -29 20.5t-60 4.5l-47 -263q-1 -5 2 -10.5t8.5 -10t11.5 -8t11 -4.5l-6 -32h-266zM362 599l-40 -225q8 0 23.5 0.5t31.5 4t28.5 10.5t14.5 20l29 162q2 18 -18 23t-47 5h-22z" />
    <glyph glyph-name="FL0074h" unicode="s" horiz-adv-x="610" 
d="M411 599q-28 -5 -38.5 -16.5t-16.5 -27.5l-28 -156q-3 -17 2.5 -30t21.5 -16h124q14 0 35 -1t40 -7.5t30.5 -20t7.5 -37.5l-40 -222q-3 -15 -19 -27.5t-37 -20.5t-43 -12.5t-36 -4.5h-206q-10 0 -32 4.5t-44 12.5t-37.5 20.5t-12.5 27.5l26 145q2 11 -10.5 23t-25.5 15
l6 35h109q18 -1 38 -6.5t36.5 -15t26 -24t6.5 -33.5l-20 -116q-3 -16 9.5 -30t29.5 -14h3q23 0 36 14t16 33l31 175q0 16 -7 27.5t-32 16.5h-109q-15 0 -35.5 4t-39 12t-30.5 20t-9 27l36 203q4 24 20 37.5t37 20t42.5 8t36.5 1.5h217q14 0 35 -1t40 -7t31 -19.5t8 -37.5
l-22 -127q-2 -11 10 -24t26 -15l-6 -34h-109q-18 1 -38 6.5t-36.5 15t-26 23.5t-6.5 33l16 90q3 17 -5.5 35t-31.5 18z" />
    <glyph glyph-name="FL0075h" unicode="t" horiz-adv-x="599" 
d="M141 643l-14 -80h39q5 9 18 21t27 12h82q6 -5 10 -11t3 -11l-90 -509q-2 -11 -17.5 -20.5t-26.5 -12.5l-6 -32h270l6 32q-11 3 -23.5 12.5t-10.5 20.5l90 509q2 11 19 22h81q14 0 23 -12t11 -21h38l14 80h-543z" />
    <glyph glyph-name="u" unicode="u" 
d="M689 609q-14 -3 -30.5 -15t-18.5 -23l-90 -506q-3 -15 -22.5 -27.5t-44 -20.5t-47.5 -12.5t-33 -4.5h-195q-10 0 -32 4.5t-44 12.5t-37.5 20.5t-12.5 27.5l90 506q2 12 -10.5 23t-26.5 15l6 34h109q18 0 38.5 -5t37 -15t26 -24.5t6.5 -33.5l-84 -477q-3 -16 9.5 -30
t29.5 -14h1q17 0 34 14t20 30l84 477q3 19 18.5 33t35.5 23.5t42 14.5t38 7h109z" />
    <glyph glyph-name="FL0076h" unicode="v" 
d="M345 565l-27 -497l153 514q8 15 22.5 26t32 18.5t36 11.5t35.5 5h98l-6 -34q-2 0 -9 -3t-15 -8t-15.5 -12t-9.5 -15l-159 -506q-3 -15 -22.5 -27.5t-44 -20.5t-47.5 -12.5t-33 -4.5h-59q-10 0 -32 4.5t-44 12.5t-37.5 20.5t-12.5 27.5l23 506q-4 14 -17 26t-20 12l6 34
h98q18 0 38 -5t36 -15t25.5 -24.5t6.5 -33.5z" />
    <glyph glyph-name="FL0077h" unicode="w" horiz-adv-x="892" 
d="M731 564q3 16 17.5 30.5t34 25t40 17t36.5 6.5h117l-6 -34q-14 -3 -30.5 -15t-18.5 -23l-90 -506q-3 -15 -22.5 -27.5t-44 -20.5t-47.5 -12.5t-33 -4.5h-476q-10 0 -32 4.5t-44 12.5t-37.5 20.5t-12.5 27.5l90 506q2 12 -10.5 23t-26.5 15l6 34h109q18 -1 38.5 -6
t37 -14.5t26 -24t6.5 -33.5l-84 -477q-3 -16 9.5 -30t29.5 -14h1q17 0 34 14t20 30l80 456q2 11 -10 20.5t-23 12.5l5 32h265l-5 -32q-11 -3 -27 -12.5t-18 -20.5l-80 -456q-3 -16 9.5 -30t29.5 -14h1q17 0 33.5 14t19.5 30z" />
    <glyph glyph-name="FL0078h" unicode="x" horiz-adv-x="604" 
d="M403 304l-41 -229q-3 -20 9 -34t31 -23t41.5 -13t41.5 -4h90l6 35q-17 0 -29.5 7.5t-8.5 31.5l39 220q2 12 -0.5 23t-7.5 19t-11 13.5t-10 6.5l-1 4q5 3 13 8.5t16 12.5t14.5 14.5t9.5 15.5h1l28 161q2 12 19 23t31 14l6 34h-109q-18 0 -40 -5t-41.5 -15t-33.5 -24.5
t-17 -33.5l-32 -178q-6 -4 -23 -5.5t-25 -3.5q-8 2 -24.5 3t-22.5 5l32 178q3 19 -5.5 33.5t-23.5 24.5t-35 15t-40 5h-109l-6 -34q14 -3 26.5 -14t10.5 -23l-29 -161h1q0 -8 4 -15.5t9.5 -14.5t11.5 -12.5t10 -8.5l-2 -4q-5 -1 -13 -6.5t-16 -13.5t-14.5 -19t-8.5 -23
l-39 -220q-5 -24 -20 -31.5t-32 -7.5l-6 -35h91q18 0 42 4t46.5 13t39.5 23t20 34l40 229q10 11 23 14t26 5l7 -1q10 -2 23.5 -6t16.5 -11z" />
    <glyph glyph-name="FL0079h" unicode="y" 
d="M689 609l6 34h-109q-18 -1 -40 -6t-42 -14.5t-34.5 -24t-17.5 -33.5l-30 -169q-3 -14 -16 -27t-30 -16h-18q-14 3 -22 14t-9 25l31 173q3 19 -6.5 33.5t-26 24t-37 14.5t-38.5 6h-109l-6 -34q14 -4 26.5 -15t10.5 -23l-35 -197q-2 -14 11 -25.5t33 -20t42.5 -13.5
t39.5 -5h100q23 -6 29.5 -17t6.5 -27l-31 -175q-3 -19 -15 -33t-37 -14h-2q-17 0 -29.5 14t-9.5 30l20 116q3 19 -6.5 33.5t-26 24t-36.5 15t-38 6.5h-109l-6 -35q13 -3 25.5 -15t10.5 -23l-26 -145q-3 -15 12.5 -27.5t37.5 -20.5t44 -12.5t32 -4.5h206q15 0 36.5 4.5
t42.5 12.5t37 20.5t19 27.5l90 506q2 11 18.5 23t30.5 15z" />
    <glyph glyph-name="FL007Ah" unicode="z" horiz-adv-x="612" 
d="M683 568l-445 -475l-8 -50h118q15 9 17 17l25 144q3 19 17.5 33.5t35 24t42.5 15t40 6.5h109l-6 -35q-7 -1 -15.5 -5.5t-16 -10t-12.5 -12t-6 -10.5l-37 -210h-512l12 69l447 482l9 49h-117l-12 -8l-4.5 -3t-2.5 -6l-26 -144q-3 -19 -17.5 -33t-34 -23.5t-42 -15
t-40.5 -6.5h-109l6 34q7 1 15 5.5t15.5 10t13 12t6.5 11.5l36 209h512z" />
    <glyph glyph-name="FL007Bh" unicode="{" horiz-adv-x="331" 
d="M85 322l9 53q4 1 11 2t14.5 2.5t14.5 3.5t10 4l38 212q3 19 17 33.5t33.5 24t41 15t39.5 6.5h109l-7 -35q-7 -2 -15 -5.5t-15 -8.5t-12.5 -10.5t-6.5 -11.5l-35 -198h-1q-5 -15 -21 -29.5t-28 -19.5l3 -4q9 -2 19 -19t6 -41l-45 -257q-4 -24 8.5 -31.5t29.5 -7.5l-6 -35
h-91q-19 0 -41.5 4t-41.5 13t-30.5 23t-8.5 34l46 264q-5 11 -18 14t-26 5z" />
    <glyph glyph-name="FL007Ch" unicode="|" horiz-adv-x="248" 
d="M212 -53h-193l130 741h193z" />
    <glyph glyph-name="FL007Dh" unicode="}" horiz-adv-x="331" 
d="M359 322l9 53q-7 2 -23 5.5t-23 6.5l38 212q3 19 -6 33.5t-24.5 24t-35 15t-37.5 6.5h-109l-7 -35q14 -3 26.5 -14t10.5 -22l-35 -198h1q1 -15 12.5 -29.5t19.5 -19.5l-3 -4q-11 -2 -27 -19t-21 -41l-45 -257q-5 -24 -20 -31.5t-32 -7.5l-6 -35h91q18 0 42 4t46.5 13
t39.5 23t20 34l46 264q10 11 25 14t27 5z" />
    <glyph glyph-name="FL007Eh" unicode="~" horiz-adv-x="358" 
d="M277 377h119l-74 -92h-84l-14 40l-28 -40h-118l73 92h84l15 -40z" />
    <glyph glyph-name="FL007Fh" horiz-adv-x="295" 
 />
    <glyph glyph-name="FL20ACh" horiz-adv-x="660" 
d="M89 348l16 90h46q-5 -30 6 -38t34 -8l33 184q4 24 20.5 37.5t37.5 20t42 8t35 1.5h217q15 0 36 -1t40 -7t31 -19.5t8 -37.5l-26 -145q-1 -5 2 -11.5t8.5 -12t12.5 -10t13 -5.5l-6 -34h-109q-18 1 -38 6.5t-36.5 15t-26 23.5t-6.5 33l19 108q3 17 -5.5 35t-31.5 18
q-28 -5 -38.5 -16.5t-16.5 -27.5l-82 -464q-3 -19 5 -33t31 -14h3q17 0 34.5 14t20.5 30l20 116q3 19 17.5 33.5t34.5 24t42 15t41 6.5h109l-6 -35q-14 -4 -31 -15t-19 -23l-26 -145q-3 -15 -22.5 -27.5t-44 -20.5t-48 -12.5t-33.5 -4.5h-206q-14 0 -34.5 4.5t-39 12.5
t-30.5 20.5t-9 27.5l35 195q-23 -1 -37 -8t-19 -38h-46l16 90h94l7 44h-94z" />
    <glyph glyph-name="FL20ACh" unicode="&#x20ac;" horiz-adv-x="660" 
d="M89 348l16 90h46q-5 -30 6 -38t34 -8l33 184q4 24 20.5 37.5t37.5 20t42 8t35 1.5h217q15 0 36 -1t40 -7t31 -19.5t8 -37.5l-26 -145q-1 -5 2 -11.5t8.5 -12t12.5 -10t13 -5.5l-6 -34h-109q-18 1 -38 6.5t-36.5 15t-26 23.5t-6.5 33l19 108q3 17 -5.5 35t-31.5 18
q-28 -5 -38.5 -16.5t-16.5 -27.5l-82 -464q-3 -19 5 -33t31 -14h3q17 0 34.5 14t20.5 30l20 116q3 19 17.5 33.5t34.5 24t42 15t41 6.5h109l-6 -35q-14 -4 -31 -15t-19 -23l-26 -145q-3 -15 -22.5 -27.5t-44 -20.5t-48 -12.5t-33.5 -4.5h-206q-14 0 -34.5 4.5t-39 12.5
t-30.5 20.5t-9 27.5l35 195q-23 -1 -37 -8t-19 -38h-46l16 90h94l7 44h-94z" />
    <glyph glyph-name="FL017Dh" horiz-adv-x="612" 
d="M461 766h118l-74 -92h-162l-40 92h116l15 -40zM683 568l-445 -475l-8 -50h118q15 9 17 17l25 144q3 19 17.5 33.5t35 24t42.5 15t40 6.5h109l-6 -35q-7 -1 -15.5 -5.5t-16 -10t-12.5 -12t-6 -10.5l-37 -210h-512l12 69l447 482l9 49h-117l-12 -8l-4.5 -3t-2.5 -6
l-26 -144q-3 -19 -17.5 -33t-34 -23.5t-42 -15t-40.5 -6.5h-109l6 34q7 1 15 5.5t15.5 10t13 12t6.5 11.5l36 209h512z" />
    <glyph glyph-name="FL017Dh" unicode="&#x17d;" horiz-adv-x="612" 
d="M461 766h118l-74 -92h-162l-40 92h116l15 -40zM683 568l-445 -475l-8 -50h118q15 9 17 17l25 144q3 19 17.5 33.5t35 24t42.5 15t40 6.5h109l-6 -35q-7 -1 -15.5 -5.5t-16 -10t-12.5 -12t-6 -10.5l-37 -210h-512l12 69l447 482l9 49h-117l-12 -8l-4.5 -3t-2.5 -6
l-26 -144q-3 -19 -17.5 -33t-34 -23.5t-42 -15t-40.5 -6.5h-109l6 34q7 1 15 5.5t15.5 10t13 12t6.5 11.5l36 209h512z" />
    <glyph glyph-name="FL017Eh" horiz-adv-x="612" 
d="M461 766h118l-74 -92h-162l-40 92h116l15 -40zM683 568l-445 -475l-8 -50h118q15 9 17 17l25 144q3 19 17.5 33.5t35 24t42.5 15t40 6.5h109l-6 -35q-7 -1 -15.5 -5.5t-16 -10t-12.5 -12t-6 -10.5l-37 -210h-512l12 69l447 482l9 49h-117l-10 -7q-5 -2 -6.5 -3.5
t-2.5 -6.5l-26 -144q-3 -19 -17.5 -33t-34 -23.5t-42 -15t-40.5 -6.5h-109l6 34q7 1 15 5.5t15.5 10t13 12t6.5 11.5l36 209h512z" />
    <glyph glyph-name="FL017Eh" unicode="&#x17e;" horiz-adv-x="612" 
d="M461 766h118l-74 -92h-162l-40 92h116l15 -40zM683 568l-445 -475l-8 -50h118q15 9 17 17l25 144q3 19 17.5 33.5t35 24t42.5 15t40 6.5h109l-6 -35q-7 -1 -15.5 -5.5t-16 -10t-12.5 -12t-6 -10.5l-37 -210h-512l12 69l447 482l9 49h-117l-10 -7q-5 -2 -6.5 -3.5
t-2.5 -6.5l-26 -144q-3 -19 -17.5 -33t-34 -23.5t-42 -15t-40.5 -6.5h-109l6 34q7 1 15 5.5t15.5 10t13 12t6.5 11.5l36 209h512z" />
    <glyph glyph-name="space" unicode="&#xa0;" horiz-adv-x="448" 
 />
    <glyph glyph-name="FL00A1h" unicode="&#xa1;" horiz-adv-x="326" 
d="M146 446h192l-68 -381q-1 -5 2.5 -10.5t8.5 -10t11.5 -8t11.5 -4.5l-6 -32h-270l6 32q11 3 26.5 12.5t17.5 20.5zM359 572q-3 -15 -12.5 -27.5t-24 -22.5t-32.5 -15.5t-38 -5.5q-19 0 -35.5 5.5t-28.5 15.5t-17.5 22.5t-2.5 27.5q6 30 38 50.5t71 20.5q40 0 63.5 -20.5
t18.5 -50.5z" />
    <glyph glyph-name="FL00A2h" unicode="&#xa2;" horiz-adv-x="566" 
d="M360 0h-192l17 99h-16q-14 0 -34.5 4.5t-38.5 12.5t-30 20.5t-9 27.5l59 335q4 24 20.5 37.5t37 20t42 8t36.5 1.5h16l13 77h192l-13 -77h10q14 0 35 -1t39.5 -7t30 -19.5t7.5 -38.5l-13 -75q-2 -11 11 -24t26 -15l-6 -34h-110q-18 1 -38 6.5t-36 15t-25.5 23.5t-6.5 33
l7 39q1 7 -0.5 16.5t-6 17.5t-12 13.5t-18.5 5.5q-27 -5 -38.5 -16.5t-16.5 -27.5l-50 -288q-4 -19 3.5 -33t30.5 -14h4q17 0 34 14t20 30l3 17q3 19 17.5 33.5t34.5 24t42 15t40 6.5h110l-6 -35q-14 -4 -31.5 -15t-19.5 -23l-8 -46q-3 -15 -22.5 -27.5t-44 -20.5
t-47.5 -12.5t-32 -4.5z" />
    <glyph glyph-name="FL00A3h" unicode="&#xa3;" horiz-adv-x="698" 
d="M187 352q-25 0 -39 -7t-19 -34l-1 -5h-46l24 136h46q-3 -16 -0.5 -25t8.5 -13.5t15 -6t20 -1.5h1l44 252q2 13 -9.5 23t-24.5 13l6 37h331l-6 -36q-9 -2 -24.5 -4.5t-30.5 -7t-26.5 -10.5t-12.5 -15l-45 -258q23 0 38.5 8.5t21.5 43.5h48l-27 -153h-48l1 6q5 31 -7 38.5
t-36 7.5l-47 -268q-2 -13 12 -23.5t34 -15.5q16 2 32 10t19 23l28 162q4 21 19.5 37t36.5 26.5t44.5 16.5t44.5 8h114l-7 -39q-7 -2 -16 -6.5t-17 -10.5t-14 -13t-7 -13l-41 -235h-596l6 36q6 1 22.5 4.5t34.5 9t32.5 11.5t15.5 12l49 279h-1z" />
    <glyph glyph-name="FL00A4h" unicode="&#xa4;" horiz-adv-x="604" 
d="M362 75l14 80h-95l-14 -81q-3 -20 -20 -34t-39.5 -23t-46.5 -13t-42 -4h-91l6 35q17 0 32 7.5t20 31.5l39 222q5 24 21 41t27 19l3 4q-8 5 -19.5 19.5t-12.5 29.5h-1l29 163q2 12 -10.5 23t-26.5 14l6 34h109q18 -1 38 -6t35.5 -14.5t24.5 -24t6 -33.5l-5 -24h95l5 25
q3 19 17 33t33.5 23.5t41 15t40.5 6.5h109l-6 -34q-14 -3 -31 -14t-19 -23l-29 -163h-1q-6 -17 -21.5 -29.5t-26.5 -19.5v-4q9 -2 19.5 -19t6.5 -41l-39 -222q-4 -24 8.5 -31.5t29.5 -7.5l-6 -35h-90q-19 0 -41.5 4t-41.5 13t-31 23t-9 34zM388 479q-11 0 -16.5 -9t-7.5 -17
l-38 -215q-2 -8 1 -15t13 -7q21 0 25 28l37 209q2 8 -2.5 17t-11.5 9z" />
    <glyph glyph-name="mu" unicode="&#xa5;" horiz-adv-x="1206" 
d="M1234 322l-2 -1l-20 -25h-67l35 -45l3 -8l-1 -5q-3 -18 -27 -25l-73 14l-22 -70q-9 -13 -32 -13q-19 0 -32.5 4.5t-32.5 15.5l-10 2l-84 -63l-38 -6l-42 34l-154 -57l-23 7l6 33l-195 -22l-21 11l15 28l-194 14l3 21l27 19l-121 18q-24 0 -19 24l53 29l-79 30l-4 28
l87 11l-35 43l9 34l88 -7q14 83 51 83h4l80 -22q35 31 58 46t46 23l64 -34l147 53l23 -19l-5 -17v-7l159 24l53 -5l-12 -35h178l14 -13q-4 -31 -35 -32l148 -32l-1 -8q-5 -26 -63 -32q96 -30 93 -46zM1207 314l-4 11l-113 48l78 18h10l-8 11l-170 30l67 35h-204l23 41
l-202 -23v35l-15 5l-148 -53l-53 36l-92 -68q-8 -4 -22 -4q-30 0 -70 25l-29 -83l-95 7l-1 -25l44 -52l-98 -5l120 -52l-90 -30l179 -32l-66 -32l208 -7l-29 -39l195 26l20 -23l-14 -22l164 58l63 -36l90 71l92 -24l22 83l99 -13q2 5 3 6l1 1q3 16 -53 70zM1067 356l-28 -76
l-22 2l19 79zM1036 247l-23 -16l-14 13l18 11zM980 254q-33 0 -70 51l-9 -50l-24 -2l18 103l63 -68l18 73l22 -5zM854 255l-17 2q-10 25 -29 25q-15 0 -37 -25h-29q20 53 73 103q4 4 21 4q22 0 31 -34zM748 361l-26 -102l-34 -6l33 103zM662 249q-31 0 -73 51l-9 -49l-22 -4
l18 105l66 -66l19 70l19 -4zM555 322q-24 -73 -63 -73q-8 -1 -12.5 -1.5t-10.5 -0.5q-36 0 -44 17q5 33 22 56t43 36h17q45 0 48 -34zM431 359l-6 -25q-4 2 -5.5 2.5l-1.5 0.5h-7q-14 0 -38 -15q-24 -17 -28 -42q-3 -21 25 -21q20 0 26 3l-1 -17q-14 -2 -18.5 -4t-10.5 -2
q-38 0 -44 47q0 1 -0.5 2.5t-0.5 3.5l2 8q9 48 108 59zM319 356l-27 -100l-28 -9l31 107zM838 305l-11 34l-31 -34h42zM524 307l2 12q-9 13 -23 13t-23.5 -8t-20.5 -24l-2 -8q-4 -25 17 -25q16 0 37 9q8 9 9.5 14.5t3.5 16.5z" />
    <glyph glyph-name="FL00D3h" unicode="&#xa6;" horiz-adv-x="248" 
d="M221 0h-193l113 643h193z" />
    <glyph glyph-name="FL00AAh" unicode="&#xa7;" horiz-adv-x="604" 
d="M550 341q-7 -42 -25.5 -76t-43.5 -58.5t-52.5 -38t-52.5 -13.5h-95l-14 -81q-3 -20 -20 -34t-39.5 -23t-46.5 -13t-42 -4h-91l6 35q17 0 32 7.5t20 31.5l39 222q5 24 21 41t27 19l3 4q9 50 22 84.5t33 56t48.5 31t69.5 9.5h95l5 25q3 19 17 33t33.5 23.5t41 15t40.5 6.5
h109l-6 -34q-14 -3 -31 -14t-19 -23l-29 -163h-1q-6 -17 -21.5 -29.5t-26.5 -19.5zM388 479q-11 0 -16.5 -9t-7.5 -17l-38 -215q-2 -8 1 -15t13 -7q21 0 25 28l37 209q2 8 -2.5 17t-11.5 9z" />
    <glyph glyph-name="FL00A8h" unicode="&#xa8;" horiz-adv-x="337" 
d="M147 674q3 19 22.5 32.5t45.5 13.5q25 0 39 -13.5t11 -32.5q-4 -20 -22.5 -33.5t-43.5 -13.5q-26 0 -41 13.5t-11 33.5zM427 674q-4 -20 -22.5 -33.5t-43.5 -13.5q-26 0 -41 13.5t-11 33.5q3 19 22.5 32.5t45.5 13.5q25 0 39 -13.5t11 -32.5z" />
    <glyph glyph-name="FL00A9h" unicode="&#xa9;" horiz-adv-x="252" 
d="M247 688q26 0 45 -10q25 -13 31 -32q10 -19 7 -39q-4 -18 -21 -41q-8 -10 -16.5 -15.5t-19.5 -11.5l-5 -3q-23 -8 -36 -9l-13 -1q-28 0 -47 10q-13 8 -18 14t-13 16q-10 19 -6 41q7 45 63 71q23 5 35.5 7.5t13.5 2.5zM245 675q-47 0 -77 -34q-14 -21 -17 -34
q-3 -16 5 -33q6 -13 25 -26l6 -1q38 -5 38 -7h-4q14 0 43 8q19 9 33.5 26t17.5 33l1 3q2 12 -3 23.5t-14.5 21t-22.5 15t-27 5.5h-4zM262 594l14 -4q-12 -30 -51 -30q-52 0 -44 47q7 45 60 45q36 0 39 -25l-15 -2q-6 16 -26 16q-34 0 -40 -34q-6 -33 27 -33q24 0 36 20z" />
    <glyph glyph-name="FL00AEh" unicode="&#xaa;" 
d="M378 78l28 502l-154 -519q-8 -15 -22.5 -26t-32 -18.5t-36.5 -11.5t-36 -5h-97l6 34q1 0 8 3t15 8t16 12t11 16l157 506q3 15 23 27t44.5 20t47.5 12.5t33 4.5h59q10 0 31.5 -4.5t43 -12.5t37 -20t12.5 -27l-21 -506q1 -9 6 -16t11 -12t11.5 -8t7.5 -3l-6 -34h-99
q-17 1 -36.5 6.5t-35.5 15t-25.5 23.5t-6.5 33z" />
    <glyph glyph-name="FL00ABh" unicode="&#xab;" horiz-adv-x="316" 
d="M349 353l18 98l-118 -48l-24 -135l101 -48l17 98l-44 18zM200 353l18 98l-119 -48l-24 -135l102 -48l17 98l-44 18z" />
    <glyph glyph-name="FL00ACh" unicode="&#xac;" horiz-adv-x="440" 
d="M186 348h233l-14 -80q-2 -9 -1.5 -16.5t5 -13t15 -8.5t29.5 -3l-7 -39h-173l7 39h6q16 0 26 3t17 8.5t12 13l11 16.5l7 36h-180q-25 0 -39 -6.5t-19 -33.5l-2 -6h-46l24 136h46q-5 -31 7.5 -38.5t35.5 -7.5z" />
    <glyph glyph-name="FL00ADh" unicode="&#xad;" horiz-adv-x="194" 
d="M89 348h139l-7 -44h-139z" />
    <glyph glyph-name="registered" unicode="&#xae;" horiz-adv-x="252" 
d="M247 688q24 0 44 -11q13 -6 21.5 -13t10.5 -18q10 -19 7 -39q-4 -18 -21 -41q-12 -18 -41 -30q-23 -8 -36 -9l-13 -1q-31 0 -47 10q-9 6 -16.5 13t-14.5 17q-10 19 -6 41q2 13 6 20t13 17l1 2q16 21 42 31q14 5 25.5 8t24.5 3zM245 674q-46 0 -76 -33q-15 -20 -18 -34
l1 -9t4 -25q4 -9 25 -25l6 -2q18 -3 26 -4.5l8 -1.5q19 0 43 8q20 11 33 25q8 13 13 23.5l5 10.5l-1 3q2 12 -2.5 23.5t-13.5 20.5t-22 14.5t-27 5.5h-4zM183 562l15 87h35q23 0 27 -4q4 -2 6.5 -3.5t3.5 -2.5q5 -7 4 -14q-3 -22 -35 -24q9 -3 11 -7.5t9 -14.5l10 -17h-21
l-4 14q-6 9 -10 13.5t-5 5.5q-5 3 -14 3h-9l-6 -36h-17zM209 610h19q19 -2 26 9t-6 17q0 1 -17 1h-18z" />
    <glyph glyph-name="FL00AFh" unicode="&#xaf;" horiz-adv-x="413" 
d="M147 676l8 44h356l-8 -44h-356z" />
    <glyph glyph-name="FL00B0h" unicode="&#xb0;" horiz-adv-x="175" 
d="M147 674q-4 -20 11 -33.5t41 -13.5q25 0 43.5 13.5t22.5 33.5q3 19 -11 32.5t-39 13.5q-26 0 -45.5 -13.5t-22.5 -32.5zM220 674q-2 -9 -15 -9q-14 0 -12 9q1 9 15 9q13 0 12 -9z" />
    <glyph glyph-name="FL00B1h" unicode="&#xb1;" horiz-adv-x="386" 
d="M236 383q3 20 -3.5 31t-38.5 11h-6l7 38h163l-7 -38q-19 0 -30.5 -3t-18 -8.5t-9.5 -13.5t-4 -17l-7 -35h42q22 0 37 7.5t20 38.5h47l-24 -136h-47l2 6q2 14 -0.5 20.5t-8.5 9.5t-14.5 4.5t-18.5 5.5h-42l-7 -36q-2 -9 -1.5 -16.5t5 -13t15 -8.5t29.5 -3l-7 -39h-163
l7 39h6q16 0 24.5 3t13.5 8.5t8.5 13t9.5 16.5l7 36h-43q-25 0 -39 -6.5t-19 -33.5l-2 -6h-46l24 136h46q-5 -31 7.5 -38.5t35.5 -7.5h43zM141 90h139q11 0 20 1.5t16.5 6t12.5 13.5t8 25h47l-24 -136h-47l1 5q2 14 -0.5 20.5t-8.5 9.5t-14.5 5t-18.5 6h-139q-23 0 -37 -7
t-19 -34l-1 -5h-47l24 136h47q-3 -16 -1 -25t8 -13.5t14.5 -6t19.5 -1.5z" />
    <glyph glyph-name="FL00B2h" unicode="&#xb2;" horiz-adv-x="388" 
d="M316 694q15 -4 20 -10.5t4 -16.5l-17 -94q-2 -10 -8 -18t-17 -10h-74q-9 0 -22 -0.5t-25 -4.5t-21.5 -11.5t-12.5 -22.5l-30 -172h280l22 126q2 8 12 14.5t18 8.5l4 20h-65l-9 -2q-24 -6 -46 -15t-27 -30l-17 -96h-30q-14 0 -17.5 8.5t-1.5 20.5l18 105q4 9 9.5 16.5
t22.5 9.5h65q9 0 22 2.5t25.5 7t22 11.5t11.5 16l22 122q3 15 -4 23t-18.5 12t-24 5t-21.5 1h-129q-9 0 -22 -0.5t-25.5 -4.5t-22.5 -12t-13 -23l-13 -75q-2 -6 -11 -14t-20 -10l-3 -20h66q12 1 25 4.5t25 9t20.5 13.5t10.5 19l10 54q2 11 10 22t22 11z" />
    <glyph glyph-name="FL00B3h" unicode="&#xb3;" horiz-adv-x="362" 
d="M316 694q-14 0 -22 -11t-10 -22l-10 -54q-2 -11 -10.5 -19t-20.5 -13.5t-25 -9t-25 -4.5h-66l3 20q11 2 20 10t11 14l13 75q3 15 13 23t22.5 12t25.5 4.5t22 0.5h129q11 0 23.5 -2.5t23 -8.5t16.5 -14.5t4 -20.5l-17 -94q-2 -10 -11.5 -18.5t-17.5 -11.5l1 -2
q5 -2 12 -11.5t4 -25.5l-25 -140q-2 -9 -13 -15.5t-24 -11.5t-24.5 -7.5t-15.5 -2.5h-127q-6 0 -19 2.5t-26.5 7.5t-22.5 12.5t-7 16.5l15 87q2 8 -5 14.5t-17 8.5l4 20h66q12 0 24 -3t21.5 -9t15 -14.5t3.5 -20.5l-12 -69q-2 -11 4.5 -19t17.5 -8h2q14 0 22 8.5t10 20.5
l18 105q2 14 -9 22q-8 -2 -13.5 -7t-7.5 -17l-1 -3h-26l15 82h26q-4 -18 7 -26h7q14 5 15 17l19 107l-1 -2q1 10 -4 16.5t-20 10.5z" />
    <glyph glyph-name="FL00B4h" unicode="&#xb4;" horiz-adv-x="240" 
d="M139 628h118l81 92h-126z" />
    <glyph glyph-name="FL00B5h" unicode="&#xb5;" 
d="M135 609l6 34h108q18 -1 38.5 -6t37 -14.5t26 -24t6.5 -33.5l-30 -169q-3 -14 6.5 -27t23.5 -16h18q14 3 27.5 14t18.5 25l31 173q3 19 17.5 33.5t34 24t41.5 14.5t40 6h109l-6 -34q-14 -3 -30.5 -15t-18.5 -23l-35 -197q-2 -14 -19 -25.5t-40.5 -20t-47.5 -13.5t-40 -5
h-102q-24 -6 -35 -17t-16 -27l-31 -175q-3 -19 4.5 -33t30.5 -14h4q17 0 34 14t20 30l20 116q3 19 17.5 33.5t34.5 24t42 15t40 6.5h110l-6 -35q-14 -4 -31.5 -15t-19.5 -23l-26 -145q-3 -15 -22.5 -27.5t-43.5 -20.5t-47 -12.5t-33 -4.5h-207q-14 0 -34.5 4.5t-38.5 12.5
t-30 20.5t-9 27.5l90 506q2 12 -10.5 23t-26.5 15z" />
    <glyph glyph-name="FL00B6h" unicode="&#xb6;" horiz-adv-x="604" 
d="M403 304l-57 -323q-4 -20 8 -34t31.5 -23t42.5 -13t41 -4h90l6 35q-17 0 -30 8t-8 31l55 316q4 24 -6.5 41t-19.5 19v4q11 7 26.5 19.5t21.5 29.5h1l29 163q2 12 19 23t31 14l6 34h-109q-19 -1 -40.5 -6.5t-41 -15t-33.5 -23.5t-17 -33l-32 -178q-6 -4 -23 -5.5t-25 -3.5
q-8 2 -24.5 3t-22.5 5l32 178q3 19 -6 33.5t-24.5 24t-35.5 14.5t-38 6h-109l-6 -34q14 -3 26.5 -14t10.5 -23l-29 -163h1q1 -15 12.5 -29.5t19.5 -19.5l-3 -4q-11 -2 -27 -19t-21 -41l-39 -222q-5 -24 -20 -31.5t-32 -7.5l-6 -35h91q18 0 42 4t46.5 13t39.5 23t20 34
l40 229q10 11 23 14t26 5h3q5 -1 12 -2.5t13.5 -3.5t12 -5t6.5 -7z" />
    <glyph glyph-name="FL00B7h" unicode="&#xb7;" horiz-adv-x="245" 
d="M85 326q6 29 35.5 50t70.5 21q39 0 62.5 -21t18.5 -50q-6 -30 -36 -50.5t-70 -20.5t-63 20.5t-18 50.5z" />
    <glyph glyph-name="FL00B8h" unicode="&#xb8;" horiz-adv-x="112" 
d="M29 0h53l-7 -41q-4 -18 4 -29.5t44 -11.5l-7 -39h-173l7 39h7q16 0 26 3t16.5 8.5t11.5 13l11 16.5z" />
    <glyph glyph-name="FL00B9h" unicode="&#xb9;" horiz-adv-x="235" 
d="M155 720h156l-61 -347q-2 -7 6 -12t14 -7l-3 -20h-162l3 20q7 2 15.5 7t10.5 12l55 316q-14 -5 -19 -17h-24z" />
    <glyph glyph-name="FL00BAh" unicode="&#xba;" horiz-adv-x="336" 
d="M230 720h130q7 0 20 -1t24.5 -5t19 -12.5t4.5 -23.5l-54 -305q-2 -9 -12.5 -16.5t-23 -12.5t-25.5 -7.5t-21 -2.5h-130q-8 0 -20.5 2.5t-23.5 7.5t-18.5 12.5t-5.5 16.5l54 306q3 15 12.5 23t22 12t25.5 5t22 1zM284 658q-10 0 -15 -9t-7 -17l-37 -214q-2 -9 0 -16t12 -7
t14 7.5t6 20.5l36 209q2 8 0.5 17t-9.5 9z" />
    <glyph glyph-name="FL00BBh" unicode="&#xbb;" horiz-adv-x="316" 
d="M90 353l18 98l101 -48l-24 -135l-118 -48l17 98l51 18zM240 353l18 98l100 -48l-24 -135l-117 -48l17 98l49 18z" />
    <glyph glyph-name="FL00BCh" unicode="&#xbc;" horiz-adv-x="1157" 
d="M1184 314l-5 11l-113 48l78 18h11l-9 11l-169 30l66 35h-204l24 41l-203 -23v35l-15 5l-147 -53l-54 36l-92 -68q-8 -4 -21 -4q-15 0 -32 6.5t-39 18.5l-29 -83l-95 7l-1 -25l44 -52l-98 -5l120 -52l-90 -30l179 -32l-66 -32l208 -7l-28 -39l194 26l20 -23l-13 -22
l163 58l63 -36l90 71l92 -24l22 83l99 -13q2 5 3.5 6l1.5 1q3 16 -53 70zM1043 356l-27 -76l-22 2l18 79zM1012 247l-23 -16l-14 13l18 11zM957 254q-34 0 -71 51l-9 -50l-24 -2l18 103l63 -68l18 73l23 -5zM830 255l-17 2q-10 25 -29 25q-15 0 -37 -25h-29q22 53 75 103
q1 4 19 4q22 0 31 -34zM724 361l-25 -102l-34 -6l32 103zM638 249q-32 0 -71 51l-9 -49l-24 -4l18 105l66 -66l19 70l19 -4zM531 322q-24 -73 -63 -73q-8 -1 -12.5 -1.5t-10.5 -0.5q-35 0 -44 17q11 67 66 92h16q45 0 48 -34zM407 359l-6 -25q-4 2 -5.5 2.5l-1.5 0.5h-7
q-14 0 -38 -15q-24 -17 -28 -42q-3 -21 25 -21q20 0 26 3l-1 -17q-14 -2 -18.5 -4t-10.5 -2q-38 0 -44 47q0 1 -0.5 2.5t-0.5 3.5l2 8q9 48 108 59zM296 356l-28 -100l-28 -9l32 107zM815 305l-12 34l-30 -34h42zM502 307q1 2 0 4.5t0 7.5q-9 13 -23 13q-23 0 -43 -32l-2 -8
q-4 -25 16 -25q16 0 37 9q8 9 10.5 14.5t4.5 16.5z" />
    <glyph glyph-name="FL00BDh" unicode="&#xbd;" horiz-adv-x="644" 
d="M509 327q-14 0 -22.5 -11t-10.5 -22l-10 -54q-2 -11 -10.5 -19t-20.5 -14t-25 -9.5t-24 -4.5h-66l3 19l-183 -212h-112l6 32q11 3 26.5 12.5t17.5 20.5l194 225h-111l4 20q7 2 15.5 7t10.5 11l56 317q-15 -5 -20 -17h-24l8 48h156l-61 -346l270 313h111l-5 -32
q-12 -3 -24.5 -12.5t-20.5 -19.5l-195 -226h136q9 0 21.5 -1t23.5 -5t18 -12t4 -23l-21 -122q-2 -9 -11.5 -16t-22 -11.5t-25.5 -7t-22 -2.5h-65q-18 -3 -22.5 -10t-9.5 -16l-18 -105q-2 -12 2 -20.5t18 -8.5h30l17 96q4 21 26.5 30.5t46.5 14.5l8 2h65l-4 -20
q-8 -2 -18.5 -8.5t-12.5 -14.5l-22 -126h-279l31 172q2 15 11.5 22.5t22 11.5t25 4.5t21.5 0.5h75q11 2 16.5 10t7.5 18l17 94q1 10 -3.5 16.5t-19.5 10.5zM355 250l-30 -36q8 2 17 9.5t11 14.5z" />
    <glyph glyph-name="FL00BEh" unicode="&#xbe;" horiz-adv-x="841" 
d="M877 356l-29 -76l-22 2l19 79zM846 247l-24 -16l-15 13l19 11zM789 254q-33 0 -70 51l-9 -50l-24 -2l18 103l63 -68l17 73l23 -5zM663 255l-18 2q-10 25 -27 25t-38 -25h-30q25 54 75 103q3 4 19 4q23 0 32 -34zM556 361l-25 -102l-34 -6l33 103zM471 249q-32 0 -72 51
l-9 -49l-24 -4l18 105l67 -66l18 70l20 -4zM364 322q-25 -73 -64 -73q-8 -1 -12.5 -1.5t-10.5 -0.5q-35 0 -43 17q5 34 22 56.5t43 35.5h17q44 0 48 -34zM241 359l-7 -25l-7 3h-8q-15 0 -37 -15q-24 -19 -29 -42q-3 -21 26 -21q20 0 25 3l-1 -17q-12 -2 -16.5 -4t-11.5 -2
q-38 0 -43 47q-2 2 -2 6l2 8q9 49 109 59zM128 356l-27 -100l-29 -9l32 107zM647 305l-11 34l-31 -34h42zM334 307q1 2 0 4.5t0 7.5q-7 13 -22 13q-24 0 -44 -32l-2 -8q-4 -25 16 -25q15 0 38 9q8 9 10 14.5t4 16.5z" />
    <glyph glyph-name="FL00BFh" unicode="&#xbf;" horiz-adv-x="566" 
d="M270 44q12 0 21.5 5.5t16.5 13.5t11 17t6 17l16 90q3 19 17.5 33.5t34.5 24t42 14.5t40 6h110l-6 -34q-7 -1 -15.5 -5.5t-16 -10t-13 -12t-6.5 -10.5l-22 -127q-5 -25 -21.5 -38.5t-37.5 -19.5t-42 -7t-35 -1h-218q-15 0 -35.5 1.5t-39 8t-30 20t-7.5 37.5l36 204
q3 15 18.5 26.5t36.5 19.5t43 12t37 4h52q27 5 39.5 16.5t14.5 27.5l13 69h191l-16 -90q-5 -24 -21.5 -37t-37 -19.5t-41.5 -7.5t-36 -1h-71q-18 -4 -27.5 -16.5t-12.5 -29.5l-27 -157q-1 -16 6 -27.5t33 -16.5zM543 572q-3 -15 -13 -27.5t-25 -22.5t-33.5 -15.5t-37.5 -5.5
q-39 0 -63 21t-19 50q6 30 38 50.5t71 20.5q40 0 63.5 -20.5t18.5 -50.5z" />
    <glyph glyph-name="FL00C0h" unicode="&#xc0;" horiz-adv-x="623" 
d="M35 0l6 32q11 3 26 12.5t17 20.5l91 514q2 11 -10 20t-22 12l5 32h359q9 0 34.5 -1t51.5 -7t44.5 -19t14.5 -37l-106 -599q-2 -12 7 -19.5t22.5 -12t27.5 -6t23 -1.5l-7 -35h-132q-19 0 -41.5 4t-41.5 13t-31 23t-9 34l62 350h-108l-47 -265q-1 -5 2.5 -10.5t9 -10
t11.5 -8t11 -4.5l-6 -32h-264zM418 598h-53l-39 -222h102l30 170q3 17 -7 34.5t-33 17.5zM508 674h-118l-50 92h126z" />
    <glyph glyph-name="FL00C1h" unicode="&#xc1;" horiz-adv-x="623" 
d="M35 0l6 32q11 3 26 12.5t17 20.5l91 514q2 11 -10 20t-22 12l5 32h359q9 0 34.5 -1t51.5 -7t44.5 -19t14.5 -37l-106 -599q-2 -12 7 -19.5t22.5 -12t27.5 -6t23 -1.5l-7 -35h-132q-19 0 -41.5 4t-41.5 13t-31 23t-9 34l62 350h-108l-47 -265q-1 -5 2.5 -10.5t9 -10
t11.5 -8t11 -4.5l-6 -32h-264zM418 598h-53l-39 -222h102l30 170q3 17 -7 34.5t-33 17.5zM457 674h-117l72 92h127z" />
    <glyph glyph-name="FL00C2h" unicode="&#xc2;" horiz-adv-x="623" 
d="M35 0l6 32q11 3 26 12.5t17 20.5l91 514q2 11 -10 20t-22 12l5 32h359q9 0 34.5 -1t51.5 -7t44.5 -19t14.5 -37l-106 -599q-2 -12 7 -19.5t22.5 -12t27.5 -6t23 -1.5l-7 -35h-132q-19 0 -41.5 4t-41.5 13t-31 23t-9 34l62 350h-108l-47 -265q-1 -5 2.5 -10.5t9 -10
t11.5 -8t11 -4.5l-6 -32h-264zM418 598h-53l-39 -222h102l30 170q3 17 -7 34.5t-33 17.5zM406 674h-119l74 92h162l41 -92h-116l-15 40z" />
    <glyph glyph-name="FL00C3h" unicode="&#xc3;" horiz-adv-x="623" 
d="M35 0l6 32q11 3 26 12.5t17 20.5l91 514q2 11 -10 20t-22 12l5 32h359q9 0 34.5 -1t51.5 -7t44.5 -19t14.5 -37l-106 -599q-2 -12 7 -19.5t22.5 -12t27.5 -6t23 -1.5l-7 -35h-132q-19 0 -41.5 4t-41.5 13t-31 23t-9 34l62 350h-108l-47 -265q-1 -5 2.5 -10.5t9 -10
t11.5 -8t11 -4.5l-6 -32h-264zM418 598h-53l-39 -222h102l30 170q3 17 -7 34.5t-33 17.5zM466 766h118l-73 -92h-84l-14 40l-29 -40h-117l73 92h84l15 -40z" />
    <glyph glyph-name="FL00C4h" unicode="&#xc4;" horiz-adv-x="623" 
d="M35 0l6 32q11 3 26 12.5t17 20.5l91 514q2 11 -10 20t-22 12l5 32h359q9 0 34.5 -1t51.5 -7t44.5 -19t14.5 -37l-106 -599q-2 -12 7 -19.5t22.5 -12t27.5 -6t23 -1.5l-7 -35h-132q-19 0 -41.5 4t-41.5 13t-31 23t-9 34l62 350h-108l-47 -265q-1 -5 2.5 -10.5t9 -10
t11.5 -8t11 -4.5l-6 -32h-264zM418 598h-53l-39 -222h102l30 170q3 17 -7 34.5t-33 17.5zM293 720q3 19 22 32.5t44 13.5q26 0 40.5 -13.5t11.5 -32.5q-4 -20 -23 -33.5t-45 -13.5q-25 0 -39.5 13.5t-10.5 33.5zM573 720q-4 -20 -23 -33.5t-45 -13.5q-25 0 -39.5 13.5
t-10.5 33.5q3 19 22 32.5t44 13.5q26 0 40.5 -13.5t11.5 -32.5z" />
    <glyph glyph-name="FL00C5h" unicode="&#xc5;" horiz-adv-x="623" 
d="M374 720q-4 -20 11.5 -33.5t40.5 -13.5q26 0 44.5 13.5t22.5 33.5q3 19 -11 32.5t-40 13.5q-25 0 -45 -13.5t-23 -32.5zM365 598h53q23 0 33 -17.5t7 -34.5l-30 -170h-102zM41 32l-6 -32h264l6 32q-5 1 -11 4.5t-11.5 8t-9 10t-2.5 10.5l47 265h108l-62 -350
q-3 -20 9 -34t31 -23t41.5 -13t41.5 -4h132l7 35q-9 0 -23 1.5t-27.5 6t-22.5 12t-7 19.5l106 599q4 24 -14.5 37t-44.5 19t-51.5 7t-34.5 1h-359l-5 -32q10 -3 22 -12t10 -20l-91 -514q-2 -11 -17 -20.5t-26 -12.5zM446 720q-2 -9 -14 -9q-13 0 -11 9q1 9 15 9q11 0 10 -9z
" />
    <glyph glyph-name="FL00C6h" unicode="&#xc6;" horiz-adv-x="972" 
d="M29 0l6 36q14 3 30.5 13.5t18.5 23.5l101 575q2 13 -10 23t-25 13l6 37h867l-41 -235q-1 -5 2.5 -12t9 -13.5t13 -11.5t13.5 -6l-7 -39h-115q-19 1 -40 7t-38 17t-26.5 27t-5.5 37l28 161q2 11 -12 20t-34 11q-8 -1 -17.5 -4.5t-17.5 -8.5t-14 -11t-7 -12l-45 -258
q24 0 40.5 8.5t22.5 43.5h48l-27 -153h-48l1 6q5 31 -7.5 38.5t-38.5 7.5l-47 -268q-2 -13 12.5 -23.5t34.5 -15.5q18 2 34 10t19 23l28 162q4 21 19.5 37t36 26.5t43.5 16.5t43 8h115l-7 -39q-7 -2 -16 -6.5t-17 -10.5t-14 -13t-7 -13l-41 -235h-307l-4 -23
q-2 -13 4.5 -21.5t17 -13t22.5 -6.5t20 -2l-6 -38h-138q-20 0 -44 4.5t-44 14t-32.5 25t-8.5 37.5l69 393h-114l-52 -297q-2 -13 11 -23.5t23 -13.5l-6 -36h-278zM440 670h-56l-44 -249h107l34 191q3 18 -7 38t-34 20z" />
    <glyph glyph-name="FL00C7h" unicode="&#xc7;" horiz-adv-x="594" 
d="M393 671q-30 -5 -41 -18t-16 -31l-92 -520q-4 -21 3.5 -37t32.5 -16h4q18 0 35.5 16t20.5 34l23 130q4 21 19.5 37t36 26.5t44 16.5t43.5 8h115l-7 -39q-8 -2 -16.5 -6.5t-16.5 -10.5t-13.5 -13t-6.5 -13l-28 -162q-3 -17 -24 -30.5t-47 -23t-50.5 -14.5t-34.5 -5h-77
l-7 -41q-4 -18 4 -29.5t44 -11.5l-7 -39h-173l7 39h8q16 0 25.5 3t16 8.5t11.5 13l11 16.5l7 41h-87q-15 0 -36.5 5t-40.5 14.5t-31.5 23t-9.5 30.5l101 572q4 27 21.5 42t39.5 22.5t45 9.5t38 2h228q15 0 37.5 -1t42 -8t32 -22t7.5 -43l-28 -162q-1 -5 2 -12t8.5 -13.5
t12.5 -11.5t14 -6l-7 -39h-115q-20 1 -41 7t-37.5 17t-26.5 26.5t-7 36.5l22 122q1 9 0 19.5t-5.5 19t-12.5 14.5t-20 6z" />
    <glyph glyph-name="FL00C8h" unicode="&#xc8;" horiz-adv-x="612" 
d="M457 583q2 9 -12 17.5t-32 10.5q-14 -2 -32 -11.5t-20 -20.5l-41 -231q22 0 37 7.5t20 38.5h47l-24 -136h-47l2 6q5 27 -7 33.5t-35 6.5l-43 -239q-2 -11 12.5 -20t32.5 -14q15 2 31 8.5t19 20.5l25 144q3 19 17.5 33.5t35 24t42.5 15t40 6.5h109l-6 -35q-14 -4 -31 -15
t-19 -23l-37 -210h-513l6 32q11 3 26.5 12.5t17.5 20.5l91 514q2 11 -10.5 20t-22.5 12l5 32h513l-36 -209q-2 -11 10 -24t26 -15l-6 -34h-109q-18 1 -38.5 6.5t-37 15t-26 23.5t-6.5 33zM508 674h-118l-50 92h126z" />
    <glyph glyph-name="FL00C9h" unicode="&#xc9;" horiz-adv-x="612" 
d="M457 583q2 9 -12 17.5t-32 10.5q-14 -2 -32 -11.5t-20 -20.5l-41 -231q22 0 37 7.5t20 38.5h47l-24 -136h-47l2 6q5 27 -7 33.5t-35 6.5l-43 -239q-2 -11 12.5 -20t32.5 -14q15 2 31 8.5t19 20.5l25 144q3 19 17.5 33.5t35 24t42.5 15t40 6.5h109l-6 -35q-14 -4 -31 -15
t-19 -23l-37 -210h-513l6 32q11 3 26.5 12.5t17.5 20.5l91 514q2 11 -10.5 20t-22.5 12l5 32h513l-36 -209q-2 -11 10 -24t26 -15l-6 -34h-109q-18 1 -38.5 6.5t-37 15t-26 23.5t-6.5 33zM457 674h-117l72 92h127z" />
    <glyph glyph-name="FL00CAh" unicode="&#xca;" horiz-adv-x="612" 
d="M457 583q2 9 -12 17.5t-32 10.5q-14 -2 -32 -11.5t-20 -20.5l-41 -231q22 0 37 7.5t20 38.5h47l-24 -136h-47l2 6q5 27 -7 33.5t-35 6.5l-43 -239q-2 -11 12.5 -20t32.5 -14q15 2 31 8.5t19 20.5l25 144q3 19 17.5 33.5t35 24t42.5 15t40 6.5h109l-6 -35q-14 -4 -31 -15
t-19 -23l-37 -210h-513l6 32q11 3 26.5 12.5t17.5 20.5l91 514q2 11 -10.5 20t-22.5 12l5 32h513l-36 -209q-2 -11 10 -24t26 -15l-6 -34h-109q-18 1 -38.5 6.5t-37 15t-26 23.5t-6.5 33zM406 674h-119l74 92h162l41 -92h-116l-15 40z" />
    <glyph glyph-name="FL00CBh" unicode="&#xcb;" horiz-adv-x="612" 
d="M457 583q2 9 -12 17.5t-32 10.5q-14 -2 -32 -11.5t-20 -20.5l-41 -231q22 0 37 7.5t20 38.5h47l-24 -136h-47l2 6q5 27 -7 33.5t-35 6.5l-43 -239q-2 -11 12.5 -20t32.5 -14q15 2 31 8.5t19 20.5l25 144q3 19 17.5 33.5t35 24t42.5 15t40 6.5h109l-6 -35q-14 -4 -31 -15
t-19 -23l-37 -210h-513l6 32q11 3 26.5 12.5t17.5 20.5l91 514q2 11 -10.5 20t-22.5 12l5 32h513l-36 -209q-2 -11 10 -24t26 -15l-6 -34h-109q-18 1 -38.5 6.5t-37 15t-26 23.5t-6.5 33zM293 720q3 19 22 32.5t44 13.5q26 0 40.5 -13.5t11.5 -32.5q-4 -20 -23 -33.5
t-45 -13.5q-25 0 -39.5 13.5t-10.5 33.5zM573 720q-4 -20 -23 -33.5t-45 -13.5q-25 0 -39.5 13.5t-10.5 33.5q3 19 22 32.5t44 13.5q26 0 40.5 -13.5t11.5 -32.5z" />
    <glyph glyph-name="FL00CCh" unicode="&#xcc;" horiz-adv-x="326" 
d="M370 674h-118l-50 92h126zM304 32l-6 -32h-270l6 32q11 3 26.5 12.5t17.5 20.5l91 514q2 11 -10.5 20t-22.5 12l5 32h270l-5 -32q-11 -3 -27 -12t-18 -20l-91 -514q-1 -5 2.5 -10.5t8.5 -10t11.5 -8t11.5 -4.5z" />
    <glyph glyph-name="FL00CDh" unicode="&#xcd;" horiz-adv-x="326" 
d="M28 0l6 32q11 3 26.5 12.5t17.5 20.5l91 514q2 11 -10.5 20t-22.5 12l5 32h270l-5 -32q-11 -3 -27 -12t-18 -20l-91 -514q-1 -5 2.5 -10.5t8.5 -10t11.5 -8t11.5 -4.5l-6 -32h-270zM312 674h-117l73 92h126z" />
    <glyph glyph-name="FL00CEh" unicode="&#xce;" horiz-adv-x="326" 
d="M28 0l6 32q11 3 26.5 12.5t17.5 20.5l91 514q2 11 -10.5 20t-22.5 12l5 32h270l-5 -32q-11 -3 -27 -12t-18 -20l-91 -514q-1 -5 2.5 -10.5t8.5 -10t11.5 -8t11.5 -4.5l-6 -32h-270zM263 674h-118l73 92h162l41 -92h-116l-15 40z" />
    <glyph glyph-name="FL00CFh" unicode="&#xcf;" horiz-adv-x="326" 
d="M28 0l6 32q11 3 26.5 12.5t17.5 20.5l91 514q2 11 -10.5 20t-22.5 12l5 32h270l-5 -32q-11 -3 -27 -12t-18 -20l-91 -514q-1 -5 2.5 -10.5t8.5 -10t11.5 -8t11.5 -4.5l-6 -32h-270zM150 720q3 19 22.5 32.5t44.5 13.5t40 -13.5t12 -32.5q-4 -20 -23.5 -33.5t-44.5 -13.5
t-40 13.5t-11 33.5zM431 720q-4 -20 -23.5 -33.5t-44.5 -13.5t-40 13.5t-11 33.5q3 19 22.5 32.5t44.5 13.5t40 -13.5t12 -32.5z" />
    <glyph glyph-name="FL0115h" unicode="&#xd0;" horiz-adv-x="617" 
d="M196 643h372q14 0 36.5 -1.5t43 -8.5t33.5 -21.5t9 -39.5l-90 -507q-3 -15 -19.5 -27.5t-38.5 -20.5t-45 -12.5t-39 -4.5h-375l6 32q11 3 26.5 12.5t17.5 20.5l43 239q-23 -1 -36.5 -7.5t-18.5 -32.5l-2 -6h-46l24 136h46q-5 -30 6 -38t34 -8l41 231q2 11 -10.5 20
t-22.5 12zM461 599q-23 0 -36 -5t-16 -22l-88 -501q-2 -10 7.5 -18.5t31.5 -8.5q25 0 40 16.5t20 42.5l78 443q3 17 -6.5 35t-30.5 18z" />
    <glyph glyph-name="FL00D1h" unicode="&#xd1;" horiz-adv-x="605" 
d="M580 766h-117l-28 -40l-14 40h-86l-72 -92h118l27 40l15 -40h84zM647 578h-1v1q1 6 6 11t12 9t14 7t12 5l5 32h-263l-5 -32q3 -2 9.5 -5t12 -6.5t9.5 -7.5t3 -7l-44 -251l-119 245q-2 10 -9 21.5t-15.5 21t-17 15.5t-13.5 6h-102l-5 -32q10 -3 22.5 -12t10.5 -20
l-91 -514q-2 -11 -17.5 -20.5t-26.5 -12.5l-6 -32h265l6 32q-11 3 -23.5 12.5t-10.5 20.5l40 227l125 -230q0 -9 5 -20t13.5 -20t18.5 -15.5t20 -6.5h58z" />
    <glyph glyph-name="FL00D2h" unicode="&#xd2;" horiz-adv-x="523" 
d="M368 599q-11 0 -21 -5t-17.5 -13t-12.5 -17t-6 -18l-80 -455q-3 -19 4.5 -33t30.5 -14q32 0 43.5 16.5t16.5 42.5l78 443q3 17 -5 35t-31 18zM265 643h218q14 0 35 -1.5t39.5 -8.5t30 -21.5t7.5 -39.5l-90 -507q-3 -15 -19 -27.5t-36.5 -20.5t-42 -12.5t-36.5 -4.5h-219
q-15 0 -35.5 4.5t-38.5 12.5t-30 20.5t-9 27.5l90 510q4 24 20.5 37.5t37.5 20.5t42.5 8.5t35.5 1.5zM467 674h-118l-50 92h126z" />
    <glyph glyph-name="FL00D4h" unicode="&#xd3;" horiz-adv-x="523" 
d="M368 599q-11 0 -21 -5t-17.5 -13t-12.5 -17t-6 -18l-80 -455q-3 -19 4.5 -33t30.5 -14q32 0 43.5 16.5t16.5 42.5l78 443q3 17 -5 35t-31 18zM265 643h218q14 0 35 -1.5t39.5 -8.5t30 -21.5t7.5 -39.5l-90 -507q-3 -15 -19 -27.5t-36.5 -20.5t-42 -12.5t-36.5 -4.5h-219
q-15 0 -35.5 4.5t-38.5 12.5t-30 20.5t-9 27.5l90 510q4 24 20.5 37.5t37.5 20.5t42.5 8.5t35.5 1.5zM412 674h-118l74 92h126z" />
    <glyph glyph-name="FL00D5h" unicode="&#xd4;" horiz-adv-x="523" 
d="M265 643h218q14 0 35 -1.5t39.5 -8.5t30 -21.5t7.5 -39.5l-90 -507q-3 -15 -19 -27.5t-36.5 -20.5t-42 -12.5t-36.5 -4.5h-219q-15 0 -35.5 4.5t-38.5 12.5t-30 20.5t-9 27.5l90 510q4 24 20.5 37.5t37.5 20.5t42.5 8.5t35.5 1.5zM368 599q-11 0 -21 -5t-17.5 -13
t-12.5 -17t-6 -18l-80 -455q-3 -19 4.5 -33t30.5 -14q32 0 43.5 16.5t16.5 42.5l78 443q3 17 -5 35t-31 18zM360 674h-117l72 92h162l42 -92h-117l-14 40z" />
    <glyph glyph-name="FL00D6h" unicode="&#xd5;" horiz-adv-x="523" 
d="M265 643h218q14 0 35 -1.5t39.5 -8.5t30 -21.5t7.5 -39.5l-90 -507q-3 -15 -19 -27.5t-36.5 -20.5t-42 -12.5t-36.5 -4.5h-219q-15 0 -35.5 4.5t-38.5 12.5t-30 20.5t-9 27.5l90 510q4 24 20.5 37.5t37.5 20.5t42.5 8.5t35.5 1.5zM368 599q-11 0 -21 -5t-17.5 -13
t-12.5 -17t-6 -18l-80 -455q-3 -19 4.5 -33t30.5 -14q32 0 43.5 16.5t16.5 42.5l78 443q3 17 -5 35t-31 18zM424 766h118l-73 -92h-85l-14 40l-28 -40h-117l73 92h84l15 -40z" />
    <glyph glyph-name="FL00D8h" unicode="&#xd6;" horiz-adv-x="523" 
d="M368 599q-11 0 -21 -5t-17.5 -13t-12.5 -17t-6 -18l-80 -455q-3 -19 4.5 -33t30.5 -14q32 0 43.5 16.5t16.5 42.5l78 443q3 17 -5 35t-31 18zM265 643h218q14 0 35 -1.5t39.5 -8.5t30 -21.5t7.5 -39.5l-90 -507q-3 -15 -19 -27.5t-36.5 -20.5t-42 -12.5t-36.5 -4.5h-219
q-15 0 -35.5 4.5t-38.5 12.5t-30 20.5t-9 27.5l90 510q4 24 20.5 37.5t37.5 20.5t42.5 8.5t35.5 1.5zM248 720q3 19 22 32.5t45 13.5t40.5 -13.5t11.5 -32.5q-4 -20 -23 -33.5t-45 -13.5t-40.5 13.5t-10.5 33.5zM529 720q-4 -20 -23 -33.5t-45 -13.5t-40.5 13.5t-10.5 33.5
q3 19 22 32.5t45 13.5t40.5 -13.5t11.5 -32.5z" />
    <glyph glyph-name="FL00D7h" unicode="&#xd7;" horiz-adv-x="406" 
d="M300 382q10 7 16.5 13.5t8.5 14.5q3 13 -14 30l-4 4l38 27l98 -97l-38 -27q-11 11 -18.5 15.5t-17.5 4.5q-11 0 -18.5 -4t-18.5 -12l-35 -25l26 -25q8 -8 14 -12.5t17 -4.5q15 0 44 20l28 -27l-132 -96l-28 27l4 3q19 13 22 26q2 8 -2.5 15t-8.5 18l-26 24l-36 -25
q-12 -8 -17.5 -14t-7.5 -14q-1 -13 18 -34l-36 -27l-99 96l36 27l5 -3q14 -14 27 -14q10 0 20 5t24 10l34 25l-25 25q-9 8 -15.5 12.5t-16.5 4.5q-17 0 -39 -16l-6 -4l-27 27l133 97l27 -27q-27 -21 -30 -35q-2 -8 2 -14t13 -14l27 -25z" />
    <glyph glyph-name="FL00DFh" unicode="&#xd8;" horiz-adv-x="523" 
d="M484 643h-217q-14 0 -36 -1.5t-43 -8.5t-38 -21.5t-21 -39.5l-90 -507q-3 -15 9 -27.5t30 -20.5t38.5 -12.5t35.5 -4.5h219q15 0 36.5 4.5t42 12.5t36.5 20.5t19 27.5l90 510q4 24 -7.5 37.5t-29.5 20.5t-38.5 8.5t-35.5 1.5zM273 44q-32 0 -38.5 16.5t-1.5 42.5l44 248
l57 -205l-10 -55q-3 -19 -15.5 -33t-35.5 -14zM368 599q23 0 31 -18t5 -35l-40 -231l-57 207l4 24q1 9 6 18t12.5 17t17.5 13t21 5z" />
    <glyph glyph-name="FL00D9h" unicode="&#xd9;" 
d="M689 609q-14 -3 -30.5 -15t-18.5 -23l-90 -506q-3 -15 -22.5 -27.5t-44 -20.5t-47.5 -12.5t-33 -4.5h-195q-10 0 -32 4.5t-44 12.5t-37.5 20.5t-12.5 27.5l90 506q2 12 -10.5 23t-26.5 15l6 34h109q18 -1 38.5 -6t37 -14.5t26 -24t6.5 -33.5l-84 -477q-3 -16 9.5 -30
t29.5 -14h1q17 0 34 14t20 30l84 477q3 19 17.5 33.5t34.5 24t42 14.5t40 6h109zM508 674h-118l-50 92h126z" />
    <glyph glyph-name="FL00DAh" unicode="&#xda;" 
d="M689 609q-14 -3 -30.5 -15t-18.5 -23l-90 -506q-3 -15 -22.5 -27.5t-44 -20.5t-47.5 -12.5t-33 -4.5h-195q-10 0 -32 4.5t-44 12.5t-37.5 20.5t-12.5 27.5l90 506q2 12 -10.5 23t-26.5 15l6 34h109q18 -1 38.5 -6t37 -14.5t26 -24t6.5 -33.5l-84 -477q-3 -16 9.5 -30
t29.5 -14h1q17 0 34 14t20 30l84 477q3 19 17.5 33.5t34.5 24t42 14.5t40 6h109zM457 674h-117l72 92h127z" />
    <glyph glyph-name="FL00DBh" unicode="&#xdb;" 
d="M689 609q-14 -3 -30.5 -15t-18.5 -23l-90 -506q-3 -15 -22.5 -27.5t-44 -20.5t-47.5 -12.5t-33 -4.5h-195q-10 0 -32 4.5t-44 12.5t-37.5 20.5t-12.5 27.5l90 506q2 12 -10.5 23t-26.5 15l6 34h109q18 -1 38.5 -6t37 -14.5t26 -24t6.5 -33.5l-84 -477q-3 -16 9.5 -30
t29.5 -14h1q17 0 34 14t20 30l84 477q3 19 17.5 33.5t34.5 24t42 14.5t40 6h109zM406 674h-119l74 92h162l41 -92h-116l-15 40z" />
    <glyph glyph-name="FL00DCh" unicode="&#xdc;" 
d="M689 609q-14 -3 -30.5 -15t-18.5 -23l-90 -506q-3 -15 -22.5 -27.5t-44 -20.5t-47.5 -12.5t-33 -4.5h-195q-10 0 -32 4.5t-44 12.5t-37.5 20.5t-12.5 27.5l90 506q2 12 -10.5 23t-26.5 15l6 34h109q18 -1 38.5 -6t37 -14.5t26 -24t6.5 -33.5l-84 -477q-3 -16 9.5 -30
t29.5 -14h1q17 0 34 14t20 30l84 477q3 19 17.5 33.5t34.5 24t42 14.5t40 6h109zM293 720q3 19 22 32.5t44 13.5q26 0 40.5 -13.5t11.5 -32.5q-4 -20 -23 -33.5t-45 -13.5q-25 0 -39.5 13.5t-10.5 33.5zM573 720q-4 -20 -23 -33.5t-45 -13.5q-25 0 -39.5 13.5t-10.5 33.5
q3 19 22 32.5t44 13.5q26 0 40.5 -13.5t11.5 -32.5z" />
    <glyph glyph-name="FL00DDh" unicode="&#xdd;" 
d="M695 643l-6 -34q-14 -3 -30.5 -15t-18.5 -23l-90 -506q-3 -15 -19 -27.5t-37 -20.5t-42.5 -12.5t-36.5 -4.5h-206q-10 0 -32 4.5t-44 12.5t-37.5 20.5t-12.5 27.5l26 145q2 11 -10.5 23t-25.5 15l6 35h109q18 -1 38 -6.5t36.5 -15t26 -24t6.5 -33.5l-20 -116
q-3 -16 9.5 -30t29.5 -14h2q25 0 37 14t15 33l31 175q0 16 -6.5 27t-29.5 17h-100q-17 0 -39.5 5t-42.5 13.5t-33 20t-11 25.5l35 197q2 12 -10.5 23t-26.5 15l6 34h109q18 -1 38.5 -6t37 -14.5t26 -24t6.5 -33.5l-31 -173q1 -14 9 -25t22 -14h18q17 3 30 16t16 27l30 169
q3 19 17.5 33.5t34.5 24t42 14.5t40 6h109zM457 674h-117l72 92h127z" />
    <glyph glyph-name="FL00DEh" unicode="&#xde;" horiz-adv-x="590" 
d="M29 0l6 36q14 3 30.5 13.5t18.5 23.5l101 575q2 13 -10 23t-25 13l6 37h278l-6 -37q-6 -2 -13.5 -5.5t-15 -8t-13 -10t-6.5 -12.5l-18 -104h142q10 0 35 -1.5t50 -8.5t42 -22t12 -42l-37 -211q-5 -25 -22.5 -40t-42 -22.5t-52 -10t-51.5 -2.5h-140l-19 -111
q-2 -13 11 -23.5t23 -13.5l-6 -36h-278zM400 494h-47l-46 -259h46q11 2 31 16.5t31 40.5l26 144q3 18 -7.5 38t-33.5 20z" />
    <glyph glyph-name="FL00E7h" unicode="&#xdf;" horiz-adv-x="526" 
d="M370 599q-23 0 -39 -18t-18 -35l-104 -591q-3 -19 -17.5 -33t-34.5 -23.5t-42 -15t-41 -6.5h-109l6 34q7 1 15.5 5.5t16 10t12.5 12t6 11.5l111 628q4 24 20.5 37.5t37.5 19.5t42.5 7t36.5 1h217q18 0 38.5 -4.5t38 -13.5t27.5 -23.5t7 -34.5l-28 -157q-1 -8 -7 -15.5
t-13.5 -14.5t-15.5 -12t-13 -8l3 -4q3 -2 8.5 -6.5t10 -12.5t7 -18.5t0.5 -22.5l-41 -235q-3 -14 -21.5 -25t-40.5 -19t-42 -12.5t-26 -4.5h-114l8 44h2q25 0 37 14t15 33l31 175q-1 11 -3 19.5t-14 16.5h-24l9 51h31q20 6 23 26l31 179l-2 -3q0 16 -7 27.5t-31 16.5z" />
    <glyph glyph-name="FL00E0h" unicode="&#xe0;" horiz-adv-x="623" 
d="M35 0l6 32q11 3 26 12.5t17 20.5l91 514q2 11 -10 20t-22 12l5 32h359q9 0 34.5 -1t51.5 -7t44.5 -19t14.5 -37l-106 -599q-2 -12 7 -19.5t22.5 -12t27.5 -6t23 -1.5l-7 -35h-132q-19 0 -41.5 4t-41.5 13t-31 23t-9 34l62 350h-108l-47 -265q-1 -5 2.5 -10.5t9 -10
t11.5 -8t11 -4.5l-6 -32h-264zM418 598h-53l-39 -222h102l30 170q3 17 -7 34.5t-33 17.5zM508 674h-118l-50 92h126z" />
    <glyph glyph-name="FL00E1h" unicode="&#xe1;" horiz-adv-x="623" 
d="M35 0l6 32q11 3 26 12.5t17 20.5l91 514q2 11 -10 20t-22 12l5 32h359q9 0 34.5 -1t51.5 -7t44.5 -19t14.5 -37l-106 -599q-2 -12 7 -19.5t22.5 -12t27.5 -6t23 -1.5l-7 -35h-132q-19 0 -41.5 4t-41.5 13t-31 23t-9 34l62 350h-108l-47 -265q-1 -5 2.5 -10.5t9 -10
t11.5 -8t11 -4.5l-6 -32h-264zM418 598h-53l-39 -222h102l30 170q3 17 -7 34.5t-33 17.5zM457 674h-117l72 92h127z" />
    <glyph glyph-name="FL00E2h" unicode="&#xe2;" horiz-adv-x="623" 
d="M35 0l6 32q11 3 26 12.5t17 20.5l91 514q2 11 -10 20t-22 12l5 32h359q9 0 34.5 -1t51.5 -7t44.5 -19t14.5 -37l-106 -599q-2 -12 7 -19.5t22.5 -12t27.5 -6t23 -1.5l-7 -35h-132q-19 0 -41.5 4t-41.5 13t-31 23t-9 34l62 350h-108l-47 -265q-1 -5 2.5 -10.5t9 -10
t11.5 -8t11 -4.5l-6 -32h-264zM418 598h-53l-39 -222h102l30 170q3 17 -7 34.5t-33 17.5zM406 674h-119l74 92h162l41 -92h-116l-15 40z" />
    <glyph glyph-name="FL00E3h" unicode="&#xe3;" horiz-adv-x="623" 
d="M35 0l6 32q11 3 26 12.5t17 20.5l91 514q2 11 -10 20t-22 12l5 32h359q9 0 34.5 -1t51.5 -7t44.5 -19t14.5 -37l-106 -599q-2 -12 7 -19.5t22.5 -12t27.5 -6t23 -1.5l-7 -35h-132q-19 0 -41.5 4t-41.5 13t-31 23t-9 34l62 350h-108l-47 -265q-1 -5 2.5 -10.5t9 -10
t11.5 -8t11 -4.5l-6 -32h-264zM418 598h-53l-39 -222h102l30 170q3 17 -7 34.5t-33 17.5zM466 766h118l-73 -92h-84l-14 40l-29 -40h-117l73 92h84l15 -40z" />
    <glyph glyph-name="FL00E4h" unicode="&#xe4;" horiz-adv-x="623" 
d="M35 0l6 32q11 3 26 12.5t17 20.5l91 514q2 11 -10 20t-22 12l5 32h359q9 0 34.5 -1t51.5 -7t44.5 -19t14.5 -37l-106 -599q-2 -12 7 -19.5t22.5 -12t27.5 -6t23 -1.5l-7 -35h-132q-19 0 -41.5 4t-41.5 13t-31 23t-9 34l62 350h-108l-47 -265q-1 -5 2.5 -10.5t9 -10
t11.5 -8t11 -4.5l-6 -32h-264zM418 598h-53l-39 -222h102l30 170q3 17 -7 34.5t-33 17.5zM293 720q3 19 22 32.5t44 13.5q26 0 40.5 -13.5t11.5 -32.5q-4 -20 -23 -33.5t-45 -13.5q-25 0 -39.5 13.5t-10.5 33.5zM573 720q-4 -20 -23 -33.5t-45 -13.5q-25 0 -39.5 13.5
t-10.5 33.5q3 19 22 32.5t44 13.5q26 0 40.5 -13.5t11.5 -32.5z" />
    <glyph glyph-name="FL00E5h" unicode="&#xe5;" horiz-adv-x="623" 
d="M374 720q-4 -20 11.5 -33.5t40.5 -13.5q26 0 44.5 13.5t22.5 33.5q3 19 -11 32.5t-40 13.5q-25 0 -45 -13.5t-23 -32.5zM365 598h53q23 0 33 -17.5t7 -34.5l-30 -170h-102zM41 32l-6 -32h264l6 32q-5 1 -11 4.5t-11.5 8t-9 10t-2.5 10.5l47 265h108l-62 -350
q-3 -20 9 -34t31 -23t41.5 -13t41.5 -4h132l7 35q-9 0 -23 1.5t-27.5 6t-22.5 12t-7 19.5l106 599q4 24 -14.5 37t-44.5 19t-51.5 7t-34.5 1h-359l-5 -32q10 -3 22 -12t10 -20l-91 -514q-2 -11 -17 -20.5t-26 -12.5zM446 720q-2 -9 -14 -9q-13 0 -11 9q1 9 15 9q11 0 10 -9z
" />
    <glyph glyph-name="FL00E6h" unicode="&#xe6;" horiz-adv-x="925" 
d="M28 0l6 32q11 3 26.5 12.5t17.5 20.5l91 514q2 11 -10.5 20t-22.5 12l5 32h826l-36 -209q-2 -11 10.5 -24t26.5 -15l-6 -34h-110q-18 1 -38.5 6.5t-37 15t-26 23.5t-6.5 33l26 144q2 9 -12 17.5t-32 10.5q-14 -2 -32 -11.5t-20 -20.5l-41 -231q22 0 37.5 7.5t20.5 38.5
h46l-24 -136h-46l2 6q5 27 -7.5 33.5t-35.5 6.5l-43 -239q-2 -11 13 -20t32 -14q15 2 31 8.5t19 20.5l25 144q3 19 17.5 33.5t35 24t42.5 15t40 6.5h110l-6 -35q-14 -4 -31.5 -15t-19.5 -23l-37 -210h-292l-4 -20q-2 -12 4.5 -19.5t16.5 -12t21.5 -6t19.5 -1.5l-7 -35h-132
q-19 0 -41.5 4t-41.5 13t-31 23t-9 34l62 350h-108l-47 -265q-2 -11 10.5 -20.5t23.5 -12.5l-6 -32h-265zM412 598h-53l-39 -222h101l30 170q3 17 -6.5 34.5t-32.5 17.5z" />
    <glyph glyph-name="FL00ECh" unicode="&#xe7;" horiz-adv-x="566" 
d="M368 599q-28 -5 -39 -16.5t-16 -27.5l-82 -464q-3 -19 4.5 -33t30.5 -14h4q17 0 34 14t20 30l20 116q3 19 17.5 33.5t34.5 24t42 15t40 6.5h110l-6 -35q-14 -4 -31.5 -15t-19.5 -23l-26 -145q-3 -15 -22.5 -27.5t-44 -20.5t-47.5 -12.5t-32 -4.5h-76l-7 -41
q-2 -9 -1.5 -16.5t5 -13t15 -8.5t29.5 -3l-7 -39h-172l7 39h6q16 0 26 3t16.5 8.5t11.5 13l11 16.5l7 41h-78q-15 0 -35.5 4.5t-38.5 12.5t-30 20.5t-9 27.5l91 511q4 24 20 37.5t37 20t42 8t36 1.5h218q14 0 35 -1t39.5 -7t30.5 -19.5t8 -37.5l-26 -145q-1 -6 2.5 -12
t9 -12t12.5 -10t13 -5l-6 -34h-110q-18 1 -38 6.5t-36 15t-25.5 23.5t-6.5 33l19 108q3 17 -5 35t-31 18z" />
    <glyph glyph-name="FL00E8h" unicode="&#xe8;" horiz-adv-x="612" 
d="M457 583q2 9 -12 17.5t-32 10.5q-14 -2 -32 -11.5t-20 -20.5l-41 -231q22 0 37 7.5t20 38.5h47l-24 -136h-47l2 6q5 27 -7 33.5t-35 6.5l-43 -239q-2 -11 12.5 -20t32.5 -14q15 2 31 8.5t19 20.5l25 144q3 19 17.5 33.5t35 24t42.5 15t40 6.5h109l-6 -35q-14 -4 -31 -15
t-19 -23l-37 -210h-513l6 32q11 3 26.5 12.5t17.5 20.5l91 514q2 11 -10.5 20t-22.5 12l5 32h513l-36 -209q-2 -11 10 -24t26 -15l-6 -34h-109q-18 1 -38.5 6.5t-37 15t-26 23.5t-6.5 33zM508 674h-118l-50 92h126z" />
    <glyph glyph-name="FL00E9h" unicode="&#xe9;" horiz-adv-x="612" 
d="M457 583q2 9 -12 17.5t-32 10.5q-14 -2 -32 -11.5t-20 -20.5l-41 -231q22 0 37 7.5t20 38.5h47l-24 -136h-47l2 6q5 27 -7 33.5t-35 6.5l-43 -239q-2 -11 12.5 -20t32.5 -14q15 2 31 8.5t19 20.5l25 144q3 19 17.5 33.5t35 24t42.5 15t40 6.5h109l-6 -35q-14 -4 -31 -15
t-19 -23l-37 -210h-513l6 32q11 3 26.5 12.5t17.5 20.5l91 514q2 11 -10.5 20t-22.5 12l5 32h513l-36 -209q-2 -11 10 -24t26 -15l-6 -34h-109q-18 1 -38.5 6.5t-37 15t-26 23.5t-6.5 33zM457 674h-117l72 92h127z" />
    <glyph glyph-name="FL00EAh" unicode="&#xea;" horiz-adv-x="612" 
d="M457 583q2 9 -12 17.5t-32 10.5q-14 -2 -32 -11.5t-20 -20.5l-41 -231q22 0 37 7.5t20 38.5h47l-24 -136h-47l2 6q5 27 -7 33.5t-35 6.5l-43 -239q-2 -11 12.5 -20t32.5 -14q15 2 31 8.5t19 20.5l25 144q3 19 17.5 33.5t35 24t42.5 15t40 6.5h109l-6 -35q-14 -4 -31 -15
t-19 -23l-37 -210h-513l6 32q11 3 26.5 12.5t17.5 20.5l91 514q2 11 -10.5 20t-22.5 12l5 32h513l-36 -209q-2 -11 10 -24t26 -15l-6 -34h-109q-18 1 -38.5 6.5t-37 15t-26 23.5t-6.5 33zM406 674h-119l74 92h162l41 -92h-116l-15 40z" />
    <glyph glyph-name="FL00EBh" unicode="&#xeb;" horiz-adv-x="612" 
d="M457 583q2 9 -12 17.5t-32 10.5q-14 -2 -32 -11.5t-20 -20.5l-41 -231q22 0 37 7.5t20 38.5h47l-24 -136h-47l2 6q5 27 -7 33.5t-35 6.5l-43 -239q-2 -11 12.5 -20t32.5 -14q15 2 31 8.5t19 20.5l25 144q3 19 17.5 33.5t35 24t42.5 15t40 6.5h109l-6 -35q-14 -4 -31 -15
t-19 -23l-37 -210h-513l6 32q11 3 26.5 12.5t17.5 20.5l91 514q2 11 -10.5 20t-22.5 12l5 32h513l-36 -209q-2 -11 10 -24t26 -15l-6 -34h-109q-18 1 -38.5 6.5t-37 15t-26 23.5t-6.5 33zM293 720q3 19 22 32.5t44 13.5q26 0 40.5 -13.5t11.5 -32.5q-4 -20 -23 -33.5
t-45 -13.5q-25 0 -39.5 13.5t-10.5 33.5zM573 720q-4 -20 -23 -33.5t-45 -13.5q-25 0 -39.5 13.5t-10.5 33.5q3 19 22 32.5t44 13.5q26 0 40.5 -13.5t11.5 -32.5z" />
    <glyph glyph-name="FL00F7h" unicode="&#xec;" horiz-adv-x="326" 
d="M370 674h-118l-50 92h126zM304 32l-6 -32h-270l6 32q11 3 26.5 12.5t17.5 20.5l91 514q2 11 -10.5 20t-22.5 12l5 32h270l-5 -32q-11 -3 -27 -12t-18 -20l-91 -514q-1 -5 2.5 -10.5t8.5 -10t11.5 -8t11.5 -4.5z" />
    <glyph glyph-name="FL00EDh" unicode="&#xed;" horiz-adv-x="326" 
d="M28 0l6 32q11 3 26.5 12.5t17.5 20.5l91 514q2 11 -10.5 20t-22.5 12l5 32h270l-5 -32q-11 -3 -27 -12t-18 -20l-91 -514q-1 -5 2.5 -10.5t8.5 -10t11.5 -8t11.5 -4.5l-6 -32h-270zM312 674h-117l73 92h126z" />
    <glyph glyph-name="FL00EEh" unicode="&#xee;" horiz-adv-x="326" 
d="M28 0l6 32q11 3 26.5 12.5t17.5 20.5l91 514q2 11 -10.5 20t-22.5 12l5 32h270l-5 -32q-11 -3 -27 -12t-18 -20l-91 -514q-1 -5 2.5 -10.5t8.5 -10t11.5 -8t11.5 -4.5l-6 -32h-270zM263 674h-118l73 92h162l41 -92h-116l-15 40z" />
    <glyph glyph-name="FL00EFh" unicode="&#xef;" horiz-adv-x="326" 
d="M28 0l6 32q11 3 26.5 12.5t17.5 20.5l91 514q2 11 -10.5 20t-22.5 12l5 32h270l-5 -32q-11 -3 -27 -12t-18 -20l-91 -514q-1 -5 2.5 -10.5t8.5 -10t11.5 -8t11.5 -4.5l-6 -32h-270zM150 720q3 19 22.5 32.5t44.5 13.5t40 -13.5t12 -32.5q-4 -20 -23.5 -33.5t-44.5 -13.5
t-40 13.5t-11 33.5zM431 720q-4 -20 -23.5 -33.5t-44.5 -13.5t-40 13.5t-11 33.5q3 19 22.5 32.5t44.5 13.5t40 -13.5t12 -32.5z" />
    <glyph glyph-name="FL00F0h" unicode="&#xf0;" horiz-adv-x="566" 
d="M82 65q-3 -15 12.5 -27.5t37.5 -20.5t44 -12.5t32 -4.5h206q14 0 36 4.5t43 12.5t37 20.5t19 27.5l91 511q4 24 -7.5 37.5t-30.5 20t-40 8t-35 1.5h-217q-15 0 -36.5 -1t-42.5 -7t-37.5 -19.5t-20.5 -37.5l-13 -72q-1 -5 -6 -11.5t-12.5 -12t-16 -10t-15.5 -5.5l-6 -34
h109q19 1 41 6.5t42 15t34.5 23.5t17.5 33l6 35q1 9 6 18t12.5 17t17.5 13t21 5q25 -5 32 -16.5t7 -27.5l-22 -125q-17 -27 -51 -37h-176q-29 -12 -49.5 -32t-22.5 -33zM314 328q22 28 54 28q14 0 25.5 -6t16.5 -19l-42 -240q-3 -19 -16 -33t-36 -14h-3q-17 0 -29.5 14
t-11.5 30z" />
    <glyph glyph-name="FL00F1h" unicode="&#xf1;" horiz-adv-x="605" 
d="M580 766h-117l-28 -40l-14 40h-86l-72 -92h118l27 40l15 -40h84zM647 578h-1v1q1 6 6 11t12 9t14 7t12 5l5 32h-263l-5 -32q3 -2 9.5 -5t12 -6.5t9.5 -7.5t3 -7l-44 -251l-119 245q-2 10 -9 21.5t-15.5 21t-17 15.5t-13.5 6h-102l-5 -32q10 -3 22.5 -12t10.5 -20
l-91 -514q-2 -11 -17.5 -20.5t-26.5 -12.5l-6 -32h265l6 32q-11 3 -23.5 12.5t-10.5 20.5l40 227l125 -230q0 -9 5 -20t13.5 -20t18.5 -15.5t20 -6.5h58z" />
    <glyph glyph-name="FL00F2h" unicode="&#xf2;" horiz-adv-x="523" 
d="M368 599q-11 0 -21 -5t-17.5 -13t-12.5 -17t-6 -18l-80 -455q-3 -19 4.5 -33t30.5 -14q32 0 43.5 16.5t16.5 42.5l78 443q3 17 -5 35t-31 18zM265 643h218q14 0 35 -1.5t39.5 -8.5t30 -21.5t7.5 -39.5l-90 -507q-3 -15 -19 -27.5t-36.5 -20.5t-42 -12.5t-36.5 -4.5h-219
q-15 0 -35.5 4.5t-38.5 12.5t-30 20.5t-9 27.5l90 510q4 24 20.5 37.5t37.5 20.5t42.5 8.5t35.5 1.5zM467 674h-118l-50 92h126z" />
    <glyph glyph-name="FL00F3h" unicode="&#xf3;" horiz-adv-x="523" 
d="M368 599q-11 0 -21 -5t-17.5 -13t-12.5 -17t-6 -18l-80 -455q-3 -19 4.5 -33t30.5 -14q32 0 43.5 16.5t16.5 42.5l78 443q3 17 -5 35t-31 18zM265 643h218q14 0 35 -1.5t39.5 -8.5t30 -21.5t7.5 -39.5l-90 -507q-3 -15 -19 -27.5t-36.5 -20.5t-42 -12.5t-36.5 -4.5h-219
q-15 0 -35.5 4.5t-38.5 12.5t-30 20.5t-9 27.5l90 510q4 24 20.5 37.5t37.5 20.5t42.5 8.5t35.5 1.5zM412 674h-118l74 92h126z" />
    <glyph glyph-name="FL00F4h" unicode="&#xf4;" horiz-adv-x="523" 
d="M265 643h218q14 0 35 -1.5t39.5 -8.5t30 -21.5t7.5 -39.5l-90 -507q-3 -15 -19 -27.5t-36.5 -20.5t-42 -12.5t-36.5 -4.5h-219q-15 0 -35.5 4.5t-38.5 12.5t-30 20.5t-9 27.5l90 510q4 24 20.5 37.5t37.5 20.5t42.5 8.5t35.5 1.5zM368 599q-11 0 -21 -5t-17.5 -13
t-12.5 -17t-6 -18l-80 -455q-3 -19 4.5 -33t30.5 -14q32 0 43.5 16.5t16.5 42.5l78 443q3 17 -5 35t-31 18zM360 674h-117l72 92h162l42 -92h-117l-14 40z" />
    <glyph glyph-name="FL00F5h" unicode="&#xf5;" horiz-adv-x="523" 
d="M265 643h218q14 0 35 -1.5t39.5 -8.5t30 -21.5t7.5 -39.5l-90 -507q-3 -15 -19 -27.5t-36.5 -20.5t-42 -12.5t-36.5 -4.5h-219q-15 0 -35.5 4.5t-38.5 12.5t-30 20.5t-9 27.5l90 510q4 24 20.5 37.5t37.5 20.5t42.5 8.5t35.5 1.5zM368 599q-11 0 -21 -5t-17.5 -13
t-12.5 -17t-6 -18l-80 -455q-3 -19 4.5 -33t30.5 -14q32 0 43.5 16.5t16.5 42.5l78 443q3 17 -5 35t-31 18zM424 766h118l-73 -92h-85l-14 40l-28 -40h-117l73 92h84l15 -40z" />
    <glyph glyph-name="FL00F6h" unicode="&#xf6;" horiz-adv-x="523" 
d="M368 599q-11 0 -21 -5t-17.5 -13t-12.5 -17t-6 -18l-80 -455q-3 -19 4.5 -33t30.5 -14q32 0 43.5 16.5t16.5 42.5l78 443q3 17 -5 35t-31 18zM265 643h218q14 0 35 -1.5t39.5 -8.5t30 -21.5t7.5 -39.5l-90 -507q-3 -15 -19 -27.5t-36.5 -20.5t-42 -12.5t-36.5 -4.5h-219
q-15 0 -35.5 4.5t-38.5 12.5t-30 20.5t-9 27.5l90 510q4 24 20.5 37.5t37.5 20.5t42.5 8.5t35.5 1.5zM248 720q3 19 22 32.5t45 13.5t40.5 -13.5t11.5 -32.5q-4 -20 -23 -33.5t-45 -13.5t-40.5 13.5t-10.5 33.5zM529 720q-4 -20 -23 -33.5t-45 -13.5t-40.5 13.5t-10.5 33.5
q3 19 22 32.5t45 13.5t40.5 -13.5t11.5 -32.5z" />
    <glyph glyph-name="FL0100h" unicode="&#xf7;" horiz-adv-x="386" 
d="M186 348h138q22 0 37 7.5t20 38.5h47l-24 -136h-47l2 6q2 14 -0.5 20.5t-8.5 9.5t-14.5 4.5t-18.5 5.5h-138q-25 0 -39 -6.5t-19 -33.5l-2 -6h-46l24 136h46q-5 -31 7.5 -38.5t35.5 -7.5zM214 442q3 19 22 32.5t44 13.5q26 0 40.5 -13.5t11.5 -32.5q-4 -20 -23 -33.5
t-45 -13.5q-25 0 -39.5 13.5t-10.5 33.5zM291 211q-4 -20 -23 -33t-45 -13q-25 0 -39.5 13t-10.5 33t22.5 33t43.5 13q26 0 41 -13t11 -33z" />
    <glyph glyph-name="FL00F8h" unicode="&#xf8;" horiz-adv-x="523" 
d="M265 643h218q14 0 35 -1.5t39.5 -8.5t30 -21.5t7.5 -39.5l-90 -507q-3 -15 -19 -27.5t-36.5 -20.5t-42 -12.5t-36.5 -4.5h-219q-15 0 -35.5 4.5t-38.5 12.5t-30 20.5t-9 27.5l90 510q4 24 20.5 37.5t37.5 20.5t42.5 8.5t35.5 1.5zM266 44q32 0 43.5 16.5t16.5 42.5
l44 248l-129 -205l-10 -55q-3 -19 4.5 -33t30.5 -14zM368 599q-11 0 -21 -5t-17.5 -13t-12.5 -17t-6 -18l-40 -231l129 207l4 24q3 17 -5 35t-31 18z" />
    <glyph glyph-name="FL00F9h" unicode="&#xf9;" 
d="M689 609q-14 -3 -30.5 -15t-18.5 -23l-90 -506q-3 -15 -22.5 -27.5t-44 -20.5t-47.5 -12.5t-33 -4.5h-195q-10 0 -32 4.5t-44 12.5t-37.5 20.5t-12.5 27.5l90 506q2 12 -10.5 23t-26.5 15l6 34h109q18 -1 38.5 -6t37 -14.5t26 -24t6.5 -33.5l-84 -477q-3 -16 9.5 -30
t29.5 -14h1q17 0 34 14t20 30l84 477q3 19 17.5 33.5t34.5 24t42 14.5t40 6h109zM508 674h-118l-50 92h126z" />
    <glyph glyph-name="FL00FAh" unicode="&#xfa;" 
d="M689 609q-14 -3 -30.5 -15t-18.5 -23l-90 -506q-3 -15 -22.5 -27.5t-44 -20.5t-47.5 -12.5t-33 -4.5h-195q-10 0 -32 4.5t-44 12.5t-37.5 20.5t-12.5 27.5l90 506q2 12 -10.5 23t-26.5 15l6 34h109q18 -1 38.5 -6t37 -14.5t26 -24t6.5 -33.5l-84 -477q-3 -16 9.5 -30
t29.5 -14h1q17 0 34 14t20 30l84 477q3 19 17.5 33.5t34.5 24t42 14.5t40 6h109zM457 674h-117l72 92h127z" />
    <glyph glyph-name="FL00FBh" unicode="&#xfb;" 
d="M689 609q-14 -3 -30.5 -15t-18.5 -23l-90 -506q-3 -15 -22.5 -27.5t-44 -20.5t-47.5 -12.5t-33 -4.5h-195q-10 0 -32 4.5t-44 12.5t-37.5 20.5t-12.5 27.5l90 506q2 12 -10.5 23t-26.5 15l6 34h109q18 -1 38.5 -6t37 -14.5t26 -24t6.5 -33.5l-84 -477q-3 -16 9.5 -30
t29.5 -14h1q17 0 34 14t20 30l84 477q3 19 17.5 33.5t34.5 24t42 14.5t40 6h109zM406 674h-119l74 92h162l41 -92h-116l-15 40z" />
    <glyph glyph-name="FL00FCh" unicode="&#xfc;" 
d="M689 609q-14 -3 -30.5 -15t-18.5 -23l-90 -506q-3 -15 -22.5 -27.5t-44 -20.5t-47.5 -12.5t-33 -4.5h-195q-10 0 -32 4.5t-44 12.5t-37.5 20.5t-12.5 27.5l90 506q2 12 -10.5 23t-26.5 15l6 34h109q18 -1 38.5 -6t37 -14.5t26 -24t6.5 -33.5l-84 -477q-3 -16 9.5 -30
t29.5 -14h1q17 0 34 14t20 30l84 477q3 19 17.5 33.5t34.5 24t42 14.5t40 6h109zM293 720q3 19 22 32.5t44 13.5q26 0 40.5 -13.5t11.5 -32.5q-4 -20 -23 -33.5t-45 -13.5q-25 0 -39.5 13.5t-10.5 33.5zM573 720q-4 -20 -23 -33.5t-45 -13.5q-25 0 -39.5 13.5t-10.5 33.5
q3 19 22 32.5t44 13.5q26 0 40.5 -13.5t11.5 -32.5z" />
    <glyph glyph-name="FL00FDh" unicode="&#xfd;" 
d="M695 643l-6 -34q-14 -3 -30.5 -15t-18.5 -23l-90 -506q-3 -15 -19 -27.5t-37 -20.5t-42.5 -12.5t-36.5 -4.5h-206q-10 0 -32 4.5t-44 12.5t-37.5 20.5t-12.5 27.5l26 145q2 11 -10.5 23t-25.5 15l6 35h109q18 -1 38 -6.5t36.5 -15t26 -24t6.5 -33.5l-20 -116
q-3 -16 9.5 -30t29.5 -14h2q25 0 37 14t15 33l31 175q0 16 -6.5 27t-29.5 17h-100q-17 0 -39.5 5t-42.5 13.5t-33 20t-11 25.5l35 197q2 12 -10.5 23t-26.5 15l6 34h109q18 -1 38.5 -6t37 -14.5t26 -24t6.5 -33.5l-31 -173q1 -14 9 -25t22 -14h18q17 3 30 16t16 27l30 169
q3 19 17.5 33.5t34.5 24t42 14.5t40 6h109zM457 674h-117l72 92h127z" />
    <glyph glyph-name="FL00FEh" unicode="&#xfe;" horiz-adv-x="562" 
d="M28 0l6 32q11 3 26.5 12.5t17.5 20.5l91 514q2 11 -10.5 20t-22.5 12l5 32h265l-5 -32q-12 -3 -27.5 -12t-17.5 -20l-16 -93h135q9 0 32.5 -1.5t47.5 -8t40.5 -20t12.5 -37.5l-33 -188q-4 -23 -21 -36t-40 -20t-49.5 -9t-49.5 -2h-132l-18 -99q-2 -11 10.5 -20.5
t23.5 -12.5l-6 -32h-265zM376 441h-44l-41 -231h44q11 2 29 14.5t29 35.5l23 129q2 16 -7 34t-33 18z" />
    <glyph glyph-name="FL00FFh" unicode="&#xff;" 
d="M695 643l-6 -34q-14 -3 -30.5 -15t-18.5 -23l-90 -506q-3 -15 -19 -27.5t-37 -20.5t-42.5 -12.5t-36.5 -4.5h-206q-10 0 -32 4.5t-44 12.5t-37.5 20.5t-12.5 27.5l26 145q2 11 -10.5 23t-25.5 15l6 35h109q18 -1 38 -6.5t36.5 -15t26 -24t6.5 -33.5l-20 -116
q-3 -16 9.5 -30t29.5 -14h2q25 0 37 14t15 33l31 175q0 16 -6.5 27t-29.5 17h-100q-17 0 -39.5 5t-42.5 13.5t-33 20t-11 25.5l35 197q2 12 -10.5 23t-26.5 15l6 34h109q18 -1 38.5 -6t37 -14.5t26 -24t6.5 -33.5l-31 -173q1 -14 9 -25t22 -14h18q17 3 30 16t16 27l30 169
q3 19 17.5 33.5t34.5 24t42 14.5t40 6h109zM293 720q3 19 22 32.5t44 13.5q26 0 40.5 -13.5t11.5 -32.5q-4 -20 -23 -33.5t-45 -13.5q-25 0 -39.5 13.5t-10.5 33.5zM573 720q-4 -20 -23 -33.5t-45 -13.5q-25 0 -39.5 13.5t-10.5 33.5q3 19 22 32.5t44 13.5q26 0 40.5 -13.5
t11.5 -32.5z" />
    <glyph glyph-name="FL0152h" unicode="&#x152;" horiz-adv-x="1086" 
d="M931 732q2 11 -13 21.5t-35 12.5q-8 -1 -17.5 -5t-18 -9.5t-15 -12.5t-7.5 -14l-51 -289q26 0 41.5 10t22.5 49h52l-30 -171h-52l1 6q6 34 -6.5 43t-38.5 9l-53 -300q-2 -14 13 -25.5t35 -17.5q16 2 34.5 10t21.5 27l32 180q4 24 20.5 42t39 30t47 18.5t44.5 8.5h120
l-8 -44q-7 -3 -16 -8t-17.5 -11.5t-15 -14t-7.5 -14.5l-46 -263h-841q-16 0 -38.5 5.5t-42.5 16t-33 25.5t-10 35l113 641q6 31 24.5 48t41.5 25t46.5 9.5t40.5 1.5h841l-46 -263q-1 -6 2.5 -14t9 -15t13 -12.5t13.5 -6.5l-7 -43h-120q-20 1 -42 7.5t-40 19t-28 30.5t-6 42z
M420 752q-31 -6 -43 -20.5t-19 -34.5l-103 -583q-4 -23 4.5 -40.5t33.5 -17.5h4q19 0 38 17.5t23 37.5l25 145q4 24 20.5 42t39 30t47.5 18.5t45 8.5h13l17 97h-13q-20 1 -42.5 8t-40.5 19t-28 29.5t-6 40.5l24 137q2 10 0.5 21.5t-6 21.5t-13 16.5t-20.5 6.5z" />
    <glyph glyph-name="FL0153h" unicode="&#x153;" horiz-adv-x="952" 
d="M797 583q2 9 -13 17.5t-33 10.5q-14 -2 -31 -11.5t-19 -20.5l-41 -231q22 0 37 7.5t20 38.5h47l-24 -136h-47l2 6q5 27 -7 33.5t-35 6.5l-43 -239q-2 -11 11.5 -20t32.5 -14q14 2 31 8.5t20 20.5l25 144q3 19 17.5 33.5t34.5 24t42 15t41 6.5h109l-6 -35q-14 -4 -31 -15
t-19 -23l-37 -210h-729q-15 0 -35.5 4.5t-38.5 12.5t-30 20.5t-9 27.5l91 511q4 24 20 37.5t37 20t42 8t36 1.5h729l-36 -209q-1 -5 1.5 -11t8 -12t12.5 -10.5t14 -5.5l-6 -34h-109q-18 1 -38.5 6.5t-37 15t-26 23.5t-6.5 33zM368 599q-28 -5 -39 -16.5t-16 -27.5l-82 -464
q-3 -19 4.5 -33t30.5 -14h4q17 0 34 14t20 30l20 116q3 16 14 29t26.5 22.5t34 15.5t36.5 9l15 83q-18 3 -34.5 9t-28.5 15.5t-18.5 22t-3.5 28.5l19 108q3 17 -5 35t-31 18z" />
    <glyph glyph-name="FL0160h" unicode="&#x160;" horiz-adv-x="610" 
d="M411 599q-28 -5 -38.5 -16.5t-16.5 -27.5l-28 -156q-3 -17 2.5 -30t21.5 -16h124q14 0 35 -1t40 -7.5t30.5 -20t7.5 -37.5l-40 -222q-3 -15 -19 -27.5t-37 -20.5t-43 -12.5t-36 -4.5h-206q-10 0 -32 4.5t-44 12.5t-37.5 20.5t-12.5 27.5l26 145q2 11 -10.5 23t-25.5 15
l6 35h109q18 -1 38 -6.5t36.5 -15t26 -24t6.5 -33.5l-20 -116q-3 -16 9.5 -30t29.5 -14h3q23 0 36 14t16 33l31 175q0 16 -7 27.5t-32 16.5h-109q-15 0 -35.5 4t-39 12t-30.5 20t-9 27l36 203q4 24 20 37.5t37 20t42.5 8t36.5 1.5h217q14 0 35 -1t40 -7t31 -19.5t8 -37.5
l-22 -127q-2 -11 10 -24t26 -15l-6 -34h-109q-18 1 -38 6.5t-36.5 15t-26 23.5t-6.5 33l16 90q3 17 -5.5 35t-31.5 18zM461 766h118l-74 -92h-162l-40 92h116l15 -40z" />
    <glyph glyph-name="FL0161h" unicode="&#x161;" horiz-adv-x="610" 
d="M411 599q-28 -5 -38.5 -16.5t-16.5 -27.5l-28 -156q-3 -17 2.5 -30t21.5 -16h124q14 0 35 -1t40 -7.5t30.5 -20t7.5 -37.5l-40 -222q-3 -15 -19 -27.5t-37 -20.5t-43 -12.5t-36 -4.5h-206q-10 0 -32 4.5t-44 12.5t-37.5 20.5t-12.5 27.5l26 145q2 11 -10.5 23t-25.5 15
l6 35h109q18 -1 38 -6.5t36.5 -15t26 -24t6.5 -33.5l-20 -116q-3 -16 9.5 -30t29.5 -14h3q23 0 36 14t16 33l31 175q0 16 -7 27.5t-32 16.5h-109q-15 0 -35.5 4t-39 12t-30.5 20t-9 27l36 203q4 24 20 37.5t37 20t42.5 8t36.5 1.5h217q14 0 35 -1t40 -7t31 -19.5t8 -37.5
l-22 -127q-2 -11 10 -24t26 -15l-6 -34h-109q-18 1 -38 6.5t-36.5 15t-26 23.5t-6.5 33l16 90q3 17 -5.5 35t-31.5 18zM461 766h118l-74 -92h-162l-40 92h116l15 -40z" />
    <glyph glyph-name="FL0178h" unicode="&#x178;" 
d="M695 643l-6 -34q-14 -3 -30.5 -15t-18.5 -23l-90 -506q-3 -15 -19 -27.5t-37 -20.5t-42.5 -12.5t-36.5 -4.5h-206q-10 0 -32 4.5t-44 12.5t-37.5 20.5t-12.5 27.5l26 145q2 11 -10.5 23t-25.5 15l6 35h109q18 -1 38 -6.5t36.5 -15t26 -24t6.5 -33.5l-20 -116
q-3 -16 9.5 -30t29.5 -14h2q25 0 37 14t15 33l31 175q0 16 -6.5 27t-29.5 17h-100q-17 0 -39.5 5t-42.5 13.5t-33 20t-11 25.5l35 197q2 12 -10.5 23t-26.5 15l6 34h109q18 -1 38.5 -6t37 -14.5t26 -24t6.5 -33.5l-31 -173q1 -14 9 -25t22 -14h18q17 3 30 16t16 27l30 169
q3 19 17.5 33.5t34.5 24t42 14.5t40 6h109zM293 720q3 19 22 32.5t44 13.5q26 0 40.5 -13.5t11.5 -32.5q-4 -20 -23 -33.5t-45 -13.5q-25 0 -39.5 13.5t-10.5 33.5zM573 720q-4 -20 -23 -33.5t-45 -13.5q-25 0 -39.5 13.5t-10.5 33.5q3 19 22 32.5t44 13.5q26 0 40.5 -13.5
t11.5 -32.5z" />
    <glyph glyph-name="FL0192h" unicode="&#x192;" 
d="M34 34q14 4 31 15.5t19 23.5l89 506q3 15 22.5 27t43.5 20t47 12.5t33 4.5h196q9 0 31 -4.5t43.5 -12.5t37.5 -20t13 -27l-89 -506q-2 -11 10.5 -23t25.5 -16l-6 -34h-109q-18 1 -38 6.5t-36 15t-25.5 23.5t-6.5 33l84 477q3 17 -9.5 30.5t-29.5 13.5h-1
q-17 0 -34.5 -13.5t-20.5 -30.5l-84 -477q-3 -19 -17.5 -33t-34.5 -23.5t-42 -15t-41 -6.5h-108z" />
    <glyph glyph-name="FL02C6h" unicode="&#x2c6;" horiz-adv-x="332" 
d="M257 628h-118l73 92h162l42 -92h-117l-14 40z" />
    <glyph glyph-name="FL02DCh" unicode="&#x2dc;" horiz-adv-x="358" 
d="M338 720h119l-74 -92h-84l-14 40l-28 -40h-118l73 92h84l15 -40z" />
    <glyph glyph-name="FL2013h" unicode="&#x2013;" horiz-adv-x="308" 
d="M179 304q-25 0 -39 -6.5t-19 -33.5l-2 -6h-46l24 136h46q-5 -31 7.5 -38.5t35.5 -7.5h59q21 0 36.5 7.5t20.5 38.5h47l-24 -136h-47l2 6q2 14 -0.5 20.5t-8.5 9.5t-14.5 4.5t-18.5 5.5h-59z" />
    <glyph glyph-name="FL2014h" unicode="&#x2014;" horiz-adv-x="386" 
d="M186 348h138q22 0 37 7.5t20 38.5h47l-24 -136h-47l2 6q2 14 -0.5 20.5t-8.5 9.5t-14.5 4.5t-18.5 5.5h-138q-25 0 -39 -6.5t-19 -33.5l-2 -6h-46l24 136h46q-5 -31 7.5 -38.5t35.5 -7.5z" />
    <glyph glyph-name="FL2018h" unicode="&#x2018;" horiz-adv-x="288" 
d="M288 409l29 162q2 13 19 23t29 14q0 1 1 1l6 34h-110q-18 -2 -40 -7.5t-42.5 -15t-35 -23.5t-17.5 -33l-27 -156h188v1z" />
    <glyph glyph-name="FL2019h" unicode="&#x2019;" horiz-adv-x="288" 
d="M184 643l-28 -162q-3 -14 -19 -24.5t-30 -13.5v-1h-1l-6 -34h110q18 1 40 6.5t42.5 15.5t35 24.5t17.5 32.5l27 156h-188z" />
    <glyph glyph-name="FL201Ah" unicode="&#x201a;" horiz-adv-x="245" 
d="M41 71q6 30 36.5 50.5t71.5 20.5q38 0 61 -20.5t18 -50.5l-2 -7l-2 -13q-2 -8 -3.5 -23.5t-6.5 -41.5q-3 -18 -17.5 -32.5t-35 -24.5t-43 -16t-40.5 -7h-111l7 35h2q14 4 30 14.5t18 23.5z" />
    <glyph glyph-name="FL201Ch" unicode="&#x201c;" horiz-adv-x="515" 
d="M515 409l29 162q2 13 19 23t29 14q0 1 1 1l6 34h-110q-18 -2 -40.5 -7.5t-42.5 -15t-35 -23.5t-18 -33l-27 -156h189v1zM288 409l29 162q2 13 19 23t29 14q0 1 1 1l6 34h-110q-18 -2 -40 -7.5t-42.5 -15t-35 -23.5t-17.5 -33l-27 -156h188v1z" />
    <glyph glyph-name="FL201Dh" unicode="&#x201d;" horiz-adv-x="515" 
d="M184 643l-28 -162q-3 -14 -19 -24.5t-30 -13.5v-1h-1l-6 -34h110q18 1 40 6.5t42.5 15.5t35 24.5t17.5 32.5l27 156h-188zM411 643l-28 -162q-3 -14 -19 -24.5t-30 -13.5v-1h-2l-6 -34h111q18 1 40 6.5t42.5 15.5t35 24.5t17.5 32.5l27 156h-188z" />
    <glyph glyph-name="FL201Eh" unicode="&#x201e;" horiz-adv-x="479" 
d="M42 71q6 30 36.5 50.5t71.5 20.5q38 0 61 -20.5t18 -50.5l-2 -7l-2 -13q-2 -8 -3.5 -23.5t-6.5 -41.5q-3 -18 -17.5 -32.5t-35 -24.5t-43 -16t-40.5 -7h-110l7 35h1q14 4 30 14.5t18 23.5zM276 71q6 30 36.5 50.5t70.5 20.5q38 0 61 -20.5t18 -50.5l-2 -7l-2 -13
q-2 -8 -3.5 -23.5t-6.5 -41.5q-3 -18 -17.5 -32.5t-35 -24.5t-42.5 -16t-40 -7h-110l7 35h1q6 2 13.5 5.5t15 9t13 11.5t6.5 12z" />
    <glyph glyph-name="FL2020h" unicode="&#x2020;" horiz-adv-x="536" 
d="M429 379l-56 -314q-1 -5 2.5 -10.5t9 -10t12 -8t11.5 -4.5l-6 -32h-270l6 32q11 3 26 12.5t17 20.5l56 314h-142l16 90h46q-3 -16 -1 -25t8 -13.5t15.5 -6t20.5 -1.5h45l27 156q2 11 -10 20t-22 12l5 32h270l-5 -32q-11 -3 -27.5 -12t-18.5 -20l-27 -156h50
q10 0 19.5 1.5t16.5 6t12.5 13.5t8.5 25h47l-16 -90h-146z" />
    <glyph glyph-name="FL2021h" unicode="&#x2021;" horiz-adv-x="536" 
d="M556 274l-16 -90h-47q5 30 -7.5 37.5t-33.5 7.5h-50l-29 -164q-1 -5 2.5 -10.5t9 -10t12 -8t11.5 -4.5l-6 -32h-270l6 32q11 3 26 12.5t17 20.5l29 164h-45q-23 0 -38.5 -7.5t-20.5 -37.5h-46l16 90h142l19 105h-142l16 90h46q-3 -16 -1 -25t8 -13.5t15.5 -6t20.5 -1.5
h45l27 156q2 11 -10 20t-22 12l5 32h270l-5 -32q-11 -3 -27.5 -12t-18.5 -20l-27 -156h50q10 0 19.5 1.5t16.5 6t12.5 13.5t8.5 25h47l-16 -90h-146l-19 -105h146z" />
    <glyph glyph-name="FL2022h" unicode="&#x2022;" horiz-adv-x="523" 
d="M265 643q-14 0 -35.5 -1.5t-42.5 -8.5t-37.5 -20.5t-20.5 -37.5l-90 -510q-3 -15 9 -27.5t30 -20.5t38.5 -12.5t35.5 -4.5h219q15 0 36.5 4.5t42 12.5t36.5 20.5t19 27.5l90 507q4 25 -7.5 39.5t-30 21.5t-39.5 8.5t-35 1.5h-218z" />
    <glyph glyph-name="FL2026h" unicode="&#x2026;" horiz-adv-x="672" 
d="M469 71q6 30 35.5 50.5t70.5 20.5q38 0 62 -20.5t19 -50.5q-3 -15 -13 -28t-24 -22.5t-32 -15t-37 -5.5q-40 0 -63.5 20.5t-17.5 50.5zM255 71q6 30 35.5 50.5t70.5 20.5q39 0 63 -20.5t19 -50.5q-6 -30 -37 -50.5t-70 -20.5q-40 0 -63.5 20.5t-17.5 50.5zM41 71
q6 30 36 50.5t70 20.5q39 0 63 -20.5t19 -50.5q-6 -30 -37 -50.5t-70 -20.5t-63 20.5t-18 50.5z" />
    <glyph glyph-name="FL2030h" unicode="&#x2030;" horiz-adv-x="912" 
d="M222 676h130q7 0 20 -1t24.5 -5t19 -12.5t4.5 -23.5l-41 -232l207 241h110l-5 -32q-11 -3 -23.5 -12.5t-20.5 -19.5l-194 -225h129q8 0 20.5 -1t24 -5t18.5 -13t4 -24l-54 -305q-2 -9 -11.5 -16t-22.5 -12t-26 -7.5t-21 -2.5h-131q-8 0 -20.5 2.5t-23.5 7.5t-18.5 12
t-5.5 16l41 235l-206 -241h-112l6 32q11 3 26.5 12.5t17.5 20.5l193 225h-127q-8 0 -20 2.5t-23.5 7.5t-19 12t-5.5 16l54 306q3 15 12.5 23.5t22 12.5t25.5 5t22 1zM740 354h131q9 0 21.5 -1t23.5 -5t18 -13t4 -24l-54 -305q-2 -9 -11.5 -16t-22 -12t-25.5 -7.5t-22 -2.5
h-131q-8 0 -20.5 2.5t-23.5 7.5t-18 12t-5 16l54 306q3 15 12.5 23.5t21.5 12.5t25 5t22 1zM278 615q-10 0 -13.5 -9t-5.5 -17l-38 -215q-2 -8 -1 -15t11 -7q11 0 15.5 7.5t6.5 20.5l37 209q2 8 -1 17t-11 9zM505 292q-11 0 -14.5 -9.5t-5.5 -17.5l-38 -214q-2 -8 -1 -15
t11 -7q11 0 15.5 7.5t6.5 20.5l37 208q2 8 -1 17.5t-10 9.5zM794 292q-10 0 -14 -9.5t-6 -17.5l-38 -214q-2 -8 -1 -15t12 -7t15 7.5t6 20.5l37 208q2 8 -1 17.5t-10 9.5z" />
    <glyph glyph-name="FL2039h" unicode="&#x2039;" horiz-adv-x="167" 
d="M200 353l18 98l-119 -48l-24 -135l102 -48l17 98l-44 18z" />
    <glyph glyph-name="FL203Ah" unicode="&#x203a;" horiz-adv-x="167" 
d="M90 353l18 98l101 -48l-24 -135l-118 -48l17 98l51 18z" />
    <glyph glyph-name="FL2122h" unicode="&#x2122;" horiz-adv-x="337" 
d="M196 669l-18 -101h22l18 101h49l3 19h-121l-3 -19h50zM294 684l-21 -116h15l14 78l7 6l21 -77q2 -5 4 -6t6 -1q6 0 7.5 1t5.5 6l49 79l5 -8l-14 -78h15l21 120h-6q-15 0 -28.5 -9t-28.5 -36q-6 -13 -10 -21.5t-10 -18.5q-2 8 -4 18.5t-6 26.5v6q-5 12 -14.5 23t-15.5 11
h-1l1 -1q0 -1 -6 -1q-4 0 -6 -2z" />
    </font>
</defs>
</svg>
