<?xml version="1.0" standalone="no"?>
<!DOCTYPE svg PUBLIC "-//W3C//DTD SVG 1.1//EN" "http://www.w3.org/Graphics/SVG/1.1/DTD/svg11.dtd" >
<svg xmlns="http://www.w3.org/2000/svg" xmlns:xlink="http://www.w3.org/1999/xlink" version="1.1">
<metadata>
Created by FontForge 20170731 at Thu Sep 20 13:12:35 2007
 By Aleksey,,,
(c) 2007 The Monotype Corporation. All Rights Reserved.
</metadata>
<defs>
<font id="ArialNarrow-BoldItalic" horiz-adv-x="934" >
  <font-face 
    font-family="Arial Narrow"
    font-weight="700"
    font-style="italic"
    font-stretch="condensed"
    units-per-em="2048"
    panose-1="2 11 7 6 2 2 2 10 2 4"
    ascent="1638"
    descent="-410"
    x-height="1062"
    cap-height="1466"
    bbox="-417 -628 2047 2268"
    underline-thickness="215"
    underline-position="-538"
    slope="-9.7"
    unicode-range="U+0020-FB02"
  />
<missing-glyph horiz-adv-x="1593" 
d="M284 0v1280h1024v-1280h-1024zM316 32h960v1216h-960v-1216z" />
    <glyph glyph-name=".notdef" horiz-adv-x="1593" 
d="M284 0v1280h1024v-1280h-1024zM316 32h960v1216h-960v-1216z" />
    <glyph glyph-name=".null" horiz-adv-x="0" 
 />
    <glyph glyph-name="nonmarkingreturn" horiz-adv-x="467" 
 />
    <glyph glyph-name="space" unicode=" " horiz-adv-x="467" 
 />
    <glyph glyph-name="space" unicode="&#xa0;" horiz-adv-x="467" 
 />
    <glyph glyph-name="exclam" unicode="!" horiz-adv-x="559" 
d="M342 373h-129l73 748l59 345h248l-64 -371zM151 277h232l-48 -277h-232z" />
    <glyph glyph-name="quotedbl" unicode="&#x22;" horiz-adv-x="797" 
d="M249 945l4 273l43 248h251l-43 -248l-85 -273h-170zM619 945l4 273l44 248h250l-43 -248l-85 -273h-170z" />
    <glyph glyph-name="numbersign" unicode="#" 
d="M126 365h-111v220h148l49 295h-197v221h234l64 390h184l-64 -390h180l64 390h190l-66 -390h114v-221h-150l-50 -295h200v-220h-236l-66 -390h-183l64 390h-182l-65 -390h-185zM396 880l-48 -295h182l48 295h-182z" />
    <glyph glyph-name="dollar" unicode="$" 
d="M352 -10q-114 34 -190.5 147t-87.5 289l207 13q16 -172 110 -224l75 442q-122 66 -186.5 173.5t-64.5 236.5q0 115 49.5 214.5t135.5 155t166 55.5l43 -1l15 86h117l-17 -103q102 -32 167 -121.5t77 -237.5l-202 -13q-14 111 -80 155l-68 -398q140 -68 206.5 -174.5
t66.5 -249.5q0 -203 -121.5 -332.5t-303.5 -129.5l-30 -176h-117zM511 918l62 363q-66 1 -114 -51.5t-48 -131.5q0 -112 100 -180zM573 596l-69 -401q89 8 141.5 67t52.5 149q0 57 -24.5 97t-100.5 88z" />
    <glyph glyph-name="percent" unicode="%" horiz-adv-x="1493" 
d="M152 1011q0 196 86.5 338t233.5 142q102 0 165 -78t63 -224q0 -138 -48 -253.5t-117.5 -165t-155.5 -49.5q-99 0 -163 76t-64 214zM325 988q0 -52 18.5 -75t49.5 -23q57 0 94 96q44 117 44 242q0 45 -19 69t-49 24q-29 0 -54.5 -25.5t-54.5 -126t-29 -181.5zM397 -63
h-189l1002 1554h189zM903 229q0 197 86.5 339t234.5 142q101 0 164 -78.5t63 -224.5q0 -137 -48 -252.5t-117.5 -165t-155.5 -49.5q-99 0 -163 76t-64 213zM1076 207q0 -52 18.5 -75t49.5 -23q57 0 93 96q45 117 45 242q0 45 -19 69t-49 24q-28 0 -54 -25.5t-55 -126.5
t-29 -181z" />
    <glyph glyph-name="ampersand" unicode="&#x26;" horiz-adv-x="1212" 
d="M1015 638l170 -124q-54 -132 -132 -224q45 -59 119 -136l-148 -188q-72 49 -144 142q-63 -61 -152.5 -97t-188.5 -36q-178 0 -289 116t-111 300q0 95 32.5 182.5t90.5 155.5t186 152q-53 142 -53 246q0 163 96 263.5t240 100.5q122 0 201 -80t79 -199q0 -103 -69 -211.5
t-210 -196.5q48 -98 120 -228q39 -68 63 -101q41 49 100 163zM647 1000q164 102 164 210q0 43 -23.5 68.5t-61.5 25.5q-47 0 -80.5 -40.5t-33.5 -109.5q0 -63 35 -154zM534 679q-163 -99 -163 -261q0 -96 50 -153t127 -57q99 0 201 83q-126 187 -215 388z" />
    <glyph glyph-name="quotesingle" unicode="'" horiz-adv-x="399" 
d="M254 945l4 273l43 248h251l-43 -248l-85 -273h-170z" />
    <glyph glyph-name="parenleft" unicode="(" horiz-adv-x="559" 
d="M402 -431h-160q-132 376 -132 745q0 212 57.5 423.5t169.5 421.5q65 124 215 332h178q-219 -315 -308 -603q-101 -328 -101 -698q0 -289 81 -621z" />
    <glyph glyph-name="parenright" unicode=")" horiz-adv-x="559" 
d="M197 1491h160q132 -384 132 -744q0 -213 -58 -424.5t-169 -421.5q-66 -123 -215 -332h-179q220 317 309 605q101 328 101 703q0 274 -81 614z" />
    <glyph glyph-name="asterisk" unicode="*" horiz-adv-x="653" 
d="M342 783l-128 111l155 198l-208 59l48 178l192 -115l-22 264h149l-23 -264l204 109l45 -177l-208 -54l144 -198l-122 -111l-112 231z" />
    <glyph glyph-name="plus" unicode="+" horiz-adv-x="981" 
d="M384 211v381h-315v263h315v381h210v-381h316v-263h-316v-381h-210z" />
    <glyph glyph-name="comma" unicode="," horiz-adv-x="467" 
d="M119 277h237l-39 -229q-34 -201 -109 -282t-191 -84l23 133q58 16 91 57t49 128h-109z" />
    <glyph glyph-name="hyphen" unicode="-" horiz-adv-x="559" 
d="M113 667h456l-47 -277h-457z" />
    <glyph glyph-name="hyphen" unicode="&#xad;" horiz-adv-x="559" 
d="M113 667h456l-47 -277h-457z" />
    <glyph glyph-name="period" unicode="." horiz-adv-x="467" 
d="M122 277h232l-48 -277h-232z" />
    <glyph glyph-name="slash" unicode="/" horiz-adv-x="467" 
d="M-73 -25l595 1516h165l-595 -1516h-165z" />
    <glyph glyph-name="zero" unicode="0" 
d="M108 477q0 284 90.5 543.5t214.5 368.5q94 83 212 83q145 0 239.5 -128.5t94.5 -376.5q0 -284 -89.5 -543t-213.5 -368q-93 -81 -213 -81q-143 0 -239 127t-96 375zM339 419q0 -118 31.5 -166t80.5 -48q62 0 113 69q67 93 116.5 355.5t49.5 405.5q0 110 -32 158.5
t-81 48.5q-59 0 -107 -68q-76 -107 -129 -393q-42 -224 -42 -362z" />
    <glyph glyph-name="one" unicode="1" 
d="M199 842l44 256q305 162 471 377h143l-253 -1475h-237l175 1016q-72 -57 -168.5 -105t-174.5 -69z" />
    <glyph glyph-name="two" unicode="2" 
d="M444 1009l-231 42q30 210 133 315.5t253 105.5q162 0 261 -107t99 -287q0 -140 -73 -273q-54 -98 -220 -287q-151 -170 -206 -256h417l-45 -262h-730q18 163 104 311q58 100 271 347q155 180 198 250q56 94 56 172t-36.5 122.5t-89.5 44.5q-123 0 -161 -238z" />
    <glyph glyph-name="three" unicode="3" 
d="M86 383l225 33q14 -117 51 -162t98 -45q77 0 131 64.5t54 169.5q0 95 -44 145.5t-114 50.5q-17 0 -37 -4l41 239l24 -2q92 0 142 56.5t50 160.5q0 73 -34 113t-86 40q-111 0 -155 -201l-215 52q44 174 127 263q108 116 260 116q150 0 243.5 -103.5t93.5 -278.5
q0 -118 -56.5 -209t-149.5 -132q71 -46 110 -121.5t39 -169.5q0 -173 -107 -315q-127 -168 -320 -168q-148 0 -248 103.5t-123 304.5z" />
    <glyph glyph-name="four" unicode="4" 
d="M519 299h-473l41 240l651 927h202l-157 -923h145l-42 -244h-145l-52 -299h-222zM561 543l78 457l-317 -457h239z" />
    <glyph glyph-name="five" unicode="5" 
d="M107 420l229 25l-1 -30q0 -103 38 -153.5t95 -50.5q84 0 153 97t69 270q0 104 -39 155t-100 51q-47 0 -90.5 -26t-83.5 -79l-194 18l183 749h605l-45 -262h-399l-55 -226q34 19 68.5 28.5t68.5 9.5q134 0 224.5 -111t90.5 -305q0 -168 -68.5 -314t-174.5 -218.5
t-221 -72.5q-150 0 -251 119t-102 326z" />
    <glyph glyph-name="six" unicode="6" 
d="M966 1108l-220 -22q-7 88 -34.5 122.5t-73.5 34.5q-71 0 -124.5 -81.5t-88.5 -244.5q76 61 161 61q137 0 228.5 -114t91.5 -318q0 -231 -118.5 -401.5t-300.5 -170.5q-99 0 -178.5 58.5t-126 177t-46.5 322.5q0 414 149 677t371 263q131 0 212 -89t98 -275zM363 431
q0 -117 37.5 -171.5t93.5 -54.5q69 0 118 79q66 105 66 280q0 115 -37 169.5t-90 54.5q-42 0 -85.5 -36.5t-73 -123.5t-29.5 -197z" />
    <glyph glyph-name="seven" unicode="7" 
d="M174 1181l45 265h793l-35 -204q-62 -61 -131 -166q-99 -151 -169 -307q-97 -218 -152 -398q-76 -251 -95 -371h-224q20 146 93 378t169 429.5t220 373.5h-514z" />
    <glyph glyph-name="eight" unicode="8" 
d="M361 807q-63 51 -95 117t-32 148q0 109 51.5 204.5t136 145.5t189.5 50q153 0 247 -97.5t94 -260.5q0 -111 -50.5 -193.5t-152.5 -135.5q74 -55 110.5 -133.5t36.5 -179.5q0 -182 -102 -323q-126 -175 -330 -175q-154 0 -253.5 111t-99.5 295q0 151 68.5 266t181.5 161z
M450 1053q0 -71 35.5 -112.5t88.5 -41.5q61 0 110 57t49 138q0 73 -35.5 116t-89.5 43q-63 0 -110.5 -56.5t-47.5 -143.5zM345 375q0 -85 38 -130.5t96 -45.5q86 0 137.5 93.5t51.5 217.5q0 77 -39 123t-96 46q-73 0 -130.5 -82t-57.5 -222z" />
    <glyph glyph-name="nine" unicode="9" 
d="M107 338l220 22q7 -87 34.5 -121.5t74.5 -34.5q71 0 124.5 81.5t88.5 243.5q-77 -60 -161 -60q-137 0 -228.5 113.5t-91.5 317.5q0 228 117 400t305 172q98 0 176 -57.5t124.5 -177t46.5 -322.5q0 -416 -149 -678t-371 -262q-132 0 -216 94t-94 269zM711 1016
q0 116 -37.5 170.5t-93.5 54.5q-69 0 -119 -79q-65 -105 -65 -281q0 -114 36.5 -168.5t89.5 -54.5q43 0 86.5 37t73 124t29.5 197z" />
    <glyph glyph-name="colon" unicode=":" horiz-adv-x="559" 
d="M300 1062h232l-47 -278h-233zM166 277h232l-48 -277h-232z" />
    <glyph glyph-name="semicolon" unicode=";" horiz-adv-x="559" 
d="M304 1062h233l-48 -278h-232zM170 277h237l-39 -229q-34 -201 -109 -282t-191 -84l23 133q58 16 91 57t49 128h-109z" />
    <glyph glyph-name="semicolon" unicode="&#x37e;" horiz-adv-x="559" 
d="M304 1062h233l-48 -278h-232zM170 277h237l-39 -229q-34 -201 -109 -282t-191 -84l23 133q58 16 91 57t49 128h-109z" />
    <glyph glyph-name="less" unicode="&#x3c;" horiz-adv-x="981" 
d="M902 167l-824 437v242l824 435v-285l-574 -268l574 -278v-283z" />
    <glyph glyph-name="equal" unicode="=" horiz-adv-x="981" 
d="M69 816v258h841v-258h-841zM69 372v259h841v-259h-841z" />
    <glyph glyph-name="greater" unicode="&#x3e;" horiz-adv-x="981" 
d="M77 166v283l576 276l-576 273v281l825 -435v-240z" />
    <glyph glyph-name="question" unicode="?" horiz-adv-x="1026" 
d="M573 366h-212q18 136 70 233.5t208 262.5q126 134 152.5 180.5t26.5 93.5q0 65 -42.5 104.5t-120.5 39.5q-91 0 -149.5 -59.5t-84.5 -196.5l-215 46q43 202 164.5 311.5t288.5 109.5q168 0 273 -103.5t105 -264.5q0 -97 -47 -184.5t-229 -271.5q-119 -121 -147 -169
t-41 -132zM337 277h233l-48 -277h-232z" />
    <glyph glyph-name="at" unicode="@" horiz-adv-x="1638" 
d="M1457 19h174q-87 -215 -271 -332.5t-451 -117.5q-272 0 -460.5 107t-293.5 313.5t-105 496.5q0 297 115 534t301.5 354.5t423.5 117.5q203 0 360.5 -94.5t248 -272t90.5 -404.5q0 -261 -137 -474q-159 -247 -406 -247q-66 0 -101 27t-48 87q-96 -114 -223 -114
q-132 0 -224 112t-92 305q0 190 71 355t167 238.5t207 73.5q73 0 127 -34t89 -102l20 111h216l-123 -717q-12 -69 -12 -90q0 -23 9.5 -35.5t22.5 -12.5q38 0 100 56q83 74 136 203t53 267q0 168 -72.5 304.5t-192 205t-289.5 68.5q-202 0 -352.5 -95.5t-243 -292.5
t-92.5 -451q0 -217 87 -383t238 -249.5t369 -83.5q196 0 337 66.5t227 199.5zM571 430q0 -129 43 -188t107 -59q56 0 103 42q61 54 105.5 184t44.5 262q0 113 -44 173t-107 60q-101 0 -164 -114q-88 -160 -88 -360z" />
    <glyph glyph-name="A" unicode="A" horiz-adv-x="1212" 
d="M856 324h-477l-144 -324h-254l680 1466h274l195 -1466h-234zM825 568l-69 590l-265 -590h334z" />
    <glyph glyph-name="B" unicode="B" horiz-adv-x="1212" 
d="M67 0l251 1466h412q165 0 235 -21q109 -32 168 -119t59 -215q0 -129 -57 -216t-171 -132q89 -30 142.5 -108t53.5 -182q0 -142 -64.5 -257t-168 -165.5t-293.5 -50.5h-567zM464 874h189q124 0 178 20t85 69t31 112q0 51 -23 86.5t-58 47.5t-151 12h-191zM355 236h238
q140 0 192 20t87 73.5t35 120.5q0 79 -46 124t-145 45h-296z" />
    <glyph glyph-name="C" unicode="C" horiz-adv-x="1212" 
d="M940 528l249 -45q-75 -255 -221.5 -382t-339.5 -127q-216 0 -342.5 158t-126.5 474q0 271 92 477.5t234.5 307t308.5 100.5q187 0 311.5 -123t146.5 -352l-237 -28q-21 133 -78 188t-148 55q-93 0 -179 -67t-146.5 -224.5t-60.5 -346.5q0 -177 70 -271.5t170 -94.5
q95 0 176 74.5t121 226.5z" />
    <glyph glyph-name="D" unicode="D" horiz-adv-x="1212" 
d="M73 0l251 1466h324q169 0 229 -14q101 -25 176.5 -99t119.5 -197.5t44 -296.5q0 -182 -45 -336.5t-126.5 -270t-168.5 -168t-182 -71.5q-62 -13 -198 -13h-424zM361 236h125q137 0 192 19q72 24 135 98.5t109 207t46 306.5q0 144 -37.5 226t-100.5 111q-45 20 -157 20
h-143z" />
    <glyph glyph-name="E" unicode="E" horiz-adv-x="1120" 
d="M69 0l251 1466h891l-42 -245h-643l-57 -333h622l-42 -245h-622l-69 -398h691l-41 -245h-939z" />
    <glyph glyph-name="F" unicode="F" horiz-adv-x="1026" 
d="M65 0l251 1466h842l-42 -245h-594l-61 -352h582l-42 -245h-582l-107 -624h-247z" />
    <glyph glyph-name="G" unicode="G" horiz-adv-x="1307" 
d="M739 783h537l-108 -629q-100 -80 -239 -129.5t-276 -49.5q-238 0 -359 142q-145 170 -145 471q0 262 99.5 481.5t245 320.5t325.5 101q198 0 328 -114t173 -348l-230 -32q-61 250 -271 250q-114 0 -210 -69.5t-158.5 -225.5t-62.5 -364q0 -187 70 -274t202 -87
q74 0 144 22q95 29 162 71l38 218h-307z" />
    <glyph glyph-name="H" unicode="H" horiz-adv-x="1212" 
d="M897 655h-465l-113 -655h-247l251 1466h248l-98 -566h466l97 566h247l-251 -1466h-247z" />
    <glyph glyph-name="I" unicode="I" horiz-adv-x="467" 
d="M59 0l251 1466h247l-251 -1466h-247z" />
    <glyph glyph-name="J" unicode="J" 
d="M765 1466h243l-152 -888q-63 -371 -166.5 -487t-294.5 -116q-166 0 -256 92.5t-90 267.5q0 35 4 79l229 30q-5 -43 -5 -71q0 -75 34.5 -110.5t99.5 -35.5q93 0 132 67q30 50 71 294z" />
    <glyph glyph-name="K" unicode="K" horiz-adv-x="1212" 
d="M66 0l251 1466h247l-106 -623l556 623h332l-541 -575l396 -891h-279l-297 698l-233 -249l-77 -449h-249z" />
    <glyph glyph-name="L" unicode="L" horiz-adv-x="1026" 
d="M76 0l251 1466h248l-210 -1221h612l-42 -245h-859z" />
    <glyph glyph-name="M" unicode="M" horiz-adv-x="1399" 
d="M760 0h-235l-43 1225l-191 -1225h-223l251 1466h353l37 -1027l410 1027h356l-251 -1466h-226l237 1216z" />
    <glyph glyph-name="N" unicode="N" horiz-adv-x="1212" 
d="M1030 0h-231l-325 985l-168 -985h-231l251 1466h231l325 -981l168 981h231z" />
    <glyph glyph-name="O" unicode="O" horiz-adv-x="1307" 
d="M147 575q0 190 64 391q81 258 240 391.5t368 133.5q217 0 357.5 -165t140.5 -450q0 -258 -100.5 -476t-249.5 -322t-328 -104q-214 0 -341 150q-151 177 -151 451zM392 581q0 -162 79.5 -258.5t193.5 -96.5q92 0 182 72t156.5 236.5t66.5 334.5q0 178 -82 280
q-72 90 -189 90q-94 0 -186 -73t-156.5 -234.5t-64.5 -350.5z" />
    <glyph glyph-name="P" unicode="P" horiz-adv-x="1120" 
d="M316 0h-247l251 1466h489q136 0 209 -39t117.5 -122.5t44.5 -204.5q0 -146 -53.5 -268.5t-133 -181.5t-188.5 -80q-59 -11 -234 -11h-159zM454 802h76q183 0 249.5 25t109.5 91.5t43 154.5q0 95 -62 131q-36 21 -166 21h-178z" />
    <glyph glyph-name="Q" unicode="Q" horiz-adv-x="1307" 
d="M885 29q-57 -27 -118.5 -41t-127.5 -14q-213 0 -341 151q-150 177 -150 454q0 185 63 386q82 258 241 392t368 134q217 0 357.5 -165t140.5 -450q0 -218 -75.5 -414t-194.5 -316q76 -92 166 -154l-117 -187q-115 68 -212 224zM906 355q70 86 117.5 231.5t47.5 281.5
q0 179 -77 275t-194 96q-94 0 -185 -71.5t-156.5 -232.5t-65.5 -338q0 -176 79 -273t197 -97q55 0 80 8q9 3 9 13t-36 49q-47 50 -98 73l90 168q111 -69 192 -183z" />
    <glyph glyph-name="R" unicode="R" horiz-adv-x="1212" 
d="M321 0h-247l251 1466h535q148 0 221 -39t118.5 -126t45.5 -220q0 -195 -95.5 -312.5t-274.5 -145.5q50 -55 98 -156q80 -170 176 -467h-266q-16 62 -108 337q-48 141 -88 199q-29 41 -59 56t-101 15h-102zM463 827h131q186 0 251.5 23.5t109 86.5t43.5 139q0 83 -55 121
q-32 24 -140 24h-272z" />
    <glyph glyph-name="S" unicode="S" horiz-adv-x="1120" 
d="M106 475l235 15q5 -118 27 -164t73 -72.5t139 -26.5q114 0 171.5 50t57.5 131q0 57 -33 98q-33 40 -171 113q-175 93 -232.5 144.5t-89 126.5t-31.5 171q0 196 115 313t314 117q201 0 321.5 -116t132.5 -327l-237 -13q-18 217 -218 217q-99 0 -145.5 -41.5t-46.5 -113.5
q0 -66 44 -107q43 -42 174 -112q173 -91 230 -141.5t87.5 -124t30.5 -166.5q0 -208 -131 -339.5t-346 -131.5q-162 0 -276.5 69t-156 184t-38.5 247z" />
    <glyph glyph-name="T" unicode="T" horiz-adv-x="1026" 
d="M592 0h-247l210 1221h-353l42 245h947l-42 -245h-347z" />
    <glyph glyph-name="U" unicode="U" horiz-adv-x="1212" 
d="M320 1466h247l-136 -796l-33 -192q-4 -28 -4 -50q0 -93 54.5 -147t148.5 -54q83 0 141 37t92 113.5t70 286.5l137 802h247l-137 -802q-42 -245 -89 -360q-68 -166 -184 -247.5t-289 -81.5q-201 0 -316.5 120.5t-115.5 328.5q0 67 35 270z" />
    <glyph glyph-name="V" unicode="V" horiz-adv-x="1120" 
d="M671 0h-265l-215 1466h247l153 -1109l497 1109h245z" />
    <glyph glyph-name="W" unicode="W" horiz-adv-x="1585" 
d="M1212 0h-250l-27 1072l-438 -1072h-255l-45 1466h242l10 -1026l413 1026h269l27 -1015l396 1015h239z" />
    <glyph glyph-name="X" unicode="X" horiz-adv-x="1120" 
d="M270 0h-320l531 742l-299 724h259l116 -275q63 -148 91 -230q100 149 169 244l189 261h310l-549 -772l296 -694h-279l-90 221q-72 177 -94 251q-31 -58 -165 -244z" />
    <glyph glyph-name="Y" unicode="Y" horiz-adv-x="1120" 
d="M674 0h-248l99 571l-332 895h263l149 -414q53 -148 71 -215q32 67 72 139l113 193l170 297h287l-551 -923z" />
    <glyph glyph-name="Z" unicode="Z" horiz-adv-x="1026" 
d="M42 0l40 231l691 990h-560l42 245h867l-36 -230l-700 -996l129 3h39l178 2h284l-42 -245h-932z" />
    <glyph glyph-name="bracketleft" unicode="[" horiz-adv-x="559" 
d="M454 -190l-37 -214h-401l320 1870h401l-38 -223h-179l-246 -1433h180z" />
    <glyph glyph-name="backslash" unicode="\" horiz-adv-x="467" 
d="M317 -25l-186 1516h164l187 -1516h-165z" />
    <glyph glyph-name="bracketright" unicode="]" horiz-adv-x="559" 
d="M190 1252l36 214h403l-320 -1870h-403l38 224h182l245 1432h-181z" />
    <glyph glyph-name="asciicircum" unicode="^" horiz-adv-x="981" 
d="M95 692l308 799h183l301 -799h-234l-162 489l-161 -489h-235z" />
    <glyph glyph-name="underscore" unicode="_" 
d="M-12 -154h959v-102h-959v102z" />
    <glyph glyph-name="grave" unicode="`" horiz-adv-x="559" 
d="M225 1499h227l105 -299h-160z" />
    <glyph glyph-name="a" unicode="a" 
d="M400 761l-230 24q41 147 142 224t256 77q158 0 243 -78.5t85 -208.5q0 -46 -6.5 -98t-48.5 -284q-35 -191 -35 -267q0 -69 19 -150h-228q-14 58 -17 120q-52 -70 -119.5 -107t-134.5 -37q-106 0 -178 84t-72 224q0 161 82 248q81 87 272 105q168 17 225 41q15 61 15 97
q0 48 -32.5 77.5t-88.5 29.5q-122 0 -149 -121zM624 495q-22 -7 -57 -13q-165 -24 -217.5 -64.5t-52.5 -108.5q0 -53 30.5 -86t77.5 -33q49 0 94 27.5t72 77t46 162.5z" />
    <glyph glyph-name="b" unicode="b" horiz-adv-x="1026" 
d="M60 0l251 1466h236l-84 -490q69 63 124 86.5t118 23.5q137 0 221 -111t84 -329q0 -199 -65.5 -358.5t-164.5 -235.5t-201 -76q-187 0 -275 199l-30 -175h-214zM377 433q0 -109 50.5 -175t116.5 -66q53 0 105 44.5t92 160t40 242.5q0 117 -48.5 180t-115.5 63
q-102 0 -171 -132t-69 -317z" />
    <glyph glyph-name="c" unicode="c" 
d="M658 400l228 -45q-57 -190 -168.5 -284.5t-254.5 -94.5q-162 0 -262 118t-100 335q0 195 67.5 347.5t183 231t246.5 78.5q148 0 243 -94t107 -261l-224 -29q-16 173 -140 173q-57 0 -112 -47t-96.5 -168t-41.5 -264q0 -95 38.5 -145.5t92.5 -50.5q57 0 109.5 48.5
t83.5 151.5z" />
    <glyph glyph-name="d" unicode="d" horiz-adv-x="1026" 
d="M872 0h-223l20 115q-66 -77 -128.5 -108t-136.5 -31q-134 0 -219 111t-85 334q0 263 121 464t310 201q175 0 263 -169l94 549h235zM329 432q0 -116 47.5 -179t115.5 -63q56 0 109 43.5t92.5 153.5t39.5 227q0 120 -51 190.5t-117 70.5q-51 0 -104 -45.5t-92.5 -159
t-39.5 -238.5z" />
    <glyph glyph-name="e" unicode="e" 
d="M915 442h-591v-27q0 -107 50 -171t120 -64q116 0 183 148l211 -43q-62 -155 -165 -232t-231 -77q-170 0 -282.5 132.5t-112.5 359.5q0 245 128 431.5t358 186.5q155 0 251.5 -117.5t96.5 -339.5q0 -105 -16 -187zM716 617l1 28q0 121 -44.5 179t-115.5 58
q-72 0 -130.5 -67t-78.5 -198h368z" />
    <glyph glyph-name="f" unicode="f" horiz-adv-x="559" 
d="M674 1062l-36 -210h-166l-147 -852h-235l146 852h-131l36 210h131l19 109q25 148 54.5 203.5t84.5 86t131 30.5q109 0 229 -48l-45 -205q-85 35 -138 35q-34 0 -55 -25q-16 -19 -32 -111l-13 -75h167z" />
    <glyph glyph-name="g" unicode="g" horiz-adv-x="1026" 
d="M54 -56l249 -44q0 -64 31.5 -95t95.5 -31q63 0 102.5 24.5t61.5 73.5t45 198l7 50q-121 -124 -251 -124q-127 0 -210 108t-83 324q0 205 61 357.5t158.5 226.5t198.5 74q85 0 157.5 -54.5t114.5 -157.5l32 188h221l-151 -885q-45 -259 -79 -357q-47 -134 -138 -192.5
t-251 -58.5q-187 0 -270 69q-104 86 -104 262zM332 457q0 -121 51 -193q39 -55 105 -55q54 0 107.5 45t92.5 148.5t39 224.5q0 118 -50.5 186.5t-115.5 68.5q-50 0 -98.5 -42.5t-89.5 -157.5t-41 -225z" />
    <glyph glyph-name="h" unicode="h" horiz-adv-x="1026" 
d="M305 0h-235l251 1466h236l-90 -522q84 80 153 111t143 31q103 0 166 -72t63 -198q0 -63 -23 -195l-107 -621h-235l109 633q17 103 17 132q0 55 -28 86t-73 31q-59 0 -112 -49q-73 -67 -109 -165q-20 -53 -53 -247z" />
    <glyph glyph-name="i" unicode="i" horiz-adv-x="467" 
d="M319 1466h236l-45 -260h-235zM250 1062h235l-182 -1062h-235z" />
    <glyph glyph-name="j" unicode="j" horiz-adv-x="467" 
d="M321 1466h236l-45 -260h-236zM251 1062h237l-155 -899q-66 -384 -112 -466q-71 -128 -231 -128q-93 0 -173 32l37 237q56 -17 95 -17q51 0 79 49t73 312z" />
    <glyph glyph-name="k" unicode="k" 
d="M64 0l251 1466h236l-131 -763l306 359h306l-350 -386l187 -676h-236l-120 491l-159 -172l-55 -319h-235z" />
    <glyph glyph-name="l" unicode="l" horiz-adv-x="467" 
d="M66 0l251 1466h236l-252 -1466h-235z" />
    <glyph glyph-name="m" unicode="m" horiz-adv-x="1493" 
d="M242 1062h222l-23 -129q130 153 272 153q190 0 220 -187q47 82 132 134.5t172 52.5q102 0 162 -65.5t60 -182.5q0 -55 -23 -189l-111 -649h-236l111 649q21 122 21 138q0 46 -23 70.5t-63 24.5q-85 0 -153 -106q-54 -83 -90 -293l-82 -483h-236l110 642q19 111 19 143
q0 45 -24.5 71t-62.5 26q-51 0 -105.5 -48.5t-86.5 -141.5q-19 -55 -45 -204l-84 -488h-235z" />
    <glyph glyph-name="n" unicode="n" horiz-adv-x="1026" 
d="M252 1062h223l-23 -138q87 91 159.5 126.5t149.5 35.5q105 0 168 -73t63 -200q0 -55 -26 -211l-103 -602h-236l104 602q23 135 23 162q0 57 -27.5 87.5t-71.5 30.5q-48 0 -98 -38q-72 -54 -107 -128.5t-70 -279.5l-75 -436h-235z" />
    <glyph glyph-name="o" unicode="o" horiz-adv-x="1026" 
d="M102 441q0 261 118 444q131 201 379 201q186 0 296.5 -126t110.5 -351q0 -264 -137.5 -448.5t-359.5 -184.5q-181 0 -294 125t-113 340zM773 646q0 105 -49.5 165t-125.5 60q-64 0 -120 -44t-98 -153t-42 -226q0 -119 51.5 -185t127.5 -66q96 0 163 102q93 140 93 347z
" />
    <glyph glyph-name="p" unicode="p" horiz-adv-x="1026" 
d="M242 1062h223l-19 -109q75 75 137 104t130 29q136 0 220 -114t84 -343q0 -292 -148 -490q-122 -163 -287 -163q-172 0 -261 170l-95 -551h-235zM384 453q0 -125 50 -193t116 -68q53 0 104 43.5t92.5 160.5t41.5 241q0 119 -47.5 182t-117.5 63q-55 0 -106.5 -43t-92 -155
t-40.5 -231z" />
    <glyph glyph-name="q" unicode="q" horiz-adv-x="1026" 
d="M833 1062h216l-250 -1467h-236l85 495q-64 -64 -120 -89t-122 -25q-135 0 -214 102q-92 119 -92 339q0 197 66 359t162.5 236t203.5 74q187 0 272 -191zM327 422q0 -109 48 -171t115 -62q56 0 108 42.5t92 153.5t40 236q0 121 -50.5 187.5t-114.5 66.5q-50 0 -103.5 -46
t-94 -162.5t-40.5 -244.5z" />
    <glyph glyph-name="r" unicode="r" horiz-adv-x="653" 
d="M236 1062h220l-35 -206q122 230 266 230q50 0 109 -30l-90 -235q-32 14 -67 14q-55 0 -103 -37q-73 -57 -112 -149t-77 -316l-58 -333h-235z" />
    <glyph glyph-name="s" unicode="s" 
d="M37 297l228 44q30 -90 76 -125.5t122 -35.5q73 0 118 35t45 82q0 32 -19 54q-20 21 -96 51q-211 85 -262 134q-81 79 -81 206q0 150 106 247t290 97q312 0 362 -277l-217 -46q-38 126 -182 126q-68 0 -103 -28t-35 -71q0 -36 27 -61q20 -19 138 -61q169 -60 227 -117
q85 -83 85 -202q0 -161 -109 -267t-289 -106q-354 0 -431 321z" />
    <glyph glyph-name="t" unicode="t" horiz-adv-x="559" 
d="M126 849l36 213h115l29 170l269 198l-63 -368h144l-36 -213h-144l-77 -445q-20 -120 -20 -139q0 -35 18 -52t62 -17q14 0 77 7l-37 -213q-61 -14 -123 -14q-120 0 -179.5 56t-59.5 164q0 50 30 226l73 427h-114z" />
    <glyph glyph-name="u" unicode="u" horiz-adv-x="1026" 
d="M247 1062h236l-108 -629q-19 -113 -19 -141q0 -48 28.5 -80t69.5 -32q48 0 95 34q66 47 105 122.5t64 219.5l86 506h235l-181 -1062h-220l24 144q-145 -168 -313 -168q-106 0 -168.5 73.5t-62.5 202.5q0 54 28 218z" />
    <glyph glyph-name="v" unicode="v" 
d="M503 0h-202l-175 1062h231l62 -463q24 -180 30 -250l52 118l67 147l216 448h254z" />
    <glyph glyph-name="w" unicode="w" horiz-adv-x="1307" 
d="M978 0h-221l-43 676l-266 -676h-218l-109 1062h209l61 -712l271 712h214l30 -712l270 712h236z" />
    <glyph glyph-name="x" unicode="x" 
d="M468 298l-217 -298h-288l403 544l-222 518h250l127 -303l221 303h286l-404 -551l220 -511h-250z" />
    <glyph glyph-name="y" unicode="y" 
d="M141 1062h234l59 -529q22 -203 25 -286q46 164 126 344l209 471h249l-538 -1166q-76 -164 -117 -219.5t-92.5 -81.5t-116.5 -26q-74 0 -168 32l21 214q42 -15 82 -15q108 0 179 200z" />
    <glyph glyph-name="z" unicode="z" horiz-adv-x="840" 
d="M28 0l34 194l477 644h-389l38 224h683l-29 -171l-481 -659h419l-40 -232h-712z" />
    <glyph glyph-name="braceleft" unicode="{" horiz-adv-x="653" 
d="M92 410l42 240q72 4 113 34t73 101.5t61 240.5q30 177 60 253.5t73.5 120t108 67.5t178.5 24h43l-43 -239q-92 0 -121.5 -13.5t-45.5 -42.5q-12 -21 -38 -150q-47 -231 -66 -283q-30 -83 -68.5 -134t-109.5 -99q96 -76 96 -226q0 -76 -26 -230q-24 -150 -24 -189
q0 -38 31 -60q25 -16 117 -16l-42 -240h-43q-118 0 -171.5 23.5t-84 73.5t-30.5 128q0 85 30 241q27 141 27 217q0 70 -35 117q-27 36 -105 41z" />
    <glyph glyph-name="bar" unicode="|" horiz-adv-x="471" 
d="M145 -431v1922h183v-1922h-183z" />
    <glyph glyph-name="braceright" unicode="}" horiz-adv-x="653" 
d="M565 410q-72 -4 -113 -34t-72.5 -101t-60.5 -240q-30 -177 -60.5 -254t-73.5 -120t-107.5 -67.5t-178.5 -24.5h-43l43 240q83 0 112.5 12t48.5 38t31 95q53 293 102.5 402t152.5 174q-53 48 -74 100t-21 134q0 37 6 86q20 161 37 257q7 41 7 71q0 40 -26 57t-123 17
l42 239h44q118 0 170 -22.5t83.5 -76.5t31.5 -131q0 -66 -30 -235q-27 -155 -27 -208q0 -85 37 -130q28 -33 104 -38z" />
    <glyph glyph-name="asciitilde" unicode="~" horiz-adv-x="981" 
d="M55 519v259q104 138 242 138q52 0 95.5 -12.5t143.5 -61.5q126 -62 166 -62q47 0 108 35.5t116 108.5v-270q-46 -58 -127 -103q-52 -29 -118 -29q-41 0 -80 11.5t-124 57.5q-126 67 -198 67q-115 0 -224 -139z" />
    <glyph glyph-name="exclamdown" unicode="&#xa1;" horiz-adv-x="559" 
d="M464 784h-232l47 278h233zM273 689h129l-76 -749l-59 -344h-247l63 370z" />
    <glyph glyph-name="cent" unicode="&#xa2;" 
d="M285 18q-81 46 -133.5 152.5t-52.5 260.5q0 199 68.5 349t182.5 228t246 78l48 -2l127 378l100 -49l-121 -359q85 -41 137.5 -125t58.5 -198l-208 -26q-7 95 -56 148l-222 -661l13 -1q126 0 195 208l216 -41q-53 -187 -164.5 -285t-251.5 -98q-36 0 -79 8l-127 -378
l-100 48zM361 243l219 651q-65 -5 -121.5 -56.5t-97.5 -171t-41 -262.5q0 -107 41 -161z" />
    <glyph glyph-name="sterling" unicode="&#xa3;" 
d="M274 841q-14 84 -14 164q0 217 118.5 351.5t291.5 134.5q151 0 248 -104.5t108 -291.5l-211 -25q-27 199 -154 199q-74 0 -129.5 -74t-55.5 -210q0 -54 12 -144h208l-39 -224h-159q-6 -116 -44 -204t-130 -190q61 31 121 31q32 0 81 -11q70 -16 111 -16q90 0 187 53
l70 -244q-73 -37 -120.5 -49t-99.5 -12q-80 0 -181 33q-122 41 -192 41q-114 0 -241 -86l-25 260q102 53 173.5 159t83.5 235h-188l38 224h132z" />
    <glyph glyph-name="currency" unicode="&#xa4;" 
d="M145 941l-108 131l136 178l112 -136q43 29 88 43t91 14q47 0 91.5 -14t87.5 -43l110 134l137 -169l-109 -133q24 -53 35.5 -107.5t11.5 -110.5q0 -55 -11.5 -109.5t-35.5 -108.5l110 -133l-136 -171l-112 136q-41 -28 -85.5 -42.5t-93.5 -14.5q-46 0 -90.5 14t-86.5 42
l-106 -131l-140 168l107 132q-23 51 -35 105.5t-12 112.5t11 111t33 102zM298 728q0 -87 50 -144.5t116 -57.5t116 57.5t50 144.5t-50 144.5t-116 57.5t-116 -57.5t-50 -144.5z" />
    <glyph glyph-name="yen" unicode="&#xa5;" 
d="M531 0h-232l49 286h-306l31 177h305l25 143h-306l30 177h226l-169 683h239l58 -259q24 -107 65 -368q104 249 202 432l104 195h268l-385 -683h233l-31 -177h-302l-24 -143h302l-30 -177h-303z" />
    <glyph glyph-name="brokenbar" unicode="&#xa6;" horiz-adv-x="471" 
d="M145 701v790h183v-790h-183zM145 -431v791h183v-791h-183z" />
    <glyph glyph-name="section" unicode="&#xa7;" 
d="M37 -87l214 59q22 -110 65 -155.5t106 -45.5q53 0 83 30.5t30 80.5q0 40 -27 85.5t-210 259.5q-112 131 -147.5 209.5t-35.5 161.5q0 110 51.5 199.5t168.5 165.5q-50 97 -50 190q0 98 42 177t115.5 120t172.5 41q292 0 326 -341l-212 -25q-10 168 -123 168
q-48 0 -78 -34t-30 -92q0 -45 21.5 -86.5t119.5 -148.5q168 -184 213 -273.5t45 -186.5q0 -105 -56 -198.5t-158 -155.5q69 -117 69 -223q0 -143 -93 -236t-242 -93q-148 0 -251 92t-129 255zM429 819q-63 -46 -87 -88.5t-24 -95.5q0 -49 31 -98q17 -28 138 -170l93 -109
q53 25 91 76q27 38 27 86q0 39 -20 81.5t-88 122.5q-151 179 -161 195z" />
    <glyph glyph-name="dieresis" unicode="&#xa8;" horiz-adv-x="559" 
d="M184 1468h201l-42 -245h-201zM529 1468h202l-42 -245h-202z" />
    <glyph glyph-name="copyright" unicode="&#xa9;" horiz-adv-x="1237" 
d="M620 1496q160 0 303.5 -95t234 -275.5t90.5 -395.5t-90.5 -395.5t-234.5 -275.5t-303 -95t-303 95t-234.5 275.5t-90.5 395.5t90.5 395.5t234.5 275.5t303 95zM620 1345q-128 0 -243.5 -76t-188 -221t-72.5 -318t72.5 -318t188 -221t243.5 -76t243.5 76t188.5 221t73 318
t-73 318t-188.5 221t-243.5 76zM773 616l132 -54q-32 -130 -105 -195t-171 -65q-135 0 -226 109.5t-91 312.5q0 210 89.5 320t229.5 110q201 0 274 -243l-133 -38q-42 139 -146 139q-73 0 -121.5 -68t-48.5 -213q0 -147 47 -216.5t109 -69.5q121 0 161 171z" />
    <glyph glyph-name="ordfeminine" unicode="&#xaa;" horiz-adv-x="621" 
d="M349 1253l-157 26q72 212 275 212q111 0 167.5 -53.5t56.5 -144.5q0 -70 -35 -234q-33 -156 -33 -196q0 -52 17 -104h-155q-8 22 -11 47q-75 -63 -161 -63q-78 0 -127 55.5t-49 147.5q0 86 41.5 140t119.5 76q43 12 223 34q12 52 12 81q0 27 -19 42.5t-54 15.5
q-74 0 -111 -82zM485 1054q-125 -17 -156 -38.5t-31 -61.5q0 -29 18 -48t45 -19q44 0 74.5 34.5t49.5 132.5z" />
    <glyph glyph-name="guillemotleft" unicode="&#xab;" 
d="M425 553l318 424h200l-289 -446l103 -460h-169zM89 552l338 425h197l-296 -444l109 -462h-165z" />
    <glyph glyph-name="logicalnot" unicode="&#xac;" horiz-adv-x="981" 
d="M699 376v441h-630v257h841v-698h-211z" />
    <glyph glyph-name="registered" unicode="&#xae;" horiz-adv-x="1237" 
d="M620 1496q160 0 303.5 -95t234 -275.5t90.5 -395.5t-90.5 -395.5t-234.5 -275.5t-303 -95t-303 95t-234.5 275.5t-90.5 395.5t90.5 395.5t234.5 275.5t303 95zM621 1346q-128 0 -243.5 -76t-188 -221.5t-72.5 -318.5t72.5 -318.5t188.5 -222t243 -76.5q128 0 243.5 76.5
t188.5 222t73 318.5t-73 318.5t-188.5 221.5t-243.5 76zM336 320v813h136q203 0 240 -5q73 -12 119 -70.5t46 -152.5q0 -93 -49 -154t-131 -75q40 -19 66.5 -55.5t75.5 -136.5l78 -164h-167l-56 132q-56 133 -93 167.5t-94 34.5h-35v-334h-136zM472 782h54q111 0 136 8
q33 9 52 37t19 67t-19.5 65.5t-52.5 36.5q-26 8 -135 8h-54v-222z" />
    <glyph glyph-name="overscore" unicode="&#xaf;" horiz-adv-x="1024" 
d="M193 1722h1048v-103h-1048v103z" />
    <glyph glyph-name="degree" unicode="&#xb0;" horiz-adv-x="819" 
d="M86 1172q0 133 93.5 226t225.5 93t225.5 -93.5t93.5 -225.5t-93.5 -225.5t-225.5 -93.5t-225.5 93.5t-93.5 225.5zM252 1172q0 -63 45 -108t108 -45t108 45t45 108t-45 108t-108 45t-108 -45t-45 -108z" />
    <glyph glyph-name="plusminus" unicode="&#xb1;" horiz-adv-x="1124" 
d="M434 356v381h-384v263h384v381h256v-381h385v-263h-385v-381h-256zM50 0v263h1025v-263h-1025z" />
    <glyph glyph-name="twosuperior" unicode="&#xb2;" horiz-adv-x="559" 
d="M358 1226l-155 23q37 235 239 235q102 0 162 -58t60 -152q0 -66 -41 -136t-173 -187q-21 -19 -64 -66h233l-32 -158h-450q10 85 47.5 149t178.5 202q103 99 125 134.5t22 63.5q0 31 -18 50t-46 19q-33 0 -54.5 -25.5t-33.5 -93.5z" />
    <glyph glyph-name="threesuperior" unicode="&#xb3;" horiz-adv-x="559" 
d="M128 944l153 18q8 -62 26.5 -82.5t52.5 -20.5q43 0 71.5 28.5t28.5 73.5q0 39 -22.5 61t-59.5 22q-14 0 -37 -5l30 150l25 -2q49 0 74.5 25t25.5 68q0 29 -16.5 45.5t-44.5 16.5q-60 0 -85 -101l-147 30q30 101 75 145q68 68 167 68q95 0 152 -56.5t57 -147.5
q0 -48 -20 -86t-76 -84q37 -43 49.5 -74.5t12.5 -68.5q0 -101 -76.5 -176.5t-184.5 -75.5q-95 0 -155.5 56.5t-75.5 172.5z" />
    <glyph glyph-name="acute" unicode="&#xb4;" horiz-adv-x="559" 
d="M479 1496h252l-267 -300h-156z" />
    <glyph glyph-name="mu1" unicode="&#xb5;" horiz-adv-x="1180" 
d="M235 1062h287l-102 -492l-26 -120q-6 -41 -6 -79q0 -82 47.5 -132t116.5 -50q79 0 141 62.5t103 254.5l117 556h284l-224 -1062h-256l21 99q-79 -81 -122 -102.5t-93 -21.5q-66 0 -112.5 31t-89.5 107l-110 -524h-287z" />
    <glyph glyph-name="paragraph" unicode="&#xb6;" 
d="M520 -403h-199v1047q-149 13 -236 118t-87 290q0 116 38.5 205t95.5 133.5t125 63.5q46 12 179 12h490v-261h-93v-1608h-195v1608h-118v-1608z" />
    <glyph glyph-name="middot" unicode="&#xb7;" horiz-adv-x="559" 
d="M271 872h232l-48 -278h-232z" />
    <glyph glyph-name="cedilla" unicode="&#xb8;" horiz-adv-x="559" 
d="M11 -421l39 116l50 -1q73 0 148 31q51 21 51 71q0 32 -23.5 51t-71.5 19q-27 0 -74 -9l28 99q59 18 107 18q85 0 134 -45.5t49 -119.5q0 -94 -94 -164t-264 -70q-51 0 -79 4z" />
    <glyph glyph-name="onesuperior" unicode="&#xb9;" horiz-adv-x="559" 
d="M192 1141l32 155q103 48 156 84q77 52 127 106h100l-155 -759h-160l101 492q-97 -56 -201 -78z" />
    <glyph glyph-name="ordmasculine" unicode="&#xba;" horiz-adv-x="612" 
d="M121 1050q0 180 89 310.5t227 130.5q111 0 185 -83.5t74 -223.5q0 -120 -49 -231.5t-117.5 -161t-154.5 -49.5q-111 0 -182.5 83t-71.5 225zM287 1026q0 -55 25 -85t64 -30q64 0 108 94.5t44 203.5q0 56 -24.5 85.5t-63.5 29.5q-66 0 -109.5 -92.5t-43.5 -205.5z" />
    <glyph glyph-name="guillemotright" unicode="&#xbb;" 
d="M557 496l-319 -425h-200l290 447l-104 459h169zM892 497l-338 -426h-197l296 445l-109 461h165z" />
    <glyph glyph-name="onequarter" unicode="&#xbc;" horiz-adv-x="1401" 
d="M192 1141l32 155q103 48 156 84q77 52 127 106h100l-155 -759h-160l101 492q-97 -56 -201 -78zM310 -61h-143l1101 1545h142zM1129 106h-289l29 140l389 466h136l-93 -466h86l-31 -140h-86l-30 -148h-142zM1159 246l50 227l-186 -227h136z" />
    <glyph glyph-name="onehalf" unicode="&#xbd;" horiz-adv-x="1401" 
d="M192 1141l32 155q103 48 156 84q77 52 127 106h100l-155 -759h-160l101 492q-97 -56 -201 -78zM285 -61h-143l1101 1545h142zM1096 457l-155 23q37 235 239 235q102 0 162 -58t60 -152q0 -66 -41 -136t-173 -187q-21 -19 -64 -66h233l-32 -158h-450q10 85 47.5 149
t178.5 202q103 99 125 134.5t22 63.5q0 31 -18 50t-46 19q-33 0 -54.5 -25.5t-33.5 -93.5z" />
    <glyph glyph-name="threequarters" unicode="&#xbe;" horiz-adv-x="1401" 
d="M128 944l153 18q8 -62 26.5 -82.5t52.5 -20.5q43 0 71.5 28.5t28.5 73.5q0 39 -22.5 61t-59.5 22q-14 0 -37 -5l30 150l25 -2q49 0 74.5 25t25.5 68q0 29 -16.5 45.5t-44.5 16.5q-60 0 -85 -101l-147 30q30 101 75 145q68 68 167 68q95 0 152 -56.5t57 -147.5
q0 -48 -20 -86t-76 -84q37 -43 49.5 -74.5t12.5 -68.5q0 -101 -76.5 -176.5t-184.5 -75.5q-95 0 -155.5 56.5t-75.5 172.5zM330 -61h-143l1101 1545h142zM1129 106h-289l29 140l389 466h136l-93 -466h86l-31 -140h-86l-30 -148h-142zM1159 246l50 227l-186 -227h136z" />
    <glyph glyph-name="questiondown" unicode="&#xbf;" horiz-adv-x="1026" 
d="M745 784h-232l47 278h233zM509 696h212q-18 -136 -70 -234t-207 -263q-126 -133 -152.5 -179.5t-26.5 -93.5q0 -65 42 -104.5t120 -39.5q91 0 150 59.5t84 195.5l216 -46q-43 -201 -164.5 -310.5t-288.5 -109.5q-169 0 -274 103.5t-105 263.5q0 97 47 184.5t230 272.5
q118 121 146.5 169t40.5 132z" />
    <glyph glyph-name="Agrave" unicode="&#xc0;" horiz-adv-x="1212" 
d="M856 324h-477l-144 -324h-254l680 1466h274l195 -1466h-234zM825 568l-69 590l-265 -590h334zM644 1871h227l105 -299h-160z" />
    <glyph glyph-name="Aacute" unicode="&#xc1;" horiz-adv-x="1212" 
d="M856 324h-477l-144 -324h-254l680 1466h274l195 -1466h-234zM825 568l-69 590l-265 -590h334zM899 1868h252l-267 -300h-156z" />
    <glyph glyph-name="Acircumflex" unicode="&#xc2;" horiz-adv-x="1212" 
d="M856 324h-477l-144 -324h-254l680 1466h274l195 -1466h-234zM825 568l-69 590l-265 -590h334zM852 1746l-144 -178h-194l244 301h220l99 -301h-162z" />
    <glyph glyph-name="Atilde" unicode="&#xc3;" horiz-adv-x="1212" 
d="M856 324h-477l-144 -324h-254l680 1466h274l195 -1466h-234zM825 568l-69 590l-265 -590h334zM680 1585h-104q26 141 67 191t93 50q45 0 155 -49q64 -28 88 -28q18 0 31.5 15t24.5 63h105q-15 -122 -61.5 -181t-103.5 -59q-38 0 -117 39q-83 41 -105 41q-52 0 -73 -82z
" />
    <glyph glyph-name="Adieresis" unicode="&#xc4;" horiz-adv-x="1212" 
d="M856 324h-477l-144 -324h-254l680 1466h274l195 -1466h-234zM825 568l-69 590l-265 -590h334zM604 1840h201l-42 -245h-201zM949 1840h202l-42 -245h-202z" />
    <glyph glyph-name="Aring" unicode="&#xc5;" horiz-adv-x="1212" 
d="M856 324h-477l-144 -324h-254l680 1466h274l195 -1466h-234zM825 568l-69 590l-265 -590h334zM673 1723q0 83 47.5 138t110.5 55t111 -55t48 -138t-48 -138t-111 -55t-110.5 55t-47.5 138zM762 1723q0 -36 21 -60t48 -24q28 0 49 24t21 60q0 37 -21 61t-49 24
q-27 0 -48 -24.5t-21 -60.5z" />
    <glyph glyph-name="AE" unicode="&#xc6;" horiz-adv-x="1679" 
d="M771 367h-400l-171 -367h-254l699 1466h1134l-42 -245h-589l-57 -335h565l-41 -245h-566l-68 -396h634l-41 -245h-866zM813 612l105 609h-147l-284 -609h326z" />
    <glyph glyph-name="Ccedilla" unicode="&#xc7;" horiz-adv-x="1212" 
d="M940 528l249 -45q-75 -255 -221.5 -382t-339.5 -127q-216 0 -342.5 158t-126.5 474q0 271 92 477.5t234.5 307t308.5 100.5q187 0 311.5 -123t146.5 -352l-237 -28q-21 133 -78 188t-148 55q-93 0 -179 -67t-146.5 -224.5t-60.5 -346.5q0 -177 70 -271.5t170 -94.5
q95 0 176 74.5t121 226.5zM368 -415l39 116l50 -1q73 0 148 31q51 21 51 71q0 32 -23.5 51t-71.5 19q-27 0 -74 -9l28 99q59 18 107 18q85 0 134 -45.5t49 -119.5q0 -94 -94 -164t-264 -70q-51 0 -79 4z" />
    <glyph glyph-name="Egrave" unicode="&#xc8;" horiz-adv-x="1120" 
d="M69 0l251 1466h891l-42 -245h-643l-57 -333h622l-42 -245h-622l-69 -398h691l-41 -245h-939zM601 1871h227l105 -299h-160z" />
    <glyph glyph-name="Eacute" unicode="&#xc9;" horiz-adv-x="1120" 
d="M69 0l251 1466h891l-42 -245h-643l-57 -333h622l-42 -245h-622l-69 -398h691l-41 -245h-939zM856 1868h252l-267 -300h-156z" />
    <glyph glyph-name="Ecircumflex" unicode="&#xca;" horiz-adv-x="1120" 
d="M69 0l251 1466h891l-42 -245h-643l-57 -333h622l-42 -245h-622l-69 -398h691l-41 -245h-939zM809 1746l-144 -178h-194l244 301h220l99 -301h-162z" />
    <glyph glyph-name="Edieresis" unicode="&#xcb;" horiz-adv-x="1120" 
d="M69 0l251 1466h891l-42 -245h-643l-57 -333h622l-42 -245h-622l-69 -398h691l-41 -245h-939zM561 1840h201l-42 -245h-201zM906 1840h202l-42 -245h-202z" />
    <glyph glyph-name="Igrave" unicode="&#xcc;" horiz-adv-x="467" 
d="M59 0l251 1466h247l-251 -1466h-247zM278 1871h227l105 -299h-160z" />
    <glyph glyph-name="Iacute" unicode="&#xcd;" horiz-adv-x="467" 
d="M59 0l251 1466h247l-251 -1466h-247zM503 1868h252l-267 -300h-156z" />
    <glyph glyph-name="Icircumflex" unicode="&#xce;" horiz-adv-x="467" 
d="M59 0l251 1466h247l-251 -1466h-247zM486 1746l-144 -178h-194l244 301h220l99 -301h-162z" />
    <glyph glyph-name="Idieresis" unicode="&#xcf;" horiz-adv-x="467" 
d="M59 0l251 1466h247l-251 -1466h-247zM238 1840h201l-42 -245h-201zM583 1840h202l-42 -245h-202z" />
    <glyph glyph-name="Eth" unicode="&#xd0;" horiz-adv-x="1212" 
d="M73 0l112 642h-124l31 177h124l112 647h320q169 0 228 -14q102 -25 177.5 -99t119.5 -197.5t44 -296.5q0 -182 -45.5 -337t-126.5 -270.5t-168 -167.5t-182 -71q-62 -13 -198 -13h-424zM361 236h125q137 0 192 19q72 24 135 98.5t109 207t46 306.5q0 144 -37.5 225.5
t-100.5 111.5q-45 20 -157 20h-140l-71 -405h258l-31 -177h-258z" />
    <glyph glyph-name="Ntilde" unicode="&#xd1;" horiz-adv-x="1212" 
d="M1030 0h-231l-325 985l-168 -985h-231l251 1466h231l325 -981l168 981h231zM680 1585h-104q26 141 67 191t93 50q45 0 155 -49q64 -28 88 -28q18 0 31.5 15t24.5 63h105q-15 -122 -61.5 -181t-103.5 -59q-38 0 -117 39q-83 41 -105 41q-52 0 -73 -82z" />
    <glyph glyph-name="Ograve" unicode="&#xd2;" horiz-adv-x="1307" 
d="M147 575q0 190 64 391q81 258 240 391.5t368 133.5q217 0 357.5 -165t140.5 -450q0 -258 -100.5 -476t-249.5 -322t-328 -104q-214 0 -341 150q-151 177 -151 451zM392 581q0 -162 79.5 -258.5t193.5 -96.5q92 0 182 72t156.5 236.5t66.5 334.5q0 178 -82 280
q-72 90 -189 90q-94 0 -186 -73t-156.5 -234.5t-64.5 -350.5zM698 1871h227l105 -299h-160z" />
    <glyph glyph-name="Oacute" unicode="&#xd3;" horiz-adv-x="1307" 
d="M147 575q0 190 64 391q81 258 240 391.5t368 133.5q217 0 357.5 -165t140.5 -450q0 -258 -100.5 -476t-249.5 -322t-328 -104q-214 0 -341 150q-151 177 -151 451zM392 581q0 -162 79.5 -258.5t193.5 -96.5q92 0 182 72t156.5 236.5t66.5 334.5q0 178 -82 280
q-72 90 -189 90q-94 0 -186 -73t-156.5 -234.5t-64.5 -350.5zM953 1868h252l-267 -300h-156z" />
    <glyph glyph-name="Ocircumflex" unicode="&#xd4;" horiz-adv-x="1307" 
d="M147 575q0 190 64 391q81 258 240 391.5t368 133.5q217 0 357.5 -165t140.5 -450q0 -258 -100.5 -476t-249.5 -322t-328 -104q-214 0 -341 150q-151 177 -151 451zM392 581q0 -162 79.5 -258.5t193.5 -96.5q92 0 182 72t156.5 236.5t66.5 334.5q0 178 -82 280
q-72 90 -189 90q-94 0 -186 -73t-156.5 -234.5t-64.5 -350.5zM906 1746l-144 -178h-194l244 301h220l99 -301h-162z" />
    <glyph glyph-name="Otilde" unicode="&#xd5;" horiz-adv-x="1307" 
d="M147 575q0 190 64 391q81 258 240 391.5t368 133.5q217 0 357.5 -165t140.5 -450q0 -258 -100.5 -476t-249.5 -322t-328 -104q-214 0 -341 150q-151 177 -151 451zM392 581q0 -162 79.5 -258.5t193.5 -96.5q92 0 182 72t156.5 236.5t66.5 334.5q0 178 -82 280
q-72 90 -189 90q-94 0 -186 -73t-156.5 -234.5t-64.5 -350.5zM733 1585h-104q26 141 67 191t93 50q45 0 155 -49q64 -28 88 -28q18 0 31.5 15t24.5 63h105q-15 -122 -61.5 -181t-103.5 -59q-38 0 -117 39q-83 41 -105 41q-52 0 -73 -82z" />
    <glyph glyph-name="Odieresis" unicode="&#xd6;" horiz-adv-x="1307" 
d="M147 575q0 190 64 391q81 258 240 391.5t368 133.5q217 0 357.5 -165t140.5 -450q0 -258 -100.5 -476t-249.5 -322t-328 -104q-214 0 -341 150q-151 177 -151 451zM392 581q0 -162 79.5 -258.5t193.5 -96.5q92 0 182 72t156.5 236.5t66.5 334.5q0 178 -82 280
q-72 90 -189 90q-94 0 -186 -73t-156.5 -234.5t-64.5 -350.5zM657 1840h201l-42 -245h-201zM1002 1840h202l-42 -245h-202z" />
    <glyph glyph-name="multiply" unicode="&#xd7;" horiz-adv-x="981" 
d="M90 420l248 302l-249 303l152 186l249 -303l248 302l149 -182l-248 -302l250 -305l-152 -186l-250 305l-248 -302z" />
    <glyph glyph-name="Oslash" unicode="&#xd8;" horiz-adv-x="1307" 
d="M254 172q-113 168 -113 408q0 183 64 385q81 259 240.5 392.5t366.5 133.5q170 0 282 -89l115 168l112 -114l-118 -173q108 -162 108 -409q0 -256 -100 -473.5t-249.5 -321.5t-323.5 -104q-164 0 -271 80l-120 -177l-116 114zM416 409l529 775q-66 55 -152 55
q-94 0 -185.5 -72t-156.5 -233.5t-65 -343.5q0 -95 30 -181zM1038 1040l-523 -768q68 -55 148 -55q90 0 181.5 73.5t158.5 239.5t67 343q0 80 -32 167z" />
    <glyph glyph-name="Ugrave" unicode="&#xd9;" horiz-adv-x="1212" 
d="M320 1466h247l-136 -796l-33 -192q-4 -28 -4 -50q0 -93 54.5 -147t148.5 -54q83 0 141 37t92 113.5t70 286.5l137 802h247l-137 -802q-42 -245 -89 -360q-68 -166 -184 -247.5t-289 -81.5q-201 0 -316.5 120.5t-115.5 328.5q0 67 35 270zM645 1871h227l105 -299h-160z
" />
    <glyph glyph-name="Uacute" unicode="&#xda;" horiz-adv-x="1212" 
d="M320 1466h247l-136 -796l-33 -192q-4 -28 -4 -50q0 -93 54.5 -147t148.5 -54q83 0 141 37t92 113.5t70 286.5l137 802h247l-137 -802q-42 -245 -89 -360q-68 -166 -184 -247.5t-289 -81.5q-201 0 -316.5 120.5t-115.5 328.5q0 67 35 270zM899 1868h252l-267 -300h-156z
" />
    <glyph glyph-name="Ucircumflex" unicode="&#xdb;" horiz-adv-x="1212" 
d="M320 1466h247l-136 -796l-33 -192q-4 -28 -4 -50q0 -93 54.5 -147t148.5 -54q83 0 141 37t92 113.5t70 286.5l137 802h247l-137 -802q-42 -245 -89 -360q-68 -166 -184 -247.5t-289 -81.5q-201 0 -316.5 120.5t-115.5 328.5q0 67 35 270zM852 1746l-144 -178h-194
l244 301h220l99 -301h-162z" />
    <glyph glyph-name="Udieresis" unicode="&#xdc;" horiz-adv-x="1212" 
d="M320 1466h247l-136 -796l-33 -192q-4 -28 -4 -50q0 -93 54.5 -147t148.5 -54q83 0 141 37t92 113.5t70 286.5l137 802h247l-137 -802q-42 -245 -89 -360q-68 -166 -184 -247.5t-289 -81.5q-201 0 -316.5 120.5t-115.5 328.5q0 67 35 270zM604 1840h201l-42 -245h-201z
M949 1840h202l-42 -245h-202z" />
    <glyph glyph-name="Yacute" unicode="&#xdd;" horiz-adv-x="1120" 
d="M674 0h-248l99 571l-332 895h263l149 -414q53 -148 71 -215q32 67 72 139l113 193l170 297h287l-551 -923zM856 1868h252l-267 -300h-156z" />
    <glyph glyph-name="Thorn" unicode="&#xde;" horiz-adv-x="1120" 
d="M316 0h-247l256 1466h247l-49 -280h238q131 0 183 -19q79 -29 133 -122t54 -230q0 -141 -54.5 -264.5t-133 -181t-187.5 -78.5q-59 -11 -233 -11h-160zM406 522h75q183 0 249.5 25.5t110 93t43.5 154.5q0 54 -23 91t-56 48t-150 11h-174z" />
    <glyph glyph-name="germandbls" unicode="&#xdf;" horiz-adv-x="1026" 
d="M294 0h-235l165 961q41 239 92 331t143.5 145.5t214.5 53.5q143 0 222.5 -75.5t79.5 -203.5q0 -57 -20 -111t-76 -135q-61 -87 -74.5 -117.5t-13.5 -56.5q0 -24 11 -50q16 -38 75 -134q62 -101 80 -155.5t18 -116.5q0 -148 -83.5 -254t-219.5 -106q-84 0 -165 51.5
t-134 142.5l167 115q26 -44 49 -59.5t51 -15.5q41 0 70 32.5t29 86.5q0 33 -11 63t-54 96q-73 111 -95.5 170.5t-22.5 109.5q0 47 19.5 101t93.5 175q39 64 48 89.5t9 52.5q0 42 -22 66.5t-59 24.5q-73 0 -123 -86q-35 -61 -72 -276z" />
    <glyph glyph-name="agrave" unicode="&#xe0;" 
d="M400 761l-230 24q41 147 142 224t256 77q158 0 243 -78.5t85 -208.5q0 -46 -6.5 -98t-48.5 -284q-35 -191 -35 -267q0 -69 19 -150h-228q-14 58 -17 120q-52 -70 -119.5 -107t-134.5 -37q-106 0 -178 84t-72 224q0 161 82 248q81 87 272 105q168 17 225 41q15 61 15 97
q0 48 -32.5 77.5t-88.5 29.5q-122 0 -149 -121zM624 495q-22 -7 -57 -13q-165 -24 -217.5 -64.5t-52.5 -108.5q0 -53 30.5 -86t77.5 -33q49 0 94 27.5t72 77t46 162.5zM426 1499h227l105 -299h-160z" />
    <glyph glyph-name="aacute" unicode="&#xe1;" 
d="M400 761l-230 24q41 147 142 224t256 77q158 0 243 -78.5t85 -208.5q0 -46 -6.5 -98t-48.5 -284q-35 -191 -35 -267q0 -69 19 -150h-228q-14 58 -17 120q-52 -70 -119.5 -107t-134.5 -37q-106 0 -178 84t-72 224q0 161 82 248q81 87 272 105q168 17 225 41q15 61 15 97
q0 48 -32.5 77.5t-88.5 29.5q-122 0 -149 -121zM624 495q-22 -7 -57 -13q-165 -24 -217.5 -64.5t-52.5 -108.5q0 -53 30.5 -86t77.5 -33q49 0 94 27.5t72 77t46 162.5zM621 1496h252l-267 -300h-156z" />
    <glyph glyph-name="acircumflex" unicode="&#xe2;" 
d="M400 761l-230 24q41 147 142 224t256 77q158 0 243 -78.5t85 -208.5q0 -46 -6.5 -98t-48.5 -284q-35 -191 -35 -267q0 -69 19 -150h-228q-14 58 -17 120q-52 -70 -119.5 -107t-134.5 -37q-106 0 -178 84t-72 224q0 161 82 248q81 87 272 105q168 17 225 41q15 61 15 97
q0 48 -32.5 77.5t-88.5 29.5q-122 0 -149 -121zM624 495q-22 -7 -57 -13q-165 -24 -217.5 -64.5t-52.5 -108.5q0 -53 30.5 -86t77.5 -33q49 0 94 27.5t72 77t46 162.5zM648 1375l-144 -178h-194l244 301h220l99 -301h-162z" />
    <glyph glyph-name="atilde" unicode="&#xe3;" 
d="M400 761l-230 24q41 147 142 224t256 77q158 0 243 -78.5t85 -208.5q0 -46 -6.5 -98t-48.5 -284q-35 -191 -35 -267q0 -69 19 -150h-228q-14 58 -17 120q-52 -70 -119.5 -107t-134.5 -37q-106 0 -178 84t-72 224q0 161 82 248q81 87 272 105q168 17 225 41q15 61 15 97
q0 48 -32.5 77.5t-88.5 29.5q-122 0 -149 -121zM624 495q-22 -7 -57 -13q-165 -24 -217.5 -64.5t-52.5 -108.5q0 -53 30.5 -86t77.5 -33q49 0 94 27.5t72 77t46 162.5zM456 1213h-104q26 141 67 191t93 50q45 0 155 -49q64 -28 88 -28q18 0 31.5 15t24.5 63h105
q-15 -122 -61.5 -181t-103.5 -59q-38 0 -117 39q-83 41 -105 41q-52 0 -73 -82z" />
    <glyph glyph-name="adieresis" unicode="&#xe4;" 
d="M400 761l-230 24q41 147 142 224t256 77q158 0 243 -78.5t85 -208.5q0 -46 -6.5 -98t-48.5 -284q-35 -191 -35 -267q0 -69 19 -150h-228q-14 58 -17 120q-52 -70 -119.5 -107t-134.5 -37q-106 0 -178 84t-72 224q0 161 82 248q81 87 272 105q168 17 225 41q15 61 15 97
q0 48 -32.5 77.5t-88.5 29.5q-122 0 -149 -121zM624 495q-22 -7 -57 -13q-165 -24 -217.5 -64.5t-52.5 -108.5q0 -53 30.5 -86t77.5 -33q49 0 94 27.5t72 77t46 162.5zM384 1468h201l-42 -245h-201zM729 1468h202l-42 -245h-202z" />
    <glyph glyph-name="aring" unicode="&#xe5;" 
d="M400 761l-230 24q41 147 142 224t256 77q158 0 243 -78.5t85 -208.5q0 -46 -6.5 -98t-48.5 -284q-35 -191 -35 -267q0 -69 19 -150h-228q-14 58 -17 120q-52 -70 -119.5 -107t-134.5 -37q-106 0 -178 84t-72 224q0 161 82 248q81 87 272 105q168 17 225 41q15 61 15 97
q0 48 -32.5 77.5t-88.5 29.5q-122 0 -149 -121zM624 495q-22 -7 -57 -13q-165 -24 -217.5 -64.5t-52.5 -108.5q0 -53 30.5 -86t77.5 -33q49 0 94 27.5t72 77t46 162.5zM466 1351q0 83 47.5 138t110.5 55t111 -55t48 -138t-48 -138t-111 -55t-110.5 55t-47.5 138zM555 1351
q0 -36 21 -60t48 -24q28 0 49 24t21 60q0 37 -21 61t-49 24q-27 0 -48 -24.5t-21 -60.5z" />
    <glyph glyph-name="ae" unicode="&#xe6;" horiz-adv-x="1493" 
d="M1438 440h-599q3 -118 56 -184t125 -66q117 0 181 138l211 -41q-72 -160 -175.5 -235.5t-226.5 -75.5q-230 0 -324 247q-151 -247 -360 -247q-121 0 -197.5 83t-76.5 228q0 109 40 184t107.5 113t224.5 55q173 19 223 42q6 33 6 57q0 73 -33.5 108.5t-97.5 35.5
q-61 0 -96 -28t-53 -96l-225 28q33 141 135 220.5t258 79.5q109 0 172.5 -33t97.5 -99q112 132 289 132q155 0 254.5 -118.5t99.5 -335.5q0 -95 -16 -192zM1240 615l1 32q0 116 -44.5 175.5t-114.5 59.5q-75 0 -138.5 -67t-86.5 -200h383zM616 501q-216 -29 -284 -75
t-68 -113q0 -52 31.5 -86t80.5 -34q77 0 136 70q80 92 104 238z" />
    <glyph glyph-name="ccedilla" unicode="&#xe7;" 
d="M658 400l228 -45q-57 -190 -168.5 -284.5t-254.5 -94.5q-162 0 -262 118t-100 335q0 195 67.5 347.5t183 231t246.5 78.5q148 0 243 -94t107 -261l-224 -29q-16 173 -140 173q-57 0 -112 -47t-96.5 -168t-41.5 -264q0 -95 38.5 -145.5t92.5 -50.5q57 0 109.5 48.5
t83.5 151.5zM195 -413l39 116l50 -1q73 0 148 31q51 21 51 71q0 32 -23.5 51t-71.5 19q-27 0 -74 -9l28 99q59 18 107 18q85 0 134 -45.5t49 -119.5q0 -94 -94 -164t-264 -70q-51 0 -79 4z" />
    <glyph glyph-name="egrave" unicode="&#xe8;" 
d="M915 442h-591v-27q0 -107 50 -171t120 -64q116 0 183 148l211 -43q-62 -155 -165 -232t-231 -77q-170 0 -282.5 132.5t-112.5 359.5q0 245 128 431.5t358 186.5q155 0 251.5 -117.5t96.5 -339.5q0 -105 -16 -187zM716 617l1 28q0 121 -44.5 179t-115.5 58
q-72 0 -130.5 -67t-78.5 -198h368zM416 1499h227l105 -299h-160z" />
    <glyph glyph-name="eacute" unicode="&#xe9;" 
d="M915 442h-591v-27q0 -107 50 -171t120 -64q116 0 183 148l211 -43q-62 -155 -165 -232t-231 -77q-170 0 -282.5 132.5t-112.5 359.5q0 245 128 431.5t358 186.5q155 0 251.5 -117.5t96.5 -339.5q0 -105 -16 -187zM716 617l1 28q0 121 -44.5 179t-115.5 58
q-72 0 -130.5 -67t-78.5 -198h368zM610 1496h252l-267 -300h-156z" />
    <glyph glyph-name="ecircumflex" unicode="&#xea;" 
d="M915 442h-591v-27q0 -107 50 -171t120 -64q116 0 183 148l211 -43q-62 -155 -165 -232t-231 -77q-170 0 -282.5 132.5t-112.5 359.5q0 245 128 431.5t358 186.5q155 0 251.5 -117.5t96.5 -339.5q0 -105 -16 -187zM716 617l1 28q0 121 -44.5 179t-115.5 58
q-72 0 -130.5 -67t-78.5 -198h368zM647 1375l-144 -178h-194l244 301h220l99 -301h-162z" />
    <glyph glyph-name="edieresis" unicode="&#xeb;" 
d="M915 442h-591v-27q0 -107 50 -171t120 -64q116 0 183 148l211 -43q-62 -155 -165 -232t-231 -77q-170 0 -282.5 132.5t-112.5 359.5q0 245 128 431.5t358 186.5q155 0 251.5 -117.5t96.5 -339.5q0 -105 -16 -187zM716 617l1 28q0 121 -44.5 179t-115.5 58
q-72 0 -130.5 -67t-78.5 -198h368zM353 1468h201l-42 -245h-201zM698 1468h202l-42 -245h-202z" />
    <glyph glyph-name="igrave" unicode="&#xec;" horiz-adv-x="467" 
d="M250 1062h235l-182 -1062h-235zM198 1499h227l105 -299h-160z" />
    <glyph glyph-name="iacute" unicode="&#xed;" horiz-adv-x="467" 
d="M250 1062h235l-182 -1062h-235zM402 1496h252l-267 -300h-156z" />
    <glyph glyph-name="icircumflex" unicode="&#xee;" horiz-adv-x="467" 
d="M250 1062h235l-182 -1062h-235zM429 1375l-144 -178h-194l244 301h220l99 -301h-162z" />
    <glyph glyph-name="idieresis" unicode="&#xef;" horiz-adv-x="467" 
d="M250 1062h235l-182 -1062h-235zM155 1468h201l-42 -245h-201zM500 1468h202l-42 -245h-202z" />
    <glyph glyph-name="eth" unicode="&#xf0;" horiz-adv-x="1026" 
d="M564 1466h223l41 -75l166 75l27 -99l-147 -67q82 -180 112 -317.5t30 -314.5q0 -279 -133 -485.5t-364 -206.5q-172 0 -269 89q-148 137 -148 383q0 178 67.5 325t168.5 218t217 71q72 0 126 -28t106 -96q-29 159 -84 285l-199 -87l-29 99l184 80q-34 67 -95 151z
M773 607q0 109 -50 170t-125 61q-118 0 -191 -132.5t-73 -279.5q0 -112 49.5 -172t127.5 -60q62 0 116.5 43.5t100 155.5t45.5 214z" />
    <glyph glyph-name="ntilde" unicode="&#xf1;" horiz-adv-x="1026" 
d="M252 1062h223l-23 -138q87 91 159.5 126.5t149.5 35.5q105 0 168 -73t63 -200q0 -55 -26 -211l-103 -602h-236l104 602q23 135 23 162q0 57 -27.5 87.5t-71.5 30.5q-48 0 -98 -38q-72 -54 -107 -128.5t-70 -279.5l-75 -436h-235zM498 1213h-104q26 141 67 191t93 50
q45 0 155 -49q64 -28 88 -28q18 0 31.5 15t24.5 63h105q-15 -122 -61.5 -181t-103.5 -59q-38 0 -117 39q-83 41 -105 41q-52 0 -73 -82z" />
    <glyph glyph-name="ograve" unicode="&#xf2;" horiz-adv-x="1026" 
d="M102 441q0 261 118 444q131 201 379 201q186 0 296.5 -126t110.5 -351q0 -264 -137.5 -448.5t-359.5 -184.5q-181 0 -294 125t-113 340zM773 646q0 105 -49.5 165t-125.5 60q-64 0 -120 -44t-98 -153t-42 -226q0 -119 51.5 -185t127.5 -66q96 0 163 102q93 140 93 347z
M455 1499h227l105 -299h-160z" />
    <glyph glyph-name="oacute" unicode="&#xf3;" horiz-adv-x="1026" 
d="M102 441q0 261 118 444q131 201 379 201q186 0 296.5 -126t110.5 -351q0 -264 -137.5 -448.5t-359.5 -184.5q-181 0 -294 125t-113 340zM773 646q0 105 -49.5 165t-125.5 60q-64 0 -120 -44t-98 -153t-42 -226q0 -119 51.5 -185t127.5 -66q96 0 163 102q93 140 93 347z
M649 1496h252l-267 -300h-156z" />
    <glyph glyph-name="ocircumflex" unicode="&#xf4;" horiz-adv-x="1026" 
d="M102 441q0 261 118 444q131 201 379 201q186 0 296.5 -126t110.5 -351q0 -264 -137.5 -448.5t-359.5 -184.5q-181 0 -294 125t-113 340zM773 646q0 105 -49.5 165t-125.5 60q-64 0 -120 -44t-98 -153t-42 -226q0 -119 51.5 -185t127.5 -66q96 0 163 102q93 140 93 347z
M687 1375l-144 -178h-194l244 301h220l99 -301h-162z" />
    <glyph glyph-name="otilde" unicode="&#xf5;" horiz-adv-x="1026" 
d="M102 441q0 261 118 444q131 201 379 201q186 0 296.5 -126t110.5 -351q0 -264 -137.5 -448.5t-359.5 -184.5q-181 0 -294 125t-113 340zM773 646q0 105 -49.5 165t-125.5 60q-64 0 -120 -44t-98 -153t-42 -226q0 -119 51.5 -185t127.5 -66q96 0 163 102q93 140 93 347z
M465 1213h-104q26 141 67 191t93 50q45 0 155 -49q64 -28 88 -28q18 0 31.5 15t24.5 63h105q-15 -122 -61.5 -181t-103.5 -59q-38 0 -117 39q-83 41 -105 41q-52 0 -73 -82z" />
    <glyph glyph-name="odieresis" unicode="&#xf6;" horiz-adv-x="1026" 
d="M102 441q0 261 118 444q131 201 379 201q186 0 296.5 -126t110.5 -351q0 -264 -137.5 -448.5t-359.5 -184.5q-181 0 -294 125t-113 340zM773 646q0 105 -49.5 165t-125.5 60q-64 0 -120 -44t-98 -153t-42 -226q0 -119 51.5 -185t127.5 -66q96 0 163 102q93 140 93 347z
M393 1468h201l-42 -245h-201zM738 1468h202l-42 -245h-202z" />
    <glyph glyph-name="divide" unicode="&#xf7;" horiz-adv-x="1124" 
d="M421 981v281h281v-281h-281zM49 592v263h1025v-263h-1025zM421 185v281h281v-281h-281z" />
    <glyph glyph-name="oslash" unicode="&#xf8;" horiz-adv-x="1026" 
d="M821 1026l102 144l91 -94l-101 -142q90 -126 90 -325q0 -263 -137 -448t-360 -185q-126 0 -226 63l-103 -146l-89 96l100 141q-89 130 -89 324q0 186 69 338t177 223t251 71q132 0 225 -60zM693 845q-45 34 -102 34q-64 0 -115 -41q-65 -54 -111 -170.5t-46 -238.5
q0 -51 11 -97zM768 728l-363 -512q46 -31 102 -31q67 0 126 46.5t104 162t45 237.5q0 46 -14 97z" />
    <glyph glyph-name="ugrave" unicode="&#xf9;" horiz-adv-x="1026" 
d="M247 1062h236l-108 -629q-19 -113 -19 -141q0 -48 28.5 -80t69.5 -32q48 0 95 34q66 47 105 122.5t64 219.5l86 506h235l-181 -1062h-220l24 144q-145 -168 -313 -168q-106 0 -168.5 73.5t-62.5 202.5q0 54 28 218zM484 1499h227l105 -299h-160z" />
    <glyph glyph-name="uacute" unicode="&#xfa;" horiz-adv-x="1026" 
d="M247 1062h236l-108 -629q-19 -113 -19 -141q0 -48 28.5 -80t69.5 -32q48 0 95 34q66 47 105 122.5t64 219.5l86 506h235l-181 -1062h-220l24 144q-145 -168 -313 -168q-106 0 -168.5 73.5t-62.5 202.5q0 54 28 218zM688 1496h252l-267 -300h-156z" />
    <glyph glyph-name="ucircumflex" unicode="&#xfb;" horiz-adv-x="1026" 
d="M247 1062h236l-108 -629q-19 -113 -19 -141q0 -48 28.5 -80t69.5 -32q48 0 95 34q66 47 105 122.5t64 219.5l86 506h235l-181 -1062h-220l24 144q-145 -168 -313 -168q-106 0 -168.5 73.5t-62.5 202.5q0 54 28 218zM695 1375l-144 -178h-194l244 301h220l99 -301h-162z
" />
    <glyph glyph-name="udieresis" unicode="&#xfc;" horiz-adv-x="1026" 
d="M247 1062h236l-108 -629q-19 -113 -19 -141q0 -48 28.5 -80t69.5 -32q48 0 95 34q66 47 105 122.5t64 219.5l86 506h235l-181 -1062h-220l24 144q-145 -168 -313 -168q-106 0 -168.5 73.5t-62.5 202.5q0 54 28 218zM441 1468h201l-42 -245h-201zM786 1468h202l-42 -245
h-202z" />
    <glyph glyph-name="yacute" unicode="&#xfd;" 
d="M141 1062h234l59 -529q22 -203 25 -286q46 164 126 344l209 471h249l-538 -1166q-76 -164 -117 -219.5t-92.5 -81.5t-116.5 -26q-74 0 -168 32l21 214q42 -15 82 -15q108 0 179 200zM624 1496h252l-267 -300h-156z" />
    <glyph glyph-name="thorn" unicode="&#xfe;" horiz-adv-x="1026" 
d="M311 1466h236l-84 -491q119 111 246 111q136 0 220 -113.5t84 -343.5q0 -292 -148 -490q-122 -163 -287 -163q-172 0 -261 170l-97 -551h-235zM379 453q0 -125 50.5 -193t116.5 -68q52 0 103.5 43t92.5 160.5t41 240.5q0 120 -47 183t-117 63q-56 0 -107 -43t-92 -155
t-41 -231z" />
    <glyph glyph-name="ydieresis" unicode="&#xff;" 
d="M141 1062h234l59 -529q22 -203 25 -286q46 164 126 344l209 471h249l-538 -1166q-76 -164 -117 -219.5t-92.5 -81.5t-116.5 -26q-74 0 -168 32l21 214q42 -15 82 -15q108 0 179 200zM368 1468h201l-42 -245h-201zM713 1468h202l-42 -245h-202z" />
    <glyph glyph-name="Amacron" unicode="&#x100;" horiz-adv-x="1212" 
d="M856 324h-477l-144 -324h-254l680 1466h274l195 -1466h-234zM825 568l-69 590l-265 -590h334zM584 1763h525l-33 -193h-525z" />
    <glyph glyph-name="amacron" unicode="&#x101;" 
d="M400 761l-230 24q41 147 142 224t256 77q158 0 243 -78.5t85 -208.5q0 -46 -6.5 -98t-48.5 -284q-35 -191 -35 -267q0 -69 19 -150h-228q-14 58 -17 120q-52 -70 -119.5 -107t-134.5 -37q-106 0 -178 84t-72 224q0 161 82 248q81 87 272 105q168 17 225 41q15 61 15 97
q0 48 -32.5 77.5t-88.5 29.5q-122 0 -149 -121zM624 495q-22 -7 -57 -13q-165 -24 -217.5 -64.5t-52.5 -108.5q0 -53 30.5 -86t77.5 -33q49 0 94 27.5t72 77t46 162.5zM341 1336h525l-33 -193h-525z" />
    <glyph glyph-name="Abreve" unicode="&#x102;" horiz-adv-x="1212" 
d="M856 324h-477l-144 -324h-254l680 1466h274l195 -1466h-234zM825 568l-69 590l-265 -590h334zM568 1860h114q19 -82 51 -113.5t79 -31.5q98 0 162 145h108q-35 -140 -121 -226q-64 -64 -156 -64q-95 0 -157.5 71t-79.5 219z" />
    <glyph glyph-name="abreve" unicode="&#x103;" 
d="M400 761l-230 24q41 147 142 224t256 77q158 0 243 -78.5t85 -208.5q0 -46 -6.5 -98t-48.5 -284q-35 -191 -35 -267q0 -69 19 -150h-228q-14 58 -17 120q-52 -70 -119.5 -107t-134.5 -37q-106 0 -178 84t-72 224q0 161 82 248q81 87 272 105q168 17 225 41q15 61 15 97
q0 48 -32.5 77.5t-88.5 29.5q-122 0 -149 -121zM624 495q-22 -7 -57 -13q-165 -24 -217.5 -64.5t-52.5 -108.5q0 -53 30.5 -86t77.5 -33q49 0 94 27.5t72 77t46 162.5zM398 1488h114q19 -82 51 -113.5t79 -31.5q98 0 162 145h108q-35 -140 -121 -226q-64 -64 -156 -64
q-95 0 -157.5 71t-79.5 219z" />
    <glyph glyph-name="Aogonek" unicode="&#x104;" horiz-adv-x="1212" 
d="M856 324h-477l-144 -324h-254l680 1466h274l195 -1466h-234zM825 568l-69 590l-265 -590h334zM1256 -236l-22 -128q-37 -26 -90 -43.5t-91 -17.5q-67 0 -107 46.5t-40 138.5q0 129 54 259h116q-42 -125 -42 -198q0 -46 21.5 -70.5t58.5 -24.5q54 0 142 38z" />
    <glyph glyph-name="aogonek" unicode="&#x105;" 
d="M400 761l-230 24q41 147 142 224t256 77q158 0 243 -78.5t85 -208.5q0 -46 -6.5 -98t-48.5 -284q-35 -191 -35 -267q0 -69 19 -150h-228q-14 58 -17 120q-52 -70 -119.5 -107t-134.5 -37q-106 0 -178 84t-72 224q0 161 82 248q81 87 272 105q168 17 225 41q15 61 15 97
q0 48 -32.5 77.5t-88.5 29.5q-122 0 -149 -121zM624 495q-22 -7 -57 -13q-165 -24 -217.5 -64.5t-52.5 -108.5q0 -53 30.5 -86t77.5 -33q49 0 94 27.5t72 77t46 162.5zM957 -236l-22 -128q-37 -26 -90 -43.5t-91 -17.5q-67 0 -107 46.5t-40 138.5q0 129 54 259h116
q-42 -125 -42 -198q0 -46 21.5 -70.5t58.5 -24.5q54 0 142 38z" />
    <glyph glyph-name="Cacute" unicode="&#x106;" horiz-adv-x="1212" 
d="M940 528l249 -45q-75 -255 -221.5 -382t-339.5 -127q-216 0 -342.5 158t-126.5 474q0 271 92 477.5t234.5 307t308.5 100.5q187 0 311.5 -123t146.5 -352l-237 -28q-21 133 -78 188t-148 55q-93 0 -179 -67t-146.5 -224.5t-60.5 -346.5q0 -177 70 -271.5t170 -94.5
q95 0 176 74.5t121 226.5zM851 1868h252l-267 -300h-156z" />
    <glyph glyph-name="cacute" unicode="&#x107;" 
d="M658 400l228 -45q-57 -190 -168.5 -284.5t-254.5 -94.5q-162 0 -262 118t-100 335q0 195 67.5 347.5t183 231t246.5 78.5q148 0 243 -94t107 -261l-224 -29q-16 173 -140 173q-57 0 -112 -47t-96.5 -168t-41.5 -264q0 -95 38.5 -145.5t92.5 -50.5q57 0 109.5 48.5
t83.5 151.5zM664 1496h252l-267 -300h-156z" />
    <glyph glyph-name="Ccircumflex" unicode="&#x108;" horiz-adv-x="1212" 
d="M940 528l249 -45q-75 -255 -221.5 -382t-339.5 -127q-216 0 -342.5 158t-126.5 474q0 271 92 477.5t234.5 307t308.5 100.5q187 0 311.5 -123t146.5 -352l-237 -28q-21 133 -78 188t-148 55q-93 0 -179 -67t-146.5 -224.5t-60.5 -346.5q0 -177 70 -271.5t170 -94.5
q95 0 176 74.5t121 226.5zM874 1748l-144 -178h-194l244 301h220l99 -301h-162z" />
    <glyph glyph-name="ccircumflex" unicode="&#x109;" 
d="M658 400l228 -45q-57 -190 -168.5 -284.5t-254.5 -94.5q-162 0 -262 118t-100 335q0 195 67.5 347.5t183 231t246.5 78.5q148 0 243 -94t107 -261l-224 -29q-16 173 -140 173q-57 0 -112 -47t-96.5 -168t-41.5 -264q0 -95 38.5 -145.5t92.5 -50.5q57 0 109.5 48.5
t83.5 151.5zM693 1375l-144 -178h-194l244 301h220l99 -301h-162z" />
    <glyph glyph-name="Cdot" unicode="&#x10a;" horiz-adv-x="1212" 
d="M940 528l249 -45q-75 -255 -221.5 -382t-339.5 -127q-216 0 -342.5 158t-126.5 474q0 271 92 477.5t234.5 307t308.5 100.5q187 0 311.5 -123t146.5 -352l-237 -28q-21 133 -78 188t-148 55q-93 0 -179 -67t-146.5 -224.5t-60.5 -346.5q0 -177 70 -271.5t170 -94.5
q95 0 176 74.5t121 226.5zM737 1855h236l-45 -263h-236z" />
    <glyph glyph-name="cdot" unicode="&#x10b;" 
d="M658 400l228 -45q-57 -190 -168.5 -284.5t-254.5 -94.5q-162 0 -262 118t-100 335q0 195 67.5 347.5t183 231t246.5 78.5q148 0 243 -94t107 -261l-224 -29q-16 173 -140 173q-57 0 -112 -47t-96.5 -168t-41.5 -264q0 -95 38.5 -145.5t92.5 -50.5q57 0 109.5 48.5
t83.5 151.5zM509 1484h236l-45 -263h-236z" />
    <glyph glyph-name="Ccaron" unicode="&#x10c;" horiz-adv-x="1212" 
d="M940 528l249 -45q-75 -255 -221.5 -382t-339.5 -127q-216 0 -342.5 158t-126.5 474q0 271 92 477.5t234.5 307t308.5 100.5q187 0 311.5 -123t146.5 -352l-237 -28q-21 133 -78 188t-148 55q-93 0 -179 -67t-146.5 -224.5t-60.5 -346.5q0 -177 70 -271.5t170 -94.5
q95 0 176 74.5t121 226.5zM805 1691l145 178h194l-244 -301h-220l-100 301h162z" />
    <glyph glyph-name="ccaron" unicode="&#x10d;" 
d="M658 400l228 -45q-57 -190 -168.5 -284.5t-254.5 -94.5q-162 0 -262 118t-100 335q0 195 67.5 347.5t183 231t246.5 78.5q148 0 243 -94t107 -261l-224 -29q-16 173 -140 173q-57 0 -112 -47t-96.5 -168t-41.5 -264q0 -95 38.5 -145.5t92.5 -50.5q57 0 109.5 48.5
t83.5 151.5zM593 1320l145 178h194l-244 -301h-220l-100 301h162z" />
    <glyph glyph-name="Dcaron" unicode="&#x10e;" horiz-adv-x="1212" 
d="M73 0l251 1466h324q169 0 229 -14q101 -25 176.5 -99t119.5 -197.5t44 -296.5q0 -182 -45 -336.5t-126.5 -270t-168.5 -168t-182 -71.5q-62 -13 -198 -13h-424zM361 236h125q137 0 192 19q72 24 135 98.5t109 207t46 306.5q0 144 -37.5 226t-100.5 111q-45 20 -157 20
h-143zM733 1691l145 178h194l-244 -301h-220l-100 301h162z" />
    <glyph glyph-name="dcaron" unicode="&#x10f;" horiz-adv-x="1243" 
d="M872 0h-223l20 115q-66 -77 -128.5 -108t-136.5 -31q-134 0 -219 111t-85 334q0 263 121 464t310 201q175 0 263 -169l94 549h235zM329 432q0 -116 47.5 -179t115.5 -63q56 0 109 43.5t92.5 153.5t39.5 227q0 120 -51 190.5t-117 70.5q-51 0 -104 -45.5t-92.5 -159
t-39.5 -238.5zM1224 1466h214l-35 -206q-39 -225 -247 -235l21 119q83 21 102 73h-98z" />
    <glyph glyph-name="Dslash" unicode="&#x110;" horiz-adv-x="1212" 
d="M73 0l112 642h-124l31 177h124l112 647h320q169 0 228 -14q102 -25 177.5 -99t119.5 -197.5t44 -296.5q0 -182 -45.5 -337t-126.5 -270.5t-168 -167.5t-182 -71q-62 -13 -198 -13h-424zM361 236h125q137 0 192 19q72 24 135 98.5t109 207t46 306.5q0 144 -37.5 225.5
t-100.5 111.5q-45 20 -157 20h-140l-71 -405h258l-31 -177h-258z" />
    <glyph glyph-name="dmacron" unicode="&#x111;" horiz-adv-x="1026" 
d="M844 1208h-267l23 132h266l22 126h235l-21 -126h117l-23 -132h-117l-207 -1208h-223l20 115q-66 -77 -128.5 -108t-136.5 -31q-134 0 -219 111t-85 334q0 263 121 464t310 201q175 0 263 -169zM329 432q0 -116 47.5 -179t115.5 -63q56 0 109 43.5t92.5 153.5t39.5 227
q0 120 -51 190.5t-117 70.5q-51 0 -104 -45.5t-92.5 -159t-39.5 -238.5z" />
    <glyph glyph-name="Emacron" unicode="&#x112;" horiz-adv-x="1120" 
d="M69 0l251 1466h891l-42 -245h-643l-57 -333h622l-42 -245h-622l-69 -398h691l-41 -245h-939zM579 1788h525l-33 -193h-525z" />
    <glyph glyph-name="emacron" unicode="&#x113;" 
d="M915 442h-591v-27q0 -107 50 -171t120 -64q116 0 183 148l211 -43q-62 -155 -165 -232t-231 -77q-170 0 -282.5 132.5t-112.5 359.5q0 245 128 431.5t358 186.5q155 0 251.5 -117.5t96.5 -339.5q0 -105 -16 -187zM716 617l1 28q0 121 -44.5 179t-115.5 58
q-72 0 -130.5 -67t-78.5 -198h368zM346 1392h525l-33 -193h-525z" />
    <glyph glyph-name="Ebreve" unicode="&#x114;" horiz-adv-x="1120" 
d="M69 0l251 1466h891l-42 -245h-643l-57 -333h622l-42 -245h-622l-69 -398h691l-41 -245h-939zM582 1869h114q19 -82 51 -113.5t79 -31.5q98 0 162 145h108q-35 -140 -121 -226q-64 -64 -156 -64q-95 0 -157.5 71t-79.5 219z" />
    <glyph glyph-name="ebreve" unicode="&#x115;" 
d="M915 442h-591v-27q0 -107 50 -171t120 -64q116 0 183 148l211 -43q-62 -155 -165 -232t-231 -77q-170 0 -282.5 132.5t-112.5 359.5q0 245 128 431.5t358 186.5q155 0 251.5 -117.5t96.5 -339.5q0 -105 -16 -187zM716 617l1 28q0 121 -44.5 179t-115.5 58
q-72 0 -130.5 -67t-78.5 -198h368zM356 1488h114q19 -82 51 -113.5t79 -31.5q98 0 162 145h108q-35 -140 -121 -226q-64 -64 -156 -64q-95 0 -157.5 71t-79.5 219z" />
    <glyph glyph-name="Edot" unicode="&#x116;" horiz-adv-x="1120" 
d="M69 0l251 1466h891l-42 -245h-643l-57 -333h622l-42 -245h-622l-69 -398h691l-41 -245h-939zM723 1855h236l-45 -263h-236z" />
    <glyph glyph-name="edot" unicode="&#x117;" 
d="M915 442h-591v-27q0 -107 50 -171t120 -64q116 0 183 148l211 -43q-62 -155 -165 -232t-231 -77q-170 0 -282.5 132.5t-112.5 359.5q0 245 128 431.5t358 186.5q155 0 251.5 -117.5t96.5 -339.5q0 -105 -16 -187zM716 617l1 28q0 121 -44.5 179t-115.5 58
q-72 0 -130.5 -67t-78.5 -198h368zM485 1486h236l-45 -263h-236z" />
    <glyph glyph-name="Eogonek" unicode="&#x118;" horiz-adv-x="1120" 
d="M69 0l251 1466h891l-42 -245h-643l-57 -333h622l-42 -245h-622l-69 -398h691l-41 -245h-939zM989 -236l-22 -128q-37 -26 -90 -43.5t-91 -17.5q-67 0 -107 46.5t-40 138.5q0 129 54 259h116q-42 -125 -42 -198q0 -46 21.5 -70.5t58.5 -24.5q54 0 142 38z" />
    <glyph glyph-name="eogonek" unicode="&#x119;" 
d="M915 442h-591v-27q0 -107 50 -171t120 -64q116 0 183 148l211 -43q-62 -155 -165 -232t-231 -77q-170 0 -282.5 132.5t-112.5 359.5q0 245 128 431.5t358 186.5q155 0 251.5 -117.5t96.5 -339.5q0 -105 -16 -187zM716 617l1 28q0 121 -44.5 179t-115.5 58
q-72 0 -130.5 -67t-78.5 -198h368zM789 -236l-22 -128q-37 -26 -90 -43.5t-91 -17.5q-67 0 -107 46.5t-40 138.5q0 129 54 259h116q-42 -125 -42 -198q0 -46 21.5 -70.5t58.5 -24.5q54 0 142 38z" />
    <glyph glyph-name="Ecaron" unicode="&#x11a;" horiz-adv-x="1120" 
d="M69 0l251 1466h891l-42 -245h-643l-57 -333h622l-42 -245h-622l-69 -398h691l-41 -245h-939zM773 1691l145 178h194l-244 -301h-220l-100 301h162z" />
    <glyph glyph-name="ecaron" unicode="&#x11b;" 
d="M915 442h-591v-27q0 -107 50 -171t120 -64q116 0 183 148l211 -43q-62 -155 -165 -232t-231 -77q-170 0 -282.5 132.5t-112.5 359.5q0 245 128 431.5t358 186.5q155 0 251.5 -117.5t96.5 -339.5q0 -105 -16 -187zM716 617l1 28q0 121 -44.5 179t-115.5 58
q-72 0 -130.5 -67t-78.5 -198h368zM594 1320l145 178h194l-244 -301h-220l-100 301h162z" />
    <glyph glyph-name="Gcircumflex" unicode="&#x11c;" horiz-adv-x="1307" 
d="M739 783h537l-108 -629q-100 -80 -239 -129.5t-276 -49.5q-238 0 -359 142q-145 170 -145 471q0 262 99.5 481.5t245 320.5t325.5 101q198 0 328 -114t173 -348l-230 -32q-61 250 -271 250q-114 0 -210 -69.5t-158.5 -225.5t-62.5 -364q0 -187 70 -274t202 -87
q74 0 144 22q95 29 162 71l38 218h-307zM908 1748l-144 -178h-194l244 301h220l99 -301h-162z" />
    <glyph glyph-name="gcircumflex" unicode="&#x11d;" horiz-adv-x="1026" 
d="M54 -56l249 -44q0 -64 31.5 -95t95.5 -31q63 0 102.5 24.5t61.5 73.5t45 198l7 50q-121 -124 -251 -124q-127 0 -210 108t-83 324q0 205 61 357.5t158.5 226.5t198.5 74q85 0 157.5 -54.5t114.5 -157.5l32 188h221l-151 -885q-45 -259 -79 -357q-47 -134 -138 -192.5
t-251 -58.5q-187 0 -270 69q-104 86 -104 262zM332 457q0 -121 51 -193q39 -55 105 -55q54 0 107.5 45t92.5 148.5t39 224.5q0 118 -50.5 186.5t-115.5 68.5q-50 0 -98.5 -42.5t-89.5 -157.5t-41 -225zM696 1375l-144 -178h-194l244 301h220l99 -301h-162z" />
    <glyph glyph-name="Gbreve" unicode="&#x11e;" horiz-adv-x="1307" 
d="M739 783h537l-108 -629q-100 -80 -239 -129.5t-276 -49.5q-238 0 -359 142q-145 170 -145 471q0 262 99.5 481.5t245 320.5t325.5 101q198 0 328 -114t173 -348l-230 -32q-61 250 -271 250q-114 0 -210 -69.5t-158.5 -225.5t-62.5 -364q0 -187 70 -274t202 -87
q74 0 144 22q95 29 162 71l38 218h-307zM592 1860h114q19 -82 51 -113.5t79 -31.5q98 0 162 145h108q-35 -140 -121 -226q-64 -64 -156 -64q-95 0 -157.5 71t-79.5 219z" />
    <glyph glyph-name="gbreve" unicode="&#x11f;" horiz-adv-x="1026" 
d="M54 -56l249 -44q0 -64 31.5 -95t95.5 -31q63 0 102.5 24.5t61.5 73.5t45 198l7 50q-121 -124 -251 -124q-127 0 -210 108t-83 324q0 205 61 357.5t158.5 226.5t198.5 74q85 0 157.5 -54.5t114.5 -157.5l32 188h221l-151 -885q-45 -259 -79 -357q-47 -134 -138 -192.5
t-251 -58.5q-187 0 -270 69q-104 86 -104 262zM332 457q0 -121 51 -193q39 -55 105 -55q54 0 107.5 45t92.5 148.5t39 224.5q0 118 -50.5 186.5t-115.5 68.5q-50 0 -98.5 -42.5t-89.5 -157.5t-41 -225zM414 1488h114q19 -82 51 -113.5t79 -31.5q98 0 162 145h108
q-35 -140 -121 -226q-64 -64 -156 -64q-95 0 -157.5 71t-79.5 219z" />
    <glyph glyph-name="Gdot" unicode="&#x120;" horiz-adv-x="1307" 
d="M739 783h537l-108 -629q-100 -80 -239 -129.5t-276 -49.5q-238 0 -359 142q-145 170 -145 471q0 262 99.5 481.5t245 320.5t325.5 101q198 0 328 -114t173 -348l-230 -32q-61 250 -271 250q-114 0 -210 -69.5t-158.5 -225.5t-62.5 -364q0 -187 70 -274t202 -87
q74 0 144 22q95 29 162 71l38 218h-307zM765 1855h236l-45 -263h-236z" />
    <glyph glyph-name="gdot" unicode="&#x121;" horiz-adv-x="1026" 
d="M54 -56l249 -44q0 -64 31.5 -95t95.5 -31q63 0 102.5 24.5t61.5 73.5t45 198l7 50q-121 -124 -251 -124q-127 0 -210 108t-83 324q0 205 61 357.5t158.5 226.5t198.5 74q85 0 157.5 -54.5t114.5 -157.5l32 188h221l-151 -885q-45 -259 -79 -357q-47 -134 -138 -192.5
t-251 -58.5q-187 0 -270 69q-104 86 -104 262zM332 457q0 -121 51 -193q39 -55 105 -55q54 0 107.5 45t92.5 148.5t39 224.5q0 118 -50.5 186.5t-115.5 68.5q-50 0 -98.5 -42.5t-89.5 -157.5t-41 -225zM476 1486h236l-45 -263h-236z" />
    <glyph glyph-name="Gcedilla" unicode="&#x122;" horiz-adv-x="1307" 
d="M739 783h537l-108 -629q-100 -80 -239 -129.5t-276 -49.5q-238 0 -359 142q-145 170 -145 471q0 262 99.5 481.5t245 320.5t325.5 101q198 0 328 -114t173 -348l-230 -32q-61 250 -271 250q-114 0 -210 -69.5t-158.5 -225.5t-62.5 -364q0 -187 70 -274t202 -87
q74 0 144 22q95 29 162 71l38 218h-307zM379 -421l39 116l50 -1q73 0 148 31q51 21 51 71q0 32 -23.5 51t-71.5 19q-27 0 -74 -9l28 99q59 18 107 18q85 0 134 -45.5t49 -119.5q0 -94 -94 -164t-264 -70q-51 0 -79 4z" />
    <glyph glyph-name="gcedilla" unicode="&#x123;" horiz-adv-x="1026" 
d="M54 -56l249 -44q0 -64 31.5 -95t95.5 -31q63 0 102.5 24.5t61.5 73.5t45 198l7 50q-121 -124 -251 -124q-127 0 -210 108t-83 324q0 205 61 357.5t158.5 226.5t198.5 74q85 0 157.5 -54.5t114.5 -157.5l32 188h221l-151 -885q-45 -259 -79 -357q-47 -134 -138 -192.5
t-251 -58.5q-187 0 -270 69q-104 86 -104 262zM332 457q0 -121 51 -193q39 -55 105 -55q54 0 107.5 45t92.5 148.5t39 224.5q0 118 -50.5 186.5t-115.5 68.5q-50 0 -98.5 -42.5t-89.5 -157.5t-41 -225zM745 1199h-214l35 206q39 225 247 235l-21 -119q-83 -21 -102 -73h98z
" />
    <glyph glyph-name="Hcircumflex" unicode="&#x124;" horiz-adv-x="1212" 
d="M897 655h-465l-113 -655h-247l251 1466h248l-98 -566h466l97 566h247l-251 -1466h-247zM870 1748l-144 -178h-194l244 301h220l99 -301h-162z" />
    <glyph glyph-name="hcircumflex" unicode="&#x125;" horiz-adv-x="1026" 
d="M305 0h-235l251 1466h236l-90 -522q84 80 153 111t143 31q103 0 166 -72t63 -198q0 -63 -23 -195l-107 -621h-235l109 633q17 103 17 132q0 55 -28 86t-73 31q-59 0 -112 -49q-73 -67 -109 -165q-20 -53 -53 -247zM789 1748l-144 -178h-194l244 301h220l99 -301h-162z
" />
    <glyph glyph-name="Hbar" unicode="&#x126;" horiz-adv-x="1212" 
d="M264 1094h-120l30 177h120l33 195h248l-34 -195h466l33 195h247l-33 -195h122l-30 -177h-122l-188 -1094h-247l112 655h-465l-113 -655h-247zM511 1094l-34 -194h466l33 194h-465z" />
    <glyph glyph-name="hbar" unicode="&#x127;" horiz-adv-x="1026" 
d="M23 0l206 1204h-108l24 146h109l20 116h236l-21 -116h353l-27 -146h-352l-43 -260q144 141 295 141q106 0 167.5 -73.5t61.5 -200.5q0 -59 -22 -190l-107 -621h-235l108 633q19 99 19 133q0 53 -28.5 85t-74.5 32q-66 0 -129.5 -66.5t-89.5 -146.5t-55 -250l-72 -420
h-235z" />
    <glyph glyph-name="Itilde" unicode="&#x128;" horiz-adv-x="467" 
d="M59 0l251 1466h247l-251 -1466h-247zM309 1594h-104q26 141 67 191t93 50q45 0 155 -49q64 -28 88 -28q18 0 31.5 15t24.5 63h105q-15 -122 -61.5 -181t-103.5 -59q-38 0 -117 39q-83 41 -105 41q-52 0 -73 -82z" />
    <glyph glyph-name="itilde" unicode="&#x129;" horiz-adv-x="467" 
d="M250 1062h235l-182 -1062h-235zM212 1213h-104q26 141 67 191t93 50q45 0 155 -49q64 -28 88 -28q18 0 31.5 15t24.5 63h105q-15 -122 -61.5 -181t-103.5 -59q-38 0 -117 39q-83 41 -105 41q-52 0 -73 -82z" />
    <glyph glyph-name="Imacron" unicode="&#x12a;" horiz-adv-x="467" 
d="M59 0l251 1466h247l-251 -1466h-247zM223 1788h525l-33 -193h-525z" />
    <glyph glyph-name="imacron" unicode="&#x12b;" horiz-adv-x="467" 
d="M250 1062h235l-182 -1062h-235zM160 1419h525l-33 -193h-525z" />
    <glyph glyph-name="Ibreve" unicode="&#x12c;" horiz-adv-x="467" 
d="M59 0l251 1466h247l-251 -1466h-247zM243 1869h114q19 -82 51 -113.5t79 -31.5q98 0 162 145h108q-35 -140 -121 -226q-64 -64 -156 -64q-95 0 -157.5 71t-79.5 219z" />
    <glyph glyph-name="ibreve" unicode="&#x12d;" horiz-adv-x="467" 
d="M250 1062h235l-182 -1062h-235zM137 1488h114q19 -82 51 -113.5t79 -31.5q98 0 162 145h108q-35 -140 -121 -226q-64 -64 -156 -64q-95 0 -157.5 71t-79.5 219z" />
    <glyph glyph-name="Iogonek" unicode="&#x12e;" horiz-adv-x="467" 
d="M59 0l251 1466h247l-251 -1466h-247zM413 -236l-22 -128q-37 -26 -90 -43.5t-91 -17.5q-67 0 -107 46.5t-40 138.5q0 129 54 259h116q-42 -125 -42 -198q0 -46 21.5 -70.5t58.5 -24.5q54 0 142 38z" />
    <glyph glyph-name="iogonek" unicode="&#x12f;" horiz-adv-x="467" 
d="M319 1466h236l-45 -260h-235zM250 1062h235l-182 -1062h-235zM428 -236l-22 -128q-37 -26 -90 -43.5t-91 -17.5q-67 0 -107 46.5t-40 138.5q0 129 54 259h116q-42 -125 -42 -198q0 -46 21.5 -70.5t58.5 -24.5q54 0 142 38z" />
    <glyph glyph-name="Idot" unicode="&#x130;" horiz-adv-x="467" 
d="M59 0l251 1466h247l-251 -1466h-247zM385 1862h236l-45 -263h-236z" />
    <glyph glyph-name="dotlessi" unicode="&#x131;" horiz-adv-x="467" 
d="M250 1062h235l-182 -1062h-235z" />
    <glyph glyph-name="IJ" unicode="&#x132;" horiz-adv-x="1401" 
d="M59 0l251 1466h247l-251 -1466h-247zM1232 1466h243l-152 -888q-63 -371 -166.5 -487t-294.5 -116q-166 0 -256 92.5t-90 267.5q0 35 4 79l229 30q-5 -43 -5 -71q0 -75 34.5 -110.5t99.5 -35.5q93 0 132 67q30 50 71 294z" />
    <glyph glyph-name="ij" unicode="&#x133;" 
d="M319 1466h236l-45 -260h-235zM250 1062h235l-182 -1062h-235zM788 1466h236l-45 -260h-236zM718 1062h237l-155 -899q-66 -384 -112 -466q-71 -128 -231 -128q-93 0 -173 32l37 237q56 -17 95 -17q51 0 79 49t73 312z" />
    <glyph glyph-name="Jcircumflex" unicode="&#x134;" 
d="M765 1466h243l-152 -888q-63 -371 -166.5 -487t-294.5 -116q-166 0 -256 92.5t-90 267.5q0 35 4 79l229 30q-5 -43 -5 -71q0 -75 34.5 -110.5t99.5 -35.5q93 0 132 67q30 50 71 294zM938 1748l-144 -178h-194l244 301h220l99 -301h-162z" />
    <glyph glyph-name="jcircumflex" unicode="&#x135;" horiz-adv-x="467" 
d="M360 1375l-144 -178h-194l244 301h219l100 -301h-162zM248 1062h237l-155 -899q-49 -287 -81.5 -393t-100 -153.5t-161.5 -47.5q-93 0 -173 32l37 237q56 -17 95 -17q51 0 79 49t73 312z" />
    <glyph glyph-name="Kcedilla" unicode="&#x136;" horiz-adv-x="1212" 
d="M66 0l251 1466h247l-106 -623l556 623h332l-541 -575l396 -891h-279l-297 698l-233 -249l-77 -449h-249zM354 -421l39 116l50 -1q73 0 148 31q51 21 51 71q0 32 -23.5 51t-71.5 19q-27 0 -74 -9l28 99q59 18 107 18q85 0 134 -45.5t49 -119.5q0 -94 -94 -164t-264 -70
q-51 0 -79 4z" />
    <glyph glyph-name="kcedilla" unicode="&#x137;" 
d="M64 0l251 1466h236l-131 -763l306 359h306l-350 -386l187 -676h-236l-120 491l-159 -172l-55 -319h-235zM193 -421l39 116l50 -1q73 0 148 31q51 21 51 71q0 32 -23.5 51t-71.5 19q-27 0 -74 -9l28 99q59 18 107 18q85 0 134 -45.5t49 -119.5q0 -94 -94 -164t-264 -70
q-51 0 -79 4z" />
    <glyph glyph-name="kgreenlandic" unicode="&#x138;" horiz-adv-x="950" 
d="M69 0l184 1061h237l-63 -346l305 346h311l-444 -471l297 -590h-260l-195 422l-80 -86l-59 -336h-233z" />
    <glyph glyph-name="Lacute" unicode="&#x139;" horiz-adv-x="1026" 
d="M76 0l251 1466h248l-210 -1221h612l-42 -245h-859zM631 1869h252l-267 -300h-156z" />
    <glyph glyph-name="lacute" unicode="&#x13a;" horiz-adv-x="467" 
d="M66 0l251 1466h236l-252 -1466h-235zM459 1841h252l-267 -300h-156z" />
    <glyph glyph-name="Lcedilla" unicode="&#x13b;" horiz-adv-x="1026" 
d="M76 0l251 1466h248l-210 -1221h612l-42 -245h-859zM240 -421l39 116l50 -1q73 0 148 31q51 21 51 71q0 32 -23.5 51t-71.5 19q-27 0 -74 -9l28 99q59 18 107 18q85 0 134 -45.5t49 -119.5q0 -94 -94 -164t-264 -70q-51 0 -79 4z" />
    <glyph glyph-name="lcedilla" unicode="&#x13c;" horiz-adv-x="467" 
d="M66 0l251 1466h236l-252 -1466h-235zM-66 -421l39 116l50 -1q73 0 148 31q51 21 51 71q0 32 -23.5 51t-71.5 19q-27 0 -74 -9l28 99q59 18 107 18q85 0 134 -45.5t49 -119.5q0 -94 -94 -164t-264 -70q-51 0 -79 4z" />
    <glyph glyph-name="Lcaron" unicode="&#x13d;" horiz-adv-x="1026" 
d="M76 0l251 1466h248l-210 -1221h612l-42 -245h-859zM697 1479h214l-35 -206q-39 -225 -247 -235l21 119q83 21 102 73h-98z" />
    <glyph glyph-name="lcaron" unicode="&#x13e;" horiz-adv-x="666" 
d="M66 0l251 1466h236l-252 -1466h-235zM649 1466h214l-35 -206q-39 -225 -247 -235l21 119q83 21 102 73h-98z" />
    <glyph glyph-name="Ldot" unicode="&#x13f;" horiz-adv-x="1026" 
d="M76 0l251 1466h248l-210 -1221h612l-42 -245h-859zM712 996h236l-45 -263h-236z" />
    <glyph glyph-name="ldot" unicode="&#x140;" horiz-adv-x="685" 
d="M66 0l251 1466h236l-252 -1466h-235zM543 872h236l-45 -263h-236z" />
    <glyph glyph-name="Lslash" unicode="&#x141;" horiz-adv-x="1026" 
d="M218 786l116 680h248l-85 -495l221 149l-40 -235l-221 -150l-84 -490h611l-43 -245h-858l94 550l-152 -101l40 236z" />
    <glyph glyph-name="lslash" unicode="&#x142;" horiz-adv-x="467" 
d="M201 770l119 696h236l-91 -532l118 75l-33 -192l-118 -75l-128 -742h-235l99 578l-118 -75l33 192z" />
    <glyph glyph-name="Nacute" unicode="&#x143;" horiz-adv-x="1212" 
d="M1030 0h-231l-325 985l-168 -985h-231l251 1466h231l325 -981l168 981h231zM851 1869h252l-267 -300h-156z" />
    <glyph glyph-name="nacute" unicode="&#x144;" horiz-adv-x="1026" 
d="M252 1062h223l-23 -138q87 91 159.5 126.5t149.5 35.5q105 0 168 -73t63 -200q0 -55 -26 -211l-103 -602h-236l104 602q23 135 23 162q0 57 -27.5 87.5t-71.5 30.5q-48 0 -98 -38q-72 -54 -107 -128.5t-70 -279.5l-75 -436h-235zM681 1496h252l-267 -300h-156z" />
    <glyph glyph-name="Ncedilla" unicode="&#x145;" horiz-adv-x="1212" 
d="M1030 0h-231l-325 985l-168 -985h-231l251 1466h231l325 -981l168 981h231zM313 -421l39 116l50 -1q73 0 148 31q51 21 51 71q0 32 -23.5 51t-71.5 19q-27 0 -74 -9l28 99q59 18 107 18q85 0 134 -45.5t49 -119.5q0 -94 -94 -164t-264 -70q-51 0 -79 4z" />
    <glyph glyph-name="ncedilla" unicode="&#x146;" horiz-adv-x="1026" 
d="M252 1062h223l-23 -138q87 91 159.5 126.5t149.5 35.5q105 0 168 -73t63 -200q0 -55 -26 -211l-103 -602h-236l104 602q23 135 23 162q0 57 -27.5 87.5t-71.5 30.5q-48 0 -98 -38q-72 -54 -107 -128.5t-70 -279.5l-75 -436h-235zM208 -421l39 116l50 -1q73 0 148 31
q51 21 51 71q0 32 -23.5 51t-71.5 19q-27 0 -74 -9l28 99q59 18 107 18q85 0 134 -45.5t49 -119.5q0 -94 -94 -164t-264 -70q-51 0 -79 4z" />
    <glyph glyph-name="Ncaron" unicode="&#x147;" horiz-adv-x="1212" 
d="M1030 0h-231l-325 985l-168 -985h-231l251 1466h231l325 -981l168 981h231zM805 1691l145 178h194l-244 -301h-220l-100 301h162z" />
    <glyph glyph-name="ncaron" unicode="&#x148;" horiz-adv-x="1026" 
d="M252 1062h223l-23 -138q87 91 159.5 126.5t149.5 35.5q105 0 168 -73t63 -200q0 -55 -26 -211l-103 -602h-236l104 602q23 135 23 162q0 57 -27.5 87.5t-71.5 30.5q-48 0 -98 -38q-72 -54 -107 -128.5t-70 -279.5l-75 -436h-235zM660 1320l145 178h194l-244 -301h-220
l-100 301h162z" />
    <glyph glyph-name="napostrophe" unicode="&#x149;" horiz-adv-x="1433" 
d="M653 1062h223l-23 -138q87 91 159.5 126.5t149.5 35.5q105 0 168 -73t63 -200q0 -55 -26 -211l-103 -602h-236l104 602q23 135 23 162q0 57 -27.5 87.5t-71.5 30.5q-48 0 -98 -38q-72 -54 -107 -128.5t-70 -279.5l-75 -436h-235zM285 1466h237l-39 -229
q-34 -201 -109 -282.5t-191 -84.5l23 133q58 16 90.5 56.5t49.5 128.5h-108z" />
    <glyph glyph-name="Eng" unicode="&#x14a;" horiz-adv-x="1237" 
d="M327 1466h245l-34 -208q183 233 370 233q143 0 239.5 -127.5t96.5 -381.5q0 -205 -53.5 -440.5t-123.5 -358.5t-138 -165.5t-157 -42.5q-149 0 -256 91l122 209q57 -58 107 -58q46 0 94.5 65t104 310.5t55.5 393.5q0 112 -50.5 181t-135.5 69q-107 0 -209 -102t-150 -386
l-127 -748h-246z" />
    <glyph glyph-name="eng" unicode="&#x14b;" horiz-adv-x="1026" 
d="M963 601l-90 -521q-37 -215 -66.5 -311.5t-94 -148t-163.5 -51.5q-105 0 -191 36l80 230q38 -14 73 -14q49 0 73.5 44t64.5 277l79 461q23 137 23 170q0 48 -28 78.5t-71 30.5q-56 0 -123 -58t-94.5 -136.5t-57.5 -251.5l-75 -436h-235l182 1062h223l-23 -138
q150 163 309 163q115 0 173.5 -80t58.5 -190q0 -60 -27 -216z" />
    <glyph glyph-name="Omacron" unicode="&#x14c;" horiz-adv-x="1307" 
d="M147 575q0 190 64 391q81 258 240 391.5t368 133.5q217 0 357.5 -165t140.5 -450q0 -258 -100.5 -476t-249.5 -322t-328 -104q-214 0 -341 150q-151 177 -151 451zM392 581q0 -162 79.5 -258.5t193.5 -96.5q92 0 182 72t156.5 236.5t66.5 334.5q0 178 -82 280
q-72 90 -189 90q-94 0 -186 -73t-156.5 -234.5t-64.5 -350.5zM597 1788h525l-33 -193h-525z" />
    <glyph glyph-name="omacron" unicode="&#x14d;" horiz-adv-x="1026" 
d="M102 441q0 261 118 444q131 201 379 201q186 0 296.5 -126t110.5 -351q0 -264 -137.5 -448.5t-359.5 -184.5q-181 0 -294 125t-113 340zM773 646q0 105 -49.5 165t-125.5 60q-64 0 -120 -44t-98 -153t-42 -226q0 -119 51.5 -185t127.5 -66q96 0 163 102q93 140 93 347z
M394 1415h525l-33 -193h-525z" />
    <glyph glyph-name="Obreve" unicode="&#x14e;" horiz-adv-x="1307" 
d="M147 575q0 190 64 391q81 258 240 391.5t368 133.5q217 0 357.5 -165t140.5 -450q0 -258 -100.5 -476t-249.5 -322t-328 -104q-214 0 -341 150q-151 177 -151 451zM392 581q0 -162 79.5 -258.5t193.5 -96.5q92 0 182 72t156.5 236.5t66.5 334.5q0 178 -82 280
q-72 90 -189 90q-94 0 -186 -73t-156.5 -234.5t-64.5 -350.5zM673 1869h114q19 -82 51 -113.5t79 -31.5q98 0 162 145h108q-35 -140 -121 -226q-64 -64 -156 -64q-95 0 -157.5 71t-79.5 219z" />
    <glyph glyph-name="obreve" unicode="&#x14f;" horiz-adv-x="1026" 
d="M102 441q0 261 118 444q131 201 379 201q186 0 296.5 -126t110.5 -351q0 -264 -137.5 -448.5t-359.5 -184.5q-181 0 -294 125t-113 340zM773 646q0 105 -49.5 165t-125.5 60q-64 0 -120 -44t-98 -153t-42 -226q0 -119 51.5 -185t127.5 -66q96 0 163 102q93 140 93 347z
M387 1488h114q19 -82 51 -113.5t79 -31.5q98 0 162 145h108q-35 -140 -121 -226q-64 -64 -156 -64q-95 0 -157.5 71t-79.5 219z" />
    <glyph glyph-name="Odblacute" unicode="&#x150;" horiz-adv-x="1307" 
d="M147 575q0 190 64 391q81 258 240 391.5t368 133.5q217 0 357.5 -165t140.5 -450q0 -258 -100.5 -476t-249.5 -322t-328 -104q-214 0 -341 150q-151 177 -151 451zM392 581q0 -162 79.5 -258.5t193.5 -96.5q92 0 182 72t156.5 236.5t66.5 334.5q0 178 -82 280
q-72 90 -189 90q-94 0 -186 -73t-156.5 -234.5t-64.5 -350.5zM1038 1863h238l-269 -297h-135zM711 1863h244l-275 -297h-131z" />
    <glyph glyph-name="odblacute" unicode="&#x151;" horiz-adv-x="1026" 
d="M102 441q0 261 118 444q131 201 379 201q186 0 296.5 -126t110.5 -351q0 -264 -137.5 -448.5t-359.5 -184.5q-181 0 -294 125t-113 340zM773 646q0 105 -49.5 165t-125.5 60q-64 0 -120 -44t-98 -153t-42 -226q0 -119 51.5 -185t127.5 -66q96 0 163 102q93 140 93 347z
M805 1491h238l-269 -297h-135zM478 1491h244l-275 -297h-131z" />
    <glyph glyph-name="OE" unicode="&#x152;" horiz-adv-x="1679" 
d="M1030 1466h782l-42 -245h-547l-56 -327h530l-40 -245h-532l-69 -404h601l-42 -245h-836l20 118q-54 -77 -116 -110t-144 -33q-177 0 -300 157t-123 440q0 205 52.5 388t140 300.5t195.5 174t210 56.5q94 0 171 -50t117 -139zM337 541q0 -154 69 -238.5t174 -84.5
q66 0 122 34.5t101.5 114.5t84.5 273.5t39 323.5q0 134 -62 209.5t-156 75.5q-86 0 -168 -70t-143 -250.5t-61 -387.5z" />
    <glyph glyph-name="oe" unicode="&#x153;" horiz-adv-x="1585" 
d="M1564 439h-587q-2 -126 48 -192q50 -67 119 -67q123 0 186 149l209 -45q-75 -165 -173.5 -236.5t-221.5 -71.5q-97 0 -172.5 39.5t-130.5 118.5q-65 -79 -149 -118.5t-187 -39.5q-119 0 -210.5 55t-144.5 165.5t-53 256.5q0 188 77 359q58 130 170 202t259 72
q96 0 172.5 -36.5t133.5 -110.5q140 147 321 147q160 0 252 -111q103 -124 103 -349q0 -107 -21 -187zM1367 616l1 36q0 116 -43.5 173t-113.5 57q-156 0 -210 -266h366zM332 415q0 -100 50.5 -160t125.5 -60q114 0 184.5 128t70.5 298q0 122 -50.5 186t-125.5 64
q-100 0 -164 -99q-91 -141 -91 -357z" />
    <glyph glyph-name="Racute" unicode="&#x154;" horiz-adv-x="1212" 
d="M321 0h-247l251 1466h535q148 0 221 -39t118.5 -126t45.5 -220q0 -195 -95.5 -312.5t-274.5 -145.5q50 -55 98 -156q80 -170 176 -467h-266q-16 62 -108 337q-48 141 -88 199q-29 41 -59 56t-101 15h-102zM463 827h131q186 0 251.5 23.5t109 86.5t43.5 139q0 83 -55 121
q-32 24 -140 24h-272zM827 1869h252l-267 -300h-156z" />
    <glyph glyph-name="racute" unicode="&#x155;" horiz-adv-x="653" 
d="M236 1062h220l-35 -206q122 230 266 230q50 0 109 -30l-90 -235q-32 14 -67 14q-55 0 -103 -37q-73 -57 -112 -149t-77 -316l-58 -333h-235zM575 1496h252l-267 -300h-156z" />
    <glyph glyph-name="Rcedilla" unicode="&#x156;" horiz-adv-x="1212" 
d="M321 0h-247l251 1466h535q148 0 221 -39t118.5 -126t45.5 -220q0 -195 -95.5 -312.5t-274.5 -145.5q50 -55 98 -156q80 -170 176 -467h-266q-16 62 -108 337q-48 141 -88 199q-29 41 -59 56t-101 15h-102zM463 827h131q186 0 251.5 23.5t109 86.5t43.5 139q0 83 -55 121
q-32 24 -140 24h-272zM332 -421l39 116l50 -1q73 0 148 31q51 21 51 71q0 32 -23.5 51t-71.5 19q-27 0 -74 -9l28 99q59 18 107 18q85 0 134 -45.5t49 -119.5q0 -94 -94 -164t-264 -70q-51 0 -79 4z" />
    <glyph glyph-name="rcedilla" unicode="&#x157;" horiz-adv-x="653" 
d="M236 1062h220l-35 -206q122 230 266 230q50 0 109 -30l-90 -235q-32 14 -67 14q-55 0 -103 -37q-73 -57 -112 -149t-77 -316l-58 -333h-235zM-19 -421l39 116l50 -1q73 0 148 31q51 21 51 71q0 32 -23.5 51t-71.5 19q-27 0 -74 -9l28 99q59 18 107 18q85 0 134 -45.5
t49 -119.5q0 -94 -94 -164t-264 -70q-51 0 -79 4z" />
    <glyph glyph-name="Rcaron" unicode="&#x158;" horiz-adv-x="1212" 
d="M321 0h-247l251 1466h535q148 0 221 -39t118.5 -126t45.5 -220q0 -195 -95.5 -312.5t-274.5 -145.5q50 -55 98 -156q80 -170 176 -467h-266q-16 62 -108 337q-48 141 -88 199q-29 41 -59 56t-101 15h-102zM463 827h131q186 0 251.5 23.5t109 86.5t43.5 139q0 83 -55 121
q-32 24 -140 24h-272zM781 1691l145 178h194l-244 -301h-220l-100 301h162z" />
    <glyph glyph-name="rcaron" unicode="&#x159;" horiz-adv-x="653" 
d="M236 1062h220l-35 -206q122 230 266 230q50 0 109 -30l-90 -235q-32 14 -67 14q-55 0 -103 -37q-73 -57 -112 -149t-77 -316l-58 -333h-235zM534 1320l145 178h194l-244 -301h-220l-100 301h162z" />
    <glyph glyph-name="Sacute" unicode="&#x15a;" horiz-adv-x="1120" 
d="M106 475l235 15q5 -118 27 -164t73 -72.5t139 -26.5q114 0 171.5 50t57.5 131q0 57 -33 98q-33 40 -171 113q-175 93 -232.5 144.5t-89 126.5t-31.5 171q0 196 115 313t314 117q201 0 321.5 -116t132.5 -327l-237 -13q-18 217 -218 217q-99 0 -145.5 -41.5t-46.5 -113.5
q0 -66 44 -107q43 -42 174 -112q173 -91 230 -141.5t87.5 -124t30.5 -166.5q0 -208 -131 -339.5t-346 -131.5q-162 0 -276.5 69t-156 184t-38.5 247zM762 1869h252l-267 -300h-156z" />
    <glyph glyph-name="sacute" unicode="&#x15b;" 
d="M37 297l228 44q30 -90 76 -125.5t122 -35.5q73 0 118 35t45 82q0 32 -19 54q-20 21 -96 51q-211 85 -262 134q-81 79 -81 206q0 150 106 247t290 97q312 0 362 -277l-217 -46q-38 126 -182 126q-68 0 -103 -28t-35 -71q0 -36 27 -61q20 -19 138 -61q169 -60 227 -117
q85 -83 85 -202q0 -161 -109 -267t-289 -106q-354 0 -431 321zM602 1496h252l-267 -300h-156z" />
    <glyph glyph-name="Scircumflex" unicode="&#x15c;" horiz-adv-x="1120" 
d="M106 475l235 15q5 -118 27 -164t73 -72.5t139 -26.5q114 0 171.5 50t57.5 131q0 57 -33 98q-33 40 -171 113q-175 93 -232.5 144.5t-89 126.5t-31.5 171q0 196 115 313t314 117q201 0 321.5 -116t132.5 -327l-237 -13q-18 217 -218 217q-99 0 -145.5 -41.5t-46.5 -113.5
q0 -66 44 -107q43 -42 174 -112q173 -91 230 -141.5t87.5 -124t30.5 -166.5q0 -208 -131 -339.5t-346 -131.5q-162 0 -276.5 69t-156 184t-38.5 247zM846 1748l-144 -178h-194l244 301h220l99 -301h-162z" />
    <glyph glyph-name="scircumflex" unicode="&#x15d;" 
d="M37 297l228 44q30 -90 76 -125.5t122 -35.5q73 0 118 35t45 82q0 32 -19 54q-20 21 -96 51q-211 85 -262 134q-81 79 -81 206q0 150 106 247t290 97q312 0 362 -277l-217 -46q-38 126 -182 126q-68 0 -103 -28t-35 -71q0 -36 27 -61q20 -19 138 -61q169 -60 227 -117
q85 -83 85 -202q0 -161 -109 -267t-289 -106q-354 0 -431 321zM679 1375l-144 -178h-194l244 301h220l99 -301h-162z" />
    <glyph glyph-name="Scedilla" unicode="&#x15e;" horiz-adv-x="1120" 
d="M106 475l235 15q5 -118 27 -164t73 -72.5t139 -26.5q114 0 171.5 50t57.5 131q0 57 -33 98q-33 40 -171 113q-175 93 -232.5 144.5t-89 126.5t-31.5 171q0 196 115 313t314 117q201 0 321.5 -116t132.5 -327l-237 -13q-18 217 -218 217q-99 0 -145.5 -41.5t-46.5 -113.5
q0 -66 44 -107q43 -42 174 -112q173 -91 230 -141.5t87.5 -124t30.5 -166.5q0 -208 -131 -339.5t-346 -131.5q-162 0 -276.5 69t-156 184t-38.5 247zM294 -421l39 116l50 -1q73 0 148 31q51 21 51 71q0 32 -23.5 51t-71.5 19q-27 0 -74 -9l28 99q59 18 107 18
q85 0 134 -45.5t49 -119.5q0 -94 -94 -164t-264 -70q-51 0 -79 4z" />
    <glyph glyph-name="scedilla" unicode="&#x15f;" 
d="M37 297l228 44q30 -90 76 -125.5t122 -35.5q73 0 118 35t45 82q0 32 -19 54q-20 21 -96 51q-211 85 -262 134q-81 79 -81 206q0 150 106 247t290 97q312 0 362 -277l-217 -46q-38 126 -182 126q-68 0 -103 -28t-35 -71q0 -36 27 -61q20 -19 138 -61q169 -60 227 -117
q85 -83 85 -202q0 -161 -109 -267t-289 -106q-354 0 -431 321zM195 -421l39 116l50 -1q73 0 148 31q51 21 51 71q0 32 -23.5 51t-71.5 19q-27 0 -74 -9l28 99q59 18 107 18q85 0 134 -45.5t49 -119.5q0 -94 -94 -164t-264 -70q-51 0 -79 4z" />
    <glyph glyph-name="Scaron" unicode="&#x160;" horiz-adv-x="1120" 
d="M106 475l235 15q5 -118 27 -164t73 -72.5t139 -26.5q114 0 171.5 50t57.5 131q0 57 -33 98q-33 40 -171 113q-175 93 -232.5 144.5t-89 126.5t-31.5 171q0 196 115 313t314 117q201 0 321.5 -116t132.5 -327l-237 -13q-18 217 -218 217q-99 0 -145.5 -41.5t-46.5 -113.5
q0 -66 44 -107q43 -42 174 -112q173 -91 230 -141.5t87.5 -124t30.5 -166.5q0 -208 -131 -339.5t-346 -131.5q-162 0 -276.5 69t-156 184t-38.5 247zM788 1691l145 178h194l-244 -301h-220l-100 301h162z" />
    <glyph glyph-name="scaron" unicode="&#x161;" 
d="M37 297l228 44q30 -90 76 -125.5t122 -35.5q73 0 118 35t45 82q0 32 -19 54q-20 21 -96 51q-211 85 -262 134q-81 79 -81 206q0 150 106 247t290 97q312 0 362 -277l-217 -46q-38 126 -182 126q-68 0 -103 -28t-35 -71q0 -36 27 -61q20 -19 138 -61q169 -60 227 -117
q85 -83 85 -202q0 -161 -109 -267t-289 -106q-354 0 -431 321zM587 1320l145 178h194l-244 -301h-220l-100 301h162z" />
    <glyph glyph-name="Tcedilla" unicode="&#x162;" horiz-adv-x="1026" 
d="M592 0h-247l210 1221h-353l42 245h947l-42 -245h-347zM192 -421l39 116l50 -1q73 0 148 31q51 21 51 71q0 32 -23.5 51t-71.5 19q-27 0 -74 -9l28 99q59 18 107 18q85 0 134 -45.5t49 -119.5q0 -94 -94 -164t-264 -70q-51 0 -79 4z" />
    <glyph glyph-name="tcedilla" unicode="&#x163;" horiz-adv-x="559" 
d="M126 849l36 213h115l29 170l269 198l-63 -368h144l-36 -213h-144l-77 -445q-20 -120 -20 -139q0 -35 18 -52t62 -17q14 0 77 7l-37 -213q-61 -14 -123 -14q-120 0 -179.5 56t-59.5 164q0 50 30 226l73 427h-114zM71 -421l39 116l50 -1q73 0 148 31q51 21 51 71
q0 32 -23.5 51t-71.5 19q-27 0 -74 -9l28 99q59 18 107 18q85 0 134 -45.5t49 -119.5q0 -94 -94 -164t-264 -70q-51 0 -79 4z" />
    <glyph glyph-name="Tcaron" unicode="&#x164;" horiz-adv-x="1026" 
d="M592 0h-247l210 1221h-353l42 245h947l-42 -245h-347zM742 1691l145 178h194l-244 -301h-220l-100 301h162z" />
    <glyph glyph-name="tcaron" unicode="&#x165;" horiz-adv-x="805" 
d="M126 849l36 213h115l29 170l269 198l-63 -368h144l-36 -213h-144l-77 -445q-20 -120 -20 -139q0 -35 18 -52t62 -17q14 0 77 7l-37 -213q-61 -14 -123 -14q-120 0 -179.5 56t-59.5 164q0 50 30 226l73 427h-114zM763 1479h214l-35 -206q-39 -225 -247 -235l21 119
q83 21 102 73h-98z" />
    <glyph glyph-name="Tbar" unicode="&#x166;" horiz-adv-x="1026" 
d="M442 582h-277l31 177h276l79 462h-352l42 245h947l-42 -245h-348l-79 -462h277l-30 -177h-277l-100 -582h-247z" />
    <glyph glyph-name="tbar" unicode="&#x167;" horiz-adv-x="559" 
d="M433 599h166l-23 -131h-166l-11 -64q-20 -121 -20 -139q0 -69 76 -69q24 0 81 7l-37 -213q-61 -15 -125 -15q-237 0 -237 220q0 50 30 227l8 46h-136l23 131h135l43 250h-114l36 213h115l29 170l269 198l-63 -368h144l-36 -213h-144z" />
    <glyph glyph-name="Utilde" unicode="&#x168;" horiz-adv-x="1212" 
d="M320 1466h247l-136 -796l-33 -192q-4 -28 -4 -50q0 -93 54.5 -147t148.5 -54q83 0 141 37t92 113.5t70 286.5l137 802h247l-137 -802q-42 -245 -89 -360q-68 -166 -184 -247.5t-289 -81.5q-201 0 -316.5 120.5t-115.5 328.5q0 67 35 270zM649 1594h-104q26 141 67 191
t93 50q45 0 155 -49q64 -28 88 -28q18 0 31.5 15t24.5 63h105q-15 -122 -61.5 -181t-103.5 -59q-38 0 -117 39q-83 41 -105 41q-52 0 -73 -82z" />
    <glyph glyph-name="utilde" unicode="&#x169;" horiz-adv-x="1026" 
d="M247 1062h236l-108 -629q-19 -113 -19 -141q0 -48 28.5 -80t69.5 -32q48 0 95 34q66 47 105 122.5t64 219.5l86 506h235l-181 -1062h-220l24 144q-145 -168 -313 -168q-106 0 -168.5 73.5t-62.5 202.5q0 54 28 218zM485 1213h-104q26 141 67 191t93 50q45 0 155 -49
q64 -28 88 -28q18 0 31.5 15t24.5 63h105q-15 -122 -61.5 -181t-103.5 -59q-38 0 -117 39q-83 41 -105 41q-52 0 -73 -82z" />
    <glyph glyph-name="Umacron" unicode="&#x16a;" horiz-adv-x="1212" 
d="M320 1466h247l-136 -796l-33 -192q-4 -28 -4 -50q0 -93 54.5 -147t148.5 -54q83 0 141 37t92 113.5t70 286.5l137 802h247l-137 -802q-42 -245 -89 -360q-68 -166 -184 -247.5t-289 -81.5q-201 0 -316.5 120.5t-115.5 328.5q0 67 35 270zM591 1788h525l-33 -193h-525z
" />
    <glyph glyph-name="umacron" unicode="&#x16b;" horiz-adv-x="1026" 
d="M247 1062h236l-108 -629q-19 -113 -19 -141q0 -48 28.5 -80t69.5 -32q48 0 95 34q66 47 105 122.5t64 219.5l86 506h235l-181 -1062h-220l24 144q-145 -168 -313 -168q-106 0 -168.5 73.5t-62.5 202.5q0 54 28 218zM414 1415h525l-33 -193h-525z" />
    <glyph glyph-name="Ubreve" unicode="&#x16c;" horiz-adv-x="1212" 
d="M320 1466h247l-136 -796l-33 -192q-4 -28 -4 -50q0 -93 54.5 -147t148.5 -54q83 0 141 37t92 113.5t70 286.5l137 802h247l-137 -802q-42 -245 -89 -360q-68 -166 -184 -247.5t-289 -81.5q-201 0 -316.5 120.5t-115.5 328.5q0 67 35 270zM596 1869h114q19 -82 51 -113.5
t79 -31.5q98 0 162 145h108q-35 -140 -121 -226q-64 -64 -156 -64q-95 0 -157.5 71t-79.5 219z" />
    <glyph glyph-name="ubreve" unicode="&#x16d;" horiz-adv-x="1026" 
d="M247 1062h236l-108 -629q-19 -113 -19 -141q0 -48 28.5 -80t69.5 -32q48 0 95 34q66 47 105 122.5t64 219.5l86 506h235l-181 -1062h-220l24 144q-145 -168 -313 -168q-106 0 -168.5 73.5t-62.5 202.5q0 54 28 218zM409 1488h114q19 -82 51 -113.5t79 -31.5q98 0 162 145
h108q-35 -140 -121 -226q-64 -64 -156 -64q-95 0 -157.5 71t-79.5 219z" />
    <glyph glyph-name="Uring" unicode="&#x16e;" horiz-adv-x="1212" 
d="M320 1466h247l-136 -796l-33 -192q-4 -28 -4 -50q0 -93 54.5 -147t148.5 -54q83 0 141 37t92 113.5t70 286.5l137 802h247l-137 -802q-42 -245 -89 -360q-68 -166 -184 -247.5t-289 -81.5q-201 0 -316.5 120.5t-115.5 328.5q0 67 35 270zM660 1765q0 83 47.5 138
t110.5 55t111 -55t48 -138t-48 -138t-111 -55t-110.5 55t-47.5 138zM749 1765q0 -36 21 -60t48 -24q28 0 49 24t21 60q0 37 -21 61t-49 24q-27 0 -48 -24.5t-21 -60.5z" />
    <glyph glyph-name="uring" unicode="&#x16f;" horiz-adv-x="1026" 
d="M247 1062h236l-108 -629q-19 -113 -19 -141q0 -48 28.5 -80t69.5 -32q48 0 95 34q66 47 105 122.5t64 219.5l86 506h235l-181 -1062h-220l24 144q-145 -168 -313 -168q-106 0 -168.5 73.5t-62.5 202.5q0 54 28 218zM522 1351q0 83 47.5 138t110.5 55t111 -55t48 -138
t-48 -138t-111 -55t-110.5 55t-47.5 138zM611 1351q0 -36 21 -60t48 -24q28 0 49 24t21 60q0 37 -21 61t-49 24q-27 0 -48 -24.5t-21 -60.5z" />
    <glyph glyph-name="Udblacute" unicode="&#x170;" horiz-adv-x="1212" 
d="M320 1466h247l-136 -796l-33 -192q-4 -28 -4 -50q0 -93 54.5 -147t148.5 -54q83 0 141 37t92 113.5t70 286.5l137 802h247l-137 -802q-42 -245 -89 -360q-68 -166 -184 -247.5t-289 -81.5q-201 0 -316.5 120.5t-115.5 328.5q0 67 35 270zM1005 1863h238l-269 -297h-135z
M678 1863h244l-275 -297h-131z" />
    <glyph glyph-name="udblacute" unicode="&#x171;" horiz-adv-x="1026" 
d="M247 1062h236l-108 -629q-19 -113 -19 -141q0 -48 28.5 -80t69.5 -32q48 0 95 34q66 47 105 122.5t64 219.5l86 506h235l-181 -1062h-220l24 144q-145 -168 -313 -168q-106 0 -168.5 73.5t-62.5 202.5q0 54 28 218zM842 1491h238l-269 -297h-135zM515 1491h244l-275 -297
h-131z" />
    <glyph glyph-name="Uogonek" unicode="&#x172;" horiz-adv-x="1212" 
d="M320 1466h247l-136 -796l-33 -192q-4 -28 -4 -50q0 -93 54.5 -147t148.5 -54q83 0 141 37t92 113.5t70 286.5l137 802h247l-137 -802q-42 -245 -89 -360q-68 -166 -184 -247.5t-289 -81.5q-201 0 -316.5 120.5t-115.5 328.5q0 67 35 270zM845 -236l-22 -128
q-37 -26 -90 -43.5t-91 -17.5q-67 0 -107 46.5t-40 138.5q0 129 54 259h116q-42 -125 -42 -198q0 -46 21.5 -70.5t58.5 -24.5q54 0 142 38z" />
    <glyph glyph-name="uogonek" unicode="&#x173;" horiz-adv-x="1026" 
d="M247 1062h236l-108 -629q-19 -113 -19 -141q0 -48 28.5 -80t69.5 -32q48 0 95 34q66 47 105 122.5t64 219.5l86 506h235l-181 -1062h-220l24 144q-145 -168 -313 -168q-106 0 -168.5 73.5t-62.5 202.5q0 54 28 218zM968 -236l-22 -128q-37 -26 -90 -43.5t-91 -17.5
q-67 0 -107 46.5t-40 138.5q0 129 54 259h116q-42 -125 -42 -198q0 -46 21.5 -70.5t58.5 -24.5q54 0 142 38z" />
    <glyph glyph-name="Wcircumflex" unicode="&#x174;" horiz-adv-x="1585" 
d="M1212 0h-250l-27 1072l-438 -1072h-255l-45 1466h242l10 -1026l413 1026h269l27 -1015l396 1015h239zM1039 1756l-144 -178h-194l244 301h220l99 -301h-162z" />
    <glyph glyph-name="wcircumflex" unicode="&#x175;" horiz-adv-x="1307" 
d="M978 0h-221l-43 676l-266 -676h-218l-109 1062h209l61 -712l271 712h214l30 -712l270 712h236zM794 1375l-144 -178h-194l244 301h220l99 -301h-162z" />
    <glyph glyph-name="Ycircumflex" unicode="&#x176;" horiz-adv-x="1120" 
d="M674 0h-248l99 571l-332 895h263l149 -414q53 -148 71 -215q32 67 72 139l113 193l170 297h287l-551 -923zM798 1748l-144 -178h-194l244 301h220l99 -301h-162z" />
    <glyph glyph-name="ycircumflex" unicode="&#x177;" 
d="M141 1062h234l59 -529q22 -203 25 -286q46 164 126 344l209 471h249l-538 -1166q-76 -164 -117 -219.5t-92.5 -81.5t-116.5 -26q-74 0 -168 32l21 214q42 -15 82 -15q108 0 179 200zM645 1375l-144 -178h-194l244 301h220l99 -301h-162z" />
    <glyph glyph-name="Ydieresis" unicode="&#x178;" horiz-adv-x="1120" 
d="M674 0h-248l99 571l-332 895h263l149 -414q53 -148 71 -215q32 67 72 139l113 193l170 297h287l-551 -923zM561 1840h201l-42 -245h-201zM906 1840h202l-42 -245h-202z" />
    <glyph glyph-name="Zacute" unicode="&#x179;" horiz-adv-x="1026" 
d="M42 0l40 231l691 990h-560l42 245h867l-36 -230l-700 -996l129 3h39l178 2h284l-42 -245h-932zM716 1869h252l-267 -300h-156z" />
    <glyph glyph-name="zacute" unicode="&#x17a;" horiz-adv-x="840" 
d="M28 0l34 194l477 644h-389l38 224h683l-29 -171l-481 -659h419l-40 -232h-712zM550 1496h252l-267 -300h-156z" />
    <glyph glyph-name="Zdot" unicode="&#x17b;" horiz-adv-x="1026" 
d="M42 0l40 231l691 990h-560l42 245h867l-36 -230l-700 -996l129 3h39l178 2h284l-42 -245h-932zM616 1830h236l-45 -263h-236z" />
    <glyph glyph-name="zdot" unicode="&#x17c;" horiz-adv-x="840" 
d="M28 0l34 194l477 644h-389l38 224h683l-29 -171l-481 -659h419l-40 -232h-712zM448 1490h236l-45 -263h-236z" />
    <glyph glyph-name="Zcaron" unicode="&#x17d;" horiz-adv-x="1026" 
d="M42 0l40 231l691 990h-560l42 245h867l-36 -230l-700 -996l129 3h39l178 2h284l-42 -245h-932zM742 1691l145 178h194l-244 -301h-220l-100 301h162z" />
    <glyph glyph-name="zcaron" unicode="&#x17e;" horiz-adv-x="840" 
d="M28 0l34 194l477 644h-389l38 224h683l-29 -171l-481 -659h419l-40 -232h-712zM548 1320l145 178h194l-244 -301h-220l-100 301h162z" />
    <glyph glyph-name="longs" unicode="&#x17f;" horiz-adv-x="467" 
d="M301 0h-235l201 1171q22 127 46 186.5t81.5 96.5t144.5 37q107 0 227 -48l-45 -205q-85 35 -138 35q-39 0 -55.5 -25t-31.5 -111z" />
    <glyph glyph-name="florin" unicode="&#x192;" 
d="M226 851l31 211h165l13 89q23 147 38 190q27 76 84 113t160 37q111 0 220 -41l-44 -226q-77 28 -130 28q-44 0 -65.5 -24t-35.5 -110l-9 -56h170l-30 -211h-168l-141 -978q-23 -160 -72 -223q-63 -81 -195 -81q-131 0 -233 40l47 221q89 -23 137 -23q50 0 68.5 32.5
t33.5 138.5l122 873h-166z" />
    <glyph glyph-name="Aringacute" unicode="&#x1fa;" horiz-adv-x="1212" 
d="M856 324h-477l-144 -324h-254l680 1466h274l195 -1466h-234zM825 568l-69 590l-265 -590h334zM673 1723q0 83 47.5 138t110.5 55t111 -55t48 -138t-48 -138t-111 -55t-110.5 55t-47.5 138zM762 1723q0 -36 21 -60t48 -24q28 0 49 24t21 60q0 37 -21 61t-49 24
q-27 0 -48 -24.5t-21 -60.5zM899 2268h252l-267 -300h-156z" />
    <glyph glyph-name="aringacute" unicode="&#x1fb;" 
d="M400 761l-230 24q41 147 142 224t256 77q158 0 243 -78.5t85 -208.5q0 -46 -6.5 -98t-48.5 -284q-35 -191 -35 -267q0 -69 19 -150h-228q-14 58 -17 120q-52 -70 -119.5 -107t-134.5 -37q-106 0 -178 84t-72 224q0 161 82 248q81 87 272 105q168 17 225 41q15 61 15 97
q0 48 -32.5 77.5t-88.5 29.5q-122 0 -149 -121zM624 495q-22 -7 -57 -13q-165 -24 -217.5 -64.5t-52.5 -108.5q0 -53 30.5 -86t77.5 -33q49 0 94 27.5t72 77t46 162.5zM466 1351q0 83 47.5 138t110.5 55t111 -55t48 -138t-48 -138t-111 -55t-110.5 55t-47.5 138zM555 1351
q0 -36 21 -60t48 -24q28 0 49 24t21 60q0 37 -21 61t-49 24q-27 0 -48 -24.5t-21 -60.5zM716 1891h252l-267 -300h-156z" />
    <glyph glyph-name="AEacute" unicode="&#x1fc;" horiz-adv-x="1679" 
d="M771 367h-400l-171 -367h-254l699 1466h1134l-42 -245h-589l-57 -335h565l-41 -245h-566l-68 -396h634l-41 -245h-866zM813 612l105 609h-147l-284 -609h326zM1299 1877h252l-267 -300h-156z" />
    <glyph glyph-name="aeacute" unicode="&#x1fd;" horiz-adv-x="1493" 
d="M1438 440h-599q3 -118 56 -184t125 -66q117 0 181 138l211 -41q-72 -160 -175.5 -235.5t-226.5 -75.5q-230 0 -324 247q-151 -247 -360 -247q-121 0 -197.5 83t-76.5 228q0 109 40 184t107.5 113t224.5 55q173 19 223 42q6 33 6 57q0 73 -33.5 108.5t-97.5 35.5
q-61 0 -96 -28t-53 -96l-225 28q33 141 135 220.5t258 79.5q109 0 172.5 -33t97.5 -99q112 132 289 132q155 0 254.5 -118.5t99.5 -335.5q0 -95 -16 -192zM1240 615l1 32q0 116 -44.5 175.5t-114.5 59.5q-75 0 -138.5 -67t-86.5 -200h383zM616 501q-216 -29 -284 -75
t-68 -113q0 -52 31.5 -86t80.5 -34q77 0 136 70q80 92 104 238zM849 1496h252l-267 -300h-156z" />
    <glyph glyph-name="Oslashacute" unicode="&#x1fe;" horiz-adv-x="1307" 
d="M254 172q-113 168 -113 408q0 183 64 385q81 259 240.5 392.5t366.5 133.5q170 0 282 -89l115 168l112 -114l-118 -173q108 -162 108 -409q0 -256 -100 -473.5t-249.5 -321.5t-323.5 -104q-164 0 -271 80l-120 -177l-116 114zM416 409l529 775q-66 55 -152 55
q-94 0 -185.5 -72t-156.5 -233.5t-65 -343.5q0 -95 30 -181zM1038 1040l-523 -768q68 -55 148 -55q90 0 181.5 73.5t158.5 239.5t67 343q0 80 -32 167zM998 1877h252l-267 -300h-156z" />
    <glyph glyph-name="oslashacute" unicode="&#x1ff;" horiz-adv-x="1026" 
d="M821 1026l102 144l91 -94l-101 -142q90 -126 90 -325q0 -263 -137 -448t-360 -185q-126 0 -226 63l-103 -146l-89 96l100 141q-89 130 -89 324q0 186 69 338t177 223t251 71q132 0 225 -60zM693 845q-45 34 -102 34q-64 0 -115 -41q-65 -54 -111 -170.5t-46 -238.5
q0 -51 11 -97zM768 728l-363 -512q46 -31 102 -31q67 0 126 46.5t104 162t45 237.5q0 46 -14 97zM650 1496h252l-267 -300h-156z" />
    <glyph glyph-name="uni0218" unicode="&#x218;" horiz-adv-x="1120" 
d="M106 475l235 15q5 -118 27 -164t73 -72.5t139 -26.5q114 0 171.5 50t57.5 131q0 57 -33 98q-33 40 -171 113q-175 93 -232.5 144.5t-89 126.5t-31.5 171q0 196 115 313t314 117q201 0 321.5 -116t132.5 -327l-237 -13q-18 217 -218 217q-99 0 -145.5 -41.5t-46.5 -113.5
q0 -66 44 -107q43 -42 174 -112q173 -91 230 -141.5t87.5 -124t30.5 -166.5q0 -208 -131 -339.5t-346 -131.5q-162 0 -276.5 69t-156 184t-38.5 247zM445 -121h214l-35 -206q-39 -225 -247 -235l21 119q83 21 102 73h-98z" />
    <glyph glyph-name="uni0219" unicode="&#x219;" 
d="M37 297l228 44q30 -90 76 -125.5t122 -35.5q73 0 118 35t45 82q0 32 -19 54q-20 21 -96 51q-211 85 -262 134q-81 79 -81 206q0 150 106 247t290 97q312 0 362 -277l-217 -46q-38 126 -182 126q-68 0 -103 -28t-35 -71q0 -36 27 -61q20 -19 138 -61q169 -60 227 -117
q85 -83 85 -202q0 -161 -109 -267t-289 -106q-354 0 -431 321zM345 -121h214l-35 -206q-39 -225 -247 -235l21 119q83 21 102 73h-98z" />
    <glyph glyph-name="uni021A" unicode="&#x21a;" horiz-adv-x="1026" 
d="M592 0h-247l210 1221h-353l42 245h947l-42 -245h-347zM345 -121h214l-35 -206q-39 -225 -247 -235l21 119q83 21 102 73h-98z" />
    <glyph glyph-name="uni021B" unicode="&#x21b;" horiz-adv-x="559" 
d="M126 849l36 213h115l29 170l269 198l-63 -368h144l-36 -213h-144l-77 -445q-20 -120 -20 -139q0 -35 18 -52t62 -17q14 0 77 7l-37 -213q-61 -14 -123 -14q-120 0 -179.5 56t-59.5 164q0 50 30 226l73 427h-114zM181 -121h214l-35 -206q-39 -225 -247 -235l21 119
q83 21 102 73h-98z" />
    <glyph glyph-name="circumflex" unicode="&#x2c6;" horiz-adv-x="559" 
d="M432 1375l-144 -178h-194l244 301h220l99 -301h-162z" />
    <glyph glyph-name="caron" unicode="&#x2c7;" horiz-adv-x="559" 
d="M409 1320l145 178h194l-244 -301h-220l-100 301h162z" />
    <glyph glyph-name="macron" unicode="&#x2c9;" horiz-adv-x="559" 
d="M175 1427h525l-33 -193h-525z" />
    <glyph glyph-name="breve" unicode="&#x2d8;" horiz-adv-x="559" 
d="M142 1488h114q19 -82 51 -113.5t79 -31.5q98 0 162 145h108q-35 -140 -121 -226q-64 -64 -156 -64q-95 0 -157.5 71t-79.5 219z" />
    <glyph glyph-name="dotaccent" unicode="&#x2d9;" horiz-adv-x="559" 
d="M319 1490h236l-45 -263h-236z" />
    <glyph glyph-name="ring" unicode="&#x2da;" horiz-adv-x="559" 
d="M253 1351q0 83 47.5 138t110.5 55t111 -55t48 -138t-48 -138t-111 -55t-110.5 55t-47.5 138zM342 1351q0 -36 21 -60t48 -24q28 0 49 24t21 60q0 37 -21 61t-49 24q-27 0 -48 -24.5t-21 -60.5z" />
    <glyph glyph-name="ogonek" unicode="&#x2db;" horiz-adv-x="559" 
d="M454 -236l-22 -128q-37 -26 -90 -43.5t-91 -17.5q-67 0 -107 46.5t-40 138.5q0 129 54 259h116q-42 -125 -42 -198q0 -46 21.5 -70.5t58.5 -24.5q54 0 142 38z" />
    <glyph glyph-name="tilde" unicode="&#x2dc;" horiz-adv-x="559" 
d="M260 1213h-104q26 141 67 191t93 50q45 0 155 -49q64 -28 88 -28q18 0 31.5 15t24.5 63h105q-15 -122 -61.5 -181t-103.5 -59q-38 0 -117 39q-83 41 -105 41q-52 0 -73 -82z" />
    <glyph glyph-name="hungarumlaut" unicode="&#x2dd;" horiz-adv-x="559" 
d="M545 1491h238l-269 -297h-135zM218 1491h244l-275 -297h-131z" />
    <glyph glyph-name="tonos" unicode="&#x384;" horiz-adv-x="682" 
d="M479 1496h252l-267 -300h-156z" />
    <glyph glyph-name="dieresistonos" unicode="&#x385;" horiz-adv-x="559" 
d="M221 1196l123 301h242l-211 -301h-154zM-59 1196l43 246h196l-43 -246h-196zM588 1196l43 246h198l-43 -246h-198z" />
    <glyph glyph-name="Alphatonos" unicode="&#x386;" horiz-adv-x="1212" 
d="M856 324h-477l-144 -324h-254l680 1466h274l195 -1466h-234zM825 568l-69 590l-265 -590h334zM335 1464h252l-267 -300h-156z" />
    <glyph glyph-name="anoteleia" unicode="&#x387;" horiz-adv-x="559" 
d="M291 1062h232l-48 -278h-232z" />
    <glyph glyph-name="Epsilontonos" unicode="&#x388;" horiz-adv-x="1436" 
d="M385 0l251 1466h891l-42 -245h-643l-57 -333h622l-42 -245h-622l-69 -398h691l-41 -245h-939zM307 1464h252l-267 -300h-156z" />
    <glyph glyph-name="Etatonos" unicode="&#x389;" horiz-adv-x="1522" 
d="M1209 655h-465l-113 -655h-247l251 1466h248l-98 -566h466l97 566h247l-251 -1466h-247zM307 1464h252l-267 -300h-156z" />
    <glyph glyph-name="Iotatonos" unicode="&#x38a;" horiz-adv-x="793" 
d="M383 0l251 1466h247l-251 -1466h-247zM311 1464h252l-267 -300h-156z" />
    <glyph glyph-name="Omicrontonos" unicode="&#x38c;" horiz-adv-x="1413" 
d="M255 575q0 190 64 391q81 258 240 391.5t368 133.5q217 0 357.5 -165t140.5 -450q0 -258 -100.5 -476t-249.5 -322t-328 -104q-214 0 -341 150q-151 177 -151 451zM500 581q0 -162 79.5 -258.5t193.5 -96.5q92 0 182 72t156.5 236.5t66.5 334.5q0 178 -82 280
q-72 90 -189 90q-94 0 -186 -73t-156.5 -234.5t-64.5 -350.5zM271 1464h252l-267 -300h-156z" />
    <glyph glyph-name="Upsilontonos" unicode="&#x38e;" horiz-adv-x="1563" 
d="M1114 0h-248l99 571l-332 895h263l149 -414q53 -148 71 -215q32 67 72 139l113 193l170 297h287l-551 -923zM307 1464h252l-267 -300h-156z" />
    <glyph glyph-name="Omegatonos" unicode="&#x38f;" horiz-adv-x="1423" 
d="M662 0h-535l41 238h277q-156 176 -156 460q0 327 181.5 560t459.5 233q219 0 354.5 -168t135.5 -449q0 -367 -285 -636h250l-41 -238h-557l37 207q150 48 250 226.5t100 418.5q0 175 -72 281t-196 106q-157 0 -273.5 -183.5t-116.5 -473.5q0 -268 183 -375zM275 1464h252
l-267 -300h-156z" />
    <glyph glyph-name="iotadieresistonos" unicode="&#x390;" horiz-adv-x="467" 
d="M250 1062h235l-182 -1062h-235zM233 1196l123 301h242l-211 -301h-154zM-47 1196l43 246h196l-43 -246h-196zM600 1196l43 246h198l-43 -246h-198z" />
    <glyph glyph-name="Alpha" unicode="&#x391;" horiz-adv-x="1212" 
d="M856 324h-477l-144 -324h-254l680 1466h274l195 -1466h-234zM825 568l-69 590l-265 -590h334z" />
    <glyph glyph-name="Beta" unicode="&#x392;" horiz-adv-x="1212" 
d="M67 0l251 1466h412q165 0 235 -21q109 -32 168 -119t59 -215q0 -129 -57 -216t-171 -132q89 -30 142.5 -108t53.5 -182q0 -142 -64.5 -257t-168 -165.5t-293.5 -50.5h-567zM464 874h189q124 0 178 20t85 69t31 112q0 51 -23 86.5t-58 47.5t-151 12h-191zM355 236h238
q140 0 192 20t87 73.5t35 120.5q0 79 -46 124t-145 45h-296z" />
    <glyph glyph-name="Gamma" unicode="&#x393;" horiz-adv-x="1024" 
d="M323 1466h858l-41 -245h-613l-208 -1221h-248z" />
    <glyph glyph-name="Delta" unicode="&#x394;" horiz-adv-x="1126" 
d="M886 1466l194 -1466h-1149l680 1466h275zM296 246h522l-110 913z" />
    <glyph glyph-name="Epsilon" unicode="&#x395;" horiz-adv-x="1120" 
d="M69 0l251 1466h891l-42 -245h-643l-57 -333h622l-42 -245h-622l-69 -398h691l-41 -245h-939z" />
    <glyph glyph-name="Zeta" unicode="&#x396;" horiz-adv-x="1026" 
d="M42 0l40 231l691 990h-560l42 245h867l-36 -230l-700 -996l129 3h39l178 2h284l-42 -245h-932z" />
    <glyph glyph-name="Eta" unicode="&#x397;" horiz-adv-x="1212" 
d="M897 655h-465l-113 -655h-247l251 1466h248l-98 -566h466l97 566h247l-251 -1466h-247z" />
    <glyph glyph-name="Theta" unicode="&#x398;" horiz-adv-x="1307" 
d="M641 -25q-222 0 -358 167.5t-136 432.5q0 381 189.5 648.5t482.5 267.5q224 0 361 -168.5t137 -448.5q0 -374 -193.5 -636.5t-482.5 -262.5zM801 1239q-166 0 -287 -194t-121 -451q0 -168 76.5 -267.5t195.5 -99.5q164 0 285 196t121 447q0 166 -75 267.5t-195 101.5z
M946 610h-471l43 246h469z" />
    <glyph glyph-name="Iota" unicode="&#x399;" horiz-adv-x="467" 
d="M59 0l251 1466h247l-251 -1466h-247z" />
    <glyph glyph-name="Kappa" unicode="&#x39a;" horiz-adv-x="1212" 
d="M66 0l251 1466h247l-106 -623l556 623h332l-541 -575l396 -891h-279l-297 698l-233 -249l-77 -449h-249z" />
    <glyph glyph-name="Lambda" unicode="&#x39b;" horiz-adv-x="1120" 
d="M-69 0l664 1466h264l215 -1466h-248l-151 1110l-498 -1110h-246z" />
    <glyph glyph-name="Mu" unicode="&#x39c;" horiz-adv-x="1399" 
d="M760 0h-235l-43 1225l-191 -1225h-223l251 1466h353l37 -1027l410 1027h356l-251 -1466h-226l237 1216z" />
    <glyph glyph-name="Nu" unicode="&#x39d;" horiz-adv-x="1212" 
d="M1030 0h-231l-325 985l-168 -985h-231l251 1466h231l325 -981l168 981h231z" />
    <glyph glyph-name="Xi" unicode="&#x39e;" horiz-adv-x="1104" 
d="M278 1221l43 245h872l-45 -245h-870zM196 643l43 246h833l-43 -246h-833zM15 0l43 246h973l-43 -246h-973z" />
    <glyph glyph-name="Omicron" unicode="&#x39f;" horiz-adv-x="1307" 
d="M147 575q0 190 64 391q81 258 240 391.5t368 133.5q217 0 357.5 -165t140.5 -450q0 -258 -100.5 -476t-249.5 -322t-328 -104q-214 0 -341 150q-151 177 -151 451zM392 581q0 -162 79.5 -258.5t193.5 -96.5q92 0 182 72t156.5 236.5t66.5 334.5q0 178 -82 280
q-72 90 -189 90q-94 0 -186 -73t-156.5 -234.5t-64.5 -350.5z" />
    <glyph glyph-name="Pi" unicode="&#x3a0;" horiz-adv-x="1212" 
d="M783 0l211 1221h-465l-210 -1221h-248l252 1466h960l-252 -1466h-248z" />
    <glyph glyph-name="Rho" unicode="&#x3a1;" horiz-adv-x="1120" 
d="M316 0h-247l251 1466h489q136 0 209 -39t117.5 -122.5t44.5 -204.5q0 -146 -53.5 -268.5t-133 -181.5t-188.5 -80q-59 -11 -234 -11h-159zM454 802h76q183 0 249.5 25t109.5 91.5t43 154.5q0 95 -62 131q-36 21 -166 21h-178z" />
    <glyph glyph-name="Sigma" unicode="&#x3a3;" horiz-adv-x="991" 
d="M237 1196l49 270h850l-43 -245h-576l295 -486l-414 -489h523l-43 -246h-850l47 272l422 500z" />
    <glyph glyph-name="Tau" unicode="&#x3a4;" horiz-adv-x="1026" 
d="M592 0h-247l210 1221h-353l42 245h947l-42 -245h-347z" />
    <glyph glyph-name="Upsilon" unicode="&#x3a5;" horiz-adv-x="1120" 
d="M674 0h-248l99 571l-332 895h263l149 -414q53 -148 71 -215q32 67 72 139l113 193l170 297h287l-551 -923z" />
    <glyph glyph-name="Phi" unicode="&#x3a6;" horiz-adv-x="1380" 
d="M749 1323l30 178h244l-33 -190q181 -24 293.5 -165t112.5 -331q0 -238 -158.5 -418.5t-445.5 -218.5l-43 -237h-244l45 249q-182 24 -294 164.5t-112 331.5q0 239 158.5 419.5t446.5 217.5zM595 440l109 621q-151 -34 -232.5 -137.5t-81.5 -245.5q0 -203 205 -238z
M945 1061l-108 -621q150 34 231.5 138.5t81.5 246.5q0 201 -205 236z" />
    <glyph glyph-name="Chi" unicode="&#x3a7;" horiz-adv-x="1120" 
d="M270 0h-320l531 742l-299 724h259l116 -275q63 -148 91 -230q100 149 169 244l189 261h310l-549 -772l296 -694h-279l-90 221q-72 177 -94 251q-31 -58 -165 -244z" />
    <glyph glyph-name="Psi" unicode="&#x3a8;" horiz-adv-x="1391" 
d="M226 1069l70 397h244l-66 -376q-24 -148 -24 -199q0 -193 188 -225l139 800h242l-139 -800q154 16 209 93t90 279l73 428h246l-78 -450q-59 -349 -218.5 -474t-362.5 -120l-74 -422h-242l72 422q-391 60 -391 448q0 71 22 199z" />
    <glyph glyph-name="Ohm" unicode="&#x3a9;" horiz-adv-x="1311" 
d="M546 0h-535l41 238h277q-156 176 -156 460q0 327 181.5 560t459.5 233q219 0 354.5 -168t135.5 -449q0 -367 -285 -636h250l-41 -238h-557l37 207q150 48 250 226.5t100 418.5q0 175 -72 281t-196 106q-157 0 -273.5 -183.5t-116.5 -473.5q0 -268 183 -375z" />
    <glyph glyph-name="Iotadieresis" unicode="&#x3aa;" horiz-adv-x="467" 
d="M59 0l251 1466h247l-251 -1466h-247zM260 1840h201l-42 -245h-201zM605 1840h202l-42 -245h-202z" />
    <glyph glyph-name="Upsilondieresis" unicode="&#x3ab;" horiz-adv-x="1120" 
d="M674 0h-248l99 571l-332 895h263l149 -414q53 -148 71 -215q32 67 72 139l113 193l170 297h287l-551 -923zM489 1840h201l-42 -245h-201zM834 1840h202l-42 -245h-202z" />
    <glyph glyph-name="alphatonos" unicode="&#x3ac;" horiz-adv-x="1032" 
d="M795 915l62 146h250l-189 -512q-8 -119 -8 -178q0 -150 19 -371h-226q-12 62 -12 131q-121 -158 -276 -158q-149 0 -232.5 116t-83.5 325q0 282 124.5 477.5t309.5 195.5q164 0 262 -172zM564 872q-98 0 -168 -130t-70 -302q0 -121 44.5 -186.5t121.5 -65.5
q99 0 166.5 124.5t67.5 318.5q0 114 -45 177.5t-117 63.5zM661 1496h252l-267 -300h-156z" />
    <glyph glyph-name="epsilontonos" unicode="&#x3ad;" horiz-adv-x="807" 
d="M312 563q-121 92 -121 217q0 136 91 220.5t245 84.5q215 0 334 -155l-172 -156q-79 88 -166 88q-44 0 -70 -26.5t-26 -65.5q0 -116 184 -123l-39 -221q-18 2 -51 2q-96 0 -154.5 -41.5t-58.5 -101.5q0 -38 27.5 -61t70.5 -23q37 0 77.5 20t50.5 27l96 69l143 -190
q-164 -150 -387 -150q-145 0 -229 81t-84 208q0 203 239 297zM589 1496h252l-267 -300h-156z" />
    <glyph glyph-name="etatonos" unicode="&#x3ae;" horiz-adv-x="1026" 
d="M475 1061l-25 -137q155 163 312 163q103 0 165.5 -76t62.5 -208q0 -51 -9 -107l-189 -1104h-233l172 1018q24 136 24 160q0 113 -102 113q-83 0 -157.5 -99.5t-100.5 -251.5l-90 -532h-235l182 1061h223zM655 1496h252l-267 -300h-156z" />
    <glyph glyph-name="iotatonos" unicode="&#x3af;" horiz-adv-x="467" 
d="M250 1062h235l-182 -1062h-235zM426 1496h252l-267 -300h-156z" />
    <glyph glyph-name="upsilondieresistonos" unicode="&#x3b0;" horiz-adv-x="1024" 
d="M147 459l103 602h233l-102 -594q-11 -64 -11 -112q0 -165 132 -165q78 0 128.5 68t84.5 268l90 535h235l-86 -504q-60 -351 -165.5 -466.5t-288.5 -115.5q-174 0 -268 100t-94 273q0 54 9 111zM524 1196l123 301h242l-211 -301h-154zM244 1196l43 246h196l-43 -246h-196z
M891 1196l43 246h198l-43 -246h-198z" />
    <glyph glyph-name="alpha" unicode="&#x3b1;" horiz-adv-x="1032" 
d="M795 915l62 146h250l-189 -512q-8 -119 -8 -178q0 -150 19 -371h-226q-12 62 -12 131q-121 -158 -276 -158q-149 0 -232.5 116t-83.5 325q0 282 124.5 477.5t309.5 195.5q164 0 262 -172zM564 872q-98 0 -168 -130t-70 -302q0 -121 44.5 -186.5t121.5 -65.5
q99 0 166.5 124.5t67.5 318.5q0 114 -45 177.5t-117 63.5z" />
    <glyph glyph-name="beta" unicode="&#x3b2;" horiz-adv-x="1042" 
d="M814 793q182 -108 182 -344q0 -200 -112 -338t-277 -138q-178 0 -285 164l-94 -545h-233l223 1274q59 337 172 480t307 143q153 0 246.5 -96.5t93.5 -245.5q0 -241 -223 -354zM453 879l-47 -248q-18 -95 -18 -174q0 -269 184 -269q80 0 143.5 77.5t63.5 201.5
q0 123 -62 181.5t-204 58.5l41 219q96 0 139 16.5t80 71.5t37 125q0 53 -32 90t-83 37q-80 0 -137 -68t-105 -319z" />
    <glyph glyph-name="gamma" unicode="&#x3b3;" 
d="M1049 1061l-536 -1061l-70 -408h-203l70 408l-174 1061h231l62 -461q28 -214 31 -252q46 118 118 266l217 447h254z" />
    <glyph glyph-name="delta" unicode="&#x3b4;" horiz-adv-x="1026" 
d="M326 1276l33 190h750l-43 -245h-418q88 -140 180 -234q180 -186 180 -412q0 -241 -140 -420.5t-351 -179.5q-189 0 -297.5 133t-108.5 361q0 209 98.5 356.5t284.5 206.5q-74 92 -168 244zM601 840q-112 0 -187 -127.5t-75 -284.5q0 -108 49 -173t125 -65
q105 0 186.5 128t81.5 280q0 111 -49 176.5t-131 65.5z" />
    <glyph glyph-name="epsilon" unicode="&#x3b5;" horiz-adv-x="807" 
d="M312 563q-121 92 -121 217q0 136 91 220.5t245 84.5q215 0 334 -155l-172 -156q-79 88 -166 88q-44 0 -70 -26.5t-26 -65.5q0 -116 184 -123l-39 -221q-18 2 -51 2q-96 0 -154.5 -41.5t-58.5 -101.5q0 -38 27.5 -61t70.5 -23q37 0 77.5 20t50.5 27l96 69l143 -190
q-164 -150 -387 -150q-145 0 -229 81t-84 208q0 203 239 297z" />
    <glyph glyph-name="zeta" unicode="&#x3b6;" horiz-adv-x="825" 
d="M374 1221l41 245h604l-33 -194q-371 -242 -509 -449t-138 -379q0 -150 149 -219q221 -99 221 -305q0 -120 -60 -209.5t-140.5 -115t-220.5 -25.5l94 237q121 4 121 80q0 55 -94.5 93.5t-161.5 79.5t-110.5 119t-43.5 210q0 219 134 445.5t372 386.5h-225z" />
    <glyph glyph-name="eta" unicode="&#x3b7;" horiz-adv-x="1026" 
d="M475 1061l-25 -137q155 163 312 163q103 0 165.5 -76t62.5 -208q0 -51 -9 -107l-189 -1104h-233l172 1018q24 136 24 160q0 113 -102 113q-83 0 -157.5 -99.5t-100.5 -251.5l-90 -532h-235l182 1061h223z" />
    <glyph glyph-name="theta" unicode="&#x3b8;" horiz-adv-x="924" 
d="M456 -25q-150 0 -248.5 138t-98.5 370q0 409 150 708.5t369 299.5q160 0 246.5 -131.5t86.5 -380.5q0 -362 -140.5 -683t-364.5 -321zM394 856h322q15 100 15 178q0 110 -30.5 166.5t-79.5 56.5q-143 0 -227 -401zM677 610h-324q-14 -90 -14 -163q0 -114 32.5 -176
t81.5 -62q146 0 224 401z" />
    <glyph glyph-name="iota" unicode="&#x3b9;" horiz-adv-x="467" 
d="M250 1062h235l-182 -1062h-235z" />
    <glyph glyph-name="kappa" unicode="&#x3ba;" horiz-adv-x="950" 
d="M69 0l184 1061h237l-63 -346l305 346h311l-444 -471l297 -590h-260l-195 422l-80 -86l-59 -336h-233z" />
    <glyph glyph-name="lambda" unicode="&#x3bb;" 
d="M-36 0l529 1049l-66 417h209l242 -1466h-221l-74 463q-14 87 -29 250q-54 -131 -118 -264l-218 -449h-254z" />
    <glyph glyph-name="mu" unicode="&#x3bc;" horiz-adv-x="1022" 
d="M646 0l18 98q-96 -123 -174 -123q-106 0 -168 138l-90 -521h-235l254 1469h235l-96 -549q-11 -67 -11 -121q0 -201 134 -201q144 0 199 316l96 555h231l-182 -1061h-211z" />
    <glyph glyph-name="nu" unicode="&#x3bd;" 
d="M503 0h-202l-175 1062h231l62 -463q24 -180 30 -250l52 118l67 147l216 448h254z" />
    <glyph glyph-name="xi" unicode="&#x3be;" horiz-adv-x="756" 
d="M425 895q-162 75 -162 260q0 161 111 248.5t321 87.5h170l-37 -254q-91 10 -133 10q-92 0 -144 -30.5t-52 -83.5t49 -77t227 -24l-39 -256q-202 0 -307.5 -112t-105.5 -248q0 -70 27 -110t97 -84q142 -89 186 -164.5t44 -157.5q0 -136 -99.5 -233t-310.5 -97l72 256
q15 -4 37 -4q84 0 84 72q0 26 -19 51t-140 94t-167.5 166.5t-46.5 208.5q0 170 90.5 299t247.5 182z" />
    <glyph glyph-name="omicron" unicode="&#x3bf;" horiz-adv-x="1026" 
d="M102 441q0 261 118 444q131 201 379 201q186 0 296.5 -126t110.5 -351q0 -264 -137.5 -448.5t-359.5 -184.5q-181 0 -294 125t-113 340zM773 646q0 105 -49.5 165t-125.5 60q-64 0 -120 -44t-98 -153t-42 -226q0 -119 51.5 -185t127.5 -66q96 0 163 102q93 140 93 347z
" />
    <glyph glyph-name="pi" unicode="&#x3c0;" horiz-adv-x="1196" 
d="M120 815l45 246h1116l-45 -246h-186l-141 -815h-232l146 815h-283l-141 -815h-232l139 815h-186z" />
    <glyph glyph-name="rho" unicode="&#x3c1;" horiz-adv-x="1034" 
d="M218 -408h-236l154 848q40 227 94.5 358t155.5 211.5t229 80.5q176 0 284.5 -128.5t108.5 -345.5q0 -275 -139 -457t-330 -182q-127 0 -235 99zM611 856q-104 0 -171.5 -131t-67.5 -309q0 -104 44 -163.5t109 -59.5q99 0 177.5 133.5t78.5 302.5q0 103 -48 165t-122 62z
" />
    <glyph glyph-name="sigma1" unicode="&#x3c2;" horiz-adv-x="895" 
d="M189 -406l86 234q78 -16 146 -16q114 0 114 77q0 23 -14 43.5t-81 59.5q-327 190 -327 512q0 224 172 402.5t431 178.5q139 0 282 -63l-82 -225q-120 55 -215 55q-153 0 -256.5 -116.5t-103.5 -252.5q0 -130 94 -207q187 -149 252 -225.5t65 -185.5q0 -138 -99.5 -216.5
t-280.5 -78.5q-90 0 -183 24z" />
    <glyph glyph-name="sigma" unicode="&#x3c3;" horiz-adv-x="1106" 
d="M975 815q35 -102 35 -207q0 -271 -142 -452t-360 -181q-183 0 -294.5 129t-111.5 347q0 278 135 457t357 179q49 0 104 -13l51 -13h455l-39 -246h-190zM518 199q108 0 182 130.5t74 315.5q0 100 -49 163.5t-127 63.5q-113 0 -186.5 -128t-73.5 -293q0 -114 49.5 -183
t130.5 -69z" />
    <glyph glyph-name="tau" unicode="&#x3c4;" horiz-adv-x="686" 
d="M130 815l45 246h606l-45 -246h-186l-141 -815h-232l139 815h-186z" />
    <glyph glyph-name="upsilon" unicode="&#x3c5;" horiz-adv-x="1024" 
d="M147 459l103 602h233l-102 -594q-11 -64 -11 -112q0 -165 132 -165q78 0 128.5 68t84.5 268l90 535h235l-86 -504q-60 -351 -165.5 -466.5t-288.5 -115.5q-174 0 -268 100t-94 273q0 54 9 111z" />
    <glyph glyph-name="phi" unicode="&#x3c6;" horiz-adv-x="1192" 
d="M363 -408l70 396q-152 49 -236.5 186.5t-84.5 327.5q0 237 123 400t339 185l-49 -264q-178 -63 -178 -327q0 -164 129 -267l72 418q44 252 116.5 345t198.5 93q137 0 223 -117.5t86 -305.5q0 -282 -133 -466t-377 -214l-67 -390h-232zM783 668l-82 -455
q113 37 178.5 178.5t65.5 313.5q0 147 -68 147q-30 0 -50 -27.5t-44 -156.5z" />
    <glyph glyph-name="chi" unicode="&#x3c7;" horiz-adv-x="971" 
d="M418 1061l113 -483l279 483h288l-456 -748l176 -719h-236l-110 523l-314 -523h-276l477 775l-178 692h237z" />
    <glyph glyph-name="psi" unicode="&#x3c8;" horiz-adv-x="1298" 
d="M129 475l105 586h239l-82 -451q-27 -153 -27 -229q0 -87 34 -125.5t116 -52.5l156 858h231l-151 -858q132 14 178.5 97t87.5 308l82 453h231l-94 -531q-63 -352 -172.5 -448t-353.5 -107l-68 -383h-233l65 383q-174 0 -263.5 105t-89.5 289q0 56 9 106z" />
    <glyph glyph-name="omega" unicode="&#x3c9;" horiz-adv-x="1386" 
d="M693 231q-85 -256 -283 -256q-137 0 -222 126.5t-85 340.5q0 314 201 619h233q-206 -424 -206 -666q0 -92 31.5 -144t80.5 -52q117 0 174 323l49 279h236l-43 -256q-29 -162 -29 -207q0 -66 31.5 -102.5t73.5 -36.5q90 0 151.5 154.5t61.5 398.5q0 118 -27 309h234
q28 -195 28 -324q0 -349 -121 -555.5t-319 -206.5q-225 0 -250 256z" />
    <glyph glyph-name="iotadieresis" unicode="&#x3ca;" horiz-adv-x="467" 
d="M250 1062h235l-182 -1062h-235zM166 1468h201l-42 -245h-201zM511 1468h202l-42 -245h-202z" />
    <glyph glyph-name="upsilondieresis" unicode="&#x3cb;" horiz-adv-x="1024" 
d="M147 459l103 602h233l-102 -594q-11 -64 -11 -112q0 -165 132 -165q78 0 128.5 68t84.5 268l90 535h235l-86 -504q-60 -351 -165.5 -466.5t-288.5 -115.5q-174 0 -268 100t-94 273q0 54 9 111zM421 1468h201l-42 -245h-201zM766 1468h202l-42 -245h-202z" />
    <glyph glyph-name="omicrontonos" unicode="&#x3cc;" horiz-adv-x="1026" 
d="M102 441q0 261 118 444q131 201 379 201q186 0 296.5 -126t110.5 -351q0 -264 -137.5 -448.5t-359.5 -184.5q-181 0 -294 125t-113 340zM773 646q0 105 -49.5 165t-125.5 60q-64 0 -120 -44t-98 -153t-42 -226q0 -119 51.5 -185t127.5 -66q96 0 163 102q93 140 93 347z
M650 1496h252l-267 -300h-156z" />
    <glyph glyph-name="upsilontonos" unicode="&#x3cd;" horiz-adv-x="1024" 
d="M147 459l103 602h233l-102 -594q-11 -64 -11 -112q0 -165 132 -165q78 0 128.5 68t84.5 268l90 535h235l-86 -504q-60 -351 -165.5 -466.5t-288.5 -115.5q-174 0 -268 100t-94 273q0 54 9 111zM669 1496h252l-267 -300h-156z" />
    <glyph glyph-name="omegatonos" unicode="&#x3ce;" horiz-adv-x="1386" 
d="M693 231q-85 -256 -283 -256q-137 0 -222 126.5t-85 340.5q0 314 201 619h233q-206 -424 -206 -666q0 -92 31.5 -144t80.5 -52q117 0 174 323l49 279h236l-43 -256q-29 -162 -29 -207q0 -66 31.5 -102.5t73.5 -36.5q90 0 151.5 154.5t61.5 398.5q0 118 -27 309h234
q28 -195 28 -324q0 -349 -121 -555.5t-319 -206.5q-225 0 -250 256zM869 1496h252l-267 -300h-156z" />
    <glyph glyph-name="afii10023" unicode="&#x401;" horiz-adv-x="1120" 
d="M69 0l251 1466h891l-42 -245h-643l-57 -333h622l-42 -245h-622l-69 -398h691l-41 -245h-939zM568 1840h201l-42 -245h-201zM913 1840h202l-42 -245h-202z" />
    <glyph glyph-name="afii10051" unicode="&#x402;" horiz-adv-x="1487" 
d="M815 264q68 -18 127 -18q106 0 171 75.5t65 200.5q0 86 -52.5 140.5t-138.5 54.5q-164 0 -332 -117l-104 -600h-248l215 1212h-354l43 254h954l-43 -254h-356l-55 -321q144 94 309 94q178 0 288.5 -132.5t110.5 -334.5q0 -232 -133 -381t-326 -149q-83 0 -182 32z" />
    <glyph glyph-name="afii10052" unicode="&#x403;" horiz-adv-x="1024" 
d="M323 1466h858l-41 -245h-613l-208 -1221h-248zM829 1877h252l-267 -300h-156z" />
    <glyph glyph-name="afii10053" unicode="&#x404;" horiz-adv-x="1208" 
d="M1206 1012l-237 -29q-37 250 -228 250q-115 0 -205.5 -97t-140.5 -284h387l-43 -246h-381q0 -182 67 -284.5t177 -102.5q208 0 295 307l244 -47q-56 -227 -209 -364.5t-350 -137.5q-220 0 -344.5 165.5t-124.5 461.5q0 391 181.5 639t457.5 248q384 0 454 -479z" />
    <glyph glyph-name="afii10054" unicode="&#x405;" horiz-adv-x="1120" 
d="M106 475l235 15q5 -118 27 -164t73 -72.5t139 -26.5q114 0 171.5 50t57.5 131q0 57 -33 98q-33 40 -171 113q-175 93 -232.5 144.5t-89 126.5t-31.5 171q0 196 115 313t314 117q201 0 321.5 -116t132.5 -327l-237 -13q-18 217 -218 217q-99 0 -145.5 -41.5t-46.5 -113.5
q0 -66 44 -107q43 -42 174 -112q173 -91 230 -141.5t87.5 -124t30.5 -166.5q0 -208 -131 -339.5t-346 -131.5q-162 0 -276.5 69t-156 184t-38.5 247z" />
    <glyph glyph-name="afii10055" unicode="&#x406;" horiz-adv-x="467" 
d="M59 0l251 1466h247l-251 -1466h-247z" />
    <glyph glyph-name="afii10056" unicode="&#x407;" horiz-adv-x="467" 
d="M59 0l251 1466h247l-251 -1466h-247zM224 1840h201l-42 -245h-201zM569 1840h202l-42 -245h-202z" />
    <glyph glyph-name="afii10057" unicode="&#x408;" 
d="M765 1466h243l-152 -888q-63 -371 -166.5 -487t-294.5 -116q-166 0 -256 92.5t-90 267.5q0 35 4 79l229 30q-5 -43 -5 -71q0 -75 34.5 -110.5t99.5 -35.5q93 0 132 67q30 50 71 294z" />
    <glyph glyph-name="afii10058" unicode="&#x409;" horiz-adv-x="1837" 
d="M680 0l213 1221h-334l-137 -777q-45 -253 -121.5 -361t-212.5 -108q-93 0 -174 39l45 254q55 -28 86 -28q45 0 77 39.5t60 199.5l172 987h828l-97 -555h211q249 0 353 -99.5t104 -319.5q0 -224 -127 -358t-342 -134h-604zM1042 666l-75 -426h264q276 0 276 231
q0 100 -55.5 147.5t-191.5 47.5h-218z" />
    <glyph glyph-name="afii10059" unicode="&#x40a;" horiz-adv-x="1749" 
d="M1100 1466l-96 -555h194q263 0 370 -98t107 -307q0 -238 -128.5 -372t-362.5 -134h-582l111 666h-322l-112 -666h-248l252 1466h245l-96 -555h324l96 555h248zM963 666l-76 -426h248q121 0 174 22.5t87 80t34 128.5q0 92 -50.5 143.5t-220.5 51.5h-196z" />
    <glyph glyph-name="afii10060" unicode="&#x40b;" horiz-adv-x="1434" 
d="M164 1212l41 254h954l-43 -254h-350l-55 -305q154 64 305 64q164 0 254 -84t90 -236q0 -64 -25 -202l-80 -449h-243l73 416q15 86 15 145q0 168 -185 168q-119 0 -245 -74l-115 -655h-246l213 1212h-358z" />
    <glyph glyph-name="afii10061" unicode="&#x40c;" horiz-adv-x="1032" 
d="M33 0l256 1466h246l-109 -622q83 2 123.5 52t130 236t136.5 240.5t108.5 74t148.5 19.5h64l-54 -223h-39q-54 0 -85.5 -33.5t-94.5 -185.5q-95 -235 -227 -276q49 -19 87.5 -69.5t78.5 -217.5l108 -461h-254l-100 455q-24 110 -59 145.5t-109 36.5l-110 -637h-246z
M714 1896h252l-267 -300h-156z" />
    <glyph glyph-name="afii10062" unicode="&#x40e;" horiz-adv-x="1137" 
d="M440 424l-266 1042h277l153 -747l418 747h268l-735 -1233q-95 -160 -160.5 -208t-156.5 -48q-87 0 -154 23l31 233q60 -14 96 -14q70 0 117 37.5t94 130.5zM530 1888h114q19 -82 51 -113.5t79 -31.5q98 0 162 145h108q-35 -140 -121 -226q-64 -64 -156 -64
q-95 0 -157.5 71t-79.5 219z" />
    <glyph glyph-name="afii10145" unicode="&#x40f;" horiz-adv-x="1208" 
d="M985 0h-375l-71 -406h-201l72 406h-377l256 1466h246l-213 -1220h460l215 1220h246z" />
    <glyph glyph-name="afii10017" unicode="&#x410;" horiz-adv-x="1212" 
d="M856 324h-477l-144 -324h-254l680 1466h274l195 -1466h-234zM825 568l-69 590l-265 -590h334z" />
    <glyph glyph-name="afii10018" unicode="&#x411;" horiz-adv-x="1190" 
d="M1104 1221h-608l-54 -310h213q283 0 370 -120.5t87 -298.5q0 -223 -128 -357.5t-341 -134.5h-608l258 1466h858zM401 666l-75 -426h262q278 0 278 231q0 100 -55 147.5t-193 47.5h-217z" />
    <glyph glyph-name="afii10019" unicode="&#x412;" horiz-adv-x="1212" 
d="M67 0l251 1466h412q165 0 235 -21q109 -32 168 -119t59 -215q0 -129 -57 -216t-171 -132q89 -30 142.5 -108t53.5 -182q0 -142 -64.5 -257t-168 -165.5t-293.5 -50.5h-567zM464 874h189q124 0 178 20t85 69t31 112q0 51 -23 86.5t-58 47.5t-151 12h-191zM355 236h238
q140 0 192 20t87 73.5t35 120.5q0 79 -46 124t-145 45h-296z" />
    <glyph glyph-name="afii10020" unicode="&#x413;" horiz-adv-x="1024" 
d="M323 1466h858l-41 -245h-613l-208 -1221h-248z" />
    <glyph glyph-name="afii10021" unicode="&#x414;" horiz-adv-x="1212" 
d="M-53 246h106q204 418 332 1220h842l-213 -1220h106l-114 -652h-201l72 406h-775l-71 -406h-201zM770 246l170 975h-356q-95 -541 -273 -975h459z" />
    <glyph glyph-name="afii10022" unicode="&#x415;" horiz-adv-x="1120" 
d="M69 0l251 1466h891l-42 -245h-643l-57 -333h622l-42 -245h-622l-69 -398h691l-41 -245h-939z" />
    <glyph glyph-name="afii10024" unicode="&#x416;" horiz-adv-x="1556" 
d="M709 846l108 620h246l-109 -620q63 2 107 66t108.5 206.5t105.5 207.5t111.5 107t182.5 42q39 0 92 -9l-41 -221q-39 5 -64 5q-57 0 -89 -28t-83 -151t-104 -208t-139 -115q107 -47 157 -263l113 -485h-254l-90 416q-28 129 -62 174t-87 45l-111 -635h-244l109 635
q-44 -1 -83 -35t-118 -172l-244 -428h-297l310 532q106 183 243 216q-91 50 -126 315q-16 120 -34.5 154t-84.5 34q-15 0 -62 -6l37 225q19 3 74 3q91 0 156 -49.5t105 -262.5t66 -268.5t95 -46.5z" />
    <glyph glyph-name="afii10025" unicode="&#x417;" horiz-adv-x="1079" 
d="M457 631l43 254q33 -8 86 -8q87 0 146 57.5t59 144.5q0 72 -46.5 116t-115.5 44q-162 0 -207 -174l-236 68q54 192 173 275t270 83q177 0 297.5 -110.5t120.5 -276.5q0 -272 -256 -367q180 -105 180 -315q0 -183 -134.5 -314t-361.5 -131q-395 0 -457 361l238 90
q38 -209 217 -209q108 0 177 62.5t69 164.5q0 85 -57.5 137t-149.5 52q-25 0 -55 -4z" />
    <glyph glyph-name="afii10026" unicode="&#x418;" horiz-adv-x="1208" 
d="M29 0l258 1466h229l-158 -909l650 909h233l-256 -1466h-233l163 920l-655 -920h-231z" />
    <glyph glyph-name="afii10027" unicode="&#x419;" horiz-adv-x="1208" 
d="M29 0l258 1466h229l-158 -909l650 909h233l-256 -1466h-233l163 920l-655 -920h-231zM534 1864h114q19 -82 51 -113.5t79 -31.5q98 0 162 145h108q-35 -140 -121 -226q-64 -64 -156 -64q-95 0 -157.5 71t-79.5 219z" />
    <glyph glyph-name="afii10028" unicode="&#x41a;" horiz-adv-x="1032" 
d="M33 0l256 1466h246l-109 -622q83 2 123.5 52t130 236t136.5 240.5t108.5 74t148.5 19.5h64l-54 -223h-39q-54 0 -85.5 -33.5t-94.5 -185.5q-95 -235 -227 -276q49 -19 87.5 -69.5t78.5 -217.5l108 -461h-254l-100 455q-24 110 -59 145.5t-109 36.5l-110 -637h-246z" />
    <glyph glyph-name="afii10029" unicode="&#x41b;" horiz-adv-x="1153" 
d="M551 1221l-135 -777q-44 -247 -119 -355.5t-219 -108.5q-80 0 -164 20l45 252q56 -14 76 -14q46 0 78.5 41t60.5 200l172 987h828l-254 -1466h-248l213 1221h-334z" />
    <glyph glyph-name="afii10030" unicode="&#x41c;" horiz-adv-x="1399" 
d="M760 0h-235l-43 1225l-191 -1225h-223l251 1466h353l37 -1027l410 1027h356l-251 -1466h-226l237 1216z" />
    <glyph glyph-name="afii10031" unicode="&#x41d;" horiz-adv-x="1212" 
d="M897 655h-465l-113 -655h-247l251 1466h248l-98 -566h466l97 566h247l-251 -1466h-247z" />
    <glyph glyph-name="afii10032" unicode="&#x41e;" horiz-adv-x="1307" 
d="M147 575q0 190 64 391q81 258 240 391.5t368 133.5q217 0 357.5 -165t140.5 -450q0 -258 -100.5 -476t-249.5 -322t-328 -104q-214 0 -341 150q-151 177 -151 451zM392 581q0 -162 79.5 -258.5t193.5 -96.5q92 0 182 72t156.5 236.5t66.5 334.5q0 178 -82 280
q-72 90 -189 90q-94 0 -186 -73t-156.5 -234.5t-64.5 -350.5z" />
    <glyph glyph-name="afii10033" unicode="&#x41f;" horiz-adv-x="1212" 
d="M783 0l211 1221h-465l-210 -1221h-248l252 1466h960l-252 -1466h-248z" />
    <glyph glyph-name="afii10034" unicode="&#x420;" horiz-adv-x="1120" 
d="M316 0h-247l251 1466h489q136 0 209 -39t117.5 -122.5t44.5 -204.5q0 -146 -53.5 -268.5t-133 -181.5t-188.5 -80q-59 -11 -234 -11h-159zM454 802h76q183 0 249.5 25t109.5 91.5t43 154.5q0 95 -62 131q-36 21 -166 21h-178z" />
    <glyph glyph-name="afii10035" unicode="&#x421;" horiz-adv-x="1212" 
d="M940 528l249 -45q-75 -255 -221.5 -382t-339.5 -127q-216 0 -342.5 158t-126.5 474q0 271 92 477.5t234.5 307t308.5 100.5q187 0 311.5 -123t146.5 -352l-237 -28q-21 133 -78 188t-148 55q-93 0 -179 -67t-146.5 -224.5t-60.5 -346.5q0 -177 70 -271.5t170 -94.5
q95 0 176 74.5t121 226.5z" />
    <glyph glyph-name="afii10036" unicode="&#x422;" horiz-adv-x="1026" 
d="M592 0h-247l210 1221h-353l42 245h947l-42 -245h-347z" />
    <glyph glyph-name="afii10037" unicode="&#x423;" horiz-adv-x="1137" 
d="M440 424l-266 1042h277l153 -747l418 747h268l-735 -1233q-95 -160 -160.5 -208t-156.5 -48q-87 0 -154 23l31 233q60 -14 96 -14q70 0 117 37.5t94 130.5z" />
    <glyph glyph-name="afii10038" unicode="&#x424;" horiz-adv-x="1311" 
d="M674 1298l31 168h231l-31 -172q181 -6 280 -126.5t99 -317.5q0 -269 -154.5 -461t-422.5 -215l-33 -186h-230l33 186q-377 62 -377 465q0 247 158.5 438t415.5 221zM862 1049l-108 -621q119 14 201.5 137t82.5 258q0 198 -176 226zM520 424l111 623q-127 -34 -206 -145
t-79 -257q0 -201 174 -221z" />
    <glyph glyph-name="afii10039" unicode="&#x425;" horiz-adv-x="1120" 
d="M270 0h-320l531 742l-299 724h259l116 -275q63 -148 91 -230q100 149 169 244l189 261h310l-549 -772l296 -694h-279l-90 221q-72 177 -94 251q-31 -58 -165 -244z" />
    <glyph glyph-name="afii10040" unicode="&#x426;" horiz-adv-x="1225" 
d="M25 0l256 1466h245l-213 -1220h465l215 1220h244l-213 -1220h106l-114 -652h-201l72 406h-862z" />
    <glyph glyph-name="afii10041" unicode="&#x427;" horiz-adv-x="1190" 
d="M197 1049l73 417h246l-70 -389q-18 -123 -18 -147q0 -170 182 -170q137 0 252 71l113 635h244l-258 -1466h-244l104 578q-193 -70 -305 -70q-162 0 -253 83t-91 232q0 86 25 226z" />
    <glyph glyph-name="afii10042" unicode="&#x428;" horiz-adv-x="1645" 
d="M31 0l256 1466h245l-213 -1220h324l213 1220h246l-213 -1220h328l215 1220h241l-256 -1466h-1386z" />
    <glyph glyph-name="afii10043" unicode="&#x429;" horiz-adv-x="1661" 
d="M1673 1466l-213 -1220h107l-117 -652h-201l72 406h-1290l256 1466h245l-213 -1220h324l213 1220h246l-213 -1220h328l215 1220h241z" />
    <glyph glyph-name="afii10044" unicode="&#x42a;" horiz-adv-x="1434" 
d="M135 1221l43 245h606l-96 -555h195q269 0 372 -101t103 -318q0 -229 -129 -360.5t-361 -131.5h-587l217 1221h-363zM647 666l-76 -426h246q118 0 171.5 21t88.5 78.5t35 131.5q0 92 -51.5 143.5t-218.5 51.5h-195z" />
    <glyph glyph-name="afii10045" unicode="&#x42b;" horiz-adv-x="1657" 
d="M35 0l258 1466h246l-97 -555h195q270 0 372.5 -101t102.5 -318q0 -229 -129 -360.5t-360 -131.5h-588zM401 666l-75 -426h245q118 0 172 21t88.5 78.5t34.5 131.5q0 92 -51 143.5t-219 51.5h-195zM1249 0l251 1466h247l-251 -1466h-247z" />
    <glyph glyph-name="afii10046" unicode="&#x42c;" horiz-adv-x="1190" 
d="M35 0l258 1466h246l-97 -555h195q270 0 372.5 -101t102.5 -318q0 -229 -129 -360.5t-360 -131.5h-588zM401 666l-75 -426h245q118 0 172 21t88.5 78.5t34.5 131.5q0 92 -51 143.5t-219 51.5h-195z" />
    <glyph glyph-name="afii10047" unicode="&#x42d;" horiz-adv-x="1208" 
d="M506 610l35 246h379v23q0 158 -74 256t-187 98q-96 0 -166 -62t-96 -172l-239 62q38 194 180.5 312t325.5 118q233 0 367 -168t134 -471q0 -381 -182 -628t-471 -247q-369 0 -440 445l233 96q18 -174 87.5 -231.5t146.5 -57.5q110 0 203.5 97.5t144.5 283.5h-381z" />
    <glyph glyph-name="afii10048" unicode="&#x42e;" horiz-adv-x="1749" 
d="M573 567v39h-198l-107 -606h-241l256 1466h243l-106 -608h194q49 299 214 466t389 167q223 0 358 -168t135 -461q0 -358 -161 -622.5t-470 -264.5q-229 0 -367.5 168t-138.5 424zM1200 1239q-153 0 -267 -187t-114 -456q0 -165 78 -267t199 -102q159 0 263.5 171.5
t104.5 453.5q0 182 -73.5 284.5t-190.5 102.5z" />
    <glyph glyph-name="afii10049" unicode="&#x42f;" horiz-adv-x="1225" 
d="M633 1466h622l-258 -1466h-243l108 612h-28q-95 0 -157 -31t-151 -157l-299 -424h-307l336 477q94 135 174 168q-244 61 -244 356q0 201 123.5 333t323.5 132zM901 846l64 375h-211q-182 0 -252 -49t-70 -152q0 -174 205 -174h264z" />
    <glyph glyph-name="afii10065" unicode="&#x430;" 
d="M400 761l-230 24q41 147 142 224t256 77q158 0 243 -78.5t85 -208.5q0 -46 -6.5 -98t-48.5 -284q-35 -191 -35 -267q0 -69 19 -150h-228q-14 58 -17 120q-52 -70 -119.5 -107t-134.5 -37q-106 0 -178 84t-72 224q0 161 82 248q81 87 272 105q168 17 225 41q15 61 15 97
q0 48 -32.5 77.5t-88.5 29.5q-122 0 -149 -121zM624 495q-22 -7 -57 -13q-165 -24 -217.5 -64.5t-52.5 -108.5q0 -53 30.5 -86t77.5 -33q49 0 94 27.5t72 77t46 162.5z" />
    <glyph glyph-name="afii10066" unicode="&#x431;" horiz-adv-x="1040" 
d="M897 1532h160q-5 -142 -37 -203.5t-93.5 -77.5t-202.5 -21q-126 -5 -175.5 -29t-92 -84t-77.5 -154q118 98 235 98q159 0 258 -126.5t99 -338.5q0 -258 -141 -438.5t-357 -180.5q-184 0 -294.5 131.5t-110.5 352.5q0 198 69 416t166 357.5t191 181t227 44.5t152.5 13
t23.5 59zM553 846q-103 0 -175.5 -117.5t-72.5 -282.5q0 -116 52 -181.5t128 -65.5q99 0 173.5 124.5t74.5 290.5q0 108 -48 170t-132 62z" />
    <glyph glyph-name="afii10067" unicode="&#x432;" horiz-adv-x="1014" 
d="M717 535q166 -66 166 -234q0 -144 -111.5 -235t-300.5 -91q-196 0 -300.5 122t-104.5 352q0 284 142.5 460t387.5 176q152 0 233.5 -74t81.5 -206q0 -199 -194 -270zM299 618h178q91 0 128.5 8.5t66 49.5t28.5 90q0 117 -131 117q-227 0 -270 -265zM508 444h-221
q1 -138 51 -199t162 -61q155 0 155 125q0 57 -43 96t-104 39z" />
    <glyph glyph-name="afii10068" unicode="&#x433;" horiz-adv-x="897" 
d="M571 334l222 -43q-70 -316 -428 -316q-163 0 -258 91t-95 231q0 110 50.5 174t125 96t208 71t173 65t39.5 90q0 90 -123 90q-118 0 -153 -121l-207 43q71 280 336 280q174 0 269 -79.5t95 -221.5q0 -114 -55.5 -180.5t-145 -103t-262.5 -83.5q-133 -37 -133 -124
q0 -49 41 -82t107 -33q152 0 194 156z" />
    <glyph glyph-name="afii10069" unicode="&#x434;" horiz-adv-x="1038" 
d="M537 1323h-111l43 209h74q273 0 369 -125t96 -418q0 -455 -134 -733.5t-415 -278.5q-184 0 -293 123t-109 334q0 273 146.5 462t351.5 189q141 0 242 -110l2 92q0 143 -54 199.5t-208 56.5zM752 682q0 188 -168 188q-123 0 -206 -136.5t-83 -301.5q0 -111 45.5 -172
t122.5 -61q120 0 204.5 155t84.5 328z" />
    <glyph glyph-name="afii10070" unicode="&#x435;" 
d="M915 442h-591v-27q0 -107 50 -171t120 -64q116 0 183 148l211 -43q-62 -155 -165 -232t-231 -77q-170 0 -282.5 132.5t-112.5 359.5q0 245 128 431.5t358 186.5q155 0 251.5 -117.5t96.5 -339.5q0 -105 -16 -187zM716 617l1 28q0 121 -44.5 179t-115.5 58
q-72 0 -130.5 -67t-78.5 -198h368z" />
    <glyph glyph-name="afii10072" unicode="&#x436;" horiz-adv-x="1237" 
d="M516 610l78 451h233l-79 -451q66 0 99.5 45t88 173.5t79 162t67 52t100.5 18.5h102l-29 -158h-30q-58 0 -84 -69q-55 -147 -95 -206.5t-126 -88.5q93 -27 129 -183l81 -356h-221l-69 313q-20 90 -43.5 117t-77.5 27l-80 -457h-229l79 457q-34 0 -56 -16t-60 -85
l-199 -356h-256l213 362q55 95 92.5 133t95.5 44q-71 79 -81 193t-23.5 142.5t-58.5 28.5h-43l26 158h80q51 0 89.5 -23.5t56.5 -61t37 -156.5t37.5 -159.5t76.5 -50.5z" />
    <glyph glyph-name="afii10073" unicode="&#x437;" horiz-adv-x="856" 
d="M367 618q100 0 152 26t52 122q0 57 -33 95t-81 38q-87 0 -150 -123l-194 41q93 268 362 268q147 0 230 -76t83 -206q0 -90 -51.5 -163.5t-138.5 -98.5q73 -24 114.5 -89.5t41.5 -148.5q0 -143 -104.5 -235.5t-291.5 -92.5q-307 0 -370 299l221 25q42 -145 166 -145
q60 0 100.5 43.5t40.5 107.5q0 143 -170 137z" />
    <glyph glyph-name="afii10074" unicode="&#x438;" horiz-adv-x="1026" 
d="M247 1062h236l-108 -629q-19 -113 -19 -141q0 -48 28.5 -80t69.5 -32q48 0 95 34q66 47 105 122.5t64 219.5l86 506h235l-181 -1062h-220l24 144q-145 -168 -313 -168q-106 0 -168.5 73.5t-62.5 202.5q0 54 28 218z" />
    <glyph glyph-name="afii10075" unicode="&#x439;" horiz-adv-x="1026" 
d="M247 1062h236l-108 -629q-19 -113 -19 -141q0 -48 28.5 -80t69.5 -32q48 0 95 34q66 47 105 122.5t64 219.5l86 506h235l-181 -1062h-220l24 144q-145 -168 -313 -168q-106 0 -168.5 73.5t-62.5 202.5q0 54 28 218zM393 1488h114q19 -82 51 -113.5t79 -31.5q98 0 162 145
h108q-35 -140 -121 -226q-64 -64 -156 -64q-95 0 -157.5 71t-79.5 219z" />
    <glyph glyph-name="afii10076" unicode="&#x43a;" horiz-adv-x="852" 
d="M16 0l185 1061h233l-80 -451q50 0 83.5 17.5t98.5 159t117 208t146 66.5h108l-33 -195h-28q-33 0 -55.5 -20.5t-55.5 -95.5q-72 -169 -188 -211q86 -23 123 -183l82 -356h-220l-71 313q-20 86 -44 115.5t-89 26.5l-82 -455h-230z" />
    <glyph glyph-name="afii10077" unicode="&#x43b;" horiz-adv-x="1044" 
d="M176 469l103 592h743l-186 -1061h-232l146 838h-295l-99 -559q-26 -159 -94.5 -231.5t-191.5 -72.5q-62 0 -152 25l37 240q50 -13 84 -13q63 0 88 50.5t49 191.5z" />
    <glyph glyph-name="afii10078" unicode="&#x43c;" horiz-adv-x="1243" 
d="M25 0l184 1061h287l90 -733l350 733h278l-184 -1061h-199l123 694l-329 -694h-197l-82 707l-125 -707h-196z" />
    <glyph glyph-name="afii10079" unicode="&#x43d;" horiz-adv-x="1014" 
d="M16 0l187 1061h231l-69 -391h325l70 391h231l-184 -1061h-234l78 446h-325l-76 -446h-234z" />
    <glyph glyph-name="afii10080" unicode="&#x43e;" horiz-adv-x="1026" 
d="M102 441q0 261 118 444q131 201 379 201q186 0 296.5 -126t110.5 -351q0 -264 -137.5 -448.5t-359.5 -184.5q-181 0 -294 125t-113 340zM773 646q0 105 -49.5 165t-125.5 60q-64 0 -120 -44t-98 -153t-42 -226q0 -119 51.5 -185t127.5 -66q96 0 163 102q93 140 93 347z
" />
    <glyph glyph-name="afii10081" unicode="&#x43f;" horiz-adv-x="1026" 
d="M252 1062h223l-23 -138q87 91 159.5 126.5t149.5 35.5q105 0 168 -73t63 -200q0 -55 -26 -211l-103 -602h-236l104 602q23 135 23 162q0 57 -27.5 87.5t-71.5 30.5q-48 0 -98 -38q-72 -54 -107 -128.5t-70 -279.5l-75 -436h-235z" />
    <glyph glyph-name="afii10082" unicode="&#x440;" horiz-adv-x="1026" 
d="M242 1062h223l-19 -109q75 75 137 104t130 29q136 0 220 -114t84 -343q0 -292 -148 -490q-122 -163 -287 -163q-172 0 -261 170l-95 -551h-235zM384 453q0 -125 50 -193t116 -68q53 0 104 43.5t92.5 160.5t41.5 241q0 119 -47.5 182t-117.5 63q-55 0 -106.5 -43t-92 -155
t-40.5 -231z" />
    <glyph glyph-name="afii10083" unicode="&#x441;" 
d="M658 400l228 -45q-57 -190 -168.5 -284.5t-254.5 -94.5q-162 0 -262 118t-100 335q0 195 67.5 347.5t183 231t246.5 78.5q148 0 243 -94t107 -261l-224 -29q-16 173 -140 173q-57 0 -112 -47t-96.5 -168t-41.5 -264q0 -95 38.5 -145.5t92.5 -50.5q57 0 109.5 48.5
t83.5 151.5z" />
    <glyph glyph-name="afii10084" unicode="&#x442;" horiz-adv-x="1493" 
d="M242 1062h222l-23 -129q130 153 272 153q190 0 220 -187q47 82 132 134.5t172 52.5q102 0 162 -65.5t60 -182.5q0 -55 -23 -189l-111 -649h-236l111 649q21 122 21 138q0 46 -23 70.5t-63 24.5q-85 0 -153 -106q-54 -83 -90 -293l-82 -483h-236l110 642q19 111 19 143
q0 45 -24.5 71t-62.5 26q-51 0 -105.5 -48.5t-86.5 -141.5q-19 -55 -45 -204l-84 -488h-235z" />
    <glyph glyph-name="afii10085" unicode="&#x443;" 
d="M141 1062h234l59 -529q22 -203 25 -286q46 164 126 344l209 471h249l-538 -1166q-76 -164 -117 -219.5t-92.5 -81.5t-116.5 -26q-74 0 -168 32l21 214q42 -15 82 -15q108 0 179 200z" />
    <glyph glyph-name="afii10086" unicode="&#x444;" horiz-adv-x="1487" 
d="M786 121v-31l-92 -506h-229l88 484q-105 -93 -201 -93q-123 0 -203.5 121t-80.5 324q0 274 124.5 469.5t290.5 195.5q134 0 226 -141l94 547h231l-94 -510q84 104 203 104q126 0 207.5 -122.5t81.5 -321.5q0 -269 -129 -467.5t-297 -198.5q-120 0 -220 146zM516 870
q-72 0 -141.5 -134t-69.5 -290q0 -114 37.5 -185t95.5 -71q78 0 142.5 125t64.5 299q0 118 -37.5 187t-91.5 69zM1063 870q-73 0 -142 -134t-69 -296q0 -106 38 -178t95 -72q78 0 143.5 125t65.5 299q0 118 -38.5 187t-92.5 69z" />
    <glyph glyph-name="afii10087" unicode="&#x445;" 
d="M468 298l-217 -298h-288l403 544l-222 518h250l127 -303l221 303h286l-404 -551l220 -511h-250z" />
    <glyph glyph-name="afii10088" unicode="&#x446;" horiz-adv-x="1085" 
d="M78 397l117 664h231l-113 -651q-14 -77 -14 -113q0 -113 98 -113q83 0 158 91t102 249l93 537h231l-125 -719q-12 -74 -12 -88q0 -30 16 -45.5t86 -15.5l51 2l-90 -525h-190l65 330q-153 0 -178 139q-162 -164 -309 -164q-109 0 -171.5 74t-62.5 199q0 56 17 149z" />
    <glyph glyph-name="afii10089" unicode="&#x447;" horiz-adv-x="979" 
d="M145 850l35 211h236l-37 -211q-17 -98 -17 -139q0 -136 150 -136q67 0 135 35l78 451h231l-186 -1061h-231l73 424q-115 -43 -225 -43q-119 0 -190.5 78.5t-71.5 208.5q0 58 20 182z" />
    <glyph glyph-name="afii10090" unicode="&#x448;" horiz-adv-x="1487" 
d="M1065 0l25 133q-141 -160 -291 -160q-75 0 -131.5 49.5t-73.5 135.5q-138 -183 -301 -183q-104 0 -162.5 67t-58.5 189q0 53 14 136l121 694h233l-121 -694q-10 -55 -10 -95q0 -88 82 -88q80 0 142.5 84.5t91.5 247.5l96 545h233l-120 -688q-13 -80 -13 -90
q0 -42 25 -68.5t63 -26.5q74 0 137 78t87 215l100 580h233l-184 -1061h-217z" />
    <glyph glyph-name="afii10091" unicode="&#x449;" horiz-adv-x="1571" 
d="M956 1061l-120 -688q-13 -80 -13 -90q0 -42 25 -68.5t63 -26.5q74 0 137 78t87 215l100 580h233l-135 -805q0 -41 23 -50t84 -9l47 2l-92 -525h-191l66 326q-56 0 -97.5 17.5t-80.5 115.5q-140 -160 -291 -160q-75 0 -131.5 49.5t-73.5 135.5q-138 -183 -301 -183
q-104 0 -162.5 67t-58.5 189q0 53 14 136l121 694h233l-120 -694q-11 -55 -11 -95q0 -88 82 -88q80 0 142.5 84.5t91.5 247.5l96 545h233z" />
    <glyph glyph-name="afii10092" unicode="&#x44a;" horiz-adv-x="1188" 
d="M74 874l32 187h515l-78 -438h288q130 0 199.5 -68.5t69.5 -196.5q0 -164 -93.5 -261t-240.5 -97h-565l151 874h-278zM512 449l-47 -269h186q211 0 211 146q0 62 -42 92.5t-165 30.5h-143z" />
    <glyph glyph-name="afii10093" unicode="&#x44b;" horiz-adv-x="1464" 
d="M14 0l187 1061h233l-78 -438h289q129 0 198.5 -68.5t69.5 -196.5q0 -163 -93 -260.5t-240 -97.5h-566zM326 449l-47 -269h186q211 0 211 146q0 62 -42 92.5t-165 30.5h-143zM1247 1062h235l-182 -1062h-235z" />
    <glyph glyph-name="afii10094" unicode="&#x44c;" horiz-adv-x="997" 
d="M14 0l187 1061h233l-78 -438h289q129 0 198.5 -68.5t69.5 -196.5q0 -163 -93 -260.5t-240 -97.5h-566zM326 449l-47 -269h186q211 0 211 146q0 62 -42 92.5t-165 30.5h-143z" />
    <glyph glyph-name="afii10095" unicode="&#x44d;" horiz-adv-x="928" 
d="M356 438l17 174h252v39q0 213 -136 213q-94 0 -163 -129l-232 47q120 303 400 303q164 0 261 -123t97 -335q0 -284 -142 -468t-356 -184q-140 0 -232.5 93t-113.5 266l223 24q13 -168 140 -168q142 0 223 248h-238z" />
    <glyph glyph-name="afii10096" unicode="&#x44e;" horiz-adv-x="1452" 
d="M330 424l-74 -424h-231l184 1061h231l-71 -414h178q46 212 165 325t287 113q177 0 280 -116t103 -324q0 -282 -142 -476t-357 -194q-159 0 -258 117.5t-107 331.5h-188zM995 870q-103 0 -172 -135t-69 -325q0 -96 39.5 -154.5t105.5 -58.5q124 0 185 164t61 296
q0 213 -150 213z" />
    <glyph glyph-name="afii10097" unicode="&#x44f;" horiz-adv-x="989" 
d="M475 1061h490l-197 -1061h-233l75 416h-84q-69 0 -170 -170l-145 -246h-285l197 311q54 86 125 133q-65 15 -111.5 85.5t-46.5 168.5q0 143 80.5 253t304.5 110zM641 590l51 297h-166q-198 0 -198 -164q0 -69 44.5 -101t153.5 -32h115z" />
    <glyph glyph-name="afii10071" unicode="&#x451;" 
d="M915 442h-591v-27q0 -107 50 -171t120 -64q116 0 183 148l211 -43q-62 -155 -165 -232t-231 -77q-170 0 -282.5 132.5t-112.5 359.5q0 245 128 431.5t358 186.5q155 0 251.5 -117.5t96.5 -339.5q0 -105 -16 -187zM716 617l1 28q0 121 -44.5 179t-115.5 58
q-72 0 -130.5 -67t-78.5 -198h368zM360 1468h201l-42 -245h-201zM705 1468h202l-42 -245h-202z" />
    <glyph glyph-name="afii10099" unicode="&#x452;" horiz-adv-x="1026" 
d="M23 0l204 1204h-106l26 146h107l20 116h236l-21 -116h314l-27 -146h-311l-45 -260q144 141 295 141q106 0 167.5 -73.5t61.5 -200.5q0 -58 -22 -190l-78 -457q-27 -158 -59 -291t-43.5 -162.5t-45 -64t-83.5 -55.5t-107 -21q-98 0 -176 31l35 237q54 -16 96 -16
q52 0 67 30t43.5 142t40.5 188l76 451q19 104 19 133q0 53 -28.5 85t-74.5 32q-65 0 -128 -64t-89 -139.5t-57 -259.5l-72 -420h-235z" />
    <glyph glyph-name="afii10100" unicode="&#x453;" horiz-adv-x="788" 
d="M387 1196l170 301h252l-266 -301h-156zM16 0l185 1061h684l-41 -223h-449l-147 -838h-232z" />
    <glyph glyph-name="afii10101" unicode="&#x454;" horiz-adv-x="946" 
d="M911 727l-221 -25q-16 168 -139 168q-75 0 -136.5 -68.5t-88.5 -191.5h241l-32 -174h-234v-30q0 -213 133 -213q120 0 191 206l227 -49q-75 -202 -175 -287.5t-247 -85.5q-169 0 -268 122t-99 335q0 282 142.5 466.5t353.5 184.5q149 0 242.5 -92t109.5 -266z" />
    <glyph glyph-name="afii10102" unicode="&#x455;" 
d="M37 297l228 44q30 -90 76 -125.5t122 -35.5q73 0 118 35t45 82q0 32 -19 54q-20 21 -96 51q-211 85 -262 134q-81 79 -81 206q0 150 106 247t290 97q312 0 362 -277l-217 -46q-38 126 -182 126q-68 0 -103 -28t-35 -71q0 -36 27 -61q20 -19 138 -61q169 -60 227 -117
q85 -83 85 -202q0 -161 -109 -267t-289 -106q-354 0 -431 321z" />
    <glyph glyph-name="afii10103" unicode="&#x456;" horiz-adv-x="467" 
d="M319 1466h236l-45 -260h-235zM250 1062h235l-182 -1062h-235z" />
    <glyph glyph-name="afii10104" unicode="&#x457;" horiz-adv-x="467" 
d="M250 1062h235l-182 -1062h-235zM158 1468h201l-42 -245h-201zM503 1468h202l-42 -245h-202z" />
    <glyph glyph-name="afii10105" unicode="&#x458;" horiz-adv-x="467" 
d="M321 1466h236l-45 -260h-236zM251 1062h237l-155 -899q-66 -384 -112 -466q-71 -128 -231 -128q-93 0 -173 32l37 237q56 -17 95 -17q51 0 79 49t73 312z" />
    <glyph glyph-name="afii10106" unicode="&#x459;" horiz-adv-x="1628" 
d="M473 838l-98 -559q-53 -304 -275 -304q-79 0 -182 25l37 240q50 -13 84 -13q63 0 88 50.5t49 191.5l103 592h784l-78 -438h287q129 0 198.5 -68.5t69.5 -196.5q0 -163 -92.5 -260.5t-239.5 -97.5h-565l148 838h-318zM952 449l-47 -269h187q211 0 211 146q0 62 -41.5 92.5
t-163.5 30.5h-146z" />
    <glyph glyph-name="afii10107" unicode="&#x45a;" horiz-adv-x="1522" 
d="M719 1061h233l-78 -438h224q188 0 261 -63.5t73 -201.5q0 -167 -93.5 -262.5t-259.5 -95.5h-547l82 449h-280l-80 -449h-234l187 1061h231l-71 -438h278zM844 449l-47 -269h186q211 0 211 146q0 61 -40.5 92t-164.5 31h-145z" />
    <glyph glyph-name="afii10108" unicode="&#x45b;" horiz-adv-x="1026" 
d="M23 0l206 1204h-108l24 146h109l20 116h236l-21 -116h353l-27 -146h-352l-43 -260q144 141 295 141q106 0 167.5 -73.5t61.5 -200.5q0 -59 -22 -190l-107 -621h-235l108 633q19 99 19 133q0 53 -28.5 85t-74.5 32q-66 0 -129.5 -66.5t-89.5 -146.5t-55 -250l-72 -420
h-235z" />
    <glyph glyph-name="afii10109" unicode="&#x45c;" horiz-adv-x="852" 
d="M16 0l185 1061h233l-80 -451q50 0 83.5 17.5t98.5 159t117 208t146 66.5h108l-33 -195h-28q-33 0 -55.5 -20.5t-55.5 -95.5q-72 -169 -188 -211q86 -23 123 -183l82 -356h-220l-71 313q-20 86 -44 115.5t-89 26.5l-82 -455h-230zM617 1496h252l-267 -300h-156z" />
    <glyph glyph-name="afii10110" unicode="&#x45e;" 
d="M141 1062h234l59 -529q22 -203 25 -286q46 164 126 344l209 471h249l-538 -1166q-76 -164 -117 -219.5t-92.5 -81.5t-116.5 -26q-74 0 -168 32l21 214q42 -15 82 -15q108 0 179 200zM345 1488h114q19 -82 51 -113.5t79 -31.5q98 0 162 145h108q-35 -140 -121 -226
q-64 -64 -156 -64q-95 0 -157.5 71t-79.5 219z" />
    <glyph glyph-name="afii10193" unicode="&#x45f;" horiz-adv-x="1032" 
d="M594 0l24 143q-93 -112 -210 -153l-68 -398h-188l69 398q-147 55 -147 274q0 36 28 205l101 592h235l-106 -629q-21 -128 -21 -141q0 -47 28 -79t71 -32q62 0 124 56t90.5 127t49.5 194l86 504h235l-182 -1061h-219z" />
    <glyph glyph-name="afii10050" unicode="&#x490;" horiz-adv-x="965" 
d="M1085 1221h-591l-213 -1221h-246l256 1466h592l69 406h246z" />
    <glyph glyph-name="afii10098" unicode="&#x491;" horiz-adv-x="784" 
d="M201 1061h450l64 366h231l-102 -589h-449l-147 -838h-232z" />
    <glyph glyph-name="Wgrave" unicode="&#x1e80;" horiz-adv-x="1585" 
d="M1212 0h-250l-27 1072l-438 -1072h-255l-45 1466h242l10 -1026l413 1026h269l27 -1015l396 1015h239zM746 1880h227l105 -299h-160z" />
    <glyph glyph-name="wgrave" unicode="&#x1e81;" horiz-adv-x="1307" 
d="M978 0h-221l-43 676l-266 -676h-218l-109 1062h209l61 -712l271 712h214l30 -712l270 712h236zM576 1499h227l105 -299h-160z" />
    <glyph glyph-name="Wacute" unicode="&#x1e82;" horiz-adv-x="1585" 
d="M1212 0h-250l-27 1072l-438 -1072h-255l-45 1466h242l10 -1026l413 1026h269l27 -1015l396 1015h239zM1074 1877h252l-267 -300h-156z" />
    <glyph glyph-name="wacute" unicode="&#x1e83;" horiz-adv-x="1307" 
d="M978 0h-221l-43 676l-266 -676h-218l-109 1062h209l61 -712l271 712h214l30 -712l270 712h236zM846 1496h252l-267 -300h-156z" />
    <glyph glyph-name="Wdieresis" unicode="&#x1e84;" horiz-adv-x="1585" 
d="M1212 0h-250l-27 1072l-438 -1072h-255l-45 1466h242l10 -1026l413 1026h269l27 -1015l396 1015h239zM784 1837h201l-42 -245h-201zM1129 1837h202l-42 -245h-202z" />
    <glyph glyph-name="wdieresis" unicode="&#x1e85;" horiz-adv-x="1307" 
d="M978 0h-221l-43 676l-266 -676h-218l-109 1062h209l61 -712l271 712h214l30 -712l270 712h236zM538 1468h201l-42 -245h-201zM883 1468h202l-42 -245h-202z" />
    <glyph glyph-name="Ygrave" unicode="&#x1ef2;" horiz-adv-x="1120" 
d="M674 0h-248l99 571l-332 895h263l149 -414q53 -148 71 -215q32 67 72 139l113 193l170 297h287l-551 -923zM522 1880h227l105 -299h-160z" />
    <glyph glyph-name="ygrave" unicode="&#x1ef3;" 
d="M141 1062h234l59 -529q22 -203 25 -286q46 164 126 344l209 471h249l-538 -1166q-76 -164 -117 -219.5t-92.5 -81.5t-116.5 -26q-74 0 -168 32l21 214q42 -15 82 -15q108 0 179 200zM374 1499h227l105 -299h-160z" />
    <glyph glyph-name="endash" unicode="&#x2013;" 
d="M-3 426v210h934v-210h-934z" />
    <glyph glyph-name="emdash" unicode="&#x2014;" horiz-adv-x="1679" 
d="M0 426v210h1679v-210h-1679z" />
    <glyph glyph-name="afii00208" unicode="&#x2015;" horiz-adv-x="1679" 
d="M1466 426h-1257v209h1257v-209z" />
    <glyph glyph-name="underscoredbl" unicode="&#x2017;" horiz-adv-x="1024" 
d="M-12 -125h1048v-103h-1048v103zM-12 -328h1048v-103h-1048v103z" />
    <glyph glyph-name="quoteleft" unicode="&#x2018;" horiz-adv-x="467" 
d="M417 870h-237l39 229q35 200 109 282t191 85l-22 -133q-58 -16 -90 -56t-50 -129h108z" />
    <glyph glyph-name="quoteright" unicode="&#x2019;" horiz-adv-x="467" 
d="M310 1466h237l-39 -229q-34 -201 -109 -282.5t-191 -84.5l23 133q58 16 90.5 56.5t49.5 128.5h-108z" />
    <glyph glyph-name="quotesinglbase" unicode="&#x201a;" horiz-adv-x="467" 
d="M119 277h237l-39 -229q-34 -201 -109 -282t-191 -84l23 133q58 16 91 57t49 128h-109z" />
    <glyph glyph-name="quotereversed" unicode="&#x201b;" horiz-adv-x="467" 
d="M562 1466l-49 -278h-108q-9 -43 -9 -82q0 -91 84 -103l-23 -133q-189 5 -189 214q0 60 16 153l41 229h237z" />
    <glyph glyph-name="quotedblleft" unicode="&#x201c;" horiz-adv-x="840" 
d="M840 870h-237l39 229q34 200 108.5 282t191.5 85l-22 -133q-58 -16 -90.5 -56t-50.5 -129h109zM444 870h-237l39 229q35 200 109 282t191 85l-22 -133q-58 -16 -90 -56t-50 -129h108z" />
    <glyph glyph-name="quotedblright" unicode="&#x201d;" horiz-adv-x="840" 
d="M317 1466h237l-39 -229q-34 -201 -109 -282.5t-191 -84.5l23 133q58 16 90.5 56.5t49.5 128.5h-108zM713 1466h237l-39 -229q-34 -201 -109 -282.5t-191 -84.5l23 133q58 16 90.5 56.5t48.5 128.5h-108z" />
    <glyph glyph-name="quotedblbase" unicode="&#x201e;" horiz-adv-x="840" 
d="M108 277h237l-39 -229q-34 -201 -109 -282t-191 -84l23 133q58 16 91 57t49 128h-109zM504 277h237l-39 -229q-34 -201 -109 -282t-191 -84l23 133q58 16 90.5 57t48.5 128h-108z" />
    <glyph glyph-name="dagger" unicode="&#x2020;" 
d="M666 830l-202 -1180h-222l203 1180h-303l38 223h303l67 393h222l-68 -393h294l-38 -223h-294z" />
    <glyph glyph-name="daggerdbl" unicode="&#x2021;" 
d="M676 880l-114 -665h293l-38 -223h-293l-59 -342h-222l59 342h-304l38 223h304l114 665h-304l38 223h304l59 343h222l-59 -343h293l-38 -223h-293z" />
    <glyph glyph-name="bullet" unicode="&#x2022;" horiz-adv-x="588" 
d="M539 724q0 -127 -73 -211.5t-170 -84.5q-96 0 -169 84.5t-73 211.5t73 211t169 84q97 0 170 -84t73 -211z" />
    <glyph glyph-name="ellipsis" unicode="&#x2026;" horiz-adv-x="1679" 
d="M204 277h232l-48 -277h-232zM748 277h232l-48 -277h-232zM1291 277h233l-48 -277h-232z" />
    <glyph glyph-name="perthousand" unicode="&#x2030;" horiz-adv-x="1679" 
d="M114 1004q0 125 56 279q41 110 102.5 159t136.5 49q89 0 146.5 -71.5t57.5 -204.5q0 -134 -49.5 -261t-116 -179.5t-136.5 -52.5q-86 0 -141.5 70.5t-55.5 211.5zM266 991q0 -56 15 -77.5t41 -21.5q50 0 84 95q47 136 47 248q0 42 -17 64t-41 22q-20 0 -39 -20
q-31 -33 -60.5 -135t-29.5 -175zM319 -58h-162l777 1549h168zM650 229q0 125 56 279q41 110 102.5 159t136.5 49q89 0 146.5 -71.5t57.5 -204.5q0 -135 -49 -261.5t-116 -179t-137 -52.5q-86 0 -141.5 70.5t-55.5 211.5zM802 216q0 -57 15 -78t41 -21q50 0 84 95
q47 136 47 248q0 42 -17 64t-41 22q-20 0 -39 -20q-31 -32 -60.5 -134.5t-29.5 -175.5zM1216 229q0 125 56 279q41 110 102 159t137 49q89 0 146.5 -71.5t57.5 -204.5q0 -134 -49 -261t-116 -179.5t-137 -52.5q-86 0 -141.5 70.5t-55.5 211.5zM1368 216q0 -56 15 -77.5
t41 -21.5q50 0 83 95q48 136 48 247q0 43 -17 65t-41 22q-21 0 -40 -20q-30 -33 -59.5 -135t-29.5 -175z" />
    <glyph glyph-name="minute" unicode="&#x2032;" horiz-adv-x="399" 
d="M254 945l4 273l43 248h251l-43 -248l-85 -273h-170z" />
    <glyph glyph-name="second" unicode="&#x2033;" horiz-adv-x="797" 
d="M249 945l4 273l43 248h251l-43 -248l-85 -273h-170zM619 945l4 273l44 248h250l-43 -248l-85 -273h-170z" />
    <glyph glyph-name="guilsinglleft" unicode="&#x2039;" horiz-adv-x="559" 
d="M99 552l338 425h197l-296 -444l109 -462h-165z" />
    <glyph glyph-name="guilsinglright" unicode="&#x203a;" horiz-adv-x="559" 
d="M535 496l-319 -425h-200l290 447l-104 459h169z" />
    <glyph glyph-name="exclamdbl" unicode="&#x203c;" horiz-adv-x="1118" 
d="M342 373h-129l73 748l59 345h248l-64 -371zM151 277h232l-48 -277h-232zM901 373h-129l73 748l59 345h248l-64 -371zM710 277h232l-48 -277h-232z" />
    <glyph glyph-name="radicalex" unicode="&#x203e;" 
d="M78 1869h1018v-74h-1018v74z" />
    <glyph glyph-name="fraction" unicode="&#x2044;" horiz-adv-x="281" 
d="M-274 -61h-143l1101 1545h142z" />
    <glyph glyph-name="fraction" unicode="&#x2215;" horiz-adv-x="281" 
d="M-274 -61h-143l1101 1545h142z" />
    <glyph glyph-name="nsuperior" unicode="&#x207f;" horiz-adv-x="666" 
d="M284 1469h165l-12 -65q91 80 185 80q80 0 120 -52.5t40 -124.5q0 -37 -17 -131l-69 -372h-174l71 378q14 80 14 94q0 57 -55 57q-34 0 -75 -34t-57.5 -77.5t-35.5 -144.5l-51 -273h-173z" />
    <glyph glyph-name="franc" unicode="&#x20a3;" horiz-adv-x="1032" 
d="M105 231h-116l31 177h116l181 1058h841l-42 -245h-594l-60 -352h581l-41 -245h-582l-37 -216h254l-30 -177h-255l-39 -231h-248z" />
    <glyph glyph-name="afii08941" unicode="&#x20a4;" 
d="M483 929h230l-32 -186h-183q3 -66 3 -107h161l-32 -186h-160q-36 -110 -144 -226q59 30 121 30q32 0 81 -11q71 -16 112 -16q91 0 187 53l70 -244q-115 -61 -219 -61q-81 0 -183 33q-121 41 -191 41q-112 0 -241 -86l-25 259q135 70 213 228h-174l32 186h186q0 17 -7 107
h-160l33 186h105q-3 32 -3 76q0 206 114.5 346t295.5 140q162 0 255 -113.5t101 -282.5l-211 -25q-23 199 -153 199q-83 0 -134 -80t-51 -190q0 -34 3 -70z" />
    <glyph glyph-name="peseta" unicode="&#x20a7;" horiz-adv-x="1880" 
d="M295 1466h277q133 0 210.5 -68.5t114 -151.5t36.5 -179h84l40 252h217l-40 -252h210q62 28 131 28q145 0 223.5 -98.5t80.5 -244.5h-214q0 64 -25 105.5t-70 41.5q-38 0 -63 -28.5t-25 -69.5q0 -43 28 -73t95 -65q217 -115 217 -326q0 -150 -98.5 -256.5t-251.5 -106.5
q-150 0 -230 123l-18 -114q-58 -9 -107 -9q-95 0 -161 57t-66 173q0 41 14 135l84 534h-71q-39 -149 -150 -252.5t-338 -103.5h-39l-80 -517h-241zM429 764h35q114 0 176.5 79t62.5 189q0 89 -44.5 139.5t-123.5 50.5q-11 0 -36 -2zM1205 873l-75 -487q-12 -74 -12 -118
q0 -49 19.5 -65.5t67.5 -18.5q-11 61 -11 100q0 19 3 55h211q-1 -17 -1 -26q0 -54 26 -95t70 -41q47 0 77.5 39t30.5 82q0 48 -33 84.5t-118 92.5q-90 59 -119.5 95t-47 87.5t-17.5 115.5q0 43 12 100h-83z" />
    <glyph glyph-name="Euro" unicode="&#x20ac;" 
d="M1073 1399l-90 -273q-37 55 -80 80t-115 25q-214 0 -323 -277h407l-24 -153h-422q-11 -61 -18 -131h419l-22 -156h-402q14 -136 81 -211.5t167 -75.5q140 0 248 101l-55 -305q-108 -48 -219 -48q-191 0 -316 130t-149 409h-115l27 156h92q3 78 10 131h-129l27 153h131
q69 251 229.5 394t364.5 143q156 0 276 -92z" />
    <glyph glyph-name="afii61248" unicode="&#x2105;" horiz-adv-x="1666" 
d="M511 1021l169 -37q-77 -272 -282 -272q-121 0 -183.5 89.5t-62.5 226.5q0 205 93 334t239 129q102 0 165 -69t70 -187l-168 -23q-10 121 -77 121q-60 0 -104.5 -95t-44.5 -230q0 -65 22.5 -96.5t48.5 -31.5q74 0 115 141zM419 -61h-143l1101 1545h142zM1027 311
q0 190 85 320.5t247 130.5q127 0 199 -91t72 -249q0 -177 -89.5 -308t-242.5 -131q-125 0 -198 90.5t-73 237.5zM1456 452q0 60 -25.5 104.5t-74.5 44.5q-67 0 -110.5 -88.5t-43.5 -196.5q0 -70 27.5 -118.5t75.5 -48.5q65 0 108 95t43 208z" />
    <glyph glyph-name="afii61289" unicode="&#x2113;" horiz-adv-x="1090" 
d="M133 409l-10 248q91 31 176 64q76 444 212 607t317 163q137 0 222.5 -90t85.5 -209q0 -365 -583 -623q-47 -198 -47 -283q0 -97 89 -97q123 0 329 122l-57 -258q-141 -78 -286 -78q-172 0 -261 97.5t-89 230.5q0 44 15 143zM618 868q280 159 280 321q0 32 -17.5 56.5
t-46.5 24.5q-53 0 -99.5 -57.5t-94.5 -258.5z" />
    <glyph glyph-name="afii61352" unicode="&#x2116;" horiz-adv-x="1925" 
d="M31 0l256 1466h227l311 -974l170 974h230l-254 -1466h-232l-309 969l-172 -969h-227zM1534 383q-130 0 -214.5 96.5t-84.5 257.5q0 206 99.5 335.5t271.5 129.5q138 0 216.5 -95.5t78.5 -260.5q0 -198 -106.5 -330.5t-260.5 -132.5zM1599 1018q-67 0 -107 -87t-40 -222
q0 -140 84 -140q66 0 106.5 93t40.5 237q0 119 -84 119zM1135 66l39 215h585l-37 -215h-587z" />
    <glyph glyph-name="trademark" unicode="&#x2122;" horiz-adv-x="1679" 
d="M385 647v677h-208v142h545v-142h-201v-677h-136zM803 647v819h213l122 -564l123 564h212v-819h-129v653l-145 -653h-124l-143 653v-653h-129z" />
    <glyph glyph-name="Ohm" unicode="&#x2126;" horiz-adv-x="1573" 
d="M462 206q-116 49 -185 112q-101 90 -150.5 216t-49.5 277q0 310 191.5 501t508.5 191q233 0 389.5 -79t250 -244.5t93.5 -366.5q0 -202 -93.5 -360.5t-288.5 -244.5l330 23h72v-231h-642v243q97 47 153 105q76 80 114.5 194.5t38.5 241.5q0 247 -114.5 373.5
t-292.5 126.5q-170 0 -284.5 -129.5t-114.5 -365.5q0 -136 43.5 -253t124.5 -198q52 -52 144 -95v-243h-645v230h98z" />
    <glyph glyph-name="estimated" unicode="&#x212e;" horiz-adv-x="1229" 
d="M321 531v-371q120 -121 298 -121q254 0 395 246l72 -43q-117 -168 -231 -222t-236 -54q-232 0 -380.5 158.5t-148.5 406.5q0 249 148.5 407t380.5 158q214 0 366 -142.5t163 -422.5h-827zM917 605v297q-123 121 -300 121q-175 0 -296 -122v-296h596z" />
    <glyph glyph-name="oneeighth" unicode="&#x215b;" horiz-adv-x="1401" 
d="M192 1141l32 155q103 48 156 84q77 52 127 106h100l-155 -759h-160l101 492q-97 -56 -201 -78zM286 -61h-143l1101 1545h142zM1305 358q62 -70 62 -153q0 -104 -73 -182t-190 -78q-107 0 -163 63t-56 152q0 135 125 217q-53 53 -53 125q0 84 63 147.5t168 63.5
q99 0 156 -53.5t57 -137.5q0 -92 -96 -164zM1188 576q-34 0 -59 -25t-25 -59q0 -64 64 -64q33 0 58.5 26t25.5 58q0 64 -64 64zM1143 293q-45 0 -72.5 -39.5t-27.5 -97.5q0 -72 68 -72q50 0 76 44t26 93q0 37 -22 54.5t-48 17.5z" />
    <glyph glyph-name="threeeighths" unicode="&#x215c;" horiz-adv-x="1401" 
d="M128 944l153 18q8 -62 26.5 -82.5t52.5 -20.5q43 0 71.5 28.5t28.5 73.5q0 39 -22.5 61t-59.5 22q-14 0 -37 -5l30 150l25 -2q49 0 74.5 25t25.5 68q0 29 -16.5 45.5t-44.5 16.5q-60 0 -85 -101l-147 30q30 101 75 145q68 68 167 68q95 0 152 -56.5t57 -147.5
q0 -48 -20 -86t-76 -84q37 -43 49.5 -74.5t12.5 -68.5q0 -101 -76.5 -176.5t-184.5 -75.5q-95 0 -155.5 56.5t-75.5 172.5zM290 -61h-143l1101 1545h142zM1305 358q62 -70 62 -153q0 -104 -73 -182t-190 -78q-107 0 -163 63t-56 152q0 135 125 217q-53 53 -53 125
q0 84 63 147.5t168 63.5q99 0 156 -53.5t57 -137.5q0 -92 -96 -164zM1188 576q-34 0 -59 -25t-25 -59q0 -64 64 -64q33 0 58.5 26t25.5 58q0 64 -64 64zM1143 293q-45 0 -72.5 -39.5t-27.5 -97.5q0 -72 68 -72q50 0 76 44t26 93q0 37 -22 54.5t-48 17.5z" />
    <glyph glyph-name="fiveeighths" unicode="&#x215d;" horiz-adv-x="1401" 
d="M133 963l156 14v-29q0 -88 67 -88q51 0 86 46.5t35 119.5q0 90 -74 90q-51 0 -98 -53l-131 10l115 397h377l-31 -157h-238l-16 -74q27 8 59 8q87 0 141 -59.5t54 -159.5q0 -127 -82.5 -220t-200.5 -93q-106 0 -162.5 70.5t-56.5 177.5zM286 -61h-143l1101 1545h142z
M1305 358q62 -70 62 -153q0 -104 -73 -182t-190 -78q-107 0 -163 63t-56 152q0 135 125 217q-53 53 -53 125q0 84 63 147.5t168 63.5q99 0 156 -53.5t57 -137.5q0 -92 -96 -164zM1188 576q-34 0 -59 -25t-25 -59q0 -64 64 -64q33 0 58.5 26t25.5 58q0 64 -64 64zM1143 293
q-45 0 -72.5 -39.5t-27.5 -97.5q0 -72 68 -72q50 0 76 44t26 93q0 37 -22 54.5t-48 17.5z" />
    <glyph glyph-name="seveneighths" unicode="&#x215e;" horiz-adv-x="1401" 
d="M178 1313l33 157h487l-24 -122q-101 -82 -195.5 -265.5t-128.5 -355.5h-153q58 312 270 586h-289zM234 -61h-143l1101 1545h142zM1301 358q62 -70 62 -153q0 -104 -73 -182t-190 -78q-107 0 -163 63t-56 152q0 135 125 217q-53 53 -53 125q0 84 63 147.5t168 63.5
q99 0 156 -53.5t57 -137.5q0 -92 -96 -164zM1184 576q-34 0 -59 -25t-25 -59q0 -64 64 -64q33 0 58.5 26t25.5 58q0 64 -64 64zM1139 293q-45 0 -72.5 -39.5t-27.5 -97.5q0 -72 68 -72q50 0 76 44t26 93q0 37 -22 54.5t-48 17.5z" />
    <glyph glyph-name="arrowleft" unicode="&#x2190;" horiz-adv-x="2048" 
d="M492 876h76q-59 -118 -88.5 -165.5t-106.5 -143.5h1595v-101h-1595q104 -108 198 -309h-78q-129 144 -222 218.5t-192 122.5v45q87 37 184 113t229 220z" />
    <glyph glyph-name="arrowup" unicode="&#x2191;" horiz-adv-x="1024" 
d="M153 926q145 133 220.5 230t112.5 183h46q47 -99 121.5 -192t218.5 -222v-77q-201 94 -309 197v-1474h-101v1474q-96 -76 -143.5 -106t-165.5 -89v76z" />
    <glyph glyph-name="arrowright" unicode="&#x2192;" horiz-adv-x="2048" 
d="M1555 876q133 -145 230 -220.5t183 -112.5v-45q-99 -48 -192 -122.5t-222 -218.5h-77q94 201 197 309h-1595v101h1595q-76 97 -106 144t-89 165h76z" />
    <glyph glyph-name="arrowdown" unicode="&#x2193;" horiz-adv-x="1024" 
d="M153 -16v76q119 -59 166 -89t143 -106v1474h101v-1474q108 103 309 197v-77q-144 -129 -218.5 -222t-121.5 -192h-46q-37 86 -112.5 183t-220.5 230z" />
    <glyph glyph-name="arrowboth" unicode="&#x2194;" horiz-adv-x="2048" 
d="M1968 540v-45q-94 -43 -185 -116t-221 -221h-80q69 172 194 311h-1305q125 -139 194 -311h-80q-130 148 -221 221t-185 116v45q94 44 185 116.5t221 221.5h80q-69 -172 -194 -311h1305q-125 139 -194 311h80q130 -149 221 -221.5t185 -116.5z" />
    <glyph glyph-name="arrowupdn" unicode="&#x2195;" horiz-adv-x="1024" 
d="M489 1463h45q44 -94 116.5 -185.5t220.5 -221.5v-80q-171 69 -311 195v-1306q140 126 311 194v-79q-148 -130 -220.5 -221.5t-116.5 -185.5h-45q-43 94 -116 185.5t-221 221.5v79q171 -68 311 -194v1306q-140 -126 -311 -195v80q148 130 221 221.5t116 185.5z" />
    <glyph glyph-name="arrowupdnbse" unicode="&#x21a8;" horiz-adv-x="1024" 
d="M489 1463h45q44 -94 116.5 -185.5t220.5 -221.5v-80q-171 69 -311 195v-1306q140 126 311 194v-79q-148 -130 -220.5 -221.5t-116.5 -185.5h-45q-43 94 -116 185.5t-221 221.5v79q171 -68 311 -194v1306q-140 -126 -311 -195v80q148 130 221 221.5t116 185.5zM154 -522
h717v-98h-717v98z" />
    <glyph glyph-name="partialdiff" unicode="&#x2202;" horiz-adv-x="1012" 
d="M379 1123l-137 84q52 142 150.5 213t219.5 71q145 0 234 -100q131 -145 131 -448q0 -261 -83 -506t-230 -353.5t-309 -108.5q-138 0 -224.5 92t-86.5 262q0 158 87 303t266 230t429 80q-1 200 -74 296q-54 71 -145 71q-69 0 -120.5 -39.5t-107.5 -146.5zM814 758
q-29 1 -44 1q-137 0 -255.5 -55.5t-180 -158.5t-61.5 -207q0 -78 42 -125.5t99 -47.5q119 0 217 115q141 165 183 478z" />
    <glyph glyph-name="increment" unicode="&#x2206;" horiz-adv-x="1253" 
d="M1226 0h-1200l628 1387zM990 82l-399 967l-440 -967h839z" />
    <glyph glyph-name="product" unicode="&#x220f;" horiz-adv-x="1686" 
d="M161 1491h1362v-1922h-191v1748h-978v-1748h-193v1922z" />
    <glyph glyph-name="summation" unicode="&#x2211;" horiz-adv-x="1460" 
d="M139 1491h1237v-164h-988l607 -775l-649 -822h1040v-161h-1264v187l620 788l-603 772v175z" />
    <glyph glyph-name="minus" unicode="&#x2212;" horiz-adv-x="981" 
d="M69 592v263h841v-263h-841z" />
    <glyph glyph-name="periodcentered" unicode="&#x2219;" horiz-adv-x="467" 
d="M208 832h232l-48 -277h-232z" />
    <glyph glyph-name="radical" unicode="&#x221a;" horiz-adv-x="1124" 
d="M1050 1869h74l-312 -1947l-496 1021l-198 -91l-34 64l301 151l405 -823z" />
    <glyph glyph-name="infinity" unicode="&#x221e;" horiz-adv-x="1460" 
d="M681 843q74 121 151 174.5t172 53.5q132 0 219.5 -93.5t87.5 -255.5t-87.5 -255.5t-219.5 -93.5q-94 0 -171 53t-152 175q-60 -84 -138 -128t-149 -44q-101 0 -171.5 78.5t-70.5 214.5t70.5 214t171.5 78q71 0 149 -44t138 -127zM774 724q84 -129 118 -158
q53 -45 115 -45q76 0 117 59t41 146q0 94 -45 146t-110 52q-51 0 -102.5 -36t-133.5 -164zM595 726q-100 141 -190 141q-46 0 -79.5 -37t-33.5 -103q0 -68 33 -106t80 -38q39 0 70 21q54 36 120 122z" />
    <glyph glyph-name="orthogonal" unicode="&#x221f;" horiz-adv-x="2005" 
d="M362 1279h100v-1179h1181v-100h-1281v1279z" />
    <glyph glyph-name="intersection" unicode="&#x2229;" horiz-adv-x="1479" 
d="M302 0h-110v560q0 248 6 314q12 119 44 195t102 149.5t173.5 119.5t219.5 46q112 0 214 -44t177 -119.5t107 -160.5t42 -212q4 -50 4 -288v-560h-109v566q0 218 -6 281q-11 111 -36.5 176.5t-80 123t-139 94.5t-174.5 37q-74 0 -143.5 -25.5t-119 -63t-80 -77
t-44.5 -74.5q-25 -60 -36 -146.5t-11 -325.5v-566z" />
    <glyph glyph-name="integral" unicode="&#x222b;" horiz-adv-x="561" 
d="M197 895l18 581q8 154 50 255q27 67 74 99.5t93 32.5q50 0 87.5 -33.5t37.5 -73.5q0 -47 -26.5 -75.5t-65.5 -28.5q-35 0 -76 36q-23 20 -40 20t-28.5 -14.5t-11.5 -49.5q0 -41 9 -145q37 -411 37 -663l-16 -590q-8 -295 -90 -399q-54 -67 -134 -67q-52 0 -85 34t-33 87
q0 45 25.5 72t64.5 27q40 0 69 -32t49 -32q17 0 28 14t11 47q0 42 -9 120q-17 143 -26 338q-12 249 -12 440z" />
    <glyph glyph-name="approxequal" unicode="&#x2248;" horiz-adv-x="1124" 
d="M31 761v258q127 138 296 138q63 0 116 -12.5t166 -58.5q113 -45 149 -55t62 -10q56 0 129.5 34.5t143.5 110.5v-270q-46 -48 -128.5 -90.5t-170.5 -42.5q-50 0 -97.5 12t-150.5 57q-154 67 -242 67q-140 0 -273 -138zM31 276v259q127 137 296 137q63 0 116 -12.5
t166 -57.5t149 -55t62 -10q56 0 129.5 34.5t143.5 109.5v-270q-46 -48 -128.5 -90.5t-170.5 -42.5q-50 0 -97.5 12.5t-150.5 57.5q-154 67 -242 67q-140 0 -273 -139z" />
    <glyph glyph-name="notequal" unicode="&#x2260;" horiz-adv-x="1124" 
d="M422 631l68 185h-441v258h537l148 398h211l-148 -398h277v-258h-374l-69 -185h443v-259h-540l-149 -397h-207l148 397h-277v259h373z" />
    <glyph glyph-name="equivalence" unicode="&#x2261;" horiz-adv-x="981" 
d="M69 1037v259h841v-259h-841zM69 594v259h841v-259h-841zM69 150v259h841v-259h-841z" />
    <glyph glyph-name="lessequal" unicode="&#x2264;" horiz-adv-x="1124" 
d="M1065 336l-1005 437v242l1005 435v-285l-701 -268l701 -279v-282zM60 0v263h1005v-263h-1005z" />
    <glyph glyph-name="greaterequal" unicode="&#x2265;" horiz-adv-x="1124" 
d="M60 338v282l702 277l-702 272v281l1005 -434v-241zM60 0v263h1005v-263h-1005z" />
    <glyph glyph-name="house" unicode="&#x2302;" horiz-adv-x="1229" 
d="M153 0v634l461 519l462 -519v-634h-923zM234 81h761v519l-381 427l-380 -427v-519z" />
    <glyph glyph-name="revlogicalnot" unicode="&#x2310;" horiz-adv-x="981" 
d="M282 376v441h630v257h-841v-698h211z" />
    <glyph glyph-name="integraltp" unicode="&#x2320;" horiz-adv-x="1237" 
d="M691 -515h-145v1811q0 219 89.5 330t202.5 111q67 0 102.5 -32.5t35.5 -76.5q0 -40 -25.5 -66t-62.5 -26q-30 0 -57 15q-18 10 -41.5 46.5t-46.5 36.5q-17 0 -31 -12q-10 -8 -14 -27q-7 -33 -7 -139v-1971z" />
    <glyph glyph-name="integralbt" unicode="&#x2321;" horiz-adv-x="1237" 
d="M546 1737h145v-1811q0 -219 -89.5 -330t-202.5 -111q-67 0 -102.5 32.5t-35.5 76.5q0 40 25.5 66t61.5 26q31 0 59 -16q18 -10 41 -46t46 -36q17 0 31 11q10 8 14 29q7 32 7 138v1971z" />
    <glyph glyph-name="SF100000" unicode="&#x2500;" horiz-adv-x="1451" 
d="M1473 534h-1496v175h1496v-175z" />
    <glyph glyph-name="SF110000" unicode="&#x2502;" horiz-adv-x="1261" 
d="M448 -621v2485h175v-2485h-175z" />
    <glyph glyph-name="SF010000" unicode="&#x250c;" horiz-adv-x="1451" 
d="M1474 709v-175h-661v-1155h-175v1330h836z" />
    <glyph glyph-name="SF030000" unicode="&#x2510;" horiz-adv-x="1451" 
d="M637 534h-660v175h835v-1330h-175v1155z" />
    <glyph glyph-name="SF020000" unicode="&#x2514;" horiz-adv-x="1451" 
d="M638 534v1330h175v-1155h661v-175h-836z" />
    <glyph glyph-name="SF040000" unicode="&#x2518;" horiz-adv-x="1451" 
d="M812 534h-835v175h660v1155h175v-1330z" />
    <glyph glyph-name="SF080000" unicode="&#x251c;" horiz-adv-x="1451" 
d="M638 -621v2485h175v-1155h661v-175h-661v-1155h-175z" />
    <glyph glyph-name="SF090000" unicode="&#x2524;" horiz-adv-x="1451" 
d="M637 -621v1155h-660v175h660v1155h175v-2485h-175z" />
    <glyph glyph-name="SF060000" unicode="&#x252c;" horiz-adv-x="1451" 
d="M637 534h-660v175h1496v-175h-661v-1155h-175v1155z" />
    <glyph glyph-name="SF070000" unicode="&#x2534;" horiz-adv-x="1451" 
d="M1473 534h-1496v175h660v1155h175v-1155h661v-175z" />
    <glyph glyph-name="SF050000" unicode="&#x253c;" horiz-adv-x="1451" 
d="M637 534h-660v175h660v1155h175v-1155h661v-175h-661v-1155h-175v1155z" />
    <glyph glyph-name="SF430000" unicode="&#x2550;" horiz-adv-x="1451" 
d="M1496 724h-1496v175h1496v-175zM1496 344h-1496v175h1496v-175z" />
    <glyph glyph-name="SF240000" unicode="&#x2551;" horiz-adv-x="1451" 
d="M380 -621v2485h175v-2485h-175zM0 -621v2485h175v-2485h-175z" />
    <glyph glyph-name="SF510000" unicode="&#x2552;" horiz-adv-x="1451" 
d="M0 -621v1520h836v-175h-661v-205h661v-175h-661v-965h-175z" />
    <glyph glyph-name="SF520000" unicode="&#x2553;" horiz-adv-x="1451" 
d="M0 -621v1330h1026v-175h-471v-1155h-175v1140h-205v-1140h-175z" />
    <glyph glyph-name="SF390000" unicode="&#x2554;" horiz-adv-x="1451" 
d="M175 -621h-175v1520h1025v-175h-850v-1345zM555 344v-965h-175v1140h645v-175h-470z" />
    <glyph glyph-name="SF220000" unicode="&#x2555;" horiz-adv-x="1451" 
d="M660 344h-660v175h660v205h-660v175h835v-1520h-175v965z" />
    <glyph glyph-name="SF210000" unicode="&#x2556;" horiz-adv-x="1451" 
d="M470 -621l1 1155h-471v175h1025v-1330h-175v1155h-205v-1155h-175z" />
    <glyph glyph-name="SF250000" unicode="&#x2557;" horiz-adv-x="1451" 
d="M850 -621v1345h-850v175h1025v-1520h-175zM470 344h-470v175h645v-1140h-175v965z" />
    <glyph glyph-name="SF500000" unicode="&#x2558;" horiz-adv-x="1451" 
d="M0 344v1520h175v-965h661v-175h-661v-205h661v-175h-836z" />
    <glyph glyph-name="SF490000" unicode="&#x2559;" horiz-adv-x="1451" 
d="M1026 534h-1026v1330h175v-1155h205v1155h175v-1155h471v-175z" />
    <glyph glyph-name="SF380000" unicode="&#x255a;" horiz-adv-x="1451" 
d="M175 1864v-1345h850v-175h-1025v1520h175zM555 899h470v-175h-645v1140h175v-965z" />
    <glyph glyph-name="SF280000" unicode="&#x255b;" horiz-adv-x="1451" 
d="M835 344h-835v175h660v205h-660v175h660v965h175v-1520z" />
    <glyph glyph-name="SF270000" unicode="&#x255c;" horiz-adv-x="1451" 
d="M1025 534h-1025v175h470v1155h175v-1155h205v1155h175v-1330z" />
    <glyph glyph-name="SF260000" unicode="&#x255d;" horiz-adv-x="1451" 
d="M850 1864h175v-1520h-1025v175h850v1345zM470 899v965h175v-1140h-645v175h470z" />
    <glyph glyph-name="SF360000" unicode="&#x255e;" horiz-adv-x="1451" 
d="M0 -621v2485h175v-965h661v-175h-661v-205h661v-175h-661v-965h-175z" />
    <glyph glyph-name="SF370000" unicode="&#x255f;" horiz-adv-x="1451" 
d="M380 -621v2485h175v-1155h471v-175h-471v-1155h-175zM0 -621v2485h175v-2485h-175z" />
    <glyph glyph-name="SF420000" unicode="&#x2560;" horiz-adv-x="1451" 
d="M0 -621v2485h175v-2485h-175zM380 724v1140h175v-965h471v-175h-646zM380 -621v1140h646v-175h-471v-965h-175z" />
    <glyph glyph-name="SF190000" unicode="&#x2561;" horiz-adv-x="1451" 
d="M660 344h-660v175h661l-1 205h-660v175h660v965h175v-2485h-175v965z" />
    <glyph glyph-name="SF200000" unicode="&#x2562;" horiz-adv-x="1451" 
d="M470 -621l1 1155h-471v175h470v1155h175v-2485h-175zM850 -621v2485h175v-2485h-175z" />
    <glyph glyph-name="SF230000" unicode="&#x2563;" horiz-adv-x="1451" 
d="M850 -621v2485h175v-2485h-175zM645 1864v-1140h-645v175h470v965h175zM470 344h-470v175h645v-1140h-175v965z" />
    <glyph glyph-name="SF470000" unicode="&#x2564;" horiz-adv-x="1451" 
d="M1496 724h-1496v175h1496v-175zM660 344h-660v175h1496v-175h-661v-965h-175v965z" />
    <glyph glyph-name="SF480000" unicode="&#x2565;" horiz-adv-x="1451" 
d="M470 -621l1 1155h-471v175h1496v-175h-471v-1155h-175v1140h-205v-1140h-175z" />
    <glyph glyph-name="SF410000" unicode="&#x2566;" horiz-adv-x="1451" 
d="M1496 724h-1496v175h1496v-175zM470 344h-470v175h645v-1140h-175v965zM850 -621v1140h646v-175h-471v-965h-175z" />
    <glyph glyph-name="SF450000" unicode="&#x2567;" horiz-adv-x="1451" 
d="M1496 724h-1496v175h660v965h175v-965h661v-175zM1496 344h-1496v175h1496v-175z" />
    <glyph glyph-name="SF460000" unicode="&#x2568;" horiz-adv-x="1451" 
d="M1496 534h-1496v175h470v1155h175v-1155h205v1155h175v-1155h471v-175z" />
    <glyph glyph-name="SF400000" unicode="&#x2569;" horiz-adv-x="1451" 
d="M645 724h-645v175h470v965h175v-1140zM1496 724h-646v1140h175v-965h471v-175zM1496 344h-1496v175h1496v-175z" />
    <glyph glyph-name="SF540000" unicode="&#x256a;" horiz-adv-x="1451" 
d="M660 344h-660v175h660v205h-660v175h660v965h175v-965h661v-175h-661v-205h661v-175h-661v-965h-175v965z" />
    <glyph glyph-name="SF530000" unicode="&#x256b;" horiz-adv-x="1451" 
d="M470 -621l1 1155h-471v175h470v1155h175v-1155h205v1155h175v-1155h471v-175h-471v-1155h-175v1155h-205v-1155h-175z" />
    <glyph glyph-name="SF440000" unicode="&#x256c;" horiz-adv-x="1451" 
d="M1026 899h470v-175h-645v1140h175v-965zM470 899v965h175v-1140h-645v175h470zM470 344h-470v175h645v-1140h-175v965zM1026 344v-965h-175v1140h645v-175h-470z" />
    <glyph glyph-name="upblock" unicode="&#x2580;" horiz-adv-x="1451" 
d="M1496 621h-1496v1243h1496v-1243z" />
    <glyph glyph-name="dnblock" unicode="&#x2584;" horiz-adv-x="1451" 
d="M1496 -621h-1496v1242h1496v-1242z" />
    <glyph glyph-name="block" unicode="&#x2588;" horiz-adv-x="1451" 
d="M0 -621v2485h1496v-2485h-1496z" />
    <glyph glyph-name="lfblock" unicode="&#x258c;" horiz-adv-x="1451" 
d="M0 -621v2485h748v-2485h-748z" />
    <glyph glyph-name="rtblock" unicode="&#x2590;" horiz-adv-x="1451" 
d="M0 -621v2485h748v-2485h-748z" />
    <glyph glyph-name="ltshade" unicode="&#x2591;" horiz-adv-x="1451" 
d="M102 1864h125v-125h-125v125zM600 1864h125v-125h-125v125zM1099 1864h125v-125h-125v125zM351 1615h125v-125h-125v125zM850 1615h124v-125h-124v125zM1348 1615h125v-125h-125v125zM1099 1366h125v-125h-125v125zM600 1366h125v-125h-125v125zM102 1366h125v-125h-125
v125zM1348 1116h125v-124h-125v124zM850 1116h124v-124h-124v124zM351 1116h125v-124h-125v124zM102 867h125v-125h-125v125zM600 867h125v-125h-125v125zM1099 867h125v-125h-125v125zM1348 618h125v-125h-125v125zM850 618h124v-125h-124v125zM351 618h125v-125h-125v125z
M102 369h125v-125h-125v125zM600 369h125v-125h-125v125zM1099 369h125v-125h-125v125zM351 119h125v-124h-125v124zM850 119h124v-124h-124v124zM1348 119h125v-124h-125v124zM1099 -130h125v-125h-125v125zM600 -130h125v-125h-125v125zM102 -130h125v-125h-125v125z
M351 -379h125v-125h-125v125zM850 -379h124v-125h-124v125zM1348 -379h125v-125h-125v125z" />
    <glyph glyph-name="shade" unicode="&#x2592;" horiz-adv-x="1451" 
d="M103 1864h124v-125h-124v125zM352 1864h124v-125h-124v125zM601 1864h125v-125h-125v125zM850 1864h125v-125h-125v125zM1100 1864h124v-125h-124v125zM1349 1864h124v-125h-124v125zM-22 1615h125v-125h-125v125zM227 1615h125v-125h-125v125zM476 1615h125v-125h-125
v125zM726 1615h124v-125h-124v125zM975 1615h125v-125h-125v125zM1224 1615h125v-125h-125v125zM103 1366h124v-125h-124v125zM352 1366h124v-125h-124v125zM601 1366h125v-125h-125v125zM850 1366h125v-125h-125v125zM1100 1366h124v-125h-124v125zM1349 1366h124v-125
h-124v125zM227 1116h125v-124h-125v124zM476 1116h125v-124h-125v124zM726 1116h124v-124h-124v124zM975 1116h125v-124h-125v124zM1224 1116h125v-124h-125v124zM-22 1116h125v-124h-125v124zM103 867h124v-125h-124v125zM352 867h124v-125h-124v125zM601 867h125v-125
h-125v125zM850 867h125v-125h-125v125zM1100 867h124v-125h-124v125zM1349 867h124v-125h-124v125zM-22 618h125v-125h-125v125zM476 618h125v-125h-125v125zM726 618h124v-125h-124v125zM975 618h125v-125h-125v125zM1224 618h125v-125h-125v125zM227 618h125v-125h-125
v125zM1349 369h124v-125h-124v125zM1100 369h124v-125h-124v125zM850 369h125v-125h-125v125zM601 369h125v-125h-125v125zM352 369h124v-125h-124v125zM103 369h124v-125h-124v125zM-22 119h125v-124h-125v124zM227 119h125v-124h-125v124zM476 119h125v-124h-125v124z
M726 119h124v-124h-124v124zM975 119h125v-124h-125v124zM1224 119h125v-124h-125v124zM1349 -130h124v-125h-124v125zM1100 -130h124v-125h-124v125zM850 -130h125v-125h-125v125zM601 -130h125v-125h-125v125zM352 -130h124v-125h-124v125zM103 -130h124v-125h-124v125z
M-22 -379h125v-125h-125v125zM227 -379h125v-125h-125v125zM476 -379h125v-125h-125v125zM726 -379h124v-125h-124v125zM975 -379h125v-125h-125v125zM1224 -379h125v-125h-125v125z" />
    <glyph glyph-name="dkshade" unicode="&#x2593;" horiz-adv-x="1493" 
d="M1494 1490v-374h-124v-124h124v-374h-124v-125h124v-374h-124v-124h124v-374h-124v-125h124v-124h-1495v373h125v125h-125v374h125v125h-125v373h125v125h-125v374h125v125h-125v373h125v125h124v-125h125v125h124v-125h125v125h125v-125h124v125h125v-125h125v125h124
v-125h125v125h124v-249h-124v-125h124zM124 1615v-125h124v125h-124zM373 1615v-125h124v125h-124zM622 1615v-125h125v125h-125zM871 1615v-125h125v125h-125zM1121 1615v-125h124v125h-124zM1370 1366h-125v-125h125v125zM1121 1366h-125v-125h125v125zM871 1366h-124
v-125h124v125zM622 1366h-125v-125h125v125zM373 1366h-125v-125h125v125zM124 1116v-124h124v124h-124zM373 1116v-124h124v124h-124zM622 1116v-124h125v124h-125zM871 1116v-124h125v124h-125zM1121 1116v-124h124v124h-124zM373 867h-125v-125h125v125zM497 867v-125
h125v125h-125zM747 867v-125h124v125h-124zM996 867v-125h125v125h-125zM1245 867v-125h125v125h-125zM124 618v-125h124v125h-124zM622 618v-125h125v125h-125zM497 493v125h-124v-125h124zM871 618v-125h125v125h-125zM1121 618v-125h124v125h-124zM1370 244v125h-125
v-125h125zM1121 244v125h-125v-125h125zM871 244v125h-124v-125h124zM622 244v125h-125v-125h125zM373 244v125h-125v-125h125zM124 119v-124h124v124h-124zM373 119v-124h124v124h-124zM622 119v-124h125v124h-125zM871 119v-124h125v124h-125zM1121 119v-124h124v124h-124
zM1370 -255v125h-125v-125h125zM1121 -255v125h-125v-125h125zM871 -255v125h-124v-125h124zM622 -255v125h-125v-125h125zM373 -255v125h-125v-125h125zM124 -379v-125h124v125h-124zM373 -379v-125h124v125h-124zM622 -379v-125h125v125h-125zM871 -379v-125h125v125h-125
zM1121 -379v-125h124v125h-124z" />
    <glyph glyph-name="filledbox" unicode="&#x25a0;" horiz-adv-x="1237" 
d="M0 944h944v-944h-944v944z" />
    <glyph glyph-name="H22073" unicode="&#x25a1;" horiz-adv-x="1237" 
d="M146 944h944v-944h-944v944zM222 868v-792h792v792h-792z" />
    <glyph glyph-name="H18543" unicode="&#x25aa;" horiz-adv-x="726" 
d="M594 909v-464h-463v463z" />
    <glyph glyph-name="H18551" unicode="&#x25ab;" horiz-adv-x="726" 
d="M594 909v-464h-463v463zM518 833l-311 -1v-311h311v312z" />
    <glyph glyph-name="filledrect" unicode="&#x25ac;" horiz-adv-x="2048" 
d="M0 703h2047v-386h-2047v386z" />
    <glyph glyph-name="triagup" unicode="&#x25b2;" horiz-adv-x="2027" 
d="M0 0l710 1419l710 -1419h-1420z" />
    <glyph glyph-name="triagrt" unicode="&#x25ba;" horiz-adv-x="2027" 
d="M0 1417l1451 -724l-1451 -724v1448z" />
    <glyph glyph-name="triagdn" unicode="&#x25bc;" horiz-adv-x="2027" 
d="M1420 1388l-710 -1419l-710 1419h1420z" />
    <glyph glyph-name="triaglf" unicode="&#x25c4;" horiz-adv-x="2027" 
d="M1739 1417v-1448l-1451 724z" />
    <glyph glyph-name="lozenge" unicode="&#x25ca;" horiz-adv-x="1012" 
d="M549 1422l418 -713l-418 -709h-111l-391 709l391 713h111zM495 1325l-340 -616l340 -615l359 615z" />
    <glyph glyph-name="circle" unicode="&#x25cb;" horiz-adv-x="1237" 
d="M441 1018q110 0 216 -57t165 -163t59 -220q0 -183 -129 -312t-311 -129q-183 0 -312 129t-129 312q0 115 59 220.5t165 162.5t217 57zM441 942q-93 0 -180 -47t-136 -135t-49 -182q0 -151 107 -258t258 -107t257.5 107t106.5 258q0 94 -49 182t-136 135t-179 47z" />
    <glyph glyph-name="H18533" unicode="&#x25cf;" horiz-adv-x="1237" 
d="M619 1018q110 0 216 -57t165 -163t59 -220q0 -183 -129 -312t-311 -129q-183 0 -312 129t-129 312q0 115 59 220.5t165 162.5t217 57z" />
    <glyph glyph-name="invbullet" unicode="&#x25d8;" horiz-adv-x="1237" 
d="M0 0v980h980v-980h-980zM490 692q-84 0 -143 -59t-59 -143q0 -83 59.5 -142.5t142.5 -59.5q84 0 143 59.5t59 142.5q0 84 -59 143t-143 59z" />
    <glyph glyph-name="invcircle" unicode="&#x25d9;" horiz-adv-x="1237" 
d="M0 0v1155h1155v-1155h-1155zM577 1018q-111 0 -216.5 -57t-164.5 -163t-59 -221q0 -182 129 -311t311 -129q183 0 312 129t129 311q0 115 -59 221t-164.5 163t-217.5 57zM578 942q91 0 178.5 -47t136.5 -134.5t49 -183.5q0 -151 -106.5 -257.5t-257.5 -106.5
q-152 0 -258.5 106.5t-106.5 257.5q0 96 49 183.5t136.5 134.5t179.5 47z" />
    <glyph glyph-name="openbullet" unicode="&#x25e6;" horiz-adv-x="726" 
d="M363 928q104 0 177.5 -73.5t73.5 -177.5t-73.5 -177.5t-177.5 -73.5t-177.5 73.5t-73.5 177.5t73 177.5t178 73.5zM363 852q-73 0 -124 -51.5t-51 -123.5q0 -73 51.5 -124t123.5 -51t123.5 51t51.5 124q0 72 -51 123.5t-124 51.5z" />
    <glyph glyph-name="smileface" unicode="&#x263a;" horiz-adv-x="2091" 
d="M1046 1156q160 0 313 -82.5t239 -236t86 -319.5q0 -165 -84.5 -316.5t-236.5 -236t-317 -84.5q-166 0 -317.5 84.5t-236 236t-84.5 316.5q0 166 85.5 319.5t238.5 236t314 82.5zM1046 1063q-137 0 -267.5 -70.5t-204 -201.5t-73.5 -273q0 -141 72 -270.5t202 -201.5
t271 -72t271 72t202 201.5t72 270.5q0 142 -73.5 273t-204 201.5t-267.5 70.5zM801 731q34 0 57.5 -23.5t23.5 -57.5q0 -33 -23.5 -57t-57.5 -24q-33 0 -57 24t-24 57q0 34 24 57.5t57 23.5zM1290 731q34 0 57.5 -23.5t23.5 -57.5q0 -33 -23.5 -57t-57.5 -24q-33 0 -57 24
t-24 57q0 34 23.5 57.5t57.5 23.5zM752 313l62 36q79 -144 232 -144t231 144l63 -36q-50 -95 -123.5 -145t-170.5 -50q-98 0 -171 50t-123 145z" />
    <glyph glyph-name="invsmileface" unicode="&#x263b;" horiz-adv-x="2155" 
d="M1078 1156q160 0 313 -82.5t239 -236t86 -319.5q0 -165 -84.5 -316.5t-236.5 -236t-317 -84.5q-166 0 -317.5 84.5t-236 236t-84.5 316.5q0 166 85.5 319.5t238.5 236t314 82.5zM833 731q-33 0 -57 -23.5t-24 -57.5q0 -33 24 -57t57 -24q34 0 57.5 24t23.5 57
q0 34 -23.5 57.5t-57.5 23.5zM1322 731q-34 0 -57.5 -23.5t-23.5 -57.5q0 -33 24 -57t57 -24q34 0 57.5 24t23.5 57q0 34 -23.5 57.5t-57.5 23.5zM784 313q50 -95 123 -145t171 -50q97 0 170.5 50t123.5 145l-63 36q-78 -144 -231 -144t-232 144z" />
    <glyph glyph-name="sun" unicode="&#x263c;" horiz-adv-x="1877" 
d="M886 1621h76v-337q102 -7 181.5 -38.5t167.5 -102.5l290 284l52 -53l-286 -286q73 -95 103 -169q38 -96 40 -189h336v-69h-335q-19 -189 -143 -347l285 -291l-57 -50l-283 282q-98 -72 -171 -100.5t-180 -40.5v-337h-76v337q-112 15 -188.5 46t-156.5 92l-294 -278
l-51 51l285 286q-66 84 -100 166t-45 188h-336v69h336q9 106 42 185.5t102 163.5l-284 287l48 57l292 -282q101 70 179.5 100.5t170.5 38.5v337zM921 1211q-129 0 -252 -66t-191.5 -189.5t-68.5 -256.5t67.5 -255t189.5 -190t255 -68t255 68t190 190t68 255t-69 256.5
t-192 189.5t-252 66z" />
    <glyph glyph-name="female" unicode="&#x2640;" horiz-adv-x="1536" 
d="M796 461v-402h459v-59h-459v-439h-59v439h-460v59h460v402q-103 0 -225.5 65.5t-195 191t-72.5 265.5q0 136 69.5 261t193.5 194t261 69q136 0 260.5 -69.5t193.5 -194t69 -260.5q0 -209 -143.5 -360.5t-351.5 -161.5zM767 1451q-118 0 -230.5 -60.5t-175.5 -173.5
t-63 -235q0 -195 137.5 -332.5t331.5 -137.5q195 0 332.5 137.5t137.5 332.5q0 122 -63 235t-175.5 173.5t-231.5 60.5z" />
    <glyph glyph-name="male" unicode="&#x2642;" horiz-adv-x="1536" 
d="M1216 1620l36 -16l163 -666l-57 -15l-142 581l-358 -768q148 -75 224 -202t76 -272q0 -136 -69 -260.5t-193.5 -194t-261.5 -69.5q-136 0 -260.5 69.5t-193.5 194t-69 260.5q0 217 153.5 370t372.5 153q78 0 166 -27l360 771l-537 -265l-24 53zM634 731
q-118 0 -230.5 -60.5t-175.5 -173.5t-63 -235q0 -195 137.5 -332.5t331.5 -137.5q195 0 332.5 137.5t137.5 332.5q0 122 -63 235t-175.5 173.5t-231.5 60.5z" />
    <glyph glyph-name="spade" unicode="&#x2660;" horiz-adv-x="1088" 
d="M487 1231q26 -108 80 -193t192.5 -210.5t175.5 -193t37 -136.5q0 -95 -64 -159t-154 -64q-156 0 -255 190q1 -147 38.5 -233.5t119.5 -136t219 -58.5l7 -37h-792l7 37q184 0 285.5 107.5t97.5 320.5q-45 -95 -111.5 -142.5t-149.5 -47.5q-90 0 -155 65t-65 154
q0 74 32 133q45 83 157 174q140 115 217 229q56 83 81 201z" />
    <glyph glyph-name="club" unicode="&#x2663;" horiz-adv-x="1344" 
d="M1098 0h-848l8 34q165 35 219 69q81 51 132.5 151t51.5 210l-1 47q-61 -124 -148.5 -181t-178.5 -57q-116 0 -197 81t-81 199q0 116 74 195.5t168 79.5q60 0 163 -51q-42 69 -54.5 105t-12.5 77q0 115 79 193.5t198 78.5q117 0 197.5 -78.5t80.5 -189.5q0 -88 -69 -186
q84 40 101 45q27 8 61 8q100 0 173.5 -78.5t73.5 -194.5q0 -120 -80.5 -201.5t-193.5 -81.5q-62 0 -128.5 30.5t-116.5 81.5q-35 37 -87 125q4 -159 48.5 -251.5t136.5 -153.5q62 -41 223 -72z" />
    <glyph glyph-name="heart" unicode="&#x2665;" horiz-adv-x="1216" 
d="M547 -24q-31 118 -88.5 221.5t-222.5 321.5q-121 160 -149 203q-46 70 -66.5 128.5t-20.5 118.5q0 111 74 186t184 75q109 0 190 -78q61 -58 99 -173q36 127 113 189.5t170 62.5q109 0 184.5 -74t75.5 -176q0 -91 -43.5 -188t-170.5 -257q-164 -207 -231 -326t-98 -234z
" />
    <glyph glyph-name="diamond" unicode="&#x2666;" horiz-adv-x="1045" 
d="M457 1231q89 -151 229 -337.5t232 -289.5q-74 -78 -242 -302q-136 -182 -218 -326q-43 81 -178 269q-93 129 -280 359q101 115 260 328q118 158 197 299z" />
    <glyph glyph-name="musicalnote" unicode="&#x266a;" horiz-adv-x="1024" 
d="M486 1363h38q172 0 227 -14q79 -20 139 -77q45 -42 71 -118.5t26 -178.5v-103h-99v43q0 68 -28.5 115.5t-84.5 72.5q-73 32 -162 32h-28v-835q0 -121 -32 -188.5t-110 -108t-170 -40.5q-109 0 -172.5 61.5t-63.5 161.5q0 105 76 176.5t199 71.5q78 0 174 -46v975z" />
    <glyph glyph-name="musicalnotedbl" unicode="&#x266b;" horiz-adv-x="1536" 
d="M534 1271l796 248v-1108q0 -124 -31.5 -187t-107 -104t-170.5 -41q-109 0 -174 62.5t-65 161.5q0 100 77 172.5t199 72.5q40 0 70.5 -7t99.5 -36v724l-595 -185v-836q0 -121 -32 -188.5t-110 -107.5t-170 -40q-109 0 -172.5 61.5t-63.5 160.5q0 105 76 176.5t199 71.5
q78 0 174 -46v975z" />
    <glyph glyph-name="fi" unicode="&#xfb01;" horiz-adv-x="1026" 
d="M682 1062l-36 -210h-166l-147 -852h-235l146 852h-131l36 210h131l19 109q25 148 54.5 203.5t84.5 86t132 30.5q109 0 228 -48l-45 -205q-85 35 -137 35q-35 0 -56 -25q-16 -19 -31 -111l-13 -75h166zM877 1466h236l-45 -260h-235zM808 1062h235l-182 -1062h-235z" />
    <glyph glyph-name="fl" unicode="&#xfb02;" horiz-adv-x="1026" 
d="M679 1062l-36 -210h-166l-147 -852h-235l146 852h-131l36 210h131l19 109q25 148 54.5 203.5t84.5 86t132 30.5q109 0 228 -48l-45 -205q-85 35 -137 35q-35 0 -56 -25q-16 -19 -32 -111l-13 -75h167zM623 0l252 1466h235l-251 -1466h-236z" />
    <glyph glyph-name="pi1" horiz-adv-x="1124" 
d="M766 744h-248l-151 -517q-47 -159 -99 -215q-35 -36 -82 -36q-37 0 -58.5 20.5t-21.5 47.5q0 29 18 65q11 24 69 92.5t91 134.5q24 48 53 144l80 264h-50q-119 0 -172.5 -27.5t-86.5 -86.5h-36q36 119 125 185t230 66h638l-41 -137h-156l-131 -435q-17 -55 -17 -84
q0 -55 31 -88t75 -33q37 0 72 26t65 97h36q-31 -126 -71 -177q-60 -74 -142 -74q-71 0 -121 55.5t-50 152.5q0 58 29 153z" />
    <glyph glyph-name="commaaccent" horiz-adv-x="559" 
d="M105 -121h214l-35 -206q-39 -225 -247 -235l21 119q83 21 102 73h-98z" />
    <glyph glyph-name="undercommaaccent" horiz-adv-x="559" 
d="M11 -421l39 116l50 -1q73 0 148 31q51 21 51 71q0 32 -23.5 51t-71.5 19q-27 0 -74 -9l28 99q59 18 107 18q85 0 134 -45.5t49 -119.5q0 -94 -94 -164t-264 -70q-51 0 -79 4z" />
    <glyph glyph-name="foursuperior" horiz-adv-x="559" 
d="M391 875h-289l29 140l389 466h136l-93 -466h86l-31 -140h-86l-30 -148h-142zM421 1015l50 227l-186 -227h136z" />
    <glyph glyph-name="fivesuperior" horiz-adv-x="559" 
d="M133 963l156 14v-29q0 -88 67 -88q51 0 86 46.5t35 119.5q0 90 -74 90q-51 0 -98 -53l-131 10l115 397h377l-31 -157h-238l-16 -74q27 8 59 8q87 0 141 -59.5t54 -159.5q0 -127 -82.5 -220t-200.5 -93q-106 0 -162.5 70.5t-56.5 177.5z" />
    <glyph glyph-name="sevensuperior" horiz-adv-x="559" 
d="M178 1313l33 157h487l-24 -122q-101 -82 -195.5 -265.5t-128.5 -355.5h-153q58 312 270 586h-289z" />
    <glyph glyph-name="eightsuperior" horiz-adv-x="559" 
d="M561 1130q62 -70 62 -153q0 -104 -73 -182t-190 -78q-107 0 -163 63t-56 152q0 135 125 217q-53 53 -53 125q0 84 63 147.5t168 63.5q99 0 156 -53.5t57 -137.5q0 -92 -96 -164zM444 1348q-34 0 -59 -25t-25 -59q0 -64 64 -64q33 0 58.5 26t25.5 58q0 64 -64 64z
M399 1065q-45 0 -72.5 -39.5t-27.5 -97.5q0 -72 68 -72q50 0 76 44t26 93q0 37 -22 54.5t-48 17.5z" />
    <glyph glyph-name="glyph662" horiz-adv-x="467" 
d="M319 1466h236l-45 -260h-235zM250 1062h235l-182 -1062h-235zM509 1868h252l-267 -300h-156z" />
    </font>
</defs>
</svg>
