<?xml version="1.0" standalone="no"?>
<!DOCTYPE svg PUBLIC "-//W3C//DTD SVG 1.1//EN" "http://www.w3.org/Graphics/SVG/1.1/DTD/svg11.dtd" >
<svg xmlns="http://www.w3.org/2000/svg" xmlns:xlink="http://www.w3.org/1999/xlink" version="1.1">
<metadata>
Created by FontForge 20170731 at Fri Jun 14 16:52:45 2013
 By Aleksey,,,
Dunkin Sans (c) (Neale Davidson). 2012. All Rights Reserved
</metadata>
<defs>
<font id="DunkinSans-BoldItalic" horiz-adv-x="1400" >
  <font-face 
    font-family="Dunkin Sans"
    font-weight="700"
    font-style="italic"
    font-stretch="normal"
    units-per-em="2048"
    panose-1="2 0 5 0 0 0 0 0 0 0"
    ascent="1638"
    descent="-410"
    x-height="1420"
    cap-height="1620"
    bbox="-515 -620 2665 2520"
    underline-thickness="150"
    underline-position="-442"
    unicode-range="U+0020-F002"
  />
<missing-glyph horiz-adv-x="1650" 
d="M0 200v1100q0 200 200 200h1100q200 0 200 -200v-1100q0 -200 -200 -200h-1100q-200 0 -200 200zM1475 201v1099q0 175 -175 175h-1100q-174 0 -175 -175v-1100q1 -175 175 -175h1101q174 0 174 176z" />
    <glyph glyph-name=".notdef" horiz-adv-x="1650" 
d="M0 200v1100q0 200 200 200h1100q200 0 200 -200v-1100q0 -200 -200 -200h-1100q-200 0 -200 200zM1475 201v1099q0 175 -175 175h-1100q-174 0 -175 -175v-1100q1 -175 175 -175h1101q174 0 174 176z" />
    <glyph glyph-name=".null" horiz-adv-x="0" 
 />
    <glyph glyph-name="nonmarkingreturn" horiz-adv-x="508" 
 />
    <glyph glyph-name="space" unicode=" " 
 />
    <glyph glyph-name="space" unicode="&#xa0;" 
 />
    <glyph glyph-name="exclam" unicode="!" horiz-adv-x="600" 
d="M664 800q-24 -90 -106.5 -155t-177.5 -65t-142 65q-32 43 -32 97q0 28 8 58l161 600q24 90 106.5 155t177.5 65t143 -65q31 -43 31 -97q0 -28 -8 -58zM481 355q31 -43 31 -97q0 -28 -8 -58q-25 -90 -107 -155t-177 -65t-143 65q-32 43 -32 96q0 28 9 59q24 90 106.5 155
t177.5 65t143 -65z" />
    <glyph glyph-name="quotedbl" unicode="&#x22;" horiz-adv-x="1200" 
d="M375 1400q24 90 106.5 155t177.5 65t143 -65q31 -43 31 -97q0 -28 -8 -58l-107 -400q-24 -90 -106.5 -155t-177.5 -65t-142 65q-32 43 -32 97q0 28 8 58zM975 1400q24 90 106.5 155t177.5 65t143 -65q31 -43 31 -97q0 -28 -8 -58l-107 -400q-24 -90 -106.5 -155
t-177.5 -65t-142 65q-32 43 -32 97q0 28 8 58z" />
    <glyph glyph-name="numbersign" unicode="#" horiz-adv-x="1800" 
d="M986 880l-43 -160h150l43 160h-150zM825 280l-21 -80q-25 -90 -107 -155t-177 -65t-143 65q-32 43 -32 96q0 28 9 59l21 80h-75q-95 0 -142 65q-32 43 -32 97q0 28 8 58q24 90 106.5 155t177.5 65h75l43 160h-75q-95 0 -142 65q-32 43 -32 97q0 28 8 58q24 90 106.5 155
t177.5 65h75l21 80q24 90 106.5 155t177.5 65t143 -65q31 -43 31 -97q0 -28 -8 -58l-21 -80h150l21 80q24 90 106.5 155t177.5 65t143 -65q31 -43 31 -97q0 -28 -8 -58l-21 -80h75q95 0 143 -65q31 -43 31 -97q0 -28 -8 -58q-24 -90 -106.5 -155t-177.5 -65h-75l-43 -160h75
q95 0 143 -65q31 -43 31 -97q0 -28 -8 -58q-24 -90 -106.5 -155t-177.5 -65h-75l-21 -80q-25 -90 -107 -155t-177 -65t-143 65q-32 43 -32 96q0 28 9 59l21 80h-150z" />
    <glyph glyph-name="dollar" unicode="$" horiz-adv-x="1350" 
d="M396 80q-159 0 -256 90q-6 6 -12 11q-17 18 -38 48l7 9l-1 -1q-11 23 -11 53q0 27 9 60q24 90 106.5 155t177.5 65q55 0 105 -28q38 -22 131 -22h250q9 0 19.5 8t13.5 22q2 6 2 10q0 7 -4 12q-6 8 -15 8h-250q-198 0 -299 139q-67 92 -67 208q0 58 17 123q52 193 228 332
q151 119 297 135q20 73 102.5 138t177.5 65t143 -65q33 -46 33 -95q0 -20 -5 -40q134 0 232 -90l11 -11q17 -18 47 -59q-21 -7 -22 -10q0 -3 17 -3q5 -10 5 -27q0 -26 -12 -70q-24 -90 -106.5 -155t-177.5 -65q-57 0 -104 27q-40 23 -133 23h-250q-9 0 -19 -8t-14 -22
q-1 -5 -1 -9q0 -8 4 -13q5 -8 14 -8h250q198 0 300 -138q67 -92 67 -207q0 -60 -18 -125q-51 -193 -228 -332q-124 -98 -246 -132q-20 -76 -102.5 -141t-177.5 -65t-142 65q-35 47 -35 97q0 19 5 38h-25z" />
    <glyph glyph-name="percent" unicode="%" horiz-adv-x="1600" 
d="M1379 1554q85 66 180 66t143 -65q31 -43 31 -97q0 -28 -8 -58q-23 -87 -64 -134l-419 -443q-12 -1 -12 -2t15 -1q178 0 269 -123q59 -82 59 -185q0 -53 -16 -112q-46 -173 -202.5 -296.5t-334.5 -123.5t-268 123q-61 85 -61 138v2l-155 -163q-11 -12 -39 -35
q-82 -65 -177 -65t-143 65q-32 43 -32 96q0 28 9 59q15 59 33 80h-4l465 498l7 1q0 1 -21 1q-178 0 -268 124q-60 81 -60 184q0 53 16 112q46 173 202.5 296.5t334.5 123.5t268 -123q61 -84 61 -139v-3l170 181q2 3 21 18z" />
    <glyph glyph-name="ampersand" unicode="&#x26;" horiz-adv-x="1350" 
d="M831 1607q25 86 105 148q82 65 177 65t143 -65q31 -43 31 -97q0 -28 -8 -58l-54 -200q-24 -90 -106.5 -155t-177.5 -65h-100q-29 0 -58 -23t-38 -57q-3 -12 -3 -23q0 -19 11 -34q16 -23 45 -23h100q95 0 143 -65q31 -43 31 -97q0 -28 -8 -58q-24 -90 -106.5 -155
t-177.5 -65h-100q-29 0 -58 -23t-38 -57q-3 -12 -3 -22q0 -20 11 -35q17 -23 46 -23h100q71 0 135 51l89 83q84 66 179 66t143 -65q31 -43 31 -97q0 -28 -8 -58q-22 -81 -88 -140q-47 -50 -108 -98q-131 -103 -256 -143l-5 -19q-24 -90 -106.5 -155t-177.5 -65t-142 65
q-32 43 -32 97q0 28 8 58l-2 -7q-126 26 -209 142q-74 100 -74 228q0 65 19 137q47 176 175 300q-34 70 -34 157q0 66 20 143q57 214 252 368q144 113 284 139z" />
    <glyph glyph-name="quotesingle" unicode="'" horiz-adv-x="600" 
d="M375 1400q24 90 106.5 155t177.5 65t143 -65q31 -43 31 -97q0 -28 -8 -58l-107 -400q-24 -90 -106.5 -155t-177.5 -65t-142 65q-32 43 -32 97q0 28 8 58z" />
    <glyph glyph-name="parenleft" unicode="(" horiz-adv-x="1350" 
d="M526 -370q-261 0 -394 182q-89 120 -89 272q0 79 24 166l322 1200q68 256 299 438t492 182q95 0 143 -65q31 -43 31 -97q0 -28 -8 -58q-24 -90 -106.5 -155t-177.5 -65q-71 0 -137 -52t-86 -128l-322 -1200q-7 -26 -7 -50q0 -44 25 -78q38 -52 109 -52q95 0 143 -65
q31 -43 31 -97q0 -28 -8 -58q-24 -90 -106.5 -155t-177.5 -65z" />
    <glyph glyph-name="parenright" unicode=")" horiz-adv-x="1350" 
d="M-16 -305q-32 43 -32 97q0 28 8 58q24 90 106.5 155t177.5 65q71 0 137 52t86 128l322 1200q7 26 7 50q0 44 -25 78q-38 52 -109 52q-95 0 -142 65q-32 43 -32 97q0 28 8 58q24 90 106.5 155t177.5 65q261 0 394 -182q88 -120 88 -273q0 -78 -23 -165l-322 -1200
q-69 -256 -299.5 -438t-491.5 -182q-95 0 -142 65z" />
    <glyph glyph-name="asterisk" unicode="*" 
d="M564 1420l-13 28q-30 41 -30 94q0 27 8 58q24 90 106.5 155t177.5 65t145 -67l84 -197l191 197q85 67 180 67t143 -65q31 -43 31 -97q0 -28 -8 -58q-24 -90 -103 -152l-29 -28q53 0 101 -65q32 -43 32 -98q0 -27 -8 -57q-25 -90 -107 -155t-134 -65l12 -27q29 -41 29 -94
q0 -28 -8 -59q-24 -90 -106.5 -155t-177.5 -65t-143 68l-86 196l-189 -196q-87 -68 -182 -68t-142 65q-32 43 -32 97q0 28 8 58q24 90 104 153l28 27q-53 0 -101 65q-32 43 -32 96q0 28 9 59q24 90 106 155t136 65z" />
    <glyph glyph-name="plus" unicode="+" horiz-adv-x="1200" 
d="M1023 1020h75q95 0 143 -65q31 -43 31 -97q0 -28 -8 -58q-24 -90 -106.5 -155t-177.5 -65h-75l-21 -80q-24 -90 -106.5 -155t-177.5 -65t-142 65q-32 43 -32 97q0 28 8 58l21 80h-75q-95 0 -142 65q-32 43 -32 97q0 28 8 58q24 90 106.5 155t177.5 65h75l22 80
q24 90 106.5 155t177.5 65t143 -65q31 -43 31 -97q0 -28 -8 -58z" />
    <glyph glyph-name="comma" unicode="," horiz-adv-x="600" 
d="M54 200q24 90 106.5 155t177.5 65t143 -65q31 -43 31 -97q0 -28 -8 -58l-108 -400q-24 -90 -106.5 -155t-177.5 -65t-142 65q-32 43 -32 97q0 28 8 58z" />
    <glyph glyph-name="hyphen" unicode="-" horiz-adv-x="1200" 
d="M1098 1020q95 0 143 -65q31 -43 31 -97q0 -28 -8 -58q-24 -90 -106.5 -155t-177.5 -65h-600q-95 0 -142 65q-32 43 -32 97q0 28 8 58q24 90 106.5 155t177.5 65h600z" />
    <glyph glyph-name="hyphen" unicode="&#xad;" horiz-adv-x="1200" 
d="M1098 1020q95 0 143 -65q31 -43 31 -97q0 -28 -8 -58q-24 -90 -106.5 -155t-177.5 -65h-600q-95 0 -142 65q-32 43 -32 97q0 28 8 58q24 90 106.5 155t177.5 65h600z" />
    <glyph glyph-name="period" unicode="." horiz-adv-x="600" 
d="M220 -20q-95 0 -143 65q-32 43 -32 96q0 28 9 59q24 90 106.5 155t177.5 65t143 -65q31 -43 31 -97q0 -28 -8 -58q-25 -90 -107 -155t-177 -65z" />
    <glyph glyph-name="slash" unicode="/" 
d="M1279 1554q85 66 180 66t143 -65q31 -43 31 -97q0 -28 -8 -58q-23 -87 -64 -134l-1125 -1186q-11 -12 -39 -35q-82 -65 -177 -65t-143 65q-32 43 -32 96q0 28 9 59q15 59 33 80h-4l1175 1256q2 3 21 18z" />
    <glyph glyph-name="zero" unicode="0" horiz-adv-x="1800" 
d="M820 -20q-343 0 -519 241q-117 160 -117 362q0 103 30 217q91 338 396.5 579t648.5 241t520 -241q116 -159 116 -360q0 -104 -31 -219q-90 -338 -395.5 -579t-648.5 -241zM1232 530.5q140 110.5 182 269.5q15 55 15 104q0 93 -53 166q-81 110 -235 110t-294 -110.5
t-183 -269.5q-14 -54 -14 -103q0 -94 53 -166q81 -111 235 -111t294 110.5z" />
    <glyph glyph-name="one" unicode="1" horiz-adv-x="800" 
d="M859 1620q95 0 143 -65q31 -43 31 -97q0 -28 -8 -58l-321 -1200q-25 -90 -107 -155t-177 -65t-143 65q-32 43 -32 96q0 28 9 59l262 980q-70 0 -117 65q-32 43 -32 97q0 28 8 58q24 90 106.5 155t177.5 65h200z" />
    <glyph glyph-name="two" unicode="2" horiz-adv-x="1350" 
d="M972 910q32 38 46 89q7 26 7 50q0 44 -25 78q-38 52 -109 52t-133 -49q-55 -56 -93 -86q-83 -65 -178 -65t-142 65q-32 43 -32 97q0 28 8 58q20 75 79 130q42 48 118 109q230 181 491 181t394 -182q88 -120 88 -273q0 -78 -23 -165q-63 -234 -200 -318h1l-340 -261h159
q95 0 143 -65q31 -43 31 -97q0 -28 -8 -58q-25 -90 -107 -155t-177 -65h-750q-95 0 -143 65q-32 43 -32 96q0 28 9 59q24 90 107 156q26 20 30 22l2 -2z" />
    <glyph glyph-name="three" unicode="3" horiz-adv-x="1350" 
d="M848 1020h100q29 0 58.5 23t38.5 57q3 12 3 22q0 20 -11 35q-17 23 -46 23h-100q-71 0 -135 -50l-89 -82q-84 -68 -179 -68t-143 65q-32 43 -32 96q0 28 9 59q21 81 88 140q46 50 105 97q233 183 494 183h100q219 0 331 -153q74 -101 74 -230q0 -65 -19 -137
q-47 -176 -176 -300q35 -71 35 -158q0 -66 -20 -142q-57 -214 -251 -367t-413 -153h-100q-261 0 -395 182q-35 48 -54 98q-22 37 -22 82q0 27 8 58q24 90 106.5 155t177.5 65t143 -66l45 -83q38 -51 109 -51h100q29 0 58 23t38 57q3 12 3 22q0 20 -11 35q-17 23 -46 23h-100
q-95 0 -142 65q-32 43 -32 97q0 28 8 58q24 90 106.5 155t177.5 65z" />
    <glyph glyph-name="four" unicode="4" 
d="M1052 941l-211 -221h152zM1079 1554q85 66 180 66h275l-3 -11q37 -10 71 -55q31 -42 31 -96q0 -28 -8 -58l-321 -1200q-25 -90 -107 -155t-177 -65t-143 65q-32 43 -32 96q0 28 9 59l21 80h-575q-95 0 -142 65q-32 43 -32 97q0 28 8 58q16 59 33 80h-4l895 956q2 3 21 18
z" />
    <glyph glyph-name="five" unicode="5" horiz-adv-x="1300" 
d="M693 420q50 0 97.5 37.5t61.5 92.5q5 19 5 37q0 31 -17 56q-28 37 -78 37h-580l461 940h721q95 0 143 -65q31 -43 31 -97q0 -28 -8 -58q-24 -90 -106.5 -155t-177.5 -65h-379l-28 -60h41q240 0 363 -167q80 -111 80 -251q0 -72 -21 -152q-63 -235 -275 -402.5
t-452 -167.5t-364 169q-68 108 -73 190q-2 13 -2 27q0 28 8 59q24 90 106.5 155t177.5 65t143 -66q34 -46 48.5 -102.5t73.5 -56.5z" />
    <glyph glyph-name="six" unicode="6" 
d="M697 728q-66 -52 -86 -128q-7 -27 -7 -51q0 -43 25 -77q38 -52 109 -52t136.5 52t86.5 128q7 26 7 50q0 44 -25 78q-38 52 -109 52t-137 -52zM1128 1195q126 -32 219 -158q87 -119 87 -272q0 -78 -23 -165q-69 -256 -299.5 -438t-491.5 -182t-394 182q-89 120 -89 272
q0 79 24 166q37 140 89 222t78 112l564 586q11 12 40 35q82 65 177 65t143 -65q31 -43 31 -97q0 -28 -8 -58q-16 -59 -33 -80h4z" />
    <glyph glyph-name="seven" unicode="7" 
d="M1459 1620q95 0 143 -65q31 -43 31 -97q0 -28 -8 -58q-23 -87 -64 -134l-1125 -1186q-11 -12 -39 -35q-82 -65 -177 -65t-143 65q-32 43 -32 96q0 28 9 59q15 59 33 80h-4l841 900h-383q-95 0 -142 65q-32 43 -32 97q0 28 8 58q24 90 106.5 155t177.5 65h800z" />
    <glyph glyph-name="eight" unicode="8" horiz-adv-x="1300" 
d="M847 550q5 19 5 37q0 31 -17 56q-28 37 -78 37t-97.5 -37.5t-62.5 -92.5q-5 -19 -5 -35q0 -33 19 -57q27 -38 77 -38t97.5 37.5t61.5 92.5zM908 1150q2 6 2 10q0 7 -4 12q-6 8 -15 8t-19 -8t-14 -22q-2 -6 -2 -10q0 -7 4 -12q6 -8 15 -8t19 8t14 22zM1250 936
q69 -99 69 -228q0 -74 -22 -158q-63 -235 -275 -402.5t-452 -167.5t-363 168q-81 110 -81 250q0 72 21 152q62 231 255 386q-12 41 -12 88q0 58 18 126q52 193 227.5 331.5t373.5 138.5t300 -138q67 -92 67 -207q0 -60 -18 -125q-33 -124 -108 -214z" />
    <glyph glyph-name="nine" unicode="9" 
d="M982 872q66 52 86 128q7 26 7 50q0 44 -25 78q-38 52 -109 52t-137 -52t-86 -128q-7 -26 -7 -50q0 -44 25 -78q38 -52 109 -52t137 52zM551 405q-126 32 -218 159q-88 119 -88 271q0 78 23 165q69 256 299.5 438t491.5 182t395 -182q88 -120 88 -272q0 -79 -24 -166
q-38 -140 -90 -222t-78 -112l-564 -586q-11 -12 -39 -35q-82 -65 -177 -65t-143 65q-32 43 -32 96q0 28 9 59q15 59 33 80h-4z" />
    <glyph glyph-name="colon" unicode=":" horiz-adv-x="600" 
d="M380 580q-95 0 -142 65q-32 43 -32 97q0 28 8 58q24 90 106.5 155t177.5 65t143 -65q31 -43 31 -97q0 -28 -8 -58q-24 -90 -106.5 -155t-177.5 -65zM220 -20q-95 0 -143 65q-32 43 -32 96q0 28 9 59q24 90 106.5 155t177.5 65t143 -65q31 -43 31 -97q0 -28 -8 -58
q-25 -90 -107 -155t-177 -65z" />
    <glyph glyph-name="semicolon" unicode=";" horiz-adv-x="600" 
d="M54 200q24 90 106.5 155t177.5 65t143 -65q31 -43 31 -97q0 -28 -8 -58l-108 -400q-24 -90 -106.5 -155t-177.5 -65t-142 65q-32 43 -32 97q0 28 8 58zM380 580q-95 0 -142 65q-32 43 -32 97q0 28 8 58q24 90 106.5 155t177.5 65t143 -65q31 -43 31 -97q0 -28 -8 -58
q-24 -90 -106.5 -155t-177.5 -65z" />
    <glyph glyph-name="semicolon" unicode="&#x37e;" horiz-adv-x="600" 
d="M54 200q24 90 106.5 155t177.5 65t143 -65q31 -43 31 -97q0 -28 -8 -58l-108 -400q-24 -90 -106.5 -155t-177.5 -65t-142 65q-32 43 -32 97q0 28 8 58zM380 580q-95 0 -142 65q-32 43 -32 97q0 28 8 58q24 90 106.5 155t177.5 65t143 -65q31 -43 31 -97q0 -28 -8 -58
q-24 -90 -106.5 -155t-177.5 -65z" />
    <glyph glyph-name="less" unicode="&#x3c;" horiz-adv-x="1600" 
d="M1602 1420q98 0 146 -65q32 -43 32 -98q0 -27 -8 -57q-25 -90 -106 -154q-68 -44 -127 -59l1 1l-498 -188l397 -188v1q52 -14 96 -58q30 -43 30 -96q0 -28 -8 -59q-24 -90 -106.5 -155t-180.5 -65q-56 11 -100 27l-824 375q-65 20 -108 63q-32 43 -32 98q0 27 8 57
q24 90 107 154q65 44 142 64l1025 375q53 16 114 27z" />
    <glyph glyph-name="equal" unicode="=" horiz-adv-x="1200" 
d="M1018 720q95 0 143 -65q31 -43 31 -97q0 -28 -8 -58q-24 -90 -106.5 -155t-177.5 -65h-600q-95 0 -142 65q-32 43 -32 97q0 28 8 58q24 90 106.5 155t177.5 65h600zM1179 1320q95 0 143 -65q31 -43 31 -97q0 -28 -8 -58q-24 -90 -106.5 -155t-177.5 -65h-600
q-95 0 -142 65q-32 43 -32 97q0 28 8 58q24 90 106.5 155t177.5 65h600z" />
    <glyph glyph-name="greater" unicode="&#x3e;" horiz-adv-x="1600" 
d="M708 1393l825 -375q65 -20 108 -64q31 -42 31 -96q0 -28 -8 -58q-24 -90 -106 -155q-67 -43 -142 -63l-1026 -375q-52 -16 -114 -27q-98 0 -145 65q-32 43 -32 97q0 28 8 58q24 90 107 155q67 44 125 58v-1l497 188l-396 188l-1 -1q-51 15 -94 59q-32 42 -32 95
q0 28 9 59q24 90 106 155t180 65q57 -11 100 -27z" />
    <glyph glyph-name="question" unicode="?" horiz-adv-x="1200" 
d="M520 -20q-95 0 -143 65q-32 43 -32 96q0 28 9 59q24 90 106.5 155t177.5 65t143 -65q31 -43 31 -97q0 -28 -8 -58q-25 -90 -107 -155t-177 -65zM692 998q51 22 106 22q29 0 58.5 23t38.5 57q3 12 3 22q0 20 -11 35q-17 23 -46 23t-58 -23t-38 -57q-15 -56 -53 -102z
M567 902q-51 -22 -106 -22q-95 0 -142 65q-32 43 -32 97q0 28 8 58q57 214 251 367t413 153t331 -153q74 -101 74 -230q0 -65 -19 -137q-58 -214 -252 -367t-413 -153q-95 0 -142 65q-32 43 -32 97q0 28 8 58q15 56 53 102z" />
    <glyph glyph-name="at" unicode="@" horiz-adv-x="1800" 
d="M954 480q-95 0 -143 65q-32 43 -32 96q0 28 9 59l53 200q24 90 106.5 155t177.5 65t143 -65q34 -47 34 -97q0 -19 -5 -38h133v5q0 73 -54 144q-81 111 -235 111t-294 -110.5t-183 -269.5q-14 -54 -14 -103q0 -94 53 -166q81 -111 235 -111h400q95 0 143 -65
q31 -43 31 -97q0 -28 -8 -58q-25 -90 -107 -155t-177 -65h-400q-343 0 -519 241q-117 160 -117 362q0 103 30 217q91 338 396.5 579t648.5 241t520 -241q116 -159 116 -360q0 -104 -31 -219l-26 -100q-25 -90 -107 -155t-177 -65h-600z" />
    <glyph glyph-name="A" unicode="A" horiz-adv-x="1800" 
d="M515 180l-77 -100h-2q-11 -12 -37 -34q-84 -66 -179 -66t-143 65q-32 43 -32 96q0 28 9 59q15 59 33 80h1l952 1240h2q12 13 39 34q83 66 178 66t143 -65q15 -23 20 -35h2l288 -1240h1q2 -6 2 -15q0 -23 -11 -65q-25 -90 -107 -155t-177 -65t-142 64q-17 24 -22 36h-2
l-23 100h-716zM1129 620l-64 276l-212 -276h276z" />
    <glyph glyph-name="B" unicode="B" 
d="M880 580h-275l-42 -160h275q29 0 58 23t38 57q3 12 3 22q0 20 -11 35q-17 23 -46 23zM998 1020q29 0 58.5 23t38.5 57q3 12 3 22q0 20 -11 35q-17 23 -46 23h-275l-43 -160h275zM375 1400q24 90 106.5 155t177.5 65h500q219 0 331 -153q74 -101 74 -230q0 -65 -19 -137
q-47 -176 -176 -300q35 -71 35 -158q0 -66 -20 -142q-57 -214 -251 -367t-413 -153h-500q-95 0 -143 65q-32 43 -32 96q0 28 9 59z" />
    <glyph glyph-name="C" unicode="C" horiz-adv-x="1650" 
d="M1787 1368q5 -5 12 -13q31 -43 31 -97q0 -28 -8 -58q-25 -90 -107 -155t-177 -65t-143 66q-6 7 -9 13q-4 3 -10 10q-81 111 -235 111t-294 -110.5t-183 -269.5q-14 -54 -14 -103q0 -94 53 -166q81 -111 235 -111t294 111q8 6 14 10q6 5 19 15q81 64 176 64t143 -65
q31 -43 31 -97q0 -28 -8 -58q-24 -90 -106 -155q-12 -9 -24 -17q-5 -4 -9 -7q-305 -241 -648 -241t-519 241q-117 160 -117 362q0 103 30 217q91 338 396.5 579t648.5 241t520 -242q5 -5 8 -10z" />
    <glyph glyph-name="D" unicode="D" 
d="M766 1180l-203 -760q129 0 269 110.5t182 269.5q15 55 15 104q0 93 -53 166q-81 110 -210 110zM420 -20h-200q-95 0 -143 65q-32 43 -32 96q0 28 9 59l321 1200q24 90 106.5 155t177.5 65h200q343 0 520 -241q116 -159 116 -360q0 -104 -31 -219q-90 -338 -395.5 -579
t-648.5 -241z" />
    <glyph glyph-name="E" unicode="E" 
d="M1098 1020q95 0 143 -65q31 -43 31 -97q0 -28 -8 -58q-24 -90 -106.5 -155t-177.5 -65h-375l-42 -160h575q95 0 143 -65q31 -43 31 -97q0 -28 -8 -58q-25 -90 -107 -155t-177 -65h-800q-95 0 -143 65q-32 43 -32 96q0 28 9 59l321 1200q24 90 106.5 155t177.5 65h800
q95 0 143 -65q31 -43 31 -97q0 -28 -8 -58q-24 -90 -106.5 -155t-177.5 -65h-575l-43 -160h375z" />
    <glyph glyph-name="F" unicode="F" 
d="M1098 1020q95 0 143 -65q31 -43 31 -97q0 -28 -8 -58q-24 -90 -106.5 -155t-177.5 -65h-375l-101 -380q-25 -90 -107 -155t-177 -65t-143 65q-32 43 -32 96q0 28 9 59l321 1200q24 90 106.5 155t177.5 65h800q95 0 143 -65q31 -43 31 -97q0 -28 -8 -58
q-24 -90 -106.5 -155t-177.5 -65h-575l-43 -160h375z" />
    <glyph glyph-name="G" unicode="G" horiz-adv-x="1650" 
d="M1159 480h-205q-95 0 -143 65q-32 43 -32 96q0 28 9 59q24 90 106.5 155t177.5 65h450q95 0 143 -65q31 -43 31 -97q0 -28 -8 -58l-81 -300q-24 -90 -106 -155q-12 -9 -24 -17q-5 -4 -9 -7q-305 -241 -648 -241t-519 241q-117 160 -117 362q0 103 30 217
q91 338 396.5 579t648.5 241t520 -242q5 -5 8 -10q5 -5 12 -13q31 -43 31 -97q0 -28 -8 -58q-25 -90 -107 -155t-177 -65t-143 66q-6 7 -9 13q-4 3 -10 10q-81 111 -235 111t-294 -110.5t-183 -269.5q-14 -54 -14 -103q0 -94 53 -166q81 -111 235 -111q119 0 221 60z" />
    <glyph glyph-name="H" unicode="H" 
d="M605 580l-101 -380q-25 -90 -107 -155t-177 -65t-143 65q-32 43 -32 96q0 28 9 59l321 1200q24 90 106.5 155t177.5 65t143 -65q31 -43 31 -97q0 -28 -8 -58l-102 -380h350l102 380q24 90 106.5 155t177.5 65t143 -65q31 -43 31 -97q0 -28 -8 -58l-321 -1200
q-25 -90 -107 -155t-177 -65t-143 65q-32 43 -32 96q0 28 9 59l101 380h-350z" />
    <glyph glyph-name="I" unicode="I" horiz-adv-x="600" 
d="M504 200q-25 -90 -107 -155t-177 -65t-143 65q-32 43 -32 96q0 28 9 59l321 1200q24 90 106.5 155t177.5 65t143 -65q31 -43 31 -97q0 -28 -8 -58z" />
    <glyph glyph-name="J" unicode="J" horiz-adv-x="1000" 
d="M338 420q71 0 136.5 52t86.5 128l214 800q24 90 106.5 155t177.5 65t143 -65q31 -43 31 -97q0 -28 -8 -58l-214 -800q-69 -256 -299.5 -438t-491.5 -182q-95 0 -143 65q-32 43 -32 96q0 28 9 59q24 90 106.5 155t177.5 65z" />
    <glyph glyph-name="K" unicode="K" 
d="M762 1166l484 357q15 16 37 33q81 64 176 64t143 -65q31 -43 31 -97q0 -28 -8 -58q-24 -90 -106 -155q-28 -22 -55 -35l-555 -410l336 -410q19 -13 36 -35q31 -43 31 -97q0 -28 -8 -58q-25 -90 -107 -155t-177 -65t-143 66q-12 15 -18 31l-293 357l-62 -234
q-25 -90 -107 -155t-177 -65t-143 65q-32 43 -32 96q0 28 9 59l321 1200q24 90 106.5 155t177.5 65t143 -65q31 -43 31 -97q0 -28 -8 -58z" />
    <glyph glyph-name="L" unicode="L" 
d="M220 -20q-95 0 -143 65q-32 43 -32 96q0 28 9 59l321 1200q24 90 106.5 155t177.5 65t143 -65q31 -43 31 -97q0 -28 -8 -58l-262 -980h575q95 0 143 -65q31 -43 31 -97q0 -28 -8 -58q-25 -90 -107 -155t-177 -65h-800z" />
    <glyph glyph-name="M" unicode="M" horiz-adv-x="2000" 
d="M1167 902l317 528q39 70 95 122q85 68 180 68t143 -67q29 -53 30 -124l-27 -1125q2 -20 2 -43q0 -28 -3 -60q-25 -91 -107 -156t-177 -65t-144 67q-28 52 -28 104v4h-2l13 455l-268 -455q-25 -56 -95 -111q-81 -64 -176 -64t-147 71q-30 47 -30 93v11l-26 455l-229 -455
h-2q-29 -54 -88 -109q-83 -66 -178 -66t-143 65q-32 43 -32 97q0 28 9 59q25 58 53 103l577 1125q39 71 95 123q85 68 180 68t143 -67q29 -53 30 -123z" />
    <glyph glyph-name="N" unicode="N" 
d="M1045 913l130 487q24 90 106.5 155t177.5 65t143 -65q31 -43 31 -97q0 -28 -8 -58l-321 -1200q-25 -90 -107 -155t-177 -65t-143 66q-16 21 -21 34l-222 607l-130 -487q-25 -90 -107 -155t-177 -65t-143 65q-32 43 -32 96q0 28 9 59l321 1200q24 90 106.5 155t177.5 65
t144 -66q14 -22 19 -34z" />
    <glyph glyph-name="O" unicode="O" horiz-adv-x="1800" 
d="M820 -20q-343 0 -519 241q-117 160 -117 362q0 103 30 217q91 338 396.5 579t648.5 241t520 -241q116 -159 116 -360q0 -104 -31 -219q-90 -338 -395.5 -579t-648.5 -241zM1232 530.5q140 110.5 182 269.5q15 55 15 104q0 93 -53 166q-81 110 -235 110t-294 -110.5
t-183 -269.5q-14 -54 -14 -103q0 -94 53 -166q81 -111 235 -111t294 110.5z" />
    <glyph glyph-name="P" unicode="P" 
d="M1041 1180h-275l-43 -160h275q29 0 58.5 23t38.5 57q3 12 3 22q0 20 -11 35q-17 23 -46 23zM880 580h-275l-101 -380q-25 -90 -107 -155t-177 -65t-143 65q-32 43 -32 96q0 28 9 59l321 1200q24 90 106.5 155t177.5 65h500q219 0 331 -153q74 -101 74 -230
q0 -65 -19 -137q-58 -214 -252 -367t-413 -153z" />
    <glyph glyph-name="Q" unicode="Q" horiz-adv-x="1800" 
d="M968 420l-33 25q-32 43 -32 98q0 27 8 57q24 90 106.5 155t177.5 65t143 -65l44 -47q14 25 32 92q15 55 15 104q0 93 -53 166q-81 110 -235 110t-294 -110.5t-183 -269.5q-14 -54 -14 -103q0 -94 53 -166q81 -111 235 -111h30zM1645 389q20 -13 36 -34q31 -43 31 -97
q0 -28 -8 -58q-25 -90 -107 -155t-177 -65t-143 66q-12 15 -18 31l-5 7q-199 -104 -434 -104q-343 0 -519 241q-117 160 -117 362q0 103 30 217q91 338 396.5 579t648.5 241t520 -241q116 -159 116 -360q0 -104 -31 -219q-62 -234 -219 -411z" />
    <glyph glyph-name="R" unicode="R" 
d="M1041 1180h-275l-43 -160h275q29 0 58.5 23t38.5 57q3 12 3 22q0 20 -11 35q-17 23 -46 23zM657 580h-52l-101 -380q-25 -90 -107 -155t-177 -65t-143 65q-32 43 -32 96q0 28 9 59l321 1200q24 90 106.5 155t177.5 65h500q219 0 331 -153q74 -101 74 -230q0 -65 -19 -137
q-58 -214 -252 -367q-66 -52 -116 -77l139 -376h-3q2 -6 2 -15q0 -23 -11 -65q-25 -90 -107 -155t-177 -65t-143 66q-16 21 -21 34z" />
    <glyph glyph-name="S" unicode="S" horiz-adv-x="1200" 
d="M125 375q25 90 107 155t177 65t145 -66q23 -34 28 -72q4 -6 11 -14q16 -23 45 -23t58 23t38 57q3 12 3 22q0 20 -11 35q-17 23 -46 23q-219 0 -331 153q-74 101 -74 228q0 66 20 139q57 214 251 367t413 153t321 -144q79 -112 79 -202q0 -25 -6 -49q-24 -90 -106.5 -155
t-177.5 -65t-142 67q-25 32 -31 71q-4 7 -9 16q-17 21 -46 21t-58 -23t-38 -57q-3 -12 -3 -23q0 -19 11 -34q16 -23 45 -23q219 0 331 -153q74 -101 74 -230q0 -65 -19 -137q-57 -214 -251 -367t-413 -153t-321 144q-80 113 -80 203q0 25 6 48z" />
    <glyph glyph-name="T" unicode="T" 
d="M716 1180h-175q-95 0 -142 65q-32 43 -32 97q0 28 8 58q24 90 106.5 155t177.5 65h800q95 0 143 -65q31 -43 31 -97q0 -28 -8 -58q-24 -90 -106.5 -155t-177.5 -65h-175l-262 -980q-25 -90 -107 -155t-177 -65t-143 65q-32 43 -32 96q0 28 9 59z" />
    <glyph glyph-name="U" unicode="U" 
d="M375 1400q24 90 106.5 155t177.5 65t143 -65q31 -43 31 -97q0 -28 -8 -58l-214 -800q-7 -27 -7 -51q0 -43 25 -77q38 -52 109 -52t136.5 52t86.5 128l214 800q24 90 106.5 155t177.5 65t143 -65q31 -43 31 -97q0 -28 -8 -58l-214 -800q-69 -256 -299.5 -438t-491.5 -182
t-394 182q-89 120 -89 272q0 79 24 166z" />
    <glyph glyph-name="V" unicode="V" horiz-adv-x="1800" 
d="M1014 704l626 816h2q11 12 41 36q81 64 176 64t143 -65q31 -43 31 -97q0 -28 -8 -58q-16 -59 -33 -80h-1l-953 -1240h-2q-11 -12 -39 -35q-82 -65 -177 -65t-143 66q-16 21 -21 34h-2l-287 1240h-1q-2 6 -2 16q0 23 11 64q24 90 106.5 155t177.5 65t144 -66
q14 -22 19 -34h2z" />
    <glyph glyph-name="W" unicode="W" horiz-adv-x="2200" 
d="M1191 1445q29 61 92 111q81 64 176 64t147 -71q27 -43 27 -94v-10h-2l1 -12l35 -531l326 543q29 54 87 109q84 66 179 66t143 -65q31 -43 31 -98q0 -27 -8 -58q-26 -58 -54 -105l-676 -1124q-39 -70 -95 -122q-85 -68 -180 -68t-143 67q-29 53 -30 123l-35 528l-317 -528
q-39 -70 -95 -122q-85 -68 -180 -68t-143 67q-29 53 -30 123l-74 1124q-2 19 -2 39q0 31 4 66q24 91 106.5 156t177.5 65t144 -67q28 -52 28 -104v-4l36 -543l319 531l7 12h-2z" />
    <glyph glyph-name="X" unicode="X" 
d="M1279 1554q85 66 180 66t143 -65q31 -43 31 -97q0 -28 -8 -58q-23 -87 -64 -134l-449 -473l204 -513h-3q2 -6 2 -15q0 -23 -11 -65q-25 -90 -107 -155t-177 -65t-143 66q-16 21 -21 34l-127 308l-293 -308q-11 -12 -39 -35q-82 -65 -177 -65t-143 65q-32 43 -32 96
q0 28 9 59q15 59 33 80h-3l478 513l-195 473q-6 19 -6 43q0 38 14 91q24 90 106.5 155t177.5 65t144 -66q11 -15 13 -18l132 -331l310 331q2 3 21 18z" />
    <glyph glyph-name="Y" unicode="Y" 
d="M1279 1554q85 66 180 66t143 -65q31 -43 31 -97q0 -28 -8 -58q-23 -87 -64 -134l-457 -482l-61 -65l-139 -519q-25 -90 -107 -155t-177 -65t-143 65q-32 43 -32 96q0 28 9 59l139 519l-27 65l-199 482q-6 19 -6 43q0 38 14 91q24 90 106.5 155t177.5 65t144 -66
q11 -15 13 -18l132 -331l310 331q2 3 21 18z" />
    <glyph glyph-name="Z" unicode="Z" 
d="M541 1180q-95 0 -142 65q-32 43 -32 97q0 28 8 58q24 90 106.5 155t177.5 65h800q95 0 143 -65q31 -43 31 -97q0 -28 -8 -58q-23 -87 -64 -134l-802 -846h379q95 0 143 -65q31 -43 31 -97q0 -28 -8 -58q-25 -90 -107 -155t-177 -65h-800q-95 0 -143 65q-32 43 -32 96
q0 28 9 59q15 59 33 80h-4l841 900h-383z" />
    <glyph glyph-name="bracketleft" unicode="[" horiz-adv-x="1000" 
d="M455 20h175q95 0 143 -65q32 -43 32 -96q0 -28 -9 -59q-24 -90 -106.5 -155t-177.5 -65h-400q-95 0 -142 65q-32 43 -32 97q0 28 8 58l536 2000q24 90 106.5 155t177.5 65h400q95 0 143 -65q31 -43 31 -97q0 -28 -8 -58q-24 -90 -106.5 -155t-177.5 -65h-175z" />
    <glyph glyph-name="backslash" unicode="\" 
d="M816 1536l501 -1256h-4q2 -6 2 -15q0 -23 -11 -65q-25 -90 -107 -155t-177 -65t-143 66q-16 21 -21 34l-489 1186q-6 19 -6 43q0 38 14 91q24 90 106.5 155t177.5 65t144 -66q11 -15 13 -18z" />
    <glyph glyph-name="bracketright" unicode="]" horiz-adv-x="1000" 
d="M823 1580h-175q-95 0 -142 65q-32 43 -32 97q0 28 8 58q24 90 106.5 155t177.5 65h400q95 0 143 -65q31 -43 31 -97q0 -28 -8 -58l-536 -2000q-24 -90 -106.5 -155t-177.5 -65h-400q-95 0 -142 65q-32 43 -32 97q0 28 8 58q25 90 107 155t177 65h175z" />
    <glyph glyph-name="asciicircum" unicode="^" horiz-adv-x="1500" 
d="M1213 2003l-359 -257q-84 -66 -179 -66t-142 65q-32 43 -32 97q0 28 8 58q24 90 107 155l557 400q82 65 177 65t144 -65l343 -400q30 -43 30 -96q0 -28 -8 -59q-24 -90 -106.5 -155t-177.5 -65t-142 66z" />
    <glyph glyph-name="underscore" unicode="_" horiz-adv-x="1200" 
d="M777 -180q95 0 143 -65q31 -43 31 -97q0 -28 -8 -58q-24 -90 -106.5 -155t-177.5 -65h-600q-95 0 -142 65q-32 43 -32 97q0 28 8 58q24 90 106.5 155t177.5 65h600z" />
    <glyph glyph-name="grave" unicode="`" horiz-adv-x="1200" 
d="M641 2145q-33 44 -33 98q0 27 8 57q24 90 106.5 155t177.5 65q58 0 142 -62l494 -402q31 -44 31 -98q0 -28 -8 -58q-24 -90 -106.5 -155t-177.5 -65q-59 0 -140 64z" />
    <glyph glyph-name="a" unicode="a" horiz-adv-x="1600" 
d="M1053 501.5q103 81.5 135 198.5q11 40 11 76q0 69 -39 123q-60 81 -172 81t-215.5 -81.5t-134.5 -198.5q-11 -41 -11 -77q0 -68 39 -121q60 -82 172 -82t215 81.5zM1069 55q-155 -75 -349 -75q-302 0 -457 212q-102 139 -102 316q0 91 27 192q79 297 342 508.5t575 211.5
t464 -206q98 -134 98 -311q0 -95 -29 -203l-134 -500q-25 -90 -107 -155t-177 -65t-143 66q-8 10 -9 10z" />
    <glyph glyph-name="b" unicode="b" horiz-adv-x="1600" 
d="M838 420q112 0 215 81.5t135 198.5q11 40 11 76q0 69 -39 123q-60 81 -172 81t-215.5 -81.5t-134.5 -198.5q-11 -41 -11 -77q0 -68 39 -121q60 -82 172 -82zM375 1400q24 90 106.5 155t177.5 65t143 -65q31 -43 31 -97q0 -28 -8 -58l-8 -30q117 50 288 50q302 0 457 -211
q103 -141 103 -318q0 -91 -27 -191q-80 -297 -348 -508.5t-570 -211.5t-457 212q-102 139 -102 316q0 91 27 192z" />
    <glyph glyph-name="c" unicode="c" horiz-adv-x="1500" 
d="M1593 1157l2 -1q31 -44 31 -98q0 -28 -8 -58q-24 -90 -106.5 -155t-177.5 -65t-142 66q-17 22 -24 43q-3 2 -8 9q-60 82 -172 82t-215.5 -81.5t-134.5 -198.5q-11 -41 -11 -77q0 -68 39 -121q60 -82 172 -82t216 82q10 8 14 10q18 20 47 44q81 64 176 64t143 -65
q31 -43 31 -97q0 -28 -8 -58q-24 -90 -106 -155l-2 -1q-23 -24 -60 -53q-267 -211 -569 -211t-457 212q-102 139 -102 316q0 91 27 192q79 297 347 508.5t570 211.5t457 -211q21 -29 31 -52z" />
    <glyph glyph-name="d" unicode="d" horiz-adv-x="1600" 
d="M1188 700q11 40 11 76q0 69 -39 123q-60 81 -172 81t-215.5 -81.5t-134.5 -198.5q-11 -41 -11 -77q0 -68 39 -121q60 -82 172 -82t215 81.5t135 198.5zM1638 700q-80 -297 -348 -508.5t-570 -211.5t-457 212q-102 139 -102 316q0 91 27 192q79 297 347 508.5t570 211.5
q171 0 262 -50l8 30q24 90 106.5 155t177.5 65t143 -65q31 -43 31 -97q0 -28 -8 -58z" />
    <glyph glyph-name="e" unicode="e" horiz-adv-x="1600" 
d="M802 920h340q-58 60 -154 60t-186 -60zM684 480q58 -60 154 -60h300q95 0 143 -65q31 -43 31 -97q0 -28 -8 -58q-25 -90 -107 -155t-177 -65h-300q-302 0 -457 212q-102 139 -102 316q0 91 27 192q79 297 347 508.5t570 211.5t457 -211q103 -141 103 -318q0 -91 -27 -191
q-25 -90 -107 -155t-177 -65h-670z" />
    <glyph glyph-name="f" unicode="f" horiz-adv-x="1350" 
d="M268 1000q69 256 299.5 438t491.5 182t396 -183q33 -47 53 -97q22 -37 22 -82q0 -28 -8 -58q-25 -90 -107 -155t-177 -65t-143 68l-45 82q-38 50 -109 50t-137 -52t-86 -128l-21 -80h75q95 0 143 -65q31 -43 31 -97q0 -28 -8 -58q-25 -90 -107 -155t-177 -65h-75
l-75 -280q-25 -90 -107 -155t-177 -65t-143 65q-32 43 -32 96q0 28 9 59z" />
    <glyph glyph-name="g" unicode="g" horiz-adv-x="1600" 
d="M1053 501.5q103 81.5 135 198.5q11 40 11 76q0 69 -39 123q-60 81 -172 81t-215.5 -81.5t-134.5 -198.5q-11 -41 -11 -77q0 -68 39 -121q60 -82 172 -82t215 81.5zM1008 30q-117 -50 -288 -50q-302 0 -457 212q-102 139 -102 316q0 91 27 192q79 297 347 508.5t570 211.5
q312 0 464 -206q98 -134 98 -311q0 -95 -29 -203l-188 -700q-69 -256 -299.5 -438t-491.5 -182q-95 0 -142 65q-32 43 -32 97q0 28 8 58q24 90 106.5 155t177.5 65q71 0 137 52t86 128z" />
    <glyph glyph-name="h" unicode="h" 
d="M825 1398q68 22 180 22q261 0 395 -182q88 -120 88 -272q0 -79 -24 -166l-160 -600q-25 -90 -107 -155t-177 -65t-143 65q-32 43 -32 96q0 28 9 59l160 600q7 27 7 51q0 44 -24 77q-38 52 -109 52t-137 -52t-87 -128l-160 -600q-25 -90 -107 -155t-177 -65t-143 65
q-32 43 -32 96q0 28 9 59l321 1200q24 90 106.5 155t177.5 65t143 -65q31 -43 31 -97q0 -28 -8 -58v-2z" />
    <glyph glyph-name="i" unicode="i" horiz-adv-x="600" 
d="M504 200q-25 -90 -107 -155t-177 -65t-143 65q-32 43 -32 96q0 28 9 59l268 1000q24 90 106 155t177 65t143 -65q32 -43 32 -98q0 -27 -8 -57zM648 1580q-95 0 -142 65q-32 43 -32 97q0 28 8 58q24 90 106.5 155t177.5 65t143 -65q31 -43 31 -97q0 -28 -8 -58
q-24 -90 -106.5 -155t-177.5 -65z" />
    <glyph glyph-name="j" unicode="j" horiz-adv-x="600" 
d="M-223 -180q71 0 137 52t86 128l322 1200q24 90 106 155t177 65t143 -65q32 -43 32 -98q0 -27 -8 -57l-322 -1200q-69 -256 -299.5 -438t-491.5 -182q-95 0 -142 65q-32 43 -32 97q0 28 8 58q24 90 106.5 155t177.5 65zM648 1580q-95 0 -142 65q-32 43 -32 97q0 28 8 58
q24 90 106.5 155t177.5 65t143 -65q31 -43 31 -97q0 -28 -8 -58q-24 -90 -106.5 -155t-177.5 -65z" />
    <glyph glyph-name="k" unicode="k" 
d="M674 836l553 518q83 66 178 66t143 -65q32 -43 32 -98q0 -27 -8 -57q-25 -90 -104 -153l-376 -347l190 -346q30 -42 30 -95q0 -28 -8 -59q-25 -90 -107 -155t-177 -65t-143 68l-159 300l-275 -260q-19 -22 -46 -43q-82 -65 -177 -65t-143 65q-32 43 -32 96q0 28 9 59
l321 1200q24 90 106.5 155t177.5 65t143 -65q31 -43 31 -97q0 -28 -8 -58z" />
    <glyph glyph-name="l" unicode="l" horiz-adv-x="600" 
d="M504 200q-25 -90 -107 -155t-177 -65t-143 65q-32 43 -32 96q0 28 9 59l321 1200q24 90 106.5 155t177.5 65t143 -65q31 -43 31 -97q0 -28 -8 -58z" />
    <glyph glyph-name="m" unicode="m" horiz-adv-x="1800" 
d="M1704 200q-25 -90 -107 -155t-177 -65t-143 65q-32 43 -32 96q0 28 9 59l187 700q3 12 3 23q0 19 -10 34q-17 23 -46 23t-58.5 -23t-38.5 -57l-187 -700q-25 -90 -107 -155t-177 -65t-143 65q-32 43 -32 96q0 28 9 59l187 700q3 12 3 23q0 19 -10 34q-17 23 -46 23
t-58.5 -23t-38.5 -57l-187 -700q-25 -90 -107 -155t-177 -65t-143 65q-32 43 -32 96q0 28 9 59l187 700q56 207 254 363.5t410 156.5q181 0 276 -91q143 91 324 91q219 0 331 -153q74 -101 74 -230q0 -65 -19 -137z" />
    <glyph glyph-name="n" unicode="n" 
d="M1005 1420q261 0 395 -182q88 -120 88 -272q0 -79 -24 -166l-160 -600q-25 -90 -107 -155t-177 -65t-143 65q-32 43 -32 96q0 28 9 59l160 600q7 27 7 51q0 44 -24 77q-38 52 -109 52t-137 -52t-87 -128l-160 -600q-25 -90 -107 -155t-177 -65t-143 65q-32 43 -32 96
q0 28 9 59l160 600q69 257 299 438.5t492 181.5z" />
    <glyph glyph-name="o" unicode="o" horiz-adv-x="1600" 
d="M720 -20q-302 0 -457 212q-102 139 -102 316q0 91 27 192q79 297 347 508.5t570 211.5t457 -211q103 -141 103 -318q0 -91 -27 -191q-80 -297 -348 -508.5t-570 -211.5zM1053 501.5q103 81.5 135 198.5q11 40 11 76q0 69 -39 123q-60 81 -172 81t-215.5 -81.5
t-134.5 -198.5q-11 -41 -11 -77q0 -68 39 -121q60 -82 172 -82t215 81.5z" />
    <glyph glyph-name="p" unicode="p" horiz-adv-x="1600" 
d="M1053 501.5q103 81.5 135 198.5q11 40 11 76q0 69 -39 123q-60 81 -172 81t-215.5 -81.5t-134.5 -198.5q-11 -41 -11 -77q0 -68 39 -121q60 -82 172 -82t215 81.5zM188 700q79 297 347 508.5t570 211.5t457 -211q103 -141 103 -318q0 -91 -27 -191q-80 -297 -348 -508.5
t-570 -211.5q-171 0 -262 50l-115 -430q-24 -90 -106.5 -155t-177.5 -65t-142 65q-32 43 -32 97q0 28 8 58z" />
    <glyph glyph-name="q" unicode="q" horiz-adv-x="1600" 
d="M838 420q112 0 215 81.5t135 198.5q11 40 11 76q0 69 -39 123q-60 81 -172 81t-215.5 -81.5t-134.5 -198.5q-11 -41 -11 -77q0 -68 39 -121q60 -82 172 -82zM1343 -400q-24 -90 -106.5 -155t-177.5 -65t-142 65q-32 43 -32 97q0 28 8 58l115 430q-117 -50 -288 -50
q-302 0 -457 212q-102 139 -102 316q0 91 27 192q79 297 347 508.5t570 211.5t457 -211q103 -141 103 -318q0 -91 -27 -191z" />
    <glyph glyph-name="r" unicode="r" horiz-adv-x="1350" 
d="M1005 1420q261 0 396 -183q34 -47 53 -97q22 -37 22 -82q0 -27 -8 -58q-24 -90 -106.5 -155t-177.5 -65t-143 68l-45 82q-37 50 -108 50t-137 -52t-87 -128l-160 -600q-25 -90 -107 -155t-177 -65t-143 65q-32 43 -32 96q0 28 9 59l160 600q83 307 281 463.5t510 156.5z
" />
    <glyph glyph-name="s" unicode="s" horiz-adv-x="1150" 
d="M588 420h50q9 0 19 8t14 22q1 5 1 9q0 8 -3 13q-6 8 -15 8h-50q-198 0 -299 139q-68 91 -68 206q0 60 18 125q51 193 226.5 331.5t373.5 138.5h150q159 0 257 -90l11 -11q18 -18 48 -59q-22 -7 -23 -10q0 -3 17 -3q5 -10 5 -27q0 -26 -12 -70q-24 -90 -106.5 -155
t-177.5 -65q-57 0 -104 27q-39 23 -132 23h-50q-9 0 -19.5 -8t-13.5 -22q-2 -6 -2 -10q0 -7 4 -12q6 -8 15 -8h50q198 0 299 -138q67 -93 67 -209q0 -58 -17 -123q-52 -193 -227.5 -331.5t-373.5 -138.5h-150q-159 0 -257 90l-11 11q-17 18 -38 48l6 9l-1 -1q-11 23 -11 53
q0 27 9 60q24 90 106.5 155t177.5 65q55 0 105 -28q39 -22 132 -22z" />
    <glyph glyph-name="t" unicode="t" horiz-adv-x="1350" 
d="M375 1400q24 90 106.5 155t177.5 65t143 -65q33 -46 33 -95q0 -20 -5 -40h75q95 0 143 -65q32 -43 32 -98q0 -27 -8 -57q-25 -90 -107 -155t-177 -65h-75l-102 -380q-7 -27 -7 -51q0 -43 25 -77q38 -52 109 -52t135 50l89 82q84 68 179 68t143 -65q31 -43 31 -97
q0 -28 -8 -58q-22 -81 -88 -140q-47 -50 -105 -97q-233 -183 -494 -183t-394 182q-89 120 -89 272q0 79 24 166z" />
    <glyph glyph-name="u" unicode="u" 
d="M225 162q-88 119 -88 271q0 79 24 167l161 600q24 90 106 155t177 65t143 -65q32 -43 32 -98q0 -27 -8 -57l-161 -600q-7 -27 -7 -51q0 -43 25 -77q38 -52 109 -52t136.5 52t86.5 128l161 600q24 90 106 155t177 65t143 -65q32 -43 32 -98q0 -27 -8 -57l-161 -600
q-69 -256 -299.5 -438t-491.5 -182q-262 0 -395 182z" />
    <glyph glyph-name="v" unicode="v" 
d="M319 1095q-1 17 -1 36q0 32 3 68q25 91 107 156t177 65t145 -67q28 -54 28 -108h-1l66 -433l298 433h-1q28 54 87 109q83 66 178 66t143 -65q32 -43 32 -97q0 -28 -9 -59q-25 -58 -54 -104l-622 -925q-39 -70 -95 -122q-85 -68 -180 -68t-143 67q-29 53 -30 123z" />
    <glyph glyph-name="w" unicode="w" horiz-adv-x="2200" 
d="M1132 1233l9 12h-3q28 61 91 111q81 64 176 64t141 -63q34 -50 34 -103v-9h-3l1 -12l65 -421l298 433h-1q28 54 87 109q83 66 178 66t143 -65q32 -43 32 -97q0 -28 -9 -59q-25 -58 -54 -104l-622 -925q-39 -70 -95 -122q-85 -68 -180 -68t-143 67q-29 53 -30 123l-60 433
l-292 -433q-39 -70 -95 -122q-85 -68 -180 -68t-143 67q-29 53 -30 123l-128 925q-1 17 -1 36q0 32 3 68q25 91 107 156t177 65t145 -67q28 -54 28 -108h-1l66 -433z" />
    <glyph glyph-name="x" unicode="x" 
d="M1092 700l190 -346q30 -42 30 -95q0 -28 -8 -59q-25 -90 -107 -155t-177 -65t-143 68l-159 300l-318 -300q-85 -68 -180 -68t-143 65q-32 43 -32 96q0 28 9 59q24 90 105 154l375 346l-189 347q-32 41 -32 94q0 28 9 59q24 90 106 155t177 65t145 -66l157 -302l320 301
q83 67 178 67t143 -65q32 -43 32 -98q0 -27 -8 -57q-25 -90 -104 -153z" />
    <glyph glyph-name="y" unicode="y" 
d="M1572 1200q-24 -87 -63 -132l-1080 -1588h-3q-12 -12 -40 -35q-82 -65 -177 -65t-142 65q-32 43 -32 97q0 28 8 58q16 59 33 80h4l360 534l-121 881q-1 17 -1 36q0 32 3 68q25 91 107 156t177 65t145 -67q28 -54 28 -108h-1l66 -432l33 49l265 383h-1q28 54 87 109
q83 66 178 66t143 -65q32 -43 32 -98q0 -27 -8 -57z" />
    <glyph glyph-name="z" unicode="z" 
d="M1138 420q95 0 143 -65q31 -43 31 -97q0 -28 -8 -58q-25 -90 -107 -155t-177 -65h-800q-95 0 -143 65q-32 43 -32 96q0 28 9 59q24 90 105 154l671 626h-342q-95 0 -143 65q-32 43 -32 96q0 28 9 59q24 90 106 155t177 65h800q95 0 143 -65q32 -43 32 -98q0 -27 -8 -57
q-25 -90 -104 -153l-672 -627h342z" />
    <glyph glyph-name="braceleft" unicode="{" horiz-adv-x="1350" 
d="M1095 1100q-47 -176 -176 -300q35 -71 35 -158q0 -66 -20 -142l-67 -250q-7 -26 -7 -50q0 -44 25 -78q38 -52 109 -52q95 0 143 -65q31 -43 31 -97q0 -28 -8 -58q-24 -90 -106.5 -155t-177.5 -65q-261 0 -394 182q-89 120 -89 272q0 79 24 166l67 250q3 12 3 22
q0 20 -11 35q-17 23 -46 23h-50q-95 0 -142 65q-32 43 -32 97q0 28 8 58q24 90 106.5 155t177.5 65h50q29 0 58.5 23t38.5 57l94 350q68 256 299 438t492 182q95 0 143 -65q31 -43 31 -97q0 -28 -8 -58q-24 -90 -106.5 -155t-177.5 -65q-71 0 -137 -52t-86 -128z" />
    <glyph glyph-name="bar" unicode="|" horiz-adv-x="600" 
d="M396 -200q-24 -90 -106.5 -155t-177.5 -65t-142 65q-32 43 -32 97q0 28 8 58l536 2000q24 90 106.5 155t177.5 65t143 -65q31 -43 31 -97q0 -28 -8 -58z" />
    <glyph glyph-name="braceright" unicode="}" horiz-adv-x="1350" 
d="M789 1450q7 26 7 50q0 44 -25 78q-38 52 -109 52q-95 0 -142 65q-32 43 -32 97q0 28 8 58q24 90 106.5 155t177.5 65q261 0 394 -182q88 -120 88 -273q0 -78 -23 -165l-94 -350q-3 -12 -3 -23q0 -19 11 -34q16 -23 45 -23h50q95 0 143 -65q31 -43 31 -97q0 -28 -8 -58
q-24 -90 -106.5 -155t-177.5 -65h-50q-29 0 -58 -23t-38 -57l-67 -250q-69 -256 -299.5 -438t-491.5 -182q-95 0 -142 65q-32 43 -32 97q0 28 8 58q24 90 106.5 155t177.5 65q71 0 137 52t86 128l67 250q47 176 175 300q-34 70 -34 157q0 66 20 143z" />
    <glyph glyph-name="asciitilde" unicode="~" horiz-adv-x="1700" 
d="M1689 2200q25 90 107 155t177 65t143 -65q32 -43 32 -96q0 -28 -9 -59q-57 -214 -251 -367t-413 -153q-240 0 -304 160q-49 89 -67.5 114.5t-47.5 25.5t-58.5 -23t-38.5 -57q-24 -90 -106.5 -155t-177.5 -65t-142 65q-32 43 -32 97q0 28 8 58q57 214 251 367t413 153
q240 0 305 -160q49 -89 67.5 -114.5t47.5 -25.5t58 23t38 57z" />
    <glyph glyph-name="exclamdown" unicode="&#xa1;" horiz-adv-x="600" 
d="M504 200q-25 -90 -107 -155t-177 -65t-143 65q-32 43 -32 96q0 28 9 59l160 600q24 90 106.5 155t177.5 65t143 -65q31 -43 31 -97q0 -28 -8 -58zM541 1180q-95 0 -142 65q-32 43 -32 97q0 28 8 58q24 90 106.5 155t177.5 65t143 -65q31 -43 31 -97q0 -28 -8 -58
q-24 -90 -106.5 -155t-177.5 -65z" />
    <glyph glyph-name="cent" unicode="&#xa2;" horiz-adv-x="1500" 
d="M864 520q112 0 216 82q10 8 15 10q17 20 47 44q81 64 176 64t143 -65q31 -43 31 -97q0 -28 -8 -58q-24 -90 -107 -155l-1 -1q-23 -24 -60 -53q-169 -133 -336 -178l-3 -13q-24 -90 -106.5 -155t-177.5 -65t-142 65q-32 43 -32 97q0 28 8 58l3 13q-143 45 -240 178
q-103 140 -103 318q0 91 27 191q80 297 349 509q168 133 335 178l4 13q24 90 106.5 155t177.5 65t143 -65q31 -43 31 -97q0 -28 -8 -58l-4 -13q143 -45 241 -178q21 -29 31 -52l2 -1q31 -44 31 -98q0 -28 -8 -58q-24 -90 -106.5 -155t-177.5 -65t-143 66q-17 22 -23 43
q-3 2 -9 9q-60 82 -172 82t-215 -81.5t-135 -198.5q-11 -40 -11 -76q0 -69 40 -122q59 -82 171 -82z" />
    <glyph glyph-name="sterling" unicode="&#xa3;" horiz-adv-x="1550" 
d="M1288 420q95 0 143 -65q31 -43 31 -97q0 -28 -8 -58q-25 -90 -107 -155t-177 -65h-950q-95 0 -143 65q-32 43 -32 96q0 28 9 59q24 90 106.5 155t152.5 65l16 60q-70 0 -118 65q-32 43 -32 96q0 28 9 59q24 90 106.5 155t152.5 65l21 80q69 256 299.5 438t491.5 182
t396 -183q33 -47 53 -97q22 -37 22 -82q0 -28 -8 -58q-25 -90 -107 -155t-177 -65t-143 68l-45 82q-38 50 -109 50t-137 -52t-86 -128l-21 -80h75q95 0 143 -65q31 -43 31 -97q0 -28 -8 -58q-25 -90 -107 -155t-177 -65h-75l-16 -60h525z" />
    <glyph glyph-name="currency" unicode="&#xa4;" 
d="M928 672q66 52 86 128q7 27 7 51q0 44 -24 77q-38 52 -109 52t-137 -52t-87 -128q-7 -26 -7 -50q0 -44 25 -78q38 -52 109 -52t137 52zM1188 1393l66 61q83 66 178 66t143 -65q31 -43 31 -97q0 -28 -8 -58q-24 -90 -104 -153l-30 -29q25 -67 25 -146q0 -80 -25 -172
q-49 -183 -171 -318l16 -28q30 -41 30 -94q0 -28 -9 -60q-24 -90 -106.5 -155t-177.5 -65t-142 68l-33 59q-86 -27 -198 -27t-183 27l-63 -59q-86 -68 -181 -68t-142 65q-32 43 -32 97q0 28 8 58q25 90 106 154l29 27q-25 68 -25 149q0 79 24 170q50 184 173 319l-16 28
q-31 42 -31 95q0 28 8 58q24 90 106.5 155t177.5 65t145 -66l31 -61q86 27 197 27q112 0 183 -27z" />
    <glyph glyph-name="yen" unicode="&#xa5;" 
d="M1279 1554q85 66 180 66t143 -65q31 -43 31 -97q0 -28 -8 -58q-23 -87 -64 -134l-258 -273q15 -7 39 -39q30 -42 30 -95q0 -28 -8 -59q-24 -90 -106.5 -155t-177.5 -65h-75l-16 -60h75q95 0 143 -65q32 -43 32 -96q0 -28 -9 -59q-24 -90 -106.5 -155t-177.5 -65h-110
q-11 -12 -39 -35q-82 -65 -177 -65t-143 66q-16 21 -21 34h-110q-95 0 -142 65q-32 43 -32 97q0 28 8 58q25 90 107 155t177 65h75l16 60h-75q-95 0 -142 65q-32 43 -32 97q0 28 8 58q24 90 108 156q38 30 57 37l-112 273q-6 19 -6 43q0 38 14 91q24 90 106.5 155t177.5 65
t144 -66q11 -15 13 -18l132 -331l310 331q2 3 21 18z" />
    <glyph glyph-name="brokenbar" unicode="&#xa6;" horiz-adv-x="600" 
d="M396 -200q-24 -90 -106.5 -155t-177.5 -65t-142 65q-32 43 -32 97q0 28 8 58l161 600q24 90 106.5 155t177.5 65t143 -65q31 -43 31 -97q0 -28 -8 -58zM772 1200q-25 -90 -107 -155t-177 -65t-143 65q-32 43 -32 96q0 28 9 59l160 600q24 90 106.5 155t177.5 65t143 -65
q31 -43 31 -97q0 -28 -8 -58z" />
    <glyph glyph-name="section" unicode="&#xa7;" horiz-adv-x="1650" 
d="M1028 672q66 52 86 128q7 27 7 51q0 44 -24 77q-38 52 -109 52t-137 -52t-87 -128q-7 -26 -7 -50q0 -44 25 -78q38 -52 109 -52t137 52zM355 916q-34 88 -34 190q0 91 27 194q80 297 348 508.5t570 211.5t457 -211q21 -29 31 -52l2 -1q31 -44 31 -98q0 -28 -8 -58
q-24 -90 -106.5 -155t-177.5 -65t-143 66q-17 22 -23 43q-3 2 -9 9q-60 82 -172 82t-216 -82q-92 -73 -113 -135q112 57 286 57q261 0 395 -182q88 -120 88 -272q0 -79 -24 -166q-17 -63 -41 -116q35 -88 35 -190q0 -91 -28 -194q-79 -297 -347.5 -508.5t-570.5 -211.5
t-456 211q-21 29 -32 53l-1 1q-31 43 -31 97q0 28 8 58q24 90 106.5 155t177.5 65t142 -64q16 -24 23 -44q3 -2 9 -10q60 -82 172 -82t216 82q93 73 114 135q-113 -57 -287 -57q-261 0 -394 182q-88 120 -88 273q0 78 23 165q17 63 41 116z" />
    <glyph glyph-name="dieresis" unicode="&#xa8;" horiz-adv-x="1200" 
d="M702 1780q-95 0 -142 65q-32 43 -32 97q0 28 8 58q24 90 106.5 155t177.5 65t143 -65q31 -43 31 -97q0 -28 -8 -58q-24 -90 -106.5 -155t-177.5 -65zM1302 1780q-95 0 -142 65q-32 43 -32 97q0 28 8 58q24 90 106.5 155t177.5 65t143 -65q31 -43 31 -97q0 -28 -8 -58
q-24 -90 -106.5 -155t-177.5 -65z" />
    <glyph glyph-name="copyright" unicode="&#xa9;" horiz-adv-x="1500" 
d="M1072 1480q-174 0 -333.5 -125.5t-207.5 -304.5q-16 -61 -16 -116q0 -106 60 -188q92 -126 266 -126t333 125.5t207 304.5q17 62 17 117q0 105 -60 188q-92 125 -266 125zM1561 1523q95 -130 95 -295q0 -84 -25 -178q-74 -276 -323.5 -473t-530.5 -197t-425 197
q-96 130 -96 295q0 85 25 178q74 276 324 473t531 197t425 -197zM1183 816q-11 -12 -31 -27q-138 -109 -295 -109t-236 109q-53 73 -53 164q0 46 13 97q41 152 179 261t295 109t238 -110q11 -14 16 -26l-1 1q18 -24 18 -55q0 -14 -4 -30q-13 -48 -58.5 -84t-99.5 -36
q-53 0 -79 37q-9 12 -12 20q-1 1 -4 5q-28 38 -78 38t-97.5 -37.5t-62.5 -92.5q-5 -19 -5 -35q0 -33 19 -57q27 -38 77 -38t98 38q5 4 6 5q8 9 25 22q44 35 97 35q54 0 80 -35q17 -24 17 -54q0 -15 -4 -31q-13 -48 -58 -84z" />
    <glyph glyph-name="ordfeminine" unicode="&#xaa;" horiz-adv-x="1650" 
d="M0 200v1100q0 200 200 200h1100q200 0 200 -200v-1100q0 -200 -200 -200h-1100q-200 0 -200 200zM1475 201v1099q0 175 -175 175h-1100q-174 0 -175 -175v-1100q1 -175 175 -175h1101q174 0 174 176z" />
    <glyph glyph-name="guillemotleft" unicode="&#xab;" horiz-adv-x="1550" 
d="M717 700l190 -346q30 -42 30 -95q0 -28 -8 -59q-25 -90 -107 -155t-177 -65t-143 68l-290 542q-16 35 -16 70q0 20 5 40q14 55 70 110l581 544q83 66 178 66t143 -65q32 -43 32 -98q0 -27 -8 -57q-25 -90 -104 -153zM1342 700l190 -346q30 -42 30 -95q0 -28 -8 -59
q-25 -90 -107 -155t-177 -65t-143 68l-290 542q-16 35 -16 70q0 20 5 40q14 55 70 110l581 544q83 66 178 66t143 -65q32 -43 32 -98q0 -27 -8 -57q-25 -90 -104 -153z" />
    <glyph glyph-name="logicalnot" unicode="&#xac;" horiz-adv-x="1650" 
d="M0 200v1100q0 200 200 200h1100q200 0 200 -200v-1100q0 -200 -200 -200h-1100q-200 0 -200 200zM1475 201v1099q0 175 -175 175h-1100q-174 0 -175 -175v-1100q1 -175 175 -175h1101q174 0 174 176z" />
    <glyph glyph-name="registered" unicode="&#xae;" horiz-adv-x="1500" 
d="M1080 1420q137 0 208 -95q17 -24 27 -50q11 -19 11 -44q0 -14 -4 -31q-13 -48 -58.5 -84t-99.5 -36q-53 0 -79 38l-23 41q-16 21 -46 21q-29 0 -58 -22.5t-38 -57.5l-81 -300q-13 -48 -58 -84t-99 -36q-53 0 -79 36q-18 24 -18 54q0 14 4 30l81 300q42 157 145 238.5
t265 81.5zM1072 1480q-174 0 -333.5 -125.5t-207.5 -304.5q-16 -61 -16 -116q0 -106 60 -188q92 -126 266 -126t333 125.5t207 304.5q17 62 17 117q0 105 -60 188q-92 125 -266 125zM1561 1523q95 -130 95 -295q0 -84 -25 -178q-74 -276 -323.5 -473t-530.5 -197t-425 197
q-96 130 -96 295q0 85 25 178q74 276 324 473t531 197t425 -197z" />
    <glyph glyph-name="macron" unicode="&#xaf;" horiz-adv-x="1650" 
d="M0 200v1100q0 200 200 200h1100q200 0 200 -200v-1100q0 -200 -200 -200h-1100q-200 0 -200 200zM1475 201v1099q0 175 -175 175h-1100q-174 0 -175 -175v-1100q1 -175 175 -175h1101q174 0 174 176z" />
    <glyph glyph-name="degree" unicode="&#xb0;" 
d="M727 380q-261 0 -394 182q-89 120 -89 272q0 79 24 166q69 256 299.5 438t491.5 182t395 -182q88 -120 88 -272q0 -79 -24 -166q-69 -256 -299.5 -438t-491.5 -182zM982 872q66 52 86 128q7 26 7 50q0 44 -25 78q-38 52 -109 52t-137 -52t-86 -128q-7 -26 -7 -50
q0 -44 25 -78q38 -52 109 -52t137 52z" />
    <glyph glyph-name="plusminus" unicode="&#xb1;" horiz-adv-x="1650" 
d="M0 200v1100q0 200 200 200h1100q200 0 200 -200v-1100q0 -200 -200 -200h-1100q-200 0 -200 200zM1475 201v1099q0 175 -175 175h-1100q-174 0 -175 -175v-1100q1 -175 175 -175h1101q174 0 174 176z" />
    <glyph glyph-name="uni00B2" unicode="&#xb2;" horiz-adv-x="1650" 
d="M0 200v1100q0 200 200 200h1100q200 0 200 -200v-1100q0 -200 -200 -200h-1100q-200 0 -200 200zM1475 201v1099q0 175 -175 175h-1100q-174 0 -175 -175v-1100q1 -175 175 -175h1101q174 0 174 176z" />
    <glyph glyph-name="uni00B3" unicode="&#xb3;" horiz-adv-x="1650" 
d="M0 200v1100q0 200 200 200h1100q200 0 200 -200v-1100q0 -200 -200 -200h-1100q-200 0 -200 200zM1475 201v1099q0 175 -175 175h-1100q-174 0 -175 -175v-1100q1 -175 175 -175h1101q174 0 174 176z" />
    <glyph glyph-name="acute" unicode="&#xb4;" horiz-adv-x="1200" 
d="M850 1744q-116 -64 -175 -64q-95 0 -142 65q-32 43 -32 97q0 28 8 58q24 90 108 156l710 402q114 62 173 62q95 0 143 -65q31 -43 31 -97q0 -28 -8 -58q-24 -90 -106 -155z" />
    <glyph glyph-name="mu" unicode="&#xb5;" 
d="M611 600q-7 -27 -7 -51q0 -43 25 -77q38 -52 109 -52t136.5 52t86.5 128l161 600q24 90 106 155t177 65t143 -65q32 -43 32 -98q0 -27 -8 -57l-268 -1000q-25 -90 -107 -155t-177 -65q-94 0 -133 51q-118 -51 -267 -51q-112 0 -169 22l-108 -402q-24 -90 -106.5 -155
t-177.5 -65t-142 65q-32 43 -32 97q0 28 8 58l429 1600q24 90 106 155t177 65t143 -65q32 -43 32 -98q0 -27 -8 -57z" />
    <glyph glyph-name="paragraph" unicode="&#xb6;" horiz-adv-x="1600" 
d="M1266 1180l-262 -980q-25 -90 -107 -155t-177 -65t-143 65q-32 43 -32 96q0 28 9 59l101 380q-194 0 -306 153q-74 101 -74 228q0 66 20 139q57 214 251 367t413 153h700q95 0 143 -65q31 -43 31 -97q0 -28 -8 -58l-321 -1200q-25 -90 -107 -155t-177 -65t-143 65
q-32 43 -32 96q0 28 9 59l262 980h-50z" />
    <glyph glyph-name="periodcentered" unicode="&#xb7;" horiz-adv-x="600" 
d="M380 580q-95 0 -142 65q-32 43 -32 97q0 28 8 58q24 90 106.5 155t177.5 65t143 -65q31 -43 31 -97q0 -28 -8 -58q-24 -90 -106.5 -155t-177.5 -65z" />
    <glyph glyph-name="periodcentered" unicode="&#x2219;" horiz-adv-x="600" 
d="M380 580q-95 0 -142 65q-32 43 -32 97q0 28 8 58q24 90 106.5 155t177.5 65t143 -65q31 -43 31 -97q0 -28 -8 -58q-24 -90 -106.5 -155t-177.5 -65z" />
    <glyph glyph-name="cedilla" unicode="&#xb8;" horiz-adv-x="1000" 
d="M177 -180q71 0 137 52t86 128q24 90 106.5 155t177.5 65t143 -65q31 -43 31 -97q0 -28 -8 -58q-69 -256 -299.5 -438t-491.5 -182q-95 0 -142 65q-32 43 -32 97q0 28 8 58q24 90 106.5 155t177.5 65z" />
    <glyph glyph-name="uni00B9" unicode="&#xb9;" horiz-adv-x="1650" 
d="M0 200v1100q0 200 200 200h1100q200 0 200 -200v-1100q0 -200 -200 -200h-1100q-200 0 -200 200zM1475 201v1099q0 175 -175 175h-1100q-174 0 -175 -175v-1100q1 -175 175 -175h1101q174 0 174 176z" />
    <glyph glyph-name="ordmasculine" unicode="&#xba;" horiz-adv-x="1650" 
d="M0 200v1100q0 200 200 200h1100q200 0 200 -200v-1100q0 -200 -200 -200h-1100q-200 0 -200 200zM1475 201v1099q0 175 -175 175h-1100q-174 0 -175 -175v-1100q1 -175 175 -175h1101q174 0 174 176z" />
    <glyph glyph-name="guillemotright" unicode="&#xbb;" horiz-adv-x="1550" 
d="M982 1047q-31 41 -31 94q0 28 9 59q24 90 106 155t177 65t144 -66l289 -544q17 -36 17 -72q0 -19 -5 -38q-15 -55 -71 -110l-580 -542q-84 -68 -179 -68t-143 65q-32 43 -32 96q0 28 9 59q24 90 104 154l376 346zM357 1047q-31 41 -31 94q0 28 9 59q24 90 106 155t177 65
t144 -66l289 -544q17 -36 17 -72q0 -19 -5 -38q-15 -55 -71 -110l-580 -542q-84 -68 -179 -68t-143 65q-32 43 -32 96q0 28 9 59q24 90 104 154l376 346z" />
    <glyph glyph-name="onequarter" unicode="&#xbc;" horiz-adv-x="1650" 
d="M0 200v1100q0 200 200 200h1100q200 0 200 -200v-1100q0 -200 -200 -200h-1100q-200 0 -200 200zM1475 201v1099q0 175 -175 175h-1100q-174 0 -175 -175v-1100q1 -175 175 -175h1101q174 0 174 176z" />
    <glyph glyph-name="onehalf" unicode="&#xbd;" horiz-adv-x="1650" 
d="M0 200v1100q0 200 200 200h1100q200 0 200 -200v-1100q0 -200 -200 -200h-1100q-200 0 -200 200zM1475 201v1099q0 175 -175 175h-1100q-174 0 -175 -175v-1100q1 -175 175 -175h1101q174 0 174 176z" />
    <glyph glyph-name="threequarters" unicode="&#xbe;" horiz-adv-x="1650" 
d="M0 200v1100q0 200 200 200h1100q200 0 200 -200v-1100q0 -200 -200 -200h-1100q-200 0 -200 200zM1475 201v1099q0 175 -175 175h-1100q-174 0 -175 -175v-1100q1 -175 175 -175h1101q174 0 174 176z" />
    <glyph glyph-name="questiondown" unicode="&#xbf;" horiz-adv-x="1200" 
d="M959 1620q95 0 143 -65q31 -43 31 -97q0 -28 -8 -58q-24 -90 -106.5 -155t-177.5 -65t-142 65q-32 43 -32 97q0 28 8 58q24 90 106.5 155t177.5 65zM786 602q-51 -22 -106 -22q-29 0 -58 -23t-38 -57q-3 -12 -3 -22q0 -20 11 -35q17 -23 46 -23t58 23t38 57q15 56 52 102
zM912 698q51 22 106 22q95 0 143 -65q31 -43 31 -97q0 -28 -8 -58q-57 -214 -251 -367t-413 -153t-331 153q-74 101 -74 230q0 65 19 137q57 214 251 367t413 153q95 0 143 -65q31 -43 31 -97q0 -28 -8 -58q-15 -56 -52 -102z" />
    <glyph glyph-name="Agrave" unicode="&#xc0;" horiz-adv-x="1800" 
d="M515 180l-77 -100h-2q-11 -12 -37 -34q-84 -66 -179 -66t-143 65q-32 43 -32 96q0 28 9 59q15 59 33 80h1l952 1240h2q12 13 39 34q83 66 178 66t143 -65q15 -23 20 -35h2l288 -1240h1q2 -6 2 -15q0 -23 -11 -65q-25 -90 -107 -155t-177 -65t-142 64q-17 24 -22 36h-2
l-23 100h-716zM1129 620l-64 276l-212 -276h276zM941 2145q-33 44 -33 98q0 27 8 57q24 90 106.5 155t177.5 65q58 0 142 -62l494 -402q31 -44 31 -98q0 -28 -8 -58q-24 -90 -106.5 -155t-177.5 -65q-59 0 -140 64z" />
    <glyph glyph-name="Aacute" unicode="&#xc1;" horiz-adv-x="1800" 
d="M515 180l-77 -100h-2q-11 -12 -37 -34q-84 -66 -179 -66t-143 65q-32 43 -32 96q0 28 9 59q15 59 33 80h1l952 1240h2q12 13 39 34q83 66 178 66t143 -65q15 -23 20 -35h2l288 -1240h1q2 -6 2 -15q0 -23 -11 -65q-25 -90 -107 -155t-177 -65t-142 64q-17 24 -22 36h-2
l-23 100h-716zM1129 620l-64 276l-212 -276h276zM1150 1744q-116 -64 -175 -64q-95 0 -142 65q-32 43 -32 97q0 28 8 58q24 90 108 156l710 402q114 62 173 62q95 0 143 -65q31 -43 31 -97q0 -28 -8 -58q-24 -90 -106 -155z" />
    <glyph glyph-name="Acircumflex" unicode="&#xc2;" horiz-adv-x="1800" 
d="M515 180l-77 -100h-2q-11 -12 -37 -34q-84 -66 -179 -66t-143 65q-32 43 -32 96q0 28 9 59q15 59 33 80h1l952 1240h2q12 13 39 34q83 66 178 66t143 -65q15 -23 20 -35h2l288 -1240h1q2 -6 2 -15q0 -23 -11 -65q-25 -90 -107 -155t-177 -65t-142 64q-17 24 -22 36h-2
l-23 100h-716zM1129 620l-64 276l-212 -276h276zM1363 2003l-359 -257q-84 -66 -179 -66t-142 65q-32 43 -32 97q0 28 8 58q24 90 107 155l557 400q82 65 177 65t144 -65l343 -400q30 -43 30 -96q0 -28 -8 -59q-24 -90 -106.5 -155t-177.5 -65t-142 66z" />
    <glyph glyph-name="Atilde" unicode="&#xc3;" horiz-adv-x="1800" 
d="M515 180l-77 -100h-2q-11 -12 -37 -34q-84 -66 -179 -66t-143 65q-32 43 -32 96q0 28 9 59q15 59 33 80h1l952 1240h2q12 13 39 34q83 66 178 66t143 -65q15 -23 20 -35h2l288 -1240h1q2 -6 2 -15q0 -23 -11 -65q-25 -90 -107 -155t-177 -65t-142 64q-17 24 -22 36h-2
l-23 100h-716zM1129 620l-64 276l-212 -276h276zM1739 2200q25 90 107 155t177 65t143 -65q32 -43 32 -96q0 -28 -9 -59q-57 -214 -251 -367t-413 -153q-240 0 -304 160q-49 89 -67.5 114.5t-47.5 25.5t-58.5 -23t-38.5 -57q-24 -90 -106.5 -155t-177.5 -65t-142 65
q-32 43 -32 97q0 28 8 58q57 214 251 367t413 153q240 0 305 -160q49 -89 67.5 -114.5t47.5 -25.5t58 23t38 57z" />
    <glyph glyph-name="Adieresis" unicode="&#xc4;" horiz-adv-x="1800" 
d="M515 180l-77 -100h-2q-11 -12 -37 -34q-84 -66 -179 -66t-143 65q-32 43 -32 96q0 28 9 59q15 59 33 80h1l952 1240h2q12 13 39 34q83 66 178 66t143 -65q15 -23 20 -35h2l288 -1240h1q2 -6 2 -15q0 -23 -11 -65q-25 -90 -107 -155t-177 -65t-142 64q-17 24 -22 36h-2
l-23 100h-716zM1129 620l-64 276l-212 -276h276zM1002 1780q-95 0 -142 65q-32 43 -32 97q0 28 8 58q24 90 106.5 155t177.5 65t143 -65q31 -43 31 -97q0 -28 -8 -58q-24 -90 -106.5 -155t-177.5 -65zM1602 1780q-95 0 -142 65q-32 43 -32 97q0 28 8 58q24 90 106.5 155
t177.5 65t143 -65q31 -43 31 -97q0 -28 -8 -58q-24 -90 -106.5 -155t-177.5 -65z" />
    <glyph glyph-name="Aring" unicode="&#xc5;" horiz-adv-x="1800" 
d="M515 180l-77 -100h-2q-11 -12 -37 -34q-84 -66 -179 -66t-143 65q-32 43 -32 96q0 28 9 59q15 59 33 80h1l952 1240h2q12 13 39 34q83 66 178 66t143 -65q15 -23 20 -35h2l288 -1240h1q2 -6 2 -15q0 -23 -11 -65q-25 -90 -107 -155t-177 -65t-142 64q-17 24 -22 36h-2
l-23 100h-716zM1129 620l-64 276l-212 -276h276zM1302 1780q-95 0 -142 65q-32 43 -32 97q0 28 8 58q24 90 106.5 155t177.5 65t143 -65q31 -43 31 -97q0 -28 -8 -58q-24 -90 -106.5 -155t-177.5 -65z" />
    <glyph glyph-name="AE" unicode="&#xc6;" horiz-adv-x="2200" 
d="M817 620l-5 77l-47 -77h52zM1226 1523h2q13 0 55 33q81 64 176 64h800q95 0 143 -65q31 -43 31 -97q0 -28 -8 -58q-24 -90 -106.5 -155t-177.5 -65h-575l-43 -160h375q95 0 143 -65q31 -43 31 -97q0 -28 -8 -58q-24 -90 -106.5 -155t-177.5 -65h-375l-42 -160h575
q95 0 143 -65q31 -43 31 -97q0 -28 -8 -58q-25 -90 -107 -155t-177 -65h-800q-95 0 -142 67q-33 41 -33 94q0 7 1 14h2l-2 25h-346l-14 -25q-29 -54 -86 -107q-85 -68 -180 -68t-143 65q-32 43 -32 97q0 28 9 59q25 58 54 105l676 1124q39 70 96 123q84 67 179 67t144 -68
q22 -40 27 -92z" />
    <glyph glyph-name="Ccedilla" unicode="&#xc7;" horiz-adv-x="1650" 
d="M602 9q-182 48 -301 214q-117 158 -117 360q0 103 30 217q91 338 396.5 579t648.5 241t520 -242q5 -5 8 -10q5 -5 12 -13q31 -43 31 -97q0 -28 -8 -58q-25 -90 -107 -155t-177 -65t-143 66q-6 7 -9 13q-4 3 -10 10q-81 111 -235 111t-294 -110.5t-183 -269.5
q-14 -54 -14 -103q0 -94 53 -166q81 -111 235 -111t294 111q8 6 14 10q6 5 19 15q81 64 176 64t143 -65q31 -43 31 -97q0 -28 -8 -58q-24 -90 -106 -155q-12 -9 -24 -17q-5 -4 -9 -7q-209 -164 -416 -212l-2 -9q-69 -256 -299.5 -438t-491.5 -182q-95 0 -142 65
q-32 43 -32 97q0 28 8 58q24 90 106.5 155t177.5 65q71 0 137 52t86 128z" />
    <glyph glyph-name="Egrave" unicode="&#xc8;" 
d="M1098 1020q95 0 143 -65q31 -43 31 -97q0 -28 -8 -58q-24 -90 -106.5 -155t-177.5 -65h-375l-42 -160h575q95 0 143 -65q31 -43 31 -97q0 -28 -8 -58q-25 -90 -107 -155t-177 -65h-800q-95 0 -143 65q-32 43 -32 96q0 28 9 59l321 1200q24 90 106.5 155t177.5 65h800
q95 0 143 -65q31 -43 31 -97q0 -28 -8 -58q-24 -90 -106.5 -155t-177.5 -65h-575l-43 -160h375zM741 2145q-33 44 -33 98q0 27 8 57q24 90 106.5 155t177.5 65q58 0 142 -62l494 -402q31 -44 31 -98q0 -28 -8 -58q-24 -90 -106.5 -155t-177.5 -65q-59 0 -140 64z" />
    <glyph glyph-name="Eacute" unicode="&#xc9;" 
d="M1098 1020q95 0 143 -65q31 -43 31 -97q0 -28 -8 -58q-24 -90 -106.5 -155t-177.5 -65h-375l-42 -160h575q95 0 143 -65q31 -43 31 -97q0 -28 -8 -58q-25 -90 -107 -155t-177 -65h-800q-95 0 -143 65q-32 43 -32 96q0 28 9 59l321 1200q24 90 106.5 155t177.5 65h800
q95 0 143 -65q31 -43 31 -97q0 -28 -8 -58q-24 -90 -106.5 -155t-177.5 -65h-575l-43 -160h375zM950 1744q-116 -64 -175 -64q-95 0 -142 65q-32 43 -32 97q0 28 8 58q24 90 108 156l710 402q114 62 173 62q95 0 143 -65q31 -43 31 -97q0 -28 -8 -58q-24 -90 -106 -155z" />
    <glyph glyph-name="Ecircumflex" unicode="&#xca;" 
d="M1098 1020q95 0 143 -65q31 -43 31 -97q0 -28 -8 -58q-24 -90 -106.5 -155t-177.5 -65h-375l-42 -160h575q95 0 143 -65q31 -43 31 -97q0 -28 -8 -58q-25 -90 -107 -155t-177 -65h-800q-95 0 -143 65q-32 43 -32 96q0 28 9 59l321 1200q24 90 106.5 155t177.5 65h800
q95 0 143 -65q31 -43 31 -97q0 -28 -8 -58q-24 -90 -106.5 -155t-177.5 -65h-575l-43 -160h375zM1163 2003l-359 -257q-84 -66 -179 -66t-142 65q-32 43 -32 97q0 28 8 58q24 90 107 155l557 400q82 65 177 65t144 -65l343 -400q30 -43 30 -96q0 -28 -8 -59
q-24 -90 -106.5 -155t-177.5 -65t-142 66z" />
    <glyph glyph-name="Edieresis" unicode="&#xcb;" 
d="M1098 1020q95 0 143 -65q31 -43 31 -97q0 -28 -8 -58q-24 -90 -106.5 -155t-177.5 -65h-375l-42 -160h575q95 0 143 -65q31 -43 31 -97q0 -28 -8 -58q-25 -90 -107 -155t-177 -65h-800q-95 0 -143 65q-32 43 -32 96q0 28 9 59l321 1200q24 90 106.5 155t177.5 65h800
q95 0 143 -65q31 -43 31 -97q0 -28 -8 -58q-24 -90 -106.5 -155t-177.5 -65h-575l-43 -160h375zM802 1780q-95 0 -142 65q-32 43 -32 97q0 28 8 58q24 90 106.5 155t177.5 65t143 -65q31 -43 31 -97q0 -28 -8 -58q-24 -90 -106.5 -155t-177.5 -65zM1402 1780q-95 0 -142 65
q-32 43 -32 97q0 28 8 58q24 90 106.5 155t177.5 65t143 -65q31 -43 31 -97q0 -28 -8 -58q-24 -90 -106.5 -155t-177.5 -65z" />
    <glyph glyph-name="Igrave" unicode="&#xcc;" horiz-adv-x="600" 
d="M504 200q-25 -90 -107 -155t-177 -65t-143 65q-32 43 -32 96q0 28 9 59l321 1200q24 90 106.5 155t177.5 65t143 -65q31 -43 31 -97q0 -28 -8 -58zM341 2145q-33 44 -33 98q0 27 8 57q24 90 106.5 155t177.5 65q58 0 142 -62l494 -402q31 -44 31 -98q0 -28 -8 -58
q-24 -90 -106.5 -155t-177.5 -65q-59 0 -140 64z" />
    <glyph glyph-name="Iacute" unicode="&#xcd;" horiz-adv-x="600" 
d="M504 200q-25 -90 -107 -155t-177 -65t-143 65q-32 43 -32 96q0 28 9 59l321 1200q24 90 106.5 155t177.5 65t143 -65q31 -43 31 -97q0 -28 -8 -58zM550 1744q-116 -64 -175 -64q-95 0 -142 65q-32 43 -32 97q0 28 8 58q24 90 108 156l710 402q114 62 173 62q95 0 143 -65
q31 -43 31 -97q0 -28 -8 -58q-24 -90 -106 -155z" />
    <glyph glyph-name="Icircumflex" unicode="&#xce;" horiz-adv-x="600" 
d="M504 200q-25 -90 -107 -155t-177 -65t-143 65q-32 43 -32 96q0 28 9 59l321 1200q24 90 106.5 155t177.5 65t143 -65q31 -43 31 -97q0 -28 -8 -58zM763 2003l-359 -257q-84 -66 -179 -66t-142 65q-32 43 -32 97q0 28 8 58q24 90 107 155l557 400q82 65 177 65t144 -65
l343 -400q30 -43 30 -96q0 -28 -8 -59q-24 -90 -106.5 -155t-177.5 -65t-142 66z" />
    <glyph glyph-name="Idieresis" unicode="&#xcf;" horiz-adv-x="600" 
d="M504 200q-25 -90 -107 -155t-177 -65t-143 65q-32 43 -32 96q0 28 9 59l321 1200q24 90 106.5 155t177.5 65t143 -65q31 -43 31 -97q0 -28 -8 -58zM402 1780q-95 0 -142 65q-32 43 -32 97q0 28 8 58q24 90 106.5 155t177.5 65t143 -65q31 -43 31 -97q0 -28 -8 -58
q-24 -90 -106.5 -155t-177.5 -65zM1002 1780q-95 0 -142 65q-32 43 -32 97q0 28 8 58q24 90 106.5 155t177.5 65t143 -65q31 -43 31 -97q0 -28 -8 -58q-24 -90 -106.5 -155t-177.5 -65z" />
    <glyph glyph-name="Eth" unicode="&#xd0;" 
d="M680 580h-75l-42 -160q129 0 269 110.5t182 269.5q15 55 15 104q0 93 -53 166q-81 110 -210 110l-43 -160h75q95 0 143 -65q31 -43 31 -97q0 -28 -8 -58q-24 -90 -106.5 -155t-177.5 -65zM420 -20h-200q-95 0 -143 65q-32 43 -32 96q0 28 9 59l321 1200q24 90 106.5 155
t177.5 65h200q343 0 520 -241q116 -159 116 -360q0 -104 -31 -219q-90 -338 -395.5 -579t-648.5 -241z" />
    <glyph glyph-name="Ntilde" unicode="&#xd1;" 
d="M1045 913l130 487q24 90 106.5 155t177.5 65t143 -65q31 -43 31 -97q0 -28 -8 -58l-321 -1200q-25 -90 -107 -155t-177 -65t-143 66q-16 21 -21 34l-222 607l-130 -487q-25 -90 -107 -155t-177 -65t-143 65q-32 43 -32 96q0 28 9 59l321 1200q24 90 106.5 155t177.5 65
t144 -66q14 -22 19 -34zM1539 2200q25 90 107 155t177 65t143 -65q32 -43 32 -96q0 -28 -9 -59q-57 -214 -251 -367t-413 -153q-240 0 -304 160q-49 89 -67.5 114.5t-47.5 25.5t-58.5 -23t-38.5 -57q-24 -90 -106.5 -155t-177.5 -65t-142 65q-32 43 -32 97q0 28 8 58
q57 214 251 367t413 153q240 0 305 -160q49 -89 67.5 -114.5t47.5 -25.5t58 23t38 57z" />
    <glyph glyph-name="Ograve" unicode="&#xd2;" horiz-adv-x="1800" 
d="M820 -20q-343 0 -519 241q-117 160 -117 362q0 103 30 217q91 338 396.5 579t648.5 241t520 -241q116 -159 116 -360q0 -104 -31 -219q-90 -338 -395.5 -579t-648.5 -241zM1232 530.5q140 110.5 182 269.5q15 55 15 104q0 93 -53 166q-81 110 -235 110t-294 -110.5
t-183 -269.5q-14 -54 -14 -103q0 -94 53 -166q81 -111 235 -111t294 110.5zM941 2145q-33 44 -33 98q0 27 8 57q24 90 106.5 155t177.5 65q58 0 142 -62l494 -402q31 -44 31 -98q0 -28 -8 -58q-24 -90 -106.5 -155t-177.5 -65q-59 0 -140 64z" />
    <glyph glyph-name="Oacute" unicode="&#xd3;" horiz-adv-x="1800" 
d="M820 -20q-343 0 -519 241q-117 160 -117 362q0 103 30 217q91 338 396.5 579t648.5 241t520 -241q116 -159 116 -360q0 -104 -31 -219q-90 -338 -395.5 -579t-648.5 -241zM1232 530.5q140 110.5 182 269.5q15 55 15 104q0 93 -53 166q-81 110 -235 110t-294 -110.5
t-183 -269.5q-14 -54 -14 -103q0 -94 53 -166q81 -111 235 -111t294 110.5zM1150 1744q-116 -64 -175 -64q-95 0 -142 65q-32 43 -32 97q0 28 8 58q24 90 108 156l710 402q114 62 173 62q95 0 143 -65q31 -43 31 -97q0 -28 -8 -58q-24 -90 -106 -155z" />
    <glyph glyph-name="Ocircumflex" unicode="&#xd4;" horiz-adv-x="1800" 
d="M820 -20q-343 0 -519 241q-117 160 -117 362q0 103 30 217q91 338 396.5 579t648.5 241t520 -241q116 -159 116 -360q0 -104 -31 -219q-90 -338 -395.5 -579t-648.5 -241zM1232 530.5q140 110.5 182 269.5q15 55 15 104q0 93 -53 166q-81 110 -235 110t-294 -110.5
t-183 -269.5q-14 -54 -14 -103q0 -94 53 -166q81 -111 235 -111t294 110.5zM1363 2003l-359 -257q-84 -66 -179 -66t-142 65q-32 43 -32 97q0 28 8 58q24 90 107 155l557 400q82 65 177 65t144 -65l343 -400q30 -43 30 -96q0 -28 -8 -59q-24 -90 -106.5 -155t-177.5 -65
t-142 66z" />
    <glyph glyph-name="Otilde" unicode="&#xd5;" horiz-adv-x="1800" 
d="M820 -20q-343 0 -519 241q-117 160 -117 362q0 103 30 217q91 338 396.5 579t648.5 241t520 -241q116 -159 116 -360q0 -104 -31 -219q-90 -338 -395.5 -579t-648.5 -241zM1232 530.5q140 110.5 182 269.5q15 55 15 104q0 93 -53 166q-81 110 -235 110t-294 -110.5
t-183 -269.5q-14 -54 -14 -103q0 -94 53 -166q81 -111 235 -111t294 110.5zM1739 2200q25 90 107 155t177 65t143 -65q32 -43 32 -96q0 -28 -9 -59q-57 -214 -251 -367t-413 -153q-240 0 -304 160q-49 89 -67.5 114.5t-47.5 25.5t-58.5 -23t-38.5 -57q-24 -90 -106.5 -155
t-177.5 -65t-142 65q-32 43 -32 97q0 28 8 58q57 214 251 367t413 153q240 0 305 -160q49 -89 67.5 -114.5t47.5 -25.5t58 23t38 57z" />
    <glyph glyph-name="Odieresis" unicode="&#xd6;" horiz-adv-x="1800" 
d="M820 -20q-343 0 -519 241q-117 160 -117 362q0 103 30 217q91 338 396.5 579t648.5 241t520 -241q116 -159 116 -360q0 -104 -31 -219q-90 -338 -395.5 -579t-648.5 -241zM1232 530.5q140 110.5 182 269.5q15 55 15 104q0 93 -53 166q-81 110 -235 110t-294 -110.5
t-183 -269.5q-14 -54 -14 -103q0 -94 53 -166q81 -111 235 -111t294 110.5zM1002 1780q-95 0 -142 65q-32 43 -32 97q0 28 8 58q24 90 106.5 155t177.5 65t143 -65q31 -43 31 -97q0 -28 -8 -58q-24 -90 -106.5 -155t-177.5 -65zM1602 1780q-95 0 -142 65q-32 43 -32 97
q0 28 8 58q24 90 106.5 155t177.5 65t143 -65q31 -43 31 -97q0 -28 -8 -58q-24 -90 -106.5 -155t-177.5 -65z" />
    <glyph glyph-name="multiply" unicode="&#xd7;" 
d="M1118 800l191 -346q30 -41 30 -94q0 -28 -9 -60q-24 -90 -106.5 -155t-177.5 -65t-142 68l-159 300l-318 -300q-86 -68 -181 -68t-142 65q-32 43 -32 97q0 28 8 58q25 90 106 154l374 346l-189 347q-31 42 -31 95q0 28 8 58q24 90 106.5 155t177.5 65t145 -66l157 -302
l319 301q84 67 179 67t143 -65q31 -43 31 -97q0 -28 -8 -58q-24 -90 -104 -153z" />
    <glyph glyph-name="Oslash" unicode="&#xd8;" horiz-adv-x="1800" 
d="M1124 1180q-144 -6 -276 -110q-141 -111 -184 -270q-18 -68 -18 -106q0 -14 2 -24zM960 421q142 7 272 110q140 110 182 269q19 70 19 104q0 9 -1 15zM1805 1339q91 -141 91 -318q0 -104 -32 -221q-90 -338 -395.5 -579t-648.5 -241q-151 0 -256 41q-61 -41 -144 -41
q-95 0 -143 65q-32 43 -32 96q0 28 9 59q9 34 22 57q-93 143 -93 322q0 104 31 221q91 338 396.5 579t648.5 241q150 0 255 -41q62 41 145 41q95 0 143 -65q31 -43 31 -97q0 -28 -8 -58q-10 -38 -20 -61z" />
    <glyph glyph-name="Ugrave" unicode="&#xd9;" 
d="M375 1400q24 90 106.5 155t177.5 65t143 -65q31 -43 31 -97q0 -28 -8 -58l-214 -800q-7 -27 -7 -51q0 -43 25 -77q38 -52 109 -52t136.5 52t86.5 128l214 800q24 90 106.5 155t177.5 65t143 -65q31 -43 31 -97q0 -28 -8 -58l-214 -800q-69 -256 -299.5 -438t-491.5 -182
t-394 182q-89 120 -89 272q0 79 24 166zM741 2145q-33 44 -33 98q0 27 8 57q24 90 106.5 155t177.5 65q58 0 142 -62l494 -402q31 -44 31 -98q0 -28 -8 -58q-24 -90 -106.5 -155t-177.5 -65q-59 0 -140 64z" />
    <glyph glyph-name="Uacute" unicode="&#xda;" 
d="M375 1400q24 90 106.5 155t177.5 65t143 -65q31 -43 31 -97q0 -28 -8 -58l-214 -800q-7 -27 -7 -51q0 -43 25 -77q38 -52 109 -52t136.5 52t86.5 128l214 800q24 90 106.5 155t177.5 65t143 -65q31 -43 31 -97q0 -28 -8 -58l-214 -800q-69 -256 -299.5 -438t-491.5 -182
t-394 182q-89 120 -89 272q0 79 24 166zM950 1744q-116 -64 -175 -64q-95 0 -142 65q-32 43 -32 97q0 28 8 58q24 90 108 156l710 402q114 62 173 62q95 0 143 -65q31 -43 31 -97q0 -28 -8 -58q-24 -90 -106 -155z" />
    <glyph glyph-name="Ucircumflex" unicode="&#xdb;" 
d="M375 1400q24 90 106.5 155t177.5 65t143 -65q31 -43 31 -97q0 -28 -8 -58l-214 -800q-7 -27 -7 -51q0 -43 25 -77q38 -52 109 -52t136.5 52t86.5 128l214 800q24 90 106.5 155t177.5 65t143 -65q31 -43 31 -97q0 -28 -8 -58l-214 -800q-69 -256 -299.5 -438t-491.5 -182
t-394 182q-89 120 -89 272q0 79 24 166zM1163 2003l-359 -257q-84 -66 -179 -66t-142 65q-32 43 -32 97q0 28 8 58q24 90 107 155l557 400q82 65 177 65t144 -65l343 -400q30 -43 30 -96q0 -28 -8 -59q-24 -90 -106.5 -155t-177.5 -65t-142 66z" />
    <glyph glyph-name="Udieresis" unicode="&#xdc;" 
d="M375 1400q24 90 106.5 155t177.5 65t143 -65q31 -43 31 -97q0 -28 -8 -58l-214 -800q-7 -27 -7 -51q0 -43 25 -77q38 -52 109 -52t136.5 52t86.5 128l214 800q24 90 106.5 155t177.5 65t143 -65q31 -43 31 -97q0 -28 -8 -58l-214 -800q-69 -256 -299.5 -438t-491.5 -182
t-394 182q-89 120 -89 272q0 79 24 166zM802 1780q-95 0 -142 65q-32 43 -32 97q0 28 8 58q24 90 106.5 155t177.5 65t143 -65q31 -43 31 -97q0 -28 -8 -58q-24 -90 -106.5 -155t-177.5 -65zM1402 1780q-95 0 -142 65q-32 43 -32 97q0 28 8 58q24 90 106.5 155t177.5 65
t143 -65q31 -43 31 -97q0 -28 -8 -58q-24 -90 -106.5 -155t-177.5 -65z" />
    <glyph glyph-name="Yacute" unicode="&#xdd;" 
d="M950 1744q-116 -64 -175 -64q-95 0 -142 65q-32 43 -32 97q0 28 8 58q24 90 108 156l710 402q114 62 173 62q95 0 143 -65q31 -43 31 -97q0 -28 -8 -58q-24 -90 -106 -155zM1279 1554q85 66 180 66t143 -65q31 -43 31 -97q0 -28 -8 -58q-23 -87 -64 -134l-457 -482
l-61 -65l-139 -519q-25 -90 -107 -155t-177 -65t-143 65q-32 43 -32 96q0 28 9 59l139 519l-27 65l-199 482q-6 19 -6 43q0 38 14 91q24 90 106.5 155t177.5 65t144 -66q11 -15 13 -18l132 -331l310 331q2 3 21 18z" />
    <glyph glyph-name="Thorn" unicode="&#xde;" 
d="M961 880h-275l-43 -160h275q29 0 58 23t38 57q3 12 3 23q0 19 -10 34q-17 23 -46 23zM804 1320h275q219 0 331 -153q74 -101 74 -228q0 -66 -20 -139q-57 -214 -251 -367t-413 -153h-275l-21 -80q-25 -90 -107 -155t-177 -65t-143 65q-32 43 -32 96q0 28 9 59l321 1200
q24 90 106.5 155t177.5 65t143 -65q31 -43 31 -97q0 -28 -8 -58z" />
    <glyph glyph-name="germandbls" unicode="&#xdf;" 
d="M720 -20q-95 0 -143 65q-32 43 -32 96q0 28 9 59q24 90 106.5 155t177.5 65q29 0 58 23t38 57q3 12 3 22q0 20 -11 35q-17 23 -46 23q-95 0 -142 65q-32 43 -32 97q0 28 8 58q24 90 106.5 155t177.5 65q29 0 58.5 23t38.5 57q3 12 3 22q0 20 -11 35q-17 23 -46 23h-200
q-29 0 -58 -23t-38 -57l-241 -900q-25 -90 -107 -155t-177 -65t-143 65q-32 43 -32 96q0 28 9 59l241 900q57 214 251 367t413 153h200q219 0 331 -153q74 -101 74 -230q0 -65 -19 -137q-47 -176 -176 -300q35 -71 35 -158q0 -66 -20 -142q-57 -214 -251 -367t-413 -153z
" />
    <glyph glyph-name="agrave" unicode="&#xe0;" horiz-adv-x="1600" 
d="M787 1945q-32 43 -32 98q0 27 8 57q24 90 106.5 155t177.5 65q58 0 141 -62l494 -402q32 -44 32 -99q0 -27 -8 -57q-25 -90 -107 -155t-177 -65q-59 0 -140 64zM1053 501.5q103 81.5 135 198.5q11 40 11 76q0 69 -39 123q-60 81 -172 81t-215.5 -81.5t-134.5 -198.5
q-11 -41 -11 -77q0 -68 39 -121q60 -82 172 -82t215 81.5zM1069 55q-155 -75 -349 -75q-302 0 -457 212q-102 139 -102 316q0 91 27 192q79 297 342 508.5t575 211.5t464 -206q98 -134 98 -311q0 -95 -29 -203l-134 -500q-25 -90 -107 -155t-177 -65t-143 66q-8 10 -9 10z
" />
    <glyph glyph-name="aacute" unicode="&#xe1;" horiz-adv-x="1600" 
d="M997 1544q-116 -64 -175 -64q-95 0 -143 65q-32 43 -32 96q0 28 9 59q24 90 107 156l710 402q115 62 174 62q95 0 143 -65q31 -43 31 -97q0 -28 -8 -58q-24 -90 -107 -155zM1053 501.5q103 81.5 135 198.5q11 40 11 76q0 69 -39 123q-60 81 -172 81t-215.5 -81.5
t-134.5 -198.5q-11 -41 -11 -77q0 -68 39 -121q60 -82 172 -82t215 81.5zM1069 55q-155 -75 -349 -75q-302 0 -457 212q-102 139 -102 316q0 91 27 192q79 297 342 508.5t575 211.5t464 -206q98 -134 98 -311q0 -95 -29 -203l-134 -500q-25 -90 -107 -155t-177 -65t-143 66
q-8 10 -9 10z" />
    <glyph glyph-name="acircumflex" unicode="&#xe2;" horiz-adv-x="1600" 
d="M1209 1803l-359 -257q-83 -66 -178 -66t-143 65q-32 43 -32 96q0 28 9 59q24 90 106 155l557 400q83 65 178 65t143 -65l343 -400q31 -43 31 -97q0 -28 -8 -58q-25 -90 -107 -155t-177 -65t-143 66zM1053 501.5q103 81.5 135 198.5q11 40 11 76q0 69 -39 123
q-60 81 -172 81t-215.5 -81.5t-134.5 -198.5q-11 -41 -11 -77q0 -68 39 -121q60 -82 172 -82t215 81.5zM1069 55q-155 -75 -349 -75q-302 0 -457 212q-102 139 -102 316q0 91 27 192q79 297 342 508.5t575 211.5t464 -206q98 -134 98 -311q0 -95 -29 -203l-134 -500
q-25 -90 -107 -155t-177 -65t-143 66q-8 10 -9 10z" />
    <glyph glyph-name="atilde" unicode="&#xe3;" horiz-adv-x="1600" 
d="M1586 2000q24 90 106.5 155t177.5 65t143 -65q31 -43 31 -97q0 -28 -8 -58q-57 -214 -251 -367t-413 -153q-240 0 -305 160q-49 89 -67.5 114.5t-47.5 25.5t-58 -23t-38 -57q-25 -90 -107 -155t-177 -65t-143 65q-32 43 -32 96q0 28 9 59q57 214 251 367t413 153
q240 0 304 -160q49 -89 67.5 -114.5t47.5 -25.5t58.5 23t38.5 57zM1053 501.5q103 81.5 135 198.5q11 40 11 76q0 69 -39 123q-60 81 -172 81t-215.5 -81.5t-134.5 -198.5q-11 -41 -11 -77q0 -68 39 -121q60 -82 172 -82t215 81.5zM1069 55q-155 -75 -349 -75
q-302 0 -457 212q-102 139 -102 316q0 91 27 192q79 297 342 508.5t575 211.5t464 -206q98 -134 98 -311q0 -95 -29 -203l-134 -500q-25 -90 -107 -155t-177 -65t-143 66q-8 10 -9 10z" />
    <glyph glyph-name="adieresis" unicode="&#xe4;" horiz-adv-x="1600" 
d="M848 1580q-95 0 -142 65q-32 43 -32 97q0 28 8 58q24 90 106.5 155t177.5 65t143 -65q31 -43 31 -97q0 -28 -8 -58q-24 -90 -106.5 -155t-177.5 -65zM1448 1580q-95 0 -142 65q-32 43 -32 97q0 28 8 58q24 90 106.5 155t177.5 65t143 -65q31 -43 31 -97q0 -28 -8 -58
q-24 -90 -106.5 -155t-177.5 -65zM1053 501.5q103 81.5 135 198.5q11 40 11 76q0 69 -39 123q-60 81 -172 81t-215.5 -81.5t-134.5 -198.5q-11 -41 -11 -77q0 -68 39 -121q60 -82 172 -82t215 81.5zM1069 55q-155 -75 -349 -75q-302 0 -457 212q-102 139 -102 316
q0 91 27 192q79 297 342 508.5t575 211.5t464 -206q98 -134 98 -311q0 -95 -29 -203l-134 -500q-25 -90 -107 -155t-177 -65t-143 66q-8 10 -9 10z" />
    <glyph glyph-name="aring" unicode="&#xe5;" horiz-adv-x="1600" 
d="M1148 1580q-95 0 -142 65q-32 43 -32 97q0 28 8 58q24 90 106.5 155t177.5 65t143 -65q31 -43 31 -97q0 -28 -8 -58q-24 -90 -106.5 -155t-177.5 -65zM1053 501.5q103 81.5 135 198.5q11 40 11 76q0 69 -39 123q-60 81 -172 81t-215.5 -81.5t-134.5 -198.5
q-11 -41 -11 -77q0 -68 39 -121q60 -82 172 -82t215 81.5zM1069 55q-155 -75 -349 -75q-302 0 -457 212q-102 139 -102 316q0 91 27 192q79 297 342 508.5t575 211.5t464 -206q98 -134 98 -311q0 -95 -29 -203l-134 -500q-25 -90 -107 -155t-177 -65t-143 66q-8 10 -9 10z
" />
    <glyph glyph-name="ae" unicode="&#xe6;" horiz-adv-x="2600" 
d="M1802 920h340q-58 60 -154 60t-186 -60zM1188 700q11 40 11 76q0 69 -39 123q-60 81 -172 81t-215.5 -81.5t-134.5 -198.5q-11 -41 -11 -77q0 -68 39 -121q60 -82 172 -82t215 81.5t135 198.5zM1552 1222q260 198 553 198q302 0 457 -211q103 -141 103 -318
q0 -91 -27 -191q-25 -90 -107 -155t-177 -65h-670q58 -60 154 -60h300q95 0 143 -65q31 -43 31 -97q0 -28 -8 -58q-25 -90 -107 -155t-177 -65h-300q-194 0 -309 75l1 1q-1 0 -15 -11q-82 -65 -177 -65t-143 66q-8 10 -9 10l1 -1q-155 -75 -349 -75q-302 0 -457 212
q-102 139 -102 316q0 91 27 192q79 297 347 508.5t570 211.5q293 0 447 -198z" />
    <glyph glyph-name="ccedilla" unicode="&#xe7;" horiz-adv-x="1500" 
d="M504 14q-143 43 -241 177q-102 140 -102 317q0 91 27 192q79 297 347 508.5t570 211.5t457 -211q21 -29 31 -52l2 -1q31 -44 31 -98q0 -28 -8 -58q-24 -90 -106.5 -155t-177.5 -65t-142 66q-17 22 -24 43q-3 2 -8 9q-60 82 -172 82t-215.5 -81.5t-134.5 -198.5
q-11 -41 -11 -77q0 -68 39 -121q60 -82 172 -82t216 82q10 8 14 10q18 20 47 44q81 64 176 64t143 -65q31 -43 31 -97q0 -28 -8 -58q-24 -90 -106 -155l-2 -1q-23 -24 -60 -53q-170 -134 -335 -177l-4 -14q-69 -256 -299.5 -438t-491.5 -182q-95 0 -142 65q-32 43 -32 97
q0 28 8 58q24 90 106.5 155t177.5 65q71 0 137 52t86 128z" />
    <glyph glyph-name="egrave" unicode="&#xe8;" horiz-adv-x="1600" 
d="M787 1945q-32 43 -32 98q0 27 8 57q24 90 106.5 155t177.5 65q58 0 141 -62l494 -402q32 -44 32 -99q0 -27 -8 -57q-25 -90 -107 -155t-177 -65q-59 0 -140 64zM802 920h340q-58 60 -154 60t-186 -60zM684 480q58 -60 154 -60h300q95 0 143 -65q31 -43 31 -97
q0 -28 -8 -58q-25 -90 -107 -155t-177 -65h-300q-302 0 -457 212q-102 139 -102 316q0 91 27 192q79 297 347 508.5t570 211.5t457 -211q103 -141 103 -318q0 -91 -27 -191q-25 -90 -107 -155t-177 -65h-670z" />
    <glyph glyph-name="eacute" unicode="&#xe9;" horiz-adv-x="1600" 
d="M997 1544q-116 -64 -175 -64q-95 0 -143 65q-32 43 -32 96q0 28 9 59q24 90 107 156l710 402q115 62 174 62q95 0 143 -65q31 -43 31 -97q0 -28 -8 -58q-24 -90 -107 -155zM802 920h340q-58 60 -154 60t-186 -60zM684 480q58 -60 154 -60h300q95 0 143 -65q31 -43 31 -97
q0 -28 -8 -58q-25 -90 -107 -155t-177 -65h-300q-302 0 -457 212q-102 139 -102 316q0 91 27 192q79 297 347 508.5t570 211.5t457 -211q103 -141 103 -318q0 -91 -27 -191q-25 -90 -107 -155t-177 -65h-670z" />
    <glyph glyph-name="ecircumflex" unicode="&#xea;" horiz-adv-x="1600" 
d="M1209 1803l-359 -257q-83 -66 -178 -66t-143 65q-32 43 -32 96q0 28 9 59q24 90 106 155l557 400q83 65 178 65t143 -65l343 -400q31 -43 31 -97q0 -28 -8 -58q-25 -90 -107 -155t-177 -65t-143 66zM802 920h340q-58 60 -154 60t-186 -60zM684 480q58 -60 154 -60h300
q95 0 143 -65q31 -43 31 -97q0 -28 -8 -58q-25 -90 -107 -155t-177 -65h-300q-302 0 -457 212q-102 139 -102 316q0 91 27 192q79 297 347 508.5t570 211.5t457 -211q103 -141 103 -318q0 -91 -27 -191q-25 -90 -107 -155t-177 -65h-670z" />
    <glyph glyph-name="edieresis" unicode="&#xeb;" horiz-adv-x="1600" 
d="M848 1580q-95 0 -142 65q-32 43 -32 97q0 28 8 58q24 90 106.5 155t177.5 65t143 -65q31 -43 31 -97q0 -28 -8 -58q-24 -90 -106.5 -155t-177.5 -65zM1448 1580q-95 0 -142 65q-32 43 -32 97q0 28 8 58q24 90 106.5 155t177.5 65t143 -65q31 -43 31 -97q0 -28 -8 -58
q-24 -90 -106.5 -155t-177.5 -65zM802 920h340q-58 60 -154 60t-186 -60zM684 480q58 -60 154 -60h300q95 0 143 -65q31 -43 31 -97q0 -28 -8 -58q-25 -90 -107 -155t-177 -65h-300q-302 0 -457 212q-102 139 -102 316q0 91 27 192q79 297 347 508.5t570 211.5t457 -211
q103 -141 103 -318q0 -91 -27 -191q-25 -90 -107 -155t-177 -65h-670z" />
    <glyph glyph-name="igrave" unicode="&#xec;" horiz-adv-x="600" 
d="M504 200q-25 -90 -107 -155t-177 -65t-143 65q-32 43 -32 96q0 28 9 59l268 1000q24 90 106 155t177 65t143 -65q32 -43 32 -98q0 -27 -8 -57zM287 1945q-32 43 -32 98q0 27 8 57q24 90 106.5 155t177.5 65q58 0 141 -62l494 -402q32 -44 32 -99q0 -27 -8 -57
q-25 -90 -107 -155t-177 -65q-59 0 -140 64z" />
    <glyph glyph-name="iacute" unicode="&#xed;" horiz-adv-x="600" 
d="M504 200q-25 -90 -107 -155t-177 -65t-143 65q-32 43 -32 96q0 28 9 59l268 1000q24 90 106 155t177 65t143 -65q32 -43 32 -98q0 -27 -8 -57zM497 1544q-116 -64 -175 -64q-95 0 -143 65q-32 43 -32 96q0 28 9 59q24 90 107 156l710 402q115 62 174 62q95 0 143 -65
q31 -43 31 -97q0 -28 -8 -58q-24 -90 -107 -155z" />
    <glyph glyph-name="icircumflex" unicode="&#xee;" horiz-adv-x="600" 
d="M504 200q-25 -90 -107 -155t-177 -65t-143 65q-32 43 -32 96q0 28 9 59l268 1000q24 90 106 155t177 65t143 -65q32 -43 32 -98q0 -27 -8 -57zM709 1803l-359 -257q-83 -66 -178 -66t-143 65q-32 43 -32 96q0 28 9 59q24 90 106 155l557 400q83 65 178 65t143 -65
l343 -400q31 -43 31 -97q0 -28 -8 -58q-25 -90 -107 -155t-177 -65t-143 66z" />
    <glyph glyph-name="idieresis" unicode="&#xef;" horiz-adv-x="600" 
d="M504 200q-25 -90 -107 -155t-177 -65t-143 65q-32 43 -32 96q0 28 9 59l268 1000q24 90 106 155t177 65t143 -65q32 -43 32 -98q0 -27 -8 -57zM348 1580q-95 0 -142 65q-32 43 -32 97q0 28 8 58q24 90 106.5 155t177.5 65t143 -65q31 -43 31 -97q0 -28 -8 -58
q-24 -90 -106.5 -155t-177.5 -65zM948 1580q-95 0 -142 65q-32 43 -32 97q0 28 8 58q24 90 106.5 155t177.5 65t143 -65q31 -43 31 -97q0 -28 -8 -58q-24 -90 -106.5 -155t-177.5 -65z" />
    <glyph glyph-name="eth" unicode="&#xf0;" horiz-adv-x="1800" 
d="M838 420q112 0 215 81.5t135 198.5l74 279l-274 1q-112 0 -215.5 -81.5t-134.5 -198.5q-11 -41 -11 -77q0 -68 39 -121q60 -82 172 -82zM1713 980l-209 -780q-25 -90 -107 -155t-177 -65t-143 66q-8 10 -9 10l1 -1q-155 -75 -349 -75q-302 0 -457 212q-102 139 -102 316
q0 91 27 192q79 297 347 508.5t570 211.5h275q19 70 101.5 135t177.5 65t143 -65q33 -46 33 -95q0 -20 -5 -40q70 0 118 -65q32 -43 32 -98q0 -27 -8 -57q-25 -90 -107 -155t-152 -65z" />
    <glyph glyph-name="ntilde" unicode="&#xf1;" 
d="M1486 2000q24 90 106.5 155t177.5 65t143 -65q31 -43 31 -97q0 -28 -8 -58q-57 -214 -251 -367t-413 -153q-240 0 -305 160q-49 89 -67.5 114.5t-47.5 25.5t-58 -23t-38 -57q-25 -90 -107 -155t-177 -65t-143 65q-32 43 -32 96q0 28 9 59q57 214 251 367t413 153
q240 0 304 -160q49 -89 67.5 -114.5t47.5 -25.5t58.5 23t38.5 57zM1005 1420q261 0 395 -182q88 -120 88 -272q0 -79 -24 -166l-160 -600q-25 -90 -107 -155t-177 -65t-143 65q-32 43 -32 96q0 28 9 59l160 600q7 27 7 51q0 44 -24 77q-38 52 -109 52t-137 -52t-87 -128
l-160 -600q-25 -90 -107 -155t-177 -65t-143 65q-32 43 -32 96q0 28 9 59l160 600q69 257 299 438.5t492 181.5z" />
    <glyph glyph-name="ograve" unicode="&#xf2;" horiz-adv-x="1600" 
d="M720 -20q-302 0 -457 212q-102 139 -102 316q0 91 27 192q79 297 347 508.5t570 211.5t457 -211q103 -141 103 -318q0 -91 -27 -191q-80 -297 -348 -508.5t-570 -211.5zM1053 501.5q103 81.5 135 198.5q11 40 11 76q0 69 -39 123q-60 81 -172 81t-215.5 -81.5
t-134.5 -198.5q-11 -41 -11 -77q0 -68 39 -121q60 -82 172 -82t215 81.5zM787 1945q-32 43 -32 98q0 27 8 57q24 90 106.5 155t177.5 65q58 0 141 -62l494 -402q32 -44 32 -99q0 -27 -8 -57q-25 -90 -107 -155t-177 -65q-59 0 -140 64z" />
    <glyph glyph-name="oacute" unicode="&#xf3;" horiz-adv-x="1600" 
d="M720 -20q-302 0 -457 212q-102 139 -102 316q0 91 27 192q79 297 347 508.5t570 211.5t457 -211q103 -141 103 -318q0 -91 -27 -191q-80 -297 -348 -508.5t-570 -211.5zM1053 501.5q103 81.5 135 198.5q11 40 11 76q0 69 -39 123q-60 81 -172 81t-215.5 -81.5
t-134.5 -198.5q-11 -41 -11 -77q0 -68 39 -121q60 -82 172 -82t215 81.5zM997 1544q-116 -64 -175 -64q-95 0 -143 65q-32 43 -32 96q0 28 9 59q24 90 107 156l710 402q115 62 174 62q95 0 143 -65q31 -43 31 -97q0 -28 -8 -58q-24 -90 -107 -155z" />
    <glyph glyph-name="ocircumflex" unicode="&#xf4;" horiz-adv-x="1600" 
d="M720 -20q-302 0 -457 212q-102 139 -102 316q0 91 27 192q79 297 347 508.5t570 211.5t457 -211q103 -141 103 -318q0 -91 -27 -191q-80 -297 -348 -508.5t-570 -211.5zM1053 501.5q103 81.5 135 198.5q11 40 11 76q0 69 -39 123q-60 81 -172 81t-215.5 -81.5
t-134.5 -198.5q-11 -41 -11 -77q0 -68 39 -121q60 -82 172 -82t215 81.5zM1209 1803l-359 -257q-83 -66 -178 -66t-143 65q-32 43 -32 96q0 28 9 59q24 90 106 155l557 400q83 65 178 65t143 -65l343 -400q31 -43 31 -97q0 -28 -8 -58q-25 -90 -107 -155t-177 -65t-143 66z
" />
    <glyph glyph-name="otilde" unicode="&#xf5;" horiz-adv-x="1600" 
d="M720 -20q-302 0 -457 212q-102 139 -102 316q0 91 27 192q79 297 347 508.5t570 211.5t457 -211q103 -141 103 -318q0 -91 -27 -191q-80 -297 -348 -508.5t-570 -211.5zM1053 501.5q103 81.5 135 198.5q11 40 11 76q0 69 -39 123q-60 81 -172 81t-215.5 -81.5
t-134.5 -198.5q-11 -41 -11 -77q0 -68 39 -121q60 -82 172 -82t215 81.5zM1586 2000q24 90 106.5 155t177.5 65t143 -65q31 -43 31 -97q0 -28 -8 -58q-57 -214 -251 -367t-413 -153q-240 0 -305 160q-49 89 -67.5 114.5t-47.5 25.5t-58 -23t-38 -57q-25 -90 -107 -155
t-177 -65t-143 65q-32 43 -32 96q0 28 9 59q57 214 251 367t413 153q240 0 304 -160q49 -89 67.5 -114.5t47.5 -25.5t58.5 23t38.5 57z" />
    <glyph glyph-name="odieresis" unicode="&#xf6;" horiz-adv-x="1600" 
d="M720 -20q-302 0 -457 212q-102 139 -102 316q0 91 27 192q79 297 347 508.5t570 211.5t457 -211q103 -141 103 -318q0 -91 -27 -191q-80 -297 -348 -508.5t-570 -211.5zM1053 501.5q103 81.5 135 198.5q11 40 11 76q0 69 -39 123q-60 81 -172 81t-215.5 -81.5
t-134.5 -198.5q-11 -41 -11 -77q0 -68 39 -121q60 -82 172 -82t215 81.5zM848 1580q-95 0 -142 65q-32 43 -32 97q0 28 8 58q24 90 106.5 155t177.5 65t143 -65q31 -43 31 -97q0 -28 -8 -58q-24 -90 -106.5 -155t-177.5 -65zM1448 1580q-95 0 -142 65q-32 43 -32 97
q0 28 8 58q24 90 106.5 155t177.5 65t143 -65q31 -43 31 -97q0 -28 -8 -58q-24 -90 -106.5 -155t-177.5 -65z" />
    <glyph glyph-name="divide" unicode="&#xf7;" horiz-adv-x="1200" 
d="M1098 1020q95 0 143 -65q31 -43 31 -97q0 -28 -8 -58q-24 -90 -106.5 -155t-177.5 -65h-600q-95 0 -142 65q-32 43 -32 97q0 28 8 58q24 90 106.5 155t177.5 65h600zM814 1080q-95 0 -142 65q-32 43 -32 97q0 28 8 58q24 90 106.5 155t177.5 65t143 -65q31 -43 31 -97
q0 -28 -8 -58q-24 -90 -106.5 -155t-177.5 -65zM546 80q-95 0 -142 65q-32 43 -32 97q0 28 8 58q25 90 107 155t177 65t143 -65q32 -43 32 -96q0 -28 -9 -59q-24 -90 -106.5 -155t-177.5 -65z" />
    <glyph glyph-name="oslash" unicode="&#xf8;" horiz-adv-x="1600" 
d="M641 712l284 266q-55 -2 -153 -80q-98 -77 -131 -186zM1184 687l-284 -265q56 2 154 80q97 77 130 185zM1623 1102q43 -94 43 -207q0 -92 -28 -195q-80 -297 -348 -508.5t-570 -211.5q-150 0 -249 46q-63 -46 -151 -46q-95 0 -143 65q-32 43 -32 96q0 28 9 59
q15 58 48 97q-42 94 -42 206q0 93 28 197q79 297 347 508.5t570 211.5q150 0 249 -45q63 45 151 45q95 0 143 -65q32 -43 32 -98q0 -27 -8 -57q-16 -59 -49 -98z" />
    <glyph glyph-name="ugrave" unicode="&#xf9;" 
d="M687 1945q-32 43 -32 98q0 27 8 57q24 90 106.5 155t177.5 65q58 0 141 -62l494 -402q32 -44 32 -99q0 -27 -8 -57q-25 -90 -107 -155t-177 -65q-59 0 -140 64zM225 162q-88 119 -88 271q0 79 24 167l161 600q24 90 106 155t177 65t143 -65q32 -43 32 -98q0 -27 -8 -57
l-161 -600q-7 -27 -7 -51q0 -43 25 -77q38 -52 109 -52t136.5 52t86.5 128l161 600q24 90 106 155t177 65t143 -65q32 -43 32 -98q0 -27 -8 -57l-161 -600q-69 -256 -299.5 -438t-491.5 -182q-262 0 -395 182z" />
    <glyph glyph-name="uacute" unicode="&#xfa;" 
d="M897 1544q-116 -64 -175 -64q-95 0 -143 65q-32 43 -32 96q0 28 9 59q24 90 107 156l710 402q115 62 174 62q95 0 143 -65q31 -43 31 -97q0 -28 -8 -58q-24 -90 -107 -155zM225 162q-88 119 -88 271q0 79 24 167l161 600q24 90 106 155t177 65t143 -65q32 -43 32 -98
q0 -27 -8 -57l-161 -600q-7 -27 -7 -51q0 -43 25 -77q38 -52 109 -52t136.5 52t86.5 128l161 600q24 90 106 155t177 65t143 -65q32 -43 32 -98q0 -27 -8 -57l-161 -600q-69 -256 -299.5 -438t-491.5 -182q-262 0 -395 182z" />
    <glyph glyph-name="ucircumflex" unicode="&#xfb;" 
d="M1109 1803l-359 -257q-83 -66 -178 -66t-143 65q-32 43 -32 96q0 28 9 59q24 90 106 155l557 400q83 65 178 65t143 -65l343 -400q31 -43 31 -97q0 -28 -8 -58q-25 -90 -107 -155t-177 -65t-143 66zM225 162q-88 119 -88 271q0 79 24 167l161 600q24 90 106 155t177 65
t143 -65q32 -43 32 -98q0 -27 -8 -57l-161 -600q-7 -27 -7 -51q0 -43 25 -77q38 -52 109 -52t136.5 52t86.5 128l161 600q24 90 106 155t177 65t143 -65q32 -43 32 -98q0 -27 -8 -57l-161 -600q-69 -256 -299.5 -438t-491.5 -182q-262 0 -395 182z" />
    <glyph glyph-name="udieresis" unicode="&#xfc;" 
d="M748 1580q-95 0 -142 65q-32 43 -32 97q0 28 8 58q24 90 106.5 155t177.5 65t143 -65q31 -43 31 -97q0 -28 -8 -58q-24 -90 -106.5 -155t-177.5 -65zM1348 1580q-95 0 -142 65q-32 43 -32 97q0 28 8 58q24 90 106.5 155t177.5 65t143 -65q31 -43 31 -97q0 -28 -8 -58
q-24 -90 -106.5 -155t-177.5 -65zM225 162q-88 119 -88 271q0 79 24 167l161 600q24 90 106 155t177 65t143 -65q32 -43 32 -98q0 -27 -8 -57l-161 -600q-7 -27 -7 -51q0 -43 25 -77q38 -52 109 -52t136.5 52t86.5 128l161 600q24 90 106 155t177 65t143 -65q32 -43 32 -98
q0 -27 -8 -57l-161 -600q-69 -256 -299.5 -438t-491.5 -182q-262 0 -395 182z" />
    <glyph glyph-name="yacute" unicode="&#xfd;" 
d="M897 1544q-116 -64 -175 -64q-95 0 -143 65q-32 43 -32 96q0 28 9 59q24 90 107 156l710 402q115 62 174 62q95 0 143 -65q31 -43 31 -97q0 -28 -8 -58q-24 -90 -107 -155zM1572 1200q-24 -87 -63 -132l-1080 -1588h-3q-12 -12 -40 -35q-82 -65 -177 -65t-142 65
q-32 43 -32 97q0 28 8 58q16 59 33 80h4l360 534l-121 881q-1 17 -1 36q0 32 3 68q25 91 107 156t177 65t145 -67q28 -54 28 -108h-1l66 -432l33 49l265 383h-1q28 54 87 109q83 66 178 66t143 -65q32 -43 32 -98q0 -27 -8 -57z" />
    <glyph glyph-name="thorn" unicode="&#xfe;" horiz-adv-x="1600" 
d="M1053 501.5q103 81.5 135 198.5q11 40 11 76q0 69 -39 123q-60 81 -172 81t-215.5 -81.5t-134.5 -198.5q-11 -41 -11 -77q0 -68 39 -121q60 -82 172 -82t215 81.5zM375 1400q24 90 106.5 155t177.5 65t143 -65q31 -43 31 -97q0 -28 -8 -58l-8 -30q117 50 288 50
q302 0 457 -211q103 -141 103 -318q0 -91 -27 -191q-80 -297 -348 -508.5t-570 -211.5q-171 0 -262 50l-115 -430q-24 -90 -106.5 -155t-177.5 -65t-142 65q-32 43 -32 97q0 28 8 58z" />
    <glyph glyph-name="ydieresis" unicode="&#xff;" 
d="M748 1580q-95 0 -142 65q-32 43 -32 97q0 28 8 58q24 90 106.5 155t177.5 65t143 -65q31 -43 31 -97q0 -28 -8 -58q-24 -90 -106.5 -155t-177.5 -65zM1348 1580q-95 0 -142 65q-32 43 -32 97q0 28 8 58q24 90 106.5 155t177.5 65t143 -65q31 -43 31 -97q0 -28 -8 -58
q-24 -90 -106.5 -155t-177.5 -65zM1572 1200q-24 -87 -63 -132l-1080 -1588h-3q-12 -12 -40 -35q-82 -65 -177 -65t-142 65q-32 43 -32 97q0 28 8 58q16 59 33 80h4l360 534l-121 881q-1 17 -1 36q0 32 3 68q25 91 107 156t177 65t145 -67q28 -54 28 -108h-1l66 -432l33 49
l265 383h-1q28 54 87 109q83 66 178 66t143 -65q32 -43 32 -98q0 -27 -8 -57z" />
    <glyph glyph-name="dotlessi" unicode="&#x131;" horiz-adv-x="600" 
d="M504 200q-25 -90 -107 -155t-177 -65t-143 65q-32 43 -32 96q0 28 9 59l268 1000q24 90 106 155t177 65t143 -65q32 -43 32 -98q0 -27 -8 -57z" />
    <glyph glyph-name="circumflex" unicode="&#x2c6;" horiz-adv-x="1500" 
d="M1213 2003l-359 -257q-84 -66 -179 -66t-142 65q-32 43 -32 97q0 28 8 58q24 90 107 155l557 400q82 65 177 65t144 -65l343 -400q30 -43 30 -96q0 -28 -8 -59q-24 -90 -106.5 -155t-177.5 -65t-142 66z" />
    <glyph glyph-name="caron" unicode="&#x2c7;" horiz-adv-x="1500" 
d="M1623 2454q82 66 177 66t143 -65q31 -43 31 -97q0 -28 -8 -58q-24 -90 -105 -155l-557 -400q-84 -65 -179 -65t-142 65l-343 400q-32 43 -32 98q0 27 8 57q24 90 106.5 155t177.5 65t144 -66l221 -257z" />
    <glyph glyph-name="uni02C9" unicode="&#x2c9;" horiz-adv-x="1650" 
d="M0 200v1100q0 200 200 200h1100q200 0 200 -200v-1100q0 -200 -200 -200h-1100q-200 0 -200 200zM1475 201v1099q0 175 -175 175h-1100q-174 0 -175 -175v-1100q1 -175 175 -175h1101q174 0 174 176z" />
    <glyph glyph-name="breve" unicode="&#x2d8;" horiz-adv-x="1650" 
d="M0 200v1100q0 200 200 200h1100q200 0 200 -200v-1100q0 -200 -200 -200h-1100q-200 0 -200 200zM1475 201v1099q0 175 -175 175h-1100q-174 0 -175 -175v-1100q1 -175 175 -175h1101q174 0 174 176z" />
    <glyph glyph-name="dotaccent" unicode="&#x2d9;" horiz-adv-x="600" 
d="M702 1780q-95 0 -142 65q-32 43 -32 97q0 28 8 58q24 90 106.5 155t177.5 65t143 -65q31 -43 31 -97q0 -28 -8 -58q-24 -90 -106.5 -155t-177.5 -65z" />
    <glyph glyph-name="ring" unicode="&#x2da;" horiz-adv-x="600" 
d="M702 1780q-95 0 -142 65q-32 43 -32 97q0 28 8 58q24 90 106.5 155t177.5 65t143 -65q31 -43 31 -97q0 -28 -8 -58q-24 -90 -106.5 -155t-177.5 -65z" />
    <glyph glyph-name="ogonek" unicode="&#x2db;" horiz-adv-x="1000" 
d="M720 -245q31 -43 31 -97q0 -28 -8 -58q-24 -90 -106.5 -155t-177.5 -65q-261 0 -394 182q-89 120 -89 272q0 79 24 166q24 90 106.5 155t177.5 65t143 -65q31 -43 31 -97q0 -28 -8 -58q-7 -26 -7 -50q0 -44 25 -78q38 -52 109 -52q95 0 143 -65z" />
    <glyph glyph-name="tilde" unicode="&#x2dc;" horiz-adv-x="1700" 
d="M1689 2200q25 90 107 155t177 65t143 -65q32 -43 32 -96q0 -28 -9 -59q-57 -214 -251 -367t-413 -153q-240 0 -304 160q-49 89 -67.5 114.5t-47.5 25.5t-58.5 -23t-38.5 -57q-24 -90 -106.5 -155t-177.5 -65t-142 65q-32 43 -32 97q0 28 8 58q57 214 251 367t413 153
q240 0 305 -160q49 -89 67.5 -114.5t47.5 -25.5t58 23t38 57z" />
    <glyph glyph-name="hungarumlaut" unicode="&#x2dd;" horiz-adv-x="1024" 
d="M501 1059l239 301q38 47 71.5 70.5t69.5 23.5q39 0 59 -26q13 -19 13 -40q0 -10 -3 -21q-5 -20 -23.5 -42t-45.5 -46l-272 -220h-108zM786 1059l239 301q38 47 71.5 70.5t69.5 23.5q39 0 59 -26q13 -19 13 -40q0 -10 -3 -21q-5 -20 -23.5 -42t-45.5 -46l-272 -220h-108z
" />
    <glyph glyph-name="endash" unicode="&#x2013;" 
d="M1298 1020q95 0 143 -65q31 -43 31 -97q0 -28 -8 -58q-24 -90 -106.5 -155t-177.5 -65h-800q-95 0 -142 65q-32 43 -32 97q0 28 8 58q24 90 106.5 155t177.5 65h800z" />
    <glyph glyph-name="emdash" unicode="&#x2014;" horiz-adv-x="1600" 
d="M1498 1020q95 0 143 -65q31 -43 31 -97q0 -28 -8 -58q-24 -90 -106.5 -155t-177.5 -65h-1000q-95 0 -142 65q-32 43 -32 97q0 28 8 58q24 90 106.5 155t177.5 65h1000z" />
    <glyph glyph-name="quoteleft" unicode="&#x2018;" horiz-adv-x="600" 
d="M375 1400q24 90 106.5 155t177.5 65t143 -65q31 -43 31 -97q0 -28 -8 -58l-107 -400q-24 -90 -106.5 -155t-177.5 -65t-142 65q-32 43 -32 97q0 28 8 58z" />
    <glyph glyph-name="quoteright" unicode="&#x2019;" horiz-adv-x="600" 
d="M375 1400q24 90 106.5 155t177.5 65t143 -65q31 -43 31 -97q0 -28 -8 -58l-107 -400q-24 -90 -106.5 -155t-177.5 -65t-142 65q-32 43 -32 97q0 28 8 58z" />
    <glyph glyph-name="quotesinglbase" unicode="&#x201a;" horiz-adv-x="600" 
d="M54 200q24 90 106.5 155t177.5 65t143 -65q31 -43 31 -97q0 -28 -8 -58l-108 -400q-24 -90 -106.5 -155t-177.5 -65t-142 65q-32 43 -32 97q0 28 8 58z" />
    <glyph glyph-name="quotedblleft" unicode="&#x201c;" horiz-adv-x="1200" 
d="M375 1400q24 90 106.5 155t177.5 65t143 -65q31 -43 31 -97q0 -28 -8 -58l-107 -400q-24 -90 -106.5 -155t-177.5 -65t-142 65q-32 43 -32 97q0 28 8 58zM975 1400q24 90 106.5 155t177.5 65t143 -65q31 -43 31 -97q0 -28 -8 -58l-107 -400q-24 -90 -106.5 -155
t-177.5 -65t-142 65q-32 43 -32 97q0 28 8 58z" />
    <glyph glyph-name="quotedblright" unicode="&#x201d;" horiz-adv-x="1200" 
d="M375 1400q24 90 106.5 155t177.5 65t143 -65q31 -43 31 -97q0 -28 -8 -58l-107 -400q-24 -90 -106.5 -155t-177.5 -65t-142 65q-32 43 -32 97q0 28 8 58zM975 1400q24 90 106.5 155t177.5 65t143 -65q31 -43 31 -97q0 -28 -8 -58l-107 -400q-24 -90 -106.5 -155
t-177.5 -65t-142 65q-32 43 -32 97q0 28 8 58z" />
    <glyph glyph-name="quotedblbase" unicode="&#x201e;" horiz-adv-x="1200" 
d="M54 200q24 90 106.5 155t177.5 65t143 -65q31 -43 31 -97q0 -28 -8 -58l-108 -400q-24 -90 -106.5 -155t-177.5 -65t-142 65q-32 43 -32 97q0 28 8 58zM654 200q24 90 106.5 155t177.5 65t143 -65q31 -43 31 -97q0 -28 -8 -58l-108 -400q-24 -90 -106.5 -155t-177.5 -65
t-142 65q-32 43 -32 97q0 28 8 58z" />
    <glyph glyph-name="dagger" unicode="&#x2020;" horiz-adv-x="1014" 
d="M764 1045q4 24 4 48q0 48 -15 99q-24 83 -24 120q0 10 2 17q15 57 68 92.5t123 35.5q67 0 104 -33q26 -24 26 -58q0 -13 -4 -28q-10 -36 -96 -145q-66 -82 -91 -149q61 5 149 48q123 61 159 61q62 0 87 -43q14 -25 14 -57q0 -24 -8 -52q-16 -62 -61.5 -107t-104.5 -45
q-39 0 -134 58q-68 44 -125 51q-9 -43 -9 -83q0 -94 53 -166q-233 -467 -382 -999h-88q137 532 152 999q132 103 179 249q-63 -6 -151 -48q-124 -61 -160 -61q-62 0 -85 43q-14 25 -14 58q0 23 7 51q17 62 62 107t103 45q39 0 135 -59q68 -44 125 -49z" />
    <glyph glyph-name="daggerdbl" unicode="&#x2021;" horiz-adv-x="1014" 
d="M635 209q61 7 153 51q126 58 165 58q59 0 80 -45q12 -25 12 -55q0 -24 -8 -52q-17 -66 -64.5 -109t-109.5 -43q-36 0 -127 61q-64 43 -123 48q-4 -22 -4 -46q0 -48 15 -103q21 -80 21 -121q0 -15 -3 -24q-14 -53 -68 -86t-121 -33q-70 0 -104 36q-23 24 -23 58q0 16 5 34
q8 32 95 137q65 78 90 147q-60 -5 -151 -49q-128 -59 -167 -59q-58 0 -79 45q-12 26 -12 57q0 23 7 50q18 66 65 109t109 43q36 0 127 -61q66 -42 125 -48q20 87 20 169q0 106 -33 206q153 176 214 374q-63 -6 -151 -48q-124 -61 -160 -61q-62 0 -85 43q-14 25 -14 58
q0 23 7 51q17 62 62 107t103 45q39 0 135 -59q68 -44 125 -49q4 24 4 48q0 48 -15 99q-24 83 -24 120q0 10 2 17q15 57 68 92.5t123 35.5q67 0 104 -33q26 -24 26 -58q0 -13 -4 -28q-10 -36 -96 -145q-66 -82 -91 -149q61 5 149 48q123 61 159 61q62 0 87 -43q14 -25 14 -57
q0 -24 -8 -52q-16 -62 -61.5 -107t-104.5 -45q-39 0 -134 58q-68 44 -125 51q-21 -88 -21 -173q0 -104 32 -201q-152 -177 -212 -375z" />
    <glyph glyph-name="bullet" unicode="&#x2022;" horiz-adv-x="1024" 
d="M408 718q35 130 153.5 222.5t253.5 92.5q134 0 202 -93q45 -61 45 -138q0 -40 -12 -84q-34 -129 -153.5 -223t-253.5 -94q-135 0 -202 94q-44 62 -44 140q0 39 11 83z" />
    <glyph glyph-name="ellipsis" unicode="&#x2026;" horiz-adv-x="1800" 
d="M220 -20q-95 0 -143 65q-32 43 -32 96q0 28 9 59q24 90 106.5 155t177.5 65t143 -65q31 -43 31 -97q0 -28 -8 -58q-25 -90 -107 -155t-177 -65zM820 -20q-95 0 -143 65q-32 43 -32 96q0 28 9 59q24 90 106.5 155t177.5 65t143 -65q31 -43 31 -97q0 -28 -8 -58
q-25 -90 -107 -155t-177 -65zM1420 -20q-95 0 -143 65q-32 43 -32 96q0 28 9 59q24 90 106.5 155t177.5 65t143 -65q31 -43 31 -97q0 -28 -8 -58q-25 -90 -107 -155t-177 -65z" />
    <glyph glyph-name="guilsinglleft" unicode="&#x2039;" horiz-adv-x="925" 
d="M717 700l190 -346q30 -42 30 -95q0 -28 -8 -59q-25 -90 -107 -155t-177 -65t-143 68l-290 542q-16 35 -16 70q0 20 5 40q14 55 70 110l581 544q83 66 178 66t143 -65q32 -43 32 -98q0 -27 -8 -57q-25 -90 -104 -153z" />
    <glyph glyph-name="guilsinglright" unicode="&#x203a;" horiz-adv-x="925" 
d="M357 1047q-31 41 -31 94q0 28 9 59q24 90 106 155t177 65t144 -66l289 -544q18 -36 18 -72q0 -19 -5 -38q-15 -55 -72 -110l-580 -542q-84 -68 -179 -68t-143 65q-32 43 -32 96q0 28 9 59q24 90 104 154l376 346z" />
    <glyph glyph-name="fraction" unicode="&#x2044;" 
d="M1279 1554q85 66 180 66t143 -65q31 -43 31 -97q0 -28 -8 -58q-23 -87 -64 -134l-1125 -1186q-11 -12 -39 -35q-82 -65 -177 -65t-143 65q-32 43 -32 96q0 28 9 59q15 59 33 80h-4l1175 1256q2 3 21 18z" />
    <glyph glyph-name="fraction" unicode="&#x2215;" 
d="M1279 1554q85 66 180 66t143 -65q31 -43 31 -97q0 -28 -8 -58q-23 -87 -64 -134l-1125 -1186q-11 -12 -39 -35q-82 -65 -177 -65t-143 65q-32 43 -32 96q0 28 9 59q15 59 33 80h-4l1175 1256q2 3 21 18z" />
    <glyph glyph-name="franc" unicode="&#x20a3;" horiz-adv-x="1600" 
d="M366 620l209 780q24 90 106.5 155t177.5 65h800q95 0 143 -65q31 -43 31 -97q0 -28 -8 -58q-24 -90 -106.5 -155t-177.5 -65h-575l-43 -160h375q95 0 143 -65q31 -43 31 -97q0 -28 -8 -58q-24 -90 -106.5 -155t-177.5 -65h-375l-101 -380q-25 -90 -107 -155t-177 -65
t-143 65q-34 47 -34 96q0 19 5 39q-70 0 -117 65q-32 43 -32 97q0 28 8 58q24 90 106.5 155t152.5 65z" />
    <glyph glyph-name="lira" unicode="&#x20a4;" horiz-adv-x="1550" 
d="M1288 420q95 0 143 -65q31 -43 31 -97q0 -28 -8 -58q-25 -90 -107 -155t-177 -65h-950q-95 0 -143 65q-32 43 -32 96q0 28 9 59q24 90 106.5 155t152.5 65l16 60q-70 0 -118 65q-32 43 -32 96q0 28 9 59q24 90 106.5 155t152.5 65l21 80q69 256 299.5 438t491.5 182
t396 -183q33 -47 53 -97q22 -37 22 -82q0 -28 -8 -58q-25 -90 -107 -155t-177 -65t-143 68l-45 82q-38 50 -109 50t-137 -52t-86 -128l-21 -80h75q95 0 143 -65q31 -43 31 -97q0 -28 -8 -58q-25 -90 -107 -155t-177 -65h-75l-16 -60h525z" />
    <glyph glyph-name="peseta" unicode="&#x20a7;" horiz-adv-x="1600" 
d="M1241 1180h-275l-43 -160h275q29 0 58.5 23t38.5 57q3 12 3 22q0 20 -11 35q-17 23 -46 23zM366 620l209 780q24 90 106.5 155t177.5 65h500q219 0 331 -153q74 -101 74 -230q0 -65 -19 -137q-58 -214 -252 -367t-413 -153h-275l-101 -380q-25 -90 -107 -155t-177 -65
t-143 65q-34 47 -34 96q0 19 5 39q-70 0 -117 65q-32 43 -32 97q0 28 8 58q24 90 106.5 155t152.5 65z" />
    <glyph glyph-name="Euro" unicode="&#x20ac;" horiz-adv-x="1650" 
d="M905 580q-4 -16 -4 -31q0 -40 28 -77q38 -52 109 -52t135 51l89 83q84 66 179 66t143 -65q31 -43 31 -97q0 -28 -8 -58q-22 -81 -88 -140q-47 -50 -108 -98q-230 -182 -491 -182t-394 182q-91 124 -91 272q0 70 20 146h-75q-95 0 -142 65q-32 43 -32 97q0 28 8 58
q24 90 106.5 155t177.5 65h75q64 236 294.5 418t491.5 182t396 -183q33 -47 53 -97q22 -37 22 -82q0 -28 -8 -58q-25 -90 -107 -155t-177 -65t-143 68l-45 82q-38 50 -109 50t-137 -52t-81 -108h75q95 0 143 -65q31 -43 31 -97q0 -28 -8 -58q-24 -90 -106.5 -155t-177.5 -65
h-75z" />
    <glyph glyph-name="afii61352" unicode="&#x2116;" horiz-adv-x="1700" 
d="M748 1299l54 201q13 49 58.5 84.5t98.5 35.5q54 0 80 -35q17 -24 17 -54q0 -15 -4 -31l-161 -600q-13 -48 -58 -84t-99 -36q-53 0 -79 37q-9 11 -14 24l-96 261l-54 -202q-13 -48 -58 -84t-99 -36q-53 0 -79 36q-18 24 -18 54q0 14 4 30l161 600q13 49 58.5 84.5
t98.5 35.5q54 0 80 -35q10 -14 10 -15zM1327 755q-177 0 -267 124q-61 82 -61 186q0 52 16 110q46 173 203 296.5t334 123.5q178 0 269 -123q60 -82 60 -186q0 -53 -16 -111q-46 -172 -203 -296t-335 -124zM1528.5 1047q65.5 52 86.5 128q7 26 7 50q0 44 -25 78
q-38 52 -109 52t-137 -52t-86 -128q-7 -27 -7 -51q0 -43 25 -77q38 -52 109 -52t136.5 52z" />
    <glyph glyph-name="trademark" unicode="&#x2122;" horiz-adv-x="1675" 
d="M570 1380h-75q-53 0 -79 36q-18 24 -18 54q0 14 4 30q13 49 58.5 84.5t98.5 35.5h400q54 0 80 -35q17 -24 17 -54q0 -15 -4 -31q-13 -48 -58 -84t-99 -36h-75l-129 -480q-13 -48 -58 -84t-99 -36q-53 0 -79 36q-18 24 -18 54q0 14 4 30zM1163 883l-12 177l-89 -176
q-20 -37 -52 -67q-47 -37 -101 -37q-53 0 -79 36q-18 24 -18 54q0 15 4 31q14 31 29 53l287 563q21 36 51 65q48 38 101 38q54 0 81 -37q15 -27 15 -62v-4l16 -227l137 228q20 35 50 64q48 38 101 38q54 0 81 -37q16 -29 16 -66l-13 -563q1 -7 1 -16q0 -16 -3 -37
q-13 -49 -58 -85t-99 -36q-53 0 -81 38q-14 27 -14 47v3h-2l6 192l-106 -174q-1 -6 -4 -8q-12 -31 -48 -61q-47 -37 -101 -37q-53 0 -82 40q-14 20 -14 45v3h1l-1 13v2z" />
    <glyph glyph-name="partialdiff" unicode="&#x2202;" horiz-adv-x="1650" 
d="M0 200v1100q0 200 200 200h1100q200 0 200 -200v-1100q0 -200 -200 -200h-1100q-200 0 -200 200zM1475 201v1099q0 175 -175 175h-1100q-174 0 -175 -175v-1100q1 -175 175 -175h1101q174 0 174 176z" />
    <glyph glyph-name="Delta" unicode="&#x2206;" horiz-adv-x="1650" 
d="M0 200v1100q0 200 200 200h1100q200 0 200 -200v-1100q0 -200 -200 -200h-1100q-200 0 -200 200zM1475 201v1099q0 175 -175 175h-1100q-174 0 -175 -175v-1100q1 -175 175 -175h1101q174 0 174 176z" />
    <glyph glyph-name="product" unicode="&#x220f;" horiz-adv-x="1650" 
d="M0 200v1100q0 200 200 200h1100q200 0 200 -200v-1100q0 -200 -200 -200h-1100q-200 0 -200 200zM1475 201v1099q0 175 -175 175h-1100q-174 0 -175 -175v-1100q1 -175 175 -175h1101q174 0 174 176z" />
    <glyph glyph-name="summation" unicode="&#x2211;" horiz-adv-x="1650" 
d="M0 200v1100q0 200 200 200h1100q200 0 200 -200v-1100q0 -200 -200 -200h-1100q-200 0 -200 200zM1475 201v1099q0 175 -175 175h-1100q-174 0 -175 -175v-1100q1 -175 175 -175h1101q174 0 174 176z" />
    <glyph glyph-name="minus" unicode="&#x2212;" horiz-adv-x="1014" 
d="M255 627l48 180h876l10 -14l-44 -166h-890z" />
    <glyph glyph-name="radical" unicode="&#x221a;" horiz-adv-x="1650" 
d="M0 200v1100q0 200 200 200h1100q200 0 200 -200v-1100q0 -200 -200 -200h-1100q-200 0 -200 200zM1475 201v1099q0 175 -175 175h-1100q-174 0 -175 -175v-1100q1 -175 175 -175h1101q174 0 174 176z" />
    <glyph glyph-name="infinity" unicode="&#x221e;" horiz-adv-x="1650" 
d="M0 200v1100q0 200 200 200h1100q200 0 200 -200v-1100q0 -200 -200 -200h-1100q-200 0 -200 200zM1475 201v1099q0 175 -175 175h-1100q-174 0 -175 -175v-1100q1 -175 175 -175h1101q174 0 174 176z" />
    <glyph glyph-name="integral" unicode="&#x222b;" horiz-adv-x="1650" 
d="M0 200v1100q0 200 200 200h1100q200 0 200 -200v-1100q0 -200 -200 -200h-1100q-200 0 -200 200zM1475 201v1099q0 175 -175 175h-1100q-174 0 -175 -175v-1100q1 -175 175 -175h1101q174 0 174 176z" />
    <glyph glyph-name="approxequal" unicode="&#x2248;" horiz-adv-x="1650" 
d="M0 200v1100q0 200 200 200h1100q200 0 200 -200v-1100q0 -200 -200 -200h-1100q-200 0 -200 200zM1475 201v1099q0 175 -175 175h-1100q-174 0 -175 -175v-1100q1 -175 175 -175h1101q174 0 174 176z" />
    <glyph glyph-name="lessequal" unicode="&#x2264;" horiz-adv-x="1650" 
d="M0 200v1100q0 200 200 200h1100q200 0 200 -200v-1100q0 -200 -200 -200h-1100q-200 0 -200 200zM1475 201v1099q0 175 -175 175h-1100q-174 0 -175 -175v-1100q1 -175 175 -175h1101q174 0 174 176z" />
    <glyph glyph-name="greaterequal" unicode="&#x2265;" horiz-adv-x="1650" 
d="M0 200v1100q0 200 200 200h1100q200 0 200 -200v-1100q0 -200 -200 -200h-1100q-200 0 -200 200zM1475 201v1099q0 175 -175 175h-1100q-174 0 -175 -175v-1100q1 -175 175 -175h1101q174 0 174 176z" />
    <glyph glyph-name="uniF001" unicode="&#xf001;" horiz-adv-x="1073" 
 />
    <glyph glyph-name="uniF001" unicode="&#xfb01;" horiz-adv-x="1073" 
 />
    <glyph glyph-name="uniF002" unicode="&#xf002;" horiz-adv-x="1081" 
 />
    <glyph glyph-name="uniF002" unicode="&#xfb02;" horiz-adv-x="1081" 
 />
    </font>
</defs>
</svg>
