<?xml version="1.0" standalone="no"?>
<!DOCTYPE svg PUBLIC "-//W3C//DTD SVG 1.1//EN" "http://www.w3.org/Graphics/SVG/1.1/DTD/svg11.dtd" >
<svg xmlns="http://www.w3.org/2000/svg" xmlns:xlink="http://www.w3.org/1999/xlink" version="1.1">
<metadata>
Created by FontForge 20170731 at Fri May 30 13:23:17 2014
 By Aleksey,,,
Bythebutterfly
</metadata>
<defs>
<font id="Alittlesunshine" horiz-adv-x="460" >
  <font-face 
    font-family="A little sunshine"
    font-weight="500"
    font-stretch="normal"
    units-per-em="1000"
    panose-1="2 0 6 3 0 0 0 0 0 0"
    ascent="800"
    descent="-200"
    x-height="484"
    cap-height="713"
    bbox="-117.95 -213.653 761.12 855"
    underline-thickness="50"
    underline-position="-200"
    unicode-range="U+0020-F8FF"
  />
<missing-glyph horiz-adv-x="364" 
d="M66 33h199v600h-199v-600zM33 0v666h265v-666h-265z" />
    <glyph glyph-name=".notdef" horiz-adv-x="364" 
d="M66 33h199v600h-199v-600zM33 0v666h265v-666h-265z" />
    <glyph glyph-name=".null" horiz-adv-x="0" 
 />
    <glyph glyph-name="nonmarkingreturn" horiz-adv-x="333" 
 />
    <glyph glyph-name="space" unicode=" " horiz-adv-x="258" 
 />
    <glyph glyph-name="exclam" unicode="!" horiz-adv-x="106" 
d="M77 707q1 -61 -2 -288t3 -289q0 -8 -5 -13.5t-12.5 -5.5t-13 5t-5.5 12q-6 62 -3 289.5t2 289.5q0 7 5 12.5t12.5 5.5t13 -5t5.5 -13zM80 22q6 -5 6 -12t-5.5 -12.5t-12.5 -5.5t-12.5 5.5t-5.5 12.5t5.5 12.5t12.5 5.5t12 -6z" />
    <glyph glyph-name="quotedbl" unicode="&#x22;" horiz-adv-x="162" 
d="M63 694q4 -116 9 -145q1 -8 -3.5 -14t-12 -7t-13.5 3.5t-7 11.5q-5 32 -9 149q0 8 5 13.5t12.5 5.5t13 -5t5.5 -12zM128 692q1 -14 2 -40t2 -35q2 -44 7 -73q1 -8 -3.5 -14t-12 -7t-13.5 3.5t-7 11.5q-5 31 -7 77q-1 9 -2 35t-2 40q0 7 4.5 12.5t12 6t13 -4t6.5 -12.5z
" />
    <glyph glyph-name="numbersign" unicode="#" horiz-adv-x="576" 
d="M188 167q82 13 164 19q0 126 1 220q-106 -19 -164 -26q-1 -90 -1 -213zM152 125q-29 -5 -59 -11q-7 -1 -13 3t-7.5 11.5t2.5 13.5t12 8q33 6 65 11q0 124 1 216q-50 -5 -93 -5q-7 0 -12.5 5.5t-5.5 12.5t5.5 12.5t12.5 5.5q44 0 94 5q1 125 5 233q0 7 5.5 12t13 5
t12.5 -5.5t5 -13.5q-4 -105 -5 -227q54 6 164 26q2 116 5 216q0 7 5.5 12t13 5t12.5 -5.5t5 -13.5q-3 -97 -5 -208q57 10 96 16q8 1 14 -3.5t7 -12t-3.5 -13.5t-11.5 -7q-39 -5 -103 -16q-1 -96 -1 -225q73 5 147 5q7 0 12.5 -5.5t5.5 -12.5t-5.5 -12.5t-12.5 -5.5
q-74 0 -147 -5v-132q0 -7 -5.5 -12.5t-12.5 -5.5t-12.5 5.5t-5.5 12.5v130q-82 -7 -164 -19v-124q0 -7 -5.5 -12.5t-12.5 -5.5t-12.5 5.5t-5.5 12.5v118z" />
    <glyph glyph-name="dollar" unicode="$" horiz-adv-x="400" 
d="M326 501q0 3 -1 10q-6 40 -8 55q-4 19 -15.5 43.5t-30.5 40.5q-23 21 -57 22.5t-66 -14.5q-33 -15 -55 -41.5t-24 -55.5q-4 -51 42 -111q27 -35 110 -113q81 -76 112 -120q52 -73 44 -142q-9 -72 -65 -93q-48 -17 -114 7q-60 23 -110.5 72.5t-63.5 106.5q-1 7 3 13.5
t11 8t13.5 -2.5t8.5 -11q10 -47 53 -90q44 -43 98 -63q53 -20 88 -7q36 13 42 63q7 55 -37 117q-30 41 -108 115q-85 79 -114 117q-54 71 -49 135q3 41 31.5 75t68.5 53q37 19 83 17t79 -30q8 -7 15 -15.5t12 -15.5t10 -17l8 -17q3 -6 6 -18t4.5 -17.5t4 -19t3 -17.5
t2 -18.5t2.5 -17.5q1 -7 -3.5 -13t-12 -7t-13.5 3.5t-7 12.5zM203 791q1 -31 1 -50q0 -7 -5.5 -12.5t-12.5 -5.5t-12.5 5.5t-5.5 12.5q0 19 -1 48q0 8 5 13.5t12.5 5.5t13 -5t5.5 -12zM269 -90v-24q0 -7 -5.5 -12.5t-12.5 -5.5t-12.5 5.5t-5.5 12.5v20q0 2 -0.5 4.5t-1.5 9
t-2 14.5q-1 7 3.5 13t12 7t13.5 -3.5t7 -12.5t2 -14.5t1.5 -9.5t0.5 -4z" />
    <glyph glyph-name="percent" unicode="%" horiz-adv-x="639" 
d="M107 72q217 382 481 632q5 5 12.5 5t12.5 -5.5t5 -13t-6 -12.5q-259 -247 -473 -624q-4 -6 -11 -8t-13.5 1.5t-8.5 10.5t1 14zM203 569q6 -5 6 -12t-5.5 -12.5t-12.5 -5.5t-12.5 5.5t-5.5 12.5t5.5 12.5t12.5 5.5t12 -6zM440 148q6 -5 6 -12t-5.5 -12.5t-12.5 -5.5
t-12.5 5.5t-5.5 12.5t5.5 12.5t12.5 5.5t12 -6z" />
    <glyph glyph-name="ampersand" unicode="&#x26;" horiz-adv-x="572" 
d="M364 309q103 22 184 25q8 0 13.5 -5t5.5 -12.5t-5 -13t-12 -5.5q-35 -1 -72 -6q-5 -37 -38 -90q-35 -58 -89 -111q-56 -58 -109 -85q-64 -34 -107 -14t-38 76q3 40 32 97q30 61 79 127q-28 -14 -50 -21q-34 -11 -59 -8q-35 5 -47 38q-18 48 12 141q29 88 80 156
q60 79 118 82q72 3 112 -111q2 -7 -1 -14t-10 -9t-14 1t-9 10q-31 89 -76 87q-41 -2 -91 -68q-47 -63 -74 -146q-27 -80 -13 -117q4 -12 18 -14q16 -2 43 6q21 7 88 41l29 15l19 9l6 3l2 1h1v1h3q3 2 8 0q14 -3 14 -17q0 -6 -4 -11q-9 -12 -32 -30q-19 -15 -26 -23
q-55 -67 -94 -145q-25 -51 -28 -84q-3 -31 18 -41q26 -12 74 13q48 26 101 79q50 51 84 105q23 38 30 65q-32 -5 -68 -13q-8 -1 -14 3t-7.5 11.5t2.5 13.5t11 8z" />
    <glyph glyph-name="quotesingle" unicode="'" horiz-adv-x="79" 
d="M53 733q3 -21 4 -43q0 -23 -0.5 -39t-2 -42.5t-1.5 -38.5q0 -7 -5.5 -12t-13 -5t-12.5 5.5t-5 13.5q0 13 1.5 39t2 41t0 36t-3.5 39q-1 8 3.5 14t12 7t13.5 -3.5t7 -11.5z" />
    <glyph glyph-name="parenleft" unicode="(" horiz-adv-x="175" 
d="M154 762q-85 -199 -88 -420t82 -419q3 -6 0.5 -13t-9 -10t-13.5 -0.5t-10 9.5q-89 207 -86 434q3 228 90 433q3 7 10 9.5t14 0t9.5 -9.5t0.5 -14z" />
    <glyph glyph-name="parenright" unicode=")" horiz-adv-x="176" 
d="M9 -72q95 190 108.5 414.5t-63.5 422.5q-2 7 0.5 14t9.5 9.5t14 0t10 -9.5q79 -206 65 -438t-112 -429q-3 -7 -10 -9t-14 1t-9 10t1 14z" />
    <glyph glyph-name="asterisk" unicode="*" horiz-adv-x="431" 
d="M240 670q2 -51 -3 -121q55 30 138 69q7 3 14 0.5t10 -9t0.5 -13.5t-8.5 -10q-76 -36 -126 -63q91 -57 138 -100q6 -5 6 -12t-5 -13t-12 -6t-13 5q-49 43 -146 104q-10 -110 -10 -157q0 -7 -5.5 -12.5t-12.5 -5.5t-12.5 5.5t-5.5 12.5q0 49 8 140q-69 -42 -132 -94
q-6 -5 -13.5 -4t-12.5 6.5t-4 13t6 12.5q68 56 155 107q-69 40 -119 64q-6 3 -8.5 10t0.5 13.5t10 9t14 -0.5q47 -22 111 -59q4 61 2 106q0 8 5 13.5t12.5 5.5t13 -5t5.5 -12z" />
    <glyph glyph-name="plus" unicode="+" horiz-adv-x="333" 
d="M170 367q-54 -6 -89 -6q-7 0 -12.5 5.5t-5.5 12.5t5.5 12.5t12.5 5.5q33 0 86 6q-4 63 -6 104q0 7 5 13t12 6t13 -5t6 -12q2 -40 6 -103q54 6 89 6q7 0 12.5 -5.5t5.5 -12.5t-5.5 -12.5t-12.5 -5.5q-33 0 -86 -6q5 -87 8 -133q0 -7 -5 -13t-12 -6t-13 5t-6 12
q-3 46 -8 132z" />
    <glyph glyph-name="comma" unicode="," horiz-adv-x="105" 
d="M94 39q-2 -61 -21 -94q-23 -42 -78 -60q-7 -2 -14 1t-9 10t1 14t10 9q43 14 59 44q14 25 16 78q0 7 5.5 12t13 5t12.5 -5.5t5 -13.5z" />
    <glyph glyph-name="hyphen" unicode="-" horiz-adv-x="309" 
d="M53 315q60 3 213 21q7 1 13 -3.5t7 -12t-3.5 -13.5t-12.5 -7q-154 -18 -215 -21q-8 0 -13.5 5t-5.5 12.5t5 13t12 5.5z" />
    <glyph glyph-name="period" unicode="." horiz-adv-x="78" 
d="M49 28q6 -5 6 -12t-5.5 -12.5t-12.5 -5.5t-12.5 5.5t-5.5 12.5t5.5 12.5t12.5 5.5t12 -6z" />
    <glyph glyph-name="slash" unicode="/" horiz-adv-x="458" 
d="M15 19l388 679q4 6 11 8t13.5 -1.5t8.5 -10.5t-1 -14l-388 -679q-4 -6 -11 -8t-13.5 1.5t-8.5 10.5t1 14z" />
    <glyph glyph-name="zero" unicode="0" horiz-adv-x="450" 
d="M250 703q8 5 16 2q77 -27 122 -141q40 -101 43 -232t-34 -226q-43 -110 -126 -126q-84 -16 -145 59q-49 59 -64 143q-10 52 -5.5 132.5t23.5 154.5q49 188 157 234q6 2 13 0zM251 669q-47 -19 -81.5 -75t-54.5 -134q-18 -71 -22.5 -147.5t5.5 -124.5q13 -74 55 -126
q49 -58 112 -46q62 12 98 103q35 88 32 213q-3 123 -40 218q-40 99 -101 121q-1 -1 -3 -2z" />
    <glyph glyph-name="one" unicode="1" horiz-adv-x="283" 
d="M249 695q0 -56 -1 -166.5t-1.5 -179t2.5 -163t11 -172.5q1 -8 -4 -13.5t-12.5 -6.5t-13 4t-6.5 12q-7 79 -10.5 174t-3 163.5t1.5 180.5t1 167q0 7 5.5 12.5t12.5 5.5t12.5 -5.5t5.5 -12.5z" />
    <glyph glyph-name="two" unicode="2" horiz-adv-x="501" 
d="M281 174q-38 5 -78 -5q-60 -16 -100 -47q-46 -37 -43 -83q1 -11 1 -12q10 -11 34 -5q25 7 60 31q29 19 56.5 44t38.5 38q16 18 31 39zM169 592q29 45 70 75t81 34q48 4 77 -31q31 -36 35 -109q5 -88 -20 -185q-26 -97 -75 -180q50 -21 86.5 -65.5t57.5 -103.5
q2 -7 -1 -13.5t-10 -9t-13.5 0.5t-9.5 10q-41 116 -129 149q-19 -28 -40 -53q-13 -15 -42 -41t-60 -47q-41 -27 -72 -35q-45 -12 -69 15q-9 10 -11 34q-4 65 57 113q45 36 112 53q58 15 109 4q48 79 73.5 173t20.5 179q-4 61 -26 88q-18 21 -46 18q-30 -2 -64.5 -27.5
t-60.5 -65.5q-4 -6 -11.5 -7.5t-13.5 2.5t-7.5 11.5t2.5 13.5z" />
    <glyph glyph-name="three" unicode="3" horiz-adv-x="516" 
d="M140 624q23 18 60.5 36t75.5 27q108 24 142 -44q15 -30 -3 -65q-13 -26 -45 -53q-24 -21 -58 -42q63 -2 107.5 -42.5t62 -98.5t10.5 -119q-12 -105 -85 -166q-84 -70 -219 -50q-70 11 -134 64q-5 5 -6 12.5t4 13t12.5 6.5t13.5 -4q55 -47 116 -56q118 -18 190 42
q62 52 72 142q11 87 -32 153.5t-119 66.5q-46 0 -74 -6q-12 -5 -24 -9q-2 -1 -7 -2.5t-6 -2.5q-5 -1 -7 -2t-3 -1q-4 0 -8 1q-7 3 -10 9q-4 7 -1 15q2 4 5 7q1 1 2 1.5t2 1.5q20 11 46 17q16 6 33 15q55 28 94 62q26 22 36 41t3 33q-22 43 -102 25q-34 -8 -68 -24.5
t-54 -31.5q-6 -5 -13.5 -4t-12 7t-3.5 13.5t7 11.5z" />
    <glyph glyph-name="four" unicode="4" horiz-adv-x="495" 
d="M308 280q-4 184 -13 349l-108 -154q-52 -75 -80 -122q-16 -26 -24 -42l-4 -8l6 -2q13 -5 37 -9q44 -7 121 -10q30 -1 65 -2zM309 244q-37 0 -68 2q-78 3 -124 11q-28 4 -45 10q-24 9 -29 24q-3 8 1 20q2 6 7 16q8 17 25 45q27 44 81 123q98 144 146 205q4 6 11.5 7
t13.5 -3.5t7 -12t-4 -13.5l-3 -4q12 -184 16 -395h113q7 0 12.5 -5.5t5.5 -12.5t-5.5 -12.5t-12.5 -5.5h-112q2 -115 2 -243q0 -7 -5.5 -12.5t-12.5 -5.5t-12.5 5.5t-5.5 12.5q0 128 -2 244z" />
    <glyph glyph-name="five" unicode="5" horiz-adv-x="433" 
d="M334 672q-109 -25 -213 -31h-3q0 -4 -1 -11q0 -19 -1 -57q0 -79 -1 -88q36 39 84 57q57 21 103 -7q39 -23 66 -76q22 -44 33 -97.5t11 -95.5q0 -55 -19 -108t-52 -95.5t-85 -65.5t-113 -16q-45 5 -72.5 28.5t-45.5 65.5q-2 7 0.5 14t9.5 9.5t14 0t10 -9.5q14 -34 34 -51
t54 -21q67 -8 120 27.5t80.5 94.5t28.5 127q0 38 -10 87.5t-30 88.5q-23 45 -52 62q-32 19 -73 4q-29 -11 -54 -32.5t-39 -48.5q-3 -6 -8 -21q-5 -18 -10 -27q-1 -2 -2 -3q-1 -2 -2 -3q-4 -4 -9 -5q-11 -2 -18 7q-3 3 -4 8v5q0 2 1 8l3 13q7 43 10 71q1 5 1 93q1 38 1 58
q1 13 1 21q1 4 1 7q2 7 5 11q9 12 26 8l5 -1q101 6 207 31q7 1 13.5 -3t8 -11t-2.5 -13.5t-11 -8.5z" />
    <glyph glyph-name="six" unicode="6" horiz-adv-x="459" 
d="M162 91q22 -29 52 -45q38 -21 82 9q62 42 88.5 112t15.5 129q-11 53 -42 62q-38 11 -93 -46q-33 -33 -56 -90q-15 -35 -39 -120q-2 -7 -8 -11zM345 572q-15 52 -36.5 80.5t-43.5 32t-48.5 -19.5t-53.5 -79q-25 -52 -41 -132q-16 -79 -14 -160q2 -101 32 -165
q19 68 35 107q26 63 64 102q71 72 129 55q53 -15 67 -90q13 -70 -17 -149.5t-102 -128.5q-27 -18 -56.5 -22t-63.5 11q-64 35 -93 110t-31 170q-2 84 15 168t44 140q29 62 65 93t75 25q36 -6 64 -43q28 -36 44 -95q2 -7 -1.5 -13.5t-10.5 -8.5t-13.5 1.5t-8.5 10.5z" />
    <glyph glyph-name="seven" unicode="7" horiz-adv-x="454" 
d="M105 681q12 0 62 5q79 9 99 10q61 6 96 6q21 1 35 -1q20 -3 28 -12q12 -13 2 -30q-2 -2 -4 -6q-2 -2 -2 -3l-56 -96q-34 -58 -52 -96q-121 -272 -121 -455q0 -7 -5.5 -12.5t-12.5 -5.5t-12.5 5.5t-5.5 12.5q0 191 125 469q18 40 53 100q49 84 54 94q-10 1 -26 0
q-33 0 -93 -5q-19 -2 -98 -11q-52 -5 -66 -5q-7 0 -12.5 5.5t-5.5 12.5t5.5 12.5t12.5 5.5z" />
    <glyph glyph-name="eight" unicode="8" horiz-adv-x="435" 
d="M260 511l37 57l75 113q-36 3 -65 -2q-23 -4 -50.5 -16t-45.5 -28q-20 -18 -23 -35q-3 -18 15 -38q12 -15 43 -39zM412 683q0 -6 -3 -11l-82 -124l-40 -62l6 -6q106 -114 137 -220q14 -44 11 -97t-24 -93q-24 -46 -68 -65.5t-105 -0.5q-38 11 -64 43t-35 71
q-29 126 66 307q13 26 30 54l-18 16q-33 26 -48 43q-29 33 -22 69q5 29 34 55q23 20 55 34t59 19q44 7 101 -1q7 -1 11.5 -7t3.5 -14q-1 -5 -5 -10zM268 454q-14 -24 -25 -46q-89 -169 -62 -282q7 -31 26.5 -55.5t46.5 -32.5q91 -27 131 49q17 33 20 78.5t-9 84.5
q-28 97 -128 204z" />
    <glyph glyph-name="nine" unicode="9" horiz-adv-x="405" 
d="M359 556l-8 -25q-42 -107 -88 -169q-37 -50 -75 -64q-50 -18 -93 28q-43 44 -29 127q11 72 58 143q49 73 107 103q71 36 128 -7q3 -2 5 -5q8 1 16 -4q2 -1 4 -3.5t3 -4.5v-1q1 -2 1 -4q1 -3 1 -7q1 -6 2 -17q1 -18 2 -50q3 -61 3 -81q0 -95 -9 -270.5t-11 -243.5
q0 -8 -5.5 -13t-13 -5t-12.5 5.5t-5 12.5q2 69 11 244t9 270q0 8 -1 41zM337 664q-38 29 -89 3t-94 -91q-42 -64 -53 -128q-10 -66 20 -98q27 -28 55 -18t59 52q42 57 82 161q6 14 12 41q8 34 12 46q0 2 0.5 5.5t1 9t0.5 10.5q0 2 1 4q-4 0 -7 3z" />
    <glyph glyph-name="colon" unicode=":" horiz-adv-x="122" 
d="M93 439q6 -5 6 -12t-5.5 -12.5t-12.5 -5.5t-12.5 5.5t-5.5 12.5t5.5 12.5t12.5 5.5t12 -6zM88 87q6 -5 6 -12t-5.5 -12.5t-12.5 -5.5t-12.5 5.5t-5.5 12.5t5.5 12.5t12.5 5.5t12 -6z" />
    <glyph glyph-name="semicolon" unicode=";" horiz-adv-x="111" 
d="M61 26q4 -40 -9 -69t-43 -57q-5 -5 -12.5 -5t-12.5 5.5t-5 13t6 12.5q24 23 33.5 44.5t6.5 51.5q-1 8 4 13.5t12.5 6.5t13 -4t6.5 -12zM82 455q6 -5 6 -12t-5.5 -12.5t-12.5 -5.5t-12.5 5.5t-5.5 12.5t5.5 12.5t12.5 5.5t12 -6z" />
    <glyph glyph-name="less" unicode="&#x3c;" horiz-adv-x="335" 
d="M284 431q-4 -4 -129 -108l-76 -63l-17 -15q6 -3 16 -7q30 -14 80 -35q100 -42 143 -56q7 -2 10 -9t1 -14t-9 -10t-14 -1q-44 15 -145 56l-81 36q-18 8 -28 14q-6 4 -9 7q-9 6 -10 15q-1 5 2 10q1 2 2 3.5t3 3.5l8 8q7 7 25 22l76 63q117 95 126 104q5 6 12.5 6t13 -5
t5.5 -12.5t-5 -12.5z" />
    <glyph glyph-name="equal" unicode="=" horiz-adv-x="345" 
d="M78 423q22 2 62 6l50 5q67 6 114 6q7 0 12.5 -5.5t5.5 -12.5t-5.5 -12.5t-12.5 -5.5q-45 0 -111 -6q-9 -1 -50 -5l-63 -6q-7 -1 -12.5 4t-6.5 12.5t4 13t13 6.5zM67 331q36 0 109 9q81 10 114 10q7 0 12.5 -5.5t5.5 -12.5t-5.5 -12.5t-12.5 -5.5q-37 0 -109 -9
q-80 -10 -114 -10q-7 0 -12.5 5.5t-5.5 12.5t5.5 12.5t12.5 5.5z" />
    <glyph glyph-name="greater" unicode="&#x3e;" horiz-adv-x="341" 
d="M8 184q10 6 155 67l91 38l20 9l-13 12q-23 21 -67 57q-82 67 -120 94q-7 5 -8 12t3.5 13.5t11.5 7.5t13 -3q40 -29 123 -96q44 -36 68 -58q15 -13 23 -22q5 -5 7 -9q6 -8 5 -17q-1 -6 -5 -10q-1 -1 -3 -2.5t-4 -2.5l-10 -5q-10 -5 -30 -13l-91 -38q-143 -60 -151 -64
q-6 -4 -13.5 -2.5t-11 8t-2 14t8.5 10.5z" />
    <glyph glyph-name="question" unicode="?" horiz-adv-x="393" 
d="M15 544q21 27 73 62.5t105 55.5q66 26 109 17q58 -11 68 -74q9 -58 -39 -126q-9 -14 -22 -31l-23 -26q-9 -11 -28.5 -32t-25.5 -28q-64 -72 -92 -130q-28 -57 -10 -119q2 -7 -1.5 -13.5t-10.5 -8.5t-13.5 1.5t-8.5 10.5q-8 28 -9 54q0 27 7.5 52.5t17.5 48t27 46.5t32 42
l34 40l26 28q19 21 28 31l21 25q13 16 22 29q39 57 32 100q-6 39 -39 45t-88 -15q-50 -19 -98 -52t-66 -55q-4 -6 -11.5 -7t-13.5 3.5t-7 12t4 13.5zM155 11q6 -5 6 -12t-5.5 -12.5t-12.5 -5.5t-12.5 5.5t-5.5 12.5t5.5 12.5t12.5 5.5t12 -6z" />
    <glyph glyph-name="at" unicode="@" horiz-adv-x="694" 
d="M435 441q-41 19 -90 -2.5t-91 -71.5q-39 -47 -51 -94q-11 -43 9 -61q14 -12 38 -6q23 6 54 30q26 20 49.5 47.5t34.5 46.5q1 1 2 4l1 4q1 4 1 5q3 9 7 13q10 12 25 7q7 -3 10 -9q1 -2 1 -4q1 -1 1 -2v-1v-1v-2v-5v-16v-27q1 -47 23 -62q27 -19 53 -8q25 11 50 45
q21 32 35.5 72t16.5 67q3 44 -7 85q-8 31 -29.5 59t-49.5 47q-44 29 -95.5 34.5t-100 -10t-94.5 -47.5q-69 -48 -114 -120t-49 -144q-7 -115 56 -190.5t165 -97.5q100 -22 196 16q97 38 149 132q4 6 11 8t13.5 -1.5t8.5 -10.5t-1 -14q-30 -53 -75 -91.5t-95.5 -57
t-106.5 -24.5t-108 7q-54 12 -100 39t-81 67t-53.5 97t-14.5 123q5 81 54 160q48 78 124 131q52 36 105 53q54 17 114 11t112 -40q33 -22 58.5 -56t34.5 -72q12 -46 9 -95q-2 -32 -18 -77t-41 -80q-30 -44 -65 -58q-44 -18 -87 11q-34 23 -38 80q-35 -45 -75 -77
q-36 -28 -67 -36q-42 -11 -71 15q-36 32 -20 96q14 55 59 108q46 56 107 83t117 0q6 -3 8.5 -10t-0.5 -13.5t-10 -9t-14 0.5z" />
    <glyph glyph-name="A" unicode="A" horiz-adv-x="479" 
d="M395 299q-29 -142 -87 -230q-37 -56 -90 -70q-62 -16 -108 38q-76 90 -68 273q3 78 22 150q18 74 46 124q39 67 84.5 99t91.5 23q45 -8 78 -54t50 -120q2 -9 -5 -16q2 -2 3 -4q2 -2 2 -4l1 -5v-2q1 -30 7 -87t7 -85q3 -49 10 -137q3 -39 25 -185q1 -8 -3.5 -14t-12 -7
t-13.5 3.5t-7 11.5q-22 154 -25 187q-5 65 -8 111zM378 524q-15 67 -41.5 104t-57.5 43q-30 6 -66 -19t-71 -86q-27 -45 -44 -114.5t-20 -142.5q-7 -169 60 -248q31 -37 71 -27q40 11 69 55q65 98 90 268q5 30 10 99q1 8 1 33v13v2v2q0 2 1 3q1 3 3 6q-3 4 -5 9z" />
    <glyph glyph-name="B" unicode="B" horiz-adv-x="425" 
d="M69 363q77 32 140 85t79 113q11 48 -9 74q-18 23 -59 28q-39 4 -82 -11t-67 -42q-2 -208 -2 -247zM70 321q4 -169 26 -294q69 8 137 47q100 58 126 123q21 53 -14 95q-23 28 -63 43t-97 13t-115 -27zM185 384q60 3 109.5 -15.5t78.5 -53.5q48 -59 19 -132
q-30 -76 -141 -141q-75 -43 -152 -51q-5 -7 -12 -9q-12 -2 -19 8q-12 3 -13 16q0 9 6 14q-14 78 -20.5 173t-7 157.5t1 180t1.5 160.5q0 7 5.5 12.5t12.5 5.5t12.5 -5.5t5.5 -12.5v-32q32 22 73 33t79 7q56 -7 83 -41q32 -40 15 -105q-22 -92 -137 -169z" />
    <glyph glyph-name="C" unicode="C" horiz-adv-x="415" 
d="M305 568q-3 41 -20 69t-40.5 37.5t-52 -1.5t-57.5 -46q-43 -54 -62 -157q-28 -151 -11 -274q10 -73 37 -119.5t62 -58.5q34 -12 75 12.5t81 95.5q34 58 57 134q2 7 8.5 10.5t13.5 1.5t10.5 -8.5t1.5 -13.5q-24 -80 -59 -142q-45 -78 -97.5 -110t-103.5 -14
q-47 17 -79 72.5t-43 135.5q-17 128 11 284q21 113 70 173q35 43 74.5 58.5t76.5 0.5q35 -14 57 -51t26 -87q1 -7 -4 -12.5t-12.5 -6.5t-13 4t-6.5 13z" />
    <glyph glyph-name="D" unicode="D" horiz-adv-x="462" 
d="M95 31q53 1 92 13t82 42q97 66 123 148q21 75 3 148t-69 138q-50 61 -117 99t-137 40q0 -36 -1.5 -123t-1.5 -134t2 -118.5t8 -133t16 -119.5zM72 695q78 -2 153 -43q75 -42 129 -110q56 -70 76 -151t-4 -167q-30 -94 -137 -168q-47 -32 -90 -45.5t-99 -15.5
q-3 -10 -13 -13q-8 -1 -14 3t-8 11q-16 80 -23.5 179.5t-8 162.5t1 187.5t1.5 165.5q0 7 5.5 12.5t12.5 5.5q14 0 18 -14z" />
    <glyph glyph-name="E" unicode="E" horiz-adv-x="418" 
d="M63 687l39 5q30 4 42 6t38.5 5t43 4.5t38.5 2.5t42 1q7 0 12.5 -5.5t5.5 -12.5t-5.5 -12.5t-12.5 -5.5q-65 0 -234 -23q0 -40 -1.5 -132.5t-1.5 -141.5q116 0 222 13q7 1 13 -3.5t7 -12t-3.5 -13.5t-12.5 -7q-108 -13 -226 -13q2 -191 29 -326q152 -10 274 24
q7 2 13.5 -1.5t8.5 -10.5t-1.5 -13.5t-10.5 -8.5q-132 -38 -294 -25q-3 0 -5 1q-15 0 -18 14q-16 78 -23.5 174t-8 158.5t1 181.5t1.5 161q0 7 5.5 12.5t12.5 5.5q5 0 9 -2z" />
    <glyph glyph-name="F" unicode="F" horiz-adv-x="347" 
d="M63 687l39 5q30 4 42 6t38.5 5t43 4.5t38.5 2.5t42 1q7 0 12.5 -5.5t5.5 -12.5t-5.5 -12.5t-12.5 -5.5q-65 0 -234 -23q0 -40 -1.5 -132.5t-1.5 -141.5q116 0 222 13q7 1 13 -3.5t7 -12t-3.5 -13.5t-12.5 -7q-108 -13 -226 -13q2 -200 32 -338q1 -8 -3 -14t-11.5 -7.5
t-13.5 2.5t-8 11q-16 78 -23.5 174t-8 158.5t1 181.5t1.5 161q0 7 5.5 12.5t12.5 5.5q5 0 9 -2z" />
    <glyph glyph-name="G" unicode="G" horiz-adv-x="447" 
d="M288 568q-3 41 -20 69t-40.5 37.5t-52 -1.5t-57.5 -46q-76 -94 -78 -323q-1 -151 45 -229q38 -64 94 -59q56 6 106 79.5t64 198.5h-100q-7 0 -12.5 5.5t-5.5 12.5t5.5 12.5t12.5 5.5q122 0 156 1q8 0 13.5 -5t5.5 -12.5t-5 -13t-12 -5.5h-21q-15 -136 -72 -221
q-58 -86 -131 -93q-38 -4 -71 15q-34 20 -58 60q-50 85 -50 248q0 48 3.5 88t11.5 88.5t26 92t45 76.5q35 43 74.5 58.5t76.5 0.5q35 -14 57 -51t26 -87q1 -7 -4 -12.5t-12.5 -6.5t-13 4t-6.5 13z" />
    <glyph glyph-name="H" unicode="H" horiz-adv-x="372" 
d="M331 710q-22 -402 18 -697q1 -7 -3.5 -13t-12 -7t-13.5 3.5t-7 12.5q-20 156 -24 345q-106 -12 -220 -12q2 -200 32 -338q1 -8 -3 -14t-11.5 -7.5t-13.5 2.5t-8 11q-16 78 -23.5 174t-8 158.5t1 181.5t1.5 161q0 7 5.5 12.5t12.5 5.5t12.5 -5.5t5.5 -12.5
q0 -47 -1.5 -145t-1.5 -148q114 0 219 13q-2 159 7 321q0 7 6 12t13 5t12 -6t5 -13z" />
    <glyph glyph-name="I" unicode="I" horiz-adv-x="110" 
d="M76 695q0 -56 -1 -166.5t-1.5 -179t2.5 -163t11 -172.5q1 -8 -4 -13.5t-12.5 -6.5t-13 4t-6.5 12q-7 79 -10.5 174t-3 163.5t1.5 180.5t1 167q0 7 5.5 12.5t12.5 5.5t12.5 -5.5t5.5 -12.5z" />
    <glyph glyph-name="J" unicode="J" horiz-adv-x="351" 
d="M306 694l9 -98q2 -23 7 -95.5t4 -111.5t-3 -99t-11 -108t-23 -92q-16 -47 -50.5 -80t-77.5 -45q-45 -11 -87 6.5t-70 65.5q-3 6 -1.5 13.5t8 11t14 2t11.5 -8.5q20 -36 51 -49t65 -4t62 35.5t41 65.5q16 48 24.5 112t10.5 112.5t-2 129t-7 114.5t-11 119q-1 9 4 14.5
t12.5 6.5t13 -4t6.5 -13z" />
    <glyph glyph-name="K" unicode="K" horiz-adv-x="480" 
d="M152 491q101 29 169 -13q102 -61 129 -218q23 -133 -15 -255q-2 -7 -8.5 -10.5t-13.5 -1.5t-10.5 8.5t-1.5 13.5q35 115 13 239q-23 140 -111 194q-37 19 -81.5 17.5t-85.5 -19.5q-10 -4 -34 -24l-16 -13h-1q2 -292 2 -401q0 -7 -5.5 -12.5t-12.5 -5.5t-12.5 5.5
t-5.5 12.5q0 115 -1.5 346t-1.5 346q0 7 5.5 12.5t12.5 5.5t12.5 -5.5t5.5 -12.5q0 -97 1 -233l99 119q67 82 104 123q5 6 12 6t13 -5t6 -12t-5 -13l-52 -61l-59 -72q-32 -40 -51 -61z" />
    <glyph glyph-name="L" unicode="L" horiz-adv-x="404" 
d="M72 693q-10 -171 -3 -471v-20v-38v-47q0 -42 1 -66v-21q3 -1 7 -2q12 -2 31 -3q36 -2 95 2q26 2 165 16q8 1 13.5 -4t6.5 -12.5t-4 -13t-12 -6.5q-140 -14 -167 -16q-61 -4 -98 -2q-23 1 -38 4q-20 4 -28 14q-3 3 -5 8q0 2 -1 4v8q-1 9 -1 23q-1 25 -1 67v47v38v20
q-7 300 3 473q0 8 6 12.5t13.5 4.5t12 -6t4.5 -13z" />
    <glyph glyph-name="M" unicode="M" horiz-adv-x="529" 
d="M110 682q6 -9 20 -34l34 -62l37 -67q34 -58 56 -90q12 -19 21 -29l5 -5q2 2 5 4q10 8 23 26q25 32 61 91q36 57 98 171q4 7 12 9q3 1 7 1q8 0 13 -5.5t5 -12.5q-5 -56 -1 -340t4 -340q0 -7 -5.5 -12.5t-12.5 -5.5t-12.5 5.5t-5.5 12.5q0 76 -3 286.5t-1 325.5
q-37 -66 -67 -114q-37 -61 -63 -94q-16 -21 -28 -31q-18 -16 -34 -14q-12 2 -27 18q-10 12 -24 32q-23 34 -57 94l-61 109q-2 -116 1 -329t3 -288q0 -7 -5.5 -12.5t-12.5 -5.5t-12.5 5.5t-5.5 12.5q0 56 -4 340.5t1 339.5q0 8 5.5 13t12.5 5t11 -4q5 -2 7 -6z" />
    <glyph glyph-name="N" unicode="N" horiz-adv-x="503" 
d="M93 612q0 -86 -0.5 -286.5t-0.5 -308.5q0 -7 -5.5 -12.5t-12.5 -5.5t-12.5 5.5t-5.5 12.5q0 110 0.5 329t0.5 329q0 7 5.5 12.5t12.5 5.5q13 0 17 -12q15 -20 28.5 -44t27.5 -52.5t22 -42.5q117 -210 273 -459q0 89 0.5 294t0.5 315q0 7 5.5 12.5t12.5 5.5t12.5 -5.5
t5.5 -12.5q0 -112 -0.5 -335.5t-0.5 -335.5v-1q0 -7 -5.5 -12.5t-12.5 -5.5q-13 0 -17 12q-177 281 -306 510q-10 18 -24.5 47.5t-20.5 40.5z" />
    <glyph glyph-name="O" unicode="O" 
d="M245 709q7 5 15 2q93 -29 144 -155q45 -112 40 -251q-5 -142 -59 -230q-64 -105 -172 -89q-45 7 -79 29t-54.5 56t-31.5 72t-14 83q-7 80 8.5 166.5t40.5 146.5q30 69 53 104q48 70 103 67q3 0 6 -1zM237 674q-35 2 -71 -52q-21 -31 -49 -97q-24 -56 -38 -139
q-15 -81 -9 -157q14 -187 149 -207q84 -13 135 72q49 79 54 212q5 132 -37 236q-45 111 -121 135h-2q-5 -3 -11 -3z" />
    <glyph glyph-name="P" unicode="P" horiz-adv-x="400" 
d="M71 315q202 75 256 192q31 70 14 118q-15 41 -61 58q-44 17 -103.5 4t-99.5 -54q-2 -1 -3 -2q0 -42 -1.5 -139.5t-1.5 -150.5v-13v-13zM73 678q48 37 109 47t110 -9q63 -22 83 -79q22 -61 -16 -144q-61 -134 -285 -215q-1 0 -3 -1q2 -150 13 -263q1 -8 -4 -13.5
t-12.5 -6.5t-13 4t-6.5 12q-13 136 -13 331q0 54 1.5 164.5t1.5 166.5q0 7 5.5 12.5t12.5 5.5q13 0 17 -12z" />
    <glyph glyph-name="Q" unicode="Q" 
d="M335 18q-53 -42 -122 -32q-45 7 -79 29t-54.5 56t-31.5 72t-14 83q-7 80 8.5 166.5t40.5 146.5q30 69 53 104q48 70 103 67q3 0 6 -1q7 5 15 2q93 -29 144 -155q45 -112 40 -251q-5 -142 -59 -230q-11 -18 -23 -32l47 -44q6 -5 6 -12.5t-5 -13t-12.5 -5.5t-12.5 5z
M237 674q-35 2 -71 -52q-21 -31 -49 -97q-24 -56 -38 -139q-15 -81 -9 -157q14 -187 149 -207q50 -8 90 21q-21 20 -37 38q-5 6 -4 13.5t6.5 12.5t13 4t12.5 -6q15 -19 35 -38q10 12 19 27q49 79 54 212q5 132 -37 236q-45 111 -121 135h-2q-5 -3 -11 -3z" />
    <glyph glyph-name="R" unicode="R" horiz-adv-x="395" 
d="M101 312q103 -135 267 -290q6 -5 6 -12.5t-5 -13t-12.5 -5.5t-12.5 5q-166 156 -271 294q1 -158 13 -276q1 -8 -4 -13.5t-12.5 -6.5t-13 4t-6.5 12q-13 136 -13 331q0 52 1 137q-4 7 -2 14l2 10q2 114 2 170q0 7 5.5 12.5t12.5 5.5t12.5 -5.5t5.5 -12.5q0 -43 -1 -102
q31 44 70 79q45 40 87 54q53 17 92 -11q35 -25 35 -85q0 -96 -92 -189q-76 -76 -166 -106zM77 343q87 23 164 100q82 83 82 164q0 41 -19 55q-25 18 -61 6q-35 -11 -74 -46q-32 -29 -58 -64t-37 -62q-1 -99 -1 -151z" />
    <glyph glyph-name="S" unicode="S" horiz-adv-x="400" 
d="M326 501q0 3 -1 10q-6 40 -8 55q-4 19 -15.5 43.5t-30.5 40.5q-23 21 -57 22.5t-66 -14.5q-33 -15 -55 -41.5t-24 -55.5q-4 -51 42 -111q27 -35 110 -113q81 -76 112 -120q52 -73 44 -142q-9 -72 -65 -93q-48 -17 -114 7q-60 23 -110.5 72.5t-63.5 106.5q-1 7 3 13.5
t11 8t13.5 -2.5t8.5 -11q10 -47 53 -90q44 -43 98 -63q53 -20 88 -7q36 13 42 63q7 55 -37 117q-30 41 -108 115q-85 79 -114 117q-54 71 -49 135q3 41 31.5 75t68.5 53q37 19 83 17t79 -30q8 -7 15 -15.5t12 -15.5t10 -17l8 -17q3 -6 6 -18t4.5 -17.5t4 -19t3 -17.5
t2 -18.5t2.5 -17.5q1 -7 -3.5 -13t-12 -7t-13.5 3.5t-7 12.5z" />
    <glyph glyph-name="T" unicode="T" horiz-adv-x="400" 
d="M8 676q143 24 365 14q7 0 12 -5.5t5 -13t-5.5 -12.5t-13.5 -5q-102 4 -180 2q0 -52 -1.5 -161.5t-1.5 -175t3 -158t11 -168.5q1 -8 -4 -13.5t-12.5 -6.5t-13 4t-6.5 12q-8 76 -11 169t-3 158.5t1.5 176t1.5 162.5q-76 -4 -141 -15q-7 -1 -13.5 3.5t-7.5 11.5t3.5 13.5
t11.5 7.5z" />
    <glyph glyph-name="U" unicode="U" horiz-adv-x="426" 
d="M87 678q-11 -86 -13.5 -175t5.5 -185t29 -170q18 -63 50 -98q38 -43 85 -22q46 20 77 102q27 72 39 190q16 153 7 361q0 8 5 13.5t12.5 5.5t13 -5t5.5 -12q9 -212 -7 -366q-13 -122 -42 -199q-35 -97 -96 -124q-71 -30 -126 32q-37 41 -57 112q-22 78 -30 176
q-9 99 -6 190q2 90 13 178q1 8 7 12.5t13.5 3.5t12 -7t3.5 -13z" />
    <glyph glyph-name="V" unicode="V" horiz-adv-x="438" 
d="M77 680q47 -342 88 -512q2 -4 5 -18.5t7 -31.5t8 -32q7 -28 14 -46q7 -16 11 -21l5 5q10 13 23 45q11 30 29 96q8 32 32 123l38 139l30 121q18 73 31 134q2 7 8.5 11t13.5 2.5t11 -8t3 -13.5l-32 -135q-18 -74 -31 -121l-36 -138l-34 -125q-20 -72 -30 -99
q-14 -37 -29 -55q-11 -13 -23 -17q-17 -5 -31 7q-12 10 -22 36q-8 20 -16 50q-4 15 -8 32t-7 32t-4 19q-40 165 -90 516q-1 7 3.5 13t12 7t13.5 -3.5t7 -12.5z" />
    <glyph glyph-name="W" unicode="W" horiz-adv-x="759" 
d="M58 682q47 -342 88 -512q1 -3 4 -16l5 -23q8 -34 15 -57q10 -31 21 -45q3 -5 6 -6q2 3 5 10q6 12 13 32q3 9 16 52q13 42 29 88l28 77l35 90l31 81q0 8 6 14q9 9 20 5q14 -5 12 -20l133 -330q0 -1 4 -12l10 -24l11 -26q10 -21 18 -33l2 4q7 17 17 50q3 10 23 87
q46 183 103 539q1 7 7 11.5t13.5 3.5t12 -7t3.5 -14q-57 -358 -105 -541q-19 -78 -23 -90q-10 -34 -18 -53q-6 -13 -11 -20q-10 -14 -24 -14q-10 0 -19 10q-6 5 -12 14q-8 14 -19 38q-6 12 -11 26l-10 25q-5 11 -6 12l-118 294q-81 -208 -108 -295q-13 -44 -16 -53
q-8 -22 -14 -36q-4 -9 -7 -14q-6 -10 -13 -13q-15 -8 -31 -2q-12 5 -22 18q-14 19 -26 55q-8 26 -16 61l-5 23q-3 13 -3 16q-40 165 -90 516q-1 7 3.5 13t12 7t13.5 -3.5t7 -12.5z" />
    <glyph glyph-name="X" unicode="X" horiz-adv-x="474" 
d="M233 281l-187 -287q-4 -6 -11 -7.5t-13.5 2.5t-8 11t2.5 14l198 304l-184 365q-3 7 -1 14t9 10t14 1t10 -9l174 -346q123 197 181 339q3 7 10 9.5t14 0t9.5 -9.5t0.5 -14q-62 -150 -196 -362l2 -4q8 -14 40 -76l45 -86q13 -25 40 -68t53 -77q5 -6 4 -13.5t-7 -12
t-13.5 -3.5t-11.5 7q-21 27 -39.5 54.5t-39.5 64.5l-31 54l-34 66z" />
    <glyph glyph-name="Y" unicode="Y" horiz-adv-x="459" 
d="M111 650l27 -82q15 -45 30 -83q27 -74 49 -113q12 -22 22 -33q4 -5 7 -6q6 2 14 10q12 12 26 34q23 37 54 110q17 41 32 81q17 43 30 80.5t17 47.5q3 6 10 9t13.5 0.5t9.5 -9.5t1 -14q-4 -9 -17 -46l-30 -82q-16 -41 -33 -81q-32 -74 -57 -115q-16 -26 -30 -40
q-11 -11 -22 -16q10 -135 -3 -293q-1 -8 -6.5 -13t-13 -4t-12.5 6.5t-4 12.5q13 158 3 291q-8 4 -16 13q-12 14 -26 39q-23 41 -52 118q-15 40 -30 84l-27 82l-14 43q-2 7 1 14t10 9t14 -1t9 -10t14 -43z" />
    <glyph glyph-name="Z" unicode="Z" horiz-adv-x="500" 
d="M111 693q39 3 172 1q61 -1 105 -3q24 -1 36 -3q8 -1 13 -2q3 -1 6 -3q6 -2 9 -7q6 -9 3 -23q-2 -7 -7 -16q-7 -15 -23 -36q-19 -26 -46 -59q-46 -53 -88 -113q60 3 105 -6q7 -2 11 -8t2.5 -13.5t-7.5 -11.5t-14 -3q-49 11 -124 4q-48 -73 -100 -166q-23 -40 -49 -102
q-17 -39 -24 -63q-3 -13 -4 -20v-1q5 -1 12 -3q15 -2 41 -4q40 -2 118 0q17 0 50.5 0.5t53.5 1t44.5 0.5t41.5 -1t28 -2q7 -1 11.5 -7t3.5 -13.5t-7 -12t-14 -3.5q-22 4 -211 1q-88 -1 -121 1q-28 1 -45 4q-23 4 -32 13q-10 9 -10 27q1 12 6 29q7 26 25 68q27 63 50 105
q45 79 86 143q-49 -6 -72 -8q-7 -1 -12.5 4t-6.5 12.5t4 13t13 6.5q18 1 54.5 5.5t45.5 5.5q52 76 107 141q27 31 45 56q14 19 20 31q-11 1 -30 2q-39 2 -104 3q-131 2 -169 -1q-7 0 -12.5 4.5t-6 12t4 13t12.5 6.5z" />
    <glyph glyph-name="bracketleft" unicode="[" horiz-adv-x="293" 
d="M194 711q-52 2 -75 2q-29 0 -45 -1q-8 0 -13 -1q-1 -5 -3 -13q-3 -18 -5 -49q-3 -55 -2 -146q1 -98 7 -245q0 -3 1 -27t2 -57.5t3 -62.5q2 -58 5 -91q1 -18 3 -28l13 1l62 3q94 4 106 4q7 0 12.5 -5.5t5.5 -12.5t-5.5 -12.5t-12.5 -5.5q-12 0 -105 -4l-62 -3
q-13 -1 -20 -1h-6h-1h-2h-1q-1 0 -2 1q-4 0 -8 3q-5 5 -7 14q-1 4 -2 11q-2 12 -4 32q-3 34 -5 92q-2 29 -3 62.5t-2 58t-1 26.5q-6 148 -7 247q-1 92 2 148q2 33 6 53q2 11 4 19q4 11 10 16q4 4 10 6q3 1 7 1q7 1 18 2q18 1 47 1q23 0 77 -2q7 0 12 -5.5t5 -13t-5.5 -12.5
t-13.5 -5z" />
    <glyph glyph-name="backslash" unicode="\" horiz-adv-x="454" 
d="M399 1l-381 682q-3 7 -1 14t8.5 10.5t13.5 1.5t11 -8l381 -682q3 -7 1 -14t-8.5 -10.5t-13.5 -1.5t-11 8z" />
    <glyph glyph-name="bracketright" unicode="]" horiz-adv-x="287" 
d="M80 -3q41 -3 75 -4q29 -1 45 0h12q2 6 4 14q4 18 6 49q5 54 6 145q1 81 -2 246l-3 147q-2 84 -2 93q-1 18 -1 29h-14q-19 0 -61 -2q-106 -5 -109 -5q-7 0 -12 5.5t-5 13t5.5 12.5t13.5 5q1 0 105 5q42 2 63 2q14 0 23 -1q6 -1 10 -2q8 -2 12 -8q2 -3 3 -6q1 -1 1 -2v-2
v-3q1 -3 1 -9q0 -11 1 -31q0 -11 2 -93l3 -148q3 -165 2 -246q-1 -93 -6 -148q-3 -32 -7 -53q-5 -26 -15 -35q-4 -4 -10 -6q-3 -1 -8 -1q-6 -1 -17 -1q-17 -1 -47 0q-35 1 -76 4q-8 1 -12.5 6.5t-4 13t6 12t12.5 4.5z" />
    <glyph glyph-name="asciicircum" unicode="^" horiz-adv-x="258" 
d="M30 603q28 31 69 82q12 16 18 22q14 13 28 10q12 -3 21 -18q4 -6 14 -26q27 -54 52 -92q4 -6 2.5 -13.5t-7.5 -11.5t-13.5 -2.5t-11.5 7.5q-28 43 -54 96q-8 15 -10 19q-3 -3 -11 -13q-42 -53 -71 -84q-5 -6 -12.5 -6t-13 5t-5.5 12.5t5 12.5z" />
    <glyph glyph-name="underscore" unicode="_" horiz-adv-x="473" 
d="M61 -142q143 40 373 40q7 0 12.5 -5.5t5.5 -12.5t-5.5 -12.5t-12.5 -5.5q-225 0 -363 -38q-7 -2 -13.5 1.5t-8.5 10.5t1.5 13.5t10.5 8.5z" />
    <glyph glyph-name="grave" unicode="`" horiz-adv-x="114" 
d="M20 750q45 -48 69 -103q3 -6 0.5 -13t-9 -10t-13.5 -0.5t-10 9.5q-23 49 -63 93q-5 5 -5 12.5t5.5 12.5t13 5t12.5 -6z" />
    <glyph glyph-name="a" unicode="a" horiz-adv-x="378" 
d="M292 447q-44 35 -99 -4q-54 -39 -98 -128q-43 -88 -49 -168q-6 -82 32 -109q34 -25 67 2t65 99q23 52 49 132q27 84 30 89v3v5v4q1 9 4 15q7 13 23 12q9 -1 14 -10q2 -2 2 -6q1 -2 1.5 -6.5t0.5 -18.5q1 -41 3 -75q1 -19 2 -55q2 -40 4 -61q7 -102 19 -161q1 -7 -3 -13
t-11.5 -7.5t-13.5 2.5t-8 12q-11 60 -19 165l-3 61q-2 39 -3 55v2l-7 -23q-27 -83 -51 -136q-36 -79 -75 -111q-54 -46 -112 -5q-53 39 -46 141q7 88 53 182q48 96 110 141q76 55 141 3q6 -5 7 -12t-4 -13t-12 -7t-13 4z" />
    <glyph glyph-name="b" unicode="b" horiz-adv-x="351" 
d="M62 226q2 -100 9 -192q47 8 93.5 33t77.5 58q46 50 64 131q19 85 -17 134q-32 44 -85 38t-85 -52q-52 -75 -57 -148v-2zM36 14q-21 261 -1 654q0 7 5.5 12t13 5t12.5 -5.5t5 -13.5q-9 -181 -10 -317q12 24 28 47q26 37 67.5 56t87 10t75.5 -50q44 -63 22 -164
q-19 -90 -73 -147q-36 -39 -89 -67t-107 -37q-4 -11 -16 -12q-7 -1 -12.5 4t-6.5 13l-1 7v2v3z" />
    <glyph glyph-name="c" unicode="c" horiz-adv-x="338" 
d="M205 358q-2 57 -18 85q-12 20 -28 19q-19 0 -43.5 -24.5t-46.5 -70.5q-16 -36 -27.5 -87t-12.5 -100q-1 -119 67 -148q36 -16 72 9q8 6 17 13.5t15 14t15.5 18t14 16.5t14.5 20t13 19l14 20q11 17 12 19q4 6 11.5 7.5t13.5 -2.5t7.5 -11.5t-2.5 -13.5l-12 -19
q-10 -15 -14 -20t-13.5 -19.5t-14.5 -20.5l-16 -19q-10 -12 -17.5 -19.5t-17.5 -16.5t-20 -16q-51 -36 -106 -13q-90 39 -89 182q1 53 13.5 108t30.5 93q23 53 55.5 85t65.5 32q38 1 60 -37q21 -36 23 -101q0 -8 -5 -13.5t-12.5 -5.5t-13 5t-5.5 12z" />
    <glyph glyph-name="d" unicode="d" horiz-adv-x="357" 
d="M305 30q0 2 -14 84q-18 105 -35 164q-25 90 -56 128q-17 19 -34 23q-19 5 -41 -8q-23 -12 -40 -40q-16 -28 -23 -59q-17 -74 -5 -131q11 -58 47 -98q33 -38 85 -55t116 -8zM324 659q-4 -166 6 -417q4 -90 7 -140t7 -76q0 -2 2 -13q1 -5 1 -6v-3q1 -3 0 -5q-3 -9 -12 -12
q-10 -4 -18 4q-2 2 -3 4q-74 -11 -135.5 8.5t-101.5 65.5q-42 48 -55.5 115.5t4.5 145.5q9 37 29.5 71.5t51.5 51.5q35 19 67 11q29 -7 53 -35q37 -43 64 -141l1 -5q-8 221 -4 376q0 8 5.5 13t13 5t12.5 -5.5t5 -12.5z" />
    <glyph glyph-name="e" unicode="e" horiz-adv-x="366" 
d="M54 278q48 -17 90 3q44 22 67 73q22 48 11 83q-10 31 -48 26q-50 -6 -87 -78q-23 -47 -33 -107zM19 286q11 65 36 115q45 89 115 98q33 4 55.5 -10t31.5 -41q15 -48 -13 -109q-29 -63 -84 -90q-52 -25 -110 -8q-1 -9 -1 -19q-3 -94 31 -150q36 -58 104 -47q39 6 73 36
t58 73q4 6 11 8t13.5 -1.5t8.5 -10.5t-1 -14q-28 -47 -68 -83t-89 -44q-93 -14 -141 64q-40 65 -36 170q0 17 2 34q-10 9 -4 21q3 6 8 8z" />
    <glyph glyph-name="f" unicode="f" horiz-adv-x="252" 
d="M10 423q21 -1 47 0q-2 76 -1 142q2 75 19 117q13 34 37 49q29 18 68 7q51 -14 74 -76q2 -7 -1 -13.5t-10 -9t-13.5 0.5t-9.5 10q-17 45 -50 54q-24 6 -39 -3q-14 -9 -23 -32q-15 -36 -16 -104q-1 -66 1 -141q12 1 35.5 2t33.5 2q8 0 13.5 -5t5.5 -12.5t-5 -13t-12 -5.5
q-10 0 -33.5 -1.5t-36.5 -2.5q2 -58 6 -122t10 -145l9 -122q0 -7 -4.5 -12.5t-12 -6t-13 4t-6.5 12.5q-3 40 -9 121l-10 146q-4 65 -6 123q-27 -1 -50 0q-7 0 -12 5.5t-5 13t5.5 12.5t13.5 5z" />
    <glyph glyph-name="g" unicode="g" horiz-adv-x="379" 
d="M302 420q-31 31 -81 3q-50 -29 -100 -102q-49 -73 -65 -141q-16 -71 11 -100q15 -16 41 -5q27 11 62 49q30 30 56 69q27 38 37 60q18 38 28 83q4 19 7 25q4 9 12 13q9 4 19 0q5 -2 9 -7q1 -1 2 -3t1 -4q1 -2 2 -7q1 -7 4 -20q3 -21 9 -58q10 -70 12 -89q15 -140 -1 -213
q-15 -63 -54 -107t-83.5 -60t-85.5 -10q-32 4 -54 23t-25 50q-3 23 6.5 27t29.5 -23q3 -35 48 -42q32 -5 68 8.5t69 50.5t45 91q16 68 1 201q-2 18 -12 88l-3 22q-9 -26 -22 -55q-11 -24 -39 -65q-28 -40 -60 -73q-40 -43 -74 -57q-49 -21 -81 14q-40 43 -20 132
q18 76 70 153q54 80 113 113q73 42 124 -8q5 -6 5 -13t-5.5 -12.5t-12.5 -5.5t-13 5z" />
    <glyph glyph-name="h" unicode="h" horiz-adv-x="358" 
d="M64 700q-8 -231 -4 -385q23 83 76 132q30 29 64 29q30 1 57 -20q46 -36 65 -104q22 -79 23 -175t-20 -176q-1 -8 -7.5 -11.5t-14 -2t-11 8t-1.5 13.5q19 76 18 167.5t-21 165.5q-16 57 -53 85q-17 14 -34 13q-20 0 -41 -19q-65 -61 -78 -190q-5 -44 -5 -114
q0 -93 -1 -110v-14v-3q0 -3 -1 -6q0 -1 -1 -3q-3 -5 -8 -7q-10 -5 -19 2q-3 2 -5 6l-2 6v3v17q-1 20 -3 49q-1 6 -9 166q-10 191 0 479q0 7 5.5 12t13 5t12.5 -5.5t5 -13.5z" />
    <glyph glyph-name="i" unicode="i" horiz-adv-x="103" 
d="M65 470q-8 -296 15 -469q1 -7 -3.5 -13t-12 -7t-13.5 3.5t-7 12.5q-23 179 -15 473q0 8 5.5 13t13 5t12.5 -5.5t5 -12.5zM47 616q6 -5 6 -12t-5.5 -12.5t-12.5 -5.5t-12.5 5.5t-5.5 12.5t5.5 12.5t12.5 5.5t12 -6z" />
    <glyph glyph-name="j" unicode="j" horiz-adv-x="130" 
d="M91 469q1 -9 5 -49t6.5 -72.5t5 -78t2.5 -91t-4 -85.5q-11 -124 -53 -185q-55 -79 -158 -52q-7 1 -10.5 7.5t-2 14t8 11t14.5 1.5q78 -20 118 38q37 53 47 168q4 39 4 83t-2.5 88.5t-5 76.5t-6.5 72t-5 49q-1 8 4 13.5t12.5 6.5t13 -4t6.5 -12zM79 609q6 -5 6 -12
t-5.5 -12.5t-12.5 -5.5t-12.5 5.5t-5.5 12.5t5.5 12.5t12.5 5.5t12 -6z" />
    <glyph glyph-name="k" unicode="k" horiz-adv-x="324" 
d="M61 677q-6 -152 -4 -402l1 1l53 50q83 76 91 85q5 6 12 7t13 -4t7 -12t-4 -13q-7 -9 -95 -90q-36 -33 -52 -49q-11 -10 -16 -16q16 -48 90 -110q42 -34 136 -95q6 -4 7.5 -11.5t-2.5 -13.5t-11.5 -7.5t-13.5 2.5q-99 65 -139 98q-50 41 -77 79q1 -104 1 -164
q0 -7 -5.5 -12.5t-12.5 -5.5t-12.5 5.5t-5.5 12.5q0 56 -1 205.5t-0.5 255.5t4.5 206q0 7 5.5 12t13 5t12.5 -5.5t5 -13.5z" />
    <glyph glyph-name="l" unicode="l" horiz-adv-x="94" 
d="M84 688q-17 -416 4 -701q0 -7 -4.5 -12.5t-12 -6t-13 4t-6.5 12.5q-21 286 -4 705q0 7 5.5 12t13 5t12.5 -5.5t5 -13.5z" />
    <glyph glyph-name="m" unicode="m" horiz-adv-x="529" 
d="M226 225q-2 65 -11 119q-8 47 -21 73q-12 24 -24 25q-32 2 -54 -47q-21 -47 -32 -132q-11 -96 -8 -221v-9q1 -5 1 -11v-7v-2v-1v-1v-4q-3 -11 -15 -13q-15 -2 -20 11l-1 4v1v1v1v1v2q0 13 -1 26q-1 29 -1 40v43q0 43 -1 46q-9 123 -5 297q0 8 5.5 13t13 5t12.5 -5.5
t5 -12.5q-1 -55 -1 -100q7 24 15 43q33 71 89 68q34 -2 55 -45q13 -28 22 -74q32 95 108 122q12 4 31 6q24 3 36 -2q44 -19 66 -88q16 -53 19 -137q3 -60 -1 -145q-1 -19 -3.5 -56.5t-2.5 -51.5q0 -7 -5.5 -12t-13 -5t-12.5 5.5t-5 13.5q0 13 2.5 51t3.5 57q4 83 1 141
q-3 79 -18 128q-16 53 -45 65q-3 2 -18 0q-15 -1 -23 -4q-80 -29 -101 -162q-4 -27 -6 -60v-23q0 -24 -3 -99v-3q0 -21 -1 -35v-7l-1 -3v-2q0 -2 -1 -3q-2 -4 -5 -7q-6 -5 -13 -4q-6 0 -11 5q-3 3 -5 7v3q0 1 -0.5 1.5t-0.5 1.5v1q0 1 1 4q0 7 1 39q1 95 3 124z" />
    <glyph glyph-name="n" unicode="n" horiz-adv-x="371" 
d="M54 270q27 80 64 139q34 54 70 74q48 27 92 -9q32 -25 49 -92q13 -51 18 -131q2 -40 2.5 -86t-0.5 -94.5t-1 -59.5q0 -7 -5.5 -12.5t-12.5 -5.5t-12.5 5.5t-5.5 12.5q0 11 1 59t0.5 93t-2.5 86q-5 76 -17 124q-14 55 -36 73q-26 20 -53 5t-56 -62q-24 -38 -43 -84.5
t-27 -75.5q-5 -20 -9 -41t-6 -46.5t-3.5 -40.5t-3 -47.5t-2.5 -43.5q0 -4 -1 -6v-2q-1 -2 -1 -4q-5 -9 -14 -10q-13 -1 -18 10l-2 4q0 1 -1 3v12v47v88q0 215 -6 291q-1 7 4 12.5t12.5 6.5t13 -4t6.5 -13q6 -71 6 -175z" />
    <glyph glyph-name="o" unicode="o" horiz-adv-x="362" 
d="M158 454q-46 -28 -76 -97.5t-33 -147.5q-3 -84 26 -133q30 -52 90 -47q55 4 95 63q41 57 46 137q6 83 -31 145t-117 80zM173 487q63 -15 103.5 -57.5t55.5 -93.5q14 -52 10 -109q-6 -89 -53.5 -158.5t-121.5 -75.5q-81 -7 -123 64q-35 58 -31 153q3 90 41 170
q37 82 98 111q12 6 21 -4z" />
    <glyph glyph-name="p" unicode="p" horiz-adv-x="373" 
d="M66 31v-190q0 -7 -5.5 -12.5t-12.5 -5.5t-12.5 5.5t-5.5 12.5q0 107 1 321t1 321q0 7 5.5 12.5t12.5 5.5t12.5 -5.5t5.5 -12.5v-162q14 35 31 63q63 107 145 105q56 -2 84 -43q51 -74 -9 -200q-24 -50 -57 -92q-34 -43 -65 -66q-55 -41 -131 -57zM67 207v-139
q62 14 108 48q28 21 59 61t52 84q51 107 12 165q-18 26 -54 27q-62 2 -114 -88q-38 -66 -63 -158z" />
    <glyph glyph-name="q" unicode="q" horiz-adv-x="450" 
d="M333 424q-15 25 -36 29q-20 5 -47 -8q-57 -28 -115 -112q-57 -84 -76 -163q-18 -79 17 -105q19 -14 48 -1t65 50q56 59 96 132q11 19 20 39q13 48 25 71q1 2 2 3.5t2 2.5q4 4 10 5q11 2 18 -7q2 -3 3 -8v-5q0 -4 -2 -10q-3 -13 -6 -21q-8 -23 -18 -44q-26 -101 -33 -217
q-6 -100 9 -160q15 -64 49 -71q19 -5 36 17q18 24 14 46q-4 25 -29.5 45.5t-58.5 33.5q-7 3 -10 9.5t-0.5 13.5t9 10t13.5 1q40 -15 72.5 -41.5t39.5 -65.5q6 -38 -22 -74q-31 -40 -72 -31q-56 13 -76 99q-16 66 -10 170q3 57 12 117q-34 -49 -67 -85q-41 -42 -76 -58
q-49 -21 -85 6q-53 39 -30 142q20 84 82 174q64 92 128 124q38 19 71 12q36 -8 58 -47q4 -6 2.5 -13.5t-8 -11t-14 -2t-10.5 8.5z" />
    <glyph glyph-name="r" unicode="r" horiz-adv-x="267" 
d="M28 12v16v9q-1 2 -1 4v1v1v1v1v1v2v2v30q0 19 -0.5 67.5t-0.5 74.5q1 53 4 165q0 7 5.5 12t13 5t12.5 -5.5t5 -13.5q-2 -73 -3 -106l2 6q54 161 176 215q6 3 13 0.5t10 -9t0.5 -13.5t-9.5 -10q-109 -49 -156 -194q-33 -103 -35 -253v-1v-3v-5v-3v-3v-1v-1v-1q0 -1 -1 -2
q0 -3 -3 -7q-5 -6 -13 -6q-9 -1 -15 6q-3 4 -3 7q-1 1 -1 3v1v2v5z" />
    <glyph glyph-name="s" unicode="s" horiz-adv-x="303" 
d="M248 385q-8 38 -42.5 56.5t-78.5 14.5q-44 -5 -71.5 -29t-24.5 -60q3 -32 37 -69q18 -17 81 -68q26 -21 43 -36q16 -15 34.5 -38.5t25 -49t1.5 -53.5q-8 -41 -43 -58q-29 -14 -68 -7q-37 7 -69 29t-46 54q-2 7 0.5 14t9.5 9.5t14 0t10 -9.5q9 -22 33.5 -39t53.5 -22
q28 -5 46.5 4t22.5 31q8 38 -15.5 69.5t-75.5 73.5q-67 54 -83 71q-44 46 -48 92q-4 54 35 87.5t93.5 39t101.5 -19.5t59 -79q1 -7 -3 -13.5t-11 -8t-13.5 2.5t-8.5 11z" />
    <glyph glyph-name="t" unicode="t" horiz-adv-x="256" 
d="M56 521q-29 0 -57 -4q-7 -1 -13 3.5t-7 12t3.5 13.5t12.5 7q31 4 62 4q5 90 6 131q0 7 5.5 12t13 5t12.5 -5.5t5 -13.5q-1 -42 -6 -129q29 -1 67 -4q8 -1 13 -6.5t4 -13t-6.5 -12.5t-12.5 -4q-39 3 -66 4q-13 -278 5 -421q7 -56 37 -82t73 -1q6 3 13.5 1t11 -8t1.5 -13.5
t-8 -11.5q-65 -37 -115 6q-40 35 -49 105q-18 145 -5 425z" />
    <glyph glyph-name="u" unicode="u" horiz-adv-x="314" 
d="M59 480q0 -10 -8 -111q-7 -87 -6 -137q1 -165 58 -208q20 -15 59 -8q38 6 61 57q22 47 30 127q6 79 2 145.5t-14 110.5q-1 7 3 13.5t11 8t13.5 -2.5t8.5 -11q10 -47 14 -116.5t-2 -151.5q-8 -86 -33 -139q-32 -67 -88 -77q-54 -9 -87 16q-71 53 -72 235q-1 54 6 141
q8 100 8 110q0 7 5.5 12t13 5t12.5 -5.5t5 -13.5z" />
    <glyph glyph-name="v" unicode="v" horiz-adv-x="307" 
d="M52 475q8 -82 14 -130t17.5 -116.5t27.5 -126.5q12 -42 18 -57.5t12 -22.5q1 3 3 7q6 17 15 48q16 55 38 146q46 192 52 245q1 8 7 12.5t13.5 3.5t12 -7t3.5 -13q-7 -55 -53 -250q-22 -91 -38 -147q-10 -33 -17 -51l-7 -17q-6 -10 -12 -14q-23 -12 -43 11q-10 12 -19 35
q-6 15 -19 61q-18 63 -29 130q-12 70 -18 118.5t-14 130.5q-1 8 4 13.5t12.5 6.5t13 -4t6.5 -12z" />
    <glyph glyph-name="w" unicode="w" horiz-adv-x="428" 
d="M26 474q12 -45 21 -94t18.5 -120.5t13.5 -93.5q3 -20 9 -72q16 63 31 111q19 60 36 93q11 20 21 31q17 16 36 10q13 -4 25 -22q8 -12 18 -34q15 -33 33 -92q9 -30 21 -76q0 17 1 34q8 138 62 327q2 7 8.5 10.5t13.5 1.5t10.5 -8.5t1.5 -13.5q-53 -186 -60 -319
q-2 -26 0 -58q3 -48 3 -63v-3q1 -5 1 -8q1 -7 -1 -12q-4 -12 -16 -15q-18 -3 -28 15q-1 2 -5 14q-5 13 -19 66l-28 97q-17 58 -31 89q-8 18 -15 28q-3 4 -5 6h-1q-6 -6 -14 -22q-16 -29 -34 -87q-20 -61 -43 -162q-1 -1 -1 -5q-1 -7 -1 -10q-3 -21 -20 -26q-13 -4 -21 8
q-2 3 -4 8q-1 5 -3 14q-2 13 -5 42q-10 83 -12 97q-4 25 -13.5 95t-18 117.5t-19.5 91.5q-2 8 1.5 14t11 8t13.5 -1.5t8 -10.5z" />
    <glyph glyph-name="x" unicode="x" horiz-adv-x="340" 
d="M143 200q-58 -98 -111 -200q-3 -7 -10.5 -9t-14 1t-8.5 10.5t1 13.5q59 115 125 224q-51 117 -90 234q-2 7 1 14t10 9t14 -1t9 -10q35 -105 79 -208q66 108 138 210q5 6 12 7.5t13 -3t7.5 -11.5t-2.5 -13q-79 -112 -151 -230q51 -113 113 -226q3 -7 1 -14t-8.5 -10.5
t-13.5 -1.5t-11 8q-56 103 -103 206z" />
    <glyph glyph-name="y" unicode="y" horiz-adv-x="317" 
d="M61 464q-24 -163 -25 -244t15 -126q16 -48 48 -52q33 -4 60 24q25 27 46 80q32 86 38 183q2 36 2 85v17v11v9v3v3l2 4q5 10 16 10q10 0 15 -9q2 -2 2 -4q1 -1 1 -3t1 -5v-12q1 -16 2 -49q2 -66 5 -184q0 -18 2.5 -66.5t3.5 -80t-1.5 -73.5t-10.5 -73q-19 -78 -73 -107
q-61 -32 -164 1q-8 2 -11 8.5t-1 14t8.5 10.5t13.5 1q90 -28 137 -3q40 21 55 84q5 21 8 45.5t3 55t-0.5 51t-2.5 58t-2 50.5q-7 -25 -16 -48q-22 -60 -53 -92q-40 -41 -90 -35q-55 7 -79 76q-17 52 -16 138q1 83 25 250q1 7 7 11.5t13.5 3.5t12 -7t3.5 -14z" />
    <glyph glyph-name="z" unicode="z" horiz-adv-x="398" 
d="M92 482q5 0 22.5 0.5t45 1t48.5 0.5q46 1 72 -1q16 -1 26 -2q6 -1 10 -3q9 -3 13 -11q4 -7 2 -15q-1 -4 -4 -8q-3 -5 -9 -14q-8 -12 -26 -31l-20 -21l-18 -21q-8 -8 -11 -12l-35 -44h72q7 0 12.5 -5.5t5.5 -12.5t-5.5 -12.5t-12.5 -5.5q-18 0 -52 0.5t-48 0.5
q-33 -45 -58 -84q-37 -58 -47 -97q-10 -40 9 -54q3 -2 22 -4t48 -1q49 1 83 5q119 15 134 16q8 1 13.5 -4t6.5 -12.5t-4 -13t-12 -6.5q-15 -1 -134 -16q-36 -4 -86 -5q-32 -1 -52 1q-30 3 -41 12q-37 28 -21 91q11 44 50 107q19 30 44 65q-27 -1 -50 -2q-8 0 -13.5 5
t-5.5 12.5t5 13t12 5.5q34 2 79 2l53 65q3 4 11 13l20 21q11 13 19 21q13 16 21 25h-8q-25 2 -69 1q-22 0 -49.5 -0.5t-45.5 -1t-22 -0.5q-8 0 -13 5.5t-5 13t5.5 12.5t12.5 5z" />
    <glyph glyph-name="braceleft" unicode="{" horiz-adv-x="347" 
d="M273 739q-45 -4 -85 -35q-38 -30 -47 -62t-2 -75q1 -8 7 -36t8.5 -43.5t1 -40t-8.5 -43.5q-14 -35 -58 -65q3 -1 5 -2q26 -6 42 -23q20 -20 22 -55q1 -21 -8 -50q0 -1 -8 -23q-4 -12 -5 -19q-40 -165 66 -210q47 -21 97 1q7 2 14 -0.5t9.5 -9.5t0 -14t-9.5 -10
q-64 -27 -125 -1q-39 17 -62.5 46t-30.5 64.5t-5 70t10 71.5q3 9 7 23l7 21q8 24 7 38q-1 21 -12 33q-8 8 -24 12q-10 3 -31 5q-10 0 -14 1q-13 3 -18 11q-4 7 -3 14q1 8 6 13q4 3 11 5q1 1 3.5 1.5t3.5 0.5t1 1q20 12 30 19t21.5 19t16.5 24q6 16 7 35t-1 32l-8 39
q-5 26 -8 40q-8 50 3.5 91.5t59.5 78.5q48 38 103 43q8 1 13.5 -4t6.5 -12.5t-4 -13t-12 -6.5z" />
    <glyph glyph-name="bar" unicode="|" horiz-adv-x="647" 
d="M191 603q1 5 6 9q42 41 91.5 51t91.5 -5.5t74 -49.5t45 -76.5t-0.5 -90.5t-56.5 -86q-34 -31 -76 -36t-79.5 10.5t-67.5 44.5q-29 29 -45 65.5t-13 80.5t30 83zM225 588q-24 -31 -27.5 -66.5t9 -66t37.5 -55.5q39 -39 86.5 -45t87.5 26q35 31 45.5 69t0.5 72t-36 61
q-25 27 -57.5 39.5t-71 6t-72.5 -37.5q0 -1 -2 -3zM375 706q12 33 32 74q3 6 10 8.5t13.5 -0.5t9 -10t-0.5 -14q-18 -39 -30 -70q-3 -7 -9.5 -10t-13.5 -0.5t-10 9t-1 13.5zM476 633q32 36 77 72q6 5 13 4t12 -7t4 -13t-7 -12q-42 -34 -71 -68q-5 -5 -12.5 -5.5t-13 4t-6 12
t3.5 13.5zM605 503q7 0 13 -5t6 -12t-5 -13t-12 -6q-15 -1 -43 -2t-34 -1q-8 0 -13.5 5t-5.5 12.5t5 13t12 5.5t34.5 1t42.5 2zM513 381q4 -3 21 -13l25 -16q8 -5 21 -15t22 -19q6 -5 6 -12.5t-5 -13t-12.5 -5.5t-12.5 5q-9 8 -20 16l-19 14q-7 5 -23.5 15t-22.5 14t-7.5 11
t2.5 13.5t11 8t14 -2.5zM407 285q9 -32 17 -77q1 -7 -3 -13t-11.5 -7.5t-13.5 2.5t-8 12q-8 43 -15 75q-2 7 1.5 13.5t11 8t14 -2t7.5 -11.5zM281 293l-7 -22l-9 -24t-8.5 -21t-11 -24t-12.5 -22q-4 -6 -11 -7.5t-13.5 2.5t-8 11t2.5 14q6 9 10.5 18.5t9.5 21.5l8 20
q3 7 9 23l7 22q3 7 9.5 10t13.5 0.5t10 -9t1 -13.5zM182 353q-25 -21 -82 -50q-6 -3 -13.5 -1t-10.5 8.5t-1 14t9 10.5q53 27 74 46q6 5 13.5 4t12.5 -6.5t4 -13t-6 -12.5zM37 545q34 -1 95 -14q7 -2 11 -8t2.5 -13.5t-7.5 -11.5t-14 -3q-57 13 -89 14q-7 0 -12 5.5t-5 13
t5.5 12.5t13.5 5zM123 714l30 -26l31 -28q5 -6 5 -13t-5.5 -12.5t-12.5 -5.5t-13 5q-9 10 -29 26q-21 19 -30 28q-6 5 -6 12.5t5 13t12.5 5.5t12.5 -5zM261 811q10 -21 32 -98q2 -7 -1.5 -13.5t-10.5 -8.5t-13.5 1.5t-8.5 10.5q-22 74 -30 92q-3 7 -0.5 14t9 10t13.5 0.5
t10 -8.5z" />
    <glyph glyph-name="braceright" unicode="}" horiz-adv-x="346" 
d="M67 -49q43 2 85 34q34 26 44.5 54.5t6.5 65.5q-1 13 -6.5 46.5t-7 52.5t0.5 54q8 57 65 91q-2 0 -5 1q-26 7 -41 23q-20 21 -21 56q-1 21 9 51q0 1 7 22q5 12 7 19q41 163 -66 212q-45 20 -96 -1q-7 -2 -14 0.5t-9.5 9.5t0 14t9.5 10q66 27 126 -1q38 -17 61 -46.5
t30 -64.5t5 -69.5t-12 -71.5q-2 -10 -7 -23l-7 -21q-8 -24 -7 -38q1 -22 11 -33q9 -9 24 -13q10 -3 31 -5q10 0 14 -1q13 -3 18 -11q6 -9 2 -20q-3 -5 -8 -8q-4 -3 -12 -7q-24 -11 -31 -15q-42 -25 -47 -64q-2 -33 -0.5 -48t7 -47t6.5 -51q4 -45 -9.5 -82t-55.5 -69
q-51 -40 -105 -42q-8 0 -13.5 5t-5.5 12.5t5 13t12 5.5z" />
    <glyph glyph-name="asciitilde" unicode="~" horiz-adv-x="258" 
d="M28 650q24 37 55 35q16 -1 45 -21q24 -16 36 -18q20 -3 43 15q5 5 12.5 4t12.5 -6.5t4 -13t-7 -12.5q-35 -29 -70 -23q-21 4 -51 24q-21 14 -28 15q-9 1 -22 -19q-4 -6 -11.5 -7.5t-13.5 2.5t-7.5 11.5t2.5 13.5z" />
    <glyph glyph-name="exclamdown" unicode="&#xa1;" horiz-adv-x="102" 
d="M43 -4q-2 73 -2 271t-5 306q0 8 5 13.5t12.5 5.5t13 -5t5.5 -12q5 -108 5 -306.5t2 -272.5q0 -7 -5 -12.5t-12.5 -5.5t-13 5t-5.5 13zM64 707q6 -5 6 -12t-5.5 -12.5t-12.5 -5.5t-12.5 5.5t-5.5 12.5t5.5 12.5t12.5 5.5t12 -6z" />
    <glyph glyph-name="cent" unicode="&#xa2;" horiz-adv-x="338" 
d="M205 358q-2 57 -18 85q-12 20 -28 19q-19 0 -43.5 -24.5t-46.5 -70.5q-16 -36 -27.5 -87t-12.5 -100q-1 -119 67 -148q36 -16 72 9q8 6 17 13.5t15 14t15.5 18t14 16.5t14.5 20t13 19l14 20q11 17 12 19q4 6 11.5 7.5t13.5 -2.5t7.5 -11.5t-2.5 -13.5l-12 -19
q-10 -15 -14 -20t-13.5 -19.5t-14.5 -20.5l-16 -19q-10 -12 -17.5 -19.5t-17.5 -16.5t-20 -16q-51 -36 -106 -13q-90 39 -89 182q1 53 13.5 108t30.5 93q23 53 55.5 85t65.5 32q38 1 60 -37q21 -36 23 -101q0 -8 -5 -13.5t-12.5 -5.5t-13 5t-5.5 12zM159 -55q3 -60 -1 -98
q-1 -7 -7 -12t-13 -4t-12 7t-4 13q4 35 1 92q0 7 5 13t12 6t13 -5t6 -12zM164 616q9 -62 -4 -98q-3 -7 -9.5 -10t-13.5 -0.5t-10 9t-1 13.5q10 28 2 80q-1 8 3.5 14t12 7t13.5 -3.5t7 -11.5z" />
    <glyph glyph-name="sterling" unicode="&#xa3;" horiz-adv-x="519" 
d="M114 29l-1 -1zM367 586q0 30 -16.5 47t-41.5 21q-27 4 -51.5 -7.5t-37.5 -34.5q-26 -46 -32 -177l-3 -81q10 -1 25 -3q31 -5 64 -4.5t58 12.5q7 3 14 1t10 -9t1 -14t-9 -10q-33 -16 -74 -16.5t-68 5.5q-13 1 -22 2q-2 -54 -5 -82q-11 -89 -39 -145l-5 -10q13 3 26 3
q27 0 61 -15q1 -1 26 -13q14 -7 24 -10q53 -20 107.5 -6t84.5 61q4 6 11.5 7.5t13.5 -2.5t7.5 -11.5t-2.5 -13.5q-25 -39 -65 -60.5t-82.5 -22t-86.5 13.5q-12 4 -28 12q-24 12 -25 12q-26 12 -46 12q-23 0 -40 -13v-2q-1 -2 -2 -3q-7 -18 -23 -18q-11 0 -16 9q-2 4 -2 9v6
q1 3 3 8q2 8 8 21q10 24 19 42q25 50 35 133q4 27 5 78q-34 -3 -61 -22q-6 -4 -13.5 -2.5t-11.5 7.5t-2.5 13.5t7.5 11.5q36 25 82 28q2 57 3 82q6 140 36 194q19 33 54 49t71 11q39 -6 64.5 -33t25.5 -71q0 -7 -5.5 -12.5t-12.5 -5.5t-12.5 5.5t-5.5 12.5z" />
    <glyph glyph-name="currency" unicode="&#xa4;" horiz-adv-x="456" 
d="M137 450l-3 6q-2 5 -2 7q-1 0 -12 18q-4 7 -2.5 14t8 11t13.5 2.5t11 -7.5q13 -21 14 -23q1 -1 1 -3q113 34 186 -6q15 -9 28 -20l5 5q5 3 6 4l12 16q4 6 11.5 7t13.5 -3.5t7 -12t-4 -13.5q-13 -18 -16 -20q-2 -2 -8 -7l-3 -3q22 -31 29 -73q7 -47 -5 -96.5t-43 -88.5
l35 -29q6 -5 7 -12t-4 -13t-12 -7t-13 4l-37 31q-29 -26 -65 -38q-82 -27 -144 13q-11 7 -21 16q-12 -12 -33 -28q-6 -5 -13.5 -4t-12 7t-3.5 13.5t7 11.5q19 15 31 27q-20 28 -30 63q-11 41 -10 83t19.5 82.5t51.5 65.5zM171 429q-46 -26 -62.5 -85t1.5 -115q18 -59 61 -86
q47 -30 112 -9q60 20 92 82q32 63 21 127q-11 66 -62 94q-58 32 -154 5q-2 -8 -9 -13z" />
    <glyph glyph-name="yen" unicode="&#xa5;" horiz-adv-x="475" 
d="M111 650l27 -82q15 -45 30 -83q27 -74 49 -113q12 -22 22 -33q4 -5 7 -6q6 2 14 10q12 12 26 34q23 37 54 110q17 41 32 81q17 43 30 80.5t17 47.5q3 6 10 9t13.5 0.5t9.5 -9.5t1 -14q-4 -9 -17 -46l-30 -82q-16 -41 -33 -81q-32 -74 -57 -115q-16 -26 -30 -40
q-11 -11 -22 -16q10 -135 -3 -293q-1 -8 -6.5 -13t-13 -4t-12.5 6.5t-4 12.5q13 158 3 291q-8 4 -16 13q-12 14 -26 39q-23 41 -52 118q-15 40 -30 84l-27 82l-14 43q-2 7 1 14t10 9t14 -1t9 -10t14 -43z" />
    <glyph glyph-name="brokenbar" unicode="&#xa6;" horiz-adv-x="231" 
d="M197 613q0 -25 -1.5 -75t-1.5 -75q0 -7 -5.5 -12.5t-12.5 -5.5t-12.5 5.5t-5.5 12.5q0 25 1.5 75t1.5 75q0 7 5.5 12.5t12.5 5.5t12.5 -5.5t5.5 -12.5zM208 86v-154q0 -7 -5.5 -12.5t-12.5 -5.5t-12.5 5.5t-5.5 12.5v154q0 7 5.5 12.5t12.5 5.5t12.5 -5.5t5.5 -12.5z" />
    <glyph glyph-name="section" unicode="&#xa7;" horiz-adv-x="296" 
d="M181 195q33 5 47 27q16 25 6 51q-9 23 -40 52q-6 5 -63 52q-22 18 -34 30q-26 -23 -28 -56q-3 -41 15.5 -68.5t59.5 -58.5zM69 68q17 -18 28 -27q17 -15 42.5 -21.5t47.5 -1.5q21 5 30 18q11 16 5 43q-1 9 -4 16.5t-8 14.5l-8 14q-3 5 -10.5 12.5t-11.5 12t-14 12.5
t-13.5 11t-15.5 12t-15 12q-21 16 -35 29t-28.5 32.5t-21 43.5t-4.5 52q4 48 41 81q-21 32 -28 46q-10 22 -14 60q-6 55 27 103q39 59 101 45q29 -7 58 -47q20 -27 34 -60q2 -7 -0.5 -14t-9.5 -9.5t-14 0t-10 9.5q-12 29 -29 53q-21 29 -37 32q-38 9 -64 -29
q-25 -37 -20 -79q3 -32 11 -49q5 -11 28 -45q11 -16 46 -45q55 -44 65 -54q38 -34 49 -65q17 -43 -9 -84q-16 -25 -44 -36q35 -37 44 -79q8 -43 -11 -71q-17 -25 -52 -33q-30 -7 -64 1.5t-58 28.5q-12 11 -30 31l-28 29q-5 6 -5 13t5.5 12.5t12.5 5.5t12.5 -5.5t28.5 -30.5z
" />
    <glyph glyph-name="dieresis" unicode="&#xa8;" horiz-adv-x="198" 
d="M55 673q6 -5 6 -12t-5.5 -12.5t-12.5 -5.5t-12.5 5.5t-5.5 12.5t5.5 12.5t12.5 5.5t12 -6zM169 675q6 -5 6 -12t-5.5 -12.5t-12.5 -5.5t-12.5 5.5t-5.5 12.5t5.5 12.5t12.5 5.5t12 -6z" />
    <glyph glyph-name="copyright" unicode="&#xa9;" horiz-adv-x="492" 
d="M277 747q7 5 15 2q93 -29 144 -155q45 -112 40 -251q-5 -142 -59 -230q-64 -105 -172 -89q-45 7 -79 29t-54.5 56t-31.5 72t-14 83q-7 80 8.5 166.5t40.5 146.5q30 69 53 104q48 70 103 67q3 0 6 -1zM269 712q-35 2 -71 -52q-21 -31 -49 -97q-24 -56 -38 -139
q-15 -81 -9 -157q14 -187 149 -207q84 -13 135 72q49 79 54 212q5 132 -37 236q-45 111 -121 135h-2q-5 -3 -11 -3zM307 474q-1 22 -8 40t-17 25q-6 5 -13 2q-14 -6 -28 -32q-22 -39 -30.5 -96.5t-3.5 -111.5q4 -51 24.5 -74t43.5 -21q24 2 46.5 29t29.5 77q1 8 7 12.5
t13.5 3.5t12 -7t3.5 -13q-8 -61 -38.5 -98t-71.5 -40q-42 -3 -71.5 32t-34.5 95q-5 59 4 122t34 108q21 36 45 47q26 12 49 -6q18 -13 28.5 -38.5t11.5 -53.5q0 -8 -5 -13.5t-12.5 -5.5t-13 5t-5.5 12z" />
    <glyph glyph-name="ordfeminine" unicode="&#xaa;" horiz-adv-x="312" 
d="M254 664h-1h1zM255 687q-42 -6 -83 -45.5t-70 -94.5q-27 -52 -32 -93q-4 -33 8 -37q17 -7 36 6q21 14 43 47q24 37 58 116l14 28q9 17 12 26q4 8 9 25q3 9 3 10l2 4q5 7 12 8q12 2 19 -9q2 -2 3 -6q4 -17 1 -43q0 -3 -1 -9.5t-1 -9.5q-1 -10 -1 -17q0 -13 -0.5 -49.5
t-0.5 -55t2.5 -46.5t7.5 -50q1 -8 -3 -14t-11.5 -7.5t-13.5 2.5t-8 11q-8 41 -9.5 97.5t0.5 95.5l-2 -5q-36 -82 -62 -122q-26 -39 -52 -56q-36 -25 -71 -11q-36 16 -29 75q5 48 35 105q31 61 78.5 106.5t100.5 53.5q8 1 14 -3.5t7 -12t-3.5 -13.5t-11.5 -7z" />
    <glyph glyph-name="guillemotleft" unicode="&#xab;" horiz-adv-x="394" 
d="M247 348q-38 -38 -58 -60l-17 -19l10 -8l56 -39l127 -81q7 -3 8.5 -10.5t-2 -14t-11 -8t-13.5 2.5q-48 28 -129 81l-57 40q-12 8 -18 13q-4 3 -6 5t-3 3.5t-2 3.5q-3 5 -2 10.5t5 12.5l7 9q7 9 20 23l60 61q95 94 98 98q5 6 12.5 7t13 -4t6.5 -12.5t-4 -13t-101 -100.5z
M202 438q-22 -28 -113 -117l-52 -52q-8 -9 -12 -13q7 -7 20 -16q24 -17 64 -43l110 -67q7 -3 8.5 -10.5t-2 -14t-11 -8t-13.5 2.5l-111 67q-42 26 -66 44q-14 10 -23 18q-12 11 -15 19.5t2 17.5q2 4 6 8q5 8 17 19l53 54q94 94 110 113q5 6 12.5 7t13 -4t6.5 -12.5t-4 -12.5
z" />
    <glyph glyph-name="logicalnot" unicode="&#xac;" horiz-adv-x="400" 
d="M36 326q11 1 64 9l106 17l101 15q22 3 34 3q7 1 12 1q3 0 6 -1q6 -1 10 -5q5 -4 7 -11q0 -3 1 -7v-17q0 -16 -2 -43q-1 -16 -2 -29q-1 -16 -2.5 -29t-1.5 -15q-1 -8 -6.5 -13t-13 -4t-12.5 6.5t-4 12.5q0 3 1.5 15.5t2.5 28.5t2 30q2 28 2 41v3q-11 -1 -30 -3
q-26 -3 -100 -15l-106 -17q-54 -8 -67 -9q-7 0 -12.5 4.5t-6 12t4 13t12.5 6.5z" />
    <glyph glyph-name="registered" unicode="&#xae;" horiz-adv-x="492" 
d="M277 747q7 5 15 2q93 -29 144 -155q45 -112 40 -251q-5 -142 -59 -230q-64 -105 -172 -89q-45 7 -79 29t-54.5 56t-31.5 72t-14 83q-7 80 8.5 166.5t40.5 146.5q30 69 53 104q48 70 103 67q3 0 6 -1zM214 478l3 -88q65 50 79 90q11 31 -7 50q-15 15 -39 -4
q-16 -13 -36 -48zM234 358q7 -4 14.5 -7t16.5 -5.5t15.5 -4.5t17 -4t16 -3.5t18 -3t17 -2.5t18.5 -3t18 -2q7 -1 11.5 -7t3.5 -13.5t-7 -12t-14 -3.5q-3 1 -19 3t-21.5 3t-20 3t-21.5 4t-19.5 5t-21 5.5t-19.5 7.5l-20 8q-1 -42 -5 -78q-1 -7 -7 -12t-13 -4t-12 7t-4 13
q8 71 2 210q-10 10 -2 22l1 3q0 22 -1 37q0 8 5 13.5t12 5.5q10 0 16 -8q9 11 19 19q24 19 47 18.5t40 -17.5q15 -16 19 -39.5t-4 -47.5q-19 -52 -96 -110zM269 712q-35 2 -71 -52q-21 -31 -49 -97q-24 -56 -38 -139q-15 -81 -9 -157q14 -187 149 -207q84 -13 135 72
q49 79 54 212q5 132 -37 236q-45 111 -121 135h-2q-5 -3 -11 -3z" />
    <glyph glyph-name="macron" unicode="&#xaf;" horiz-adv-x="419" 
d="M60 664q50 0 157 10t161 10q7 0 12.5 -5.5t5.5 -12.5t-5.5 -12.5t-12.5 -5.5q-50 0 -157 -10t-161 -10q-7 0 -12.5 5.5t-5.5 12.5t5.5 12.5t12.5 5.5z" />
    <glyph glyph-name="degree" unicode="&#xb0;" horiz-adv-x="240" 
d="M125 657q-30 -15 -53 -53q-22 -39 -28 -85q-7 -50 8 -83q14 -32 47 -35q28 -3 52 28q25 31 34 80q10 50 -3.5 89t-47.5 51q-6 2 -9 8zM147 682q51 -18 68 -70t6 -110q-11 -57 -42 -96q-36 -45 -84 -41q-53 5 -76 56q-19 43 -11 103q8 58 39 107.5t78 63.5q7 2 13.5 -1.5
t8.5 -10.5v-1z" />
    <glyph glyph-name="plusminus" unicode="&#xb1;" horiz-adv-x="380" 
d="M190 474q0 -54 1 -69q41 10 71 15q8 1 14 -3.5t7 -12t-3.5 -13.5t-11.5 -7q-31 -5 -75 -16q6 -54 24 -85q4 -6 2.5 -13t-8 -11t-13.5 -2.5t-11 8.5q-22 35 -29 94l-72 -17q-8 -1 -14 3t-7.5 11.5t2.5 13.5t11 8q27 5 77 18q-1 17 -1 78q0 7 5.5 12.5t12.5 5.5t12.5 -5.5
t5.5 -12.5zM117 218q38 3 108 17q83 17 113 21q7 1 13 -3.5t7 -12t-3.5 -13.5t-12.5 -7q-10 -1 -109 -21q-71 -14 -114 -17q-7 0 -12.5 4.5t-6 12t4 13t12.5 6.5z" />
    <glyph glyph-name="uni00B2" unicode="&#xb2;" horiz-adv-x="311" 
d="M72 606q13 20 45.5 42.5t64.5 32.5q41 14 66 1q32 -17 27 -68q-3 -28 -29 -73q-20 -34 -57 -83q-25 -33 -64 -82q-41 -50 -44 -53q7 0 43 5q97 11 155 1q8 -2 12 -8t2.5 -13.5t-7.5 -11.5t-13 -3q-51 10 -144 -1q-44 -5 -55 -6q-13 0 -22 2q-15 4 -20 17q-6 16 9 29
q4 3 7 5l1 1q6 8 47 58t65 82q34 46 54 79q22 38 24 59q3 26 -8 32t-38 -3q-27 -8 -54 -27t-37 -34q-4 -6 -11.5 -7.5t-13.5 2.5t-7.5 11.5t2.5 13.5z" />
    <glyph glyph-name="uni00B3" unicode="&#xb3;" horiz-adv-x="333" 
d="M64 599q9 13 32 33t47 35q31 19 55 20q35 3 50 -29q10 -21 -4 -53q-11 -22 -33 -50q-7 -9 -16 -18q82 8 107 -56q20 -51 -1 -94t-67 -74q-39 -26 -88 -41t-89 -15q-7 0 -12.5 5.5t-5.5 12.5t5.5 12.5t12.5 5.5q34 0 79 13q44 14 78 37q81 54 54 126q-17 45 -85 29
q-9 -2 -35 -16l-17 -10q-4 -3 -6 -4t-3 -1l-4 -2h-5q-11 1 -15 10q-6 11 1 22q4 5 10 8q1 1 6 4l2 1q32 28 66 68q20 24 28 42q7 16 5 22q-5 10 -16 9q-15 -1 -39 -15q-21 -13 -41 -31t-28 -28q-4 -6 -11.5 -7t-13.5 3.5t-7 12t4 13.5z" />
    <glyph glyph-name="acute" unicode="&#xb4;" horiz-adv-x="172" 
d="M143 725q-29 -27 -42.5 -41.5t-26.5 -38.5t-14 -50q0 -7 -5.5 -12t-13 -5t-12.5 5.5t-5 13.5q1 25 8.5 47t25 43t27.5 31.5t34 32.5q5 5 12.5 5t12.5 -5.5t5 -13t-6 -12.5z" />
    <glyph glyph-name="uni00B5" unicode="&#xb5;" horiz-adv-x="387" 
d="M281 83q40 -35 80 -80q4 -6 3.5 -13.5t-6 -12t-13 -4t-12.5 5.5q-35 40 -70 71l-1 -1q-41 -70 -106 -58q-48 9 -78 62l-3 5q-3 -71 -9 -133q-1 -7 -6.5 -12t-13 -4t-12.5 6.5t-4 13.5q7 66 10 146.5t3 136.5t-1 152.5t-1 140.5q0 7 5.5 12.5t12.5 5.5t12.5 -5.5
t5.5 -12.5q0 -30 1.5 -177.5t-0.5 -180.5q3 -7 9 -24l12 -29q5 -13 11 -24q21 -38 52 -43q41 -8 69 40q27 46 40 135q11 86 10 162t-10 115q-1 7 3 13.5t11 8t13.5 -2.5t8.5 -11q9 -42 10.5 -122t-10.5 -168q-10 -67 -28 -113q1 -1 2 -1z" />
    <glyph glyph-name="paragraph" unicode="&#xb6;" horiz-adv-x="401" 
d="M253 674q-26 -2 -52 -12q-44 -16 -79 -47t-48 -66q-35 -93 60 -192q49 -53 117 -87q1 17 2 78q4 213 -1 319q0 3 1 7zM288 669q5 -111 1 -322q-2 -70 -2 -93q20 -8 39 -12q7 -2 11 -8.5t2.5 -13.5t-8 -11t-13.5 -3q-15 4 -32 10q-1 -109 2 -189q0 -8 -5 -13.5t-12.5 -5.5
t-13 5t-5.5 12q-3 85 -1 205q-83 38 -144 102q-31 33 -50.5 68.5t-26.5 78t10 82.5q17 44 57.5 80.5t90.5 54.5q41 17 89.5 13.5t83.5 -30.5q7 0 12 -4.5t6 -11.5l1 -2q12 -12 0 -24q4 -103 0 -297q-5 -227 -1 -320q0 -8 -5 -13.5t-12.5 -5.5t-13 5t-5.5 12q-4 93 1 323
q4 200 0 306q-24 20 -57 25q1 -1 1 -3z" />
    <glyph glyph-name="periodcentered" unicode="&#xb7;" horiz-adv-x="103" 
d="M74 405q6 -5 6 -12t-5.5 -12.5t-12.5 -5.5t-12.5 5.5t-5.5 12.5t5.5 12.5t12.5 5.5t12 -6z" />
    <glyph glyph-name="cedilla" unicode="&#xb8;" horiz-adv-x="95" 
d="M74 31q-4 -79 -87 -131q-7 -4 -14 -2.5t-11 8t-2.5 13.5t7.5 11q68 43 71 103q0 7 5.5 12t13 5t12.5 -5.5t5 -13.5z" />
    <glyph glyph-name="uni00B9" unicode="&#xb9;" horiz-adv-x="225" 
d="M186 671q5 -41 8 -139q3 -89 9 -136q1 -7 -3.5 -13t-12 -7t-13.5 3.5t-7 12.5q-6 48 -9 139q-3 94 -8 136q-1 7 4 13t12 7t13 -4t7 -12z" />
    <glyph glyph-name="ordmasculine" unicode="&#xba;" horiz-adv-x="307" 
d="M192 670q-30 -15 -52 -54q-23 -38 -29 -84q-7 -50 8 -83q14 -32 47 -35q28 -3 52 28q25 31 34 80q10 50 -3.5 89t-47.5 51q-6 2 -9 8zM214 695q51 -18 68 -70t6 -110q-11 -57 -42 -96q-36 -45 -84 -41q-53 5 -76 56q-19 43 -11 103q8 58 39 107.5t78 63.5q7 2 13.5 -1.5
t8.5 -10.5v-1z" />
    <glyph glyph-name="guillemotright" unicode="&#xbb;" horiz-adv-x="394" 
d="M135 148q2 3 111 91q42 34 64 54q12 10 19 17l-9 8l-53 44q-78 65 -117 93q-7 5 -8 12t3.5 13.5t11.5 7.5t13 -3q42 -30 120 -95l53 -45q11 -9 17 -15l5 -5q1 -1 2 -3q1 -1 2 -3q3 -6 1 -12q-1 -6 -6 -12q-2 -4 -7 -8q-8 -9 -23 -21q-22 -20 -65 -55l-108 -88
q-6 -5 -13 -5t-12.5 5.5t-5.5 12.5t5 12zM108 235l61 53l16 14q-7 7 -19 18l-60 47l-103 76q-7 5 -8 12t3.5 13.5t11.5 7.5t13 -3l105 -77l62 -49l21 -20q11 -12 13 -21q2 -6 -1 -13q-1 -2 -3 -5t-7 -8q-5 -6 -20 -19l-62 -54q-99 -84 -111 -96q-5 -6 -12.5 -6t-13 5
t-5.5 12.5t5 12.5t114 100z" />
    <glyph glyph-name="onequarter" unicode="&#xbc;" horiz-adv-x="694" 
d="M567 197v11q1 80 -2 137l-9 -11q-15 -20 -47 -57l-43 -52q-9 -10 -13 -16q5 -2 13 -4q22 -5 65 -7q16 -1 36 -1zM168 18q65 101 195 320.5t203 331.5q4 6 11.5 7.5t13.5 -2.5t7.5 -11.5t-2.5 -13.5q-72 -111 -203 -330l-195 -322q-4 -6 -11 -7.5t-13.5 2.5t-8 11t2.5 14z
M342 658q0 -32 -1.5 -94.5t-1.5 -94.5q0 -7 -5.5 -12.5t-12.5 -5.5t-12.5 5.5t-5.5 12.5q0 32 1.5 94.5t1.5 94.5q0 7 5.5 12.5t12.5 5.5t12.5 -5.5t5.5 -12.5zM597 393q6 -64 6 -185v-11q12 0 29.5 0.5t21.5 0.5q7 0 12.5 -5.5t5.5 -12.5t-5.5 -12.5t-12.5 -5.5
q-4 0 -22 -0.5t-30 -0.5q-2 -106 -2 -136q0 -7 -5.5 -12.5t-12.5 -5.5t-12.5 5.5t-5.5 12.5q0 31 2 136q-20 0 -37 1q-46 2 -72 8q-17 4 -27 10q-16 11 -16 27q0 6 3 12q2 4 6 9l14 20l44 52q32 37 46 56q21 27 25 37q4 9 14 11q5 4 11 5q8 1 13.5 -4t6.5 -12z" />
    <glyph glyph-name="onehalf" unicode="&#xbd;" horiz-adv-x="621" 
d="M168 18q65 101 195 320.5t203 331.5q4 6 11.5 7.5t13.5 -2.5t7.5 -11.5t-2.5 -13.5q-72 -111 -203 -330l-195 -322q-4 -6 -11 -7.5t-13.5 2.5t-8 11t2.5 14zM342 658q0 -32 -1.5 -94.5t-1.5 -94.5q0 -7 -5.5 -12.5t-12.5 -5.5t-12.5 5.5t-5.5 12.5q0 32 1.5 94.5
t1.5 94.5q0 7 5.5 12.5t12.5 5.5t12.5 -5.5t5.5 -12.5zM431 272q10 16 31 35.5t42 29.5q30 15 50 4q25 -13 24 -55q0 -26 -27 -72q-18 -31 -54 -80l-52 -71q-10 -14 -14 -22h2q16 -2 47 -3h53q30 0 38 -1q7 -1 12 -6.5t4 -13t-6.5 -12.5t-13.5 -4q-6 1 -34 1h-54
q-33 1 -51 3q-13 2 -20 5q-16 7 -18 20q-1 7 2 15q2 5 6 11q6 11 17 27l53 72q34 48 52 78q22 37 22 53q0 10 -1 15.5t-2 6.5l-2 1q-4 3 -17 -4q-16 -8 -33.5 -24t-23.5 -27q-4 -7 -11.5 -8.5t-14 2t-8 11t1.5 13.5z" />
    <glyph glyph-name="threequarters" unicode="&#xbe;" horiz-adv-x="694" 
d="M567 197v11q1 80 -2 137l-9 -11q-15 -20 -47 -57l-43 -52q-9 -10 -13 -16q5 -2 13 -4q22 -5 65 -7q16 -1 36 -1zM168 18q65 101 195 320.5t203 331.5q4 6 11.5 7.5t13.5 -2.5t7.5 -11.5t-2.5 -13.5q-72 -111 -203 -330l-195 -322q-4 -6 -11 -7.5t-13.5 2.5t-8 11t2.5 14z
M597 393q6 -64 6 -185v-11q12 0 29.5 0.5t21.5 0.5q7 0 12.5 -5.5t5.5 -12.5t-5.5 -12.5t-12.5 -5.5q-4 0 -22 -0.5t-30 -0.5q-2 -106 -2 -136q0 -7 -5.5 -12.5t-12.5 -5.5t-12.5 5.5t-5.5 12.5q0 31 2 136q-20 0 -37 1q-46 2 -72 8q-17 4 -27 10q-16 11 -16 27q0 6 3 12
q2 4 6 9l14 20l44 52q32 37 46 56q21 27 25 37q4 9 14 11q5 4 11 5q8 1 13.5 -4t6.5 -12zM199 599q36 30 62 47q25 16 43 23q12 5 21 6q15 1 24 -7q24 -19 18 -49q-3 -20 -21 -45l-10 -12q8 0 16 -2q22 -6 33 -17.5t16 -31.5q14 -71 -43 -115q-38 -30 -110 -46q-8 -1 -14 3
t-7.5 11.5t2.5 13.5t11 8q64 13 96 38q39 31 29 79q-2 11 -6 15t-17 8q-14 3 -42 -11q-9 -4 -26.5 -14t-24.5 -13q-2 -1 -3.5 -1.5t-2.5 -0.5l-8 -1q-9 2 -13 11q-3 8 0 15q2 3 4 5l3 3q2 1 11 7q20 13 24 17q37 32 53 53q13 17 15 29q1 9 -4 14q-4 -1 -11 -3
q-14 -6 -36 -21q-24 -15 -60 -44q-6 -5 -13 -4t-12 7t-4 13t7 12z" />
    <glyph glyph-name="questiondown" unicode="&#xbf;" horiz-adv-x="370" 
d="M347 169q-34 -53 -103 -105q-26 -19 -66 -36q-40 -16 -77 -19q-47 -4 -74 17q-33 25 -30 80q1 24 9 49t24.5 53t28 45.5t35.5 50.5t32 45q23 33 37.5 59.5t25 56.5t9.5 60t-14 60q-2 7 0.5 14t9.5 9.5t14 0t10 -9.5q15 -36 16 -73t-11.5 -72t-28 -63t-39.5 -63
q-9 -14 -33 -46.5t-34.5 -48.5t-25.5 -41t-21 -46q-7 -21 -8 -42q-2 -36 16 -49q16 -13 49 -10q32 3 67 17q36 14 57 30q64 49 95 97q4 6 11 7.5t13.5 -2.5t8 -11t-2.5 -14zM201 701q6 -5 6 -12t-5.5 -12.5t-12.5 -5.5t-12.5 5.5t-5.5 12.5t5.5 12.5t12.5 5.5t12 -6z" />
    <glyph glyph-name="Agrave" unicode="&#xc0;" horiz-adv-x="479" 
d="M395 299q-29 -142 -87 -230q-37 -56 -90 -70q-62 -16 -108 38q-76 90 -68 273q3 78 22 150q18 74 46 124q39 67 84.5 99t91.5 23q45 -8 78 -54t50 -120q2 -9 -5 -16q2 -2 3 -4q2 -2 2 -4l1 -5v-2q1 -30 7 -87t7 -85q3 -49 10 -137q3 -39 25 -185q1 -8 -3.5 -14t-12 -7
t-13.5 3.5t-7 11.5q-22 154 -25 187q-5 65 -8 111zM378 524q-15 67 -41.5 104t-57.5 43q-30 6 -66 -19t-71 -86q-27 -45 -44 -114.5t-20 -142.5q-7 -169 60 -248q31 -37 71 -27q40 11 69 55q65 98 90 268q5 30 10 99q1 8 1 33v13v2v2q0 2 1 3q1 3 3 6q-3 4 -5 9zM258 817
q64 -49 102 -81q5 -5 5.5 -12.5t-4 -13t-12 -6t-13.5 3.5q-36 32 -100 81q-6 4 -7 11.5t3.5 13.5t12 7t13.5 -4z" />
    <glyph glyph-name="Aacute" unicode="&#xc1;" horiz-adv-x="479" 
d="M395 299q-29 -142 -87 -230q-37 -56 -90 -70q-62 -16 -108 38q-76 90 -68 273q3 78 22 150q18 74 46 124q39 67 84.5 99t91.5 23q45 -8 78 -54t50 -120q2 -9 -5 -16q2 -2 3 -4q2 -2 2 -4l1 -5v-2q1 -30 7 -87t7 -85q3 -49 10 -137q3 -39 25 -185q1 -8 -3.5 -14t-12 -7
t-13.5 3.5t-7 11.5q-22 154 -25 187q-5 65 -8 111zM378 524q-15 67 -41.5 104t-57.5 43q-30 6 -66 -19t-71 -86q-27 -45 -44 -114.5t-20 -142.5q-7 -169 60 -248q31 -37 71 -27q40 11 69 55q65 98 90 268q5 30 10 99q1 8 1 33v13v2v2q0 2 1 3q1 3 3 6q-3 4 -5 9zM204 769
q61 41 91 65q6 5 13 4t12 -7t4 -13t-7 -12q-31 -25 -93 -67q-6 -4 -13.5 -2.5t-11.5 7.5t-2.5 13.5t7.5 11.5z" />
    <glyph glyph-name="Acircumflex" unicode="&#xc2;" horiz-adv-x="479" 
d="M395 299q-29 -142 -87 -230q-37 -56 -90 -70q-62 -16 -108 38q-76 90 -68 273q3 78 22 150q18 74 46 124q39 67 84.5 99t91.5 23q45 -8 78 -54t50 -120q2 -9 -5 -16q2 -2 3 -4q2 -2 2 -4l1 -5v-2q1 -30 7 -87t7 -85q3 -49 10 -137q3 -39 25 -185q1 -8 -3.5 -14t-12 -7
t-13.5 3.5t-7 11.5q-22 154 -25 187q-5 65 -8 111zM378 524q-15 67 -41.5 104t-57.5 43q-30 6 -66 -19t-71 -86q-27 -45 -44 -114.5t-20 -142.5q-7 -169 60 -248q31 -37 71 -27q40 11 69 55q65 98 90 268q5 30 10 99q1 8 1 33v13v2v2q0 2 1 3q1 3 3 6q-3 4 -5 9zM168 759
q24 17 50 42q23 23 35 25q21 5 42 -21q9 -10 46 -63q4 -6 2.5 -13t-7.5 -11.5t-13 -3t-12 7.5q-36 51 -43 60q-5 6 -8 8q-4 -2 -17 -15q-28 -27 -53 -46q-6 -4 -13.5 -3t-12 7t-3.5 13.5t7 12.5z" />
    <glyph glyph-name="Atilde" unicode="&#xc3;" horiz-adv-x="479" 
d="M395 299q-29 -142 -87 -230q-37 -56 -90 -70q-62 -16 -108 38q-76 90 -68 273q3 78 22 150q18 74 46 124q39 67 84.5 99t91.5 23q45 -8 78 -54t50 -120q2 -9 -5 -16q2 -2 3 -4q2 -2 2 -4l1 -5v-2q1 -30 7 -87t7 -85q3 -49 10 -137q3 -39 25 -185q1 -8 -3.5 -14t-12 -7
t-13.5 3.5t-7 11.5q-22 154 -25 187q-5 65 -8 111zM378 524q-15 67 -41.5 104t-57.5 43q-30 6 -66 -19t-71 -86q-27 -45 -44 -114.5t-20 -142.5q-7 -169 60 -248q31 -37 71 -27q40 11 69 55q65 98 90 268q5 30 10 99q1 8 1 33v13v2v2q0 2 1 3q1 3 3 6q-3 4 -5 9zM170 762
q32 37 62 39q20 1 45 -17q16 -11 21 -11q10 0 27 24q5 6 12.5 7t13.5 -3.5t7 -12t-3 -13.5q-28 -37 -56 -38q-17 0 -42 18q-16 10 -23 10q-14 -1 -36 -27q-5 -5 -12.5 -6t-13 4t-6.5 12.5t4 13.5z" />
    <glyph glyph-name="Adieresis" unicode="&#xc4;" horiz-adv-x="479" 
d="M395 299q-29 -142 -87 -230q-37 -56 -90 -70q-62 -16 -108 38q-76 90 -68 273q3 78 22 150q18 74 46 124q39 67 84.5 99t91.5 23q45 -8 78 -54t50 -120q2 -9 -5 -16q2 -2 3 -4q2 -2 2 -4l1 -5v-2q1 -30 7 -87t7 -85q3 -49 10 -137q3 -39 25 -185q1 -8 -3.5 -14t-12 -7
t-13.5 3.5t-7 11.5q-22 154 -25 187q-5 65 -8 111zM378 524q-15 67 -41.5 104t-57.5 43q-30 6 -66 -19t-71 -86q-27 -45 -44 -114.5t-20 -142.5q-7 -169 60 -248q31 -37 71 -27q40 11 69 55q65 98 90 268q5 30 10 99q1 8 1 33v13v2v2q0 2 1 3q1 3 3 6q-3 4 -5 9zM234 780
q6 -5 6 -12t-5.5 -12.5t-12.5 -5.5t-12.5 5.5t-5.5 12.5t5.5 12.5t12.5 5.5t12 -6zM330 783q6 -5 6 -12t-5.5 -12.5t-12.5 -5.5t-12.5 5.5t-5.5 12.5t5.5 12.5t12.5 5.5t12 -6z" />
    <glyph glyph-name="Aring" unicode="&#xc5;" horiz-adv-x="479" 
d="M326 690q61 -41 88 -158q2 -9 -5 -16q2 -2 3 -4q2 -2 2 -4l1 -5v-2q1 -30 7 -87t7 -85q3 -49 10 -137q3 -39 25 -185q1 -8 -3.5 -14t-12 -7t-13.5 3.5t-7 11.5q-22 154 -25 187q-5 65 -8 111q-29 -142 -87 -230q-37 -56 -90 -70q-62 -16 -108 38q-76 90 -68 273
q3 78 22 150q18 74 46 124q64 110 139 123q-27 10 -45.5 27.5t-24.5 39.5q-8 35 21 59q28 22 84 22q31 0 55.5 -18.5t35.5 -44.5q13 -25 4 -55t-41 -44q-5 -2 -12 -3zM313 724q7 1 11 3q33 14 18 51q-8 17 -24 29t-34 12q-43 0 -62 -14q-11 -9 -8 -23q5 -17 27.5 -32
t57.5 -17q9 0 14 -9zM378 524q-15 67 -41.5 104t-57.5 43q-30 6 -66 -19t-71 -86q-27 -45 -44 -114.5t-20 -142.5q-7 -169 60 -248q31 -37 71 -27q40 11 69 55q65 98 90 268q5 30 10 99q1 8 1 33v13v2v2q0 2 1 3q1 3 3 6q-3 4 -5 9z" />
    <glyph glyph-name="AE" unicode="&#xc6;" horiz-adv-x="696" 
d="M383 515q-3 4 -5 9q-12 54 -33 90q-3 3 -4 8q-27 42 -62 49q-30 6 -66 -19t-71 -86q-27 -45 -44 -114.5t-20 -142.5q-7 -169 60 -248q31 -37 71 -27q40 11 69 55q65 98 90 268q5 30 10 99q1 8 1 33v13v2v2q0 2 1 3q1 3 3 6zM385 615q18 -36 29 -83q2 -9 -5 -16q2 -2 3 -4
q2 -2 2 -4l1 -5v-2q1 -30 7 -87t7 -85l2 -27q101 33 137 41q8 1 14 -3t7.5 -11.5t-2.5 -13.5t-11 -8q-30 -6 -143 -42q2 -26 6 -73q5 -49 22 -167q29 5 93 22q69 17 106 23q8 1 14 -3.5t7 -12t-3.5 -13.5t-11.5 -7q-37 -5 -103 -22q-79 -20 -107 -25h-4q-2 -1 -3 -1
q-8 -1 -14 3.5t-7 11.5q-22 154 -25 187q-5 65 -8 111q-29 -142 -87 -230q-37 -56 -90 -70q-62 -16 -108 38q-76 90 -68 273q3 78 22 150q18 74 46 124q39 67 84.5 99t91.5 23q47 -9 81 -58q50 12 185 59q7 2 14 -1t9 -10t-1 -14t-10 -9q-130 -45 -179 -58z" />
    <glyph glyph-name="Ccedilla" unicode="&#xc7;" horiz-adv-x="415" 
d="M305 568q-3 41 -20 69t-40.5 37.5t-52 -1.5t-57.5 -46q-43 -54 -62 -157q-28 -151 -11 -274q10 -73 37 -119.5t62 -58.5q34 -12 75 12.5t81 95.5q34 58 57 134q2 7 8.5 10.5t13.5 1.5t10.5 -8.5t1.5 -13.5q-24 -80 -59 -142q-74 -127 -160 -131q-11 -39 -38 -68
q-5 -6 -12.5 -6t-13 5t-5.5 12.5t5 12.5q20 22 28 49q-2 1 -5 2q-47 17 -79 72.5t-43 135.5q-17 128 11 284q21 113 70 173q35 43 74.5 58.5t76.5 0.5q35 -14 57 -51t26 -87q1 -7 -4 -12.5t-12.5 -6.5t-13 4t-6.5 13z" />
    <glyph glyph-name="Egrave" unicode="&#xc8;" horiz-adv-x="418" 
d="M63 687l39 5q30 4 42 6t38.5 5t43 4.5t38.5 2.5t42 1q7 0 12.5 -5.5t5.5 -12.5t-5.5 -12.5t-12.5 -5.5q-65 0 -234 -23q0 -40 -1.5 -132.5t-1.5 -141.5q116 0 222 13q7 1 13 -3.5t7 -12t-3.5 -13.5t-12.5 -7q-108 -13 -226 -13q2 -191 29 -326q152 -10 274 24
q7 2 13.5 -1.5t8.5 -10.5t-1.5 -13.5t-10.5 -8.5q-132 -38 -294 -25q-3 0 -5 1q-15 0 -18 14q-16 78 -23.5 174t-8 158.5t1 181.5t1.5 161q0 7 5.5 12.5t12.5 5.5q5 0 9 -2zM129 796l91 -33q7 -3 10 -9.5t0.5 -13.5t-9 -10t-13.5 -1l-91 33q-7 3 -10 9.5t-0.5 13.5t9 10
t13.5 1z" />
    <glyph glyph-name="Eacute" unicode="&#xc9;" horiz-adv-x="418" 
d="M63 687l39 5q30 4 42 6t38.5 5t43 4.5t38.5 2.5t42 1q7 0 12.5 -5.5t5.5 -12.5t-5.5 -12.5t-12.5 -5.5q-65 0 -234 -23q0 -40 -1.5 -132.5t-1.5 -141.5q116 0 222 13q7 1 13 -3.5t7 -12t-3.5 -13.5t-12.5 -7q-108 -13 -226 -13q2 -191 29 -326q152 -10 274 24
q7 2 13.5 -1.5t8.5 -10.5t-1.5 -13.5t-10.5 -8.5q-132 -38 -294 -25q-3 0 -5 1q-15 0 -18 14q-16 78 -23.5 174t-8 158.5t1 181.5t1.5 161q0 7 5.5 12.5t12.5 5.5q5 0 9 -2zM118 760q10 3 20 9t16 11l20 15q12 10 19 15q6 5 13.5 4t12 -7t3.5 -13.5t-7 -11.5l-18 -14
l-21 -17q-8 -6 -21.5 -13.5t-26.5 -11.5q-7 -2 -13.5 1.5t-8.5 10.5t1.5 13.5t10.5 8.5z" />
    <glyph glyph-name="Ecircumflex" unicode="&#xca;" horiz-adv-x="418" 
d="M63 687l39 5q30 4 42 6t38.5 5t43 4.5t38.5 2.5t42 1q7 0 12.5 -5.5t5.5 -12.5t-5.5 -12.5t-12.5 -5.5q-65 0 -234 -23q0 -40 -1.5 -132.5t-1.5 -141.5q116 0 222 13q7 1 13 -3.5t7 -12t-3.5 -13.5t-12.5 -7q-108 -13 -226 -13q2 -191 29 -326q152 -10 274 24
q7 2 13.5 -1.5t8.5 -10.5t-1.5 -13.5t-10.5 -8.5q-132 -38 -294 -25q-3 0 -5 1q-15 0 -18 14q-16 78 -23.5 174t-8 158.5t1 181.5t1.5 161q0 7 5.5 12.5t12.5 5.5q5 0 9 -2zM88 760q29 43 40 55q21 23 42 20q14 -2 37 -23q42 -40 48 -44q5 -5 6 -12.5t-4 -13t-12.5 -6.5
t-13.5 4t-48 45q-15 13 -19 14q-3 -1 -9 -8q-9 -10 -37 -51q-4 -6 -11.5 -7.5t-13.5 2.5t-7.5 11.5t2.5 13.5z" />
    <glyph glyph-name="Edieresis" unicode="&#xcb;" horiz-adv-x="418" 
d="M63 687l39 5q30 4 42 6t38.5 5t43 4.5t38.5 2.5t42 1q7 0 12.5 -5.5t5.5 -12.5t-5.5 -12.5t-12.5 -5.5q-65 0 -234 -23q0 -40 -1.5 -132.5t-1.5 -141.5q116 0 222 13q7 1 13 -3.5t7 -12t-3.5 -13.5t-12.5 -7q-108 -13 -226 -13q2 -191 29 -326q152 -10 274 24
q7 2 13.5 -1.5t8.5 -10.5t-1.5 -13.5t-10.5 -8.5q-132 -38 -294 -25q-3 0 -5 1q-15 0 -18 14q-16 78 -23.5 174t-8 158.5t1 181.5t1.5 161q0 7 5.5 12.5t12.5 5.5q5 0 9 -2zM141 766q6 -5 6 -12t-5.5 -12.5t-12.5 -5.5t-12.5 5.5t-5.5 12.5t5.5 12.5t12.5 5.5t12 -6z
M230 767q6 -5 6 -12t-5.5 -12.5t-12.5 -5.5t-12.5 5.5t-5.5 12.5t5.5 12.5t12.5 5.5t12 -6z" />
    <glyph glyph-name="Igrave" unicode="&#xcc;" horiz-adv-x="139" 
d="M78 695q0 -56 -1 -166.5t-1.5 -179t2.5 -163t11 -172.5q1 -8 -4 -13.5t-12.5 -6.5t-13 4t-6.5 12q-7 79 -10.5 174t-3 163.5t1.5 180.5t1 167q0 7 5.5 12.5t12.5 5.5t12.5 -5.5t5.5 -12.5zM38 807q39 -19 72 -42q6 -4 7.5 -11.5t-2.5 -13.5t-11.5 -7.5t-13.5 2.5
q-32 22 -68 40q-7 3 -9 10t1 14t10 9t14 -1z" />
    <glyph glyph-name="Iacute" unicode="&#xcd;" horiz-adv-x="128" 
d="M77 695q0 -56 -1 -166.5t-1.5 -179t2.5 -163t11 -172.5q1 -8 -4 -13.5t-12.5 -6.5t-13 4t-6.5 12q-7 79 -10.5 174t-3 163.5t1.5 180.5t1 167q0 7 5.5 12.5t12.5 5.5t12.5 -5.5t5.5 -12.5zM12 761q31 21 64 49q6 4 13.5 3.5t12 -6t4 -13t-5.5 -12.5q-37 -31 -68 -51
q-7 -4 -14 -2.5t-11 8t-2.5 13.5t7.5 11z" />
    <glyph glyph-name="Icircumflex" unicode="&#xce;" horiz-adv-x="162" 
d="M78 695q0 -56 -1 -166.5t-1.5 -179t2.5 -163t11 -172.5q1 -8 -4 -13.5t-12.5 -6.5t-13 4t-6.5 12q-7 79 -10.5 174t-3 163.5t1.5 180.5t1 167q0 7 5.5 12.5t12.5 5.5t12.5 -5.5t5.5 -12.5zM-4 754l17 26l14 21q16 24 31 27q20 4 41 -18q12 -14 39 -53q4 -6 2.5 -13.5
t-7.5 -11.5t-13.5 -2.5t-11.5 7.5q-25 37 -36 49q-4 4 -7 6q-3 -3 -9 -11q-4 -6 -13.5 -21.5t-16.5 -25.5q-4 -6 -11.5 -7.5t-13.5 2.5t-7.5 11.5t2.5 13.5z" />
    <glyph glyph-name="Idieresis" unicode="&#xcf;" horiz-adv-x="134" 
d="M76 695q0 -56 -1 -166.5t-1.5 -179t2.5 -163t11 -172.5q1 -8 -4 -13.5t-12.5 -6.5t-13 4t-6.5 12q-7 79 -10.5 174t-3 163.5t1.5 180.5t1 167q0 7 5.5 12.5t12.5 5.5t12.5 -5.5t5.5 -12.5zM47 775q6 -5 6 -12t-5.5 -12.5t-12.5 -5.5t-12.5 5.5t-5.5 12.5t5.5 12.5
t12.5 5.5t12 -6zM105 772q6 -5 6 -12t-5.5 -12.5t-12.5 -5.5t-12.5 5.5t-5.5 12.5t5.5 12.5t12.5 5.5t12 -6z" />
    <glyph glyph-name="Eth" unicode="&#xd0;" horiz-adv-x="462" 
d="M70 346q2 -183 25 -315q53 1 92 13t82 42q97 66 123 148q21 75 3 148t-69 138q-50 61 -117 99t-137 40q0 -32 -1.5 -128t-1.5 -148q35 5 55 6q7 1 12.5 -4t6.5 -12.5t-4 -13t-13 -6.5q-19 -1 -56 -7zM72 695q78 -2 153 -43q75 -42 129 -110q56 -70 76 -151t-4 -167
q-30 -94 -137 -168q-47 -32 -90 -45.5t-99 -15.5q-3 -10 -13 -13q-8 -1 -14 3t-8 11q-28 144 -31 346q-19 -2 -34 -3q-8 0 -13.5 5t-5.5 12.5t5 13t12 5.5q16 1 35 3q0 57 1.5 162t1.5 151q0 7 5.5 12.5t12.5 5.5q14 0 18 -14z" />
    <glyph glyph-name="Ntilde" unicode="&#xd1;" horiz-adv-x="503" 
d="M93 612q0 -86 -0.5 -286.5t-0.5 -308.5q0 -7 -5.5 -12.5t-12.5 -5.5t-12.5 5.5t-5.5 12.5q0 110 0.5 329t0.5 329q0 7 5.5 12.5t12.5 5.5q13 0 17 -12q15 -20 28.5 -44t27.5 -52.5t22 -42.5q117 -210 273 -459q0 89 0.5 294t0.5 315q0 7 5.5 12.5t12.5 5.5t12.5 -5.5
t5.5 -12.5q0 -112 -0.5 -335.5t-0.5 -335.5v-1q0 -7 -5.5 -12.5t-12.5 -5.5q-13 0 -17 12q-177 281 -306 510q-10 18 -24.5 47.5t-20.5 40.5zM160 745q42 45 80 48q27 3 57 -18q25 -18 30 -18q8 -2 22 18q4 6 11.5 7.5t13.5 -2.5t7.5 -11.5t-2.5 -13.5q-27 -39 -58 -34
q-12 2 -44 24q-20 14 -34 12q-24 -2 -57 -36q-5 -6 -12.5 -6t-13 5t-5.5 12.5t5 12.5z" />
    <glyph glyph-name="Ograve" unicode="&#xd2;" 
d="M245 709q7 5 15 2q93 -29 144 -155q45 -112 40 -251q-5 -142 -59 -230q-64 -105 -172 -89q-45 7 -79 29t-54.5 56t-31.5 72t-14 83q-7 80 8.5 166.5t40.5 146.5q30 69 53 104q48 70 103 67q3 0 6 -1zM237 674q-35 2 -71 -52q-21 -31 -49 -97q-24 -56 -38 -139
q-15 -81 -9 -157q14 -187 149 -207q84 -13 135 72q49 79 54 212q5 132 -37 236q-45 111 -121 135h-2q-5 -3 -11 -3zM200 800q34 -13 71 -30q6 -3 8.5 -10t-0.5 -13.5t-10 -9t-14 0.5q-34 16 -67 28q-7 3 -10 9.5t-0.5 13.5t9 10t13.5 1z" />
    <glyph glyph-name="Oacute" unicode="&#xd3;" 
d="M245 709q7 5 15 2q93 -29 144 -155q45 -112 40 -251q-5 -142 -59 -230q-64 -105 -172 -89q-45 7 -79 29t-54.5 56t-31.5 72t-14 83q-7 80 8.5 166.5t40.5 146.5q30 69 53 104q48 70 103 67q3 0 6 -1zM237 674q-35 2 -71 -52q-21 -31 -49 -97q-24 -56 -38 -139
q-15 -81 -9 -157q14 -187 149 -207q84 -13 135 72q49 79 54 212q5 132 -37 236q-45 111 -121 135h-2q-5 -3 -11 -3zM177 746q43 41 89 78q5 5 12.5 4t12.5 -6.5t4 -13t-7 -12.5l-87 -76q-5 -5 -12.5 -5t-12.5 5.5t-5 13t6 12.5z" />
    <glyph glyph-name="Ocircumflex" unicode="&#xd4;" 
d="M245 709q7 5 15 2q93 -29 144 -155q45 -112 40 -251q-5 -142 -59 -230q-64 -105 -172 -89q-45 7 -79 29t-54.5 56t-31.5 72t-14 83q-7 80 8.5 166.5t40.5 146.5q30 69 53 104q48 70 103 67q3 0 6 -1zM237 674q-35 2 -71 -52q-21 -31 -49 -97q-24 -56 -38 -139
q-15 -81 -9 -157q14 -187 149 -207q84 -13 135 72q49 79 54 212q5 132 -37 236q-45 111 -121 135h-2q-5 -3 -11 -3zM164 768q1 2 38 50q19 25 34 28q20 3 40 -22q9 -11 41 -59q4 -6 2.5 -13.5t-7.5 -11.5t-13.5 -2.5t-11.5 7.5q-32 48 -39 56q-4 5 -7 8q-4 -4 -10 -12
q-38 -50 -39 -51q-5 -6 -12.5 -7t-13 4t-6.5 12.5t4 12.5z" />
    <glyph glyph-name="Otilde" unicode="&#xd5;" 
d="M245 709q7 5 15 2q93 -29 144 -155q45 -112 40 -251q-5 -142 -59 -230q-64 -105 -172 -89q-45 7 -79 29t-54.5 56t-31.5 72t-14 83q-7 80 8.5 166.5t40.5 146.5q30 69 53 104q48 70 103 67q3 0 6 -1zM237 674q-35 2 -71 -52q-21 -31 -49 -97q-24 -56 -38 -139
q-15 -81 -9 -157q14 -187 149 -207q84 -13 135 72q49 79 54 212q5 132 -37 236q-45 111 -121 135h-2q-5 -3 -11 -3zM162 741q28 54 60 58q21 3 51 -21q19 -15 25 -15q12 1 30 34q4 6 11 8t13.5 -1.5t8.5 -10.5t-1 -14q-28 -51 -61 -52q-19 -1 -49 23q-18 14 -24 13
q-13 -1 -32 -38q-3 -7 -10.5 -9t-14 1t-8.5 10.5t1 13.5z" />
    <glyph glyph-name="Odieresis" unicode="&#xd6;" 
d="M245 709q7 5 15 2q93 -29 144 -155q45 -112 40 -251q-5 -142 -59 -230q-64 -105 -172 -89q-45 7 -79 29t-54.5 56t-31.5 72t-14 83q-7 80 8.5 166.5t40.5 146.5q30 69 53 104q48 70 103 67q3 0 6 -1zM237 674q-35 2 -71 -52q-21 -31 -49 -97q-24 -56 -38 -139
q-15 -81 -9 -157q14 -187 149 -207q84 -13 135 72q49 79 54 212q5 132 -37 236q-45 111 -121 135h-2q-5 -3 -11 -3zM219 786q6 -5 6 -12t-5.5 -12.5t-12.5 -5.5t-12.5 5.5t-5.5 12.5t5.5 12.5t12.5 5.5t12 -6zM298 791q6 -5 6 -12t-5.5 -12.5t-12.5 -5.5t-12.5 5.5
t-5.5 12.5t5.5 12.5t12.5 5.5t12 -6z" />
    <glyph glyph-name="multiply" unicode="&#xd7;" horiz-adv-x="434" 
d="M284 236l-85 -111q-4 -6 -11.5 -7t-13.5 3.5t-7 12t4 13.5l88 116q-55 59 -93 105q-5 5 -4 12.5t6.5 12.5t13 4t12.5 -7q42 -50 88 -99l93 113q5 5 12.5 5.5t13 -4t6 -12t-3.5 -13.5q-45 -51 -96 -115l100 -107q5 -5 5 -12.5t-5.5 -12.5t-13 -5t-12.5 6z" />
    <glyph glyph-name="Oslash" unicode="&#xd8;" 
d="M401 430q-173 -109 -310 -298q-1 0 -1 -1q36 -95 129 -109q84 -13 135 72q50 80 54 212q2 63 -7 124zM245 709q7 5 15 2q93 -29 144 -155q45 -112 40 -251q-5 -142 -59 -230q-64 -105 -172 -89q-45 7 -79 29t-54.5 56t-31.5 72t-14 83q-7 80 8.5 166.5t40.5 146.5
q30 69 53 104q48 70 103 67q3 0 6 -1zM237 674q-35 2 -71 -52q-21 -31 -49 -97q-24 -56 -38 -139q-15 -82 -9 -157q2 -29 7 -54q142 187 317 293q-9 39 -23 74q-45 111 -121 135h-2q-5 -3 -11 -3z" />
    <glyph glyph-name="Ugrave" unicode="&#xd9;" horiz-adv-x="426" 
d="M87 678q-11 -86 -13.5 -175t5.5 -185t29 -170q18 -63 50 -98q38 -43 85 -22q46 20 77 102q27 72 39 190q16 153 7 361q0 8 5 13.5t12.5 5.5t13 -5t5.5 -12q9 -212 -7 -366q-13 -122 -42 -199q-35 -97 -96 -124q-71 -30 -126 32q-37 41 -57 112q-22 78 -30 176
q-9 99 -6 190q2 90 13 178q1 8 7 12.5t13.5 3.5t12 -7t3.5 -13zM178 806q10 -5 98 -64q6 -4 7.5 -11.5t-2.5 -13.5t-11.5 -7.5t-13.5 2.5q-86 57 -96 64q-7 3 -8.5 10.5t2 14t11 8t13.5 -2.5z" />
    <glyph glyph-name="Uacute" unicode="&#xda;" horiz-adv-x="426" 
d="M87 678q-11 -86 -13.5 -175t5.5 -185t29 -170q18 -63 50 -98q38 -43 85 -22q46 20 77 102q27 72 39 190q16 153 7 361q0 8 5 13.5t12.5 5.5t13 -5t5.5 -12q9 -212 -7 -366q-13 -122 -42 -199q-35 -97 -96 -124q-71 -30 -126 32q-37 41 -57 112q-22 78 -30 176
q-9 99 -6 190q2 90 13 178q1 8 7 12.5t13.5 3.5t12 -7t3.5 -13zM166 734q14 7 41 25l42 26q7 3 14 1t10.5 -8.5t1.5 -13.5t-8 -11q-14 -7 -41 -25l-42 -26q-7 -3 -14 -1t-10.5 8.5t-1.5 13.5t8 11z" />
    <glyph glyph-name="Ucircumflex" unicode="&#xdb;" horiz-adv-x="426" 
d="M87 678q-11 -86 -13.5 -175t5.5 -185t29 -170q18 -63 50 -98q38 -43 85 -22q46 20 77 102q27 72 39 190q16 153 7 361q0 8 5 13.5t12.5 5.5t13 -5t5.5 -12q9 -212 -7 -366q-13 -122 -42 -199q-35 -97 -96 -124q-71 -30 -126 32q-37 41 -57 112q-22 78 -30 176
q-9 99 -6 190q2 90 13 178q1 8 7 12.5t13.5 3.5t12 -7t3.5 -13zM135 729q33 49 41 58q21 26 41 23q16 -2 38 -27l45 -53q5 -6 5 -13t-6 -12t-13 -5t-12 6l-46 53q-11 12 -15 15l-9 -9q-7 -9 -39 -56q-4 -6 -11.5 -7.5t-13.5 2.5t-7.5 11.5t2.5 13.5z" />
    <glyph glyph-name="Udieresis" unicode="&#xdc;" horiz-adv-x="426" 
d="M87 678q-11 -86 -13.5 -175t5.5 -185t29 -170q18 -63 50 -98q38 -43 85 -22q46 20 77 102q27 72 39 190q16 153 7 361q0 8 5 13.5t12.5 5.5t13 -5t5.5 -12q9 -212 -7 -366q-13 -122 -42 -199q-35 -97 -96 -124q-71 -30 -126 32q-37 41 -57 112q-22 78 -30 176
q-9 99 -6 190q2 90 13 178q1 8 7 12.5t13.5 3.5t12 -7t3.5 -13zM185 777q6 -5 6 -12t-5.5 -12.5t-12.5 -5.5t-12.5 5.5t-5.5 12.5t5.5 12.5t12.5 5.5t12 -6zM271 781q6 -5 6 -12t-5.5 -12.5t-12.5 -5.5t-12.5 5.5t-5.5 12.5t5.5 12.5t12.5 5.5t12 -6z" />
    <glyph glyph-name="Yacute" unicode="&#xdd;" horiz-adv-x="475" 
d="M111 650l27 -82q15 -45 30 -83q27 -74 49 -113q12 -22 22 -33q4 -5 7 -6q6 2 14 10q12 12 26 34q23 37 54 110q17 41 32 81q17 43 30 80.5t17 47.5q3 6 10 9t13.5 0.5t9.5 -9.5t1 -14q-4 -9 -17 -46l-30 -82q-16 -41 -33 -81q-32 -74 -57 -115q-16 -26 -30 -40
q-11 -11 -22 -16q10 -135 -3 -293q-1 -8 -6.5 -13t-13 -4t-12.5 6.5t-4 12.5q13 158 3 291q-8 4 -16 13q-12 14 -26 39q-23 41 -52 118q-15 40 -30 84l-27 82l-14 43q-2 7 1 14t10 9t14 -1t9 -10t14 -43zM206 745q17 12 42 33l44 37q5 5 12.5 4t12.5 -6.5t4 -13t-7 -12.5
l-42 -36q-27 -22 -46 -36q-6 -4 -13 -2.5t-11.5 7.5t-3 13t7.5 12z" />
    <glyph glyph-name="Thorn" unicode="&#xde;" horiz-adv-x="369" 
d="M70 455q1 -52 1 -150v-138q90 60 156 135.5t82 155.5q8 40 -7 76q-14 34 -43 38q-28 3 -68 -18q-34 -17 -67.5 -45.5t-53.5 -53.5zM34 465v228q0 7 5.5 12.5t12.5 5.5t12.5 -5.5t5.5 -12.5v-184q51 50 104 77q51 26 90 21q49 -6 72 -59q19 -46 9 -98q-10 -49 -38 -98
t-68 -90.5t-81 -75t-86 -62.5v-230q0 -7 -5.5 -12.5t-12.5 -5.5t-12.5 5.5t-5.5 12.5v217q-5 2 -8 7q-4 6 -2.5 13.5t8.5 10.5l2 2q-1 49 -1 154t-1 159v8z" />
    <glyph glyph-name="germandbls" unicode="&#xdf;" horiz-adv-x="437" 
d="M78 6q-2 44 -15 126l-23 145q-25 183 11 273q12 28 38 58t57 49q23 15 46.5 21t50 1t47.5 -25q59 -55 0 -152q-24 -39 -81 -101q90 17 142 -11q36 -20 58.5 -56t28.5 -78q16 -119 -82 -178q-75 -44 -196 -44q-7 0 -12.5 5.5t-5.5 12.5t5.5 12.5t12.5 5.5q111 0 177 39
q78 47 65 143q-4 34 -22 62.5t-47 43.5q-50 28 -153 -1q-1 -1 -1.5 -1t-2.5 -1.5t-6 -3.5q-19 -11 -33 2q-6 7 -5 16l2 6q2 2 3 4q1 1 4 3l8 8q13 12 19 19q3 3 19 21l26 28q9 11 23 29t23 34q44 72 7 107q-40 37 -101 -1q-27 -17 -49 -42.5t-31 -48.5q-33 -80 -9 -255
l23 -143q13 -84 15 -130q0 -8 -5 -13.5t-12.5 -5.5t-13 5t-5.5 12z" />
    <glyph glyph-name="agrave" unicode="&#xe0;" horiz-adv-x="378" 
d="M292 447q-44 35 -99 -4q-54 -39 -98 -128q-43 -88 -49 -168q-6 -82 32 -109q34 -25 67 2t65 99q23 52 49 132q27 84 30 89v3v5v4q1 9 4 15q7 13 23 12q9 -1 14 -10q2 -2 2 -6q1 -2 1.5 -6.5t0.5 -18.5q1 -41 3 -75q1 -19 2 -55q2 -40 4 -61q7 -102 19 -161q1 -7 -3 -13
t-11.5 -7.5t-13.5 2.5t-8 12q-11 60 -19 165l-3 61q-2 39 -3 55v2l-7 -23q-27 -83 -51 -136q-36 -79 -75 -111q-54 -46 -112 -5q-53 39 -46 141q7 88 53 182q48 96 110 141q76 55 141 3q6 -5 7 -12t-4 -13t-12 -7t-13 4zM167 611q40 -16 89 -46q7 -3 8.5 -10.5t-2 -14
t-11 -8t-13.5 2.5q-47 27 -85 42q-7 3 -9.5 10t0 14t9.5 9.5t14 0.5z" />
    <glyph glyph-name="aacute" unicode="&#xe1;" horiz-adv-x="378" 
d="M292 447q-44 35 -99 -4q-54 -39 -98 -128q-43 -88 -49 -168q-6 -82 32 -109q34 -25 67 2t65 99q23 52 49 132q27 84 30 89v3v5v4q1 9 4 15q7 13 23 12q9 -1 14 -10q2 -2 2 -6q1 -2 1.5 -6.5t0.5 -18.5q1 -41 3 -75q1 -19 2 -55q2 -40 4 -61q7 -102 19 -161q1 -7 -3 -13
t-11.5 -7.5t-13.5 2.5t-8 12q-11 60 -19 165l-3 61q-2 39 -3 55v2l-7 -23q-27 -83 -51 -136q-36 -79 -75 -111q-54 -46 -112 -5q-53 39 -46 141q7 88 53 182q48 96 110 141q76 55 141 3q6 -5 7 -12t-4 -13t-12 -7t-13 4zM181 570l26 24l32 26l26 23q6 5 13.5 4.5t12 -6
t4 -13t-5.5 -11.5q-2 -3 -34.5 -30t-47.5 -43q-6 -5 -13 -5t-12.5 5.5t-5.5 12.5t5 13z" />
    <glyph glyph-name="acircumflex" unicode="&#xe2;" horiz-adv-x="378" 
d="M292 447q-44 35 -99 -4q-54 -39 -98 -128q-43 -88 -49 -168q-6 -82 32 -109q34 -25 67 2t65 99q23 52 49 132q27 84 30 89v3v5v4q1 9 4 15q7 13 23 12q9 -1 14 -10q2 -2 2 -6q1 -2 1.5 -6.5t0.5 -18.5q1 -41 3 -75q1 -19 2 -55q2 -40 4 -61q7 -102 19 -161q1 -7 -3 -13
t-11.5 -7.5t-13.5 2.5t-8 12q-11 60 -19 165l-3 61q-2 39 -3 55v2l-7 -23q-27 -83 -51 -136q-36 -79 -75 -111q-54 -46 -112 -5q-53 39 -46 141q7 88 53 182q48 96 110 141q76 55 141 3q6 -5 7 -12t-4 -13t-12 -7t-13 4zM155 565q20 25 44 63l14 22q8 12 17 16q14 8 28 0
q9 -5 19 -18q12 -15 46 -73q4 -6 2.5 -13.5t-8 -11t-14 -2t-10.5 8.5q-34 56 -44 69q-3 4 -5 6q-1 -2 -2 -3q-4 -5 -13 -20q-24 -39 -46 -66q-5 -6 -12.5 -7t-13 4t-6.5 12.5t4 12.5z" />
    <glyph glyph-name="atilde" unicode="&#xe3;" horiz-adv-x="378" 
d="M292 447q-44 35 -99 -4q-54 -39 -98 -128q-43 -88 -49 -168q-6 -82 32 -109q34 -25 67 2t65 99q23 52 49 132q27 84 30 89v3v5v4q1 9 4 15q7 13 23 12q9 -1 14 -10q2 -2 2 -6q1 -2 1.5 -6.5t0.5 -18.5q1 -41 3 -75q1 -19 2 -55q2 -40 4 -61q7 -102 19 -161q1 -7 -3 -13
t-11.5 -7.5t-13.5 2.5t-8 12q-11 60 -19 165l-3 61q-2 39 -3 55v2l-7 -23q-27 -83 -51 -136q-36 -79 -75 -111q-54 -46 -112 -5q-53 39 -46 141q7 88 53 182q48 96 110 141q76 55 141 3q6 -5 7 -12t-4 -13t-12 -7t-13 4zM171 571q33 43 62 45q22 1 43 -22q9 -9 9 -10
q6 7 13 21q3 7 10 9t14 -1t9 -10t-1 -14q-10 -20 -19 -30q-12 -13 -27 -12q-11 0 -22 10q-2 2 -12 13q-10 10 -15 10q-12 -1 -36 -31q-4 -6 -11.5 -7t-13.5 3.5t-7 12t4 13.5z" />
    <glyph glyph-name="adieresis" unicode="&#xe4;" horiz-adv-x="378" 
d="M292 447q-44 35 -99 -4q-54 -39 -98 -128q-43 -88 -49 -168q-6 -82 32 -109q34 -25 67 2t65 99q23 52 49 132q27 84 30 89v3v5v4q1 9 4 15q7 13 23 12q9 -1 14 -10q2 -2 2 -6q1 -2 1.5 -6.5t0.5 -18.5q1 -41 3 -75q1 -19 2 -55q2 -40 4 -61q7 -102 19 -161q1 -7 -3 -13
t-11.5 -7.5t-13.5 2.5t-8 12q-11 60 -19 165l-3 61q-2 39 -3 55v2l-7 -23q-27 -83 -51 -136q-36 -79 -75 -111q-54 -46 -112 -5q-53 39 -46 141q7 88 53 182q48 96 110 141q76 55 141 3q6 -5 7 -12t-4 -13t-12 -7t-13 4zM229 578q6 -5 6 -12t-5.5 -12.5t-12.5 -5.5
t-12.5 5.5t-5.5 12.5t5.5 12.5t12.5 5.5t12 -6zM317 578q6 -5 6 -12t-5.5 -12.5t-12.5 -5.5t-12.5 5.5t-5.5 12.5t5.5 12.5t12.5 5.5t12 -6z" />
    <glyph glyph-name="aring" unicode="&#xe5;" horiz-adv-x="378" 
d="M241 567q43 14 60 46q8 14 3 21q-10 11 -46 8q-20 -1 -44.5 -17t-34.5 -34q-6 -11 -2 -15q12 -11 57 -8q3 0 7 -1zM188 534q-23 4 -35 16q-26 23 -5 59q14 25 46 46t62 23q54 4 75 -21q22 -25 2 -61q-16 -30 -52.5 -51t-78.5 -19q-9 0 -14 8zM292 447q-44 35 -99 -4
q-54 -39 -98 -128q-43 -88 -49 -168q-6 -82 32 -109q34 -25 67 2t65 99q23 52 49 132q27 84 30 89v3v5v4q1 9 4 15q7 13 23 12q9 -1 14 -10q2 -2 2 -6q1 -2 1.5 -6.5t0.5 -18.5q1 -41 3 -75q1 -19 2 -55q2 -40 4 -61q7 -102 19 -161q1 -7 -3 -13t-11.5 -7.5t-13.5 2.5t-8 12
q-11 60 -19 165l-3 61q-2 39 -3 55v2l-7 -23q-27 -83 -51 -136q-36 -79 -75 -111q-54 -46 -112 -5q-53 39 -46 141q7 88 53 182q48 96 110 141q76 55 141 3q6 -5 7 -12t-4 -13t-12 -7t-13 4z" />
    <glyph glyph-name="ae" unicode="&#xe6;" horiz-adv-x="609" 
d="M340 177q25 3 37 7q24 9 56 40t56 70q27 42 34.5 78t-6.5 58q-18 27 -43 25q-24 -3 -56 -30q-26 -21 -48.5 -51t-34.5 -53l2 -38q1 -20 2 -51q0 -36 1 -55zM292 447q-44 35 -99 -4q-54 -39 -98 -128q-43 -88 -49 -168q-6 -82 32 -109q31 -24 61 -3q29 19 58 75
q12 24 24 55t18.5 51t14.5 47.5t9 29.5q6 21 21 59l9 25l3 8l1 2q0 1 1 2q0 1 1 1q0 1 1 3q2 1 3 2q6 5 13 4q9 -1 14 -10l2 -4q30 41 62 68q41 34 77 38q46 4 76 -41q17 -23 15 -55.5t-13 -60.5q-10 -29 -29 -59q-27 -43 -63 -78t-68 -47q-16 -6 -46 -9q2 -17 5 -31
q10 -44 32 -66q24 -25 67 -24q42 1 66 15q12 6 50 40q6 5 13 5t12 -6t5 -13t-6 -12q-41 -37 -56 -46q-32 -18 -84 -19q-58 -1 -93 35q-29 29 -41 83q-6 27 -8 60t-2.5 70t-1.5 49q0 6 -1 11l-3 -9q0 -2 -8 -29l-16 -49q-6 -21 -19 -53.5t-25 -57.5q-33 -65 -70 -89
q-50 -34 -103 3q-53 39 -46 141q7 88 53 182q48 96 110 141q76 55 141 3q6 -5 7 -12t-4 -13t-12 -7t-13 4z" />
    <glyph glyph-name="ccedilla" unicode="&#xe7;" horiz-adv-x="338" 
d="M205 358q-2 57 -18 85q-12 20 -28 19q-19 0 -43.5 -24.5t-46.5 -70.5q-16 -36 -27.5 -87t-12.5 -100q-1 -119 67 -148q36 -16 72 9q8 6 17 13.5t15 14t15.5 18t14 16.5t14.5 20t13 19l14 20q11 17 12 19q4 6 11.5 7.5t13.5 -2.5t7.5 -11.5t-2.5 -13.5l-12 -19
q-10 -15 -14 -20t-13.5 -19.5t-14.5 -20.5l-16 -19q-10 -12 -17.5 -19.5t-17.5 -16.5t-20 -16q-27 -19 -58 -21q-3 -30 -17 -49t-41 -42q-6 -5 -13.5 -4t-12.5 6.5t-4 13t6 12.5q24 20 34 33t13 34q-7 2 -13 4q-90 39 -89 182q1 53 13.5 108t30.5 93q23 53 55.5 85t65.5 32
q38 1 60 -37q21 -36 23 -101q0 -8 -5 -13.5t-12.5 -5.5t-13 5t-5.5 12z" />
    <glyph glyph-name="egrave" unicode="&#xe8;" horiz-adv-x="366" 
d="M54 278q48 -17 90 3q44 22 67 73q22 48 11 83q-10 31 -48 26q-50 -6 -87 -78q-23 -47 -33 -107zM19 286q11 65 36 115q45 89 115 98q33 4 55.5 -10t31.5 -41q15 -48 -13 -109q-29 -63 -84 -90q-52 -25 -110 -8q-1 -9 -1 -19q-3 -94 31 -150q36 -58 104 -47q39 6 73 36
t58 73q4 6 11 8t13.5 -1.5t8.5 -10.5t-1 -14q-28 -47 -68 -83t-89 -44q-93 -14 -141 64q-40 65 -36 170q0 17 2 34q-10 9 -4 21q3 6 8 8zM110 624q8 -8 39 -32q25 -21 40 -35q5 -6 5 -13t-5.5 -12.5t-12.5 -5.5t-13 5q-13 13 -37 33l-40 32q-5 5 -5.5 12.5t4 13t12 6
t13.5 -3.5z" />
    <glyph glyph-name="eacute" unicode="&#xe9;" horiz-adv-x="366" 
d="M54 278q48 -17 90 3q44 22 67 73q22 48 11 83q-10 31 -48 26q-50 -6 -87 -78q-23 -47 -33 -107zM19 286q11 65 36 115q45 89 115 98q33 4 55.5 -10t31.5 -41q15 -48 -13 -109q-29 -63 -84 -90q-52 -25 -110 -8q-1 -9 -1 -19q-3 -94 31 -150q36 -58 104 -47q39 6 73 36
t58 73q4 6 11 8t13.5 -1.5t8.5 -10.5t-1 -14q-28 -47 -68 -83t-89 -44q-93 -14 -141 64q-40 65 -36 170q0 17 2 34q-10 9 -4 21q3 6 8 8zM123 556q15 8 29 20t33 30.5t29 27.5q6 5 13 5t12 -6t5 -13t-6 -12l-27 -26q-20 -20 -36.5 -34t-33.5 -24q-7 -3 -14 -1t-10.5 8.5
t-1.5 13.5t8 11z" />
    <glyph glyph-name="ecircumflex" unicode="&#xea;" horiz-adv-x="366" 
d="M54 278q48 -17 90 3q44 22 67 73q22 48 11 83q-10 31 -48 26q-50 -6 -87 -78q-23 -47 -33 -107zM19 286q11 65 36 115q45 89 115 98q33 4 55.5 -10t31.5 -41q15 -48 -13 -109q-29 -63 -84 -90q-52 -25 -110 -8q-1 -9 -1 -19q-3 -94 31 -150q36 -58 104 -47q39 6 73 36
t58 73q4 6 11 8t13.5 -1.5t8.5 -10.5t-1 -14q-28 -47 -68 -83t-89 -44q-93 -14 -141 64q-40 65 -36 170q0 17 2 34q-10 9 -4 21q3 6 8 8zM101 554q18 23 39 55q9 13 12 18q8 10 17 14q13 5 26 -4q7 -5 16 -16q3 -4 42 -62q4 -6 2.5 -13.5t-7.5 -11.5t-13.5 -2.5t-11.5 7.5
q-38 56 -41 60l-3 3q-2 -2 -9 -13q-22 -34 -41 -57q-5 -6 -12.5 -7t-13 4t-6.5 12.5t4 12.5z" />
    <glyph glyph-name="edieresis" unicode="&#xeb;" horiz-adv-x="366" 
d="M54 278q48 -17 90 3q44 22 67 73q22 48 11 83q-10 31 -48 26q-50 -6 -87 -78q-23 -47 -33 -107zM19 286q11 65 36 115q45 89 115 98q33 4 55.5 -10t31.5 -41q15 -48 -13 -109q-29 -63 -84 -90q-52 -25 -110 -8q-1 -9 -1 -19q-3 -94 31 -150q36 -58 104 -47q39 6 73 36
t58 73q4 6 11 8t13.5 -1.5t8.5 -10.5t-1 -14q-28 -47 -68 -83t-89 -44q-93 -14 -141 64q-40 65 -36 170q0 17 2 34q-10 9 -4 21q3 6 8 8zM149 577q6 -5 6 -12t-5.5 -12.5t-12.5 -5.5t-12.5 5.5t-5.5 12.5t5.5 12.5t12.5 5.5t12 -6zM225 581q6 -5 6 -12t-5.5 -12.5
t-12.5 -5.5t-12.5 5.5t-5.5 12.5t5.5 12.5t12.5 5.5t12 -6z" />
    <glyph glyph-name="igrave" unicode="&#xec;" horiz-adv-x="122" 
d="M66 470q-8 -296 15 -469q1 -7 -3.5 -13t-12 -7t-13.5 3.5t-7 12.5q-23 179 -15 473q0 8 5.5 13t13 5t12.5 -5.5t5 -12.5zM25 619q31 -37 70 -76q5 -6 5 -13t-5.5 -12.5t-12.5 -5.5t-13 5q-40 40 -72 80q-5 5 -4 12.5t6.5 12.5t13 4t12.5 -7z" />
    <glyph glyph-name="iacute" unicode="&#xed;" horiz-adv-x="141" 
d="M66 470q-8 -296 15 -469q1 -7 -3.5 -13t-12 -7t-13.5 3.5t-7 12.5q-23 179 -15 473q0 8 5.5 13t13 5t12.5 -5.5t5 -12.5zM21 544q9 7 18 15.5t16 15.5l16 19l17 17q5 6 12.5 6t13 -5t5.5 -12.5t-5 -13.5l-16 -16q-11 -12 -17.5 -19.5t-17 -17.5t-20.5 -17q-6 -5 -13.5 -4
t-12 7t-3.5 13.5t7 11.5z" />
    <glyph glyph-name="icircumflex" unicode="&#xee;" horiz-adv-x="145" 
d="M87 467q-8 -296 15 -469q1 -7 -3.5 -13t-12 -7t-13.5 3.5t-7 12.5q-23 179 -15 473q0 8 5.5 13t13 5t12.5 -5.5t5 -12.5zM14 549q17 29 25 39q15 20 32 17q15 -2 28 -23q6 -9 22 -41q3 -7 1 -14t-9 -10t-14 -1t-10 9q-15 30 -20 39l-2 2q-6 -8 -21 -35q-4 -7 -11.5 -8.5
t-14 2t-8 11t1.5 13.5z" />
    <glyph glyph-name="idieresis" unicode="&#xef;" horiz-adv-x="114" 
d="M65 470q-8 -296 15 -469q1 -7 -3.5 -13t-12 -7t-13.5 3.5t-7 12.5q-23 179 -15 473q0 8 5.5 13t13 5t12.5 -5.5t5 -12.5zM32 556q6 -5 6 -12t-5.5 -12.5t-12.5 -5.5t-12.5 5.5t-5.5 12.5t5.5 12.5t12.5 5.5t12 -6zM85 559q6 -5 6 -12t-5.5 -12.5t-12.5 -5.5t-12.5 5.5
t-5.5 12.5t5.5 12.5t12.5 5.5t12 -6z" />
    <glyph glyph-name="eth" unicode="&#xf0;" horiz-adv-x="350" 
d="M232 301q-89 -62 -124 -145q-25 -56 8 -95.5t93 -28.5q77 14 84 79q6 62 -44 158q-8 16 -17 32zM112 459q-56 57 -95 73q-7 3 -9.5 10t0 14t9.5 9.5t14 0.5q47 -20 109 -86q48 35 90 52q7 2 14 -0.5t9.5 -9.5t0 -14t-9.5 -10q-38 -15 -79 -44q43 -49 78 -103q20 12 40 21
q7 2 14 -0.5t9.5 -9.5t0 -14t-9.5 -10q-17 -7 -35 -17l19 -35q55 -106 48 -178q-10 -93 -114 -112q-38 -7 -71.5 4.5t-54.5 36.5q-22 26 -26 60.5t11 72.5q41 93 139 162q-35 53 -77 100l-33 -26l-44 -35q-6 -5 -13.5 -4t-12 7t-3.5 13.5t7 11.5l41 33q26 21 34 27z" />
    <glyph glyph-name="ntilde" unicode="&#xf1;" horiz-adv-x="371" 
d="M54 270q27 80 64 139q34 54 70 74q48 27 92 -9q32 -25 49 -92q13 -51 18 -131q2 -40 2.5 -86t-0.5 -94.5t-1 -59.5q0 -7 -5.5 -12.5t-12.5 -5.5t-12.5 5.5t-5.5 12.5q0 11 1 59t0.5 93t-2.5 86q-5 76 -17 124q-14 55 -36 73q-26 20 -53 5t-56 -62q-24 -38 -43 -84.5
t-27 -75.5q-5 -20 -9 -41t-6 -46.5t-3.5 -40.5t-3 -47.5t-2.5 -43.5q0 -4 -1 -6v-2q-1 -2 -1 -4q-5 -9 -14 -10q-13 -1 -18 10l-2 4q0 1 -1 3v12v47v88q0 215 -6 291q-1 7 4 12.5t12.5 6.5t13 -4t6.5 -13q6 -71 6 -175zM124 566q28 50 59 52q22 2 50 -23q21 -19 27 -20
q8 -2 22 18q4 6 11.5 7.5t13.5 -2.5t7.5 -11.5t-2.5 -13.5q-27 -41 -60 -34q-16 4 -43 29q-17 15 -23 14q-12 -1 -30 -34q-4 -6 -11 -8t-13.5 1.5t-8.5 10.5t1 14z" />
    <glyph glyph-name="ograve" unicode="&#xf2;" horiz-adv-x="362" 
d="M158 454q-46 -28 -76 -97.5t-33 -147.5q-3 -84 26 -133q30 -52 90 -47q55 4 95 63q41 57 46 137q6 83 -31 145t-117 80zM173 487q63 -15 103.5 -57.5t55.5 -93.5q14 -52 10 -109q-6 -89 -53.5 -158.5t-121.5 -75.5q-81 -7 -123 64q-35 58 -31 153q3 90 41 170
q37 82 98 111q12 6 21 -4zM125 601q29 -17 51 -32q6 -4 7.5 -11.5t-2.5 -13.5t-11.5 -7.5t-13.5 2.5q-22 15 -49 30q-6 4 -8 11t1.5 13.5t10.5 8.5t14 -1z" />
    <glyph glyph-name="oacute" unicode="&#xf3;" horiz-adv-x="362" 
d="M158 454q-46 -28 -76 -97.5t-33 -147.5q-3 -84 26 -133q30 -52 90 -47q55 4 95 63q41 57 46 137q6 83 -31 145t-117 80zM173 487q63 -15 103.5 -57.5t55.5 -93.5q14 -52 10 -109q-6 -89 -53.5 -158.5t-121.5 -75.5q-81 -7 -123 64q-35 58 -31 153q3 90 41 170
q37 82 98 111q12 6 21 -4zM120 556q18 12 27.5 21t26.5 30q5 6 12 7t13 -4t7 -12t-4 -13q-18 -23 -29.5 -34.5t-32.5 -24.5q-7 -4 -14 -2.5t-11 8t-2.5 13.5t7.5 11z" />
    <glyph glyph-name="ocircumflex" unicode="&#xf4;" horiz-adv-x="362" 
d="M158 454q-46 -28 -76 -97.5t-33 -147.5q-3 -84 26 -133q30 -52 90 -47q55 4 95 63q41 57 46 137q6 83 -31 145t-117 80zM173 487q63 -15 103.5 -57.5t55.5 -93.5q14 -52 10 -109q-6 -89 -53.5 -158.5t-121.5 -75.5q-81 -7 -123 64q-35 58 -31 153q3 90 41 170
q37 82 98 111q12 6 21 -4zM94 556q15 16 39 49q8 11 13 16q9 9 18 11q12 2 24 -5q6 -5 16 -15l10 -12l17 -20l18 -21q5 -6 4 -13.5t-6.5 -12.5t-13 -4t-12.5 6l-17 22l-16 19q-6 7 -11 12l-6 6q-3 -3 -9 -11q-28 -38 -40 -51q-5 -5 -12.5 -5.5t-13 4t-6 12t3.5 13.5z" />
    <glyph glyph-name="otilde" unicode="&#xf5;" horiz-adv-x="362" 
d="M158 454q-46 -28 -76 -97.5t-33 -147.5q-3 -84 26 -133q30 -52 90 -47q55 4 95 63q41 57 46 137q6 83 -31 145t-117 80zM173 487q63 -15 103.5 -57.5t55.5 -93.5q14 -52 10 -109q-6 -89 -53.5 -158.5t-121.5 -75.5q-81 -7 -123 64q-35 58 -31 153q3 90 41 170
q37 82 98 111q12 6 21 -4zM87 546q38 37 63 41q24 3 42 -19q1 -1 4 -5t4 -6l2 -2q5 2 14 12q6 5 13 5t12.5 -5.5t5.5 -12.5t-5 -13q-29 -29 -52 -20q-9 4 -17 13q-2 2 -5 6t-4 6q-5 6 -9 5q-13 -2 -42 -31q-6 -5 -13 -5t-12.5 5.5t-5.5 12.5t5 13z" />
    <glyph glyph-name="odieresis" unicode="&#xf6;" horiz-adv-x="362" 
d="M158 454q-46 -28 -76 -97.5t-33 -147.5q-3 -84 26 -133q30 -52 90 -47q55 4 95 63q41 57 46 137q6 83 -31 145t-117 80zM173 487q63 -15 103.5 -57.5t55.5 -93.5q14 -52 10 -109q-6 -89 -53.5 -158.5t-121.5 -75.5q-81 -7 -123 64q-35 58 -31 153q3 90 41 170
q37 82 98 111q12 6 21 -4zM141 569q6 -5 6 -12t-5.5 -12.5t-12.5 -5.5t-12.5 5.5t-5.5 12.5t5.5 12.5t12.5 5.5t12 -6zM226 572q6 -5 6 -12t-5.5 -12.5t-12.5 -5.5t-12.5 5.5t-5.5 12.5t5.5 12.5t12.5 5.5t12 -6z" />
    <glyph glyph-name="divide" unicode="&#xf7;" horiz-adv-x="312" 
d="M35 315q16 3 55.5 11t62.5 12t57 7.5t63 1.5q7 0 12 -6t5 -13t-6 -12t-13 -5q-27 2 -58.5 -1t-53 -7t-61 -12t-57.5 -12q-7 -1 -13 3t-7.5 11.5t2.5 13.5t12 8zM170 269q6 -5 6 -12t-5.5 -12.5t-12.5 -5.5t-12.5 5.5t-5.5 12.5t5.5 12.5t12.5 5.5t12 -6zM163 406
q6 -5 6 -12t-5.5 -12.5t-12.5 -5.5t-12.5 5.5t-5.5 12.5t5.5 12.5t12.5 5.5t12 -6z" />
    <glyph glyph-name="oslash" unicode="&#xf8;" horiz-adv-x="362" 
d="M291 341q-35 91 -133 113q-46 -28 -76 -97.5t-33 -147.5q-2 -34 3 -64l12 12q45 46 71 70.5t70 58.5t86 55zM301 306q-18 -10 -35.5 -21t-37.5 -27l-32 -24q-11 -9 -35 -32l-29 -28q-6 -5 -34 -34l-32 -30q-2 -3 -5 -4q6 -17 14 -30q30 -52 90 -47q55 4 95.5 62.5
t45.5 137.5q3 40 -5 77zM173 487q63 -15 103.5 -57.5t55.5 -93.5q14 -52 10 -109q-6 -89 -53.5 -158.5t-121.5 -75.5q-81 -7 -123 64q-35 58 -31 153q3 90 41 170q37 82 98 111q12 6 21 -4z" />
    <glyph glyph-name="ugrave" unicode="&#xf9;" horiz-adv-x="314" 
d="M59 480q0 -10 -8 -111q-7 -87 -6 -137q1 -165 58 -208q20 -15 59 -8q38 6 61 57q22 47 30 127q6 79 2 145.5t-14 110.5q-1 7 3 13.5t11 8t13.5 -2.5t8.5 -11q10 -47 14 -116.5t-2 -151.5q-8 -86 -33 -139q-32 -67 -88 -77q-54 -9 -87 16q-71 53 -72 235q-1 54 6 141
q8 100 8 110q0 7 5.5 12t13 5t12.5 -5.5t5 -13.5zM114 603l77 -56q6 -4 7 -11.5t-3.5 -13.5t-12 -7t-13.5 4l-75 54q-6 4 -7.5 11.5t2.5 13.5t11.5 7.5t13.5 -2.5z" />
    <glyph glyph-name="uacute" unicode="&#xfa;" horiz-adv-x="314" 
d="M59 480q0 -10 -8 -111q-7 -87 -6 -137q1 -165 58 -208q20 -15 59 -8q38 6 61 57q22 47 30 127q6 79 2 145.5t-14 110.5q-1 7 3 13.5t11 8t13.5 -2.5t8.5 -11q10 -47 14 -116.5t-2 -151.5q-8 -86 -33 -139q-32 -67 -88 -77q-54 -9 -87 16q-71 53 -72 235q-1 54 6 141
q8 100 8 110q0 7 5.5 12t13 5t12.5 -5.5t5 -13.5zM123 535q28 27 66 59q6 5 13.5 4t12.5 -6.5t4 -13t-6 -12.5q-38 -31 -66 -57q-5 -5 -12.5 -5t-12.5 5.5t-5 13t6 12.5z" />
    <glyph glyph-name="ucircumflex" unicode="&#xfb;" horiz-adv-x="314" 
d="M59 480q0 -10 -8 -111q-7 -87 -6 -137q1 -165 58 -208q20 -15 59 -8q38 6 61 57q22 47 30 127q6 79 2 145.5t-14 110.5q-1 7 3 13.5t11 8t13.5 -2.5t8.5 -11q10 -47 14 -116.5t-2 -151.5q-8 -86 -33 -139q-32 -67 -88 -77q-54 -9 -87 16q-71 53 -72 235q-1 54 6 141
q8 100 8 110q0 7 5.5 12t13 5t12.5 -5.5t5 -13.5zM97 539q6 9 15.5 27t13.5 25q7 11 12 17q8 10 18 12q13 3 24 -6q7 -5 15 -16q10 -14 32 -57q3 -6 1 -13.5t-8.5 -10.5t-14 -1t-10.5 9q-21 40 -30 53q-1 2 -2 3q-3 -3 -6 -9q-4 -6 -13.5 -23.5t-14.5 -27.5q-4 -6 -11 -8
t-13.5 1.5t-8.5 10.5t1 14z" />
    <glyph glyph-name="udieresis" unicode="&#xfc;" horiz-adv-x="314" 
d="M59 480q0 -10 -8 -111q-7 -87 -6 -137q1 -165 58 -208q20 -15 59 -8q38 6 61 57q22 47 30 127q6 79 2 145.5t-14 110.5q-1 7 3 13.5t11 8t13.5 -2.5t8.5 -11q10 -47 14 -116.5t-2 -151.5q-8 -86 -33 -139q-32 -67 -88 -77q-54 -9 -87 16q-71 53 -72 235q-1 54 6 141
q8 100 8 110q0 7 5.5 12t13 5t12.5 -5.5t5 -13.5zM138 573q6 -5 6 -12t-5.5 -12.5t-12.5 -5.5t-12.5 5.5t-5.5 12.5t5.5 12.5t12.5 5.5t12 -6zM208 573q6 -5 6 -12t-5.5 -12.5t-12.5 -5.5t-12.5 5.5t-5.5 12.5t5.5 12.5t12.5 5.5t12 -6z" />
    <glyph glyph-name="yacute" unicode="&#xfd;" horiz-adv-x="317" 
d="M61 464q-24 -163 -25 -244t15 -126q16 -48 48 -52q33 -4 60 24q25 27 46 80q32 86 38 183q2 36 2 85v17v11v9v3v3l2 4q5 10 16 10q10 0 15 -9q2 -2 2 -4q1 -1 1 -3t1 -5v-12q1 -16 2 -49q2 -66 5 -184q0 -18 2.5 -66.5t3.5 -80t-1.5 -73.5t-10.5 -73q-19 -78 -73 -107
q-61 -32 -164 1q-8 2 -11 8.5t-1 14t8.5 10.5t13.5 1q90 -28 137 -3q40 21 55 84q5 21 8 45.5t3 55t-0.5 51t-2.5 58t-2 50.5q-7 -25 -16 -48q-22 -60 -53 -92q-40 -41 -90 -35q-55 7 -79 76q-17 52 -16 138q1 83 25 250q1 7 7 11.5t13.5 3.5t12 -7t3.5 -14zM125 517
q13 9 29 27l30 35q6 5 13 5t12.5 -5.5t5.5 -12.5t-5 -13q-5 -5 -29 -32q-18 -22 -34 -34q-6 -4 -13.5 -3t-12 7t-3.5 13.5t7 12.5z" />
    <glyph glyph-name="thorn" unicode="&#xfe;" horiz-adv-x="401" 
d="M84 104q42 -44 138 -16q81 24 109 90q16 35 13.5 91t-23.5 104q-22 50 -57 71q-38 23 -88 5q-33 -12 -53 -36t-34 -62q-1 -1 -1 -3q-1 -26 -1 -68q-2 -122 -3 -176zM84 728q6 -125 5 -300q29 39 75 55q66 23 118 -8q45 -27 72 -88q23 -53 26 -116t-15 -107
q-36 -82 -133 -110q-93 -27 -148 5q0 -126 4 -225q0 -8 -5 -13.5t-12.5 -5.5t-13 5t-5.5 12q-6 146 -1 448q5 297 -3 446q0 8 5 13.5t12.5 5.5t13 -5t5.5 -12z" />
    <glyph glyph-name="ydieresis" unicode="&#xff;" horiz-adv-x="317" 
d="M61 464q-24 -163 -25 -244t15 -126q16 -48 48 -52q33 -4 60 24q25 27 46 80q32 86 38 183q2 36 2 85v17v11v9v3v3l2 4q5 10 16 10q10 0 15 -9q2 -2 2 -4q1 -1 1 -3t1 -5v-12q1 -16 2 -49q2 -66 5 -184q0 -18 2.5 -66.5t3.5 -80t-1.5 -73.5t-10.5 -73q-19 -78 -73 -107
q-61 -32 -164 1q-8 2 -11 8.5t-1 14t8.5 10.5t13.5 1q90 -28 137 -3q40 21 55 84q5 21 8 45.5t3 55t-0.5 51t-2.5 58t-2 50.5q-7 -25 -16 -48q-22 -60 -53 -92q-40 -41 -90 -35q-55 7 -79 76q-17 52 -16 138q1 83 25 250q1 7 7 11.5t13.5 3.5t12 -7t3.5 -14zM136 519
q6 -5 6 -12t-5.5 -12.5t-12.5 -5.5t-12.5 5.5t-5.5 12.5t5.5 12.5t12.5 5.5t12 -6zM206 517q6 -5 6 -12t-5.5 -12.5t-12.5 -5.5t-12.5 5.5t-5.5 12.5t5.5 12.5t12.5 5.5t12 -6z" />
    <glyph glyph-name="OE" unicode="&#x152;" horiz-adv-x="656" 
d="M336 18q-53 -42 -123 -32q-45 7 -79 29t-54.5 56t-31.5 72t-14 83q-7 80 8.5 166.5t40.5 146.5q30 69 53 104q48 70 103 67q3 0 6 -1q7 5 15 2q37 -11 67 -39q36 2 76 10t90 20t79 18q7 1 13 -3t7.5 -11.5t-2.5 -13.5t-12 -8q-14 -2 -95 -21.5t-125 -23.5q27 -35 46 -83
q34 -86 40 -193q22 3 67 13q54 12 82 16q8 1 14 -3.5t7 -12t-3.5 -13.5t-11.5 -7q-27 -4 -81 -15q-53 -11 -73 -14q0 -11 -1 -22q-5 -142 -59 -230q-5 -9 -11 -16q163 20 248 20q7 0 12.5 -5.5t5.5 -12.5t-5.5 -12.5t-12.5 -5.5q-23 0 -48.5 -1t-44 -2.5t-50 -5t-44.5 -4.5
l-50 -6q-37 -5 -46 -6h-3zM237 674q-35 2 -71 -52q-21 -31 -49 -97q-24 -56 -38 -139q-15 -81 -9 -157q14 -187 149 -207q84 -13 135 72q49 79 54 212q5 132 -37 236q-45 111 -121 135h-2q-5 -3 -11 -3z" />
    <glyph glyph-name="oe" unicode="&#x153;" horiz-adv-x="656" 
d="M158 454q-46 -28 -76 -97.5t-33 -147.5q-3 -84 26 -133q30 -52 90 -47q55 4 95 63q41 57 46 137q6 83 -31 145t-117 80zM338 191q33 11 73.5 36.5t71.5 57.5q84 87 35 148q-16 19 -57 22q-47 3 -80 -24t-51 -76q-1 -3 -4 -6q21 -57 16 -122q-1 -18 -4 -36zM286 65
q-49 -66 -119 -72q-81 -7 -123 64q-35 58 -31 153q3 90 41 170q37 82 98 111q12 6 21 -4q88 -22 133 -96q23 48 63 75.5t94 24.5q57 -4 83 -36q25 -31 25 -68t-16.5 -67t-45.5 -60q-38 -39 -89 -69.5t-89 -39.5h-3q-9 -29 -22 -54q35 -44 78 -62t84.5 -10t77 39t56.5 83
q3 7 10 9.5t14 0t9.5 -9.5t0.5 -14q-25 -59 -67 -97q-42 -37 -94 -46q-50 -9 -99 10q-50 19 -90 65z" />
    <glyph glyph-name="quoteleft" unicode="&#x2018;" horiz-adv-x="159" 
d="M131 722q-33 -33 -51 -63t-20 -66q0 -7 -6 -12t-13 -5t-12 6t-5 13q2 45 23.5 80.5t57.5 72.5q6 5 13 5t12.5 -5.5t5.5 -12.5t-5 -13z" />
    <glyph glyph-name="quoteright" unicode="&#x2019;" horiz-adv-x="164" 
d="M142 734q7 -88 -90 -171q-6 -5 -13.5 -4t-12.5 6.5t-4 13t6 12.5q84 71 78 141q-1 7 4 12.5t12.5 6.5t13 -4t6.5 -13z" />
    <glyph glyph-name="quotedblleft" unicode="&#x201c;" horiz-adv-x="217" 
d="M190 697q-30 -30 -44.5 -60t-18.5 -71q-1 -7 -6.5 -12t-13 -4t-12.5 6.5t-4 13.5q4 47 21.5 83t51.5 70q6 5 13 5t12.5 -5.5t5.5 -12.5t-5 -13zM117 709q-30 -30 -44.5 -60t-18.5 -71q-1 -7 -6.5 -12t-13 -4t-12.5 6.5t-4 13.5q4 47 21.5 83t51.5 70q6 5 13 5t12.5 -5.5
t5.5 -12.5t-5 -13z" />
    <glyph glyph-name="quotedblright" unicode="&#x201d;" horiz-adv-x="205" 
d="M102 575q26 34 36.5 65.5t8.5 72.5q0 8 5 13.5t12.5 5.5t13 -5t5.5 -12q2 -48 -10.5 -85.5t-42.5 -76.5q-4 -6 -11.5 -7t-13.5 3.5t-7 12t4 13.5zM26 590q27 33 39 63q12 31 12 72q0 7 5.5 12.5t12.5 5.5t12.5 -5.5t5.5 -12.5q0 -48 -14 -84.5t-45 -74.5q-5 -5 -12.5 -6
t-13 4t-6.5 12.5t4 13.5z" />
    <glyph glyph-name="perthousand" unicode="&#x2030;" horiz-adv-x="639" 
d="M107 72q217 382 481 632q5 5 12.5 5t12.5 -5.5t5 -13t-6 -12.5q-259 -247 -473 -624q-4 -6 -11 -8t-13.5 1.5t-8.5 10.5t1 14zM203 569q6 -5 6 -12t-5.5 -12.5t-12.5 -5.5t-12.5 5.5t-5.5 12.5t5.5 12.5t12.5 5.5t12 -6zM440 148q6 -5 6 -12t-5.5 -12.5t-12.5 -5.5
t-12.5 5.5t-5.5 12.5t5.5 12.5t12.5 5.5t12 -6zM551 142q6 -5 6 -12t-5.5 -12.5t-12.5 -5.5t-12.5 5.5t-5.5 12.5t5.5 12.5t12.5 5.5t12 -6z" />
    <glyph glyph-name="Euro" unicode="&#x20ac;" horiz-adv-x="586" 
d="M460 570q-3 41 -20 69t-40.5 37.5t-52 -1.5t-57.5 -46q-43 -54 -62 -157q-8 -41 -12 -82q44 4 89 2q7 0 12 -5.5t5 -13t-5.5 -12.5t-13.5 -5q-46 2 -90 -2q-4 -54 -1 -104q42 4 82 4q7 0 12.5 -5.5t5.5 -12.5t-5.5 -12.5t-12.5 -5.5q-39 0 -79 -4l2 -16q10 -73 37 -120
q27 -46 62 -58q34 -12 75 12.5t81 95.5q34 58 57 134q2 7 8.5 10.5t13.5 1.5t10.5 -8.5t1.5 -13.5q-24 -80 -59 -142q-45 -78 -97.5 -110t-103.5 -14q-47 17 -79 72.5t-43 135.5q-1 8 -2 17q-38 -5 -88 -14q-7 -1 -13 3.5t-7.5 11.5t3 13t11.5 8q51 9 91 14q-3 49 0 103
q-44 -6 -90 -17q-7 -2 -13.5 1.5t-8 11t2 14t11.5 7.5q50 14 101 20q5 45 13 91q21 113 70 173q35 43 74.5 58.5t76.5 0.5q35 -14 57 -51t26 -87q1 -7 -4 -12.5t-12.5 -6.5t-13 4t-6.5 13z" />
    <glyph glyph-name="trademark" unicode="&#x2122;" horiz-adv-x="671" 
d="M546 612q-47 -78 -66 -119q-1 -3 -6 -17t-9 -23q-7 -15 -13 -25q-9 -15 -18 -20q-9 -6 -19 0q-3 1 -5 4q-2 2 -4 6q-3 5 -8 15q-10 17 -25 51l-21 45q6 -78 6 -205q0 -7 -5.5 -12.5t-12.5 -5.5t-12.5 5.5t-5.5 12.5q0 201 -18 312v2q-6 12 4 20q4 5 10 6q7 1 13.5 -3.5
t7.5 -11.5v-3l66 -147l21 -43q3 5 5 11l10 24q6 14 7 16q19 43 76 138v2q2 5 3 7q3 7 7 10q5 5 12 6q8 0 14 -5q5 -4 9 -11l5 -12q4 -13 10 -35q10 -34 24 -99q39 -172 40 -177q2 -7 -1.5 -13.5t-10.5 -8.5t-13.5 1.5t-8.5 10.5q-2 6 -41 179q-16 70 -24 98zM45 593
q33 7 101 35q68 29 108 37q7 1 13 -3t7.5 -11.5t-2.5 -13.5t-12 -8q-33 -6 -85 -28q2 -44 10 -93.5t20 -110.5t18 -95q1 -8 -3.5 -14t-12 -7t-13.5 3.5t-7 11.5q-1 9 -22 120.5t-25 170.5q-52 -22 -87 -30q-7 -1 -13.5 3t-8 11t2.5 13.5t11 8.5z" />
    <glyph glyph-name="uni3000" unicode="&#x3000;" horiz-adv-x="1000" 
 />
    <glyph glyph-name="uniF8FF" unicode="&#xf8ff;" horiz-adv-x="782" 
d="M129 152q22 22 32 45q13 32 -2 57q-27 42 -113 12q-6 -2 -13 -5q9 -2 13 -10q16 -39 51 -114q15 8 32 15zM42 -73h1q4 0 9 -1h28h39q89 2 148 24q81 30 81 93q0 46 -32 69q-30 22 -80 23q-44 1 -87 -14l-5 -4q-14 -13 -28 -22l31 -67q2 -7 -0.5 -14t-9.5 -10q-2 0 -4 -1
t-3 -1q-45 -15 -81 -40q-21 -15 -23 -23l2 -4q4 -4 14 -8zM627 357q6 -2 9 -7q19 -28 39 -25q19 3 34 29q18 26 16 66q-2 41 -28 70q-15 17 -26 14q-23 -8 -35 -57q-10 -38 -9 -90zM681 153q5 -3 9 1q-1 -1 -1.5 -0.5t-3 0t-4.5 -0.5zM56 668q22 -31 44 -69.5t46 -85.5
t38 -71l19 -36v38q0 29 0.5 40t1 36.5t1.5 40.5t3 37t4.5 41t6.5 39q2 7 8 11t13.5 2.5t11.5 -7.5t3 -14q-6 -27 -9.5 -54.5t-5 -59.5t-2 -52.5t-0.5 -60.5v-57v-2v-4v-2v-11q-2 -16 -11 -26q-6 -5 -14 -6q-7 0 -13 5q-5 3 -8 10q-1 2 -3 7l-1 2q-8 13 -21 37t-16 28
q-15 26 -38.5 72.5t-44.5 83t-43 66.5q-4 6 -3 13.5t7 12t13.5 3.5t12.5 -7zM-106 221q23 20 62 43t78 36q114 40 155 -28q25 -40 5 -89l-8 -16q26 5 50 4q44 0 77 -16q-20 17 -29 42t-7.5 47.5t9.5 42.5q16 37 44 41q26 4 45 -23q7 1 13 -2l5 -4q0 -1 0.5 -1.5t1.5 -2.5
q1 -1 6 -10t12 -21l13 -21q12 -18 21 -26l4 -4q1 2 2 5q3 9 3 24q0 26 -7 50l-3 6l-3 10q-3 6 -3.5 8.5t-0.5 5.5q0 4 2 9q5 10 17 9q5 0 10 -3q1 -1 2 -2.5t3 -2.5q1 -3 12 -23q11 -19 20 -32q12 -18 21 -25q3 -3 5 -3q4 3 8 12q4 11 5 30q0 15 -1 36q-1 28 -1 30
q0 8 -2 19q-7 18 -11 35v2v3q0 6 4 11q5 6 13 7q6 0 10 -3q3 -2 5 -5l2 -2q1 -2 2 -6q3 -6 5 -15q3 -9 5 -18q6 -17 16 -36q-2 61 10 106q17 70 60 83q33 11 64 -24q23 -26 31 -60t3.5 -63.5t-19.5 -54.5q-24 -41 -60 -47q-26 -4 -50 15l4 -29l19 -31q34 -56 43 -76
q0 -1 3 -6q3 -7 4 -10q4 -8 4 -14q0 -10 -8 -16q-7 -6 -17 -4q-39 9 -64 76q-11 30 -18 68l-20 33q0 -3 -1 -6q-1 -24 -7 -40q-8 -24 -26 -33q-20 -11 -43 8q-6 5 -11 11q-1 -17 -5 -29q-8 -23 -27 -29q-11 -4 -23 2q-8 4 -16 12q-6 6 -13 16q-3 -32 -16 -50
q-13 -17 -32 -19q-11 -1 -22 3q46 -35 46 -98q0 -88 -104 -127q-65 -24 -161 -26h-39h-29q-7 1 -11 1q-7 1 -11 2q-45 20 -38 53q4 23 37 45q31 22 78 40l-21 46l-4 -2q0 -1 -9 -7q-4 -3 -6 -5q-3 -1 -5 -2q-5 -1 -9 0q-10 3 -13 13q-1 4 -0.5 7t1.5 5l1 2q0 1 1 3
q10 13 25 25q-39 82 -55 121q-3 8 1 16q-58 -27 -95 -60q-6 -4 -13.5 -3.5t-12 6t-4 13t5.5 12.5zM353 272q-5 10 -9.5 15t-6.5 6h-2q-8 -2 -16 -20q-10 -21 -5.5 -49t25.5 -43q11 -8 17 -7q3 0 6 4q10 14 11 44v21v13v4q-1 1 -1 2q-13 -2 -19 10zM338 441q6 -5 6 -12
t-5.5 -12.5t-12.5 -5.5t-12.5 5.5t-5.5 12.5t5.5 12.5t12.5 5.5t12 -6zM451 213l2 -2z" />
    <glyph glyph-name="NULL" horiz-adv-x="0" 
 />
    </font>
</defs>
</svg>
