<?xml version="1.0" standalone="no"?>
<!DOCTYPE svg PUBLIC "-//W3C//DTD SVG 1.1//EN" "http://www.w3.org/Graphics/SVG/1.1/DTD/svg11.dtd" >
<svg xmlns="http://www.w3.org/2000/svg" xmlns:xlink="http://www.w3.org/1999/xlink" version="1.1">
<metadata>
Created by FontForge 20170731 at Wed Dec  9 00:31:58 2015
 By Aleksey,,,
Copyright (c) 2015 by iTypeface.com . All rights reserved.
</metadata>
<defs>
<font id="Beacon" horiz-adv-x="338" >
  <font-face 
    font-family="Beacon"
    font-weight="400"
    font-stretch="normal"
    units-per-em="1000"
    panose-1="0 0 0 0 0 0 0 0 0 0"
    ascent="800"
    descent="-200"
    x-height="254.5"
    cap-height="675"
    bbox="-111.5 -427.269 833 903"
    underline-thickness="50"
    underline-position="-150"
    unicode-range="U+0020-20AC"
  />
<missing-glyph horiz-adv-x="224" 
 />
    <glyph glyph-name=".notdef" horiz-adv-x="224" 
 />
    <glyph glyph-name=".null" horiz-adv-x="0" 
 />
    <glyph glyph-name="nonmarkingreturn" horiz-adv-x="333" 
 />
    <glyph glyph-name="space" unicode=" " horiz-adv-x="224" 
 />
    <glyph glyph-name="exclam" unicode="!" horiz-adv-x="212" 
d="M165 645q7 -49 4 -97t-4 -96q-2 -31 -3 -61.5t-6 -60.5q-5 -38 -5.5 -76.5t-15.5 -75.5q-19 -46 -14.5 -60t15.5 -38q-8 -12 -17.5 -17.5t-21.5 -0.5q-11 5 -20.5 11.5t-10.5 23.5q-1 37 -4.5 74t-1.5 67.5t2 48.5t-1 91q-9 54 -6.5 92t4.5 76q1 29 -0.5 58.5t-2.5 58.5
q-5 111 9.5 95.5t53.5 -40.5q21 -18 31.5 -30.5t14.5 -42.5zM98 25q-13 -3 -13.5 -5.5t-12.5 -4.5q-18 -4 -25.5 -18.5t-0.5 -31.5q15 -38 54 -32h29q16 1 27 15.5t1 38.5q-15 26 -23.5 34.5t-35.5 3.5z" />
    <glyph glyph-name="quotedbl" unicode="&#x22;" horiz-adv-x="189" 
d="M252 647q-23 -26 -47.5 -51.5t-47.5 -51.5q-11 -13 -19.5 -28t-18.5 -29q-4 -6 -9 -10.5t-10 -9.5q-8 1 -11 3q-11 7 -15.5 25t3.5 28l123 151q5 6 12.5 12.5t12.5 4.5q10 -4 17.5 -11t14.5 -15q2 -2 0 -8t-5 -10zM123 653q-8 -16 -18 -31t-21 -29q-9 -11 -19.5 -21
t-18.5 -21q-8 -12 -13.5 -25.5t-13.5 -28.5q-17 10 -18 23t1 26q6 33 15.5 64t29.5 58q11 14 19 29t18 31q5 -2 12 -5t12 -8q18 -14 22 -28t-7 -34z" />
    <glyph glyph-name="numbersign" unicode="#" horiz-adv-x="465" 
d="M420 249q16 0 25 -8.5t14 -25.5l-43 8q-10 2 -19.5 2t-18.5 2q-19 4 -33 -1t-26 -22q-32 -43 -59.5 -88.5t-55.5 -90.5l-10 -14q-10 5 -19.5 9t-18.5 10q-18 11 -20 21t11 27l84 109q8 10 15 21t17 26q-21 0 -37.5 2.5t-30.5 -2.5q-11 -4 -20 -15t-16 -22
q-14 -19 -26 -38.5t-23 -39.5q-11 -18 -20 -37t-19 -37q-2 -4 -4 -7.5t-5 -9.5q-13 8 -23.5 14t-20.5 13q-15 11 -17.5 21.5t8.5 26.5q13 19 27.5 37t28.5 37q7 10 14.5 19t15.5 18q3 5 5.5 10t4.5 10q-6 5 -13 5.5t-13.5 -0.5t-12.5 0t-10 8t-6 15t-6 19q20 -1 36 -1t31 -2
q23 -2 31 3.5t13 28.5q-26 4 -41 7t-22.5 8t-11 12.5t-6.5 20.5q9 8 19.5 7t20.5 -2q14 -2 28.5 -3t28.5 -3q17 -3 27 13q17 31 34 61.5t34 61.5q5 9 9.5 17.5t17.5 6.5q15 -2 28 -7t21 -18q3 -4 1 -12t-5 -13q-13 -22 -26.5 -43t-26.5 -43q-5 -7 -8.5 -15t-9.5 -19
q20 0 37 -1t33 0q4 0 8 4.5t6 8.5q14 20 26 39t26 39q9 13 19.5 24.5t19.5 25.5q6 9 13.5 10.5t17.5 -1.5q6 -2 11 -4q8 -5 16.5 -8.5t12.5 -10.5q5 -10 -3.5 -15t-13.5 -12q-17 -25 -34.5 -49t-36.5 -50q15 -10 31.5 -15t27.5 -23q-17 -3 -31 -7t-28 -3q-17 1 -27 0.5
t-16.5 -5t-11.5 -14t-13 -27.5zM205 267q27 -7 44 -10t28 1t17.5 15t11.5 32q-13 2 -26 4.5t-26 3.5q-15 0 -26 -11q-7 -7 -11.5 -15.5t-11.5 -19.5z" />
    <glyph glyph-name="dollar" unicode="$" horiz-adv-x="289" 
d="M220 64q11 -14 18.5 -30.5t15.5 -32.5q7 -14 2 -25t-17 -17t-25 -9.5t-26 -7.5q-6 -2 -12 -1.5t-11 -1.5q-17 -7 -25.5 -19t-3.5 -32l2 -18q-16 2 -25.5 8.5t-15.5 15.5t-9 20t-7 22l-16 -4q-12 -2 -23.5 -3t-22.5 14q-11 16 -17 30.5t2 31.5q4 10 12.5 13t17.5 5l52 14
t52 15q6 2 12 4.5t14 5.5q-12 23 -26.5 41.5t-32.5 35.5q-26 26 -49.5 54t-34.5 63q-13 42 -5 64.5t40 36.5q28 13 40.5 32t12.5 49q0 7 1.5 13.5t3.5 13.5q13 -1 21 -2t13.5 -3t11 -5.5t14.5 -10.5l-10 -18t-8 -19q-5 -12 -6.5 -19.5t1 -14t8.5 -13t17 -15.5q8 -7 15.5 -13
t15.5 -14l10 -12t8 -14q2 -5 1.5 -11t-2.5 -11q-3 -6 -9 -5.5t-12 4.5q-14 8 -24.5 4t-19.5 -10q-11 -7 -20.5 -15t-19.5 -16q-16 -13 -16 -23t16 -27q26 -29 51.5 -58t49.5 -60z" />
    <glyph glyph-name="percent" unicode="%" horiz-adv-x="453" 
d="M440 345q-7 -17 -20 -28t-25 -22l-135 -124q-31 -27 -60 -55.5t-64 -51.5q-39 -25 -57 -71q-6 -14 -20 -21t-29 -15q-7 8 -13.5 15t-11.5 15q-13 21 8 29q12 5 19 12t12 18q17 33 42 57.5t57 44.5q28 17 53 38.5t50 43.5q34 31 65.5 63.5t65.5 64.5q24 22 35 19.5
t28 -32.5zM67 221q-16 19 -21.5 40.5t-2 41.5t14 38t27.5 31q8 6 16 11.5t17 10.5q16 9 31.5 9.5t31.5 -13.5q8 -7 18.5 -11.5t19.5 -9.5q2 -8 3 -15t4 -12q32 -59 -22 -98q-16 -11 -31.5 -21t-32.5 -19q-23 -13 -39.5 -8t-33.5 25zM397 36q6 -50 -34 -79q-11 -8 -24 -14
t-27 -11q-6 -2 -14 -1t-15 4q-23 9 -39.5 34.5t-15.5 50.5q0 21 7 38.5t19 31t27 23.5t30 17q5 3 12 1.5t13 -3.5q16 -6 32 -17q8 -6 11 -13q5 -15 10.5 -30.5t7.5 -31.5zM337 65q-30 -10 -43.5 -33t-24.5 -47q-2 -4 0.5 -12t7.5 -10q8 -5 19.5 -3t22.5 8t19 15t10 18
q2 17 0.5 33t-11.5 31zM90 245q24 -1 41 9t34 18q23 10 20 39q-2 16 -11.5 22t-23.5 -2l-12 -6t-11 -7q-16 -14 -27 -31t-10 -42z" />
    <glyph glyph-name="ampersand" unicode="&#x26;" horiz-adv-x="430" 
d="M404 173q18 -3 32 -14t29 -26q-6 -1 -10.5 -2t-9.5 -1q-27 2 -50 -3t-42 -19q-11 -8 -23.5 -15t-22.5 -18q-7 -8 -12 -16.5t-6 -19.5q-3 -37 -5.5 -73.5t-4.5 -73.5q0 -5 3.5 -12t5.5 -13q-47 14 -54 54q-4 23 -4 45.5t-2 45.5v25q-22 3 -35 -6t-27 -15q-8 -4 -16.5 -8
t-16.5 -9q-29 -13 -61 14q-38 32 -59 70t-9 84q11 42 32 77t54 62q13 11 25 23.5t25 23.5l-42 54q-18 22 -19.5 41.5t8.5 36.5q14 26 33.5 47.5t47.5 35.5q11 5 14.5 13t1.5 22q-5 33 -1.5 64.5t13.5 60.5q2 5 5 10.5t6 10.5q17 -3 31.5 -8t25.5 -22q-40 -48 -41 -124l50 14
q20 5 43 -8t33 -35q5 -13 2.5 -20t-15.5 -5q-20 3 -36.5 0.5t-30.5 -8.5t-27 -14l-26 -16q-21 -13 -39 -27t-32 -33q-5 -6 -7 -13t-6 -17q30 0 52 -1t42 2t42 11.5t52 26.5q20 -14 36 -32.5t30 -38.5q11 -16 -1 -27q-6 -5 -12.5 -9.5t-13.5 -8.5q-30 -17 -61.5 -31.5
t-59.5 -33.5q-30 -21 -57 -45.5t-49 -54.5q-9 -13 -14 -30t-23 -24q0 -11 0.5 -23t1.5 -28q17 5 30 9t26 9q51 20 104 35.5t109 28.5q12 2 24 5.5t14 19.5z" />
    <glyph glyph-name="quotesingle" unicode="'" horiz-adv-x="86" 
d="M123 653q-8 -16 -18 -31t-21 -29q-9 -11 -19.5 -21t-18.5 -21q-8 -12 -13.5 -25.5t-13.5 -28.5q-17 10 -18 23t1 26q6 33 15.5 64t29.5 58q11 14 19 29t18 31q5 -2 12 -5t12 -8q18 -14 22 -28t-7 -34z" />
    <glyph glyph-name="parenleft" unicode="(" horiz-adv-x="269" 
d="M116 382q2 -15 0 -28.5t-10 -24.5q1 -7 1.5 -13.5t2.5 -12.5q1 -3 4.5 -5t5.5 -4q8 -19 12 -38.5t-1 -39.5q-2 -9 2 -16q12 -22 11 -41t-12 -38q14 0 17 -16q3 -10 -2 -10.5t-9 -3.5q-5 -5 -3.5 -14t9.5 -16l28 -25q-8 -1 -11.5 -1.5t-7.5 -0.5q3 -15 8.5 -27t16.5 -20
q-2 -9 -0.5 -15.5t5 -12t8 -10t8.5 -9.5q2 2 3 1l63 -55q-22 -54 -69 -36q-29 10 -53.5 27.5t-40.5 51.5q1 1 1.5 2t2.5 2q-2 0 -2.5 -0.5t-2.5 -0.5q-14 22 -26 45t-17 50h-1v13t-2 12q-10 18 -8.5 34.5t10.5 31.5q-18 18 -21 45.5t8 52.5q-4 7 -7.5 12.5t-5.5 11.5
q-2 7 -3 14.5t-1 14.5q2 34 2.5 67.5t4.5 66.5q1 12 2 18.5t4.5 10t10 6t17.5 5.5q-5 4 -9.5 6.5t-6.5 6.5q-3 12 0 24q12 33 23 65.5t25 63.5q12 29 26 57t30 54q9 16 20.5 29.5t23.5 26.5q16 17 34.5 16.5t37.5 -15.5q-17 -31 -34.5 -61t-33.5 -62q-17 -31 -28 -71
q-6 -21 -10.5 -43.5t-10.5 -44.5l-13 -47q-4 -11 -7.5 -22.5t-5.5 -23.5q-2 -8 -4 -13t-9 -7zM97 10l-8 11q-4 -14 8 -11zM109 450q-2 2 -2.5 3.5t-1.5 3.5q-3 -3 -7 -9zM105 75l-3 6q-1 0 -2 -1t-2 -1q1 -2 1 -3.5t2 -2.5zM70 415q2 -2 3.5 -5t3.5 -5l-3 12q-2 0 -4 -2z
M188 -58q0 -4 1 -6l9 4zM88 518q4 -2 5 -2l3 3q-4 2 -5 2zM47 307q-4 2 -5 2l-1 -2l4 -5q0 1 2 5zM109 31v3h-5v-3h5zM91 354v-3q4 -2 7 -2zM140 -10l2 -2q-1 0 2 3q-1 0 -1.5 1t-1.5 0t-1 -2zM107 256l2 -1l-1 3zM84 314l-2 -1l2 -1v2zM73 197l-1 1v-2zM121 293q0 1 -1 1z
" />
    <glyph glyph-name="parenright" unicode=")" horiz-adv-x="341" 
d="M290 349q0 -2 -0.5 -3.5t0.5 -3.5q11 -17 7.5 -33.5t-5.5 -35.5q-5 -48 -15 -87t-24 -81q-6 -14 -12 -29.5t-14 -29.5q-5 -9 -12.5 -16.5t-14.5 -15.5l-76 -82q-14 -16 -28 -31.5t-29 -29.5q-28 -24 -67 9q2 6 4 11t5 10q5 10 14 16q22 16 38 37t28 46t21 53t16 57
q29 116 27 242q0 5 1 10l2 10q1 4 2.5 7.5t-0.5 5.5q-6 9 -6.5 17.5t1 16.5l3 16t0.5 17l-1 -1l9 43l-7.5 3t-6.5 3q5 35 5.5 71.5t-9.5 74.5q-5 19 -15 35t-22 30t-25.5 28t-25.5 31q8 2 14.5 5t11.5 1q16 -6 32 -12.5t30 -17.5q21 -18 40 -39.5t38 -43.5q7 -8 10.5 -20.5
t8.5 -23.5l4 -8t4 -7q39 -55 -8 -78q-5 -2 -9 -5t-10 -7q8 -8 14.5 -14t12.5 -9q9 -4 13.5 -10t8.5 -17q3 -10 5 -15.5t1.5 -9t-4 -7.5t-10.5 -10q13 -3 28 -4q-6 -7 -10.5 -12t-10.5 -11q7 -6 12 -10t10 -9q4 -5 6 -11t6 -12z" />
    <glyph glyph-name="asterisk" unicode="*" horiz-adv-x="252" 
d="M275 464q1 -1 1 -2t1 -3q-23 -10 -45.5 -18.5t-43.5 -22.5q4 -9 10.5 -15t13.5 -11.5t12 -12.5t6 -17q-11 0 -19 4.5t-16 10.5t-16 11.5t-18 7.5q-12 -20 -21 -41t-9 -45q-12 -4 -20.5 0.5t-15.5 12.5q-2 2 -2.5 4t-2.5 4q-8 12 -12.5 18.5t-9.5 9t-13 1.5t-21 -3
q-16 -2 -22.5 2t-11.5 23q11 5 21.5 9.5t21.5 7.5q25 6 25 30q0 2 0.5 5t0.5 7q-7 4 -13.5 7t-13.5 8q-7 4 -14.5 8t-11.5 10q-4 5 -2.5 13t1.5 18l57 -34q9 16 8.5 31.5t3.5 30.5q22 8 41.5 7.5t36.5 -15.5t22.5 -33t-4.5 -44q17 7 29.5 12t24.5 11q23 11 41 -7z" />
    <glyph glyph-name="plus" unicode="+" horiz-adv-x="339" 
d="M69 145q-28 -3 -38.5 5t-13.5 37q0 4 1 8q54 -18 117 -13q5 35 11.5 68t-0.5 67q22 -3 35.5 -10t20.5 -22t8.5 -39.5t-0.5 -63.5h21.5h14.5t14.5 0.5t21.5 1.5q16 0 25.5 -8t17.5 -24q-21 4 -35.5 4.5t-27 -1t-26.5 -3.5t-34 -2q-4 -12 -6.5 -16t-4 -6t-1.5 -5.5v-16.5
q2 -49 -20 -88q-23 8 -34 26t-9 42l3 39v25l-61 -5v0z" />
    <glyph glyph-name="comma" unicode="," horiz-adv-x="161" 
d="M123 69q11 -11 12.5 -35.5t-9.5 -69.5q-9 -27 -18.5 -44t-19 -28.5t-20 -18.5t-21.5 -15q-7 -5 -15.5 -8t-17.5 -5q-6 -1 -14 5q-6 7 -6 18.5t6 19.5q5 6 11.5 10.5t13.5 9.5q8 5 16 11t10 17q-20 18 -26 40t-2.5 43.5t14.5 39t26 26.5q22 14 35 10.5t25 -26.5z" />
    <glyph glyph-name="hyphen" unicode="-" horiz-adv-x="316" 
d="M225 188q20 -1 29.5 -11t16.5 -24q4 -7 4.5 -15t2.5 -19q-52 -1 -99 4t-95 -2q-23 -3 -36.5 0.5t-20.5 26.5l-2 12q-5 28 -0.5 33.5t33.5 -1.5q44 -10 83 -7t84 3z" />
    <glyph glyph-name="period" unicode="." horiz-adv-x="173" 
d="M68 87q20 -6 40 -13t31 -31q4 -10 4.5 -18.5t-7.5 -16.5q-3 -3 -4.5 -6.5t-3.5 -7.5q-5 -5 -8.5 -10.5t-8.5 -8.5q-19 -12 -32.5 -13.5t-23.5 4.5t-17 18t-12 29q-2 6 0 14t4 15q3 8 8 16t7 16q3 8 8.5 10.5t14.5 2.5z" />
    <glyph glyph-name="slash" unicode="/" horiz-adv-x="373" 
d="M349 490q17 23 33.5 27t43.5 -10l-141 -214q-22 -33 -45 -64.5t-42 -65.5q-24 -45 -53 -85t-57 -82q-3 -5 -4.5 -10t-3.5 -10l-21 -46q-6 -14 -12.5 -27l-14.5 -29q-17 -8 -29 2t-26 21q2 5 3.5 10t3.5 9q15 28 29 56t32 54q20 29 37.5 60t35 61.5t36.5 60t43 55.5
q43 48 75 100.5t64 106.5l6 10t7 10z" />
    <glyph glyph-name="zero" unicode="0" horiz-adv-x="278" 
d="M247 338q2 -8 1.5 -13.5t0.5 -12.5q-1 -16 -1.5 -35t-2.5 -38q-2 -23 -1.5 -45t-2.5 -45q0 -10 1 -15q-2 -34 -2.5 -46.5t-5.5 -32.5q-3 -16 -6 -31.5t-7 -32.5q-5 -23 -21.5 -36.5t-39.5 -14.5q-45 -1 -77.5 20t-53.5 60q-14 26 -21.5 54t-7.5 59q2 13 3 25.5t5 24.5
q6 18 9.5 36t7.5 36.5t9.5 36.5t14.5 35q10 16 19.5 31.5t20.5 31.5q14 4 18 7t8 3q13 0 37.5 1.5t51.5 -11.5q8 -3 15.5 -8.5t11.5 -13.5q3 -5 7 -9.5t9 -20.5zM203 222q3 14 8.5 49.5t6.5 48.5q-2 13 -12.5 35t-41.5 1q-14 -17 -22 -34.5t-22 -86.5q-4 -16 -4 -22t-12 -42
q-17 -42 -12 -80.5t18 -96.5q5 -9 11 -17t20 -10q10 3 14 8t8 11q21 12 25.5 96.5t14.5 139.5z" />
    <glyph glyph-name="one" unicode="1" horiz-adv-x="159" 
d="M113 404q14 0 19 -5.5t6 -23.5q1 -20 0.5 -40t-2.5 -40q-2 -30 -4.5 -60t-5.5 -60q-4 -35 -9 -70.5t-7 -71.5q-1 -16 3 -32l8 -32q4 -15 -0.5 -20.5t-19.5 -3.5q-1 0 -1.5 0.5t-1.5 0.5q-28 6 -42 12t-20 16t-6 25.5v39.5q0 37 6.5 74t11.5 74l13 109l-6 3q2 6 -2 5
t-17.5 -17t-16 -16.5t-7.5 -10.5q-2 20 -10.5 16.5t-16.5 4.5q-5 5 0 6.5t15 5.5q7 8 13 10.5t15.5 11t18.5 18t20 25.5q4 3 5 10t3 6q3 19 10.5 25t27.5 5z" />
    <glyph glyph-name="two" unicode="2" horiz-adv-x="240" 
d="M236 358q13 -10 13 -21.5t-9 -25.5q-10 -16 -18.5 -32.5t-17.5 -33.5l-30 -58t-29 -59q-9 -20 -15.5 -40.5t-13.5 -40.5q-5 -11 -10 -28l-13 -46q16 -5 32.5 -3t32.5 4t32 0.5t32 -12.5q-10 -5 -16 -9t-12 -5l-58 -8t-58 -6q-18 -2 -34.5 5.5t-30.5 19.5q-18 15 -11 37
q6 21 10.5 42t9.5 42q2 6 3 12t3 11q14 33 27 66.5t29 65.5q15 31 33 60.5t35 59.5q3 6 6.5 11.5t-1.5 12.5q-6 8 -13 6.5t-15 -4.5q-39 -17 -58 -54q-11 -20 -20 -20.5t-29 16.5q42 54 102 76q15 5 31 5t30 -10q13 -8 26 -16.5t25 -19.5z" />
    <glyph glyph-name="three" unicode="3" horiz-adv-x="224" 
d="M187 284q-12 -17 -24.5 -33.5t-25.5 -33.5l-26 -33q11 -5 18.5 -8t15.5 -5q19 -5 34 -15t29 -24q11 -10 10 -17t-11 -18q-9 -10 -16.5 -21t-14.5 -22q-15 -28 -33 -52t-42 -44q-4 -3 -7 -6t-5 -7q-8 -17 -19.5 -19t-25.5 2q-26 6 -48 18q-27 12 -4 35q2 2 3 2
q28 11 46.5 34t39.5 43q36 32 48 81q-12 4 -23.5 6.5t-22.5 7.5q-24 8 -46 20q-10 7 -18.5 15.5t-18.5 16.5q5 7 8 12.5t8 9.5l93 93l12 12t8 11t5 14.5t5 21.5q-14 -2 -27.5 -3t-25.5 -6q-17 -7 -31 -2t-28 13q6 11 15 12t17 2q19 3 37.5 4.5t37.5 2.5q24 2 45.5 -3.5
t37.5 -27.5q11 -14 10.5 -22t-11.5 -22q-8 -11 -14.5 -22.5t-14.5 -22.5zM142 302q-1 -1 -1 -2t2 -1l1 2q-2 0 -2 1z" />
    <glyph glyph-name="four" unicode="4" horiz-adv-x="323" 
d="M277 390q19 -6 19 -28l-3 -78q-1 -23 -2 -45.5t-3 -45.5q-1 -8 -1.5 -16t-2.5 -16l-4 -27l-2 -34t1 -34q4 -45 1 -88t-8 -86q-12 -11 -24 -13t-23.5 1t-22.5 9.5t-22 12.5q-5 3 -9.5 11.5t-5.5 15.5q-2 20 -1 40l2 40q0 20 -4 24t-25 2q-17 -2 -33 -2.5t-32 1.5
q-34 5 -51 25t-20 53q-3 31 3.5 58.5t14.5 55.5q11 39 22 78.5t22 80.5q4 14 18 18t27.5 -0.5t24.5 -11.5q5 -4 8 -11.5t4 -14.5q0 -20 -1 -40t-3 -40q-5 -30 -9.5 -59t-11.5 -58q-3 -15 -9.5 -28.5t-13.5 -27.5q-5 -11 -11 -21t-12 -22q24 -11 44.5 -7t40.5 12q5 2 7 9.5
t3 13.5l30 217q2 16 5.5 31t6.5 30q3 26 28 23q18 -1 38 -8z" />
    <glyph glyph-name="five" unicode="5" horiz-adv-x="276" 
d="M239 397q10 1 18 -2t14 -14q-8 -8 -18 -11.5t-22 -4.5q-33 -2 -65.5 -4.5t-67.5 -4.5q-1 -57 -10 -114.5t-11 -120.5q15 7 25 12t19 8q17 5 34 9.5t34 7.5q19 3 33.5 -3.5t23 -18.5t11.5 -27t1 -27q-2 -11 -6 -19l-14 -34t-15 -34q-8 -20 -18.5 -35.5t-33.5 -21.5
q-8 -2 -13 -9.5t-13 -11.5l-38 -18t-39 -15q-15 -5 -28.5 3t-25.5 17q-1 12 6 15.5t14 7.5q17 8 34.5 16.5t34.5 18.5q16 10 26.5 23t14.5 33l15 81q1 4 0.5 9t-0.5 13q-46 -17 -77 -41q-8 -6 -16.5 -9t-18.5 3q-11 6 -22.5 13t-11.5 24q-1 5 -1 10.5v10.5q4 45 7.5 89.5
t6.5 89.5l6 65q2 18 10 24.5t26 1.5q29 -8 57.5 -8.5t57.5 0.5q14 0 28 1z" />
    <glyph glyph-name="six" unicode="6" horiz-adv-x="276" 
d="M132 220q32 0 61.5 -6t50.5 -34t21.5 -61.5t-6.5 -65.5q-3 -15 -8 -34.5t-13 -37.5t-19.5 -32t-27.5 -17q-29 -7 -59.5 -7t-58.5 14q-32 16 -48.5 43.5t-21.5 59.5t-2 66t9 64q9 42 22.5 80.5t29.5 77.5q5 13 11.5 31.5t15.5 36.5t20 32.5t25 19.5t34.5 -1t29.5 -18
q5 -6 4.5 -13t-3.5 -14t-8 -13.5t-8 -12.5q-23 -40 -34.5 -76t-16.5 -82zM171 -42q18 6 28.5 22t15.5 36.5t6 41.5t1 37q0 15 -4 34t-12 34.5t-21.5 25t-34.5 5.5q-18 -4 -28.5 -21t-15.5 -38t-7 -42.5t-5 -35.5q3 -15 6.5 -35.5t11 -37.5t21.5 -25.5t38 -0.5z" />
    <glyph glyph-name="seven" unicode="7" horiz-adv-x="233" 
d="M263 392q10 -6 11 -13.5t-9 -11.5q-23 -7 -32 -24.5t-17 -34.5q-17 -35 -31 -70.5t-28 -70.5q-10 -24 -19.5 -48t-18.5 -49q-28 -80 -16 -165q1 -1 -1 -8q-18 -5 -35 -3.5t-34 8.5q-21 8 -29 23.5t0 34.5q7 19 12 37.5t7 38.5q1 10 7.5 18t10.5 17l20 64
q17 57 40.5 109.5t47.5 106.5l3 19q-26 1 -50 2t-48 0q-29 -2 -51 19q4 2 6.5 4t5.5 2q29 1 58 2.5t58 -4.5q26 -5 53 4q19 6 39 5t40 -12z" />
    <glyph glyph-name="eight" unicode="8" horiz-adv-x="306" 
d="M271 392q21 -10 23 -22.5t-3 -28.5q-11 -34 -28 -65.5t-31 -63.5q-3 -6 -8 -14t-5 -16q-1 -10 6 -19.5t14 -18.5q11 -17 21 -32t11 -34v-39t-9 -36q-9 -14 -25 -26t-31 -21q-11 -6 -26 -15t-31.5 -13.5t-31.5 -0.5t-24 22q-29 2 -46.5 12.5t-27 26.5t-13.5 35.5t-6 39.5
t10.5 40.5t24.5 34.5q11 13 22.5 25.5t25.5 23.5q8 6 12.5 9t1.5 13q-2 8 -14 19t-16 20q-19 35 -19 70t16 65q9 17 19 21t32 5t44 -0.5t45 -4.5q14 -2 33.5 -4t33.5 -8zM199 33q1 9 0.5 22t-4.5 26t-11.5 24.5t-19.5 17.5q-14 -16 -30 -30.5t-21 -34.5q-2 -11 -1 -21.5
t1 -21.5q1 -14 0.5 -29t7.5 -29q10 7 22.5 15t24.5 17.5t20.5 20t10.5 23.5zM144 245q38 21 53 55.5t22 72.5q-12 1 -26 3.5t-26.5 2.5t-22.5 -4.5t-14 -16.5q-9 -26 -4.5 -56.5t18.5 -56.5z" />
    <glyph glyph-name="nine" unicode="9" horiz-adv-x="272" 
d="M262 289q2 -15 5 -30.5t1 -29.5q-5 -30 -10.5 -60t-13.5 -59q-10 -32 -22 -63.5t-26 -63.5q-9 -23 -20 -44l-22 -42q-8 -14 -23 -18t-29 1q-17 7 -27 13q-13 8 -13.5 14.5t7.5 20.5q17 31 34.5 61t23.5 66q2 12 3.5 25t3.5 29h-33q-42 2 -71 31t-30 71q-1 47 13 89t33 83
q5 9 18 13q11 2 21 3t20 3q61 10 104.5 -21t52.5 -92zM157 197q4 19 7 37t8 38q-5 18 -8.5 37t-8.5 38q-8 24 -33 27q-21 3 -38.5 -8t-25.5 -31q-2 -6 -3 -12t-3 -12q-2 -16 -5 -32t-3 -33t1.5 -34t6.5 -33q3 -11 12 -21t20 -16q11 -7 22.5 -7t21 5t16 14.5t8.5 22.5
q1 9 5 20z" />
    <glyph glyph-name="colon" unicode=":" horiz-adv-x="234" 
d="M207 337q-4 -8 -5 -16.5t6 -18.5q3 -4 3 -11.5t-3 -12.5q-8 -11 -17.5 -22t-20.5 -19q-34 -25 -66 2q-17 15 -21.5 32.5t6.5 37.5q13 23 24 36.5t23.5 17t29 -2.5t41.5 -23zM171 126q-2 -13 -4.5 -25t-5.5 -25l-27 -15q-15 -8 -31 -7.5t-30 11.5q-13 10 -16.5 20.5
t1.5 26.5q2 7 4.5 13t4.5 12q29 8 53.5 1.5t50.5 -12.5z" />
    <glyph glyph-name="semicolon" unicode=";" horiz-adv-x="247" 
d="M147 116q-16 9 -34.5 13.5t-36.5 9.5q-4 1 -10 -2.5t-8 -7.5q-5 -15 -8.5 -27t-2.5 -23t8 -21.5t24 -22.5l10 -5q-7 -18 -13 -32.5t-9 -28.5q-3 -9 7.5 -21.5t19.5 -13.5q8 -1 17 6.5t10 17.5q1 11 6.5 18t11.5 15l15.5 15.5t12.5 16.5q17 29 14.5 52t-34.5 41zM217 309
q-2 -6 -2.5 -10t-2.5 -7l-24 -32t-25 -32q-10 -11 -22 -17t-28 2t-26.5 22t-8.5 30q4 29 18.5 52t34.5 43q3 3 5 3q17 -6 33 -11t31 -13q7 -4 10 -13.5t7 -16.5zM97 71l-1 2h2z" />
    <glyph glyph-name="less" unicode="&#x3c;" horiz-adv-x="287" 
d="M263 262q-21 -17 -42 -34.5t-44 -33.5q-22 -15 -45 -27.5t-46 -26.5q1 -2 1 -7l125 -45l10 -29q-11 2 -19.5 2t-14.5 4q-16 10 -33.5 12t-34.5 7q-36 9 -72 21q-38 13 -48 49q13 23 31 39.5t42 27.5q29 15 56.5 32.5t56.5 34.5q25 15 43 9t34 -35z" />
    <glyph glyph-name="equal" unicode="=" horiz-adv-x="321" 
d="M44 240l181 -17q45 -4 62 -48q-11 0 -20 -1t-18 1q-26 6 -52.5 5.5t-52.5 -3.5q-17 -2 -34 -0.5t-34 3.5q-30 6 -36 17t4 43zM55 96q12 -2 24 0q53 4 105.5 6t106.5 -2q2 0 5 1.5l5 2.5q-5 17 -15.5 23.5t-25.5 6.5q-54 2 -106 2.5t-106 1.5q-6 0 -12 -1.5t-13 -3.5
q3 -24 8.5 -30t23.5 -7z" />
    <glyph glyph-name="greater" unicode="&#x3e;" horiz-adv-x="287" 
d="M218 183q15 -12 25.5 -28t15.5 -36q-17 -6 -32.5 -10.5t-30.5 -11.5q-30 -14 -59.5 -30t-58.5 -33q-15 -8 -22.5 -10t-16.5 6q-9 9 -10 23t7 24q14 17 29.5 30t35.5 21q16 7 30.5 14.5t28.5 14.5q5 2 8.5 4t8.5 4q-2 3 -4 9q-8 5 -15.5 9.5t-15.5 6.5q-23 5 -43 16.5
t-39 26.5q-14 11 -19 26t-7 31q-2 12 7 16t21 -1l84 -33q13 -5 17.5 -8t15.5 -19h-51l20 -16q17 -11 35 -22t35 -24zM181 196l-1 3l-1 -2z" />
    <glyph glyph-name="question" unicode="?" horiz-adv-x="282" 
d="M281 515q-1 -7 -3.5 -13.5t-5.5 -14.5q-5 -14 -4.5 -20.5t7.5 -16.5l-27 -73q-2 -9 -6 -13q-19 -24 -34 -51l-30 -54q-5 -8 -12 -15q-28 -31 -25 -73q3 -56 -33 -89q-31 6 -45 23.5t-19 49.5q-5 31 -1.5 60t6.5 58q2 17 8.5 33.5t13.5 33.5q5 11 10.5 21.5t11.5 21.5
q-1 0 -1 1h1v-1q8 -16 14.5 -17.5t16.5 12.5q7 9 12 19t10 21q11 21 23 41t13 47q0 5 3 9t5 9q5 9 4.5 13t-5.5 18l-27 -41q-2 15 3.5 27t10.5 24q19 56 1 107q-14 37 -45 19q-26 -14 -50.5 -29t-44.5 -39q-4 -5 -7 -11l-6 -12q-9 -20 -12 -41t-4 -43q0 -17 4.5 -31.5
t21.5 -21.5q2 -1 3 -2.5t3 -3.5q1 0 2 -4q-2 -2 -3.5 -4.5t-3.5 -2.5q-12 -3 -23.5 1t-20.5 12t-14.5 20t-5.5 26q3 115 81 190q24 23 50.5 32t52 6t49 -16t43.5 -33q6 -5 10 -12t-2 -18l13 -11q-3 -2 -6 -5.5t-10 -10.5q7 -2 12.5 -4t8.5 -5q4 -4 7 -9.5t3 -10.5v-41
t-2 -42zM135 -1q3 -3 6.5 -10.5t5.5 -16t2.5 -16.5t-1.5 -12q-4 -9 -9 -16.5t-15 -5.5q-17 2 -33 4.5t-31 7.5q-9 3 -15.5 13t-10.5 23t-4.5 27t2.5 25q19 3 35.5 6.5t33.5 6.5zM134 458q8 -8 6.5 -13t-5.5 -10l-42 -50l16 40t25 33zM245 610q6 -13 8.5 -14t12.5 6
q-5 2 -10.5 4t-10.5 4zM151 493l-6 -16q-2 1 -2.5 2t-1.5 2l6 15zM209 555l3 4.5t1 3.5t-1.5 3t-2.5 3q-4 -4 -4 -6t1 -3.5zM270 518l-3 3q-3 -3 -4 -7l1 -1q2 -2 3 -2zM250 533q1 1 1 2t1 2q-3 3 -4 2q-2 0 -3 -3zM243 660l11 -5l-8 9zM259 562q1 1 1 2t-2 1
q0 -1 -0.5 -1.5t-0.5 -1.5h2z" />
    <glyph glyph-name="at" unicode="@" horiz-adv-x="509" 
d="M280 364q123 -6 173.5 -47.5t42.5 -126.5q-4 -42 -16 -72.5t-27 -54t-31 -42t-28 -35.5q-10 -12 -23.5 -17t-27.5 -3.5t-26 10t-19 22.5q-5 11 -9.5 23.5t-9.5 28.5l-16.5 -27.5t-13.5 -26.5q-15 -30 -31.5 -35t-41.5 -3q-20 2 -37 10t-28 27q-2 2 -3.5 15t-2.5 30.5
t-0.5 37t3.5 35.5q11 47 25 76.5t27 55.5l10 20t11 19q9 16 30 15q17 -2 33 -1t33 -1q11 -2 21.5 -5t21.5 -7q3 -2 5.5 -6l7.5 -12q-13 -2 -22.5 -4t-18.5 -1q-14 2 -22 -3.5t-15 -15.5q-14 -22 -23.5 -45t-17.5 -48t-13 -49t-7 -50q-1 -6 -0.5 -12.5t0.5 -17.5q6 7 10.5 10
t6.5 8q13 23 25.5 45.5t26.5 45.5q12 18 24.5 35.5t25.5 34.5q11 16 29 13l15 -2q32 -2 38 -11t-4 -40q-9 -27 -13.5 -55t-6.5 -57q0 -3 0.5 -6.5t0.5 -8.5q16 15 29.5 36.5t24 46t17.5 49.5t9 47t-6.5 46t-29 43.5t-52.5 31.5t-77 10t-76.5 -11.5t-55.5 -31.5t-43 -57.5
t-38 -87.5t-15 -96t20.5 -76t40.5 -49.5t45 -16.5t39 6t32 11t24 11.5t15 8.5t6 -6.5t-9 -22t-35 -24t-72 -11.5t-79 22t-51 56.5t-27 76t-8 80.5t21 82t58 79t88.5 58.5t112.5 19.5z" />
    <glyph glyph-name="A" unicode="A" horiz-adv-x="422" 
d="M376 17q1 3 9.5 5t13.5 1q15 -2 18 -17q2 -8 -0.5 -18.5t-6.5 -21t-35.5 -26.5t-70.5 50q-16 43 -30.5 86t-16.5 90l-8 200q-1 11 -2.5 21.5t-3.5 21.5h-5q-7 -21 -13.5 -42t-11.5 -42q-8 -37 -15 -73.5t-13 -74.5q-5 -26 -7.5 -53t-7.5 -53q-2 -19 -5 -37.5t-8 -36.5
q-5 -20 -15.5 -27t-30.5 -5q-14 1 -27 2t-26 6q-17 7 -26.5 21.5t-15.5 30.5q-11 27 -13.5 55t-2.5 57q0 35 1 69t3 69q2 38 5.5 76t8.5 76q3 29 6.5 57t9.5 56q5 20 12.5 38t14.5 37q8 21 24 28t34 5q32 -5 62.5 -11.5t109.5 -81.5q4 -5 13 -16q2 -2 3.5 -7.5t-0.5 -7.5
q-2 -3 -7 -5t-8 -1q-12 3 -39 38.5t-51 47.5q-32 10 -50 -3t-20 -46t-2 -66t-5 -65q-11 -37 -9 -77.5t-11 -78.5q-4 -12 -3 -25l2 -26q1 -26 3 -52.5t7 -53.5q2 3 3.5 6.5t2.5 6.5q11 35 21 69.5t21 68.5l34 96l34 96q5 12 7.5 24.5t7.5 23.5q2 7 6.5 13.5t10.5 8.5
q31 14 61 -1q4 -2 7 -8t4 -11q5 -35 4 -69t-3 -69q-6 -85 -2.5 -168.5t30.5 -166.5q4 -12 5.5 -21t7.5 7z" />
    <glyph glyph-name="B" unicode="B" horiz-adv-x="388" 
d="M322 662q44 9 57 -37q5 -20 4.5 -40t-5.5 -40q-8 -29 -16.5 -58t-4.5 -17q-13 -54 -16.5 -64.5t-32.5 -41.5l-59 -68q-24 -34 -27.5 -37.5t-14.5 -17.5l33 -5q6 -2 12.5 -3.5t13.5 -3.5q45 -17 58 -28t22 -25.5t13 -31t2 -32.5q0 -5 -3 -8l-75 -89q-5 -5 -10 -10.5
t-70 -43.5q-30 -22 -38 -30.5t-15 -16.5q-15 -22 -36 -25t-41 14q-16 11 -6 31q17 34 85 84.5t93 79.5l18 24q15 23 7 43.5t-34 27.5q-12 4 -42 6.5t-41 7.5q-8 3 -15.5 8.5t-17.5 12.5q33 39 69 81t52 84q15 38 29.5 76.5t28.5 77.5q8 24 8.5 37.5t-7.5 23.5
q-12 5 -23 -4.5t-21 -20.5q-21 -26 -40 -52t-33 -57q-7 -16 -12.5 -32t-10.5 -33q-11 -41 -25 -81t-16 -84l-10 -146q-2 -26 -2 -50.5v-50.5q1 -59 -30 -22l-12 10q-11 16 -15.5 22t-8.5 20q-12 25 -9 57t4 64q2 55 1.5 109.5t-0.5 109.5q1 61 -7.5 120.5t-23.5 119.5
q-2 7 -3 14t-3 14q28 1 100.5 -5t15.5 -91q-1 -8 -5.5 -26.5t-3.5 -32.5v0v-26q6 -2 9 -2q3 6 7 12.5t6 13.5q24 33 65.5 81.5t94.5 89.5q7 5 16 8t17 5z" />
    <glyph glyph-name="C" unicode="C" 
d="M338 641q11 -5 21.5 -20t3.5 -37q-13 -42 -25.5 -83.5t-12.5 -34.5q-2 -3 -4 -11q-15 -36 -39 -58t-50 -2q-10 23 1 43t22.5 49t34.5 65t24 65q-12 29 -51.5 28l-39.5 -1q-20 -3 -30 -15.5t-14.5 -37t-8 -48t-9.5 -53.5q-10 -53 -13 -63.5t-6 -25.5l-2 -6t-1 -6l-13 -164
q0 -6 -3 -11t-2 -17q-10 -33 -10 -48.5t2 -31.5q1 -29 1 -65q1 -8 2 -17t5 -17q8 -14 21.5 -30.5t40.5 -9.5q6 -1 18 22t15.5 33.5t-3 36t-2.5 35.5q-10 63 37.5 95t53 30.5t0.5 -19t-12.5 -42.5t-9.5 -43t-6 -36l-9 -38q-2 -11 -5.5 -22t-4.5 -22q-2 -19 -10 -35t-21 -26.5
t-24 -13t-39 -2.5q-19 5 -38 13.5t-35 18.5q-13 8 -24.5 19t-19.5 24q-12 20 -23 40.5t-13 44.5q-2 17 -4 35t-3 36q-1 42 -1.5 82.5t1.5 82.5q0 21 3 41.5t5 41.5q1 5 2 10.5t1 10.5q1 66 37 128q6 18 13 29.5t14 27.5q11 23 28.5 36t48.5 16q36 6 67.5 2.5l67.5 -7.5
q14 -6 22.5 -9.5t27.5 -12.5zM39 231l-3 3l-1 -1q-1 0 -1 -1l2 -4z" />
    <glyph glyph-name="D" unicode="D" horiz-adv-x="424" 
d="M393 596q17 -5 26.5 -20t11.5 -34q3 -38 0.5 -75t-9.5 -74q-2 -11 -3 -22.5t-5 -21.5q-8 -61 -14.5 -91.5t-16.5 -71.5q-8 -35 -21.5 -66.5t-30.5 -59.5q-5 -14 -37.5 -39t-40.5 -30q-3 -4 -9 -12.5t-14 -15.5q-5 -4 -9.5 -7t-8.5 -8q-22 -26 -51.5 -26t-52.5 25
q7 20 22 32t31 23q11 8 20 18t67 53q16 23 34.5 49.5t30.5 56.5q5 14 7 28t5 28q13 61 22.5 122t15.5 124q2 16 3 32.5t-6 39.5q-5 5 -8 10.5t-6 6.5q-6 1 -13 0t-11 -5q-50 -29 -61 -57.5t-34 -81.5q-13 -45 -36 -113t-36 -112q-14 -41 -21 -82.5t-15 -83.5
q-3 -13 -4 -25.5t-4 -24.5q-2 -8 -1 -22.5t-34 6t-34 49.5q-13 39 -12.5 85.5t1.5 94.5q1 41 3 81t3 81q1 38 2 75t-3 75q-3 27 -12.5 53t-19.5 52q-8 26 -2 32t26 4q71 -8 86.5 -13t30.5 -19q4 -8 10 -17.5t2 -25.5q-38 -138 -25 -176q5 -11 7.5 -18t11.5 0l19 28
q19 57 29.5 77.5t23.5 47.5q28 38 38.5 43.5t32.5 18.5q17 4 45 6t54 -7z" />
    <glyph glyph-name="E" unicode="E" 
d="M320 649q16 -5 29 -15t21 -25q5 -10 8 -21.5t1 -20.5q-11 -37 -19 -60t-31 -55q-11 -17 -32 -33.5t-38 -14.5t-22.5 13.5t1.5 26.5q13 27 25.5 54t31.5 52q13 24 14 35.5t-7 25.5t-22.5 18.5t-29.5 8.5q-17 3 -24 -1t-15 -18q-33 -44 -69 -169q-1 -47 38 -92t43.5 -51.5
t8.5 -14.5q11 -18 3 -30t-27 -14q-11 -2 -48.5 -49.5t-41 -74.5t-1 -66t16.5 -60t28 -6t36.5 40t45.5 50q7 8 13.5 16t14.5 15q12 10 26 14t11 -18.5t-18.5 -44.5t-32.5 -44l-34 -40t-36 -38q-17 -15 -37 -22t-43 -1q-7 2 -13.5 2t-13.5 2q-17 3 -31.5 10t-26 19t-17.5 30
t-6 43q1 22 1 43.5t2 42.5q3 26 11 51t28 48q80 71 109 75q22 4 -8 34.5t-54 101.5t-9.5 129.5t61 93t73.5 32.5t48.5 -8.5t32.5 -10.5t25 -8zM167 322q1 1 1 2l-2 2q0 -1 -0.5 -2t-0.5 -2h2z" />
    <glyph glyph-name="F" unicode="F" horiz-adv-x="275" 
d="M334 637q29 0 33.5 -18t-4 -27t-19.5 -8q-42 3 -84 0.5t-84 -21.5l-4 -28q0 -31 -0.5 -61.5t-0.5 -61.5l-4 -35q-1 -11 -0.5 -21t0.5 -22q16 2 30 4t28 3q13 1 26.5 0.5t16.5 -10t-2.5 -12.5t-15.5 -6q-13 -5 -31 -10.5t-35 -12.5q-12 -5 -17 -19l-1 -20
q-4 -36 -8.5 -71.5t-7.5 -71.5q1 -21 5 -54.5t2.5 -49t-3.5 -30.5l-58.5 -27t-80.5 -13q4 31 4 65t8.5 74t13 62t7.5 44q5 32 10 61.5t7 60.5q-2 43 1 85.5t2 86.5q-1 29 -1 58.5t-2 37.5q-14 3 -27.5 5.5t-26.5 5.5q-14 4 -24 28.5t-10 38.5q0 7 6 10.5t14 1.5l82 -11
q27 -7 54 -8t55 1q31 -4 69.5 -4h76.5z" />
    <glyph glyph-name="G" unicode="G" horiz-adv-x="354" 
d="M327 574q28 0 28 -20q-1 -17 -0.5 -33t-1.5 -33q-4 -39 -7.5 -77.5t-8.5 -77.5q-3 -26 -5 -47t-4.5 -43.5t-5.5 -48t-8 -59.5q-7 -48 -25 -94.5t-49 -81t-77 -52t-110 -6.5q-25 5 -31 9.5t-9 52t-0.5 56.5t21.5 -6.5t43.5 -33t35.5 -11t19 9t29.5 29.5t36 47.5t22.5 48
t12 59.5t7 46q1 23 3.5 46t3.5 46q-9 15 -15 3.5t-9 -22.5q-7 -28 -14.5 -47.5t-23.5 -39.5q-16 -28 -31 -46.5t-40 -27.5q-18 -7 -39.5 1t-33.5 24q-33 44 -37.5 93t-0.5 100q2 17 5 32.5t6 32.5l20 111q1 5 2.5 10t2.5 10q3 14 9.5 30.5t16 32t21 29.5t24.5 23
q20 13 41.5 18t39.5 5.5t31.5 -1.5t18.5 -2q16 0 28.5 -8.5t23.5 -14t26 -23t7 -38.5l-8 -8t-55 1q-1 0 -1 -0.5t-1 -0.5q13 0 35.5 -1t31.5 -2zM246 516q2 15 6 29.5t8 31.5q-2 0 47 -3q-7 32 -45.5 48t-60 16t-58 -25.5t-53.5 -70.5q-8 -34 -15.5 -68.5t-12.5 -69.5
q-2 -33 -3.5 -53.5t6 -46.5t17.5 -34t32 -14q49 -1 74.5 57t41.5 118q10 30 11 46.5t5 38.5z" />
    <glyph glyph-name="H" unicode="H" horiz-adv-x="361" 
d="M337 617q2 -23 0 -36.5t-1 -36.5v-64t-1 -64q0 -23 -3 -45l-10 -101q-1 -5 -0.5 -9t0.5 -9q-4 -51 -7.5 -101.5t-5.5 -101.5q-2 -20 -1 -40.5t2 -61.5l-2 -38q-28 3 -51 12t-35.5 21.5t-16 26t-6.5 32.5q-2 25 1 59.5t5 69.5q0 8 2.5 15t2.5 14q0 16 1.5 31.5t3 31.5
t0.5 32t-6 32l-90 -10q-1 -6 -1 -12v-11q0 -4 1 -7.5t0 -7.5l-8 -68t-9 -68q-5 -29 -3.5 -70t3.5 -70q4 -44 -35 -22t-49 25t-14 8t-4 15.5t3 28.5q11 68 14 135.5t7 136.5q4 54 0.5 108t-1.5 108q2 35 -2 74.5t-4 74.5q0 14 4.5 18.5t18.5 6.5q46 -17 61 -25t21 -33
q5 -21 1 -41t-5 -40t-1 -27.5v-27.5l3 -132q2 -22 22 -19l77 11q2 8 3 15t1 14l6 151q2 29 5 58t-3 67q2 25 24 26q21 0 62 -24q20 -12 20 -35zM224 237q0 2 -1 2h-1v-2h2z" />
    <glyph glyph-name="I" unicode="I" horiz-adv-x="229" 
d="M304 639q-8 -6 -12 -7q-14 -1 -27 0t-26 -1q-17 -2 -21.5 -7.5t-6.5 -22.5l-34 -238q-2 -18 -4.5 -36.5t-1.5 -37.5q2 -35 -3.5 -69.5t-6.5 -69.5q-1 -15 0 -30t1 -30q-1 0 -1 -0.5t-1 -0.5q1 0 1.5 0.5t1.5 0.5q0 -14 0.5 -26.5t1 -34.5t-81.5 -59q-23 23 -16 81
q1 16 1.5 28.5t2.5 23.5q4 46 7.5 91.5t8.5 90.5q8 75 16 149t16 149q1 8 0 14.5t0 17.5q-13 -1 -26.5 -2.5t-52 -7.5t-31 15t22 26.5t33 7.5t37.5 4l140 11q16 2 45.5 6t24.5 -19q1 -2 -8 -17zM120 -29q-7 0 -18.5 -1.5t-24 -3.5t-24.5 -4t-19 -3q-6 -2 -13.5 -3t-12.5 -3
t-7 -4.5t1 -6.5q5 -7 12 -13.5t21 1.5q63 10 90 12q67 10 79 10h24q9 1 11 8.5t8 27.5q-11 -2 -28 -1.5t-99 -15.5z" />
    <glyph glyph-name="J" unicode="J" horiz-adv-x="275" 
d="M362 628l1 -2l-124 -19q5 -15 7 -23.5t3 -15t1 -14.5t2 -22q0 -17 0.5 -34t0.5 -34v-33t-1 -33l-10 -205l-5 -83q-3 -25 -6.5 -42.5t-12.5 -37.5q-2 -5 -8 -21q-7 -27 -25 -40.5t-44 -18.5q-23 -5 -45.5 -9.5t-44.5 -2.5t-33.5 10.5t-15.5 20t0.5 21t40 -15.5t56.5 30
q24 43 35 67t12 73.5t4 88.5q0 17 0.5 35t1 35.5t0.5 36t3 35.5q5 26 7 50t2 48t-0.5 48.5t-0.5 51.5q0 4 -1 8t-3 10q-11 -2 -20.5 -4t-19.5 -5q-15 -5 -51 6.5t12 30.5q6 3 42 13t62 9q40 4 52.5 5.5t34 5t43 4.5t48.5 -28z" />
    <glyph glyph-name="K" unicode="K" horiz-adv-x="372" 
d="M385 98q14 -9 15 -32.5t-1 -45.5q-1 -1 -2.5 -2t-2.5 0q-41 22 -81 44t-141 124q-29 33 -40 40.5t-19.5 12t-11.5 1.5v-10.5t1 -10.5q1 -38 10 -90t11 -90q0 -10 2 -19.5t5.5 -42t-3.5 -38.5t-29 -3q-14 2 -27 7.5t-39 17t-29 25.5t-3 29t1.5 55t2.5 53t1.5 27.5
t3.5 28.5t5.5 28t2.5 28l8 392q-3 31 2.5 30.5t24.5 0.5q77 -13 77 -22.5t-1 -41.5q-4 -56 -5 -111t-7 -109q-2 -19 -1.5 -38.5t0.5 -42.5q6 4 9.5 6t6.5 5q32 30 56 65t43 75q16 32 29.5 65t45.5 85q20 36 27 5q19 -20 18.5 -37t2.5 -25q-15 -35 -21 -52t-37.5 -60.5
t-57 -59.5t-57.5 -46q-8 -8 -26.5 -22t-29.5 -24l34 -21l101 -73q32 -20 63 -40.5t63 -40.5z" />
    <glyph glyph-name="L" unicode="L" horiz-adv-x="292" 
d="M99 2q6 0 25 5t44 11.5t51.5 13t49.5 17.5t26 -1t5 -33q-2 -7 -17 -7.5t-32 -4t-33.5 -6.5t-22.5 -5q-27 -8 -53.5 -16t-52.5 -19q-21 -8 -36 -15.5t-28 -10t-26.5 2t-18 24.5t-0.5 52t7.5 63t7.5 62t9 54q10 39 14.5 77.5t10.5 78.5q5 37 11 72.5t6 72.5v34t1 46
t4.5 45.5t10.5 30.5q10 14 14 16t21.5 8.5t41 1t53.5 -12.5q-29 -53 -34.5 -71t-12.5 -34.5t-10 -35t-3 -36.5q-1 -42 -5 -83.5t-10 -83.5q-1 -9 -2.5 -25.5t-4.5 -34.5t-8 -33.5t-5.5 -37t-3.5 -32.5q-4 -24 -6 -42t-3.5 -43.5t1 -45t14.5 -19.5z" />
    <glyph glyph-name="M" unicode="M" horiz-adv-x="499" 
d="M418 626q17 1 32 -15t20 -49.5t3 -68.5q-3 -37 -7.5 -73t-7.5 -73q-5 -54 -9 -107t-2 -106q0 -28 1 -49.5t11 -58.5q9 -18 10.5 -30.5t-1.5 -24.5q-9 -24 -22.5 -31t-71.5 22q-8 13 -7.5 24t2.5 33q5 42 6.5 84t2.5 84q2 77 10.5 152.5t17.5 150.5q2 10 1.5 20t-4.5 21
q-2 -4 -4 -6.5t-4 -7.5q-11 -29 -22.5 -58t-21.5 -59q-11 -34 -20 -67.5t-18 -67.5l-9 -28q-2 -4 -4.5 -7.5t-4.5 -3.5l-22 -2t-22 3q-10 4 -19.5 12.5t-15.5 18.5q-12 20 -21.5 41t-20.5 42q-15 32 -30 64.5t-31 64.5q-1 3 -9 11q-2 -21 -3.5 -39t-1.5 -36q0 -25 1.5 -50
t2.5 -50q0 -11 -2 -21.5t-2 -21.5q-1 -58 -3 -115.5t28 -129.5q18 -30 4 -62q-6 -14 -14 -20t-21 0q-48 13 -60.5 22t-25.5 19q-3 2 -5 7.5t-2 9.5l6 123q0 27 -1 53.5t-1 53.5q1 38 1.5 75.5t-3.5 75.5q-3 42 -2 83t1 83q0 17 0.5 33.5t-0.5 33.5q-6 32 14 43t45 3
q33 -11 36.5 -18t10 -29t16 -39.5t22.5 -43.5t24.5 -52.5t23 -53.5t25.5 -52q6 -12 10.5 -24.5t9.5 -25.5l15 -28l11 35q11 40 44 157q7 23 31 88q12 32 79 58z" />
    <glyph glyph-name="N" unicode="N" horiz-adv-x="390" 
d="M295 620q32 2 45.5 -9.5t15.5 -45.5q1 -16 0.5 -31.5t-1.5 -30.5l-13 -259q-2 -31 -4 -61.5t-2 -61.5q-1 -24 1 -48t4 -49q1 -11 13 -60t-16 -26t-76 28q-4 14 -7 22t-3 13.5t-5.5 20t-15.5 40t-18.5 48.5t-15.5 51t-12 56q-5 25 -10 42.5t-11.5 32.5t-13.5 32t-15 42
q-8 24 -15.5 48.5t-18.5 50.5q-2 -3 -3.5 -6t-1.5 -6q0 -21 0.5 -42t0.5 -42q-1 -19 -1.5 -37t-2.5 -36q-1 -14 -2.5 -27.5t-1.5 -27.5q0 -22 1 -43t2 -43q2 -50 3.5 -99t4.5 -99q1 -16 2 -30q-28 10 -51 14t-40 21h-1q-2 38 -6.5 76.5t-3.5 76.5q2 82 5.5 163.5t6.5 163.5
q0 16 0.5 31.5t-1.5 30.5q-5 31 -3 60t1 59q-1 27 5 34t32 5q43 -2 61 -44q8 -18 13.5 -36t11.5 -37l88 -280q5 -14 7.5 -28t6.5 -28q3 -11 6 -20.5t7 -20.5h8l4 47l4 72t3 73q2 51 2.5 100.5t2.5 100.5v18.5t1 18.5q3 21 23 22z" />
    <glyph glyph-name="O" unicode="O" horiz-adv-x="367" 
d="M328 474q13 -64 11 -202q-2 -21 -5 -42l-6 -42q-8 -50 -20.5 -97.5t-31.5 -93.5q-9 -23 -26 -28t-36 -16t-29.5 -14.5t-23.5 -1.5q-29 5 -53.5 14.5t-43 26t-31.5 41t-23.5 84.5t-9.5 73q2 32 5 63t10 63q7 28 18 116q5 42 18 81t48 132q17 50 30.5 40.5t23.5 -12.5
q6 -5 15 -9q17 -8 26 -16.5t13 -13.5t2 -15t-7 -27q-11 -36 -33 -72t-33 -72q-2 -8 -4.5 -16t-6.5 -38t-12.5 -115.5t-4.5 -202.5l2.5 -22.5t10 -49.5t27.5 -17.5t28 27.5q5 16 11.5 27t11.5 23q20 47 32 96t19 100q2 15 3 29.5t2 29.5q2 25 3.5 49t1.5 49q-1 26 -2 53.5
t-12 68.5q-7 20 -19.5 36.5t-19.5 33.5q53 -7 66 -17.5t31 -19t24 -84.5zM106 389h-1h1z" />
    <glyph glyph-name="P" unicode="P" horiz-adv-x="344" 
d="M356 601q4 -13 7.5 -26t4.5 -27q5 -49 -1 -94.5t-15 -91.5q-11 -50 -33.5 -90t-51.5 -78q-16 -22 -40 -27t-55 18q-4 3 -7.5 5t-7.5 4q-9 -8 -9.5 -19.5t-6.5 -38t-10.5 -62.5t-2.5 -65q5 -102 -4 -92t-20.5 13.5t-22 12.5t-28.5 18q-28 13 -35 24.5t-2 37.5q8 44 9 89
t3 90l3 96q0 33 2 65.5t2.5 65t-2 65.5t-10.5 66q-5 17 -10.5 33t-10.5 32q-4 14 -1 17.5t16 5.5q31 3 59 -1.5t72 -25.5q6 -105 8 -117t4 -23l7 -3q5 17 11 34t22 49t45 52q18 13 39.5 17t47.5 -5q9 -4 15.5 -9t8.5 -15zM293 537q5 20 11 52t-15 23q-29 -21 -35.5 -29
t-12.5 -19l-28 -50t-19 -55q-8 -48 -17.5 -95t-18.5 -95q-2 -11 -1.5 -21.5t0.5 -21.5q10 3 16.5 8t11.5 11q26 30 46 63t31 75q9 38 14 77.5t17 76.5z" />
    <glyph glyph-name="Q" unicode="Q" horiz-adv-x="367" 
d="M301 133q7 -3 19.5 5t20 6t14 -5.5t10.5 -10.5q2 -29 -4 -30q-60 -8 -65.5 -10.5t-7.5 -10.5q-5 -19 -11 -37.5t-11 -37.5q-8 -34 -35 -50.5t-68 -11.5q-50 7 -90.5 39t-55.5 79q-11 34 -15.5 68t0.5 68q5 35 5.5 69.5t4.5 68.5q8 69 24 133.5t47 126.5q8 17 15 32.5
t15 31.5q25 -1 50 -19.5t46 -27.5q12 -5 13.5 -9.5t-5.5 -13.5q-5 -8 -10 -15t-24 -31t-22.5 -42t-8.5 -36q-3 -13 -9 -23q-5 -10 -7 -35.5t-5.5 -55.5t-8 -83t-6.5 -67q2 -113 4 -123q1 -9 10 -35q44 -98 65 -73q8 26 16.5 50.5t17.5 49.5q-14 3 -24 0.5t-18.5 -8
t-16.5 -11.5t-19 -10q-3 44 30 65q8 5 18.5 9t21.5 6t15 7t6 13q4 26 8 50.5t6 50.5q4 48 9 112t-40 126q-17 21 -27.5 33t-15.5 28q26 4 38.5 0t25.5 -14q20 -20 50 -64.5t30 -67.5l-2 -64t-3 -64q-1 -20 -4 -39t-6 -39q-2 -14 -4.5 -26.5t-5.5 -26.5z" />
    <glyph glyph-name="R" unicode="R" horiz-adv-x="419" 
d="M408 631q19 -13 26 -28t3 -38q-16 -85 -61 -159q-8 -13 -14.5 -26.5t-14.5 -25.5q-16 -24 -32.5 -48t-33.5 -47q-9 -13 -18.5 -24.5t-17.5 -21.5q11 -32 21 -59.5t18 -55.5q8 -29 22.5 -51.5t34.5 -41.5q10 -9 16.5 -8.5t18.5 0.5t0.5 -16t-41.5 -23q-23 -5 -53.5 4.5
t-47.5 39.5q-11 21 -22 41.5t-17 44.5q-5 22 -13 43.5t-16 43.5q-1 2 -3 3.5t-7 6.5l-17 -93l-9 -67q6 -115 -11.5 -106.5t-26 11t-11.5 4.5q-17 6 -33 12.5t-31 14.5q-5 3 -9 10t-4 14q-5 29 9 56l25 121q1 38 3 75t0 75q-2 43 -7.5 86t-10.5 86l-4 16t-3 16
q-5 36 -19.5 67.5t-36.5 61.5q48 11 73 15.5t46 3.5q13 -6 23.5 -28.5t16 -36.5t7.5 -45.5t5 -84.5q0 -5 3.5 -11.5t7.5 -16.5q5 9 6.5 34.5t17 56.5t22.5 53.5t18 34t30 14.5q89 13 105 14q17 1 34 -2.5t33 -14.5zM352 560q3 11 6 20.5t-3 23.5q-7 23 -24.5 19.5
t-34.5 -3.5q-71 2 -80 -80t-20 -142q-6 -38 -12.5 -74.5t-13.5 -74.5l-2 -25q6 -2 7 -2q9 15 17.5 30.5t19.5 29.5q33 42 58 90t49 96q11 22 18.5 45.5t14.5 46.5zM279 289l-2 -1l2 -1v2z" />
    <glyph glyph-name="S" unicode="S" 
d="M293 607q23 -7 32.5 -18t7.5 -33q-1 -28 -9.5 -52t-16.5 -49q-6 -19 -15.5 -36t-20.5 -32.5t-21.5 -31.5t-19.5 -33q-14 4 -16 12.5t0 16.5q2 14 6.5 27.5t7.5 27.5q11 38 21 75.5t19 75.5q4 15 -0.5 21t-21.5 13q-11 4 -22 7.5t-23 6.5q-44 9 -60 -29q-11 -28 -20 -55.5
t-14 -57.5q-7 -43 -9 -58t12 -60q7 -23 27 -40t41.5 -33t62 -66.5t54.5 -93.5t-12 -88q-2 -4 -3 -8t-3 -8q-7 -13 -15.5 -24.5t-23.5 -16.5h1q-13 -3 -24.5 -8t-23.5 -9t-25.5 -6t-28.5 1t-30 4.5t-30 5.5t-30.5 6.5t-27 17t-12.5 22.5l-4 48t-3 47t13.5 39.5t32.5 17.5
l35 -112q2 -8 4 -17.5t12 -10.5q11 0 23 3t18 10q10 11 16 25.5t12 28.5q3 8 3.5 17t2.5 17q5 16 -1 29.5t-21.5 52.5t-27.5 50t-26 21q-19 14 -35 31.5t-27 37.5q-9 16 -15 32.5t-11 33.5q-10 42 20 100q32 82 44 108q5 11 11.5 20.5t14.5 16.5q6 5 16 5t18 -2
q32 -8 64 -16.5t64 -17.5zM30 410l-1 2l-1 -1z" />
    <glyph glyph-name="T" unicode="T" horiz-adv-x="212" 
d="M274 644q10 -17 14 -31q5 -13 -9 -13q-31 1 -60 -4.5t-59 -10.5q10 -45 10.5 -85.5t-4.5 -81.5q-4 -30 -8.5 -60t-7.5 -60l-8 -118q12 -162 12 -179.5t2 -35.5q6 -47 -2.5 -45.5t-22.5 7.5q-17 8 -34.5 18.5t-33.5 26.5q-4 4 -6 10.5t-2 12.5q-2 75 2 148t10 145
q5 64 9 128t1 130q0 5 -0.5 10t-1.5 10l-39 -7q-12 2 -42 -5q-2 -2 -3.5 -2t-5.5 4q-15 -5 -31 -0.5t-24 31.5q-5 19 13 24q30 9 64 14t60 11l32 5q34 6 71 9.5t75 7.5q12 2 17 -0.5t12 -13.5z" />
    <glyph glyph-name="U" unicode="U" horiz-adv-x="350" 
d="M284 603q10 14 23 22.5t-1.5 -71t-15 -152.5t4.5 -148q2 -27 2 -54t1 -54q0 -17 -0.5 -32.5t-0.5 -32.5q-3 -58 -46 -97q-12 -11 -34 -17.5t-46.5 -8.5t-48 0t-37.5 9q-26 13 -36 35l-37 89q-6 20 -10 42t-2 43q7 104 7 206.5t-1 206.5q0 6 -0.5 12t-1.5 12
q30 25 43 25.5t27 -1.5q7 -1 14.5 -5.5t18 -25t10.5 -32.5q2 -34 0.5 -67t-2.5 -66q0 -11 0.5 -22.5t0.5 -22.5q1 -26 1.5 -51.5t-0.5 -51.5q-1 -18 -5 -36t-6 -36q-2 -22 -2.5 -44t2.5 -43q1 -11 26 -112q4 -6 31.5 -9t37.5 1.5t20 23t13.5 41t4.5 45.5q3 55 4.5 109
t3.5 109q2 50 6 98.5t15 97.5q5 50 16 65z" />
    <glyph glyph-name="V" unicode="V" horiz-adv-x="223" 
d="M357 707q39 -47 35 -49q-22 -14 -39 -31.5t-31.5 -37.5t-27.5 -40.5t-28 -40.5q-24 -32 -36 -70t-22 -76q-14 -53 -26.5 -104.5t-23.5 -105.5q-6 -28 -8.5 -56t-6.5 -56q-4 -32 -8 -63.5t-9 -63.5q-83 20 -93 27q-8 20 -15 38t4.5 81.5t10.5 101.5q-2 27 0 54
q2 62 -9 121t-25 119q-11 48 -24.5 95t-27.5 95q-1 2 0 4.5t1 4.5q20 9 39.5 8t35.5 -9.5t28 -22.5t18 -31q11 -30 19 -61t16 -63q7 -29 11.5 -57t10.5 -57q3 -14 14 -25q3 6 5.5 12.5t4.5 13.5q23 77 65 144.5t89 132.5q13 17 53 68z" />
    <glyph glyph-name="W" unicode="W" horiz-adv-x="522" 
d="M621 628q-34 -36 -52 -83q-11 -30 -25.5 -59t-27.5 -58q-23 -54 -34.5 -110t-21.5 -113q-8 -47 -11.5 -93.5t-8.5 -94.5q-2 -15 -5.5 -30.5t-7.5 -30.5q-1 -5 -3.5 -9.5t-6.5 -4.5q-12 -3 -44.5 7t-41.5 15.5t-19 15.5q-13 12 -16.5 25t-3.5 30q2 49 0 75q-5 45 -8.5 88
t-8.5 88q-2 17 -4.5 35t-5.5 39q-10 -9 -15.5 -18t-8.5 -18.5t-4.5 -19t-4.5 -18.5q-13 -43 -24 -85.5t-22 -85.5q-10 -38 -18.5 -77t-17.5 -78l-4 -17q-4 -25 -29 -22q-8 1 -33.5 23.5t-37.5 38t-12 34.5q6 55 5 87q-1 54 -2 107.5t-3 107.5q-2 76 -11 149.5t-38 145.5
q-4 8 -6.5 15.5t-4.5 15.5q-5 15 -1.5 21.5t19.5 8.5q24 2 42.5 -6t29.5 -34q20 -48 36 -97t24 -100q8 -56 14 -111.5t2 -112.5q-1 -3 0 -6.5t1 -8.5q11 2 14 9t5 13q20 62 44 121.5t53 117.5q5 8 16.5 24.5t26 42.5t39.5 63l46 -424h6q4 10 5 15q11 63 30.5 123t44.5 120
l34 78t32 80q13 37 41 60q29 23 73 13z" />
    <glyph glyph-name="X" unicode="X" horiz-adv-x="430" 
d="M450 603l-7 -11q-10 -16 -21 -31l-22 -30q-19 -28 -38 -55.5t-39 -55.5q-9 -14 -18.5 -27.5t-17.5 -27.5q-8 -13 -13.5 -26t1.5 -50q13 -44 29.5 -72t35 -59.5t50.5 -75.5t41.5 -58t15.5 -29q6 -16 -4.5 -32t-35.5 1t-110 38q-3 8 -7 14.5t-8 14.5l3 -1l-2 1
q-28 41 -42 62t-34 66q-2 6 -5 11.5t-5 10.5q-5 11 -12 10.5t-15 -6.5l-3 -3q-9 -14 -18.5 -27t-17.5 -27q-8 -13 -51 -102t-49 -107q-18 6 -32 13.5t-22 24.5q52 69 54 77q40 90 60 116q32 56 43 75q4 6 7 12l6 12q15 23 4 52q-10 29 -20.5 58t-18.5 58q-12 41 -22 81
t-21 81q-4 17 -7.5 32.5t-8.5 31.5q-6 20 14 25q12 3 24 5.5t23 3.5q20 1 34.5 -9.5t20.5 -29.5q8 -25 27 -91t30.5 -104.5t16.5 -49.5q7 11 12 18l10 14l136 212q17 26 44 16q7 -3 14.5 -4.5t-9.5 -45.5zM304 174v-2l2 1zM113 151l-1 2l-1 -2h2z" />
    <glyph glyph-name="Y" unicode="Y" horiz-adv-x="246" 
d="M444 642q-11 -8 -17.5 -13t-13.5 -8q-23 -11 -37.5 -29.5t-29.5 -36.5l-86 -100q-14 -15 -27.5 -30t-27.5 -29q-15 -13 -8 -32q7 -20 6.5 -36.5t-14.5 -35.5q-8 -11 -9 -28t-2 -33q-1 -26 -0.5 -51t0.5 -51q0 -9 -1 -18.5t-1 -19.5l-6 -134q-1 -26 -31 -33
q-19 -5 -36 -1.5t-34 8.5q-19 7 -19 28q1 26 0 52.5t-1 52.5t2 52t8 52q3 11 2.5 22.5t0.5 22.5q0 16 -1 31.5t1 31.5q5 38 -6.5 71.5t-31.5 65.5q-5 8 -9.5 15t-1.5 17l-28 47l-65 115l-27 52q9 7 21.5 11t25.5 4.5t25 -2t21 -7.5q26 -16 40.5 -40t29.5 -47q4 -6 3 -14.5
t0 -16.5q4 -1 7 -2l6 -2q20 -11 25.5 -29t11.5 -37l4 -11v1q2 -6 4 -11.5t4 -10.5q6 -3 13 -1t12 -8q6 -11 14.5 -11t18.5 8q6 5 11.5 10t9.5 11q27 38 56.5 72t51.5 76q5 9 11.5 17t13.5 16q10 11 20.5 16.5t26.5 0.5q14 -4 29 -5.5t35 -4.5zM41 528q0 -19 2.5 -22t17.5 -1
q-5 6 -6 14t-14 9zM106 456l-4 -3l3 -4q0 2 1 2.5t1 2.5zM102 412q3 0 4 1l-3 3l-3 -3l1 -1h1zM76 524h-2l1 -2z" />
    <glyph glyph-name="Z" unicode="Z" horiz-adv-x="384" 
d="M400 648q29 9 63.5 0t54.5 -32l-3 -6t-3 -4q-35 -22 -57.5 -54.5t-48.5 -63.5q-17 -20 -35.5 -39.5t-34.5 -41.5q-19 -26 -39 -49t-34 -52q-17 -35 -38.5 -67.5t-41.5 -66.5q0 -1 -0.5 -1t-0.5 -1q-17 -32 -32.5 -63l-31.5 -63q-2 -4 -2.5 -9t-2.5 -13q17 3 31.5 5
t29.5 5q45 10 90.5 19.5t91.5 18.5q14 2 28 2t28 -1q10 0 16 -0.5t9.5 -3.5t6 -9.5t6.5 -18.5q-17 -13 -37 -14.5t-40 -1.5q-27 1 -53.5 -4t-52.5 -12t-50.5 -17.5t-52.5 -13.5q-11 -1 -21.5 -8t-20.5 -13q-29 -18 -55 -11t-52 21q-6 2 -10.5 11t-4.5 16q1 14 3 28.5t9 25.5
q17 32 37 63t38 63q26 45 51 90t51 90q19 32 39 63.5t40 63.5l51 83q2 2 2 6t1 9q-12 2 -24 3t-23 2q-23 2 -45 3.5t-45 4.5q-17 2 -35 5t-35 8q-11 2 -20.5 9t-14.5 21q16 13 34 12.5t35 -3.5q20 -3 38.5 -8t38.5 -7q45 -7 88 0t86 21z" />
    <glyph glyph-name="bracketleft" unicode="[" horiz-adv-x="272" 
d="M25 148q-2 151 7 297.5t20 296.5q54 28 116 32.5t131 -0.5q-3 -7 -4 -11t-3 -5l-40 -12t-41 -10q-19 -3 -37 -7t-20 -22.5t-0.5 -45.5t-0.5 -53q-1 -28 -1.5 -55.5t-3.5 -54.5q-4 -29 -9 -56.5t-10 -55.5q-2 -11 -4 -22.5t-3 -23.5q-2 -8 -5 -13t-1 -17t4 -36t-3 -47
q-2 -8 2 -33q2 -9 3 -18t-7 -15q5 -14 9 -26.5t3 -26.5l-5 -18q1 -11 2 -19t0 -15q0 -6 -2 -45.5t15.5 -55.5t37.5 -26.5t48 -5.5t57 10q2 -19 -6 -26t-17 -10q-24 -10 -48 -19t-50 -15q-35 -8 -68.5 5.5t-63.5 44.5q-39 39 -23 88q3 9 2 35q-1 2 -1 7q5 21 10.5 42t11.5 41
q2 6 -2 22q-1 0 -1 1zM114 159l1 1zM130 484q0 2 1 3h-5v-3h4z" />
    <glyph glyph-name="backslash" unicode="\" horiz-adv-x="252" 
d="M202 -13q5 -12 10 -23.5t10 -23.5q10 -22 -14 -24q-17 -1 -29.5 5.5t-20.5 21.5q-11 21 -21 42.5t-18 44.5q-18 54 -34.5 108.5t-34.5 108.5q-11 31 -23 61.5t-23 61.5q-5 17 -8 34t-7 35q13 1 20 1t11.5 -2t7.5 -6.5t6 -12.5q17 -40 33.5 -79t30.5 -79q18 -48 34 -96.5
t33 -96.5q8 -21 17.5 -41t19.5 -40z" />
    <glyph glyph-name="bracketright" unicode="]" horiz-adv-x="305" 
d="M264 728q9 -6 12 -13.5t4 -18.5q2 -24 -2.5 -45t-9.5 -42q-8 -36 -12 -72.5t-9 -73.5q-5 -44 -13 -86t-14 -86q-2 -17 -2 -34.5t-1 -34.5l-4 -43q-5 -38 -6 -76t3 -77q1 -14 0.5 -27.5t-0.5 -27.5q0 -15 -0.5 -30t-1.5 -30q0 -20 -6 -26.5t-23 -4.5q-5 1 -9.5 1t-8.5 3
q-18 12 -32.5 7.5t-30.5 -7.5q-20 -4 -39.5 -5t-39.5 -3q-5 0 -9.5 3t-9.5 5v6l27 7q14 3 27 6t27 7q20 5 28 18.5t6 36.5q-4 53 -3.5 103.5t11.5 99.5q11 53 15 107.5t10 108.5q3 29 8.5 57t7.5 57q5 51 9 103t9 107q-17 2 -32.5 4t-31.5 4q-18 2 -36 3.5t-37 3.5
q-22 3 -39 29q5 2 9 5t8 3q8 2 15 1.5t15 -0.5q35 -2 69.5 -4t69.5 -4q19 -1 37 -7.5t35 -17.5z" />
    <glyph glyph-name="asciicircum" unicode="^" horiz-adv-x="275" 
d="M225 534q3 -48 12.5 -89t37.5 -67q2 -1 10 -7q-10 -11 -30 -16t-31 1q-12 7 -16 15.5t-9 23.5q-3 3 -4 12t-1.5 20t-1.5 21t-4 13q-6 -7 -11 -11.5t-9 -9.5q-10 -11 -16 -17t-11.5 -10.5t-11.5 -10.5l-16 -16q-5 -6 -12 -10.5t-14 -8.5q-8 -5 -17 -9.5t-17 -9.5
q-11 -6 -23.5 -4.5t-20.5 10.5q-9 10 -9.5 18.5t9.5 21.5q12 15 20.5 25.5t16.5 20t17 20t22 25.5q20 22 42.5 41t35.5 46q21 -3 41 -10.5t21 -27.5z" />
    <glyph glyph-name="underscore" unicode="_" horiz-adv-x="798" 
d="M794 -88q17 0 25.5 -9.5t13.5 -34.5l-34 2t-34 1q-20 1 -40.5 0t-40.5 0h-73.5t-73.5 1q-19 0 -37.5 1.5t-37.5 0.5q-32 0 -64.5 -1.5t-64.5 -1.5q-30 -1 -60 0t-60 1q-34 0 -67.5 0.5t-67.5 -0.5q-22 0 -43.5 -0.5t-43.5 -0.5q-12 0 -14.5 3.5t-5.5 21.5q8 1 16 1.5
t16 0.5l102 4l102 4q41 2 81 3t81 2q81 1 162 0q42 0 82.5 -0.5t82.5 -0.5q25 -1 49 0t49 2z" />
    <glyph glyph-name="grave" unicode="`" horiz-adv-x="122" 
d="M95 369q-4 0 -4 1q-11 16 -27.5 27t-29.5 26q-10 13 -17.5 28t-15.5 30q-3 7 0.5 13.5t10.5 11.5q10 9 23 2q8 -5 15.5 -10.5t10.5 -16.5q1 -5 6 -9q10 -10 15 -21.5t8 -24t4.5 -25.5t3.5 -25q0 -3 -3 -7z" />
    <glyph glyph-name="a" unicode="a" horiz-adv-x="341" 
d="M268 33q17 25 45 53t58 48q-13 -30 -24 -52t-21.5 -39t-19.5 -30.5t-17 -26.5q-10 -12 -23.5 -17.5t-27 -3.5t-25.5 10t-19 23q-6 11 -10 23.5t-10 28.5q-9 -15 -16.5 -28t-13.5 -26q-14 -30 -31 -35t-42 -3q-20 2 -37 10t-28 27q-1 2 -2.5 14.5t-2.5 30t-0.5 37.5
t3.5 36q11 47 24.5 76t26.5 56l10 20t11 19q10 16 30 15q17 -2 33 -1.5t33 -1.5q51 -6 58 -12.5t18 -10.5q3 -2 5.5 -6l7.5 -12q-13 -2 -22.5 -4t-18.5 -1q-46 13 -54 8t-16 -16q-14 -21 -23.5 -44t-17.5 -48t-13 -49.5t-7 -50.5v-29q7 6 11 9.5t6 7.5q14 23 26 46t26 45
q12 19 25 36.5t26 34.5q11 16 28 12q4 -1 7.5 -0.5t7.5 -0.5q32 -2 38 -11.5t-4 -39.5q-9 -27 -13.5 -55t-6.5 -57q0 -3 0.5 -6.5t1.5 -8.5z" />
    <glyph glyph-name="b" unicode="b" horiz-adv-x="306" 
d="M268 175q-5 -20 -11 -39t-8 -41q21 14 47 26t40 15l-53 -51q-4 -5 -11.5 -13t-15.5 -16.5t-16 -16.5t-12 -13q-12 -16 -32 -31q-15 -11 -29.5 -19t-26.5 -2q-11 6 -8 15t5 17q2 6 8 17.5t12 24t11.5 24t7.5 17.5l40 139q4 13 7.5 23.5t7 20.5t6.5 20.5t5 25.5
q-5 -5 -10 -8.5t-9 -8.5q-26 -33 -45 -58.5t-33 -64.5q-12 -34 -22.5 -68t-22.5 -69q-5 -16 4 -34q6 -14 1 -30.5t-16 -24.5q-9 -6 -22.5 -2t-18.5 14q-2 4 -3 8t-3 6q-23 19 -28.5 44t-7.5 51q-1 9 -1 32v48.5t0.5 47t1.5 27.5q11 107 24 209q9 66 19.5 130.5t29.5 128.5
q1 5 2.5 10t3.5 10q6 16 24 13q9 -2 17.5 -4t17.5 -4q11 -2 20.5 -3.5t20.5 -1.5q26 1 44 -14.5t16 -41.5q-2 -24 -7 -47.5t-11 -46.5q-15 -60 -38 -117.5t-52 -113.5q-5 -10 -12 -18.5t-10 -19.5q-7 -24 -12 -48l-10 -48q-2 -9 -3 -18t-2 -17q0 -4 2 -8t4 -12l16 30
q17 38 37.5 72.5t47.5 65.5q15 18 30 29q9 8 20 12.5t24 -1.5q12 -7 20.5 -22t5.5 -29q-6 -32 -13 -64t-15 -64zM130 513q-4 -25 -7.5 -49.5t-8.5 -49.5l7 -3q5 8 9.5 16.5t8.5 17.5q12 31 24 61t23 62q8 26 13.5 52.5t10.5 52.5q2 9 0.5 17.5t-11.5 13.5q-11 5 -20 1
t-15 -11q-5 -5 -6 -12.5t-2 -15.5l-23 -144q0 -2 -1 -4.5t-2 -4.5z" />
    <glyph glyph-name="c" unicode="c" horiz-adv-x="253" 
d="M137 -36q4 4 13.5 15t19 23t17.5 23t10 14q20 20 40.5 47t45.5 48q-12 -24 -19 -39.5t-13.5 -28t-13.5 -25t-19 -30.5q-20 -41 -42 -58.5t-43.5 -18.5t-40.5 10.5t-34 26.5l-39 40l-19 60q-1 57 5 112.5t26 109.5q8 24 22.5 46t28.5 45q2 4 7 7.5t9 3.5q40 1 78 -6.5
t76 -18.5q2 -1 3.5 -3t3.5 -4q-23 -26 -30 -56.5t-15 -61.5q-3 -12 -7.5 -24t-8.5 -23q-19 5 -26 16t-5 32q2 18 4 36.5t4 37.5q2 8 2 16.5t1 22.5q-11 -5 -19.5 -8.5t-12.5 -8.5q-7 -8 -12.5 -18t-7.5 -21q-7 -30 -13 -60t-10 -61q-3 -26 -2 -51t-2 -51q-5 -41 12 -72
q5 -11 11.5 -21t14.5 -23z" />
    <glyph glyph-name="d" unicode="d" horiz-adv-x="407" 
d="M476 738q18 -6 21.5 -15t-5.5 -26q-20 -37 -40 -72.5t-39 -72.5q-16 -31 -31 -62t-26 -64q-15 -48 -14 -100q1 -15 -4.5 -30.5t-9.5 -31.5q-2 -9 -5.5 -17.5t-1.5 -16.5q5 -24 0 -46.5t-7 -45.5v-1q2 -27 5 -54.5t6 -57.5q5 4 9 6.5t7 5.5q21 30 42 53t55 46
q-11 -30 -21 -51.5t-19 -38t-18.5 -30.5t-19.5 -30q-9 -15 -19 -30t-20 -29q-2 -2 -5.5 -4.5t-7.5 -2.5q-21 -1 -41.5 -1.5t-41.5 7.5q-8 18 -14 36q-5 16 -10 34t-6 35v18t-1 18q0 8 -0.5 14.5t-1.5 14.5q-2 0 -3 0.5t-3 0.5l-10 -15l-48 -103q-13 -27 -39 -34
q-23 -6 -42 -2t-32.5 16t-19.5 30t-3 41q11 71 33 136.5t64 125.5q17 23 38.5 26.5t44.5 1.5q17 -1 34.5 -4t37.5 -6q4 7 3.5 14t4.5 15l4 8t0 6q-8 17 -5 34t4 35q-7 2 -8 2.5t-8 2.5v8q2 8 2 12q-3 57 14 109.5t36 103.5q10 26 27 45.5t37 37.5q6 5 15.5 9t17.5 3
q42 -4 88 -17zM200 235q5 11 6.5 23t5.5 27q-25 -6 -42.5 -17t-26.5 -29q-17 -31 -32.5 -62t-23.5 -66q-2 -10 -6.5 -19t-6.5 -18q-5 -20 -10 -40.5t-1 -44.5q5 6 9 10t6 9q31 57 61.5 113.5t60.5 113.5zM444 699q1 2 -0.5 7t-3.5 6q-4 1 -9 0.5t-7 -2.5q-8 -11 -17 -21.5
t-13 -23.5q-11 -34 -19.5 -68t-17.5 -69q0 -1 3 -4l4 2q15 19 25.5 40.5t19 44t16.5 45t19 43.5zM241 144q-4 8 -7 11q0 1 -2 0t-4 -3q2 -2 4 -5l4 -6zM263 442q2 1 2.5 2t2.5 3l-5 4l-4 -6l2 -2q1 -1 2 -1zM243 194q0 2 -2 4h-2q-1 0 -1 -1t0.5 -2t0.5 -3zM265 172q4 2 5 2
l-3 4h-1q-1 0 -1 -1v-5z" />
    <glyph glyph-name="e" unicode="e" horiz-adv-x="265" 
d="M258 362q23 -7 18 -25q-2 -5 -3.5 -9.5t-4.5 -9.5q-22 -38 -51 -73t-65 -67q-13 -12 -25.5 -25t-21.5 -27q-6 -10 -7.5 -21.5t-1.5 -22.5q0 -17 13 -37t31 -31q8 6 21.5 15.5t21.5 16.5q32 29 64 51.5t48 39.5q-2 -11 -5 -22q-2 -9 -5.5 -20t-8.5 -19q-16 -26 -39 -44.5
t-52 -39.5q-17 -12 -34.5 -12t-40.5 6q-34 9 -62 33t-40 54q-2 4 -2.5 8.5t-2.5 11.5l-2 20t-0.5 21t2.5 25t8 33q8 31 22 61t27 60q5 11 11.5 22t13.5 22q4 6 9 11.5t10 10.5q19 20 53 14q8 -2 17 -2t18 -2q12 -2 19 -6q22 -14 47 -21zM124 230q71 71 90 117
q-20 6 -25.5 5.5t-15.5 -11.5q-22 -23 -35 -49t-19 -54q0 -2 1.5 -4t3.5 -4z" />
    <glyph glyph-name="f" unicode="f" horiz-adv-x="220" 
d="M247 727q12 0 22 -18.5t16.5 -43t9.5 -48.5t0 -33q-4 -15 -6 -26t-4.5 -23t-7.5 -27t-16 -37q-14 -17 -27 -41t-38 -59q-3 -5 -10.5 -15t-15 -20.5t-13.5 -18.5t-6 -10q-1 -10 -2 -27t-1.5 -36t-1 -37t-1.5 -28q7 -3 14.5 -2l15 2t15.5 -0.5t16 -8.5l-37 -13
q-29 -12 -29 -41q-1 -24 -1 -48t-2 -47q-2 -21 -7 -41.5t-7 -41.5q-3 -26 -4 -53t-3 -53l-3 -42q-8 1 -11.5 1.5t-6 1t-5.5 1.5t-9 2q-30 6 -30 39q0 20 -0.5 40.5t-0.5 40.5q-1 38 -1 74.5v74.5v30q-10 -2 -20.5 -5.5t-19.5 -3.5t-16.5 6t-11.5 23q11 4 22 8.5t23 7.5
q21 5 27.5 17.5t8.5 32.5q3 54 5.5 107.5t10.5 106.5q8 57 20 111.5t26 108.5q4 16 14 35.5t25.5 36.5t36.5 28.5t47 11.5zM261 625q0 14 -2.5 26t-13.5 26q-7 3 -13.5 2t-11.5 -4.5t-8.5 -8t-3.5 -8.5q-8 -12 -12.5 -28.5t-8.5 -34.5t-8 -37.5t-10 -38.5q-2 -4 -2 -8
l-17 -120q-1 -6 -1 -12.5t8 -13.5q4 7 8 12.5t6 11.5q44 53 66 113t24 123z" />
    <glyph glyph-name="g" unicode="g" horiz-adv-x="320" 
d="M280 294q-2 -31 -2.5 -61t-1.5 -61q-2 -26 -4.5 -51t0.5 -50q1 -13 1 -30t-1.5 -35t-3 -35t-2.5 -30l-9 -54q-6 -48 -22 -92.5t-45 -84.5q-18 -26 -48 -38q-25 -10 -50.5 -16.5t-51.5 -8.5q-16 -1 -22.5 3.5t-9.5 19.5q-10 47 -7.5 91t30.5 86q17 26 43.5 45t55.5 24
q1 -11 -4.5 -17.5t-12.5 -11.5q-38 -29 -53 -67.5t-20 -83.5q0 -11 3 -21q4 -19 27 -15q26 5 41.5 20.5t23.5 38.5q8 24 15.5 52t13.5 57.5t10 58t6 53.5q0 3 1 17.5t3 35t4 44t3.5 44.5t2.5 37t1 21q-2 -2 -7.5 -18t-12.5 -38.5t-14 -48t-13.5 -47.5t-11.5 -37t-6 -16
q-9 -9 -23 -14t-28 -3.5t-25.5 9t-15.5 24.5l-19 75q-2 3 -2 7t-2 9l1 -1q-4 29 -1 57.5t11 70.5q7 26 14 50.5t15 50.5q5 16 15 26t28 13q26 3 52 6.5t52 -4.5q4 -1 7 -2.5t8 -3.5q-6 -29 -31 -22q-17 5 -27 -1.5t-15 -20.5q-12 -29 -23 -58.5t-14 -61.5q-2 -25 -4 -49.5
t-2 -48.5q-1 -16 2 -31.5t5 -32.5h6q2 3 4.5 6t4.5 7q13 44 26 86.5t24 86.5q5 15 4 31t1 32q1 19 6 23.5t24 9.5q35 9 72 -6zM15 84q-1 1 -1 3z" />
    <glyph glyph-name="h" unicode="h" horiz-adv-x="347" 
d="M304 102q0 -4 1 -8.5t3 -12.5q20 16 36 30t33 24q-13 -37 -23.5 -57t-24.5 -35q-17 -19 -42 -22t-48 6q-36 15 -41 55q-5 29 -7.5 59t-5.5 61q-16 -16 -22 -35.5t-11 -39.5q-10 -31 -18.5 -62t-17.5 -62q-2 -8 -5.5 -15l-7.5 -15q-7 -14 -14 -21t-15.5 -9.5t-19 -1.5
t-23.5 4q-14 3 -19.5 13t-5.5 24q-1 32 -1.5 63t-0.5 63q0 8 -0.5 16.5t-0.5 21.5q2 18 3.5 34t3.5 34t5 39.5t8 50.5q5 49 7 97.5t8 97.5q5 41 13 81t16 81q5 27 11 54l12 54q2 9 5 17.5t6 19.5h25t24 -2q15 -2 21 -9t6 -23q0 -10 -1 -19.5t-3 -19.5q-12 -77 -27 -153
q-6 -34 -13.5 -67t-15.5 -67q-2 -10 -1 -14q5 -58 -0.5 -114t-15.5 -113q-5 -35 -12 -69t-14 -69q-2 -10 7 -21l22 60t23 60t25 60.5t27 60.5q13 30 26.5 59.5t27.5 60.5q11 1 23.5 3.5t24.5 0.5q17 -2 24 -12.5t5 -27.5q-2 -20 -4 -38.5t-4 -38.5q-1 -17 -1.5 -33t-0.5 -33
q-1 -4 0.5 -7.5t-0.5 -7.5q-5 -14 -4.5 -28t3 -27.5t5 -27.5t1.5 -28z" />
    <glyph glyph-name="i" unicode="i" horiz-adv-x="134" 
d="M83 40q10 13 20 27.5t20.5 28t21 23.5t19.5 15q-7 -17 -19 -40.5t-24.5 -44.5t-23 -36t-13.5 -15q-7 0 -22 1.5t-21 4.5q-15 4 -21 18.5t-8 30.5q-2 14 -1.5 33.5t-1.5 33.5q0 1 0.5 7t1 13.5t0 15t-1.5 11.5q-1 15 -1 25.5t1 21.5t4 24t8 31q5 7 8 15.5t14 10.5
q14 2 28.5 3t29.5 -11q-14 -24 -14.5 -50.5t0.5 -53.5q1 -13 -0.5 -32t-3 -39.5t-2 -39.5t1.5 -32zM92 357q-21 -6 -34.5 3t-15.5 31q-5 42 6.5 81.5t27.5 77.5q2 5 9 10t13 6q12 2 21.5 -4t15.5 -16.5t8 -23.5t-1 -25q-11 -23 -20 -46.5t-18 -46.5q-5 -11 -7 -23t-5 -24z
" />
    <glyph glyph-name="j" unicode="j" horiz-adv-x="239" 
d="M195 119q7 -6 17 -4.5t20 7.5t19 14t15 13q4 -8 1.5 -17t-8.5 -16.5t-13 -14t-13 -10.5q-8 -5 -11 -9.5t-4 -9.5t0 -11.5t2 -15.5q3 -36 3 -71q1 -41 -1.5 -81.5t-6.5 -81.5q-5 -44 -11.5 -89.5t-29.5 -83.5q-9 -15 -22.5 -23.5t-29.5 -10.5t-32.5 1t-31.5 10t-24 18
t-13.5 24.5t-5.5 28.5t-2 32q-2 45 -0.5 90t10.5 90q4 22 12 59.5t16 78t15 78.5t9 60q-5 0 -10 -7.5t-13 -20t-22 -28.5t-37 -34q7 26 12 41.5t9 25t8 16t9 14.5q8 14 14 27.5t14 27.5q5 9 15.5 19t16.5 18q10 14 28.5 13t34.5 -3q22 -4 30 -17t8 -30t-5 -36t-8 -35
q-2 -9 -2.5 -14t2.5 -10q2 -3 8 -11.5t8 -10.5zM188 -40q0 28 -0.5 56t-4.5 56q0 3 -1 13.5t-5 12.5q-9 4 -11 -3t-4 -12q-5 -11 -8 -23t-5 -24q-11 -50 -24 -98.5t-18 -99.5q-2 -22 -4.5 -51t-1 -58t9 -55.5t26.5 -42.5q13 25 19.5 49.5t11.5 53.5q1 8 1.5 14.5t2.5 13.5
q7 50 11.5 99t4.5 99zM150 337q-18 -6 -26.5 4t-11.5 26t-2.5 33.5t1.5 25.5q1 11 4.5 29.5t9 37t14 33.5t20.5 20t22.5 1t18 -13.5t11 -21.5t3.5 -23q2 2 -1 -10q-9 -18 -16.5 -37t-15.5 -39q-2 -6 -5 -16.5t-6.5 -21t-8.5 -18.5t-11 -10z" />
    <glyph glyph-name="k" unicode="k" horiz-adv-x="319" 
d="M283 33q6 6 13.5 20.5t16.5 30.5t18.5 30t17.5 20q-6 -20 -12 -41t-12 -40t-12.5 -34.5t-12.5 -24.5q-16 -18 -36.5 -22t-43.5 2q-57 18 -80 76q-5 14 -10 27.5t-10 27.5q-7 -11 -12 -20.5t-10 -19.5q-4 -7 0 -11q8 -12 5 -23t-5 -23q-5 -19 -8.5 -38t-7.5 -39
q-22 -7 -42 -2.5t-40 11.5q-5 2 -8 8.5t-1.5 31t7.5 73.5t20 135q8 93 25.5 183t36.5 181q1 7 5 22.5t8 33t7.5 33t5.5 23.5q11 1 19.5 -7t15.5 -20.5t13 -26.5t13 -25q-8 -40 -15.5 -79t-11.5 -79q-2 -20 -6 -39t-7 -38.5t-4.5 -39t0.5 -39.5q13 19 25 37.5t25 36.5
q17 23 35.5 44t42.5 38q9 6 17.5 8.5t19.5 -2.5q22 -10 18 -33q-1 -4 -1 -7.5t-2 -7.5q-23 -57 -49 -112t-69 -102l-22 -22q7 -9 14 -17t12 -18q5 -11 5.5 -22t3.5 -22q7 -20 14 -39.5t27 -32.5q15 4 25 14t19 21zM174 306q-5 -8 -14 -23.5t-18.5 -33t-16.5 -34t-6 -26.5
q27 17 51 45t44 60t35 64t24 58q-36 -17 -58.5 -48t-40.5 -62z" />
    <glyph glyph-name="l" unicode="l" horiz-adv-x="236" 
d="M247 641q15 -5 17.5 -9t-0.5 -19l-35 -156q-2 -11 -6.5 -21.5t-7.5 -21.5q-11 -32 -20 -58.5t-18.5 -49.5t-20.5 -45t-25 -45t-22 -34.5t-8 -25.5v-25.5t-2 -25.5q-2 -14 -4 -36.5t-3.5 -45.5t-3 -44t-1.5 -32q0 -2 1.5 -3t3.5 -3l10 -5q1 2 13 16.5t26 31.5t25.5 31.5
t12.5 16.5q11 17 19.5 32t17.5 27.5t19.5 23.5t25.5 21q-9 -29 -18 -50t-17.5 -37.5t-16 -29.5t-14.5 -26q-3 -12 -12.5 -27t-22.5 -28t-27 -23t-26 -11q-23 -2 -42.5 5.5t-33.5 28.5q-8 12 -13 26.5t-8 30t-4.5 31t-4.5 29.5q-2 10 -0.5 20.5t0.5 21.5q-3 58 4.5 114
t19.5 112q9 41 18 81.5t20 80.5q10 35 23.5 68.5t32.5 65.5q13 25 36 26q23 2 46 3t46 -7zM217 549q2 13 4 26.5t-6 26.5q-13 1 -17.5 -6.5t-6.5 -15.5q-3 -11 -6 -20.5t-7 -20.5q-10 -27 -20.5 -53.5t-20.5 -53.5q-5 -14 -8.5 -29.5t-6.5 -30.5q-5 -23 -8 -44.5t-6 -44.5
q-2 -15 -3 -30t-3 -31q2 0 2.5 -0.5t2.5 -0.5l5 8q41 75 65 155.5t40 164.5z" />
    <glyph glyph-name="m" unicode="m" horiz-adv-x="521" 
d="M496 75q14 20 26.5 35t28.5 25q-3 -18 -7.5 -30t-9 -22t-9.5 -19.5t-10 -21.5q-17 -17 -34 -23.5t-33.5 -5.5t-32.5 8t-29 16q-9 22 -4.5 50.5t13 55.5t16.5 48t8 28q-5 -5 -17.5 -23t-26.5 -39t-26 -38.5t-14 -20.5l-45 -49q-2 -2 -6 -4.5t-8 -3.5q-10 -1 -21 3.5
t-20.5 12t-16 17t-7.5 19.5q-2 17 -0.5 35.5t2.5 35.5q0 5 1 16t2.5 24t2.5 25t2 19q-14 -9 -26.5 -27.5t-17.5 -28.5q-12 -23 -27.5 -42.5t-28.5 -41.5q-6 -10 -14 -19l-16 -18q-5 -6 -8 -12.5t-6 -12t-7 -7.5t-10 1l-19 8q-26 11 -34.5 26.5t-5.5 44.5q1 9 1.5 18t0.5 18
q0 1 3 11.5t1 13.5q5 26 7.5 52.5t3.5 56.5q1 4 0.5 8t-0.5 9q20 11 39.5 7t39.5 -8q9 -2 11 -10t2 -18q-2 -31 -3 -62t-3 -66l21 26l79 87q33 36 86 20q6 -20 7 -40.5t-1 -41.5t-5 -42.5t-3 -43.5l18 16q8 10 19.5 22.5t23 25.5t22.5 25.5t19 22.5q5 11 15 20.5t21.5 16
t23 9.5t20.5 0q16 -6 13 -23q-6 -35 -12 -69.5t-13 -69.5q-3 -16 -3.5 -32.5t8.5 -34.5q9 6 17 16t16 16z" />
    <glyph glyph-name="n" unicode="n" horiz-adv-x="327" 
d="M272 42q20 15 43.5 42.5t40.5 50.5q2 -41 -9 -69.5t-26 -45.5q-28 -25 -54 -19.5t-52 27.5q-12 9 -14 23q-5 26 -7.5 50.5t10.5 47.5l27 57q7 16 11 34t-1 42q-8 -8 -14 -12.5t-10 -9.5q-35 -54 -70.5 -107.5t-61.5 -114.5q-4 -8 -8.5 -16t-9.5 -16q-27 -1 -46.5 14.5
t-20.5 40.5q-1 17 2 49.5t7 65.5q4 39 10 82q5 4 5 11t1 14q0 4 0.5 11.5t1.5 14.5t3 13t4 8t10.5 2.5t18 -2t17.5 -7t9 -13.5l2 -39q-5 -12 -3.5 -26.5t-0.5 -28.5q-2 -12 -4.5 -23.5t-4.5 -23.5l5 -4q4 4 8 6.5t7 7.5q23 35 51.5 65.5t60.5 57.5q14 12 33 17
q14 3 22.5 -2.5t18.5 -17.5q11 -14 13.5 -28t-1.5 -31q-8 -36 -13.5 -73.5t-18.5 -72.5q-5 -11 -6 -24.5t14 -27.5z" />
    <glyph glyph-name="o" unicode="o" horiz-adv-x="244" 
d="M198 102q4 -4 8 -4q7 0 13.5 3.5t14 9t17 12t23.5 12.5q-2 -11 -7 -24t-22 -26q-16 -14 -26.5 -18.5t-27.5 1.5q-2 0 -3 1q-3 -11 -6 -21.5t-8 -21.5q-8 -20 -21 -37t-40 -18q-45 -1 -85 28q-13 9 -19.5 22.5t-7.5 28.5v95q0 5 -0.5 9t-0.5 9l6 64q8 46 21.5 89t32.5 85
l9 15q13 27 46 19q18 -5 36.5 -9t37.5 -8q0 -2 0.5 -3t0.5 -3q-12 -8 -24.5 -15t-22.5 -17q-9 -10 -15.5 -22.5t-4.5 -27.5q23 -5 46 -8.5t48 -7.5l19 -81q0 -10 -3 -18t-7 -17t-8.5 -20.5t-8.5 -27.5zM120 22q10 23 18 47l16 48l-3 13q-5 17 -6.5 49.5t3.5 67.5
q-11 14 -18 29.5t-7 35.5q-5 0 -8 1q-2 -3 -4 -5.5t-3 -5.5q-18 -54 -27 -110t-11 -115q-1 -14 1 -29t5 -30q1 -5 5 -11t9 -8q4 -2 9.5 1t9.5 6q8 6 11 16z" />
    <glyph glyph-name="p" unicode="p" horiz-adv-x="373" 
d="M75 -51q-7 -45 3 -70.5t28 -20.5q3 1 4.5 -2.5t2.5 -8.5t0.5 -10t-3.5 -6q-18 -9 -44.5 -14.5t-54.5 12.5q-15 9 -22 21t-10 26t-2.5 29t1.5 32q2 16 8.5 43.5t12.5 64.5q1 5 1.5 22t1.5 24q4 29 10 56.5t9 71.5l4 69q0 9 -4 16q-5 11 0 21t16 12q5 2 10.5 2h10.5
q23 0 37 -1.5t21.5 -8.5t11 -21.5t5.5 -40.5q2 -19 0 -39t-4 -46q5 8 8.5 12t5.5 7q11 17 22.5 35t23.5 35q24 33 56 46.5t72 11.5q16 -1 31 -14.5t17 -32.5q0 -6 -0.5 -19.5t-2 -28t-3.5 -27t-5 -18.5q-6 -29 -26.5 -59.5t-50.5 -56.5q-38 -34 -62.5 -38.5t-41.5 9.5
q-3 3 -5 6.5t3 7.5q2 8 11 17.5t14 16.5q37 36 63 76t33 98q1 3 -0.5 14t-8.5 19q-8 -4 -13 -6t-10 -6q-14 -10 -34 -32t-41 -48.5t-40.5 -54t-31.5 -48.5q-7 -22 -14 -48q-6 -22 -12.5 -50t-11.5 -57z" />
    <glyph glyph-name="q" unicode="q" horiz-adv-x="364" 
d="M329 105q16 2 32.5 11t30.5 19q2 -4 0 -11q-2 -6 -7.5 -15t-19.5 -22q-1 -1 -5.5 -3.5t-9.5 -4.5t-9 -4.5t-4 -3.5q-1 -29 -2 -52t-2.5 -44.5t-4.5 -44.5t-7 -51q-7 -41 -14.5 -81.5t-18.5 -80.5q-5 -20 -14.5 -39.5t-20.5 -38.5q-22 -37 -69 -32q-23 2 -42 11.5
t-32.5 24.5t-21 34.5t-6.5 41.5q2 36 6 72t10 71q4 25 12 48.5t16 46.5l33 106l3 18q-11 2 -15 -4.5t-9 -11.5q-23 -28 -53.5 -31.5t-57.5 19.5q-9 8 -14 20.5t-13 26.5l6 54q10 16 15 35q9 42 26.5 79t36.5 74l2 2q7 21 18 33.5t26 18.5t32 6.5t36 -1.5q10 -2 19.5 -2
t19.5 -2q6 -2 12.5 -4t14.5 -5q-9 -11 -17.5 -13.5t-19.5 -1.5q-59 1 -81 -57q-13 -34 -26.5 -67t-27.5 -66q-9 -24 -8.5 -48.5t-4.5 -48.5l8 -3q8 8 16.5 17t16.5 19q24 32 48 64.5t47 65.5q2 3 3.5 6.5t3.5 6.5q5 10 8 15t7 7t10 1.5t17 -1.5q9 -2 18 -3t17 -3
q20 -7 25.5 -17.5t0.5 -30.5l-6 -29l-19 -63q5 -1 8.5 -6.5t6 -11.5t6 -11t8.5 -4zM253 -269q12 46 20.5 87.5t14.5 82t9.5 82.5t4.5 90q0 5 -1.5 10t-3.5 10h-9q-5 -9 -9 -18t-8 -19q-8 -25 -15.5 -50t-18.5 -49q-9 -21 -14.5 -38t-9.5 -32.5t-7.5 -33t-7.5 -40.5
q-3 -22 -5 -43.5t-5 -42.5q-3 -23 3 -43.5t12 -41.5q0 -2 3 -4t6 -6q6 8 11.5 15.5t8.5 15.5q12 32 21 68z" />
    <glyph glyph-name="r" unicode="r" horiz-adv-x="295" 
d="M258 388q35 11 57 -17q9 -11 9.5 -24t-5.5 -27q-9 -23 -18 -47t-17 -48q-3 -8 -11.5 -23t-11.5 -23v-21q-6 0 -12 0.5t-11 2.5q-26 8 -32.5 20.5t1.5 38.5q8 24 16.5 48t16.5 48l9 29q-11 -3 -16.5 -9t-9.5 -13q-28 -43 -50 -88.5t-36 -95.5q-8 -28 -17.5 -54.5
t-19.5 -53.5q-5 -11 -4.5 -22.5t8.5 -22.5q-17 -11 -35 -12t-33 6t-24.5 21t-10.5 34q-1 16 2 31.5t5 31.5l4 35q3 22 5 38.5t4 32.5t4.5 33.5t6.5 41.5q1 32 8.5 63.5t14.5 63.5q5 19 12 23.5t27 1.5q17 -3 25.5 -7t17.5 -13q-15 -52 -24 -104.5t-1 -108.5l41 67
q17 28 33 56t42 49q7 5 14.5 10.5t15.5 7.5z" />
    <glyph glyph-name="s" unicode="s" horiz-adv-x="306" 
d="M246 68q23 4 42 20.5t48 45.5q0 -26 -9 -46t-23 -34t-30.5 -23t-30.5 -13q-15 -37 -37.5 -61.5t-68.5 -31.5q-58 -10 -83.5 5t-28.5 59q-2 25 8.5 47.5t32.5 31.5q10 4 20 4.5t20.5 0t21.5 -2t24 0.5q3 17 2 34l-2 34q0 29 -8 57.5t-22 54.5q-3 5 -6 9.5t-7 8.5
q-5 -14 -13 -32.5t-21 -40.5q-14 -26 -30.5 -54t-44.5 -58q5 10 7.5 25t9.5 39q9 29 23.5 67.5t34.5 91.5q0 1 -1 2q14 10 30 8.5t30 -8.5q38 -17 66 -43.5t39 -68.5q6 -21 10 -53t-3 -76zM82 -49q12 -2 24.5 2t22.5 14.5t16.5 27t7.5 37.5q-15 3 -34.5 5t-30.5 4
q-17 3 -26 -15q-8 -14 -9 -27t2.5 -23.5t10.5 -17t16 -7.5z" />
    <glyph glyph-name="t" unicode="t" horiz-adv-x="157" 
d="M269 527q14 -11 7.5 -18t-17.5 -14q-27 -16 -60 -21.5t-63 -11.5q-2 0 -3 -1q-6 -23 -12.5 -45.5t-13.5 -45.5q-5 -18 -10.5 -41.5t-10 -46t-6.5 -41.5t1 -27q3 -7 1 -15q-3 -20 -6.5 -41t-5.5 -41q-1 -36 18 -76q6 6 11 10.5t8 9.5q22 20 43.5 37.5t33.5 39.5
q-3 -16 -7 -31q-4 -14 -10 -28.5t-16 -27.5q-8 -15 -20 -30t-26.5 -25.5t-30 -14.5t-29.5 5q-3 2 -6 9.5t-6.5 16.5t-6.5 17.5t-4 11.5q-9 21 -13.5 42.5t-1.5 45.5q2 23 1.5 47.5t-0.5 47.5q1 32 2.5 80.5t8.5 98.5q2 10 3 22t3 26h-4q-26 0 -51.5 -1t-50.5 1q-4 0 -10.5 2
t-12 5.5t-7.5 8t4 9.5q4 4 12.5 5.5t18.5 1.5h19t14 1q17 4 32.5 8t31.5 7q6 2 8 2q2 32 4.5 57.5t4.5 31.5q2 8 1 13q-6 33 14 62q2 4 4 14q2 8 2 15t2 14q4 14 8.5 28.5t9.5 28.5q20 5 38.5 3t36.5 -7q9 -2 13.5 -9t5.5 -16t0 -18q-7 -47 -13.5 -93t-12.5 -93l-2 -16
q23 2 46 6.5t46 6.5q0 7 4 8.5t9.5 0t10.5 -5t8 -5.5z" />
    <glyph glyph-name="u" unicode="u" horiz-adv-x="359" 
d="M309 56q6 6 16 16.5t21 21.5t22.5 22t20.5 18q-9 -24 -15 -39.5t-11.5 -27t-10.5 -20t-11 -18.5q-16 -20 -36.5 -22t-43.5 5q-39 12 -44 54q-1 11 -2.5 21t-6.5 21q-3 -5 -6 -10.5t-5 -11.5q-6 -15 -12 -29.5t-11 -29.5q-6 -21 -23.5 -35.5t-40 -19.5t-46.5 -0.5
t-43 21.5q-23 21 -21 54q1 26 2.5 51t3.5 51q1 5 1 11v13l25 81q8 28 16.5 56t17.5 56q4 13 7 20.5t7.5 11t11.5 4.5t21 2q12 1 21 0.5t16.5 -2t15 -4.5t18.5 -9l-9 -17q-2 -5 -5 -9t-4 -9q-7 -45 -19 -88.5t-23 -88.5q-4 -18 -6.5 -36t-5.5 -35q-1 -7 -2 -13.5t-3 -13.5
q-11 -30 1 -62q11 6 15.5 16t9.5 20q18 41 35 81.5t35 81.5q9 20 17.5 39t10.5 42q1 8 6 16.5t10 16.5q9 -1 18.5 0t19.5 1.5t19.5 -0.5t20.5 -6l-13 -33q-4 -11 -8 -22.5t-5 -22.5q-3 -63 -3 -126q1 -15 4 -30.5t5 -31.5l-2 -7q4 2 6 4z" />
    <glyph glyph-name="v" unicode="v" horiz-adv-x="294" 
d="M264 82q15 4 28 20.5t32 35.5q-6 -54 -28 -79.5t-44 -26.5q-14 -1 -28 13t-22 32q-17 -30 -33 -60.5t-24 -46.5q-10 -24 -35 -18q-10 2 -19 4.5t-19 6.5q-6 2 -13 3.5t-14 4t-12.5 6.5t-6.5 10q-7 12 -9.5 36t-9.5 47q1 11 -3 22t-4 24q0 14 0.5 30.5t1.5 32.5q1 18 3 37
q2 35 8 54t6 29q-1 26 25 22q14 -3 27.5 -6t27.5 -7q3 0 6 -1.5t6 -3.5q3 -13 0.5 -25.5t-8 -28.5t-13 -38t-14.5 -54q-5 -22 -4 -48.5t5.5 -50t13 -41t18.5 -21.5q3 4 10 15.5t13.5 24.5l12 24l6.5 13l19 39q7 12 7 24t-3 25q-6 26 -3.5 50.5t22.5 44.5q4 5 9 8.5t10 2.5
q18 -1 36 -3.5t37 -4.5l-40 -103l-7.5 -15t-6.5 -12q2 -32 11 -41t22 -6z" />
    <glyph glyph-name="w" unicode="w" horiz-adv-x="410" 
d="M389 125q7 -7 18.5 -7.5t32.5 15.5q-3 -12 -9 -21.5t-13 -16t-13 -9.5t-9 -3t-9.5 5t-13.5 11l-18 16q-3 -11 -5 -30.5t-8 -48.5q-5 -20 -16.5 -32t-27.5 -16t-34 0.5t-35 18.5q-12 11 -16.5 23t-5.5 26l-2 74q-1 12 -3 24.5t-4 24.5q-2 0 -3.5 0.5t-3.5 0.5
q-7 -18 -14 -36.5t-13 -36.5q-8 -26 -15.5 -52t-16.5 -52q-9 -24 -24 -29.5t-41 5.5q-20 8 -35.5 23t-26.5 33q-5 8 -5 18t1 19q1 15 2 37t2 45.5t2 45.5t2 38v3q2 9 4.5 25.5t4.5 34.5t4.5 34.5t4.5 25.5q5 19 9 29.5t11.5 14t19.5 2t33 -7.5q11 -2 21 -7t23 -10
q-4 -8 -6 -13.5t-6 -8.5q-32 -26 -19 -66q0 -2 1 -4.5t-1 -3.5q-9 -12 -13 -25t-5.5 -27t-2 -28.5t-3.5 -28.5q-6 -33 -10.5 -66.5t-9.5 -67.5q-2 -8 -1.5 -15t11.5 -15l21 42q26 59 52.5 117t53.5 117q13 28 50 2q-5 -63 -5.5 -125t7.5 -125q2 0 4 -0.5t4 -0.5l7 16
q6 28 9.5 42.5t7 25.5t9.5 24.5t18 39.5q7 15 7.5 33t2.5 35l5 34q3 15 21 17q10 1 20 1.5t17 -9.5q15 -19 7 -43q-14 -41 -23 -82q-1 -4 -0.5 -11t2.5 -14.5t5 -14t8 -9.5z" />
    <glyph glyph-name="x" unicode="x" horiz-adv-x="279" 
d="M299 125q2 3 4.5 6t5.5 5q-3 -23 -9 -48t-15 -49t-20 -44.5t-23 -33.5q-14 -17 -28 -19.5t-27.5 4.5t-27.5 20.5t-28 30.5l-16 19l-38 -47q-3 -3 -7.5 -6t-9.5 -3q-14 0 -24.5 -0.5t-12.5 13.5t7 24q14 18 27.5 35.5t27.5 34.5q22 26 14 59q-2 5 -3.5 14.5t-3.5 20
t-4 20.5l-3 15l-2 13l-8 -14q-14 -26 -30.5 -54t-44.5 -58q5 11 7.5 26t9.5 38q9 29 21 66.5t34 91.5q1 27 30 24q47 -5 55 -54q1 -7 2.5 -21t3.5 -30t4.5 -31t4.5 -24q11 13 20 22t16 20q6 8 12.5 21t13.5 25.5t15.5 22t19.5 10.5q6 0 6.5 -6.5t-2.5 -17t-7.5 -24
l-8.5 -25.5q-16 -20 -31 -39t-30 -39q-3 -4 -6 -9t-2 -9q5 -30 11 -60l12 -60q0 -2 2 -3t5 -4q3 3 12 19t20.5 36.5t24.5 41.5t24 34z" />
    <glyph glyph-name="y" unicode="y" horiz-adv-x="396" 
d="M426 134q-8 -22 -17 -40t-18 -32.5t-16 -26.5t-9 -22q-3 -19 -2.5 -37.5t3 -37t4.5 -37.5t1 -38t-1.5 -47.5t-3.5 -60t-9 -63.5t-18 -58t-30.5 -42.5t-46.5 -18.5q-50 -3 -74 27.5t-30 81t1 113t19 122.5t24.5 110t16.5 76q-9 -17 -20 -42.5t-24.5 -50.5t-30.5 -44.5
t-38 -24.5q-29 -7 -50 5t-34.5 33t-20.5 47.5t-8 48.5q-2 31 3.5 62.5t10.5 62.5q3 17 7 28.5t11.5 17t20 4.5t32.5 -8q19 -6 25.5 -15t6 -20.5t-5 -25t-5.5 -29.5q-4 -29 -6 -58.5t-5 -58.5q-2 -12 -3.5 -24t1 -20t9.5 -9.5t24 8.5q7 4 13 12t12 17.5t10.5 18.5t8.5 16
q14 23 26 46t23 47q9 20 13.5 41t12.5 40q10 21 27.5 26.5t34.5 -0.5t29 -22.5t11 -39.5q0 -11 -3.5 -22t-6 -22t-3 -21.5t4.5 -20.5q8 -16 19 -16t23 7.5t25 18.5t26 18zM338 -70q0 7 0.5 30t-0.5 47.5t-5 43t-14 17.5q-7 -1 -14 -23.5t-13 -50.5t-11 -53.5t-6 -32.5
q-7 -29 -15.5 -72t-11.5 -87.5t5 -84.5t34 -63q18 35 28.5 76t15.5 84.5t6 86.5t1 82z" />
    <glyph glyph-name="z" unicode="z" horiz-adv-x="322" 
d="M242 10q11 12 20 22t18 19q13 17 29.5 34.5t42.5 47.5q-5 -42 -21 -78.5t-36 -65.5q-8 -12 -19 -21.5t-22 -18.5q-17 -16 -41 -19t-50 1.5t-52.5 13t-47.5 16.5q-13 -2 -17.5 -2t-16.5 8q-5 4 -5.5 17.5t5.5 18.5q-3 17 4 30.5t20 26.5q34 34 66.5 69.5t67.5 73.5
q9 12 18 21.5t17 17.5q-11 0 -21.5 1t-20.5 1q-15 0 -29.5 0.5t-28.5 0.5h-8q-7 -8 -16.5 -22t-20.5 -34q-14 -26 -31.5 -51t-45.5 -55q5 11 7.5 26t9.5 38q4 15 11 32t16 34t20 33.5t24 28.5l1 1h8q5 1 17 -1.5t17 -2.5q14 2 26.5 1.5t25.5 0.5q8 1 18 2t18 -1q4 -1 8 -2.5
t9 -3.5l11 -2q16 12 37 4q13 -5 17.5 -18t2.5 -30q-27 -28 -47 -50t-39 -42.5t-38.5 -42.5t-45.5 -49q-14 -17 -25.5 -27t-19.5 -17q8 -4 20 -8t27 -6q13 -2 22.5 -4t20.5 -0.5t25.5 9t37.5 24.5z" />
    <glyph glyph-name="braceleft" unicode="{" horiz-adv-x="370" 
d="M394 -21q-2 -25 -11.5 -40.5t-20.5 -29.5q-5 -6 -10.5 -11.5t-10.5 -12.5q-15 -23 -36.5 -33t-45 -7.5t-46 17t-38.5 40.5q-20 32 -30.5 65t-12.5 71q-1 29 -1.5 57.5t-2.5 57.5q0 10 -1 20t-2 22q-15 4 -28.5 3.5l-27 -1t-26.5 1.5t-26 10q-5 3 -8.5 7.5t-8.5 8.5
q4 15 12 19t18 6q23 5 45.5 13.5t39.5 28.5q23 24 27 62q4 27 9.5 52.5t9.5 52.5q2 13 1 27t0 28q3 57 17.5 107.5t34.5 99.5q16 41 57 38q23 -2 44 -10.5t40 -25.5q-5 -4 -8.5 -8t-7.5 -3q-20 5 -29.5 -6.5t-15.5 -31.5q-16 -60 -30 -120t-20 -124q-6 -68 -34 -129
q-8 -18 -19 -33t-22 -32q0 -3 4 -7q26 -14 31.5 -37.5t5.5 -52.5q0 -35 2 -71t4 -71q2 -37 20 -62.5t38 -52.5z" />
    <glyph glyph-name="bar" unicode="|" horiz-adv-x="208" 
d="M118 718q5 23 31 11q-2 -48 -3.5 -96.5t-4.5 -97.5q-5 -73 -12 -145.5t-11 -146.5q-2 -38 0.5 -77t4.5 -77q0 -4 1 -7.5t0 -7.5l-13 -202q-24 -8 -38.5 0t-15.5 34q-1 35 0.5 69.5t6.5 69.5q8 49 12 98t2 100q-2 45 -1 90t7 90q9 64 15 128.5t13 129.5q2 19 6 37z" />
    <glyph glyph-name="braceright" unicode="}" horiz-adv-x="339" 
d="M294 251q7 -2 13.5 -8.5l14.5 -14.5q-6 -5 -9.5 -9t-7.5 -6q-22 -8 -42 -18.5t-40 -24.5q-21 -17 -25.5 -35t14.5 -41q14 -17 16 -34.5t3 -36.5q1 -18 1.5 -36t-1.5 -36q0 -8 -3 -15.5t-8 -11.5q-18 -17 -37.5 -29.5t-42.5 -18.5q-21 -5 -41 -14.5t-42 -4.5l-26 4t-24 16
q1 15 8.5 19t15.5 6q28 2 52.5 12t48.5 24q8 5 15 10t14 12q9 8 11 18.5t-4 27.5q-13 35 -23.5 72t-21.5 74q-5 12 -2.5 18.5t10.5 11.5l62 41q-6 5 -9.5 9.5t-8.5 6.5q-7 4 -14.5 6t-14.5 7q-25 17 -29.5 34.5t5.5 46.5q7 20 11 42t9 43l63 251q2 8 3.5 16.5t4.5 20.5
q-12 2 -21.5 4t-19.5 2q-16 0 -31 -1.5t-31 -0.5q-9 1 -18 4.5t-21 6.5q5 8 7.5 14t4.5 6q22 3 44.5 5t45 1.5t44.5 -5.5t45 -17q34 -17 41 -36t-7 -58q-11 -29 -23.5 -56.5t-23.5 -56.5q-8 -24 -14.5 -49t-14.5 -50l-6 -20v1l-14 -72l-7 -40q5 -17 16 -20.5t26 -3.5
q14 -1 29.5 -4.5t29.5 -8.5zM175 108l-3 2v-3zM185 321l-2 -1l2 -2v3zM269 688l1 -1v2z" />
    <glyph glyph-name="asciitilde" unicode="~" horiz-adv-x="445" 
d="M263 139q-28 8 -51 18t-34 25q-10 11 -24.5 15.5t-31.5 6.5q-7 1 -16.5 -2.5t-13.5 -8.5q-8 -6 -13.5 -14t-14.5 -15q-2 -3 -7.5 -5.5t-10.5 -4.5q-5 4 -9 7t-4 7q-3 10 0 21q14 33 52 58q16 11 36 14.5t46 1.5q35 -3 62.5 -13t51.5 -27q14 -9 34 -18t39 -1q9 4 19 7.5
t19 5.5q5 2 11 2.5t10 -0.5q3 -2 3.5 -6t-1.5 -6q-9 -14 -23 -26q-14 -11 -24.5 -17.5t-29.5 -17.5q-5 -3 -16 -5t-22.5 -3t-22 -0.5t-14.5 1.5z" />
    <glyph glyph-name="Zcaron" horiz-adv-x="384" 
d="M400 648q29 9 63.5 0t54.5 -32l-3 -6t-3 -4q-35 -22 -57.5 -54.5t-48.5 -63.5q-17 -20 -35.5 -39.5t-34.5 -41.5q-19 -26 -39 -49t-34 -52q-17 -35 -38.5 -67.5t-41.5 -66.5q0 -1 -0.5 -1t-0.5 -1q-17 -32 -32.5 -63l-31.5 -63q-2 -4 -2.5 -9t-2.5 -13q17 3 31.5 5
t29.5 5q45 10 90.5 19.5t91.5 18.5q14 2 28 2t28 -1q10 0 16 -0.5t9.5 -3.5t6 -9.5t6.5 -18.5q-17 -13 -37 -14.5t-40 -1.5q-27 1 -53.5 -4t-52.5 -12t-50.5 -17.5t-52.5 -13.5q-11 -1 -21.5 -8t-20.5 -13q-29 -18 -55 -11t-52 21q-6 2 -10.5 11t-4.5 16q1 14 3 28.5t9 25.5
q17 32 37 63t38 63q26 45 51 90t51 90q19 32 39 63.5t40 63.5l51 83q2 2 2 6t1 9q-12 2 -24 3t-23 2q-23 2 -45 3.5t-45 4.5q-17 2 -35 5t-35 8q-11 2 -20.5 9t-14.5 21q16 13 34 12.5t35 -3.5q20 -3 38.5 -8t38.5 -7q45 -7 88 0t86 21zM229 827q14 -8 24.5 -19t12.5 -29
q3 -19 16 -35l6 3q6 16 17 26.5t23.5 18.5t26 16t24.5 18q14 -11 25 -21.5t14 -27.5q-20 -14 -39.5 -27.5t-38.5 -27.5q-5 -4 -9.5 -9.5t-8.5 -11.5q-5 -10 -10.5 -12.5t-14.5 2.5q-7 3 -10 8q-19 27 -35.5 55.5t-24.5 60.5q-1 3 -1 7q0 2 1 2.5t2 2.5z" />
    <glyph glyph-name="Zcaron" unicode="&#x17d;" horiz-adv-x="384" 
d="M400 648q29 9 63.5 0t54.5 -32l-3 -6t-3 -4q-35 -22 -57.5 -54.5t-48.5 -63.5q-17 -20 -35.5 -39.5t-34.5 -41.5q-19 -26 -39 -49t-34 -52q-17 -35 -38.5 -67.5t-41.5 -66.5q0 -1 -0.5 -1t-0.5 -1q-17 -32 -32.5 -63l-31.5 -63q-2 -4 -2.5 -9t-2.5 -13q17 3 31.5 5
t29.5 5q45 10 90.5 19.5t91.5 18.5q14 2 28 2t28 -1q10 0 16 -0.5t9.5 -3.5t6 -9.5t6.5 -18.5q-17 -13 -37 -14.5t-40 -1.5q-27 1 -53.5 -4t-52.5 -12t-50.5 -17.5t-52.5 -13.5q-11 -1 -21.5 -8t-20.5 -13q-29 -18 -55 -11t-52 21q-6 2 -10.5 11t-4.5 16q1 14 3 28.5t9 25.5
q17 32 37 63t38 63q26 45 51 90t51 90q19 32 39 63.5t40 63.5l51 83q2 2 2 6t1 9q-12 2 -24 3t-23 2q-23 2 -45 3.5t-45 4.5q-17 2 -35 5t-35 8q-11 2 -20.5 9t-14.5 21q16 13 34 12.5t35 -3.5q20 -3 38.5 -8t38.5 -7q45 -7 88 0t86 21zM229 827q14 -8 24.5 -19t12.5 -29
q3 -19 16 -35l6 3q6 16 17 26.5t23.5 18.5t26 16t24.5 18q14 -11 25 -21.5t14 -27.5q-20 -14 -39.5 -27.5t-38.5 -27.5q-5 -4 -9.5 -9.5t-8.5 -11.5q-5 -10 -10.5 -12.5t-14.5 2.5q-7 3 -10 8q-19 27 -35.5 55.5t-24.5 60.5q-1 3 -1 7q0 2 1 2.5t2 2.5z" />
    <glyph glyph-name="zcaron" horiz-adv-x="322" 
d="M242 10q11 12 20 22t18 19q13 17 29.5 34.5t42.5 47.5q-5 -42 -21 -78.5t-36 -65.5q-8 -12 -19 -21.5t-22 -18.5q-17 -16 -41 -19t-50 1.5t-52.5 13t-47.5 16.5q-13 -2 -17.5 -2t-16.5 8q-5 4 -5.5 17.5t5.5 18.5q-3 17 4 30.5t20 26.5q34 34 66.5 69.5t67.5 73.5
q9 12 18 21.5t17 17.5q-11 0 -21.5 1t-20.5 1q-15 0 -29.5 0.5t-28.5 0.5h-8q-7 -8 -16.5 -22t-20.5 -34q-14 -26 -31.5 -51t-45.5 -55q5 11 7.5 26t9.5 38q4 15 11 32t16 34t20 33.5t24 28.5l1 1h8q5 1 17 -1.5t17 -2.5q14 2 26.5 1.5t25.5 0.5q8 1 18 2t18 -1q4 -1 8 -2.5
t9 -3.5l11 -2q16 12 37 4q13 -5 17.5 -18t2.5 -30q-27 -28 -47 -50t-39 -42.5t-38.5 -42.5t-45.5 -49q-14 -17 -25.5 -27t-19.5 -17q8 -4 20 -8t27 -6q13 -2 22.5 -4t20.5 -0.5t25.5 9t37.5 24.5zM116 444q14 -8 24.5 -19t12.5 -29q3 -19 16 -35l6 3q6 16 17 26.5t23.5 18.5
t26 16t24.5 18q14 -11 25 -21.5t14 -27.5q-20 -14 -39.5 -27.5t-38.5 -27.5q-5 -4 -9.5 -9.5t-8.5 -11.5q-5 -10 -10.5 -12.5t-14.5 2.5q-7 3 -10 8q-19 27 -35.5 55.5t-24.5 60.5q-1 3 -1 7q0 2 1 2.5t2 2.5z" />
    <glyph glyph-name="zcaron" unicode="&#x17e;" horiz-adv-x="322" 
d="M242 10q11 12 20 22t18 19q13 17 29.5 34.5t42.5 47.5q-5 -42 -21 -78.5t-36 -65.5q-8 -12 -19 -21.5t-22 -18.5q-17 -16 -41 -19t-50 1.5t-52.5 13t-47.5 16.5q-13 -2 -17.5 -2t-16.5 8q-5 4 -5.5 17.5t5.5 18.5q-3 17 4 30.5t20 26.5q34 34 66.5 69.5t67.5 73.5
q9 12 18 21.5t17 17.5q-11 0 -21.5 1t-20.5 1q-15 0 -29.5 0.5t-28.5 0.5h-8q-7 -8 -16.5 -22t-20.5 -34q-14 -26 -31.5 -51t-45.5 -55q5 11 7.5 26t9.5 38q4 15 11 32t16 34t20 33.5t24 28.5l1 1h8q5 1 17 -1.5t17 -2.5q14 2 26.5 1.5t25.5 0.5q8 1 18 2t18 -1q4 -1 8 -2.5
t9 -3.5l11 -2q16 12 37 4q13 -5 17.5 -18t2.5 -30q-27 -28 -47 -50t-39 -42.5t-38.5 -42.5t-45.5 -49q-14 -17 -25.5 -27t-19.5 -17q8 -4 20 -8t27 -6q13 -2 22.5 -4t20.5 -0.5t25.5 9t37.5 24.5zM116 444q14 -8 24.5 -19t12.5 -29q3 -19 16 -35l6 3q6 16 17 26.5t23.5 18.5
t26 16t24.5 18q14 -11 25 -21.5t14 -27.5q-20 -14 -39.5 -27.5t-38.5 -27.5q-5 -4 -9.5 -9.5t-8.5 -11.5q-5 -10 -10.5 -12.5t-14.5 2.5q-7 3 -10 8q-19 27 -35.5 55.5t-24.5 60.5q-1 3 -1 7q0 2 1 2.5t2 2.5z" />
    <glyph glyph-name="caron" unicode="&#xa1;" horiz-adv-x="179" 
d="M3 508q14 -8 24.5 -19t12.5 -29q3 -19 16 -35l6 3q6 16 17 26.5t23.5 18.5t26 16t24.5 18q14 -11 25 -21.5t14 -27.5q-20 -14 -39.5 -27.5t-38.5 -27.5q-5 -4 -9.5 -9.5t-8.5 -11.5q-5 -10 -10.5 -12.5t-14.5 2.5q-7 3 -10 8q-19 27 -35.5 55.5t-24.5 60.5q-1 3 -1 7
q0 2 1 2.5t2 2.5z" />
    <glyph glyph-name="caron" unicode="&#x2c7;" horiz-adv-x="179" 
d="M3 508q14 -8 24.5 -19t12.5 -29q3 -19 16 -35l6 3q6 16 17 26.5t23.5 18.5t26 16t24.5 18q14 -11 25 -21.5t14 -27.5q-20 -14 -39.5 -27.5t-38.5 -27.5q-5 -4 -9.5 -9.5t-8.5 -11.5q-5 -10 -10.5 -12.5t-14.5 2.5q-7 3 -10 8q-19 27 -35.5 55.5t-24.5 60.5q-1 3 -1 7
q0 2 1 2.5t2 2.5z" />
    <glyph glyph-name="breve" unicode="&#xa2;" horiz-adv-x="194" 
d="M79 416q9 -1 15.5 -2t11.5 1q11 5 21 11.5t20 13.5q27 19 67 6q-6 -7 -9.5 -13t-8.5 -9q-17 -11 -34.5 -20.5t-34.5 -21.5q-10 -8 -20.5 -10.5t-21.5 -2.5t-22 1t-22 0q-4 0 -8 4q-15 11 -23.5 26.5t-9.5 33t5.5 34.5t20.5 31q38 -15 52 -35.5t1 -47.5z" />
    <glyph glyph-name="breve" unicode="&#x2d8;" horiz-adv-x="194" 
d="M79 416q9 -1 15.5 -2t11.5 1q11 5 21 11.5t20 13.5q27 19 67 6q-6 -7 -9.5 -13t-8.5 -9q-17 -11 -34.5 -20.5t-34.5 -21.5q-10 -8 -20.5 -10.5t-21.5 -2.5t-22 1t-22 0q-4 0 -8 4q-15 11 -23.5 26.5t-9.5 33t5.5 34.5t20.5 31q38 -15 52 -35.5t1 -47.5z" />
    <glyph glyph-name="dieresis" unicode="&#xa8;" horiz-adv-x="230" 
d="M208 415l7 -42l-15 -3q-14 -2 -26 -0.5t-20 18.5q-8 19 -9 36t13 34q6 7 13.5 12t15.5 13q11 -10 21 -18.5t19 -18.5q11 -10 10 -15.5t-15 -11.5zM89 425q-6 14 -15 25.5t-19 22.5q-2 3 -8 3.5t-11 0.5q-17 -2 -27 -14.5t-9 -29.5q1 -20 14.5 -35t30.5 -16q10 0 19 4
t16 10.5t9.5 14t-0.5 14.5z" />
    <glyph glyph-name="acute" unicode="&#xb4;" horiz-adv-x="108" 
d="M50 522q17 -8 29 -21.5t23 -27.5l-86 -104q-11 7 -14.5 13.5t0.5 20.5q3 13 9 23q12 20 21 41t11 44q0 3 2 7z" />
    <glyph glyph-name="cedilla" unicode="&#xb8;" horiz-adv-x="164" 
d="M70 -138q10 1 19 1t19 2q35 4 58 -23q11 -13 9.5 -25.5t-14.5 -21.5q-20 -15 -41.5 -27.5t-49.5 -13.5q-21 -1 -41 -7t-40 -11q-4 -1 -8 -1t-6 2q-4 6 -9 11t-9 10.5t-6 12.5t0 16l141 41q-10 5 -14.5 7t-9.5 4q-26 9 -33 28.5t7 42.5q9 15 17.5 29.5t18.5 28.5
q12 17 22.5 19t27.5 -10q6 -4 11 -9.5t11 -11.5q-27 -19 -46.5 -40.5t-36.5 -45.5z" />
    <glyph glyph-name="Aacute" unicode="&#xc1;" horiz-adv-x="422" 
d="M376 17q1 3 9.5 5t13.5 1q15 -2 18 -17q2 -8 -0.5 -18.5t-6.5 -21t-35.5 -26.5t-70.5 50q-16 43 -30.5 86t-16.5 90l-8 200q-1 11 -2.5 21.5t-3.5 21.5h-5q-7 -21 -13.5 -42t-11.5 -42q-8 -37 -15 -73.5t-13 -74.5q-5 -26 -7.5 -53t-7.5 -53q-2 -19 -5 -37.5t-8 -36.5
q-5 -20 -15.5 -27t-30.5 -5q-14 1 -27 2t-26 6q-17 7 -26.5 21.5t-15.5 30.5q-11 27 -13.5 55t-2.5 57q0 35 1 69t3 69q2 38 5.5 76t8.5 76q3 29 6.5 57t9.5 56q5 20 12.5 38t14.5 37q8 21 24 28t34 5q32 -5 62.5 -11.5t109.5 -81.5q4 -5 13 -16q2 -2 3.5 -7.5t-0.5 -7.5
q-2 -3 -7 -5t-8 -1q-12 3 -39 38.5t-51 47.5q-32 10 -50 -3t-20 -46t-2 -66t-5 -65q-11 -37 -9 -77.5t-11 -78.5q-4 -12 -3 -25l2 -26q1 -26 3 -52.5t7 -53.5q2 3 3.5 6.5t2.5 6.5q11 35 21 69.5t21 68.5l34 96l34 96q5 12 7.5 24.5t7.5 23.5q2 7 6.5 13.5t10.5 8.5
q31 14 61 -1q4 -2 7 -8t4 -11q5 -35 4 -69t-3 -69q-6 -85 -2.5 -168.5t30.5 -166.5q4 -12 5.5 -21t7.5 7zM211 872q17 -8 29 -21.5t23 -27.5l-86 -104q-11 7 -14.5 13.5t0.5 20.5q3 13 9 23q12 20 21 41t11 44q0 3 2 7z" />
    <glyph glyph-name="Acircumflex" unicode="&#xc2;" horiz-adv-x="422" 
d="M376 17q1 3 9.5 5t13.5 1q15 -2 18 -17q2 -8 -0.5 -18.5t-6.5 -21t-35.5 -26.5t-70.5 50q-16 43 -30.5 86t-16.5 90l-8 200q-1 11 -2.5 21.5t-3.5 21.5h-5q-7 -21 -13.5 -42t-11.5 -42q-8 -37 -15 -73.5t-13 -74.5q-5 -26 -7.5 -53t-7.5 -53q-2 -19 -5 -37.5t-8 -36.5
q-5 -20 -15.5 -27t-30.5 -5q-14 1 -27 2t-26 6q-17 7 -26.5 21.5t-15.5 30.5q-11 27 -13.5 55t-2.5 57q0 35 1 69t3 69q2 38 5.5 76t8.5 76q3 29 6.5 57t9.5 56q5 20 12.5 38t14.5 37q8 21 24 28t34 5q32 -5 62.5 -11.5t109.5 -81.5q4 -5 13 -16q2 -2 3.5 -7.5t-0.5 -7.5
q-2 -3 -7 -5t-8 -1q-12 3 -39 38.5t-51 47.5q-32 10 -50 -3t-20 -46t-2 -66t-5 -65q-11 -37 -9 -77.5t-11 -78.5q-4 -12 -3 -25l2 -26q1 -26 3 -52.5t7 -53.5q2 3 3.5 6.5t2.5 6.5q11 35 21 69.5t21 68.5l34 96l34 96q5 12 7.5 24.5t7.5 23.5q2 7 6.5 13.5t10.5 8.5
q31 14 61 -1q4 -2 7 -8t4 -11q5 -35 4 -69t-3 -69q-6 -85 -2.5 -168.5t30.5 -166.5q4 -12 5.5 -21t7.5 7zM253 813l-39 -32q-9 -8 -18.5 -14t-17.5 -14q-4 -3 -6.5 -8t-5.5 -9q-12 -14 -29 3q-17 18 -18 30t13 26q21 18 41 36.5t40 37.5q2 2 5 4l6 4l14 -7
q23 -10 31.5 -20.5t11.5 -33.5q1 -8 3.5 -15.5t4.5 -15.5q5 -13 9 -25.5t8 -26.5q2 -3 1.5 -6t-0.5 -8q-11 3 -15.5 9.5t-7.5 14.5l-19 47q-2 5 -5 10t-7 13z" />
    <glyph glyph-name="Adieresis" unicode="&#xc4;" horiz-adv-x="422" 
d="M376 17q1 3 9.5 5t13.5 1q15 -2 18 -17q2 -8 -0.5 -18.5t-6.5 -21t-35.5 -26.5t-70.5 50q-16 43 -30.5 86t-16.5 90l-8 200q-1 11 -2.5 21.5t-3.5 21.5h-5q-7 -21 -13.5 -42t-11.5 -42q-8 -37 -15 -73.5t-13 -74.5q-5 -26 -7.5 -53t-7.5 -53q-2 -19 -5 -37.5t-8 -36.5
q-5 -20 -15.5 -27t-30.5 -5q-14 1 -27 2t-26 6q-17 7 -26.5 21.5t-15.5 30.5q-11 27 -13.5 55t-2.5 57q0 35 1 69t3 69q2 38 5.5 76t8.5 76q3 29 6.5 57t9.5 56q5 20 12.5 38t14.5 37q8 21 24 28t34 5q32 -5 62.5 -11.5t109.5 -81.5q4 -5 13 -16q2 -2 3.5 -7.5t-0.5 -7.5
q-2 -3 -7 -5t-8 -1q-12 3 -39 38.5t-51 47.5q-32 10 -50 -3t-20 -46t-2 -66t-5 -65q-11 -37 -9 -77.5t-11 -78.5q-4 -12 -3 -25l2 -26q1 -26 3 -52.5t7 -53.5q2 3 3.5 6.5t2.5 6.5q11 35 21 69.5t21 68.5l34 96l34 96q5 12 7.5 24.5t7.5 23.5q2 7 6.5 13.5t10.5 8.5
q31 14 61 -1q4 -2 7 -8t4 -11q5 -35 4 -69t-3 -69q-6 -85 -2.5 -168.5t30.5 -166.5q4 -12 5.5 -21t7.5 7zM299 765l7 -42l-15 -3q-14 -2 -26 -0.5t-20 18.5q-8 19 -9 36t13 34q6 7 13.5 12t15.5 13q11 -10 21 -18.5t19 -18.5q11 -10 10 -15.5t-15 -11.5zM180 775
q-6 14 -15 25.5t-19 22.5q-2 3 -8 3.5t-11 0.5q-17 -2 -27 -14.5t-9 -29.5q1 -20 14.5 -35t30.5 -16q10 0 19 4t16 10.5t9.5 14t-0.5 14.5z" />
    <glyph glyph-name="Ccedilla" unicode="&#xc7;" 
d="M338 641q11 -5 21.5 -20t3.5 -37q-13 -42 -25.5 -83.5t-12.5 -34.5q-2 -3 -4 -11q-15 -36 -39 -58t-50 -2q-10 23 1 43t22.5 49t34.5 65t24 65q-12 29 -51.5 28l-39.5 -1q-20 -3 -30 -15.5t-14.5 -37t-8 -48t-9.5 -53.5q-10 -53 -13 -63.5t-6 -25.5l-2 -6t-1 -6l-13 -164
q0 -6 -3 -11t-2 -17q-10 -33 -10 -48.5t2 -31.5q1 -29 1 -65q1 -8 2 -17t5 -17q8 -14 21.5 -30.5t40.5 -9.5q6 -1 18 22t15.5 33.5t-3 36t-2.5 35.5q-10 63 37.5 95t53 30.5t0.5 -19t-12.5 -42.5t-9.5 -43t-6 -36l-9 -38q-2 -11 -5.5 -22t-4.5 -22q-2 -19 -10 -35t-21 -26.5
t-24 -13t-39 -2.5q-19 5 -38 13.5t-35 18.5q-13 8 -24.5 19t-19.5 24q-12 20 -23 40.5t-13 44.5q-2 17 -4 35t-3 36q-1 42 -1.5 82.5t1.5 82.5q0 21 3 41.5t5 41.5q1 5 2 10.5t1 10.5q1 66 37 128q6 18 13 29.5t14 27.5q11 23 28.5 36t48.5 16q36 6 67.5 2.5l67.5 -7.5
q14 -6 22.5 -9.5t27.5 -12.5zM39 231l-3 3l-1 -1q-1 0 -1 -1l2 -4zM133 -144q10 1 19 1t19 2q35 4 58 -23q11 -13 9.5 -25.5t-14.5 -21.5q-20 -15 -41.5 -27.5t-49.5 -13.5q-21 -1 -41 -7t-40 -11q-4 -1 -8 -1t-6 2q-4 6 -9 11t-9 10.5t-6 12.5t0 16l141 41q-10 5 -14.5 7
t-9.5 4q-26 9 -33 28.5t7 42.5q9 15 17.5 29.5t18.5 28.5q12 17 22.5 19t27.5 -10q6 -4 11 -9.5t11 -11.5q-27 -19 -46.5 -40.5t-36.5 -45.5z" />
    <glyph glyph-name="Eacute" unicode="&#xc9;" 
d="M320 649q16 -5 29 -15t21 -25q5 -10 8 -21.5t1 -20.5q-11 -37 -19 -60t-31 -55q-11 -17 -32 -33.5t-38 -14.5t-22.5 13.5t1.5 26.5q13 27 25.5 54t31.5 52q13 24 14 35.5t-7 25.5t-22.5 18.5t-29.5 8.5q-17 3 -24 -1t-15 -18q-33 -44 -69 -169q-1 -47 38 -92t43.5 -51.5
t8.5 -14.5q11 -18 3 -30t-27 -14q-11 -2 -48.5 -49.5t-41 -74.5t-1 -66t16.5 -60t28 -6t36.5 40t45.5 50q7 8 13.5 16t14.5 15q12 10 26 14t11 -18.5t-18.5 -44.5t-32.5 -44l-34 -40t-36 -38q-17 -15 -37 -22t-43 -1q-7 2 -13.5 2t-13.5 2q-17 3 -31.5 10t-26 19t-17.5 30
t-6 43q1 22 1 43.5t2 42.5q3 26 11 51t28 48q80 71 109 75q22 4 -8 34.5t-54 101.5t-9.5 129.5t61 93t73.5 32.5t48.5 -8.5t32.5 -10.5t25 -8zM167 322q1 1 1 2l-2 2q0 -1 -0.5 -2t-0.5 -2h2zM253 872q17 -8 29 -21.5t23 -27.5l-86 -104q-11 7 -14.5 13.5t0.5 20.5
q3 13 9 23q12 20 21 41t11 44q0 3 2 7z" />
    <glyph glyph-name="Edieresis" unicode="&#xcb;" 
d="M320 649q16 -5 29 -15t21 -25q5 -10 8 -21.5t1 -20.5q-11 -37 -19 -60t-31 -55q-11 -17 -32 -33.5t-38 -14.5t-22.5 13.5t1.5 26.5q13 27 25.5 54t31.5 52q13 24 14 35.5t-7 25.5t-22.5 18.5t-29.5 8.5q-17 3 -24 -1t-15 -18q-33 -44 -69 -169q-1 -47 38 -92t43.5 -51.5
t8.5 -14.5q11 -18 3 -30t-27 -14q-11 -2 -48.5 -49.5t-41 -74.5t-1 -66t16.5 -60t28 -6t36.5 40t45.5 50q7 8 13.5 16t14.5 15q12 10 26 14t11 -18.5t-18.5 -44.5t-32.5 -44l-34 -40t-36 -38q-17 -15 -37 -22t-43 -1q-7 2 -13.5 2t-13.5 2q-17 3 -31.5 10t-26 19t-17.5 30
t-6 43q1 22 1 43.5t2 42.5q3 26 11 51t28 48q80 71 109 75q22 4 -8 34.5t-54 101.5t-9.5 129.5t61 93t73.5 32.5t48.5 -8.5t32.5 -10.5t25 -8zM167 322q1 1 1 2l-2 2q0 -1 -0.5 -2t-0.5 -2h2zM303 765l7 -42l-15 -3q-14 -2 -26 -0.5t-20 18.5q-8 19 -9 36t13 34q6 7 13.5 12
t15.5 13q11 -10 21 -18.5t19 -18.5q11 -10 10 -15.5t-15 -11.5zM184 775q-6 14 -15 25.5t-19 22.5q-2 3 -8 3.5t-11 0.5q-17 -2 -27 -14.5t-9 -29.5q1 -20 14.5 -35t30.5 -16q10 0 19 4t16 10.5t9.5 14t-0.5 14.5z" />
    <glyph glyph-name="Iacute" unicode="&#xcd;" horiz-adv-x="229" 
d="M304 639q-8 -6 -12 -7q-14 -1 -27 0t-26 -1q-17 -2 -21.5 -7.5t-6.5 -22.5l-34 -238q-2 -18 -4.5 -36.5t-1.5 -37.5q2 -35 -3.5 -69.5t-6.5 -69.5q-1 -15 0 -30t1 -30q-1 0 -1 -0.5t-1 -0.5q1 0 1.5 0.5t1.5 0.5q0 -14 0.5 -26.5t1 -34.5t-81.5 -59q-23 23 -16 81
q1 16 1.5 28.5t2.5 23.5q4 46 7.5 91.5t8.5 90.5q8 75 16 149t16 149q1 8 0 14.5t0 17.5q-13 -1 -26.5 -2.5t-52 -7.5t-31 15t22 26.5t33 7.5t37.5 4l140 11q16 2 45.5 6t24.5 -19q1 -2 -8 -17zM120 -29q-7 0 -18.5 -1.5t-24 -3.5t-24.5 -4t-19 -3q-6 -2 -13.5 -3t-12.5 -3
t-7 -4.5t1 -6.5q5 -7 12 -13.5t21 1.5q63 10 90 12q67 10 79 10h24q9 1 11 8.5t8 27.5q-11 -2 -28 -1.5t-99 -15.5zM174 872q17 -8 29 -21.5t23 -27.5l-86 -104q-11 7 -14.5 13.5t0.5 20.5q3 13 9 23q12 20 21 41t11 44q0 3 2 7z" />
    <glyph glyph-name="Icircumflex" unicode="&#xce;" horiz-adv-x="229" 
d="M304 639q-8 -6 -12 -7q-14 -1 -27 0t-26 -1q-17 -2 -21.5 -7.5t-6.5 -22.5l-34 -238q-2 -18 -4.5 -36.5t-1.5 -37.5q2 -35 -3.5 -69.5t-6.5 -69.5q-1 -15 0 -30t1 -30q-1 0 -1 -0.5t-1 -0.5q1 0 1.5 0.5t1.5 0.5q0 -14 0.5 -26.5t1 -34.5t-81.5 -59q-23 23 -16 81
q1 16 1.5 28.5t2.5 23.5q4 46 7.5 91.5t8.5 90.5q8 75 16 149t16 149q1 8 0 14.5t0 17.5q-13 -1 -26.5 -2.5t-52 -7.5t-31 15t22 26.5t33 7.5t37.5 4l140 11q16 2 45.5 6t24.5 -19q1 -2 -8 -17zM120 -29q-7 0 -18.5 -1.5t-24 -3.5t-24.5 -4t-19 -3q-6 -2 -13.5 -3t-12.5 -3
t-7 -4.5t1 -6.5q5 -7 12 -13.5t21 1.5q63 10 90 12q67 10 79 10h24q9 1 11 8.5t8 27.5q-11 -2 -28 -1.5t-99 -15.5zM210 813l-39 -32q-9 -8 -18.5 -14t-17.5 -14q-4 -3 -6.5 -8t-5.5 -9q-12 -14 -29 3q-17 18 -18 30t13 26q21 18 41 36.5t40 37.5q2 2 5 4l6 4l14 -7
q23 -10 31.5 -20.5t11.5 -33.5q1 -8 3.5 -15.5t4.5 -15.5q5 -13 9 -25.5t8 -26.5q2 -3 1.5 -6t-0.5 -8q-11 3 -15.5 9.5t-7.5 14.5l-19 47q-2 5 -5 10t-7 13z" />
    <glyph glyph-name="Oacute" unicode="&#xd3;" horiz-adv-x="367" 
d="M328 474q13 -64 11 -202q-2 -21 -5 -42l-6 -42q-8 -50 -20.5 -97.5t-31.5 -93.5q-9 -23 -26 -28t-36 -16t-29.5 -14.5t-23.5 -1.5q-29 5 -53.5 14.5t-43 26t-31.5 41t-23.5 84.5t-9.5 73q2 32 5 63t10 63q7 28 18 116q5 42 18 81t48 132q17 50 30.5 40.5t23.5 -12.5
q6 -5 15 -9q17 -8 26 -16.5t13 -13.5t2 -15t-7 -27q-11 -36 -33 -72t-33 -72q-2 -8 -4.5 -16t-6.5 -38t-12.5 -115.5t-4.5 -202.5l2.5 -22.5t10 -49.5t27.5 -17.5t28 27.5q5 16 11.5 27t11.5 23q20 47 32 96t19 100q2 15 3 29.5t2 29.5q2 25 3.5 49t1.5 49q-1 26 -2 53.5
t-12 68.5q-7 20 -19.5 36.5t-19.5 33.5q53 -7 66 -17.5t31 -19t24 -84.5zM106 389h-1h1zM240 866q17 -8 29 -21.5t23 -27.5l-86 -104q-11 7 -14.5 13.5t0.5 20.5q3 13 9 23q12 20 21 41t11 44q0 3 2 7z" />
    <glyph glyph-name="Ocircumflex" unicode="&#xd4;" horiz-adv-x="367" 
d="M328 474q13 -64 11 -202q-2 -21 -5 -42l-6 -42q-8 -50 -20.5 -97.5t-31.5 -93.5q-9 -23 -26 -28t-36 -16t-29.5 -14.5t-23.5 -1.5q-29 5 -53.5 14.5t-43 26t-31.5 41t-23.5 84.5t-9.5 73q2 32 5 63t10 63q7 28 18 116q5 42 18 81t48 132q17 50 30.5 40.5t23.5 -12.5
q6 -5 15 -9q17 -8 26 -16.5t13 -13.5t2 -15t-7 -27q-11 -36 -33 -72t-33 -72q-2 -8 -4.5 -16t-6.5 -38t-12.5 -115.5t-4.5 -202.5l2.5 -22.5t10 -49.5t27.5 -17.5t28 27.5q5 16 11.5 27t11.5 23q20 47 32 96t19 100q2 15 3 29.5t2 29.5q2 25 3.5 49t1.5 49q-1 26 -2 53.5
t-12 68.5q-7 20 -19.5 36.5t-19.5 33.5q53 -7 66 -17.5t31 -19t24 -84.5zM106 389h-1h1zM226 813l-39 -32q-9 -8 -18.5 -14t-17.5 -14q-4 -3 -6.5 -8t-5.5 -9q-12 -14 -29 3q-17 18 -18 30t13 26q21 18 41 36.5t40 37.5q2 2 5 4l6 4l14 -7q23 -10 31.5 -20.5t11.5 -33.5
q1 -8 3.5 -15.5t4.5 -15.5q5 -13 9 -25.5t8 -26.5q2 -3 1.5 -6t-0.5 -8q-11 3 -15.5 9.5t-7.5 14.5l-19 47q-2 5 -5 10t-7 13z" />
    <glyph glyph-name="Odieresis" unicode="&#xd6;" horiz-adv-x="367" 
d="M328 474q13 -64 11 -202q-2 -21 -5 -42l-6 -42q-8 -50 -20.5 -97.5t-31.5 -93.5q-9 -23 -26 -28t-36 -16t-29.5 -14.5t-23.5 -1.5q-29 5 -53.5 14.5t-43 26t-31.5 41t-23.5 84.5t-9.5 73q2 32 5 63t10 63q7 28 18 116q5 42 18 81t48 132q17 50 30.5 40.5t23.5 -12.5
q6 -5 15 -9q17 -8 26 -16.5t13 -13.5t2 -15t-7 -27q-11 -36 -33 -72t-33 -72q-2 -8 -4.5 -16t-6.5 -38t-12.5 -115.5t-4.5 -202.5l2.5 -22.5t10 -49.5t27.5 -17.5t28 27.5q5 16 11.5 27t11.5 23q20 47 32 96t19 100q2 15 3 29.5t2 29.5q2 25 3.5 49t1.5 49q-1 26 -2 53.5
t-12 68.5q-7 20 -19.5 36.5t-19.5 33.5q53 -7 66 -17.5t31 -19t24 -84.5zM106 389h-1h1zM271 765l7 -42l-15 -3q-14 -2 -26 -0.5t-20 18.5q-8 19 -9 36t13 34q6 7 13.5 12t15.5 13q11 -10 21 -18.5t19 -18.5q11 -10 10 -15.5t-15 -11.5zM152 775q-6 14 -15 25.5t-19 22.5
q-2 3 -8 3.5t-11 0.5q-17 -2 -27 -14.5t-9 -29.5q1 -20 14.5 -35t30.5 -16q10 0 19 4t16 10.5t9.5 14t-0.5 14.5z" />
    <glyph glyph-name="Uacute" unicode="&#xda;" horiz-adv-x="350" 
d="M284 603q10 14 23 22.5t-1.5 -71t-15 -152.5t4.5 -148q2 -27 2 -54t1 -54q0 -17 -0.5 -32.5t-0.5 -32.5q-3 -58 -46 -97q-12 -11 -34 -17.5t-46.5 -8.5t-48 0t-37.5 9q-26 13 -36 35l-37 89q-6 20 -10 42t-2 43q7 104 7 206.5t-1 206.5q0 6 -0.5 12t-1.5 12
q30 25 43 25.5t27 -1.5q7 -1 14.5 -5.5t18 -25t10.5 -32.5q2 -34 0.5 -67t-2.5 -66q0 -11 0.5 -22.5t0.5 -22.5q1 -26 1.5 -51.5t-0.5 -51.5q-1 -18 -5 -36t-6 -36q-2 -22 -2.5 -44t2.5 -43q1 -11 26 -112q4 -6 31.5 -9t37.5 1.5t20 23t13.5 41t4.5 45.5q3 55 4.5 109
t3.5 109q2 50 6 98.5t15 97.5q5 50 16 65zM200 841q17 -8 29 -21.5t23 -27.5l-86 -104q-11 7 -14.5 13.5t0.5 20.5q3 13 9 23q12 20 21 41t11 44q0 3 2 7z" />
    <glyph glyph-name="Udieresis" unicode="&#xdc;" horiz-adv-x="350" 
d="M284 603q10 14 23 22.5t-1.5 -71t-15 -152.5t4.5 -148q2 -27 2 -54t1 -54q0 -17 -0.5 -32.5t-0.5 -32.5q-3 -58 -46 -97q-12 -11 -34 -17.5t-46.5 -8.5t-48 0t-37.5 9q-26 13 -36 35l-37 89q-6 20 -10 42t-2 43q7 104 7 206.5t-1 206.5q0 6 -0.5 12t-1.5 12
q30 25 43 25.5t27 -1.5q7 -1 14.5 -5.5t18 -25t10.5 -32.5q2 -34 0.5 -67t-2.5 -66q0 -11 0.5 -22.5t0.5 -22.5q1 -26 1.5 -51.5t-0.5 -51.5q-1 -18 -5 -36t-6 -36q-2 -22 -2.5 -44t2.5 -43q1 -11 26 -112q4 -6 31.5 -9t37.5 1.5t20 23t13.5 41t4.5 45.5q3 55 4.5 109
t3.5 109q2 50 6 98.5t15 97.5q5 50 16 65zM263 731l7 -42l-15 -3q-14 -2 -26 -0.5t-20 18.5q-8 19 -9 36t13 34q6 7 13.5 12t15.5 13q11 -10 21 -18.5t19 -18.5q11 -10 10 -15.5t-15 -11.5zM144 741q-6 14 -15 25.5t-19 22.5q-2 3 -8 3.5t-11 0.5q-17 -2 -27 -14.5t-9 -29.5
q1 -20 14.5 -35t30.5 -16q10 0 19 4t16 10.5t9.5 14t-0.5 14.5z" />
    <glyph glyph-name="Yacute" unicode="&#xdd;" horiz-adv-x="246" 
d="M444 642q-11 -8 -17.5 -13t-13.5 -8q-23 -11 -37.5 -29.5t-29.5 -36.5l-86 -100q-14 -15 -27.5 -30t-27.5 -29q-15 -13 -8 -32q7 -20 6.5 -36.5t-14.5 -35.5q-8 -11 -9 -28t-2 -33q-1 -26 -0.5 -51t0.5 -51q0 -9 -1 -18.5t-1 -19.5l-6 -134q-1 -26 -31 -33
q-19 -5 -36 -1.5t-34 8.5q-19 7 -19 28q1 26 0 52.5t-1 52.5t2 52t8 52q3 11 2.5 22.5t0.5 22.5q0 16 -1 31.5t1 31.5q5 38 -6.5 71.5t-31.5 65.5q-5 8 -9.5 15t-1.5 17l-28 47l-65 115l-27 52q9 7 21.5 11t25.5 4.5t25 -2t21 -7.5q26 -16 40.5 -40t29.5 -47q4 -6 3 -14.5
t0 -16.5q4 -1 7 -2l6 -2q20 -11 25.5 -29t11.5 -37l4 -11v1q2 -6 4 -11.5t4 -10.5q6 -3 13 -1t12 -8q6 -11 14.5 -11t18.5 8q6 5 11.5 10t9.5 11q27 38 56.5 72t51.5 76q5 9 11.5 17t13.5 16q10 11 20.5 16.5t26.5 0.5q14 -4 29 -5.5t35 -4.5zM41 528q0 -19 2.5 -22t17.5 -1
q-5 6 -6 14t-14 9zM106 456l-4 -3l3 -4q0 2 1 2.5t1 2.5zM102 412q3 0 4 1l-3 3l-3 -3l1 -1h1zM76 524h-2l1 -2zM169 826q17 -8 29 -21.5t23 -27.5l-86 -104q-11 7 -14.5 13.5t0.5 20.5q3 13 9 23q12 20 21 41t11 44q0 3 2 7z" />
    <glyph glyph-name="germandbls" unicode="&#xdf;" horiz-adv-x="390" 
d="M333 197q6 -21 10 -53t-2 -77l-4 -49q-15 -37 -37 -61.5t-69 -32.5q-57 -9 -83 6t-29 59q-3 33 16 60l21 -23q-14 -27 -5.5 -50t26.5 -25q24 -5 46.5 16.5t24.5 63.5l-2 40q4 17 2.5 34t-1.5 34q-1 29 -9 57.5t-22 54.5q-7 12 -19 26q-9 -12 -16.5 -11.5t-12 8t-5 18
t4.5 17.5t14.5 36t17.5 72.5t12 97.5t0 111q1 14 -2 25.5t-14 25.5q-7 3 -13.5 2t-11.5 -4.5t-8.5 -8t-3.5 -7.5q-15 -26 -21 -63.5t-18 -75.5q-2 -6 -2 -9q-2 -12 -4 -34t-4.5 -47t-4.5 -47t-3 -34q-1 -10 -2.5 -38.5t-2.5 -61t-2 -62t-1 -39.5q0 -12 -1 -29t-1.5 -35
t-1.5 -34.5t-2 -28.5q-2 -21 -7 -41.5t-7 -41.5q-3 -26 -4 -53t-3 -53l-3 -42q-8 1 -11.5 1.5t-6 1t-5.5 1.5t-9 2q-29 6 -29 39q0 20 -1 40.5t-1 40.5q-1 38 -1 75v75q0 3 1 13t2 21.5t2 22t1 15.5q1 27 3.5 60.5t5.5 68.5t6.5 68.5t7.5 60.5q8 56 20 110.5t26 109.5
q4 16 14 35t25.5 36t36.5 28.5t47 11.5q12 0 22 -18.5t17 -43t10 -48.5t0 -33q6 -42 4.5 -82t-6.5 -74.5t-13 -63.5t-17 -50l13 -5q38 -17 66 -43.5t39 -68.5z" />
    <glyph glyph-name="aacute" unicode="&#xe1;" horiz-adv-x="341" 
d="M268 33q17 25 45 53t58 48q-13 -30 -24 -52t-21.5 -39t-19.5 -30.5t-17 -26.5q-10 -12 -23.5 -17.5t-27 -3.5t-25.5 10t-19 23q-6 11 -10 23.5t-10 28.5q-9 -15 -16.5 -28t-13.5 -26q-14 -30 -31 -35t-42 -3q-20 2 -37 10t-28 27q-1 2 -2.5 14.5t-2.5 30t-0.5 37.5
t3.5 36q11 47 24.5 76t26.5 56l10 20t11 19q10 16 30 15q17 -2 33 -1.5t33 -1.5q51 -6 58 -12.5t18 -10.5q3 -2 5.5 -6l7.5 -12q-13 -2 -22.5 -4t-18.5 -1q-46 13 -54 8t-16 -16q-14 -21 -23.5 -44t-17.5 -48t-13 -49.5t-7 -50.5v-29q7 6 11 9.5t6 7.5q14 23 26 46t26 45
q12 19 25 36.5t26 34.5q11 16 28 12q4 -1 7.5 -0.5t7.5 -0.5q32 -2 38 -11.5t-4 -39.5q-9 -27 -13.5 -55t-6.5 -57q0 -3 0.5 -6.5t1.5 -8.5zM184 513q17 -8 29 -21.5t23 -27.5l-86 -104q-11 7 -14.5 13.5t0.5 20.5q3 13 9 23q12 20 21 41t11 44q0 3 2 7z" />
    <glyph glyph-name="acircumflex" unicode="&#xe2;" horiz-adv-x="341" 
d="M268 33q17 25 45 53t58 48q-13 -30 -24 -52t-21.5 -39t-19.5 -30.5t-17 -26.5q-10 -12 -23.5 -17.5t-27 -3.5t-25.5 10t-19 23q-6 11 -10 23.5t-10 28.5q-9 -15 -16.5 -28t-13.5 -26q-14 -30 -31 -35t-42 -3q-20 2 -37 10t-28 27q-1 2 -2.5 14.5t-2.5 30t-0.5 37.5
t3.5 36q11 47 24.5 76t26.5 56l10 20t11 19q10 16 30 15q17 -2 33 -1.5t33 -1.5q51 -6 58 -12.5t18 -10.5q3 -2 5.5 -6l7.5 -12q-13 -2 -22.5 -4t-18.5 -1q-46 13 -54 8t-16 -16q-14 -21 -23.5 -44t-17.5 -48t-13 -49.5t-7 -50.5v-29q7 6 11 9.5t6 7.5q14 23 26 46t26 45
q12 19 25 36.5t26 34.5q11 16 28 12q4 -1 7.5 -0.5t7.5 -0.5q32 -2 38 -11.5t-4 -39.5q-9 -27 -13.5 -55t-6.5 -57q0 -3 0.5 -6.5t1.5 -8.5zM207 441l-39 -32q-9 -8 -18.5 -14t-17.5 -14q-4 -3 -6.5 -8t-5.5 -9q-12 -14 -29 3q-17 18 -18 30t13 26q21 18 41 36.5t40 37.5
q2 2 5 4l6 4l14 -7q23 -10 31.5 -20.5t11.5 -33.5q1 -8 3.5 -15.5t4.5 -15.5q5 -13 9 -25.5t8 -26.5q2 -3 1.5 -6t-0.5 -8q-11 3 -15.5 9.5t-7.5 14.5l-19 47q-2 5 -5 10t-7 13z" />
    <glyph glyph-name="adieresis" unicode="&#xe4;" horiz-adv-x="341" 
d="M268 33q17 25 45 53t58 48q-13 -30 -24 -52t-21.5 -39t-19.5 -30.5t-17 -26.5q-10 -12 -23.5 -17.5t-27 -3.5t-25.5 10t-19 23q-6 11 -10 23.5t-10 28.5q-9 -15 -16.5 -28t-13.5 -26q-14 -30 -31 -35t-42 -3q-20 2 -37 10t-28 27q-1 2 -2.5 14.5t-2.5 30t-0.5 37.5
t3.5 36q11 47 24.5 76t26.5 56l10 20t11 19q10 16 30 15q17 -2 33 -1.5t33 -1.5q51 -6 58 -12.5t18 -10.5q3 -2 5.5 -6l7.5 -12q-13 -2 -22.5 -4t-18.5 -1q-46 13 -54 8t-16 -16q-14 -21 -23.5 -44t-17.5 -48t-13 -49.5t-7 -50.5v-29q7 6 11 9.5t6 7.5q14 23 26 46t26 45
q12 19 25 36.5t26 34.5q11 16 28 12q4 -1 7.5 -0.5t7.5 -0.5q32 -2 38 -11.5t-4 -39.5q-9 -27 -13.5 -55t-6.5 -57q0 -3 0.5 -6.5t1.5 -8.5zM298 375l7 -42l-15 -3q-14 -2 -26 -0.5t-20 18.5q-8 19 -9 36t13 34q6 7 13.5 12t15.5 13q11 -10 21 -18.5t19 -18.5
q11 -10 10 -15.5t-15 -11.5zM179 385q-6 14 -15 25.5t-19 22.5q-2 3 -8 3.5t-11 0.5q-17 -2 -27 -14.5t-9 -29.5q1 -20 14.5 -35t30.5 -16q10 0 19 4t16 10.5t9.5 14t-0.5 14.5z" />
    <glyph glyph-name="ccedilla" unicode="&#xe7;" horiz-adv-x="253" 
d="M137 -36q4 4 13.5 15t19 23t17.5 23t10 14q20 20 40.5 47t45.5 48q-12 -24 -19 -39.5t-13.5 -28t-13.5 -25t-19 -30.5q-20 -41 -42 -58.5t-43.5 -18.5t-40.5 10.5t-34 26.5l-39 40l-19 60q-1 57 5 112.5t26 109.5q8 24 22.5 46t28.5 45q2 4 7 7.5t9 3.5q40 1 78 -6.5
t76 -18.5q2 -1 3.5 -3t3.5 -4q-23 -26 -30 -56.5t-15 -61.5q-3 -12 -7.5 -24t-8.5 -23q-19 5 -26 16t-5 32q2 18 4 36.5t4 37.5q2 8 2 16.5t1 22.5q-11 -5 -19.5 -8.5t-12.5 -8.5q-7 -8 -12.5 -18t-7.5 -21q-7 -30 -13 -60t-10 -61q-3 -26 -2 -51t-2 -51q-5 -41 12 -72
q5 -11 11.5 -21t14.5 -23zM77 -147q10 1 19 1t19 2q35 4 58 -23q11 -13 9.5 -25.5t-14.5 -21.5q-20 -15 -41.5 -27.5t-49.5 -13.5q-21 -1 -41 -7t-40 -11q-4 -1 -8 -1t-6 2q-4 6 -9 11t-9 10.5t-6 12.5t0 16l141 41q-10 5 -14.5 7t-9.5 4q-26 9 -33 28.5t7 42.5
q9 15 17.5 29.5t18.5 28.5q12 17 22.5 19t27.5 -10q6 -4 11 -9.5t11 -11.5q-27 -19 -46.5 -40.5t-36.5 -45.5z" />
    <glyph glyph-name="eacute" unicode="&#xe9;" horiz-adv-x="265" 
d="M258 362q23 -7 18 -25q-2 -5 -3.5 -9.5t-4.5 -9.5q-22 -38 -51 -73t-65 -67q-13 -12 -25.5 -25t-21.5 -27q-6 -10 -7.5 -21.5t-1.5 -22.5q0 -17 13 -37t31 -31q8 6 21.5 15.5t21.5 16.5q32 29 64 51.5t48 39.5q-2 -11 -5 -22q-2 -9 -5.5 -20t-8.5 -19q-16 -26 -39 -44.5
t-52 -39.5q-17 -12 -34.5 -12t-40.5 6q-34 9 -62 33t-40 54q-2 4 -2.5 8.5t-2.5 11.5l-2 20t-0.5 21t2.5 25t8 33q8 31 22 61t27 60q5 11 11.5 22t13.5 22q4 6 9 11.5t10 10.5q19 20 53 14q8 -2 17 -2t18 -2q12 -2 19 -6q22 -14 47 -21zM124 230q71 71 90 117
q-20 6 -25.5 5.5t-15.5 -11.5q-22 -23 -35 -49t-19 -54q0 -2 1.5 -4t3.5 -4zM229 587q17 -8 29 -21.5t23 -27.5l-86 -104q-11 7 -14.5 13.5t0.5 20.5q3 13 9 23q12 20 21 41t11 44q0 3 2 7z" />
    <glyph glyph-name="edieresis" unicode="&#xeb;" horiz-adv-x="265" 
d="M258 362q23 -7 18 -25q-2 -5 -3.5 -9.5t-4.5 -9.5q-22 -38 -51 -73t-65 -67q-13 -12 -25.5 -25t-21.5 -27q-6 -10 -7.5 -21.5t-1.5 -22.5q0 -17 13 -37t31 -31q8 6 21.5 15.5t21.5 16.5q32 29 64 51.5t48 39.5q-2 -11 -5 -22q-2 -9 -5.5 -20t-8.5 -19q-16 -26 -39 -44.5
t-52 -39.5q-17 -12 -34.5 -12t-40.5 6q-34 9 -62 33t-40 54q-2 4 -2.5 8.5t-2.5 11.5l-2 20t-0.5 21t2.5 25t8 33q8 31 22 61t27 60q5 11 11.5 22t13.5 22q4 6 9 11.5t10 10.5q19 20 53 14q8 -2 17 -2t18 -2q12 -2 19 -6q22 -14 47 -21zM124 230q71 71 90 117
q-20 6 -25.5 5.5t-15.5 -11.5q-22 -23 -35 -49t-19 -54q0 -2 1.5 -4t3.5 -4zM257 465l7 -42l-15 -3q-14 -2 -26 -0.5t-20 18.5q-8 19 -9 36t13 34q6 7 13.5 12t15.5 13q11 -10 21 -18.5t19 -18.5q11 -10 10 -15.5t-15 -11.5zM138 475q-6 14 -15 25.5t-19 22.5q-2 3 -8 3.5
t-11 0.5q-17 -2 -27 -14.5t-9 -29.5q1 -20 14.5 -35t30.5 -16q10 0 19 4t16 10.5t9.5 14t-0.5 14.5z" />
    <glyph glyph-name="iacute" unicode="&#xed;" horiz-adv-x="134" 
d="M83 40q10 13 20 27.5t20.5 28t21 23.5t19.5 15q-7 -17 -19 -40.5t-24.5 -44.5t-23 -36t-13.5 -15q-7 0 -22 1.5t-21 4.5q-15 4 -21 18.5t-8 30.5q-2 14 -1.5 33.5t-1.5 33.5q0 1 0.5 7t1 13.5t0 15t-1.5 11.5q-1 15 -1 25.5t1 21.5t4 24t8 31q5 7 8 15.5t14 10.5
q14 2 28.5 3t29.5 -11q-14 -24 -14.5 -50.5t0.5 -53.5q1 -13 -0.5 -32t-3 -39.5t-2 -39.5t1.5 -32zM67 522q17 -8 29 -21.5t23 -27.5l-86 -104q-11 7 -14.5 13.5t0.5 20.5q3 13 9 23q12 20 21 41t11 44q0 3 2 7z" />
    <glyph glyph-name="icircumflex" unicode="&#xee;" horiz-adv-x="134" 
d="M83 40q10 13 20 27.5t20.5 28t21 23.5t19.5 15q-7 -17 -19 -40.5t-24.5 -44.5t-23 -36t-13.5 -15q-7 0 -22 1.5t-21 4.5q-15 4 -21 18.5t-8 30.5q-2 14 -1.5 33.5t-1.5 33.5q0 1 0.5 7t1 13.5t0 15t-1.5 11.5q-1 15 -1 25.5t1 21.5t4 24t8 31q5 7 8 15.5t14 10.5
q14 2 28.5 3t29.5 -11q-14 -24 -14.5 -50.5t0.5 -53.5q1 -13 -0.5 -32t-3 -39.5t-2 -39.5t1.5 -32zM93 431l-39 -32q-9 -8 -18.5 -14t-17.5 -14q-4 -3 -6.5 -8t-5.5 -9q-12 -14 -29 3q-17 18 -18 30t13 26q21 18 41 36.5t40 37.5q2 2 5 4l6 4l14 -7q23 -10 31.5 -20.5
t11.5 -33.5q1 -8 3.5 -15.5t4.5 -15.5q5 -13 9 -25.5t8 -26.5q2 -3 1.5 -6t-0.5 -8q-11 3 -15.5 9.5t-7.5 14.5l-19 47q-2 5 -5 10t-7 13z" />
    <glyph glyph-name="oacute" unicode="&#xf3;" horiz-adv-x="244" 
d="M198 102q4 -4 8 -4q7 0 13.5 3.5t14 9t17 12t23.5 12.5q-2 -11 -7 -24t-22 -26q-16 -14 -26.5 -18.5t-27.5 1.5q-2 0 -3 1q-3 -11 -6 -21.5t-8 -21.5q-8 -20 -21 -37t-40 -18q-45 -1 -85 28q-13 9 -19.5 22.5t-7.5 28.5v95q0 5 -0.5 9t-0.5 9l6 64q8 46 21.5 89t32.5 85
l9 15q13 27 46 19q18 -5 36.5 -9t37.5 -8q0 -2 0.5 -3t0.5 -3q-12 -8 -24.5 -15t-22.5 -17q-9 -10 -15.5 -22.5t-4.5 -27.5q23 -5 46 -8.5t48 -7.5l19 -81q0 -10 -3 -18t-7 -17t-8.5 -20.5t-8.5 -27.5zM120 22q10 23 18 47l16 48l-3 13q-5 17 -6.5 49.5t3.5 67.5
q-11 14 -18 29.5t-7 35.5q-5 0 -8 1q-2 -3 -4 -5.5t-3 -5.5q-18 -54 -27 -110t-11 -115q-1 -14 1 -29t5 -30q1 -5 5 -11t9 -8q4 -2 9.5 1t9.5 6q8 6 11 16zM188 610q17 -8 29 -21.5t23 -27.5l-86 -104q-11 7 -14.5 13.5t0.5 20.5q3 13 9 23q12 20 21 41t11 44q0 3 2 7z" />
    <glyph glyph-name="ocircumflex" unicode="&#xf4;" horiz-adv-x="244" 
d="M198 102q4 -4 8 -4q7 0 13.5 3.5t14 9t17 12t23.5 12.5q-2 -11 -7 -24t-22 -26q-16 -14 -26.5 -18.5t-27.5 1.5q-2 0 -3 1q-3 -11 -6 -21.5t-8 -21.5q-8 -20 -21 -37t-40 -18q-45 -1 -85 28q-13 9 -19.5 22.5t-7.5 28.5v95q0 5 -0.5 9t-0.5 9l6 64q8 46 21.5 89t32.5 85
l9 15q13 27 46 19q18 -5 36.5 -9t37.5 -8q0 -2 0.5 -3t0.5 -3q-12 -8 -24.5 -15t-22.5 -17q-9 -10 -15.5 -22.5t-4.5 -27.5q23 -5 46 -8.5t48 -7.5l19 -81q0 -10 -3 -18t-7 -17t-8.5 -20.5t-8.5 -27.5zM120 22q10 23 18 47l16 48l-3 13q-5 17 -6.5 49.5t3.5 67.5
q-11 14 -18 29.5t-7 35.5q-5 0 -8 1q-2 -3 -4 -5.5t-3 -5.5q-18 -54 -27 -110t-11 -115q-1 -14 1 -29t5 -30q1 -5 5 -11t9 -8q4 -2 9.5 1t9.5 6q8 6 11 16zM157 541l-39 -32q-9 -8 -18.5 -14t-17.5 -14q-4 -3 -6.5 -8t-5.5 -9q-12 -14 -29 3q-17 18 -18 30t13 26
q21 18 41 36.5t40 37.5q2 2 5 4l6 4l14 -7q23 -10 31.5 -20.5t11.5 -33.5q1 -8 3.5 -15.5t4.5 -15.5q5 -13 9 -25.5t8 -26.5q2 -3 1.5 -6t-0.5 -8q-11 3 -15.5 9.5t-7.5 14.5l-19 47q-2 5 -5 10t-7 13z" />
    <glyph glyph-name="odieresis" unicode="&#xf6;" horiz-adv-x="244" 
d="M198 102q4 -4 8 -4q7 0 13.5 3.5t14 9t17 12t23.5 12.5q-2 -11 -7 -24t-22 -26q-16 -14 -26.5 -18.5t-27.5 1.5q-2 0 -3 1q-3 -11 -6 -21.5t-8 -21.5q-8 -20 -21 -37t-40 -18q-45 -1 -85 28q-13 9 -19.5 22.5t-7.5 28.5v95q0 5 -0.5 9t-0.5 9l6 64q8 46 21.5 89t32.5 85
l9 15q13 27 46 19q18 -5 36.5 -9t37.5 -8q0 -2 0.5 -3t0.5 -3q-12 -8 -24.5 -15t-22.5 -17q-9 -10 -15.5 -22.5t-4.5 -27.5q23 -5 46 -8.5t48 -7.5l19 -81q0 -10 -3 -18t-7 -17t-8.5 -20.5t-8.5 -27.5zM120 22q10 23 18 47l16 48l-3 13q-5 17 -6.5 49.5t3.5 67.5
q-11 14 -18 29.5t-7 35.5q-5 0 -8 1q-2 -3 -4 -5.5t-3 -5.5q-18 -54 -27 -110t-11 -115q-1 -14 1 -29t5 -30q1 -5 5 -11t9 -8q4 -2 9.5 1t9.5 6q8 6 11 16zM241 513l7 -42l-15 -3q-14 -2 -26 -0.5t-20 18.5q-8 19 -9 36t13 34q6 7 13.5 12t15.5 13q11 -10 21 -18.5t19 -18.5
q11 -10 10 -15.5t-15 -11.5zM122 523q-6 14 -15 25.5t-19 22.5q-2 3 -8 3.5t-11 0.5q-17 -2 -27 -14.5t-9 -29.5q1 -20 14.5 -35t30.5 -16q10 0 19 4t16 10.5t9.5 14t-0.5 14.5z" />
    <glyph glyph-name="uacute" unicode="&#xfa;" horiz-adv-x="359" 
d="M309 56q6 6 16 16.5t21 21.5t22.5 22t20.5 18q-9 -24 -15 -39.5t-11.5 -27t-10.5 -20t-11 -18.5q-16 -20 -36.5 -22t-43.5 5q-39 12 -44 54q-1 11 -2.5 21t-6.5 21q-3 -5 -6 -10.5t-5 -11.5q-6 -15 -12 -29.5t-11 -29.5q-6 -21 -23.5 -35.5t-40 -19.5t-46.5 -0.5
t-43 21.5q-23 21 -21 54q1 26 2.5 51t3.5 51q1 5 1 11v13l25 81q8 28 16.5 56t17.5 56q4 13 7 20.5t7.5 11t11.5 4.5t21 2q12 1 21 0.5t16.5 -2t15 -4.5t18.5 -9l-9 -17q-2 -5 -5 -9t-4 -9q-7 -45 -19 -88.5t-23 -88.5q-4 -18 -6.5 -36t-5.5 -35q-1 -7 -2 -13.5t-3 -13.5
q-11 -30 1 -62q11 6 15.5 16t9.5 20q18 41 35 81.5t35 81.5q9 20 17.5 39t10.5 42q1 8 6 16.5t10 16.5q9 -1 18.5 0t19.5 1.5t19.5 -0.5t20.5 -6l-13 -33q-4 -11 -8 -22.5t-5 -22.5q-3 -63 -3 -126q1 -15 4 -30.5t5 -31.5l-2 -7q4 2 6 4zM240 575q17 -8 29 -21.5t23 -27.5
l-86 -104q-11 7 -14.5 13.5t0.5 20.5q3 13 9 23q12 20 21 41t11 44q0 3 2 7z" />
    <glyph glyph-name="udieresis" unicode="&#xfc;" horiz-adv-x="359" 
d="M309 56q6 6 16 16.5t21 21.5t22.5 22t20.5 18q-9 -24 -15 -39.5t-11.5 -27t-10.5 -20t-11 -18.5q-16 -20 -36.5 -22t-43.5 5q-39 12 -44 54q-1 11 -2.5 21t-6.5 21q-3 -5 -6 -10.5t-5 -11.5q-6 -15 -12 -29.5t-11 -29.5q-6 -21 -23.5 -35.5t-40 -19.5t-46.5 -0.5
t-43 21.5q-23 21 -21 54q1 26 2.5 51t3.5 51q1 5 1 11v13l25 81q8 28 16.5 56t17.5 56q4 13 7 20.5t7.5 11t11.5 4.5t21 2q12 1 21 0.5t16.5 -2t15 -4.5t18.5 -9l-9 -17q-2 -5 -5 -9t-4 -9q-7 -45 -19 -88.5t-23 -88.5q-4 -18 -6.5 -36t-5.5 -35q-1 -7 -2 -13.5t-3 -13.5
q-11 -30 1 -62q11 6 15.5 16t9.5 20q18 41 35 81.5t35 81.5q9 20 17.5 39t10.5 42q1 8 6 16.5t10 16.5q9 -1 18.5 0t19.5 1.5t19.5 -0.5t20.5 -6l-13 -33q-4 -11 -8 -22.5t-5 -22.5q-3 -63 -3 -126q1 -15 4 -30.5t5 -31.5l-2 -7q4 2 6 4zM291 481l7 -42l-15 -3
q-14 -2 -26 -0.5t-20 18.5q-8 19 -9 36t13 34q6 7 13.5 12t15.5 13q11 -10 21 -18.5t19 -18.5q11 -10 10 -15.5t-15 -11.5zM172 491q-6 14 -15 25.5t-19 22.5q-2 3 -8 3.5t-11 0.5q-17 -2 -27 -14.5t-9 -29.5q1 -20 14.5 -35t30.5 -16q10 0 19 4t16 10.5t9.5 14t-0.5 14.5z
" />
    <glyph glyph-name="yacute" unicode="&#xfd;" horiz-adv-x="396" 
d="M426 134q-8 -22 -17 -40t-18 -32.5t-16 -26.5t-9 -22q-3 -19 -2.5 -37.5t3 -37t4.5 -37.5t1 -38t-1.5 -47.5t-3.5 -60t-9 -63.5t-18 -58t-30.5 -42.5t-46.5 -18.5q-50 -3 -74 27.5t-30 81t1 113t19 122.5t24.5 110t16.5 76q-9 -17 -20 -42.5t-24.5 -50.5t-30.5 -44.5
t-38 -24.5q-29 -7 -50 5t-34.5 33t-20.5 47.5t-8 48.5q-2 31 3.5 62.5t10.5 62.5q3 17 7 28.5t11.5 17t20 4.5t32.5 -8q19 -6 25.5 -15t6 -20.5t-5 -25t-5.5 -29.5q-4 -29 -6 -58.5t-5 -58.5q-2 -12 -3.5 -24t1 -20t9.5 -9.5t24 8.5q7 4 13 12t12 17.5t10.5 18.5t8.5 16
q14 23 26 46t23 47q9 20 13.5 41t12.5 40q10 21 27.5 26.5t34.5 -0.5t29 -22.5t11 -39.5q0 -11 -3.5 -22t-6 -22t-3 -21.5t4.5 -20.5q8 -16 19 -16t23 7.5t25 18.5t26 18zM338 -70q0 7 0.5 30t-0.5 47.5t-5 43t-14 17.5q-7 -1 -14 -23.5t-13 -50.5t-11 -53.5t-6 -32.5
q-7 -29 -15.5 -72t-11.5 -87.5t5 -84.5t34 -63q18 35 28.5 76t15.5 84.5t6 86.5t1 82zM177 432q17 -8 29 -21.5t23 -27.5l-86 -104q-11 7 -14.5 13.5t0.5 20.5q3 13 9 23q12 20 21 41t11 44q0 3 2 7z" />
    <glyph glyph-name="dotlessi" unicode="&#x131;" horiz-adv-x="134" 
d="M83 40q10 13 20 27.5t20.5 28t21 23.5t19.5 15q-7 -17 -19 -40.5t-24.5 -44.5t-23 -36t-13.5 -15q-7 0 -22 1.5t-21 4.5q-15 4 -21 18.5t-8 30.5q-2 14 -1.5 33.5t-1.5 33.5q0 1 0.5 7t1 13.5t0 15t-1.5 11.5q-1 15 -1 25.5t1 21.5t4 24t8 31q5 7 8 15.5t14 10.5
q14 2 28.5 3t29.5 -11q-14 -24 -14.5 -50.5t0.5 -53.5q1 -13 -0.5 -32t-3 -39.5t-2 -39.5t1.5 -32z" />
    <glyph glyph-name="Scaron" unicode="&#x160;" 
d="M293 607q23 -7 32.5 -18t7.5 -33q-1 -28 -9.5 -52t-16.5 -49q-6 -19 -15.5 -36t-20.5 -32.5t-21.5 -31.5t-19.5 -33q-14 4 -16 12.5t0 16.5q2 14 6.5 27.5t7.5 27.5q11 38 21 75.5t19 75.5q4 15 -0.5 21t-21.5 13q-11 4 -22 7.5t-23 6.5q-44 9 -60 -29q-11 -28 -20 -55.5
t-14 -57.5q-7 -43 -9 -58t12 -60q7 -23 27 -40t41.5 -33t62 -66.5t54.5 -93.5t-12 -88q-2 -4 -3 -8t-3 -8q-7 -13 -15.5 -24.5t-23.5 -16.5h1q-13 -3 -24.5 -8t-23.5 -9t-25.5 -6t-28.5 1t-30 4.5t-30 5.5t-30.5 6.5t-27 17t-12.5 22.5l-4 48t-3 47t13.5 39.5t32.5 17.5
l35 -112q2 -8 4 -17.5t12 -10.5q11 0 23 3t18 10q10 11 16 25.5t12 28.5q3 8 3.5 17t2.5 17q5 16 -1 29.5t-21.5 52.5t-27.5 50t-26 21q-19 14 -35 31.5t-27 37.5q-9 16 -15 32.5t-11 33.5q-10 42 20 100q32 82 44 108q5 11 11.5 20.5t14.5 16.5q6 5 16 5t18 -2
q32 -8 64 -16.5t64 -17.5zM30 410l-1 2l-1 -1zM108 819q14 -8 24.5 -19t12.5 -29q3 -19 16 -35l6 3q6 16 17 26.5t23.5 18.5t26 16t24.5 18q14 -11 25 -21.5t14 -27.5q-20 -14 -39.5 -27.5t-38.5 -27.5q-5 -4 -9.5 -9.5t-8.5 -11.5q-5 -10 -10.5 -12.5t-14.5 2.5q-7 3 -10 8
q-19 27 -35.5 55.5t-24.5 60.5q-1 3 -1 7q0 2 1 2.5t2 2.5z" />
    <glyph glyph-name="scaron" unicode="&#x161;" horiz-adv-x="306" 
d="M246 68q23 4 42 20.5t48 45.5q0 -26 -9 -46t-23 -34t-30.5 -23t-30.5 -13q-15 -37 -37.5 -61.5t-68.5 -31.5q-58 -10 -83.5 5t-28.5 59q-2 25 8.5 47.5t32.5 31.5q10 4 20 4.5t20.5 0t21.5 -2t24 0.5q3 17 2 34l-2 34q0 29 -8 57.5t-22 54.5q-3 5 -6 9.5t-7 8.5
q-5 -14 -13 -32.5t-21 -40.5q-14 -26 -30.5 -54t-44.5 -58q5 10 7.5 25t9.5 39q9 29 23.5 67.5t34.5 91.5q0 1 -1 2q14 10 30 8.5t30 -8.5q38 -17 66 -43.5t39 -68.5q6 -21 10 -53t-3 -76zM82 -49q12 -2 24.5 2t22.5 14.5t16.5 27t7.5 37.5q-15 3 -34.5 5t-30.5 4
q-17 3 -26 -15q-8 -14 -9 -27t2.5 -23.5t10.5 -17t16 -7.5zM42 490q14 -8 24.5 -19t12.5 -29q3 -19 16 -35l6 3q6 16 17 26.5t23.5 18.5t26 16t24.5 18q14 -11 25 -21.5t14 -27.5q-20 -14 -39.5 -27.5t-38.5 -27.5q-5 -4 -9.5 -9.5t-8.5 -11.5q-5 -10 -10.5 -12.5t-14.5 2.5
q-7 3 -10 8q-19 27 -35.5 55.5t-24.5 60.5q-1 3 -1 7q0 2 1 2.5t2 2.5z" />
    <glyph glyph-name="ring" unicode="&#x2da;" horiz-adv-x="220" 
d="M210 457q-2 -5 -3.5 -10.5t-4.5 -9.5q-20 -22 -44 -37t-51 -24q-17 -6 -29.5 -7t-23 2.5t-20 12.5t-19.5 24q-13 18 -15 34.5t16 42.5q11 16 25 25q14 10 29 19l30 18q11 6 22 6t22 -11q8 -8 17.5 -13.5t17.5 -13.5q13 -11 22.5 -24.5t8.5 -33.5zM45 403q38 -1 64 13.5
t47 35.5q3 4 2 13t-3 14q-5 8 -11.5 6.5t-12.5 -5.5l-71 -54q-4 -3 -7 -8.5t-8 -14.5z" />
    <glyph glyph-name="Euro" unicode="&#x20ac;" horiz-adv-x="348" 
d="M168 284q-18 -15 -10 -45q8 1 14 1t12 2q17 2 34 4.5t34 4.5q11 1 22 -2.5t19 -16.5q-9 -5 -16 -6q-20 -5 -39 -9t-39 -7q-18 -4 -32 -13t-20 -29l12 -27q14 3 27 5.5t27 4.5q9 2 18 3t17 0q5 0 8.5 -4t7.5 -7q-2 -3 -4.5 -6.5t-6.5 -5.5l-30 -10t-31 -10
q-44 -13 -38 -56q2 -20 2.5 -41.5t11.5 -42.5q23 -5 42 -0.5t39 8.5q14 3 27.5 6t27.5 5q5 1 10.5 -0.5t10.5 -3.5l3 -6q-7 -5 -13 -10.5t-13 -9.5q-21 -11 -43.5 -19t-47.5 -10q-19 -1 -40.5 3t-41.5 14t-36 25.5t-24 36.5l-7 17q-5 16 -12 29.5t-26 18.5q-2 1 -4.5 5
t-6.5 9q21 7 34 18.5t1 39.5q-9 5 -19.5 9t-20.5 9t-18.5 13t-13.5 22q15 2 28 4.5t27 3.5q26 1 30 28q5 23 11 44t13 43q6 17 17.5 29.5t27.5 20.5q8 5 15.5 8.5t14.5 8.5q28 20 66 12q26 -6 48 -20.5t43 -31.5q4 -3 6 -9.5t7 -16.5q-11 3 -17.5 4t-11.5 4q-11 10 -23 11.5
t-23 -0.5q-21 -5 -41 -12t-31 -30q-2 -5 -6.5 -8.5t-8.5 -8.5z" />
    <glyph glyph-name="a_calt" horiz-adv-x="380" 
d="M300 10q11 12 20 22t18 19q13 17 29.5 34.5t42.5 47.5q-5 -42 -21 -78.5t-36 -65.5q-8 -12 -19 -21.5t-22 -18.5q-12 -9 -28 -7.5t-31 10t-26.5 22t-12.5 28.5q-2 22 -6.5 44t0.5 44q3 16 -6 39q-4 -5 -8 -9.5t-7 -9.5l-47 -81q-3 -5 -6 -10.5t-7 -10.5q-8 -10 -15 -20.5
t-26 -4.5q-21 5 -40.5 15.5t-31.5 30.5q-9 16 -12 27.5t-2 24t3 29t4 43.5q4 27 15.5 49.5t26.5 42t32 37.5t33 37q10 11 20.5 15t27.5 -1q16 -5 31.5 -8t30.5 -14q20 -14 24 -21.5t-1 -30.5l20 -3q24 -5 40 -20t12 -46l-22 -160q-1 -3 0 -7.5t3 -12.5zM209 199q2 2 5.5 8.5
t7 14t6.5 14.5t5 10q-9 7 -24.5 17t-23.5 16q-26 -4 -44.5 -25t-31 -51t-20 -63.5t-10.5 -61.5q-1 -2 1.5 -9t6 -15.5t6.5 -17t4 -12.5q5 5 9 8t6 6q13 16 24 38.5t21.5 45t22.5 43t29 34.5z" />
    <glyph glyph-name="sterling" horiz-adv-x="292" 
d="M267 20q2 -2 4.5 -5.5t2.5 -6.5q-1 -2 -4 -5t-6 -3q-21 1 -41 -2.5t-39 -8.5t-38 -11.5t-38 -11.5q-17 -5 -30.5 1.5t-26.5 16.5q-7 5 -12.5 13.5t-12.5 16.5q14 9 16 21t-3 26q-3 9 -0.5 19t3.5 19l2 32q-14 10 -27.5 18.5t-27.5 18.5q-3 2 -4 7t-4 13q11 0 20 0.5
t17 0.5q13 0 20 1t11 4.5t6 10.5t4 20l21 111l4 14q8 17 15.5 19.5t26.5 -7.5q20 -10 38.5 -20.5t38.5 -21.5q2 -1 3.5 -4.5t4.5 -9.5l-64 18q-11 -29 -9.5 -59.5t-3.5 -61.5q12 -2 23.5 -2t22.5 -1t22.5 -5.5t22.5 -14.5q-9 -3 -15.5 -6t-13.5 -5q-15 -4 -33 -4
q-23 1 -31 -11.5t-9 -32.5v-92q8 -1 14 -2t11 0q16 1 32.5 2t31.5 5q16 5 28.5 -0.5t26.5 -13.5z" />
    <glyph glyph-name="yen" horiz-adv-x="294" 
d="M219 198q7 -5 15 -6.5l16 -3t15.5 -4.5t13.5 -10q-5 -14 -17 -12.5t-23 -0.5l-45 -6l3 -46q16 -2 32 -3t33 -2q8 -14 7 -19.5t-15 -7.5l-47 -6q-17 -2 -23 -13t-6 -28q0 -9 0.5 -18.5t-1.5 -18.5q-6 -32 -38 -11q-13 8 -22.5 18.5t-12.5 26.5q-1 8 -4 16.5t-6 17.5
q-10 5 -21 6.5t-22.5 4t-22 8.5t-19.5 20q9 5 18.5 5t19 -1.5t19 -2.5t18.5 1q5 19 2.5 23.5t-19.5 14.5l-28 17q0 11 4 15t14 6q13 2 27 2t25 11l-86 127q-14 20 -12 26t23 11l31 6q2 0 3 -0.5t-1 -0.5l100 -155l7.5 7.5l4.5 4.5q12 20 23.5 40t23.5 40q8 13 14.5 19.5
t14.5 7t19 -5.5t28 -18q-32 -17 -49 -44.5t-34 -57.5z" />
    <glyph glyph-name="cent" horiz-adv-x="316" 
d="M218 47q10 -2 20 1.5t19 7t18.5 3.5t19.5 -8q0 -11 -8 -16l-16 -10q-10 -6 -20 -10.5t-21 -6.5q-14 -3 -18.5 -11t-3.5 -19q0 -8 -0.5 -15t0.5 -15q3 -27 -19 -44q-17 5 -26 9t-13.5 11t-5.5 19t-1 33q-15 6 -30 11.5t-30 12.5q-46 21 -58 75q-13 60 -0.5 114t40.5 105
q10 18 25.5 29t35.5 16l57 16l-9 76q28 1 40 -8t15 -32v-3q-1 -49 46 -65q9 -2 18 -8.5t13 -20.5l-34 8q-8 1 -16 1h-18q-5 -66 -10 -129t-10 -127zM174 251q2 8 1.5 16.5t-0.5 17.5q-30 -6 -37 -26q-11 -41 -20.5 -81.5t-10.5 -82.5q0 -14 4 -27.5t8 -27.5q5 -16 24 -11
q2 14 1.5 26.5t3.5 24.5q14 42 17 85t9 86z" />
    <glyph glyph-name="circumflex" horiz-adv-x="172" 
d="M134 463l-39 -32q-9 -8 -18.5 -14t-17.5 -14q-4 -3 -6.5 -8t-5.5 -9q-12 -14 -29 3q-17 18 -18 30t13 26q21 18 41 36.5t40 37.5q2 2 5 4l6 4l14 -7q23 -10 31.5 -20.5t11.5 -33.5q1 -8 3.5 -15.5t4.5 -15.5q5 -13 9 -25.5t8 -26.5q2 -3 1.5 -6t-0.5 -8q-11 3 -15.5 9.5
t-7.5 14.5l-19 47q-2 5 -5 10t-7 13z" />
    <glyph glyph-name="tilde" horiz-adv-x="187" 
d="M125 370q-15 7 -27.5 16t-18.5 23q-5 10 -13 13.5t-17 5.5q-4 1 -9 -2t-7 -7q-5 -6 -7.5 -13t-7.5 -13q-2 -3 -5 -5t-5 -4q-2 3 -4.5 6t-2.5 6q-2 9 0 19q8 29 28 51q16 19 44 14q20 -2 34.5 -11.5t27.5 -23.5q4 -5 8.5 -8.5t9.5 -7.5q11 -8 21 -1q5 3 10.5 6.5t10.5 5.5
q5 3 11 1q2 -1 2 -4.5t-1 -5.5q-5 -13 -12 -23q-8 -11 -13.5 -16t-15.5 -15q-6 -6 -21 -7.5t-20 0.5z" />
    <glyph glyph-name="Agrave" horiz-adv-x="422" 
d="M376 17q1 3 9.5 5t13.5 1q15 -2 18 -17q2 -8 -0.5 -18.5t-6.5 -21t-35.5 -26.5t-70.5 50q-16 43 -30.5 86t-16.5 90l-8 200q-1 11 -2.5 21.5t-3.5 21.5h-5q-7 -21 -13.5 -42t-11.5 -42q-8 -37 -15 -73.5t-13 -74.5q-5 -26 -7.5 -53t-7.5 -53q-2 -19 -5 -37.5t-8 -36.5
q-5 -20 -15.5 -27t-30.5 -5q-14 1 -27 2t-26 6q-17 7 -26.5 21.5t-15.5 30.5q-11 27 -13.5 55t-2.5 57q0 35 1 69t3 69q2 38 5.5 76t8.5 76q3 29 6.5 57t9.5 56q5 20 12.5 38t14.5 37q8 21 24 28t34 5q32 -5 62.5 -11.5t109.5 -81.5q4 -5 13 -16q2 -2 3.5 -7.5t-0.5 -7.5
q-2 -3 -7 -5t-8 -1q-12 3 -39 38.5t-51 47.5q-32 10 -50 -3t-20 -46t-2 -66t-5 -65q-11 -37 -9 -77.5t-11 -78.5q-4 -12 -3 -25l2 -26q1 -26 3 -52.5t7 -53.5q2 3 3.5 6.5t2.5 6.5q11 35 21 69.5t21 68.5l34 96l34 96q5 12 7.5 24.5t7.5 23.5q2 7 6.5 13.5t10.5 8.5
q31 14 61 -1q4 -2 7 -8t4 -11q5 -35 4 -69t-3 -69q-6 -85 -2.5 -168.5t30.5 -166.5q4 -12 5.5 -21t7.5 7zM258 719q-4 0 -4 1q-11 16 -27.5 27t-29.5 26q-10 13 -17.5 28t-15.5 30q-3 7 0.5 13.5t10.5 11.5q10 9 23 2q8 -5 15.5 -10.5t10.5 -16.5q1 -5 6 -9q10 -10 15 -21.5
t8 -24t4.5 -25.5t3.5 -25q0 -3 -3 -7z" />
    <glyph glyph-name="Atilde" horiz-adv-x="422" 
d="M376 17q1 3 9.5 5t13.5 1q15 -2 18 -17q2 -8 -0.5 -18.5t-6.5 -21t-35.5 -26.5t-70.5 50q-16 43 -30.5 86t-16.5 90l-8 200q-1 11 -2.5 21.5t-3.5 21.5h-5q-7 -21 -13.5 -42t-11.5 -42q-8 -37 -15 -73.5t-13 -74.5q-5 -26 -7.5 -53t-7.5 -53q-2 -19 -5 -37.5t-8 -36.5
q-5 -20 -15.5 -27t-30.5 -5q-14 1 -27 2t-26 6q-17 7 -26.5 21.5t-15.5 30.5q-11 27 -13.5 55t-2.5 57q0 35 1 69t3 69q2 38 5.5 76t8.5 76q3 29 6.5 57t9.5 56q5 20 12.5 38t14.5 37q8 21 24 28t34 5q32 -5 62.5 -11.5t109.5 -81.5q4 -5 13 -16q2 -2 3.5 -7.5t-0.5 -7.5
q-2 -3 -7 -5t-8 -1q-12 3 -39 38.5t-51 47.5q-32 10 -50 -3t-20 -46t-2 -66t-5 -65q-11 -37 -9 -77.5t-11 -78.5q-4 -12 -3 -25l2 -26q1 -26 3 -52.5t7 -53.5q2 3 3.5 6.5t2.5 6.5q11 35 21 69.5t21 68.5l34 96l34 96q5 12 7.5 24.5t7.5 23.5q2 7 6.5 13.5t10.5 8.5
q31 14 61 -1q4 -2 7 -8t4 -11q5 -35 4 -69t-3 -69q-6 -85 -2.5 -168.5t30.5 -166.5q4 -12 5.5 -21t7.5 7zM232 720q-15 7 -27.5 16t-18.5 23q-5 10 -13 13.5t-17 5.5q-4 1 -9 -2t-7 -7q-5 -6 -7.5 -13t-7.5 -13q-2 -3 -5 -5t-5 -4q-2 3 -4.5 6t-2.5 6q-2 9 0 19q8 29 28 51
q16 19 44 14q20 -2 34.5 -11.5t27.5 -23.5q4 -5 8.5 -8.5t9.5 -7.5q11 -8 21 -1q5 3 10.5 6.5t10.5 5.5q5 3 11 1q2 -1 2 -4.5t-1 -5.5q-5 -13 -12 -23q-8 -11 -13.5 -16t-15.5 -15q-6 -6 -21 -7.5t-20 0.5z" />
    <glyph glyph-name="Aring" horiz-adv-x="422" 
d="M376 17q1 3 9.5 5t13.5 1q15 -2 18 -17q2 -8 -0.5 -18.5t-6.5 -21t-35.5 -26.5t-70.5 50q-16 43 -30.5 86t-16.5 90l-8 200q-1 11 -2.5 21.5t-3.5 21.5h-5q-7 -21 -13.5 -42t-11.5 -42q-8 -37 -15 -73.5t-13 -74.5q-5 -26 -7.5 -53t-7.5 -53q-2 -19 -5 -37.5t-8 -36.5
q-5 -20 -15.5 -27t-30.5 -5q-14 1 -27 2t-26 6q-17 7 -26.5 21.5t-15.5 30.5q-11 27 -13.5 55t-2.5 57q0 35 1 69t3 69q2 38 5.5 76t8.5 76q3 29 6.5 57t9.5 56q5 20 12.5 38t14.5 37q8 21 24 28t34 5q32 -5 62.5 -11.5t109.5 -81.5q4 -5 13 -16q2 -2 3.5 -7.5t-0.5 -7.5
q-2 -3 -7 -5t-8 -1q-12 3 -39 38.5t-51 47.5q-32 10 -50 -3t-20 -46t-2 -66t-5 -65q-11 -37 -9 -77.5t-11 -78.5q-4 -12 -3 -25l2 -26q1 -26 3 -52.5t7 -53.5q2 3 3.5 6.5t2.5 6.5q11 35 21 69.5t21 68.5l34 96l34 96q5 12 7.5 24.5t7.5 23.5q2 7 6.5 13.5t10.5 8.5
q31 14 61 -1q4 -2 7 -8t4 -11q5 -35 4 -69t-3 -69q-6 -85 -2.5 -168.5t30.5 -166.5q4 -12 5.5 -21t7.5 7zM319 807q-2 -5 -3.5 -10.5t-4.5 -9.5q-20 -22 -44 -37t-51 -24q-17 -6 -29.5 -7t-23 2.5t-20 12.5t-19.5 24q-13 18 -15 34.5t16 42.5q11 16 25 25q14 10 29 19l30 18
q11 6 22 6t22 -11q8 -8 17.5 -13.5t17.5 -13.5q13 -11 22.5 -24.5t8.5 -33.5zM154 753q38 -1 64 13.5t47 35.5q3 4 2 13t-3 14q-5 8 -11.5 6.5t-12.5 -5.5l-71 -54q-4 -3 -7 -8.5t-8 -14.5z" />
    <glyph glyph-name="Egrave" 
d="M320 649q16 -5 29 -15t21 -25q5 -10 8 -21.5t1 -20.5q-11 -37 -19 -60t-31 -55q-11 -17 -32 -33.5t-38 -14.5t-22.5 13.5t1.5 26.5q13 27 25.5 54t31.5 52q13 24 14 35.5t-7 25.5t-22.5 18.5t-29.5 8.5q-17 3 -24 -1t-15 -18q-33 -44 -69 -169q-1 -47 38 -92t43.5 -51.5
t8.5 -14.5q11 -18 3 -30t-27 -14q-11 -2 -48.5 -49.5t-41 -74.5t-1 -66t16.5 -60t28 -6t36.5 40t45.5 50q7 8 13.5 16t14.5 15q12 10 26 14t11 -18.5t-18.5 -44.5t-32.5 -44l-34 -40t-36 -38q-17 -15 -37 -22t-43 -1q-7 2 -13.5 2t-13.5 2q-17 3 -31.5 10t-26 19t-17.5 30
t-6 43q1 22 1 43.5t2 42.5q3 26 11 51t28 48q80 71 109 75q22 4 -8 34.5t-54 101.5t-9.5 129.5t61 93t73.5 32.5t48.5 -8.5t32.5 -10.5t25 -8zM167 322q1 1 1 2l-2 2q0 -1 -0.5 -2t-0.5 -2h2zM263 719q-4 0 -4 1q-11 16 -27.5 27t-29.5 26q-10 13 -17.5 28t-15.5 30
q-3 7 0.5 13.5t10.5 11.5q10 9 23 2q8 -5 15.5 -10.5t10.5 -16.5q1 -5 6 -9q10 -10 15 -21.5t8 -24t4.5 -25.5t3.5 -25q0 -3 -3 -7z" />
    <glyph glyph-name="Ecircumflex" 
d="M320 649q16 -5 29 -15t21 -25q5 -10 8 -21.5t1 -20.5q-11 -37 -19 -60t-31 -55q-11 -17 -32 -33.5t-38 -14.5t-22.5 13.5t1.5 26.5q13 27 25.5 54t31.5 52q13 24 14 35.5t-7 25.5t-22.5 18.5t-29.5 8.5q-17 3 -24 -1t-15 -18q-33 -44 -69 -169q-1 -47 38 -92t43.5 -51.5
t8.5 -14.5q11 -18 3 -30t-27 -14q-11 -2 -48.5 -49.5t-41 -74.5t-1 -66t16.5 -60t28 -6t36.5 40t45.5 50q7 8 13.5 16t14.5 15q12 10 26 14t11 -18.5t-18.5 -44.5t-32.5 -44l-34 -40t-36 -38q-17 -15 -37 -22t-43 -1q-7 2 -13.5 2t-13.5 2q-17 3 -31.5 10t-26 19t-17.5 30
t-6 43q1 22 1 43.5t2 42.5q3 26 11 51t28 48q80 71 109 75q22 4 -8 34.5t-54 101.5t-9.5 129.5t61 93t73.5 32.5t48.5 -8.5t32.5 -10.5t25 -8zM167 322q1 1 1 2l-2 2q0 -1 -0.5 -2t-0.5 -2h2zM258 813l-39 -32q-9 -8 -18.5 -14t-17.5 -14q-4 -3 -6.5 -8t-5.5 -9
q-12 -14 -29 3q-17 18 -18 30t13 26q21 18 41 36.5t40 37.5q2 2 5 4l6 4l14 -7q23 -10 31.5 -20.5t11.5 -33.5q1 -8 3.5 -15.5t4.5 -15.5q5 -13 9 -25.5t8 -26.5q2 -3 1.5 -6t-0.5 -8q-11 3 -15.5 9.5t-7.5 14.5l-19 47q-2 5 -5 10t-7 13z" />
    <glyph glyph-name="Igrave" horiz-adv-x="229" 
d="M304 639q-8 -6 -12 -7q-14 -1 -27 0t-26 -1q-17 -2 -21.5 -7.5t-6.5 -22.5l-34 -238q-2 -18 -4.5 -36.5t-1.5 -37.5q2 -35 -3.5 -69.5t-6.5 -69.5q-1 -15 0 -30t1 -30q-1 0 -1 -0.5t-1 -0.5q1 0 1.5 0.5t1.5 0.5q0 -14 0.5 -26.5t1 -34.5t-81.5 -59q-23 23 -16 81
q1 16 1.5 28.5t2.5 23.5q4 46 7.5 91.5t8.5 90.5q8 75 16 149t16 149q1 8 0 14.5t0 17.5q-13 -1 -26.5 -2.5t-52 -7.5t-31 15t22 26.5t33 7.5t37.5 4l140 11q16 2 45.5 6t24.5 -19q1 -2 -8 -17zM120 -29q-7 0 -18.5 -1.5t-24 -3.5t-24.5 -4t-19 -3q-6 -2 -13.5 -3t-12.5 -3
t-7 -4.5t1 -6.5q5 -7 12 -13.5t21 1.5q63 10 90 12q67 10 79 10h24q9 1 11 8.5t8 27.5q-11 -2 -28 -1.5t-99 -15.5zM162 719q-4 0 -4 1q-11 16 -27.5 27t-29.5 26q-10 13 -17.5 28t-15.5 30q-3 7 0.5 13.5t10.5 11.5q10 9 23 2q8 -5 15.5 -10.5t10.5 -16.5q1 -5 6 -9
q10 -10 15 -21.5t8 -24t4.5 -25.5t3.5 -25q0 -3 -3 -7z" />
    <glyph glyph-name="Idieresis" horiz-adv-x="229" 
d="M304 639q-8 -6 -12 -7q-14 -1 -27 0t-26 -1q-17 -2 -21.5 -7.5t-6.5 -22.5l-34 -238q-2 -18 -4.5 -36.5t-1.5 -37.5q2 -35 -3.5 -69.5t-6.5 -69.5q-1 -15 0 -30t1 -30q-1 0 -1 -0.5t-1 -0.5q1 0 1.5 0.5t1.5 0.5q0 -14 0.5 -26.5t1 -34.5t-81.5 -59q-23 23 -16 81
q1 16 1.5 28.5t2.5 23.5q4 46 7.5 91.5t8.5 90.5q8 75 16 149t16 149q1 8 0 14.5t0 17.5q-13 -1 -26.5 -2.5t-52 -7.5t-31 15t22 26.5t33 7.5t37.5 4l140 11q16 2 45.5 6t24.5 -19q1 -2 -8 -17zM120 -29q-7 0 -18.5 -1.5t-24 -3.5t-24.5 -4t-19 -3q-6 -2 -13.5 -3t-12.5 -3
t-7 -4.5t1 -6.5q5 -7 12 -13.5t21 1.5q63 10 90 12q67 10 79 10h24q9 1 11 8.5t8 27.5q-11 -2 -28 -1.5t-99 -15.5zM255 765l7 -42l-15 -3q-14 -2 -26 -0.5t-20 18.5q-8 19 -9 36t13 34q6 7 13.5 12t15.5 13q11 -10 21 -18.5t19 -18.5q11 -10 10 -15.5t-15 -11.5zM136 775
q-6 14 -15 25.5t-19 22.5q-2 3 -8 3.5t-11 0.5q-17 -2 -27 -14.5t-9 -29.5q1 -20 14.5 -35t30.5 -16q10 0 19 4t16 10.5t9.5 14t-0.5 14.5z" />
    <glyph glyph-name="Eth" horiz-adv-x="424" 
d="M183 263q20 -1 29.5 -11t16.5 -24q4 -7 4.5 -15t2.5 -19q-22 -1 -42.5 0t-40.5 3q-13 -40 -20 -80.5t-14 -81.5q-3 -13 -4 -25.5t-4 -24.5q-2 -8 -5 -16.5t-9 -13.5q-5 -5 -13 -8.5t-15 -2.5q-32 5 -43 19.5t-5 45.5q8 47 8.5 92.5t1.5 92.5q-18 -2 -29 3.5t-17 25.5
l-2 12q-5 28 -0.5 33.5t33.5 -1.5q7 -2 17 -4l4 97q1 38 2 75t-3 75q-3 27 -12.5 53t-19.5 52q-7 19 -1.5 28.5t25.5 7.5q17 -2 32.5 -7t26.5 -19q8 -8 14 -17.5t10 -19.5q33 -98 22 -201q-2 -17 -2 -34t8 -35l28 57q14 29 25.5 58t27.5 56q14 24 31.5 47t37.5 43
q22 22 50 24t54 -7q17 -5 26.5 -20t11.5 -34q3 -38 0.5 -75t-9.5 -74q-2 -11 -3 -22.5t-5 -21.5q-14 -40 -17.5 -81t-13.5 -82q-8 -35 -21.5 -66.5t-30.5 -62.5q-5 -11 -13 -21.5t-27 -5.5q8 -14 2 -22.5t-14 -15.5q-5 -4 -9.5 -7t-8.5 -8q-22 -26 -51.5 -26t-52.5 25
q7 20 22 32t31 23q11 8 20 18t14 23q14 29 26.5 58.5t24.5 59.5q5 14 7 28t5 28q13 61 26.5 121t19.5 123q2 16 2.5 31.5t-0.5 31.5q0 5 -3 10.5t-6 6.5q-6 1 -13 0t-11 -5q-42 -41 -73.5 -87t-45.5 -104q-7 -29 -14.5 -56t-15.5 -55h10v0z" />
    <glyph glyph-name="Ntilde" horiz-adv-x="390" 
d="M295 620q32 2 45.5 -9.5t15.5 -45.5q1 -16 0.5 -31.5t-1.5 -30.5l-13 -259q-2 -31 -4 -61.5t-2 -61.5q-1 -24 1 -48t4 -49q1 -11 13 -60t-16 -26t-76 28q-4 14 -7 22t-3 13.5t-5.5 20t-15.5 40t-18.5 48.5t-15.5 51t-12 56q-5 25 -10 42.5t-11.5 32.5t-13.5 32t-15 42
q-8 24 -15.5 48.5t-18.5 50.5q-2 -3 -3.5 -6t-1.5 -6q0 -21 0.5 -42t0.5 -42q-1 -19 -1.5 -37t-2.5 -36q-1 -14 -2.5 -27.5t-1.5 -27.5q0 -22 1 -43t2 -43q2 -50 3.5 -99t4.5 -99q1 -16 2 -30q-28 10 -51 14t-40 21h-1q-2 38 -6.5 76.5t-3.5 76.5q2 82 5.5 163.5t6.5 163.5
q0 16 0.5 31.5t-1.5 30.5q-5 31 -3 60t1 59q-1 27 5 34t32 5q43 -2 61 -44q8 -18 13.5 -36t11.5 -37l88 -280q5 -14 7.5 -28t6.5 -28q3 -11 6 -20.5t7 -20.5h8l4 47l4 72t3 73q2 51 2.5 100.5t2.5 100.5v18.5t1 18.5q3 21 23 22zM216 720q-15 7 -27.5 16t-18.5 23
q-5 10 -13 13.5t-17 5.5q-4 1 -9 -2t-7 -7q-5 -6 -7.5 -13t-7.5 -13q-2 -3 -5 -5t-5 -4q-2 3 -4.5 6t-2.5 6q-2 9 0 19q8 29 28 51q16 19 44 14q20 -2 34.5 -11.5t27.5 -23.5q4 -5 8.5 -8.5t9.5 -7.5q11 -8 21 -1q5 3 10.5 6.5t10.5 5.5q5 3 11 1q2 -1 2 -4.5t-1 -5.5
q-5 -13 -12 -23q-8 -11 -13.5 -16t-15.5 -15q-6 -6 -21 -7.5t-20 0.5z" />
    <glyph glyph-name="Ograve" horiz-adv-x="367" 
d="M328 474q13 -64 11 -202q-2 -21 -5 -42l-6 -42q-8 -50 -20.5 -97.5t-31.5 -93.5q-9 -23 -26 -28t-36 -16t-29.5 -14.5t-23.5 -1.5q-29 5 -53.5 14.5t-43 26t-31.5 41t-23.5 84.5t-9.5 73q2 32 5 63t10 63q7 28 18 116q5 42 18 81t48 132q17 50 30.5 40.5t23.5 -12.5
q6 -5 15 -9q17 -8 26 -16.5t13 -13.5t2 -15t-7 -27q-11 -36 -33 -72t-33 -72q-2 -8 -4.5 -16t-6.5 -38t-12.5 -115.5t-4.5 -202.5l2.5 -22.5t10 -49.5t27.5 -17.5t28 27.5q5 16 11.5 27t11.5 23q20 47 32 96t19 100q2 15 3 29.5t2 29.5q2 25 3.5 49t1.5 49q-1 26 -2 53.5
t-12 68.5q-7 20 -19.5 36.5t-19.5 33.5q53 -7 66 -17.5t31 -19t24 -84.5zM106 389h-1h1zM231 719q-4 0 -4 1q-11 16 -27.5 27t-29.5 26q-10 13 -17.5 28t-15.5 30q-3 7 0.5 13.5t10.5 11.5q10 9 23 2q8 -5 15.5 -10.5t10.5 -16.5q1 -5 6 -9q10 -10 15 -21.5t8 -24t4.5 -25.5
t3.5 -25q0 -3 -3 -7z" />
    <glyph glyph-name="Otilde" horiz-adv-x="367" 
d="M328 474q13 -64 11 -202q-2 -21 -5 -42l-6 -42q-8 -50 -20.5 -97.5t-31.5 -93.5q-9 -23 -26 -28t-36 -16t-29.5 -14.5t-23.5 -1.5q-29 5 -53.5 14.5t-43 26t-31.5 41t-23.5 84.5t-9.5 73q2 32 5 63t10 63q7 28 18 116q5 42 18 81t48 132q17 50 30.5 40.5t23.5 -12.5
q6 -5 15 -9q17 -8 26 -16.5t13 -13.5t2 -15t-7 -27q-11 -36 -33 -72t-33 -72q-2 -8 -4.5 -16t-6.5 -38t-12.5 -115.5t-4.5 -202.5l2.5 -22.5t10 -49.5t27.5 -17.5t28 27.5q5 16 11.5 27t11.5 23q20 47 32 96t19 100q2 15 3 29.5t2 29.5q2 25 3.5 49t1.5 49q-1 26 -2 53.5
t-12 68.5q-7 20 -19.5 36.5t-19.5 33.5q53 -7 66 -17.5t31 -19t24 -84.5zM106 389h-1h1zM204 720q-15 7 -27.5 16t-18.5 23q-5 10 -13 13.5t-17 5.5q-4 1 -9 -2t-7 -7q-5 -6 -7.5 -13t-7.5 -13q-2 -3 -5 -5t-5 -4q-2 3 -4.5 6t-2.5 6q-2 9 0 19q8 29 28 51q16 19 44 14
q20 -2 34.5 -11.5t27.5 -23.5q4 -5 8.5 -8.5t9.5 -7.5q11 -8 21 -1q5 3 10.5 6.5t10.5 5.5q5 3 11 1q2 -1 2 -4.5t-1 -5.5q-5 -13 -12 -23q-8 -11 -13.5 -16t-15.5 -15q-6 -6 -21 -7.5t-20 0.5z" />
    <glyph glyph-name="Oslash" horiz-adv-x="367" 
d="M317 606q15 26 29.5 30.5t38.5 -11.5q-16 -29 -31 -59t-30 -59v-1q4 -32 10.5 -64t12.5 -64q0 -3 0.5 -6t0.5 -6l-9 -94q-2 -21 -5 -42l-6 -42q-8 -50 -20.5 -97.5t-31.5 -93.5q-9 -23 -32 -29q-11 -4 -20 -9t-18 -11q-11 -6 -21.5 -9.5t-23.5 -1.5q-30 5 -54.5 15
t-43.5 27l-3 -8q-5 -16 -11 -31t-13 -33q-15 -9 -25.5 2.5t-22.5 23.5q2 13 6 22q8 20 16 39.5t16 38.5q-8 19 -12 45q-2 12 -6.5 24.5t3.5 24.5q-9 11 -10.5 23.5t-0.5 25.5q2 32 5 63t10 63q7 28 11 57t7 59q5 42 18 81t27 78q5 14 10.5 27t10.5 27q5 11 8.5 17.5t9 9
t13.5 1.5t21 -4q8 -1 17 -5q17 -8 26.5 -14t13 -13.5t1.5 -17.5t-7 -27q-11 -36 -33 -72t-33 -72q-2 -8 -4.5 -16t-5.5 -16q-2 -2 -5 -3t-6 -3l-9 -6q6 -2 18 -5q-3 -35 -6 -68t-5 -66q-1 -7 -0.5 -13.5t0.5 -13.5v-3q15 34 31.5 66t37.5 61q21 30 39 62.5t35 66.5
q-1 8 -1.5 16.5t-2.5 16.5q-3 17 -10.5 34t-14.5 34q20 3 37 -2t30 -16q3 5 5.5 11t5.5 12t5.5 12t6.5 11zM255 305q1 20 2.5 38.5t2.5 37.5q-20 -38 -40 -73t-37 -73t-35.5 -74t-37.5 -71l-2 -14t0 -14q1 -9 8 -16t17 -13t19.5 -12t15.5 -12q13 7 19.5 18t11.5 23
q20 47 32 96t19 100q2 15 3 29.5t2 29.5zM119 445v-3h2v4q-2 0 -2 -1zM81 480q0 1 -2 1l-2 -1l4 -2v2zM70 510l-1 1l-1 -1h2zM106 390v-1h-1z" />
    <glyph glyph-name="Ugrave" horiz-adv-x="350" 
d="M284 603q10 14 23 22.5t-1.5 -71t-15 -152.5t4.5 -148q2 -27 2 -54t1 -54q0 -17 -0.5 -32.5t-0.5 -32.5q-3 -58 -46 -97q-12 -11 -34 -17.5t-46.5 -8.5t-48 0t-37.5 9q-26 13 -36 35l-37 89q-6 20 -10 42t-2 43q7 104 7 206.5t-1 206.5q0 6 -0.5 12t-1.5 12
q30 25 43 25.5t27 -1.5q7 -1 14.5 -5.5t18 -25t10.5 -32.5q2 -34 0.5 -67t-2.5 -66q0 -11 0.5 -22.5t0.5 -22.5q1 -26 1.5 -51.5t-0.5 -51.5q-1 -18 -5 -36t-6 -36q-2 -22 -2.5 -44t2.5 -43q1 -11 26 -112q4 -6 31.5 -9t37.5 1.5t20 23t13.5 41t4.5 45.5q3 55 4.5 109
t3.5 109q2 50 6 98.5t15 97.5q5 50 16 65zM209 679q-4 0 -4 1q-11 16 -27.5 27t-29.5 26q-10 13 -17.5 28t-15.5 30q-3 7 0.5 13.5t10.5 11.5q10 9 23 2q8 -5 15.5 -10.5t10.5 -16.5q1 -5 6 -9q10 -10 15 -21.5t8 -24t4.5 -25.5t3.5 -25q0 -3 -3 -7z" />
    <glyph glyph-name="Ucircumflex" horiz-adv-x="350" 
d="M284 603q10 14 23 22.5t-1.5 -71t-15 -152.5t4.5 -148q2 -27 2 -54t1 -54q0 -17 -0.5 -32.5t-0.5 -32.5q-3 -58 -46 -97q-12 -11 -34 -17.5t-46.5 -8.5t-48 0t-37.5 9q-26 13 -36 35l-37 89q-6 20 -10 42t-2 43q7 104 7 206.5t-1 206.5q0 6 -0.5 12t-1.5 12
q30 25 43 25.5t27 -1.5q7 -1 14.5 -5.5t18 -25t10.5 -32.5q2 -34 0.5 -67t-2.5 -66q0 -11 0.5 -22.5t0.5 -22.5q1 -26 1.5 -51.5t-0.5 -51.5q-1 -18 -5 -36t-6 -36q-2 -22 -2.5 -44t2.5 -43q1 -11 26 -112q4 -6 31.5 -9t37.5 1.5t20 23t13.5 41t4.5 45.5q3 55 4.5 109
t3.5 109q2 50 6 98.5t15 97.5q5 50 16 65zM220 773l-39 -32q-9 -8 -18.5 -14t-17.5 -14q-4 -3 -6.5 -8t-5.5 -9q-12 -14 -29 3q-17 18 -18 30t13 26q21 18 41 36.5t40 37.5q2 2 5 4l6 4l14 -7q23 -10 31.5 -20.5t11.5 -33.5q1 -8 3.5 -15.5t4.5 -15.5q5 -13 9 -25.5t8 -26.5
q2 -3 1.5 -6t-0.5 -8q-11 3 -15.5 9.5t-7.5 14.5l-19 47q-2 5 -5 10t-7 13z" />
    <glyph glyph-name="agrave" horiz-adv-x="341" 
d="M268 33q17 25 45 53t58 48q-13 -30 -24 -52t-21.5 -39t-19.5 -30.5t-17 -26.5q-10 -12 -23.5 -17.5t-27 -3.5t-25.5 10t-19 23q-6 11 -10 23.5t-10 28.5q-9 -15 -16.5 -28t-13.5 -26q-14 -30 -31 -35t-42 -3q-20 2 -37 10t-28 27q-1 2 -2.5 14.5t-2.5 30t-0.5 37.5
t3.5 36q11 47 24.5 76t26.5 56l10 20t11 19q10 16 30 15q17 -2 33 -1.5t33 -1.5q51 -6 58 -12.5t18 -10.5q3 -2 5.5 -6l7.5 -12q-13 -2 -22.5 -4t-18.5 -1q-46 13 -54 8t-16 -16q-14 -21 -23.5 -44t-17.5 -48t-13 -49.5t-7 -50.5v-29q7 6 11 9.5t6 7.5q14 23 26 46t26 45
q12 19 25 36.5t26 34.5q11 16 28 12q4 -1 7.5 -0.5t7.5 -0.5q32 -2 38 -11.5t-4 -39.5q-9 -27 -13.5 -55t-6.5 -57q0 -3 0.5 -6.5t1.5 -8.5zM193 369q-4 0 -4 1q-11 16 -27.5 27t-29.5 26q-10 13 -17.5 28t-15.5 30q-3 7 0.5 13.5t10.5 11.5q10 9 23 2q8 -5 15.5 -10.5
t10.5 -16.5q1 -5 6 -9q10 -10 15 -21.5t8 -24t4.5 -25.5t3.5 -25q0 -3 -3 -7z" />
    <glyph glyph-name="atilde" horiz-adv-x="341" 
d="M268 33q17 25 45 53t58 48q-13 -30 -24 -52t-21.5 -39t-19.5 -30.5t-17 -26.5q-10 -12 -23.5 -17.5t-27 -3.5t-25.5 10t-19 23q-6 11 -10 23.5t-10 28.5q-9 -15 -16.5 -28t-13.5 -26q-14 -30 -31 -35t-42 -3q-20 2 -37 10t-28 27q-1 2 -2.5 14.5t-2.5 30t-0.5 37.5
t3.5 36q11 47 24.5 76t26.5 56l10 20t11 19q10 16 30 15q17 -2 33 -1.5t33 -1.5q51 -6 58 -12.5t18 -10.5q3 -2 5.5 -6l7.5 -12q-13 -2 -22.5 -4t-18.5 -1q-46 13 -54 8t-16 -16q-14 -21 -23.5 -44t-17.5 -48t-13 -49.5t-7 -50.5v-29q7 6 11 9.5t6 7.5q14 23 26 46t26 45
q12 19 25 36.5t26 34.5q11 16 28 12q4 -1 7.5 -0.5t7.5 -0.5q32 -2 38 -11.5t-4 -39.5q-9 -27 -13.5 -55t-6.5 -57q0 -3 0.5 -6.5t1.5 -8.5zM225 342q-15 7 -27.5 16t-18.5 23q-5 10 -13 13.5t-17 5.5q-4 1 -9 -2t-7 -7q-5 -6 -7.5 -13t-7.5 -13q-2 -3 -5 -5t-5 -4
q-2 3 -4.5 6t-2.5 6q-2 9 0 19q8 29 28 51q16 19 44 14q20 -2 34.5 -11.5t27.5 -23.5q4 -5 8.5 -8.5t9.5 -7.5q11 -8 21 -1q5 3 10.5 6.5t10.5 5.5q5 3 11 1q2 -1 2 -4.5t-1 -5.5q-5 -13 -12 -23q-8 -11 -13.5 -16t-15.5 -15q-6 -6 -21 -7.5t-20 0.5z" />
    <glyph glyph-name="aring" horiz-adv-x="341" 
d="M268 33q17 25 45 53t58 48q-13 -30 -24 -52t-21.5 -39t-19.5 -30.5t-17 -26.5q-10 -12 -23.5 -17.5t-27 -3.5t-25.5 10t-19 23q-6 11 -10 23.5t-10 28.5q-9 -15 -16.5 -28t-13.5 -26q-14 -30 -31 -35t-42 -3q-20 2 -37 10t-28 27q-1 2 -2.5 14.5t-2.5 30t-0.5 37.5
t3.5 36q11 47 24.5 76t26.5 56l10 20t11 19q10 16 30 15q17 -2 33 -1.5t33 -1.5q51 -6 58 -12.5t18 -10.5q3 -2 5.5 -6l7.5 -12q-13 -2 -22.5 -4t-18.5 -1q-46 13 -54 8t-16 -16q-14 -21 -23.5 -44t-17.5 -48t-13 -49.5t-7 -50.5v-29q7 6 11 9.5t6 7.5q14 23 26 46t26 45
q12 19 25 36.5t26 34.5q11 16 28 12q4 -1 7.5 -0.5t7.5 -0.5q32 -2 38 -11.5t-4 -39.5q-9 -27 -13.5 -55t-6.5 -57q0 -3 0.5 -6.5t1.5 -8.5zM310 429q-2 -5 -3.5 -10.5t-4.5 -9.5q-20 -22 -44 -37t-51 -24q-17 -6 -29.5 -7t-23 2.5t-20 12.5t-19.5 24q-13 18 -15 34.5
t16 42.5q11 16 25 25q14 10 29 19l30 18q11 6 22 6t22 -11q8 -8 17.5 -13.5t17.5 -13.5q13 -11 22.5 -24.5t8.5 -33.5zM145 375q38 -1 64 13.5t47 35.5q3 4 2 13t-3 14q-5 8 -11.5 6.5t-12.5 -5.5l-71 -54q-4 -3 -7 -8.5t-8 -14.5z" />
    <glyph glyph-name="egrave" horiz-adv-x="265" 
d="M258 362q23 -7 18 -25q-2 -5 -3.5 -9.5t-4.5 -9.5q-22 -38 -51 -73t-65 -67q-13 -12 -25.5 -25t-21.5 -27q-6 -10 -7.5 -21.5t-1.5 -22.5q0 -17 13 -37t31 -31q8 6 21.5 15.5t21.5 16.5q32 29 64 51.5t48 39.5q-2 -11 -5 -22q-2 -9 -5.5 -20t-8.5 -19q-16 -26 -39 -44.5
t-52 -39.5q-17 -12 -34.5 -12t-40.5 6q-34 9 -62 33t-40 54q-2 4 -2.5 8.5t-2.5 11.5l-2 20t-0.5 21t2.5 25t8 33q8 31 22 61t27 60q5 11 11.5 22t13.5 22q4 6 9 11.5t10 10.5q19 20 53 14q8 -2 17 -2t18 -2q12 -2 19 -6q22 -14 47 -21zM124 230q71 71 90 117
q-20 6 -25.5 5.5t-15.5 -11.5q-22 -23 -35 -49t-19 -54q0 -2 1.5 -4t3.5 -4zM211 438q-4 0 -4 1q-11 16 -27.5 27t-29.5 26q-10 13 -17.5 28t-15.5 30q-3 7 0.5 13.5t10.5 11.5q10 9 23 2q8 -5 15.5 -10.5t10.5 -16.5q1 -5 6 -9q10 -10 15 -21.5t8 -24t4.5 -25.5t3.5 -25
q0 -3 -3 -7z" />
    <glyph glyph-name="ecircumflex" horiz-adv-x="265" 
d="M258 362q23 -7 18 -25q-2 -5 -3.5 -9.5t-4.5 -9.5q-22 -38 -51 -73t-65 -67q-13 -12 -25.5 -25t-21.5 -27q-6 -10 -7.5 -21.5t-1.5 -22.5q0 -17 13 -37t31 -31q8 6 21.5 15.5t21.5 16.5q32 29 64 51.5t48 39.5q-2 -11 -5 -22q-2 -9 -5.5 -20t-8.5 -19q-16 -26 -39 -44.5
t-52 -39.5q-17 -12 -34.5 -12t-40.5 6q-34 9 -62 33t-40 54q-2 4 -2.5 8.5t-2.5 11.5l-2 20t-0.5 21t2.5 25t8 33q8 31 22 61t27 60q5 11 11.5 22t13.5 22q4 6 9 11.5t10 10.5q19 20 53 14q8 -2 17 -2t18 -2q12 -2 19 -6q22 -14 47 -21zM124 230q71 71 90 117
q-20 6 -25.5 5.5t-15.5 -11.5q-22 -23 -35 -49t-19 -54q0 -2 1.5 -4t3.5 -4zM197 503l-39 -32q-9 -8 -18.5 -14t-17.5 -14q-4 -3 -6.5 -8t-5.5 -9q-12 -14 -29 3q-17 18 -18 30t13 26q21 18 41 36.5t40 37.5q2 2 5 4l6 4l14 -7q23 -10 31.5 -20.5t11.5 -33.5q1 -8 3.5 -15.5
t4.5 -15.5q5 -13 9 -25.5t8 -26.5q2 -3 1.5 -6t-0.5 -8q-11 3 -15.5 9.5t-7.5 14.5l-19 47q-2 5 -5 10t-7 13z" />
    <glyph glyph-name="ntilde" horiz-adv-x="327" 
d="M272 42q20 15 43.5 42.5t40.5 50.5q2 -41 -9 -69.5t-26 -45.5q-28 -25 -54 -19.5t-52 27.5q-12 9 -14 23q-5 26 -7.5 50.5t10.5 47.5l27 57q7 16 11 34t-1 42q-8 -8 -14 -12.5t-10 -9.5q-35 -54 -70.5 -107.5t-61.5 -114.5q-4 -8 -8.5 -16t-9.5 -16q-27 -1 -46.5 14.5
t-20.5 40.5q-1 17 2 49.5t7 65.5q4 39 10 82q5 4 5 11t1 14q0 4 0.5 11.5t1.5 14.5t3 13t4 8t10.5 2.5t18 -2t17.5 -7t9 -13.5l2 -39q-5 -12 -3.5 -26.5t-0.5 -28.5q-2 -12 -4.5 -23.5t-4.5 -23.5l5 -4q4 4 8 6.5t7 7.5q23 35 51.5 65.5t60.5 57.5q14 12 33 17
q14 3 22.5 -2.5t18.5 -17.5q11 -14 13.5 -28t-1.5 -31q-8 -36 -13.5 -73.5t-18.5 -72.5q-5 -11 -6 -24.5t14 -27.5zM184 370q-15 7 -27.5 16t-18.5 23q-5 10 -13 13.5t-17 5.5q-4 1 -9 -2t-7 -7q-5 -6 -7.5 -13t-7.5 -13q-2 -3 -5 -5t-5 -4q-2 3 -4.5 6t-2.5 6q-2 9 0 19
q8 29 28 51q16 19 44 14q20 -2 34.5 -11.5t27.5 -23.5q4 -5 8.5 -8.5t9.5 -7.5q11 -8 21 -1q5 3 10.5 6.5t10.5 5.5q5 3 11 1q2 -1 2 -4.5t-1 -5.5q-5 -13 -12 -23q-8 -11 -13.5 -16t-15.5 -15q-6 -6 -21 -7.5t-20 0.5z" />
    <glyph glyph-name="ograve" horiz-adv-x="244" 
d="M198 102q4 -4 8 -4q7 0 13.5 3.5t14 9t17 12t23.5 12.5q-2 -11 -7 -24t-22 -26q-16 -14 -26.5 -18.5t-27.5 1.5q-2 0 -3 1q-3 -11 -6 -21.5t-8 -21.5q-8 -20 -21 -37t-40 -18q-45 -1 -85 28q-13 9 -19.5 22.5t-7.5 28.5v95q0 5 -0.5 9t-0.5 9l6 64q8 46 21.5 89t32.5 85
l9 15q13 27 46 19q18 -5 36.5 -9t37.5 -8q0 -2 0.5 -3t0.5 -3q-12 -8 -24.5 -15t-22.5 -17q-9 -10 -15.5 -22.5t-4.5 -27.5q23 -5 46 -8.5t48 -7.5l19 -81q0 -10 -3 -18t-7 -17t-8.5 -20.5t-8.5 -27.5zM120 22q10 23 18 47l16 48l-3 13q-5 17 -6.5 49.5t3.5 67.5
q-11 14 -18 29.5t-7 35.5q-5 0 -8 1q-2 -3 -4 -5.5t-3 -5.5q-18 -54 -27 -110t-11 -115q-1 -14 1 -29t5 -30q1 -5 5 -11t9 -8q4 -2 9.5 1t9.5 6q8 6 11 16zM187 466q-4 0 -4 1q-11 16 -27.5 27t-29.5 26q-10 13 -17.5 28t-15.5 30q-3 7 0.5 13.5t10.5 11.5q10 9 23 2
q8 -5 15.5 -10.5t10.5 -16.5q1 -5 6 -9q10 -10 15 -21.5t8 -24t4.5 -25.5t3.5 -25q0 -3 -3 -7z" />
    <glyph glyph-name="otilde" horiz-adv-x="244" 
d="M198 102q4 -4 8 -4q7 0 13.5 3.5t14 9t17 12t23.5 12.5q-2 -11 -7 -24t-22 -26q-16 -14 -26.5 -18.5t-27.5 1.5q-2 0 -3 1q-3 -11 -6 -21.5t-8 -21.5q-8 -20 -21 -37t-40 -18q-45 -1 -85 28q-13 9 -19.5 22.5t-7.5 28.5v95q0 5 -0.5 9t-0.5 9l6 64q8 46 21.5 89t32.5 85
l9 15q13 27 46 19q18 -5 36.5 -9t37.5 -8q0 -2 0.5 -3t0.5 -3q-12 -8 -24.5 -15t-22.5 -17q-9 -10 -15.5 -22.5t-4.5 -27.5q23 -5 46 -8.5t48 -7.5l19 -81q0 -10 -3 -18t-7 -17t-8.5 -20.5t-8.5 -27.5zM120 22q10 23 18 47l16 48l-3 13q-5 17 -6.5 49.5t3.5 67.5
q-11 14 -18 29.5t-7 35.5q-5 0 -8 1q-2 -3 -4 -5.5t-3 -5.5q-18 -54 -27 -110t-11 -115q-1 -14 1 -29t5 -30q1 -5 5 -11t9 -8q4 -2 9.5 1t9.5 6q8 6 11 16zM171 461q-15 7 -27.5 16t-18.5 23q-5 10 -13 13.5t-17 5.5q-4 1 -9 -2t-7 -7q-5 -6 -7.5 -13t-7.5 -13q-2 -3 -5 -5
t-5 -4q-2 3 -4.5 6t-2.5 6q-2 9 0 19q8 29 28 51q16 19 44 14q20 -2 34.5 -11.5t27.5 -23.5q4 -5 8.5 -8.5t9.5 -7.5q11 -8 21 -1q5 3 10.5 6.5t10.5 5.5q5 3 11 1q2 -1 2 -4.5t-1 -5.5q-5 -13 -12 -23q-8 -11 -13.5 -16t-15.5 -15q-6 -6 -21 -7.5t-20 0.5z" />
    <glyph glyph-name="oslash" horiz-adv-x="244" 
d="M223 432q11 21 21.5 24.5t27.5 -9.5q-16 -33 -31 -66l-30 -66q2 -1 6 -1l19 -81q0 -10 -3 -18t-7 -17t-8.5 -20.5t-8.5 -27.5l-11 -48q4 -4 8 -4q7 0 13.5 3.5t14 9t17 12t23.5 12.5q-2 -11 -7 -24t-22 -26q-16 -14 -26.5 -18.5t-27.5 1.5q-2 0 -3 1q-3 -11 -6 -21.5
t-8 -21.5q-8 -20 -21 -37t-40 -18q-30 0 -57 12q-2 -4 -2.5 -8.5t-2.5 -9.5l-13 -42q-4 -12 -8.5 -24t-9.5 -26q-5 -4 -9.5 -3t-8.5 4.5t-8.5 8.5t-8.5 10q2 5 2.5 9.5t2.5 8.5l16 46t18 45q-21 18 -23 48v95q0 5 -0.5 9t-0.5 9l6 64q8 46 21.5 89t32.5 85l9 15q13 27 46 19
q18 -5 36.5 -9t37.5 -8q0 -2 0.5 -3t0.5 -3q-12 -8 -24.5 -15t-22.5 -17q-9 -10 -15.5 -22.5t-4.5 -27.5q14 -3 26.5 -5.5t26.5 -4.5l39 94q2 5 4 9t4 9zM120 22q10 23 18 47l16 48l-3 13q-2 8 -4 19.5t-3 25.5l-17 -40q-12 -30 -25 -58t-27 -55q0 -3 1 -4q1 -5 5 -11t9 -8
q4 -2 9.5 1t9.5 6q8 6 11 16zM108 302q-16 -45 -24.5 -92.5t-11.5 -97.5q12 30 24.5 59t29.5 55q8 12 16 28q-9 13 -14 27t-5 31q-5 0 -8 1q-2 -3 -4 -5.5t-3 -5.5z" />
    <glyph glyph-name="ugrave" horiz-adv-x="359" 
d="M309 56q6 6 16 16.5t21 21.5t22.5 22t20.5 18q-9 -24 -15 -39.5t-11.5 -27t-10.5 -20t-11 -18.5q-16 -20 -36.5 -22t-43.5 5q-39 12 -44 54q-1 11 -2.5 21t-6.5 21q-3 -5 -6 -10.5t-5 -11.5q-6 -15 -12 -29.5t-11 -29.5q-6 -21 -23.5 -35.5t-40 -19.5t-46.5 -0.5
t-43 21.5q-23 21 -21 54q1 26 2.5 51t3.5 51q1 5 1 11v13l25 81q8 28 16.5 56t17.5 56q4 13 7 20.5t7.5 11t11.5 4.5t21 2q12 1 21 0.5t16.5 -2t15 -4.5t18.5 -9l-9 -17q-2 -5 -5 -9t-4 -9q-7 -45 -19 -88.5t-23 -88.5q-4 -18 -6.5 -36t-5.5 -35q-1 -7 -2 -13.5t-3 -13.5
q-11 -30 1 -62q11 6 15.5 16t9.5 20q18 41 35 81.5t35 81.5q9 20 17.5 39t10.5 42q1 8 6 16.5t10 16.5q9 -1 18.5 0t19.5 1.5t19.5 -0.5t20.5 -6l-13 -33q-4 -11 -8 -22.5t-5 -22.5q-3 -63 -3 -126q1 -15 4 -30.5t5 -31.5l-2 -7q4 2 6 4zM255 400q-4 0 -4 1q-11 16 -27.5 27
t-29.5 26q-10 13 -17.5 28t-15.5 30q-3 7 0.5 13.5t10.5 11.5q10 9 23 2q8 -5 15.5 -10.5t10.5 -16.5q1 -5 6 -9q10 -10 15 -21.5t8 -24t4.5 -25.5t3.5 -25q0 -3 -3 -7z" />
    <glyph glyph-name="ucircumflex" horiz-adv-x="359" 
d="M309 56q6 6 16 16.5t21 21.5t22.5 22t20.5 18q-9 -24 -15 -39.5t-11.5 -27t-10.5 -20t-11 -18.5q-16 -20 -36.5 -22t-43.5 5q-39 12 -44 54q-1 11 -2.5 21t-6.5 21q-3 -5 -6 -10.5t-5 -11.5q-6 -15 -12 -29.5t-11 -29.5q-6 -21 -23.5 -35.5t-40 -19.5t-46.5 -0.5
t-43 21.5q-23 21 -21 54q1 26 2.5 51t3.5 51q1 5 1 11v13l25 81q8 28 16.5 56t17.5 56q4 13 7 20.5t7.5 11t11.5 4.5t21 2q12 1 21 0.5t16.5 -2t15 -4.5t18.5 -9l-9 -17q-2 -5 -5 -9t-4 -9q-7 -45 -19 -88.5t-23 -88.5q-4 -18 -6.5 -36t-5.5 -35q-1 -7 -2 -13.5t-3 -13.5
q-11 -30 1 -62q11 6 15.5 16t9.5 20q18 41 35 81.5t35 81.5q9 20 17.5 39t10.5 42q1 8 6 16.5t10 16.5q9 -1 18.5 0t19.5 1.5t19.5 -0.5t20.5 -6l-13 -33q-4 -11 -8 -22.5t-5 -22.5q-3 -63 -3 -126q1 -15 4 -30.5t5 -31.5l-2 -7q4 2 6 4zM225 516l-39 -32q-9 -8 -18.5 -14
t-17.5 -14q-4 -3 -6.5 -8t-5.5 -9q-12 -14 -29 3q-17 18 -18 30t13 26q21 18 41 36.5t40 37.5q2 2 5 4l6 4l14 -7q23 -10 31.5 -20.5t11.5 -33.5q1 -8 3.5 -15.5t4.5 -15.5q5 -13 9 -25.5t8 -26.5q2 -3 1.5 -6t-0.5 -8q-11 3 -15.5 9.5t-7.5 14.5l-19 47q-2 5 -5 10t-7 13z
" />
    <glyph glyph-name="ydieresis" horiz-adv-x="396" 
d="M426 134q-8 -22 -17 -40t-18 -32.5t-16 -26.5t-9 -22q-3 -19 -2.5 -37.5t3 -37t4.5 -37.5t1 -38t-1.5 -47.5t-3.5 -60t-9 -63.5t-18 -58t-30.5 -42.5t-46.5 -18.5q-50 -3 -74 27.5t-30 81t1 113t19 122.5t24.5 110t16.5 76q-9 -17 -20 -42.5t-24.5 -50.5t-30.5 -44.5
t-38 -24.5q-29 -7 -50 5t-34.5 33t-20.5 47.5t-8 48.5q-2 31 3.5 62.5t10.5 62.5q3 17 7 28.5t11.5 17t20 4.5t32.5 -8q19 -6 25.5 -15t6 -20.5t-5 -25t-5.5 -29.5q-4 -29 -6 -58.5t-5 -58.5q-2 -12 -3.5 -24t1 -20t9.5 -9.5t24 8.5q7 4 13 12t12 17.5t10.5 18.5t8.5 16
q14 23 26 46t23 47q9 20 13.5 41t12.5 40q10 21 27.5 26.5t34.5 -0.5t29 -22.5t11 -39.5q0 -11 -3.5 -22t-6 -22t-3 -21.5t4.5 -20.5q8 -16 19 -16t23 7.5t25 18.5t26 18zM338 -70q0 7 0.5 30t-0.5 47.5t-5 43t-14 17.5q-7 -1 -14 -23.5t-13 -50.5t-11 -53.5t-6 -32.5
q-7 -29 -15.5 -72t-11.5 -87.5t5 -84.5t34 -63q18 35 28.5 76t15.5 84.5t6 86.5t1 82zM276 328l7 -42l-15 -3q-14 -2 -26 -0.5t-20 18.5q-8 19 -9 36t13 34q6 7 13.5 12t15.5 13q11 -10 21 -18.5t19 -18.5q11 -10 10 -15.5t-15 -11.5zM157 338q-6 14 -15 25.5t-19 22.5
q-2 3 -8 3.5t-11 0.5q-17 -2 -27 -14.5t-9 -29.5q1 -20 14.5 -35t30.5 -16q10 0 19 4t16 10.5t9.5 14t-0.5 14.5z" />
    <glyph glyph-name="Ydieresis" horiz-adv-x="246" 
d="M444 642q-11 -8 -17.5 -13t-13.5 -8q-23 -11 -37.5 -29.5t-29.5 -36.5l-86 -100q-14 -15 -27.5 -30t-27.5 -29q-15 -13 -8 -32q7 -20 6.5 -36.5t-14.5 -35.5q-8 -11 -9 -28t-2 -33q-1 -26 -0.5 -51t0.5 -51q0 -9 -1 -18.5t-1 -19.5l-6 -134q-1 -26 -31 -33
q-19 -5 -36 -1.5t-34 8.5q-19 7 -19 28q1 26 0 52.5t-1 52.5t2 52t8 52q3 11 2.5 22.5t0.5 22.5q0 16 -1 31.5t1 31.5q5 38 -6.5 71.5t-31.5 65.5q-5 8 -9.5 15t-1.5 17l-28 47l-65 115l-27 52q9 7 21.5 11t25.5 4.5t25 -2t21 -7.5q26 -16 40.5 -40t29.5 -47q4 -6 3 -14.5
t0 -16.5q4 -1 7 -2l6 -2q20 -11 25.5 -29t11.5 -37l4 -11v1q2 -6 4 -11.5t4 -10.5q6 -3 13 -1t12 -8q6 -11 14.5 -11t18.5 8q6 5 11.5 10t9.5 11q27 38 56.5 72t51.5 76q5 9 11.5 17t13.5 16q10 11 20.5 16.5t26.5 0.5q14 -4 29 -5.5t35 -4.5zM41 528q0 -19 2.5 -22t17.5 -1
q-5 6 -6 14t-14 9zM106 456l-4 -3l3 -4q0 2 1 2.5t1 2.5zM102 412q3 0 4 1l-3 3l-3 -3l1 -1h1zM76 524h-2l1 -2zM265 711l7 -42l-15 -3q-14 -2 -26 -0.5t-20 18.5q-8 19 -9 36t13 34q6 7 13.5 12t15.5 13q11 -10 21 -18.5t19 -18.5q11 -10 10 -15.5t-15 -11.5zM146 721
q-6 14 -15 25.5t-19 22.5q-2 3 -8 3.5t-11 0.5q-17 -2 -27 -14.5t-9 -29.5q1 -20 14.5 -35t30.5 -16q10 0 19 4t16 10.5t9.5 14t-0.5 14.5z" />
    <glyph glyph-name="igrave" horiz-adv-x="134" 
d="M83 40q10 13 20 27.5t20.5 28t21 23.5t19.5 15q-7 -17 -19 -40.5t-24.5 -44.5t-23 -36t-13.5 -15q-7 0 -22 1.5t-21 4.5q-15 4 -21 18.5t-8 30.5q-2 14 -1.5 33.5t-1.5 33.5q0 1 0.5 7t1 13.5t0 15t-1.5 11.5q-1 15 -1 25.5t1 21.5t4 24t8 31q5 7 8 15.5t14 10.5
q14 2 28.5 3t29.5 -11q-14 -24 -14.5 -50.5t0.5 -53.5q1 -13 -0.5 -32t-3 -39.5t-2 -39.5t1.5 -32zM114 369q-4 0 -4 1q-11 16 -27.5 27t-29.5 26q-10 13 -17.5 28t-15.5 30q-3 7 0.5 13.5t10.5 11.5q10 9 23 2q8 -5 15.5 -10.5t10.5 -16.5q1 -5 6 -9q10 -10 15 -21.5t8 -24
t4.5 -25.5t3.5 -25q0 -3 -3 -7z" />
    <glyph glyph-name="idieresis" horiz-adv-x="134" 
d="M83 40q10 13 20 27.5t20.5 28t21 23.5t19.5 15q-7 -17 -19 -40.5t-24.5 -44.5t-23 -36t-13.5 -15q-7 0 -22 1.5t-21 4.5q-15 4 -21 18.5t-8 30.5q-2 14 -1.5 33.5t-1.5 33.5q0 1 0.5 7t1 13.5t0 15t-1.5 11.5q-1 15 -1 25.5t1 21.5t4 24t8 31q5 7 8 15.5t14 10.5
q14 2 28.5 3t29.5 -11q-14 -24 -14.5 -50.5t0.5 -53.5q1 -13 -0.5 -32t-3 -39.5t-2 -39.5t1.5 -32zM162 387l7 -42l-15 -3q-14 -2 -26 -0.5t-20 18.5q-8 19 -9 36t13 34q6 7 13.5 12t15.5 13q11 -10 21 -18.5t19 -18.5q11 -10 10 -15.5t-15 -11.5zM43 397q-6 14 -15 25.5
t-19 22.5q-2 3 -8 3.5t-11 0.5q-17 -2 -27 -14.5t-9 -29.5q1 -20 14.5 -35t30.5 -16q10 0 19 4t16 10.5t9.5 14t-0.5 14.5z" />
    <glyph glyph-name="oe" horiz-adv-x="405" 
d="M417 362q22 -6 17 -25q-2 -5 -3.5 -9t-3.5 -9q-22 -38 -51.5 -73t-64.5 -67q-14 -13 -26 -25.5t-21 -26.5q-7 -10 -8 -21.5t-1 -22.5q-1 -17 12.5 -37t30.5 -31q8 5 21.5 14.5t21.5 16.5q33 29 54 52t36 39q1 -13 0 -24q-1 -10 -2.5 -21t-6.5 -19q-8 -14 -16 -24
t-17 -19.5t-19.5 -18.5t-25.5 -19q-17 -11 -34.5 -11.5t-40.5 5.5q-26 8 -49 24t-38 37l-8 -21q-8 -20 -21 -37t-40 -18q-45 -1 -85 28q-25 19 -27 51v95q0 5 -0.5 9t-0.5 9l6 64q8 47 21.5 89.5t32.5 84.5q2 5 4.5 8t4.5 7q3 7 7.5 10t10.5 4.5t13 2t15 2.5q15 4 35 0
t38.5 -12t33.5 -17.5t19 -15.5t3.5 -10t-3 -5t-6 1t-5.5 7t-11 9.5t-21.5 6t-27 -2.5t-27.5 -16q-21 -20 -25 -38t-10 -40q-16 -54 -26 -110t-12 -114q-1 -15 1 -30t5 -30q1 -5 5 -11t9 -8q4 -2 9.5 1t9.5 6q8 6 11 16q22 54 39 111q0 11 2.5 25t8.5 34q8 31 21.5 61.5
t27.5 60.5q5 11 11.5 22t13.5 22q4 5 9 10.5t10 10.5q19 20 52 14q9 -2 18 -2t18 -2l10 -2t9 -3q11 -7 22 -12.5t25 -9.5zM282 231q35 34 58.5 64.5t32.5 51.5q-20 7 -25.5 6t-16.5 -12q-22 -23 -34.5 -49t-18.5 -54q0 -2 1.5 -3.5t2.5 -3.5z" />
    <glyph glyph-name="OE" horiz-adv-x="533" 
d="M515 650q17 -5 29.5 -15t20.5 -25q5 -10 8 -21.5t1 -20.5q-11 -37 -23.5 -73t-35.5 -68q-12 -17 -28 -20.5t-33 -1.5t-22.5 13.5t2.5 26.5q12 27 24.5 54t24.5 55q7 15 8.5 26.5t-0.5 34.5q-14 5 -29 9.5t-30 7.5q-16 4 -23.5 0t-15.5 -19q-20 -38 -31.5 -77.5
t-12.5 -84.5q-1 -47 11.5 -89.5t22.5 -86.5q2 -8 6.5 -14.5t9.5 -14.5q11 -18 3 -30t-28 -14q-11 -2 -21.5 -1.5t-19.5 -10.5q-10 -11 -13 -24.5t-5 -27.5q-5 -40 -2.5 -79.5t4.5 -78.5l4 -17q8 6 15 10.5t12 9.5q23 25 45.5 50t45.5 50l14 16t15 15q11 10 25.5 14t31.5 -2
q-2 -5 -3.5 -8.5t-3.5 -7.5q-16 -23 -32 -45.5t-33 -43.5t-33.5 -40.5t-36.5 -37.5q-16 -15 -36.5 -22t-43.5 -1q-7 2 -13.5 2t-13.5 2q-17 3 -33 10.5t-27 21.5q-2 -2 -5 -3.5t-5 -3.5q-11 -7 -21.5 -10t-23.5 -1q-29 5 -53.5 14.5t-43 26t-31.5 41t-19 59.5
q-2 12 -6.5 24.5t3.5 24.5q-9 11 -10.5 23.5t-0.5 25.5q2 32 5 63t10 62q7 29 11 58t7 59q5 42 18 81t27 78q5 14 10.5 27t10.5 27q5 11 8.5 17.5t9 9t13.5 1.5t21 -4q8 -1 17 -5q17 -8 26.5 -14t13 -13.5t1.5 -18t-7 -26.5q-11 -36 -33 -72t-33 -72q-2 -8 -4.5 -16
t-5.5 -16q-2 -2 -5 -3t-6 -3l-9 -6l18 -6q-3 -34 -6 -67t-5 -66q-1 -7 -0.5 -13.5t0.5 -13.5q0 -5 2 -9.5t0 -8.5q-11 -27 -7.5 -56t2.5 -57q0 -8 -1.5 -15.5t-0.5 -15.5q1 -9 8 -16t17 -13t19.5 -12t15.5 -12q11 6 17 14t11 18v35t2 35q3 26 11 51t19 49q14 29 43 33
q8 1 15 2.5t15 3.5q-3 9 -5 14q-39 77 -37 165q2 63 16 121.5t49 112.5q10 16 30 16q28 -1 55.5 -3t53.5 -13q13 -5 26 -7.5t26 -6.5zM345 276q1 0 1 1t1 1l-2 2q-2 -2 -2 -4h2zM119 446v-3h2v4q-1 -1 -2 -1zM81 481q0 1 -2 1l-2 -1l4 -2v2zM70 511l-1 1l-1 -1h2z" />
    <glyph glyph-name="AE" horiz-adv-x="543" 
d="M525 650q17 -5 29.5 -15t20.5 -25q5 -10 8 -21.5t1 -20.5q-11 -37 -23.5 -73t-35.5 -68q-12 -17 -28 -20.5t-33 -1.5t-22.5 13.5t1.5 26.5q13 27 25.5 54t24.5 55q7 15 8.5 26.5t-0.5 34.5q-14 5 -29 9.5t-30 7.5q-16 4 -23.5 0t-15.5 -19q-20 -38 -31.5 -77.5
t-12.5 -84.5q-1 -47 11.5 -89.5t22.5 -86.5q2 -8 6.5 -14.5t9.5 -14.5q11 -18 2.5 -30t-27.5 -14q-11 -2 -21.5 -1.5t-19.5 -10.5q-11 -11 -13.5 -24.5t-4.5 -27.5q-5 -40 -2.5 -79.5t4.5 -78.5q1 -3 1.5 -6.5l1.5 -10.5q9 6 16 10.5t12 9.5q23 25 45.5 50t45.5 50l14 16
t15 15q11 10 25 14t32 -2q-2 -5 -3.5 -8.5t-3.5 -7.5q-17 -23 -32.5 -45.5t-32.5 -43.5t-33.5 -40.5t-36.5 -37.5q-16 -15 -36.5 -22t-43.5 -1q-7 2 -13.5 2t-13.5 2q-17 3 -31.5 10t-26 19t-17.5 30t-6 43q0 13 0.5 25.5t0.5 25.5q-12 -26 -25 -47.5t-24 -31.5
q-5 -20 -15.5 -27.5t-30.5 -5.5q-14 2 -27 3t-26 6q-17 7 -26.5 21t-15.5 31q-11 27 -13.5 55t-2.5 57q0 35 1 69t3 69q2 38 5.5 76t8.5 76q3 29 6.5 57t9.5 56q5 20 12.5 38t14.5 37q8 21 24 28t34 5q32 -5 62.5 -11.5t61.5 -13.5q10 -3 19 -14q2 -2 3.5 -7.5t-0.5 -7.5
q-2 -3 -7 -5t-8 -1q-12 3 -24 7.5t-24 8.5q-32 10 -50 -3t-20 -46t-2 -66t-5 -65q-5 -39 -6 -78.5t-14 -77.5q-4 -12 -3 -25l2 -26q0 -13 0.5 -37.5t1 -51t1.5 -51t4 -38.5q10 8 24.5 24t29.5 35.5t30.5 39.5t27.5 37q3 10 6.5 18.5t8.5 17.5q14 29 43 33q8 1 15 2.5t15 3.5
q-3 9 -5 14q-39 77 -37 165q2 63 16 121.5t49 112.5q10 16 30 16q28 -1 55.5 -3t53.5 -13q12 -5 25.5 -7.5t26.5 -6.5zM355 276q1 0 1 1t1 1l-3 2q0 -1 -0.5 -2t-0.5 -2h2z" />
    <glyph glyph-name="ae" horiz-adv-x="434" 
d="M446 362q22 -6 17 -25q-2 -5 -3.5 -9t-3.5 -9q-22 -38 -51.5 -73t-64.5 -67q-14 -13 -26 -25.5t-21 -26.5q-7 -10 -8 -21.5t-1 -22.5q-1 -17 12.5 -37t30.5 -31q8 5 21.5 14.5t21.5 16.5q33 29 54 52t36 39q1 -13 0 -24q-1 -10 -2.5 -21t-6.5 -19q-8 -14 -16 -24
t-17 -19.5t-19.5 -18.5t-25.5 -19q-17 -11 -34.5 -11.5t-40.5 5.5q-34 9 -62 33t-40 54q-2 4 -3 8.5t-3 12.5q0 4 -0.5 7.5t-0.5 7.5q-7 -18 -14.5 -36.5t-13.5 -34t-10.5 -27t-6.5 -15.5q-14 -30 -31 -35t-42 -3q-20 2 -37 10t-28 27q-1 2 -2.5 15t-2.5 30.5t-0.5 37
t3.5 35.5q11 47 24.5 76.5t26.5 55.5l10 20t11 19q10 16 30 15q17 -2 33 -1t33 -1q11 -2 21.5 -5t21.5 -7q3 -2 5.5 -6t7.5 -10q5 11 10 22.5t10 22.5t11.5 22t13.5 22q4 5 9 10.5t10 10.5q19 20 52 14q9 -2 18 -2t18 -2l10 -2t8 -3q11 -7 22.5 -12.5t25.5 -9.5zM199 192
q5 20 12.5 38t15.5 37q-12 -2 -21.5 -4t-18.5 -1q-13 2 -21 -3.5t-16 -15.5q-14 -22 -23.5 -45t-17.5 -48t-13 -49t-7 -50v-30q7 7 11 10t6 8q14 23 26 45.5t26 45.5q17 26 38 53zM311 231q35 34 58.5 64.5t32.5 51.5q-20 7 -25.5 6t-16.5 -12q-22 -23 -34.5 -49t-18.5 -54
q0 -1 4 -7z" />
    </font>
</defs>
</svg>
