<?xml version="1.0" standalone="no"?>
<!DOCTYPE svg PUBLIC "-//W3C//DTD SVG 1.1//EN" "http://www.w3.org/Graphics/SVG/1.1/DTD/svg11.dtd" >
<svg xmlns="http://www.w3.org/2000/svg" xmlns:xlink="http://www.w3.org/1999/xlink" version="1.1">
<metadata>
Created by FontForge 20170731 at Thu Jun  9 17:33:21 2011
 By Aleksey,,,
2011 Iconian Fonts - www.iconian.com
</metadata>
<defs>
<font id="FederalServiceItalic" horiz-adv-x="763" >
  <font-face 
    font-family="Federal Service Italic"
    font-weight="400"
    font-style="italic"
    font-stretch="normal"
    units-per-em="1000"
    panose-1="0 0 0 0 0 0 0 0 0 0"
    ascent="800"
    descent="-200"
    x-height="596"
    cap-height="596"
    bbox="17 -169 1258 874"
    underline-thickness="50"
    underline-position="-175"
    slope="-12"
    unicode-range="U+0020-2122"
  />
<missing-glyph horiz-adv-x="500" 
 />
    <glyph glyph-name=".notdef" horiz-adv-x="500" 
 />
    <glyph glyph-name=".null" horiz-adv-x="0" 
 />
    <glyph glyph-name="nonmarkingreturn" horiz-adv-x="500" 
 />
    <glyph glyph-name="space" unicode=" " horiz-adv-x="352" 
 />
    <glyph glyph-name="space" unicode="&#xa0;" horiz-adv-x="352" 
 />
    <glyph glyph-name="FL0021h" unicode="!" horiz-adv-x="261" 
d="M331 593h-146l-91 -423h146zM69 62q-6 -26 11.5 -44.5t49.5 -18.5t58 18.5t32 44.5q5 26 -13 44.5t-50 18.5t-57.5 -18.5t-30.5 -44.5z" />
    <glyph glyph-name="FL0022h" unicode="&#x22;" horiz-adv-x="463" 
d="M346 416q-5 -26 12.5 -45t49.5 -19t58 18.5t32 44.5l25 118q5 26 -12.5 44.5t-49.5 18.5t-58 -18.5t-31 -44.5zM145 415q-6 -26 11.5 -45t49.5 -19t58 18.5t32 44.5l25 118q5 26 -13 44.5t-50 18.5t-57.5 -18.5t-30.5 -44.5z" />
    <glyph glyph-name="FL0023h" unicode="#" horiz-adv-x="757" 
d="M132 354h121l-27 -123h-121l-28 -125h121l-22 -106h144l22 106h118l-22 -106h144l23 107h120l27 124h-120l27 124h120l26 124h-120l26 117h-144l-26 -117h-118l26 117h-144l-26 -117h-121zM515 354l-27 -123h-118l27 123h118z" />
    <glyph glyph-name="FL0024h" unicode="$" 
d="M429 -124l27 124q130 6 208.5 84t107.5 212l14 65h-252l24 111h252l27 124h-252l25 122h-143l-25 -122q-134 -5 -213.5 -82.5t-108.5 -213.5l-13 -62h258l-25 -114h-258l-27 -124h258l-27 -124h143zM414 468l-23 -107h-111q23 51 56 75.5t78 31.5zM613 238
q-21 -51 -53 -76.5t-76 -33.5l24 110h105z" />
    <glyph glyph-name="FL0025h" unicode="%" horiz-adv-x="863" 
d="M251 0l633 596h-139l-638 -596h144zM463 397l22 99q5 25 1.5 43.5t-19.5 31t-45.5 18.5t-76.5 6q-92 0 -132.5 -26.5t-51.5 -74.5l-21 -98q-5 -24 -1.5 -42.5t19.5 -31t45 -19.5t74 -7q47 0 80 6t55 19t34 31.5t17 44.5zM329 518q25 0 39.5 -3.5t21 -9t7 -13.5t-1.5 -17
l-11 -53q-3 -14 -8 -23t-15 -14.5t-26.5 -8t-41.5 -2.5q-44 0 -57 12.5t-8 32.5l12 56q5 20 24.5 31.5t64.5 11.5zM829 101l23 99q5 25 1.5 43.5t-19.5 31t-45.5 18.5t-76.5 6q-46 0 -79 -7t-54.5 -19.5t-33.5 -31.5t-17 -43l-21 -98q-5 -24 -1.5 -42.5t19 -31t44.5 -19.5
t74 -7q47 0 80 6t55 19t34 31.5t17 44.5zM694 222q25 0 39.5 -3.5t21 -9t7.5 -13.5t0 -17l-11 -53q-3 -14 -8.5 -23t-15.5 -14.5t-26 -8t-41 -2.5q-44 0 -57 12.5t-8 32.5l12 56q4 20 23 31.5t64 11.5z" />
    <glyph glyph-name="FL0026h" unicode="&#x26;" horiz-adv-x="871" 
d="M816 0h-539q-61 0 -99 20.5t-56 59.5t-17.5 94.5t15.5 125.5q30 139 100 218.5t182 79.5h117q100 0 144 -63t30 -178h201l-27 -123h-122q-19 -61 -49 -110h147zM552 361q6 25 4 46.5t-15 37t-39.5 24t-69.5 8.5q-38 0 -65 -9t-45 -24.5t-29 -37t-16 -45.5h275zM604 234
h-354q-26 -111 93 -111h107q125 0 154 111z" />
    <glyph glyph-name="FL0027h" unicode="'" horiz-adv-x="261" 
d="M144 416q-5 -26 12.5 -45t49.5 -19t58 18.5t32 44.5l25 118q5 26 -12.5 44.5t-49.5 18.5t-58 -18.5t-31 -44.5z" />
    <glyph glyph-name="FL0028h" unicode="(" horiz-adv-x="451" 
d="M378 -68l26 121h-67q-33 0 -53 17.5t-30 44.5t-10.5 59t6.5 61l26 123q6 25 19 57t34 59.5t50 46.5t67 19h67l25 119h-123q-56 0 -103.5 -30t-85 -80t-64.5 -115t-42 -134q-15 -71 -18 -137t12 -117.5t51.5 -82.5t99.5 -31h113z" />
    <glyph glyph-name="FL0029h" unicode=")" horiz-adv-x="451" 
d="M42 -68l26 121h67q33 0 60.5 17.5t49 44.5t36 59t21.5 61l26 123q6 25 6.5 57t-8 59.5t-29.5 46.5t-59 19h-67l25 119h123q56 0 90.5 -30t51 -80t15.5 -115t-16 -134q-15 -71 -41 -137t-63.5 -117.5t-87.5 -82.5t-113 -31h-113z" />
    <glyph glyph-name="FL002Ah" unicode="*" horiz-adv-x="367" 
d="M399 579l45 -59l-72 -44l58 -47l-69 -72l-41 49l-14 -61h-92l14 63l-65 -51l-40 72l72 44l-47 41l79 65l32 -39l11 55h92l-12 -56z" />
    <glyph glyph-name="FL002Bh" unicode="+" horiz-adv-x="556" 
d="M329 519l-35 -161h-162l-26 -123h162l-35 -162h123l35 162h161l26 123h-161l35 161h-123z" />
    <glyph glyph-name="FL002Ch" unicode="," horiz-adv-x="261" 
d="M44 -54q-6 -26 11 -45t49 -19t58.5 18.5t31.5 44.5l26 118q5 26 -12.5 44.5t-49.5 18.5t-58 -18.5t-31 -44.5z" />
    <glyph glyph-name="FL002Dh" unicode="-" horiz-adv-x="488" 
d="M106 234h378l26 124h-378z" />
    <glyph glyph-name="FL002Eh" unicode="." horiz-adv-x="261" 
d="M69 63q-5 -26 12 -44.5t49 -18.5t58.5 18.5t31.5 44.5t-12.5 44.5t-49.5 18.5t-58 -18.5t-31 -44.5z" />
    <glyph glyph-name="FL002Fh" unicode="/" horiz-adv-x="448" 
d="M199 0l323 596h-144l-323 -596h144z" />
    <glyph glyph-name="FL0030h" unicode="0" horiz-adv-x="761" 
d="M478 0q63 0 111 20.5t83 59t59.5 94t39.5 126.5q15 69 14 124t-20 93.5t-55.5 58.5t-92.5 20h-215q-112 0 -182 -78.5t-100 -217.5q-15 -71 -15.5 -126.5t18.5 -94t58 -59t102 -20.5h195zM639 358l-26 -123q-26 -114 -155 -114h-110q-124 0 -98 114l26 123q6 25 16.5 47
t29 38t45.5 25t65 9h103q38 0 61 -9t34.5 -25t13 -38t-4.5 -47zM370 295q-6 -26 11.5 -44.5t49.5 -18.5t58 18.5t32 44.5q5 26 -13 44.5t-50 18.5t-57.5 -18.5t-30.5 -44.5z" />
    <glyph glyph-name="FL0031h" unicode="1" horiz-adv-x="325" 
d="M184 597l-26 -119h71l-103 -478h144l129 596z" />
    <glyph glyph-name="FL0032h" unicode="2" 
d="M735 125l-27 -125h-653l77 358h506q1 33 -8 55t-27 35t-44 18.5t-57 5.5h-345l27 124h380q69 0 116 -20t72.5 -58.5t30.5 -93.5t-10 -124l-14 -65h-506l-24 -110h506z" />
    <glyph glyph-name="FL0062h" unicode="3" horiz-adv-x="700" 
d="M55 0l26 121h316q129 0 155 114h-446l26 123h446q6 25 4.5 47t-13 38t-34.5 25t-61 9h-316l26 119h372q56 0 92.5 -20t55.5 -58.5t20 -93.5t-14 -124q-15 -71 -39.5 -126.5t-59.5 -94t-83 -59t-111 -20.5h-362z" />
    <glyph glyph-name="FL0034h" unicode="4" horiz-adv-x="701" 
d="M646 0l129 596h-139l-52 -238h-308l52 238h-144l-78 -360h452l-51 -236h139z" />
    <glyph glyph-name="FL0035h" unicode="5" 
d="M810 471l27 125h-653l-77 -358h506q-27 -66 -75 -90t-111 -24h-345l-27 -124h380q139 0 223 78.5t114 217.5l14 65h-506l24 110h506z" />
    <glyph glyph-name="FL0036h" unicode="6" 
d="M465 472h345l27 124h-380q-68 0 -122.5 -18.5t-96 -53.5t-69.5 -85t-43 -112l-19 -89h2q-8 -57 -2.5 -101t26 -74.5t57.5 -46.5t93 -16h152q139 0 223 78.5t114 217.5l14 65h-506q26 64 74 87.5t111 23.5zM613 238q-27 -66 -75 -90t-111 -24h-98v-2q-46 11 -68 36.5
t-11 76.5v3h363z" />
    <glyph glyph-name="FL0037h" unicode="7" horiz-adv-x="694" 
d="M742 477l26 119h-584l-26 -119h393l-496 -477h194z" />
    <glyph glyph-name="FL0038h" unicode="8" horiz-adv-x="761" 
d="M478 0q63 0 111 20.5t83 59t59.5 94t39.5 126.5q15 69 14 124t-20 93.5t-55.5 58.5t-92.5 20h-215q-112 0 -182 -78.5t-100 -217.5q-15 -71 -15.5 -126.5t18.5 -94t58 -59t102 -20.5h195zM639 358h-363q6 25 16.5 47t29 38t45.5 25t65 9h103q38 0 61 -9t34.5 -25t13 -38
t-4.5 -47zM458 121h-110q-124 0 -98 113h363q-27 -113 -155 -113z" />
    <glyph glyph-name="FL0039h" unicode="9" 
d="M426 124h-194l-27 -124h229q136 0 217 72t114 197l19 89h-2q7 57 1.5 101t-25.5 74.5t-57 46.5t-93 16h-152q-139 0 -223 -78.5t-114 -217.5l-14 -65h506q-14 -32 -33 -53.5t-42.5 -34.5t-51 -18t-58.5 -5zM278 358q26 66 74.5 90t111.5 24h98v2q46 -11 68 -36.5
t11 -76.5v-3h-363z" />
    <glyph glyph-name="FL003Ah" unicode=":" horiz-adv-x="261" 
d="M69 63q-5 -26 12 -44.5t49 -18.5t58.5 18.5t31.5 44.5t-12.5 44.5t-49.5 18.5t-58 -18.5t-31 -44.5zM119 295q-6 -26 11.5 -44.5t49.5 -18.5t58 18.5t32 44.5q5 26 -13 44.5t-50 18.5t-57.5 -18.5t-30.5 -44.5z" />
    <glyph glyph-name="FL003Bh" unicode=";" horiz-adv-x="261" 
d="M119 295q-6 -26 11.5 -44.5t49.5 -18.5t58 18.5t32 44.5q5 26 -13 44.5t-50 18.5t-57.5 -18.5t-30.5 -44.5zM44 -54q-6 -26 11 -45t49 -19t58.5 18.5t31.5 44.5l26 118q5 26 -12.5 44.5t-49.5 18.5t-58 -18.5t-31 -44.5z" />
    <glyph glyph-name="FL003Ch" unicode="&#x3c;" horiz-adv-x="479" 
d="M120 297l154 -297h150l-154 297l283 301h-151z" />
    <glyph glyph-name="FL003Dh" unicode="=" horiz-adv-x="488" 
d="M133 357h378l26 124h-378zM78 109h378l27 124h-378z" />
    <glyph glyph-name="FL003Eh" unicode="&#x3e;" horiz-adv-x="479" 
d="M488 297l-284 -297h-150l284 297l-155 301h151z" />
    <glyph glyph-name="FL003Fh" unicode="?" horiz-adv-x="765" 
d="M254 233h506l15 65q29 139 -21 217.5t-189 78.5h-380l-26 -124h345q31 0 56.5 -5.5t43.5 -18.5t27.5 -35t8.5 -55h-506l-40 -186h148zM69 62q-6 -26 11.5 -44.5t49.5 -18.5t58 18.5t32 44.5q5 26 -13 44.5t-50 18.5t-57.5 -18.5t-30.5 -44.5z" />
    <glyph glyph-name="FL0EEEh" unicode="@" horiz-adv-x="933" 
d="M719 326q9 43 9 75q0 33 -16.5 54.5t-53 32t-98.5 10.5q-61 0 -100.5 -11.5t-63.5 -33t-37 -53.5t-22 -73l-14 -62q-6 -41 -7 -73t13 -54.5t46.5 -34.5t93.5 -12q84 0 131 19l69 13q62 2 103.5 13t70.5 33t49 54.5t40 77.5l18 83q13 60 9 110.5t-23 87t-52.5 56.5
t-81.5 20h-388q-56 0 -103 -30t-84.5 -80t-64.5 -114.5t-42 -133.5q-15 -71 -18 -137t12 -117.5t51.5 -82.5t99.5 -31h369l26 122h-324q-3 -1 -10 -1h-9q-40 0 -58 17.5t-22 44.5t1 59t12 61l26 123q8 37 18.5 70t29.5 58t48 39.5t74 14.5h275q45 0 67 -18.5t28.5 -46t3 -59
t-9.5 -58.5l-15 -72q-7 -13 -11.5 -21t-9.5 -12.5t-12.5 -7t-19.5 -5.5l-41 -6zM546 402q31 0 46.5 -7t21 -19.5t3.5 -28.5t-6 -34l-5 -34q-6 -29 -12 -48.5t-16.5 -31t-30 -16.5t-52.5 -5q-27 0 -42 5t-20.5 15t-4.5 25t5 35l17 78q7 32 27 49t69 17z" />
    <glyph glyph-name="FL0041h" unicode="A" horiz-adv-x="738" 
d="M544 0l22 105h-346l-22 -105h-143l129 596h410q47 0 82 -21.5t57 -56.5t29 -79t-3 -88l-76 -351h-139zM506 477h-204l-56 -255h344l30 136q0 20 -5 41t-18 38.5t-35 28.5t-56 11z" />
    <glyph glyph-name="FL0042h" unicode="B" 
d="M773 300q15 69 10 124t-30.5 93.5t-72.5 58.5t-116 20h-380l-129 -596h386q58 0 110.5 15.5t96 51t75.5 92.5t50 141zM249 239h365q-13 -36 -29.5 -60.5t-39 -39t-52.5 -21t-69 -6.5h-203zM638 358h-364l25 114h203q31 0 57 -5.5t44 -18.5t27 -35t8 -55z" />
    <glyph glyph-name="FL0043h" unicode="C" horiz-adv-x="700" 
d="M645 0l26 121h-316q-131 0 -105 114l26 123q6 25 16.5 47t29 38t45.5 25t65 9h316l26 119h-372q-112 0 -182 -78.5t-100 -217.5q-15 -71 -15.5 -126.5t18.5 -94t58 -59t102 -20.5h362z" />
    <glyph glyph-name="FL0044h" unicode="D" 
d="M773 300q15 69 10 124t-30.5 93.5t-72.5 58.5t-116 20h-380l-129 -596h386q58 0 110.5 15.5t96 51t75.5 92.5t50 141zM631 300q-12 -56 -28.5 -92.5t-40.5 -57.5t-58 -29.5t-80 -8.5h-203l78 360h203q37 0 66 -7.5t46.5 -27t22.5 -53t-6 -84.5z" />
    <glyph glyph-name="FL0045h" unicode="E" horiz-adv-x="700" 
d="M645 0l26 121h-316q-66 0 -92 30t-12 87h446l25 120h-446q6 25 16.5 47t29 38t45.5 25t65 9h316l26 119h-372q-112 0 -182 -78.5t-100 -217.5q-15 -71 -15.5 -126.5t18.5 -94t58 -59t102 -20.5h362z" />
    <glyph glyph-name="FL0046h" unicode="F" horiz-adv-x="700" 
d="M199 0l52 239h446l25 119h-446q6 25 16.5 47t29 38t45.5 25t65 9h316l26 119h-372q-112 0 -182 -78.5t-100 -217.5l-65 -300h144z" />
    <glyph glyph-name="FL0047h" unicode="G" 
d="M492 234l26 124h267l-77 -358h-386q-59 0 -104.5 15.5t-73 51t-35 92.5t10.5 141q30 139 114 217.5t223 78.5h379l-27 -124h-344q-38 0 -70 -7.5t-58 -27t-45 -53t-30 -84.5q-12 -56 -11.5 -92.5t15.5 -57.5t44.5 -29.5t76.5 -8.5h203l27 122h-125z" />
    <glyph glyph-name="FL0048h" unicode="H" horiz-adv-x="758" 
d="M703 0l129 596h-139l-52 -238h-365l52 238h-144l-129 -596h144l51 235h365l-51 -235h139z" />
    <glyph glyph-name="FL0049h" unicode="I" horiz-adv-x="694" 
d="M665 119h-225l77 358h225l26 119h-584l-26 -119h219l-77 -358h-219l-26 -119h584z" />
    <glyph glyph-name="FL004Ah" unicode="J" horiz-adv-x="700" 
d="M55 0l26 121h316q129 0 155 114l78 362h144l-64 -297q-15 -71 -39.5 -126.5t-59.5 -94t-83 -59t-111 -20.5h-362z" />
    <glyph glyph-name="FL004Bh" unicode="K" horiz-adv-x="734" 
d="M328 596h-144l-129 -596h144l51 235l273 -235h180l-319 302l449 295h-181l-376 -239z" />
    <glyph glyph-name="FL004Ch" unicode="L" horiz-adv-x="700" 
d="M645 0l26 121h-316q-131 0 -105 114l78 362h-144l-64 -297q-15 -71 -15.5 -126.5t18.5 -94t58 -59t102 -20.5h362z" />
    <glyph glyph-name="FL004Dh" unicode="M" horiz-adv-x="968" 
d="M410 1l103 477h-37q-52 0 -88.5 -8.5t-60 -23.5t-36.5 -36t-19 -47l-78 -363h-139l84 393q11 48 34.5 85.5t66 64t106.5 40t156 13.5h220q91 0 149.5 -13.5t89.5 -40t38 -64t-4 -85.5l-84 -393h-139l78 363q6 26 2 47t-21.5 36t-50 23.5t-84.5 8.5h-37l-103 -477h-146z
" />
    <glyph glyph-name="FL004Eh" unicode="N" horiz-adv-x="758" 
d="M703 0l76 351q10 45 4 87t-30 80q-22 40 -57.5 59t-81.5 19h-430l-129 -596h144l103 477h224q44 0 69 -12t36 -32t10.5 -46.5t-6.5 -55.5l-71 -331h139z" />
    <glyph glyph-name="FL004Fh" unicode="O" horiz-adv-x="761" 
d="M478 0q63 0 111 20.5t83 59t59.5 94t39.5 126.5q15 69 14 124t-20 93.5t-55.5 58.5t-92.5 20h-215q-112 0 -182 -78.5t-100 -217.5q-15 -71 -15.5 -126.5t18.5 -94t58 -59t102 -20.5h195zM639 358l-26 -123q-26 -114 -155 -114h-110q-124 0 -98 114l26 123q6 25 16.5 47
t29 38t45.5 25t65 9h103q38 0 61 -9t34.5 -25t13 -38t-4.5 -47z" />
    <glyph glyph-name="FL0DB9h" unicode="P" horiz-adv-x="739" 
d="M199 0l22 105h267q46 0 90.5 19t83.5 59q41 38 64.5 80t33.5 87h-2l1 1q10 45 4.5 86t-30.5 79q-22 40 -57.5 60t-81.5 20h-410l-129 -596h144zM452 224h-205l55 253h204q38 0 62 -11t36.5 -29t15 -41t-0.5 -47q-20 -64 -57 -94.5t-110 -30.5z" />
    <glyph glyph-name="FL0051h" unicode="Q" horiz-adv-x="761" 
d="M478 0h21l40 -77l119 50l-35 65q57 36 92.5 102t55.5 160q15 69 14 124t-20 93.5t-55.5 58.5t-92.5 20h-215q-112 0 -182 -78.5t-100 -217.5q-15 -71 -15.5 -126.5t18.5 -94t58 -59t102 -20.5h195zM374 243l62 -122h-88q-124 0 -98 114l26 123q6 25 16.5 47t29 38
t45.5 25t65 9h103q38 0 61 -9t34.5 -25t13 -38t-4.5 -47l-26 -123q-12 -56 -49 -84l-75 146z" />
    <glyph glyph-name="FL0054h" unicode="R" horiz-adv-x="739" 
d="M199 0l22 105h210l56 -105h156l-66 123q43 19 86 59q41 39 64 81t33 87h-2l1 1q10 45 4 87t-30 80q-22 40 -57.5 59t-81.5 19h-410l-129 -596h144zM452 224h-205l55 253h204q39 0 61.5 -11t34 -29.5t13 -42t-1.5 -47.5q-10 -32 -22.5 -55t-31 -38t-44.5 -22.5t-63 -7.5z
" />
    <glyph glyph-name="FL0073h" unicode="S" 
d="M465 472h345l27 124h-380q-139 0 -223 -78.5t-114 -217.5l-12 -59h506q-27 -66 -75.5 -91.5t-111.5 -25.5h-345l-27 -124h380q139 0 223 78.5t114 217.5l14 65h-506q26 64 74 87.5t111 23.5z" />
    <glyph glyph-name="T" unicode="T" horiz-adv-x="694" 
d="M742 477l26 119h-584l-26 -119h219l-103 -477h140l103 477h225z" />
    <glyph glyph-name="FL0055h" unicode="U" horiz-adv-x="758" 
d="M184 596h139l-72 -331q-6 -29 -6.5 -55.5t11 -46.5t36.5 -32t69 -12h224l103 477h144l-129 -596h-430q-46 0 -81.5 19t-57.5 59q-24 38 -29.5 80t3.5 87z" />
    <glyph glyph-name="FL0056h" unicode="V" horiz-adv-x="771" 
d="M184 598l103 -598h208l350 598h-151l-276 -477l-83 477h-151z" />
    <glyph glyph-name="FL0057h" unicode="W" horiz-adv-x="965" 
d="M182 596l-76 -351q-9 -45 -3.5 -87t29.5 -80q22 -40 57.5 -59t81.5 -19h637l129 596h-144l-103 -477h-96q-44 0 -65.5 12t-29 32t-4 46.5t9.5 55.5l72 331h-139l-76 -351q-15 -66 6 -126h-91q-55 0 -84 12.5t-41 33t-10.5 47t7.5 53.5l72 331h-139z" />
    <glyph glyph-name="FL0058h" unicode="X" horiz-adv-x="701" 
d="M184 597l158 -300l-284 -297h150l186 195l102 -195h150l-154 297l283 301h-151l-186 -199l-103 198h-151z" />
    <glyph glyph-name="FL0059h" unicode="Y" 
d="M836 596h-147l-51 -234h-276q-69 15 -66 83l34 152h-146l-14 -64q-15 -70 -14.5 -125t20 -93t58.5 -58t101 -20v1h278q-27 -66 -75 -90t-111 -24h-199l-27 -124h234q139 0 223 78.5t114 217.5z" />
    <glyph glyph-name="FL005Ah" unicode="Z" horiz-adv-x="694" 
d="M742 477l26 119h-584l-26 -119h393l-470 -358l-26 -119h584l26 119h-394z" />
    <glyph glyph-name="FL005Bh" unicode="[" horiz-adv-x="451" 
d="M378 -68l26 121h-193l106 488h196l25 118h-341l-157 -728z" />
    <glyph glyph-name="FL005Ch" unicode="\" horiz-adv-x="448" 
d="M249 0l-65 596h144l65 -596h-144z" />
    <glyph glyph-name="FL005Dh" unicode="]" horiz-adv-x="451" 
d="M42 -68l26 121h193l106 488h-196l25 118h341l-157 -728z" />
    <glyph glyph-name="FL005Eh" unicode="^" horiz-adv-x="418" 
d="M452 409l-68 186h-97l-143 -186h100l78 105l33 -105h97z" />
    <glyph glyph-name="FL005Fh" unicode="_" horiz-adv-x="506" 
d="M44 63l-27 -123h446l27 123h-446z" />
    <glyph glyph-name="FL0060h" unicode="`" horiz-adv-x="286" 
d="M296 563q-5 9 -14 21t-20 12q-22 0 -45 -17q-17 -11 -30.5 -21.5t-16.5 -25.5q-5 -20 3 -32l51 -75q9 -20 33 -20q11 0 21.5 3.5t21.5 12.5q14 11 21 21.5t11 25.5q4 19 -3 35z" />
    <glyph glyph-name="FL0061h" unicode="a" horiz-adv-x="738" 
d="M194 0l22 105h346l-22 -105h143l129 596h-410q-47 0 -91.5 -21.5t-81 -56.5t-62.5 -79t-36 -88l-76 -351h139zM438 477h204l-56 -255h-344l30 136q9 20 23.5 41t34.5 38.5t46.5 28.5t61.5 11z" />
    <glyph glyph-name="FL0063h" unicode="b" 
d="M773 300q15 69 10 124t-30.5 93.5t-72.5 58.5t-116 20h-380l-129 -596h386q58 0 110.5 15.5t96 51t75.5 92.5t50 141zM249 239h365q-13 -36 -29.5 -60.5t-39 -39t-52.5 -21t-69 -6.5h-203zM638 358h-364l25 114h203q31 0 57 -5.5t44 -18.5t27 -35t8 -55z" />
    <glyph glyph-name="c" unicode="c" horiz-adv-x="700" 
d="M645 0l26 121h-316q-131 0 -105 114l26 123q6 25 16.5 47t29 38t45.5 25t65 9h316l26 119h-372q-112 0 -182 -78.5t-100 -217.5q-15 -71 -15.5 -126.5t18.5 -94t58 -59t102 -20.5h362z" />
    <glyph glyph-name="d" unicode="d" 
d="M773 300q15 69 10 124t-30.5 93.5t-72.5 58.5t-116 20h-380l-129 -596h386q58 0 110.5 15.5t96 51t75.5 92.5t50 141zM631 300q-12 -56 -28.5 -92.5t-40.5 -57.5t-58 -29.5t-80 -8.5h-203l78 360h203q37 0 66 -7.5t46.5 -27t22.5 -53t-6 -84.5z" />
    <glyph glyph-name="e" unicode="e" horiz-adv-x="700" 
d="M645 0l26 121h-316q-66 0 -91.5 31t-12.5 88h360l25 119h-360q6 25 16.5 46.5t29 37.5t45.5 25t65 9h316l26 119h-372q-112 0 -182 -78.5t-100 -217.5q-15 -71 -15.5 -126.5t18.5 -94t58 -59t102 -20.5h362z" />
    <glyph glyph-name="FL0066h" unicode="f" horiz-adv-x="700" 
d="M199 0l52 239h360l25 120h-360q6 25 16.5 46.5t29 37.5t45.5 25t65 9h316l26 119h-372q-112 0 -182 -78.5t-100 -217.5l-65 -300h144z" />
    <glyph glyph-name="FL0067h" unicode="g" 
d="M262 300q11 51 30 84.5t45 53t58 27t70 7.5h344l27 124h-379q-139 0 -223 -78.5t-114 -217.5q-18 -84 -10.5 -141t35 -92.5t73 -51t104.5 -15.5h386l77 358h-142l-53 -246h-203q-47 0 -76.5 8.5t-44.5 29.5t-15.5 57.5t11.5 92.5z" />
    <glyph glyph-name="FL0068h" unicode="h" horiz-adv-x="758" 
d="M703 0l129 596h-139l-52 -238h-365l52 238h-144l-129 -596h144l51 235h365l-51 -235h139z" />
    <glyph glyph-name="i" unicode="i" horiz-adv-x="254" 
d="M199 0l129 596h-144l-129 -596h144z" />
    <glyph glyph-name="FL006Ah" unicode="j" horiz-adv-x="700" 
d="M55 0l26 121h316q129 0 155 114l78 362h144l-64 -297q-15 -71 -39.5 -126.5t-59.5 -94t-83 -59t-111 -20.5h-362z" />
    <glyph glyph-name="FL006Bh" unicode="k" horiz-adv-x="734" 
d="M328 596h-144l-129 -596h144l51 234h169l134 -234h150l-154 297l284 300h-151l-234 -239h-172z" />
    <glyph glyph-name="FL006Ch" unicode="l" horiz-adv-x="700" 
d="M645 0l26 121h-316q-131 0 -105 114l78 362h-144l-64 -297q-15 -71 -15.5 -126.5t18.5 -94t58 -59t102 -20.5h362z" />
    <glyph glyph-name="FL006Dh" unicode="m" horiz-adv-x="965" 
d="M909 0l76 351q10 45 4 87t-30 80q-22 40 -57.5 59t-81.5 19h-637l-129 -596h144l103 477h96q42 0 63 -12t29 -32t5 -46.5t-9 -55.5l-71 -331h139l76 351q7 33 7 65t-10 62h88q55 0 84 -12.5t40.5 -33.5t10 -47.5t-7.5 -53.5l-71 -331h139z" />
    <glyph glyph-name="n" unicode="n" horiz-adv-x="738" 
d="M683 0l76 351q10 45 4 87t-30 80q-22 40 -57.5 59t-81.5 19h-410l-129 -596h144l103 477h204q44 0 69 -12t36 -32t10.5 -46.5t-6.5 -55.5l-71 -331h139z" />
    <glyph glyph-name="FL006Fh" unicode="o" horiz-adv-x="758" 
d="M745 203l43 197q11 50 3.5 87.5t-39 62t-91 36.5t-153.5 12q-92 0 -156.5 -13.5t-108 -39t-68 -63t-35.5 -85.5l-41 -197q-11 -47 -3.5 -84.5t38.5 -63t89 -39t149 -13.5q94 0 160.5 12.5t110 38t67.5 63.5t35 89zM483 480q59 0 92.5 -8.5t49.5 -23t17.5 -34.5t-2.5 -42
l-29 -134q-8 -34 -20 -57t-35.5 -37t-61 -20t-96.5 -6q-52 0 -85 8t-50.5 23t-21.5 36.5t2 47.5l31 139q10 50 58.5 79t150.5 29z" />
    <glyph glyph-name="FL0070h" unicode="p" horiz-adv-x="739" 
d="M199 0l22 105h267q46 0 90.5 19t83.5 59q41 38 64.5 80t33.5 87h-2l1 1q10 45 4.5 86t-30.5 79q-22 40 -57.5 60t-81.5 20h-410l-129 -596h144zM452 224h-205l55 253h204q38 0 62 -11t36.5 -29t15 -41t-0.5 -47q-20 -64 -57 -94.5t-110 -30.5z" />
    <glyph glyph-name="FL0071h" unicode="q" horiz-adv-x="758" 
d="M745 203l43 197q11 50 3.5 87.5t-39 62t-91 36.5t-153.5 12q-92 0 -156.5 -13.5t-108 -39t-68 -63t-35.5 -85.5l-41 -197q-11 -47 -3.5 -84.5t38.5 -63t89 -39t149 -13.5q70 0 124 6l35 -65h143l-52 99q54 25 83 65.5t40 97.5zM374 243l63 -124q-9 -1 -19 -1h-20
q-52 0 -85 8t-50.5 23t-21.5 36.5t2 47.5l31 139q10 50 58.5 79t150.5 29q59 0 92.5 -8.5t49.5 -23t17.5 -34.5t-2.5 -42l-29 -134q-7 -32 -18 -53.5t-30 -35.5l-49 94h-140z" />
    <glyph glyph-name="FL0072h" unicode="r" horiz-adv-x="739" 
d="M199 0l22 105h210l56 -105h156l-66 123q43 19 86 59q41 39 64 81t33 87h-2l1 1q10 45 4 87t-30 80q-22 40 -57.5 59t-81.5 19h-410l-129 -596h144zM452 224h-205l55 253h204q39 0 61.5 -11t34 -29.5t13 -42t-1.5 -47.5q-10 -32 -22.5 -55t-31 -38t-44.5 -22.5t-63 -7.5z
" />
    <glyph glyph-name="FL0053h" unicode="s" 
d="M465 472h195l27 124h-230q-139 0 -223 -78.5t-114 -217.5l-12 -59h506q-27 -66 -75.5 -91.5t-111.5 -25.5h-344l-27 -124h379q139 0 223 78.5t114 217.5l14 65h-506q26 64 74 87.5t111 23.5z" />
    <glyph glyph-name="t" unicode="t" horiz-adv-x="694" 
d="M742 477l26 119h-584l-26 -119h219l-103 -477h140l103 477h225z" />
    <glyph glyph-name="u" unicode="u" horiz-adv-x="758" 
d="M832 596h-144l-77 -358q-8 -34 -20 -57t-35 -37t-60.5 -20t-96.5 -6q-52 0 -85 8t-50.5 23t-21.5 36.5t2 47.5l79 363h-139l-86 -393q-10 -48 -2.5 -85.5t38.5 -64t89 -40t150 -13.5q94 0 160.5 12.5t110 38t67.5 63.5t35 89z" />
    <glyph glyph-name="FL0076h" unicode="v" horiz-adv-x="721" 
d="M819 598l-356 -598h-208l-97 598h151l75 -477l284 477h151z" />
    <glyph glyph-name="FL0077h" unicode="w" horiz-adv-x="968" 
d="M538 595l-102 -477h-37q-52 0 -85 8.5t-50.5 23.5t-21.5 36t2 47l79 363h-139l-86 -393q-10 -48 -2.5 -85.5t38.5 -64t89 -40t150 -13.5h220q91 0 155.5 13.5t106.5 40t65.5 64t33.5 85.5l86 393h-139l-79 -363q-6 -26 -18.5 -47t-36.5 -36t-60 -23.5t-88 -8.5h-37
l102 477h-146z" />
    <glyph glyph-name="FL0078h" unicode="x" horiz-adv-x="651" 
d="M159 597l158 -300l-284 -297h150l186 195l102 -195h150l-154 297l283 301h-151l-186 -199l-103 198h-151z" />
    <glyph glyph-name="FL0079h" unicode="y" 
d="M836 596h-147l-51 -234h-276q-42 4 -57.5 25.5t-8.5 57.5l34 152h-146l-23 -103q-14 -62 -13.5 -108.5t18.5 -79t56.5 -49.5t101.5 -19h289q-27 -66 -75 -90t-111 -24h-199l-27 -124h234q139 0 223 78.5t114 217.5z" />
    <glyph glyph-name="FL007Ah" unicode="z" horiz-adv-x="694" 
d="M742 477l26 119h-584l-26 -119h393l-470 -358l-26 -119h584l26 119h-394z" />
    <glyph glyph-name="FL007Bh" unicode="{" horiz-adv-x="428" 
d="M373 0l26 121h-44q-131 0 -105 114l26 123q6 25 16.5 47t29 38t45.5 25t65 9h44l26 119h-100q-112 0 -182 -78.5t-100 -217.5q-15 -71 -15.5 -126.5t18.5 -94t58 -59t102 -20.5h90z" />
    <glyph glyph-name="FL007Ch" unicode="|" horiz-adv-x="254" 
d="M171 -123l182 842h-143l-182 -842h143z" />
    <glyph glyph-name="FL007Dh" unicode="}" horiz-adv-x="428" 
d="M55 0l26 121h44q129 0 155 114l26 123q6 25 4.5 47t-13 38t-34.5 25t-61 9h-44l26 119h100q56 0 92.5 -20t55.5 -58.5t20 -93.5t-14 -124q-15 -71 -39.5 -126.5t-59.5 -94t-83 -59t-111 -20.5h-90z" />
    <glyph glyph-name="FL007Eh" unicode="~" horiz-adv-x="473" 
d="M216 382l-140 -170h100l72 92l40 -93h97l140 170h-100l-74 -92l-38 93h-97z" />
    <glyph glyph-name="FL007Fh" horiz-adv-x="202" 
 />
    <glyph glyph-name="FL00A1h" unicode="&#xa1;" horiz-adv-x="261" 
d="M57 -1h146l91 423h-146zM319 530q5 26 -12 44.5t-49 18.5t-58.5 -18.5t-31.5 -44.5t13 -44.5t50 -18.5t57.5 18.5t30.5 44.5z" />
    <glyph glyph-name="FL00A2h" unicode="&#xa2;" horiz-adv-x="701" 
d="M474 0l11 53h172l27 121h-172l55 254h171l25 119h-171l11 49h-144l-11 -49h-57q-56 0 -101 -17.5t-78.5 -48.5t-56 -73.5t-32.5 -93.5l-1 -3q-15 -71 -11 -120t25.5 -79.5t61.5 -44.5t97 -14h46l-11 -53h144zM262 288l8 37q10 45 46.5 74t105.5 29h1l-55 -254
q-130 0 -106 114z" />
    <glyph glyph-name="FL00A3h" unicode="&#xa3;" horiz-adv-x="738" 
d="M105 231l27 124h94q34 115 100 178t168 63h143l-26 -118h-87q-38 0 -65 -9.5t-45.5 -25.5t-29 -38t-16.5 -47h217l-27 -127h-217l-23 -109h392l-27 -122h-536l50 231h-92z" />
    <glyph glyph-name="FL00A4h" unicode="&#xa4;" horiz-adv-x="651" 
d="M560 229l27 123q9 42 -1 72l164 174h-151l-119 -127h-104l-66 126h-151l93 -179q-11 -14 -17.5 -30.5t-10.5 -35.5l-27 -123q-4 -18 -3.5 -32.5t2.5 -25.5l-163 -171h150l110 115h118l60 -115h150l-88 167q19 25 27 62zM474 318l-11 -53q-10 -49 -68 -49h-49
q-54 0 -44 49l11 53q5 22 20.5 36t49.5 14h46q33 0 41.5 -14t3.5 -36z" />
    <glyph glyph-name="FL00A5h" unicode="&#xa5;" horiz-adv-x="651" 
d="M179 208l26 124h92l-138 265h151l103 -198l186 199h151l-251 -266h84l-26 -124h-114l-7 -34h114l-28 -124h-114l-10 -50h-144l10 50h-120l28 124h120l7 34h-120z" />
    <glyph glyph-name="FLE004h" unicode="&#xa6;" horiz-adv-x="758" 
d="M704 0h-145l22 106h-364l-22 -106h-140l84 393q11 48 34.5 85.5t66 64t106.5 40t156 13.5q94 0 155 -12.5t94 -38t41 -63.5t-4 -89zM245 230h364l27 128q7 34 5 57t-19 37t-52 20t-94 6q-51 0 -87 -8t-60 -22.5t-37 -35.5t-18 -46z" />
    <glyph glyph-name="FL00B0h" unicode="&#xa7;" 
d="M465 472h195l27 124h-230q-139 0 -223 -78.5t-114 -217.5l-13 -62h506q-27 -66 -75 -90t-111 -24h-197l-27 -124h232q139 0 223 78.5t114 217.5l14 65h-506q26 64 74 87.5t111 23.5z" />
    <glyph glyph-name="FL00A8h" unicode="&#xa8;" horiz-adv-x="462" 
d="M371 532q-6 -26 12 -44.5t50 -18.5t57.5 18.5t31.5 44.5q5 26 -13 44.5t-50 18.5t-57.5 -18.5t-30.5 -44.5zM170 532q-6 -26 12 -44.5t50 -18.5t57.5 18.5t31.5 44.5q5 26 -13 44.5t-50 18.5t-57.5 -18.5t-30.5 -44.5z" />
    <glyph glyph-name="FL00A9h" unicode="&#xa9;" horiz-adv-x="433" 
d="M464 398l21 99q5 25 1.5 43.5t-19 31t-45 18.5t-76.5 6q-46 0 -79 -7t-54.5 -19.5t-33.5 -31.5t-17 -43l-22 -98q-5 -24 -1 -42.5t19.5 -31t45 -19.5t74.5 -7q47 0 80 6t54.5 19t33.5 31.5t18 44.5zM334 542q32 0 50 -4.5t26.5 -12.5t9.5 -18.5t-1 -22.5l-16 -72
q-4 -18 -10.5 -30.5t-19.5 -20t-33.5 -10.5t-51.5 -3q-56 0 -73 16.5t-10 45.5l16 74q5 27 30.5 42.5t82.5 15.5zM361 376l6 28h-76q-30 0 -27 27l7 28q2 12 10 20t27 8h76l7 28h-90q-27 0 -44 -18.5t-24 -50.5q-7 -33 1.5 -51.5t39.5 -18.5h87z" />
    <glyph glyph-name="FLE003h" unicode="&#xaa;" horiz-adv-x="738" 
d="M194 0l51 235h345l-51 -235h144l129 596h-410q-47 0 -91.5 -21.5t-81 -56.5t-62.5 -79t-36 -88l-76 -351h139zM438 477h204l-26 -119h-344q7 24 19.5 46t32.5 38t48 25.5t66 9.5z" />
    <glyph glyph-name="FL00ABh" unicode="&#xab;" horiz-adv-x="533" 
d="M336 448l-209 -107l-21 -97l165 -104l21 100l-93 56l117 55zM573 448l-209 -107l-21 -97l165 -104l21 100l-93 56l117 55z" />
    <glyph glyph-name="FL00ADh" unicode="&#xac;" horiz-adv-x="558" 
d="M132 358l-26 -123h325l-35 -162h123l61 285h-448z" />
    <glyph glyph-name="FL00AEh" unicode="&#xad;" horiz-adv-x="407" 
d="M106 234h297l26 124h-297z" />
    <glyph glyph-name="FL00B8h" unicode="&#xae;" horiz-adv-x="433" 
d="M464 398l21 99q5 25 1.5 43.5t-19 31t-45 18.5t-76.5 6q-46 0 -79 -7t-54.5 -19.5t-33.5 -31.5t-17 -43l-22 -98q-5 -24 -1 -42.5t19.5 -31t45 -19.5t74.5 -7q47 0 80 6t54.5 19t33.5 31.5t18 44.5zM334 542q32 0 50 -4.5t26.5 -12.5t9.5 -18.5t-1 -22.5l-16 -72
q-4 -18 -10.5 -30.5t-19.5 -20t-33.5 -10.5t-51.5 -3q-56 0 -73 16.5t-10 45.5l16 74q5 27 30.5 42.5t82.5 15.5zM219 382h35l17 77q2 12 10 20t27 8h76l7 28h-90q-27 0 -44 -18.5t-24 -50.5z" />
    <glyph glyph-name="FL00AFh" unicode="&#xaf;" horiz-adv-x="506" 
d="M172 660l-26 -123h446l26 123h-446z" />
    <glyph glyph-name="FL0040h" unicode="&#xb0;" horiz-adv-x="700" 
d="M184 596l-27 -121h316q130 0 106 -114l-78 -362h144l64 297q15 70 15.5 126t-18.5 94.5t-58 59t-102 20.5h-362z" />
    <glyph glyph-name="FL00B1h" unicode="&#xb1;" horiz-adv-x="556" 
d="M322 498l-18 -95h-162l-27 -123h160l-20 -93h125l20 93h161l27 123h-163l20 95h-123zM529 123h-446l-27 -123h446z" />
    <glyph glyph-name="FL00B2h" unicode="&#xb2;" horiz-adv-x="436" 
d="M458 360l-12 -62h-326l38 179h253q2 33 -17.5 45t-51.5 12h-172l14 62h190q69 0 94 -39.5t9 -108.5l-6 -33h-253l-13 -55h253z" />
    <glyph glyph-name="FL00B3h" unicode="&#xb3;" horiz-adv-x="405" 
d="M120 298l12 60h158q64 0 78 57h-223l13 62h223q5 26 -4.5 42.5t-47.5 16.5h-158l13 60h186q57 0 74.5 -39.5t1.5 -108.5q-14 -72 -48 -111t-97 -39h-181z" />
    <glyph glyph-name="FL00B4h" unicode="&#xb4;" horiz-adv-x="286" 
d="M232 563q9 9 24 21t26 12q20 0 37 -17q11 -11 20.5 -21.5t6.5 -25.5q-4 -17 -17 -32l-83 -75q-18 -20 -41 -20q-22 0 -37 16q-10 11 -13 21.5t1 25.5q5 20 17 35z" />
    <glyph glyph-name="FL00B5h" unicode="&#xb5;" 
d="M184 596h147l-51 -234h276q76 15 100 83l34 152h146l-14 -64q-15 -70 -39 -125t-59.5 -93t-83 -58t-109.5 -20v1h-278q-2 -33 7.5 -55t27.5 -35t43.5 -18.5t57.5 -5.5h199l-27 -124h-234q-69 0 -116 20t-72.5 58.5t-30.5 93.5t10 124z" />
    <glyph glyph-name="FL00B6h" unicode="&#xb6;" horiz-adv-x="739" 
d="M424 478l-103 -478h-133l27 123q-19 10 -33.5 24.5t-26.5 34.5q-24 39 -29.5 81t4.5 87h2l-1 1q10 45 33.5 87t64.5 80q38 40 82.5 59t90.5 19h410l-129 -596h-144l103 478h-218z" />
    <glyph glyph-name="FL00B7h" unicode="&#xb7;" horiz-adv-x="261" 
d="M119 295q-6 -26 11.5 -44.5t49.5 -18.5t58 18.5t32 44.5q5 26 -13 44.5t-50 18.5t-57.5 -18.5t-30.5 -44.5z" />
    <glyph glyph-name="FL00ACh" unicode="&#xb8;" 
d="M501 472h-345l27 124h380q69 0 116 -20t72.5 -58.5t30.5 -93.5t-10 -124l-13 -62h-506q-2 -33 7.5 -55t27.5 -35t43.5 -18.5t57.5 -5.5h345l-27 -124h-380q-69 0 -116 20t-72.5 58.5t-30.5 93.5t10 124l14 65h506q-1 64 -37.5 87.5t-99.5 23.5z" />
    <glyph glyph-name="FL00B9h" unicode="&#xb9;" horiz-adv-x="217" 
d="M183 595l-12 -59h35l-51 -239h72l63 298h-107z" />
    <glyph glyph-name="FL00BAh" unicode="&#xba;" horiz-adv-x="433" 
d="M463 397l22 99q5 25 1.5 43.5t-19.5 31t-45.5 18.5t-76.5 6q-92 0 -132.5 -26.5t-51.5 -74.5l-21 -98q-5 -24 -1.5 -42.5t19.5 -31t45 -19.5t74 -7q47 0 80 6t55 19t34 31.5t17 44.5zM333 536q29 0 46 -4t24.5 -11.5t8.5 -17.5t-1 -21l-14 -67q-4 -17 -10 -28.5
t-17.5 -18.5t-30.5 -10t-49 -3q-52 0 -67.5 15.5t-9.5 41.5l15 70q5 25 29.5 39.5t75.5 14.5z" />
    <glyph glyph-name="FL00BBh" unicode="&#xbb;" horiz-adv-x="533" 
d="M388 448l163 -107l-21 -97l-207 -104l21 100l117 56l-93 55zM151 448l163 -107l-21 -97l-207 -104l21 100l117 56l-93 55z" />
    <glyph glyph-name="FL0050h" unicode="&#xbc;" horiz-adv-x="738" 
d="M250 235l-51 -235h-144l129 596h410q47 0 82 -21.5t56 -56.5t28.5 -79t-1.5 -88l-25 -116h-484zM506 477h-204l-26 -119h344q3 24 0 46t-15.5 38t-36.5 25.5t-62 9.5z" />
    <glyph glyph-name="FL00BDh" unicode="&#xbd;" horiz-adv-x="863" 
d="M854 0l14 62h-253l11 55h253l7 33q16 69 -9 108.5t-94 39.5h-190l-14 -62h172q32 0 51 -12t18 -45h-253l-39 -179h326zM251 0l633 596h-139l-638 -596h144zM289 596l-13 -59h41l-51 -239h84l64 298h-125z" />
    <glyph glyph-name="FL0052h" unicode="&#xbe;" horiz-adv-x="738" 
d="M734 235l25 116q10 44 3 88t-29 79t-57 56.5t-82 21.5h-410l-129 -596h144l51 235h134l121 -235h160l-123 235h192zM506 477q38 0 62 -9.5t36.5 -25.5t15.5 -38t0 -46h-344l26 119h204z" />
    <glyph glyph-name="FL00BFh" unicode="&#xbf;" horiz-adv-x="765" 
d="M637 359h-506l-13 -65q-15 -69 -10.5 -124t30 -93.5t72.5 -58.5t116 -20h380l28 124h-345q-32 0 -57.5 5.5t-43.5 18.5t-27.5 35t-8.5 55h506l40 186h-146zM823 530q5 26 -12 44.5t-49 18.5t-58.5 -18.5t-31.5 -44.5t13 -44.5t50 -18.5t57.5 18.5t30.5 44.5z" />
    <glyph glyph-name="FL00C0h" unicode="&#xc0;" horiz-adv-x="738" 
d="M584 839q-5 9 -14 21t-20 12q-21 0 -46 -17q-14 -13 -28.5 -22.5t-17.5 -24.5q-6 -18 2 -32l52 -75q8 -20 31 -20q11 0 22 3.5t23 12.5q14 11 21 21.5t10 25.5q6 18 -2 35zM194 0l51 235h345l-51 -235h144l129 596h-410q-47 0 -91.5 -21.5t-81 -56.5t-62.5 -79t-36 -88
l-76 -351h139zM438 477h204l-26 -119h-344q7 24 19.5 46t32.5 38t48 25.5t66 9.5z" />
    <glyph glyph-name="FL00C1h" unicode="&#xc1;" horiz-adv-x="738" 
d="M501 778q-11 -15 -17 -35q-3 -15 0 -25.5t12 -21.5q13 -16 36 -16t43 20l82 75q12 12 17 32q4 15 -7 24.5t-20 22.5q-15 17 -37 17q-11 0 -26 -12t-23 -21zM194 0l51 235h345l-51 -235h144l129 596h-410q-47 0 -91.5 -21.5t-81 -56.5t-62.5 -79t-36 -88l-76 -351h139z
M438 477h204l-26 -119h-344q7 24 19.5 46t32.5 38t48 25.5t66 9.5z" />
    <glyph glyph-name="FL00C2h" unicode="&#xc2;" horiz-adv-x="738" 
d="M696 679l-66 186h-97l-145 -186h100l79 105l32 -105h97zM194 0l51 235h345l-51 -235h144l129 596h-410q-47 0 -91.5 -21.5t-81 -56.5t-62.5 -79t-36 -88l-76 -351h139zM438 477h204l-26 -119h-344q7 24 19.5 46t32.5 38t48 25.5t66 9.5z" />
    <glyph glyph-name="FL00C3h" unicode="&#xc3;" horiz-adv-x="738" 
d="M482 842l-140 -162h100l73 87l39 -88h97l139 162h-100l-72 -88l-39 89h-97zM194 0l51 235h345l-51 -235h144l129 596h-410q-47 0 -91.5 -21.5t-81 -56.5t-62.5 -79t-36 -88l-76 -351h139zM438 477h204l-26 -119h-344q7 24 19.5 46t32.5 38t48 25.5t66 9.5z" />
    <glyph glyph-name="FL00C4h" unicode="&#xc4;" horiz-adv-x="738" 
d="M557 731q-5 -26 12.5 -44.5t49.5 -18.5t58 18.5t31 44.5q6 26 -12 44.5t-50 18.5t-57.5 -18.5t-31.5 -44.5zM356 731q-5 -26 12.5 -44.5t49.5 -18.5t58 18.5t31 44.5q6 26 -12 44.5t-50 18.5t-57.5 -18.5t-31.5 -44.5zM194 0l51 235h345l-51 -235h144l129 596h-410
q-47 0 -91.5 -21.5t-81 -56.5t-62.5 -79t-36 -88l-76 -351h139zM438 477h204l-26 -119h-344q7 24 19.5 46t32.5 38t48 25.5t66 9.5z" />
    <glyph glyph-name="FL00C5h" unicode="&#xc5;" horiz-adv-x="738" 
d="M458 730q-6 -26 11.5 -44.5t49.5 -18.5t58 18.5t32 44.5q5 26 -13.5 44.5t-50.5 18.5t-57 -18.5t-30 -44.5zM194 0l51 235h345l-51 -235h144l129 596h-410q-47 0 -91.5 -21.5t-81 -56.5t-62.5 -79t-36 -88l-76 -351h139zM438 477h204l-26 -119h-344q7 24 19.5 46t32.5 38
t48 25.5t66 9.5z" />
    <glyph glyph-name="FL00C6h" unicode="&#xc6;" horiz-adv-x="1184" 
d="M194 0l22 105h346l-22 -105h589l26 121h-316q-131 0 -105 114h360l26 124h-360q6 25 16.5 46.5t29 37.5t45.5 25t65 9h316l26 119h-856q-47 0 -91.5 -21.5t-81 -56.5t-62.5 -79t-36 -88l-76 -351h139zM438 477h204l-56 -255h-344l30 136q7 24 19.5 46t32.5 38t48 25.5
t66 9.5z" />
    <glyph glyph-name="FL00C7h" unicode="&#xc7;" horiz-adv-x="700" 
d="M172 -169h81q52 0 93 9t72.5 29.5t55 52.5t40.5 78h131l26 121h-316q-131 0 -105 114l26 123q6 25 16.5 47t29 38t45.5 25t65 9h316l26 119h-372q-112 0 -182 -78.5t-100 -217.5q-15 -71 -15.5 -126.5t18.5 -94t58 -59t102 -20.5h91q-7 -18 -16.5 -27.5t-23.5 -14
t-32 -5.5t-42 -1h-62z" />
    <glyph glyph-name="FL00C8h" unicode="&#xc8;" horiz-adv-x="700" 
d="M645 0l26 121h-316q-131 0 -105 114h445l26 125h-445q6 25 16.5 46t29 37t45.5 25t65 9h316l26 119h-372q-112 0 -182 -78.5t-100 -217.5q-15 -71 -15.5 -126.5t18.5 -94t58 -59t102 -20.5h362zM574 839q-5 9 -14 21t-20 12q-21 0 -46 -17q-14 -13 -28.5 -22.5
t-17.5 -24.5q-6 -18 2 -32l52 -75q8 -20 31 -20q11 0 22 3.5t23 12.5q14 11 21 21.5t10 25.5q6 18 -2 35z" />
    <glyph glyph-name="FL00C9h" unicode="&#xc9;" horiz-adv-x="700" 
d="M645 0l26 121h-316q-131 0 -105 114h447l27 126h-447q5 24 16 45.5t29 37t45 24.5t65 9h316l26 119h-372q-112 0 -182 -78.5t-100 -217.5q-15 -71 -15.5 -126.5t18.5 -94t58 -59t102 -20.5h362zM510 780q-12 -15 -17 -35q-4 -15 -1 -25.5t13 -21.5q13 -16 36 -16
q24 0 41 20l83 75q8 7 11.5 14.5t6.5 17.5q3 15 -7.5 24.5t-20.5 22.5q-15 17 -36 17q-11 0 -26.5 -12t-23.5 -21z" />
    <glyph glyph-name="FL00CAh" unicode="&#xca;" horiz-adv-x="700" 
d="M645 0l26 121h-316q-131 0 -105 114h446l26 125h-446q6 25 16.5 46t29 37t45.5 25t65 9h316l26 119h-372q-112 0 -182 -78.5t-100 -217.5q-15 -71 -15.5 -126.5t18.5 -94t58 -59t102 -20.5h362zM679 678l-66 186h-97l-145 -186h100l79 105l32 -105h97z" />
    <glyph glyph-name="FL00CBh" unicode="&#xcb;" horiz-adv-x="700" 
d="M645 0l26 121h-316q-131 0 -105 114h447l26 123h-447q6 25 16.5 47t29 38t45.5 25t65 9h316l26 119h-372q-112 0 -182 -78.5t-100 -217.5q-15 -71 -15.5 -126.5t18.5 -94t58 -59t102 -20.5h362zM572 730q-6 -26 11.5 -44.5t49.5 -18.5t58 18.5t32 44.5q5 26 -13.5 44.5
t-50.5 18.5t-57 -18.5t-30 -44.5zM371 730q-6 -26 11.5 -44.5t49.5 -18.5t58 18.5t32 44.5q5 26 -13.5 44.5t-50.5 18.5t-57 -18.5t-30 -44.5z" />
    <glyph glyph-name="FL00CCh" unicode="&#xcc;" horiz-adv-x="694" 
d="M81 119h225l77 358h-225l26 119h584l-26 -119h-219l-77 -358h219l-26 -119h-584zM581 781q4 -8 4.5 -16.5t-1.5 -18.5q-3 -15 -10.5 -25.5t-21.5 -21.5q-12 -9 -22.5 -12.5t-21.5 -3.5q-22 0 -33 20l-51 75q-6 14 -2 32q3 15 17.5 24.5t29.5 22.5q25 17 44 17
q11 0 20.5 -12t14.5 -21z" />
    <glyph glyph-name="FL00CDh" unicode="&#xcd;" horiz-adv-x="694" 
d="M665 119h-225l77 358h225l26 119h-584l-26 -119h219l-77 -358h-219l-26 -119h584zM449 781q-14 -17 -17 -35q-3 -15 -0.5 -25.5t12.5 -21.5q13 -16 36 -16q24 0 41 20l83 75q13 12 18 32q3 15 -7.5 24.5t-19.5 22.5q-15 17 -38 17q-11 0 -25.5 -12t-23.5 -21z" />
    <glyph glyph-name="FL00EEh" unicode="&#xce;" horiz-adv-x="694" 
d="M665 119h-225l77 358h225l26 119h-584l-26 -119h219l-77 -358h-219l-26 -119h584zM645 681l-66 186h-97l-145 -186h100l80 105l31 -105h97z" />
    <glyph glyph-name="FL00CFh" unicode="&#xcf;" horiz-adv-x="694" 
d="M665 119h-225l77 358h225l26 119h-584l-26 -119h219l-77 -358h-219l-26 -119h584zM527 732q-5 -26 12.5 -44.5t49.5 -18.5t58 18.5t31 44.5q7 26 -11.5 44.5t-50.5 18.5t-57 -18.5t-32 -44.5zM326 732q-5 -26 12.5 -44.5t49.5 -18.5t58 18.5t31 44.5q7 26 -11.5 44.5
t-50.5 18.5t-57 -18.5t-32 -44.5z" />
    <glyph glyph-name="FL00AAh" unicode="&#xd0;" horiz-adv-x="739" 
d="M668 596l-23 -105h-267q-46 0 -90 -19t-82 -59q-42 -38 -65.5 -80t-33.5 -87h2l-1 -1q-9 -45 -4 -86t29 -79q22 -40 58 -60t82 -20h410l129 596h-144zM415 372h205l-55 -253h-204q-38 0 -61.5 11t-36 29t-15.5 41t0 47q10 32 23.5 55.5t33 39t46.5 23t64 7.5z" />
    <glyph glyph-name="FL00D1h" unicode="&#xd1;" horiz-adv-x="758" 
d="M703 0l76 351q10 45 4 87t-30 80q-22 40 -57.5 59t-81.5 19h-430l-129 -596h144l103 477h224q44 0 69 -12t36 -32t10.5 -46.5t-6.5 -55.5l-71 -331h139zM465 841l-139 -162h100l72 87l40 -88h97l139 162h-100l-73 -88l-39 89h-97z" />
    <glyph glyph-name="FL00D2h" unicode="&#xd2;" horiz-adv-x="757" 
d="M584 839q-5 9 -14 21t-20 12q-21 0 -46 -17q-14 -13 -28.5 -22.5t-17.5 -24.5q-6 -18 2 -32l52 -75q8 -20 31 -20q11 0 22 3.5t23 12.5q14 11 21 21.5t10 25.5q6 18 -2 35zM745 203l42 193q11 50 3 87.5t-40.5 62.5t-93 37.5t-154.5 12.5q-92 0 -156 -13.5t-106.5 -40
t-66 -64t-34.5 -85.5l-40 -193q-11 -47 -3.5 -84.5t38.5 -63t89 -39t149 -13.5q94 0 160.5 12.5t110 38t67.5 63.5t35 89zM476 478q59 0 94 -6t52 -20t19 -37t-5 -57l-25 -120q-8 -34 -20 -57t-35.5 -37t-61 -20t-96.5 -6q-52 0 -85 8t-50.5 23t-21.5 36.5t2 47.5l30 135
q5 25 18.5 45.5t37.5 34.5t60 22t87 8z" />
    <glyph glyph-name="FL00D3h" unicode="&#xd3;" horiz-adv-x="757" 
d="M477 779q-7 -8 -11 -16.5t-7 -18.5q-3 -15 0 -25.5t13 -21.5q13 -16 35 -16q23 0 43 20l82 75q12 12 18 32q3 15 -7.5 24.5t-20.5 22.5q-15 17 -36 17q-11 0 -26.5 -12t-23.5 -21zM745 203l42 193q11 50 3 87.5t-40.5 62.5t-93 37.5t-154.5 12.5q-92 0 -156 -13.5
t-106.5 -40t-66 -64t-34.5 -85.5l-40 -193q-11 -47 -3.5 -84.5t38.5 -63t89 -39t149 -13.5q94 0 160.5 12.5t110 38t67.5 63.5t35 89zM476 478q59 0 94 -6t52 -20t19 -37t-5 -57l-25 -120q-8 -34 -20 -57t-35.5 -37t-61 -20t-96.5 -6q-52 0 -85 8t-50.5 23t-21.5 36.5
t2 47.5l30 135q5 25 18.5 45.5t37.5 34.5t60 22t87 8z" />
    <glyph glyph-name="FL00D4h" unicode="&#xd4;" horiz-adv-x="757" 
d="M676 681l-66 186h-97l-145 -186h100l80 105l31 -105h97zM745 203l42 193q11 50 3 87.5t-40.5 62.5t-93 37.5t-154.5 12.5q-92 0 -156 -13.5t-106.5 -40t-66 -64t-34.5 -85.5l-40 -193q-11 -47 -3.5 -84.5t38.5 -63t89 -39t149 -13.5q94 0 160.5 12.5t110 38t67.5 63.5
t35 89zM476 478q59 0 94 -6t52 -20t19 -37t-5 -57l-25 -120q-8 -34 -20 -57t-35.5 -37t-61 -20t-96.5 -6q-52 0 -85 8t-50.5 23t-21.5 36.5t2 47.5l30 135q5 25 18.5 45.5t37.5 34.5t60 22t87 8z" />
    <glyph glyph-name="FL00D5h" unicode="&#xd5;" horiz-adv-x="757" 
d="M465 843l-140 -162h100l73 87l39 -88h97l140 162h-100l-73 -88l-39 89h-97zM745 203l42 193q11 50 3 87.5t-40.5 62.5t-93 37.5t-154.5 12.5q-92 0 -156 -13.5t-106.5 -40t-66 -64t-34.5 -85.5l-40 -193q-11 -47 -3.5 -84.5t38.5 -63t89 -39t149 -13.5q94 0 160.5 12.5
t110 38t67.5 63.5t35 89zM476 478q59 0 94 -6t52 -20t19 -37t-5 -57l-25 -120q-8 -34 -20 -57t-35.5 -37t-61 -20t-96.5 -6q-52 0 -85 8t-50.5 23t-21.5 36.5t2 47.5l30 135q5 25 18.5 45.5t37.5 34.5t60 22t87 8z" />
    <glyph glyph-name="FL00D6h" unicode="&#xd6;" horiz-adv-x="757" 
d="M557 731q-5 -26 12.5 -44.5t49.5 -18.5t58 18.5t31 44.5q6 26 -12 44.5t-50 18.5t-57.5 -18.5t-31.5 -44.5zM356 731q-5 -26 12.5 -44.5t49.5 -18.5t58 18.5t31 44.5q6 26 -12 44.5t-50 18.5t-57.5 -18.5t-31.5 -44.5zM745 203l42 193q11 50 3 87.5t-40.5 62.5t-93 37.5
t-154.5 12.5q-92 0 -156 -13.5t-106.5 -40t-66 -64t-34.5 -85.5l-40 -193q-11 -47 -3.5 -84.5t38.5 -63t89 -39t149 -13.5q94 0 160.5 12.5t110 38t67.5 63.5t35 89zM476 478q59 0 94 -6t52 -20t19 -37t-5 -57l-25 -120q-8 -34 -20 -57t-35.5 -37t-61 -20t-96.5 -6
q-52 0 -85 8t-50.5 23t-21.5 36.5t2 47.5l30 135q5 25 18.5 45.5t37.5 34.5t60 22t87 8z" />
    <glyph glyph-name="FL00D7h" unicode="&#xd7;" horiz-adv-x="503" 
d="M138 499l116 -225l-211 -223h112l140 146l76 -146h113l-117 223l214 225h-113l-140 -149l-77 149h-113z" />
    <glyph glyph-name="FL00D8h" unicode="&#xd8;" horiz-adv-x="757" 
d="M474 0q63 0 111 20.5t83 59t59.5 94t39.5 126.5q15 69 14 124t-20 93.5t-55.5 58.5t-92.5 20h-211q-112 0 -182 -78.5t-100 -217.5q-15 -71 -15.5 -126.5t18.5 -94t58 -59t102 -20.5h191zM250 235l26 123q6 25 16.5 47t29 38t45.5 25t65 9h41l-185 -346q-55 23 -38 104z
M635 358l-26 -123q-26 -114 -155 -114h-32l182 341q26 -15 32.5 -42t-1.5 -62z" />
    <glyph glyph-name="FL00D9h" unicode="&#xd9;" horiz-adv-x="758" 
d="M744 191l88 405h-144l-80 -370q-8 -34 -20 -57t-35 -37t-61 -20t-97 -6q-52 0 -85 8t-50 23t-21 36.5t2 47.5l82 375h-139l-88 -405q-10 -48 -3 -85.5t38 -64t89 -40t150 -13.5q94 0 160.5 12.5t110 38t68 63.5t35.5 89zM584 839q-5 9 -14 21t-20 12q-21 0 -46 -17
q-14 -13 -28.5 -22.5t-17.5 -24.5q-6 -18 2 -32l52 -75q8 -20 31 -20q11 0 22 3.5t23 12.5q14 11 21 21.5t10 25.5q6 18 -2 35z" />
    <glyph glyph-name="FL00DAh" unicode="&#xda;" horiz-adv-x="758" 
d="M744 191l88 405h-144l-80 -370q-8 -34 -20 -57t-35 -37t-61 -20t-97 -6q-52 0 -85 8t-50 23t-21 36.5t2 47.5l82 375h-139l-88 -405q-10 -48 -3 -85.5t38 -64t89 -40t150 -13.5q94 0 160.5 12.5t110 38t68 63.5t35.5 89zM477 779q-7 -8 -11 -16.5t-7 -18.5
q-3 -15 0 -25.5t13 -21.5q13 -16 35 -16q23 0 43 20l82 75q12 12 18 32q3 15 -7.5 24.5t-20.5 22.5q-15 17 -36 17q-11 0 -26.5 -12t-23.5 -21z" />
    <glyph glyph-name="FL00DBh" unicode="&#xdb;" horiz-adv-x="758" 
d="M744 191l88 405h-144l-80 -370q-8 -34 -20 -57t-35 -37t-61 -20t-97 -6q-52 0 -85 8t-50 23t-21 36.5t2 47.5l82 375h-139l-88 -405q-10 -48 -3 -85.5t38 -64t89 -40t150 -13.5q94 0 160.5 12.5t110 38t68 63.5t35.5 89zM676 681l-66 186h-97l-145 -186h100l80 105
l31 -105h97z" />
    <glyph glyph-name="FL00DCh" unicode="&#xdc;" horiz-adv-x="758" 
d="M744 191l88 405h-144l-80 -370q-8 -34 -20 -57t-35 -37t-61 -20t-97 -6q-52 0 -85 8t-50 23t-21 36.5t2 47.5l82 375h-139l-88 -405q-10 -48 -3 -85.5t38 -64t89 -40t150 -13.5q94 0 160.5 12.5t110 38t68 63.5t35.5 89zM557 731q-5 -26 12.5 -44.5t49.5 -18.5t58 18.5
t31 44.5q6 26 -12 44.5t-50 18.5t-57.5 -18.5t-31.5 -44.5zM356 731q-5 -26 12.5 -44.5t49.5 -18.5t58 18.5t31 44.5q6 26 -12 44.5t-50 18.5t-57.5 -18.5t-31.5 -44.5z" />
    <glyph glyph-name="FL00DDh" unicode="&#xdd;" 
d="M836 596h-147l-51 -234h-276q-69 15 -66 83l34 152h-146l-14 -64q-15 -70 -14.5 -125t20 -93t58.5 -58t101 -20v1h278q-27 -66 -75 -90t-111 -24h-199l-27 -124h234q139 0 223 78.5t114 217.5zM499 779q-7 -8 -11 -16.5t-7 -18.5q-3 -15 0 -25.5t13 -21.5q13 -16 35 -16
q23 0 43 20l82 75q12 12 18 32q3 15 -7.5 24.5t-20.5 22.5q-15 17 -36 17q-11 0 -26.5 -12t-23.5 -21z" />
    <glyph glyph-name="FL00DEh" unicode="&#xde;" horiz-adv-x="738" 
d="M709 121l26 116q9 44 2 88t-29 79t-57 56.5t-82 21.5h-266l25 114h-144l-129 -596h144l26 121h484zM481 363q38 0 62 -9.5t37 -25.5t16 -38t-1 -46h-344l26 119h204z" />
    <glyph glyph-name="FL00DFh" unicode="&#xdf;" horiz-adv-x="700" 
d="M171 -123l130 600h173q38 0 61 -9t34.5 -25t13 -38t-4.5 -47h-212l-26 -123h212q-26 -114 -155 -114h-82l-26 -121h128q63 0 111 20.5t83 59t59.5 94t39.5 126.5q15 69 14 124t-20 93.5t-55.5 58.5t-92.5 20h-372l-156 -719h143z" />
    <glyph glyph-name="FL00E0h" unicode="&#xe0;" horiz-adv-x="738" 
d="M194 0l22 105h346l-22 -105h143l129 596h-410q-47 0 -91.5 -21.5t-81 -56.5t-62.5 -79t-36 -88l-76 -351h139zM438 477h204l-56 -255h-344l30 136q7 24 19.5 46t32.5 38t48 25.5t66 9.5zM584 839q-5 9 -14 21t-20 12q-21 0 -46 -17q-14 -13 -28.5 -22.5t-17.5 -24.5
q-6 -18 2 -32l52 -75q8 -20 31 -20q11 0 22 3.5t23 12.5q14 11 21 21.5t10 25.5q6 18 -2 35z" />
    <glyph glyph-name="FL00E1h" unicode="&#xe1;" horiz-adv-x="738" 
d="M194 0l22 105h346l-22 -105h143l129 596h-410q-47 0 -91.5 -21.5t-81 -56.5t-62.5 -79t-36 -88l-76 -351h139zM438 477h204l-56 -255h-344l30 136q7 24 19.5 46t32.5 38t48 25.5t66 9.5zM501 778q-11 -15 -17 -35q-3 -15 0 -25.5t12 -21.5q13 -16 36 -16t43 20l82 75
q12 12 17 32q4 15 -7 24.5t-20 22.5q-15 17 -37 17q-11 0 -26 -12t-23 -21z" />
    <glyph glyph-name="FL00E2h" unicode="&#xe2;" horiz-adv-x="738" 
d="M194 0l22 105h346l-22 -105h143l129 596h-410q-47 0 -91.5 -21.5t-81 -56.5t-62.5 -79t-36 -88l-76 -351h139zM438 477h204l-56 -255h-344l30 136q7 24 19.5 46t32.5 38t48 25.5t66 9.5zM696 679l-66 186h-97l-145 -186h100l79 105l32 -105h97z" />
    <glyph glyph-name="FL00E3h" unicode="&#xe3;" horiz-adv-x="738" 
d="M194 0l22 105h346l-22 -105h143l129 596h-410q-47 0 -91.5 -21.5t-81 -56.5t-62.5 -79t-36 -88l-76 -351h139zM438 477h204l-56 -255h-344l30 136q7 24 19.5 46t32.5 38t48 25.5t66 9.5zM482 842l-140 -162h100l73 87l39 -88h97l139 162h-100l-72 -88l-39 89h-97z" />
    <glyph glyph-name="FL00E4h" unicode="&#xe4;" horiz-adv-x="738" 
d="M194 0l22 105h346l-22 -105h143l129 596h-410q-47 0 -91.5 -21.5t-81 -56.5t-62.5 -79t-36 -88l-76 -351h139zM438 477h204l-56 -255h-344l30 136q7 24 19.5 46t32.5 38t48 25.5t66 9.5zM557 731q-5 -26 12.5 -44.5t49.5 -18.5t58 18.5t31 44.5q6 26 -12 44.5t-50 18.5
t-57.5 -18.5t-31.5 -44.5zM356 731q-5 -26 12.5 -44.5t49.5 -18.5t58 18.5t31 44.5q6 26 -12 44.5t-50 18.5t-57.5 -18.5t-31.5 -44.5z" />
    <glyph glyph-name="FL00E5h" unicode="&#xe5;" horiz-adv-x="738" 
d="M194 0l22 105h346l-22 -105h143l129 596h-410q-47 0 -91.5 -21.5t-81 -56.5t-62.5 -79t-36 -88l-76 -351h139zM438 477h204l-56 -255h-344l30 136q7 24 19.5 46t32.5 38t48 25.5t66 9.5zM458 730q-6 -26 11.5 -44.5t49.5 -18.5t58 18.5t32 44.5q5 26 -13.5 44.5
t-50.5 18.5t-57 -18.5t-30 -44.5z" />
    <glyph glyph-name="FL00E6h" unicode="&#xe6;" horiz-adv-x="1184" 
d="M194 0l22 105h346l-22 -105h589l26 121h-316q-131 0 -105 114h360l26 124h-360q6 25 16.5 46.5t29 37.5t45.5 25t65 9h316l26 119h-856q-47 0 -91.5 -21.5t-81 -56.5t-62.5 -79t-36 -88l-76 -351h139zM438 477h204l-56 -255h-344l30 136q7 24 19.5 46t32.5 38t48 25.5
t66 9.5z" />
    <glyph glyph-name="FL00E7h" unicode="&#xe7;" horiz-adv-x="700" 
d="M172 -169h81q52 0 93 9t72.5 29.5t55 52.5t40.5 78h131l26 121h-316q-131 0 -105 114l26 123q6 25 16.5 47t29 38t45.5 25t65 9h316l26 119h-372q-112 0 -182 -78.5t-100 -217.5q-15 -71 -15.5 -126.5t18.5 -94t58 -59t102 -20.5h91q-7 -18 -16.5 -27.5t-23.5 -14
t-32 -5.5t-42 -1h-62z" />
    <glyph glyph-name="FL00E8h" unicode="&#xe8;" horiz-adv-x="700" 
d="M645 0l26 121h-316q-131 0 -105 114h360l26 124h-360q6 25 16.5 46.5t29 37.5t45.5 25t65 9h316l26 119h-372q-112 0 -182 -78.5t-100 -217.5q-15 -71 -15.5 -126.5t18.5 -94t58 -59t102 -20.5h362zM574 839q-5 9 -14 21t-20 12q-21 0 -46 -17q-14 -13 -28.5 -22.5
t-17.5 -24.5q-6 -18 2 -32l52 -75q8 -20 31 -20q11 0 22 3.5t23 12.5q14 11 21 21.5t10 25.5q6 18 -2 35z" />
    <glyph glyph-name="FL00E9h" unicode="&#xe9;" horiz-adv-x="700" 
d="M645 0l26 121h-316q-131 0 -105 114h360l26 124h-360q6 25 16.5 46.5t29 37.5t45.5 25t65 9h316l26 119h-372q-112 0 -182 -78.5t-100 -217.5q-15 -71 -15.5 -126.5t18.5 -94t58 -59t102 -20.5h362zM510 780q-12 -15 -17 -35q-4 -15 -1 -25.5t13 -21.5q13 -16 36 -16
q24 0 41 20l83 75q8 7 11.5 14.5t6.5 17.5q3 15 -7.5 24.5t-20.5 22.5q-15 17 -36 17q-11 0 -26.5 -12t-23.5 -21z" />
    <glyph glyph-name="FL00EAh" unicode="&#xea;" horiz-adv-x="700" 
d="M645 0l26 121h-316q-131 0 -105 114h360l26 124h-360q6 25 16.5 46.5t29 37.5t45.5 25t65 9h316l26 119h-372q-112 0 -182 -78.5t-100 -217.5q-15 -71 -15.5 -126.5t18.5 -94t58 -59t102 -20.5h362zM679 678l-66 186h-97l-145 -186h100l79 105l32 -105h97z" />
    <glyph glyph-name="FL00EBh" unicode="&#xeb;" horiz-adv-x="700" 
d="M645 0l26 121h-316q-131 0 -105 114h360l26 124h-360q6 25 16.5 46.5t29 37.5t45.5 25t65 9h316l26 119h-372q-112 0 -182 -78.5t-100 -217.5q-15 -71 -15.5 -126.5t18.5 -94t58 -59t102 -20.5h362zM572 730q-6 -26 11.5 -44.5t49.5 -18.5t58 18.5t32 44.5
q5 26 -13.5 44.5t-50.5 18.5t-57 -18.5t-30 -44.5zM371 730q-6 -26 11.5 -44.5t49.5 -18.5t58 18.5t32 44.5q5 26 -13.5 44.5t-50.5 18.5t-57 -18.5t-30 -44.5z" />
    <glyph glyph-name="FL00ECh" unicode="&#xec;" horiz-adv-x="261" 
d="M58 0l129 596h144l-129 -596h-144zM378 781q4 -8 4.5 -16.5t-1.5 -18.5q-3 -15 -10.5 -25.5t-21.5 -21.5q-12 -9 -22.5 -12.5t-21.5 -3.5q-22 0 -33 20l-51 75q-6 14 -2 32q3 15 17.5 24.5t29.5 22.5q25 17 44 17q11 0 20.5 -12t14.5 -21z" />
    <glyph glyph-name="FL00EDh" unicode="&#xed;" horiz-adv-x="254" 
d="M199 0l129 596h-144l-129 -596h144zM215 781q-14 -17 -17 -35q-3 -15 -0.5 -25.5t12.5 -21.5q13 -16 36 -16q24 0 41 20l83 75q13 12 18 32q3 15 -7.5 24.5t-19.5 22.5q-15 17 -38 17q-11 0 -25.5 -12t-23.5 -21z" />
    <glyph glyph-name="FL00F7h" unicode="&#xee;" horiz-adv-x="254" 
d="M199 0l129 596h-144l-129 -596h144zM426 678l-66 186h-97l-145 -186h100l79 105l32 -105h97z" />
    <glyph glyph-name="FL00EFh" unicode="&#xef;" horiz-adv-x="254" 
d="M199 0l129 596h-144l-129 -596h144zM311 726q-6 -26 11.5 -44.5t49.5 -18.5t58 18.5t32 44.5q5 26 -13.5 44.5t-50.5 18.5t-57 -18.5t-30 -44.5zM110 726q-6 -26 11.5 -44.5t49.5 -18.5t58 18.5t32 44.5q5 26 -13.5 44.5t-50.5 18.5t-57 -18.5t-30 -44.5z" />
    <glyph glyph-name="FL00F0h" unicode="&#xf0;" 
d="M501 472h-345l27 124h380q68 0 114 -18.5t72.5 -53.5t33 -85t-4.5 -112l-19 -89h-2q-35 -113 -100.5 -175.5t-177.5 -62.5h-152q-69 0 -116 20t-72.5 58.5t-30.5 93.5t10 124l14 65h506q-1 64 -37.5 87.5t-99.5 23.5zM253 238q-2 -33 7.5 -55t27.5 -35t43.5 -18.5
t57.5 -5.5h98v-2q51 11 83.5 36.5t43.5 76.5l2 3h-363z" />
    <glyph glyph-name="FL00F1h" unicode="&#xf1;" horiz-adv-x="758" 
d="M703 0l76 351q10 45 4 87t-30 80q-22 40 -57.5 59t-81.5 19h-430l-129 -596h144l103 477h224q44 0 69 -12t36 -32t10.5 -46.5t-6.5 -55.5l-71 -331h139zM465 841l-139 -162h100l72 87l40 -88h97l139 162h-100l-73 -88l-39 89h-97z" />
    <glyph glyph-name="FL00F2h" unicode="&#xf2;" horiz-adv-x="757" 
d="M584 839q-5 9 -14 21t-20 12q-21 0 -46 -17q-14 -13 -28.5 -22.5t-17.5 -24.5q-6 -18 2 -32l52 -75q8 -20 31 -20q11 0 22 3.5t23 12.5q14 11 21 21.5t10 25.5q6 18 -2 35zM745 203l42 193q11 50 3 87.5t-40.5 62.5t-93 37.5t-154.5 12.5q-92 0 -156 -13.5t-106.5 -40
t-66 -64t-34.5 -85.5l-40 -193q-11 -47 -3.5 -84.5t38.5 -63t89 -39t149 -13.5q94 0 160.5 12.5t110 38t67.5 63.5t35 89zM476 478q59 0 94 -6t52 -20t19 -37t-5 -57l-25 -120q-8 -34 -20 -57t-35.5 -37t-61 -20t-96.5 -6q-52 0 -85 8t-50.5 23t-21.5 36.5t2 47.5l30 135
q5 25 18.5 45.5t37.5 34.5t60 22t87 8z" />
    <glyph glyph-name="FL00F3h" unicode="&#xf3;" horiz-adv-x="757" 
d="M477 779q-7 -8 -11 -16.5t-7 -18.5q-3 -15 0 -25.5t13 -21.5q13 -16 35 -16q23 0 43 20l82 75q12 12 18 32q3 15 -7.5 24.5t-20.5 22.5q-15 17 -36 17q-11 0 -26.5 -12t-23.5 -21zM745 203l42 193q11 50 3 87.5t-40.5 62.5t-93 37.5t-154.5 12.5q-92 0 -156 -13.5
t-106.5 -40t-66 -64t-34.5 -85.5l-40 -193q-11 -47 -3.5 -84.5t38.5 -63t89 -39t149 -13.5q94 0 160.5 12.5t110 38t67.5 63.5t35 89zM476 478q59 0 94 -6t52 -20t19 -37t-5 -57l-25 -120q-8 -34 -20 -57t-35.5 -37t-61 -20t-96.5 -6q-52 0 -85 8t-50.5 23t-21.5 36.5
t2 47.5l30 135q5 25 18.5 45.5t37.5 34.5t60 22t87 8z" />
    <glyph glyph-name="FL00F4h" unicode="&#xf4;" horiz-adv-x="757" 
d="M676 681l-66 186h-97l-145 -186h100l80 105l31 -105h97zM745 203l42 193q11 50 3 87.5t-40.5 62.5t-93 37.5t-154.5 12.5q-92 0 -156 -13.5t-106.5 -40t-66 -64t-34.5 -85.5l-40 -193q-11 -47 -3.5 -84.5t38.5 -63t89 -39t149 -13.5q94 0 160.5 12.5t110 38t67.5 63.5
t35 89zM476 478q59 0 94 -6t52 -20t19 -37t-5 -57l-25 -120q-8 -34 -20 -57t-35.5 -37t-61 -20t-96.5 -6q-52 0 -85 8t-50.5 23t-21.5 36.5t2 47.5l30 135q5 25 18.5 45.5t37.5 34.5t60 22t87 8z" />
    <glyph glyph-name="FL00F5h" unicode="&#xf5;" horiz-adv-x="757" 
d="M465 843l-140 -162h100l73 87l39 -88h97l140 162h-100l-73 -88l-39 89h-97zM745 203l42 193q11 50 3 87.5t-40.5 62.5t-93 37.5t-154.5 12.5q-92 0 -156 -13.5t-106.5 -40t-66 -64t-34.5 -85.5l-40 -193q-11 -47 -3.5 -84.5t38.5 -63t89 -39t149 -13.5q94 0 160.5 12.5
t110 38t67.5 63.5t35 89zM476 478q59 0 94 -6t52 -20t19 -37t-5 -57l-25 -120q-8 -34 -20 -57t-35.5 -37t-61 -20t-96.5 -6q-52 0 -85 8t-50.5 23t-21.5 36.5t2 47.5l30 135q5 25 18.5 45.5t37.5 34.5t60 22t87 8z" />
    <glyph glyph-name="FL00F6h" unicode="&#xf6;" horiz-adv-x="757" 
d="M557 731q-5 -26 12.5 -44.5t49.5 -18.5t58 18.5t31 44.5q6 26 -12 44.5t-50 18.5t-57.5 -18.5t-31.5 -44.5zM356 731q-5 -26 12.5 -44.5t49.5 -18.5t58 18.5t31 44.5q6 26 -12 44.5t-50 18.5t-57.5 -18.5t-31.5 -44.5zM745 203l42 193q11 50 3 87.5t-40.5 62.5t-93 37.5
t-154.5 12.5q-92 0 -156 -13.5t-106.5 -40t-66 -64t-34.5 -85.5l-40 -193q-11 -47 -3.5 -84.5t38.5 -63t89 -39t149 -13.5q94 0 160.5 12.5t110 38t67.5 63.5t35 89zM476 478q59 0 94 -6t52 -20t19 -37t-5 -57l-25 -120q-8 -34 -20 -57t-35.5 -37t-61 -20t-96.5 -6
q-52 0 -85 8t-50.5 23t-21.5 36.5t2 47.5l30 135q5 25 18.5 45.5t37.5 34.5t60 22t87 8z" />
    <glyph glyph-name="FL0100h" unicode="&#xf7;" horiz-adv-x="556" 
d="M132 358l-26 -123h446l26 123h-446zM237 138q-6 -26 11.5 -44.5t49.5 -18.5t58 18.5t32 44.5q5 26 -13 44.5t-50 18.5t-57.5 -18.5t-30.5 -44.5zM305 456q-5 -26 12 -44.5t49 -18.5t58.5 18.5t31.5 44.5q6 26 -12 44.5t-50 18.5t-57.5 -18.5t-31.5 -44.5z" />
    <glyph glyph-name="FL00F8h" unicode="&#xf8;" horiz-adv-x="757" 
d="M474 0q63 0 111 20.5t83 59t59.5 94t39.5 126.5q15 69 14 124t-20 93.5t-55.5 58.5t-92.5 20h-211q-112 0 -182 -78.5t-100 -217.5q-15 -71 -15.5 -126.5t18.5 -94t58 -59t102 -20.5h191zM250 235l26 123q6 25 16.5 47t29 38t45.5 25t65 9h41l-185 -346q-55 23 -38 104z
M635 358l-26 -123q-26 -114 -155 -114h-32l182 341q26 -15 32.5 -42t-1.5 -62z" />
    <glyph glyph-name="FL00F9h" unicode="&#xf9;" horiz-adv-x="758" 
d="M744 191l88 405h-144l-80 -370q-8 -34 -20 -57t-35 -37t-61 -20t-97 -6q-52 0 -85 8t-50 23t-21 36.5t2 47.5l82 375h-139l-88 -405q-10 -48 -3 -85.5t38 -64t89 -40t150 -13.5q94 0 160.5 12.5t110 38t68 63.5t35.5 89zM584 839q-5 9 -14 21t-20 12q-21 0 -46 -17
q-14 -13 -28.5 -22.5t-17.5 -24.5q-6 -18 2 -32l52 -75q8 -20 31 -20q11 0 22 3.5t23 12.5q14 11 21 21.5t10 25.5q6 18 -2 35z" />
    <glyph glyph-name="FL00FAh" unicode="&#xfa;" horiz-adv-x="758" 
d="M744 191l88 405h-144l-80 -370q-8 -34 -20 -57t-35 -37t-61 -20t-97 -6q-52 0 -85 8t-50 23t-21 36.5t2 47.5l82 375h-139l-88 -405q-10 -48 -3 -85.5t38 -64t89 -40t150 -13.5q94 0 160.5 12.5t110 38t68 63.5t35.5 89zM477 779q-7 -8 -11 -16.5t-7 -18.5
q-3 -15 0 -25.5t13 -21.5q13 -16 35 -16q23 0 43 20l82 75q12 12 18 32q3 15 -7.5 24.5t-20.5 22.5q-15 17 -36 17q-11 0 -26.5 -12t-23.5 -21z" />
    <glyph glyph-name="FL00FBh" unicode="&#xfb;" horiz-adv-x="758" 
d="M744 191l88 405h-144l-80 -370q-8 -34 -20 -57t-35 -37t-61 -20t-97 -6q-52 0 -85 8t-50 23t-21 36.5t2 47.5l82 375h-139l-88 -405q-10 -48 -3 -85.5t38 -64t89 -40t150 -13.5q94 0 160.5 12.5t110 38t68 63.5t35.5 89zM676 681l-66 186h-97l-145 -186h100l80 105
l31 -105h97z" />
    <glyph glyph-name="FL00FCh" unicode="&#xfc;" horiz-adv-x="758" 
d="M744 191l88 405h-144l-80 -370q-8 -34 -20 -57t-35 -37t-61 -20t-97 -6q-52 0 -85 8t-50 23t-21 36.5t2 47.5l82 375h-139l-88 -405q-10 -48 -3 -85.5t38 -64t89 -40t150 -13.5q94 0 160.5 12.5t110 38t68 63.5t35.5 89zM557 731q-5 -26 12.5 -44.5t49.5 -18.5t58 18.5
t31 44.5q6 26 -12 44.5t-50 18.5t-57.5 -18.5t-31.5 -44.5zM356 731q-5 -26 12.5 -44.5t49.5 -18.5t58 18.5t31 44.5q6 26 -12 44.5t-50 18.5t-57.5 -18.5t-31.5 -44.5z" />
    <glyph glyph-name="FL00FDh" unicode="&#xfd;" 
d="M836 596h-147l-51 -234h-276q-69 15 -66 83l34 152h-146l-14 -64q-15 -70 -14.5 -125t20 -93t58.5 -58t101 -20v1h278q-27 -66 -75 -90t-111 -24h-199l-27 -124h234q139 0 223 78.5t114 217.5zM499 779q-7 -8 -11 -16.5t-7 -18.5q-3 -15 0 -25.5t13 -21.5q13 -16 35 -16
q23 0 43 20l82 75q12 12 18 32q3 15 -7.5 24.5t-20.5 22.5q-15 17 -36 17q-11 0 -26.5 -12t-23.5 -21z" />
    <glyph glyph-name="FL00FEh" unicode="&#xfe;" horiz-adv-x="738" 
d="M709 121l26 116q9 44 2 88t-29 79t-57 56.5t-82 21.5h-266l25 114h-144l-129 -596h144l26 121h484zM481 363q38 0 62 -9.5t37 -25.5t16 -38t-1 -46h-344l26 119h204z" />
    <glyph glyph-name="FL00FFh" unicode="&#xff;" 
d="M836 596h-147l-51 -234h-276q-69 15 -66 83l34 152h-146l-14 -64q-15 -70 -14.5 -125t20 -93t58.5 -58t101 -20v1h278q-27 -66 -75 -90t-111 -24h-199l-27 -124h234q139 0 223 78.5t114 217.5zM557 731q-5 -26 12.5 -44.5t49.5 -18.5t58 18.5t31 44.5q6 26 -12 44.5
t-50 18.5t-57.5 -18.5t-31.5 -44.5zM356 731q-5 -26 12.5 -44.5t49.5 -18.5t58 18.5t31 44.5q6 26 -12 44.5t-50 18.5t-57.5 -18.5t-31.5 -44.5z" />
    <glyph glyph-name="FL0152h" unicode="&#x152;" horiz-adv-x="1148" 
d="M1093 0l26 121h-316q-131 0 -105 114h360l26 124h-360q6 25 16.5 46.5t29 37.5t45.5 25t65 9h316l26 119h-820q-112 0 -182 -78.5t-100 -217.5q-15 -71 -15.5 -126.5t18.5 -94t58 -59t102 -20.5h810zM568 300q-12 -54 -15.5 -99t4.5 -80h-202q-131 0 -105 114l26 123
q6 25 16.5 47t29 38t45.5 25t65 9h204q-23 -35 -40 -79t-28 -98z" />
    <glyph glyph-name="FL0153h" unicode="&#x153;" horiz-adv-x="1148" 
d="M1093 0l26 121h-316q-131 0 -105 114h360l26 124h-360q6 25 16.5 46.5t29 37.5t45.5 25t65 9h316l26 119h-820q-112 0 -182 -78.5t-100 -217.5q-15 -71 -15.5 -126.5t18.5 -94t58 -59t102 -20.5h810zM568 300q-12 -54 -15.5 -99t4.5 -80h-202q-131 0 -105 114l26 123
q6 25 16.5 47t29 38t45.5 25t65 9h204q-23 -35 -40 -79t-28 -98z" />
    <glyph glyph-name="FL0160h" unicode="&#x160;" 
d="M465 472h345l27 124h-380q-139 0 -223 -78.5t-114 -217.5l-13 -62h506q-27 -66 -75 -90t-111 -24h-345l-27 -124h380q139 0 223 78.5t114 217.5l14 65h-506q26 64 74 87.5t111 23.5zM417 865l64 -185h97l145 185h-100l-79 -104l-30 103z" />
    <glyph glyph-name="FL0162h" unicode="&#x161;" 
d="M465 472h195l27 124h-230q-139 0 -223 -78.5t-114 -217.5l-13 -62h506q-27 -66 -75 -90t-111 -24h-344l-27 -124h379q139 0 223 78.5t114 217.5l14 65h-506q26 64 74 87.5t111 23.5zM417 865l64 -185h97l145 185h-100l-79 -104l-30 103z" />
    <glyph glyph-name="FL0178h" unicode="&#x178;" 
d="M836 596h-147l-51 -234h-276q-69 15 -66 83l34 152h-146l-14 -64q-15 -70 -14.5 -125t20 -93t58.5 -58t101 -20v1h278q-27 -66 -75 -90t-111 -24h-199l-27 -124h234q139 0 223 78.5t114 217.5zM557 731q-5 -26 12.5 -44.5t49.5 -18.5t58 18.5t31 44.5q6 26 -12 44.5
t-50 18.5t-57.5 -18.5t-31.5 -44.5zM356 731q-5 -26 12.5 -44.5t49.5 -18.5t58 18.5t31 44.5q6 26 -12 44.5t-50 18.5t-57.5 -18.5t-31.5 -44.5z" />
    <glyph glyph-name="FL017Dh" unicode="&#x17d;" horiz-adv-x="694" 
d="M742 477l26 119h-584l-26 -119h393l-470 -358l-26 -119h584l26 119h-394zM379 865l64 -185h97l145 185h-100l-79 -104l-30 103z" />
    <glyph glyph-name="FL0161h" unicode="&#x17e;" horiz-adv-x="694" 
d="M742 477l26 119h-584l-26 -119h393l-470 -358l-26 -119h584l26 119h-394zM379 865l64 -185h97l145 185h-100l-79 -104l-30 103z" />
    <glyph glyph-name="FL0192h" unicode="&#x192;" horiz-adv-x="700" 
d="M774 596l-27 -121h-316q-130 0 -154 -114l-78 -362h-144l64 297q15 70 39.5 126t59.5 94.5t83 59t111 20.5h362z" />
    <glyph glyph-name="FL02C6h" unicode="&#x2c6;" horiz-adv-x="418" 
d="M452 409l-68 186h-97l-143 -186h100l78 105l33 -105h97z" />
    <glyph glyph-name="FL02DCh" unicode="&#x2dc;" horiz-adv-x="473" 
d="M262 595l-140 -170h100l73 92l39 -93h97l140 170h-100l-74 -92l-38 93h-97z" />
    <glyph glyph-name="FL2013h" unicode="&#x2013;" horiz-adv-x="488" 
d="M106 234h378l26 124h-378z" />
    <glyph glyph-name="FL2014h" unicode="&#x2014;" horiz-adv-x="556" 
d="M132 358l-26 -123h446l26 123h-446z" />
    <glyph glyph-name="FL2018h" unicode="&#x2018;" horiz-adv-x="261" 
d="M144 416q-5 -26 12.5 -45t49.5 -19t58 18.5t32 44.5l25 118q5 26 -12.5 44.5t-49.5 18.5t-58 -18.5t-31 -44.5z" />
    <glyph glyph-name="FL2019h" unicode="&#x2019;" horiz-adv-x="261" 
d="M144 416q-5 -26 12.5 -45t49.5 -19t58 18.5t32 44.5l25 118q5 26 -12.5 44.5t-49.5 18.5t-58 -18.5t-31 -44.5z" />
    <glyph glyph-name="FL201Ah" unicode="&#x201a;" horiz-adv-x="261" 
d="M44 -54q-6 -26 11 -45t49 -19t58.5 18.5t31.5 44.5l26 118q5 26 -12.5 44.5t-49.5 18.5t-58 -18.5t-31 -44.5z" />
    <glyph glyph-name="FL201Ch" unicode="&#x201c;" horiz-adv-x="463" 
d="M346 416q-5 -26 12.5 -45t49.5 -19t58 18.5t32 44.5l25 118q5 26 -12.5 44.5t-49.5 18.5t-58 -18.5t-31 -44.5zM145 415q-6 -26 11.5 -45t49.5 -19t58 18.5t32 44.5l25 118q5 26 -13 44.5t-50 18.5t-57.5 -18.5t-30.5 -44.5z" />
    <glyph glyph-name="FL201Dh" unicode="&#x201d;" horiz-adv-x="463" 
d="M346 416q-5 -26 12.5 -45t49.5 -19t58 18.5t32 44.5l25 118q5 26 -12.5 44.5t-49.5 18.5t-58 -18.5t-31 -44.5zM145 415q-6 -26 11.5 -45t49.5 -19t58 18.5t32 44.5l25 118q5 26 -13 44.5t-50 18.5t-57.5 -18.5t-30.5 -44.5z" />
    <glyph glyph-name="FL201Eh" unicode="&#x201e;" horiz-adv-x="463" 
d="M246 -54q-6 -26 11 -45t49 -19t58.5 18.5t31.5 44.5l26 118q5 26 -12.5 44.5t-49.5 18.5t-58 -18.5t-31 -44.5zM44 -53q-6 -26 11.5 -45t49.5 -19t58 18.5t32 44.5l25 118q6 26 -12 44.5t-50 18.5t-57.5 -18.5t-31.5 -44.5z" />
    <glyph glyph-name="FL2020h" unicode="&#x2020;" horiz-adv-x="495" 
d="M132 354h121l-77 -354h144l77 355h120l26 124h-120l26 117h-144l-26 -117h-121z" />
    <glyph glyph-name="FL2021h" unicode="&#x2021;" horiz-adv-x="495" 
d="M132 354h121l-27 -123h-121l-28 -125h121l-22 -106h144l23 107h120l27 124h-120l27 124h120l26 124h-120l26 117h-144l-26 -117h-121z" />
    <glyph glyph-name="FL2022h" unicode="&#x2022;" horiz-adv-x="473" 
d="M495 358l-26 -123q-26 -114 -155 -114h-110q-124 0 -98 114l26 123q6 25 16.5 47t29 38t45.5 25t65 9h103q38 0 61 -9t34.5 -25t13 -38t-4.5 -47z" />
    <glyph glyph-name="FL2026h" unicode="&#x2026;" horiz-adv-x="710" 
d="M471 63q-5 -26 12 -44.5t49 -18.5t58.5 18.5t31.5 44.5t-12.5 44.5t-49.5 18.5t-58 -18.5t-31 -44.5zM270 63q-5 -26 12 -44.5t49 -18.5t58.5 18.5t31.5 44.5t-12.5 44.5t-49.5 18.5t-58 -18.5t-31 -44.5zM69 63q-5 -26 12 -44.5t49 -18.5t58.5 18.5t31.5 44.5
t-12.5 44.5t-49.5 18.5t-58 -18.5t-31 -44.5z" />
    <glyph glyph-name="FL2030h" unicode="&#x2030;" horiz-adv-x="1213" 
d="M251 0l633 596h-139l-638 -596h144zM463 397l22 99q5 25 1.5 43.5t-19.5 31t-45.5 18.5t-76.5 6q-92 0 -132.5 -26.5t-51.5 -74.5l-21 -98q-5 -24 -1.5 -42.5t19.5 -31t45 -19.5t74 -7q47 0 80 6t55 19t34 31.5t17 44.5zM329 518q25 0 39.5 -3.5t21 -9t7 -13.5t-1.5 -17
l-11 -53q-3 -14 -8 -23t-15 -14.5t-26.5 -8t-41.5 -2.5q-44 0 -57 12.5t-8 32.5l12 56q5 20 24.5 31.5t64.5 11.5zM829 101l23 99q5 25 1.5 43.5t-19.5 31t-45.5 18.5t-76.5 6q-46 0 -79 -7t-54.5 -19.5t-33.5 -31.5t-17 -43l-21 -98q-5 -24 -1.5 -42.5t19 -31t44.5 -19.5
t74 -7q47 0 80 6t55 19t34 31.5t17 44.5zM694 222q25 0 39.5 -3.5t21 -9t7.5 -13.5t0 -17l-11 -53q-3 -14 -8.5 -23t-15.5 -14.5t-26 -8t-41 -2.5q-44 0 -57 12.5t-8 32.5l12 56q4 20 23 31.5t64 11.5zM1179 101l23 99q5 25 1.5 43.5t-19.5 31t-45.5 18.5t-76.5 6
q-46 0 -79 -7t-54.5 -19.5t-33.5 -31.5t-17 -43l-21 -98q-5 -24 -1.5 -42.5t19 -31t44.5 -19.5t74 -7q47 0 80 6t55 19t34 31.5t17 44.5zM1044 222q25 0 39.5 -3.5t21 -9t7.5 -13.5t0 -17l-11 -53q-3 -14 -8.5 -23t-15.5 -14.5t-26 -8t-41 -2.5q-44 0 -57 12.5t-8 32.5
l12 56q4 20 23 31.5t64 11.5z" />
    <glyph glyph-name="FL2039h" unicode="&#x2039;" horiz-adv-x="296" 
d="M337 448l-209 -107l-21 -97l165 -104l21 100l-93 56l117 55z" />
    <glyph glyph-name="FL203Ah" unicode="&#x203a;" horiz-adv-x="296" 
d="M151 448l163 -107l-21 -97l-207 -104l21 100l117 56l-93 55z" />
    <glyph glyph-name="FL20ACh" unicode="&#x20ac;" horiz-adv-x="742" 
d="M123 317h110l-7 -33h-110l-27 -124h125q4 -78 46 -119t133 -41h294l26 121h-248q-76 0 -100 39h236l27 124h-258l7 33h258l27 124h-233q19 17 46.5 26.5t66.5 9.5h248l26 119h-304q-81 0 -139 -40t-96 -115h-127z" />
    <glyph glyph-name="FL04E5h" unicode="&#x2122;" horiz-adv-x="1184" 
d="M1195 361l-55 -144l-27 3l41 152zM1135 155l-38 -30l-18 24l30 19zM1057 166q-43 0 -91 98l-21 -96l-28 -4l39 197l80 -123l37 134l27 -11zM882 168l-19 9q-10 43 -34 43t-55 -43h-38q15 49 43.5 97.5t74.5 96.5q11 7 25 7q37 0 33 -63zM757 372l-51 -194l-48 -14l63 202
zM623 160q-49 0 -91 96l-22 -96l-30 -5l40 198l79 -124l35 137l32 -12zM487 296q-48 -136 -102 -136q-9 -1 -15.5 -2t-14.5 -1q-52 0 -56 34q27 127 107 170q5 4 11 4h8q60 0 62 -69zM325 369l-17 -48q-5 4 -19 4q-26 0 -53 -29q-37 -34 -46 -77q-8 -39 32 -39q31 0 36 4
l-7 -34q-12 -6 -20 -7t-17 -1q-56 0 -53 87q2 9 2 13q0 5 2 13q19 91 160 114zM169 366l-51 -195l-45 -16l62 202zM871 264l-9 65l-50 -65h59zM447 269q2 14 1 24q-9 24 -31 24q-31 0 -68 -61l-3 -14q-12 -48 19 -48q20 0 54 19q12 14 18.5 28t9.5 28z" />
    <glyph glyph-name="FL06D9h" horiz-adv-x="933" 
d="M414 190l-18 -80h-117l43 196q9 43 32.5 78t55.5 59.5t71 38t80 13.5h226l-55 -251q53 23 72 80l17 78q6 27 8 51.5t-7 44t-32.5 31t-68.5 11.5h-275q-45 0 -74 -14.5t-48 -39.5t-29.5 -58t-18.5 -70l-26 -123q-7 -29 -12 -61t-1 -59t22 -44.5t58 -17.5h9q7 0 10 1h324
l-26 -122h-369q-63 0 -99.5 31t-51.5 82.5t-12 117.5t18 137q15 69 42 133.5t64.5 114.5t84.5 80t103 30h388q48 0 81.5 -20t52.5 -56.5t23 -87t-9 -110.5l-18 -83q-40 -90 -101 -139.5t-157 -52.5l-1 1h-78l18 80h-199zM657 394h-97q-26 -1 -45 -3t-33 -10t-24 -24.5
t-18 -46.5h199z" />
    <glyph glyph-name="FL0064h" horiz-adv-x="739" 
d="M328 596l-23 -105h267q46 0 82 -19t58 -59q23 -38 29 -80t-4 -87h-2l1 -1q-18 -90 -97 -165q-38 -40 -83 -60t-91 -20h-410l129 596h144zM485 372h-205l-55 -253h204q38 0 66.5 11t48.5 29t32.5 41t19.5 47q4 32 1 55.5t-16 39t-36 23t-60 7.5z" />
    <glyph glyph-name="FLE005h" horiz-adv-x="739" 
d="M668 596l-23 -105h-267q-46 0 -90 -19t-82 -59q-42 -38 -65.5 -80t-33.5 -87h2l-1 -1q-9 -45 -4 -86t29 -79q22 -40 58 -60t82 -20h410l129 596h-144zM415 372h205l-55 -253h-204q-38 0 -61.5 11t-36 29t-15.5 41t0 47q10 32 23.5 55.5t33 39t46.5 23t64 7.5z" />
  </font>
</defs>
</svg>
