<?xml version="1.0" standalone="no"?>
<!DOCTYPE svg PUBLIC "-//W3C//DTD SVG 1.1//EN" "http://www.w3.org/Graphics/SVG/1.1/DTD/svg11.dtd" >
<svg xmlns="http://www.w3.org/2000/svg" xmlns:xlink="http://www.w3.org/1999/xlink" version="1.1">
<metadata></metadata>
<defs>
<font id="biergrten_rotalicrotalic" horiz-adv-x="1140" >
<font-face units-per-em="2048" ascent="1638" descent="-410" />
<missing-glyph horiz-adv-x="491" />
<glyph horiz-adv-x="0" />
<glyph unicode="&#xd;" horiz-adv-x="1024" />
<glyph unicode=" "  horiz-adv-x="491" />
<glyph unicode="&#x09;" horiz-adv-x="491" />
<glyph unicode="&#xa0;" horiz-adv-x="491" />
<glyph unicode="!" horiz-adv-x="724" d="M295 573q4 31 22.5 53.5t41 47t43 55.5t26.5 80q2 20 3 68.5t1 101.5v100v68q-109 -39 -100 37q2 29 45 82t99 107t112.5 96t85.5 49q25 6 59.5 -11.5t65 -45t51 -59.5t18.5 -56l-65 -572q12 2 43 -2t39 -8q12 -10 25.5 -27.5t2.5 -27.5l-264 -281q20 -10 34.5 -34.5 t24 -54.5t13.5 -60.5t2 -51.5q-6 -33 -22.5 -64.5t-42 -59t-57.5 -48t-66 -28.5q-37 -10 -74 -3t-64.5 27.5t-42 50t-8.5 66.5q10 66 60.5 122t105.5 103l-213 166l-2 5t-2 9z" />
<glyph unicode="&#x22;" horiz-adv-x="1081" d="M442 1180l90 178l267 112q92 -47 120.5 -121.5t12.5 -191.5q-2 -14 -4 -32.5t-5 -34t-5.5 -27.5t-2.5 -14q-6 -12 -29.5 -42t-53 -63t-59.5 -59.5t-48 -32.5q-2 0 -7 -2t-7 -2q-8 -4 -15 -4h-4l-30 24l-115 152zM985 1313l88 178l268 115q92 -47 119 -124t15 -190 q-2 -14 -5.5 -32.5t-6.5 -35t-4 -28.5l-1 -12q-8 -14 -32.5 -44t-54.5 -61.5t-58.5 -57.5t-44.5 -32q-4 -2 -8.5 -5t-8.5 -3q-6 -2 -11 -1l-5 1l-31 20l-117 154z" />
<glyph unicode="#" horiz-adv-x="1613" d="M203 326l305 125l8 145l-188 -31l-109 23l309 110l13 103q-6 -2 -18.5 -1t-25 4t-22.5 6t-14 7q0 2 -3 26.5t-5 33.5q0 12 14 30.5t50 55t99.5 99t163.5 165.5q88 -45 151.5 -96.5t96.5 -106.5l2 -7q2 -7 0 -13q-4 -27 -16.5 -46.5t-27.5 -37t-31.5 -37t-28.5 -43.5 l45 14l168 20l8 78q-6 -2 -25.5 1t-42.5 8q-10 4 -11 8t-5 28q-2 12 -2 19v12q0 12 14.5 30.5t51 55.5t100 99.5t162.5 164.5q88 -43 151.5 -94t93.5 -110l2 -6q2 -7 2 -11q-4 -31 -22.5 -54.5t-40 -49t-40.5 -57t-28 -76.5l310 41h8q14 0 2 -5q-47 -41 -128 -94t-202 -90 q-2 -29 -4 -55.5t2 -52.5l229 30l8 -1q9 -1 3 -3q-41 -29 -98.5 -52.5t-143.5 -55.5q-4 -29 -1 -43.5t3 -24.5q111 43 100 -47q-6 -33 -49 -91.5t-98 -116.5t-109.5 -104t-83.5 -53q-25 -6 -57.5 14.5t-61 53.5t-48 69.5t-17.5 65.5l19 160q-49 -6 -100.5 -16.5 t-104.5 -20.5q-2 -41 4 -68q109 43 98 -47q-4 -20 -24.5 -54t-52 -73t-69.5 -78.5t-74 -73.5t-67.5 -56.5t-50.5 -26.5q-25 -6 -58.5 14.5t-62 53t-48 69.5t-15.5 64l31 190q-66 -12 -121.5 -17.5t-95.5 -5.5q-39 0 -59.5 2.5t-16.5 4.5zM887 567l53 21l166 22l12 88 l-225 -39q-4 -23 -4 -43t-2 -49z" />
<glyph unicode="$" horiz-adv-x="942" d="M201 328v2q0 4 2 10q2 25 43 57.5t91 62t99 52.5t72 29q12 2 19.5 3t17.5 -3l39 20l-332 111l14 127q2 20 19.5 42.5t44 44t56.5 39t54 29.5q16 10 42 22.5t63 29.5q14 25 62 90t147 207q63 -63 102 -148q23 10 37 17.5t20 11.5q4 2 8.5 5t10.5 5q20 6 37.5 -4t30 -25.5 t19.5 -29t11 -13.5q8 -8 23.5 -30.5t34 -48t34 -47t23.5 -25.5l1 -5t1 -8q-4 -27 -45 -59.5t-92.5 -62t-100.5 -52t-73 -28.5q-12 -2 -20.5 -3t-18.5 -1l-15 26l324 -125l-21 -155q-2 -23 -23.5 -46.5t-50 -45t-59 -39t-51.5 -29.5q-14 -8 -35.5 -17.5t-54.5 -25.5 q-18 -41 -45 -86t-55.5 -85t-55 -67.5t-43.5 -31.5q-25 -4 -47 37.5t-41 93.5q-33 -16 -53.5 -25.5t-36.5 -19.5q-6 -2 -8 -3.5t-8 -3.5q-18 -4 -37 5.5t-34 23.5t-25.5 27.5t-10.5 17.5q-6 8 -23.5 28.5t-36 44t-33.5 45t-17 32.5z" />
<glyph unicode="%" horiz-adv-x="1224" d="M240 688l2 12q2 27 32 35l37 338q2 4 38 20.5t82 36t90 39t63 29.5q2 0 18 10.5t34.5 22.5t35 23.5t20.5 15.5q29 0 51.5 -14.5t38 -37t24.5 -48t15 -48.5v-20q25 20 56.5 48t77.5 65.5t107.5 88t141.5 115.5q117 -115 115 -245l-2 -9q0 -4 -1 -7t-1 -7 q-18 -39 -47 -66.5t-61.5 -58.5t-67.5 -69.5t-68 -100.5q-14 -27 -36.5 -80t-57.5 -119q53 27 107.5 48.5t76.5 37.5q4 0 19.5 9.5t34 21.5t35 22.5t20.5 14.5q29 2 51 -11.5t38.5 -36t26 -49t13.5 -50.5l-2 -23q-2 -16 -2 -35q0 -18 -2 -35l-2 -22q-10 -80 -18.5 -121 t-29 -67.5t-60.5 -52t-114 -75.5q-4 -4 -18 -16t-30.5 -27.5t-30 -26.5t-15.5 -11l-4 -2q-4 -3 -12 -5q-20 -4 -51 13.5t-62 44t-57.5 54.5t-36.5 44q-47 -80 -108.5 -145.5t-121 -113.5t-107.5 -78t-69 -36q-23 -6 -42 20.5t-28 67.5t-8 86t19 74l297 578 q-20 -16 -38.5 -28.5t-53.5 -35.5q-4 -2 -17.5 -15t-30 -27.5t-30.5 -27t-16 -12.5l-15 -6q-23 -4 -63.5 3t-81.5 20.5t-70.5 31t-27.5 31.5zM522 809q0 -10 9.5 -13t21.5 1l31 252q-2 10 -10.5 22t-20.5 14zM1100 350q0 -10 9 -12t21 2l29 252q0 10 -8 22.5t-18 14.5z" />
<glyph unicode="&#x26;" horiz-adv-x="974" d="M203 252l76 647q4 29 24.5 56.5t48 54t58 48t55.5 38.5l12 96q-6 -2 -25.5 8t-23.5 21q0 2 -2 29.5t-2 35.5q2 10 11 28.5t35 55.5t71 99.5t116 162.5q53 -55 91 -118.5t61 -127.5l2 -7t0 -13q-4 -35 -15.5 -57.5t-27.5 -51.5q63 35 115.5 65t77.5 42l8 4t8 2 q20 6 37.5 -8t31 -32.5t22.5 -36t15 -17.5q2 -12 10.5 -38t17.5 -54.5t18.5 -51t15.5 -28.5v-17q-6 -37 -45 -72.5t-89 -66t-98.5 -52.5t-72.5 -28q-35 -8 -55.5 -2t-33 20.5t-20.5 31t-18 28.5l-27 -237l111 71l303 -75q4 -4 -38 -30t-106.5 -61.5t-138.5 -72.5t-133 -62 q-4 -4 -6 -12q14 -14 42 -21.5t58.5 -9.5t60 1t50.5 9q53 12 96 39t90 39q33 8 43 -8t6 -39q0 -20 -6 -35q-8 -18 -23.5 -32.5t-50.5 -42.5q-23 -16 -68.5 -53.5t-101 -82.5t-111.5 -89t-97 -76q-4 -35 -35 -94.5t-69 -118t-75.5 -102.5t-58.5 -48q-16 -4 -38.5 21.5 t-41 64.5t-28 81t-3.5 71l21 125q-66 35 -103.5 84t-31.5 102z" />
<glyph unicode="'" horiz-adv-x="573" d="M459 1245l90 178l264 113q92 -47 121 -122t14 -191q-2 -14 -5 -33t-6 -34t-5 -27.5t-2 -14.5q-4 -12 -27.5 -42t-54.5 -61.5t-60.5 -59t-46.5 -33.5q-2 0 -8 -2.5t-8 -2.5q-4 -2 -11 -3l-7 -1l-29 25l-113 153z" />
<glyph unicode="(" horiz-adv-x="561" d="M193 258l100 854q10 23 27.5 56.5t46.5 56.5l120 141l7 3q8 3 10 3q4 2 12 2h6l158 -69l55 -13l-76 -162q-23 -35 -36 -73q-14 -33 -21 -78q-27 -190 -48.5 -368.5t-16 -314.5t47.5 -215t142 -71q-4 -18 -19.5 -29.5t-33 -18.5t-33.5 -10t-25 -5q-57 -14 -132.5 7 t-142.5 66.5t-111 107.5t-37 130zM735 1292l8 -2z" />
<glyph unicode=")" horiz-adv-x="563" d="M47 -131q106 43 170 147.5t99.5 250t54 322.5t39.5 367q6 41 -1.5 73t-21.5 61l-41 131l62 43l182 151l20 8h15l96 -88q23 -10 34 -36.5t17 -47.5l-100 -852q-6 -45 -36 -100t-76 -112.5t-101.5 -113t-111.5 -100.5t-108.5 -75.5t-88.5 -40.5q-6 -2 -23.5 -7.5t-35 -6.5 t-31 4.5t-13.5 21.5zM336 1214l10 7z" />
<glyph unicode="*" horiz-adv-x="622" d="M526 1112l170 313q-27 39 -52.5 77t-43.5 69t-27.5 50t-3.5 21l324 -59l209 135h6q4 4 4 0q2 -41 -21.5 -85t-56.5 -120q-6 -16 -71 -71l73 -150v-6l-2 -4q-25 -10 -46 -11t-44.5 0t-51.5 5t-65 6q-12 0 -32 25q-49 -39 -99.5 -76t-89.5 -64.5t-61.5 -43t-18.5 -11.5z " />
<glyph unicode="+" horiz-adv-x="806" d="M211 535l369 204l92 207l4 5q4 5 6 1q35 -12 49 -51t43 -92q0 -10 -2 -30.5t-8 -49.5l192 -12l6 -3q5 -3 -4 -7q-14 -20 -32.5 -36t-43 -31t-55 -33.5t-69.5 -45.5q-16 -6 -51 -12q-23 -53 -39.5 -104.5t-32.5 -92.5q-16 -39 -24.5 -61.5t-12.5 -16.5l-86 256 q-57 -2 -112.5 -3t-98.5 -1t-68.5 2t-21.5 7z" />
<glyph unicode="," horiz-adv-x="520" d="M-29 -303q74 18 156 59t152.5 101.5t122 138.5t61.5 170q4 37 4 61q0 27 -6 47.5t-20.5 39.5t-39.5 44h-104q-96 -29 -165 -87t-97 -146q0 -37 15.5 -63.5t37 -46t47 -33t47.5 -21.5q-115 -86 -161 -148.5t-50 -115.5z" />
<glyph unicode="-" horiz-adv-x="733" d="M258 633l342 274l324 -114l3 -5q3 -4 -3 -8q-12 -29 -31 -52t-41.5 -47t-52 -49.5t-64.5 -58.5q-10 -10 -51 -11t-95 4t-115.5 14.5t-111 18.5t-80 18.5t-24.5 15.5z" />
<glyph unicode="." horiz-adv-x="464" d="M63 147q-6 -35 9.5 -63.5t42 -49t61.5 -27.5t72 3q70 16 124 73.5t64 123.5q10 104 -40 138t-175 20q-25 -25 -51.5 -50.5t-49 -52t-38.5 -55.5t-19 -60z" />
<glyph unicode="/" horiz-adv-x="868" d="M159 97q-1 -44 8 -85t26.5 -68.5t39.5 -21.5q18 4 58.5 29.5t89.5 63.5t103.5 83t101.5 90t83 84t48 64q27 53 12.5 70.5t-76.5 -11.5q10 25 38 89.5t60.5 136t62.5 137t44 92.5q33 61 68 100t67.5 70t61 58.5t47.5 66.5q2 2 2 14l2 8q0 68 -29.5 129.5t-83.5 116.5 q-141 -117 -229 -188.5t-138.5 -113.5t-70.5 -61.5t-29 -31.5q-4 -2 -8 -17q-6 -14 -10 -32.5t-2 -20.5q6 -10 25.5 -19t31.5 -5l-389 -754q-14 -29 -15 -73z" />
<glyph unicode="0" d="M180 186l2 21q4 23 16.5 40t45.5 25l78 678q0 6 33.5 22.5t87 40t117 51.5t124.5 54.5t110.5 49t73.5 36.5q8 4 39 24.5t67 44t66.5 45t40.5 30.5q59 0 104.5 -29t78 -73t52 -96t30.5 -101l-7 -48q-4 -35 -7 -68.5t-7 -68.5l-4 -45q-12 -111 -22.5 -181.5t-26 -118.5 t-43 -80.5t-71.5 -66.5t-111.5 -76t-165.5 -110q-8 -6 -36 -30.5t-58.5 -53t-57.5 -52t-33 -27.5l-11 -3q-11 -4 -19 -6q-29 -8 -77 -5t-103.5 15.5t-111 31t-99.5 41t-70.5 46t-24.5 43.5zM741 424q-2 -18 20.5 -21.5t45.5 0.5l55 500q4 20 -16.5 44t-38.5 34z" />
<glyph unicode="1" horiz-adv-x="724" d="M297 944q0 12 13.5 30.5t50 56.5t102 101.5t170.5 165.5q94 -43 159.5 -94t96.5 -108l2 -6q2 -7 2 -13q-4 -33 -23.5 -56.5t-42 -50t-43 -60t-26.5 -87.5q-2 -23 -4 -78t-4 -117.5t-3.5 -117.5t1.5 -76q113 45 102 -47q-6 -33 -50 -91t-100.5 -116.5t-113 -104.5 t-84.5 -52q-25 -6 -58.5 14t-65.5 52t-52.5 69t-16.5 63l76 649q-6 -2 -18.5 -1t-24.5 4.5t-23.5 6.5t-15.5 7q0 2 -4 25.5t-2 31.5z" />
<glyph unicode="2" horiz-adv-x="931" d="M197 162l18 258l533 479l-37 51q-14 -20 -31.5 -56t-40.5 -72t-51.5 -65.5t-61.5 -37.5q-25 -6 -70.5 -4t-91 14t-78 34.5t-28.5 57.5q0 2 3 11l3 10q8 6 30.5 44t48.5 84t48.5 88t28.5 54q4 2 17.5 25.5t30.5 51.5t37.5 51.5t39.5 27.5q6 2 9 1t9 1q25 -6 84.5 -13.5 t127 -14.5t129 -13t85.5 -10q23 -4 48.5 -11.5t47 -20.5t36 -32.5t12.5 -46.5l-23 -172l-350 -352q23 20 45 22q23 6 68 3t90 -15t78.5 -33.5t31.5 -52.5q0 -8 -2 -12l-2 -7q-4 -12 -24.5 -51t-46 -83t-49 -83t-36.5 -53q-4 -4 -17 -27.5t-31.5 -51t-39 -51t-39.5 -28.5 q-4 -2 -10 -2q-4 0 -8 -2q-25 4 -85 1t-128 -7t-128 -7t-85 1q-18 2 -45 11.5t-49.5 24.5t-38.5 35.5t-12 45.5zM514 326l107 -4q8 8 19 35.5t22.5 60.5t23.5 64.5t27 52.5z" />
<glyph unicode="3" horiz-adv-x="974" d="M193 252q4 23 16 44t45 30q25 6 45 6q23 0 44.5 -1t44 0t48.5 7q23 6 55.5 18.5t66.5 31t63.5 41t48.5 46.5q-59 -4 -130 -1t-131.5 9t-100.5 12.5t-34 10.5l340 231l99 -20l28 237q-12 -18 -25.5 -39.5t-29.5 -42t-39.5 -38t-56.5 -25.5q-25 -6 -72 -8t-93 5t-79 26.5 t-29 54.5q0 4 5 12l2 6q10 10 24 40t29.5 63.5t29 64.5t23.5 45q8 4 21.5 26.5t31 48.5t38 49.5t42.5 29.5q2 0 8.5 1t8.5 1q27 -4 91 -9t137 -11.5t137.5 -11.5t90.5 -7q20 -4 49 -12.5t53.5 -21.5t39 -32.5t10.5 -46.5l-74 -647q-6 -51 -59.5 -121.5t-124 -138.5 t-145 -119t-119.5 -63q-8 -2 -19.5 -3t-13.5 -3q-23 6 -77 26.5t-115.5 44t-115 46t-73.5 32.5q-43 16 -53.5 25.5t-5.5 50.5z" />
<glyph unicode="4" horiz-adv-x="978" d="M211 465l57 489q2 10 20.5 43t45 69t57.5 66.5t55 36.5q20 6 60.5 -2t79.5 -20t68.5 -23.5t33.5 -11.5q41 63 96.5 103t130.5 81l230 -41q20 -2 8 -29.5t-36.5 -69.5t-51.5 -92t-33 -99q-6 -53 12.5 -88t43 -66t44 -64.5t13.5 -84.5l-4 -31q-4 -25 -18.5 -45.5 t-49.5 -28.5q-12 -4 -20.5 -1t-15.5 7t-17 8t-27 0q-6 -2 -17.5 -6t-17.5 -6q-6 -25 -14 -69t-20.5 -98t-31 -111.5t-42 -105.5t-54 -83t-67.5 -43q-20 -4 -29.5 -2t-12.5 10.5t-4 23.5t-7 40q-2 6 -8 37.5t-13.5 68.5t-13.5 70t-8 43q-4 4 -37 12t-80 19.5t-101.5 24 t-100.5 24.5t-75.5 23.5t-27.5 21.5zM567 631l74 76l33 262l-33 20l-37 -37z" />
<glyph unicode="5" horiz-adv-x="978" d="M195 117q2 18 44 43.5t94 51.5t104 45t77 26q37 8 61.5 3t43 -17.5t32 -26t23.5 -19.5l26 230q0 12 -12 16t-33 10q-31 -18 -94 -27.5t-133 -33.5q-84 -29 -123 -12q-4 -4 -12 -5q-8 0 -10 -2q-33 -8 -43.5 -0.5t-8.5 21.5q6 59 21.5 136t21.5 175q6 53 7 76 q0 25 -2.5 41t-4.5 36.5t2 69.5q59 63 140.5 128t163.5 120t154.5 93t115.5 48q-2 -10 -8 -18l8 2q18 -16 62 -39.5t92.5 -55.5t90.5 -72t56 -85l1 -3t-1 -11q-27 -6 -18.5 -10t14.5 -4l-70 -50l-24.5 -24.5l-16.5 -16.5l-409 -14l-41 -280q-10 -10 4 -23q47 29 84 48.5 t57 29.5q2 0 14.5 4t16.5 4q47 12 115.5 11t130 -13t104.5 -32.5t39 -47.5l-41 -344q-2 -14 -21.5 -31.5t-47 -35t-57.5 -33t-52 -23.5q-29 -10 -98.5 -37.5t-146.5 -58.5t-145.5 -59.5t-95.5 -40.5q-8 0 -16 -7q-18 -4 -36.5 0t-34 12.5t-26.5 16.5t-14 12q-6 4 -24.5 17.5 t-37.5 30t-36.5 29.5t-21.5 18z" />
<glyph unicode="6" horiz-adv-x="1007" d="M190 242q-4 -37 28 -68t83 -55.5t114.5 -42t127 -26.5t117.5 -10t85 7l21 4q6 6 18.5 13.5t22.5 14.5t19 13l10 6l278 398q-2 2 2 17t4 26q6 51 -25.5 77.5t-81.5 41t-109.5 20.5t-111 17.5t-83 34t-27.5 67.5q4 33 33.5 65.5t69.5 60t82 47t73 25.5q27 8 53 9 q39 0 71 -2.5t79 8.5q33 8 51 23.5t23 43.5q2 16 -26 41t-72 52.5t-99 55t-107.5 48t-97.5 31t-67 4.5q-68 -16 -151 -75.5t-156.5 -136.5t-126 -158t-60.5 -142zM604 373l23 215q4 0 25.5 -4t46 -12.5t24.5 -20.5q0 -2 -16.5 -28.5t-26.5 -41.5q-4 -4 -16.5 -20.5 t-24.5 -34.5t-22.5 -33.5t-12.5 -19.5z" />
<glyph unicode="7" horiz-adv-x="991" d="M258 831l61 -18q10 -4 22.5 -12t10.5 -10l432 192l-77 -674q-43 -4 -58.5 -27.5t-19.5 -52.5q-2 -8 -3 -18t3 -12l131 -150q33 -27 68.5 -3t78.5 71t92.5 106.5t106.5 106.5q0 4 -1 9l-1 5q-4 6 -11.5 18.5t-15.5 24.5t-16 23.5t-14 15.5l40 346q12 109 31 201t41 196 q-49 37 -119.5 65t-144.5 45t-141.5 21.5t-110.5 -6.5q-4 -10 4 -14l-6 -2q-23 -23 -76 -71t-113.5 -107.5t-114.5 -123t-75 -116.5l-3 -4t-1 -12q12 2 14 2q4 0 2 -3t-7 -6t-9 -6z" />
<glyph unicode="8" horiz-adv-x="931" d="M197 295q4 31 33.5 75t67.5 86t77 72.5t61.5 36.5t38.5 -2l-215 166l19 172q4 27 22 53.5t44 51t55.5 46t54.5 38.5q29 16 94 53t138 78t137.5 78.5t93.5 56.5q8 2 11 4t9 4q20 4 35.5 -12.5t26 -37t18.5 -37.5t12 -17q4 -10 17.5 -43t30 -69t31.5 -64.5t24 -30.5v-21 q-4 -31 -27 -71.5t-54.5 -82.5t-68.5 -78t-70 -55l170 -114l-41 -264q-4 -27 -25.5 -55.5t-50 -55.5t-57 -49.5t-49.5 -36.5q-29 -16 -91 -43t-132 -55.5t-133 -56.5t-90 -44q-8 -2 -11.5 -3t-11.5 -3q-16 -4 -32.5 10.5t-30 34t-22.5 36.5t-9 22q-8 8 -24.5 37.5t-33 64.5 t-28.5 65.5t-12 40.5l-1 6q-1 7 -1 13zM594 834l139 -60q-18 47 -27.5 98.5t-21.5 71.5zM630 339q-3 -11 1 -13l112 55l-77 59q-6 -18 -13.5 -37.5t-13.5 -36t-9 -27.5z" />
<glyph unicode="9" horiz-adv-x="1007" d="M193 260q-2 -16 24.5 -41.5t70.5 -53.5t98 -55.5t106.5 -47t97.5 -29.5t69 -4q45 10 97.5 40.5t105.5 74.5t103.5 96.5t90.5 105.5t66.5 103.5t30.5 91.5l64 555q4 35 -27 65.5t-82 55t-115.5 42t-127 27.5t-117.5 11t-86 -7l-19 -4q-16 -10 -42 -27.5t-30 -19.5 l-276 -397q0 -2 -5 -18.5t-5 -26.5q-6 -51 26.5 -77t82.5 -40t110.5 -20.5t111 -18.5t82 -33.5t27.5 -66.5q-4 -33 -33.5 -66t-69.5 -60.5t-82 -47t-71 -25.5q-27 -8 -55 -8q-35 0 -69 2t-81 -8q-33 -8 -50 -23.5t-21 -44.5zM684 786q2 2 16.5 29t24.5 41q2 6 13.5 22.5 t24.5 34t25.5 33t16.5 19.5l-25 -215l-15 2t-33.5 6t-33 11t-14.5 17z" />
<glyph unicode=":" horiz-adv-x="464" d="M166 160q-4 -33 10 -61.5t41 -49t61.5 -29t71.5 2.5q33 8 66 28.5t59.5 47t43 58t20.5 62.5q10 104 -39 138t-172 20q-27 -25 -54.5 -49.5t-50 -52t-39 -56.5t-18.5 -59zM250 897q-4 -33 11 -61.5t42 -48t61.5 -27.5t71.5 0q35 8 67 28.5t58.5 47t44 58.5t21.5 64 q10 100 -41 136t-174 22q-25 -25 -52.5 -50.5t-51 -53t-40 -56t-18.5 -59.5z" />
<glyph unicode=";" horiz-adv-x="520" d="M78 -289q74 18 155.5 59.5t152.5 101.5t121 137t60 169q4 37 4 62q0 27 -6 48t-19 39.5t-38 43.5h-105q-96 -29 -163.5 -86.5t-96.5 -145.5q-2 -37 12.5 -64.5t37 -47t48 -32.5t48.5 -22q-115 -84 -160 -146.5t-51 -115.5zM215 885q-6 -35 9.5 -63.5t42 -49t61 -28 t71.5 3.5q33 8 66 28.5t59.5 47t43 58t20.5 62.5q10 104 -39 138t-172 20q-27 -25 -54.5 -50.5t-50 -52t-39 -55.5t-18.5 -59z" />
<glyph unicode="&#x3c;" horiz-adv-x="673" d="M246 614l473 619q6 8 32.5 -23.5t53 -77t43 -89.5t0.5 -60q-18 -23 -61.5 -69t-90.5 -95t-88 -91t-55 -54l276 -164l-241 -317q-4 -6 -33 20.5t-70 69.5t-86 96t-81.5 101t-58 85t-13.5 49z" />
<glyph unicode="=" horiz-adv-x="970" d="M256 520l369 205l372 -25l5 -3q6 -3 -3 -7q-14 -20 -32.5 -35.5t-43 -31t-55 -34t-69.5 -42.5q-8 -8 -54.5 -14.5t-110 -11.5t-134 -7t-125.5 -2t-91 2t-28 6zM463 838l368 204l373 -24l4 -2q4 -2 0 -6q-14 -20 -32.5 -36t-43 -31t-56.5 -33.5t-70 -45.5 q-12 -8 -58.5 -14t-108 -10t-131 -6.5t-126.5 -2.5q-55 0 -91 1.5t-28 5.5z" />
<glyph unicode="&#x3e;" horiz-adv-x="673" d="M217 360l176 -215q4 -4 42 38t91.5 107.5t112.5 144.5t109.5 148.5t82 120t25.5 58.5l-352 418q-4 4 -22.5 -17.5t-43 -56.5t-51.5 -77t-47.5 -79t-30.5 -64.5t-2 -33.5q14 -14 49 -42t74 -56.5t72 -52t45 -29.5z" />
<glyph unicode="?" horiz-adv-x="909" d="M217 111q8 59 58.5 114.5t101.5 102.5q127 16 176 -19t39 -139q-4 -31 -20.5 -62.5t-43 -58t-59.5 -47t-66 -29.5q-37 -10 -71.5 -1.5t-62 28.5t-42 49t-10.5 62zM262 606l359 322q-18 -18 -48 -25q-23 -6 -68.5 -4t-91.5 14.5t-79 35t-29 57.5l4 12l2 8q8 8 32 46 t49.5 84t48 87t28.5 53q2 2 15.5 26t30.5 51.5t37.5 52t39.5 28.5q6 2 9 0t11 0q25 -6 84.5 -13t127 -13.5t128 -12.5t84.5 -10q23 -4 50.5 -12.5t49 -21.5t35 -32.5t9.5 -46.5l-21 -172l-205 -211q-14 -16 -42.5 -39.5t-62.5 -51t-69 -55.5t-62.5 -49.5t-44 -35.5 t-14.5 -14l-231 -222zM633 940l162 143l-35 52q-8 -16 -22.5 -41t-31 -52.5t-36 -54t-37.5 -47.5z" />
<glyph unicode="@" horiz-adv-x="1052" d="M199 164l77 645q-10 20 2.5 50t36 60.5t51 57.5t46.5 45q16 14 50 43t78 63.5t92 74.5t92 75t78 62.5t50 39.5q4 2 8 6.5t6 4.5l172 14q23 6 19 -4q-2 -6 -11.5 -15.5l-18.5 -18.5t-14 -16.5t-1 -4.5q10 -8 52 -19.5t89 -24t88 -23.5t49 -17l2 -4q2 -5 8 -9 q4 -20 3.5 -38.5t-9.5 -34.5q-8 -23 -19 -46.5t-19.5 -51t-10.5 -60.5t8 -72q8 -31 -1 -64.5t-30.5 -65.5t-55 -60.5t-72.5 -48.5q-39 -18 -86 -25.5t-89 -1.5t-73 24.5t-37 49.5q-12 41 10.5 89t61.5 97q-51 6 -92 14.5t-58 16.5l-125 -465q8 -27 44 -45.5t82 -27.5t93 -8 t76 13q53 29 92 63t90 62q35 14 47.5 4t16.5 -30q6 -16 7 -26.5t-5 -22t-17.5 -25.5t-27.5 -37q-18 -25 -74.5 -71t-120 -97t-120 -94t-76.5 -62l-9 -8q-10 -8 -20 -12q-45 -23 -122 -28t-153.5 5.5t-137 37t-72.5 67.5z" />
<glyph unicode="A" horiz-adv-x="1097" d="M213 395q-6 -54 -6 -102q0 -58 9 -108q17 -91 103 -154q18 -14 38 -25.5t53 -3.5q35 8 76.5 50t81.5 90t75 89t59 48q12 2 32 -26t46 -59q26 -32 60 -56q24 -16 51 -16q12 0 24 3l29 6q14 16 49 51l74 74t74 75t51 54q25 23 35 29t14 16q4 12 4 21q2 16 -15.5 37.5 t-23.5 21.5q-20 -4 -29.5 -14.5t-27.5 -14.5q-16 -4 -23.5 10.5t-9.5 35t-1 39t1 24.5l2 16l8 86l4 33l9 78q8 63 15 112.5t26 116.5q12 14 29.5 25.5t32.5 23t27.5 25.5t14.5 35q2 33 -20.5 48t-53 21.5t-63.5 9.5t-51 13q-31 10 -54.5 28.5t-47 35t-48 25.5t-55.5 1 q-41 -10 -65.5 -32.5t-65.5 -51.5q-72 -49 -151 -96t-149.5 -101.5t-125.5 -121t-76 -154.5l-6 -39q-4 -35 -7 -65.5t-7 -65.5l-7 -41zM627 365q-1 18 0 36q0 36 2 69q4 50 10 97l25 209l4 37l12 94l2 17l16 57h4l9 2q10 -2 18 -15.5t19 -21.5l24 -12l-59 -496 q0 -6 -8.5 -18t-18.5 -24.5t-20.5 -24t-14.5 -17.5l-6 -2l-6 -2q-12 3 -12 15z" />
<glyph unicode="B" horiz-adv-x="1034" d="M244 198q-2 5 0 9q0 4 3 10l3 6q4 6 14 17.5t20.5 22.5t20.5 21.5t17 16.5l86 741q2 23 -6.5 61t-21.5 76t-25.5 70.5t-14.5 44.5l37 41q4 -6 16.5 -16t26.5 -21.5t27.5 -20.5t19.5 -11l7 1t11 3q4 0 11 3l6 3l110 86q98 74 200.5 111.5t217.5 78.5q20 -23 25.5 -39 t1.5 -45q-6 -31 -40 -46t-75 -42.5t-79 -85t-50 -170.5l-2 -26q-4 -18 -5 -41t-3 -41l-4 -29q31 18 64.5 47t69.5 58.5t69.5 52t64.5 29.5q23 6 57.5 -14.5t65.5 -52.5q30 -31 52 -67q18 -30 19 -53q0 -4 -1 -8l-52 -463l-5 -11q-5 -11 -12 -28.5t-14.5 -35t-13.5 -25.5 q-12 -18 -25.5 -44t-17.5 -28l-497 -330q-8 -6 -37 0t-68 21.5t-83 36t-83 42t-67.5 43t-38.5 36.5zM731 399l62 -43l57 500q-18 -4 -44 -19.5t-28 -33.5z" />
<glyph unicode="C" horiz-adv-x="974" d="M193 252l77 647q2 27 21.5 54.5t48.5 53t60.5 48t56.5 39.5q20 10 59 30.5t87 47t101.5 56t101.5 56.5t87 48.5t57 31.5q4 2 8.5 3t10.5 3q20 4 36.5 -10t30 -33.5t22.5 -36t15 -16.5q6 -12 21.5 -44t32 -67t32 -64.5t21.5 -37.5l1 -6t-1 -11q-4 -35 -46 -75.5 t-96.5 -76.5t-107.5 -61.5t-76 -31.5q-37 -10 -60.5 7t-41 44t-28.5 54.5t-19 39.5l-52 -430q-4 -33 20.5 -50.5t61.5 -23.5q28 -4 57 -4h19q39 2 66 8q53 12 98 40t92 38q33 8 42 -8t5 -39q-2 -18 -6 -33q-8 -20 -23.5 -33.5t-52.5 -43.5q-27 -20 -88 -70.5t-130 -106 t-130 -103.5t-88 -67q-2 0 -13.5 -4t-19.5 -6q-19 -5 -41 -5q-32 1 -72 11q-66 18 -125 54t-99 86q-34 42 -34 83q0 8 1 15z" />
<glyph unicode="D" horiz-adv-x="970" d="M201 162q2 10 13 25.5t25.5 32t30 30.5t25.5 24l63 539l222 53q-47 14 -86 36t-68 50.5t-42 68.5q-9 27 -9 62q0 16 2 33q8 80 47 136.5t96.5 95t128 64.5t144.5 44q-4 -35 -23.5 -61.5t-43.5 -47t-44 -37t-23 -34.5q0 -2 1.5 -6t1.5 -6q23 -4 78 -16.5t116.5 -26 t115.5 -26.5t75 -19q20 -4 46.5 -22.5t49 -44.5t37 -54.5t12.5 -53.5l-64 -555q-4 -20 -40.5 -59t-93 -85t-122 -96t-125 -91t-105.5 -70t-62 -33q-10 -2 -43 7.5t-75 23.5t-88 32.5t-85 36t-63.5 31t-24.5 19.5zM692 399l62 -45l53 463l-62 45z" />
<glyph unicode="E" horiz-adv-x="1007" d="M201 309l63 555q2 35 42 83t100.5 99.5t133 101.5t141.5 92t127 71t89 37l18 4q12 -4 38 -8.5t28 -6.5l199 -282l-4 -43q-6 -51 -45 -94.5t-95.5 -83t-122 -76.5t-122 -75t-95.5 -77t-43 -84q-4 -25 9.5 -42t36 -27.5t50 -15.5t56.5 -5q41 0 72 8q47 12 80.5 30.5 t72.5 35.5q20 10 43 17t39 7q18 0 29.5 -8t9.5 -28q-2 -16 -38 -57.5t-89 -92.5t-117.5 -107.5t-125 -103.5t-110.5 -81t-75 -40q-29 -7 -59 -7q-39 1 -81 13q-72 22 -132 66t-96 104q-29 49 -28 99q0 11 1 22zM643 717l17 9q16 9 35.5 22.5t37 29t19.5 25.5q2 2 -8.5 22.5 t-18.5 30.5q-4 2 -13.5 12.5t-18.5 23.5t-16 24.5t-7 15.5z" />
<glyph unicode="F" horiz-adv-x="819" d="M213 182q0 4 11.5 20.5t25.5 36t26.5 35t16.5 17.5l49 432q-43 8 -53 24.5t-6 51.5q2 31 17 60.5t31.5 59t32 60.5t21.5 65q3 18 3 34q0 22 -5 43q-8 36 -19 71q-10 36 -17 70q-4 19 -4 39q0 18 3 36q24 6 45 6q59 0 86 -49q82 70 149.5 113t135 71.5t145.5 50t180 46.5 q-6 -47 -25.5 -84t-74.5 -72q47 -23 69 -59q18 -30 18 -72q0 -8 -1 -16q-12 -106 -131 -137q-41 -10 -67.5 -13.5t-55.5 17.5l-6 -62q59 10 98 14.5t63 -3.5q22 -6 30 -30q4 -13 5 -34q0 -16 -3 -37q0 -10 -6.5 -37.5t-6.5 -38.5q-10 -2 -38.5 -13t-61.5 -24.5t-64.5 -25.5 t-46.5 -19q-8 -4 -20 -17t-14 -21l-48 -400q0 -4 11.5 -14t19.5 -10l21 6q41 8 72.5 34.5t80.5 38.5l-8 -69l-336 -350l-67 -17q-2 0 -34 12.5t-74 31t-84 39t-62 36.5q-10 4 -20.5 24.5t-6.5 28.5z" />
<glyph unicode="G" horiz-adv-x="1007" d="M174 -14q4 43 13.5 74.5t29 56t51 41t80.5 28.5q37 8 65 8q21 0 37 -4q39 -10 59.5 -37.5t24.5 -69.5q2 -16 2 -34q0 -26 -4 -55q31 6 69 18.5t72 34t59.5 50t31.5 69.5q2 6 1 15t1 16q-6 12 -22.5 41.5t-34 64.5t-31.5 64.5t-21 42.5l-18 -4l-16 -5q-59 -35 -93 -60.5 t-60 -43.5t-51.5 -31.5t-66.5 -23.5q-16 -4 -32 -4q-17 0 -34 5q-30 9 -52.5 30.5t-34 51t-6.5 62.5l67 586q0 8 34 36.5t84 68.5t110.5 83t115.5 81t99.5 64.5t62.5 30.5q6 2 18.5 4t14.5 2q18 -6 68.5 -23t106.5 -37.5t106 -38t71 -23.5q4 -6 14.5 -11.5t12.5 -13.5 q0 -2 1 -9t-1 -16l-4 -6q-4 -6 -14.5 -22.5t-23 -33.5t-23.5 -31.5t-17 -20.5l-56 -494q25 -29 42.5 -51.5t26.5 -46t11 -48t-2 -57.5q-12 -98 -68.5 -179t-138.5 -143.5t-179 -105.5t-189 -65q-66 -16 -135 -27q-38 -5 -73 -5q-27 0 -51 3q-55 8 -88 42q-24 26 -24 74 q0 15 2 32zM573 532q18 4 44 19.5t28 34.5l47 401l-63 17z" />
<glyph unicode="H" horiz-adv-x="991" d="M231 266q4 23 10.5 40.5t45.5 39.5l82 703q-29 49 -49 121q-13 47 -12 96q0 25 3 51q16 4 30 4q25 -1 39 -13q22 -18 50 -38q51 55 93 92t84 61.5t90 42t114 33.5l27 6q23 6 42 10.5t42 8.5l28 8q10 -4 17.5 -10t13.5 -17v-22l-4 -8v-9q-74 -27 -117 -61.5t-65.5 -75.5 t-31.5 -88t-15 -100q-4 -20 -5.5 -56t-1.5 -51l248 197q16 13 31 13q14 0 28 -12q28 -24 50 -64t36.5 -82t16.5 -50q0 -16 3 -47t7 -61.5t6 -56t2 -33.5q-4 -39 -18 -114t-30.5 -155t-31 -146.5t-18.5 -86.5q-27 -80 -87 -168t-138 -166t-168 -137.5t-176 -79.5 q-33 -8 -60.5 -11.5t-35.5 23.5q55 63 101 102.5t83 74t60.5 79.5t33.5 123v19q0 14 1 29.5t1 27.5v20q-23 -14 -52.5 -38.5t-61 -49t-60.5 -43t-49 -22.5q-18 -4 -59.5 6t-81 30.5t-67.5 48.5q-25 25 -25 54q0 4 1 8zM672 438l45 8l53 461l-49 -49z" />
<glyph unicode="I" horiz-adv-x="724" d="M287 811l262 274q-23 6 -38 29t-24.5 52.5t-12.5 59t-1 50.5q4 31 20.5 62.5t43 58t58.5 47t67 29.5q19 4 38 4q18 1 34 -3q34 -8 61.5 -27.5t43 -48t11.5 -61.5q-4 -31 -20.5 -60.5t-40 -57t-50 -52t-51.5 -49.5l211 -157l1 -7q1 -6 1 -10q-2 -29 -20.5 -50.5t-41 -45 t-43 -54t-24.5 -75.5q-2 -18 -4 -66.5t-3 -101.5t-1 -100q0 -45 4 -64q41 17 66 17q36 0 35 -36q0 -7 -1 -16q-2 -27 -44 -78t-99 -103t-113.5 -94t-85.5 -50q-25 -6 -59.5 10t-65 44t-51 57.5t-18.5 51.5l63 558q-6 -2 -18 -1t-24.5 2t-24 4t-15.5 5q-14 8 -25.5 25.5 t-0.5 27.5z" />
<glyph unicode="J" horiz-adv-x="991" d="M227 231l1 3q1 4 -1 12q14 4 16.5 7t-0.5 4t-7 2l-5 1l70 49q10 10 24.5 23.5t16.5 17.5l410 15l77 671q-45 -16 -56 1.5t-7 45.5q2 6 3 17.5t5 15.5l191 207q-4 8 -12.5 33.5t-16.5 54.5t-13 55.5t-5 34.5q0 27 21.5 55.5t51 54t61 44t52.5 22.5q29 6 51.5 -5 t36.5 -31.5t20.5 -47t4.5 -49.5q2 -10 -1 -22l-4 -11q-8 -10 -29.5 -33.5t-45 -50t-44 -49t-26.5 -30.5q-2 -2 27.5 -23.5t64.5 -46.5t63.5 -45.5t24.5 -20.5q0 -2 -1 -8l-1 -6q-6 -8 -17 -24.5t-23.5 -35t-24 -33.5t-17.5 -22l-8 -71l-27 -209l-4 -64q-14 -111 -17 -199.5 t-3 -187.5q-59 -63 -141 -127.5t-164 -120t-155 -93.5t-116 -48q0 10 9 17l-9 -3q-16 12 -62 37t-96.5 58.5t-92 74.5t-50.5 84z" />
<glyph unicode="K" horiz-adv-x="1017" d="M188 252q-1 -5 -1 -10q0 -28 29 -52q34 -28 81 -46.5t95 -26.5q27 -5 47 -5q15 0 26 3q27 6 44 14t32.5 18.5t35 23.5t50.5 30l-217 -408q4 -29 34.5 -25.5t59.5 11.5q82 31 158.5 88t146.5 131t133.5 160t122.5 172q10 14 27.5 55t37 95.5t36.5 114.5q18 59 25 111 q4 30 4 55q0 17 -2 31q-5 34 -32 39q-127 14 -211 20.5t-141 10.5l420 389q-14 25 -45 31q-17 3 -36 3q-16 0 -32 -2q-37 -5 -72.5 -20.5t-58.5 -33.5l-246 -195v19q4 16 4 32t5 33l2 23q6 55 14 102t31.5 87t66.5 74t117 62q-2 8 1 12.5t3 8.5q0 2 -1 10l-1 8 q-4 10 -14.5 17.5t-18.5 7.5q-10 -4 -26.5 -6t-42.5 -8q-20 -6 -38 -8.5t-26 -4.5q-66 -16 -114 -34.5t-90 -44t-84 -62.5t-95 -90q-16 23 -40 40q-15 11 -38 11q-14 0 -32 -4q-3 -24 -3 -48q0 -47 11 -97q16 -74 43 -125l-82 -703q-33 -20 -65.5 -46t-37.5 -48zM627 266 l55 416q41 -46 46 -98q2 -24 2 -47q0 -29 -3 -58l-6 -65q-4 -23 -24.5 -63t-69.5 -85z" />
<glyph unicode="L" horiz-adv-x="722" d="M219 223q6 8 15.5 20.5t20.5 25t22.5 21.5t17.5 13l92 801q2 4 -1 17.5t-7 30.5t-7 35.5t-3 33.5l-23 84v18q0 14 2 20q2 0 17.5 1.5t17.5 -1.5l96 -36l19 4q33 8 85 41.5t117.5 73.5t140 78t154.5 57q-8 -63 -31.5 -92t-48 -44.5t-45 -24.5t-22.5 -34l-115 -999 q25 6 51.5 16t46 14t30.5 -4t7 -41q-2 -8 -5 -19t-3 -14l-293 -249q-6 -6 -16 -13.5t-21.5 -13.5t-21.5 -12t-12 -8q-10 4 -37 17t-57.5 30.5t-57.5 33t-35 23.5q-6 0 -23.5 10t-33.5 24.5t-27.5 32t-5.5 29.5z" />
<glyph unicode="M" horiz-adv-x="1617" d="M227 68l2 14l2 20q10 10 22.5 40t22.5 42l66 586q-10 -2 -28.5 3t-35 17.5t-24.5 29t0 38.5q2 2 14.5 17.5t31.5 38t30 34.5q25 27 62.5 66t73.5 75.5t62 62.5l27 26l68 16l149 -137q2 -6 40 27.5t87 78.5t97 87t69 53l7 4t15 6q2 2 9 0l6 -2l149 -140l3 -1q3 -1 14 1 q25 6 65.5 41t81.5 76t76 79t51 50l7 5q7 5 14 8q2 0 6 -2.5t6 -2.5q14 -6 45 -29.5t64.5 -49t63.5 -49t42 -29.5q8 -8 19.5 -17.5t9.5 -11.5v-18l-2 -17q-4 -14 -19.5 -45t-23.5 -41l-72 -588q10 -8 31.5 -26.5t29.5 -30.5l2 -8q2 -8 0 -10q-2 -27 -38.5 -75t-86 -97.5 t-100.5 -88t-82 -47.5q-20 -4 -53 12.5t-64.5 42t-53 58.5t-19.5 62l80 682q-8 -2 -20.5 1t-31.5 -1q-37 -10 -39 -46l-65 -550q23 -27 28 -48.5t1 -50.5q-6 -39 -37 -85t-72 -88t-85 -72.5t-75 -38.5q-12 -3 -22 -3q-22 0 -40 12q-24 17 -46.5 39.5t-47 40t-59.5 9.5 q-43 -10 -78.5 -42t-68.5 -68t-64.5 -67.5t-66.5 -39.5q-4 -2 -13 -2h-4q-10 4 -45 28.5t-71 49.5q-12 14 -22.5 18t-14.5 8q-14 10 -35 29.5t-27 30.5zM719 291l67 16l72 627l-72 -55z" />
<glyph unicode="N" horiz-adv-x="1361" d="M211 147q2 6 18.5 23.5t35 37t35.5 36t24 20.5l63 557q2 23 -19.5 22t-47 -5t-46 1t-14.5 40q-2 8 1 18t3 12q29 35 69 79t84 89t92 85t91 69l16 4q19 4 36 4q22 0 42 -7q35 -13 63.5 -39t50 -56.5t38.5 -55.5q41 27 90 74t100 95t101.5 87t93.5 49q2 0 8 2l6 1 q2 -2 18.5 -16.5t38 -31t40 -30t24.5 -13.5l127 -59q16 -8 37.5 -25.5t23.5 -19.5q-2 -10 -10 -25.5t-20.5 -32t-25.5 -30.5t-23 -21l-64 -557q39 -2 71 -13q28 -10 27 -43v-9q-4 -10 -4 -19q0 -6 -4 -12q-6 -16 -24.5 -31.5t-53.5 -48.5l-293 -252q-4 0 -14 -6t-20 -10 q-18 -4 -53 8t-69 33.5t-57.5 48.5t-19.5 51l86 740l-49 18l-35 -39l-74 -616q6 -6 15.5 -26.5t11.5 -27.5l-2 -18l-2 -14l-37 -37q-33 -29 -82 -72t-95 -83t-80 -68.5t-36 -28.5l-35 -8l-217 127q-8 4 -19 12t-20.5 18.5t-14.5 21.5t-1 23z" />
<glyph unicode="O" d="M180 186l2 21q4 23 16.5 40t45.5 25l78 678q0 6 33.5 22.5t87 40t117 51.5t124.5 54.5t110.5 49t73.5 36.5q8 4 39 24.5t67 44t66.5 45t40.5 30.5q59 0 104.5 -29t78 -73t52 -96t30.5 -101l-7 -48q-4 -35 -7 -68.5t-7 -68.5l-4 -45q-12 -111 -22.5 -181.5t-26 -118.5 t-43 -80.5t-71.5 -66.5t-111.5 -76t-165.5 -110q-8 -6 -36 -30.5t-58.5 -53t-57.5 -52t-33 -27.5l-11 -3q-11 -4 -19 -6q-21 -6 -52 -6q-12 0 -25 1q-48 3 -103.5 15.5t-111 31t-99.5 41t-70.5 46t-24.5 43.5zM741 424q-2 -18 20.5 -21.5t45.5 0.5l55 500q4 20 -16.5 44 t-38.5 34z" />
<glyph unicode="P" horiz-adv-x="978" d="M190 301l5 37q6 57 34.5 109.5t61.5 104.5t61.5 105.5t36.5 114.5q1 20 1 38q0 32 -4 57q-7 40 -17.5 77t-17.5 75q-4 20 -4 45q0 21 3 46q12 111 68.5 181.5t167.5 97.5q12 2 28.5 7t32 7t25.5 -3t12 -22l-74 -86q70 -10 112 -54t69 -99q2 0 35.5 28.5t78.5 65.5 t89 68.5t67 37.5q25 6 48.5 -15t41.5 -51t29.5 -59.5t11.5 -42.5l-68 -575q0 -10 -34.5 -40t-86 -70t-112 -84t-113.5 -81.5t-89 -66.5t-38 -35q-4 -12 -19.5 -56t-31.5 -93.5t-30.5 -91t-16.5 -50.5q-16 -35 -22.5 -55t-12.5 -32.5t-15 -19.5t-30 -14q-8 -2 -15 -2 q-24 0 -42 21q-22 27 -34.5 73t-18 106.5t-5.5 117.5q0 59 2.5 110t4.5 78q-4 -2 -19 -2q-12 0 -14 -2q-16 -4 -27.5 -13t-23 -19.5t-21.5 -18.5t-22 -10q-33 -8 -42.5 9t-5.5 46zM735 664l62 -52l43 375l-31 25l-37 -41z" />
<glyph unicode="Q" horiz-adv-x="980" d="M196 448q1 56 7 109t10 90q10 90 21.5 149.5t30 101.5t47 72.5t73.5 63.5t109.5 75t154.5 105l109 89l16 4q12 2 29 2q28 0 69 -5q66 -10 134.5 -30.5t119.5 -49.5q50 -27 50 -59q0 -7 -8 -39q-5 -16 -38 -32q-4 -35 -17 -124t-30.5 -189.5t-33 -189.5t-21.5 -124 q-6 -18 -18.5 -65.5t-29.5 -109t-37.5 -129t-43 -123.5t-45.5 -95t-43 -43q-29 -8 -52.5 19.5t-41 73.5t-30.5 104.5t-21.5 113.5t-11.5 100.5t-1 63.5q-8 -2 -18 -2q-39 -10 -67.5 -37t-54.5 -56.5t-52.5 -55t-61.5 -33.5q-32 -8 -58 -8q-27 0 -47 9q-40 17 -61.5 55 t-29.5 90q-7 46 -7 96v13zM573 567q-4 -20 18.5 -22t45.5 2l49 407q0 18 -22.5 21.5t-40.5 -0.5z" />
<glyph unicode="R" horiz-adv-x="1105" d="M223 211l150 156l49 434q2 25 -23.5 26.5t-57.5 2.5t-56.5 9.5t-20.5 43.5q4 25 12.5 40t21.5 29.5t34.5 33t50.5 46.5q18 12 55 47t77 74t76 74t52 47q57 -8 90 -18.5t55.5 -28t45 -42t57.5 -61.5l33 9l264 272q92 -47 118 -124q18 -53 19 -123q0 -32 -4 -66 q-2 -14 -4 -32t-6 -36q-2 -16 -5 -28l-3 -13q-4 -12 -28 -42t-53.5 -61.5t-59 -58t-46.5 -33.5q-2 0 -7 -3t-7 -3q-6 -2 -15 -2h-6l-30 23l-115 151l-35 -39l-55 -462q-4 -16 10 -20.5t32.5 -1.5t37 8t24.5 7q31 6 53.5 21.5t43 34t42 34t50.5 21.5q33 8 43 -7t6 -44 q-2 -8 -5 -18.5t-3 -12.5q-106 -117 -218 -226.5t-231 -213.5q-8 -2 -25.5 -7t-23.5 -8q-8 -2 -49 7.5t-97.5 26t-117 38t-108.5 43t-74.5 42t-12.5 34.5z" />
<glyph unicode="S" horiz-adv-x="931" d="M197 295q0 -6 1 -13l1 -6q0 -10 12 -40.5t28.5 -65.5t33 -64.5t24.5 -37.5q0 -4 9 -21.5t22.5 -37t30 -34t32.5 -10.5q8 2 11.5 3t11.5 3q16 10 53 31t82 46.5t95 53t95 53t81 46t54 30.5q20 14 50 37t58 49.5t48.5 54t24.5 56.5l28 203l-446 241l47 72q8 -14 20.5 -43 t29 -56.5t39 -45t52.5 -8.5q23 6 72 31.5t99.5 60.5t91 74.5t45.5 74.5v21q-8 2 -23.5 30.5t-32 64.5t-30 68.5t-17.5 43.5q-4 2 -11 20t-18.5 38.5t-27 36t-35.5 9.5q-6 -2 -9 -4t-11 -4q-29 -18 -93.5 -56t-137.5 -79t-138.5 -78t-93.5 -53q-25 -16 -54.5 -38t-55.5 -46.5 t-44 -51t-22 -53.5l-19 -172l285 -199q-10 14 -41 5q-23 -6 -72 -33t-100 -61.5t-91 -73.5t-44 -72zM582 504l139 -92l-76 -27q-10 20 -23.5 55t-39.5 64z" />
<glyph unicode="T" horiz-adv-x="815" d="M219 213l17 9q16 9 35.5 23.5t38 30t20.5 25.5l49 430q-45 15 -69 33q-21 15 -22 52q0 6 1 13q-2 8 2 19.5t4 13.5q88 86 154.5 161t124 151.5t111.5 160.5t118 191l80 -41l-45 -373q24 2 60 6q18 2 36 2t34 -2q34 -4 57.5 -20.5t16.5 -55.5q-10 -86 -67 -125.5 t-150 -46.5l-55 -473q12 2 42 15.5t59.5 21.5t51 4t19.5 -35q-2 -23 -28.5 -56.5t-65.5 -73.5t-87 -80.5t-93 -75.5t-83 -61.5t-59 -37.5q-31 18 -79 36t-96 39.5t-85 50t-47 69.5z" />
<glyph unicode="U" horiz-adv-x="1361" d="M213 178v6q0 7 2 13q0 2 2 8l2 6q8 8 35 24.5t35 20.5l41 41l59 534q-25 -6 -50.5 -16t-45 -13t-30.5 6t-7 42q2 25 11 40t23.5 29.5t35 32t49.5 45.5q16 12 53 47t78 75t76.5 74t50.5 46q8 2 18.5 5t18.5 5q18 4 33 4q36 1 64 -21q40 -32 62.5 -84t30.5 -112 q5 -40 5 -71q0 -16 -1 -29q-2 -35 -11 -119t-19 -188q-6 -49 -12.5 -98.5t-10.5 -90.5q-6 -41 -11 -72.5t-7 -48.5l16 9q16 10 35.5 23.5t38 28.5t20.5 26l64 555q-6 6 -14.5 20t-16.5 31.5t-14.5 33t-8.5 21.5l2 16l3 17q96 59 179 131t150 158q10 -6 33 -20.5t51.5 -33 t59 -36t55.5 -29.5q33 -23 48 -32t22.5 -13t8.5 -6t3 -11v-20q-6 -41 -25.5 -69.5t-62.5 -74.5l-66 -552q-2 -18 7.5 -22.5t24.5 -3.5t33.5 5t34 3t24.5 -10t7 -34q-4 -33 -47 -84t-99 -101t-114.5 -90t-93.5 -49q-20 -5 -37 -5q-24 -1 -42 9q-32 16 -60 38t-58 38 q-17 9 -38 10q-17 0 -37 -6q-47 -12 -90.5 -45.5t-85 -71.5t-82.5 -72t-84 -44l-19 -4q-18 10 -64 31.5t-95.5 50t-91.5 65.5t-54 78z" />
<glyph unicode="V" horiz-adv-x="1167" d="M213 229q2 8 20.5 23.5t38 30t34.5 23.5l16 9l61 525q-27 27 -43 49t-26 47q-9 24 -10 54v13q0 26 3 60q12 98 60.5 165.5t121 114t159.5 75t177 50.5q-4 -33 -19 -64.5t-40 -57.5q-26 -24 -58 -40q-29 -14 -64 -14h-9l225 -168l309 238l37 8q2 0 25.5 -14.5t54.5 -36 t59.5 -45t40.5 -39.5q6 -10 16.5 -41t8.5 -45l-68 -586q-10 -72 -67 -126t-132 -98t-152 -82t-124 -79l-145 -125q-6 -6 -17.5 -13t-23.5 -15.5t-22 -13.5l-9 -5q-14 -4 -53 5t-89 28.5t-103.5 44.5t-97.5 50.5t-71.5 51t-23.5 43.5zM801 461l63 -43l68 592 q-18 -4 -44 -19.5t-30 -34.5z" />
<glyph unicode="W" horiz-adv-x="1527" d="M221 100q2 25 7 41.5t14.5 29.5t24 25.5t36.5 28.5l64 541q-55 39 -71 89q-10 29 -10 70q0 30 5 66q31 299 313 367q16 4 40 11t44 7q23 0 37 -11t10 -42q0 -2 -1 -7l-1 -5l-147 -103q25 -10 55.5 -20t61 -24.5t57 -33t45.5 -45.5q70 80 131 138.5t141 79.5q27 6 46 6 q11 -1 19 -3q20 -6 36 -22t36.5 -38.5t67.5 -43.5l7 -1t9 -1q37 8 69 40t64.5 69t67.5 68.5t76 41.5q5 1 11 1q22 0 52 -20q36 -24 70 -63t54 -82q17 -36 17 -64q0 -6 -1 -11l-66 -578q-4 -29 -45 -77t-100.5 -105.5t-130 -116.5t-134 -108.5t-113.5 -82t-67 -36.5 q-21 -5 -41 -5q-29 0 -54 11q-42 18 -84 42q-42 22 -86 40q-24 10 -52 10q-22 0 -47 -6q-6 -2 -16 -6l-11 -4l-225 -232q-6 -2 -18.5 -8t-18.5 -8q-12 -4 -54 19.5t-86 55t-78 64.5t-30 51zM745 297l64 41l68 586l-60 -11zM1233 485q0 -29 22 -28q20 0 41 4l70 594 q-18 -4 -44 -19.5t-30 -44.5z" />
<glyph unicode="X" horiz-adv-x="1042" d="M115 -12q14 123 77.5 223t172.5 201l47 411q6 45 -9.5 53.5t-41 2t-55.5 -18.5t-54 -8q-18 2 -28.5 23.5t-0.5 31.5l305 342l12 4q11 4 19 9q18 4 36 4q23 0 44 -8q37 -14 68.5 -38t58.5 -52.5t45 -49.5l229 256l4 2q5 2 13 6q7 2 13 2q28 0 52 -28q30 -34 49 -82 t30 -100q9 -44 9 -69v-9q-4 -39 -24.5 -78t-50 -72t-66.5 -57.5t-74 -32.5q-23 -6 -41 -6q-30 0 -48 16q-28 26 -46 99l-35 -9l-51 -446q-2 -14 3 -20.5t14.5 -7.5t20.5 1l22 4q47 12 83.5 39t77.5 39l17 4q8 0 17 -10t11 -18l2 -7q2 -6 2 -8q-2 -14 -29.5 -49t-69.5 -80 t-93 -94t-98 -91t-86 -70.5t-56 -32.5q-33 -8 -59.5 -5.5t-53 9t-55 9.5t-61.5 -5q-74 -18 -105.5 -71.5t-35.5 -117.5q-3 -17 -2 -32q0 -38 18 -59q26 -30 68 -39q28 -6 59 -6q17 0 35 2q51 5 92 16q4 0 21.5 5t37 11t38 11t22.5 7q6 45 17 91.5t35 84t58.5 66.5t87.5 41 q29 7 52 7q75 0 75 -79q0 -13 -2 -28q-10 -78 -48 -135.5t-93 -97.5t-122.5 -66.5t-135.5 -42.5q-91 -23 -171 -23h-13q-86 2 -147.5 36t-91.5 104q-21 50 -20 123q0 30 3 63z" />
<glyph unicode="Y" horiz-adv-x="911" d="M188 211q6 47 17.5 91t24 87t23.5 89t17 95q5 35 5 67q0 24 -3 46q-6 53 -14 102.5t-13 99.5q-2 23 -2 47q0 30 3 62q16 125 79.5 220.5t192.5 128.5q41 10 59.5 1.5t34.5 -51.5q-12 -14 -30.5 -28.5t-37 -28.5t-32.5 -27.5t-14 -25.5v-19l151 -133l72 49l182 152l6 2 q6 2 15 4h14l96 -86q23 -10 33 -36.5t14 -49.5l-96 -852q-6 -45 -35.5 -100.5t-76 -112.5t-101.5 -112.5t-111.5 -100.5t-108.5 -75.5t-89 -41.5q-8 -2 -24.5 -6t-34 -6t-31 3.5t-13.5 21.5q66 68 110 115.5t73.5 93t45 95.5t23.5 124q4 4 4 20q0 18 2 37q2 20 4.5 37.5 t0.5 26.5q-12 -12 -44 -40t-67 -59t-66.5 -57.5t-44.5 -36.5l-6 -3t-8 -3q-11 -2 -23 -2q-21 0 -44 7q-37 11 -68 35.5t-50 58.5q-15 28 -15 61q0 7 1 14zM608 395q47 12 72 60l4 37q4 29 10 52t11 52l4 39l14 139q2 16 2 32q0 59 -25 101l-36 -43z" />
<glyph unicode="Z" horiz-adv-x="851" d="M170 36q-5 35 -5 72t5 76l4 39q4 35 11.5 71t9.5 44q0 6 19 38t42 66.5t41 66.5t18 38q2 2 -2 14t-8 26.5t-8 27t-2 16.5q2 2 0 13t-4 20q6 45 46 70.5t87 48t88 52t47 83.5l2 18q-6 14 -14 34.5t-15 18.5l-167 -41q-14 -4 -26.5 15.5t-0.5 37.5q2 6 15.5 20.5t31.5 33 t37.5 36t30.5 27.5q12 12 48 43t76.5 63.5t77.5 63.5t54 43q2 0 13 4t17 6q26 6 47 6q26 0 44 -9q34 -17 50.5 -53t19.5 -85q1 -21 1 -42q0 -28 -2 -56q-4 -49 -11 -91t-9 -67q14 4 35.5 12.5t41.5 12.5q41 8 37 -33v-10l-4 -6l-74 -78l-4 -8q-4 -7 -6 -11q-1 -9 -1 -19 q0 -30 10 -60q12 -40 27 -85t27 -99q7 -32 6 -69q0 -26 -3 -53q-10 -88 -48 -179t-100.5 -170t-149.5 -139.5t-198 -86.5q-56 -14 -101 -14q-32 -1 -60 7q-64 18 -99 64t-45 116zM442 37q-6 -47 15.5 -52t62.5 5q23 6 25 8t-3 6t-13.5 15.5t-4.5 35.5l68 568 q-29 -6 -48.5 -35t-31.5 -64t-18.5 -68.5t-8.5 -47.5z" />
<glyph unicode="[" horiz-adv-x="641" d="M203 172l145 1171q10 23 25.5 57t44.5 56l123 141l8 3q8 4 10 4q2 2 10 2h6l156 -68l60 -14l-80 -162q-23 -37 -36 -75t-18 -77q-23 -137 -49 -290.5t-43 -303.5q-18 -147 -23 -282t12 -233.5t61 -149t122 -27.5q-6 -18 -20.5 -30.5t-32.5 -19.5t-34.5 -10t-24.5 -5 q-57 -14 -133 7t-142.5 67.5t-109.5 108.5t-37 130zM791 1524l6 -2z" />
<glyph unicode="\" horiz-adv-x="868" d="M250 952l2 9q33 139 180 317q121 -53 195.5 -86t117.5 -51.5t60.5 -28.5t23.5 -18q8 -6 9 -33q0 -27 -2 -33q-4 -6 -12.5 -14t-19.5 -16.5t-20.5 -15.5t-15.5 -7l231 -604q8 -23 -1 -69t-27.5 -93t-43 -85t-48.5 -44q-20 -6 -56.5 1t-80.5 22.5t-89 37t-84 46t-66.5 48 t-35.5 41.5q-16 41 2 67t80 28q-6 20 -21.5 74.5t-32 113.5t-33 113.5t-22.5 75.5q-23 49 -50.5 73.5t-55 41t-50 31.5t-32.5 46q-2 0 -2 12z" />
<glyph unicode="]" horiz-adv-x="563" d="M76 -217q0 -18 13 -23.5t31.5 -3.5t36 7.5t23.5 7.5q37 10 89.5 40.5t108.5 75.5t111.5 100.5t101.5 113t76.5 112.5t34.5 100l125 1166q-4 23 -15 49t-34 37l-94 88l-7 -1t-9 -1q-6 -2 -14 -5l-7 -4l-182 -149l-62 -43l41 -133q29 -53 23 -133q-8 -135 -18.5 -282.5 t-26.5 -301.5q-18 -147 -45 -287.5t-68 -253t-98 -187.5t-135 -89zM395 1444l8 6z" />
<glyph unicode="^" horiz-adv-x="1167" d="M145 160q0 -6 1 -19.5t4.5 -27t8.5 -24.5t9 -13q14 -18 44 -42t60.5 -44.5t54 -34.5t25.5 -14l33 8l313 237l224 -168q-39 2 -72 -13t-58.5 -40.5t-42 -58.5t-18.5 -66q88 20 176 50t160 76t121 115t61 167q4 43 3 72.5t-10 54t-25.5 47t-42.5 49.5l63 524q-2 0 13.5 9.5 t36 22.5t38 28.5t21.5 25.5q0 18 -28 43t-71 50.5t-95 51t-101.5 44t-88 29t-55.5 6.5l-10 -5q-10 -6 -22.5 -14t-23.5 -15t-15 -14l-148 -127q-47 -39 -124 -76.5t-151.5 -82.5t-132 -99.5t-65.5 -123.5zM625 299l67 592l62 -43l-58 -494q-2 -23 -27.5 -37t-43.5 -18z" />
<glyph unicode="_" horiz-adv-x="1095" d="M-199 -322q-6 -4 30 0.5t97.5 11.5t143.5 17t170 23.5t175 26t157.5 24.5t120.5 22.5t63 16.5q133 59 215 93t125 73q8 4 1 5l-7 1l-662 -66z" />
<glyph unicode="`" horiz-adv-x="493" d="M645 1712q-4 -4 10.5 -23.5t39 -47t54 -57.5t58.5 -53.5t50.5 -34.5t29.5 -1q57 51 97 83t58 83q6 2 4 7l-2 5l-120 256z" />
<glyph unicode="a" horiz-adv-x="1097" d="M213 395q-6 -54 -6 -102q0 -58 9 -108q17 -91 103 -154q18 -14 38 -25.5t53 -3.5q35 8 76.5 50t81.5 90t75 89t59 48q12 2 32 -26t46 -59q26 -32 60 -56q24 -16 51 -16q12 0 24 3l29 6q14 16 49 51l74 74t74 75t51 54q25 23 35 29t14 16q4 12 4 21q2 16 -15.5 37.5 t-23.5 21.5q-20 -4 -29.5 -14.5t-27.5 -14.5q-16 -4 -23.5 10.5t-9.5 35t-1 39t1 24.5l2 16l8 86l4 33l9 78q8 63 15 112.5t26 116.5q12 14 29.5 25.5t32.5 23t27.5 25.5t14.5 35q2 33 -20.5 48t-53 21.5t-63.5 9.5t-51 13q-31 10 -54.5 28.5t-47 35t-48 25.5t-55.5 1 q-41 -10 -65.5 -32.5t-65.5 -51.5q-72 -49 -151 -96t-149.5 -101.5t-125.5 -121t-76 -154.5l-6 -39q-4 -35 -7 -65.5t-7 -65.5l-7 -41zM627 365q-1 18 0 36q0 36 2 69q4 50 10 97l25 209l4 37l12 94l2 17l16 57h4l9 2q10 -2 18 -15.5t19 -21.5l24 -12l-59 -496 q0 -6 -8.5 -18t-18.5 -24.5t-20.5 -24t-14.5 -17.5l-6 -2l-6 -2q-12 3 -12 15z" />
<glyph unicode="b" horiz-adv-x="1034" d="M244 198q-2 5 0 9q0 4 3 10l3 6q4 6 14 17.5t20.5 22.5t20.5 21.5t17 16.5l86 741q2 23 -6.5 61t-21.5 76t-25.5 70.5t-14.5 44.5l37 41q4 -6 16.5 -16t26.5 -21.5t27.5 -20.5t19.5 -11l7 1t11 3q4 0 11 3l6 3l110 86q98 74 200.5 111.5t217.5 78.5q20 -23 25.5 -39 t1.5 -45q-6 -31 -40 -46t-75 -42.5t-79 -85t-50 -170.5l-2 -26q-4 -18 -5 -41t-3 -41l-4 -29q31 18 64.5 47t69.5 58.5t69.5 52t64.5 29.5q23 6 57.5 -14.5t65.5 -52.5q30 -31 52 -67q18 -30 19 -53q0 -4 -1 -8l-52 -463l-5 -11q-5 -11 -12 -28.5t-14.5 -35t-13.5 -25.5 q-12 -18 -25.5 -44t-17.5 -28l-497 -330q-8 -6 -37 0t-68 21.5t-83 36t-83 42t-67.5 43t-38.5 36.5zM731 399l62 -43l57 500q-18 -4 -44 -19.5t-28 -33.5z" />
<glyph unicode="c" horiz-adv-x="974" d="M193 252l77 647q2 27 21.5 54.5t48.5 53t60.5 48t56.5 39.5q20 10 59 30.5t87 47t101.5 56t101.5 56.5t87 48.5t57 31.5q4 2 8.5 3t10.5 3q20 4 36.5 -10t30 -33.5t22.5 -36t15 -16.5q6 -12 21.5 -44t32 -67t32 -64.5t21.5 -37.5l1 -6t-1 -11q-4 -35 -46 -75.5 t-96.5 -76.5t-107.5 -61.5t-76 -31.5q-37 -10 -60.5 7t-41 44t-28.5 54.5t-19 39.5l-52 -430q-4 -33 20.5 -50.5t61.5 -23.5q28 -4 57 -4h19q39 2 66 8q53 12 98 40t92 38q33 8 42 -8t5 -39q-2 -18 -6 -33q-8 -20 -23.5 -33.5t-52.5 -43.5q-27 -20 -88 -70.5t-130 -106 t-130 -103.5t-88 -67q-2 0 -13.5 -4t-19.5 -6q-19 -5 -41 -5q-32 1 -72 11q-66 18 -125 54t-99 86q-34 42 -34 83q0 8 1 15z" />
<glyph unicode="d" horiz-adv-x="970" d="M201 162q2 10 13 25.5t25.5 32t30 30.5t25.5 24l63 539l222 53q-47 14 -86 36t-68 50.5t-42 68.5q-9 27 -9 62q0 16 2 33q8 80 47 136.5t96.5 95t128 64.5t144.5 44q-4 -35 -23.5 -61.5t-43.5 -47t-44 -37t-23 -34.5q0 -2 1.5 -6t1.5 -6q23 -4 78 -16.5t116.5 -26 t115.5 -26.5t75 -19q20 -4 46.5 -22.5t49 -44.5t37 -54.5t12.5 -53.5l-64 -555q-4 -20 -40.5 -59t-93 -85t-122 -96t-125 -91t-105.5 -70t-62 -33q-10 -2 -43 7.5t-75 23.5t-88 32.5t-85 36t-63.5 31t-24.5 19.5zM692 399l62 -45l53 463l-62 45z" />
<glyph unicode="e" horiz-adv-x="1007" d="M201 309l63 555q2 35 42 83t100.5 99.5t133 101.5t141.5 92t127 71t89 37l18 4q12 -4 38 -8.5t28 -6.5l199 -282l-4 -43q-6 -51 -45 -94.5t-95.5 -83t-122 -76.5t-122 -75t-95.5 -77t-43 -84q-4 -25 9.5 -42t36 -27.5t50 -15.5t56.5 -5q41 0 72 8q47 12 80.5 30.5 t72.5 35.5q20 10 43 17t39 7q18 0 29.5 -8t9.5 -28q-2 -16 -38 -57.5t-89 -92.5t-117.5 -107.5t-125 -103.5t-110.5 -81t-75 -40q-29 -7 -59 -7q-39 1 -81 13q-72 22 -132 66t-96 104q-29 49 -28 99q0 11 1 22zM643 717l17 9q16 9 35.5 22.5t37 29t19.5 25.5q2 2 -8.5 22.5 t-18.5 30.5q-4 2 -13.5 12.5t-18.5 23.5t-16 24.5t-7 15.5z" />
<glyph unicode="f" horiz-adv-x="819" d="M213 182q0 4 11.5 20.5t25.5 36t26.5 35t16.5 17.5l49 432q-43 8 -53 24.5t-6 51.5q2 31 17 60.5t31.5 59t32 60.5t21.5 65q3 18 3 34q0 22 -5 43q-8 36 -18.5 71t-17.5 70q-4 18 -4 39q0 17 3 36q24 6 45 6q59 0 86 -49q82 70 149.5 113t135 71.5t145.5 50t180 46.5 q-6 -47 -25.5 -84t-74.5 -72q47 -23 69 -59q18 -29 18 -72q0 -8 -1 -16q-12 -106 -131 -137q-41 -10 -67.5 -13.5t-55.5 17.5l-6 -62q59 10 98 14.5t62.5 -3t30.5 -30.5q5 -14 5 -34q0 -16 -3 -37q0 -10 -6.5 -37.5t-6.5 -38.5q-10 -2 -38.5 -13t-61.5 -24.5t-64.5 -25.5 t-46.5 -19q-8 -4 -20 -17t-14 -21l-48 -400q0 -4 11.5 -14t19.5 -10l21 6q41 8 72.5 34.5t80.5 38.5l-8 -69l-336 -350l-67 -17q-2 0 -34 12.5t-74 31t-84 39t-62 36.5q-10 4 -20.5 24.5t-6.5 28.5z" />
<glyph unicode="g" horiz-adv-x="1007" d="M174 -14q4 43 13.5 74.5t29 56t51 41t80.5 28.5q37 8 65 8q21 0 37 -4q39 -10 59.5 -37.5t24.5 -69.5q2 -16 2 -34q0 -26 -4 -55q31 6 69 18.5t72 34t59.5 50t31.5 69.5q2 6 1 15t1 16q-6 12 -22.5 41.5t-34 64.5t-31.5 64.5t-21 42.5l-18 -4l-16 -5q-59 -35 -93 -60.5 t-60 -43.5t-51.5 -31.5t-66.5 -23.5q-16 -4 -32 -4q-17 0 -34 5q-30 9 -52.5 30.5t-34 51t-6.5 62.5l67 586q0 8 34 36.5t84 68.5t110.5 83t115.5 81t99.5 64.5t62.5 30.5q6 2 18.5 4t14.5 2q18 -6 68.5 -23t106.5 -37.5t106 -38t71 -23.5q4 -6 14.5 -11.5t12.5 -13.5 q0 -2 1 -9t-1 -16l-4 -6q-4 -6 -14.5 -22.5t-23 -33.5t-23.5 -31.5t-17 -20.5l-56 -494q25 -29 42.5 -51.5t26.5 -46t11 -48t-2 -57.5q-12 -98 -68.5 -179t-138.5 -143.5t-179 -105.5t-189 -65q-66 -16 -135 -27q-38 -5 -73 -5q-27 0 -51 3q-55 8 -88 42q-24 26 -24 74 q0 15 2 32zM573 532q18 4 44 19.5t28 34.5l47 401l-63 17z" />
<glyph unicode="h" horiz-adv-x="991" d="M231 266q4 23 10.5 40.5t45.5 39.5l82 703q-29 49 -49 121q-13 47 -12 96q0 25 3 51q16 4 30 4q25 -1 39 -13q22 -18 50 -38q51 55 93 92t84 61.5t90 42t114 33.5l27 6q23 6 42 10.5t42 8.5l28 8q10 -4 17.5 -10t13.5 -17v-22l-4 -8v-9q-74 -27 -117 -61.5t-65.5 -75.5 t-31.5 -88t-15 -100q-4 -20 -5.5 -56t-1.5 -51l248 197q16 13 31 13q14 0 28 -12q28 -24 50 -64t36.5 -82t16.5 -50q0 -16 3 -47t7 -61.5t6 -56t2 -33.5q-4 -39 -18 -114t-30.5 -155t-31 -146.5t-18.5 -86.5q-27 -80 -87 -168t-138 -166t-168 -137.5t-176 -79.5 q-33 -8 -60.5 -11.5t-35.5 23.5q55 63 101 102.5t83 74t60.5 79.5t33.5 123v19q0 14 1 29.5t1 27.5v20q-23 -14 -52.5 -38.5t-61 -49t-60.5 -43t-49 -22.5q-18 -4 -59.5 6t-81 30.5t-67.5 48.5q-25 25 -25 54q0 4 1 8zM672 438l45 8l53 461l-49 -49z" />
<glyph unicode="i" horiz-adv-x="724" d="M287 811l262 274q-23 6 -38 29t-24.5 52.5t-12.5 59t-1 50.5q4 31 20.5 62.5t43 58t58.5 47t67 29.5q19 4 38 4q18 1 34 -3q34 -8 61.5 -27.5t43 -48t11.5 -61.5q-4 -31 -20.5 -60.5t-40 -57t-50 -52t-51.5 -49.5l211 -157l1 -7q1 -6 1 -10q-2 -29 -20.5 -50.5t-41 -45 t-43 -54t-24.5 -75.5q-2 -18 -4 -66.5t-3 -101.5t-1 -100q0 -45 4 -64q41 17 66 17q36 0 35 -36q0 -7 -1 -16q-2 -27 -44 -78t-99 -103t-113.5 -94t-85.5 -50q-25 -6 -59.5 10t-65 44t-51 57.5t-18.5 51.5l63 558q-6 -2 -18 -1t-24.5 2t-24 4t-15.5 5q-14 8 -25.5 25.5 t-0.5 27.5z" />
<glyph unicode="j" horiz-adv-x="991" d="M227 231l1 3q1 4 -1 12q14 4 16.5 7t-0.5 4t-7 2l-5 1l70 49q10 10 24.5 23.5t16.5 17.5l410 15l77 671q-45 -16 -56 1.5t-7 45.5q2 6 3 17.5t5 15.5l191 207q-4 8 -12.5 33.5t-16.5 54.5t-13 55.5t-5 34.5q0 27 21.5 55.5t51 54t61 44t52.5 22.5q29 6 51.5 -5 t36.5 -31.5t20.5 -47t4.5 -49.5q2 -10 -1 -22l-4 -11q-8 -10 -29.5 -33.5t-45 -50t-44 -49t-26.5 -30.5q-2 -2 27.5 -23.5t64.5 -46.5t63.5 -45.5t24.5 -20.5q0 -2 -1 -8l-1 -6q-6 -8 -17 -24.5t-23.5 -35t-24 -33.5t-17.5 -22l-8 -71l-27 -209l-4 -64q-14 -111 -17 -199.5 t-3 -187.5q-59 -63 -141 -127.5t-164 -120t-155 -93.5t-116 -48q0 10 9 17l-9 -3q-16 12 -62 37t-96.5 58.5t-92 74.5t-50.5 84z" />
<glyph unicode="k" horiz-adv-x="1017" d="M188 252q-1 -5 -1 -10q0 -28 29 -52q34 -28 81 -46.5t95 -26.5q27 -5 47 -5q15 0 26 3q55 14 105.5 32.5t111.5 55.5l-272 -410q4 -29 34.5 -25.5t59.5 11.5q82 31 158.5 88t146.5 131t133.5 160t122.5 172q10 14 27.5 55t37 95.5t36.5 114.5q18 59 25 111q4 30 4 55 q0 17 -2 31q-5 34 -32 39q-127 14 -211 20.5t-141 10.5l420 389q-14 25 -45 31q-17 3 -36 3q-16 0 -32 -2q-37 -5 -72.5 -20.5t-58.5 -33.5l-246 -195v19q4 16 4 32t5 33l2 23q6 55 14 102t31.5 87t66.5 74t117 62q-2 8 1 12.5t3 8.5q0 2 -1 10l-1 8q-4 10 -14.5 17.5 t-18.5 7.5q-10 -4 -26.5 -6t-42.5 -8q-20 -6 -38 -8.5t-26 -4.5q-66 -16 -114 -34.5t-90 -44t-84 -62.5t-95 -90q-16 23 -40 40q-15 11 -38 11q-14 0 -32 -4q-3 -24 -3 -48q0 -47 11 -97q16 -74 43 -125l-82 -703q-33 -20 -65.5 -46t-37.5 -48zM627 266l55 416 q41 -46 46 -98q2 -24 2 -47q0 -29 -3 -58l-6 -65q-4 -23 -24.5 -63t-69.5 -85z" />
<glyph unicode="l" horiz-adv-x="722" d="M219 223q6 8 15.5 20.5t20.5 25t22.5 21.5t17.5 13l92 801q2 4 -1 17.5t-7 30.5t-7 35.5t-3 33.5l-23 84v18q0 14 2 20q2 0 17.5 1.5t17.5 -1.5l96 -36l19 4q33 8 85 41.5t117.5 73.5t140 78t154.5 57q-8 -63 -31.5 -92t-48 -44.5t-45 -24.5t-22.5 -34l-115 -999 q25 6 51.5 16t46 14t30.5 -4t7 -41q-2 -8 -5 -19t-3 -14l-293 -249q-6 -6 -16 -13.5t-21.5 -13.5t-21.5 -12t-12 -8q-10 4 -37 17t-57.5 30.5t-57.5 33t-35 23.5q-6 0 -23.5 10t-33.5 24.5t-27.5 32t-5.5 29.5z" />
<glyph unicode="m" horiz-adv-x="1617" d="M227 68l2 14l2 20q10 10 22.5 40t22.5 42l66 586q-10 -2 -28.5 3t-35 17.5t-24.5 29t0 38.5q2 2 14.5 17.5t31.5 38t30 34.5q25 27 62.5 66t73.5 75.5t62 62.5l27 26l68 16l149 -137q2 -6 40 27.5t87 78.5t97 87t69 53l7 4t15 6q2 2 9 0l6 -2l149 -140l3 -1q3 -1 14 1 q25 6 65.5 41t81.5 76t76 79t51 50l7 5q7 5 14 8q2 0 6 -2.5t6 -2.5q14 -6 45 -29.5t64.5 -49t63.5 -49t42 -29.5q8 -8 19.5 -17.5t9.5 -11.5v-18l-2 -17q-4 -14 -19.5 -45t-23.5 -41l-72 -588q10 -8 31.5 -26.5t29.5 -30.5l2 -8q2 -8 0 -10q-2 -27 -38.5 -75t-86 -97.5 t-100.5 -88t-82 -47.5q-20 -4 -53 12.5t-64.5 42t-53 58.5t-19.5 62l80 682q-8 -2 -20.5 1t-31.5 -1q-37 -10 -39 -46l-65 -550q23 -27 28 -48.5t1 -50.5q-6 -39 -37 -85t-72 -88t-85 -72.5t-75 -38.5q-12 -3 -22 -3q-22 0 -40 12q-24 17 -46.5 39.5t-47 40t-59.5 9.5 q-43 -10 -78.5 -42t-68.5 -68t-64.5 -67.5t-66.5 -39.5q-4 -2 -13 -2h-4q-10 4 -45 28.5t-71 49.5q-12 14 -22.5 18t-14.5 8q-14 10 -35 29.5t-27 30.5zM719 291l67 16l72 627l-72 -55z" />
<glyph unicode="n" horiz-adv-x="1361" d="M211 147q2 6 18.5 23.5t35 37t35.5 36t24 20.5l63 557q2 23 -19.5 22t-47 -5t-46 1t-14.5 40q-2 8 1 18t3 12q29 35 69 79t84 89t92 85t91 69l16 4q19 4 36 4q22 0 42 -7q35 -13 63.5 -39t50 -56.5t38.5 -55.5q41 27 90 74t100 95t101.5 87t93.5 49q2 0 8 2l6 1 q2 -2 18.5 -16.5t38 -31t40 -30t24.5 -13.5l127 -59q16 -8 37.5 -25.5t23.5 -19.5q-2 -10 -10 -25.5t-20.5 -32t-25.5 -30.5t-23 -21l-64 -557q39 -2 71 -13q28 -10 27 -43v-9q-4 -10 -4 -19q0 -6 -4 -12q-6 -16 -24.5 -31.5t-53.5 -48.5l-293 -252q-4 0 -14 -6t-20 -10 q-18 -4 -53 8t-69 33.5t-57.5 48.5t-19.5 51l86 740l-49 18l-35 -39l-74 -616q6 -6 15.5 -26.5t11.5 -27.5l-2 -18l-2 -14l-37 -37q-33 -29 -82 -72t-95 -83t-80 -68.5t-36 -28.5l-35 -8l-217 127q-8 4 -19 12t-20.5 18.5t-14.5 21.5t-1 23z" />
<glyph unicode="o" d="M180 186l2 21q4 23 16.5 40t45.5 25l78 678q0 6 33.5 22.5t87 40t117 51.5t124.5 54.5t110.5 49t73.5 36.5q8 4 39 24.5t67 44t66.5 45t40.5 30.5q59 0 104.5 -29t78 -73t52 -96t30.5 -101l-7 -48q-4 -35 -7 -68.5t-7 -68.5l-4 -45q-12 -111 -22.5 -181.5t-26 -118.5 t-43 -80.5t-71.5 -66.5t-111.5 -76t-165.5 -110q-8 -6 -36 -30.5t-58.5 -53t-57.5 -52t-33 -27.5l-11 -3q-11 -4 -19 -6q-21 -6 -52 -6q-12 0 -25 1q-48 3 -103.5 15.5t-111 31t-99.5 41t-70.5 46t-24.5 43.5zM741 424q-2 -18 20.5 -21.5t45.5 0.5l55 500q4 20 -16.5 44 t-38.5 34z" />
<glyph unicode="p" horiz-adv-x="978" d="M190 301l5 37q6 57 34.5 109.5t61.5 104.5t61.5 105.5t36.5 114.5q1 20 1 38q0 32 -4 57q-7 40 -17.5 77t-17.5 75q-4 20 -4 45q0 22 3 46q12 111 68.5 181.5t167.5 97.5q12 2 28.5 7t32 7t25.5 -3t12 -22l-74 -86q70 -10 112 -54t69 -99q2 0 35.5 28.5t78.5 65.5 t89 68.5t67 37.5q25 6 48.5 -15t41.5 -51t29.5 -59.5t11.5 -42.5l-68 -575q0 -10 -34.5 -40t-86 -70t-112 -84t-113.5 -81.5t-89 -66.5t-38 -35q-4 -12 -19.5 -56t-31.5 -93.5t-30.5 -91t-16.5 -50.5q-16 -35 -22.5 -55t-12.5 -32.5t-15 -19.5t-30 -14q-8 -2 -15 -2 q-25 0 -42 21q-23 27 -35 73t-17.5 106.5t-5.5 117.5q0 59 2.5 110t4.5 78q-4 -2 -19 -2q-12 0 -14 -2q-16 -4 -27.5 -13t-23 -19.5t-21.5 -18.5t-22 -10q-33 -8 -42.5 9t-5.5 46zM735 664l62 -52l43 375l-31 25l-37 -41z" />
<glyph unicode="q" horiz-adv-x="980" d="M196 448q1 56 7 109t10 90q10 90 21.5 149.5t30 101.5t47 72.5t73.5 63.5t109.5 75t154.5 105l109 89l16 4q12 2 29 2q28 0 69 -5q66 -10 134.5 -30.5t119.5 -49.5q50 -27 50 -59q0 -7 -8 -39q-5 -16 -38 -32q-4 -35 -17 -124t-30.5 -189.5t-33 -189.5t-21.5 -124 q-6 -18 -18.5 -65.5t-29.5 -109t-37.5 -129t-43 -123.5t-45.5 -95t-43 -43q-29 -8 -52.5 19.5t-41 73.5t-30.5 104.5t-21.5 113.5t-11.5 100.5t-1 63.5q-8 -2 -18 -2q-39 -10 -67.5 -37t-54.5 -56.5t-52.5 -55t-61.5 -33.5q-32 -8 -58 -8q-27 0 -47 9q-40 17 -61.5 55 t-29.5 90q-7 46 -7 96v13zM573 567q-4 -20 18.5 -22t45.5 2l49 407q0 18 -22.5 21.5t-40.5 -0.5z" />
<glyph unicode="r" horiz-adv-x="1105" d="M223 211l150 156l49 434q2 25 -23.5 26.5t-57.5 2.5t-56.5 9.5t-20.5 43.5q4 25 12.5 40t21.5 29.5t34.5 33t50.5 46.5q18 12 55 47t77 74t76 74t52 47q57 -8 90 -18.5t55.5 -28t45 -42t57.5 -61.5l33 9l264 272q92 -47 118 -124q18 -53 19 -123q0 -32 -4 -66 q-2 -14 -4 -32t-6 -36q-2 -16 -5 -28l-3 -13q-4 -12 -28 -42t-53.5 -61.5t-59 -58t-46.5 -33.5q-2 0 -7 -3t-7 -3q-6 -2 -15 -2h-6l-30 23l-115 151l-35 -39l-55 -462q-4 -16 10 -20.5t32.5 -1.5t37 8t24.5 7q31 6 53.5 21.5t43 34t42 34t50.5 21.5q33 8 43 -7t6 -44 q-2 -8 -5 -18.5t-3 -12.5q-106 -117 -218 -226.5t-231 -213.5q-8 -2 -25.5 -7t-23.5 -8q-8 -2 -49 7.5t-97.5 26t-117 38t-108.5 43t-74.5 42t-12.5 34.5z" />
<glyph unicode="s" horiz-adv-x="931" d="M197 295q0 -6 1 -13l1 -6q0 -10 12 -40.5t28.5 -65.5t33 -64.5t24.5 -37.5q0 -4 9 -21.5t22.5 -37t30 -34t32.5 -10.5q8 2 11.5 3t11.5 3q16 10 53 31t82 46.5t95 53t95 53t81 46t54 30.5q20 14 50 37t58 49.5t48.5 54t24.5 56.5l28 203l-446 241l47 72q8 -14 20.5 -43 t29 -56.5t39 -45t52.5 -8.5q23 6 72 31.5t99.5 60.5t91 74.5t45.5 74.5v21q-8 2 -23.5 30.5t-32 64.5t-30 68.5t-17.5 43.5q-4 2 -11 20t-18.5 38.5t-27 36t-35.5 9.5q-6 -2 -9 -4t-11 -4q-29 -18 -93.5 -56t-137.5 -79t-138.5 -78t-93.5 -53q-25 -16 -54.5 -38t-55.5 -46.5 t-44 -51t-22 -53.5l-19 -172l285 -199q-10 14 -41 5q-23 -6 -72 -33t-100 -61.5t-91 -73.5t-44 -72zM582 504l139 -92l-76 -27q-10 20 -23.5 55t-39.5 64z" />
<glyph unicode="t" horiz-adv-x="815" d="M219 213l17 9q16 9 35.5 23.5t38 30t20.5 25.5l49 430q-45 15 -69 33q-21 15 -22 52q0 6 1 13q-2 8 2 19.5t4 13.5q88 86 154.5 161t124 151.5t111.5 160.5t118 191l80 -41l-45 -373q24 2 60 6q18 2 36 2t34 -2q34 -4 57.5 -20.5t16.5 -55.5q-10 -86 -67 -125.5 t-150 -46.5l-55 -473q12 2 42 15.5t59.5 21.5t51 4t19.5 -35q-2 -23 -28.5 -56.5t-65.5 -73.5t-87 -80.5t-93 -75.5t-83 -61.5t-59 -37.5q-31 18 -79 36t-96 39.5t-85 50t-47 69.5z" />
<glyph unicode="u" horiz-adv-x="1361" d="M213 178v6q0 7 2 13q0 2 2 8l2 6q8 8 35 24.5t35 20.5l41 41l59 534q-25 -6 -50.5 -16t-45 -13t-30.5 6t-7 42q2 25 11 40t23.5 29.5t35 32t49.5 45.5q16 12 53 47t78 75t76.5 74t50.5 46q8 2 18.5 5t18.5 5q18 4 33 4q36 1 64 -21q40 -32 62.5 -84t30.5 -112 q5 -40 5 -71q0 -16 -1 -29q-2 -35 -11 -119t-19 -188q-6 -49 -12.5 -98.5t-10.5 -90.5q-6 -41 -11 -72.5t-7 -48.5l16 9q16 10 35.5 23.5t38 28.5t20.5 26l64 555q-6 6 -14.5 20t-16.5 31.5t-14.5 33t-8.5 21.5l2 16l3 17q96 59 179 131t150 158q10 -6 33 -20.5t51.5 -33 t59 -36t55.5 -29.5q33 -23 48 -32t22.5 -13t8.5 -6t3 -11v-20q-6 -41 -25.5 -69.5t-62.5 -74.5l-66 -552q-2 -18 7.5 -22.5t24.5 -3.5t33.5 5t34 3t24.5 -10t7 -34q-4 -33 -47 -84t-99 -101t-114.5 -90t-93.5 -49q-20 -5 -37 -5q-24 -1 -42 9q-32 16 -60 38t-58 38 q-17 9 -38 10q-17 0 -37 -6q-47 -12 -90.5 -45.5t-85 -71.5t-82.5 -72t-84 -44l-19 -4q-18 10 -64 31.5t-95.5 50t-91.5 65.5t-54 78z" />
<glyph unicode="v" horiz-adv-x="1167" d="M213 229q2 8 20.5 23.5t38 30t34.5 23.5l16 9l61 525q-27 27 -43 49t-26 47q-9 24 -10 54v13q0 26 3 60q12 98 60.5 165.5t121 114t159.5 75t177 50.5q-4 -33 -19 -64.5t-40 -57.5q-26 -24 -58 -40q-29 -14 -64 -14h-9l225 -168l309 238l37 8q2 0 25.5 -14.5t54.5 -36 t59.5 -45t40.5 -39.5q6 -10 16.5 -41t8.5 -45l-68 -586q-10 -72 -67 -126t-132 -98t-152 -82t-124 -79l-145 -125q-6 -6 -17.5 -13t-23.5 -15.5t-22 -13.5l-9 -5q-14 -4 -53 5t-89 28.5t-103.5 44.5t-97.5 50.5t-71.5 51t-23.5 43.5zM801 461l63 -43l68 592 q-18 -4 -44 -19.5t-30 -34.5z" />
<glyph unicode="w" horiz-adv-x="1527" d="M221 100q2 25 7 41.5t14.5 29.5t24 25.5t36.5 28.5l64 541q-55 39 -71 89q-10 29 -10 70q0 30 5 66q31 299 313 367q16 4 40 11t44 7q23 0 37 -11t10 -42q0 -2 -1 -7l-1 -5l-147 -103q25 -10 55.5 -20t61 -24.5t57 -33t45.5 -45.5q70 80 131 138.5t141 79.5q27 6 46 6 q11 -1 19 -3q20 -6 36 -22t36.5 -38.5t67.5 -43.5l7 -1t9 -1q37 8 69 40t64.5 69t67.5 68.5t76 41.5q5 1 11 1q22 0 52 -20q36 -24 70 -63t54 -82q17 -36 17 -64q0 -6 -1 -11l-66 -578q-4 -29 -45 -77t-100.5 -105.5t-130 -116.5t-134 -108.5t-113.5 -82t-67 -36.5 q-21 -5 -41 -5q-29 0 -54 11q-42 18 -84 42q-42 22 -86 40q-24 10 -52 10q-22 0 -47 -6q-6 -2 -16 -6l-11 -4l-225 -232q-6 -2 -18.5 -8t-18.5 -8q-12 -4 -54 19.5t-86 55t-78 64.5t-30 51zM745 297l64 41l68 586l-60 -11zM1233 485q0 -29 22 -28q20 0 41 4l70 594 q-18 -4 -44 -19.5t-30 -44.5z" />
<glyph unicode="x" horiz-adv-x="1042" d="M115 -12q14 123 77.5 223t172.5 201l47 411q6 45 -9.5 53.5t-41 2t-55.5 -18.5t-54 -8q-18 2 -28.5 23.5t-0.5 31.5l305 342l12 4q11 4 19 9q18 4 36 4q23 0 44 -8q37 -14 68.5 -38t58.5 -52.5t45 -49.5l229 256l4 2q5 2 13 6q7 2 13 2q28 0 52 -28q30 -34 49 -82 t30 -100q9 -44 9 -69v-9q-4 -39 -24.5 -78t-50 -72t-66.5 -57.5t-74 -32.5q-23 -6 -41 -6q-30 0 -48 16q-28 26 -46 99l-35 -9l-51 -446q-2 -14 3 -20.5t14.5 -7.5t20.5 1l22 4q47 12 83.5 39t77.5 39l17 4q8 0 17 -10t11 -18l2 -7q2 -6 2 -8q-2 -14 -29.5 -49t-69.5 -80 t-93 -94t-98 -91t-86 -70.5t-56 -32.5q-33 -8 -59.5 -5.5t-53 9t-55 9.5t-61.5 -5q-74 -18 -105.5 -71.5t-35.5 -117.5q-3 -17 -2 -32q0 -38 18 -59q26 -30 68 -39q28 -6 59 -6q17 0 35 2q51 5 92 16q4 0 21.5 5t37 11t38 11t22.5 7q6 45 17 91.5t35 84t58.5 66.5t87.5 41 q29 7 52 7q75 0 75 -79q0 -13 -2 -28q-10 -78 -48 -135.5t-93 -97.5t-122.5 -66.5t-135.5 -42.5q-91 -23 -171 -23h-13q-86 2 -147.5 36t-91.5 104q-21 50 -20 123q0 30 3 63z" />
<glyph unicode="y" horiz-adv-x="911" d="M188 211q6 47 17.5 91t24 87t23.5 89t17 95q5 35 5 67q0 24 -3 46q-6 53 -14 102.5t-13 99.5q-2 23 -2 47q0 30 3 62q16 125 79.5 220.5t192.5 128.5q41 10 59.5 1.5t34.5 -51.5q-12 -14 -30.5 -28.5t-37 -28.5t-32.5 -27.5t-14 -25.5v-19l151 -133l72 49l182 152l6 2 q6 2 15 4h14l96 -86q23 -10 33 -36.5t14 -49.5l-96 -852q-6 -45 -35.5 -100.5t-76 -112.5t-101.5 -112.5t-111.5 -100.5t-108.5 -75.5t-89 -41.5q-8 -2 -24.5 -6t-34 -6t-31 3.5t-13.5 21.5q66 68 110 115.5t73.5 93t45 95.5t23.5 124q4 4 4 20q0 18 2 37q2 20 4.5 37.5 t0.5 26.5q-12 -12 -44 -40t-67 -59t-66.5 -57.5t-44.5 -36.5l-6 -3t-8 -3q-11 -2 -23 -2q-21 0 -44 7q-37 11 -68 35.5t-50 58.5q-15 28 -15 61q0 7 1 14zM608 395q47 12 72 60l4 37q4 29 10 52t11 52l4 39l14 139q2 16 2 32q0 59 -25 101l-36 -43z" />
<glyph unicode="z" horiz-adv-x="851" d="M170 36q-5 35 -5 72t5 76l4 39q4 35 11.5 71t9.5 44q0 6 19 38t42 66.5t41 66.5t18 38q2 2 -2 14t-8 26.5t-8 27t-2 16.5q2 2 0 13t-4 20q6 45 46 70.5t87 48t88 52t47 83.5l2 18q-6 14 -14 34.5t-15 18.5l-167 -41q-14 -4 -26.5 15.5t-0.5 37.5q2 6 15.5 20.5t31.5 33 t37.5 36t30.5 27.5q12 12 48 43t76.5 63.5t77.5 63.5t54 43q2 0 13 4t17 6q26 6 47 6q26 0 44 -9q34 -17 50.5 -53t19.5 -85q1 -21 1 -42q0 -28 -2 -56q-4 -49 -11 -91t-9 -67q14 4 35.5 12.5t41.5 12.5q41 8 37 -33v-10l-4 -6l-74 -78l-4 -8q-4 -7 -6 -11q-1 -9 -1 -19 q0 -30 10 -60q12 -40 27 -85t27 -99q7 -32 6 -69q0 -26 -3 -53q-10 -88 -48 -179t-100.5 -170t-149.5 -139.5t-198 -86.5q-56 -14 -101 -14q-32 -1 -60 7q-64 18 -99 64t-45 116zM442 37q-6 -47 15.5 -52t62.5 5q23 6 25 8t-3 6t-13.5 15.5t-4.5 35.5l68 568 q-29 -6 -48.5 -35t-31.5 -64t-18.5 -68.5t-8.5 -47.5z" />
<glyph unicode="{" horiz-adv-x="563" d="M66 43l98 850q6 45 36.5 100.5t76 112.5t100.5 112.5t111.5 100.5t107.5 75.5t88 41.5q8 2 24.5 6t33 6t30.5 -3.5t16 -21.5q-104 -45 -167.5 -148.5t-100.5 -247.5t-56.5 -321.5t-39.5 -367.5q-4 -41 2 -75t20 -58l43 -133l-63 -43l-182 -150l-8 -4q-7 -4 -11 -4 q-4 -2 -9 -1l-5 1l-98 86q-23 10 -33 38t-14 48zM489 72l9 6z" />
<glyph unicode="|" horiz-adv-x="739" d="M309 133q-4 -33 14.5 -81t49 -92t64.5 -72.5t61 -22.5q31 8 90 63.5t119.5 127t106.5 143t52 114.5q12 111 -104 68q0 27 2 95.5t5 147t7 149.5t8 101q8 68 30 110t46.5 74t44 61.5t23.5 70.5q2 6 0 16l-2 11q-33 72 -99.5 140t-156.5 128q-111 -123 -179.5 -200 t-107.5 -123t-53.5 -68.5t-16.5 -36.5v-19q0 -12 2 -24.5t3 -22.5l1 -10q2 -6 13.5 -11t26 -8.5t28 -4.5t19.5 -1z" />
<glyph unicode="}" horiz-adv-x="563" d="M195 4l8 -4zM203 0l55 -12l158 -68l6 -1t12 1q2 2 10 5l7 3l122 140q27 23 44.5 57.5t29.5 58.5l98 850q8 68 -35.5 130.5t-111.5 107.5t-143.5 66.5t-130.5 9.5q-8 -2 -25.5 -5.5t-35 -10.5t-33 -18.5t-17.5 -29.5q100 4 141 -75t44 -213t-18.5 -311t-45.5 -370 q-8 -80 -55 -151z" />
<glyph unicode="~" horiz-adv-x="1177" d="M240 573q-4 -4 26.5 -13t80.5 -18.5t111.5 -18.5t116 -14t95.5 -4t51 11q47 45 93 84t75 70l155 -84l345 276q4 4 -27 13.5t-81 19.5t-110.5 19.5t-116 13.5t-96 3t-51.5 -11q-49 -47 -82.5 -93.5t-64.5 -81.5l-174 105z" />
<glyph unicode="&#xa1;" horiz-adv-x="724" d="M211 197q-4 -29 28.5 -62t80 -61.5t96.5 -45t78 -10.5q27 6 67.5 41t79.5 80t67.5 89t32.5 69l68 573q2 0 15.5 6.5t27.5 14.5t27.5 16t17.5 13q18 16 33.5 42.5t7.5 30.5l-211 166q25 18 48.5 52t39.5 71t27.5 70.5t11.5 52.5q8 68 -36 102.5t-113 18.5q-37 -8 -77 -34 t-74 -60.5t-56.5 -73.5t-24.5 -74q-6 -35 4 -58.5t28.5 -42t42 -31.5t44.5 -26l-262 -280l-6 -8q-5 -7 -5 -13q-4 -29 11.5 -43t34 -28.5t32 -37t6.5 -71.5q-4 -20 -14 -70.5t-22.5 -106.5t-22.5 -106.5t-12 -70.5q-115 -16 -121 -94z" />
<glyph unicode="&#xa2;" horiz-adv-x="974" d="M211 340l51 448q2 18 22.5 40t47 43.5t57.5 40t55 28.5q2 2 -2 26.5t0 37.5q0 12 10.5 29.5t35 53t67.5 96t113 158.5q55 -55 93 -113.5t60 -117.5q39 18 68.5 30.5t52.5 22.5q2 0 7 3t7 3q20 4 38 -5t31 -21.5t24.5 -22.5t17.5 -10q6 -6 24.5 -26.5t37 -44t35 -43 t20.5 -25.5l1 -3t1 -7q-4 -25 -45 -56t-95.5 -59.5t-107.5 -50t-78 -27.5q-53 -12 -82.5 11.5t-50.5 49.5l-2 -6l-4 -51q-6 -47 -13.5 -119.5t-7.5 -134.5q39 -12 99.5 -7t101.5 15q53 14 95 36t96 34q33 8 41 -3t6 -28q-2 -8 -2 -14q0 -4 -2 -8q-6 -14 -21.5 -24.5 t-48.5 -33.5q-18 -12 -56 -35.5t-84 -53t-96.5 -61.5t-93.5 -59q-20 -43 -50 -90t-59.5 -87t-56 -68.5t-43.5 -32.5q-14 -4 -33.5 17.5t-37 54t-29.5 71.5t-12 70q-41 8 -78 21.5t-65.5 30t-45 35.5t-14.5 42z" />
<glyph unicode="&#xa3;" horiz-adv-x="819" d="M190 -6q4 59 36 122.5t55 123.5q8 20 12 40.5t8 41.5q4 35 -5 59.5t-19.5 48t-19.5 47t-5 55.5q4 35 18.5 57.5t61.5 51.5l51 434q-4 0 -13.5 10.5t-19.5 22.5t-18 24.5t-8 16.5q-2 8 13 34.5t32 37.5q25 25 71.5 67.5t96 82.5t86 69.5t39.5 29.5l67 17l275 -203l-9 -67 q-25 -6 -43 -5.5t-35.5 3t-34 4.5t-34.5 -2l-19 -5q-10 -4 -23 -20t-13 -18l-48 -402q2 -8 11.5 -16t17.5 -6q10 0 39 2t61.5 5t62.5 6t40 7q2 -10 -2 -39t-2 -39q-6 -47 -19.5 -75.5t-40 -48t-66.5 -34t-102 -32.5l-6 -62q35 35 61.5 44.5t65.5 19.5q121 31 109 -78 q-4 -53 -38 -102.5t-87 -96.5q47 -10 60.5 -38.5t7.5 -75.5q-104 -25 -179 -41.5t-139.5 -19.5t-126 8.5t-135.5 41.5q-53 -86 -148 -108z" />
<glyph unicode="&#xa4;" horiz-adv-x="2263" d="M221 352l84 400l76 32l-62 -381zM395 535q2 16 2 24v25q21 171 314 288l-21 -96q-10 2 -19 1t-22 -5q-33 -8 -55.5 -24.5t-56.5 -53.5q-33 -41 -53.5 -83t-24.5 -85q-12 -76 78 -53q14 4 30.5 10t44.5 19l-2 -66q-45 -25 -82 -35q-117 -31 -133 134zM698 535 q31 244 189 370l16 4l21 4q131 35 149 -88q-68 -276 -180 -305q-23 -4 -37 -9t-33 -9q-106 -29 -125 33zM784 653q-6 -94 52 -80q35 10 110 60q27 35 36 62.5t13 58.5q2 16 2 26q0 12 -10 15q-18 43 -65 32q-68 -18 -134 -147zM1096 563l34 379l203 -184l39 266l72 -4 l-43 -377q-98 -20 -225 131l-23 -186zM1473 670l90 401l71 31l-61 -379zM1636 735q43 201 205 418q18 10 28.5 14t24.5 9q70 14 88 -97l-28 -282l-45 6q-33 76 -82 63q-33 -8 -54.5 -34.5t-56.5 -75.5zM1774 930l131 33l-31 118zM2028 805l32 379l199 -187l47 269h66 l-43 -379q-94 -25 -220 125l-22 -183zM2380 864l53 49l57 -10l-69 -76zM2433 1014l47 293l92 2l-82 -291z" />
<glyph unicode="&#xa5;" horiz-adv-x="1167" d="M180 176q10 90 39 176t43 185q8 63 2 114t-14 100.5t-14.5 100.5t0.5 111q16 123 79.5 219t194.5 129q41 10 58.5 2t35.5 -51q-12 -14 -30.5 -28.5l-37 -29t-33 -28t-14.5 -25.5v-18l150 -136l76 52l182 151l5 2q5 2 11 4h15l98 -86q25 -10 34 -37.5t13 -48.5l-24 -219 l266 -18l4 -2q4 -2 2 -7q-31 -37 -78 -64.5t-125 -80.5q-18 -10 -92 -18l-18 -154l252 -16l5 -2q5 -2 3 -7q-29 -41 -80 -67.5t-125 -79.5q-8 -4 -23.5 -7t-54.5 -7l-10 -103q-6 -45 -36 -100t-75 -112.5t-101 -113t-112.5 -100.5t-109 -75.5t-88.5 -40.5q-6 0 -22.5 -4.5 t-34 -6.5t-31 2.5t-13.5 20.5q66 68 110 116t73.5 93t45 95t25.5 122v22t4 37q2 20 3 38t3 26q-14 -12 -46.5 -40t-68.5 -58.5t-67 -57.5t-41 -37l-7 -3t-9 -3q-31 -6 -68 5t-66.5 36t-48 58.5t-14.5 74.5zM600 360q47 12 72 60l4 35q4 29 9 53t9 53l6 51q-23 0 -39 -2 t-34 -2zM633 651l78 41l6 47q4 41 -2 74t-21 59l-41 -43z" />
<glyph unicode="&#xa6;" horiz-adv-x="739" d="M309 133q-4 -33 14.5 -81t49 -92t64.5 -72.5t61 -22.5q31 8 90 63.5t119.5 127t106.5 143t52 114.5q12 111 -104 68q0 27 2 95.5t5 147t7 149.5t8 101q8 68 30 110t46.5 74t44 61.5t23.5 70.5q2 6 0 16l-2 11q-33 72 -99.5 140t-156.5 128q-111 -123 -179.5 -200 t-107.5 -123t-53.5 -68.5t-16.5 -36.5v-19q0 -12 2 -24.5t3 -22.5l1 -10q2 -6 13.5 -11t26 -8.5t28 -4.5t19.5 -1z" />
<glyph unicode="&#xa8;" horiz-adv-x="1052" d="M592 1497q2 31 17.5 59.5t38 55t50 52t54.5 50.5q123 14 174 -19.5t39 -138.5q-10 -66 -64.5 -123t-124.5 -73q-35 -10 -70.5 -3t-62.5 27.5t-42 49t-9 63.5zM1231 1653q6 61 56.5 117.5t101.5 103.5q125 14 175 -22.5t40 -137.5q-4 -33 -21.5 -64.5t-43.5 -58t-58.5 -47 t-65.5 -28.5q-37 -8 -71.5 0t-61.5 27.5t-41 48t-10 61.5z" />
<glyph unicode="&#xa9;" d="M180 186l2 21q4 23 16.5 40t45.5 25l78 678q0 6 33.5 22.5t87 40t117 51.5t124.5 54.5t110.5 49t73.5 36.5q6 4 37 23.5t68 42t68.5 45t39.5 33.5q57 -2 101.5 -31t77 -72t54 -95t32.5 -101l-7 -48q-4 -35 -7 -68.5t-7 -68.5l-4 -45q-12 -111 -22.5 -181.5t-26 -118.5 t-43 -80.5t-71.5 -66.5t-111.5 -76t-165.5 -110q-8 -6 -35 -30.5t-57.5 -52t-57 -52t-35.5 -28.5l-11 -3q-11 -4 -19 -6q-29 -8 -77 -5t-103.5 15.5t-111 31t-99.5 41t-70.5 46t-24.5 43.5zM551 446q-4 -25 15.5 -49t49 -42.5t62.5 -28t55 -2.5q6 2 11 5l6 3q12 8 41.5 32.5 t64.5 52t65.5 52.5t45.5 35q29 23 35 29t10 26q0 29 -27 22.5t-47 -19.5t-45 -19q-8 -2 -16.5 -3t-18.5 -1q-29 0 -56.5 7t-23.5 32l27 217q6 -6 11 -19.5t13.5 -27t20.5 -22.5t29 -5q12 2 37.5 15.5t53 31.5t49 38.5t23.5 37.5q2 4 1 6l-1 2l-53 106q-4 0 -9 8.5t-12 17.5 t-15.5 16.5t-18.5 5.5l-8 -2q-14 -10 -48 -30t-73 -40.5t-75 -38.5t-50 -27q-12 -8 -27.5 -19t-29 -23.5t-23.5 -26t-12 -27.5z" />
<glyph unicode="&#xaa;" horiz-adv-x="591" d="M432 1047l10 81l2 21l9 65l2 19q8 43 35.5 76.5t64.5 61.5t77 51.5t75 47.5q23 16 32 26.5t31 14.5q31 8 54.5 -12t49.5 -33q8 -4 26 -6t33 -5t25.5 -11t8.5 -25q-2 -18 -19.5 -27.5t-29.5 -25.5q-4 -16 -9.5 -31.5t-5.5 -25.5l-6 -56l-4 -41l-2 -16l-6 -43v-8v-15 q0 -8 1 -18t4 -17.5t9 -4.5q10 2 16.5 8t10.5 8q8 2 13 -10.5t9 -20.5q-4 -16 -8 -16t-16 -17q-8 -8 -26.5 -25.5t-38 -38t-37 -37.5t-23.5 -26l-15 -4q-18 -4 -35.5 8.5t-30.5 29t-23.5 29.5t-16.5 11q-12 -4 -30.5 -24.5t-38 -44t-39 -45t-38.5 -25.5q-25 -6 -47 16 q-43 31 -52 74t-1 107zM639 1030l4 -4h4l4 2q6 6 17.5 20.5t11.5 20.5l31 248l-9 6q-6 4 -12 11t-10 5h-2h-4l-6 -26l-2 -10l-4 -46l-5 -18l-10 -104l-6 -54q0 -12 -1 -23.5t-1 -27.5z" />
<glyph unicode="&#xab;" horiz-adv-x="972" d="M240 580l309 575q4 4 20.5 -11.5t37 -44t43 -63.5t37.5 -68.5t22.5 -59t-2.5 -36.5q-23 -23 -65 -65.5t-87 -87.5t-84 -83t-51 -50l252 -127l-252 -344q-6 -6 -23.5 23.5t-39 77.5t-45 107.5t-42 112.5t-28 93t-2.5 51zM711 707l311 575q4 4 20.5 -11.5t37 -44t42 -64.5 t38 -68.5t22.5 -59t-4 -37.5q-20 -23 -62.5 -65.5t-87.5 -86.5t-84 -83t-53 -51l252 -127l-250 -342q-6 -6 -23.5 23.5t-40 76.5t-46 106.5t-42 112.5t-27.5 94t-3 52z" />
<glyph unicode="&#xac;" horiz-adv-x="1079" d="M195 580l518 319l512 -68l5 -5t3 -7q-25 -33 -50.5 -57.5t-60.5 -50.5q16 -12 30.5 -27.5t43.5 -32.5q6 -4 -7 -37.5t-39 -81t-56.5 -102.5t-60 -100t-51 -75t-28.5 -28l-182 195l119 151q-47 -8 -116.5 -12t-149.5 -4q-78 0 -157 2t-140.5 5t-99.5 7t-33 9z" />
<glyph unicode="&#xad;" horiz-adv-x="628" d="M258 641q-4 -6 36 -20.5t98.5 -28.5t120.5 -24.5t101 -10.5q35 0 41 8q29 33 53.5 56.5t45 45t36 44t27.5 51.5q4 4 0 9l-4 5l-262 123z" />
<glyph unicode="&#xae;" d="M180 186l2 21q4 23 16.5 40t45.5 25l78 678q0 6 33.5 22.5t87 40t117 51.5t124.5 54.5t110.5 49t73.5 36.5q6 4 37 23.5t68 42t68.5 45t39.5 33.5q57 -2 101.5 -31t77 -72t54 -95t32.5 -101l-7 -48q-4 -35 -7 -68.5t-7 -68.5l-4 -45q-12 -111 -22.5 -181.5t-26 -118.5 t-43 -80.5t-71.5 -66.5t-111.5 -76t-165.5 -110q-8 -6 -35 -30.5t-57.5 -52t-57 -52t-35.5 -28.5l-11 -3q-11 -4 -19 -6q-29 -8 -77 -5t-103.5 15.5t-111 31t-99.5 41t-70.5 46t-24.5 43.5zM510 428q-10 -10 22.5 -27.5t75.5 -34t83 -26.5t46 -8q4 0 12.5 3t16.5 5 q57 49 111.5 103.5t107.5 113.5l4 6q0 4 1 6t1 6q4 29 -24 23q-33 -8 -47.5 -27.5t-47.5 -27.5l-30 -8q-23 -6 -23 12l29 231l16 21l60 -76l16 -10l1 -2q1 -2 5 0q2 0 5 3l3 3q8 2 23.5 14t31 28.5t28 32t14.5 21.5q0 2 3 20.5t5 34.5q6 59 -6.5 96t-63.5 60l-129 -139 l-18 -4q-18 18 -28.5 30.5t-22 20.5t-27.5 14t-45 12q-8 -6 -26.5 -23t-38 -36.5t-38 -37t-26.5 -23.5q-35 -31 -45 -42.5t-15 -33.5q-4 -18 9.5 -22.5t27.5 -4.5q16 0 28.5 -1t12.5 -13l-22 -215z" />
<glyph unicode="&#xaf;" horiz-adv-x="1095" d="M545 1546l633 250l659 64l7 -1t-1 -6q-47 -39 -128 -72.5t-214 -92.5q-16 -8 -96 -23.5t-189.5 -32t-231.5 -34t-222 -31t-163.5 -19.5t-53.5 -2z" />
<glyph unicode="&#xb0;" horiz-adv-x="614" d="M428 975q-2 -14 27.5 -31.5t70.5 -31t83 -20.5t63 -1q4 0 9 2l5 2q2 0 16.5 12.5t31 27.5t29.5 28.5t17 15.5q70 49 110 73.5t60.5 50t29.5 66.5t19 123l5 25q2 16 2 33q0 18 2 34l2 25q-6 23 -15.5 49.5t-25 49t-37 37t-51.5 11.5q-4 -2 -20.5 -12t-35 -23.5t-35 -23.5 t-20.5 -12q-18 -10 -62 -29.5t-90.5 -39t-81 -36t-36.5 -20.5l-37 -338q-33 -6 -33 -35zM709 1096l32 276q12 -2 20.5 -14t8.5 -23l-29 -252q-10 -2 -20 0t-12 13z" />
<glyph unicode="&#xb1;" horiz-adv-x="806" d="M186 125q-6 -4 30 -5t93.5 0t127 4t132 7t108.5 9t56 12q78 53 125 79.5t76 67.5q6 4 3 6l-3 2l-377 23zM236 676q-4 -4 20.5 -6t66.5 -3t97 0t112 5l91 -258q0 -6 10 16.5t24.5 62t32 91t35.5 104.5q23 4 36 8t17 6q39 25 71 43.5t56.5 34t44 31.5t33.5 37q0 2 -3 5 l-3 3l-195 12q15 62 13 80q-29 55 -42.5 95t-47.5 51q0 4 -5 -2l-6 -5l-92 -206z" />
<glyph unicode="&#xb2;" horiz-adv-x="507" d="M424 926q-4 -29 22.5 -42.5t47.5 -17.5h41q31 0 64.5 2t62.5 2h43l12 2q8 2 18 13.5t18.5 26t15.5 25.5t9 15q2 6 14.5 25.5t25.5 42t25.5 42t12.5 25.5l2 7q2 18 -14.5 29.5t-40 17.5t-47 7t-31.5 -1q-12 -4 -23 -14l179 178l6 84q4 29 -21.5 41t-48.5 16q-12 0 -43 4 t-64.5 8t-63.5 8.5t-42 4.5h-8q-10 -4 -20.5 -16.5t-19.5 -27t-15 -24.5t-9 -10q-6 -8 -18 -28.5t-24.5 -43t-22.5 -42t-14 -23.5v-9q-4 -18 13 -29.5t40.5 -17.5t46 -7t33.5 1q16 4 29.5 18.5t24.5 33t20.5 36t17.5 27.5l18 -25l-268 -237zM578 1004l102 104 q-16 -20 -27.5 -57t-21.5 -50z" />
<glyph unicode="&#xb3;" horiz-adv-x="530" d="M420 967q0 12 5 22t24 15q27 6 44 3t48 3q23 6 58.5 25.5t57.5 45.5h-63q-51 0 -95 4.5t-40 8.5l168 118l51 -10l14 119q-12 -18 -23.5 -42t-50.5 -32q-16 -4 -36 -4q-16 0 -35 1t-34 6t-24.5 13.5t-7.5 22.5l2 8q4 6 11.5 20.5t14.5 31t14 31t14 24.5q2 0 9 11t16 24.5 t20.5 26t21.5 14.5l6 2q14 0 47 -2t70 -5.5t69.5 -6.5t45 -5t26 -6t25.5 -10t19.5 -16.5t5.5 -24.5l-39 -324q-4 -25 -30 -60.5t-60.5 -69.5t-71.5 -59.5t-60 -31.5q-8 -2 -12 -1t-6 1q-10 0 -39 10.5t-59.5 22.5t-57 23.5t-34.5 15.5q-23 10 -27 14t-2 23z" />
<glyph unicode="&#xb4;" horiz-adv-x="493" d="M631 1566l4 7l188 332l242 -90q4 0 -15.5 -28t-52 -69t-71.5 -89t-75 -87t-62.5 -62.5t-32.5 -17.5q-47 25 -81 40.5t-42 58.5q-6 -2 -2 5z" />
<glyph unicode="&#xb5;" horiz-adv-x="911" d="M131 10l98 852q10 25 27.5 58.5t46.5 56.5l123 141l5 2t7 2l21 4l157 -67l64 -19l192 220l1 8q1 8 4 10q0 12 -11.5 19.5t-27 12.5t-31.5 11t-25 16q27 53 48.5 71.5t60.5 29.5q66 14 109.5 3t68.5 -44t31 -82t0 -111q-8 -59 -26.5 -115.5t-39 -112.5t-39 -113.5 t-24.5 -119.5q-6 -49 -5 -92t4 -83t6 -81t-3 -86q-4 -37 -33 -83t-67.5 -89t-80.5 -73.5t-73 -36.5q-2 0 -8 -1l-6 -1q-10 4 -37 16t-56.5 27.5t-56.5 29t-37 19.5q0 -6 -4 -24.5t-8 -39.5q-2 -20 -5 -37.5t-3 -21.5q-10 -74 -4 -119t25.5 -77.5t55.5 -61.5t89 -68 q-4 -18 -19.5 -29.5t-33 -18.5t-34 -10t-24.5 -5q-55 -14 -131 7.5t-142.5 67.5t-110.5 108.5t-38 129.5zM510 414q12 -37 59 -29l56 469l-29 29q-10 -16 -18.5 -35t-16.5 -39q-14 -33 -20 -78l-15 -141l-6 -37q-4 -29 -4 -53q0 -23 -4 -51z" />
<glyph unicode="&#xb6;" horiz-adv-x="2787" d="M197 403l209 84l-99 103l33 115l223 32q18 137 43 203t70 76l12 4l201 -21q86 111 146.5 176.5t107.5 94.5l160 -66l358 250l65 -43l-22 -55l14 -15l389 162l131 21l-30 -117l454 111l35 -27q-10 -90 -88 -127l367 -2l1 -3t-1 -9l-2 -11q-8 -88 -146 -137 q240 -31 234 -80q0 -2 -3 -3t-3 -3l-45 -86l-170 -41l98 -117q4 -6 0 -22v-14q-8 -63 -72 -93l-180 -6l-47 -225q-31 -47 -78 -59q-70 -14 -188 28l-205 -243l-103 -48l-100 86l-381 -272l-59 4l12 111l-473 -187l-55 23l24 94l-485 -80l8 70l61 74l-292 -19q-57 -12 -52 58 l129 120l-200 41zM244 375l307 -84l-219 -144l444 17l-170 -146l533 113l-68 -139l475 203l53 -62l-28 -78l401 279l160 -72l211 268l242 -12l47 258l241 25q6 12 9 20q2 25 -29 71t-100 112l245 79l-12 31l-291 76l199 100l22 4l-20 31l-424 -12l162 143l-510 -125l55 139 l-506 -192l-2 108l-37 3l-360 -244l-137 74l-232 -269q-29 -16 -47 -18q-76 -18 -176 33l-68 -265l-245 -41l12 -71l115 -133zM641 303l74 342l61 27l-51 -322zM788 457l3 24v21q14 148 266 246l-13 -82q-12 4 -19 3t-21 -5q-41 -12 -93 -66q-63 -82 -69 -145q-8 -61 69 -43 q10 4 25.5 8t38.5 12l-4 -55q-23 -10 -36 -17.5t-32 -11.5q-98 -25 -115 111zM1049 459q25 201 157 315l17 4v2l18 4q111 27 123 -75q-51 -236 -156 -260q-12 -4 -24.5 -9.5t-26.5 -9.5q-94 -23 -108 29zM1124 559q-8 -76 43 -63q18 4 41 15t49 34q18 27 28.5 52t14.5 50 q0 10 1.5 21.5t-9.5 15.5q-18 35 -57 27q-51 -14 -109 -127zM1384 485l33 324l170 -160l33 228l59 -5l-37 -319q-84 -23 -184 111l-18 -156zM1706 575l76 340l61 29l-55 -326zM1847 631q16 82 58.5 170t113.5 184q16 10 23.5 13t19.5 8q63 14 76 -82l-24 -242l-39 4 q-23 68 -68 55q-41 -8 -92 -94zM1962 799l113 26l-29 99zM2173 690l35 326l172 -160l35 227l55 -2l-37 -323q-84 -18 -184 110l-21 -157zM2478 739l47 43l49 -8l-63 -63zM2521 866l43 252l78 2l-66 -248z" />
<glyph unicode="&#xb7;" horiz-adv-x="464" d="M238 602q2 31 18 59.5t38.5 55t50 52t52.5 50.5q123 14 173.5 -19.5t39.5 -137.5q-10 -66 -64 -123.5t-124 -73.5q-37 -10 -72 -3t-61.5 27.5t-42 49t-8.5 63.5z" />
<glyph unicode="&#xb8;" horiz-adv-x="331" d="M-84 -301q12 -59 66.5 -77.5t140.5 -2.5l98 45q25 31 42.5 52.5t28.5 41t17 39t10 47.5q8 70 -23.5 107t-86.5 51t-126 9t-138 -21q-4 -18 12 -38t42 -38t56.5 -35.5t59.5 -32.5q-23 -18 -53.5 -31.5t-60.5 -28.5t-53.5 -35.5t-31.5 -51.5z" />
<glyph unicode="&#xb9;" horiz-adv-x="395" d="M465 1317.5q-4 -19.5 6 -19.5q4 -4 18.5 -8t20.5 -2l-37 -321q-2 -14 7 -34t24.5 -36t32 -26.5t31 -6.5t43 26.5t57 52.5t50 59.5t23.5 46.5q4 43 -51 24q-4 8 -3 35t3 58.5t4 60t4 39.5q4 27 13.5 44t20.5 30.5t20.5 25.5t11.5 29q0 2 -1 5l-1 3q-35 55 -127 100 l-162 -162q-4 -4 -8 -23.5z" />
<glyph unicode="&#xba;" horiz-adv-x="614" d="M428 975q-2 -14 27.5 -31.5t70.5 -31t83 -20.5t63 -1q4 0 9 2l5 2q2 0 16.5 12.5t31 27.5t29.5 28.5t17 15.5q70 49 110 73.5t60.5 50t29.5 66.5t19 123l5 25q2 16 2 33q0 18 2 34l2 25q-6 23 -15.5 49.5t-25 49t-37 37t-51.5 11.5q-4 -2 -20.5 -12t-35 -23.5t-35 -23.5 t-20.5 -12q-18 -10 -62 -29.5t-90.5 -39t-81 -36t-36.5 -20.5l-37 -338q-33 -6 -33 -35zM709 1096l32 276q12 -2 20.5 -14t8.5 -23l-29 -252q-10 -2 -20 0t-12 13z" />
<glyph unicode="&#xbb;" horiz-adv-x="972" d="M211 358l186 -237q4 -4 30 35t59.5 101t72.5 137t71 140.5t52 112.5t16 55l-194 453q-4 2 -24.5 -22.5t-49.5 -64.5t-59.5 -88t-55 -91t-38 -74t-5.5 -37q14 -14 49 -38.5t73 -49t71 -45t45 -27.5zM680 461l186 -238q6 -2 32 37t59.5 100.5t71.5 135t69.5 139t51 113 t17.5 57.5l-192 455q-4 2 -24.5 -24t-49.5 -66t-59.5 -88t-55 -91t-38 -73.5t-5.5 -36.5q14 -14 48 -39t72 -49.5t71 -45t45 -26.5z" />
<glyph unicode="&#xbc;" horiz-adv-x="1243" d="M318 1193q4 19 8 24q12 14 47 47.5t114 113.5q92 -43 129 -100v-8q-2 -16 -12 -28.5t-20.5 -27t-19.5 -32t-11 -41.5q-2 -10 -5 -39t-4 -60.5t-2 -58.5t3 -35q51 18 49 -24q-2 -16 -23.5 -46t-49 -60t-56.5 -52.5t-43 -26.5q-16 -4 -33.5 6.5t-32 26.5t-23.5 36t-7 34 l36 321q-6 -2 -20 2t-18 9q-10 0 -6 19zM355 94q1 45 18 74l389 754q-6 -2 -15.5 0t-18.5 6t-16 9t-7 9q-2 2 -1 11.5t5 21.5t9 22.5t9 16.5q8 12 28.5 31.5t71 60.5t136.5 112.5t227 188.5q117 -109 115 -246v-8q-2 -6 -6.5 1t-8.5 1q-18 -39 -53 -68.5t-75 -63.5t-81 -76 t-73 -103q-8 -18 -31 -61.5t-51.5 -98.5t-59 -117.5t-59.5 -118t-49.5 -98.5t-26.5 -59q63 29 77.5 11.5t-13.5 -70.5q-20 -37 -67.5 -88.5t-103 -99.5t-108.5 -84t-84 -42q-23 -6 -41 20.5t-27.5 66.5t-8.5 85zM948 332l27 241q0 4 10 21.5t24.5 36t30 34t25.5 17.5 q8 2 27.5 -2t40 -10t37.5 -12l16 -5q23 35 47 52.5t65 39.5l119 -20q8 -2 2 -16.5t-19.5 -35t-26.5 -45t-15 -48.5q-4 -25 6 -43.5t22.5 -34t21.5 -31.5t7 -41l-2 -16q-2 -31 -31 -37q-16 -4 -21 3t-22 3q-4 0 -8 -2l-8 -4q-4 -18 -12 -57t-21.5 -81t-34 -76t-49.5 -40 q-20 -6 -20 2t-1 16.5t-5 16.5q-2 2 -4 17t-5.5 34.5t-6.5 37t-5 21.5q-2 2 -34.5 10.5t-72.5 17.5t-72 18.5t-32 17.5zM1128 414l35 39l15 131l-15 10l-18 -19z" />
<glyph unicode="&#xbd;" horiz-adv-x="1261" d="M317 1200q2 -6 2 -18q0 -10 5 -11q4 -4 18 -8t20 -2l-36 -323q-2 -14 7 -33t24.5 -35t32 -26.5t30.5 -6.5t43 26.5t57.5 52.5t50 59.5t23.5 46.5q2 43 -51 24q-4 8 -3 35t3 58.5t4 59t4 38.5q2 27 11 44t20.5 30.5t21.5 25.5t14 31q-2 2 -3 5l-1 3q-37 57 -127 100 q-53 -53 -85.5 -84.5t-51 -50t-26 -27t-7.5 -14.5zM355.5 92q-1.5 -45 8 -85t29 -67.5t41.5 -21.5q31 8 83 44t107.5 84t102.5 99.5t68 87.5q27 53 12.5 71t-76.5 -11q6 16 26.5 59t49.5 98.5t59.5 118t59 117.5t50 98t30.5 60q33 61 73.5 104t80.5 76t75 63.5t55 67.5 q2 6 7.5 0t5.5 0l2 8q0 131 -115 246q-141 -117 -228.5 -188.5t-136.5 -113.5t-70.5 -61.5t-29.5 -31.5q-4 -4 -8 -14.5t-8 -21.5t-5.5 -21.5t1.5 -12.5q4 -8 22.5 -18t32.5 -6l-387 -754q-16 -29 -17.5 -74zM989 199q-2 -14 5 -24.5t18.5 -17.5t25 -11.5t23.5 -6.5h41 q31 0 65.5 2t63.5 2h43l6 2q8 2 18.5 13.5t19.5 25t16 24.5t12 15q2 6 14 26.5t25.5 43t24.5 42t11 25.5l3 4q3 3 1 5q2 16 -15 27.5t-39.5 16.5t-46.5 6t-32 -1q-16 -4 -22 -10l174 174l12 88q4 29 -20.5 40t-53.5 15q-12 0 -42.5 4t-64.5 8t-64.5 8.5t-43.5 4.5l-1 1 q-1 1 -7 -1q-10 -2 -19.5 -14.5t-16.5 -27t-14 -25.5t-9 -11q-4 -6 -16.5 -26.5t-24.5 -44t-23.5 -43t-15.5 -23.5l-2 -11q-2 -16 15.5 -26.5t40 -16.5t46 -8t33.5 2q14 4 28.5 18.5t26 33t20.5 36t17 27.5l19 -25l-269 -239zM1145 276l100 105q-8 -10 -14 -25.5t-12 -31.5 l-13 -31l-6 -17h-55z" />
<glyph unicode="&#xbe;" horiz-adv-x="1327" d="M279 830.5q-5 3.5 0 23.5q0 12 5 22.5t23 14.5q27 6 43.5 2t48.5 4q20 4 57.5 23.5t57.5 46.5q-27 0 -62.5 1t-67.5 3t-51.5 4t-15.5 6l170 117l50 -11l12 119q-12 -18 -23.5 -40.5t-50.5 -32.5q-10 -2 -33.5 -3.5t-47 3t-41 13.5t-13.5 28v6q6 8 12 23.5t14.5 30.5 t14.5 30.5t12 23.5q2 0 9.5 11.5t17.5 25.5t21.5 26.5t21.5 14.5l6 2q14 0 47 -3t70 -6t68.5 -7t44 -6.5t26.5 -5.5t26.5 -9t19.5 -15t5 -24l-39 -327q-4 -25 -29.5 -60t-60.5 -68.5t-71.5 -59t-59.5 -32.5q-6 -2 -14 -2h-6q-12 2 -39 12.5t-56.5 23t-56.5 23.5t-37 15 q-23 10 -28 13.5zM441 105.5q1 44.5 16 72.5l393 754q-12 -2 -32.5 7t-29.5 17q2 2 6.5 20.5t10.5 35.5l6 16q6 12 26.5 31.5t72 61.5t139.5 114t227 186q117 -109 115 -245v-9q0 -4 -4.5 2.5t-8.5 -0.5q-20 -39 -55 -68.5t-75 -63t-80 -75.5t-72 -104q-8 -16 -31 -59 t-51.5 -99.5t-61 -118t-60.5 -117.5l-49.5 -99t-27.5 -60q66 29 79 11.5t-13 -70.5q-20 -37 -67.5 -88.5t-103 -99.5t-108.5 -83.5t-84 -42.5q-23 -6 -41 22t-27.5 67.5t-8.5 84zM1034 342l29 244q2 4 11 20.5t22.5 34.5t28 33.5t26.5 17.5q10 2 30.5 -2t40 -10t36 -11 t16.5 -3q23 33 47.5 50t64.5 40l117 -21q8 -2 2 -15t-18 -33.5t-25.5 -45.5t-15.5 -49q-4 -27 6 -44.5t22.5 -32.5t21.5 -31.5t7 -41.5l-4 -18q0 -31 -31 -37q-16 -4 -20 3t-23 3q-2 0 -8 -2t-8 -2q-4 -18 -12 -58t-21.5 -82t-34 -76t-49.5 -40q-18 -6 -18 4q2 14 -6 33 q-2 0 -5 15.5t-7.5 35t-7.5 36.5t-3 22q0 4 -32.5 11t-72.5 16t-73 18.5t-33 17.5zM1210 424l41 39l13 131l-13 10l-20 -18z" />
<glyph unicode="&#xbf;" horiz-adv-x="909" d="M215 231l23 172l202 211q23 23 73 65t100.5 82t88 69.5t33.5 29.5l234 221l166 -163l-359 -322q18 18 45 25q23 6 69 3t91 -15.5t78 -35t31 -55.5q2 -2 -3 -12l-4 -8q-10 -10 -32.5 -48t-47 -83t-46 -85t-29.5 -55q-6 -4 -18.5 -27.5t-30 -51t-37 -51t-37.5 -27.5 q-6 -2 -10 0t-11 0q-25 6 -85 13t-127.5 13t-128 12.5t-85 10.5t-50 11t-47 20.5t-35 33t-11.5 47.5zM602 440l35 -51q8 16 21.5 41t30 52.5t35.5 54t38 47.5zM805 1354q2 31 19.5 62.5t43 58t58 47t67.5 28.5q37 8 72 0t60.5 -27.5t41 -48t13.5 -61.5q-4 -31 -19.5 -59.5 t-39 -56t-50 -53t-53.5 -48.5q-125 -16 -174 18.5t-39 139.5z" />
<glyph unicode="&#xc0;" horiz-adv-x="1097" d="M293 406l18 159l6 41q2 35 7.5 65.5t9.5 65.5l4 39q18 88 73.5 154.5t127 121t151.5 101.5t150 96q39 29 64.5 51.5t66.5 32.5q33 8 57.5 -1t48 -25.5t47 -35t54.5 -28.5q18 -10 51 -13t64.5 -9.5t53 -21.5t17.5 -48q-2 -20 -14.5 -34.5t-27.5 -26t-31.5 -22.5t-28.5 -26 q-23 -68 -29 -116.5t-12 -112.5l-9 -78l-4 -33l-10 -86l-4 -16v-25q0 -18 3 -38.5t10 -35t24 -9.5q18 4 27.5 14t29.5 14q2 0 9.5 -6t13.5 -15.5t11 -19.5t3 -18q-2 -10 -2 -21q-6 -12 -16.5 -17t-32.5 -28q-16 -18 -51 -54t-74 -75t-75 -73.5t-50 -51.5l-27 -6 q-41 -10 -74.5 13.5t-60 55.5t-46 59.5t-32.5 25.5q-25 -6 -60.5 -47t-75.5 -89.5t-81 -90.5t-75 -50q-33 -8 -53.5 3.5t-39.5 25.5q-86 63 -103 154.5t-3 210.5zM707 373q0 -10 12 -13l6 2l6 3q4 6 14.5 17t21.5 23.5t19.5 24.5t8.5 19l57 495l-6 4t-17 8q-10 8 -19 21.5 t-19 15.5l-7 -2h-4l-18 -57l-2 -16l-12 -95l-5 -37l-22 -208q-6 -47 -11 -97.5t-3 -107.5zM717 1679l274 217l121 -258l4 -4q4 -4 -4 -6q-10 -27 -24.5 -46t-34 -37.5t-44 -38t-51.5 -44.5q-8 -10 -30.5 1.5t-51 34t-59.5 53t-54.5 57t-37.5 47t-8 24.5z" />
<glyph unicode="&#xc1;" horiz-adv-x="1097" d="M293 406l18 159l6 41q2 35 7.5 65.5t9.5 65.5l4 39q18 88 73.5 154.5t127 121t151.5 101.5t150 96q39 29 64.5 51.5t66.5 32.5q33 8 57.5 -1t48 -25.5t47 -35t54.5 -28.5q18 -10 51 -13t64.5 -9.5t53 -21.5t17.5 -48q-2 -20 -14.5 -34.5t-27.5 -26t-31.5 -22.5t-28.5 -26 q-23 -68 -29 -116.5t-12 -112.5l-9 -78l-4 -33l-10 -86l-4 -16v-25q0 -18 3 -38.5t10 -35t24 -9.5q18 4 27.5 14t29.5 14q2 0 9.5 -6t13.5 -15.5t11 -19.5t3 -18q-2 -10 -2 -21q-6 -12 -16.5 -17t-32.5 -28q-16 -18 -51 -54t-74 -75t-75 -73.5t-50 -51.5l-27 -6 q-41 -10 -74.5 13.5t-60 55.5t-46 59.5t-32.5 25.5q-25 -6 -60.5 -47t-75.5 -89.5t-81 -90.5t-75 -50q-33 -8 -53.5 3.5t-39.5 25.5q-86 63 -103 154.5t-3 210.5zM707 373q0 -10 12 -13l6 2l6 3q4 6 14.5 17t21.5 23.5t19.5 24.5t8.5 19l57 495l-6 4t-17 8q-10 8 -19 21.5 t-19 15.5l-7 -2h-4l-18 -57l-2 -16l-12 -95l-5 -37l-22 -208q-6 -47 -11 -97.5t-3 -107.5zM767 1543q-1 1 1 5l4 8l189 332l243 -90q2 -2 -18.5 -30.5t-52 -70.5t-69.5 -88t-74 -85t-61.5 -61.5t-33.5 -16.5q-25 14 -45.5 22.5t-36.5 17.5t-27.5 22.5t-15.5 35.5 q-2 -2 -3 -1z" />
<glyph unicode="&#xc2;" horiz-adv-x="1097" d="M276 406l19 161l6 39q2 35 7 65.5t9 65.5l5 39q20 88 74.5 154.5t126 121t151.5 101.5t151 98q41 29 64.5 51.5t64.5 32.5q33 8 57.5 -2t47 -26.5t47 -35t55.5 -28.5q18 -8 51 -11t65 -10.5t53.5 -22.5t17.5 -48q-2 -20 -13.5 -33.5t-27 -25t-31.5 -22.5t-29 -26 q-10 -35 -17 -63.5t-11.5 -54t-7.5 -53t-5 -58.5l-10 -80l-4 -33l-10 -86l-2 -16q-2 -6 -2 -25q0 -18 3 -38.5t10 -35t23 -9.5q18 4 27.5 14t30.5 14q2 2 9 -4t13 -15t11.5 -20.5t3.5 -19.5q0 -12 -3 -19.5t-8.5 -12.5t-15.5 -12t-25 -20q-16 -18 -51 -54t-74.5 -75 t-74.5 -73.5t-49 -53.5l-27 -6q-41 -10 -75 13.5t-60.5 55.5t-46 59.5t-31.5 25.5q-25 -6 -59.5 -47t-74.5 -89.5t-82 -90.5t-77 -50q-33 -8 -53.5 3.5t-38.5 25.5q-86 63 -103.5 154.5t-3.5 210.5zM369 1409l563 358q10 6 54 4t104.5 -10t126 -19t121 -22.5t89 -21.5 t29.5 -15l-328 -272l-174 199q-12 -14 -46 -53t-75.5 -85.5t-80.5 -89.5t-60 -65q-14 -14 -68.5 -5t-113.5 28.5t-103.5 40t-37.5 28.5zM690 375q0 -12 12 -13h7l6 3q4 6 14 17t21.5 23.5t19.5 24.5t8 19l58 495l-6 4q-7 4 -15 10q-10 8 -21.5 20.5t-15.5 16.5l-10 -2l-4 -2 l-19 -57l-2 -16l-10 -93l-6 -39l-22 -208q-6 -47 -9.5 -98.5t-5.5 -104.5z" />
<glyph unicode="&#xc3;" horiz-adv-x="1097" d="M281 403l18 160l2 41q4 35 9 65.5t9 65.5l5 39q23 88 77 154.5t125.5 121t150.5 101.5t150 98q39 29 63.5 50.5t67.5 31.5q31 8 55.5 -1t48 -25.5t47.5 -35t54 -28.5q18 -10 51 -13t64 -9.5t52.5 -21.5t17.5 -48q-2 -23 -13.5 -36t-27 -24.5t-31.5 -22.5t-29 -26 q-20 -68 -26.5 -117t-14.5 -112l-10 -78l-4 -33l-8 -86l-2 -16q0 -6 -1 -25.5t1 -39t10 -34t25 -10.5q18 4 27 14.5t28 14.5q4 0 11 -6t13.5 -15.5t10.5 -19.5t4 -18q-2 -6 -2 -13q0 -4 -2 -8q-4 -10 -14.5 -16t-32.5 -29q-16 -18 -52.5 -54t-75 -75t-73.5 -73.5t-49 -51.5 l-27 -6q-41 -10 -75 13.5t-60.5 55t-46 59.5t-31.5 26q-25 -6 -60.5 -47t-75.5 -89.5t-81 -90.5t-76 -50q-33 -8 -52 3.5t-40 25.5q-84 63 -102.5 154.5t-1.5 209.5zM358 1450l340 274l179 -102q29 35 62.5 81t84.5 93q10 10 50 11t95.5 -4t116 -14t110.5 -19.5t80.5 -18.5 t26.5 -14l-342 -275l-162 82q-29 -29 -71.5 -68.5t-89.5 -84.5q-10 -10 -51.5 -11.5t-96.5 4t-115.5 14.5t-110.5 18t-81 18.5t-25 15.5zM694 373q-4 -10 11 -15l6 2l6 2q6 6 16 17.5t20.5 24t18.5 24.5t8 18l58 496l-6 4q-7 4 -17 10.5t-20.5 19.5t-16.5 17l-10 -4h-4 l-16 -57l-3 -17l-10 -94l-6 -37l-22 -209q-6 -47 -10.5 -97t-2.5 -105z" />
<glyph unicode="&#xc4;" horiz-adv-x="1097" d="M283 403l18 162l4 39q4 35 9 65.5t10 65.5l4 39q18 88 73.5 154.5t127 121t151.5 101.5t149 98q39 29 65 51.5t67 32.5q31 8 56 -1t49 -26.5t47.5 -36t53.5 -28.5q18 -8 51 -11t64 -10.5t52.5 -22.5t17.5 -48q-2 -23 -13.5 -36t-27 -23.5t-31.5 -20.5t-29 -27 q-20 -70 -27 -117.5t-14 -111.5l-10 -80l-2 -31l-12 -88v-16q-2 -4 -2 -25q0 -18 3 -37.5t10 -35t24 -11.5q18 4 27 14.5t28 14.5q4 2 11 -4t13.5 -15.5t10.5 -20.5t4 -19q-2 -12 -4 -19.5t-7.5 -12.5t-15.5 -12t-24 -20q-16 -18 -51 -54t-75 -75t-75 -73.5t-49 -53.5 l-27 -6q-41 -10 -74.5 13.5t-60.5 55t-46.5 59.5t-31.5 26q-25 -6 -60.5 -47t-75.5 -89.5t-81 -90.5t-76 -50q-33 -8 -54 3.5t-38 27.5q-86 63 -103.5 153.5t-2.5 208.5zM483 1518q4 31 19.5 59.5t39 56t51 53t54.5 50.5q123 14 172 -22t39 -136q-4 -33 -21.5 -64.5t-43 -58 t-58.5 -47t-65 -29.5q-35 -8 -70 0.5t-62.5 27.5t-43 48t-11.5 62zM696 373q0 -10 13 -13h6l6 2q12 14 35.5 43t27.5 41l58 496l-6 4q-7 4 -17 10q-10 8 -20.5 20.5t-16.5 16.5l-8 -2l-6 -2l-16 -57l-2 -17l-13 -92l-4 -39l-22 -209q-6 -47 -10.5 -98t-4.5 -104zM1026 1653 q2 31 18.5 59.5t39 55t49 52t53.5 50.5q125 14 176 -19.5t37 -138.5q-4 -33 -21.5 -64.5t-43 -58t-58.5 -47t-66 -29.5q-35 -8 -69.5 0.5t-62 28t-42 48t-10.5 63.5z" />
<glyph unicode="&#xc5;" horiz-adv-x="1097" d="M287 406q-14 -123 4 -212.5t104 -152.5q16 -14 37 -26.5t53 -4.5q35 8 76 50t81 91.5t76 90.5t60 47q12 2 31.5 -25.5t46.5 -60.5t60.5 -56.5t74.5 -13.5l27 8q14 16 50 51t75 74t73.5 75t51.5 54q23 18 33 25.5t14 17.5q2 4 2 8q0 6 2 15q2 16 -13.5 37.5t-23.5 21.5 q-20 -4 -29.5 -15t-27.5 -16q-16 -4 -23.5 11.5t-10.5 35t-3 37.5q0 20 2 27l2 14l10 88l2 31l10 80q8 63 14.5 111.5t26.5 117.5q12 14 30 25.5t33 23t25.5 24.5t12.5 34q6 35 -15.5 50t-53.5 21.5t-64.5 9.5t-51.5 13q-31 8 -55 26.5t-46.5 35t-47.5 26.5t-57 2 q-41 -10 -67 -32.5t-64 -51.5q-70 -49 -149 -96t-149.5 -101.5t-126 -121t-77.5 -154.5l-4 -41q-4 -35 -9.5 -64.5t-9.5 -66.5l-4 -39zM666 1434q-2 -10 29.5 -20.5t73.5 -17.5t85 -10.5t66 3.5q6 2 11 4l5 2q2 0 14.5 9t28.5 20.5t30.5 22.5t20.5 15q72 41 112 60.5 t60.5 40t27.5 49t13 88.5l2 20q2 12 3 24.5t1 24.5l2 19q-10 33 -42.5 65.5t-96.5 28.5q-4 -4 -19.5 -13t-34 -19.5t-34.5 -17.5t-20 -7q-18 -8 -63.5 -25.5t-92.5 -36t-84 -33t-37 -16.5l-29 -246q-31 -6 -32 -26v-8zM702 373q2 55 4.5 105t8.5 97l22 211l4 37l13 92l2 17 l16 57l6 2l8 2q6 -4 16.5 -16t20.5 -21q10 -6 17 -10l6 -4l-58 -493q0 -6 -8 -18.5t-18 -26t-20.5 -24.5t-16.5 -18h-6l-6 -2q-15 3 -11 13zM954 1542l23 197q12 -2 21.5 -9.5t9.5 -11.5l-21 -184q-14 -4 -24.5 -2t-8.5 10z" />
<glyph unicode="&#xc6;" horiz-adv-x="1673" d="M188 319l25 201q2 35 7 65.5t9 65.5l4 39q23 88 78.5 154.5t126 121t149.5 101.5t150 96q37 29 62.5 51.5t68.5 32.5q31 8 55.5 -1t48 -25.5t47 -35t54.5 -28.5q10 -4 21.5 -6t21.5 -6q61 49 132 98t138.5 89t123.5 69t89 37l17 4q12 -4 37.5 -8t27.5 -7l199 -282 q-2 -2 0 -15.5t-2 -23.5q-6 -53 -45 -97t-95.5 -84t-122 -77t-121.5 -74t-96 -77t-44 -85q-4 -25 9 -42t35.5 -27.5t50.5 -15.5t56 -5q45 0 72 8q45 12 82 31t74 35q43 23 81.5 26t34.5 -38q-2 -18 -36.5 -58.5t-88 -91.5t-117 -107.5t-124 -104.5t-110.5 -80.5t-75 -39.5 q-66 -16 -134 5.5t-130 62.5q-39 -37 -68.5 -67.5t-45.5 -47.5l-27 -6q-41 -10 -75 13.5t-60.5 55.5t-46 59.5t-31.5 25.5q-25 -6 -60.5 -47t-75.5 -89.5t-81 -90.5t-76 -50q-33 -8 -52.5 3.5t-37.5 25.5q-86 63 -104.5 154.5t-4.5 209.5zM604 289q-4 -10 10 -15l13 5 q6 6 16 17t20.5 23.5t18.5 24.5t8 18l58 496l-6 4q-7 4 -17 8q-10 8 -19.5 21.5t-17.5 15.5l-12 -2l-19 -57l-41 -356q-6 -47 -10 -97.5t-2 -105.5zM1343 807l17 9q16 9 35.5 22.5t38 29t20.5 25.5q0 2 -9 22.5t-18 30.5q-4 2 -14 12.5t-19.5 23.5t-16.5 24.5t-7 15.5z" />
<glyph unicode="&#xc7;" horiz-adv-x="974" d="M139 244l76 647q2 29 22.5 56.5t49 54t60.5 48t56 37.5q31 14 100.5 52.5t147.5 81.5t147.5 81.5t98.5 55.5q4 0 8 2t10 4q20 4 37 -10.5t30 -34t22.5 -35.5t15.5 -16q4 -12 19.5 -45t33 -68t32.5 -64.5t21 -37.5l1 -5q1 -6 1 -10q-6 -35 -49 -75.5t-97 -76.5 t-106.5 -62.5t-76.5 -32.5q-37 -8 -61.5 9t-40 43.5t-25.5 54.5t-21 40l-51 -432q-4 -31 20.5 -48.5t61.5 -23.5t76 -4t65 8q53 12 98.5 40t92.5 38q33 8 42 -8t5 -39q-2 -18 -6 -33q-8 -20 -24.5 -34.5t-51.5 -43.5q-18 -16 -62.5 -51t-97.5 -78t-108.5 -87t-98.5 -76 q84 -10 133.5 -54.5t38.5 -132.5q-4 -29 -10 -49t-17.5 -40.5t-27.5 -42t-43 -50.5l-96 -45q-86 -16 -140.5 3t-66.5 79q8 31 31.5 50t52.5 34.5t59.5 29t53.5 31.5q-41 25 -84 56.5t-72 66.5q-49 8 -101.5 32.5t-94.5 57.5t-67.5 73t-21.5 79z" />
<glyph unicode="&#xc8;" horiz-adv-x="1007" d="M279 317l65 557q2 37 42 84.5t99.5 98.5t132 101t142 91t127 70t88.5 37l20 6q12 -4 38 -8t28 -6l199 -283q-2 -2 -4.5 -17.5t-0.5 -25.5q-6 -51 -45 -94t-95 -83t-121.5 -77t-122 -75t-95.5 -76.5t-43 -84.5q-4 -25 9.5 -42t36 -27t50 -15.5t56.5 -5.5q43 0 69 9 q49 12 83 30.5t73 34.5q20 10 43 17.5t39 7.5q18 0 28.5 -8.5t8.5 -28.5q-2 -16 -37 -57t-88 -92.5t-117.5 -108t-125 -103.5t-111 -80.5t-74.5 -39.5q-68 -16 -140.5 5t-132 65t-95.5 103.5t-29 120.5zM649 1679l275 217l120 -258l2 -5q3 -5 -2 -7q-18 -49 -57 -81t-96 -85 q-8 -8 -30.5 3.5t-50.5 35t-58.5 53t-55 57t-39 47t-8.5 23.5zM723 727l17 9q16 9 35.5 22.5t36.5 29t19 25.5q2 2 -9 21.5t-17 29.5q-4 4 -13.5 15.5t-18.5 23.5t-16 23.5t-7 15.5z" />
<glyph unicode="&#xc9;" horiz-adv-x="1007" d="M276 317l68 557q2 37 42 84.5t99.5 98.5t132 101t142 91t127 70t88.5 37l20 6q12 -4 37 -8t29 -6l196 -283q0 -2 -2 -17.5t0 -25.5q-6 -51 -45 -94t-96 -83t-121.5 -77t-121 -75t-96.5 -76.5t-44 -84.5q-4 -25 9.5 -42t36 -27t51 -15.5t55.5 -5.5q61 0 102 16.5t76 35.5 q20 10 50 23t57.5 19.5t45 1t15.5 -33.5q-2 -16 -37 -57t-88 -92.5t-117.5 -108t-125 -103.5t-111 -80.5t-74.5 -39.5q-68 -16 -140.5 5t-133 65t-96.5 103.5t-30 120.5zM712 1543q-1 1 1 5l2 6l190 334l244 -92q2 -2 -17.5 -30.5t-52 -69.5t-71.5 -88t-75 -85t-61.5 -61.5 t-31.5 -17.5q-25 14 -45.5 23.5t-37 18.5t-27.5 22.5t-15 35.5q-2 -2 -3 -1zM723 725q2 2 18.5 12.5t36 23.5t35.5 27.5t18 24.5q2 2 -10 21.5t-18 29.5q-4 2 -12.5 13.5t-17.5 24.5t-16 24.5t-9 15.5z" />
<glyph unicode="&#xca;" horiz-adv-x="1007" d="M268 324l64 555q4 37 43 84t99.5 98t133 101t141 92t127 71t89.5 37l18 4q12 -4 38 -8t28 -4l198 -283q-2 -2 -3 -17.5t1 -25.5q-6 -51 -46 -95t-97.5 -84t-122 -77t-119.5 -75t-95 -76.5t-44 -83.5q-4 -25 9 -42.5t35.5 -27.5t50.5 -15.5t56 -5.5q45 0 72 9 q45 12 82 30.5t74 34.5q43 23 82 26t35 -38q-2 -18 -38 -58t-88.5 -91.5t-117 -107.5t-125 -103.5t-109.5 -81t-73 -39.5q-68 -16 -140.5 5t-133 65t-96.5 104.5t-28 122.5zM281 1427l589 367q10 6 57.5 4t111 -8t134 -16.5t128 -21.5t92 -21.5t28.5 -16.5l-340 -272 l-186 196q-16 -16 -53 -56t-79 -87t-81 -90t-59 -64q-10 -10 -41 -9t-70 9.5t-82 20.5t-78 25.5t-56.5 23.5t-14.5 16zM711 731l16 11q16 10 36.5 23t38 27.5t19.5 24.5q0 2 -12 22.5t-16 30.5q-4 2 -13.5 13.5t-18.5 24t-17.5 23.5t-8.5 15z" />
<glyph unicode="&#xcb;" horiz-adv-x="1007" d="M268 317q-6 -61 30 -120.5t95.5 -103.5t132 -65.5t140.5 -4.5q25 6 75 38.5t110 80.5t123.5 103.5t117 106.5t89.5 91t38 59q2 20 -8.5 28.5t-28.5 8.5q-16 0 -38 -7.5t-44 -17.5q-37 -16 -73 -34.5t-83 -30.5q-29 -6 -70 -7q-39 0 -74.5 8.5t-59 28t-19.5 51.5 q4 45 44 85t96.5 77t121 75t121.5 77t96 83t45 95q2 10 2 25q0 16 2 18l-198 283q-2 0 -28 4t-38 8l-20 -4q-31 -8 -89.5 -37t-127 -71t-140 -92t-132 -101t-99.5 -98.5t-43 -84.5zM408 1518q-4 -33 10 -62t40.5 -49.5t62.5 -28.5t73 2q33 8 65.5 29t58 47.5t43 58 t21.5 62.5q10 104 -40 139t-173 21q-27 -25 -54.5 -50.5t-50 -53t-37.5 -56.5t-19 -59zM713 725l24 215q0 -4 7.5 -15.5t16.5 -24.5t19.5 -23.5t14.5 -12.5q6 -10 16 -30.5t10 -22.5q-2 -10 -19.5 -25.5t-37 -29t-27.5 -18.5zM987 1659q-6 -35 9.5 -63.5t43 -49t63.5 -28 t71 3.5q33 8 65.5 28.5t59 47t43 58.5t20.5 62q10 104 -39 140t-174 20q-25 -23 -52.5 -48.5t-50 -53t-40 -57t-19.5 -60.5z" />
<glyph unicode="&#xcc;" horiz-adv-x="724" d="M324 815q-10 -10 2 -27.5t26 -25.5q10 -4 39 -9t41 -1l-63 -555q-2 -23 18.5 -52.5t51 -57.5t65.5 -44t59 -10q31 6 86.5 47t111.5 94t99 104.5t47 79.5q8 76 -102 35q-2 16 -2 64q0 47 1 100t3 101.5t2 66.5q6 45 25.5 74.5t43 53.5t42 45.5t20.5 49.5q0 6 -2 12l-2 5 l-213 157q-29 20 -52.5 18.5t-41 -12t-28.5 -23.5t-15 -15zM483 1534q-4 -2 10.5 -22.5t38 -48t53 -57.5t57.5 -53.5t50.5 -35.5t30.5 -2q31 27 54.5 46t43 36.5t34.5 37t26 46.5q4 2 2 7l-2 5l-121 258z" />
<glyph unicode="&#xcd;" horiz-adv-x="724" d="M326 815l262 275q6 4 21.5 22t45.5 27q37 8 68 -17l215 -157l1 -5q1 -6 1 -12q-2 -29 -20.5 -50t-41 -45t-42 -53.5t-25.5 -74.5q-4 -18 -5 -66.5t-2 -101.5t0 -100t3 -64q109 39 100 -35q-2 -18 -22.5 -47.5t-52 -64.5t-70.5 -71t-76 -66.5t-69.5 -51t-51.5 -24.5 q-25 -6 -59.5 10t-65 44t-51 57.5t-18.5 52.5l63 555q-6 -2 -18.5 -1t-25.5 3t-24.5 4t-13.5 6q-14 6 -25.5 23.5t-0.5 27.5zM492 1399l2 6l190 332l242 -90q4 -2 -15.5 -31t-52.5 -70t-74 -87t-76.5 -85t-60 -62.5t-29.5 -17.5q-25 14 -45 23.5t-36.5 19t-27.5 21.5t-15 35 q-6 0 -2 6z" />
<glyph unicode="&#xce;" horiz-adv-x="724" d="M145 1294l525 346q12 8 54 7.5t97.5 -10t114.5 -22.5t109.5 -25.5t83 -24t30.5 -15.5l-303 -260l-166 195q-12 -14 -44 -53t-69.5 -83t-74.5 -86t-56 -61q-10 -10 -36.5 -8t-61.5 11t-71.5 22.5t-67.5 27t-49.5 24.5t-14.5 15zM313 825l262 275q6 4 20.5 22.5t47.5 26.5 q37 8 68 -16l215 -158l1 -5t1 -12q-4 -29 -22.5 -50t-41 -44.5t-42 -54.5t-25.5 -76q-4 -18 -5 -66.5t-2.5 -101.5t0 -100t3.5 -64q109 43 102 -34q-2 -27 -44 -78t-99.5 -103.5t-113.5 -94.5t-85 -50q-25 -6 -59.5 11.5t-65.5 44t-51.5 57t-18.5 53.5l64 555 q-6 -2 -18.5 -1t-24.5 2t-23.5 4t-15.5 5q-14 8 -25.5 25.5t-1.5 27.5z" />
<glyph unicode="&#xcf;" horiz-adv-x="724" d="M252 1372q-4 -33 11.5 -61.5t42 -48t61 -27.5t71.5 2q35 8 67 28.5t58.5 47t43 58.5t20.5 63q12 104 -38 137.5t-175 19.5q-51 -49 -102.5 -103t-59.5 -116zM313 815q-10 -10 2.5 -27.5t26.5 -25.5q10 -4 39 -9t41 -1l-64 -555q-2 -23 18.5 -53.5t51.5 -58.5t65.5 -44 t59.5 -10q31 8 86 50t111.5 94t99.5 103.5t47 77.5q6 76 -104 35q-4 18 -5 64q0 47 2.5 100t4.5 101.5t4 66.5q4 45 24.5 75.5t43 54.5t42 45.5t21.5 49.5q0 6 -2 12l-2 5l-213 157q-29 20 -52.5 18.5t-41 -12t-28.5 -23.5t-16 -15zM776 1503q-6 -35 9.5 -63.5t42 -48 t61.5 -27.5t72 0q33 8 65.5 28.5t58 47t43 58.5t21.5 65q10 104 -38 137.5t-177 19.5q-53 -47 -102.5 -102t-55.5 -115z" />
<glyph unicode="&#xd0;" horiz-adv-x="1327" d="M233 469l369 205l113 -8l22 194l221 53q-47 14 -85.5 36t-67.5 50.5t-42 68.5t-7 95q8 80 46 136.5t95 95.5t128 64.5t144 43.5q-4 -35 -23.5 -61.5t-42 -47t-43 -37t-22.5 -34.5q0 -2 1 -6t1 -6q23 -4 78.5 -16.5t116.5 -26t115.5 -26.5t74.5 -19q20 -4 47 -22.5 t49.5 -44.5t37 -54.5t12.5 -52.5l-64 -555q-2 -20 -39.5 -59.5t-94 -86.5t-123 -96t-127 -91t-106.5 -70t-59 -32q-10 -2 -42.5 7.5t-74.5 23.5t-88 32.5t-85 36t-63.5 31t-24.5 19.5q2 10 13 25.5t25.5 32t30 30.5t25.5 25l18 155q-59 -8 -141 -12t-154.5 -5t-121 2 t-42.5 7zM1071 446l59 -45l54 463l-62 45z" />
<glyph unicode="&#xd1;" horiz-adv-x="1361" d="M276 156q2 6 18.5 23.5t36 37t37 35.5t21.5 20l64 557q2 23 -18.5 22t-46.5 -5t-47.5 1t-16.5 40q2 8 5 18t1 13q31 37 69.5 81.5t83.5 89t92.5 84t90.5 66.5l18 4q41 10 76 -3t63.5 -38.5t50 -56.5t37.5 -55q39 27 89.5 73.5t101.5 95t101 87t93 49.5q2 0 10 1l7 1 q2 -2 18.5 -16.5t38 -31t39.5 -29.5t25 -13l127 -60q16 -8 37.5 -25.5t21.5 -19.5q0 -8 -9 -23.5t-20.5 -33t-25 -31.5t-23.5 -20l-63 -557q37 -2 68.5 -13.5t27.5 -52.5q-4 -18 -6 -31q-8 -16 -25.5 -31.5t-52.5 -48.5l-295 -251q-4 0 -14.5 -6.5t-20.5 -10.5 q-18 -4 -53 8.5t-67.5 34t-56 48t-19.5 50.5l84 740l-48 18l-38 -39l-70 -616q4 -6 14.5 -26.5t12.5 -26.5l-2 -19l-3 -14l-36 -37q-33 -29 -82 -72t-95.5 -83t-80 -68.5t-35.5 -28.5l-37 -8l-215 127q-6 4 -18.5 12t-22.5 19.5t-16.5 23t-0.5 21.5zM442 1456l340 273 l179 -101q29 35 63.5 81t83.5 93q10 10 50 11.5t95.5 -4t116 -14.5t110.5 -18.5t80.5 -18.5t26.5 -15l-344 -275l-156 82q-29 -29 -74.5 -69.5t-92.5 -85.5q-10 -10 -52 -11q-47 0 -121.5 8.5t-145.5 19.5t-119 23.5t-40 20.5z" />
<glyph unicode="&#xd2;" d="M260 197l2 20q2 23 14.5 40t45.5 26l77 678q0 6 34 23t87 40t117.5 49.5t125 53t110 49t73.5 38.5q8 4 40 23.5t66.5 43.5t65.5 45.5t39 29.5q59 0 104.5 -29t78 -72t52 -95t29.5 -101l-4 -47q-4 -35 -6 -69t-6 -69l-6 -47q-12 -111 -21.5 -181.5t-26 -117.5t-43 -79.5 t-71.5 -66.5t-112.5 -76t-166.5 -109q-6 -6 -32.5 -31t-58 -53.5t-59.5 -52t-34 -27.5l-11 -3t-22 -7q-31 -8 -78 -4t-101 16t-109.5 30.5t-98.5 41t-69.5 46.5t-24.5 44zM653 1620l277 217l121 -256l1 -5q1 -5 -3 -7q-18 -49 -57.5 -82t-96.5 -86q-8 -8 -30.5 4t-51.5 35.5 t-58.5 54.5t-54 57.5t-38 46t-9.5 21.5zM819 434q-2 -20 20.5 -23t45.5 3l57 499q2 20 -18.5 44t-40.5 32z" />
<glyph unicode="&#xd3;" d="M252 195l4 22q2 23 15.5 40t45.5 24l78 680q0 6 34 22t87 40t116.5 50.5t124 53t109.5 49t74 38.5q6 2 37 20.5t67.5 42t69.5 46.5t39 33q57 0 103.5 -29t78 -72t52 -95t30.5 -101l-4 -47l-8 -70t-6 -70l-6 -45q-14 -113 -24.5 -183.5t-27 -117.5t-42 -78.5t-69.5 -65.5 t-110.5 -76t-165.5 -109q-8 -6 -35.5 -31t-58.5 -52.5t-57.5 -52t-34.5 -28.5l-10 -4t-21 -6q-29 -6 -77 -2t-102 15t-109.5 29.5t-99.5 39t-71.5 44t-25.5 46.5zM750 1472l4 7l188 329l242 -92q2 -2 -17.5 -29.5t-51.5 -67.5t-69.5 -87t-73.5 -85t-62.5 -62.5t-35.5 -20.5 q-25 14 -45 23.5t-35.5 19.5t-25.5 23.5t-14 35.5q-8 -2 -4 6zM815 434q-4 -20 18.5 -23t45.5 1l57 501q4 18 -16.5 43t-40.5 33z" />
<glyph unicode="&#xd4;" d="M252 193l2 22q4 23 17.5 40t45.5 26l78 677q0 6 34 23.5t87 40t116.5 49.5t124 53.5t109.5 49t74 38.5q6 4 38 23.5t67.5 42t67.5 44t40 32.5q57 0 102 -29t78 -72t53.5 -95t30.5 -101l-6 -47q-4 -35 -7 -69t-5 -69l-6 -47q-12 -111 -22.5 -181.5t-26 -117.5t-43 -79.5 t-71.5 -66.5t-111.5 -76t-166.5 -109q-6 -6 -32.5 -31t-57.5 -53.5t-57.5 -52t-34.5 -27.5l-11 -3t-22 -8q-29 -8 -77 -4t-103 15.5t-110.5 31t-99.5 41t-70.5 45.5t-24.5 44zM381 1446l592 364q12 6 59 5.5t109.5 -7t132 -17.5t127 -22.5t93.5 -20.5t32 -15l-342 -275 l-187 197q-16 -16 -53 -56t-78 -86.5t-79.5 -89.5t-59.5 -65q-10 -10 -41 -9t-71 9t-83 20.5t-77.5 25.5t-56 24.5t-17.5 17.5zM815 432q-4 -20 18.5 -23t45.5 3l57 499q4 20 -16.5 44t-40.5 32z" />
<glyph unicode="&#xd5;" d="M248 193l2 22q4 23 16.5 39t44.5 25l80 679q0 6 34 22.5t85 40t115.5 50.5t124 53.5t109.5 49t75 36.5q6 4 38 23.5t68.5 42t68.5 45t40 33.5q57 0 102 -29t78 -72t53.5 -95t30.5 -101l-6 -47q-4 -35 -7 -70t-7 -70l-4 -45q-12 -111 -22.5 -181.5t-27 -118.5t-43 -80.5 t-71.5 -65.5t-113 -75t-164 -109q-8 -6 -34.5 -31t-57.5 -52.5t-57.5 -52t-34.5 -28.5l-12 -4q-11 -4 -19 -7q-29 -8 -77 -4t-103 15.5t-110.5 31t-99.5 41t-70.5 45.5t-24.5 44zM377 1444l340 274l178 -102q29 35 62.5 82t84.5 94q8 8 50 8q41 0 95 -5t115.5 -13 t111.5 -17.5t81 -18.5t27 -13l-342 -275l-160 80q-29 -29 -73 -67.5t-91 -84.5q-10 -10 -51 -11t-96.5 4t-116 13.5t-110.5 17.5t-80.5 18.5t-24.5 15.5zM811 432q-4 -20 18.5 -23t44.5 1l58 501q2 18 -18 43t-40 33z" />
<glyph unicode="&#xd6;" d="M248 195q-2 -23 24.5 -45.5t71.5 -45t100.5 -41t109.5 -31t102.5 -15.5t76.5 6q10 2 21 5l10 3q8 4 34.5 27.5t57.5 52t57.5 53t34.5 31.5q98 68 166 110.5t112 75.5t69.5 65.5t42 79.5t26.5 119t25 182l6 45q2 35 5 69t7 69l6 49q-10 49 -29.5 101t-52.5 95t-78 72 t-104 29q-10 -8 -41 -29.5t-66.5 -46.5t-67.5 -44t-40 -24q-25 -14 -75 -36.5t-109.5 -49t-124 -53t-115.5 -50.5l-85 -40t-34 -22l-78 -680q-33 -8 -46 -24.5t-15 -39.5zM436 1473q-6 -35 9.5 -64t42 -49.5t61.5 -27.5t72 3q35 8 67.5 28.5t58 47.5t42 58.5t20.5 62.5 q10 104 -37 139t-176 19q-25 -25 -52.5 -50.5t-50 -52t-39 -55.5t-18.5 -59zM811 432l63 557q20 -10 41 -33.5t17 -44.5l-58 -499q-23 -4 -45 -1t-18 21zM1075 1630q-6 -35 9.5 -63.5t42 -48t62.5 -27.5t70.5 0t66.5 28.5t58.5 47t44 58.5t21.5 65q10 104 -40 138.5 t-173 20.5q-27 -25 -54.5 -50t-50 -53t-39 -56.5t-18.5 -59.5z" />
<glyph unicode="&#xd7;" horiz-adv-x="806" d="M324 262l170 313q-27 39 -52.5 77t-44 69t-28 50.5t-2.5 21.5l274 -113l258 188h6q4 4 4 0q2 -41 -22.5 -86.5t-57.5 -117.5q-8 -18 -69 -72l76 -152l-2 -4l-3 -4q-12 -6 -43 -6q-29 0 -61.5 8t-63 24.5t-45.5 43.5q-51 -39 -105 -83t-97 -80t-70 -58.5t-22 -18.5z" />
<glyph unicode="&#xd8;" d="M180 186l2 21q4 23 16.5 40t45.5 25l78 678q0 6 33.5 22.5t87 40t117 51.5t124.5 54.5t110.5 49t73.5 36.5q6 4 37 23.5t68 42t68.5 45t39.5 33.5q57 -2 101.5 -31t77 -72t54 -95t32.5 -101l-7 -48q-4 -35 -7 -68.5t-7 -68.5l-4 -45q-12 -111 -22.5 -181.5t-26 -118.5 t-43 -80.5t-71.5 -66.5t-111.5 -76t-165.5 -110q-8 -6 -35 -30.5t-57.5 -52t-57 -52t-35.5 -28.5l-11 -3q-11 -4 -19 -6q-29 -8 -77 -5t-103.5 15.5t-111 31t-99.5 41t-70.5 46t-24.5 43.5zM741 424q0 -8 7.5 -7t19.5 5t26.5 10t26.5 10l8 164l-75 -78zM778 733l90 117 l-6 53q-4 18 -20.5 43t-34.5 35z" />
<glyph unicode="&#xd9;" horiz-adv-x="1361" d="M291 188v5q0 6 2 14q0 2 1 7l1 5q4 4 14 11.5t21.5 14.5t21.5 13t15 8q10 10 24.5 23.5t14.5 15.5l61 537q-25 -6 -50.5 -16.5t-45 -13.5t-30.5 6t-7 42q2 25 11 40t23.5 29.5t35 32t49.5 46.5q16 12 53 47t78 74.5t76.5 73.5t50.5 46q8 2 18 5t19 6q57 14 97 -18 t62.5 -84t30.5 -111.5t4 -100.5q-2 -35 -11 -121t-20 -186q-6 -49 -13 -98t-12 -90t-10.5 -73t-7.5 -50l16 10q17 10 37.5 23.5t39 27.5t20.5 25l63 557q-6 6 -14 20.5t-17 31.5t-15.5 32.5t-6.5 21.5l2 17l2 14q96 59 179 132t151 159q10 -6 32.5 -20.5t51.5 -33t59.5 -36 t55.5 -29.5q33 -23 48 -33l21 -14t7.5 -6t5.5 -8v-21q-6 -43 -26.5 -71.5t-61.5 -71.5l-66 -555q-4 -25 17.5 -24t48 6t48 0t17.5 -42q-4 -33 -47 -85t-99.5 -102t-114.5 -90t-95 -48q-47 -12 -79 3t-59.5 36.5t-57.5 39t-75 7.5q-47 -12 -91 -46t-85 -73t-82 -72t-84 -43 l-18 -6q-18 12 -63.5 33.5t-95.5 50.5t-92 65.5t-54 77.5zM836 1665l278 219l121 -258l2 -5t-4 -7q-10 -27 -24.5 -46.5t-34 -37t-44 -36.5t-53.5 -46q-10 -10 -32.5 1t-50 34.5t-56.5 54.5t-52.5 58.5t-37.5 47t-12 21.5z" />
<glyph unicode="&#xda;" horiz-adv-x="1361" d="M292 194q-1 5 1 13q0 2 1 7l1 5q10 8 36.5 25.5t37.5 21.5l23.5 23.5t13.5 15.5l63 537q-27 -6 -52.5 -16.5t-45 -13.5t-30.5 6t-7 42q2 25 11 40t23.5 29.5t35 32t49.5 46.5q14 12 51 45.5t79 72.5t77.5 74t52.5 49q8 2 17 5l18 6q57 14 97 -18t62.5 -84t30.5 -111.5 t4 -100.5q-2 -35 -10 -121t-21 -186q-4 -49 -11 -98t-13 -90t-11.5 -73t-5.5 -50q2 2 18.5 12t37 23.5t37 28t18.5 24.5l63 555q-6 6 -14 21.5t-16 31.5t-14.5 31.5t-8.5 21.5l2 17l2 14q193 119 330 291q10 -6 32.5 -20.5t50.5 -33t58.5 -36t57.5 -29.5q31 -23 48 -32 t24.5 -13t9.5 -6t2 -10l-2 -21q-4 -41 -25.5 -70.5t-62.5 -72.5l-66 -555q-4 -25 17.5 -24t48 6t48 0t19.5 -42q-4 -33 -48 -85t-100.5 -102t-115.5 -90t-94 -48q-47 -12 -79 3t-59.5 36.5t-57.5 39t-75 7.5q-47 -12 -91 -46t-85 -73t-82 -72t-84 -43l-16 -4 q-18 12 -64.5 33.5t-96.5 50.5t-93 64.5t-51 76.5zM902 1545l5 7l187 332l241 -92q2 0 -17.5 -27.5t-51 -68.5t-70.5 -88t-74 -86t-61.5 -62.5t-34.5 -17.5q-23 14 -43 23.5t-36.5 18.5t-28 21.5t-13.5 34.5q-8 -2 -3 5z" />
<glyph unicode="&#xdb;" horiz-adv-x="1361" d="M279 186v19q2 2 3 7l1 5q10 10 35.5 26.5t35.5 20.5l24.5 24.5t14.5 16.5l60 535q-25 -6 -50.5 -16.5t-45 -13.5t-30 6t-5.5 42q2 25 10 40t22.5 29.5t35 32t48.5 46.5q16 12 53 46.5t78 72.5t77 73t52 49q6 2 16.5 5t20.5 5q57 14 96 -17.5t63 -83.5t31 -111.5t5 -100.5 q-4 -35 -13.5 -121t-19.5 -186q-6 -49 -12 -98.5t-10.5 -90t-9.5 -72.5t-9 -48l18 10q17 10 37.5 23.5t38 27.5t19.5 25l63 555q-6 6 -14 21.5t-16.5 31.5t-14.5 31.5t-8 21.5l2 17v14q193 121 332 291q10 -6 32.5 -20.5t50 -33t58.5 -36t57 -29.5q31 -23 46.5 -32t23.5 -13 t10 -6t2 -10l-2 -21q-4 -41 -24.5 -69.5t-63.5 -73.5l-63 -553q-4 -27 16.5 -26t47 5t48 0t17.5 -41q-4 -33 -46 -84t-98.5 -101t-115 -90t-95.5 -48q-47 -12 -78.5 4t-59 37.5t-58.5 38t-76 4.5q-47 -12 -90 -46t-85 -73t-83 -72t-84 -43l-16 -4q-18 12 -64.5 33.5 t-97.5 50.5t-93 64.5t-50 76.5zM463 1417l590 365q12 6 59 5t109.5 -7t132 -17.5t127 -22.5t93.5 -20.5t32 -15.5l-340 -274l-187 196q-16 -16 -52 -55t-78 -85t-82 -89t-62 -68q-10 -10 -40 -8t-70 9t-83 20.5t-77.5 27t-56 23.5t-15.5 16z" />
<glyph unicode="&#xdc;" horiz-adv-x="1361" d="M283 186q10 -41 52 -77.5t92 -66.5t97 -50.5t66 -30.5l14 4q43 10 85 44t83 72t85 72.5t91 47.5q45 10 75 -7.5t57.5 -39t59 -37t79.5 -2.5q37 8 95 48t114.5 90t98.5 101.5t46 83.5q4 39 -16.5 43t-47 0t-48 -6t-17.5 25l63 553q43 45 63.5 73.5t24.5 69.5l2 23 q4 10 -2 14t-30 14q-16 8 -52 29.5t-75 45.5t-74 45.5t-47 29.5q-137 -172 -330 -289l-2 -16l-2 -17q2 -6 8 -21.5t14.5 -32.5t16.5 -31.5t14 -20.5l-63 -555q-2 -10 -20.5 -25.5t-39 -29t-37.5 -22.5l-16 -9q4 16 9 48t9.5 72.5t11.5 90t11 98.5q10 104 19.5 188t13.5 119 q2 39 -6 99.5t-31 112.5t-61.5 85t-96.5 19q-10 -4 -19 -6.5t-15 -4.5q-16 -12 -52.5 -47t-77 -75t-77.5 -74.5t-56 -46.5q-29 -29 -49 -46.5t-34.5 -32t-22.5 -29.5t-10 -40q-4 -35 6 -43t30.5 -5t46 14.5t52.5 17.5l-64 -537q0 -2 -14 -16.5t-25 -24.5q-10 -4 -35.5 -20.5 t-35.5 -24.5l-1 -5t-1 -7q-2 -8 -2 -14v-7zM557 1509q-6 -35 9.5 -63.5t42 -48t62.5 -27.5t70 0q33 8 66 28.5t58.5 47.5t43 58.5t21.5 64.5q10 104 -38 137.5t-175 19.5q-27 -25 -54.5 -50t-50 -52t-38 -55.5t-17.5 -59.5zM1194 1665q-4 -33 11.5 -61.5t42 -48t61 -27.5 t71.5 0q35 8 67 28.5t57.5 47t43 58.5t23.5 64q10 100 -40 137t-173 23q-53 -49 -104.5 -103t-59.5 -118z" />
<glyph unicode="&#xdd;" horiz-adv-x="911" d="M256 219q12 94 42 178t40 185q6 61 1 113.5t-13.5 101.5t-14.5 99t0 110q16 125 81 220t196 128q39 10 58.5 2t35.5 -51q-12 -14 -30.5 -28.5l-37 -29t-33 -28t-14.5 -25.5q-2 -2 -1 -9l1 -7l148 -136l76 50l182 151l6 2q6 2 10 4q2 0 9 1l8 1l98 -88q23 -10 33 -36.5 t14 -49.5l-100 -852q-4 -45 -34 -100t-76 -112.5t-101.5 -113t-111.5 -100.5t-107.5 -75.5t-88.5 -38.5q-6 -2 -23 -7.5t-35.5 -6.5t-32 3.5t-13.5 20.5q66 68 110 116t72.5 93t45 95t26.5 124v20q0 18 4 37q4 20 4 37q0 18 2 27q-12 -12 -45 -40t-68.5 -58.5t-66.5 -57.5 t-41 -37l-7 -2t-11 -4q-31 -6 -68 6t-66.5 37t-48 59.5t-14.5 71.5zM656 1546l3 6l189 332l242 -90q4 0 -15.5 -27.5t-52.5 -68.5t-72 -89t-74.5 -87t-62.5 -62.5t-33 -17.5q-25 12 -45 21.5t-36.5 19.5t-26.5 23.5t-15 33.5q-4 0 -1 6zM676 403q49 12 74 60l4 37 q4 29 9 53.5t9 52.5l4 37l17 141q4 41 -2.5 72.5t-20.5 58.5l-39 -43z" />
<glyph unicode="&#xde;" horiz-adv-x="946" d="M190 303q-4 -29 5.5 -46t40.5 -9q14 2 24 11t20.5 19.5t20.5 19.5t27 13q4 0 16 1t16 1q0 -27 -2 -77t-2 -109t4.5 -119.5t16.5 -107.5t35.5 -73t60.5 -15q18 4 27.5 11t16.5 20.5t13.5 35t18.5 53.5q2 8 11 26.5t18.5 40t18.5 43t13 34.5q2 8 38 35.5t88 65.5t112.5 82 t112 83t87 69.5t37.5 43.5l68 575q0 10 -11.5 40t-30.5 60.5t-43 51t-48 14.5q-23 -6 -66 -38t-87 -68.5t-77.5 -65.5t-35.5 -29q-12 27 -24.5 74t-30 95t-39 86t-52.5 44l76 86q-6 16 -16.5 21.5t-24.5 4.5t-28.5 -6t-28.5 -7q-115 -29 -170.5 -100.5t-65.5 -178.5 q-6 -53 1 -92t16.5 -76t17.5 -77t2 -95q-6 -61 -34.5 -114.5t-61.5 -104.5t-61.5 -103.5t-34.5 -109.5zM698 520l35 307l37 41l29 -24l-43 -373z" />
<glyph unicode="&#xdf;" horiz-adv-x="1204" d="M190 -96q-10 -80 2.5 -134.5t37 -86t53 -44t51.5 -6.5q25 6 74 57.5t98 119t88 137t45 110.5q2 27 5 46.5t1 28.5t-11 8t-34 -11q0 27 3 94.5t7 144t8.5 146.5t8.5 98q10 92 36.5 157t53.5 103q61 39 86.5 56.5t41 25t32 8.5t59.5 7l-29 -238l-100 21 q-41 -59 -69.5 -111.5t-69.5 -112.5l215 -26q39 -6 39 -45q0 -37 -26 -87.5t-69 -103.5t-88 -90q-18 -16 -13 -31.5t24.5 -31t46 -29.5t51.5 -29q2 -4 12 0l21 6q45 10 118.5 61.5t144 119t124 139.5t59.5 121l27 626q4 27 -11.5 47.5t-40 34t-52 21.5t-48.5 12 q-29 0 -85 8.5t-119.5 18.5t-121 19t-83.5 11q-2 0 -8.5 -1t-8.5 -1q-23 -16 -52.5 -25t-70.5 -20l-78 -18q-37 -10 -67 -18q-92 -117 -149.5 -190t-89 -116t-43 -64.5t-13.5 -35.5v-27q0 -18 1 -31.5t1 -15.5q2 -6 11.5 -11t20.5 -9t21.5 -6t14.5 -2z" />
<glyph unicode="&#xe0;" horiz-adv-x="1097" d="M293 406l18 159l6 41q2 35 7.5 65.5t9.5 65.5l4 39q18 88 73.5 154.5t127 121t151.5 101.5t150 96q39 29 64.5 51.5t66.5 32.5q33 8 57.5 -1t48 -25.5t47 -35t54.5 -28.5q18 -10 51 -13t64.5 -9.5t53 -21.5t17.5 -48q-2 -20 -14.5 -34.5t-27.5 -26t-31.5 -22.5t-28.5 -26 q-23 -68 -29 -116.5t-12 -112.5l-9 -78l-4 -33l-10 -86l-4 -16v-25q0 -18 3 -38.5t10 -35t24 -9.5q18 4 27.5 14t29.5 14q2 0 9.5 -6t13.5 -15.5t11 -19.5t3 -18q-2 -10 -2 -21q-6 -12 -16.5 -17t-32.5 -28q-16 -18 -51 -54t-74 -75t-75 -73.5t-50 -51.5l-27 -6 q-41 -10 -74.5 13.5t-60 55.5t-46 59.5t-32.5 25.5q-25 -6 -60.5 -47t-75.5 -89.5t-81 -90.5t-75 -50q-33 -8 -53.5 3.5t-39.5 25.5q-86 63 -103 154.5t-3 210.5zM707 373q0 -10 12 -13l6 2l6 3q4 6 14.5 17t21.5 23.5t19.5 24.5t8.5 19l57 495l-6 4t-17 8q-10 8 -19 21.5 t-19 15.5l-7 -2h-4l-18 -57l-2 -16l-12 -95l-5 -37l-22 -208q-6 -47 -11 -97.5t-3 -107.5zM717 1679l274 217l121 -258l4 -4q4 -4 -4 -6q-10 -27 -24.5 -46t-34 -37.5t-44 -38t-51.5 -44.5q-8 -10 -30.5 1.5t-51 34t-59.5 53t-54.5 57t-37.5 47t-8 24.5z" />
<glyph unicode="&#xe1;" horiz-adv-x="1097" d="M293 406l18 159l6 41q2 35 7.5 65.5t9.5 65.5l4 39q18 88 73.5 154.5t127 121t151.5 101.5t150 96q39 29 64.5 51.5t66.5 32.5q33 8 57.5 -1t48 -25.5t47 -35t54.5 -28.5q18 -10 51 -13t64.5 -9.5t53 -21.5t17.5 -48q-2 -20 -14.5 -34.5t-27.5 -26t-31.5 -22.5t-28.5 -26 q-23 -68 -29 -116.5t-12 -112.5l-9 -78l-4 -33l-10 -86l-4 -16v-25q0 -18 3 -38.5t10 -35t24 -9.5q18 4 27.5 14t29.5 14q2 0 9.5 -6t13.5 -15.5t11 -19.5t3 -18q-2 -10 -2 -21q-6 -12 -16.5 -17t-32.5 -28q-16 -18 -51 -54t-74 -75t-75 -73.5t-50 -51.5l-27 -6 q-41 -10 -74.5 13.5t-60 55.5t-46 59.5t-32.5 25.5q-25 -6 -60.5 -47t-75.5 -89.5t-81 -90.5t-75 -50q-33 -8 -53.5 3.5t-39.5 25.5q-86 63 -103 154.5t-3 210.5zM707 373q0 -10 12 -13l6 2l6 3q4 6 14.5 17t21.5 23.5t19.5 24.5t8.5 19l57 495l-6 4t-17 8q-10 8 -19 21.5 t-19 15.5l-7 -2h-4l-18 -57l-2 -16l-12 -95l-5 -37l-22 -208q-6 -47 -11 -97.5t-3 -107.5zM767 1543q-1 1 1 5l4 8l189 332l243 -90q2 -2 -18.5 -30.5t-52 -70.5t-69.5 -88t-74 -85t-61.5 -61.5t-33.5 -16.5q-25 14 -45.5 22.5t-36.5 17.5t-27.5 22.5t-15.5 35.5 q-2 -2 -3 -1z" />
<glyph unicode="&#xe2;" horiz-adv-x="1097" d="M276 406l19 161l6 39q2 35 7 65.5t9 65.5l5 39q20 88 74.5 154.5t126 121t151.5 101.5t151 98q41 29 64.5 51.5t64.5 32.5q33 8 57.5 -2t47 -26.5t47 -35t55.5 -28.5q18 -8 51 -11t65 -10.5t53.5 -22.5t17.5 -48q-2 -20 -13.5 -33.5t-27 -25t-31.5 -22.5t-29 -26 q-10 -35 -17 -63.5t-11.5 -54t-7.5 -53t-5 -58.5l-10 -80l-4 -33l-10 -86l-2 -16q-2 -6 -2 -25q0 -18 3 -38.5t10 -35t23 -9.5q18 4 27.5 14t30.5 14q2 2 9 -4t13 -15t11.5 -20.5t3.5 -19.5q0 -12 -3 -19.5t-8.5 -12.5t-15.5 -12t-25 -20q-16 -18 -51 -54t-74.5 -75 t-74.5 -73.5t-49 -53.5l-27 -6q-41 -10 -75 13.5t-60.5 55.5t-46 59.5t-31.5 25.5q-25 -6 -59.5 -47t-74.5 -89.5t-82 -90.5t-77 -50q-33 -8 -53.5 3.5t-38.5 25.5q-86 63 -103.5 154.5t-3.5 210.5zM369 1409l563 358q10 6 54 4t104.5 -10t126 -19t121 -22.5t89 -21.5 t29.5 -15l-328 -272l-174 199q-12 -14 -46 -53t-75.5 -85.5t-80.5 -89.5t-60 -65q-14 -14 -68.5 -5t-113.5 28.5t-103.5 40t-37.5 28.5zM690 375q0 -12 12 -13h7l6 3q4 6 14 17t21.5 23.5t19.5 24.5t8 19l58 495l-6 4q-7 4 -15 10q-10 8 -21.5 20.5t-15.5 16.5l-10 -2l-4 -2 l-19 -57l-2 -16l-10 -93l-6 -39l-22 -208q-6 -47 -9.5 -98.5t-5.5 -104.5z" />
<glyph unicode="&#xe3;" horiz-adv-x="1097" d="M281 403l18 160l2 41q4 35 9 65.5t9 65.5l5 39q23 88 77 154.5t125.5 121t150.5 101.5t150 98q39 29 63.5 50.5t67.5 31.5q31 8 55.5 -1t48 -25.5t47.5 -35t54 -28.5q18 -10 51 -13t64 -9.5t52.5 -21.5t17.5 -48q-2 -23 -13.5 -36t-27 -24.5t-31.5 -22.5t-29 -26 q-20 -68 -26.5 -117t-14.5 -112l-10 -78l-4 -33l-8 -86l-2 -16q0 -6 -1 -25.5t1 -39t10 -34t25 -10.5q18 4 27 14.5t28 14.5q4 0 11 -6t13.5 -15.5t10.5 -19.5t4 -18q-2 -6 -2 -13q0 -4 -2 -8q-4 -10 -14.5 -16t-32.5 -29q-16 -18 -52.5 -54t-75 -75t-73.5 -73.5t-49 -51.5 l-27 -6q-41 -10 -75 13.5t-60.5 55t-46 59.5t-31.5 26q-25 -6 -60.5 -47t-75.5 -89.5t-81 -90.5t-76 -50q-33 -8 -52 3.5t-40 25.5q-84 63 -102.5 154.5t-1.5 209.5zM358 1450l340 274l179 -102q29 35 62.5 81t84.5 93q10 10 50 11t95.5 -4t116 -14t110.5 -19.5t80.5 -18.5 t26.5 -14l-342 -275l-162 82q-29 -29 -71.5 -68.5t-89.5 -84.5q-10 -10 -51.5 -11.5t-96.5 4t-115.5 14.5t-110.5 18t-81 18.5t-25 15.5zM694 373q-4 -10 11 -15l6 2l6 2q6 6 16 17.5t20.5 24t18.5 24.5t8 18l58 496l-6 4q-7 4 -17 10.5t-20.5 19.5t-16.5 17l-10 -4h-4 l-16 -57l-3 -17l-10 -94l-6 -37l-22 -209q-6 -47 -10.5 -97t-2.5 -105z" />
<glyph unicode="&#xe4;" horiz-adv-x="1097" d="M283 403q-14 -119 3 -209t103 -153q16 -16 38 -27.5t54 -3.5q35 8 76 50t81 90.5t76 89.5t60 47q12 2 31.5 -26t46.5 -59.5t60.5 -55t74.5 -13.5l27 6q14 18 49 53t75 74t74.5 75t51.5 54q14 12 24 19.5t15.5 12.5t7.5 12t4 20q0 8 -4 19t-10.5 20.5t-13.5 15.5t-11 4 q-18 -4 -27.5 -14t-27.5 -15q-16 -4 -23.5 11.5t-10.5 35t-3 37.5q0 20 2 25v16l12 88l2 31l10 80q6 63 13.5 111.5t27.5 117.5q12 14 29.5 25.5t33 23t26 24.5t12.5 34q4 33 -17.5 48t-52.5 22.5t-63.5 10.5t-51.5 11q-31 10 -55.5 28.5t-47 35t-47 26.5t-56.5 2 q-41 -10 -67 -32.5t-65 -51.5q-70 -51 -149.5 -98t-151 -101.5t-127 -121t-73.5 -154.5l-4 -39q-4 -35 -9.5 -65.5t-9.5 -65.5l-4 -39zM428 1507q-6 -35 9.5 -63.5t43 -48t62.5 -27.5t69.5 0t66.5 28.5t58.5 47t44 58.5t21.5 65q10 104 -40 137.5t-175 19.5 q-25 -25 -52.5 -50t-50 -52t-39 -55.5t-18.5 -59.5zM696 373q0 53 4.5 104t10.5 98l22 209l4 39l13 92l2 17l16 57l6 2l8 2q6 -4 16.5 -16t20.5 -21q10 -6 17 -10l6 -4l-58 -496q-2 -6 -10 -17t-18.5 -24.5t-19.5 -24.5t-15 -18l-6 -2h-6q-13 3 -13 13zM1067 1663 q-4 -33 11.5 -61.5t42 -48t62.5 -27.5t70.5 0t66.5 28.5t57.5 47t42 58.5t20.5 64q12 100 -38 136t-173 22q-27 -25 -54.5 -50.5t-50 -53t-39 -56t-18.5 -59.5z" />
<glyph unicode="&#xe5;" horiz-adv-x="1097" d="M287 406q-14 -123 4 -212.5t104 -152.5q16 -14 37 -26.5t53 -4.5q35 8 76 50t81 91.5t76 90.5t60 47q12 2 31.5 -25.5t46.5 -60.5t60.5 -56.5t74.5 -13.5l27 8q14 16 50 51t75 74t73.5 75t51.5 54q23 18 33 25.5t14 17.5q2 4 2 8q0 6 2 15q2 16 -13.5 37.5t-23.5 21.5 q-20 -4 -29.5 -15t-27.5 -16q-16 -4 -23.5 11.5t-10.5 35t-3 37.5q0 20 2 27l2 14l10 88l2 31l10 80q8 63 14.5 111.5t26.5 117.5q12 14 30 25.5t33 23t25.5 24.5t12.5 34q6 35 -15.5 50t-53.5 21.5t-64.5 9.5t-51.5 13q-31 8 -55 26.5t-46.5 35t-47.5 26.5t-57 2 q-41 -10 -67 -32.5t-64 -51.5q-70 -49 -149 -96t-149.5 -101.5t-126 -121t-77.5 -154.5l-4 -41q-4 -35 -9.5 -64.5t-9.5 -66.5l-4 -39zM666 1434q-2 -10 29.5 -20.5t73.5 -17.5t85 -10.5t66 3.5q6 2 11 4l5 2q2 0 14.5 9t28.5 20.5t30.5 22.5t20.5 15q72 41 112 60.5 t60.5 40t27.5 49t13 88.5l2 20q2 12 3 24.5t1 24.5l2 19q-10 33 -42.5 65.5t-96.5 28.5q-4 -4 -19.5 -13t-34 -19.5t-34.5 -17.5t-20 -7q-18 -8 -63.5 -25.5t-92.5 -36t-84 -33t-37 -16.5l-29 -246q-31 -6 -32 -26v-8zM702 373q2 55 4.5 105t8.5 97l22 211l4 37l13 92l2 17 l16 57l6 2l8 2q6 -4 16.5 -16t20.5 -21q10 -6 17 -10l6 -4l-58 -493q0 -6 -8 -18.5t-18 -26t-20.5 -24.5t-16.5 -18h-6l-6 -2q-15 3 -11 13zM954 1542l23 197q12 -2 21.5 -9.5t9.5 -11.5l-21 -184q-14 -4 -24.5 -2t-8.5 10z" />
<glyph unicode="&#xe6;" horiz-adv-x="1673" d="M188 319l25 201q2 35 7 65.5t9 65.5l4 39q23 88 78.5 154.5t126 121t149.5 101.5t150 96q37 29 62.5 51.5t68.5 32.5q31 8 55.5 -1t48 -25.5t47 -35t54.5 -28.5q10 -4 21.5 -6t21.5 -6q61 49 132 98t138.5 89t123.5 69t89 37l17 4q12 -4 37.5 -8t27.5 -7l199 -282 q-2 -2 0 -15.5t-2 -23.5q-6 -53 -45 -97t-95.5 -84t-122 -77t-121.5 -74t-96 -77t-44 -85q-4 -25 9 -42t35.5 -27.5t50.5 -15.5t56 -5q45 0 72 8q45 12 82 31t74 35q43 23 81.5 26t34.5 -38q-2 -18 -36.5 -58.5t-88 -91.5t-117 -107.5t-124 -104.5t-110.5 -80.5t-75 -39.5 q-66 -16 -134 5.5t-130 62.5q-39 -37 -68.5 -67.5t-45.5 -47.5l-27 -6q-41 -10 -75 13.5t-60.5 55.5t-46 59.5t-31.5 25.5q-25 -6 -60.5 -47t-75.5 -89.5t-81 -90.5t-76 -50q-33 -8 -52.5 3.5t-37.5 25.5q-86 63 -104.5 154.5t-4.5 209.5zM604 289q-4 -10 10 -15l13 5 q6 6 16 17t20.5 23.5t18.5 24.5t8 18l58 496l-6 4q-7 4 -17 8q-10 8 -19.5 21.5t-17.5 15.5l-12 -2l-19 -57l-41 -356q-6 -47 -10 -97.5t-2 -105.5zM1343 807l17 9q16 9 35.5 22.5t38 29t20.5 25.5q0 2 -9 22.5t-18 30.5q-4 2 -14 12.5t-19.5 23.5t-16.5 24.5t-7 15.5z" />
<glyph unicode="&#xe7;" horiz-adv-x="974" d="M139 244l76 647q2 29 22.5 56.5t49 54t60.5 48t56 37.5q31 14 100.5 52.5t147.5 81.5t147.5 81.5t98.5 55.5q4 0 8 2t10 4q20 4 37 -10.5t30 -34t22.5 -35.5t15.5 -16q4 -12 19.5 -45t33 -68t32.5 -64.5t21 -37.5l1 -5q1 -6 1 -10q-6 -35 -49 -75.5t-97 -76.5 t-106.5 -62.5t-76.5 -32.5q-37 -8 -61.5 9t-40 43.5t-25.5 54.5t-21 40l-51 -432q-4 -31 20.5 -48.5t61.5 -23.5t76 -4t65 8q53 12 98.5 40t92.5 38q33 8 42 -8t5 -39q-2 -18 -6 -33q-8 -20 -24.5 -34.5t-51.5 -43.5q-18 -16 -62.5 -51t-97.5 -78t-108.5 -87t-98.5 -76 q84 -10 133.5 -54.5t38.5 -132.5q-4 -29 -10 -49t-17.5 -40.5t-27.5 -42t-43 -50.5l-96 -45q-86 -16 -140.5 3t-66.5 79q8 31 31.5 50t52.5 34.5t59.5 29t53.5 31.5q-41 25 -84 56.5t-72 66.5q-49 8 -101.5 32.5t-94.5 57.5t-67.5 73t-21.5 79z" />
<glyph unicode="&#xe8;" horiz-adv-x="1007" d="M279 317l65 557q2 37 42 84.5t99.5 98.5t132 101t142 91t127 70t88.5 37l20 6q12 -4 38 -8t28 -6l199 -283q-2 -2 -4.5 -17.5t-0.5 -25.5q-6 -51 -45 -94t-95 -83t-121.5 -77t-122 -75t-95.5 -76.5t-43 -84.5q-4 -25 9.5 -42t36 -27t50 -15.5t56.5 -5.5q43 0 69 9 q49 12 83 30.5t73 34.5q20 10 43 17.5t39 7.5q18 0 28.5 -8.5t8.5 -28.5q-2 -16 -37 -57t-88 -92.5t-117.5 -108t-125 -103.5t-111 -80.5t-74.5 -39.5q-68 -16 -140.5 5t-132 65t-95.5 103.5t-29 120.5zM649 1679l275 217l120 -258l2 -5q3 -5 -2 -7q-18 -49 -57 -81t-96 -85 q-8 -8 -30.5 3.5t-50.5 35t-58.5 53t-55 57t-39 47t-8.5 23.5zM723 727l17 9q16 9 35.5 22.5t36.5 29t19 25.5q2 2 -9 21.5t-17 29.5q-4 4 -13.5 15.5t-18.5 23.5t-16 23.5t-7 15.5z" />
<glyph unicode="&#xe9;" horiz-adv-x="1007" d="M276 317l68 557q2 37 42 84.5t99.5 98.5t132 101t142 91t127 70t88.5 37l20 6q12 -4 37 -8t29 -6l196 -283q0 -2 -2 -17.5t0 -25.5q-6 -51 -45 -94t-96 -83t-121.5 -77t-121 -75t-96.5 -76.5t-44 -84.5q-4 -25 9.5 -42t36 -27t51 -15.5t55.5 -5.5q61 0 102 16.5t76 35.5 q20 10 50 23t57.5 19.5t45 1t15.5 -33.5q-2 -16 -37 -57t-88 -92.5t-117.5 -108t-125 -103.5t-111 -80.5t-74.5 -39.5q-68 -16 -140.5 5t-133 65t-96.5 103.5t-30 120.5zM712 1543q-1 1 1 5l2 6l190 334l244 -92q2 -2 -17.5 -30.5t-52 -69.5t-71.5 -88t-75 -85t-61.5 -61.5 t-31.5 -17.5q-25 14 -45.5 23.5t-37 18.5t-27.5 22.5t-15 35.5q-2 -2 -3 -1zM723 725q2 2 18.5 12.5t36 23.5t35.5 27.5t18 24.5q2 2 -10 21.5t-18 29.5q-4 2 -12.5 13.5t-17.5 24.5t-16 24.5t-9 15.5z" />
<glyph unicode="&#xea;" horiz-adv-x="1007" d="M268 324l64 555q4 37 43 84t99.5 98t133 101t141 92t127 71t89.5 37l18 4q12 -4 38 -8t28 -4l198 -283q-2 -2 -3 -17.5t1 -25.5q-6 -51 -46 -95t-97.5 -84t-122 -77t-119.5 -75t-95 -76.5t-44 -83.5q-4 -25 9 -42.5t35.5 -27.5t50.5 -15.5t56 -5.5q45 0 72 9 q45 12 82 30.5t74 34.5q43 23 82 26t35 -38q-2 -18 -38 -58t-88.5 -91.5t-117 -107.5t-125 -103.5t-109.5 -81t-73 -39.5q-68 -16 -140.5 5t-133 65t-96.5 104.5t-28 122.5zM281 1427l589 367q10 6 57.5 4t111 -8t134 -16.5t128 -21.5t92 -21.5t28.5 -16.5l-340 -272 l-186 196q-16 -16 -53 -56t-79 -87t-81 -90t-59 -64q-10 -10 -41 -9t-70 9.5t-82 20.5t-78 25.5t-56.5 23.5t-14.5 16zM711 731l16 11q16 10 36.5 23t38 27.5t19.5 24.5q0 2 -12 22.5t-16 30.5q-4 2 -13.5 13.5t-18.5 24t-17.5 23.5t-8.5 15z" />
<glyph unicode="&#xeb;" horiz-adv-x="1007" d="M268 317q-6 -61 30 -120.5t95.5 -103.5t132 -65.5t140.5 -4.5q25 6 75 38.5t110 80.5t123.5 103.5t117 106.5t89.5 91t38 59q2 20 -8.5 28.5t-28.5 8.5q-16 0 -38 -7.5t-44 -17.5q-37 -16 -73 -34.5t-83 -30.5q-29 -6 -70 -7q-39 0 -74.5 8.5t-59 28t-19.5 51.5 q4 45 44 85t96.5 77t121 75t121.5 77t96 83t45 95q2 10 2 25q0 16 2 18l-198 283q-2 0 -28 4t-38 8l-20 -4q-31 -8 -89.5 -37t-127 -71t-140 -92t-132 -101t-99.5 -98.5t-43 -84.5zM408 1518q-4 -33 10 -62t40.5 -49.5t62.5 -28.5t73 2q33 8 65.5 29t58 47.5t43 58 t21.5 62.5q10 104 -40 139t-173 21q-27 -25 -54.5 -50.5t-50 -53t-37.5 -56.5t-19 -59zM713 725l24 215q0 -4 7.5 -15.5t16.5 -24.5t19.5 -23.5t14.5 -12.5q6 -10 16 -30.5t10 -22.5q-2 -10 -19.5 -25.5t-37 -29t-27.5 -18.5zM987 1659q-6 -35 9.5 -63.5t43 -49t63.5 -28 t71 3.5q33 8 65.5 28.5t59 47t43 58.5t20.5 62q10 104 -39 140t-174 20q-25 -23 -52.5 -48.5t-50 -53t-40 -57t-19.5 -60.5z" />
<glyph unicode="&#xec;" horiz-adv-x="724" d="M324 815q-10 -10 2 -27.5t26 -25.5q10 -4 39 -9t41 -1l-63 -555q-2 -23 18.5 -52.5t51 -57.5t65.5 -44t59 -10q31 6 86.5 47t111.5 94t99 104.5t47 79.5q8 76 -102 35q-2 16 -2 64q0 47 1 100t3 101.5t2 66.5q6 45 25.5 74.5t43 53.5t42 45.5t20.5 49.5q0 6 -2 12l-2 5 l-213 157q-29 20 -52.5 18.5t-41 -12t-28.5 -23.5t-15 -15zM483 1534q-4 -2 10.5 -22.5t38 -48t53 -57.5t57.5 -53.5t50.5 -35.5t30.5 -2q31 27 54.5 46t43 36.5t34.5 37t26 46.5q4 2 2 7l-2 5l-121 258z" />
<glyph unicode="&#xed;" horiz-adv-x="724" d="M326 815l262 275q6 4 21.5 22t45.5 27q37 8 68 -17l215 -157l1 -5q1 -6 1 -12q-2 -29 -20.5 -50t-41 -45t-42 -53.5t-25.5 -74.5q-4 -18 -5 -66.5t-2 -101.5t0 -100t3 -64q109 39 100 -35q-2 -18 -22.5 -47.5t-52 -64.5t-70.5 -71t-76 -66.5t-69.5 -51t-51.5 -24.5 q-25 -6 -59.5 10t-65 44t-51 57.5t-18.5 52.5l63 555q-6 -2 -18.5 -1t-25.5 3t-24.5 4t-13.5 6q-14 6 -25.5 23.5t-0.5 27.5zM492 1399l2 6l190 332l242 -90q4 -2 -15.5 -31t-52.5 -70t-74 -87t-76.5 -85t-60 -62.5t-29.5 -17.5q-25 14 -45 23.5t-36.5 19t-27.5 21.5t-15 35 q-6 0 -2 6z" />
<glyph unicode="&#xee;" horiz-adv-x="724" d="M145 1294l525 346q12 8 54 7.5t97.5 -10t114.5 -22.5t109.5 -25.5t83 -24t30.5 -15.5l-303 -260l-166 195q-12 -14 -44 -53t-69.5 -83t-74.5 -86t-56 -61q-10 -10 -36.5 -8t-61.5 11t-71.5 22.5t-67.5 27t-49.5 24.5t-14.5 15zM313 825l262 275q6 4 20.5 22.5t47.5 26.5 q37 8 68 -16l215 -158l1 -5t1 -12q-4 -29 -22.5 -50t-41 -44.5t-42 -54.5t-25.5 -76q-4 -18 -5 -66.5t-2.5 -101.5t0 -100t3.5 -64q109 43 102 -34q-2 -27 -44 -78t-99.5 -103.5t-113.5 -94.5t-85 -50q-25 -6 -59.5 11.5t-65.5 44t-51.5 57t-18.5 53.5l64 555 q-6 -2 -18.5 -1t-24.5 2t-23.5 4t-15.5 5q-14 8 -25.5 25.5t-1.5 27.5z" />
<glyph unicode="&#xef;" horiz-adv-x="724" d="M252 1372q-4 -33 11.5 -61.5t42 -48t61 -27.5t71.5 2q35 8 67 28.5t58.5 47t43 58.5t20.5 63q12 104 -38 137.5t-175 19.5q-51 -49 -102.5 -103t-59.5 -116zM313 815q-10 -10 2.5 -27.5t26.5 -25.5q10 -4 39 -9t41 -1l-64 -555q-2 -23 18.5 -53.5t51.5 -58.5t65.5 -44 t59.5 -10q31 8 86 50t111.5 94t99.5 103.5t47 77.5q6 76 -104 35q-4 18 -5 64q0 47 2.5 100t4.5 101.5t4 66.5q4 45 24.5 75.5t43 54.5t42 45.5t21.5 49.5q0 6 -2 12l-2 5l-213 157q-29 20 -52.5 18.5t-41 -12t-28.5 -23.5t-16 -15zM776 1503q-6 -35 9.5 -63.5t42 -48 t61.5 -27.5t72 0q33 8 65.5 28.5t58 47t43 58.5t21.5 65q10 104 -38 137.5t-177 19.5q-53 -47 -102.5 -102t-55.5 -115z" />
<glyph unicode="&#xf0;" horiz-adv-x="1007" d="M229 283l1 14t-1 25q4 37 29 72.5t61.5 67.5t83 61.5t93.5 56.5q66 37 121 73.5t94 75.5q41 41 46 86t-36 64q-63 -37 -102 -60.5t-33 -17.5l65 100q-16 2 -30.5 3t-28.5 1q-39 0 -73 -11t-66.5 -26.5t-64.5 -31t-66 -25.5q-33 -8 -50.5 -2t-13.5 35q2 16 37 57t88 92 t117.5 107.5t125 103.5t110.5 81t75 40q57 14 120.5 -1t117.5 -50l163 92l5 2q2 0 4 -1t4 -1q-4 -35 -24.5 -72t-57.5 -96q33 -39 51 -83t14 -87l-63 -555q-4 -37 -44 -84t-100.5 -98t-133 -101.5t-141.5 -92.5t-127 -70.5t-89 -36.5l-18 -4q-12 4 -37 8t-27 6zM655 535 q0 -2 9.5 -23t15.5 -31q6 -4 15.5 -14t18.5 -22.5t17 -22.5t8 -16l25 215l-16 -11q-17 -10 -37.5 -23.5t-37 -28.5t-18.5 -23z" />
<glyph unicode="&#xf1;" horiz-adv-x="1361" d="M276 156q2 6 18.5 23.5t36 37t37 35.5t21.5 20l64 557q2 23 -18.5 22t-46.5 -5t-47.5 1t-16.5 40q2 8 5 18t1 13q31 37 69.5 81.5t83.5 89t92.5 84t90.5 66.5l18 4q41 10 76 -3t63.5 -38.5t50 -56.5t37.5 -55q39 27 89.5 73.5t101.5 95t101 87t93 49.5q2 0 10 1l7 1 q2 -2 18.5 -16.5t38 -31t39.5 -29.5t25 -13l127 -60q16 -8 37.5 -25.5t21.5 -19.5q0 -8 -9 -23.5t-20.5 -33t-25 -31.5t-23.5 -20l-63 -557q37 -2 68.5 -13.5t27.5 -52.5q-4 -18 -6 -31q-8 -16 -25.5 -31.5t-52.5 -48.5l-295 -251q-4 0 -14.5 -6.5t-20.5 -10.5 q-18 -4 -53 8.5t-67.5 34t-56 48t-19.5 50.5l84 740l-48 18l-38 -39l-70 -616q4 -6 14.5 -26.5t12.5 -26.5l-2 -19l-3 -14l-36 -37q-33 -29 -82 -72t-95.5 -83t-80 -68.5t-35.5 -28.5l-37 -8l-215 127q-6 4 -18.5 12t-22.5 19.5t-16.5 23t-0.5 21.5zM442 1456l340 273 l179 -101q29 35 63.5 81t83.5 93q10 10 50 11.5t95.5 -4t116 -14.5t110.5 -18.5t80.5 -18.5t26.5 -15l-344 -275l-156 82q-29 -29 -74.5 -69.5t-92.5 -85.5q-10 -10 -52 -11q-47 0 -121.5 8.5t-145.5 19.5t-119 23.5t-40 20.5z" />
<glyph unicode="&#xf2;" d="M260 197l2 20q2 23 14.5 40t45.5 26l77 678q0 6 34 23t87 40t117.5 49.5t125 53t110 49t73.5 38.5q8 4 40 23.5t66.5 43.5t65.5 45.5t39 29.5q59 0 104.5 -29t78 -72t52 -95t29.5 -101l-4 -47q-4 -35 -6 -69t-6 -69l-6 -47q-12 -111 -21.5 -181.5t-26 -117.5t-43 -79.5 t-71.5 -66.5t-112.5 -76t-166.5 -109q-6 -6 -32.5 -31t-58 -53.5t-59.5 -52t-34 -27.5l-11 -3t-22 -7q-31 -8 -78 -4t-101 16t-109.5 30.5t-98.5 41t-69.5 46.5t-24.5 44zM653 1620l277 217l121 -256l1 -5q1 -5 -3 -7q-18 -49 -57.5 -82t-96.5 -86q-8 -8 -30.5 4t-51.5 35.5 t-58.5 54.5t-54 57.5t-38 46t-9.5 21.5zM819 434q-2 -20 20.5 -23t45.5 3l57 499q2 20 -18.5 44t-40.5 32z" />
<glyph unicode="&#xf3;" d="M252 195l4 22q2 23 15.5 40t45.5 24l78 680q0 6 34 22t87 40t116.5 50.5t124 53t109.5 49t74 38.5q6 2 37 20.5t67.5 42t69.5 46.5t39 33q57 0 103.5 -29t78 -72t52 -95t30.5 -101l-4 -47l-8 -70t-6 -70l-6 -45q-14 -113 -24.5 -183.5t-27 -117.5t-42 -78.5t-69.5 -65.5 t-110.5 -76t-165.5 -109q-8 -6 -35.5 -31t-58.5 -52.5t-57.5 -52t-34.5 -28.5l-10 -4t-21 -6q-29 -6 -77 -2t-102 15t-109.5 29.5t-99.5 39t-71.5 44t-25.5 46.5zM750 1472l4 7l188 329l242 -92q2 -2 -17.5 -29.5t-51.5 -67.5t-69.5 -87t-73.5 -85t-62.5 -62.5t-35.5 -20.5 q-25 14 -45 23.5t-35.5 19.5t-25.5 23.5t-14 35.5q-8 -2 -4 6zM815 434q-4 -20 18.5 -23t45.5 1l57 501q4 18 -16.5 43t-40.5 33z" />
<glyph unicode="&#xf4;" d="M252 193l2 22q4 23 17.5 40t45.5 26l78 677q0 6 34 23.5t87 40t116.5 49.5t124 53.5t109.5 49t74 38.5q6 4 38 23.5t67.5 42t67.5 44t40 32.5q57 0 102 -29t78 -72t53.5 -95t30.5 -101l-6 -47q-4 -35 -7 -69t-5 -69l-6 -47q-12 -111 -22.5 -181.5t-26 -117.5t-43 -79.5 t-71.5 -66.5t-111.5 -76t-166.5 -109q-6 -6 -32.5 -31t-57.5 -53.5t-57.5 -52t-34.5 -27.5l-11 -3t-22 -8q-29 -8 -77 -4t-103 15.5t-110.5 31t-99.5 41t-70.5 45.5t-24.5 44zM381 1446l592 364q12 6 59 5.5t109.5 -7t132 -17.5t127 -22.5t93.5 -20.5t32 -15l-342 -275 l-187 197q-16 -16 -53 -56t-78 -86.5t-79.5 -89.5t-59.5 -65q-10 -10 -41 -9t-71 9t-83 20.5t-77.5 25.5t-56 24.5t-17.5 17.5zM815 432q-4 -20 18.5 -23t45.5 3l57 499q4 20 -16.5 44t-40.5 32z" />
<glyph unicode="&#xf5;" d="M248 193l2 22q4 23 16.5 39t44.5 25l80 679q0 6 34 22.5t85 40t115.5 50.5t124 53.5t109.5 49t75 36.5q6 4 38 23.5t68.5 42t68.5 45t40 33.5q57 0 102 -29t78 -72t53.5 -95t30.5 -101l-6 -47q-4 -35 -7 -70t-7 -70l-4 -45q-12 -111 -22.5 -181.5t-27 -118.5t-43 -80.5 t-71.5 -65.5t-113 -75t-164 -109q-8 -6 -34.5 -31t-57.5 -52.5t-57.5 -52t-34.5 -28.5l-12 -4q-11 -4 -19 -7q-29 -8 -77 -4t-103 15.5t-110.5 31t-99.5 41t-70.5 45.5t-24.5 44zM377 1444l340 274l178 -102q29 35 62.5 82t84.5 94q8 8 50 8q41 0 95 -5t115.5 -13 t111.5 -17.5t81 -18.5t27 -13l-342 -275l-160 80q-29 -29 -73 -67.5t-91 -84.5q-10 -10 -51 -11t-96.5 4t-116 13.5t-110.5 17.5t-80.5 18.5t-24.5 15.5zM811 432q-4 -20 18.5 -23t44.5 1l58 501q2 18 -18 43t-40 33z" />
<glyph unicode="&#xf6;" d="M248 195q-2 -23 24.5 -45.5t71.5 -45t100.5 -41t109.5 -31t102.5 -15.5t76.5 6q10 2 21 5l10 3q8 4 34.5 27.5t57.5 52t57.5 53t34.5 31.5q98 68 166 110.5t112 75.5t69.5 65.5t42 79.5t26.5 119t25 182l6 45q2 35 5 69t7 69l6 49q-10 49 -29.5 101t-52.5 95t-78 72 t-104 29q-10 -8 -41 -29.5t-66.5 -46.5t-67.5 -44t-40 -24q-25 -14 -75 -36.5t-109.5 -49t-124 -53t-115.5 -50.5l-85 -40t-34 -22l-78 -680q-33 -8 -46 -24.5t-15 -39.5zM436 1473q-6 -35 9.5 -64t42 -49.5t61.5 -27.5t72 3q35 8 67.5 28.5t58 47.5t42 58.5t20.5 62.5 q10 104 -37 139t-176 19q-25 -25 -52.5 -50.5t-50 -52t-39 -55.5t-18.5 -59zM811 432l63 557q20 -10 41 -33.5t17 -44.5l-58 -499q-23 -4 -45 -1t-18 21zM1075 1630q-6 -35 9.5 -63.5t42 -48t62.5 -27.5t70.5 0t66.5 28.5t58.5 47t44 58.5t21.5 65q10 104 -40 138.5 t-173 20.5q-27 -25 -54.5 -50t-50 -53t-39 -56.5t-18.5 -59.5z" />
<glyph unicode="&#xf7;" horiz-adv-x="925" d="M195 471q-8 -4 34 -4q33 0 88.5 2t119 6t130 9t122.5 11.5t96 11.5t51 11q45 29 79.5 49.5t63.5 37t51.5 31.5t40.5 38q2 2 -1 5l-3 3l-438 10zM455 172q-4 -33 11 -61.5t43 -48t62.5 -27.5t69.5 0q33 8 65.5 28.5t58.5 47t43 58.5t21 64q12 100 -38 136t-175 22 q-27 -25 -54 -50.5t-50 -53t-38 -56t-19 -59.5zM541 911q-4 -35 11 -63.5t42 -48t62.5 -27.5t70.5 0q33 8 65.5 28.5t58.5 47t43 58.5t21 65q10 104 -40 137.5t-173 19.5l-54 -50t-50 -52t-39 -55.5t-18 -59.5z" />
<glyph unicode="&#xf8;" d="M180 186l2 21q4 23 16.5 40t45.5 25l78 678q0 6 33.5 22.5t87 40t117 51.5t124.5 54.5t110.5 49t73.5 36.5q6 4 37 23.5t68 42t68.5 45t39.5 33.5q57 -2 101.5 -31t77 -72t54 -95t32.5 -101l-7 -48q-4 -35 -7 -68.5t-7 -68.5l-4 -45q-12 -111 -22.5 -181.5t-26 -118.5 t-43 -80.5t-71.5 -66.5t-111.5 -76t-165.5 -110q-8 -6 -35 -30.5t-57.5 -52t-57 -52t-35.5 -28.5l-11 -3q-11 -4 -19 -6q-29 -8 -77 -5t-103.5 15.5t-111 31t-99.5 41t-70.5 46t-24.5 43.5zM741 424q0 -8 7.5 -7t19.5 5t26.5 10t26.5 10l8 164l-75 -78zM778 733l90 117 l-6 53q-4 18 -20.5 43t-34.5 35z" />
<glyph unicode="&#xf9;" horiz-adv-x="1361" d="M291 188v5q0 6 2 14q0 2 1 7l1 5q4 4 14 11.5t21.5 14.5t21.5 13t15 8q10 10 24.5 23.5t14.5 15.5l61 537q-25 -6 -50.5 -16.5t-45 -13.5t-30.5 6t-7 42q2 25 11 40t23.5 29.5t35 32t49.5 46.5q16 12 53 47t78 74.5t76.5 73.5t50.5 46q8 2 18 5t19 6q57 14 97 -18 t62.5 -84t30.5 -111.5t4 -100.5q-2 -35 -11 -121t-20 -186q-6 -49 -13 -98t-12 -90t-10.5 -73t-7.5 -50l16 10q17 10 37.5 23.5t39 27.5t20.5 25l63 557q-6 6 -14 20.5t-17 31.5t-15.5 32.5t-6.5 21.5l2 17l2 14q96 59 179 132t151 159q10 -6 32.5 -20.5t51.5 -33t59.5 -36 t55.5 -29.5q33 -23 48 -33l21 -14t7.5 -6t5.5 -8v-21q-6 -43 -26.5 -71.5t-61.5 -71.5l-66 -555q-4 -25 17.5 -24t48 6t48 0t17.5 -42q-4 -33 -47 -85t-99.5 -102t-114.5 -90t-95 -48q-47 -12 -79 3t-59.5 36.5t-57.5 39t-75 7.5q-47 -12 -91 -46t-85 -73t-82 -72t-84 -43 l-18 -6q-18 12 -63.5 33.5t-95.5 50.5t-92 65.5t-54 77.5zM836 1665l278 219l121 -258l2 -5t-4 -7q-10 -27 -24.5 -46.5t-34 -37t-44 -36.5t-53.5 -46q-10 -10 -32.5 1t-50 34.5t-56.5 54.5t-52.5 58.5t-37.5 47t-12 21.5z" />
<glyph unicode="&#xfa;" horiz-adv-x="1361" d="M292 194q-1 5 1 13q0 2 1 7l1 5q10 8 36.5 25.5t37.5 21.5l23.5 23.5t13.5 15.5l63 537q-27 -6 -52.5 -16.5t-45 -13.5t-30.5 6t-7 42q2 25 11 40t23.5 29.5t35 32t49.5 46.5q14 12 51 45.5t79 72.5t77.5 74t52.5 49q8 2 17 5l18 6q57 14 97 -18t62.5 -84t30.5 -111.5 t4 -100.5q-2 -35 -10 -121t-21 -186q-4 -49 -11 -98t-13 -90t-11.5 -73t-5.5 -50q2 2 18.5 12t37 23.5t37 28t18.5 24.5l63 555q-6 6 -14 21.5t-16 31.5t-14.5 31.5t-8.5 21.5l2 17l2 14q193 119 330 291q10 -6 32.5 -20.5t50.5 -33t58.5 -36t57.5 -29.5q31 -23 48 -32 t24.5 -13t9.5 -6t2 -10l-2 -21q-4 -41 -25.5 -70.5t-62.5 -72.5l-66 -555q-4 -25 17.5 -24t48 6t48 0t19.5 -42q-4 -33 -48 -85t-100.5 -102t-115.5 -90t-94 -48q-47 -12 -79 3t-59.5 36.5t-57.5 39t-75 7.5q-47 -12 -91 -46t-85 -73t-82 -72t-84 -43l-16 -4 q-18 12 -64.5 33.5t-96.5 50.5t-93 64.5t-51 76.5zM902 1545l5 7l187 332l241 -92q2 0 -17.5 -27.5t-51 -68.5t-70.5 -88t-74 -86t-61.5 -62.5t-34.5 -17.5q-23 14 -43 23.5t-36.5 18.5t-28 21.5t-13.5 34.5q-8 -2 -3 5z" />
<glyph unicode="&#xfb;" horiz-adv-x="1361" d="M279 186v19q2 2 3 7l1 5q10 10 35.5 26.5t35.5 20.5l24.5 24.5t14.5 16.5l60 535q-25 -6 -50.5 -16.5t-45 -13.5t-30 6t-5.5 42q2 25 10 40t22.5 29.5t35 32t48.5 46.5q16 12 53 46.5t78 72.5t77 73t52 49q6 2 16.5 5t20.5 5q57 14 96 -17.5t63 -83.5t31 -111.5t5 -100.5 q-4 -35 -13.5 -121t-19.5 -186q-6 -49 -12 -98.5t-10.5 -90t-9.5 -72.5t-9 -48l18 10q17 10 37.5 23.5t38 27.5t19.5 25l63 555q-6 6 -14 21.5t-16.5 31.5t-14.5 31.5t-8 21.5l2 17v14q193 121 332 291q10 -6 32.5 -20.5t50 -33t58.5 -36t57 -29.5q31 -23 46.5 -32t23.5 -13 t10 -6t2 -10l-2 -21q-4 -41 -24.5 -69.5t-63.5 -73.5l-63 -553q-4 -27 16.5 -26t47 5t48 0t17.5 -41q-4 -33 -46 -84t-98.5 -101t-115 -90t-95.5 -48q-47 -12 -78.5 4t-59 37.5t-58.5 38t-76 4.5q-47 -12 -90 -46t-85 -73t-83 -72t-84 -43l-16 -4q-18 12 -64.5 33.5 t-97.5 50.5t-93 64.5t-50 76.5zM463 1417l590 365q12 6 59 5t109.5 -7t132 -17.5t127 -22.5t93.5 -20.5t32 -15.5l-340 -274l-187 196q-16 -16 -52 -55t-78 -85t-82 -89t-62 -68q-10 -10 -40 -8t-70 9t-83 20.5t-77.5 27t-56 23.5t-15.5 16z" />
<glyph unicode="&#xfc;" horiz-adv-x="1361" d="M283 186q10 -41 52 -77.5t92 -66.5t97 -50.5t66 -30.5l14 4q43 10 85 44t83 72t85 72.5t91 47.5q45 10 75 -7.5t57.5 -39t59 -37t79.5 -2.5q37 8 95 48t114.5 90t98.5 101.5t46 83.5q4 39 -16.5 43t-47 0t-48 -6t-17.5 25l63 553q43 45 63.5 73.5t24.5 69.5l2 23 q4 10 -2 14t-30 14q-16 8 -52 29.5t-75 45.5t-74 45.5t-47 29.5q-137 -172 -330 -289l-2 -16l-2 -17q2 -6 8 -21.5t14.5 -32.5t16.5 -31.5t14 -20.5l-63 -555q-2 -10 -20.5 -25.5t-39 -29t-37.5 -22.5l-16 -9q4 16 9 48t9.5 72.5t11.5 90t11 98.5q10 104 19.5 188t13.5 119 q2 39 -6 99.5t-31 112.5t-61.5 85t-96.5 19q-10 -4 -19 -6.5t-15 -4.5q-16 -12 -52.5 -47t-77 -75t-77.5 -74.5t-56 -46.5q-29 -29 -49 -46.5t-34.5 -32t-22.5 -29.5t-10 -40q-4 -35 6 -43t30.5 -5t46 14.5t52.5 17.5l-64 -537q0 -2 -14 -16.5t-25 -24.5q-10 -4 -35.5 -20.5 t-35.5 -24.5l-1 -5t-1 -7q-2 -8 -2 -14v-7zM557 1509q-6 -35 9.5 -63.5t42 -48t62.5 -27.5t70 0q33 8 66 28.5t58.5 47.5t43 58.5t21.5 64.5q10 104 -38 137.5t-175 19.5q-27 -25 -54.5 -50t-50 -52t-38 -55.5t-17.5 -59.5zM1194 1665q-4 -33 11.5 -61.5t42 -48t61 -27.5 t71.5 0q35 8 67 28.5t57.5 47t43 58.5t23.5 64q10 100 -40 137t-173 23q-53 -49 -104.5 -103t-59.5 -118z" />
<glyph unicode="&#xfd;" horiz-adv-x="911" d="M256 219q12 94 42 178t40 185q6 61 1 113.5t-13.5 101.5t-14.5 99t0 110q16 125 81 220t196 128q39 10 58.5 2t35.5 -51q-12 -14 -30.5 -28.5l-37 -29t-33 -28t-14.5 -25.5q-2 -2 -1 -9l1 -7l148 -136l76 50l182 151l6 2q6 2 10 4q2 0 9 1l8 1l98 -88q23 -10 33 -36.5 t14 -49.5l-100 -852q-4 -45 -34 -100t-76 -112.5t-101.5 -113t-111.5 -100.5t-107.5 -75.5t-88.5 -38.5q-6 -2 -23 -7.5t-35.5 -6.5t-32 3.5t-13.5 20.5q66 68 110 116t72.5 93t45 95t26.5 124v20q0 18 4 37q4 20 4 37q0 18 2 27q-12 -12 -45 -40t-68.5 -58.5t-66.5 -57.5 t-41 -37l-7 -2t-11 -4q-31 -6 -68 6t-66.5 37t-48 59.5t-14.5 71.5zM656 1546l3 6l189 332l242 -90q4 0 -15.5 -27.5t-52.5 -68.5t-72 -89t-74.5 -87t-62.5 -62.5t-33 -17.5q-25 12 -45 21.5t-36.5 19.5t-26.5 23.5t-15 33.5q-4 0 -1 6zM676 403q49 12 74 60l4 37 q4 29 9 53.5t9 52.5l4 37l17 141q4 41 -2.5 72.5t-20.5 58.5l-39 -43z" />
<glyph unicode="&#xfe;" horiz-adv-x="946" d="M190 303q-4 -29 5.5 -46t40.5 -9q14 2 24 11t20.5 19.5t20.5 19.5t27 13q4 0 16 1t16 1q0 -27 -2 -77t-2 -109t4.5 -119.5t16.5 -107.5t35.5 -73t60.5 -15q18 4 27.5 11t16.5 20.5t13.5 35t18.5 53.5q2 8 11 26.5t18.5 40t18.5 43t13 34.5q2 8 38 35.5t88 65.5t112.5 82 t112 83t87 69.5t37.5 43.5l68 575q0 10 -11.5 40t-30.5 60.5t-43 51t-48 14.5q-23 -6 -66 -38t-87 -68.5t-77.5 -65.5t-35.5 -29q-12 27 -24.5 74t-30 95t-39 86t-52.5 44l76 86q-6 16 -16.5 21.5t-24.5 4.5t-28.5 -6t-28.5 -7q-115 -29 -170.5 -100.5t-65.5 -178.5 q-6 -53 1 -92t16.5 -76t17.5 -77t2 -95q-6 -61 -34.5 -114.5t-61.5 -104.5t-61.5 -103.5t-34.5 -109.5zM698 520l35 307l37 41l29 -24l-43 -373z" />
<glyph unicode="&#xff;" horiz-adv-x="911" d="M246 211q10 92 39.5 177t42.5 183q8 63 2 115.5t-14.5 102t-14.5 99.5t2 109q16 125 79.5 220.5t192.5 128.5q41 10 59.5 1.5t35.5 -51.5q-12 -14 -30.5 -28.5t-37 -28.5t-33 -27.5t-14.5 -25.5v-19l152 -133l71 49l183 152l6 2q6 2 14 4h14l97 -86q23 -10 33 -36.5 t14 -49.5l-97 -852q-6 -45 -35.5 -100.5t-75.5 -112.5t-101.5 -112.5t-111.5 -100.5t-108.5 -75.5t-89.5 -41.5q-8 -2 -24.5 -6t-34 -6t-30.5 3.5t-13 21.5q66 68 109.5 115.5t73.5 93t45.5 95.5t23.5 124q2 4 3 21.5t1 35.5q4 20 6 37.5t0 26.5q-12 -12 -44 -40t-66.5 -59 t-66.5 -57.5t-44 -36.5l-7 -3q-6 -3 -8 -3q-31 -6 -67.5 5t-67 35.5t-49 58.5t-14.5 75zM379 1524q2 31 18.5 59.5t39 56t50 53t54.5 50.5q123 14 174 -19.5t37 -138.5q-4 -33 -20.5 -64.5t-42 -59t-58.5 -48t-68 -29t-69.5 0t-62.5 28t-43 48t-9 63.5zM666 395q47 12 71 60 l4 34q4 29 9.5 53.5t11.5 53.5l4 39l14 139q8 80 -22 133l-39 -43zM897 1649q2 31 18.5 60.5t40 57t50 53t51.5 48.5q125 16 176 -20t39 -136q-4 -33 -20.5 -65.5t-42 -59t-58.5 -47t-70 -29.5q-37 -10 -71.5 -1.5t-61 29t-41 49t-10.5 61.5z" />
<glyph unicode="&#x152;" horiz-adv-x="1699" d="M168 156l76 647q2 29 23.5 56.5t49 53t59.5 47t56 37.5q31 14 100.5 52t148.5 81.5t147.5 82t97.5 55.5q4 2 8 3t10 3q20 6 37.5 -8.5t30 -33t21.5 -35.5t16 -17q4 -12 14 -34t27 -48q55 57 132.5 114.5t155.5 105.5t145.5 81t102.5 41l19 4q16 -2 37.5 -6t25.5 -6 l199 -283q2 -2 0 -16.5t0 -24.5q-6 -51 -46 -95t-96.5 -84t-122 -77t-122 -75t-96.5 -78t-44 -85q-4 -35 18.5 -53t57.5 -27.5t76 -8.5t72 7q31 8 57.5 20.5t51 25t49 23.5t53.5 17q33 8 50 2t13 -34q-2 -18 -37 -58.5t-88 -91.5t-116.5 -106.5t-124 -103.5t-110.5 -80.5 t-77 -39.5q-45 -10 -93 -3.5t-94 25.5t-87 50t-70 68q-39 -31 -99.5 -80t-122 -98.5t-114.5 -90t-74 -55.5q-2 0 -13 -3t-21 -7q-45 -10 -111 7.5t-124 53t-98 83.5t-36 100zM629 418q-4 -33 20.5 -50.5t61.5 -23.5t75.5 -4t65.5 8t43 13.5t29 13.5l2 26l43 369 q-94 -55 -140 -68q-39 -10 -63.5 7.5t-39.5 45t-25.5 55.5t-20.5 40zM1374 809q4 2 26.5 17.5t50.5 37t30 31.5q0 2 -9.5 22.5t-15.5 30.5q-6 4 -15 14.5t-18.5 22.5t-16.5 22.5t-7 16.5z" />
<glyph unicode="&#x153;" horiz-adv-x="1699" d="M168 156l76 647q2 29 23.5 56.5t49 53t59.5 47t56 37.5q31 14 100.5 52t148.5 81.5t147.5 82t97.5 55.5q4 2 8 3t10 3q20 6 37.5 -8.5t30 -33t21.5 -35.5t16 -17q4 -12 14 -34t27 -48q55 57 132.5 114.5t155.5 105.5t145.5 81t102.5 41l19 4q16 -2 37.5 -6t25.5 -6 l199 -283q2 -2 0 -16.5t0 -24.5q-6 -51 -46 -95t-96.5 -84t-122 -77t-122 -75t-96.5 -78t-44 -85q-4 -35 18.5 -53t57.5 -27.5t76 -8.5t72 7q31 8 57.5 20.5t51 25t49 23.5t53.5 17q33 8 50 2t13 -34q-2 -18 -37 -58.5t-88 -91.5t-116.5 -106.5t-124 -103.5t-110.5 -80.5 t-77 -39.5q-45 -10 -93 -3.5t-94 25.5t-87 50t-70 68q-39 -31 -99.5 -80t-122 -98.5t-114.5 -90t-74 -55.5q-2 0 -13 -3t-21 -7q-45 -10 -111 7.5t-124 53t-98 83.5t-36 100zM629 418q-4 -33 20.5 -50.5t61.5 -23.5t75.5 -4t65.5 8t43 13.5t29 13.5l2 26l43 369 q-94 -55 -140 -68q-39 -10 -63.5 7.5t-39.5 45t-25.5 55.5t-20.5 40zM1374 809q4 2 26.5 17.5t50.5 37t30 31.5q0 2 -9.5 22.5t-15.5 30.5q-6 4 -15 14.5t-18.5 22.5t-16.5 22.5t-7 16.5z" />
<glyph unicode="&#x178;" horiz-adv-x="911" d="M246 211q10 92 39.5 177t42.5 183q8 63 2 115.5t-14.5 102t-14.5 99.5t2 109q16 125 79.5 220.5t192.5 128.5q41 10 59.5 1.5t35.5 -51.5q-12 -14 -30.5 -28.5t-37 -28.5t-33 -27.5t-14.5 -25.5v-19l152 -133l71 49l183 152l6 2q6 2 14 4h14l97 -86q23 -10 33 -36.5 t14 -49.5l-97 -852q-6 -45 -35.5 -100.5t-75.5 -112.5t-101.5 -112.5t-111.5 -100.5t-108.5 -75.5t-89.5 -41.5q-8 -2 -24.5 -6t-34 -6t-30.5 3.5t-13 21.5q66 68 109.5 115.5t73.5 93t45.5 95.5t23.5 124q2 4 3 21.5t1 35.5q4 20 6 37.5t0 26.5q-12 -12 -44 -40t-66.5 -59 t-66.5 -57.5t-44 -36.5l-7 -3q-6 -3 -8 -3q-31 -6 -67.5 5t-67 35.5t-49 58.5t-14.5 75zM379 1524q2 31 18.5 59.5t39 56t50 53t54.5 50.5q123 14 174 -19.5t37 -138.5q-4 -33 -20.5 -64.5t-42 -59t-58.5 -48t-68 -29t-69.5 0t-62.5 28t-43 48t-9 63.5zM666 395q47 12 71 60 l4 34q4 29 9.5 53.5t11.5 53.5l4 39l14 139q8 80 -22 133l-39 -43zM897 1649q2 31 18.5 60.5t40 57t50 53t51.5 48.5q125 16 176 -20t39 -136q-4 -33 -20.5 -65.5t-42 -59t-58.5 -47t-70 -29.5q-37 -10 -71.5 -1.5t-61 29t-41 49t-10.5 61.5z" />
<glyph unicode="&#x2c6;" horiz-adv-x="1177" d="M592 1470q-6 -6 14.5 -16t55 -23.5t77.5 -26.5t83 -20.5t71 -9.5t41 8q20 23 60 66t83 89t80 86t51 56l185 -196l342 274q4 6 -32 16.5t-93.5 21.5t-127 21.5t-133 16.5t-109.5 7t-58 -5z" />
<glyph unicode="&#x2dc;" horiz-adv-x="1177" d="M592 1491q-6 -6 25.5 -14.5t82 -18.5t110.5 -19t115.5 -14.5t96.5 -4.5t49 12q49 45 94 84.5t74 68.5l158 -82l344 275q6 6 -26 15t-82 18.5t-111.5 18.5t-117.5 14t-96 4t-48 -11q-49 -47 -83 -93t-65 -81l-174 102z" />
<glyph unicode="&#x2000;" horiz-adv-x="964" />
<glyph unicode="&#x2001;" horiz-adv-x="1929" />
<glyph unicode="&#x2002;" horiz-adv-x="964" />
<glyph unicode="&#x2003;" horiz-adv-x="1929" />
<glyph unicode="&#x2004;" horiz-adv-x="643" />
<glyph unicode="&#x2005;" horiz-adv-x="482" />
<glyph unicode="&#x2006;" horiz-adv-x="321" />
<glyph unicode="&#x2007;" horiz-adv-x="321" />
<glyph unicode="&#x2008;" horiz-adv-x="241" />
<glyph unicode="&#x2009;" horiz-adv-x="385" />
<glyph unicode="&#x200a;" horiz-adv-x="107" />
<glyph unicode="&#x2010;" horiz-adv-x="733" d="M258 633l342 274l324 -114l3 -5q3 -4 -3 -8q-12 -29 -31 -52t-41.5 -47t-52 -49.5t-64.5 -58.5q-10 -10 -51 -11t-95 4t-115.5 14.5t-111 18.5t-80 18.5t-24.5 15.5z" />
<glyph unicode="&#x2011;" horiz-adv-x="733" d="M258 633l342 274l324 -114l3 -5q3 -4 -3 -8q-12 -29 -31 -52t-41.5 -47t-52 -49.5t-64.5 -58.5q-10 -10 -51 -11t-95 4t-115.5 14.5t-111 18.5t-80 18.5t-24.5 15.5z" />
<glyph unicode="&#x2012;" horiz-adv-x="733" d="M258 633l342 274l324 -114l3 -5q3 -4 -3 -8q-12 -29 -31 -52t-41.5 -47t-52 -49.5t-64.5 -58.5q-10 -10 -51 -11t-95 4t-115.5 14.5t-111 18.5t-80 18.5t-24.5 15.5z" />
<glyph unicode="&#x2013;" horiz-adv-x="733" d="M258 633l342 274l324 -114l3 -5q3 -4 -3 -8q-12 -29 -31 -52t-41.5 -47t-52 -49.5t-64.5 -58.5q-10 -10 -51 -11t-95 4t-115.5 14.5t-111 18.5t-80 18.5t-24.5 15.5z" />
<glyph unicode="&#x2014;" horiz-adv-x="1079" d="M246 588q-6 -4 21.5 -8.5t76.5 -7.5t113.5 -5t132.5 -2q70 0 138.5 2t124.5 5t95 8.5t49 13.5q53 39 97.5 67.5t79 55t62.5 52.5t48 56q2 2 -2 7l-4 6l-514 67z" />
<glyph unicode="&#x2018;" horiz-adv-x="573" d="M451 1190q2 14 4 32.5t5 35t5 28.5l2 12q8 16 31.5 45t52.5 60t57.5 56.5t46.5 35.5q2 0 7.5 2t7.5 2q6 2 13 3l7 1l29 -24l117 -150l102 -160l-90 -180l-264 -112q-92 47 -120 121.5t-13 191.5z" />
<glyph unicode="&#x2019;" horiz-adv-x="573" d="M455 1241l88 178l264 113q92 -47 119.5 -122t13.5 -191q-2 -14 -4 -33t-5 -35t-5 -29l-2 -12q-6 -14 -30 -44t-54.5 -61.5t-59 -57t-43.5 -32.5q-10 -6 -18 -6q-4 -2 -11 -3l-8 -1l-28 25l-115 151z" />
<glyph unicode="&#x201a;" horiz-adv-x="520" d="M-29 -303q74 18 156 59t152.5 101.5t122 138.5t61.5 170q4 37 4 61q0 27 -6 47.5t-20.5 39.5t-39.5 44h-104q-96 -29 -165 -87t-97 -146q0 -37 15.5 -63.5t37 -46t47 -33t47.5 -21.5q-115 -86 -161 -148.5t-50 -115.5z" />
<glyph unicode="&#x201c;" horiz-adv-x="1081" d="M436 1126q2 14 5 32t5 34q4 18 6 30l1 13q8 14 31.5 43t53 59.5t57.5 56t46 36.5q4 2 9 4t9 2q2 2 11 2h6l33 -21l112 -153l105 -158l-88 -180l-269 -113q-92 47 -119.5 122t-13.5 191zM979 1260q2 18 6 44.5t7 44t3 19.5q8 16 32 45t53.5 59.5t58 56t47.5 36.5q2 0 7 3 t7 3q6 2 12 2h7l30 -23l115 -151l104 -160l-88 -178l-268 -115q-92 47 -119.5 124t-13.5 190z" />
<glyph unicode="&#x201d;" horiz-adv-x="1081" d="M442 1180l90 178l267 112q92 -47 120.5 -121.5t12.5 -191.5q-2 -14 -4 -32.5t-5 -34t-5.5 -27.5t-2.5 -14q-6 -12 -29.5 -42t-53 -63t-59.5 -59.5t-48 -32.5q-2 0 -7 -2t-7 -2q-8 -4 -15 -4h-4l-30 24l-115 152zM985 1313l88 178l268 115q92 -47 119 -124t15 -190 q-2 -14 -5.5 -32.5t-6.5 -35t-4 -28.5l-1 -12q-8 -14 -32.5 -44t-54.5 -61.5t-58.5 -57.5t-44.5 -32q-4 -2 -8.5 -5t-8.5 -3q-6 -2 -11 -1l-5 1l-31 20l-117 154z" />
<glyph unicode="&#x201e;" horiz-adv-x="974" d="M-45 -360q4 14 7 27.5t9 27.5q16 41 62.5 90t134.5 117q-23 8 -48.5 20t-48 31.5t-38 47.5t-15.5 65q35 92 101.5 148t163.5 85h104q20 -25 34.5 -44t22 -39.5t7.5 -47.5q0 -25 -5 -62q-10 -92 -60 -169.5t-120.5 -137t-152.5 -100.5t-158 -59zM440 -246q2 27 13.5 55.5 t36 59.5t63.5 67.5t96 79.5q-23 8 -48.5 21.5t-47 33t-35.5 46t-14 63.5q29 92 97.5 148.5t166.5 85.5l102 2q25 -25 39.5 -44.5t20.5 -40t6 -46.5q0 -25 -6 -64q-10 -90 -60.5 -168t-121 -138t-152.5 -101t-156 -60z" />
<glyph unicode="&#x2022;" d="M180 186q-2 -23 24.5 -45t72 -44.5t100.5 -41t109.5 -30t102.5 -15.5t77 4q8 2 19 6l11 3q8 4 35 28.5t57.5 52t57 52t35.5 30.5q98 68 164.5 110t111.5 76t71.5 65.5t43 79.5t27 120t22.5 182l4 45q4 35 7 69t7 68l7 48q-10 49 -32 101t-54.5 95t-76.5 72t-102 31 q-8 -10 -39.5 -33t-68.5 -45.5t-68 -42t-37 -23.5q-25 -14 -74 -36.5t-110 -49t-124.5 -54.5t-117 -51.5t-87 -40t-33.5 -22.5l-78 -678q-33 -8 -45.5 -25.5t-16.5 -39.5z" />
<glyph unicode="&#x2026;" horiz-adv-x="1363" d="M35 45q-4 -35 10 -63.5t42 -49t63.5 -27.5t72.5 3q33 8 66 28.5t58.5 47t42 58.5t20.5 62q12 104 -39 138t-174 20q-51 -49 -102.5 -102.5t-59.5 -114.5zM459 150q-6 -35 9 -64t43 -49.5t63.5 -27.5t70.5 3q35 8 67.5 28.5t58.5 47.5t42 58.5t21 62.5q10 104 -39 139 t-174 19q-53 -47 -103.5 -102.5t-58.5 -114.5zM877 250q-4 -33 10 -61.5t41.5 -48t62.5 -28t70 0.5q33 8 65.5 28.5t58 47t43 58.5t21.5 64q12 100 -38 136t-173 22q-27 -25 -54.5 -50.5t-50 -53t-38.5 -56t-18 -59.5z" />
<glyph unicode="&#x202f;" horiz-adv-x="385" />
<glyph unicode="&#x2039;" horiz-adv-x="530" d="M252 637l311 575q4 4 20.5 -11t37 -44t42 -63.5t37 -68.5t22.5 -59.5t-3 -35.5q-20 -23 -63.5 -66t-88.5 -88l-84 -84t-53 -51l252 -127l-248 -342q-6 -4 -23.5 25.5t-40 78t-46 106.5t-42 111.5t-27.5 93.5t-3 50z" />
<glyph unicode="&#x203a;" horiz-adv-x="530" d="M223 403l185 -237q4 -4 29.5 35t59 101.5t72.5 137t71 140t51.5 112.5t17.5 56l-193 452q-2 4 -22.5 -20.5t-49 -64.5t-59.5 -88t-56.5 -91t-39 -75t-4.5 -38q14 -14 48 -38.5t71.5 -49t70.5 -45t45 -26.5z" />
<glyph unicode="&#x205f;" horiz-adv-x="482" />
<glyph unicode="&#x20ac;" horiz-adv-x="1411" d="M201 375l370 205l113 -9l10 86q-63 -6 -139 -9t-139 -3t-105.5 1t-36.5 5l371 205l74 -4l10 104q2 27 22.5 55.5t50 54.5t61.5 48.5t55 36.5q20 10 59 30.5t87 47t101.5 56.5t101.5 56.5t87 48t57 31.5q8 6 19 6q20 6 37.5 -8t29.5 -33.5t21.5 -37t15.5 -17.5 q6 -12 21.5 -44t32 -66.5t31.5 -64.5t26 -38v-14q-6 -37 -49.5 -78t-97.5 -77t-107.5 -61.5t-77.5 -31.5q-37 -10 -60.5 7.5t-40 44t-27.5 54t-20 39.5l-51 -430q-4 -33 20.5 -50t61.5 -23t77 -4t64 8q55 14 100.5 40.5t92.5 39.5q33 8 42 -9.5t5 -40.5q-2 -18 -6 -32 q-8 -20 -23.5 -32.5t-54.5 -45.5q-23 -18 -85 -67.5t-132 -105.5t-132.5 -105.5t-86.5 -67.5q-2 0 -13.5 -4t-19.5 -6q-45 -10 -110.5 7t-126 53t-100.5 84t-32 99l9 74q-59 -6 -141.5 -10t-155 -5t-122.5 0t-44 7z" />
<glyph unicode="&#x2122;" horiz-adv-x="1265" d="M406 844q6 -20 25.5 -34.5t42 -25t46 -18.5t39.5 -16q14 6 36.5 21t48.5 35.5t51.5 44t45.5 44.5q20 23 26.5 36t1.5 19t-15.5 7t-20.5 -1q-18 -4 -32.5 -10t-18.5 -8l27 238q102 4 110 86q0 18 -11 25t-27.5 9t-35 1t-30.5 -1l22 187l-39 18q-31 -53 -57.5 -95t-55 -81 t-62.5 -76t-77 -78l-4 -18q-4 -23 9.5 -31t35.5 -18l-24 -215q-2 -6 -10.5 -13.5t-18.5 -14.5t-18 -12t-10 -5zM877 936q6 -4 15 -14.5t15 -14.5q12 -4 17 -14q23 -16 40 -25.5t21 -13.5h8q18 4 33.5 19.5t31 33t34 33.5t41.5 23q18 4 30.5 -5.5t22.5 -19.5t22.5 -19.5 t30.5 -5.5q14 4 36.5 19.5t44 37t37 45t17.5 42.5q2 25 -12 49l31 276q4 16 20 23q10 2 14.5 0t10.5 0l-39 -342q-2 -16 8 -32.5t25.5 -30t33 -20.5t27.5 -5q16 4 42 23.5t50.5 44t43 49t20.5 38.5v11q-8 2 -17.5 12t-13.5 14l33 295q8 6 13 20.5t7 20.5l2 10l-2 9l-3 6 t-9 10q-6 2 -20.5 13.5t-32 24.5t-32.5 24.5t-24 13.5l-1 1q-1 1 -7 -1q-2 0 -4 -1l-2 -1q-10 -6 -27.5 -25.5t-38 -41t-40 -39t-33.5 -19.5q-6 -2 -7 -1l-1 1l-74 69h-6q-4 0 -7 -2l-4 -2q-10 -6 -34.5 -27.5t-50 -44t-45 -39t-17.5 -11.5l-76 69l-35 -8q2 0 -11 -13.5 t-31.5 -32t-38 -39t-29.5 -32.5q-10 -8 -24 -26l-13 -17q-6 -10 -3 -19t11 -15.5t18.5 -8.5t16.5 0l-33 -295q-8 -12 -12 -22q-6 -12 -10 -17l-2 -10zM1120 1047l35 294l37 27l-35 -313z" />
<glyph unicode="&#x25fc;" horiz-adv-x="1382" d="M0 0v1382h1382v-1382h-1382z" />
</font>
</defs>
</svg>
