<?xml version="1.0" standalone="no"?>
<!DOCTYPE svg PUBLIC "-//W3C//DTD SVG 1.1//EN" "http://www.w3.org/Graphics/SVG/1.1/DTD/svg11.dtd" >
<svg xmlns="http://www.w3.org/2000/svg" xmlns:xlink="http://www.w3.org/1999/xlink" version="1.1">
<metadata>
Created by FontForge 20170731 at Thu Jun  9 18:22:43 2011
 By Aleksey,,,
2011 Iconian Fonts - www.iconian.com
</metadata>
<defs>
<font id="FederalServiceLaserItalic" horiz-adv-x="763" >
  <font-face 
    font-family="Federal Service Laser Italic"
    font-weight="400"
    font-style="italic"
    font-stretch="normal"
    units-per-em="1000"
    panose-1="0 0 0 0 0 0 0 0 0 0"
    ascent="800"
    descent="-200"
    x-height="596"
    cap-height="596"
    bbox="17 -169 1256 874"
    underline-thickness="50"
    underline-position="-175"
    slope="-12"
    unicode-range="U+0020-2122"
  />
<missing-glyph horiz-adv-x="500" 
 />
    <glyph glyph-name=".notdef" horiz-adv-x="500" 
 />
    <glyph glyph-name=".null" horiz-adv-x="0" 
 />
    <glyph glyph-name="nonmarkingreturn" horiz-adv-x="500" 
 />
    <glyph glyph-name="space" unicode=" " horiz-adv-x="352" 
 />
    <glyph glyph-name="space" unicode="&#xa0;" horiz-adv-x="352" 
 />
    <glyph glyph-name="FL0021h" unicode="!" horiz-adv-x="261" 
d="M239 170l56 263h-146l-56 -263h146zM329 593h-146l-24 -114h146zM68 62q-5 -26 12.5 -44.5t49.5 -18.5t58 18.5t31 44.5q6 26 -12 44.5t-50 18.5t-57.5 -18.5t-31.5 -44.5z" />
    <glyph glyph-name="FL0022h" unicode="&#x22;" horiz-adv-x="463" 
d="M521 533q6 26 -12 44.5t-50 18.5t-57.5 -18.5t-31.5 -44.5l-11 -54h151zM319 532q6 26 -12.5 44.5t-50.5 18.5t-57 -18.5t-31 -44.5l-11 -53h151zM143 415q-5 -26 12.5 -45t49.5 -19t58 18.5t31 44.5l4 19h-151zM345 416q-5 -26 12.5 -45t49.5 -19t58 18.5t31 44.5l4 18
h-151z" />
    <glyph glyph-name="FL0023h" unicode="#" horiz-adv-x="757" 
d="M130 354h121l-26 -123h-121l-26 -125h121l-23 -106h144l23 106h118l-23 -106h144l23 107h120l26 124h-120l26 124h120l17 78h-647zM447 596h-144l-25 -117h144zM684 479l25 117h-144l-25 -117h144zM513 354l-26 -123h-118l26 123h118z" />
    <glyph glyph-name="FL0024h" unicode="$" 
d="M430 -124l26 124q130 6 208 84t107 212l14 65h-252l15 72h-143l-15 -72h-111q19 46 51 72h-164q-32 -60 -47 -133l-13 -62h258l-25 -114h-258l-26 -124h258l-26 -124h143zM835 596h-252l26 122h-143l-26 -122q-81 -3 -141.5 -33t-102.5 -84h614zM612 238
q-21 -51 -52.5 -76.5t-76.5 -33.5l24 110h105z" />
    <glyph glyph-name="FL0025h" unicode="%" horiz-adv-x="863" 
d="M829 101l22 99q5 25 1.5 43.5t-19.5 31t-45.5 18.5t-76.5 6q-92 0 -133 -26.5t-51 -74.5l-21 -98q-5 -24 -1 -42.5t19.5 -31t44.5 -19.5t74 -7q47 0 80 6t55 19t34 31.5t17 44.5zM251 0l458 433h-140l-462 -433h144zM462 397l8 36h-85l-2 -11q-3 -14 -8 -23t-15 -14.5
t-26.5 -8t-41.5 -2.5q-44 0 -57 12.5t-8 32.5l3 14h-83l-8 -37q-5 -24 -1 -42.5t19.5 -31t44.5 -19.5t74 -7q47 0 80 6t55 19t34 31.5t17 44.5zM327 518q24 0 38 -3t21 -8.5t8.5 -12.5t0.5 -15h85l3 17q6 25 2 43.5t-19.5 31t-45.5 18.5t-77 6q-92 0 -132.5 -26.5
t-50.5 -74.5l-3 -15h83q5 18 25 28.5t62 10.5zM694 222q25 0 39.5 -3.5t21 -9t7.5 -13.5t-1 -17l-11 -53q-3 -14 -8 -23t-15 -14.5t-26 -8t-41 -2.5q-44 0 -57.5 12.5t-8.5 32.5l12 56q5 20 24 31.5t64 11.5zM882 596h-139l-125 -117h140z" />
    <glyph glyph-name="FL0026h" unicode="&#x26;" horiz-adv-x="871" 
d="M551 361h-275q8 42 33 72h-147q-14 -29 -24.5 -62t-18.5 -71q-15 -70 -15 -126q0 -55 18 -94t56 -59.5t99 -20.5h539l26 124h-147q29 46 49 110h122l26 123h-201q5 43 2 76h-146q8 -15 8.5 -33t-4.5 -39zM517 598h-117q-69 0 -122 -31t-90 -88h499q-16 58 -58.5 88.5
t-111.5 30.5zM603 234q-27 -111 -154 -111h-107q-117 0 -93 111h354z" />
    <glyph glyph-name="FL0027h" unicode="'" horiz-adv-x="261" 
d="M319 533q6 26 -12 44.5t-50 18.5t-57.5 -18.5t-31.5 -44.5l-11 -54h151zM143 416q-5 -26 12.5 -45t49.5 -19t58 18.5t31 44.5l4 18h-151z" />
    <glyph glyph-name="FL0028h" unicode="(" horiz-adv-x="451" 
d="M379 -68l25 121h-67q-33 0 -53 17.5t-29.5 44.5t-10.5 59t5 61l26 123q4 17 10.5 36t15.5 39h-141q-14 -32 -23.5 -65t-17.5 -68q-15 -71 -17.5 -137t13 -117.5t52 -82.5t99.5 -31h113zM444 540h67l25 119h-123q-37 0 -70 -13.5t-62.5 -37.5t-54.5 -57t-45 -72h149
q20 26 48.5 43.5t65.5 17.5z" />
    <glyph glyph-name="FL0029h" unicode=")" horiz-adv-x="451" 
d="M43 -68h113q63 0 112.5 31t87 82.5t63 117.5t40.5 137q8 35 11 68t4 65h-142q2 -20 0.5 -39t-5.5 -36l-26 -123q-6 -29 -20.5 -61t-36 -59t-49 -44.5t-60.5 -17.5h-67zM323 479h149q-4 39 -15 72t-29.5 57t-46 37.5t-64.5 13.5h-123l-25 -119h67q36 0 56.5 -17.5
t30.5 -43.5z" />
    <glyph glyph-name="FL002Ah" unicode="*" horiz-adv-x="367" 
d="M397 579l-48 -40l11 56h-92l-11 -55l-32 39l-79 -65l41 -35h188l68 41zM423 433h-296l-6 -4l40 -72l66 51l-14 -63h92l13 61l41 -49l69 72z" />
    <glyph glyph-name="FL002Bh" unicode="+" horiz-adv-x="556" 
d="M131 358l-26 -123h162l-34 -162h123l34 162h161l26 123h-161l16 75h-123l-16 -75h-162zM327 519l-8 -40h123l8 40h-123z" />
    <glyph glyph-name="FL002Ch" unicode="," horiz-adv-x="261" 
d="M44 -54q-6 -26 11.5 -45t49.5 -19t58 18.5t31 44.5l25 118q6 26 -12 44.5t-50 18.5t-57.5 -18.5t-31.5 -44.5z" />
    <glyph glyph-name="FL002Dh" unicode="-" horiz-adv-x="488" 
d="M105 234h378l26 124h-378z" />
    <glyph glyph-name="FL002Eh" unicode="." horiz-adv-x="261" 
d="M68 63q-5 -26 12.5 -44.5t49.5 -18.5t58 18.5t31 44.5q6 26 -12 44.5t-50 18.5t-57.5 -18.5t-31.5 -44.5z" />
    <glyph glyph-name="FL002Fh" unicode="/" horiz-adv-x="448" 
d="M199 0l233 433h-144l-233 -433h144zM520 596h-144l-63 -117h144z" />
    <glyph glyph-name="FL0030h" unicode="0" horiz-adv-x="761" 
d="M638 358l-26 -123q-24 -114 -154 -114h-110q-123 0 -99 114l26 123q5 22 13 41t22 34h-148q-14 -29 -24.5 -62t-18.5 -71q-15 -71 -15 -127q0 -55 19 -93.5t58 -59t102 -20.5h195q63 0 111 20.5t83 59t59 94t39 126.5q8 38 11 71t1 62h-147q8 -15 8 -34t-5 -41zM615 596
h-215q-69 0 -121.5 -30t-90.5 -87h588q-13 57 -52.5 87t-108.5 30zM369 295q-6 -26 11.5 -44.5t49.5 -18.5t58 18.5t32 44.5q5 26 -13 44.5t-50 18.5t-57.5 -18.5t-30.5 -44.5z" />
    <glyph glyph-name="FL0031h" unicode="1" horiz-adv-x="325" 
d="M270 0l92 433h-144l-92 -433h144zM182 597l-25 -118h215l25 117z" />
    <glyph glyph-name="FL0032h" unicode="2" 
d="M735 125h-506l23 110h506l14 65q15 76 8 133h-164q11 -14 16.5 -32t4.5 -43h-506l-76 -358h653zM157 479h613q-20 57 -71.5 87t-136.5 30h-380z" />
    <glyph glyph-name="FL0062h" unicode="3" horiz-adv-x="700" 
d="M55 0h362q63 0 111 20.5t83 59t59 94t39 126.5q8 38 11 71t1 62h-147q8 -15 8 -34t-5 -41h-446l-26 -123h446q-24 -114 -154 -114h-316zM157 479h558q-13 57 -52.5 87t-108.5 30h-372z" />
    <glyph glyph-name="FL0034h" unicode="4" horiz-adv-x="701" 
d="M646 0l92 433h-139l-16 -75h-308l16 75h-144l-42 -197h452l-50 -236h139zM326 596h-144l-25 -117h144zM773 596h-139l-25 -117h139z" />
    <glyph glyph-name="FL0035h" unicode="5" 
d="M612 238q-26 -66 -74.5 -90t-111.5 -24h-345l-26 -124h380q139 0 223 78.5t113 217.5l14 65h-506l15 72h-147l-41 -195h506zM835 596h-653l-25 -117h653z" />
    <glyph glyph-name="FL0036h" unicode="6" 
d="M125 327l-19 -89h2q-8 -57 -2.5 -101t26.5 -74.5t58 -46.5t93 -16h152q139 0 223 78.5t113 217.5l14 65h-506q9 23 22 41t29 31h-166q-26 -48 -39 -106zM835 596h-380q-88 0 -152.5 -30.5t-108.5 -86.5h616zM612 238q-26 -66 -74.5 -90t-111.5 -24h-98v-2
q-46 11 -68 36.5t-11 76.5v3h363z" />
    <glyph glyph-name="FL0037h" unicode="7" horiz-adv-x="694" 
d="M249 0l446 433h-192l-448 -433h194zM766 596h-584l-25 -117h584z" />
    <glyph glyph-name="FL0038h" unicode="8" horiz-adv-x="761" 
d="M638 358h-363q5 22 13 41t22 34h-148q-14 -29 -24.5 -62t-18.5 -71q-15 -71 -15 -127q0 -55 19 -93.5t58 -59t102 -20.5h195q63 0 111 20.5t83 59t59 94t39 126.5q8 38 11 71t1 62h-147q8 -15 8 -34t-5 -41zM615 596h-215q-69 0 -121.5 -30t-90.5 -87h588
q-13 57 -52.5 87t-108.5 30zM458 121h-110q-123 0 -99 113h363q-26 -113 -154 -113z" />
    <glyph glyph-name="FL0039h" unicode="9" 
d="M277 358q19 48 52 75h-164q-32 -60 -47 -133l-14 -65h506q-14 -32 -33 -53.5t-42.5 -34.5t-51 -18t-58.5 -5h-194l-26 -124h229q68 0 122 18.5t95 53.5t69 84.5t44 112.5l19 89h-2q2 20 3.5 39t0.5 36h-154q8 -14 11 -31.5t-2 -40.5v-3h-363zM606 596h-152
q-86 0 -150 -30t-108 -87h583q-13 57 -54 87t-119 30z" />
    <glyph glyph-name="FL003Ah" unicode=":" horiz-adv-x="261" 
d="M68 63q-5 -26 12.5 -44.5t49.5 -18.5t58 18.5t31 44.5q6 26 -12 44.5t-50 18.5t-57.5 -18.5t-31.5 -44.5zM118 295q-6 -26 11.5 -44.5t49.5 -18.5t58 18.5t32 44.5q5 26 -13 44.5t-50 18.5t-57.5 -18.5t-30.5 -44.5z" />
    <glyph glyph-name="FL003Bh" unicode=";" horiz-adv-x="261" 
d="M44 -54q-6 -26 11.5 -45t49.5 -19t58 18.5t31 44.5l25 118q6 26 -12 44.5t-50 18.5t-57.5 -18.5t-31.5 -44.5zM118 295q-6 -26 11.5 -44.5t49.5 -18.5t58 18.5t32 44.5q5 26 -13 44.5t-50 18.5t-57.5 -18.5t-30.5 -44.5z" />
    <glyph glyph-name="FL003Ch" unicode="&#x3c;" horiz-adv-x="479" 
d="M118 297l156 -297h150l-156 297l128 136h-151zM551 598h-151l-111 -119h150z" />
    <glyph glyph-name="FL003Dh" unicode="=" horiz-adv-x="488" 
d="M78 109h378l27 124h-378zM131 357h378l16 76h-378zM535 481h-378v-2h378v2z" />
    <glyph glyph-name="FL003Eh" unicode="&#x3e;" horiz-adv-x="479" 
d="M486 297l-70 136h-150l70 -136l-282 -297h150zM181 598l61 -119h151l-61 119h-151z" />
    <glyph glyph-name="FL003Fh" unicode="?" horiz-adv-x="765" 
d="M254 233h506l13 65q16 76 9 135h-166q23 -28 23 -77h-506l-40 -186h148zM563 594h-380l-24 -115h612q-20 56 -71.5 85.5t-136.5 29.5zM68 62q-5 -26 12.5 -44.5t49.5 -18.5t58 18.5t31 44.5q6 26 -12 44.5t-50 18.5t-57.5 -18.5t-31.5 -44.5z" />
    <glyph glyph-name="FL0EEEh" unicode="@" horiz-adv-x="933" 
d="M718 326q8 33 9 60t-6 47h-345q-16 -21 -24.5 -47.5t-15.5 -58.5l-14 -62q-7 -41 -7.5 -73t13.5 -54.5t47 -34.5t94 -12q42 0 75 4.5t56 14.5l68 13q62 2 103.5 13t70 33t49 54.5t40.5 77.5l18 83q2 13 4 25t3 24h-137q0 -20 -3 -39t-7 -36l-15 -72q-7 -14 -11.5 -21.5
t-9 -12t-12 -7t-20.5 -5.5l-41 -6zM295 433h-135q-14 -32 -23.5 -65t-17.5 -68q-15 -71 -17.5 -137t13 -117.5t52 -82.5t99.5 -31h369l25 122h-324q-2 -1 -10 -1h-9q-40 0 -57.5 17.5t-22 44.5t0.5 59t11 61l26 123q5 20 9.5 39t10.5 36zM814 479h144q-2 81 -42.5 130
t-115.5 49h-388q-36 0 -69 -13.5t-62.5 -37.5t-54.5 -56.5t-45 -71.5h136q19 28 49 44.5t78 16.5h275q44 0 65.5 -17.5t29.5 -43.5zM544 402q31 0 47 -7t21.5 -19.5t3.5 -28.5t-6 -34l-5 -34q-6 -29 -11.5 -48.5t-16.5 -31t-30.5 -16.5t-52.5 -5q-27 0 -41.5 5t-20.5 15
t-4.5 25t5.5 35l16 78q7 32 26.5 49t68.5 17zM436 479h243q-20 9 -49 14t-71 5q-77 0 -123 -19z" />
    <glyph glyph-name="FL0041h" unicode="A" horiz-adv-x="738" 
d="M544 0h139l75 351q8 42 2 82h-161q11 -17 15 -36.5t5 -38.5l-29 -136h-344l45 211h-144l-92 -433h143l22 105h346zM592 596h-410l-25 -117h593q-18 51 -58.5 84t-99.5 33z" />
    <glyph glyph-name="FL0042h" unicode="B" 
d="M772 300q15 76 8 133h-164q11 -14 16.5 -32t4.5 -43h-364l16 75h-142l-92 -433h386q58 0 110.5 15.5t95.5 51t75 92.5t50 141zM157 479h613q-20 57 -71.5 87t-136.5 30h-380zM248 239h365q-13 -36 -29 -60.5t-38.5 -39t-52.5 -21t-69 -6.5h-203z" />
    <glyph glyph-name="FL0043h" unicode="C" horiz-adv-x="700" 
d="M645 0l26 121h-316q-130 0 -106 114l26 123q5 22 13 41t22 34h-148q-14 -29 -24.5 -62t-18.5 -71q-15 -71 -15 -127q0 -55 19 -93.5t58 -59t102 -20.5h362zM772 596h-372q-69 0 -121.5 -30t-90.5 -87h559z" />
    <glyph glyph-name="FL0044h" unicode="D" 
d="M630 300q-12 -56 -28.5 -92.5t-40.5 -57.5t-57.5 -29.5t-79.5 -8.5h-203l68 321h-142l-92 -433h386q58 0 110.5 15.5t95.5 51t75 92.5t50 141q15 76 8 133h-163q15 -20 19 -52.5t-6 -80.5zM562 596h-380l-25 -117h613q-20 57 -71.5 87t-136.5 30z" />
    <glyph glyph-name="FL0045h" unicode="E" horiz-adv-x="700" 
d="M645 0l26 121h-316q-66 0 -92 30t-13 87h446l25 120h-446q5 22 13 41t22 34h-148q-14 -29 -24.5 -62t-18.5 -71q-15 -71 -15 -127q0 -55 19 -93.5t58 -59t102 -20.5h362zM188 479h559l25 117h-372q-69 0 -121.5 -30t-90.5 -87z" />
    <glyph glyph-name="FL0046h" unicode="F" horiz-adv-x="700" 
d="M199 0l51 239h446l25 119h-446q5 22 13 41t22 34h-148q-14 -29 -24.5 -62t-18.5 -71l-64 -300h144zM188 479h559l25 117h-372q-69 0 -121.5 -30t-90.5 -87z" />
    <glyph glyph-name="FL0047h" unicode="G" 
d="M491 234h125l-26 -122h-203q-47 0 -77 8.5t-45 29.5t-15.5 57.5t11.5 92.5q10 48 27 80.5t41 52.5h-163q-32 -60 -47 -133q-18 -84 -10.5 -141t35.5 -92.5t73.5 -51t104.5 -15.5h386l76 358h-267zM197 479h612l25 117h-379q-86 0 -150 -30t-108 -87z" />
    <glyph glyph-name="FL0048h" unicode="H" horiz-adv-x="758" 
d="M703 0l92 433h-139l-16 -75h-365l16 75h-144l-92 -433h144l50 235h365l-50 -235h139zM326 596h-144l-25 -117h144zM830 596h-139l-25 -117h139z" />
    <glyph glyph-name="FL0049h" unicode="I" horiz-adv-x="694" 
d="M664 119h-225l67 314h-140l-67 -314h-219l-25 -119h584zM766 596h-584l-25 -117h584z" />
    <glyph glyph-name="FL004Ah" unicode="J" horiz-adv-x="700" 
d="M55 0h362q63 0 111 20.5t83 59t59 94t39 126.5l28 133h-144l-42 -198q-24 -114 -154 -114h-316zM603 479h144l25 118h-144z" />
    <glyph glyph-name="FL004Bh" unicode="K" horiz-adv-x="734" 
d="M199 0l50 235l274 -235h180l-320 302l199 131h-190l-117 -75l16 75h-144l-92 -433h144zM831 597h-181l-185 -118h187zM326 596h-144l-25 -117h144z" />
    <glyph glyph-name="FL004Ch" unicode="L" horiz-adv-x="700" 
d="M645 0l26 121h-316q-130 0 -106 114l42 198h-144l-28 -133q-15 -71 -15 -127q0 -55 19 -93.5t58 -59t102 -20.5h362zM326 597h-144l-25 -118h144z" />
    <glyph glyph-name="FL004Dh" unicode="M" horiz-adv-x="968" 
d="M720 596h-220q-69 0 -122 -7.5t-92.5 -22.5t-67.5 -37t-46 -50h825q-6 28 -24.5 50t-52 37t-83 22.5t-117.5 7.5zM410 1h146l92 432h-146zM139 393l-84 -393h139l77 363q5 20 13.5 38t24.5 32h-159q-4 -10 -6.5 -19.5t-4.5 -20.5zM849 363l-77 -363h139l84 393
q2 11 3 20.5t2 19.5h-159q17 -28 8 -70z" />
    <glyph glyph-name="FL004Eh" unicode="N" horiz-adv-x="758" 
d="M751 518q-22 40 -57.5 59t-81.5 19h-430l-25 -117h614q-4 10 -9.5 19.5t-10.5 19.5zM199 0l92 433h-144l-92 -433h144zM703 0l75 351q9 40 4 82h-153q11 -20 11 -47q0 -26 -6 -55l-70 -331h139z" />
    <glyph glyph-name="FL004Fh" unicode="O" horiz-adv-x="761" 
d="M638 358l-26 -123q-24 -114 -154 -114h-110q-123 0 -99 114l26 123q5 22 13 41t22 34h-148q-14 -29 -24.5 -62t-18.5 -71q-15 -71 -15 -127q0 -55 19 -93.5t58 -59t102 -20.5h195q63 0 111 20.5t83 59t59 94t39 126.5q8 38 11 71t1 62h-147q8 -15 8 -34t-5 -41zM615 596
h-215q-69 0 -121.5 -30t-90.5 -87h588q-13 57 -52.5 87t-108.5 30z" />
    <glyph glyph-name="FL0DB9h" unicode="P" horiz-adv-x="739" 
d="M452 224h-205l44 209h-144l-92 -433h144l22 105h267q46 0 90.5 19t82.5 59q41 38 64.5 80t32.5 87h-2l2 1q5 21 6 41.5t-2 40.5h-157q11 -18 13 -39.5t-1 -44.5q-10 -32 -23 -55.5t-32.5 -39t-46 -23t-63.5 -7.5zM732 516q-22 40 -58 60t-82 20h-410l-25 -117h593
q-4 9 -8.5 18.5t-9.5 18.5z" />
    <glyph glyph-name="FL0051h" unicode="Q" horiz-adv-x="761" 
d="M373 243l63 -122h-88q-123 0 -99 114l26 123q5 22 13 41t22 34h-148q-14 -29 -24.5 -62t-18.5 -71q-15 -71 -15 -127q0 -55 19 -93.5t58 -59t102 -20.5h216l41 -77l118 50l-35 65q57 36 92 102t55 160q8 38 11 71t1 62h-147q8 -15 8 -34t-5 -41l-26 -123q-12 -56 -48 -84
l-77 146zM615 596h-215q-69 0 -121.5 -30t-90.5 -87h588q-13 57 -52.5 87t-108.5 30z" />
    <glyph glyph-name="FL0054h" unicode="R" horiz-adv-x="739" 
d="M452 224h-205l44 209h-144l-92 -433h144l22 105h210l56 -105h156l-67 123q23 10 44 24.5t42 34.5q41 39 64 81t32 87h-2l2 1q9 40 4 82h-160q10 -18 11 -40.5t-1 -45.5q-10 -32 -22 -55t-30.5 -38t-44.5 -22.5t-63 -7.5zM731 518q-22 40 -57.5 59t-81.5 19h-410l-25 -117
h594q-4 10 -9.5 19.5t-10.5 19.5z" />
    <glyph glyph-name="FL0073h" unicode="S" 
d="M330 433h-164q-32 -60 -47 -133l-13 -59h506q-26 -66 -74.5 -91.5t-111.5 -25.5h-345l-26 -124h380q139 0 223 78.5t113 217.5l14 65h-506q9 23 22 41t29 31zM197 479h613l25 117h-380q-86 0 -150 -30t-108 -87z" />
    <glyph glyph-name="T" unicode="T" horiz-adv-x="694" 
d="M766 596h-584l-25 -117h584zM414 0l92 433h-140l-92 -433h140z" />
    <glyph glyph-name="FL0055h" unicode="U" horiz-adv-x="758" 
d="M250 265l36 168h-139l-40 -188q-10 -45 -4 -87t31 -80q21 -40 57 -59t82 -19h430l92 433h-144l-67 -314h-224q-44 0 -69 12t-36 32t-11 46q0 27 6 56zM661 479h144l25 117h-144zM182 596l-25 -117h139l25 117h-139z" />
    <glyph glyph-name="FL0056h" unicode="V" horiz-adv-x="771" 
d="M287 0h208l252 433h-150l-179 -312l-56 312h-151zM182 598l21 -119h151l-21 119h-151zM843 598h-151l-69 -119h151z" />
    <glyph glyph-name="FL0057h" unicode="W" horiz-adv-x="965" 
d="M248 265l36 168h-139l-40 -188q-10 -45 -4 -87t31 -80q21 -40 57 -59t82 -19h637l92 433h-144l-67 -314h-96q-44 0 -65.5 12t-28.5 32t-4 46.5t9 55.5l36 168h-139l-40 -188q-14 -66 6 -126h-91q-55 0 -84 12.5t-40.5 33t-10.5 47t7 53.5zM866 479h144l25 117h-144z
M180 596l-25 -117h139l25 117h-139zM511 479h139l25 117h-139z" />
    <glyph glyph-name="FL0058h" unicode="X" horiz-adv-x="701" 
d="M340 297l-282 -297h150l185 195l103 -195h150l-156 297l128 136h-150l-31 -34l-18 34h-151zM773 598h-151l-111 -119h150zM182 597l62 -118h151l-62 118h-151z" />
    <glyph glyph-name="FL0059h" unicode="Y" 
d="M361 362q-63 13 -66 71h-141q-5 -94 37 -145t142 -51l1 1h278q-26 -66 -74.5 -90t-111.5 -24h-199l-26 -124h234q139 0 223 78.5t113 217.5l28 137h-147l-15 -71h-276zM834 596h-147l-25 -117h147zM328 597h-146l-14 -64q-3 -14 -5.5 -27.5t-3.5 -26.5h144z" />
    <glyph glyph-name="FL005Ah" unicode="Z" horiz-adv-x="694" 
d="M55 0h584l25 119h-394l412 314h-191l-411 -314zM766 596h-584l-25 -117h584z" />
    <glyph glyph-name="FL005Bh" unicode="[" horiz-adv-x="451" 
d="M379 -68l25 121h-193l81 380h-145l-107 -502zM315 541h196l25 118h-341l-38 -180h145z" />
    <glyph glyph-name="FL005Ch" unicode="\" horiz-adv-x="448" 
d="M249 0h144l-49 433h-144zM182 596l13 -117h144l-13 117h-144z" />
    <glyph glyph-name="FL005Dh" unicode="]" horiz-adv-x="451" 
d="M43 -68l337 -1l107 502h-145l-81 -380h-193zM352 479h145l38 180h-341l-25 -118h196z" />
    <glyph glyph-name="FL005Eh" unicode="^" horiz-adv-x="418" 
d="M285 595l-89 -116h98l26 35l11 -35h93l-42 116h-97zM242 409l18 24h-100l-18 -24h100zM450 409l-9 24h-96l8 -24h97z" />
    <glyph glyph-name="FL005Fh" unicode="_" horiz-adv-x="506" 
d="M43 63l-26 -123h446l26 123h-446z" />
    <glyph glyph-name="FL0060h" unicode="`" horiz-adv-x="286" 
d="M295 563q-5 9 -14.5 21t-20.5 12q-22 0 -45 -17q-17 -11 -30.5 -21.5t-16.5 -25.5q-4 -19 3 -32l15 -21h146q1 10 -4 24zM222 425q11 -20 33 -20q11 0 21.5 3.5t21.5 12.5q4 3 7.5 6t6.5 6h-95z" />
    <glyph glyph-name="FL0061h" unicode="a" horiz-adv-x="738" 
d="M194 0l22 105h346l-22 -105h143l92 433h-144l-45 -211h-344l29 136q8 19 20.5 38.5t31.5 36.5h-162q-11 -20 -19 -41t-12 -41l-75 -351h139zM810 596h-410q-60 0 -114.5 -33t-93.5 -84h593z" />
    <glyph glyph-name="FL0063h" unicode="b" 
d="M772 300q15 76 8 133h-164q11 -14 16.5 -32t4.5 -43h-364l16 75h-142l-92 -433h386q58 0 110.5 15.5t95.5 51t75 92.5t50 141zM157 479h613q-20 57 -71.5 87t-136.5 30h-380zM248 239h365q-13 -36 -29 -60.5t-38.5 -39t-52.5 -21t-69 -6.5h-203z" />
    <glyph glyph-name="c" unicode="c" horiz-adv-x="700" 
d="M645 0l26 121h-316q-130 0 -106 114l26 123q5 22 13 41t22 34h-148q-14 -29 -24.5 -62t-18.5 -71q-15 -71 -15 -127q0 -55 19 -93.5t58 -59t102 -20.5h362zM772 596h-372q-69 0 -121.5 -30t-90.5 -87h559z" />
    <glyph glyph-name="d" unicode="d" 
d="M630 300q-12 -56 -28.5 -92.5t-40.5 -57.5t-57.5 -29.5t-79.5 -8.5h-203l68 321h-142l-92 -433h386q58 0 110.5 15.5t95.5 51t75 92.5t50 141q15 76 8 133h-163q15 -20 19 -52.5t-6 -80.5zM562 596h-380l-25 -117h613q-20 57 -71.5 87t-136.5 30z" />
    <glyph glyph-name="e" unicode="e" horiz-adv-x="700" 
d="M645 0l26 121h-316q-66 0 -91.5 31t-13.5 88h360l25 119h-360q5 21 13 40t22 34h-148q-14 -29 -24.5 -62t-18.5 -71q-15 -71 -15 -127q0 -55 19 -93.5t58 -59t102 -20.5h362zM188 479h559l25 117h-372q-69 0 -121.5 -30t-90.5 -87z" />
    <glyph glyph-name="FL0066h" unicode="f" horiz-adv-x="700" 
d="M199 0l51 239h360l25 120h-360q5 21 13 40t22 34h-148q-14 -29 -24.5 -62t-18.5 -71l-64 -300h144zM188 479h559l25 117h-372q-69 0 -121.5 -30t-90.5 -87z" />
    <glyph glyph-name="FL0067h" unicode="g" 
d="M261 300q10 48 27 80.5t41 52.5h-163q-32 -60 -47 -133q-18 -84 -10.5 -141t35.5 -92.5t73.5 -51t104.5 -15.5h386l76 358h-142l-52 -246h-203q-47 0 -77 8.5t-45 29.5t-15.5 57.5t11.5 92.5zM834 596h-379q-86 0 -150 -30t-108 -87h612z" />
    <glyph glyph-name="FL0068h" unicode="h" horiz-adv-x="758" 
d="M703 0l92 433h-139l-16 -75h-365l16 75h-144l-92 -433h144l50 235h365l-50 -235h139zM326 596h-144l-25 -117h144zM830 596h-139l-25 -117h139z" />
    <glyph glyph-name="i" unicode="i" horiz-adv-x="254" 
d="M199 0l92 433h-144l-92 -433h144zM326 596h-144l-25 -117h144z" />
    <glyph glyph-name="FL006Ah" unicode="j" horiz-adv-x="700" 
d="M55 0h362q63 0 111 20.5t83 59t59 94t39 126.5l28 133h-144l-42 -198q-24 -114 -154 -114h-316zM603 479h144l25 118h-144z" />
    <glyph glyph-name="FL006Bh" unicode="k" horiz-adv-x="734" 
d="M199 0l50 234h169l135 -234h150l-156 297l128 136h-155l-73 -75h-172l16 75h-144l-92 -433h144zM831 597h-151l-115 -118h154zM326 596h-144l-25 -117h144z" />
    <glyph glyph-name="FL006Ch" unicode="l" horiz-adv-x="700" 
d="M645 0l26 121h-316q-130 0 -106 114l42 198h-144l-28 -133q-15 -71 -15 -127q0 -55 19 -93.5t58 -59t102 -20.5h362zM326 597h-144l-25 -118h144z" />
    <glyph glyph-name="FL006Dh" unicode="m" horiz-adv-x="965" 
d="M156 479h821q-4 10 -9.5 19.5t-10.5 19.5q-22 40 -57.5 59t-81.5 19h-637zM198 0l92 433h-144l-92 -433h144zM909 0l75 351q9 40 4 82h-152q13 -21 11.5 -47.5t-7.5 -54.5l-70 -331h139zM634 433h-146q8 -20 5 -46.5t-9 -55.5l-70 -331h139l75 351q9 42 6 82z" />
    <glyph glyph-name="n" unicode="n" horiz-adv-x="738" 
d="M731 518q-22 40 -57.5 59t-81.5 19h-410l-25 -117h594q-4 10 -9.5 19.5t-10.5 19.5zM199 0l92 433h-144l-92 -433h144zM683 0l75 351q9 40 4 82h-153q11 -20 11 -47q0 -26 -6 -55l-70 -331h139z" />
    <glyph glyph-name="FL006Fh" unicode="o" horiz-adv-x="758" 
d="M745 203l42 197q2 8 3 16.5t2 16.5h-157q6 -14 6.5 -29t-3.5 -32l-28 -134q-8 -34 -20 -57t-35 -37t-61 -20t-97 -6q-52 0 -85 8t-50 23t-21 36.5t2 47.5l29 139q4 18 12 33t22 28h-157q-3 -9 -5.5 -18t-4.5 -18l-41 -197q-10 -47 -2.5 -84.5t38.5 -63t89 -39t149 -13.5
q94 0 160.5 12.5t110 38t67.5 63.5t35 89zM481 480q9 0 17 -0.5t16 -0.5h278q-5 30 -22.5 52.5t-52 37t-86.5 22t-125 7.5q-70 0 -124 -8t-94.5 -23t-69 -37.5t-46.5 -50.5h270q9 1 18 1h21z" />
    <glyph glyph-name="FL0070h" unicode="p" horiz-adv-x="739" 
d="M452 224h-205l44 209h-144l-92 -433h144l22 105h267q46 0 90.5 19t82.5 59q41 38 64.5 80t32.5 87h-2l2 1q5 21 6 41.5t-2 40.5h-157q11 -18 13 -39.5t-1 -44.5q-10 -32 -23 -55.5t-32.5 -39t-46 -23t-63.5 -7.5zM732 516q-22 40 -58 60t-82 20h-410l-25 -117h593
q-4 9 -8.5 18.5t-9.5 18.5z" />
    <glyph glyph-name="FL0071h" unicode="q" horiz-adv-x="758" 
d="M745 203l42 197q2 8 3 16.5t2 16.5h-157q6 -14 6.5 -29t-3.5 -32l-28 -134q-8 -32 -18 -53.5t-29 -35.5l-50 94h-140l63 -124q-5 -1 -10 -1h-9h-20q-52 0 -85 8t-50 23t-21 36.5t2 47.5l29 139q4 18 12 33t22 28h-157q-3 -9 -5.5 -18t-4.5 -18l-41 -197
q-10 -47 -2.5 -84.5t38.5 -63t89 -39t149 -13.5q69 0 123 6l36 -65h143l-52 99q54 25 82.5 65.5t40.5 97.5zM172 479h270q9 1 18 1h21q9 0 17 -0.5t16 -0.5h278q-5 30 -22.5 52.5t-52 37t-86.5 22t-125 7.5q-70 0 -124 -8t-94.5 -23t-69 -37.5t-46.5 -50.5z" />
    <glyph glyph-name="FL0072h" unicode="r" horiz-adv-x="739" 
d="M452 224h-205l44 209h-144l-92 -433h144l22 105h210l56 -105h156l-67 123q23 10 44 24.5t42 34.5q41 39 64 81t32 87h-2l2 1q9 40 4 82h-160q10 -18 11 -40.5t-1 -45.5q-10 -32 -22 -55t-30.5 -38t-44.5 -22.5t-63 -7.5zM731 518q-22 40 -57.5 59t-81.5 19h-410l-25 -117
h594q-4 10 -9.5 19.5t-10.5 19.5z" />
    <glyph glyph-name="FL0053h" unicode="s" 
d="M330 433h-164q-32 -60 -47 -133l-13 -59h506q-26 -66 -74.5 -91.5t-111.5 -25.5h-344l-26 -124h379q139 0 223 78.5t113 217.5l14 65h-506q9 23 22 41t29 31zM197 479h463l25 117h-230q-86 0 -150 -30t-108 -87z" />
    <glyph glyph-name="t" unicode="t" horiz-adv-x="694" 
d="M766 596h-584l-25 -117h584zM414 0l92 433h-140l-92 -433h140z" />
    <glyph glyph-name="u" unicode="u" horiz-adv-x="758" 
d="M746 203l49 230h-144l-41 -195q-8 -34 -19.5 -57t-35 -37t-61 -20t-96.5 -6q-52 0 -85 8t-50 23t-21 36.5t2 47.5l42 200h-139l-49 -230q-10 -48 -2.5 -85.5t38.5 -64t89 -40t150 -13.5q94 0 160.5 12.5t110 38t67.5 63.5t35 89zM830 596h-144l-25 -117h144zM157 479h139
l25 117h-139z" />
    <glyph glyph-name="FL0076h" unicode="v" horiz-adv-x="721" 
d="M333 433h-150l72 -433h208l256 433h-151l-184 -312zM817 598h-151l-70 -119h151zM156 598l20 -119h150l-19 119h-151z" />
    <glyph glyph-name="FL0077h" unicode="w" horiz-adv-x="968" 
d="M581 118l67 315h-146l-67 -315h-37q-52 0 -85 8.5t-50 23.5t-21 36t2 47l42 200h-139l-49 -230q-10 -48 -2.5 -85.5t38.5 -64t89 -40t150 -13.5h220q91 0 155.5 13.5t106.5 40t65.5 64t33.5 85.5l49 230h-139l-42 -200q-6 -26 -19 -47t-36.5 -36t-60 -23.5t-88.5 -8.5
h-37zM536 595l-24 -116h146l24 116h-146zM157 479h139l25 117h-139zM874 479h139l25 117h-139z" />
    <glyph glyph-name="FL0078h" unicode="x" horiz-adv-x="651" 
d="M315 297l-282 -297h150l185 195l103 -195h150l-156 297l128 136h-150l-31 -34l-18 34h-151zM748 598h-151l-111 -119h150zM157 597l62 -118h151l-62 118h-151z" />
    <glyph glyph-name="FL0079h" unicode="y" 
d="M799 433h-147l-15 -71h-276q-38 3 -54.5 21.5t-13.5 49.5h-143q-6 -47 0 -82.5t26 -60t56 -38t91 -14.5h289q-26 -66 -74.5 -90t-111.5 -24h-199l-26 -124h234q139 0 223 78.5t113 217.5zM834 596h-147l-25 -117h147zM157 479h146l25 118h-146l-22 -103z" />
    <glyph glyph-name="FL007Ah" unicode="z" horiz-adv-x="694" 
d="M55 0h584l25 119h-394l412 314h-191l-411 -314zM766 596h-584l-25 -117h584z" />
    <glyph glyph-name="FL007Bh" unicode="{" horiz-adv-x="428" 
d="M373 0l26 121h-44q-130 0 -106 114l26 123q5 22 13 41t22 34h-148q-14 -29 -24.5 -62t-18.5 -71q-15 -71 -15 -127q0 -55 19 -93.5t58 -59t102 -20.5h90zM500 596h-100q-69 0 -121.5 -30t-90.5 -87h287z" />
    <glyph glyph-name="FL007Ch" unicode="|" horiz-adv-x="254" 
d="M172 -123l118 556h-143l-118 -556h143zM351 719h-143l-51 -240h143z" />
    <glyph glyph-name="FL007Dh" unicode="}" horiz-adv-x="428" 
d="M55 0h90q63 0 111 20.5t83 59t59 94t39 126.5q8 38 11 71t1 62h-147q8 -15 8 -34t-5 -41l-26 -123q-24 -114 -154 -114h-44zM157 479h286q-13 57 -52.5 87t-108.5 30h-100z" />
    <glyph glyph-name="FL007Eh" unicode="~" horiz-adv-x="473" 
d="M215 382l-140 -170h100l73 92l39 -93h97l140 170h-100l-74 -92l-38 93h-97z" />
    <glyph glyph-name="FL007Fh" horiz-adv-x="202" 
 />
    <glyph glyph-name="FL00A1h" unicode="&#xa1;" horiz-adv-x="261" 
d="M57 -1h146l90 423h-146zM318 530q5 26 -12.5 44.5t-49.5 18.5t-58 -18.5t-31 -44.5q-8 -34 19 -51h91q15 8 26 21.5t15 29.5z" />
    <glyph glyph-name="FL00A2h" unicode="&#xa2;" horiz-adv-x="701" 
d="M474 0l11 53h172l26 121h-172l54 254h171l1 5h-568q-33 -51 -47 -119l-1 -3q-15 -71 -11 -120t26 -79.5t62 -44.5t97 -14h46l-11 -53h144zM761 547h-171l11 49h-144l-11 -49h-57q-57 0 -102 -18t-79 -50h539zM261 288l8 37q10 45 46 74t105 29h1l-54 -254
q-130 0 -106 114z" />
    <glyph glyph-name="FL00A3h" unicode="&#xa3;" horiz-adv-x="738" 
d="M104 231h92l-49 -231h536l26 122h-392l23 109h217l27 127h-217q5 21 13 40t22 35h-148q-18 -36 -30 -78h-94zM280 479h330l25 117h-143q-70 0 -122.5 -30t-89.5 -87z" />
    <glyph glyph-name="FL00A4h" unicode="&#xa4;" horiz-adv-x="651" 
d="M560 229l26 123q10 43 -2 72l8 9h-349l8 -15q-11 -14 -17.5 -30.5t-10.5 -35.5l-26 -123q-4 -18 -4 -33q0 -14 2 -25l-162 -171h150l109 115h118l61 -115h150l-89 167q21 27 28 62zM474 318l-12 -53q-10 -49 -67 -49h-49q-55 0 -45 49l12 53q5 22 19.5 36t48.5 14h46
q33 0 42.5 -14t4.5 -36zM748 598h-151l-111 -119h150zM157 597l62 -118h151l-62 118h-151z" />
    <glyph glyph-name="FL00A5h" unicode="&#xa5;" horiz-adv-x="651" 
d="M178 208h120l-7 -34h-120l-26 -124h120l-11 -50h144l11 50h114l26 124h-114l7 34h114l27 124h-84l94 101h-150l-31 -34l-18 34h-151l54 -101h-92zM486 479h151l111 119h-151zM157 597l62 -118h151l-62 118h-151z" />
    <glyph glyph-name="FLE004h" unicode="&#xa6;" horiz-adv-x="758" 
d="M704 0l84 393q2 11 3 20.5t2 19.5h-158q11 -25 0 -75l-27 -128h-364l29 136q8 41 35 67h-158q-4 -10 -6.5 -19.5t-4.5 -20.5l-84 -393h140l23 106h364l-23 -106h145zM172 479h619q-6 29 -25.5 51t-54.5 36.5t-87 22t-124 7.5q-69 0 -122 -7.5t-92.5 -22.5t-67.5 -37
t-46 -50z" />
    <glyph glyph-name="FL00B0h" unicode="&#xa7;" 
d="M330 433h-164q-32 -60 -47 -133l-13 -62h506q-26 -66 -74.5 -90t-111.5 -24h-197l-26 -124h232q139 0 223 78.5t113 217.5l14 65h-506q9 23 22 41t29 31zM197 479h463l25 117h-230q-86 0 -150 -30t-108 -87z" />
    <glyph glyph-name="FL00A8h" unicode="&#xa8;" horiz-adv-x="462" 
d="M168 532q-4 -17 2 -31t20 -22h84q17 8 29 22t16 31q6 26 -12.5 44.5t-50.5 18.5t-57 -18.5t-31 -44.5zM369 532q-4 -17 2 -31t20 -22h84q17 8 29 22t16 31q6 26 -12.5 44.5t-50.5 18.5t-57 -18.5t-31 -44.5z" />
    <glyph glyph-name="FL00A9h" unicode="&#xa9;" horiz-adv-x="433" 
d="M463 398l7 35h-64l-4 -21q-4 -18 -10.5 -30.5t-19.5 -20t-33.5 -10.5t-51.5 -3q-56 0 -73 16.5t-11 45.5l5 23h-61l-8 -36q-5 -24 -1 -42.5t19.5 -31t44.5 -19.5t74 -7q47 0 80 6t55 19t34 31.5t18 44.5zM332 542q32 0 50 -4.5t27 -12.5t10 -18.5t-2 -22.5l-1 -5h64l4 18
q5 25 1.5 43.5t-19.5 31t-45.5 18.5t-76.5 6q-92 0 -133 -26.5t-51 -74.5l-3 -16h61l1 5q6 27 31 42.5t82 15.5zM360 376l6 28h-76q-32 0 -26 27v2h-35q-4 -27 6 -42t38 -15h87zM308 487h76l5 28h-90q-37 0 -56 -36h37q10 8 28 8z" />
    <glyph glyph-name="FLE003h" unicode="&#xaa;" horiz-adv-x="738" 
d="M194 0l50 235h345l-50 -235h144l92 433h-144l-16 -75h-344q6 21 16 40t26 35h-152q-11 -20 -19 -41t-12 -41l-75 -351h139zM192 479h593l25 117h-410q-60 0 -114.5 -33t-93.5 -84z" />
    <glyph glyph-name="FL00ABh" unicode="&#xab;" horiz-adv-x="533" 
d="M106 244l164 -104l21 100l-93 56l117 55l17 82h-26l-180 -92zM343 244l164 -104l21 100l-93 56l117 55l17 82h-26l-180 -92z" />
    <glyph glyph-name="FL00ADh" unicode="&#xac;" horiz-adv-x="558" 
d="M131 358l-26 -123h325l-34 -162h123l60 285h-448z" />
    <glyph glyph-name="FL00AEh" unicode="&#xad;" horiz-adv-x="407" 
d="M105 234h297l26 124h-297z" />
    <glyph glyph-name="FL00B8h" unicode="&#xae;" horiz-adv-x="433" 
d="M463 398l7 35h-64l-4 -21q-4 -18 -10.5 -30.5t-19.5 -20t-33.5 -10.5t-51.5 -3q-56 0 -73 16.5t-11 45.5l5 23h-61l-8 -36q-5 -24 -1 -42.5t19.5 -31t44.5 -19.5t74 -7q47 0 80 6t55 19t34 31.5t18 44.5zM332 542q32 0 50 -4.5t27 -12.5t10 -18.5t-2 -22.5l-1 -5h64l4 18
q5 25 1.5 43.5t-19.5 31t-45.5 18.5t-76.5 6q-92 0 -133 -26.5t-51 -74.5l-3 -16h61l1 5q6 27 31 42.5t82 15.5zM308 487h76l5 28h-90q-37 0 -56 -36h37q10 8 28 8zM218 382h35l11 51h-35z" />
    <glyph glyph-name="FL00AFh" unicode="&#xaf;" horiz-adv-x="506" 
d="M170 660l-26 -123h446l26 123h-446z" />
    <glyph glyph-name="FL0040h" unicode="&#xb0;" horiz-adv-x="700" 
d="M578 361l-77 -362h144l63 297q17 78 14 137h-149q14 -28 5 -72zM182 596l-25 -117h559q-13 57 -54 87t-118 30h-362z" />
    <glyph glyph-name="FL00B1h" unicode="&#xb1;" horiz-adv-x="556" 
d="M303 403h-162l-26 -123h160l-20 -93h125l20 93h161l26 123h-163l6 30h-122zM528 123h-446l-26 -123h446zM321 498l-4 -19h123l4 19h-123z" />
    <glyph glyph-name="FL00B2h" unicode="&#xb2;" horiz-adv-x="436" 
d="M458 360h-253l11 55h253l4 18h-326l-29 -135h326zM409 479h72q5 55 -21.5 86t-87.5 31h-190l-13 -62h172q32 0 50.5 -11.5t17.5 -43.5z" />
    <glyph glyph-name="FL00B3h" unicode="&#xb3;" horiz-adv-x="405" 
d="M118 298h181q60 0 93.5 35t49.5 100h-295l-4 -18h223q-12 -57 -77 -57h-158zM380 479h70q6 55 -13 86t-69 31h-186l-13 -60h158q38 0 48 -15.5t5 -41.5z" />
    <glyph glyph-name="FL00B4h" unicode="&#xb4;" horiz-adv-x="286" 
d="M231 563l-59 -60q-5 -6 -8.5 -12t-6.5 -12h147l23 21q12 12 17 32q3 15 -6 25.5t-21 21.5q-17 17 -37 17q-11 0 -26 -12t-23 -21zM244 425l9 8h-95q2 -3 3.5 -6t4.5 -6q15 -16 37 -16q24 0 41 20z" />
    <glyph glyph-name="FL00B5h" unicode="&#xb5;" 
d="M279 362l15 71h-148l-29 -137q-29 -139 21 -217.5t189 -78.5h234l26 124h-199q-32 0 -57.5 5.5t-43.5 18.5t-27 35t-8 55h278l-1 -1q100 0 163 51t99 145h-141q-27 -57 -95 -71h-276zM182 596l-26 -117h148l25 117h-147zM663 479h144q3 13 6.5 26.5t6.5 27.5l14 64h-146z
" />
    <glyph glyph-name="FL00B6h" unicode="&#xb6;" horiz-adv-x="739" 
d="M130 351v-1h-2q-9 -45 -3.5 -87t29.5 -81q25 -39 60 -59l-26 -123h133l92 433h-253q-11 -20 -18 -40.5t-12 -41.5zM810 596h-410q-46 0 -90.5 -19t-82.5 -59q-11 -10 -19.5 -19.5t-16.5 -19.5h594zM683 0l92 433h-144l-92 -433h144z" />
    <glyph glyph-name="FL00B7h" unicode="&#xb7;" horiz-adv-x="261" 
d="M118 295q-6 -26 11.5 -44.5t49.5 -18.5t58 18.5t32 44.5q5 26 -13 44.5t-50 18.5t-57.5 -18.5t-30.5 -44.5z" />
    <glyph glyph-name="FL00ACh" unicode="&#xb8;" 
d="M779 433h-164q21 -27 22 -72h-506l-14 -65q-29 -139 21 -217.5t189 -78.5h380l26 124h-345q-32 0 -57.5 5.5t-43.5 18.5t-27 35t-8 55h506l13 62q15 76 8 133zM156 479h613q-20 57 -71.5 87t-136.5 30h-380z" />
    <glyph glyph-name="FL00B9h" unicode="&#xb9;" horiz-adv-x="217" 
d="M181 595l-12 -59h35l-12 -57h72l24 116h-107zM225 297l29 136h-72l-29 -136h72z" />
    <glyph glyph-name="FL00BAh" unicode="&#xba;" horiz-adv-x="433" 
d="M462 397l8 36h-71l-4 -18q-3 -17 -9 -28.5t-18 -18.5t-31 -10t-49 -3q-52 0 -67 15.5t-9 41.5l4 21h-69l-8 -37q-5 -24 -1 -42.5t19.5 -31t44.5 -19.5t74 -7q47 0 80 6t55 19t34 31.5t17 44.5zM331 536q29 0 46 -4t25 -11.5t9 -17.5t-2 -21v-3h71l3 17q6 25 2 43.5
t-19.5 31t-45.5 18.5t-77 6q-92 0 -132.5 -26.5t-50.5 -74.5l-3 -15h69v3q5 25 29.5 39.5t75.5 14.5z" />
    <glyph glyph-name="FL00BBh" unicode="&#xbb;" horiz-adv-x="533" 
d="M410 433h-26l-17 -82l93 -55l-117 -56l-21 -100l208 104l20 97zM173 433h-26l-17 -82l93 -55l-117 -56l-21 -100l208 104l20 97z" />
    <glyph glyph-name="FL0050h" unicode="&#xbc;" horiz-adv-x="738" 
d="M249 235h484l25 116q3 20 3.5 41t-2.5 41h-150q9 -16 11 -35t-1 -40h-344l16 75h-144l-92 -433h144zM592 596h-410l-25 -117h591q-18 51 -57.5 84t-98.5 33z" />
    <glyph glyph-name="FL00BDh" unicode="&#xbd;" horiz-adv-x="863" 
d="M854 0l13 62h-253l12 55h253l7 33q14 69 -11 108.5t-94 39.5h-190l-13 -62h172q32 0 51 -12t18 -45h-253l-38 -179h326zM251 0l458 433h-140l-462 -433h144zM882 596h-139l-125 -117h140zM287 596l-13 -59h41l-12 -58h84l25 117h-125zM348 298l29 135h-84l-29 -135h84z
" />
    <glyph glyph-name="FL0052h" unicode="&#xbe;" horiz-adv-x="738" 
d="M733 235l25 116q8 42 2 82h-151q9 -16 11 -35t-1 -40h-344l16 75h-144l-92 -433h144l50 235h134l122 -235h160l-124 235h192zM592 596h-410l-25 -117h593q-18 51 -58.5 84t-99.5 33z" />
    <glyph glyph-name="FL00BFh" unicode="&#xbf;" horiz-adv-x="765" 
d="M636 359h-506l-14 -65q-29 -139 21.5 -217.5t189.5 -78.5h380l26 124h-345q-32 0 -57.5 5.5t-43.5 18.5t-27.5 35t-8.5 55h506l40 186h-146zM822 530q5 26 -12.5 44.5t-49.5 18.5t-58 -18.5t-31 -44.5q-8 -34 19 -51h91q15 8 26 21.5t15 29.5z" />
    <glyph glyph-name="FL00C0h" unicode="&#xc0;" horiz-adv-x="738" 
d="M194 0l50 235h345l-50 -235h144l92 433h-144l-16 -75h-344q6 21 16 40t26 35h-152q-11 -20 -19 -41t-12 -41l-75 -351h139zM810 596h-410q-60 0 -114.5 -33t-93.5 -84h593zM581 839q-5 9 -14.5 21t-20.5 12q-21 0 -44 -17q-15 -13 -29.5 -22.5t-17.5 -24.5q-4 -19 3 -32
l51 -75q9 -20 33 -20q11 0 21.5 3.5t21.5 12.5q14 11 21.5 21.5t10.5 25.5q4 18 -2 35z" />
    <glyph glyph-name="FL00C1h" unicode="&#xc1;" horiz-adv-x="738" 
d="M194 0l50 235h345l-50 -235h144l92 433h-144l-16 -75h-344q6 21 16 40t26 35h-152q-11 -20 -19 -41t-12 -41l-75 -351h139zM810 596h-410q-60 0 -114.5 -33t-93.5 -84h593zM499 778q-12 -15 -17 -35q-3 -15 -0.5 -25.5t12.5 -21.5q13 -16 37 -16q23 0 41 20l83 75
q12 12 17 32q3 15 -7.5 24.5t-19.5 22.5q-17 17 -38 17q-11 0 -25.5 -12t-23.5 -21z" />
    <glyph glyph-name="FL00C2h" unicode="&#xc2;" horiz-adv-x="738" 
d="M194 0l50 235h345l-50 -235h144l92 433h-144l-16 -75h-344q6 21 16 40t26 35h-152q-11 -20 -19 -41t-12 -41l-75 -351h139zM810 596h-410q-60 0 -114.5 -33t-93.5 -84h593zM694 679l-67 186h-97l-144 -186h100l79 105l32 -105h97z" />
    <glyph glyph-name="FL00C3h" unicode="&#xc3;" horiz-adv-x="738" 
d="M194 0l50 235h345l-50 -235h144l92 433h-144l-16 -75h-344q6 21 16 40t26 35h-152q-11 -20 -19 -41t-12 -41l-75 -351h139zM810 596h-410q-60 0 -114.5 -33t-93.5 -84h593zM479 842l-138 -162h100l71 87l40 -88h97l139 162h-100l-73 -88l-39 89h-97z" />
    <glyph glyph-name="FL00C4h" unicode="&#xc4;" horiz-adv-x="738" 
d="M194 0l50 235h345l-50 -235h144l92 433h-144l-16 -75h-344q6 21 16 40t26 35h-152q-11 -20 -19 -41t-12 -41l-75 -351h139zM810 596h-410q-60 0 -114.5 -33t-93.5 -84h593zM354 731q-5 -26 12.5 -44.5t49.5 -18.5t58 18.5t31 44.5q6 26 -12 44.5t-50 18.5t-57.5 -18.5
t-31.5 -44.5zM555 731q-5 -26 12.5 -44.5t49.5 -18.5t58 18.5t31 44.5q6 26 -12 44.5t-50 18.5t-57.5 -18.5t-31.5 -44.5z" />
    <glyph glyph-name="FL00C5h" unicode="&#xc5;" horiz-adv-x="738" 
d="M194 0l50 235h345l-50 -235h144l92 433h-144l-16 -75h-344q6 21 16 40t26 35h-152q-11 -20 -19 -41t-12 -41l-75 -351h139zM810 596h-410q-60 0 -114.5 -33t-93.5 -84h593zM455 730q-5 -26 12.5 -44.5t49.5 -18.5t58 18.5t31 44.5q6 26 -12 44.5t-50 18.5t-57.5 -18.5
t-31.5 -44.5z" />
    <glyph glyph-name="FL00C6h" unicode="&#xc6;" horiz-adv-x="1184" 
d="M194 0l22 105h346l-22 -105h589l26 121h-316q-130 0 -106 114h360l26 124h-360q5 21 13 40t22 34h-163l-45 -211h-344l29 136q6 21 16 40t26 35h-152q-11 -20 -19 -41t-12 -41l-75 -351h139zM1256 596h-856q-60 0 -114.5 -33t-93.5 -84h1039z" />
    <glyph glyph-name="FL00C7h" unicode="&#xc7;" horiz-adv-x="700" 
d="M172 -169h81q52 0 93 9t72.5 29.5t55 52.5t40.5 78h131l26 121h-316q-130 0 -106 114l26 123q5 22 13 41t22 34h-148q-14 -29 -24.5 -62t-18.5 -71q-15 -71 -15 -127q0 -55 19 -93.5t58 -59t102 -20.5h91q-7 -18 -16.5 -27.5t-23.5 -14t-32 -5.5t-42 -1h-62zM772 596
h-372q-69 0 -121.5 -30t-90.5 -87h559z" />
    <glyph glyph-name="FL00C8h" unicode="&#xc8;" horiz-adv-x="700" 
d="M645 0l26 121h-316q-130 0 -106 114h445l27 125h-445q8 43 33 73h-147q-14 -29 -24.5 -62t-18.5 -71q-15 -71 -15 -127q0 -55 19 -93.5t58 -59t102 -20.5h362zM772 596h-372q-69 0 -121.5 -30t-90.5 -87h559zM571 839q-5 9 -14.5 21t-20.5 12q-21 0 -44 -17
q-15 -13 -29.5 -22.5t-17.5 -24.5q-4 -19 3 -32l51 -75q9 -20 33 -20q11 0 21.5 3.5t21.5 12.5q14 11 21.5 21.5t10.5 25.5q4 18 -2 35z" />
    <glyph glyph-name="FL00C9h" unicode="&#xc9;" horiz-adv-x="700" 
d="M645 0l26 121h-316q-130 0 -106 114h447l27 126h-447q8 42 33 72h-147q-14 -29 -24.5 -62t-18.5 -71q-15 -71 -15 -127q0 -55 19 -93.5t58 -59t102 -20.5h362zM772 596h-372q-69 0 -121.5 -30t-90.5 -87h559zM508 780q-13 -15 -18 -35q-3 -15 0 -25.5t12 -21.5
q15 -16 37 -16q23 0 41 20l83 75q12 12 17 32q3 15 -7.5 24.5t-19.5 22.5q-17 17 -37 17q-11 0 -26 -12t-23 -21z" />
    <glyph glyph-name="FL00CAh" unicode="&#xca;" horiz-adv-x="700" 
d="M645 0l26 121h-316q-130 0 -106 114h446l27 125h-446q8 43 33 73h-147q-14 -29 -24.5 -62t-18.5 -71q-15 -71 -15 -127q0 -55 19 -93.5t58 -59t102 -20.5h362zM772 596h-372q-69 0 -121.5 -30t-90.5 -87h559zM677 678l-67 186h-97l-144 -186h100l78 105l33 -105h97z" />
    <glyph glyph-name="FL00CBh" unicode="&#xcb;" horiz-adv-x="700" 
d="M645 0l26 121h-316q-130 0 -106 114h447l26 123h-447q5 22 13 41t22 34h-148q-14 -29 -24.5 -62t-18.5 -71q-15 -71 -15 -127q0 -55 19 -93.5t58 -59t102 -20.5h362zM772 596h-372q-69 0 -121.5 -30t-90.5 -87h559zM569 730q-5 -26 12.5 -44.5t49.5 -18.5t58 18.5
t31 44.5q6 26 -12 44.5t-50 18.5t-57.5 -18.5t-31.5 -44.5zM368 730q-5 -26 12.5 -44.5t49.5 -18.5t58 18.5t31 44.5q6 26 -12 44.5t-50 18.5t-57.5 -18.5t-31.5 -44.5z" />
    <glyph glyph-name="FL00CCh" unicode="&#xcc;" horiz-adv-x="694" 
d="M80 119l-25 -119h584l25 119h-219l67 314h-140l-67 -314h-225zM157 479h584l25 117h-584zM579 781l-33 60q-5 9 -14.5 21t-20.5 12q-22 0 -45 -17q-14 -13 -29 -22.5t-18 -24.5q-4 -19 3 -32l51 -75q11 -20 33 -20q11 0 21.5 3.5t22.5 12.5q14 11 21 21.5t11 25.5
q2 10 1.5 18.5t-4.5 16.5z" />
    <glyph glyph-name="FL00CDh" unicode="&#xcd;" horiz-adv-x="694" 
d="M664 119h-225l67 314h-140l-67 -314h-219l-25 -119h584zM766 596h-584l-25 -117h584zM447 781q-14 -17 -17 -35q-4 -15 -1 -25.5t13 -21.5q13 -16 36 -16q24 0 41 20l83 75q12 12 17 32q3 15 -7 24.5t-20 22.5q-17 17 -37 17q-11 0 -26 -12t-23 -21z" />
    <glyph glyph-name="FL00EEh" unicode="&#xce;" horiz-adv-x="694" 
d="M664 119h-225l67 314h-140l-67 -314h-219l-25 -119h584zM766 596h-584l-25 -117h584zM644 681l-68 186h-97l-143 -186h100l78 105l33 -105h97z" />
    <glyph glyph-name="FL00CFh" unicode="&#xcf;" horiz-adv-x="694" 
d="M664 119h-225l67 314h-140l-67 -314h-219l-25 -119h584zM766 596h-584l-25 -117h584zM526 732q-6 -26 11.5 -44.5t49.5 -18.5t58 18.5t32 44.5q5 26 -13 44.5t-50 18.5t-57.5 -18.5t-30.5 -44.5zM325 732q-6 -26 11.5 -44.5t49.5 -18.5t58 18.5t32 44.5q5 26 -13 44.5
t-50 18.5t-57.5 -18.5t-30.5 -44.5z" />
    <glyph glyph-name="FL00AAh" unicode="&#xd0;" horiz-adv-x="739" 
d="M683 0l92 433h-550q-5 -5 -10.5 -10t-10.5 -10q-41 -38 -64.5 -80t-33.5 -87h2l-1 -1q-10 -45 -4 -86t30 -79q22 -40 58 -60t82 -20h410zM413 372h205l-54 -253h-204q-38 0 -61.5 11t-36 29t-15 41t0.5 47q10 32 23 55.5t32.5 39t46 23t63.5 7.5zM666 596l-23 -105h-267
q-36 0 -72 -12h481l25 117h-144z" />
    <glyph glyph-name="FL00D1h" unicode="&#xd1;" horiz-adv-x="758" 
d="M751 518q-22 40 -57.5 59t-81.5 19h-430l-25 -117h614q-4 10 -9.5 19.5t-10.5 19.5zM199 0l92 433h-144l-92 -433h144zM703 0l75 351q9 40 4 82h-153q11 -20 11 -47q0 -26 -6 -55l-70 -331h139zM463 841l-139 -162h100l72 87l40 -88h97l139 162h-100l-73 -88l-39 89h-97z
" />
    <glyph glyph-name="FL00D2h" unicode="&#xd2;" horiz-adv-x="757" 
d="M745 203l41 193q2 10 3 19l2 18h-156q11 -25 0 -75l-25 -120q-8 -34 -20 -57t-35 -37t-61 -20t-97 -6q-52 0 -85 8t-50 23t-21 36.5t2 47.5l28 135q5 19 13 35t23 30h-157q-4 -10 -6.5 -19.5t-4.5 -20.5l-41 -193q-10 -47 -2.5 -84.5t38.5 -63t89 -39t149 -13.5
q94 0 160.5 12.5t110 38t67.5 63.5t35 89zM500 596q-69 0 -122 -7.5t-92.5 -22.5t-67.5 -37t-46 -50h617q-6 29 -25 51t-54 36.5t-86.5 22t-123.5 7.5zM581 839q-5 9 -14.5 21t-20.5 12q-21 0 -44 -17q-15 -13 -29.5 -22.5t-17.5 -24.5q-4 -19 3 -32l51 -75q9 -20 33 -20
q11 0 21.5 3.5t21.5 12.5q14 11 21.5 21.5t10.5 25.5q4 18 -2 35z" />
    <glyph glyph-name="FL00D3h" unicode="&#xd3;" horiz-adv-x="757" 
d="M745 203l41 193q2 10 3 19l2 18h-156q11 -25 0 -75l-25 -120q-8 -34 -20 -57t-35 -37t-61 -20t-97 -6q-52 0 -85 8t-50 23t-21 36.5t2 47.5l28 135q5 19 13 35t23 30h-157q-4 -10 -6.5 -19.5t-4.5 -20.5l-41 -193q-10 -47 -2.5 -84.5t38.5 -63t89 -39t149 -13.5
q94 0 160.5 12.5t110 38t67.5 63.5t35 89zM500 596q-69 0 -122 -7.5t-92.5 -22.5t-67.5 -37t-46 -50h617q-6 29 -25 51t-54 36.5t-86.5 22t-123.5 7.5zM475 779q-13 -15 -18 -35q-3 -15 -0.5 -25.5t12.5 -21.5q15 -16 37 -16q23 0 41 20l83 75q12 12 17 32q3 15 -7.5 24.5
t-19.5 22.5q-17 17 -38 17q-11 0 -25.5 -12t-23.5 -21z" />
    <glyph glyph-name="FL00D4h" unicode="&#xd4;" horiz-adv-x="757" 
d="M745 203l41 193q2 10 3 19l2 18h-156q11 -25 0 -75l-25 -120q-8 -34 -20 -57t-35 -37t-61 -20t-97 -6q-52 0 -85 8t-50 23t-21 36.5t2 47.5l28 135q5 19 13 35t23 30h-157q-4 -10 -6.5 -19.5t-4.5 -20.5l-41 -193q-10 -47 -2.5 -84.5t38.5 -63t89 -39t149 -13.5
q94 0 160.5 12.5t110 38t67.5 63.5t35 89zM500 596q-69 0 -122 -7.5t-92.5 -22.5t-67.5 -37t-46 -50h617q-6 29 -25 51t-54 36.5t-86.5 22t-123.5 7.5zM675 681l-68 186h-97l-143 -186h100l78 105l33 -105h97z" />
    <glyph glyph-name="FL00D5h" unicode="&#xd5;" horiz-adv-x="757" 
d="M745 203l41 193q2 10 3 19l2 18h-156q11 -25 0 -75l-25 -120q-8 -34 -20 -57t-35 -37t-61 -20t-97 -6q-52 0 -85 8t-50 23t-21 36.5t2 47.5l28 135q5 19 13 35t23 30h-157q-4 -10 -6.5 -19.5t-4.5 -20.5l-41 -193q-10 -47 -2.5 -84.5t38.5 -63t89 -39t149 -13.5
q94 0 160.5 12.5t110 38t67.5 63.5t35 89zM500 596q-69 0 -122 -7.5t-92.5 -22.5t-67.5 -37t-46 -50h617q-6 29 -25 51t-54 36.5t-86.5 22t-123.5 7.5zM462 843l-138 -162h100l71 87l41 -88h97l138 162h-100l-73 -88l-39 89h-97z" />
    <glyph glyph-name="FL00D6h" unicode="&#xd6;" horiz-adv-x="757" 
d="M745 203l41 193q2 10 3 19l2 18h-156q11 -25 0 -75l-25 -120q-8 -34 -20 -57t-35 -37t-61 -20t-97 -6q-52 0 -85 8t-50 23t-21 36.5t2 47.5l28 135q5 19 13 35t23 30h-157q-4 -10 -6.5 -19.5t-4.5 -20.5l-41 -193q-10 -47 -2.5 -84.5t38.5 -63t89 -39t149 -13.5
q94 0 160.5 12.5t110 38t67.5 63.5t35 89zM500 596q-69 0 -122 -7.5t-92.5 -22.5t-67.5 -37t-46 -50h617q-6 29 -25 51t-54 36.5t-86.5 22t-123.5 7.5zM354 731q-5 -26 12.5 -44.5t49.5 -18.5t58 18.5t31 44.5q6 26 -12 44.5t-50 18.5t-57.5 -18.5t-31.5 -44.5zM555 731
q-5 -26 12.5 -44.5t49.5 -18.5t58 18.5t31 44.5q6 26 -12 44.5t-50 18.5t-57.5 -18.5t-31.5 -44.5z" />
    <glyph glyph-name="FL00D7h" unicode="&#xd7;" horiz-adv-x="503" 
d="M254 274l-211 -223h112l139 146l77 -146h113l-117 223l150 159h-113l-78 -83l-43 83h-112zM579 499h-113l-19 -20h113zM136 499l11 -20h112l-10 20h-113z" />
    <glyph glyph-name="FL00D8h" unicode="&#xd8;" horiz-adv-x="757" 
d="M634 358l-26 -123q-24 -114 -154 -114h-32l165 312h-139l-160 -302q-56 23 -39 104l26 123q5 22 13 41t22 34h-148q-14 -29 -24.5 -62t-18.5 -71q-15 -71 -15 -127q0 -55 19 -93.5t58 -59t102 -20.5h191q63 0 111 20.5t83 59t59 94t39 126.5q8 38 11 71t1 62h-148
q8 -15 8.5 -34t-4.5 -41zM611 596h-211q-69 0 -121.5 -30t-90.5 -87h584q-13 57 -52.5 87t-108.5 30z" />
    <glyph glyph-name="FL00D9h" unicode="&#xd9;" horiz-adv-x="758" 
d="M744 191l51 242h-144l-44 -207q-7 -34 -19 -57t-35 -37t-60.5 -20t-96.5 -6q-52 0 -85 8t-50.5 23t-21.5 36.5t2 47.5l45 212h-139l-51 -242q-11 -48 -3.5 -85.5t38.5 -64t89 -40t150 -13.5q94 0 160.5 12.5t110 38t68 63.5t35.5 89zM581 839q-5 9 -14.5 21t-20.5 12
q-21 0 -44 -17q-15 -13 -29.5 -22.5t-17.5 -24.5q-4 -19 3 -32l51 -75q9 -20 33 -20q11 0 21.5 3.5t21.5 12.5q14 11 21.5 21.5t10.5 25.5q4 18 -2 35zM830 596h-144l-25 -117h144zM321 596h-139l-25 -117h139z" />
    <glyph glyph-name="FL00DAh" unicode="&#xda;" horiz-adv-x="758" 
d="M744 191l51 242h-144l-44 -207q-7 -34 -19 -57t-35 -37t-60.5 -20t-96.5 -6q-52 0 -85 8t-50.5 23t-21.5 36.5t2 47.5l45 212h-139l-51 -242q-11 -48 -3.5 -85.5t38.5 -64t89 -40t150 -13.5q94 0 160.5 12.5t110 38t68 63.5t35.5 89zM475 779q-13 -15 -18 -35
q-3 -15 -0.5 -25.5t12.5 -21.5q15 -16 37 -16q23 0 41 20l83 75q12 12 17 32q3 15 -7.5 24.5t-19.5 22.5q-17 17 -38 17q-11 0 -25.5 -12t-23.5 -21zM830 596h-144l-25 -117h144zM321 596h-139l-25 -117h139z" />
    <glyph glyph-name="FL00DBh" unicode="&#xdb;" horiz-adv-x="758" 
d="M744 191l51 242h-144l-44 -207q-7 -34 -19 -57t-35 -37t-60.5 -20t-96.5 -6q-52 0 -85 8t-50.5 23t-21.5 36.5t2 47.5l45 212h-139l-51 -242q-11 -48 -3.5 -85.5t38.5 -64t89 -40t150 -13.5q94 0 160.5 12.5t110 38t68 63.5t35.5 89zM675 681l-68 186h-97l-143 -186h100
l78 105l33 -105h97zM830 596h-144l-25 -117h144zM321 596h-139l-25 -117h139z" />
    <glyph glyph-name="FL00DCh" unicode="&#xdc;" horiz-adv-x="758" 
d="M744 191l51 242h-144l-44 -207q-7 -34 -19 -57t-35 -37t-60.5 -20t-96.5 -6q-52 0 -85 8t-50.5 23t-21.5 36.5t2 47.5l45 212h-139l-51 -242q-11 -48 -3.5 -85.5t38.5 -64t89 -40t150 -13.5q94 0 160.5 12.5t110 38t68 63.5t35.5 89zM830 596h-144l-25 -117h144zM321 596
h-139l-25 -117h139zM354 731q-5 -26 12.5 -44.5t49.5 -18.5t58 18.5t31 44.5q6 26 -12 44.5t-50 18.5t-57.5 -18.5t-31.5 -44.5zM555 731q-5 -26 12.5 -44.5t49.5 -18.5t58 18.5t31 44.5q6 26 -12 44.5t-50 18.5t-57.5 -18.5t-31.5 -44.5z" />
    <glyph glyph-name="FL00DDh" unicode="&#xdd;" 
d="M361 362q-63 13 -66 71h-141q-5 -94 37 -145t142 -51l1 1h278q-26 -66 -74.5 -90t-111.5 -24h-199l-26 -124h234q139 0 223 78.5t113 217.5l28 137h-147l-15 -71h-276zM497 779q-13 -15 -18 -35q-3 -15 -0.5 -25.5t12.5 -21.5q15 -16 37 -16q23 0 41 20l83 75
q12 12 17 32q3 15 -7.5 24.5t-19.5 22.5q-17 17 -38 17q-11 0 -25.5 -12t-23.5 -21zM834 596h-147l-25 -117h147zM328 597h-146l-14 -64q-3 -14 -5.5 -27.5t-3.5 -26.5h144z" />
    <glyph glyph-name="FL00DEh" unicode="&#xde;" horiz-adv-x="738" 
d="M709 121l24 116q12 54 -1 107t-48 89h-537l-92 -433h144l26 121h484zM480 363q38 0 62 -9.5t37 -25.5t16 -38t0 -46h-344l25 119h204zM567 482h-266l25 114h-144l-25 -117h443q-17 3 -33 3z" />
    <glyph glyph-name="FL00DFh" unicode="&#xdf;" horiz-adv-x="700" 
d="M577 358h-212l-26 -123h212q-24 -114 -154 -114h-82l-26 -121h128q63 0 111 20.5t83 59t59 94t39 126.5q8 38 11 71t1 62h-147q8 -15 8 -34t-5 -41zM172 -123l118 556h-143l-118 -556h143zM554 596h-372l-25 -117h558q-13 57 -52.5 87t-108.5 30z" />
    <glyph glyph-name="FL00E0h" unicode="&#xe0;" horiz-adv-x="738" 
d="M194 0l22 105h346l-22 -105h143l92 433h-144l-45 -211h-344l29 136q6 21 16 40t26 35h-152q-11 -20 -19 -41t-12 -41l-75 -351h139zM810 596h-410q-60 0 -114.5 -33t-93.5 -84h593zM581 839q-5 9 -14.5 21t-20.5 12q-21 0 -44 -17q-15 -13 -29.5 -22.5t-17.5 -24.5
q-4 -19 3 -32l51 -75q9 -20 33 -20q11 0 21.5 3.5t21.5 12.5q14 11 21.5 21.5t10.5 25.5q4 18 -2 35z" />
    <glyph glyph-name="FL00E1h" unicode="&#xe1;" horiz-adv-x="738" 
d="M194 0l22 105h346l-22 -105h143l92 433h-144l-45 -211h-344l29 136q6 21 16 40t26 35h-152q-11 -20 -19 -41t-12 -41l-75 -351h139zM810 596h-410q-60 0 -114.5 -33t-93.5 -84h593zM499 778q-12 -15 -17 -35q-3 -15 -0.5 -25.5t12.5 -21.5q13 -16 37 -16q23 0 41 20
l83 75q12 12 17 32q3 15 -7.5 24.5t-19.5 22.5q-17 17 -38 17q-11 0 -25.5 -12t-23.5 -21z" />
    <glyph glyph-name="FL00E2h" unicode="&#xe2;" horiz-adv-x="738" 
d="M194 0l22 105h346l-22 -105h143l92 433h-144l-45 -211h-344l29 136q6 21 16 40t26 35h-152q-11 -20 -19 -41t-12 -41l-75 -351h139zM810 596h-410q-60 0 -114.5 -33t-93.5 -84h593zM694 679l-67 186h-97l-144 -186h100l79 105l32 -105h97z" />
    <glyph glyph-name="FL00E3h" unicode="&#xe3;" horiz-adv-x="738" 
d="M194 0l22 105h346l-22 -105h143l92 433h-144l-45 -211h-344l29 136q6 21 16 40t26 35h-152q-11 -20 -19 -41t-12 -41l-75 -351h139zM810 596h-410q-60 0 -114.5 -33t-93.5 -84h593zM479 842l-138 -162h100l71 87l40 -88h97l139 162h-100l-73 -88l-39 89h-97z" />
    <glyph glyph-name="FL00E4h" unicode="&#xe4;" horiz-adv-x="738" 
d="M194 0l22 105h346l-22 -105h143l92 433h-144l-45 -211h-344l29 136q6 21 16 40t26 35h-152q-11 -20 -19 -41t-12 -41l-75 -351h139zM810 596h-410q-60 0 -114.5 -33t-93.5 -84h593zM555 731q-5 -26 12.5 -44.5t49.5 -18.5t58 18.5t31 44.5q6 26 -12 44.5t-50 18.5
t-57.5 -18.5t-31.5 -44.5zM354 731q-5 -26 12.5 -44.5t49.5 -18.5t58 18.5t31 44.5q6 26 -12 44.5t-50 18.5t-57.5 -18.5t-31.5 -44.5z" />
    <glyph glyph-name="FL00E5h" unicode="&#xe5;" horiz-adv-x="738" 
d="M194 0l22 105h346l-22 -105h143l92 433h-144l-45 -211h-344l29 136q6 21 16 40t26 35h-152q-11 -20 -19 -41t-12 -41l-75 -351h139zM810 596h-410q-60 0 -114.5 -33t-93.5 -84h593zM455 730q-5 -26 12.5 -44.5t49.5 -18.5t58 18.5t31 44.5q6 26 -12 44.5t-50 18.5
t-57.5 -18.5t-31.5 -44.5z" />
    <glyph glyph-name="FL00E6h" unicode="&#xe6;" horiz-adv-x="1184" 
d="M194 0l22 105h346l-22 -105h589l26 121h-316q-130 0 -106 114h360l26 124h-360q5 21 13 40t22 34h-163l-45 -211h-344l29 136q6 21 16 40t26 35h-152q-11 -20 -19 -41t-12 -41l-75 -351h139zM1256 596h-856q-60 0 -114.5 -33t-93.5 -84h1039z" />
    <glyph glyph-name="FL00E7h" unicode="&#xe7;" horiz-adv-x="700" 
d="M172 -169h81q52 0 93 9t72.5 29.5t55 52.5t40.5 78h131l26 121h-316q-130 0 -106 114l26 123q5 22 13 41t22 34h-148q-14 -29 -24.5 -62t-18.5 -71q-15 -71 -15 -127q0 -55 19 -93.5t58 -59t102 -20.5h91q-7 -18 -16.5 -27.5t-23.5 -14t-32 -5.5t-42 -1h-62zM772 596
h-372q-69 0 -121.5 -30t-90.5 -87h559z" />
    <glyph glyph-name="FL00E8h" unicode="&#xe8;" horiz-adv-x="700" 
d="M645 0l26 121h-316q-130 0 -106 114h360l26 124h-360q5 21 13 40t22 34h-148q-14 -29 -24.5 -62t-18.5 -71q-15 -71 -15 -127q0 -55 19 -93.5t58 -59t102 -20.5h362zM772 596h-372q-69 0 -121.5 -30t-90.5 -87h559zM571 839q-5 9 -14.5 21t-20.5 12q-21 0 -44 -17
q-15 -13 -29.5 -22.5t-17.5 -24.5q-4 -19 3 -32l51 -75q9 -20 33 -20q11 0 21.5 3.5t21.5 12.5q14 11 21.5 21.5t10.5 25.5q4 18 -2 35z" />
    <glyph glyph-name="FL00E9h" unicode="&#xe9;" horiz-adv-x="700" 
d="M645 0l26 121h-316q-130 0 -106 114h360l26 124h-360q5 21 13 40t22 34h-148q-14 -29 -24.5 -62t-18.5 -71q-15 -71 -15 -127q0 -55 19 -93.5t58 -59t102 -20.5h362zM772 596h-372q-69 0 -121.5 -30t-90.5 -87h559zM508 780q-13 -15 -18 -35q-3 -15 0 -25.5t12 -21.5
q15 -16 37 -16q23 0 41 20l83 75q12 12 17 32q3 15 -7.5 24.5t-19.5 22.5q-17 17 -37 17q-11 0 -26 -12t-23 -21z" />
    <glyph glyph-name="FL00EAh" unicode="&#xea;" horiz-adv-x="700" 
d="M645 0l26 121h-316q-130 0 -106 114h360l26 124h-360q5 21 13 40t22 34h-148q-14 -29 -24.5 -62t-18.5 -71q-15 -71 -15 -127q0 -55 19 -93.5t58 -59t102 -20.5h362zM772 596h-372q-69 0 -121.5 -30t-90.5 -87h559zM677 678l-67 186h-97l-144 -186h100l78 105l33 -105h97
z" />
    <glyph glyph-name="FL00EBh" unicode="&#xeb;" horiz-adv-x="700" 
d="M645 0l26 121h-316q-130 0 -106 114h360l26 124h-360q5 21 13 40t22 34h-148q-14 -29 -24.5 -62t-18.5 -71q-15 -71 -15 -127q0 -55 19 -93.5t58 -59t102 -20.5h362zM772 596h-372q-69 0 -121.5 -30t-90.5 -87h559zM569 730q-5 -26 12.5 -44.5t49.5 -18.5t58 18.5
t31 44.5q6 26 -12 44.5t-50 18.5t-57.5 -18.5t-31.5 -44.5zM368 730q-5 -26 12.5 -44.5t49.5 -18.5t58 18.5t31 44.5q6 26 -12 44.5t-50 18.5t-57.5 -18.5t-31.5 -44.5z" />
    <glyph glyph-name="FL00ECh" unicode="&#xec;" horiz-adv-x="261" 
d="M58 0h144l92 433h-144zM376 781l-33 60q-5 9 -14.5 21t-20.5 12q-22 0 -45 -17q-14 -13 -29 -22.5t-18 -24.5q-4 -19 3 -32l51 -75q11 -20 33 -20q11 0 21.5 3.5t22.5 12.5q14 11 21 21.5t11 25.5q2 10 1.5 18.5t-4.5 16.5zM160 479h144l25 117h-144z" />
    <glyph glyph-name="FL00EDh" unicode="&#xed;" horiz-adv-x="254" 
d="M199 0l92 433h-144l-92 -433h144zM213 781q-14 -17 -17 -35q-4 -15 -1 -25.5t13 -21.5q13 -16 36 -16q24 0 41 20l83 75q12 12 17 32q3 15 -7 24.5t-20 22.5q-17 17 -37 17q-11 0 -26 -12t-23 -21zM326 596h-144l-25 -117h144z" />
    <glyph glyph-name="FL00F7h" unicode="&#xee;" horiz-adv-x="254" 
d="M199 0l92 433h-144l-92 -433h144zM424 678l-67 186h-97l-144 -186h100l78 105l33 -105h97zM326 596h-144l-25 -117h144z" />
    <glyph glyph-name="FL00EFh" unicode="&#xef;" horiz-adv-x="254" 
d="M199 0l92 433h-144l-92 -433h144zM326 596h-144l-25 -117h144zM107 726q-5 -26 12.5 -44.5t49.5 -18.5t58 18.5t31 44.5q6 26 -12 44.5t-50 18.5t-57.5 -18.5t-31.5 -44.5zM308 726q-5 -26 12.5 -44.5t49.5 -18.5t58 18.5t31 44.5q6 26 -12 44.5t-50 18.5t-57.5 -18.5
t-31.5 -44.5z" />
    <glyph glyph-name="FL00F0h" unicode="&#xf0;" 
d="M781 433h-166q21 -27 22 -72h-506l-14 -65q-29 -139 21 -217.5t189 -78.5h152q112 0 177 62t100 176h2l19 89q10 57 4 106zM156 479h615q-20 56 -71 86.5t-139 30.5h-380zM252 238h363l-2 -3q-11 -51 -43.5 -76.5t-83.5 -36.5v2h-98q-32 0 -57.5 5.5t-43.5 18.5t-27 35
t-8 55z" />
    <glyph glyph-name="FL00F1h" unicode="&#xf1;" horiz-adv-x="758" 
d="M751 518q-22 40 -57.5 59t-81.5 19h-430l-25 -117h614q-4 10 -9.5 19.5t-10.5 19.5zM199 0l92 433h-144l-92 -433h144zM703 0l75 351q9 40 4 82h-153q11 -20 11 -47q0 -26 -6 -55l-70 -331h139zM463 841l-139 -162h100l72 87l40 -88h97l139 162h-100l-73 -88l-39 89h-97z
" />
    <glyph glyph-name="FL00F2h" unicode="&#xf2;" horiz-adv-x="757" 
d="M745 203l41 193q2 10 3 19l2 18h-156q11 -25 0 -75l-25 -120q-8 -34 -20 -57t-35 -37t-61 -20t-97 -6q-52 0 -85 8t-50 23t-21 36.5t2 47.5l28 135q5 19 13 35t23 30h-157q-4 -10 -6.5 -19.5t-4.5 -20.5l-41 -193q-10 -47 -2.5 -84.5t38.5 -63t89 -39t149 -13.5
q94 0 160.5 12.5t110 38t67.5 63.5t35 89zM500 596q-69 0 -122 -7.5t-92.5 -22.5t-67.5 -37t-46 -50h617q-6 29 -25 51t-54 36.5t-86.5 22t-123.5 7.5zM581 839q-5 9 -14.5 21t-20.5 12q-21 0 -44 -17q-15 -13 -29.5 -22.5t-17.5 -24.5q-4 -19 3 -32l51 -75q9 -20 33 -20
q11 0 21.5 3.5t21.5 12.5q14 11 21.5 21.5t10.5 25.5q4 18 -2 35z" />
    <glyph glyph-name="FL00F3h" unicode="&#xf3;" horiz-adv-x="757" 
d="M745 203l41 193q2 10 3 19l2 18h-156q11 -25 0 -75l-25 -120q-8 -34 -20 -57t-35 -37t-61 -20t-97 -6q-52 0 -85 8t-50 23t-21 36.5t2 47.5l28 135q5 19 13 35t23 30h-157q-4 -10 -6.5 -19.5t-4.5 -20.5l-41 -193q-10 -47 -2.5 -84.5t38.5 -63t89 -39t149 -13.5
q94 0 160.5 12.5t110 38t67.5 63.5t35 89zM500 596q-69 0 -122 -7.5t-92.5 -22.5t-67.5 -37t-46 -50h617q-6 29 -25 51t-54 36.5t-86.5 22t-123.5 7.5zM475 779q-13 -15 -18 -35q-3 -15 -0.5 -25.5t12.5 -21.5q15 -16 37 -16q23 0 41 20l83 75q12 12 17 32q3 15 -7.5 24.5
t-19.5 22.5q-17 17 -38 17q-11 0 -25.5 -12t-23.5 -21z" />
    <glyph glyph-name="FL00F4h" unicode="&#xf4;" horiz-adv-x="757" 
d="M745 203l41 193q2 10 3 19l2 18h-156q11 -25 0 -75l-25 -120q-8 -34 -20 -57t-35 -37t-61 -20t-97 -6q-52 0 -85 8t-50 23t-21 36.5t2 47.5l28 135q5 19 13 35t23 30h-157q-4 -10 -6.5 -19.5t-4.5 -20.5l-41 -193q-10 -47 -2.5 -84.5t38.5 -63t89 -39t149 -13.5
q94 0 160.5 12.5t110 38t67.5 63.5t35 89zM500 596q-69 0 -122 -7.5t-92.5 -22.5t-67.5 -37t-46 -50h617q-6 29 -25 51t-54 36.5t-86.5 22t-123.5 7.5zM675 681l-68 186h-97l-143 -186h100l78 105l33 -105h97z" />
    <glyph glyph-name="FL00F5h" unicode="&#xf5;" horiz-adv-x="757" 
d="M745 203l41 193q2 10 3 19l2 18h-156q11 -25 0 -75l-25 -120q-8 -34 -20 -57t-35 -37t-61 -20t-97 -6q-52 0 -85 8t-50 23t-21 36.5t2 47.5l28 135q5 19 13 35t23 30h-157q-4 -10 -6.5 -19.5t-4.5 -20.5l-41 -193q-10 -47 -2.5 -84.5t38.5 -63t89 -39t149 -13.5
q94 0 160.5 12.5t110 38t67.5 63.5t35 89zM500 596q-69 0 -122 -7.5t-92.5 -22.5t-67.5 -37t-46 -50h617q-6 29 -25 51t-54 36.5t-86.5 22t-123.5 7.5zM462 843l-138 -162h100l71 87l41 -88h97l138 162h-100l-73 -88l-39 89h-97z" />
    <glyph glyph-name="FL00F6h" unicode="&#xf6;" horiz-adv-x="757" 
d="M745 203l41 193q2 10 3 19l2 18h-156q11 -25 0 -75l-25 -120q-8 -34 -20 -57t-35 -37t-61 -20t-97 -6q-52 0 -85 8t-50 23t-21 36.5t2 47.5l28 135q5 19 13 35t23 30h-157q-4 -10 -6.5 -19.5t-4.5 -20.5l-41 -193q-10 -47 -2.5 -84.5t38.5 -63t89 -39t149 -13.5
q94 0 160.5 12.5t110 38t67.5 63.5t35 89zM500 596q-69 0 -122 -7.5t-92.5 -22.5t-67.5 -37t-46 -50h617q-6 29 -25 51t-54 36.5t-86.5 22t-123.5 7.5zM354 731q-5 -26 12.5 -44.5t49.5 -18.5t58 18.5t31 44.5q6 26 -12 44.5t-50 18.5t-57.5 -18.5t-31.5 -44.5zM555 731
q-5 -26 12.5 -44.5t49.5 -18.5t58 18.5t31 44.5q6 26 -12 44.5t-50 18.5t-57.5 -18.5t-31.5 -44.5z" />
    <glyph glyph-name="FL0100h" unicode="&#xf7;" horiz-adv-x="556" 
d="M131 358l-26 -123h446l26 123h-446zM236 138q-5 -26 12.5 -44.5t49.5 -18.5t58 18.5t31 44.5q6 26 -12 44.5t-50 18.5t-57.5 -18.5t-31.5 -44.5zM392 519q-25 0 -46 -11.5t-33 -28.5h142q-5 17 -21.5 28.5t-41.5 11.5zM366 393q25 0 46 11t33 29h-142q5 -18 21.5 -29
t41.5 -11z" />
    <glyph glyph-name="FL00F8h" unicode="&#xf8;" horiz-adv-x="757" 
d="M634 358l-26 -123q-24 -114 -154 -114h-32l165 312h-139l-160 -302q-56 23 -39 104l26 123q5 22 13 41t22 34h-148q-14 -29 -24.5 -62t-18.5 -71q-15 -71 -15 -127q0 -55 19 -93.5t58 -59t102 -20.5h191q63 0 111 20.5t83 59t59 94t39 126.5q8 38 11 71t1 62h-148
q8 -15 8.5 -34t-4.5 -41zM611 596h-211q-69 0 -121.5 -30t-90.5 -87h584q-13 57 -52.5 87t-108.5 30z" />
    <glyph glyph-name="FL00F9h" unicode="&#xf9;" horiz-adv-x="758" 
d="M744 191l51 242h-144l-44 -207q-7 -34 -19 -57t-35 -37t-60.5 -20t-96.5 -6q-52 0 -85 8t-50.5 23t-21.5 36.5t2 47.5l45 212h-139l-51 -242q-11 -48 -3.5 -85.5t38.5 -64t89 -40t150 -13.5q94 0 160.5 12.5t110 38t68 63.5t35.5 89zM581 839q-5 9 -14.5 21t-20.5 12
q-21 0 -44 -17q-15 -13 -29.5 -22.5t-17.5 -24.5q-4 -19 3 -32l51 -75q9 -20 33 -20q11 0 21.5 3.5t21.5 12.5q14 11 21.5 21.5t10.5 25.5q4 18 -2 35zM830 596h-144l-25 -117h144zM321 596h-139l-25 -117h139z" />
    <glyph glyph-name="FL00FAh" unicode="&#xfa;" horiz-adv-x="758" 
d="M744 191l51 242h-144l-44 -207q-7 -34 -19 -57t-35 -37t-60.5 -20t-96.5 -6q-52 0 -85 8t-50.5 23t-21.5 36.5t2 47.5l45 212h-139l-51 -242q-11 -48 -3.5 -85.5t38.5 -64t89 -40t150 -13.5q94 0 160.5 12.5t110 38t68 63.5t35.5 89zM475 779q-13 -15 -18 -35
q-3 -15 -0.5 -25.5t12.5 -21.5q15 -16 37 -16q23 0 41 20l83 75q12 12 17 32q3 15 -7.5 24.5t-19.5 22.5q-17 17 -38 17q-11 0 -25.5 -12t-23.5 -21zM830 596h-144l-25 -117h144zM321 596h-139l-25 -117h139z" />
    <glyph glyph-name="FL00FBh" unicode="&#xfb;" horiz-adv-x="758" 
d="M744 191l51 242h-144l-44 -207q-7 -34 -19 -57t-35 -37t-60.5 -20t-96.5 -6q-52 0 -85 8t-50.5 23t-21.5 36.5t2 47.5l45 212h-139l-51 -242q-11 -48 -3.5 -85.5t38.5 -64t89 -40t150 -13.5q94 0 160.5 12.5t110 38t68 63.5t35.5 89zM675 681l-68 186h-97l-143 -186h100
l78 105l33 -105h97zM830 596h-144l-25 -117h144zM321 596h-139l-25 -117h139z" />
    <glyph glyph-name="FL00FCh" unicode="&#xfc;" horiz-adv-x="758" 
d="M744 191l51 242h-144l-44 -207q-7 -34 -19 -57t-35 -37t-60.5 -20t-96.5 -6q-52 0 -85 8t-50.5 23t-21.5 36.5t2 47.5l45 212h-139l-51 -242q-11 -48 -3.5 -85.5t38.5 -64t89 -40t150 -13.5q94 0 160.5 12.5t110 38t68 63.5t35.5 89zM830 596h-144l-25 -117h144zM321 596
h-139l-25 -117h139zM354 731q-5 -26 12.5 -44.5t49.5 -18.5t58 18.5t31 44.5q6 26 -12 44.5t-50 18.5t-57.5 -18.5t-31.5 -44.5zM555 731q-5 -26 12.5 -44.5t49.5 -18.5t58 18.5t31 44.5q6 26 -12 44.5t-50 18.5t-57.5 -18.5t-31.5 -44.5z" />
    <glyph glyph-name="FL00FDh" unicode="&#xfd;" 
d="M361 362q-63 13 -66 71h-141q-5 -94 37 -145t142 -51l1 1h278q-26 -66 -74.5 -90t-111.5 -24h-199l-26 -124h234q139 0 223 78.5t113 217.5l28 137h-147l-15 -71h-276zM497 779q-13 -15 -18 -35q-3 -15 -0.5 -25.5t12.5 -21.5q15 -16 37 -16q23 0 41 20l83 75
q12 12 17 32q3 15 -7.5 24.5t-19.5 22.5q-17 17 -38 17q-11 0 -25.5 -12t-23.5 -21zM834 596h-147l-25 -117h147zM328 597h-146l-14 -64q-3 -14 -5.5 -27.5t-3.5 -26.5h144z" />
    <glyph glyph-name="FL00FEh" unicode="&#xfe;" horiz-adv-x="738" 
d="M709 121l24 116q12 54 -1 107t-48 89h-537l-92 -433h144l26 121h484zM480 363q38 0 62 -9.5t37 -25.5t16 -38t0 -46h-344l25 119h204zM567 482h-266l25 114h-144l-25 -117h443q-17 3 -33 3z" />
    <glyph glyph-name="FL00FFh" unicode="&#xff;" 
d="M361 362q-63 13 -66 71h-141q-5 -94 37 -145t142 -51l1 1h278q-26 -66 -74.5 -90t-111.5 -24h-199l-26 -124h234q139 0 223 78.5t113 217.5l28 137h-147l-15 -71h-276zM834 596h-147l-25 -117h147zM328 597h-146l-14 -64q-3 -14 -5.5 -27.5t-3.5 -26.5h144zM354 731
q-5 -26 12.5 -44.5t49.5 -18.5t58 18.5t31 44.5q6 26 -12 44.5t-50 18.5t-57.5 -18.5t-31.5 -44.5zM555 731q-5 -26 12.5 -44.5t49.5 -18.5t58 18.5t31 44.5q6 26 -12 44.5t-50 18.5t-57.5 -18.5t-31.5 -44.5z" />
    <glyph glyph-name="FL0152h" unicode="&#x152;" horiz-adv-x="1148" 
d="M567 300q-12 -54 -15 -99t5 -80h-202q-130 0 -106 114l26 123q5 22 13 41t22 34h-148q-14 -29 -24.5 -62t-18.5 -71q-15 -71 -15 -127q0 -55 19 -93.5t58 -59t102 -20.5h810l26 121h-316q-130 0 -106 114h360l26 124h-360q5 21 13 40t22 34h-148q-14 -29 -24.5 -62
t-18.5 -71zM1220 596h-820q-69 0 -121.5 -30t-90.5 -87h1007z" />
    <glyph glyph-name="FL0153h" unicode="&#x153;" horiz-adv-x="1148" 
d="M567 300q-12 -54 -15 -99t5 -80h-202q-130 0 -106 114l26 123q5 22 13 41t22 34h-148q-14 -29 -24.5 -62t-18.5 -71q-15 -71 -15 -127q0 -55 19 -93.5t58 -59t102 -20.5h810l26 121h-316q-130 0 -106 114h360l26 124h-360q5 21 13 40t22 34h-148q-14 -29 -24.5 -62
t-18.5 -71zM1220 596h-820q-69 0 -121.5 -30t-90.5 -87h1007z" />
    <glyph glyph-name="FL0160h" unicode="&#x160;" 
d="M119 300l-13 -62h506q-26 -66 -74.5 -90t-111.5 -24h-345l-26 -124h380q139 0 223 78.5t113 217.5l14 65h-506q9 23 22 41t29 31h-164q-32 -60 -47 -133zM835 596h-380q-86 0 -150 -30t-108 -87h613zM414 865l66 -185h97l143 185h-100l-78 -104l-31 103z" />
    <glyph glyph-name="FL0162h" unicode="&#x161;" 
d="M330 433h-164q-32 -60 -47 -133l-13 -62h506q-26 -66 -74.5 -90t-111.5 -24h-344l-26 -124h379q139 0 223 78.5t113 217.5l14 65h-506q9 23 22 41t29 31zM197 479h463l25 117h-230q-86 0 -150 -30t-108 -87zM414 865l66 -185h97l143 185h-100l-78 -104l-31 103z" />
    <glyph glyph-name="FL0178h" unicode="&#x178;" 
d="M361 362q-63 13 -66 71h-141q-5 -94 37 -145t142 -51l1 1h278q-26 -66 -74.5 -90t-111.5 -24h-199l-26 -124h234q139 0 223 78.5t113 217.5l28 137h-147l-15 -71h-276zM834 596h-147l-25 -117h147zM328 597h-146l-14 -64q-3 -14 -5.5 -27.5t-3.5 -26.5h144zM354 731
q-5 -26 12.5 -44.5t49.5 -18.5t58 18.5t31 44.5q6 26 -12 44.5t-50 18.5t-57.5 -18.5t-31.5 -44.5zM555 731q-5 -26 12.5 -44.5t49.5 -18.5t58 18.5t31 44.5q6 26 -12 44.5t-50 18.5t-57.5 -18.5t-31.5 -44.5z" />
    <glyph glyph-name="FL017Dh" unicode="&#x17d;" horiz-adv-x="694" 
d="M55 0h584l25 119h-394l412 314h-191l-411 -314zM766 596h-584l-25 -117h584zM376 865l66 -185h97l143 185h-100l-78 -104l-31 103z" />
    <glyph glyph-name="FL0161h" unicode="&#x17e;" horiz-adv-x="694" 
d="M55 0h584l25 119h-394l412 314h-191l-411 -314zM766 596h-584l-25 -117h584zM376 865l66 -185h97l143 185h-100l-78 -104l-31 103z" />
    <glyph glyph-name="FL0192h" unicode="&#x192;" horiz-adv-x="700" 
d="M311 433h-150q-14 -30 -24.5 -64.5t-18.5 -72.5l-63 -297h144l77 362q9 46 35 72zM772 596h-362q-78 0 -132 -30t-91 -87h560z" />
    <glyph glyph-name="FL02C6h" unicode="&#x2c6;" horiz-adv-x="418" 
d="M285 595l-89 -116h98l26 35l11 -35h93l-42 116h-97zM242 409l18 24h-100l-18 -24h100zM450 409l-9 24h-96l8 -24h97z" />
    <glyph glyph-name="FL02DCh" unicode="&#x2dc;" horiz-adv-x="473" 
d="M260 595l-95 -116h98l30 38l16 -38h165l95 115h-100l-73 -92l-39 93h-97zM332 424h97l7 9h-108zM220 425l6 8h-99l-7 -8h100z" />
    <glyph glyph-name="FL2013h" unicode="&#x2013;" horiz-adv-x="488" 
d="M105 234h378l26 124h-378z" />
    <glyph glyph-name="FL2014h" unicode="&#x2014;" horiz-adv-x="556" 
d="M131 358l-26 -123h446l26 123h-446z" />
    <glyph glyph-name="FL2018h" unicode="&#x2018;" horiz-adv-x="261" 
d="M319 533q6 26 -12 44.5t-50 18.5t-57.5 -18.5t-31.5 -44.5l-11 -54h151zM143 416q-5 -26 12.5 -45t49.5 -19t58 18.5t31 44.5l4 18h-151z" />
    <glyph glyph-name="FL2019h" unicode="&#x2019;" horiz-adv-x="261" 
d="M319 533q6 26 -12 44.5t-50 18.5t-57.5 -18.5t-31.5 -44.5l-11 -54h151zM143 416q-5 -26 12.5 -45t49.5 -19t58 18.5t31 44.5l4 18h-151z" />
    <glyph glyph-name="FL201Ah" unicode="&#x201a;" horiz-adv-x="261" 
d="M44 -54q-6 -26 11.5 -45t49.5 -19t58 18.5t31 44.5l25 118q6 26 -12 44.5t-50 18.5t-57.5 -18.5t-31.5 -44.5z" />
    <glyph glyph-name="FL201Ch" unicode="&#x201c;" horiz-adv-x="463" 
d="M521 533q6 26 -12 44.5t-50 18.5t-57.5 -18.5t-31.5 -44.5l-11 -54h151zM319 532q6 26 -12.5 44.5t-50.5 18.5t-57 -18.5t-31 -44.5l-11 -53h151zM143 415q-5 -26 12.5 -45t49.5 -19t58 18.5t31 44.5l4 19h-151zM345 416q-5 -26 12.5 -45t49.5 -19t58 18.5t31 44.5l4 18
h-151z" />
    <glyph glyph-name="FL201Dh" unicode="&#x201d;" horiz-adv-x="463" 
d="M521 533q6 26 -12 44.5t-50 18.5t-57.5 -18.5t-31.5 -44.5l-11 -54h151zM319 532q6 26 -12.5 44.5t-50.5 18.5t-57 -18.5t-31 -44.5l-11 -53h151zM143 415q-5 -26 12.5 -45t49.5 -19t58 18.5t31 44.5l4 19h-151zM345 416q-5 -26 12.5 -45t49.5 -19t58 18.5t31 44.5l4 18
h-151z" />
    <glyph glyph-name="FL201Eh" unicode="&#x201e;" horiz-adv-x="463" 
d="M246 -54q-6 -26 11.5 -45t49.5 -19t58 18.5t31 44.5l25 118q6 26 -12 44.5t-50 18.5t-57.5 -18.5t-31.5 -44.5zM44 -53q-6 -26 11.5 -45t49.5 -19t58 18.5t32 44.5l25 118q5 26 -13 44.5t-50 18.5t-57.5 -18.5t-30.5 -44.5z" />
    <glyph glyph-name="FL2020h" unicode="&#x2020;" horiz-adv-x="495" 
d="M130 354h121l-75 -354h144l75 355h120l17 78h-385zM422 479l25 117h-144l-25 -117h144z" />
    <glyph glyph-name="FL2021h" unicode="&#x2021;" horiz-adv-x="495" 
d="M130 354h121l-26 -123h-121l-26 -125h121l-23 -106h144l23 107h120l26 124h-120l26 124h120l17 78h-385zM447 596h-144l-25 -117h144z" />
    <glyph glyph-name="FL2022h" unicode="&#x2022;" horiz-adv-x="473" 
d="M494 358q5 22 5 41t-8 34h-325q-14 -15 -22 -34t-13 -41l-26 -123q-24 -114 99 -114h110q130 0 154 114z" />
    <glyph glyph-name="FL2026h" unicode="&#x2026;" horiz-adv-x="710" 
d="M269 63q-5 -26 12.5 -44.5t49.5 -18.5t58 18.5t31 44.5q6 26 -12 44.5t-50 18.5t-57.5 -18.5t-31.5 -44.5zM68 63q-5 -26 12.5 -44.5t49.5 -18.5t58 18.5t31 44.5q6 26 -12 44.5t-50 18.5t-57.5 -18.5t-31.5 -44.5zM470 63q-5 -26 12.5 -44.5t49.5 -18.5t58 18.5t31 44.5
q6 26 -12 44.5t-50 18.5t-57.5 -18.5t-31.5 -44.5z" />
    <glyph glyph-name="FL2030h" unicode="&#x2030;" horiz-adv-x="1213" 
d="M829 101l22 99q5 25 1.5 43.5t-19.5 31t-45.5 18.5t-76.5 6q-92 0 -133 -26.5t-51 -74.5l-21 -98q-5 -24 -1 -42.5t19.5 -31t44.5 -19.5t74 -7q47 0 80 6t55 19t34 31.5t17 44.5zM1179 101l22 99q5 25 1.5 43.5t-19.5 31t-45.5 18.5t-76.5 6q-92 0 -133 -26.5t-51 -74.5
l-21 -98q-5 -24 -1 -42.5t19.5 -31t44.5 -19.5t74 -7q47 0 80 6t55 19t34 31.5t17 44.5zM251 0l458 433h-140l-462 -433h144zM462 397l8 36h-85l-2 -11q-3 -14 -8 -23t-15 -14.5t-26.5 -8t-41.5 -2.5q-44 0 -57 12.5t-8 32.5l3 14h-83l-8 -37q-5 -24 -1 -42.5t19.5 -31
t44.5 -19.5t74 -7q47 0 80 6t55 19t34 31.5t17 44.5zM327 518q24 0 38 -3t21 -8.5t8.5 -12.5t0.5 -15h85l3 17q6 25 2 43.5t-19.5 31t-45.5 18.5t-77 6q-92 0 -132.5 -26.5t-50.5 -74.5l-3 -15h83q5 18 25 28.5t62 10.5zM1044 222q25 0 39.5 -3.5t21 -9t7.5 -13.5t-1 -17
l-11 -53q-3 -14 -8 -23t-15 -14.5t-26 -8t-41 -2.5q-44 0 -57.5 12.5t-8.5 32.5l12 56q5 20 24 31.5t64 11.5zM694 222q25 0 39.5 -3.5t21 -9t7.5 -13.5t-1 -17l-11 -53q-3 -14 -8 -23t-15 -14.5t-26 -8t-41 -2.5q-44 0 -57.5 12.5t-8.5 32.5l12 56q5 20 24 31.5t64 11.5z
M882 596h-139l-125 -117h140z" />
    <glyph glyph-name="FL2039h" unicode="&#x2039;" horiz-adv-x="296" 
d="M107 244l164 -104l21 100l-93 56l117 55l17 82h-26l-180 -92z" />
    <glyph glyph-name="FL203Ah" unicode="&#x203a;" horiz-adv-x="296" 
d="M173 433h-26l-17 -82l93 -55l-117 -56l-21 -100l208 104l20 97z" />
    <glyph glyph-name="FL20ACh" unicode="&#x20ac;" horiz-adv-x="742" 
d="M122 317h110l-7 -33h-110l-26 -124h125q4 -78 46 -119t133 -41h294l26 121h-248q-78 0 -100 39h236l26 124h-258l7 33h258l25 116h-512zM814 596h-304q-71 0 -123 -30t-90 -87h492z" />
    <glyph glyph-name="FL04E5h" unicode="&#x2122;" horiz-adv-x="1184" 
d="M486 296q-2 69 -62 69h-8q-7 0 -11 -4q-79 -43 -106 -170q4 -34 55 -34q8 0 15 1t16 2q55 0 101 136zM882 168l29 147q3 63 -33 63q-14 0 -25 -7q-46 -48 -74.5 -96.5t-42.5 -97.5h38q31 43 55 43t34 -43zM623 160l41 194l-31 12l-34 -137l-81 124l-39 -198l31 5l20 96
q45 -96 93 -96zM1057 166l42 195l-28 11l-36 -134l-80 123l-38 -197l28 4l20 96q48 -98 92 -98zM323 369q-140 -23 -159 -114q-2 -8 -2 -13q0 -4 -1 -13q-5 -87 52 -87q9 0 17 1t21 7l6 34q-5 -4 -36 -4q-40 0 -31 39q9 43 45 77q27 29 53 29q14 0 19 -4zM446 269
q-3 -14 -9.5 -28t-18.5 -28q-34 -19 -54 -19q-29 0 -20 48l3 14q37 61 69 61q22 0 30 -24q2 -5 2 -11q0 -5 -2 -13zM755 372l-35 -6l-62 -202l47 14zM168 366l-35 -9l-61 -202l45 16zM1194 361l-42 11l-39 -152l27 -3zM870 264h-59l50 65zM1134 155l-25 13l-30 -19l18 -24z
" />
    <glyph glyph-name="FL06D9h" horiz-adv-x="933" 
d="M413 190h199l-17 -80h78l1 -1q96 3 156.5 52.5t100.5 139.5l18 83q2 13 4 25t3 24h-131q-2 -17 -6 -31l-16 -78q-20 -57 -71 -80l40 189h-377q-27 -24 -46.5 -56.5t-27.5 -70.5l-42 -196h117zM295 433h-135q-14 -32 -23.5 -65t-17.5 -68q-15 -71 -17.5 -137t13 -117.5
t52 -82.5t99.5 -31h369l25 122h-324q-3 -1 -10 -1h-9q-40 0 -57.5 17.5t-22 44.5t0.5 59t11 61l26 123q5 20 9.5 39t10.5 36zM825 479h133q-2 81 -42.5 130t-115.5 49h-388q-36 0 -69 -13.5t-62.5 -37.5t-54.5 -56.5t-45 -71.5h136q19 28 49 44.5t78 16.5h275q55 0 78 -17.5
t28 -43.5zM656 394l-18 -84h-199q8 30 18 46.5t24 24.5t33 10t45 3h97zM472 479h310l3 16h-226q-44 0 -87 -16z" />
    <glyph glyph-name="FL0064h" horiz-adv-x="739" 
d="M465 0q46 0 91 20t83 60q41 38 63.5 79t32.5 86l-1 1h2q10 45 4 87t-30 80q-4 5 -6.5 10t-6.5 10h-550l-92 -433h410zM483 372q37 0 60.5 -7.5t36.5 -23t16.5 -39t-0.5 -55.5q-7 -24 -20 -47t-33 -41t-48.5 -29t-66.5 -11h-204l54 253h205zM326 596h-144l-25 -117h480
q-30 12 -67 12h-267z" />
    <glyph glyph-name="FLE005h" horiz-adv-x="739" 
d="M683 0l92 433h-550q-5 -5 -10.5 -10t-10.5 -10q-41 -38 -64.5 -80t-33.5 -87h2l-1 -1q-10 -45 -4 -86t30 -79q22 -40 58 -60t82 -20h410zM413 372h205l-54 -253h-204q-38 0 -61.5 11t-36 29t-15 41t0.5 47q10 32 23 55.5t32.5 39t46 23t63.5 7.5zM666 596l-23 -105h-267
q-36 0 -72 -12h481l25 117h-144z" />
  </font>
</defs>
</svg>
