<?xml version="1.0" standalone="no"?>
<!DOCTYPE svg PUBLIC "-//W3C//DTD SVG 1.1//EN" "http://www.w3.org/Graphics/SVG/1.1/DTD/svg11.dtd" >
<svg xmlns="http://www.w3.org/2000/svg" xmlns:xlink="http://www.w3.org/1999/xlink" version="1.1">
<metadata>
Created by FontForge 20170731 at Mon Jul  1 21:16:42 2013
 By Aleksey,,,
2013 Iconian Fonts - www.iconian.com
</metadata>
<defs>
<font id="AirstrikeLaser" horiz-adv-x="755" >
  <font-face 
    font-family="Airstrike Laser"
    font-weight="400"
    font-stretch="normal"
    units-per-em="1000"
    panose-1="0 0 0 0 0 0 0 0 0 0"
    ascent="800"
    descent="-200"
    x-height="530"
    cap-height="530"
    bbox="-155 -142 1324 723"
    underline-thickness="50"
    underline-position="-175"
    unicode-range="U+0020-20AC"
  />
<missing-glyph horiz-adv-x="500" 
 />
    <glyph glyph-name=".notdef" horiz-adv-x="500" 
 />
    <glyph glyph-name=".null" horiz-adv-x="0" 
 />
    <glyph glyph-name="nonmarkingreturn" horiz-adv-x="500" 
 />
    <glyph glyph-name="space" unicode=" " horiz-adv-x="279" 
 />
    <glyph glyph-name="space" unicode="&#xa0;" horiz-adv-x="279" 
 />
    <glyph glyph-name="FL0021h" unicode="!" horiz-adv-x="248" 
d="M90 171h192l62 171h-192zM172 395h192l49 135h-192zM71 70q-4 -7 -4 -23q0 -21 14.5 -34t40.5 -13q16 0 32 5.5t29 14.5q21 15 33 36t12 38q0 20 -14.5 33.5t-40.5 13.5q-32 0 -61 -21t-41 -50z" />
    <glyph glyph-name="FL0022h" unicode="&#x22;" horiz-adv-x="326" 
d="M330 430q-3 -14 -3 -34v-1h105q8 9 14 18t9 17l13 37q4 7 4 23q0 18 -11.5 29.5t-32.5 11.5q-26 0 -50.5 -19t-34.5 -45zM185 430q-3 -14 -3 -34v-1h105q8 9 14 18t9 17l13 37q4 7 4 23q0 18 -11.5 29.5t-32.5 11.5q-26 0 -50.5 -19t-34.5 -45zM354 340h8q5 0 8 2h-25
q6 -2 9 -2zM209 340h8q5 0 8 2h-25q6 -2 9 -2z" />
    <glyph glyph-name="FL0023h" unicode="#" horiz-adv-x="747" 
d="M144 0h192l37 102h77l-37 -102h192l37 102h30l143 135h-124l19 52h30l56 53h-617l-56 -53h126l-19 -52h-32l-143 -135h126zM883 424h-124l39 106h-192l-39 -106h-77l39 106h-192l-39 -106h-32l-31 -29h617zM518 289l-19 -52h-77l19 52h77z" />
    <glyph glyph-name="FL0024h" unicode="$" horiz-adv-x="660" 
d="M220 -141h126l51 141h152q27 0 52.5 16.5t45 41.5t31.5 54.5t12 55.5v6q0 23 -7 50t-21.5 50.5t-37.5 39t-55 15.5h-52l4 13h-126l-4 -13h-12q-1 0 -8.5 3.5t-11.5 7.5q-2 0 -2 2h-200v-47q0 -19 2 -36.5t9 -30.5t20 -21t35 -8h120l-23 -65h-177q-3 0 -18 -17.5
t-32.5 -40t-33 -44.5t-20.5 -32h232zM824 530h-234l50 139h-126l-50 -139h-150q-23 0 -46 -12.5t-43 -32t-35.5 -43.5t-24.5 -47h542q35 33 64.5 67t52.5 68zM503 174v-12q0 -10 -2.5 -19t-17.5 -9h-37l23 65h20q8 0 11 -8.5t3 -16.5z" />
    <glyph glyph-name="FL0025h" unicode="%" horiz-adv-x="788" 
d="M815 143q11 66 -24 94t-96 28h-66q-23 0 -46 -10.5t-43 -27.5t-35.5 -38.5t-23.5 -43.5q-5 -12 -6 -24q-5 -36 2.5 -59.5t25 -37t43 -19t55.5 -5.5h50q26 0 51 10.5t46 27.5t37 38.5t24 43.5l4 11q1 5 1.5 8t0.5 4zM85 0h171l415 342h-173zM511 408q6 33 -0.5 56
t-22.5 38t-41 21.5t-55 6.5h-66q-23 0 -46 -10.5t-43.5 -27.5t-36 -38.5t-23.5 -43.5q-4 -10 -5 -15h108l0.5 0.5t0.5 1.5l6 16q8 14 22.5 26t27.5 12h30q18 0 25 -9.5t7 -23.5q0 -13 -1 -15l-3 -7q0 -1 -1 -1v0h114l1 1q2 10 2 12zM562 395h173l164 135h-173zM481 342h-311
q7 -45 41.5 -61t85.5 -16h50q39 0 75 22.5t59 54.5zM585 132l6 16q8 14 22.5 26t27.5 12h30q19 0 25 -9.5t6 -23.5q0 -13 -1 -15l-2 -7q-2 -6 -5 -9q-8 -14 -24.5 -26t-25.5 -12h-26q-14 0 -25 16.5t-8 31.5z" />
    <glyph glyph-name="FL0026h" unicode="&#x26;" horiz-adv-x="800" 
d="M760 197l143 135h-454l-134 -116l45 126h-204q-1 -8 -1.5 -16t-0.5 -16q0 -18 4.5 -32.5t15.5 -20.5q-10 -8 -27.5 -19t-33.5 -31q-10 -13 -18.5 -30.5t-13.5 -30.5l-5 -15q-7 -21 -11 -38.5t-4 -31.5q0 -16 6.5 -27.5t23 -19t43.5 -11t68 -3.5h284q59 0 95.5 7.5
t59.5 23t37.5 40.5t29.5 60l5 15q5 11 9 24.5t6 26.5h32zM761 530h-366q-61 0 -100 -11.5t-62 -29t-35 -39t-19 -41.5l-6 -14h477q32 32 59.5 66t51.5 69zM473 136h-160q-2 0 -9 8.5t-10 13.5l15 45h217q0 -7 -4 -19.5t-6 -15.5l-2 -5q-1 -1 -2.5 -3l-1.5 -2q-3 -3 -9 -6.5
l-12 -7t-11 -6z" />
    <glyph glyph-name="FL0027h" unicode="'" horiz-adv-x="181" 
d="M185 430q-3 -14 -3 -34v-1h105q8 9 14 18t9 17l13 37q4 7 4 23q0 18 -11.5 29.5t-32.5 11.5q-26 0 -50.5 -19t-34.5 -45zM209 340h8q5 0 8 2h-25q6 -2 9 -2z" />
    <glyph glyph-name="FL0028h" unicode="(" horiz-adv-x="410" 
d="M119 207v-3q0 -47 13 -82.5t34.5 -61.5t48 -43t53.5 -28t51.5 -17t41.5 -9q7 15 15 31.5t14.5 32.5t11 29.5t4.5 22.5v6q-7 9 -24 24t-34 33t-30.5 38t-13.5 40v1q0 6 5.5 22.5t10.5 30.5l8 24q6 19 20 44h-192q-17 -36 -27 -70.5t-10 -64.5zM186 395h204q11 9 22 15
t22 6h17q36 30 65.5 63.5t58.5 71.5h-170q-30 0 -60.5 -12.5t-58.5 -33.5t-53.5 -49.5t-46.5 -60.5z" />
    <glyph glyph-name="FL0029h" unicode=")" horiz-adv-x="409" 
d="M477 307v4q0 8 -0.5 15.5t-1.5 15.5h-199q7 -12 11.5 -24.5t4.5 -23.5q-1 -6 -6.5 -25t-11.5 -36l-6 -17q-6 -17 -17.5 -37.5t-26 -38.5t-30.5 -30t-32 -12h-17q-36 -30 -65 -63.5t-58 -71.5h170q35 0 69.5 16.5t66.5 44t59 63t47 74t31.5 76.5t11.5 70zM231 395h232
q-16 44 -46 72.5t-63 45.5t-65 25.5t-53 12.5q-8 -14 -16 -31t-15 -34t-11 -31.5t-4 -22.5v-6q9 -6 19.5 -13.5t21.5 -17.5z" />
    <glyph glyph-name="FL0419h" unicode="*" horiz-adv-x="246" 
d="M289 398l87 53l-24 35l56 9v77l-52 -23l24 46h-87l-12 -46l-29 25l-53 -77l42 -11l-48 -33l47 -55l42 48z" />
    <glyph glyph-name="FL002Bh" unicode="+" horiz-adv-x="461" 
d="M202 98h135l35 97h48l143 135h-142l4 12h-135l-4 -12h-54l-143 -135h148zM459 433h-135l-14 -38h135z" />
    <glyph glyph-name="FL002Ch" unicode="," horiz-adv-x="208" 
d="M38 28q-1 -2 -1 -14v-15q0 -12 1.5 -24.5t5 -23t10.5 -17t18 -6.5h9q9 0 25.5 10.5t33.5 25.5t31 32.5t19 31.5l15 42q5 18 5 24q0 20 -14.5 33.5t-40.5 13.5q-32 0 -61 -21t-41 -50z" />
    <glyph glyph-name="FL002Dh" unicode="-" horiz-adv-x="361" 
d="M320 195l143 135h-231l-143 -135h231z" />
    <glyph glyph-name="FL002Eh" unicode="." horiz-adv-x="208" 
d="M53 70q-4 -7 -4 -23q0 -21 14.5 -34t40.5 -13q16 0 32 5.5t29 14.5q21 15 33 36t12 38q0 20 -14.5 33.5t-40.5 13.5q-32 0 -61 -21t-41 -50z" />
    <glyph glyph-name="FL002Fh" unicode="/" horiz-adv-x="657" 
d="M231 0l388 342h-214l-387 -342h213zM832 530h-214l-153 -135h214z" />
    <glyph glyph-name="FL0030h" unicode="0" horiz-adv-x="721" 
d="M797 287q2 15 3.5 28.5t1.5 26.5h-197q4 -15 4 -35q0 -9 -0.5 -17.5t-1.5 -16.5q0 1 -0.5 -1.5l-1.5 -7.5l-4 -10q-2 -8 -11 -22q-9 -17 -26.5 -34.5t-37 -31.5t-38 -22.5t-30.5 -8.5h-66q-18 0 -34 10t-28 26t-19 35.5t-7 37.5v6q0 6 1 7q1 8 5 18.5t9 22.5
q5 11 13.5 22t19.5 22h-199q-14 -25 -23.5 -50t-12.5 -49q-2 -14 -3 -27t-1 -25q0 -56 19.5 -93t53.5 -58.5t81 -30.5t102 -9h100q60 0 116 26.5t100.5 68.5t74.5 93t37 99zM189 395h340h5h262q-9 36 -30 61.5t-52 42t-71 24t-86 7.5h-132q-33 0 -65.5 -10.5t-63 -29
t-58 -43t-49.5 -52.5z" />
    <glyph glyph-name="FL0031h" unicode="1" horiz-adv-x="325" 
d="M297 0l124 342h-192l-124 -342h192zM167 395h274l49 135h-205q-14 -9 -33.5 -29.5t-38 -42.5t-32 -40t-14.5 -22v-1z" />
    <glyph glyph-name="FL0032h" unicode="2" horiz-adv-x="661" 
d="M265 141l19 33q6 8 14 14.5t16 6.5h200q28 0 61 14t66 35.5t62 47.5t49 50h-199q-2 -2 -3 -2q-7 -4 -19 -9.5t-13 -5.5h-190q-26 0 -60 -15.5t-67 -39t-62 -50.5t-45 -49q-18 -26 -28 -54t-10 -53q0 -27 13.5 -45.5t42.5 -18.5h455q16 15 35.5 38t37 44t29.5 36.5
l12 15.5h-405q-11 0 -11 7zM793 454q0 32 -14.5 54t-45.5 22h-442q-14 -14 -30 -30.5t-32.5 -34t-31 -36t-24.5 -34.5h609q11 30 11 59z" />
    <glyph glyph-name="FL0033h" unicode="3" horiz-adv-x="671" 
d="M130 136q-28 -29 -52 -63.5t-50 -72.5h441q59 0 95.5 7.5t59.5 23t37.5 40.5t29.5 60l4 11q5 13 10.5 31.5t5.5 32.5q-1 20 -11 31t-14 19q21 9 40.5 33t29.5 53h-198q-4 -6 -7.5 -10.5t-4.5 -4.5h-160l-154 -135h270q0 -7 -0.5 -14t-2.5 -10l-2 -5q-1 -1 -2.5 -3
l-1.5 -2q-3 -3 -9 -6.5l-12 -7t-11 -6l-5 -2.5h-326zM176 395h586q-2 20 -8.5 43.5t-19 44t-30.5 34t-42 13.5h-385q-31 -32 -55 -66t-46 -69z" />
    <glyph glyph-name="FL0034h" unicode="4" horiz-adv-x="654" 
d="M626 0l124 342h-192l-6 -17h-216l6 17h-190l-55 -152h341l103 104l-107 -294h192zM819 530h-192l-50 -135h193zM411 530h-190l-49 -135h189z" />
    <glyph glyph-name="FL0035h" unicode="5" horiz-adv-x="654" 
d="M476 134h-340q-3 0 -18 -17.5t-32.5 -40t-33 -44.5t-20.5 -32h510q27 0 52.5 16.5t45 41.5t31.5 54.5t12 55.5v4q0 22 -9 49t-25.5 50t-38.5 38.5t-48 15.5h-190q-1 0 -8.5 5.5t-11.5 9.5q-1 0 -3 2h-200q-1 -2 -0.5 -4t0.5 -4q0 -24 13 -49t32.5 -45t43 -32.5
t44.5 -12.5h200q8 0 11 -6.5t3 -14.5q0 -20 -20 -40zM166 395h534q35 33 64.5 67t52.5 68h-601z" />
    <glyph glyph-name="FL0036h" unicode="6" horiz-adv-x="636" 
d="M684 195q6 25 6 46q0 35 -18.5 57.5t-63.5 31.5h-272q4 8 7 12h-196q-20 -49 -20 -97v-2q0 -72 28.5 -119t75.5 -74.5t106 -38.5t121 -11q37 0 72 17t65 45t53 63t36 70zM174 395h239h5h260q35 30 64.5 63.5t58.5 71.5h-413q-33 0 -63.5 -10.5t-58 -29t-51 -43
t-41.5 -52.5zM459 203q19 -3 23 -11.5t7 -17.5l-25 -38h-58q-21 0 -35.5 17.5t-28.5 40.5l-6 9h123z" />
    <glyph glyph-name="FL0037h" unicode="7" horiz-adv-x="611" 
d="M56 0h202l340 342h-213zM167 395h484l135 135h-501q-14 -9 -33.5 -29.5t-38 -42.5t-32 -40t-14.5 -22v-1z" />
    <glyph glyph-name="FL0038h" unicode="8" horiz-adv-x="702" 
d="M786 342h-197q-7 -10 -9 -10h-131l-134 -116l45 126h-204q-1 -8 -1.5 -16t-0.5 -16q0 -18 4.5 -32.5t15.5 -20.5q-10 -8 -27.5 -19t-33.5 -31q-10 -13 -18.5 -30.5t-13.5 -30.5l-5 -15q-7 -21 -11 -38.5t-4 -31.5q0 -16 6.5 -27.5t23 -19t43.5 -11t68 -3.5h298
q59 0 95.5 7.5t59.5 23t37.5 40.5t29.5 60l7 20q5 12 9 26.5t4 25.5v3q-1 20 -11 31t-14 19q21 9 39.5 32t28.5 51q0 2 1 3zM173 395h621q0 21 -6.5 44.5t-19 43.5t-31.5 33.5t-44 13.5h-298q-61 0 -100 -11.5t-62 -29t-35 -39t-19 -41.5zM313 136q-2 0 -9 8.5t-10 13.5l1 3
q0 1 0.5 1.5t0.5 1.5l-1 2l14 37h231q0 -7 -4 -19.5t-6 -15.5l-2 -5q-1 -1 -2.5 -3l-1.5 -2q-3 -3 -9 -6.5l-12 -7t-11 -6l-5 -2.5h-174z" />
    <glyph glyph-name="FL0039h" unicode="9" horiz-adv-x="636" 
d="M145 335q-6 -26 -6 -46q0 -35 18.5 -57.5t63.5 -31.5h272q-15 -26 -36 -45.5t-46 -19.5h-260q-35 -30 -64.5 -63.5t-58.5 -71.5h413q51 0 98 26.5t83 67.5t57.5 91.5t21.5 98.5v3q0 15 -0.5 28.5t-1.5 26.5h-216q1 -5 5 -8l5 -7h-123q-13 2 -18.5 6t-7.5 9h-197
q-1 -2 -1 -4q0 -1 -1 -3zM175 395h516q-10 38 -30.5 64t-57.5 41.5t-91.5 22.5t-132.5 7h-8q-29 0 -57 -11t-53.5 -29.5t-47 -43t-38.5 -51.5z" />
    <glyph glyph-name="FL003Ah" unicode=":" horiz-adv-x="209" 
d="M54 70q-4 -7 -4 -23q0 -21 14.5 -34t40.5 -13q16 0 32 5.5t29 14.5q21 15 33 36t12 38q0 20 -14.5 33.5t-40.5 13.5q-32 0 -61 -21t-41 -50zM148 331q-4 -7 -4 -23q0 -21 14.5 -34t40.5 -13q16 0 32 5.5t29 14.5q17 12 28 28.5t15 32.5h-150q-4 -8 -5 -11zM214 395h67
q-7 3 -14.5 5t-16.5 2q-17 0 -36 -7z" />
    <glyph glyph-name="FL003Bh" unicode=";" horiz-adv-x="209" 
d="M38 28q-1 -2 -1 -14v-15q0 -12 1.5 -24.5t5 -23t10.5 -17t18 -6.5h9q9 0 25.5 10.5t33.5 25.5t31 32.5t19 31.5l15 42q5 18 5 24q0 20 -14.5 33.5t-40.5 13.5q-32 0 -61 -21t-41 -50zM148 331q-4 -7 -4 -23q0 -21 14.5 -34t40.5 -13q24 0 47 12t38 30q16 19 19 39h-150
q-4 -8 -5 -11zM250 402q-17 0 -36 -7h67q-7 3 -14.5 5t-16.5 2z" />
    <glyph glyph-name="FL003Ch" unicode="&#x3c;" horiz-adv-x="454" 
d="M223 0h213l-107 266l86 76h-214l-86 -76zM261 395h214l153 135h-214z" />
    <glyph glyph-name="FL003Dh" unicode="=" horiz-adv-x="432" 
d="M358 102l143 135h-302l-143 -135h302zM426 289l56 53h-302l-56 -53h302zM236 395h302l31 29h-302z" />
    <glyph glyph-name="FL003Eh" unicode="&#x3e;" horiz-adv-x="454" 
d="M231 0l302 266l-31 76h-214l31 -76l-301 -266h213zM212 530l54 -135h214l-54 135h-214z" />
    <glyph glyph-name="FL003Fh" unicode="?" horiz-adv-x="654" 
d="M166 395h609q11 30 11 58q0 32 -14 54.5t-46 22.5h-442q-14 -14 -30 -30.5t-32.5 -34t-31 -36t-24.5 -34.5zM139 170h155v1q2 3 17 13.5t47 10.5h149q28 0 61 14t66 35.5t62 47.5t49 50h-199q-2 -2 -3 -2q-7 -4 -19 -9.5t-13 -5.5h-139q-26 0 -60 -15.5t-67 -39
t-61.5 -50.5t-44.5 -50zM92 70q-4 -7 -4 -23q0 -21 14.5 -34t40.5 -13q16 0 32 5.5t29 14.5q21 15 33 36t12 38q0 20 -14.5 33.5t-40.5 13.5q-32 0 -61 -21t-41 -50z" />
    <glyph glyph-name="FL0040h" unicode="@" horiz-adv-x="751" 
d="M137 299q-19 -48 -19 -93v-2q0 -47 13 -82.5t34.5 -61.5t48 -43t53.5 -28t51.5 -17t41.5 -9h87q20 57 29.5 83t9.5 30h-6q-16 0 -40.5 2.5t-34.5 6.5q-7 9 -24 24t-34 33t-30.5 38t-13.5 40v1q0 5 8 27.5t16 49.5q3 10 8.5 21t12.5 23h-193q-11 -24 -18 -43zM585 552
h-181q-30 0 -60 -12.5t-58.5 -34t-54 -50t-46.5 -60.5h204q11 9 22 15t22 6h128q34 -6 56 -21h219q-8 58 -39 88t-70.5 44t-78.5 17t-63 8zM371 275q-1 -2 -1 -12v-11q0 -33 14.5 -56t56.5 -28h170q82 0 135.5 22t77.5 88q5 16 8.5 32t4.5 32h-188q1 -3 1 -9q0 -22 -7 -35
q-8 -21 -27.5 -27.5t-46.5 -6.5h-13q2 2 2.5 4.5t2.5 5.5q5 22 5 29q0 22 -12 39h-124q-20 -14 -36.5 -31t-22.5 -36zM449 270q4 10 12.5 16.5t18.5 6.5q16 0 16 -14q0 1 -0.5 -1.5l-1.5 -7.5q-3 -10 -12 -16.5t-19 -6.5q-15 0 -15 15q0 7 1 8z" />
    <glyph glyph-name="FL0041h" unicode="A" 
d="M737 0l-53 342h-177l31 -208h-203v10l148 198h-201l-260 -332v-3q0 3 -2 -7h423q7 3 22 19t30.5 35t28 36t14.5 23l21 -113h178zM323 395h353l-5 34q-3 12 -7.5 29.5t-10.5 33.5t-14.5 27t-18.5 11h-168q-7 0 -17.5 -7.5t-21 -17t-19.5 -19.5t-12 -16z" />
    <glyph glyph-name="FL0042h" unicode="B" horiz-adv-x="689" 
d="M308 242l36 100h-192l-124 -342h459q53 0 88.5 7.5t60.5 23t41.5 40.5t31.5 60l4 11q5 13 10 27t5 28q-1 20 -10 36.5t-20 25.5q18 9 40 31.5t34 51.5h-196q-4 -6 -7.5 -10.5t-4.5 -4.5h-160zM221 530l-49 -135h609q-1 27 -6 51t-16.5 43t-31 30t-47.5 11h-459zM269 136
l26 67h230q0 -7 -0.5 -14t-2.5 -10l-2 -5q-1 -1 -5 -8.5l-4 -7.5q-3 -3 -9 -6.5l-12 -7t-11 -6l-5 -2.5h-205z" />
    <glyph glyph-name="FL0043h" unicode="C" horiz-adv-x="631" 
d="M127 243q0 -72 28.5 -119t75.5 -74.5t106 -38.5t121 -11h80q38 30 67 65.5t52 69.5h-239q-17 0 -35.5 12t-34 30t-25.5 39.5t-10 40.5q0 14 8 41q4 11 9.5 22t13.5 22h-197q-20 -49 -20 -97v-2zM174 395h241h3h260q35 30 64.5 63.5t58.5 71.5h-413q-33 0 -63.5 -10.5
t-58 -29t-51 -43t-41.5 -52.5z" />
    <glyph glyph-name="FL0044h" unicode="D" horiz-adv-x="658" 
d="M709 241q34 48 50 101h-199q-2 -11 -7 -22.5t-10 -23.5q-5 -13 -13 -23t-13 -18q-14 -22 -41 -43.5t-59 -38.5t-64 -27.5t-56 -10.5h-26l75 207h-194l-124 -342h249q78 0 140 13.5t113 42.5t94.5 74.5t84.5 110.5zM770 413q0 51 -27 84t-87 33h-435l-49 -135h597q1 5 1 9
v9z" />
    <glyph glyph-name="FL0045h" unicode="E" horiz-adv-x="625" 
d="M306 238l38 104h-192l-124 -342h503q1 0 12.5 10t26.5 24.5t30.5 30.5t24.5 28q1 1 5 7t8 13t8 13.5t5 8.5h-383l22 60h199l143 135h-231zM221 530l-49 -135h501q9 1 26 17.5t35 38.5t34 44t23 35h-570z" />
    <glyph glyph-name="FL0046h" unicode="F" horiz-adv-x="621" 
d="M306 238l38 104h-192l-124 -342h191l71 195h199l143 135h-231zM221 530l-49 -135h501q9 1 26 17.5t35 38.5t34 44t23 35h-570z" />
    <glyph glyph-name="FL0047h" unicode="G" horiz-adv-x="640" 
d="M732 330h-240q-14 -11 -31.5 -31.5t-33.5 -41t-27.5 -37t-12.5 -19.5v-1h113l-23 -65h-59q-18 0 -36.5 12t-34 30t-25 39.5t-9.5 40.5q0 14 8 41q4 11 9 22t12 22h-194q-21 -50 -21 -99q0 -72 28.5 -119t75.5 -74.5t106 -38.5t121 -11h149zM418 395h260q35 30 64.5 63.5
t58.5 71.5h-413q-32 0 -62.5 -10.5t-58 -29t-51 -43t-41.5 -52.5h240h3z" />
    <glyph glyph-name="FL0048h" unicode="H" horiz-adv-x="654" 
d="M28 0h192l69 190h216l-69 -190h190l124 342h-190l-6 -17h-152l-102 -105l44 122h-192zM172 395h192l49 135h-192zM579 395h191l49 135h-190z" />
    <glyph glyph-name="FL0049h" unicode="I" horiz-adv-x="616" 
d="M23 0h499q8 0 25.5 16t36 38t35 44.5t23.5 36.5h-189l75 207h-192l-75 -207h-120q-14 -9 -33.5 -29.5t-38 -42.5t-32 -40t-14.5 -22v-1zM167 395h499q8 0 25.5 16t36 38t35 44.5t23.5 36.5h-501q-14 -9 -33.5 -29.5t-38 -42.5t-32 -40t-14.5 -22v-1z" />
    <glyph glyph-name="FL004Ah" unicode="J" horiz-adv-x="573" 
d="M23 0h336q64 0 107.5 17.5t74.5 51t54 83t46 113.5l28 77h-190l-39 -109q-7 -14 -18.5 -31t-26 -32t-32.5 -25t-37 -10h-202q-32 -32 -56 -66t-45 -69zM499 395h189l50 135h-190z" />
    <glyph glyph-name="FL004Bh" unicode="K" horiz-adv-x="698" 
d="M28 0h192l87 238l196 -238h214l-192 265l100 77h-230l-69 -50l18 50h-192zM469 395h225l177 135h-214zM172 395h192l49 135h-192z" />
    <glyph glyph-name="FL004Ch" unicode="L" horiz-adv-x="560" 
d="M28 0h439q14 11 35 33.5t40 45t31.5 39.5t11.5 17h-317l75 207h-191zM412 530h-191l-49 -135h191z" />
    <glyph glyph-name="FL004Dh" unicode="M" horiz-adv-x="836" 
d="M808 0l124 342h-346l-72 -78l-15 78h-347l-124 -342h192l108 298l55 -298h69l272 298l-108 -298h192zM172 395h317l-26 135h-242zM635 395h317l49 135h-242z" />
    <glyph glyph-name="FL004Eh" unicode="N" horiz-adv-x="654" 
d="M28 0h192l108 298l56 -298h242l124 342h-190l-40 -110l-21 110h-347zM172 395h317l-26 135h-242zM579 395h191l49 135h-190z" />
    <glyph glyph-name="FL004Fh" unicode="O" horiz-adv-x="721" 
d="M797 287q5 29 6 55h-198q4 -15 4 -35q0 -9 -0.5 -17.5t-1.5 -16.5q0 1 -0.5 -1.5l-1.5 -7.5l-4 -10q-2 -8 -11 -22q-9 -17 -27 -34.5t-38 -31.5t-38.5 -22.5t-28.5 -8.5h-66q-18 0 -34 10t-28 26t-19 35.5t-7 37.5v6q0 6 1 7q1 8 5 18.5t9 22.5q5 11 13.5 22t19.5 22
h-203q-25 -49 -32 -99q-2 -14 -3 -27t-1 -25q0 -56 19.5 -93t53.5 -58.5t81 -30.5t102 -9h100q59 0 114.5 23t100 62t74.5 91t39 111zM183 395h262h3h351q-14 72 -75 103.5t-167 31.5h-132q-68 0 -132.5 -37.5t-109.5 -97.5z" />
    <glyph glyph-name="FL0050h" unicode="P" horiz-adv-x="675" 
d="M28 0h192l70 192h281q30 0 62 11t60.5 30.5t50.5 47t31 61.5h-199q-4 -6 -7.5 -10.5t-4.5 -4.5h-160l-96 -85l36 100h-192zM172 395h609q-1 20 -6.5 43.5t-17.5 44t-30.5 34t-46.5 13.5h-459z" />
    <glyph glyph-name="FL0051h" unicode="Q" horiz-adv-x="714" 
d="M793 287q2 14 3.5 27t1.5 25v3h-198q5 -11 6.5 -23t1.5 -24v-12q0 -9 -1 -10q0 1 -0.5 -1.5l-1.5 -7.5l-4 -10q-2 -8 -11 -22q-2 -5 -4.5 -9t-4.5 -8l-20 39h-210l54 -119h-13q-18 0 -34 10t-28 26t-19 35.5t-7 37.5v6q0 6 1 7q1 8 5 18.5t9 22.5q5 11 13.5 22t19.5 22
h-203q-25 -49 -32 -99q-3 -24 -3 -45q0 -59 23 -97t61.5 -60.5t89.5 -31.5t107 -9h90l17 -28h200l-49 95q55 45 93 104t47 116zM182 395h335h5h268q-19 67 -80.5 101t-152.5 34h-132q-34 0 -68 -10t-65.5 -27.5t-59.5 -42.5t-50 -55z" />
    <glyph glyph-name="FL0052h" unicode="R" horiz-adv-x="693" 
d="M28 0h192l66 182l11 8l206 -190h214l-196 201q37 3 77.5 10t76.5 22.5t62.5 41.5t35.5 67h-197q-8 -13 -21 -13h-160l-88 -89l37 102h-192zM172 395h191l1 1h201q2 0 4 -0.5t4 -0.5h203q-1 22 -6.5 46t-18 44t-33 32.5t-51.5 12.5h-446z" />
    <glyph glyph-name="FL0053h" unicode="S" horiz-adv-x="660" 
d="M503 174v-12q0 -10 -2.5 -19t-17.5 -9h-340q-3 0 -18 -17.5t-32.5 -40t-33 -44.5t-20.5 -32h510q27 0 52.5 16.5t45 41.5t31.5 54.5t12 55.5v6q0 23 -7 50t-21.5 50.5t-37.5 39t-55 15.5h-190q-1 0 -8.5 3.5t-11.5 7.5q-2 0 -2 2h-199q2 -25 12 -50.5t27 -46t40 -33.5
t52 -13h200q8 0 11 -8.5t3 -16.5zM824 530h-510q-23 0 -45.5 -12.5t-42.5 -32t-35.5 -43.5t-24.5 -47h541q35 33 64.5 67t52.5 68z" />
    <glyph glyph-name="FL0054h" unicode="T" horiz-adv-x="616" 
d="M167 395h501q9 1 26 17.5t35 38.5t34 44t23 35h-501q-14 -9 -33.5 -29.5t-38 -42.5t-32 -40t-14.5 -22v-1zM212 0h192l124 342h-192z" />
    <glyph glyph-name="FL0055h" unicode="U" horiz-adv-x="682" 
d="M142 308q-9 -34 -16.5 -60t-12.5 -52q-2 -14 -3.5 -26t-1.5 -23q0 -40 12 -68t40 -45.5t74.5 -25.5t116.5 -8h117q60 0 103 18.5t76 54.5t59 88.5t51 121.5l21 59h-190l-39 -109q-7 -14 -19 -31t-28 -32t-36.5 -25t-44.5 -10h-49q-28 0 -45 19.5t-17 54.5q0 10 5 32
q0 2 0.5 5.5t3.5 13.5t9.5 29.5l17.5 52.5h-192zM847 530h-190l-49 -135h190zM410 530h-189l-48 -135h190q9 27 21 60t26 75z" />
    <glyph glyph-name="FL0056h" unicode="V" horiz-adv-x="741" 
d="M433 173l-23 169h-172l35 -241q3 -12 7 -29.5t10 -33.5t14 -27t19 -11h165q7 0 18 7.5t21.5 18t19.5 20.5t14 16l212 280h-209zM605 395h208l103 135h-206zM211 530l19 -135h173l-18 135h-174z" />
    <glyph glyph-name="FL0077h" unicode="W" horiz-adv-x="872" 
d="M717 286l-4 56h-289l-48 -74v74h-165v-251q0 -13 1 -29t3.5 -29.5t7 -23t11.5 -9.5h119q6 0 14 7.5t16 18t15 21t12 16.5l118 169q7 -61 11.5 -105t8.5 -72t8.5 -41.5t12.5 -13.5h118q5 0 13.5 7.5t17 18t16 21t11.5 16.5l180 279h-173zM458 395h251l-9 135h-154z
M786 395h173l88 135h-176zM211 395h165v135h-165v-135z" />
    <glyph glyph-name="FL0058h" unicode="X" horiz-adv-x="658" 
d="M231 0l144 127l52 -127h213l-107 266l86 76h-331l31 -76l-301 -266h213zM212 530l54 -135h413l153 135h-214l-142 -125l-50 125h-214z" />
    <glyph glyph-name="FL0059h" unicode="Y" horiz-adv-x="656" 
d="M232 0h192l92 252l102 90h-331l37 -90zM211 530l55 -135h412l153 135h-214l-142 -125l-50 125h-214z" />
    <glyph glyph-name="FL005Ah" unicode="Z" horiz-adv-x="616" 
d="M23 0h499q8 0 25.5 16t36 38t35 44.5t23.5 36.5h-269l216 207h-209zM167 395h478l141 135h-501q-14 -9 -33.5 -29.5t-38 -42.5t-32 -40t-14.5 -22v-1z" />
    <glyph glyph-name="FL005Bh" unicode="[" horiz-adv-x="412" 
d="M248 79l95 263h-191l-144 -398h285q1 0 12.5 10t26.5 24.5t30 30.5t24 28q1 1 5 7t8.5 13t8.5 13.5t5 8.5h-165zM245 597l-74 -202h191l25 67h90q8 0 25.5 16t36 38t35 44.5t23.5 36.5h-352z" />
    <glyph glyph-name="FL005Ch" unicode="\" horiz-adv-x="657" 
d="M426 0h213l-138 342h-214zM211 530l55 -135h213l-54 135h-214z" />
    <glyph glyph-name="FL005Dh" unicode="]" horiz-adv-x="412" 
d="M363 -57l145 399h-191l-96 -264h-90q-9 0 -26 -16t-35.5 -38t-35 -45t-23.5 -36h352zM337 395h191l73 201h-285q-1 0 -12.5 -10t-26.5 -24.5t-30.5 -30.5t-24.5 -28q-1 -1 -5 -7t-8 -13t-8 -13.5t-5 -8.5h165z" />
    <glyph glyph-name="FL005Eh" unicode="^" 
d="M22 7q0 3 -2 -7h213l250 342h-201l-260 -332v-3zM559 0h178l-53 342h-177zM620 530h-168q-7 0 -17.5 -7.5t-21 -17t-19.5 -19.5t-12 -16l-59 -75h353l-5 34q-3 12 -7.5 29.5t-10.5 33.5t-14.5 27t-18.5 11z" />
    <glyph glyph-name="FL005Fh" unicode="_" horiz-adv-x="462" 
d="M350 0l143 135h-332l-143 -135h332z" />
    <glyph glyph-name="FL0060h" unicode="`" horiz-adv-x="170" 
d="M292 500q-3 11 -8 20.5t-16 9.5q-6 0 -28 -8q-26 -16 -37 -42q-3 -7 -1.5 -13t3.5 -12l6 -23q5 -13 20.5 -23t29.5 -10q9 0 11 2l6 4q8 4 13 11.5t9 16.5q5 14 2.5 24.5t-2.5 20.5z" />
    <glyph glyph-name="a" unicode="a" 
d="M737 0l-53 342h-177l31 -208h-203v10l148 198h-201l-260 -332v-3q0 3 -2 -7h423q7 3 22 19t30.5 35t28 36t14.5 23l21 -113h178zM323 395h353l-5 34q-3 12 -7.5 29.5t-10.5 33.5t-14.5 27t-18.5 11h-168q-7 0 -17.5 -7.5t-21 -17t-19.5 -19.5t-12 -16z" />
    <glyph glyph-name="FL0062h" unicode="b" horiz-adv-x="689" 
d="M308 242l36 100h-192l-124 -342h459q53 0 88.5 7.5t60.5 23t41.5 40.5t31.5 60l4 11q5 13 10 27t5 28q-1 20 -10 36.5t-20 25.5q18 9 40 31.5t34 51.5h-196q-4 -6 -7.5 -10.5t-4.5 -4.5h-160zM221 530l-49 -135h609q-1 27 -6 51t-16.5 43t-31 30t-47.5 11h-459zM269 136
l26 67h230q0 -7 -0.5 -14t-2.5 -10l-2 -5q-1 -1 -5 -8.5l-4 -7.5q-3 -3 -9 -6.5l-12 -7t-11 -6l-5 -2.5h-205z" />
    <glyph glyph-name="c" unicode="c" horiz-adv-x="631" 
d="M127 243q0 -72 28.5 -119t75.5 -74.5t106 -38.5t121 -11h80q38 30 67 65.5t52 69.5h-239q-17 0 -35.5 12t-34 30t-25.5 39.5t-10 40.5q0 14 8 41q4 11 9.5 22t13.5 22h-197q-20 -49 -20 -97v-2zM174 395h241h3h260q35 30 64.5 63.5t58.5 71.5h-413q-33 0 -63.5 -10.5
t-58 -29t-51 -43t-41.5 -52.5z" />
    <glyph glyph-name="FL0064h" unicode="d" horiz-adv-x="658" 
d="M707 239q18 24 31 50.5t21 52.5h-199q-2 -11 -6.5 -22.5t-9.5 -23.5q-5 -13 -12.5 -23l-13.5 -18q-15 -22 -41.5 -43.5t-57.5 -38.5t-63 -27.5t-59 -10.5h-26l75 207h-194l-124 -342h249q78 0 138.5 13t111 41.5t94 74t86.5 110.5zM770 413q0 51 -27 84t-87 33h-435
l-49 -135h597q1 5 1 9v9z" />
    <glyph glyph-name="e" unicode="e" horiz-adv-x="625" 
d="M306 238l38 104h-192l-124 -342h503q1 0 12.5 10t26.5 24.5t30.5 30.5t24.5 28q1 1 5 7t8 13t8 13.5t5 8.5h-383l22 60h199l143 135h-231zM221 530l-49 -135h501q9 1 26 17.5t35 38.5t34 44t23 35h-570z" />
    <glyph glyph-name="FL0066h" unicode="f" horiz-adv-x="621" 
d="M306 238l38 104h-192l-124 -342h191l71 195h199l143 135h-231zM221 530l-49 -135h501q9 1 26 17.5t35 38.5t34 44t23 35h-570z" />
    <glyph glyph-name="FL0067h" unicode="g" horiz-adv-x="640" 
d="M732 330h-240q-14 -11 -31.5 -31.5t-33.5 -41t-27.5 -37t-12.5 -19.5v-1h113l-23 -65h-59q-18 0 -36.5 12t-34 30t-25 39.5t-9.5 40.5q0 14 8 41q4 11 9 22t12 22h-194q-21 -50 -21 -99q0 -72 28.5 -119t75.5 -74.5t106 -38.5t121 -11h149zM418 395h260q35 30 64.5 63.5
t58.5 71.5h-413q-32 0 -62.5 -10.5t-58 -29t-51 -43t-41.5 -52.5h240h3z" />
    <glyph glyph-name="h" unicode="h" horiz-adv-x="654" 
d="M28 0h192l69 190h216l-69 -190h190l124 342h-190l-6 -17h-152l-102 -105l44 122h-192zM172 395h192l49 135h-192zM579 395h191l49 135h-190z" />
    <glyph glyph-name="FL0069h" unicode="i" horiz-adv-x="252" 
d="M30 0h192l124 342h-192zM174 395h192l49 135h-192z" />
    <glyph glyph-name="FL006Ah" unicode="j" horiz-adv-x="573" 
d="M23 0h336q64 0 107.5 17.5t74.5 51t54 83t46 113.5l28 77h-190l-39 -109q-7 -14 -18.5 -31t-26 -32t-32.5 -25t-37 -10h-202q-32 -32 -56 -66t-45 -69zM499 395h189l50 135h-190z" />
    <glyph glyph-name="FL006Bh" unicode="k" horiz-adv-x="698" 
d="M28 0h192l87 238l196 -238h214l-192 265l100 77h-230l-69 -50l18 50h-192zM469 395h225l177 135h-214zM172 395h192l49 135h-192z" />
    <glyph glyph-name="FL006Ch" unicode="l" horiz-adv-x="560" 
d="M28 0h439q14 11 35 33.5t40 45t31.5 39.5t11.5 17h-317l75 207h-191zM412 530h-191l-49 -135h191z" />
    <glyph glyph-name="FL006Dh" unicode="m" horiz-adv-x="836" 
d="M808 0l124 342h-346l-72 -78l-15 78h-347l-124 -342h192l108 298l55 -298h69l272 298l-108 -298h192zM172 395h317l-26 135h-242zM635 395h317l49 135h-242z" />
    <glyph glyph-name="FL006Eh" unicode="n" horiz-adv-x="654" 
d="M28 0h192l108 298l56 -298h242l124 342h-190l-40 -110l-21 110h-347zM172 395h317l-26 135h-242zM579 395h191l49 135h-190z" />
    <glyph glyph-name="FL006Fh" unicode="o" horiz-adv-x="738" 
d="M814 287q3 15 4 28t1 27h-197q4 -15 4 -35q0 -9 -0.5 -17.5t-1.5 -16.5q0 1 -0.5 -1.5l-1.5 -7.5l-4 -10q-2 -8 -11 -22q-9 -17 -27.5 -34.5t-39 -31.5t-38.5 -22.5t-27 -8.5h-83q-18 0 -34 10t-28 26t-19 35.5t-7 37.5v6q0 6 1 7q1 8 5 18.5t9 22.5q5 11 13.5 22
t19.5 22h-202q-13 -24 -21.5 -49t-11.5 -50q-2 -14 -3 -27t-1 -25q0 -56 19.5 -93t53.5 -58.5t81 -30.5t102 -9h117q60 0 115.5 24t99.5 63.5t74 91.5t39 108zM184 395h630q-17 72 -79.5 103.5t-160.5 31.5h-149q-33 0 -66.5 -10t-65 -28t-59.5 -43t-50 -54z" />
    <glyph glyph-name="p" unicode="p" horiz-adv-x="675" 
d="M28 0h192l70 192h281q30 0 62 11t60.5 30.5t50.5 47t31 61.5h-199q-4 -6 -7.5 -10.5t-4.5 -4.5h-160l-96 -85l36 100h-192zM172 395h608q-1 20 -7.5 43.5t-18.5 44t-30.5 34t-43.5 13.5h-459z" />
    <glyph glyph-name="FL0071h" unicode="q" horiz-adv-x="711" 
d="M793 287q2 14 3.5 27t1.5 25v3h-198q5 -11 6.5 -23t1.5 -24v-12q0 -9 -1 -10q0 1 -0.5 -1.5l-1.5 -7.5l-4 -10q-2 -8 -11 -22q-2 -5 -4.5 -9t-4.5 -8l-20 39h-210l54 -119h-13q-18 0 -34 10t-28 26t-19 35.5t-7 37.5v6q0 6 1 7q1 8 5 18.5t9 22.5q5 11 13.5 22t19.5 22
h-202q-25 -47 -33 -99q-3 -24 -3 -45q0 -59 23 -97t61.5 -60.5t89.5 -31.5t107 -9h90l17 -28h200l-49 95q55 45 93 104t47 116zM184 395h261h3h342q-19 67 -80.5 101t-152.5 34h-132q-33 0 -66.5 -10t-64.5 -28t-59 -43t-51 -54z" />
    <glyph glyph-name="r" unicode="r" horiz-adv-x="699" 
d="M28 0h192l66 182l11 8l206 -190h214l-196 201q37 3 77.5 10t76.5 22.5t62.5 41.5t35.5 67h-197q-8 -13 -21 -13h-160l-88 -89l37 102h-192zM172 395h191l1 1h201q2 0 4 -0.5t4 -0.5h204q-1 22 -6 46t-17 44t-33 32.5t-54 12.5h-446z" />
    <glyph glyph-name="FL201Ch" unicode="s" horiz-adv-x="660" 
d="M503 174v-12q0 -10 -2.5 -19t-17.5 -9h-340q-3 0 -18 -17.5t-32.5 -40t-33 -44.5t-20.5 -32h510q27 0 52.5 16.5t45 41.5t31.5 54.5t12 55.5v6q0 23 -6.5 50t-21 50.5t-37.5 39t-56 15.5h-190q-1 0 -8.5 3.5t-11.5 7.5q-2 0 -2 2h-199q2 -25 12 -50.5t27 -46t40 -33.5
t52 -13h200q8 0 11 -8.5t3 -16.5zM824 530h-510q-23 0 -45.5 -12.5t-42.5 -32t-35.5 -43.5t-24.5 -47h541q35 33 64.5 67t52.5 68z" />
    <glyph glyph-name="FL0074h" unicode="t" horiz-adv-x="616" 
d="M167 395h501q9 1 26 17.5t35 38.5t34 44t23 35h-501q-14 -9 -33.5 -29.5t-38 -42.5t-32 -40t-14.5 -22v-1zM212 0h192l124 342h-192z" />
    <glyph glyph-name="FL2022h" unicode="u" horiz-adv-x="682" 
d="M142 308q-9 -34 -18 -59.5t-14 -51.5q-2 -14 -3 -25t-1 -22q0 -40 12 -68.5t40 -46.5t75 -26.5t118 -8.5h117q60 0 103 18.5t76 54.5t59 88.5t51 121.5l21 59h-190l-39 -109q-7 -14 -19 -31t-28 -32t-36.5 -25t-44.5 -10h-49q-23 0 -42.5 19.5t-19.5 54.5q0 10 5 32
q0 2 0.5 5.5t3.5 13.5t9.5 29.5l17.5 52.5h-192zM847 530h-190l-49 -135h190zM410 530h-189l-48 -135h190q9 27 21 60t26 75z" />
    <glyph glyph-name="FL0076h" unicode="v" horiz-adv-x="741" 
d="M433 173l-23 169h-172l35 -241q3 -12 7 -29.5t10 -33.5t14 -27t19 -11h165q7 0 18 7.5t21.5 18t19.5 20.5t14 16l212 280h-209zM605 395h208l103 135h-206zM211 530l19 -135h173l-18 135h-174z" />
    <glyph glyph-name="FL0057h" unicode="w" horiz-adv-x="872" 
d="M101 199q-6 -17 -9.5 -33t-3.5 -33q0 -27 11 -51t36.5 -42t68 -29t105.5 -11h535l124 342h-190l-75 -208h-121l75 208h-190l-73 -203q-15 4 -30.5 5t-28 6.5t-20 17.5t-7.5 39q0 3 2 11t4 17.5t4.5 19t3.5 14.5l24 73h-193zM798 395h190l49 135h-190zM487 395h190l49 135
h-190zM173 395h191l46 135h-188z" />
    <glyph glyph-name="FL0079h" unicode="x" horiz-adv-x="658" 
d="M231 0l144 127l52 -127h213l-107 266l86 76h-331l31 -76l-301 -266h213zM212 530l54 -135h413l153 135h-214l-142 -125l-50 125h-214z" />
    <glyph glyph-name="FL007Bh" unicode="y" horiz-adv-x="656" 
d="M232 0h192l92 252l102 90h-331l37 -90zM211 530l55 -135h412l153 135h-214l-142 -125l-50 125h-214z" />
    <glyph glyph-name="FL007Ah" unicode="z" horiz-adv-x="616" 
d="M23 0h499q8 0 25.5 16t36 38t35 44.5t23.5 36.5h-269l216 207h-209zM167 395h478l141 135h-501q-14 -9 -33.5 -29.5t-38 -42.5t-32 -40t-14.5 -22v-1z" />
    <glyph glyph-name="FL007Dh" unicode="{" horiz-adv-x="555" 
d="M232 330l-143 -135h153l-91 -251h285q1 0 12.5 10t26.5 24.5t30 30.5t24 28q1 1 5 7t8.5 13t8.5 13.5t5 8.5h-165l95 263h-191l-4 -12h-59zM388 597l-74 -202h191l25 67h90q8 0 25.5 16t36 38t35 44.5t23.5 36.5h-352z" />
    <glyph glyph-name="FL007Ch" unicode="|" horiz-adv-x="248" 
d="M-23 -141h192l175 483h-192zM171 395h192l100 274h-192z" />
    <glyph glyph-name="FL007Eh" unicode="}" horiz-adv-x="555" 
d="M363 -57l97 267h59l141 132h-343l-96 -264h-90q-9 0 -26 -16t-35.5 -38t-35 -45t-23.5 -36h352zM601 596h-285q-1 0 -12.5 -10t-26.5 -24.5t-30.5 -30.5t-24.5 -28q-1 -1 -5 -7t-8 -13t-8 -13.5t-5 -8.5h165l-24 -66h191z" />
    <glyph glyph-name="FL0080h" unicode="~" horiz-adv-x="413" 
d="M352 262l-32 68h-88q-5 0 -12.5 -5t-12.5 -9l-117 -121h98l64 68l33 -68h87q5 0 12.5 5t12.5 9q44 45 68 69.5t35 35.5t12.5 13.5l1.5 2.5h-98z" />
    <glyph glyph-name="FL007Fh" horiz-adv-x="175" 
 />
    <glyph glyph-name="FL00A1h" unicode="&#xa1;" horiz-adv-x="248" 
d="M220 0l125 342h-192l-125 -342h192zM369 460q11 29 -3.5 49.5t-46.5 20.5t-61.5 -20.5t-40.5 -49.5q-8 -22 -2 -39.5t23 -25.5h63q23 8 41.5 25.5t26.5 39.5z" />
    <glyph glyph-name="FL00A2h" unicode="&#xa2;" horiz-adv-x="631" 
d="M267 -142h126l52 142h93q38 30 67 65.5t52 69.5h-163l75 207h-126l-69 -190q-24 19 -42.5 47.5t-18.5 55.5v2q0 14 8 41q4 11 9 22t12 22h-195q-20 -49 -20 -97v-2q0 -52 15 -91t41.5 -66.5t62.5 -45t78 -26.5zM678 395q35 30 64.5 63.5t58.5 71.5h-163l50 138h-126
l-50 -138h-124q-33 0 -63.5 -10.5t-58 -29t-51 -43t-41.5 -52.5h241h3h260z" />
    <glyph glyph-name="FL00A3h" unicode="&#xa3;" horiz-adv-x="674" 
d="M656 0q3 37 3 72q0 40 -7 64h-196q-2 0 -9 8.5t-10 13.5l-0.5 2t-1.5 3l2 5q2 3 6 10t9 14h197l-56 135h-87q-2 0 -2 4v11h-198q0 -1 -0.5 -1.5t-0.5 -1.5q-2 -5 -3 -9l-2 -8h-71l-143 -135h155q-5 -8 -7.5 -15t-4.5 -14l-9 -23h-59l-143 -135h638zM338 395h271
q5 35 5.5 69t-6.5 66h-70q-24 0 -51.5 -13.5t-55 -34t-52 -44t-41.5 -43.5z" />
    <glyph glyph-name="FL00A4h" unicode="&#xa4;" horiz-adv-x="658" 
d="M652 279q4 37 -4 63h-162q15 -3 23.5 -10.5t12.5 -17.5t4.5 -21.5t-0.5 -21.5q0 -5 -4 -12q-1 -7 -6 -13q-6 -10 -17 -20t-23.5 -18.5t-24.5 -13.5t-20 -5h-44q-14 0 -25.5 7t-20 17.5t-13 23.5t-3.5 24q0 5 3 11t6 13q11 19 32 36t42 21h-163q-19 -22 -30.5 -44.5
t-13.5 -44.5q-4 -26 -0.5 -46t12.5 -35l-1 -1l-194 -171h213l124 109h28l44 -109h213l-65 160q32 25 52 57t25 62zM212 530l55 -135h411l154 135h-214l-121 -107h-28l-43 107h-214z" />
    <glyph glyph-name="FL00A5h" unicode="&#xa5;" horiz-adv-x="656" 
d="M232 0h192l23 63h63l125 80h-159l11 30h63l125 80h-158l101 89h-331l36 -89h-63l-125 -80h160l-11 -30h-64l-125 -80h160zM831 530h-214l-142 -125l-50 125h-214l54 -135h413z" />
    <glyph glyph-name="FL00A6h" unicode="&#xa6;" horiz-adv-x="248" 
d="M-23 -141h192l175 483h-192zM171 395h192l100 274h-192z" />
    <glyph glyph-name="FL00A7h" unicode="&#xa7;" horiz-adv-x="658" 
d="M652 279q4 37 -4 63h-162q15 -3 23.5 -10.5t12.5 -17.5t4.5 -21.5t-0.5 -21.5q0 -5 -4 -12q-1 -7 -6 -13q-6 -10 -17 -20t-23.5 -18.5t-24.5 -13.5t-20 -5h-44q-14 0 -25.5 7t-20 17.5t-13 23.5t-3.5 24q0 -1 2 7l7 17q11 19 32 36t42 21h-164q-27 -31 -37 -61
q-2 -8 -4 -14.5t-2 -13.5q-4 -26 -0.5 -46t12.5 -35l-195 -172h213l124 109h28q61 0 107.5 15t84.5 36q26 20 43.5 43.5t25.5 47.5q3 7 4.5 14t3.5 14zM316 395h362l154 135h-214l-121 -107h-28q-41 0 -79 -6t-74 -22z" />
    <glyph glyph-name="FL00A8h" unicode="&#xa8;" horiz-adv-x="364" 
d="M507 471q9 25 -2.5 42t-38.5 17t-52 -17t-34 -42t3.5 -42t39.5 -17t51 17t33 42zM199 471q-9 -25 3 -42t39 -17t51.5 17t33.5 42t-3 42t-39 17t-51.5 -17t-33.5 -42z" />
    <glyph glyph-name="copyright" unicode="&#xa9;" horiz-adv-x="278" 
d="M355 594q-23 0 -59 -14q-34 -15 -57 -41q-12 -14 -21 -27.5t-14 -28.5q-11 -29 -5 -54q2 -11 6.5 -19t10.5 -15h43q-10 3 -19 9q-18 15 -22 34q-3 20 5 45q5 12 11.5 24t17.5 23q21 23 47.5 34.5t49.5 11.5q25 0 40 -12q20 -14 23 -34q3 -22 -5 -47q-11 -27 -29 -45
q-22 -24 -46 -34q-13 -6 -26 -9h44q12 7 22 15t19 19q24 24 35 54q11 34 5 56q-5 26 -27 41q-23 14 -49 14zM345 466q-18 -28 -48 -28q-37 0 -20 45q8 23 23 35t33 12q22 0 25 -23l18 4q2 35 -37 35q-27 0 -49 -16t-33 -47q-11 -30 -1 -46.5t36 -16.5q20 0 38.5 11t30.5 30z
" />
    <glyph glyph-name="FL00ABh" unicode="&#xab;" horiz-adv-x="308" 
d="M185 272l79 54l5 16h-76l-23 -15q-8 -6 -20 -16t-15 -18l-23 -62q-2 -5 1 -10t5 -8l79 -69l34 91zM320 273l79 54l5 15h-78l-21 -14q-8 -6 -20 -16t-15 -18l-23 -62q-2 -5 1 -10t5 -8l80 -69l33 91zM429 409l-22 -14h17zM293 408l-20 -13h15z" />
    <glyph glyph-name="FL00ACh" unicode="&#xac;" horiz-adv-x="473" 
d="M346 98h135l84 232h-333l-143 -135h292z" />
    <glyph glyph-name="FL00ADh" unicode="&#xad;" horiz-adv-x="318" 
d="M277 195l143 135h-188l-143 -135h188z" />
    <glyph glyph-name="registered" unicode="&#xae;" horiz-adv-x="278" 
d="M356 595q-23 0 -60 -14q-33 -15 -56 -41q-12 -14 -21.5 -27.5t-14.5 -28.5q-10 -28 -4 -54q4 -20 17 -35h46q-14 3 -23 10q-18 15 -21 34q-4 16 4 45q9 24 29 47q22 23 48 34.5t49 11.5q24 0 41 -12q19 -13 22 -34q4 -19 -5 -47q-8 -22 -28 -45q-23 -23 -47 -34
q-14 -7 -30 -10h47q25 14 43 35q24 27 34 54q11 30 6 56t-28 41q-20 14 -48 14zM245 424h19l19 50h11q10 0 13 -4q6 -4 11 -28l3 -18h24l-6 23q-4 13 -6.5 19.5t-10.5 10.5q16 1 28.5 10.5t17.5 22.5q3 10 0 18q0 7 -10 11q-4 4 -29 4h-40zM288 490l13 36h21q19 0 20 -1
q9 -5 5 -17q-3 -8 -11 -13t-25 -5h-23z" />
    <glyph glyph-name="FL00AFh" unicode="&#xaf;" horiz-adv-x="462" 
d="M494 395l143 135h-332l-143 -135h332z" />
    <glyph glyph-name="FL00B0h" unicode="&#xb0;" horiz-adv-x="183" 
d="M199 471q-9 -25 3 -42t39 -17t51.5 17t33.5 42t-3 42t-39 17t-51.5 -17t-33.5 -42z" />
    <glyph glyph-name="FL00B1h" unicode="&#xb1;" horiz-adv-x="461" 
d="M17 0h331l143 135h-331zM225 164h135l35 97h48l86 81h-331l-86 -81h148zM586 396h-142l38 103h-135l-38 -103h-54l-1 -1h331z" />
    <glyph glyph-name="FL00B4h" unicode="&#xb4;" horiz-adv-x="170" 
d="M242 500l-24 -22q-8 -10 -17.5 -20.5t-14.5 -24.5q-4 -9 -4.5 -16.5t4.5 -11.5l4 -4q2 -2 9 -2t17 3t20.5 7.5t20 10.5t16.5 12l24 23q6 6 11.5 12t8.5 13q10 25 -7 42q-11 8 -22 8t-23 -9.5t-23 -20.5z" />
    <glyph glyph-name="FL00B5h" unicode="&#xb5;" horiz-adv-x="837" 
d="M914 282l-1 12l-65 48h-667l-1 -11l18 -55l-72 -6l72 -55l-71 -31l118 -33l-57 -35l149 -7l-32 -43l146 31l8 -25l-14 -24l131 61l35 -37l81 75l61 -26l37 87l66 -14l4 8q6 17 -18 74zM273 395h563l-39 11l56 37h-146l27 43l-150 -24l9 37l-8 6l-120 -56l-28 37l-84 -72
q-7 -4 -16 -4q-17 0 -44 27zM452 290q-40 -76 -66 -76q-5 -1 -9 -1.5t-7 -0.5q-28 0 -26 18q26 74 71 96h10q30 0 27 -36zM645 218l-10 5q-2 26 -13 26q-13 0 -34 -26h-20q14 28 33.5 55t45.5 53q4 3 15 3q18 0 12 -34zM509 214q-24 0 -39 52l-19 -51l-16 -3l38 110l30 -70
l30 75l15 -5zM735 218q-22 0 -38 54l-20 -54l-15 -1l39 109l28 -70l32 76l14 -6zM373 330l-12 -27q-5 3 -9 3q-12 0 -31 -16q-22 -21 -30 -44q-9 -21 12 -21q5 0 9.5 0.5t9.5 1.5l-5 -18l-22 -5q-28 0 -19 48q-1 1 2 8l2 6q18 52 93 64zM427 275q3 10 1 12q0 15 -12 15
q-16 0 -41 -36l-3 -7q-9 -26 7 -26q7 0 28 9q16 21 20 33zM598 332l-44 -107l-26 -8l49 110zM292 327l-44 -107l-25 -8l51 111zM825 326l-41 -80l-15 3l34 83zM647 272l2 37l-32 -37h30zM774 212l-21 -18l-7 14l15 10z" />
    <glyph glyph-name="FL00B7h" unicode="&#xb6;" horiz-adv-x="616" 
d="M334 290q3 36 -27 36h-10q-45 -22 -71 -96q-2 -18 26 -18q3 0 7 0.5t9 1.5q26 0 66 76zM527 218l29 82q6 34 -12 34q-11 0 -15 -3q-26 -26 -45.5 -53t-33.5 -55h20q21 26 34 26q11 0 13 -26zM391 214l39 108l-15 5l-30 -75l-30 70l-38 -110l16 3l19 51q15 -52 39 -52z
M617 218l40 108l-14 6l-32 -76l-28 70l-39 -109l15 1l20 54q16 -54 38 -54zM255 330q-75 -12 -93 -64l-2 -6q-3 -7 -2 -8q-9 -48 19 -48l22 5l5 18q-5 -1 -9.5 -1.5t-9.5 -0.5q-21 0 -12 21q8 23 30 44q19 16 31 16q4 0 9 -3zM309 275q-4 -12 -20 -33q-21 -9 -28 -9
q-16 0 -7 26l3 7q25 36 41 36q12 0 12 -15q2 -2 -1 -12zM480 332l-21 -5l-49 -110l26 8zM174 327l-18 -4l-51 -111l25 8zM707 326l-22 6l-34 -83l15 -3zM529 272h-30l32 37zM656 212l-13 6l-15 -10l7 -14z" />
    <glyph glyph-name="FL00B9h" unicode="&#xb7;" horiz-adv-x="183" 
d="M131 282q-4 -7 -4 -20q0 -17 12 -28t33 -11q27 0 52 17t34 42q4 7 4 19q0 17 -12.5 28.5t-34.5 11.5q-27 0 -51 -17t-33 -42z" />
    <glyph glyph-name="FL00B8h" unicode="&#xb8;" horiz-adv-x="176" 
d="M-155 -116h261l44 122h-119l-11 -30h-53z" />
    <glyph glyph-name="FL00BBh" unicode="&#xbb;" horiz-adv-x="308" 
d="M189 279l-79 -54l-30 -82l124 81q8 6 20 16t15 18l22 62q2 5 -0.5 10t-4.5 8l-5 4h-99l-9 -26zM324 280l-79 -54l-30 -82l124 81q8 6 20 16t15 18l23 62q2 5 -1 10t-5 8l-4 3h-100l-9 -25zM306 395h20l-15 13zM171 395h19l-14 12z" />
    <glyph glyph-name="FL00BFh" unicode="&#xbf;" horiz-adv-x="654" 
d="M694 342h-167q-8 -3 -17 -5t-21 -2h-149q-30 0 -65 -15t-69 -38.5t-64 -51.5t-48 -53q-16 -22 -24.5 -48.5t-8.5 -52.5q0 -32 14 -54t46 -22h442q13 13 29 29.5t32 34.5t31 36.5t25 35.5h-398q-9 0 -9 11q0 7 3 15t8 13l4 5q0 1 6 4.5t10 5.5q7 4 19 9.5t13 5.5h139
q24 0 54 13t60 33t58 44t47 47zM754 460q5 18 5 24q0 20 -14.5 33t-40.5 13q-32 0 -61.5 -20.5t-40.5 -49.5q-4 -7 -4 -23q0 -30 25 -42h63q23 8 41.5 25.5t26.5 39.5z" />
    <glyph glyph-name="FL00C0h" unicode="&#xc0;" 
d="M559 0h178l-53 342h-177l31 -208h-203v10l148 198h-201l-260 -332v-3q0 3 -2 -7h423q7 3 22 19t30.5 35t28 36t14.5 23zM620 530h-168q-7 0 -17.5 -7.5t-21 -17t-19.5 -19.5t-12 -16l-59 -75h353l-5 34q-3 12 -7.5 29.5t-10.5 33.5t-14.5 27t-18.5 11zM601 665l-8 22
q-2 11 -7.5 20.5t-16.5 9.5q-6 0 -28 -8q-26 -16 -37 -42q-3 -7 -1.5 -13t3.5 -12l6 -23q5 -13 20.5 -23t29.5 -10q9 0 11 2l6 4q8 4 13 11.5t9 16.5q5 14 2.5 24.5t-2.5 20.5z" />
    <glyph glyph-name="FL00C1h" unicode="&#xc1;" 
d="M559 0h178l-53 342h-177l31 -208h-203v10l148 198h-201l-260 -332v-3q0 3 -2 -7h423q7 3 22 19t30.5 35t28 36t14.5 23zM620 530h-168q-7 0 -17.5 -7.5t-21 -17t-19.5 -19.5t-12 -16l-59 -75h353l-5 34q-3 12 -7.5 29.5t-10.5 33.5t-14.5 27t-18.5 11zM535 666
q-7 -10 -17 -20.5t-15 -24.5q-3 -9 -3.5 -16.5t4.5 -11.5l3 -4q2 -2 10 -2q14 0 37 10t37 23l23 23l12 12t8 13q10 25 -7 42q-11 8 -22 8t-23 -9.5t-23 -20.5z" />
    <glyph glyph-name="FL00C2h" unicode="&#xc2;" 
d="M559 0h178l-53 342h-177l31 -208h-203v10l148 198h-201l-260 -332v-3q0 3 -2 -7h423q7 3 22 19t30.5 35t28 36t14.5 23zM620 530h-168q-7 0 -17.5 -7.5t-21 -17t-19.5 -19.5t-12 -16l-59 -75h353l-5 34q-3 12 -7.5 29.5t-10.5 33.5t-14.5 27t-18.5 11zM567 652l34 -59h82
l-47 94q-4 6 -11.5 14.5t-15.5 8.5h-62q-5 0 -10.5 -4.5t-10.5 -7.5l-107 -105q-2 -2 91 0z" />
    <glyph glyph-name="FL00C3h" unicode="&#xc3;" 
d="M559 0h178l-53 342h-177l31 -208h-203v10l148 198h-201l-260 -332v-3q0 3 -2 -7h423q7 3 22 19t30.5 35t28 36t14.5 23zM620 530h-168q-7 0 -17.5 -7.5t-21 -17t-19.5 -19.5t-12 -16l-59 -75h353l-5 34q-3 12 -7.5 29.5t-10.5 33.5t-14.5 27t-18.5 11zM633 651l-33 59
h-82q-5 0 -11 -4.5t-11 -7.5l-107 -105h91l58 59l33 -59h82q5 0 11.5 4.5t10.5 7.5q40 39 62 60t32 31t11.5 12l1.5 2h-91z" />
    <glyph glyph-name="FL00C4h" unicode="&#xc4;" 
d="M559 0h178l-53 342h-177l31 -208h-203v10l148 198h-201l-260 -332v-3q0 3 -2 -7h423q7 3 22 19t30.5 35t28 36t14.5 23zM620 530h-168q-7 0 -17.5 -7.5t-21 -17t-19.5 -19.5t-12 -16l-59 -75h353l-5 34q-3 12 -7.5 29.5t-10.5 33.5t-14.5 27t-18.5 11zM419 653
q-9 -25 2.5 -42t38.5 -17t52 17t34 42t-3.5 42t-39.5 17t-51 -17t-33 -42zM727 653q9 25 -3 42t-39 17t-51.5 -17t-33.5 -42t3 -42t39 -17t51.5 17t33.5 42z" />
    <glyph glyph-name="FL00C5h" unicode="&#xc5;" 
d="M559 0h178l-53 342h-177l31 -208h-203v10l148 198h-201l-260 -332v-3q0 3 -2 -7h423q7 3 22 19t30.5 35t28 36t14.5 23zM620 530h-168q-7 0 -17.5 -7.5t-21 -17t-19.5 -19.5t-12 -16l-59 -75h353l-5 34q-3 12 -7.5 29.5t-10.5 33.5t-14.5 27t-18.5 11zM511 653
q-9 -25 2.5 -42t38.5 -17t52 17t34 42t-3.5 42t-39.5 17t-51 -17t-33 -42z" />
    <glyph glyph-name="FL00C6h" unicode="&#xc6;" horiz-adv-x="1163" 
d="M335 144l148 198h-201l-260 -332v-3q0 3 -2 -7h423q7 3 22 19t30.5 35t28 36t14.5 23l21 -113h505q1 0 12.5 10t26.5 24.5t30.5 30.5t24.5 28q1 1 5 7t8 13t8 13.5t5 8.5h-383l22 60h199l143 135h-231l-95 -92l38 104h-192v-2l-1 2h-177l31 -208h-203v10zM754 530
l-49 -135h499q8 0 25.5 16t36 38t35 44.5t23.5 36.5h-570zM620 530h-168q-7 0 -17.5 -7.5t-21 -17t-19.5 -19.5t-12 -16l-59 -75h353l-5 34q-1 13 -5.5 30t-11.5 33t-16 27t-18 11z" />
    <glyph glyph-name="FL00C7h" unicode="&#xc7;" horiz-adv-x="631" 
d="M108 -116h261l42 117q3 -1 12 -1h115q38 30 67 65.5t52 69.5h-239q-17 0 -35.5 12t-34 30t-25.5 39.5t-10 40.5q0 14 8 41q4 11 9 22t12 22h-194q-21 -50 -21 -99q0 -48 13 -85t36 -64t54.5 -45t68.5 -29l-16 -44h-53zM175 395h240h3h260q35 30 64.5 63.5t58.5 71.5h-413
q-32 0 -62.5 -10.5t-58 -29t-51 -43t-41.5 -52.5z" />
    <glyph glyph-name="FL00C8h" unicode="&#xc8;" horiz-adv-x="625" 
d="M28 0h503q1 0 12.5 10t26.5 24.5t30.5 30.5t24.5 28q1 1 5 7t8 13t8 13.5t5 8.5h-383l22 60h199l143 135h-231l-95 -92l38 104h-192zM673 395q9 1 26 17.5t35 38.5t34 44t23 35h-570l-49 -135h501zM550 692q-3 11 -8 20.5t-16 9.5q-6 0 -28 -8q-30 -17 -37 -42
q-3 -7 -2 -13t3 -12l7 -23q5 -13 20.5 -23t29.5 -10q1 0 11 2l6 4q8 4 13 11.5t8 16.5q5 14 3 24.5t-2 20.5z" />
    <glyph glyph-name="FL00C9h" unicode="&#xc9;" horiz-adv-x="625" 
d="M28 0h503q1 0 12.5 10t26.5 24.5t30.5 30.5t24.5 28q1 1 5 7t8 13t8 13.5t5 8.5h-383l22 60h199l143 135h-231l-95 -92l38 104h-192zM673 395q9 1 26 17.5t35 38.5t34 44t23 35h-570l-49 -135h501zM493 671q-8 -10 -17.5 -20.5t-14.5 -24.5q-4 -7 -4 -17q0 -6 5 -11l3 -4
q2 -2 9 -2t17 3t20.5 7.5t20 10.5t16.5 12l24 23l12 12t8 13q10 25 -7 42q-11 8 -22 8t-23 -9.5t-23 -20.5z" />
    <glyph glyph-name="FL00CAh" unicode="&#xca;" horiz-adv-x="625" 
d="M28 0h503q1 0 12.5 10t26.5 24.5t30.5 30.5t24.5 28q1 1 5 7t8 13t8 13.5t5 8.5h-383l22 60h199l143 135h-231l-95 -92l38 104h-192zM673 395q9 1 26 17.5t35 38.5t34 44t23 35h-570l-49 -135h501zM528 655l32 -59h82l-47 94q-4 6 -10.5 14.5t-14.5 8.5h-62
q-5 0 -11.5 -4.5t-11.5 -7.5l-107 -105h91z" />
    <glyph glyph-name="FL00CBh" unicode="&#xcb;" horiz-adv-x="625" 
d="M28 0h503q1 0 12.5 10t26.5 24.5t30.5 30.5t24.5 28q1 1 5 7t8 13t8 13.5t5 8.5h-383l22 60h199l143 135h-231l-95 -92l38 104h-192zM671 395q8 0 25.5 16t36 38t35 44.5t23.5 36.5h-570l-49 -135h499zM391 653q-9 -25 2.5 -42t38.5 -17t52 17t34 42t-3.5 42t-39.5 17
t-51 -17t-33 -42zM699 653q9 25 -3 42t-39 17t-51.5 -17t-33.5 -42t3 -42t39 -17t51.5 17t33.5 42z" />
    <glyph glyph-name="FL00CCh" unicode="&#xcc;" horiz-adv-x="248" 
d="M220 0l124 342h-192l-124 -342h192zM221 530l-49 -135h192l49 135h-192zM392 666l-8 22q-2 11 -7.5 20.5t-16.5 9.5q-6 0 -28 -8q-26 -16 -37 -42q-2 -7 -1 -13t3 -12l7 -23q4 -13 20 -23t30 -10q8 0 10 2l7 4q8 4 13 11.5t8 16.5q5 14 3 24.5t-3 20.5z" />
    <glyph glyph-name="FL00CDh" unicode="&#xcd;" horiz-adv-x="248" 
d="M220 0l124 342h-192l-124 -342h192zM413 530h-192l-49 -135h192zM324 668q-8 -10 -17.5 -20.5t-14.5 -24.5q-4 -7 -4 -17q0 -6 5 -11l3 -4q2 -2 9 -2t17 3t20.5 7.5t20 10.5t16.5 12l24 23l12 12t8 13q10 25 -7 42q-11 8 -22 8t-23 -9.5t-23 -20.5z" />
    <glyph glyph-name="FL00CEh" unicode="&#xce;" horiz-adv-x="248" 
d="M220 0l124 342h-192l-124 -342h192zM413 530h-192l-49 -135h192zM358 654l33 -59h82l-47 94q-4 6 -11 14.5t-15 8.5h-62q-5 0 -11.5 -4.5t-10.5 -7.5l-107 -105h91z" />
    <glyph glyph-name="FL00CFh" unicode="&#xcf;" horiz-adv-x="248" 
d="M220 0l124 342h-192l-124 -342h192zM413 530h-192l-49 -135h192zM210 653q-9 -25 2.5 -42t38.5 -17t52 17t34 42t-3.5 42t-39.5 17t-51 -17t-33 -42zM518 653q9 25 -3 42t-39 17t-51.5 -17t-33.5 -42t3 -42t39 -17t51.5 17t33.5 42z" />
    <glyph glyph-name="FL00D0h" unicode="&#xd0;" horiz-adv-x="773" 
d="M430 195l143 135h-121l4 12h-194l-4 -12h-26l-143 -135h120l-71 -195h249q69 0 127 13.5t109 42.5t98.5 75.5t95.5 111.5q18 24 31 49t21 50h-198q-1 -20 -11 -44q-5 -13 -12.5 -23l-13.5 -18q-14 -19 -42 -40.5t-61 -39.5t-65.5 -30t-54.5 -12h-30l22 60h27zM766 530
h-435l-49 -135h356h3h238q3 28 -2.5 52.5t-19.5 43t-37 29t-54 10.5z" />
    <glyph glyph-name="FL00D1h" unicode="&#xd1;" horiz-adv-x="654" 
d="M220 0l108 298l56 -298h242l124 342h-190l-40 -110l-21 110h-347l-124 -342h192zM221 530l-49 -135h317l-26 135h-242zM592 651l-33 59h-82q-5 0 -11 -4.5t-11 -7.5l-107 -105h91l58 59l33 -59h82q5 0 11.5 4.5t10.5 7.5q40 39 62 60t32 31t11.5 12l1.5 2h-91zM819 530
h-190l-50 -135h191z" />
    <glyph glyph-name="FL00D2h" unicode="&#xd2;" horiz-adv-x="721" 
d="M797 287q2 15 3 28.5t1 26.5h-196q4 -12 4 -29q0 -11 -0.5 -20.5t-1.5 -19.5q0 1 -0.5 -1.5l-1.5 -7.5l-4 -10q-2 -8 -11 -22q-9 -17 -26.5 -34.5t-37 -31.5t-38 -22.5t-30.5 -8.5h-66q-20 0 -37 12t-29 30t-18 39.5t-3 40.5q1 8 5 18.5t9 22.5q5 11 13.5 22t19.5 22
h-200q-14 -25 -23.5 -50t-12.5 -49q-10 -72 5.5 -119t50 -74.5t85.5 -38.5t112 -11h100q60 0 116 26.5t100.5 68.5t74.5 93t37 99zM448 395h347q-17 72 -81 103.5t-157 31.5h-132q-32 0 -64.5 -10.5t-63.5 -29t-58.5 -43t-50.5 -52.5h257h3zM621 690q-2 11 -7.5 20.5
t-16.5 9.5q-6 0 -28 -8q-26 -16 -37 -42q-2 -7 -1 -13t3 -12l6 -23q5 -13 20.5 -23t29.5 -10q9 0 11 2l7 4q7 4 12 11.5t9 16.5q5 14 2.5 24.5t-2.5 20.5z" />
    <glyph glyph-name="FL00D3h" unicode="&#xd3;" horiz-adv-x="721" 
d="M797 287q2 15 3 28.5t1 26.5h-196q4 -12 4 -29q0 -11 -0.5 -20.5t-1.5 -19.5q0 1 -0.5 -1.5l-1.5 -7.5l-4 -10q-2 -8 -11 -22q-9 -17 -26.5 -34.5t-37 -31.5t-38 -22.5t-30.5 -8.5h-66q-20 0 -37 12t-29 30t-18 39.5t-3 40.5q1 8 5 18.5t9 22.5q5 11 13.5 22t19.5 22
h-200q-14 -25 -23.5 -50t-12.5 -49q-10 -72 5.5 -119t50 -74.5t85.5 -38.5t112 -11h100q60 0 116 26.5t100.5 68.5t74.5 93t37 99zM448 395h81h4h262q-17 72 -81 103.5t-157 31.5h-132q-32 0 -64.5 -10.5t-63.5 -29t-58.5 -43t-50.5 -52.5h257h3zM557 668
q-8 -10 -17.5 -20.5t-14.5 -24.5q-4 -7 -4 -17q0 -6 5 -11l3 -4q2 -2 9 -2t17 3t20.5 7.5t20 10.5t16.5 12l24 23l12 12t8 13q10 25 -7 42q-11 8 -22 8t-23 -9.5t-23 -20.5z" />
    <glyph glyph-name="FL00D4h" unicode="&#xd4;" horiz-adv-x="721" 
d="M797 287q2 15 3 28.5t1 26.5h-196q4 -12 4 -29q0 -11 -0.5 -20.5t-1.5 -19.5q0 1 -0.5 -1.5l-1.5 -7.5l-4 -10q-2 -8 -11 -22q-9 -17 -26.5 -34.5t-37 -31.5t-38 -22.5t-30.5 -8.5h-66q-20 0 -37 12t-29 30t-18 39.5t-3 40.5q1 8 5 18.5t9 22.5q5 11 13.5 22t19.5 22
h-200q-14 -25 -23.5 -50t-12.5 -49q-10 -72 5.5 -119t50 -74.5t85.5 -38.5t112 -11h100q60 0 116 26.5t100.5 68.5t74.5 93t37 99zM795 395q-17 72 -81 103.5t-157 31.5h-132q-32 0 -64.5 -10.5t-63.5 -29t-58.5 -43t-50.5 -52.5h607zM580 653l32 -59h82l-47 94
q-4 6 -10.5 14.5t-14.5 8.5h-62q-5 0 -11.5 -4.5t-11.5 -7.5l-107 -105h91z" />
    <glyph glyph-name="FL00D5h" unicode="&#xd5;" horiz-adv-x="721" 
d="M305 257q1 8 5 18.5t9 22.5q5 11 13.5 22t19.5 22h-200q-14 -25 -23.5 -50t-12.5 -49q-10 -72 5.5 -119t50 -74.5t85.5 -38.5t112 -11h100q60 0 116 26.5t100.5 68.5t74.5 93t37 99q2 15 3 28.5t1 26.5h-196q4 -12 4 -29q0 -11 -0.5 -20.5t-1.5 -19.5q0 1 -0.5 -1.5
l-1.5 -7.5l-4 -10q-2 -8 -11 -22q-9 -17 -26.5 -34.5t-37 -31.5t-38 -22.5t-30.5 -8.5h-66q-20 0 -37 12t-29 30t-18 39.5t-3 40.5zM557 530h-132q-32 0 -64.5 -10.5t-63.5 -29t-58.5 -43t-50.5 -52.5h341h4h262q-17 72 -81 103.5t-157 31.5zM628 651l-33 59h-82
q-5 0 -11 -4.5t-11 -7.5l-107 -105h91l58 59l33 -59h82q5 0 11.5 4.5t10.5 7.5q40 39 62 60t32 31t11.5 12l1.5 2h-91z" />
    <glyph glyph-name="FL00D6h" unicode="&#xd6;" horiz-adv-x="721" 
d="M797 287q2 15 3 28.5t1 26.5h-196q4 -12 4 -29q0 -11 -0.5 -20.5t-1.5 -19.5q0 1 -0.5 -1.5l-1.5 -7.5l-4 -10q-2 -8 -11 -22q-9 -17 -26.5 -34.5t-37 -31.5t-38 -22.5t-30.5 -8.5h-66q-20 0 -37 12t-29 30t-18 39.5t-3 40.5q1 8 5 18.5t9 22.5q5 11 13.5 22t19.5 22
h-200q-14 -25 -23.5 -50t-12.5 -49q-10 -72 5.5 -119t50 -74.5t85.5 -38.5t112 -11h100q60 0 116 26.5t100.5 68.5t74.5 93t37 99zM448 395h81h4h262q-17 72 -81 103.5t-157 31.5h-132q-32 0 -64.5 -10.5t-63.5 -29t-58.5 -43t-50.5 -52.5h257h3zM437 653q-9 -25 2.5 -42
t38.5 -17t52 17t34 42t-3.5 42t-39.5 17t-51 -17t-33 -42zM745 653q9 25 -3 42t-39 17t-51.5 -17t-33.5 -42t3 -42t39 -17t51.5 17t33.5 42z" />
    <glyph glyph-name="FL00D7h" unicode="&#xd7;" horiz-adv-x="399" 
d="M187 125l82 65l33 -65h124l-69 137l99 80h-124l-10 -8l-5 8h-125l40 -80l-169 -137h124zM397 395h124l4 3h-124zM164 398l1 -3h124l-1 3h-124z" />
    <glyph glyph-name="FL00D8h" unicode="&#xd8;" horiz-adv-x="721" 
d="M305 257q1 8 5 18.5t9 22.5q5 11 13.5 22t19.5 22h-200q-14 -25 -23.5 -50t-12.5 -49q-10 -72 5.5 -119t50 -74.5t85.5 -38.5t112 -11h100q60 0 116 26.5t100.5 68.5t74.5 93t37 99q2 15 3 28.5t1 26.5h-308l-185 -130q-3 11 -4 22.5t1 22.5zM557 530h-132
q-32 0 -64.5 -10.5t-63.5 -29t-58.5 -43t-50.5 -52.5h607q-17 72 -81 103.5t-157 31.5zM607 273q0 1 -0.5 -1.5l-1.5 -7.5l-4 -10q-2 -8 -11 -22q-9 -17 -26.5 -34.5t-37 -31.5t-38 -22.5t-30.5 -8.5h-66q-21 0 -37 12l252 180q3 -29 0 -54z" />
    <glyph glyph-name="FL00D9h" unicode="&#xd9;" horiz-adv-x="682" 
d="M142 308q-9 -34 -16.5 -60t-12.5 -52q-20 -107 39 -151.5t199 -44.5h117q60 0 103 18.5t76 54.5t59 88.5t51 121.5l21 59h-190l-39 -109q-7 -14 -19 -31t-28 -32t-36.5 -25t-44.5 -10h-49q-37 0 -50.5 29t-6.5 77q0 2 0.5 5.5t3.5 13.5t9.5 29.5l17.5 52.5h-192zM847 530
h-190l-49 -135h190zM410 530h-189l-48 -135h190q9 27 21 60t26 75zM603 689q-3 11 -8 20.5t-16 9.5q-6 0 -28 -8q-27 -16 -38 -42q-2 -7 -1 -13t3 -12l7 -23q5 -13 20.5 -23t29.5 -10q1 0 11 2l6 4q8 4 13 11.5t8 16.5q5 14 3 24.5t-2 20.5z" />
    <glyph glyph-name="FL00DAh" unicode="&#xda;" horiz-adv-x="682" 
d="M142 308q-9 -34 -16.5 -60t-12.5 -52q-20 -107 39 -151.5t199 -44.5h117q60 0 103 18.5t76 54.5t59 88.5t51 121.5l21 59h-190l-39 -109q-7 -14 -19 -31t-28 -32t-36.5 -25t-44.5 -10h-49q-37 0 -50.5 29t-6.5 77q0 2 0.5 5.5t3.5 13.5t9.5 29.5l17.5 52.5h-192zM847 530
h-190l-49 -135h190zM410 530h-189l-48 -135h190q9 27 21 60t26 75zM544 667q-8 -10 -18 -20.5t-15 -24.5q-3 -9 -3.5 -16.5t4.5 -11.5l4 -4q0 -2 9 -2q7 0 17 3t20.5 7.5t20 10.5t16.5 12l23 23l12 12t8 13q10 25 -6 42q-11 8 -22 8t-23 -9.5t-23 -20.5z" />
    <glyph glyph-name="FL00DBh" unicode="&#xdb;" horiz-adv-x="682" 
d="M142 308q-9 -34 -16.5 -60t-12.5 -52q-20 -107 39 -151.5t199 -44.5h117q60 0 103 18.5t76 54.5t59 88.5t51 121.5l21 59h-190l-39 -109q-7 -14 -19 -31t-28 -32t-36.5 -25t-44.5 -10h-49q-37 0 -50.5 29t-6.5 77q0 2 0.5 5.5t3.5 13.5t9.5 29.5l17.5 52.5h-192zM847 530
h-190l-49 -135h190zM410 530h-189l-48 -135h190q9 27 21 60t26 75zM563 653l33 -59h82l-47 94q-4 6 -11 14.5t-15 8.5h-62q-5 0 -11 -4.5t-11 -7.5l-107 -105h91z" />
    <glyph glyph-name="FL00DCh" unicode="&#xdc;" horiz-adv-x="682" 
d="M142 308q-9 -34 -16.5 -60t-12.5 -52q-20 -107 39 -151.5t199 -44.5h117q60 0 103 18.5t76 54.5t59 88.5t51 121.5l21 59h-190l-39 -109q-7 -14 -19 -31t-28 -32t-36.5 -25t-44.5 -10h-49q-37 0 -50.5 29t-6.5 77q0 2 0.5 5.5t3.5 13.5t9.5 29.5l17.5 52.5h-192zM847 530
h-190l-49 -135h190zM410 530h-189l-48 -135h190q9 27 21 60t26 75zM730 652q9 25 -2.5 42t-38.5 17t-52 -17t-34 -42t3.5 -42t39.5 -17t51 17t33 42zM422 652q-9 -25 3 -42t39 -17t51.5 17t33.5 42t-3 42t-39 17t-51.5 -17t-33.5 -42z" />
    <glyph glyph-name="FL00DDh" unicode="&#xdd;" horiz-adv-x="656" 
d="M324 252l-92 -252h192l92 252l102 90h-331zM831 530h-214l-142 -125l-50 125h-214l55 -135h412zM534 667q-8 -10 -18 -20.5t-15 -24.5q-3 -9 -3.5 -16.5t4.5 -11.5l4 -4q0 -2 9 -2q7 0 17 3t20.5 7.5t20 10.5t16.5 12l23 23l12 12t8 13q10 25 -6 42q-11 8 -22 8t-23 -9.5
t-23 -20.5z" />
    <glyph glyph-name="FL00DEh" unicode="&#xde;" horiz-adv-x="680" 
d="M28 0h192l33 92h281q34 0 71 14t68 39.5t51.5 60.5t20.5 77q-2 28 -12 59h-581zM644 430h-267l36 100h-192l-49 -135h535q-12 15 -27.5 25t-35.5 10zM327 294h205q2 0 9.5 -8.5t10.5 -13.5l0.5 -2t0.5 -3l-2 -5q-1 -3 -4 -8.5t-7 -11.5t-7.5 -10.5t-4.5 -4.5h-160
l-96 -85z" />
    <glyph glyph-name="FL00DFh" unicode="&#xdf;" horiz-adv-x="671" 
d="M756 342h-198q-4 -6 -7.5 -10.5t-4.5 -4.5h-36l-154 -135h146q0 -7 -0.5 -14t-2.5 -10l-2 -5q-1 -1 -2.5 -3l-1.5 -2q-3 -3 -9 -6.5l-12 -7t-11 -6l-5 -2.5h-114q-28 -29 -52 -63.5t-50 -72.5h229q59 0 95.5 7.5t59.5 23t37.5 40.5t29.5 60l4 11q5 13 10.5 31.5t5.5 32.5
q-1 20 -11 31t-14 19q21 9 40.5 33t29.5 53zM-23 -141h192l175 483h-192zM172 395h590q-2 20 -8.5 43.5t-19 44t-30.5 34t-42 13.5h-385q-30 -32 -57 -65t-47 -67z" />
    <glyph glyph-name="FL00E0h" unicode="&#xe0;" 
d="M559 0h178l-53 342h-177l31 -208h-203v10l148 198h-201l-260 -332v-3q0 3 -2 -7h423q7 3 22 19t30.5 35t28 36t14.5 23zM620 530h-168q-7 0 -17.5 -7.5t-21 -17t-19.5 -19.5t-12 -16l-59 -75h353l-5 34q-3 12 -7.5 29.5t-10.5 33.5t-14.5 27t-18.5 11zM601 665l-8 22
q-2 11 -7.5 20.5t-16.5 9.5q-6 0 -28 -8q-26 -16 -37 -42q-3 -7 -1.5 -13t3.5 -12l6 -23q5 -13 20.5 -23t29.5 -10q9 0 11 2l6 4q8 4 13 11.5t9 16.5q5 14 2.5 24.5t-2.5 20.5z" />
    <glyph glyph-name="FL00E1h" unicode="&#xe1;" 
d="M559 0h178l-53 342h-177l31 -208h-203v10l148 198h-201l-260 -332v-3q0 3 -2 -7h423q7 3 22 19t30.5 35t28 36t14.5 23zM620 530h-168q-7 0 -17.5 -7.5t-21 -17t-19.5 -19.5t-12 -16l-59 -75h353l-5 34q-3 12 -7.5 29.5t-10.5 33.5t-14.5 27t-18.5 11zM535 666
q-7 -10 -17 -20.5t-15 -24.5q-3 -9 -3.5 -16.5t4.5 -11.5l3 -4q2 -2 10 -2q14 0 37 10t37 23l23 23l12 12t8 13q10 25 -7 42q-11 8 -22 8t-23 -9.5t-23 -20.5z" />
    <glyph glyph-name="FL00E2h" unicode="&#xe2;" 
d="M559 0h178l-53 342h-177l31 -208h-203v10l148 198h-201l-260 -332v-3q0 3 -2 -7h423q7 3 22 19t30.5 35t28 36t14.5 23zM620 530h-168q-7 0 -17.5 -7.5t-21 -17t-19.5 -19.5t-12 -16l-59 -75h353l-5 34q-3 12 -7.5 29.5t-10.5 33.5t-14.5 27t-18.5 11zM567 652l34 -59h82
l-47 94q-4 6 -11.5 14.5t-15.5 8.5h-62q-5 0 -10.5 -4.5t-10.5 -7.5l-107 -105q-2 -2 91 0z" />
    <glyph glyph-name="FL00E3h" unicode="&#xe3;" 
d="M559 0h178l-53 342h-177l31 -208h-203v10l148 198h-201l-260 -332v-3q0 3 -2 -7h423q7 3 22 19t30.5 35t28 36t14.5 23zM620 530h-168q-7 0 -17.5 -7.5t-21 -17t-19.5 -19.5t-12 -16l-59 -75h353l-5 34q-3 12 -7.5 29.5t-10.5 33.5t-14.5 27t-18.5 11zM633 651l-33 59
h-82q-5 0 -11 -4.5t-11 -7.5l-107 -105h91l58 59l33 -59h82q5 0 11.5 4.5t10.5 7.5q40 39 62 60t32 31t11.5 12l1.5 2h-91z" />
    <glyph glyph-name="FL00E4h" unicode="&#xe4;" 
d="M559 0h178l-53 342h-177l31 -208h-203v10l148 198h-201l-260 -332v-3q0 3 -2 -7h423q7 3 22 19t30.5 35t28 36t14.5 23zM620 530h-168q-7 0 -17.5 -7.5t-21 -17t-19.5 -19.5t-12 -16l-59 -75h353l-5 34q-3 12 -7.5 29.5t-10.5 33.5t-14.5 27t-18.5 11zM419 653
q-9 -25 2.5 -42t38.5 -17t52 17t34 42t-3.5 42t-39.5 17t-51 -17t-33 -42zM727 653q9 25 -3 42t-39 17t-51.5 -17t-33.5 -42t3 -42t39 -17t51.5 17t33.5 42z" />
    <glyph glyph-name="FL00E5h" unicode="&#xe5;" 
d="M559 0h178l-53 342h-177l31 -208h-203v10l148 198h-201l-260 -332v-3q0 3 -2 -7h423q7 3 22 19t30.5 35t28 36t14.5 23zM620 530h-168q-7 0 -17.5 -7.5t-21 -17t-19.5 -19.5t-12 -16l-59 -75h353l-5 34q-3 12 -7.5 29.5t-10.5 33.5t-14.5 27t-18.5 11zM511 653
q-9 -25 2.5 -42t38.5 -17t52 17t34 42t-3.5 42t-39.5 17t-51 -17t-33 -42z" />
    <glyph glyph-name="FL00E6h" unicode="&#xe6;" horiz-adv-x="1163" 
d="M335 144l148 198h-201l-260 -332v-3q0 3 -2 -7h423q7 3 22 19t30.5 35t28 36t14.5 23l21 -113h505q1 0 12.5 10t26.5 24.5t30.5 30.5t24.5 28q1 1 5 7t8 13t8 13.5t5 8.5h-383l22 60h199l143 135h-231l-95 -92l38 104h-192v-2l-1 2h-177l31 -208h-203v10zM754 530
l-49 -135h499q8 0 25.5 16t36 38t35 44.5t23.5 36.5h-570zM620 530h-168q-7 0 -17.5 -7.5t-21 -17t-19.5 -19.5t-12 -16l-59 -75h353l-5 34q-1 13 -5.5 30t-11.5 33t-16 27t-18 11z" />
    <glyph glyph-name="FL00E7h" unicode="&#xe7;" horiz-adv-x="631" 
d="M108 -116h261l42 117q3 -1 12 -1h115q38 30 67 65.5t52 69.5h-239q-17 0 -35.5 12t-34 30t-25.5 39.5t-10 40.5q0 14 8 41q4 11 9 22t12 22h-194q-21 -50 -21 -99q0 -48 13 -85t36 -64t54.5 -45t68.5 -29l-16 -44h-53zM175 395h240h3h260q35 30 64.5 63.5t58.5 71.5h-413
q-32 0 -62.5 -10.5t-58 -29t-51 -43t-41.5 -52.5z" />
    <glyph glyph-name="FL00E8h" unicode="&#xe8;" horiz-adv-x="625" 
d="M28 0h503q1 0 12.5 10t26.5 24.5t30.5 30.5t24.5 28q1 1 5 7t8 13t8 13.5t5 8.5h-383l22 60h199l143 135h-231l-95 -92l38 104h-192zM673 395q9 1 26 17.5t35 38.5t34 44t23 35h-570l-49 -135h501zM550 692q-3 11 -8 20.5t-16 9.5q-6 0 -28 -8q-30 -17 -37 -42
q-3 -7 -2 -13t3 -12l7 -23q5 -13 20.5 -23t29.5 -10q1 0 11 2l6 4q8 4 13 11.5t8 16.5q5 14 3 24.5t-2 20.5z" />
    <glyph glyph-name="FL00E9h" unicode="&#xe9;" horiz-adv-x="625" 
d="M28 0h503q1 0 12.5 10t26.5 24.5t30.5 30.5t24.5 28q1 1 5 7t8 13t8 13.5t5 8.5h-383l22 60h199l143 135h-231l-95 -92l38 104h-192zM673 395q9 1 26 17.5t35 38.5t34 44t23 35h-570l-49 -135h501zM493 671q-8 -10 -17.5 -20.5t-14.5 -24.5q-4 -7 -4 -17q0 -6 5 -11l3 -4
q2 -2 9 -2t17 3t20.5 7.5t20 10.5t16.5 12l24 23l12 12t8 13q10 25 -7 42q-11 8 -22 8t-23 -9.5t-23 -20.5z" />
    <glyph glyph-name="FL00EAh" unicode="&#xea;" horiz-adv-x="625" 
d="M28 0h503q1 0 12.5 10t26.5 24.5t30.5 30.5t24.5 28q1 1 5 7t8 13t8 13.5t5 8.5h-383l22 60h199l143 135h-231l-95 -92l38 104h-192zM673 395q9 1 26 17.5t35 38.5t34 44t23 35h-570l-49 -135h501zM528 655l32 -59h82l-47 94q-4 6 -10.5 14.5t-14.5 8.5h-62
q-5 0 -11.5 -4.5t-11.5 -7.5l-107 -105h91z" />
    <glyph glyph-name="FL00EBh" unicode="&#xeb;" horiz-adv-x="625" 
d="M28 0h503q1 0 12.5 10t26.5 24.5t30.5 30.5t24.5 28q1 1 5 7t8 13t8 13.5t5 8.5h-383l22 60h199l143 135h-231l-95 -92l38 104h-192zM671 395q8 0 25.5 16t36 38t35 44.5t23.5 36.5h-570l-49 -135h499zM391 653q-9 -25 2.5 -42t38.5 -17t52 17t34 42t-3.5 42t-39.5 17
t-51 -17t-33 -42zM699 653q9 25 -3 42t-39 17t-51.5 -17t-33.5 -42t3 -42t39 -17t51.5 17t33.5 42z" />
    <glyph glyph-name="FL00ECh" unicode="&#xec;" horiz-adv-x="248" 
d="M220 0l124 342h-192l-124 -342h192zM221 530l-49 -135h192l49 135h-192zM392 666l-8 22q-2 11 -7.5 20.5t-16.5 9.5q-6 0 -28 -8q-26 -16 -37 -42q-2 -7 -1 -13t3 -12l7 -23q4 -13 20 -23t30 -10q8 0 10 2l7 4q8 4 13 11.5t8 16.5q5 14 3 24.5t-3 20.5z" />
    <glyph glyph-name="FL00EDh" unicode="&#xed;" horiz-adv-x="248" 
d="M220 0l124 342h-192l-124 -342h192zM413 530h-192l-49 -135h192zM324 668q-8 -10 -17.5 -20.5t-14.5 -24.5q-4 -7 -4 -17q0 -6 5 -11l3 -4q2 -2 9 -2t17 3t20.5 7.5t20 10.5t16.5 12l24 23l12 12t8 13q10 25 -7 42q-11 8 -22 8t-23 -9.5t-23 -20.5z" />
    <glyph glyph-name="FL00EEh" unicode="&#xee;" horiz-adv-x="248" 
d="M220 0l124 342h-192l-124 -342h192zM413 530h-192l-49 -135h192zM358 654l33 -59h82l-47 94q-4 6 -11 14.5t-15 8.5h-62q-5 0 -11.5 -4.5t-10.5 -7.5l-107 -105h91z" />
    <glyph glyph-name="FL00EFh" unicode="&#xef;" horiz-adv-x="248" 
d="M220 0l124 342h-192l-124 -342h192zM413 530h-192l-49 -135h192zM210 653q-9 -25 2.5 -42t38.5 -17t52 17t34 42t-3.5 42t-39.5 17t-51 -17t-33 -42zM518 653q9 25 -3 42t-39 17t-51.5 -17t-33.5 -42t3 -42t39 -17t51.5 17t33.5 42z" />
    <glyph glyph-name="FL00F0h" unicode="&#xf0;" horiz-adv-x="646" 
d="M99 195q-13 -35 -15.5 -70t7.5 -63t32.5 -45t59.5 -17q61 0 128.5 11t134 38.5t129.5 74.5t115 119q37 49 52 99h-195q-1 -3 -1 -6t-1 -6h-272q-64 -11 -105.5 -45.5t-68.5 -89.5zM639 530h-413q1 -38 6 -71.5t19 -63.5h260h5h237q2 28 -3.5 52.5t-19.5 43t-37 29
t-54 10.5zM330 203h123q-34 -25 -65.5 -46t-54.5 -21h-58l3 38q11 9 20.5 17.5t31.5 11.5z" />
    <glyph glyph-name="FL00F1h" unicode="&#xf1;" horiz-adv-x="654" 
d="M220 0l108 298l56 -298h242l124 342h-190l-40 -110l-21 110h-347l-124 -342h192zM221 530l-49 -135h317l-26 135h-242zM592 651l-33 59h-82q-5 0 -11 -4.5t-11 -7.5l-107 -105h91l58 59l33 -59h82q5 0 11.5 4.5t10.5 7.5q40 39 62 60t32 31t11.5 12l1.5 2h-91zM819 530
h-190l-50 -135h191z" />
    <glyph glyph-name="FL00F2h" unicode="&#xf2;" horiz-adv-x="721" 
d="M797 287q2 15 3 28.5t1 26.5h-196q4 -12 4 -29q0 -11 -0.5 -20.5t-1.5 -19.5q0 1 -0.5 -1.5l-1.5 -7.5l-4 -10q-2 -8 -11 -22q-9 -17 -26.5 -34.5t-37 -31.5t-38 -22.5t-30.5 -8.5h-66q-20 0 -37 12t-29 30t-18 39.5t-3 40.5q1 8 5 18.5t9 22.5q5 11 13.5 22t19.5 22
h-200q-14 -25 -23.5 -50t-12.5 -49q-10 -72 5.5 -119t50 -74.5t85.5 -38.5t112 -11h100q60 0 116 26.5t100.5 68.5t74.5 93t37 99zM448 395h347q-17 72 -81 103.5t-157 31.5h-132q-32 0 -64.5 -10.5t-63.5 -29t-58.5 -43t-50.5 -52.5h257h3zM621 690q-2 11 -7.5 20.5
t-16.5 9.5q-6 0 -28 -8q-26 -16 -37 -42q-2 -7 -1 -13t3 -12l6 -23q5 -13 20.5 -23t29.5 -10q9 0 11 2l7 4q7 4 12 11.5t9 16.5q5 14 2.5 24.5t-2.5 20.5z" />
    <glyph glyph-name="FL00F3h" unicode="&#xf3;" horiz-adv-x="721" 
d="M797 287q2 15 3 28.5t1 26.5h-196q4 -12 4 -29q0 -11 -0.5 -20.5t-1.5 -19.5q0 1 -0.5 -1.5l-1.5 -7.5l-4 -10q-2 -8 -11 -22q-9 -17 -26.5 -34.5t-37 -31.5t-38 -22.5t-30.5 -8.5h-66q-20 0 -37 12t-29 30t-18 39.5t-3 40.5q1 8 5 18.5t9 22.5q5 11 13.5 22t19.5 22
h-200q-14 -25 -23.5 -50t-12.5 -49q-10 -72 5.5 -119t50 -74.5t85.5 -38.5t112 -11h100q60 0 116 26.5t100.5 68.5t74.5 93t37 99zM448 395h81h4h262q-17 72 -81 103.5t-157 31.5h-132q-32 0 -64.5 -10.5t-63.5 -29t-58.5 -43t-50.5 -52.5h257h3zM557 668
q-8 -10 -17.5 -20.5t-14.5 -24.5q-4 -7 -4 -17q0 -6 5 -11l3 -4q2 -2 9 -2t17 3t20.5 7.5t20 10.5t16.5 12l24 23l12 12t8 13q10 25 -7 42q-11 8 -22 8t-23 -9.5t-23 -20.5z" />
    <glyph glyph-name="FL00F4h" unicode="&#xf4;" horiz-adv-x="721" 
d="M797 287q2 15 3 28.5t1 26.5h-196q4 -12 4 -29q0 -11 -0.5 -20.5t-1.5 -19.5q0 1 -0.5 -1.5l-1.5 -7.5l-4 -10q-2 -8 -11 -22q-9 -17 -26.5 -34.5t-37 -31.5t-38 -22.5t-30.5 -8.5h-66q-20 0 -37 12t-29 30t-18 39.5t-3 40.5q1 8 5 18.5t9 22.5q5 11 13.5 22t19.5 22
h-200q-14 -25 -23.5 -50t-12.5 -49q-10 -72 5.5 -119t50 -74.5t85.5 -38.5t112 -11h100q60 0 116 26.5t100.5 68.5t74.5 93t37 99zM795 395q-17 72 -81 103.5t-157 31.5h-132q-32 0 -64.5 -10.5t-63.5 -29t-58.5 -43t-50.5 -52.5h607zM580 653l32 -59h82l-47 94
q-4 6 -10.5 14.5t-14.5 8.5h-62q-5 0 -11.5 -4.5t-11.5 -7.5l-107 -105h91z" />
    <glyph glyph-name="FL00F5h" unicode="&#xf5;" horiz-adv-x="721" 
d="M305 257q1 8 5 18.5t9 22.5q5 11 13.5 22t19.5 22h-200q-14 -25 -23.5 -50t-12.5 -49v-3q-4 -17 -4 -48q0 -56 19.5 -93t53.5 -59t81 -31t103 -9h100q60 0 116 26.5t100.5 68.5t74.5 93t37 99q2 15 3.5 28.5t1.5 26.5h-197q4 -15 4 -35q0 -9 -0.5 -17.5t-1.5 -16.5
q0 1 -0.5 -1.5l-1.5 -7.5l-4 -10q-2 -8 -11 -22q-9 -17 -26.5 -34.5t-37 -31.5t-38 -22.5t-30.5 -8.5h-66q-18 0 -34 10t-28 26t-19 35.5t-7 37.5v6q0 6 1 7zM557 530h-132q-32 0 -64.5 -10.5t-63.5 -29t-58.5 -43t-50.5 -52.5h257h3h348q-9 36 -30 61.5t-52 42t-71 24
t-86 7.5zM628 651l-33 59h-82q-5 0 -11 -4.5t-11 -7.5l-107 -105h91l58 59l33 -59h82q5 0 11.5 4.5t10.5 7.5q40 39 62 60t32 31t11.5 12l1.5 2h-91z" />
    <glyph glyph-name="FL00F6h" unicode="&#xf6;" horiz-adv-x="721" 
d="M797 287q2 15 3 28.5t1 26.5h-196q4 -12 4 -29q0 -11 -0.5 -20.5t-1.5 -19.5q0 1 -0.5 -1.5l-1.5 -7.5l-4 -10q-2 -8 -11 -22q-9 -17 -26.5 -34.5t-37 -31.5t-38 -22.5t-30.5 -8.5h-66q-20 0 -37 12t-29 30t-18 39.5t-3 40.5q1 8 5 18.5t9 22.5q5 11 13.5 22t19.5 22
h-200q-14 -25 -23.5 -50t-12.5 -49q-10 -72 5.5 -119t50 -74.5t85.5 -38.5t112 -11h100q60 0 116 26.5t100.5 68.5t74.5 93t37 99zM448 395h81h4h262q-17 72 -81 103.5t-157 31.5h-132q-32 0 -64.5 -10.5t-63.5 -29t-58.5 -43t-50.5 -52.5h257h3zM437 653q-9 -25 2.5 -42
t38.5 -17t52 17t34 42t-3.5 42t-39.5 17t-51 -17t-33 -42zM745 653q9 25 -3 42t-39 17t-51.5 -17t-33.5 -42t3 -42t39 -17t51.5 17t33.5 42z" />
    <glyph glyph-name="FL00F7h" unicode="&#xf7;" horiz-adv-x="432" 
d="M89 195h302l143 135h-302zM328 108q9 25 -2.5 42t-38.5 17t-52 -17t-34 -42t3.5 -42t39.5 -17t51 17t33 42zM315 417q-5 -14 -4 -22h118q8 10 13 22q9 25 -3.5 42t-39.5 17t-51 -17t-33 -42z" />
    <glyph glyph-name="FL00F8h" unicode="&#xf8;" horiz-adv-x="721" 
d="M305 257q1 8 5 18.5t9 22.5q5 11 13.5 22t19.5 22h-200q-14 -25 -23.5 -50t-12.5 -49q-10 -72 5.5 -119t50 -74.5t85.5 -38.5t112 -11h100q60 0 116 26.5t100.5 68.5t74.5 93t37 99q2 15 3 28.5t1 26.5h-308l-185 -130q-3 11 -4 22.5t1 22.5zM557 530h-132
q-32 0 -64.5 -10.5t-63.5 -29t-58.5 -43t-50.5 -52.5h607q-17 72 -81 103.5t-157 31.5zM607 273q0 1 -0.5 -1.5l-1.5 -7.5l-4 -10q-2 -8 -11 -22q-9 -17 -26.5 -34.5t-37 -31.5t-38 -22.5t-30.5 -8.5h-66q-21 0 -37 12l252 180q3 -29 0 -54z" />
    <glyph glyph-name="FL00F9h" unicode="&#xf9;" horiz-adv-x="682" 
d="M142 308q-9 -34 -16.5 -60t-12.5 -52q-20 -107 39 -151.5t199 -44.5h117q60 0 103 18.5t76 54.5t59 88.5t51 121.5l21 59h-190l-39 -109q-7 -14 -19 -31t-28 -32t-36.5 -25t-44.5 -10h-49q-37 0 -50.5 29t-6.5 77q0 2 0.5 5.5t3.5 13.5t9.5 29.5l17.5 52.5h-192zM847 530
h-190l-49 -135h190zM410 530h-189l-48 -135h190q9 27 21 60t26 75zM603 689q-3 11 -8 20.5t-16 9.5q-6 0 -28 -8q-27 -16 -38 -42q-2 -7 -1 -13t3 -12l7 -23q5 -13 20.5 -23t29.5 -10q1 0 11 2l6 4q8 4 13 11.5t8 16.5q5 14 3 24.5t-2 20.5z" />
    <glyph glyph-name="FL00FAh" unicode="&#xfa;" horiz-adv-x="682" 
d="M142 308q-9 -34 -16.5 -60t-12.5 -52q-20 -107 39 -151.5t199 -44.5h117q60 0 103 18.5t76 54.5t59 88.5t51 121.5l21 59h-190l-39 -109q-7 -14 -19 -31t-28 -32t-36.5 -25t-44.5 -10h-49q-37 0 -50.5 29t-6.5 77q0 2 0.5 5.5t3.5 13.5t9.5 29.5l17.5 52.5h-192zM847 530
h-190l-49 -135h190zM410 530h-189l-48 -135h190q9 27 21 60t26 75zM544 667q-8 -10 -18 -20.5t-15 -24.5q-3 -9 -3.5 -16.5t4.5 -11.5l4 -4q0 -2 9 -2q7 0 17 3t20.5 7.5t20 10.5t16.5 12l23 23l12 12t8 13q10 25 -6 42q-11 8 -22 8t-23 -9.5t-23 -20.5z" />
    <glyph glyph-name="FL00FBh" unicode="&#xfb;" horiz-adv-x="682" 
d="M142 308q-9 -34 -16.5 -60t-12.5 -52q-20 -107 39 -151.5t199 -44.5h117q60 0 103 18.5t76 54.5t59 88.5t51 121.5l21 59h-190l-39 -109q-7 -14 -19 -31t-28 -32t-36.5 -25t-44.5 -10h-49q-37 0 -50.5 29t-6.5 77q0 2 0.5 5.5t3.5 13.5t9.5 29.5l17.5 52.5h-192zM847 530
h-190l-49 -135h190zM410 530h-189l-48 -135h190q9 27 21 60t26 75zM563 653l33 -59h82l-47 94q-4 6 -11 14.5t-15 8.5h-62q-5 0 -11 -4.5t-11 -7.5l-107 -105h91z" />
    <glyph glyph-name="FL00FCh" unicode="&#xfc;" horiz-adv-x="682" 
d="M142 308q-9 -34 -16.5 -60t-12.5 -52q-20 -107 39 -151.5t199 -44.5h117q60 0 103 18.5t76 54.5t59 88.5t51 121.5l21 59h-190l-39 -109q-7 -14 -19 -31t-28 -32t-36.5 -25t-44.5 -10h-49q-37 0 -50.5 29t-6.5 77q0 2 0.5 5.5t3.5 13.5t9.5 29.5l17.5 52.5h-192zM847 530
h-190l-49 -135h190zM410 530h-189l-48 -135h190q9 27 21 60t26 75zM730 652q9 25 -2.5 42t-38.5 17t-52 -17t-34 -42t3.5 -42t39.5 -17t51 17t33 42zM422 652q-9 -25 3 -42t39 -17t51.5 17t33.5 42t-3 42t-39 17t-51.5 -17t-33.5 -42z" />
    <glyph glyph-name="FL00FDh" unicode="&#xfd;" horiz-adv-x="656" 
d="M324 252l-92 -252h192l92 252l102 90h-331zM831 530h-214l-142 -125l-50 125h-214l55 -135h412zM534 667q-8 -10 -18 -20.5t-15 -24.5q-3 -9 -3.5 -16.5t4.5 -11.5l4 -4q0 -2 9 -2q7 0 17 3t20.5 7.5t20 10.5t16.5 12l23 23l12 12t8 13q10 25 -6 42q-11 8 -22 8t-23 -9.5
t-23 -20.5z" />
    <glyph glyph-name="FL00FEh" unicode="&#xfe;" horiz-adv-x="680" 
d="M28 0h192l33 92h281q34 0 71 14t68 39.5t51.5 60.5t20.5 77q-2 28 -12 59h-581zM644 430h-267l36 100h-192l-49 -135h535q-12 15 -27.5 25t-35.5 10zM327 294h205q2 0 9.5 -8.5t10.5 -13.5l0.5 -2t0.5 -3l-2 -5q-1 -3 -4 -8.5t-7 -11.5t-7.5 -10.5t-4.5 -4.5h-160
l-96 -85z" />
    <glyph glyph-name="FL00FFh" unicode="&#xff;" horiz-adv-x="656" 
d="M324 252l-92 -252h192l92 252l102 90h-331zM831 530h-214l-142 -125l-50 125h-214l55 -135h412zM722 652q9 25 -2.5 42t-38.5 17t-52 -17t-34 -42t3.5 -42t39.5 -17t51 17t33 42zM414 652q-9 -25 3 -42t39 -17t51.5 17t33.5 42t-3 42t-39 17t-51.5 -17t-33.5 -42z" />
    <glyph glyph-name="FL0152h" unicode="&#x152;" horiz-adv-x="1055" 
d="M127 243q0 -72 28.5 -119t75.5 -74.5t106 -38.5t121 -11h503q1 0 12.5 10t26.5 24.5t30.5 30.5t24.5 28q1 1 5 7t8 13t8 13.5t5 8.5h-383l22 60h199l143 135h-231l-95 -92l38 104h-192l-75 -207h-89q-17 0 -35.5 12t-34 30t-25.5 39.5t-10 40.5q0 14 8 41q4 11 9 22
t12 22h-194q-21 -50 -21 -99zM1101 395q8 0 25.5 16t36 38t35 44.5t23.5 36.5h-833q-32 0 -62.5 -10.5t-58 -29t-51 -43t-41.5 -52.5h240h3h683z" />
    <glyph glyph-name="FL0153h" unicode="&#x153;" horiz-adv-x="1055" 
d="M127 243q0 -72 28.5 -119t75.5 -74.5t106 -38.5t121 -11h503q1 0 12.5 10t26.5 24.5t30.5 30.5t24.5 28q1 1 5 7t8 13t8 13.5t5 8.5h-383l22 60h199l143 135h-231l-95 -92l38 104h-192l-75 -207h-89q-17 0 -35.5 12t-34 30t-25.5 39.5t-10 40.5q0 14 8 41q4 11 9 22
t12 22h-195q-20 -49 -20 -97v-2zM1101 395q8 0 25.5 16t36 38t35 44.5t23.5 36.5h-833q-33 0 -63.5 -10.5t-58 -29t-51 -43t-41.5 -52.5h241h3h683z" />
    <glyph glyph-name="FL0160h" unicode="&#x160;" horiz-adv-x="660" 
d="M503 174v-12q0 -10 -2.5 -19t-17.5 -9h-340q-3 0 -18 -17.5t-32.5 -40t-33 -44.5t-20.5 -32h510q27 0 52.5 16.5t45 41.5t31.5 54.5t12 55.5v4q0 23 -8 50.5t-23.5 51t-38 39.5t-51.5 16h-190q-1 0 -8.5 3.5t-11.5 7.5q-2 0 -2 2h-199q2 -25 12 -50.5t27 -46t40 -33.5
t52 -13h200q8 0 11 -8.5t3 -16.5zM824 530h-510q-23 0 -45.5 -12.5t-42.5 -32t-35.5 -43.5t-24.5 -47h541q35 33 64.5 67t52.5 68zM548 649l-32 59h-82l46 -94q5 -6 11.5 -14.5t14.5 -8.5h62q5 0 11.5 4.5t10.5 7.5l108 105h-91z" />
    <glyph glyph-name="FL0161h" unicode="&#x161;" horiz-adv-x="660" 
d="M503 174v-12q0 -10 -2.5 -19t-17.5 -9h-340q-3 0 -18 -17.5t-32.5 -40t-33 -44.5t-20.5 -32h510q27 0 52.5 16.5t45 41.5t31.5 54.5t12 55.5v4q0 23 -8 50.5t-23.5 51t-38 39.5t-51.5 16h-190q-1 0 -8.5 3.5t-11.5 7.5q-2 0 -2 2h-199q2 -25 12 -50.5t27 -46t40 -33.5
t52 -13h200q8 0 11 -8.5t3 -16.5zM824 530h-510q-23 0 -45.5 -12.5t-42.5 -32t-35.5 -43.5t-24.5 -47h541q35 33 64.5 67t52.5 68zM548 649l-32 59h-82l46 -94q5 -6 11.5 -14.5t14.5 -8.5h62q5 0 11.5 4.5t10.5 7.5l108 105h-91z" />
    <glyph glyph-name="FL0178h" unicode="&#x178;" horiz-adv-x="656" 
d="M324 252l-92 -252h192l92 252l102 90h-331zM831 530h-214l-142 -125l-50 125h-214l55 -135h412zM722 652q9 25 -2.5 42t-38.5 17t-52 -17t-34 -42t3.5 -42t39.5 -17t51 17t33 42zM414 652q-9 -25 3 -42t39 -17t51.5 17t33.5 42t-3 42t-39 17t-51.5 -17t-33.5 -42z" />
    <glyph glyph-name="FL017Dh" unicode="&#x17d;" horiz-adv-x="616" 
d="M522 0q8 0 25.5 16t36 38t35 44.5t23.5 36.5h-269l216 207h-209l-357 -342h499zM786 530h-501q-14 -9 -33.5 -29.5t-38 -42.5t-32 -40t-14.5 -22v-1h478zM548 649l-32 59h-82l46 -94q5 -6 11.5 -14.5t14.5 -8.5h62q5 0 11.5 4.5t10.5 7.5l108 105h-91z" />
    <glyph glyph-name="FL017Eh" unicode="&#x17e;" horiz-adv-x="616" 
d="M522 0q8 0 25.5 16t36 38t35 44.5t23.5 36.5h-269l216 207h-209l-357 -342h499zM786 530h-501q-14 -9 -33.5 -29.5t-38 -42.5t-32 -40t-14.5 -22v-1h478zM548 649l-32 59h-82l46 -94q5 -6 11.5 -14.5t14.5 -8.5h62q5 0 11.5 4.5t10.5 7.5l108 105h-91z" />
    <glyph glyph-name="FL00B6h" unicode="&#x192;" horiz-adv-x="876" 
d="M933 282l-72 -6q24 -57 18 -74l-4 -8l-66 14l-37 -87l-61 26l-81 -75l-35 37l-131 -61l14 24l-8 25l-146 -31l32 43l-149 7l57 35l-118 33l71 31l-72 55l72 6l-18 55l1 11h-18l-2 -4l16 -44l-63 -12l-5 -30l48 -32l-45 -31q-9 -24 8 -24l80 -18l-24 -21l-9 -23l136 -13
l-17 -31l12 -11l144 24l-13 -37l15 -6l125 61l19 -37l29 6l78 67q14 -11 24 -17.5t22 -6.5q17 0 26 14l33 73l49 -12q19 6 27 26l2 5q1 6 0 7l-14 48h49l19 26l2 2q6 17 -54 47q5 1 9 1.5t8 2.5h-49l65 -48zM891 449l-7 13h-128l19 37l-36 6l-117 -25l-4 6l13 19l-15 19
l-119 -56l-34 37q-17 -7 -38.5 -25t-53.5 -49l-52 25h-2q-22 0 -47 -61h22l20 42q27 -27 44 -27q9 0 16 4l84 72l28 -37l120 56l8 -6l-9 -37l150 24l-27 -43h146l-56 -37l39 -11h58l-56 19q22 3 34 35zM471 290q3 36 -27 36h-10q-45 -22 -71 -96q-2 -18 26 -18q3 0 7 0.5
t9 1.5q26 0 66 76zM664 218l29 82q6 34 -12 34q-11 0 -15 -3q-26 -26 -45.5 -53t-33.5 -55h20q21 26 34 26q11 0 13 -26zM528 214l39 108l-15 5l-30 -75l-30 70l-38 -110l16 3l19 51q15 -52 39 -52zM754 218l40 108l-14 6l-32 -76l-28 70l-39 -109l15 1l20 54q16 -54 38 -54
zM392 330q-75 -12 -93 -64l-2 -6q-3 -7 -2 -8q-9 -48 19 -48l22 5l5 18q-5 -1 -9.5 -1.5t-9.5 -0.5q-21 0 -12 21q8 23 30 44q19 16 31 16q4 0 9 -3zM446 275q-4 -12 -20 -33q-21 -9 -28 -9q-16 0 -7 26l3 7q25 36 41 36q12 0 12 -15q2 -2 -1 -12zM617 332l-21 -5l-49 -110
l26 8zM311 327l-18 -4l-51 -111l25 8zM844 326l-22 6l-34 -83l15 -3zM666 272h-30l32 37zM793 212l-13 6l-15 -10l7 -14z" />
    <glyph glyph-name="FL02C6h" unicode="&#x2c6;" horiz-adv-x="301" 
d="M319 472l32 -59h82l-46 94q-5 6 -11.5 14.5t-14.5 8.5h-62q-5 0 -11.5 -4.5t-10.5 -7.5l-108 -105h91z" />
    <glyph glyph-name="FL02DCh" unicode="&#x2dc;" horiz-adv-x="389" 
d="M413 471l-32 59h-82q-5 0 -11.5 -4.5t-10.5 -7.5l-108 -105h91l59 59l32 -59h82q5 0 11.5 4.5t11.5 7.5q37 36 58.5 57t32 31.5t13 13.5l2.5 3h-90z" />
    <glyph glyph-name="FL2013h" unicode="&#x2013;" horiz-adv-x="361" 
d="M320 195l143 135h-231l-143 -135h231z" />
    <glyph glyph-name="FL2014h" unicode="&#x2014;" horiz-adv-x="432" 
d="M391 195l143 135h-302l-143 -135h302z" />
    <glyph glyph-name="FL2018h" unicode="&#x2018;" horiz-adv-x="181" 
d="M312 440q1 10 2 25.5t-1 30t-7.5 24.5t-17.5 10h-8q-8 0 -21.5 -9.5t-27.5 -23t-26.5 -29t-17.5 -28.5l-13 -37q-2 -6 -3 -8h124q2 2 4 8zM213 339q9 0 20 3h-39q9 -3 19 -3z" />
    <glyph glyph-name="FL2019h" unicode="&#x2019;" horiz-adv-x="181" 
d="M185 430q-3 -14 -3 -35h105q8 9 14 18t9 17l13 37q10 26 -1.5 45t-38.5 19q-26 0 -50.5 -19t-34.5 -45zM209 340h8q5 0 8 2h-25q2 -2 9 -2z" />
    <glyph glyph-name="FL201Ah" unicode="&#x201a;" horiz-adv-x="208" 
d="M38 28q-1 -12 -1.5 -29t2.5 -32.5t10.5 -27t22.5 -11.5h9q9 0 25.5 10.5t33.5 25.5t31 32.5t19 31.5l15 42q11 29 -3.5 50t-46.5 21t-61 -21t-41 -50z" />
    <glyph glyph-name="FL201Eh" unicode="&#x201c;" horiz-adv-x="326" 
d="M313 440q1 10 2 25.5t-1 30t-7.5 24.5t-17.5 10h-8q-8 0 -21.5 -9.5t-27.5 -23t-26.5 -29t-17.5 -28.5l-13 -37q-2 -6 -3 -8h124q2 2 4 8zM458 440q1 10 2 25.5t-1 30t-7.5 24.5t-17.5 10h-8q-8 0 -21.5 -9.5t-27.5 -23t-26.5 -29t-17.5 -28.5l-13 -37q-2 -6 -3 -8h124
q2 2 4 8zM359 339q9 0 20 3h-39q9 -3 19 -3zM214 339q9 0 20 3h-39q9 -3 19 -3z" />
    <glyph glyph-name="FL201Dh" unicode="&#x201d;" horiz-adv-x="326" 
d="M330 430q-3 -14 -3 -35h105q8 9 14 18t9 17l13 37q10 26 -1.5 45t-38.5 19q-26 0 -50.5 -19t-34.5 -45zM185 430q-3 -14 -3 -35h105q8 9 14 18t9 17l13 37q10 26 -1.5 45t-38.5 19q-26 0 -50.5 -19t-34.5 -45zM354 340h8q5 0 8 2h-25q2 -2 9 -2zM209 340h8q5 0 8 2h-25
q2 -2 9 -2z" />
    <glyph glyph-name="FL201Fh" unicode="&#x201e;" horiz-adv-x="381" 
d="M211 28q-1 -12 -1.5 -29t2.5 -32.5t10.5 -27t22.5 -11.5h9q9 0 25.5 10.5t33.5 25.5t31 32.5t19 31.5l15 42q11 29 -3.5 50t-46.5 21t-61 -21t-41 -50zM38 28q-1 -12 -1.5 -29t2.5 -32.5t10.5 -27t22.5 -11.5h9q9 0 25.5 10.5t33.5 25.5t31 32.5t19 31.5l15 42
q11 29 -3.5 50t-46.5 21t-61 -21t-41 -50z" />
    <glyph glyph-name="FL2020h" unicode="&#x2020;" horiz-adv-x="432" 
d="M121 0h192l105 289h8l56 53h-302l-56 -53h102zM569 424h-102l39 106h-192l-39 -106h-8l-31 -29h302z" />
    <glyph glyph-name="FL2021h" unicode="&#x2021;" horiz-adv-x="432" 
d="M121 0h192l37 102h8l143 135h-102l19 52h8l56 53h-302l-56 -53h102l-19 -52h-8l-143 -135h102zM569 424h-102l39 106h-192l-39 -106h-8l-31 -29h302z" />
    <glyph glyph-name="FL2023h" unicode="&#x2022;" horiz-adv-x="356" 
d="M124 257q-3 -19 3 -40.5t18 -39.5t29 -30t37 -12h66q12 0 30.5 8.5t38 22.5t37 31.5t26.5 34.5q9 14 11 22l4 10l1.5 7.5t0.5 1.5q1 10 1.5 19.5t0.5 20.5q0 17 -4 29h-253q-11 -11 -19.5 -22t-13.5 -22q-5 -12 -9 -22.5t-5 -18.5z" />
    <glyph glyph-name="FL2026h" unicode="&#x2026;" horiz-adv-x="561" 
d="M228 70q-11 -29 4 -49.5t47 -20.5q16 0 32 5.5t29.5 15t24 22t15.5 27.5q11 29 -3.5 50t-46.5 21t-61 -21t-41 -50zM53 70q-11 -29 4 -49.5t47 -20.5q16 0 32 5.5t29.5 15t24 22t15.5 27.5q11 29 -3.5 50t-46.5 21t-61 -21t-41 -50zM406 70q-11 -29 4 -49.5t47 -20.5
q16 0 32 5.5t29.5 15t24 22t15.5 27.5q11 29 -3.5 50t-46.5 21t-61 -21t-41 -50z" />
    <glyph glyph-name="FL2030h" unicode="&#x2030;" horiz-adv-x="1138" 
d="M815 143q11 66 -24 94t-96 28h-66q-23 0 -46 -10.5t-43 -27.5t-35.5 -38.5t-23.5 -43.5q-5 -12 -6 -24q-5 -36 2.5 -59.5t25 -37t43 -19t55.5 -5.5h50q26 0 51 10.5t46 27.5t37 38.5t24 43.5l4 11q1 5 1.5 8t0.5 4zM1160 143q11 66 -24 94t-96 28h-66q-23 0 -46 -10.5
t-43 -27.5t-35.5 -38.5t-23.5 -43.5q-5 -12 -6 -24q-5 -36 2.5 -59.5t25 -37t43 -19t55.5 -5.5h50q26 0 51 10.5t46 27.5t37 38.5t24 43.5l4 11q1 5 1.5 8t0.5 4zM85 0h171l415 342h-173zM511 408q6 33 -0.5 56t-22.5 38t-41 21.5t-55 6.5h-66q-23 0 -46 -10.5t-43.5 -27.5
t-36 -38.5t-23.5 -43.5q-4 -10 -5 -15h108l0.5 0.5t0.5 1.5l6 16q8 14 22.5 26t27.5 12h30q18 0 25 -9.5t7 -23.5q0 -13 -1 -15l-3 -7q0 -1 -1 -1v0h114l1 1q2 10 2 12zM562 395h173l164 135h-173zM481 342h-311q7 -45 41.5 -61t85.5 -16h50q39 0 75 22.5t59 54.5zM930 132
l6 16q8 14 22.5 26t27.5 12h30q19 0 25 -9.5t6 -23.5q0 -13 -1 -15l-2 -7q-2 -6 -5 -9q-8 -14 -24.5 -26t-25.5 -12h-26q-14 0 -25 16.5t-8 31.5zM585 132l6 16q8 14 22.5 26t27.5 12h30q19 0 25 -9.5t6 -23.5q0 -13 -1 -15l-2 -7q-2 -6 -5 -9q-8 -14 -24.5 -26t-25.5 -12
h-26q-14 0 -25 16.5t-8 31.5z" />
    <glyph glyph-name="FL2039h" unicode="&#x2039;" horiz-adv-x="173" 
d="M185 273l79 54l5 15h-78l-21 -14q-8 -6 -20 -16t-15 -18l-23 -62q-2 -5 1 -10t5 -8l80 -69l33 91zM294 409l-22 -14h17z" />
    <glyph glyph-name="FL203Ah" unicode="&#x203a;" horiz-adv-x="173" 
d="M188 279l-79 -54l-30 -82l124 81q8 6 20 16t15 18l22 62q2 5 -0.5 10t-4.5 8l-5 4h-99l-9 -26zM176 407h-1l-5 -12h20l-14 13v-1z" />
    <glyph glyph-name="FL20ACh" unicode="&#x20ac;" horiz-adv-x="740" 
d="M493 164l125 80h-195q-2 10 -2 7l2 23h110l106 68h-415l-106 -68h120l-2 -30h-33l-125 -80h170q14 -48 46 -79.5t75.5 -50.5t94.5 -26.5t103 -7.5h80q38 30 67 65.5t52 69.5h-239q-31 0 -57 29h23zM527 395h260q35 30 64.5 63.5t58.5 71.5h-413q-32 0 -62.5 -10.5
t-58 -29t-51 -43t-41.5 -52.5h239h4z" />
    </font>
</defs>
</svg>
