<?xml version="1.0" standalone="no"?>
<!DOCTYPE svg PUBLIC "-//W3C//DTD SVG 1.1//EN" "http://www.w3.org/Graphics/SVG/1.1/DTD/svg11.dtd" >
<svg xmlns="http://www.w3.org/2000/svg" xmlns:xlink="http://www.w3.org/1999/xlink" version="1.1">
<metadata>
Created by FontForge 20170731 at Thu Jun  9 17:55:38 2011
 By Aleksey,,,
2011 Iconian Fonts - www.iconian.com
</metadata>
<defs>
<font id="FederalServiceBoldItalic" horiz-adv-x="755" >
  <font-face 
    font-family="Federal Service Bold Italic"
    font-weight="700"
    font-style="italic"
    font-stretch="normal"
    units-per-em="1000"
    panose-1="0 0 0 0 0 0 0 0 0 0"
    ascent="800"
    descent="-200"
    x-height="596"
    cap-height="596"
    bbox="18 -165 1255 874"
    underline-thickness="50"
    underline-position="-175"
    slope="-12"
    unicode-range="U+0020-2122"
  />
<missing-glyph horiz-adv-x="500" 
 />
    <glyph glyph-name=".notdef" horiz-adv-x="500" 
 />
    <glyph glyph-name=".null" horiz-adv-x="0" 
 />
    <glyph glyph-name="nonmarkingreturn" horiz-adv-x="500" 
 />
    <glyph glyph-name="space" unicode=" " horiz-adv-x="360" 
 />
    <glyph glyph-name="space" unicode="&#xa0;" horiz-adv-x="360" 
 />
    <glyph glyph-name="FL0021h" unicode="!" horiz-adv-x="245" 
d="M323 593h-147l-91 -429h147zM64 70q-7 -30 10 -50.5t50 -20.5q32 0 58 20.5t33 50.5q6 29 -11.5 49.5t-49.5 20.5q-33 0 -58.5 -20.5t-31.5 -49.5z" />
    <glyph glyph-name="FL0022h" unicode="&#x22;" horiz-adv-x="453" 
d="M327 394q-6 -28 12.5 -48.5t53.5 -20.5t62 19.5t34 48.5l23 109q6 29 -13 48.5t-54 19.5t-62 -19.5t-33 -48.5zM136 393q-6 -28 12 -48t53 -20t62.5 19t33.5 48l23 109q7 29 -12.5 48.5t-54.5 19.5t-61.5 -19.5t-33.5 -48.5z" />
    <glyph glyph-name="FL0023h" unicode="#" horiz-adv-x="749" 
d="M126 343h118l-21 -100h-118l-30 -140h118l-22 -103h159l22 103h95l-22 -103h159l22 104h116l30 139h-116l21 100h116l30 140h-116l24 113h-159l-24 -113h-95l24 113h-159l-24 -113h-118zM403 343h95l-21 -100h-95z" />
    <glyph glyph-name="FL0024h" unicode="$" 
d="M436 -121l26 122q128 9 203.5 86.5t104.5 211.5l15 73h-244l19 89h244l30 141h-244l25 119h-158l-25 -120q-131 -8 -208.5 -85.5t-106.5 -212.5l-15 -71h251l-19 -91h-251l-30 -141h251l-26 -121h158zM401 455l-18 -83h-86q18 37 44.5 56t59.5 27zM493 147l18 85h79
q-30 -70 -97 -85z" />
    <glyph glyph-name="FL0025h" unicode="%" horiz-adv-x="856" 
d="M259 0l635 596h-162l-639 -596h166zM472 394l20 96q6 27 2 46.5t-20.5 32.5t-47 19.5t-79.5 6.5q-95 0 -137 -28.5t-52 -78.5l-20 -95q-6 -25 -2 -45t19.5 -33.5t45.5 -21t77 -7.5q49 0 83.5 6.5t57 20t35 34t18.5 47.5zM830 107l20 96q6 27 2.5 47t-20 33t-47 19.5
t-79.5 6.5q-48 0 -82 -7.5t-56.5 -21t-35 -34t-17.5 -45.5l-20 -95q-5 -25 -1.5 -44.5t19.5 -33t46 -21t77 -7.5q49 0 83.5 6.5t57 20t35 33.5t18.5 47zM327 501q21 0 33.5 -2.5t18.5 -7t6.5 -10t-0.5 -12.5l-11 -51q-2 -11 -6 -18t-12.5 -11t-22 -6t-35.5 -2q-37 0 -48 9.5
t-8 24.5l12 54q3 16 19 24t54 8zM686 215q21 0 33.5 -2.5t18 -7t6 -10.5t-0.5 -12l-11 -51q-2 -11 -6 -18t-12.5 -11t-22 -6t-35.5 -2q-38 0 -48.5 9t-7.5 25l12 54q3 15 19.5 23.5t54.5 8.5z" />
    <glyph glyph-name="FL0026h" unicode="&#x26;" horiz-adv-x="864" 
d="M815 0l30 139h-140q11 20 20.5 42t17.5 45h120l30 139h-197q11 112 -34 172.5t-145 60.5h-114q-114 0 -185 -79.5t-100 -218.5q-15 -70 -15 -126q0 -55 18.5 -94t57.5 -59.5t101 -20.5h535zM451 138h-104q-99 0 -86 88h325q-27 -88 -135 -88zM428 462q37 0 60.5 -7
t36 -19.5t15.5 -29.5t0 -37h-249q11 39 42 66t95 27z" />
    <glyph glyph-name="FL0027h" unicode="'" horiz-adv-x="245" 
d="M133 394q-6 -28 10.5 -48.5t49.5 -20.5q32 0 58 19.5t33 48.5l23 109q6 29 -12 48t-50 19q-33 0 -58 -19t-31 -48z" />
    <glyph glyph-name="FL0028h" unicode="(" horiz-adv-x="441" 
d="M376 -66l29 137h-73q-28 0 -45.5 16t-25.5 41t-8.5 54t5.5 56l25 120q5 23 16.5 52.5t30 55t44 43t58.5 17.5h73l28 135h-126q-55 0 -102 -30t-84 -80t-63.5 -115t-41.5 -134q-15 -71 -17.5 -137t12.5 -117.5t51 -82.5t98 -31h116z" />
    <glyph glyph-name="FL0029h" unicode=")" horiz-adv-x="441" 
d="M40 -66l29 137h73q28 0 52 16t43 41t32 54t19 56l25 120q5 23 6 52.5t-6.5 55t-25.5 43t-51 17.5h-73l28 135h126q55 0 89.5 -30t50.5 -80t15 -115t-16 -134q-15 -71 -40.5 -137t-62.5 -117.5t-86 -82.5t-111 -31h-116z" />
    <glyph glyph-name="FL002Ah" unicode="*" horiz-adv-x="360" 
d="M351 531l35 27l53 -68l-65 -40l52 -42l-81 -82l-31 37l-9 -44h-106l10 47l-52 -40l-46 82l65 39l-43 37l91 74l22 -27l8 38h105z" />
    <glyph glyph-name="FL002Bh" unicode="+" horiz-adv-x="547" 
d="M318 516l-33 -154h-155l-29 -137h155l-33 -155h137l33 155h154l29 137h-154l33 154h-137z" />
    <glyph glyph-name="FL002Ch" unicode="," horiz-adv-x="245" 
d="M40 -41q-6 -28 11 -48t50 -20q32 0 58 19.5t32 47.5l23 109q6 29 -11.5 48.5t-49.5 19.5q-33 0 -58.5 -19.5t-31.5 -48.5z" />
    <glyph glyph-name="FL002Dh" unicode="-" horiz-adv-x="478" 
d="M95 201h378l26 124h-378z" />
    <glyph glyph-name="FL002Eh" unicode="." horiz-adv-x="245" 
d="M62 63q-5 -26 12 -44.5t50 -18.5q32 0 58 18.5t31 44.5q6 26 -12 44.5t-50 18.5q-33 0 -58 -18.5t-31 -44.5z" />
    <glyph glyph-name="FL002Fh" unicode="/" horiz-adv-x="438" 
d="M205 0l316 596h-157l-316 -596h157z" />
    <glyph glyph-name="FL0030h" unicode="0" horiz-adv-x="753" 
d="M473 0q64 0 112.5 20.5t84 59t59.5 94t39 126.5q29 139 -7.5 217.5t-150.5 78.5h-208q-114 0 -185 -78.5t-100 -217.5q-15 -71 -14.5 -126.5t19.5 -94t58.5 -59t103.5 -20.5h189zM621 356l-26 -119q-21 -101 -137 -101h-107q-110 0 -89 101l26 119q4 22 14 41.5t26.5 34
t40.5 22.5t58 8h100q34 0 54.5 -8t31 -22.5t11.5 -34t-3 -41.5zM360 295q-7 -30 12.5 -50.5t54.5 -20.5q36 0 64 20.5t35 50.5q6 30 -13.5 50.5t-55.5 20.5q-35 0 -63 -20.5t-34 -50.5z" />
    <glyph glyph-name="FL0031h" unicode="1" horiz-adv-x="312" 
d="M177 597l-29 -134h65l-98 -463h150l127 596z" />
    <glyph glyph-name="FL0032h" unicode="2" 
d="M263 227l-18 -87h491l-30 -140h-653l78 366h488q-2 52 -35.5 71.5t-88.5 19.5h-345l30 139h379q139 0 189.5 -78.5t21.5 -217.5l-16 -73h-491z" />
    <glyph glyph-name="FL0062h" unicode="3" horiz-adv-x="692" 
d="M53 0l29 136h316q109 0 134 91h-431l30 139h432q3 21 0.5 38.5t-13.5 30t-31 20t-52 7.5h-316l29 134h370q113 0 149.5 -78.5t7.5 -217.5q-15 -71 -39 -126.5t-59.5 -94t-84 -59t-111.5 -20.5h-360z" />
    <glyph glyph-name="FL0034h" unicode="4" horiz-adv-x="693" 
d="M644 0l127 596h-154l-49 -230h-278l49 230h-159l-79 -368h437l-48 -228h154z" />
    <glyph glyph-name="FL0035h" unicode="5" 
d="M803 456l30 140h-653l-78 -366h488q-24 -53 -65.5 -72t-96.5 -19h-345l-30 -139h379q139 0 223.5 78.5t113.5 217.5l15 73h-491l19 87h491z" />
    <glyph glyph-name="FL0036h" unicode="6" 
d="M459 457h344l30 139h-378q-68 0 -123 -19t-96.5 -54t-70 -85t-43.5 -112l-20 -96h3q-6 -55 0.5 -98t27.5 -72t58 -44.5t93 -15.5h148q139 0 223.5 78.5t113.5 217.5l15 73h-489q25 50 67 69t97 19zM428 139h-102q-35 11 -53.5 31.5t-11.5 59.5h329q-24 -53 -65.5 -72
t-96.5 -19z" />
    <glyph glyph-name="FL0037h" unicode="7" horiz-adv-x="686" 
d="M736 467l28 129h-584l-29 -134h370l-478 -462h212z" />
    <glyph glyph-name="FL0038h" unicode="8" horiz-adv-x="753" 
d="M473 0q64 0 112.5 20.5t84 59t59.5 94t39 126.5q29 139 -7.5 217.5t-150.5 78.5h-208q-114 0 -185 -78.5t-100 -217.5q-15 -71 -14.5 -126.5t19.5 -94t58.5 -59t103.5 -20.5h189zM427 462h100q32 0 52 -7.5t31 -20t13.5 -30t-0.5 -38.5h-333q11 42 42 69t95 27zM458 136
h-107q-105 0 -91 90h332q-26 -90 -134 -90z" />
    <glyph glyph-name="FL0039h" unicode="9" 
d="M427 139h-198l-30 -139h232q68 0 122.5 18.5t95.5 53.5t69.5 85t43.5 113l21 96h-3q6 55 0 97.5t-27 72t-58.5 45t-93.5 15.5h-147q-140 0 -224.5 -78.5t-113.5 -217.5l-16 -73h488q-26 -51 -66.5 -69.5t-94.5 -18.5zM458 457h101q35 -11 53 -31.5t12 -59.5h-330
q24 52 66.5 71.5t97.5 19.5z" />
    <glyph glyph-name="FL003Ah" unicode=":" horiz-adv-x="245" 
d="M64 69q-7 -29 10 -49t50 -20q32 0 58 20t33 49q6 29 -12 49t-50 20q-33 0 -58 -20t-31 -49zM110 289q-6 -29 11 -49t50 -20q32 0 58 20t32 49q7 29 -11 49t-50 20q-33 0 -58 -20t-32 -49z" />
    <glyph glyph-name="FL003Bh" unicode=";" horiz-adv-x="245" 
d="M40 -42q-6 -29 10.5 -50t49.5 -21q32 0 58 20t33 50l24 113q6 29 -11.5 49.5t-49.5 20.5q-33 0 -58.5 -20.5t-31.5 -49.5zM111 293q-6 -30 10.5 -50t49.5 -20q32 0 58.5 20t32.5 50q7 29 -11 49.5t-50 20.5q-33 0 -58 -20.5t-32 -49.5z" />
    <glyph glyph-name="FL003Ch" unicode="&#x3c;" horiz-adv-x="469" 
d="M113 297l152 -297h166l-153 297l280 301h-167z" />
    <glyph glyph-name="FL003Dh" unicode="=" horiz-adv-x="478" 
d="M124 339h378l29 136h-378zM74 103h378l29 137h-378z" />
    <glyph glyph-name="FL003Eh" unicode="&#x3e;" horiz-adv-x="469" 
d="M485 297l-277 -297h-166l277 297l-150 301h167z" />
    <glyph glyph-name="FL003Fh" unicode="?" horiz-adv-x="757" 
d="M756 225l15 73q30 139 -21 217.5t-190 78.5h-379l-29 -139h345q55 0 88 -19.5t35 -71.5h-488l-42 -200h163l12 61h491zM68 70q-7 -30 12.5 -50.5t55.5 -20.5q35 0 63 20.5t35 50.5q6 29 -13.5 49.5t-54.5 20.5q-36 0 -64 -20.5t-34 -49.5z" />
    <glyph glyph-name="FL0EEEh" unicode="@" horiz-adv-x="926" 
d="M541 391q-42 0 -59 -14t-22 -40l-17 -76q-3 -17 -4 -29.5t3.5 -21t17 -13t36.5 -4.5q28 0 45 4.5t26.5 14.5t14.5 26.5t11 41.5l4 33q3 16 4.5 30t-3 24.5t-17.5 17t-40 6.5zM707 248l29 5h-1q10 2 16 4t10 6t7 10.5t9 17.5l14 67q5 24 8.5 53.5t-2.5 55t-25.5 42.5
t-60.5 17h-268q-41 0 -67 -13.5t-42.5 -36t-26.5 -53.5t-17 -65l-25 -120q-6 -27 -11 -56t-1 -54t19.5 -41t50.5 -16h9q6 0 8 1h328l-29 -138h-370q-64 0 -101.5 31t-53.5 82.5t-13.5 117.5t17.5 137q15 69 42 133.5t64.5 114.5t85.5 80t105 30h379q49 0 84 -20.5t54.5 -57
t23.5 -87.5t-9 -112l-17 -82q-21 -46 -41.5 -79.5t-50 -55.5t-71.5 -33t-105 -13h2l-66 -13l2 1q-25 -11 -57.5 -15t-74.5 -4q-62 0 -96 12.5t-48.5 35.5t-14 56t7.5 75l13 60q9 42 22.5 74.5t38 55t65 34.5t103.5 12t100 -11t54.5 -32.5t18 -55t-8.5 -78.5z" />
    <glyph glyph-name="FL0041h" unicode="A" horiz-adv-x="730" 
d="M527 0h154l74 349q9 45 2 89t-29 79t-57.5 57t-83.5 22h-407l-127 -596h158l22 102h316zM498 462q31 0 51 -10t31.5 -26t16 -35t4.5 -37l-25 -120h-314l48 228h188z" />
    <glyph glyph-name="FL0042h" unicode="B" 
d="M308 457l-19 -91h330q-2 52 -35.5 71.5t-88.5 19.5h-187zM425 128q34 0 60.5 5t46.5 17t34.5 32t25.5 49h-332l-22 -103h187zM770 300q-18 -84 -50 -141t-75 -92.5t-95.5 -51t-111.5 -15.5h-385l127 596h379q139 0 189.5 -78.5t21.5 -217.5z" />
    <glyph glyph-name="FL0043h" unicode="C" horiz-adv-x="692" 
d="M643 0l29 136h-315q-116 0 -95 101l26 119q4 22 13.5 41.5t26 34t40.5 22.5t58 8h315l29 134h-369q-113 0 -184 -78.5t-100 -217.5q-15 -71 -14.5 -126.5t19.5 -94t58.5 -59t102.5 -20.5h360z" />
    <glyph glyph-name="FL0044h" unicode="D" 
d="M770 300q29 139 -21.5 217.5t-189.5 78.5h-379l-127 -596h385q59 0 111.5 15.5t95.5 51t75 92.5t50 141zM613 300q-11 -51 -26 -84.5t-36.5 -53t-52.5 -27t-73 -7.5h-187l70 329h187q34 0 60.5 -7t42.5 -24.5t20.5 -48t-5.5 -77.5z" />
    <glyph glyph-name="FL0045h" unicode="E" horiz-adv-x="692" 
d="M643 0h-360q-63 0 -102.5 20.5t-58.5 59t-19.5 94t14.5 126.5q29 139 100 217.5t184 78.5h369l-29 -134h-315q-64 0 -94.5 -27t-41.5 -69h431l-29 -136h-431q-15 -94 96 -94h315z" />
    <glyph glyph-name="FL0046h" unicode="F" horiz-adv-x="692" 
d="M261 231l-49 -231h-159l64 300q29 139 100 217.5t184 78.5h369l-29 -134h-315q-64 0 -94.5 -27t-41.5 -69h431l-29 -135h-431z" />
    <glyph glyph-name="FL0047h" unicode="G" 
d="M275 300q-11 -51 -10.5 -84.5t14 -53t40.5 -27t70 -7.5h187l21 98h-121l30 140h278l-78 -366h-384q-59 0 -105 15.5t-74.5 51t-36 92.5t10.5 141q29 139 113.5 217.5t224.5 78.5h377l-30 -139h-343q-34 0 -63.5 -7t-53 -24.5t-40.5 -48t-27 -77.5z" />
    <glyph glyph-name="FL0048h" unicode="H" horiz-adv-x="750" 
d="M701 0l127 596h-154l-49 -230h-335l49 230h-159l-127 -596h159l48 227h335l-48 -227h154z" />
    <glyph glyph-name="FL0049h" unicode="I" horiz-adv-x="686" 
d="M665 134h-217l70 328h217l29 134h-584l-29 -134h212l-70 -328h-212l-28 -134h584z" />
    <glyph glyph-name="FL004Ah" unicode="J" horiz-adv-x="692" 
d="M53 0l29 136h316q116 0 137 101l77 360h158l-63 -297q-15 -71 -39 -126.5t-59.5 -94t-84 -59t-111.5 -20.5h-360z" />
    <glyph glyph-name="FL004Bh" unicode="K" horiz-adv-x="727" 
d="M339 596h-159l-127 -596h159l46 218l256 -218h206l-321 302l449 295h-207l-349 -222z" />
    <glyph glyph-name="FL004Ch" unicode="L" horiz-adv-x="692" 
d="M643 0l29 136h-315q-116 0 -95 101l77 360h-159l-63 -297q-15 -71 -14.5 -126.5t19.5 -94t58.5 -59t102.5 -20.5h360z" />
    <glyph glyph-name="FL004Dh" unicode="M" horiz-adv-x="961" 
d="M401 1h162l98 461h26q48 0 78 -7.5t46.5 -20.5t20 -32t-0.5 -41l-77 -361h156l83 390q10 49 3 87t-38.5 64.5t-90.5 40.5t-151 14h-215q-92 0 -156.5 -14t-107 -40.5t-66.5 -64.5t-34 -87l-83 -390h155l77 361q4 22 16 41t33.5 32t55 20.5t81.5 7.5h27z" />
    <glyph glyph-name="FL004Eh" unicode="N" horiz-adv-x="750" 
d="M701 0l74 349q10 46 4 87.5t-30 80.5q-22 41 -58.5 60t-83.5 19h-427l-127 -596h159l98 462h208q40 0 62.5 -11t32.5 -29t10 -42t-6 -50l-70 -330h154z" />
    <glyph glyph-name="FL004Fh" unicode="O" horiz-adv-x="753" 
d="M473 0q64 0 112.5 20.5t84 59t59.5 94t39 126.5q29 139 -7.5 217.5t-150.5 78.5h-208q-114 0 -185 -78.5t-100 -217.5q-15 -71 -14.5 -126.5t19.5 -94t58.5 -59t103.5 -20.5h189zM621 356l-26 -119q-21 -101 -137 -101h-107q-110 0 -89 101l26 119q4 22 14 41.5t26.5 34
t40.5 22.5t58 8h100q34 0 54.5 -8t31 -22.5t11.5 -34t-3 -41.5z" />
    <glyph glyph-name="FL0DB9h" unicode="P" horiz-adv-x="731" 
d="M212 0l22 102h249q47 0 92 19t83 60q41 38 65 82t35 95h-1q7 43 1 81.5t-29 75.5q-21 41 -58 61t-84 20h-407l-127 -596h159zM451 236h-189l48 226h188q34 0 55 -10t32.5 -26.5t14.5 -37t0 -41.5q-17 -57 -50.5 -84t-98.5 -27z" />
    <glyph glyph-name="FL0051h" unicode="Q" horiz-adv-x="753" 
d="M284 0h205l41 -77l134 57l-34 65q53 37 86 101.5t52 154.5q15 70 13.5 125t-20.5 93t-56.5 58.5t-94.5 20.5h-208q-57 0 -103 -20.5t-81.5 -58.5t-60.5 -93t-40 -125q-15 -71 -14.5 -126.5t19.5 -94.5t58.5 -59.5t103.5 -20.5zM360 250l57 -113h-66q-111 0 -88 101
l25 119q5 23 14.5 42.5t26 33.5t40.5 22t58 8h100q34 0 54.5 -8t31 -22t12 -33.5t-3.5 -42.5l-25 -119q-9 -43 -33 -67l-73 140z" />
    <glyph glyph-name="FL0054h" unicode="R" horiz-adv-x="731" 
d="M212 0l22 102h189l54 -102h175l-68 126q20 9 38.5 23t36.5 31q41 38 64.5 82.5t34.5 95.5h-1q7 44 0.5 83t-28.5 76q-22 41 -58.5 60t-83.5 19h-407l-127 -596h159zM451 236h-189l48 226h188q34 0 54.5 -10.5t31 -27t12 -37.5t-1.5 -42q-9 -28 -20 -48.5t-27.5 -34
t-39.5 -20t-56 -6.5z" />
    <glyph glyph-name="FL0073h" unicode="S" 
d="M459 457q-55 0 -97 -19t-67 -69h489l-15 -73q-29 -139 -113.5 -217.5t-223.5 -78.5h-379l30 139h345q55 0 97 20.5t66 73.5h-488l14 67q29 139 113.5 217.5t224.5 78.5h378l-30 -139h-344z" />
    <glyph glyph-name="T" unicode="T" horiz-adv-x="686" 
d="M735 462l29 134h-584l-29 -134h212l-98 -462h155l98 462h217z" />
    <glyph glyph-name="FL0055h" unicode="U" horiz-adv-x="750" 
d="M180 596h155l-70 -330q-6 -26 -6 -50t9.5 -42t32 -29t62.5 -11h207l99 462h159l-127 -596h-426q-48 0 -84.5 19t-58.5 60q-46 76 -26 168z" />
    <glyph glyph-name="FL0056h" unicode="V" horiz-adv-x="763" 
d="M177 598l104 -598h215l349 598h-166l-256 -445l-80 445h-166z" />
    <glyph glyph-name="FL0057h" unicode="W" horiz-adv-x="958" 
d="M179 596h155l-70 -330q-5 -25 -6.5 -48.5t9.5 -42t37.5 -30t76.5 -11.5h72q-8 26 -7.5 54.5t7.5 58.5l74 349h155l-70 -330q-6 -26 -9 -50t3.5 -42t26 -29t58.5 -11h84l99 462h160l-127 -596h-632q-48 0 -85 19t-59 60q-24 39 -30 80.5t4 87.5z" />
    <glyph glyph-name="FL0058h" unicode="X" horiz-adv-x="693" 
d="M171 597l157 -300l-282 -297h170l173 182l96 -182h169l-157 297l284 301h-170l-173 -186l-97 185h-170z" />
    <glyph glyph-name="FL0059h" unicode="Y" 
d="M832 596h-162l-48 -226h-256q-60 12 -58 72l33 155h-161l-15 -72q-15 -70 -13.5 -125t22.5 -93t62.5 -58t106.5 -20v1h247q-24 -53 -65.5 -72t-96.5 -19h-203l-30 -139h237q139 0 223.5 78.5t113.5 217.5z" />
    <glyph glyph-name="FL005Ah" unicode="Z" horiz-adv-x="686" 
d="M736 467l28 129h-584l-29 -134h365l-436 -333l-27 -129h584l28 134h-366z" />
    <glyph glyph-name="FL005Bh" unicode="[" horiz-adv-x="441" 
d="M376 -66l29 137h-182l97 456h185l28 134h-341l-154 -728z" />
    <glyph glyph-name="FL005Ch" unicode="\" horiz-adv-x="438" 
d="M237 0l-62 596h157l62 -596h-157z" />
    <glyph glyph-name="FL005Dh" unicode="]" horiz-adv-x="441" 
d="M40 -66l29 137h182l97 456h-185l28 134h341l-154 -728z" />
    <glyph glyph-name="FL005Eh" unicode="^" horiz-adv-x="408" 
d="M445 369l-72 186h-102l-148 -186h116l65 84l28 -84h113z" />
    <glyph glyph-name="FL005Fh" unicode="_" horiz-adv-x="499" 
d="M44 71l-26 -123h446l26 123h-446z" />
    <glyph glyph-name="FL0060h" unicode="`" horiz-adv-x="272" 
d="M284 524q-5 9 -14.5 21.5t-22.5 12.5q-11 0 -23 -5t-23 -13h1q-3 0 -6 -3q-15 -11 -27 -21t-16 -25q-4 -21 4 -36l46 -68l-1 1q5 -11 15 -16t22 -5q11 0 22 3.5t24 13.5q14 11 21 21.5t11 27.5q5 20 -5 41z" />
    <glyph glyph-name="FL0061h" unicode="a" horiz-adv-x="730" 
d="M207 0l22 102h316l-22 -102h158l127 596h-407q-48 0 -93 -22t-82 -57t-63.5 -79t-35.5 -89l-74 -349h154zM432 462h188l-48 -228h-314l25 120q8 18 21 37t31 35t42 26t55 10z" />
    <glyph glyph-name="FL0063h" unicode="b" 
d="M308 457l-19 -91h330q-2 52 -35.5 71.5t-88.5 19.5h-187zM425 128q34 0 60.5 5t46.5 17t34.5 32t25.5 49h-332l-22 -103h187zM770 300q-18 -84 -50 -141t-75 -92.5t-95.5 -51t-111.5 -15.5h-385l127 596h379q139 0 189.5 -78.5t21.5 -217.5z" />
    <glyph glyph-name="c" unicode="c" horiz-adv-x="692" 
d="M643 0l29 136h-315q-116 0 -95 101l26 119q4 22 13.5 41.5t26 34t40.5 22.5t58 8h315l29 134h-369q-113 0 -184 -78.5t-100 -217.5q-15 -71 -14.5 -126.5t19.5 -94t58.5 -59t102.5 -20.5h360z" />
    <glyph glyph-name="d" unicode="d" 
d="M770 300q29 139 -21.5 217.5t-189.5 78.5h-379l-127 -596h385q59 0 111.5 15.5t95.5 51t75 92.5t50 141zM613 300q-11 -51 -26 -84.5t-36.5 -53t-52.5 -27t-73 -7.5h-187l70 329h187q34 0 60.5 -7t42.5 -24.5t20.5 -48t-5.5 -77.5z" />
    <glyph glyph-name="e" unicode="e" horiz-adv-x="692" 
d="M643 0h-360q-63 0 -102.5 20.5t-58.5 59t-19.5 94t14.5 126.5q29 139 100 217.5t184 78.5h369l-29 -134h-315q-64 0 -94.5 -27t-41.5 -68h348l-29 -135h-348q-8 -47 15.5 -71.5t80.5 -24.5h315z" />
    <glyph glyph-name="FL0066h" unicode="f" horiz-adv-x="692" 
d="M261 231l-49 -231h-159l64 300q29 139 100 217.5t184 78.5h369l-29 -134h-315q-64 0 -94.5 -27t-41.5 -68h348l-29 -136h-348z" />
    <glyph glyph-name="FL0067h" unicode="g" 
d="M275 300q10 47 27 77.5t40.5 48t53 24.5t63.5 7h343l30 139h-377q-140 0 -224.5 -78.5t-113.5 -217.5q-18 -84 -10.5 -141t36 -92.5t74.5 -51t105 -15.5h384l78 366h-157l-51 -238h-187q-43 0 -70 7.5t-40.5 27t-14 53t10.5 84.5z" />
    <glyph glyph-name="FL0068h" unicode="h" horiz-adv-x="750" 
d="M701 0l127 596h-154l-49 -230h-335l49 230h-159l-127 -596h159l48 227h335l-48 -227h154z" />
    <glyph glyph-name="i" unicode="i" horiz-adv-x="250" 
d="M201 0l127 596h-153l-127 -596h153z" />
    <glyph glyph-name="FL006Ah" unicode="j" horiz-adv-x="692" 
d="M53 0l29 136h316q116 0 137 101l77 360h158l-63 -297q-15 -71 -39 -126.5t-59.5 -94t-84 -59t-111.5 -20.5h-360z" />
    <glyph glyph-name="FL006Bh" unicode="k" horiz-adv-x="727" 
d="M339 596h-159l-127 -596h159l48 226h150l131 -226h170l-157 297l285 300h-171l-225 -231h-153z" />
    <glyph glyph-name="FL006Ch" unicode="l" horiz-adv-x="692" 
d="M643 0l29 136h-315q-116 0 -95 101l77 360h-159l-63 -297q-15 -71 -14.5 -126.5t19.5 -94t58.5 -59t102.5 -20.5h360z" />
    <glyph glyph-name="FL006Dh" unicode="m" horiz-adv-x="958" 
d="M908 0h-156l70 330q5 25 6.5 48.5t-9.5 42t-37.5 30t-76.5 11.5h-71q8 -27 7 -55.5t-7 -57.5l-74 -349h-155l70 330q6 26 8 50t-4.5 42t-26 29t-57.5 11h-84l-98 -462h-160l127 596h632q48 0 84 -19t59 -60q47 -76 27 -168z" />
    <glyph glyph-name="n" unicode="n" horiz-adv-x="730" 
d="M681 0l74 349q10 46 4 87.5t-30 80.5q-22 41 -58.5 60t-83.5 19h-407l-127 -596h159l98 462h188q40 0 62.5 -11t32.5 -29t10 -42t-6 -50l-70 -330h154z" />
    <glyph glyph-name="FL006Fh" unicode="o" horiz-adv-x="750" 
d="M476 464q-94 0 -137.5 -24.5t-52.5 -69.5l-29 -135q-5 -23 -1.5 -42t19.5 -32t46 -20t78 -7q54 0 88.5 5.5t56 17.5t32.5 32.5t17 50.5l28 130q4 19 2 36.5t-16.5 30t-45.5 20t-85 7.5zM744 206q-11 -52 -35.5 -90.5t-68 -64t-109.5 -38.5t-160 -13q-92 0 -150 13.5
t-89 40t-38.5 64t2.5 85.5l41 191q10 48 34.5 86t68 64.5t108 40t156.5 13.5q94 0 153.5 -12.5t91.5 -37t39 -62.5t-4 -89z" />
    <glyph glyph-name="FL0070h" unicode="p" horiz-adv-x="731" 
d="M212 0l22 102h249q47 0 92 19t83 60q41 38 65 82t35 95h-1q7 43 1 81.5t-29 75.5q-21 41 -58 61t-84 20h-407l-127 -596h159zM451 236h-189l48 226h188q34 0 55 -10t32.5 -26.5t14.5 -37t0 -41.5q-17 -57 -50.5 -84t-98.5 -27z" />
    <glyph glyph-name="FL0071h" unicode="q" horiz-adv-x="750" 
d="M418 134l-62 121h160l46 -86q11 12 18.5 29.5t12.5 42.5l28 130q4 19 2 36.5t-16.5 30.5t-45.5 20.5t-85 7.5q-94 0 -137.5 -25t-52.5 -70l-29 -135q-5 -23 -1.5 -42t19.5 -32.5t46 -20.5t78 -7h19zM744 207q-12 -57 -39 -96.5t-76 -65.5l55 -102h-163l-36 62
q-26 -2 -54 -3.5t-60 -1.5q-92 0 -150 14t-89 40t-38.5 64t2.5 86l41 191q10 49 34.5 87t68 64t108.5 40t157 14q94 0 153.5 -12.5t91.5 -37.5t39 -63t-4 -89z" />
    <glyph glyph-name="FL0072h" unicode="r" horiz-adv-x="731" 
d="M212 0l22 102h189l54 -102h175l-68 126q20 9 38.5 23t36.5 31q41 38 64.5 82.5t34.5 95.5h-1q7 44 0.5 83t-28.5 76q-22 41 -58.5 60t-83.5 19h-407l-127 -596h159zM451 236h-189l48 226h188q34 0 54.5 -10.5t31 -27t12 -37.5t-1.5 -42q-9 -28 -20 -48.5t-27.5 -34
t-39.5 -20t-56 -6.5z" />
    <glyph glyph-name="FL0053h" unicode="s" 
d="M459 457q-55 0 -97 -19t-67 -69h489l-15 -73q-29 -139 -113.5 -217.5t-223.5 -78.5h-378l30 139h344q55 0 97 20.5t66 73.5h-488l14 67q29 139 113.5 217.5t224.5 78.5h233l-30 -139h-199z" />
    <glyph glyph-name="t" unicode="t" horiz-adv-x="686" 
d="M735 462l29 134h-584l-29 -134h212l-98 -462h155l98 462h217z" />
    <glyph glyph-name="u" unicode="u" horiz-adv-x="750" 
d="M828 596l-83 -390q-11 -52 -35.5 -90.5t-68 -64t-109.5 -38.5t-160 -13q-92 0 -150.5 14t-89.5 40.5t-38.5 64.5t3.5 87l83 390h155l-77 -361q-5 -23 -1.5 -42t19.5 -32t46 -20t78 -7q54 0 88.5 5.5t55.5 17.5t32 32.5t17 50.5l76 356h159z" />
    <glyph glyph-name="FL0076h" unicode="v" horiz-adv-x="715" 
d="M820 598h-167l-263 -445l-73 445h-166l99 -598h216z" />
    <glyph glyph-name="FL0077h" unicode="w" horiz-adv-x="961" 
d="M259 235q-5 -23 -1 -41.5t20 -31.5t46 -20.5t78 -7.5h27l98 461h162l-98 -461h26q48 0 81.5 7.5t55 20.5t33.5 31.5t17 41.5l77 361h156l-83 -390q-11 -49 -34.5 -87t-66.5 -64.5t-107.5 -40.5t-156.5 -14h-215q-92 0 -150.5 14t-90 40.5t-39 64.5t3.5 87l83 390h155z
" />
    <glyph glyph-name="FL0078h" unicode="x" horiz-adv-x="645" 
d="M146 597l158 -300l-282 -297h170l173 182l95 -182h170l-157 297l284 301h-171l-172 -186l-97 185h-171z" />
    <glyph glyph-name="FL0079h" unicode="y" 
d="M832 596l-63 -300q-29 -139 -113.5 -217.5t-223.5 -78.5h-237l30 139h203q55 0 96.5 19t65.5 72h-267q-64 2 -103 19.5t-57.5 49.5t-18.5 79q0 48 13 110l23 109h161l-33 -157q-6 -30 7.5 -49t49.5 -21h257l48 226h162z" />
    <glyph glyph-name="FL007Ah" unicode="z" horiz-adv-x="686" 
d="M736 467l28 129h-584l-29 -134h365l-436 -333l-27 -129h584l28 134h-366z" />
    <glyph glyph-name="FL007Bh" unicode="{" horiz-adv-x="418" 
d="M370 0l29 136h-51q-113 0 -92 101l26 119q9 45 39 75.5t96 30.5h51l29 134h-104q-110 0 -179 -78.5t-98 -217.5q-15 -71 -15 -127q0 -55 18 -93.5t56.5 -59t100.5 -20.5h94z" />
    <glyph glyph-name="FL007Ch" unicode="|" horiz-adv-x="238" 
d="M165 -120l179 842h-143l-179 -842h143z" />
    <glyph glyph-name="FL007Dh" unicode="}" horiz-adv-x="418" 
d="M52 0l29 136h51q112 0 133 101l26 119q4 22 3 41.5t-11 34t-29.5 22.5t-52.5 8h-51l29 134h103q110 0 145.5 -78.5t6.5 -217.5q-15 -71 -39 -126.5t-58.5 -94t-82 -59t-108.5 -20.5h-94z" />
    <glyph glyph-name="FL007Eh" unicode="~" horiz-adv-x="466" 
d="M209 360l-148 -170h118l62 74l35 -75h103l146 170h-118l-62 -74l-33 75h-103z" />
    <glyph glyph-name="FL007Fh" horiz-adv-x="202" 
 />
    <glyph glyph-name="FL00A1h" unicode="&#xa1;" horiz-adv-x="245" 
d="M50 -1h147l91 429h-147zM310 522q6 30 -11 50.5t-49 20.5q-33 0 -59 -20.5t-32 -50.5q-6 -29 11 -49.5t50 -20.5q32 0 58 20.5t32 49.5z" />
    <glyph glyph-name="FL00A2h" unicode="&#xa2;" horiz-adv-x="693" 
d="M478 0l11 51h166l29 137h-166l48 226h165l29 135h-165l10 47h-159l-10 -47h-45q-57 0 -102 -17.5t-79 -49t-56.5 -75t-33.5 -94.5l-1 -2q-15 -71 -11 -120.5t26.5 -80.5t63 -45t97.5 -14h35l-11 -51h159zM274 288l8 36q8 38 37.5 63t87.5 27l-48 -226q-104 4 -85 100z
" />
    <glyph glyph-name="FL00A3h" unicode="&#xa3;" horiz-adv-x="730" 
d="M142 0l47 223h-89l30 140h92q35 111 101 172t167 61h149l-29 -134h-94q-32 0 -55.5 -7.5t-40 -20.5t-26.5 -30.5t-15 -37.5h211l-31 -143h-211l-18 -86h380l-29 -137h-539z" />
    <glyph glyph-name="FL00A4h" unicode="&#xa4;" horiz-adv-x="645" 
d="M563 231l25 119q9 39 0 69l169 179h-171l-115 -123h-90l-64 122h-171l97 -184q-11 -14 -16.5 -29.5t-9.5 -33.5l-25 -119q-4 -17 -4.5 -30.5t1.5 -24.5l-167 -176h170l106 111h104l58 -111h170l-92 171q17 24 25 60zM460 317l-10 -51q-9 -38 -55 -38h-47q-44 0 -35 38
l10 51q4 17 16.5 28t39.5 11h44q26 0 33.5 -11t3.5 -28z" />
    <glyph glyph-name="FL00A5h" unicode="&#xa5;" horiz-adv-x="645" 
d="M170 188h116l3 13h-116l29 140h79l-135 256h171l97 -185l172 186h171l-243 -257h73l-29 -140h-111l-3 -13h111l-30 -140h-111l-10 -48h-158l10 48h-116z" />
    <glyph glyph-name="FLE004h" unicode="&#xa6;" horiz-adv-x="750" 
d="M260 242h333l25 114q6 30 4 50.5t-17.5 32.5t-48 17.5t-86.5 5.5q-47 0 -80 -7t-54.5 -19.5t-33 -31t-16.5 -40.5zM702 0h-160l22 103h-333l-22 -103h-156l83 390q10 49 34 87t66.5 64.5t106.5 40.5t156 14q94 0 155 -13t93.5 -38.5t40.5 -64t-3 -90.5z" />
    <glyph glyph-name="FL00B0h" unicode="&#xa7;" 
d="M459 457q-55 0 -97 -19t-67 -69h489l-15 -73q-29 -139 -113.5 -217.5t-223.5 -78.5h-235l30 139h201q55 0 96.5 19t65.5 72h-488l15 70q29 139 113.5 217.5t224.5 78.5h233l-30 -139h-199z" />
    <glyph glyph-name="FL00A8h" unicode="&#xa8;" horiz-adv-x="452" 
d="M341 468q-5 -27 14 -45t54 -18t62 18t32 45q6 26 -13 44.5t-54 18.5t-62 -18.5t-33 -44.5zM151 468q-5 -27 13.5 -45t53.5 -18t62.5 18t32.5 45q6 26 -13.5 44.5t-54.5 18.5t-61.5 -18.5t-32.5 -44.5z" />
    <glyph glyph-name="FL00A9h" unicode="&#xa9;" horiz-adv-x="423" 
d="M456 382l20 93q6 26 2.5 45.5t-19.5 32t-45.5 18.5t-76.5 6t-79.5 -7t-54 -20.5t-33.5 -32.5t-17 -44l-20 -92q-5 -24 -1.5 -43t19 -32.5t44.5 -20.5t74 -7q47 0 80 6.5t55 19.5t34 32.5t18 45.5zM394 463l-14 -67q-3 -14 -7.5 -23t-13.5 -16l8 40h-81q-20 0 -17 16l6 27
q2 16 24 16h81l8 38q6 -6 7 -14.5t-1 -16.5zM322 508q32 0 51 -7h-79q-30 0 -48 -19.5t-26 -54.5t2 -55t44 -20h82q-20 -7 -65 -7q-48 0 -62 13t-9 36l14 69q5 21 26.5 33t69.5 12z" />
    <glyph glyph-name="FLE003h" unicode="&#xaa;" horiz-adv-x="730" 
d="M432 462q-32 0 -56.5 -7.5t-41.5 -20.5t-28.5 -30.5t-18.5 -37.5h313l20 96h-188zM522 0l48 227h-315l-48 -227h-154l74 349q9 45 35.5 89t63.5 79t82 57t93 22h407l-127 -596h-159z" />
    <glyph glyph-name="FL00ABh" unicode="&#xab;" horiz-adv-x="524" 
d="M343 447l-220 -112l-21 -102l173 -108l24 115l-79 47l99 46zM570 447l-221 -112l-21 -102l174 -108l24 115l-79 47l99 46z" />
    <glyph glyph-name="FL00ADh" unicode="&#xac;" horiz-adv-x="549" 
d="M128 353l-28 -133h311l-33 -152h137l61 285h-448z" />
    <glyph glyph-name="FL00AEh" unicode="&#xad;" horiz-adv-x="396" 
d="M95 201h297l26 124h-297z" />
    <glyph glyph-name="FL00B8h" unicode="&#xae;" horiz-adv-x="423" 
d="M456 382l20 93q6 26 2.5 45.5t-19.5 32t-45.5 18.5t-76.5 6t-79.5 -7t-54 -20.5t-33.5 -32.5t-17 -44l-20 -92q-5 -24 -1.5 -43t19 -32.5t44.5 -20.5t74 -7q47 0 80 6.5t55 19.5t34 32.5t18 45.5zM394 463l-14 -67q-3 -15 -8.5 -24.5t-16 -15.5t-28 -8.5t-44.5 -2.5
q-46 0 -62 13h36l18 82q2 16 24 16h81l8 38q6 -6 7 -14.5t-1 -16.5zM322 508q32 0 51 -7h-79q-30 0 -48 -19.5t-26 -54.5l-10 -45q0 4 2 12l14 69q5 21 26.5 33t69.5 12z" />
    <glyph glyph-name="FL00AFh" unicode="&#xaf;" horiz-adv-x="499" 
d="M153 585l-26 -123h446l26 123h-446z" />
    <glyph glyph-name="FL0040h" unicode="&#xb0;" horiz-adv-x="692" 
d="M180 596l-29 -136h316q117 0 94 -101l-76 -360h158l63 297q15 70 14.5 126t-19.5 94.5t-58.5 59t-102.5 20.5h-360z" />
    <glyph glyph-name="FL00B1h" unicode="&#xb1;" horiz-adv-x="547" 
d="M312 498l-17 -91h-155l-30 -138h153l-19 -89h139l19 89h154l30 138h-156l19 91h-137zM529 137h-446l-29 -137h446z" />
    <glyph glyph-name="FL00B2h" unicode="&#xb2;" horiz-adv-x="426" 
d="M222 389l-7 -33h239l-17 -77h-326l40 187h235q-2 20 -18 27t-39 7h-171l17 77h188q71 0 96 -39.5t10 -108.5l-8 -40h-239z" />
    <glyph glyph-name="FL00B3h" unicode="&#xb3;" horiz-adv-x="394" 
d="M111 279l16 75h157q46 0 58 35h-207l16 77h207q3 16 -6.5 26t-35.5 10h-157l16 75h183q58 0 76.5 -39.5t3.5 -108.5q-15 -71 -49.5 -110.5t-99.5 -39.5h-178z" />
    <glyph glyph-name="FL00B4h" unicode="&#xb4;" horiz-adv-x="272" 
d="M212 524q9 9 24.5 21.5t28.5 12.5q12 0 21.5 -5t17.5 -13h-1q1 0 1.5 -1t2.5 -2q11 -11 18.5 -21t3.5 -25q-5 -21 -18 -36l-75 -68v1q-18 -21 -44 -21q-11 0 -20.5 3.5t-17.5 13.5q-10 11 -13.5 21.5t0.5 27.5q5 19 24 41z" />
    <glyph glyph-name="FL00B5h" unicode="&#xb5;" 
d="M180 596h162l-48 -226h257q32 6 54 24.5t33 47.5l33 155h161l-15 -72q-15 -70 -40 -125t-61.5 -93t-86.5 -58t-115 -20v1h-249q1 -26 10.5 -43.5t26 -28t39.5 -15t50 -4.5h203l-30 -139h-237q-70 0 -117 20t-73 58.5t-31.5 93.5t9.5 124z" />
    <glyph glyph-name="FL00B6h" unicode="&#xb6;" horiz-adv-x="731" 
d="M681 0l127 596h-407q-47 0 -92 -19t-84 -60q-75 -74 -96 -159h-1q-11 -51 -5.5 -95.5t28.5 -82.5q25 -38 57 -57l-26 -123h148l98 462h192l-98 -462h159z" />
    <glyph glyph-name="FL00B7h" unicode="&#xb7;" horiz-adv-x="245" 
d="M105 263q-6 -26 11.5 -44.5t50.5 -18.5q32 0 57.5 18.5t31.5 44.5q6 27 -12.5 45t-50.5 18q-33 0 -57.5 -18t-30.5 -45z" />
    <glyph glyph-name="FL00ACh" unicode="&#xb8;" 
d="M149 457l30 139h379q139 0 189.5 -78.5t21.5 -217.5l-15 -70h-489q1 -26 10.5 -43.5t26 -28t39.5 -15t50 -4.5h344l-30 -139h-378q-70 0 -117 20t-73 58.5t-31.5 93.5t9.5 124l15 73h488q-5 50 -37 69t-87 19h-345z" />
    <glyph glyph-name="FL00B9h" unicode="&#xb9;" horiz-adv-x="198" 
d="M168 576l-15 -74h30l-48 -224h77l63 298h-107z" />
    <glyph glyph-name="FL00BAh" unicode="&#xba;" horiz-adv-x="423" 
d="M456 381l20 93q6 26 2 45.5t-19.5 32t-45.5 18.5t-77 6t-79.5 -7t-54 -20.5t-33.5 -32.5t-17 -44l-19 -91q-5 -24 -1.5 -43.5t19 -33t44.5 -20.5t74 -7q47 0 80 6.5t55 19.5t34 32.5t18 45.5zM321 502q24 0 38 -3t21 -8.5t8 -13t-1 -16.5l-13 -63q-3 -13 -8 -22
t-14.5 -14.5t-25.5 -8t-41 -2.5q-43 0 -56.5 12t-8.5 33l14 65q4 19 23.5 30t63.5 11z" />
    <glyph glyph-name="FL00BBh" unicode="&#xbb;" horiz-adv-x="524" 
d="M374 447l173 -112l-21 -102l-220 -108l24 115l99 47l-79 46zM148 447l172 -112l-21 -102l-219 -108l24 115l98 47l-78 46z" />
    <glyph glyph-name="FL0050h" unicode="&#xbc;" horiz-adv-x="730" 
d="M729 227l26 122q8 45 1 89t-29 79t-57 57t-83 22h-407l-127 -596h159l48 227h469zM498 462q33 0 54 -7.5t33 -20.5t15.5 -30.5t2.5 -37.5h-313l20 96h188z" />
    <glyph glyph-name="FL00BDh" unicode="&#xbd;" horiz-adv-x="855" 
d="M259 0l319 300l-16 -72h177q25 0 41 -7.5t19 -27.5h-244l-41 -193h337l17 79h-246l7 34h246l9 42q15 72 -11.5 112.5t-98.5 40.5h-188l307 288h-161l-639 -596h166zM283 596l-16 -76h40l-50 -232h101l66 308h-141z" />
    <glyph glyph-name="FL0052h" unicode="&#xbe;" horiz-adv-x="730" 
d="M729 227l26 122q9 45 2 89t-29 79t-57.5 57t-83.5 22h-407l-127 -596h159l48 227h116l118 -227h180l-121 227h176zM498 462q33 0 54 -7.5t33 -20.5t15.5 -30.5t2.5 -37.5h-313l20 96h188z" />
    <glyph glyph-name="FL00BFh" unicode="&#xbf;" horiz-adv-x="757" 
d="M114 294q-15 -69 -9.5 -124t31.5 -93.5t73.5 -58.5t117.5 -20h378l29 139h-344q-27 0 -49.5 4.5t-39 15t-26.5 28t-11 43.5h489l43 200h-161l-14 -61h-491zM818 522q6 30 -13 50.5t-54 20.5q-36 0 -64.5 -20.5t-34.5 -50.5q-6 -29 13.5 -49.5t55.5 -20.5q35 0 63 20.5
t34 49.5z" />
    <glyph glyph-name="FL00C0h" unicode="&#xc0;" horiz-adv-x="730" 
d="M207 0l49 230h315l-49 -230h159l128 602h-407q-48 0 -93 -22t-82 -57.5t-63 -80t-36 -89.5l-75 -353h154zM433 466h188l-20 -96h-313q7 20 18.5 37.5t28.5 30.5t41.5 20.5t56.5 7.5zM586 836q-6 10 -16.5 23t-24.5 13q-23 0 -50 -19q-5 -3 -8 -6t-8 -6q-12 -9 -22 -18.5
t-13 -22.5q-5 -25 4 -38l50 -74l-1 1q11 -23 39 -23q24 0 49 18q16 13 24 24.5t12 28.5q4 20 -6 45z" />
    <glyph glyph-name="FL00C1h" unicode="&#xc1;" horiz-adv-x="730" 
d="M207 0l49 230h315l-49 -230h159l128 602h-407q-48 0 -93 -22t-82 -57.5t-63 -80t-36 -89.5l-75 -353h154zM433 466h188l-20 -96h-313q7 20 18.5 37.5t28.5 30.5t41.5 20.5t56.5 7.5zM496 781q-22 -24 -26 -45q-3 -17 0 -28.5t13 -24.5q18 -18 42 -18q28 0 48 23l-1 -1
l81 74q17 17 21 38q2 13 -3.5 22.5t-13.5 18.5q-4 3 -6.5 6t-5.5 6q-16 19 -41 19q-14 0 -30.5 -13t-26.5 -23z" />
    <glyph glyph-name="FL00C2h" unicode="&#xc2;" horiz-adv-x="730" 
d="M207 0l49 230h315l-49 -230h159l128 602h-407q-48 0 -93 -22t-82 -57.5t-63 -80t-36 -89.5l-75 -353h154zM701 664l-72 201h-106l-154 -201h119l67 91l29 -91h117zM433 466h188l-21 -97h-313q7 20 18.5 38t29 31t42 20.5t56.5 7.5z" />
    <glyph glyph-name="FL00C3h" unicode="&#xc3;" horiz-adv-x="730" 
d="M207 0l49 230h315l-49 -230h159l128 602h-407q-48 0 -93 -22t-82 -57.5t-63 -80t-36 -89.5l-75 -353h154zM475 842l-152 -178h120l62 76l36 -77h104l151 178h-120l-64 -78l-34 79h-103zM433 466h188l-21 -97h-313q7 20 18.5 38t29 31t42 20.5t56.5 7.5z" />
    <glyph glyph-name="FL00C4h" unicode="&#xc4;" horiz-adv-x="730" 
d="M207 0l49 229h315l-49 -229h159l128 601h-407q-48 0 -93 -22t-82 -57.5t-63.5 -80t-35.5 -89.5l-75 -352h154zM433 465h188l-21 -96h-313q7 20 18.5 37.5t29 30.5t42 20.5t56.5 7.5zM542 723q-7 -30 12.5 -50.5t54.5 -20.5q36 0 63.5 20.5t34.5 50.5q6 30 -13 50.5
t-55 20.5q-35 0 -63 -20.5t-34 -50.5zM347 723q-7 -30 12.5 -50.5t54.5 -20.5q36 0 64 20.5t35 50.5q6 30 -13.5 50.5t-55.5 20.5q-35 0 -63 -20.5t-34 -50.5z" />
    <glyph glyph-name="FL00C5h" unicode="&#xc5;" horiz-adv-x="730" 
d="M207 0l49 229h315l-49 -229h159l128 601h-407q-48 0 -93 -22t-82 -57.5t-63.5 -80t-35.5 -89.5l-75 -352h154zM433 465h188l-21 -96h-313q7 20 18.5 37.5t29 30.5t42 20.5t56.5 7.5zM444 722q-6 -30 13 -50.5t54 -20.5q36 0 64 20.5t34 50.5q7 30 -12 50.5t-55 20.5
q-35 0 -63 -20.5t-35 -50.5z" />
    <glyph glyph-name="FL00C6h" unicode="&#xc6;" horiz-adv-x="1177" 
d="M210 0l22 102h320l-22 -102h598l29 136h-320q-112 0 -99 91h354l30 140h-354q5 20 15 37.5t26.5 30t40.5 20t56 7.5h320l29 134h-850q-48 0 -94 -22t-83.5 -57t-64 -79t-35.5 -89l-74 -349h156zM437 462h190l-48 -228h-318l25 121q6 22 17.5 41.5t29.5 34t43.5 23
t60.5 8.5z" />
    <glyph glyph-name="FL00C7h" unicode="&#xc7;" horiz-adv-x="692" 
d="M166 -165h88q103 0 164.5 37.5t96.5 127.5h128l29 137h-315q-115 0 -94 102l25 120q5 22 14.5 41.5t26 34t40.5 22.5t58 8h315l29 135h-369q-57 0 -103 -20.5t-81.5 -59t-60.5 -93.5t-40 -125q-15 -71 -14.5 -127t19.5 -95t58.5 -59.5t102.5 -20.5h76
q-13 -20 -35.5 -23.5t-58.5 -3.5h-70z" />
    <glyph glyph-name="FL00C8h" unicode="&#xc8;" horiz-adv-x="692" 
d="M643 0l29 138h-315q-109 0 -96 92h430l30 141h-430q11 41 41.5 68t94.5 27h315l29 136h-369q-113 0 -184 -79.5t-101 -219.5q-15 -71 -14.5 -127.5t19.5 -95.5t58.5 -59.5t102.5 -20.5h360zM576 836q-6 10 -17 23t-25 13q-24 0 -49 -19q-5 -3 -8 -6t-8 -6
q-12 -9 -22 -18.5t-13 -22.5q-5 -25 4 -38l49 -74l-1 1q12 -23 40 -23q24 0 48 18q17 13 25 24.5t12 28.5q4 21 -7 45z" />
    <glyph glyph-name="FL00C9h" unicode="&#xc9;" horiz-adv-x="692" 
d="M643 0l29 138h-315q-109 0 -96 92h432l30 142h-432q11 40 41.5 67t94.5 27h315l29 136h-369q-113 0 -184 -79.5t-101 -219.5q-15 -71 -14.5 -127.5t19.5 -95.5t58.5 -59.5t102.5 -20.5h360zM503 783q-21 -25 -25 -45q-4 -17 -1 -28.5t14 -24.5q18 -18 42 -18q27 0 48 23
l-2 -1l81 74q16 15 21 38q3 13 -3 22.5t-14 18.5q-3 3 -5.5 6t-5.5 6q-17 19 -41 19q-14 0 -30.5 -13t-26.5 -23z" />
    <glyph glyph-name="FL00CAh" unicode="&#xca;" horiz-adv-x="692" 
d="M643 0l29 138h-315q-109 0 -96 92h431l30 141h-431q11 41 41.5 68t94.5 27h315l29 136h-369q-113 0 -184 -79.5t-101 -219.5q-15 -71 -14.5 -127.5t19.5 -95.5t58.5 -59.5t102.5 -20.5h360zM684 663l-72 201h-106l-154 -201h119l67 91l29 -91h117z" />
    <glyph glyph-name="FL00CBh" unicode="&#xcb;" horiz-adv-x="692" 
d="M643 0l29 138h-315q-109 0 -96 91h432l29 140h-432q11 41 42 68.5t95 27.5h315l29 136h-369q-113 0 -184 -79.5t-101 -219.5q-15 -71 -14.5 -127t19.5 -95t58.5 -59.5t102.5 -20.5h360zM359 722q-6 -30 13 -50.5t54 -20.5q36 0 64 20.5t34 50.5q7 30 -12 50.5t-55 20.5
q-35 0 -63 -20.5t-35 -50.5zM553 722q-6 -30 13 -50.5t55 -20.5q35 0 63.5 20.5t34.5 50.5q7 30 -12.5 50.5t-54.5 20.5q-36 0 -64 -20.5t-35 -50.5z" />
    <glyph glyph-name="FL00CCh" unicode="&#xcc;" horiz-adv-x="686" 
d="M580 784q9 -26 5 -45q-4 -17 -11.5 -28.5t-23.5 -24.5q-25 -18 -49 -18q-27 0 -39 23l1 -1l-51 74q-8 14 -3 38q3 13 13 22.5t22 18.5q5 3 8.5 6t7.5 6q25 19 50 19q14 0 24.5 -13t15.5 -23zM82 136h218l70 330h-218l29 136h584l-29 -136h-212l-70 -330h212l-29 -136
h-584z" />
    <glyph glyph-name="FL00CDh" unicode="&#xcd;" horiz-adv-x="686" 
d="M666 136h-217l70 330h217l29 136h-584l-29 -136h212l-70 -330h-212l-29 -136h584zM444 784q-21 -25 -25 -45q-4 -17 -1 -28.5t14 -24.5q18 -18 42 -18q28 0 48 23l-1 -1l80 74q16 15 21 38q3 13 -3 22.5t-15 18.5q-6 8 -10 12q-19 19 -42 19q-14 0 -30 -13t-26 -23z" />
    <glyph glyph-name="FL00EEh" unicode="&#xce;" horiz-adv-x="686" 
d="M666 136h-217l70 330h217l29 136h-584l-29 -136h212l-70 -330h-212l-29 -136h584zM652 666l-74 201h-105l-153 -201h119l67 91l29 -91h117z" />
    <glyph glyph-name="FL00CFh" unicode="&#xcf;" horiz-adv-x="686" 
d="M666 136h-217l70 329h217l29 136h-584l-29 -136h212l-70 -329h-212l-29 -136h584zM317 724q-7 -30 12.5 -50.5t55.5 -20.5q35 0 63 20.5t35 50.5q6 30 -13.5 50.5t-54.5 20.5q-36 0 -64 -20.5t-34 -50.5zM512 724q-7 -30 12.5 -50.5t54.5 -20.5t63 20.5t35 50.5
q6 30 -13.5 50.5t-54.5 20.5t-63 -20.5t-34 -50.5z" />
    <glyph glyph-name="FL00AAh" unicode="&#xd0;" horiz-adv-x="731" 
d="M261 249q-3 -22 -0.5 -42.5t13.5 -36.5t32 -26t56 -10h188l49 226h-189q-66 0 -99 -27t-50 -84zM202 415q40 41 84.5 60t91.5 19h249l22 102h159l-127 -596h-407q-47 0 -83.5 20t-59.5 61q-44 70 -27 157h-1q21 102 99 177z" />
    <glyph glyph-name="FL00D1h" unicode="&#xd1;" horiz-adv-x="750" 
d="M701 0l75 353q10 46 4 88t-30 81q-22 41 -58.5 60.5t-83.5 19.5h-427l-128 -602h159l99 466h208q40 0 62.5 -11t32.5 -29.5t10 -42.5t-6 -50l-71 -333h154zM459 841l-151 -178h120l62 76l36 -77h104l151 178h-120l-64 -78l-34 79h-104z" />
    <glyph glyph-name="FL00D2h" unicode="&#xd2;" horiz-adv-x="749" 
d="M744 208l40 189q11 51 3.5 89.5t-40.5 64t-93 38.5t-154 13q-92 0 -156 -14t-106.5 -41t-66.5 -65.5t-34 -87.5l-40 -189q-11 -48 -3.5 -86.5t38.5 -64.5t89 -40t150 -14q94 0 160 13t109.5 38.5t68 64.5t35.5 92zM471 467q54 0 86.5 -5.5t48 -18t17.5 -33t-4 -50.5
l-26 -118q-6 -30 -17 -50.5t-32 -33t-55.5 -18t-88.5 -5.5q-48 0 -78 7t-46 20.5t-19.5 32.5t1.5 43l28 132q4 22 16 40t34 30.5t55 19.5t80 7zM586 836q-5 10 -16 23t-25 13q-23 0 -50 -19q-5 -3 -7.5 -6t-7.5 -6q-13 -9 -22.5 -18.5t-12.5 -22.5q-5 -26 3 -38l50 -74l-1 1
q12 -23 40 -23q24 0 48 18q17 13 25 24.5t12 28.5q4 21 -7 45z" />
    <glyph glyph-name="FL00D3h" unicode="&#xd3;" horiz-adv-x="749" 
d="M744 208l40 189q11 51 3.5 89.5t-40.5 64t-93 38.5t-154 13q-92 0 -156 -14t-106.5 -41t-66.5 -65.5t-34 -87.5l-40 -189q-11 -48 -3.5 -86.5t38.5 -64.5t89 -40t150 -14q94 0 160 13t109.5 38.5t68 64.5t35.5 92zM471 467q54 0 86.5 -5.5t48 -18t17.5 -33t-4 -50.5
l-26 -118q-6 -30 -17 -50.5t-32 -33t-55.5 -18t-88.5 -5.5q-48 0 -78 7t-46 20.5t-19.5 32.5t1.5 43l28 132q4 22 16 40t34 30.5t55 19.5t80 7zM472 782q-21 -25 -25 -45q-4 -17 -1 -28.5t13 -24.5q19 -18 43 -18q27 0 48 23l-1 -1l81 74q16 17 20 38q3 13 -3 22.5t-14 18.5
l-12 12q-16 19 -41 19q-14 0 -30.5 -13t-25.5 -23z" />
    <glyph glyph-name="FL00D4h" unicode="&#xd4;" horiz-adv-x="749" 
d="M744 208l40 189q11 51 3.5 89.5t-40.5 64t-93 38.5t-154 13q-92 0 -156 -14t-106.5 -41t-66.5 -65.5t-34 -87.5l-40 -189q-11 -48 -3.5 -86.5t38.5 -64.5t89 -40t150 -14q94 0 160 13t109.5 38.5t68 64.5t35.5 92zM471 467q54 0 86.5 -5.5t48 -18t17.5 -33t-4 -50.5
l-26 -118q-6 -30 -17 -50.5t-32 -33t-55.5 -18t-88.5 -5.5q-48 0 -78 7t-46 20.5t-19.5 32.5t1.5 43l27 131q5 22 17 40.5t34 31t55 19.5t80 7zM683 666l-73 201h-106l-153 -201h119l67 91l29 -91h117z" />
    <glyph glyph-name="FL00D5h" unicode="&#xd5;" horiz-adv-x="749" 
d="M744 208l40 189q11 51 3 89.5t-40.5 64t-92.5 38.5t-154 13q-92 0 -156 -14t-106.5 -41t-66.5 -65.5t-34 -87.5l-40 -189q-11 -48 -3.5 -86.5t38.5 -64.5t89 -40t150 -14q94 0 160 13t109.5 38.5t68 64.5t35.5 92zM471 467q54 0 86 -5.5t48 -18t18 -33t-5 -51.5l-25 -117
q-6 -30 -17 -50.5t-32 -33t-55.5 -18t-88.5 -5.5q-48 0 -78 7t-46 20.5t-20 32.5t1 42l28 132q5 22 17 40.5t34 31t55 19.5t80 7zM458 843l-151 -178h120l63 76l35 -77h104l151 178h-120l-64 -78l-34 79h-104z" />
    <glyph glyph-name="FL00D6h" unicode="&#xd6;" horiz-adv-x="749" 
d="M744 208l40 188q11 51 3 89.5t-40.5 64t-92.5 38.5t-154 13q-92 0 -156.5 -14t-107 -41t-66 -65.5t-33.5 -87.5l-40 -188q-11 -48 -3.5 -86.5t38.5 -64.5t89 -40t150 -14q94 0 160 13t109.5 38.5t68 64.5t35.5 92zM471 466q54 0 86 -5.5t48 -18t18 -33t-5 -50.5l-25 -117
q-6 -30 -17 -50.5t-32 -33t-55.5 -18t-88.5 -5.5q-48 0 -78 7t-46 20.5t-20 32.5t1 42l28 132q5 22 17 40t34 30.5t55 19.5t80 7zM542 723q-7 -30 12.5 -50.5t54.5 -20.5q36 0 64 20.5t35 50.5q6 30 -13.5 50.5t-55.5 20.5q-35 0 -63 -20.5t-34 -50.5zM347 723
q-7 -30 12.5 -50.5t54.5 -20.5q36 0 64 20.5t35 50.5q6 30 -13.5 50.5t-55.5 20.5q-35 0 -63 -20.5t-34 -50.5z" />
    <glyph glyph-name="FL00D7h" unicode="&#xd7;" horiz-adv-x="496" 
d="M125 497l118 -225l-212 -223h131l128 133l69 -133h132l-116 223l212 225h-132l-127 -136l-71 136h-132z" />
    <glyph glyph-name="FL00D8h" unicode="&#xd8;" horiz-adv-x="749" 
d="M469 0q64 0 112.5 20.5t84 59t59.5 94t39 126.5q29 139 -7.5 217.5t-150.5 78.5h-204q-114 0 -185 -78.5t-100 -217.5q-15 -71 -14.5 -126.5t19.5 -94t58.5 -59t103.5 -20.5h185zM262 237l26 119q4 22 14 41.5t26.5 34t40.5 22.5t58 8h26l-166 -313q-39 22 -25 88z
M617 356l-26 -119q-21 -101 -137 -101h-18l162 306q18 -14 21.5 -36t-2.5 -50z" />
    <glyph glyph-name="FL00D9h" unicode="&#xd9;" horiz-adv-x="750" 
d="M743 197l86 405h-159l-79 -371q-6 -30 -17 -51t-32 -33.5t-55.5 -18t-88.5 -5.5q-48 0 -78 7t-46 20.5t-19.5 32.5t1.5 43l80 376h-155l-86 -405q-11 -49 -3.5 -88t38.5 -66t89 -41t150 -14q94 0 160.5 13t110 39t68 65t35.5 92zM586 836q-5 10 -16 23t-25 13
q-23 0 -49 -18q-5 -4 -8 -7t-8 -6q-13 -9 -22.5 -18t-12.5 -23q-5 -25 3 -38l50 -74l-1 1q12 -23 40 -23q12 0 23.5 4t25.5 15q16 12 24 23.5t12 28.5q5 22 -7 45z" />
    <glyph glyph-name="FL00DAh" unicode="&#xda;" horiz-adv-x="750" 
d="M743 197l86 405h-159l-79 -371q-6 -30 -17 -51t-32 -33.5t-55.5 -18t-88.5 -5.5q-48 0 -78 7t-46 20.5t-19.5 32.5t1.5 43l80 376h-155l-86 -405q-11 -49 -3.5 -88t38.5 -66t89 -41t150 -14q94 0 160.5 13t110 39t68 65t35.5 92zM472 782q-20 -23 -25 -45
q-4 -17 -1 -28.5t14 -23.5q18 -19 42 -19q27 0 48 23l-1 -1l81 74q16 17 20 38q3 14 -3 23t-14 18l-6 6t-5 7q-18 18 -42 18q-14 0 -30.5 -13t-25.5 -23z" />
    <glyph glyph-name="FL00DBh" unicode="&#xdb;" horiz-adv-x="750" 
d="M743 197l86 405h-159l-79 -371q-6 -30 -17 -51t-32 -33.5t-55.5 -18t-88.5 -5.5q-48 0 -78 7t-46 20.5t-19.5 32.5t1.5 43l80 376h-155l-86 -405q-11 -49 -3.5 -88t38.5 -66t89 -41t150 -14q94 0 160.5 13t110 39t68 65t35.5 92zM683 666l-73 201h-106l-153 -201h119
l67 91l29 -91h117z" />
    <glyph glyph-name="FL00DCh" unicode="&#xdc;" horiz-adv-x="750" 
d="M743 196l86 405h-159l-79 -371q-6 -30 -17 -50.5t-32 -33t-55.5 -18t-88.5 -5.5q-48 0 -78 7t-46 20.5t-19.5 32.5t1.5 42l80 376h-155l-86 -405q-11 -49 -3.5 -87.5t38.5 -65.5t89 -41t150 -14q94 0 160.5 13t110 39t68 65t35.5 91zM347 723q-7 -30 12.5 -50.5
t54.5 -20.5q36 0 64 20.5t35 50.5q6 30 -13.5 50.5t-55.5 20.5q-35 0 -63 -20.5t-34 -50.5zM542 723q-7 -30 12.5 -50.5t54.5 -20.5q36 0 64 20.5t35 50.5q6 30 -13.5 50.5t-55.5 20.5q-35 0 -63 -20.5t-34 -50.5z" />
    <glyph glyph-name="FL00DDh" unicode="&#xdd;" 
d="M833 602h-162l-49 -229h-256q-59 13 -57 74l33 156h-161l-15 -72q-15 -71 -13.5 -126.5t22 -94t62 -58.5t106.5 -20l1 1h247q-25 -54 -66.5 -73t-96.5 -19h-203l-30 -141h237q140 0 224 79t114 220zM493 782q-21 -25 -25 -45q-4 -17 -1 -28.5t14 -24.5q18 -18 42 -18
q27 0 48 23l-1 -1l81 74q17 17 21 38q3 13 -3.5 22.5t-14.5 18.5q-3 4 -11 12q-17 19 -42 19q-14 0 -30.5 -13t-24.5 -23z" />
    <glyph glyph-name="FL00DEh" unicode="&#xde;" horiz-adv-x="730" 
d="M706 117l26 122q9 45 2 89t-29.5 79t-58 57t-83.5 22h-248l24 110h-159l-127 -596h159l25 117h469zM475 351q33 0 54 -7.5t32.5 -20.5t15.5 -30.5t2 -37.5h-313l21 96h188z" />
    <glyph glyph-name="FL00DFh" unicode="&#xdf;" horiz-adv-x="692" 
d="M185 -120l125 584h158q32 0 52 -7.5t30.5 -20t13 -30t-0.5 -38.5h-205l-29 -139h204q-27 -92 -135 -92h-89l-29 -137h133q63 0 111.5 20.5t84 59.5t59.5 95t39 127q30 139 -7 218t-150 79h-370l-153 -719h158z" />
    <glyph glyph-name="FL00E0h" unicode="&#xe0;" horiz-adv-x="730" 
d="M207 0l22 103h316l-22 -103h158l128 602h-407q-48 0 -93 -22t-82 -57.5t-63 -80t-36 -89.5l-75 -353h154zM433 466h188l-49 -229h-314l26 122q6 22 17.5 41.5t29 34t42.5 23t60 8.5zM586 836q-6 10 -16.5 23t-24.5 13q-23 0 -50 -19q-5 -3 -8 -6t-8 -6q-12 -9 -22 -18.5
t-13 -22.5q-5 -25 4 -38l50 -74l-1 1q11 -23 39 -23q24 0 49 18q16 13 24 24.5t12 28.5q4 20 -6 45z" />
    <glyph glyph-name="FL00E1h" unicode="&#xe1;" horiz-adv-x="730" 
d="M207 0l22 103h316l-22 -103h158l128 602h-407q-48 0 -93 -22t-82 -57.5t-63 -80t-36 -89.5l-75 -353h154zM433 466h188l-49 -229h-314l26 122q6 22 17.5 41.5t29 34t42.5 23t60 8.5zM496 781q-22 -24 -26 -45q-3 -17 0 -28.5t13 -24.5q18 -18 42 -18q28 0 48 23l-1 -1
l81 74q17 17 21 38q2 13 -3.5 22.5t-13.5 18.5q-4 3 -6.5 6t-5.5 6q-16 19 -41 19q-14 0 -30.5 -13t-26.5 -23z" />
    <glyph glyph-name="FL00E2h" unicode="&#xe2;" horiz-adv-x="730" 
d="M207 0l22 103h316l-22 -103h158l128 602h-407q-48 0 -93 -22t-82 -57.5t-63 -80t-36 -89.5l-75 -353h154zM433 466h188l-49 -229h-314l26 122q6 22 17.5 41.5t29 34t42.5 23t60 8.5zM701 664l-72 201h-106l-154 -201h119l67 91l29 -91h117z" />
    <glyph glyph-name="FL00E3h" unicode="&#xe3;" horiz-adv-x="730" 
d="M207 0l22 103h316l-22 -103h158l128 602h-407q-48 0 -93 -22t-82 -57.5t-63 -80t-36 -89.5l-75 -353h154zM433 466h188l-49 -230h-314l26 122q6 22 17.5 41.5t29 34.5t42.5 23.5t60 8.5zM475 842l-152 -178h120l62 76l36 -77h104l151 178h-120l-64 -78l-34 79h-103z" />
    <glyph glyph-name="FL00E4h" unicode="&#xe4;" horiz-adv-x="730" 
d="M207 0l22 102h316l-22 -102h158l128 601h-407q-48 0 -93 -22t-82 -57.5t-63.5 -80t-35.5 -89.5l-75 -352h154zM433 465h188l-49 -229h-314l26 122q6 22 17.5 41.5t29 34t42.5 23t60 8.5zM542 723q-7 -30 12.5 -50.5t54.5 -20.5q36 0 63.5 20.5t34.5 50.5q6 30 -13 50.5
t-55 20.5q-35 0 -63 -20.5t-34 -50.5zM347 723q-7 -30 12.5 -50.5t54.5 -20.5q36 0 64 20.5t35 50.5q6 30 -13.5 50.5t-55.5 20.5q-35 0 -63 -20.5t-34 -50.5z" />
    <glyph glyph-name="FL00E5h" unicode="&#xe5;" horiz-adv-x="730" 
d="M207 0l22 102h316l-22 -102h158l128 601h-407q-48 0 -93 -22t-82 -57.5t-63.5 -80t-35.5 -89.5l-75 -352h154zM433 465h188l-49 -229h-314l26 122q6 22 17 41.5t29 34t43 23t60 8.5zM444 722q-6 -30 13 -50.5t54 -20.5q36 0 64 20.5t34 50.5q7 30 -12 50.5t-55 20.5
q-35 0 -63 -20.5t-35 -50.5z" />
    <glyph glyph-name="FL00E6h" unicode="&#xe6;" horiz-adv-x="1177" 
d="M210 0l22 102h320l-22 -102h598l29 136h-320q-112 0 -99 91h354l30 140h-354q5 20 15 37.5t26.5 30t40.5 20t56 7.5h320l29 134h-850q-48 0 -94 -22t-83.5 -57t-64 -79t-35.5 -89l-74 -349h156zM437 462h190l-48 -228h-318l25 121q6 22 17.5 41.5t29.5 34t43.5 23
t60.5 8.5z" />
    <glyph glyph-name="FL00E7h" unicode="&#xe7;" horiz-adv-x="692" 
d="M166 -165h88q103 0 164.5 37.5t96.5 127.5h128l29 137h-315q-115 0 -94 102l25 120q5 22 14.5 41.5t26 34t40.5 22.5t58 8h315l29 135h-369q-57 0 -103 -20.5t-81.5 -59t-60.5 -93.5t-40 -125q-15 -71 -14.5 -127t19.5 -95t58.5 -59.5t102.5 -20.5h76
q-13 -20 -35.5 -23.5t-58.5 -3.5h-70z" />
    <glyph glyph-name="FL00E8h" unicode="&#xe8;" horiz-adv-x="692" 
d="M643 0l29 138h-315q-109 0 -96 92h348l30 141h-348q11 41 41.5 68t94.5 27h315l29 136h-369q-113 0 -184 -79.5t-101 -219.5q-15 -71 -14.5 -127.5t19.5 -95.5t58.5 -59.5t102.5 -20.5h360zM576 836q-6 10 -17 23t-25 13q-24 0 -49 -19q-5 -3 -8 -6t-8 -6
q-12 -9 -22 -18.5t-13 -22.5q-5 -25 4 -38l49 -74l-1 1q12 -23 40 -23q24 0 48 18q17 13 25 24.5t12 28.5q4 21 -7 45z" />
    <glyph glyph-name="FL00E9h" unicode="&#xe9;" horiz-adv-x="692" 
d="M643 0l29 138h-315q-109 0 -96 92h348l30 141h-348q11 41 41.5 68t94.5 27h315l29 136h-369q-113 0 -184 -79.5t-101 -219.5q-15 -71 -14.5 -127.5t19.5 -95.5t58.5 -59.5t102.5 -20.5h360zM503 783q-21 -25 -25 -45q-4 -17 -1 -28.5t14 -24.5q18 -18 42 -18q27 0 48 23
l-2 -1l81 74q16 15 21 38q3 13 -3 22.5t-14 18.5q-3 3 -5.5 6t-5.5 6q-19 19 -41 19q-14 0 -30.5 -13t-26.5 -23z" />
    <glyph glyph-name="FL00EAh" unicode="&#xea;" horiz-adv-x="692" 
d="M643 0l29 138h-315q-109 0 -96 92h348l30 140h-348q11 42 41.5 69t94.5 27h315l29 136h-369q-113 0 -184 -79.5t-101 -219.5q-15 -71 -14.5 -127.5t19.5 -95.5t58.5 -59.5t102.5 -20.5h360zM684 663l-72 201h-106l-154 -201h119l67 91l29 -91h117z" />
    <glyph glyph-name="FL00EBh" unicode="&#xeb;" horiz-adv-x="692" 
d="M643 0l29 138h-315q-109 0 -96 91h348l30 141h-348q11 41 41.5 68t94.5 27h315l29 136h-369q-113 0 -184 -79.5t-101 -219.5q-15 -71 -14.5 -127t19.5 -95t58.5 -59.5t102.5 -20.5h360zM359 722q-6 -30 13 -50.5t54 -20.5q36 0 64 20.5t34 50.5q7 30 -12 50.5t-55 20.5
q-35 0 -63 -20.5t-35 -50.5zM553 722q-6 -30 13 -50.5t55 -20.5q35 0 63.5 20.5t34.5 50.5q7 30 -12.5 50.5t-54.5 20.5q-36 0 -64 -20.5t-35 -50.5z" />
    <glyph glyph-name="FL00ECh" unicode="&#xec;" horiz-adv-x="249" 
d="M368 784q9 -26 5 -45q-4 -17 -12 -28.5t-22 -24.5q-24 -18 -46 -18q-25 0 -36 23l1 -1l-46 74q-7 12 -2 38q3 13 12.5 22.5t20.5 18.5l15 12q24 19 47 19q13 0 22 -13t14 -23zM52 0l128 602h147l-128 -602h-147z" />
    <glyph glyph-name="FL00EDh" unicode="&#xed;" horiz-adv-x="243" 
d="M197 0l128 602h-148l-128 -602h148zM215 784q-21 -25 -25 -45q-4 -17 -1 -28.5t13 -24.5q15 -18 38 -18q25 0 45 23l-1 -1l76 74q8 8 12.5 17.5t6.5 20.5q3 13 -2 22.5t-13 18.5q-3 3 -5 6t-5 6q-16 19 -38 19q-13 0 -28.5 -13t-24.5 -23z" />
    <glyph glyph-name="FL00F7h" unicode="&#xee;" horiz-adv-x="254" 
d="M206 0l128 602h-154l-128 -602h154zM430 663l-69 201h-102l-151 -201h116l66 91l27 -91h113z" />
    <glyph glyph-name="FL00EFh" unicode="&#xef;" horiz-adv-x="255" 
d="M207 0l128 601h-155l-128 -601h155zM109 718q-7 -30 11.5 -50.5t53.5 -20.5t62 20.5t34 50.5q6 30 -12.5 50.5t-53.5 20.5t-62 -20.5t-33 -50.5zM299 718q-7 -30 11.5 -50.5t53.5 -20.5t62.5 20.5t34.5 50.5q6 30 -13 50.5t-54 20.5t-62 -20.5t-33 -50.5z" />
    <glyph glyph-name="FL00F0h" unicode="&#xf0;" 
d="M492 139q40 11 66 31.5t37 59.5h-330q1 -26 10.5 -43.5t26 -28t39.5 -15t50 -4.5h101zM149 457l30 139h379q68 0 115 -19t73.5 -54t33 -85t-5.5 -112l-20 -96h-3q-34 -111 -99.5 -170.5t-177.5 -59.5h-147q-70 0 -117 20t-73 58.5t-31.5 93.5t9.5 124l15 73h488
q-5 50 -37 69t-87 19h-345z" />
    <glyph glyph-name="FL00F1h" unicode="&#xf1;" horiz-adv-x="750" 
d="M701 0l75 353q10 46 4 88t-30 81q-22 41 -58.5 60.5t-83.5 19.5h-427l-128 -602h159l99 466h208q40 0 62.5 -11t32.5 -29.5t10 -42.5t-6 -50l-71 -333h154zM459 841l-151 -178h120l62 76l36 -77h104l151 178h-120l-64 -78l-34 79h-104z" />
    <glyph glyph-name="FL00F2h" unicode="&#xf2;" horiz-adv-x="749" 
d="M744 208l40 189q11 51 3.5 89.5t-40.5 64t-93 38.5t-154 13q-92 0 -156 -14t-106.5 -41t-66.5 -65.5t-34 -87.5l-40 -189q-11 -48 -3.5 -86.5t38.5 -64.5t89 -40t150 -14q94 0 160 13t109.5 38.5t68 64.5t35.5 92zM471 467q54 0 86.5 -5.5t48 -18t17.5 -33t-4 -50.5
l-26 -118q-6 -30 -17 -50.5t-32 -33t-55.5 -18t-88.5 -5.5q-48 0 -78 7t-46 20.5t-19.5 32.5t1.5 43l28 132q4 22 16 40t34 30.5t55 19.5t80 7zM586 836q-5 10 -16 23t-25 13q-23 0 -50 -19q-5 -3 -7.5 -6t-7.5 -6q-13 -9 -22.5 -18.5t-12.5 -22.5q-5 -26 3 -38l50 -74l-1 1
q12 -23 40 -23q24 0 48 18q17 13 25 24.5t12 28.5q4 21 -7 45z" />
    <glyph glyph-name="FL00F3h" unicode="&#xf3;" horiz-adv-x="749" 
d="M744 208l40 189q11 51 3.5 89.5t-40.5 64t-93 38.5t-154 13q-92 0 -156 -14t-106.5 -41t-66.5 -65.5t-34 -87.5l-40 -189q-11 -48 -3.5 -86.5t38.5 -64.5t89 -40t150 -14q94 0 160 13t109.5 38.5t68 64.5t35.5 92zM471 467q54 0 86.5 -5.5t48 -18t17.5 -33t-4 -50.5
l-26 -118q-6 -30 -17 -50.5t-32 -33t-55.5 -18t-88.5 -5.5q-48 0 -78 7t-46 20.5t-19.5 32.5t1.5 43l28 132q4 22 16 40t34 30.5t55 19.5t80 7zM472 782q-21 -25 -25 -45q-4 -17 -1 -28.5t13 -24.5q19 -18 43 -18q27 0 48 23l-1 -1l81 74q16 17 20 38q3 13 -3 22.5t-14 18.5
l-12 12q-16 19 -41 19q-14 0 -30.5 -13t-25.5 -23z" />
    <glyph glyph-name="FL00F4h" unicode="&#xf4;" horiz-adv-x="749" 
d="M744 208l40 189q11 51 3.5 89.5t-40.5 64t-93 38.5t-154 13q-92 0 -156 -14t-106.5 -41t-66.5 -65.5t-34 -87.5l-40 -189q-11 -48 -3.5 -86.5t38.5 -64.5t89 -40t150 -14q94 0 160 13t109.5 38.5t68 64.5t35.5 92zM471 467q54 0 86.5 -5.5t48 -18t17.5 -33t-4 -50.5
l-26 -118q-6 -30 -17 -50.5t-32 -33t-55.5 -18t-88.5 -5.5q-48 0 -78 7t-46 20.5t-19.5 32.5t1.5 43l27 131q5 22 17 40.5t34 31t55 19.5t80 7zM683 666l-73 201h-106l-153 -201h119l67 91l29 -91h117z" />
    <glyph glyph-name="FL00F5h" unicode="&#xf5;" horiz-adv-x="749" 
d="M744 208l40 189q11 51 3 89.5t-40.5 64t-92.5 38.5t-154 13q-92 0 -156 -14t-106.5 -41t-66.5 -65.5t-34 -87.5l-40 -189q-11 -48 -3.5 -86.5t38.5 -64.5t89 -40t150 -14q94 0 160 13t109.5 38.5t68 64.5t35.5 92zM471 467q54 0 86 -5.5t48 -18t18 -33t-5 -51.5l-25 -117
q-6 -30 -17 -50.5t-32 -33t-55.5 -18t-88.5 -5.5q-48 0 -78 7t-46 20.5t-20 32.5t1 42l28 132q5 22 17 40.5t34 31t55 19.5t80 7zM458 843l-151 -178h120l63 76l35 -77h104l151 178h-120l-64 -78l-34 79h-104z" />
    <glyph glyph-name="FL00F6h" unicode="&#xf6;" horiz-adv-x="749" 
d="M744 208l40 188q11 51 3 89.5t-40.5 64t-92.5 38.5t-154 13q-92 0 -156.5 -14t-107 -41t-66 -65.5t-33.5 -87.5l-40 -188q-11 -48 -3.5 -86.5t38.5 -64.5t89 -40t150 -14q94 0 160 13t109.5 38.5t68 64.5t35.5 92zM471 466q54 0 86 -5.5t48 -18t18 -33t-5 -50.5l-25 -117
q-6 -30 -17 -50.5t-32 -33t-55.5 -18t-88.5 -5.5q-48 0 -78 7t-46 20.5t-20 32.5t1 42l28 132q5 22 17 40t34 30.5t55 19.5t80 7zM542 723q-7 -30 12.5 -50.5t54.5 -20.5q36 0 64 20.5t35 50.5q6 30 -13.5 50.5t-55.5 20.5q-35 0 -63 -20.5t-34 -50.5zM347 723
q-7 -30 12.5 -50.5t54.5 -20.5q36 0 64 20.5t35 50.5q6 30 -13.5 50.5t-55.5 20.5q-35 0 -63 -20.5t-34 -50.5z" />
    <glyph glyph-name="FL0100h" unicode="&#xf7;" horiz-adv-x="547" 
d="M130 362l-29 -137h446l29 137h-446zM293 446q-6 -29 12.5 -49.5t53.5 -20.5t63.5 20.5t34.5 49.5t-13.5 49.5t-54.5 20.5t-62.5 -20.5t-33.5 -49.5zM228 142q-6 -30 12.5 -50t53.5 -20t63.5 20t34.5 50q6 29 -13.5 49t-54.5 20t-62.5 -20t-33.5 -49z" />
    <glyph glyph-name="FL00F8h" unicode="&#xf8;" horiz-adv-x="749" 
d="M469 0q64 0 112.5 20.5t84 59t59.5 94t39 126.5q29 139 -7.5 217.5t-150.5 78.5h-204q-114 0 -185 -78.5t-100 -217.5q-15 -71 -14.5 -126.5t19.5 -94t58.5 -59t103.5 -20.5h185zM262 237l26 119q4 22 14 41.5t26.5 34t40.5 22.5t58 8h26l-166 -313q-39 22 -25 88z
M617 356l-26 -119q-21 -101 -137 -101h-18l162 306q18 -14 21.5 -36t-2.5 -50z" />
    <glyph glyph-name="FL00F9h" unicode="&#xf9;" horiz-adv-x="750" 
d="M743 197l86 405h-159l-79 -371q-6 -30 -17 -51t-32 -33.5t-55.5 -18t-88.5 -5.5q-48 0 -78 7t-46 20.5t-19.5 32.5t1.5 43l80 376h-155l-86 -405q-11 -49 -3.5 -88t38.5 -66t89 -41t150 -14q94 0 160.5 13t110 39t68 65t35.5 92zM586 836q-5 10 -16 23t-25 13
q-23 0 -49 -18q-5 -4 -8 -7t-8 -6q-13 -9 -22.5 -18t-12.5 -23q-5 -25 3 -38l50 -74l-1 1q12 -23 40 -23q12 0 23.5 4t25.5 15q16 12 24 23.5t12 28.5q5 22 -7 45z" />
    <glyph glyph-name="FL00FAh" unicode="&#xfa;" horiz-adv-x="750" 
d="M743 197l86 405h-159l-79 -371q-6 -30 -17 -51t-32 -33.5t-55.5 -18t-88.5 -5.5q-48 0 -78 7t-46 20.5t-19.5 32.5t1.5 43l80 376h-155l-86 -405q-11 -49 -3.5 -88t38.5 -66t89 -41t150 -14q94 0 160.5 13t110 39t68 65t35.5 92zM472 782q-20 -23 -25 -45
q-4 -17 -1 -28.5t14 -23.5q18 -19 42 -19q27 0 48 23l-1 -1l81 74q16 17 20 38q3 14 -3 23t-14 18l-6 6t-5 7q-18 18 -42 18q-14 0 -30.5 -13t-25.5 -23z" />
    <glyph glyph-name="FL00FBh" unicode="&#xfb;" horiz-adv-x="750" 
d="M743 197l86 405h-159l-79 -371q-6 -30 -17 -51t-32 -33.5t-55.5 -18t-88.5 -5.5q-48 0 -78 7t-46 20.5t-19.5 32.5t1.5 43l80 376h-155l-86 -405q-11 -49 -3.5 -88t38.5 -66t89 -41t150 -14q94 0 160.5 13t110 39t68 65t35.5 92zM683 666l-73 201h-106l-153 -201h119
l67 91l29 -91h117z" />
    <glyph glyph-name="FL00FCh" unicode="&#xfc;" horiz-adv-x="750" 
d="M743 196l86 405h-159l-79 -371q-6 -30 -17 -50.5t-32 -33t-55.5 -18t-88.5 -5.5q-48 0 -78 7t-46 20.5t-19.5 32.5t1.5 42l80 376h-155l-86 -405q-11 -49 -3.5 -87.5t38.5 -65.5t89 -41t150 -14q94 0 160.5 13t110 39t68 65t35.5 91zM347 723q-7 -30 12.5 -50.5
t54.5 -20.5q36 0 64 20.5t35 50.5q6 30 -13.5 50.5t-55.5 20.5q-35 0 -63 -20.5t-34 -50.5zM542 723q-7 -30 12.5 -50.5t54.5 -20.5q36 0 64 20.5t35 50.5q6 30 -13.5 50.5t-55.5 20.5q-35 0 -63 -20.5t-34 -50.5z" />
    <glyph glyph-name="FL00FDh" unicode="&#xfd;" 
d="M833 602h-162l-49 -229h-256q-59 13 -57 74l33 156h-161l-15 -72q-15 -71 -13.5 -126.5t22 -94t62 -58.5t106.5 -20l1 1h247q-25 -54 -66.5 -73t-96.5 -19h-203l-30 -141h237q140 0 224 79t114 220zM493 782q-21 -25 -25 -45q-4 -17 -1 -28.5t14 -24.5q18 -18 42 -18
q27 0 48 23l-1 -1l81 74q17 17 21 38q3 13 -3.5 22.5t-14.5 18.5q-3 4 -11 12q-17 19 -42 19q-14 0 -30.5 -13t-24.5 -23z" />
    <glyph glyph-name="FL00FEh" unicode="&#xfe;" horiz-adv-x="730" 
d="M706 117l26 122q9 45 2 89t-29.5 79t-58 57t-83.5 22h-248l24 110h-159l-127 -596h159l25 117h469zM475 351q33 0 54 -7.5t32.5 -20.5t15.5 -30.5t2 -37.5h-313l21 96h188z" />
    <glyph glyph-name="FL00FFh" unicode="&#xff;" 
d="M833 601h-162l-49 -228h-256q-59 12 -57 73l33 156h-161l-15 -72q-15 -71 -14 -126.5t22 -94t62.5 -58.5t106.5 -20v1h247q-24 -53 -65.5 -72.5t-96.5 -19.5h-203l-30 -140h237q140 0 224 79t113 219zM542 723q-7 -30 12.5 -50.5t55.5 -20.5q35 0 63 20.5t35 50.5
q6 30 -13.5 50.5t-54.5 20.5q-36 0 -64 -20.5t-34 -50.5zM347 723q-7 -30 12.5 -50.5t55.5 -20.5q35 0 63 20.5t35 50.5q6 30 -13.5 50.5t-54.5 20.5q-36 0 -64 -20.5t-34 -50.5z" />
    <glyph glyph-name="FL0152h" unicode="&#x152;" horiz-adv-x="1141" 
d="M1092 0l29 136h-320q-112 0 -99 91h354l30 140h-354q5 20 15 37.5t26.5 30t40.5 20t56 7.5h320l29 134h-814q-115 0 -186.5 -78.5t-100.5 -217.5q-15 -71 -14.5 -126.5t20 -94t59.5 -59t104 -20.5h805zM557 300q-11 -48 -14.5 -89t2.5 -75h-183q-118 0 -97 101l26 119
q4 22 13.5 41.5t26 34t41 22.5t59.5 8h185q-40 -69 -59 -162z" />
    <glyph glyph-name="FL0153h" unicode="&#x153;" horiz-adv-x="1141" 
d="M1092 0l29 136h-320q-112 0 -99 91h354l30 140h-354q5 20 15 37.5t26.5 30t40.5 20t56 7.5h320l29 134h-814q-115 0 -186.5 -78.5t-100.5 -217.5q-15 -71 -14.5 -126.5t20 -94t59.5 -59t104 -20.5h805zM557 300q-11 -48 -14.5 -89t2.5 -75h-183q-118 0 -97 101l26 119
q4 22 13.5 41.5t26 34t41 22.5t59.5 8h185q-40 -69 -59 -162z" />
    <glyph glyph-name="FL0160h" unicode="&#x160;" 
d="M460 461h344l30 141h-378q-140 0 -224.5 -79t-114.5 -220l-14 -70h488q-25 -54 -66.5 -73t-96.5 -19h-345l-30 -141h379q140 0 224 79t114 220l15 73h-489q26 51 67.5 70t96.5 19zM399 865l71 -200h106l154 200h-119l-68 -90l-26 89z" />
    <glyph glyph-name="FL0162h" unicode="&#x161;" 
d="M399 865l118 -1l26 -89l68 90h119l-154 -200h-106zM460 461q-55 0 -96.5 -19t-67.5 -70h489l-15 -73q-30 -141 -114 -220t-224 -79h-378l30 141h344q55 0 96.5 19t66.5 73h-488l14 70q30 141 114.5 220t224.5 79h233l-30 -141h-199z" />
    <glyph glyph-name="FL0178h" unicode="&#x178;" 
d="M833 601h-162l-49 -228h-256q-59 12 -57 73l33 156h-161l-15 -72q-15 -71 -14 -126.5t22 -94t62.5 -58.5t106.5 -20v1h247q-24 -53 -65.5 -72.5t-96.5 -19.5h-203l-30 -140h237q140 0 224 79t113 219zM542 723q-7 -30 12.5 -50.5t55.5 -20.5q35 0 63 20.5t35 50.5
q6 30 -13.5 50.5t-54.5 20.5q-36 0 -64 -20.5t-34 -50.5zM347 723q-7 -30 12.5 -50.5t55.5 -20.5q35 0 63 20.5t35 50.5q6 30 -13.5 50.5t-54.5 20.5q-36 0 -64 -20.5t-34 -50.5z" />
    <glyph glyph-name="FL017Dh" unicode="&#x17d;" horiz-adv-x="686" 
d="M737 472l28 130h-584l-29 -136h365l-436 -336l-28 -130h584l29 136h-366zM362 865l70 -200h105l155 200h-119l-68 -90l-26 89z" />
    <glyph glyph-name="FL0161h" unicode="&#x17e;" horiz-adv-x="686" 
d="M737 472l28 130h-584l-29 -136h365l-436 -336l-28 -130h584l29 136h-366zM362 865l70 -200h105l155 200h-119l-68 -90l-26 89z" />
    <glyph glyph-name="FL0192h" unicode="&#x192;" horiz-adv-x="692" 
d="M770 596l-29 -136h-315q-115 0 -138 -101l-76 -360h-159l63 297q15 70 39 126t59.5 94.5t84 59t111.5 20.5h360z" />
    <glyph glyph-name="FL02C6h" unicode="&#x2c6;" horiz-adv-x="408" 
d="M445 369l-72 186h-102l-148 -186h116l65 84l28 -84h113z" />
    <glyph glyph-name="FL02DCh" unicode="&#x2dc;" horiz-adv-x="466" 
d="M249 551l-147 -171h118l62 75l35 -75h103l146 170h-118l-63 -75l-33 76h-103z" />
    <glyph glyph-name="FL2013h" unicode="&#x2013;" horiz-adv-x="478" 
d="M95 201h378l26 124h-378z" />
    <glyph glyph-name="FL2014h" unicode="&#x2014;" horiz-adv-x="547" 
d="M122 325l-26 -123h446l26 123h-446z" />
    <glyph glyph-name="FL2018h" unicode="&#x2018;" horiz-adv-x="245" 
d="M133 394q-6 -28 10.5 -48.5t49.5 -20.5q32 0 58 19.5t33 48.5l23 109q6 29 -12 48t-50 19q-33 0 -58 -19t-31 -48z" />
    <glyph glyph-name="FL2019h" unicode="&#x2019;" horiz-adv-x="245" 
d="M133 394q-6 -28 10.5 -48.5t49.5 -20.5q32 0 58 19.5t33 48.5l23 109q6 29 -12 48t-50 19q-33 0 -58 -19t-31 -48z" />
    <glyph glyph-name="FL201Ah" unicode="&#x201a;" horiz-adv-x="245" 
d="M40 -41q-6 -28 11 -48t50 -20q32 0 58 19.5t32 47.5l23 109q6 29 -11.5 48.5t-49.5 19.5q-33 0 -58.5 -19.5t-31.5 -48.5z" />
    <glyph glyph-name="FL201Ch" unicode="&#x201c;" horiz-adv-x="453" 
d="M327 394q-6 -28 12.5 -48.5t53.5 -20.5t62 19.5t34 48.5l23 109q6 29 -13 48.5t-54 19.5t-62 -19.5t-33 -48.5zM136 393q-6 -28 12 -48t53 -20t62.5 19t33.5 48l23 109q7 29 -12.5 48.5t-54.5 19.5t-61.5 -19.5t-33.5 -48.5z" />
    <glyph glyph-name="FL201Dh" unicode="&#x201d;" horiz-adv-x="453" 
d="M327 394q-6 -28 12.5 -48.5t53.5 -20.5t62 19.5t34 48.5l23 109q6 29 -13 48.5t-54 19.5t-62 -19.5t-33 -48.5zM136 393q-6 -28 12 -48t53 -20t62.5 19t33.5 48l23 109q7 29 -12.5 48.5t-54.5 19.5t-61.5 -19.5t-33.5 -48.5z" />
    <glyph glyph-name="FL201Eh" unicode="&#x201e;" horiz-adv-x="453" 
d="M234 -41q-6 -28 13 -48t54 -20t62 19t33 48l23 109q6 29 -12.5 48.5t-53.5 19.5t-62.5 -19.5t-33.5 -48.5zM43 -40q-5 -28 13 -48t53 -20t62.5 19t33.5 48l23 109q7 29 -12.5 48.5t-54.5 19.5t-61.5 -19.5t-33.5 -48.5z" />
    <glyph glyph-name="FL2020h" unicode="&#x2020;" horiz-adv-x="486" 
d="M125 343h115l-73 -343h156l73 343h114l30 140h-114l24 113h-156l-24 -113h-115z" />
    <glyph glyph-name="FL2021h" unicode="&#x2021;" horiz-adv-x="486" 
d="M125 343h115l-21 -100h-115l-30 -140h115l-22 -103h156l22 104h114l30 139h-114l21 100h114l30 140h-114l24 113h-156l-24 -113h-115z" />
    <glyph glyph-name="FL2022h" unicode="&#x2022;" horiz-adv-x="463" 
d="M464 232q-24 -117 -158 -117h-104q-125 0 -101 117l25 116q6 26 17 48.5t29.5 39t46 26t66.5 9.5h97q39 0 62.5 -9.5t35.5 -26t13.5 -39t-4.5 -48.5z" />
    <glyph glyph-name="FL2026h" unicode="&#x2026;" horiz-adv-x="700" 
d="M454 63q-5 -26 14.5 -44.5t54.5 -18.5t63 18.5t33 44.5q6 26 -14 44.5t-55 18.5t-62.5 -18.5t-33.5 -44.5zM66 63q-5 -26 14.5 -44.5t54.5 -18.5t63 18.5t33 44.5q6 26 -14 44.5t-55 18.5t-62.5 -18.5t-33.5 -44.5zM260 63q-5 -26 14.5 -44.5t54.5 -18.5t63 18.5t33 44.5
q6 26 -14 44.5t-55 18.5t-62.5 -18.5t-33.5 -44.5z" />
    <glyph glyph-name="FL2030h" unicode="&#x2030;" horiz-adv-x="1206" 
d="M261 0l639 596h-163l-644 -596h168zM475 394l20 96q6 27 2 46.5t-20.5 32.5t-47.5 19.5t-80 6.5q-48 0 -82 -7.5t-56.5 -21t-35 -33.5t-17.5 -45l-20 -95q-6 -25 -2 -45t20 -33.5t46 -21t78 -7.5q49 0 83.5 6.5t57.5 20t35.5 34t18.5 47.5zM836 107l20 96q6 27 2.5 47
t-20 33t-47.5 19.5t-80 6.5q-48 0 -82 -7.5t-56.5 -21t-35.5 -34t-18 -45.5l-20 -95q-5 -25 -1.5 -44.5t20 -33t46.5 -21t77 -7.5q49 0 83.5 6.5t57.5 20t35.5 33.5t18.5 47zM1180 107l20 96q6 27 2.5 47t-20 33t-47.5 19.5t-80 6.5q-48 0 -82.5 -7.5t-57 -21t-35 -34
t-17.5 -45.5l-20 -95q-5 -25 -1.5 -44.5t19.5 -33t46 -21t78 -7.5q49 0 83.5 6.5t57.5 20t35.5 33.5t18.5 47zM1035 215q21 0 33.5 -2.5t18.5 -7t6.5 -10.5t-0.5 -12l-11 -51q-2 -11 -6.5 -18t-12.5 -11t-22 -6t-36 -2q-38 0 -49 9t-8 25l12 54q3 15 20 23.5t55 8.5z
M691 215q21 0 33.5 -2.5t18.5 -7t6.5 -10.5t-0.5 -12l-11 -51q-2 -11 -6.5 -18t-12.5 -11t-22 -6t-36 -2q-38 0 -48.5 9t-7.5 25l12 54q3 15 19.5 23.5t54.5 8.5zM329 501q21 0 33.5 -2.5t18.5 -7t7 -10t0 -12.5l-11 -51q-2 -11 -6.5 -18t-12.5 -11t-22 -6t-36 -2
q-38 0 -49 9.5t-8 24.5l12 54q3 16 19.5 24t54.5 8z" />
    <glyph glyph-name="FL2039h" unicode="&#x2039;" horiz-adv-x="282" 
d="M331 447l-210 -112l-21 -102l163 -108l24 115l-74 47l94 46z" />
    <glyph glyph-name="FL203Ah" unicode="&#x203a;" horiz-adv-x="282" 
d="M145 447l162 -112l-21 -102l-209 -108l24 115l94 47l-74 46z" />
    <glyph glyph-name="FL20ACh" unicode="&#x20ac;" horiz-adv-x="734" 
d="M118 307h107l-3 -13h-107l-29 -139h122q5 -76 48.5 -115.5t134.5 -39.5h294l29 136h-250q-53 0 -75 19h213l29 139h-250l3 13h250l30 139h-207q15 8 33.5 12t42.5 4h250l29 134h-304q-82 0 -139.5 -38.5t-95.5 -111.5h-125z" />
    <glyph glyph-name="FL04E5h" unicode="&#x2122;" horiz-adv-x="1177" 
d="M824 263h27l-5 29zM1140 156l-56 -44l-30 36l45 27zM437 259q2 7 1.5 10.5t-1.5 7.5v-1q-8 18 -23 18q-24 0 -55 -49l-2 -11q-8 -36 12 -36q8 0 18.5 4t27.5 12q10 11 15 22t7 23zM1193 351l-57 -151l-45 5l41 161zM186 361l-53 -200l-66 -22l64 209zM762 365l-53 -198
l-67 -20l65 210zM314 291q-16 10 -25 10q-22 0 -43 -23q-33 -30 -41 -66q-6 -27 23 -27q14 0 25 3.5t23 12.5l-11 -58q-19 -8 -28.5 -9.5t-19.5 -1.5q-63 0 -60 88v4q0 3 1 5q0 4 0.5 7.5t1.5 9.5q20 93 179 116zM1056 154q-51 0 -96 72l-15 -69l-47 -7l42 221l81 -117
l32 112l44 -17zM882 151l-34 15q-9 38 -27 38q-17 0 -48 -40h-54q15 51 44.5 99.5t76.5 96.5q16 9 31 9q44 0 41 -66zM629 148q-56 0 -96 69l-14 -68l-51 -7l44 220l82 -115l28 114l49 -17zM495 283q-48 -135 -110 -135q-6 0 -10 -1q-5 -1 -8 -1.5t-11 -0.5q-57 0 -63 41
q25 122 109 166q7 5 16 5h8q67 0 70 -72z" />
    <glyph glyph-name="FL06D9h" horiz-adv-x="926" 
d="M554 383q-22 -1 -38 -2.5t-27.5 -7.5t-20 -18t-15.5 -34h173l13 62h-85zM663 107h-82l16 78h-174l-16 -78h-134l42 201q9 44 32.5 79.5t56.5 61t73 39t82 13.5h230l-50 -237q32 20 46 62l16 75q5 24 7 46.5t-6 40t-29 28t-62 10.5h-268q-41 0 -67 -13.5t-42.5 -36
t-26.5 -53.5t-17 -65l-25 -120q-6 -27 -11 -56t-1 -54t19.5 -41t50.5 -16h9q7 0 10 1h326l-29 -138h-370q-64 0 -101.5 31t-53.5 82.5t-13.5 117.5t17.5 137q15 69 42 133.5t64.5 114.5t85.5 80t105 30h379q49 0 84 -20.5t54.5 -57t23.5 -87.5t-9 -112l-17 -82
q-41 -92 -103.5 -142t-162.5 -53z" />
    <glyph glyph-name="FL0064h" horiz-adv-x="731" 
d="M339 596h-159l-127 -596h407q47 0 93 20t84 61q38 36 60.5 74.5t34.5 82.5h1q11 51 5 95t-30 82q-21 41 -58 60t-84 19h-249zM478 360q65 0 86.5 -27.5t14.5 -83.5q-6 -22 -18 -42.5t-30 -36.5t-43.5 -26t-59.5 -10h-188l49 226h189z" />
    <glyph glyph-name="FLE005h" horiz-adv-x="731" 
d="M261 249q-3 -22 -0.5 -42.5t13.5 -36.5t32 -26t56 -10h188l49 226h-189q-66 0 -99 -27t-50 -84zM202 415q40 41 84.5 60t91.5 19h249l22 102h159l-127 -596h-407q-47 0 -83.5 20t-59.5 61q-44 70 -27 157h-1q21 102 99 177z" />
  </font>
</defs>
</svg>
