<?xml version="1.0" standalone="no"?>
<!DOCTYPE svg PUBLIC "-//W3C//DTD SVG 1.1//EN" "http://www.w3.org/Graphics/SVG/1.1/DTD/svg11.dtd" >
<svg xmlns="http://www.w3.org/2000/svg" xmlns:xlink="http://www.w3.org/1999/xlink" version="1.1">
<metadata>
Created by FontForge 20170731 at Thu Nov 11 14:18:32 2004
 By Aleksey,,,
(c) Fleisch &#38; Apostrophic Laboratories. All rights reserved. Loosely based on 1916 lettering by Elizabeth Colwell. Distribute freely. apostrofe@mail.com
</metadata>
<defs>
<font id="Colwell-Alternates" horiz-adv-x="500" >
  <font-face 
    font-family="Colwell - Alternates"
    font-weight="400"
    font-stretch="normal"
    units-per-em="1000"
    panose-1="2 0 0 0 0 0 0 0 0 0"
    ascent="800"
    descent="-200"
    cap-height="804"
    bbox="-354 -305 1496 879"
    underline-thickness="50"
    underline-position="-175"
    unicode-range="U+0020-00B6"
  />
<missing-glyph 
 />
    <glyph glyph-name=".notdef" 
 />
    <glyph glyph-name=".null" horiz-adv-x="0" 
 />
    <glyph glyph-name="nonmarkingreturn" 
 />
    <glyph glyph-name="space" unicode=" " horiz-adv-x="300" 
 />
    <glyph glyph-name="space" unicode="&#xa0;" horiz-adv-x="300" 
 />
    <glyph glyph-name="dollar" unicode="$" horiz-adv-x="632" 
d="M234 508l26 -6t27 -6q0 46 -0.5 87t-1 73t-0.5 53v27q-2 9 -3.5 19t-4.5 21q-51 -7 -95 -30t-71 -71q-11 -20 -14 -43.5t3 -45.5q27 -30 61 -49.5t73 -28.5zM473 336q-32 22 -68.5 37t-74.5 26q0 -55 -0.5 -105.5t-0.5 -90.5v-67v-32q1 -12 3 -31.5t5 -40.5
q31 11 59 28.5t51.5 40t40.5 50t26 59.5q6 26 1.5 58.5t-23.5 53.5q-7 7 -19 14zM256 871q9 -15 19.5 -17.5t21 0.5t20 7t17.5 1v-54h3q29 0 60.5 -4t60 -14.5t52.5 -29t39 -46.5q6 -12 6 -24q0 -8 -3 -23.5t-7 -22.5q-8 -16 -29.5 -24.5t-37.5 -8.5q-3 0 -7 0.5t-9 1.5
q-16 4 -24 11t-9 24q-2 21 9 39.5t34 20.5q-6 14 -18.5 25.5t-28.5 20t-32.5 14.5t-30.5 10q-6 2 -13 1.5t-15 -0.5q0 -54 -1 -130t-2 -161q49 -10 97.5 -23t87 -37t62.5 -62.5t24 -98.5q0 -37 -12 -67q-18 -46 -55.5 -85t-79.5 -64q-54 -32 -114 -45q4 -26 7 -47.5t4 -32.5
q-12 14 -24 17.5t-39 -4.5v58q-8 -1 -16 -1t-16 -1q-29 -1 -59.5 2t-58.5 12.5t-52 26.5t-40 44q-3 28 -1.5 47.5t10.5 32t27 18t48 5.5q9 0 18.5 -8t17.5 -19.5t13 -23.5t5 -20q0 -11 -8 -18t-16 -12q-4 -3 -9.5 -7t-9 -8.5t-4.5 -10t4 -11.5q14 -17 41 -25t48 -8
q28 0 58 6q0 34 -0.5 79.5t-1 97t-0.5 106.5v110l-70 18t-70 20q-12 4 -23.5 8t-23.5 8q-26 8 -39.5 24t-24.5 41l-5 12.5t-4 13.5q-2 10 1.5 30.5t9.5 42.5t13 41t13 27q7 9 18 17.5t20 15.5q76 58 169 73q-5 17 -9 35t-6 33z" />
    <glyph glyph-name="quotesingle" unicode="'" horiz-adv-x="143" 
d="M39 557q26 29 35.5 48.5t10 32t-3 19t-3.5 9.5q-23 0 -36.5 9.5t-18.5 32.5q-5 19 4.5 30.5t24.5 17t32 4t27 -8.5q22 -16 24.5 -41t-6.5 -52t-25.5 -52.5t-32.5 -43t-28.5 -23t-13.5 7.5l10 10v0z" />
    <glyph glyph-name="three" unicode="3" horiz-adv-x="575" 
d="M14 -296q-5 5 -9.5 11t-4.5 13q6 5 15.5 8t17.5 0q8 -17 24 -22t33 -5q21 0 41 3q6 1 13 3.5t13 4.5q45 15 84 38.5t74 52.5q42 34 73.5 75t50.5 92q5 14 11.5 33t12.5 39t10 39.5t4 34.5q0 64 -52 97q-5 3 -12 6.5t-13 5.5q-9 2 -20.5 2.5t-21.5 0.5q-29 0 -57 -6.5
t-52 -23.5q-5 0 -13 -2.5t-11 2.5l184 251l2 9q-3 1 -31.5 1.5t-63.5 0.5h-105q-26 -32 -59.5 -54t-71.5 -36q1 12 8.5 24t16.5 24l18 24t14 24q3 7 8.5 15.5t15.5 6.5l47 -9q2 0 3.5 0.5t3.5 0.5h286v-14q-42 -51 -80 -102.5t-73 -108.5q26 0 54 -1t53 -9q25 -7 49 -23
t33 -42q5 -15 8 -37t3 -39q0 -41 -10.5 -77.5t-29 -69.5t-43 -63t-52.5 -57q-14 -12 -28 -24.5t-29 -23.5q-20 -14 -42 -24q-26 -14 -55 -27.5t-59 -24.5t-60.5 -18t-60.5 -7q-16 0 -32 2t-33 6z" />
    <glyph glyph-name="E" unicode="E" horiz-adv-x="791" 
d="M658 602q7 14 1 33t-14 31q-31 50 -81.5 77t-108.5 33.5t-116.5 -5.5t-104.5 -40q-83 -50 -121 -142q-9 -22 -16.5 -48.5t-12 -54.5t-5.5 -55t2 -50q147 52 290 105t287 116zM759 594q-81 -28 -159.5 -54.5t-157.5 -55.5q-78 -28 -154.5 -58.5t-152.5 -62.5
q56 -10 123 -7l251 11q19 14 21.5 39.5t-3.5 46.5q3 -2 7.5 -0.5t9.5 3t9.5 1t6.5 -6.5q-5 -27 -6.5 -55t-1.5 -55v-113q0 -3 -4.5 -4t-6.5 1h-14q-1 16 -2 31t-2 31q0 4 -1.5 12t-4.5 15.5t-7.5 13t-11.5 5.5h-404q-5 -5 -6 -10.5t-1 -11.5q0 -29 12 -56t27 -50
q42 -63 105 -105.5t138 -55.5q15 -3 30 -3h31q47 0 92 7.5t84.5 25.5t73.5 46.5t60 70.5h7q0 -30 -15 -53.5t-38 -42.5q-6 -5 -19 -15.5t-27.5 -21.5t-28 -20t-20.5 -12l-62 -22q-27 -10 -56.5 -9.5t-57.5 0.5q-38 0 -76 6.5t-75 16.5q-45 12 -89.5 37t-81 60t-63 77.5
t-36.5 89.5q-5 25 -7 50t-2 50q0 94 35 172.5t95 135.5t141 88.5t173 31.5q19 0 42.5 -1.5t47.5 -4.5t46.5 -8.5t40.5 -13.5q20 -9 41 -23.5t40 -32.5t34 -38t24 -40q2 -4 5.5 -14.5t3.5 -13.5q0 -6 -1 -12.5t-2 -12.5z" />
    <glyph glyph-name="I" unicode="I" horiz-adv-x="298" 
d="M95 -2q-2 16 -2.5 31.5t-0.5 31.5q0 5 1 21t1.5 33t1 31.5t-0.5 16.5q-3 94 0.5 186.5t3.5 186.5q0 46 -2.5 91.5t-7.5 91.5q-1 8 -1.5 16t-2.5 15q-3 8 -15.5 12t-23.5 4q-6 0 -12 -2q-27 0 -33 7t8 33q15 -2 36.5 -4.5t44 -4.5t43.5 -1.5t36 4.5q9 -47 10 -94.5
t-1 -94.5t-4.5 -94.5t-1.5 -95.5l7 -363q14 -16 22 -20t28 3q6 -5 13 -12.5t6 -15.5q0 -2 -1 -6.5t1 -6.5h-153v0z" />
    <glyph glyph-name="J" unicode="J" horiz-adv-x="250" 
d="M221 798q3 -7 4 -17t-6 -15q-3 3 -9 3.5t-11 0.5q-18 -2 -27.5 -9.5t-11.5 -26.5q0 -3 -0.5 -32t-1 -71t-0.5 -90t-0.5 -89.5t-0.5 -70.5v-31l-1 -263q4 -6 5 -13t1.5 -14t3.5 -13.5t11 -12.5q7 2 18.5 1.5t11.5 -11.5q-5 -8 -12 -13t-13.5 -8t-11.5 -5t-6 -4
q-10 -16 -18 -32t-18 -31q-27 -42 -60.5 -79t-73.5 -67q-57 -42 -118 -66t-133 -24h-39q-26 0 -42 11.5t-16 51.5q6 10 17.5 12t23 -1t20 -10.5t8.5 -16.5q-7 -10 -7 -21q0 -9 8.5 -10.5t17.5 -1.5h10q52 0 98.5 16.5t88.5 47.5q46 33 73.5 69.5t55.5 83.5q9 16 15.5 29
t10 25.5t6 26.5t4.5 33q1 16 1.5 31t0.5 30v74v67q0 45 0.5 100.5t1 116t1 116t0.5 99.5v68q0 8 -6.5 16.5t-14.5 10.5q-3 3 -8.5 2t-11.5 -1.5t-12 1t-10 10.5h1l-1 5q-2 4 -3 8t5 6q45 -8 90.5 -7.5t90.5 5.5z" />
    <glyph glyph-name="K" unicode="K" horiz-adv-x="760" 
d="M1160 -123q-15 1 -28.5 9.5t-20.5 19.5t-5.5 23t16.5 21q6 4 16.5 6.5t21.5 3t20.5 -2.5t15.5 -10q2 -3 4 -12t2 -12q1 -2 2.5 -12t1.5 -11q-3 -10 -11 -21t-18 -21.5t-21 -19.5t-20 -16q-67 -41 -119 -56t-94 -12t-75.5 21t-62.5 43.5t-56.5 55t-56.5 55.5
q-52 56 -85 91.5t-55 58.5t-35 37t-24.5 26t-24.5 26t-33 37q-43 45 -83.5 91t-80.5 84q-17 16 -33.5 21t-39.5 -4l-12 -15q0 -42 -2.5 -83.5t-3.5 -82.5t0.5 -82t9.5 -82q10 -10 24.5 -12.5t28.5 -5.5t26.5 -9t18.5 -24q-8 -3 -26 -3t-25 3q-54 -2 -106 -1.5t-106 0.5
q-7 0 -4.5 9.5t3.5 13.5l-2 6q6 4 14.5 5t18 1.5t18.5 2t16 6.5l15 32l10 666q0 20 -16 23.5t-31 3.5q-2 -1 -9 -1t-15 2.5t-8 11.5q0 12 7 19h231q-2 -5 -2.5 -16t-0.5 -17h-20q-16 0 -33 -4.5t-19 -21.5q-2 -12 -3 -29t-1 -35v-65q0 -29 1 -59t6 -59q7 -6 14 -6q6 0 23 10
t39.5 25t47.5 33t47 34t38 28t21 15q42 30 82.5 63t75.5 71l-46 13q0 5 1.5 14t9.5 9l205 -3q2 -5 2.5 -18t0.5 -18q-40 11 -75.5 2t-69.5 -31q-24 -16 -46.5 -35t-44.5 -37q-54 -45 -117 -85t-120 -79q-13 -11 -28.5 -31t-15.5 -39q64 -16 115 -54t99 -82q42 -39 68 -66.5
t43.5 -48.5t31 -40t31.5 -41t44.5 -51t70.5 -71q24 -31 47.5 -60.5t51 -53t59.5 -40t72 -22.5q47 -7 82 4.5t73 31.5q2 1 11.5 6.5t18.5 12t15 13t2 9.5z" />
    <glyph glyph-name="M" unicode="M" horiz-adv-x="605" 
d="M576 798q3 -7 4 -17t-6 -15q-3 3 -9 3.5t-11 0.5q-18 -2 -27.5 -9.5t-11.5 -26.5q-1 -10 -3 -28t-2 -26v-287q4 -6 5 -13t1.5 -14t3.5 -13.5t11 -12.5q7 2 18.5 1.5t11.5 -11.5q-5 -8 -12 -13t-13.5 -8t-11.5 -5t-6 -4q-10 -16 -18 -32t-18 -31q-27 -42 -60.5 -79
t-73.5 -67q-57 -42 -118 -66t-133 -24h-39q-26 0 -42 11.5t-16 51.5q6 10 17.5 12t23 -1t20 -10.5t8.5 -16.5q-7 -10 -7 -21q0 -9 8.5 -10.5t17.5 -1.5h10q52 0 98.5 16.5t88.5 47.5q46 33 73.5 69.5t55.5 83.5q9 16 15.5 29t10 25.5t6 26.5t4.5 33q1 16 1.5 31t0.5 30v74
q0 69 2 130.5t2 130.5q0 8 -6.5 16.5t-14.5 10.5q-3 3 -8.5 2t-11.5 -1.5t-12 1t-10 10.5h1l-1 5q-2 4 -3 8t5 6q45 -8 90.5 -7.5t90.5 5.5z" />
    <glyph glyph-name="Q" unicode="Q" horiz-adv-x="887" 
d="M112 234q30 -47 56.5 -79.5t58.5 -55.5t73 -39t100 -29q49 -8 95.5 -3.5t88.5 22t77 48t61 74.5q32 54 47 113t15 122q0 76 -22.5 142.5t-65 115.5t-105 77.5t-141.5 28.5q-83 0 -151.5 -28t-117 -77.5t-75 -119t-26.5 -151.5q0 -19 1 -40t4.5 -42.5t10 -42t16.5 -36.5z
M849 -182q4 -7 0.5 -15t-8.5 -13l8 4q-14 -11 -30 -18t-33 -7q-23 0 -45 0.5t-45 3.5q-54 8 -106.5 17t-106.5 17q-59 8 -120.5 13.5t-122.5 2t-118.5 -21t-108.5 -55.5q-3 8 -0.5 12l7.5 12l4.5 6t5.5 7q23 22 49.5 41.5t52.5 39.5q52 38 104.5 73.5t106.5 70.5
q-114 17 -203 82q-72 54 -106 125t-34 161q0 97 37.5 176t109.5 143q66 58 143.5 83t165.5 25q29 0 57.5 -7.5t56.5 -14.5q36 -9 74 -27t72 -42.5t61 -55.5t42 -66q30 -72 39.5 -143.5t-4.5 -138t-52.5 -125.5t-104.5 -106q-31 -27 -73.5 -44t-88.5 -26t-91 -10.5t-81 3.5
q-17 -11 -39.5 -26t-44.5 -31t-40 -29t-26 -19q-28 -20 -56 -39t-57 -38q63 17 123 31.5t126 14.5q45 0 80.5 -3.5t68.5 -10t67.5 -15t76.5 -18.5q35 -8 70 -14.5t70 -11.5q22 -4 37.5 2.5t29.5 24.5z" />
    <glyph glyph-name="R" unicode="R" horiz-adv-x="659" 
d="M372 744q-31 10 -68 12.5t-69 2.5q-20 0 -42 -4.5t-36 -21.5l-4 -335l15 -23q8 -1 15.5 -1.5t15.5 -0.5q61 0 113.5 20t94.5 65l17 17t14 19q8 14 12.5 38t4.5 40q0 51 -23 99q0 1 -3 8t-4 8q-13 14 -26 28.5t-27 28.5zM1125 -146q-15 1 -28.5 9.5t-20.5 19.5t-5.5 23
t16.5 21q6 4 16.5 6.5t21.5 3t20.5 -2.5t15.5 -10q2 -3 4 -12t2 -12q1 -2 2.5 -12t1.5 -11q-3 -10 -11 -21t-18 -21.5t-21 -19.5t-20 -16q-67 -41 -119.5 -59.5t-94.5 -20t-76 11.5t-64 33.5t-57.5 47t-56.5 52.5q-47 50 -78.5 84t-53.5 57t-35.5 38t-24 26.5t-20 22
t-21.5 26.5v-3q-25 26 -48 53.5t-46.5 54t-49 52t-53.5 46.5q-12 3 -23 5.5t-23 -2.5q-11 -66 -9 -132t5 -132q11 -22 34.5 -26.5t44.5 -2.5q-2 -3 -6 -15.5t-4 -17.5h-191q-2 28 27 39q16 6 16.5 15t0.5 23v444q0 29 -0.5 58t-1.5 58q0 8 -0.5 23t-1 30.5t-1.5 30t-2 21.5
q-2 10 -15 11.5l-26 3t-20.5 6t1.5 20.5q19 -2 38 1t38 3q39 0 84.5 -2t93.5 -2q49 0 94.5 -0.5t81.5 -17.5q38 -19 66.5 -53.5t37.5 -76.5q6 -26 2.5 -53.5t-13 -54t-25 -50.5t-33.5 -42q-10 -10 -24.5 -19.5t-30.5 -17.5t-32.5 -14.5t-29.5 -10.5q-32 -10 -65.5 -16.5
t-66.5 -12.5q44 -15 82 -38q26 -15 48.5 -34t45.5 -41q43 -39 68.5 -66.5t43 -48.5t31 -40t31.5 -41t44.5 -51t70.5 -71q24 -31 42.5 -55.5t40 -42.5t48.5 -29.5t67 -17.5q23 -3 49 0t51 10t48.5 17t42.5 20q2 1 11.5 6.5t18.5 12t15 13t2 9.5z" />
    <glyph glyph-name="V" unicode="V" horiz-adv-x="1450" 
d="M1487 784q-18 3 -31 9q-27 0 -52.5 -14t-48 -34.5t-41.5 -44t-33 -43.5q-48 -69 -78.5 -148.5t-41.5 -162.5t-1 -167t42 -162v-11q-7 -4 -15 -4t-13 6t-9 11q-20 27 -50.5 50t-58.5 40q-31 19 -60.5 38.5t-60.5 38.5q-51 31 -105.5 68t-100 82.5t-74.5 100.5t-29 123
q0 9 0.5 18.5t1.5 18.5q-38 -66 -61 -140t-29.5 -149.5t4.5 -151.5t40 -147v-11q-7 -4 -15 -4t-13 6t-9 11q-20 27 -50.5 50t-58.5 40q-31 19 -60.5 38.5t-60.5 38.5q-51 31 -105.5 68t-100 82.5t-74.5 100.5t-29 123q0 26 5 52.5t12 51.5q3 13 10.5 25.5t15.5 24.5t14 23
t6 20v6q0 8 -2 14t-8 6l-54 -8q-7 11 -4.5 22t12.5 19q148 -10 296 0q2 -5 2.5 -18t0.5 -18q-16 -2 -34 -3t-36 -3.5t-34.5 -8t-28.5 -15.5q-44 -38 -60.5 -92.5t-16.5 -109.5q0 -19 1 -38t5 -37q11 -48 37.5 -85.5t65.5 -66.5q13 -9 26.5 -16.5t27.5 -15.5q26 -15 52 -29.5
t52 -28.5q42 -22 81.5 -50.5t67.5 -65.5q-17 96 -15.5 191.5t33.5 188.5q20 58 53 109.5t69 101.5q11 17 21 31.5t10 27.5v6v9t-2 9q-8 2 -15 0t-10 -2l-1 1l-36 -5q-7 11 -4.5 22t12.5 19q148 -10 296 0q2 -5 2.5 -18t0.5 -18q-16 -2 -34 -3t-36 -3.5t-34.5 -8t-28.5 -15.5
q-44 -38 -60.5 -92.5t-16.5 -109.5q0 -19 1 -38t5 -37q11 -48 37.5 -85.5t65.5 -66.5q13 -9 26.5 -16.5t27.5 -15.5q26 -15 52 -29.5t52 -28.5q42 -22 81.5 -50.5t67.5 -65.5q-17 96 -15.5 191.5t33.5 188.5q14 39 33.5 75t42.5 70.5t47.5 67.5t48.5 67q-2 3 -8 5t-13.5 3.5
t-14.5 2.5t-10 1q-4 9 -4 16q0 8 7 16h202q9 -6 9 -18l-9 -17v0z" />
    <glyph glyph-name="W" unicode="W" horiz-adv-x="1267" 
d="M856 755q-22 1 -44.5 2.5t-44 0t-42 -7.5t-38.5 -20q-15 -41 -20.5 -89.5t-7 -99t-1 -100.5t-2.5 -94q22 36 42.5 73t40.5 75q34 63 68 126.5t49 133.5zM1042 743q-32 9 -66 13.5t-64 -13.5q-30 -59 -63 -115.5t-66 -113.5t-65.5 -114t-61.5 -116q-1 -5 -1 -11v-11v-21
q0 -36 7 -73t30 -66q5 -5 8.5 -9t8.5 -9q20 -20 39 -27.5t48 -7.5q6 0 17.5 0.5t23.5 1t23 2t17 3.5l12 6t12 7q36 20 64.5 49.5t49.5 65.5q30 51 43.5 103.5t13.5 112.5t-0.5 117t-0.5 117q0 61 -29 109zM288 768q-14 0 -29.5 -1.5t-30 -6t-26.5 -13t-19 -22.5
q-8 -90 -13 -177t-5 -178q0 -54 1.5 -105.5t6.5 -105.5l2 -25q5 -16 22.5 -28.5t39.5 -21t45 -13t38 -4.5q40 0 75.5 13t66 35t57 50.5t49.5 58.5q6 103 8.5 204.5t2.5 204.5q0 15 0.5 31t-0.5 31q-1 20 -19 38.5t-34 27.5l-238 7v0zM1207 781q0 -8 0.5 -20.5t-7.5 -17.5
q-7 11 -18.5 9t-21.5 -5l-13 -22l-10 -669q0 -8 6.5 -15t14.5 -6q11 1 19.5 3t14 1t8.5 -7t3 -21q-20 -3 -36 -5.5t-31.5 -4t-31.5 -2t-37 1.5l-8 10l7 130q1 14 -0.5 28t-3.5 28q-27 -43 -61.5 -84.5t-79.5 -69.5q-35 -23 -75 -33t-82 -10q-51 0 -92.5 19t-68.5 65
q-4 7 -8 19.5t-7.5 27t-6.5 27.5t-5 21q-29 -32 -62.5 -62t-71.5 -53t-80 -37t-87 -14q-35 0 -68 8t-62 27q-5 4 -11 7.5t-10 8.5q-8 7 -14.5 22t-11.5 31.5t-8 32.5t-4 26q-5 33 -5.5 67t-0.5 68q0 69 4.5 135.5t4.5 135.5q0 42 -3 82.5t-13 82.5q-11 16 -30 16.5t-36 -2.5
l-4 -3q-4 10 -7.5 21t4.5 21q91 -6 182 -12.5t182 -6.5q36 0 72 2t72 2l699 -4v0z" />
    <glyph glyph-name="i" unicode="i" horiz-adv-x="252" 
d="M217 -9q-12 1 -26.5 2.5t-29.5 3t-29.5 2t-25.5 -0.5q-25 -2 -53.5 -2.5t-52.5 7.5v16q8 5 17 5h17q1 -1 6 -1h7q5 0 10 1t8 6q4 8 5.5 37.5t1.5 63.5q0 35 -1 65.5t-1 40.5q-1 18 -1 36v36v36t-1 36q-5 8 -11 6.5t-13 -6t-13.5 -9t-11.5 -2.5q-8 22 4 34t31 20.5
t39.5 16t30.5 19.5l22 -11q-7 -52 -10 -104t-3 -106q0 -106 12 -209q5 -8 18 -10.5t21 0.5q23 0 28 -3t5 -26z" />
    <glyph glyph-name="j" unicode="j" horiz-adv-x="289" 
d="M264 1q-27 -1 -58 -15.5t-51 -33.5l-94 -100q-20 -20 -46.5 -42t-52.5 -34l-84 -32q-18 -8 -38.5 -12.5t-41.5 -4.5t-41 4.5t-38 14.5q-17 11 -17 32q0 23 12.5 33.5t34.5 10.5q27 0 36.5 -12.5t9.5 -38.5l-6 -4q17 -11 34 -11q6 0 18.5 3t25.5 7.5t25.5 9t18.5 6.5
q53 20 88.5 51t57 69t32 82t14 91t2.5 96t-2 96q-1 28 -1.5 55t-0.5 55q-2 3 -4 6.5t-6 3.5q-2 -2 -6 -4.5t-8.5 -5t-8.5 -4t-7 -0.5l-17 -17q-11 3 -14 15t0 21q16 7 34 17t37 21.5t37 23t33 20.5l6 -405q0 -13 8.5 -20.5t19.5 -10.5q9 -2 20 -2.5t20.5 -3.5t15 -10
t3.5 -21z" />
    <glyph glyph-name="cent" unicode="&#xa2;" horiz-adv-x="800" 
d="M172 177q9 -12 19 -22.5t21 -20.5q21 51 46 114t51.5 127.5t51 127t45 113t33.5 84t16 41.5q5 16 8 32h-17q-51 0 -98.5 -10.5t-89.5 -38.5q-83 -55 -118.5 -136.5t-35.5 -178.5q0 -63 14.5 -122t53.5 -110zM482 879q2 -18 10.5 -24t19 -7.5t21 -2t17.5 -6.5
q-2 -4 -6 -14.5t-10 -24.5q4 -1 7.5 -1.5t8.5 -1.5q30 -5 64.5 -18.5t63.5 -34t49.5 -48.5t23.5 -63q2 -30 -16 -51t-49 -21q-30 0 -46.5 13.5t-18 31.5t10.5 35.5t39 25.5q-25 46 -64.5 69t-86.5 31q-18 -43 -44 -104t-54 -128t-56 -134.5t-51 -122.5t-38.5 -92t-17.5 -44
t-5 -16t-6 -20q48 -32 102 -46t116 -14q54 0 104 14.5t92 49.5q25 20 45 44.5t34 53.5q7 8 17.5 6.5t16.5 -9.5q-34 -78 -96 -127t-138 -69.5t-157 -13t-153 41.5q-6 -23 -10.5 -42.5t-7.5 -29.5q-3 9 -6.5 15.5t-9.5 11t-15 7t-23 4.5q2 4 8 20t17 41q-82 53 -133 134.5
t-51 181.5q0 78 28 145.5t79 127.5q134 155 340 155h10q6 0 11 -1q3 19 6 37.5t8 34.5z" />
    <glyph glyph-name="sterling" unicode="&#xa3;" horiz-adv-x="597" 
d="M408 490q-6 -8 -8 -18t-2 -21q0 -10 -0.5 -20t-4.5 -19q-9 0 -24 0.5t-33 1.5t-37.5 2t-37.5 2q1 -95 11 -183.5t39 -186.5q34 -13 57 -27.5t45 -20.5t47 1.5t63 37.5q4 10 1 19t-5 19q-2 12 3.5 24t14.5 12t17.5 -12t10.5 -22q3 -17 0.5 -29t-9 -22t-16.5 -19t-22 -20
q-29 -26 -73.5 -23t-102 21t-127 42t-148.5 40q-14 -5 -27.5 -12t-20.5 -21q-11 29 -7 52t15 47q3 7 8 18.5t10 23.5t10.5 22.5t10.5 16.5q1 2 5.5 0.5t10 -3.5t10 -4.5t7.5 -2.5q-11 -20 -2 -38.5t27 -35t40 -28.5t38 -18l30 -9l-52 342q-17 -1 -38 -2.5t-41.5 -3t-37.5 -3
t-27 -1.5q6 9 8 19.5t3 21.5t2.5 21.5t7.5 19.5q17 -2 49.5 -5.5t69.5 -6.5v15q-14 77 -1 135.5t49 96.5t92 55.5t130 12.5q12 -1 26.5 -3.5t29.5 -6t29 -9t24 -12.5q1 -1 7 -10.5t8 -11.5t7.5 -11t5.5 -12q1 -9 -3.5 -16.5t-13 -13t-18 -8.5t-16.5 -3q-18 0 -28 9.5
t-13 22.5t1 27t13 23q0 5 -9 7.5t-20.5 3t-22.5 0.5h-13q-42 -2 -85 -15.5t-71 -42.5q-24 -25 -34.5 -51t-12 -55t3 -61.5t9.5 -69.5q15 0 35.5 2t42 4.5l43 5t37.5 3.5z" />
    <glyph glyph-name="currency" unicode="&#xa4;" horiz-adv-x="892" 
d="M867 205q-24 -56 -64 -97.5t-89.5 -67.5t-106 -37t-114 -8t-113.5 20.5t-104 48.5q-61 40 -105.5 95t-64.5 123q-29 -4 -51.5 -7t-33.5 -3q6 9 8 19.5t3 21.5t2.5 21.5t7.5 19.5q8 -2 21 -2.5t30 -2.5q-1 8 -1 15v16q0 23 2.5 46t7.5 45q-23 -3 -42 -5.5t-29 -2.5
q6 9 8 19.5t3 21.5t2.5 21.5t7.5 19.5q11 -2 30.5 -3.5t42.5 -3.5q26 59 74 115q134 155 340 155q26 0 51.5 -3t51.5 -8q30 -5 64.5 -18.5t63.5 -34t49.5 -48.5t23.5 -63q2 -30 -16 -51t-49 -21q-30 0 -46.5 13.5t-18 31.5t10.5 35.5t39 25.5q-17 32 -41.5 52.5t-54.5 32.5
t-63 16.5t-66 4.5q-51 0 -98.5 -10.5t-89.5 -38.5q-56 -37 -89.5 -86t-49.5 -107l43 -1q18 1 42 4t48.5 6t46.5 6t37 4q-6 -8 -8 -18t-2 -21q0 -10 -0.5 -20t-4.5 -19q-12 0 -30.5 1.5t-40 2.5t-44.5 2.5t-44 1.5q-9 0 -13.5 0.5t-7.5 0.5q4 -1 1 -1.5t-31 0.5h-2
q-2 -17 -3.5 -35t-1.5 -36q0 -17 1 -34t3 -34l44 -2q18 1 42 4t48.5 6t46.5 6t37 4q-6 -8 -8 -18t-2 -21q0 -10 -0.5 -20t-4.5 -19q-12 0 -30.5 1.5t-40 2.5t-44.5 2.5t-44 1.5q-10 0 -14.5 0.5t-7.5 0.5q3 -1 -12 -1q8 -30 21 -58t33 -54q57 -70 131.5 -100.5t162.5 -30.5
q54 0 104 14.5t92 49.5q25 20 45 44.5t34 53.5q7 8 17.5 6.5t16.5 -9.5z" />
    <glyph glyph-name="currency" unicode="&#x20ac;" horiz-adv-x="892" 
d="M867 205q-24 -56 -64 -97.5t-89.5 -67.5t-106 -37t-114 -8t-113.5 20.5t-104 48.5q-61 40 -105.5 95t-64.5 123q-29 -4 -51.5 -7t-33.5 -3q6 9 8 19.5t3 21.5t2.5 21.5t7.5 19.5q8 -2 21 -2.5t30 -2.5q-1 8 -1 15v16q0 23 2.5 46t7.5 45q-23 -3 -42 -5.5t-29 -2.5
q6 9 8 19.5t3 21.5t2.5 21.5t7.5 19.5q11 -2 30.5 -3.5t42.5 -3.5q26 59 74 115q134 155 340 155q26 0 51.5 -3t51.5 -8q30 -5 64.5 -18.5t63.5 -34t49.5 -48.5t23.5 -63q2 -30 -16 -51t-49 -21q-30 0 -46.5 13.5t-18 31.5t10.5 35.5t39 25.5q-17 32 -41.5 52.5t-54.5 32.5
t-63 16.5t-66 4.5q-51 0 -98.5 -10.5t-89.5 -38.5q-56 -37 -89.5 -86t-49.5 -107l43 -1q18 1 42 4t48.5 6t46.5 6t37 4q-6 -8 -8 -18t-2 -21q0 -10 -0.5 -20t-4.5 -19q-12 0 -30.5 1.5t-40 2.5t-44.5 2.5t-44 1.5q-9 0 -13.5 0.5t-7.5 0.5q4 -1 1 -1.5t-31 0.5h-2
q-2 -17 -3.5 -35t-1.5 -36q0 -17 1 -34t3 -34l44 -2q18 1 42 4t48.5 6t46.5 6t37 4q-6 -8 -8 -18t-2 -21q0 -10 -0.5 -20t-4.5 -19q-12 0 -30.5 1.5t-40 2.5t-44.5 2.5t-44 1.5q-10 0 -14.5 0.5t-7.5 0.5q3 -1 -12 -1q8 -30 21 -58t33 -54q57 -70 131.5 -100.5t162.5 -30.5
q54 0 104 14.5t92 49.5q25 20 45 44.5t34 53.5q7 8 17.5 6.5t16.5 -9.5z" />
    <glyph glyph-name="yen" unicode="&#xa5;" horiz-adv-x="940" 
d="M612 387q21 24 33 51q-63 1 -127 1.5t-117.5 1t-90.5 1t-45 0.5q-4 0 -9 -0.5t-11 -0.5v-6q0 -27 5 -58t23 -53q20 -23 50 -30.5t59 -7.5q33 0 66 8t63 21.5t56 32t45 39.5zM664 494q9 45 9 101v16q-65 1 -134 4t-126.5 7t-98 7t-48.5 3h-9t-12 -1v-126q64 -2 133 -4
t128.5 -3.5t101.5 -2.5t52 -1h4v0zM917 513q-6 -8 -8 -18t-2 -21q0 -10 -0.5 -20t-4.5 -19q-8 0 -46.5 0.5t-95.5 1.5q-3 -75 -9.5 -143.5t-19.5 -117.5q-16 -60 -54 -98t-92 -62q-24 -11 -56 -13.5t-58 -2.5q-27 0 -57 4.5t-54 18.5q-33 19 -33 58q0 19 15.5 30.5t34 13
t34 -8t15.5 -31.5q0 -11 -12 -24.5t-19 -20.5q4 -8 14 -13t22 -8t23.5 -4.5t19.5 -1.5q11 0 22 3t22 5q46 11 81.5 34.5t51.5 71.5q12 35 15 72t3 74q0 38 -0.5 75.5t3.5 73.5q-34 -41 -66 -74.5t-68 -58.5t-79.5 -38.5t-100.5 -13.5q-27 0 -54 4t-50.5 14t-42.5 28t-30 45
q-4 11 -8 24.5t-4 24.5l-2 61q-24 -1 -48 -2.5t-44.5 -2.5t-36.5 -1.5t-23 -0.5q6 9 8 19.5t3 21.5t2.5 21.5t7.5 19.5q8 -1 43 -2t86 -3l-3 103q-23 -1 -46 0.5t-43 3.5t-35 4t-22 2q6 9 8 19.5t3 21.5t2.5 21.5t7.5 19.5q8 -1 41 -2t82 -3l-1 59q-5 10 -19.5 13t-28 6
t-20 11t5.5 29q19 -6 41.5 -7t46 -0.5t47 2.5t43.5 2q7 0 15.5 0.5t14.5 -1.5q10 -8 6 -20.5t-16 -14.5t-27 -2.5t-22 -17.5v-62q64 -2 133 -4t128.5 -3.5t101.5 -2.5t52 -1h12v79q-3 6 -11.5 12t-15.5 1q-3 -1 -11 -2.5t-11 0.5q-5 -2 -11 4.5t-2 11.5v19q11 1 22.5 2
t22.5 1q15 1 29.5 0t29.5 -1q14 0 35.5 -1.5t38.5 -1.5h12t10 1q1 -5 5 -8.5t7 -7.5t3 -8t-7 -8q-5 0 -14 -1t-18 -3.5t-16 -7.5t-7 -12v-63q23 2 46.5 4t44 4t37.5 3.5t26 1.5q-6 -8 -8 -18t-2 -21q0 -10 -0.5 -20t-4.5 -19q-8 -1 -46 -1t-93 1v-14v-54t-1 -57q23 2 46.5 4
t44 4t37.5 3.5t26 1.5z" />
    <glyph glyph-name="logicalnot" unicode="&#xac;" horiz-adv-x="1275" 
d="M401 227q14 16 19 26.5t6 17t-1 10t-2 5.5q-26 0 -31 22q-2 10 3 16.5t13.5 9.5t17.5 2.5t14 -4.5q12 -9 13.5 -22t-3.5 -28t-14 -29t-18 -23t-15.5 -12t-6.5 4l5 5v0zM1129 381q11 6 19 13q-9 5 -20.5 11t-16.5 8q-2 1 -9.5 1.5t-16.5 1t-17 1t-12 0.5q-17 0 -32 -4.5
t-26 -18.5v-17q32 -1 65 0t66 4zM782 110q0 3 -9.5 23.5t-20.5 44.5t-21.5 44.5t-11.5 24.5q-6 13 -11.5 28.5t-11.5 31.5t-13 30.5t-14 24.5q-40 -60 -71 -123t-59 -129q121 -5 243 0zM1058 228q0 1 -0.5 1.5t-0.5 2.5q0 4 1 8.5t4 6.5h6q24 0 48.5 6.5t42.5 23.5
q7 4 11 11q4 8 6 21.5t2 22.5q0 17 -5 30q-2 -1 -2 -4q-24 2 -49 1t-50 -1h-74v-318l16 -19q45 -14 84.5 -3t76.5 40q23 20 29.5 55t-6.5 64q-20 37 -62 46q-5 2 -10 2h-9t-9.5 1t-9.5 1h-21h-10q-4 0 -9 1zM878 32q7 -4 17.5 -10.5t19.5 -8.5q11 2 21.5 6.5t16.5 15.5
q3 37 3.5 72.5t0.5 73.5q0 41 -1 81t-3 82v5q0 4 -1 9h-14q-35 0 -68 -1t-67 1q-5 4 -4 11.5t3 13.5q5 2 10.5 -3t12.5 -6q3 1 5 1q3 0 5 2l10 10v134q0 32 -2 63t-7 63q-1 5 -1.5 8.5t-1.5 8.5q-2 7 -7 15.5t-12 16.5t-14.5 14t-14.5 8q-8 4 -20.5 5t-20.5 1
q-55 0 -90.5 -28.5t-55.5 -76.5q-7 -16 -12.5 -40.5t-7.5 -41.5q-1 -17 0 -31.5t3 -28.5q2 -22 3.5 -44.5t-0.5 -45.5q2 -5 9 -6t14.5 -2t13 -4.5t4.5 -14.5h-124l1 16q8 0 17 0.5t15 5.5l8 13l-1 360q-3 5 -14.5 9t-24.5 6.5t-26 2.5q-12 0 -17 -3l-1 3q-1 -11 -4.5 -20
t-8.5 -18q-5 -8 -14 -23t-15 -21q-2 -2 -7.5 1.5t-7.5 3.5q7 10 3.5 20.5t-12 19t-19.5 15t-18 9.5q-24 9 -47.5 7.5t-44.5 -10.5t-38.5 -25t-30.5 -36q-35 -50 -35 -112q0 -48 13.5 -86t45.5 -65q3 0 5 1q2 -2 2 -6q5 -3 9 -6.5t10 -6.5q44 -26 97 -26q32 0 56.5 3.5t44 14
t35 29t30.5 48.5l13 -1q-2 -18 -12.5 -34t-21.5 -30q-5 -5 -10 -9.5t-10 -8.5q-29 -23 -62 -33t-68 -10q-11 0 -23 1t-23 3q-30 5 -57.5 17t-50.5 31q-2 0 -2 -2v-1q-7 -91 -4 -184.5t8 -183.5q11 -8 23.5 -9.5t26 -0.5t27 2.5t26.5 0.5t31 -2.5t37 -2.5t36.5 -1.5
t30.5 -0.5q8 0 23.5 1t26.5 3q11 22 21.5 45t22.5 46q20 43 39.5 84t41.5 83q14 27 31 57.5t37 53.5q13 15 30.5 28t39.5 6l6 -18q-5 5 -14 5.5t-14 -2.5q-4 -2 -8 -8.5t-2 -11.5q2 -8 3 -16.5t3 -17.5q1 -2 4 -9t6.5 -15t6.5 -15.5t4 -10.5q14 -29 28 -59l28 -60
q20 -42 43 -82.5t49 -79.5zM789 5q0 4 6.5 6t14 4t13.5 4.5t6 8.5q0 4 -3 10.5t-7.5 13l-9 13t-7.5 9.5q-10 16 -33 16h-15h-9t-10 1q-15 1 -31 1h-31h-64q-21 0 -40.5 -1.5t-40.5 -3.5q-8 -16 -17 -30.5t-9 -32.5q4 -5 10.5 -5.5l13 -1t11 -3t4.5 -11.5q0 -3 -7 -3.5
t-12 -0.5h-43q-10 0 -19.5 0.5t-18.5 1.5h-6q-27 -4 -58 -4t-53 2l-110 9h-24q-45 0 -84 -13q-4 3 -3.5 8t1.5 10q10 2 15 4t8 5t5 8t7 14q2 92 -1.5 182.5t-5.5 183.5q-5 4 -12 6t-7 11q0 3 1 6h8q9 0 21 -0.5t16 -0.5h1q-26 28 -38 66q-5 17 -7 34.5t-2 36.5q0 39 10.5 72
t36.5 65q5 5 8 10t7 12q13 12 25.5 20.5t26.5 16.5l15 8q-2 4 -13.5 6t-25.5 2t-26 -2.5t-16 -4.5q-9 0 -18 -1t-18 -3q-27 -4 -50 -14q-11 -4 -20.5 -9.5t-14.5 -15.5q-4 -5 -3 -11t1 -11q0 -6 -4.5 -12t-9.5 -6t-8.5 6t-3.5 11q0 19 9.5 29.5t23.5 18.5q37 24 86.5 32.5
t101.5 7t103 -9.5t93 -17q8 3 15.5 7t12.5 11q10 2 28 2.5t37 0.5t36.5 -0.5t27.5 -0.5v-124q35 38 80 64t99 26q14 0 31 -3t31 -8q4 -3 7 -5.5t6 -4.5q0 7 -0.5 13.5t-0.5 14.5q-5 11 -18.5 14.5t-21.5 -5.5q-7 2 -5.5 4t3.5 6l290 6q9 -18 21.5 -34.5t17.5 -36.5
q-6 2 -14 10t-16 17t-16 16.5t-15 7.5q-11 1 -33.5 3t-47 3.5t-47.5 2t-33 -2.5q-9 -2 -14 -9t-7 -15q-1 -8 -0.5 -16t0.5 -16q0 -12 -0.5 -24t-0.5 -25q3 -11 4 -23.5t2 -24.5v-12q25 -8 51 -9.5t51 0.5q11 0 25 1t22 -1q6 2 9.5 10t3.5 16q0 5 -1 7v7q0 7 1.5 12.5
t9.5 5.5q5 0 7 -2v-126h-4q-11 0 -14.5 7.5t4.5 13.5q-2 8 -6 17.5t-12 14.5l-3 1h-144l2 -129q0 -3 0.5 -7.5t0.5 -7.5q0 -26 3 -50l8 -7q2 0 6 -2q10 -1 21 -1.5t23 -1.5q0 9 -1 16t-2 10q-1 8 -8 10t-14.5 2.5t-13.5 2.5t-5 11q37 -6 82 -1t83 5q24 0 47 -4t45 -14
q11 14 22.5 27t27.5 18l4 -3q-23 -22 -35 -53q4 -2 7.5 -4t6.5 -4t9 -7t8 -8q6 -11 9.5 -26.5t3.5 -26.5q0 -15 -7 -27.5t-17 -23t-22.5 -19.5t-22.5 -16q25 -6 49 -18t38 -35q5 -9 7 -19.5t2 -20.5q0 -26 -12 -48t-26 -41q-3 -4 -6.5 -8t-6.5 -7q-5 -5 -10 -8t-10 -5
q-34 -21 -74 -27.5t-78 -6.5q-26 0 -53 0.5t-54 1.5h-7v-1h-128z" />
    <glyph glyph-name="paragraph" unicode="&#xb6;" horiz-adv-x="514" 
d="M242 -44q-16 0 -16 18q0 7 6 12q5 3 9.5 5.5t9.5 6.5q20 17 27.5 42.5t7.5 51.5q0 7 -0.5 31.5t-1 59.5t-1.5 77t-1 84q-11 -2 -21 -3.5t-21 -3.5l-34 -4t-34 -2q-111 0 -149 104q-4 10 -4.5 26.5t-0.5 27.5q0 70 27.5 128t78.5 106q22 21 49 35t56 22t59.5 11t60.5 3
h114q-1 -39 -2 -75.5t-2 -80.5t-1 -99t-0.5 -129.5t-1 -173t-0.5 -229.5q7 -7 17 -4.5t19.5 4.5t16.5 -0.5t8 -18.5l-166 -86q-16 0 -16 18q0 7 6 12q5 3 9.5 5.5t9.5 6.5q20 17 27 41t8 50zM386 392q-8 0 -17.5 -5.5t-19.5 -12.5l-2 -313q4 -5 10 -5q7 0 13.5 1.5l13 3
t11.5 1.5q0 20 -0.5 49.5t-1 63.5t-0.5 69v64q0 30 1 52t3 29q-5 3 -11 3z" />
  </font>
</defs>
</svg>
