<?xml version="1.0" standalone="no"?>
<!DOCTYPE svg PUBLIC "-//W3C//DTD SVG 1.1//EN" "http://www.w3.org/Graphics/SVG/1.1/DTD/svg11.dtd" >
<svg xmlns="http://www.w3.org/2000/svg" xmlns:xlink="http://www.w3.org/1999/xlink" version="1.1">
<metadata>
Created by FontForge 20170731 at Fri Jan 13 02:25:25 2012
 By Aleksey,,,
Copyright (c) 2011 by LatinoType Limitada (info@latinotype.com),  with Reserved Font Names "Flamenco"
</metadata>
<defs>
<font id="Flamenco-Regular" horiz-adv-x="450" >
  <font-face 
    font-family="Flamenco"
    font-weight="400"
    font-stretch="normal"
    units-per-em="1000"
    panose-1="2 0 0 0 0 0 0 0 0 0"
    ascent="800"
    descent="-200"
    x-height="382"
    cap-height="608"
    bbox="-31.36 -229 1287 800"
    underline-thickness="50"
    underline-position="-150"
    unicode-range="U+0020-FB02"
  />
<missing-glyph horiz-adv-x="230" 
 />
    <glyph glyph-name=".notdef" horiz-adv-x="230" 
 />
    <glyph glyph-name=".null" horiz-adv-x="0" 
 />
    <glyph glyph-name="nonmarkingreturn" horiz-adv-x="333" 
 />
    <glyph glyph-name="space" unicode=" " horiz-adv-x="220" 
 />
    <glyph glyph-name="exclam" unicode="!" horiz-adv-x="228" 
d="M80 24q0 14 9 23.5t25 9.5t25 -9.5t9 -23.5t-9 -24t-25 -10t-25 10t-9 24zM114 618q14 0 23 -6.5t9 -16.5l-9 -476q0 -9 -6.5 -15t-16.5 -6t-16.5 6t-6.5 15l-9 476q0 10 9 16.5t23 6.5z" />
    <glyph glyph-name="quotedbl" unicode="&#x22;" horiz-adv-x="250" 
d="M57.5 754q7.5 6 19 6t19 -6t6.5 -17l-8 -82q-2 -19 -17.5 -19t-17.5 19l-8 82q-1 11 6.5 17zM154.5 754q7.5 6 19 6t19 -6t6.5 -17l-8 -82q-2 -19 -17.5 -19t-17.5 19l-8 82q-1 11 6.5 17z" />
    <glyph glyph-name="numbersign" unicode="#" horiz-adv-x="514" 
d="M458 354h-69l-22 -99h57q10 0 16.5 -7t6.5 -17t-6.5 -16.5t-16.5 -6.5h-68l-45 -201q-3 -17 -20 -17t-26 8.5t-6 20.5l43 189h-135l-45 -201q-3 -17 -20 -17t-26 8.5t-6 20.5l43 189h-57q-10 0 -16.5 6.5t-6.5 16.5t6.5 17t16.5 7h67l23 99h-56q-10 0 -16.5 6.5
t-6.5 16.5t6.5 17t16.5 7h66l46 200q3 17 19 17t26 -8t7 -21l-43 -188h134l46 200q3 17 19 17t26 -8t7 -21l-43 -188h58q10 0 16.5 -7t6.5 -17t-6.5 -16.5t-16.5 -6.5zM200 354l-22 -99h134l23 99h-135z" />
    <glyph glyph-name="dollar" unicode="$" horiz-adv-x="553" 
d="M90 138v-69q60 -30 165 -32v262q-105 21 -156 56t-51 106q0 149 207 156v110q0 10 8 16.5t19 6.5t19 -6.5t8 -16.5v-110q106 -5 177 -44q15 -9 15 -21v-82q0 -10 -8 -16.5t-19 -6.5t-19 6.5t-8 16.5v69q-53 24 -138 31v-228q156 -33 195 -107q17 -32 17 -75
q0 -71 -55 -116t-157 -52v-133q0 -10 -8 -16.5t-19 -6.5t-19 6.5t-8 16.5v131q-55 2 -115 14q-104 22 -104 52v82q0 10 8 16.5t19 6.5t19 -6.5t8 -16.5zM425.5 77.5q41.5 31.5 41.5 84t-39.5 80t-118.5 45.5v-248q75 7 116.5 38.5zM102 461q0 -46 39 -69t114 -39v217
q-153 -7 -153 -109z" />
    <glyph glyph-name="percent" unicode="%" horiz-adv-x="590" 
d="M518 29.5q-35 -39.5 -96 -39.5t-96.5 38.5t-35.5 104t35.5 103.5t97 38t96 -40t34.5 -102.5t-35 -102zM479 202q-21 26 -57.5 26t-57 -25.5t-20.5 -70.5t20.5 -70.5t57 -25.5t57.5 26t21 70t-21 70zM266 373.5q-35 -39.5 -96 -39.5t-96.5 38.5t-35.5 104t35.5 103.5
t97 38t96 -40t34.5 -102.5t-35 -102zM227 546q-21 26 -57.5 26t-57 -25.5t-20.5 -70.5t20.5 -70.5t57 -25.5t57.5 26t21 70t-21 70zM121 8q-7 -12 -16 -12t-21 7t-12 15t5 15l394 568q7 12 16 12t21 -7t12 -15.5t-5 -14.5z" />
    <glyph glyph-name="ampersand" unicode="&#x26;" horiz-adv-x="539" 
d="M128 226q-26 -41 -26 -88t32.5 -74.5t97 -27.5t130.5 62q-92 92 -169 198q-39 -29 -65 -70zM247 572q-33 0 -51.5 -18t-21.5 -33t-3 -31q0 -60 38 -127q40 29 70 65.5t30 68.5q0 75 -62 75zM505 241q0 -4 -1 -9q-18 -63 -76 -133l71 -70q6 -7 6 -17t-8.5 -16t-17.5 -6
t-19 9l-67 65q-81 -74 -166 -74t-132 40t-47 113q0 99 119 190q-50 82 -50 149t35 101.5t92.5 34.5t87.5 -34t30 -89q0 -79 -128 -169q71 -99 160 -191q40 51 60 111q4 11 13.5 16t19.5 1q18 -6 18 -22z" />
    <glyph glyph-name="quotesingle" unicode="'" horiz-adv-x="153" 
d="M57.5 754q7.5 6 19 6t19 -6t6.5 -17l-8 -82q-2 -19 -17.5 -19t-17.5 19l-8 82q-1 11 6.5 17z" />
    <glyph glyph-name="parenleft" unicode="(" horiz-adv-x="251" 
d="M45 244q0 121 38 227t107 150q7 5 15.5 5t14.5 -9.5t6 -18t-11 -16.5q-51 -38 -83.5 -135t-32.5 -203t32.5 -203t83.5 -135q11 -8 11 -16.5t-6 -18t-14.5 -9.5t-15.5 5q-69 44 -107 150t-38 227z" />
    <glyph glyph-name="parenright" unicode=")" horiz-adv-x="251" 
d="M206 244q0 -121 -38 -227t-107 -150q-7 -5 -15.5 -5t-14.5 9.5t-6 18t11 16.5q51 38 83.5 135t32.5 203t-32.5 203t-83.5 135q-11 8 -11 16.5t6 18t14.5 9.5t15.5 -5q69 -44 107 -150t38 -227z" />
    <glyph glyph-name="asterisk" unicode="*" horiz-adv-x="402" 
d="M178 737q0 10 7 16.5t17 6.5t16.5 -6.5t6.5 -16.5v-115l99 57q7 3 15.5 3t14 -9t5.5 -14q0 -14 -11 -21l-99 -56l98 -55q13 -8 13 -16t-5 -15q-7 -14 -15.5 -14t-15.5 4l-99 56v-114q0 -10 -6.5 -16.5t-16.5 -6.5t-17 6.5t-7 16.5v113l-99 -56q-7 -4 -16 -4t-14 10.5
t-5 18.5t12 16l98 56l-99 57q-13 7 -13 15.5t5 16.5t14 10.5t17 -2.5l100 -57v115z" />
    <glyph glyph-name="plus" unicode="+" horiz-adv-x="363" 
d="M204 336v-93h94q10 0 16.5 -7t6.5 -17t-6.5 -16.5t-16.5 -6.5h-94v-93q0 -10 -6.5 -16.5t-16.5 -6.5t-17 6.5t-7 16.5v93h-92q-10 0 -16.5 6.5t-6.5 16.5t6.5 17t16.5 7h92v93q0 10 7 16.5t17 6.5t16.5 -6.5t6.5 -16.5z" />
    <glyph glyph-name="comma" unicode="," horiz-adv-x="198" 
d="M63 26q0 15 9.5 25.5t26.5 10.5t27 -10.5t10 -25.5q0 -37 -24 -67t-45 -30q-11 0 -11 9q0 6 7 12q19 15 25 42q-25 6 -25 34z" />
    <glyph glyph-name="hyphen" unicode="-" horiz-adv-x="399" 
d="M316 196h-233q-10 0 -16.5 6.5t-6.5 16.5t6.5 17t16.5 7h233q10 0 16.5 -7t6.5 -17t-6.5 -16.5t-16.5 -6.5z" />
    <glyph glyph-name="period" unicode="." horiz-adv-x="193" 
d="M60 26q0 15 9.5 25.5t26.5 10.5t27 -10.5t10 -25.5t-10 -25.5t-27 -10.5t-26.5 10.5t-9.5 25.5z" />
    <glyph glyph-name="slash" unicode="/" horiz-adv-x="496" 
d="M73 8q-7 -12 -16 -12t-21 7t-12 15t5 15l394 568q7 12 16 12t21 -7t12 -15.5t-5 -14.5z" />
    <glyph glyph-name="zero" unicode="0" 
d="M315 77.5q32 41.5 32 110t-32 109.5t-91 41t-91 -41t-32 -109.5t32 -110t91 -41.5t91 41.5zM48 188q0 88 46.5 142t130 54t130 -54t46.5 -142.5t-46.5 -143t-130 -54.5t-130 55t-46.5 143z" />
    <glyph glyph-name="one" unicode="1" horiz-adv-x="302" 
d="M163 384q26 0 26 -21v-316h66q10 0 16.5 -7t6.5 -17t-6.5 -16.5t-16.5 -6.5h-186q-10 0 -16.5 6.5t-6.5 16.5t6.5 17t16.5 7h66v253q-37 -35 -61 -35q-10 0 -16.5 6t-6.5 19t14 19q44 19 74 62q10 13 24 13z" />
    <glyph glyph-name="two" unicode="2" horiz-adv-x="448" 
d="M341 46v59q0 10 8 16.5t19 6.5t19 -6.5t8 -16.5v-83q0 -22 -24 -22h-299q-24 0 -24 25t10 48.5t23.5 39.5t39.5 33q40 25 99.5 51.5t84 44t24.5 40.5q0 56 -110 56q-63 0 -102 -16v-65q0 -10 -8 -16.5t-19 -6.5t-19 6.5t-8 16.5v79q0 13 17 21q56 27 139 27
q163 0 163 -102q0 -47 -44 -76q-32 -22 -80 -43t-63 -28.5t-39 -22.5q-43 -25 -53 -66h238z" />
    <glyph glyph-name="three" unicode="3" horiz-adv-x="472" 
d="M194 78q-23 3 -23 22.5t23 22.5q170 21 170 117q0 98 -131 98q-74 0 -123 -27v-67q0 -10 -8 -16.5t-19 -6.5t-19 6.5t-8 16.5v79q0 13 19 24q62 37 158 37q184 0 184 -144q0 -102 -114 -138q127 -41 127 -165q0 -79 -50.5 -122.5t-149.5 -43.5q-48 0 -96 13t-77 34
q-13 8 -13 19v81q0 10 8 16.5t19 6.5t19 -6.5t8 -16.5v-69q56 -32 132 -32q147 0 147 120.5t-183 140.5z" />
    <glyph glyph-name="four" unicode="4" horiz-adv-x="429" 
d="M326 47h67q10 0 16.5 -7t6.5 -17t-6.5 -16.5t-16.5 -6.5h-67v-206q0 -10 -8 -16.5t-19 -6.5t-19 6.5t-8 16.5v206h-234q-17 0 -22 12q-3 6 -3 11.5t4 11.5l191 335q8 14 17 14t18 -4t14 -13t0 -18l-174 -303h189v64q0 10 8 16.5t19 6.5t19 -6.5t8 -16.5v-63z" />
    <glyph glyph-name="five" unicode="5" horiz-adv-x="468" 
d="M101 -62v-84q58 -37 129 -37t109 45.5t38 104.5q0 162 -152 162q-44 0 -88.5 -10t-50.5 -10q-20 0 -20 15v229q0 21 23 21h293q10 0 16.5 -7t6.5 -17t-6.5 -16.5t-16.5 -6.5h-263v-167q50 15 104 15q101 0 154 -53t53 -146t-55.5 -149t-150 -56t-164.5 53q-13 11 -13 22
v92q0 10 8 16.5t19 6.5t19 -6.5t8 -16.5z" />
    <glyph glyph-name="six" unicode="6" horiz-adv-x="462" 
d="M344 296q-36 42 -89.5 42t-92.5 -28t-61 -59q1 -104 36 -159.5t99.5 -55.5t104 42t39.5 109t-36 109zM338 761q22 0 22 -26q0 -17 -17 -20q-113 -18 -175 -122t-66 -282q63 73 150.5 73t134.5 -55.5t47 -141t-54.5 -141.5t-140.5 -56q-73 0 -128 51q-64 60 -64 217
q0 230 70 354t214 148q4 1 7 1z" />
    <glyph glyph-name="seven" unicode="7" horiz-adv-x="414" 
d="M146 -206q0 98 27.5 178.5t86.5 164.5q27 38 38.5 56.5t25.5 56t17 78.5h-265v-57q0 -10 -8 -16.5t-19 -6.5t-19 6.5t-8 16.5v81q0 22 23 22h328q23 0 23 -23q0 -82 -30 -140q-17 -33 -27 -48.5t-46.5 -66.5t-64.5 -124t-28 -178q0 -10 -8 -16.5t-19 -6.5t-19 6.5
t-8 16.5z" />
    <glyph glyph-name="eight" unicode="8" horiz-adv-x="516" 
d="M412.5 44.5q-59.5 -54.5 -156 -54.5t-154.5 52t-58 135t42.5 130t117.5 85q-70 37 -104.5 82t-34.5 117.5t52 120.5t141 48t141 -48.5t52 -120t-34 -115t-106 -80.5q75 -38 118 -86.5t43 -129.5t-59.5 -135.5zM139 289q-41 -41 -41 -106.5t42 -106t116 -40.5t118 41.5
t44 107.5q0 68 -56 115q-42 36 -107 68q-75 -38 -116 -79zM257 714q-44 0 -74 -14.5t-43 -37.5q-22 -39 -22 -78q0 -57 36 -94t105 -71q69 33 103.5 70t34.5 95.5t-37.5 94t-102.5 35.5z" />
    <glyph glyph-name="nine" unicode="9" horiz-adv-x="455" 
d="M359 69q-58 -58 -144.5 -58t-135.5 52.5t-49 136t54 134t140 50.5q134 0 172 -112q20 -60 20 -141t-27 -151.5t-91 -130t-153 -75.5q-13 -3 -23 -3q-29 0 -29 21t20 24q96 14 160 84.5t86 168.5zM224 338q-63 0 -102 -38t-39 -103t36 -102.5t89.5 -37.5t92.5 21.5
t62 48.5q0 154 -67 193q-29 18 -72 18z" />
    <glyph glyph-name="colon" unicode=":" horiz-adv-x="193" 
d="M60 26q0 15 9.5 25.5t26.5 10.5t27 -10.5t10 -25.5t-10 -25.5t-27 -10.5t-26.5 10.5t-9.5 25.5zM60 348q0 15 9.5 25.5t26.5 10.5t27 -10.5t10 -25.5t-10 -25.5t-27 -10.5t-26.5 10.5t-9.5 25.5z" />
    <glyph glyph-name="semicolon" unicode=";" horiz-adv-x="204" 
d="M67 348q0 15 9.5 25.5t26.5 10.5t27 -10.5t10 -25.5t-10 -25.5t-27 -10.5t-26.5 10.5t-9.5 25.5zM67 26q0 15 9.5 25.5t26.5 10.5t27 -10.5t10 -25.5q0 -37 -24 -67t-45 -30q-11 0 -11 9q0 6 7 12q19 15 25 42q-25 6 -25 34z" />
    <glyph glyph-name="less" unicode="&#x3c;" horiz-adv-x="432" 
d="M44 214q-12 8 -12 20.5t12 20.5l291 185q6 3 14 3t15.5 -11.5t7.5 -20t-9 -13.5l-263 -163l263 -163q9 -5 9 -13.5t-7.5 -20t-15.5 -11.5t-14 3z" />
    <glyph glyph-name="equal" unicode="=" horiz-adv-x="426" 
d="M339 252h-252q-10 0 -16.5 6.5t-6.5 16.5t6.5 17t16.5 7h252q10 0 16.5 -7t6.5 -17t-6.5 -16.5t-16.5 -6.5zM339 140h-252q-10 0 -16.5 6.5t-6.5 16.5t6.5 17t16.5 7h252q10 0 16.5 -7t6.5 -17t-6.5 -16.5t-16.5 -6.5z" />
    <glyph glyph-name="greater" unicode="&#x3e;" horiz-adv-x="432" 
d="M96 30q-6 -3 -14 -3t-15.5 11.5t-7.5 20t9 13.5l263 163l-263 163q-9 5 -9 13.5t7.5 20t15.5 11.5t14 -3l291 -185q12 -8 12 -20.5t-12 -20.5z" />
    <glyph glyph-name="question" unicode="?" horiz-adv-x="472" 
d="M168 160q0 88 56 138q24 20 61.5 44t54.5 37.5t32 40t15 59.5q0 93 -156 93q-87 0 -144 -26v-73q0 -10 -8 -16.5t-19 -6.5t-18.5 6.5t-7.5 16.5v81q0 19 24 30q70 34 173 34q210 0 210 -139q0 -67 -37 -107q-29 -31 -67 -55t-51 -33.5t-30 -27.5q-34 -36 -34 -96
q0 -10 -8 -16.5t-19 -6.5t-19 6.5t-8 16.5zM160 25q0 14 9.5 24.5t25.5 10.5t26 -10.5t10 -24.5t-10 -24.5t-26 -10.5t-25.5 10.5t-9.5 24.5z" />
    <glyph glyph-name="at" unicode="@" horiz-adv-x="876" 
d="M441 -228q-181 0 -290 118.5t-109 303.5t110.5 304.5t292 119.5t290.5 -120t109 -303q0 -93 -50.5 -159.5t-131.5 -66.5q-103 0 -103 95q-21 -30 -61 -52t-81 -22q-88 0 -130 55t-42 142t48 142t127 55t137 -53v30q0 10 8 16.5t19 6.5t19 -6.5t8 -16.5v-296q0 -22 13 -36
t38 -14q56 0 92 51.5t36 128.5q0 168 -97.5 272.5t-251 104.5t-249.5 -104.5t-96 -273t96 -272.5t249 -104q118 0 210 65q7 5 15 5t15.5 -9.5t8 -19t-6.5 -14.5q-103 -73 -242 -73zM423 338q-57 0 -91 -41.5t-34 -111t30 -109.5t90 -40q39 0 76.5 24t62.5 69v149
q-62 60 -134 60z" />
    <glyph glyph-name="A" unicode="A" horiz-adv-x="622" 
d="M315 537l-145 -300h291zM230 608h89q16 0 22 -12l283 -572q2 -4 2 -9q0 -17 -16 -23q-6 -2 -11 -2q-17 0 -23 13l-93 188h-335l-93 -188q-9 -20 -34 -11q-16 6 -16 22q0 4 2 9l266 538h-43q-10 0 -16.5 6.5t-6.5 16.5t6.5 17t16.5 7z" />
    <glyph glyph-name="B" unicode="B" horiz-adv-x="612" 
d="M48 608h278q105 0 155.5 -37.5t50.5 -123t-69 -121.5q104 -37 104 -154q0 -172 -222 -172h-216q-12 0 -20 6.5t-8 16.5v538h-53q-10 0 -16.5 6.5t-6.5 16.5t6.5 17t16.5 7zM155 297v-250h190q85 0 126 30t41 95q0 125 -151 125h-206zM155 561v-217h194q59 0 94 28
t35 82.5t-37 80.5t-115 26h-171z" />
    <glyph glyph-name="C" unicode="C" horiz-adv-x="610" 
d="M532 121q7 10 16 10t19.5 -8.5t10.5 -16.5t-6 -15q-84 -101 -231 -101q-130 0 -212 86.5t-82 226.5t82 227.5t206.5 87.5t207.5 -48q15 -8 15 -21v-86q0 -10 -8 -16.5t-19 -6.5t-19 6.5t-8 16.5v74q-74 34 -163 34q-107 0 -173.5 -74.5t-66.5 -192.5t66.5 -192.5
t181 -74.5t183.5 84z" />
    <glyph glyph-name="D" unicode="D" horiz-adv-x="657" 
d="M156 561v-514h153q116 0 181.5 67.5t65.5 188t-67 189.5t-180 69h-153zM102 561h-60q-10 0 -16.5 6.5t-6.5 16.5t6.5 17t16.5 7h267q136 0 218.5 -82.5t82.5 -222.5t-81 -221.5t-220 -81.5h-181q-26 0 -26 23v538z" />
    <glyph glyph-name="E" unicode="E" horiz-adv-x="580" 
d="M43 608h469q26 0 26 -24v-82q0 -10 -8 -16.5t-19 -6.5t-19 6.5t-8 16.5v59h-328v-232h282v37q0 10 7.5 16.5t18.5 6.5t18.5 -6.5t7.5 -16.5v-122q0 -10 -7.5 -16.5t-18.5 -6.5t-18.5 6.5t-7.5 16.5v38h-282v-235h355q12 0 19.5 -6.5t7.5 -16.5t-8 -17t-19 -7h-384
q-25 0 -25 22v539h-59q-10 0 -16.5 6.5t-6.5 16.5t6.5 17t16.5 7z" />
    <glyph glyph-name="F" unicode="F" horiz-adv-x="538" 
d="M102 561h-59q-10 0 -16.5 6.5t-6.5 16.5t6.5 17t16.5 7h442q26 0 26 -24v-82q0 -10 -8 -16.5t-19 -6.5t-19 6.5t-8 16.5v59h-301v-232h253v37q0 10 7.5 16.5t18.5 6.5t18.5 -6.5t7.5 -16.5v-122q0 -10 -7.5 -16.5t-18.5 -6.5t-18.5 6.5t-7.5 16.5v38h-253v-269
q0 -10 -8 -16.5t-19 -6.5t-19 6.5t-8 16.5v548z" />
    <glyph glyph-name="G" unicode="G" horiz-adv-x="629" 
d="M516 13v40q-77 -63 -178 -63q-130 0 -211 90.5t-81 228t83.5 223.5t204.5 86t208 -49q16 -8 16 -21v-86q0 -10 -8 -16.5t-19 -6.5t-19 6.5t-8 16.5v73q-75 36 -163 36q-108 0 -174.5 -73.5t-66.5 -191.5t67 -193.5t170 -75.5t179 65v150h-150q-10 0 -16.5 6.5t-6.5 16.5
t6.5 17t16.5 7h178q26 0 26 -23v-263q0 -10 -8 -16.5t-19 -6.5t-19 6.5t-8 16.5z" />
    <glyph glyph-name="H" unicode="H" horiz-adv-x="679" 
d="M600 47h37q10 0 16.5 -7t6.5 -17t-6.5 -16.5t-16.5 -6.5h-37q-44 0 -60.5 19t-16.5 43v220h-367v-269q0 -10 -8 -16.5t-19 -6.5t-19 6.5t-8 16.5v548h-58q-10 0 -16.5 6.5t-6.5 16.5t6.5 17t16.5 7h86q10 0 18 -7t8 -17v-255h367v232h-59q-10 0 -16.5 6.5t-6.5 16.5
t6.5 17t16.5 7h87q10 0 18 -7t8 -17v-522q0 -15 23 -15z" />
    <glyph glyph-name="I" unicode="I" horiz-adv-x="278" 
d="M112 47v514h-59q-10 0 -16.5 6.5t-6.5 16.5t6.5 17t16.5 7h172q10 0 16.5 -7t6.5 -17t-6.5 -16.5t-16.5 -6.5h-59v-514h59q10 0 16.5 -6.5t6.5 -16.5t-6.5 -17t-16.5 -7h-172q-10 0 -16.5 7t-6.5 17t6.5 16.5t16.5 6.5h59z" />
    <glyph glyph-name="J" unicode="J" horiz-adv-x="258" 
d="M20 -200q-23 0 -23 25q0 14 19 20q50 15 68 54.5t18 108.5v553h-59q-10 0 -16.5 6.5t-6.5 16.5t6.5 17t16.5 7h172q10 0 16.5 -7t6.5 -17t-6.5 -16.5t-16.5 -6.5h-59v-556q0 -87 -25.5 -131t-85.5 -69q-13 -5 -25 -5z" />
    <glyph glyph-name="K" unicode="K" horiz-adv-x="584" 
d="M552 29q6 -7 6 -15t-11.5 -16.5t-20.5 -8.5t-16 9l-232 295l-122 -142v-138q0 -10 -8 -16.5t-19 -6.5t-19 6.5t-8 16.5v548h-59q-10 0 -16.5 6.5t-6.5 16.5t6.5 17t16.5 7h87q26 0 26 -24v-358l285 335h-25q-10 0 -16.5 6.5t-6.5 16.5t6.5 17t16.5 7h144q10 0 16.5 -7
t6.5 -17t-6.5 -16.5t-16.5 -6.5h-52l-195 -228z" />
    <glyph glyph-name="L" unicode="L" horiz-adv-x="543" 
d="M531 106v-83q0 -23 -23 -23h-378q-17 0 -22.5 6t-5.5 18v537h-59q-10 0 -16.5 6.5t-6.5 16.5t6.5 17t16.5 7h172q10 0 16.5 -7t6.5 -17t-6.5 -16.5t-16.5 -6.5h-59v-514h321v59q0 10 8 16.5t19 6.5t19 -6.5t8 -16.5z" />
    <glyph glyph-name="M" unicode="M" horiz-adv-x="814" 
d="M102 13v548h-60q-10 0 -16.5 6.5t-6.5 16.5t6.5 17t16.5 7h83q16 0 26 -12l251 -343l250 342q9 13 25 13h85q10 0 16.5 -7t6.5 -17t-6.5 -16.5t-16.5 -6.5h-60v-499q0 -15 23 -15h37q10 0 16.5 -7t6.5 -17t-6.5 -16.5t-16.5 -6.5h-37q-77 0 -77 62v441l-224 -306
q-8 -11 -22 -11t-22 11l-224 306v-490q0 -10 -8 -16.5t-19 -6.5t-19 6.5t-8 16.5z" />
    <glyph glyph-name="N" unicode="N" horiz-adv-x="698" 
d="M156 13q0 -10 -8 -16.5t-19 -6.5t-19 6.5t-8 16.5v548h-55q-11 0 -19 7t-8 17t7.5 16.5t19.5 6.5h78q16 0 25 -10l392 -504v467h-59q-10 0 -16.5 6.5t-6.5 16.5t6.5 17t16.5 7h172q10 0 16.5 -7t6.5 -17t-6.5 -16.5t-16.5 -6.5h-59v-545q0 -26 -26 -26q-14 0 -24 14
l-390 502v-493z" />
    <glyph glyph-name="O" unicode="O" horiz-adv-x="696" 
d="M46 304q0 136 84.5 225t217.5 89t217.5 -89t84.5 -225.5t-84.5 -225t-217.5 -88.5t-217.5 89t-84.5 225zM100 304q0 -116 69 -191.5t179 -75.5t179 75.5t69 191.5t-69 191.5t-179 75.5t-179 -75.5t-69 -191.5z" />
    <glyph glyph-name="P" unicode="P" horiz-adv-x="603" 
d="M102 13v548h-59q-10 0 -16.5 6.5t-6.5 16.5t6.5 17t16.5 7h314q218 0 218 -196.5t-218 -196.5h-201v-202q0 -10 -8 -16.5t-19 -6.5t-19 6.5t-8 16.5zM156 561v-300h201q164 0 164 150t-164 150h-201z" />
    <glyph glyph-name="Q" unicode="Q" horiz-adv-x="697" 
d="M329 185q-5 6 -5 14t10.5 16.5t19 8.5t16.5 -9l120 -136q48 34 77 94t29 131q0 116 -69 191.5t-179 75.5t-179 -75.5t-69 -191.5t69 -191.5t179 -75.5q56 0 95 16zM348 -10q-133 0 -217.5 88.5t-84.5 225t84.5 225.5t217.5 89t217.5 -89t84.5 -225q0 -84 -34 -153
t-94 -110l99 -108q5 -6 5 -14t-10.5 -16.5t-19 -8.5t-16.5 9l-104 113q-60 -26 -128 -26z" />
    <glyph glyph-name="R" unicode="R" horiz-adv-x="634" 
d="M156 561v-282h200q165 0 165 142q0 75 -41.5 107.5t-123.5 32.5h-200zM156 233v-220q0 -10 -8 -16.5t-19 -6.5t-19 6.5t-8 16.5v548h-60q-10 0 -16.5 6.5t-6.5 16.5t6.5 17t16.5 7h314q219 0 219 -187q0 -135 -119 -174l129 -223q2 -4 2 -9q0 -14 -11.5 -20t-20.5 -6
t-16 11l-137 235q-26 -2 -46 -2h-200z" />
    <glyph glyph-name="S" unicode="S" horiz-adv-x="578" 
d="M102 138v-69q67 -32 170 -32t155 32.5t52 92t-49 88.5t-156 49.5t-160.5 54.5t-53.5 107q0 157 233 157q124 0 205 -45q15 -9 15 -21v-82q0 -10 -8 -16.5t-19 -6.5t-19 6.5t-8 16.5v69q-69 32 -163.5 32t-138 -27t-43.5 -83q0 -53 56 -79q38 -19 102.5 -32.5t91.5 -20.5
t63 -21.5t56 -32.5t35 -47.5t15 -67.5q0 -78 -65.5 -124t-187.5 -46q-56 0 -121 12.5t-98 33.5q-13 8 -13 20v82q0 10 8 16.5t19 6.5t19 -6.5t8 -16.5z" />
    <glyph glyph-name="T" unicode="T" horiz-adv-x="586" 
d="M266 13v548h-198v-59q0 -10 -8 -16.5t-19 -6.5t-19 6.5t-8 16.5v82q0 10 8 17t18 7h505q11 0 19 -7t8 -17v-82q0 -10 -8 -16.5t-19 -6.5t-19 6.5t-8 16.5v59h-198v-548q0 -10 -8 -16.5t-19 -6.5t-19 6.5t-8 16.5z" />
    <glyph glyph-name="U" unicode="U" horiz-adv-x="646" 
d="M454 608h87q26 0 26 -24v-394q0 -92 -69.5 -146t-171.5 -54t-168 56t-66 144v371h-59q-10 0 -16.5 6.5t-6.5 16.5t6.5 17t16.5 7h87q10 0 18 -7t8 -17v-394q0 -68 51 -110.5t132 -42.5t132.5 42.5t51.5 110.5v371h-59q-10 0 -16.5 6.5t-6.5 16.5t6.5 17t16.5 7z" />
    <glyph glyph-name="V" unicode="V" horiz-adv-x="594" 
d="M322 10q-8 -15 -25 -15t-24 14l-271 576q-2 5 -2 9q0 16 16 22q6 2 11 2q17 0 23 -13l247 -530l246 530q6 13 17 13q24 0 31 -16q2 -4 2 -9t-2 -9z" />
    <glyph glyph-name="W" unicode="W" horiz-adv-x="828" 
d="M284.5 604q4.5 9 12.5 11.5t13 2.5q17 0 23 -14l81 -195l82 196q6 13 17 13t19 -3t12 -12.5t0 -18.5l-101 -238l111 -272l221 531q6 13 17 13q24 0 31 -16q2 -4 2 -9t-2 -9l-243 -577q-6 -17 -26 -17t-26 17l-114 272l-114 -272q-6 -17 -25.5 -17t-25.5 17l-245 579
q-2 4 -2 9q0 16 17 21q6 2 11 2q17 0 23 -14l223 -529l110 271l-102 240q-4 9 0.5 18z" />
    <glyph glyph-name="X" unicode="X" horiz-adv-x="604" 
d="M60 -2q-7 -9 -16 -9t-19.5 8.5t-10.5 16.5t6 15l248 280l-240 270q-6 7 -6 15t10.5 16.5t19.5 8.5t16 -9l234 -266l234 266q7 9 16 9t19.5 -8.5t10.5 -16.5t-6 -15l-240 -271l249 -279q6 -7 6 -15t-10.5 -16.5t-19.5 -8.5t-16 9l-242 275z" />
    <glyph glyph-name="Y" unicode="Y" horiz-adv-x="562" 
d="M514 608q8 11 17 11t18 -5q12 -7 12 -17.5t-3 -15.5l-250 -359v-209q0 -10 -8 -16.5t-19 -6.5t-19 6.5t-8 16.5v207l-251 362q-3 5 -3 9q0 16 11 22t20.5 6t16.5 -12l233 -341z" />
    <glyph glyph-name="Z" unicode="Z" horiz-adv-x="597" 
d="M557 125v-101q0 -10 -8 -17t-20 -7h-462q-11 0 -19 7t-8 17q0 92 76 170q38 40 74 69t90 67l29 21q51 37 81.5 63t61 66.5t37.5 80.5h-385v-78q0 -10 -8 -16.5t-19 -6.5t-19 6.5t-8 16.5v102q0 9 8 16t19 7h440q11 0 19.5 -7t8.5 -16q0 -84 -73 -159q-37 -38 -64 -60.5
t-72 -55.5l-50 -37q-54 -39 -85.5 -66t-64.5 -71.5t-40 -88.5h407v78q0 10 8 16.5t19 6.5t19 -6.5t8 -16.5z" />
    <glyph glyph-name="bracketleft" unicode="[" horiz-adv-x="289" 
d="M138 561v-616h99q10 0 16.5 -6.5t6.5 -16.5t-6.5 -17t-16.5 -7h-126q-26 0 -26 23v664q0 23 26 23h126q10 0 16.5 -7t6.5 -17t-6.5 -16.5t-16.5 -6.5h-99z" />
    <glyph glyph-name="backslash" unicode="\" horiz-adv-x="384" 
d="M32 579q-2 4 -2 9q0 14 17 21q7 2 16 2t16 -13l273 -571q2 -4 2 -9q0 -14 -17 -21q-6 -2 -16 -2t-17 15z" />
    <glyph glyph-name="bracketright" unicode="]" horiz-adv-x="289" 
d="M151 -55v616h-99q-10 0 -16.5 6.5t-6.5 16.5t6.5 17t16.5 7h126q26 0 26 -23v-664q0 -23 -26 -23h-126q-10 0 -16.5 7t-6.5 17t6.5 16.5t16.5 6.5h99z" />
    <glyph glyph-name="asciicircum" unicode="^" horiz-adv-x="219" 
d="M35 380q-6 -9 -13 -9t-12.5 5t-5.5 11t4 13l79 134q8 12 22.5 12t21.5 -12l79 -134q4 -7 4 -13t-5.5 -11t-12.5 -5t-13 9l-74 110z" />
    <glyph glyph-name="underscore" unicode="_" horiz-adv-x="539" 
d="M406 -71h-273q-10 0 -16.5 6.5t-6.5 16.5t6.5 17t16.5 7h273q10 0 16.5 -7t6.5 -17t-6.5 -16.5t-16.5 -6.5z" />
    <glyph glyph-name="grave" unicode="`" horiz-adv-x="162" 
d="M124 484q6 -7 6 -13.5t-5 -11.5t-11.5 -5t-13.5 6l-62 55q-10 9 -10 17t8 16t16 8t17 -10z" />
    <glyph glyph-name="a" unicode="a" 
d="M314 155q-66 18 -112.5 18t-76 -18t-29.5 -50.5t19 -50.5t52 -18q92 0 147 100v19zM394 47h39q10 0 16.5 -7t6.5 -17t-6.5 -16.5t-16.5 -6.5h-44q-36 0 -55.5 16t-19.5 45q0 5 1 11q-53 -82 -154 -82q-56 0 -87.5 30t-31.5 83.5t42.5 84t106 30.5t123.5 -21v69
q0 48 -35 62q-27 10 -74.5 10t-87.5 -16v-63q0 -10 -8 -16.5t-19 -6.5t-19 6.5t-8 16.5v76q0 13 13 20q49 29 130 29t121 -26.5t40 -91.5v-200q0 -19 27 -19z" />
    <glyph glyph-name="b" unicode="b" horiz-adv-x="476" 
d="M121 96q66 -60 128.5 -60t96.5 42t34 111t-33.5 109t-91.5 40q-82 0 -134 -93v-149zM67 703h-66q-10 0 -16.5 6.5t-6.5 16.5t6.5 17t16.5 7h93q10 0 18.5 -7t8.5 -17v-418q51 76 136 76t130.5 -54t45.5 -142t-47 -143t-125 -55t-140 57v-34q0 -10 -8 -16.5t-19 -6.5
t-19 6.5t-8 16.5v690z" />
    <glyph glyph-name="c" unicode="c" horiz-adv-x="430" 
d="M346 96q8 12 16.5 12t17.5 -4q14 -6 14 -16.5t-3 -15.5q-51 -82 -162 -82q-85 0 -136 57.5t-51 141.5t53.5 139.5t133 55.5t138.5 -37q12 -8 12 -19v-84q0 -10 -8 -16.5t-19 -6.5t-19 6.5t-8 16.5v71q-40 23 -96 23t-95 -42t-39 -108.5t37.5 -109t96.5 -42.5q78 0 117 60
z" />
    <glyph glyph-name="d" unicode="d" horiz-adv-x="506" 
d="M220 338q-57 0 -91 -41t-34 -111t33.5 -110t91.5 -40q84 0 134 95v147q-26 25 -62.5 42.5t-71.5 17.5zM354 703h-66q-10 0 -16.5 6.5t-6.5 16.5t6.5 17t16.5 7h93q11 0 19 -7t8 -17v-660q0 -19 20 -19h46q10 0 16.5 -6.5t6.5 -16.5t-6.5 -17t-16.5 -7h-53q-65 0 -63 71
q-22 -34 -57.5 -57.5t-80.5 -23.5q-89 0 -133.5 57t-44.5 141t46.5 140t127.5 56t138 -53v372z" />
    <glyph glyph-name="e" unicode="e" horiz-adv-x="440" 
d="M314.5 306q-28.5 32 -82 32t-89.5 -32.5t-45 -85.5h248q-3 54 -31.5 86zM348 96q7 12 16 12t18 -4.5t12.5 -14t-1.5 -17.5q-51 -82 -162 -82q-88 0 -138.5 56.5t-50.5 142.5t52 140.5t137 54.5t126.5 -51t41.5 -136q0 -23 -26 -23l-277 -1q4 -62 40.5 -99.5t94.5 -37.5
q78 0 117 60z" />
    <glyph glyph-name="f" unicode="f" horiz-adv-x="364" 
d="M29 -226q-11 -3 -19 -3t-14.5 6t-6.5 16q0 18 23 24q52 16 72 59.5t20 117.5v333h-61q-10 0 -16.5 6.5t-6.5 16.5t6.5 17t16.5 7h61v226q0 87 36.5 123.5t112.5 36.5t130 -33q12 -7 12 -18v-86q0 -10 -8 -16.5t-19 -6.5t-19 6.5t-8 16.5v75q-35 16 -87 16t-74.5 -26.5
t-22.5 -88.5v-225h174q10 0 16.5 -7t6.5 -17t-6.5 -16.5t-16.5 -6.5h-174v-333q0 -89 -27 -142t-101 -78z" />
    <glyph glyph-name="g" unicode="g" horiz-adv-x="415" 
d="M106 -11q-38 -22 -38 -65.5t36.5 -68.5t100.5 -25t115 22t51 60q0 41 -72 49q-25 2 -159 20q-22 4 -34 8zM289.5 312.5q-29.5 27.5 -76 27.5t-76 -27.5t-29.5 -71.5t29.5 -71.5t76 -27.5t76 27.5t29.5 71.5t-29.5 71.5zM349 514q16 0 22 -17q14 -35 14 -63q0 -58 -48 -98
q36 -37 36 -99t-46.5 -101.5t-113.5 -39.5q-30 0 -57 8q-23 -7 -40.5 -21.5t-17.5 -28.5q0 -19 50 -28q22 -3 159 -19q118 -15 118 -95q0 -62 -70.5 -95t-150 -33t-135 34.5t-55.5 96.5t53 94q-22 13 -22 45q0 44 69 71q-59 45 -59 112.5t44 108t106.5 40.5t98.5 -23
q27 27 27 69q0 21 -7 39q-12 30 12 40q7 3 13 3z" />
    <glyph glyph-name="h" unicode="h" horiz-adv-x="481" 
d="M121 13q0 -10 -8 -16.5t-19 -6.5t-19 6.5t-8 16.5v690h-66q-10 0 -16.5 6.5t-6.5 16.5t6.5 17t16.5 7h94q10 0 18 -7t8 -17v-419q62 79 147 79q56 0 89.5 -28.5t33.5 -79.5v-213q0 -18 27 -18h39q10 0 16.5 -7t6.5 -17t-6.5 -16.5t-16.5 -6.5h-39q-81 0 -81 65v213
q0 62 -69 62q-92 0 -147 -98v-229z" />
    <glyph glyph-name="i" unicode="i" horiz-adv-x="216" 
d="M149 13q0 -10 -8 -16.5t-19 -6.5t-19 6.5t-8 16.5v314h-66q-10 0 -16.5 6.5t-6.5 16.5t6.5 17t16.5 7h97q23 0 23 -23v-338zM84 548q0 14 9 24t25 10t25.5 -10t9.5 -24t-9.5 -24t-25.5 -10t-25 10t-9 24z" />
    <glyph glyph-name="j" unicode="j" horiz-adv-x="217" 
d="M85 548q0 14 9 24t25 10t25.5 -10t9.5 -24t-9.5 -24t-25.5 -10t-25 10t-9 24zM-19 -193q0 15 18 21q57 18 77 61t20 118v320h-66q-10 0 -16.5 6.5t-6.5 16.5t6.5 17t16.5 7h97q23 0 23 -23v-344q0 -88 -25.5 -138.5t-96.5 -79.5q-10 -4 -19 -4q-28 0 -28 22z" />
    <glyph glyph-name="k" unicode="k" horiz-adv-x="443" 
d="M121 212q44 -7 90 -7t85.5 18.5t39.5 59.5q0 57 -69 57q-93 0 -146 -98v-30zM404 36q10 0 16.5 -6.5t6.5 -16.5t-6.5 -16.5t-16.5 -6.5q-89 0 -162.5 48.5t-120.5 121.5v-147q0 -10 -8 -16.5t-19 -6.5t-19 6.5t-8 16.5v690h-66q-10 0 -16.5 6.5t-6.5 16.5t6.5 17t16.5 7
h93q10 0 18.5 -7t8.5 -17v-419q58 79 146 79q57 0 90 -26.5t33 -73.5t-30 -76q-49 -47 -138 -47q-33 0 -59 7q43 -57 108.5 -95.5t132.5 -38.5z" />
    <glyph glyph-name="l" unicode="l" horiz-adv-x="226" 
d="M153 47h39q10 0 16.5 -7t6.5 -17t-6.5 -16.5t-16.5 -6.5h-39q-81 0 -81 65v638h-66q-10 0 -16.5 6.5t-6.5 16.5t6.5 17t16.5 7h93q11 0 19 -7t8 -17v-660q0 -19 27 -19z" />
    <glyph glyph-name="m" unicode="m" horiz-adv-x="726" 
d="M636 276v-210q0 -19 27 -19h39q10 0 16.5 -7t6.5 -17t-6.5 -16.5t-16.5 -6.5h-39q-81 0 -81 65v211q0 62 -58 62q-78 0 -129 -87v-238q0 -10 -8 -16.5t-19 -6.5t-19 6.5t-8 16.5v263q0 62 -58 62q-45 0 -75.5 -23t-58.5 -72v-230q0 -10 -8 -16.5t-19 -6.5t-19 6.5
t-8 16.5v295q0 19 -19 19h-47q-10 0 -16.5 6.5t-6.5 16.5t6.5 17t16.5 7h54q62 0 62 -68q31 40 62.5 59t76.5 19q86 0 106 -72q30 36 61 54t78 18t77 -27.5t30 -80.5z" />
    <glyph glyph-name="n" unicode="n" horiz-adv-x="509" 
d="M76 327h-47q-10 0 -16.5 6.5t-6.5 16.5t6.5 17t16.5 7h54q62 0 62 -68q60 78 151 78q54 0 88.5 -27.5t34.5 -80.5v-210q0 -19 27 -19h39q10 0 16.5 -7t6.5 -17t-6.5 -16.5t-16.5 -6.5h-39q-81 0 -81 65v211q0 30 -18.5 46t-51.5 16q-92 0 -146 -96v-229q0 -10 -8 -16.5
t-19 -6.5t-19 6.5t-8 16.5v295q0 19 -19 19z" />
    <glyph glyph-name="o" unicode="o" horiz-adv-x="465" 
d="M332.5 78q38.5 42 38.5 108.5t-38.5 109t-99.5 42.5t-99.5 -42.5t-38.5 -109t38.5 -108.5t99.5 -42t99.5 42zM41 187q0 86 54 141.5t138 55.5t137.5 -55.5t53.5 -142t-53.5 -141.5t-138 -55t-138 55.5t-53.5 141.5z" />
    <glyph glyph-name="p" unicode="p" horiz-adv-x="505" 
d="M146 303q52 81 138.5 81t132 -55.5t45.5 -140.5t-46.5 -141.5t-129 -56.5t-136.5 57v-253q0 -10 -8 -16.5t-19 -6.5t-19 6.5t-8 16.5v514q0 19 -19 19h-47q-10 0 -16.5 6.5t-6.5 16.5t6.5 17t16.5 7h54q64 0 62 -71zM150 96q64 -60 128 -60t97.5 42t33.5 111t-33 109
t-91 40q-85 0 -135 -95v-147z" />
    <glyph glyph-name="q" unicode="q" horiz-adv-x="475" 
d="M382 -229q-28 0 -28 22v272q-23 -33 -58.5 -54t-75.5 -21q-87 0 -132.5 55t-45.5 141t47 142t126.5 56t138.5 -48v26q0 22 28 22q10 0 18 -6t8 -16v-569q0 -10 -8 -16t-18 -6zM354 285q-59 53 -125.5 53t-100 -40.5t-33.5 -110.5t33 -110.5t91 -40.5q84 0 135 95v154z
" />
    <glyph glyph-name="r" unicode="r" horiz-adv-x="376" 
d="M29 374h51q63 0 65 -68q54 78 128 78q42 0 71 -16q14 -8 14 -21v-84q0 -10 -8 -16.5t-19 -6.5t-19 6.5t-8 16.5v70q-13 5 -39 5t-59 -24.5t-57 -72.5v-228q0 -10 -8 -16.5t-19 -6.5t-19 6.5t-8 16.5v295q0 19 -20 19h-46q-10 0 -16.5 6.5t-6.5 16.5t6.5 17t16.5 7z" />
    <glyph glyph-name="s" unicode="s" horiz-adv-x="412" 
d="M46 39v81q0 10 8 16.5t19 6.5t19 -6.5t8 -16.5v-68q48 -16 100 -16q114 0 114 64q0 48 -107 71q-5 1 -22 5t-28 6.5t-36.5 12t-36.5 19.5q-30 27 -30 66.5t26.5 64t58.5 32t70 7.5q70 0 129 -27q18 -8 18 -22v-77q0 -10 -8 -16.5t-19 -6.5t-19 6.5t-8 16.5v64
q-40 16 -93 16q-102 0 -102 -58q0 -21 13.5 -29t20 -12t23.5 -8q24 -6 49 -11t41 -9t40.5 -13.5t38.5 -21.5q35 -28 35 -73t-29.5 -71.5t-64 -34t-74.5 -7.5q-79 0 -136 26q-18 8 -18 23z" />
    <glyph glyph-name="t" unicode="t" horiz-adv-x="379" 
d="M349.5 67q10.5 -2 14.5 -8.5t4 -11.5q0 -15 -11 -22q-60 -35 -129 -35t-99 28.5t-30 94.5v214h-56q-10 0 -16.5 6.5t-6.5 16.5t6.5 17t16.5 7h56v143q0 10 8 16.5t19 6.5t19 -6.5t8 -16.5v-143h168q10 0 16.5 -7t6.5 -17t-6.5 -16.5t-16.5 -6.5h-168v-214
q0 -42 17.5 -59.5t65 -17.5t95.5 28q8 5 18.5 3z" />
    <glyph glyph-name="u" unicode="u" horiz-adv-x="509" 
d="M433 47h47q10 0 16.5 -6.5t6.5 -16.5t-6.5 -17t-16.5 -7h-54q-62 0 -62 68q-60 -78 -151 -78q-54 0 -88.5 27.5t-34.5 80.5v210q0 19 -27 19h-39q-10 0 -16.5 7t-6.5 17t6.5 16.5t16.5 6.5h39q81 0 81 -65v-211q0 -30 18.5 -46t51.5 -16q92 0 146 96v229q0 10 8 16.5
t19 6.5t19 -6.5t8 -16.5v-295q0 -19 19 -19z" />
    <glyph glyph-name="v" unicode="v" horiz-adv-x="428" 
d="M355 370q7 15 16 15q24 0 33 -18q2 -5 2 -9.5t-2 -8.5l-164 -343q-8 -16 -25.5 -16t-25.5 16l-165 343q-2 4 -2 9q0 15 18 23q8 4 17.5 4t16.5 -15l141 -304z" />
    <glyph glyph-name="w" unicode="w" horiz-adv-x="607" 
d="M448 9q-7 -19 -26.5 -19t-24.5 18l-93 276l-93 -276q-5 -18 -24.5 -18t-26.5 18l-131 341q-2 5 -2 10q0 15 18 22q6 3 13 3q16 -2 21 -14l105 -280l94 278q5 16 25.5 16t25.5 -16l95 -279l105 281q6 15 15.5 15t17.5 -4q18 -7 18 -22q0 -5 -2 -10z" />
    <glyph glyph-name="x" unicode="x" horiz-adv-x="428" 
d="M61.5 0q-10.5 0 -20 8.5t-9.5 19t5 15.5l143 152l-137 146q-7 7 -5 17.5t10.5 18t19 7.5t17.5 -7l130 -145l128 145q7 7 17.5 7t19 -7.5t10.5 -18t-5 -17.5l-137 -146l143 -152q5 -5 5 -15.5t-9.5 -19t-20 -8.5t-17.5 7l-134 151l-136 -151q-7 -7 -17.5 -7z" />
    <glyph glyph-name="y" unicode="y" horiz-adv-x="432" 
d="M-11 -180l32 -3q49 0 80 41q24 31 53 91l34 70l-163 330q-4 9 0.5 18t14 13.5t19 4.5t16.5 -15l141 -296l141 296q7 15 16 15q24 0 33 -18q2 -5 2 -9.5t-2 -8.5l-204 -420q-19 -40 -30.5 -59.5t-33.5 -47.5q-43 -51 -118 -51q-21 0 -32 3q-22 5 -19 25.5t20 20.5z" />
    <glyph glyph-name="z" unicode="z" horiz-adv-x="436" 
d="M390 105v-83q0 -22 -26 -22h-301q-26 0 -26 25q0 49 34.5 87.5t100.5 83.5l36 25q96 66 113 115h-219v-56q0 -10 -8 -16.5t-19 -6.5t-19 6.5t-8 16.5v79q0 23 23 23h281q10 0 18 -6.5t8 -16.5q0 -34 -23.5 -68.5t-48.5 -54.5q-46 -39 -71 -56l-30 -22q-72 -53 -89.5 -74
t-22.5 -38h243v59q0 10 8 16.5t19 6.5t19 -6.5t8 -16.5z" />
    <glyph glyph-name="braceleft" unicode="{" horiz-adv-x="300" 
d="M47.5 285q6.5 7 22.5 7t34 9.5t18 26.5t-33.5 75.5t-33.5 104.5q0 71 48.5 113.5t120.5 42.5h27q10 0 16.5 -7t6.5 -17t-6.5 -16.5t-16.5 -6.5h-26q-53 0 -85 -30.5t-32 -74t33.5 -98.5t33.5 -84q0 -42 -39 -61q39 -20 39 -54.5t-33.5 -91t-33.5 -98.5t32 -72.5t85 -30.5
h22q10 0 16.5 -7t6.5 -17t-6.5 -16.5t-16.5 -6.5h-23q-75 0 -122 43t-47 113q0 52 50 134q17 28 17 45.5t-18.5 26.5t-34 9t-22 6t-6.5 16t6.5 17z" />
    <glyph glyph-name="bar" unicode="|" horiz-adv-x="216" 
d="M135 737v-943q0 -10 -8 -16.5t-19 -6.5t-19 6.5t-8 16.5v943q0 10 8 16.5t19 6.5t19 -6.5t8 -16.5z" />
    <glyph glyph-name="braceright" unicode="}" horiz-adv-x="300" 
d="M196 301.5q18 -9.5 34 -9.5t22.5 -7t6.5 -17t-6.5 -16t-22 -6t-34 -9t-18.5 -26.5t17 -45.5q50 -82 50 -134q0 -70 -47 -113t-122 -43h-23q-10 0 -16.5 6.5t-6.5 16.5t6.5 17t16.5 7h22q53 0 85 30.5t32 72.5t-33.5 98.5t-33.5 91t39 54.5q-39 19 -39 61q0 29 33.5 84
t33.5 98.5t-32 74t-85 30.5h-26q-10 0 -16.5 6.5t-6.5 16.5t6.5 17t16.5 7h27q72 0 120.5 -42.5t48.5 -113.5q0 -46 -33.5 -104.5t-33.5 -75.5t18 -26.5z" />
    <glyph glyph-name="asciitilde" unicode="~" horiz-adv-x="558" 
d="M110 182q0 -22 -25.5 -22t-25.5 22q0 47 29 77t77 30t86.5 -20.5t73 -41t66 -20.5t45.5 17.5t14 42.5q0 23 25.5 23t25.5 -23q0 -48 -29.5 -77t-77 -29t-86.5 20.5t-73 41t-65 20.5t-45.5 -18t-14.5 -43z" />
    <glyph glyph-name="uni00A0" unicode="&#xa0;" horiz-adv-x="220" 
 />
    <glyph glyph-name="exclamdown" unicode="&#xa1;" horiz-adv-x="228" 
d="M80 584q0 14 9 24t25 10t25 -10t9 -24t-9 -23.5t-25 -9.5t-25 9.5t-9 23.5zM114 510q10 0 16.5 -6t6.5 -15l9 -476q0 -10 -9 -16.5t-23 -6.5t-23 6.5t-9 16.5l9 476q0 9 6.5 15t16.5 6z" />
    <glyph glyph-name="cent" unicode="&#xa2;" horiz-adv-x="434" 
d="M348 96q7 12 16 12q24 0 30 -18q2 -4 2 -8.5t-3 -9.5q-45 -71 -135 -80v-97q0 -10 -8 -16.5t-19 -6.5t-19 6.5t-8 16.5v97q-74 9 -117 64.5t-43 132t44 129t116 63.5v98q0 10 8 16.5t19 6.5t19 -6.5t8 -16.5v-96q64 -6 111 -36q12 -8 12 -19v-84q0 -10 -8 -16.5t-19 -6.5
t-19 6.5t-8 16.5v71q-32 17 -69 22v-299q57 9 90 58zM126.5 284q-29.5 -39 -29.5 -97t29.5 -98t77.5 -50v295q-48 -11 -77.5 -50z" />
    <glyph glyph-name="sterling" unicode="&#xa3;" horiz-adv-x="521" 
d="M452 563v-85q0 -10 -8 -16.5t-19 -6.5t-19 6.5t-8 16.5v71q-42 23 -100.5 23t-88.5 -37.5t-30 -104.5v-56h119q10 0 16.5 -7t6.5 -17t-6.5 -16.5t-16.5 -6.5h-119v-280h242v58q0 10 8 16.5t19 6.5t19 -6.5t8 -16.5v-85q0 -20 -23 -20h-387q-10 0 -16.5 6.5t-6.5 16.5
t6.5 17t16.5 7h61v280h-61q-10 0 -16.5 6.5t-6.5 16.5t6.5 17t16.5 7h61v55q0 89 44 139t127.5 50t142.5 -37q12 -9 12 -18z" />
    <glyph glyph-name="currency" unicode="&#xa4;" horiz-adv-x="411" 
d="M306 326q10 10 19.5 10t18 -9t8.5 -17t-8 -16l-40 -39q19 -30 19 -65t-18 -65l40 -39q8 -8 8 -16t-8.5 -16.5t-17.5 -8.5t-20 10l-36 35q-29 -19 -68 -19t-65 18l-34 -34q-9 -9 -20 -9l-17 8q-7 8 -7 16t7 17l37 38q-18 29 -18 66t18 66l-37 37q-8 8 -8 16.5t9 17.5t17 9
l19 -11l34 -35q28 19 67 19t67 -19zM272 191q0 33 -19 54t-48 21t-48.5 -21t-19.5 -54t19.5 -54.5t48.5 -21.5t48 21.5t19 54.5z" />
    <glyph glyph-name="yen" unicode="&#xa5;" horiz-adv-x="530" 
d="M239 13v108h-142q-10 0 -16.5 6.5t-6.5 16.5t6.5 17t16.5 7h142v74h-142q-10 0 -16.5 6.5t-6.5 16.5t6.5 17t16.5 7h121l-184 293q-3 5 -3 9q0 16 11 22t20.5 6t16.5 -12l186 -300l186 300q7 12 17 12q24 0 30 -19q1 -4 1 -8.5t-3 -9.5l-185 -293h122q10 0 16.5 -7
t6.5 -17t-6.5 -16.5t-16.5 -6.5h-140v-74h140q10 0 16.5 -7t6.5 -17t-6.5 -16.5t-16.5 -6.5h-140v-108q0 -10 -8 -16.5t-19 -6.5t-19 6.5t-8 16.5z" />
    <glyph glyph-name="brokenbar" unicode="&#xa6;" horiz-adv-x="222" 
d="M138 675v-316q0 -10 -8 -16.5t-19 -6.5t-19 6.5t-8 16.5v316q0 10 8 16.5t19 6.5t19 -6.5t8 -16.5zM138 161v-316q0 -10 -8 -16.5t-19 -6.5t-19 6.5t-8 16.5v316q0 10 8 16.5t19 6.5t19 -6.5t8 -16.5z" />
    <glyph glyph-name="section" unicode="&#xa7;" horiz-adv-x="438" 
d="M56 39v84q0 10 8 16.5t19 6.5t19 -6.5t8 -16.5v-69q49 -18 95 -18t82.5 19t36.5 57t-33 63.5t-71.5 34t-52 12t-37 13t-35.5 19.5q-31 26 -31 66q0 56 61 90q-59 33 -59 91.5t49 87.5t112.5 29t123.5 -29q18 -9 18 -21v-82q0 -10 -8 -16.5t-19 -6.5t-19 6.5t-8 16.5v68
q-41 18 -86.5 18t-77 -18t-31.5 -50.5t34 -52t66.5 -25.5t50 -10t41 -13t36.5 -19q32 -26 32 -70q0 -66 -64 -92q64 -45 64 -108q0 -42 -30 -72q-52 -52 -133.5 -52t-142.5 27q-18 7 -18 22zM135 360q-18 -19 -18 -44t37 -40.5t112 -26.5q21 4 41 21.5t20 38.5t-11.5 33
t-31 19t-38 11t-40.5 8t-30 6q-23 -7 -41 -26z" />
    <glyph glyph-name="dieresis" unicode="&#xa8;" horiz-adv-x="257" 
d="M30 495q0 31 31 31q14 0 22.5 -9t8.5 -22t-8.5 -21.5t-23 -8.5t-22.5 8.5t-8 21.5zM165 495q0 31 31 31q14 0 22.5 -9t8.5 -22t-8.5 -21.5t-23 -8.5t-22.5 8.5t-8 21.5z" />
    <glyph glyph-name="copyright" unicode="&#xa9;" horiz-adv-x="704" 
d="M131.5 79q-84.5 89 -84.5 224.5t85 225t220 89.5t220 -89.5t85 -225t-85 -224.5t-220.5 -89t-220 89zM101 304q0 -116 69.5 -192t181.5 -76t181.5 76t69.5 192t-69.5 192t-181.5 76t-181.5 -76t-69.5 -192zM478 190q-50 -57 -126 -57t-121.5 46.5t-45.5 123.5t46 124.5
t112.5 47.5t115.5 -26q16 -8 16 -19v-45q0 -10 -8 -16.5t-19 -6.5t-18.5 6.5t-7.5 16.5v32q-31 14 -77 14t-77.5 -35.5t-31.5 -91.5t31.5 -91.5t83.5 -35.5t90 40q8 9 15.5 9t17 -7.5t9.5 -15t-5 -13.5z" />
    <glyph glyph-name="ordfeminine" unicode="&#xaa;" horiz-adv-x="393" 
d="M328 334h-25q-51 0 -61 31q-42 -31 -91 -31t-75 22t-26 62.5t32 62t76 21.5t80 -9v36q0 23 -14.5 33t-49.5 10t-56 -7v-29q0 -10 -8 -16.5t-19 -6.5t-18.5 6.5t-7.5 16.5v42q0 12 16 21q35 19 93.5 19t87.5 -20t29 -69v-142q0 -7 9 -7h28q10 0 16.5 -6.5t6.5 -16.5
t-6.5 -16.5t-16.5 -6.5zM103 416q0 -36 42 -36q57 0 93 62v4q-37 10 -73 10q-62 0 -62 -40z" />
    <glyph glyph-name="guillemotleft" unicode="&#xab;" horiz-adv-x="543" 
d="M39 192q0 11 13 20l198 143q6 5 11 5t11.5 -0.5t12.5 -9t6 -17.5t-11 -17l-176 -124l176 -123q11 -8 11 -17t-6 -17q-7 -10 -18 -10t-17 5l-198 142q-13 9 -13 20zM244 192q0 11 13 20l198 143q6 5 11 5t11.5 -0.5t12.5 -9t6 -17.5t-11 -17l-176 -124l176 -123
q11 -8 11 -17t-6 -17q-7 -10 -18 -10t-17 5l-198 142q-13 9 -13 20z" />
    <glyph glyph-name="logicalnot" unicode="&#xac;" horiz-adv-x="475" 
d="M353 128v128h-268q-10 0 -16.5 6.5t-6.5 16.5t6.5 17t16.5 7h299q23 0 23 -21v-154q0 -10 -8 -16.5t-19 -6.5t-19 6.5t-8 16.5z" />
    <glyph glyph-name="uni00AD" unicode="&#xad;" horiz-adv-x="399" 
d="M316 196h-233q-10 0 -16.5 6.5t-6.5 16.5t6.5 17t16.5 7h233q10 0 16.5 -7t6.5 -17t-6.5 -16.5t-16.5 -6.5z" />
    <glyph glyph-name="registered" unicode="&#xae;" horiz-adv-x="704" 
d="M280 293h92q73 0 73 63.5t-73 63.5h-92v-127zM372 465q126 0 126 -108q0 -68 -60 -95l61 -103q5 -9 1.5 -17.5t-12 -13t-18 -4.5t-17.5 13l-65 111h-108v-101q0 -10 -8 -16.5t-19 -6.5t-18.5 6.5t-7.5 16.5v273h-19q-10 0 -16.5 6.5t-6.5 16t6.5 16t16.5 6.5h164z
M131.5 79q-84.5 89 -84.5 224.5t85 225t220 89.5t220 -89.5t85 -225t-85 -224.5t-220.5 -89t-220 89zM101 304q0 -116 69.5 -192t181.5 -76t181.5 76t69.5 192t-69.5 192t-181.5 76t-181.5 -76t-69.5 -192z" />
    <glyph glyph-name="macron" unicode="&#xaf;" horiz-adv-x="287" 
d="M232 454h-176q-10 0 -16.5 6.5t-6.5 16.5t6.5 17t16.5 7h176q10 0 16.5 -7t6.5 -17t-6.5 -16.5t-16.5 -6.5z" />
    <glyph glyph-name="degree" unicode="&#xb0;" horiz-adv-x="307" 
d="M229.5 438q-29.5 -29 -76 -29t-76 29t-29.5 75.5t29 75.5t76.5 29t76.5 -29.5t29 -75.5t-29.5 -75zM195.5 558.5q-15.5 17.5 -42 17.5t-42 -17.5t-15.5 -45t15.5 -45t42 -17.5t42 17.5t15.5 45t-15.5 45z" />
    <glyph glyph-name="plusminus" unicode="&#xb1;" horiz-adv-x="391" 
d="M218 356v-93h94q10 0 16.5 -7t6.5 -17t-6.5 -16.5t-16.5 -6.5h-94v-93q0 -10 -6.5 -16.5t-16.5 -6.5t-17 6.5t-7 16.5v93h-92q-10 0 -16.5 6.5t-6.5 16.5t6.5 17t16.5 7h92v93q0 10 7 16.5t17 6.5t16.5 -6.5t6.5 -16.5zM79 47h233q10 0 16.5 -7t6.5 -17t-6.5 -16.5
t-16.5 -6.5h-233q-10 0 -16.5 6.5t-6.5 16.5t6.5 17t16.5 7z" />
    <glyph glyph-name="twosuperior" unicode="&#xb2;" horiz-adv-x="367" 
d="M256 380v32q0 10 7.5 16.5t18.5 6.5t19 -6.5t8 -16.5v-55q0 -23 -23 -23h-206q-24 0 -24 23q0 41 30 72t66 45.5t66 31.5t30 34q0 32 -67 32q-32 0 -61 -8v-35q0 -10 -8 -16.5t-19 -6.5t-18.5 6.5t-7.5 16.5v49q0 13 28.5 26.5t85.5 13.5q121 0 121 -78q0 -30 -25 -52.5
t-57 -34.5q-88 -33 -105 -73h141z" />
    <glyph glyph-name="threesuperior" unicode="&#xb3;" horiz-adv-x="355" 
d="M153 504q89 0 89 39q0 28 -65 28q-28 0 -62 -8v-19q0 -10 -8 -16.5t-19 -6.5t-18.5 6.5t-7.5 16.5v34q0 13 15 20q39 19 100 19q119 0 119 -74q0 -35 -49 -61q56 -24 56 -72q0 -82 -127 -82q-58 0 -101 19q-20 9 -20 22v35q0 10 7.5 16.5t18.5 6.5t19 -6.5t8 -16.5v-20
q32 -10 68 -10q74 0 74 36q0 48 -97 48q-10 0 -16.5 6.5t-6.5 16.5t6.5 16.5t16.5 6.5z" />
    <glyph glyph-name="acute" unicode="&#xb4;" horiz-adv-x="162" 
d="M92 546q9 10 17 10t16 -8t8 -16t-10 -17l-62 -55q-7 -6 -13.5 -6t-11.5 5t-5 11.5t6 13.5z" />
    <glyph glyph-name="mu" unicode="&#xb5;" horiz-adv-x="579" 
d="M136 7v354q0 10 8 16.5t19 6.5t19 -6.5t8 -16.5v-269q0 -27 19 -41.5t51 -14.5q92 0 146 96v229q0 10 8 16.5t19 6.5t19 -6.5t8 -16.5v-295q0 -19 19 -19h47q10 0 16.5 -6.5t6.5 -16.5t-6.5 -17t-16.5 -7h-54q-62 0 -62 68q-60 -78 -151 -78q-46 0 -69 19
q-1 -89 -26.5 -140t-97.5 -80q-12 -4 -17 -4q-25 0 -25 24q0 15 15 20q57 18 77 60t20 118z" />
    <glyph glyph-name="paragraph" unicode="&#xb6;" horiz-adv-x="521" 
d="M408 561v-666q0 -10 -8 -16.5t-19 -6.5t-18.5 6.5t-7.5 16.5v666h-52v-666q0 -10 -8 -16.5t-19 -6.5t-18.5 6.5t-7.5 16.5v380h-32q-88 0 -138 42.5t-50 124t50 124t138 42.5h240q10 0 16.5 -7t6.5 -17t-6.5 -16.5t-16.5 -6.5h-50z" />
    <glyph glyph-name="periodcentered" unicode="&#xb7;" horiz-adv-x="193" 
d="M60 378q0 15 9.5 25.5t26.5 10.5t27 -10.5t10 -25.5t-10 -25.5t-27 -10.5t-26.5 10.5t-9.5 25.5z" />
    <glyph glyph-name="cedilla" unicode="&#xb8;" horiz-adv-x="256" 
d="M198 -162q-28 -21 -67.5 -21t-70 14.5t-30.5 33.5t20 19q3 0 27.5 -11.5t46 -11.5t35 8.5t13.5 23.5q0 35 -58 35q-22 0 -22 18q0 8 6 18l19 39h58l-18 -41q32 -4 50.5 -23.5t18.5 -49.5t-28 -51z" />
    <glyph glyph-name="onesuperior" unicode="&#xb9;" horiz-adv-x="275" 
d="M82 381h35v158q-24 -20 -40 -20q-22 0 -22 22q0 11 9 17t25.5 17.5t28 27t27.5 15.5q26 0 26 -19v-218h38q10 0 16.5 -6.5t6.5 -16.5q0 -24 -23 -24h-127q-23 0 -23 24q0 10 6.5 16.5t16.5 6.5z" />
    <glyph glyph-name="ordmasculine" unicode="&#xba;" horiz-adv-x="374" 
d="M186 326q-62 0 -101.5 41t-39.5 104t39.5 104t102 41t102.5 -42t40 -103.5t-40.5 -103t-102.5 -41.5zM250.5 542.5q-24.5 27.5 -63.5 27.5t-63.5 -27.5t-24.5 -71t24.5 -71.5t63 -28t63.5 28t25 71.5t-24.5 71z" />
    <glyph glyph-name="guillemotright" unicode="&#xbb;" horiz-adv-x="543" 
d="M293 30q-6 -5 -11 -5t-11.5 0.5t-12.5 9t-6 17.5t11 17l176 123l-176 124q-11 8 -11 17t6 17q7 10 18 10t17 -5l198 -143q13 -9 13 -20t-13 -20zM88 30q-6 -5 -11 -5t-11.5 0.5t-12.5 9t-6 17.5t11 17l176 123l-176 124q-11 8 -11 17t6 17q7 10 18 10t17 -5l198 -143
q13 -9 13 -20t-13 -20z" />
    <glyph glyph-name="onequarter" unicode="&#xbc;" horiz-adv-x="545" 
d="M101 8q-7 -12 -16 -12t-21 7t-12 15t5 15l394 568q7 12 16 12t21 -7t12 -15.5t-5 -14.5zM78 381h35v158q-24 -20 -40 -20q-22 0 -22 22q0 11 9 17t25.5 17.5t28 27t27.5 15.5q26 0 26 -19v-218h38q10 0 16.5 -6.5t6.5 -16.5q0 -24 -23 -24h-127q-23 0 -23 24
q0 10 6.5 16.5t16.5 6.5zM244 42q-27 0 -27 23q0 9 5 17l124 187q7 12 16 12t21 -7t12 -15.5t-5 -14.5l-104 -155h108v38q0 10 7.5 16.5t18.5 6.5t19 -6.5t8 -16.5v-38h35q10 0 16.5 -6.5t6.5 -16.5q0 -24 -23 -24h-35v-29q0 -10 -8 -16.5t-19 -6.5t-18.5 6.5t-7.5 16.5v29
h-150z" />
    <glyph glyph-name="onehalf" unicode="&#xbd;" horiz-adv-x="571" 
d="M85 381h35v158q-24 -20 -40 -20q-22 0 -22 22q0 11 9 17t25.5 17.5t28 27t27.5 15.5q26 0 26 -19v-218h38q10 0 16.5 -6.5t6.5 -16.5q0 -24 -23 -24h-127q-23 0 -23 24q0 10 6.5 16.5t16.5 6.5zM90 8q-7 -12 -16 -12t-21 7t-12 15t5 15l394 568q7 12 16 12t21 -7
t12 -15.5t-5 -14.5zM476 46v32q0 10 7.5 16.5t18.5 6.5t19 -6.5t8 -16.5v-55q0 -23 -23 -23h-206q-24 0 -24 23q0 41 30 72t66 45.5t66 31.5t30 34q0 32 -67 32q-32 0 -61 -8v-35q0 -10 -8 -16.5t-19 -6.5t-18.5 6.5t-7.5 16.5v49q0 13 28.5 26.5t85.5 13.5q121 0 121 -78
q0 -30 -25 -52.5t-57 -34.5q-88 -33 -105 -73h141z" />
    <glyph glyph-name="threequarters" unicode="&#xbe;" horiz-adv-x="579" 
d="M139 8q-7 -12 -16 -12t-21 7t-12 15t5 15l394 568q7 12 16 12t21 -7t12 -15.5t-5 -14.5zM426 13v29h-150q-17 0 -24 11q-7 14 2 29l124 187q7 12 16 12t21 -7t12 -15.5t-5 -14.5l-104 -155h108v38q0 10 7.5 16.5t18.5 6.5t19 -6.5t8 -16.5v-38h35q10 0 16.5 -6.5
t6.5 -16.5q0 -24 -23 -24h-35v-29q0 -10 -8 -16.5t-19 -6.5t-18.5 6.5t-7.5 16.5zM141 504q89 0 89 39q0 28 -65 28q-28 0 -62 -8v-19q0 -10 -8 -16.5t-19 -6.5t-18.5 6.5t-7.5 16.5v34q0 13 15 20q39 19 100 19q119 0 119 -74q0 -35 -49 -61q56 -24 56 -72q0 -82 -127 -82
q-58 0 -101 19q-20 9 -20 22v35q0 10 7.5 16.5t18.5 6.5t19 -6.5t8 -16.5v-20q32 -10 68 -10q74 0 74 36q0 48 -97 48q-10 0 -16.5 6.5t-6.5 16.5t6.5 16.5t16.5 6.5z" />
    <glyph glyph-name="questiondown" unicode="&#xbf;" horiz-adv-x="472" 
d="M304 448q0 -59 -26 -103q-10 -17 -30.5 -35t-32.5 -26t-47 -30t-59 -50t-24 -75q0 -93 156 -93q87 0 144 26v73q0 10 8 16.5t19 6.5t18.5 -6.5t7.5 -16.5v-81q0 -19 -24 -30q-70 -34 -173 -34q-210 0 -210 139q0 67 37 107q20 21 35.5 33t42.5 29t40 26.5t30 27.5
q34 36 34 96q0 10 8 16.5t19 6.5t19 -6.5t8 -16.5zM312 583q0 -14 -9.5 -24.5t-25.5 -10.5t-26 10.5t-10 24.5t10 24.5t26 10.5t25.5 -10.5t9.5 -24.5z" />
    <glyph glyph-name="Agrave" unicode="&#xc0;" horiz-adv-x="622" 
d="M315 537l-145 -300h291zM230 608h89q16 0 22 -12l283 -572q2 -4 2 -9q0 -17 -16 -23q-6 -2 -11 -2q-17 0 -23 13l-93 188h-335l-93 -188q-9 -20 -34 -11q-16 6 -16 22q0 4 2 9l266 538h-43q-10 0 -16.5 6.5t-6.5 16.5t6.5 17t16.5 7zM311 718q6 -7 6 -13.5t-5 -11.5
t-11.5 -5t-13.5 6l-62 55q-10 9 -10 17t8 16t16 8t17 -10z" />
    <glyph glyph-name="Aacute" unicode="&#xc1;" horiz-adv-x="622" 
d="M170 237h291l-146 300zM319 608q16 0 22 -12l283 -572q2 -4 2 -9q0 -17 -16 -23q-25 -9 -34 11l-93 188h-335l-93 -188q-6 -13 -23 -13q-5 0 -11 2q-16 6 -16 22q0 4 2 9l266 538h-43q-10 0 -16.5 6.5t-6.5 16.5t6.5 17t16.5 7h89zM349 780q9 10 17 10t16 -8t8 -16
t-10 -17l-62 -55q-7 -6 -13.5 -6t-11.5 5t-5 11.5t6 13.5z" />
    <glyph glyph-name="Acircumflex" unicode="&#xc2;" horiz-adv-x="622" 
d="M315 537l-145 -300h291zM230 608h89q16 0 22 -12l283 -572q2 -4 2 -9q0 -17 -16 -23q-6 -2 -11 -2q-17 0 -23 13l-93 188h-335l-93 -188q-9 -20 -34 -11q-16 6 -16 22q0 4 2 9l266 538h-43q-10 0 -16.5 6.5t-6.5 16.5t6.5 17t16.5 7zM250 686q-6 6 -6 12t5 12l44 58
q8 11 22 11t22 -11l44 -58q5 -6 5 -12t-5.5 -11t-11.5 -5l-15 8l-39 41l-39 -41q-8 -8 -15 -8z" />
    <glyph glyph-name="Atilde" unicode="&#xc3;" horiz-adv-x="622" 
d="M315 537l-145 -300h291zM230 608h89q16 0 22 -12l283 -572q2 -4 2 -9q0 -17 -16 -23q-6 -2 -11 -2q-17 0 -23 13l-93 188h-335l-93 -188q-9 -20 -34 -11q-16 6 -16 22q0 4 2 9l266 538h-43q-10 0 -16.5 6.5t-6.5 16.5t6.5 17t16.5 7zM252 733q-21 0 -21 -22.5t-23 -22.5
t-23 26t18 44.5t49 18.5t68.5 -22t49.5 -22q20 0 20 22t23 22t23 -25.5t-18 -43.5t-48.5 -18t-66.5 21.5t-51 21.5z" />
    <glyph glyph-name="Adieresis" unicode="&#xc4;" horiz-adv-x="622" 
d="M170 237h291l-146 300zM319 608q16 0 22 -12l283 -572q2 -4 2 -9q0 -17 -16 -23q-25 -9 -34 11l-93 188h-335l-93 -188q-6 -13 -23 -13q-5 0 -11 2q-16 6 -16 22q0 4 2 9l266 538h-43q-10 0 -16.5 6.5t-6.5 16.5t6.5 17t16.5 7h89zM217 729q0 31 31 31q14 0 22.5 -9
t8.5 -22t-8.5 -21.5t-23 -8.5t-22.5 8.5t-8 21.5zM352 729q0 31 31 31q14 0 22.5 -9t8.5 -22t-8.5 -21.5t-23 -8.5t-22.5 8.5t-8 21.5z" />
    <glyph glyph-name="Aring" unicode="&#xc5;" horiz-adv-x="622" 
d="M170 237h291l-146 300zM319 608q16 0 22 -12l283 -572q2 -4 2 -9q0 -17 -16 -23q-25 -9 -34 11l-93 188h-335l-93 -188q-6 -13 -23 -13q-5 0 -11 2q-16 6 -16 22q0 4 2 9l266 538h-43q-10 0 -16.5 6.5t-6.5 16.5t6.5 17t16.5 7h89zM245 734q0 29 19.5 47.5t50.5 18.5
t51 -18.5t20 -47.5t-20 -47.5t-51 -18.5t-50.5 18.5t-19.5 47.5zM283 734q0 -16 9.5 -24.5t22.5 -8.5t23 8.5t10 24.5t-10 24.5t-23 8.5t-22.5 -8.5t-9.5 -24.5z" />
    <glyph glyph-name="AE" unicode="&#xc6;" horiz-adv-x="912" 
d="M434 561h-4l-163 -232h167v232zM337 561q-11 0 -19 7t-8 17t7.5 16.5t19.5 6.5h507q26 0 26 -24v-82q0 -10 -8 -16.5t-19 -6.5t-19 6.5t-8 16.5v59h-328v-232h282v37q0 10 7.5 16.5t18.5 6.5t18.5 -6.5t7.5 -16.5v-122q0 -10 -7.5 -16.5t-18.5 -6.5t-18.5 6.5t-7.5 16.5
v38h-282v-235h355q12 0 19.5 -6.5t7.5 -16.5t-8 -17t-19 -7h-384q-25 0 -25 22v260h-200l-199 -282q-8 -11 -17 -11q-24 0 -30 21q-1 4 -1 8.5t4 9.5l377 533h-31z" />
    <glyph glyph-name="Ccedilla" unicode="&#xc7;" horiz-adv-x="610" 
d="M532 121q7 10 16 10t19.5 -8.5t10.5 -16.5t-6 -15q-72 -87 -199 -99l-13 -30q32 -4 50.5 -23.5t18.5 -49.5t-28 -51t-67.5 -21t-70 14.5t-30.5 33.5t20 19q3 0 27.5 -11.5t46 -11.5t35 8.5t13.5 23.5q0 35 -58 35q-22 0 -22 18q0 8 6 18l13 27q-119 9 -193 94.5
t-74 221.5t82 223.5t206.5 87.5t207.5 -48q15 -8 15 -21v-86q0 -10 -8 -16.5t-19 -6.5t-19 6.5t-8 16.5v74q-74 34 -163 34q-107 0 -173.5 -74.5t-66.5 -192.5t66.5 -192.5t181 -74.5t183.5 84z" />
    <glyph glyph-name="Egrave" unicode="&#xc8;" horiz-adv-x="580" 
d="M43 608h469q26 0 26 -24v-82q0 -10 -8 -16.5t-19 -6.5t-19 6.5t-8 16.5v59h-328v-232h282v37q0 10 7.5 16.5t18.5 6.5t18.5 -6.5t7.5 -16.5v-122q0 -10 -7.5 -16.5t-18.5 -6.5t-18.5 6.5t-7.5 16.5v38h-282v-235h355q12 0 19.5 -6.5t7.5 -16.5t-8 -17t-19 -7h-384
q-25 0 -25 22v539h-59q-10 0 -16.5 6.5t-6.5 16.5t6.5 17t16.5 7zM336 718q6 -7 6 -13.5t-5 -11.5t-11.5 -5t-13.5 6l-62 55q-10 9 -10 17t8 16t16 8t17 -10z" />
    <glyph glyph-name="Eacute" unicode="&#xc9;" horiz-adv-x="580" 
d="M43 608h469q26 0 26 -24v-82q0 -10 -8 -16.5t-19 -6.5t-19 6.5t-8 16.5v59h-328v-232h282v37q0 10 7.5 16.5t18.5 6.5t18.5 -6.5t7.5 -16.5v-122q0 -10 -7.5 -16.5t-18.5 -6.5t-18.5 6.5t-7.5 16.5v38h-282v-235h355q12 0 19.5 -6.5t7.5 -16.5t-8 -17t-19 -7h-384
q-25 0 -25 22v539h-59q-10 0 -16.5 6.5t-6.5 16.5t6.5 17t16.5 7zM327 780q9 10 17 10t16 -8t8 -16t-10 -17l-62 -55q-7 -6 -13.5 -6t-11.5 5t-5 11.5t6 13.5z" />
    <glyph glyph-name="Ecircumflex" unicode="&#xca;" horiz-adv-x="580" 
d="M43 608h469q26 0 26 -24v-82q0 -10 -8 -16.5t-19 -6.5t-19 6.5t-8 16.5v59h-328v-232h282v37q0 10 7.5 16.5t18.5 6.5t18.5 -6.5t7.5 -16.5v-122q0 -10 -7.5 -16.5t-18.5 -6.5t-18.5 6.5t-7.5 16.5v38h-282v-235h355q12 0 19.5 -6.5t7.5 -16.5t-8 -17t-19 -7h-384
q-25 0 -25 22v539h-59q-10 0 -16.5 6.5t-6.5 16.5t6.5 17t16.5 7zM238 686q-6 6 -6 12t5 12l44 58q8 11 22 11t22 -11l44 -58q5 -6 5 -12t-5.5 -11t-11.5 -5l-15 8l-39 41l-39 -41q-8 -8 -15 -8z" />
    <glyph glyph-name="Edieresis" unicode="&#xcb;" horiz-adv-x="580" 
d="M43 608h469q26 0 26 -24v-82q0 -10 -8 -16.5t-19 -6.5t-19 6.5t-8 16.5v59h-328v-232h282v37q0 10 7.5 16.5t18.5 6.5t18.5 -6.5t7.5 -16.5v-122q0 -10 -7.5 -16.5t-18.5 -6.5t-18.5 6.5t-7.5 16.5v38h-282v-235h355q12 0 19.5 -6.5t7.5 -16.5t-8 -17t-19 -7h-384
q-25 0 -25 22v539h-59q-10 0 -16.5 6.5t-6.5 16.5t6.5 17t16.5 7zM200 729q0 31 31 31q14 0 22.5 -9t8.5 -22t-8.5 -21.5t-23 -8.5t-22.5 8.5t-8 21.5zM335 729q0 31 31 31q14 0 22.5 -9t8.5 -22t-8.5 -21.5t-23 -8.5t-22.5 8.5t-8 21.5z" />
    <glyph glyph-name="Igrave" unicode="&#xcc;" horiz-adv-x="278" 
d="M112 47v514h-59q-10 0 -16.5 6.5t-6.5 16.5t6.5 17t16.5 7h172q10 0 16.5 -7t6.5 -17t-6.5 -16.5t-16.5 -6.5h-59v-514h59q10 0 16.5 -6.5t6.5 -16.5t-6.5 -17t-16.5 -7h-172q-10 0 -16.5 7t-6.5 17t6.5 16.5t16.5 6.5h59zM178 718q6 -7 6 -13.5t-5 -11.5t-11.5 -5
t-13.5 6l-62 55q-10 9 -10 17t8 16t16 8t17 -10z" />
    <glyph glyph-name="Iacute" unicode="&#xcd;" horiz-adv-x="278" 
d="M112 47v514h-59q-10 0 -16.5 6.5t-6.5 16.5t6.5 17t16.5 7h172q10 0 16.5 -7t6.5 -17t-6.5 -16.5t-16.5 -6.5h-59v-514h59q10 0 16.5 -6.5t6.5 -16.5t-6.5 -17t-16.5 -7h-172q-10 0 -16.5 7t-6.5 17t6.5 16.5t16.5 6.5h59zM151 780q9 10 17 10t16 -8t8 -16t-10 -17
l-62 -55q-7 -6 -13.5 -6t-11.5 5t-5 11.5t6 13.5z" />
    <glyph glyph-name="Icircumflex" unicode="&#xce;" horiz-adv-x="278" 
d="M112 47v514h-59q-10 0 -16.5 6.5t-6.5 16.5t6.5 17t16.5 7h172q10 0 16.5 -7t6.5 -17t-6.5 -16.5t-16.5 -6.5h-59v-514h59q10 0 16.5 -6.5t6.5 -16.5t-6.5 -17t-16.5 -7h-172q-10 0 -16.5 7t-6.5 17t6.5 16.5t16.5 6.5h59zM76 686q-6 6 -6 12t5 12l44 58q8 11 22 11
t22 -11l44 -58q5 -6 5 -12t-5.5 -11t-11.5 -5l-15 8l-39 41l-39 -41q-8 -8 -15 -8z" />
    <glyph glyph-name="Idieresis" unicode="&#xcf;" horiz-adv-x="278" 
d="M112 47v514h-59q-10 0 -16.5 6.5t-6.5 16.5t6.5 17t16.5 7h172q10 0 16.5 -7t6.5 -17t-6.5 -16.5t-16.5 -6.5h-59v-514h59q10 0 16.5 -6.5t6.5 -16.5t-6.5 -17t-16.5 -7h-172q-10 0 -16.5 7t-6.5 17t6.5 16.5t16.5 6.5h59zM43 729q0 31 31 31q14 0 22.5 -9t8.5 -22
t-8.5 -21.5t-23 -8.5t-22.5 8.5t-8 21.5zM178 729q0 31 31 31q14 0 22.5 -9t8.5 -22t-8.5 -21.5t-23 -8.5t-22.5 8.5t-8 21.5z" />
    <glyph glyph-name="Eth" unicode="&#xd0;" horiz-adv-x="657" 
d="M102 289h-59q-10 0 -16.5 6.5t-6.5 16.5t6.5 17t16.5 7h59v225h-60q-10 0 -16.5 6.5t-6.5 16.5t6.5 17t16.5 7h267q136 0 218.5 -82.5t82.5 -222.5t-81 -221.5t-220 -81.5h-181q-26 0 -26 23v266zM156 289v-242h153q116 0 181.5 67.5t65.5 188t-67 189.5t-180 69h-153
v-225h90q10 0 16.5 -7t6.5 -17t-6.5 -16.5t-16.5 -6.5h-90z" />
    <glyph glyph-name="Ntilde" unicode="&#xd1;" horiz-adv-x="698" 
d="M156 13q0 -10 -8 -16.5t-19 -6.5t-19 6.5t-8 16.5v548h-55q-11 0 -19 7t-8 17t7.5 16.5t19.5 6.5h78q16 0 25 -10l392 -504v467h-59q-10 0 -16.5 6.5t-6.5 16.5t6.5 17t16.5 7h172q10 0 16.5 -7t6.5 -17t-6.5 -16.5t-16.5 -6.5h-59v-545q0 -26 -26 -26q-14 0 -24 14
l-390 502v-493zM293 733q-21 0 -21 -22.5t-23 -22.5t-23 26t18 44.5t49 18.5t68.5 -22t49.5 -22q20 0 20 22t23 22t23 -25.5t-18 -43.5t-48.5 -18t-66.5 21.5t-51 21.5z" />
    <glyph glyph-name="Ograve" unicode="&#xd2;" horiz-adv-x="696" 
d="M46 304q0 136 84.5 225t217.5 89t217.5 -89t84.5 -225.5t-84.5 -225t-217.5 -88.5t-217.5 89t-84.5 225zM100 304q0 -116 69 -191.5t179 -75.5t179 75.5t69 191.5t-69 191.5t-179 75.5t-179 -75.5t-69 -191.5zM382 718q6 -7 6 -13.5t-5 -11.5t-11.5 -5t-13.5 6l-62 55
q-10 9 -10 17t8 16t16 8t17 -10z" />
    <glyph glyph-name="Oacute" unicode="&#xd3;" horiz-adv-x="696" 
d="M46 304q0 136 84.5 225t217.5 89t217.5 -89t84.5 -225.5t-84.5 -225t-217.5 -88.5t-217.5 89t-84.5 225zM100 304q0 -116 69 -191.5t179 -75.5t179 75.5t69 191.5t-69 191.5t-179 75.5t-179 -75.5t-69 -191.5zM366 780q9 10 17 10t16 -8t8 -16t-10 -17l-62 -55
q-7 -6 -13.5 -6t-11.5 5t-5 11.5t6 13.5z" />
    <glyph glyph-name="Ocircumflex" unicode="&#xd4;" horiz-adv-x="696" 
d="M46 304q0 136 84.5 225t217.5 89t217.5 -89t84.5 -225.5t-84.5 -225t-217.5 -88.5t-217.5 89t-84.5 225zM100 304q0 -116 69 -191.5t179 -75.5t179 75.5t69 191.5t-69 191.5t-179 75.5t-179 -75.5t-69 -191.5zM292 686q-6 6 -6 12t5 12l44 58q8 11 22 11t22 -11l44 -58
q5 -6 5 -12t-5.5 -11t-11.5 -5l-15 8l-39 41l-39 -41q-8 -8 -15 -8z" />
    <glyph glyph-name="Otilde" unicode="&#xd5;" horiz-adv-x="696" 
d="M46 304q0 136 84.5 225t217.5 89t217.5 -89t84.5 -225.5t-84.5 -225t-217.5 -88.5t-217.5 89t-84.5 225zM100 304q0 -116 69 -191.5t179 -75.5t179 75.5t69 191.5t-69 191.5t-179 75.5t-179 -75.5t-69 -191.5zM289 733q-21 0 -21 -22.5t-23 -22.5t-23 26t18 44.5t49 18.5
t68.5 -22t49.5 -22q20 0 20 22t23 22t23 -25.5t-18 -43.5t-48.5 -18t-66.5 21.5t-51 21.5z" />
    <glyph glyph-name="Odieresis" unicode="&#xd6;" horiz-adv-x="696" 
d="M46 304q0 136 84.5 225t217.5 89t217.5 -89t84.5 -225.5t-84.5 -225t-217.5 -88.5t-217.5 89t-84.5 225zM100 304q0 -116 69 -191.5t179 -75.5t179 75.5t69 191.5t-69 191.5t-179 75.5t-179 -75.5t-69 -191.5zM258 729q0 31 31 31q14 0 22.5 -9t8.5 -22t-8.5 -21.5
t-23 -8.5t-22.5 8.5t-8 21.5zM393 729q0 31 31 31q14 0 22.5 -9t8.5 -22t-8.5 -21.5t-23 -8.5t-22.5 8.5t-8 21.5z" />
    <glyph glyph-name="multiply" unicode="&#xd7;" horiz-adv-x="486" 
d="M398 380q7 7 16 7t19 -10t10 -19t-7 -16l-156 -155l155 -154q7 -7 7 -17t-9 -19t-19 -9t-17 7l-154 155l-154 -155q-7 -7 -12 -7t-10.5 0.5t-14 9t-8.5 18.5t7 17l155 154l-156 155q-7 7 -7 16t10 19t19 10t16 -7l155 -156z" />
    <glyph glyph-name="Oslash" unicode="&#xd8;" horiz-adv-x="696" 
d="M46 304q0 136 84.5 225t217.5 89q88 0 158 -42l22 31q7 12 16 12t21 -7t12 -15.5t-5 -14.5l-25 -36q103 -89 103 -234t-84.5 -233.5t-217.5 -88.5q-87 0 -158 41l-21 -30q-7 -12 -16 -12t-21 7t-12 15.5t5 14.5l24 35q-103 89 -103 243zM169 495.5q-69 -75.5 -69 -196
t78 -196.5l300 432q-58 36 -130 36q-110 0 -179 -75.5zM527 112.5q69 75.5 69 195.5t-78 196l-300 -432q56 -35 130 -35q110 0 179 75.5z" />
    <glyph glyph-name="Ugrave" unicode="&#xd9;" horiz-adv-x="646" 
d="M454 608h87q26 0 26 -24v-394q0 -92 -69.5 -146t-171.5 -54t-168 56t-66 144v371h-59q-10 0 -16.5 6.5t-6.5 16.5t6.5 17t16.5 7h87q10 0 18 -7t8 -17v-394q0 -68 51 -110.5t132 -42.5t132.5 42.5t51.5 110.5v371h-59q-10 0 -16.5 6.5t-6.5 16.5t6.5 17t16.5 7zM348 718
q6 -7 6 -13.5t-5 -11.5t-11.5 -5t-13.5 6l-62 55q-10 9 -10 17t8 16t16 8t17 -10z" />
    <glyph glyph-name="Uacute" unicode="&#xda;" horiz-adv-x="646" 
d="M541 608q26 0 26 -24v-394q0 -92 -69.5 -146t-171.5 -54t-168 56t-66 144v371h-59q-10 0 -16.5 6.5t-6.5 16.5t6.5 17t16.5 7h87q10 0 18 -7t8 -17v-394q0 -68 51 -110.5t132 -42.5t132.5 42.5t51.5 110.5v371h-59q-10 0 -16.5 6.5t-6.5 16.5t6.5 17t16.5 7h87zM342 780
q9 10 17 10t16 -8t8 -16t-10 -17l-62 -55q-7 -6 -13.5 -6t-11.5 5t-5 11.5t6 13.5z" />
    <glyph glyph-name="Ucircumflex" unicode="&#xdb;" horiz-adv-x="646" 
d="M454 608h87q26 0 26 -24v-394q0 -92 -69.5 -146t-171.5 -54t-168 56t-66 144v371h-59q-10 0 -16.5 6.5t-6.5 16.5t6.5 17t16.5 7h87q10 0 18 -7t8 -17v-394q0 -68 51 -110.5t132 -42.5t132.5 42.5t51.5 110.5v371h-59q-10 0 -16.5 6.5t-6.5 16.5t6.5 17t16.5 7zM257 686
q-6 6 -6 12t5 12l44 58q8 11 22 11t22 -11l44 -58q5 -6 5 -12t-5.5 -11t-11.5 -5l-15 8l-39 41l-39 -41q-8 -8 -15 -8z" />
    <glyph glyph-name="Udieresis" unicode="&#xdc;" horiz-adv-x="646" 
d="M541 608q26 0 26 -24v-394q0 -92 -69.5 -146t-171.5 -54t-168 56t-66 144v371h-59q-10 0 -16.5 6.5t-6.5 16.5t6.5 17t16.5 7h87q10 0 18 -7t8 -17v-394q0 -68 51 -110.5t132 -42.5t132.5 42.5t51.5 110.5v371h-59q-10 0 -16.5 6.5t-6.5 16.5t6.5 17t16.5 7h87zM219 729
q0 31 31 31q14 0 22.5 -9t8.5 -22t-8.5 -21.5t-23 -8.5t-22.5 8.5t-8 21.5zM354 729q0 31 31 31q14 0 22.5 -9t8.5 -22t-8.5 -21.5t-23 -8.5t-22.5 8.5t-8 21.5z" />
    <glyph glyph-name="Yacute" unicode="&#xdd;" horiz-adv-x="562" 
d="M48 607l233 -341l233 342q8 11 17 11t19.5 -6t10.5 -22q0 -5 -3 -10l-250 -359v-209q0 -10 -8 -16.5t-19 -6.5t-19 6.5t-8 16.5v207l-251 362q-3 5 -3 9.5t1 8.5q6 19 30 19q10 0 17 -12zM299 780q9 10 17 10t16 -8t8 -16t-10 -17l-62 -55q-7 -6 -13.5 -6t-11.5 5
t-5 11.5t6 13.5z" />
    <glyph glyph-name="Thorn" unicode="&#xde;" horiz-adv-x="597" 
d="M144 449v-281h201q85 0 124.5 33t39.5 109t-41.5 107.5t-122.5 31.5h-201zM144 595v-99h201q110 0 164 -45t54 -142t-54 -142t-164 -45h-201v-109q0 -10 -8 -16.5t-19 -6.5t-19 6.5t-8 16.5v582q0 10 8 16.5t19 6.5t19 -6.5t8 -16.5z" />
    <glyph glyph-name="germandbls" unicode="&#xdf;" horiz-adv-x="548" 
d="M196 34q-9 8 -9 16t6.5 16.5t15 8.5t22.5 -9t49.5 -19.5t60.5 -10.5q55 0 84.5 28t29.5 72t-27 71.5t-65.5 45t-76.5 35t-65 47t-27 68t26.5 67.5t58 45.5t58 41.5t26.5 52q0 49 -42.5 77.5t-94 28.5t-78.5 -35.5t-27 -93.5v-573q0 -10 -8 -16.5t-19 -6.5t-19 6.5
t-8 16.5v573q0 82 42 128t118.5 46t132.5 -40t56 -111q0 -38 -26.5 -69.5t-57.5 -49.5q-85 -46 -85 -85q0 -47 93 -85q38 -16 76.5 -36t65.5 -56t27 -86q0 -72 -43 -112t-123 -40q-37 0 -80 12.5t-67 31.5z" />
    <glyph glyph-name="agrave" unicode="&#xe0;" 
d="M314 155q-66 18 -112.5 18t-76 -18t-29.5 -50.5t19 -50.5t52 -18q92 0 147 100v19zM394 47h39q10 0 16.5 -7t6.5 -17t-6.5 -16.5t-16.5 -6.5h-44q-36 0 -55.5 16t-19.5 45q0 5 1 11q-53 -82 -154 -82q-56 0 -87.5 30t-31.5 83.5t42.5 84t106 30.5t123.5 -21v69
q0 48 -35 62q-27 10 -74.5 10t-87.5 -16v-63q0 -10 -8 -16.5t-19 -6.5t-19 6.5t-8 16.5v76q0 13 13 20q49 29 130 29t121 -26.5t40 -91.5v-200q0 -19 27 -19zM250 484q6 -7 6 -13.5t-5 -11.5t-11.5 -5t-13.5 6l-62 55q-10 9 -10 17t8 16t16 8t17 -10z" />
    <glyph glyph-name="aacute" unicode="&#xe1;" 
d="M125.5 155q-29.5 -18 -29.5 -50.5t19 -50.5t52 -18q92 0 147 100v19q-66 18 -112.5 18t-76 -18zM433 47q10 0 16.5 -7t6.5 -17t-6.5 -16.5t-16.5 -6.5h-44q-36 0 -55.5 16t-19.5 45q0 5 1 11q-53 -82 -154 -82q-56 0 -87.5 30t-31.5 83.5t42.5 84t106 30.5t123.5 -21v69
q0 48 -35 62q-17 6 -32.5 8t-52.5 2t-77 -16v-63q0 -10 -8 -16.5t-19 -6.5t-19 6.5t-8 16.5v76q0 13 13 20q49 29 130 29t121 -26.5t40 -91.5v-200q0 -19 27 -19h39zM232 546q9 10 17 10t16 -8t8 -16t-10 -17l-62 -55q-7 -6 -13.5 -6t-11.5 5t-5 11.5t6 13.5z" />
    <glyph glyph-name="acircumflex" unicode="&#xe2;" 
d="M314 155q-66 18 -112.5 18t-76 -18t-29.5 -50.5t19 -50.5t52 -18q92 0 147 100v19zM394 47h39q10 0 16.5 -7t6.5 -17t-6.5 -16.5t-16.5 -6.5h-44q-36 0 -55.5 16t-19.5 45q0 5 1 11q-53 -82 -154 -82q-56 0 -87.5 30t-31.5 83.5t42.5 84t106 30.5t123.5 -21v69
q0 48 -35 62q-27 10 -74.5 10t-87.5 -16v-63q0 -10 -8 -16.5t-19 -6.5t-19 6.5t-8 16.5v76q0 13 13 20q49 29 130 29t121 -26.5t40 -91.5v-200q0 -19 27 -19zM144 452q-6 6 -6 12t5 12l44 58q8 11 22 11t22 -11l44 -58q5 -6 5 -12t-5.5 -11t-11.5 -5l-15 8l-39 41l-39 -41
q-8 -8 -15 -8z" />
    <glyph glyph-name="atilde" unicode="&#xe3;" 
d="M314 155q-66 18 -112.5 18t-76 -18t-29.5 -50.5t19 -50.5t52 -18q92 0 147 100v19zM394 47h39q10 0 16.5 -7t6.5 -17t-6.5 -16.5t-16.5 -6.5h-44q-36 0 -55.5 16t-19.5 45q0 5 1 11q-53 -82 -154 -82q-56 0 -87.5 30t-31.5 83.5t42.5 84t106 30.5t123.5 -21v69
q0 48 -35 62q-27 10 -74.5 10t-87.5 -16v-63q0 -10 -8 -16.5t-19 -6.5t-19 6.5t-8 16.5v76q0 13 13 20q49 29 130 29t121 -26.5t40 -91.5v-200q0 -19 27 -19zM148 499q-21 0 -21 -22.5t-23 -22.5t-23 26t18 44.5t49 18.5t68.5 -22t49.5 -22q20 0 20 22t23 22t23 -25.5
t-18 -43.5t-48.5 -18t-66.5 21.5t-51 21.5z" />
    <glyph glyph-name="adieresis" unicode="&#xe4;" 
d="M125.5 155q-29.5 -18 -29.5 -50.5t19 -50.5t52 -18q92 0 147 100v19q-66 18 -112.5 18t-76 -18zM433 47q10 0 16.5 -7t6.5 -17t-6.5 -16.5t-16.5 -6.5h-44q-36 0 -55.5 16t-19.5 45q0 5 1 11q-53 -82 -154 -82q-56 0 -87.5 30t-31.5 83.5t42.5 84t106 30.5t123.5 -21v69
q0 48 -35 62q-17 6 -32.5 8t-52.5 2t-77 -16v-63q0 -10 -8 -16.5t-19 -6.5t-19 6.5t-8 16.5v76q0 13 13 20q49 29 130 29t121 -26.5t40 -91.5v-200q0 -19 27 -19h39zM114 495q0 31 31 31q14 0 22.5 -9t8.5 -22t-8.5 -21.5t-23 -8.5t-22.5 8.5t-8 21.5zM249 495q0 31 31 31
q14 0 22.5 -9t8.5 -22t-8.5 -21.5t-23 -8.5t-22.5 8.5t-8 21.5z" />
    <glyph glyph-name="aring" unicode="&#xe5;" 
d="M125.5 155q-29.5 -18 -29.5 -50.5t19 -50.5t52 -18q92 0 147 100v19q-66 18 -112.5 18t-76 -18zM433 47q10 0 16.5 -7t6.5 -17t-6.5 -16.5t-16.5 -6.5h-44q-36 0 -55.5 16t-19.5 45q0 5 1 11q-53 -82 -154 -82q-56 0 -87.5 30t-31.5 83.5t42.5 84t106 30.5t123.5 -21v69
q0 48 -35 62q-17 6 -32.5 8t-52.5 2t-77 -16v-63q0 -10 -8 -16.5t-19 -6.5t-19 6.5t-8 16.5v76q0 13 13 20q49 29 130 29t121 -26.5t40 -91.5v-200q0 -19 27 -19h39zM141 501q0 29 19.5 47.5t50.5 18.5t51 -18.5t20 -47.5t-20 -47.5t-51 -18.5t-50.5 18.5t-19.5 47.5z
M179 501q0 -16 9.5 -24.5t22.5 -8.5t23 8.5t10 24.5t-10 24.5t-23 8.5t-22.5 -8.5t-9.5 -24.5z" />
    <glyph glyph-name="ae" unicode="&#xe6;" horiz-adv-x="710" 
d="M618 96q7 12 16 12t18 -4.5t12.5 -14t-1.5 -17.5q-51 -82 -166 -82t-164 99q-73 -99 -172 -99q-56 0 -87.5 30t-31.5 84t36 84t93 30h143v48q0 48 -35 62q-27 10 -76 10t-86 -15v-58q0 -10 -8 -16.5t-19 -6.5t-19 6.5t-8 16.5v71q0 13 13 20q48 28 121.5 28t109.5 -14
t50 -54q52 68 140.5 68t130 -51t41.5 -136q0 -23 -26 -23l-277 -1q4 -62 40.5 -99.5t94.5 -37.5q78 0 117 60zM584.5 305q-28.5 33 -82 33t-89.5 -33.5t-45 -86.5h248q-3 54 -31.5 87zM314 173h-131q-87 0 -87 -72q0 -29 19 -47t52 -18q92 0 147 100v37z" />
    <glyph glyph-name="ccedilla" unicode="&#xe7;" horiz-adv-x="431" 
d="M294 -162q-28 -21 -67.5 -21t-70 14.5t-30.5 33.5t20 19q3 0 27.5 -11.5t46 -11.5t35 8.5t13.5 23.5q0 35 -58 35q-22 0 -22 18q0 8 6 18l13 27q-76 8 -120.5 64t-44.5 137t53.5 136.5t133 55.5t138.5 -37q12 -8 12 -19v-84q0 -10 -8 -16.5t-19 -6.5t-19 6.5t-8 16.5v71
q-40 23 -96 23t-95 -42t-39 -108.5t37.5 -109t96.5 -42.5q78 0 117 60q8 12 16.5 12t17.5 -4q14 -6 14 -16.5t-3 -15.5q-42 -67 -125 -79l-13 -31q32 -4 50.5 -23.5t18.5 -49.5t-28 -51z" />
    <glyph glyph-name="egrave" unicode="&#xe8;" horiz-adv-x="440" 
d="M314.5 306q-28.5 32 -82 32t-89.5 -32.5t-45 -85.5h248q-3 54 -31.5 86zM348 96q7 12 16 12t18 -4.5t12.5 -14t-1.5 -17.5q-51 -82 -162 -82q-88 0 -138.5 56.5t-50.5 142.5t52 140.5t137 54.5t126.5 -51t41.5 -136q0 -23 -26 -23l-277 -1q4 -62 40.5 -99.5t94.5 -37.5
q78 0 117 60zM253 484q6 -7 6 -13.5t-5 -11.5t-11.5 -5t-13.5 6l-62 55q-10 9 -10 17t8 16t16 8t17 -10z" />
    <glyph glyph-name="eacute" unicode="&#xe9;" horiz-adv-x="440" 
d="M143 305.5q-36 -32.5 -45 -85.5h248q-3 54 -31.5 86t-82 32t-89.5 -32.5zM231 36q78 0 117 60q7 12 16 12t18 -4.5t12.5 -14t-1.5 -17.5q-51 -82 -162 -82q-88 0 -138.5 56.5t-50.5 142.5t52 140.5t137 54.5t126.5 -51t41.5 -136q0 -23 -26 -23l-277 -1q4 -62 40.5 -99.5
t94.5 -37.5zM245 546q9 10 17 10t16 -8t8 -16t-10 -17l-62 -55q-7 -6 -13.5 -6t-11.5 5t-5 11.5t6 13.5z" />
    <glyph glyph-name="ecircumflex" unicode="&#xea;" horiz-adv-x="440" 
d="M314.5 306q-28.5 32 -82 32t-89.5 -32.5t-45 -85.5h248q-3 54 -31.5 86zM348 96q7 12 16 12t18 -4.5t12.5 -14t-1.5 -17.5q-51 -82 -162 -82q-88 0 -138.5 56.5t-50.5 142.5t52 140.5t137 54.5t126.5 -51t41.5 -136q0 -23 -26 -23l-277 -1q4 -62 40.5 -99.5t94.5 -37.5
q78 0 117 60zM163 452q-6 6 -6 12t5 12l44 58q8 11 22 11t22 -11l44 -58q5 -6 5 -12t-5.5 -11t-11.5 -5l-15 8l-39 41l-39 -41q-8 -8 -15 -8z" />
    <glyph glyph-name="edieresis" unicode="&#xeb;" horiz-adv-x="440" 
d="M143 305.5q-36 -32.5 -45 -85.5h248q-3 54 -31.5 86t-82 32t-89.5 -32.5zM231 36q78 0 117 60q7 12 16 12t18 -4.5t12.5 -14t-1.5 -17.5q-51 -82 -162 -82q-88 0 -138.5 56.5t-50.5 142.5t52 140.5t137 54.5t126.5 -51t41.5 -136q0 -23 -26 -23l-277 -1q4 -62 40.5 -99.5
t94.5 -37.5zM126 495q0 31 31 31q14 0 22.5 -9t8.5 -22t-8.5 -21.5t-23 -8.5t-22.5 8.5t-8 21.5zM261 495q0 31 31 31q14 0 22.5 -9t8.5 -22t-8.5 -21.5t-23 -8.5t-22.5 8.5t-8 21.5z" />
    <glyph glyph-name="igrave" unicode="&#xec;" horiz-adv-x="216" 
d="M149 351v-338q0 -10 -8 -16.5t-19 -6.5t-19 6.5t-8 16.5v314h-66q-10 0 -16.5 6.5t-6.5 16.5t6.5 17t16.5 7h97q23 0 23 -23zM145 484q6 -7 6 -13.5t-5 -11.5t-11.5 -5t-13.5 6l-62 55q-10 9 -10 17t8 16t16 8t17 -10z" />
    <glyph glyph-name="iacute" unicode="&#xed;" horiz-adv-x="216" 
d="M149 13q0 -10 -8 -16.5t-19 -6.5t-19 6.5t-8 16.5v314h-66q-10 0 -16.5 6.5t-6.5 16.5t6.5 17t16.5 7h97q23 0 23 -23v-338zM122 546q9 10 17 10t16 -8t8 -16t-10 -17l-62 -55q-7 -6 -13.5 -6t-11.5 5t-5 11.5t6 13.5z" />
    <glyph glyph-name="icircumflex" unicode="&#xee;" horiz-adv-x="216" 
d="M149 351v-338q0 -10 -8 -16.5t-19 -6.5t-19 6.5t-8 16.5v314h-66q-10 0 -16.5 6.5t-6.5 16.5t6.5 17t16.5 7h97q23 0 23 -23zM53 452q-6 6 -6 12t5 12l44 58q8 11 22 11t22 -11l44 -58q5 -6 5 -12t-5.5 -11t-11.5 -5l-15 8l-39 41l-39 -41q-8 -8 -15 -8z" />
    <glyph glyph-name="idieresis" unicode="&#xef;" horiz-adv-x="216" 
d="M149 13q0 -10 -8 -16.5t-19 -6.5t-19 6.5t-8 16.5v314h-66q-10 0 -16.5 6.5t-6.5 16.5t6.5 17t16.5 7h97q23 0 23 -23v-338zM19 495q0 31 31 31q14 0 22.5 -9t8.5 -22t-8.5 -21.5t-23 -8.5t-22.5 8.5t-8 21.5zM139 495q0 31 31 31q14 0 22.5 -9t8.5 -22t-8.5 -21.5
t-23 -8.5t-22.5 8.5t-8 21.5z" />
    <glyph glyph-name="eth" unicode="&#xf0;" horiz-adv-x="477" 
d="M116 735q0 26 22 26q3 0 7 -1q97 -16 161 -79l56 46q7 6 14 6l18 -11q7 -9 7 -17t-9 -15l-55 -45q92 -127 92 -387q0 -157 -64 -217q-55 -51 -134.5 -51t-134 56t-54.5 141.5t47 141t134.5 55.5t150.5 -73q-4 194 -78 301l-53 -43q-8 -6 -17.5 -5t-15.5 9t-6 16.5t9 16.5
l52 42q-53 53 -132 67q-17 3 -17 20zM314 310q-39 28 -92.5 28t-89.5 -42t-36 -109t39.5 -109t104 -42t99.5 55.5t36 159.5q-22 31 -61 59z" />
    <glyph glyph-name="ntilde" unicode="&#xf1;" horiz-adv-x="509" 
d="M76 327h-47q-10 0 -16.5 6.5t-6.5 16.5t6.5 17t16.5 7h54q62 0 62 -68q60 78 151 78q54 0 88.5 -27.5t34.5 -80.5v-210q0 -19 27 -19h39q10 0 16.5 -7t6.5 -17t-6.5 -16.5t-16.5 -6.5h-39q-81 0 -81 65v211q0 30 -18.5 46t-51.5 16q-92 0 -146 -96v-229q0 -10 -8 -16.5
t-19 -6.5t-19 6.5t-8 16.5v295q0 19 -19 19zM195 499q-21 0 -21 -22.5t-23 -22.5t-23 26t18 44.5t49 18.5t68.5 -22t49.5 -22q20 0 20 22t23 22t23 -25.5t-18 -43.5t-48.5 -18t-66.5 21.5t-51 21.5z" />
    <glyph glyph-name="ograve" unicode="&#xf2;" horiz-adv-x="465" 
d="M332.5 78q38.5 42 38.5 108.5t-38.5 109t-99.5 42.5t-99.5 -42.5t-38.5 -109t38.5 -108.5t99.5 -42t99.5 42zM41 187q0 86 54 141.5t138 55.5t137.5 -55.5t53.5 -142t-53.5 -141.5t-138 -55t-138 55.5t-53.5 141.5zM255 484q6 -7 6 -13.5t-5 -11.5t-11.5 -5t-13.5 6
l-62 55q-10 9 -10 17t8 16t16 8t17 -10z" />
    <glyph glyph-name="oacute" unicode="&#xf3;" horiz-adv-x="465" 
d="M332.5 295.5q-38.5 42.5 -99.5 42.5t-99.5 -42.5t-38.5 -109t38.5 -108.5t99.5 -42t99.5 42t38.5 108.5t-38.5 109zM41 187q0 86 54 141.5t138 55.5t137.5 -55.5t53.5 -142t-53.5 -141.5t-138 -55t-138 55.5t-53.5 141.5zM249 546q9 10 17 10t16 -8t8 -16t-10 -17
l-62 -55q-7 -6 -13.5 -6t-11.5 5t-5 11.5t6 13.5z" />
    <glyph glyph-name="ocircumflex" unicode="&#xf4;" horiz-adv-x="465" 
d="M332.5 78q38.5 42 38.5 108.5t-38.5 109t-99.5 42.5t-99.5 -42.5t-38.5 -109t38.5 -108.5t99.5 -42t99.5 42zM41 187q0 86 54 141.5t138 55.5t137.5 -55.5t53.5 -142t-53.5 -141.5t-138 -55t-138 55.5t-53.5 141.5zM167 452q-6 6 -6 12t5 12l44 58q8 11 22 11t22 -11
l44 -58q5 -6 5 -12t-5.5 -11t-11.5 -5l-15 8l-39 41l-39 -41q-8 -8 -15 -8z" />
    <glyph glyph-name="otilde" unicode="&#xf5;" horiz-adv-x="465" 
d="M332.5 78q38.5 42 38.5 108.5t-38.5 109t-99.5 42.5t-99.5 -42.5t-38.5 -109t38.5 -108.5t99.5 -42t99.5 42zM41 187q0 86 54 141.5t138 55.5t137.5 -55.5t53.5 -142t-53.5 -141.5t-138 -55t-138 55.5t-53.5 141.5zM174 499q-21 0 -21 -22.5t-23 -22.5t-23 26t18 44.5
t49 18.5t68.5 -22t49.5 -22q20 0 20 22t23 22t23 -25.5t-18 -43.5t-48.5 -18t-66.5 21.5t-51 21.5z" />
    <glyph glyph-name="odieresis" unicode="&#xf6;" horiz-adv-x="465" 
d="M332.5 295.5q-38.5 42.5 -99.5 42.5t-99.5 -42.5t-38.5 -109t38.5 -108.5t99.5 -42t99.5 42t38.5 108.5t-38.5 109zM41 187q0 86 54 141.5t138 55.5t137.5 -55.5t53.5 -142t-53.5 -141.5t-138 -55t-138 55.5t-53.5 141.5zM134 495q0 31 31 31q14 0 22.5 -9t8.5 -22
t-8.5 -21.5t-23 -8.5t-22.5 8.5t-8 21.5zM269 495q0 31 31 31q14 0 22.5 -9t8.5 -22t-8.5 -21.5t-23 -8.5t-22.5 8.5t-8 21.5z" />
    <glyph glyph-name="divide" unicode="&#xf7;" horiz-adv-x="394" 
d="M160 75q0 15 9.5 25.5t26.5 10.5t27 -10.5t10 -25.5t-10 -25.5t-27 -10.5t-26.5 10.5t-9.5 25.5zM160 298q0 15 9.5 25.5t26.5 10.5t27 -10.5t10 -25.5t-10 -25.5t-27 -10.5t-26.5 10.5t-9.5 25.5zM313 163h-233q-10 0 -16.5 6.5t-6.5 16.5t6.5 17t16.5 7h233
q10 0 16.5 -7t6.5 -17t-6.5 -16.5t-16.5 -6.5z" />
    <glyph glyph-name="oslash" unicode="&#xf8;" horiz-adv-x="465" 
d="M100 40q-59 54 -59 143.5t54 145t138 55.5q51 0 93 -22l30 43q6 10 16 10t19 -7t9 -15t-6 -15l-30 -43q60 -57 60 -146t-53.5 -144t-137.5 -55q-51 0 -95 23l-30 -43q-7 -11 -15.5 -11t-16.5 5q-12 8 -12 16.5t6 16.5zM332.5 78q38.5 42 38.5 107t-37 108l-168 -240
q29 -17 67 -17q61 0 99.5 42zM233 338q-61 0 -99.5 -42.5t-38.5 -107t34 -106.5l169 240q-30 16 -65 16z" />
    <glyph glyph-name="ugrave" unicode="&#xf9;" horiz-adv-x="509" 
d="M433 47h47q10 0 16.5 -6.5t6.5 -16.5t-6.5 -17t-16.5 -7h-54q-62 0 -62 68q-60 -78 -151 -78q-54 0 -88.5 27.5t-34.5 80.5v210q0 19 -27 19h-39q-10 0 -16.5 7t-6.5 17t6.5 16.5t16.5 6.5h39q81 0 81 -65v-211q0 -30 18.5 -46t51.5 -16q92 0 146 96v229q0 10 8 16.5
t19 6.5t19 -6.5t8 -16.5v-295q0 -19 19 -19zM267 484q6 -7 6 -13.5t-5 -11.5t-11.5 -5t-13.5 6l-62 55q-10 9 -10 17t8 16t16 8t17 -10z" />
    <glyph glyph-name="uacute" unicode="&#xfa;" horiz-adv-x="509" 
d="M480 47q10 0 16.5 -6.5t6.5 -16.5t-6.5 -17t-16.5 -7h-54q-62 0 -62 68q-60 -78 -151 -78q-54 0 -88.5 27.5t-34.5 80.5v210q0 19 -27 19h-39q-10 0 -16.5 7t-6.5 17t6.5 16.5t16.5 6.5h39q81 0 81 -65v-211q0 -30 18.5 -46t51.5 -16q92 0 146 96v229q0 10 8 16.5t19 6.5
t19 -6.5t8 -16.5v-295q0 -19 19 -19h47zM274 546q9 10 17 10t16 -8t8 -16t-10 -17l-62 -55q-7 -6 -13.5 -6t-11.5 5t-5 11.5t6 13.5z" />
    <glyph glyph-name="ucircumflex" unicode="&#xfb;" horiz-adv-x="509" 
d="M433 47h47q10 0 16.5 -6.5t6.5 -16.5t-6.5 -17t-16.5 -7h-54q-62 0 -62 68q-60 -78 -151 -78q-54 0 -88.5 27.5t-34.5 80.5v210q0 19 -27 19h-39q-10 0 -16.5 7t-6.5 17t6.5 16.5t16.5 6.5h39q81 0 81 -65v-211q0 -30 18.5 -46t51.5 -16q92 0 146 96v229q0 10 8 16.5
t19 6.5t19 -6.5t8 -16.5v-295q0 -19 19 -19zM174 452q-6 6 -6 12t5 12l44 58q8 11 22 11t22 -11l44 -58q5 -6 5 -12t-5.5 -11t-11.5 -5l-15 8l-39 41l-39 -41q-8 -8 -15 -8z" />
    <glyph glyph-name="udieresis" unicode="&#xfc;" horiz-adv-x="509" 
d="M480 47q10 0 16.5 -6.5t6.5 -16.5t-6.5 -17t-16.5 -7h-54q-62 0 -62 68q-60 -78 -151 -78q-54 0 -88.5 27.5t-34.5 80.5v210q0 19 -27 19h-39q-10 0 -16.5 7t-6.5 17t6.5 16.5t16.5 6.5h39q81 0 81 -65v-211q0 -30 18.5 -46t51.5 -16q92 0 146 96v229q0 10 8 16.5t19 6.5
t19 -6.5t8 -16.5v-295q0 -19 19 -19h47zM133 495q0 31 31 31q14 0 22.5 -9t8.5 -22t-8.5 -21.5t-23 -8.5t-22.5 8.5t-8 21.5zM268 495q0 31 31 31q14 0 22.5 -9t8.5 -22t-8.5 -21.5t-23 -8.5t-22.5 8.5t-8 21.5z" />
    <glyph glyph-name="yacute" unicode="&#xfd;" horiz-adv-x="432" 
d="M21 -183q25 0 44 9q38 18 89 123l34 70l-163 330q-4 9 0.5 18t14 13.5t19 4.5t16.5 -15l141 -296l141 296q7 15 16 15t17 -4q18 -8 18 -23q0 -5 -2 -9l-204 -420q-19 -40 -30.5 -59.5t-34 -47t-51 -39.5t-58 -12t-40.5 3q-22 5 -19 25.5t20 20.5zM242 546q9 10 17 10
t16 -8t8 -16t-10 -17l-62 -55q-7 -6 -13.5 -6t-11.5 5t-5 11.5t6 13.5z" />
    <glyph glyph-name="thorn" unicode="&#xfe;" horiz-adv-x="476" 
d="M121 96q66 -60 128.5 -60t96.5 42t34 111t-33.5 109t-91.5 40q-82 0 -134 -93v-149zM67 703h-66q-10 0 -16.5 6.5t-6.5 16.5t6.5 17t16.5 7h93q10 0 18.5 -7t8.5 -17v-418q51 76 136 76t130.5 -54t45.5 -142t-47 -143t-125 -55t-140 57v-253q0 -10 -8 -16.5t-19 -6.5
t-19 6.5t-8 16.5v909z" />
    <glyph glyph-name="ydieresis" unicode="&#xff;" horiz-adv-x="432" 
d="M21 -183q25 0 44 9q38 18 89 123l34 70l-163 330q-4 9 0.5 18t14 13.5t19 4.5t16.5 -15l141 -296l141 296q7 15 16 15t17 -4q18 -8 18 -23q0 -5 -2 -9l-204 -420q-19 -40 -30.5 -59.5t-34 -47t-51 -39.5t-58 -12t-40.5 3q-22 5 -19 25.5t20 20.5zM118 495q0 31 31 31
q14 0 22.5 -9t8.5 -22t-8.5 -21.5t-23 -8.5t-22.5 8.5t-8 21.5zM253 495q0 31 31 31q14 0 22.5 -9t8.5 -22t-8.5 -21.5t-23 -8.5t-22.5 8.5t-8 21.5z" />
    <glyph glyph-name="Lslash" unicode="&#x141;" horiz-adv-x="544" 
d="M157 47h321v59q0 10 8 16.5t19 6.5t19 -6.5t8 -16.5v-83q0 -23 -23 -23h-378q-17 0 -22.5 6t-5.5 18v203l-50 -29q-7 -4 -15 -4t-14 10t-6 18.5t12 15.5l73 42v281h-59q-10 0 -16.5 6.5t-6.5 16.5t6.5 17t16.5 7h172q10 0 16.5 -7t6.5 -17t-6.5 -16.5t-16.5 -6.5h-59
v-250l76 44q7 4 15 4t15 -10q12 -22 -7 -34l-99 -57v-211z" />
    <glyph glyph-name="lslash" unicode="&#x142;" horiz-adv-x="277" 
d="M170 47h39q10 0 16.5 -7t6.5 -17t-6.5 -16.5t-16.5 -6.5h-39q-81 0 -81 65v158l-44 -25q-7 -4 -15 -4t-14 10t-6 18.5t12 15.5l67 38v427h-66q-10 0 -16.5 6.5t-6.5 16.5t6.5 17t16.5 7h93q11 0 19 -7t8 -17v-419l82 48q7 4 15 4t13.5 -9t5.5 -14q0 -14 -11 -21l-105 -61
v-188q0 -19 27 -19z" />
    <glyph glyph-name="OE" unicode="&#x152;" horiz-adv-x="939" 
d="M349 608h523q26 0 26 -24v-82q0 -10 -8 -16.5t-19 -6.5t-19 6.5t-8 16.5v59h-328v-232h280v37q0 10 7.5 16.5t18.5 6.5t18.5 -6.5t7.5 -16.5v-122q0 -10 -7.5 -16.5t-18.5 -6.5t-18.5 6.5t-7.5 16.5v38h-280v-235h355q12 0 19.5 -6.5t7.5 -16.5t-8 -17t-19 -7h-522
q-140 0 -221 81.5t-81 221.5t82.5 222.5t219.5 82.5zM462 47v514h-113q-114 0 -180.5 -69t-66.5 -189.5t65 -188t182 -67.5h113z" />
    <glyph glyph-name="oe" unicode="&#x153;" horiz-adv-x="694" 
d="M484 -10q-78 0 -126 43q-49 -43 -129 -43t-133.5 56t-53.5 142t53.5 141t130.5 55t132 -43q51 43 131.5 43t122 -51t41.5 -136q0 -23 -23 -23l-281 -1q5 -62 41 -99.5t94 -37.5q78 0 117 60q7 12 16 12t18 -4.5t12.5 -14t-1.5 -17.5q-51 -82 -162 -82zM295 188
q0 65 31 115q-38 35 -95.5 35t-96.5 -42t-39 -108.5t39 -109t96 -42.5t97 35q-32 52 -32 117zM567.5 306q-28.5 32 -82.5 32t-89.5 -32.5t-44.5 -85.5h248q-3 54 -31.5 86z" />
    <glyph glyph-name="Scaron" unicode="&#x160;" horiz-adv-x="578" 
d="M102 138v-69q67 -32 170 -32t155 32.5t52 92t-49 88.5t-156 49.5t-160.5 54.5t-53.5 107q0 157 233 157q124 0 205 -45q15 -9 15 -21v-82q0 -10 -8 -16.5t-19 -6.5t-19 6.5t-8 16.5v69q-69 32 -166 32q-179 0 -179 -109q0 -54 56 -80q28 -14 54.5 -21t89 -20t113.5 -33
q36 -15 56 -33t35 -47.5t15 -67.5q0 -78 -65.5 -124t-187.5 -46q-56 0 -121 12.5t-98 33.5q-13 8 -13 20v82q0 10 8 16.5t19 6.5t19 -6.5t8 -16.5zM347 775q6 -6 6 -12t-5 -12l-44 -58q-8 -11 -22 -11t-22 11l-44 58q-5 6 -5 12t5.5 11t11.5 5l15 -8l39 -41l39 41q8 8 15 8z
" />
    <glyph glyph-name="scaron" unicode="&#x161;" horiz-adv-x="412" 
d="M46 120q0 10 8 16.5t19 6.5t19 -6.5t8 -16.5v-68q48 -16 100 -16q114 0 114 64q0 24 -20 41q-20 15 -84 29.5t-90 23.5q-25 10 -35.5 19.5t-20.5 27t-10 44t14.5 48t49.5 36.5t91 15q70 0 129 -27q18 -8 18 -22v-77q0 -10 -8 -16.5t-19 -6.5t-19 6.5t-8 16.5v64
q-40 16 -93 16q-102 0 -102 -58q0 -21 17 -31q10 -6 16.5 -10t23 -8t23 -5.5t40.5 -8t67 -19.5q74 -29 74 -98q0 -42 -29.5 -68.5t-64 -34t-74.5 -7.5q-79 0 -136 26q-18 8 -18 23v81zM269 541q6 -6 6 -12t-5 -12l-44 -58q-8 -11 -22 -11t-22 11l-44 58q-5 6 -5 12t5.5 11
t11.5 5l15 -8l39 -41l39 41q8 8 15 8z" />
    <glyph glyph-name="Ydieresis" unicode="&#x178;" horiz-adv-x="562" 
d="M48 607l233 -341l233 342q8 11 17 11t19.5 -6t10.5 -22q0 -5 -3 -10l-250 -359v-209q0 -10 -8 -16.5t-19 -6.5t-19 6.5t-8 16.5v207l-251 362q-3 5 -3 9.5t1 8.5q6 19 30 19q10 0 17 -12zM183 729q0 31 31 31q14 0 22.5 -9t8.5 -22t-8.5 -21.5t-23 -8.5t-22.5 8.5
t-8 21.5zM318 729q0 31 31 31q14 0 22.5 -9t8.5 -22t-8.5 -21.5t-23 -8.5t-22.5 8.5t-8 21.5z" />
    <glyph glyph-name="Zcaron" unicode="&#x17d;" horiz-adv-x="597" 
d="M557 125v-101q0 -10 -8 -17t-20 -7h-462q-11 0 -19 7t-8 17q0 92 76 170q38 40 74 69t90 67l29 21q51 37 81.5 63t61 66.5t37.5 80.5h-385v-78q0 -10 -8 -16.5t-19 -6.5t-19 6.5t-8 16.5v102q0 9 8 16t19 7h440q11 0 19.5 -7t8.5 -16q0 -84 -73 -159q-37 -38 -64 -60.5
t-72 -55.5l-50 -37q-54 -39 -85.5 -66t-64.5 -71.5t-40 -88.5h407v78q0 10 8 16.5t19 6.5t19 -6.5t8 -16.5zM355 775q6 -6 6 -12t-5 -12l-44 -58q-8 -11 -22 -11t-22 11l-44 58q-5 6 -5 12t5.5 11t11.5 5l15 -8l39 -41l39 41q8 8 15 8z" />
    <glyph glyph-name="zcaron" unicode="&#x17e;" horiz-adv-x="436" 
d="M390 105v-83q0 -22 -26 -22h-301q-26 0 -26 25q0 49 34.5 87.5t100.5 83.5l36 25q96 66 113 115h-219v-56q0 -10 -8 -16.5t-19 -6.5t-19 6.5t-8 16.5v79q0 23 23 23h281q10 0 18 -6.5t8 -16.5q0 -34 -23.5 -68.5t-48.5 -54.5q-46 -39 -71 -56l-30 -22q-72 -53 -89.5 -74
t-22.5 -38h243v59q0 10 8 16.5t19 6.5t19 -6.5t8 -16.5zM275 541q6 -6 6 -12t-5 -12l-44 -58q-8 -11 -22 -11t-22 11l-44 58q-5 6 -5 12t5.5 11t11.5 5l15 -8l39 -41l39 41q8 8 15 8z" />
    <glyph glyph-name="florin" unicode="&#x192;" horiz-adv-x="534" 
d="M63 -226q-11 -3 -19.5 -3t-14 5.5t-5.5 13.5q0 21 25 27q52 16 75.5 59.5t30.5 117.5l27 333h-61q-10 0 -16 6.5t-5 16.5q2 24 24 24h61l19 226q7 87 46.5 123.5t115.5 36.5t127 -33q12 -6 10 -18l-7 -86q-1 -10 -9 -16.5t-19 -6.5t-19 6.5t-7 16.5l7 75q-35 16 -86.5 16
t-76 -26.5t-29.5 -88.5l-19 -225h174q10 0 16 -7t5 -17q-2 -23 -24 -23h-174l-27 -333q-7 -89 -38.5 -142t-106.5 -78z" />
    <glyph glyph-name="circumflex" unicode="&#x2c6;" horiz-adv-x="202" 
d="M36 452q-6 6 -6 12t5 12l44 58q8 11 22 11t22 -11l44 -58q5 -6 5 -12t-5.5 -11t-11.5 -5l-15 8l-39 41l-39 -41q-8 -8 -15 -8z" />
    <glyph glyph-name="caron" unicode="&#x2c7;" horiz-adv-x="202" 
d="M166 541q6 -6 6 -12t-5 -12l-44 -58q-8 -11 -22 -11t-22 11l-44 58q-5 6 -5 12t5.5 11t11.5 5l15 -8l39 -41l39 41q8 8 15 8z" />
    <glyph glyph-name="breve" unicode="&#x2d8;" horiz-adv-x="224" 
d="M153 533q0 20 20.5 20t20.5 -20q0 -36 -23.5 -58t-59.5 -22t-58.5 22t-22.5 58q0 20 20.5 20t20.5 -19.5t11.5 -32t29.5 -12.5t29.5 12t11.5 32z" />
    <glyph glyph-name="ring" unicode="&#x2da;" horiz-adv-x="193" 
d="M23 501q0 29 19.5 47.5t50.5 18.5t51 -18.5t20 -47.5t-20 -47.5t-51 -18.5t-50.5 18.5t-19.5 47.5zM61 501q0 -16 9.5 -24.5t22.5 -8.5t23 8.5t10 24.5t-10 24.5t-23 8.5t-22.5 -8.5t-9.5 -24.5z" />
    <glyph glyph-name="ogonek" unicode="&#x2db;" horiz-adv-x="236" 
d="M83 -75q0 -30 32 -30q25 0 52 25q8 7 17 7t15.5 -6.5t6.5 -14t-9 -19.5t-33 -24.5t-49 -12.5q-85 0 -85 75q0 23 17 48t45 37l55 -9q-28 -15 -46 -36t-18 -40z" />
    <glyph glyph-name="tilde" unicode="&#x2dc;" horiz-adv-x="331" 
d="M107 499q-21 0 -21 -22.5t-23 -22.5t-23 26t18 44.5t49 18.5t68.5 -22t49.5 -22q20 0 20 22t23 22t23 -25.5t-18 -43.5t-48.5 -18t-66.5 21.5t-51 21.5z" />
    <glyph glyph-name="hungarumlaut" unicode="&#x2dd;" horiz-adv-x="271" 
d="M92 546q9 10 17 10t16 -8t8 -16t-10 -17l-62 -55q-7 -6 -13.5 -6t-11.5 5t-5 11.5t6 13.5zM201 546q9 10 17 10t16 -8t8 -16t-10 -17l-62 -55q-7 -6 -13.5 -6t-11.5 5t-5 11.5t6 13.5z" />
    <glyph glyph-name="endash" unicode="&#x2013;" horiz-adv-x="511" 
d="M428 196h-345q-10 0 -16.5 6.5t-6.5 16.5t6.5 17t16.5 7h345q10 0 16.5 -7t6.5 -17t-6.5 -16.5t-16.5 -6.5z" />
    <glyph glyph-name="emdash" unicode="&#x2014;" horiz-adv-x="747" 
d="M664 196h-581q-10 0 -16.5 6.5t-6.5 16.5t6.5 17t16.5 7h581q10 0 16.5 -7t6.5 -17t-6.5 -16.5t-16.5 -6.5z" />
    <glyph glyph-name="quoteleft" unicode="&#x2018;" horiz-adv-x="173" 
d="M120 663q0 -15 -9.5 -25.5t-26.5 -10.5t-27 10.5t-10 25.5q0 37 24 67t45 30q11 0 11 -9q0 -6 -7 -12q-19 -15 -25 -42q25 -6 25 -34z" />
    <glyph glyph-name="quoteright" unicode="&#x2019;" horiz-adv-x="175" 
d="M59 724q0 15 9.5 25.5t26.5 10.5t27 -10.5t10 -25.5q0 -37 -24 -67t-45 -30q-11 0 -11 9q0 6 7 12q19 15 25 42q-25 6 -25 34z" />
    <glyph glyph-name="quotesinglbase" unicode="&#x201a;" horiz-adv-x="198" 
d="M63 26q0 15 9.5 25.5t26.5 10.5t27 -10.5t10 -25.5q0 -37 -24 -67t-45 -30q-11 0 -11 9q0 6 7 12q19 15 25 42q-25 6 -25 34z" />
    <glyph glyph-name="quotedblleft" unicode="&#x201c;" horiz-adv-x="285" 
d="M232 663q0 -15 -9.5 -25.5t-26.5 -10.5t-27 10.5t-10 25.5q0 37 24 67t45 30q11 0 11 -9q0 -6 -7 -12q-19 -15 -25 -42q25 -6 25 -34zM120 663q0 -15 -9.5 -25.5t-26.5 -10.5t-27 10.5t-10 25.5q0 37 24 67t45 30q11 0 11 -9q0 -6 -7 -12q-19 -15 -25 -42q25 -6 25 -34z
" />
    <glyph glyph-name="quotedblright" unicode="&#x201d;" horiz-adv-x="287" 
d="M59 724q0 15 9.5 25.5t26.5 10.5t27 -10.5t10 -25.5q0 -37 -24 -67t-45 -30q-11 0 -11 9q0 6 7 12q19 15 25 42q-25 6 -25 34zM171 724q0 15 9.5 25.5t26.5 10.5t27 -10.5t10 -25.5q0 -37 -24 -67t-45 -30q-11 0 -11 9q0 6 7 12q19 15 25 42q-25 6 -25 34z" />
    <glyph glyph-name="quotedblbase" unicode="&#x201e;" horiz-adv-x="310" 
d="M63 26q0 15 9.5 25.5t26.5 10.5t27 -10.5t10 -25.5q0 -37 -24 -67t-45 -30q-11 0 -11 9q0 6 7 12q19 15 25 42q-25 6 -25 34zM175 26q0 15 9.5 25.5t26.5 10.5t27 -10.5t10 -25.5q0 -37 -24 -67t-45 -30q-11 0 -11 9q0 6 7 12q19 15 25 42q-25 6 -25 34z" />
    <glyph glyph-name="dagger" unicode="&#x2020;" horiz-adv-x="362" 
d="M154 -153v480h-98q-10 0 -16.5 6.5t-6.5 16.5t6.5 17t16.5 7h98v221q0 10 8 16.5t19 6.5t19 -6.5t8 -16.5v-221h98q10 0 16.5 -7t6.5 -17t-6.5 -16.5t-16.5 -6.5h-98v-480q0 -10 -8 -16.5t-19 -6.5t-19 6.5t-8 16.5z" />
    <glyph glyph-name="daggerdbl" unicode="&#x2021;" horiz-adv-x="362" 
d="M306 126h-98v-279q0 -10 -8 -16.5t-19 -6.5t-19 6.5t-8 16.5v279h-98q-10 0 -16.5 6.5t-6.5 16.5t6.5 17t16.5 7h98v154h-98q-10 0 -16.5 6.5t-6.5 16.5t6.5 17t16.5 7h98v221q0 10 8 16.5t19 6.5t19 -6.5t8 -16.5v-221h98q10 0 16.5 -7t6.5 -17t-6.5 -16.5t-16.5 -6.5
h-98v-154h98q10 0 16.5 -7t6.5 -17t-6.5 -16.5t-16.5 -6.5z" />
    <glyph glyph-name="bullet" unicode="&#x2022;" horiz-adv-x="301" 
d="M84 346q0 29 19 47.5t47 18.5t47.5 -18.5t19.5 -47.5t-19.5 -46.5t-47.5 -17.5t-47 17.5t-19 46.5z" />
    <glyph glyph-name="ellipsis" unicode="&#x2026;" horiz-adv-x="403" 
d="M60 26q0 15 9.5 25.5t26.5 10.5t27 -10.5t10 -25.5t-10 -25.5t-27 -10.5t-26.5 10.5t-9.5 25.5zM165 26q0 15 9.5 25.5t26.5 10.5t27 -10.5t10 -25.5t-10 -25.5t-27 -10.5t-26.5 10.5t-9.5 25.5zM270 26q0 15 9.5 25.5t26.5 10.5t27 -10.5t10 -25.5t-10 -25.5t-27 -10.5
t-26.5 10.5t-9.5 25.5z" />
    <glyph glyph-name="perthousand" unicode="&#x2030;" horiz-adv-x="891" 
d="M521 29.5q-35 -39.5 -96 -39.5t-96.5 38.5t-35.5 104t35.5 103.5t97 38t96 -40t34.5 -102.5t-35 -102zM482 202q-21 26 -57.5 26t-57 -25.5t-20.5 -70.5t20.5 -70.5t57 -25.5t57.5 26t21 70t-21 70zM269 373.5q-35 -39.5 -96 -39.5t-96.5 38.5t-35.5 104t35.5 103.5
t97 38t96 -40t34.5 -102.5t-35 -102zM230 546q-21 26 -57.5 26t-57 -25.5t-20.5 -70.5t20.5 -70.5t57 -25.5t57.5 26t21 70t-21 70zM124 8q-7 -12 -16 -12t-21 7t-12 15t5 15l394 568q7 12 16 12t21 -7t12 -15.5t-5 -14.5zM825 29.5q-35 -39.5 -96 -39.5t-96.5 38.5
t-35.5 104t35.5 103.5t97 38t96 -40t34.5 -102.5t-35 -102zM786 202q-21 26 -57.5 26t-57 -25.5t-20.5 -70.5t20.5 -70.5t57 -25.5t57.5 26t21 70t-21 70z" />
    <glyph glyph-name="guilsinglleft" unicode="&#x2039;" horiz-adv-x="339" 
d="M39 192q0 11 13 20l198 143q6 5 11 5t11.5 -0.5t12.5 -9t6 -17.5t-11 -17l-176 -124l176 -123q11 -8 11 -17t-6 -17q-7 -10 -18 -10t-17 5l-198 142q-13 9 -13 20z" />
    <glyph glyph-name="guilsinglright" unicode="&#x203a;" horiz-adv-x="338" 
d="M88 30q-6 -5 -11 -5t-11.5 0.5t-12.5 9t-6 17.5t11 17l176 123l-176 124q-11 8 -11 17t6 17q7 10 18 10t17 -5l198 -143q13 -9 13 -20t-13 -20z" />
    <glyph glyph-name="fraction" unicode="&#x2044;" horiz-adv-x="454" 
d="M52 8q-7 -12 -16 -12t-21 7t-12 15t5 15l394 568q7 12 16 12t21 -7t12 -15.5t-5 -14.5z" />
    <glyph glyph-name="Euro" unicode="&#x20ac;" horiz-adv-x="428" 
d="M350 -10q-108 0 -172 59t-83 162h-33q-10 0 -16.5 6.5t-6.5 16.5t6.5 17t16.5 7h27q-2 24 -2 44.5t2 39.5h-27q-10 0 -16.5 6.5t-6.5 16.5t6.5 17t16.5 7h34q19 104 83.5 166.5t170.5 62.5q10 0 16.5 -6.5t6.5 -16.5t-6.5 -16.5t-16.5 -6.5q-85 0 -135 -48.5t-66 -134.5
h186q10 0 16.5 -7t6.5 -17t-6.5 -16.5t-16.5 -6.5h-192q-2 -26 -2 -46t2 -38h192q10 0 16.5 -7t6.5 -17t-6.5 -16.5t-16.5 -6.5h-185q18 -80 68.5 -127.5t131.5 -47.5q10 0 16.5 -6.5t6.5 -16.5t-6.5 -16.5t-16.5 -6.5z" />
    <glyph glyph-name="trademark" unicode="&#x2122;" horiz-adv-x="757" 
d="M103 340v215h-11q-10 0 -16.5 6.5t-6.5 16.5t6.5 17t16.5 7h37q16 0 26 -14l89 -123l91 125q9 12 22 12h39q10 0 16.5 -7t6.5 -17t-6.5 -16.5t-16.5 -6.5h-11v-190h11q10 0 16.5 -7t6.5 -17t-6.5 -16.5t-16.5 -6.5h-16q-20 0 -31.5 6.5t-14 13.5t-2.5 18v143l-65 -89
q-9 -14 -22 -14t-24 15l-64 89v-160q0 -10 -8 -16.5t-19 -6.5t-19 6.5t-8 16.5zM719 581v-37q0 -10 -7.5 -16.5t-18.5 -6.5t-18 6.5t-7 16.5v11h-57v-215q0 -10 -8 -16.5t-19 -6.5t-19 6.5t-8 16.5v215h-59v-11q0 -10 -7.5 -16.5t-18.5 -6.5t-18 6.5t-7 16.5v36
q0 9 6.5 15.5t17.5 6.5h224q24 0 24 -21z" />
    <glyph glyph-name="apple" unicode="&#xf8ff;" horiz-adv-x="1347" 
d="M889 488l5 -94h-113q0 160 8 213l3 20h76q6 -42 6 -74l2 10q18 68 79 68q40 0 56.5 -23.5t17.5 -77.5l2 -136h-112l2 94q0 25 -15 25q-17 0 -17 -25zM178 394h-116q0 138 8 268l3 39h95q10 -137 10 -307zM1166 631q69 0 95 -33t26 -89.5t-30.5 -88.5t-90 -32t-90 32
t-30.5 87q0 124 120 124zM1166.5 466q23.5 0 23.5 28.5t-23.5 28.5t-23.5 -28.5t23.5 -28.5zM329 631q116 0 116 -112v-125h-76l-9 58q-12 -64 -74 -64q-89 0 -89 112q0 65 31 98t101 33zM324 466q24 0 24 28.5t-24 28.5q-21 0 -21 -28.5t21 -28.5zM682 363q35 0 56.5 -29.5
t21.5 -89t-33 -94.5t-94 -35q2 -15 2 -42h-127q0 139 8 249l3 33h78q7 -51 7 -75q14 83 78 83zM656 232q0 21 -19 21q-23 0 -23 -30l4 -27q14 0 26 10.5t12 25.5zM941 189q22 0 41 15v-73q-21 -16 -80 -16t-92 32.5t-33 88.5q0 127 123 127q52 0 82 -30.5t30 -83.5l-5 -36
h-120q0 -24 54 -24zM881 238h39q1 3 1 8q0 19 -18 19q-22 0 -22 -27zM479 452l2 86h-23v83l116 36l4 -30h172q8 -63 8 -233h-114q0 110 2 144h-57l2 -63q2 -2 11 -2l17 4v-72q-7 -17 -62 -17q-78 0 -78 64zM659 657.5q-17 17.5 -17 42.5t17 42.5t42 17.5t42 -17.5t17 -42.5
t-17 -42.5t-42 -17.5t-42 17.5zM85 179l2 82h-27v83l121 40l4 -29h165q-2 -102 -2 -106q0 -26 15.5 -26t15.5 26l-2 106h106q6 -58 6 -137t-36 -112t-105.5 -33t-101.5 21v83q25 -19 63 -19t56 9t21 18l4 9q-11 -15 -57 -15q-93 0 -93 74v8h-45l2 -61q16 0 28 6v-74
q-18 -17 -67 -17q-73 0 -73 64zM1089 327q0 -9 -8 -12l8 -13h-9l-7 11h-7v-11h-8v37h16q15 0 15 -12zM1081 326q0 6 -7 6h-8v-12h8q7 0 7 6zM1035 320q0 15 11 26t26 11t26 -11t11 -26t-11 -26t-26 -11t-26 11t-11 26zM1042 320q0 -12 9 -21t21 -9t21 9t9 21t-9 21t-21 9
t-21 -9t-9 -21z" />
    <glyph glyph-name="fi" unicode="&#xfb01;" horiz-adv-x="524" 
d="M459 351v-338q0 -10 -8 -16.5t-19 -6.5t-19 6.5t-8 16.5v314h-248v-333q0 -89 -27 -142t-101 -78q-11 -3 -19 -3t-14.5 6t-6.5 16q0 18 23 24q52 16 72 59.5t20 117.5v333h-61q-10 0 -16.5 6.5t-6.5 16.5t6.5 17t16.5 7h61v226q0 87 47 123.5t139 36.5t153 -33
q12 -7 12 -18v-171q0 -10 -8 -16.5t-19 -6.5t-19 6.5t-8 16.5v160q-41 16 -111.5 16t-101.5 -26.5t-31 -88.5v-225h279q23 0 23 -23z" />
    <glyph glyph-name="fl" unicode="&#xfb02;" horiz-adv-x="559" 
d="M486 47h39q10 0 16.5 -7t6.5 -17t-6.5 -16.5t-16.5 -6.5h-39q-81 0 -81 65v633q-41 16 -113.5 16t-103.5 -26.5t-31 -88.5v-225h174q10 0 16.5 -7t6.5 -17t-6.5 -16.5t-16.5 -6.5h-174v-333q0 -89 -27 -142t-101 -78q-11 -3 -19 -3t-14.5 6t-6.5 16q0 18 23 24
q52 16 72 59.5t20 117.5v333h-61q-10 0 -16.5 6.5t-6.5 16.5t6.5 17t16.5 7h61v226q0 87 47 123.5t141 36.5t155 -33q12 -7 12 -18v-643q0 -19 27 -19z" />
    </font>
</defs>
</svg>
