<?xml version="1.0" standalone="no"?>
<!DOCTYPE svg PUBLIC "-//W3C//DTD SVG 1.1//EN" "http://www.w3.org/Graphics/SVG/1.1/DTD/svg11.dtd" >
<svg xmlns="http://www.w3.org/2000/svg" xmlns:xlink="http://www.w3.org/1999/xlink" version="1.1">
<metadata>
Created by FontForge 20170731 at Wed Mar 18 14:25:11 2015
 By Aleksey,,,
2015 Iconian Fonts - www.iconian.com
</metadata>
<defs>
<font id="FutureForcesItalic" horiz-adv-x="634" >
  <font-face 
    font-family="Future Forces Italic"
    font-weight="400"
    font-style="italic"
    font-stretch="normal"
    units-per-em="1000"
    panose-1="0 0 0 0 0 0 0 0 0 0"
    ascent="800"
    descent="-200"
    x-height="407"
    cap-height="407"
    bbox="-81 -147 1155 547"
    underline-thickness="50"
    underline-position="-175"
    unicode-range="U+0020-2122"
  />
<missing-glyph horiz-adv-x="500" 
 />
    <glyph glyph-name=".notdef" horiz-adv-x="500" 
 />
    <glyph glyph-name=".null" horiz-adv-x="0" 
 />
    <glyph glyph-name="nonmarkingreturn" horiz-adv-x="500" 
 />
    <glyph glyph-name="FL0020h" unicode=" " horiz-adv-x="384" 
 />
    <glyph glyph-name="FL0021h" unicode="!" horiz-adv-x="205" 
d="M174 407l-84 -259h121l84 259h-121zM163 0l36 111h-121l-36 -111h121z" />
    <glyph glyph-name="FL0022h" unicode="&#x22;" horiz-adv-x="351" 
d="M405 296l36 111h-113l-52 -161h70zM251 296l36 111h-113l-52 -161h70z" />
    <glyph glyph-name="FL0023h" unicode="#" horiz-adv-x="685" 
d="M753 338l-36 -110h-112l-16 -50h112l-36 -110h-112l-22 -68h-121l22 68h-135l-22 -68h-121l22 68h-112l36 110h112l16 50h-112l36 110h112l22 69h121l-22 -69h135l22 69h121l-22 -69h112zM484 228h-135l-16 -50h135z" />
    <glyph glyph-name="FL0024h" unicode="$" 
d="M239 -58l19 58h-216l36 111h216l12 37h-169q-20 0 -28.5 14.5t-5.5 24.5l59 181q7 16 21 26t31 13h176l18 55h119l-18 -55h215l-36 -111h-215l-12 -38h182q4 0 8.5 -4.5t7.5 -10.5t4 -12.5t0 -10.5l-60 -185q-4 -11 -18.5 -23t-25.5 -12h-182l-19 -58h-119zM354 296h-95
l-12 -38h95zM507 111l12 37h-94l-12 -37h94z" />
    <glyph glyph-name="FL0025h" unicode="%" horiz-adv-x="697" 
d="M652 -9q-2 -6 -8.5 -11t-12.5 -5h-244q-5 0 -8.5 5.5t-1.5 10.5l48 147l-117 -138h-130l190 225h-238q-5 0 -8.5 5.5t-1.5 10.5l57 174q2 6 9 11t11 5h244q5 0 9 -5t2 -11l-48 -148l118 140h130l-191 -226h237q5 0 9 -5t2 -11zM333 300l19 56h-114l-19 -56h114zM590 50
l18 56h-114l-18 -56h114z" />
    <glyph glyph-name="FL0026h" unicode="&#x26;" 
d="M199 111h429l-36 -111h-198l-19 -58h-119l19 58h-199q-11 0 -15 8.5t-3.5 21.5t4 27t7.5 25l9 30q7 22 13.5 36t13 23.5t14 16.5t17.5 15q-5 9 -8 16.5t-3 17.5t3 23.5t10 33.5l10 31q3 11 9 25t13.5 27t17 21.5t20.5 8.5h199l18 55h119l-18 -55h198l-36 -111h-429
l-12 -38h402l-36 -110h-402z" />
    <glyph glyph-name="FL0027h" unicode="'" horiz-adv-x="205" 
d="M259 296l36 111h-121l-52 -161h75z" />
    <glyph glyph-name="FL0028h" unicode="(" horiz-adv-x="344" 
d="M288 -43l36 111h-139l88 270h139l36 111h-229q-4 0 -10.5 -3t-12.5 -7.5t-11.5 -10t-7.5 -11.5l-139 -428q-2 -9 4 -20.5t17 -11.5h229z" />
    <glyph glyph-name="FL0029h" unicode=")" horiz-adv-x="344" 
d="M28 -43l36 111h139l88 270h-139l36 111h229q8 0 15.5 -10.5t4.5 -21.5l-139 -428q-3 -9 -16.5 -20.5t-24.5 -11.5h-229z" />
    <glyph glyph-name="asterisk" unicode="*" horiz-adv-x="210" 
d="M224 319l-6 27l-20 -27l-47 41l39 21l-32 7l37 56l24 -14l4 31h63l-18 -31l39 15l-3 -57l-36 -7l23 -21z" />
    <glyph glyph-name="FL002Bh" unicode="+" horiz-adv-x="464" 
d="M292 355h110l-31 -97h135l-36 -110h-135l-31 -97h-110l31 97h-135l36 110h135z" />
    <glyph glyph-name="FL002Ch" unicode="," horiz-adv-x="205" 
d="M163 0l36 111h-121l-52 -161h75z" />
    <glyph glyph-name="FL002Dh" unicode="-" horiz-adv-x="388" 
d="M90 148l36 110h304l-36 -110h-304z" />
    <glyph glyph-name="FL002Eh" unicode="." horiz-adv-x="205" 
d="M163 0l36 111h-121l-36 -111h121z" />
    <glyph glyph-name="FL002Fh" unicode="/" horiz-adv-x="392" 
d="M367 407l-342 -407h132l342 407h-132z" />
    <glyph glyph-name="FL0031h" unicode="0" 
d="M602 32q-3 -11 -16.5 -21.5t-24.5 -10.5h-488q-11 0 -17 11.5t-4 20.5l112 343q5 11 19 21.5t22 10.5h488q8 0 16.5 -10.5t4.5 -21.5zM397 296h-138l-60 -185h42zM507 111l60 185h-41l-156 -185h137z" />
    <glyph glyph-name="FL0034h" unicode="1" horiz-adv-x="247" 
d="M174 407h163l-132 -407h-121l96 296h-42z" />
    <glyph glyph-name="FL0032h" unicode="2" 
d="M628 111h-429l12 37h382q10 0 20 4.5t18.5 10.5t14 12.5t7.5 11.5l59 181q2 16 -5.5 26t-22.5 13h-510l-36 -111h429l-12 -38h-396q-5 0 -12 -4.5t-14 -10.5t-13 -12.5t-7 -10.5l-60 -185q-4 -11 3.5 -23t18.5 -12h517z" />
    <glyph glyph-name="FL0033h" unicode="3" 
d="M78 111h429l12 37h-402l36 110h402l12 38h-429l36 111h516q11 0 15 -8.5t3.5 -21.5t-4 -27t-6.5 -25l-10 -31q-7 -21 -13 -34t-12.5 -22.5t-14.5 -17.5t-18 -17l7.5 -15t3.5 -17q0 -9 -3 -23t-10 -36l-9 -30q-4 -11 -9.5 -25t-13.5 -27t-17.5 -21.5t-20.5 -8.5h-516z" />
    <glyph glyph-name="FL0037h" unicode="4" 
d="M174 407l-84 -259h429l-48 -148h121l132 407h-121l-48 -149h-308l48 149h-121z" />
    <glyph glyph-name="FL0035h" unicode="5" 
d="M78 111h429l12 37h-429l84 259h550l-36 -111h-429l-12 -38h396q4 0 8.5 -4.5t7.5 -10.5t4 -12.5t0 -10.5l-60 -185q-4 -11 -18.5 -23t-25.5 -12h-517z" />
    <glyph glyph-name="FL0036h" unicode="6" 
d="M259 296l-12 -38h396q4 0 8.5 -4.5t7.5 -10.5t4 -12.5t0 -10.5l-60 -187q-4 -11 -18.5 -21.5t-24.5 -11.5h-485q-8 0 -17.5 9t-5.5 23l112 343q5 11 18.5 21.5t24.5 10.5h517l-36 -111h-429zM198 109h308l13 39h-308z" />
    <glyph glyph-name="FL003Bh" unicode="7" 
d="M174 407h550l-33 -101l-375 -306h-160l357 296h-375z" />
    <glyph glyph-name="FL0038h" unicode="8" horiz-adv-x="646" 
d="M148 325q3 11 9 25t14.5 27t18 21.5t20.5 8.5h490q11 0 15 -8.5t4 -21.5t-3 -27t-6 -25l-10 -31q-7 -21 -13 -34t-12.5 -23t-14 -17.5t-17.5 -16.5q4 -8 7 -15t3.5 -16.5t-3 -23.5t-10.5 -36l-9 -30q-4 -11 -10 -25t-14.5 -27t-18 -21.5t-20.5 -8.5h-490q-11 0 -15 8.5
t-4 21.5t3 27t7 25l9 30q7 22 13.5 36t13 23.5t13.5 16.5t17 15q-4 9 -6.5 16.5t-2.5 17.5t2.5 23t9.5 34zM247 258h320l12 38h-320zM199 111h320l12 37h-320z" />
    <glyph glyph-name="FL0039h" unicode="9" 
d="M123 149q-5 0 -9 4.5t-7 10.5t-4.5 12.5t0.5 10.5l61 187q3 11 18 21.5t25 11.5h485q11 0 18 -11t4 -22l-112 -342q-2 -5 -7 -10.5t-11 -10.5t-12.5 -8t-10.5 -3h-519l36 111h429l12 38h-396zM568 297h-308l-13 -38h308z" />
    <glyph glyph-name="FL003Ah" unicode=":" horiz-adv-x="205" 
d="M163 0l36 111h-121l-36 -111h121zM241 240l36 111h-121l-36 -111h121z" />
    <glyph glyph-name="FL003Ch" unicode=";" horiz-adv-x="205" 
d="M241 240l36 111h-121l-36 -111h121zM163 0l36 111h-121l-52 -161h75z" />
    <glyph glyph-name="FL003Dh" unicode="&#x3c;" horiz-adv-x="411" 
d="M363 407l-272 -204l139 -203h156l-139 203l271 204h-155z" />
    <glyph glyph-name="FL003Fh" unicode="=" horiz-adv-x="464" 
d="M152 338h380l-36 -110h-380zM100 178h380l-36 -110h-380z" />
    <glyph glyph-name="FL003Eh" unicode="&#x3e;" horiz-adv-x="411" 
d="M312 407l140 -204l-271 -203h-156l271 203l-139 204h155z" />
    <glyph glyph-name="FL0040h" unicode="?" 
d="M204 220l-23 -72h412q10 0 20 4.5t18.5 10.5t14 12.5t7.5 11.5l59 181q2 16 -5.5 26t-22.5 13h-510l-36 -111h429l-12 -38h-305q-5 0 -12 -4.5t-14 -10.5t-13 -12.5t-7 -10.5zM254 0l36 111h-121l-36 -111h121z" />
    <glyph glyph-name="FL004Ah" unicode="@" horiz-adv-x="731" 
d="M615 290l-36 -112h50l53 163h-411l-90 -276h529l-35 -108h-616q-11 0 -17 11.5t-4 20.5l139 428q2 6 7.5 11.5t11.5 10t12.5 7.5t10.5 3h585q8 0 15.5 -10.5t4.5 -21.5l-92 -284q-4 -9 -17 -20.5t-24 -11.5h-433q-5 0 -8.5 5.5t-1.5 10.5l56 173q2 6 9 11t11 5h280
q5 0 9 -5t2 -11zM350 178h146l16 51h-146z" />
    <glyph glyph-name="FL0060h" unicode="A" horiz-adv-x="614" 
d="M457 0h132l-86 407h-128l-350 -407h132l61 72h223zM398 281l21 -99h-106z" />
    <glyph glyph-name="FL0042h" unicode="B" horiz-adv-x="646" 
d="M42 0h526q11 0 20.5 8.5t18 21.5t14.5 27t10 25l10 31q7 22 10 36t2.5 23.5t-3.5 16t-7 14.5q10 9 17.5 16.5t14 17t12 22.5t12.5 34l11 32q3 11 6 25t3 27t-4 21.5t-15 8.5h-526zM199 111l12 37h320l-12 -37h-320zM259 296h320l-12 -38h-320z" />
    <glyph glyph-name="FL0043h" unicode="C" 
d="M602 32l39 118h-121l-13 -39h-308l60 185h308l-12 -38h121l38 117q4 11 -4.5 21.5t-16.5 10.5h-488q-8 0 -22 -10.5t-19 -21.5l-112 -343q-2 -9 4 -20.5t17 -11.5h488q11 0 24.5 10.5t16.5 21.5z" />
    <glyph glyph-name="FL0044h" unicode="D" 
d="M606 43l104 321q2 6 -0.5 13t-7.5 14t-11 11.5t-10 4.5h-507l-132 -407h507q6 0 14.5 4.5t17.5 11.5t16 14t9 13zM507 111h-308l60 185h308z" />
    <glyph glyph-name="FL0045h" unicode="E" 
d="M607 149q4 0 11.5 4.5t14.5 10.5t12.5 12.5t7.5 10.5l61 187q3 11 -5 21.5t-18 11.5h-485q-11 0 -25 -11t-17 -22l-112 -342q-3 -10 5 -21t16 -11h519l36 111h-429l12 38h396zM260 297h308l-13 -38h-308z" />
    <glyph glyph-name="FL0046h" unicode="F" 
d="M174 407h550l-36 -111h-429l-24 -75h402l-36 -110h-402l-36 -111h-121z" />
    <glyph glyph-name="FL0047h" unicode="G" 
d="M198 109l61 187h429l36 111h-517q-11 0 -24.5 -10.5t-18.5 -21.5l-112 -343q-4 -14 5.5 -23t17.5 -9h485q10 1 24.5 11.5t18.5 21.5l60 187q1 4 0 10.5t-4 12.5t-7.5 10.5t-8.5 4.5h-260l-36 -110h172l-13 -39h-308z" />
    <glyph glyph-name="FL0048h" unicode="H" 
d="M174 407l-132 -407h121l48 148h308l-48 -148h121l132 407h-121l-48 -149h-308l48 149h-121z" />
    <glyph glyph-name="FL0049h" unicode="I" 
d="M628 111l-36 -111h-550l36 111h214l60 185h-214l36 111h550l-36 -111h-215l-60 -185h215z" />
    <glyph glyph-name="FL0051h" unicode="J" 
d="M52 32l39 118h121l-13 -39h308l60 185h-308l36 111h429l-122 -375q-4 -9 -17 -20.5t-24 -11.5h-488q-11 0 -17.5 10.5t-3.5 21.5z" />
    <glyph glyph-name="FL007Ch" unicode="K" horiz-adv-x="646" 
d="M174 407h121l-48 -149h233l126 149h131l-119 -149q14 -2 24.5 -10t14.5 -24.5t0.5 -42.5t-15.5 -65l-38 -116h-121l48 148h-320l-48 -148h-121z" />
    <glyph glyph-name="FL004Ch" unicode="L" 
d="M628 111h-429l96 296h-121l-121 -374q-4 -11 3 -22t20 -11h516z" />
    <glyph glyph-name="FL004Dh" unicode="M" horiz-adv-x="751" 
d="M677 277l-90 -277h122l132 407h-186l-242 -290l-53 290h-186l-132 -407h121l90 277l55 -277h134z" />
    <glyph glyph-name="FL004Eh" unicode="N" horiz-adv-x="649" 
d="M174 407l-132 -407h121l82 253l248 -253h114l132 407h-122l-82 -253l-245 253h-116z" />
    <glyph glyph-name="FL004Fh" unicode="O" 
d="M602 32l112 343q4 11 -4.5 21.5t-16.5 10.5h-488q-8 0 -22 -10.5t-19 -21.5l-112 -343q-2 -9 4 -20.5t17 -11.5h488q11 0 24.5 10.5t16.5 21.5zM507 111h-308l60 185h308z" />
    <glyph glyph-name="FL0050h" unicode="P" horiz-adv-x="646" 
d="M42 0h121l36 111h368q31 0 67 46.5t65 134.5l11 33q3 11 6 25t3 27t-4 21.5t-15 8.5h-526zM259 296h320l-24 -75h-320z" />
    <glyph glyph-name="FL0071h" unicode="Q" 
d="M490 -59l-31 59h-386q-11 0 -17 11.5t-4 20.5l112 343q5 11 19 21.5t22 10.5h488q8 0 16.5 -10.5t4.5 -21.5l-111 -342l35 -92h-148zM386 165h139l42 131h-308l-60 -185h209z" />
    <glyph glyph-name="FL0053h" unicode="R" horiz-adv-x="646" 
d="M520 111l-36 -111h120l35 108q1 5 1.5 15.5t0 22t-2 21.5t-4.5 14q15 16 34 45.5t32 67.5l10 31q3 11 6 25t3 27t-4 21.5t-15 8.5h-526l-132 -407h121l36 111h321zM259 296h320l-24 -75h-320z" />
    <glyph glyph-name="FL0056h" unicode="S" 
d="M78 111h429l12 37h-382q-20 0 -28.5 14.5t-5.5 24.5l59 181q7 16 21 26t31 13h510l-36 -111h-429l-12 -38h396q4 0 8.5 -4.5t7.5 -10.5t4 -12.5t0 -10.5l-60 -185q-4 -11 -18.5 -23t-25.5 -12h-517z" />
    <glyph glyph-name="FL0055h" unicode="T" 
d="M352 296h-214l36 111h550l-36 -111h-215l-96 -296h-121z" />
    <glyph glyph-name="FL0057h" unicode="U" 
d="M602 32l122 375h-121l-96 -296h-308l96 296h-121l-122 -375q-2 -9 4 -20.5t17 -11.5h488q11 0 24.5 10.5t16.5 21.5z" />
    <glyph glyph-name="FL0059h" unicode="V" horiz-adv-x="614" 
d="M348 126l-59 281h-132l86 -407h128l350 407h-132z" />
    <glyph glyph-name="FL0B39h" unicode="W" horiz-adv-x="884" 
d="M620 126l-60 281h-131l30 -148l-113 -133l-58 281h-131l88 -407h126l115 135l30 -135h125l350 407h-133z" />
    <glyph glyph-name="FL0058h" unicode="X" horiz-adv-x="614" 
d="M288 407l30 -149h146l126 149h131l-163 -204l31 -203h-131l-30 148h-146l-126 -148h-131l163 203l-31 204h131z" />
    <glyph glyph-name="FL0079h" unicode="Y" 
d="M42 0h517q11 0 25.5 12t18.5 23l121 372h-121l-48 -149h-308l48 149h-121l-73 -224q-2 -14 6.5 -23t17.5 -12h394l-12 -37h-429z" />
    <glyph glyph-name="FL005Ah" unicode="Z" 
d="M628 112h-319l383 197l32 98h-550l-36 -111h319l-383 -199l-32 -97h550z" />
    <glyph glyph-name="FL005Ch" unicode="[" horiz-adv-x="344" 
d="M288 -43l36 111h-139l88 270h139l36 111h-260l-160 -492h260z" />
    <glyph glyph-name="FL005Eh" unicode="\" horiz-adv-x="392" 
d="M289 407l78 -407h-132l-78 407h132z" />
    <glyph glyph-name="FL005Dh" unicode="]" horiz-adv-x="344" 
d="M28 -43l36 111h139l88 270h-139l36 111h260l-160 -492h-260z" />
    <glyph glyph-name="FL0041h" unicode="^" 
d="M567 296l-12 -38h-396q-5 0 -12 -4.5t-14 -10.5t-13 -12.5t-7 -10.5l-60 -187q-4 -11 3.5 -21.5t17.5 -11.5h485q8 0 23 9t20 23l112 343q3 11 -4.5 21.5t-18.5 10.5h-517l-36 -111h429zM506 109h-308l13 39h308z" />
    <glyph glyph-name="FL005Fh" unicode="_" horiz-adv-x="580" 
d="M574 111h-496l-36 -111h496z" />
    <glyph glyph-name="FL0061h" unicode="`" horiz-adv-x="221" 
d="M311 358l-21 103h-114l29 -103h106z" />
    <glyph glyph-name="FL0065h" unicode="a" 
d="M714 375q4 11 -3 21.5t-18 10.5h-488q-11 0 -24 -11.5t-17 -20.5l-122 -375h121l36 111h308l-36 -111h121zM235 221l24 75h308l-24 -75h-308z" />
    <glyph glyph-name="FL0062h" unicode="b" horiz-adv-x="646" 
d="M42 0h526q11 0 20.5 8.5t18 21.5t14.5 27t10 25l10 31q7 22 10 36t2.5 23.5t-3.5 16t-7 14.5q10 9 17.5 16.5t14 17t12 22.5t12.5 34l11 32q3 11 6 25t3 27t-4 21.5t-15 8.5h-526zM199 111l12 37h320l-12 -37h-320zM259 296h320l-12 -38h-320z" />
    <glyph glyph-name="FL0063h" unicode="c" 
d="M602 32l39 118h-121l-13 -39h-308l60 185h308l-12 -38h121l38 117q4 11 -4.5 21.5t-16.5 10.5h-488q-8 0 -22 -10.5t-19 -21.5l-112 -343q-2 -9 4 -20.5t17 -11.5h488q11 0 24.5 10.5t16.5 21.5z" />
    <glyph glyph-name="FL0064h" unicode="d" 
d="M606 43l104 321q2 6 -0.5 13t-7.5 14t-11 11.5t-10 4.5h-507l-132 -407h507q6 0 14.5 4.5t17.5 11.5t16 14t9 13zM507 111h-308l60 185h308z" />
    <glyph glyph-name="e" unicode="e" 
d="M174 407h550l-36 -111h-429l-12 -38h402l-36 -110h-402l-12 -37h429l-36 -111h-550z" />
    <glyph glyph-name="FL0066h" unicode="f" 
d="M174 407h550l-36 -111h-429l-12 -38h402l-36 -110h-402l-48 -148h-121z" />
    <glyph glyph-name="FL0067h" unicode="g" 
d="M198 109l61 187h429l36 111h-517q-11 0 -24.5 -10.5t-18.5 -21.5l-112 -343q-4 -14 5.5 -23t17.5 -9h485q10 1 24.5 11.5t18.5 21.5l60 187q1 4 0 10.5t-4 12.5t-7.5 10.5t-8.5 4.5h-260l-36 -110h172l-13 -39h-308z" />
    <glyph glyph-name="FL0068h" unicode="h" 
d="M174 407l-132 -407h121l48 148h308l-48 -148h121l132 407h-121l-48 -149h-308l48 149h-121z" />
    <glyph glyph-name="FL0069h" unicode="i" horiz-adv-x="206" 
d="M174 407l-132 -407h122l132 407h-122z" />
    <glyph glyph-name="FL006Ah" unicode="j" 
d="M52 32l39 118h121l-13 -39h308l96 296h121l-122 -375q-4 -9 -17 -20.5t-24 -11.5h-488q-11 0 -17.5 10.5t-3.5 21.5z" />
    <glyph glyph-name="FL004Bh" unicode="k" horiz-adv-x="630" 
d="M295 407l-48 -149h233l126 149h131l-163 -204l31 -203h-131l-30 148h-233l-48 -148h-121l132 407h121z" />
    <glyph glyph-name="FL006Ch" unicode="l" 
d="M628 111h-429l96 296h-121l-132 -407h550z" />
    <glyph glyph-name="FL006Eh" unicode="m" horiz-adv-x="750" 
d="M677 277l-90 -277h121l132 407h-185l-242 -289l-53 289h-186l-132 -407h121l90 277l55 -277h134z" />
    <glyph glyph-name="FL00B2h" unicode="n" horiz-adv-x="649" 
d="M174 407l-132 -407h121l82 253l248 -253h114l132 407h-122l-82 -253l-245 253h-116z" />
    <glyph glyph-name="FL006Fh" unicode="o" 
d="M602 32l112 343q4 11 -4.5 21.5t-16.5 10.5h-488q-8 0 -22 -10.5t-19 -21.5l-112 -343q-2 -9 4 -20.5t17 -11.5h488q11 0 24.5 10.5t16.5 21.5zM507 111h-308l60 185h308z" />
    <glyph glyph-name="FL0073h" unicode="p" horiz-adv-x="646" 
d="M42 0h121l36 111h368q35 0 69 46.5t63 134.5l11 33q3 11 6 25t3 27t-4 21.5t-15 8.5h-526zM259 296h320l-24 -75h-320z" />
    <glyph glyph-name="FL0072h" unicode="q" 
d="M490 -59h148l-35 92l111 342q4 11 -4.5 21.5t-16.5 10.5h-488q-8 0 -22 -10.5t-19 -21.5l-112 -343q-2 -9 4 -20.5t17 -11.5h386zM507 111h-308l60 185h308z" />
    <glyph glyph-name="FL007Bh" unicode="r" horiz-adv-x="646" 
d="M42 0h121l36 111h229l46 -111h130l-35 116q33 3 67 45.5t63 130.5l11 33q3 11 6 25t3 27t-4 21.5t-15 8.5h-526zM259 296h320l-24 -75h-320z" />
    <glyph glyph-name="s" unicode="s" 
d="M78 111h429l12 37h-382q-20 0 -28.5 14.5t-5.5 24.5l59 181q7 16 21 26t31 13h510l-36 -111h-429l-12 -38h396q4 0 8.5 -4.5t7.5 -10.5t4 -12.5t0 -10.5l-60 -185q-4 -11 -18.5 -23t-25.5 -12h-517z" />
    <glyph glyph-name="t" unicode="t" 
d="M352 296h-214l36 111h550l-36 -111h-215l-96 -296h-121z" />
    <glyph glyph-name="FL0075h" unicode="u" 
d="M602 32l122 375h-121l-96 -296h-308l96 296h-121l-122 -375q-2 -9 4 -20.5t17 -11.5h488q11 0 24.5 10.5t16.5 21.5z" />
    <glyph glyph-name="FL0076h" unicode="v" horiz-adv-x="614" 
d="M348 126l-59 281h-132l86 -407h128l350 407h-132z" />
    <glyph glyph-name="FL0077h" unicode="w" horiz-adv-x="779" 
d="M73 0q-9 0 -16.5 10.5t-4.5 21.5l122 375h121l-96 -296h166l96 296h121l-96 -296h166l96 296h121l-122 -375q-4 -12 -17 -22t-24 -10h-633z" />
    <glyph glyph-name="FL0078h" unicode="x" horiz-adv-x="616" 
d="M567 407h156l-270 -204l138 -203h-157l-86 124l-166 -124h-157l269 203l-137 204h156l87 -125z" />
    <glyph glyph-name="FL022Bh" unicode="y" 
d="M724 407l-86 -264q-3 -11 -16.5 -21.5t-24.5 -10.5h-184l-36 -111h-121l36 111h-183q-11 0 -17 11.5t-4 20.5l86 264h121l-60 -185h308l60 185h121z" />
    <glyph glyph-name="FL007Ah" unicode="z" 
d="M628 112h-319l383 197l32 98h-550l-36 -111h319l-383 -199l-32 -97h550z" />
    <glyph glyph-name="FL0080h" unicode="{" horiz-adv-x="426" 
d="M90 148l36 110h82l51 159q2 6 7.5 11.5t11.5 10t12.5 7.5t10.5 3h229l-36 -111h-139l-88 -270h139l-36 -111h-229q-11 0 -17 11.5t-4 20.5l52 159h-82z" />
    <glyph glyph-name="FL007Eh" unicode="|" horiz-adv-x="205" 
d="M24 -55h121l168 516h-121z" />
    <glyph glyph-name="FL0081h" unicode="}" horiz-adv-x="426" 
d="M432 148l36 110h-82l51 159q3 11 -4.5 21.5t-15.5 10.5h-229l-36 -111h139l-88 -270h-139l-36 -111h229q11 0 24.5 11.5t16.5 20.5l52 159h82z" />
    <glyph glyph-name="FL0082h" unicode="~" horiz-adv-x="449" 
d="M406 147l101 112h-116l-52 -59l-15 59h-149l-101 -112h117l51 59l15 -59h149z" />
    <glyph glyph-name="FL007Fh" horiz-adv-x="252" 
 />
    <glyph glyph-name="space" unicode="&#xa0;" horiz-adv-x="378" 
 />
    <glyph glyph-name="FL00A1h" unicode="&#xa1;" horiz-adv-x="205" 
d="M162 0l84 259h-121l-84 -259h121zM173 407l-36 -111h121l36 111h-121z" />
    <glyph glyph-name="FL00A2h" unicode="&#xa2;" 
d="M239 -58l19 58h-185q-11 0 -17 11.5t-4 20.5l112 343q5 11 19 21.5t22 10.5h185l18 55h119l-18 -55h184q8 0 16.5 -10.5t4.5 -21.5l-38 -117h-121l12 38h-94l-60 -185h94l13 39h121l-39 -118q-3 -11 -16.5 -21.5t-24.5 -10.5h-184l-19 -58h-119zM259 296l-60 -185h95
l60 185h-95z" />
    <glyph glyph-name="FL00A3h" unicode="&#xa3;" horiz-adv-x="672" 
d="M126 258h90q0 5 3 16l7 20l10 31q3 11 9 25t13.5 27t17 21.5t20.5 8.5h167l-36 -111h-80l-12 -38h227l-36 -110h-227l-12 -37h379l-36 -111h-588l36 110h88v2l7 19l2 9q2 6 4 8h-89z" />
    <glyph glyph-name="FL00A4h" unicode="&#xa4;" horiz-adv-x="649" 
d="M583 407h156l-192 -145l-39 -119l99 -143h-157l-69 101h-48l-135 -101h-157l193 145l38 116l-99 146h156l69 -100h52zM324 176h114l18 56h-114z" />
    <glyph glyph-name="FL00A5h" unicode="&#xa5;" 
d="M123 104h167l14 43h-183q-11 0 -17 11.5t-4 20.5l74 228h121l-48 -149h308l48 149h121l-74 -228q-4 -11 -17 -21.5t-24 -10.5h-184l-14 -43h166l-25 -75h-166l-13 -41h166l-25 -76h-166l-19 -59h-121l19 59h-167l25 76h167l13 41h-167z" />
    <glyph glyph-name="FL00A6h" unicode="&#xa6;" horiz-adv-x="205" 
d="M237 228h-121l76 233h121zM24 -55l76 233h121l-76 -233h-121z" />
    <glyph glyph-name="FL00A7h" unicode="&#xa7;" 
d="M60 54h429l12 37h-382q-20 0 -29 14.5t-6 24.5l107 330q8 16 22 26t31 13h510l-36 -111h-429l-12 -38h396q4 0 8.5 -4.5t7.5 -10.5t4 -12.5t0 -10.5l-108 -334q-4 -11 -19 -23t-26 -12h-517zM241 239l-12 -36h308l12 36h-308z" />
    <glyph glyph-name="FL00A8h" unicode="&#xa8;" horiz-adv-x="374" 
d="M334 358l34 103h114l-34 -103h-114zM306 461l-34 -103h-114l34 103h114z" />
    <glyph glyph-name="FL00A9h" unicode="&#xa9;" horiz-adv-x="267" 
d="M291 482q2 0 11.5 -1.5t27.5 -9.5q11 -9 16 -17t7 -18q6 -23 -1 -45q-3 -10 -10.5 -21t-18.5 -24q-13 -14 -38.5 -29.5t-52.5 -15.5q-11 0 -22 3.5t-20 8.5q-9 9 -13.5 15t-9.5 18q-6 22 2 45q6 18 19 34.5t30 29t36 20t37 7.5zM286 468q-43 0 -78 -38q-15 -15 -23 -39
q-6 -20 -2 -36q3 -17 18 -29q8 -6 18.5 -8t15.5 -2h2q19 0 40 10q20 10 37.5 29t22.5 36l1 4q4 13 2 26.5t-8.5 23.5t-18 16.5t-24.5 6.5h-3zM286 378l12 -5q-19 -34 -54 -34q-47 0 -31 52t65 52q33 0 32 -28l-16 -4q-3 19 -20 19q-33 0 -45 -39q-12 -36 19 -36q23 0 38 23z
" />
    <glyph glyph-name="FL00AAh" unicode="&#xaa;" 
d="M567 296l-12 -38h-396q-5 0 -12 -4.5t-14 -10.5t-13 -12.5t-7 -10.5l-60 -187q-4 -11 3.5 -21.5t17.5 -11.5h518l122 375q3 11 -4.5 21.5t-18.5 10.5h-517l-36 -111h429zM506 109h-308l13 39h308z" />
    <glyph glyph-name="FL00ABh" unicode="&#xab;" horiz-adv-x="506" 
d="M262 407l-169 -204l37 -203h131l-32 203l164 204h-131zM480 407l-169 -204l37 -203h131l-32 203l164 204h-131z" />
    <glyph glyph-name="FL00ACh" unicode="&#xac;" horiz-adv-x="464" 
d="M126 258h380l-67 -207h-110l31 97h-270z" />
    <glyph glyph-name="FL00B1h" unicode="&#xad;" horiz-adv-x="319" 
d="M90 148l36 110h235l-36 -110h-235z" />
    <glyph glyph-name="FL00AEh" unicode="&#xae;" horiz-adv-x="267" 
d="M291 482q24 0 38 -13q18 -10 24 -33.5t-1 -44.5q-3 -10 -11 -21.5t-19 -24.5q-8 -10 -20 -18t-24.5 -14t-24.5 -9t-19 -3h-2q-51 0 -66 44q-4 21 3 46q6 19 19.5 36t30 29t35 19t35.5 7h2zM286 467q-43 0 -79 -38q-17 -20 -23 -38v-1q-2 -3 -3 -12.5t1 -23.5
q-2 -4 3 -10.5t13.5 -12.5t18 -10.5t17.5 -4.5h3q18 0 40 10.5t36 27.5q11 14 17.5 25.5l6.5 11.5v3q9 28 -6 50.5t-42 22.5h-3zM205 341l32 98h32q21 0 24 -5q3 -2 5 -3.5t4 -3.5q3 -9 1 -14q-8 -26 -38 -28q7 -4 8.5 -8.5t6.5 -16.5l6 -19h-20l-2 16q-7 19 -11 21
q-3 4 -10 4h-10l-13 -41h-15zM237 394h19q14 0 20.5 4.5t9.5 12.5q2 9 -6 14h-33z" />
    <glyph glyph-name="FL00AFh" unicode="&#xaf;" horiz-adv-x="580" 
d="M670 407h-496l-36 -111h496z" />
    <glyph glyph-name="FL00B3h" unicode="&#xb0;" horiz-adv-x="198" 
d="M209 395l10 31h36l-10 -31h-36zM273 359l33 103h-114l-33 -103h114z" />
    <glyph glyph-name="FL00B5h" unicode="&#xb1;" horiz-adv-x="464" 
d="M309 407h110l-27 -83h135l-33 -102h-135l-27 -83h-110l27 83h-135l33 102h135zM75 102h380l-33 -102h-380z" />
    <glyph glyph-name="FL00B6h" unicode="&#xb2;" horiz-adv-x="359" 
d="M420 318h-195l4 11h171q11 0 19.5 7t10.5 12l31 94q1 16 -14 19h-255l-21 -63h194l-3 -10h-178q-5 0 -12.5 -7.5t-9.5 -11.5l-32 -97q-2 -5 2 -11t9 -6h259z" />
    <glyph glyph-name="FL00BCh" unicode="&#xb3;" horiz-adv-x="359" 
d="M125 255l20 63h194l4 11h-171l19 59h171l3 10h-194l21 63h255q15 -3 14 -19l-56 -170q-2 -5 -9 -11t-12 -6h-259z" />
    <glyph glyph-name="FL00B4h" unicode="&#xb4;" horiz-adv-x="223" 
d="M143 358l89 103h114l-97 -103h-106z" />
    <glyph glyph-name="FL0030h" unicode="&#xb5;" 
d="M592 0l132 407h-550l-132 -407h550zM507 111h-308l60 185h308z" />
    <glyph glyph-name="mu" unicode="&#xb6;" horiz-adv-x="906" 
d="M949 214q3 14 -62 41q44 5 51 28l2 7l-104 29q22 0 31 28l-8 12h-133l15 31l-39 4l-121 -21v6l7 15l-14 17l-118 -47l-41 30q-20 -7 -38.5 -20.5t-49.5 -40.5l-56 19h-3q-26 0 -50 -73l-64 6l-13 -30l19 -39l-66 -9l-1 -25l53 -27l-43 -26q-8 -21 10 -21l86 -16l-23 -17
l-6 -19l142 -12l-15 -25l14 -10l147 20l-9 -30l16 -6l123 51l26 -30l29 5l72 56l7 -2q13 -9 22.5 -13.5t23.5 -4.5q16 0 25 12l27 62l52 -12q19 7 24 22l1 4v8l-19 40h50l18 22zM927 207l-74 -6q33 -48 28 -62l-1 -0.5t-3 -5.5l-71 11l-29 -73l-65 21l-78 -63l-40 32
l-131 -52l13 20l-11 20l-149 -23l29 35l-154 6l55 28l-128 29l72 27l-81 46l73 4l-24 46l5 23l68 -7l35 74q28 -22 48 -22q12 0 17 4l79 60l34 -32l117 47l11 -4l-6 -31l153 20l-23 -36h151l-55 -32l122 -26l3 -10h-7l-61 -16l76 -43zM830 244l-22 4l-27 -70l16 -2zM790 147
l-13 7l-15 -10l8 -11zM749 153l29 91l-15 4l-25 -65l-36 61l-30 -92l18 2l15 45q19 -46 44 -46zM656 154l22 67q-2 30 -18 30q-13 0 -16 -4q-49 -46 -70 -91h21q21 22 31 22q15 0 18 -22zM594 248l-21 -4l-41 -92l26 6zM512 149l30 91l-14 4l-24 -62l-39 58l-30 -93l18 4
l14 43q22 -45 45 -45zM445 214q3 30 -31 30h-12q-44 -23 -62 -82q1 -15 29 -15q5 0 8.5 0.5t8.5 1.5q30 0 59 65zM359 247q-75 -11 -89 -53l-2 -7q-2 -5 -1 -5q-3 -42 25 -42q5 0 8.5 1.5t13.5 3.5l4 15q-5 -1 -10 -1.5t-10 -0.5q-21 0 -15 18q8 22 27 38q19 13 31 13h5
l1.5 -0.5t3.5 -2.5zM275 244l-17 -2l-41 -95l23 8zM652 199h-31l28 30zM420 200q-3 -9 -5 -14t-10 -13q-16 -8 -28 -8q-16 0 -9 22l2 7q21 29 37 29q11 0 17 -12z" />
    <glyph glyph-name="FL00B7h" unicode="&#xb7;" horiz-adv-x="205" 
d="M211 147l36 111h-121l-36 -111h121z" />
    <glyph glyph-name="FL00B8h" unicode="&#xb8;" horiz-adv-x="181" 
d="M42 2h98l-48 -148h-173l31 98h75z" />
    <glyph glyph-name="FL00B9h" unicode="&#xb9;" horiz-adv-x="189" 
d="M297 461l-67 -206h-81l42 131h-24l25 75h105z" />
    <glyph glyph-name="FL00BAh" unicode="&#xba;" horiz-adv-x="359" 
d="M229 330h114l18 56h-114zM462 445l-57 -174q-2 -6 -8.5 -11t-12.5 -5h-244q-5 0 -8.5 5.5t-1.5 10.5l57 174q2 6 9 11t11 5h244q5 0 9 -5t2 -11z" />
    <glyph glyph-name="FL00BBh" unicode="&#xbb;" horiz-adv-x="506" 
d="M508 407l37 -204l-169 -203h-131l164 203l-32 204h131zM290 407l37 -204l-169 -203h-131l164 203l-32 204h131z" />
    <glyph glyph-name="FL00BEh" unicode="&#xbc;" horiz-adv-x="869" 
d="M909 207l-74 -6q33 -48 28 -62l-1 -0.5t-3 -5.5l-71 11l-29 -73l-65 21l-78 -63l-40 32l-131 -52l13 20l-11 20l-149 -23l29 35l-154 6l55 28l-128 29l72 27l-81 46l73 4l-24 46l5 23l68 -7l35 74q28 -22 48 -22q12 0 17 4l79 60l34 -32l117 47l11 -4l-6 -31l153 20
l-23 -36h151l-55 -32l122 -26l3 -10h-7l-61 -16l76 -43zM812 244l-22 4l-27 -70l16 -2zM772 147l-13 7l-15 -10l8 -11zM731 153l29 91l-15 4l-25 -65l-36 61l-30 -92l18 2l15 45q19 -46 44 -46zM638 154l22 67q-2 30 -18 30q-13 0 -16 -4q-49 -46 -70 -91h21q21 22 31 22
q15 0 18 -22zM576 248l-21 -4l-41 -92l26 6zM494 149l30 91l-14 4l-24 -62l-39 58l-30 -93l18 4l14 43q22 -45 45 -45zM427 214q3 30 -31 30h-12q-44 -23 -62 -82q1 -15 29 -15q5 0 8.5 0.5t8.5 1.5q30 0 59 65zM341 247q-75 -11 -89 -53l-2 -7q-2 -5 -1 -5q-3 -42 25 -42
q5 0 8.5 1.5t13.5 3.5l4 15q-5 -1 -10 -1.5t-10 -0.5q-21 0 -15 18q8 22 27 38q19 13 31 13h5l1.5 -0.5t3.5 -2.5zM257 244l-17 -2l-41 -95l23 8zM634 199h-31l28 30zM402 200q-3 -9 -5 -14t-10 -13q-16 -8 -28 -8q-16 0 -9 22l2 7q21 29 37 29q11 0 17 -12z" />
    <glyph glyph-name="FL00BDh" unicode="&#xbd;" horiz-adv-x="562" 
d="M516 407l-191 -226h234q15 -3 14 -19l-31 -94q-2 -5 -10.5 -12t-19.5 -7h-171l-4 -11h195l-20 -63h-259q-5 0 -9 6t-2 11l32 97q2 4 9.5 11.5t12.5 7.5h178l3 10h-194l7 22l-118 -140h-130l190 225h-68l43 131h-24l24 75h105l-59 -181l133 157h130z" />
    <glyph glyph-name="FL0FEDh" unicode="&#xbe;" horiz-adv-x="666" 
d="M703 244l-22 4l-27 -70l16 -2zM663 147l-13 7l-15 -10l8 -11zM622 153l29 91l-15 4l-25 -65l-36 61l-30 -92l18 2l15 45q19 -46 44 -46zM529 154l22 67q-2 30 -18 30q-13 0 -16 -4q-49 -46 -70 -91h21q21 22 31 22q15 0 18 -22zM467 248l-21 -4l-41 -92l26 6zM385 149
l30 91l-14 4l-24 -62l-39 58l-30 -93l18 4l14 43q22 -45 45 -45zM318 214q3 30 -31 30h-12q-44 -23 -62 -82q1 -15 29 -15q5 0 8.5 0.5t8.5 1.5q30 0 59 65zM232 247q-75 -11 -89 -53l-2 -7q-2 -5 -1 -5q-3 -42 25 -42q5 0 8.5 1.5t13.5 3.5l4 15q-5 -1 -10 -1.5t-10 -0.5
q-21 0 -15 18q8 22 27 38q19 13 31 13h5l1.5 -0.5t3.5 -2.5zM148 244l-17 -2l-41 -95l23 8zM525 199h-31l28 30zM293 200q-3 -9 -5 -14t-10 -13q-16 -8 -28 -8q-16 0 -9 22l2 7q21 29 37 29q11 0 17 -12z" />
    <glyph glyph-name="FL00BFh" unicode="&#xbf;" 
d="M562 187l23 72h-412q-10 0 -20 -4.5t-18.5 -10.5t-14 -12.5t-7.5 -11.5l-58 -181q-3 -16 4.5 -26t22.5 -13h510l36 111h-429l12 38h305q4 0 11.5 4.5t14.5 10.5t12.5 12.5t7.5 10.5zM512 407l-36 -111h121l36 111h-121z" />
    <glyph glyph-name="FL00C0h" unicode="&#xc0;" 
d="M527 444l-21 103h-114l29 -103h106zM567 296l-12 -38h-396q-5 0 -12 -4.5t-14 -10.5t-13 -12.5t-7 -10.5l-60 -187q-4 -11 3.5 -21.5t17.5 -11.5h485q8 0 23 9t20 23l112 343q3 11 -4.5 21.5t-18.5 10.5h-517l-36 -111h429zM506 109h-308l13 39h308z" />
    <glyph glyph-name="FL00C1h" unicode="&#xc1;" 
d="M484 547l-89 -103h106l97 103h-114zM567 296l-12 -38h-396q-5 0 -12 -4.5t-14 -10.5t-13 -12.5t-7 -10.5l-60 -187q-4 -11 3.5 -21.5t17.5 -11.5h485q8 0 23 9t20 23l112 343q3 11 -4.5 21.5t-18.5 10.5h-517l-36 -111h429zM506 109h-308l13 39h308z" />
    <glyph glyph-name="FL00C2h" unicode="&#xc2;" 
d="M316 444h113l50 56l14 -56h113l-29 103h-164zM567 296l-12 -38h-396q-5 0 -12 -4.5t-14 -10.5t-13 -12.5t-7 -10.5l-60 -187q-4 -11 3.5 -21.5t17.5 -11.5h485q8 0 23 9t20 23l112 343q3 11 -4.5 21.5t-18.5 10.5h-517l-36 -111h429zM506 109h-308l13 39h308z" />
    <glyph glyph-name="FL00C3h" unicode="&#xc3;" 
d="M592 444l97 103h-113l-49 -54l-15 54h-144l-97 -103h113l49 54l15 -54h144zM567 296l-12 -38h-396q-5 0 -12 -4.5t-14 -10.5t-13 -12.5t-7 -10.5l-60 -187q-4 -11 3.5 -21.5t17.5 -11.5h485q8 0 23 9t20 23l112 343q3 11 -4.5 21.5t-18.5 10.5h-517l-36 -111h429z
M506 109h-308l13 39h308z" />
    <glyph glyph-name="FL00C4h" unicode="&#xc4;" 
d="M430 444l34 103h-114l-34 -103h114zM526 547l-34 -103h114l34 103h-114zM567 296l-12 -38h-396q-5 0 -12 -4.5t-14 -10.5t-13 -12.5t-7 -10.5l-60 -187q-4 -11 3.5 -21.5t17.5 -11.5h485q8 0 23 9t20 23l112 343q3 11 -4.5 21.5t-18.5 10.5h-517l-36 -111h429zM506 109
h-308l13 39h308z" />
    <glyph glyph-name="FL00C5h" unicode="&#xc5;" 
d="M567 296l-12 -38h-396q-5 0 -12 -4.5t-14 -10.5t-13 -12.5t-7 -10.5l-60 -187q-4 -11 3.5 -21.5t17.5 -11.5h485q8 0 23 9t20 23l112 343q3 11 -4.5 21.5t-18.5 10.5h-517l-36 -111h429zM506 109h-308l13 39h308zM454 480l10 31h36l-10 -31h-36zM517 444l34 103h-114
l-34 -103h114z" />
    <glyph glyph-name="FL00C6h" unicode="&#xc6;" horiz-adv-x="1066" 
d="M567 296h-429l36 111h949q10 -1 18 -11.5t5 -21.5l-61 -187q-2 -4 -7.5 -10.5t-12.5 -12.5t-14.5 -10.5t-11.5 -4.5h-396l-12 -38h429l-36 -111h-950q-10 1 -17.5 11.5t-3.5 21.5l60 187q1 4 7 10.5t13 12.5t14 10.5t12 4.5h396zM506 109l13 39h-308l-13 -39h308z
M692 297l-13 -38h308l13 38h-308z" />
    <glyph glyph-name="FL00C7h" unicode="&#xc7;" 
d="M641 150l-39 -118q-3 -11 -16.5 -21.5t-24.5 -10.5h-173l-47 -146h-173l31 98h75l16 48h-217q-11 0 -17 11.5t-4 20.5l112 343q5 11 19 21.5t22 10.5h488q8 0 16.5 -10.5t4.5 -21.5l-38 -117h-121l12 38h-308l-60 -185h308l13 39h121z" />
    <glyph glyph-name="FL00C8h" unicode="&#xc8;" 
d="M527 444l-21 103h-114l29 -103h106zM607 149q4 0 11.5 4.5t14.5 10.5t12.5 12.5t7.5 10.5l61 187q3 11 -5 21.5t-18 11.5h-485q-11 0 -25 -11t-17 -22l-112 -342q-3 -10 5 -21t16 -11h519l36 111h-429l12 38h396zM260 297h308l-13 -38h-308z" />
    <glyph glyph-name="FL00C9h" unicode="&#xc9;" 
d="M484 547l-89 -103h106l97 103h-114zM607 149q4 0 11.5 4.5t14.5 10.5t12.5 12.5t7.5 10.5l61 187q3 11 -5 21.5t-18 11.5h-485q-11 0 -25 -11t-17 -22l-112 -342q-3 -10 5 -21t16 -11h519l36 111h-429l12 38h396zM260 297h308l-13 -38h-308z" />
    <glyph glyph-name="FL00CAh" unicode="&#xca;" 
d="M316 444h113l50 56l14 -56h113l-29 103h-164zM607 149q4 0 11.5 4.5t14.5 10.5t12.5 12.5t7.5 10.5l61 187q3 11 -5 21.5t-18 11.5h-485q-11 0 -25 -11t-17 -22l-112 -342q-3 -10 5 -21t16 -11h519l36 111h-429l12 38h396zM260 297h308l-13 -38h-308z" />
    <glyph glyph-name="FL00CBh" unicode="&#xcb;" 
d="M430 444l34 103h-114l-34 -103h114zM526 547l-34 -103h114l34 103h-114zM607 149q4 0 11.5 4.5t14.5 10.5t12.5 12.5t7.5 10.5l61 187q3 11 -5 21.5t-18 11.5h-485q-11 0 -25 -11t-17 -22l-112 -342q-3 -10 5 -21t16 -11h519l36 111h-429l12 38h396zM260 297h308l-13 -38
h-308z" />
    <glyph glyph-name="FL00CCh" unicode="&#xcc;" 
d="M506 547l21 -103h-106l-29 103h114zM628 111l-36 -111h-550l36 111h214l60 185h-214l36 111h550l-36 -111h-215l-60 -185h215z" />
    <glyph glyph-name="FL00CDh" unicode="&#xcd;" 
d="M395 444l89 103h114l-97 -103h-106zM628 111l-36 -111h-550l36 111h214l60 185h-214l36 111h550l-36 -111h-215l-60 -185h215z" />
    <glyph glyph-name="FL00CEh" unicode="&#xce;" 
d="M429 444h-113l97 103h164l29 -103h-113l-14 56zM628 111l-36 -111h-550l36 111h214l60 185h-214l36 111h550l-36 -111h-215l-60 -185h215z" />
    <glyph glyph-name="FL00CFh" unicode="&#xcf;" 
d="M492 444l34 103h114l-34 -103h-114zM464 547l-34 -103h-114l34 103h114zM628 111l-36 -111h-550l36 111h214l60 185h-214l36 111h550l-36 -111h-215l-60 -185h215z" />
    <glyph glyph-name="FL00D0h" unicode="&#xd0;" horiz-adv-x="728" 
d="M90 148l36 110h94l48 149h508q4 0 9.5 -4.5t10.5 -11t7.5 -13.5t1.5 -13l-105 -323q-2 -6 -9 -13t-15.5 -13.5t-17 -11t-14.5 -4.5h-508l48 148h-94zM293 111h308l60 185h-308l-12 -38h165l-36 -110h-165z" />
    <glyph glyph-name="FL00D1h" unicode="&#xd1;" horiz-adv-x="649" 
d="M174 407l-132 -407h121l82 253l244 -253h118l132 407h-122l-82 -253l-242 253h-119zM600 444l97 103h-113l-49 -54l-15 54h-144l-97 -103h113l49 54l15 -54h144z" />
    <glyph glyph-name="FL00F3h" unicode="&#xd2;" 
d="M602 32l112 343q4 11 -4.5 21.5t-16.5 10.5h-488q-8 0 -22 -10.5t-19 -21.5l-112 -343q-2 -9 4 -20.5t17 -11.5h488q11 0 24.5 10.5t16.5 21.5zM507 111h-308l60 185h308zM527 444l-21 103h-114l29 -103h106z" />
    <glyph glyph-name="FL00F2h" unicode="&#xd3;" 
d="M602 32l112 343q4 11 -4.5 21.5t-16.5 10.5h-488q-8 0 -22 -10.5t-19 -21.5l-112 -343q-2 -9 4 -20.5t17 -11.5h488q11 0 24.5 10.5t16.5 21.5zM507 111h-308l60 185h308zM484 547l-89 -103h106l97 103h-114z" />
    <glyph glyph-name="FL00D4h" unicode="&#xd4;" 
d="M316 444h113l50 56l14 -56h113l-29 103h-164zM567 296l-60 -185h-308l60 185h308zM602 32l112 343q4 11 -4.5 21.5t-16.5 10.5h-488q-8 0 -22 -10.5t-19 -21.5l-112 -343q-2 -9 4 -20.5t17 -11.5h488q11 0 24.5 10.5t16.5 21.5z" />
    <glyph glyph-name="FL00D5h" unicode="&#xd5;" 
d="M592 444l97 103h-113l-49 -54l-15 54h-144l-97 -103h113l49 54l15 -54h144zM259 296h308l-60 -185h-308zM602 32l112 343q4 11 -4.5 21.5t-16.5 10.5h-488q-8 0 -22 -10.5t-19 -21.5l-112 -343q-2 -9 4 -20.5t17 -11.5h488q11 0 24.5 10.5t16.5 21.5z" />
    <glyph glyph-name="FL00D6h" unicode="&#xd6;" 
d="M602 32l112 343q4 11 -4.5 21.5t-16.5 10.5h-488q-8 0 -22 -10.5t-19 -21.5l-112 -343q-2 -9 4 -20.5t17 -11.5h488q11 0 24.5 10.5t16.5 21.5zM507 111h-308l60 185h308zM430 444l34 103h-114l-34 -103h114zM526 547l-34 -103h114l34 103h-114z" />
    <glyph glyph-name="FL00D7h" unicode="&#xd7;" horiz-adv-x="346" 
d="M355 349l52 -77l-90 -69l46 -69l-102 -77l-47 68l-91 -68l-52 77l90 69l-46 69l102 77l47 -68z" />
    <glyph glyph-name="FL00D8h" unicode="&#xd8;" 
d="M602 32q-3 -11 -16.5 -21.5t-24.5 -10.5h-488q-11 0 -17 11.5t-4 20.5l112 343q5 11 19 21.5t22 10.5h488q8 0 16.5 -10.5t4.5 -21.5zM397 296h-138l-60 -185h42zM507 111l60 185h-41l-156 -185h137z" />
    <glyph glyph-name="FL00D9h" unicode="&#xd9;" 
d="M527 444l-21 103h-114l29 -103h106zM602 32l122 375h-121l-96 -296h-308l96 296h-121l-122 -375q-2 -9 4 -20.5t17 -11.5h488q11 0 24.5 10.5t16.5 21.5z" />
    <glyph glyph-name="FL00DAh" unicode="&#xda;" 
d="M484 547l-89 -103h106l97 103h-114zM602 32l122 375h-121l-96 -296h-308l96 296h-121l-122 -375q-2 -9 4 -20.5t17 -11.5h488q11 0 24.5 10.5t16.5 21.5z" />
    <glyph glyph-name="FL00DBh" unicode="&#xdb;" 
d="M316 444h113l50 56l14 -56h113l-29 103h-164zM602 32l122 375h-121l-96 -296h-308l96 296h-121l-122 -375q-2 -9 4 -20.5t17 -11.5h488q11 0 24.5 10.5t16.5 21.5z" />
    <glyph glyph-name="FL00DCh" unicode="&#xdc;" 
d="M430 444l34 103h-114l-34 -103h114zM526 547l-34 -103h114l34 103h-114zM602 32l122 375h-121l-96 -296h-308l96 296h-121l-122 -375q-2 -9 4 -20.5t17 -11.5h488q11 0 24.5 10.5t16.5 21.5z" />
    <glyph glyph-name="FL00DDh" unicode="&#xdd;" 
d="M42 0h517q11 0 25.5 12t18.5 23l121 372h-121l-48 -149h-308l48 149h-121l-73 -224q-2 -14 6.5 -23t17.5 -12h394l-12 -37h-429zM484 547l-89 -103h106l97 103h-114z" />
    <glyph glyph-name="FL00DEh" unicode="&#xde;" horiz-adv-x="646" 
d="M174 407h121l-18 -56h405q11 0 15 -8.5t4 -21.5t-3 -27t-7 -25l-10 -31q-29 -88 -65 -135t-67 -47h-368l-18 -56h-121zM241 240l-24 -74h320l24 74h-320z" />
    <glyph glyph-name="FL00DFh" unicode="&#xdf;" 
d="M-3 -139l167 514q5 11 19 21.5t22 10.5h485q11 0 15 -8.5t3.5 -21.5t-4 -27t-6.5 -25l-10 -31q-7 -21 -13 -34t-12.5 -22.5t-14.5 -17.5t-18 -17l7.5 -15t3.5 -17q0 -9 -3 -23t-10 -36l-9 -30q-4 -11 -9.5 -25t-13.5 -27t-17.5 -21.5t-20.5 -8.5h-331l36 111h244l12 37
h-244l36 110h244l12 38h-308l-141 -435h-121z" />
    <glyph glyph-name="FL00E0h" unicode="&#xe0;" 
d="M527 444l-21 103h-114l29 -103h106zM714 375q4 11 -3 21.5t-18 10.5h-488q-11 0 -24 -11.5t-17 -20.5l-122 -375h121l36 111h308l-36 -111h121zM235 221l24 75h308l-24 -75h-308z" />
    <glyph glyph-name="FL00E1h" unicode="&#xe1;" 
d="M484 547l-89 -103h106l97 103h-114zM714 375q4 11 -3 21.5t-18 10.5h-488q-11 0 -24 -11.5t-17 -20.5l-122 -375h121l36 111h308l-36 -111h121zM235 221l24 75h308l-24 -75h-308z" />
    <glyph glyph-name="FL00E2h" unicode="&#xe2;" 
d="M316 444h113l50 56l14 -56h113l-29 103h-164zM714 375q4 11 -3 21.5t-18 10.5h-488q-11 0 -24 -11.5t-17 -20.5l-122 -375h121l36 111h308l-36 -111h121zM235 221l24 75h308l-24 -75h-308z" />
    <glyph glyph-name="FL00E3h" unicode="&#xe3;" 
d="M592 444l97 103h-113l-49 -54l-15 54h-144l-97 -103h113l49 54l15 -54h144zM714 375q4 11 -3 21.5t-18 10.5h-488q-11 0 -24 -11.5t-17 -20.5l-122 -375h121l36 111h308l-36 -111h121zM235 221l24 75h308l-24 -75h-308z" />
    <glyph glyph-name="FL00E4h" unicode="&#xe4;" 
d="M430 444l34 103h-114l-34 -103h114zM526 547l-34 -103h114l34 103h-114zM714 375q4 11 -3 21.5t-18 10.5h-488q-11 0 -24 -11.5t-17 -20.5l-122 -375h121l36 111h308l-36 -111h121zM235 221l24 75h308l-24 -75h-308z" />
    <glyph glyph-name="FL00E5h" unicode="&#xe5;" 
d="M456 480l10 31h36l-10 -31h-36zM592 0l122 375q4 11 -3 21.5t-18 10.5h-488q-11 0 -24 -11.5t-17 -20.5l-122 -375h121l36 111h308l-36 -111h121zM235 221l24 75h308l-24 -75h-308zM519 444l34 103h-114l-34 -103h114z" />
    <glyph glyph-name="FL00E6h" unicode="&#xe6;" horiz-adv-x="1064" 
d="M1154 407l-36 -111h-429l-12 -38h402l-36 -110h-402l-12 -37h429l-36 -111h-551l36 111h-308l-36 -111h-121l122 375q4 9 17 20.5t24 11.5h949zM235 221h308l24 75h-308z" />
    <glyph glyph-name="FL00E7h" unicode="&#xe7;" 
d="M641 150l-39 -118q-3 -11 -16.5 -21.5t-24.5 -10.5h-173l-47 -146h-173l31 98h75l16 48h-217q-11 0 -17 11.5t-4 20.5l112 343q5 11 19 21.5t22 10.5h488q8 0 16.5 -10.5t4.5 -21.5l-38 -117h-121l12 38h-308l-60 -185h308l13 39h121z" />
    <glyph glyph-name="FL00E8h" unicode="&#xe8;" 
d="M506 547l21 -103h-106l-29 103h114zM174 407h550l-36 -111h-429l-12 -38h402l-36 -110h-402l-12 -37h429l-36 -111h-550z" />
    <glyph glyph-name="FL00E9h" unicode="&#xe9;" 
d="M395 444l89 103h114l-97 -103h-106zM174 407h550l-36 -111h-429l-12 -38h402l-36 -110h-402l-12 -37h429l-36 -111h-550z" />
    <glyph glyph-name="FL00EAh" unicode="&#xea;" 
d="M429 444h-113l97 103h164l29 -103h-113l-14 56zM174 407h550l-36 -111h-429l-12 -38h402l-36 -110h-402l-12 -37h429l-36 -111h-550z" />
    <glyph glyph-name="FL00EBh" unicode="&#xeb;" 
d="M492 444l34 103h114l-34 -103h-114zM464 547l-34 -103h-114l34 103h114zM174 407h550l-36 -111h-429l-12 -38h402l-36 -110h-402l-12 -37h429l-36 -111h-550z" />
    <glyph glyph-name="FL00EDh" unicode="&#xec;" horiz-adv-x="206" 
d="M331 444l-21 103h-114l29 -103h106zM164 0l132 407h-122l-132 -407h122z" />
    <glyph glyph-name="FL00ECh" unicode="&#xed;" horiz-adv-x="206" 
d="M174 407l-132 -407h122l132 407h-122zM252 547l-89 -103h106l97 103h-114z" />
    <glyph glyph-name="FL00EEh" unicode="&#xee;" horiz-adv-x="206" 
d="M42 0l132 407h122l-132 -407h-122zM216 444h-113l97 103h164l29 -103h-113l-14 56z" />
    <glyph glyph-name="FL00EFh" unicode="&#xef;" horiz-adv-x="206" 
d="M42 0l132 407h122l-132 -407h-122zM279 444l34 103h114l-34 -103h-114zM251 547l-34 -103h-114l34 103h114z" />
    <glyph glyph-name="FL00F0h" unicode="&#xf0;" 
d="M520 462l-18 -55h189q11 0 18.5 -10.5t4.5 -21.5l-112 -343q-5 -14 -20 -23t-23 -9h-485q-10 1 -17.5 11.5t-3.5 21.5l60 187q1 4 7 10.5t13 12.5t14 10.5t12 4.5h396l12 38h-429l36 111h209l18 55h119zM198 109h308l13 39h-308z" />
    <glyph glyph-name="FL00F1h" unicode="&#xf1;" horiz-adv-x="649" 
d="M174 407l-132 -407h121l82 253l244 -253h118l132 407h-122l-82 -253l-242 253h-119zM600 444l97 103h-113l-49 -54l-15 54h-144l-97 -103h113l49 54l15 -54h144z" />
    <glyph glyph-name="FL00F5h" unicode="&#xf2;" 
d="M602 32l112 343q4 11 -4.5 21.5t-16.5 10.5h-488q-8 0 -22 -10.5t-19 -21.5l-112 -343q-2 -9 4 -20.5t17 -11.5h488q11 0 24.5 10.5t16.5 21.5zM507 111h-308l60 185h308zM527 444l-21 103h-114l29 -103h106z" />
    <glyph glyph-name="FL00F7h" unicode="&#xf3;" 
d="M602 32l112 343q4 11 -4.5 21.5t-16.5 10.5h-488q-8 0 -22 -10.5t-19 -21.5l-112 -343q-2 -9 4 -20.5t17 -11.5h488q11 0 24.5 10.5t16.5 21.5zM507 111h-308l60 185h308zM484 547l-89 -103h106l97 103h-114z" />
    <glyph glyph-name="FL00F4h" unicode="&#xf4;" 
d="M316 444h113l50 56l14 -56h113l-29 103h-164zM567 296l-60 -185h-308l60 185h308zM602 32l112 343q4 11 -4.5 21.5t-16.5 10.5h-488q-8 0 -22 -10.5t-19 -21.5l-112 -343q-2 -9 4 -20.5t17 -11.5h488q11 0 24.5 10.5t16.5 21.5z" />
    <glyph glyph-name="FL00F8h" unicode="&#xf5;" 
d="M592 444l97 103h-113l-49 -54l-15 54h-144l-97 -103h113l49 54l15 -54h144zM259 296h308l-60 -185h-308zM602 32l112 343q4 11 -4.5 21.5t-16.5 10.5h-488q-8 0 -22 -10.5t-19 -21.5l-112 -343q-2 -9 4 -20.5t17 -11.5h488q11 0 24.5 10.5t16.5 21.5z" />
    <glyph glyph-name="FL00F6h" unicode="&#xf6;" 
d="M602 32l112 343q4 11 -4.5 21.5t-16.5 10.5h-488q-8 0 -22 -10.5t-19 -21.5l-112 -343q-2 -9 4 -20.5t17 -11.5h488q11 0 24.5 10.5t16.5 21.5zM507 111h-308l60 185h308zM430 444l34 103h-114l-34 -103h114zM526 547l-34 -103h114l34 103h-114z" />
    <glyph glyph-name="FL0101h" unicode="&#xf7;" horiz-adv-x="474" 
d="M516 258h-390l-36 -110h390zM388 290l34 103h-114l-34 -103h114zM218 116l-34 -103h114l34 103h-114z" />
    <glyph glyph-name="FL00FEh" unicode="&#xf8;" 
d="M52 32q-3 -11 3.5 -21.5t17.5 -10.5h488q11 0 24 11.5t17 20.5l112 343q3 11 -5 21.5t-16 10.5h-488q-4 0 -10.5 -3t-12.5 -7.5t-11 -10t-7 -11.5zM429 296h138l-60 -185h-42zM199 111l60 185h41l36 -185h-137z" />
    <glyph glyph-name="FL00F9h" unicode="&#xf9;" 
d="M527 444l-21 103h-114l29 -103h106zM602 32l122 375h-121l-96 -296h-308l96 296h-121l-122 -375q-2 -9 4 -20.5t17 -11.5h488q11 0 24.5 10.5t16.5 21.5z" />
    <glyph glyph-name="FL00FAh" unicode="&#xfa;" 
d="M484 547l-89 -103h106l97 103h-114zM602 32l122 375h-121l-96 -296h-308l96 296h-121l-122 -375q-2 -9 4 -20.5t17 -11.5h488q11 0 24.5 10.5t16.5 21.5z" />
    <glyph glyph-name="FL00FBh" unicode="&#xfb;" 
d="M316 444h113l50 56l14 -56h113l-29 103h-164zM602 32l122 375h-121l-96 -296h-308l96 296h-121l-122 -375q-2 -9 4 -20.5t17 -11.5h488q11 0 24.5 10.5t16.5 21.5z" />
    <glyph glyph-name="FL00FCh" unicode="&#xfc;" 
d="M430 444l34 103h-114l-34 -103h114zM526 547l-34 -103h114l34 103h-114zM602 32l122 375h-121l-96 -296h-308l96 296h-121l-122 -375q-2 -9 4 -20.5t17 -11.5h488q11 0 24.5 10.5t16.5 21.5z" />
    <glyph glyph-name="FL00FDh" unicode="&#xfd;" 
d="M395 444l89 103h114l-97 -103h-106zM724 407l-86 -264q-3 -11 -16.5 -21.5t-24.5 -10.5h-184l-36 -111h-121l36 111h-183q-11 0 -17 11.5t-4 20.5l86 264h121l-60 -185h308l60 185h121z" />
    <glyph glyph-name="FL0100h" unicode="&#xfe;" horiz-adv-x="646" 
d="M174 407h121l-18 -56h405q11 0 15 -8.5t4 -21.5t-3 -27t-7 -25l-10 -31q-29 -88 -65 -135t-67 -47h-368l-18 -56h-121zM241 240l-24 -74h320l24 74h-320z" />
    <glyph glyph-name="FL00FFh" unicode="&#xff;" 
d="M492 444l34 103h114l-34 -103h-114zM464 547l-34 -103h-114l34 103h114zM724 407l-86 -264q-3 -11 -16.5 -21.5t-24.5 -10.5h-184l-36 -111h-121l36 111h-183q-11 0 -17 11.5t-4 20.5l86 264h121l-60 -185h308l60 185h121z" />
    <glyph glyph-name="FL0153h" unicode="&#x152;" horiz-adv-x="1065" 
d="M1155 407l-36 -111h-429l-12 -38h402l-36 -110h-402l-12 -37h429l-36 -111h-950q-11 0 -17 11.5t-4 20.5l112 343q5 11 19 21.5t22 10.5h950zM507 111l60 185h-308l-60 -185h308z" />
    <glyph glyph-name="FL0152h" unicode="&#x153;" horiz-adv-x="1065" 
d="M1155 407l-36 -111h-429l-12 -38h402l-36 -110h-402l-12 -37h429l-36 -111h-950q-11 0 -17 11.5t-4 20.5l112 343q5 11 19 21.5t22 10.5h950zM507 111l60 185h-308l-60 -185h308z" />
    <glyph glyph-name="FL0160h" unicode="&#x160;" 
d="M507 111h-429l-36 -111h517q11 0 25.5 12t18.5 23l60 185q1 4 0 10.5t-4 12.5t-7.5 10.5t-8.5 4.5h-396l12 38h429l36 111h-510q-17 -3 -31 -13t-21 -26l-59 -181q-3 -10 5.5 -24.5t28.5 -14.5h382zM640 547h-113l-50 -56l-14 56h-113l29 -103h164z" />
    <glyph glyph-name="FL0161h" unicode="&#x161;" 
d="M507 111h-429l-36 -111h517q11 0 25.5 12t18.5 23l60 185q1 4 0 10.5t-4 12.5t-7.5 10.5t-8.5 4.5h-396l12 38h429l36 111h-510q-17 -3 -31 -13t-21 -26l-59 -181q-3 -10 5.5 -24.5t28.5 -14.5h382zM640 547h-113l-50 -56l-14 56h-113l29 -103h164z" />
    <glyph glyph-name="FL0178h" unicode="&#x178;" 
d="M430 444l34 103h-114l-34 -103h114zM526 547l-34 -103h114l34 103h-114zM42 0h517q11 0 25.5 12t18.5 23l121 372h-121l-48 -149h-308l48 149h-121l-73 -224q-2 -14 6.5 -23t17.5 -12h394l-12 -37h-429z" />
    <glyph glyph-name="FL017Dh" unicode="&#x17d;" 
d="M628 112h-319l383 196l32 99h-550l-36 -111h319l-383 -198l-32 -98h550zM640 547h-113l-50 -56l-14 56h-113l29 -103h164z" />
    <glyph glyph-name="FL017Eh" unicode="&#x17e;" 
d="M628 112h-319l383 196l32 99h-550l-36 -111h319l-383 -198l-32 -98h550zM640 547h-113l-50 -56l-14 56h-113l29 -103h164z" />
    <glyph glyph-name="k" unicode="&#x192;" horiz-adv-x="685" 
d="M174 407h121l-42 -129l317 129h220l-481 -205l349 -202h-219l-237 121l-39 -121h-121z" />
    <glyph glyph-name="FL02C6h" unicode="&#x2c6;" horiz-adv-x="344" 
d="M256 358h-113l97 103h164l29 -103h-113l-13 56z" />
    <glyph glyph-name="FL02DCh" unicode="&#x2dc;" horiz-adv-x="438" 
d="M465 359l96 103h-113l-48 -54l-16 54h-144l-96 -103h113l48 54l16 -54h144z" />
    <glyph glyph-name="FL2013h" unicode="&#x2013;" horiz-adv-x="388" 
d="M90 148l36 110h304l-36 -110h-304z" />
    <glyph glyph-name="FL2014h" unicode="&#x2014;" horiz-adv-x="464" 
d="M126 258h380l-36 -110h-380z" />
    <glyph glyph-name="FL2018h" unicode="&#x2018;" horiz-adv-x="205" 
d="M157 357l-36 -111h121l52 161h-75z" />
    <glyph glyph-name="FL2019h" unicode="&#x2019;" horiz-adv-x="205" 
d="M259 296l36 111h-121l-52 -161h75z" />
    <glyph glyph-name="FL201Ah" unicode="&#x201a;" horiz-adv-x="205" 
d="M163 0l36 111h-121l-52 -161h75z" />
    <glyph glyph-name="FL201Ch" unicode="&#x201c;" horiz-adv-x="352" 
d="M158 357l-36 -111h113l52 161h-70zM313 357l-36 -111h113l52 161h-70z" />
    <glyph glyph-name="FL201Dh" unicode="&#x201d;" horiz-adv-x="352" 
d="M406 296l36 111h-113l-52 -161h70zM251 296l36 111h-113l-52 -161h70z" />
    <glyph glyph-name="FL201Eh" unicode="&#x201e;" horiz-adv-x="355" 
d="M313 0l36 111h-121l-52 -161h75zM163 0l36 111h-121l-52 -161h75z" />
    <glyph glyph-name="FL2020h" unicode="&#x2020;" horiz-adv-x="467" 
d="M535 338l-36 -110h-131l-74 -228h-121l74 228h-131l36 110h131l22 69h121l-22 -69h131z" />
    <glyph glyph-name="FL2021h" unicode="&#x2021;" horiz-adv-x="467" 
d="M535 338l-36 -110h-131l-16 -50h131l-36 -110h-131l-22 -68h-121l22 68h-131l36 110h131l16 50h-131l36 110h131l22 69h121l-22 -69h131z" />
    <glyph glyph-name="FL2022h" unicode="&#x2022;" 
d="M602 32l112 343q4 11 -4.5 21.5t-16.5 10.5h-488q-8 0 -22 -10.5t-19 -21.5l-112 -343q-2 -9 4 -20.5t17 -11.5h488q11 0 24.5 10.5t16.5 21.5z" />
    <glyph glyph-name="FL2026h" unicode="&#x2026;" horiz-adv-x="591" 
d="M549 0l36 111h-121l-36 -111h121zM356 0l36 111h-121l-36 -111h121zM163 0l36 111h-121l-36 -111h121z" />
    <glyph glyph-name="FL00B0h" unicode="&#x2030;" horiz-adv-x="989" 
d="M768 50h114l18 56h-114zM1001 165l-57 -174q-2 -6 -8.5 -11t-12.5 -5h-244q-5 0 -8.5 5.5t-1.5 10.5l57 174q2 6 9 11t11 5h244q5 0 9 -5t2 -11zM652 -9q-2 -6 -8.5 -11t-12.5 -5h-244q-5 0 -8.5 5.5t-1.5 10.5l48 147l-117 -138h-130l190 225h-238q-5 0 -8.5 5.5
t-1.5 10.5l57 174q2 6 9 11t11 5h244q5 0 9 -5t2 -11l-48 -148l118 140h130l-191 -226h237q5 0 9 -5t2 -11zM333 300l19 56h-114l-19 -56h114zM590 50l18 56h-114l-18 -56h114z" />
    <glyph glyph-name="FL2039h" unicode="&#x2039;" horiz-adv-x="288" 
d="M262 407l-169 -204l37 -203h131l-32 203l164 204h-131z" />
    <glyph glyph-name="FL203Ah" unicode="&#x203a;" horiz-adv-x="288" 
d="M290 407l37 -204l-169 -203h-131l164 203l-32 204h131z" />
    <glyph glyph-name="FL20ACh" unicode="&#x20ac;" horiz-adv-x="738" 
d="M131 275h104l33 100q5 11 19 21.5t22 10.5h488q8 0 16.5 -10.5t4.5 -21.5l-38 -117h-121l13 39h-308l-8 -22h220l-19 -59h-220l-7 -23h220l-20 -60h-220l-7 -23h308l13 40h121l-39 -118q-3 -11 -16.5 -21.5t-24.5 -10.5h-488q-11 0 -17 11.5t-4 20.5l33 101h-104l20 60
h104l7 23h-104z" />
    <glyph glyph-name="FL2122h" unicode="&#x2122;" horiz-adv-x="345" 
d="M238 461l-37 -113h21l37 113h46l7 21h-113l-7 -21h46zM332 478l-42 -130h14l28 87l10 7l4 -86q0 -6 1.5 -7t3.5 -1h4q2 0 5.5 2.5t11.5 12t21.5 29t35.5 53.5l1 -10l-28 -87h14l44 134h-5q-7 0 -11.5 -1.5t-10 -6.5t-14.5 -15t-24 -26q-2 -1 -3 -5q-7 -13 -12.5 -21.5
t-14.5 -19.5l1 58q0 13 -8 25.5t-12 12.5q-2 0 -2.5 -0.5l-0.5 -0.5l2 -1q0 -2 -6 -2q-2 0 -4 -0.5t-3 -0.5z" />
    <glyph glyph-name="FL005Bh" horiz-adv-x="779" 
d="M73 0q-9 0 -20 10.5t-11 21.5v375h121v-296h166v296h121v-296h166v296h121v-375q0 -12 -10 -22t-21 -10h-633z" />
    <glyph glyph-name="FLE003h" horiz-adv-x="618" 
d="M309 281l-150 -281h-132l218 407h128l218 -407h-132z" />
    </font>
</defs>
</svg>
