<?xml version="1.0" standalone="no"?>
<!DOCTYPE svg PUBLIC "-//W3C//DTD SVG 1.1//EN" "http://www.w3.org/Graphics/SVG/1.1/DTD/svg11.dtd" >
<svg xmlns="http://www.w3.org/2000/svg" xmlns:xlink="http://www.w3.org/1999/xlink" version="1.1">
<metadata>
Created by FontForge 20170731 at Fri Apr  2 13:34:44 1999
 By Aleksey,,,
Generated by Fontographer 3.5
</metadata>
<defs>
<font id="CamelotDeNada" horiz-adv-x="331" >
  <font-face 
    font-family="Camelot"
    font-weight="500"
    font-stretch="normal"
    units-per-em="1000"
    panose-1="2 0 6 6 3 0 0 2 0 2"
    ascent="800"
    descent="-200"
    x-height="229"
    cap-height="661"
    bbox="-41 -337 725 663"
    underline-thickness="20"
    underline-position="-252"
    unicode-range="U+0005-E007"
  />
<missing-glyph horiz-adv-x="500" 
 />
    <glyph glyph-name=".notdef" horiz-adv-x="500" 
 />
    <glyph glyph-name=".null" horiz-adv-x="0" 
 />
    <glyph glyph-name="nonmarkingreturn" horiz-adv-x="333" 
 />
    <glyph glyph-name="breve" horiz-adv-x="491" 
d="M425 2q-14 7 -22 11.5t-26 12.5v635h-48q-11 0 -29.5 1t-36 -4.5t-30 -21t-12.5 -47.5v-360h-131v276q6 9 8 15.5t5 11t10.5 7t24.5 2.5l11.5 1.5t29.5 -1.5q-37 18 -58 16.5t-31 -17t-12 -42.5t-0.5 -58.5t3 -65t-1 -63t-12.5 -51.5t-32 -31q2 -9 6.5 -13t10.5 -5
t12.5 -2t13.5 -4v-503h-48v-12h108q-5 3 -8.5 5.5t-8 5t-12 5.5t-19.5 8v503h131v-347h-47v-12h107q-5 3 -8.5 5t-8 4.5t-11.5 6t-20 8.5v335h48q-14 7 -22 11.5t-26 12.5v336q0 38 7.5 54t18 18t21.5 -4t17.5 -12.5l7.5 -7.5q0 1 2.5 8.5t16 9t41.5 -17.5v-611h-48v-12h108
z" />
    <glyph glyph-name="fi" horiz-adv-x="343" 
d="M246 300v12h-36v-12h36zM282 -145l-10.5 7t-9.5 5t-11.5 5t-16.5 7v349h-144v349q0 25 9 42.5t39 17.5l11.5 1.5t29.5 -1.5q-23 11 -41.5 15.5t-31.5 0t-20.5 -20t-7.5 -43.5v-361h-48q5 -3 8.5 -5.5t8.5 -5l12 -6t19 -7.5v-505h-48v-12h108q-5 3 -8.5 5.5t-8 5t-12 5.5
t-19.5 8v505h132v-349h-48v-12h108z" />
    <glyph glyph-name="fl" horiz-adv-x="343" 
d="M282 0q-5 3 -8 5t-8 4.5t-12.5 6t-19.5 8.5v637h-48q-11 0 -29.5 1t-36 -4.5t-30 -21t-12.5 -47.5v-361h-48q5 -3 8.5 -5.5t8.5 -5l12 -6t19 -7.5v-505h-48v-12h108q-5 3 -8.5 5.5t-8 5t-12 5.5t-19.5 8v505h48q-14 7 -22 11.5t-26 12.5v337q0 38 7.5 54t18 18t21.5 -4
t17.5 -12.5l7.5 -7.5q0 1 2 8.5t15.5 9t42.5 -17.5v-613h-48v-12h108z" />
    <glyph glyph-name="space" unicode=" " horiz-adv-x="234" 
 />
    <glyph glyph-name="exclam" unicode="!" horiz-adv-x="223" 
d="M137 125v536h-12v-536h12zM149 6v23h-36v-23h36z" />
    <glyph glyph-name="quotedbl" unicode="&#x22;" horiz-adv-x="223" 
d="M162 505v132h-12v-132h12zM66 505v132h-12v-132h12z" />
    <glyph glyph-name="numbersign" unicode="#" horiz-adv-x="291" 
d="M250 410q-26 16 -34 19.5t-8.5 7t2 12.5t-0.5 36q-4 -12 -6 -19.5t-4.5 -13.5t-5.5 -13t-8 -17h-48q0 3 -1 5.5t-1.5 9.5t-1.5 20t-2 36q-15 -41 -21.5 -56t-11.5 -17t-13 1.5t-26 0.5q8 -6 9 -7.5t2.5 -2t7 -3t23.5 -11.5q-7 -35 -10.5 -49t-8.5 -18t-15.5 -2.5
t-31.5 -2.5q2 -1 12 -8.5t19 -15.5q3 -10 4 -16t0 -10.5t-2 -9.5t-2 -12h35l-10 -5t-10 8.5t20 56.5h48q3 -21 4 -36t2 -36q13 36 18 50.5t10.5 18t14 1.5t28.5 2q-11 9 -20 13.5l-21 10.5q7 37 13.5 52t14 18.5t16.5 1t21 0.5zM173 338h-60q7 26 5 37t-5 23h60
q-4 -17 -5 -26t-0.5 -14.5t2 -9t3.5 -10.5z" />
    <glyph glyph-name="dollar" unicode="$" horiz-adv-x="463" 
d="M389 158q0 45 -13 72t-34.5 44.5t-50 30.5t-58.5 32v264h60q25 -18 37.5 -29t18 -17.5t6.5 -10.5t3.5 -7.5t8.5 -7.5t22 -12h-36q2 9 6 11t7 1.5t4.5 0t-0.5 8t-9 25t-20 50.5q-46 -5 -68 -3t-31.5 9t-12 18t-8.5 24v-48q-27 -2 -56.5 -7t-54 -18t-40.5 -35.5t-16 -59.5
q0 -34 10 -57t30.5 -41.5t52 -37.5t74.5 -44v-299h-48q-27 16 -42 25t-23.5 16t-13.5 13.5t-11.5 17.5t-17 28t-30.5 44q10 -22 15.5 -34.5t8.5 -20.5t5 -14.5t5 -16.5t7.5 -26t13.5 -44v48q40 -23 63.5 -33t35 -13.5t15 -3t4.5 -2t3 -10.5t10 -27q14 22 32 35.5t36.5 24
t36.5 20t32 24t22.5 36.5t8.5 57zM209 361q-30 7 -54 22t-41.5 33.5t-26.5 38.5t-9 38q0 22 13.5 38.5t30 28.5t32 19t19.5 10h36v-228zM365 158q0 -11 -6 -29t-19.5 -36.5t-37 -34t-57.5 -20.5v263q7 -5 27 -14.5t40.5 -26.5t36.5 -42t16 -60z" />
    <glyph glyph-name="percent" unicode="%" horiz-adv-x="417" 
d="M330 577v36h-240q-9 -7 -18 -12.5t-15.5 -13t-10.5 -18.5t-4 -29q0 -12 2 -27t9.5 -27.5t22 -21t38.5 -8.5q36 0 51 15.5t19 36.5t2 43.5t0 37.5h132v-12l-276 -566v-12h72q-15 8 -28.5 13.5t-31.5 10.5zM342 71q0 12 -2.5 26.5t-10 27t-21.5 21.5t-38 9q-26 0 -49 -18
t-23 -54q0 -12 2 -27t9.5 -27.5t22 -21t38.5 -8.5q29 0 50.5 18.5t21.5 53.5zM162 528q0 -1 -3.5 -8.5t-9.5 -16.5t-15 -16t-20 -7q-8 0 -16 5.5t-15.5 14.5t-12 19.5t-4.5 20.5q0 7 5.5 16t13 16t16 12t13.5 5q6 0 14 -4.5t15.5 -12.5t13 -19t5.5 -25zM318 71q0 -8 -5 -16
t-12.5 -15.5t-16 -12t-14.5 -4.5q-7 0 -15.5 5.5t-15.5 14t-12 19t-5 21.5q0 7 5 15.5t12.5 15.5t16 12t14.5 5q7 0 15.5 -5.5t16 -14.5t12 -19.5t4.5 -20.5z" />
    <glyph glyph-name="ampersand" unicode="&#x26;" horiz-adv-x="503" 
d="M472 410v36q-15 -33 -41 -51.5t-56.5 -31t-62 -22.5t-57 -25.5t-42 -41t-16.5 -68.5q0 -17 -0.5 -25.5t3 -16t13.5 -16.5t32 -25h36q-32 18 -52 33t-20 39q0 19 11 41.5t27.5 42.5t35 33.5t34.5 13.5q13 0 33.5 -9t39.5 -27t32.5 -45t13.5 -62q0 -32 -10.5 -62.5
t-32.5 -54t-56 -37.5t-80 -14q-38 0 -72.5 8.5t-60.5 28.5t-42 52t-16 79q0 27 3.5 50t14 42.5t29 36.5t48.5 32q-8 7 -16.5 13.5t-15.5 15.5t-11.5 20.5t-4.5 28.5q0 34 15.5 58.5t56.5 24.5q19 0 32.5 -2t24 -9.5t19.5 -21.5t20 -38v83q-17 -5 -27 -5.5t-19.5 1t-20.5 3
t-29 1.5q-40 0 -58 -8.5t-21.5 -20.5t1.5 -24.5t11 -20.5t7 -9v-84l-11 -9t-24.5 -27.5t-24.5 -48t-11 -70.5q0 -40 9 -75t30.5 -61t58.5 -41t93 -15q36 0 72.5 6.5t65.5 25t47 51t18 85.5q0 56 -21 93.5t-74 73.5q29 14 45.5 20t28 11t21 13t24.5 28z" />
    <glyph glyph-name="quotesingle" unicode="'" horiz-adv-x="109" 
d="M66 506v131h-12v-131h12z" />
    <glyph glyph-name="parenleft" unicode="(" horiz-adv-x="274" 
d="M199 17q-24 21 -47.5 51.5t-42.5 69.5t-31 86.5t-12 102.5q0 49 4.5 85.5t18.5 72.5t40 76.5t70 99.5q-29 -26 -55.5 -60t-46.5 -74.5t-31.5 -87.5t-11.5 -100q0 -63 12.5 -116t33 -94t46.5 -69t53 -43z" />
    <glyph glyph-name="parenright" unicode=")" horiz-adv-x="314" 
d="M280 327q0 112 -39 194.5t-110 139.5q36 -45 62 -83t42.5 -74.5t24.5 -76t8 -88.5q0 -63 -9.5 -108t-27 -81.5t-42.5 -70t-55 -74.5q31 28 58 61t46.5 73t30.5 86.5t11 101.5z" />
    <glyph glyph-name="asterisk" unicode="*" horiz-adv-x="251" 
d="M197 373l-12 24l-48 48q8 13 12.5 20.5t9 14t10.5 14.5t16 23q-17 -11 -26 -16.5t-15.5 -8.5t-12.5 -5t-17 -6v72h-12v-84q-23 15 -44 30.5t-40 29.5l12 -24l48 -48q-4 -6 -10.5 -16t-14 -21t-14 -20.5t-9.5 -14.5q12 8 18.5 12.5t13 8t15 7t25.5 8.5v-72h12v84
q14 -9 24 -16.5t19 -14.5t18.5 -14t21.5 -15z" />
    <glyph glyph-name="plus" unicode="+" horiz-adv-x="251" 
d="M234 167v12h-96v96h-12v-96h-96v-12h96v-96h12v96h96z" />
    <glyph glyph-name="comma" unicode="," horiz-adv-x="160" 
d="M113 -19v60h-23l-24 -12q10 -17 15.5 -28t6.5 -21.5t-3.5 -24t-13.5 -34.5q4 5 16 21t26 39z" />
    <glyph glyph-name="hyphen" unicode="-" horiz-adv-x="229" 
d="M185 171v12h-155v-12h155z" />
    <glyph glyph-name="period" unicode="." horiz-adv-x="154" 
d="M113 6v23h-35v-23h35z" />
    <glyph glyph-name="slash" unicode="/" horiz-adv-x="309" 
d="M268 649l-12 12l-202 -644h12z" />
    <glyph glyph-name="zero" unicode="0" horiz-adv-x="457" 
d="M425 325q0 64 -12.5 124.5t-36.5 107.5t-60 75.5t-83 28.5q-54 0 -92.5 -31t-63 -78.5t-36 -105t-11.5 -109.5q0 -70 14 -131t39 -106.5t60.5 -71.5t77.5 -26q54 0 93 31t63.5 78.5t36 104.5t11.5 109zM410 325q0 -53 -13 -109t-38 -102t-60 -75t-78 -29q-1 0 -18 5
t-44 23.5t-52 53.5t-43.5 96t-18.5 150q0 54 13 110t38 101.5t59.5 74t78.5 28.5q1 0 18 -5.5t44 -25t52 -54.5t43.5 -95t18.5 -147z" />
    <glyph glyph-name="one" unicode="1" horiz-adv-x="257" 
d="M186 -1q-14 8 -22 12.5t-26 11.5v638q-11 -8 -18 -13t-14.5 -11t-19 -14t-32.5 -22l18 -26l10 30q20 15 30 16t12 -3t2 -5v-602h-48v-12h108z" />
    <glyph glyph-name="two" unicode="2" horiz-adv-x="491" 
d="M425 2v48l-24 -36h-359v48q41 83 85.5 136t87 88.5t81 60t67 48.5t45.5 54.5t17 79.5q0 23 -5.5 46.5t-24 42.5t-54 31t-96.5 12h-60q-30 0 -58.5 -12.5t-53.5 -43.5t-43 -94q18 27 31 52t32.5 44t51 30.5t88.5 11.5q31 0 63 -4.5t58 -17t42.5 -36t16.5 -62.5
q0 -42 -18 -71t-48 -54t-69 -51.5t-81.5 -63t-85.5 -88t-81 -127.5v-72h395z" />
    <glyph glyph-name="three" unicode="3" horiz-adv-x="463" 
d="M425 205q0 49 -8 79t-26 51.5t-48 40t-74 45.5l156 228v12h-311q-6 -16 -11 -27t-10 -21.5t-11.5 -22.5t-15.5 -31q12 14 30 41t33 51h275q-27 -40 -47.5 -73.5t-39.5 -63t-39.5 -55.5t-47.5 -50q56 -14 91.5 -35.5t56 -47.5t28 -54.5t7.5 -54.5q0 -47 -17 -84.5
t-44.5 -64t-62 -40.5t-68.5 -14q-44 0 -71 8.5t-47 26t-36 44.5t-37 64v-35q13 -23 26.5 -44.5t33 -38t48 -27t71.5 -10.5q44 0 83.5 13.5t69 39t46.5 63.5t17 87z" />
    <glyph glyph-name="four" unicode="4" horiz-adv-x="486" 
d="M425 145v96l-24 -34h-48v454h-24l-299 -456v-12h311v-179h-48v-12h108q-14 7 -22 11.5t-26 12.5v167h60v-48h12zM342 205h-295v14l295 420v14v-448z" />
    <glyph glyph-name="five" unicode="5" horiz-adv-x="486" 
d="M425 205q0 42 -10 81t-34 69t-63 48t-97 18q-20 0 -32.5 -3t-27.5 -7.5t-35.5 -11.5t-54.5 -14q1 20 8 53t18 70t24.5 74.5t28.5 66.5h239v-72h12v84h-263l-96 -300q34 0 52 7.5t32 16.5t31.5 16.5t51.5 7.5q45 0 78 -12t55.5 -30.5t36.5 -41t21.5 -44t10 -39t2.5 -25.5
q0 -48 -12.5 -81.5t-31.5 -56t-42.5 -35.5t-44.5 -19.5t-38 -8.5t-23 -2q-33 0 -58.5 6t-46.5 19.5t-38.5 35t-35.5 52.5q4 -35 20 -59t39.5 -38.5t51.5 -21t56 -6.5q40 0 78.5 10t69 33.5t49.5 62.5t19 97z" />
    <glyph glyph-name="six" unicode="6" horiz-adv-x="463" 
d="M425 181q0 41 -9.5 76t-31.5 61t-59 40.5t-92 14.5q-40 0 -61 -4t-37.5 -13.5t-36 -25.5t-56.5 -41v36q24 60 40 100.5t31 68.5t31.5 47t40.5 36t58.5 36t85.5 48h-36q-77 -39 -128 -84.5t-81 -95.5t-42 -104t-12 -112q0 -48 9 -95.5t32.5 -84.5t62.5 -60t99 -23
q38 0 72.5 8.5t61 29t42.5 55t16 86.5zM422 180q0 36 -10.5 70.5t-33 60.5t-58.5 42t-87 16q-38 0 -74 -15.5t-64 -38.5t-45.5 -48.5t-17.5 -46.5q0 -15 10 -50.5t33.5 -72t62 -64.5t95.5 -28q43 0 77.5 13.5t59.5 37t38.5 55.5t13.5 69z" />
    <glyph glyph-name="seven" unicode="7" horiz-adv-x="440" 
d="M425 649v12h-395v-48l24 34h347v-22l-311 -611h12z" />
    <glyph glyph-name="eight" unicode="8" horiz-adv-x="457" 
d="M425 169q0 47 -16 77.5t-40 50t-51 31t-49 21.5q18 8 39 18.5t39 27t30 40.5t12 58q0 47 -18.5 79t-44 52t-51.5 28.5t-42 8.5q-50 0 -82.5 -19.5t-51 -45.5t-26 -52t-7.5 -39q0 -22 3 -42t15 -39t36 -37.5t66 -37.5q-32 -14 -60.5 -28.5t-49.5 -34.5t-33.5 -48
t-12.5 -69q0 -38 14 -69t39.5 -53t60.5 -33.5t77 -11.5q38 0 74.5 8t65.5 27.5t46.5 51.5t17.5 80zM381 493q0 -35 -20.5 -62.5t-47.5 -46.5t-53.5 -29t-38.5 -10q-21 0 -46.5 14.5t-48 37.5t-37.5 51.5t-15 56.5q0 18 12 43t33 48.5t50.5 40t64.5 16.5t62.5 -21t46 -48
t28.5 -53.5t10 -37.5zM414 169q0 -36 -18 -64.5t-45.5 -48.5t-62 -30.5t-67.5 -10.5q-35 0 -67.5 13t-57.5 34.5t-39.5 49.5t-14.5 57q0 30 11.5 54t30 42.5t40.5 32t43.5 22t39.5 12.5t27 4q42 0 75.5 -19t57 -45t35.5 -55t12 -48z" />
    <glyph glyph-name="nine" unicode="9" horiz-adv-x="457" 
d="M425 397q0 49 -9 96t-32.5 84.5t-63 60.5t-99.5 23q-37 0 -71.5 -8.5t-61 -29t-42.5 -55.5t-16 -87q0 -40 9 -75t31 -61t59 -41t92 -15q41 0 62.5 4t38 13.5t35.5 26t56 40.5v-36q-25 -60 -40.5 -99.5t-29.5 -66.5t-30 -46t-39.5 -36.5t-59 -37t-88.5 -49.5h36
q132 61 197.5 161t65.5 234zM414 443q0 -21 -16.5 -45.5t-43.5 -45.5t-62 -35.5t-71 -14.5q-49 0 -83 15.5t-55.5 41t-31 58t-9.5 65.5q0 39 14.5 70t39.5 52.5t57 33t68 11.5t64.5 -12.5t50 -32.5t36.5 -44t24.5 -47t13.5 -42t4 -28z" />
    <glyph glyph-name="colon" unicode=":" horiz-adv-x="160" 
d="M113 6v23h-35v-23h35zM102 196l-24 24z" />
    <glyph glyph-name="semicolon" unicode=";" horiz-adv-x="160" 
d="M113 231l-35 -12v-24l23 12zM113 -19v60h-23l-24 -12q10 -17 15.5 -28t6.5 -21.5t-3.5 -24t-13.5 -34.5q4 5 16 21t26 39z" />
    <glyph glyph-name="less" unicode="&#x3c;" horiz-adv-x="280" 
d="M233 2l-12 24l-143 144q21 36 42.5 57t40.5 38t34.5 35t25.5 49l-167 -167q8 -14 28 -37.5t45.5 -49.5t53.5 -51t52 -42z" />
    <glyph glyph-name="equal" unicode="=" horiz-adv-x="240" 
d="M209 218v12h-179v-12h179zM209 122v12h-179v-12h179z" />
    <glyph glyph-name="greater" unicode="&#x3e;" horiz-adv-x="240" 
d="M233 170v12l-167 155h-12l155 -155q-17 -26 -35.5 -46.5t-36.5 -39.5t-33.5 -38.5t-25.5 -43.5z" />
    <glyph glyph-name="question" unicode="?" horiz-adv-x="314" 
d="M306 421q0 41 -29.5 68.5t-90.5 27.5q-17 0 -32 -1t-30.5 -6t-32.5 -16t-37 -31q39 17 70.5 29.5t61.5 12.5q28 0 48.5 -9.5t34 -23t19.5 -28t6 -23.5q0 -30 -11.5 -51.5t-29 -38.5t-37.5 -31.5t-37.5 -30t-29 -34t-11.5 -43.5q-1 1 -5 3.5t-4 -10.5q0 -12 12 -53
q1 14 -1 24t-2 24q0 23 12.5 40t31 32t40.5 29.5t40.5 33.5t31 44.5t12.5 61.5zM162 12v12h-36v-12h36z" />
    <glyph glyph-name="at" unicode="@" horiz-adv-x="394" 
d="M377 170q0 34 -11 62.5t-31.5 49t-49.5 32t-64 11.5q-31 0 -61 -7.5t-53.5 -25.5t-38 -48t-14.5 -74q0 -20 0.5 -40.5t11 -41.5t35.5 -43t73 -43h83q-33 8 -67 16t-61.5 23.5t-45 42.5t-17.5 74q0 33 12 61t31.5 49t45.5 33t54 12q38 0 67.5 -13.5t49 -34t29.5 -46
t10 -49.5q0 -20 -9 -31.5t-27 -28.5h-36q-8 24 -8.5 45.5t-3 38t-12.5 26.5t-36 10q-35 0 -59 -15.5t-24 -56.5v-19q0 -10 3.5 -19t13.5 -15.5t30 -6.5h108q29 0 50.5 18.5t21.5 53.5zM257 170q0 -17 -11.5 -27t-24.5 -21h-36q-5 19 -2.5 25t2.5 11q0 19 1.5 29t6 14t11 4.5
t17.5 0.5q21 0 28.5 -9.5t7.5 -26.5z" />
    <glyph glyph-name="A" unicode="A" horiz-adv-x="577" 
d="M519 3q-14 6 -32 37t-38.5 79.5t-43 111t-46 132.5t-46.5 144t-44 145q-37 -121 -73 -234t-69 -202t-60.5 -146.5t-48.5 -66.5h107q-14 8 -22 12.5t-26 11.5q16 85 31 141t35.5 88t50 45t75.5 13q4 0 16 4t28.5 2.5t36 -14t39 -46t38.5 -92.5t33 -153h-48v-12h107z
M348 331h-158v40q6 10 14.5 34.5t18.5 56t21.5 67.5t24.5 70q13 -35 25.5 -72.5t22.5 -69.5t18 -55.5t13 -30.5v-40z" />
    <glyph glyph-name="B" unicode="B" horiz-adv-x="474" 
d="M434 160q0 31 -8.5 54t-23 42t-34 35.5t-41.5 34.5q5 5 18.5 18t27.5 33t25 46.5t11 58.5q0 38 -4.5 63.5t-18.5 44.5t-39.5 35t-67.5 36h-249q2 -9 12.5 -11t20.5 -2.5t15.5 -2t-1.5 -8.5v-619h-47v-12h272q63 28 97.5 62.5t34.5 91.5zM398 486q0 -33 -14 -59.5
t-32.5 -47t-38 -35.5t-30.5 -24h-190v332h178q28 -20 51.5 -33.5t40 -29.5t26 -39.5t9.5 -63.5zM422 158q0 -31 -16 -54t-37 -40.5t-42.5 -28.5t-31.5 -18h-203v293h217q8 -7 26.5 -19t38 -30t34 -43.5t14.5 -59.5z" />
    <glyph glyph-name="C" unicode="C" horiz-adv-x="520" 
d="M465 100q-18 -21 -34 -37t-35.5 -26t-44 -15t-59.5 -5q-71 0 -118.5 24t-77 66t-42 98.5t-12.5 121.5q0 51 8.5 107.5t33.5 104t69 79t115 31.5q53 0 82 -12t46.5 -29t31 -35.5t34.5 -31.5q-15 17 -23 25.5t-11.5 18.5t-4 25t-0.5 45q-8 -7 -10.5 -14.5t-13.5 -15.5
q-17 7 -31 13.5t-28 11.5t-31 8t-41 3q-52 0 -95.5 -17.5t-75 -56t-49.5 -100t-18 -148.5q0 -71 11 -132t39 -106t76.5 -70.5t123.5 -25.5q37 0 63 2t46 11.5t38 28.5t38 53z" />
    <glyph glyph-name="D" unicode="D" horiz-adv-x="480" 
d="M434 327q0 57 -3.5 104t-20.5 87t-53 75t-102 68h-225q1 -6 10.5 -8.5t19 -4t15.5 -3.5t2 -8v-619h-47v-12h225q36 18 68 38t57 54t39.5 88.5t14.5 140.5zM423 327q0 -66 -11.5 -113.5t-30 -81t-40 -54.5t-41 -33.5t-35 -18.5t-20.5 -9h-152v633h152q64 -45 100 -79.5
t53.5 -69t21 -75.5t3.5 -99z" />
    <glyph glyph-name="E" unicode="E" horiz-adv-x="429" 
d="M389 2v48l-6.5 -9.5t-11.5 -17.5t-6 -9h-275v395h215v-48h12v96q-7 -3 -9.5 -8.5t-4 -11.5t-3 -10.5t-7.5 -5.5h-203v228h287v-48h12v60h-359q12 -7 19.5 -10.5t28.5 -13.5v-623h-48v-12h359z" />
    <glyph glyph-name="F" unicode="F" horiz-adv-x="429" 
d="M366 601v60h-336q12 -7 19.5 -10.5t28.5 -13.5v-626h-48v-12h108q-14 8 -22 12.5t-26 11.5v385h180v-48h12v96q-6 -3 -9 -8.5t-4.5 -11.5t-3.5 -10.5t-7 -5.5h-168v229h264v-48h12z" />
    <glyph glyph-name="G" unicode="G" horiz-adv-x="617" 
d="M546 217v12h-252q29 -9 56 -10.5t51 -2t44 -1.5t34.5 -7.5t22.5 -21t8 -41.5q0 -28 -10.5 -53.5t-34.5 -44.5t-63 -30t-95 -11q-21 0 -49.5 2t-58 11.5t-58.5 29.5t-52 55.5t-37 89t-14 131.5q0 59 10.5 118t38 106t75 76.5t121.5 29.5q44 0 73 -5.5t47 -15t29 -21.5
t20.5 -24.5t20 -25t28.5 -22.5q-15 17 -23 25.5t-11.5 18t-4 25t-0.5 45.5q-10 -8 -14 -16.5t-10 -13.5q-29 11 -46 18t-32 11t-32.5 5.5t-45.5 1.5q-44 0 -89 -11t-81 -45t-59 -98t-23 -170q0 -37 2.5 -76.5t11 -77t25.5 -70.5t46.5 -58.5t73 -40t105.5 -14.5q18 0 40 -0.5
t45 2t44 10t38 24t27 43t10 66.5q0 7 3.5 8t7 0.5l7 -1t3.5 4.5q0 6 -4.5 19.5t-16.5 40.5h48z" />
    <glyph glyph-name="H" unicode="H" horiz-adv-x="497" 
d="M448 3q-14 8 -22 12.5t-26 11.5v622h48v12h-107q14 -8 22 -12t25 -12v-215h-299v227h48v12h-107q12 -7 19.5 -10.5t28.5 -13.5v-622h-48v-12h107q-14 8 -22 12.5t-26 11.5v383h299v-395h-47v-12h107z" />
    <glyph glyph-name="I" unicode="I" horiz-adv-x="229" 
d="M174 1q-14 7 -22 11.5t-26 12.5v624h48v12h-108q12 -7 19.5 -10.5t28.5 -13.5v-624h-48v-12h108z" />
    <glyph glyph-name="J" unicode="J" horiz-adv-x="400" 
d="M353 649v12h-108q12 -7 20 -10.5t28 -13.5v-467q0 -37 -16.5 -66t-40 -49t-47.5 -30.5t-39 -10.5q-45 0 -76.5 25.5t-31.5 82.5q0 18 4 35t14 30.5t26 22t40 8.5q17 0 28.5 -4.5t20 -13.5t16.5 -22.5t18 -31.5v36q-10 13 -16.5 22t-14 15t-19.5 8.5t-33 2.5t-39 -4
t-30.5 -15.5t-19.5 -32.5t-7 -56q0 -24 4 -46t16 -38.5t33 -26t55 -9.5q46 0 78 18t52 42.5t28.5 51t8.5 44.5v491h48z" />
    <glyph glyph-name="K" unicode="K" horiz-adv-x="531" 
d="M494 6q-17 7 -41.5 41.5t-52.5 82t-56 101t-50 99t-36 75l-14 29.5q0 6 13.5 23t35 39.5t47.5 48t51.5 49t46.5 41.5t32 26h-107q1 -1 7 -3.5t14 -6t17.5 -7.5t17.5 -7l-309 -298h-21v310h48v12h-107q7 -4 12.5 -7t10.5 -5t10.5 -5t13.5 -7v-619h-47v-12h107
q0 -8 -0.5 -4.5t-1 9.5t-0.5 7h-45v284l1 2t13.5 14t41 37.5t83.5 72.5l211 -390l-17 -20h-36v-12h107z" />
    <glyph glyph-name="L" unicode="L" horiz-adv-x="434" 
d="M402 -1v48l-6.5 -9.5t-11.5 -17.5t-6 -9h-288v638h48v12h-108q12 -7 19.5 -10.5t28.5 -13.5v-626h-48v-12h372z" />
    <glyph glyph-name="M" unicode="M" horiz-adv-x="703" 
d="M663 3q-16 7 -27 17.5t-23 34.5t-27 65.5t-37.5 111t-55.5 171.5t-81 246h48v12h-84q14 -12 24 -15t12 -9q-17 -41 -26.5 -68t-16.5 -47t-13 -37t-16 -39q-9 21 -20 49t-20.5 56.5t-18 54.5t-12.5 43h36v12h-84q14 -9 24 -15.5t24 -14.5q-25 -49 -46.5 -112t-41.5 -129
t-39 -130.5t-38.5 -118t-40.5 -90.5t-45 -48h107q-14 8 -22 12.5t-26 11.5l180 562q18 -16 32.5 -46.5t25 -61t17 -55.5t8.5 -31q11 37 19 66t16.5 52.5t19.5 42t29 33.5l179 -574h-48v-12h108z" />
    <glyph glyph-name="N" unicode="N" horiz-adv-x="543" 
d="M494 6q-13 8 -21.5 12t-26.5 12v619h48v12h-107q16 -11 26 -15.5t21 -8.5v-584h-23l-298 608h-83q7 -4 12.5 -7t10.5 -5t10.5 -5t13.5 -7v-619h-47v-12h95q-1 7 -6.5 8.5t-11.5 2.5t-11.5 3t-6.5 10v595h24l310 -619h71z" />
    <glyph glyph-name="O" unicode="O" horiz-adv-x="726" 
d="M678 325q0 75 -27.5 137t-72 106.5t-100.5 68.5t-112 24q-65 0 -124 -25.5t-103.5 -69.5t-70.5 -103t-26 -126q0 -74 26.5 -136t70 -106.5t99.5 -69.5t116 -25q65 0 124 25.5t103.5 69.5t70.5 103t26 127zM673 325q0 -70 -31 -129t-78.5 -101.5t-103.5 -66t-106 -23.5
q-23 0 -55 8.5t-66 26.5t-67 45t-59.5 64t-42.5 84t-16 104q0 68 29.5 126.5t76 101t103 66.5t109.5 24q23 0 55 -9t66 -26.5t67.5 -45t59.5 -64t42.5 -83t16.5 -102.5z" />
    <glyph glyph-name="P" unicode="P" horiz-adv-x="463" 
d="M434 494q0 40 -11.5 67t-30 45.5t-42 31t-47.5 23.5h-273q1 -8 11.5 -10.5t21 -3.5t16.5 -2.5t-2 -7.5v-619h-47v-12h107q-5 18 -9 19.5t-9 -2t-12.5 -5t-17.5 11.5v619h202q5 -3 26 -12t44.5 -26.5t42 -43t18.5 -61.5q0 -24 -11.5 -51t-31.5 -50.5t-49 -38.5t-63 -15
q-18 0 -34.5 8t-30 21.5t-21.5 30.5t-8 35q0 17 1.5 27.5t6.5 19.5t14 18.5t25 24.5q-19 -8 -30.5 -11.5t-18 -10t-8.5 -19t-2 -37.5q0 -22 4.5 -43t16.5 -38t32.5 -27.5t52.5 -10.5q38 0 69 14t52.5 36.5t33.5 50t12 54.5z" />
    <glyph glyph-name="Q" unicode="Q" horiz-adv-x="726" 
d="M678 325q2 75 -25.5 137t-72.5 106.5t-101.5 68.5t-112.5 24q-65 0 -124 -25.5t-103.5 -69.5t-70.5 -103t-26 -126q0 -90 27.5 -150t69 -97.5t89.5 -56t89.5 -26t68.5 -7.5h28q7 -4 9 -12.5t4.5 -20t7.5 -26.5t19 -32.5t38.5 -36.5t65.5 -40h48q-8 3 -35 11.5t-56.5 26
t-53 45.5t-23.5 70q0 18 17.5 33t43.5 31.5t57 37.5t57.5 52.5t45 76.5t19.5 109zM667 329q0 -53 -25 -103.5t-61.5 -92.5t-77.5 -70.5t-72 -35.5q-12 31 -19 51t-12.5 33t-11 20.5t-14 14.5t-22 16t-34.5 24h-69l-6 -17q49 9 78.5 -3.5t47.5 -36t28 -53t19 -54.5l-102 4
q-64 6 -112.5 38t-81.5 77t-49.5 98t-16.5 102q0 67 29 124.5t75 99.5t101 65.5t108 23.5q23 0 54 -8.5t64.5 -26.5t66 -44.5t58 -63t41.5 -82t16 -100.5z" />
    <glyph glyph-name="R" unicode="R" horiz-adv-x="526" 
d="M462 0q-17 7 -35 31t-37.5 56t-39.5 68.5t-40 69t-39 57.5t-36 33q35 4 71 13t65.5 28t48 49t18.5 76q0 40 -7 66t-22.5 45t-40.5 34.5t-62 34.5h-276q12 -7 19.5 -10.5t28.5 -13.5v-625h-48v-12h108q-14 7 -22 11.5t-26 12.5v625h204q25 -13 49 -26t42.5 -30.5
t29.5 -41.5t11 -58q0 -29 -7 -56.5t-27 -50t-55 -36t-91 -13.5q-2 0 -0.5 -4t-4.5 -6.5t-24.5 -1.5t-61.5 12q44 -23 72 -40.5t46 -35t29 -38t22.5 -49t26 -68t39.5 -94.5h-36v-12h108z" />
    <glyph glyph-name="S" unicode="S" horiz-adv-x="434" 
d="M389 170q0 57 -25 95t-62 64.5t-80.5 45.5t-80.5 40t-62 47.5t-25 66.5q0 28 12.5 50.5t35 38t53 23.5t66.5 8q34 0 52 -4t27 -11t12 -16.5t8 -20.5t15 -22.5t33 -22.5l-1 37q-14 10 -20.5 13.5t-8.5 8.5t-1 14.5t2 31.5q-7 -2 -6.5 2t-4.5 4q0 -14 -10 -16t-25 1t-34 8
t-38 5q-32 0 -64 -5.5t-57.5 -19t-41.5 -37t-16 -58.5q0 -53 25 -85t62 -54t80.5 -39t80.5 -41t62 -59t25 -93q0 -33 -13.5 -61.5t-37 -49.5t-54 -33t-63.5 -12q-38 0 -63 13.5t-44 34.5t-34.5 46.5t-32.5 49.5q10 -22 15.5 -34.5t8.5 -20.5t5 -14.5t5 -16.5t7.5 -26
t13.5 -44v48q17 -9 31 -18t28 -15.5t28.5 -10.5t31.5 -4q34 0 66.5 9.5t57.5 30t40.5 52t15.5 76.5z" />
    <glyph glyph-name="T" unicode="T" horiz-adv-x="497" 
d="M437 601v60h-395v-48q2 1 8 10t10.5 17t5.5 9h167v-635h-47v-12h107q-14 7 -22 11.5t-26 12.5v623h180v-48h12z" />
    <glyph glyph-name="U" unicode="U" horiz-adv-x="600" 
d="M534 372q0 48 -2.5 79.5t-6.5 52.5t-9 35t-10.5 28.5t-10.5 33.5t-9 48h48v12h-108q34 -15 54 -50.5t30.5 -77t13.5 -82t3 -65.5q0 -96 -23.5 -167.5t-58.5 -118.5t-76 -70.5t-75 -23.5q-43 0 -78 17.5t-62.5 47.5t-47 68.5t-32.5 81t-19 85t-6 80.5q0 70 8.5 118.5
t22.5 80t32 49.5t38 27h-108q12 -7 19.5 -10.5t28.5 -13.5q-6 -30 -12 -49.5t-11.5 -34t-10 -28t-7.5 -31.5t-5 -44t-2 -66q0 -77 16 -146.5t46.5 -122.5t75.5 -84.5t102 -31.5q67 0 115 34.5t78.5 88.5t44.5 120t14 130z" />
    <glyph glyph-name="V" unicode="V" horiz-adv-x="560" 
d="M519 661h-107q5 -3 8.5 -5.5t8.5 -5l12 -6t19 -7.5l-179 -562h-24l-180 574h48v12h-107q12 -7 24 -20.5t26 -41.5t31.5 -73.5t41 -115t55 -167.5t73.5 -230q51 162 88.5 279.5t66.5 196.5t51.5 120.5t43.5 51.5z" />
    <glyph glyph-name="W" unicode="W" horiz-adv-x="703" 
d="M663 661h-108q5 -3 9 -5.5t9 -5l12 -6t18 -7.5l-179 -562q-19 16 -32.5 42.5t-23.5 55t-16.5 55t-11.5 42.5q-17 -56 -26 -88t-16.5 -51.5t-16 -31t-24.5 -24.5l-180 574h48v12h-107q15 -8 26 -19t22.5 -34.5t26.5 -65.5t37.5 -111t56 -170.5t82.5 -245.5h-48v-12h84
q-14 11 -25 16.5t-11 7.5q9 24 18 49t17.5 49t17.5 45t18 37q9 -16 19.5 -40.5t20 -51.5t18 -53.5t14.5 -46.5h-36v-12h84q-10 6 -25 16t-23 15q30 60 53.5 127t43 133t37 127.5t35.5 111t37.5 83.5t44.5 45z" />
    <glyph glyph-name="X" unicode="X" horiz-adv-x="463" 
d="M425 3q-20 9 -42 36t-43 63t-40.5 75.5t-34.5 72.5t-23.5 54.5l-8.5 21.5q0 5 9.5 30t25 59.5t35.5 74.5t41 75.5t42 61.5t39 34h-108q15 -9 23 -13.5t25 -10.5l-144 -292h-12l-143 304h48v12h-108q17 -9 37.5 -35.5t42 -61.5t41.5 -74t36 -72t25.5 -55.5t9.5 -24.5
q0 -5 -9.5 -30t-24.5 -59.5t-35 -74t-41.5 -75t-42.5 -62t-39 -34.5h108q-2 2 -16.5 9.5t-31.5 14.5l143 287h12l144 -299h-48v-12h108z" />
    <glyph glyph-name="Y" unicode="Y" horiz-adv-x="457" 
d="M425 661h-108q15 -9 23 -13.5t25 -10.5l-144 -275h-12l-143 287h48v12h-108q17 -9 39 -37.5t44.5 -66.5t44 -80.5t38.5 -79.5t27 -63t10 -32v-287h-47v-12h107q-14 8 -22 12.5t-26 11.5v275q0 8 11 36t29 66t41 80.5t45.5 79.5t43 64t34.5 33z" />
    <glyph glyph-name="Z" unicode="Z" horiz-adv-x="411" 
d="M353 2v48l-24 -24h-287l311 623v12h-323v-48l24 24h275v-12l-299 -587v-36h323z" />
    <glyph glyph-name="bracketleft" unicode="[" horiz-adv-x="160" 
d="M113 -43q-8 5 -12.5 7.5l-9 5t-10 5t-15.5 6.5v668h47v12h-59v-704h59z" />
    <glyph glyph-name="backslash" unicode="\" horiz-adv-x="314" 
d="M268 17l-202 644h-12l202 -644h12z" />
    <glyph glyph-name="bracketright" unicode="]" horiz-adv-x="189" 
d="M113 -43v704h-59q8 -5 19.5 -10.5t27.5 -13.5v-668h-47v-12h59z" />
    <glyph glyph-name="asciicircum" unicode="^" horiz-adv-x="189" 
d="M150 301l-60 60l-48 -60l48 48l10 -10t9.5 -9t14.5 -11.5t26 -17.5z" />
    <glyph glyph-name="underscore" unicode="_" horiz-adv-x="440" 
d="M379 -1v12h-373v-12h373z" />
    <glyph glyph-name="grave" unicode="`" horiz-adv-x="143" 
d="M89 302l-47 48q2 -5 14.5 -20t32.5 -28z" />
    <glyph glyph-name="a" unicode="a" 
d="M282 0q-26 11 -36 32.5t-12 46.5t-0.5 51.5t-1 48t-12 35.5t-34.5 14q-38 0 -67 -16.5t-48.5 -39.5t-30 -47.5t-10.5 -40.5q0 -12 2 -27t9.5 -27.5t22 -21t38.5 -8.5q27 0 62 15t59 44l-1 -59h60zM226 133q1 -17 -5 -39t-21 -41t-39 -32t-58 -13q-8 0 -19 2.5t-22 9.5
t-18.5 20t-7.5 35q0 24 12.5 48t31.5 44t41.5 33.5t43.5 17.5h44q11 -33 14.5 -52.5t3 -25.5t-0.5 -7z" />
    <glyph glyph-name="b" unicode="b" horiz-adv-x="286" 
d="M259 108q0 32 -11 55t-25 37.5t-28 21.5t-20 8q-25 5 -55 -5.5t-54 -20.5v457h-60q12 -7 20 -10.5t28 -13.5v-637h12v36q26 -14 44 -25t40 -11q21 0 40.5 6.5t35 20t24.5 33.5t9 48zM246 107q0 -24 -12.5 -42.5t-28.5 -30.5t-32 -18t-23 -6l-13 5t-28.5 17.5t-28.5 34
t-13 54.5q0 25 10.5 44.5t25.5 32.5t31.5 18.5t28.5 1.5l13 -5t28.5 -17.5t28.5 -34t13 -54.5z" />
    <glyph glyph-name="c" unicode="c" horiz-adv-x="246" 
d="M209 50q-8 -4 -17.5 -10l-19 -12t-18.5 -10t-16 -4q-20 0 -37 8.5t-30.5 22t-21 30.5t-7.5 35q0 28 9.5 48.5t23 34t27.5 19.5t24 6q12 0 20.5 -1.5t16.5 -7t17 -15t23 -24.5l-0.5 9.5t-6 21t-19 20.5t-39.5 9q-45 0 -76.5 -26t-31.5 -82q0 -20 4.5 -41.5t16 -39
t30 -28.5t45.5 -11q18 0 26 -0.5t15 3t15.5 14t26.5 31.5z" />
    <glyph glyph-name="d" unicode="d" horiz-adv-x="246" 
d="M211 -1v662h-60q12 -7 19.5 -10.5t28.5 -13.5v-446q-28 16 -45 26t-40 10q-22 0 -41.5 -6.5t-34.5 -19.5t-23.5 -33.5t-8.5 -48.5q0 -20 4.5 -41t16 -38.5t30 -29t45.5 -11.5q17 0 26.5 1.5t18.5 5.5t20.5 11t31.5 18v-36h12zM201 107q0 -26 -10.5 -45t-25.5 -31t-32 -18
t-31 -6t-29.5 9.5t-28.5 25t-20.5 36t-6.5 43.5q1 25 12.5 44t26.5 32t31 18.5t28 3.5q13 -2 28 -10.5t27.5 -23t21.5 -34.5t9 -44z" />
    <glyph glyph-name="e" unicode="e" horiz-adv-x="297" 
d="M257 147q-7 16 -14 31t-18.5 26.5t-29.5 18.5t-46 7q-25 0 -47 -4.5t-38 -16t-25 -32.5t-9 -54q0 -22 3.5 -43.5t16 -38.5t36 -27.5t63.5 -10.5q27 0 42 3t23.5 9t14.5 15t16 21q-15 -8 -25 -14.5t-19.5 -11.5t-21 -7.5t-30.5 -2.5q-21 0 -40 7t-34 20t-24 30.5t-9 38.5
q0 51 29 79.5t66 28.5q21 0 34 -3t23 -10t18.5 -18.5t20.5 -28.5h-132v-12h156z" />
    <glyph glyph-name="f" unicode="f" horiz-adv-x="246" 
d="M185 637l-12 24h-48q-10 -8 -19 -13.5t-15.5 -12.5t-10 -17.5t-3.5 -28.5v-358h-47q8 -5 12.5 -8t9 -5t10 -4.5t15.5 -6.5v-501h-47v-11h107q-5 3 -15.5 9t-32.5 14v501h48q-14 8 -22 12.5t-26 11.5v334q0 31 8 45.5t40 14.5h48z" />
    <glyph glyph-name="g" unicode="g" horiz-adv-x="383" 
d="M331 -181q0 58 -22 91.5t-55.5 50.5t-72.5 23t-72.5 9t-55.5 8.5t-22 21.5q0 11 13 22.5t24 18.5q1 0 16.5 -4t40 -6.5t48 2.5t41 22.5t19.5 52.5q2 34 -7.5 47.5t-20 21t-17.5 15.5t-1 29q5 17 15 34t21.5 27t24 7.5t23.5 -24.5v36h-48q-24 -18 -34 -35.5t-14 -30.5
t-5.5 -21.5t-6.5 -8.5q-13 0 -28.5 -2t-30.5 -8t-29 -17t-24 -30q-7 -12 -6.5 -26.5t3.5 -29t5.5 -26.5t1.5 -18q-1 -3 -6.5 -6t-12 -8t-12 -13t-5.5 -21q0 -25 22 -34.5t55.5 -13.5t72.5 -7.5t72.5 -16.5t55.5 -40.5t22 -79.5q0 -29 -12.5 -56.5t-34.5 -50t-53 -36
t-68 -13.5q-48 0 -78.5 10t-50.5 33t-34 59.5t-29 89.5v-72q11 -22 22 -45.5t29 -42.5t48.5 -31.5t80.5 -12.5q36 0 70.5 9.5t61.5 28.5t43.5 48.5t16.5 69.5zM222 130q0 -7 -7 -18.5t-19 -22.5t-27 -19t-30 -8t-29.5 6.5t-26.5 17.5t-19.5 26.5t-7.5 32.5q0 12 8 24.5
t20.5 22.5t27 16t27.5 6q18 0 33 -8t26 -20.5t17.5 -27.5t6.5 -28z" />
    <glyph glyph-name="h" unicode="h" 
d="M281 3q-28 14 -38 36.5t-11.5 48t1 51t-1.5 45.5t-18.5 33t-50.5 13q-17 0 -26.5 -1.5t-18.5 -5t-20.5 -10.5t-30.5 -19v467h-60q12 -7 20 -10.5t28 -13.5v-622h-48v-12h108q-17 9 -26.5 8.5t-14.5 3t-6 18.5t-1 54q0 24 2 47.5t10 42t25 30t47 11.5q32 0 47 -9.5
t20.5 -24.5t4.5 -34.5t-1 -38.5q0 -42 0.5 -60t-3.5 -25t-13.5 -9.5t-30.5 -13.5h107z" />
    <glyph glyph-name="i" unicode="i" horiz-adv-x="200" 
d="M110 325q-6 6 -14.5 6.5t-15.5 -5.5t-7 -15q0 -8 6 -15t14 -7q9 0 16 6q6 6 6.5 14.5t-5.5 15.5zM150 1q-26 11 -36.5 18t-13 26.5t-0.5 61t2 122.5h-60q24 -12 34.5 -16.5t13.5 -12t1.5 -24.5t-1.5 -55q0 -40 1 -60t-2.5 -30t-14 -15t-32.5 -15h108z" />
    <glyph glyph-name="j" unicode="j" horiz-adv-x="200" 
d="M122 323q-6 6 -14.5 6.5t-14.5 -5.5q-7 -6 -7 -15t5 -15q6 -6 15 -6t15 6q6 5 6.5 13.5t-5.5 15.5zM114 -239v468h-60q12 -7 20 -10.5t28 -13.5v-432q0 -23 -4.5 -35.5t-14.5 -19.5t-26 -10t-39 -7q1 0 4.5 0.5t2 11t-18.5 36.5v-60h36q29 0 50.5 18.5t21.5 53.5z" />
    <glyph glyph-name="k" unicode="k" horiz-adv-x="303" 
d="M259 0q-17 11 -40 31t-43.5 39.5t-35 34t-14.5 15.5q0 12 14.5 28.5t33.5 33t36.5 29.5t23.5 17h-84q13 -17 24.5 -20.5l11.5 -3.5q-22 -22 -36.5 -37.5t-26.5 -26.5t-25 -18.5t-32 -13.5v553h-60q12 -7 20 -10.5t28 -13.5v-625h-48h84q-1 -1 -6.5 -2.5t-11.5 6t-6 32.5
q0 15 2.5 23t8.5 14.5t15 14t22 20.5q15 -15 26.5 -26t22 -22t21.5 -24.5t26 -35.5h-36v-12h85z" />
    <glyph glyph-name="l" unicode="l" horiz-adv-x="189" 
d="M138 1q-14 7 -22 11.5t-26 12.5v636h-60q12 -7 19.5 -10.5t28.5 -13.5v-624h-48v-12h108z" />
    <glyph glyph-name="m" unicode="m" horiz-adv-x="463" 
d="M425 3q-6 3 -14.5 3.5t-16 8t-13.5 26.5t-7 58v21q0 13 -1.5 26.5t-4 27t-8.5 23.5q-11 20 -31 26.5t-33 7.5q-11 0 -21 -4t-20 -8.5t-20 -8.5t-21 -4q-10 -1 -20 2.5t-19 8t-18 8.5t-18 4q-21 -2 -37.5 -6.5l-27.5 -7.5q-11 0 -9 7t1 8h-60q22 -12 32.5 -16t14 -12
t2.5 -25t-1 -54q0 -29 2 -47t-0.5 -30.5t-13.5 -21.5t-36 -21h108q-24 10 -34.5 15.5t-13.5 13.5t-1.5 23t1.5 44q0 14 -1.5 34.5t3.5 39t20.5 32t49.5 13.5q26 0 40.5 -8.5t21 -24t8 -37.5t1.5 -49q0 -42 -0.5 -58t-3.5 -20.5t-10 -5.5t-21 -12h83q-17 13 -24.5 17.5
t-10 11.5t-2 21t0.5 46q0 14 -1.5 34.5t3.5 39t20.5 32t49.5 13.5q25 0 39.5 -8.5t22 -24t9 -37.5t1.5 -49q0 -42 2 -57.5t-0.5 -19.5t-13 -5t-36.5 -14h108z" />
    <glyph glyph-name="n" unicode="n" horiz-adv-x="326" 
d="M281 3q-17 3 -26.5 7.5t-14.5 14.5t-7 27t-3 46q-1 21 -1.5 44t-7 41.5t-22.5 31t-47 12.5q-36 1 -58.5 -6t-28.5 -19q-2 -5 -2 3q0 9 3 25h-60q22 -12 32.5 -16.5t14 -12.5t2.5 -25t-1 -53q0 -46 0.5 -66.5t-3 -28.5t-14 -11t-31.5 -14h108q-15 8 -24.5 10.5t-14.5 4
t-7.5 4t-2.5 10.5t0.5 24t0.5 43v38t6 39t21 30t45 12q32 0 49 -8t24.5 -23.5t8.5 -37.5t1 -50q0 -42 0.5 -58t-3.5 -21t-13.5 -5.5t-30.5 -11.5h107z" />
    <glyph glyph-name="o" unicode="o" horiz-adv-x="291" 
d="M257 111q0 22 -4.5 43t-16.5 38t-33 27.5t-54 10.5q-25 0 -47 -4.5t-38 -16t-25 -32.5t-9 -54q0 -21 4 -42.5t15 -39t32 -28t56 -10.5q22 0 43.5 4.5t38.5 16.5t27.5 33t10.5 54zM246 110q0 -20 -9.5 -37.5t-24.5 -30.5t-34.5 -20.5t-40.5 -7.5t-39 9t-30.5 24.5
t-19.5 35.5t-7 41q0 19 6 36.5t18.5 31t33.5 21.5t51 8q21 0 38.5 -9.5t30 -25t20 -35.5t7.5 -41z" />
    <glyph glyph-name="p" unicode="p" horiz-adv-x="291" 
d="M259 108q0 22 -5 43.5t-16 38.5t-29.5 27.5t-46.5 10.5q-18 0 -29 -2.5t-20.5 -7t-20 -11t-26.5 -15.5v36h-60q12 -7 20 -10t28 -14v-505h-48v-12h108q-5 3 -8.5 5.5t-8 5t-11.5 5.5t-20 8v325q26 -14 44 -25t40 -11q21 0 40.5 6.5t35 20t24.5 33.5t9 48zM250 107
q0 -26 -13 -45t-30 -31.5t-33.5 -18.5t-23.5 -6l-13.5 5t-30 18t-30 35t-13.5 57q0 26 13 45t29.5 31.5t33 18.5t24.5 6l13.5 -5t30 -18t30 -35.5t13.5 -56.5z" />
    <glyph glyph-name="q" unicode="q" horiz-adv-x="291" 
d="M259 -313l-10.5 7t-9.5 5t-11.5 5t-17.5 7v517h-12v-36q-25 14 -43 25t-41 11q-22 0 -41.5 -6.5t-34.5 -20t-23.5 -33.5t-8.5 -48q0 -32 12 -54.5t27.5 -37t30 -21t19.5 -7.5q13 -2 22 -0.5t19.5 7t24.5 14.5t36 22l1 -344h-48v-12h109zM198 107q0 -24 -12.5 -42.5
t-28.5 -30.5t-32 -18t-23 -6l-13 5t-28.5 17.5t-28.5 34t-13 54.5q0 25 12 43t28.5 30t32 18t23.5 6l13 -5t28.5 -17.5t28.5 -34t13 -54.5z" />
    <glyph glyph-name="r" unicode="r" horiz-adv-x="269" 
d="M222 191v36l-9.5 4t-17.5 4q-10 1 -21.5 -3.5l-11.5 -4.5q-23 -14 -33.5 -20t-17.5 -8t-13 -3t-20 -5v36h-60q24 -12 34.5 -16t13.5 -11.5t1.5 -24.5t-1.5 -56q0 -35 1.5 -54t-1.5 -30t-13.5 -18.5t-34.5 -17.5h108q-21 9 -31 11t-14 7t-3.5 18.5t0.5 47.5q0 61 24 89.5
t64 39.5l7 3.5t16 4t18.5 -5t14.5 -23.5z" />
    <glyph glyph-name="s" unicode="s" horiz-adv-x="251" 
d="M197 63q0 23 -12 36.5t-30 21.5t-38.5 13t-38.5 10.5t-30 14.5t-12 24q0 18 18 27.5t47 8.5t45 -0.5t25 -3.5t13.5 -13.5t12.5 -30.5v59q-26 -5 -47 -2.5t-49 2.5h-24q-12 0 -22.5 -4t-17.5 -14t-7 -29q0 -22 11.5 -34t28.5 -19t37.5 -11t37.5 -9.5t28.5 -16t11.5 -30.5
q0 -7 -4.5 -15.5t-12.5 -15.5t-19 -12t-24 -5q-12 0 -28.5 0.5t-31 5t-24.5 14.5t-11 28v-60q16 3 23 3.5t13 -0.5t15.5 -2t31.5 -1q14 0 29 0.5t27 5.5t20 17.5t8 36.5z" />
    <glyph glyph-name="t" unicode="t" horiz-adv-x="211" 
d="M174 30q-15 1 -20.5 0.5t-7.5 -2t-3.5 -3t-8.5 -1.5q-16 0 -25.5 13.5t-14 33t-6 41.5t-1.5 39q0 13 -0.5 21t-1.5 13.5t-1 9.5v10l4 14q2 5 14.5 5.5t44.5 1.5q-6 0 -5.5 4.5t-3.5 5.5q-25 -5 -36 0.5t-13.5 20t1 37t5.5 51.5t0.5 64t-12.5 74q-9 -39 -10.5 -74.5
t0 -65.5t3 -53.5t-2 -37.5t-14.5 -17.5t-34 5.5q-5 -1 -2.5 -6.5t-4.5 -5.5q26 0 37.5 -9.5t14.5 -25t1 -36.5t-1.5 -44.5t6.5 -47.5t25 -47l7 -4t13 -3h10q16 2 29.5 10.5z" />
    <glyph glyph-name="u" unicode="u" 
d="M281 3q-16 8 -25.5 12.5t-15 11t-7 18t-2 34t0.5 59t1 92.5h-59q15 -8 24.5 -10t14.5 -2.5t7 -2t2 -9.5q0 -7 -0.5 -24t-0.5 -47q0 -12 1 -32.5t-4.5 -40t-20.5 -33.5t-47 -14q-40 0 -58 16t-24 45t-4 68t2 86h-60q28 -15 38.5 -34.5t12.5 -41.5t0 -44t-0.5 -42
t11.5 -35.5t37 -23.5q23 -8 28 -5t4 1l10 0.5t22.5 3t24.5 6t16 9.5q4 0 5 -10t6 -11h60z" />
    <glyph glyph-name="v" unicode="v" horiz-adv-x="320" 
d="M282 229h-107q14 -9 24 -15.5t24 -14.5q-11 -22 -20 -41t-18.5 -37t-20 -36t-25.5 -36q-17 21 -29 40.5t-21.5 39t-17 41t-16.5 47.5h48v12h-108q17 -9 25.5 -13t14 -9.5t10.5 -16t15.5 -32t29 -57t49.5 -91.5q36 67 55 106t28.5 60t12.5 27.5t7 9t12 4t28 12.5z" />
    <glyph glyph-name="w" unicode="w" horiz-adv-x="429" 
d="M411 233h-108q12 -7 20 -10.5t28 -13.5q-8 -24 -14 -45.5t-13.5 -43.5t-18 -45t-27.5 -49q-3 5 -7.5 15.5t-12 31t-19.5 54.5l-30 85q-13 -34 -20.5 -56t-12 -37.5t-7 -26t-7 -20t-11 -21t-18.5 -28.5q-23 32 -39 84t-28 114h47v12h-107q23 -13 35 -23t18 -21.5t9 -26
t9.5 -36.5t19 -52.5t37.5 -73.5q11 20 19.5 42.5l17 45t17.5 45t21 42.5q12 -21 19.5 -42t14 -42.5t14.5 -44t22 -46.5q26 46 39.5 83.5t24.5 66.5t25 49.5t43 33.5z" />
    <glyph glyph-name="x" unicode="x" horiz-adv-x="269" 
d="M221 5q-20 13 -37 32t-30.5 35.5t-21 28.5l-7.5 12q0 17 15 37.5t33 38.5t33 30l15 12h-84q6 -6 12 -9t10.5 -4.5t8 -3.5t5.5 -7q-14 -19 -21.5 -29t-13.5 -17t-11.5 -12t-13.5 -13q-22 22 -30.5 30t-11.5 12.5t-5.5 12t-11.5 28.5h36v12h-84q19 -14 36.5 -32.5t31 -35
t21 -28l7.5 -11.5q0 -18 -15 -39t-33 -39t-33 -29.5l-15 -11.5h84q-10 11 -21.5 13t-14.5 11q10 15 16 23t9.5 12t5.5 7t5 7t8 12t15 23q19 -28 26 -37t11 -13.5t7.5 -12t15.5 -33.5h-36v-12h84z" />
    <glyph glyph-name="y" unicode="y" horiz-adv-x="314" 
d="M282 229h-95q16 -12 31 -13t17 -7q-15 -29 -27 -52t-23.5 -42t-22.5 -35t-23 -31q-30 37 -50.5 79.5t-33.5 88.5h36v12h-96q24 -12 47.5 -43t42 -64.5t30.5 -62t12 -34.5q0 -7 -1 -12t-5 -14.5t-12 -26t-23 -45.5t-37 -73.5t-54 -109.5q24 26 47.5 68t46.5 91.5t46 101
t47 96.5t48.5 79.5t51.5 48.5z" />
    <glyph glyph-name="z" unicode="z" horiz-adv-x="246" 
d="M209 2v48l-22 -36h-145l167 195v21h-179v-28l20 16h151l-171 -197v-19h179z" />
    <glyph glyph-name="braceleft" unicode="{" horiz-adv-x="166" 
d="M138 -47q-13 7 -24 12.5t-20.5 16.5t-16.5 31.5t-12.5 58.5t-8 96.5t-2.5 144.5t2 143.5t6.5 93.5t11.5 55t16.5 28.5t21.5 14.5t26 13h-36q-30 -23 -40.5 -51t-11.5 -59t3.5 -62.5t4.5 -62.5q0 -30 -7.5 -57.5t-32.5 -49.5q25 -23 32.5 -52.5t7.5 -63.5q0 -33 -4 -68
t-3 -68t11.5 -62.5t39.5 -51.5h36z" />
    <glyph glyph-name="bar" unicode="|" horiz-adv-x="109" 
d="M66 -42v703h-12v-703h12z" />
    <glyph glyph-name="braceright" unicode="}" horiz-adv-x="206" 
d="M162 319q-27 23 -35 50.5t-7.5 57.5t5.5 61t4.5 61.5t-11 59t-40.5 52.5h-36q37 -23 55 -56.5t24.5 -76.5t5.5 -94t-1 -109q0 -109 -2.5 -175t-11.5 -104.5t-25.5 -58t-44.5 -34.5h36q26 20 36 50t12 64t0 70.5t-1.5 70.5t8 63t29.5 48z" />
    <glyph glyph-name="asciitilde" unicode="~" horiz-adv-x="240" 
d="M197 315q-36 -5 -53.5 -4.5t-25 3t-10 6t-7.5 4t-17.5 -4t-41.5 -16.5q30 6 45 6.5t22.5 -1t11 -4.5t11 -4t22 2t43.5 13z" />
    <glyph glyph-name="cent" unicode="&#xa2;" horiz-adv-x="263" 
d="M209 74q-15 -3 -37 -6.5t-34 -5.5v156q20 -7 35 -9.5t36 -2.5q-27 15 -41 21t-20.5 8t-7 2.5t-0.5 3.5t-1 11t-8 26q-10 -26 -21.5 -37.5t-22.5 -16t-21.5 -6t-18.5 -7.5t-12.5 -20t-4.5 -45t4.5 -47.5t12.5 -25t17.5 -12t20.5 -8t21.5 -14.5t19.5 -30q15 22 17 28t5 8
t15 6t46 23zM114 74q-14 5 -25.5 8t-19 9.5t-11.5 18.5t-4 36q0 18 6 28.5t15 16.5t19.5 9t19.5 6v-132z" />
    <glyph glyph-name="sterling" unicode="&#xa3;" horiz-adv-x="314" 
d="M257 51v36q-15 -27 -21.5 -37.5t-11 -15t-10 -7t-17.5 -12.5h-108v204h72v11h-72v299q0 26 10 46t26.5 35.5t38 27.5t45.5 23h-48q-44 -31 -63.5 -59.5t-19.5 -60.5v-311h-48q23 -10 33.5 -10.5t13.5 -6.5t2 -25t-1 -65q0 -29 2 -47t-0.5 -30.5t-13.5 -21.5t-36 -21h179
q8 7 13.5 11t10 8.5t10 11t14.5 17.5z" />
    <glyph glyph-name="section" unicode="&#xa7;" horiz-adv-x="246" 
d="M185 76v107q0 20 -22.5 45t-49 51t-49 50.5t-22.5 44.5q1 2 5.5 15.5t18.5 29t35 15.5q17 0 28.5 -5t20.5 -14t17 -22.5t18 -30.5v36q-5 6 -9.5 14t-12 15.5t-19.5 13t-31 5.5q-42 0 -62.5 -19t-20.5 -41v-119q0 -20 22.5 -45t49 -50.5t49 -50.5t22.5 -45q0 -9 -6 -19.5
t-15 -19.5t-19.5 -14.5t-19.5 -5.5q-18 0 -29.5 4.5t-20.5 13.5t-16.5 22.5t-16.5 30.5v-35q7 -10 12.5 -18.5t12.5 -15t17.5 -10.5t28.5 -4q39 0 61.5 16.5t22.5 54.5zM149 166q-12 12 -24.5 22t-25 23t-24 30.5t-21.5 43.5q45 -28 65 -48.5t26.5 -34.5t4.5 -23t-1 -13z
" />
    <glyph glyph-name="dieresis" unicode="&#xa8;" horiz-adv-x="206" 
d="M162 300v12h-36v-12h36zM66 300v12h-36v-12h36z" />
    <glyph glyph-name="copyright" unicode="&#xa9;" horiz-adv-x="417" 
d="M377 158q0 31 -8 61t-26 53.5t-48 38t-74 14.5q-31 0 -61 -7.5t-53.5 -25.5t-38 -48t-14.5 -74q0 -32 7.5 -62t25 -53.5t47.5 -38t75 -14.5q31 0 61.5 7t54 25t38 48t14.5 76zM353 158q0 -29 -12 -53t-31.5 -41.5t-46 -27.5t-54.5 -10q-27 0 -51 12t-42 32t-28 46t-10 54
t12 52t31.5 41.5t45.5 27.5t54 10t52 -11.5t42 -31.5t28 -46t10 -54zM269 98q-9 -2 -21 -5t-19 -5t-8 -2q-59 0 -59 72v28q0 14 3.5 23.5t13.5 15t30 5.5l2 1.5t14 2t38 -3.5q-12 7 -20 15.5t-22 8.5q-38 0 -54.5 -23t-16.5 -61v-36q0 -15 5.5 -26t17.5 -16.5t36 -5.5
q2 0 1 -4t2.5 -5.5t16 2t40.5 19.5z" />
    <glyph glyph-name="guillemotleft" unicode="&#xab;" horiz-adv-x="411" 
d="M353 2l-12 24l-144 144q21 35 42.5 55.5t40.5 37.5t35 36t26 50l-168 -167q5 -8 20.5 -28.5t39.5 -46t54.5 -53.5t65.5 -52zM209 2l-12 24l-143 144q20 33 41 54t40.5 39t35.5 37t26 49l-167 -167q8 -14 28 -37.5t45 -49.5t53 -51t53 -42z" />
    <glyph glyph-name="registered" unicode="&#xae;" horiz-adv-x="286" 
d="M257 135q0 26 -4.5 51.5t-16.5 46t-33 33t-54 12.5q-21 0 -42 -5t-38.5 -19.5t-28 -40t-10.5 -66.5q0 -27 4.5 -52.5t16.5 -46t32.5 -33t53.5 -12.5q23 0 44.5 5t38.5 19t27 40t10 68zM233 135q0 -12 -4 -30.5t-14.5 -35.5t-29 -29.5t-48.5 -12.5q-24 0 -40 14
t-25.5 33.5t-13.5 40t-4 32.5t3.5 30t14 35.5t29 29.5t48.5 12t46.5 -18.5t25 -40.5t10.5 -41zM161 87q6 21 10 36t4.5 27.5t-3 25.5t-11.5 31h-60v-132h12v48q16 -7 25.5 -13t14 -11t6 -8t2.5 -4zM161 159h-36q19 10 21 15t0 5q-1 0 -0.5 -5.5t15.5 -14.5z" />
    <glyph glyph-name="macron" unicode="&#xaf;" horiz-adv-x="491" 
d="M389 301v12h-36v-12h36zM425 2q-17 7 -27 12t-15.5 12t-7 19.5t-1 35.5t1.5 58.5t1 89.5h-144v348q0 25 9 42.5t39 17.5l11.5 1.5t30.5 -1.5q-23 11 -41.5 15.5t-32 0t-21 -20t-7.5 -43.5v-360h-131v276q6 9 8 15.5t5 11t10.5 7t24.5 2.5l11.5 1.5t29.5 -1.5
q-37 18 -58 16.5t-31 -17t-12 -42.5t-0.5 -58.5t3 -65t-1 -63t-12.5 -51.5t-32 -31q2 -9 6.5 -13t10.5 -5t12.5 -2t13.5 -4v-503h-48v-12h108q-5 3 -8.5 5.5t-8 5t-12 5.5t-19.5 8v503h131v-347h-47v-12h107q-5 3 -8.5 5t-8 4.5t-11.5 6t-20 8.5v335h132v-203h-48v-12h108z
" />
    <glyph glyph-name="degree" unicode="&#xb0;" horiz-adv-x="171" 
d="M138 601q0 9 -2.5 19.5t-8 19.5t-14.5 15t-23 6q-9 0 -19.5 -2.5t-19.5 -8t-15 -14.5t-6 -23q0 -9 2.5 -19.5t8 -19.5t14.5 -15t23 -6q9 0 19.5 2t19.5 7.5t15 15t6 23.5zM114 589h-60v36h60v-36z" />
    <glyph glyph-name="acute" unicode="&#xb4;" horiz-adv-x="131" 
d="M92 350q-5 -5 -12.5 -13t-16 -17t-15.5 -17.5t-10 -12.5q6 6 9.5 8t8 6.5t12.5 14.5t24 31z" />
    <glyph glyph-name="paragraph" unicode="&#xb6;" horiz-adv-x="354" 
d="M305 -260q-5 3 -8.5 5t-8 4.5t-12 6t-19.5 8.5v646h48v12h-215q-13 -9 -24 -16t-19 -17t-12.5 -24.5t-4.5 -38.5q0 -48 14.5 -71t36.5 -31t46.5 -7t45.5 1v-466h-48v-12h60v670h60v-670h60zM161 242h-60q-16 14 -25 23t-14 17t-6.5 18t-1.5 26q0 18 3 28t9 16.5t15 12
t20 15.5h60v-156z" />
    <glyph glyph-name="guillemotright" unicode="&#xbb;" horiz-adv-x="411" 
d="M353 170v12l-168 155h-12l156 -155q-19 -28 -39 -48.5t-38 -39t-32.5 -37t-22.5 -43.5zM209 170v12l-167 155h-12l155 -155q-20 -33 -40 -53.5t-37 -36.5t-31 -33.5t-23 -44.5z" />
    <glyph glyph-name="Adieresis" unicode="&#xc4;" horiz-adv-x="554" 
d="M353 637v12h-36v-12h36zM519 3q-14 6 -32 37t-38.5 79.5t-43 111t-46 132.5t-46.5 144t-44 145q-37 -121 -73 -234t-69 -202t-60.5 -146.5t-48.5 -66.5h107q-14 8 -22 12.5t-26 11.5q16 85 31 141t35.5 88t50 45t75.5 13q4 0 16 4t28.5 2.5t36 -14t39 -46t38.5 -92.5
t33 -153h-48v-12h107zM341 338h-144v36q6 9 15.5 31t19.5 50.5t20 61.5t17 64q2 -10 11.5 -41.5t21.5 -66t23 -64t16 -35.5v-36zM209 625l-24 24z" />
    <glyph glyph-name="Aring" unicode="&#xc5;" horiz-adv-x="566" 
d="M519 3q-22 10 -42 43.5t-39.5 81t-38.5 104.5t-38 113.5t-39 108t-41 87.5q15 13 31.5 26t16.5 34q0 23 -12 41.5t-48 18.5q-20 0 -40 -12t-20 -36q0 -17 0.5 -24t5 -12.5t14.5 -12.5t28 -23q-21 -34 -40.5 -84t-38.5 -106.5t-38 -114t-39 -106t-40.5 -83t-42.5 -44.5
h107q-14 8 -22 12.5t-26 11.5q7 37 17 83t30 86t54 67t91 27q11 0 26 2t32 -2t35.5 -17t36 -44t33.5 -82.5t28 -131.5h-48v-12h107zM305 589q-20 -5 -36 -5t-36 5v36q16 4 31 5t41 -5v-36zM341 314h-144q9 37 18.5 63t18.5 49t17.5 46.5t17.5 56.5q4 -17 13 -43.5t20 -56.5
t21.5 -60.5t17.5 -54.5z" />
    <glyph glyph-name="AE" unicode="&#xc6;" horiz-adv-x="749" 
d="M721 5v48l-23 -36h-275v393h203v-48h12v108q-16 -9 -18 -15t0 -10.5t3 -9.5t-9 -13h-191v227h287v-48h11v60h-346q-10 -26 -36.5 -83t-61.5 -128t-74.5 -147t-76 -140t-65.5 -108t-43 -50h107q-2 1 -16.5 8.5t-31.5 15.5l203 381h131v-393h-48v-12h358zM399 434h-95
q1 4 8.5 23t20 47t29.5 62.5t37 70.5v-203z" />
    <glyph glyph-name="Ccedilla" unicode="&#xc7;" horiz-adv-x="520" 
d="M465 100q-18 -21 -34 -37t-35.5 -26t-44 -15t-59.5 -5q-71 0 -118.5 24t-77 66t-42 98.5t-12.5 121.5q0 51 8.5 107.5t33.5 104t69 79t115 31.5q53 0 82 -12t46.5 -29t31 -35.5t34.5 -31.5q-15 17 -23 25.5t-11.5 18.5t-4 25t-0.5 45q-8 -7 -10.5 -14.5t-13.5 -15.5
q-17 7 -31 13.5t-28 11.5t-31 8t-41 3q-52 0 -95.5 -17.5t-75 -56t-49.5 -100t-18 -148.5q0 -59 3 -110.5t25.5 -95t72.5 -78.5t143 -62q-7 -17 -11.5 -27.5t-12.5 -32.5q13 -2 25 -2.5t21 -5t14.5 -16t5.5 -35.5q0 -9 -8 -12.5t-20 -3t-26.5 4.5t-28.5 11v-36h35
q4 1 14 -0.5t20.5 1.5t18 13t7.5 34q0 12 0.5 18.5t-3 13.5t-13.5 15.5t-32 23.5q17 25 31.5 35.5t28.5 14.5t27 6t28 9.5t32 25t38 52.5z" />
    <glyph glyph-name="Eacute" unicode="&#xc9;" horiz-adv-x="440" 
d="M272 613q-10 -9 -16.5 -15.5t-12 -12.5t-11 -13.5t-14.5 -18.5q13 12 19 16.5t9.5 9t8.5 11.5t17 23zM389 2v48l-6.5 -9.5t-11.5 -17.5t-6 -9h-275v395h215v-48h12v96q-7 -3 -9.5 -8.5t-4 -11.5t-3 -10.5t-7.5 -5.5h-203v228h287v-48h12v60h-359q12 -7 19.5 -10.5
t28.5 -13.5v-623h-48v-12h359z" />
    <glyph glyph-name="Ntilde" unicode="&#xd1;" horiz-adv-x="549" 
d="M327 649h-154q30 -4 49 -6.5t31 -4t19.5 -2t14.5 0.5t16 4zM494 6q-13 8 -21.5 12t-26.5 12v619h48v12h-107q16 -11 26 -15.5t21 -8.5v-584h-23l-298 608h-83q7 -4 12.5 -7t10.5 -5t10.5 -5t13.5 -7v-619h-47v-12h95q-1 7 -6.5 8.5t-11.5 2.5t-11.5 3t-6.5 10v595h24
l310 -619h71z" />
    <glyph glyph-name="Odieresis" unicode="&#xd6;" horiz-adv-x="726" 
d="M678 325q0 75 -27.5 137t-72 106.5t-100.5 68.5t-112 24q-65 0 -124 -25.5t-103.5 -69.5t-70.5 -103t-26 -126q0 -74 26.5 -136t70 -106.5t99.5 -69.5t116 -25q65 0 124 25.5t103.5 69.5t70.5 103t26 127zM654 325q0 -66 -29 -121.5t-73.5 -95t-97 -62t-100.5 -22.5
q-33 0 -82 18.5t-95 57t-78.5 97.5t-32.5 140q0 64 28 119t71.5 95.5t97 63t103.5 22.5q33 0 82 -19t95 -57.5t78.5 -97t32.5 -138.5zM426 565v12h-36v-12h36zM330 565v12h-36v-12h36z" />
    <glyph glyph-name="Oslash" unicode="&#xd8;" horiz-adv-x="709" 
d="M678 325q0 59 -15.5 107t-40.5 85.5t-56.5 64.5t-63.5 44.5t-61.5 26t-50.5 8.5q-70 0 -123 -17t-91.5 -45t-64 -63t-41 -71t-22 -69.5t-6.5 -58.5q0 -59 15.5 -107t40 -85.5t56 -65t63.5 -45t62 -26t51 -8.5q85 0 144.5 24t98 60t60 78t31.5 78t12 60.5zM438 637
l-180 -589q-90 47 -141 117t-51 172q0 64 28 119t71.5 95.5t97 63t103.5 22.5q21 0 36.5 -2.5t35.5 2.5zM654 325q0 -66 -29 -121.5t-73.5 -95t-97 -62t-100.5 -22.5q-8 0 -26.5 1t-33.5 -1l180 589q1 -1 14.5 -9.5t33.5 -24t43.5 -39.5t43 -55.5t32.5 -71.5t13 -88z" />
    <glyph glyph-name="Udieresis" unicode="&#xdc;" horiz-adv-x="577" 
d="M354 613v12h-36v-12h36zM258 613v12h-36v-12h36zM534 372q0 48 -2.5 79.5t-6.5 52.5t-9 35t-10.5 28.5t-10.5 33.5t-9 48h48v12h-108q34 -15 53.5 -51.5t29 -78.5t11.5 -82.5t2 -64.5q0 -95 -23 -165t-57 -116t-74 -69t-74 -23q-43 0 -77 17.5t-60.5 46.5t-46 67
t-32 79.5t-18.5 83.5t-6 79q0 68 7.5 116.5t20.5 81t30.5 51.5t37.5 28h-108q12 -7 19.5 -10.5t28.5 -13.5q-6 -30 -12 -49.5t-11.5 -34t-10 -28t-7.5 -31.5t-5 -44t-2 -66q0 -77 16 -146.5t46.5 -122.5t75.5 -84.5t102 -31.5q67 0 115 34.5t78.5 88.5t44.5 120t14 130z" />
    <glyph glyph-name="germandbls" unicode="&#xdf;" horiz-adv-x="263" 
d="M211 83q0 10 0.5 18t-3 18t-13.5 24t-32 36q23 23 35.5 40.5t12.5 43.5q0 28 -20.5 44.5t-51.5 16.5q-33 0 -50.5 -7t-25 -21.5t-8.5 -37.5t-1 -55v-96q0 -30 2 -46.5t-0.5 -26.5t-13.5 -17t-36 -18h60q0 45 -3 99.5t0 102t17 79.5t47 32q15 0 28 -5t22.5 -12t15.5 -16
t6 -16q0 -12 -7.5 -24t-16.5 -23t-16.5 -20.5t-7.5 -16.5q0 -11 7.5 -19t16.5 -18t16.5 -23.5t7.5 -35.5q0 -20 -8.5 -34t-20 -24t-24 -16t-19.5 -10h36q16 13 25.5 20t14.5 14.5t6.5 18.5t1.5 31z" />
    <glyph glyph-name="agrave" unicode="&#xe0;" 
d="M162 288l-48 48l-0.5 -3t3.5 -9t14 -15t31 -21zM282 0q-26 11 -36 32.5t-12 46.5t-0.5 51.5t-1 48t-12 35.5t-34.5 14q-38 0 -67 -16.5t-48.5 -39.5t-30 -47.5t-10.5 -40.5q0 -12 2 -27t9.5 -27.5t22 -21t38.5 -8.5q13 0 26 3.5t27.5 9t30.5 11.5t36 12v-36h60zM198 132
q0 -28 -2.5 -48.5t-11 -33.5t-25.5 -19.5t-45 -6.5q-6 0 -16.5 2.5t-20 9t-16.5 18.5t-7 30q0 20 9.5 35t24.5 28t34.5 26.5t39.5 30.5h36q10 -28 9 -44.5t-4.5 -21.5t-4.5 -6z" />
    <glyph glyph-name="aacute" unicode="&#xe1;" 
d="M225 336q-10 -9 -16.5 -15.5l-12.5 -12.5t-11.5 -13.5t-14.5 -18.5q13 12 19 16.5t10 9t9 11.5t17 23zM282 0q-26 11 -36 32.5t-12 46.5t-0.5 51.5t-1 48t-12 35.5t-34.5 14q-38 0 -67 -16.5t-48.5 -39.5t-30 -47.5t-10.5 -40.5q0 -12 2 -27t9.5 -27.5t22 -21t38.5 -8.5
q13 0 26 3.5t27.5 9t30.5 11.5t36 12v-36h60zM198 132q0 -28 -2.5 -48.5t-11 -33.5t-25.5 -19.5t-45 -6.5q-6 0 -16.5 2.5t-20 9t-16.5 18.5t-7 30q0 20 9.5 35t24.5 28t34.5 26.5t39.5 30.5h36q10 -28 9 -44.5t-4.5 -21.5t-4.5 -6z" />
    <glyph glyph-name="acircumflex" unicode="&#xe2;" 
d="M234 288l-60 60l-48 -60l48 48l10 -10t9.5 -9t14.5 -11.5t26 -17.5zM282 0q-26 11 -36 32.5t-12 46.5t-0.5 51.5t-1 48t-12 35.5t-34.5 14q-38 0 -67 -16.5t-48.5 -39.5t-30 -47.5t-10.5 -40.5q0 -12 2 -27t9.5 -27.5t22 -21t38.5 -8.5q13 0 26 3.5t27.5 9t30.5 11.5
t36 12v-36h60zM198 132q0 -28 -2.5 -48.5t-11 -33.5t-25.5 -19.5t-45 -6.5q-6 0 -16.5 2.5t-20 9t-16.5 18.5t-7 30q0 20 9.5 35t24.5 28t34.5 26.5t39.5 30.5h36q10 -28 9 -44.5t-4.5 -21.5t-4.5 -6z" />
    <glyph glyph-name="atilde" unicode="&#xe3;" 
d="M234 300q-27 -4 -44.5 -2t-33 3.5t-33.5 0t-45 -13.5q29 6 44.5 7t23.5 -1t12 -5t11.5 -3.5t22 2.5t42.5 12zM282 0q-26 11 -36 32.5t-12 46.5t-0.5 51.5t-1 48t-12 35.5t-34.5 14q-38 0 -67 -16.5t-48.5 -39.5t-30 -47.5t-10.5 -40.5q0 -12 2 -27t9.5 -27.5t22 -21
t38.5 -8.5q13 0 26 3.5t27.5 9t30.5 11.5t36 12v-36h60zM198 132q0 -28 -2.5 -48.5t-11 -33.5t-25.5 -19.5t-45 -6.5q-6 0 -16.5 2.5t-20 9t-16.5 18.5t-7 30q0 20 9.5 35t24.5 28t34.5 26.5t39.5 30.5h36q10 -28 9 -44.5t-4.5 -21.5t-4.5 -6z" />
    <glyph glyph-name="adieresis" unicode="&#xe4;" 
d="M222 288v12h-36v-12h36zM126 288v12h-36v-12h36zM282 0q-26 11 -36 32.5t-12 46.5t-0.5 51.5t-1 48t-12 35.5t-34.5 14q-38 0 -67 -16.5t-48.5 -39.5t-30 -47.5t-10.5 -40.5q0 -12 2 -27t9.5 -27.5t22 -21t38.5 -8.5q13 0 26 3.5t27.5 9t30.5 11.5t36 12v-36h60zM198 132
q0 -28 -2.5 -48.5t-11 -33.5t-25.5 -19.5t-45 -6.5q-6 0 -16.5 2.5t-20 9t-16.5 18.5t-7 30q0 20 9.5 35t24.5 28t34.5 26.5t39.5 30.5h36q10 -28 9 -44.5t-4.5 -21.5t-4.5 -6z" />
    <glyph glyph-name="aring" unicode="&#xe5;" 
d="M282 0q-29 13 -39 29.5t-10.5 36t3 41t2.5 44t-11.5 45.5t-40.5 44q13 11 24.5 19.5t11.5 28.5q0 9 -2.5 19.5t-8 19.5t-14.5 15t-23 6q-9 0 -19.5 -2.5t-19.5 -8t-15 -14.5t-6 -23q0 -11 0.5 -17t3.5 -12t10.5 -14t21.5 -23q-22 -18 -43.5 -33t-38.5 -31.5t-27.5 -37
t-10.5 -48.5q0 -12 2 -27t9.5 -27.5t22 -21t38.5 -8.5q13 0 26 3.5t27.5 9t30.5 11.5t36 12v-36h60zM198 276h-60v36h60v-36zM198 132q0 -28 -2.5 -48.5t-11 -33.5t-25.5 -19.5t-45 -6.5q-6 0 -16.5 2.5t-20 9t-16.5 18.5t-7 30q0 20 9.5 35t24.5 28t34.5 26.5t39.5 30.5h36
q10 -28 9 -44.5t-4.5 -21.5t-4.5 -6z" />
    <glyph glyph-name="ae" unicode="&#xe6;" horiz-adv-x="480" 
d="M448 147q-8 18 -15.5 33t-19 26.5t-28.5 17.5t-44 6q-21 0 -31.5 0.5t-18 -2t-17 -10t-29.5 -23.5q-6 5 -11 11t-11 11.5t-15 9t-23 3.5q-38 0 -67 -16t-48.5 -38.5t-29.5 -47t-10 -41.5q0 -14 2 -29t9.5 -27t21.5 -20t38 -8q38 0 64 15.5t56 44.5q19 -20 31.5 -31.5
t24 -18t26 -8.5t38.5 -2q28 0 42 2.5t22.5 8t14 14.5t16.5 23q-13 -7 -22 -13.5t-18.5 -11.5t-22 -8t-32.5 -3q-26 0 -46 8t-33.5 21.5t-21 31t-7.5 35.5q0 25 8 44.5t21.5 33.5t31 21.5t35.5 7.5q19 0 31 -2t21.5 -8.5t19 -18t23.5 -30.5h-131v-12h155zM197 135
q0 -38 -11.5 -59.5t-27 -32t-32 -13.5t-25.5 -3q-7 0 -15.5 5t-15.5 13.5t-11.5 19.5t-4.5 22q0 18 8.5 32t23 27t34 27.5t41.5 32.5h36q8 -23 7.5 -39.5t-3.5 -23.5t-4 -8z" />
    <glyph glyph-name="ccedilla" unicode="&#xe7;" horiz-adv-x="269" 
d="M209 50q-8 -4 -17.5 -10l-19 -12t-18.5 -10t-16 -4q-20 0 -37 8.5t-30.5 22t-21 30.5t-7.5 35q0 28 9.5 48.5t23 34t27.5 19.5t24 6q12 0 20.5 -1.5t16.5 -7t17 -15t23 -24.5l-0.5 9.5t-6 21t-19 20.5t-39.5 9q-45 0 -76.5 -26t-31.5 -82q0 -38 7.5 -56.5t18 -29t23 -19
t23.5 -27.5q3 -12 4 -18.5t0.5 -12t-2 -11.5t-2.5 -18q5 1 8.5 8t7 9.5t8 -5.5t12.5 -36h-60v-24h83v36q0 13 -3 20t-8.5 11.5t-11.5 7.5t-12 9q11 13 20 22t18.5 17t20 18t24.5 27z" />
    <glyph glyph-name="egrave" unicode="&#xe8;" horiz-adv-x="303" 
d="M149 290l-48 48v-3t3.5 -9t13.5 -15t31 -21zM257 147q-7 16 -14 31t-18.5 26.5t-29.5 18.5t-46 7q-25 0 -47 -4.5t-38 -16t-25 -32.5t-9 -54q0 -22 3.5 -43.5t16 -38.5t36 -27.5t63.5 -10.5q27 0 42 3t23.5 9t14.5 15t16 21q-15 -8 -25 -14.5t-19.5 -11.5t-21 -7.5
t-30.5 -2.5q-21 0 -40 7t-34 20t-24 30.5t-9 38.5q0 51 29 79.5t66 28.5q21 0 34 -3t23 -10t18.5 -18.5t20.5 -28.5h-132v-12h156z" />
    <glyph glyph-name="eacute" unicode="&#xe9;" horiz-adv-x="303" 
d="M221 333q-18 -9 -24 -10.5t-9 -4.5t-8.5 -11t-21.5 -29q1 1 7.5 6.5t15.5 13.5t20 17.5t20 17.5zM257 147q-7 16 -14 31t-18.5 26.5t-29.5 18.5t-46 7q-25 0 -47 -4.5t-38 -16t-25 -32.5t-9 -54q0 -22 3.5 -43.5t16 -38.5t36 -27.5t63.5 -10.5q27 0 42 3t23.5 9t14.5 15
t16 21q-15 -8 -25 -14.5t-19.5 -11.5t-21 -7.5t-30.5 -2.5q-21 0 -40 7t-34 20t-24 30.5t-9 38.5q0 51 29 79.5t66 28.5q21 0 34 -3t23 -10t18.5 -18.5t20.5 -28.5h-132v-12h156z" />
    <glyph glyph-name="ecircumflex" unicode="&#xea;" horiz-adv-x="303" 
d="M209 290l-60 60l-48 -60l48 48l10 -10t10 -9t15 -11.5t25 -17.5zM257 147q-7 16 -14 31t-18.5 26.5t-29.5 18.5t-46 7q-25 0 -47 -4.5t-38 -16t-25 -32.5t-9 -54q0 -22 3.5 -43.5t16 -38.5t36 -27.5t63.5 -10.5q27 0 42 3t23.5 9t14.5 15t16 21q-15 -8 -25 -14.5
t-19.5 -11.5t-21 -7.5t-30.5 -2.5q-21 0 -40 7t-34 20t-24 30.5t-9 38.5q0 51 29 79.5t66 28.5q21 0 34 -3t23 -10t18.5 -18.5t20.5 -28.5h-132v-12h156z" />
    <glyph glyph-name="edieresis" unicode="&#xeb;" horiz-adv-x="303" 
d="M113 290v24h-35v-24h35zM257 147q-7 16 -14 31t-18.5 26.5t-29.5 18.5t-46 7q-25 0 -47 -4.5t-38 -16t-25 -32.5t-9 -54q0 -22 3.5 -43.5t16 -38.5t36 -27.5t63.5 -10.5q27 0 42 3t23.5 9t14.5 15t16 21q-15 -8 -25 -14.5t-19.5 -11.5t-21 -7.5t-30.5 -2.5q-21 0 -40 7
t-34 20t-24 30.5t-9 38.5q0 51 29 79.5t66 28.5q21 0 34 -3t23 -10t18.5 -18.5t20.5 -28.5h-132v-12h156zM209 278l-24 24z" />
    <glyph glyph-name="igrave" unicode="&#xec;" horiz-adv-x="189" 
d="M90 289l-48 48q0 -1 -0.5 -4t3.5 -9t14 -14.5t31 -20.5zM150 1q-17 7 -27 12t-15.5 12t-7 19.5t-1 35.5t1.5 59t1 90h-60q24 -13 34.5 -17t13.5 -11.5t1.5 -24.5t-1.5 -55q0 -40 1 -60t-2.5 -30t-14 -15t-32.5 -15h108z" />
    <glyph glyph-name="iacute" unicode="&#xed;" horiz-adv-x="189" 
d="M153 337q-10 -9 -16.5 -15.5l-12.5 -12.5t-11.5 -13.5t-14.5 -18.5q13 12 19 16.5t10 9t9 11.5t17 23zM150 1q-17 7 -27 12t-15.5 12t-7 19.5t-1 35.5t1.5 59t1 90h-60q24 -13 34.5 -17t13.5 -11.5t1.5 -24.5t-1.5 -55q0 -40 1 -60t-2.5 -30t-14 -15t-32.5 -15h108z" />
    <glyph glyph-name="icircumflex" unicode="&#xee;" horiz-adv-x="189" 
d="M150 289l-60 60l-48 -60l48 48l10 -10t9.5 -9t14.5 -11.5t26 -17.5zM150 1q-17 7 -27 12t-15.5 12t-7 19.5t-1 35.5t1.5 59t1 90h-60q24 -13 34.5 -17t13.5 -11.5t1.5 -24.5t-1.5 -55q0 -40 1 -60t-2.5 -30t-14 -15t-32.5 -15h108z" />
    <glyph glyph-name="idieresis" unicode="&#xef;" horiz-adv-x="189" 
d="M162 288v12h-36v-12h36zM66 288v12h-36v-12h36zM150 -1q-25 11 -35.5 16.5t-13.5 24t-1 61t2 127.5h-60q21 -11 31.5 -15.5t14 -13t3 -26t-0.5 -54.5q0 -39 1 -59t-2.5 -30t-14 -15.5t-32.5 -15.5h108z" />
    <glyph glyph-name="ntilde" unicode="&#xf1;" horiz-adv-x="320" 
d="M210 302q-39 -5 -56 -2.5t-28.5 5t-25.5 0.5t-46 -15q26 4 41 4t24.5 -1t16 -3t14.5 -2q9 0 22.5 3t37.5 11zM281 3q-24 12 -34.5 32t-13.5 43t-2.5 47t-2 45t-11.5 37t-31 23q-11 3 -17 0t-10 -8.5t-6 -10.5t-3 -5q-3 0 0 3t-1 6.5t-21.5 7.5t-61.5 7h-60
q22 -12 32.5 -16.5t14 -12.5t2.5 -25t-1 -53q0 -46 0.5 -66.5t-3 -28.5t-14 -11t-31.5 -14h108q-15 8 -24.5 10.5t-14.5 4t-7.5 4t-2.5 10.5t0.5 24t0.5 43v38t6 39t21 30t45 12q32 0 49 -8t24.5 -23.5t8.5 -37.5t1 -50q0 -42 0.5 -58t-3.5 -21t-13.5 -5.5t-30.5 -11.5h107z
" />
    <glyph glyph-name="ograve" unicode="&#xf2;" horiz-adv-x="297" 
d="M149 290l-48 48v-3t3.5 -9t13.5 -15t31 -21zM257 111q0 22 -4.5 43t-16.5 38t-33 27.5t-54 10.5q-25 0 -47 -4.5t-38 -16t-25 -32.5t-9 -54q0 -21 4 -42.5t15 -39t32 -28t56 -10.5q22 0 43.5 4.5t38.5 16.5t27.5 33t10.5 54zM233 111q0 -17 -8 -32.5t-21.5 -27t-31 -18
t-35.5 -6.5t-33.5 8t-26.5 21.5t-17 31t-6 35.5q0 16 8 31.5t21.5 27t30.5 18.5t35 7t33.5 -8.5t26.5 -22t17.5 -30.5t6.5 -35z" />
    <glyph glyph-name="oacute" unicode="&#xf3;" horiz-adv-x="297" 
d="M221 333q-18 -9 -24 -10.5t-9 -4.5t-8.5 -11t-21.5 -29q1 1 7.5 6.5t15.5 13.5t20 17.5t20 17.5zM257 111q0 22 -4.5 43t-16.5 38t-33 27.5t-54 10.5q-25 0 -47 -4.5t-38 -16t-25 -32.5t-9 -54q0 -21 4 -42.5t15 -39t32 -28t56 -10.5q22 0 43.5 4.5t38.5 16.5t27.5 33
t10.5 54zM233 111q0 -17 -8 -32.5t-21.5 -27t-31 -18t-35.5 -6.5t-33.5 8t-26.5 21.5t-17 31t-6 35.5q0 16 8 31.5t21.5 27t30.5 18.5t35 7t33.5 -8.5t26.5 -22t17.5 -30.5t6.5 -35z" />
    <glyph glyph-name="ocircumflex" unicode="&#xf4;" horiz-adv-x="297" 
d="M209 290l-60 60l-48 -60l48 48l10 -10t10 -9t15 -11.5t25 -17.5zM257 111q0 22 -4.5 43t-16.5 38t-33 27.5t-54 10.5q-25 0 -47 -4.5t-38 -16t-25 -32.5t-9 -54q0 -21 4 -42.5t15 -39t32 -28t56 -10.5q22 0 43.5 4.5t38.5 16.5t27.5 33t10.5 54zM233 111q0 -17 -8 -32.5
t-21.5 -27t-31 -18t-35.5 -6.5t-33.5 8t-26.5 21.5t-17 31t-6 35.5q0 16 8 31.5t21.5 27t30.5 18.5t35 7t33.5 -8.5t26.5 -22t17.5 -30.5t6.5 -35z" />
    <glyph glyph-name="otilde" unicode="&#xf5;" horiz-adv-x="297" 
d="M209 297q-11 -1 -18 -4t-18 -3h-60q-4 0 -2 4t1 6.5t-8.5 1t-29.5 -11.5q12 2 25.5 1l13.5 -1h60q11 0 18.5 2t17.5 5zM257 111q0 22 -4.5 43t-16.5 38t-33 27.5t-54 10.5q-25 0 -47 -4.5t-38 -16t-25 -32.5t-9 -54q0 -21 4 -42.5t15 -39t32 -28t56 -10.5q22 0 43.5 4.5
t38.5 16.5t27.5 33t10.5 54zM233 111q0 -17 -8 -32.5t-21.5 -27t-31 -18t-35.5 -6.5t-33.5 8t-26.5 21.5t-17 31t-6 35.5q0 16 8 31.5t21.5 27t30.5 18.5t35 7t33.5 -8.5t26.5 -22t17.5 -30.5t6.5 -35z" />
    <glyph glyph-name="odieresis" unicode="&#xf6;" horiz-adv-x="297" 
d="M113 290v24h-35v-24h35zM209 290v12h-36v-12h36zM257 111q0 22 -4.5 43t-16.5 38t-33 27.5t-54 10.5q-25 0 -47 -4.5t-38 -16t-25 -32.5t-9 -54q0 -21 4 -42.5t15 -39t32 -28t56 -10.5q22 0 43.5 4.5t38.5 16.5t27.5 33t10.5 54zM233 111q0 -17 -8 -32.5t-21.5 -27
t-31 -18t-35.5 -6.5t-33.5 8t-26.5 21.5t-17 31t-6 35.5q0 16 8 31.5t21.5 27t30.5 18.5t35 7t33.5 -8.5t26.5 -22t17.5 -30.5t6.5 -35z" />
    <glyph glyph-name="oslash" unicode="&#xf8;" horiz-adv-x="286" 
d="M257 111q0 30 -3.5 46t-8.5 23.5t-10.5 11t-9.5 10t-5.5 19.5t1.5 40q-22 -16 -44.5 -23t-43.5 -11t-40 -8.5t-33 -14.5t-22 -29t-8 -52q0 -40 5.5 -55t12.5 -22t12.5 -14t5.5 -29l2.5 -11.5t2.5 -24.5q16 19 36.5 27t41 11.5t40 6.5t35 12.5t24.5 29.5t9 57zM161 207
q-3 -13 -13.5 -37t-22.5 -49t-22.5 -45.5t-13.5 -26.5q-12 12 -18.5 20t-10.5 15.5t-5 16t-1 22.5q0 15 5 26t13 20.5t19 18.5t22 19h48zM233 111q0 -18 -5 -30t-13.5 -20.5t-19.5 -16t-22 -17.5h-48q5 19 14.5 39.5t20.5 41.5t21 42.5t16 44.5q9 -14 15.5 -23.5t11 -18
t7 -18t2.5 -24.5z" />
    <glyph glyph-name="ugrave" unicode="&#xf9;" horiz-adv-x="320" 
d="M126 290l-48 48q7 -13 11 -19.5t8 -10.5t10.5 -7.5t18.5 -10.5zM281 3q-16 8 -25.5 12.5t-15 11t-7 18t-2 34t0.5 59t1 92.5h-59q15 -8 24.5 -10t14.5 -2.5t7 -2t2 -9.5q0 -7 -0.5 -24t-0.5 -47q0 -12 1 -32.5t-4.5 -40t-20.5 -33.5t-47 -14q-40 0 -58 16t-24 45t-4 68
t2 86h-60q28 -15 38.5 -35t12 -42t-1 -45.5t-1.5 -43.5t11 -36t37 -25q12 -3 18.5 0t10.5 8.5t5 10.5t2 5q-1 -1 -3.5 -5t14.5 -10t72 -9h60z" />
    <glyph glyph-name="uacute" unicode="&#xfa;" horiz-adv-x="320" 
d="M221 332q-11 -6 -16 -6q-4 0 -8.5 -3t-12.5 -12t-26 -33q12 10 29.5 25t33.5 29zM281 3q-16 8 -25.5 12.5t-15 11t-7 18t-2 34t0.5 59t1 92.5h-59q15 -8 24.5 -10t14.5 -2.5t7 -2t2 -9.5q0 -7 -0.5 -24t-0.5 -47q0 -12 1 -32.5t-4.5 -40t-20.5 -33.5t-47 -14
q-40 0 -58 16t-24 45t-4 68t2 86h-60q28 -15 38.5 -35t12 -42t-1 -45.5t-1.5 -43.5t11 -36t37 -25q12 -3 18.5 0t10.5 8.5t5 10.5t2 5q-1 -1 -3.5 -5t14.5 -10t72 -9h60z" />
    <glyph glyph-name="ucircumflex" unicode="&#xfb;" horiz-adv-x="320" 
d="M210 290l-60 60l-48 -60l48 48q3 -4 20 -18.5t40 -29.5zM281 3q-16 8 -25.5 12.5t-15 11t-7 18t-2 34t0.5 59t1 92.5h-59q15 -8 24.5 -10t14.5 -2.5t7 -2t2 -9.5q0 -7 -0.5 -24t-0.5 -47q0 -12 1 -32.5t-4.5 -40t-20.5 -33.5t-47 -14q-40 0 -58 16t-24 45t-4 68t2 86h-60
q28 -15 38.5 -35t12 -42t-1 -45.5t-1.5 -43.5t11 -36t37 -25q12 -3 18.5 0t10.5 8.5t5 10.5t2 5q-1 -1 -3.5 -5t14.5 -10t72 -9h60z" />
    <glyph glyph-name="udieresis" unicode="&#xfc;" horiz-adv-x="320" 
d="M210 290v12h-36v-12h36zM114 290v12h-36v-12h36zM281 3q-16 8 -25.5 12.5t-15 11t-7 18t-2 34t0.5 59t1 92.5h-59q15 -8 24.5 -10t14.5 -2.5t7 -2t2 -9.5q0 -7 -0.5 -24t-0.5 -47q0 -12 1 -32.5t-4.5 -40t-20.5 -33.5t-47 -14q-40 0 -58 16t-24 45t-4 68t2 86h-60
q28 -15 38.5 -35t12 -42t-1 -45.5t-1.5 -43.5t11 -36t37 -25q12 -3 18.5 0t10.5 8.5t5 10.5t2 5q-1 -1 -3.5 -5t14.5 -10t72 -9h60z" />
    <glyph glyph-name="OE" unicode="&#x152;" horiz-adv-x="771" 
d="M725 2v48q-1 0 -7 -9.5t-11 -17.5t-6 -9h-276v395h204v-48h12v96q-7 -3 -10 -8.5t-4.5 -11.5t-3 -10.5t-6.5 -5.5h-192v228h288v-48h12v60h-360q5 -3 8.5 -5.5t8.5 -5l12 -6t19 -7.5v-108q-27 18 -47.5 41t-40 43t-41.5 34t-51 14q-54 0 -92 -31t-63 -79t-36.5 -105
t-11.5 -109q0 -70 14 -131t39 -106.5t60.5 -71.5t77.5 -26q37 0 61 13.5t43.5 33.5t39 43t48.5 42v-120h-48v-12h360zM401 325q0 -51 -12.5 -104t-36 -96.5t-57 -71t-74.5 -27.5q-11 0 -38.5 14.5t-56 50t-50.5 95.5t-22 151q0 49 12.5 102t35.5 97t56.5 72.5t74.5 28.5
q1 0 17.5 -5.5t42 -23.5t49.5 -52t41.5 -91t17.5 -140z" />
    <glyph glyph-name="oe" unicode="&#x153;" horiz-adv-x="497" 
d="M448 147q-7 16 -14.5 31t-18.5 26.5t-26 18.5t-36 7q-13 0 -22.5 -0.5t-19.5 -4.5t-22.5 -14t-31.5 -28q-17 10 -28 18.5t-21.5 15t-24 10t-34.5 3.5t-42 -4t-38.5 -15t-28 -32.5t-10.5 -55.5q0 -21 4 -42.5t15 -39t32 -28t56 -10.5q23 0 35.5 1t22.5 5.5t22 14.5t33 27
q14 -11 24 -20t21 -15t24.5 -9.5t33.5 -3.5q16 0 25 -0.5t16.5 3t16 13.5t25.5 32q-6 -3 -15.5 -9t-20.5 -12t-23.5 -10.5t-23.5 -4.5q-20 0 -37 8.5t-30.5 22t-21 31t-7.5 34.5q0 28 9.5 48.5t22.5 33.5t27.5 19t24.5 6q18 0 30.5 -6t22 -14.5t17 -19t13.5 -19.5h-107v-12
h131zM233 111q0 -18 -8 -33.5t-21.5 -27t-31 -17.5t-35.5 -6t-33.5 8t-26.5 21.5t-17 30.5t-6 36q0 38 28.5 60.5t66.5 22.5q18 0 33.5 -8t27 -21t17.5 -30.5t6 -35.5z" />
    <glyph glyph-name="tilde" unicode="&#x2dc;" horiz-adv-x="377" 
d="M324 637q-23 11 -41.5 15.5t-32 0t-21 -20t-7.5 -43.5v-362h-132v277q9 12 11 19.5t4.5 11t9 4.5t23.5 1l11.5 1.5t30.5 -1.5q-37 19 -58.5 17t-31.5 -17.5t-12 -42.5t-1 -58.5t3 -65t-0.5 -63t-12.5 -52t-32 -31.5q2 -9 6.5 -12.5t10.5 -5t12.5 -2t13.5 -4.5v-505h-48
v-12h108q-8 4 -9.5 6t-4 3.5t-9.5 4.5t-25 10v505h132v-349h-48v-12h108q-5 3 -8.5 5.5t-8 5t-11.5 5.5t-20 8v337h48q-13 8 -21.5 12.5t-26.5 11.5v338q0 25 9 42.5t39 17.5l11.5 1.5t30.5 -1.5z" />
    <glyph glyph-name="endash" unicode="&#x2013;" horiz-adv-x="206" 
d="M162 167v13h-132v-13h132z" />
    <glyph glyph-name="emdash" unicode="&#x2014;" horiz-adv-x="297" 
d="M257 171v12h-227v-12h227z" />
    <glyph glyph-name="quoteleft" unicode="&#x2018;" horiz-adv-x="120" 
d="M101 518v35l-8.5 -6t-14.5 -4t-4.5 19t21.5 63q-3 -4 -5.5 -6.5t-6.5 -8t-10.5 -15.5t-18.5 -30v-47h12h35z" />
    <glyph glyph-name="quoteright" unicode="&#x2019;" horiz-adv-x="126" 
d="M89 577v48h-47q11 -20 17.5 -29.5t7.5 -18.5t-4 -21.5t-16 -37.5q6 7 10 12t8.5 11t10 14.5t13.5 21.5z" />
    <glyph glyph-name="quotedblleft" unicode="&#x201c;" horiz-adv-x="229" 
d="M182 525q-14 25 -13 32t6.5 6t6.5 -2q0 3 -4 0.5t-9.5 -5t-10 -3t-5 6.5t4.5 23.5t19 48.5q-2 -1 -10.5 -12t-31.5 -47v-48h47zM87 525q-12 21 -18 33t-6 21q0 10 5 21t14 32q-7 -8 -9.5 -10t-5.5 -6t-9 -12.5t-19 -30.5v-48h48z" />
    <glyph glyph-name="quotedblright" unicode="&#x201d;" horiz-adv-x="229" 
d="M185 577v48h-48q12 -22 18 -33.5t6 -21.5q0 -9 -5 -20t-14 -32q7 8 9.5 10t5.5 5.5t8.5 12.5t19.5 31zM89 577v48h-47q14 -25 13 -32t-6.5 -6t-6.5 2q0 -3 4 -0.5t9.5 5t9.5 2.5q5 0 5.5 -7t-4.5 -23.5t-19 -47.5q2 1 10.5 12t31.5 47z" />
    <glyph glyph-name="dagger" unicode="&#x2020;" horiz-adv-x="171" 
d="M131 601q-16 10 -23 13.5t-10 7.5t-5.5 12t-9.5 27q-13 -33 -15 -42t-3.5 -8t-6.5 5t-23 -3q21 -14 30.5 -26t12 -30t1.5 -46t-1 -72q11 39 10 64.5t-1.5 43t7.5 29.5t37 25z" />
    <glyph glyph-name="daggerdbl" unicode="&#x2021;" horiz-adv-x="526" 
d="M472 75q0 34 -10 51.5t-29 25t-45 7.5h-59v107q24 0 49.5 -0.5t46.5 5t34 20.5t13 47q0 12 -2 26.5t-9.5 27.5t-22 21.5t-38.5 8.5q-35 0 -52.5 -10t-24 -29t-6.5 -46v-59h-108q0 21 1 46t-4 47t-20.5 36.5t-48.5 14.5q-16 0 -31 -2.5t-26.5 -10.5t-18.5 -22t-7 -37
q0 -37 11 -55t30.5 -24.5t45.5 -5.5t56 1v-107q-21 0 -46 1t-46.5 -4t-36 -20.5t-14.5 -48.5q0 -14 2 -29t9.5 -27t21.5 -20t38 -8q35 0 52.5 10.5t24.5 29.5t7 45v59h108q0 -19 -1 -44t4 -47t20 -37.5t48 -15.5q34 0 59 15t25 57zM185 290h-83q-17 23 -19 34.5t2.5 16.5
t10.5 6t6 3l-8.5 7.5t-11 16.5t7.5 16.5t47 7.5q8 0 12 -2t8 -3.5t10 -1t18 6.5v-108zM448 290h-107v84q25 17 33.5 19t10.5 -2t3.5 -10.5t11.5 -6.5q20 0 30 0.5t14 -2t4 -10.5v-24q0 -15 -2 -20.5t-3 -8t-0.5 -6t5.5 -13.5zM305 171h-84v83h84v-83zM185 51
q-25 -17 -34 -19t-11.5 2t-4 10.5t-10.5 6.5l-7.5 -8.5t-16 -11t-16 7.5t-7.5 48q0 7 2 10.5t3.5 7.5t0.5 10.5t-6 19.5h107v-84zM424 75l8.5 -7.5t11 -16.5t-8 -16.5t-47.5 -7.5q-16 0 -20.5 2t-6.5 3.5t-5 1t-15 -6.5v108h83q14 -21 16 -32.5t-1.5 -16.5t-9 -7t-5.5 -4z
" />
    <glyph glyph-name="bullet" unicode="&#x2022;" horiz-adv-x="246" 
d="M209 134q0 18 -4.5 35.5t-14.5 31t-26 21.5t-38 8q-18 0 -35.5 -4.5t-31 -14t-21.5 -25.5t-8 -40q0 -18 4 -35.5t14 -31t26 -21.5t40 -8q18 0 35 4t30.5 14t21.5 26t8 40z" />
    <glyph glyph-name="ellipsis" unicode="&#x2026;" horiz-adv-x="440" 
d="M377 14v12h-36v-12h36zM233 14v12h-36v-12h36zM90 14v12h-36v-12h36z" />
    <glyph glyph-name="guilsinglleft" unicode="&#x2039;" horiz-adv-x="269" 
d="M233 2l-12 24l-143 144q21 36 42.5 57t40.5 38t34.5 35t25.5 49l-167 -167q8 -14 28 -37.5t45.5 -49.5t53.5 -51t52 -42z" />
    <glyph glyph-name="guilsinglright" unicode="&#x203a;" horiz-adv-x="269" 
d="M233 170v12l-167 155h-12l155 -155q-17 -26 -35.5 -46.5t-36.5 -39.5t-33.5 -38.5t-25.5 -43.5z" />
    <glyph glyph-name="trademark" unicode="&#x2122;" horiz-adv-x="349" 
d="M138 613h-108q21 -11 31.5 -15.5t14 -12t3 -23.5t-0.5 -51q7 24 9 38.5t2 22.5q0 9 1 13t5 7.5t14 7.5t29 13zM317 505v96h-12l-47 -48l-60 60v-108h12v48q19 -3 24.5 -5t10 -2.5t16 1t44.5 6.5v-48h12z" />
    <glyph glyph-name="DC1" unicode="&#xe000;" horiz-adv-x="509" 
d="M472 75q0 34 -10 51.5t-29 25t-45 7.5h-59v107q24 0 49.5 -0.5t46.5 5t34 20.5t13 47q0 12 -2 26.5t-9.5 27.5t-22 21.5t-38.5 8.5q-35 0 -52.5 -10t-24 -29t-6.5 -46v-59h-108q0 21 1 46t-4 47t-20.5 36.5t-48.5 14.5q-16 0 -31 -2.5t-26.5 -10.5t-18.5 -22t-7 -37
q0 -37 11 -55t30.5 -24.5t45.5 -5.5t56 1v-107q-21 0 -46 1t-46.5 -4t-36 -20.5t-14.5 -48.5q0 -14 2 -29t9.5 -27t21.5 -20t38 -8q35 0 52.5 10.5t24.5 29.5t7 45v59h108q0 -19 -1 -44t4 -47t20 -37.5t48 -15.5q34 0 59 15t25 57zM185 290h-83q-17 23 -19 34.5t2.5 16.5
t10.5 6t6 3l-8.5 7.5t-11 16.5t7.5 16.5t47 7.5q8 0 12 -2t8 -3.5t10 -1t18 6.5v-108zM448 290h-107v84q25 17 33.5 19t10.5 -2t3.5 -10.5t11.5 -6.5q20 0 30 0.5t14 -2t4 -10.5v-24q0 -15 -2 -20.5t-3 -8t-0.5 -6t5.5 -13.5zM305 171h-84v83h84v-83zM185 51
q-25 -17 -34 -19t-11.5 2t-4 10.5t-10.5 6.5l-7.5 -8.5t-16 -11t-16 7.5t-7.5 48q0 7 2 10.5t3.5 7.5t0.5 10.5t-6 19.5h107v-84zM424 75l8.5 -7.5t11 -16.5t-8 -16.5t-47.5 -7.5q-16 0 -20.5 2t-6.5 3.5t-5 1t-15 -6.5v108h83q14 -21 16 -32.5t-1.5 -16.5t-9 -7t-5.5 -4z
" />
    <glyph glyph-name="DC2" unicode="&#xe001;" horiz-adv-x="509" 
d="M472 374q-6 -5 -9.5 -7t-6.5 -2t-7 2.5t-13 6.5l-287 -287q-17 17 -41.5 42t-53.5 54v-84l95 -96q94 95 154.5 155t96 96t51 53.5t19.5 27.5t2.5 17t-0.5 22z" />
    <glyph glyph-name="DC3" unicode="&#xe002;" horiz-adv-x="406" 
d="M389 182l-180 179l-179 -179l179 -180z" />
    <glyph glyph-name="DC4" unicode="&#xe003;" horiz-adv-x="549" 
d="M387 518h-47q-25 -15 -39.5 -22t-21.5 -14.5t-9 -20t-2 -39.5q0 -3 -1.5 -6t-2 -9t0 -15t3.5 -23q29 43 62 77.5t57 71.5zM483 112q0 18 -13 28t-29 19.5t-29 22.5t-13 37q0 41 24.5 61.5t59.5 34.5q-14 19 -23.5 31t-20.5 18t-25.5 8t-38.5 2q-29 0 -41.5 0.5
t-19.5 -3.5t-14 -13.5t-26 -30.5q-14 13 -21 22.5t-14.5 14.5t-19 7.5t-34.5 2.5t-48.5 -4.5t-46.5 -20t-34.5 -46.5t-13.5 -84q0 -32 6 -69.5t23 -69.5t47 -53.5t79 -21.5q17 0 29.5 4t21.5 10t15 12t11 10q9 -7 15 -13.5t14 -11.5t19 -8t29 -3q21 0 44 8t42.5 22t32.5 34
t13 43z" />
    <glyph glyph-name="notequal" unicode="&#xe004;" horiz-adv-x="251" 
d="M203 122q-12 6 -21.5 7.5t-21.5 3t-28 4t-42 9.5l19.5 19.5t17.5 16t25.5 19.5t44.5 29l-1.5 11t-1.5 25l1.5 -5.5t-11 -12.5t-46 -12.5t-103.5 -5.5q13 -7 20.5 -9t16 -3t23 -3t43.5 -9q-32 -32 -47.5 -46t-24.5 -19t-16 -4.5t-20 -2.5q9 -6 10.5 -15.5t1.5 -20.5
q0 -2 2 2t16.5 8.5t47.5 9t95 4.5z" />
    <glyph glyph-name="nonbreakingspace" unicode="&#xe005;" horiz-adv-x="500" 
 />
    <glyph glyph-name="lozenge" unicode="&#xe006;" horiz-adv-x="417" 
d="M378 156l-168 168l-168 -168l168 -169zM342 156q-10 -7 -29 -24t-39.5 -37.5t-38 -40t-25.5 -31.5q-4 6 -18.5 23t-34 37.5t-41 40.5t-38.5 32q7 5 25.5 21t39 36t39.5 40.5t28 34.5q10 -16 29 -36t38.5 -39.5t37.5 -35t27 -21.5z" />
    <glyph glyph-name="apple" unicode="&#xe007;" horiz-adv-x="531" 
d="M387 518h-47q-25 -15 -39.5 -22t-21.5 -14.5t-9 -20t-2 -39.5q0 -3 -1.5 -6t-2 -9t0 -15t3.5 -23q29 43 62 77.5t57 71.5zM483 112q0 18 -13 28t-29 19.5t-29 22.5t-13 37q0 41 24.5 61.5t59.5 34.5q-14 19 -23.5 31t-20.5 18t-25.5 8t-38.5 2q-29 0 -41.5 0.5
t-19.5 -3.5t-14 -13.5t-26 -30.5q-14 13 -21 22.5t-14.5 14.5t-19 7.5t-34.5 2.5t-48.5 -4.5t-46.5 -20t-34.5 -46.5t-13.5 -84q0 -32 6 -69.5t23 -69.5t47 -53.5t79 -21.5q17 0 29.5 4t21.5 10t15 12t11 10q9 -7 15 -13.5t14 -11.5t19 -8t29 -3q21 0 44 8t42.5 22t32.5 34
t13 43z" />
  </font>
</defs>
</svg>
