<?xml version="1.0" standalone="no"?>
<!DOCTYPE svg PUBLIC "-//W3C//DTD SVG 1.1//EN" "http://www.w3.org/Graphics/SVG/1.1/DTD/svg11.dtd" >
<svg xmlns="http://www.w3.org/2000/svg" xmlns:xlink="http://www.w3.org/1999/xlink" version="1.1">
<metadata>
Created by FontForge 20170731 at Sat Feb  4 01:37:01 2012
 By Aleksey,,,
Copyright (c) 2011 Natanael Gama (exo@ndiscovered.com), with Reserved Font Name "Exo"
</metadata>
<defs>
<font id="Exo-Bold" horiz-adv-x="550" >
  <font-face 
    font-family="Exo"
    font-weight="700"
    font-stretch="normal"
    units-per-em="1000"
    panose-1="2 0 8 3 0 0 0 0 0 0"
    ascent="800"
    descent="-200"
    x-height="531"
    cap-height="732"
    bbox="-78 -286 1348 1002"
    underline-thickness="50"
    underline-position="-150"
    unicode-range="U+000D-FB06"
  />
<missing-glyph horiz-adv-x="709" 
d="M620 506l-252 -240l252 -241v481zM103 13h507l-253 243zM90 22l256 244l-256 241v-485zM611 518h-511l257 -242zM76 0v531h558v-531h-558z" />
    <glyph glyph-name="fi" unicode="fi" horiz-adv-x="627" 
d="M15 424v90l84 17v40q0 92 59 152q61 63 163 63q44 0 121.5 -8t106.5 -20v-84l-183 6q-73 2 -107 -40q-20 -26 -20 -75v-34l347 -10v-521h-140v424h-207v-424h-140v424h-84z" />
    <glyph glyph-name="fl" unicode="fl" horiz-adv-x="721" 
d="M15 424v90l84 17v45q0 210 197 210l298 -2v-573q0 -54 10 -74t36 -30q60 -21 67 -21v-86h-116q-72 0 -104.5 42.5t-32.5 146.5v490l-131 1q-29 0 -47 -9q-37 -17 -37 -95v-45h120v-107h-121v-424h-140v424h-83z" />
    <glyph glyph-name=".notdef" horiz-adv-x="709" 
d="M620 506l-252 -240l252 -241v481zM103 13h507l-253 243zM90 22l256 244l-256 241v-485zM611 518h-511l257 -242zM76 0v531h558v-531h-558z" />
    <glyph glyph-name=".notdef" horiz-adv-x="709" 
d="M620 506l-252 -240l252 -241v481zM103 13h507l-253 243zM90 22l256 244l-256 241v-485zM611 518h-511l257 -242zM76 0v531h558v-531h-558z" />
    <glyph glyph-name=".null" horiz-adv-x="0" 
 />
    <glyph glyph-name="uni000D" unicode="&#xd;" horiz-adv-x="759" 
 />
    <glyph glyph-name="space" unicode=" " horiz-adv-x="250" 
 />
    <glyph glyph-name="exclam" unicode="!" horiz-adv-x="273" 
d="M67 23v90q0 25 24 25h88q10 0 16.5 -7t6.5 -18v-90q0 -23 -23 -23h-88q-11 0 -17.5 6.5t-6.5 16.5zM65 731h141l-15 -535h-114z" />
    <glyph glyph-name="quotedbl" unicode="&#x22;" horiz-adv-x="444" 
d="M65 732h135v-67l-10 -134h-114l-11 134v67zM245 732h135v-67l-10 -134h-114l-11 134v67z" />
    <glyph glyph-name="numbersign" unicode="#" horiz-adv-x="721" 
d="M15 210l15 96h152l21 121h-154l16 96h155l37 209h96l-37 -209h124l36 209h96l-36 -209h171l-14 -96h-172l-21 -122h172l-13 -96h-179l-37 -209h-96l37 209l-124 1l-37 -210h-96l37 210h-149zM278 306l126 -1l21 122h-126z" />
    <glyph glyph-name="dollar" unicode="$" horiz-adv-x="570" 
d="M238 824h85v-87q93 -6 179 -28v-109q-143 9 -185.5 9.5t-46.5 0.5q-45 0 -66.5 -13t-21.5 -59v-36q0 -38 19.5 -54t60.5 -16h93q115 0 155 -91q19 -45 19 -103v-49q0 -116 -65 -160q-55 -37 -135 -37h-6v-82h-85v84q-92 5 -173 28v108q159 -9 233 -9q91 0 91 63v39
q0 34 -14.5 51.5t-52.5 17.5h-91q-49 0 -85 14.5t-55.5 35.5t-31.5 49q-17 44 -17 95v63q1 183 196 189v86z" />
    <glyph glyph-name="percent" unicode="%" horiz-adv-x="962" 
d="M32 480v122q0 66 30.5 98t104.5 32h101q71 0 101.5 -32t30.5 -98v-122q0 -67 -30.5 -99t-103.5 -32h-101q-72 0 -102.5 32t-30.5 99zM130 496q0 -27 10 -38t38 -11h74q40 0 47 21q3 10 3 28v89q0 29 -10.5 39t-37.5 10h-74q-29 0 -39.5 -10t-10.5 -39v-89zM208 0l447 732
h100l-443 -732h-104zM563 133v122q0 44 12 72q25 59 122 59h101q71 0 102 -32.5t31 -98.5v-122q0 -66 -31 -98t-104 -32h-101q-72 0 -102 32t-30 98zM661 150q0 -27 9.5 -38t38.5 -11h73q31 0 41 11t10 38v89q0 37 -21 45q-10 4 -28 4h-73q-29 0 -39.5 -10.5t-10.5 -38.5
v-89z" />
    <glyph glyph-name="ampersand" unicode="&#x26;" horiz-adv-x="679" 
d="M320 608q-67 0 -67 -32q0 -23 31 -66l169 -231l121 114l49 -59l-60 -107l-37 -44l136 -183h-164l-71 96l-65 -58q-49 -44 -124 -44q-39 0 -79 15q-58 21 -95.5 77t-37.5 116q0 94 84 167l69 61l-51 74q-33 47 -33 90q0 55 35.5 92.5t76.5 43.5q46 7 107 7t170 -27v-102
h-164zM197 284q-39 -33 -39 -64t18 -53.5t35.5 -32t28.5 -9.5h16q23 3 43 22l51 49l-101 134z" />
    <glyph glyph-name="quotesingle" unicode="'" horiz-adv-x="224" 
d="M42 732h141v-67l-10 -134h-120l-11 134v67z" />
    <glyph glyph-name="parenleft" unicode="(" horiz-adv-x="377" 
d="M76 132q-19 93 -19 176.5t9.5 149t25 116.5t34.5 98t37 80q39 70 60 96l9 12h131q-23 -35 -55 -100t-53.5 -124.5t-39.5 -145t-18 -156.5t9 -134.5t23.5 -115t32.5 -99t36 -82.5q36 -72 56 -100l9 -13h-131q-24 24 -57.5 79.5t-56.5 112.5t-42 150z" />
    <glyph glyph-name="parenright" unicode=")" horiz-adv-x="377" 
d="M163 151.5q18 88.5 18 154t-5.5 113t-15.5 89t-22 82t-26 75t-27.5 65.5t-26.5 54q-26 49 -37 67l-6 9h131q24 -29 57.5 -88.5t56.5 -117.5t42 -147.5t19 -172t-9.5 -151.5t-25 -121t-34.5 -98t-37 -77q-39 -64 -60 -87l-9 -10h-131q23 32 54.5 93.5t53.5 120.5t40 147.5
z" />
    <glyph glyph-name="asterisk" unicode="*" horiz-adv-x="427" 
d="M38 566v56l139 24l5 -85zM95 416l24 137l83 -21l-54 -133zM166 720l54 19l67 -122l-79 -33zM190 467l47 71l112 -90l-32 -45zM239 571l120 79l31 -47l-96 -97z" />
    <glyph glyph-name="plus" unicode="+" horiz-adv-x="483" 
d="M34 297v118h148v149h118v-149h150v-118h-150v-149h-118v149h-148z" />
    <glyph glyph-name="comma" unicode="," horiz-adv-x="261" 
d="M65 25v87q0 27 25 27h84q24 0 24 -27v-123q0 -31 -13.5 -50.5t-32.5 -24.5q-23 -7 -41 -7t-28 2l-13 3v48q13 0 21 5q10 6 10 21v14h-11q-11 0 -18 6.5t-7 18.5z" />
    <glyph glyph-name="hyphen" unicode="-" horiz-adv-x="354" 
d="M20 231v118h314v-118h-314z" />
    <glyph glyph-name="period" unicode="." horiz-adv-x="263" 
d="M65 23v90q0 25 24 25h86q25 0 25 -25v-90q0 -23 -25 -23h-86q-11 0 -17.5 6.5t-6.5 16.5z" />
    <glyph glyph-name="slash" unicode="/" horiz-adv-x="456" 
d="M15 -72l281 842h145l-281 -842h-145z" />
    <glyph glyph-name="zero" unicode="0" horiz-adv-x="630" 
d="M53 178v370q0 89 49.5 136.5t134.5 47.5h164q136 0 168 -110q9 -31 9 -68v-376q0 -87 -46.5 -132.5t-131.5 -45.5h-164q-86 0 -134.5 45t-48.5 133zM193 201q0 -72 75 -72h97q37 0 55 16t18 55v332q0 71 -68 71h-105q-41 0 -56.5 -21.5t-15.5 -49.5v-331z" />
    <glyph glyph-name="one" unicode="1" horiz-adv-x="371" 
d="M311 732v-732h-140v593l-141 -35v91l142 83h139z" />
    <glyph glyph-name="two" unicode="2" horiz-adv-x="588" 
d="M30 612v104q147 26 304 26q111 0 165 -67q52 -64 52 -160q0 -167 -276 -386h276v-129h-513v123q80 54 152.5 116t116 106t73.5 90.5t30 79.5t-12 55q-24 42 -108 42h-260z" />
    <glyph glyph-name="three" unicode="3" horiz-adv-x="583" 
d="M339 -7h-58h-19t-33.5 0.5t-37.5 1t-33 2t-35.5 3.5t-31.5 5q-30 5 -62 16l1 102h254q57 0 79.5 12t22.5 56v32q0 42 -23.5 57.5t-72.5 17.5l-199 8v112l199 10q53 3 75.5 18.5t22.5 53.5v36q0 27 -14.5 43t-34.5 21t-49 5h-267v101q82 29 259 29q33 0 64 -1
q83 -2 132 -49t49 -127v-52q0 -114 -76 -142q76 -32 76 -150v-42q0 -87 -48 -133t-140 -46z" />
    <glyph glyph-name="four" unicode="4" horiz-adv-x="620" 
d="M392 292v167l32 77h108v-244h74v-108l-74 -24v-158h-140v158h-343l-34 64l261 508h154l-219 -440h181z" />
    <glyph glyph-name="five" unicode="5" horiz-adv-x="596" 
d="M208 438q32 26 107 26q27 0 77.5 -2t88.5 -27q72 -46 72 -155v-103q0 -111 -85 -157q-45 -24 -101 -24q-102 0 -158.5 4t-150.5 20v110h282q43 0 58 20.5t15 50.5v67q0 52 -31 65q-14 6 -36 6h-94q-28 0 -44.5 -14.5t-16.5 -44.5h-132l22 452h445v-129h-310z" />
    <glyph glyph-name="six" unicode="6" horiz-adv-x="608" 
d="M50 384q0 77 9.5 137.5t25.5 99t39 63.5q40 46 98 51q38 4 79 4q109 0 239 -24v-106h-250q-45 0 -67 -31q-22 -32 -26 -64q-7 -47 -7 -90q82 20 202 20q103 0 139 -50q33 -44 33 -120v-110q0 -165 -177 -165h-143q-99 0 -141 75q-53 93 -53 310zM190 321q0 -113 24 -154
q24 -39 71 -39h76q34 0 49 12.5t15 49.5v67q0 52 -34 61q-11 3 -27 3h-174z" />
    <glyph glyph-name="seven" unicode="7" horiz-adv-x="554" 
d="M23 603v129h471l38 -64l-245 -668h-153l225 603h-336z" />
    <glyph glyph-name="eight" unicode="8" horiz-adv-x="624" 
d="M57 168v73q0 45 21 74.5t58 38.5q-50 21 -66 63q-13 34 -13 82v65q0 100 55 138q50 35 132 35h151q88 0 130.5 -41t42.5 -133v-53q1 -27 -9 -55q-18 -53 -66 -61q22 -4 38 -20t24 -37q14 -41 13 -80v-86q0 -118 -77 -153q-39 -18 -97 -18h-150q-158 0 -182 111
q-5 26 -5 57zM197 183q0 -41 30 -53q16 -6 42 -6h93q66 0 66 59v70q0 30 -16 46t-47 16h-101q-67 0 -67 -62v-70zM197 494q0 -62 67 -62h100q41 0 54 19q10 16 10 43v47q0 42 -16 57.5t-49 15.5h-94q-39 0 -55.5 -13.5t-16.5 -59.5v-47z" />
    <glyph glyph-name="nine" unicode="9" horiz-adv-x="608" 
d="M306 -4q-126 0 -236 23v106h250q45 0 66 31q22 32 27 64q7 47 7 91q-82 -21 -202 -21q-103 0 -140 50q-32 45 -32 121v109q0 165 177 165h143q37 0 65 -9.5t53.5 -35.5t41.5 -68q34 -92 34 -272q0 -216 -74 -300q-41 -46 -98 -51q-40 -3 -82 -3zM185 477q0 -37 14 -50.5
t47 -13.5h174q0 113 -25 155q-23 38 -70 38h-77q-33 0 -48 -12.5t-15 -49.5v-67z" />
    <glyph glyph-name="colon" unicode=":" horiz-adv-x="263" 
d="M65 23v90q0 25 24 25h86q25 0 25 -25v-90q0 -23 -25 -23h-86q-11 0 -17.5 6.5t-6.5 16.5zM65 416v90q0 25 24 25h86q25 0 25 -25v-90q0 -23 -25 -23h-86q-15 0 -19.5 8.5t-4.5 14.5z" />
    <glyph glyph-name="semicolon" unicode=";" horiz-adv-x="264" 
d="M65 25v87q0 12 6.5 19.5t18.5 7.5h84q24 0 24 -27v-123q0 -31 -13.5 -50.5t-32.5 -24.5q-23 -7 -41 -7t-28 2l-13 3v48q13 0 21 5q10 6 10 21v14h-11q-11 0 -18 7t-7 18zM66 417v90q0 25 24 25h86q25 0 25 -25v-90q0 -23 -25 -23h-86q-15 0 -19.5 8t-4.5 15z" />
    <glyph glyph-name="less" unicode="&#x3c;" horiz-adv-x="450" 
d="M38 288v129l375 145v-130l-226 -79l226 -88v-131z" />
    <glyph glyph-name="equal" unicode="=" horiz-adv-x="467" 
d="M20 184v118h427v-118h-427zM20 399v118h427v-118h-427z" />
    <glyph glyph-name="greater" unicode="&#x3e;" horiz-adv-x="450" 
d="M38 134v131l226 88l-226 79v130l375 -145v-129z" />
    <glyph glyph-name="question" unicode="?" horiz-adv-x="542" 
d="M15 714q135 26 229 26q25 0 53 -1q111 0 165 -61q51 -57 51 -135v-73q0 -187 -190 -187q-18 0 -37 2v-90h-113v195h114q87 4 87 82v53q0 44 -26.5 64t-83.5 20h-249v105zM186 138h87q24 0 24 -25v-90q0 -23 -24 -23h-87q-11 0 -17.5 6.5t-6.5 16.5v90q0 25 24 25z" />
    <glyph glyph-name="at" unicode="@" horiz-adv-x="868" 
d="M256 512h192q97 0 138 -42q37 -38 37 -114v-356h-90l-20 59l-7.5 -7t-21.5 -17t-32 -20q-43 -24 -98.5 -24t-89.5 39.5t-34 94.5v42q0 67 38 102.5t108 35.5h135q1 21 1 32t-1 11q0 31 -14 41.5t-48 10.5h-193q-70 0 -86 -43q-8 -19 -8 -47v-288q0 -85 62 -104
q15 -4 32 -4h333q58 0 80.5 26.5t22.5 81.5v457q0 56 -28 86.5t-75 30.5h-404v85q46 10 130 18.5t126 8.5h48h100q88 0 149 -51q66 -56 66 -178v-457q0 -111 -51.5 -166.5t-158.5 -55.5h-338q-92 0 -149 51.5t-57 159.5v304q0 145 119 184q38 13 87 13zM394 103h1.5h1.5
q68 0 114 44v79l-119 -11q-44 -4 -44 -46v-13.5v-13.5q0 -16 12.5 -27.5t33.5 -11.5z" />
    <glyph glyph-name="A" unicode="A" horiz-adv-x="692" 
d="M34 0l247 732h159l238 -732h-149l-52 162h-240l-53 -162h-150zM274 286h170l-82 262z" />
    <glyph glyph-name="B" unicode="B" horiz-adv-x="604" 
d="M61 0v732h302q106 0 156 -54.5t50 -141.5q0 -56 -25 -101.5t-75 -54.5q48 -9 80 -53.5t32 -111.5q0 -105 -51.5 -160t-164.5 -55h-304zM441 221q0 45 -20 74t-61 29h-159v-200l159 -1q81 0 81 98zM201 442h153q38 0 57.5 21.5t19.5 64.5t-22 61.5t-55 18.5h-153v-166z
" />
    <glyph glyph-name="C" unicode="C" horiz-adv-x="571" 
d="M92 642q40 66 111 87q39 11 88 11q143 0 255 -33v-110l-7.5 1t-20 2t-29.5 2.5t-37.5 3t-40.5 2.5q-47 3 -84 3t-57.5 -4.5t-39.5 -18t-28 -40.5q-20 -58 -20 -185t29.5 -183.5t112.5 -56.5q94 0 190 6l32 2v-109q-90 -28 -232 -28h-23q-134 1 -191.5 96t-57.5 282.5
t50 269.5z" />
    <glyph glyph-name="D" unicode="D" horiz-adv-x="662" 
d="M61 0v732h311q254 0 254 -369q0 -228 -109 -316q-58 -47 -145 -47h-311zM486 364q0 182 -58 225q-26 19 -67 19h-160v-483h160q125 0 125 239z" />
    <glyph glyph-name="E" unicode="E" horiz-adv-x="567" 
d="M112 705q25 15 49.5 21t39 6t144.5 -3.5t194 -12.5v-116h-289q-37 0 -46 -18q-6 -14 -6 -38v-114l296 -10v-116l-296 -9v-114q0 -38 21 -46q15 -6 41 -6h279v-115q-50 -7 -247 -14l-65 -3h-18.5t-27.5 1.5t-41 10.5t-42 24q-40 36 -40 111v436q0 91 54 125z" />
    <glyph glyph-name="F" unicode="F" horiz-adv-x="567" 
d="M58 0v578q0 119 101 147q25 7 40 7t145.5 -3.5t194.5 -12.5v-116h-289q-37 0 -46 -18q-6 -14 -6 -38v-114l296 -10v-116l-296 -9v-295h-140z" />
    <glyph glyph-name="G" unicode="G" horiz-adv-x="614" 
d="M46.5 249.5q-4.5 51.5 -4.5 120t5.5 121t21 101t42.5 80.5q57 68 170 68q85 0 144.5 -6.5t136.5 -25.5v-109q-1 0 -16.5 2t-41 4.5t-55.5 4.5q-72 6 -135 6q-80 0 -106 -53.5t-26 -196.5t24 -191q25 -49 102 -49q30 0 61.5 11.5t47.5 22.5l16 12v131h-102v89
q59 24 174 24q32 0 68 -2v-414h-100l-38 49q-35 -33 -75 -43q-109 -27 -184 6q-44 19 -69.5 51t-40.5 83.5t-19.5 103z" />
    <glyph glyph-name="H" unicode="H" horiz-adv-x="636" 
d="M61 0v732h140v-314h251v314h140v-732h-140v290h-251v-290h-140z" />
    <glyph glyph-name="I" unicode="I" horiz-adv-x="245" 
d="M61 0v732h140v-732h-140z" />
    <glyph glyph-name="J" unicode="J" horiz-adv-x="356" 
d="M259 18q-38 -23 -113.5 -23t-118.5 28l2 109q34 -3 51.5 -3t25.5 1q65 2 66 96v506h140v-567q0 -31 -2.5 -53t-15 -50.5t-35.5 -43.5z" />
    <glyph glyph-name="K" unicode="K" horiz-adv-x="628" 
d="M61 0v732h134v-306h59l186 306h163l-224 -367l224 -365h-163l-186 302h-58v-302h-135z" />
    <glyph glyph-name="L" unicode="L" horiz-adv-x="539" 
d="M61 142v590h140v-551q0 -38 21 -46q15 -6 41 -6h251v-129h-301q-152 0 -152 142z" />
    <glyph glyph-name="M" unicode="M" horiz-adv-x="847" 
d="M42 0l64 732h195l122 -500l121 500h194l68 -732h-138l-48 489l-118 -489h-156l-123 489l-43 -489h-138z" />
    <glyph glyph-name="N" unicode="N" horiz-adv-x="678" 
d="M61 0v732h142l290 -473v473h140v-732h-140l-291 468v-468h-141z" />
    <glyph glyph-name="O" unicode="O" horiz-adv-x="671" 
d="M54 261q-4 45 -4 108.5t7.5 120t20.5 96t35 67.5t44.5 44t55.5 25q52 15 109.5 15t84 -2t56 -8.5t50.5 -18.5t42.5 -30.5t35.5 -47t25 -65.5q22 -74 22 -173t-7.5 -152.5t-19.5 -92t-32.5 -66t-43 -44t-54.5 -25.5q-74 -22 -195 -14q-62 3 -90 15t-48.5 25.5t-34.5 33
t-27 47t-20.5 62.5t-11.5 80zM193 448q-3 -37 -3 -93t4 -95.5t13.5 -67.5t28.5 -42q34 -25 108 -25q70 0 105 26q49 37 49 210q0 117 -12.5 155t-23 54t-29.5 25q-31 13 -73 13t-58.5 -1.5t-35 -6.5t-29 -15.5t-21 -28.5t-15.5 -44.5t-8 -63.5z" />
    <glyph glyph-name="P" unicode="P" horiz-adv-x="602" 
d="M51 0v732h315q109 0 158 -61q45 -55 45 -165q0 -64 -13.5 -110t-33 -70.5t-49.5 -37.5q-39 -18 -87 -18q-35 0 -113 9t-82 11v-290h-140zM355 608h-164v-214h164q24 0 39 9q34 20 34 102q-1 103 -73 103z" />
    <glyph glyph-name="Q" unicode="Q" horiz-adv-x="671" 
d="M50 358q0 59 4.5 106t12.5 83t21 64t27.5 48t35.5 34t40.5 22.5t46.5 13.5q44 8 92.5 8t75 -2t56 -8.5t51 -18.5t42.5 -30.5t35 -47t26 -65.5q22 -74 22 -204q0 -167 -46 -257q-24 -47 -76 -77q-53 -30 -173 -31q-122 0 -172 28q-54 29 -76 75q-32 64 -38.5 132t-6.5 127
zM193 448q-3 -37 -3 -93t4 -95.5t13.5 -67.5t27.5 -42q35 -25 102.5 -25t99 18t46.5 68.5t15 128.5t-3.5 118.5t-12.5 68t-19.5 43.5t-30.5 25q-30 13 -72.5 13t-59 -1.5t-35 -6.5t-28.5 -15.5t-20.5 -28.5t-15.5 -44.5t-8 -63.5zM542 -174q-36 -6 -66.5 -6t-61 9.5t-55 26
t-41 45.5t-18.5 66h79q24 -40 85 -40q33 0 78 12v-113z" />
    <glyph glyph-name="R" unicode="R" horiz-adv-x="607" 
d="M371 732q96 0 143 -49q57 -58 57 -179q0 -141 -59 -187q-19 -15 -29 -19t-29 -10l139 -288h-158l-121 277l-123 14v-291h-140v732h320zM192 401h166q39 0 55.5 20t16.5 81t-18 83.5t-54 22.5h-166v-207z" />
    <glyph glyph-name="S" unicode="S" horiz-adv-x="590" 
d="M50 486v63q0 105 57 149q52 39 141 40h50.5t113 -8t119.5 -21v-110q-114 10 -181.5 10h-72.5q-45 0 -66 -12t-21 -59v-36q0 -42 17 -56t61 -14h116q114 0 153 -91q20 -46 20 -103v-49q0 -134 -89 -175q-46 -22 -113 -22q-181 0 -283 30v110q110 -11 192 -11t95.5 2
t27.5 8q30 13 30 53v39q0 52 -33 64q-13 5 -33 5h-112q-189 0 -189 194z" />
    <glyph glyph-name="T" unicode="T" horiz-adv-x="593" 
d="M31 603v129h541v-129h-203v-603h-140v603h-198z" />
    <glyph glyph-name="U" unicode="U" horiz-adv-x="664" 
d="M343 -5h-14q-120 0 -160 25q-18 12 -42 35.5t-36 57.5q-30 84 -30 207v412h140v-412q0 -96 19 -141q17 -40 67 -51q22 -4 63.5 -4t69.5 15q59 32 59 181v412h141v-412q0 -157 -46 -228q-15 -25 -29.5 -40.5t-37 -27t-38.5 -17t-43 -8.5q-34 -4 -83 -4z" />
    <glyph glyph-name="V" unicode="V" horiz-adv-x="685" 
d="M34 732h149l163 -548l172 548h149l-241 -732h-162z" />
    <glyph glyph-name="W" unicode="W" horiz-adv-x="992" 
d="M34 732h149l162 -543l132 543h150l-51 -189l116 -357l134 546h148l-201 -732h-162l-99 300l-86 -300h-162z" />
    <glyph glyph-name="X" unicode="X" horiz-adv-x="641" 
d="M34 732h155l138 -250l141 250h155l-220 -365l215 -367h-155l-136 246l-135 -246h-155l215 367z" />
    <glyph glyph-name="Y" unicode="Y" horiz-adv-x="656" 
d="M397 0h-140v227l-223 505h152l143 -351l157 351h152l-241 -505v-227z" />
    <glyph glyph-name="Z" unicode="Z" horiz-adv-x="556" 
d="M27 0v129l335 474h-335v129h504v-129l-319 -474h319v-129h-504z" />
    <glyph glyph-name="bracketleft" unicode="[" horiz-adv-x="333" 
d="M65 -10v664q0 79 35 131q39 57 134 57h85v-118h-52q-62 0 -62 -87v-642q0 -87 62 -87h52v-118h-85q-43 0 -74.5 13.5t-49 33t-28.5 48.5q-17 45 -17 105z" />
    <glyph glyph-name="backslash" unicode="\" horiz-adv-x="456" 
d="M15 770h145l281 -842h-145z" />
    <glyph glyph-name="bracketright" unicode="]" horiz-adv-x="333" 
d="M15 -92h53q62 0 62 87v642q0 87 -62 87h-53v118h86q126 0 158 -108q11 -35 11 -80v-664q0 -86 -30 -131q-45 -69 -139 -69h-86v118z" />
    <glyph glyph-name="asciicircum" unicode="^" horiz-adv-x="384" 
d="M38 531l108 135h104l96 -135h-93l-58 60l-63 -60h-94z" />
    <glyph glyph-name="underscore" unicode="_" horiz-adv-x="674" 
d="M20 -1v118h634v-118h-634z" />
    <glyph glyph-name="grave" unicode="`" horiz-adv-x="243" 
d="M15 670h123l90 -139h-91z" />
    <glyph glyph-name="a" unicode="a" horiz-adv-x="519" 
d="M48 505q91 36 243 36q92 0 141.5 -38.5t49.5 -132.5v-370h-111l-29 58q-4 -7 -25.5 -21.5t-59.5 -28.5t-73 -14q-74 0 -114 42.5t-40 98.5v50q0 64 38 105t117 40.5t118 -0.5t39 1v24.5v9.5q0 40 -17 52.5t-68 12.5t-209 -11v86zM170 155q0 -30 13 -39.5t38 -9.5
t55.5 10.5t47.5 20.5l18 11v97l-129 -10q-43 -4 -43 -54v-26z" />
    <glyph glyph-name="b" unicode="b" horiz-adv-x="556" 
d="M185 785v-281q75 35 161 35q73 0 110 -35q39 -36 51 -96q12 -59 12 -145q0 -129 -40 -199t-133 -70q-43 0 -87 18t-73 42l-25 -54h-115v785h139zM310 114q35 0 52 34.5t17 110t-8.5 111.5t-22.5 47.5t-38 11.5q-73 0 -124 -20v-263q51 -32 124 -32z" />
    <glyph glyph-name="c" unicode="c" horiz-adv-x="494" 
d="M38 266q0 80 12.5 134.5t37 83t54.5 40.5t71 12q147 0 244 -31v-87q-95 6 -151.5 6t-68 -2t-25.5 -10t-20 -25q-14 -41 -14 -116.5t9.5 -108.5t28 -43.5t58.5 -10.5q81 0 163 7l27 2v-88q-46 -24 -90 -28q-65 -6 -113 -6h-6h-42q-79 0 -124 53q-51 59 -51 218z" />
    <glyph glyph-name="d" unicode="d" horiz-adv-x="556" 
d="M53 420q15 49 34 71q41 48 124 48q36 0 81 -9.5t80 -25.5v281h140v-785h-116l-24 54q-29 -24 -73 -42t-88 -18q-93 0 -133 68.5t-40 188.5t15 169zM186.5 370q-8.5 -36 -8.5 -111.5t17 -110t53 -34.5q73 0 124 32v263q-52 20 -124 20q-25 0 -39 -11.5t-22.5 -47.5z" />
    <glyph glyph-name="e" unicode="e" horiz-adv-x="525" 
d="M181 529q35 6 80 6t70 -1.5t50.5 -6t41.5 -13t31 -23t23 -34.5q18 -45 18 -103.5t-17 -88.5q-33 -57 -131 -57h-169q0 -35 6 -56t22 -30.5t33.5 -12t95.5 -2.5t150 11v-95q-45 -17 -90.5 -21t-62.5 -5t-42 -1q-33 -1 -77 -1q-99 0 -137 62t-38 201.5t30.5 198t112.5 72.5
zM355 349q0 50 -13.5 64.5t-54.5 14.5t-56.5 -2.5t-30 -14t-18.5 -34.5t-4 -43.5v-24.5h133q44 0 44 40z" />
    <glyph glyph-name="f" unicode="f" horiz-adv-x="403" 
d="M15 424v90l83 17v99q0 74 36 115t116 41t139 -24v-83l-96 1q-46 1 -52 -30q-3 -17 -3 -53v-66h121v-107h-121v-424h-140v424h-83z" />
    <glyph glyph-name="g" unicode="g" horiz-adv-x="560" 
d="M202 149q-40 0 -40 -23q0 -16 10.5 -21.5t29.5 -5.5h163q74 0 115.5 -39.5t41.5 -118.5v-57q0 -116 -99 -145q-29 -9 -67 -9h-150q-117 0 -153 86q-13 29 -13 68v67l47 49q-23 12 -37.5 39t-14.5 62t15.5 60.5t46.5 35.5q-58 37 -58 147q0 189 184 189h323v-84l-59 -18
q0 -1 2.5 -6.5t3.5 -8l3 -7.5t3 -9l2.5 -10t2 -12t1.5 -14q2 -14 2 -38t-4.5 -47t-17 -47.5t-31.5 -41.5q-45 -41 -129 -41h-123zM181 -99q0 -36 15.5 -47.5t47.5 -11.5h82q35 0 46 14.5t11 41.5v39q0 24 -12 36t-40 13h-108l-42 3v-88zM179 344q0 -82 64 -82h56q68 0 68 78
q0 57 -29 73q-15 8 -40 8h-53q-39 0 -52.5 -21t-13.5 -56z" />
    <glyph glyph-name="h" unicode="h" 
d="M46 0v783h139v-309q72 52 116 61q24 5 53 5q159 0 159 -186v-354h-140v356q0 72 -59 72q-40 0 -68 -10.5t-60 -35.5v-382h-140z" />
    <glyph glyph-name="i" unicode="i" horiz-adv-x="227" 
d="M38 610v88q0 26 24 26h105q22 0 22 -26v-88q0 -23 -22 -23h-105q-11 0 -17.5 6t-6.5 17zM43 0v531h140v-531h-140z" />
    <glyph glyph-name="j" unicode="j" horiz-adv-x="242" 
d="M46 610v88q0 26 24 26h105q11 0 17 -7.5t6 -18.5v-88q0 -23 -23 -23h-105q-11 0 -17.5 6t-6.5 17zM52 -270v801h140v-535v-51q0 -134 -37 -215h-103z" />
    <glyph glyph-name="k" unicode="k" horiz-adv-x="557" 
d="M46 0v782h140v-429h29l150 178h178l-199 -231l199 -300h-167l-161 246h-29v-246h-140z" />
    <glyph glyph-name="l" unicode="l" horiz-adv-x="313" 
d="M46 189v594h140v-572q0 -53 11 -74t35 -30q60 -21 67 -21v-86h-116q-68 0 -102.5 43.5t-34.5 145.5z" />
    <glyph glyph-name="m" unicode="m" horiz-adv-x="875" 
d="M370 354q0 72 -59 72q-40 0 -66 -10t-59 -35v-381h-140v531h112l28 -57q3 2 20 14t33 22t46.5 19.5t65.5 9.5q103 0 138 -69q94 69 191 69q158 0 158 -187v-352h-140v354q0 54 -34 68q-11 4 -25 4q-80 0 -130 -42l1 -31v-353h-140v354z" />
    <glyph glyph-name="n" unicode="n" 
d="M354 540q159 0 159 -186v-354h-140v356q0 72 -59 72q-40 0 -68 -10.5t-60 -35.5v-382h-140v531h112l28 -57q73 53 116 61q23 5 52 5z" />
    <glyph glyph-name="o" unicode="o" horiz-adv-x="560" 
d="M38 255q0 69 8 115.5t25 79t47 51.5q55 35 162 35q137 0 189.5 -60t52.5 -213.5t-51.5 -210.5t-190.5 -57q-136 0 -190 61q-52 59 -52 199zM182 346.5q-4 -31.5 -4 -85.5t5 -84t18.5 -45.5t30.5 -19.5t46 -4t43.5 2t28 10t19.5 25q13 36 13 97.5t-2.5 90t-8.5 48
t-19 27.5q-23 15 -64.5 15.5t-59 -4.5t-30 -23t-16.5 -49.5z" />
    <glyph glyph-name="p" unicode="p" horiz-adv-x="556" 
d="M258.5 519q44.5 18 90 18t79.5 -19t54 -56q37 -70 37 -194q0 -162 -48 -224q-42 -52 -125 -52q-36 0 -81 9.5t-80 24.5v-296h-139v801h115l24 -53q29 23 73.5 41zM310 102q24 0 38 11q31 26 31 149q0 86 -17 120.5t-52 34.5q-74 0 -125 -32v-263q52 -20 125 -20z" />
    <glyph glyph-name="q" unicode="q" horiz-adv-x="555" 
d="M38 268q0 269 194 269q75 0 155.5 -9.5t122.5 -20.5v-777h-140v299q-58 -39 -138 -39q-109 0 -151.5 68.5t-42.5 209.5zM178.5 305.5q-0.5 -13.5 -0.5 -39.5t0.5 -42.5t2.5 -40t7.5 -35.5t13.5 -25q16 -23 53 -23t59.5 4.5t55.5 17.5v308h-110q-40 0 -57 -28
q-18 -29 -21 -56t-3.5 -40.5z" />
    <glyph glyph-name="r" unicode="r" horiz-adv-x="417" 
d="M46 0v531h118l22 -67q75 72 152 72q43 0 59 -6v-135q-28 3 -76 3t-79.5 -12.5t-55.5 -46.5v-339h-140z" />
    <glyph glyph-name="s" unicode="s" horiz-adv-x="508" 
d="M168 536q237 0 284 -27v-88h-241q-25 0 -33 -8t-8 -29v-24q0 -23 10 -28.5t31 -5.5h126q49 0 81 -19q60 -34 60 -118v-55q0 -75 -37 -107t-93 -32q-252 0 -296 29v87h251q35 0 35 34v25q0 18 -7.5 26t-27.5 8h-124q-149 0 -149 143v46q0 143 138 143z" />
    <glyph glyph-name="t" unicode="t" horiz-adv-x="381" 
d="M15 425v78l86 29l23 148h117v-148h119v-107h-119v-213q0 -54 11 -75t34 -30q60 -21 67 -21v-86h-122q-130 0 -130 190v235h-86z" />
    <glyph glyph-name="u" unicode="u" 
d="M178 531v-356q0 -71 59 -71q52 0 88 19q18 10 40 27v381h140v-531h-113l-27 56q-9 -5 -25 -15t-25 -15.5t-23.5 -13t-27.5 -11.5q-31 -10 -68 -10q-158 0 -158 187v353h140z" />
    <glyph glyph-name="v" unicode="v" horiz-adv-x="564" 
d="M15 531h150l116 -367l119 367h150l-193 -531h-157z" />
    <glyph glyph-name="w" unicode="w" horiz-adv-x="826" 
d="M15 531h150l106 -367l95 367h140l-37 -143l88 -224l105 367h150l-172 -531h-156l-80 192l-60 -192h-159z" />
    <glyph glyph-name="x" unicode="x" horiz-adv-x="572" 
d="M18 0l184 266l-184 265h170l97 -159l100 159h169l-186 -268l178 -263h-161l-99 157l-98 -157h-170z" />
    <glyph glyph-name="y" unicode="y" horiz-adv-x="578" 
d="M16 531h147l92 -372q10 -38 49 -38q3 -1 4 -1l106 411h146l-184 -699l-73 -102h-100l75 270q-122 0 -158 135z" />
    <glyph glyph-name="z" unicode="z" horiz-adv-x="474" 
d="M23 413v118h429v-118l-228 -294h228v-118h-414v117l238 295h-253z" />
    <glyph glyph-name="braceleft" unicode="{" horiz-adv-x="321" 
d="M89 439v217q0 86 54 136t163 50v-118q-41 0 -59 -23.5t-18 -88.5v-181q0 -86 -96 -97q43 -8 69 -32.5t26 -61.5v-240q0 -98 74 -98h4v-112q-117 0 -167.5 44.5t-50.5 127.5v266q0 27 -19.5 40t-44.5 13h-9v105q54 5 67 27q7 11 7 26z" />
    <glyph glyph-name="bar" unicode="|" horiz-adv-x="247" 
d="M65 -72v842h118v-842h-118z" />
    <glyph glyph-name="braceright" unicode="}" horiz-adv-x="321" 
d="M19 -98q38 0 56.5 24t18.5 74v240q0 37 25.5 61.5t69.5 32.5q-96 11 -96 97v181q0 65 -18.5 88.5t-59.5 23.5v118q109 0 163.5 -50t54.5 -136v-217q0 -31 24 -42q20 -8 49 -11v-105h-19t-34 -13t-19 -40v-266q0 -83 -51 -127.5t-168 -44.5v112h4z" />
    <glyph glyph-name="asciitilde" unicode="~" horiz-adv-x="419" 
d="M109 645.5q24 12.5 48 12.5t56 -17.5t51 -17.5h3q42 0 90 40l24 -60q-43 -52 -77 -65q-18 -7 -38.5 -7t-56 17.5t-49 17.5t-20.5 -0.5t-14.5 -3t-12.5 -4t-13 -6t-11.5 -6t-13 -7.5t-13.5 -8l-24 55q21 23 34 35t37 24.5z" />
    <glyph glyph-name="exclamdown" unicode="&#xa1;" horiz-adv-x="276" 
d="M70 351v87q0 21 24 23h85q13 -1 18.5 -10t5.5 -16v-84q-1 -27 -23 -27h-86q-24 0 -24 27zM65 -270l14 533h115l14 -533h-143z" />
    <glyph glyph-name="cent" unicode="&#xa2;" horiz-adv-x="487" 
d="M43 130.5q-13 54.5 -13 135.5t13 136q23 98 95 124q29 11 50.5 11h24.5v97h86v-100q87 -9 151 -30v-87q-96 7 -152 7t-68 -1.5t-25.5 -9.5t-20.5 -26q-14 -40 -14 -116t9.5 -109.5t28 -44t58.5 -10.5q81 0 163 7l28 2v-88q-62 -31 -160 -33v-90h-86v89q-43 0 -73.5 12
t-56 41t-38.5 83.5z" />
    <glyph glyph-name="sterling" unicode="&#xa3;" horiz-adv-x="582" 
d="M38 0v108l66 21v185h-66v72l66 22v75q0 84 14 120.5t26 55.5t29.5 31.5t36.5 21t44 12.5q44 8 88 8q69 0 169 -12l34 -4v-112h-189q-37 0 -54.5 -2.5t-33 -13.5t-20 -32.5t-4.5 -60.5v-87l222 -16v-78h-222v-185h300v-129h-506z" />
    <glyph glyph-name="currency" unicode="&#xa4;" horiz-adv-x="446" 
d="M133 442q40 28 89 28t90 -28l46 47l50 -47l-49 -50q22 -36 22 -84.5t-29 -89.5l48 -48l-47 -50l-53 51q-36 -22 -80 -22t-83 26l-46 -48l-49 50l47 48q-25 40 -25 85.5t22 81.5l-47 46l48 49zM165.5 368q-23.5 -24 -23.5 -57.5t23.5 -58t57 -24.5t57 24.5t23.5 58
t-23.5 57.5t-57 24t-57 -24z" />
    <glyph glyph-name="yen" unicode="&#xa5;" horiz-adv-x="634" 
d="M525 338v-82h-147v-36h147v-81h-147v-139h-140v139h-140v81h140v36h-140v82h106l-189 394h153l142 -330l155 330h154l-205 -394h111z" />
    <glyph glyph-name="brokenbar" unicode="&#xa6;" horiz-adv-x="248" 
d="M65 -72v328h118v-328h-118zM65 429v341h118v-341h-118z" />
    <glyph glyph-name="section" unicode="&#xa7;" horiz-adv-x="541" 
d="M42 590v48q0 108 82 137q26 9 74 9t137.5 -5.5t126.5 -13.5v-99h-241q-26 0 -35 -15q-4 -8 -4 -21v-35q0 -34 40 -34h123q83 0 119.5 -31t35.5 -95v-35q0 -92 -58 -107q57 -10 57 -99v-56q0 -146 -138 -146q-69 0 -158.5 5.5t-123.5 13.5v99h237q29 0 36.5 9t7.5 22v40
q0 19 -9.5 26t-32.5 7h-124q-75 0 -113 26.5t-38 95.5v35q0 72 26 96q13 12 34 19q-61 26 -61 104zM182 366q0 -26 9 -32q13 -8 36 -8h86q32 0 38 8q9 11 9 33v38q0 35 -21 40q-10 3 -26 3h-86q-28 0 -36.5 -9.5t-8.5 -35.5v-37z" />
    <glyph glyph-name="dieresis" unicode="&#xa8;" horiz-adv-x="448" 
d="M38 582q0 24 17.5 41t41.5 17t41 -17t17 -41t-17 -41.5t-41 -17.5t-41.5 17.5t-17.5 41.5zM293 582q0 24 17.5 41t41.5 17t41 -17t17 -41t-17 -41.5t-41 -17.5t-41.5 17.5t-17.5 41.5z" />
    <glyph glyph-name="copyright" unicode="&#xa9;" horiz-adv-x="800" 
d="M42 377q0 50 6 98.5t22.5 98t44 83t74 54.5t107.5 21h232q58 0 100.5 -22t67 -55.5t39.5 -83.5q24 -82 24 -203q0 -174 -59.5 -271t-171.5 -97h-232q-113 0 -179 88q-75 99 -75 289zM133 370q0 -81 16.5 -143t54.5 -101.5t92 -39.5h226q44 0 75.5 27.5t51 91.5t19.5 163
q0 131 -21 185q-25 63 -63 81q-25 12 -56 12h-232q-71 0 -114 -53q-49 -61 -49 -223zM223 365q0 218 144 218q37 0 91 -6.5t93 -17.5v-74q-84 12 -162 12q-40 0 -57 -30.5t-17 -100.5t17.5 -101.5t60.5 -31.5q73 0 164 16v-74q-69 -28 -185 -28q-108 0 -137 110
q-12 44 -12 108z" />
    <glyph glyph-name="ordfeminine" unicode="&#xaa;" horiz-adv-x="366" 
d="M23 262v70h321v-70h-321zM35 712q79 26 167 26q43 0 73.5 -9.5t49 -35.5t18.5 -68v-247h-82l-26 45q-5 -12 -37 -30.5t-65 -18.5q-52 0 -81 27.5t-29 64.5v35q0 42 27 68.5t80.5 26.5h79h25.5q1 16 0.5 25t-7.5 18q-10 14 -47.5 14t-90.5 -4t-55 -4v67zM124 485
q0 -18 9.5 -24t27.5 -6t37 6t28 13l9 6v59l-80 -7q-31 -2 -31 -33v-14z" />
    <glyph glyph-name="guillemotleft" unicode="&#xab;" horiz-adv-x="580" 
d="M38 354l206 203l77 -76l-131 -127l133 -131l-74 -77zM257 354l206 203l77 -76l-130 -127l133 -131l-75 -77z" />
    <glyph glyph-name="logicalnot" unicode="&#xac;" horiz-adv-x="494" 
d="M34 240v112h426v-193h-112v81h-314z" />
    <glyph glyph-name="uni00AD" unicode="&#xad;" horiz-adv-x="354" 
d="M20 231v118h314v-118h-314z" />
    <glyph glyph-name="registered" unicode="&#xae;" horiz-adv-x="800" 
d="M42 377q0 50 6 98.5t22.5 98t44 83t74 54.5t107.5 21h232q58 0 100.5 -22t67 -55.5t39.5 -83.5q24 -82 24 -203q0 -174 -59.5 -271t-171.5 -97h-232q-113 0 -179 88q-75 99 -75 289zM133 370q0 -81 16.5 -143t54.5 -101.5t92 -39.5h226q44 0 75.5 27.5t51 91.5t19.5 163
q0 131 -21 185q-25 63 -63 81q-25 12 -56 12h-232q-71 0 -114 -53q-49 -61 -49 -223zM430 580q134 0 134 -134q0 -64 -21 -92t-57 -38l87 -163h-99l-83 159l-52 12v-171h-91v427h182zM339 390h75q39 0 49 9.5t10 43.5t-13.5 42.5t-45.5 8.5h-75v-104z" />
    <glyph glyph-name="macron" unicode="&#xaf;" horiz-adv-x="367" 
d="M38 531v79h292v-79h-292z" />
    <glyph glyph-name="degree" unicode="&#xb0;" horiz-adv-x="278" 
d="M38 632q0 28 13.5 51.5t37 37.5t51 14t51 -14t37 -37.5t13.5 -51.5t-13.5 -51.5t-37 -37t-51 -13.5t-51 13.5t-37 37t-13.5 51.5zM108.5 663.5q-13.5 -13.5 -13.5 -28.5t6 -25q13 -22 35 -22t34.5 13t12.5 31t-12.5 31.5t-30.5 13.5t-31.5 -13.5z" />
    <glyph glyph-name="plusminus" unicode="&#xb1;" horiz-adv-x="500" 
d="M43 70v118h416v-118h-416zM43 382v118h148v148h118v-148h150v-118h-150v-150h-118v150h-148z" />
    <glyph glyph-name="twosuperior" unicode="&#xb2;" horiz-adv-x="400" 
d="M24 767q-1 0 -1 23.5v37.5l1 20q107 19 172 19t93.5 -11t45.5 -31q34 -39 34 -104q0 -105 -173 -243h172v-100h-341v95q117 82 169 134q24 24 43.5 53t19.5 55.5t-17 39t-59 12.5h-159z" />
    <glyph glyph-name="threesuperior" unicode="&#xb3;" horiz-adv-x="408" 
d="M193 373q-112 0 -166 20l1 80h159q40 0 54 8t14 32v12q0 25 -16 34.5t-48 10.5l-123 5v86l123 7q35 1 50.5 10.5t15.5 31.5v12q0 23 -16.5 31.5t-49.5 8.5h-168v79q56 21 168 21h46q59 -1 93 -34t34 -87v-30q0 -74 -57 -93q57 -22 57 -99v-23q0 -123 -132 -123h-39z" />
    <glyph glyph-name="acute" unicode="&#xb4;" horiz-adv-x="243" 
d="M15 531l91 139h122l-122 -139h-91z" />
    <glyph glyph-name="uni00B5" unicode="&#xb5;" horiz-adv-x="588" 
d="M209 531v-356q0 -71 58 -71q52 0 89 19q18 10 40 27v381h140v-531h-113l-27 56q-6 -3 -20.5 -12t-21 -12.5t-19 -10t-21.5 -10.5q-57 -22 -105 -7v-274h-140v448v353h140z" />
    <glyph glyph-name="paragraph" unicode="&#xb6;" horiz-adv-x="577" 
d="M30 499v93q0 68 44 104t112 36h377v-104h-53v-628h-102v630h-66v-900h-102v642l-8 -5q-20 -12 -46 -12q-77 0 -116.5 40.5t-39.5 103.5zM132 511q0 -35 19 -46q16 -8 41 -8h48v174h-48q-36 0 -48 -14.5t-12 -44.5v-61z" />
    <glyph glyph-name="periodcentered" unicode="&#xb7;" horiz-adv-x="263" 
d="M65 340v90q0 25 24 25h86q25 0 25 -25v-90q0 -23 -25 -23h-86q-15 0 -19.5 8t-4.5 15z" />
    <glyph glyph-name="cedilla" unicode="&#xb8;" horiz-adv-x="244" 
d="M112 -37h94q0 -53 -10 -83q-19 -58 -102 -58h-56v60l44 15q20 8 25 21.5t5 44.5z" />
    <glyph glyph-name="onesuperior" unicode="&#xb9;" horiz-adv-x="270" 
d="M221 860v-482h-108v384l-101 -23v66l102 55h107z" />
    <glyph glyph-name="ordmasculine" unicode="&#xba;" horiz-adv-x="394" 
d="M61.5 414q-38.5 40 -38.5 141.5t37.5 141t137 39.5t137 -40t37.5 -142t-37.5 -141t-136 -39t-137 40zM36 264v69h322v-69h-322zM134 604q-3 -19 -3 -56.5t8 -57t20 -24.5t36 -5t34 2t19 11q16 14 16 68.5t-6.5 75t-19 26t-37.5 5.5t-36 -3t-19.5 -13t-11.5 -29z" />
    <glyph glyph-name="guillemotright" unicode="&#xbb;" horiz-adv-x="580" 
d="M38 223l133 131l-130 127l76 76l206 -203l-211 -208zM257 223l133 131l-130 127l77 76l206 -203l-211 -208z" />
    <glyph glyph-name="onequarter" unicode="&#xbc;" horiz-adv-x="931" 
d="M221 738v-483h-108v384l-101 -23v66l102 56h107zM175 0l413 753h102l-413 -753h-102zM759 201v102l24 49h84v-151h49v-85l-49 -18v-97h-108v97h-232l-22 47l171 336h114l-139 -280h108z" />
    <glyph glyph-name="onehalf" unicode="&#xbd;" horiz-adv-x="991" 
d="M221 738v-483h-108v384l-101 -23v66l102 56h107zM168 0l413 753h101l-413 -753h-101zM612 389v23.5v37.5v20q108 19 192 19t120.5 -39.5t36.5 -106.5q0 -104 -175 -243h174v-100h-344v96q120 85 171 137q24 24 44 54t20 55t-17.5 36t-60.5 11h-161z" />
    <glyph glyph-name="threequarters" unicode="&#xbe;" horiz-adv-x="1044" 
d="M23 719q55 20 151 20h65q60 0 94 -33.5t34 -87.5v-30q0 -73 -57 -93q57 -22 57 -99v-23q0 -122 -133 -122h-23h-23.5h-21t-22 0.5t-20.5 1t-21 1.5t-19 2.5t-20 3.5q-23 6 -37 11l1 79l161 1q41 0 55.5 8t14.5 31v13q0 24 -16.5 33.5t-49.5 10.5l-125 5v86l125 8
q36 1 51.5 10t15.5 31v13q0 23 -17 31.5t-50 8.5h-170v79zM278 0l413 753h101l-413 -753h-101zM851 199v104l22 50h85v-154h48v-83l-48 -18v-97h-107v97h-233l-23 47l171 336h113l-140 -282h112z" />
    <glyph glyph-name="questiondown" unicode="&#xbf;" horiz-adv-x="543" 
d="M528 -137v-42v-52v-11q-135 -27 -229 -27q-26 0 -40 1l-14 1q-57 0 -100 17.5t-67 46.5q-48 58 -48 133v74q-1 97 56 144q48 40 134 40q17 0 36 -1v90h114l1 -195h-67.5t-57 -1t-49 -22t-21.5 -63t-1 -51q0 -38 25.5 -60.5t73.5 -22.5h5zM246 447q0 24 25 25h84
q11 -1 17.5 -7t6.5 -16v-89q-1 -24 -23 -25h-87q-22 2 -23 25v87z" />
    <glyph glyph-name="Agrave" unicode="&#xc0;" horiz-adv-x="692" 
d="M193 936h123l90 -139h-91zM34 0l247 732h159l238 -732h-149l-52 162h-240l-53 -162h-150zM274 286h170l-82 262z" />
    <glyph glyph-name="Aacute" unicode="&#xc1;" horiz-adv-x="692" 
d="M315 797l91 139h122l-122 -139h-91zM34 0l247 732h159l238 -732h-149l-52 162h-240l-53 -162h-150zM274 286h170l-82 262z" />
    <glyph glyph-name="Acircumflex" unicode="&#xc2;" horiz-adv-x="692" 
d="M206 797l108 135h104l97 -135h-93l-59 60l-63 -60h-94zM34 0l247 732h159l238 -732h-149l-52 162h-240l-53 -162h-150zM274 286h170l-82 262z" />
    <glyph glyph-name="Atilde" unicode="&#xc3;" horiz-adv-x="692" 
d="M420 887q38 0 88 38l24 -60q-62 -68 -112 -68q-25 0 -60 17.5t-48.5 17.5t-23.5 -1.5t-16 -3t-15.5 -6t-13 -6.5t-15 -9t-15.5 -9l-24 55q64 70 121 70q24 -1 57 -18t42 -17h11zM34 0l247 732h159l238 -732h-149l-52 162h-240l-53 -162h-150zM274 286h170l-82 262z" />
    <glyph glyph-name="Adieresis" unicode="&#xc4;" horiz-adv-x="692" 
d="M191.5 814.5q-17.5 17.5 -17.5 37.5t8 34q18 29 47 28.5t46 -17t17 -41t-17 -42t-41.5 -17.5t-42 17.5zM429 856q0 24 17.5 41t42 17t41.5 -16.5t17 -41t-17 -42t-41.5 -17.5t-42 17.5t-17.5 41.5zM34 0l247 732h159l238 -732h-149l-52 162h-240l-53 -162h-150zM274 286
h170l-82 262z" />
    <glyph glyph-name="Aring" unicode="&#xc5;" horiz-adv-x="692" 
d="M273 780.5q14 -23.5 37.5 -37t51 -13.5t50.5 13.5t36.5 37t13.5 59t-29.5 65.5t-71.5 30t-72 -30t-30 -65.5t14 -59zM330.5 863q12.5 13 30.5 13t30.5 -13t12.5 -31t-12.5 -30t-30.5 -12t-31 12q-5 6 -8.5 13.5t-3.5 21t12.5 26.5zM34 0l247 732h159l238 -732h-149
l-52 162h-240l-53 -162h-150zM274 286h170l-82 262z" />
    <glyph glyph-name="AE" unicode="&#xc6;" horiz-adv-x="954" 
d="M496 728q26 3 46.5 4t34.5 1t30 -1q249 -7 313 -16v-116h-280q-36 0 -44 -18q-6 -14 -7 -37v-117l285 -11v-115l-285 -9v-113q0 -36 19 -44q14 -6 27.5 -6h15.5h269v-117q-51 -7 -239 -14l-63 -3h-23t-36.5 3t-50 15t-43.5 39.5t-16 67.5v73h-175l-96 -194h-155l283 575
q37 76 87 111q49 35 103 42zM449 317v241l-116 -241h116z" />
    <glyph glyph-name="Ccedilla" unicode="&#xc7;" horiz-adv-x="571" 
d="M188 -37h94q0 -78 -24 -109.5t-88 -31.5h-56v60l44 15q19 8 24.5 21.5t5.5 44.5zM92 642q40 66 111 87q39 11 88 11q143 0 255 -33v-110l-7.5 1t-20 2t-29.5 2.5t-37.5 3t-40.5 2.5q-47 3 -84 3t-57.5 -4.5t-39.5 -18t-28 -40.5q-20 -58 -20 -182q0 -132 28 -183
q32 -60 114 -60q94 0 190 6l32 2v-109q-90 -28 -232 -28h-23q-134 1 -191.5 96t-57.5 282.5t50 269.5z" />
    <glyph glyph-name="Egrave" unicode="&#xc8;" horiz-adv-x="567" 
d="M164 934h123l90 -139h-91zM58 144v436q0 91 54 124q45 28 97 28q4 0 135 -3.5t195 -12.5v-116h-289q-37 0 -46 -18q-6 -14 -6 -38v-114l296 -10v-116l-296 -9v-114q0 -38 21 -46q15 -6 41 -6h279v-115q-50 -7 -247 -14l-65 -3h-18.5t-27.5 1.5t-41 10.5t-42 24
q-40 36 -40 111z" />
    <glyph glyph-name="Eacute" unicode="&#xc9;" horiz-adv-x="567" 
d="M275 795l91 138h122l-122 -138h-91zM58 144v436q0 91 54 124q45 28 97 28q4 0 135 -3.5t195 -12.5v-116h-289q-37 0 -46 -18q-6 -14 -6 -38v-114l296 -10v-116l-296 -9v-114q0 -38 21 -46q15 -6 41 -6h279v-115q-50 -7 -247 -14l-65 -3h-18.5t-27.5 1.5t-41 10.5t-42 24
q-40 36 -40 111z" />
    <glyph glyph-name="Ecircumflex" unicode="&#xca;" horiz-adv-x="567" 
d="M163 797l108 135h104l97 -135h-93l-59 60l-63 -60h-94zM58 144v436q0 91 54 124q45 28 97 28q4 0 135 -3.5t195 -12.5v-116h-289q-37 0 -46 -18q-6 -14 -6 -38v-114l296 -10v-116l-296 -9v-114q0 -38 21 -46q15 -6 41 -6h279v-115q-50 -7 -247 -14l-65 -3h-18.5
t-27.5 1.5t-41 10.5t-42 24q-40 36 -40 111z" />
    <glyph glyph-name="Edieresis" unicode="&#xcb;" horiz-adv-x="567" 
d="M126 854q0 24 17.5 41t42 17t41.5 -17t17 -41t-17 -41.5t-41.5 -17.5t-42 17.5t-17.5 41.5zM381 854q0 24 17.5 41t42 17t41.5 -17t17 -41t-17 -41.5t-41.5 -17.5t-42 17.5t-17.5 41.5zM58 144v436q0 91 54 124q45 28 97 28q4 0 135 -3.5t195 -12.5v-116h-289
q-37 0 -46 -18q-6 -14 -6 -38v-114l296 -10v-116l-296 -9v-114q0 -38 21 -46q15 -6 41 -6h279v-115q-50 -7 -247 -14l-65 -3h-18.5t-27.5 1.5t-41 10.5t-42 24q-40 36 -40 111z" />
    <glyph glyph-name="Igrave" unicode="&#xcc;" horiz-adv-x="245" 
d="M-37 936h123l90 -139h-91zM61 0v732h140v-732h-140z" />
    <glyph glyph-name="Iacute" unicode="&#xcd;" horiz-adv-x="245" 
d="M85 797l91 139h122l-122 -139h-91zM61 0v732h140v-732h-140z" />
    <glyph glyph-name="Icircumflex" unicode="&#xce;" horiz-adv-x="245" 
d="M-24 797l108 135h104l97 -135h-93l-59 60l-63 -60h-94zM61 0v732h140v-732h-140z" />
    <glyph glyph-name="Idieresis" unicode="&#xcf;" horiz-adv-x="245" 
d="M-56 856q0 24 17.5 41t42 17t41.5 -16.5t17 -41t-17 -42t-41.5 -17.5t-42 17.5t-17.5 41.5zM200 856q0 24 17 41t41.5 17t41.5 -16.5t17 -41t-17 -42t-41.5 -17.5t-41.5 17.5t-17 41.5zM61 0v732h140v-732h-140z" />
    <glyph glyph-name="Eth" unicode="&#xd0;" horiz-adv-x="662" 
d="M-4 340v66h65v326h311q228 0 251 -291q3 -37 3 -98.5t-15 -127t-45 -114.5q-62 -101 -194 -101h-311v340h-65zM472.5 236.5q11.5 51.5 11.5 125t-8.5 122t-25.5 74.5q-30 48 -89 48h-160v-200h111v-66h-111v-215h160q44 0 72 30t39.5 81.5z" />
    <glyph glyph-name="Ntilde" unicode="&#xd1;" horiz-adv-x="678" 
d="M406 887q39 0 89 38l24 -60q-63 -68 -112 -68q-21 0 -42 9.5t-38.5 17.5t-25 8h-13t-14.5 -1.5t-15 -3t-15.5 -6t-13.5 -6.5t-15.5 -9t-14.5 -9l-25 55q64 70 121 70q25 -1 57.5 -18t41.5 -17h11zM61 0v732h142l290 -473v473h140v-732h-140l-291 468v-468h-141z" />
    <glyph glyph-name="Ograve" unicode="&#xd2;" horiz-adv-x="671" 
d="M177 936h122l91 -139h-91zM54 261q-4 45 -4 108.5t7.5 120t20.5 96t35 67.5t44.5 44t55.5 25q52 15 109.5 15t84 -2t56 -8.5t50.5 -18.5t42.5 -30.5t35.5 -47t25 -65.5q22 -74 22 -173t-7.5 -152.5t-19.5 -92t-32.5 -66t-43 -44t-54.5 -25.5q-74 -22 -195 -14
q-62 3 -90 15t-48.5 25.5t-34.5 33t-27 47t-20.5 62.5t-11.5 80zM193 448q-3 -37 -3 -93t4 -95.5t13.5 -67.5t28.5 -42q34 -25 108 -25q70 0 105 26q49 37 49 210q0 117 -12.5 155t-23 54t-29.5 25q-31 13 -73 13t-58.5 -1.5t-35 -6.5t-29 -15.5t-21 -28.5t-15.5 -44.5
t-8 -63.5z" />
    <glyph glyph-name="Oacute" unicode="&#xd3;" horiz-adv-x="671" 
d="M299 797l90 139h123l-122 -139h-91zM54 261q-4 45 -4 108.5t7.5 120t20.5 96t35 67.5t44.5 44t55.5 25q52 15 109.5 15t84 -2t56 -8.5t50.5 -18.5t42.5 -30.5t35.5 -47t25 -65.5q22 -74 22 -173t-7.5 -152.5t-19.5 -92t-32.5 -66t-43 -44t-54.5 -25.5q-74 -22 -195 -14
q-62 3 -90 15t-48.5 25.5t-34.5 33t-27 47t-20.5 62.5t-11.5 80zM193 448q-3 -37 -3 -93t4 -95.5t13.5 -67.5t28.5 -42q34 -25 108 -25q70 0 105 26q49 37 49 210q0 117 -12.5 155t-23 54t-29.5 25q-31 13 -73 13t-58.5 -1.5t-35 -6.5t-29 -15.5t-21 -28.5t-15.5 -44.5
t-8 -63.5z" />
    <glyph glyph-name="Ocircumflex" unicode="&#xd4;" horiz-adv-x="671" 
d="M190 797l107 135h104l97 -135h-93l-59 60l-62 -60h-94zM54 261q-4 45 -4 108.5t7.5 120t20.5 96t35 67.5t44.5 44t55.5 25q52 15 109.5 15t84 -2t56 -8.5t50.5 -18.5t42.5 -30.5t35.5 -47t25 -65.5q22 -74 22 -173t-7.5 -152.5t-19.5 -92t-32.5 -66t-43 -44t-54.5 -25.5
q-74 -22 -195 -14q-62 3 -90 15t-48.5 25.5t-34.5 33t-27 47t-20.5 62.5t-11.5 80zM193 448q-3 -37 -3 -93t4 -95.5t13.5 -67.5t28.5 -42q34 -25 108 -25q70 0 105 26q49 37 49 210q0 117 -12.5 155t-23 54t-29.5 25q-31 13 -73 13t-58.5 -1.5t-35 -6.5t-29 -15.5t-21 -28.5
t-15.5 -44.5t-8 -63.5z" />
    <glyph glyph-name="Otilde" unicode="&#xd5;" horiz-adv-x="671" 
d="M403 887q39 0 89 38l24 -60q-62 -68 -112 -68q-26 0 -60.5 17.5t-48.5 17.5t-23.5 -1.5t-15.5 -3t-15.5 -6t-13.5 -6.5t-15.5 -9t-14.5 -9l-25 55q64 70 121 70q25 -1 58 -18t41.5 -17h10.5zM54 261q-4 45 -4 108.5t7.5 120t20.5 96t35 67.5t44.5 44t55.5 25
q52 15 109.5 15t84 -2t56 -8.5t50.5 -18.5t42.5 -30.5t35.5 -47t25 -65.5q22 -74 22 -173t-7.5 -152.5t-19.5 -92t-32.5 -66t-43 -44t-54.5 -25.5q-74 -22 -195 -14q-62 3 -90 15t-48.5 25.5t-34.5 33t-27 47t-20.5 62.5t-11.5 80zM193 448q-3 -37 -3 -93t4 -95.5
t13.5 -67.5t28.5 -42q34 -25 108 -25q70 0 105 26q49 37 49 210q0 117 -12.5 155t-23 54t-29.5 25q-31 13 -73 13t-58.5 -1.5t-35 -6.5t-29 -15.5t-21 -28.5t-15.5 -44.5t-8 -63.5z" />
    <glyph glyph-name="Odieresis" unicode="&#xd6;" horiz-adv-x="671" 
d="M158 856q0 16 8 30q17 29 46 28.5t46 -17t17 -41t-17 -42t-37 -17.5t-33.5 8t-21.5 21.5t-8 29.5zM430.5 814.5q-17.5 17.5 -17.5 37.5t8 34q17 28 46 28t46 -16.5t17 -41t-17 -42t-41 -17.5t-41.5 17.5zM54 261q-4 45 -4 108.5t7.5 120t20.5 96t35 67.5t44.5 44t55.5 25
q52 15 109.5 15t84 -2t56 -8.5t50.5 -18.5t42.5 -30.5t35.5 -47t25 -65.5q22 -74 22 -173t-7.5 -152.5t-19.5 -92t-32.5 -66t-43 -44t-54.5 -25.5q-74 -22 -195 -14q-62 3 -90 15t-48.5 25.5t-34.5 33t-27 47t-20.5 62.5t-11.5 80zM193 448q-3 -37 -3 -93t4 -95.5
t13.5 -67.5t28.5 -42q34 -25 108 -25q70 0 105 26q49 37 49 210q0 117 -12.5 155t-23 54t-29.5 25q-31 13 -73 13t-58.5 -1.5t-35 -6.5t-29 -15.5t-21 -28.5t-15.5 -44.5t-8 -63.5z" />
    <glyph glyph-name="multiply" unicode="&#xd7;" horiz-adv-x="461" 
d="M43 250l105 105l-105 106l83 83l105 -105l106 106l84 -83l-106 -107l105 -105l-83 -83l-106 105l-104 -105z" />
    <glyph glyph-name="Oslash" unicode="&#xd8;" horiz-adv-x="679" 
d="M117 653q22 28 44.5 44t54.5 25q53 15 133 15q125 0 182 -36l22 31h75l-51 -73q66 -87 66 -298q0 -200 -60 -279q-39 -53 -98 -70q-54 -16 -129 -16t-121.5 8.5t-81.5 32.5l-26 -37h-74l57 83q-55 83 -55 286t62 284zM198 448q-3 -37 -3 -109t14 -114l243 362
q-27 21 -103 21q-83 0 -107 -24q-28 -28 -34.5 -63.5t-9.5 -72.5zM349 125q46 0 73.5 9t46.5 35.5t26.5 71.5t7.5 140t-19 145l-248 -370q31 -31 113 -31z" />
    <glyph glyph-name="Ugrave" unicode="&#xd9;" horiz-adv-x="664" 
d="M173 936h122l91 -139h-91zM343 -5h-14q-120 0 -160 25q-18 12 -42 35.5t-36 57.5q-30 84 -30 207v412h140v-412q0 -96 19 -141q17 -40 67 -51q22 -4 63.5 -4t69.5 15q59 32 59 181v412h141v-412q0 -157 -46 -228q-15 -25 -29.5 -40.5t-37 -27t-38.5 -17t-43 -8.5
q-34 -4 -83 -4z" />
    <glyph glyph-name="Uacute" unicode="&#xda;" horiz-adv-x="664" 
d="M295 797l90 139h123l-122 -139h-91zM343 -5h-14q-120 0 -160 25q-18 12 -42 35.5t-36 57.5q-30 84 -30 207v412h140v-412q0 -96 19 -141q17 -40 67 -51q22 -4 63.5 -4t69.5 15q59 32 59 181v412h141v-412q0 -157 -46 -228q-15 -25 -29.5 -40.5t-37 -27t-38.5 -17
t-43 -8.5q-34 -4 -83 -4z" />
    <glyph glyph-name="Ucircumflex" unicode="&#xdb;" horiz-adv-x="664" 
d="M186 797l108 135h104l96 -135h-92l-59 60l-63 -60h-94zM343 -5h-14q-120 0 -160 25q-18 12 -42 35.5t-36 57.5q-30 84 -30 207v412h140v-412q0 -96 19 -141q17 -40 67 -51q22 -4 63.5 -4t69.5 15q59 32 59 181v412h141v-412q0 -157 -46 -228q-15 -25 -29.5 -40.5t-37 -27
t-38.5 -17t-43 -8.5q-34 -4 -83 -4z" />
    <glyph glyph-name="Udieresis" unicode="&#xdc;" horiz-adv-x="664" 
d="M171.5 814.5q-17.5 17.5 -17.5 37.5t8 34q17 28 46.5 28t46.5 -16.5t17 -41t-17.5 -42t-41.5 -17.5t-41.5 17.5zM409 856q0 24 17.5 41t42 17t41 -16.5t16.5 -41t-17 -42t-41 -17.5t-41.5 17.5t-17.5 41.5zM343 -5h-14q-120 0 -160 25q-18 12 -42 35.5t-36 57.5
q-30 84 -30 207v412h140v-412q0 -96 19 -141q17 -40 67 -51q22 -4 63.5 -4t69.5 15q59 32 59 181v412h141v-412q0 -157 -46 -228q-15 -25 -29.5 -40.5t-37 -27t-38.5 -17t-43 -8.5q-34 -4 -83 -4z" />
    <glyph glyph-name="Yacute" unicode="&#xdd;" horiz-adv-x="656" 
d="M290 797l91 139h123l-122 -139h-92zM397 0h-140v227l-223 505h152l143 -351l157 351h152l-241 -505v-227z" />
    <glyph glyph-name="Thorn" unicode="&#xde;" horiz-adv-x="546" 
d="M284 148q-27 0 -98 20v-168h-140v729h140v-141h147q176 -1 176 -213q0 -160 -82 -204q-39 -21 -77.5 -22t-65.5 -1zM289 273q1 -1 11.5 -1t23.5 3.5t24 13.5q20 20 20 85q-1 69 -35 83q-17 7 -44 7h-103v-192z" />
    <glyph glyph-name="germandbls" unicode="&#xdf;" horiz-adv-x="572" 
d="M285 781q167 0 226 -98q17 -29 19 -50.5t2 -37.5t-5 -42q-10 -60 -57 -111q-10 -11 -27 -26.5t-24 -23.5q-21 -21 -21 -39.5t16.5 -30.5t40 -22.5t47 -24.5t40 -40t16.5 -61v-31q0 -87 -55 -121q-48 -30 -112.5 -30t-150.5 19v99q90 -5 115 -5t43.5 14t19.5 42v24
q0 31 -55 53q-22 9 -45 20.5t-38.5 34.5t-15.5 62.5t18.5 67t69.5 69.5q41 36 41 84q0 78 -102 78q-36 0 -59 -14q-46 -26 -46 -124v-516h-140v566q0 92 62.5 153.5t176.5 61.5z" />
    <glyph glyph-name="agrave" unicode="&#xe0;" horiz-adv-x="519" 
d="M100 740h122l91 -139h-91zM48 506q91 35 243 35q92 0 141.5 -38.5t49.5 -132.5v-370h-111l-29 58q-4 -7 -25.5 -21.5t-59.5 -28.5t-73 -14q-74 0 -114 42.5t-40 98.5v50q0 64 38 105t117 41h118h39v25.5v8.5q0 40 -17 52.5t-68 12.5t-209 -11v87zM170 155q0 -30 13 -39.5
t38 -9.5t55.5 10.5t47.5 20.5l18 11v97l-129 -10q-43 -4 -43 -54v-26z" />
    <glyph glyph-name="aacute" unicode="&#xe1;" horiz-adv-x="519" 
d="M220 601l90 139h123l-122 -139h-91zM48 506q91 35 243 35q92 0 141.5 -38.5t49.5 -132.5v-370h-111l-29 58q-4 -7 -25.5 -21.5t-59.5 -28.5t-73 -14q-74 0 -114 42.5t-40 98.5v50q0 64 38 105t117 41h118h39v25.5v8.5q0 40 -17 52.5t-68 12.5t-209 -11v87zM170 155
q0 -30 13 -39.5t38 -9.5t55.5 10.5t47.5 20.5l18 11v97l-129 -10q-43 -4 -43 -54v-26z" />
    <glyph glyph-name="acircumflex" unicode="&#xe2;" horiz-adv-x="519" 
d="M112 601l107 135h104l97 -135h-93l-59 60l-62 -60h-94zM48 506q91 35 243 35q92 0 141.5 -38.5t49.5 -132.5v-370h-111l-29 58q-4 -7 -25.5 -21.5t-59.5 -28.5t-73 -14q-74 0 -114 42.5t-40 98.5v50q0 64 38 105t117 41h118h39v25.5v8.5q0 40 -17 52.5t-68 12.5t-209 -11
v87zM170 155q0 -30 13 -39.5t38 -9.5t55.5 10.5t47.5 20.5l18 11v97l-129 -10q-43 -4 -43 -54v-26z" />
    <glyph glyph-name="atilde" unicode="&#xe3;" horiz-adv-x="519" 
d="M323 691q38 0 88 38l24 -60q-62 -68 -112 -68q-25 0 -60 17.5t-48.5 17.5t-23.5 -1.5t-16 -3t-15.5 -6t-13 -6.5t-15 -9t-15.5 -9l-24 55q63 70 120 70q25 -1 58 -18t42 -17h11zM48 506q91 35 243 35q92 0 141.5 -38.5t49.5 -132.5v-370h-111l-29 58q-4 -7 -25.5 -21.5
t-59.5 -28.5t-73 -14q-74 0 -114 42.5t-40 98.5v50q0 64 38 105t117 41h118h39v25.5v8.5q0 40 -17 52.5t-68 12.5t-209 -11v87zM170 155q0 -30 13 -39.5t38 -9.5t55.5 10.5t47.5 20.5l18 11v97l-129 -10q-43 -4 -43 -54v-26z" />
    <glyph glyph-name="adieresis" unicode="&#xe4;" horiz-adv-x="519" 
d="M79 660q0 24 17.5 41.5t41.5 17.5t41 -17t17 -41.5t-17 -42t-41 -17.5t-41.5 17.5t-17.5 41.5zM334 660q0 24 17.5 41.5t35.5 17.5t29 -5t18 -12q17 -17 17 -41.5t-17 -42t-41 -17.5t-41.5 17.5t-17.5 41.5zM48 506q91 35 243 35q92 0 141.5 -38.5t49.5 -132.5v-370h-111
l-29 58q-4 -7 -25.5 -21.5t-59.5 -28.5t-73 -14q-74 0 -114 42.5t-40 98.5v50q0 64 38 105t117 41h118h39v25.5v8.5q0 40 -17 52.5t-68 12.5t-209 -11v87zM170 155q0 -30 13 -39.5t38 -9.5t55.5 10.5t47.5 20.5l18 11v97l-129 -10q-43 -4 -43 -54v-26z" />
    <glyph glyph-name="aring" unicode="&#xe5;" horiz-adv-x="519" 
d="M173 650q-8 19 -8 43.5t14 48t37.5 37t51 13.5t50.5 -13.5t36.5 -37t13.5 -52t-13.5 -51.5t-36.5 -36.5t-47.5 -13.5t-43 7.5t-32.5 21.5t-22 33zM236.5 720q-12.5 -13 -12.5 -25.5t2 -19t6 -11.5t9 -9q12 -8 28 -8t28.5 12.5t12.5 30.5t-12.5 30.5t-30.5 12.5t-30.5 -13
zM48 506q91 35 243 35q92 0 141.5 -38.5t49.5 -132.5v-370h-111l-29 58q-4 -7 -25.5 -21.5t-59.5 -28.5t-73 -14q-74 0 -114 42.5t-40 98.5v50q0 64 38 105t117 41h118h39v25.5v8.5q0 40 -17 52.5t-68 12.5t-209 -11v87zM170 155q0 -30 13 -39.5t38 -9.5t55.5 10.5
t47.5 20.5l18 11v97l-129 -10q-43 -4 -43 -54v-26z" />
    <glyph glyph-name="ae" unicode="&#xe6;" horiz-adv-x="842" 
d="M30 138v35q0 61 35 102q38 44 118.5 43.5t119.5 -0.5t39 1v36v13q0 39 -17 52t-61.5 13t-215.5 -12v87q84 35 242 36q98 -1 139 -43q29 22 65.5 29.5t90 7.5t86 -3.5t62 -14.5t45.5 -32q35 -44 35 -137q0 -69 -37 -98.5t-112 -29.5h-168q0 -68 25.5 -90.5t86.5 -22.5
q123 0 195 10v-94q-35 -13 -89 -20q-69 -8 -183 -8q-55 0 -87.5 17t-57.5 52q-9 -19 -79.5 -44.5t-123.5 -25.5q-73 0 -113 42.5t-40 98.5zM170 155q0 -32 16 -40q12 -6 36 -6t54.5 10.5t47.5 20.5l18 10v85l-129 -10q-43 -4 -43 -54v-16zM595 431h-5q-46 0 -53 -3.5
t-14.5 -7t-10.5 -9t-7 -14.5q-9 -17 -9 -73v-6h132q45 0 45 40q0 49 -13 61t-65 12z" />
    <glyph glyph-name="ccedilla" unicode="&#xe7;" horiz-adv-x="494" 
d="M38 266q0 80 12.5 134.5t37 83.5t54.5 41t71 12q144 0 244 -33v-86q-95 6 -151 6t-68 -1.5t-26 -9.5t-20 -26q-14 -40 -14 -116t9.5 -109.5t28 -44t58.5 -10.5q81 0 163 7l27 2v-88q-46 -24 -90 -28q-65 -6 -113 -6h-6h-42q-79 0 -124 53q-51 60 -51 219zM232 -38h94
q0 -78 -24 -109.5t-88 -31.5h-56v60l44 15q20 8 25 21.5t5 44.5z" />
    <glyph glyph-name="egrave" unicode="&#xe8;" horiz-adv-x="525" 
d="M106 734h123l90 -138h-91zM181 529q35 6 80 6t70 -1.5t50.5 -6t41.5 -13t31 -23t23 -34.5q18 -45 18 -103.5t-17 -88.5q-33 -57 -131 -57h-169q0 -35 6 -56t22 -30.5t33.5 -12t95.5 -2.5t150 11v-95q-45 -17 -90.5 -21t-62.5 -5t-42 -1q-33 -1 -77 -1q-99 0 -137 62
t-38 201.5t30.5 198t112.5 72.5zM311 309q44 0 44 40q0 50 -13.5 64.5t-54.5 14.5t-56.5 -2.5t-30 -14t-18.5 -34.5t-4 -43.5v-24.5h133z" />
    <glyph glyph-name="eacute" unicode="&#xe9;" horiz-adv-x="525" 
d="M224 596l90 138h123l-122 -138h-91zM181 529q35 6 80 6t70 -1.5t50.5 -6t41.5 -13t31 -23t23 -34.5q18 -45 18 -103.5t-17 -88.5q-33 -57 -131 -57h-169q0 -35 6 -56t22 -30.5t33.5 -12t95.5 -2.5t150 11v-95q-45 -17 -90.5 -21t-62.5 -5t-42 -1q-33 -1 -77 -1
q-99 0 -137 62t-38 201.5t30.5 198t112.5 72.5zM311 309q44 0 44 40q0 50 -13.5 64.5t-54.5 14.5t-56.5 -2.5t-30 -14t-18.5 -34.5t-4 -43.5v-24.5h133z" />
    <glyph glyph-name="ecircumflex" unicode="&#xea;" horiz-adv-x="525" 
d="M112 596l108 136h104l97 -136h-93l-59 60l-63 -60h-94zM181 529q35 6 80 6t70 -1.5t50.5 -6t41.5 -13t31 -23t23 -34.5q18 -45 18 -103.5t-17 -88.5q-33 -57 -131 -57h-169q0 -35 6 -56t22 -30.5t33.5 -12t95.5 -2.5t150 11v-95q-45 -17 -90.5 -21t-62.5 -5t-42 -1
q-33 -1 -77 -1q-99 0 -137 62t-38 201.5t30.5 198t112.5 72.5zM311 309q44 0 44 40q0 50 -13.5 64.5t-54.5 14.5t-56.5 -2.5t-30 -14t-18.5 -34.5t-4 -43.5v-24.5h133z" />
    <glyph glyph-name="edieresis" unicode="&#xeb;" horiz-adv-x="525" 
d="M79 655q0 24 17.5 41.5t41.5 17.5t41 -17t17 -41.5t-17 -42t-41 -17.5t-41.5 17.5t-17.5 41.5zM334 655q0 24 17.5 41.5t35.5 17.5t28.5 -5t18.5 -12q17 -17 17 -41.5t-17 -42t-41 -17.5t-41.5 17.5t-17.5 41.5zM181 529q35 6 80 6t70 -1.5t50.5 -6t41.5 -13t31 -23
t23 -34.5q18 -45 18 -103.5t-17 -88.5q-33 -57 -131 -57h-169q0 -35 6 -56t22 -30.5t33.5 -12t95.5 -2.5t150 11v-95q-45 -17 -90.5 -21t-62.5 -5t-42 -1q-33 -1 -77 -1q-99 0 -137 62t-38 201.5t30.5 198t112.5 72.5zM311 309q44 0 44 40q0 50 -13.5 64.5t-54.5 14.5
t-56.5 -2.5t-30 -14t-18.5 -34.5t-4 -43.5v-24.5h133z" />
    <glyph glyph-name="igrave" unicode="&#xec;" horiz-adv-x="230" 
d="M-52 734h123l90 -138h-91zM46 0v531h140v-531h-140z" />
    <glyph glyph-name="iacute" unicode="&#xed;" horiz-adv-x="230" 
d="M70 596l91 138h122l-122 -138h-91zM46 0v531h140v-531h-140z" />
    <glyph glyph-name="icircumflex" unicode="&#xee;" horiz-adv-x="230" 
d="M-39 596l108 136h104l97 -136h-93l-59 60l-63 -60h-94zM46 0v531h140v-531h-140z" />
    <glyph glyph-name="idieresis" unicode="&#xef;" horiz-adv-x="230" 
d="M-71 655q0 24 17.5 41.5t42 17.5t41.5 -17t17 -41.5t-17 -42t-41.5 -17.5t-42 17.5t-17.5 41.5zM184 655q0 24 17.5 41.5t42 17.5t41.5 -17t17 -41.5t-17 -42t-41.5 -17.5t-42 17.5t-17.5 41.5zM46 0v531h140v-531h-140z" />
    <glyph glyph-name="eth" unicode="&#xf0;" horiz-adv-x="540" 
d="M73 63.5q-43 63.5 -43 198t44.5 202t142.5 67.5h56q58 0 75 -10q-18 61 -57 97l-114 -53l-28 57l72 33q-38 14 -103 14q-11 0 -23 -1v115q166 0 256 -60l93 43l29 -58l-68 -31q65 -73 87 -191q18 -99 18 -222q0 -264 -188 -264h-105q-101 0 -144 63.5zM178 351.5
q-8 -30.5 -8 -88.5t8 -87t21.5 -37t40.5 -8h60q44 0 57 28t13 110t-12.5 107.5t-57.5 25.5h-60q-26 0 -40 -10t-22 -40.5z" />
    <glyph glyph-name="ntilde" unicode="&#xf1;" 
d="M338 690q39 0 89 38l24 -60q-62 -68 -112 -68q-25 0 -60 17.5t-49 17.5t-23.5 -1.5t-15.5 -3t-15.5 -6t-13 -6.5t-15 -9t-15.5 -9l-25 55q64 70 121 70q25 -1 58 -18t41.5 -17h10.5zM46 0v531h112l28 -57q73 53 116 61q23 5 52 5q159 0 159 -186v-354h-140v356
q0 72 -59 72q-40 0 -68 -10.5t-60 -35.5v-382h-140z" />
    <glyph glyph-name="ograve" unicode="&#xf2;" horiz-adv-x="560" 
d="M117 734h123l90 -138h-91zM38 255q0 69 8 115.5t25 79t47 51.5q55 35 162 35q137 0 189.5 -60t52.5 -213.5t-51.5 -210.5t-190.5 -57q-136 0 -190 61q-52 59 -52 199zM182 346.5q-4 -31.5 -4 -85.5t5 -84t18.5 -45.5t30.5 -19.5t46 -4t43.5 2t28 10t19.5 25
q13 36 13 93.5t-1.5 83.5t-6.5 45t-11.5 29.5t-18.5 17.5q-20 10 -59 10t-56.5 -5t-30 -23t-16.5 -49.5z" />
    <glyph glyph-name="oacute" unicode="&#xf3;" horiz-adv-x="560" 
d="M235 596l90 138h123l-122 -138h-91zM38 255q0 69 8 115.5t25 79t47 51.5q55 35 162 35q137 0 189.5 -60t52.5 -213.5t-51.5 -210.5t-190.5 -57q-136 0 -190 61q-52 59 -52 199zM182 346.5q-4 -31.5 -4 -85.5t5 -84t18.5 -45.5t30.5 -19.5t46 -4t43.5 2t28 10t19.5 25
q13 36 13 93.5t-1.5 83.5t-6.5 45t-11.5 29.5t-18.5 17.5q-20 10 -59 10t-56.5 -5t-30 -23t-16.5 -49.5z" />
    <glyph glyph-name="ocircumflex" unicode="&#xf4;" horiz-adv-x="560" 
d="M128 596l108 136h104l97 -136h-93l-59 60l-63 -60h-94zM38 255q0 69 8 115.5t25 79t47 51.5q55 35 162 35q137 0 189.5 -60t52.5 -213.5t-51.5 -210.5t-190.5 -57q-136 0 -190 61q-52 59 -52 199zM182 346.5q-4 -31.5 -4 -85.5t5 -84t18.5 -45.5t30.5 -19.5t46 -4t43.5 2
t28 10t19.5 25q13 36 13 93.5t-1.5 83.5t-6.5 45t-11.5 29.5t-18.5 17.5q-20 10 -59 10t-56.5 -5t-30 -23t-16.5 -49.5z" />
    <glyph glyph-name="otilde" unicode="&#xf5;" horiz-adv-x="560" 
d="M343 686q39 0 89 38l24 -60q-62 -68 -112 -68q-25 0 -60 17.5t-49 17.5t-23.5 -1.5t-15.5 -3t-15.5 -6t-13 -6.5t-15 -9t-15.5 -9l-25 55q64 70 121 70q25 -1 58 -18t41.5 -17h10.5zM38 255q0 69 8 115.5t25 79t47 51.5q55 35 162 35q137 0 189.5 -60t52.5 -213.5
t-51.5 -210.5t-190.5 -57q-136 0 -190 61q-52 59 -52 199zM182 346.5q-4 -31.5 -4 -85.5t5 -84t18.5 -45.5t30.5 -19.5t46 -4t43.5 2t28 10t19.5 25q13 36 13 93.5t-1.5 83.5t-6.5 45t-11.5 29.5t-18.5 17.5q-20 10 -59 10t-56.5 -5t-30 -23t-16.5 -49.5z" />
    <glyph glyph-name="odieresis" unicode="&#xf6;" horiz-adv-x="560" 
d="M94 655q0 24 17.5 41.5t42 17.5t41.5 -17t17 -41.5t-17 -42t-41.5 -17.5t-42 17.5t-17.5 41.5zM349 655q0 24 17.5 41.5t42 17.5t41.5 -17t17 -41.5t-17 -42t-41.5 -17.5t-42 17.5t-17.5 41.5zM38 255q0 69 8 115.5t25 79t47 51.5q55 35 162 35q137 0 189.5 -60
t52.5 -213.5t-51.5 -210.5t-190.5 -57q-136 0 -190 61q-52 59 -52 199zM182 346.5q-4 -31.5 -4 -85.5t5 -84t18.5 -45.5t30.5 -19.5t46 -4t43.5 2t28 10t19.5 25q13 36 13 93.5t-1.5 83.5t-6.5 45t-11.5 29.5t-18.5 17.5q-20 10 -59 10t-56.5 -5t-30 -23t-16.5 -49.5z" />
    <glyph glyph-name="divide" unicode="&#xf7;" horiz-adv-x="497" 
d="M38 294v118h422v-118h-422zM210 246h74q24 0 24 -24v-67q0 -23 -24 -23h-74q-10 0 -17 6t-7 17v67q0 24 24 24zM210 570h74q24 0 24 -25v-67q0 -23 -24 -23h-74q-16 0 -22 14q-2 4 -2 9v67q0 25 24 25z" />
    <glyph glyph-name="oslash" unicode="&#xf8;" horiz-adv-x="581" 
d="M92 67q-43 58 -43 179t24 181t75 84.5t147 24.5t147 -28l19 23h77l-51 -63q46 -60 46 -209.5t-51.5 -206.5t-190.5 -57q-102 0 -156 32l-22 -27h-75zM193 346.5q-4 -31.5 -4 -80.5t9 -70l163 211q-18 17 -61 17t-60.5 -5t-30 -23t-16.5 -49.5zM356.5 118q17.5 10 23.5 27
q13 36 13 104t-10 92l-166 -213q18 -20 70 -20t69.5 10z" />
    <glyph glyph-name="ugrave" unicode="&#xf9;" 
d="M108 734h123l90 -138h-91zM38 178v353h140v-356q0 -71 59 -71q40 0 67.5 10t60.5 36v381h140v-531h-113l-27 56q-9 -5 -25 -15t-25 -15.5t-23.5 -13t-27.5 -11.5q-31 -10 -68 -10q-158 0 -158 187z" />
    <glyph glyph-name="uacute" unicode="&#xfa;" 
d="M226 596l90 138h123l-122 -138h-91zM38 178v353h140v-356q0 -71 59 -71q40 0 67.5 10t60.5 36v381h140v-531h-113l-27 56q-9 -5 -25 -15t-25 -15.5t-23.5 -13t-27.5 -11.5q-31 -10 -68 -10q-158 0 -158 187z" />
    <glyph glyph-name="ucircumflex" unicode="&#xfb;" 
d="M117 596l108 136h104l97 -136h-93l-59 60l-63 -60h-94zM38 178v353h140v-356q0 -71 59 -71q40 0 67.5 10t60.5 36v381h140v-531h-113l-27 56q-9 -5 -25 -15t-25 -15.5t-23.5 -13t-27.5 -11.5q-31 -10 -68 -10q-158 0 -158 187z" />
    <glyph glyph-name="udieresis" unicode="&#xfc;" 
d="M85 655q0 24 17.5 41.5t42 17.5t41.5 -17t17 -41.5t-17 -42t-41.5 -17.5t-42 17.5t-17.5 41.5zM340 655q0 24 17.5 41.5t42 17.5t41.5 -17t17 -41.5t-17 -42t-41.5 -17.5t-42 17.5t-17.5 41.5zM38 178v353h140v-356q0 -71 59 -71q40 0 67.5 10t60.5 36v381h140v-531h-113
l-27 56q-9 -5 -25 -15t-25 -15.5t-23.5 -13t-27.5 -11.5q-31 -10 -68 -10q-158 0 -158 187z" />
    <glyph glyph-name="yacute" unicode="&#xfd;" horiz-adv-x="578" 
d="M243 596l90 138h123l-122 -138h-91zM16 531h147l92 -372q5 -18 12 -24t11 -8.5t9.5 -4t8.5 -1.5t7.5 -0.5l4.5 -0.5l106 411h146l-184 -699l-73 -102h-100l75 270q-122 0 -158 135z" />
    <glyph glyph-name="thorn" unicode="&#xfe;" horiz-adv-x="556" 
d="M193 782v-309q30 24 73.5 42.5t86.5 18.5q173 0 173 -270q0 -163 -48 -224q-42 -53 -125 -53q-37 0 -81.5 9.5t-78.5 27.5v-294h-140v1052h140zM316 415q-70 -3 -123 -35v-264q43 -16 123 -19q24 0 38 11q32 27 32 167t-70 140z" />
    <glyph glyph-name="ydieresis" unicode="&#xff;" horiz-adv-x="578" 
d="M102 655q0 24 17.5 41.5t41.5 17.5t41 -17t17 -41.5t-17 -42t-41 -17.5t-41.5 17.5t-17.5 41.5zM357 655q0 24 17.5 41.5t41.5 17.5t41 -17t17 -41.5t-17 -42t-41 -17.5t-41.5 17.5t-17.5 41.5zM16 531h147l92 -372q5 -18 12 -24t11 -8.5t9.5 -4t8.5 -1.5t7.5 -0.5
l4.5 -0.5l106 411h146l-184 -699l-73 -102h-100l75 270q-122 0 -158 135z" />
    <glyph glyph-name="Amacron" unicode="&#x100;" horiz-adv-x="692" 
d="M215 797v79h292v-79h-292zM34 0l247 732h159l238 -732h-149l-52 162h-240l-53 -162h-150zM274 286h170l-82 262z" />
    <glyph glyph-name="amacron" unicode="&#x101;" horiz-adv-x="519" 
d="M124 601v79h292v-79h-292zM48 506q91 35 243 35q92 0 141.5 -38.5t49.5 -132.5v-370h-111l-29 58q-4 -7 -25.5 -21.5t-59.5 -28.5t-73 -14q-74 0 -114 42.5t-40 98.5v50q0 64 38 105t117 41h118h39v25.5v8.5q0 40 -17 52.5t-68 12.5t-209 -11v87zM170 155q0 -30 13 -39.5
t38 -9.5t55.5 10.5t47.5 20.5l18 11v97l-129 -10q-43 -4 -43 -54v-26z" />
    <glyph glyph-name="Abreve" unicode="&#x102;" horiz-adv-x="692" 
d="M246 911h58q0 -25 15.5 -40.5t42 -15.5t41.5 15t15 41h58q0 -52 -33.5 -83t-82.5 -31t-81.5 31.5t-32.5 82.5zM34 0l247 732h159l238 -732h-149l-52 162h-240l-53 -162h-150zM274 286h170l-82 262z" />
    <glyph glyph-name="abreve" unicode="&#x103;" horiz-adv-x="519" 
d="M155 715h58q0 -25 16 -40.5t42 -15.5t41 15t15 41h58q0 -52 -33 -83t-82 -31t-82 31.5t-33 82.5zM48 506q91 35 243 35q92 0 141.5 -38.5t49.5 -132.5v-370h-111l-29 58q-4 -7 -25.5 -21.5t-59.5 -28.5t-73 -14q-74 0 -114 42.5t-40 98.5v50q0 64 38 105t117 41h118h39
v25.5v8.5q0 40 -17 52.5t-68 12.5t-209 -11v87zM170 155q0 -30 13 -39.5t38 -9.5t55.5 10.5t47.5 20.5l18 11v97l-129 -10q-43 -4 -43 -54v-26z" />
    <glyph glyph-name="Aogonek" unicode="&#x104;" horiz-adv-x="692" 
d="M643 -186q-13 -3 -28.5 -3t-39 8t-41.5 29q-26 32 -26 57q0 60 71 96h56q-66 -50 -42 -90q14 -22 50 -20v-77zM34 0l247 732h159l238 -732h-149l-52 162h-240l-53 -162h-150zM274 286h170l-82 262z" />
    <glyph glyph-name="aogonek" unicode="&#x105;" horiz-adv-x="519" 
d="M465 -186q-13 -4 -28 -4t-39 8t-42 30q-26 31 -26 57q0 59 71 95h56q-33 -25 -40 -42t-7.5 -27t4 -17.5t12.5 -12.5q15 -12 39 -11v-76zM48 506q91 35 243 35q92 0 141.5 -38.5t49.5 -132.5v-370h-111l-29 58q-4 -7 -25.5 -21.5t-59.5 -28.5t-73 -14q-74 0 -114 42.5
t-40 98.5v50q0 64 38 105t117 41h118h39v25.5v8.5q0 40 -17 52.5t-68 12.5t-209 -11v87zM170 155q0 -30 13 -39.5t38 -9.5t55.5 10.5t47.5 20.5l18 11v97l-129 -10q-43 -4 -43 -54v-26z" />
    <glyph glyph-name="Cacute" unicode="&#x106;" horiz-adv-x="571" 
d="M286 800l91 138h122l-122 -138h-91zM92 642q40 66 111 87q39 11 88 11q143 0 255 -33v-110l-7.5 1t-20 2t-29.5 2.5t-37.5 3t-40.5 2.5q-47 3 -84 3t-57.5 -4.5t-39.5 -18t-28 -40.5q-20 -58 -20 -182q0 -132 28 -183q32 -60 114 -60q94 0 190 6l32 2v-109
q-90 -28 -232 -28h-23q-134 1 -191.5 96t-57.5 282.5t50 269.5z" />
    <glyph glyph-name="cacute" unicode="&#x107;" horiz-adv-x="494" 
d="M229 597l90 139h123l-122 -139h-91zM38 266q0 80 12.5 134.5t37 83t54.5 40.5t71 12q147 0 244 -32v-86q-95 6 -149.5 6t-64.5 -1.5t-23 -6t-19 -14.5t-12 -28q-11 -30 -11 -104.5t9.5 -107.5t28 -43.5t58.5 -10.5q81 0 163 7l27 2v-88q-46 -24 -90 -28q-65 -6 -113 -6
h-6h-42q-79 0 -124 53q-51 59 -51 218z" />
    <glyph glyph-name="Ccircumflex" unicode="&#x108;" horiz-adv-x="571" 
d="M176 800l108 136h104l97 -136h-93l-59 60l-63 -60h-94zM92 642q40 66 111 87q39 11 88 11q143 0 255 -33v-110l-7.5 1t-20 2t-29.5 2.5t-37.5 3t-40.5 2.5q-47 3 -84 3t-57.5 -4.5t-39.5 -18t-28 -40.5q-20 -58 -20 -182q0 -132 28 -183q32 -60 114 -60q94 0 190 6l32 2
v-109q-90 -28 -232 -28h-23q-134 1 -191.5 96t-57.5 282.5t50 269.5z" />
    <glyph glyph-name="ccircumflex" unicode="&#x109;" horiz-adv-x="494" 
d="M116 597l107 135h104l97 -135h-93l-59 60l-62 -60h-94zM38 266q0 80 12.5 134.5t37 83t54.5 40.5t71 12q147 0 244 -32v-86q-95 6 -149.5 6t-64.5 -1.5t-23 -6t-19 -14.5t-12 -28q-11 -30 -11 -104.5t9.5 -107.5t28 -43.5t58.5 -10.5q81 0 163 7l27 2v-88
q-46 -24 -90 -28q-65 -6 -113 -6h-6h-42q-79 0 -124 53q-51 59 -51 218z" />
    <glyph glyph-name="Cdotaccent" unicode="&#x10a;" horiz-adv-x="571" 
d="M271 824v76q0 25 24 25h72q11 0 17 -7t6 -18v-76q0 -23 -23 -23h-72q-10 0 -17 6.5t-7 16.5zM92 642q40 66 111 87q39 11 88 11q143 0 255 -33v-110l-7.5 1t-20 2t-29.5 2.5t-37.5 3t-40.5 2.5q-47 3 -84 3t-57.5 -4.5t-39.5 -18t-28 -40.5q-20 -58 -20 -182
q0 -132 28 -183q32 -60 114 -60q94 0 190 6l32 2v-109q-90 -28 -232 -28h-23q-134 1 -191.5 96t-57.5 282.5t50 269.5z" />
    <glyph glyph-name="cdotaccent" unicode="&#x10b;" horiz-adv-x="494" 
d="M225 621v76q0 25 24 25h72q11 0 17 -7t6 -18v-76q0 -23 -23 -23h-72q-11 0 -17.5 6t-6.5 17zM38 266q0 80 12.5 134.5t37 83t54.5 40.5t71 12q147 0 244 -32v-86q-95 6 -149.5 6t-64.5 -1.5t-23 -6t-19 -14.5t-12 -28q-11 -30 -11 -104.5t9.5 -107.5t28 -43.5t58.5 -10.5
q81 0 163 7l27 2v-88q-46 -24 -90 -28q-65 -6 -113 -6h-6h-42q-79 0 -124 53q-51 59 -51 218z" />
    <glyph glyph-name="Ccaron" unicode="&#x10c;" horiz-adv-x="571" 
d="M184 936h94l63 -60l58 60h94l-102 -136h-104zM92 642q40 66 111 87q39 11 88 11q143 0 255 -33v-110l-7.5 1t-20 2t-29.5 2.5t-37.5 3t-40.5 2.5q-47 3 -84 3t-57.5 -4.5t-39.5 -18t-28 -40.5q-20 -58 -20 -182q0 -132 28 -183q32 -60 114 -60q94 0 190 6l32 2v-109
q-90 -28 -232 -28h-23q-134 1 -191.5 96t-57.5 282.5t50 269.5z" />
    <glyph glyph-name="ccaron" unicode="&#x10d;" horiz-adv-x="494" 
d="M117 733h93l63 -60l59 60h93l-102 -136h-104zM38 266q0 80 12.5 134.5t37 83t54.5 40.5t71 12q147 0 244 -32v-86q-95 6 -149.5 6t-64.5 -1.5t-23 -6t-19 -14.5t-12 -28q-11 -30 -11 -104.5t9.5 -107.5t28 -43.5t58.5 -10.5q81 0 163 7l27 2v-88q-46 -24 -90 -28
q-65 -6 -113 -6h-6h-42q-79 0 -124 53q-51 59 -51 218z" />
    <glyph glyph-name="Dcaron" unicode="&#x10e;" horiz-adv-x="662" 
d="M164 930h93l63 -60l59 60h93l-102 -135h-104zM61 0v732h311q254 0 254 -369q0 -228 -109 -316q-58 -47 -145 -47h-311zM201 125h160q125 0 125 239q0 182 -58 225q-26 19 -67 19h-160v-483z" />
    <glyph glyph-name="dcaron" unicode="&#x10f;" horiz-adv-x="607" 
d="M53 420q15 49 34 71q41 48 124 48q36 0 81 -9.5t80 -25.5v281h140v-785h-116l-24 54q-41 -33 -86 -46.5t-75 -13.5q-93 0 -133 68.5t-40 188.5t15 169zM186.5 370q-8.5 -36 -8.5 -111.5t17 -110t53 -34.5q73 0 124 32v263q-51 20 -124 20q-25 0 -39 -11.5t-22.5 -47.5z
M659 781v-67l-11 -134h-75l-10 134l-1 67h97z" />
    <glyph glyph-name="Dcroat" unicode="&#x110;" horiz-adv-x="662" 
d="M-4 340v66h65v326h311q228 0 251 -291q3 -37 3 -98.5t-15 -127t-45 -114.5q-62 -101 -194 -101h-311v340h-65zM201 125h160q66 0 94.5 61.5t28.5 177.5q0 141 -34 194q-30 48 -89 48h-160v-200h111v-66h-111v-215z" />
    <glyph glyph-name="dcroat" unicode="&#x111;" horiz-adv-x="563" 
d="M49.5 420q14.5 49 33.5 71q42 48 125 48q35 0 80.5 -9.5t80.5 -25.5v101h-107v65h107v115h139v-115h66v-65h-66v-605h-115l-24 54q-41 -33 -86 -46.5t-75 -13.5q-94 0 -133.5 68.5t-39.5 188.5t14.5 169zM183.5 370q-8.5 -36 -8.5 -111.5t17 -110t52 -34.5q74 0 125 32
v263q-52 20 -125 20q-24 0 -38 -11.5t-22.5 -47.5z" />
    <glyph glyph-name="Emacron" unicode="&#x112;" horiz-adv-x="567" 
d="M166 796v80h292v-80h-292zM58 144v436q0 91 54 124q45 28 97 28q4 0 135 -3.5t195 -12.5v-116h-289q-37 0 -46 -18q-6 -14 -6 -38v-114l296 -10v-116l-296 -9v-114q0 -38 21 -46q15 -6 41 -6h279v-115q-50 -7 -247 -14l-65 -3h-18.5t-27.5 1.5t-41 10.5t-42 24
q-40 36 -40 111z" />
    <glyph glyph-name="emacron" unicode="&#x113;" horiz-adv-x="525" 
d="M126 596v79h292v-79h-292zM181 529q35 6 80 6t70 -1.5t50.5 -6t41.5 -13t31 -23t23 -34.5q18 -45 18 -103.5t-17 -88.5q-33 -57 -131 -57h-169q0 -35 6 -56t22 -30.5t33.5 -12t95.5 -2.5t150 11v-95q-45 -17 -90.5 -21t-62.5 -5t-42 -1q-33 -1 -77 -1q-99 0 -137 62
t-38 201.5t30.5 198t112.5 72.5zM311 309q44 0 44 40q0 50 -13.5 64.5t-54.5 14.5t-56.5 -2.5t-30 -14t-18.5 -34.5t-4 -43.5v-24.5h133z" />
    <glyph glyph-name="Edotaccent" unicode="&#x116;" horiz-adv-x="567" 
d="M265 819v76q0 25 24 25h72q11 0 17 -7t6 -18v-76q0 -23 -23 -23h-72q-10 0 -17 6t-7 17zM58 144v436q0 91 54 124q45 28 97 28q4 0 135 -3.5t195 -12.5v-116h-289q-37 0 -46 -18q-6 -14 -6 -38v-114l296 -10v-116l-296 -9v-114q0 -38 21 -46q15 -6 41 -6h279v-115
q-50 -7 -247 -14l-65 -3h-18.5t-27.5 1.5t-41 10.5t-42 24q-40 36 -40 111z" />
    <glyph glyph-name="edotaccent" unicode="&#x117;" horiz-adv-x="525" 
d="M212 619v76q0 25 24 25h72q11 0 17 -7t6 -18v-76q0 -23 -23 -23h-72q-11 0 -17.5 6.5t-6.5 16.5zM181 529q35 6 80 6t70 -1.5t50.5 -6t41.5 -13t31 -23t23 -34.5q18 -45 18 -103.5t-17 -88.5q-33 -57 -131 -57h-169q0 -35 6 -56t22 -30.5t33.5 -12t95.5 -2.5t150 11v-95
q-45 -17 -90.5 -21t-62.5 -5t-42 -1q-33 -1 -77 -1q-99 0 -137 62t-38 201.5t30.5 198t112.5 72.5zM311 309q44 0 44 40q0 50 -13.5 64.5t-54.5 14.5t-56.5 -2.5t-30 -14t-18.5 -34.5t-4 -43.5v-24.5h133z" />
    <glyph glyph-name="Eogonek" unicode="&#x118;" horiz-adv-x="567" 
d="M547 -172q-13 -3 -28 -3t-39 7.5t-42 29.5q-26 31 -26 57q0 59 71 95h56q-66 -49 -41 -89q13 -22 49 -21v-76zM58 144v436q0 91 54 124q45 28 97 28q4 0 135 -3.5t195 -12.5v-116h-289q-37 0 -46 -18q-6 -14 -6 -38v-114l296 -10v-116l-296 -9v-114q0 -38 21 -46
q15 -6 41 -6h279v-115q-50 -7 -247 -14l-65 -3h-18.5t-27.5 1.5t-41 10.5t-42 24q-40 36 -40 111z" />
    <glyph glyph-name="eogonek" unicode="&#x119;" horiz-adv-x="525" 
d="M493 -164q-13 -3 -28 -3t-39 8t-42 30q-44 53 -13 103q18 29 58 49h56q-66 -50 -41 -89q13 -23 49 -21v-77zM181 529q35 6 80 6t70 -1.5t50.5 -6t41.5 -13t31 -23t23 -34.5q18 -45 18 -103.5t-17 -88.5q-33 -57 -131 -57h-169q0 -35 6 -56t22 -30.5t33.5 -12t95.5 -2.5
t150 11v-95q-45 -17 -90.5 -21t-62.5 -5t-42 -1q-33 -1 -77 -1q-99 0 -137 62t-38 201.5t30.5 198t112.5 72.5zM311 309q44 0 44 40q0 50 -13.5 64.5t-54.5 14.5t-56.5 -2.5t-30 -14t-18.5 -34.5t-4 -43.5v-24.5h133z" />
    <glyph glyph-name="Ecaron" unicode="&#x11a;" horiz-adv-x="567" 
d="M165 930h94l63 -60l58 60h94l-102 -135h-104zM58 144v436q0 91 54 124q45 28 97 28q4 0 135 -3.5t195 -12.5v-116h-289q-37 0 -46 -18q-6 -14 -6 -38v-114l296 -10v-116l-296 -9v-114q0 -38 21 -46q15 -6 41 -6h279v-115q-50 -7 -247 -14l-65 -3h-18.5t-27.5 1.5
t-41 10.5t-42 24q-40 36 -40 111z" />
    <glyph glyph-name="ecaron" unicode="&#x11b;" horiz-adv-x="525" 
d="M121 729h94l63 -60l58 60h94l-102 -135h-104zM181 529q35 6 80 6t70 -1.5t50.5 -6t41.5 -13t31 -23t23 -34.5q18 -45 18 -103.5t-17 -88.5q-33 -57 -131 -57h-169q0 -35 6 -56t22 -30.5t33.5 -12t95.5 -2.5t150 11v-95q-45 -17 -90.5 -21t-62.5 -5t-42 -1q-33 -1 -77 -1
q-99 0 -137 62t-38 201.5t30.5 198t112.5 72.5zM311 309q44 0 44 40q0 50 -13.5 64.5t-54.5 14.5t-56.5 -2.5t-30 -14t-18.5 -34.5t-4 -43.5v-24.5h133z" />
    <glyph glyph-name="Gcircumflex" unicode="&#x11c;" horiz-adv-x="614" 
d="M180 800l107 136h104l97 -136h-93l-59 60l-62 -60h-94zM46.5 249.5q-4.5 51.5 -4.5 120t5.5 121t21 101t42.5 80.5q57 68 170 68q85 0 144.5 -6.5t136.5 -25.5v-109q-1 0 -16.5 2t-41 4.5t-55.5 4.5q-72 6 -135 6q-80 0 -106 -53.5t-26 -196.5t24 -191q25 -49 102 -49
q30 0 61.5 11.5t47.5 22.5l16 12v131h-102v89q59 24 174 24q32 0 68 -2v-414h-100l-38 49q-35 -33 -75 -43q-109 -27 -184 6q-44 19 -69.5 51t-40.5 83.5t-19.5 103z" />
    <glyph glyph-name="gcircumflex" unicode="&#x11d;" horiz-adv-x="560" 
d="M124 596l107 136h104l97 -136h-93l-59 60l-62 -60h-94zM202 149q-40 0 -40 -23q0 -16 10.5 -21.5t29.5 -5.5h163q74 0 115.5 -39.5t41.5 -117.5v-58q0 -116 -99 -145q-29 -9 -67 -9h-150q-117 0 -153 86q-13 29 -13 68v67l47 49q-31 17 -45 57q-7 21 -7 50t15.5 54.5
t46.5 35.5q-30 19 -44 60t-14 87q0 189 184 189h323v-83l-59 -18q0 -1 3 -8.5t3.5 -9t3 -8.5t3.5 -11t2.5 -12t2.5 -16q2 -22 2 -43.5t-4.5 -44.5t-17 -47.5t-31.5 -41.5q-45 -41 -129 -41h-123zM181 -99q0 -36 15.5 -47.5t47.5 -11.5h82q35 0 46 14.5t11 41.5v39
q0 24 -12 36t-40 13h-108l-42 3v-88zM179 344q0 -82 64 -82h56q68 0 68 78q0 45 -16 62.5t-53 17.5h-53q-39 0 -52.5 -20.5t-13.5 -55.5z" />
    <glyph glyph-name="Gbreve" unicode="&#x11e;" horiz-adv-x="614" 
d="M212 914h58q0 -25 15.5 -40.5t42 -15.5t41.5 15t15 41h58q0 -35 -16 -61q-32 -53 -100 -53q-49 0 -81.5 31.5t-32.5 82.5zM46.5 249.5q-4.5 51.5 -4.5 120t5.5 121t21 101t42.5 80.5q57 68 170 68q85 0 144.5 -6.5t136.5 -25.5v-109q-1 0 -16.5 2t-41 4.5t-55.5 4.5
q-72 6 -135 6q-80 0 -106 -53.5t-26 -196.5t24 -191q25 -49 102 -49q30 0 61.5 11.5t47.5 22.5l16 12v131h-102v89q59 24 174 24q32 0 68 -2v-414h-100l-38 49q-35 -33 -75 -43q-109 -27 -184 6q-44 19 -69.5 51t-40.5 83.5t-19.5 103z" />
    <glyph glyph-name="gbreve" unicode="&#x11f;" horiz-adv-x="560" 
d="M163 710h58q0 -25 16 -40.5t42 -15.5t41 15t15 41h58q0 -52 -33 -83t-82 -31t-82 31.5t-33 82.5zM202 149q-40 0 -40 -23q0 -16 10.5 -21.5t29.5 -5.5h163q74 0 115.5 -39.5t41.5 -117.5v-58q0 -116 -99 -145q-29 -9 -67 -9h-150q-117 0 -153 86q-13 29 -13 68v67l47 49
q-31 17 -45 57q-7 21 -7 50t15.5 54.5t46.5 35.5q-30 19 -44 60t-14 87q0 189 184 189h323v-83l-59 -18q0 -1 3 -8.5t3.5 -9t3 -8.5t3.5 -11t2.5 -12t2.5 -16q2 -22 2 -43.5t-4.5 -44.5t-17 -47.5t-31.5 -41.5q-45 -41 -129 -41h-123zM181 -99q0 -36 15.5 -47.5t47.5 -11.5
h82q35 0 46 14.5t11 41.5v39q0 24 -12 36t-40 13h-108l-42 3v-88zM179 344q0 -82 64 -82h56q68 0 68 78q0 45 -16 62.5t-53 17.5h-53q-39 0 -52.5 -20.5t-13.5 -55.5z" />
    <glyph glyph-name="Gdotaccent" unicode="&#x120;" horiz-adv-x="614" 
d="M266 823v76q0 25 24 25h72q11 0 17 -7t6 -18v-76q0 -23 -23 -23h-72q-10 0 -17 6.5t-7 16.5zM46.5 249.5q-4.5 51.5 -4.5 120t5.5 121t21 101t42.5 80.5q57 68 170 68q85 0 144.5 -6.5t136.5 -25.5v-109q-1 0 -16.5 2t-41 4.5t-55.5 4.5q-72 6 -135 6q-80 0 -106 -53.5
t-26 -196.5t24 -191q25 -49 102 -49q30 0 61.5 11.5t47.5 22.5l16 12v131h-102v89q59 24 174 24q32 0 68 -2v-414h-100l-38 49q-35 -33 -75 -43q-109 -27 -184 6q-44 19 -69.5 51t-40.5 83.5t-19.5 103z" />
    <glyph glyph-name="gdotaccent" unicode="&#x121;" horiz-adv-x="560" 
d="M221 620v76q0 25 24 25h72q11 0 17 -7t6 -18v-76q0 -23 -23 -23h-72q-10 0 -17 6.5t-7 16.5zM202 149q-40 0 -40 -23q0 -16 10.5 -21.5t29.5 -5.5h163q74 0 115.5 -39.5t41.5 -117.5v-58q0 -116 -99 -145q-29 -9 -67 -9h-150q-117 0 -153 86q-13 29 -13 68v67l47 49
q-31 17 -45 57q-7 21 -7 50t15.5 54.5t46.5 35.5q-30 19 -44 60t-14 87q0 189 184 189h323v-83l-59 -18q0 -1 3 -8.5t3.5 -9t3 -8.5t3.5 -11t2.5 -12t2.5 -16q2 -22 2 -43.5t-4.5 -44.5t-17 -47.5t-31.5 -41.5q-45 -41 -129 -41h-123zM181 -99q0 -36 15.5 -47.5t47.5 -11.5
h82q35 0 46 14.5t11 41.5v39q0 24 -12 36t-40 13h-108l-42 3v-88zM179 344q0 -82 64 -82h56q68 0 68 78q0 45 -16 62.5t-53 17.5h-53q-39 0 -52.5 -20.5t-13.5 -55.5z" />
    <glyph glyph-name="Gcommaaccent" unicode="&#x122;" horiz-adv-x="614" 
d="M253 -179v78q0 24 23 24h75q22 0 22 -24v-111q0 -28 -12 -45.5t-29 -22.5q-21 -6 -37.5 -6t-24.5 2l-12 3v44q12 -1 19 3q9 6 9 20v12h-10q-23 0 -23 23zM46.5 249.5q-4.5 51.5 -4.5 120t5.5 121t21 101t42.5 80.5q57 68 170 68q85 0 144.5 -6.5t136.5 -25.5v-109
q-1 0 -16.5 2t-41 4.5t-55.5 4.5q-72 6 -135 6q-80 0 -106 -53.5t-26 -196.5t24 -191q25 -49 102 -49q30 0 61.5 11.5t47.5 22.5l16 12v131h-102v89q59 24 174 24q32 0 68 -2v-414h-100l-38 49q-35 -33 -75 -43q-109 -27 -184 6q-44 19 -69.5 51t-40.5 83.5t-19.5 103z" />
    <glyph glyph-name="gcommaaccent" unicode="&#x123;" horiz-adv-x="560" 
d="M216 617v111q0 28 12 45.5t28 22.5q21 6 37.5 6t25.5 -2l12 -3v-43q-12 0 -19 -4q-9 -6 -9 -19v-13h10q22 0 22 -22v-79q0 -24 -22 -24h-76q-21 0 -21 24zM35 102q0 36 15.5 62t46.5 33q-30 19 -44 60t-14 87q0 189 184 189h323v-83l-59 -18q0 -1 3 -8.5t3.5 -9t3 -8.5
t3.5 -11t2.5 -12t2.5 -16q2 -22 2 -43.5t-4.5 -44.5t-17 -47.5t-31.5 -41.5q-45 -41 -129 -41h-123q-40 0 -40 -24q0 -11 6.5 -17t12.5 -7t21 -3l160 -19q79 -8 119.5 -43.5t40.5 -118.5v-33q0 -116 -99 -145q-29 -9 -67 -9h-150q-117 0 -153 86q-13 29 -13 68v73l52 48
q-57 31 -57 97zM181 -99q0 -36 15.5 -47t46.5 -11h83q35 0 46 14t11 41v20q0 42 -61 49l-141 17v-83zM245 426q-66 0 -66 -85t64 -85h56q68 0 68 84q0 48 -16 67t-53 19h-53z" />
    <glyph glyph-name="Hcircumflex" unicode="&#x124;" horiz-adv-x="636" 
d="M172 797l108 135h104l96 -135h-92l-59 60l-63 -60h-94zM61 0v732h140v-314h251v314h140v-732h-140v290h-251v-290h-140z" />
    <glyph glyph-name="hcircumflex" unicode="&#x125;" 
d="M-78 843l107 135h104l97 -135h-93l-59 60l-62 -60h-94zM3 0v783h140v-309q71 52 116 61q24 5 53 5q158 0 158 -186v-354h-140v356q0 72 -58 72q-41 0 -68.5 -10.5t-60.5 -35.5v-382h-140z" />
    <glyph glyph-name="Hbar" unicode="&#x126;" horiz-adv-x="686" 
d="M15 516v65h63v151h140v-151h251v151h140v-151h62v-65h-62v-516h-140v290h-251v-290h-140v516h-63zM218 418h251v98h-251v-98z" />
    <glyph glyph-name="hbar" unicode="&#x127;" horiz-adv-x="564" 
d="M376 540q151 0 151 -186v-354h-141v355q-1 38 -15 55.5t-46 17.5q-65 -2 -124 -46v-382h-141v604h-68v66h68v113h141v-113h112v-66h-112v-130q6 4 21.5 14t23 14t21.5 11.5t24 11t24 7.5q25 8 42 8h19z" />
    <glyph glyph-name="Itilde" unicode="&#x128;" horiz-adv-x="245" 
d="M190 887q38 0 88 38l24 -60q-62 -68 -111 -68q-26 0 -60.5 17.5t-48.5 17.5t-23.5 -1.5t-16 -3t-15.5 -6l-13 -6.5t-15.5 -9t-15.5 -9l-24 55q64 70 121 70q24 -1 57 -18t42 -17h11zM61 0v732h140v-732h-140z" />
    <glyph glyph-name="itilde" unicode="&#x129;" horiz-adv-x="230" 
d="M175 686q38 0 88 38l24 -60q-62 -68 -112 -68q-25 0 -60 17.5t-48.5 17.5t-23.5 -1.5t-16 -3t-15 -6l-13 -6.5t-15.5 -9t-15.5 -9l-24 55q64 70 121 70q24 -1 57 -18t42 -17h11zM46 0v531h140v-531h-140z" />
    <glyph glyph-name="Imacron" unicode="&#x12a;" horiz-adv-x="245" 
d="M-15 797v79h292v-79h-292zM61 0v732h140v-732h-140z" />
    <glyph glyph-name="imacron" unicode="&#x12b;" horiz-adv-x="230" 
d="M-30 596v80h292v-80h-292zM46 0v531h140v-531h-140z" />
    <glyph glyph-name="Iogonek" unicode="&#x12e;" horiz-adv-x="245" 
d="M174 -186q-14 -3 -29 -3t-39 7.5t-42 29.5q-26 31 -26 57q0 59 72 95h55q-66 -49 -41 -89q14 -22 50 -21v-76zM61 0v732h140v-732h-140z" />
    <glyph glyph-name="iogonek" unicode="&#x12f;" horiz-adv-x="227" 
d="M154 -186q-13 -3 -28.5 -3t-39 7.5t-41.5 29.5q-26 31 -26 57q0 59 71 95h55q-66 -49 -41 -89q14 -22 50 -21v-76zM38 610v88q0 26 24 26h105q22 0 22 -26v-88q0 -23 -22 -23h-105q-11 0 -17.5 6t-6.5 17zM43 0v531h140v-531h-140z" />
    <glyph glyph-name="Idotaccent" unicode="&#x130;" horiz-adv-x="245" 
d="M71 820v76q0 25 24 25h72q11 0 17 -7t6 -18v-76q0 -23 -23 -23h-72q-10 0 -17 6.5t-7 16.5zM61 0v732h140v-732h-140z" />
    <glyph glyph-name="dotlessi" unicode="&#x131;" horiz-adv-x="230" 
d="M46 0v531h140v-531h-140z" />
    <glyph glyph-name="Jcircumflex" unicode="&#x134;" horiz-adv-x="356" 
d="M87 797l108 135h104l97 -135h-93l-59 60l-63 -60h-94zM259 18q-38 -23 -113.5 -23t-118.5 28l2 109q34 -3 51.5 -3t25.5 1q65 2 66 96v506h140v-567q0 -31 -2.5 -53t-15 -50.5t-35.5 -43.5z" />
    <glyph glyph-name="jcircumflex" unicode="&#x135;" horiz-adv-x="242" 
d="M-30 596l108 149h103l97 -149h-88l-65 69l-66 -69h-89zM54 -270v801h142v-535v-16q0 -160 -37 -250h-105z" />
    <glyph glyph-name="Kcommaaccent" unicode="&#x136;" horiz-adv-x="628" 
d="M253 -174v78q0 24 22 24h76q21 0 21 -24v-111q0 -28 -11.5 -45.5t-28.5 -22.5q-21 -6 -37.5 -6t-25.5 2l-12 3v44q12 -1 19 3q9 6 9 19v13h-10q-22 0 -22 23zM61 0v732h134v-306h59l186 306h163l-224 -367l224 -365h-163l-186 302h-58v-302h-135z" />
    <glyph glyph-name="kcommaaccent" unicode="&#x137;" horiz-adv-x="557" 
d="M215 -174v78q0 24 23 24h76q21 0 21 -24v-111q0 -28 -12 -45.5t-29 -22.5q-20 -6 -36.5 -6t-25.5 2l-12 3v44q12 -1 19 3q9 6 9 19v13h-10q-23 0 -23 23zM46 0v782h140v-429h29l150 178h178l-199 -231l199 -300h-167l-161 246h-29v-246h-140z" />
    <glyph glyph-name="kgreenlandic" unicode="&#x138;" horiz-adv-x="569" 
d="M46 0v531h140v-215h51l149 215h168l-191 -267l172 -264h-164l-137 210h-47l-1 -210h-140z" />
    <glyph glyph-name="Lacute" unicode="&#x139;" horiz-adv-x="539" 
d="M85 797l91 139h122l-122 -139h-91zM61 142v590h140v-551q0 -38 21 -46q15 -6 41 -6h251v-129h-301q-152 0 -152 142z" />
    <glyph glyph-name="lacute" unicode="&#x13a;" horiz-adv-x="313" 
d="M84 843l91 139h122l-122 -139h-91zM46 189v594h140v-572q0 -53 11 -74t35 -30q60 -21 67 -21v-86h-116q-68 0 -102.5 43.5t-34.5 145.5z" />
    <glyph glyph-name="Lcommaaccent" unicode="&#x13b;" horiz-adv-x="539" 
d="M234 -172v79q0 24 23 24h75q22 0 22 -24v-111q0 -28 -12 -45.5t-29 -22.5q-21 -6 -37.5 -6t-25.5 2l-11 3v43q12 0 19 4q8 6 8 19v13h-9q-23 0 -23 22zM61 142v590h140v-551q0 -38 21 -46q15 -6 41 -6h251v-129h-301q-152 0 -152 142z" />
    <glyph glyph-name="lcommaaccent" unicode="&#x13c;" horiz-adv-x="313" 
d="M112 -172v78q0 24 22 24h76q21 0 21 -24v-111q0 -28 -11.5 -45t-28.5 -22q-21 -6 -37.5 -6t-25.5 2l-12 2v44q13 -1 19 4q9 5 9 19v12h-10q-22 0 -22 23zM46 189v594h140v-572q0 -53 11 -74t35 -30q60 -21 67 -21v-86h-116q-68 0 -102.5 43.5t-34.5 145.5z" />
    <glyph glyph-name="Lcaron" unicode="&#x13d;" horiz-adv-x="539" 
d="M61 142v590h140v-551q0 -38 21 -46q15 -6 41 -6h251v-129h-301q-152 0 -152 142zM263 772h96v-67l-10 -134h-75l-11 134v67z" />
    <glyph glyph-name="lcaron" unicode="&#x13e;" horiz-adv-x="358" 
d="M46 189v594h140v-572q0 -54 10 -74t36 -30q60 -21 67 -21v-86h-116q-72 0 -104.5 42.5t-32.5 146.5zM251 782h96v-67l-10 -134h-75l-11 134v67z" />
    <glyph glyph-name="Lslash" unicode="&#x141;" horiz-adv-x="570" 
d="M92 732h140v-262l113 48l-1 -71l-112 -49v-217q0 -38 21 -46q16 -6 41 -6h251v-129h-300q-153 0 -153 142v196l-78 -33v72l78 33v322z" />
    <glyph glyph-name="lslash" unicode="&#x142;" horiz-adv-x="357" 
d="M86 783h140v-269l115 50v-72l-115 -50v-231q0 -53 11 -74t35 -30q60 -21 67 -21v-86h-116q-68 0 -102.5 43.5t-34.5 145.5v194l-75 -33v72l75 32v329z" />
    <glyph glyph-name="Nacute" unicode="&#x143;" horiz-adv-x="678" 
d="M306 797l90 139h123l-122 -139h-91zM61 0v732h142l290 -473v473h140v-732h-140l-291 468v-468h-141z" />
    <glyph glyph-name="nacute" unicode="&#x144;" 
d="M232 600l91 138h122l-122 -138h-91zM46 0v531h112l28 -57q73 53 116 61q23 5 52 5q159 0 159 -186v-354h-140v356q0 72 -59 72q-40 0 -68 -10.5t-60 -35.5v-382h-140z" />
    <glyph glyph-name="Ncommaaccent" unicode="&#x145;" horiz-adv-x="678" 
d="M283 -174v78q0 24 23 24h76q21 0 21 -24v-111q0 -28 -12 -45.5t-29 -22.5q-20 -6 -36.5 -6t-25.5 2l-12 3v44q12 -1 19 3q9 6 9 19v13h-10q-23 0 -23 23zM61 0v732h142l290 -473v473h140v-732h-140l-291 468v-468h-141z" />
    <glyph glyph-name="ncommaaccent" unicode="&#x146;" 
d="M216 -174v78q0 24 23 24h75q22 0 22 -24v-111q0 -28 -12 -45.5t-29 -22.5q-21 -6 -37.5 -6t-24.5 2l-12 3v44q12 -1 19 3q9 6 9 19v13h-10q-23 0 -23 23zM46 0v531h112l28 -57q73 53 116 61q23 5 52 5q159 0 159 -186v-354h-140v356q0 72 -59 72q-40 0 -68 -10.5
t-60 -35.5v-382h-140z" />
    <glyph glyph-name="Ncaron" unicode="&#x147;" horiz-adv-x="678" 
d="M197 932h94l63 -60l58 60h94l-102 -135h-104zM61 0v732h142l290 -473v473h140v-732h-140l-291 468v-468h-141z" />
    <glyph glyph-name="ncaron" unicode="&#x148;" 
d="M130 736h93l63 -60l59 60h93l-101 -136h-104zM46 0v531h112l28 -57q73 53 116 61q23 5 52 5q159 0 159 -186v-354h-140v356q0 72 -59 72q-40 0 -68 -10.5t-60 -35.5v-382h-140z" />
    <glyph glyph-name="Eng" unicode="&#x14a;" horiz-adv-x="677" 
d="M61 0v732h142l289 -469v469h140v-805q0 -101 -54.5 -142.5t-125.5 -41.5h-29.5h-42.5v101q4 1 19.5 3t21 2.5t18.5 4t18 7t13.5 10.5t12.5 15q9 23 9 50v64l-290 468l-1 -468h-140z" />
    <glyph glyph-name="eng" unicode="&#x14b;" horiz-adv-x="557" 
d="M354 540q159 0 159 -186v-354l-1 -68q-2 -77 -38 -121q-37 -43 -79 -59q-42 -15 -79 -20l-36 76q58 23 74 47q18 28 19 73v428q0 72 -59 72q-40 0 -68 -10.5t-60 -35.5v-382h-140v531h112l28 -57q9 6 29 19t30.5 19t28.5 14q33 14 80 14z" />
    <glyph glyph-name="Omacron" unicode="&#x14c;" horiz-adv-x="671" 
d="M198 797v79h292v-79h-292zM54 261q-4 45 -4 108.5t7.5 120t20.5 96t35 67.5t44.5 44t55.5 25q52 15 109.5 15t84 -2t56 -8.5t50.5 -18.5t42.5 -30.5t35.5 -47t25 -65.5q22 -74 22 -173t-7.5 -152.5t-19.5 -92t-32.5 -66t-43 -44t-54.5 -25.5q-74 -22 -195 -14
q-62 3 -90 15t-48.5 25.5t-34.5 33t-27 47t-20.5 62.5t-11.5 80zM193 448q-3 -37 -3 -93t4 -95.5t13.5 -67.5t28.5 -42q34 -25 108 -25q70 0 105 26q49 37 49 210q0 117 -12.5 155t-23 54t-29.5 25q-31 13 -73 13t-58.5 -1.5t-35 -6.5t-29 -15.5t-21 -28.5t-15.5 -44.5
t-8 -63.5z" />
    <glyph glyph-name="omacron" unicode="&#x14d;" horiz-adv-x="560" 
d="M134 596v80h292v-80h-292zM38 255q0 69 8 115.5t25 79t47 51.5q55 35 162 35q137 0 189.5 -60t52.5 -213.5t-51.5 -210.5t-190.5 -57q-136 0 -190 61q-52 59 -52 199zM182 346.5q-4 -31.5 -4 -85.5t5 -84t18.5 -45.5t30.5 -19.5t46 -4t43.5 2t28 10t19.5 25
q13 36 13 93.5t-1.5 83.5t-6.5 45t-11.5 29.5t-18.5 17.5q-20 10 -59 10t-56.5 -5t-30 -23t-16.5 -49.5z" />
    <glyph glyph-name="Ohungarumlaut" unicode="&#x150;" horiz-adv-x="671" 
d="M221 797l90 139h123l-122 -139h-91zM376 797l91 139h123l-122 -139h-92zM54 261q-4 45 -4 108.5t7.5 120t20.5 96t35 67.5t44.5 44t55.5 25q52 15 109.5 15t84 -2t56 -8.5t50.5 -18.5t42.5 -30.5t35.5 -47t25 -65.5q22 -74 22 -173t-7.5 -152.5t-19.5 -92t-32.5 -66
t-43 -44t-54.5 -25.5q-74 -22 -195 -14q-62 3 -90 15t-48.5 25.5t-34.5 33t-27 47t-20.5 62.5t-11.5 80zM193 448q-3 -37 -3 -93t4 -95.5t13.5 -67.5t28.5 -42q34 -25 108 -25q70 0 105 26q49 37 49 210q0 117 -12.5 155t-23 54t-29.5 25q-31 13 -73 13t-58.5 -1.5t-35 -6.5
t-29 -15.5t-21 -28.5t-15.5 -44.5t-8 -63.5z" />
    <glyph glyph-name="ohungarumlaut" unicode="&#x151;" horiz-adv-x="560" 
d="M157 596l90 138h123l-122 -138h-91zM313 596l90 138h123l-122 -138h-91zM38 255q0 69 8 115.5t25 79t47 51.5q55 35 162 35q137 0 189.5 -60t52.5 -213.5t-51.5 -210.5t-190.5 -57q-136 0 -190 61q-52 59 -52 199zM182 346.5q-4 -31.5 -4 -85.5t5 -84t18.5 -45.5
t30.5 -19.5t46 -4t43.5 2t28 10t19.5 25q13 36 13 93.5t-1.5 83.5t-6.5 45t-11.5 29.5t-18.5 17.5q-20 10 -59 10t-56.5 -5t-30 -23t-16.5 -49.5z" />
    <glyph glyph-name="OE" unicode="&#x152;" horiz-adv-x="1008" 
d="M193 448q-3 -37 -3 -93t4 -95.5t13.5 -67.5t28.5 -42q34 -25 101.5 -25t99 18t46 68.5t14.5 128.5t-3.5 118.5t-12 68t-19 43.5t-30.5 25q-30 13 -72.5 13t-59 -1.5t-34.5 -6.5t-28.5 -15.5t-21 -28.5t-15.5 -44.5t-8 -63.5zM54 261q-4 45 -4 108.5t7.5 120t20.5 96
t34.5 67.5t44.5 44t55 25q52 15 114 15t93 -3q75 -8 119 -47q35 45 106 45q6 0 132.5 -3.5t191.5 -12.5v-116h-279q-37 0 -46 -18q-6 -14 -6 -38v-114l285 -10v-116l-285 -9v-114q0 -38 21 -46q16 -6 41 -6h269v-115q-51 -7 -239 -14l-63 -3h-17q-80 0 -115 45
q-34 -26 -79.5 -36t-94.5 -10t-74 1.5t-52 6t-47 13t-40 22t-34 33t-27 47t-20.5 62.5t-11.5 80z" />
    <glyph glyph-name="oe" unicode="&#x153;" horiz-adv-x="868" 
d="M50 136.5q-12 48.5 -12 126t12 130.5t42 85t74.5 45t113.5 13q116 0 167 -45q25 25 64 34.5t92 9.5t81 -2t56 -9t44 -20t30 -34q24 -39 24 -129q0 -91 -66 -119q-33 -14 -82 -14h-168v-19t5.5 -35.5t21.5 -29.5q25 -17 85 -17q123 0 195 10v-94q-54 -20 -116 -23
q-81 -5 -157.5 -5t-112.5 41q-50 -41 -163 -41q-136 0 -190 61q-28 32 -40 80.5zM182 346.5q-4 -31.5 -4 -85.5t5 -84t18.5 -45.5t30.5 -20t45 -4.5t43.5 2.5t27.5 10t18 17.5t10 30q6 30 6 91t-4 89.5t-15.5 46.5t-30 23.5t-52.5 5.5t-51.5 -4.5t-30 -22.5t-16.5 -49.5z
M698 349q0 50 -13 64.5t-54 14.5t-57.5 -3t-30.5 -15t-17.5 -33t-3.5 -39.5v-28.5h132q44 0 44 40z" />
    <glyph glyph-name="Racute" unicode="&#x154;" horiz-adv-x="607" 
d="M259 795l90 138h123l-122 -138h-91zM51 0v732h320q146 0 185 -119q15 -46 15 -96.5t-5 -81t-11 -51t-17.5 -37.5t-20 -25.5t-22.5 -16.5q-17 -9 -41 -17l139 -288h-158l-121 277l-123 14v-291h-140zM192 401h166q39 0 55.5 20t16.5 81t-18 83.5t-54 22.5h-166v-207z" />
    <glyph glyph-name="racute" unicode="&#x155;" horiz-adv-x="417" 
d="M185 597l90 138h123l-122 -138h-91zM46 0v531h118l22 -67q75 72 152 72q43 0 59 -6v-135q-28 3 -76 3t-79.5 -12.5t-55.5 -46.5v-339h-140z" />
    <glyph glyph-name="Rcommaaccent" unicode="&#x156;" horiz-adv-x="607" 
d="M239 -171v79q0 24 22 24h76q22 0 22 -24v-111q0 -28 -12 -45.5t-29 -22.5q-21 -6 -37.5 -6t-25.5 2l-12 3v43q13 0 20 4q8 6 8 19v13h-10q-22 0 -22 22zM51 0v732h320q146 0 185 -119q15 -46 15 -96.5t-5 -81t-11 -51t-17.5 -37.5t-20 -25.5t-22.5 -16.5q-17 -9 -41 -17
l139 -288h-158l-121 277l-123 14v-291h-140zM192 401h166q39 0 55.5 20t16.5 81t-18 83.5t-54 22.5h-166v-207z" />
    <glyph glyph-name="rcommaaccent" unicode="&#x157;" horiz-adv-x="417" 
d="M48 -174v78q0 24 22 24h76q22 0 22 -24v-111q0 -28 -12 -45.5t-29 -22.5q-21 -6 -37.5 -6t-25.5 2l-12 3v44q13 -1 20 3q8 6 8 19v13h-10q-22 0 -22 23zM41 0v531h118l22 -67q75 72 153 72q42 0 59 -6v-135q-29 3 -77 3t-79 -12.5t-56 -46.5v-339h-140z" />
    <glyph glyph-name="Rcaron" unicode="&#x158;" horiz-adv-x="607" 
d="M151 932h93l63 -60l59 60h93l-101 -135h-104zM51 0v732h320q146 0 185 -119q15 -46 15 -96.5t-5 -81t-11 -51t-17.5 -37.5t-20 -25.5t-22.5 -16.5q-17 -9 -41 -17l139 -288h-158l-121 277l-123 14v-291h-140zM192 401h166q39 0 55.5 20t16.5 81t-18 83.5t-54 22.5h-166
v-207z" />
    <glyph glyph-name="rcaron" unicode="&#x159;" horiz-adv-x="417" 
d="M67 732h94l63 -60l58 60h94l-102 -136h-104zM46 0v531h118l22 -67q75 72 152 72q43 0 59 -6v-135q-28 3 -76 3t-79.5 -12.5t-55.5 -46.5v-339h-140z" />
    <glyph glyph-name="Sacute" unicode="&#x15a;" horiz-adv-x="590" 
d="M261 798l91 139h122l-122 -139h-91zM50 486v63q0 105 57 149q52 39 141 40h50.5t113 -8t119.5 -21v-110q-114 10 -181.5 10h-72.5q-45 0 -66 -12t-21 -59v-36q0 -42 17 -56t61 -14h116q114 0 153 -91q20 -46 20 -103v-49q0 -134 -89 -175q-46 -22 -113 -22
q-181 0 -283 30v110q110 -11 190 -11t91 1t23.5 5t21.5 11q19 15 19 46v39q0 35 -14 52t-52 17h-112q-189 0 -189 194z" />
    <glyph glyph-name="sacute" unicode="&#x15b;" horiz-adv-x="508" 
d="M211 598l90 139h123l-122 -139h-91zM30 347v46q0 143 138 143q237 0 284 -27v-88h-241q-25 0 -33 -8t-8 -29v-24q0 -16 6 -23.5t13.5 -9t21.5 -1.5h126q72 0 106.5 -37.5t34.5 -100.5v-54q0 -75 -37 -107t-93 -32q-252 0 -296 29v87h251q35 0 35 34v25q0 23 -10.5 28.5
t-24.5 5.5h-124q-149 0 -149 143z" />
    <glyph glyph-name="Scircumflex" unicode="&#x15c;" horiz-adv-x="590" 
d="M155 798l108 136h104l97 -136h-93l-59 60l-63 -60h-94zM50 486v63q0 105 57 149q52 39 141 40h50.5t113 -8t119.5 -21v-110q-114 10 -181.5 10h-72.5q-45 0 -66 -12t-21 -59v-36q0 -42 17 -56t61 -14h116q114 0 153 -91q20 -46 20 -103v-49q0 -134 -89 -175
q-46 -22 -113 -22q-181 0 -283 30v110q110 -11 190 -11t91 1t23.5 5t21.5 11q19 15 19 46v39q0 35 -14 52t-52 17h-112q-189 0 -189 194z" />
    <glyph glyph-name="scircumflex" unicode="&#x15d;" horiz-adv-x="508" 
d="M101 596l108 136h104l96 -136h-93l-58 60l-63 -60h-94zM30 347v46q0 143 138 143q237 0 284 -27v-88h-241q-25 0 -33 -8t-8 -29v-24q0 -16 6 -23.5t13.5 -9t21.5 -1.5h126q72 0 106.5 -37.5t34.5 -100.5v-54q0 -75 -37 -107t-93 -32q-252 0 -296 29v87h251q35 0 35 34v25
q0 23 -10.5 28.5t-24.5 5.5h-124q-149 0 -149 143z" />
    <glyph glyph-name="Scedilla" unicode="&#x15e;" horiz-adv-x="590" 
d="M270 -44h94q0 -78 -24 -109.5t-88 -31.5h-56v60l44 15q20 8 25 21.5t5 44.5zM50 486v63q0 105 57 149q52 39 141 40h50.5t113 -8t119.5 -21v-110q-114 10 -181.5 10h-72.5q-45 0 -66 -12t-21 -59v-36q0 -42 17 -56t61 -14h116q114 0 153 -91q20 -46 20 -103v-49
q0 -134 -89 -175q-46 -22 -113 -22q-181 0 -283 30v110q110 -11 190 -11t91 1t23.5 5t21.5 11q19 15 19 46v39q0 35 -14 52t-52 17h-112q-189 0 -189 194z" />
    <glyph glyph-name="scedilla" unicode="&#x15f;" horiz-adv-x="508" 
d="M156 -38h95q0 -78 -24 -109.5t-88 -31.5h-57v60l45 15q19 8 24 21.5t5 44.5zM30 347v46q0 143 138 143q237 0 284 -27v-88h-241q-25 0 -33 -8t-8 -29v-24q0 -16 6 -23.5t13.5 -9t21.5 -1.5h126q72 0 106.5 -37.5t34.5 -100.5v-54q0 -75 -37 -107t-93 -32q-252 0 -296 29
v87h251q35 0 35 34v25q0 23 -10.5 28.5t-24.5 5.5h-124q-149 0 -149 143z" />
    <glyph glyph-name="Scaron" unicode="&#x160;" horiz-adv-x="590" 
d="M155 934h94l63 -60l58 60h94l-102 -136h-104zM50 486v63q0 105 57 149q52 39 141 40h50.5t113 -8t119.5 -21v-110q-114 10 -181.5 10h-72.5q-45 0 -66 -12t-21 -59v-36q0 -42 17 -56t61 -14h116q114 0 153 -91q20 -46 20 -103v-49q0 -134 -89 -175q-46 -22 -113 -22
q-181 0 -283 30v110q110 -11 190 -11t91 1t23.5 5t21.5 11q19 15 19 46v39q0 35 -14 52t-52 17h-112q-189 0 -189 194z" />
    <glyph glyph-name="scaron" unicode="&#x161;" horiz-adv-x="508" 
d="M106 734h93l63 -60l59 60h93l-102 -136h-104zM30 347v46q0 143 138 143q237 0 284 -27v-88h-241q-25 0 -33 -8t-8 -29v-24q0 -16 6 -23.5t13.5 -9t21.5 -1.5h126q72 0 106.5 -37.5t34.5 -100.5v-54q0 -75 -37 -107t-93 -32q-252 0 -296 29v87h251q35 0 35 34v25
q0 23 -10.5 28.5t-24.5 5.5h-124q-149 0 -149 143z" />
    <glyph glyph-name="Tcommaaccent" unicode="&#x162;" horiz-adv-x="593" 
d="M169 -42h94q0 -78 -24 -110t-88 -32h-56v60l44 15q19 9 24.5 22t5.5 45zM31 603v129h541v-129h-203v-603h-140v603h-198z" />
    <glyph glyph-name="tcommaaccent" unicode="&#x163;" horiz-adv-x="381" 
d="M131 -43h94q0 -78 -24 -110t-88 -32h-56v60l44 15q20 9 25 22t5 45zM15 425v78l86 29l23 148h117v-148h119v-107h-119v-213q0 -54 11 -75t34 -30q60 -21 67 -21v-86h-122q-130 0 -130 190v235h-86z" />
    <glyph glyph-name="Tcaron" unicode="&#x164;" horiz-adv-x="593" 
d="M143 932h93l63 -60l59 60h94l-102 -135h-104zM31 603v129h541v-129h-203v-603h-140v603h-198z" />
    <glyph glyph-name="tcaron" unicode="&#x165;" horiz-adv-x="413" 
d="M15 425v78l86 29l23 148h117v-148h119v-107h-119v-213q0 -54 11 -75t34 -30q60 -21 67 -21v-86h-122q-130 0 -130 190v235h-86zM391 801v-67l-11 -134h-74l-11 134l-1 67h97z" />
    <glyph glyph-name="Tbar" unicode="&#x166;" horiz-adv-x="584" 
d="M22 603v129h541v-129h-204v-170h98v-65h-98v-368h-140v368h-98v65h98v170h-197z" />
    <glyph glyph-name="tbar" unicode="&#x167;" horiz-adv-x="374" 
d="M15 425v78l86 29l23 148h117v-148h119v-107h-119v-103h82v-65h-82v-45q0 -74 19 -91q9 -8 47 -21t42 -13v-87h-117q-67 0 -99 43.5t-32 146.5v67h-71v65h71v103h-86z" />
    <glyph glyph-name="Utilde" unicode="&#x168;" horiz-adv-x="664" 
d="M399 884q39 0 89 39l24 -60q-63 -68 -112 -68q-26 0 -60.5 17.5t-48.5 17.5t-23.5 -1.5t-15.5 -3t-15.5 -6t-13.5 -6.5t-15.5 -9t-14.5 -9l-25 55q64 70 121 70q25 -1 58 -18t41.5 -17.5t10.5 -0.5zM343 -5h-14q-120 0 -160 25q-18 12 -42 35.5t-36 57.5q-30 84 -30 207
v412h140v-412q0 -96 19 -141q17 -40 67 -51q22 -4 63.5 -4t69.5 15q59 32 59 181v412h141v-412q0 -157 -46 -228q-15 -25 -29.5 -40.5t-37 -27t-38.5 -17t-43 -8.5q-34 -4 -83 -4z" />
    <glyph glyph-name="utilde" unicode="&#x169;" 
d="M330 686q39 0 89 38l24 -60q-62 -68 -112 -68q-25 0 -60 17.5t-49 17.5t-23.5 -1.5t-15.5 -3t-15.5 -6t-13 -6.5t-15 -9t-15.5 -9l-24 55q63 70 120 70q25 -1 58 -18t42 -17h10zM38 178v353h140v-356q0 -71 59 -71q40 0 67.5 10t60.5 36v381h140v-531h-113l-27 56
q-9 -5 -25 -15t-25 -15.5t-23.5 -13t-27.5 -11.5q-31 -10 -68 -10q-158 0 -158 187z" />
    <glyph glyph-name="Umacron" unicode="&#x16a;" horiz-adv-x="664" 
d="M194 797v79h292v-79h-292zM343 -5h-14q-120 0 -160 25q-18 12 -42 35.5t-36 57.5q-30 84 -30 207v412h140v-412q0 -96 19 -141q17 -40 67 -51q22 -4 63.5 -4t69.5 15q59 32 59 181v412h141v-412q0 -157 -46 -228q-15 -25 -29.5 -40.5t-37 -27t-38.5 -17t-43 -8.5
q-34 -4 -83 -4z" />
    <glyph glyph-name="umacron" unicode="&#x16b;" 
d="M125 596v80h292v-80h-292zM38 178v353h140v-356q0 -71 59 -71q40 0 67.5 10t60.5 36v381h140v-531h-113l-27 56q-9 -5 -25 -15t-25 -15.5t-23.5 -13t-27.5 -11.5q-31 -10 -68 -10q-158 0 -158 187z" />
    <glyph glyph-name="Ubreve" unicode="&#x16c;" horiz-adv-x="664" 
d="M225 911h58q0 -25 16 -40.5t42 -15.5t41 15t15 41h58q0 -52 -33 -83t-82 -31t-82 31.5t-33 82.5zM343 -5h-14q-120 0 -160 25q-18 12 -42 35.5t-36 57.5q-30 84 -30 207v412h140v-412q0 -96 19 -141q17 -40 67 -51q22 -4 63.5 -4t69.5 15q59 32 59 181v412h141v-412
q0 -157 -46 -228q-15 -25 -29.5 -40.5t-37 -27t-38.5 -17t-43 -8.5q-34 -4 -83 -4z" />
    <glyph glyph-name="ubreve" unicode="&#x16d;" 
d="M160 710h58q0 -25 15.5 -40.5t42 -15.5t41.5 15t15 41h58q0 -52 -33 -83t-82 -31t-82 31.5t-33 82.5zM38 178v353h140v-356q0 -71 59 -71q40 0 67.5 10t60.5 36v381h140v-531h-113l-27 56q-9 -5 -25 -15t-25 -15.5t-23.5 -13t-27.5 -11.5q-31 -10 -68 -10
q-158 0 -158 187z" />
    <glyph glyph-name="Uring" unicode="&#x16e;" horiz-adv-x="664" 
d="M239 899q0 28 13.5 51.5t37 37.5t58.5 14t64.5 -30t29.5 -73t-29.5 -72.5t-64.5 -29.5t-58.5 13.5t-37 37t-13.5 51.5zM310 929.5q-13 -12.5 -13 -26t3.5 -21.5t9.5 -13q13 -12 31 -12t30 12t12 30t-12 30.5t-30 12.5t-31 -12.5zM343 -5h-14q-120 0 -160 25
q-18 12 -42 35.5t-36 57.5q-30 84 -30 207v412h140v-412q0 -96 19 -141q17 -40 67 -51q22 -4 63.5 -4t69.5 15q59 32 59 181v412h141v-412q0 -157 -46 -228q-15 -25 -29.5 -40.5t-37 -27t-38.5 -17t-43 -8.5q-34 -4 -83 -4z" />
    <glyph glyph-name="uring" unicode="&#x16f;" 
d="M170 698q0 28 13.5 51.5t37 37.5t51 14t51 -14t37 -37.5t13.5 -51.5t-13.5 -51.5t-37 -37t-51 -13.5t-51 13.5t-37 37t-13.5 51.5zM228 698q0 -18 13 -30t31 -12t30 12t12 27t-5 25q-12 21 -33.5 21t-34.5 -12.5t-13 -30.5zM38 178v353h140v-356q0 -71 59 -71
q40 0 67.5 10t60.5 36v381h140v-531h-113l-27 56q-9 -5 -25 -15t-25 -15.5t-23.5 -13t-27.5 -11.5q-31 -10 -68 -10q-158 0 -158 187z" />
    <glyph glyph-name="Uhungarumlaut" unicode="&#x170;" horiz-adv-x="664" 
d="M217 797l90 139h123l-122 -139h-91zM373 797l90 139h123l-122 -139h-91zM343 -5h-14q-120 0 -160 25q-18 12 -42 35.5t-36 57.5q-30 84 -30 207v412h140v-412q0 -96 19 -141q17 -40 67 -51q22 -4 63.5 -4t69.5 15q59 32 59 181v412h141v-412q0 -157 -46 -228
q-15 -25 -29.5 -40.5t-37 -27t-38.5 -17t-43 -8.5q-34 -4 -83 -4z" />
    <glyph glyph-name="uhungarumlaut" unicode="&#x171;" 
d="M148 596l90 138h123l-122 -138h-91zM304 596l90 138h123l-122 -138h-91zM38 178v353h140v-356q0 -71 59 -71q40 0 67.5 10t60.5 36v381h140v-531h-113l-27 56q-9 -5 -25 -15t-25 -15.5t-23.5 -13t-27.5 -11.5q-31 -10 -68 -10q-158 0 -158 187z" />
    <glyph glyph-name="Uogonek" unicode="&#x172;" horiz-adv-x="664" 
d="M378 -188q-13 -4 -28.5 -4t-39.5 8t-41 30q-26 31 -26 57q0 59 71 95h55q-66 -49 -41 -89q14 -22 50 -21v-76zM343 -5h-14q-120 0 -160 25q-18 12 -42 35.5t-36 57.5q-30 84 -30 207v412h140v-412q0 -96 19 -141q17 -40 67 -51q22 -4 63.5 -4t69.5 15q59 32 59 181v412
h141v-412q0 -157 -46 -228q-15 -25 -29.5 -40.5t-37 -27t-38.5 -17t-43 -8.5q-34 -4 -83 -4z" />
    <glyph glyph-name="uogonek" unicode="&#x173;" 
d="M487 -188q-13 -3 -28.5 -3t-39.5 7.5t-41 29.5q-26 32 -26 57q0 60 71 96h55q-66 -50 -41 -90q14 -22 50 -20v-77zM38 178v353h140v-356q0 -71 59 -71q40 0 67.5 10t60.5 36v381h140v-531h-113l-27 56q-9 -5 -25 -15t-25 -15.5t-23.5 -13t-27.5 -11.5q-31 -10 -68 -10
q-158 0 -158 187z" />
    <glyph glyph-name="Wcircumflex" unicode="&#x174;" horiz-adv-x="992" 
d="M359 795l107 135h104l97 -135h-93l-59 60l-62 -60h-94zM34 732h149l162 -543l132 543h150l-51 -189l116 -357l134 546h148l-201 -732h-162l-99 300l-86 -300h-162z" />
    <glyph glyph-name="wcircumflex" unicode="&#x175;" horiz-adv-x="826" 
d="M267 594l108 135h104l97 -135h-93l-59 60l-63 -60h-94zM15 531h150l106 -367l95 367h140l-37 -143l88 -224l105 367h150l-172 -531h-156l-80 192l-60 -192h-159z" />
    <glyph glyph-name="Ycircumflex" unicode="&#x176;" horiz-adv-x="656" 
d="M177 795l108 135h104l97 -135h-93l-59 60l-63 -60h-94zM397 0h-140v227l-223 505h152l143 -351l157 351h152l-241 -505v-227z" />
    <glyph glyph-name="ycircumflex" unicode="&#x177;" horiz-adv-x="578" 
d="M134 596l108 136h104l97 -136h-93l-59 60l-63 -60h-94zM16 531h147l92 -372q5 -18 12 -24t11 -8.5t9.5 -4t8.5 -1.5t7.5 -0.5l4.5 -0.5l106 411h146l-184 -699l-73 -102h-100l75 270q-122 0 -158 135z" />
    <glyph glyph-name="Ydieresis" unicode="&#x178;" horiz-adv-x="656" 
d="M167.5 814.5q-17.5 17.5 -17.5 37.5t8 34q17 28 46 28t46 -16.5t17 -41t-17 -42t-41 -17.5t-41.5 17.5zM405 856q0 24 17.5 41t41.5 17t41 -16.5t17 -41t-17 -42t-41 -17.5t-41.5 17.5t-17.5 41.5zM397 0h-140v227l-223 505h152l143 -351l157 351h152l-241 -505v-227z
" />
    <glyph glyph-name="Zacute" unicode="&#x179;" horiz-adv-x="556" 
d="M233 797l91 139h122l-122 -139h-91zM27 0v129l335 474h-335v129h504v-129l-319 -474h319v-129h-504z" />
    <glyph glyph-name="zacute" unicode="&#x17a;" horiz-adv-x="474" 
d="M192 596l90 138h123l-122 -138h-91zM23 413v118h429v-118l-228 -294h228v-118h-414v117l238 295h-253z" />
    <glyph glyph-name="Zdotaccent" unicode="&#x17b;" horiz-adv-x="556" 
d="M219 820v76q0 25 24 25h72q11 0 17 -7t6 -18v-76q0 -23 -23 -23h-72q-10 0 -17 6.5t-7 16.5zM27 0v129l335 474h-335v129h504v-129l-319 -474h319v-129h-504z" />
    <glyph glyph-name="zdotaccent" unicode="&#x17c;" horiz-adv-x="474" 
d="M178 619v76q0 25 24 25h72q11 0 17 -7t6 -18v-76q0 -23 -23 -23h-72q-11 0 -17.5 6.5t-6.5 16.5zM23 413v118h429v-118l-228 -294h228v-118h-414v117l238 295h-253z" />
    <glyph glyph-name="Zcaron" unicode="&#x17d;" horiz-adv-x="556" 
d="M124 932h94l63 -60l58 60h94l-102 -135h-104zM27 0v129l335 474h-335v129h504v-129l-319 -474h319v-129h-504z" />
    <glyph glyph-name="zcaron" unicode="&#x17e;" horiz-adv-x="474" 
d="M83 732h94l63 -60l58 60h94l-102 -136h-104zM23 413v118h429v-118l-228 -294h228v-118h-414v117l238 295h-253z" />
    <glyph glyph-name="florin" unicode="&#x192;" horiz-adv-x="593" 
d="M91 -92q68 0 93 129q4 21 9 51l45 287h-87l18 107h86l4 24q47 294 202 294q63 0 108 -21q8 -4 9 -4l-13 -87h-60q-56 0 -81 -79q-13 -38 -24 -103l-3 -24h115l-17 -107h-116l-45 -287q-34 -220 -120 -272q-34 -20 -70.5 -20t-62.5 4q-49 8 -66 21l14 87h62z" />
    <glyph glyph-name="circumflex" unicode="&#x2c6;" horiz-adv-x="384" 
d="M38 531l108 135h104l96 -135h-93l-59 60l-62 -60h-94z" />
    <glyph glyph-name="caron" unicode="&#x2c7;" horiz-adv-x="384" 
d="M38 666h93l63 -60l59 60h93l-101 -135h-104z" />
    <glyph glyph-name="breve" unicode="&#x2d8;" horiz-adv-x="304" 
d="M38 644h58q0 -25 15.5 -40.5t42 -15.5t41.5 15t15 41h58q0 -52 -33.5 -83t-82 -31t-81.5 31.5t-33 82.5z" />
    <glyph glyph-name="dotaccent" unicode="&#x2d9;" horiz-adv-x="194" 
d="M38 545v76q0 25 24 25h72q11 0 17 -7t6 -18v-76q0 -23 -23 -23h-72q-11 0 -17.5 6.5t-6.5 16.5z" />
    <glyph glyph-name="ring" unicode="&#x2da;" horiz-adv-x="278" 
d="M38 632q0 28 13.5 51.5t37 37.5t51 14t51 -14t37 -37.5t13.5 -51.5t-13.5 -51.5t-37 -37t-51 -13.5t-51 13.5t-37 37t-13.5 51.5zM109 662.5q-13 -12.5 -13 -27.5t6 -25q13 -20 34.5 -20t33.5 12t12 30t-12 30.5t-30 12.5t-31 -12.5z" />
    <glyph glyph-name="ogonek" unicode="&#x2db;" horiz-adv-x="209" 
d="M172 -186q-14 -4 -29 -4t-39 8t-42 30q-25 31 -25 56q0 60 71 96h55q-66 -50 -41 -89q14 -23 50 -21v-76z" />
    <glyph glyph-name="tilde" unicode="&#x2dc;" horiz-adv-x="419" 
d="M269 621q38 0 88 38l24 -60q-62 -68 -112 -68q-25 0 -60 17.5t-48 17.5t-21 -1t-15 -3t-12 -3.5t-12.5 -5.5t-11.5 -6.5t-13 -7.5t-14 -8l-24 55q64 70 121 70q24 -1 57 -18t42 -17h11z" />
    <glyph glyph-name="hungarumlaut" unicode="&#x2dd;" horiz-adv-x="401" 
d="M15 531l91 139h122l-122 -139h-91zM171 531l90 139h123l-122 -139h-91z" />
    <glyph glyph-name="uni0338" unicode="&#x338;" horiz-adv-x="630" 
d="M53 178v370q0 89 49.5 136.5t134.5 47.5h164q136 0 168 -110q9 -31 9 -68v-376q0 -87 -46.5 -132.5t-131.5 -45.5h-164q-86 0 -134.5 45t-48.5 133zM193 267q0 -37 4 -45l196 377q-10 4 -23 4h-105q-41 0 -56.5 -21.5t-15.5 -49.5v-265zM268 129h97q37 0 55 16t18 55v275
q0 38 -8 48l-200 -386q15 -8 38 -8z" />
    <glyph glyph-name="Omega" unicode="&#x3a9;" horiz-adv-x="763" 
d="M91 581q24 47 60.5 81t96 55.5t123 21.5t108 -10t77.5 -27.5t59 -43t43.5 -55.5t29.5 -65q22 -67 22 -154t-22 -147t-79 -110l106 -10v-117h-250v128q65 50 85 107t20 150q0 183 -128 218q-27 7 -66.5 7t-75 -14t-56 -36t-33.5 -54q-22 -53 -22 -108t1.5 -78t7.5 -50
t18 -48q26 -47 81 -94v-128h-242v118l111 10q-70 45 -93.5 107.5t-23.5 163t42 182.5z" />
    <glyph glyph-name="pi" unicode="&#x3c0;" horiz-adv-x="645" 
d="M15 402v129h567v-129h-91v-214q0 -48 17 -64q15 -15 52 -16h70v-82q-46 -31 -125 -31q-154 0 -154 187v220h-121v-402h-140v402h-75z" />
    <glyph glyph-name="uni1E02" unicode="&#x1e02;" horiz-adv-x="604" 
d="M250 818v76q0 25 24 25h72q11 0 17 -7t6 -18v-76q0 -23 -23 -23h-72q-10 0 -17 6.5t-7 16.5zM61 0v732h302q106 0 156 -54.5t50 -141.5q0 -56 -25 -101.5t-75 -54.5q66 -12 96 -84q16 -36 16 -81q0 -105 -51.5 -160t-164.5 -55h-304zM201 124h159q81 0 81 97q0 45 -20 74
t-61 29h-159v-200zM201 442h153q38 0 57.5 21.5t19.5 64.5t-22 61.5t-55 18.5h-153v-166z" />
    <glyph glyph-name="uni1E03" unicode="&#x1e03;" horiz-adv-x="556" 
d="M51 872v76q0 25 24 25h72q11 0 17 -7t6 -18v-76q0 -23 -23 -23h-72q-11 0 -17.5 6.5t-6.5 16.5zM40 0v785h139v-281q35 16 80.5 25.5t85 9.5t70.5 -13.5t50 -36t30 -58.5q19 -62 19 -179.5t-40 -187.5t-133 -70q-44 0 -88 18t-73 42l-25 -54h-115zM304 114q36 0 53 34.5
t17 110t-8.5 111.5t-23 47.5t-38.5 11.5q-72 0 -124 -20v-263q51 -32 124 -32z" />
    <glyph glyph-name="uni1E0A" unicode="&#x1e0a;" horiz-adv-x="662" 
d="M256 822v76q0 25 24 25h72q11 0 17 -7t6 -18v-76q0 -23 -23 -23h-72q-11 0 -17.5 6.5t-6.5 16.5zM61 0v732h311q254 0 254 -369q0 -228 -109 -316q-58 -47 -145 -47h-311zM201 125h160q125 0 125 239q0 182 -58 225q-26 19 -67 19h-160v-483z" />
    <glyph glyph-name="uni1E0B" unicode="&#x1e0b;" horiz-adv-x="556" 
d="M382 868v76q0 25 24 25h72q11 0 17 -7t6 -18v-76q0 -23 -23 -23h-72q-11 0 -17.5 6.5t-6.5 16.5zM53 420q15 49 34 71q41 48 124 48q36 0 81 -9.5t80 -25.5v281h140v-785h-116l-24 54q-29 -24 -73 -42t-88 -18q-93 0 -133 68.5t-40 188.5t15 169zM178 251q0 -137 70 -137
q73 0 124 32v263q-52 20 -124 20q-35 0 -52 -29q-18 -33 -18 -149z" />
    <glyph glyph-name="uni1E1E" unicode="&#x1e1e;" horiz-adv-x="567" 
d="M255 818v76q0 25 24 25h72q11 0 17 -7t6 -18v-76q0 -23 -23 -23h-72q-11 0 -17.5 6.5t-6.5 16.5zM58 0v578q0 119 101 147q25 7 40 7t145.5 -3.5t194.5 -12.5v-116h-289q-37 0 -46 -18q-6 -14 -6 -38v-114l296 -10v-116l-296 -9v-295h-140z" />
    <glyph glyph-name="uni1E1F" unicode="&#x1e1f;" horiz-adv-x="403" 
d="M186 878v76q0 25 24 25h72q11 0 17 -7t6 -18v-76q0 -23 -23 -23h-72q-11 0 -17.5 6.5t-6.5 16.5zM15 424v90l83 17v99q0 74 36 115t116 41t139 -24v-83l-96 1q-46 1 -52 -30q-3 -17 -3 -53v-66h121v-107h-121v-424h-140v424h-83z" />
    <glyph glyph-name="uni1E40" unicode="&#x1e40;" horiz-adv-x="847" 
d="M363 820v76q0 25 24 25h72q10 0 16.5 -7t6.5 -18v-76q0 -23 -23 -23h-72q-11 0 -17.5 6.5t-6.5 16.5zM42 0l64 732h195l122 -500l121 500h194l68 -732h-138l-48 489l-118 -489h-156l-123 489l-43 -489h-138z" />
    <glyph glyph-name="uni1E41" unicode="&#x1e41;" horiz-adv-x="875" 
d="M399 622v76q0 25 24 25h72q11 0 17 -7t6 -18v-76q0 -23 -23 -23h-72q-10 0 -17 6t-7 17zM509 384l1 -31v-353h-140v354q0 36 -16 54t-49.5 18t-59.5 -10t-59 -35v-381h-140v531h112l28 -57q3 2 20 14t33 22t46.5 19.5t65.5 9.5q103 0 138 -69q94 69 191 69
q158 0 158 -187v-352h-140v354q0 36 -15.5 54t-43.5 18q-80 0 -130 -42z" />
    <glyph glyph-name="uni1E56" unicode="&#x1e56;" horiz-adv-x="602" 
d="M223 823v76q0 25 24 25h72q11 0 17 -7t6 -18v-76q0 -23 -23 -23h-72q-11 0 -17.5 6.5t-6.5 16.5zM51 0v732h315q134 0 179 -95q24 -51 24 -114t-7 -100t-18.5 -62t-28.5 -42.5t-34 -27.5q-38 -21 -95 -21q-35 0 -113 9t-82 11v-290h-140zM191 394h164q36 0 54.5 24
t18.5 87q-1 103 -73 103h-164v-214z" />
    <glyph glyph-name="uni1E57" unicode="&#x1e57;" horiz-adv-x="556" 
d="M231 625v76q0 25 24 25h72q11 0 17 -7t6 -18v-76q0 -23 -23 -23h-72q-11 0 -17.5 6.5t-6.5 16.5zM46 -270v801h115l24 -53q29 23 73.5 41t90 18t79.5 -19t54 -56q37 -70 37 -194q0 -162 -48 -224q-42 -52 -125 -52q-36 0 -81 9.5t-80 24.5v-296h-139zM310 102q34 0 51 29
q18 33 18 111.5t-8 113t-23 48t-38 13.5q-74 0 -125 -32v-263q52 -20 125 -20z" />
    <glyph glyph-name="uni1E60" unicode="&#x1e60;" horiz-adv-x="590" 
d="M236 826v76q0 25 24 25h72q10 0 16 -7t6 -18v-76q0 -23 -22 -23h-72q-11 0 -17.5 6.5t-6.5 16.5zM50 486v63q0 105 57 149q52 39 141 40h50.5t113 -8t119.5 -21v-110q-114 10 -181.5 10h-72.5q-45 0 -66 -12t-21 -59v-36q0 -42 17 -56t61 -14h116q114 0 153 -91
q20 -46 20 -103v-49q0 -134 -89 -175q-46 -22 -113 -22q-181 0 -283 30v110q110 -11 190 -11t91 1t23.5 5t21.5 11q19 15 19 46v39q0 35 -14 52t-52 17h-112q-189 0 -189 194z" />
    <glyph glyph-name="uni1E61" unicode="&#x1e61;" horiz-adv-x="508" 
d="M205 624v76q0 25 24 25h72q10 0 16.5 -7t6.5 -18v-76q0 -23 -23 -23h-72q-11 0 -17.5 6.5t-6.5 16.5zM30 347v46q0 143 138 143q237 0 284 -27v-88h-241q-25 0 -33 -8t-8 -29v-24q0 -16 6 -23.5t13.5 -9t21.5 -1.5h126q72 0 106.5 -37.5t34.5 -100.5v-54q0 -75 -37 -107
t-93 -32q-252 0 -296 29v87h251q35 0 35 34v25q0 23 -10.5 28.5t-24.5 5.5h-124q-149 0 -149 143z" />
    <glyph glyph-name="uni1E6A" unicode="&#x1e6a;" horiz-adv-x="593" 
d="M238 820v76q0 25 24 25h72q11 0 17 -7t6 -18v-76q0 -23 -23 -23h-72q-11 0 -17.5 6.5t-6.5 16.5zM31 603v129h541v-129h-203v-603h-140v603h-198z" />
    <glyph glyph-name="uni1E6B" unicode="&#x1e6b;" horiz-adv-x="381" 
d="M115 763v76q0 25 24 25h72q11 0 17 -7t6 -18v-76q0 -23 -23 -23h-72q-10 0 -17 6.5t-7 16.5zM15 425v78l86 29l23 148h117v-148h119v-107h-119v-213q0 -54 11 -75t34 -30q60 -21 67 -21v-86h-122q-130 0 -130 190v235h-86z" />
    <glyph glyph-name="Wgrave" unicode="&#x1e80;" horiz-adv-x="992" 
d="M341 933h122l91 -138h-91zM34 732h149l162 -543l132 543h150l-51 -189l116 -357l134 546h148l-201 -732h-162l-99 300l-86 -300h-162z" />
    <glyph glyph-name="wgrave" unicode="&#x1e81;" horiz-adv-x="826" 
d="M249 732h123l90 -138h-91zM15 531h150l106 -367l95 367h140l-37 -143l88 -224l105 367h150l-172 -531h-156l-80 192l-60 -192h-159z" />
    <glyph glyph-name="Wacute" unicode="&#x1e82;" horiz-adv-x="992" 
d="M463 795l91 138h122l-122 -138h-91zM34 732h149l162 -543l132 543h150l-51 -189l116 -357l134 546h148l-201 -732h-162l-99 300l-86 -300h-162z" />
    <glyph glyph-name="wacute" unicode="&#x1e83;" horiz-adv-x="826" 
d="M371 594l91 138h122l-122 -138h-91zM15 531h150l106 -367l95 367h140l-37 -143l88 -224l105 367h150l-172 -531h-156l-80 192l-60 -192h-159z" />
    <glyph glyph-name="Wdieresis" unicode="&#x1e84;" horiz-adv-x="992" 
d="M336.5 812.5q-17.5 17.5 -17.5 37.5t8 33q17 29 46 29t46 -17t17 -41t-17 -41.5t-41 -17.5t-41.5 17.5zM574 854q0 24 17 41t41.5 17t41.5 -17t17 -41t-17 -41.5t-41 -17.5t-41.5 17.5t-17.5 41.5zM34 732h149l162 -543l132 543h150l-51 -189l116 -357l134 546h148
l-201 -732h-162l-99 300l-86 -300h-162z" />
    <glyph glyph-name="wdieresis" unicode="&#x1e85;" horiz-adv-x="826" 
d="M231 653q0 16 8 29q18 29 47 29t46 -17t17 -41t-17 -41.5t-37 -17.5t-34 8t-22 21.5t-8 29.5zM516 703q14 8 34 8t37 -17t17 -41t-17 -41.5t-41.5 -17.5t-42 17.5t-17.5 46t30 45.5zM15 531h150l106 -367l95 367h140l-37 -143l88 -224l105 367h150l-172 -531h-156
l-80 192l-60 -192h-159z" />
    <glyph glyph-name="Ygrave" unicode="&#x1ef2;" horiz-adv-x="656" 
d="M168 936h123l91 -139h-92zM397 0h-140v227l-223 505h152l143 -351l157 351h152l-241 -505v-227z" />
    <glyph glyph-name="ygrave" unicode="&#x1ef3;" horiz-adv-x="578" 
d="M125 734h123l90 -138h-91zM16 531h147l92 -372q5 -18 12 -24t11 -8.5t9.5 -4t8.5 -1.5t7.5 -0.5l4.5 -0.5l106 411h146l-184 -699l-73 -102h-100l75 270q-122 0 -158 135z" />
    <glyph glyph-name="endash" unicode="&#x2013;" horiz-adv-x="513" 
d="M20 228v119h473v-119h-473z" />
    <glyph glyph-name="emdash" unicode="&#x2014;" horiz-adv-x="736" 
d="M20 230v119h696v-119h-696z" />
    <glyph glyph-name="quoteleft" unicode="&#x2018;" horiz-adv-x="259" 
d="M164 743q13 0 29 -3v-55h-1q-32 0 -32 -33v-21h12q26 0 26 -25v-90q0 -28 -26 -28h-86q-25 0 -25 28v133q0 94 103 94z" />
    <glyph glyph-name="quoteright" unicode="&#x2019;" horiz-adv-x="259" 
d="M94 488q-13 0 -28 3v55h1q32 0 32 33v20h-12q-26 0 -26 27v89q0 28 26 28h86q25 0 25 -28v-133q0 -94 -104 -94z" />
    <glyph glyph-name="quotesinglbase" unicode="&#x201a;" horiz-adv-x="259" 
d="M95 -112q-13 0 -29 3v55h1q32 0 32 33v21h-12q-26 0 -26 26v89q0 29 26 29h86q25 0 25 -29v-132q0 -95 -103 -95z" />
    <glyph glyph-name="quotedblleft" unicode="&#x201c;" horiz-adv-x="425" 
d="M233 648q0 94 104 94q9 0 15 -1l14 -2v-55h-1q-32 0 -32 -33v-20h12q11 0 18.5 -7t7.5 -20v-89q0 -28 -26 -28h-86q-26 0 -26 28v133zM158 742q14 0 29 -3v-55v0q-32 0 -32 -33v-20h12q11 0 18.5 -7t7.5 -20v-89q0 -28 -26 -28h-87q-25 0 -25 28v133q0 94 103 94z" />
    <glyph glyph-name="quotedblright" unicode="&#x201d;" horiz-adv-x="425" 
d="M89 487q-13 0 -29 3v55h1q32 0 32 33v20h-12q-11 0 -18.5 7t-7.5 19v90q0 28 26 28h87q25 0 25 -28v-133q0 -94 -104 -94zM371 581q0 -95 -104 -95q-8 0 -15 1l-13 3v55h1q31 0 31 33v20h-11q-12 0 -19.5 7t-7.5 19v90q0 28 27 28h86q25 0 25 -28v-133z" />
    <glyph glyph-name="quotedblbase" unicode="&#x201e;" horiz-adv-x="425" 
d="M89 -112q-13 0 -29 3v55h1q32 0 32 33v21h-12q-11 0 -18.5 6.5t-7.5 19.5v89q0 29 26 29h87q25 0 25 -29v-132q0 -95 -104 -95zM371 -17q0 -95 -104 -95q-8 0 -15 1l-13 2v55h1q31 0 31 33v21h-11q-12 0 -19.5 6.5t-7.5 19.5v89q0 28 27 28h86q25 0 25 -28v-132z" />
    <glyph glyph-name="dagger" unicode="&#x2020;" horiz-adv-x="440" 
d="M15 453v109l133 12l11 196h123l11 -196l132 -12v-109l-132 -13l-12 -512h-123l-10 512z" />
    <glyph glyph-name="daggerdbl" unicode="&#x2021;" horiz-adv-x="455" 
d="M15 146v109l135 15l-2 170l-133 13v109l133 12l11 196h123l11 -196l132 -12v-109l-132 -13l-3 -171l135 -14v-109l-139 -13l-5 -205h-123l-4 204z" />
    <glyph glyph-name="bullet" unicode="&#x2022;" horiz-adv-x="309" 
d="M65 322v118q0 35 33 35h112q35 0 35 -35v-118q0 -32 -35 -32h-112q-15 0 -24 8.5t-9 23.5z" />
    <glyph glyph-name="ellipsis" unicode="&#x2026;" horiz-adv-x="807" 
d="M296 23v90q0 25 24 25h86q25 0 25 -25v-90q0 -23 -25 -23h-86q-10 0 -17 6.5t-7 16.5zM323 23q0 -10 7 -16.5t17 -6.5h86q25 0 25 23v90q0 25 -25 25h-86q-24 0 -24 -25v-90zM351 23v90q0 25 24 25h86q25 0 25 -25v-90q0 -23 -25 -23h-86q-11 0 -17.5 6.5t-6.5 16.5z" />
    <glyph glyph-name="perthousand" unicode="&#x2030;" horiz-adv-x="1379" 
d="M32 480v122q0 66 30.5 98t104.5 32h101q71 0 101.5 -32t30.5 -98v-122q0 -67 -30.5 -99t-103.5 -32h-101q-72 0 -102.5 32t-30.5 99zM130 496q0 -27 10 -38t38 -11h74q40 0 47 21q3 10 3 28v89q0 29 -10.5 39t-37.5 10h-74q-29 0 -39.5 -10t-10.5 -39v-89zM208 0l447 732
h100l-443 -732h-104zM563 133v122q0 44 12 72q25 59 122 59h101q71 0 102 -32.5t31 -98.5v-122q0 -66 -31 -98t-104 -32h-101q-72 0 -102 32t-30 98zM661 150q0 -27 9.5 -38t38.5 -11h73q31 0 41 11t10 38v89q0 37 -21 45q-10 4 -28 4h-73q-29 0 -39.5 -10.5t-10.5 -38.5
v-89zM980 133v122q0 66 30.5 98.5t103.5 32.5h101q94 0 120 -59q13 -28 13 -72v-122q0 -66 -30.5 -98t-104.5 -32h-101q-71 0 -101.5 32t-30.5 98zM1078 150q0 -27 10 -38t38 -11h74q31 0 40.5 11t9.5 38v89q0 29 -10.5 39t-37.5 10h-74q-37 0 -45 -19q-5 -11 -5 -30v-89z
" />
    <glyph glyph-name="guilsinglleft" unicode="&#x2039;" horiz-adv-x="356" 
d="M38 354l206 203l77 -76l-131 -127l133 -131l-74 -77z" />
    <glyph glyph-name="guilsinglright" unicode="&#x203a;" horiz-adv-x="356" 
d="M38 223l133 131l-130 127l76 76l206 -203l-211 -208z" />
    <glyph glyph-name="fraction" unicode="&#x2044;" horiz-adv-x="322" 
d="M-69 0l358 753h102l-358 -753h-102z" />
    <glyph glyph-name="zerosuperior" unicode="&#x2070;" horiz-adv-x="464" 
d="M176 859h118q125 0 125 -120v-242q0 -119 -125 -119h-119q-96 0 -120 63q-9 24 -9 56v239q0 123 130 123zM154 520q0 -25 11.5 -34t35.5 -9h65q26 0 35.5 9t9.5 34v197q0 23 -9.5 32.5t-32.5 9.5h-70q-32 0 -39 -14q-6 -11 -6 -28v-197z" />
    <glyph glyph-name="foursuperior" unicode="&#x2074;" horiz-adv-x="430" 
d="M263 579v102l24 50h84v-152h49v-85l-49 -8v-107h-108v97h-228l-23 46l171 337h111l-141 -280h110z" />
    <glyph glyph-name="fivesuperior" unicode="&#x2075;" horiz-adv-x="416" 
d="M234 476q27 0 35.5 10.5t8.5 29.5v33q0 13 -2 20.5t-11.5 15t-27.5 7.5h-67q-36 0 -36 -35h-92l15 302h310v-100h-215l-5 -88q24 18 87 18q17 0 37 -2q58 -2 86.5 -36t28.5 -91v-64q0 -62 -36 -92t-100 -30t-105 2.5t-103 13.5v86h192z" />
    <glyph glyph-name="sixsuperior" unicode="&#x2076;" horiz-adv-x="438" 
d="M119 849.5q20 10.5 46.5 13.5t77.5 3t148 -16v-84h-177q-59 0 -64 -76q0 -11 -1 -29q56 15 131 15t101.5 -31t26.5 -86v-67q0 -114 -124 -114h-104q-33 0 -56 10q-56 25 -73 115q-10 50 -10 122t10.5 119t29 71t38.5 34.5zM149 580q0 -102 60 -102h53q21 0 29.5 7.5
t8.5 27.5v33q0 20 -7.5 27t-27.5 7h-116z" />
    <glyph glyph-name="sevensuperior" unicode="&#x2077;" horiz-adv-x="397" 
d="M11 760v100h347l28 -46l-183 -436h-119l161 382h-234z" />
    <glyph glyph-name="eightsuperior" unicode="&#x2078;" horiz-adv-x="463" 
d="M50 705v42q0 65 35 91t96 26h112q61 0 91 -27t30 -89v-34q2 -45 -28 -66q-10 -7 -24 -9q20 -4 33 -22q19 -27 19 -70v-54q0 -89 -61 -108q-26 -8 -59 -8h-116q-84 0 -109 39q-19 31 -19 73v46q0 29 15 49t41 25q-24 10 -37 26.5t-16 32t-3 37.5zM306 541q0 36 -37 36h-72
q-21 0 -30 -8.5t-9 -27.5v-34q0 -19 8.5 -26.5t31.5 -7.5h70q21 0 29.5 8t8.5 26v34zM158 706q0 -22 10 -29.5t29 -7.5h70q25 0 32 9.5t7 27.5v22q0 25 -10 32.5t-32 7.5h-63q-24 0 -33.5 -8t-9.5 -32v-22z" />
    <glyph glyph-name="ninesuperior" unicode="&#x2079;" horiz-adv-x="438" 
d="M34 683v67q0 60 33 88t91 28h103q33 0 57 -10q56 -25 73 -117q10 -51 10 -89.5t-0.5 -63t-5 -60.5t-13 -60.5t-19.5 -42t-25 -27.5q-27 -18 -60 -22t-86.5 -4t-140.5 17v84h176q60 0 64 79q1 11 1 30q-56 -15 -130.5 -15t-101 31t-26.5 87zM142 697q0 -22 7.5 -29
t28.5 -7h114q0 76 -26 96q-13 9 -32 9h-55q-20 0 -28.5 -8t-8.5 -28v-33z" />
    <glyph glyph-name="zeroinferior" unicode="&#x2080;" horiz-adv-x="464" 
d="M176 282h118q125 0 125 -120v-242q0 -120 -125 -120h-119q-62 0 -95.5 28t-33.5 92v238q0 124 130 124zM154 -57q0 -26 11.5 -34.5t35.5 -8.5h65q26 0 35.5 8.5t9.5 33.5v198q0 23 -9.5 32.5t-32.5 9.5h-70q-32 0 -39 -15q-6 -11 -6 -27v-197z" />
    <glyph glyph-name="oneinferior" unicode="&#x2081;" horiz-adv-x="270" 
d="M221 282v-482h-108v384l-101 -23v67l102 54h107z" />
    <glyph glyph-name="twoinferior" unicode="&#x2082;" horiz-adv-x="403" 
d="M24 189q-1 0 -1 23.5v37.5l1 20q108 19 173.5 19t94 -10.5t46.5 -30.5q34 -39 34 -104q0 -105 -175 -244h175v-100h-345v96q120 83 172 134q23 23 43 52.5t20 51t-7 33.5q-15 22 -70 22h-161z" />
    <glyph glyph-name="threeinferior" unicode="&#x2083;" horiz-adv-x="412" 
d="M23 264q56 20 170 20h46q60 0 94 -33t34 -88v-30q0 -73 -57 -93q57 -22 57 -99v-23q0 -122 -133 -122h-39q-113 0 -168 20l1 79l161 1q41 0 55.5 8t14.5 31v13q0 24 -16.5 33.5t-49.5 10.5l-125 5v86l125 8q36 1 51.5 10t15.5 31v12q0 23 -17 32t-50 9h-170v79z" />
    <glyph glyph-name="fourinferior" unicode="&#x2084;" horiz-adv-x="434" 
d="M266 1v103l24 49h84v-152h49v-85l-49 -8v-106h-108v96h-231l-23 47l171 337h114l-139 -281h108z" />
    <glyph glyph-name="fiveinferior" unicode="&#x2085;" horiz-adv-x="418" 
d="M369 282v-100h-216l-5 -89q23 18 87 18q17 0 37 -1q59 -3 87.5 -37t28.5 -90v-64q0 -62 -36.5 -92t-100.5 -30t-105 2.5t-104 13.5v86h193q28 0 36.5 10t8.5 29v34q0 12 -2 20t-11.5 15t-26.5 7h-69q-36 0 -36 -28h-93l15 296h312z" />
    <glyph glyph-name="sixinferior" unicode="&#x2086;" horiz-adv-x="438" 
d="M119 272q20 11 48.5 14t82 3t141.5 -17v-83h-177q-59 0 -64 -77q0 -11 -1 -29q56 15 131 15t101.5 -31t26.5 -85v-67q0 -115 -124 -115h-104q-33 0 -56 11q-56 24 -73 114q-10 50 -10 122t10.5 119t29 71t38.5 35zM149 3q0 -103 60 -103h54q20 0 28.5 8t8.5 27v33
q0 21 -7.5 28t-27.5 7h-116z" />
    <glyph glyph-name="seveninferior" unicode="&#x2087;" horiz-adv-x="397" 
d="M11 183v100h347l28 -47l-183 -436h-119l161 383h-234z" />
    <glyph glyph-name="eightinferior" unicode="&#x2088;" horiz-adv-x="463" 
d="M50 -43q0 30 14.5 50t41.5 25q-34 14 -45 37.5t-11 58.5v42q0 64 35 90t96 26h112q61 0 91 -27t30 -88v-34q1 -18 -6 -36q-13 -34 -46 -40q20 -3 33 -21q19 -28 19 -71v-54q0 -88 -61 -107q-26 -8 -59 -8h-116q-84 0 -109 39q-19 30 -19 73v45zM306 -37q0 37 -37 37h-72
q-21 0 -30 -8.5t-9 -28.5v-34q0 -19 8.5 -26t31.5 -7h70q21 0 29.5 7.5t8.5 25.5v34zM158 128q0 -21 10 -29t29 -8h70q25 0 32 9.5t7 27.5v23q0 24 -10 32t-32 8h-63q-24 0 -33.5 -8t-9.5 -32v-23z" />
    <glyph glyph-name="nineinferior" unicode="&#x2089;" horiz-adv-x="438" 
d="M158 289h103q34 0 57 -11q56 -24 73 -116q10 -50 10 -123t-10 -120.5t-28.5 -72t-38.5 -34.5q-33 -18 -108 -18t-165 15v84h176q60 0 64 79q1 12 1 30q-56 -15 -130.5 -15t-101 31.5t-26.5 86.5v68q0 59 33 87.5t91 28.5zM142 119q0 -21 7.5 -28.5t28.5 -7.5h114
q0 76 -26 96q-13 10 -32 10h-55q-20 0 -28.5 -8.5t-8.5 -28.5v-33z" />
    <glyph glyph-name="Euro" unicode="&#x20ac;" horiz-adv-x="617" 
d="M247 728.5q40 11.5 88.5 11.5t129 -10t134.5 -26v-102q-147 14 -202 14t-76.5 -3t-36 -8.5t-24.5 -16t-15.5 -20t-8.5 -26.5q-4 -25 -4 -66l234 -8v-68l-234 -6v-68l234 -8v-68q-138 -3 -201 -6l-33 -2q0 -99 69 -121q30 -9 70 -9q80 0 194 17l38 5v-100
q-95 -40 -266 -40q-108 0 -173 56q-72 62 -72 192l-77 8v68l77 8v68l-77 8v64l77 10q0 86 20 134q8 22 26 48t43.5 42.5t65.5 28z" />
    <glyph glyph-name="afii61289" unicode="&#x2113;" horiz-adv-x="461" 
d="M259 739q66 0 111 -44t45 -125q0 -98 -90 -201q-47 -54 -105 -97v-49q0 -58 11.5 -78.5t29.5 -29t33 -11t33 -6.5q51 -12 55 -11v-86q1 -1 -37.5 -1h-77.5l-39 1q-75 0 -111.5 41.5t-36.5 139.5v26q-11 -8 -33 -20l-24 66q25 22 57 56v278q0 73 46.5 112t132.5 39z
M291 574q0 9 -0.5 18.5t-7.5 18.5q-12 15 -33 15q-15 0 -22.5 -10.5t-7.5 -26.5v-171q71 90 71 156z" />
    <glyph glyph-name="afii61352" unicode="&#x2116;" horiz-adv-x="1106" 
d="M54 0v606q0 41 21 72q40 61 129 61q72 0 117 -45q25 -26 32 -62l144 -495q4 -13 14 -10.5t10 13.5v426q0 88 46 128t122 40h249q76 -1 106.5 -41.5t30.5 -139.5q0 -60 -13 -97q-27 -72 -135 -75h-44q-44 1 -70.5 9.5t-45 31.5t-26 63.5t-7.5 107.5h106q0 -94 21 -106
q9 -5 28 -5h32q28 0 38 12t10 61t-10 62t-46 13q-80 2 -126.5 2t-65 -3.5t-33.5 -12.5q-27 -17 -27 -67v-423q0 -37 -20 -67q-43 -64 -133 -64q-68 0 -109 44q-26 27 -33 67l-146 500q-2 8 -8 9.5t-11.5 -3.5t-5.5 -13v-599h-141z" />
    <glyph glyph-name="trademark" unicode="&#x2122;" horiz-adv-x="705" 
d="M15 652v80h281v-80h-94v-269h-92v269h-95zM313 383l38 349h95l60 -205l48 205h98l42 -349h-91l-19 184l-37 -184h-81l-46 184l-15 -184h-92z" />
    <glyph glyph-name="estimated" unicode="&#x212e;" horiz-adv-x="692" 
d="M347 0q-138 0 -219.5 75.5t-81.5 189.5t84 193q43 38 94.5 56.5t119.5 18.5t117 -16t94 -50q86 -67 93 -209h-479h-3.5h-4.5q-4 -1 -4 -11v-133q0 -19 34 -44q65 -49 156 -49q55 0 106 23.5t85 60.5h56q-58 -61 -114.5 -83t-132.5 -22zM523 275h8q3 0 4 0.5t1 6.5v133
q0 32 -63.5 65.5t-126.5 33.5q-38 0 -75 -11t-61 -26.5t-38.5 -31t-14.5 -24.5v-137q0 -6 2 -7.5t7 -1.5h357z" />
    <glyph glyph-name="partialdiff" unicode="&#x2202;" horiz-adv-x="634" 
d="M43 227q0 113 64 175.5t170.5 62.5t153.5 -57q-3 111 -35.5 157t-103.5 46q-52 0 -103 -15.5t-83 -35.5l-23 102q59 39 106.5 58.5t105.5 19.5q142 0 209.5 -92.5t67.5 -260.5q0 -170 -63 -277q-33 -54 -87.5 -84.5t-125 -30.5t-126 24.5t-91.5 78t-36 129.5zM212 309
q-30 -29 -30 -71.5t17 -66.5q31 -49 99 -49q35 0 61 22t39 54q24 62 24 113q-47 27 -113.5 27t-96.5 -29z" />
    <glyph glyph-name="uni2206" unicode="&#x2206;" horiz-adv-x="714" 
d="M15 0l311 732h74l299 -732h-684zM207 124h330l-164 398z" />
    <glyph glyph-name="product" unicode="&#x220f;" horiz-adv-x="650" 
d="M15 603v129h621v-129h-76v-603h-140v603h-190v-603h-140v603h-75z" />
    <glyph glyph-name="summation" unicode="&#x2211;" horiz-adv-x="571" 
d="M30 732h526v-129h-354l213 -333l-213 -338h354v-132h-526v132l214 338l-214 333v129z" />
    <glyph glyph-name="minus" unicode="&#x2212;" horiz-adv-x="456" 
d="M20 297v118h416v-118h-416z" />
    <glyph glyph-name="radical" unicode="&#x221a;" horiz-adv-x="659" 
d="M15 240v129h164l85 -178l230 609h150l-301 -800h-137l-123 240h-68z" />
    <glyph glyph-name="infinity" unicode="&#x221e;" horiz-adv-x="761" 
d="M46.5 275q-8.5 30 -8.5 66t7 64.5t24 54.5q36 54 138.5 54t171.5 -95q28 46 74.5 70.5t100 24.5t88 -14t51.5 -40q31 -47 31 -119q0 -73 -35 -120q-39 -52 -131 -52q-57 0 -100.5 21t-80.5 75q-33 -55 -73.5 -75.5t-93 -20.5t-86 13.5t-51.5 38t-26.5 54.5zM145 364
q-1 -9 -1 -27t5 -33q11 -34 65.5 -34t101.5 71q-26 41 -65 61q-21 11 -39.5 11t-31.5 -4t-20 -9.5t-10.5 -16t-4.5 -19.5zM550 270q67 0 67 71q0 36 -12.5 54t-54.5 18q-60 0 -107 -73q47 -70 107 -70z" />
    <glyph glyph-name="integral" unicode="&#x222b;" horiz-adv-x="442" 
d="M15 -92h63q35 0 50 29q16 31 18 61q4 43 5 90v418q0 294 155 294q66 0 110 -20q9 -4 11 -5v-87h-60q-50 0 -64 -58q-12 -46 -12 -124v-418q0 -172 -47 -240q-37 -52 -106 -52q-85 0 -123 25v87z" />
    <glyph glyph-name="approxequal" unicode="&#x2248;" horiz-adv-x="509" 
d="M125.5 319q29.5 12 59.5 12t74.5 -18.5t64.5 -18.5t28.5 0.5t17 3t14.5 4.5t15.5 6.5t14 6.5t16.5 8.5t17 9.5l25 -62q-63 -58 -99 -68q-19 -6 -42.5 -6t-70 19t-73.5 19t-46 -6t-42.5 -16.5t-39.5 -15.5l-21 63q23 21 40.5 34t47 25zM125.5 500q29.5 12 59.5 12
t74.5 -18.5t64.5 -18.5t28.5 0.5t17 3t14.5 4t15.5 6.5t14 7t16.5 8.5t17 9.5l25 -63q-63 -57 -99 -67q-19 -6 -42.5 -6t-70 19t-73.5 19t-46 -6t-42.5 -16.5t-39.5 -15.5l-21 63q23 21 40.5 34t47 25z" />
    <glyph glyph-name="notequal" unicode="&#x2260;" horiz-adv-x="457" 
d="M15 184v121h150l55 92h-205v120h275l39 66h72l-39 -66h80v-120h-150l-55 -92h205v-121h-274l-45 -76h-72l45 76h-81z" />
    <glyph glyph-name="lessequal" unicode="&#x2264;" horiz-adv-x="450" 
d="M38 81v107h375v-107h-375zM38 368v129l375 134v-130l-226 -68l226 -77v-130z" />
    <glyph glyph-name="greaterequal" unicode="&#x2265;" horiz-adv-x="450" 
d="M38 81v107h375v-107h-375zM38 226v130l226 77l-226 68v129l375 -133v-129z" />
    <glyph glyph-name="lozenge" unicode="&#x25ca;" horiz-adv-x="512" 
d="M15 373l207 359h74l201 -359l-201 -373h-74zM154 373l105 -193l101 193l-101 183z" />
    <glyph glyph-name="f_f" unicode="&#xfb00;" horiz-adv-x="795" 
d="M15 424v90l99 17v89q0 56 27 101q15 25 45 40t90.5 15t122.5 -24v-84l-90 1q-27 1 -35.5 -7t-12 -13.5t-5.5 -16.5q-2 -15 -2 -41v-60h236v99q0 74 36 115t116 41t139 -24v-83l-96 1q-46 1 -52 -30q-3 -17 -3 -53v-66h120v-107h-121v-424h-140v424h-237v-424h-140v424
h-97z" />
    <glyph glyph-name="f_f_i" unicode="&#xfb03;" horiz-adv-x="1007" 
d="M735 680q-119 0 -119 -115v-34l347 -10v-521h-141v424h-207v-424h-140v424h-222v-424h-141v424h-97v90l99 17v89q0 56 27 101q15 25 45 40t90.5 15t122.5 -24v-84l-90 1q-43 1 -50 -30q-4 -16 -5 -48l-1 -60h223v40q0 60 26 108t76 77q51 30 120 30t138.5 -10t89.5 -18
v-84l-183 6h-8z" />
    <glyph glyph-name="ffl" unicode="&#xfb04;" horiz-adv-x="1101" 
d="M15 424v90l99 17v89q0 56 27 101q15 25 45 40t90.5 15t122.5 -24v-84l-90 1h-10.5t-21 -4.5t-16.5 -16.5q-7 -18 -7 -57l-1 -60h226v45q0 209 197 209l298 -2v-572q0 -54 10 -74t36 -30q60 -21 67 -21v-86h-116q-72 0 -104.5 42.5t-32.5 146.5v490l-131 1q-30 0 -47 -9
q-37 -17 -37 -95v-45h120v-107h-121v-424h-140v424h-225v-424h-141v424h-97z" />
    <glyph glyph-name="s_t" unicode="&#xfb06;" horiz-adv-x="887" 
d="M174 531h436l24 148h116v-148h119v-106h-119v-214q1 -74 20 -91q8 -7 46 -20t43 -13v-88h-118q-45 0 -73 18q-58 38 -58 172v230h-399q-25 0 -33 -8t-8 -29v-24q0 -23 10 -29t31 -6h126q49 0 81 -19q60 -34 60 -118v-52q0 -75 -37 -107t-93 -32q-85 0 -178.5 6.5
t-117.5 22.5v87h251q35 0 35 34v22q0 18 -7.5 26.5t-27.5 8.5h-124q-149 0 -149 142v47q0 65 35 102.5t109 37.5z" />
    <glyph glyph-name="exclamdown.alt" horiz-adv-x="273" 
d="M70 618v90q0 23 23 23h88q11 0 17.5 -6.5t6.5 -16.5v-90q0 -25 -24 -25h-88q-11 0 -17 7t-6 18zM65 0l15 535h114l13 -535h-142z" />
    <glyph glyph-name="zero.oldstyle" horiz-adv-x="630" 
d="M53 178v270q0 59 23 101q45 83 161 83h164q95 0 136 -48.5t41 -129.5v-276q0 -87 -46.5 -132.5t-131.5 -45.5h-164q-86 0 -134.5 45t-48.5 133zM193 201q0 -72 75 -72h97q37 0 55 16t18 55v232q0 71 -68 71h-105q-41 0 -56.5 -21.5t-15.5 -49.5v-231z" />
    <glyph glyph-name="one.oldstyle" horiz-adv-x="367" 
d="M303 632v-632h-140v492l-140 -35v92l141 83h139z" />
    <glyph glyph-name="two.oldstyle" horiz-adv-x="589" 
d="M335 640q216 0 216 -194q0 -43 -22.5 -88.5t-53.5 -79.5t-71 -68q-60 -49 -118 -81h263v-129h-511v123q3 2 26.5 15t49.5 28t75.5 45t82.5 55t68 56q71 61 71 108.5t-27 64t-87 16.5h-7h-259v104q142 25 279 25h25z" />
    <glyph glyph-name="three.oldstyle" horiz-adv-x="598" 
d="M354 -102h-58h-19t-33.5 0.5t-37.5 1t-33 2t-35.5 3.5t-31.5 5q-30 5 -62 16l1 102h254q52 0 71 9t25 23t6 36v32q0 42 -23.5 57.5t-72.5 18.5l-199 6v114l199 10q53 2 75.5 17.5t22.5 53.5v36q0 27 -14.5 43t-34.5 21t-49 5h-267v101q82 29 260 29q32 0 63 -1
q83 -2 132 -49t49 -127v-53q0 -113 -76 -141q76 -32 76 -149v-43q0 -117 -85 -158q-42 -21 -103 -21z" />
    <glyph glyph-name="four.oldstyle" horiz-adv-x="620" 
d="M392 192v167l32 77h108v-244h74v-108l-74 -24v-158h-140v158h-343l-34 64l261 508h154l-219 -440h181z" />
    <glyph glyph-name="five.oldstyle" horiz-adv-x="610" 
d="M218 338q32 26 107 26q27 0 72 -2q84 -3 125 -52.5t41 -129.5v-103q0 -49 -17 -85.5t-46 -56.5q-55 -39 -123 -39q-102 0 -158.5 4t-150.5 20v110h282q32 0 43.5 8.5t17 15t7.5 15.5q5 15 5 32v67q0 52 -31 65q-14 6 -36 6h-94q-28 0 -44.5 -14.5t-16.5 -44.5h-132
l22 452h445v-129h-310z" />
    <glyph glyph-name="six.oldstyle" horiz-adv-x="608" 
d="M50 384q0 77 9.5 137.5t25.5 99t39 63.5q40 46 98 51q38 4 79 4q109 0 239 -24v-106h-250q-45 0 -67 -31q-22 -32 -26 -64q-7 -47 -7 -90q82 20 202 20q103 0 139 -50q33 -44 33 -120v-110q0 -165 -177 -165h-143q-99 0 -141 75q-53 93 -53 310zM190 321q0 -113 24 -154
q24 -39 71 -39h76q34 0 49 12.5t15 49.5v67q0 52 -34 61q-11 3 -27 3h-174z" />
    <glyph glyph-name="seven.oldstyle" horiz-adv-x="554" 
d="M23 503v129h471l38 -64l-245 -668h-153l225 603h-336z" />
    <glyph glyph-name="eight.oldstyle" horiz-adv-x="624" 
d="M57 168v73q0 45 21 74.5t58 38.5q-50 21 -66 63q-13 34 -13 82v65q0 100 55 138q50 35 132 35h151q88 0 130.5 -41t42.5 -133v-53q1 -27 -9 -55q-18 -53 -66 -61q22 -4 38 -20t24 -37q14 -41 13 -80v-86q0 -118 -77 -153q-39 -18 -97 -18h-150q-158 0 -182 111
q-5 26 -5 57zM197 183q0 -41 30 -53q16 -6 42 -6h93q66 0 66 59v70q0 30 -16 46t-47 16h-101q-67 0 -67 -62v-70zM197 494q0 -62 67 -62h100q41 0 54 19q10 16 10 43v47q0 42 -16 57.5t-49 15.5h-94q-39 0 -55.5 -13.5t-16.5 -59.5v-47z" />
    <glyph glyph-name="nine.oldstyle" horiz-adv-x="608" 
d="M223 633h143q37 -1 65 -10.5t53.5 -35t41.5 -68.5q34 -92 34 -271q0 -253 -100 -325q-32 -23 -73.5 -27t-86.5 -4q-112 0 -230 24v107h250q45 0 66 31q22 32 27 63q7 47 7 91q-82 -21 -202 -21q-103 0 -140 50q-32 45 -32 121v109q0 166 177 166zM185 375q0 -48 27 -59
q12 -5 34 -5h174q0 113 -25 154q-23 39 -70 39h-77q-33 0 -48 -12.5t-15 -49.5v-67z" />
    <glyph glyph-name="questiondown.alt" horiz-adv-x="542" 
d="M528 18q-134 -26 -229 -26q-25 0 -53 1q-110 0 -165 61q-51 57 -51 135v73q0 187 190 187q18 0 37 -2v90h113v-195q-38 1 -66.5 1t-47.5 -1q-86 -4 -86 -82v-54q0 -44 26 -64t83 -20l249 1v-105zM271 732h88q10 0 17 -6.5t7 -16.5v-90q0 -25 -24 -25h-88q-23 0 -23 25v90
q0 23 23 23z" />
    <glyph glyph-name="at.alt" horiz-adv-x="869" 
d="M805 125q0 -222 -210 -222h-338q-92 0 -149.5 52t-57.5 159v304q0 145 119 185q38 12 88 12h191q98 0 139 -42q36 -38 36 -114v-356h-90l-19 59l-8 -7t-22 -17t-31 -20q-44 -24 -94 -24h-2q-59 0 -92.5 39.5t-33.5 94.5v42q0 67 38 102.5t107 35.5h136v32.5v10.5
q0 31 -14.5 41.5t-47.5 10.5h-193q-70 0 -87 -43q-7 -18 -7 -47v-288q0 -85 62 -104q15 -4 32 -4h332q58 0 80.5 26.5t22.5 81.5v457q0 57 -28 87t-75 30h-404v86q47 9 130.5 18t126 9h48.5l99 -1q89 -1 149 -51q67 -56 67 -178v-457zM394 207h2h2q67 0 114 43v79l-120 -11
q-44 -4 -43 -46v-13.5v-13.5q0 -16 12.5 -27t32.5 -11z" />
    <glyph glyph-name="g.salt" horiz-adv-x="555" 
d="M38 277q0 263 194 263q75 0 155.5 -9t122.5 -21v-570q0 -103 -53.5 -158t-129.5 -55q-12 0 -26 1l-241 24v93h225q54 0 75 42q10 21 10 53v97q-58 -38 -138 -38q-109 0 -151.5 68.5t-42.5 209.5zM178.5 314q-0.5 -13 -0.5 -39t0.5 -42.5t2.5 -40.5t7.5 -36t13.5 -24
q16 -23 53 -23t59.5 4.5t55.5 17.5v302h-110q-40 0 -57 -26q-18 -28 -21 -54t-3.5 -39z" />
    <glyph glyph-name="ampersand.salt" horiz-adv-x="979" 
d="M34 320v85q0 121 63 161q34 21 77 29t109 8h430l18 124h122v-126h111v-94l-111 -20v-269q0 -143 -113 -193q-60 -26 -147 -26h-164q-87 0 -143 35q-62 38 -62 128q-190 0 -190 158zM174 324q0 -53 50 -53q0 88 48 126.5t142 38.5h74q128 0 161 -72q15 -31 15 -65t-5 -53
t-12.5 -32t-20.5 -22t-26 -14t-34 -8q-31 -4 -80 -4h-122q0 -31 16.5 -40.5t50.5 -10.5h162q120 0 120 105v267h-424q-72 0 -93.5 -16t-21.5 -66v-81zM516 275q8 5 8 25t-7.5 25.5t-31.5 5.5h-65q-29 0 -39 -7q-17 -11 -17 -54h121q23 0 31 5z" />
    <glyph glyph-name="a.superior" horiz-adv-x="373" 
d="M35 712q67 26 167 26q44 0 74 -9.5t48.5 -35.5t18.5 -68v-247h-81l-26 45q-6 -12 -38 -30.5t-65 -18.5q-52 0 -81 27.5t-29 64.5v35q0 42 27 68.5t73.5 26.5h79t32.5 1q1 15 0.5 24t-7 18t-16.5 11.5t-32.5 2.5t-144.5 -8v67zM125 485q0 -30 35 -30q19 0 38 6.5t28 13.5
l9 6v59l-80 -8q-30 -2 -30 -33v-14z" />
    <glyph glyph-name="b.superior" horiz-adv-x="402" 
d="M137 901v-184q56 26 103 26t73 -13t39 -39q23 -46 23 -134t-29.5 -135.5t-91.5 -47.5t-117 45l-22 -41h-86v523h108zM137 487q39 -20 72.5 -20t45.5 20.5t12 76t-12 74.5t-45 19t-73 -13v-157z" />
    <glyph glyph-name="c.superior" horiz-adv-x="353" 
d="M145.5 479q14.5 -18 65 -18t117.5 6v-67q-34 -18 -64 -21l-40 -4t-40 -1h-46.5t-38 8t-39.5 27.5t-27.5 56t-9.5 89.5t9 89.5t27 55.5q32 36 91 36q101 0 173 -24v-68q-62 5 -101 5t-44.5 -0.5t-16 -3t-14 -8t-8.5 -16.5q-8 -16 -8 -70t14.5 -72z" />
    <glyph glyph-name="d.superior" horiz-adv-x="400" 
d="M23 557q0 90 23 135q26 51 104 51q55 0 112 -26v185h107v-524h-87l-21 41q-55 -45 -117 -45q-121 0 -121 183zM137.5 623q-6.5 -22 -6.5 -68.5t12.5 -67t45.5 -20.5t72 20v157q-38 14 -67.5 14t-39.5 -6.5t-16.5 -28.5z" />
    <glyph glyph-name="e.superior" horiz-adv-x="389" 
d="M52.5 415.5q-29.5 41.5 -29.5 140.5t35 139t133 40q83 0 114 -14.5t43 -38.5q15 -31 15 -79q0 -91 -110 -91h-122q0 -33 12 -42t55 -9q111 0 157 5v-70q-59 -22 -201 -22q-72 0 -101.5 41.5zM255 612q0 24 -11.5 31.5t-48 7.5t-50.5 -11.5t-14 -48.5h92q32 0 32 21z" />
    <glyph glyph-name="f.superior" horiz-adv-x="313" 
d="M80 794q0 108 116 108q54 0 98 -17v-66l-67 2q-28 1 -32 -10q-7 -13 -7 -39v-38h83v-83h-84v-273h-108v273h-59v70l60 5v68z" />
    <glyph glyph-name="g.superior" horiz-adv-x="418" 
d="M24 440q0 21 11.5 40.5t34.5 22.5q-44 23 -44 96t35 104.5t94 31.5h240v-60l-40 -19q14 -16 14 -53.5t-6.5 -57.5t-19.5 -38q-30 -39 -100 -39h-93q-28 0 -28 -16q0 -9 5 -13q6 -5 24 -6l121 -13q74 -6 96 -53q11 -24 11 -61v-8q0 -55 -29 -82q-28 -27 -87 -27h-113
q-54 0 -88.5 25.5t-34.5 79.5v46l40 32q-43 17 -43 68zM135 315q0 -30 18 -36q9 -3 23 -3h61q24 0 29.5 10t5.5 23v5q0 16 -9.5 23t-32.5 10l-69 8l-26 2v-42zM135 604q0 -53 46 -53h38q26 0 34.5 15t8.5 40q0 47 -44 47h-36q-24 0 -35.5 -11.5t-11.5 -37.5z" />
    <glyph glyph-name="h.superior" horiz-adv-x="404" 
d="M136 900v-208q2 1 12 8t13 9l12 8t14 8t14.5 6t17.5 6q22 4 40 4q116 0 116 -125v-238h-108v228q0 47 -42 47q-27 0 -45.5 -6t-42.5 -23v-246h-108v522h107z" />
    <glyph glyph-name="i.superior" horiz-adv-x="168" 
d="M26 781v67q0 19 18 19h80q17 0 17 -19v-67q0 -17 -17 -17h-80q-18 0 -18 17zM29 378v356h108v-356h-108z" />
    <glyph glyph-name="j.superior" horiz-adv-x="169" 
d="M27 784v67q0 19 18 19h80q17 0 17 -19v-67q0 -18 -17 -18h-80q-18 0 -18 18zM30 195v537h109v-358v-14q0 -105 -27 -165h-82z" />
    <glyph glyph-name="k.superior" horiz-adv-x="409" 
d="M29 378v521h108v-287h19l105 118h128l-145 -155l144 -197h-120l-109 159h-22v-159h-108z" />
    <glyph glyph-name="l.superior" horiz-adv-x="235" 
d="M28 504v396h108v-373q0 -46 13 -58q6 -6 33.5 -15t32.5 -9v-67h-86q-53 0 -77 28.5t-24 97.5z" />
    <glyph glyph-name="m.superior" horiz-adv-x="644" 
d="M254 737q77 0 102 -52q64 52 133.5 52t97.5 -33.5t28 -90.5v-235h-108v225q0 23 -11 35t-31 12q-53 0 -90 -27v-245h-108v225q0 23 -11.5 35t-30.5 12t-34 -3q-24 -6 -55 -26v-243h-107v353h86l19 -43q1 1 10.5 8t11.5 8.5t11 7t12.5 7t11.5 6t14 5.5t14 4q13 3 35 3z
" />
    <glyph glyph-name="n.superior" horiz-adv-x="404" 
d="M258 738q117 0 117 -124v-236h-108v227q0 47 -42 47q-27 0 -45.5 -6.5t-42.5 -23.5v-244h-108v353h84l21 -42q2 1 10.5 7.5t10.5 7.5t9.5 6.5t10.5 7l11 5.5t12.5 5.5l12 4t14.5 3.5q20 2 33 2z" />
    <glyph glyph-name="o.superior" horiz-adv-x="400" 
d="M62 416.5q-39 41.5 -39 138t39 138.5t136.5 42t136 -42.5t38.5 -139.5t-38.5 -137.5t-136 -40.5t-136.5 41.5zM145 629q-13 -19 -13 -76.5t14 -74t46.5 -16.5t45.5 5q26 11 26 78t-13 85t-53 18t-53 -19z" />
    <glyph glyph-name="p.superior" horiz-adv-x="401" 
d="M248 741q126 0 126 -185q0 -141 -62 -175q-26 -14 -74 -14t-102 27v-202h-107v544h86l21 -40q53 45 112 45zM136 466q37 -14 63.5 -14t33.5 2t13.5 8.5t10.5 17.5q9 24 9 75t-12 71.5t-37 20.5q-45 0 -81 -21v-160z" />
    <glyph glyph-name="q.superior" horiz-adv-x="401" 
d="M23 556q0 184 145 184q123 0 202 -22v-526h-109v203q-43 -30 -94 -30q-80 0 -112 49t-32 142zM132 584v-30t0.5 -31t3.5 -28t8 -24q15 -19 42 -19t38 2t37 11v191h-70q-55 0 -59 -72z" />
    <glyph glyph-name="r.superior" horiz-adv-x="312" 
d="M242 735q31 0 43 -4v-104q-20 1 -53.5 1t-55 -7.5t-39.5 -28.5v-214h-108v353h91l14 -50q56 54 108 54z" />
    <glyph glyph-name="s.superior" horiz-adv-x="367" 
d="M23 613v31q0 94 96 94q73 0 127.5 -7.5t74.5 -13.5v-69h-169q-17 0 -22 -5t-5 -17v-13q0 -14 6.5 -17.5t21.5 -3.5h93q48 0 71.5 -23.5t23.5 -62.5v-39q0 -51 -25.5 -73.5t-72 -22.5t-117.5 6t-86 17v68h174h3.5h4t4 0.5t4 1t4 2t3.5 4.5q3 5 3 13v13q0 14 -8 17.5
t-18 3.5h-88q-103 0 -103 96z" />
    <glyph glyph-name="t.superior" horiz-adv-x="297" 
d="M189 831v-96h83v-84h-83v-128q0 -38 6 -47t11 -12t30 -10.5t28 -7.5v-68h-86q-49 0 -73 28.5t-24 95.5v149h-61v61l61 16l19 103h89z" />
    <glyph glyph-name="u.superior" horiz-adv-x="401" 
d="M135 731v-227q0 -23 11.5 -34.5t34 -11.5t39.5 6t42 22v245h108v-353h-85l-23 44q-22 -19 -34 -28q-32 -23 -84 -23q-117 0 -117 127v233h108z" />
    <glyph glyph-name="v.superior" horiz-adv-x="412" 
d="M19 731h107l80 -233l80 233h106l-135 -353h-105z" />
    <glyph glyph-name="w.superior" horiz-adv-x="602" 
d="M19 731h107l80 -233l73 233h100l-33 -97l53 -136l76 233h107l-132 -353h-101l-50 123l-45 -123h-102z" />
    <glyph glyph-name="x.superior" horiz-adv-x="413" 
d="M20 378l128 179l-128 174h118l68 -100l66 100h120l-127 -175l125 -178h-116l-67 106l-68 -106h-119z" />
    <glyph glyph-name="y.superior" horiz-adv-x="435" 
d="M19 732h104l71 -244q8 -27 31 -27l81 271h109l-135 -469l-57 -68h-77l55 180q-40 1 -64.5 25.5t-34.5 62.5z" />
    <glyph glyph-name="z.superior" horiz-adv-x="365" 
d="M337 731v-84l-162 -181h162v-87h-303v87l168 178h-179v87h314z" />
    <glyph glyph-name="zero.tnum" horiz-adv-x="613" 
d="M44 178v370q0 89 49.5 136.5t134.5 47.5h164q95 0 136.5 -49.5t41.5 -128.5v-376q0 -87 -46.5 -132.5t-131.5 -45.5h-164q-86 0 -135 45t-49 133zM184 201q0 -72 76 -72h97q37 0 55 16t18 55v332q0 71 -68 71h-106q-40 0 -56 -21.5t-16 -49.5v-331z" />
    <glyph glyph-name="one.tnum" horiz-adv-x="613" 
d="M399 732v-614h143v-118h-432v118h148v475l-147 -37v92l148 84h140z" />
    <glyph glyph-name="two.tnum" horiz-adv-x="613" 
d="M347 742q110 0 165 -67q52 -64 52 -160q0 -167 -277 -386h277v-129h-515v123q81 54 153.5 116t116 106t74 90.5t30.5 87.5q0 89 -122 89h-258v104q147 26 304 26z" />
    <glyph glyph-name="three.tnum" horiz-adv-x="613" 
d="M366 -7h-58h-19t-33.5 0.5t-37.5 1t-33 2t-35.5 3.5t-31.5 5q-30 5 -62 16l1 102h254q56 0 79 12t23 56v32q0 42 -23.5 57.5t-72.5 17.5l-199 8v112l199 10q53 3 75.5 18.5t22.5 53.5v36q0 27 -14.5 43t-34.5 21t-49 5h-267v101q82 29 260 29q32 0 68 -1t70 -13.5
t57 -35.5q49 -47 49 -127v-52q0 -114 -76 -142q76 -32 76 -150v-42q0 -87 -48.5 -133t-139.5 -46z" />
    <glyph glyph-name="four.tnum" horiz-adv-x="613" 
d="M399 292v167l31 77h109v-244h73v-108l-73 -24v-158h-140v158h-344l-34 64l261 508h154l-218 -440h181z" />
    <glyph glyph-name="five.tnum" horiz-adv-x="613" 
d="M218 438q32 26 113 26q27 0 66 -2q84 -3 125 -52.5t41 -129.5v-103q0 -111 -85 -157q-45 -24 -101 -24q-102 0 -158.5 4t-150.5 20v110h282q46 0 61 24q12 20 12 47v67q0 52 -31 65q-14 6 -36 6h-94q-28 0 -44.5 -14.5t-16.5 -44.5h-132l22 452h445v-129h-310z" />
    <glyph glyph-name="six.tnum" horiz-adv-x="613" 
d="M55.5 223q-9.5 68 -9.5 142t5 121t14 82t22 63t27.5 46.5t31.5 31.5q32 23 70.5 26t79.5 3q108 0 241 -23v-106h-251q-93 0 -99 -158q-1 -13 -1 -27q82 20 203 20q102 0 139 -50q33 -44 33 -120v-110q0 -165 -178 -165h-143q-37 0 -65 10t-53 35.5t-41 68t-25.5 110.5z
M186 321q0 -113 25 -154q23 -39 70 -39h77q33 0 48 12.5t15 49.5v67q0 48 -26 59q-13 5 -34 5h-175z" />
    <glyph glyph-name="seven.tnum" horiz-adv-x="613" 
d="M51 603v129h471l38 -64l-245 -668h-153l225 603h-336z" />
    <glyph glyph-name="eight.tnum" horiz-adv-x="613" 
d="M52 168v73q0 45 21 74.5t57 38.5q-50 21 -65 63q-13 34 -13 82v65q0 100 55 138q49 35 131 35h152q58 0 95 -17q78 -35 78 -157v-53q0 -27 -9 -55q-18 -53 -66 -61q22 -4 38 -20t23 -37q14 -41 14 -80v-86q0 -118 -78 -153q-39 -18 -96 -18h-151q-158 0 -181 111
q-5 26 -5 57zM192 183q0 -41 29 -53q16 -6 42 -6h94q66 0 66 59v70q0 30 -16.5 46t-46.5 16h-102q-66 0 -66 -62v-70zM192 494q0 -62 66 -62h100q41 0 54 19q11 16 11 43v47q0 42 -16.5 57.5t-48.5 15.5h-95q-38 0 -54.5 -13.5t-16.5 -59.5v-47z" />
    <glyph glyph-name="nine.tnum" horiz-adv-x="613" 
d="M224 735h143q37 0 65 -9.5t53 -35.5t41 -68q35 -92 35 -272q0 -216 -75 -300q-40 -46 -90 -50.5t-94 -4.5q-111 0 -232 24v106h251q44 0 66 31q22 32 26 64q7 47 8 91q-83 -21 -203 -21q-102 0 -139 50q-33 45 -33 121v109q0 165 178 165zM186 477q0 -37 14 -50.5
t46 -13.5h175q0 113 -25 155q-23 38 -71 38h-76q-34 0 -48.5 -12.5t-14.5 -49.5v-67z" />
    <glyph glyph-name="zero.tosf" horiz-adv-x="613" 
d="M44 178v270q0 59 23 101q46 83 161 83h164q95 0 136.5 -48.5t41.5 -129.5v-276q0 -87 -46.5 -132.5t-131.5 -45.5h-164q-86 0 -135 45t-49 133zM184 201q0 -72 76 -72h97q37 0 55 16t18 55v232q0 71 -68 71h-106q-40 0 -56 -21.5t-16 -49.5v-231z" />
    <glyph glyph-name="one.tosf" horiz-adv-x="613" 
d="M414 632v-514h140v-118h-423v118h143v374l-140 -35v92l141 83h139z" />
    <glyph glyph-name="two.tosf" horiz-adv-x="613" 
d="M346 640q217 0 217 -194q0 -43 -22.5 -88.5t-53.5 -79.5t-72 -68q-60 -49 -117 -81h263v-129h-512v123q3 2 27 15.5t50 28.5t75.5 45t82.5 55t68 55q71 61 71 108.5t-27.5 64t-87.5 16.5h-7h-258v104q141 25 278 25h25z" />
    <glyph glyph-name="three.tosf" horiz-adv-x="613" 
d="M366 -102l-58 -1q-13 0 -19 0.5t-33.5 0.5t-37.5 1t-33 2t-35.5 3.5t-31.5 5.5q-30 4 -62 16l1 102h254q56 0 79 12t23 56v31q0 43 -23.5 58.5t-72.5 17.5l-199 7v113l199 10q53 2 75.5 17.5t22.5 54.5v36q0 27 -14.5 43t-34.5 21t-49 5h-267v101q82 29 260 29
q32 0 64 -1q82 -2 131 -49.5t49 -126.5v-53q0 -113 -76 -141q76 -33 76 -150v-42q0 -117 -85 -159q-42 -20 -103 -20z" />
    <glyph glyph-name="four.tosf" horiz-adv-x="613" 
d="M399 192v167l31 77h109v-244h73v-108l-73 -24v-158h-140v158h-344l-34 64l261 508h154l-218 -440h181z" />
    <glyph glyph-name="five.tosf" horiz-adv-x="613" 
d="M218 338q32 26 107 26q27 0 72 -2q84 -3 125 -52.5t41 -129.5v-103q0 -49 -17 -85.5t-46 -56.5q-55 -39 -123 -39q-102 0 -158.5 4t-150.5 20v110h282q32 0 43.5 8.5t17 15t7.5 15.5q5 15 5 32v67q0 52 -31 65q-14 6 -36 6h-94q-28 0 -44.5 -14.5t-16.5 -44.5h-132
l22 452h445v-129h-310z" />
    <glyph glyph-name="six.tosf" horiz-adv-x="613" 
d="M55.5 223q-9.5 68 -9.5 142t5 121t14 82t22 63t27.5 46.5t31.5 31.5q32 23 70.5 26t79.5 3q108 0 241 -23v-106h-251q-93 0 -99 -158q-1 -13 -1 -27q82 20 203 20q102 0 139 -50q33 -44 33 -120v-110q0 -165 -178 -165h-143q-37 0 -65 10t-53 35.5t-41 68t-25.5 110.5z
M186 321q0 -113 25 -154q23 -39 70 -39h77q33 0 48 12.5t15 49.5v67q0 48 -26 59q-13 5 -34 5h-175z" />
    <glyph glyph-name="seven.tosf" horiz-adv-x="613" 
d="M51 503v129h471l38 -64l-245 -668h-153l225 603h-336z" />
    <glyph glyph-name="eight.tosf" horiz-adv-x="613" 
d="M52 168v73q0 45 21 74.5t57 38.5q-50 21 -65 63q-13 34 -13 82v65q0 100 55 138q49 35 131 35h152q58 0 95 -17q78 -35 78 -157v-53q0 -27 -9 -55q-18 -53 -66 -61q22 -4 38 -20t23 -37q14 -41 14 -80v-86q0 -118 -78 -153q-39 -18 -96 -18h-151q-158 0 -181 111
q-5 26 -5 57zM192 183q0 -41 29 -53q16 -6 42 -6h94q66 0 66 59v70q0 30 -16.5 46t-46.5 16h-102q-66 0 -66 -62v-70zM192 494q0 -62 66 -62h100q41 0 54 19q11 16 11 43v47q0 42 -16.5 57.5t-48.5 15.5h-95q-38 0 -54.5 -13.5t-16.5 -59.5v-47z" />
    <glyph glyph-name="nine.tosf" horiz-adv-x="613" 
d="M224 633h143q37 -1 65 -10.5t53 -35t41 -68.5q35 -92 35 -271q0 -253 -101 -325q-32 -23 -73.5 -27t-85.5 -4q-112 0 -231 24v107h251q44 0 66 31q22 32 26 63q7 47 8 91q-83 -21 -203 -21q-102 0 -139 50q-33 45 -33 121v109q0 166 178 166zM186 375q0 -48 26 -59
q13 -5 34 -5h175q0 113 -25 154q-23 39 -71 39h-76q-34 0 -48.5 -12.5t-14.5 -49.5v-67z" />
    <glyph glyph-name="gbreve.salt" horiz-adv-x="555" 
d="M175 712h58q0 -25 16 -40.5t42 -15.5t41 15t15 41h58q0 -34 -16 -61q-31 -53 -100 -53q-48 0 -81 31.5t-33 82.5zM38 277q0 263 194 263q75 0 155.5 -9t122.5 -21v-570q0 -103 -53.5 -158t-129.5 -55q-12 0 -26 1l-241 24v93h225q54 0 75 42q10 21 10 53v97
q-58 -38 -138 -38q-109 0 -151.5 68.5t-42.5 209.5zM178.5 314q-0.5 -13 -0.5 -39t0.5 -42.5t2.5 -40.5t7.5 -36t13.5 -24q16 -23 53 -23t59.5 4.5t55.5 17.5v302h-110q-40 0 -57 -26q-18 -28 -21 -54t-3.5 -39z" />
    <glyph glyph-name="gdotaccent.salt" horiz-adv-x="555" 
d="M230 622v76q0 25 24 25h72q11 0 17 -7t6 -18v-76q0 -23 -23 -23h-72q-11 0 -17.5 6.5t-6.5 16.5zM38 277q0 263 194 263q75 0 155.5 -9t122.5 -21v-570q0 -103 -53.5 -158t-129.5 -55q-12 0 -26 1l-241 24v93h225q54 0 75 42q10 21 10 53v97q-58 -38 -138 -38
q-109 0 -151.5 68.5t-42.5 209.5zM178.5 314q-0.5 -13 -0.5 -39t0.5 -42.5t2.5 -40.5t7.5 -36t13.5 -24q16 -23 53 -23t59.5 4.5t55.5 17.5v302h-110q-40 0 -57 -26q-18 -28 -21 -54t-3.5 -39z" />
    <glyph glyph-name="gcircumflex.salt" horiz-adv-x="555" 
d="M137 598l108 136h104l96 -136h-93l-58 60l-63 -60h-94zM38 277q0 263 194 263q75 0 155.5 -9t122.5 -21v-570q0 -103 -53.5 -158t-129.5 -55q-12 0 -26 1l-241 24v93h225q54 0 75 42q10 21 10 53v97q-58 -38 -138 -38q-109 0 -151.5 68.5t-42.5 209.5zM178.5 314
q-0.5 -13 -0.5 -39t0.5 -42.5t2.5 -40.5t7.5 -36t13.5 -24q16 -23 53 -23t59.5 4.5t55.5 17.5v302h-110q-40 0 -57 -26q-18 -28 -21 -54t-3.5 -39z" />
    <glyph glyph-name="c_t" horiz-adv-x="855" 
d="M39 144q-9 49 -9 117t9.5 117.5t24.5 79t40 46.5q40 29 107 29l372 -1l23 147h117v-148h118v-107h-118v-213q0 -74 19 -91q9 -7 47 -20t42 -13v-88h-118q-67 0 -98.5 44t-31.5 146v235l-311 -1h-10t-17 -0.5t-21 -3.5t-19 -9t-14 -18t-12 -29q-9 -45 -9 -101.5t4.5 -87
t17.5 -45.5t29 -19t52 -4q76 0 158 7l28 2v-88q-57 -20 -111.5 -27t-114 -7t-84 5.5t-48 22t-38.5 45.5t-24 78z" />
    <glyph glyph-name="t_t" horiz-adv-x="755" 
d="M15 425v78l86 29l23 148h117v-148h241l23 148h117v-148h119v-107h-119v-213q0 -61 9 -76t16.5 -19.5t43.5 -17t40 -12.5v-87h-118q-67 0 -99 43.5t-32 146.5v235h-241v-213q0 -74 19 -91q9 -8 47 -21t42 -13v-87h-117q-67 0 -99 43.5t-32 146.5v235h-86z" />
    <glyph glyph-name="f_t" horiz-adv-x="760" 
d="M15 424v90l84 17v99q0 74 36 115t116 41t139 -24v-83l-96 1q-46 1 -52 -30q-3 -17 -3 -53v-65h248l24 148h116v-148h119v-107h-119v-213q1 -61 9.5 -76t16 -19.5t43 -17t40.5 -12.5v-87h-118q-67 0 -99 43.5t-32 146.5v235h-249v-425h-140v424h-83z" />
    <glyph glyph-name="t_y" horiz-adv-x="962" 
d="M241 680v-148h144q86 0 127 -30t58 -97l71 -246q11 -36 54 -39l107 411h146l-184 -699l-73 -102h-102l78 270q-121 0 -160 135l-67 217q-11 42 -31.5 57.5t-64.5 15.5h-103v-213q0 -74 19 -91q9 -8 47 -21t42 -13v-87h-117q-67 0 -99 43.5t-32 146.5v235h-86v78l86 29
l23 148h117z" />
    <glyph glyph-name="f_y" horiz-adv-x="981" 
d="M15 424v90l84 17v99q0 74 36 115t110.5 41t144.5 -28v-84l-96 6q-28 2 -43 -11q-10 -8 -11 -28.5t-1 -43.5v-66h159h2q113 0 155 -55q20 -27 33 -71l73 -245q10 -36 53 -39l107 410h146l-184 -699l-73 -102h-102l78 270q-122 0 -160 136l-69 216q-11 42 -32 57t-64 15h-2
h-121v-424h-140v424h-83z" />
    <glyph glyph-name="gcommaaccent.salt" horiz-adv-x="555" 
d="M228 617v111q0 28 12 45.5t29 22.5q21 6 37.5 6t25.5 -2l12 -3v-43q-13 0 -19 -4q-9 -6 -9 -19v-13h10q22 0 22 -22v-79q0 -24 -22 -24h-76q-22 0 -22 24zM38 277q0 263 194 263q75 0 155.5 -9t122.5 -21v-570q0 -103 -53.5 -158t-129.5 -55q-12 0 -26 1l-241 24v93h225
q54 0 75 42q10 21 10 53v97q-58 -38 -138 -38q-109 0 -151.5 68.5t-42.5 209.5zM178.5 314q-0.5 -13 -0.5 -39t0.5 -42.5t2.5 -40.5t7.5 -36t13.5 -24q16 -23 53 -23t59.5 4.5t55.5 17.5v302h-110q-40 0 -57 -26q-18 -28 -21 -54t-3.5 -39z" />
    <glyph glyph-name="exclam.smcp" horiz-adv-x="272" 
d="M66 23v90q0 25 24 25h88q11 0 17 -7t6 -18v-90q0 -23 -23 -23h-88q-11 0 -17.5 6.5t-6.5 16.5zM65 570h141l-16 -386h-113z" />
    <glyph glyph-name="quotedbl.smcp" horiz-adv-x="443" 
d="M65 601h134v-67l-10 -134h-113l-11 134v67zM245 601h135v-67l-10 -134h-114l-11 134v67z" />
    <glyph glyph-name="numbersign.smcp" horiz-adv-x="610" 
d="M15 151l15 95h120l16 94h-121l14 96h122l24 147h96l-24 -147h96l24 147h96l-24 -147h127l-14 -96h-128l-16 -94h128l-14 -96h-129l-25 -150h-96l25 150l-96 1l-25 -151h-96l25 151h-120zM246 246h96l15 94h-95z" />
    <glyph glyph-name="dollar.smcp" horiz-adv-x="520" 
d="M58 113l228 -3q23 0 38.5 11.5t15.5 31.5v25q0 43 -50 43h-92q-160 0 -160 154v34q0 163 167 165v75h88v-78q89 -7 163 -19v-101q-158 5 -203 5t-60 -10.5t-15 -39.5v-20q0 -43 53 -43h97q117 0 145 -101q7 -27 7 -59v-34q0 -96 -54 -129q-45 -29 -124 -29h-9v-72h-88v76
q-122 8 -147 19v99z" />
    <glyph glyph-name="percent.smcp" horiz-adv-x="923" 
d="M22 349v91q0 44 12 71q26 59 122 59h76q71 0 102 -32t31 -98v-91q0 -44 -13 -72q-26 -58 -122 -58h-76q-71 0 -101.5 32t-30.5 98zM120 366q0 -26 7 -35q12 -14 41 -14h48q41 0 48 21q3 10 3 28v57q0 29 -10.5 39t-38.5 10h-48q-29 0 -39.5 -10t-10.5 -39v-57zM262 0
l297 570h101l-294 -570h-104zM558 132v90q0 66 31 98t104 32h76q71 0 101.5 -32t30.5 -98v-90q0 -67 -30.5 -99t-103.5 -32h-76q-71 0 -102 32.5t-31 98.5zM656 148q0 -27 10 -38t39 -11h48q32 0 41 11t9 38v57q0 30 -10 39.5t-38 9.5h-48q-29 0 -40 -10t-11 -39v-57z" />
    <glyph glyph-name="ampersand.smcp" horiz-adv-x="595" 
d="M247 574q85 0 169 -23v-97h-129q-37 0 -37 -18q0 -11 14 -29l120 -153l97 77l52 -58l-54 -87l-25 -25l123 -161h-151l-63 80l-50 -47q-43 -39 -120 -39q-36 0 -72.5 18.5t-63.5 57.5q-32 46 -32 90t17.5 78t55.5 67l56 47l-31 40q-27 39 -27 74q0 41 25.5 70t58.5 33.5
t67 4.5zM200 115q7 0 17 1t24 15l48 44l-63 80l-50 -40q-26 -20 -26 -46q0 -16 15.5 -35t34.5 -19z" />
    <glyph glyph-name="quotesingle.smcp" horiz-adv-x="263" 
d="M65 601h134v-67l-10 -134h-113l-11 134v67z" />
    <glyph glyph-name="asterisk.smcp" horiz-adv-x="426" 
d="M38 400v56l139 24l4 -85zM94 250l25 137l83 -21l-54 -133zM166 554l54 19l67 -123l-79 -32zM190 300l47 72l112 -90l-32 -45zM239 405l119 79l32 -48l-96 -97z" />
    <glyph glyph-name="zero.smcp" horiz-adv-x="570" 
d="M53 162v246q0 54 24 91q44 71 148 71h126q134 0 161 -109q6 -26 6 -53v-246q0 -162 -167 -162h-126q-72 0 -120 36q-52 39 -52 126zM193 192q0 -25 9 -39q15 -24 54 -24h63q33 0 46 16t13 47v181q0 33 -11.5 50.5t-48.5 17.5h-63q-37 0 -49.5 -17.5t-12.5 -49.5v-182z
" />
    <glyph glyph-name="one.smcp" horiz-adv-x="358" 
d="M298 571v-571h-140v432l-128 -35v91l129 83h139z" />
    <glyph glyph-name="two.smcp" horiz-adv-x="517" 
d="M267 575q109 0 160.5 -50t51.5 -148q0 -65 -36 -118q-36 -52 -79 -83q-41 -30 -75 -47h188v-129h-440v123q16 9 52.5 28.5t65.5 35t65 39t60 44.5q57 51 57 96.5t-22 62.5t-79 17h-7l-199 -1v103q22 4 55.5 10.5t50.5 9.5q47 7 131 7z" />
    <glyph glyph-name="three.smcp" horiz-adv-x="507" 
d="M241 574q31 0 66 -1q66 -2 105 -43t39 -101v-29q0 -101 -56 -116q31 -15 43.5 -45t12.5 -77v-21q0 -142 -149 -146q-32 -1 -61 -1q-151 0 -213 22v105h225q26 0 41 8.5t15 33.5v14q0 27 -13.5 36.5t-41.5 9.5l-178 5v112l178 4q32 1 44.5 9.5t12.5 35.5v17q0 23 -13.5 32
t-42.5 9h-232v104q66 23 218 23z" />
    <glyph glyph-name="four.smcp" horiz-adv-x="556" 
d="M334 249v121l37 86h103v-207h68v-109l-68 -18v-120h-140v120h-278l-41 70l190 378h150l-157 -321h136z" />
    <glyph glyph-name="five.smcp" horiz-adv-x="531" 
d="M231 251q-53 0 -53 -47h-119l17 366h385v-129h-264l-7 -107q27 28 70 28h63q87 0 125.5 -39.5t38.5 -118.5v-52q0 -117 -102 -145q-29 -8 -83 -8q-157 0 -244 24v104h235q30 0 42 11t12 36v31q0 31 -12 38q-13 8 -39 8h-65z" />
    <glyph glyph-name="six.smcp" horiz-adv-x="540" 
d="M50 295q0 69 10 118t26.5 79t39.5 50q40 34 94 34h18q149 0 240 -15v-114h-225q-63 0 -63 -103q69 12 170 12q136 0 136 -142v-66q0 -74 -43 -111.5t-104 -37.5h-123q-108 0 -145 86q-31 72 -31 210zM190 246q0 -67 8 -84q18 -34 48 -34h70q21 0 30.5 8t9.5 32v44
q0 21 -9 27.5t-31 6.5h-126z" />
    <glyph glyph-name="seven.smcp" horiz-adv-x="477" 
d="M23 441v129h391l41 -64l-188 -506h-152l166 441h-258z" />
    <glyph glyph-name="eight.smcp" horiz-adv-x="562" 
d="M507 390q0 -81 -58 -93q28 -5 43 -35.5t15 -61.5v-70q0 -77 -48 -106q-40 -24 -88 -24h-175q-102 0 -128 62q-11 28 -11 68v70q0 42 23 57q17 12 44 21q-23 8 -39 28q-28 34 -28 84v43q0 83 35.5 112.5t109.5 29.5h166q68 0 103.5 -31.5t35.5 -110.5v-43zM197 159
q0 -25 10 -32.5t39 -7.5h78q23 0 33 8t10 30v38q0 22 -10 31t-31 9h-87q-21 0 -31.5 -8t-10.5 -31v-37zM197 382q0 -40 41 -40h89q35 0 39 24q1 6 1 14v34q0 25 -9 33.5t-32 8.5h-84q-26 0 -35.5 -7t-9.5 -35v-32z" />
    <glyph glyph-name="nine.smcp" horiz-adv-x="540" 
d="M46 360v67q0 74 42.5 111.5t102.5 37.5h124q108 0 146 -86q31 -72 31 -215q0 -179 -70 -242q-37 -34 -90 -34h-22q-168 0 -246 15v114h224q64 0 64 103q-75 -12 -172 -12q-134 0 -134 141zM186 363q0 -27 15 -32q8 -2 23 -2h128q0 86 -25 107q-13 11 -33 11h-70
q-21 0 -29.5 -8t-8.5 -32v-44z" />
    <glyph glyph-name="question.smcp" horiz-adv-x="468" 
d="M15 442v113q114 19 203 19h35q185 0 185 -171v-32q0 -79 -53 -120q-39 -29 -93 -29q-20 0 -41 4v-42h-109v140h53h47q56 2 56 44v24q0 27 -15.5 38.5t-51.5 11.5h-216zM128 23v90q0 25 24 25h86q25 0 25 -25v-90q0 -23 -25 -23h-86q-24 0 -24 23z" />
    <glyph glyph-name="at.smcp" horiz-adv-x="868" 
d="M256 553h192q97 0 138 -42q37 -38 37 -115v-355h-90l-20 58l-7.5 -7t-21.5 -16.5t-32 -19.5q-43 -24 -94 -24h-1q-59 0 -93 39t-34 94v42q0 67 38 103t108 36h135q1 21 1 32t-1 11q0 31 -14 41t-48 10h-193q-70 0 -86 -42q-8 -19 -8 -48v-287q0 -85 62 -104q15 -5 32 -5
h333q58 0 80.5 27t22.5 82v457q0 56 -28 86.5t-75 30.5h-404v85q46 10 130 18.5t126 8.5h48h100q88 -1 149 -51q66 -56 66 -178v-457q0 -111 -51.5 -166.5t-158.5 -55.5h-338q-92 0 -149 51.5t-57 159.5v304q0 159 141 190q29 7 65 7zM394 144h1.5h1.5q68 0 114 43v79
l-119 -10q-44 -4 -44 -46v-13.5v-13.5q0 -17 12.5 -28t33.5 -11z" />
    <glyph glyph-name="a.smcp" horiz-adv-x="606" 
d="M27 0l200 570h167l187 -570h-147l-39 116h-179l-42 -116h-147zM250 229h114l-54 169z" />
    <glyph glyph-name="b.smcp" horiz-adv-x="548" 
d="M61 0v571h269q92 0 137 -39.5t45 -113.5q0 -110 -79 -127q35 -8 58.5 -40.5t23.5 -88.5q0 -85 -45 -123.5t-140 -38.5h-269zM201 119h118q39 0 49 28q5 13 5 33q0 64 -52.5 64h-82h-37.5v-125zM201 346h118q39 0 48 23q5 12 5 33q0 51 -53 51h-118v-107z" />
    <glyph glyph-name="c.smcp" horiz-adv-x="514" 
d="M46 202q-4 39 -4 99.5t9.5 109t33.5 87.5q48 80 183.5 80t219.5 -30v-98q-16 3 -83 9.5t-107 6.5t-63 -10.5t-34.5 -34.5t-15 -51.5t-3.5 -62.5v-44t1 -29.5t3 -29.5t5.5 -25t9 -24t14 -18.5t20.5 -15.5q28 -12 62 -12q64 0 161 11l30 3v-95q-47 -18 -98 -25t-118 -7
t-108 16.5t-64 42.5t-36.5 67t-17.5 80z" />
    <glyph glyph-name="d.smcp" horiz-adv-x="590" 
d="M336 0h-6h-269v572h269q219 -2 219 -289q0 -136 -39 -199q-13 -22 -24.5 -35.5t-29.5 -23.5t-31 -15q-27 -10 -89 -10zM201 124h113q58 0 78 48q17 43 17 111q0 165 -95 165h-113v-324z" />
    <glyph glyph-name="e.smcp" horiz-adv-x="512" 
d="M61 105v354q0 57 34 84t92 28q241 -5 292 -15v-108h-246q-21 0 -26.5 -6.5t-5.5 -25.5v-72l242 -8v-105l-242 -7v-70q0 -20 8.5 -26t27.5 -6h242v-108q-55 -13 -248 -15l-64 -1q-50 1 -78 28t-28 79z" />
    <glyph glyph-name="f.smcp" horiz-adv-x="512" 
d="M61 0v459q0 110 126 112q241 -5 292 -15v-108h-246q-21 0 -26 -6.5t-6 -25.5v-84l242 -8v-105l-242 -7v-212h-140z" />
    <glyph glyph-name="g.smcp" horiz-adv-x="567" 
d="M42 262.5v51t9 95.5t32 90q44 76 161 80q16 1 49 1t104 -6t115 -20v-101q-109 13 -179 13t-90 -5t-35.5 -24t-20.5 -54t-5 -74t0.5 -51t2.5 -31t5.5 -32t10.5 -28t17 -24q37 -36 108 -15q49 14 60 40v66h-101v77q71 19 174 19q31 0 67 -3v-327h-105l-32 44
q-51 -51 -151 -51h-16t-43.5 9t-46.5 21.5t-34 34.5t-24.5 40t-16 45.5t-9.5 43.5t-4.5 42.5t-1.5 33z" />
    <glyph glyph-name="h.smcp" horiz-adv-x="586" 
d="M61 -1v571h140v-230h201v230h140v-571h-140v211h-201v-211h-140z" />
    <glyph glyph-name="i.smcp" horiz-adv-x="245" 
d="M61 0v570h140v-570h-140z" />
    <glyph glyph-name="j.smcp" horiz-adv-x="336" 
d="M231 17q-48 -22 -104 -22t-100 26l2 109q19 -2 48.5 -2t47.5 12q25 16 26 69v361h140v-405q0 -117 -60 -148z" />
    <glyph glyph-name="k.smcp" horiz-adv-x="579" 
d="M61 -1v571h134v-232h57l142 232h159l-179 -290l179 -281h-159l-144 221h-55v-221h-134z" />
    <glyph glyph-name="l.smcp" horiz-adv-x="501" 
d="M61 119v451h140v-392q-1 -36 16 -43q14 -6 44 -6h215v-129h-296q-54 0 -86.5 30t-32.5 89z" />
    <glyph glyph-name="m.smcp" horiz-adv-x="765" 
d="M42 0l54 571h181l107 -373l107 373h180l53 -571h-137l-35 360l-96 -360h-141l-98 359l-35 -359h-140z" />
    <glyph glyph-name="n.smcp" horiz-adv-x="601" 
d="M61 0v571h137l220 -316v316h139v-571h-136l-220 321v-321h-140z" />
    <glyph glyph-name="o.smcp" horiz-adv-x="598" 
d="M49.5 172.5q-7.5 46.5 -7.5 122t16 134.5t51 90.5t79.5 43.5t100 12t87 -3.5t63 -14t51.5 -30.5t36 -51q31 -60 31 -189q0 -140 -42 -209q-37 -61 -124 -76q-38 -7 -87 -7t-80.5 4t-62.5 14.5t-51.5 30.5t-36.5 51t-23.5 77.5zM187.5 361.5q-5.5 -30.5 -5.5 -80t5 -80.5
t20 -48.5t35.5 -23t55 -5.5t53 4.5t35.5 20.5q31 30 31 138q0 78 -9.5 102t-17 34t-22.5 15q-23 8 -59.5 8t-51 -2t-31.5 -10t-25 -25t-13.5 -47.5z" />
    <glyph glyph-name="p.smcp" horiz-adv-x="529" 
d="M322 569q174 0 174 -179q0 -140 -78 -177q-37 -18 -88 -18q-17 0 -79.5 5.5t-64.5 7.5v-208h-140v569h276zM186 302h118q25 0 38.5 15.5t13.5 56.5q0 77 -52 77h-118v-149z" />
    <glyph glyph-name="q.smcp" horiz-adv-x="598" 
d="M49.5 172.5q-7.5 46.5 -7.5 122t16 134.5t51 90.5t79.5 43.5t100 12t87 -3.5t63 -14t51.5 -30.5t36 -51q31 -60 31 -189q0 -140 -42 -209q-37 -61 -124 -76q-38 -7 -87 -7t-80.5 4t-62.5 14.5t-51.5 30.5t-36.5 51t-23.5 77.5zM187.5 361.5q-5.5 -30.5 -5.5 -80t5 -80.5
t20 -48.5t35.5 -23t55 -5.5t53 4.5t35.5 20.5q31 30 31 138q0 78 -9.5 102t-17 34t-22.5 15q-23 8 -59.5 8t-51 -2t-31.5 -10t-25 -25t-13.5 -47.5zM504 -174q-35 -6 -66 -6t-61 9.5t-55 26t-41 45.5t-19 66h80q24 -40 84 -40q34 0 78 12v-113z" />
    <glyph glyph-name="r.smcp" horiz-adv-x="549" 
d="M316 570q180 0 180 -178q0 -156 -84 -179l111 -213h-150l-93 201q-12 1 -53 5l-41 4v-210h-140v570h270zM342 320q14 17 14 50t-5 48t-14 21q-16 13 -34 13h-117v-149h117q25 0 39 17z" />
    <glyph glyph-name="s.smcp" horiz-adv-x="543" 
d="M42 368v47q0 158 154 158q52 0 139 -6t140 -17v-101q-145 7 -251 7q-42 0 -42 -43v-33q0 -31 18 -36q8 -2 24 -2h137q141 0 141 -154v-48q0 -150 -141 -150q-72 0 -172 5.5t-125 18.5v99q158 -5 258 -5q15 0 24.5 9t15.5 26v39q0 19 -9 27.5t-31 8.5h-131q-106 0 -135 69
q-14 32 -14 81z" />
    <glyph glyph-name="t.smcp" horiz-adv-x="520" 
d="M27 441v129h468v-129h-164v-441h-140v441h-164z" />
    <glyph glyph-name="u.smcp" horiz-adv-x="600" 
d="M60 570h141v-310q0 -98 40 -122q24 -14 60 -14t54 5.5t32 19.5q27 27 27 111v310h141v-310q0 -187 -107 -239q-34 -16 -65.5 -21t-68 -5t-61 2t-52 8.5t-47.5 18.5t-38.5 31.5t-30.5 47.5q-25 61 -25 157v310z" />
    <glyph glyph-name="v.smcp" horiz-adv-x="609" 
d="M27 570h147l134 -395l128 395h147l-191 -570h-167z" />
    <glyph glyph-name="w.smcp" horiz-adv-x="849" 
d="M27 570h147l112 -397l104 397h146l-47 -160l85 -237l106 397h144l-166 -570h-168l-62 179l-56 -179h-169z" />
    <glyph glyph-name="x.smcp" horiz-adv-x="590" 
d="M27 0l182 284l-179 286h170l96 -175l98 175h171l-183 -288l180 -282h-165l-101 171l-100 -171h-169z" />
    <glyph glyph-name="y.smcp" horiz-adv-x="592" 
d="M368 -1h-140v197l-201 374h152l120 -225l115 225h153l-199 -374v-197z" />
    <glyph glyph-name="z.smcp" horiz-adv-x="500" 
d="M27 0v129l267 312h-267v129h448v-129l-258 -312h258v-129h-448z" />
    <glyph glyph-name="grave.smcp" horiz-adv-x="243" 
d="M15 670h123l90 -139h-91z" />
    <glyph glyph-name="aogonek.smcp" horiz-adv-x="612" 
d="M547 -186q-13 -3 -28.5 -3t-39 8t-41.5 29q-26 32 -26 57q0 60 71 96h56q-67 -50 -42 -90q14 -22 50 -20v-77zM27 0l200 570h167l187 -570h-147l-39 116h-179l-42 -116h-147zM250 229h114l-54 169z" />
    <glyph glyph-name="rcommaaccent.smcp" horiz-adv-x="549" 
d="M215 -174v78q0 24 23 24h76q21 0 21 -24v-111q0 -28 -12 -45.5t-29 -22.5q-20 -6 -36.5 -6t-25.5 2l-12 3v44q12 -1 19 3q9 6 9 19v13h-10q-23 0 -23 23zM46 0v570h270q180 0 180 -178q0 -156 -84 -179l111 -213h-150l-93 201q-12 1 -53 5l-41 4v-210h-140zM186 303h117
q25 0 39 17t14 59t-16 57.5t-37 15.5h-117v-149z" />
    <glyph glyph-name="itilde.smcp" horiz-adv-x="245" 
d="M179 720q38 0 88 38l24 -60q-62 -68 -112 -68q-25 0 -60 17.5t-48.5 17.5t-23.5 -1.5t-16 -3t-15.5 -6t-13 -6.5t-15 -9t-15.5 -9l-24 55q64 70 121 70q24 -1 57 -18t42 -17h11zM61 0v570h140v-570h-140z" />
    <glyph glyph-name="lcommaaccent.smcp" horiz-adv-x="501" 
d="M208 -174v78q0 24 22 24h76q22 0 22 -24v-111q0 -28 -12 -45.5t-29 -22.5q-21 -6 -37.5 -6t-25.5 2l-12 3v44q13 -1 19 3q9 6 9 19v13h-10q-22 0 -22 23zM61 119v451h140v-392q-1 -36 16 -43q14 -6 44 -6h215v-129h-296q-54 0 -86.5 30t-32.5 89z" />
    <glyph glyph-name="dieresis.smcp" horiz-adv-x="448" 
d="M38 581.5q0 24.5 17.5 41.5t41.5 17t41 -17t17 -41.5t-17 -42t-41 -17.5t-41.5 17.5t-17.5 42zM293 581.5q0 24.5 17.5 41.5t41.5 17t41 -17t17 -41.5t-17 -42t-41 -17.5t-41.5 17.5t-17.5 42z" />
    <glyph glyph-name="scaron.smcp" horiz-adv-x="543" 
d="M119 768h93l63 -60l59 60h93l-101 -135h-104zM42 368v47q0 158 154 158q52 0 139 -6t140 -17v-101q-145 7 -251 7q-42 0 -42 -43v-33q0 -31 18 -36q8 -2 24 -2h137q141 0 141 -154v-48q0 -150 -141 -150q-72 0 -172 5.5t-125 18.5v99q158 -5 258 -5q15 0 24.5 9t15.5 26
v39q0 19 -9 27.5t-31 8.5h-131q-106 0 -135 69q-14 32 -14 81z" />
    <glyph glyph-name="emacron.smcp" horiz-adv-x="512" 
d="M132 631v80h292v-80h-292zM61 105v354q0 57 34 84t92 28q241 -5 292 -15v-108h-246q-21 0 -26.5 -6.5t-5.5 -25.5v-72l242 -8v-105l-242 -7v-70q0 -20 8.5 -26t27.5 -6h242v-108q-55 -13 -248 -15l-64 -1q-50 1 -78 28t-28 79z" />
    <glyph glyph-name="gcommaaccent.smcp" horiz-adv-x="567" 
d="M42 267v19q0 146 45.5 217.5t162.5 75.5q16 1 48.5 1t100.5 -6t113 -20v-100q-34 4 -106 8.5t-104.5 4.5t-53 -5t-37.5 -23.5t-23 -54t-6 -81.5t1.5 -66.5t7 -43.5t16.5 -37q26 -34 92.5 -34t86.5 38v74h-107v77q70 19 180 19q31 0 67 -3v-327h-14h-76h-15l-32 40
q-26 -26 -60 -36.5t-81.5 -10.5t-80.5 13t-53.5 32t-35.5 48.5t-21 53.5q-14 45 -14.5 79.5t-0.5 47.5zM238 -176v79q0 24 22 24h76q22 0 22 -24v-111q0 -28 -12 -45.5t-29 -22.5q-21 -6 -37.5 -6t-25.5 2l-12 3v43q13 0 20 4q8 6 8 19v13h-10q-22 0 -22 22z" />
    <glyph glyph-name="tbar.smcp" horiz-adv-x="498" 
d="M15 441v129h468v-129h-164v-111h92v-65h-92v-265h-140v265h-94v65h94v111h-164z" />
    <glyph glyph-name="zcaron.smcp" horiz-adv-x="500" 
d="M96 766h94l63 -60l58 60h94l-102 -136h-104zM27 0v129l267 312h-267v129h448v-129l-258 -312h258v-129h-448z" />
    <glyph glyph-name="macron.smcp" horiz-adv-x="367" 
d="M38 503v80h292v-80h-292z" />
    <glyph glyph-name="degree.smcp" horiz-adv-x="278" 
d="M38 467q0 43 29.5 73t71.5 30t71.5 -30t29.5 -73t-29 -72.5t-71.5 -29.5t-72 29.5t-29.5 72.5zM108.5 497.5q-12.5 -12.5 -12.5 -26t3.5 -21.5t9.5 -13q12 -12 30 -12t30.5 12t12.5 30t-12.5 30.5t-30.5 12.5t-30.5 -12.5z" />
    <glyph glyph-name="acute.smcp" horiz-adv-x="243" 
d="M15 531l91 139h122l-122 -139h-91z" />
    <glyph glyph-name="caron.smcp" horiz-adv-x="384" 
d="M38 680h88l64 -69l67 69h89l-107 -149h-104z" />
    <glyph glyph-name="eng.smcp" horiz-adv-x="601" 
d="M57 0v571h137l220 -316v316h139v-622q-1 -89 -55 -125t-152 -36h-18v98q87 0 87 74v43l-218 318v-321h-140z" />
    <glyph glyph-name="amacron.smcp" horiz-adv-x="606" 
d="M164 630v80h292v-80h-292zM27 0l200 570h167l187 -570h-147l-39 116h-179l-42 -116h-147zM250 229h114l-54 169z" />
    <glyph glyph-name="aacute.smcp" horiz-adv-x="606" 
d="M265 630l91 138h122l-122 -138h-91zM27 0l200 570h167l187 -570h-147l-39 116h-179l-42 -116h-147zM250 229h114l-54 169z" />
    <glyph glyph-name="acircumflex.smcp" horiz-adv-x="606" 
d="M156 630l108 136h104l97 -136h-93l-59 60l-63 -60h-94zM27 0l200 570h167l187 -570h-147l-39 116h-179l-42 -116h-147zM250 229h114l-54 169z" />
    <glyph glyph-name="atilde.smcp" horiz-adv-x="606" 
d="M370 720q38 0 88 38l24 -60q-62 -68 -112 -68q-20 0 -41 9.5t-38.5 17.5t-25.5 8h-13t-14.5 -1.5t-15.5 -3t-15.5 -6t-13 -6.5t-15 -9t-15.5 -9l-24 55q63 70 121 70q24 -1 57 -18t42 -17h11zM27 0l200 570h167l187 -570h-147l-39 116h-179l-42 -116h-147zM250 229h114
l-54 169z" />
    <glyph glyph-name="adieresis.smcp" horiz-adv-x="606" 
d="M141.5 647.5q-17.5 17.5 -17.5 37.5t8 34q17 29 46.5 29t46.5 -17t17 -41.5t-17 -42t-41.5 -17.5t-42 17.5zM379 689q0 24 17.5 41.5t42 17.5t41.5 -17t17 -41.5t-17 -42t-41.5 -17.5t-42 17.5t-17.5 41.5zM27 0l200 570h167l187 -570h-147l-39 116h-179l-42 -116h-147z
M250 229h114l-54 169z" />
    <glyph glyph-name="aring.smcp" horiz-adv-x="606" 
d="M210 669q0 -28 13.5 -51.5t37 -37t51 -13.5t51 13.5t37 37t13.5 59t-29.5 65.5t-64.5 30t-58.5 -14t-37 -37.5t-13.5 -51.5zM268 669q0 18 13 30.5t31 12.5t30 -12.5t12 -30.5t-12 -30.5t-30 -12.5t-31 12.5t-13 30.5zM27 0l200 570h167l187 -570h-147l-39 116h-179
l-42 -116h-147zM250 229h114l-54 169z" />
    <glyph glyph-name="ae.smcp" horiz-adv-x="803" 
d="M772 448h-242q-27 0 -31 -14q-2 -6 -2 -19v-73l239 -8v-105l-239 -7v-70q0 -25 17 -29q7 -2 20 -2l238 -1v-107q-55 -13 -243 -15l-63 -1h-4q-45 0 -75.5 24.5t-30.5 76.5v38h-126l-61 -136h-151l203 462q27 64 90 87q53 18 123 20q14 1 30.5 1h19.5q237 -5 288 -15v-107
zM356 238v183l-83 -183h83z" />
    <glyph glyph-name="iogonek.smcp" horiz-adv-x="245" 
d="M175 -185q-13 -3 -28.5 -3t-39 7.5t-41.5 29.5q-26 31 -26 57q0 60 71 95h55q-33 -25 -40 -42t-7 -27t4.5 -17.5t11.5 -12.5q15 -12 40 -11v-76zM61 0v570h140v-570h-140z" />
    <glyph glyph-name="ccaron.smcp" horiz-adv-x="514" 
d="M137 778h94l63 -60l58 60h94l-102 -135h-104zM46 202q-4 39 -4 92.5t5.5 94.5t20.5 77.5t40 60.5q53 51 154 51q142 0 226 -30v-98q-16 3 -83 9.5t-107 6.5t-63 -10.5t-34.5 -34.5t-15 -51.5t-3.5 -62.5v-44t1 -29.5t3 -29.5t5.5 -25t9 -24t14 -18.5t20.5 -15.5
q28 -12 62 -12q64 0 161 11l30 3v-95q-47 -18 -98 -25t-118 -7t-108 16.5t-64 42.5t-36.5 67t-17.5 80z" />
    <glyph glyph-name="eacute.smcp" horiz-adv-x="512" 
d="M237 631l91 139h122l-122 -139h-91zM61 105v354q0 57 34 84t92 28q241 -5 292 -15v-108h-246q-21 0 -26.5 -6.5t-5.5 -25.5v-72l242 -8v-105l-242 -7v-70q0 -20 8.5 -26t27.5 -6h242v-108q-55 -13 -248 -15l-64 -1q-50 1 -78 28t-28 79z" />
    <glyph glyph-name="eogonek.smcp" horiz-adv-x="512" 
d="M488 -172q-14 -4 -29 -4t-39 8t-42 30q-25 31 -25 57q0 59 71 95h55q-33 -25 -40 -42t-7.5 -27t4.5 -17.5t12 -12.5q15 -12 40 -11v-76zM61 105v354q0 57 34 84t92 28q241 -5 292 -15v-108h-246q-21 0 -26.5 -6.5t-5.5 -25.5v-72l242 -8v-105l-242 -7v-70q0 -20 8.5 -26
t27.5 -6h242v-108q-55 -13 -248 -15l-64 -1q-50 1 -78 28t-28 79z" />
    <glyph glyph-name="edieresis.smcp" horiz-adv-x="512" 
d="M89 690.5q0 24.5 17 41.5t41.5 17t41.5 -17t17 -41.5t-17 -42t-41 -17.5t-41.5 17.5t-17.5 42zM344 690.5q0 24.5 17 41.5t41.5 17t41.5 -17t17 -41.5t-17 -42t-41 -17.5t-41.5 17.5t-17.5 42zM61 105v354q0 57 34 84t92 28q241 -5 292 -15v-108h-246q-21 0 -26.5 -6.5
t-5.5 -25.5v-72l242 -8v-105l-242 -7v-70q0 -20 8.5 -26t27.5 -6h242v-108q-55 -13 -248 -15l-64 -1q-50 1 -78 28t-28 79z" />
    <glyph glyph-name="edotaccent.smcp" horiz-adv-x="512" 
d="M227 654v76q0 25 24 25h72q11 0 17 -7t6 -18v-76q0 -23 -23 -23h-72q-11 0 -17.5 6.5t-6.5 16.5zM61 105v354q0 57 34 84t92 28q241 -5 292 -15v-108h-246q-21 0 -26.5 -6.5t-5.5 -25.5v-72l242 -8v-105l-242 -7v-70q0 -20 8.5 -26t27.5 -6h242v-108q-55 -13 -248 -15
l-64 -1q-50 1 -78 28t-28 79z" />
    <glyph glyph-name="iacute.smcp" horiz-adv-x="245" 
d="M81 630l90 138h123l-122 -138h-91zM61 0v570h140v-570h-140z" />
    <glyph glyph-name="icircumflex.smcp" horiz-adv-x="245" 
d="M-28 630l107 136h104l97 -136h-93l-59 60l-62 -60h-94zM61 0v570h140v-570h-140z" />
    <glyph glyph-name="imacron.smcp" horiz-adv-x="245" 
d="M-14 630v80h292v-80h-292zM61 0v570h140v-570h-140z" />
    <glyph glyph-name="dcroat.smcp" horiz-adv-x="600" 
d="M344 0h-6h-263v258h-60v64h60v250h37h228q214 -2 214 -289q0 -135 -39 -199q-13 -22 -25 -35.5t-30 -23.5t-30 -15q-27 -10 -86 -10zM217 124h99q58 0 78 48q17 41 17 120q0 155 -92 155h-102v-125h81v-64h-81v-134z" />
    <glyph glyph-name="ncommaaccent.smcp" horiz-adv-x="601" 
d="M244 -174v78q0 24 22 24h76q21 0 21 -24v-111q0 -28 -11.5 -45.5t-28.5 -22.5q-21 -6 -37.5 -6t-25.5 2l-12 3v44q13 -1 19 3q9 6 9 19v13h-10q-22 0 -22 23zM61 0v571h137l220 -316v316h139v-571h-136l-220 321v-321h-140z" />
    <glyph glyph-name="omacron.smcp" horiz-adv-x="598" 
d="M154 640v79h292v-79h-292zM49.5 172.5q-7.5 46.5 -7.5 122t16 134.5t51 90.5t79.5 43.5t100 12t87 -3.5t63 -14t51.5 -30.5t36 -51q31 -60 31 -189q0 -140 -42 -209q-37 -61 -124 -76q-38 -7 -87 -7t-80.5 4t-62.5 14.5t-51.5 30.5t-36.5 51t-23.5 77.5zM187.5 361.5
q-5.5 -30.5 -5.5 -88.5t11 -92.5t34.5 -45.5t64 -11t59 4.5t35.5 20.5q31 30 31 138q0 78 -9.5 102t-17 34t-22.5 15q-23 8 -59.5 8t-51 -2t-31.5 -10t-25 -25t-13.5 -47.5z" />
    <glyph glyph-name="kcommaaccent.smcp" horiz-adv-x="579" 
d="M233 -175v78q0 24 23 24h75q22 0 22 -24v-111q0 -28 -12 -45.5t-29 -22.5q-21 -6 -37.5 -6t-24.5 2l-12 3v44q12 -1 19 3q9 6 9 20v12h-10q-23 0 -23 23zM61 -1v571h134v-232h57l142 232h159l-179 -290l179 -281h-159l-144 221h-55v-221h-134z" />
    <glyph glyph-name="ocircumflex.smcp" horiz-adv-x="598" 
d="M143 633l108 135h104l96 -135h-93l-58 60l-63 -60h-94zM49.5 172.5q-7.5 46.5 -7.5 122t16 134.5t51 90.5t79.5 43.5t100 12t87 -3.5t63 -14t51.5 -30.5t36 -51q31 -60 31 -189q0 -140 -42 -209q-37 -61 -124 -76q-38 -7 -87 -7t-80.5 4t-62.5 14.5t-51.5 30.5t-36.5 51
t-23.5 77.5zM187.5 361.5q-5.5 -30.5 -5.5 -88.5t11 -92.5t34.5 -45.5t64 -11t59 4.5t35.5 20.5q31 30 31 138q0 78 -9.5 102t-17 34t-22.5 15q-23 8 -59.5 8t-51 -2t-31.5 -10t-25 -25t-13.5 -47.5z" />
    <glyph glyph-name="otilde.smcp" horiz-adv-x="598" 
d="M365 725q38 0 88 38l25 -60q-63 -68 -112 -68q-26 0 -60.5 17.5t-48.5 17.5t-23.5 -1.5t-16 -3t-15.5 -6l-13 -6.5t-15.5 -9t-15.5 -9l-24 55q64 70 121 70q25 -1 57.5 -18t41.5 -17h11zM49.5 172.5q-7.5 46.5 -7.5 122t16 134.5t51 90.5t79.5 43.5t100 12t87 -3.5
t63 -14t51.5 -30.5t36 -51q31 -60 31 -189q0 -140 -42 -209q-37 -61 -124 -76q-38 -7 -87 -7t-80.5 4t-62.5 14.5t-51.5 30.5t-36.5 51t-23.5 77.5zM187.5 361.5q-5.5 -30.5 -5.5 -88.5t11 -92.5t34.5 -45.5t64 -11t59 4.5t35.5 20.5q31 30 31 138q0 78 -9.5 102t-17 34
t-22.5 15q-23 8 -59.5 8t-51 -2t-31.5 -10t-25 -25t-13.5 -47.5z" />
    <glyph glyph-name="odieresis.smcp" horiz-adv-x="598" 
d="M111 694q0 24 17.5 41t42 17t41.5 -16.5t17 -41t-17 -42t-41.5 -17.5t-42 17.5t-17.5 41.5zM366 694q0 24 17.5 41t36 17t29 -4.5t18.5 -11.5q17 -17 17 -41.5t-17 -42t-41.5 -17.5t-42 17.5t-17.5 41.5zM49.5 172.5q-7.5 46.5 -7.5 122t16 134.5t51 90.5t79.5 43.5
t100 12t87 -3.5t63 -14t51.5 -30.5t36 -51q31 -60 31 -189q0 -140 -42 -209q-37 -61 -124 -76q-38 -7 -87 -7t-80.5 4t-62.5 14.5t-51.5 30.5t-36.5 51t-23.5 77.5zM187.5 361.5q-5.5 -30.5 -5.5 -88.5t11 -92.5t34.5 -45.5t64 -11t59 4.5t35.5 20.5q31 30 31 138
q0 78 -9.5 102t-17 34t-22.5 15q-23 8 -59.5 8t-51 -2t-31.5 -10t-25 -25t-13.5 -47.5z" />
    <glyph glyph-name="oslash.smcp" horiz-adv-x="594" 
d="M41 0l49 67q-47 65 -47 213q0 178 66 239q34 32 78 44t131 12t135 -25l16 21h74l-43 -58q54 -63 54 -226q0 -140 -41 -209q-37 -61 -124 -76q-37 -7 -91 -7q-112 0 -164 32q-3 -4 -20 -27h-73zM188.5 361.5q-5.5 -30.5 -5.5 -80.5t8 -77q13 16 52 68q97 127 126 164
q-17 10 -57.5 10t-54.5 -2t-31 -10t-24.5 -25t-13 -47.5zM218 140q22 -16 67.5 -16t64 4.5t34.5 20.5q30 29 30 138q0 64 -11 96q-21 -26 -185 -243z" />
    <glyph glyph-name="uogonek.smcp" horiz-adv-x="580" 
d="M352 -188q-13 -3 -28.5 -3t-39 7.5t-41.5 29.5q-26 31 -26 57q0 59 71 95h56q-34 -25 -41 -42t-7 -27t4.5 -17.5t11.5 -12.5q16 -12 40 -11v-76zM60 570h141v-310q0 -98 40 -122q24 -14 60 -14t54 5.5t32 19.5q27 27 27 111v310h141v-310q0 -187 -107 -239
q-34 -16 -65.5 -21t-68 -5t-61 2t-52 8.5t-47.5 18.5t-38.5 31.5t-30.5 47.5q-25 61 -25 157v310z" />
    <glyph glyph-name="uacute.smcp" horiz-adv-x="600" 
d="M262 630l91 138h122l-122 -138h-91zM60 570h141v-310q0 -98 40 -122q24 -14 60 -14t54 5.5t32 19.5q27 27 27 111v310h141v-310q0 -187 -107 -239q-34 -16 -65.5 -21t-68 -5t-61 2t-52 8.5t-47.5 18.5t-38.5 31.5t-30.5 47.5q-25 61 -25 157v310z" />
    <glyph glyph-name="ucircumflex.smcp" horiz-adv-x="600" 
d="M152 630l108 136h104l97 -136h-93l-59 60l-63 -60h-94zM60 570h141v-310q0 -98 40 -122q24 -14 60 -14t54 5.5t32 19.5q27 27 27 111v310h141v-310q0 -187 -107 -239q-34 -16 -65.5 -21t-68 -5t-61 2t-52 8.5t-47.5 18.5t-38.5 31.5t-30.5 47.5q-25 61 -25 157v310z" />
    <glyph glyph-name="udieresis.smcp" horiz-adv-x="600" 
d="M137.5 647.5q-17.5 17.5 -17.5 37.5t8 34q17 29 46 29t46 -17t17 -41.5t-17 -42t-41 -17.5t-41.5 17.5zM375 689q0 24 17.5 41.5t41.5 17.5t41 -17t17 -41.5t-17 -42t-41 -17.5t-41.5 17.5t-17.5 41.5zM60 570h141v-310q0 -98 40 -122q24 -14 60 -14t54 5.5t32 19.5
q27 27 27 111v310h141v-310q0 -187 -107 -239q-34 -16 -65.5 -21t-68 -5t-61 2t-52 8.5t-47.5 18.5t-38.5 31.5t-30.5 47.5q-25 61 -25 157v310z" />
    <glyph glyph-name="utilde.smcp" horiz-adv-x="600" 
d="M366 720q38 0 88 38l24 -60q-62 -68 -112 -68q-25 0 -60 17.5t-48.5 17.5t-23.5 -1.5t-16 -3t-15.5 -6t-13 -6.5t-15 -9t-15.5 -9l-24 55q64 70 121 70q19 -1 38.5 -9.5t36.5 -17.5q17 -8 35 -8zM60 570h141v-310q0 -98 40 -122q24 -14 60 -14t54 5.5t32 19.5
q27 27 27 111v310h141v-310q0 -187 -107 -239q-34 -16 -65.5 -21t-68 -5t-61 2t-52 8.5t-47.5 18.5t-38.5 31.5t-30.5 47.5q-25 61 -25 157v310z" />
    <glyph glyph-name="umacron.smcp" horiz-adv-x="600" 
d="M161 630v80h292v-80h-292zM60 570h141v-310q0 -98 40 -122q24 -14 60 -14t54 5.5t32 19.5q27 27 27 111v310h141v-310q0 -187 -107 -239q-34 -16 -65.5 -21t-68 -5t-61 2t-52 8.5t-47.5 18.5t-38.5 31.5t-30.5 47.5q-25 61 -25 157v310z" />
    <glyph glyph-name="germandbls.smcp" horiz-adv-x="1028" 
d="M28 368v51q0 68 32 109q17 22 48 33.5t75 11.5t131 -6.5t143 -16.5v-101l-38 2q-114 5 -206 5q-45 0 -45 -40v-36q0 -25 9.5 -31.5t32.5 -6.5h133q141 0 141 -154v-48q0 -150 -141 -150q-72 0 -169.5 5.5t-123.5 18.5v99l254 -5q23 0 31.5 9t8.5 26v40q0 12 -4 20
q-8 15 -36 15h-127q-80 0 -114.5 37.5t-34.5 112.5zM540 419q0 72 35 113t119 41q45 0 132 -6.5t142 -16.5v-101q-139 7 -246 7q-42 0 -42 -40v-36q0 -31 19 -36q7 -2 23 -2h132q141 0 141 -154v-48q0 -150 -141 -150q-71 0 -169 5.5t-123 18.5v99q154 -5 254 -5q30 0 36 17
q3 7 3 18v40q0 18 -9 26.5t-30 8.5h-127q-81 0 -115 37t-34 112v52z" />
    <glyph glyph-name="agrave.smcp" horiz-adv-x="606" 
d="M136 768h123l90 -138h-91zM27 0l200 570h167l187 -570h-147l-39 116h-179l-42 -116h-147zM250 229h114l-54 169z" />
    <glyph glyph-name="ccedilla.smcp" horiz-adv-x="514" 
d="M252 -34h94q0 -78 -24 -110t-88 -32h-56v60l44 15q20 9 25 22t5 45zM46 202q-4 39 -4 92.5t5.5 94.5t20.5 77.5t40 60.5q53 51 154 51q142 0 226 -30v-98q-16 3 -83 9.5t-107 6.5t-63 -10.5t-34.5 -34.5t-15 -51.5t-3.5 -62.5v-44t1 -29.5t3 -29.5t5.5 -25t9 -24
t14 -18.5t20.5 -15.5q28 -12 62 -12q64 0 161 11l30 3v-95q-47 -18 -98 -25t-118 -7t-108 16.5t-64 42.5t-36.5 67t-17.5 80z" />
    <glyph glyph-name="eth.smcp" horiz-adv-x="600" 
d="M344 0h-6h-263v258h-60v64h60v250h37h228q214 -2 214 -289q0 -135 -39 -199q-13 -22 -25 -35.5t-30 -23.5t-30 -15q-27 -10 -86 -10zM217 124h99q58 0 78 48q17 41 17 120q0 155 -92 155h-102v-125h81v-64h-81v-134z" />
    <glyph glyph-name="egrave.smcp" horiz-adv-x="512" 
d="M130 770h122l91 -139h-91zM61 105v354q0 57 34 84t92 28q241 -5 292 -15v-108h-246q-21 0 -26.5 -6.5t-5.5 -25.5v-72l242 -8v-105l-242 -7v-70q0 -20 8.5 -26t27.5 -6h242v-108q-55 -13 -248 -15l-64 -1q-50 1 -78 28t-28 79z" />
    <glyph glyph-name="ecircumflex.smcp" horiz-adv-x="512" 
d="M127 631l108 136h104l97 -136h-93l-59 60l-63 -60h-94zM61 105v354q0 57 34 84t92 28q241 -5 292 -15v-108h-246q-21 0 -26.5 -6.5t-5.5 -25.5v-72l242 -8v-105l-242 -7v-70q0 -20 8.5 -26t27.5 -6h242v-108q-55 -13 -248 -15l-64 -1q-50 1 -78 28t-28 79z" />
    <glyph glyph-name="igrave.smcp" horiz-adv-x="245" 
d="M-41 768h123l90 -138h-91zM61 0v570h140v-570h-140z" />
    <glyph glyph-name="idieresis.smcp" horiz-adv-x="245" 
d="M-60 689q0 24 17.5 41.5t41.5 17.5t41 -17t17 -41.5t-17 -42t-41 -17.5t-41.5 17.5t-17.5 41.5zM195 689q0 24 17.5 41.5t41.5 17.5t41 -17t17 -41.5t-17 -42t-41 -17.5t-41.5 17.5t-17.5 41.5zM61 0v570h140v-570h-140z" />
    <glyph glyph-name="ntilde.smcp" horiz-adv-x="601" 
d="M363 721q39 0 89 38l24 -60q-63 -68 -112 -68q-26 0 -60.5 17.5t-47.5 17.5t-21 -1t-15.5 -3t-12.5 -3.5t-12.5 -5.5t-11.5 -6.5t-13 -7.5t-13 -8l-25 55q64 70 121 70q25 -1 58 -18t41.5 -17h10.5zM61 0v571h137l220 -316v316h139v-571h-136l-220 321v-321h-140z" />
    <glyph glyph-name="ograve.smcp" horiz-adv-x="598" 
d="M139 774h122l91 -139h-91zM49.5 172.5q-7.5 46.5 -7.5 122t16 134.5t51 90.5t79.5 43.5t100 12t87 -3.5t63 -14t51.5 -30.5t36 -51q31 -60 31 -189q0 -140 -42 -209q-37 -61 -124 -76q-38 -7 -87 -7t-80.5 4t-62.5 14.5t-51.5 30.5t-36.5 51t-23.5 77.5zM187.5 361.5
q-5.5 -30.5 -5.5 -88.5t11 -92.5t34.5 -45.5t64 -11t59 4.5t35.5 20.5q31 30 31 138q0 78 -9.5 102t-17 34t-22.5 15q-23 8 -59.5 8t-51 -2t-31.5 -10t-25 -25t-13.5 -47.5z" />
    <glyph glyph-name="oacute.smcp" horiz-adv-x="598" 
d="M260 635l91 139h122l-122 -139h-91zM49.5 172.5q-7.5 46.5 -7.5 122t16 134.5t51 90.5t79.5 43.5t100 12t87 -3.5t63 -14t51.5 -30.5t36 -51q31 -60 31 -189q0 -140 -42 -209q-37 -61 -124 -76q-38 -7 -87 -7t-80.5 4t-62.5 14.5t-51.5 30.5t-36.5 51t-23.5 77.5z
M187.5 361.5q-5.5 -30.5 -5.5 -88.5t11 -92.5t34.5 -45.5t64 -11t59 4.5t35.5 20.5q31 30 31 138q0 78 -9.5 102t-17 34t-22.5 15q-23 8 -59.5 8t-51 -2t-31.5 -10t-25 -25t-13.5 -47.5z" />
    <glyph glyph-name="ugrave.smcp" horiz-adv-x="600" 
d="M145 768h122l91 -138h-91zM60 570h141v-310q0 -98 40 -122q24 -14 60 -14t54 5.5t32 19.5q27 27 27 111v310h141v-310q0 -187 -107 -239q-34 -16 -65.5 -21t-68 -5t-61 2t-52 8.5t-47.5 18.5t-38.5 31.5t-30.5 47.5q-25 61 -25 157v310z" />
    <glyph glyph-name="yacute.smcp" horiz-adv-x="592" 
d="M245 630l90 138h123l-122 -138h-91zM368 -1h-140v197l-201 374h152l120 -225l115 225h153l-199 -374v-197z" />
    <glyph glyph-name="thorn.smcp" horiz-adv-x="535" 
d="M57 0v569h139v-97h122q168 0 168 -176q0 -135 -68 -174q-32 -19 -78 -18q-86 0 -144 16v-120h-139zM196 226h100q20 0 31 5q19 10 19 52.5t-12 55.5t-38 15h-100v-128z" />
    <glyph glyph-name="quotesinglbase.smcp" horiz-adv-x="255" 
d="M87 149h89q27 0 27 -29v-137q0 -35 -14.5 -57.5t-34.5 -30.5q-30 -11 -49 -11t-26 1l-14 2v57h1q33 0 33 34v22h-12q-12 0 -19.5 7t-7.5 20v93q0 29 27 29z" />
    <glyph glyph-name="quotedblleft.smcp" horiz-adv-x="433" 
d="M236 482q0 98 108 98q14 0 30 -3v-56h-1q-33 0 -33 -35v-21h12q27 0 27 -27v-93q0 -30 -27 -30h-89q-27 0 -27 30v137zM54 482q0 98 108 98q14 0 30 -3v-56h-1q-33 0 -33 -35v-21h12q12 0 19.5 -7t7.5 -20v-93q0 -30 -27 -30h-89q-27 0 -27 30v137z" />
    <glyph glyph-name="quotedblright.smcp" horiz-adv-x="433" 
d="M82 431q-28 0 -28 27v93q0 29 28 29h89q26 0 26 -29v-137q0 -99 -108 -99q-8 0 -15 1l-14 2v57h1q33 0 33 34v22h-12zM379 414q0 -99 -108 -99q-8 0 -15 1l-14 2v57h1q33 0 33 34v22h-12q-12 0 -19.5 7t-7.5 20v93q0 29 27 29h89q26 0 26 -29v-137z" />
    <glyph glyph-name="quotedblbase.smcp" horiz-adv-x="433" 
d="M82 0q-28 0 -28 27v93q0 29 28 29h89q26 0 26 -29v-137q0 -35 -14 -57.5t-34 -30.5q-31 -11 -49.5 -11t-25.5 1l-14 2v57h1q33 0 33 34v22h-12zM264 149h89q26 0 26 -29v-137q0 -35 -14 -57.5t-34 -30.5q-31 -11 -49.5 -11t-25.5 1l-14 2v57h1q33 0 33 34v22h-12
q-12 0 -19.5 7t-7.5 20v93q0 29 27 29z" />
    <glyph glyph-name="exclamdown.smcp" horiz-adv-x="272" 
d="M69 457v90q0 23 23 23h87q11 0 17.5 -6.5t6.5 -16.5v-90q0 -25 -24 -25h-87q-23 0 -23 25zM65 0l14 386h113l14 -386h-141z" />
    <glyph glyph-name="ordmasculine.smcp" horiz-adv-x="418" 
d="M72.5 260q-38.5 40 -38.5 141.5t38 141t137 39.5t136.5 -40t37.5 -142t-37.5 -141t-136 -39t-137 40zM47 124v69h323v-69h-323zM148.5 462.5q-6.5 -20.5 -6.5 -63.5t8 -62.5t20.5 -24.5t36 -5t33.5 2t19 11q16 14 16 68.5t-6.5 75t-19 26t-41 5.5t-41 -6t-19 -26.5z" />
    <glyph glyph-name="ordfeminine.smcp" horiz-adv-x="413" 
d="M47 125v69h344v-69h-344zM48 229l115 341h129l99 -341h-100l-20 70h-97l-21 -70h-105zM195 372h60l-27 103z" />
    <glyph glyph-name="Euro.smcp" horiz-adv-x="518" 
d="M384 196q-176 -4 -174 -6q0 -44 24.5 -59t61.5 -15q72 0 166 10l32 3v-106q-73 -28 -221 -28q-204 0 -204 195l-57 6v64l57 5v37l-57 6v60l57 7q0 63 18 103q44 99 186 99q33 0 99 -6.5t119 -16.5v-106q-126 11 -184.5 11t-77.5 -21t-19 -63l174 -6v-62l-174 -5v-37
l174 -5v-64z" />
    <glyph glyph-name="lcaron.smcp" horiz-adv-x="494" 
d="M51 119v451h140v-392q0 -36 17 -43q14 -6 43 -6h215v-129h-296q-53 0 -86 30t-33 89zM247 612h96v-67l-10 -134h-75l-11 134v67z" />
    <glyph glyph-name="sacute.smcp" horiz-adv-x="543" 
d="M223 636l91 138h122l-122 -138h-91zM42 368v47q0 158 154 158q52 0 139 -6t140 -17v-101q-145 7 -251 7q-42 0 -42 -43v-33q0 -31 18 -36q8 -2 24 -2h137q141 0 141 -154v-48q0 -150 -141 -150q-72 0 -172 5.5t-125 18.5v99q158 -5 258 -5q15 0 24.5 9t15.5 26v39
q0 19 -9 27.5t-31 8.5h-131q-106 0 -135 69q-14 32 -14 81z" />
    <glyph glyph-name="scedilla.smcp" horiz-adv-x="543" 
d="M154 -38h95q0 -78 -24 -110t-88 -32h-57v60l44 15q20 9 25 22t5 45zM42 368v47q0 158 154 158q52 0 139 -6t140 -17v-101q-145 7 -251 7q-42 0 -42 -43v-33q0 -31 18 -36q8 -2 24 -2h137q141 0 141 -154v-48q0 -150 -141 -150q-72 0 -172 5.5t-125 18.5v99q158 -5 258 -5
q15 0 24.5 9t15.5 26v39q0 19 -9 27.5t-31 8.5h-131q-106 0 -135 69q-14 32 -14 81z" />
    <glyph glyph-name="tcaron.smcp" horiz-adv-x="589" 
d="M165 772h94l63 -60l58 60h94l-102 -136h-104zM83 441v129h468v-129h-164v-441h-140v441h-164z" />
    <glyph glyph-name="zacute.smcp" horiz-adv-x="500" 
d="M206 630l91 138h122l-122 -138h-91zM27 0v129l267 312h-267v129h448v-129l-258 -312h258v-129h-448z" />
    <glyph glyph-name="zdotaccent.smcp" horiz-adv-x="500" 
d="M191 653v76q0 25 24 25h72q11 0 17 -7t6 -18v-76q0 -23 -23 -23h-72q-10 0 -17 6.5t-7 16.5zM27 0v129l267 312h-267v129h448v-129l-258 -312h258v-129h-448z" />
    <glyph glyph-name="racute.smcp" horiz-adv-x="549" 
d="M228 630l91 138h122l-122 -138h-91zM46 0v570h270q180 0 180 -178q0 -156 -84 -179l111 -213h-150l-93 201q-12 1 -53 5l-41 4v-210h-140zM186 303h117q25 0 39 17t14 59t-16 57.5t-37 15.5h-117v-149z" />
    <glyph glyph-name="abreve.smcp" horiz-adv-x="606" 
d="M196 744h58q0 -25 15.5 -40.5t42 -15.5t41.5 15t15 41h58q0 -52 -33.5 -83t-82.5 -31t-81.5 31.5t-32.5 82.5zM27 0l200 570h167l187 -570h-147l-39 116h-179l-42 -116h-147zM250 229h114l-54 169z" />
    <glyph glyph-name="lacute.smcp" horiz-adv-x="501" 
d="M83 630l91 138h122l-122 -138h-91zM61 119v451h140v-392q-1 -36 16 -43q14 -6 44 -6h215v-129h-296q-54 0 -86.5 30t-32.5 89z" />
    <glyph glyph-name="cacute.smcp" horiz-adv-x="514" 
d="M227 643l91 139h122l-122 -139h-91zM46 202q-4 39 -4 92.5t5.5 94.5t20.5 77.5t40 60.5q53 51 154 51q142 0 226 -30v-98q-16 3 -83 9.5t-107 6.5t-63 -10.5t-34.5 -34.5t-15 -51.5t-3.5 -62.5v-44t1 -29.5t3 -29.5t5.5 -25t9 -24t14 -18.5t20.5 -15.5q28 -12 62 -12
q64 0 161 11l30 3v-95q-47 -18 -98 -25t-118 -7t-108 16.5t-64 42.5t-36.5 67t-17.5 80z" />
    <glyph glyph-name="ecaron.smcp" horiz-adv-x="512" 
d="M125 766h93l63 -60l59 60h93l-102 -135h-104zM61 105v354q0 57 34 84t92 28q241 -5 292 -15v-108h-246q-21 0 -26.5 -6.5t-5.5 -25.5v-72l242 -8v-105l-242 -7v-70q0 -20 8.5 -26t27.5 -6h242v-108q-55 -13 -248 -15l-64 -1q-50 1 -78 28t-28 79z" />
    <glyph glyph-name="dcaron.smcp" horiz-adv-x="591" 
d="M167 767h93l63 -60l59 60h93l-101 -136h-104zM367 0h-6h-269v572h269q219 -2 219 -289q0 -136 -38 -199q-13 -22 -24.5 -35.5t-30 -23.5t-30.5 -15q-28 -10 -90 -10zM232 124h114q58 0 77 48q17 43 17 111q0 165 -94 165h-114v-324z" />
    <glyph glyph-name="nacute.smcp" horiz-adv-x="601" 
d="M271 631l90 139h123l-122 -139h-91zM61 0v571h137l220 -316v316h139v-571h-136l-220 321v-321h-140z" />
    <glyph glyph-name="ncaron.smcp" horiz-adv-x="601" 
d="M156 766h94l62 -60l59 60h94l-102 -135h-104zM61 0v571h137l220 -316v316h139v-571h-136l-220 321v-321h-140z" />
    <glyph glyph-name="ohungarumlaut.smcp" horiz-adv-x="598" 
d="M176 635l91 139h122l-122 -139h-91zM332 635l90 139h123l-122 -139h-91zM49.5 172.5q-7.5 46.5 -7.5 122t16 134.5t51 90.5t79.5 43.5t100 12t87 -3.5t63 -14t51.5 -30.5t36 -51q31 -60 31 -189q0 -140 -42 -209q-37 -61 -124 -76q-38 -7 -87 -7t-80.5 4t-62.5 14.5
t-51.5 30.5t-36.5 51t-23.5 77.5zM187.5 361.5q-5.5 -30.5 -5.5 -88.5t11 -92.5t34.5 -45.5t64 -11t59 4.5t35.5 20.5q31 30 31 138q0 78 -9.5 102t-17 34t-22.5 15q-23 8 -59.5 8t-51 -2t-31.5 -10t-25 -25t-13.5 -47.5z" />
    <glyph glyph-name="rcaron.smcp" horiz-adv-x="549" 
d="M112 765h93l63 -60l59 60h93l-101 -135h-104zM46 0v570h270q180 0 180 -178q0 -156 -84 -179l111 -213h-150l-93 201q-12 1 -53 5l-41 4v-210h-140zM186 303h117q25 0 39 17t14 59t-16 57.5t-37 15.5h-117v-149z" />
    <glyph glyph-name="uring.smcp" horiz-adv-x="600" 
d="M206 718.5q0 42.5 30 73t72 30.5t71.5 -30.5t29.5 -66t-13.5 -58.5t-36.5 -37t-47 -14t-43 8t-33 22q-30 30 -30 72.5zM277.5 749q-12.5 -13 -12.5 -26t3.5 -21t8.5 -14q13 -12 31 -12t30.5 12.5t12.5 30.5t-12.5 30.5t-30.5 12.5t-30.5 -13zM60 570h141v-310
q0 -98 40 -122q24 -14 60 -14t54 5.5t32 19.5q27 27 27 111v310h141v-310q0 -187 -107 -239q-34 -16 -65.5 -21t-68 -5t-61 2t-52 8.5t-47.5 18.5t-38.5 31.5t-30.5 47.5q-25 61 -25 157v310z" />
    <glyph glyph-name="uhungarumlaut.smcp" horiz-adv-x="600" 
d="M182 630l91 138h122l-122 -138h-91zM338 630l91 138h122l-122 -138h-91zM60 570h141v-310q0 -98 40 -122q24 -14 60 -14t54 5.5t32 19.5q27 27 27 111v310h141v-310q0 -187 -107 -239q-34 -16 -65.5 -21t-68 -5t-61 2t-52 8.5t-47.5 18.5t-38.5 31.5t-30.5 47.5
q-25 61 -25 157v310z" />
    <glyph glyph-name="tcommaaccent.smcp" horiz-adv-x="520" 
d="M145 -42h95q0 -52 -10 -82q-20 -59 -102 -59h-57v60l44 15q20 9 25 22t5 44zM27 441v129h468v-129h-164v-441h-140v441h-164z" />
    <glyph glyph-name="lslash.smcp" horiz-adv-x="505" 
d="M76 570h140v-194l96 39v-74l-96 -39v-124q0 -40 23 -46q13 -3 37 -3h215v-129h-296q-53 0 -86 30t-33 89v126l-61 -25v74l61 25v251z" />
    <glyph glyph-name="questiondown.smcp" horiz-adv-x="492" 
d="M230 347v42h109v-141q-28 1 -53.5 1t-47.5 -1q-55 -1 -55 -44v-24q0 -26 15.5 -38t51.5 -12h215v-112q-114 -20 -203 -20q-18 0 -34 1q-185 0 -185 170v33q0 79 52 120q39 29 93 29q20 0 42 -4zM217 460v90q0 23 26 23h85q11 0 17.5 -6.5t6.5 -16.5v-90q0 -25 -24 -25
h-85q-26 0 -26 25z" />
    <glyph glyph-name="oe.smcp" horiz-adv-x="851" 
d="M38 173q-8 46 -8 121.5t16 134.5t51 90.5t79.5 43.5t110.5 12q113 0 161 -33q28 29 84 29q241 -5 292 -15v-108h-246q-21 0 -26.5 -6.5t-5.5 -25.5v-72l242 -8v-105l-242 -7v-70q0 -20 9 -26t27 -6h242v-108q-56 -13 -248 -15l-64 -1q-47 1 -71 30q-49 -33 -154 -33
q-139 0 -189 49q-47 46 -60 129zM175.5 361.5q-5.5 -30.5 -5.5 -88.5t11.5 -92.5t34.5 -45.5t63.5 -11t59.5 4.5t36 20.5q31 30 31 138q0 78 -9.5 102t-17 34t-23.5 15q-23 8 -59 8t-50.5 -2t-31.5 -10t-25.5 -25t-14 -47.5z" />
    <glyph glyph-name="ydieresis.smcp" horiz-adv-x="592" 
d="M110 689q0 24 17.5 41.5t42 17.5t41.5 -17t17 -41.5t-17 -42t-41.5 -17.5t-42 17.5t-17.5 41.5zM366 689q0 24 17 41.5t41.5 17.5t41.5 -17t17 -41.5t-17 -42t-41.5 -17.5t-41.5 17.5t-17 41.5zM368 -1h-140v197l-201 374h152l120 -225l115 225h153l-199 -374v-197z" />
    <glyph glyph-name="sterling.smcp" horiz-adv-x="513" 
d="M38 0v98l56 20v116h-56v74l57 16v50q0 196 201 197l181 -13v-114h-163q-48 0 -64 -15.5t-16 -56.5v-44l181 -15v-81h-181v-110h242v-122h-438z" />
    <glyph glyph-name="yen.smcp" horiz-adv-x="541" 
d="M464 258v-64h-123v-25h123v-63h-123v-106h-140v106h-115v63h115v25h-115v64h91l-162 313h151l103 -220l105 220h152l-163 -313h101z" />
    <glyph glyph-name="perthousand.smcp" horiz-adv-x="1329" 
d="M22 349v91q0 44 12 71q26 59 122 59h76q71 0 102 -32t31 -98v-91q0 -44 -13 -72q-26 -58 -122 -58h-76q-71 0 -101.5 32t-30.5 98zM120 366q0 -26 7 -35q12 -14 41 -14h48q41 0 48 21q3 10 3 28v57q0 29 -10.5 39t-38.5 10h-48q-29 0 -39.5 -10t-10.5 -39v-57zM262 0
l297 570h101l-294 -570h-104zM559 132v90q0 66 31 98t104 32h76q71 0 101.5 -32t30.5 -98v-90q0 -67 -30.5 -99t-103.5 -32h-76q-71 0 -102 32.5t-31 98.5zM657 148q0 -27 10 -38t38 -11h49q32 0 41 11t9 38v57q0 30 -10.5 39.5t-37.5 9.5h-49q-29 0 -39.5 -10t-10.5 -39
v-57zM957 132v90q0 66 30.5 98t103.5 32h76q94 0 120 -58q12 -28 12 -72v-90q0 -67 -30 -99t-104 -32h-76q-71 0 -101.5 32.5t-30.5 98.5zM1055 148q0 -27 10 -38t38 -11h48q32 0 41.5 11.5t9.5 37.5v57q0 29 -11 39t-38 10h-48q-29 0 -39.5 -10t-10.5 -39v-57z" />
    <glyph glyph-name="circumflex.smcp" horiz-adv-x="384" 
d="M38 531l108 135h104l96 -135h-93l-59 60l-62 -60h-94z" />
    <glyph glyph-name="tilde.smcp" horiz-adv-x="419" 
d="M269 621q38 0 88 38l24 -60q-62 -68 -112 -68q-25 0 -60 17.5t-48 17.5t-21 -1t-15 -3t-12 -3.5t-12.5 -5.5t-11.5 -6.5t-13 -7.5t-14 -8l-24 55q64 70 121 70q24 -1 57 -18t42 -17h11z" />
    <glyph glyph-name="ring.smcp" horiz-adv-x="278" 
d="M38 632q0 43 29.5 73t64.5 30t58.5 -14t36.5 -37.5t13 -59t-29.5 -65t-71.5 -29.5t-71.5 29.5t-29.5 72.5zM96 632q0 -18 12.5 -30t30.5 -12t30.5 12t12.5 30t-12.5 30.5t-30.5 12.5t-30.5 -12.5t-12.5 -30.5z" />
    <glyph glyph-name="hbar.smcp" horiz-adv-x="631" 
d="M30 404v62h52v104h140v-104h201v104h140v-104h47v-62h-47v-405h-140v212h-201v-212h-140v405h-52zM222 340h201v64h-201v-64z" />
    <glyph glyph-name="hcircumflex.smcp" horiz-adv-x="586" 
d="M145 630l107 136h104l97 -136h-93l-59 60l-62 -60h-94zM61 -1v571h140v-230h201v230h140v-571h-140v211h-201v-211h-140z" />
    <glyph glyph-name="gbreve.smcp" horiz-adv-x="567" 
d="M194 754h58q0 -25 16 -40.5t42 -15.5t41 15t15 41h58q0 -53 -34 -84q-33 -30 -81.5 -30t-81.5 31.5t-33 82.5zM42 286q0 147 43.5 218t158.5 75q16 1 49 1t104 -6t115 -20v-100q-109 12 -179 12t-90 -5t-35.5 -24t-20.5 -54t-5 -75.5t0.5 -54.5t3 -36t9 -37t16.5 -29
q20 -30 62 -30t74 14t39 33v66h-101v77q71 19 174 19q31 0 67 -3v-327h-105l-32 44q-51 -51 -151 -51h-16t-43.5 9t-46.5 21.5t-34 34.5t-24.5 40t-16 45.5t-9.5 43.5t-5 42q-1 28 -1 57z" />
    <glyph glyph-name="jcircumflex.smcp" horiz-adv-x="336" 
d="M60 630l108 136h104l97 -136h-93l-59 60l-63 -60h-94zM231 17q-48 -22 -104 -22t-100 26l2 109q19 -2 48.5 -2t47.5 12q25 16 26 69v361h140v-405q0 -117 -60 -148z" />
    <glyph glyph-name="cdotaccent.smcp" horiz-adv-x="514" 
d="M240 666v76q0 25 24 25h72q11 0 17 -7t6 -18v-76q0 -23 -23 -23h-72q-10 0 -17 6.5t-7 16.5zM46 202q-4 39 -4 92.5t5.5 94.5t20.5 77.5t40 60.5q53 51 154 51q142 0 226 -30v-98q-16 3 -83 9.5t-107 6.5t-63 -10.5t-34.5 -34.5t-15 -51.5t-3.5 -62.5v-44t1 -29.5
t3 -29.5t5.5 -25t9 -24t14 -18.5t20.5 -15.5q28 -12 62 -12q64 0 161 11l30 3v-95q-47 -18 -98 -25t-118 -7t-108 16.5t-64 42.5t-36.5 67t-17.5 80z" />
    <glyph glyph-name="ccircumflex.smcp" horiz-adv-x="514" 
d="M139 643l108 135h104l97 -135h-93l-59 60l-63 -60h-94zM46 202q-4 39 -4 92.5t5.5 94.5t20.5 77.5t40 60.5q53 51 154 51q142 0 226 -30v-98q-16 3 -83 9.5t-107 6.5t-63 -10.5t-34.5 -34.5t-15 -51.5t-3.5 -62.5v-44t1 -29.5t3 -29.5t5.5 -25t9 -24t14 -18.5t20.5 -15.5
q28 -12 62 -12q64 0 161 11l30 3v-95q-47 -18 -98 -25t-118 -7t-108 16.5t-64 42.5t-36.5 67t-17.5 80z" />
    <glyph glyph-name="gdotaccent.smcp" horiz-adv-x="567" 
d="M242 663v76q0 25 24 25h72q11 0 17 -7t6 -18v-76q0 -23 -23 -23h-72q-11 0 -17.5 6.5t-6.5 16.5zM42 286q0 147 43.5 218t158.5 75q16 1 49 1t104 -6t115 -20v-100q-109 12 -179 12t-90 -5t-35.5 -24t-20.5 -54t-5 -75.5t0.5 -54.5t3 -36t9 -37t16.5 -29q20 -30 62 -30
t74 14t39 33v66h-101v77q71 19 174 19q31 0 67 -3v-327h-105l-32 44q-51 -51 -151 -51h-16t-43.5 9t-46.5 21.5t-34 34.5t-24.5 40t-16 45.5t-9.5 43.5t-5 42q-1 28 -1 57z" />
    <glyph glyph-name="gcircumflex.smcp" horiz-adv-x="567" 
d="M150 640l108 135h104l96 -135h-93l-59 60l-62 -60h-94zM42 286q0 147 43.5 218t158.5 75q16 1 49 1t104 -6t115 -20v-100q-109 12 -179 12t-90 -5t-35.5 -24t-20.5 -54t-5 -75.5t0.5 -54.5t3 -36t9 -37t16.5 -29q20 -30 62 -30t74 14t39 33v66h-101v77q71 19 174 19
q31 0 67 -3v-327h-105l-32 44q-51 -51 -151 -51h-16t-43.5 9t-46.5 21.5t-34 34.5t-24.5 40t-16 45.5t-9.5 43.5t-5 42q-1 28 -1 57z" />
    <glyph glyph-name="ubreve.smcp" horiz-adv-x="600" 
d="M193 744h58q0 -25 15.5 -40.5t42 -15.5t41.5 15t15 41h58q0 -52 -33.5 -83t-82 -31t-81.5 31.5t-33 82.5zM60 570h141v-310q0 -98 40 -122q24 -14 60 -14t54 5.5t32 19.5q27 27 27 111v310h141v-310q0 -187 -107 -239q-34 -16 -65.5 -21t-68 -5t-61 2t-52 8.5t-47.5 18.5
t-38.5 31.5t-30.5 47.5q-25 61 -25 157v310z" />
    <glyph glyph-name="scircumflex.smcp" horiz-adv-x="543" 
d="M111 636l107 135h104l97 -135h-93l-59 60l-62 -60h-94zM42 368v47q0 158 154 158q52 0 139 -6t140 -17v-101q-145 7 -251 7q-42 0 -42 -43v-33q0 -31 18 -36q8 -2 24 -2h137q141 0 141 -154v-48q0 -150 -141 -150q-72 0 -172 5.5t-125 18.5v99q158 -5 258 -5q15 0 24.5 9
t15.5 26v39q0 19 -9 27.5t-31 8.5h-131q-106 0 -135 69q-14 32 -14 81z" />
    <glyph glyph-name="Idotaccent.smcp" horiz-adv-x="228" 
d="M43 0v570h140v-570h-140zM55 658v76q0 25 24 25h72q11 0 17 -7t6 -18v-76q0 -23 -23 -23h-72q-10 0 -17 6t-7 17z" />
    <glyph glyph-name="periodcentered.smcp" horiz-adv-x="263" 
d="M68 247v90q0 25 24 25h86q25 0 25 -25v-90q0 -23 -25 -23h-86q-11 0 -17.5 6.5t-6.5 16.5z" />
    <glyph glyph-name="bullet.smcp" horiz-adv-x="309" 
d="M65 263v119q0 35 33 35h112q35 0 35 -35v-119q0 -32 -35 -32h-112q-15 0 -24 8.5t-9 23.5z" />
    <glyph glyph-name="quoteleft.smcp" horiz-adv-x="263" 
d="M60 482q0 99 108 99q8 0 15 -1l15 -3v-56h-1q-34 0 -34 -35v-22h13q27 0 27 -26v-93q0 -30 -27 -30h-90q-26 0 -26 30v137z" />
    <glyph glyph-name="quoteright.smcp" horiz-adv-x="263" 
d="M203 414q0 -99 -109 -99q-8 0 -15 1l-14 2v57h1q33 0 33 34v22h-12q-12 0 -19.5 7t-7.5 20v93q0 29 27 29h89q27 0 27 -29v-137z" />
    <glyph glyph-name="uni1E03.smcp" horiz-adv-x="548" 
d="M220 654v76q0 25 24 25h72q11 0 17.5 -7t6.5 -18v-76q0 -23 -24 -23h-72q-10 0 -17 6.5t-7 16.5zM61 0v571h269q92 0 137 -39.5t45 -113.5q0 -110 -79 -127q35 -8 58.5 -40.5t23.5 -88.5q0 -85 -45 -123.5t-140 -38.5h-269zM201 119h118q30 0 42 16q12 15 12 45
q0 64 -52.5 64h-82h-37.5v-125zM201 346h118q39 0 48 23q5 12 5 33q0 51 -53 51h-118v-107z" />
    <glyph glyph-name="uni1E0B.smcp" horiz-adv-x="590" 
d="M221 655v76q0 25 24 25h72q11 0 17 -7t6 -18v-76q0 -23 -23 -23h-72q-11 0 -17.5 6.5t-6.5 16.5zM336 0h-6h-269v572h269q219 -2 219 -289q0 -136 -39 -199q-13 -22 -24.5 -35.5t-29.5 -23.5t-31 -15q-27 -10 -89 -10zM201 124h113q58 0 78 48q17 43 17 111
q0 165 -95 165h-113v-324z" />
    <glyph glyph-name="uni1E1F.smcp" horiz-adv-x="512" 
d="M214 654v76q0 25 24 25h72q11 0 17 -7t6 -18v-76q0 -23 -23 -23h-72q-11 0 -17.5 6.5t-6.5 16.5zM61 0v459q0 110 126 112q241 -5 292 -15v-108h-246q-21 0 -26 -6.5t-6 -25.5v-84l242 -8v-105l-242 -7v-212h-140z" />
    <glyph glyph-name="uni1E41.smcp" horiz-adv-x="765" 
d="M324 654v76q0 25 24 25h72q10 0 16.5 -7t6.5 -18v-76q0 -23 -23 -23h-72q-11 0 -17.5 6.5t-6.5 16.5zM42 0l54 571h181l107 -373l107 373h180l53 -571h-137l-35 360l-96 -360h-141l-98 359l-35 -359h-140z" />
    <glyph glyph-name="wgrave.smcp" horiz-adv-x="849" 
d="M257 769h122l91 -139h-91zM27 570h147l112 -397l104 397h146l-47 -160l85 -237l106 397h144l-166 -570h-168l-62 179l-56 -179h-169z" />
    <glyph glyph-name="uni1E57.smcp" horiz-adv-x="529" 
d="M210 652v76q0 25 24 25h72q11 0 17 -7t6 -18v-76q0 -23 -23 -23h-72q-10 0 -17 6.5t-7 16.5zM46 0v569h276q174 0 174 -179q0 -140 -78 -177q-37 -18 -88 -18q-17 0 -79.5 5.5t-64.5 7.5v-208h-140zM186 302h118q25 0 38.5 15.5t13.5 56.5q0 77 -52 77h-118v-149z" />
    <glyph glyph-name="wacute.smcp" horiz-adv-x="849" 
d="M379 630l90 139h123l-122 -139h-91zM27 570h147l112 -397l104 397h146l-47 -160l85 -237l106 397h144l-166 -570h-168l-62 179l-56 -179h-169z" />
    <glyph glyph-name="ygrave.smcp" horiz-adv-x="592" 
d="M126 768h123l91 -138h-92zM368 -1h-140v197l-201 374h152l120 -225l115 225h153l-199 -374v-197z" />
    <glyph glyph-name="wdieresis.smcp" horiz-adv-x="849" 
d="M256.5 647.5q-17.5 17.5 -17.5 38t8 33.5q17 29 46 29t46 -17t17 -41.5t-17 -42t-41 -17.5t-41.5 17.5zM511.5 647.5q-17.5 17.5 -17.5 36t4.5 29t12.5 18.5q18 17 42 17t41 -17t17 -41.5t-17 -42t-41 -17.5t-41.5 17.5zM27 570h147l112 -397l104 397h146l-47 -160
l85 -237l106 397h144l-166 -570h-168l-62 179l-56 -179h-169z" />
    <glyph glyph-name="uni1E61.smcp" horiz-adv-x="543" 
d="M215 656v76q0 25 24 25h72q11 0 17 -7t6 -18v-76q0 -23 -23 -23h-72q-11 0 -17.5 6.5t-6.5 16.5zM42 368v47q0 158 154 158q52 0 139 -6t140 -17v-101q-145 7 -251 7q-42 0 -42 -43v-33q0 -31 18 -36q8 -2 24 -2h137q141 0 141 -154v-48q0 -150 -141 -150q-72 0 -172 5.5
t-125 18.5v99q158 -5 258 -5q15 0 24.5 9t15.5 26v39q0 19 -9 27.5t-31 8.5h-131q-106 0 -135 69q-14 32 -14 81z" />
    <glyph glyph-name="wcircumflex.smcp" horiz-adv-x="849" 
d="M279 630l108 136h104l97 -136h-93l-59 60l-63 -60h-94zM27 570h147l112 -397l104 397h146l-47 -160l85 -237l106 397h144l-166 -570h-168l-62 179l-56 -179h-169z" />
    <glyph glyph-name="uni1E6B.smcp" horiz-adv-x="520" 
d="M201 653v76q0 25 24 25h72q11 0 17 -7t6 -18v-76q0 -23 -23 -23h-72q-11 0 -17.5 6.5t-6.5 16.5zM27 441v129h468v-129h-164v-441h-140v441h-164z" />
    <glyph glyph-name="ycircumflex.smcp" horiz-adv-x="592" 
d="M147 630l108 136h104l96 -136h-93l-58 60l-63 -60h-94zM368 -1h-140v197l-201 374h152l120 -225l115 225h153l-199 -374v-197z" />
    <glyph glyph-name="c_k" horiz-adv-x="1073" 
d="M731 223l-34 -28v-195h-140v98q-149 -105 -269 -105q-154 0 -210 76q-48 66 -48 199q0 159 50 218q25 29 55 41t71 12q144 0 244 -33v-87q-96 7 -152 7t-68 -1.5t-25.5 -10t-20.5 -25.5q-14 -41 -14 -128t24.5 -121t93.5 -34q94 0 269 141v535h140v-416l177 166l184 -1
l-226 -218l226 -313h-165z" />
    <glyph glyph-name="N.salt" horiz-adv-x="714" 
d="M61 0v606q0 41 20 72q41 61 129 61q72 0 117 -45q25 -26 32 -62l147 -495q3 -13 13.5 -10.5t10.5 13.5v592h140v-606q0 -37 -20 -67q-44 -64 -134 -64q-67 0 -109 44q-25 27 -32 67l-148 500q-2 8 -8.5 9.5t-11.5 -3.5t-5 -13v-599h-141z" />
    <glyph glyph-name="M.salt" horiz-adv-x="858" 
d="M97.5 684q20.5 26 51 38.5t83.5 12.5q18 0 48 -11t51.5 -37.5t24.5 -62.5l56 -316q2 -14 14.5 -13t13.5 13l50 319q3 36 25 61q41 48 119 48q79 0 120 -48q21 -25 22 -58l41 -630h-141l-33 565q0 12 -12.5 12t-13.5 -13l-52 -306q-5 -34 -33 -57.5t-56.5 -28t-47.5 -4.5
t-47 4t-56 28t-33 60l-59 310q-1 14 -14 9q-10 -5 -12 -16l-26 -563h-139l34 623q1 35 21.5 61z" />
    <glyph glyph-name="uni1E40.salt" horiz-adv-x="858" 
d="M366 821v76q0 25 24 25h72q10 0 16 -7t6 -18v-76q0 -23 -22 -23h-72q-11 0 -17.5 6.5t-6.5 16.5zM131.5 714q23.5 13 46 17.5t37 4.5t36 -4t46 -16t41 -36.5t18.5 -55.5l56 -316q2 -14 14.5 -13t13.5 13l50 319q3 36 25 61q41 48 119 48q79 0 120 -48q21 -25 22 -58
l42 -630h-142l-33 565q0 12 -12.5 12t-13.5 -13l-52 -306q-5 -34 -33 -57.5t-56.5 -28t-47.5 -4.5t-47 4t-56 28t-33 60l-59 310q-1 14 -14 9q-10 -5 -12 -16l-26 -563h-139l34 623q1 31 16.5 54.5t39 36.5z" />
    <glyph glyph-name="Ntilde.salt" horiz-adv-x="714" 
d="M434 889q39 0 89 38l24 -59q-62 -68 -112 -68q-21 0 -41.5 9t-38 17t-25.5 8h-13t-14.5 -1.5t-15.5 -3t-15.5 -6t-13 -6.5t-15 -9t-15.5 -9l-24 55q63 70 120 70q25 -1 58 -18t42 -17h10zM61 0v606q0 41 20 72q41 61 129 61q72 0 117 -45q25 -26 32 -62l147 -495
q3 -13 13.5 -10.5t10.5 13.5v592h140v-606q0 -37 -20 -67q-44 -64 -134 -64q-67 0 -109 44q-25 27 -32 67l-148 500q-4 15 -18 8q-7 -4 -7 -15v-599h-141z" />
    <glyph glyph-name="Nacute.salt" horiz-adv-x="714" 
d="M317 799l90 139h123l-122 -139h-91zM61 0v606q0 41 20 72q41 61 129 61q72 0 117 -45q25 -26 32 -62l147 -495q3 -13 13.5 -10.5t10.5 13.5v592h140v-606q0 -37 -20 -67q-44 -64 -134 -64q-67 0 -109 44q-25 27 -32 67l-148 500q-4 15 -18 8q-7 -4 -7 -15v-599h-141z" />
    <glyph glyph-name="Ncaron.salt" horiz-adv-x="714" 
d="M224 935h93l63 -60l59 60h93l-102 -136h-104zM61 0v606q0 41 20 72q41 61 129 61q72 0 117 -45q25 -26 32 -62l147 -495q3 -13 13.5 -10.5t10.5 13.5v592h140v-606q0 -37 -20 -67q-44 -64 -134 -64q-67 0 -109 44q-25 27 -32 67l-148 500q-4 15 -18 8q-7 -4 -7 -15v-599
h-141z" />
    <glyph glyph-name="Ncommaaccent.salt" horiz-adv-x="714" 
d="M296 -180v78q0 24 22 24h76q22 0 22 -24v-111q0 -28 -12 -45.5t-29 -21.5q-21 -6 -37.5 -6t-25.5 1l-12 3v44q13 -1 19 3q9 6 9 20v12h-10q-22 0 -22 23zM61 0v606q0 41 20 72q41 61 129 61q72 0 117 -45q25 -26 32 -62l147 -495q3 -13 13.5 -10.5t10.5 13.5v592h140
v-606q0 -37 -20 -67q-44 -64 -134 -64q-67 0 -109 44q-25 27 -32 67l-148 500q-4 15 -18 8q-7 -4 -7 -15v-599h-141z" />
    <glyph glyph-name="zero.numerator" horiz-adv-x="464" 
d="M176 737h118q125 0 125 -120v-242q0 -120 -125 -120h-119q-96 0 -120 64q-9 23 -9 56v238q0 124 130 124zM154 398q0 -26 11.5 -34.5t35.5 -8.5h65q26 0 35.5 8.5t9.5 33.5v198q0 23 -9.5 32.5t-32.5 9.5h-70q-32 0 -39 -15q-6 -11 -6 -27v-197z" />
    <glyph glyph-name="one.numerator" horiz-adv-x="270" 
d="M221 738v-483h-108v384l-101 -23v66l102 56h107z" />
    <glyph glyph-name="two.numerator" horiz-adv-x="403" 
d="M24 644q-1 0 -1 23.5v37.5l1 20q108 19 173.5 19t94 -10.5t46.5 -30.5q34 -39 34 -104q0 -105 -175 -244h175v-100h-345v96q119 82 171 134q24 24 44 53t20 55.5t-17 38.5t-60 12h-161z" />
    <glyph glyph-name="three.numerator" horiz-adv-x="412" 
d="M23 719q55 20 151 20h65q60 0 94 -33.5t34 -87.5v-30q0 -73 -57 -93q57 -22 57 -99v-23q0 -122 -133 -122h-39q-113 0 -168 20l1 79l161 1q41 0 55.5 8t14.5 31v13q0 24 -16.5 33.5t-49.5 10.5l-125 5v86l125 8q36 1 51.5 10t15.5 31v13q0 23 -17 31.5t-50 8.5h-170v79z
" />
    <glyph glyph-name="four.numerator" horiz-adv-x="434" 
d="M266 456v103l24 50h84v-153h49v-85l-49 -8v-106h-108v96h-231l-23 47l171 337h114l-139 -281h108z" />
    <glyph glyph-name="five.numerator" horiz-adv-x="418" 
d="M235 354q28 0 36.5 10t8.5 29v34q0 12 -2 20t-11.5 15t-26.5 7h-69q-36 0 -36 -40h-93l15 308h312v-100h-216l-5 -89q23 18 87 18q17 0 37 -1q59 -3 87.5 -37t28.5 -90v-64q0 -62 -36.5 -92t-100.5 -30t-105 2.5t-104 13.5v86h193z" />
    <glyph glyph-name="six.numerator" horiz-adv-x="438" 
d="M119 728q20 11 47.5 14t79.5 3t145 -18v-83h-177q-59 0 -64 -77q0 -11 -1 -29q56 15 131 15t101.5 -31t26.5 -85v-67q0 -115 -124 -115h-104q-33 0 -56 11q-56 24 -73 115q-10 50 -10 122t10.5 119t29 71t38.5 35zM149 458q0 -103 60 -103h54q20 0 28.5 8t8.5 27v33
q0 21 -7.5 28t-27.5 7h-116z" />
    <glyph glyph-name="seven.numerator" horiz-adv-x="398" 
d="M11 638v100h347l28 -46l-183 -437h-119l161 383h-234z" />
    <glyph glyph-name="eight.numerator" horiz-adv-x="463" 
d="M50 583v42q0 67 39 93q35 23 92 23h112q61 0 91 -27t30 -88v-34q1 -32 -17 -56q-12 -16 -35 -20q20 -3 33 -21q19 -28 19 -71v-54q0 -100 -83 -113q-16 -2 -37 -2h-116q-84 0 -109 39q-19 30 -19 73v45q0 30 14.5 50t41.5 25q-24 9 -37 26t-16 32.5t-3 37.5zM306 418
q0 37 -37 37h-72q-21 0 -30 -8.5t-9 -28.5v-34q0 -19 8.5 -26t31.5 -7h70q21 0 29.5 7.5t8.5 25.5v34zM158 583q0 -21 10 -29t29 -8h70q17 0 26 6t11 13t2 18v23q0 24 -10 32t-32 8h-63q-24 0 -33.5 -8t-9.5 -32v-23z" />
    <glyph glyph-name="nine.numerator" horiz-adv-x="438" 
d="M158 744h103q33 0 57 -11q56 -25 73 -117q10 -50 10 -88.5t-0.5 -67.5t-7 -70t-17.5 -66t-28 -41q-27 -27 -65.5 -31.5t-93 -4.5t-138.5 17v84h176q60 0 64 79q1 12 1 30q-56 -15 -130.5 -15t-101 31.5t-26.5 86.5v68q0 59 33 87.5t91 28.5zM142 574q0 -21 7.5 -28.5
t28.5 -7.5h114q0 76 -26 96q-13 10 -32 10h-55q-20 0 -28.5 -8.5t-8.5 -28.5v-33z" />
    <glyph glyph-name="zero.denominator" horiz-adv-x="464" 
d="M176 482h118q125 0 125 -120v-242q0 -120 -125 -120h-119q-62 0 -95.5 28t-33.5 92v238q0 124 130 124zM154 143q0 -26 11.5 -34.5t35.5 -8.5h65q26 0 35.5 8.5t9.5 33.5v198q0 29 -17 37q-10 5 -25 5h-70q-32 0 -39 -15q-6 -11 -6 -27v-197z" />
    <glyph glyph-name="one.denominator" horiz-adv-x="270" 
d="M221 482v-482h-108v385l-101 -23v66l102 54h107z" />
    <glyph glyph-name="two.denominator" horiz-adv-x="403" 
d="M24 389q-1 0 -1 23.5v37.5l1 20q108 19 173.5 19t94 -10.5t46.5 -30.5q34 -39 34 -104q0 -105 -175 -244h175v-100h-345v96q120 86 171 138q24 24 44 53.5t20 54.5t-17 36t-60 11h-161z" />
    <glyph glyph-name="three.denominator" horiz-adv-x="412" 
d="M23 464q56 20 170 20h54t61 -16q59 -31 59 -105v-30q0 -73 -57 -93q57 -22 57 -99v-23q0 -122 -133 -122h-39q-113 0 -168 20l1 79l161 1q41 0 55.5 8t14.5 31v13q0 24 -16.5 33.5t-49.5 10.5l-125 5v86l125 8q47 1 60 17q7 9 7 24v12q0 23 -17 32t-50 9h-170v79z" />
    <glyph glyph-name="four.denominator" horiz-adv-x="434" 
d="M266 201v103l24 49h84v-152h49v-85l-49 -18v-96h-108v96h-231l-23 48l171 336h114l-139 -281h108z" />
    <glyph glyph-name="five.denominator" horiz-adv-x="418" 
d="M148 290q24 20 90 20q20 0 34 -3q59 -2 87.5 -36t28.5 -90v-63q0 -62 -36.5 -91.5t-100.5 -29.5t-105 2.5t-104 13.5v86h193q36 0 43 19q2 7 2 19v33q0 31 -18 38q-9 4 -22 4h-69q-36 0 -36 -31h-93l15 301h312v-100h-216z" />
    <glyph glyph-name="six.denominator" horiz-adv-x="438" 
d="M127.5 476.5q16.5 6.5 42.5 9.5t79 3t142 -17v-83h-177q-59 0 -64 -77q0 -11 -1 -29q56 15 131 15t101.5 -31t26.5 -85v-67q0 -115 -124 -115h-104q-33 0 -56 11q-56 24 -73 114q-10 50 -10 115.5t7.5 107t18.5 66t27.5 40.5t33 22.5zM149 203q0 -103 60 -103h54
q20 0 28.5 8t8.5 27v33q0 21 -7.5 28t-27.5 7h-116z" />
    <glyph glyph-name="seven.denominator" horiz-adv-x="398" 
d="M11 383v100h347l28 -47l-183 -436h-119l161 383h-234z" />
    <glyph glyph-name="eight.denominator" horiz-adv-x="463" 
d="M50 328v42q0 64 35 90t96 26h112q80 0 107 -48q14 -26 14 -67v-34q1 -18 -6 -36q-13 -34 -46 -39q40 -7 50 -67q2 -13 2 -25v-55q0 -100 -83 -113q-16 -2 -37 -2h-116q-84 0 -109 39q-19 30 -19 73v45q0 30 14.5 50t41.5 25q-34 14 -45 37.5t-11 58.5zM306 163
q0 37 -37 37h-72q-21 0 -30 -8.5t-9 -28.5v-34q0 -24 16 -30q9 -3 24 -3h70q21 0 29.5 7.5t8.5 25.5v34zM158 328q0 -21 10 -29t29 -8h70q25 0 32 9.5t7 27.5v23q0 24 -10 32t-32 8h-63q-24 0 -33.5 -8t-9.5 -32v-23z" />
    <glyph glyph-name="nine.denominator" horiz-adv-x="438" 
d="M34 302v67q0 60 33 88t91 28h103q34 0 57 -10q56 -25 73 -115q10 -50 10 -122t-10 -118.5t-28.5 -70.5t-38.5 -35q-33 -18 -108.5 -18t-164.5 13v84h176q60 0 64 78q1 11 1 29q-53 -15 -129 -15t-102.5 31.5t-26.5 85.5zM142 316q0 -21 7.5 -28t28.5 -7h114q0 74 -26 95
q-13 9 -32 9h-55q-20 0 -28.5 -8t-8.5 -28v-33z" />
    <glyph glyph-name="c_h" horiz-adv-x="1057" 
d="M374 -9l-123 2h-30.5t-47 6t-54.5 23.5t-46 46.5q-43 66 -43 197q0 159 50 218q25 29 55 41t71 12q144 0 244 -33v-86q-96 6 -152 6t-68 -1.5t-25.5 -10t-20.5 -25.5q-14 -41 -14 -115.5t11 -109t31.5 -45.5t59.5 -11l27 -1q159 0 190 17q49 24 59 58q6 23 6 55v548h139
v-309q66 50 115 61q25 5 54 5q159 0 159 -186v-354h-140v356q0 72 -59 72q-42 0 -71 -11.5t-57 -34.5v-158q0 -181 -165 -219q-60 -14 -155 -14z" />
    <glyph glyph-name="m.salt" horiz-adv-x="872" 
d="M338 540q37 0 72.5 -11.5t54.5 -30.5q97 42 213 42q76 0 117 -48.5t41 -121.5v-370h-140v348q0 39 -14.5 56.5t-49 17.5t-62 -6t-61.5 -26q4 -11 4 -38v-352h-140v348q0 51 -26 66q-13 8 -43 8q-64 0 -118 -32v-390h-140v472q73 42 129 55t163 13z" />
    <glyph glyph-name="n.salt" 
d="M224 535q46 5 121 5t121.5 -49t46.5 -121v-370h-140v348q0 51 -26 66q-13 8 -43 8q-64 0 -118 -32v-390h-140v472q92 53 178 63z" />
    <glyph glyph-name="ntilde.salt" 
d="M338 690q39 0 89 38l24 -60q-62 -68 -112 -68q-25 0 -60 17.5t-49 17.5t-23.5 -1.5t-15.5 -3t-15.5 -6t-13 -6.5t-15 -9t-15.5 -9l-25 55q64 70 121 70q25 -1 58 -18t41.5 -17h10.5zM46 0v472q73 42 131.5 55t165.5 13q77 0 123.5 -49t46.5 -121v-370h-140v348
q0 51 -26 66q-13 8 -43 8q-64 0 -118 -32v-390h-140z" />
    <glyph glyph-name="ncommaaccent.salt" 
d="M225 -174v78q0 24 23 24h75q22 0 22 -24v-111q0 -28 -12 -45.5t-29 -22.5q-20 -6 -36.5 -6t-25.5 2l-12 3v44q12 -1 19 3q9 6 9 19v13h-10q-23 0 -23 23zM46 0v472q73 42 131.5 55t165.5 13q77 0 123.5 -49t46.5 -121v-370h-140v348q0 51 -26 66q-13 8 -43 8
q-64 0 -118 -32v-390h-140z" />
    </font>
</defs>
</svg>
