<?xml version="1.0" standalone="no"?>
<!DOCTYPE svg PUBLIC "-//W3C//DTD SVG 1.1//EN" "http://www.w3.org/Graphics/SVG/1.1/DTD/svg11.dtd" >
<svg xmlns="http://www.w3.org/2000/svg" xmlns:xlink="http://www.w3.org/1999/xlink" version="1.1">
<metadata>
Created by FontForge 20170731 at Tue Apr 13 04:14:46 1999
 By Aleksey,,,
Copyright (c) Matthew Welch 1998. All Rights Reserved.
</metadata>
<defs>
<font id="AncientGeek" horiz-adv-x="1208" >
  <font-face 
    font-family="Ancient Geek"
    font-weight="400"
    font-stretch="normal"
    units-per-em="2048"
    panose-1="2 11 114 0 0 0 0 0 0 0"
    ascent="1638"
    descent="-410"
    x-height="1356"
    cap-height="1356"
    bbox="-5 -356 1848 1372"
    underline-thickness="0"
    underline-position="0"
    unicode-range="U+0020-007A"
  />
<missing-glyph horiz-adv-x="1536" 
d="M256 0v1280h1024v-1280h-1024zM1248 32v1216h-960v-1216h960z" />
    <glyph glyph-name=".notdef" horiz-adv-x="1536" 
d="M256 0v1280h1024v-1280h-1024zM1248 32v1216h-960v-1216h960z" />
    <glyph glyph-name=".null" horiz-adv-x="739" 
 />
    <glyph glyph-name="nonmarkingreturn" horiz-adv-x="739" 
 />
    <glyph glyph-name="space" unicode=" " horiz-adv-x="981" 
 />
    <glyph glyph-name="exclam" unicode="!" horiz-adv-x="740" 
d="M340 221q46 0 78.5 -32.5t32.5 -77.5q0 -46 -32.5 -78.5t-78.5 -32.5t-78.5 32.5t-32.5 78.5q0 45 32.5 77.5t78.5 32.5zM300 444h80l68 732q1 16 1 31q0 109 -51 137q-29 16 -58 16q-30 0 -60 -16q-50 -27 -50 -125q0 -20 2 -43z" />
    <glyph glyph-name="quotedbl" unicode="&#x22;" horiz-adv-x="740" 
d="M526 800h-40l-36 312q-9 73 -9 123q0 83 25 99q20 13 40 13t40 -13q25 -16 25 -98q0 -50 -9 -124zM254 800h-40l-36 312q-9 73 -9 123q0 83 25 99q20 13 40 13t40 -13q25 -16 25 -98q0 -50 -9 -124z" />
    <glyph glyph-name="numbersign" unicode="#" horiz-adv-x="1076" 
d="M318 44h-104l64 284h-208v88h232l52 244h-208v88h224l60 284h104l-60 -284h220l72 284h104l-72 -284h208v-88h-232l-52 -244h208v-88h-232l-60 -284h-104l60 284h-212zM402 416h216l56 244h-220z" />
    <glyph glyph-name="dollar" unicode="$" horiz-adv-x="840" 
d="M356 1256v100h100v-100q96 0 166 -38t106 -126v-104h-88q-24 68 -54 110t-130 58v-400q287 -217 287 -423q0 -53 -19 -105q-59 -129 -237 -129q-15 0 -31 1v-100h-100v100q-116 4 -182 36t-126 140v100h76q32 -104 86 -138t146 -38v448q-273 191 -273 371q0 39 13 77
q56 156 260 160zM456 580v-380q124 0 144 116q2 13 2 26q0 106 -146 238zM356 836v320q-124 -12 -132 -102v-10q0 -87 132 -208z" />
    <glyph glyph-name="percent" unicode="%" horiz-adv-x="1120" 
d="M748 1176q-123 -60 -220 -60q-83 0 -148 44q-32 -216 -152 -220q-140 4 -140 196v10q4 202 144 210q80 -8 144 -76q64 -56 178 -56q170 0 450 124l-760 -1348h-170zM870 404q144 -8 152 -192v-18q0 -166 -140 -174q-152 0 -162 188q-1 11 -1 21q0 167 151 175zM892 72
q49 14 49 93q0 30 -7 69q-22 119 -70 119q-9 0 -20 -5q-48 -15 -48 -93q0 -27 6 -61q20 -123 79 -123q5 0 11 1zM224 1008q58 15 58 147v9q-2 122 -45 123q-6 0 -13 -3q-52 -24 -52 -158q0 -120 41 -120q5 0 11 2z" />
    <glyph glyph-name="ampersand" unicode="&#x26;" horiz-adv-x="1356" 
d="M244 904q-112 116 -112 244v8q4 132 154 174q34 10 64 10q100 0 146 -110q24 -58 24 -117q0 -87 -52 -177l428 -480l92 192q16 32 16 54q0 46 -72 46h-8v56h308v-56q-9 2 -18 2q-59 0 -94 -94l-140 -276q80 -88 150 -144q23 -19 42 -19q37 0 56 75l80 -56
q-38 -219 -142 -219q-6 0 -12 1q-114 14 -274 210q-155 -214 -397 -214q-57 0 -119 12q-324 62 -326 354v6q0 288 206 518zM364 1020q47 49 47 98q0 19 -7 38q-24 68 -80 70h-4q-52 0 -54 -52v-2q0 -54 98 -152zM784 308l-424 480q-94 -137 -94 -285q0 -29 4 -59
q22 -180 212 -222q47 -10 89 -10q129 0 213 96z" />
    <glyph glyph-name="quotesingle" unicode="'" horiz-adv-x="432" 
d="M236 800h-33l-30 275q-7 63 -7 106q0 74 21 89q16 11 32 11t33 -11q21 -15 21 -89q0 -43 -7 -106z" />
    <glyph glyph-name="parenleft" unicode="(" horiz-adv-x="524" 
d="M448 -356v156q-152 124 -204 412q-23 129 -23 258q0 159 35 318q64 288 220 412v156q-264 -204 -364 -530q-51 -166 -51 -340q0 -167 47 -340q96 -354 340 -502z" />
    <glyph glyph-name="parenright" unicode=")" horiz-adv-x="524" 
d="M72 -356v156q152 124 204 412q23 129 23 258q0 159 -35 318q-64 288 -220 412v156q264 -204 364 -530q51 -166 51 -340q0 -167 -47 -340q-96 -354 -340 -502z" />
    <glyph glyph-name="asterisk" unicode="*" horiz-adv-x="776" 
d="M372 1032q-156 -141 -200 -141q-5 0 -8 1q-31 14 -31 42q0 5 1 10q6 36 222 116q-216 80 -222 116q-1 5 -1 10q0 28 31 42q3 1 8 1q44 0 200 -141q-24 132 -24 194q0 44 12 54q14 12 28 12t28 -12q12 -10 12 -54q0 -62 -24 -194q156 141 200 141q5 0 8 -1q31 -14 31 -42
q0 -5 -1 -10q-6 -36 -222 -116q216 -80 222 -116q1 -5 1 -10q0 -28 -31 -42q-3 -1 -8 -1q-44 0 -200 141q24 -132 24 -194q0 -44 -12 -54q-14 -12 -28 -12t-28 12q-12 10 -12 54q0 62 24 194z" />
    <glyph glyph-name="plus" unicode="+" horiz-adv-x="900" 
d="M400 1028h100v-300h300v-100h-300v-300h-100v300h-300v100h300v300z" />
    <glyph glyph-name="comma" unicode="," horiz-adv-x="376" 
d="M216 221q46 0 78.5 -32.5t32.5 -77.5q0 -46 -37.5 -104.5t-141.5 -146.5h-108q64 80 65 251q0 45 32.5 77.5t78.5 32.5z" />
    <glyph glyph-name="hyphen" unicode="-" horiz-adv-x="672" 
d="M80 628v100h516v-100h-516z" />
    <glyph glyph-name="period" unicode="." horiz-adv-x="344" 
d="M168 221q46 0 78.5 -32.5t32.5 -77.5q0 -46 -32.5 -78.5t-78.5 -32.5t-78.5 32.5t-32.5 78.5q0 45 32.5 77.5t78.5 32.5z" />
    <glyph glyph-name="slash" unicode="/" horiz-adv-x="900" 
d="M20 0l720 1352h140l-720 -1352h-140z" />
    <glyph glyph-name="zero" unicode="0" horiz-adv-x="968" 
d="M480 0q-200 0 -314 154t-114 522q0 272 108 476t320 204q200 0 314 -186t114 -494q0 -380 -110 -530q-107 -146 -308 -146h-10zM480 100q100 0 164 174t64 402q0 220 -62 400t-166 180q-100 0 -164 -188t-64 -392q0 -232 56 -404t172 -172z" />
    <glyph glyph-name="one" unicode="1" horiz-adv-x="480" 
d="M20 0v52q68 0 94 18t26 62v1084q0 56 -26 72t-94 16v52h440v-52q-68 0 -94 -16t-26 -72v-1084q0 -44 26 -62t94 -18v-52h-440z" />
    <glyph glyph-name="two" unicode="2" horiz-adv-x="920" 
d="M460 0v52q68 0 94 18t26 62v1084q0 56 -26 72t-94 16v52h440v-52q-68 0 -94 -16t-26 -72v-1084q0 -44 26 -62t94 -18v-52h-440zM20 0v52q68 0 94 18t26 62v1084q0 56 -26 72t-94 16v52h440v-52q-68 0 -94 -16t-26 -72v-1084q0 -44 26 -62t94 -18v-52h-440z" />
    <glyph glyph-name="three" unicode="3" horiz-adv-x="1360" 
d="M20 0v52q68 0 94 18t26 62v1084q0 56 -26 72t-94 16v52h440v-52q-68 0 -94 -16t-26 -72v-1084q0 -44 26 -62t94 -18v-52h-440zM900 0v52q68 0 94 18t26 62v1084q0 56 -26 72t-94 16v52h440v-52q-68 0 -94 -16t-26 -72v-1084q0 -44 26 -62t94 -18v-52h-440zM460 0v52
q68 0 94 18t26 62v1084q0 56 -26 72t-94 16v52h440v-52q-68 0 -94 -16t-26 -72v-1084q0 -44 26 -62t94 -18v-52h-440z" />
    <glyph glyph-name="four" unicode="4" 
d="M1188 1356v-52q-52 0 -74 -16t-46 -72l-456 -1216h-60l-412 1216q-16 56 -42 72t-78 16v52h440v-52q-68 0 -102 -16q-23 -11 -23 -40q0 -14 5 -32l300 -900l328 900q7 20 7 35q0 27 -23 37q-36 16 -104 16v52h340z" />
    <glyph glyph-name="five" unicode="5" 
d="M1188 1356v-52q-40 0 -62 -18t-58 -70l-388 -512l388 -572q32 -36 54 -58t66 -22v-52h-440v52q80 0 114 20q19 11 19 28q0 14 -13 32l-300 428l-328 -428q-14 -20 -14 -35t14 -25q28 -20 120 -20v-52h-340v52q44 0 64 20t56 60l376 500l-376 584q-32 52 -56 70t-64 18v52
h440v-52q-80 0 -114 -20q-19 -11 -19 -30q0 -16 13 -38l288 -440l340 440q17 21 17 37q0 17 -21 29q-40 22 -116 22v52h340z" />
    <glyph glyph-name="six" unicode="6" horiz-adv-x="1180" 
d="M20 0v52q68 0 94 18t26 62v1084q0 56 -26 72t-94 16v52h440v-52q-68 0 -94 -16t-26 -72v-1116h424q108 0 174 58t94 166h64l-76 -324h-1000z" />
    <glyph glyph-name="seven" unicode="7" horiz-adv-x="1312" 
d="M100 676q0 272 132 466t388 214q37 2 71 2q86 0 159 -14q102 -20 138 -48q21 -12 35 -12q9 0 15 6q11 11 11 44q0 10 -1 22h64l100 -352h-60q-120 176 -242 226q-82 34 -191 34q-53 0 -111 -8q-160 -32 -246 -250q-67 -170 -67 -312q0 -40 5 -78q20 -228 104 -364
t276 -152q188 8 306 92t166 256h60q-48 -228 -194 -338t-398 -110q-220 0 -370 174t-150 502z" />
    <glyph glyph-name="eight" unicode="8" horiz-adv-x="1200" 
d="M20 0v52q56 0 88 14t32 66v1084q0 60 -36 74t-84 14v52h528q220 0 386 -148t166 -580q0 -368 -114 -498t-266 -130h-700zM340 100h216q148 0 246 88t98 444q0 320 -104 472t-332 152h-124v-1156z" />
    <glyph glyph-name="nine" unicode="9" horiz-adv-x="1664" 
d="M20 0v52q68 0 94 18t26 62v1084q0 56 -26 72t-94 16v52h276l524 -840l516 840h308v-52q-68 0 -94 -16t-26 -72v-1084q0 -44 26 -62t94 -18v-52h-440v52q68 0 94 18t26 62v1032l-452 -728l-92 -152l-540 880v-1032q0 -44 26 -62t94 -18v-52h-340z" />
    <glyph glyph-name="colon" unicode=":" horiz-adv-x="432" 
d="M212 841q46 0 78.5 -32.5t32.5 -77.5q0 -46 -32.5 -78.5t-78.5 -32.5t-78.5 32.5t-32.5 78.5q0 45 32.5 77.5t78.5 32.5zM212 221q46 0 78.5 -32.5t32.5 -77.5q0 -46 -32.5 -78.5t-78.5 -32.5t-78.5 32.5t-32.5 78.5q0 45 32.5 77.5t78.5 32.5z" />
    <glyph glyph-name="semicolon" unicode=";" horiz-adv-x="432" 
d="M212 221q46 0 78.5 -32.5t32.5 -77.5q0 -46 -37.5 -104.5t-141.5 -146.5h-108q64 80 65 251q0 45 32.5 77.5t78.5 32.5zM212 841q46 0 78.5 -32.5t32.5 -77.5q0 -46 -32.5 -78.5t-78.5 -32.5t-78.5 32.5t-32.5 78.5q0 45 32.5 77.5t78.5 32.5z" />
    <glyph glyph-name="less" unicode="&#x3c;" horiz-adv-x="640" 
d="M460 1076h120l-400 -400l400 -400h-120l-400 400z" />
    <glyph glyph-name="equal" unicode="=" horiz-adv-x="672" 
d="M80 500v100h516v-100h-516zM80 756v100h516v-100h-516z" />
    <glyph glyph-name="greater" unicode="&#x3e;" horiz-adv-x="640" 
d="M180 1076h-120l400 -400l-400 -400h120l400 400z" />
    <glyph glyph-name="question" unicode="?" horiz-adv-x="944" 
d="M356 221q46 0 78.5 -32.5t32.5 -77.5q0 -46 -32.5 -78.5t-78.5 -32.5t-78.5 32.5t-32.5 78.5q0 45 32.5 77.5t78.5 32.5zM464 340h-224q0 172 36 278t216 142q76 16 112 58t36 158q0 136 -50 194t-118 86q-47 12 -86 12q-62 0 -106 -30q-50 -35 -50 -88q0 -23 10 -50
q16 -35 16 -65q0 -55 -52 -91q-19 -10 -35 -10q-54 0 -69 114q-5 30 -5 57q0 117 83 179q97 72 242 72h16q192 0 298 -98t106 -286q0 -136 -54 -220t-190 -104q-84 -24 -104 -64t-28 -244z" />
    <glyph glyph-name="A" unicode="A" horiz-adv-x="1600" 
d="M20 0l780 1356l780 -1356h-1560zM232 100h1012l-504 880z" />
    <glyph glyph-name="B" unicode="B" horiz-adv-x="1160" 
d="M20 0v52q64 0 92 18t28 62v1084q0 48 -28 68t-92 20v52h556q212 0 322 -72t110 -240q0 -156 -64 -234t-172 -78q144 0 216 -98t72 -266q0 -208 -110 -288t-294 -80h-636zM340 776h228q120 0 180 58t60 194t-62 182t-178 46h-228v-480zM340 100h268q116 0 184 68t68 192
q0 164 -66 240t-222 76h-232v-576z" />
    <glyph glyph-name="C" unicode="C" horiz-adv-x="1312" 
d="M100 676q0 272 132 466t388 214q37 2 71 2q86 0 159 -14q102 -20 138 -48q21 -12 35 -12q9 0 15 6q11 11 11 44q0 10 -1 22h64l100 -352h-60q-120 176 -242 226q-82 34 -191 34q-53 0 -111 -8q-160 -32 -246 -250q-67 -170 -67 -312q0 -40 5 -78q20 -228 104 -364
t276 -152q188 8 306 92t166 256h60q-48 -228 -194 -338t-398 -110q-220 0 -370 174t-150 502z" />
    <glyph glyph-name="D" unicode="D" horiz-adv-x="1200" 
d="M20 0v52q56 0 88 14t32 66v1084q0 60 -36 74t-84 14v52h528q220 0 386 -148t166 -580q0 -368 -114 -498t-266 -130h-700zM340 100h216q148 0 246 88t98 444q0 320 -104 472t-332 152h-124v-1156z" />
    <glyph glyph-name="E" unicode="E" horiz-adv-x="1296" 
d="M320 880h52q0 -48 24 -74t76 -26h352q56 4 78 26t22 74h52v-400h-52q0 44 -24 72t-76 28h-352q-52 0 -74 -26t-26 -74h-52v400zM40 0v328h52q0 -76 22 -102t66 -26h936q48 0 68 26t20 102h52v-328h-1216zM40 1356v-328h52q0 76 22 102t66 26h936q48 0 68 -26t20 -102h52
v328h-1216z" />
    <glyph glyph-name="F" unicode="F" horiz-adv-x="1172" 
d="M20 0v52q68 0 94 18t26 62v1084q0 56 -26 72t-94 16v52h1060v-236h-60q0 72 -36 104t-96 32h-548v-1124q0 -44 26 -62t94 -18v-52h-440z" />
    <glyph glyph-name="G" unicode="G" horiz-adv-x="1300" 
d="M100 676q0 228 132 438t388 242q43 2 80 2q101 0 160 -16q80 -22 128 -46q21 -12 35 -12q9 0 15 6q11 11 11 44q0 10 -1 22h64l100 -352h-60q-120 176 -242 226q-82 34 -191 34q-53 0 -111 -8q-180 -44 -256 -256q-58 -161 -58 -299q0 -44 6 -85q20 -228 104 -364
t276 -152q180 0 250 114t70 254q0 44 -26 62t-94 18v52h320v-600q-56 0 -94 30t-54 86q-72 -64 -174 -92q-89 -24 -219 -25q-19 0 -39 1q-220 0 -370 174t-150 502z" />
    <glyph glyph-name="H" unicode="H" horiz-adv-x="1216" 
d="M20 0v52q68 0 94 18t26 62v1084q0 56 -26 72t-94 16v52h440v-52q-68 0 -94 -16t-26 -72v-440h536v440q0 56 -26 72t-94 16v52h440v-52q-68 0 -96 -16q-24 -14 -25 -59q0 -6 1 -13v-1084q0 -44 26 -62t94 -18v-52h-440v52q68 0 94 18t26 62v544h-536v-544q0 -44 26 -62
t94 -18v-52h-440z" />
    <glyph glyph-name="I" unicode="I" horiz-adv-x="1016" 
d="M280 0v52q68 0 94 18t26 62v168q-144 4 -252 120t-108 260q4 140 108 252t252 124v160q0 56 -26 72t-94 16v52h440v-52q-68 0 -94 -16t-26 -72v-160h10q138 0 242 -110q108 -114 108 -266q-4 -140 -108 -256t-252 -124v-168q0 -44 26 -62t94 -18v-52h-440zM600 956v-556
q84 40 124 106q36 60 36 155v19q0 92 -32 174t-128 102zM400 400v556q-88 -24 -124 -104t-36 -172q0 -96 32 -168t128 -112z" />
    <glyph glyph-name="J" unicode="J" horiz-adv-x="480" 
d="M20 -180q76 40 98 102t22 210v1084q0 56 -26 72t-94 16v52h440v-52q-68 0 -94 -16t-26 -72v-1084q0 -144 -80 -230t-240 -130v48z" />
    <glyph glyph-name="K" unicode="K" horiz-adv-x="1280" 
d="M20 0v52q68 0 94 18t26 62v1084q0 56 -26 72t-94 16v52h440v-52q-68 0 -94 -16t-26 -72v-488l496 496q24 22 24 38q0 11 -10 20q-26 22 -94 22v52h340v-52q-60 0 -88 -16t-76 -64l-324 -324l468 -768q28 -40 68 -60t116 -20v-52h-504v52q68 0 106 22q23 13 23 32
q0 12 -9 26l-384 648l-152 -152v-496q0 -44 26 -62t94 -18v-52h-440z" />
    <glyph glyph-name="L" unicode="L" horiz-adv-x="1180" 
d="M20 0v52q68 0 94 18t26 62v1084q0 56 -26 72t-94 16v52h440v-52q-68 0 -94 -16t-26 -72v-1116h424q108 0 174 58t94 166h64l-76 -324h-1000z" />
    <glyph glyph-name="M" unicode="M" horiz-adv-x="1664" 
d="M20 0v52q68 0 94 18t26 62v1084q0 56 -26 72t-94 16v52h276l524 -840l516 840h308v-52q-68 0 -94 -16t-26 -72v-1084q0 -44 26 -62t94 -18v-52h-440v52q68 0 94 18t26 62v1032l-452 -728l-92 -152l-540 880v-1032q0 -44 26 -62t94 -18v-52h-340z" />
    <glyph glyph-name="N" unicode="N" horiz-adv-x="1280" 
d="M20 1356v-52q68 0 94 -18t26 -62v-1084q0 -56 -26 -72t-94 -16v-52h440v52q-68 0 -94 16t-26 72v1116h600v-1116q0 -56 -26 -72t-94 -16v-52h440v52q-68 0 -94 16t-26 72v1084q0 44 28 62t92 18v52h-1240z" />
    <glyph glyph-name="O" unicode="O" horiz-adv-x="1200" 
d="M40 0v200h40q0 -44 26 -72t74 -28h220v152q-116 16 -238 160t-122 392q0 252 150 402t410 150q240 0 400 -150t160 -402q0 -248 -126 -398t-234 -154v-152h220q56 0 78 24t22 80l40 -4v-200h-460v352q112 20 186 120t74 332q0 204 -110 328t-250 124q-144 0 -252 -124
t-108 -328q0 -232 68 -328t192 -124v-352h-460z" />
    <glyph glyph-name="P" unicode="P" horiz-adv-x="1028" 
d="M20 0v52q68 0 94 18t26 62v1084q0 56 -26 72t-94 16v52h440q204 0 336 -70t132 -294q0 -204 -118 -284t-274 -80h-196v-496q0 -44 26 -62t94 -18v-52h-440zM340 728h176q116 0 162 64t46 224q0 148 -58 194t-194 46h-132v-528z" />
    <glyph glyph-name="Q" unicode="Q" horiz-adv-x="1556" 
d="M776 1356q279 0 479.5 -199t200.5 -473t-200.5 -479t-439.5 -205q132 0 240 -20t174 -38q22 -6 62 -6q79 0 228 24q-173 -96 -316 -96h-12q-148 4 -256 36q-108 36 -224 36t-280 -44q88 108 304 108q-246 0 -441 205t-195 479q0 283 195 477.5t481 194.5zM736 1256
q-180 -20 -316 -182q-122 -145 -122 -381q0 -28 2 -57q20 -220 158 -376t358 -160q216 16 332 172q109 146 109 407q0 18 -1 37q-20 224 -164 386q-137 154 -336 154h-20z" />
    <glyph glyph-name="R" unicode="R" horiz-adv-x="1136" 
d="M20 0v52q68 0 94 18t26 62v1084q0 56 -26 72t-94 16v52h440q204 0 336 -70t132 -294q0 -204 -104 -286q-99 -78 -170 -78h-6l304 -496q40 -40 70 -60t94 -20v-52h-468v52q60 0 88 18q15 10 15 27q0 15 -11 35l-292 496h-108v-496q0 -44 26 -62t94 -18v-52h-440zM340 728
h176q116 0 162 64t46 224q0 148 -58 194t-194 46h-132v-528z" />
    <glyph glyph-name="S" unicode="S" horiz-adv-x="976" 
d="M152 0l-52 260h52q68 -96 142 -128t194 -32q88 0 138 62t50 186q0 108 -52 160t-172 96q-132 44 -218 146t-86 266q0 152 96 246t244 94q68 0 102 -12t86 -44q24 -14 38 -14q10 0 16 6q7 7 7 21q0 17 -9 43h60l44 -208h-56q-96 80 -134 94t-154 14q-68 0 -112 -62
t-44 -142q0 -92 54 -160t182 -120q92 -36 200 -124t108 -260q0 -188 -118 -288t-270 -100q-72 0 -116 8t-84 32q-29 19 -46 19q-9 0 -14 -5q-13 -11 -13 -39q0 -7 1 -15h-64z" />
    <glyph glyph-name="T" unicode="T" horiz-adv-x="1308" 
d="M432 0v52q68 0 94 18t26 62v1124h-280q-72 0 -112 -30t-68 -106h-60l84 236h1076l84 -236h-60q-28 76 -68 106t-116 30h-280v-1124q0 -44 26 -62t94 -18v-52h-440z" />
    <glyph glyph-name="U" unicode="U" 
d="M1188 1356v-52q-52 0 -74 -16t-46 -72l-456 -1216h-60l-412 1216q-16 56 -42 72t-78 16v52h440v-52q-68 0 -102 -16q-23 -11 -23 -40q0 -14 5 -32l300 -900l328 900q7 20 7 35q0 27 -23 37q-36 16 -104 16v52h340z" />
    <glyph glyph-name="V" unicode="V" 
d="M1188 1356v-52q-52 0 -74 -16t-46 -72l-456 -1216h-60l-412 1216q-16 56 -42 72t-78 16v52h440v-52q-68 0 -102 -16q-23 -11 -23 -40q0 -14 5 -32l300 -900l328 900q7 20 7 35q0 27 -23 37q-36 16 -104 16v52h340z" />
    <glyph glyph-name="W" unicode="W" horiz-adv-x="1868" 
d="M1848 1356v-52q-52 0 -74 -16t-46 -72l-456 -1216h-60l-268 784l-332 -784h-60l-412 1216q-16 56 -42 72t-78 16v52h440v-52q-68 0 -102 -16q-23 -11 -23 -40q0 -14 5 -32l300 -900l252 612l-92 288q-16 56 -42 72t-78 16v52h440v-52q-68 0 -102 -16q-23 -11 -23 -40
q0 -14 5 -32l300 -900l328 900q7 20 7 35q0 27 -23 37q-36 16 -104 16v52h340z" />
    <glyph glyph-name="X" unicode="X" 
d="M1188 1356v-52q-40 0 -62 -18t-58 -70l-388 -512l388 -572q32 -36 54 -58t66 -22v-52h-440v52q80 0 114 20q19 11 19 28q0 14 -13 32l-300 428l-328 -428q-14 -20 -14 -35t14 -25q28 -20 120 -20v-52h-340v52q44 0 64 20t56 60l376 500l-376 584q-32 52 -56 70t-64 18v52
h440v-52q-80 0 -114 -20q-19 -11 -19 -30q0 -16 13 -38l288 -440l340 440q17 21 17 37q0 17 -21 29q-40 22 -116 22v52h340z" />
    <glyph glyph-name="Y" unicode="Y" horiz-adv-x="1204" 
d="M1180 1356v-84q-44 0 -58 -20t-14 -64q0 -208 -112 -370t-292 -170v-516q0 -44 26 -62t94 -18v-52h-440v52q68 0 94 18t26 62v516q-204 16 -308 176t-104 364q1 8 1 15q0 32 -15 47q-18 18 -58 22v84h120q52 0 80 -40t32 -124q0 -196 62 -324t190 -128v476q0 44 -20 66
t-100 22v52h440v-52q-72 0 -96 -22t-24 -66v-476q108 0 172 138t72 310q0 76 24 122t88 46h120z" />
    <glyph glyph-name="Z" unicode="Z" horiz-adv-x="1376" 
d="M100 0v52l932 1204h-600q-108 0 -174 -58t-94 -166h-64l76 324h1100v-52l-948 -1204h616q108 0 174 58t94 166h64l-76 -324h-1100z" />
    <glyph glyph-name="bracketleft" unicode="[" horiz-adv-x="380" 
d="M340 0h-300v1356h300v-100h-200v-1156h200v-100z" />
    <glyph glyph-name="backslash" unicode="\" horiz-adv-x="900" 
d="M880 0l-720 1352h-140l720 -1352h140z" />
    <glyph glyph-name="bracketright" unicode="]" horiz-adv-x="380" 
d="M40 0h300v1356h-300v-100h200v-1156h-200v-100z" />
    <glyph glyph-name="grave" unicode="`" horiz-adv-x="1324" 
d="M380 0h-360v52q72 0 104 26t56 102l400 1176h160l400 -1176q20 -64 50 -96t110 -32v-52h-460v52q80 0 100 32q10 16 10 40t-10 56l-328 1004l-332 -1004q-13 -38 -13 -64q0 -23 11 -36q22 -28 102 -28v-52z" />
    <glyph glyph-name="a" unicode="a" horiz-adv-x="1324" 
d="M380 0h-360v52q72 0 104 26t56 102l400 1176h160l400 -1176q20 -64 50 -96t110 -32v-52h-460v52q80 0 100 32q10 16 10 40t-10 56l-328 1004l-332 -1004q-13 -38 -13 -64q0 -23 11 -36q22 -28 102 -28v-52z" />
    <glyph glyph-name="b" unicode="b" horiz-adv-x="1160" 
d="M20 0v52q64 0 92 18t28 62v1084q0 48 -28 68t-92 20v52h556q212 0 322 -72t110 -240q0 -156 -64 -234t-172 -78q144 0 216 -98t72 -266q0 -208 -110 -288t-294 -80h-636zM340 776h228q120 0 180 58t60 194t-62 182t-178 46h-228v-480zM340 100h268q116 0 184 68t68 192
q0 164 -66 240t-222 76h-232v-576z" />
    <glyph glyph-name="c" unicode="c" horiz-adv-x="1312" 
d="M100 676q0 272 132 466t388 214q37 2 71 2q86 0 159 -14q102 -20 138 -48q21 -12 35 -12q9 0 15 6q11 11 11 44q0 10 -1 22h64l100 -352h-60q-120 176 -242 226q-82 34 -191 34q-53 0 -111 -8q-160 -32 -246 -250q-67 -170 -67 -312q0 -40 5 -78q20 -228 104 -364
t276 -152q188 8 306 92t166 256h60q-48 -228 -194 -338t-398 -110q-220 0 -370 174t-150 502z" />
    <glyph glyph-name="d" unicode="d" horiz-adv-x="1200" 
d="M20 0v52q56 0 88 14t32 66v1084q0 60 -36 74t-84 14v52h528q220 0 386 -148t166 -580q0 -368 -114 -498t-266 -130h-700zM340 100h216q148 0 246 88t98 444q0 320 -104 472t-332 152h-124v-1156z" />
    <glyph glyph-name="e" unicode="e" horiz-adv-x="1180" 
d="M40 0v52l624 628l-624 624v52h1060v-236h-52q-4 68 -32 102t-108 34h-540l512 -512l-544 -544h548q88 0 126 38t38 102h52v-340h-1060z" />
    <glyph glyph-name="f" unicode="f" horiz-adv-x="1172" 
d="M20 0v52q68 0 94 18t26 62v1084q0 56 -26 72t-94 16v52h1060v-236h-60q0 72 -36 104t-96 32h-548v-1124q0 -44 26 -62t94 -18v-52h-440z" />
    <glyph glyph-name="g" unicode="g" horiz-adv-x="1300" 
d="M100 676q0 228 132 438t388 242q43 2 80 2q101 0 160 -16q80 -22 128 -46q21 -12 35 -12q9 0 15 6q11 11 11 44q0 10 -1 22h64l100 -352h-60q-120 176 -242 226q-82 34 -191 34q-53 0 -111 -8q-180 -44 -256 -256q-58 -161 -58 -299q0 -44 6 -85q20 -228 104 -364
t276 -152q180 0 250 114t70 254q0 44 -26 62t-94 18v52h320v-600q-56 0 -94 30t-54 86q-72 -64 -174 -92q-89 -24 -219 -25q-19 0 -39 1q-220 0 -370 174t-150 502z" />
    <glyph glyph-name="h" unicode="h" horiz-adv-x="1216" 
d="M20 0v52q68 0 94 18t26 62v1084q0 56 -26 72t-94 16v52h440v-52q-68 0 -94 -16t-26 -72v-440h536v440q0 56 -26 72t-94 16v52h440v-52q-68 0 -96 -16q-24 -14 -25 -59q0 -6 1 -13v-1084q0 -44 26 -62t94 -18v-52h-440v52q68 0 94 18t26 62v544h-536v-544q0 -44 26 -62
t94 -18v-52h-440z" />
    <glyph glyph-name="i" unicode="i" horiz-adv-x="1016" 
d="M280 0v52q68 0 94 18t26 62v168q-144 4 -252 120t-108 260q4 140 108 252t252 124v160q0 56 -26 72t-94 16v52h440v-52q-68 0 -94 -16t-26 -72v-160h10q138 0 242 -110q108 -114 108 -266q-4 -140 -108 -256t-252 -124v-168q0 -44 26 -62t94 -18v-52h-440zM600 956v-556
q84 40 124 106q36 60 36 155v19q0 92 -32 174t-128 102zM400 400v556q-88 -24 -124 -104t-36 -172q0 -96 32 -168t128 -112z" />
    <glyph glyph-name="j" unicode="j" horiz-adv-x="480" 
d="M20 -180q76 40 98 102t22 210v1084q0 56 -26 72t-94 16v52h440v-52q-68 0 -94 -16t-26 -72v-1084q0 -144 -80 -230t-240 -130v48z" />
    <glyph glyph-name="k" unicode="k" horiz-adv-x="1280" 
d="M20 0v52q68 0 94 18t26 62v1084q0 56 -26 72t-94 16v52h440v-52q-68 0 -94 -16t-26 -72v-488l496 496q24 22 24 38q0 11 -10 20q-26 22 -94 22v52h340v-52q-60 0 -88 -16t-76 -64l-324 -324l468 -768q28 -40 68 -60t116 -20v-52h-504v52q68 0 106 22q23 13 23 32
q0 12 -9 26l-384 648l-152 -152v-496q0 -44 26 -62t94 -18v-52h-440z" />
    <glyph glyph-name="l" unicode="l" horiz-adv-x="1180" 
d="M20 0v52q68 0 94 18t26 62v1084q0 56 -26 72t-94 16v52h440v-52q-68 0 -94 -16t-26 -72v-1116h424q108 0 174 58t94 166h64l-76 -324h-1000z" />
    <glyph glyph-name="m" unicode="m" horiz-adv-x="1664" 
d="M20 0v52q68 0 94 18t26 62v1084q0 56 -26 72t-94 16v52h276l524 -840l516 840h308v-52q-68 0 -94 -16t-26 -72v-1084q0 -44 26 -62t94 -18v-52h-440v52q68 0 94 18t26 62v1032l-452 -728l-92 -152l-540 880v-1032q0 -44 26 -62t94 -18v-52h-340z" />
    <glyph glyph-name="n" unicode="n" horiz-adv-x="1280" 
d="M20 1356v-52q68 0 94 -18t26 -62v-1084q0 -56 -26 -72t-94 -16v-52h440v52q-68 0 -94 16t-26 72v1116h600v-1116q0 -56 -26 -72t-94 -16v-52h440v52q-68 0 -94 16t-26 72v1084q0 44 28 62t92 18v52h-1240z" />
    <glyph glyph-name="o" unicode="o" horiz-adv-x="1556" 
d="M776 1356q279 0 479.5 -199t200.5 -473t-200.5 -479t-479.5 -205q-286 0 -481 205t-195 479q0 283 195 477.5t481 194.5zM736 1256q-180 -20 -316 -182q-122 -145 -122 -381q0 -28 2 -57q20 -220 158 -376t358 -160q216 16 332 172q109 146 109 407q0 18 -1 37
q-20 224 -164 386q-137 154 -336 154h-20zM448 880h52q0 -48 24 -74t76 -26h352q56 4 78 26t22 74h52v-400h-52q0 44 -24 72t-76 28h-352q-52 0 -74 -26t-26 -74h-52v400z" />
    <glyph glyph-name="p" unicode="p" horiz-adv-x="1028" 
d="M20 0v52q68 0 94 18t26 62v1084q0 56 -26 72t-94 16v52h440q204 0 336 -70t132 -294q0 -204 -118 -284t-274 -80h-196v-496q0 -44 26 -62t94 -18v-52h-440zM340 728h176q116 0 162 64t46 224q0 148 -58 194t-194 46h-132v-528z" />
    <glyph glyph-name="q" unicode="q" horiz-adv-x="1556" 
d="M776 1356q279 0 479.5 -199t200.5 -473t-200.5 -479t-439.5 -205q132 0 240 -20t174 -38q22 -6 62 -6q79 0 228 24q-173 -96 -316 -96h-12q-148 4 -256 36q-108 36 -224 36t-280 -44q88 108 304 108q-246 0 -441 205t-195 479q0 283 195 477.5t481 194.5zM736 1256
q-180 -20 -316 -182q-122 -145 -122 -381q0 -28 2 -57q20 -220 158 -376t358 -160q216 16 332 172q109 146 109 407q0 18 -1 37q-20 224 -164 386q-137 154 -336 154h-20z" />
    <glyph glyph-name="r" unicode="r" horiz-adv-x="1224" 
d="M20 0v52q68 0 94 18t26 62v1084q0 56 -26 72t-94 16v52h440q204 0 336 -70t132 -294q0 -204 -104 -286q-99 -78 -170 -78h-6l172 -224l132 176h112l-188 -256l168 -200q40 -36 68 -52t88 -20v-52h-428v52q56 0 74 20q7 8 7 19q0 17 -17 41l-52 76l-148 -208h-96l184 272
l-276 356h-108v-496q0 -44 26 -62t94 -18v-52h-440zM340 728h176q116 0 162 64t46 224q0 148 -58 194t-194 46h-132v-528z" />
    <glyph glyph-name="s" unicode="s" horiz-adv-x="976" 
d="M152 0l-52 260h52q68 -96 142 -128t194 -32q88 0 138 62t50 186q0 108 -52 160t-172 96q-132 44 -218 146t-86 266q0 152 96 246t244 94q68 0 102 -12t86 -44q24 -14 38 -14q10 0 16 6q7 7 7 21q0 17 -9 43h60l44 -208h-56q-96 80 -134 94t-154 14q-68 0 -112 -62
t-44 -142q0 -92 54 -160t182 -120q92 -36 200 -124t108 -260q0 -188 -118 -288t-270 -100q-72 0 -116 8t-84 32q-29 19 -46 19q-9 0 -14 -5q-13 -11 -13 -39q0 -7 1 -15h-64z" />
    <glyph glyph-name="t" unicode="t" horiz-adv-x="1308" 
d="M432 0v52q68 0 94 18t26 62v1124h-280q-72 0 -112 -30t-68 -106h-60l84 236h1076l84 -236h-60q-28 76 -68 106t-116 30h-280v-1124q0 -44 26 -62t94 -18v-52h-440z" />
    <glyph glyph-name="u" unicode="u" 
d="M1188 1356v-52q-52 0 -74 -16t-46 -72l-456 -1216h-60l-412 1216q-16 56 -42 72t-78 16v52h440v-52q-68 0 -102 -16q-23 -11 -23 -40q0 -14 5 -32l300 -900l328 900q7 20 7 35q0 27 -23 37q-36 16 -104 16v52h340z" />
    <glyph glyph-name="v" unicode="v" 
d="M1188 1356v-52q-52 0 -74 -16t-46 -72l-456 -1216h-60l-412 1216q-16 56 -42 72t-78 16v52h440v-52q-68 0 -102 -16q-23 -11 -23 -40q0 -14 5 -32l300 -900l328 900q7 20 7 35q0 27 -23 37q-36 16 -104 16v52h340z" />
    <glyph glyph-name="w" unicode="w" horiz-adv-x="1868" 
d="M1848 1356v-52q-52 0 -74 -16t-46 -72l-456 -1216h-60l-268 784l-332 -784h-60l-412 1216q-16 56 -42 72t-78 16v52h440v-52q-68 0 -102 -16q-23 -11 -23 -40q0 -14 5 -32l300 -900l252 612l-92 288q-16 56 -42 72t-78 16v52h440v-52q-68 0 -102 -16q-23 -11 -23 -40
q0 -14 5 -32l300 -900l328 900q7 20 7 35q0 27 -23 37q-36 16 -104 16v52h340z" />
    <glyph glyph-name="x" unicode="x" 
d="M1188 1356v-52q-40 0 -62 -18t-58 -70l-388 -512l388 -572q32 -36 54 -58t66 -22v-52h-440v52q80 0 114 20q19 11 19 28q0 14 -13 32l-300 428l-328 -428q-14 -20 -14 -35t14 -25q28 -20 120 -20v-52h-340v52q44 0 64 20t56 60l376 500l-376 584q-32 52 -56 70t-64 18v52
h440v-52q-80 0 -114 -20q-19 -11 -19 -30q0 -16 13 -38l288 -440l340 440q17 21 17 37q0 17 -21 29q-40 22 -116 22v52h340z" />
    <glyph glyph-name="y" unicode="y" horiz-adv-x="1204" 
d="M1180 1356v-84q-44 0 -58 -20t-14 -64q0 -208 -112 -370t-292 -170v-516q0 -44 26 -62t94 -18v-52h-440v52q68 0 94 18t26 62v516q-204 16 -308 176t-104 364q1 8 1 15q0 32 -15 47q-18 18 -58 22v84h120q52 0 80 -40t32 -124q0 -196 62 -324t190 -128v476q0 44 -20 66
t-100 22v52h440v-52q-72 0 -96 -22t-24 -66v-476q108 0 172 138t72 310q0 76 24 122t88 46h120z" />
    <glyph glyph-name="z" unicode="z" horiz-adv-x="1376" 
d="M100 0v52l932 1204h-600q-108 0 -174 -58t-94 -166h-64l76 324h1100v-52l-948 -1204h616q108 0 174 58t94 166h64l-76 -324h-1100z" />
    <glyph glyph-name="_extra2" horiz-adv-x="1032" 
d="M60 396l108 -4q24 -72 66 -132t238 -96h8q135 0 236 136v124q-8 172 -54 224t-238 92h-352l96 616h584l20 -144l-72 -8q-12 40 -34 66t-62 30h-304l-64 -448l236 -4q120 0 218 -42t194 -326q0 -268 -86 -352t-330 -132q-208 4 -296 74t-112 326z" />
    <glyph glyph-name="_extra3" horiz-adv-x="900" 
d="M220 748q136 92 204 102q20 3 43 3q56 0 129 -17q80 -44 128 -134t48 -350q-8 -164 -80 -238t-276 -94q-25 -2 -48 -2q-150 0 -236 88q-100 102 -136 390q-1 27 -1 55q0 267 69 585q28 96 132 142t292 58q184 -20 242 -60t94 -148l-72 -28q-52 100 -116 120t-172 28
q-120 -32 -176 -134t-68 -366zM404 116h8q47 0 86 48q42 52 74 224q0 228 -38 260t-98 36h-7q-68 0 -121 -74q-56 -78 -56 -190v-16q0 -89 38 -180q42 -100 114 -108z" />
    <glyph glyph-name="_extra4" horiz-adv-x="1036" 
d="M136 1008h-108l136 348h804l-384 -1332l-304 -8l380 1156l-276 20q-60 0 -128 -28t-120 -156z" />
    <glyph glyph-name="_extra5" horiz-adv-x="980" 
d="M472 1312q132 0 190 -38t82 -174q-16 -92 -46 -158t-94 -146q52 -16 86 -56t102 -328q-8 -240 -118 -328q-105 -84 -260 -84h-14q-164 0 -272 70t-128 338q8 264 86 326t162 86q-68 24 -128 88t-76 228q0 108 110 148q85 31 227 31q43 0 91 -3zM420 892q60 0 102 46
t42 146q0 88 -36 124q-32 32 -107 32h-17q-76 -4 -104 -42t-32 -118q0 -60 40 -120t112 -68zM396 88q68 0 132 60t68 256q0 180 -40 236t-160 68h-8q-98 0 -140 -108q-40 -103 -40 -202v-18q8 -144 54 -212t134 -80z" />
    <glyph glyph-name="_extra6" horiz-adv-x="980" 
d="M236 20l16 92q64 4 150 72t124 176t42 324q-32 -44 -66 -68t-162 -44q-108 20 -206 116t-106 304q24 224 86 280t282 100q192 -16 272 -82t108 -258t32 -416q-24 -184 -46 -288t-140 -192t-386 -116zM368 792h10q49 0 124 38q82 42 86 158q0 104 -44 176t-160 76h-8
q-86 0 -128 -80q-44 -84 -44 -160q4 -96 42 -144t122 -64z" />
    <glyph glyph-name="_extra7" horiz-adv-x="956" 
d="M540 532q-28 -20 -60 -32t-68 -12q-68 12 -112 50t-48 162q16 128 72 168t184 56l100 -4l-36 -252q-5 -27 -5 -45q0 -13 3 -21q6 -18 50 -42q44 0 74 26t66 146q9 84 9 144q0 71 -13 108q-24 68 -96 98t-192 34q-108 -4 -206 -102t-130 -302q8 -256 74 -302t242 -58
q164 8 214 24t130 100l48 -36q-60 -84 -126 -126t-302 -62q-168 12 -278 100t-130 364q16 248 118 358t326 130q192 -12 306 -118t122 -266q-12 -140 -66 -216t-118 -98q-20 -7 -43 -7q-49 0 -109 33zM508 836q-52 0 -98 -22t-70 -110q0 -72 12 -90t56 -30q40 0 68 24t28 52
t4 176z" />
    <glyph glyph-name="_extra8" horiz-adv-x="724" 
d="M160 984l-96 12l328 360l252 -372l-148 -12l-120 244z" />
    <glyph glyph-name="_extra9" horiz-adv-x="552" 
d="M4 -140v104l516 4l-4 -84z" />
    <glyph glyph-name="_extra10" horiz-adv-x="432" 
d="M204 888l-152 316l192 -8l36 -280z" />
    <glyph glyph-name="_extra11" horiz-adv-x="980" 
d="M880 0h-240v32q-108 -32 -260 -32q-156 0 -218 50t-62 194q0 164 86 222t214 70l240 32v80q0 84 -42 128t-162 44q-108 0 -162 -14t-86 -54q44 -12 48 -64q-4 -56 -80 -60q-52 4 -56 72q4 72 52 116t122 64t198 20q152 0 234 -60t94 -180v-560q0 -24 20 -36t60 -12v-52z
M640 112v376l-260 -48q-56 -16 -88 -60t-32 -136q0 -72 38 -120q35 -44 110 -44h12q108 8 220 32z" />
    <glyph glyph-name="_extra12" horiz-adv-x="944" 
d="M20 0v52q40 0 60 12t20 36v1156q0 24 -20 36t-60 12v52h240v-516q72 36 120 48t140 12q144 0 234 -124t90 -316q0 -180 -84 -320t-244 -140q-148 0 -182 6t-74 18v-24h-240zM260 732v-584q72 -48 122 -58t118 -10q96 0 140 78t44 294q0 156 -48 262t-148 106
q-84 0 -120 -20t-108 -68z" />
  </font>
</defs>
</svg>
