<?xml version="1.0" standalone="no"?>
<!DOCTYPE svg PUBLIC "-//W3C//DTD SVG 1.1//EN" "http://www.w3.org/Graphics/SVG/1.1/DTD/svg11.dtd" >
<svg xmlns="http://www.w3.org/2000/svg" xmlns:xlink="http://www.w3.org/1999/xlink" version="1.1">
<metadata>
Created by FontForge 20170731 at Sat Jan 25 12:43:44 2014
 By Aleksey,,,
Copyright (c) 2014 by Yellow Design Studio. All rights reserved.
</metadata>
<defs>
<font id="GistUprightExtraboldDemo" horiz-adv-x="905" >
  <font-face 
    font-family="Gist Upright Extrabold Demo"
    font-weight="800"
    font-stretch="normal"
    units-per-em="1000"
    panose-1="2 6 9 4 2 2 0 0 0 3"
    ascent="800"
    descent="-200"
    x-height="555"
    cap-height="780"
    bbox="-223.032 -423 1579 1109"
    underline-thickness="50"
    underline-position="-200"
    unicode-range="U+0020-F0118"
  />
<missing-glyph horiz-adv-x="243" 
 />
    <glyph glyph-name="f_b" unicode="fb" horiz-adv-x="1078" 
d="M616 0h-224v60h163v141q24 -66 83 -108.5t131 -42.5q93 0 160 67t67 160q0 94 -67 160.5t-160 66.5q-73 0 -131.5 -42.5t-82.5 -109.5v389q-23 36 -72 61.5t-107 25.5q-92 0 -147 -67.5t-55 -196.5v-69h-159v60h99v9q0 153 73 238.5t189 85.5q80 0 146 -38.5t94 -93.5
v-236q71 45 153 45q119 0 203.5 -84.5t84.5 -203.5q0 -118 -84.5 -202.5t-203.5 -84.5q-84 0 -153 44v-34zM556 277q0 89 62 151t151 62t151 -62t62 -151t-62 -151t-151 -62t-151 62t-62 151zM435 555v-60h-247v69q0 122 52 186t136 64q54 0 98 -22t67 -55v-663h-149v61h89
v580q-42 38 -105 38q-59 0 -93.5 -46.5t-34.5 -142.5v-9h187zM3 -324q-94 0 -164 66.5t-61 161.5l60 -6q-6 -68 44 -114.5t121 -46.5q185 0 185 263v481h247v-61h-187v-420q0 -156 -63.5 -240t-181.5 -84zM617 277q0 -63 44.5 -107.5t107.5 -44.5q64 0 108.5 44.5
t44.5 107.5q0 64 -44.5 108.5t-108.5 44.5q-63 0 -107.5 -44.5t-44.5 -108.5zM-148 -104l61 -5q-4 -31 23.5 -55.5t66.5 -24.5q57 0 84 43.5t27 145.5v420h-99v61h159v-481q0 -249 -171 -249q-65 0 -111 42.5t-40 102.5z" />
    <glyph glyph-name="f_h" unicode="fh" horiz-adv-x="1063" 
d="M15 495v60h99v9q0 153 73 238.5t189 85.5q80 0 146 -38.5t94 -93.5v-229q68 38 137 38q38 0 74.5 -13t70 -40t54 -77t20.5 -115v-185h88v-61h-149v246q0 96 -46.5 140t-111.5 44q-52 0 -104 -27.5t-94 -74.5v339q-23 36 -72 61.5t-107 25.5q-92 0 -147 -67.5t-55 -196.5
v-69h-159zM435 555v-60h-247v69q0 122 52 186t136 64q54 0 98 -22t67 -55v-663h-149v61h89v580q-42 38 -105 38q-59 0 -93.5 -46.5t-34.5 -142.5v-9h187zM3 -324q-94 0 -164 66.5t-61 161.5l60 -6q-6 -68 44 -114.5t121 -46.5q185 0 185 263v481h247v-61h-187v-420
q0 -156 -63.5 -240t-181.5 -84zM704 135v-61h-149v305q88 111 198 111q61 0 102.5 -40t41.5 -130v-260h163v-60h-223v320q0 110 -84 110q-74 0 -137 -73v-222h88zM114 420h-99v61h159v-481q0 -249 -171 -249q-65 0 -111 42.5t-40 102.5l61 -5q-4 -31 23.5 -55.5t66.5 -24.5
q57 0 84 43.5t27 145.5v420zM392 0v60h312v-60h-312z" />
    <glyph glyph-name="f_h.alt2" unicode="f&#xe150;" horiz-adv-x="1034" 
d="M1012 -63q16 0 34 16l41 -44q-35 -32 -75 -32q-39 0 -70 28.5t-31 99.5v315q0 96 -46.5 140t-111.5 44q-52 0 -104 -27.5t-94 -74.5v339q-23 36 -72 61.5t-107 25.5q-92 0 -147 -67.5t-55 -196.5v-69h-159v60h99v9q0 153 73 238.5t189 85.5q80 0 146 -38.5t94 -93.5v-229
q68 38 137 38q38 0 74.5 -13t70 -40t54 -77t20.5 -115v-315q0 -68 40 -68zM435 555v-60h-247v69q0 122 52 186t136 64q54 0 98 -22t67 -55v-663h-149v61h89v580q-42 38 -105 38q-59 0 -93.5 -46.5t-34.5 -142.5v-9h187zM704 135v-61h-149v305q88 111 198 111q61 0 102.5 -40
t41.5 -130v-315q0 -77 36.5 -109.5t78.5 -32.5q46 0 85 36l41 -44q-26 -25 -61.5 -39t-64.5 -14q-25 0 -52 9t-56.5 29.5t-48 63.5t-18.5 101v315q0 110 -84 110q-74 0 -137 -73v-222h88zM3 -324q-94 0 -164 66.5t-61 161.5l60 -6q-6 -68 44 -114.5t121 -46.5q185 0 185 263
v481h247v-61h-187v-420q0 -156 -63.5 -240t-181.5 -84zM-148 -104l61 -5q-4 -31 23.5 -55.5t66.5 -24.5q57 0 84 43.5t27 145.5v420h-99v61h159v-481q0 -249 -171 -249q-65 0 -111 42.5t-40 102.5zM392 0v60h312v-60h-312z" />
    <glyph glyph-name="f_j" unicode="fj" horiz-adv-x="669" 
d="M3 -324q-95 0 -164.5 66.5t-60.5 161.5l60 -6q-6 -68 44 -114.5t121 -46.5q185 0 185 263v481h333v-539q0 -92 -37 -137.5t-102 -45.5q-50 0 -86 36l42 42q22 -18 44 -18q79 0 79 123v478h-213v-420q0 -156 -63.5 -240t-181.5 -84zM382 -315q-83 0 -138 58l42 42
q38 -40 96 -40q71 0 112 49.5t41 147.5v553h-347v32q0 285 184 285q70 0 119.5 -48.5t43.5 -118.5l-60 5q4 40 -27.5 71t-75.5 31q-59 0 -89.5 -46.5t-34.5 -150.5h348v-613q0 -120 -59.5 -188.5t-154.5 -68.5zM15 420v61h159v-481q0 -249 -171 -249q-65 0 -111 42.5
t-40 102.5l61 -5q-4 -31 23.5 -55.5t66.5 -24.5q56 0 83.5 43.5t27.5 145.5v420h-99zM15 495v60h99q5 160 72 246t186 86q100 0 173 -72t65 -176l-61 5q6 76 -48 129t-129 53q-96 0 -147 -75t-51 -224v-32h-159z" />
    <glyph glyph-name="f_k" unicode="fk" horiz-adv-x="1028" 
d="M15 495v60h99v9q0 153 73 238.5t189 85.5q80 0 146 -38.5t94 -93.5v-235q79 45 154 45q84 0 138 -55t54 -130q0 -117 -118 -183l50 -63h124v-61h-154l-116 148q77 25 115.5 68t38.5 91q0 51 -37 88t-95 37q-45 0 -103 -26t-112 -81v342q-23 36 -72 61.5t-107 25.5
q-92 0 -147 -67.5t-55 -196.5v-69h-159zM435 555v-60h-247v69q0 122 52 186t136 64q54 0 98 -22t67 -55v-663h-149v61h89v580q-42 38 -105 38q-59 0 -93.5 -46.5t-34.5 -142.5v-9h187zM3 -324q-94 0 -164 66.5t-61 161.5l60 -6q-6 -68 44 -114.5t121 -46.5q185 0 185 263
v481h247v-61h-187v-420q0 -156 -63.5 -240t-181.5 -84zM15 420v61h159v-481q0 -249 -171 -249q-65 0 -111 42.5t-40 102.5l61 -5q-4 -31 23.5 -55.5t66.5 -24.5q57 0 84 43.5t27 145.5v420h-99zM690 135v-61h-135v305q54 59 111.5 86t103.5 27q53 0 85.5 -32.5t32.5 -78.5
t-37.5 -85.5t-116.5 -62.5l-17 58q58 17 84 41t26 49q0 22 -15 36t-42 14q-75 0 -154 -75v-221h74zM829 0l-145 184l46 38l129 -162h159v-60h-189zM690 0h-298v60h298v-60z" />
    <glyph glyph-name="f_k.alt2" unicode="f&#xe151;" horiz-adv-x="983" 
d="M15 495v60h99v9q0 153 73 238.5t189 85.5q80 0 146 -38.5t94 -93.5v-235q79 45 154 45q84 0 138 -55t54 -130q0 -123 -132 -191l84 -169q22 -45 46.5 -64.5t57.5 -19.5q28 0 49 18l39 -46q-36 -32 -88 -32q-98 0 -157 117l-115 227q78 26 117 69t39 91q0 51 -37 88
t-95 37q-45 0 -103 -26t-112 -81v342q-23 36 -72 61.5t-107 25.5q-92 0 -147 -67.5t-55 -196.5v-69h-159zM435 555v-60h-247v69q0 122 52 186t136 64q54 0 98 -22t67 -55v-663h-149v61h89v580q-42 38 -105 38q-59 0 -93.5 -46.5t-34.5 -142.5v-9h187zM3 -324
q-94 0 -164 66.5t-61 161.5l60 -6q-6 -68 44 -114.5t121 -46.5q185 0 185 263v481h247v-61h-187v-420q0 -156 -63.5 -240t-181.5 -84zM15 420v61h159v-481q0 -249 -171 -249q-65 0 -111 42.5t-40 102.5l61 -5q-4 -31 23.5 -55.5t66.5 -24.5q57 0 84 43.5t27 145.5v420h-99z
M690 135v-61h-135v305q54 59 111.5 86t103.5 27q53 0 85.5 -32.5t32.5 -78.5t-37.5 -85.5t-116.5 -62.5l-17 58q58 17 84 41t26 49q0 22 -15 36t-42 14q-75 0 -154 -75v-221h74zM794 -39l-118 235l54 27l119 -235q63 -125 169 -125q55 0 98 36l39 -45q-28 -24 -67 -37.5
t-70 -13.5q-145 0 -224 158zM690 0h-298v60h298v-60z" />
    <glyph glyph-name="f_t" unicode="ft" horiz-adv-x="824" 
d="M750 245l59 9q18 -116 -34.5 -190t-144.5 -74q-31 0 -61 11t-59.5 34.5t-47.5 68t-19 103.5v213h-195v-420q0 -156 -63.5 -240t-181.5 -84q-95 0 -164.5 66.5t-60.5 161.5l60 -6q-6 -68 44 -114.5t121 -46.5q185 0 185 263v481h316v-274q1 -82 39 -119.5t87 -37.5
q62 0 97 54t23 141zM15 420v61h159v-481q0 -249 -171 -249q-65 0 -111 42.5t-40 102.5l61 -5q-4 -31 23.5 -55.5t66.5 -24.5q56 0 83.5 43.5t27.5 145.5v420h-99zM443 555v148l61 25v-233h-316v80q0 249 171 249q39 0 77 -19l-30 -54q-21 13 -47 13q-56 0 -83.5 -43.5
t-27.5 -145.5v-20h195zM630 125q28 0 41 27.5t6 81.5l59 9q12 -81 -19.5 -130t-86.5 -49q-45 0 -78 33.5t-34 109.5v274h244v-61h-184v-211q1 -84 52 -84zM472 871l-30 -54q-36 21 -83 21q-185 0 -185 -263v-80h-159v60h99v20q0 156 63.5 240t181.5 84q57 0 113 -28z
M762 555v-60h-244v239l60 25v-204h184z" />
    <glyph glyph-name="f_f_b" unicode="ffb" horiz-adv-x="1444" 
d="M15 495v60h101q12 143 86 221t185 78q91 0 167 -51q71 85 189 85q80 0 146 -38.5t93 -93.5v-236q71 45 154 45q119 0 203.5 -84.5t84.5 -203.5q0 -118 -84.5 -202.5t-203.5 -84.5q-86 0 -154 45v-35h-223v60h163v141q24 -66 83 -108.5t131 -42.5q93 0 160 67t67 160
q0 94 -67 160.5t-160 66.5q-73 0 -131.5 -42.5t-82.5 -109.5v389q-24 36 -72.5 61.5t-106.5 25.5q-127 0 -177 -117q-28 35 -76 58.5t-103 23.5q-97 0 -155 -74t-58 -218v-6h-159zM923 277q0 89 62 151t151 62t151 -62t62 -151t-62.5 -151t-150.5 -62t-150.5 62t-62.5 151z
M3 -324q-94 0 -164 66.5t-61 161.5l60 -6q-6 -68 44 -114.5t121 -46.5q185 0 185 263v481h352v-481q0 -249 -170 -249q-57 0 -104 36l39 47q29 -23 65 -23q56 0 83 43.5t27 145.5v420h-232v-420q0 -156 -63.5 -240t-181.5 -84zM801 555v-60h-247v69q0 122 52 186t137 64
q53 0 97 -22t68 -55v-663h-149v61h88v580q-40 38 -104 38q-59 0 -93.5 -46.5t-34.5 -142.5v-9h186zM387 779q56 0 102 -24t71 -60q-20 -55 -20 -131v-69h-352v6q0 136 55 207t144 71zM219 -269l39 46q46 -40 112 -40q184 0 184 263v481h247v-61h-186v-420
q0 -155 -63.5 -239.5t-181.5 -84.5q-40 0 -81.5 15t-69.5 40zM984 277q0 -63 44.5 -107.5t107.5 -44.5q64 0 108.5 44.5t44.5 107.5q0 64 -44.5 108.5t-108.5 44.5q-63 0 -107.5 -44.5t-44.5 -108.5zM114 420h-99v61h159v-481q0 -249 -171 -249q-65 0 -111 42.5t-40 102.5
l61 -5q-4 -31 23.5 -55.5t66.5 -24.5q57 0 84 43.5t27 145.5v420zM387 719q-55 0 -91.5 -40.5t-45.5 -123.5h230v9q0 59 13 116q-43 39 -106 39z" />
    <glyph glyph-name="f_f_h" unicode="ffh" horiz-adv-x="1429" 
d="M1427 135v-61h-149v246q0 96 -46.5 140t-111.5 44q-53 0 -105 -27.5t-93 -74.5v339q-24 36 -72.5 61.5t-106.5 25.5q-127 0 -177 -117q-28 35 -76 58.5t-103 23.5q-97 0 -155 -74t-58 -218v-6h-159v60h101q12 143 86 221t185 78q91 0 167 -51q71 85 189 85
q80 0 146 -38.5t93 -93.5v-229q68 38 138 38q38 0 74.5 -13t69.5 -40t53.5 -77t20.5 -115v-185h89zM3 -324q-94 0 -164 66.5t-61 161.5l60 -6q-6 -68 44 -114.5t121 -46.5q185 0 185 263v481h352v-481q0 -249 -170 -249q-57 0 -104 36l39 47q29 -23 65 -23q56 0 83 43.5
t27 145.5v420h-232v-420q0 -156 -63.5 -240t-181.5 -84zM801 555v-60h-247v69q0 122 52 186t137 64q53 0 97 -22t68 -55v-663h-149v61h88v580q-40 38 -104 38q-59 0 -93.5 -46.5t-34.5 -142.5v-9h186zM540 564v-69h-352v6q0 136 55 207t144 71q56 0 102 -24t71 -60
q-20 -55 -20 -131zM1071 135v-61h-149v305q40 51 92 81t106 30q61 0 102.5 -40t41.5 -130v-260h163v-60h-224v320q0 110 -83 110q-73 0 -138 -73v-222h89zM370 -324q-40 0 -81.5 15t-69.5 40l39 46q46 -40 112 -40q184 0 184 263v481h247v-61h-186v-420q0 -155 -63.5 -239.5
t-181.5 -84.5zM-148 -104l61 -5q-4 -31 23.5 -55.5t66.5 -24.5q57 0 84 43.5t27 145.5v420h-99v61h159v-481q0 -249 -171 -249q-65 0 -111 42.5t-40 102.5zM480 564q0 59 13 116q-43 39 -106 39q-55 0 -91.5 -40.5t-45.5 -123.5h230v9zM759 0v60h312v-60h-312z" />
    <glyph glyph-name="f_f_h.alt2" unicode="ff&#xe150;" horiz-adv-x="1400" 
d="M1378 -63q16 0 34 16l41 -44q-35 -32 -75 -32q-39 0 -70 28.5t-31 99.5v315q0 96 -46.5 140t-110.5 44q-53 0 -105 -27.5t-93 -74.5v339q-24 36 -72.5 61.5t-106.5 25.5q-127 0 -177 -117q-28 35 -76 58.5t-103 23.5q-97 0 -155 -74t-58 -218v-6h-159v60h101
q12 143 86 221t185 78q91 0 167 -51q71 85 189 85q80 0 146 -38.5t93 -93.5v-229q68 38 138 38q38 0 74.5 -13t69.5 -40t53.5 -77t20.5 -115v-315q0 -68 40 -68zM3 -324q-94 0 -164 66.5t-61 161.5l60 -6q-6 -68 44 -114.5t121 -46.5q185 0 185 263v481h352v-481
q0 -249 -170 -249q-57 0 -104 36l39 47q29 -23 65 -23q56 0 83 43.5t27 145.5v420h-232v-420q0 -156 -63.5 -240t-181.5 -84zM801 555v-60h-247v69q0 122 52 186t137 64q53 0 97 -22t68 -55v-663h-149v61h88v580q-40 38 -104 38q-59 0 -93.5 -46.5t-34.5 -142.5v-9h186z
M540 564v-69h-352v6q0 136 55 207t144 71q56 0 102 -24t71 -60q-20 -55 -20 -131zM1071 135v-61h-149v305q40 51 92 81t106 30q61 0 102 -40t41 -130v-315q0 -77 36.5 -109.5t78.5 -32.5q46 0 85 36l41 -44q-26 -25 -61.5 -39t-64.5 -14q-25 0 -52 9t-56.5 29.5t-48 63.5
t-18.5 101v315q0 110 -83 110q-73 0 -138 -73v-222h89zM370 -324q-40 0 -81.5 15t-69.5 40l39 46q46 -40 112 -40q184 0 184 263v481h247v-61h-186v-420q0 -155 -63.5 -239.5t-181.5 -84.5zM-148 -104l61 -5q-4 -31 23.5 -55.5t66.5 -24.5q57 0 84 43.5t27 145.5v420h-99v61
h159v-481q0 -249 -171 -249q-65 0 -111 42.5t-40 102.5zM480 564q0 59 13 116q-43 39 -106 39q-55 0 -91.5 -40.5t-45.5 -123.5h230v9zM759 0v60h312v-60h-312z" />
    <glyph glyph-name="f_f_j" unicode="ffj" horiz-adv-x="1035" 
d="M266 -213l39 47q29 -23 65 -23q56 0 83 43.5t27 145.5v420h-232v-420q0 -156 -63.5 -240t-181.5 -84q-94 0 -164 66.5t-61 161.5l60 -6q-6 -68 44 -114.5t121 -46.5q185 0 185 263v481h352v-481q0 -249 -170 -249q-57 0 -104 36zM219 -269l39 46q46 -40 112 -40
q184 0 184 263v481h334v-539q0 -92 -37.5 -137.5t-102.5 -45.5q-48 0 -86 36l42 42q23 -18 44 -18q79 0 79 123v478h-212v-420q0 -155 -63.5 -239.5t-181.5 -84.5q-40 0 -81.5 15t-69.5 40zM748 -315q-82 0 -138 58l42 42q40 -40 96 -40q71 0 112.5 50t41.5 147v553h-348v32
q0 285 185 285q70 0 119.5 -48.5t43.5 -118.5l-61 5q4 40 -27 71t-75 31q-59 0 -89.5 -46.5t-34.5 -150.5h347v-613q0 -120 -59.5 -188.5t-154.5 -68.5zM389 779q57 0 103 -24.5t71 -62.5q-23 -67 -23 -165v-32h-352v5q0 136 55.5 207.5t145.5 71.5zM976 639l-60 5
q6 76 -48 129t-129 53q-122 0 -170 -117q-28 37 -75.5 60.5t-104.5 23.5q-98 0 -156.5 -74.5t-58.5 -218.5v-5h-159v60h101q13 142 87.5 220.5t185.5 78.5q92 0 165 -50q66 83 185 83q100 0 172.5 -72t64.5 -176zM15 420v61h159v-481q0 -249 -171 -249q-65 0 -111 42.5
t-40 102.5l61 -5q-4 -31 23.5 -55.5t66.5 -24.5q57 0 84 43.5t27 145.5v420h-99zM389 719q-56 0 -93 -41t-46 -123h230q3 70 16 123q-43 41 -107 41z" />
    <glyph glyph-name="f_f_k" unicode="ffk" horiz-adv-x="1394" 
d="M1384 135v-61h-153l-116 148q77 25 115 68t38 91q0 51 -37 88t-94 37q-45 0 -103 -25.5t-112 -80.5v341q-24 36 -72.5 61.5t-106.5 25.5q-127 0 -177 -117q-28 35 -76 58.5t-103 23.5q-97 0 -155 -74t-58 -218v-6h-159v60h101q12 143 86 221t185 78q91 0 167 -51
q71 85 189 85q80 0 146 -38.5t93 -93.5v-235q79 45 155 45q83 0 137.5 -55t54.5 -130q0 -116 -119 -183l50 -63h124zM3 -324q-94 0 -164 66.5t-61 161.5l60 -6q-6 -68 44 -114.5t121 -46.5q185 0 185 263v481h352v-481q0 -249 -170 -249q-57 0 -104 36l39 47q29 -23 65 -23
q56 0 83 43.5t27 145.5v420h-232v-420q0 -156 -63.5 -240t-181.5 -84zM801 555v-60h-247v69q0 122 52 186t137 64q53 0 97 -22t68 -55v-663h-149v61h88v580q-40 38 -104 38q-59 0 -93.5 -46.5t-34.5 -142.5v-9h186zM540 564v-69h-352v6q0 136 55 207t144 71q56 0 102 -24
t71 -60q-20 -55 -20 -131zM370 -324q-40 0 -81.5 15t-69.5 40l39 46q46 -40 112 -40q184 0 184 263v481h247v-61h-186v-420q0 -155 -63.5 -239.5t-181.5 -84.5zM-148 -104l61 -5q-4 -31 23.5 -55.5t66.5 -24.5q57 0 84 43.5t27 145.5v420h-99v61h159v-481q0 -249 -171 -249
q-65 0 -111 42.5t-40 102.5zM1057 135v-61h-135v306q55 59 112 85.5t103 26.5q52 0 84.5 -32.5t32.5 -78.5t-37 -85.5t-116 -62.5l-17 58q110 33 110 90q0 22 -15.5 36t-41.5 14q-74 0 -155 -76v-220h75zM480 564q0 59 13 116q-43 39 -106 39q-55 0 -91.5 -40.5
t-45.5 -123.5h230v9zM1196 0l-146 184l47 38l128 -162h159v-60h-188zM1057 0h-298v60h298v-60z" />
    <glyph glyph-name="f_f_k.alt2" unicode="ff&#xe151;" horiz-adv-x="1349" 
d="M1385 -63q27 0 49 18l38 -46q-36 -32 -87 -32q-99 0 -158 117l-114 227q78 26 116.5 69t38.5 91q0 51 -37 88t-94 37q-45 0 -103 -25.5t-112 -80.5v341q-24 36 -72.5 61.5t-106.5 25.5q-127 0 -177 -117q-28 35 -76 58.5t-103 23.5q-97 0 -155 -74t-58 -218v-6h-159v60
h101q12 143 86 221t185 78q91 0 167 -51q71 85 189 85q80 0 146 -38.5t93 -93.5v-235q79 45 155 45q83 0 137.5 -55t54.5 -130q0 -123 -133 -191l85 -169q22 -45 46.5 -64.5t57.5 -19.5zM3 -324q-94 0 -164 66.5t-61 161.5l60 -6q-6 -68 44 -114.5t121 -46.5q185 0 185 263
v481h352v-481q0 -249 -170 -249q-57 0 -104 36l39 47q29 -23 65 -23q56 0 83 43.5t27 145.5v420h-232v-420q0 -156 -63.5 -240t-181.5 -84zM801 555v-60h-247v69q0 122 52 186t137 64q53 0 97 -22t68 -55v-663h-149v61h88v580q-40 38 -104 38q-59 0 -93.5 -46.5
t-34.5 -142.5v-9h186zM540 564v-69h-352v6q0 136 55 207t144 71q56 0 102 -24t71 -60q-20 -55 -20 -131zM370 -324q-40 0 -81.5 15t-69.5 40l39 46q46 -40 112 -40q184 0 184 263v481h247v-61h-186v-420q0 -155 -63.5 -239.5t-181.5 -84.5zM-148 -104l61 -5
q-4 -31 23.5 -55.5t66.5 -24.5q57 0 84 43.5t27 145.5v420h-99v61h159v-481q0 -249 -171 -249q-65 0 -111 42.5t-40 102.5zM1057 135v-61h-135v306q55 59 112 85.5t103 26.5q52 0 84.5 -32.5t32.5 -78.5t-37 -85.5t-116 -62.5l-17 58q110 33 110 90q0 22 -15.5 36t-41.5 14
q-74 0 -155 -76v-220h75zM1160 -39l-118 235l55 27l118 -235q63 -125 170 -125q52 0 97 36l39 -45q-27 -24 -66 -37.5t-70 -13.5q-146 0 -225 158zM480 564q0 59 13 116q-43 39 -106 39q-55 0 -91.5 -40.5t-45.5 -123.5h230v9zM1057 0h-298v60h298v-60z" />
    <glyph glyph-name="f_f_t" unicode="fft" horiz-adv-x="1188" 
d="M3 -324q-94 0 -164 66.5t-61 161.5l60 -6q-6 -68 44 -114.5t121 -46.5q185 0 185 263v481h352v-481q0 -249 -170 -249q-57 0 -104 36l39 47q29 -23 65 -23q56 0 83 43.5t27 145.5v420h-232v-420q0 -156 -63.5 -240t-181.5 -84zM370 -324q-40 0 -81.5 15t-69.5 40l39 46
q46 -40 112 -40q184 0 184 263v481h316v-274q1 -82 39.5 -119.5t87.5 -37.5q61 0 96.5 54t22.5 141l59 9q18 -116 -34 -190t-144 -74q-31 0 -61.5 11t-59.5 34.5t-47 68t-19 103.5v213h-195v-420q0 -155 -63.5 -239.5t-181.5 -84.5zM540 575v-80h-352v6q0 136 55 207t144 71
q53 0 97.5 -21.5t70.5 -55.5q-15 -54 -15 -127zM-148 -104l61 -5q-4 -31 23.5 -55.5t66.5 -24.5q57 0 84 43.5t27 145.5v420h-99v61h159v-481q0 -249 -171 -249q-65 0 -111 42.5t-40 102.5zM838 871l-30 -54q-36 21 -83 21q-125 0 -165 -119q-67 74 -173 74q-97 0 -155 -74
t-58 -218v-6h-159v60h101q12 143 86 221t185 78q83 0 154 -43q63 88 184 88q57 0 113 -28zM810 555v148l60 25v-233h-316v80q0 249 171 249q39 0 77 -19l-29 -54q-22 13 -48 13q-56 0 -83 -43.5t-27 -145.5v-20h195zM1043 234l59 9q12 -81 -19 -130t-86 -49
q-45 0 -78.5 33.5t-34.5 109.5v274h244v-61h-183v-211q0 -84 52 -84q27 0 40.5 27.5t5.5 81.5zM480 575q0 59 9 108q-41 36 -102 36q-55 0 -91.5 -40.5t-45.5 -123.5h230v20zM1128 555v-60h-244v239l61 25v-204h183z" />
    <glyph glyph-name="l_s" unicode="ls" horiz-adv-x="824" 
d="M-16 669v61h149v-537q0 -77 36.5 -110t77.5 -33q67 0 116 84l6 11q119 -95 216 -95q66 0 106.5 43t40.5 101q0 40 -22 81.5t-48.5 68t-60.5 59t-45 46.5q-68 85 13 163l43 -43q-42 -39 -9 -82q8 -10 43.5 -44t65.5 -65t55.5 -82.5t25.5 -101.5q0 -82 -57.5 -143
t-150.5 -61t-202 70q-62 -70 -136 -70q-25 0 -52 9t-56.5 29.5t-48 63t-18.5 101.5v476h-88zM-16 744v60h223v-611q0 -68 40 -68q23 0 52 47l167 284q-23 51 -10 107.5t61 102.5l42 -44q-40 -38 -45.5 -83.5t21.5 -85.5l-184 -312q-47 -77 -104 -77q-38 0 -69 29t-31 100
v551h-163zM585 64q-90 0 -209 93l168 284q12 -15 46 -47.5t59.5 -58.5t47 -65t21.5 -76q0 -54 -36 -92t-97 -38zM658 194q0 24 -18 53t-34 45t-51 50l-98 -169q74 -48 128 -48q34 0 53.5 19.5t19.5 49.5z" />
    <glyph glyph-name="l_s.alt3" unicode="l&#xe183;" horiz-adv-x="1181" 
d="M477 91l-26 16l30 51l31 -19q32 -14 72 -14q36 0 55 19.5t19 49.5q0 24 -18 53t-34 45t-51 50l-139 -239q-13 -22 -31 -43.5t-57 -45.5t-81 -24q-25 0 -52 9t-56.5 29.5t-48 63t-18.5 101.5v476h-88v61h149v-537q0 -77 36.5 -110t77.5 -33q67 0 116 84l181 307
q12 -15 46 -47.5t59.5 -58.5t47 -65t21.5 -76q0 -54 -36 -92t-98 -38t-107 27zM466 456q-23 51 -10 107.5t61 102.5l42 -44q-40 -38 -45.5 -83.5t21.5 -85.5l-184 -312q-47 -77 -104 -77q-38 0 -69 29t-31 100v551h-163v60h223v-611q0 -68 40 -68q23 0 52 47zM890 226
l-10 59q96 17 160 -38t64 -133q0 -30 -10 -60t-32 -60t-66 -49t-103 -19q-82 0 -167 34t-189 95q25 -5 47 -5q68 0 108 42.5t40 101.5q0 40 -22 81.5t-48.5 68t-60.5 59t-45 46.5q-68 85 13 163l43 -43q-42 -39 -9 -82q8 -10 43.5 -44t65.5 -65t55.5 -82.5t25.5 -101.5
q0 -48 -21.5 -92t-60.5 -73q101 -43 182 -43q80 0 115 39t35 89q0 53 -43 88.5t-110 23.5zM893 -149q-58 0 -118 14.5t-126 46.5t-105 53.5t-107 62.5q-17 10 -25 15l31 52l31 -19q81 -50 136 -79.5t135.5 -57t147.5 -27.5q51 0 91.5 14t64.5 36t40.5 50t22.5 53t6 49
q0 86 -68 145t-173 40l-11 59q133 24 222.5 -55t89.5 -189q0 -30 -7.5 -62.5t-28 -69t-51.5 -65t-82.5 -47.5t-115.5 -19z" />
    <glyph glyph-name="F_i.cswh" unicode="&#xe006;i" horiz-adv-x="1070" 
d="M685 445v-61h-302v334l64 -11q147 -27 243 -27q105 0 148 50.5t31 129.5l59 9q15 -103 -45.5 -176t-192.5 -73q-89 0 -247 25v-200h242zM130 594l-60 3q1 59 40 101t114 42q39 0 145 -19v-647h-151v61h90v535q-50 9 -84 9q-46 0 -69.5 -23.5t-24.5 -61.5zM690 755
q64 0 88.5 24.5t17.5 70.5l59 8q11 -73 -29 -118.5t-136 -45.5q-94 0 -241 27q-18 3 -61 11t-64 11.5t-50.5 7t-49.5 3.5q-81 0 -124 -47.5t-44 -109.5l-61 2q3 83 61.5 149t167.5 66q23 0 55 -3.5t52.5 -7t67.5 -12.5t61 -11q134 -25 230 -25zM1055 135v-61h-149v421h-163
v60h223v-420h89zM685 370v-60h-242v-175h90v-61h-150v296h302zM743 74v61h88v285h-88v61h149v-407h-149zM218 0v60h315v-60h-315zM743 0v60h312v-60h-312z" />
    <glyph glyph-name="F_j.cswh" unicode="&#xe006;j" horiz-adv-x="1039" 
d="M742 495v60h224v-613q0 -120 -59.5 -188.5t-154.5 -68.5q-82 0 -139.5 58.5t-57.5 140.5q0 19 4 39l60 -13q-3 -12 -3 -26q0 -57 40 -98t96 -41q71 0 112 49.5t41 147.5v553h-163zM684 445v-61h-302v334l64 -11q147 -27 244 -27q105 0 148 50.5t31 129.5l59 9
q15 -103 -45.5 -176t-192.5 -73q-91 0 -247 25v-200h241zM130 594l-61 3q2 59 40.5 101t113.5 42q39 0 145 -19v-647h-150v61h90v535q-50 9 -85 9q-46 0 -69.5 -24t-23.5 -61zM742 420v61h149v-539q0 -92 -37 -137.5t-102 -45.5q-51 0 -86.5 36.5t-35.5 88.5q0 6 3 24
l59 -12q-2 -10 -2 -12q0 -27 18 -46t44 -19q79 0 79 123v478h-89zM690 755q64 0 88.5 24.5t16.5 70.5l60 8q11 -73 -29 -118.5t-136 -45.5q-95 0 -242 27q-19 3 -61 11t-63.5 11.5t-50.5 7t-50 3.5q-80 0 -123 -47.5t-45 -109.5l-60 2q2 83 60.5 149t167.5 66q23 0 55.5 -4
t52 -7t68.5 -12t61 -11q134 -25 230 -25zM684 370v-60h-241v-175h89v-61h-150v296h302zM218 0v60h314v-60h-314z" />
    <glyph glyph-name="F_l.cswh" unicode="&#xe006;l" horiz-adv-x="1054" 
d="M686 445v-61h-302v334l64 -11q147 -27 243 -27q97 0 144 47v-534q0 -77 36.5 -110t77.5 -33q48 0 86 37l41 -45q-57 -52 -127 -52q-25 0 -52 9t-56 29.5t-47.5 63t-18.5 101.5v436q-37 -9 -84 -9q-89 0 -247 25v-200h242zM131 594l-60 3q1 59 40 101t114 42q39 0 145 -19
v-647h-150v61h89v535q-49 9 -84 9q-46 0 -69.5 -23.5t-24.5 -61.5zM797 850l59 8q11 -73 -29 -118.5t-136 -45.5q-94 0 -241 27q-18 3 -61 11t-64 11.5t-50.5 7t-49.5 3.5q-81 0 -124 -47.5t-44 -109.5l-60 2q2 83 60.5 149t167.5 66q23 0 56 -4t51 -7t69 -12t60 -11
q134 -25 230 -25q65 0 89 24.5t17 70.5zM949 125q18 0 35 16l41 -44q-34 -33 -76 -33q-38 0 -69 29t-31 100v551q31 45 21 116l59 9q11 -78 -20 -139v-537q0 -68 40 -68zM686 370v-60h-242v-175h90v-61h-150v296h302zM534 0h-314v60h314v-60z" />
    <glyph glyph-name="F_i.swsh" unicode="&#xe105;i" horiz-adv-x="1219" 
d="M293 507q28 0 61 15l26 -54q-45 -21 -87 -21q-67 0 -108 42t-41 106q0 61 43.5 106t129.5 45q62 0 200 -25v-483q0 -126 -62.5 -194.5t-153.5 -68.5q-85 0 -142.5 56.5t-57.5 138.5q0 83 72 144l38 -48q-49 -38 -49 -96q0 -57 39.5 -96t99.5 -39q67 0 111.5 51.5
t44.5 151.5v432q-85 15 -140 15q-57 0 -85 -26t-28 -64q0 -40 23.5 -64t65.5 -24zM386 456l26 -55q-58 -28 -119 -28q-98 0 -161 64t-63 158q0 88 63.5 156.5t184.5 68.5q82 0 293 -40q134 -25 231 -25q63 0 87 24.5t17 70.5l59 8q11 -72 -28.5 -118t-134.5 -46
q-97 0 -242 27q-18 3 -59 10.5t-62 11t-53 8.5t-58 7t-50 2q-92 0 -139.5 -50t-47.5 -115q0 -69 45.5 -115.5t117.5 -46.5q47 0 93 23zM27 170q0 121 100 202l38 -48q-78 -62 -78 -154q0 -86 62.5 -147.5t151.5 -61.5q96 0 163 73t67 204v132h302v-60h-241v-72
q0 -157 -85.5 -247.5t-205.5 -90.5q-115 0 -194.5 79t-79.5 191zM833 445v-61h-302v335l66 -12q145 -27 244 -27q104 0 146.5 50.5t30.5 129.5l59 9q10 -66 -10.5 -121t-78.5 -91.5t-147 -36.5q-99 0 -249 26v-201h241zM1204 135v-61h-149v421h-163v60h223v-420h89zM892 74
v61h88v285h-88v61h149v-407h-149zM892 0v60h312v-60h-312z" />
    <glyph glyph-name="F_j.swsh" unicode="&#xe105;j" horiz-adv-x="1188" 
d="M293 507q28 0 61 15l26 -54q-45 -21 -87 -21q-67 0 -108 42t-41 106q0 61 43.5 106t129.5 45q62 0 200 -25v-483q0 -126 -62.5 -194.5t-153.5 -68.5q-85 0 -142.5 56.5t-57.5 138.5q0 83 72 144l38 -48q-49 -38 -49 -96q0 -57 39.5 -96t99.5 -39q67 0 111.5 51.5
t44.5 151.5v432q-85 15 -140 15q-57 0 -85 -26t-28 -64q0 -40 23.5 -64t65.5 -24zM386 456l26 -55q-58 -28 -119 -28q-98 0 -161 64t-63 158q0 88 63.5 156.5t184.5 68.5q82 0 293 -40q134 -25 231 -25q63 0 87 24.5t17 70.5l59 8q11 -72 -28.5 -118t-134.5 -46
q-97 0 -242 27q-18 3 -59 10.5t-62 11t-53 8.5t-58 7t-50 2q-92 0 -139.5 -50t-47.5 -115q0 -69 45.5 -115.5t117.5 -46.5q47 0 93 23zM27 170q0 121 100 202l38 -48q-78 -62 -78 -154q0 -86 62.5 -147.5t151.5 -61.5q96 0 163 73t67 204v132h302v-60h-241v-72
q0 -157 -85.5 -247.5t-205.5 -90.5q-115 0 -194.5 79t-79.5 191zM891 495v60h224v-613q0 -120 -59.5 -188.5t-154.5 -68.5q-82 0 -139.5 58.5t-57.5 140.5q0 19 4 39l60 -13q-3 -12 -3 -26q0 -57 40 -98t96 -41q71 0 112 49.5t41 147.5v553h-163zM833 445v-61h-302v335
l66 -12q145 -27 244 -27q104 0 146.5 50.5t30.5 129.5l59 9q10 -66 -10.5 -121t-78.5 -91.5t-147 -36.5q-99 0 -249 26v-201h241zM891 420v61h149v-539q0 -92 -37 -137.5t-102 -45.5q-51 0 -86.5 36.5t-35.5 88.5q0 6 3 24l59 -12q-2 -10 -2 -12q0 -27 18 -46t44 -19
q79 0 79 123v478h-89z" />
    <glyph glyph-name="F_l.swsh" unicode="&#xe105;l" horiz-adv-x="1202" 
d="M293 507q28 0 61 15l26 -54q-45 -21 -87 -21q-67 0 -108 42t-41 106q0 61 43.5 106t129.5 45q62 0 200 -25v-483q0 -126 -62.5 -194.5t-153.5 -68.5q-85 0 -142.5 56.5t-57.5 138.5q0 83 72 144l38 -48q-49 -38 -49 -96q0 -57 39.5 -96t99.5 -39q67 0 111.5 51.5
t44.5 151.5v432q-85 15 -140 15q-57 0 -85 -26t-28 -64q0 -40 23.5 -64t65.5 -24zM833 445v-61h-302v335l66 -12q145 -27 244 -27q95 0 141 46v-533q0 -77 37 -110t78 -33q47 0 85 37l42 -45q-58 -52 -127 -52q-25 0 -52 9t-56.5 29.5t-48 63t-18.5 101.5v436q-36 -9 -81 -9
q-99 0 -249 26v-201h241zM386 456l26 -55q-58 -28 -119 -28q-98 0 -161 64t-63 158q0 88 63.5 156.5t184.5 68.5q82 0 293 -40q134 -25 231 -25q63 0 87 24.5t17 70.5l59 8q11 -72 -28.5 -118t-134.5 -46q-97 0 -242 27q-18 3 -59 10.5t-62 11t-53 8.5t-58 7t-50 2
q-92 0 -139.5 -50t-47.5 -115q0 -69 45.5 -115.5t117.5 -46.5q47 0 93 23zM27 170q0 121 100 202l38 -48q-78 -62 -78 -154q0 -86 62.5 -147.5t151.5 -61.5q96 0 163 73t67 204v132h302v-60h-241v-72q0 -157 -85.5 -247.5t-205.5 -90.5q-115 0 -194.5 79t-79.5 191z
M1097 125q18 0 34 16l41 -44q-34 -33 -75 -33q-38 0 -69.5 29t-31.5 100v550q33 48 22 117l59 9q11 -78 -20 -139v-537q0 -68 40 -68z" />
    <glyph glyph-name="T_h.cswh" unicode="&#xe020;h" horiz-adv-x="1379" 
d="M708 74v61h89v486q-9 -1 -28 -1q-77 0 -204 23v-508h89v-61h-150v642q190 -36 265 -36q51 0 88 17v-623h-149zM1020 135v-61h-149v305q88 111 198 111q61 0 102.5 -40t41.5 -130v-260h163v-60h-223v320q0 110 -84 110q-74 0 -137 -73v-222h88zM1376 135v-61h-149v246
q0 96 -46.5 140t-111.5 44q-52 0 -104 -27.5t-94 -74.5v302q76 46 61 156l61 8q15 -124 -61 -193v-148q66 38 137 38q38 0 74.5 -13t70 -40t54 -77t20.5 -115v-185h88zM137 599l-60 -7q-10 73 26 119t123 46q74 0 264 -38v-645h-150v61h90v535q-133 26 -204 26
q-55 0 -75.5 -23.5t-13.5 -73.5zM769 755q55 0 75.5 23.5t13.5 72.5l60 7q10 -72 -26 -118t-123 -46q-75 0 -271 38q-189 39 -272 39q-94 0 -134 -51.5t-29 -129.5l-61 -7q-13 102 44 175t180 73q84 0 285 -39q179 -37 258 -37zM654 0h-314v60h314v-60zM1020 0h-312v60h312
v-60z" />
    <glyph glyph-name="T_h.alt6" unicode="&#xe020;&#xe150;" horiz-adv-x="1351" 
d="M708 74v61h89v486q-9 -1 -28 -1q-77 0 -204 23v-508h89v-61h-150v642q190 -36 265 -36q51 0 88 17v-623h-149zM137 599l-60 -7q-10 73 26 119t123 46q74 0 264 -38v-645h-150v61h90v535q-133 26 -204 26q-55 0 -75.5 -23.5t-13.5 -73.5zM769 755q55 0 75.5 23.5
t13.5 72.5l60 7q10 -72 -26 -118t-123 -46q-75 0 -271 38q-189 39 -272 39q-94 0 -134 -51.5t-29 -129.5l-61 -7q-13 102 44 175t180 73q84 0 285 -39q179 -37 258 -37zM654 0h-314v60h314v-60zM1020 0h-312v60h312v-60zM1328 -137q48 0 85 36l42 -44q-58 -53 -127 -53
q-25 0 -52 9t-56.5 29.5t-48 63.5t-18.5 101v315q0 110 -84 110q-74 0 -137 -73v-222h88v-61h-149v305q88 111 198 111q61 0 102.5 -40t41.5 -130v-315q0 -77 37 -109.5t78 -32.5zM1362 -47l41 -44q-35 -32 -75 -32q-38 0 -69.5 28.5t-31.5 99.5v315q0 96 -46.5 140
t-111.5 44q-52 0 -104 -27.5t-94 -74.5v302q76 46 61 156l61 8q15 -124 -61 -193v-148q66 38 137 38q38 0 74.5 -13t70 -40t54 -77t20.5 -115v-315q0 -68 40 -68q18 0 34 16z" />
    <glyph glyph-name="T_i.cswh" unicode="&#xe020;i" horiz-adv-x="1063" 
d="M654 135v-61h-150v642q190 -36 265 -36q95 0 134.5 51t28.5 129l61 8q13 -102 -44 -175t-180 -73q-77 0 -204 23v-508h89zM340 74v61h90v535q-133 26 -204 26q-55 0 -75.5 -23.5t-13.5 -73.5l-60 -7q-10 73 26 119t123 46q74 0 264 -38v-645h-150zM769 755
q55 0 75.5 23.5t13.5 72.5l60 7q10 -72 -26 -118t-123 -46q-75 0 -271 38q-189 39 -272 39q-94 0 -134 -51.5t-29 -129.5l-61 -7q-13 102 44 175t180 73q84 0 285 -39q179 -37 258 -37zM1048 135v-61h-149v421h-163v60h223v-420h89zM736 74v61h88v285h-88v61h149v-407h-149z
M654 0h-314v60h314v-60zM736 0v60h312v-60h-312z" />
    <glyph glyph-name="T_h.swsh" unicode="&#xe115;h" horiz-adv-x="1415" 
d="M744 74v61h89v485q-72 1 -189 21v-402q0 -158 -85 -248.5t-205 -90.5q-115 0 -194.5 79t-79.5 191q0 123 100 202l37 -48q-77 -59 -77 -154q0 -86 62 -147.5t152 -61.5q96 0 163 73.5t67 204.5v476l42 -8q139 -27 223 -27q23 0 44 3v-609h-149zM248 542q50 0 92 34
l38 -46q-60 -48 -130 -48q-67 0 -108 42t-41 106q0 62 43.5 106.5t129.5 44.5q35 0 78.5 -8.5t115 -27.5t104.5 -27v-479q0 -127 -62.5 -195.5t-153.5 -68.5q-86 0 -143 56.5t-57 138.5q0 85 71 143l38 -47q-49 -40 -49 -96q0 -57 40 -96t100 -39q67 0 111 52t44 152v431
q-18 5 -66.5 18t-69 18t-50.5 10t-51 5q-57 0 -85 -26.5t-28 -64.5q0 -40 24 -64t65 -24zM849 755q55 0 75 23.5t13 72.5l61 7q10 -73 -26.5 -118.5t-122.5 -45.5q-82 0 -221 27q-39 7 -170.5 40.5t-185.5 33.5q-92 0 -139.5 -50t-47.5 -115q0 -68 46 -115t117 -47
q77 0 138 52l39 -47q-44 -36 -93 -51t-84 -15q-97 0 -160.5 64.5t-63.5 158.5q0 40 15 78.5t43.5 72t78 54t111.5 20.5t200 -34.5t167 -40.5q129 -25 210 -25zM1412 135v-61h-149v246q0 96 -46.5 140t-111.5 44q-52 0 -104 -27.5t-94 -74.5v284q63 16 88 63t17 111l60 8
q9 -72 -17 -132.5t-87 -90.5v-118q66 38 137 38q38 0 74.5 -13t70 -40t54 -77t20.5 -115v-185h88zM1056 135v-61h-149v305q88 111 198 111q61 0 102.5 -40t41.5 -130v-260h163v-60h-223v320q0 110 -84 110q-74 0 -137 -73v-222h88zM1056 0h-312v60h312v-60z" />
    <glyph glyph-name="T_h.swsh3" unicode="&#xe115;&#xe150;" horiz-adv-x="1387" 
d="M744 74v61h89v485q-72 1 -189 21v-402q0 -158 -85 -248.5t-205 -90.5q-115 0 -194.5 79t-79.5 191q0 123 100 202l37 -48q-77 -59 -77 -154q0 -86 62 -147.5t152 -61.5q96 0 163 73.5t67 204.5v476l42 -8q139 -27 223 -27q23 0 44 3v-609h-149zM248 542q50 0 92 34
l38 -46q-60 -48 -130 -48q-67 0 -108 42t-41 106q0 62 43.5 106.5t129.5 44.5q35 0 78.5 -8.5t115 -27.5t104.5 -27v-479q0 -127 -62.5 -195.5t-153.5 -68.5q-86 0 -143 56.5t-57 138.5q0 85 71 143l38 -47q-49 -40 -49 -96q0 -57 40 -96t100 -39q67 0 111 52t44 152v431
q-18 5 -66.5 18t-69 18t-50.5 10t-51 5q-57 0 -85 -26.5t-28 -64.5q0 -40 24 -64t65 -24zM849 755q55 0 75 23.5t13 72.5l61 7q10 -73 -26.5 -118.5t-122.5 -45.5q-82 0 -221 27q-39 7 -170.5 40.5t-185.5 33.5q-92 0 -139.5 -50t-47.5 -115q0 -68 46 -115t117 -47
q77 0 138 52l39 -47q-44 -36 -93 -51t-84 -15q-97 0 -160.5 64.5t-63.5 158.5q0 40 15 78.5t43.5 72t78 54t111.5 20.5t200 -34.5t167 -40.5q129 -25 210 -25zM1364 -137q48 0 85 36l42 -44q-58 -53 -127 -53q-25 0 -52 9t-56.5 29.5t-48 63.5t-18.5 101v315q0 110 -84 110
q-74 0 -137 -73v-222h88v-61h-149v305q88 111 198 111q61 0 102.5 -40t41.5 -130v-315q0 -77 37 -109.5t78 -32.5zM1398 -47l41 -44q-35 -32 -75 -32q-38 0 -69.5 28.5t-31.5 99.5v315q0 96 -46.5 140t-111.5 44q-52 0 -104 -27.5t-94 -74.5v284q63 16 88 63t17 111l60 8
q9 -72 -17 -132.5t-87 -90.5v-118q66 38 137 38q38 0 74.5 -13t70 -40t54 -77t20.5 -115v-315q0 -68 40 -68q18 0 34 16zM1056 0h-312v60h312v-60z" />
    <glyph glyph-name="T_i.swsh" unicode="&#xe115;i" horiz-adv-x="1110" 
d="M180 372l37 -48q-77 -59 -77 -154q0 -86 62 -147.5t152 -61.5q96 0 163 73.5t67 204.5v476l42 -8q139 -27 223 -27q94 0 133.5 51t29.5 129l60 8q13 -102 -43.5 -175t-179.5 -73q-83 0 -205 21v-402q0 -158 -85 -248.5t-205 -90.5q-115 0 -194.5 79t-79.5 191
q0 123 100 202zM248 542q50 0 92 34l38 -46q-60 -48 -130 -48q-67 0 -108 42t-41 106q0 62 43.5 106.5t129.5 44.5q35 0 78.5 -8.5t115 -27.5t104.5 -27v-479q0 -127 -62.5 -195.5t-153.5 -68.5q-86 0 -143 56.5t-57 138.5q0 85 71 143l38 -47q-49 -40 -49 -96q0 -57 40 -96
t100 -39q67 0 111 52t44 152v431q-18 5 -66.5 18t-69 18t-50.5 10t-51 5q-57 0 -85 -26.5t-28 -64.5q0 -40 24 -64t65 -24zM849 755q55 0 75 23.5t13 72.5l61 7q10 -73 -26.5 -118.5t-122.5 -45.5q-82 0 -221 27q-39 7 -170.5 40.5t-185.5 33.5q-92 0 -139.5 -50t-47.5 -115
q0 -68 46 -115t117 -47q77 0 138 52l39 -47q-44 -36 -93 -51t-84 -15q-97 0 -160.5 64.5t-63.5 158.5q0 40 15 78.5t43.5 72t78 54t111.5 20.5t200 -34.5t167 -40.5q129 -25 210 -25zM1095 135v-61h-149v421h-163v60h223v-420h89zM783 74v61h88v285h-88v61h149v-407h-149z
M783 0v60h312v-60h-312z" />
    <glyph glyph-name="T_h.alt7" unicode="&#xe615;h" horiz-adv-x="1431" 
d="M705 135v-61h-150v641l42 -8q139 -27 222 -27q54 0 90 18v-624h-149v61h89v486q-10 -1 -30 -1q-82 0 -204 21v-506h90zM819 755q56 0 76 23.5t13 72.5l60 7q10 -72 -26 -118t-123 -46q-81 0 -220 27q-39 7 -170.5 40.5t-185.5 33.5q-92 0 -139.5 -50t-47.5 -115
q0 -69 45.5 -115.5t117.5 -46.5q77 0 138 52l39 -47q-44 -36 -93 -51t-84 -15q-98 0 -161 64.5t-63 158.5q0 88 63.5 156.5t184.5 68.5q62 0 200 -34.5t167 -40.5q129 -25 209 -25zM219 542q48 0 92 34l38 -46q-60 -48 -130 -48q-67 0 -108 42t-41 106q0 62 43.5 106.5
t129.5 44.5q35 0 78.5 -8.5t115 -27.5t104.5 -27v-644h-151v61h90v535q-18 5 -66.5 18t-69 18t-50.5 10t-51 5q-57 0 -85 -26.5t-28 -64.5q0 -40 23.5 -64t65.5 -24zM1428 60v-60h-223v320q0 110 -84 110q-74 0 -137 -73v-222h88v-61h-149v305q88 111 198 111
q61 0 102.5 -40t41.5 -130v-260h163zM1428 135v-61h-149v246q0 96 -46.5 140t-111.5 44q-52 0 -104 -27.5t-94 -74.5v304q73 46 59 154l61 8q15 -121 -59 -192v-149q68 38 137 38q38 0 74.5 -13t70 -40t54 -77t20.5 -115v-185h88zM705 0h-315v60h315v-60zM1072 0h-312v60
h312v-60z" />
    <glyph glyph-name="T_h.alt9" unicode="&#xe615;&#xe150;" horiz-adv-x="1403" 
d="M760 74v61h89v486q-10 -1 -30 -1q-82 0 -204 21v-506h90v-61h-150v641l42 -8q139 -27 222 -27q54 0 90 18v-624h-149zM819 755q56 0 76 23.5t13 72.5l60 7q10 -72 -26 -118t-123 -46q-81 0 -220 27q-39 7 -170.5 40.5t-185.5 33.5q-92 0 -139.5 -50t-47.5 -115
q0 -69 45.5 -115.5t117.5 -46.5q77 0 138 52l39 -47q-44 -36 -93 -51t-84 -15q-98 0 -161 64.5t-63 158.5q0 88 63.5 156.5t184.5 68.5q62 0 200 -34.5t167 -40.5q129 -25 209 -25zM219 542q48 0 92 34l38 -46q-60 -48 -130 -48q-67 0 -108 42t-41 106q0 62 43.5 106.5
t129.5 44.5q35 0 78.5 -8.5t115 -27.5t104.5 -27v-644h-151v61h90v535q-18 5 -66.5 18t-69 18t-50.5 10t-51 5q-57 0 -85 -26.5t-28 -64.5q0 -40 23.5 -64t65.5 -24zM1072 135v-61h-149v305q88 111 198 111q61 0 102.5 -40t41.5 -130v-315q0 -77 36.5 -109.5t78.5 -32.5
q45 0 84 36l42 -44q-26 -25 -61.5 -39t-64.5 -14q-25 0 -52 9t-56.5 29.5t-48 63.5t-18.5 101v315q0 110 -84 110q-74 0 -137 -73v-222h88zM1414 -47l41 -44q-35 -32 -75 -32q-39 0 -70 28.5t-31 99.5v315q0 96 -46.5 140t-111.5 44q-52 0 -104 -27.5t-94 -74.5v304
q72 48 59 154l61 8q15 -121 -59 -192v-149q68 38 137 38q38 0 74.5 -13t70 -40t54 -77t20.5 -115v-315q0 -68 40 -68q18 0 34 16zM705 0h-315v60h315v-60zM1072 0h-312v60h312v-60z" />
    <glyph glyph-name="T_u" unicode="Tu" horiz-adv-x="1320" 
d="M1086 420h-88v61h149v-306q-40 -51 -92.5 -80.5t-105.5 -29.5q-61 0 -102.5 40t-41.5 130v260h-157v225h-575v-180h-60v240h696v-225h156v-320q0 -110 84 -110q72 0 137 73v222zM642 420v61h149v-246q0 -96 46.5 -140t111.5 -44q53 0 105.5 28t92.5 76v-95h163v-60h-224
v27q-69 -37 -137 -37q-39 0 -75.5 13t-70 40t-53.5 77t-20 115v185h-88zM518 135v-61h-150v632h266v-218h-60v157h-146v-510h90zM203 74v61h90v510h-146v-105h-60v166h267v-632h-151zM1310 135v-61h-149v421h-163v60h223v-420h89zM518 0h-315v60h315v-60z" />
    <glyph glyph-name="T_w" unicode="Tw" horiz-adv-x="1568" 
d="M943 555v-60h-295v225h-575v-180h-60v240h696v-225h234zM518 135v-61h-150v632h266v-218h-60v157h-146v-510h90zM203 74v61h90v510h-146v-105h-60v166h267v-632h-151zM944 211l103 252l56 -22l-164 -402l-152 442h156v-61h-71zM1347 420h-71v61h156l-153 -442l-162 402
l56 22l102 -252zM1002 -8l-57 23l165 406l164 -406l-57 -23l-107 265zM1344 -4l-57 20l160 465h131v-61h-88zM728 420h-87v61h130l161 -465l-57 -20zM518 0h-315v60h315v-60zM1578 555v-60h-302v60h302z" />
    <glyph glyph-name="f_f" unicode="ff" horiz-adv-x="803" 
d="M3 -324q-94 0 -164 66.5t-61 161.5l60 -6q-6 -68 44 -114.5t121 -46.5q185 0 185 263v481h352v-481q0 -249 -170 -249q-57 0 -104 36l39 47q29 -23 65 -23q56 0 83 43.5t27 145.5v420h-232v-420q0 -156 -63.5 -240t-181.5 -84zM387 779q56 0 101.5 -23.5t70.5 -60.5
q-19 -56 -19 -142v-58h-352v6q0 136 55 207t144 71zM15 495v60h101q12 143 86 221t185 78q92 0 165 -50q62 73 173 73q95 0 164 -66.5t62 -161.5l-61 6q6 68 -44 114.5t-121 46.5q-117 0 -160 -104q-28 35 -75.5 58t-102.5 23q-97 0 -155 -74t-58 -218v-6h-159zM219 -269
l47 56l-8 -10q46 -40 112 -40q184 0 184 263v481h247v-61h-186v-420q0 -155 -63.5 -239.5t-181.5 -84.5q-40 0 -81.5 15t-69.5 40zM114 420h-99v61h159v-481q0 -249 -171 -249q-65 0 -111 42.5t-40 102.5l61 -5q-4 -31 23.5 -55.5t66.5 -24.5q57 0 84 43.5t27 145.5v420z
M801 555v-60h-247v58q0 249 171 249q65 0 110.5 -42.5t40.5 -102.5l-60 5q3 31 -24.5 55.5t-66.5 24.5q-56 0 -83 -43t-27 -144h186zM387 719q-55 0 -91.5 -40.5t-45.5 -123.5h230q0 72 13 125q-43 39 -106 39z" />
    <glyph glyph-name="f_i" unicode="fi" horiz-adv-x="696" 
d="M3 -324q-95 0 -164.5 66.5t-60.5 161.5l60 -6q-6 -68 44 -114.5t121 -46.5q185 0 185 263v481h333v-407h-149v61h89v285h-213v-420q0 -156 -63.5 -240t-181.5 -84zM684 135v-61h-149v421h-347v32q0 285 184 285q70 0 119.5 -48.5t43.5 -118.5l-60 5q4 40 -27.5 71
t-75.5 31q-59 0 -89.5 -46.5t-34.5 -150.5h348v-420h88zM114 420h-99v61h159v-481q0 -249 -171 -249q-65 0 -111 42.5t-40 102.5l61 -5q-4 -31 23.5 -55.5t66.5 -24.5q56 0 83.5 43.5t27.5 145.5v420zM15 495v60h99q5 160 72 246t186 86q100 0 173 -72t65 -176l-61 5
q6 76 -48 129t-129 53q-96 0 -147 -75t-51 -224v-32h-159zM372 0v60h312v-60h-312z" />
    <glyph glyph-name="f_l" unicode="fl" horiz-adv-x="781" 
d="M435 555v-60h-247v69q0 123 54 186.5t145 63.5q56 0 102.5 -22t71.5 -55v-544q0 -77 37 -110t78 -33q47 0 85 37l42 -45q-58 -52 -127 -52q-25 0 -52 9t-56.5 29.5t-48 63t-18.5 101.5v521q-44 39 -114 39q-139 0 -139 -189v-9h187zM15 495v60h99v9q0 153 76 238.5
t197 85.5q83 0 151.5 -38.5t97.5 -91.5v-565q0 -68 40 -68q18 0 34 16l41 -44q-34 -33 -75 -33q-38 0 -69.5 29t-31.5 100v548q-25 36 -76 61.5t-112 25.5q-97 0 -155 -67.5t-58 -196.5v-69h-159zM3 -324q-94 0 -164 66.5t-61 161.5l60 -6q-6 -68 44 -114.5t121 -46.5
q185 0 185 263v481h247v-61h-187v-420q0 -156 -63.5 -240t-181.5 -84zM15 420v61h159v-481q0 -249 -171 -249q-65 0 -111 42.5t-40 102.5l61 -5q-4 -31 23.5 -55.5t66.5 -24.5q57 0 84 43.5t27 145.5v420h-99z" />
    <glyph glyph-name="f_f_i" unicode="ffi" horiz-adv-x="1063" 
d="M3 -324q-94 0 -164 66.5t-61 161.5l60 -6q-6 -68 44 -114.5t121 -46.5q185 0 185 263v481h352v-481q0 -249 -170 -249q-57 0 -104 36l39 47q29 -23 65 -23q56 0 83 43.5t27 145.5v420h-232v-420q0 -156 -63.5 -240t-181.5 -84zM219 -269l39 46q46 -40 112 -40
q184 0 184 263v481h334v-407h-149v61h88v285h-212v-420q0 -155 -63.5 -239.5t-181.5 -84.5q-40 0 -81.5 15t-69.5 40zM389 779q57 0 103 -24.5t71 -62.5q-23 -67 -23 -165v-32h-352v5q0 136 55.5 207.5t145.5 71.5zM1051 135v-61h-149v421h-348v32q0 285 185 285
q70 0 119.5 -48.5t43.5 -118.5l-61 5q4 40 -27 71t-75 31q-59 0 -89.5 -46.5t-34.5 -150.5h347v-420h89zM15 495v60h101q13 142 87.5 220.5t185.5 78.5q92 0 165 -50q66 83 185 83q100 0 172.5 -72t64.5 -176l-60 5q6 76 -48 129t-129 53q-122 0 -170 -117
q-28 37 -75.5 60.5t-104.5 23.5q-98 0 -156.5 -74.5t-58.5 -218.5v-5h-159zM114 420h-99v61h159v-481q0 -249 -171 -249q-65 0 -111 43t-40 103l61 -6q-4 -31 23.5 -55.5t66.5 -24.5q57 0 84 43.5t27 145.5v420zM389 719q-56 0 -93 -41t-46 -123h230q3 70 16 123
q-43 41 -107 41zM1051 0h-312v60h312v-60z" />
    <glyph glyph-name="f_f_l" unicode="ffl" horiz-adv-x="1147" 
d="M3 -324q-94 0 -164 66.5t-61 161.5l60 -6q-6 -68 44 -114.5t121 -46.5q185 0 185 263v481h352v-481q0 -249 -170 -249q-57 0 -104 36l39 47q29 -23 65 -23q56 0 83 43.5t27 145.5v420h-232v-420q0 -156 -63.5 -240t-181.5 -84zM1042 125q18 0 35 16l41 -44
q-34 -33 -76 -33q-38 0 -69 29t-31 100v548q-26 36 -77 61.5t-111 25.5q-135 0 -187 -118q-28 36 -76 59.5t-104 23.5q-97 0 -155 -74t-58 -218v-6h-159v60h101q12 143 86 221t185 78q93 0 168 -52q75 86 199 86q83 0 151 -38t97 -92v-565q0 -68 40 -68zM801 555v-60h-247
v69q0 124 54 187t146 63q56 0 102 -22t72 -55v-544q0 -77 37 -110t77 -33q48 0 86 37l41 -45q-57 -52 -127 -52q-25 0 -52 9t-56.5 29.5t-48 63t-18.5 101.5v521q-43 39 -113 39q-139 0 -139 -189v-9h186zM540 564v-69h-352v6q0 136 55 207t144 71q57 0 103 -24t70 -61
q-20 -55 -20 -130zM370 -324q-40 0 -81.5 15t-69.5 40l39 46q46 -40 112 -40q184 0 184 263v481h247v-61h-186v-420q0 -155 -63.5 -239.5t-181.5 -84.5zM-148 -104l61 -5q-4 -31 23.5 -55.5t66.5 -24.5q57 0 84 43.5t27 145.5v420h-99v61h159v-481q0 -249 -171 -249
q-65 0 -111 42.5t-40 102.5zM480 564q0 62 14 115q-43 40 -107 40q-55 0 -91.5 -40.5t-45.5 -123.5h230v9z" />
    <glyph glyph-name=".notdef" horiz-adv-x="243" 
 />
    <glyph glyph-name=".null" horiz-adv-x="0" 
 />
    <glyph glyph-name="nonmarkingreturn" horiz-adv-x="333" 
 />
    <glyph glyph-name="space" unicode=" " horiz-adv-x="243" 
 />
    <glyph glyph-name="exclam" unicode="!" 
d="M745 367q-9 -4 -10 -11t7 -12l28 -20q8 -5 7.5 -10.5t-10.5 -7.5l-34 -6q-10 -1 -12 -8t5 -14l24 -24q6 -7 4 -12t-12 -5l-35 2q-10 0 -13 -6t3 -14l18 -30q5 -8 2 -12.5t-13 -2.5l-34 9q-9 3 -13.5 -2.5t-1.5 -14.5l11 -33q4 -9 0 -12.5t-13 0.5l-31 15q-8 5 -14 0.5
t-5 -14.5l5 -33q1 -10 -3 -12.5t-12 3.5l-28 21q-8 6 -14 3t-7 -13l-2 -34q-1 -10 -6 -11.5t-11 5.5l-23 27q-16 16 -22 -5l-10 -33q-2 -10 -8 -10t-10 8l-17 30q-10 20 -23 0l-15 -30q-4 -8 -10 -8t-8 10l-10 33q-6 21 -22 5l-23 -27q-14 -15 -17 6l-2 34q-1 10 -7.5 13
t-14.5 -3l-26 -21q-8 -6 -13 -3.5t-3 12.5l5 33q1 10 -5 14.5t-15 -0.5l-30 -15q-9 -4 -13 -0.5t0 12.5l11 33q4 9 -1 14.5t-14 2.5l-34 -9q-10 -2 -13 2.5t2 12.5l19 30q5 8 2 14t-13 6l-35 -2q-10 0 -12 5t4 12l25 24q6 7 4 14t-12 8l-33 6q-7 1 -10 4t-1 7t7 7l28 20l6 6
q9 8 18 -6l16 -31q5 -9 10 -8t8 10l9 34q2 6 5.5 8.5t8 1.5t8.5 -6l23 -26q7 -7 11.5 -5.5t5.5 11.5l2 34q2 10 7.5 12.5t13.5 -3.5l28 -21q8 -6 12.5 -3.5t2.5 12.5l-4 34q-1 10 4.5 14t13.5 -1l31 -14q9 -4 13 -0.5t1 12.5l-11 33q-4 9 0.5 14t13.5 2l7 -1
q20 -38 34.5 -99t14.5 -106q-14 -18 -46 -18h-4q0 22 -16 35q9 -10 9 -27v-7q-16 1 -16 19q0 21 -13.5 35t-37.5 14q-20 0 -33.5 -15.5t-13.5 -38.5q0 -29 24.5 -47t67.5 -18q68 0 134.5 53t105 127t38.5 139q0 29 -18 48t-46 19q-23 0 -41.5 -16.5t-18.5 -41.5
q0 -52 58 -58q-15 -60 -29 -85q-13 102 -58 150q44 -58 52 -161l-14 -20q0 76 -25 140t-64 84q-6 11 12 15l34 6q9 2 10 7t-7 10l-29 19q-17 15 3 23l31 14q7 2 9.5 5.5t0 7t-9.5 5.5l-31 13q-11 5 -10 14q6 3 7 8l17 30q5 9 10.5 8.5t7.5 -9.5l10 -33q7 -23 22 -5l23 26
q6 8 11 6.5t6 -11.5l2 -35q1 -10 7.5 -12.5t13.5 3.5l28 21q7 6 11.5 3t3.5 -13l-5 -34q-1 -10 5 -14t14 1l31 16q9 4 13 0t0 -14l-11 -31q-3 -10 1.5 -15t13.5 -2l34 7q10 3 13 -1t-2 -13l-18 -29q-6 -8 -3 -14.5t13 -5.5l35 2q10 0 12 -5t-4 -12l-24 -26q-7 -7 -5 -13.5
t12 -7.5l34 -6q20 -5 3 -19l-28 -19q-8 -5 -7.5 -11.5t10.5 -10.5l31 -13q9 -4 9 -9t-9 -9zM364 164q69 0 135 52.5t104.5 127t38.5 139.5q0 31 -20 49q12 -18 12 -41q0 -103 -85 -210q-92 -113 -196 -113q-29 0 -49 9q20 -13 60 -13z" />
    <glyph glyph-name="quotedbl" unicode="&#x22;" 
d="M745 367q-9 -4 -10 -11t7 -12l28 -20q8 -5 7.5 -10.5t-10.5 -7.5l-34 -6q-10 -1 -12 -8t5 -14l24 -24q6 -7 4 -12t-12 -5l-35 2q-10 0 -13 -6t3 -14l18 -30q5 -8 2 -12.5t-13 -2.5l-34 9q-9 3 -13.5 -2.5t-1.5 -14.5l11 -33q4 -9 0 -12.5t-13 0.5l-31 15q-8 5 -14 0.5
t-5 -14.5l5 -33q1 -10 -3 -12.5t-12 3.5l-28 21q-8 6 -14 3t-7 -13l-2 -34q-1 -10 -6 -11.5t-11 5.5l-23 27q-16 16 -22 -5l-10 -33q-2 -10 -8 -10t-10 8l-17 30q-10 20 -23 0l-15 -30q-4 -8 -10 -8t-8 10l-10 33q-6 21 -22 5l-23 -27q-14 -15 -17 6l-2 34q-1 10 -7.5 13
t-14.5 -3l-26 -21q-8 -6 -13 -3.5t-3 12.5l5 33q1 10 -5 14.5t-15 -0.5l-30 -15q-9 -4 -13 -0.5t0 12.5l11 33q4 9 -1 14.5t-14 2.5l-34 -9q-10 -2 -13 2.5t2 12.5l19 30q5 8 2 14t-13 6l-35 -2q-10 0 -12 5t4 12l25 24q6 7 4 14t-12 8l-33 6q-7 1 -10 4t-1 7t7 7l28 20l6 6
q9 8 18 -6l16 -31q5 -9 10 -8t8 10l9 34q2 6 5.5 8.5t8 1.5t8.5 -6l23 -26q7 -7 11.5 -5.5t5.5 11.5l2 34q2 10 7.5 12.5t13.5 -3.5l28 -21q8 -6 12.5 -3.5t2.5 12.5l-4 34q-1 10 4.5 14t13.5 -1l31 -14q9 -4 13 -0.5t1 12.5l-11 33q-4 9 0.5 14t13.5 2l7 -1
q20 -38 34.5 -99t14.5 -106q-14 -18 -46 -18h-4q0 22 -16 35q9 -10 9 -27v-7q-16 1 -16 19q0 21 -13.5 35t-37.5 14q-20 0 -33.5 -15.5t-13.5 -38.5q0 -29 24.5 -47t67.5 -18q68 0 134.5 53t105 127t38.5 139q0 29 -18 48t-46 19q-23 0 -41.5 -16.5t-18.5 -41.5
q0 -52 58 -58q-15 -60 -29 -85q-13 102 -58 150q44 -58 52 -161l-14 -20q0 76 -25 140t-64 84q-6 11 12 15l34 6q9 2 10 7t-7 10l-29 19q-17 15 3 23l31 14q7 2 9.5 5.5t0 7t-9.5 5.5l-31 13q-11 5 -10 14q6 3 7 8l17 30q5 9 10.5 8.5t7.5 -9.5l10 -33q7 -23 22 -5l23 26
q6 8 11 6.5t6 -11.5l2 -35q1 -10 7.5 -12.5t13.5 3.5l28 21q7 6 11.5 3t3.5 -13l-5 -34q-1 -10 5 -14t14 1l31 16q9 4 13 0t0 -14l-11 -31q-3 -10 1.5 -15t13.5 -2l34 7q10 3 13 -1t-2 -13l-18 -29q-6 -8 -3 -14.5t13 -5.5l35 2q10 0 12 -5t-4 -12l-24 -26q-7 -7 -5 -13.5
t12 -7.5l34 -6q20 -5 3 -19l-28 -19q-8 -5 -7.5 -11.5t10.5 -10.5l31 -13q9 -4 9 -9t-9 -9zM364 164q69 0 135 52.5t104.5 127t38.5 139.5q0 31 -20 49q12 -18 12 -41q0 -103 -85 -210q-92 -113 -196 -113q-29 0 -49 9q20 -13 60 -13z" />
    <glyph glyph-name="numbersign" unicode="#" 
d="M745 367q-9 -4 -10 -11t7 -12l28 -20q8 -5 7.5 -10.5t-10.5 -7.5l-34 -6q-10 -1 -12 -8t5 -14l24 -24q6 -7 4 -12t-12 -5l-35 2q-10 0 -13 -6t3 -14l18 -30q5 -8 2 -12.5t-13 -2.5l-34 9q-9 3 -13.5 -2.5t-1.5 -14.5l11 -33q4 -9 0 -12.5t-13 0.5l-31 15q-8 5 -14 0.5
t-5 -14.5l5 -33q1 -10 -3 -12.5t-12 3.5l-28 21q-8 6 -14 3t-7 -13l-2 -34q-1 -10 -6 -11.5t-11 5.5l-23 27q-16 16 -22 -5l-10 -33q-2 -10 -8 -10t-10 8l-17 30q-10 20 -23 0l-15 -30q-4 -8 -10 -8t-8 10l-10 33q-6 21 -22 5l-23 -27q-14 -15 -17 6l-2 34q-1 10 -7.5 13
t-14.5 -3l-26 -21q-8 -6 -13 -3.5t-3 12.5l5 33q1 10 -5 14.5t-15 -0.5l-30 -15q-9 -4 -13 -0.5t0 12.5l11 33q4 9 -1 14.5t-14 2.5l-34 -9q-10 -2 -13 2.5t2 12.5l19 30q5 8 2 14t-13 6l-35 -2q-10 0 -12 5t4 12l25 24q6 7 4 14t-12 8l-33 6q-7 1 -10 4t-1 7t7 7l28 20l6 6
q9 8 18 -6l16 -31q5 -9 10 -8t8 10l9 34q2 6 5.5 8.5t8 1.5t8.5 -6l23 -26q7 -7 11.5 -5.5t5.5 11.5l2 34q2 10 7.5 12.5t13.5 -3.5l28 -21q8 -6 12.5 -3.5t2.5 12.5l-4 34q-1 10 4.5 14t13.5 -1l31 -14q9 -4 13 -0.5t1 12.5l-11 33q-4 9 0.5 14t13.5 2l7 -1
q20 -38 34.5 -99t14.5 -106q-14 -18 -46 -18h-4q0 22 -16 35q9 -10 9 -27v-7q-16 1 -16 19q0 21 -13.5 35t-37.5 14q-20 0 -33.5 -15.5t-13.5 -38.5q0 -29 24.5 -47t67.5 -18q68 0 134.5 53t105 127t38.5 139q0 29 -18 48t-46 19q-23 0 -41.5 -16.5t-18.5 -41.5
q0 -52 58 -58q-15 -60 -29 -85q-13 102 -58 150q44 -58 52 -161l-14 -20q0 76 -25 140t-64 84q-6 11 12 15l34 6q9 2 10 7t-7 10l-29 19q-17 15 3 23l31 14q7 2 9.5 5.5t0 7t-9.5 5.5l-31 13q-11 5 -10 14q6 3 7 8l17 30q5 9 10.5 8.5t7.5 -9.5l10 -33q7 -23 22 -5l23 26
q6 8 11 6.5t6 -11.5l2 -35q1 -10 7.5 -12.5t13.5 3.5l28 21q7 6 11.5 3t3.5 -13l-5 -34q-1 -10 5 -14t14 1l31 16q9 4 13 0t0 -14l-11 -31q-3 -10 1.5 -15t13.5 -2l34 7q10 3 13 -1t-2 -13l-18 -29q-6 -8 -3 -14.5t13 -5.5l35 2q10 0 12 -5t-4 -12l-24 -26q-7 -7 -5 -13.5
t12 -7.5l34 -6q20 -5 3 -19l-28 -19q-8 -5 -7.5 -11.5t10.5 -10.5l31 -13q9 -4 9 -9t-9 -9zM364 164q69 0 135 52.5t104.5 127t38.5 139.5q0 31 -20 49q12 -18 12 -41q0 -103 -85 -210q-92 -113 -196 -113q-29 0 -49 9q20 -13 60 -13z" />
    <glyph glyph-name="dollar" unicode="$" 
d="M745 367q-9 -4 -10 -11t7 -12l28 -20q8 -5 7.5 -10.5t-10.5 -7.5l-34 -6q-10 -1 -12 -8t5 -14l24 -24q6 -7 4 -12t-12 -5l-35 2q-10 0 -13 -6t3 -14l18 -30q5 -8 2 -12.5t-13 -2.5l-34 9q-9 3 -13.5 -2.5t-1.5 -14.5l11 -33q4 -9 0 -12.5t-13 0.5l-31 15q-8 5 -14 0.5
t-5 -14.5l5 -33q1 -10 -3 -12.5t-12 3.5l-28 21q-8 6 -14 3t-7 -13l-2 -34q-1 -10 -6 -11.5t-11 5.5l-23 27q-16 16 -22 -5l-10 -33q-2 -10 -8 -10t-10 8l-17 30q-10 20 -23 0l-15 -30q-4 -8 -10 -8t-8 10l-10 33q-6 21 -22 5l-23 -27q-14 -15 -17 6l-2 34q-1 10 -7.5 13
t-14.5 -3l-26 -21q-8 -6 -13 -3.5t-3 12.5l5 33q1 10 -5 14.5t-15 -0.5l-30 -15q-9 -4 -13 -0.5t0 12.5l11 33q4 9 -1 14.5t-14 2.5l-34 -9q-10 -2 -13 2.5t2 12.5l19 30q5 8 2 14t-13 6l-35 -2q-10 0 -12 5t4 12l25 24q6 7 4 14t-12 8l-33 6q-7 1 -10 4t-1 7t7 7l28 20l6 6
q9 8 18 -6l16 -31q5 -9 10 -8t8 10l9 34q2 6 5.5 8.5t8 1.5t8.5 -6l23 -26q7 -7 11.5 -5.5t5.5 11.5l2 34q2 10 7.5 12.5t13.5 -3.5l28 -21q8 -6 12.5 -3.5t2.5 12.5l-4 34q-1 10 4.5 14t13.5 -1l31 -14q9 -4 13 -0.5t1 12.5l-11 33q-4 9 0.5 14t13.5 2l7 -1
q20 -38 34.5 -99t14.5 -106q-14 -18 -46 -18h-4q0 22 -16 35q9 -10 9 -27v-7q-16 1 -16 19q0 21 -13.5 35t-37.5 14q-20 0 -33.5 -15.5t-13.5 -38.5q0 -29 24.5 -47t67.5 -18q68 0 134.5 53t105 127t38.5 139q0 29 -18 48t-46 19q-23 0 -41.5 -16.5t-18.5 -41.5
q0 -52 58 -58q-15 -60 -29 -85q-13 102 -58 150q44 -58 52 -161l-14 -20q0 76 -25 140t-64 84q-6 11 12 15l34 6q9 2 10 7t-7 10l-29 19q-17 15 3 23l31 14q7 2 9.5 5.5t0 7t-9.5 5.5l-31 13q-11 5 -10 14q6 3 7 8l17 30q5 9 10.5 8.5t7.5 -9.5l10 -33q7 -23 22 -5l23 26
q6 8 11 6.5t6 -11.5l2 -35q1 -10 7.5 -12.5t13.5 3.5l28 21q7 6 11.5 3t3.5 -13l-5 -34q-1 -10 5 -14t14 1l31 16q9 4 13 0t0 -14l-11 -31q-3 -10 1.5 -15t13.5 -2l34 7q10 3 13 -1t-2 -13l-18 -29q-6 -8 -3 -14.5t13 -5.5l35 2q10 0 12 -5t-4 -12l-24 -26q-7 -7 -5 -13.5
t12 -7.5l34 -6q20 -5 3 -19l-28 -19q-8 -5 -7.5 -11.5t10.5 -10.5l31 -13q9 -4 9 -9t-9 -9zM364 164q69 0 135 52.5t104.5 127t38.5 139.5q0 31 -20 49q12 -18 12 -41q0 -103 -85 -210q-92 -113 -196 -113q-29 0 -49 9q20 -13 60 -13z" />
    <glyph glyph-name="percent" unicode="%" 
d="M745 367q-9 -4 -10 -11t7 -12l28 -20q8 -5 7.5 -10.5t-10.5 -7.5l-34 -6q-10 -1 -12 -8t5 -14l24 -24q6 -7 4 -12t-12 -5l-35 2q-10 0 -13 -6t3 -14l18 -30q5 -8 2 -12.5t-13 -2.5l-34 9q-9 3 -13.5 -2.5t-1.5 -14.5l11 -33q4 -9 0 -12.5t-13 0.5l-31 15q-8 5 -14 0.5
t-5 -14.5l5 -33q1 -10 -3 -12.5t-12 3.5l-28 21q-8 6 -14 3t-7 -13l-2 -34q-1 -10 -6 -11.5t-11 5.5l-23 27q-16 16 -22 -5l-10 -33q-2 -10 -8 -10t-10 8l-17 30q-10 20 -23 0l-15 -30q-4 -8 -10 -8t-8 10l-10 33q-6 21 -22 5l-23 -27q-14 -15 -17 6l-2 34q-1 10 -7.5 13
t-14.5 -3l-26 -21q-8 -6 -13 -3.5t-3 12.5l5 33q1 10 -5 14.5t-15 -0.5l-30 -15q-9 -4 -13 -0.5t0 12.5l11 33q4 9 -1 14.5t-14 2.5l-34 -9q-10 -2 -13 2.5t2 12.5l19 30q5 8 2 14t-13 6l-35 -2q-10 0 -12 5t4 12l25 24q6 7 4 14t-12 8l-33 6q-7 1 -10 4t-1 7t7 7l28 20l6 6
q9 8 18 -6l16 -31q5 -9 10 -8t8 10l9 34q2 6 5.5 8.5t8 1.5t8.5 -6l23 -26q7 -7 11.5 -5.5t5.5 11.5l2 34q2 10 7.5 12.5t13.5 -3.5l28 -21q8 -6 12.5 -3.5t2.5 12.5l-4 34q-1 10 4.5 14t13.5 -1l31 -14q9 -4 13 -0.5t1 12.5l-11 33q-4 9 0.5 14t13.5 2l7 -1
q20 -38 34.5 -99t14.5 -106q-14 -18 -46 -18h-4q0 22 -16 35q9 -10 9 -27v-7q-16 1 -16 19q0 21 -13.5 35t-37.5 14q-20 0 -33.5 -15.5t-13.5 -38.5q0 -29 24.5 -47t67.5 -18q68 0 134.5 53t105 127t38.5 139q0 29 -18 48t-46 19q-23 0 -41.5 -16.5t-18.5 -41.5
q0 -52 58 -58q-15 -60 -29 -85q-13 102 -58 150q44 -58 52 -161l-14 -20q0 76 -25 140t-64 84q-6 11 12 15l34 6q9 2 10 7t-7 10l-29 19q-17 15 3 23l31 14q7 2 9.5 5.5t0 7t-9.5 5.5l-31 13q-11 5 -10 14q6 3 7 8l17 30q5 9 10.5 8.5t7.5 -9.5l10 -33q7 -23 22 -5l23 26
q6 8 11 6.5t6 -11.5l2 -35q1 -10 7.5 -12.5t13.5 3.5l28 21q7 6 11.5 3t3.5 -13l-5 -34q-1 -10 5 -14t14 1l31 16q9 4 13 0t0 -14l-11 -31q-3 -10 1.5 -15t13.5 -2l34 7q10 3 13 -1t-2 -13l-18 -29q-6 -8 -3 -14.5t13 -5.5l35 2q10 0 12 -5t-4 -12l-24 -26q-7 -7 -5 -13.5
t12 -7.5l34 -6q20 -5 3 -19l-28 -19q-8 -5 -7.5 -11.5t10.5 -10.5l31 -13q9 -4 9 -9t-9 -9zM364 164q69 0 135 52.5t104.5 127t38.5 139.5q0 31 -20 49q12 -18 12 -41q0 -103 -85 -210q-92 -113 -196 -113q-29 0 -49 9q20 -13 60 -13z" />
    <glyph glyph-name="ampersand" unicode="&#x26;" horiz-adv-x="759" 
d="M539 529l-49 38q27 40 26 80t-32 69.5t-79 29.5q-54 0 -90 -36t-36 -87q0 -57 47 -93q-95 -9 -160.5 -80.5t-65.5 -165.5q0 -105 73 -177t185 -72q102 0 164 59.5t62 135.5q0 53 -29.5 91t-76.5 55q70 76 134 76q50 0 94 -44l-43 -43q-27 26 -51 26q-16 0 -32 -8
q65 -63 65 -153q0 -102 -78.5 -179t-208.5 -77q-139 0 -229 89.5t-90 220.5q0 94 51.5 170.5t135.5 112.5q-8 29 -8 56q0 77 53 130.5t134 53.5q55 0 97.5 -27.5t61 -68t13 -90.5t-37.5 -92zM277 189l-1 61q54 1 94.5 26.5t89.5 79.5l7 9q46 -14 74.5 -49t28.5 -86
q0 -72 -57.5 -126.5t-154.5 -54.5q-108 0 -176 67t-68 168q0 96 68.5 164.5t166.5 68.5q27 -13 56 -14l-3 -61q-33 1 -66 13q-68 -4 -114.5 -54t-46.5 -117q0 -75 51 -124.5t132 -49.5q69 0 110 36.5t41 83.5q0 37 -28 60q-96 -100 -204 -101zM276 264l-1 61q35 1 61.5 18.5
t67.5 62.5q30 33 49 52t65.5 44t93.5 25q81 0 147 -66l-43 -43q-48 48 -104 48q-34 0 -68.5 -19t-50.5 -35t-43 -46q-48 -53 -86 -77t-88 -25zM410 578l-4 -61q-51 3 -82 32t-31 74q0 47 31.5 78t80.5 31q65 0 89.5 -53.5t-15.5 -103.5l-48 38q17 22 9 40t-35 18
q-24 0 -37.5 -13.5t-13.5 -34.5q0 -42 56 -45z" />
    <glyph glyph-name="quotesingle" unicode="'" 
d="M745 367q-9 -4 -10 -11t7 -12l28 -20q8 -5 7.5 -10.5t-10.5 -7.5l-34 -6q-10 -1 -12 -8t5 -14l24 -24q6 -7 4 -12t-12 -5l-35 2q-10 0 -13 -6t3 -14l18 -30q5 -8 2 -12.5t-13 -2.5l-34 9q-9 3 -13.5 -2.5t-1.5 -14.5l11 -33q4 -9 0 -12.5t-13 0.5l-31 15q-8 5 -14 0.5
t-5 -14.5l5 -33q1 -10 -3 -12.5t-12 3.5l-28 21q-8 6 -14 3t-7 -13l-2 -34q-1 -10 -6 -11.5t-11 5.5l-23 27q-16 16 -22 -5l-10 -33q-2 -10 -8 -10t-10 8l-17 30q-10 20 -23 0l-15 -30q-4 -8 -10 -8t-8 10l-10 33q-6 21 -22 5l-23 -27q-14 -15 -17 6l-2 34q-1 10 -7.5 13
t-14.5 -3l-26 -21q-8 -6 -13 -3.5t-3 12.5l5 33q1 10 -5 14.5t-15 -0.5l-30 -15q-9 -4 -13 -0.5t0 12.5l11 33q4 9 -1 14.5t-14 2.5l-34 -9q-10 -2 -13 2.5t2 12.5l19 30q5 8 2 14t-13 6l-35 -2q-10 0 -12 5t4 12l25 24q6 7 4 14t-12 8l-33 6q-7 1 -10 4t-1 7t7 7l28 20l6 6
q9 8 18 -6l16 -31q5 -9 10 -8t8 10l9 34q2 6 5.5 8.5t8 1.5t8.5 -6l23 -26q7 -7 11.5 -5.5t5.5 11.5l2 34q2 10 7.5 12.5t13.5 -3.5l28 -21q8 -6 12.5 -3.5t2.5 12.5l-4 34q-1 10 4.5 14t13.5 -1l31 -14q9 -4 13 -0.5t1 12.5l-11 33q-4 9 0.5 14t13.5 2l7 -1
q20 -38 34.5 -99t14.5 -106q-14 -18 -46 -18h-4q0 22 -16 35q9 -10 9 -27v-7q-16 1 -16 19q0 21 -13.5 35t-37.5 14q-20 0 -33.5 -15.5t-13.5 -38.5q0 -29 24.5 -47t67.5 -18q68 0 134.5 53t105 127t38.5 139q0 29 -18 48t-46 19q-23 0 -41.5 -16.5t-18.5 -41.5
q0 -52 58 -58q-15 -60 -29 -85q-13 102 -58 150q44 -58 52 -161l-14 -20q0 76 -25 140t-64 84q-6 11 12 15l34 6q9 2 10 7t-7 10l-29 19q-17 15 3 23l31 14q7 2 9.5 5.5t0 7t-9.5 5.5l-31 13q-11 5 -10 14q6 3 7 8l17 30q5 9 10.5 8.5t7.5 -9.5l10 -33q7 -23 22 -5l23 26
q6 8 11 6.5t6 -11.5l2 -35q1 -10 7.5 -12.5t13.5 3.5l28 21q7 6 11.5 3t3.5 -13l-5 -34q-1 -10 5 -14t14 1l31 16q9 4 13 0t0 -14l-11 -31q-3 -10 1.5 -15t13.5 -2l34 7q10 3 13 -1t-2 -13l-18 -29q-6 -8 -3 -14.5t13 -5.5l35 2q10 0 12 -5t-4 -12l-24 -26q-7 -7 -5 -13.5
t12 -7.5l34 -6q20 -5 3 -19l-28 -19q-8 -5 -7.5 -11.5t10.5 -10.5l31 -13q9 -4 9 -9t-9 -9zM364 164q69 0 135 52.5t104.5 127t38.5 139.5q0 31 -20 49q12 -18 12 -41q0 -103 -85 -210q-92 -113 -196 -113q-29 0 -49 9q20 -13 60 -13z" />
    <glyph glyph-name="parenleft" unicode="(" 
d="M745 367q-9 -4 -10 -11t7 -12l28 -20q8 -5 7.5 -10.5t-10.5 -7.5l-34 -6q-10 -1 -12 -8t5 -14l24 -24q6 -7 4 -12t-12 -5l-35 2q-10 0 -13 -6t3 -14l18 -30q5 -8 2 -12.5t-13 -2.5l-34 9q-9 3 -13.5 -2.5t-1.5 -14.5l11 -33q4 -9 0 -12.5t-13 0.5l-31 15q-8 5 -14 0.5
t-5 -14.5l5 -33q1 -10 -3 -12.5t-12 3.5l-28 21q-8 6 -14 3t-7 -13l-2 -34q-1 -10 -6 -11.5t-11 5.5l-23 27q-16 16 -22 -5l-10 -33q-2 -10 -8 -10t-10 8l-17 30q-10 20 -23 0l-15 -30q-4 -8 -10 -8t-8 10l-10 33q-6 21 -22 5l-23 -27q-14 -15 -17 6l-2 34q-1 10 -7.5 13
t-14.5 -3l-26 -21q-8 -6 -13 -3.5t-3 12.5l5 33q1 10 -5 14.5t-15 -0.5l-30 -15q-9 -4 -13 -0.5t0 12.5l11 33q4 9 -1 14.5t-14 2.5l-34 -9q-10 -2 -13 2.5t2 12.5l19 30q5 8 2 14t-13 6l-35 -2q-10 0 -12 5t4 12l25 24q6 7 4 14t-12 8l-33 6q-7 1 -10 4t-1 7t7 7l28 20l6 6
q9 8 18 -6l16 -31q5 -9 10 -8t8 10l9 34q2 6 5.5 8.5t8 1.5t8.5 -6l23 -26q7 -7 11.5 -5.5t5.5 11.5l2 34q2 10 7.5 12.5t13.5 -3.5l28 -21q8 -6 12.5 -3.5t2.5 12.5l-4 34q-1 10 4.5 14t13.5 -1l31 -14q9 -4 13 -0.5t1 12.5l-11 33q-4 9 0.5 14t13.5 2l7 -1
q20 -38 34.5 -99t14.5 -106q-14 -18 -46 -18h-4q0 22 -16 35q9 -10 9 -27v-7q-16 1 -16 19q0 21 -13.5 35t-37.5 14q-20 0 -33.5 -15.5t-13.5 -38.5q0 -29 24.5 -47t67.5 -18q68 0 134.5 53t105 127t38.5 139q0 29 -18 48t-46 19q-23 0 -41.5 -16.5t-18.5 -41.5
q0 -52 58 -58q-15 -60 -29 -85q-13 102 -58 150q44 -58 52 -161l-14 -20q0 76 -25 140t-64 84q-6 11 12 15l34 6q9 2 10 7t-7 10l-29 19q-17 15 3 23l31 14q7 2 9.5 5.5t0 7t-9.5 5.5l-31 13q-11 5 -10 14q6 3 7 8l17 30q5 9 10.5 8.5t7.5 -9.5l10 -33q7 -23 22 -5l23 26
q6 8 11 6.5t6 -11.5l2 -35q1 -10 7.5 -12.5t13.5 3.5l28 21q7 6 11.5 3t3.5 -13l-5 -34q-1 -10 5 -14t14 1l31 16q9 4 13 0t0 -14l-11 -31q-3 -10 1.5 -15t13.5 -2l34 7q10 3 13 -1t-2 -13l-18 -29q-6 -8 -3 -14.5t13 -5.5l35 2q10 0 12 -5t-4 -12l-24 -26q-7 -7 -5 -13.5
t12 -7.5l34 -6q20 -5 3 -19l-28 -19q-8 -5 -7.5 -11.5t10.5 -10.5l31 -13q9 -4 9 -9t-9 -9zM364 164q69 0 135 52.5t104.5 127t38.5 139.5q0 31 -20 49q12 -18 12 -41q0 -103 -85 -210q-92 -113 -196 -113q-29 0 -49 9q20 -13 60 -13z" />
    <glyph glyph-name="parenright" unicode=")" 
d="M745 367q-9 -4 -10 -11t7 -12l28 -20q8 -5 7.5 -10.5t-10.5 -7.5l-34 -6q-10 -1 -12 -8t5 -14l24 -24q6 -7 4 -12t-12 -5l-35 2q-10 0 -13 -6t3 -14l18 -30q5 -8 2 -12.5t-13 -2.5l-34 9q-9 3 -13.5 -2.5t-1.5 -14.5l11 -33q4 -9 0 -12.5t-13 0.5l-31 15q-8 5 -14 0.5
t-5 -14.5l5 -33q1 -10 -3 -12.5t-12 3.5l-28 21q-8 6 -14 3t-7 -13l-2 -34q-1 -10 -6 -11.5t-11 5.5l-23 27q-16 16 -22 -5l-10 -33q-2 -10 -8 -10t-10 8l-17 30q-10 20 -23 0l-15 -30q-4 -8 -10 -8t-8 10l-10 33q-6 21 -22 5l-23 -27q-14 -15 -17 6l-2 34q-1 10 -7.5 13
t-14.5 -3l-26 -21q-8 -6 -13 -3.5t-3 12.5l5 33q1 10 -5 14.5t-15 -0.5l-30 -15q-9 -4 -13 -0.5t0 12.5l11 33q4 9 -1 14.5t-14 2.5l-34 -9q-10 -2 -13 2.5t2 12.5l19 30q5 8 2 14t-13 6l-35 -2q-10 0 -12 5t4 12l25 24q6 7 4 14t-12 8l-33 6q-7 1 -10 4t-1 7t7 7l28 20l6 6
q9 8 18 -6l16 -31q5 -9 10 -8t8 10l9 34q2 6 5.5 8.5t8 1.5t8.5 -6l23 -26q7 -7 11.5 -5.5t5.5 11.5l2 34q2 10 7.5 12.5t13.5 -3.5l28 -21q8 -6 12.5 -3.5t2.5 12.5l-4 34q-1 10 4.5 14t13.5 -1l31 -14q9 -4 13 -0.5t1 12.5l-11 33q-4 9 0.5 14t13.5 2l7 -1
q20 -38 34.5 -99t14.5 -106q-14 -18 -46 -18h-4q0 22 -16 35q9 -10 9 -27v-7q-16 1 -16 19q0 21 -13.5 35t-37.5 14q-20 0 -33.5 -15.5t-13.5 -38.5q0 -29 24.5 -47t67.5 -18q68 0 134.5 53t105 127t38.5 139q0 29 -18 48t-46 19q-23 0 -41.5 -16.5t-18.5 -41.5
q0 -52 58 -58q-15 -60 -29 -85q-13 102 -58 150q44 -58 52 -161l-14 -20q0 76 -25 140t-64 84q-6 11 12 15l34 6q9 2 10 7t-7 10l-29 19q-17 15 3 23l31 14q7 2 9.5 5.5t0 7t-9.5 5.5l-31 13q-11 5 -10 14q6 3 7 8l17 30q5 9 10.5 8.5t7.5 -9.5l10 -33q7 -23 22 -5l23 26
q6 8 11 6.5t6 -11.5l2 -35q1 -10 7.5 -12.5t13.5 3.5l28 21q7 6 11.5 3t3.5 -13l-5 -34q-1 -10 5 -14t14 1l31 16q9 4 13 0t0 -14l-11 -31q-3 -10 1.5 -15t13.5 -2l34 7q10 3 13 -1t-2 -13l-18 -29q-6 -8 -3 -14.5t13 -5.5l35 2q10 0 12 -5t-4 -12l-24 -26q-7 -7 -5 -13.5
t12 -7.5l34 -6q20 -5 3 -19l-28 -19q-8 -5 -7.5 -11.5t10.5 -10.5l31 -13q9 -4 9 -9t-9 -9zM364 164q69 0 135 52.5t104.5 127t38.5 139.5q0 31 -20 49q12 -18 12 -41q0 -103 -85 -210q-92 -113 -196 -113q-29 0 -49 9q20 -13 60 -13z" />
    <glyph glyph-name="asterisk" unicode="*" horiz-adv-x="460" 
d="M388 512l-48 -35l-100 136l161 54l20 -58l-84 -28zM119 478l-49 35l50 69l-82 28l19 57l160 -54zM162 710v85h60v-168l-161 54l20 57zM297 710l81 27l18 -56l-160 -54v168h61v-85zM180 435l-49 35l98 135l99 -136l-48 -35l-51 68z" />
    <glyph glyph-name="plus" unicode="+" 
d="M745 367q-9 -4 -10 -11t7 -12l28 -20q8 -5 7.5 -10.5t-10.5 -7.5l-34 -6q-10 -1 -12 -8t5 -14l24 -24q6 -7 4 -12t-12 -5l-35 2q-10 0 -13 -6t3 -14l18 -30q5 -8 2 -12.5t-13 -2.5l-34 9q-9 3 -13.5 -2.5t-1.5 -14.5l11 -33q4 -9 0 -12.5t-13 0.5l-31 15q-8 5 -14 0.5
t-5 -14.5l5 -33q1 -10 -3 -12.5t-12 3.5l-28 21q-8 6 -14 3t-7 -13l-2 -34q-1 -10 -6 -11.5t-11 5.5l-23 27q-16 16 -22 -5l-10 -33q-2 -10 -8 -10t-10 8l-17 30q-10 20 -23 0l-15 -30q-4 -8 -10 -8t-8 10l-10 33q-6 21 -22 5l-23 -27q-14 -15 -17 6l-2 34q-1 10 -7.5 13
t-14.5 -3l-26 -21q-8 -6 -13 -3.5t-3 12.5l5 33q1 10 -5 14.5t-15 -0.5l-30 -15q-9 -4 -13 -0.5t0 12.5l11 33q4 9 -1 14.5t-14 2.5l-34 -9q-10 -2 -13 2.5t2 12.5l19 30q5 8 2 14t-13 6l-35 -2q-10 0 -12 5t4 12l25 24q6 7 4 14t-12 8l-33 6q-7 1 -10 4t-1 7t7 7l28 20l6 6
q9 8 18 -6l16 -31q5 -9 10 -8t8 10l9 34q2 6 5.5 8.5t8 1.5t8.5 -6l23 -26q7 -7 11.5 -5.5t5.5 11.5l2 34q2 10 7.5 12.5t13.5 -3.5l28 -21q8 -6 12.5 -3.5t2.5 12.5l-4 34q-1 10 4.5 14t13.5 -1l31 -14q9 -4 13 -0.5t1 12.5l-11 33q-4 9 0.5 14t13.5 2l7 -1
q20 -38 34.5 -99t14.5 -106q-14 -18 -46 -18h-4q0 22 -16 35q9 -10 9 -27v-7q-16 1 -16 19q0 21 -13.5 35t-37.5 14q-20 0 -33.5 -15.5t-13.5 -38.5q0 -29 24.5 -47t67.5 -18q68 0 134.5 53t105 127t38.5 139q0 29 -18 48t-46 19q-23 0 -41.5 -16.5t-18.5 -41.5
q0 -52 58 -58q-15 -60 -29 -85q-13 102 -58 150q44 -58 52 -161l-14 -20q0 76 -25 140t-64 84q-6 11 12 15l34 6q9 2 10 7t-7 10l-29 19q-17 15 3 23l31 14q7 2 9.5 5.5t0 7t-9.5 5.5l-31 13q-11 5 -10 14q6 3 7 8l17 30q5 9 10.5 8.5t7.5 -9.5l10 -33q7 -23 22 -5l23 26
q6 8 11 6.5t6 -11.5l2 -35q1 -10 7.5 -12.5t13.5 3.5l28 21q7 6 11.5 3t3.5 -13l-5 -34q-1 -10 5 -14t14 1l31 16q9 4 13 0t0 -14l-11 -31q-3 -10 1.5 -15t13.5 -2l34 7q10 3 13 -1t-2 -13l-18 -29q-6 -8 -3 -14.5t13 -5.5l35 2q10 0 12 -5t-4 -12l-24 -26q-7 -7 -5 -13.5
t12 -7.5l34 -6q20 -5 3 -19l-28 -19q-8 -5 -7.5 -11.5t10.5 -10.5l31 -13q9 -4 9 -9t-9 -9zM364 164q69 0 135 52.5t104.5 127t38.5 139.5q0 31 -20 49q12 -18 12 -41q0 -103 -85 -210q-92 -113 -196 -113q-29 0 -49 9q20 -13 60 -13z" />
    <glyph glyph-name="comma" unicode="," 
d="M745 367q-9 -4 -10 -11t7 -12l28 -20q8 -5 7.5 -10.5t-10.5 -7.5l-34 -6q-10 -1 -12 -8t5 -14l24 -24q6 -7 4 -12t-12 -5l-35 2q-10 0 -13 -6t3 -14l18 -30q5 -8 2 -12.5t-13 -2.5l-34 9q-9 3 -13.5 -2.5t-1.5 -14.5l11 -33q4 -9 0 -12.5t-13 0.5l-31 15q-8 5 -14 0.5
t-5 -14.5l5 -33q1 -10 -3 -12.5t-12 3.5l-28 21q-8 6 -14 3t-7 -13l-2 -34q-1 -10 -6 -11.5t-11 5.5l-23 27q-16 16 -22 -5l-10 -33q-2 -10 -8 -10t-10 8l-17 30q-10 20 -23 0l-15 -30q-4 -8 -10 -8t-8 10l-10 33q-6 21 -22 5l-23 -27q-14 -15 -17 6l-2 34q-1 10 -7.5 13
t-14.5 -3l-26 -21q-8 -6 -13 -3.5t-3 12.5l5 33q1 10 -5 14.5t-15 -0.5l-30 -15q-9 -4 -13 -0.5t0 12.5l11 33q4 9 -1 14.5t-14 2.5l-34 -9q-10 -2 -13 2.5t2 12.5l19 30q5 8 2 14t-13 6l-35 -2q-10 0 -12 5t4 12l25 24q6 7 4 14t-12 8l-33 6q-7 1 -10 4t-1 7t7 7l28 20l6 6
q9 8 18 -6l16 -31q5 -9 10 -8t8 10l9 34q2 6 5.5 8.5t8 1.5t8.5 -6l23 -26q7 -7 11.5 -5.5t5.5 11.5l2 34q2 10 7.5 12.5t13.5 -3.5l28 -21q8 -6 12.5 -3.5t2.5 12.5l-4 34q-1 10 4.5 14t13.5 -1l31 -14q9 -4 13 -0.5t1 12.5l-11 33q-4 9 0.5 14t13.5 2l7 -1
q20 -38 34.5 -99t14.5 -106q-14 -18 -46 -18h-4q0 22 -16 35q9 -10 9 -27v-7q-16 1 -16 19q0 21 -13.5 35t-37.5 14q-20 0 -33.5 -15.5t-13.5 -38.5q0 -29 24.5 -47t67.5 -18q68 0 134.5 53t105 127t38.5 139q0 29 -18 48t-46 19q-23 0 -41.5 -16.5t-18.5 -41.5
q0 -52 58 -58q-15 -60 -29 -85q-13 102 -58 150q44 -58 52 -161l-14 -20q0 76 -25 140t-64 84q-6 11 12 15l34 6q9 2 10 7t-7 10l-29 19q-17 15 3 23l31 14q7 2 9.5 5.5t0 7t-9.5 5.5l-31 13q-11 5 -10 14q6 3 7 8l17 30q5 9 10.5 8.5t7.5 -9.5l10 -33q7 -23 22 -5l23 26
q6 8 11 6.5t6 -11.5l2 -35q1 -10 7.5 -12.5t13.5 3.5l28 21q7 6 11.5 3t3.5 -13l-5 -34q-1 -10 5 -14t14 1l31 16q9 4 13 0t0 -14l-11 -31q-3 -10 1.5 -15t13.5 -2l34 7q10 3 13 -1t-2 -13l-18 -29q-6 -8 -3 -14.5t13 -5.5l35 2q10 0 12 -5t-4 -12l-24 -26q-7 -7 -5 -13.5
t12 -7.5l34 -6q20 -5 3 -19l-28 -19q-8 -5 -7.5 -11.5t10.5 -10.5l31 -13q9 -4 9 -9t-9 -9zM364 164q69 0 135 52.5t104.5 127t38.5 139.5q0 31 -20 49q12 -18 12 -41q0 -103 -85 -210q-92 -113 -196 -113q-29 0 -49 9q20 -13 60 -13z" />
    <glyph glyph-name="hyphen" unicode="-" 
d="M745 367q-9 -4 -10 -11t7 -12l28 -20q8 -5 7.5 -10.5t-10.5 -7.5l-34 -6q-10 -1 -12 -8t5 -14l24 -24q6 -7 4 -12t-12 -5l-35 2q-10 0 -13 -6t3 -14l18 -30q5 -8 2 -12.5t-13 -2.5l-34 9q-9 3 -13.5 -2.5t-1.5 -14.5l11 -33q4 -9 0 -12.5t-13 0.5l-31 15q-8 5 -14 0.5
t-5 -14.5l5 -33q1 -10 -3 -12.5t-12 3.5l-28 21q-8 6 -14 3t-7 -13l-2 -34q-1 -10 -6 -11.5t-11 5.5l-23 27q-16 16 -22 -5l-10 -33q-2 -10 -8 -10t-10 8l-17 30q-10 20 -23 0l-15 -30q-4 -8 -10 -8t-8 10l-10 33q-6 21 -22 5l-23 -27q-14 -15 -17 6l-2 34q-1 10 -7.5 13
t-14.5 -3l-26 -21q-8 -6 -13 -3.5t-3 12.5l5 33q1 10 -5 14.5t-15 -0.5l-30 -15q-9 -4 -13 -0.5t0 12.5l11 33q4 9 -1 14.5t-14 2.5l-34 -9q-10 -2 -13 2.5t2 12.5l19 30q5 8 2 14t-13 6l-35 -2q-10 0 -12 5t4 12l25 24q6 7 4 14t-12 8l-33 6q-7 1 -10 4t-1 7t7 7l28 20l6 6
q9 8 18 -6l16 -31q5 -9 10 -8t8 10l9 34q2 6 5.5 8.5t8 1.5t8.5 -6l23 -26q7 -7 11.5 -5.5t5.5 11.5l2 34q2 10 7.5 12.5t13.5 -3.5l28 -21q8 -6 12.5 -3.5t2.5 12.5l-4 34q-1 10 4.5 14t13.5 -1l31 -14q9 -4 13 -0.5t1 12.5l-11 33q-4 9 0.5 14t13.5 2l7 -1
q20 -38 34.5 -99t14.5 -106q-14 -18 -46 -18h-4q0 22 -16 35q9 -10 9 -27v-7q-16 1 -16 19q0 21 -13.5 35t-37.5 14q-20 0 -33.5 -15.5t-13.5 -38.5q0 -29 24.5 -47t67.5 -18q68 0 134.5 53t105 127t38.5 139q0 29 -18 48t-46 19q-23 0 -41.5 -16.5t-18.5 -41.5
q0 -52 58 -58q-15 -60 -29 -85q-13 102 -58 150q44 -58 52 -161l-14 -20q0 76 -25 140t-64 84q-6 11 12 15l34 6q9 2 10 7t-7 10l-29 19q-17 15 3 23l31 14q7 2 9.5 5.5t0 7t-9.5 5.5l-31 13q-11 5 -10 14q6 3 7 8l17 30q5 9 10.5 8.5t7.5 -9.5l10 -33q7 -23 22 -5l23 26
q6 8 11 6.5t6 -11.5l2 -35q1 -10 7.5 -12.5t13.5 3.5l28 21q7 6 11.5 3t3.5 -13l-5 -34q-1 -10 5 -14t14 1l31 16q9 4 13 0t0 -14l-11 -31q-3 -10 1.5 -15t13.5 -2l34 7q10 3 13 -1t-2 -13l-18 -29q-6 -8 -3 -14.5t13 -5.5l35 2q10 0 12 -5t-4 -12l-24 -26q-7 -7 -5 -13.5
t12 -7.5l34 -6q20 -5 3 -19l-28 -19q-8 -5 -7.5 -11.5t10.5 -10.5l31 -13q9 -4 9 -9t-9 -9zM364 164q69 0 135 52.5t104.5 127t38.5 139.5q0 31 -20 49q12 -18 12 -41q0 -103 -85 -210q-92 -113 -196 -113q-29 0 -49 9q20 -13 60 -13z" />
    <glyph glyph-name="period" unicode="." 
d="M745 367q-9 -4 -10 -11t7 -12l28 -20q8 -5 7.5 -10.5t-10.5 -7.5l-34 -6q-10 -1 -12 -8t5 -14l24 -24q6 -7 4 -12t-12 -5l-35 2q-10 0 -13 -6t3 -14l18 -30q5 -8 2 -12.5t-13 -2.5l-34 9q-9 3 -13.5 -2.5t-1.5 -14.5l11 -33q4 -9 0 -12.5t-13 0.5l-31 15q-8 5 -14 0.5
t-5 -14.5l5 -33q1 -10 -3 -12.5t-12 3.5l-28 21q-8 6 -14 3t-7 -13l-2 -34q-1 -10 -6 -11.5t-11 5.5l-23 27q-16 16 -22 -5l-10 -33q-2 -10 -8 -10t-10 8l-17 30q-10 20 -23 0l-15 -30q-4 -8 -10 -8t-8 10l-10 33q-6 21 -22 5l-23 -27q-14 -15 -17 6l-2 34q-1 10 -7.5 13
t-14.5 -3l-26 -21q-8 -6 -13 -3.5t-3 12.5l5 33q1 10 -5 14.5t-15 -0.5l-30 -15q-9 -4 -13 -0.5t0 12.5l11 33q4 9 -1 14.5t-14 2.5l-34 -9q-10 -2 -13 2.5t2 12.5l19 30q5 8 2 14t-13 6l-35 -2q-10 0 -12 5t4 12l25 24q6 7 4 14t-12 8l-33 6q-7 1 -10 4t-1 7t7 7l28 20l6 6
q9 8 18 -6l16 -31q5 -9 10 -8t8 10l9 34q2 6 5.5 8.5t8 1.5t8.5 -6l23 -26q7 -7 11.5 -5.5t5.5 11.5l2 34q2 10 7.5 12.5t13.5 -3.5l28 -21q8 -6 12.5 -3.5t2.5 12.5l-4 34q-1 10 4.5 14t13.5 -1l31 -14q9 -4 13 -0.5t1 12.5l-11 33q-4 9 0.5 14t13.5 2l7 -1
q20 -38 34.5 -99t14.5 -106q-14 -18 -46 -18h-4q0 22 -16 35q9 -10 9 -27v-7q-16 1 -16 19q0 21 -13.5 35t-37.5 14q-20 0 -33.5 -15.5t-13.5 -38.5q0 -29 24.5 -47t67.5 -18q68 0 134.5 53t105 127t38.5 139q0 29 -18 48t-46 19q-23 0 -41.5 -16.5t-18.5 -41.5
q0 -52 58 -58q-15 -60 -29 -85q-13 102 -58 150q44 -58 52 -161l-14 -20q0 76 -25 140t-64 84q-6 11 12 15l34 6q9 2 10 7t-7 10l-29 19q-17 15 3 23l31 14q7 2 9.5 5.5t0 7t-9.5 5.5l-31 13q-11 5 -10 14q6 3 7 8l17 30q5 9 10.5 8.5t7.5 -9.5l10 -33q7 -23 22 -5l23 26
q6 8 11 6.5t6 -11.5l2 -35q1 -10 7.5 -12.5t13.5 3.5l28 21q7 6 11.5 3t3.5 -13l-5 -34q-1 -10 5 -14t14 1l31 16q9 4 13 0t0 -14l-11 -31q-3 -10 1.5 -15t13.5 -2l34 7q10 3 13 -1t-2 -13l-18 -29q-6 -8 -3 -14.5t13 -5.5l35 2q10 0 12 -5t-4 -12l-24 -26q-7 -7 -5 -13.5
t12 -7.5l34 -6q20 -5 3 -19l-28 -19q-8 -5 -7.5 -11.5t10.5 -10.5l31 -13q9 -4 9 -9t-9 -9zM364 164q69 0 135 52.5t104.5 127t38.5 139.5q0 31 -20 49q12 -18 12 -41q0 -103 -85 -210q-92 -113 -196 -113q-29 0 -49 9q20 -13 60 -13z" />
    <glyph glyph-name="slash" unicode="/" 
d="M745 367q-9 -4 -10 -11t7 -12l28 -20q8 -5 7.5 -10.5t-10.5 -7.5l-34 -6q-10 -1 -12 -8t5 -14l24 -24q6 -7 4 -12t-12 -5l-35 2q-10 0 -13 -6t3 -14l18 -30q5 -8 2 -12.5t-13 -2.5l-34 9q-9 3 -13.5 -2.5t-1.5 -14.5l11 -33q4 -9 0 -12.5t-13 0.5l-31 15q-8 5 -14 0.5
t-5 -14.5l5 -33q1 -10 -3 -12.5t-12 3.5l-28 21q-8 6 -14 3t-7 -13l-2 -34q-1 -10 -6 -11.5t-11 5.5l-23 27q-16 16 -22 -5l-10 -33q-2 -10 -8 -10t-10 8l-17 30q-10 20 -23 0l-15 -30q-4 -8 -10 -8t-8 10l-10 33q-6 21 -22 5l-23 -27q-14 -15 -17 6l-2 34q-1 10 -7.5 13
t-14.5 -3l-26 -21q-8 -6 -13 -3.5t-3 12.5l5 33q1 10 -5 14.5t-15 -0.5l-30 -15q-9 -4 -13 -0.5t0 12.5l11 33q4 9 -1 14.5t-14 2.5l-34 -9q-10 -2 -13 2.5t2 12.5l19 30q5 8 2 14t-13 6l-35 -2q-10 0 -12 5t4 12l25 24q6 7 4 14t-12 8l-33 6q-7 1 -10 4t-1 7t7 7l28 20l6 6
q9 8 18 -6l16 -31q5 -9 10 -8t8 10l9 34q2 6 5.5 8.5t8 1.5t8.5 -6l23 -26q7 -7 11.5 -5.5t5.5 11.5l2 34q2 10 7.5 12.5t13.5 -3.5l28 -21q8 -6 12.5 -3.5t2.5 12.5l-4 34q-1 10 4.5 14t13.5 -1l31 -14q9 -4 13 -0.5t1 12.5l-11 33q-4 9 0.5 14t13.5 2l7 -1
q20 -38 34.5 -99t14.5 -106q-14 -18 -46 -18h-4q0 22 -16 35q9 -10 9 -27v-7q-16 1 -16 19q0 21 -13.5 35t-37.5 14q-20 0 -33.5 -15.5t-13.5 -38.5q0 -29 24.5 -47t67.5 -18q68 0 134.5 53t105 127t38.5 139q0 29 -18 48t-46 19q-23 0 -41.5 -16.5t-18.5 -41.5
q0 -52 58 -58q-15 -60 -29 -85q-13 102 -58 150q44 -58 52 -161l-14 -20q0 76 -25 140t-64 84q-6 11 12 15l34 6q9 2 10 7t-7 10l-29 19q-17 15 3 23l31 14q7 2 9.5 5.5t0 7t-9.5 5.5l-31 13q-11 5 -10 14q6 3 7 8l17 30q5 9 10.5 8.5t7.5 -9.5l10 -33q7 -23 22 -5l23 26
q6 8 11 6.5t6 -11.5l2 -35q1 -10 7.5 -12.5t13.5 3.5l28 21q7 6 11.5 3t3.5 -13l-5 -34q-1 -10 5 -14t14 1l31 16q9 4 13 0t0 -14l-11 -31q-3 -10 1.5 -15t13.5 -2l34 7q10 3 13 -1t-2 -13l-18 -29q-6 -8 -3 -14.5t13 -5.5l35 2q10 0 12 -5t-4 -12l-24 -26q-7 -7 -5 -13.5
t12 -7.5l34 -6q20 -5 3 -19l-28 -19q-8 -5 -7.5 -11.5t10.5 -10.5l31 -13q9 -4 9 -9t-9 -9zM364 164q69 0 135 52.5t104.5 127t38.5 139.5q0 31 -20 49q12 -18 12 -41q0 -103 -85 -210q-92 -113 -196 -113q-29 0 -49 9q20 -13 60 -13z" />
    <glyph glyph-name="zero" unicode="0" 
d="M745 367q-9 -4 -10 -11t7 -12l28 -20q8 -5 7.5 -10.5t-10.5 -7.5l-34 -6q-10 -1 -12 -8t5 -14l24 -24q6 -7 4 -12t-12 -5l-35 2q-10 0 -13 -6t3 -14l18 -30q5 -8 2 -12.5t-13 -2.5l-34 9q-9 3 -13.5 -2.5t-1.5 -14.5l11 -33q4 -9 0 -12.5t-13 0.5l-31 15q-8 5 -14 0.5
t-5 -14.5l5 -33q1 -10 -3 -12.5t-12 3.5l-28 21q-8 6 -14 3t-7 -13l-2 -34q-1 -10 -6 -11.5t-11 5.5l-23 27q-16 16 -22 -5l-10 -33q-2 -10 -8 -10t-10 8l-17 30q-10 20 -23 0l-15 -30q-4 -8 -10 -8t-8 10l-10 33q-6 21 -22 5l-23 -27q-14 -15 -17 6l-2 34q-1 10 -7.5 13
t-14.5 -3l-26 -21q-8 -6 -13 -3.5t-3 12.5l5 33q1 10 -5 14.5t-15 -0.5l-30 -15q-9 -4 -13 -0.5t0 12.5l11 33q4 9 -1 14.5t-14 2.5l-34 -9q-10 -2 -13 2.5t2 12.5l19 30q5 8 2 14t-13 6l-35 -2q-10 0 -12 5t4 12l25 24q6 7 4 14t-12 8l-33 6q-7 1 -10 4t-1 7t7 7l28 20l6 6
q9 8 18 -6l16 -31q5 -9 10 -8t8 10l9 34q2 6 5.5 8.5t8 1.5t8.5 -6l23 -26q7 -7 11.5 -5.5t5.5 11.5l2 34q2 10 7.5 12.5t13.5 -3.5l28 -21q8 -6 12.5 -3.5t2.5 12.5l-4 34q-1 10 4.5 14t13.5 -1l31 -14q9 -4 13 -0.5t1 12.5l-11 33q-4 9 0.5 14t13.5 2l7 -1
q20 -38 34.5 -99t14.5 -106q-14 -18 -46 -18h-4q0 22 -16 35q9 -10 9 -27v-7q-16 1 -16 19q0 21 -13.5 35t-37.5 14q-20 0 -33.5 -15.5t-13.5 -38.5q0 -29 24.5 -47t67.5 -18q68 0 134.5 53t105 127t38.5 139q0 29 -18 48t-46 19q-23 0 -41.5 -16.5t-18.5 -41.5
q0 -52 58 -58q-15 -60 -29 -85q-13 102 -58 150q44 -58 52 -161l-14 -20q0 76 -25 140t-64 84q-6 11 12 15l34 6q9 2 10 7t-7 10l-29 19q-17 15 3 23l31 14q7 2 9.5 5.5t0 7t-9.5 5.5l-31 13q-11 5 -10 14q6 3 7 8l17 30q5 9 10.5 8.5t7.5 -9.5l10 -33q7 -23 22 -5l23 26
q6 8 11 6.5t6 -11.5l2 -35q1 -10 7.5 -12.5t13.5 3.5l28 21q7 6 11.5 3t3.5 -13l-5 -34q-1 -10 5 -14t14 1l31 16q9 4 13 0t0 -14l-11 -31q-3 -10 1.5 -15t13.5 -2l34 7q10 3 13 -1t-2 -13l-18 -29q-6 -8 -3 -14.5t13 -5.5l35 2q10 0 12 -5t-4 -12l-24 -26q-7 -7 -5 -13.5
t12 -7.5l34 -6q20 -5 3 -19l-28 -19q-8 -5 -7.5 -11.5t10.5 -10.5l31 -13q9 -4 9 -9t-9 -9zM364 164q69 0 135 52.5t104.5 127t38.5 139.5q0 31 -20 49q12 -18 12 -41q0 -103 -85 -210q-92 -113 -196 -113q-29 0 -49 9q20 -13 60 -13z" />
    <glyph glyph-name="one" unicode="1" 
d="M745 367q-9 -4 -10 -11t7 -12l28 -20q8 -5 7.5 -10.5t-10.5 -7.5l-34 -6q-10 -1 -12 -8t5 -14l24 -24q6 -7 4 -12t-12 -5l-35 2q-10 0 -13 -6t3 -14l18 -30q5 -8 2 -12.5t-13 -2.5l-34 9q-9 3 -13.5 -2.5t-1.5 -14.5l11 -33q4 -9 0 -12.5t-13 0.5l-31 15q-8 5 -14 0.5
t-5 -14.5l5 -33q1 -10 -3 -12.5t-12 3.5l-28 21q-8 6 -14 3t-7 -13l-2 -34q-1 -10 -6 -11.5t-11 5.5l-23 27q-16 16 -22 -5l-10 -33q-2 -10 -8 -10t-10 8l-17 30q-10 20 -23 0l-15 -30q-4 -8 -10 -8t-8 10l-10 33q-6 21 -22 5l-23 -27q-14 -15 -17 6l-2 34q-1 10 -7.5 13
t-14.5 -3l-26 -21q-8 -6 -13 -3.5t-3 12.5l5 33q1 10 -5 14.5t-15 -0.5l-30 -15q-9 -4 -13 -0.5t0 12.5l11 33q4 9 -1 14.5t-14 2.5l-34 -9q-10 -2 -13 2.5t2 12.5l19 30q5 8 2 14t-13 6l-35 -2q-10 0 -12 5t4 12l25 24q6 7 4 14t-12 8l-33 6q-7 1 -10 4t-1 7t7 7l28 20l6 6
q9 8 18 -6l16 -31q5 -9 10 -8t8 10l9 34q2 6 5.5 8.5t8 1.5t8.5 -6l23 -26q7 -7 11.5 -5.5t5.5 11.5l2 34q2 10 7.5 12.5t13.5 -3.5l28 -21q8 -6 12.5 -3.5t2.5 12.5l-4 34q-1 10 4.5 14t13.5 -1l31 -14q9 -4 13 -0.5t1 12.5l-11 33q-4 9 0.5 14t13.5 2l7 -1
q20 -38 34.5 -99t14.5 -106q-14 -18 -46 -18h-4q0 22 -16 35q9 -10 9 -27v-7q-16 1 -16 19q0 21 -13.5 35t-37.5 14q-20 0 -33.5 -15.5t-13.5 -38.5q0 -29 24.5 -47t67.5 -18q68 0 134.5 53t105 127t38.5 139q0 29 -18 48t-46 19q-23 0 -41.5 -16.5t-18.5 -41.5
q0 -52 58 -58q-15 -60 -29 -85q-13 102 -58 150q44 -58 52 -161l-14 -20q0 76 -25 140t-64 84q-6 11 12 15l34 6q9 2 10 7t-7 10l-29 19q-17 15 3 23l31 14q7 2 9.5 5.5t0 7t-9.5 5.5l-31 13q-11 5 -10 14q6 3 7 8l17 30q5 9 10.5 8.5t7.5 -9.5l10 -33q7 -23 22 -5l23 26
q6 8 11 6.5t6 -11.5l2 -35q1 -10 7.5 -12.5t13.5 3.5l28 21q7 6 11.5 3t3.5 -13l-5 -34q-1 -10 5 -14t14 1l31 16q9 4 13 0t0 -14l-11 -31q-3 -10 1.5 -15t13.5 -2l34 7q10 3 13 -1t-2 -13l-18 -29q-6 -8 -3 -14.5t13 -5.5l35 2q10 0 12 -5t-4 -12l-24 -26q-7 -7 -5 -13.5
t12 -7.5l34 -6q20 -5 3 -19l-28 -19q-8 -5 -7.5 -11.5t10.5 -10.5l31 -13q9 -4 9 -9t-9 -9zM364 164q69 0 135 52.5t104.5 127t38.5 139.5q0 31 -20 49q12 -18 12 -41q0 -103 -85 -210q-92 -113 -196 -113q-29 0 -49 9q20 -13 60 -13z" />
    <glyph glyph-name="two" unicode="2" 
d="M745 367q-9 -4 -10 -11t7 -12l28 -20q8 -5 7.5 -10.5t-10.5 -7.5l-34 -6q-10 -1 -12 -8t5 -14l24 -24q6 -7 4 -12t-12 -5l-35 2q-10 0 -13 -6t3 -14l18 -30q5 -8 2 -12.5t-13 -2.5l-34 9q-9 3 -13.5 -2.5t-1.5 -14.5l11 -33q4 -9 0 -12.5t-13 0.5l-31 15q-8 5 -14 0.5
t-5 -14.5l5 -33q1 -10 -3 -12.5t-12 3.5l-28 21q-8 6 -14 3t-7 -13l-2 -34q-1 -10 -6 -11.5t-11 5.5l-23 27q-16 16 -22 -5l-10 -33q-2 -10 -8 -10t-10 8l-17 30q-10 20 -23 0l-15 -30q-4 -8 -10 -8t-8 10l-10 33q-6 21 -22 5l-23 -27q-14 -15 -17 6l-2 34q-1 10 -7.5 13
t-14.5 -3l-26 -21q-8 -6 -13 -3.5t-3 12.5l5 33q1 10 -5 14.5t-15 -0.5l-30 -15q-9 -4 -13 -0.5t0 12.5l11 33q4 9 -1 14.5t-14 2.5l-34 -9q-10 -2 -13 2.5t2 12.5l19 30q5 8 2 14t-13 6l-35 -2q-10 0 -12 5t4 12l25 24q6 7 4 14t-12 8l-33 6q-7 1 -10 4t-1 7t7 7l28 20l6 6
q9 8 18 -6l16 -31q5 -9 10 -8t8 10l9 34q2 6 5.5 8.5t8 1.5t8.5 -6l23 -26q7 -7 11.5 -5.5t5.5 11.5l2 34q2 10 7.5 12.5t13.5 -3.5l28 -21q8 -6 12.5 -3.5t2.5 12.5l-4 34q-1 10 4.5 14t13.5 -1l31 -14q9 -4 13 -0.5t1 12.5l-11 33q-4 9 0.5 14t13.5 2l7 -1
q20 -38 34.5 -99t14.5 -106q-14 -18 -46 -18h-4q0 22 -16 35q9 -10 9 -27v-7q-16 1 -16 19q0 21 -13.5 35t-37.5 14q-20 0 -33.5 -15.5t-13.5 -38.5q0 -29 24.5 -47t67.5 -18q68 0 134.5 53t105 127t38.5 139q0 29 -18 48t-46 19q-23 0 -41.5 -16.5t-18.5 -41.5
q0 -52 58 -58q-15 -60 -29 -85q-13 102 -58 150q44 -58 52 -161l-14 -20q0 76 -25 140t-64 84q-6 11 12 15l34 6q9 2 10 7t-7 10l-29 19q-17 15 3 23l31 14q7 2 9.5 5.5t0 7t-9.5 5.5l-31 13q-11 5 -10 14q6 3 7 8l17 30q5 9 10.5 8.5t7.5 -9.5l10 -33q7 -23 22 -5l23 26
q6 8 11 6.5t6 -11.5l2 -35q1 -10 7.5 -12.5t13.5 3.5l28 21q7 6 11.5 3t3.5 -13l-5 -34q-1 -10 5 -14t14 1l31 16q9 4 13 0t0 -14l-11 -31q-3 -10 1.5 -15t13.5 -2l34 7q10 3 13 -1t-2 -13l-18 -29q-6 -8 -3 -14.5t13 -5.5l35 2q10 0 12 -5t-4 -12l-24 -26q-7 -7 -5 -13.5
t12 -7.5l34 -6q20 -5 3 -19l-28 -19q-8 -5 -7.5 -11.5t10.5 -10.5l31 -13q9 -4 9 -9t-9 -9zM364 164q69 0 135 52.5t104.5 127t38.5 139.5q0 31 -20 49q12 -18 12 -41q0 -103 -85 -210q-92 -113 -196 -113q-29 0 -49 9q20 -13 60 -13z" />
    <glyph glyph-name="three" unicode="3" 
d="M745 367q-9 -4 -10 -11t7 -12l28 -20q8 -5 7.5 -10.5t-10.5 -7.5l-34 -6q-10 -1 -12 -8t5 -14l24 -24q6 -7 4 -12t-12 -5l-35 2q-10 0 -13 -6t3 -14l18 -30q5 -8 2 -12.5t-13 -2.5l-34 9q-9 3 -13.5 -2.5t-1.5 -14.5l11 -33q4 -9 0 -12.5t-13 0.5l-31 15q-8 5 -14 0.5
t-5 -14.5l5 -33q1 -10 -3 -12.5t-12 3.5l-28 21q-8 6 -14 3t-7 -13l-2 -34q-1 -10 -6 -11.5t-11 5.5l-23 27q-16 16 -22 -5l-10 -33q-2 -10 -8 -10t-10 8l-17 30q-10 20 -23 0l-15 -30q-4 -8 -10 -8t-8 10l-10 33q-6 21 -22 5l-23 -27q-14 -15 -17 6l-2 34q-1 10 -7.5 13
t-14.5 -3l-26 -21q-8 -6 -13 -3.5t-3 12.5l5 33q1 10 -5 14.5t-15 -0.5l-30 -15q-9 -4 -13 -0.5t0 12.5l11 33q4 9 -1 14.5t-14 2.5l-34 -9q-10 -2 -13 2.5t2 12.5l19 30q5 8 2 14t-13 6l-35 -2q-10 0 -12 5t4 12l25 24q6 7 4 14t-12 8l-33 6q-7 1 -10 4t-1 7t7 7l28 20l6 6
q9 8 18 -6l16 -31q5 -9 10 -8t8 10l9 34q2 6 5.5 8.5t8 1.5t8.5 -6l23 -26q7 -7 11.5 -5.5t5.5 11.5l2 34q2 10 7.5 12.5t13.5 -3.5l28 -21q8 -6 12.5 -3.5t2.5 12.5l-4 34q-1 10 4.5 14t13.5 -1l31 -14q9 -4 13 -0.5t1 12.5l-11 33q-4 9 0.5 14t13.5 2l7 -1
q20 -38 34.5 -99t14.5 -106q-14 -18 -46 -18h-4q0 22 -16 35q9 -10 9 -27v-7q-16 1 -16 19q0 21 -13.5 35t-37.5 14q-20 0 -33.5 -15.5t-13.5 -38.5q0 -29 24.5 -47t67.5 -18q68 0 134.5 53t105 127t38.5 139q0 29 -18 48t-46 19q-23 0 -41.5 -16.5t-18.5 -41.5
q0 -52 58 -58q-15 -60 -29 -85q-13 102 -58 150q44 -58 52 -161l-14 -20q0 76 -25 140t-64 84q-6 11 12 15l34 6q9 2 10 7t-7 10l-29 19q-17 15 3 23l31 14q7 2 9.5 5.5t0 7t-9.5 5.5l-31 13q-11 5 -10 14q6 3 7 8l17 30q5 9 10.5 8.5t7.5 -9.5l10 -33q7 -23 22 -5l23 26
q6 8 11 6.5t6 -11.5l2 -35q1 -10 7.5 -12.5t13.5 3.5l28 21q7 6 11.5 3t3.5 -13l-5 -34q-1 -10 5 -14t14 1l31 16q9 4 13 0t0 -14l-11 -31q-3 -10 1.5 -15t13.5 -2l34 7q10 3 13 -1t-2 -13l-18 -29q-6 -8 -3 -14.5t13 -5.5l35 2q10 0 12 -5t-4 -12l-24 -26q-7 -7 -5 -13.5
t12 -7.5l34 -6q20 -5 3 -19l-28 -19q-8 -5 -7.5 -11.5t10.5 -10.5l31 -13q9 -4 9 -9t-9 -9zM364 164q69 0 135 52.5t104.5 127t38.5 139.5q0 31 -20 49q12 -18 12 -41q0 -103 -85 -210q-92 -113 -196 -113q-29 0 -49 9q20 -13 60 -13z" />
    <glyph glyph-name="four" unicode="4" 
d="M745 367q-9 -4 -10 -11t7 -12l28 -20q8 -5 7.5 -10.5t-10.5 -7.5l-34 -6q-10 -1 -12 -8t5 -14l24 -24q6 -7 4 -12t-12 -5l-35 2q-10 0 -13 -6t3 -14l18 -30q5 -8 2 -12.5t-13 -2.5l-34 9q-9 3 -13.5 -2.5t-1.5 -14.5l11 -33q4 -9 0 -12.5t-13 0.5l-31 15q-8 5 -14 0.5
t-5 -14.5l5 -33q1 -10 -3 -12.5t-12 3.5l-28 21q-8 6 -14 3t-7 -13l-2 -34q-1 -10 -6 -11.5t-11 5.5l-23 27q-16 16 -22 -5l-10 -33q-2 -10 -8 -10t-10 8l-17 30q-10 20 -23 0l-15 -30q-4 -8 -10 -8t-8 10l-10 33q-6 21 -22 5l-23 -27q-14 -15 -17 6l-2 34q-1 10 -7.5 13
t-14.5 -3l-26 -21q-8 -6 -13 -3.5t-3 12.5l5 33q1 10 -5 14.5t-15 -0.5l-30 -15q-9 -4 -13 -0.5t0 12.5l11 33q4 9 -1 14.5t-14 2.5l-34 -9q-10 -2 -13 2.5t2 12.5l19 30q5 8 2 14t-13 6l-35 -2q-10 0 -12 5t4 12l25 24q6 7 4 14t-12 8l-33 6q-7 1 -10 4t-1 7t7 7l28 20l6 6
q9 8 18 -6l16 -31q5 -9 10 -8t8 10l9 34q2 6 5.5 8.5t8 1.5t8.5 -6l23 -26q7 -7 11.5 -5.5t5.5 11.5l2 34q2 10 7.5 12.5t13.5 -3.5l28 -21q8 -6 12.5 -3.5t2.5 12.5l-4 34q-1 10 4.5 14t13.5 -1l31 -14q9 -4 13 -0.5t1 12.5l-11 33q-4 9 0.5 14t13.5 2l7 -1
q20 -38 34.5 -99t14.5 -106q-14 -18 -46 -18h-4q0 22 -16 35q9 -10 9 -27v-7q-16 1 -16 19q0 21 -13.5 35t-37.5 14q-20 0 -33.5 -15.5t-13.5 -38.5q0 -29 24.5 -47t67.5 -18q68 0 134.5 53t105 127t38.5 139q0 29 -18 48t-46 19q-23 0 -41.5 -16.5t-18.5 -41.5
q0 -52 58 -58q-15 -60 -29 -85q-13 102 -58 150q44 -58 52 -161l-14 -20q0 76 -25 140t-64 84q-6 11 12 15l34 6q9 2 10 7t-7 10l-29 19q-17 15 3 23l31 14q7 2 9.5 5.5t0 7t-9.5 5.5l-31 13q-11 5 -10 14q6 3 7 8l17 30q5 9 10.5 8.5t7.5 -9.5l10 -33q7 -23 22 -5l23 26
q6 8 11 6.5t6 -11.5l2 -35q1 -10 7.5 -12.5t13.5 3.5l28 21q7 6 11.5 3t3.5 -13l-5 -34q-1 -10 5 -14t14 1l31 16q9 4 13 0t0 -14l-11 -31q-3 -10 1.5 -15t13.5 -2l34 7q10 3 13 -1t-2 -13l-18 -29q-6 -8 -3 -14.5t13 -5.5l35 2q10 0 12 -5t-4 -12l-24 -26q-7 -7 -5 -13.5
t12 -7.5l34 -6q20 -5 3 -19l-28 -19q-8 -5 -7.5 -11.5t10.5 -10.5l31 -13q9 -4 9 -9t-9 -9zM364 164q69 0 135 52.5t104.5 127t38.5 139.5q0 31 -20 49q12 -18 12 -41q0 -103 -85 -210q-92 -113 -196 -113q-29 0 -49 9q20 -13 60 -13z" />
    <glyph glyph-name="five" unicode="5" 
d="M745 367q-9 -4 -10 -11t7 -12l28 -20q8 -5 7.5 -10.5t-10.5 -7.5l-34 -6q-10 -1 -12 -8t5 -14l24 -24q6 -7 4 -12t-12 -5l-35 2q-10 0 -13 -6t3 -14l18 -30q5 -8 2 -12.5t-13 -2.5l-34 9q-9 3 -13.5 -2.5t-1.5 -14.5l11 -33q4 -9 0 -12.5t-13 0.5l-31 15q-8 5 -14 0.5
t-5 -14.5l5 -33q1 -10 -3 -12.5t-12 3.5l-28 21q-8 6 -14 3t-7 -13l-2 -34q-1 -10 -6 -11.5t-11 5.5l-23 27q-16 16 -22 -5l-10 -33q-2 -10 -8 -10t-10 8l-17 30q-10 20 -23 0l-15 -30q-4 -8 -10 -8t-8 10l-10 33q-6 21 -22 5l-23 -27q-14 -15 -17 6l-2 34q-1 10 -7.5 13
t-14.5 -3l-26 -21q-8 -6 -13 -3.5t-3 12.5l5 33q1 10 -5 14.5t-15 -0.5l-30 -15q-9 -4 -13 -0.5t0 12.5l11 33q4 9 -1 14.5t-14 2.5l-34 -9q-10 -2 -13 2.5t2 12.5l19 30q5 8 2 14t-13 6l-35 -2q-10 0 -12 5t4 12l25 24q6 7 4 14t-12 8l-33 6q-7 1 -10 4t-1 7t7 7l28 20l6 6
q9 8 18 -6l16 -31q5 -9 10 -8t8 10l9 34q2 6 5.5 8.5t8 1.5t8.5 -6l23 -26q7 -7 11.5 -5.5t5.5 11.5l2 34q2 10 7.5 12.5t13.5 -3.5l28 -21q8 -6 12.5 -3.5t2.5 12.5l-4 34q-1 10 4.5 14t13.5 -1l31 -14q9 -4 13 -0.5t1 12.5l-11 33q-4 9 0.5 14t13.5 2l7 -1
q20 -38 34.5 -99t14.5 -106q-14 -18 -46 -18h-4q0 22 -16 35q9 -10 9 -27v-7q-16 1 -16 19q0 21 -13.5 35t-37.5 14q-20 0 -33.5 -15.5t-13.5 -38.5q0 -29 24.5 -47t67.5 -18q68 0 134.5 53t105 127t38.5 139q0 29 -18 48t-46 19q-23 0 -41.5 -16.5t-18.5 -41.5
q0 -52 58 -58q-15 -60 -29 -85q-13 102 -58 150q44 -58 52 -161l-14 -20q0 76 -25 140t-64 84q-6 11 12 15l34 6q9 2 10 7t-7 10l-29 19q-17 15 3 23l31 14q7 2 9.5 5.5t0 7t-9.5 5.5l-31 13q-11 5 -10 14q6 3 7 8l17 30q5 9 10.5 8.5t7.5 -9.5l10 -33q7 -23 22 -5l23 26
q6 8 11 6.5t6 -11.5l2 -35q1 -10 7.5 -12.5t13.5 3.5l28 21q7 6 11.5 3t3.5 -13l-5 -34q-1 -10 5 -14t14 1l31 16q9 4 13 0t0 -14l-11 -31q-3 -10 1.5 -15t13.5 -2l34 7q10 3 13 -1t-2 -13l-18 -29q-6 -8 -3 -14.5t13 -5.5l35 2q10 0 12 -5t-4 -12l-24 -26q-7 -7 -5 -13.5
t12 -7.5l34 -6q20 -5 3 -19l-28 -19q-8 -5 -7.5 -11.5t10.5 -10.5l31 -13q9 -4 9 -9t-9 -9zM364 164q69 0 135 52.5t104.5 127t38.5 139.5q0 31 -20 49q12 -18 12 -41q0 -103 -85 -210q-92 -113 -196 -113q-29 0 -49 9q20 -13 60 -13z" />
    <glyph glyph-name="six" unicode="6" 
d="M745 367q-9 -4 -10 -11t7 -12l28 -20q8 -5 7.5 -10.5t-10.5 -7.5l-34 -6q-10 -1 -12 -8t5 -14l24 -24q6 -7 4 -12t-12 -5l-35 2q-10 0 -13 -6t3 -14l18 -30q5 -8 2 -12.5t-13 -2.5l-34 9q-9 3 -13.5 -2.5t-1.5 -14.5l11 -33q4 -9 0 -12.5t-13 0.5l-31 15q-8 5 -14 0.5
t-5 -14.5l5 -33q1 -10 -3 -12.5t-12 3.5l-28 21q-8 6 -14 3t-7 -13l-2 -34q-1 -10 -6 -11.5t-11 5.5l-23 27q-16 16 -22 -5l-10 -33q-2 -10 -8 -10t-10 8l-17 30q-10 20 -23 0l-15 -30q-4 -8 -10 -8t-8 10l-10 33q-6 21 -22 5l-23 -27q-14 -15 -17 6l-2 34q-1 10 -7.5 13
t-14.5 -3l-26 -21q-8 -6 -13 -3.5t-3 12.5l5 33q1 10 -5 14.5t-15 -0.5l-30 -15q-9 -4 -13 -0.5t0 12.5l11 33q4 9 -1 14.5t-14 2.5l-34 -9q-10 -2 -13 2.5t2 12.5l19 30q5 8 2 14t-13 6l-35 -2q-10 0 -12 5t4 12l25 24q6 7 4 14t-12 8l-33 6q-7 1 -10 4t-1 7t7 7l28 20l6 6
q9 8 18 -6l16 -31q5 -9 10 -8t8 10l9 34q2 6 5.5 8.5t8 1.5t8.5 -6l23 -26q7 -7 11.5 -5.5t5.5 11.5l2 34q2 10 7.5 12.5t13.5 -3.5l28 -21q8 -6 12.5 -3.5t2.5 12.5l-4 34q-1 10 4.5 14t13.5 -1l31 -14q9 -4 13 -0.5t1 12.5l-11 33q-4 9 0.5 14t13.5 2l7 -1
q20 -38 34.5 -99t14.5 -106q-14 -18 -46 -18h-4q0 22 -16 35q9 -10 9 -27v-7q-16 1 -16 19q0 21 -13.5 35t-37.5 14q-20 0 -33.5 -15.5t-13.5 -38.5q0 -29 24.5 -47t67.5 -18q68 0 134.5 53t105 127t38.5 139q0 29 -18 48t-46 19q-23 0 -41.5 -16.5t-18.5 -41.5
q0 -52 58 -58q-15 -60 -29 -85q-13 102 -58 150q44 -58 52 -161l-14 -20q0 76 -25 140t-64 84q-6 11 12 15l34 6q9 2 10 7t-7 10l-29 19q-17 15 3 23l31 14q7 2 9.5 5.5t0 7t-9.5 5.5l-31 13q-11 5 -10 14q6 3 7 8l17 30q5 9 10.5 8.5t7.5 -9.5l10 -33q7 -23 22 -5l23 26
q6 8 11 6.5t6 -11.5l2 -35q1 -10 7.5 -12.5t13.5 3.5l28 21q7 6 11.5 3t3.5 -13l-5 -34q-1 -10 5 -14t14 1l31 16q9 4 13 0t0 -14l-11 -31q-3 -10 1.5 -15t13.5 -2l34 7q10 3 13 -1t-2 -13l-18 -29q-6 -8 -3 -14.5t13 -5.5l35 2q10 0 12 -5t-4 -12l-24 -26q-7 -7 -5 -13.5
t12 -7.5l34 -6q20 -5 3 -19l-28 -19q-8 -5 -7.5 -11.5t10.5 -10.5l31 -13q9 -4 9 -9t-9 -9zM364 164q69 0 135 52.5t104.5 127t38.5 139.5q0 31 -20 49q12 -18 12 -41q0 -103 -85 -210q-92 -113 -196 -113q-29 0 -49 9q20 -13 60 -13z" />
    <glyph glyph-name="seven" unicode="7" 
d="M745 367q-9 -4 -10 -11t7 -12l28 -20q8 -5 7.5 -10.5t-10.5 -7.5l-34 -6q-10 -1 -12 -8t5 -14l24 -24q6 -7 4 -12t-12 -5l-35 2q-10 0 -13 -6t3 -14l18 -30q5 -8 2 -12.5t-13 -2.5l-34 9q-9 3 -13.5 -2.5t-1.5 -14.5l11 -33q4 -9 0 -12.5t-13 0.5l-31 15q-8 5 -14 0.5
t-5 -14.5l5 -33q1 -10 -3 -12.5t-12 3.5l-28 21q-8 6 -14 3t-7 -13l-2 -34q-1 -10 -6 -11.5t-11 5.5l-23 27q-16 16 -22 -5l-10 -33q-2 -10 -8 -10t-10 8l-17 30q-10 20 -23 0l-15 -30q-4 -8 -10 -8t-8 10l-10 33q-6 21 -22 5l-23 -27q-14 -15 -17 6l-2 34q-1 10 -7.5 13
t-14.5 -3l-26 -21q-8 -6 -13 -3.5t-3 12.5l5 33q1 10 -5 14.5t-15 -0.5l-30 -15q-9 -4 -13 -0.5t0 12.5l11 33q4 9 -1 14.5t-14 2.5l-34 -9q-10 -2 -13 2.5t2 12.5l19 30q5 8 2 14t-13 6l-35 -2q-10 0 -12 5t4 12l25 24q6 7 4 14t-12 8l-33 6q-7 1 -10 4t-1 7t7 7l28 20l6 6
q9 8 18 -6l16 -31q5 -9 10 -8t8 10l9 34q2 6 5.5 8.5t8 1.5t8.5 -6l23 -26q7 -7 11.5 -5.5t5.5 11.5l2 34q2 10 7.5 12.5t13.5 -3.5l28 -21q8 -6 12.5 -3.5t2.5 12.5l-4 34q-1 10 4.5 14t13.5 -1l31 -14q9 -4 13 -0.5t1 12.5l-11 33q-4 9 0.5 14t13.5 2l7 -1
q20 -38 34.5 -99t14.5 -106q-14 -18 -46 -18h-4q0 22 -16 35q9 -10 9 -27v-7q-16 1 -16 19q0 21 -13.5 35t-37.5 14q-20 0 -33.5 -15.5t-13.5 -38.5q0 -29 24.5 -47t67.5 -18q68 0 134.5 53t105 127t38.5 139q0 29 -18 48t-46 19q-23 0 -41.5 -16.5t-18.5 -41.5
q0 -52 58 -58q-15 -60 -29 -85q-13 102 -58 150q44 -58 52 -161l-14 -20q0 76 -25 140t-64 84q-6 11 12 15l34 6q9 2 10 7t-7 10l-29 19q-17 15 3 23l31 14q7 2 9.5 5.5t0 7t-9.5 5.5l-31 13q-11 5 -10 14q6 3 7 8l17 30q5 9 10.5 8.5t7.5 -9.5l10 -33q7 -23 22 -5l23 26
q6 8 11 6.5t6 -11.5l2 -35q1 -10 7.5 -12.5t13.5 3.5l28 21q7 6 11.5 3t3.5 -13l-5 -34q-1 -10 5 -14t14 1l31 16q9 4 13 0t0 -14l-11 -31q-3 -10 1.5 -15t13.5 -2l34 7q10 3 13 -1t-2 -13l-18 -29q-6 -8 -3 -14.5t13 -5.5l35 2q10 0 12 -5t-4 -12l-24 -26q-7 -7 -5 -13.5
t12 -7.5l34 -6q20 -5 3 -19l-28 -19q-8 -5 -7.5 -11.5t10.5 -10.5l31 -13q9 -4 9 -9t-9 -9zM364 164q69 0 135 52.5t104.5 127t38.5 139.5q0 31 -20 49q12 -18 12 -41q0 -103 -85 -210q-92 -113 -196 -113q-29 0 -49 9q20 -13 60 -13z" />
    <glyph glyph-name="eight" unicode="8" 
d="M745 367q-9 -4 -10 -11t7 -12l28 -20q8 -5 7.5 -10.5t-10.5 -7.5l-34 -6q-10 -1 -12 -8t5 -14l24 -24q6 -7 4 -12t-12 -5l-35 2q-10 0 -13 -6t3 -14l18 -30q5 -8 2 -12.5t-13 -2.5l-34 9q-9 3 -13.5 -2.5t-1.5 -14.5l11 -33q4 -9 0 -12.5t-13 0.5l-31 15q-8 5 -14 0.5
t-5 -14.5l5 -33q1 -10 -3 -12.5t-12 3.5l-28 21q-8 6 -14 3t-7 -13l-2 -34q-1 -10 -6 -11.5t-11 5.5l-23 27q-16 16 -22 -5l-10 -33q-2 -10 -8 -10t-10 8l-17 30q-10 20 -23 0l-15 -30q-4 -8 -10 -8t-8 10l-10 33q-6 21 -22 5l-23 -27q-14 -15 -17 6l-2 34q-1 10 -7.5 13
t-14.5 -3l-26 -21q-8 -6 -13 -3.5t-3 12.5l5 33q1 10 -5 14.5t-15 -0.5l-30 -15q-9 -4 -13 -0.5t0 12.5l11 33q4 9 -1 14.5t-14 2.5l-34 -9q-10 -2 -13 2.5t2 12.5l19 30q5 8 2 14t-13 6l-35 -2q-10 0 -12 5t4 12l25 24q6 7 4 14t-12 8l-33 6q-7 1 -10 4t-1 7t7 7l28 20l6 6
q9 8 18 -6l16 -31q5 -9 10 -8t8 10l9 34q2 6 5.5 8.5t8 1.5t8.5 -6l23 -26q7 -7 11.5 -5.5t5.5 11.5l2 34q2 10 7.5 12.5t13.5 -3.5l28 -21q8 -6 12.5 -3.5t2.5 12.5l-4 34q-1 10 4.5 14t13.5 -1l31 -14q9 -4 13 -0.5t1 12.5l-11 33q-4 9 0.5 14t13.5 2l7 -1
q20 -38 34.5 -99t14.5 -106q-14 -18 -46 -18h-4q0 22 -16 35q9 -10 9 -27v-7q-16 1 -16 19q0 21 -13.5 35t-37.5 14q-20 0 -33.5 -15.5t-13.5 -38.5q0 -29 24.5 -47t67.5 -18q68 0 134.5 53t105 127t38.5 139q0 29 -18 48t-46 19q-23 0 -41.5 -16.5t-18.5 -41.5
q0 -52 58 -58q-15 -60 -29 -85q-13 102 -58 150q44 -58 52 -161l-14 -20q0 76 -25 140t-64 84q-6 11 12 15l34 6q9 2 10 7t-7 10l-29 19q-17 15 3 23l31 14q7 2 9.5 5.5t0 7t-9.5 5.5l-31 13q-11 5 -10 14q6 3 7 8l17 30q5 9 10.5 8.5t7.5 -9.5l10 -33q7 -23 22 -5l23 26
q6 8 11 6.5t6 -11.5l2 -35q1 -10 7.5 -12.5t13.5 3.5l28 21q7 6 11.5 3t3.5 -13l-5 -34q-1 -10 5 -14t14 1l31 16q9 4 13 0t0 -14l-11 -31q-3 -10 1.5 -15t13.5 -2l34 7q10 3 13 -1t-2 -13l-18 -29q-6 -8 -3 -14.5t13 -5.5l35 2q10 0 12 -5t-4 -12l-24 -26q-7 -7 -5 -13.5
t12 -7.5l34 -6q20 -5 3 -19l-28 -19q-8 -5 -7.5 -11.5t10.5 -10.5l31 -13q9 -4 9 -9t-9 -9zM364 164q69 0 135 52.5t104.5 127t38.5 139.5q0 31 -20 49q12 -18 12 -41q0 -103 -85 -210q-92 -113 -196 -113q-29 0 -49 9q20 -13 60 -13z" />
    <glyph glyph-name="nine" unicode="9" 
d="M745 367q-9 -4 -10 -11t7 -12l28 -20q8 -5 7.5 -10.5t-10.5 -7.5l-34 -6q-10 -1 -12 -8t5 -14l24 -24q6 -7 4 -12t-12 -5l-35 2q-10 0 -13 -6t3 -14l18 -30q5 -8 2 -12.5t-13 -2.5l-34 9q-9 3 -13.5 -2.5t-1.5 -14.5l11 -33q4 -9 0 -12.5t-13 0.5l-31 15q-8 5 -14 0.5
t-5 -14.5l5 -33q1 -10 -3 -12.5t-12 3.5l-28 21q-8 6 -14 3t-7 -13l-2 -34q-1 -10 -6 -11.5t-11 5.5l-23 27q-16 16 -22 -5l-10 -33q-2 -10 -8 -10t-10 8l-17 30q-10 20 -23 0l-15 -30q-4 -8 -10 -8t-8 10l-10 33q-6 21 -22 5l-23 -27q-14 -15 -17 6l-2 34q-1 10 -7.5 13
t-14.5 -3l-26 -21q-8 -6 -13 -3.5t-3 12.5l5 33q1 10 -5 14.5t-15 -0.5l-30 -15q-9 -4 -13 -0.5t0 12.5l11 33q4 9 -1 14.5t-14 2.5l-34 -9q-10 -2 -13 2.5t2 12.5l19 30q5 8 2 14t-13 6l-35 -2q-10 0 -12 5t4 12l25 24q6 7 4 14t-12 8l-33 6q-7 1 -10 4t-1 7t7 7l28 20l6 6
q9 8 18 -6l16 -31q5 -9 10 -8t8 10l9 34q2 6 5.5 8.5t8 1.5t8.5 -6l23 -26q7 -7 11.5 -5.5t5.5 11.5l2 34q2 10 7.5 12.5t13.5 -3.5l28 -21q8 -6 12.5 -3.5t2.5 12.5l-4 34q-1 10 4.5 14t13.5 -1l31 -14q9 -4 13 -0.5t1 12.5l-11 33q-4 9 0.5 14t13.5 2l7 -1
q20 -38 34.5 -99t14.5 -106q-14 -18 -46 -18h-4q0 22 -16 35q9 -10 9 -27v-7q-16 1 -16 19q0 21 -13.5 35t-37.5 14q-20 0 -33.5 -15.5t-13.5 -38.5q0 -29 24.5 -47t67.5 -18q68 0 134.5 53t105 127t38.5 139q0 29 -18 48t-46 19q-23 0 -41.5 -16.5t-18.5 -41.5
q0 -52 58 -58q-15 -60 -29 -85q-13 102 -58 150q44 -58 52 -161l-14 -20q0 76 -25 140t-64 84q-6 11 12 15l34 6q9 2 10 7t-7 10l-29 19q-17 15 3 23l31 14q7 2 9.5 5.5t0 7t-9.5 5.5l-31 13q-11 5 -10 14q6 3 7 8l17 30q5 9 10.5 8.5t7.5 -9.5l10 -33q7 -23 22 -5l23 26
q6 8 11 6.5t6 -11.5l2 -35q1 -10 7.5 -12.5t13.5 3.5l28 21q7 6 11.5 3t3.5 -13l-5 -34q-1 -10 5 -14t14 1l31 16q9 4 13 0t0 -14l-11 -31q-3 -10 1.5 -15t13.5 -2l34 7q10 3 13 -1t-2 -13l-18 -29q-6 -8 -3 -14.5t13 -5.5l35 2q10 0 12 -5t-4 -12l-24 -26q-7 -7 -5 -13.5
t12 -7.5l34 -6q20 -5 3 -19l-28 -19q-8 -5 -7.5 -11.5t10.5 -10.5l31 -13q9 -4 9 -9t-9 -9zM364 164q69 0 135 52.5t104.5 127t38.5 139.5q0 31 -20 49q12 -18 12 -41q0 -103 -85 -210q-92 -113 -196 -113q-29 0 -49 9q20 -13 60 -13z" />
    <glyph glyph-name="colon" unicode=":" 
d="M745 367q-9 -4 -10 -11t7 -12l28 -20q8 -5 7.5 -10.5t-10.5 -7.5l-34 -6q-10 -1 -12 -8t5 -14l24 -24q6 -7 4 -12t-12 -5l-35 2q-10 0 -13 -6t3 -14l18 -30q5 -8 2 -12.5t-13 -2.5l-34 9q-9 3 -13.5 -2.5t-1.5 -14.5l11 -33q4 -9 0 -12.5t-13 0.5l-31 15q-8 5 -14 0.5
t-5 -14.5l5 -33q1 -10 -3 -12.5t-12 3.5l-28 21q-8 6 -14 3t-7 -13l-2 -34q-1 -10 -6 -11.5t-11 5.5l-23 27q-16 16 -22 -5l-10 -33q-2 -10 -8 -10t-10 8l-17 30q-10 20 -23 0l-15 -30q-4 -8 -10 -8t-8 10l-10 33q-6 21 -22 5l-23 -27q-14 -15 -17 6l-2 34q-1 10 -7.5 13
t-14.5 -3l-26 -21q-8 -6 -13 -3.5t-3 12.5l5 33q1 10 -5 14.5t-15 -0.5l-30 -15q-9 -4 -13 -0.5t0 12.5l11 33q4 9 -1 14.5t-14 2.5l-34 -9q-10 -2 -13 2.5t2 12.5l19 30q5 8 2 14t-13 6l-35 -2q-10 0 -12 5t4 12l25 24q6 7 4 14t-12 8l-33 6q-7 1 -10 4t-1 7t7 7l28 20l6 6
q9 8 18 -6l16 -31q5 -9 10 -8t8 10l9 34q2 6 5.5 8.5t8 1.5t8.5 -6l23 -26q7 -7 11.5 -5.5t5.5 11.5l2 34q2 10 7.5 12.5t13.5 -3.5l28 -21q8 -6 12.5 -3.5t2.5 12.5l-4 34q-1 10 4.5 14t13.5 -1l31 -14q9 -4 13 -0.5t1 12.5l-11 33q-4 9 0.5 14t13.5 2l7 -1
q20 -38 34.5 -99t14.5 -106q-14 -18 -46 -18h-4q0 22 -16 35q9 -10 9 -27v-7q-16 1 -16 19q0 21 -13.5 35t-37.5 14q-20 0 -33.5 -15.5t-13.5 -38.5q0 -29 24.5 -47t67.5 -18q68 0 134.5 53t105 127t38.5 139q0 29 -18 48t-46 19q-23 0 -41.5 -16.5t-18.5 -41.5
q0 -52 58 -58q-15 -60 -29 -85q-13 102 -58 150q44 -58 52 -161l-14 -20q0 76 -25 140t-64 84q-6 11 12 15l34 6q9 2 10 7t-7 10l-29 19q-17 15 3 23l31 14q7 2 9.5 5.5t0 7t-9.5 5.5l-31 13q-11 5 -10 14q6 3 7 8l17 30q5 9 10.5 8.5t7.5 -9.5l10 -33q7 -23 22 -5l23 26
q6 8 11 6.5t6 -11.5l2 -35q1 -10 7.5 -12.5t13.5 3.5l28 21q7 6 11.5 3t3.5 -13l-5 -34q-1 -10 5 -14t14 1l31 16q9 4 13 0t0 -14l-11 -31q-3 -10 1.5 -15t13.5 -2l34 7q10 3 13 -1t-2 -13l-18 -29q-6 -8 -3 -14.5t13 -5.5l35 2q10 0 12 -5t-4 -12l-24 -26q-7 -7 -5 -13.5
t12 -7.5l34 -6q20 -5 3 -19l-28 -19q-8 -5 -7.5 -11.5t10.5 -10.5l31 -13q9 -4 9 -9t-9 -9zM364 164q69 0 135 52.5t104.5 127t38.5 139.5q0 31 -20 49q12 -18 12 -41q0 -103 -85 -210q-92 -113 -196 -113q-29 0 -49 9q20 -13 60 -13z" />
    <glyph glyph-name="semicolon" unicode=";" 
d="M745 367q-9 -4 -10 -11t7 -12l28 -20q8 -5 7.5 -10.5t-10.5 -7.5l-34 -6q-10 -1 -12 -8t5 -14l24 -24q6 -7 4 -12t-12 -5l-35 2q-10 0 -13 -6t3 -14l18 -30q5 -8 2 -12.5t-13 -2.5l-34 9q-9 3 -13.5 -2.5t-1.5 -14.5l11 -33q4 -9 0 -12.5t-13 0.5l-31 15q-8 5 -14 0.5
t-5 -14.5l5 -33q1 -10 -3 -12.5t-12 3.5l-28 21q-8 6 -14 3t-7 -13l-2 -34q-1 -10 -6 -11.5t-11 5.5l-23 27q-16 16 -22 -5l-10 -33q-2 -10 -8 -10t-10 8l-17 30q-10 20 -23 0l-15 -30q-4 -8 -10 -8t-8 10l-10 33q-6 21 -22 5l-23 -27q-14 -15 -17 6l-2 34q-1 10 -7.5 13
t-14.5 -3l-26 -21q-8 -6 -13 -3.5t-3 12.5l5 33q1 10 -5 14.5t-15 -0.5l-30 -15q-9 -4 -13 -0.5t0 12.5l11 33q4 9 -1 14.5t-14 2.5l-34 -9q-10 -2 -13 2.5t2 12.5l19 30q5 8 2 14t-13 6l-35 -2q-10 0 -12 5t4 12l25 24q6 7 4 14t-12 8l-33 6q-7 1 -10 4t-1 7t7 7l28 20l6 6
q9 8 18 -6l16 -31q5 -9 10 -8t8 10l9 34q2 6 5.5 8.5t8 1.5t8.5 -6l23 -26q7 -7 11.5 -5.5t5.5 11.5l2 34q2 10 7.5 12.5t13.5 -3.5l28 -21q8 -6 12.5 -3.5t2.5 12.5l-4 34q-1 10 4.5 14t13.5 -1l31 -14q9 -4 13 -0.5t1 12.5l-11 33q-4 9 0.5 14t13.5 2l7 -1
q20 -38 34.5 -99t14.5 -106q-14 -18 -46 -18h-4q0 22 -16 35q9 -10 9 -27v-7q-16 1 -16 19q0 21 -13.5 35t-37.5 14q-20 0 -33.5 -15.5t-13.5 -38.5q0 -29 24.5 -47t67.5 -18q68 0 134.5 53t105 127t38.5 139q0 29 -18 48t-46 19q-23 0 -41.5 -16.5t-18.5 -41.5
q0 -52 58 -58q-15 -60 -29 -85q-13 102 -58 150q44 -58 52 -161l-14 -20q0 76 -25 140t-64 84q-6 11 12 15l34 6q9 2 10 7t-7 10l-29 19q-17 15 3 23l31 14q7 2 9.5 5.5t0 7t-9.5 5.5l-31 13q-11 5 -10 14q6 3 7 8l17 30q5 9 10.5 8.5t7.5 -9.5l10 -33q7 -23 22 -5l23 26
q6 8 11 6.5t6 -11.5l2 -35q1 -10 7.5 -12.5t13.5 3.5l28 21q7 6 11.5 3t3.5 -13l-5 -34q-1 -10 5 -14t14 1l31 16q9 4 13 0t0 -14l-11 -31q-3 -10 1.5 -15t13.5 -2l34 7q10 3 13 -1t-2 -13l-18 -29q-6 -8 -3 -14.5t13 -5.5l35 2q10 0 12 -5t-4 -12l-24 -26q-7 -7 -5 -13.5
t12 -7.5l34 -6q20 -5 3 -19l-28 -19q-8 -5 -7.5 -11.5t10.5 -10.5l31 -13q9 -4 9 -9t-9 -9zM364 164q69 0 135 52.5t104.5 127t38.5 139.5q0 31 -20 49q12 -18 12 -41q0 -103 -85 -210q-92 -113 -196 -113q-29 0 -49 9q20 -13 60 -13z" />
    <glyph glyph-name="less" unicode="&#x3c;" 
d="M745 367q-9 -4 -10 -11t7 -12l28 -20q8 -5 7.5 -10.5t-10.5 -7.5l-34 -6q-10 -1 -12 -8t5 -14l24 -24q6 -7 4 -12t-12 -5l-35 2q-10 0 -13 -6t3 -14l18 -30q5 -8 2 -12.5t-13 -2.5l-34 9q-9 3 -13.5 -2.5t-1.5 -14.5l11 -33q4 -9 0 -12.5t-13 0.5l-31 15q-8 5 -14 0.5
t-5 -14.5l5 -33q1 -10 -3 -12.5t-12 3.5l-28 21q-8 6 -14 3t-7 -13l-2 -34q-1 -10 -6 -11.5t-11 5.5l-23 27q-16 16 -22 -5l-10 -33q-2 -10 -8 -10t-10 8l-17 30q-10 20 -23 0l-15 -30q-4 -8 -10 -8t-8 10l-10 33q-6 21 -22 5l-23 -27q-14 -15 -17 6l-2 34q-1 10 -7.5 13
t-14.5 -3l-26 -21q-8 -6 -13 -3.5t-3 12.5l5 33q1 10 -5 14.5t-15 -0.5l-30 -15q-9 -4 -13 -0.5t0 12.5l11 33q4 9 -1 14.5t-14 2.5l-34 -9q-10 -2 -13 2.5t2 12.5l19 30q5 8 2 14t-13 6l-35 -2q-10 0 -12 5t4 12l25 24q6 7 4 14t-12 8l-33 6q-7 1 -10 4t-1 7t7 7l28 20l6 6
q9 8 18 -6l16 -31q5 -9 10 -8t8 10l9 34q2 6 5.5 8.5t8 1.5t8.5 -6l23 -26q7 -7 11.5 -5.5t5.5 11.5l2 34q2 10 7.5 12.5t13.5 -3.5l28 -21q8 -6 12.5 -3.5t2.5 12.5l-4 34q-1 10 4.5 14t13.5 -1l31 -14q9 -4 13 -0.5t1 12.5l-11 33q-4 9 0.5 14t13.5 2l7 -1
q20 -38 34.5 -99t14.5 -106q-14 -18 -46 -18h-4q0 22 -16 35q9 -10 9 -27v-7q-16 1 -16 19q0 21 -13.5 35t-37.5 14q-20 0 -33.5 -15.5t-13.5 -38.5q0 -29 24.5 -47t67.5 -18q68 0 134.5 53t105 127t38.5 139q0 29 -18 48t-46 19q-23 0 -41.5 -16.5t-18.5 -41.5
q0 -52 58 -58q-15 -60 -29 -85q-13 102 -58 150q44 -58 52 -161l-14 -20q0 76 -25 140t-64 84q-6 11 12 15l34 6q9 2 10 7t-7 10l-29 19q-17 15 3 23l31 14q7 2 9.5 5.5t0 7t-9.5 5.5l-31 13q-11 5 -10 14q6 3 7 8l17 30q5 9 10.5 8.5t7.5 -9.5l10 -33q7 -23 22 -5l23 26
q6 8 11 6.5t6 -11.5l2 -35q1 -10 7.5 -12.5t13.5 3.5l28 21q7 6 11.5 3t3.5 -13l-5 -34q-1 -10 5 -14t14 1l31 16q9 4 13 0t0 -14l-11 -31q-3 -10 1.5 -15t13.5 -2l34 7q10 3 13 -1t-2 -13l-18 -29q-6 -8 -3 -14.5t13 -5.5l35 2q10 0 12 -5t-4 -12l-24 -26q-7 -7 -5 -13.5
t12 -7.5l34 -6q20 -5 3 -19l-28 -19q-8 -5 -7.5 -11.5t10.5 -10.5l31 -13q9 -4 9 -9t-9 -9zM364 164q69 0 135 52.5t104.5 127t38.5 139.5q0 31 -20 49q12 -18 12 -41q0 -103 -85 -210q-92 -113 -196 -113q-29 0 -49 9q20 -13 60 -13z" />
    <glyph glyph-name="equal" unicode="=" 
d="M745 367q-9 -4 -10 -11t7 -12l28 -20q8 -5 7.5 -10.5t-10.5 -7.5l-34 -6q-10 -1 -12 -8t5 -14l24 -24q6 -7 4 -12t-12 -5l-35 2q-10 0 -13 -6t3 -14l18 -30q5 -8 2 -12.5t-13 -2.5l-34 9q-9 3 -13.5 -2.5t-1.5 -14.5l11 -33q4 -9 0 -12.5t-13 0.5l-31 15q-8 5 -14 0.5
t-5 -14.5l5 -33q1 -10 -3 -12.5t-12 3.5l-28 21q-8 6 -14 3t-7 -13l-2 -34q-1 -10 -6 -11.5t-11 5.5l-23 27q-16 16 -22 -5l-10 -33q-2 -10 -8 -10t-10 8l-17 30q-10 20 -23 0l-15 -30q-4 -8 -10 -8t-8 10l-10 33q-6 21 -22 5l-23 -27q-14 -15 -17 6l-2 34q-1 10 -7.5 13
t-14.5 -3l-26 -21q-8 -6 -13 -3.5t-3 12.5l5 33q1 10 -5 14.5t-15 -0.5l-30 -15q-9 -4 -13 -0.5t0 12.5l11 33q4 9 -1 14.5t-14 2.5l-34 -9q-10 -2 -13 2.5t2 12.5l19 30q5 8 2 14t-13 6l-35 -2q-10 0 -12 5t4 12l25 24q6 7 4 14t-12 8l-33 6q-7 1 -10 4t-1 7t7 7l28 20l6 6
q9 8 18 -6l16 -31q5 -9 10 -8t8 10l9 34q2 6 5.5 8.5t8 1.5t8.5 -6l23 -26q7 -7 11.5 -5.5t5.5 11.5l2 34q2 10 7.5 12.5t13.5 -3.5l28 -21q8 -6 12.5 -3.5t2.5 12.5l-4 34q-1 10 4.5 14t13.5 -1l31 -14q9 -4 13 -0.5t1 12.5l-11 33q-4 9 0.5 14t13.5 2l7 -1
q20 -38 34.5 -99t14.5 -106q-14 -18 -46 -18h-4q0 22 -16 35q9 -10 9 -27v-7q-16 1 -16 19q0 21 -13.5 35t-37.5 14q-20 0 -33.5 -15.5t-13.5 -38.5q0 -29 24.5 -47t67.5 -18q68 0 134.5 53t105 127t38.5 139q0 29 -18 48t-46 19q-23 0 -41.5 -16.5t-18.5 -41.5
q0 -52 58 -58q-15 -60 -29 -85q-13 102 -58 150q44 -58 52 -161l-14 -20q0 76 -25 140t-64 84q-6 11 12 15l34 6q9 2 10 7t-7 10l-29 19q-17 15 3 23l31 14q7 2 9.5 5.5t0 7t-9.5 5.5l-31 13q-11 5 -10 14q6 3 7 8l17 30q5 9 10.5 8.5t7.5 -9.5l10 -33q7 -23 22 -5l23 26
q6 8 11 6.5t6 -11.5l2 -35q1 -10 7.5 -12.5t13.5 3.5l28 21q7 6 11.5 3t3.5 -13l-5 -34q-1 -10 5 -14t14 1l31 16q9 4 13 0t0 -14l-11 -31q-3 -10 1.5 -15t13.5 -2l34 7q10 3 13 -1t-2 -13l-18 -29q-6 -8 -3 -14.5t13 -5.5l35 2q10 0 12 -5t-4 -12l-24 -26q-7 -7 -5 -13.5
t12 -7.5l34 -6q20 -5 3 -19l-28 -19q-8 -5 -7.5 -11.5t10.5 -10.5l31 -13q9 -4 9 -9t-9 -9zM364 164q69 0 135 52.5t104.5 127t38.5 139.5q0 31 -20 49q12 -18 12 -41q0 -103 -85 -210q-92 -113 -196 -113q-29 0 -49 9q20 -13 60 -13z" />
    <glyph glyph-name="greater" unicode="&#x3e;" 
d="M745 367q-9 -4 -10 -11t7 -12l28 -20q8 -5 7.5 -10.5t-10.5 -7.5l-34 -6q-10 -1 -12 -8t5 -14l24 -24q6 -7 4 -12t-12 -5l-35 2q-10 0 -13 -6t3 -14l18 -30q5 -8 2 -12.5t-13 -2.5l-34 9q-9 3 -13.5 -2.5t-1.5 -14.5l11 -33q4 -9 0 -12.5t-13 0.5l-31 15q-8 5 -14 0.5
t-5 -14.5l5 -33q1 -10 -3 -12.5t-12 3.5l-28 21q-8 6 -14 3t-7 -13l-2 -34q-1 -10 -6 -11.5t-11 5.5l-23 27q-16 16 -22 -5l-10 -33q-2 -10 -8 -10t-10 8l-17 30q-10 20 -23 0l-15 -30q-4 -8 -10 -8t-8 10l-10 33q-6 21 -22 5l-23 -27q-14 -15 -17 6l-2 34q-1 10 -7.5 13
t-14.5 -3l-26 -21q-8 -6 -13 -3.5t-3 12.5l5 33q1 10 -5 14.5t-15 -0.5l-30 -15q-9 -4 -13 -0.5t0 12.5l11 33q4 9 -1 14.5t-14 2.5l-34 -9q-10 -2 -13 2.5t2 12.5l19 30q5 8 2 14t-13 6l-35 -2q-10 0 -12 5t4 12l25 24q6 7 4 14t-12 8l-33 6q-7 1 -10 4t-1 7t7 7l28 20l6 6
q9 8 18 -6l16 -31q5 -9 10 -8t8 10l9 34q2 6 5.5 8.5t8 1.5t8.5 -6l23 -26q7 -7 11.5 -5.5t5.5 11.5l2 34q2 10 7.5 12.5t13.5 -3.5l28 -21q8 -6 12.5 -3.5t2.5 12.5l-4 34q-1 10 4.5 14t13.5 -1l31 -14q9 -4 13 -0.5t1 12.5l-11 33q-4 9 0.5 14t13.5 2l7 -1
q20 -38 34.5 -99t14.5 -106q-14 -18 -46 -18h-4q0 22 -16 35q9 -10 9 -27v-7q-16 1 -16 19q0 21 -13.5 35t-37.5 14q-20 0 -33.5 -15.5t-13.5 -38.5q0 -29 24.5 -47t67.5 -18q68 0 134.5 53t105 127t38.5 139q0 29 -18 48t-46 19q-23 0 -41.5 -16.5t-18.5 -41.5
q0 -52 58 -58q-15 -60 -29 -85q-13 102 -58 150q44 -58 52 -161l-14 -20q0 76 -25 140t-64 84q-6 11 12 15l34 6q9 2 10 7t-7 10l-29 19q-17 15 3 23l31 14q7 2 9.5 5.5t0 7t-9.5 5.5l-31 13q-11 5 -10 14q6 3 7 8l17 30q5 9 10.5 8.5t7.5 -9.5l10 -33q7 -23 22 -5l23 26
q6 8 11 6.5t6 -11.5l2 -35q1 -10 7.5 -12.5t13.5 3.5l28 21q7 6 11.5 3t3.5 -13l-5 -34q-1 -10 5 -14t14 1l31 16q9 4 13 0t0 -14l-11 -31q-3 -10 1.5 -15t13.5 -2l34 7q10 3 13 -1t-2 -13l-18 -29q-6 -8 -3 -14.5t13 -5.5l35 2q10 0 12 -5t-4 -12l-24 -26q-7 -7 -5 -13.5
t12 -7.5l34 -6q20 -5 3 -19l-28 -19q-8 -5 -7.5 -11.5t10.5 -10.5l31 -13q9 -4 9 -9t-9 -9zM364 164q69 0 135 52.5t104.5 127t38.5 139.5q0 31 -20 49q12 -18 12 -41q0 -103 -85 -210q-92 -113 -196 -113q-29 0 -49 9q20 -13 60 -13z" />
    <glyph glyph-name="question" unicode="?" 
d="M745 367q-9 -4 -10 -11t7 -12l28 -20q8 -5 7.5 -10.5t-10.5 -7.5l-34 -6q-10 -1 -12 -8t5 -14l24 -24q6 -7 4 -12t-12 -5l-35 2q-10 0 -13 -6t3 -14l18 -30q5 -8 2 -12.5t-13 -2.5l-34 9q-9 3 -13.5 -2.5t-1.5 -14.5l11 -33q4 -9 0 -12.5t-13 0.5l-31 15q-8 5 -14 0.5
t-5 -14.5l5 -33q1 -10 -3 -12.5t-12 3.5l-28 21q-8 6 -14 3t-7 -13l-2 -34q-1 -10 -6 -11.5t-11 5.5l-23 27q-16 16 -22 -5l-10 -33q-2 -10 -8 -10t-10 8l-17 30q-10 20 -23 0l-15 -30q-4 -8 -10 -8t-8 10l-10 33q-6 21 -22 5l-23 -27q-14 -15 -17 6l-2 34q-1 10 -7.5 13
t-14.5 -3l-26 -21q-8 -6 -13 -3.5t-3 12.5l5 33q1 10 -5 14.5t-15 -0.5l-30 -15q-9 -4 -13 -0.5t0 12.5l11 33q4 9 -1 14.5t-14 2.5l-34 -9q-10 -2 -13 2.5t2 12.5l19 30q5 8 2 14t-13 6l-35 -2q-10 0 -12 5t4 12l25 24q6 7 4 14t-12 8l-33 6q-7 1 -10 4t-1 7t7 7l28 20l6 6
q9 8 18 -6l16 -31q5 -9 10 -8t8 10l9 34q2 6 5.5 8.5t8 1.5t8.5 -6l23 -26q7 -7 11.5 -5.5t5.5 11.5l2 34q2 10 7.5 12.5t13.5 -3.5l28 -21q8 -6 12.5 -3.5t2.5 12.5l-4 34q-1 10 4.5 14t13.5 -1l31 -14q9 -4 13 -0.5t1 12.5l-11 33q-4 9 0.5 14t13.5 2l7 -1
q20 -38 34.5 -99t14.5 -106q-14 -18 -46 -18h-4q0 22 -16 35q9 -10 9 -27v-7q-16 1 -16 19q0 21 -13.5 35t-37.5 14q-20 0 -33.5 -15.5t-13.5 -38.5q0 -29 24.5 -47t67.5 -18q68 0 134.5 53t105 127t38.5 139q0 29 -18 48t-46 19q-23 0 -41.5 -16.5t-18.5 -41.5
q0 -52 58 -58q-15 -60 -29 -85q-13 102 -58 150q44 -58 52 -161l-14 -20q0 76 -25 140t-64 84q-6 11 12 15l34 6q9 2 10 7t-7 10l-29 19q-17 15 3 23l31 14q7 2 9.5 5.5t0 7t-9.5 5.5l-31 13q-11 5 -10 14q6 3 7 8l17 30q5 9 10.5 8.5t7.5 -9.5l10 -33q7 -23 22 -5l23 26
q6 8 11 6.5t6 -11.5l2 -35q1 -10 7.5 -12.5t13.5 3.5l28 21q7 6 11.5 3t3.5 -13l-5 -34q-1 -10 5 -14t14 1l31 16q9 4 13 0t0 -14l-11 -31q-3 -10 1.5 -15t13.5 -2l34 7q10 3 13 -1t-2 -13l-18 -29q-6 -8 -3 -14.5t13 -5.5l35 2q10 0 12 -5t-4 -12l-24 -26q-7 -7 -5 -13.5
t12 -7.5l34 -6q20 -5 3 -19l-28 -19q-8 -5 -7.5 -11.5t10.5 -10.5l31 -13q9 -4 9 -9t-9 -9zM364 164q69 0 135 52.5t104.5 127t38.5 139.5q0 31 -20 49q12 -18 12 -41q0 -103 -85 -210q-92 -113 -196 -113q-29 0 -49 9q20 -13 60 -13z" />
    <glyph glyph-name="at" unicode="@" 
d="M745 367q-9 -4 -10 -11t7 -12l28 -20q8 -5 7.5 -10.5t-10.5 -7.5l-34 -6q-10 -1 -12 -8t5 -14l24 -24q6 -7 4 -12t-12 -5l-35 2q-10 0 -13 -6t3 -14l18 -30q5 -8 2 -12.5t-13 -2.5l-34 9q-9 3 -13.5 -2.5t-1.5 -14.5l11 -33q4 -9 0 -12.5t-13 0.5l-31 15q-8 5 -14 0.5
t-5 -14.5l5 -33q1 -10 -3 -12.5t-12 3.5l-28 21q-8 6 -14 3t-7 -13l-2 -34q-1 -10 -6 -11.5t-11 5.5l-23 27q-16 16 -22 -5l-10 -33q-2 -10 -8 -10t-10 8l-17 30q-10 20 -23 0l-15 -30q-4 -8 -10 -8t-8 10l-10 33q-6 21 -22 5l-23 -27q-14 -15 -17 6l-2 34q-1 10 -7.5 13
t-14.5 -3l-26 -21q-8 -6 -13 -3.5t-3 12.5l5 33q1 10 -5 14.5t-15 -0.5l-30 -15q-9 -4 -13 -0.5t0 12.5l11 33q4 9 -1 14.5t-14 2.5l-34 -9q-10 -2 -13 2.5t2 12.5l19 30q5 8 2 14t-13 6l-35 -2q-10 0 -12 5t4 12l25 24q6 7 4 14t-12 8l-33 6q-7 1 -10 4t-1 7t7 7l28 20l6 6
q9 8 18 -6l16 -31q5 -9 10 -8t8 10l9 34q2 6 5.5 8.5t8 1.5t8.5 -6l23 -26q7 -7 11.5 -5.5t5.5 11.5l2 34q2 10 7.5 12.5t13.5 -3.5l28 -21q8 -6 12.5 -3.5t2.5 12.5l-4 34q-1 10 4.5 14t13.5 -1l31 -14q9 -4 13 -0.5t1 12.5l-11 33q-4 9 0.5 14t13.5 2l7 -1
q20 -38 34.5 -99t14.5 -106q-14 -18 -46 -18h-4q0 22 -16 35q9 -10 9 -27v-7q-16 1 -16 19q0 21 -13.5 35t-37.5 14q-20 0 -33.5 -15.5t-13.5 -38.5q0 -29 24.5 -47t67.5 -18q68 0 134.5 53t105 127t38.5 139q0 29 -18 48t-46 19q-23 0 -41.5 -16.5t-18.5 -41.5
q0 -52 58 -58q-15 -60 -29 -85q-13 102 -58 150q44 -58 52 -161l-14 -20q0 76 -25 140t-64 84q-6 11 12 15l34 6q9 2 10 7t-7 10l-29 19q-17 15 3 23l31 14q7 2 9.5 5.5t0 7t-9.5 5.5l-31 13q-11 5 -10 14q6 3 7 8l17 30q5 9 10.5 8.5t7.5 -9.5l10 -33q7 -23 22 -5l23 26
q6 8 11 6.5t6 -11.5l2 -35q1 -10 7.5 -12.5t13.5 3.5l28 21q7 6 11.5 3t3.5 -13l-5 -34q-1 -10 5 -14t14 1l31 16q9 4 13 0t0 -14l-11 -31q-3 -10 1.5 -15t13.5 -2l34 7q10 3 13 -1t-2 -13l-18 -29q-6 -8 -3 -14.5t13 -5.5l35 2q10 0 12 -5t-4 -12l-24 -26q-7 -7 -5 -13.5
t12 -7.5l34 -6q20 -5 3 -19l-28 -19q-8 -5 -7.5 -11.5t10.5 -10.5l31 -13q9 -4 9 -9t-9 -9zM364 164q69 0 135 52.5t104.5 127t38.5 139.5q0 31 -20 49q12 -18 12 -41q0 -103 -85 -210q-92 -113 -196 -113q-29 0 -49 9q20 -13 60 -13z" />
    <glyph glyph-name="A" unicode="A" horiz-adv-x="841" 
d="M230 296l190 449l190 -449h-380zM298 135v-61h-162l88 208h392l88 -208h-162v61h71l-36 86h-313l-37 -86h71zM856 135v-61h-138l-292 690l56 24l276 -653h98zM83 135l276 653l55 -24l-293 -690h-137v61h99zM420 591l-99 -235h199zM298 0h-314v60h314v-60zM856 0h-314v60
h314v-60z" />
    <glyph glyph-name="B" unicode="B" horiz-adv-x="773" 
d="M490 409q80 -2 131 -50.5t51 -116.5q0 -70 -53 -119t-136 -49h-279v335h286zM39 0v60h444q87 0 145 54t58 128q0 61 -41.5 110t-108.5 65q49 16 79 56.5t30 90.5q0 65 -49 110.5t-133 45.5h-424v60h424q111 0 177 -63t66 -153q0 -77 -51 -138q91 -72 91 -184
q0 -100 -75 -171t-188 -71h-444zM483 423h-279v283h259q80 0 124 -40.5t44 -101.5q0 -58 -41.5 -99.5t-106.5 -41.5zM483 349h-219v-214h219q58 0 93 31t35 76t-35 76t-93 31zM39 74v61h90v510h-90v61h151v-632h-151zM463 645h-199v-161h223q38 1 61 23.5t23 56.5
q0 36 -27.5 58.5t-80.5 22.5z" />
    <glyph glyph-name="C" unicode="C" horiz-adv-x="799" 
d="M623 745v35h60v-182q-29 62 -101 99.5t-153 37.5q-142 0 -243.5 -101.5t-101.5 -243.5t101.5 -243.5t243.5 -101.5q165 0 288 108l40 -45q-66 -58 -154 -90.5t-174 -32.5q-167 0 -286 119t-119 286t119 286t286 119q103 0 194 -50zM683 446h-60v95q-6 49 -64 84t-130 35
q-112 0 -191 -79t-79 -191t79 -191t191 -79q137 0 238 89l40 -45q-119 -105 -278 -105q-137 0 -234 97t-97 234t97 234t234 97q94 0 169 -48t85 -124v-103zM757 446h-60v334h60v-334z" />
    <glyph glyph-name="D" unicode="D" horiz-adv-x="823" 
d="M409 74h-204v632h204q145 0 228.5 -89t83.5 -227t-83.5 -227t-228.5 -89zM409 645h-144v-510h144q118 0 184.5 70.5t66.5 184.5t-66.5 184.5t-184.5 70.5zM41 0v60h368q149 0 237.5 93.5t88.5 236.5q0 142 -88.5 236t-237.5 94h-368v60h368q176 0 281 -112t105 -278
t-105 -278t-281 -112h-368zM41 74v61h89v510h-89v61h150v-632h-150z" />
    <glyph glyph-name="E" unicode="E" horiz-adv-x="713" 
d="M542 135v105h60v-166h-398v316h310v-61h-250v-194h278zM514 464v-60h-310v302h392v-166h-60v105h-272v-181h250zM39 74v61h90v510h-90v61h151v-632h-151zM676 0h-637v60h577v180h60v-240zM671 540h-61v180h-571v60h632v-240z" />
    <glyph glyph-name="F" unicode="F" horiz-adv-x="683" 
d="M507 445v-61h-302v322h392v-166h-60v105h-272v-200h242zM41 74v61h89v510h-89v61h150v-632h-150zM672 540h-61v180h-570v60h631v-240zM353 135v-61h-148v296h302v-60h-242v-175h88zM353 0h-312v60h312v-60z" />
    <glyph glyph-name="G" unicode="G" horiz-adv-x="829" 
d="M683 472h-60v69q-6 49 -64 84t-130 35q-112 0 -191 -79t-79 -192t76.5 -191t191.5 -78q125 0 218 99v68h-217v61h277v-154q-121 -135 -279 -135q-139 0 -233.5 96t-94.5 234q0 139 97 235.5t234 96.5q94 0 169 -48t85 -124v-77zM623 745v35h60v-182q-29 62 -101 99.5
t-153 37.5q-142 0 -243.5 -101.5t-101.5 -244.5q0 -142 99 -243t243 -101q159 0 279 128v-173h-60v47q-102 -62 -219 -62q-170 0 -286 118.5t-116 285.5q0 169 119 287.5t286 118.5q103 0 194 -50zM779 0h-60v362h-291v60h351v-422zM757 472h-60v308h60v-308z" />
    <glyph glyph-name="H" unicode="H" horiz-adv-x="878" 
d="M354 135v-61h-150v316h469v-316h-151v61h90v194h-348v-194h90zM612 645h-90v61h151v-302h-469v302h150v-61h-90v-181h348v181zM39 74v61h90v510h-90v61h151v-632h-151zM837 135v-61h-150v632h150v-61h-90v-510h90zM354 780v-60h-315v60h315zM522 0v60h315v-60h-315z
M354 0h-315v60h315v-60zM837 780v-60h-315v60h315z" />
    <glyph glyph-name="I" unicode="I" horiz-adv-x="394" 
d="M39 74v61h90v510h-90v61h151v-632h-151zM354 135v-61h-150v632h150v-61h-90v-510h90zM354 780v-60h-315v60h315zM354 0h-315v60h315v-60z" />
    <glyph glyph-name="J" unicode="J" horiz-adv-x="633" 
d="M177 720v60h372v-544q0 -171 -72.5 -253.5t-189.5 -82.5q-122 0 -191.5 74t-69.5 178q0 29 4 49l59 -12q-3 -15 -3 -37q0 -79 54 -135.5t147 -56.5q92 0 147 66t55 210v484h-312zM100 152q0 19 3 34l60 -12q-2 -12 -2 -22q0 -52 32 -84.5t94 -32.5q63 0 95 44.5t32 156.5
v409h-237v61h298v-470q0 -262 -188 -262q-89 0 -138 51t-49 127z" />
    <glyph glyph-name="K" unicode="K" horiz-adv-x="780" 
d="M770 135v-61h-154l-256 344l270 288h139v-61h-113l-217 -231l208 -279h123zM354 135v-61h-150v177l146 156l259 -347h161v-60h-190l-235 314l-81 -87v-92h90zM455 645v61h156l-407 -435v435h150v-61h-90v-221l207 221h-16zM39 74v61h90v510h-90v61h151v-632h-151zM354 0
h-315v60h315v-60zM354 780v-60h-315v60h315zM769 780v-60h-314v60h314z" />
    <glyph glyph-name="L" unicode="L" horiz-adv-x="670" 
d="M523 135v105h60v-166h-378v632h150v-61h-90v-510h258zM41 74v61h89v510h-89v61h150v-632h-150zM658 0h-617v60h556v180h61v-240zM355 780v-60h-314v60h314z" />
    <glyph glyph-name="M" unicode="M" horiz-adv-x="1015" 
d="M974 780v-60h-161l-306 -555l-306 555h-161v60h196l270 -490l272 490h196zM354 135v-61h-150v612l297 -538l-54 -29l-183 333v-317h90zM565 119l-52 29l297 538v-612h-150v61h89v316zM129 645h-89v61h150v-632h-150v61h89v510zM974 135v-61h-150v632h150v-61h-90v-510h90
zM354 60v-60h-314v60h314zM974 0h-314v60h314v-60z" />
    <glyph glyph-name="N" unicode="N" horiz-adv-x="867" 
d="M621 645h-90v61h150v-664l-481 678h-163v60h194l390 -548v413zM353 135v-61h-150v616l479 -674l-49 -35l-370 519v-365h90zM128 645h-91v61h152v-632h-150v61h89v510zM756 20h-61v686h150v-61h-89v-625zM845 780v-60h-314v60h314zM353 60v-60h-314v60h314z" />
    <glyph glyph-name="O" unicode="O" horiz-adv-x="858" 
d="M24 390q0 167 119 286t286 119t286 -119t119 -286t-119 -286t-286 -119t-286 119t-119 286zM159 390q0 -112 79 -191t191 -79t191 79t79 191t-79 191t-191 79t-191 -79t-79 -191zM84 390q0 -142 101.5 -243.5t243.5 -101.5t243.5 101.5t101.5 243.5t-101.5 243.5
t-243.5 101.5t-243.5 -101.5t-101.5 -243.5zM98 390q0 137 97 234t234 97t234 -97t97 -234t-97 -234t-234 -97t-234 97t-97 234z" />
    <glyph glyph-name="P" unicode="P" horiz-adv-x="765" 
d="M467 331h-262v375h262q94 0 152.5 -54.5t58.5 -133.5t-58.5 -133t-152.5 -54zM355 135v-61h-150v243h262q98 0 161.5 59t63.5 142t-63.5 142.5t-161.5 59.5h-426v60h426q124 0 204.5 -77t80.5 -185q0 -109 -80.5 -185.5t-204.5 -76.5h-202v-121h90zM467 645h-202v-254
h202q68 0 109 36.5t41 90.5t-41 90.5t-109 36.5zM41 74v61h89v510h-89v61h150v-632h-150zM355 0h-314v60h314v-60z" />
    <glyph glyph-name="Q" unicode="Q" horiz-adv-x="858" 
d="M98 390q0 137 97 234t234 97t234 -97t97 -234t-97 -234t-234 -97t-234 97t-97 234zM159 390q0 -112 79 -191t191 -79t191 79t79 191t-79 191t-191 79t-191 -79t-79 -191zM84 390q0 -142 101.5 -243.5t243.5 -101.5q11 0 22 -2t25 -6t24 -7t26.5 -10t25.5 -10.5
t28.5 -12.5t26 -12.5t29 -14t27.5 -13.5q55 -27 93 -41t85.5 -22t86 8.5t67.5 57.5l49 -35q-39 -54 -90.5 -76.5t-110 -14t-104 24t-102.5 43.5q-9 4 -34 17t-35 17.5t-30.5 14t-31 13.5t-26 10t-27.5 8t-23 3h-1q-167 0 -286 119t-119 286t119 286t286 119t286 -119
t119 -286q0 -106 -51 -196.5t-138 -145.5l50 -24q65 -32 104.5 -45.5t76 -9.5t58.5 34l49 -35q-27 -38 -62 -53t-79.5 -7.5t-81.5 21.5t-91 40q-134 66 -185 80q123 20 206.5 117t83.5 224q0 142 -101.5 243.5t-243.5 101.5t-243.5 -101.5t-101.5 -243.5z" />
    <glyph glyph-name="R" unicode="R" horiz-adv-x="806" 
d="M486 355h-282v351h282q88 0 142.5 -51t54.5 -125q0 -73 -54.5 -124t-142.5 -51zM780 135v-61h-143l-188 267h37q92 0 151.5 55.5t59.5 133.5q0 79 -59.5 134.5t-151.5 55.5h-447v60h447q118 0 195 -73.5t77 -176.5q0 -85 -55 -152t-144 -89l109 -154h112zM486 645h-222
v-230h222q63 0 100 33t37 82t-37 82t-100 33zM354 135v-61h-150v267h227l188 -267h-153v61h36l-103 146h-135v-146h90zM39 74v61h90v510h-90v61h151v-632h-151zM354 0h-315v60h315v-60zM466 0v60h314v-60h-314z" />
    <glyph glyph-name="S" unicode="S" horiz-adv-x="661" 
d="M528 474h-61v105q-22 34 -68 57.5t-97 23.5q-53 0 -82 -23.5t-29 -61.5t36.5 -62.5t121.5 -54.5q6 -2 20 -7q29 -10 45 -16t46.5 -19.5t49 -26t42 -32t37 -40.5t23 -50t9.5 -62q0 -93 -68.5 -156.5t-180.5 -63.5q-100 0 -190 53v-38h-60v169q43 -56 109.5 -90t140.5 -34
q86 0 137 46t51 114q0 41 -17 72.5t-58.5 55.5t-63 33.5t-77.5 28.5q-11 4 -16 6q-98 33 -147.5 70.5t-49.5 103.5q0 64 46.5 105t124.5 41q73 0 135.5 -36.5t90.5 -88.5v-122zM467 753v27h61v-159q-34 49 -95.5 81.5t-130.5 32.5q-83 0 -134 -45.5t-51 -114.5
q0 -31 11.5 -57t29 -44.5t46.5 -35t55.5 -27.5t64.5 -24q108 -37 143 -58q79 -48 79 -124q0 -63 -46 -104.5t-128 -41.5q-77 0 -143.5 36.5t-106.5 97.5v113h60v-94q33 -42 83 -67t107 -25t85.5 23.5t28.5 61.5q0 22 -12.5 39.5t-39 32t-52 25t-66.5 24.5q-8 3 -12 4
q-40 14 -69.5 26.5t-65.5 34.5t-59 46t-38.5 60t-15.5 78q0 95 69 157.5t177 62.5q87 0 165 -42zM47 0v306h61v-306h-61zM602 474h-60v306h60v-306z" />
    <glyph glyph-name="T" unicode="T" horiz-adv-x="722" 
d="M204 74v61h89v510h-145v-105h-61v166h267v-632h-150zM709 540h-61v180h-575v-180h-60v240h696v-240zM518 135v-61h-150v632h266v-166h-60v105h-146v-510h90zM518 0h-314v60h314v-60z" />
    <glyph glyph-name="U" unicode="U" horiz-adv-x="840" 
d="M18 645v61h150v-405q0 -110 67 -183t186 -73q118 0 185 73t67 183v405h150v-61h-90v-344q0 -135 -83 -225.5t-229 -90.5q-147 0 -230 90.5t-83 225.5v344h-90zM599 645h-90v61h150v-405q0 -107 -62 -174.5t-176 -67.5q-115 0 -177 67.5t-62 174.5v405h150v-61h-90v-344
q0 -83 46 -132t133 -49t132.5 49t45.5 132v344zM18 720v60h314v-60h-314zM823 780v-60h-314v60h314z" />
    <glyph glyph-name="V" unicode="V" horiz-adv-x="841" 
d="M543 645v61h162l-284 -671l-284 671h162v-61h-72l193 -456l193 456h-70zM83 645h-98v61h137l293 -691l-56 -23zM482 -8l-55 23l292 691h138v-61h-99zM299 780v-60h-314v60h314zM857 780v-60h-314v60h314z" />
    <glyph glyph-name="W" unicode="W" horiz-adv-x="1178" 
d="M954 645h-78v61h162l-220 -666l-222 600l56 22l163 -440zM526 662l56 -22l-223 -600l-219 666h162v-61h-79l140 -423zM422 -6l-56 22l223 601l223 -601l-56 -22l-167 451zM883 -3l-57 19l227 690h136v-61h-92zM81 645h-93v61h136l228 -690l-57 -19zM302 780v-60h-314v60
h314zM876 720v60h313v-60h-313z" />
    <glyph glyph-name="X" unicode="X" horiz-adv-x="789" 
d="M786 135v-61h-138l-244 329l224 303h138v-61h-108l-179 -242l199 -268h108zM133 645h-108v61h138l223 -303l-243 -329h-138v61h108l198 268zM319 135v-61h-158l234 317l235 -317h-159v61h39l-115 155l-115 -155h39zM339 706v-61h-39l95 -129l95 129h-39v61h159l-215 -291
l-214 291h158zM766 780v-60h-315v60h315zM786 0h-315v60h315v-60zM319 0h-314v60h314v-60zM339 780v-60h-314v60h314z" />
    <glyph glyph-name="Y" unicode="Y" horiz-adv-x="761" 
d="M511 645h-49v61h159l-240 -380l-241 380h160v-61h-49l130 -206zM90 645h-105v61h138l251 -396v-236h-151v61h90v158zM538 135v-61h-150v236l250 396h138v-61h-106l-222 -352v-158h90zM300 780v-60h-315v60h315zM538 60v-60h-315v60h315zM776 780v-60h-314v60h314z" />
    <glyph glyph-name="Z" unicode="Z" horiz-adv-x="726" 
d="M552 240h61v-166h-525l578 634l45 -40l-486 -533h327v105zM190 540h-60v166h515l-578 -634l-46 40l487 533h-318v-105zM627 240h60v-240h-615v60h555v180zM661 780v-60h-545v-180h-60v240h605z" />
    <glyph glyph-name="bracketleft" unicode="[" 
d="M745 367q-9 -4 -10 -11t7 -12l28 -20q8 -5 7.5 -10.5t-10.5 -7.5l-34 -6q-10 -1 -12 -8t5 -14l24 -24q6 -7 4 -12t-12 -5l-35 2q-10 0 -13 -6t3 -14l18 -30q5 -8 2 -12.5t-13 -2.5l-34 9q-9 3 -13.5 -2.5t-1.5 -14.5l11 -33q4 -9 0 -12.5t-13 0.5l-31 15q-8 5 -14 0.5
t-5 -14.5l5 -33q1 -10 -3 -12.5t-12 3.5l-28 21q-8 6 -14 3t-7 -13l-2 -34q-1 -10 -6 -11.5t-11 5.5l-23 27q-16 16 -22 -5l-10 -33q-2 -10 -8 -10t-10 8l-17 30q-10 20 -23 0l-15 -30q-4 -8 -10 -8t-8 10l-10 33q-6 21 -22 5l-23 -27q-14 -15 -17 6l-2 34q-1 10 -7.5 13
t-14.5 -3l-26 -21q-8 -6 -13 -3.5t-3 12.5l5 33q1 10 -5 14.5t-15 -0.5l-30 -15q-9 -4 -13 -0.5t0 12.5l11 33q4 9 -1 14.5t-14 2.5l-34 -9q-10 -2 -13 2.5t2 12.5l19 30q5 8 2 14t-13 6l-35 -2q-10 0 -12 5t4 12l25 24q6 7 4 14t-12 8l-33 6q-7 1 -10 4t-1 7t7 7l28 20l6 6
q9 8 18 -6l16 -31q5 -9 10 -8t8 10l9 34q2 6 5.5 8.5t8 1.5t8.5 -6l23 -26q7 -7 11.5 -5.5t5.5 11.5l2 34q2 10 7.5 12.5t13.5 -3.5l28 -21q8 -6 12.5 -3.5t2.5 12.5l-4 34q-1 10 4.5 14t13.5 -1l31 -14q9 -4 13 -0.5t1 12.5l-11 33q-4 9 0.5 14t13.5 2l7 -1
q20 -38 34.5 -99t14.5 -106q-14 -18 -46 -18h-4q0 22 -16 35q9 -10 9 -27v-7q-16 1 -16 19q0 21 -13.5 35t-37.5 14q-20 0 -33.5 -15.5t-13.5 -38.5q0 -29 24.5 -47t67.5 -18q68 0 134.5 53t105 127t38.5 139q0 29 -18 48t-46 19q-23 0 -41.5 -16.5t-18.5 -41.5
q0 -52 58 -58q-15 -60 -29 -85q-13 102 -58 150q44 -58 52 -161l-14 -20q0 76 -25 140t-64 84q-6 11 12 15l34 6q9 2 10 7t-7 10l-29 19q-17 15 3 23l31 14q7 2 9.5 5.5t0 7t-9.5 5.5l-31 13q-11 5 -10 14q6 3 7 8l17 30q5 9 10.5 8.5t7.5 -9.5l10 -33q7 -23 22 -5l23 26
q6 8 11 6.5t6 -11.5l2 -35q1 -10 7.5 -12.5t13.5 3.5l28 21q7 6 11.5 3t3.5 -13l-5 -34q-1 -10 5 -14t14 1l31 16q9 4 13 0t0 -14l-11 -31q-3 -10 1.5 -15t13.5 -2l34 7q10 3 13 -1t-2 -13l-18 -29q-6 -8 -3 -14.5t13 -5.5l35 2q10 0 12 -5t-4 -12l-24 -26q-7 -7 -5 -13.5
t12 -7.5l34 -6q20 -5 3 -19l-28 -19q-8 -5 -7.5 -11.5t10.5 -10.5l31 -13q9 -4 9 -9t-9 -9zM364 164q69 0 135 52.5t104.5 127t38.5 139.5q0 31 -20 49q12 -18 12 -41q0 -103 -85 -210q-92 -113 -196 -113q-29 0 -49 9q20 -13 60 -13z" />
    <glyph glyph-name="backslash" unicode="\" 
d="M745 367q-9 -4 -10 -11t7 -12l28 -20q8 -5 7.5 -10.5t-10.5 -7.5l-34 -6q-10 -1 -12 -8t5 -14l24 -24q6 -7 4 -12t-12 -5l-35 2q-10 0 -13 -6t3 -14l18 -30q5 -8 2 -12.5t-13 -2.5l-34 9q-9 3 -13.5 -2.5t-1.5 -14.5l11 -33q4 -9 0 -12.5t-13 0.5l-31 15q-8 5 -14 0.5
t-5 -14.5l5 -33q1 -10 -3 -12.5t-12 3.5l-28 21q-8 6 -14 3t-7 -13l-2 -34q-1 -10 -6 -11.5t-11 5.5l-23 27q-16 16 -22 -5l-10 -33q-2 -10 -8 -10t-10 8l-17 30q-10 20 -23 0l-15 -30q-4 -8 -10 -8t-8 10l-10 33q-6 21 -22 5l-23 -27q-14 -15 -17 6l-2 34q-1 10 -7.5 13
t-14.5 -3l-26 -21q-8 -6 -13 -3.5t-3 12.5l5 33q1 10 -5 14.5t-15 -0.5l-30 -15q-9 -4 -13 -0.5t0 12.5l11 33q4 9 -1 14.5t-14 2.5l-34 -9q-10 -2 -13 2.5t2 12.5l19 30q5 8 2 14t-13 6l-35 -2q-10 0 -12 5t4 12l25 24q6 7 4 14t-12 8l-33 6q-7 1 -10 4t-1 7t7 7l28 20l6 6
q9 8 18 -6l16 -31q5 -9 10 -8t8 10l9 34q2 6 5.5 8.5t8 1.5t8.5 -6l23 -26q7 -7 11.5 -5.5t5.5 11.5l2 34q2 10 7.5 12.5t13.5 -3.5l28 -21q8 -6 12.5 -3.5t2.5 12.5l-4 34q-1 10 4.5 14t13.5 -1l31 -14q9 -4 13 -0.5t1 12.5l-11 33q-4 9 0.5 14t13.5 2l7 -1
q20 -38 34.5 -99t14.5 -106q-14 -18 -46 -18h-4q0 22 -16 35q9 -10 9 -27v-7q-16 1 -16 19q0 21 -13.5 35t-37.5 14q-20 0 -33.5 -15.5t-13.5 -38.5q0 -29 24.5 -47t67.5 -18q68 0 134.5 53t105 127t38.5 139q0 29 -18 48t-46 19q-23 0 -41.5 -16.5t-18.5 -41.5
q0 -52 58 -58q-15 -60 -29 -85q-13 102 -58 150q44 -58 52 -161l-14 -20q0 76 -25 140t-64 84q-6 11 12 15l34 6q9 2 10 7t-7 10l-29 19q-17 15 3 23l31 14q7 2 9.5 5.5t0 7t-9.5 5.5l-31 13q-11 5 -10 14q6 3 7 8l17 30q5 9 10.5 8.5t7.5 -9.5l10 -33q7 -23 22 -5l23 26
q6 8 11 6.5t6 -11.5l2 -35q1 -10 7.5 -12.5t13.5 3.5l28 21q7 6 11.5 3t3.5 -13l-5 -34q-1 -10 5 -14t14 1l31 16q9 4 13 0t0 -14l-11 -31q-3 -10 1.5 -15t13.5 -2l34 7q10 3 13 -1t-2 -13l-18 -29q-6 -8 -3 -14.5t13 -5.5l35 2q10 0 12 -5t-4 -12l-24 -26q-7 -7 -5 -13.5
t12 -7.5l34 -6q20 -5 3 -19l-28 -19q-8 -5 -7.5 -11.5t10.5 -10.5l31 -13q9 -4 9 -9t-9 -9zM364 164q69 0 135 52.5t104.5 127t38.5 139.5q0 31 -20 49q12 -18 12 -41q0 -103 -85 -210q-92 -113 -196 -113q-29 0 -49 9q20 -13 60 -13z" />
    <glyph glyph-name="bracketright" unicode="]" 
d="M745 367q-9 -4 -10 -11t7 -12l28 -20q8 -5 7.5 -10.5t-10.5 -7.5l-34 -6q-10 -1 -12 -8t5 -14l24 -24q6 -7 4 -12t-12 -5l-35 2q-10 0 -13 -6t3 -14l18 -30q5 -8 2 -12.5t-13 -2.5l-34 9q-9 3 -13.5 -2.5t-1.5 -14.5l11 -33q4 -9 0 -12.5t-13 0.5l-31 15q-8 5 -14 0.5
t-5 -14.5l5 -33q1 -10 -3 -12.5t-12 3.5l-28 21q-8 6 -14 3t-7 -13l-2 -34q-1 -10 -6 -11.5t-11 5.5l-23 27q-16 16 -22 -5l-10 -33q-2 -10 -8 -10t-10 8l-17 30q-10 20 -23 0l-15 -30q-4 -8 -10 -8t-8 10l-10 33q-6 21 -22 5l-23 -27q-14 -15 -17 6l-2 34q-1 10 -7.5 13
t-14.5 -3l-26 -21q-8 -6 -13 -3.5t-3 12.5l5 33q1 10 -5 14.5t-15 -0.5l-30 -15q-9 -4 -13 -0.5t0 12.5l11 33q4 9 -1 14.5t-14 2.5l-34 -9q-10 -2 -13 2.5t2 12.5l19 30q5 8 2 14t-13 6l-35 -2q-10 0 -12 5t4 12l25 24q6 7 4 14t-12 8l-33 6q-7 1 -10 4t-1 7t7 7l28 20l6 6
q9 8 18 -6l16 -31q5 -9 10 -8t8 10l9 34q2 6 5.5 8.5t8 1.5t8.5 -6l23 -26q7 -7 11.5 -5.5t5.5 11.5l2 34q2 10 7.5 12.5t13.5 -3.5l28 -21q8 -6 12.5 -3.5t2.5 12.5l-4 34q-1 10 4.5 14t13.5 -1l31 -14q9 -4 13 -0.5t1 12.5l-11 33q-4 9 0.5 14t13.5 2l7 -1
q20 -38 34.5 -99t14.5 -106q-14 -18 -46 -18h-4q0 22 -16 35q9 -10 9 -27v-7q-16 1 -16 19q0 21 -13.5 35t-37.5 14q-20 0 -33.5 -15.5t-13.5 -38.5q0 -29 24.5 -47t67.5 -18q68 0 134.5 53t105 127t38.5 139q0 29 -18 48t-46 19q-23 0 -41.5 -16.5t-18.5 -41.5
q0 -52 58 -58q-15 -60 -29 -85q-13 102 -58 150q44 -58 52 -161l-14 -20q0 76 -25 140t-64 84q-6 11 12 15l34 6q9 2 10 7t-7 10l-29 19q-17 15 3 23l31 14q7 2 9.5 5.5t0 7t-9.5 5.5l-31 13q-11 5 -10 14q6 3 7 8l17 30q5 9 10.5 8.5t7.5 -9.5l10 -33q7 -23 22 -5l23 26
q6 8 11 6.5t6 -11.5l2 -35q1 -10 7.5 -12.5t13.5 3.5l28 21q7 6 11.5 3t3.5 -13l-5 -34q-1 -10 5 -14t14 1l31 16q9 4 13 0t0 -14l-11 -31q-3 -10 1.5 -15t13.5 -2l34 7q10 3 13 -1t-2 -13l-18 -29q-6 -8 -3 -14.5t13 -5.5l35 2q10 0 12 -5t-4 -12l-24 -26q-7 -7 -5 -13.5
t12 -7.5l34 -6q20 -5 3 -19l-28 -19q-8 -5 -7.5 -11.5t10.5 -10.5l31 -13q9 -4 9 -9t-9 -9zM364 164q69 0 135 52.5t104.5 127t38.5 139.5q0 31 -20 49q12 -18 12 -41q0 -103 -85 -210q-92 -113 -196 -113q-29 0 -49 9q20 -13 60 -13z" />
    <glyph glyph-name="asciicircum" unicode="^" 
d="M745 367q-9 -4 -10 -11t7 -12l28 -20q8 -5 7.5 -10.5t-10.5 -7.5l-34 -6q-10 -1 -12 -8t5 -14l24 -24q6 -7 4 -12t-12 -5l-35 2q-10 0 -13 -6t3 -14l18 -30q5 -8 2 -12.5t-13 -2.5l-34 9q-9 3 -13.5 -2.5t-1.5 -14.5l11 -33q4 -9 0 -12.5t-13 0.5l-31 15q-8 5 -14 0.5
t-5 -14.5l5 -33q1 -10 -3 -12.5t-12 3.5l-28 21q-8 6 -14 3t-7 -13l-2 -34q-1 -10 -6 -11.5t-11 5.5l-23 27q-16 16 -22 -5l-10 -33q-2 -10 -8 -10t-10 8l-17 30q-10 20 -23 0l-15 -30q-4 -8 -10 -8t-8 10l-10 33q-6 21 -22 5l-23 -27q-14 -15 -17 6l-2 34q-1 10 -7.5 13
t-14.5 -3l-26 -21q-8 -6 -13 -3.5t-3 12.5l5 33q1 10 -5 14.5t-15 -0.5l-30 -15q-9 -4 -13 -0.5t0 12.5l11 33q4 9 -1 14.5t-14 2.5l-34 -9q-10 -2 -13 2.5t2 12.5l19 30q5 8 2 14t-13 6l-35 -2q-10 0 -12 5t4 12l25 24q6 7 4 14t-12 8l-33 6q-7 1 -10 4t-1 7t7 7l28 20l6 6
q9 8 18 -6l16 -31q5 -9 10 -8t8 10l9 34q2 6 5.5 8.5t8 1.5t8.5 -6l23 -26q7 -7 11.5 -5.5t5.5 11.5l2 34q2 10 7.5 12.5t13.5 -3.5l28 -21q8 -6 12.5 -3.5t2.5 12.5l-4 34q-1 10 4.5 14t13.5 -1l31 -14q9 -4 13 -0.5t1 12.5l-11 33q-4 9 0.5 14t13.5 2l7 -1
q20 -38 34.5 -99t14.5 -106q-14 -18 -46 -18h-4q0 22 -16 35q9 -10 9 -27v-7q-16 1 -16 19q0 21 -13.5 35t-37.5 14q-20 0 -33.5 -15.5t-13.5 -38.5q0 -29 24.5 -47t67.5 -18q68 0 134.5 53t105 127t38.5 139q0 29 -18 48t-46 19q-23 0 -41.5 -16.5t-18.5 -41.5
q0 -52 58 -58q-15 -60 -29 -85q-13 102 -58 150q44 -58 52 -161l-14 -20q0 76 -25 140t-64 84q-6 11 12 15l34 6q9 2 10 7t-7 10l-29 19q-17 15 3 23l31 14q7 2 9.5 5.5t0 7t-9.5 5.5l-31 13q-11 5 -10 14q6 3 7 8l17 30q5 9 10.5 8.5t7.5 -9.5l10 -33q7 -23 22 -5l23 26
q6 8 11 6.5t6 -11.5l2 -35q1 -10 7.5 -12.5t13.5 3.5l28 21q7 6 11.5 3t3.5 -13l-5 -34q-1 -10 5 -14t14 1l31 16q9 4 13 0t0 -14l-11 -31q-3 -10 1.5 -15t13.5 -2l34 7q10 3 13 -1t-2 -13l-18 -29q-6 -8 -3 -14.5t13 -5.5l35 2q10 0 12 -5t-4 -12l-24 -26q-7 -7 -5 -13.5
t12 -7.5l34 -6q20 -5 3 -19l-28 -19q-8 -5 -7.5 -11.5t10.5 -10.5l31 -13q9 -4 9 -9t-9 -9zM364 164q69 0 135 52.5t104.5 127t38.5 139.5q0 31 -20 49q12 -18 12 -41q0 -103 -85 -210q-92 -113 -196 -113q-29 0 -49 9q20 -13 60 -13z" />
    <glyph glyph-name="underscore" unicode="_" 
d="M745 367q-9 -4 -10 -11t7 -12l28 -20q8 -5 7.5 -10.5t-10.5 -7.5l-34 -6q-10 -1 -12 -8t5 -14l24 -24q6 -7 4 -12t-12 -5l-35 2q-10 0 -13 -6t3 -14l18 -30q5 -8 2 -12.5t-13 -2.5l-34 9q-9 3 -13.5 -2.5t-1.5 -14.5l11 -33q4 -9 0 -12.5t-13 0.5l-31 15q-8 5 -14 0.5
t-5 -14.5l5 -33q1 -10 -3 -12.5t-12 3.5l-28 21q-8 6 -14 3t-7 -13l-2 -34q-1 -10 -6 -11.5t-11 5.5l-23 27q-16 16 -22 -5l-10 -33q-2 -10 -8 -10t-10 8l-17 30q-10 20 -23 0l-15 -30q-4 -8 -10 -8t-8 10l-10 33q-6 21 -22 5l-23 -27q-14 -15 -17 6l-2 34q-1 10 -7.5 13
t-14.5 -3l-26 -21q-8 -6 -13 -3.5t-3 12.5l5 33q1 10 -5 14.5t-15 -0.5l-30 -15q-9 -4 -13 -0.5t0 12.5l11 33q4 9 -1 14.5t-14 2.5l-34 -9q-10 -2 -13 2.5t2 12.5l19 30q5 8 2 14t-13 6l-35 -2q-10 0 -12 5t4 12l25 24q6 7 4 14t-12 8l-33 6q-7 1 -10 4t-1 7t7 7l28 20l6 6
q9 8 18 -6l16 -31q5 -9 10 -8t8 10l9 34q2 6 5.5 8.5t8 1.5t8.5 -6l23 -26q7 -7 11.5 -5.5t5.5 11.5l2 34q2 10 7.5 12.5t13.5 -3.5l28 -21q8 -6 12.5 -3.5t2.5 12.5l-4 34q-1 10 4.5 14t13.5 -1l31 -14q9 -4 13 -0.5t1 12.5l-11 33q-4 9 0.5 14t13.5 2l7 -1
q20 -38 34.5 -99t14.5 -106q-14 -18 -46 -18h-4q0 22 -16 35q9 -10 9 -27v-7q-16 1 -16 19q0 21 -13.5 35t-37.5 14q-20 0 -33.5 -15.5t-13.5 -38.5q0 -29 24.5 -47t67.5 -18q68 0 134.5 53t105 127t38.5 139q0 29 -18 48t-46 19q-23 0 -41.5 -16.5t-18.5 -41.5
q0 -52 58 -58q-15 -60 -29 -85q-13 102 -58 150q44 -58 52 -161l-14 -20q0 76 -25 140t-64 84q-6 11 12 15l34 6q9 2 10 7t-7 10l-29 19q-17 15 3 23l31 14q7 2 9.5 5.5t0 7t-9.5 5.5l-31 13q-11 5 -10 14q6 3 7 8l17 30q5 9 10.5 8.5t7.5 -9.5l10 -33q7 -23 22 -5l23 26
q6 8 11 6.5t6 -11.5l2 -35q1 -10 7.5 -12.5t13.5 3.5l28 21q7 6 11.5 3t3.5 -13l-5 -34q-1 -10 5 -14t14 1l31 16q9 4 13 0t0 -14l-11 -31q-3 -10 1.5 -15t13.5 -2l34 7q10 3 13 -1t-2 -13l-18 -29q-6 -8 -3 -14.5t13 -5.5l35 2q10 0 12 -5t-4 -12l-24 -26q-7 -7 -5 -13.5
t12 -7.5l34 -6q20 -5 3 -19l-28 -19q-8 -5 -7.5 -11.5t10.5 -10.5l31 -13q9 -4 9 -9t-9 -9zM364 164q69 0 135 52.5t104.5 127t38.5 139.5q0 31 -20 49q12 -18 12 -41q0 -103 -85 -210q-92 -113 -196 -113q-29 0 -49 9q20 -13 60 -13z" />
    <glyph glyph-name="grave" unicode="`" 
d="M745 367q-9 -4 -10 -11t7 -12l28 -20q8 -5 7.5 -10.5t-10.5 -7.5l-34 -6q-10 -1 -12 -8t5 -14l24 -24q6 -7 4 -12t-12 -5l-35 2q-10 0 -13 -6t3 -14l18 -30q5 -8 2 -12.5t-13 -2.5l-34 9q-9 3 -13.5 -2.5t-1.5 -14.5l11 -33q4 -9 0 -12.5t-13 0.5l-31 15q-8 5 -14 0.5
t-5 -14.5l5 -33q1 -10 -3 -12.5t-12 3.5l-28 21q-8 6 -14 3t-7 -13l-2 -34q-1 -10 -6 -11.5t-11 5.5l-23 27q-16 16 -22 -5l-10 -33q-2 -10 -8 -10t-10 8l-17 30q-10 20 -23 0l-15 -30q-4 -8 -10 -8t-8 10l-10 33q-6 21 -22 5l-23 -27q-14 -15 -17 6l-2 34q-1 10 -7.5 13
t-14.5 -3l-26 -21q-8 -6 -13 -3.5t-3 12.5l5 33q1 10 -5 14.5t-15 -0.5l-30 -15q-9 -4 -13 -0.5t0 12.5l11 33q4 9 -1 14.5t-14 2.5l-34 -9q-10 -2 -13 2.5t2 12.5l19 30q5 8 2 14t-13 6l-35 -2q-10 0 -12 5t4 12l25 24q6 7 4 14t-12 8l-33 6q-7 1 -10 4t-1 7t7 7l28 20l6 6
q9 8 18 -6l16 -31q5 -9 10 -8t8 10l9 34q2 6 5.5 8.5t8 1.5t8.5 -6l23 -26q7 -7 11.5 -5.5t5.5 11.5l2 34q2 10 7.5 12.5t13.5 -3.5l28 -21q8 -6 12.5 -3.5t2.5 12.5l-4 34q-1 10 4.5 14t13.5 -1l31 -14q9 -4 13 -0.5t1 12.5l-11 33q-4 9 0.5 14t13.5 2l7 -1
q20 -38 34.5 -99t14.5 -106q-14 -18 -46 -18h-4q0 22 -16 35q9 -10 9 -27v-7q-16 1 -16 19q0 21 -13.5 35t-37.5 14q-20 0 -33.5 -15.5t-13.5 -38.5q0 -29 24.5 -47t67.5 -18q68 0 134.5 53t105 127t38.5 139q0 29 -18 48t-46 19q-23 0 -41.5 -16.5t-18.5 -41.5
q0 -52 58 -58q-15 -60 -29 -85q-13 102 -58 150q44 -58 52 -161l-14 -20q0 76 -25 140t-64 84q-6 11 12 15l34 6q9 2 10 7t-7 10l-29 19q-17 15 3 23l31 14q7 2 9.5 5.5t0 7t-9.5 5.5l-31 13q-11 5 -10 14q6 3 7 8l17 30q5 9 10.5 8.5t7.5 -9.5l10 -33q7 -23 22 -5l23 26
q6 8 11 6.5t6 -11.5l2 -35q1 -10 7.5 -12.5t13.5 3.5l28 21q7 6 11.5 3t3.5 -13l-5 -34q-1 -10 5 -14t14 1l31 16q9 4 13 0t0 -14l-11 -31q-3 -10 1.5 -15t13.5 -2l34 7q10 3 13 -1t-2 -13l-18 -29q-6 -8 -3 -14.5t13 -5.5l35 2q10 0 12 -5t-4 -12l-24 -26q-7 -7 -5 -13.5
t12 -7.5l34 -6q20 -5 3 -19l-28 -19q-8 -5 -7.5 -11.5t10.5 -10.5l31 -13q9 -4 9 -9t-9 -9zM364 164q69 0 135 52.5t104.5 127t38.5 139.5q0 31 -20 49q12 -18 12 -41q0 -103 -85 -210q-92 -113 -196 -113q-29 0 -49 9q20 -13 60 -13z" />
    <glyph glyph-name="a" unicode="a" horiz-adv-x="612" 
d="M608 60v-60h-224v16q-68 -26 -131 -26q-98 0 -163.5 56t-65.5 144q0 37 13 71.5t40 64.5t75 48.5t110 18.5q56 0 122 -14q-3 26 -26.5 37t-74.5 11q-77 0 -176 -33l-20 57q106 36 195 36q163 2 163 -115v-70q-106 31 -183 31q-90 0 -134 -42.5t-44 -100.5
q0 -61 47.5 -100.5t121.5 -39.5q106 0 192 68v-58h163zM262 319q73 0 183 -33v-151q-88 -71 -192 -71q-70 0 -112.5 34.5t-42.5 91.5q0 54 39.5 91.5t124.5 37.5zM608 135v-61h-149v298q0 70 -49.5 100t-127.5 29q-93 0 -199 -36l-21 57q116 39 220 40q45 0 84 -9.5t75 -30
t57 -59t21 -91.5v-237h89zM253 125q70 0 131 39v77q-72 17 -122 17q-104 0 -104 -68q0 -29 24.5 -47t70.5 -18z" />
    <glyph glyph-name="b" unicode="b" horiz-adv-x="698" 
d="M177 277q0 89 62 151t151 62t151 -62t62 -151t-62.5 -151t-150.5 -62t-150.5 62t-62.5 151zM13 744v60h223v-284q71 45 154 45q119 0 203.5 -84.5t84.5 -203.5q0 -118 -84.5 -202.5t-203.5 -84.5q-86 0 -154 45v-35h-223v60h163v141q24 -66 83 -108.5t131 -42.5
q93 0 160 67t67 160q0 94 -67 160.5t-160 66.5q-73 0 -131.5 -42.5t-82.5 -109.5v392h-163zM238 277q0 -63 44.5 -107.5t107.5 -44.5q64 0 108.5 44.5t44.5 107.5q0 64 -44.5 108.5t-108.5 44.5q-63 0 -107.5 -44.5t-44.5 -108.5zM13 669v61h149v-656h-149v61h89v534h-89z
" />
    <glyph glyph-name="c" unicode="c" horiz-adv-x="580" 
d="M410 546v1h60v-124q-23 37 -67 59t-95 22q-93 0 -160 -66.5t-67 -160.5q0 -95 66 -161t170 -66q108 0 192 71l38 -47q-45 -39 -106.5 -61.5t-123.5 -22.5q-130 0 -213 83.5t-83 203.5q0 119 84 203.5t203 84.5q51 0 102 -19zM470 287h-60v89q-9 23 -37 38.5t-65 15.5
q-63 0 -107.5 -44.5t-44.5 -108.5q0 -66 44 -109t117 -43q80 0 145 53l38 -47q-81 -67 -183 -67q-99 0 -160.5 61t-61.5 152q0 89 62 151t151 62q58 0 103.5 -28t58.5 -74v-101zM545 287h-61v260h61v-260z" />
    <glyph glyph-name="d" unicode="d" horiz-adv-x="699" 
d="M95 277q0 89 62 151t151 62t151 -62t62 -151t-62.5 -151t-150.5 -62t-150.5 62t-62.5 151zM81 277q0 -93 67 -160t160 -67q72 0 131 42.5t83 108.5v-141h163v-60h-223v35q-70 -45 -154 -45q-118 0 -202.5 84t-84.5 203t84 203.5t203 84.5q82 0 154 -45v149h-89v61h149
v-378q-24 67 -83 109.5t-131 42.5q-93 0 -160 -66.5t-67 -160.5zM156 277q0 -63 44.5 -107.5t107.5 -44.5q64 0 108.5 44.5t44.5 107.5q0 64 -44.5 108.5t-108.5 44.5q-63 0 -107.5 -44.5t-44.5 -108.5zM685 135v-61h-149v670h-163v60h224v-669h88z" />
    <glyph glyph-name="e" unicode="e" horiz-adv-x="595" 
d="M467 178l38 -48q-86 -66 -184 -66q-99 0 -161.5 59t-64.5 147h415q20 88 -37.5 161t-164.5 73q-100 0 -163.5 -67.5t-63.5 -160.5q0 -94 67.5 -160t172.5 -66q103 0 192 70l39 -46q-47 -39 -108.5 -61.5t-122.5 -22.5q-131 0 -215.5 83.5t-84.5 202.5q0 117 80 203
t207 86q61 0 113 -21.5t85 -58.5t52 -82t17.5 -96t-22.5 -97h-383q18 -39 57.5 -62t93.5 -23q79 0 146 53zM498 284h-403q3 86 61.5 146t151.5 60q95 0 149 -63.5t41 -142.5zM308 430q-49 0 -84.5 -23t-53.5 -62h267q-12 37 -46 61t-83 24z" />
    <glyph glyph-name="f" unicode="f" horiz-adv-x="436" 
d="M3 -324q-95 0 -164 66.5t-61 161.5l60 -6q-7 -67 43 -114t122 -47q185 0 185 263v481h247v-61h-187v-420q0 -156 -63.5 -240t-181.5 -84zM-148 -103l61 -6q-4 -31 23.5 -55.5t66.5 -24.5q56 0 83.5 43.5t27.5 145.5v420h-99v61h159v-481q0 -249 -171 -249q-65 0 -111 43
t-40 103zM584 649l-60 6q6 68 -44 114.5t-121 46.5q-185 0 -185 -263v-58h-159v60h99q0 155 63.5 238.5t181.5 83.5q95 0 164.5 -66.5t60.5 -161.5zM435 555v-60h-247v58q0 249 171 249q65 0 111 -43t40 -103l-61 6q3 31 -24 55.5t-66 24.5q-56 0 -83.5 -43.5t-27.5 -143.5
h187z" />
    <glyph glyph-name="g" unicode="g" horiz-adv-x="699" 
d="M95 277q0 89 62 151t151 62t151 -62t62 -151t-62.5 -151t-150.5 -62t-150.5 62t-62.5 151zM81 277q0 -93 67 -160t160 -67q72 0 131 42.5t83 108.5v-238q0 -108 -51 -163t-139 -55q-71 0 -120 43.5t-49 105.5q0 14 3 29l59 -10q-2 -12 -2 -19q0 -37 31 -63t78 -26
q130 0 130 158v72q-70 -45 -154 -45q-118 0 -202.5 84t-84.5 203t84 203.5t203 84.5q82 0 154 -45v35h223v-60h-163v-143q-24 67 -83 109.5t-131 42.5q-93 0 -160 -66.5t-67 -160.5zM88 -106q0 18 4 42l60 -11q-3 -15 -3 -31q0 -67 53.5 -115t129.5 -48q92 0 148 59.5
t56 172.5v518h149v-61h-88v-457q0 -139 -73.5 -216t-191.5 -77q-100 0 -172 65.5t-72 158.5zM156 277q0 -63 44.5 -107.5t107.5 -44.5q64 0 108.5 44.5t44.5 107.5q0 64 -44.5 108.5t-108.5 44.5q-63 0 -107.5 -44.5t-44.5 -108.5z" />
    <glyph glyph-name="h" unicode="h" horiz-adv-x="684" 
d="M681 135v-61h-149v246q0 96 -46.5 140t-111.5 44q-52 0 -104 -27.5t-94 -74.5v342h-163v60h224v-277q68 38 137 38q38 0 74.5 -13t70 -40t54 -77t20.5 -115v-185h88zM681 60v-60h-223v320q0 110 -84 110q-74 0 -137 -72v-223h88v-61h-149v306q89 110 198 110
q61 0 102.5 -40t41.5 -130v-260h163zM102 669h-89v61h149v-656h-149v61h89v534zM13 0v60h312v-60h-312z" />
    <glyph glyph-name="i" unicode="i" horiz-adv-x="359" 
d="M344 135v-61h-149v421h-163v60h223v-420h89zM32 74v61h88v285h-88v61h149v-407h-149zM32 0v60h312v-60h-312zM73 718q0 44 30.5 74.5t74.5 30.5q43 0 74 -31t31 -74t-31 -74t-74 -31t-74 31t-31 74zM131 718q0 -19 14 -32.5t33 -13.5t32.5 13.5t13.5 32.5t-13.5 33
t-32.5 14q-20 0 -33.5 -13.5t-13.5 -33.5zM145 718q0 14 9.5 23.5t23.5 9.5t23 -9.5t9 -23.5t-9 -23t-23 -9t-23.5 9t-9.5 23z" />
    <glyph glyph-name="j" unicode="j" horiz-adv-x="311" 
d="M14 495v60h224v-613q0 -120 -59.5 -188.5t-154.5 -68.5q-82 0 -139.5 58.5t-57.5 140.5q0 19 4 39l60 -12q-3 -12 -3 -27q0 -57 40 -98t96 -41q71 0 112 49.5t41 147.5v553h-163zM14 420v61h149v-539q0 -92 -37 -137.5t-102 -45.5q-51 0 -86.5 36.5t-35.5 88.5q0 6 3 24
l59 -12q-2 -10 -2 -12q0 -27 18 -46t44 -19q79 0 79 123v478h-89zM56 718q0 44 31 74.5t74 30.5t74 -31t31 -74t-31 -74t-74 -31t-74 31t-31 74zM114 718q0 -19 14 -32.5t33 -13.5t32.5 13.5t13.5 32.5t-13.5 33t-32.5 14t-33 -13.5t-14 -33.5zM128 718q0 14 9.5 23.5
t23.5 9.5t23 -9.5t9 -23.5t-9.5 -23t-22.5 -9q-14 0 -23.5 9t-9.5 23z" />
    <glyph glyph-name="k" unicode="k" horiz-adv-x="650" 
d="M640 135v-61h-153l-120 150q77 26 115 68.5t38 90.5q0 51 -37 88t-94 37q-45 0 -101.5 -25t-110.5 -78v339h-163v60h224v-283q79 45 155 45q83 0 137 -55t54 -130q0 -117 -118 -183l50 -63h124zM312 135v-61h-135v311q54 57 110.5 83t101.5 26q53 0 85 -32t32 -79
q0 -46 -37 -85.5t-114 -62.5l-16 56q58 17 84.5 41.5t26.5 48.5q0 22 -15.5 36t-41.5 14q-76 0 -155 -76v-220h74zM103 669h-89v61h149v-656h-149v61h89v534zM640 60v-60h-189l-145 184l47 38l128 -162h159zM14 0v60h298v-60h-298z" />
    <glyph glyph-name="l" unicode="l" horiz-adv-x="351" 
d="M72 669h-88v61h149v-537q0 -77 36.5 -110t77.5 -33q48 0 86 37l41 -45q-57 -52 -127 -52q-25 0 -52 9t-56.5 29.5t-48 63t-18.5 101.5v476zM282 141l41 -44q-34 -33 -76 -33q-38 0 -69 29t-31 100v551h-163v60h223v-611q0 -68 40 -68q18 0 35 16z" />
    <glyph glyph-name="m" unicode="m" horiz-adv-x="973" 
d="M970 135v-61h-150v270q0 83 -42.5 121.5t-98.5 38.5q-97 0 -178 -107q-13 55 -51 81t-84 26q-97 0 -172 -100v91h-164v60h225v-18q53 28 111 28q91 0 149 -65q76 65 164 65q34 0 67 -11.5t64.5 -35.5t50.5 -69t19 -105v-209h90zM343 135v-61h-149v305q75 111 172 111
q52 0 89.5 -34t37.5 -112v-284h163v-60h-224v344q0 86 -66 86q-57 0 -111 -70v-225h88zM656 135v-61h-149v270q0 13 -2 33q77 113 174 113q52 0 89.5 -34t37.5 -112v-284h164v-60h-225v344q0 86 -66 86q-58 0 -113 -70q1 -5 1 -16v-209h89zM31 74v61h89v285h-90v61h150v-407
h-149zM343 0h-312v60h312v-60z" />
    <glyph glyph-name="n" unicode="n" horiz-adv-x="699" 
d="M698 60v-60h-223v320q0 110 -84 110q-73 0 -138 -73v-222h89v-61h-149v306q89 110 198 110q61 0 102.5 -40t41.5 -130v-260h163zM698 135v-61h-149v246q0 96 -46.5 140t-111.5 44q-108 0 -198 -102v93h-163v60h223v-28q68 38 138 38q38 0 74.5 -13t69.5 -40t53.5 -77
t20.5 -115v-185h89zM119 420h-89v61h149v-407h-149v61h89v285zM30 0v60h312v-60h-312z" />
    <glyph glyph-name="o" unicode="o" horiz-adv-x="616" 
d="M21 277q0 119 84 203.5t203 84.5t203.5 -84.5t84.5 -203.5q0 -118 -84.5 -202.5t-203.5 -84.5q-118 0 -202.5 84t-84.5 203zM156 277q0 -63 44.5 -107.5t107.5 -44.5q64 0 108.5 44.5t44.5 107.5q0 64 -44.5 108.5t-108.5 44.5q-63 0 -107.5 -44.5t-44.5 -108.5zM81 277
q0 -93 67 -160t160 -67t160 67t67 160q0 94 -67 160.5t-160 66.5t-160 -66.5t-67 -160.5zM95 277q0 89 62 151t151 62t151 -62t62 -151t-62.5 -151t-150.5 -62t-150.5 62t-62.5 151z" />
    <glyph glyph-name="p" unicode="p" horiz-adv-x="700" 
d="M179 277q0 89 62 151t151 62t151 -62t62 -151t-62.5 -151t-150.5 -62t-150.5 62t-62.5 151zM327 -114v-60h-149v375q24 -66 83 -108.5t131 -42.5q93 0 160 67t67 160q0 94 -67 160.5t-160 66.5q-73 0 -131.5 -42.5t-82.5 -109.5v143h-163v60h223v-35q71 45 154 45
q119 0 203.5 -84.5t84.5 -203.5q0 -118 -84.5 -202.5t-203.5 -84.5q-86 0 -154 45v-149h89zM240 277q0 -63 44.5 -107.5t107.5 -44.5q64 0 108.5 44.5t44.5 107.5q0 64 -44.5 108.5t-108.5 44.5q-63 0 -107.5 -44.5t-44.5 -108.5zM103 420h-88v61h149v-655h-149v60h88v534z
M327 -188v-60h-312v60h312z" />
    <glyph glyph-name="q" unicode="q" horiz-adv-x="729" 
d="M95 277q0 89 62 151t151 62t151 -62t62 -151t-62.5 -151t-150.5 -62t-150.5 62t-62.5 151zM373 -174v60h89v149q-70 -45 -154 -45q-118 0 -202.5 84t-84.5 203t84 203.5t203 84.5q82 0 154 -45v35h223v-60h-163v-143q-24 67 -83 109.5t-131 42.5q-93 0 -160 -66.5
t-67 -160.5q0 -93 67 -160t160 -67q72 0 131 42.5t83 108.5v-375h-149zM156 277q0 -63 44.5 -107.5t107.5 -44.5q64 0 108.5 44.5t44.5 107.5q0 64 -44.5 108.5t-108.5 44.5q-63 0 -107.5 -44.5t-44.5 -108.5zM685 -114v-60h-149v655h149v-61h-88v-534h88zM685 -248h-312v60
h312v-60z" />
    <glyph glyph-name="r" unicode="r" horiz-adv-x="551" 
d="M534 335h-61v158q-39 10 -70.5 11.5t-60.5 -10.5t-51.5 -27t-41.5 -37t-31.5 -40.5t-22.5 -38.5v144h-163v60h224v-38q123 87 278 17v-199zM459 335h-60v95q-52 -4 -89 -43.5t-54 -81.5v-170h88v-61h-149v240q5 18 17.5 41t35.5 52.5t53 49t70.5 30.5t87.5 -4v-148z
M121 420h-89v61h149v-407h-149v61h89v285zM32 0v60h312v-60h-312z" />
    <glyph glyph-name="s" unicode="s" horiz-adv-x="572" 
d="M332 64q-90 0 -207 93l167 285q12 -16 45.5 -48t59.5 -58.5t47.5 -65.5t21.5 -76q0 -54 -36.5 -92t-97.5 -38zM-37 0v60h105l50 85q118 -95 214 -95q68 0 108 42t40 102q0 51 -32 99t-84 96.5t-61 59.5q-67 86 14 164l42 -44q-41 -39 -8 -82q8 -10 43.5 -44t65 -65
t55 -82.5t25.5 -101.5q0 -82 -57.5 -143t-150.5 -61q-88 0 -196 68l-34 -58h-139zM-37 74v61h63l187 320q-23 51 -10 107.5t62 103.5l42 -43q-40 -38 -45.5 -83.5t21.5 -85.5l-223 -380h-97zM406 194q0 24 -17.5 52.5t-34.5 46.5t-51 49l-99 -168q74 -49 128 -49
q35 0 54.5 19.5t19.5 49.5z" />
    <glyph glyph-name="t" unicode="t" horiz-adv-x="478" 
d="M8 420v61h152v-274q1 -82 39 -119.5t87 -37.5q62 0 97 54t23 141l59 9q18 -116 -34.5 -190t-144.5 -74q-31 0 -61 11t-59.5 34.5t-47.5 68t-19 103.5v213h-91zM286 125q28 0 41 27.5t6 81.5l59 9q12 -81 -19.5 -130t-86.5 -49q-45 0 -78 33.5t-34 109.5v274h244v-61h-184
v-211q1 -84 52 -84zM418 495h-244v239l60 25v-204h184v-60zM8 495v60h91v148l61 25v-233h-152z" />
    <glyph glyph-name="u" unicode="u" horiz-adv-x="684" 
d="M2 495v60h223v-320q0 -110 84 -110q72 0 137 73v222h-88v61h149v-306q-40 -51 -92.5 -80.5t-105.5 -29.5q-61 0 -102.5 40t-41.5 130v260h-163zM2 420v61h149v-246q0 -96 46.5 -140t111.5 -44q53 0 105.5 28t92.5 76v-95h163v-60h-224v27q-69 -37 -137 -37
q-39 0 -75.5 13t-70 40t-53.5 77t-20 115v185h-88zM670 135v-61h-149v421h-163v60h223v-420h89z" />
    <glyph glyph-name="v" unicode="v" horiz-adv-x="655" 
d="M428 420h-63v61h155l-192 -446l-194 446h156v-61h-63l100 -233zM389 -9l-55 24l201 466h132v-61h-92zM80 420h-92v61h131l203 -466l-56 -24zM365 495v60h302v-60h-302zM290 555v-60h-302v60h302z" />
    <glyph glyph-name="w" unicode="w" horiz-adv-x="918" 
d="M293 211l103 252l56 -22l-164 -402l-152 442h156v-61h-71zM696 420h-71v61h156l-153 -442l-162 402l56 22l102 -252zM351 -8l-57 23l165 406l164 -406l-57 -23l-107 265zM693 -4l-57 19l160 466h131v-61h-88zM77 420h-87v61h130l161 -465l-57 -20zM292 555v-60h-302v60
h302zM625 495v60h302v-60h-302z" />
    <glyph glyph-name="x" unicode="x" horiz-adv-x="637" 
d="M608 481v-61h-94l-109 -137l119 -148h94v-61h-124l-167 209l157 198h124zM124 420h-94v61h122l158 -197l-168 -210h-122v61h94l119 149zM292 135v-61h-133l159 199l159 -199h-131v61h6l-33 41l-34 -41h7zM341 420h-5v61h131l-149 -187l-149 187h133v-61h-7l23 -29zM618 0
h-272v60h272v-60zM608 555v-60h-272v60h272zM292 0h-272v60h272v-60zM302 555v-60h-272v60h272z" />
    <glyph glyph-name="y" unicode="y" horiz-adv-x="686" 
d="M697 481v-61h-87l-215 -496q-96 -222 -257 -222q-62 0 -122.5 31t-102.5 104l52 30q60 -105 173 -105q62 0 110.5 43.5t91.5 142.5l230 533h127zM463 420h-68v61h160l-210 -487l-211 487h156v-61h-63l118 -273zM80 420h-92v61h131l219 -503l-10 -24q-75 -178 -190 -178
q-103 0 -161 98l53 30q38 -67 108 -67q37 0 68.5 31.5t65.5 109.5zM290 555v-60h-302v60h302zM697 555v-60h-302v60h302z" />
    <glyph glyph-name="z" unicode="z" horiz-adv-x="587" 
d="M420 219h61v-145h-388l432 408l42 -43l-323 -304h176v84zM186 336h-60v145h377l-432 -409l-42 44l322 304h-165v-84zM495 219h60v-219h-479v60h419v159zM521 555v-60h-409v-159h-60v219h469z" />
    <glyph glyph-name="braceleft" unicode="{" 
d="M745 367q-9 -4 -10 -11t7 -12l28 -20q8 -5 7.5 -10.5t-10.5 -7.5l-34 -6q-10 -1 -12 -8t5 -14l24 -24q6 -7 4 -12t-12 -5l-35 2q-10 0 -13 -6t3 -14l18 -30q5 -8 2 -12.5t-13 -2.5l-34 9q-9 3 -13.5 -2.5t-1.5 -14.5l11 -33q4 -9 0 -12.5t-13 0.5l-31 15q-8 5 -14 0.5
t-5 -14.5l5 -33q1 -10 -3 -12.5t-12 3.5l-28 21q-8 6 -14 3t-7 -13l-2 -34q-1 -10 -6 -11.5t-11 5.5l-23 27q-16 16 -22 -5l-10 -33q-2 -10 -8 -10t-10 8l-17 30q-10 20 -23 0l-15 -30q-4 -8 -10 -8t-8 10l-10 33q-6 21 -22 5l-23 -27q-14 -15 -17 6l-2 34q-1 10 -7.5 13
t-14.5 -3l-26 -21q-8 -6 -13 -3.5t-3 12.5l5 33q1 10 -5 14.5t-15 -0.5l-30 -15q-9 -4 -13 -0.5t0 12.5l11 33q4 9 -1 14.5t-14 2.5l-34 -9q-10 -2 -13 2.5t2 12.5l19 30q5 8 2 14t-13 6l-35 -2q-10 0 -12 5t4 12l25 24q6 7 4 14t-12 8l-33 6q-7 1 -10 4t-1 7t7 7l28 20l6 6
q9 8 18 -6l16 -31q5 -9 10 -8t8 10l9 34q2 6 5.5 8.5t8 1.5t8.5 -6l23 -26q7 -7 11.5 -5.5t5.5 11.5l2 34q2 10 7.5 12.5t13.5 -3.5l28 -21q8 -6 12.5 -3.5t2.5 12.5l-4 34q-1 10 4.5 14t13.5 -1l31 -14q9 -4 13 -0.5t1 12.5l-11 33q-4 9 0.5 14t13.5 2l7 -1
q20 -38 34.5 -99t14.5 -106q-14 -18 -46 -18h-4q0 22 -16 35q9 -10 9 -27v-7q-16 1 -16 19q0 21 -13.5 35t-37.5 14q-20 0 -33.5 -15.5t-13.5 -38.5q0 -29 24.5 -47t67.5 -18q68 0 134.5 53t105 127t38.5 139q0 29 -18 48t-46 19q-23 0 -41.5 -16.5t-18.5 -41.5
q0 -52 58 -58q-15 -60 -29 -85q-13 102 -58 150q44 -58 52 -161l-14 -20q0 76 -25 140t-64 84q-6 11 12 15l34 6q9 2 10 7t-7 10l-29 19q-17 15 3 23l31 14q7 2 9.5 5.5t0 7t-9.5 5.5l-31 13q-11 5 -10 14q6 3 7 8l17 30q5 9 10.5 8.5t7.5 -9.5l10 -33q7 -23 22 -5l23 26
q6 8 11 6.5t6 -11.5l2 -35q1 -10 7.5 -12.5t13.5 3.5l28 21q7 6 11.5 3t3.5 -13l-5 -34q-1 -10 5 -14t14 1l31 16q9 4 13 0t0 -14l-11 -31q-3 -10 1.5 -15t13.5 -2l34 7q10 3 13 -1t-2 -13l-18 -29q-6 -8 -3 -14.5t13 -5.5l35 2q10 0 12 -5t-4 -12l-24 -26q-7 -7 -5 -13.5
t12 -7.5l34 -6q20 -5 3 -19l-28 -19q-8 -5 -7.5 -11.5t10.5 -10.5l31 -13q9 -4 9 -9t-9 -9zM364 164q69 0 135 52.5t104.5 127t38.5 139.5q0 31 -20 49q12 -18 12 -41q0 -103 -85 -210q-92 -113 -196 -113q-29 0 -49 9q20 -13 60 -13z" />
    <glyph glyph-name="bar" unicode="|" 
d="M745 367q-9 -4 -10 -11t7 -12l28 -20q8 -5 7.5 -10.5t-10.5 -7.5l-34 -6q-10 -1 -12 -8t5 -14l24 -24q6 -7 4 -12t-12 -5l-35 2q-10 0 -13 -6t3 -14l18 -30q5 -8 2 -12.5t-13 -2.5l-34 9q-9 3 -13.5 -2.5t-1.5 -14.5l11 -33q4 -9 0 -12.5t-13 0.5l-31 15q-8 5 -14 0.5
t-5 -14.5l5 -33q1 -10 -3 -12.5t-12 3.5l-28 21q-8 6 -14 3t-7 -13l-2 -34q-1 -10 -6 -11.5t-11 5.5l-23 27q-16 16 -22 -5l-10 -33q-2 -10 -8 -10t-10 8l-17 30q-10 20 -23 0l-15 -30q-4 -8 -10 -8t-8 10l-10 33q-6 21 -22 5l-23 -27q-14 -15 -17 6l-2 34q-1 10 -7.5 13
t-14.5 -3l-26 -21q-8 -6 -13 -3.5t-3 12.5l5 33q1 10 -5 14.5t-15 -0.5l-30 -15q-9 -4 -13 -0.5t0 12.5l11 33q4 9 -1 14.5t-14 2.5l-34 -9q-10 -2 -13 2.5t2 12.5l19 30q5 8 2 14t-13 6l-35 -2q-10 0 -12 5t4 12l25 24q6 7 4 14t-12 8l-33 6q-7 1 -10 4t-1 7t7 7l28 20l6 6
q9 8 18 -6l16 -31q5 -9 10 -8t8 10l9 34q2 6 5.5 8.5t8 1.5t8.5 -6l23 -26q7 -7 11.5 -5.5t5.5 11.5l2 34q2 10 7.5 12.5t13.5 -3.5l28 -21q8 -6 12.5 -3.5t2.5 12.5l-4 34q-1 10 4.5 14t13.5 -1l31 -14q9 -4 13 -0.5t1 12.5l-11 33q-4 9 0.5 14t13.5 2l7 -1
q20 -38 34.5 -99t14.5 -106q-14 -18 -46 -18h-4q0 22 -16 35q9 -10 9 -27v-7q-16 1 -16 19q0 21 -13.5 35t-37.5 14q-20 0 -33.5 -15.5t-13.5 -38.5q0 -29 24.5 -47t67.5 -18q68 0 134.5 53t105 127t38.5 139q0 29 -18 48t-46 19q-23 0 -41.5 -16.5t-18.5 -41.5
q0 -52 58 -58q-15 -60 -29 -85q-13 102 -58 150q44 -58 52 -161l-14 -20q0 76 -25 140t-64 84q-6 11 12 15l34 6q9 2 10 7t-7 10l-29 19q-17 15 3 23l31 14q7 2 9.5 5.5t0 7t-9.5 5.5l-31 13q-11 5 -10 14q6 3 7 8l17 30q5 9 10.5 8.5t7.5 -9.5l10 -33q7 -23 22 -5l23 26
q6 8 11 6.5t6 -11.5l2 -35q1 -10 7.5 -12.5t13.5 3.5l28 21q7 6 11.5 3t3.5 -13l-5 -34q-1 -10 5 -14t14 1l31 16q9 4 13 0t0 -14l-11 -31q-3 -10 1.5 -15t13.5 -2l34 7q10 3 13 -1t-2 -13l-18 -29q-6 -8 -3 -14.5t13 -5.5l35 2q10 0 12 -5t-4 -12l-24 -26q-7 -7 -5 -13.5
t12 -7.5l34 -6q20 -5 3 -19l-28 -19q-8 -5 -7.5 -11.5t10.5 -10.5l31 -13q9 -4 9 -9t-9 -9zM364 164q69 0 135 52.5t104.5 127t38.5 139.5q0 31 -20 49q12 -18 12 -41q0 -103 -85 -210q-92 -113 -196 -113q-29 0 -49 9q20 -13 60 -13z" />
    <glyph glyph-name="braceright" unicode="}" 
d="M745 367q-9 -4 -10 -11t7 -12l28 -20q8 -5 7.5 -10.5t-10.5 -7.5l-34 -6q-10 -1 -12 -8t5 -14l24 -24q6 -7 4 -12t-12 -5l-35 2q-10 0 -13 -6t3 -14l18 -30q5 -8 2 -12.5t-13 -2.5l-34 9q-9 3 -13.5 -2.5t-1.5 -14.5l11 -33q4 -9 0 -12.5t-13 0.5l-31 15q-8 5 -14 0.5
t-5 -14.5l5 -33q1 -10 -3 -12.5t-12 3.5l-28 21q-8 6 -14 3t-7 -13l-2 -34q-1 -10 -6 -11.5t-11 5.5l-23 27q-16 16 -22 -5l-10 -33q-2 -10 -8 -10t-10 8l-17 30q-10 20 -23 0l-15 -30q-4 -8 -10 -8t-8 10l-10 33q-6 21 -22 5l-23 -27q-14 -15 -17 6l-2 34q-1 10 -7.5 13
t-14.5 -3l-26 -21q-8 -6 -13 -3.5t-3 12.5l5 33q1 10 -5 14.5t-15 -0.5l-30 -15q-9 -4 -13 -0.5t0 12.5l11 33q4 9 -1 14.5t-14 2.5l-34 -9q-10 -2 -13 2.5t2 12.5l19 30q5 8 2 14t-13 6l-35 -2q-10 0 -12 5t4 12l25 24q6 7 4 14t-12 8l-33 6q-7 1 -10 4t-1 7t7 7l28 20l6 6
q9 8 18 -6l16 -31q5 -9 10 -8t8 10l9 34q2 6 5.5 8.5t8 1.5t8.5 -6l23 -26q7 -7 11.5 -5.5t5.5 11.5l2 34q2 10 7.5 12.5t13.5 -3.5l28 -21q8 -6 12.5 -3.5t2.5 12.5l-4 34q-1 10 4.5 14t13.5 -1l31 -14q9 -4 13 -0.5t1 12.5l-11 33q-4 9 0.5 14t13.5 2l7 -1
q20 -38 34.5 -99t14.5 -106q-14 -18 -46 -18h-4q0 22 -16 35q9 -10 9 -27v-7q-16 1 -16 19q0 21 -13.5 35t-37.5 14q-20 0 -33.5 -15.5t-13.5 -38.5q0 -29 24.5 -47t67.5 -18q68 0 134.5 53t105 127t38.5 139q0 29 -18 48t-46 19q-23 0 -41.5 -16.5t-18.5 -41.5
q0 -52 58 -58q-15 -60 -29 -85q-13 102 -58 150q44 -58 52 -161l-14 -20q0 76 -25 140t-64 84q-6 11 12 15l34 6q9 2 10 7t-7 10l-29 19q-17 15 3 23l31 14q7 2 9.5 5.5t0 7t-9.5 5.5l-31 13q-11 5 -10 14q6 3 7 8l17 30q5 9 10.5 8.5t7.5 -9.5l10 -33q7 -23 22 -5l23 26
q6 8 11 6.5t6 -11.5l2 -35q1 -10 7.5 -12.5t13.5 3.5l28 21q7 6 11.5 3t3.5 -13l-5 -34q-1 -10 5 -14t14 1l31 16q9 4 13 0t0 -14l-11 -31q-3 -10 1.5 -15t13.5 -2l34 7q10 3 13 -1t-2 -13l-18 -29q-6 -8 -3 -14.5t13 -5.5l35 2q10 0 12 -5t-4 -12l-24 -26q-7 -7 -5 -13.5
t12 -7.5l34 -6q20 -5 3 -19l-28 -19q-8 -5 -7.5 -11.5t10.5 -10.5l31 -13q9 -4 9 -9t-9 -9zM364 164q69 0 135 52.5t104.5 127t38.5 139.5q0 31 -20 49q12 -18 12 -41q0 -103 -85 -210q-92 -113 -196 -113q-29 0 -49 9q20 -13 60 -13z" />
    <glyph glyph-name="asciitilde" unicode="~" 
d="M745 367q-9 -4 -10 -11t7 -12l28 -20q8 -5 7.5 -10.5t-10.5 -7.5l-34 -6q-10 -1 -12 -8t5 -14l24 -24q6 -7 4 -12t-12 -5l-35 2q-10 0 -13 -6t3 -14l18 -30q5 -8 2 -12.5t-13 -2.5l-34 9q-9 3 -13.5 -2.5t-1.5 -14.5l11 -33q4 -9 0 -12.5t-13 0.5l-31 15q-8 5 -14 0.5
t-5 -14.5l5 -33q1 -10 -3 -12.5t-12 3.5l-28 21q-8 6 -14 3t-7 -13l-2 -34q-1 -10 -6 -11.5t-11 5.5l-23 27q-16 16 -22 -5l-10 -33q-2 -10 -8 -10t-10 8l-17 30q-10 20 -23 0l-15 -30q-4 -8 -10 -8t-8 10l-10 33q-6 21 -22 5l-23 -27q-14 -15 -17 6l-2 34q-1 10 -7.5 13
t-14.5 -3l-26 -21q-8 -6 -13 -3.5t-3 12.5l5 33q1 10 -5 14.5t-15 -0.5l-30 -15q-9 -4 -13 -0.5t0 12.5l11 33q4 9 -1 14.5t-14 2.5l-34 -9q-10 -2 -13 2.5t2 12.5l19 30q5 8 2 14t-13 6l-35 -2q-10 0 -12 5t4 12l25 24q6 7 4 14t-12 8l-33 6q-7 1 -10 4t-1 7t7 7l28 20l6 6
q9 8 18 -6l16 -31q5 -9 10 -8t8 10l9 34q2 6 5.5 8.5t8 1.5t8.5 -6l23 -26q7 -7 11.5 -5.5t5.5 11.5l2 34q2 10 7.5 12.5t13.5 -3.5l28 -21q8 -6 12.5 -3.5t2.5 12.5l-4 34q-1 10 4.5 14t13.5 -1l31 -14q9 -4 13 -0.5t1 12.5l-11 33q-4 9 0.5 14t13.5 2l7 -1
q20 -38 34.5 -99t14.5 -106q-14 -18 -46 -18h-4q0 22 -16 35q9 -10 9 -27v-7q-16 1 -16 19q0 21 -13.5 35t-37.5 14q-20 0 -33.5 -15.5t-13.5 -38.5q0 -29 24.5 -47t67.5 -18q68 0 134.5 53t105 127t38.5 139q0 29 -18 48t-46 19q-23 0 -41.5 -16.5t-18.5 -41.5
q0 -52 58 -58q-15 -60 -29 -85q-13 102 -58 150q44 -58 52 -161l-14 -20q0 76 -25 140t-64 84q-6 11 12 15l34 6q9 2 10 7t-7 10l-29 19q-17 15 3 23l31 14q7 2 9.5 5.5t0 7t-9.5 5.5l-31 13q-11 5 -10 14q6 3 7 8l17 30q5 9 10.5 8.5t7.5 -9.5l10 -33q7 -23 22 -5l23 26
q6 8 11 6.5t6 -11.5l2 -35q1 -10 7.5 -12.5t13.5 3.5l28 21q7 6 11.5 3t3.5 -13l-5 -34q-1 -10 5 -14t14 1l31 16q9 4 13 0t0 -14l-11 -31q-3 -10 1.5 -15t13.5 -2l34 7q10 3 13 -1t-2 -13l-18 -29q-6 -8 -3 -14.5t13 -5.5l35 2q10 0 12 -5t-4 -12l-24 -26q-7 -7 -5 -13.5
t12 -7.5l34 -6q20 -5 3 -19l-28 -19q-8 -5 -7.5 -11.5t10.5 -10.5l31 -13q9 -4 9 -9t-9 -9zM364 164q69 0 135 52.5t104.5 127t38.5 139.5q0 31 -20 49q12 -18 12 -41q0 -103 -85 -210q-92 -113 -196 -113q-29 0 -49 9q20 -13 60 -13z" />
    <glyph glyph-name="uni00A0" unicode="&#xa0;" 
d="M745 367q-9 -4 -10 -11t7 -12l28 -20q8 -5 7.5 -10.5t-10.5 -7.5l-34 -6q-10 -1 -12 -8t5 -14l24 -24q6 -7 4 -12t-12 -5l-35 2q-10 0 -13 -6t3 -14l18 -30q5 -8 2 -12.5t-13 -2.5l-34 9q-9 3 -13.5 -2.5t-1.5 -14.5l11 -33q4 -9 0 -12.5t-13 0.5l-31 15q-8 5 -14 0.5
t-5 -14.5l5 -33q1 -10 -3 -12.5t-12 3.5l-28 21q-8 6 -14 3t-7 -13l-2 -34q-1 -10 -6 -11.5t-11 5.5l-23 27q-16 16 -22 -5l-10 -33q-2 -10 -8 -10t-10 8l-17 30q-10 20 -23 0l-15 -30q-4 -8 -10 -8t-8 10l-10 33q-6 21 -22 5l-23 -27q-14 -15 -17 6l-2 34q-1 10 -7.5 13
t-14.5 -3l-26 -21q-8 -6 -13 -3.5t-3 12.5l5 33q1 10 -5 14.5t-15 -0.5l-30 -15q-9 -4 -13 -0.5t0 12.5l11 33q4 9 -1 14.5t-14 2.5l-34 -9q-10 -2 -13 2.5t2 12.5l19 30q5 8 2 14t-13 6l-35 -2q-10 0 -12 5t4 12l25 24q6 7 4 14t-12 8l-33 6q-7 1 -10 4t-1 7t7 7l28 20l6 6
q9 8 18 -6l16 -31q5 -9 10 -8t8 10l9 34q2 6 5.5 8.5t8 1.5t8.5 -6l23 -26q7 -7 11.5 -5.5t5.5 11.5l2 34q2 10 7.5 12.5t13.5 -3.5l28 -21q8 -6 12.5 -3.5t2.5 12.5l-4 34q-1 10 4.5 14t13.5 -1l31 -14q9 -4 13 -0.5t1 12.5l-11 33q-4 9 0.5 14t13.5 2l7 -1
q20 -38 34.5 -99t14.5 -106q-14 -18 -46 -18h-4q0 22 -16 35q9 -10 9 -27v-7q-16 1 -16 19q0 21 -13.5 35t-37.5 14q-20 0 -33.5 -15.5t-13.5 -38.5q0 -29 24.5 -47t67.5 -18q68 0 134.5 53t105 127t38.5 139q0 29 -18 48t-46 19q-23 0 -41.5 -16.5t-18.5 -41.5
q0 -52 58 -58q-15 -60 -29 -85q-13 102 -58 150q44 -58 52 -161l-14 -20q0 76 -25 140t-64 84q-6 11 12 15l34 6q9 2 10 7t-7 10l-29 19q-17 15 3 23l31 14q7 2 9.5 5.5t0 7t-9.5 5.5l-31 13q-11 5 -10 14q6 3 7 8l17 30q5 9 10.5 8.5t7.5 -9.5l10 -33q7 -23 22 -5l23 26
q6 8 11 6.5t6 -11.5l2 -35q1 -10 7.5 -12.5t13.5 3.5l28 21q7 6 11.5 3t3.5 -13l-5 -34q-1 -10 5 -14t14 1l31 16q9 4 13 0t0 -14l-11 -31q-3 -10 1.5 -15t13.5 -2l34 7q10 3 13 -1t-2 -13l-18 -29q-6 -8 -3 -14.5t13 -5.5l35 2q10 0 12 -5t-4 -12l-24 -26q-7 -7 -5 -13.5
t12 -7.5l34 -6q20 -5 3 -19l-28 -19q-8 -5 -7.5 -11.5t10.5 -10.5l31 -13q9 -4 9 -9t-9 -9zM364 164q69 0 135 52.5t104.5 127t38.5 139.5q0 31 -20 49q12 -18 12 -41q0 -103 -85 -210q-92 -113 -196 -113q-29 0 -49 9q20 -13 60 -13z" />
    <glyph glyph-name="exclamdown" unicode="&#xa1;" 
d="M745 367q-9 -4 -10 -11t7 -12l28 -20q8 -5 7.5 -10.5t-10.5 -7.5l-34 -6q-10 -1 -12 -8t5 -14l24 -24q6 -7 4 -12t-12 -5l-35 2q-10 0 -13 -6t3 -14l18 -30q5 -8 2 -12.5t-13 -2.5l-34 9q-9 3 -13.5 -2.5t-1.5 -14.5l11 -33q4 -9 0 -12.5t-13 0.5l-31 15q-8 5 -14 0.5
t-5 -14.5l5 -33q1 -10 -3 -12.5t-12 3.5l-28 21q-8 6 -14 3t-7 -13l-2 -34q-1 -10 -6 -11.5t-11 5.5l-23 27q-16 16 -22 -5l-10 -33q-2 -10 -8 -10t-10 8l-17 30q-10 20 -23 0l-15 -30q-4 -8 -10 -8t-8 10l-10 33q-6 21 -22 5l-23 -27q-14 -15 -17 6l-2 34q-1 10 -7.5 13
t-14.5 -3l-26 -21q-8 -6 -13 -3.5t-3 12.5l5 33q1 10 -5 14.5t-15 -0.5l-30 -15q-9 -4 -13 -0.5t0 12.5l11 33q4 9 -1 14.5t-14 2.5l-34 -9q-10 -2 -13 2.5t2 12.5l19 30q5 8 2 14t-13 6l-35 -2q-10 0 -12 5t4 12l25 24q6 7 4 14t-12 8l-33 6q-7 1 -10 4t-1 7t7 7l28 20l6 6
q9 8 18 -6l16 -31q5 -9 10 -8t8 10l9 34q2 6 5.5 8.5t8 1.5t8.5 -6l23 -26q7 -7 11.5 -5.5t5.5 11.5l2 34q2 10 7.5 12.5t13.5 -3.5l28 -21q8 -6 12.5 -3.5t2.5 12.5l-4 34q-1 10 4.5 14t13.5 -1l31 -14q9 -4 13 -0.5t1 12.5l-11 33q-4 9 0.5 14t13.5 2l7 -1
q20 -38 34.5 -99t14.5 -106q-14 -18 -46 -18h-4q0 22 -16 35q9 -10 9 -27v-7q-16 1 -16 19q0 21 -13.5 35t-37.5 14q-20 0 -33.5 -15.5t-13.5 -38.5q0 -29 24.5 -47t67.5 -18q68 0 134.5 53t105 127t38.5 139q0 29 -18 48t-46 19q-23 0 -41.5 -16.5t-18.5 -41.5
q0 -52 58 -58q-15 -60 -29 -85q-13 102 -58 150q44 -58 52 -161l-14 -20q0 76 -25 140t-64 84q-6 11 12 15l34 6q9 2 10 7t-7 10l-29 19q-17 15 3 23l31 14q7 2 9.5 5.5t0 7t-9.5 5.5l-31 13q-11 5 -10 14q6 3 7 8l17 30q5 9 10.5 8.5t7.5 -9.5l10 -33q7 -23 22 -5l23 26
q6 8 11 6.5t6 -11.5l2 -35q1 -10 7.5 -12.5t13.5 3.5l28 21q7 6 11.5 3t3.5 -13l-5 -34q-1 -10 5 -14t14 1l31 16q9 4 13 0t0 -14l-11 -31q-3 -10 1.5 -15t13.5 -2l34 7q10 3 13 -1t-2 -13l-18 -29q-6 -8 -3 -14.5t13 -5.5l35 2q10 0 12 -5t-4 -12l-24 -26q-7 -7 -5 -13.5
t12 -7.5l34 -6q20 -5 3 -19l-28 -19q-8 -5 -7.5 -11.5t10.5 -10.5l31 -13q9 -4 9 -9t-9 -9zM364 164q69 0 135 52.5t104.5 127t38.5 139.5q0 31 -20 49q12 -18 12 -41q0 -103 -85 -210q-92 -113 -196 -113q-29 0 -49 9q20 -13 60 -13z" />
    <glyph glyph-name="cent" unicode="&#xa2;" 
d="M745 367q-9 -4 -10 -11t7 -12l28 -20q8 -5 7.5 -10.5t-10.5 -7.5l-34 -6q-10 -1 -12 -8t5 -14l24 -24q6 -7 4 -12t-12 -5l-35 2q-10 0 -13 -6t3 -14l18 -30q5 -8 2 -12.5t-13 -2.5l-34 9q-9 3 -13.5 -2.5t-1.5 -14.5l11 -33q4 -9 0 -12.5t-13 0.5l-31 15q-8 5 -14 0.5
t-5 -14.5l5 -33q1 -10 -3 -12.5t-12 3.5l-28 21q-8 6 -14 3t-7 -13l-2 -34q-1 -10 -6 -11.5t-11 5.5l-23 27q-16 16 -22 -5l-10 -33q-2 -10 -8 -10t-10 8l-17 30q-10 20 -23 0l-15 -30q-4 -8 -10 -8t-8 10l-10 33q-6 21 -22 5l-23 -27q-14 -15 -17 6l-2 34q-1 10 -7.5 13
t-14.5 -3l-26 -21q-8 -6 -13 -3.5t-3 12.5l5 33q1 10 -5 14.5t-15 -0.5l-30 -15q-9 -4 -13 -0.5t0 12.5l11 33q4 9 -1 14.5t-14 2.5l-34 -9q-10 -2 -13 2.5t2 12.5l19 30q5 8 2 14t-13 6l-35 -2q-10 0 -12 5t4 12l25 24q6 7 4 14t-12 8l-33 6q-7 1 -10 4t-1 7t7 7l28 20l6 6
q9 8 18 -6l16 -31q5 -9 10 -8t8 10l9 34q2 6 5.5 8.5t8 1.5t8.5 -6l23 -26q7 -7 11.5 -5.5t5.5 11.5l2 34q2 10 7.5 12.5t13.5 -3.5l28 -21q8 -6 12.5 -3.5t2.5 12.5l-4 34q-1 10 4.5 14t13.5 -1l31 -14q9 -4 13 -0.5t1 12.5l-11 33q-4 9 0.5 14t13.5 2l7 -1
q20 -38 34.5 -99t14.5 -106q-14 -18 -46 -18h-4q0 22 -16 35q9 -10 9 -27v-7q-16 1 -16 19q0 21 -13.5 35t-37.5 14q-20 0 -33.5 -15.5t-13.5 -38.5q0 -29 24.5 -47t67.5 -18q68 0 134.5 53t105 127t38.5 139q0 29 -18 48t-46 19q-23 0 -41.5 -16.5t-18.5 -41.5
q0 -52 58 -58q-15 -60 -29 -85q-13 102 -58 150q44 -58 52 -161l-14 -20q0 76 -25 140t-64 84q-6 11 12 15l34 6q9 2 10 7t-7 10l-29 19q-17 15 3 23l31 14q7 2 9.5 5.5t0 7t-9.5 5.5l-31 13q-11 5 -10 14q6 3 7 8l17 30q5 9 10.5 8.5t7.5 -9.5l10 -33q7 -23 22 -5l23 26
q6 8 11 6.5t6 -11.5l2 -35q1 -10 7.5 -12.5t13.5 3.5l28 21q7 6 11.5 3t3.5 -13l-5 -34q-1 -10 5 -14t14 1l31 16q9 4 13 0t0 -14l-11 -31q-3 -10 1.5 -15t13.5 -2l34 7q10 3 13 -1t-2 -13l-18 -29q-6 -8 -3 -14.5t13 -5.5l35 2q10 0 12 -5t-4 -12l-24 -26q-7 -7 -5 -13.5
t12 -7.5l34 -6q20 -5 3 -19l-28 -19q-8 -5 -7.5 -11.5t10.5 -10.5l31 -13q9 -4 9 -9t-9 -9zM364 164q69 0 135 52.5t104.5 127t38.5 139.5q0 31 -20 49q12 -18 12 -41q0 -103 -85 -210q-92 -113 -196 -113q-29 0 -49 9q20 -13 60 -13z" />
    <glyph glyph-name="sterling" unicode="&#xa3;" 
d="M745 367q-9 -4 -10 -11t7 -12l28 -20q8 -5 7.5 -10.5t-10.5 -7.5l-34 -6q-10 -1 -12 -8t5 -14l24 -24q6 -7 4 -12t-12 -5l-35 2q-10 0 -13 -6t3 -14l18 -30q5 -8 2 -12.5t-13 -2.5l-34 9q-9 3 -13.5 -2.5t-1.5 -14.5l11 -33q4 -9 0 -12.5t-13 0.5l-31 15q-8 5 -14 0.5
t-5 -14.5l5 -33q1 -10 -3 -12.5t-12 3.5l-28 21q-8 6 -14 3t-7 -13l-2 -34q-1 -10 -6 -11.5t-11 5.5l-23 27q-16 16 -22 -5l-10 -33q-2 -10 -8 -10t-10 8l-17 30q-10 20 -23 0l-15 -30q-4 -8 -10 -8t-8 10l-10 33q-6 21 -22 5l-23 -27q-14 -15 -17 6l-2 34q-1 10 -7.5 13
t-14.5 -3l-26 -21q-8 -6 -13 -3.5t-3 12.5l5 33q1 10 -5 14.5t-15 -0.5l-30 -15q-9 -4 -13 -0.5t0 12.5l11 33q4 9 -1 14.5t-14 2.5l-34 -9q-10 -2 -13 2.5t2 12.5l19 30q5 8 2 14t-13 6l-35 -2q-10 0 -12 5t4 12l25 24q6 7 4 14t-12 8l-33 6q-7 1 -10 4t-1 7t7 7l28 20l6 6
q9 8 18 -6l16 -31q5 -9 10 -8t8 10l9 34q2 6 5.5 8.5t8 1.5t8.5 -6l23 -26q7 -7 11.5 -5.5t5.5 11.5l2 34q2 10 7.5 12.5t13.5 -3.5l28 -21q8 -6 12.5 -3.5t2.5 12.5l-4 34q-1 10 4.5 14t13.5 -1l31 -14q9 -4 13 -0.5t1 12.5l-11 33q-4 9 0.5 14t13.5 2l7 -1
q20 -38 34.5 -99t14.5 -106q-14 -18 -46 -18h-4q0 22 -16 35q9 -10 9 -27v-7q-16 1 -16 19q0 21 -13.5 35t-37.5 14q-20 0 -33.5 -15.5t-13.5 -38.5q0 -29 24.5 -47t67.5 -18q68 0 134.5 53t105 127t38.5 139q0 29 -18 48t-46 19q-23 0 -41.5 -16.5t-18.5 -41.5
q0 -52 58 -58q-15 -60 -29 -85q-13 102 -58 150q44 -58 52 -161l-14 -20q0 76 -25 140t-64 84q-6 11 12 15l34 6q9 2 10 7t-7 10l-29 19q-17 15 3 23l31 14q7 2 9.5 5.5t0 7t-9.5 5.5l-31 13q-11 5 -10 14q6 3 7 8l17 30q5 9 10.5 8.5t7.5 -9.5l10 -33q7 -23 22 -5l23 26
q6 8 11 6.5t6 -11.5l2 -35q1 -10 7.5 -12.5t13.5 3.5l28 21q7 6 11.5 3t3.5 -13l-5 -34q-1 -10 5 -14t14 1l31 16q9 4 13 0t0 -14l-11 -31q-3 -10 1.5 -15t13.5 -2l34 7q10 3 13 -1t-2 -13l-18 -29q-6 -8 -3 -14.5t13 -5.5l35 2q10 0 12 -5t-4 -12l-24 -26q-7 -7 -5 -13.5
t12 -7.5l34 -6q20 -5 3 -19l-28 -19q-8 -5 -7.5 -11.5t10.5 -10.5l31 -13q9 -4 9 -9t-9 -9zM364 164q69 0 135 52.5t104.5 127t38.5 139.5q0 31 -20 49q12 -18 12 -41q0 -103 -85 -210q-92 -113 -196 -113q-29 0 -49 9q20 -13 60 -13z" />
    <glyph glyph-name="yen" unicode="&#xa5;" 
d="M745 367q-9 -4 -10 -11t7 -12l28 -20q8 -5 7.5 -10.5t-10.5 -7.5l-34 -6q-10 -1 -12 -8t5 -14l24 -24q6 -7 4 -12t-12 -5l-35 2q-10 0 -13 -6t3 -14l18 -30q5 -8 2 -12.5t-13 -2.5l-34 9q-9 3 -13.5 -2.5t-1.5 -14.5l11 -33q4 -9 0 -12.5t-13 0.5l-31 15q-8 5 -14 0.5
t-5 -14.5l5 -33q1 -10 -3 -12.5t-12 3.5l-28 21q-8 6 -14 3t-7 -13l-2 -34q-1 -10 -6 -11.5t-11 5.5l-23 27q-16 16 -22 -5l-10 -33q-2 -10 -8 -10t-10 8l-17 30q-10 20 -23 0l-15 -30q-4 -8 -10 -8t-8 10l-10 33q-6 21 -22 5l-23 -27q-14 -15 -17 6l-2 34q-1 10 -7.5 13
t-14.5 -3l-26 -21q-8 -6 -13 -3.5t-3 12.5l5 33q1 10 -5 14.5t-15 -0.5l-30 -15q-9 -4 -13 -0.5t0 12.5l11 33q4 9 -1 14.5t-14 2.5l-34 -9q-10 -2 -13 2.5t2 12.5l19 30q5 8 2 14t-13 6l-35 -2q-10 0 -12 5t4 12l25 24q6 7 4 14t-12 8l-33 6q-7 1 -10 4t-1 7t7 7l28 20l6 6
q9 8 18 -6l16 -31q5 -9 10 -8t8 10l9 34q2 6 5.5 8.5t8 1.5t8.5 -6l23 -26q7 -7 11.5 -5.5t5.5 11.5l2 34q2 10 7.5 12.5t13.5 -3.5l28 -21q8 -6 12.5 -3.5t2.5 12.5l-4 34q-1 10 4.5 14t13.5 -1l31 -14q9 -4 13 -0.5t1 12.5l-11 33q-4 9 0.5 14t13.5 2l7 -1
q20 -38 34.5 -99t14.5 -106q-14 -18 -46 -18h-4q0 22 -16 35q9 -10 9 -27v-7q-16 1 -16 19q0 21 -13.5 35t-37.5 14q-20 0 -33.5 -15.5t-13.5 -38.5q0 -29 24.5 -47t67.5 -18q68 0 134.5 53t105 127t38.5 139q0 29 -18 48t-46 19q-23 0 -41.5 -16.5t-18.5 -41.5
q0 -52 58 -58q-15 -60 -29 -85q-13 102 -58 150q44 -58 52 -161l-14 -20q0 76 -25 140t-64 84q-6 11 12 15l34 6q9 2 10 7t-7 10l-29 19q-17 15 3 23l31 14q7 2 9.5 5.5t0 7t-9.5 5.5l-31 13q-11 5 -10 14q6 3 7 8l17 30q5 9 10.5 8.5t7.5 -9.5l10 -33q7 -23 22 -5l23 26
q6 8 11 6.5t6 -11.5l2 -35q1 -10 7.5 -12.5t13.5 3.5l28 21q7 6 11.5 3t3.5 -13l-5 -34q-1 -10 5 -14t14 1l31 16q9 4 13 0t0 -14l-11 -31q-3 -10 1.5 -15t13.5 -2l34 7q10 3 13 -1t-2 -13l-18 -29q-6 -8 -3 -14.5t13 -5.5l35 2q10 0 12 -5t-4 -12l-24 -26q-7 -7 -5 -13.5
t12 -7.5l34 -6q20 -5 3 -19l-28 -19q-8 -5 -7.5 -11.5t10.5 -10.5l31 -13q9 -4 9 -9t-9 -9zM364 164q69 0 135 52.5t104.5 127t38.5 139.5q0 31 -20 49q12 -18 12 -41q0 -103 -85 -210q-92 -113 -196 -113q-29 0 -49 9q20 -13 60 -13z" />
    <glyph glyph-name="brokenbar" unicode="&#xa6;" 
d="M745 367q-9 -4 -10 -11t7 -12l28 -20q8 -5 7.5 -10.5t-10.5 -7.5l-34 -6q-10 -1 -12 -8t5 -14l24 -24q6 -7 4 -12t-12 -5l-35 2q-10 0 -13 -6t3 -14l18 -30q5 -8 2 -12.5t-13 -2.5l-34 9q-9 3 -13.5 -2.5t-1.5 -14.5l11 -33q4 -9 0 -12.5t-13 0.5l-31 15q-8 5 -14 0.5
t-5 -14.5l5 -33q1 -10 -3 -12.5t-12 3.5l-28 21q-8 6 -14 3t-7 -13l-2 -34q-1 -10 -6 -11.5t-11 5.5l-23 27q-16 16 -22 -5l-10 -33q-2 -10 -8 -10t-10 8l-17 30q-10 20 -23 0l-15 -30q-4 -8 -10 -8t-8 10l-10 33q-6 21 -22 5l-23 -27q-14 -15 -17 6l-2 34q-1 10 -7.5 13
t-14.5 -3l-26 -21q-8 -6 -13 -3.5t-3 12.5l5 33q1 10 -5 14.5t-15 -0.5l-30 -15q-9 -4 -13 -0.5t0 12.5l11 33q4 9 -1 14.5t-14 2.5l-34 -9q-10 -2 -13 2.5t2 12.5l19 30q5 8 2 14t-13 6l-35 -2q-10 0 -12 5t4 12l25 24q6 7 4 14t-12 8l-33 6q-7 1 -10 4t-1 7t7 7l28 20l6 6
q9 8 18 -6l16 -31q5 -9 10 -8t8 10l9 34q2 6 5.5 8.5t8 1.5t8.5 -6l23 -26q7 -7 11.5 -5.5t5.5 11.5l2 34q2 10 7.5 12.5t13.5 -3.5l28 -21q8 -6 12.5 -3.5t2.5 12.5l-4 34q-1 10 4.5 14t13.5 -1l31 -14q9 -4 13 -0.5t1 12.5l-11 33q-4 9 0.5 14t13.5 2l7 -1
q20 -38 34.5 -99t14.5 -106q-14 -18 -46 -18h-4q0 22 -16 35q9 -10 9 -27v-7q-16 1 -16 19q0 21 -13.5 35t-37.5 14q-20 0 -33.5 -15.5t-13.5 -38.5q0 -29 24.5 -47t67.5 -18q68 0 134.5 53t105 127t38.5 139q0 29 -18 48t-46 19q-23 0 -41.5 -16.5t-18.5 -41.5
q0 -52 58 -58q-15 -60 -29 -85q-13 102 -58 150q44 -58 52 -161l-14 -20q0 76 -25 140t-64 84q-6 11 12 15l34 6q9 2 10 7t-7 10l-29 19q-17 15 3 23l31 14q7 2 9.5 5.5t0 7t-9.5 5.5l-31 13q-11 5 -10 14q6 3 7 8l17 30q5 9 10.5 8.5t7.5 -9.5l10 -33q7 -23 22 -5l23 26
q6 8 11 6.5t6 -11.5l2 -35q1 -10 7.5 -12.5t13.5 3.5l28 21q7 6 11.5 3t3.5 -13l-5 -34q-1 -10 5 -14t14 1l31 16q9 4 13 0t0 -14l-11 -31q-3 -10 1.5 -15t13.5 -2l34 7q10 3 13 -1t-2 -13l-18 -29q-6 -8 -3 -14.5t13 -5.5l35 2q10 0 12 -5t-4 -12l-24 -26q-7 -7 -5 -13.5
t12 -7.5l34 -6q20 -5 3 -19l-28 -19q-8 -5 -7.5 -11.5t10.5 -10.5l31 -13q9 -4 9 -9t-9 -9zM364 164q69 0 135 52.5t104.5 127t38.5 139.5q0 31 -20 49q12 -18 12 -41q0 -103 -85 -210q-92 -113 -196 -113q-29 0 -49 9q20 -13 60 -13z" />
    <glyph glyph-name="section" unicode="&#xa7;" 
d="M745 367q-9 -4 -10 -11t7 -12l28 -20q8 -5 7.5 -10.5t-10.5 -7.5l-34 -6q-10 -1 -12 -8t5 -14l24 -24q6 -7 4 -12t-12 -5l-35 2q-10 0 -13 -6t3 -14l18 -30q5 -8 2 -12.5t-13 -2.5l-34 9q-9 3 -13.5 -2.5t-1.5 -14.5l11 -33q4 -9 0 -12.5t-13 0.5l-31 15q-8 5 -14 0.5
t-5 -14.5l5 -33q1 -10 -3 -12.5t-12 3.5l-28 21q-8 6 -14 3t-7 -13l-2 -34q-1 -10 -6 -11.5t-11 5.5l-23 27q-16 16 -22 -5l-10 -33q-2 -10 -8 -10t-10 8l-17 30q-10 20 -23 0l-15 -30q-4 -8 -10 -8t-8 10l-10 33q-6 21 -22 5l-23 -27q-14 -15 -17 6l-2 34q-1 10 -7.5 13
t-14.5 -3l-26 -21q-8 -6 -13 -3.5t-3 12.5l5 33q1 10 -5 14.5t-15 -0.5l-30 -15q-9 -4 -13 -0.5t0 12.5l11 33q4 9 -1 14.5t-14 2.5l-34 -9q-10 -2 -13 2.5t2 12.5l19 30q5 8 2 14t-13 6l-35 -2q-10 0 -12 5t4 12l25 24q6 7 4 14t-12 8l-33 6q-7 1 -10 4t-1 7t7 7l28 20l6 6
q9 8 18 -6l16 -31q5 -9 10 -8t8 10l9 34q2 6 5.5 8.5t8 1.5t8.5 -6l23 -26q7 -7 11.5 -5.5t5.5 11.5l2 34q2 10 7.5 12.5t13.5 -3.5l28 -21q8 -6 12.5 -3.5t2.5 12.5l-4 34q-1 10 4.5 14t13.5 -1l31 -14q9 -4 13 -0.5t1 12.5l-11 33q-4 9 0.5 14t13.5 2l7 -1
q20 -38 34.5 -99t14.5 -106q-14 -18 -46 -18h-4q0 22 -16 35q9 -10 9 -27v-7q-16 1 -16 19q0 21 -13.5 35t-37.5 14q-20 0 -33.5 -15.5t-13.5 -38.5q0 -29 24.5 -47t67.5 -18q68 0 134.5 53t105 127t38.5 139q0 29 -18 48t-46 19q-23 0 -41.5 -16.5t-18.5 -41.5
q0 -52 58 -58q-15 -60 -29 -85q-13 102 -58 150q44 -58 52 -161l-14 -20q0 76 -25 140t-64 84q-6 11 12 15l34 6q9 2 10 7t-7 10l-29 19q-17 15 3 23l31 14q7 2 9.5 5.5t0 7t-9.5 5.5l-31 13q-11 5 -10 14q6 3 7 8l17 30q5 9 10.5 8.5t7.5 -9.5l10 -33q7 -23 22 -5l23 26
q6 8 11 6.5t6 -11.5l2 -35q1 -10 7.5 -12.5t13.5 3.5l28 21q7 6 11.5 3t3.5 -13l-5 -34q-1 -10 5 -14t14 1l31 16q9 4 13 0t0 -14l-11 -31q-3 -10 1.5 -15t13.5 -2l34 7q10 3 13 -1t-2 -13l-18 -29q-6 -8 -3 -14.5t13 -5.5l35 2q10 0 12 -5t-4 -12l-24 -26q-7 -7 -5 -13.5
t12 -7.5l34 -6q20 -5 3 -19l-28 -19q-8 -5 -7.5 -11.5t10.5 -10.5l31 -13q9 -4 9 -9t-9 -9zM364 164q69 0 135 52.5t104.5 127t38.5 139.5q0 31 -20 49q12 -18 12 -41q0 -103 -85 -210q-92 -113 -196 -113q-29 0 -49 9q20 -13 60 -13z" />
    <glyph glyph-name="dieresis" unicode="&#xa8;" 
d="M745 367q-9 -4 -10 -11t7 -12l28 -20q8 -5 7.5 -10.5t-10.5 -7.5l-34 -6q-10 -1 -12 -8t5 -14l24 -24q6 -7 4 -12t-12 -5l-35 2q-10 0 -13 -6t3 -14l18 -30q5 -8 2 -12.5t-13 -2.5l-34 9q-9 3 -13.5 -2.5t-1.5 -14.5l11 -33q4 -9 0 -12.5t-13 0.5l-31 15q-8 5 -14 0.5
t-5 -14.5l5 -33q1 -10 -3 -12.5t-12 3.5l-28 21q-8 6 -14 3t-7 -13l-2 -34q-1 -10 -6 -11.5t-11 5.5l-23 27q-16 16 -22 -5l-10 -33q-2 -10 -8 -10t-10 8l-17 30q-10 20 -23 0l-15 -30q-4 -8 -10 -8t-8 10l-10 33q-6 21 -22 5l-23 -27q-14 -15 -17 6l-2 34q-1 10 -7.5 13
t-14.5 -3l-26 -21q-8 -6 -13 -3.5t-3 12.5l5 33q1 10 -5 14.5t-15 -0.5l-30 -15q-9 -4 -13 -0.5t0 12.5l11 33q4 9 -1 14.5t-14 2.5l-34 -9q-10 -2 -13 2.5t2 12.5l19 30q5 8 2 14t-13 6l-35 -2q-10 0 -12 5t4 12l25 24q6 7 4 14t-12 8l-33 6q-7 1 -10 4t-1 7t7 7l28 20l6 6
q9 8 18 -6l16 -31q5 -9 10 -8t8 10l9 34q2 6 5.5 8.5t8 1.5t8.5 -6l23 -26q7 -7 11.5 -5.5t5.5 11.5l2 34q2 10 7.5 12.5t13.5 -3.5l28 -21q8 -6 12.5 -3.5t2.5 12.5l-4 34q-1 10 4.5 14t13.5 -1l31 -14q9 -4 13 -0.5t1 12.5l-11 33q-4 9 0.5 14t13.5 2l7 -1
q20 -38 34.5 -99t14.5 -106q-14 -18 -46 -18h-4q0 22 -16 35q9 -10 9 -27v-7q-16 1 -16 19q0 21 -13.5 35t-37.5 14q-20 0 -33.5 -15.5t-13.5 -38.5q0 -29 24.5 -47t67.5 -18q68 0 134.5 53t105 127t38.5 139q0 29 -18 48t-46 19q-23 0 -41.5 -16.5t-18.5 -41.5
q0 -52 58 -58q-15 -60 -29 -85q-13 102 -58 150q44 -58 52 -161l-14 -20q0 76 -25 140t-64 84q-6 11 12 15l34 6q9 2 10 7t-7 10l-29 19q-17 15 3 23l31 14q7 2 9.5 5.5t0 7t-9.5 5.5l-31 13q-11 5 -10 14q6 3 7 8l17 30q5 9 10.5 8.5t7.5 -9.5l10 -33q7 -23 22 -5l23 26
q6 8 11 6.5t6 -11.5l2 -35q1 -10 7.5 -12.5t13.5 3.5l28 21q7 6 11.5 3t3.5 -13l-5 -34q-1 -10 5 -14t14 1l31 16q9 4 13 0t0 -14l-11 -31q-3 -10 1.5 -15t13.5 -2l34 7q10 3 13 -1t-2 -13l-18 -29q-6 -8 -3 -14.5t13 -5.5l35 2q10 0 12 -5t-4 -12l-24 -26q-7 -7 -5 -13.5
t12 -7.5l34 -6q20 -5 3 -19l-28 -19q-8 -5 -7.5 -11.5t10.5 -10.5l31 -13q9 -4 9 -9t-9 -9zM364 164q69 0 135 52.5t104.5 127t38.5 139.5q0 31 -20 49q12 -18 12 -41q0 -103 -85 -210q-92 -113 -196 -113q-29 0 -49 9q20 -13 60 -13z" />
    <glyph glyph-name="copyright" unicode="&#xa9;" 
d="M745 367q-9 -4 -10 -11t7 -12l28 -20q8 -5 7.5 -10.5t-10.5 -7.5l-34 -6q-10 -1 -12 -8t5 -14l24 -24q6 -7 4 -12t-12 -5l-35 2q-10 0 -13 -6t3 -14l18 -30q5 -8 2 -12.5t-13 -2.5l-34 9q-9 3 -13.5 -2.5t-1.5 -14.5l11 -33q4 -9 0 -12.5t-13 0.5l-31 15q-8 5 -14 0.5
t-5 -14.5l5 -33q1 -10 -3 -12.5t-12 3.5l-28 21q-8 6 -14 3t-7 -13l-2 -34q-1 -10 -6 -11.5t-11 5.5l-23 27q-16 16 -22 -5l-10 -33q-2 -10 -8 -10t-10 8l-17 30q-10 20 -23 0l-15 -30q-4 -8 -10 -8t-8 10l-10 33q-6 21 -22 5l-23 -27q-14 -15 -17 6l-2 34q-1 10 -7.5 13
t-14.5 -3l-26 -21q-8 -6 -13 -3.5t-3 12.5l5 33q1 10 -5 14.5t-15 -0.5l-30 -15q-9 -4 -13 -0.5t0 12.5l11 33q4 9 -1 14.5t-14 2.5l-34 -9q-10 -2 -13 2.5t2 12.5l19 30q5 8 2 14t-13 6l-35 -2q-10 0 -12 5t4 12l25 24q6 7 4 14t-12 8l-33 6q-7 1 -10 4t-1 7t7 7l28 20l6 6
q9 8 18 -6l16 -31q5 -9 10 -8t8 10l9 34q2 6 5.5 8.5t8 1.5t8.5 -6l23 -26q7 -7 11.5 -5.5t5.5 11.5l2 34q2 10 7.5 12.5t13.5 -3.5l28 -21q8 -6 12.5 -3.5t2.5 12.5l-4 34q-1 10 4.5 14t13.5 -1l31 -14q9 -4 13 -0.5t1 12.5l-11 33q-4 9 0.5 14t13.5 2l7 -1
q20 -38 34.5 -99t14.5 -106q-14 -18 -46 -18h-4q0 22 -16 35q9 -10 9 -27v-7q-16 1 -16 19q0 21 -13.5 35t-37.5 14q-20 0 -33.5 -15.5t-13.5 -38.5q0 -29 24.5 -47t67.5 -18q68 0 134.5 53t105 127t38.5 139q0 29 -18 48t-46 19q-23 0 -41.5 -16.5t-18.5 -41.5
q0 -52 58 -58q-15 -60 -29 -85q-13 102 -58 150q44 -58 52 -161l-14 -20q0 76 -25 140t-64 84q-6 11 12 15l34 6q9 2 10 7t-7 10l-29 19q-17 15 3 23l31 14q7 2 9.5 5.5t0 7t-9.5 5.5l-31 13q-11 5 -10 14q6 3 7 8l17 30q5 9 10.5 8.5t7.5 -9.5l10 -33q7 -23 22 -5l23 26
q6 8 11 6.5t6 -11.5l2 -35q1 -10 7.5 -12.5t13.5 3.5l28 21q7 6 11.5 3t3.5 -13l-5 -34q-1 -10 5 -14t14 1l31 16q9 4 13 0t0 -14l-11 -31q-3 -10 1.5 -15t13.5 -2l34 7q10 3 13 -1t-2 -13l-18 -29q-6 -8 -3 -14.5t13 -5.5l35 2q10 0 12 -5t-4 -12l-24 -26q-7 -7 -5 -13.5
t12 -7.5l34 -6q20 -5 3 -19l-28 -19q-8 -5 -7.5 -11.5t10.5 -10.5l31 -13q9 -4 9 -9t-9 -9zM364 164q69 0 135 52.5t104.5 127t38.5 139.5q0 31 -20 49q12 -18 12 -41q0 -103 -85 -210q-92 -113 -196 -113q-29 0 -49 9q20 -13 60 -13z" />
    <glyph glyph-name="ordfeminine" unicode="&#xaa;" 
d="M745 367q-9 -4 -10 -11t7 -12l28 -20q8 -5 7.5 -10.5t-10.5 -7.5l-34 -6q-10 -1 -12 -8t5 -14l24 -24q6 -7 4 -12t-12 -5l-35 2q-10 0 -13 -6t3 -14l18 -30q5 -8 2 -12.5t-13 -2.5l-34 9q-9 3 -13.5 -2.5t-1.5 -14.5l11 -33q4 -9 0 -12.5t-13 0.5l-31 15q-8 5 -14 0.5
t-5 -14.5l5 -33q1 -10 -3 -12.5t-12 3.5l-28 21q-8 6 -14 3t-7 -13l-2 -34q-1 -10 -6 -11.5t-11 5.5l-23 27q-16 16 -22 -5l-10 -33q-2 -10 -8 -10t-10 8l-17 30q-10 20 -23 0l-15 -30q-4 -8 -10 -8t-8 10l-10 33q-6 21 -22 5l-23 -27q-14 -15 -17 6l-2 34q-1 10 -7.5 13
t-14.5 -3l-26 -21q-8 -6 -13 -3.5t-3 12.5l5 33q1 10 -5 14.5t-15 -0.5l-30 -15q-9 -4 -13 -0.5t0 12.5l11 33q4 9 -1 14.5t-14 2.5l-34 -9q-10 -2 -13 2.5t2 12.5l19 30q5 8 2 14t-13 6l-35 -2q-10 0 -12 5t4 12l25 24q6 7 4 14t-12 8l-33 6q-7 1 -10 4t-1 7t7 7l28 20l6 6
q9 8 18 -6l16 -31q5 -9 10 -8t8 10l9 34q2 6 5.5 8.5t8 1.5t8.5 -6l23 -26q7 -7 11.5 -5.5t5.5 11.5l2 34q2 10 7.5 12.5t13.5 -3.5l28 -21q8 -6 12.5 -3.5t2.5 12.5l-4 34q-1 10 4.5 14t13.5 -1l31 -14q9 -4 13 -0.5t1 12.5l-11 33q-4 9 0.5 14t13.5 2l7 -1
q20 -38 34.5 -99t14.5 -106q-14 -18 -46 -18h-4q0 22 -16 35q9 -10 9 -27v-7q-16 1 -16 19q0 21 -13.5 35t-37.5 14q-20 0 -33.5 -15.5t-13.5 -38.5q0 -29 24.5 -47t67.5 -18q68 0 134.5 53t105 127t38.5 139q0 29 -18 48t-46 19q-23 0 -41.5 -16.5t-18.5 -41.5
q0 -52 58 -58q-15 -60 -29 -85q-13 102 -58 150q44 -58 52 -161l-14 -20q0 76 -25 140t-64 84q-6 11 12 15l34 6q9 2 10 7t-7 10l-29 19q-17 15 3 23l31 14q7 2 9.5 5.5t0 7t-9.5 5.5l-31 13q-11 5 -10 14q6 3 7 8l17 30q5 9 10.5 8.5t7.5 -9.5l10 -33q7 -23 22 -5l23 26
q6 8 11 6.5t6 -11.5l2 -35q1 -10 7.5 -12.5t13.5 3.5l28 21q7 6 11.5 3t3.5 -13l-5 -34q-1 -10 5 -14t14 1l31 16q9 4 13 0t0 -14l-11 -31q-3 -10 1.5 -15t13.5 -2l34 7q10 3 13 -1t-2 -13l-18 -29q-6 -8 -3 -14.5t13 -5.5l35 2q10 0 12 -5t-4 -12l-24 -26q-7 -7 -5 -13.5
t12 -7.5l34 -6q20 -5 3 -19l-28 -19q-8 -5 -7.5 -11.5t10.5 -10.5l31 -13q9 -4 9 -9t-9 -9zM364 164q69 0 135 52.5t104.5 127t38.5 139.5q0 31 -20 49q12 -18 12 -41q0 -103 -85 -210q-92 -113 -196 -113q-29 0 -49 9q20 -13 60 -13z" />
    <glyph glyph-name="guillemotleft" unicode="&#xab;" 
d="M745 367q-9 -4 -10 -11t7 -12l28 -20q8 -5 7.5 -10.5t-10.5 -7.5l-34 -6q-10 -1 -12 -8t5 -14l24 -24q6 -7 4 -12t-12 -5l-35 2q-10 0 -13 -6t3 -14l18 -30q5 -8 2 -12.5t-13 -2.5l-34 9q-9 3 -13.5 -2.5t-1.5 -14.5l11 -33q4 -9 0 -12.5t-13 0.5l-31 15q-8 5 -14 0.5
t-5 -14.5l5 -33q1 -10 -3 -12.5t-12 3.5l-28 21q-8 6 -14 3t-7 -13l-2 -34q-1 -10 -6 -11.5t-11 5.5l-23 27q-16 16 -22 -5l-10 -33q-2 -10 -8 -10t-10 8l-17 30q-10 20 -23 0l-15 -30q-4 -8 -10 -8t-8 10l-10 33q-6 21 -22 5l-23 -27q-14 -15 -17 6l-2 34q-1 10 -7.5 13
t-14.5 -3l-26 -21q-8 -6 -13 -3.5t-3 12.5l5 33q1 10 -5 14.5t-15 -0.5l-30 -15q-9 -4 -13 -0.5t0 12.5l11 33q4 9 -1 14.5t-14 2.5l-34 -9q-10 -2 -13 2.5t2 12.5l19 30q5 8 2 14t-13 6l-35 -2q-10 0 -12 5t4 12l25 24q6 7 4 14t-12 8l-33 6q-7 1 -10 4t-1 7t7 7l28 20l6 6
q9 8 18 -6l16 -31q5 -9 10 -8t8 10l9 34q2 6 5.5 8.5t8 1.5t8.5 -6l23 -26q7 -7 11.5 -5.5t5.5 11.5l2 34q2 10 7.5 12.5t13.5 -3.5l28 -21q8 -6 12.5 -3.5t2.5 12.5l-4 34q-1 10 4.5 14t13.5 -1l31 -14q9 -4 13 -0.5t1 12.5l-11 33q-4 9 0.5 14t13.5 2l7 -1
q20 -38 34.5 -99t14.5 -106q-14 -18 -46 -18h-4q0 22 -16 35q9 -10 9 -27v-7q-16 1 -16 19q0 21 -13.5 35t-37.5 14q-20 0 -33.5 -15.5t-13.5 -38.5q0 -29 24.5 -47t67.5 -18q68 0 134.5 53t105 127t38.5 139q0 29 -18 48t-46 19q-23 0 -41.5 -16.5t-18.5 -41.5
q0 -52 58 -58q-15 -60 -29 -85q-13 102 -58 150q44 -58 52 -161l-14 -20q0 76 -25 140t-64 84q-6 11 12 15l34 6q9 2 10 7t-7 10l-29 19q-17 15 3 23l31 14q7 2 9.5 5.5t0 7t-9.5 5.5l-31 13q-11 5 -10 14q6 3 7 8l17 30q5 9 10.5 8.5t7.5 -9.5l10 -33q7 -23 22 -5l23 26
q6 8 11 6.5t6 -11.5l2 -35q1 -10 7.5 -12.5t13.5 3.5l28 21q7 6 11.5 3t3.5 -13l-5 -34q-1 -10 5 -14t14 1l31 16q9 4 13 0t0 -14l-11 -31q-3 -10 1.5 -15t13.5 -2l34 7q10 3 13 -1t-2 -13l-18 -29q-6 -8 -3 -14.5t13 -5.5l35 2q10 0 12 -5t-4 -12l-24 -26q-7 -7 -5 -13.5
t12 -7.5l34 -6q20 -5 3 -19l-28 -19q-8 -5 -7.5 -11.5t10.5 -10.5l31 -13q9 -4 9 -9t-9 -9zM364 164q69 0 135 52.5t104.5 127t38.5 139.5q0 31 -20 49q12 -18 12 -41q0 -103 -85 -210q-92 -113 -196 -113q-29 0 -49 9q20 -13 60 -13z" />
    <glyph glyph-name="registered" unicode="&#xae;" 
d="M745 367q-9 -4 -10 -11t7 -12l28 -20q8 -5 7.5 -10.5t-10.5 -7.5l-34 -6q-10 -1 -12 -8t5 -14l24 -24q6 -7 4 -12t-12 -5l-35 2q-10 0 -13 -6t3 -14l18 -30q5 -8 2 -12.5t-13 -2.5l-34 9q-9 3 -13.5 -2.5t-1.5 -14.5l11 -33q4 -9 0 -12.5t-13 0.5l-31 15q-8 5 -14 0.5
t-5 -14.5l5 -33q1 -10 -3 -12.5t-12 3.5l-28 21q-8 6 -14 3t-7 -13l-2 -34q-1 -10 -6 -11.5t-11 5.5l-23 27q-16 16 -22 -5l-10 -33q-2 -10 -8 -10t-10 8l-17 30q-10 20 -23 0l-15 -30q-4 -8 -10 -8t-8 10l-10 33q-6 21 -22 5l-23 -27q-14 -15 -17 6l-2 34q-1 10 -7.5 13
t-14.5 -3l-26 -21q-8 -6 -13 -3.5t-3 12.5l5 33q1 10 -5 14.5t-15 -0.5l-30 -15q-9 -4 -13 -0.5t0 12.5l11 33q4 9 -1 14.5t-14 2.5l-34 -9q-10 -2 -13 2.5t2 12.5l19 30q5 8 2 14t-13 6l-35 -2q-10 0 -12 5t4 12l25 24q6 7 4 14t-12 8l-33 6q-7 1 -10 4t-1 7t7 7l28 20l6 6
q9 8 18 -6l16 -31q5 -9 10 -8t8 10l9 34q2 6 5.5 8.5t8 1.5t8.5 -6l23 -26q7 -7 11.5 -5.5t5.5 11.5l2 34q2 10 7.5 12.5t13.5 -3.5l28 -21q8 -6 12.5 -3.5t2.5 12.5l-4 34q-1 10 4.5 14t13.5 -1l31 -14q9 -4 13 -0.5t1 12.5l-11 33q-4 9 0.5 14t13.5 2l7 -1
q20 -38 34.5 -99t14.5 -106q-14 -18 -46 -18h-4q0 22 -16 35q9 -10 9 -27v-7q-16 1 -16 19q0 21 -13.5 35t-37.5 14q-20 0 -33.5 -15.5t-13.5 -38.5q0 -29 24.5 -47t67.5 -18q68 0 134.5 53t105 127t38.5 139q0 29 -18 48t-46 19q-23 0 -41.5 -16.5t-18.5 -41.5
q0 -52 58 -58q-15 -60 -29 -85q-13 102 -58 150q44 -58 52 -161l-14 -20q0 76 -25 140t-64 84q-6 11 12 15l34 6q9 2 10 7t-7 10l-29 19q-17 15 3 23l31 14q7 2 9.5 5.5t0 7t-9.5 5.5l-31 13q-11 5 -10 14q6 3 7 8l17 30q5 9 10.5 8.5t7.5 -9.5l10 -33q7 -23 22 -5l23 26
q6 8 11 6.5t6 -11.5l2 -35q1 -10 7.5 -12.5t13.5 3.5l28 21q7 6 11.5 3t3.5 -13l-5 -34q-1 -10 5 -14t14 1l31 16q9 4 13 0t0 -14l-11 -31q-3 -10 1.5 -15t13.5 -2l34 7q10 3 13 -1t-2 -13l-18 -29q-6 -8 -3 -14.5t13 -5.5l35 2q10 0 12 -5t-4 -12l-24 -26q-7 -7 -5 -13.5
t12 -7.5l34 -6q20 -5 3 -19l-28 -19q-8 -5 -7.5 -11.5t10.5 -10.5l31 -13q9 -4 9 -9t-9 -9zM364 164q69 0 135 52.5t104.5 127t38.5 139.5q0 31 -20 49q12 -18 12 -41q0 -103 -85 -210q-92 -113 -196 -113q-29 0 -49 9q20 -13 60 -13z" />
    <glyph glyph-name="macron" unicode="&#xaf;" 
d="M745 367q-9 -4 -10 -11t7 -12l28 -20q8 -5 7.5 -10.5t-10.5 -7.5l-34 -6q-10 -1 -12 -8t5 -14l24 -24q6 -7 4 -12t-12 -5l-35 2q-10 0 -13 -6t3 -14l18 -30q5 -8 2 -12.5t-13 -2.5l-34 9q-9 3 -13.5 -2.5t-1.5 -14.5l11 -33q4 -9 0 -12.5t-13 0.5l-31 15q-8 5 -14 0.5
t-5 -14.5l5 -33q1 -10 -3 -12.5t-12 3.5l-28 21q-8 6 -14 3t-7 -13l-2 -34q-1 -10 -6 -11.5t-11 5.5l-23 27q-16 16 -22 -5l-10 -33q-2 -10 -8 -10t-10 8l-17 30q-10 20 -23 0l-15 -30q-4 -8 -10 -8t-8 10l-10 33q-6 21 -22 5l-23 -27q-14 -15 -17 6l-2 34q-1 10 -7.5 13
t-14.5 -3l-26 -21q-8 -6 -13 -3.5t-3 12.5l5 33q1 10 -5 14.5t-15 -0.5l-30 -15q-9 -4 -13 -0.5t0 12.5l11 33q4 9 -1 14.5t-14 2.5l-34 -9q-10 -2 -13 2.5t2 12.5l19 30q5 8 2 14t-13 6l-35 -2q-10 0 -12 5t4 12l25 24q6 7 4 14t-12 8l-33 6q-7 1 -10 4t-1 7t7 7l28 20l6 6
q9 8 18 -6l16 -31q5 -9 10 -8t8 10l9 34q2 6 5.5 8.5t8 1.5t8.5 -6l23 -26q7 -7 11.5 -5.5t5.5 11.5l2 34q2 10 7.5 12.5t13.5 -3.5l28 -21q8 -6 12.5 -3.5t2.5 12.5l-4 34q-1 10 4.5 14t13.5 -1l31 -14q9 -4 13 -0.5t1 12.5l-11 33q-4 9 0.5 14t13.5 2l7 -1
q20 -38 34.5 -99t14.5 -106q-14 -18 -46 -18h-4q0 22 -16 35q9 -10 9 -27v-7q-16 1 -16 19q0 21 -13.5 35t-37.5 14q-20 0 -33.5 -15.5t-13.5 -38.5q0 -29 24.5 -47t67.5 -18q68 0 134.5 53t105 127t38.5 139q0 29 -18 48t-46 19q-23 0 -41.5 -16.5t-18.5 -41.5
q0 -52 58 -58q-15 -60 -29 -85q-13 102 -58 150q44 -58 52 -161l-14 -20q0 76 -25 140t-64 84q-6 11 12 15l34 6q9 2 10 7t-7 10l-29 19q-17 15 3 23l31 14q7 2 9.5 5.5t0 7t-9.5 5.5l-31 13q-11 5 -10 14q6 3 7 8l17 30q5 9 10.5 8.5t7.5 -9.5l10 -33q7 -23 22 -5l23 26
q6 8 11 6.5t6 -11.5l2 -35q1 -10 7.5 -12.5t13.5 3.5l28 21q7 6 11.5 3t3.5 -13l-5 -34q-1 -10 5 -14t14 1l31 16q9 4 13 0t0 -14l-11 -31q-3 -10 1.5 -15t13.5 -2l34 7q10 3 13 -1t-2 -13l-18 -29q-6 -8 -3 -14.5t13 -5.5l35 2q10 0 12 -5t-4 -12l-24 -26q-7 -7 -5 -13.5
t12 -7.5l34 -6q20 -5 3 -19l-28 -19q-8 -5 -7.5 -11.5t10.5 -10.5l31 -13q9 -4 9 -9t-9 -9zM364 164q69 0 135 52.5t104.5 127t38.5 139.5q0 31 -20 49q12 -18 12 -41q0 -103 -85 -210q-92 -113 -196 -113q-29 0 -49 9q20 -13 60 -13z" />
    <glyph glyph-name="degree" unicode="&#xb0;" 
d="M745 367q-9 -4 -10 -11t7 -12l28 -20q8 -5 7.5 -10.5t-10.5 -7.5l-34 -6q-10 -1 -12 -8t5 -14l24 -24q6 -7 4 -12t-12 -5l-35 2q-10 0 -13 -6t3 -14l18 -30q5 -8 2 -12.5t-13 -2.5l-34 9q-9 3 -13.5 -2.5t-1.5 -14.5l11 -33q4 -9 0 -12.5t-13 0.5l-31 15q-8 5 -14 0.5
t-5 -14.5l5 -33q1 -10 -3 -12.5t-12 3.5l-28 21q-8 6 -14 3t-7 -13l-2 -34q-1 -10 -6 -11.5t-11 5.5l-23 27q-16 16 -22 -5l-10 -33q-2 -10 -8 -10t-10 8l-17 30q-10 20 -23 0l-15 -30q-4 -8 -10 -8t-8 10l-10 33q-6 21 -22 5l-23 -27q-14 -15 -17 6l-2 34q-1 10 -7.5 13
t-14.5 -3l-26 -21q-8 -6 -13 -3.5t-3 12.5l5 33q1 10 -5 14.5t-15 -0.5l-30 -15q-9 -4 -13 -0.5t0 12.5l11 33q4 9 -1 14.5t-14 2.5l-34 -9q-10 -2 -13 2.5t2 12.5l19 30q5 8 2 14t-13 6l-35 -2q-10 0 -12 5t4 12l25 24q6 7 4 14t-12 8l-33 6q-7 1 -10 4t-1 7t7 7l28 20l6 6
q9 8 18 -6l16 -31q5 -9 10 -8t8 10l9 34q2 6 5.5 8.5t8 1.5t8.5 -6l23 -26q7 -7 11.5 -5.5t5.5 11.5l2 34q2 10 7.5 12.5t13.5 -3.5l28 -21q8 -6 12.5 -3.5t2.5 12.5l-4 34q-1 10 4.5 14t13.5 -1l31 -14q9 -4 13 -0.5t1 12.5l-11 33q-4 9 0.5 14t13.5 2l7 -1
q20 -38 34.5 -99t14.5 -106q-14 -18 -46 -18h-4q0 22 -16 35q9 -10 9 -27v-7q-16 1 -16 19q0 21 -13.5 35t-37.5 14q-20 0 -33.5 -15.5t-13.5 -38.5q0 -29 24.5 -47t67.5 -18q68 0 134.5 53t105 127t38.5 139q0 29 -18 48t-46 19q-23 0 -41.5 -16.5t-18.5 -41.5
q0 -52 58 -58q-15 -60 -29 -85q-13 102 -58 150q44 -58 52 -161l-14 -20q0 76 -25 140t-64 84q-6 11 12 15l34 6q9 2 10 7t-7 10l-29 19q-17 15 3 23l31 14q7 2 9.5 5.5t0 7t-9.5 5.5l-31 13q-11 5 -10 14q6 3 7 8l17 30q5 9 10.5 8.5t7.5 -9.5l10 -33q7 -23 22 -5l23 26
q6 8 11 6.5t6 -11.5l2 -35q1 -10 7.5 -12.5t13.5 3.5l28 21q7 6 11.5 3t3.5 -13l-5 -34q-1 -10 5 -14t14 1l31 16q9 4 13 0t0 -14l-11 -31q-3 -10 1.5 -15t13.5 -2l34 7q10 3 13 -1t-2 -13l-18 -29q-6 -8 -3 -14.5t13 -5.5l35 2q10 0 12 -5t-4 -12l-24 -26q-7 -7 -5 -13.5
t12 -7.5l34 -6q20 -5 3 -19l-28 -19q-8 -5 -7.5 -11.5t10.5 -10.5l31 -13q9 -4 9 -9t-9 -9zM364 164q69 0 135 52.5t104.5 127t38.5 139.5q0 31 -20 49q12 -18 12 -41q0 -103 -85 -210q-92 -113 -196 -113q-29 0 -49 9q20 -13 60 -13z" />
    <glyph glyph-name="plusminus" unicode="&#xb1;" 
d="M745 367q-9 -4 -10 -11t7 -12l28 -20q8 -5 7.5 -10.5t-10.5 -7.5l-34 -6q-10 -1 -12 -8t5 -14l24 -24q6 -7 4 -12t-12 -5l-35 2q-10 0 -13 -6t3 -14l18 -30q5 -8 2 -12.5t-13 -2.5l-34 9q-9 3 -13.5 -2.5t-1.5 -14.5l11 -33q4 -9 0 -12.5t-13 0.5l-31 15q-8 5 -14 0.5
t-5 -14.5l5 -33q1 -10 -3 -12.5t-12 3.5l-28 21q-8 6 -14 3t-7 -13l-2 -34q-1 -10 -6 -11.5t-11 5.5l-23 27q-16 16 -22 -5l-10 -33q-2 -10 -8 -10t-10 8l-17 30q-10 20 -23 0l-15 -30q-4 -8 -10 -8t-8 10l-10 33q-6 21 -22 5l-23 -27q-14 -15 -17 6l-2 34q-1 10 -7.5 13
t-14.5 -3l-26 -21q-8 -6 -13 -3.5t-3 12.5l5 33q1 10 -5 14.5t-15 -0.5l-30 -15q-9 -4 -13 -0.5t0 12.5l11 33q4 9 -1 14.5t-14 2.5l-34 -9q-10 -2 -13 2.5t2 12.5l19 30q5 8 2 14t-13 6l-35 -2q-10 0 -12 5t4 12l25 24q6 7 4 14t-12 8l-33 6q-7 1 -10 4t-1 7t7 7l28 20l6 6
q9 8 18 -6l16 -31q5 -9 10 -8t8 10l9 34q2 6 5.5 8.5t8 1.5t8.5 -6l23 -26q7 -7 11.5 -5.5t5.5 11.5l2 34q2 10 7.5 12.5t13.5 -3.5l28 -21q8 -6 12.5 -3.5t2.5 12.5l-4 34q-1 10 4.5 14t13.5 -1l31 -14q9 -4 13 -0.5t1 12.5l-11 33q-4 9 0.5 14t13.5 2l7 -1
q20 -38 34.5 -99t14.5 -106q-14 -18 -46 -18h-4q0 22 -16 35q9 -10 9 -27v-7q-16 1 -16 19q0 21 -13.5 35t-37.5 14q-20 0 -33.5 -15.5t-13.5 -38.5q0 -29 24.5 -47t67.5 -18q68 0 134.5 53t105 127t38.5 139q0 29 -18 48t-46 19q-23 0 -41.5 -16.5t-18.5 -41.5
q0 -52 58 -58q-15 -60 -29 -85q-13 102 -58 150q44 -58 52 -161l-14 -20q0 76 -25 140t-64 84q-6 11 12 15l34 6q9 2 10 7t-7 10l-29 19q-17 15 3 23l31 14q7 2 9.5 5.5t0 7t-9.5 5.5l-31 13q-11 5 -10 14q6 3 7 8l17 30q5 9 10.5 8.5t7.5 -9.5l10 -33q7 -23 22 -5l23 26
q6 8 11 6.5t6 -11.5l2 -35q1 -10 7.5 -12.5t13.5 3.5l28 21q7 6 11.5 3t3.5 -13l-5 -34q-1 -10 5 -14t14 1l31 16q9 4 13 0t0 -14l-11 -31q-3 -10 1.5 -15t13.5 -2l34 7q10 3 13 -1t-2 -13l-18 -29q-6 -8 -3 -14.5t13 -5.5l35 2q10 0 12 -5t-4 -12l-24 -26q-7 -7 -5 -13.5
t12 -7.5l34 -6q20 -5 3 -19l-28 -19q-8 -5 -7.5 -11.5t10.5 -10.5l31 -13q9 -4 9 -9t-9 -9zM364 164q69 0 135 52.5t104.5 127t38.5 139.5q0 31 -20 49q12 -18 12 -41q0 -103 -85 -210q-92 -113 -196 -113q-29 0 -49 9q20 -13 60 -13z" />
    <glyph glyph-name="twosuperior" unicode="&#xb2;" 
d="M745 367q-9 -4 -10 -11t7 -12l28 -20q8 -5 7.5 -10.5t-10.5 -7.5l-34 -6q-10 -1 -12 -8t5 -14l24 -24q6 -7 4 -12t-12 -5l-35 2q-10 0 -13 -6t3 -14l18 -30q5 -8 2 -12.5t-13 -2.5l-34 9q-9 3 -13.5 -2.5t-1.5 -14.5l11 -33q4 -9 0 -12.5t-13 0.5l-31 15q-8 5 -14 0.5
t-5 -14.5l5 -33q1 -10 -3 -12.5t-12 3.5l-28 21q-8 6 -14 3t-7 -13l-2 -34q-1 -10 -6 -11.5t-11 5.5l-23 27q-16 16 -22 -5l-10 -33q-2 -10 -8 -10t-10 8l-17 30q-10 20 -23 0l-15 -30q-4 -8 -10 -8t-8 10l-10 33q-6 21 -22 5l-23 -27q-14 -15 -17 6l-2 34q-1 10 -7.5 13
t-14.5 -3l-26 -21q-8 -6 -13 -3.5t-3 12.5l5 33q1 10 -5 14.5t-15 -0.5l-30 -15q-9 -4 -13 -0.5t0 12.5l11 33q4 9 -1 14.5t-14 2.5l-34 -9q-10 -2 -13 2.5t2 12.5l19 30q5 8 2 14t-13 6l-35 -2q-10 0 -12 5t4 12l25 24q6 7 4 14t-12 8l-33 6q-7 1 -10 4t-1 7t7 7l28 20l6 6
q9 8 18 -6l16 -31q5 -9 10 -8t8 10l9 34q2 6 5.5 8.5t8 1.5t8.5 -6l23 -26q7 -7 11.5 -5.5t5.5 11.5l2 34q2 10 7.5 12.5t13.5 -3.5l28 -21q8 -6 12.5 -3.5t2.5 12.5l-4 34q-1 10 4.5 14t13.5 -1l31 -14q9 -4 13 -0.5t1 12.5l-11 33q-4 9 0.5 14t13.5 2l7 -1
q20 -38 34.5 -99t14.5 -106q-14 -18 -46 -18h-4q0 22 -16 35q9 -10 9 -27v-7q-16 1 -16 19q0 21 -13.5 35t-37.5 14q-20 0 -33.5 -15.5t-13.5 -38.5q0 -29 24.5 -47t67.5 -18q68 0 134.5 53t105 127t38.5 139q0 29 -18 48t-46 19q-23 0 -41.5 -16.5t-18.5 -41.5
q0 -52 58 -58q-15 -60 -29 -85q-13 102 -58 150q44 -58 52 -161l-14 -20q0 76 -25 140t-64 84q-6 11 12 15l34 6q9 2 10 7t-7 10l-29 19q-17 15 3 23l31 14q7 2 9.5 5.5t0 7t-9.5 5.5l-31 13q-11 5 -10 14q6 3 7 8l17 30q5 9 10.5 8.5t7.5 -9.5l10 -33q7 -23 22 -5l23 26
q6 8 11 6.5t6 -11.5l2 -35q1 -10 7.5 -12.5t13.5 3.5l28 21q7 6 11.5 3t3.5 -13l-5 -34q-1 -10 5 -14t14 1l31 16q9 4 13 0t0 -14l-11 -31q-3 -10 1.5 -15t13.5 -2l34 7q10 3 13 -1t-2 -13l-18 -29q-6 -8 -3 -14.5t13 -5.5l35 2q10 0 12 -5t-4 -12l-24 -26q-7 -7 -5 -13.5
t12 -7.5l34 -6q20 -5 3 -19l-28 -19q-8 -5 -7.5 -11.5t10.5 -10.5l31 -13q9 -4 9 -9t-9 -9zM364 164q69 0 135 52.5t104.5 127t38.5 139.5q0 31 -20 49q12 -18 12 -41q0 -103 -85 -210q-92 -113 -196 -113q-29 0 -49 9q20 -13 60 -13z" />
    <glyph glyph-name="threesuperior" unicode="&#xb3;" 
d="M745 367q-9 -4 -10 -11t7 -12l28 -20q8 -5 7.5 -10.5t-10.5 -7.5l-34 -6q-10 -1 -12 -8t5 -14l24 -24q6 -7 4 -12t-12 -5l-35 2q-10 0 -13 -6t3 -14l18 -30q5 -8 2 -12.5t-13 -2.5l-34 9q-9 3 -13.5 -2.5t-1.5 -14.5l11 -33q4 -9 0 -12.5t-13 0.5l-31 15q-8 5 -14 0.5
t-5 -14.5l5 -33q1 -10 -3 -12.5t-12 3.5l-28 21q-8 6 -14 3t-7 -13l-2 -34q-1 -10 -6 -11.5t-11 5.5l-23 27q-16 16 -22 -5l-10 -33q-2 -10 -8 -10t-10 8l-17 30q-10 20 -23 0l-15 -30q-4 -8 -10 -8t-8 10l-10 33q-6 21 -22 5l-23 -27q-14 -15 -17 6l-2 34q-1 10 -7.5 13
t-14.5 -3l-26 -21q-8 -6 -13 -3.5t-3 12.5l5 33q1 10 -5 14.5t-15 -0.5l-30 -15q-9 -4 -13 -0.5t0 12.5l11 33q4 9 -1 14.5t-14 2.5l-34 -9q-10 -2 -13 2.5t2 12.5l19 30q5 8 2 14t-13 6l-35 -2q-10 0 -12 5t4 12l25 24q6 7 4 14t-12 8l-33 6q-7 1 -10 4t-1 7t7 7l28 20l6 6
q9 8 18 -6l16 -31q5 -9 10 -8t8 10l9 34q2 6 5.5 8.5t8 1.5t8.5 -6l23 -26q7 -7 11.5 -5.5t5.5 11.5l2 34q2 10 7.5 12.5t13.5 -3.5l28 -21q8 -6 12.5 -3.5t2.5 12.5l-4 34q-1 10 4.5 14t13.5 -1l31 -14q9 -4 13 -0.5t1 12.5l-11 33q-4 9 0.5 14t13.5 2l7 -1
q20 -38 34.5 -99t14.5 -106q-14 -18 -46 -18h-4q0 22 -16 35q9 -10 9 -27v-7q-16 1 -16 19q0 21 -13.5 35t-37.5 14q-20 0 -33.5 -15.5t-13.5 -38.5q0 -29 24.5 -47t67.5 -18q68 0 134.5 53t105 127t38.5 139q0 29 -18 48t-46 19q-23 0 -41.5 -16.5t-18.5 -41.5
q0 -52 58 -58q-15 -60 -29 -85q-13 102 -58 150q44 -58 52 -161l-14 -20q0 76 -25 140t-64 84q-6 11 12 15l34 6q9 2 10 7t-7 10l-29 19q-17 15 3 23l31 14q7 2 9.5 5.5t0 7t-9.5 5.5l-31 13q-11 5 -10 14q6 3 7 8l17 30q5 9 10.5 8.5t7.5 -9.5l10 -33q7 -23 22 -5l23 26
q6 8 11 6.5t6 -11.5l2 -35q1 -10 7.5 -12.5t13.5 3.5l28 21q7 6 11.5 3t3.5 -13l-5 -34q-1 -10 5 -14t14 1l31 16q9 4 13 0t0 -14l-11 -31q-3 -10 1.5 -15t13.5 -2l34 7q10 3 13 -1t-2 -13l-18 -29q-6 -8 -3 -14.5t13 -5.5l35 2q10 0 12 -5t-4 -12l-24 -26q-7 -7 -5 -13.5
t12 -7.5l34 -6q20 -5 3 -19l-28 -19q-8 -5 -7.5 -11.5t10.5 -10.5l31 -13q9 -4 9 -9t-9 -9zM364 164q69 0 135 52.5t104.5 127t38.5 139.5q0 31 -20 49q12 -18 12 -41q0 -103 -85 -210q-92 -113 -196 -113q-29 0 -49 9q20 -13 60 -13z" />
    <glyph glyph-name="acute" unicode="&#xb4;" 
d="M745 367q-9 -4 -10 -11t7 -12l28 -20q8 -5 7.5 -10.5t-10.5 -7.5l-34 -6q-10 -1 -12 -8t5 -14l24 -24q6 -7 4 -12t-12 -5l-35 2q-10 0 -13 -6t3 -14l18 -30q5 -8 2 -12.5t-13 -2.5l-34 9q-9 3 -13.5 -2.5t-1.5 -14.5l11 -33q4 -9 0 -12.5t-13 0.5l-31 15q-8 5 -14 0.5
t-5 -14.5l5 -33q1 -10 -3 -12.5t-12 3.5l-28 21q-8 6 -14 3t-7 -13l-2 -34q-1 -10 -6 -11.5t-11 5.5l-23 27q-16 16 -22 -5l-10 -33q-2 -10 -8 -10t-10 8l-17 30q-10 20 -23 0l-15 -30q-4 -8 -10 -8t-8 10l-10 33q-6 21 -22 5l-23 -27q-14 -15 -17 6l-2 34q-1 10 -7.5 13
t-14.5 -3l-26 -21q-8 -6 -13 -3.5t-3 12.5l5 33q1 10 -5 14.5t-15 -0.5l-30 -15q-9 -4 -13 -0.5t0 12.5l11 33q4 9 -1 14.5t-14 2.5l-34 -9q-10 -2 -13 2.5t2 12.5l19 30q5 8 2 14t-13 6l-35 -2q-10 0 -12 5t4 12l25 24q6 7 4 14t-12 8l-33 6q-7 1 -10 4t-1 7t7 7l28 20l6 6
q9 8 18 -6l16 -31q5 -9 10 -8t8 10l9 34q2 6 5.5 8.5t8 1.5t8.5 -6l23 -26q7 -7 11.5 -5.5t5.5 11.5l2 34q2 10 7.5 12.5t13.5 -3.5l28 -21q8 -6 12.5 -3.5t2.5 12.5l-4 34q-1 10 4.5 14t13.5 -1l31 -14q9 -4 13 -0.5t1 12.5l-11 33q-4 9 0.5 14t13.5 2l7 -1
q20 -38 34.5 -99t14.5 -106q-14 -18 -46 -18h-4q0 22 -16 35q9 -10 9 -27v-7q-16 1 -16 19q0 21 -13.5 35t-37.5 14q-20 0 -33.5 -15.5t-13.5 -38.5q0 -29 24.5 -47t67.5 -18q68 0 134.5 53t105 127t38.5 139q0 29 -18 48t-46 19q-23 0 -41.5 -16.5t-18.5 -41.5
q0 -52 58 -58q-15 -60 -29 -85q-13 102 -58 150q44 -58 52 -161l-14 -20q0 76 -25 140t-64 84q-6 11 12 15l34 6q9 2 10 7t-7 10l-29 19q-17 15 3 23l31 14q7 2 9.5 5.5t0 7t-9.5 5.5l-31 13q-11 5 -10 14q6 3 7 8l17 30q5 9 10.5 8.5t7.5 -9.5l10 -33q7 -23 22 -5l23 26
q6 8 11 6.5t6 -11.5l2 -35q1 -10 7.5 -12.5t13.5 3.5l28 21q7 6 11.5 3t3.5 -13l-5 -34q-1 -10 5 -14t14 1l31 16q9 4 13 0t0 -14l-11 -31q-3 -10 1.5 -15t13.5 -2l34 7q10 3 13 -1t-2 -13l-18 -29q-6 -8 -3 -14.5t13 -5.5l35 2q10 0 12 -5t-4 -12l-24 -26q-7 -7 -5 -13.5
t12 -7.5l34 -6q20 -5 3 -19l-28 -19q-8 -5 -7.5 -11.5t10.5 -10.5l31 -13q9 -4 9 -9t-9 -9zM364 164q69 0 135 52.5t104.5 127t38.5 139.5q0 31 -20 49q12 -18 12 -41q0 -103 -85 -210q-92 -113 -196 -113q-29 0 -49 9q20 -13 60 -13z" />
    <glyph glyph-name="mu" unicode="&#xb5;" 
d="M745 367q-9 -4 -10 -11t7 -12l28 -20q8 -5 7.5 -10.5t-10.5 -7.5l-34 -6q-10 -1 -12 -8t5 -14l24 -24q6 -7 4 -12t-12 -5l-35 2q-10 0 -13 -6t3 -14l18 -30q5 -8 2 -12.5t-13 -2.5l-34 9q-9 3 -13.5 -2.5t-1.5 -14.5l11 -33q4 -9 0 -12.5t-13 0.5l-31 15q-8 5 -14 0.5
t-5 -14.5l5 -33q1 -10 -3 -12.5t-12 3.5l-28 21q-8 6 -14 3t-7 -13l-2 -34q-1 -10 -6 -11.5t-11 5.5l-23 27q-16 16 -22 -5l-10 -33q-2 -10 -8 -10t-10 8l-17 30q-10 20 -23 0l-15 -30q-4 -8 -10 -8t-8 10l-10 33q-6 21 -22 5l-23 -27q-14 -15 -17 6l-2 34q-1 10 -7.5 13
t-14.5 -3l-26 -21q-8 -6 -13 -3.5t-3 12.5l5 33q1 10 -5 14.5t-15 -0.5l-30 -15q-9 -4 -13 -0.5t0 12.5l11 33q4 9 -1 14.5t-14 2.5l-34 -9q-10 -2 -13 2.5t2 12.5l19 30q5 8 2 14t-13 6l-35 -2q-10 0 -12 5t4 12l25 24q6 7 4 14t-12 8l-33 6q-7 1 -10 4t-1 7t7 7l28 20l6 6
q9 8 18 -6l16 -31q5 -9 10 -8t8 10l9 34q2 6 5.5 8.5t8 1.5t8.5 -6l23 -26q7 -7 11.5 -5.5t5.5 11.5l2 34q2 10 7.5 12.5t13.5 -3.5l28 -21q8 -6 12.5 -3.5t2.5 12.5l-4 34q-1 10 4.5 14t13.5 -1l31 -14q9 -4 13 -0.5t1 12.5l-11 33q-4 9 0.5 14t13.5 2l7 -1
q20 -38 34.5 -99t14.5 -106q-14 -18 -46 -18h-4q0 22 -16 35q9 -10 9 -27v-7q-16 1 -16 19q0 21 -13.5 35t-37.5 14q-20 0 -33.5 -15.5t-13.5 -38.5q0 -29 24.5 -47t67.5 -18q68 0 134.5 53t105 127t38.5 139q0 29 -18 48t-46 19q-23 0 -41.5 -16.5t-18.5 -41.5
q0 -52 58 -58q-15 -60 -29 -85q-13 102 -58 150q44 -58 52 -161l-14 -20q0 76 -25 140t-64 84q-6 11 12 15l34 6q9 2 10 7t-7 10l-29 19q-17 15 3 23l31 14q7 2 9.5 5.5t0 7t-9.5 5.5l-31 13q-11 5 -10 14q6 3 7 8l17 30q5 9 10.5 8.5t7.5 -9.5l10 -33q7 -23 22 -5l23 26
q6 8 11 6.5t6 -11.5l2 -35q1 -10 7.5 -12.5t13.5 3.5l28 21q7 6 11.5 3t3.5 -13l-5 -34q-1 -10 5 -14t14 1l31 16q9 4 13 0t0 -14l-11 -31q-3 -10 1.5 -15t13.5 -2l34 7q10 3 13 -1t-2 -13l-18 -29q-6 -8 -3 -14.5t13 -5.5l35 2q10 0 12 -5t-4 -12l-24 -26q-7 -7 -5 -13.5
t12 -7.5l34 -6q20 -5 3 -19l-28 -19q-8 -5 -7.5 -11.5t10.5 -10.5l31 -13q9 -4 9 -9t-9 -9zM364 164q69 0 135 52.5t104.5 127t38.5 139.5q0 31 -20 49q12 -18 12 -41q0 -103 -85 -210q-92 -113 -196 -113q-29 0 -49 9q20 -13 60 -13z" />
    <glyph glyph-name="paragraph" unicode="&#xb6;" 
d="M745 367q-9 -4 -10 -11t7 -12l28 -20q8 -5 7.5 -10.5t-10.5 -7.5l-34 -6q-10 -1 -12 -8t5 -14l24 -24q6 -7 4 -12t-12 -5l-35 2q-10 0 -13 -6t3 -14l18 -30q5 -8 2 -12.5t-13 -2.5l-34 9q-9 3 -13.5 -2.5t-1.5 -14.5l11 -33q4 -9 0 -12.5t-13 0.5l-31 15q-8 5 -14 0.5
t-5 -14.5l5 -33q1 -10 -3 -12.5t-12 3.5l-28 21q-8 6 -14 3t-7 -13l-2 -34q-1 -10 -6 -11.5t-11 5.5l-23 27q-16 16 -22 -5l-10 -33q-2 -10 -8 -10t-10 8l-17 30q-10 20 -23 0l-15 -30q-4 -8 -10 -8t-8 10l-10 33q-6 21 -22 5l-23 -27q-14 -15 -17 6l-2 34q-1 10 -7.5 13
t-14.5 -3l-26 -21q-8 -6 -13 -3.5t-3 12.5l5 33q1 10 -5 14.5t-15 -0.5l-30 -15q-9 -4 -13 -0.5t0 12.5l11 33q4 9 -1 14.5t-14 2.5l-34 -9q-10 -2 -13 2.5t2 12.5l19 30q5 8 2 14t-13 6l-35 -2q-10 0 -12 5t4 12l25 24q6 7 4 14t-12 8l-33 6q-7 1 -10 4t-1 7t7 7l28 20l6 6
q9 8 18 -6l16 -31q5 -9 10 -8t8 10l9 34q2 6 5.5 8.5t8 1.5t8.5 -6l23 -26q7 -7 11.5 -5.5t5.5 11.5l2 34q2 10 7.5 12.5t13.5 -3.5l28 -21q8 -6 12.5 -3.5t2.5 12.5l-4 34q-1 10 4.5 14t13.5 -1l31 -14q9 -4 13 -0.5t1 12.5l-11 33q-4 9 0.5 14t13.5 2l7 -1
q20 -38 34.5 -99t14.5 -106q-14 -18 -46 -18h-4q0 22 -16 35q9 -10 9 -27v-7q-16 1 -16 19q0 21 -13.5 35t-37.5 14q-20 0 -33.5 -15.5t-13.5 -38.5q0 -29 24.5 -47t67.5 -18q68 0 134.5 53t105 127t38.5 139q0 29 -18 48t-46 19q-23 0 -41.5 -16.5t-18.5 -41.5
q0 -52 58 -58q-15 -60 -29 -85q-13 102 -58 150q44 -58 52 -161l-14 -20q0 76 -25 140t-64 84q-6 11 12 15l34 6q9 2 10 7t-7 10l-29 19q-17 15 3 23l31 14q7 2 9.5 5.5t0 7t-9.5 5.5l-31 13q-11 5 -10 14q6 3 7 8l17 30q5 9 10.5 8.5t7.5 -9.5l10 -33q7 -23 22 -5l23 26
q6 8 11 6.5t6 -11.5l2 -35q1 -10 7.5 -12.5t13.5 3.5l28 21q7 6 11.5 3t3.5 -13l-5 -34q-1 -10 5 -14t14 1l31 16q9 4 13 0t0 -14l-11 -31q-3 -10 1.5 -15t13.5 -2l34 7q10 3 13 -1t-2 -13l-18 -29q-6 -8 -3 -14.5t13 -5.5l35 2q10 0 12 -5t-4 -12l-24 -26q-7 -7 -5 -13.5
t12 -7.5l34 -6q20 -5 3 -19l-28 -19q-8 -5 -7.5 -11.5t10.5 -10.5l31 -13q9 -4 9 -9t-9 -9zM364 164q69 0 135 52.5t104.5 127t38.5 139.5q0 31 -20 49q12 -18 12 -41q0 -103 -85 -210q-92 -113 -196 -113q-29 0 -49 9q20 -13 60 -13z" />
    <glyph glyph-name="periodcentered" unicode="&#xb7;" 
d="M745 367q-9 -4 -10 -11t7 -12l28 -20q8 -5 7.5 -10.5t-10.5 -7.5l-34 -6q-10 -1 -12 -8t5 -14l24 -24q6 -7 4 -12t-12 -5l-35 2q-10 0 -13 -6t3 -14l18 -30q5 -8 2 -12.5t-13 -2.5l-34 9q-9 3 -13.5 -2.5t-1.5 -14.5l11 -33q4 -9 0 -12.5t-13 0.5l-31 15q-8 5 -14 0.5
t-5 -14.5l5 -33q1 -10 -3 -12.5t-12 3.5l-28 21q-8 6 -14 3t-7 -13l-2 -34q-1 -10 -6 -11.5t-11 5.5l-23 27q-16 16 -22 -5l-10 -33q-2 -10 -8 -10t-10 8l-17 30q-10 20 -23 0l-15 -30q-4 -8 -10 -8t-8 10l-10 33q-6 21 -22 5l-23 -27q-14 -15 -17 6l-2 34q-1 10 -7.5 13
t-14.5 -3l-26 -21q-8 -6 -13 -3.5t-3 12.5l5 33q1 10 -5 14.5t-15 -0.5l-30 -15q-9 -4 -13 -0.5t0 12.5l11 33q4 9 -1 14.5t-14 2.5l-34 -9q-10 -2 -13 2.5t2 12.5l19 30q5 8 2 14t-13 6l-35 -2q-10 0 -12 5t4 12l25 24q6 7 4 14t-12 8l-33 6q-7 1 -10 4t-1 7t7 7l28 20l6 6
q9 8 18 -6l16 -31q5 -9 10 -8t8 10l9 34q2 6 5.5 8.5t8 1.5t8.5 -6l23 -26q7 -7 11.5 -5.5t5.5 11.5l2 34q2 10 7.5 12.5t13.5 -3.5l28 -21q8 -6 12.5 -3.5t2.5 12.5l-4 34q-1 10 4.5 14t13.5 -1l31 -14q9 -4 13 -0.5t1 12.5l-11 33q-4 9 0.5 14t13.5 2l7 -1
q20 -38 34.5 -99t14.5 -106q-14 -18 -46 -18h-4q0 22 -16 35q9 -10 9 -27v-7q-16 1 -16 19q0 21 -13.5 35t-37.5 14q-20 0 -33.5 -15.5t-13.5 -38.5q0 -29 24.5 -47t67.5 -18q68 0 134.5 53t105 127t38.5 139q0 29 -18 48t-46 19q-23 0 -41.5 -16.5t-18.5 -41.5
q0 -52 58 -58q-15 -60 -29 -85q-13 102 -58 150q44 -58 52 -161l-14 -20q0 76 -25 140t-64 84q-6 11 12 15l34 6q9 2 10 7t-7 10l-29 19q-17 15 3 23l31 14q7 2 9.5 5.5t0 7t-9.5 5.5l-31 13q-11 5 -10 14q6 3 7 8l17 30q5 9 10.5 8.5t7.5 -9.5l10 -33q7 -23 22 -5l23 26
q6 8 11 6.5t6 -11.5l2 -35q1 -10 7.5 -12.5t13.5 3.5l28 21q7 6 11.5 3t3.5 -13l-5 -34q-1 -10 5 -14t14 1l31 16q9 4 13 0t0 -14l-11 -31q-3 -10 1.5 -15t13.5 -2l34 7q10 3 13 -1t-2 -13l-18 -29q-6 -8 -3 -14.5t13 -5.5l35 2q10 0 12 -5t-4 -12l-24 -26q-7 -7 -5 -13.5
t12 -7.5l34 -6q20 -5 3 -19l-28 -19q-8 -5 -7.5 -11.5t10.5 -10.5l31 -13q9 -4 9 -9t-9 -9zM364 164q69 0 135 52.5t104.5 127t38.5 139.5q0 31 -20 49q12 -18 12 -41q0 -103 -85 -210q-92 -113 -196 -113q-29 0 -49 9q20 -13 60 -13z" />
    <glyph glyph-name="cedilla" unicode="&#xb8;" 
d="M745 367q-9 -4 -10 -11t7 -12l28 -20q8 -5 7.5 -10.5t-10.5 -7.5l-34 -6q-10 -1 -12 -8t5 -14l24 -24q6 -7 4 -12t-12 -5l-35 2q-10 0 -13 -6t3 -14l18 -30q5 -8 2 -12.5t-13 -2.5l-34 9q-9 3 -13.5 -2.5t-1.5 -14.5l11 -33q4 -9 0 -12.5t-13 0.5l-31 15q-8 5 -14 0.5
t-5 -14.5l5 -33q1 -10 -3 -12.5t-12 3.5l-28 21q-8 6 -14 3t-7 -13l-2 -34q-1 -10 -6 -11.5t-11 5.5l-23 27q-16 16 -22 -5l-10 -33q-2 -10 -8 -10t-10 8l-17 30q-10 20 -23 0l-15 -30q-4 -8 -10 -8t-8 10l-10 33q-6 21 -22 5l-23 -27q-14 -15 -17 6l-2 34q-1 10 -7.5 13
t-14.5 -3l-26 -21q-8 -6 -13 -3.5t-3 12.5l5 33q1 10 -5 14.5t-15 -0.5l-30 -15q-9 -4 -13 -0.5t0 12.5l11 33q4 9 -1 14.5t-14 2.5l-34 -9q-10 -2 -13 2.5t2 12.5l19 30q5 8 2 14t-13 6l-35 -2q-10 0 -12 5t4 12l25 24q6 7 4 14t-12 8l-33 6q-7 1 -10 4t-1 7t7 7l28 20l6 6
q9 8 18 -6l16 -31q5 -9 10 -8t8 10l9 34q2 6 5.5 8.5t8 1.5t8.5 -6l23 -26q7 -7 11.5 -5.5t5.5 11.5l2 34q2 10 7.5 12.5t13.5 -3.5l28 -21q8 -6 12.5 -3.5t2.5 12.5l-4 34q-1 10 4.5 14t13.5 -1l31 -14q9 -4 13 -0.5t1 12.5l-11 33q-4 9 0.5 14t13.5 2l7 -1
q20 -38 34.5 -99t14.5 -106q-14 -18 -46 -18h-4q0 22 -16 35q9 -10 9 -27v-7q-16 1 -16 19q0 21 -13.5 35t-37.5 14q-20 0 -33.5 -15.5t-13.5 -38.5q0 -29 24.5 -47t67.5 -18q68 0 134.5 53t105 127t38.5 139q0 29 -18 48t-46 19q-23 0 -41.5 -16.5t-18.5 -41.5
q0 -52 58 -58q-15 -60 -29 -85q-13 102 -58 150q44 -58 52 -161l-14 -20q0 76 -25 140t-64 84q-6 11 12 15l34 6q9 2 10 7t-7 10l-29 19q-17 15 3 23l31 14q7 2 9.5 5.5t0 7t-9.5 5.5l-31 13q-11 5 -10 14q6 3 7 8l17 30q5 9 10.5 8.5t7.5 -9.5l10 -33q7 -23 22 -5l23 26
q6 8 11 6.5t6 -11.5l2 -35q1 -10 7.5 -12.5t13.5 3.5l28 21q7 6 11.5 3t3.5 -13l-5 -34q-1 -10 5 -14t14 1l31 16q9 4 13 0t0 -14l-11 -31q-3 -10 1.5 -15t13.5 -2l34 7q10 3 13 -1t-2 -13l-18 -29q-6 -8 -3 -14.5t13 -5.5l35 2q10 0 12 -5t-4 -12l-24 -26q-7 -7 -5 -13.5
t12 -7.5l34 -6q20 -5 3 -19l-28 -19q-8 -5 -7.5 -11.5t10.5 -10.5l31 -13q9 -4 9 -9t-9 -9zM364 164q69 0 135 52.5t104.5 127t38.5 139.5q0 31 -20 49q12 -18 12 -41q0 -103 -85 -210q-92 -113 -196 -113q-29 0 -49 9q20 -13 60 -13z" />
    <glyph glyph-name="onesuperior" unicode="&#xb9;" 
d="M745 367q-9 -4 -10 -11t7 -12l28 -20q8 -5 7.5 -10.5t-10.5 -7.5l-34 -6q-10 -1 -12 -8t5 -14l24 -24q6 -7 4 -12t-12 -5l-35 2q-10 0 -13 -6t3 -14l18 -30q5 -8 2 -12.5t-13 -2.5l-34 9q-9 3 -13.5 -2.5t-1.5 -14.5l11 -33q4 -9 0 -12.5t-13 0.5l-31 15q-8 5 -14 0.5
t-5 -14.5l5 -33q1 -10 -3 -12.5t-12 3.5l-28 21q-8 6 -14 3t-7 -13l-2 -34q-1 -10 -6 -11.5t-11 5.5l-23 27q-16 16 -22 -5l-10 -33q-2 -10 -8 -10t-10 8l-17 30q-10 20 -23 0l-15 -30q-4 -8 -10 -8t-8 10l-10 33q-6 21 -22 5l-23 -27q-14 -15 -17 6l-2 34q-1 10 -7.5 13
t-14.5 -3l-26 -21q-8 -6 -13 -3.5t-3 12.5l5 33q1 10 -5 14.5t-15 -0.5l-30 -15q-9 -4 -13 -0.5t0 12.5l11 33q4 9 -1 14.5t-14 2.5l-34 -9q-10 -2 -13 2.5t2 12.5l19 30q5 8 2 14t-13 6l-35 -2q-10 0 -12 5t4 12l25 24q6 7 4 14t-12 8l-33 6q-7 1 -10 4t-1 7t7 7l28 20l6 6
q9 8 18 -6l16 -31q5 -9 10 -8t8 10l9 34q2 6 5.5 8.5t8 1.5t8.5 -6l23 -26q7 -7 11.5 -5.5t5.5 11.5l2 34q2 10 7.5 12.5t13.5 -3.5l28 -21q8 -6 12.5 -3.5t2.5 12.5l-4 34q-1 10 4.5 14t13.5 -1l31 -14q9 -4 13 -0.5t1 12.5l-11 33q-4 9 0.5 14t13.5 2l7 -1
q20 -38 34.5 -99t14.5 -106q-14 -18 -46 -18h-4q0 22 -16 35q9 -10 9 -27v-7q-16 1 -16 19q0 21 -13.5 35t-37.5 14q-20 0 -33.5 -15.5t-13.5 -38.5q0 -29 24.5 -47t67.5 -18q68 0 134.5 53t105 127t38.5 139q0 29 -18 48t-46 19q-23 0 -41.5 -16.5t-18.5 -41.5
q0 -52 58 -58q-15 -60 -29 -85q-13 102 -58 150q44 -58 52 -161l-14 -20q0 76 -25 140t-64 84q-6 11 12 15l34 6q9 2 10 7t-7 10l-29 19q-17 15 3 23l31 14q7 2 9.5 5.5t0 7t-9.5 5.5l-31 13q-11 5 -10 14q6 3 7 8l17 30q5 9 10.5 8.5t7.5 -9.5l10 -33q7 -23 22 -5l23 26
q6 8 11 6.5t6 -11.5l2 -35q1 -10 7.5 -12.5t13.5 3.5l28 21q7 6 11.5 3t3.5 -13l-5 -34q-1 -10 5 -14t14 1l31 16q9 4 13 0t0 -14l-11 -31q-3 -10 1.5 -15t13.5 -2l34 7q10 3 13 -1t-2 -13l-18 -29q-6 -8 -3 -14.5t13 -5.5l35 2q10 0 12 -5t-4 -12l-24 -26q-7 -7 -5 -13.5
t12 -7.5l34 -6q20 -5 3 -19l-28 -19q-8 -5 -7.5 -11.5t10.5 -10.5l31 -13q9 -4 9 -9t-9 -9zM364 164q69 0 135 52.5t104.5 127t38.5 139.5q0 31 -20 49q12 -18 12 -41q0 -103 -85 -210q-92 -113 -196 -113q-29 0 -49 9q20 -13 60 -13z" />
    <glyph glyph-name="ordmasculine" unicode="&#xba;" 
d="M745 367q-9 -4 -10 -11t7 -12l28 -20q8 -5 7.5 -10.5t-10.5 -7.5l-34 -6q-10 -1 -12 -8t5 -14l24 -24q6 -7 4 -12t-12 -5l-35 2q-10 0 -13 -6t3 -14l18 -30q5 -8 2 -12.5t-13 -2.5l-34 9q-9 3 -13.5 -2.5t-1.5 -14.5l11 -33q4 -9 0 -12.5t-13 0.5l-31 15q-8 5 -14 0.5
t-5 -14.5l5 -33q1 -10 -3 -12.5t-12 3.5l-28 21q-8 6 -14 3t-7 -13l-2 -34q-1 -10 -6 -11.5t-11 5.5l-23 27q-16 16 -22 -5l-10 -33q-2 -10 -8 -10t-10 8l-17 30q-10 20 -23 0l-15 -30q-4 -8 -10 -8t-8 10l-10 33q-6 21 -22 5l-23 -27q-14 -15 -17 6l-2 34q-1 10 -7.5 13
t-14.5 -3l-26 -21q-8 -6 -13 -3.5t-3 12.5l5 33q1 10 -5 14.5t-15 -0.5l-30 -15q-9 -4 -13 -0.5t0 12.5l11 33q4 9 -1 14.5t-14 2.5l-34 -9q-10 -2 -13 2.5t2 12.5l19 30q5 8 2 14t-13 6l-35 -2q-10 0 -12 5t4 12l25 24q6 7 4 14t-12 8l-33 6q-7 1 -10 4t-1 7t7 7l28 20l6 6
q9 8 18 -6l16 -31q5 -9 10 -8t8 10l9 34q2 6 5.5 8.5t8 1.5t8.5 -6l23 -26q7 -7 11.5 -5.5t5.5 11.5l2 34q2 10 7.5 12.5t13.5 -3.5l28 -21q8 -6 12.5 -3.5t2.5 12.5l-4 34q-1 10 4.5 14t13.5 -1l31 -14q9 -4 13 -0.5t1 12.5l-11 33q-4 9 0.5 14t13.5 2l7 -1
q20 -38 34.5 -99t14.5 -106q-14 -18 -46 -18h-4q0 22 -16 35q9 -10 9 -27v-7q-16 1 -16 19q0 21 -13.5 35t-37.5 14q-20 0 -33.5 -15.5t-13.5 -38.5q0 -29 24.5 -47t67.5 -18q68 0 134.5 53t105 127t38.5 139q0 29 -18 48t-46 19q-23 0 -41.5 -16.5t-18.5 -41.5
q0 -52 58 -58q-15 -60 -29 -85q-13 102 -58 150q44 -58 52 -161l-14 -20q0 76 -25 140t-64 84q-6 11 12 15l34 6q9 2 10 7t-7 10l-29 19q-17 15 3 23l31 14q7 2 9.5 5.5t0 7t-9.5 5.5l-31 13q-11 5 -10 14q6 3 7 8l17 30q5 9 10.5 8.5t7.5 -9.5l10 -33q7 -23 22 -5l23 26
q6 8 11 6.5t6 -11.5l2 -35q1 -10 7.5 -12.5t13.5 3.5l28 21q7 6 11.5 3t3.5 -13l-5 -34q-1 -10 5 -14t14 1l31 16q9 4 13 0t0 -14l-11 -31q-3 -10 1.5 -15t13.5 -2l34 7q10 3 13 -1t-2 -13l-18 -29q-6 -8 -3 -14.5t13 -5.5l35 2q10 0 12 -5t-4 -12l-24 -26q-7 -7 -5 -13.5
t12 -7.5l34 -6q20 -5 3 -19l-28 -19q-8 -5 -7.5 -11.5t10.5 -10.5l31 -13q9 -4 9 -9t-9 -9zM364 164q69 0 135 52.5t104.5 127t38.5 139.5q0 31 -20 49q12 -18 12 -41q0 -103 -85 -210q-92 -113 -196 -113q-29 0 -49 9q20 -13 60 -13z" />
    <glyph glyph-name="guillemotright" unicode="&#xbb;" 
d="M745 367q-9 -4 -10 -11t7 -12l28 -20q8 -5 7.5 -10.5t-10.5 -7.5l-34 -6q-10 -1 -12 -8t5 -14l24 -24q6 -7 4 -12t-12 -5l-35 2q-10 0 -13 -6t3 -14l18 -30q5 -8 2 -12.5t-13 -2.5l-34 9q-9 3 -13.5 -2.5t-1.5 -14.5l11 -33q4 -9 0 -12.5t-13 0.5l-31 15q-8 5 -14 0.5
t-5 -14.5l5 -33q1 -10 -3 -12.5t-12 3.5l-28 21q-8 6 -14 3t-7 -13l-2 -34q-1 -10 -6 -11.5t-11 5.5l-23 27q-16 16 -22 -5l-10 -33q-2 -10 -8 -10t-10 8l-17 30q-10 20 -23 0l-15 -30q-4 -8 -10 -8t-8 10l-10 33q-6 21 -22 5l-23 -27q-14 -15 -17 6l-2 34q-1 10 -7.5 13
t-14.5 -3l-26 -21q-8 -6 -13 -3.5t-3 12.5l5 33q1 10 -5 14.5t-15 -0.5l-30 -15q-9 -4 -13 -0.5t0 12.5l11 33q4 9 -1 14.5t-14 2.5l-34 -9q-10 -2 -13 2.5t2 12.5l19 30q5 8 2 14t-13 6l-35 -2q-10 0 -12 5t4 12l25 24q6 7 4 14t-12 8l-33 6q-7 1 -10 4t-1 7t7 7l28 20l6 6
q9 8 18 -6l16 -31q5 -9 10 -8t8 10l9 34q2 6 5.5 8.5t8 1.5t8.5 -6l23 -26q7 -7 11.5 -5.5t5.5 11.5l2 34q2 10 7.5 12.5t13.5 -3.5l28 -21q8 -6 12.5 -3.5t2.5 12.5l-4 34q-1 10 4.5 14t13.5 -1l31 -14q9 -4 13 -0.5t1 12.5l-11 33q-4 9 0.5 14t13.5 2l7 -1
q20 -38 34.5 -99t14.5 -106q-14 -18 -46 -18h-4q0 22 -16 35q9 -10 9 -27v-7q-16 1 -16 19q0 21 -13.5 35t-37.5 14q-20 0 -33.5 -15.5t-13.5 -38.5q0 -29 24.5 -47t67.5 -18q68 0 134.5 53t105 127t38.5 139q0 29 -18 48t-46 19q-23 0 -41.5 -16.5t-18.5 -41.5
q0 -52 58 -58q-15 -60 -29 -85q-13 102 -58 150q44 -58 52 -161l-14 -20q0 76 -25 140t-64 84q-6 11 12 15l34 6q9 2 10 7t-7 10l-29 19q-17 15 3 23l31 14q7 2 9.5 5.5t0 7t-9.5 5.5l-31 13q-11 5 -10 14q6 3 7 8l17 30q5 9 10.5 8.5t7.5 -9.5l10 -33q7 -23 22 -5l23 26
q6 8 11 6.5t6 -11.5l2 -35q1 -10 7.5 -12.5t13.5 3.5l28 21q7 6 11.5 3t3.5 -13l-5 -34q-1 -10 5 -14t14 1l31 16q9 4 13 0t0 -14l-11 -31q-3 -10 1.5 -15t13.5 -2l34 7q10 3 13 -1t-2 -13l-18 -29q-6 -8 -3 -14.5t13 -5.5l35 2q10 0 12 -5t-4 -12l-24 -26q-7 -7 -5 -13.5
t12 -7.5l34 -6q20 -5 3 -19l-28 -19q-8 -5 -7.5 -11.5t10.5 -10.5l31 -13q9 -4 9 -9t-9 -9zM364 164q69 0 135 52.5t104.5 127t38.5 139.5q0 31 -20 49q12 -18 12 -41q0 -103 -85 -210q-92 -113 -196 -113q-29 0 -49 9q20 -13 60 -13z" />
    <glyph glyph-name="onequarter" unicode="&#xbc;" 
d="M745 367q-9 -4 -10 -11t7 -12l28 -20q8 -5 7.5 -10.5t-10.5 -7.5l-34 -6q-10 -1 -12 -8t5 -14l24 -24q6 -7 4 -12t-12 -5l-35 2q-10 0 -13 -6t3 -14l18 -30q5 -8 2 -12.5t-13 -2.5l-34 9q-9 3 -13.5 -2.5t-1.5 -14.5l11 -33q4 -9 0 -12.5t-13 0.5l-31 15q-8 5 -14 0.5
t-5 -14.5l5 -33q1 -10 -3 -12.5t-12 3.5l-28 21q-8 6 -14 3t-7 -13l-2 -34q-1 -10 -6 -11.5t-11 5.5l-23 27q-16 16 -22 -5l-10 -33q-2 -10 -8 -10t-10 8l-17 30q-10 20 -23 0l-15 -30q-4 -8 -10 -8t-8 10l-10 33q-6 21 -22 5l-23 -27q-14 -15 -17 6l-2 34q-1 10 -7.5 13
t-14.5 -3l-26 -21q-8 -6 -13 -3.5t-3 12.5l5 33q1 10 -5 14.5t-15 -0.5l-30 -15q-9 -4 -13 -0.5t0 12.5l11 33q4 9 -1 14.5t-14 2.5l-34 -9q-10 -2 -13 2.5t2 12.5l19 30q5 8 2 14t-13 6l-35 -2q-10 0 -12 5t4 12l25 24q6 7 4 14t-12 8l-33 6q-7 1 -10 4t-1 7t7 7l28 20l6 6
q9 8 18 -6l16 -31q5 -9 10 -8t8 10l9 34q2 6 5.5 8.5t8 1.5t8.5 -6l23 -26q7 -7 11.5 -5.5t5.5 11.5l2 34q2 10 7.5 12.5t13.5 -3.5l28 -21q8 -6 12.5 -3.5t2.5 12.5l-4 34q-1 10 4.5 14t13.5 -1l31 -14q9 -4 13 -0.5t1 12.5l-11 33q-4 9 0.5 14t13.5 2l7 -1
q20 -38 34.5 -99t14.5 -106q-14 -18 -46 -18h-4q0 22 -16 35q9 -10 9 -27v-7q-16 1 -16 19q0 21 -13.5 35t-37.5 14q-20 0 -33.5 -15.5t-13.5 -38.5q0 -29 24.5 -47t67.5 -18q68 0 134.5 53t105 127t38.5 139q0 29 -18 48t-46 19q-23 0 -41.5 -16.5t-18.5 -41.5
q0 -52 58 -58q-15 -60 -29 -85q-13 102 -58 150q44 -58 52 -161l-14 -20q0 76 -25 140t-64 84q-6 11 12 15l34 6q9 2 10 7t-7 10l-29 19q-17 15 3 23l31 14q7 2 9.5 5.5t0 7t-9.5 5.5l-31 13q-11 5 -10 14q6 3 7 8l17 30q5 9 10.5 8.5t7.5 -9.5l10 -33q7 -23 22 -5l23 26
q6 8 11 6.5t6 -11.5l2 -35q1 -10 7.5 -12.5t13.5 3.5l28 21q7 6 11.5 3t3.5 -13l-5 -34q-1 -10 5 -14t14 1l31 16q9 4 13 0t0 -14l-11 -31q-3 -10 1.5 -15t13.5 -2l34 7q10 3 13 -1t-2 -13l-18 -29q-6 -8 -3 -14.5t13 -5.5l35 2q10 0 12 -5t-4 -12l-24 -26q-7 -7 -5 -13.5
t12 -7.5l34 -6q20 -5 3 -19l-28 -19q-8 -5 -7.5 -11.5t10.5 -10.5l31 -13q9 -4 9 -9t-9 -9zM364 164q69 0 135 52.5t104.5 127t38.5 139.5q0 31 -20 49q12 -18 12 -41q0 -103 -85 -210q-92 -113 -196 -113q-29 0 -49 9q20 -13 60 -13z" />
    <glyph glyph-name="onehalf" unicode="&#xbd;" 
d="M745 367q-9 -4 -10 -11t7 -12l28 -20q8 -5 7.5 -10.5t-10.5 -7.5l-34 -6q-10 -1 -12 -8t5 -14l24 -24q6 -7 4 -12t-12 -5l-35 2q-10 0 -13 -6t3 -14l18 -30q5 -8 2 -12.5t-13 -2.5l-34 9q-9 3 -13.5 -2.5t-1.5 -14.5l11 -33q4 -9 0 -12.5t-13 0.5l-31 15q-8 5 -14 0.5
t-5 -14.5l5 -33q1 -10 -3 -12.5t-12 3.5l-28 21q-8 6 -14 3t-7 -13l-2 -34q-1 -10 -6 -11.5t-11 5.5l-23 27q-16 16 -22 -5l-10 -33q-2 -10 -8 -10t-10 8l-17 30q-10 20 -23 0l-15 -30q-4 -8 -10 -8t-8 10l-10 33q-6 21 -22 5l-23 -27q-14 -15 -17 6l-2 34q-1 10 -7.5 13
t-14.5 -3l-26 -21q-8 -6 -13 -3.5t-3 12.5l5 33q1 10 -5 14.5t-15 -0.5l-30 -15q-9 -4 -13 -0.5t0 12.5l11 33q4 9 -1 14.5t-14 2.5l-34 -9q-10 -2 -13 2.5t2 12.5l19 30q5 8 2 14t-13 6l-35 -2q-10 0 -12 5t4 12l25 24q6 7 4 14t-12 8l-33 6q-7 1 -10 4t-1 7t7 7l28 20l6 6
q9 8 18 -6l16 -31q5 -9 10 -8t8 10l9 34q2 6 5.5 8.5t8 1.5t8.5 -6l23 -26q7 -7 11.5 -5.5t5.5 11.5l2 34q2 10 7.5 12.5t13.5 -3.5l28 -21q8 -6 12.5 -3.5t2.5 12.5l-4 34q-1 10 4.5 14t13.5 -1l31 -14q9 -4 13 -0.5t1 12.5l-11 33q-4 9 0.5 14t13.5 2l7 -1
q20 -38 34.5 -99t14.5 -106q-14 -18 -46 -18h-4q0 22 -16 35q9 -10 9 -27v-7q-16 1 -16 19q0 21 -13.5 35t-37.5 14q-20 0 -33.5 -15.5t-13.5 -38.5q0 -29 24.5 -47t67.5 -18q68 0 134.5 53t105 127t38.5 139q0 29 -18 48t-46 19q-23 0 -41.5 -16.5t-18.5 -41.5
q0 -52 58 -58q-15 -60 -29 -85q-13 102 -58 150q44 -58 52 -161l-14 -20q0 76 -25 140t-64 84q-6 11 12 15l34 6q9 2 10 7t-7 10l-29 19q-17 15 3 23l31 14q7 2 9.5 5.5t0 7t-9.5 5.5l-31 13q-11 5 -10 14q6 3 7 8l17 30q5 9 10.5 8.5t7.5 -9.5l10 -33q7 -23 22 -5l23 26
q6 8 11 6.5t6 -11.5l2 -35q1 -10 7.5 -12.5t13.5 3.5l28 21q7 6 11.5 3t3.5 -13l-5 -34q-1 -10 5 -14t14 1l31 16q9 4 13 0t0 -14l-11 -31q-3 -10 1.5 -15t13.5 -2l34 7q10 3 13 -1t-2 -13l-18 -29q-6 -8 -3 -14.5t13 -5.5l35 2q10 0 12 -5t-4 -12l-24 -26q-7 -7 -5 -13.5
t12 -7.5l34 -6q20 -5 3 -19l-28 -19q-8 -5 -7.5 -11.5t10.5 -10.5l31 -13q9 -4 9 -9t-9 -9zM364 164q69 0 135 52.5t104.5 127t38.5 139.5q0 31 -20 49q12 -18 12 -41q0 -103 -85 -210q-92 -113 -196 -113q-29 0 -49 9q20 -13 60 -13z" />
    </font>
</defs>
</svg>
