<?xml version="1.0" standalone="no"?>
<!DOCTYPE svg PUBLIC "-//W3C//DTD SVG 1.1//EN" "http://www.w3.org/Graphics/SVG/1.1/DTD/svg11.dtd" >
<svg xmlns="http://www.w3.org/2000/svg" xmlns:xlink="http://www.w3.org/1999/xlink" version="1.1">
<metadata>
Created by FontForge 20170731 at Fri Dec 13 16:31:19 2013
 By Aleksey,,,
2013 Iconian Font - www.iconian.com
</metadata>
<defs>
<font id="FederalEscortExpanded" horiz-adv-x="943" >
  <font-face 
    font-family="Federal Escort Expanded"
    font-weight="400"
    font-stretch="expanded"
    units-per-em="1000"
    panose-1="0 0 0 0 0 0 0 0 0 0"
    ascent="800"
    descent="-200"
    x-height="561"
    cap-height="561"
    bbox="-61 -169 1840 794"
    underline-thickness="50"
    underline-position="-175"
    unicode-range="U+0020-2122"
  />
<missing-glyph horiz-adv-x="500" 
 />
    <glyph glyph-name=".notdef" horiz-adv-x="500" 
 />
    <glyph glyph-name=".null" horiz-adv-x="0" 
 />
    <glyph glyph-name="nonmarkingreturn" horiz-adv-x="500" 
 />
    <glyph glyph-name="space" unicode=" " horiz-adv-x="452" 
 />
    <glyph glyph-name="space" unicode="&#xa0;" horiz-adv-x="452" 
 />
    <glyph glyph-name="FL0021h" unicode="!" horiz-adv-x="408" 
d="M62 92q0 -20 11.5 -36.5t31 -29t45 -19.5t54.5 -7t54.5 7t44.5 19.5t30 29t11 36.5q0 19 -11 36t-30 29.5t-44.5 19.5t-54.5 7t-54.5 -7t-45 -19.5t-31 -29.5t-11.5 -36zM372 561h-336v-246l26 -88h282l28 88v246z" />
    <glyph glyph-name="FL0022h" unicode="&#x22;" horiz-adv-x="605" 
d="M318 369v101q0 19 9.5 35.5t26.5 29t40 19.5t50 7q25 0 48 -7t40 -19.5t27 -29t10 -35.5v-101q0 -19 -10 -35.5t-27 -29t-40 -19.5t-48 -7q-27 0 -50 7t-40 19.5t-26.5 29t-9.5 35.5zM36 368v101q0 19 9.5 35.5t26.5 29t40 19.5t50 7q25 0 48 -7t40 -19.5t27 -29
t10 -35.5v-101q0 -19 -10 -35.5t-27 -29t-40 -19.5t-48 -7q-27 0 -50 7t-40 19.5t-26.5 29t-9.5 35.5z" />
    <glyph glyph-name="FL0023h" unicode="#" horiz-adv-x="1007" 
d="M452 251v59h102v-59h-102zM890 453v108h-336v-108h-102v108h-336v-108h-80v-143h80v-59h-80v-143h80v-108h336v108h102v-108h336v108h81v143h-81v59h81v143h-81z" />
    <glyph glyph-name="FL0024h" unicode="$" horiz-adv-x="922" 
d="M595 631v-96h289v-147h-487q-11 0 -18 -7t-7 -15v-13h360q24 0 51 -7.5t50 -20.5t38 -31t15 -39v-85q0 -24 -13.5 -49t-36 -45.5t-52.5 -33.5t-64 -13h-126v-89h-269v89h-289v147h487q12 0 18.5 7t6.5 15v12h-356q-23 0 -50.5 11.5t-51 29.5t-39 40.5t-15.5 45.5v61
q0 26 13 50.5t35.5 44t52 31t63.5 11.5h126v96h269z" />
    <glyph glyph-name="FL0025h" unicode="%" horiz-adv-x="1124" 
d="M229 391v53q0 6 6 8h37q4 0 6 -3t2 -5v-53q-3 -6 -8 -6h-37q-6 0 -6 6zM846 111v53q0 6 6 8h37q4 0 5.5 -3t1.5 -5v-53q-2 -6 -7 -6h-37q-6 0 -6 6zM1007 280h-275l306 281h-340l-226 -208v136q0 13 -6.5 25.5t-18 22.5t-26.5 16.5t-31 6.5h-271q-17 0 -32 -6.5
t-26.5 -16.5t-18 -22.5t-6.5 -25.5v-148q0 -12 7.5 -23t18.5 -19.5t25 -13.5t27 -5h277l-305 -280h341l226 207v-146q0 -12 7.5 -23t18.5 -19.5t25 -13.5t27 -5h279q14 0 28 5t25 13.5t18 19.5t7 23v148q0 13 -6.5 25.5t-17.5 22.5t-26 16.5t-31 6.5z" />
    <glyph glyph-name="FL0026h" unicode="&#x26;" horiz-adv-x="1015" 
d="M365 181q0 16 8.5 23t34.5 7h158v-27q0 -15 -7.5 -26t-18.5 -11h-133q-23 0 -32.5 10t-9.5 24zM902 144v64h77v142h-570q-25 0 -34 6.5t-9 23.5q0 14 9.5 24t32.5 10h388v147h-578q-44 0 -77.5 -16.5t-56.5 -41.5t-35 -55t-12 -57q0 -28 11 -58.5t37 -47.5
q-29 -21 -39 -52t-10 -63q0 -28 9.5 -58t30.5 -55t55.5 -41t85.5 -16h549q32 0 57.5 11t43 30.5t26.5 46t9 56.5z" />
    <glyph glyph-name="FL0027h" unicode="'" horiz-adv-x="335" 
d="M36 470v-101q0 -19 10.5 -35.5t28.5 -29t42 -19.5t51 -7t51 7t41.5 19.5t28 29t10.5 35.5v101q0 19 -10.5 35.5t-28 29t-41.5 19.5t-51 7t-51 -7t-42 -19.5t-28.5 -29t-10.5 -35.5z" />
    <glyph glyph-name="FL0028h" unicode="(" horiz-adv-x="516" 
d="M202 615h278v-147h-82q-11 0 -18 -11t-7 -19v-322q0 -10 7 -16.5t17 -6.5h75v-147h-280q-27 0 -55 10.5t-50.5 27.5t-36.5 39t-14 46v403q0 26 13.5 51.5t36 46t52.5 33t64 12.5z" />
    <glyph glyph-name="FL0029h" unicode=")" horiz-adv-x="516" 
d="M36 615h278q34 0 64 -12.5t52.5 -33t36 -46t13.5 -51.5v-403q0 -24 -14.5 -46t-37 -39t-50 -27.5t-54.5 -10.5h-280v147h75q10 0 17 6.5t7 16.5v322q0 8 -7 19t-18 11h-82v147z" />
    <glyph glyph-name="asterisk" unicode="*" horiz-adv-x="346" 
d="M168 444l-31 -53l-102 67l47 37l-62 13l39 96l50 -26l-6 50h129l-6 -50l58 24l41 -95l-72 -12l51 -38l-104 -66z" />
    <glyph glyph-name="FL002Bh" unicode="+" horiz-adv-x="474" 
d="M323 351v95h-172v-95h-115v-143h115v-97h172v97h115v143h-115z" />
    <glyph glyph-name="FL002Ch" unicode="," horiz-adv-x="354" 
d="M36 92v-103q0 -20 11.5 -36.5t31 -29t45 -19.5t54.5 -7q28 0 53.5 7t45 19.5t30.5 29t11 36.5v103q0 19 -11 36t-30.5 29.5t-45 19.5t-53.5 7q-29 0 -54.5 -7t-45 -19.5t-31 -29.5t-11.5 -36z" />
    <glyph glyph-name="FL002Dh" unicode="-" horiz-adv-x="474" 
d="M36 351v-143h402v143h-402z" />
    <glyph glyph-name="FL002Eh" unicode="." horiz-adv-x="354" 
d="M36 92q0 19 11.5 36t31 29.5t45 19.5t54.5 7q28 0 53.5 -7t45 -19.5t30.5 -29.5t11 -36q0 -20 -11 -36.5t-30.5 -29t-45 -19.5t-53.5 -7q-29 0 -54.5 7t-45 19.5t-31 29t-11.5 36.5z" />
    <glyph glyph-name="FL002Fh" unicode="/" horiz-adv-x="992" 
d="M414 0l558 561h-394l-558 -561h394z" />
    <glyph glyph-name="FL0030h" unicode="0" horiz-adv-x="920" 
d="M371 170v212q0 8 6 19t18 13h128q14 0 20.5 -12t6.5 -20v-212q-4 -6 -11.5 -14.5t-15.5 -8.5h-126q-15 0 -20 9t-6 14zM720 561h-520q-34 0 -63.5 -12.5t-52 -33t-35.5 -46t-13 -51.5v-295q0 -24 14 -46t36.5 -39t50.5 -27.5t55 -10.5h536q28 0 55.5 10.5t50 27.5
t36.5 39t14 46v295q0 26 -13 51.5t-35.5 46t-52 33t-63.5 12.5z" />
    <glyph glyph-name="FL0031h" unicode="1" horiz-adv-x="542" 
d="M506 0h-336v414h-134v147h470v-561z" />
    <glyph glyph-name="FL0032h" unicode="2" horiz-adv-x="922" 
d="M36 0v255q0 21 15 39t38 31t50 20.5t51 7.5h360v31q0 8 -7 19t-19 11h-487v147h684q33 0 63 -11.5t52.5 -31t36 -44t13.5 -50.5v-87q0 -23 -15.5 -45.5t-39 -40.5t-51 -29.5t-50.5 -11.5h-357v-63h513v-147h-850z" />
    <glyph glyph-name="FL0033h" unicode="3" horiz-adv-x="870" 
d="M461 350h-425v-139h426q26 0 34.5 -7t8.5 -23q0 -14 -9.5 -24t-32.5 -10h-427v-147h617q51 0 85.5 16t55.5 41t30.5 55t9.5 58q0 32 -10 63t-39 52q26 17 37 47.5t11 58.5q0 27 -12 57t-35 55t-56.5 41.5t-77.5 16.5h-616v-147h426q23 0 32.5 -10t9.5 -24q0 -17 -9 -23.5
t-34 -6.5z" />
    <glyph glyph-name="FL0034h" unicode="4" horiz-adv-x="1111" 
d="M36 180l306 326q4 6 14.5 15t23.5 18t27 15.5t26 6.5h495v-337h147v-143h-147v-81h-335v81h-557v99zM468 224h125v111q0 1 -5.5 3t-9.5 4q-6 0 -8 -2t-6 -7z" />
    <glyph glyph-name="FL0035h" unicode="5" horiz-adv-x="922" 
d="M886 141v114q0 21 -15 39t-38 31t-50 20.5t-51 7.5h-360v61h512v147h-848v-224q0 -23 15.5 -45.5t39 -40.5t51 -29.5t50.5 -11.5h356v-33q0 -8 -6.5 -19t-18.5 -11h-487v-147h684q34 0 64 13t52.5 33.5t36 45.5t13.5 49z" />
    <glyph glyph-name="FL0036h" unicode="6" 
d="M397 147h149q10 0 16.5 8.5t9.5 14.5v41h-200v-41q4 -6 7.5 -14.5t17.5 -8.5zM907 253v-130q0 -24 -14 -46t-36.5 -39t-50.5 -27.5t-55 -10.5h-559q-27 0 -55 11t-50.5 28t-36.5 39t-14 45v295q0 26 13 51.5t35.5 46t52 33t63.5 12.5h704v-147h-507q-11 0 -18 -11t-7 -19
l-2 -2h2v-23h379q24 0 51.5 -8.5t51 -23t38.5 -34t15 -40.5z" />
    <glyph glyph-name="FL0037h" unicode="7" horiz-adv-x="978" 
d="M137 0h393l412 414v147h-906v-147h512z" />
    <glyph glyph-name="FL0038h" unicode="8" horiz-adv-x="923" 
d="M515 350h-107q-26 0 -34.5 6.5t-8.5 23.5q0 13 7.5 22.5t27.5 11.5h116q23 0 32.5 -10t9.5 -24q0 -17 -9 -23.5t-34 -6.5zM364 181q0 14 7.5 21t28.5 9h123q21 -2 28.5 -9t7.5 -21q0 -30 -36 -34h-117q-23 0 -32.5 10t-9.5 24zM706 561h-489q-44 0 -77.5 -16.5
t-56.5 -41.5t-35 -55t-12 -57q0 -28 11 -58.5t37 -47.5q-29 -21 -39 -52t-10 -63q0 -28 9 -58t30.5 -55t56 -41t85.5 -16h491q51 0 85.5 16t55.5 41t30.5 55t9.5 58q0 32 -10 63t-39 52q26 17 37 47.5t11 58.5q0 27 -12 57t-35 55t-56.5 41.5t-77.5 16.5z" />
    <glyph glyph-name="FL0039h" unicode="9" 
d="M546 414h-149q-10 0 -16 -8.5t-10 -14.5v-41h200v41q-4 6 -7.5 14.5t-17.5 8.5zM36 308v130q0 24 14 46t36.5 39t50.5 27.5t55 10.5h559q27 0 54.5 -11t50 -28t37 -39.5t14.5 -44.5v-295q0 -26 -13 -51.5t-35.5 -46t-52.5 -33t-63 -12.5h-703v147h506q12 0 18.5 11
t6.5 19l3 2h-3v23h-379q-24 0 -51.5 8.5t-51 23t-38.5 34t-15 40.5z" />
    <glyph glyph-name="FL003Ah" unicode=":" horiz-adv-x="354" 
d="M36 92q0 19 11.5 36t31 29.5t45 19.5t54.5 7q28 0 53.5 -7t45 -19.5t30.5 -29.5t11 -36q0 -20 -11 -36.5t-30.5 -29t-45 -19.5t-53.5 -7q-29 0 -54.5 7t-45 19.5t-31 29t-11.5 36.5zM35 323q0 19 11.5 36t30.5 29.5t44.5 19.5t54.5 7t54.5 -7t45 -19.5t30.5 -29.5t11 -36
q0 -20 -11 -36.5t-30.5 -29t-45 -19.5t-54.5 -7t-54.5 7t-44.5 19.5t-30.5 29t-11.5 36.5z" />
    <glyph glyph-name="FL003Bh" unicode=";" horiz-adv-x="354" 
d="M35 323q0 19 11.5 36t30.5 29.5t44.5 19.5t54.5 7t54.5 -7t45 -19.5t30.5 -29.5t11 -36q0 -20 -11 -36.5t-30.5 -29t-45 -19.5t-54.5 -7t-54.5 7t-44.5 19.5t-30.5 29t-11.5 36.5zM36 -11v103q0 19 11.5 36t31 29.5t45 19.5t54.5 7q28 0 53.5 -7t45 -19.5t30.5 -29.5
t11 -36v-103q0 -20 -11 -36.5t-30.5 -29t-45 -19.5t-53.5 -7q-29 0 -54.5 7t-45 19.5t-31 29t-11.5 36.5z" />
    <glyph glyph-name="FL003Ch" unicode="&#x3c;" horiz-adv-x="714" 
d="M300 0l-280 281l279 280h393l-278 -280l280 -281h-394z" />
    <glyph glyph-name="FL003Dh" unicode="=" horiz-adv-x="523" 
d="M36 453v-143h451v143h-451zM36 251v-143h451v143h-451z" />
    <glyph glyph-name="FL003Eh" unicode="&#x3e;" horiz-adv-x="714" 
d="M413 0l279 281l-278 280h-394l279 -280l-280 -281h394z" />
    <glyph glyph-name="FL003Fh" unicode="?" horiz-adv-x="922" 
d="M166 92q0 -20 11 -36.5t30.5 -29t45 -19.5t54.5 -7t54.5 7t45 19.5t30.5 29t11 36.5q0 19 -11 36t-30.5 29.5t-45 19.5t-54.5 7t-54.5 -7t-45 -19.5t-30.5 -29.5t-11 -36zM166 255v-41h564q23 0 50.5 11t51 28t39 39t15.5 45v87q0 26 -13.5 50.5t-36 44t-52.5 31
t-63 11.5h-684v-147h487q12 0 19 -11t7 -19v-31h-231q-24 0 -50.5 -7.5t-49.5 -20.5t-38 -31t-15 -39z" />
    <glyph glyph-name="FL0040h" unicode="@" horiz-adv-x="1244" 
d="M486 421h271q17 0 32 -6.5t26 -16.5t17.5 -22.5t6.5 -25.5v-63h24q10 0 17 6.5t7 16.5v128q0 8 -7 19t-18 11h-479q-12 0 -18.5 -11t-6.5 -19v-322q0 -10 6.5 -16.5t17.5 -6.5h457v-147h-663q-27 0 -55 10.5t-50.5 27.5t-36.5 39t-14 46v403q0 26 13.5 51.5t36 46
t52.5 33t64 12.5h872q34 0 64 -12.5t52.5 -33t36 -46t13.5 -51.5v-208q0 -24 -14.5 -46t-37 -39t-50 -27.5t-54.5 -10.5h-587q-13 0 -27 5t-25 13.5t-18.5 19.5t-7.5 23v148q0 13 7 25.5t18 22.5t26 16.5t32 6.5zM596 305v-53q0 -6 6 -6h38q5 0 7 6v53q0 2 -2 5t-5 3h-38
q-6 -2 -6 -8z" />
    <glyph glyph-name="FL0041h" unicode="A" 
d="M371 391v-90h200v90q-4 6 -7.5 14.5t-17.5 8.5h-149q-10 0 -16 -8t-10 -14v-1zM907 0h-336v158h-200v-158h-335v437q0 24 14 46t36.5 39.5t50.5 28t55 10.5h559q27 0 55 -11t50.5 -28.5t36.5 -40t14 -44.5v-437z" />
    <glyph glyph-name="FL0042h" unicode="B" 
d="M371 350h163q26 0 34.5 6.5t8.5 23.5q0 14 -9.5 24t-32.5 10h-164v-64zM535 211h-164v-64h165q23 0 32.5 10t9.5 24q0 16 -8.5 23t-34.5 7zM726 0h-690v561h689q44 0 77.5 -16.5t56.5 -41.5t35 -55t12 -57q0 -28 -11 -58.5t-37 -47.5q29 -21 39 -52t10 -63q0 -28 -9 -58
t-30.5 -55t-56 -41t-85.5 -16z" />
    <glyph glyph-name="FL0043h" unicode="C" horiz-adv-x="844" 
d="M200 561h608v-147h-411q-11 0 -18 -11t-7 -19v-214q1 -10 8 -16.5t17 -6.5h403v-147h-608q-27 0 -55 10.5t-50.5 27.5t-36.5 39t-14 46v295q0 26 13 51.5t35.5 46t52 33t63.5 12.5z" />
    <glyph glyph-name="FL0044h" unicode="D" horiz-adv-x="935" 
d="M372 403v-253h124q25 0 38.5 9t20 23t7.5 31t1 32v68q0 13 -1.5 29t-7 29.5t-15.5 22.5t-27 9h-140zM36 0v561h731q24 0 48 -12.5t42.5 -32t30 -42.5t11.5 -43v-321q0 -18 -10.5 -37.5t-27 -35.5t-37.5 -26.5t-42 -10.5h-746z" />
    <glyph glyph-name="FL0045h" unicode="E" horiz-adv-x="844" 
d="M200 561h608v-147h-411q-11 0 -18.5 -12t-7.5 -20q0 -11 9.5 -21t25.5 -10h402v-143h-411q-2 0 -11.5 -9t-13.5 -15q0 -1 -0.5 -3t-0.5 -4t0.5 -4t0.5 -3q4 -6 13.5 -14.5t11.5 -8.5h411v-147h-616q-27 0 -55 10.5t-50.5 27.5t-36.5 39t-14 46v295q0 26 13 51.5t35.5 46
t52 33t63.5 12.5z" />
    <glyph glyph-name="FL0046h" unicode="F" horiz-adv-x="844" 
d="M200 561h608v-147h-411q-11 0 -18.5 -12t-7.5 -20q0 -11 9.5 -21t25.5 -10h402v-143h-411q-2 0 -11.5 -9t-13.5 -15v-184h-336v418q0 26 13 51.5t35.5 46t52 33t63.5 12.5z" />
    <glyph glyph-name="FL00B9h" unicode="G" 
d="M200 561h608v-147h-411q-11 0 -18 -11t-7 -19l-2 -2h2v-212q4 -6 7.5 -14.5t17.5 -8.5h149q10 0 16.5 8t9.5 14v213h335v-259q0 -24 -14 -46t-36.5 -39t-50.5 -27.5t-55 -10.5h-559q-27 0 -55 11t-50.5 28t-36.5 39t-14 45v295q0 26 13 51.5t35.5 46t52 33t63.5 12.5z
" />
    <glyph glyph-name="FL0048h" unicode="H" horiz-adv-x="907" 
d="M534 561h337v-561h-337v208h-162v-208h-336v561h336v-210h162v210z" />
    <glyph glyph-name="FL0049h" unicode="I" horiz-adv-x="869" 
d="M36 147v-147h796v147h-231v267h232v147h-796v-147h228v-267h-229z" />
    <glyph glyph-name="FL004Ah" unicode="J" 
d="M372 170v103h-336v-150q0 -23 14 -45t36.5 -39t50.5 -28t55 -11h559q27 0 55 10.5t50.5 27.5t36.5 39t14 46v438h-335v-391q-3 -6 -9.5 -14.5t-16.5 -8.5h-149q-14 0 -17.5 8.5t-7.5 14.5z" />
    <glyph glyph-name="FL004Bh" unicode="K" horiz-adv-x="901" 
d="M418 97l-46 67v-164h-336v561h336v-202q17 30 31 60.5t43 53.5v2q4 5 17 18t34.5 27t50 26t63.5 15h254v-148h-114q-16 0 -39 -11t-44 -27.5t-36 -36t-15 -37.5q0 -29 19 -56.5t48.5 -49t63.5 -34.5t64 -13h53v-148h-278q-24 0 -48 10t-46 24.5t-41.5 31.5t-33.5 31z" />
    <glyph glyph-name="FL004Ch" unicode="L" horiz-adv-x="844" 
d="M36 142v419h336v-377q0 -20 10 -27.5t36 -9.5h390v-147h-634q-32 0 -57.5 11t-43.5 30.5t-27.5 45t-9.5 55.5z" />
    <glyph glyph-name="FL004Dh" unicode="M" horiz-adv-x="1331" 
d="M958 0v391q-4 6 -8 14.5t-18 8.5h-75q-8 0 -14 -7t-10 -12l-1 -2v-393h-338v391q-2 6 -6 14.5t-18 8.5h-74q-10 0 -16.5 -8.5t-9.5 -14.5v-391h-335v438q0 24 14 46t36.5 39t50.5 27.5t55 10.5h947q27 0 54.5 -11t50 -28t37 -39.5t14.5 -44.5v-438h-336z" />
    <glyph glyph-name="FL004Eh" unicode="N" 
d="M571 391v-391h336v438q0 22 -14.5 44.5t-37 39.5t-50 28t-54.5 11h-715v-561h335v414h175q14 0 17.5 -8.5t7.5 -14.5z" />
    <glyph glyph-name="FL004Fh" unicode="O" 
d="M371 170v212q0 8 6 19t18 13h151q14 0 20 -12t6 -20v-212q-3 -6 -10.5 -14.5t-15.5 -8.5h-149q-15 0 -20 9t-6 14zM743 561h-543q-34 0 -63.5 -12.5t-52 -33t-35.5 -46t-13 -51.5v-295q0 -24 14 -46t36.5 -39t50.5 -27.5t55 -10.5h559q27 0 55 10.5t50.5 27.5t36.5 39
t14 46v295q0 26 -13 51.5t-35.5 46t-52 33t-63.5 12.5z" />
    <glyph glyph-name="FL0050h" unicode="P" 
d="M371 414v-110h158q12 0 21 5.5t15 14t9.5 18.5t3.5 18q0 7 -2.5 16t-7.5 17.5t-13 14.5t-19 6h-165zM36 0v561h690q51 0 85.5 -20.5t56 -50t30.5 -63.5t9 -61q0 -38 -9.5 -75.5t-30.5 -67t-55.5 -48t-84.5 -18.5h-356v-157h-335z" />
    <glyph glyph-name="FL0051h" unicode="Q" horiz-adv-x="946" 
d="M574 226v-56q-4 -6 -8 -14.5t-18 -8.5h-152q-3 0 -11 8.5t-12 14.5v212q0 8 6.5 20t20.5 12h151q11 -2 17.5 -13t6.5 -19q-1 -1 -1 -13v-13v-23v-42v-65zM188 0h-232v-149h468q28 0 56 10t53 25.5t45.5 35t33.5 38.5l26 40h116q27 0 54.5 10.5t50 27.5t37 39t14.5 46v295
q0 26 -13.5 51.5t-36 46t-52.5 33t-63 12.5h-542q-34 0 -64 -12.5t-52.5 -33t-35.5 -46t-13 -51.5v-295q0 -23 13.5 -44.5t35.5 -38.5t48.5 -28t52.5 -12z" />
    <glyph glyph-name="FL0052h" unicode="R" horiz-adv-x="971" 
d="M371 414v-110h158q12 0 21 6t15 14.5t9.5 18.5t3.5 18q0 7 -2.5 16t-7.5 17.5t-13 14t-19 5.5h-165zM36 0v561h702q52 0 84.5 -16t51.5 -41t26 -55t7 -58q0 -24 -5.5 -52t-17.5 -52.5t-32 -40.5t-49 -16q-6 -5 -6 -13q0 -7 1 -8l191 -209h-415l-111 123q-14 14 -32 24
t-39 10h-2q-8 -2 -13.5 -4t-5.5 -3v-150h-335z" />
    <glyph glyph-name="FL005Ah" unicode="S" horiz-adv-x="922" 
d="M886 141v114q0 21 -15 39t-38 31t-50 20.5t-51 7.5h-360v31q0 8 7 19t18 11h487v147h-684q-34 0 -63.5 -11.5t-52 -31t-35.5 -44t-13 -50.5v-87q0 -23 15.5 -45.5t39 -40.5t51 -29.5t50.5 -11.5h356v-33q0 -8 -6.5 -19t-18.5 -11h-487v-147h684q34 0 64 13t52.5 33.5
t36 45.5t13.5 49z" />
    <glyph glyph-name="FL0055h" unicode="T" horiz-adv-x="899" 
d="M36 561h827v-147h-247v-414h-336v414h-244v147z" />
    <glyph glyph-name="FL0056h" unicode="U" 
d="M372 170v391h-336v-438q0 -23 14 -45t36.5 -39t50.5 -28t55 -11h715v561h-335v-414h-175q-14 0 -17.5 8.5t-7.5 14.5z" />
    <glyph glyph-name="FL0057h" unicode="V" horiz-adv-x="1109" 
d="M622 54l466 507h-393l-293 -331q-5 -5 -7.5 -8.5t-9.5 -3.5q-4 2 -9 4t-5 3v335h-335v-561h494q13 0 27 6.5t26.5 15.5t23 18.5t15.5 14.5z" />
    <glyph glyph-name="FL0059h" unicode="W" horiz-adv-x="1331" 
d="M676 561h-27l-278 -279v279h-336v-561h423q13 0 33 11.5t41.5 29.5t43.5 39t40 40t30.5 33.5t14.5 18.5h4q0 -2 1 -3q7 -9 32 -36.5t55.5 -57t60.5 -52.5t48 -23h432v561h-336v-279z" />
    <glyph glyph-name="FL0058h" unicode="X" horiz-adv-x="901" 
d="M36 0h151q35 0 68 5t62 22q23 13 46 31.5t46 47.5q3 -2 4.5 -4t4.5 -5q14 -14 33.5 -31t41.5 -31.5t46 -24.5t48 -10h278v148h-53q-30 0 -64 16t-63.5 40.5t-48.5 53t-19 52.5q0 12 12.5 29.5t29 34t33.5 28t26 11.5h147v148h-254q-33 -7 -58.5 -23.5t-42.5 -33t-26 -29
t-10 -12.5q-11 10 -25 26.5t-32.5 32.5t-43 27.5t-57.5 11.5h-280v-148h48q4 0 16 -0.5t27.5 -3t31.5 -7.5t28 -14q35 -27 60 -56t51 -58q-6 -20 -27 -41.5t-45.5 -40.5t-48 -31t-34.5 -12h-107v-149z" />
    <glyph glyph-name="FL007Ch" unicode="Y" horiz-adv-x="928" 
d="M554 561h338v-417q0 -30 -9.5 -56.5t-27.5 -46t-43.5 -30.5t-56.5 -11h-713v147h469q25 2 34 9.5t9 27.5v23h-362q-27 0 -55 11t-50.5 28t-36.5 39t-14 45v231h336v-187q4 -5 7.5 -14.5t17.5 -9.5h135q7 0 13.5 8t8.5 14v189z" />
    <glyph glyph-name="FL007Bh" unicode="Z" horiz-adv-x="1118" 
d="M1082 148v-148h-436q-29 0 -57 9.5t-53.5 25.5t-46 35.5t-32.5 39.5l-158 239q-6 8 -15.5 19t-20.5 21.5t-23 17.5t-23 7h-181v147h427q25 0 51.5 -11.5t50.5 -28t43 -35.5t28 -34l156 -233q4 -7 13 -19t21 -23.5t24.5 -20t23.5 -8.5h208z" />
    <glyph glyph-name="FL005Bh" unicode="[" horiz-adv-x="516" 
d="M480 615h-444v-669h436v147h-99v375h107v147z" />
    <glyph glyph-name="FL005Ch" unicode="\" horiz-adv-x="992" 
d="M577 0l-558 561h394l558 -561h-394z" />
    <glyph glyph-name="FL005Dh" unicode="]" horiz-adv-x="516" 
d="M36 615h444v-669h-436v147h99v375h-107v147z" />
    <glyph glyph-name="FL005Eh" unicode="^" horiz-adv-x="1110" 
d="M622 506l468 -507h-395l-294 334q-4 5 -6 7t-9 2q-3 -2 -9 -4t-6 -3v-335h-335v561h496q13 0 26 -6.5t25 -15.5t22.5 -18.5t16.5 -14.5z" />
    <glyph glyph-name="FL005Fh" unicode="_" horiz-adv-x="707" 
d="M671 147v-147h-635v147h635z" />
    <glyph glyph-name="FL0061h" unicode="`" horiz-adv-x="1753" 
d="M863 414h-247v-414h-336v414h-244v147h827v-147zM665 0l467 507q4 6 14.5 15t23 18t27 15.5t26.5 6.5h494v-561h-335v335q0 1 -5 3t-9 4q-6 0 -8.5 -2t-5.5 -7l-296 -334h-393z" />
    <glyph glyph-name="a" unicode="a" horiz-adv-x="1109" 
d="M20 -1l467 507q4 6 14.5 15t23.5 18t27 15.5t26 6.5h495v-561h-335v335q0 1 -5.5 3t-8.5 4q-7 0 -9 -2t-6 -7l-295 -334h-394z" />
    <glyph glyph-name="FL0062h" unicode="b" 
d="M371 350h163q26 0 34.5 6.5t8.5 23.5q0 14 -9.5 24t-32.5 10h-164v-64zM535 211h-164v-64h165q23 0 32.5 10t9.5 24q0 16 -8.5 23t-34.5 7zM726 0h-690v561h689q44 0 77.5 -16.5t56.5 -41.5t35 -55t12 -57q0 -28 -11 -58.5t-37 -47.5q29 -21 39 -52t10 -63q0 -28 -9 -58
t-30.5 -55t-56 -41t-85.5 -16z" />
    <glyph glyph-name="FL0063h" unicode="c" horiz-adv-x="844" 
d="M808 561h-608q-34 0 -63.5 -12.5t-52 -33t-35.5 -46t-13 -51.5v-295q0 -24 14 -46t36.5 -39t50.5 -27.5t55 -10.5h608v147h-403q-10 0 -17 6.5t-8 16.5v214q0 8 7 19t18 11h411v147z" />
    <glyph glyph-name="d" unicode="d" horiz-adv-x="935" 
d="M372 403v-253h124q25 0 38.5 9t20 23t7.5 31t1 32v68q0 13 -1.5 29t-7 29.5t-15.5 22.5t-27 9h-140zM36 0v561h731q24 0 48 -12.5t42.5 -32t30 -42.5t11.5 -43v-321q0 -18 -10.5 -37.5t-27 -35.5t-37.5 -26.5t-42 -10.5h-746z" />
    <glyph glyph-name="E" unicode="e" horiz-adv-x="844" 
d="M808 561h-608q-34 0 -63.5 -12.5t-52 -33t-35.5 -46t-13 -51.5v-295q0 -24 14 -46t36.5 -39t50.5 -27.5t55 -10.5h616v147h-411q-2 0 -11.5 8.5t-13.5 14.5q0 1 -0.5 3t-0.5 4t0.5 4t0.5 3q4 6 13.5 15t11.5 9h411v143h-402q-16 0 -25.5 10t-9.5 21q0 8 7.5 20t18.5 12
h411v147z" />
    <glyph glyph-name="FL0066h" unicode="f" horiz-adv-x="844" 
d="M808 561h-608q-34 0 -63.5 -12.5t-52 -33t-35.5 -46t-13 -51.5v-418h336v184q4 6 13.5 15t11.5 9h411v143h-402q-16 0 -25.5 10t-9.5 21q0 8 7.5 20t18.5 12h411v147z" />
    <glyph glyph-name="FL0067h" unicode="g" 
d="M907 253v-130q0 -24 -14 -46t-36.5 -39t-50.5 -27.5t-55 -10.5h-559q-27 0 -55 11t-50.5 28t-36.5 39t-14 45v295q0 26 13 51.5t35.5 46t52 33t63.5 12.5h704v-147h-507q-11 0 -18 -11t-7 -19l-2 -2h2v-212q4 -6 7.5 -14.5t17.5 -8.5h149q10 0 16.5 8.5t9.5 14.5v41h-133
v148h312q24 0 51.5 -8.5t51 -23t38.5 -34t15 -40.5z" />
    <glyph glyph-name="FL0068h" unicode="h" horiz-adv-x="907" 
d="M534 561h337v-561h-337v208h-162v-208h-336v561h336v-210h162v210z" />
    <glyph glyph-name="FL0069h" unicode="i" horiz-adv-x="408" 
d="M36 561h336v-561h-336v561z" />
    <glyph glyph-name="FL006Ah" unicode="j" horiz-adv-x="844" 
d="M808 144v417h-336v-377q0 -20 -10 -27.5t-36 -9.5h-390v-147h635q32 0 57.5 11t43 30.5t27 46t9.5 56.5z" />
    <glyph glyph-name="FL006Bh" unicode="k" horiz-adv-x="901" 
d="M418 97l-46 67v-164h-336v561h336v-202q17 30 31 60.5t43 53.5v2q4 5 17 18t34.5 27t50 26t63.5 15h254v-148h-114q-16 0 -39 -11t-44 -27.5t-36 -36t-15 -37.5q0 -29 19 -56.5t48.5 -49t63.5 -34.5t64 -13h53v-148h-278q-24 0 -48 10t-46 24.5t-41.5 31.5t-33.5 31z" />
    <glyph glyph-name="l" unicode="l" horiz-adv-x="844" 
d="M36 561v-419q0 -30 9.5 -55.5t27.5 -45t43.5 -30.5t57.5 -11h634v147h-390q-26 2 -36 9.5t-10 27.5v377h-336z" />
    <glyph glyph-name="FL006Dh" unicode="m" horiz-adv-x="1331" 
d="M680 0h-26l-282 279v-279h-336v561h432q18 0 48 -23t60 -52.5t54.5 -57t31.5 -36.5q3 -2 3 -3h2q2 4 14.5 18.5t31 33.5t40 40t43.5 39t41.5 29.5t33.5 11.5h424v-561h-336v279z" />
    <glyph glyph-name="FL0071h" unicode="n" horiz-adv-x="1103" 
d="M733 561h334v-561h-387q-27 0 -52 10t-46.5 25t-39.5 33.5t-32 35.5l-138 175v-279h-336v561h413q19 0 41.5 -11t44 -26.5t39.5 -33t27 -30.5l132 -185v286z" />
    <glyph glyph-name="FL006Fh" unicode="o" 
d="M200 561h543q34 0 63.5 -12.5t52 -33t35.5 -46t13 -51.5v-295q0 -24 -14 -46t-36.5 -39t-50.5 -27.5t-55 -10.5h-559q-27 0 -55 10.5t-50.5 27.5t-36.5 39t-14 46v295q0 26 13 51.5t35.5 46t52 33t63.5 12.5zM371 382v-212q1 -5 6 -14t20 -9h149q8 0 15.5 8.5t10.5 14.5
v212q0 8 -6 20t-20 12h-151q-12 -2 -18 -13t-6 -19z" />
    <glyph glyph-name="FL0070h" unicode="p" 
d="M36 561v-561h335v157h356q50 0 84.5 18.5t55.5 48t30.5 67t9.5 75.5q0 27 -9 61t-30.5 63.5t-56 50t-85.5 20.5h-690zM371 304v110h165q11 0 19 -6t13 -14.5t7.5 -17.5t2.5 -16q0 -8 -3.5 -18t-9.5 -18.5t-15 -14t-21 -5.5h-158z" />
    <glyph glyph-name="FL0072h" unicode="q" 
d="M990 0h-233q26 1 53 12t48.5 28t35 38.5t13.5 44.5v295q0 26 -13 51.5t-35.5 46t-52 33t-63.5 12.5h-543q-34 0 -63.5 -12.5t-52 -33t-35.5 -46t-13 -51.5v-295q0 -24 14 -46t36.5 -39t50.5 -27.5t55 -10.5h115l27 -40q13 -19 33 -38.5t45 -35t53 -25.5t57 -10h468v149z
M372 170v56v65v42v23v13q0 12 -1 13q0 8 6 19t18 13h151q14 0 20 -12t6 -20v-212q-3 -6 -11.5 -14.5t-10.5 -8.5h-153q-14 0 -17.5 8.5t-7.5 14.5z" />
    <glyph glyph-name="r" unicode="r" horiz-adv-x="971" 
d="M371 414v-110h158q12 0 21 6t15 14.5t9.5 18.5t3.5 18q0 7 -2.5 16t-7.5 17.5t-13 14t-19 5.5h-165zM36 0v561h702q52 0 84.5 -16t51.5 -41t26 -55t7 -58q0 -24 -5.5 -52t-17.5 -52.5t-32 -40.5t-49 -16q-6 -5 -6 -13q0 -7 1 -8l191 -209h-415l-111 123q-14 14 -32 24
t-39 10h-2q-8 -2 -13.5 -4t-5.5 -3v-150h-335z" />
    <glyph glyph-name="s" unicode="s" horiz-adv-x="1080" 
d="M36 0v148h176q10 0 22 7.5t23 18t20.5 22t15.5 19.5l157 237q6 9 24.5 27.5t43.5 36.5t52.5 31.5t52.5 13.5h421v-147h-175q-11 0 -23.5 -7t-24.5 -17.5t-21 -21.5t-13 -19l-158 -239q-13 -19 -33 -38.5t-44.5 -35.5t-53 -26t-58.5 -10h-404z" />
    <glyph glyph-name="FL0074h" unicode="t" horiz-adv-x="899" 
d="M863 561h-827v-147h244v-414h336v414h247v147z" />
    <glyph glyph-name="FL0075h" unicode="u" 
d="M372 170v391h-336v-438q0 -23 14 -45t36.5 -39t50.5 -28t55 -11h559q27 0 55 10.5t50.5 27.5t36.5 39t14 46v438h-335v-392q-3 -6 -9.5 -14t-16.5 -8h-149q-14 0 -17.5 8.5t-7.5 14.5z" />
    <glyph glyph-name="FL0076h" unicode="v" horiz-adv-x="1109" 
d="M20 561l467 -507q5 -5 15 -14.5t22.5 -18.5t26.5 -15.5t27 -6.5h495v561h-335v-335q0 -1 -5.5 -3t-8.5 -4q-7 0 -9.5 3.5t-7.5 8.5l-293 331h-394z" />
    <glyph glyph-name="FL0077h" unicode="w" horiz-adv-x="1331" 
d="M372 561v-391q4 -6 7.5 -14.5t17.5 -8.5h76q8 0 14 7t10 12l1 2v393h337v-391q3 -6 6.5 -14.5t17.5 -8.5h75q10 0 16 8.5t10 14.5v391h335v-438q0 -24 -14 -46t-36.5 -39t-50.5 -27.5t-55 -10.5h-947q-27 0 -55 11t-50.5 28t-36.5 39t-14 45v438h336z" />
    <glyph glyph-name="x" unicode="x" horiz-adv-x="901" 
d="M187 0h-151v149h107q11 0 34.5 12t48 31t45.5 40.5t27 41.5q-26 29 -51 58t-60 56q-12 9 -28 14t-31.5 7.5t-27.5 3t-16 0.5h-48v148h280q33 0 57.5 -11.5t43 -27.5t32.5 -32.5t25 -26.5q1 0 10 12.5t26 29t42.5 33t58.5 23.5h254v-148h-147q-9 0 -26 -11.5t-33.5 -28
t-29 -34t-12.5 -29.5q0 -24 19 -52.5t48.5 -53t63.5 -40.5t64 -16h53v-148h-278q-24 0 -48 10t-46 24.5t-41.5 31.5t-33.5 31q-3 3 -4.5 5t-4.5 4q-23 -29 -46 -47.5t-46 -31.5q-29 -17 -62 -22t-68 -5z" />
    <glyph glyph-name="FL0079h" unicode="y" horiz-adv-x="901" 
d="M865 413v148h-263q-32 -8 -56.5 -24.5t-41 -33.5t-25.5 -30t-10 -13q-12 10 -26.5 27t-33.5 33.5t-44 28.5t-58 12h-271v-148h48q4 0 15 -1t26 -4t32.5 -9.5t32.5 -18.5q28 -21 53.5 -41.5t37.5 -54.5v-284h336v302q0 17 15.5 35t36.5 33.5t42 27t32 15.5h122z" />
    <glyph glyph-name="FL007Dh" unicode="z" horiz-adv-x="1079" 
d="M1043 0v148h-175q-12 0 -25 8.5t-24 20t-20 23.5t-14 19l-155 233q-8 9 -26 27.5t-42 36.5t-51.5 31.5t-53.5 13.5h-421v-147h174q12 0 24 -7t23 -17.5t20.5 -21.5t15.5 -19l158 -239q12 -19 32.5 -38.5t46 -35.5t54 -26t57.5 -10h402z" />
    <glyph glyph-name="FL0060h" unicode="{" horiz-adv-x="1784" 
d="M36 0v148h176q10 0 22 7.5t23 18t20.5 22t15.5 19.5l157 237q6 9 24.5 27.5t43.5 36.5t52.5 31.5t52.5 13.5h421v-147h-175q-11 0 -23.5 -7t-24.5 -17.5t-21 -21.5t-13 -19l-158 -239q-13 -19 -33 -38.5t-44.5 -35.5t-53 -26t-58.5 -10h-404zM740 0v148h177
q10 0 21.5 7.5t23 18t20.5 22t15 19.5l157 237q6 9 24.5 27.5t43.5 36.5t52.5 31.5t52.5 13.5h421v-147h-175q-11 0 -23.5 -7t-24.5 -17.5t-21 -21.5t-12 -19l-159 -239q-13 -19 -33 -38.5t-44.5 -35.5t-52.5 -26t-58 -10h-405z" />
    <glyph glyph-name="FL007Eh" unicode="|" horiz-adv-x="408" 
d="M372 730h-336v-899h336v899z" />
    <glyph glyph-name="FL0083h" unicode="}" horiz-adv-x="1844" 
d="M36 0v148h176q10 0 22 7.5t23 18t20.5 22t15.5 19.5l157 237q6 9 24.5 27.5t43.5 36.5t52.5 31.5t52.5 13.5h421v-147h-175q-11 0 -23.5 -7t-24.5 -17.5t-21 -21.5t-13 -19l-158 -239q-13 -19 -33 -38.5t-44.5 -35.5t-53 -26t-58.5 -10h-404zM756 0l467 507q4 6 14.5 15
t23.5 18t27 15.5t26 6.5h494v-561h-334v335q0 1 -5.5 3t-9.5 4q-6 0 -8 -2t-6 -7l-295 -334h-394z" />
    <glyph glyph-name="FL0082h" unicode="~" horiz-adv-x="1759" 
d="M863 414h-247v-414h-336v414h-244v147h827v-147zM715 0v148h177q10 0 21.5 7.5t22.5 18t20.5 22t15.5 19.5l157 237q6 9 24.5 27.5t43.5 36.5t52.5 31.5t52.5 13.5h421v-147h-175q-11 0 -23.5 -7t-24.5 -17.5t-21 -21.5t-13 -19l-158 -239q-13 -19 -33 -38.5t-44.5 -35.5
t-52.5 -26t-58 -10h-405z" />
    <glyph glyph-name="FL007Fh" horiz-adv-x="283" 
 />
    <glyph glyph-name="FL20ACh" horiz-adv-x="968" 
d="M36 359h142v59q0 26 13 51.5t35.5 46t52 33t63.5 12.5h590v-147h-393q-12 0 -18.5 -11t-6.5 -19v-25h217v-64h-217v-32h217v-64h-217v-29q1 -10 8 -16.5t17 -6.5h386v-147h-591q-27 0 -55 10.5t-50.5 27.5t-36.5 39t-14 46v76h-142v64h142v32h-142v64z" />
    <glyph glyph-name="FL20ACh" unicode="&#x20ac;" horiz-adv-x="968" 
d="M36 359h142v59q0 26 13 51.5t35.5 46t52 33t63.5 12.5h590v-147h-393q-12 0 -18.5 -11t-6.5 -19v-25h217v-64h-217v-32h217v-64h-217v-29q1 -10 8 -16.5t17 -6.5h386v-147h-591q-27 0 -55 10.5t-50.5 27.5t-36.5 39t-14 46v76h-142v64h142v32h-142v64z" />
    <glyph glyph-name="FL017Fh" horiz-adv-x="1784" 
d="M1748 0v148h-176q-11 0 -22.5 7.5t-22.5 18t-20 22t-15 19.5l-158 237q-6 9 -24.5 27.5t-43 36.5t-52 31.5t-52.5 13.5h-422v-147h176q10 0 23 -7t24.5 -17.5t21 -21.5t12.5 -19l159 -239q12 -19 32 -38.5t45.5 -35.5t53.5 -26t57 -10h404zM1044 0v148h-176
q-11 0 -22.5 7.5t-22.5 18t-20.5 22t-15.5 19.5l-157 237q-6 9 -24.5 27.5t-43.5 36.5t-52.5 31.5t-52.5 13.5h-421v-147h175q11 0 23.5 -7t24.5 -17.5t21 -21.5t13 -19l158 -239q12 -19 32.5 -38.5t46 -35.5t53.5 -26t57 -10h404z" />
    <glyph glyph-name="FL017Fh" unicode="&#x17d;" horiz-adv-x="1784" 
d="M1748 0v148h-176q-11 0 -22.5 7.5t-22.5 18t-20 22t-15 19.5l-158 237q-6 9 -24.5 27.5t-43 36.5t-52 31.5t-52.5 13.5h-422v-147h176q10 0 23 -7t24.5 -17.5t21 -21.5t12.5 -19l159 -239q12 -19 32 -38.5t45.5 -35.5t53.5 -26t57 -10h404zM1044 0v148h-176
q-11 0 -22.5 7.5t-22.5 18t-20.5 22t-15.5 19.5l-157 237q-6 9 -24.5 27.5t-43.5 36.5t-52.5 31.5t-52.5 13.5h-421v-147h175q11 0 23.5 -7t24.5 -17.5t21 -21.5t13 -19l158 -239q12 -19 32.5 -38.5t46 -35.5t53.5 -26t57 -10h404z" />
    <glyph glyph-name="FL017Eh" horiz-adv-x="1080" 
d="M1044 0v148h-176q-11 0 -22.5 7.5t-22.5 18t-20.5 22t-15.5 19.5l-157 237q-6 10 -24 28t-42.5 36t-52.5 31.5t-54 13.5h-421v-147h175q11 0 23.5 -7t24.5 -17.5t21 -21.5t13 -19l158 -239q12 -19 32.5 -38.5t46 -35.5t53.5 -26t57 -10h404zM482 792h-202l152 -166h212
l152 166h-203l-55 -64z" />
    <glyph glyph-name="FL017Eh" unicode="&#x17e;" horiz-adv-x="1080" 
d="M1044 0v148h-176q-11 0 -22.5 7.5t-22.5 18t-20.5 22t-15.5 19.5l-157 237q-6 10 -24 28t-42.5 36t-52.5 31.5t-54 13.5h-421v-147h175q11 0 23.5 -7t24.5 -17.5t21 -21.5t13 -19l158 -239q12 -19 32.5 -38.5t46 -35.5t53.5 -26t57 -10h404zM482 792h-202l152 -166h212
l152 166h-203l-55 -64z" />
    <glyph glyph-name="FL00A1h" unicode="&#xa1;" horiz-adv-x="408" 
d="M372 0h-336v246l28 88h282l26 -88v-246zM346 469q0 -20 -11.5 -36.5t-31 -29t-45 -19.5t-54.5 -7t-54.5 7t-44.5 19.5t-30 29t-11 36.5q0 19 11 36t30 29.5t44.5 19.5t54.5 7t54.5 -7t45 -19.5t31 -29.5t11.5 -36z" />
    <glyph glyph-name="FL00A2h" unicode="&#xa2;" horiz-adv-x="922" 
d="M886 176h-488q-6 0 -9 3t-5 7t-4 7.5t-7 4.5v170q0 8 6.5 14t17.5 6h487v147h-226v96h-269v-96h-189q-34 0 -63.5 -11.5t-52 -31t-35.5 -44t-13 -50.5v-228q0 -24 13.5 -49t36 -45.5t52.5 -33.5t64 -13h189v-89h269v89h226v147z" />
    <glyph glyph-name="FL00A3h" unicode="&#xa3;" horiz-adv-x="860" 
d="M36 351h126q-3 10 -4 20t-1 20q0 27 12 57t35 55t56.5 41.5t77.5 16.5h263v-147h-73q-23 0 -32.5 -10t-9.5 -24q0 -17 9 -23.5t34 -6.5h166v-139h-167q-26 0 -34.5 -7t-8.5 -23q0 -14 9.5 -24t32.5 -10h297v-147h-788v147h121q-1 1 -1 11v12q0 9 1 18.5t3 19.5h-124v143z
" />
    <glyph glyph-name="FL00BDh" unicode="&#xa4;" horiz-adv-x="992" 
d="M18 0h394l82 83l83 -83h394l-280 281l279 280h-394l-82 -82l-81 82h-394l279 -280zM446 369h107q22 0 38 -14t16 -30v-82q0 -14 -16 -26t-35 -12h-113q-18 0 -35 12t-17 26v82q0 16 16 30t39 14z" />
    <glyph glyph-name="FL00A5h" unicode="&#xa5;" horiz-adv-x="901" 
d="M100 289h178q-14 32 -38 51.5t-50 39.5q-15 12 -32.5 18.5t-32.5 9.5t-26 4t-15 1h-48v148h271q33 0 58 -12t44 -28.5t33.5 -33.5t26.5 -27q1 0 10 13t25.5 30t41 33.5t56.5 24.5h263v-148h-122q-11 -4 -32 -15.5t-42 -27t-36.5 -33.5t-15.5 -35v-13h177v-64h-177v-67
h177v-64h-177v-94h-336v94h-181v64h181v67h-181v64z" />
    <glyph glyph-name="FL00B8h" unicode="&#xa6;" horiz-adv-x="408" 
d="M372 685h-336v-803h336v803z" />
    <glyph glyph-name="FL00A7h" unicode="&#xa7;" horiz-adv-x="992" 
d="M18 0h394l558 561h-394zM446 369h107q22 0 38 -14t16 -30v-82q0 -14 -16 -26t-35 -12h-113q-18 0 -35 12t-17 26v82q0 16 16 30t39 14z" />
    <glyph glyph-name="FL00A8h" unicode="&#xa8;" horiz-adv-x="578" 
d="M30 482q0 34 33.5 57.5t84.5 23.5t84 -23.5t33 -57.5q0 -18 -9 -33t-25 -26t-37 -17t-46 -6t-46.5 6t-37.5 17t-25 26t-9 33zM548 482q0 -18 -9 -33t-25 -26t-37 -17t-46 -6t-46.5 6t-37.5 17t-25 26t-9 33q0 17 9 31.5t25 25.5t37.5 17.5t46.5 6.5q51 0 84 -23.5
t33 -57.5z" />
    <glyph glyph-name="copyright" unicode="&#xa9;" horiz-adv-x="326" 
d="M163 629q34 0 65 -14q35 -15 50 -41q18 -26 18 -56q0 -29 -18 -54q-8 -14 -20 -24t-29 -18q-67 -14 -66 -14q-33 0 -66 14q-15 8 -27 18t-22 24q-18 25 -18 54q0 15 5 28.5t13 27.5q17 26 50 41q33 14 65 14zM163 611q-28 0 -54 -11.5t-42 -34.5q-14 -23 -14 -47
q0 -22 14 -45q14 -20 41 -34q27 -12 55 -12t55 12q23 10 41 34q15 22 15 45q0 24 -15 47q-6 10 -16 18.5t-26 15.5q-14 7 -27 9.5t-27 2.5zM206 501l22 -5q-6 -19 -23 -30t-42 -11q-32 0 -50.5 16.5t-18.5 46.5q0 31 19 47t51 16q48 0 60 -35l-20 -4q-12 23 -40 23
q-21 0 -33.5 -12t-12.5 -35q0 -45 44 -45q35 0 44 28z" />
    <glyph glyph-name="FL00AAh" unicode="&#xaa;" horiz-adv-x="508" 
d="M218 547h72q4 0 4 -3v-40h-82v37q3 6 6 6zM294 349h178v215q0 12 -7.5 23.5t-19.5 21t-26.5 15t-29.5 5.5h-271q-15 0 -29.5 -5.5t-26 -14.5t-19 -21t-7.5 -24v-215h176v76h82v-76z" />
    <glyph glyph-name="FL00ABh" unicode="&#xab;" horiz-adv-x="674" 
d="M574 279l80 67l-121 101l-203 -168l203 -169l121 101zM264 279l80 67l-121 101l-203 -168l203 -169l121 101z" />
    <glyph glyph-name="FL00ACh" unicode="&#xac;" horiz-adv-x="474" 
d="M438 351h-402v-143h230v-97h172v240z" />
    <glyph glyph-name="FL00ADh" unicode="&#xad;" horiz-adv-x="426" 
d="M36 351v-143h354v143h-354z" />
    <glyph glyph-name="registered" unicode="&#xae;" horiz-adv-x="326" 
d="M163 629q34 0 65 -14q35 -15 50 -41q18 -26 18 -56q0 -29 -18 -54q-8 -14 -20 -24t-29 -18q-67 -14 -66 -14q-33 0 -66 14q-15 8 -27 18t-22 24q-18 25 -18 54q0 15 5 28.5t13 27.5q17 26 50 41q33 14 65 14zM163 611q-28 0 -54 -11.5t-42 -34.5q-14 -23 -14 -47
q0 -22 14 -45q14 -20 41 -34q27 -12 55 -12t55 12q23 10 41 34q15 22 15 45q0 24 -15 47q-6 10 -16 18.5t-26 15.5q-14 7 -27 9.5t-27 2.5zM106 458v119h48q29 0 37 -4q12 -5 17 -11q7 -9 7 -18q0 -13 -11 -22.5t-30 -10.5q11 -4 17 -10.5t17 -19.5l18 -23h-29l-12 18
q-18 24 -25 28q-5 4 -18 4h-14v-50h-22zM128 524h28q21 0 28 5t7 13q0 12 -13 17q-2 1 -24 1h-26v-36z" />
    <glyph glyph-name="FL00B3h" unicode="&#xaf;" horiz-adv-x="707" 
d="M671 560v-147h-635v147h635z" />
    <glyph glyph-name="FL00B1h" unicode="&#xb0;" horiz-adv-x="295" 
d="M30 480q0 -18 9 -33t25 -26t37.5 -17t46.5 -6t46 6t37 17t25 26t9 33q0 34 -33 57.5t-84 23.5t-84.5 -23.5t-33.5 -57.5zM106 480q0 9 11.5 15t28.5 6t29 -6t12 -15t-12 -15.5t-29 -6.5t-28.5 6.5t-11.5 15.5z" />
    <glyph glyph-name="FL00B2h" unicode="&#xb1;" horiz-adv-x="474" 
d="M323 419v95h-172v-95h-115v-143h115v-97h172v97h115v143h-115zM439 143h-402v-143h402v143z" />
    <glyph glyph-name="FL00B6h" unicode="&#xb2;" horiz-adv-x="497" 
d="M36 349v128q0 12 7.5 21.5t19.5 16t26 10.5t27 4h168v10q0 2 -1 5t-3 3h-243v82h337q18 0 33.5 -6t27.5 -16t19 -23t7 -26v-42q0 -12 -8.5 -24t-21 -21t-27 -15t-26.5 -6h-164v-19h247v-82h-425z" />
    <glyph glyph-name="FL00BCh" unicode="&#xb3;" horiz-adv-x="472" 
d="M247 528h-211v-78h212q15 0 15 -9q0 -10 -15 -10h-212v-82h304q27 0 45.5 8t29.5 21t16 28t5 30q0 14 -4 29t-18 26q11 9 15.5 23t4.5 28t-6 29.5t-18 28t-29.5 21t-40.5 8.5h-304v-82h212q14 0 14 -10q0 -9 -15 -9z" />
    <glyph glyph-name="FL00B4h" unicode="&#xb4;" horiz-adv-x="992" 
d="M412 0h-394l280 281l-279 280h394l81 -82l82 82h394l-279 -280l280 -281h-394l-83 83z" />
    <glyph glyph-name="FL00B5h" unicode="&#xb5;" horiz-adv-x="928" 
d="M372 561h-337v-417q0 -30 9.5 -56.5t27.5 -46t43.5 -30.5t56.5 -11h712v147h-469q-24 2 -33.5 9.5t-9.5 27.5v23h362q27 0 54.5 11t50 28t37 39t14.5 45v231h-336v-187q-3 -5 -7 -14.5t-18 -9.5h-134q-8 0 -14 8t-9 14v189z" />
    <glyph glyph-name="FL007Ah" unicode="&#xb6;" horiz-adv-x="1156" 
d="M1120 148v-148h-468q-29 0 -57 10t-53.5 26t-46 35.5t-32.5 38.5l-156 239q-5 8 -14.5 19t-21 21.5t-23.5 17.5t-22 7h-190v147h436q25 0 51.5 -11.5t50 -28t42 -35.5t27.5 -34l157 -233q5 -7 14.5 -19t20.5 -23.5t23.5 -20t23.5 -8.5h238z" />
    <glyph glyph-name="FL00B7h" unicode="&#xb7;" horiz-adv-x="354" 
d="M35 295q0 19 11.5 36t30.5 29.5t44.5 19.5t54.5 7t54.5 -7t45 -19.5t30.5 -29.5t11 -36q0 -20 -11 -36.5t-30.5 -29t-45 -19.5t-54.5 -7t-54.5 7t-44.5 19.5t-30.5 29t-11.5 36.5z" />
    <glyph glyph-name="FL00BAh" unicode="&#xb8;" horiz-adv-x="234" 
d="M198 -157h-259v115h99v42h160v-157z" />
    <glyph glyph-name="FL00BEh" unicode="&#xb9;" horiz-adv-x="307" 
d="M271 348h-171v198h-64v82h235v-280z" />
    <glyph glyph-name="FL00B0h" unicode="&#xba;" horiz-adv-x="508" 
d="M229 513v-53q0 -6 6 -6h37q5 0 8 6v53q0 2 -2 5t-6 3h-37q-6 -2 -6 -8zM119 629h271q16 0 31 -6.5t26.5 -16.5t18 -22.5t6.5 -25.5v-148q0 -12 -7 -23t-18 -19.5t-25 -13.5t-28 -5h-280q-13 0 -27 5t-25 13.5t-18.5 19.5t-7.5 23v148q0 13 6.5 25.5t18 22.5t26.5 16.5
t32 6.5z" />
    <glyph glyph-name="FL00BBh" unicode="&#xbb;" horiz-adv-x="674" 
d="M101 279l-81 67l122 101l202 -168l-202 -169l-122 101zM410 279l-80 67l121 101l203 -168l-203 -169l-121 101z" />
    <glyph glyph-name="FL0763h" unicode="&#xbc;" horiz-adv-x="1086" 
d="M20 0h341l611 561h-340l-266 -244v244h-235v-82h63v-198h132zM761 119l39 44v-44h-39zM680 252l-150 -157v-57h270v-38h178v38h72v81h-72v161h-247q-7 0 -15 -3.5t-15.5 -8t-13 -9.5t-7.5 -8v1z" />
    <glyph glyph-name="FL0740h" unicode="&#xbd;" horiz-adv-x="1090" 
d="M361 0h-341l306 281h-132v198h-63v82h235v-244l266 244h340l-306 -281h301q18 0 33.5 -6t27.5 -16t19 -23t7 -26v-42q0 -12 -8.5 -24t-21 -21t-27 -15t-26.5 -6h-165v-19h248v-82h-425v128q0 12 7.5 21.5t19.5 16t26 10.5t27 4h168v10q0 2 -1 5t-4 3h-242v49z" />
    <glyph glyph-name="FL077Ch" unicode="&#xbe;" horiz-adv-x="1130" 
d="M247 460q15 0 15 9q0 10 -14 10h-212v82h304q23 0 40.5 -8.5t29.5 -21t18 -28t6 -29.5t-4.5 -28t-15.5 -23q14 -11 18 -26t4 -29q0 -16 -8 -34l249 227h339l-610 -561h-341l312 286q-14 -2 -22.5 -3.5t-14.5 -1.5h-304v82h212q15 0 15 10q0 9 -15 9h-212v78h211zM725 252
v-1q2 3 7.5 8t12.5 9.5t15 8t15 3.5h247v-161h72v-81h-72v-38h-177v38h-270v57zM805 119h40v44z" />
    <glyph glyph-name="FL00BFh" unicode="&#xbf;" horiz-adv-x="922" 
d="M756 347v-41q0 -21 -15 -39t-38 -31t-50 -20.5t-51 -7.5h-230v-31q0 -8 7 -19t18 -11h487v-147h-684q-34 0 -63.5 11.5t-52 31t-35.5 44t-13 50.5v87q0 22 15.5 44.5t39 39.5t51 28t50.5 11h564zM756 469q0 -20 -11.5 -36.5t-31 -29t-45 -19.5t-54.5 -7t-54 7t-44.5 19.5
t-30.5 29t-11 36.5q0 19 11 36t30.5 29.5t44.5 19.5t54 7t54.5 -7t45 -19.5t31 -29.5t11.5 -36z" />
    <glyph glyph-name="FL00C0h" unicode="&#xc0;" 
d="M498 777l47 -53q8 -8 13 -15t5 -17v-11q0 -11 -2.5 -19t-14.5 -18q-28 -20 -58 -20t-48 18l-51 50q-8 8 -13 14.5t-5 17.5q0 15 6 29t20 25t26.5 13.5t27.5 2.5q30 0 47 -17zM371 391v-90h200v90q-4 6 -7.5 14.5t-17.5 8.5h-149q-10 0 -16 -8t-10 -14v-1zM907 0h-336v158
h-200v-158h-335v437q0 24 14 46t36.5 39.5t50.5 28t55 10.5h559q27 0 55 -11t50.5 -28.5t36.5 -40t14 -44.5v-437z" />
    <glyph glyph-name="FL00C1h" unicode="&#xc1;" 
d="M398 724l47 53q17 17 47 17q15 0 27.5 -2.5t26.5 -13.5t20 -25t6 -29q0 -11 -5 -17.5t-13 -14.5l-51 -50q-18 -18 -48 -18t-58 20q-11 10 -14 18t-3 19v11q0 10 5 17t13 15zM371 391v-90h200v90q-4 6 -7.5 14.5t-17.5 8.5h-149q-10 0 -16 -8t-10 -14v-1zM907 0h-336v158
h-200v-158h-335v437q0 24 14 46t36.5 39.5t50.5 28t55 10.5h559q27 0 55 -11t50.5 -28.5t36.5 -40t14 -44.5v-437z" />
    <glyph glyph-name="FL00C2h" unicode="&#xc2;" 
d="M416 626h-202l152 166h212l152 -166h-203l-55 64zM371 391v-90h200v90q-4 6 -7.5 14.5t-17.5 8.5h-149q-10 0 -16 -8t-10 -14v-1zM907 0h-336v158h-200v-158h-335v437q0 24 14 46t36.5 39.5t50.5 28t55 10.5h559q27 0 55 -11t50.5 -28.5t36.5 -40t14 -44.5v-437z" />
    <glyph glyph-name="FL00C3h" unicode="&#xc3;" 
d="M619 626h-133l-56 63l-54 -63h-203l152 166h133l57 -63l54 63h203zM371 391v-90h200v90q-4 6 -7.5 14.5t-17.5 8.5h-149q-10 0 -16 -8t-10 -14v-1zM907 0h-336v158h-200v-158h-335v437q0 24 14 46t36.5 39.5t50.5 28t55 10.5h559q27 0 55 -11t50.5 -28.5t36.5 -40
t14 -44.5v-437z" />
    <glyph glyph-name="FL00C4h" unicode="&#xc4;" 
d="M212 709q0 17 9 31.5t25 25.5t37.5 17.5t46.5 6.5t46.5 -6.5t37.5 -17.5t25 -25.5t9 -31.5q0 -18 -9 -33t-25 -26t-37.5 -17t-46.5 -6t-46.5 6t-37.5 17t-25 26t-9 33zM731 709q0 -18 -9 -33t-25 -26t-37.5 -17t-46.5 -6t-46.5 6t-37 17t-24.5 26t-9 33q0 34 33 57.5
t84 23.5q25 0 46.5 -6.5t37.5 -17.5t25 -25.5t9 -31.5zM371 391v-90h200v90q-4 6 -7.5 14.5t-17.5 8.5h-149q-10 0 -16 -8t-10 -14v-1zM907 0h-336v158h-200v-158h-335v437q0 24 14 46t36.5 39.5t50.5 28t55 10.5h559q27 0 55 -11t50.5 -28.5t36.5 -40t14 -44.5v-437z" />
    <glyph glyph-name="FL00C5h" unicode="&#xc5;" 
d="M431 709q0 -9 12 -15.5t29 -6.5t28.5 6.5t11.5 15.5t-11.5 15t-28.5 6t-29 -6t-12 -15zM355 709q0 17 9 31.5t25 25.5t37.5 17.5t46.5 6.5q51 0 84 -23.5t33 -57.5q0 -18 -9 -33t-25 -26t-37 -17t-46 -6t-46.5 6t-37.5 17t-25 26t-9 33zM371 391v-90h200v90
q-4 6 -7.5 14.5t-17.5 8.5h-149q-10 0 -16 -8t-10 -14v-1zM907 0h-336v158h-200v-158h-335v437q0 24 14 46t36.5 39.5t50.5 28t55 10.5h559q27 0 55 -11t50.5 -28.5t36.5 -40t14 -44.5v-437z" />
    <glyph glyph-name="FL00C6h" unicode="&#xc6;" horiz-adv-x="1650" 
d="M907 0v28q41 -28 91 -28h616v147h-410q-3 0 -12.5 8.5t-13.5 14.5q0 1 -0.5 3t-0.5 4t0.5 4t0.5 3q4 6 13.5 15t12.5 9h410v143h-402q-15 0 -25 10t-10 21q0 8 7.5 20t19.5 12h410v147h-607q-40 0 -73.5 -16.5t-56.5 -42.5q-23 25 -57 42t-69 17h-559q-27 0 -55 -10.5
t-50.5 -28t-36.5 -39.5t-14 -46v-437h335v158h200v-158h336zM371 301v91q4 6 10 14t16 8h149q14 0 17.5 -8.5t7.5 -14.5v-90h-200z" />
    <glyph glyph-name="FL00C7h" unicode="&#xc7;" horiz-adv-x="844" 
d="M564 -157h-259v115h99v42h-212q-27 0 -55 10.5t-50.5 27.5t-36.5 39t-14 46v295q0 26 13 51.5t35.5 46t52 33t63.5 12.5h608v-147h-411q-11 0 -18 -11t-7 -19v-214q1 -10 8 -16.5t17 -6.5h403v-147h-236v-157z" />
    <glyph glyph-name="FL00C8h" unicode="&#xc8;" horiz-adv-x="844" 
d="M200 561h608v-147h-411q-11 0 -18.5 -12t-7.5 -20q0 -11 9.5 -21t25.5 -10h402v-143h-411q-2 0 -11.5 -9t-13.5 -15q0 -1 -0.5 -3t-0.5 -4t0.5 -4t0.5 -3q4 -6 13.5 -14.5t11.5 -8.5h411v-147h-616q-27 0 -55 10.5t-50.5 27.5t-36.5 39t-14 46v295q0 26 13 51.5t35.5 46
t52 33t63.5 12.5zM446 777l47 -53q8 -8 13 -15t5 -17v-11q0 -11 -2.5 -19t-14.5 -18q-28 -20 -57 -20q-30 0 -48 18l-52 50q-8 8 -13 14.5t-5 17.5q0 15 6 29t21 25q14 11 26 13.5t28 2.5q31 0 46 -17z" />
    <glyph glyph-name="FL00C9h" unicode="&#xc9;" horiz-adv-x="844" 
d="M200 561h608v-147h-411q-11 0 -18.5 -12t-7.5 -20q0 -11 9.5 -21t25.5 -10h402v-143h-411q-2 0 -11.5 -9t-13.5 -15q0 -1 -0.5 -3t-0.5 -4t0.5 -4t0.5 -3q4 -6 13.5 -14.5t11.5 -8.5h411v-147h-616q-27 0 -55 10.5t-50.5 27.5t-36.5 39t-14 46v295q0 26 13 51.5t35.5 46
t52 33t63.5 12.5zM389 724l47 53q15 17 46 17q16 0 28 -2.5t26 -13.5q15 -11 21 -25t6 -29q0 -11 -5 -17.5t-13 -14.5l-52 -50q-18 -18 -48 -18q-29 0 -57 20q-12 10 -14.5 18t-2.5 19v11q0 10 5 17t13 15z" />
    <glyph glyph-name="FL00CAh" unicode="&#xca;" horiz-adv-x="844" 
d="M200 561h608v-147h-411q-11 0 -18.5 -12t-7.5 -20q0 -11 9.5 -21t25.5 -10h402v-143h-411q-2 0 -11.5 -9t-13.5 -15q0 -1 -0.5 -3t-0.5 -4t0.5 -4t0.5 -3q4 -6 13.5 -14.5t11.5 -8.5h411v-147h-616q-27 0 -55 10.5t-50.5 27.5t-36.5 39t-14 46v295q0 26 13 51.5t35.5 46
t52 33t63.5 12.5zM371 626h-203l152 166h213l151 -166h-203l-55 64z" />
    <glyph glyph-name="FL00CBh" unicode="&#xcb;" horiz-adv-x="844" 
d="M200 561h608v-147h-411q-11 0 -18.5 -12t-7.5 -20q0 -11 9.5 -21t25.5 -10h402v-143h-411q-2 0 -11.5 -9t-13.5 -15q0 -1 -0.5 -3t-0.5 -4t0.5 -4t0.5 -3q4 -6 13.5 -14.5t11.5 -8.5h411v-147h-616q-27 0 -55 10.5t-50.5 27.5t-36.5 39t-14 46v295q0 26 13 51.5t35.5 46
t52 33t63.5 12.5zM167 709q0 34 33 57.5t84 23.5t84.5 -23.5t33.5 -57.5q0 -18 -9 -33t-25 -26t-37.5 -17t-46.5 -6t-46.5 6t-37 17t-24.5 26t-9 33zM685 709q0 -18 -9 -33t-25 -26t-37 -17t-46 -6t-46.5 6t-37.5 17t-25 26t-9 33q0 34 33.5 57.5t84.5 23.5t84 -23.5
t33 -57.5z" />
    <glyph glyph-name="FL00CCh" unicode="&#xcc;" horiz-adv-x="869" 
d="M460 777l46 -53q8 -8 13 -15t5 -17v-11q0 -11 -2.5 -19t-13.5 -18q-28 -20 -58 -20t-48 18l-52 50q-8 8 -13 14.5t-5 17.5q0 15 6.5 29t20.5 25t26 13.5t28 2.5q30 0 47 -17zM833 0v147h-229v267h228v147h-796v-147h232v-267h-231v-147h796z" />
    <glyph glyph-name="FL00CDh" unicode="&#xcd;" horiz-adv-x="869" 
d="M36 147v-147h796v147h-231v267h232v147h-796v-147h228v-267h-229zM362 724l47 53q17 17 47 17q15 0 27.5 -2.5t26.5 -13.5t20 -25t6 -29q0 -11 -5 -17.5t-13 -14.5l-51 -50q-18 -18 -48 -18t-58 20q-11 10 -14 18t-3 19v11q0 10 5 17t13 15z" />
    <glyph glyph-name="FL00CEh" unicode="&#xce;" horiz-adv-x="869" 
d="M36 147v-147h796v147h-231v267h232v147h-796v-147h228v-267h-229zM374 626h-202l152 166h212l152 -166h-203l-55 64z" />
    <glyph glyph-name="FL00CFh" unicode="&#xcf;" horiz-adv-x="869" 
d="M36 147v-147h796v147h-231v267h232v147h-796v-147h228v-267h-229zM169 709q0 17 9 31.5t25 25.5t37.5 17.5t46.5 6.5q51 0 84 -23.5t33 -57.5q0 -18 -9 -33t-25 -26t-37 -17t-46 -6t-46.5 6t-37.5 17t-25 26t-9 33zM688 709q0 -18 -9 -33t-25 -26t-37.5 -17t-46.5 -6
t-46.5 6t-37.5 17t-25 26t-9 33q0 17 9 31.5t25 25.5t37.5 17.5t46.5 6.5t46.5 -6.5t37.5 -17.5t25 -25.5t9 -31.5z" />
    <glyph glyph-name="FL00D0h" unicode="&#xd0;" horiz-adv-x="1008" 
d="M569 150h-124v58h66v143h-66v52h141q17 0 27 -9t15 -22.5t6.5 -29.5t1.5 -29v-68q0 -15 -1 -32t-7.5 -31t-20 -23t-38.5 -9zM109 351h-73v-143h73v-208h747q21 0 41.5 10.5t37 26.5t27 35.5t10.5 37.5v321q0 20 -11.5 43t-30 42.5t-42.5 32t-48 12.5h-731v-210z" />
    <glyph glyph-name="FL00D1h" unicode="&#xd1;" 
d="M571 391v-391h336v438q0 22 -14.5 44.5t-37 39.5t-50 28t-54.5 11h-715v-561h335v414h175q14 0 17.5 -8.5t7.5 -14.5zM772 792h-203l-54 -63l-57 63h-133l-152 -166h203l54 63l56 -63h133z" />
    <glyph glyph-name="FL00D2h" unicode="&#xd2;" 
d="M200 561h543q34 0 63.5 -12.5t52 -33t35.5 -46t13 -51.5v-295q0 -24 -14 -46t-36.5 -39t-50.5 -27.5t-55 -10.5h-559q-27 0 -55 10.5t-50.5 27.5t-36.5 39t-14 46v295q0 26 13 51.5t35.5 46t52 33t63.5 12.5zM371 382v-212q1 -5 6 -14t20 -9h149q8 0 15.5 8.5t10.5 14.5
v212q0 8 -6 20t-20 12h-151q-12 -2 -18 -13t-6 -19zM498 777l47 -53q8 -8 13 -15t5 -17v-11q0 -11 -2.5 -19t-14.5 -18q-28 -20 -58 -20t-48 18l-51 50q-8 8 -13 14.5t-5 17.5q0 15 6 29t20 25t26.5 13.5t27.5 2.5q30 0 47 -17z" />
    <glyph glyph-name="FL00D3h" unicode="&#xd3;" 
d="M200 561h543q34 0 63.5 -12.5t52 -33t35.5 -46t13 -51.5v-295q0 -24 -14 -46t-36.5 -39t-50.5 -27.5t-55 -10.5h-559q-27 0 -55 10.5t-50.5 27.5t-36.5 39t-14 46v295q0 26 13 51.5t35.5 46t52 33t63.5 12.5zM371 382v-212q1 -5 6 -14t20 -9h149q8 0 15.5 8.5t10.5 14.5
v212q0 8 -6 20t-20 12h-151q-12 -2 -18 -13t-6 -19zM398 724l47 53q17 17 47 17q15 0 27.5 -2.5t26.5 -13.5t20 -25t6 -29q0 -11 -5 -17.5t-13 -14.5l-51 -50q-18 -18 -48 -18t-58 20q-11 10 -14 18t-3 19v11q0 10 5 17t13 15z" />
    <glyph glyph-name="FL00D4h" unicode="&#xd4;" 
d="M200 561h543q34 0 63.5 -12.5t52 -33t35.5 -46t13 -51.5v-295q0 -24 -14 -46t-36.5 -39t-50.5 -27.5t-55 -10.5h-559q-27 0 -55 10.5t-50.5 27.5t-36.5 39t-14 46v295q0 26 13 51.5t35.5 46t52 33t63.5 12.5zM371 382v-212q1 -5 6 -14t20 -9h149q8 0 15.5 8.5t10.5 14.5
v212q0 8 -6 20t-20 12h-151q-12 -2 -18 -13t-6 -19zM416 626h-202l152 166h212l152 -166h-203l-55 64z" />
    <glyph glyph-name="FL00D5h" unicode="&#xd5;" 
d="M371 170v212q0 8 6 19t18 13h151q14 0 20 -12t6 -20v-212q-3 -6 -10.5 -14.5t-15.5 -8.5h-149q-15 0 -20 9t-6 14zM772 792h-203l-54 -63l-57 63h-133l-152 -166h203l54 63l56 -63h133zM743 561h-543q-34 0 -63.5 -12.5t-52 -33t-35.5 -46t-13 -51.5v-295q0 -24 14 -46
t36.5 -39t50.5 -27.5t55 -10.5h559q27 0 55 10.5t50.5 27.5t36.5 39t14 46v295q0 26 -13 51.5t-35.5 46t-52 33t-63.5 12.5z" />
    <glyph glyph-name="FL00D6h" unicode="&#xd6;" 
d="M200 561h543q34 0 63.5 -12.5t52 -33t35.5 -46t13 -51.5v-295q0 -24 -14 -46t-36.5 -39t-50.5 -27.5t-55 -10.5h-559q-27 0 -55 10.5t-50.5 27.5t-36.5 39t-14 46v295q0 26 13 51.5t35.5 46t52 33t63.5 12.5zM371 382v-212q1 -5 6 -14t20 -9h149q8 0 15.5 8.5t10.5 14.5
v212q0 8 -6 20t-20 12h-151q-12 -2 -18 -13t-6 -19zM212 709q0 17 9 31.5t25 25.5t37.5 17.5t46.5 6.5t46.5 -6.5t37.5 -17.5t25 -25.5t9 -31.5q0 -18 -9 -33t-25 -26t-37.5 -17t-46.5 -6t-46.5 6t-37.5 17t-25 26t-9 33zM731 709q0 -18 -9 -33t-25 -26t-37.5 -17t-46.5 -6
t-46.5 6t-37 17t-24.5 26t-9 33q0 34 33 57.5t84 23.5q25 0 46.5 -6.5t37.5 -17.5t25 -25.5t9 -31.5z" />
    <glyph glyph-name="FL00D7h" unicode="&#xd7;" horiz-adv-x="478" 
d="M361 279l81 67l-122 101l-81 -67l-81 68l-122 -101l82 -68l-82 -69l121 -101l82 69l81 -68l122 101z" />
    <glyph glyph-name="FL00D8h" unicode="&#xd8;" 
d="M743 561q34 0 63.5 -12.5t52 -33t35.5 -46t13 -51.5v-295q0 -24 -14 -46t-36.5 -39t-50.5 -27.5t-55 -10.5h-559q-27 0 -55 10.5t-50.5 27.5t-36.5 39t-14 46v295q0 26 13 51.5t35.5 46t52 33t63.5 12.5h543zM572 264l-148 -117h122q8 0 15.5 8.5t10.5 14.5v94zM514 414
h-119q-12 -2 -18 -13t-6 -19v-86z" />
    <glyph glyph-name="FL00D9h" unicode="&#xd9;" 
d="M545 724l-47 53q-17 17 -47 17q-15 0 -27.5 -2.5t-26.5 -13.5t-20 -25t-6 -29q0 -11 5 -17.5t13 -14.5l51 -50q18 -18 48 -18t58 20q12 10 14.5 18t2.5 19v11q0 10 -5 17t-13 15zM372 170v391h-336v-438q0 -23 14 -45t36.5 -39t50.5 -28t55 -11h715v561h-335v-414h-175
q-14 0 -17.5 8.5t-7.5 14.5z" />
    <glyph glyph-name="FL00DAh" unicode="&#xda;" 
d="M445 777l-47 -53q-8 -8 -13 -15t-5 -17v-11q0 -11 3 -19t14 -18q28 -20 58 -20t48 18l51 50q8 8 13 14.5t5 17.5q0 15 -6 29t-20 25t-26.5 13.5t-27.5 2.5q-30 0 -47 -17zM372 170v391h-336v-438q0 -23 14 -45t36.5 -39t50.5 -28t55 -11h715v561h-335v-414h-175
q-14 0 -17.5 8.5t-7.5 14.5z" />
    <glyph glyph-name="FL00DBh" unicode="&#xdb;" 
d="M214 626h202l56 64l55 -64h203l-152 166h-212zM372 170v391h-336v-438q0 -23 14 -45t36.5 -39t50.5 -28t55 -11h715v561h-335v-414h-175q-14 0 -17.5 8.5t-7.5 14.5z" />
    <glyph glyph-name="FL00DCh" unicode="&#xdc;" 
d="M731 709q0 17 -9 31.5t-25 25.5t-37.5 17.5t-46.5 6.5q-51 0 -84 -23.5t-33 -57.5q0 -18 9 -33t24.5 -26t37 -17t46.5 -6t46.5 6t37.5 17t25 26t9 33zM212 709q0 -18 9 -33t25 -26t37.5 -17t46.5 -6t46.5 6t37.5 17t25 26t9 33q0 17 -9 31.5t-25 25.5t-37.5 17.5
t-46.5 6.5t-46.5 -6.5t-37.5 -17.5t-25 -25.5t-9 -31.5zM372 170v391h-336v-438q0 -23 14 -45t36.5 -39t50.5 -28t55 -11h715v561h-335v-414h-175q-14 0 -17.5 8.5t-7.5 14.5z" />
    <glyph glyph-name="FL00DDh" unicode="&#xdd;" horiz-adv-x="928" 
d="M892 561h-338v-189q-2 -6 -8.5 -14t-13.5 -8h-135q-14 0 -17.5 9.5t-7.5 14.5v187h-336v-231q0 -23 14 -45t36.5 -39t50.5 -28t55 -11h362v-23q0 -20 -9 -27.5t-34 -9.5h-469v-147h713q31 0 56.5 11t43.5 30.5t27.5 46t9.5 56.5v417zM431 777l-47 -53q-8 -8 -13 -15
t-5 -17v-11q0 -11 2.5 -19t14.5 -18q28 -20 57 -20q30 0 48 18l52 50q8 8 13 14.5t5 17.5q0 15 -6 29t-20 25t-26.5 13.5t-27.5 2.5q-30 0 -47 -17z" />
    <glyph glyph-name="FL00DEh" unicode="&#xde;" 
d="M36 561h336v-76h354q51 0 85.5 -20.5t56 -50t30.5 -63.5t9 -61q0 -38 -9.5 -75.5t-30.5 -67t-55.5 -48t-84.5 -18.5h-355v-81h-336v561zM536 338h-164v-110h157q12 0 21 5.5t15 14t9.5 18.5t3.5 18q0 7 -2.5 16t-7.5 17.5t-13 14.5t-19 6z" />
    <glyph glyph-name="FL00DFh" unicode="&#xdf;" horiz-adv-x="870" 
d="M461 350q25 0 34 6.5t9 23.5q0 14 -9.5 24t-32.5 10h-90v-552h-336v699h616q44 0 77.5 -16.5t56.5 -41.5t35 -55t12 -57q0 -28 -11 -58.5t-37 -47.5q29 -21 39 -52t10 -63q0 -28 -9.5 -58t-30.5 -55t-55.5 -41t-85.5 -16h-225v147h35q23 0 32.5 10t9.5 24q0 16 -8.5 23
t-34.5 7h-34v139h33z" />
    <glyph glyph-name="FL00E0h" unicode="&#xe0;" horiz-adv-x="1109" 
d="M20 -1l467 507q4 6 14.5 15t23.5 18t27 15.5t26 6.5h495v-561h-335v335q0 1 -5.5 3t-8.5 4q-7 0 -9 -2t-6 -7l-295 -334h-394zM787 777l47 -53q8 -8 13 -15t5 -17v-11q0 -11 -2.5 -19t-14.5 -18q-28 -20 -57 -20q-30 0 -48 18l-52 50q-8 8 -13 14.5t-5 17.5q0 15 6 29
t20 25t26.5 13.5t27.5 2.5q30 0 47 -17z" />
    <glyph glyph-name="FL00E1h" unicode="&#xe1;" horiz-adv-x="1109" 
d="M20 -1l467 507q4 6 14.5 15t23.5 18t27 15.5t26 6.5h495v-561h-335v335q0 1 -5.5 3t-8.5 4q-7 0 -9 -2t-6 -7l-295 -334h-394zM713 724l47 53q15 17 46 17q16 0 28 -2.5t26 -13.5q15 -11 21 -25t6 -29q0 -11 -5 -17.5t-13 -14.5l-52 -50q-18 -18 -48 -18q-29 0 -57 20
q-12 10 -14.5 18t-2.5 19v11q0 10 5 17t13 15z" />
    <glyph glyph-name="FL00E2h" unicode="&#xe2;" horiz-adv-x="1109" 
d="M20 -1l467 507q4 6 14.5 15t23.5 18t27 15.5t26 6.5h495v-561h-335v335q0 1 -5.5 3t-8.5 4q-7 0 -9 -2t-6 -7l-295 -334h-394zM722 626h-202l152 166h212l152 -166h-203l-55 64z" />
    <glyph glyph-name="FL00E3h" unicode="&#xe3;" horiz-adv-x="1109" 
d="M487 506l-467 -507h394l295 334q4 5 6 7t9 2q3 -2 8.5 -4t5.5 -3v-335h335v561h-495q-12 0 -26 -6.5t-27 -15.5t-23.5 -18t-14.5 -15zM1042 792h-203l-54 -63l-57 63h-133l-152 -166h203l54 63l56 -63h133z" />
    <glyph glyph-name="FL00E4h" unicode="&#xe4;" horiz-adv-x="1109" 
d="M20 -1l467 507q4 6 14.5 15t23.5 18t27 15.5t26 6.5h495v-561h-335v335q0 1 -5.5 3t-8.5 4q-7 0 -9 -2t-6 -7l-295 -334h-394zM535 709q0 17 9 31.5t25 25.5t37.5 17.5t46.5 6.5q51 0 84 -23.5t33 -57.5q0 -18 -9 -33t-25 -26t-37 -17t-46 -6t-46.5 6t-37.5 17t-25 26
t-9 33zM1054 709q0 -18 -9 -33t-25 -26t-37.5 -17t-46.5 -6t-46.5 6t-37.5 17t-25 26t-9 33q0 17 9 31.5t25 25.5t37.5 17.5t46.5 6.5t46.5 -6.5t37.5 -17.5t25 -25.5t9 -31.5z" />
    <glyph glyph-name="FL00E5h" unicode="&#xe5;" horiz-adv-x="1109" 
d="M487 506l-467 -507h394l295 334q4 5 6 7t9 2q3 -2 8.5 -4t5.5 -3v-335h335v561h-495q-12 0 -26 -6.5t-27 -15.5t-23.5 -18t-14.5 -15zM665 709q0 -18 9 -33t24.5 -26t37 -17t46.5 -6t46.5 6t37.5 17t25 26t9 33q0 34 -33.5 57.5t-84.5 23.5t-84 -23.5t-33 -57.5zM740 709
q0 9 12 15t29 6t29 -6t12 -15t-12 -15.5t-29 -6.5t-29 6.5t-12 15.5z" />
    <glyph glyph-name="FL00E6h" unicode="&#xe6;" horiz-adv-x="1549" 
d="M20 -1l467 507q4 6 14.5 15t23.5 18t27 15.5t26 6.5h935v-147h-410q-12 0 -19.5 -12t-7.5 -20q0 -11 10 -21t25 -10h402v-143h-410q-3 0 -12.5 -9t-12.5 -15q0 -1 -1 -3t-1 -4t1 -4t1 -3q3 -6 12.5 -14.5t12.5 -8.5h410v-147h-775v335q0 1 -5.5 3t-8.5 4q-7 0 -9 -2
t-6 -7l-295 -334h-394z" />
    <glyph glyph-name="FL00E7h" unicode="&#xe7;" horiz-adv-x="844" 
d="M564 -157h-259v115h99v42h-212q-27 0 -55 10.5t-50.5 27.5t-36.5 39t-14 46v295q0 26 13 51.5t35.5 46t52 33t63.5 12.5h608v-147h-411q-11 0 -18 -11t-7 -19v-214q1 -10 8 -16.5t17 -6.5h403v-147h-236v-157z" />
    <glyph glyph-name="FL00E8h" unicode="&#xe8;" horiz-adv-x="844" 
d="M200 561h608v-147h-411q-11 0 -18.5 -12t-7.5 -20q0 -11 9.5 -21t25.5 -10h402v-143h-411q-2 0 -11.5 -9t-13.5 -15q0 -1 -0.5 -3t-0.5 -4t0.5 -4t0.5 -3q4 -6 13.5 -14.5t11.5 -8.5h411v-147h-616q-27 0 -55 10.5t-50.5 27.5t-36.5 39t-14 46v295q0 26 13 51.5t35.5 46
t52 33t63.5 12.5zM446 777l47 -53q8 -8 13 -15t5 -17v-11q0 -11 -2.5 -19t-14.5 -18q-28 -20 -57 -20q-30 0 -48 18l-52 50q-8 8 -13 14.5t-5 17.5q0 15 6 29t21 25q14 11 26 13.5t28 2.5q31 0 46 -17z" />
    <glyph glyph-name="FL00E9h" unicode="&#xe9;" horiz-adv-x="844" 
d="M200 561h608v-147h-411q-11 0 -18.5 -12t-7.5 -20q0 -11 9.5 -21t25.5 -10h402v-143h-411q-2 0 -11.5 -9t-13.5 -15q0 -1 -0.5 -3t-0.5 -4t0.5 -4t0.5 -3q4 -6 13.5 -14.5t11.5 -8.5h411v-147h-616q-27 0 -55 10.5t-50.5 27.5t-36.5 39t-14 46v295q0 26 13 51.5t35.5 46
t52 33t63.5 12.5zM389 724l47 53q15 17 46 17q16 0 28 -2.5t26 -13.5q15 -11 21 -25t6 -29q0 -11 -5 -17.5t-13 -14.5l-52 -50q-18 -18 -48 -18q-29 0 -57 20q-12 10 -14.5 18t-2.5 19v11q0 10 5 17t13 15z" />
    <glyph glyph-name="FL00EAh" unicode="&#xea;" horiz-adv-x="844" 
d="M200 561h608v-147h-411q-11 0 -18.5 -12t-7.5 -20q0 -11 9.5 -21t25.5 -10h402v-143h-411q-2 0 -11.5 -9t-13.5 -15q0 -1 -0.5 -3t-0.5 -4t0.5 -4t0.5 -3q4 -6 13.5 -14.5t11.5 -8.5h411v-147h-616q-27 0 -55 10.5t-50.5 27.5t-36.5 39t-14 46v295q0 26 13 51.5t35.5 46
t52 33t63.5 12.5zM371 626h-203l152 166h213l151 -166h-203l-55 64z" />
    <glyph glyph-name="FL00EBh" unicode="&#xeb;" horiz-adv-x="844" 
d="M200 561h608v-147h-411q-11 0 -18.5 -12t-7.5 -20q0 -11 9.5 -21t25.5 -10h402v-143h-411q-2 0 -11.5 -9t-13.5 -15q0 -1 -0.5 -3t-0.5 -4t0.5 -4t0.5 -3q4 -6 13.5 -14.5t11.5 -8.5h411v-147h-616q-27 0 -55 10.5t-50.5 27.5t-36.5 39t-14 46v295q0 26 13 51.5t35.5 46
t52 33t63.5 12.5zM167 709q0 34 33 57.5t84 23.5t84.5 -23.5t33.5 -57.5q0 -18 -9 -33t-25 -26t-37.5 -17t-46.5 -6t-46.5 6t-37 17t-24.5 26t-9 33zM685 709q0 -18 -9 -33t-25 -26t-37 -17t-46 -6t-46.5 6t-37.5 17t-25 26t-9 33q0 34 33.5 57.5t84.5 23.5t84 -23.5
t33 -57.5z" />
    <glyph glyph-name="FL00ECh" unicode="&#xec;" horiz-adv-x="408" 
d="M232 777l46 -53q8 -8 13 -15t5 -17v-11q0 -11 -2.5 -19t-13.5 -18q-28 -20 -58 -20t-48 18l-52 50q-8 8 -13 14.5t-5 17.5q0 15 6.5 29t20.5 25t26 13.5t28 2.5q30 0 47 -17zM36 561h336v-561h-336v561z" />
    <glyph glyph-name="FL00EDh" unicode="&#xed;" horiz-adv-x="408" 
d="M36 561h336v-561h-336v561zM130 724l46 53q17 17 47 17q16 0 28 -2.5t26 -13.5t20.5 -25t6.5 -29q0 -11 -5 -17.5t-13 -14.5l-52 -50q-18 -18 -48 -18t-58 20q-11 10 -13.5 18t-2.5 19v11q0 10 5 17t13 15z" />
    <glyph glyph-name="FL00EEh" unicode="&#xee;" horiz-adv-x="408" 
d="M36 561h336v-561h-336v561zM146 626h-202l152 166h212l152 -166h-203l-55 64z" />
    <glyph glyph-name="FL00EFh" unicode="&#xef;" horiz-adv-x="408" 
d="M36 561h336v-561h-336v561zM-54 709q0 34 33.5 57.5t84.5 23.5t84 -23.5t33 -57.5q0 -18 -9 -33t-25 -26t-37 -17t-46 -6t-46.5 6t-37.5 17t-25 26t-9 33zM464 709q0 -18 -9 -33t-25 -26t-37 -17t-46 -6t-46.5 6t-37.5 17t-25 26t-9 33q0 17 9 31.5t25 25.5t37.5 17.5
t46.5 6.5q51 0 84 -23.5t33 -57.5z" />
    <glyph glyph-name="FL0047h" unicode="&#xf0;" 
d="M546 147h-149q-10 0 -16 8.5t-10 14.5v41h200v-41q-4 -6 -7.5 -14.5t-17.5 -8.5zM36 253v-130q0 -24 14 -46t36.5 -39t50.5 -27.5t55 -10.5h559q27 0 54.5 11t50 28t37 39t14.5 45v295q0 26 -13 51.5t-35.5 46t-52.5 33t-63 12.5h-703v-147h506q12 0 18.5 -11t6.5 -19
l3 -2h-3v-23h-379q-24 0 -51.5 -8.5t-51 -23t-38.5 -34t-15 -40.5z" />
    <glyph glyph-name="FL00F1h" unicode="&#xf1;" horiz-adv-x="1138" 
d="M1102 561h-338v-286l-142 185q-10 13 -27 30.5t-37 33t-42 26.5t-42 11h-438v-561h336v279l154 -175q14 -17 31.5 -35.5t38.5 -33.5t45.5 -25t52.5 -10h408v561zM883 792h-203l-54 -63l-56 63h-133l-153 -166h203l54 63l57 -63h133z" />
    <glyph glyph-name="FL00F2h" unicode="&#xf2;" 
d="M200 561h543q34 0 63.5 -12.5t52 -33t35.5 -46t13 -51.5v-295q0 -24 -14 -46t-36.5 -39t-50.5 -27.5t-55 -10.5h-559q-27 0 -55 10.5t-50.5 27.5t-36.5 39t-14 46v295q0 26 13 51.5t35.5 46t52 33t63.5 12.5zM371 382v-212q1 -5 6 -14t20 -9h149q8 0 15.5 8.5t10.5 14.5
v212q0 8 -6 20t-20 12h-151q-12 -2 -18 -13t-6 -19zM498 777l47 -53q8 -8 13 -15t5 -17v-11q0 -11 -2.5 -19t-14.5 -18q-28 -20 -58 -20t-48 18l-51 50q-8 8 -13 14.5t-5 17.5q0 15 6 29t20 25t26.5 13.5t27.5 2.5q30 0 47 -17z" />
    <glyph glyph-name="FL00F3h" unicode="&#xf3;" 
d="M200 561h543q34 0 63.5 -12.5t52 -33t35.5 -46t13 -51.5v-295q0 -24 -14 -46t-36.5 -39t-50.5 -27.5t-55 -10.5h-559q-27 0 -55 10.5t-50.5 27.5t-36.5 39t-14 46v295q0 26 13 51.5t35.5 46t52 33t63.5 12.5zM371 382v-212q1 -5 6 -14t20 -9h149q8 0 15.5 8.5t10.5 14.5
v212q0 8 -6 20t-20 12h-151q-12 -2 -18 -13t-6 -19zM398 724l47 53q17 17 47 17q15 0 27.5 -2.5t26.5 -13.5t20 -25t6 -29q0 -11 -5 -17.5t-13 -14.5l-51 -50q-18 -18 -48 -18t-58 20q-11 10 -14 18t-3 19v11q0 10 5 17t13 15z" />
    <glyph glyph-name="FL00F4h" unicode="&#xf4;" 
d="M200 561h543q34 0 63.5 -12.5t52 -33t35.5 -46t13 -51.5v-295q0 -24 -14 -46t-36.5 -39t-50.5 -27.5t-55 -10.5h-559q-27 0 -55 10.5t-50.5 27.5t-36.5 39t-14 46v295q0 26 13 51.5t35.5 46t52 33t63.5 12.5zM371 382v-212q1 -5 6 -14t20 -9h149q8 0 15.5 8.5t10.5 14.5
v212q0 8 -6 20t-20 12h-151q-12 -2 -18 -13t-6 -19zM416 626h-202l152 166h212l152 -166h-203l-55 64z" />
    <glyph glyph-name="FL00F5h" unicode="&#xf5;" 
d="M371 170v212q0 8 6 19t18 13h151q14 0 20 -12t6 -20v-212q-3 -6 -10.5 -14.5t-15.5 -8.5h-149q-15 0 -20 9t-6 14zM772 792h-203l-54 -63l-57 63h-133l-152 -166h203l54 63l56 -63h133zM743 561h-543q-34 0 -63.5 -12.5t-52 -33t-35.5 -46t-13 -51.5v-295q0 -24 14 -46
t36.5 -39t50.5 -27.5t55 -10.5h559q27 0 55 10.5t50.5 27.5t36.5 39t14 46v295q0 26 -13 51.5t-35.5 46t-52 33t-63.5 12.5z" />
    <glyph glyph-name="FL00F6h" unicode="&#xf6;" 
d="M200 561h543q34 0 63.5 -12.5t52 -33t35.5 -46t13 -51.5v-295q0 -24 -14 -46t-36.5 -39t-50.5 -27.5t-55 -10.5h-559q-27 0 -55 10.5t-50.5 27.5t-36.5 39t-14 46v295q0 26 13 51.5t35.5 46t52 33t63.5 12.5zM371 382v-212q1 -5 6 -14t20 -9h149q8 0 15.5 8.5t10.5 14.5
v212q0 8 -6 20t-20 12h-151q-12 -2 -18 -13t-6 -19zM212 709q0 17 9 31.5t25 25.5t37.5 17.5t46.5 6.5t46.5 -6.5t37.5 -17.5t25 -25.5t9 -31.5q0 -18 -9 -33t-25 -26t-37.5 -17t-46.5 -6t-46.5 6t-37.5 17t-25 26t-9 33zM731 709q0 -18 -9 -33t-25 -26t-37.5 -17t-46.5 -6
t-46.5 6t-37 17t-24.5 26t-9 33q0 34 33 57.5t84 23.5q25 0 46.5 -6.5t37.5 -17.5t25 -25.5t9 -31.5z" />
    <glyph glyph-name="FL00F7h" unicode="&#xf7;" horiz-adv-x="548" 
d="M36 208v143h476v-143h-476zM182 463q0 31 27.5 52t67.5 21t67.5 -21t27.5 -52t-27.5 -52.5t-67.5 -21.5t-67.5 21.5t-27.5 52.5zM182 103q0 31 27.5 52t67.5 21t67.5 -21t27.5 -52t-27.5 -52.5t-67.5 -21.5t-67.5 21.5t-27.5 52.5z" />
    <glyph glyph-name="FL00F8h" unicode="&#xf8;" 
d="M743 561q34 0 63.5 -12.5t52 -33t35.5 -46t13 -51.5v-295q0 -24 -14 -46t-36.5 -39t-50.5 -27.5t-55 -10.5h-559q-27 0 -55 10.5t-50.5 27.5t-36.5 39t-14 46v295q0 26 13 51.5t35.5 46t52 33t63.5 12.5h543zM572 264l-148 -117h122q8 0 15.5 8.5t10.5 14.5v94zM514 414
h-119q-12 -2 -18 -13t-6 -19v-86z" />
    <glyph glyph-name="FL00F9h" unicode="&#xf9;" 
d="M498 777l47 -53q8 -8 13 -15t5 -17v-11q0 -11 -2.5 -19t-14.5 -18q-28 -20 -58 -20t-48 18l-51 50q-8 8 -13 14.5t-5 17.5q0 15 6 29t20 25t26.5 13.5t27.5 2.5q30 0 47 -17zM571 170v391h336v-438q0 -23 -14.5 -45t-37 -39t-50 -28t-54.5 -11h-559q-27 0 -55 10.5
t-50.5 27.5t-36.5 39t-14 46v438h335v-391q4 -6 10 -14.5t16 -8.5h149q14 0 17.5 8.5t7.5 14.5z" />
    <glyph glyph-name="FL00FAh" unicode="&#xfa;" 
d="M372 561v-391q4 -6 7.5 -14.5t17.5 -8.5h149q10 0 16.5 8.5t9.5 14.5v391h335v-438q0 -24 -14 -46t-36.5 -39t-50.5 -27.5t-55 -10.5h-559q-27 0 -55 11t-50.5 28t-36.5 39t-14 45v438h336zM398 724l47 53q17 17 47 17q15 0 27.5 -2.5t26.5 -13.5t20 -25t6 -29
q0 -11 -5 -17.5t-13 -14.5l-51 -50q-18 -18 -48 -18t-58 20q-11 10 -14 18t-3 19v11q0 10 5 17t13 15z" />
    <glyph glyph-name="FL00FBh" unicode="&#xfb;" 
d="M372 561v-391q4 -6 7.5 -14.5t17.5 -8.5h149q10 0 16.5 8.5t9.5 14.5v391h335v-438q0 -24 -14 -46t-36.5 -39t-50.5 -27.5t-55 -10.5h-559q-27 0 -55 11t-50.5 28t-36.5 39t-14 45v438h336zM416 626h-202l152 166h212l152 -166h-203l-55 64z" />
    <glyph glyph-name="FL00FCh" unicode="&#xfc;" 
d="M372 561v-391q4 -6 7.5 -14.5t17.5 -8.5h149q10 0 16.5 8.5t9.5 14.5v391h335v-438q0 -24 -14 -46t-36.5 -39t-50.5 -27.5t-55 -10.5h-559q-27 0 -55 11t-50.5 28t-36.5 39t-14 45v438h336zM212 709q0 17 9 31.5t25 25.5t37.5 17.5t46.5 6.5t46.5 -6.5t37.5 -17.5
t25 -25.5t9 -31.5q0 -18 -9 -33t-25 -26t-37.5 -17t-46.5 -6t-46.5 6t-37.5 17t-25 26t-9 33zM731 709q0 -18 -9 -33t-25 -26t-37.5 -17t-46.5 -6t-46.5 6t-37 17t-24.5 26t-9 33q0 34 33 57.5t84 23.5q25 0 46.5 -6.5t37.5 -17.5t25 -25.5t9 -31.5z" />
    <glyph glyph-name="FL00FDh" unicode="&#xfd;" horiz-adv-x="901" 
d="M865 561v-148h-122q-11 -4 -32 -15.5t-42 -27t-36.5 -33.5t-15.5 -35v-302h-336v284q-12 34 -37.5 54.5t-53.5 41.5q-15 12 -32.5 18.5t-32.5 9.5t-26 4t-15 1h-48v148h271q33 0 58 -12t44 -28.5t33.5 -33.5t26.5 -27q1 0 10 13t25.5 30t41 33.5t56.5 24.5h263zM395 724
l47 53q15 17 46 17q16 0 28 -2.5t26 -13.5q15 -11 21 -25t6 -29q0 -11 -5 -17.5t-13 -14.5l-52 -50q-18 -18 -48 -18q-29 0 -57 20q-12 10 -14.5 18t-2.5 19v11q0 10 5 17t13 15z" />
    <glyph glyph-name="FL00FEh" unicode="&#xfe;" 
d="M36 561h336v-76h354q51 0 85.5 -20.5t56 -50t30.5 -63.5t9 -61q0 -38 -9.5 -75.5t-30.5 -67t-55.5 -48t-84.5 -18.5h-355v-81h-336v561zM536 338h-164v-110h157q12 0 21 5.5t15 14t9.5 18.5t3.5 18q0 7 -2.5 16t-7.5 17.5t-13 14.5t-19 6z" />
    <glyph glyph-name="FL00FFh" unicode="&#xff;" horiz-adv-x="901" 
d="M865 561v-148h-122q-11 -4 -32 -15.5t-42 -27t-36.5 -33.5t-15.5 -35v-302h-336v284q-12 34 -37.5 54.5t-53.5 41.5q-15 12 -32.5 18.5t-32.5 9.5t-26 4t-15 1h-48v148h271q33 0 58 -12t44 -28.5t33.5 -33.5t26.5 -27q1 0 10 13t25.5 30t41 33.5t56.5 24.5h263zM186 709
q0 34 33.5 57.5t84.5 23.5t84 -23.5t33 -57.5q0 -18 -9 -33t-25 -26t-37 -17t-46 -6t-46.5 6t-37.5 17t-25 26t-9 33zM704 709q0 -18 -9 -33t-25 -26t-37 -17t-46 -6t-46.5 6t-37.5 17t-25 26t-9 33q0 17 9 31.5t25 25.5t37.5 17.5t46.5 6.5q51 0 84 -23.5t33 -57.5z" />
    <glyph glyph-name="FL0152h" unicode="&#x152;" horiz-adv-x="1453" 
d="M1417 561v-147h-410q-12 0 -19.5 -12t-7.5 -20q0 -11 10 -21t25 -10h402v-143h-410q-3 0 -12.5 -9t-12.5 -15q0 -1 -1 -3t-1 -4t1 -4t1 -3q3 -6 12.5 -14.5t12.5 -8.5h410v-147h-1225q-27 0 -55 10.5t-50.5 27.5t-36.5 39t-14 46v295q0 26 13 51.5t35.5 46t52 33
t63.5 12.5h1217zM646 414h-249q-11 0 -18 -11t-7 -19v-214q1 -10 8 -16.5t17 -6.5h249v267z" />
    <glyph glyph-name="FL0153h" unicode="&#x153;" horiz-adv-x="1453" 
d="M1417 561v-147h-410q-12 0 -19.5 -12t-7.5 -20q0 -11 10 -21t25 -10h402v-143h-410q-3 0 -12.5 -9t-12.5 -15q0 -1 -1 -3t-1 -4t1 -4t1 -3q3 -6 12.5 -14.5t12.5 -8.5h410v-147h-1225q-27 0 -55 10.5t-50.5 27.5t-36.5 39t-14 46v295q0 26 13 51.5t35.5 46t52 33
t63.5 12.5h1217zM646 414h-249q-11 0 -18 -11t-7 -19v-214q1 -10 8 -16.5t17 -6.5h249v267z" />
    <glyph glyph-name="FL0160h" unicode="&#x160;" horiz-adv-x="922" 
d="M886 255v-114q0 -24 -13.5 -49t-36 -45.5t-52.5 -33.5t-64 -13h-684v147h487q12 0 18.5 11t6.5 19v33h-356q-23 0 -50.5 11.5t-51 29.5t-39 40.5t-15.5 45.5v87q0 26 13 50.5t35.5 44t52 31t63.5 11.5h684v-147h-487q-11 0 -18 -11t-7 -19v-31h360q24 0 51 -7.5t50 -20.5
t38 -31t15 -39zM518 792h203l-152 -166h-213l-151 166h203l55 -64z" />
    <glyph glyph-name="FL0161h" unicode="&#x161;" horiz-adv-x="1080" 
d="M36 0v148h176q10 0 22 7.5t23 18t20.5 22t15.5 19.5l157 237q6 10 24 28t42.5 36t52.5 31.5t54 13.5h421v-147h-175q-11 0 -23.5 -7t-24.5 -17.5t-21 -21.5t-13 -19l-158 -239q-13 -19 -33.5 -38.5t-45 -35.5t-53 -26t-57.5 -10h-404zM598 792h202l-152 -166h-212
l-152 166h203l55 -64z" />
    <glyph glyph-name="FL0178h" unicode="&#x178;" horiz-adv-x="928" 
d="M554 561h338v-417q0 -30 -9.5 -56.5t-27.5 -46t-43.5 -30.5t-56.5 -11h-713v147h469q25 2 34 9.5t9 27.5v23h-362q-27 0 -55 11t-50.5 28t-36.5 39t-14 45v231h336v-187q4 -5 7.5 -14.5t17.5 -9.5h135q7 0 13.5 8t8.5 14v189zM202 709q0 34 33 57.5t84 23.5
q25 0 46.5 -6.5t37.5 -17.5t25 -25.5t9 -31.5q0 -18 -9 -33t-25 -26t-37.5 -17t-46.5 -6t-46.5 6t-37 17t-24.5 26t-9 33zM720 709q0 -18 -9 -33t-25 -26t-37.5 -17t-46.5 -6t-46.5 6t-37 17t-24.5 26t-9 33q0 34 33 57.5t84 23.5t84.5 -23.5t33.5 -57.5z" />
    <glyph glyph-name="FL00AFh" unicode="&#x192;" 
d="M907 308q0 -21 -15 -40.5t-38.5 -34t-51 -23t-51.5 -8.5h-379v-23h-2l2 -2q0 -8 7 -19t18 -11h507v-147h-704q-34 0 -63.5 12.5t-52 33t-35.5 46t-13 51.5v295q0 22 14 44.5t36.5 39.5t50.5 28t55 11h559q27 0 55 -10.5t50.5 -27.5t36.5 -39t14 -46v-130zM397 414
q-14 0 -17.5 -8.5t-7.5 -14.5v-41h200v41q-3 6 -9.5 14.5t-16.5 8.5h-149z" />
    <glyph glyph-name="FL02C6h" unicode="&#x2c6;" horiz-adv-x="557" 
d="M223 394h-203l153 166h212l151 -166h-202l-56 64z" />
    <glyph glyph-name="FL02DCh" unicode="&#x2dc;" horiz-adv-x="640" 
d="M619 561h-203l-54 -63l-56 63h-133l-153 -166h203l54 63l57 -63h133z" />
    <glyph glyph-name="FL2013h" unicode="&#x2013;" horiz-adv-x="474" 
d="M36 351v-143h402v143h-402z" />
    <glyph glyph-name="FL2014h" unicode="&#x2014;" horiz-adv-x="548" 
d="M36 351v-143h476v143h-476z" />
    <glyph glyph-name="FL2018h" unicode="&#x2018;" horiz-adv-x="335" 
d="M36 369v101q0 19 10.5 35.5t28.5 29t42 19.5t51 7t51 -7t41.5 -19.5t28 -29t10.5 -35.5v-101q0 -19 -10.5 -35.5t-28 -29t-41.5 -19.5t-51 -7t-51 7t-42 19.5t-28.5 29t-10.5 35.5z" />
    <glyph glyph-name="FL2019h" unicode="&#x2019;" horiz-adv-x="335" 
d="M36 369v101q0 19 10.5 35.5t28.5 29t42 19.5t51 7t51 -7t41.5 -19.5t28 -29t10.5 -35.5v-101q0 -19 -10.5 -35.5t-28 -29t-41.5 -19.5t-51 -7t-51 7t-42 19.5t-28.5 29t-10.5 35.5z" />
    <glyph glyph-name="FL201Ah" unicode="&#x201a;" horiz-adv-x="354" 
d="M36 -11v103q0 19 11.5 36t31 29.5t45 19.5t54.5 7q28 0 53.5 -7t45 -19.5t30.5 -29.5t11 -36v-103q0 -20 -11 -36.5t-30.5 -29t-45 -19.5t-53.5 -7q-29 0 -54.5 7t-45 19.5t-31 29t-11.5 36.5z" />
    <glyph glyph-name="FL201Ch" unicode="&#x201c;" horiz-adv-x="605" 
d="M318 369v101q0 19 9.5 35.5t26.5 29t40 19.5t50 7q25 0 48 -7t40 -19.5t27 -29t10 -35.5v-101q0 -19 -10 -35.5t-27 -29t-40 -19.5t-48 -7q-27 0 -50 7t-40 19.5t-26.5 29t-9.5 35.5zM36 368v101q0 19 9.5 35.5t26.5 29t40 19.5t50 7q25 0 48 -7t40 -19.5t27 -29
t10 -35.5v-101q0 -19 -10 -35.5t-27 -29t-40 -19.5t-48 -7q-27 0 -50 7t-40 19.5t-26.5 29t-9.5 35.5z" />
    <glyph glyph-name="FL201Dh" unicode="&#x201d;" horiz-adv-x="605" 
d="M318 369v101q0 19 9.5 35.5t26.5 29t40 19.5t50 7q25 0 48 -7t40 -19.5t27 -29t10 -35.5v-101q0 -19 -10 -35.5t-27 -29t-40 -19.5t-48 -7q-27 0 -50 7t-40 19.5t-26.5 29t-9.5 35.5zM36 368v101q0 19 9.5 35.5t26.5 29t40 19.5t50 7q25 0 48 -7t40 -19.5t27 -29
t10 -35.5v-101q0 -19 -10 -35.5t-27 -29t-40 -19.5t-48 -7q-27 0 -50 7t-40 19.5t-26.5 29t-9.5 35.5z" />
    <glyph glyph-name="FL201Eh" unicode="&#x201e;" horiz-adv-x="670" 
d="M352 -11v103q0 19 11 36t30.5 29.5t45 19.5t54.5 7t54.5 -7t45 -19.5t30.5 -29.5t11 -36v-103q0 -20 -11 -36.5t-30.5 -29t-45 -19.5t-54.5 -7t-54.5 7t-45 19.5t-30.5 29t-11 36.5zM36 -11v103q0 19 11.5 36t31 29.5t45 19.5t54.5 7q28 0 53.5 -7t45 -19.5t30.5 -29.5
t11 -36v-103q0 -20 -11 -36.5t-30.5 -29t-45 -19.5t-53.5 -7q-29 0 -54.5 7t-45 19.5t-31 29t-11.5 36.5z" />
    <glyph glyph-name="FL2020h" unicode="&#x2020;" horiz-adv-x="526" 
d="M431 561v-108h59v-143h-59v-310h-336v310h-59v143h59v108h336z" />
    <glyph glyph-name="FL2021h" unicode="&#x2021;" horiz-adv-x="526" 
d="M431 561v-108h59v-143h-59v-59h59v-143h-59v-108h-336v108h-59v143h59v59h-59v143h59v108h336z" />
    <glyph glyph-name="FL2022h" unicode="&#x2022;" 
d="M743 561q34 0 63.5 -12.5t52 -33t35.5 -46t13 -51.5v-295q0 -24 -14 -46t-36.5 -39t-50.5 -27.5t-55 -10.5h-559q-27 0 -55 10.5t-50.5 27.5t-36.5 39t-14 46v295q0 26 13 51.5t35.5 46t52 33t63.5 12.5h543z" />
    <glyph glyph-name="FL2026h" unicode="&#x2026;" horiz-adv-x="980" 
d="M662 92q0 19 11.5 36t31 29.5t45 19.5t54.5 7t54.5 -7t44.5 -19.5t30 -29.5t11 -36q0 -20 -11 -36.5t-30 -29t-44.5 -19.5t-54.5 -7t-54.5 7t-45 19.5t-31 29t-11.5 36.5zM349 92q0 19 11.5 36t31 29.5t45 19.5t54.5 7t54.5 -7t44.5 -19.5t30 -29.5t11 -36
q0 -20 -11 -36.5t-30 -29t-44.5 -19.5t-54.5 -7t-54.5 7t-45 19.5t-31 29t-11.5 36.5zM36 92q0 19 11.5 36t31 29.5t45 19.5t54.5 7q28 0 53.5 -7t45 -19.5t30.5 -29.5t11 -36q0 -20 -11 -36.5t-30.5 -29t-45 -19.5t-53.5 -7q-29 0 -54.5 7t-45 19.5t-31 29t-11.5 36.5z" />
    <glyph glyph-name="FL2030h" unicode="&#x2030;" horiz-adv-x="1580" 
d="M229 391v53q0 6 6 8h37q4 0 6 -3t2 -5v-53q-3 -6 -8 -6h-37q-6 0 -6 6zM846 111v53q0 6 6 8h37q4 0 5.5 -3t1.5 -5v-53q-2 -6 -7 -6h-37q-6 0 -6 6zM1007 280h-275l306 281h-340l-226 -208v136q0 13 -6.5 25.5t-18 22.5t-26.5 16.5t-31 6.5h-271q-17 0 -32 -6.5
t-26.5 -16.5t-18 -22.5t-6.5 -25.5v-148q0 -12 7.5 -23t18.5 -19.5t25 -13.5t27 -5h277l-305 -280h341l226 207v-146q0 -12 7.5 -23t18.5 -19.5t25 -13.5t27 -5h279q14 0 28 5t25 13.5t18 19.5t7 23v148q0 13 -6.5 25.5t-17.5 22.5t-26 16.5t-31 6.5zM1463 280h-271
q-17 0 -32 -6.5t-26.5 -16.5t-18 -22.5t-6.5 -25.5v-148q0 -12 7.5 -23t18.5 -19.5t25 -13.5t27 -5h279q14 0 28 5t25 13.5t18 19.5t7 23v148q0 13 -6.5 25.5t-17.5 22.5t-26 16.5t-31 6.5zM1302 111v53q0 6 6 8h37q4 0 5.5 -3t1.5 -5v-53q-2 -6 -7 -6h-37q-6 0 -6 6z" />
    <glyph glyph-name="FL2039h" unicode="&#x2039;" horiz-adv-x="365" 
d="M264 279l80 67l-121 101l-203 -168l203 -169l121 101z" />
    <glyph glyph-name="FL203Ah" unicode="&#x203a;" horiz-adv-x="365" 
d="M101 279l-81 67l122 101l202 -168l-202 -169l-122 101z" />
    <glyph glyph-name="FL2122h" unicode="&#x2122;" horiz-adv-x="1876" 
d="M371 414v-110h158q12 0 21 5.5t15 14t9.5 18.5t3.5 18q0 7 -2.5 16t-7.5 17.5t-13 14.5t-19 6h-165zM36 0v561h690q51 0 85.5 -20.5t56 -50t30.5 -63.5t9 -61q0 -38 -9.5 -75.5t-30.5 -67t-55.5 -48t-84.5 -18.5h-356v-157h-335zM832 0v148h176q10 0 22 7.5t23 18t20 22
t15 19.5l158 237q6 9 24.5 27.5t43 36.5t52 31.5t52.5 13.5h422v-147h-176q-11 0 -23.5 -7t-24 -17.5t-21 -21.5t-12.5 -19l-159 -239q-13 -19 -32.5 -38.5t-44 -35.5t-53 -26t-58.5 -10h-404z" />
    <glyph glyph-name="FL017Dh" horiz-adv-x="894" 
d="M867 0v148h-147q-9 0 -18.5 7.5t-18.5 18t-17 22t-13 19.5l-131 237q-5 10 -20 28t-35.5 36t-44 31.5t-44.5 13.5h-351v-147h146q9 0 19.5 -7t20.5 -17.5t17.5 -21.5t10.5 -19l132 -239q10 -19 27 -38.5t38 -35.5t44.5 -26t47.5 -10h337zM399 792h-169l127 -166h177
l126 166h-169l-46 -64z" />
    </font>
</defs>
</svg>
