<?xml version="1.0" standalone="no"?>
<!DOCTYPE svg PUBLIC "-//W3C//DTD SVG 1.1//EN" "http://www.w3.org/Graphics/SVG/1.1/DTD/svg11.dtd" >
<svg xmlns="http://www.w3.org/2000/svg" xmlns:xlink="http://www.w3.org/1999/xlink" version="1.1">
<metadata>
Created by FontForge 20170731 at Fri May 13 14:46:13 2011
 By Aleksey,,,
Copyright (c) 2011 by Pablo Impallari. www.impallari.com. All rights reserved.
</metadata>
<defs>
<font id="DancingScript" horiz-adv-x="592" >
  <font-face 
    font-family="Dancing Script"
    font-weight="400"
    font-stretch="normal"
    units-per-em="1000"
    panose-1="3 8 6 0 4 5 7 0 13 0"
    ascent="800"
    descent="-200"
    x-height="298"
    cap-height="718"
    bbox="-239 -280 1000 920"
    underline-thickness="50"
    underline-position="-150"
    unicode-range="U+0020-FB02"
  />
<missing-glyph horiz-adv-x="278" 
 />
    <glyph glyph-name="uniFB01" unicode="fi" horiz-adv-x="554" 
d="M-68 -192q0 77 44 229t107 304t140.5 265.5t136.5 113.5q34 0 34 -43q0 -82 -82.5 -192.5t-184.5 -182.5q-11 -24 -17 -44q16 -6 23 -25q26 -85 90 -85q60 0 125 65q23 55 50.5 90.5t53.5 35.5q22 0 22 -22q0 -12 -26 -55t-52 -97.5t-26 -95.5q0 -35 11.5 -47.5
t37.5 -12.5q77 0 154 153l9 -10q-28 -84 -82.5 -131t-114.5 -47q-37 0 -57 23.5t-20 60.5q0 44 24 114q-61 -50 -126 -50q-34 0 -69 16q4 -28 4 -64q0 -83 -22 -165.5t-58.5 -135.5t-73.5 -53q-21 0 -38 19.5t-17 68.5zM-6 -184q0 -48 19 -48q29 0 65.5 107t36.5 202
q0 86 -30 111q-91 -263 -91 -372zM143 343q90 83 151 172.5t61 123.5q0 14 -14 14q-37 0 -90 -86.5t-108 -223.5zM464 465q0 20 24 36t49 16q33 0 33 -31q0 -19 -20.5 -36.5t-44.5 -17.5q-41 0 -41 33z" />
    <glyph glyph-name="uniFB02" unicode="fl" horiz-adv-x="548" 
d="M-68 -192q0 77 44 229t107 304t140.5 265.5t136.5 113.5q34 0 34 -43q0 -82 -82.5 -192.5t-184.5 -182.5q-11 -24 -17 -44q19 -6 23 -31q12 -101 92 -101q46 0 102 33q23 103 84.5 238t124 229t91.5 94q14 0 23.5 -25t9.5 -49q0 -75 -82 -228.5t-184 -237.5
q-13 -58 -13 -101q0 -77 44 -77q37 0 75 46.5t68 113.5l16 -8q-86 -184 -188 -184q-80 0 -80 103q0 27 6 60q-56 -31 -111 -31q-38 0 -72 19q2 -32 2 -47q0 -83 -22 -165.5t-58.5 -135.5t-73.5 -53q-21 0 -38 19.5t-17 68.5zM-6 -184q0 -48 19 -48q29 0 65.5 106.5
t36.5 197.5q0 79 -31 112q-90 -263 -90 -368zM143 343q90 83 151 172.5t61 123.5q0 14 -14 14q-37 0 -90 -86.5t-108 -223.5zM403 214q82 83 154 218.5t72 190.5q0 16 -7 16q-14 0 -55.5 -64.5t-89.5 -167.5t-74 -193z" />
    <glyph glyph-name="b_r" unicode="br" horiz-adv-x="742" 
d="M-10 53q0 95 60.5 256t135.5 283t115 122q15 0 23.5 -19.5t8.5 -43.5q0 -47 -31.5 -122.5t-86 -150t-110.5 -108.5q-13 -24 -30.5 -90t-17.5 -121q0 -94 55 -94q29 0 60 23.5t50 60.5q-35 18 -54 53.5t-19 75.5q0 47 24.5 76.5t59.5 29.5q29 0 46 -24t17 -68
q0 -67 -33 -133q7 -2 21 -2q31 0 59 20t46 43.5t38 67t28 65.5t22 64q-10 10 -10 26q0 24 15.5 45t28.5 21q12 0 12 -23q0 -6 -5.5 -20.5t-5.5 -19.5q0 -10 16 -23t35 -25.5t35 -36.5t16 -53q0 -32 -25 -90.5t-25 -78.5q0 -29 30 -29q44 0 96.5 50t73.5 99l13 -10
q-31 -69 -90 -122t-119 -53q-34 0 -53.5 17.5t-19.5 48.5q0 29 27.5 94.5t27.5 92.5q0 10 -3 19t-5.5 14.5t-10.5 13t-10.5 10t-14 10t-12.5 8.5l-18 -56q-6 -19 -21.5 -57t-30.5 -59.5t-36.5 -46.5t-48.5 -36.5t-58 -11.5q-14 0 -29 3q-66 -111 -159 -111q-51 0 -77 33.5
t-26 92.5zM116 309q64 51 123.5 161.5t59.5 154.5q0 8 -4 8q-11 0 -44.5 -48t-73.5 -126.5t-61 -149.5zM184 173q0 -72 48 -104q23 49 23 101q0 34 -9.5 54.5t-23.5 20.5q-15 0 -26.5 -21t-11.5 -51z" />
    <glyph glyph-name="e_e" unicode="ee" horiz-adv-x="668" 
d="M-14 72q0 92 84 190t170 98q62 0 62 -61q0 -73 -78 -129t-170 -65q-4 -17 -4 -36q0 -84 79 -84q51 0 103 36t93 94q19 86 89.5 158.5t145.5 72.5q62 0 62 -61q0 -72 -71 -121.5t-163 -58.5q-4 -17 -4 -36q0 -89 77 -89q61 0 125 53t103 129l12 -9q-40 -90 -113 -146
t-148 -56q-58 0 -89 34.5t-31 86.5v5q-43 -57 -99 -89t-113 -32q-59 0 -90.5 32.5t-31.5 83.5zM59 124q70 25 134.5 75t64.5 107q0 23 -21 23q-47 0 -102 -65.5t-76 -139.5zM393 124q44 16 81.5 35t71.5 54.5t34 75.5q0 26 -23 26q-46 0 -94.5 -58.5t-69.5 -132.5z" />
    <glyph glyph-name="l_l" unicode="ll" horiz-adv-x="473" 
d="M3 73q0 68 39 181.5t90.5 215t104 176t77.5 74.5q14 0 23.5 -25t9.5 -49q0 -75 -82 -228.5t-184 -237.5q-13 -58 -13 -101q0 -77 44 -77q34 0 70 40.5t65 100.5q19 99 74.5 228t115 219t89.5 90q14 0 23.5 -25t9.5 -49q0 -75 -69.5 -208.5t-171.5 -217.5
q-13 -58 -13 -101q0 -77 44 -77q37 0 75.5 47t68.5 113l15 -8q-86 -184 -188 -184q-80 0 -80 103q0 15 1 23q-75 -126 -158 -126q-80 0 -80 103zM90 214q82 83 154 218.5t72 190.5q0 16 -7 16q-14 0 -55.5 -64.5t-89.5 -167.5t-74 -193zM327 214q82 82 141.5 198t59.5 171
q0 16 -7 16q-14 0 -49 -54.5t-77 -147.5t-68 -183z" />
    <glyph glyph-name="o_r" unicode="or" horiz-adv-x="753" 
d="M-12 55q0 54 35 123t93 121.5t114 52.5q32 0 43 -21q2 1 7 1q17 0 25.5 -13.5t8.5 -25.5q0 -9 -19.5 -52.5t-19.5 -73.5q0 -55 59 -55q37 0 85.5 67.5t67.5 137.5q-10 10 -10 24q0 27 15.5 47.5t26.5 20.5q14 0 14 -24q0 -4 -5.5 -19.5t-5.5 -17.5q0 -12 16 -25.5
t35 -25.5t35 -35.5t16 -52.5q0 -33 -25 -91.5t-25 -77.5q0 -30 30 -30q44 0 96.5 50t73.5 99l13 -10q-31 -69 -90 -122t-119 -53q-34 0 -53.5 18t-19.5 47q0 30 27.5 95.5t27.5 91.5q0 10 -3 19.5t-5.5 15t-10.5 13t-11 10t-13.5 9.5t-12.5 9q-27 -81 -75.5 -147.5
t-100.5 -66.5q-61 0 -85 46q-33 -76 -78.5 -121t-96.5 -45q-38 0 -59 24t-21 63zM52 62q0 -23 10 -37t28 -14q34 0 75 44.5t68 109.5q-6 24 -6 57q0 62 19 91q-52 0 -99 -47.5t-71 -105t-24 -98.5z" />
    <glyph glyph-name="t_h" unicode="th" horiz-adv-x="762" 
d="M-4 53q0 85 63 254q-8 1 -21 7t-15 7v18q3 0 18 -4.5t26 -5.5q44 113 91.5 190.5t77.5 77.5q8 0 14.5 -6t6.5 -16q0 -15 -19.5 -52t-55 -99t-58.5 -111q55 -10 97 -10q52 0 129 16q55 150 127 272.5t114 122.5q16 0 24.5 -19.5t8.5 -43.5q0 -74 -66.5 -184t-151.5 -161
q-18 -43 -33.5 -117.5t-15.5 -115.5q0 -16 2 -34q89 259 203 259q38 0 57 -26.5t19 -63.5q0 -33 -21.5 -89t-21.5 -79q0 -38 30 -38q34 0 80 47.5t76 112.5l13 -12q-33 -76 -84.5 -125t-107.5 -49q-33 0 -51 17.5t-18 45.5q0 20 15.5 73t15.5 78q0 48 -38 48
q-33 0 -63.5 -43t-49 -95t-40 -95t-40.5 -43q-18 0 -29.5 31t-11.5 73q0 18 3 41q-39 -69 -95 -111t-115 -42q-89 0 -89 99zM58 71q0 -43 13 -61.5t43 -18.5q51 0 101 45.5t89 125.5q14 68 35 130q-59 -14 -123 -14q-42 0 -103 11q-55 -126 -55 -218zM419 345
q64 52 117.5 144.5t53.5 135.5q0 8 -4 8q-11 0 -40 -36.5t-66.5 -106.5t-60.5 -145z" />
    <glyph glyph-name="v_r" unicode="vr" horiz-adv-x="756" 
d="M10 71q0 19 6 131q1 21 3 29t8.5 13t20.5 5q17 0 21.5 -6.5t4.5 -25.5q0 -21 -4.5 -77.5t-4.5 -83.5q0 -56 23 -56q33 0 80 67.5t85 151.5q4 113 46 113q17 0 26.5 -12.5t9.5 -25.5l-7 -20q-8 -21 -15 -50t-7 -52q0 -56 46 -56q24 0 46 19.5t41 57.5t28 61t23 63
q-10 10 -10 24q0 27 15.5 47.5t26.5 20.5q14 0 14 -24q0 -4 -5.5 -19.5t-5.5 -17.5q0 -12 16 -25.5t35 -25.5t35 -35.5t16 -52.5q0 -33 -25 -91.5t-25 -77.5q0 -30 30 -30q44 0 96.5 50t73.5 99l13 -10q-31 -69 -90 -122t-119 -53q-34 0 -53.5 18t-19.5 47q0 30 27.5 95.5
t27.5 91.5q0 10 -3 19.5t-5.5 15t-10.5 13t-11 10t-13.5 9.5t-12.5 9l-21 -55q-7 -19 -23.5 -53.5t-32 -53t-38.5 -33.5t-49 -15q-33 0 -57.5 19.5t-29.5 49.5q-41 -82 -93.5 -141t-97.5 -59q-55 0 -55 110z" />
    <glyph glyph-name="w_r" unicode="wr" horiz-adv-x="966" 
d="M0 71q0 57 33 142t55 85q8 0 22.5 -6t14.5 -14q-21 -32 -44 -94.5t-23 -106.5q0 -67 35 -67q53 0 150 191q12 60 18.5 75t21.5 15q29 0 29 -22q0 -3 -2 -11q-28 -91 -28 -209q0 -49 22 -49q28 0 76 71t87 154q0 49 6 73.5t13.5 29t22.5 4.5q17 0 26.5 -12.5t9.5 -25.5
q-2 -4 -8 -19.5t-9.5 -25.5t-7 -28.5t-3.5 -37.5q0 -56 50 -56q67 0 133 190q-10 10 -10 24q0 27 15.5 47.5t26.5 20.5q14 0 14 -24q0 -4 -5.5 -19.5t-5.5 -17.5q0 -12 16 -25.5t35 -25.5t35 -35.5t16 -52.5q0 -33 -25 -91.5t-25 -77.5q0 -30 30 -30q44 0 96.5 50t73.5 99
l13 -10q-31 -69 -90 -122t-119 -53q-34 0 -53.5 18t-19.5 47q0 30 27.5 95.5t27.5 91.5q0 10 -3 19.5t-5.5 15t-10.5 12.5l-11 10q-3 3 -13.5 10t-12.5 9q-68 -202 -159 -202q-63 0 -84 68q-44 -82 -97 -144.5t-95 -62.5q-54 0 -54 97q0 36 7 90q-89 -178 -160 -178
q-32 0 -53.5 29.5t-21.5 71.5z" />
    <glyph glyph-name=".notdef" horiz-adv-x="278" 
 />
    <glyph glyph-name=".null" horiz-adv-x="0" 
 />
    <glyph glyph-name="nonmarkingreturn" horiz-adv-x="332" 
 />
    <glyph glyph-name="space" unicode=" " horiz-adv-x="259" 
 />
    <glyph glyph-name="exclam" unicode="!" horiz-adv-x="260" 
d="M-21 17q0 16 19 28.5t39 12.5q26 0 26 -24q0 -15 -16.5 -29.5t-35.5 -14.5q-32 0 -32 27zM40 103q0 47 55 190l39 101l38 94q24 59 40 92l37 70q20 37 36 53.5t29 16.5q8 0 14 -6.5t6 -16.5q0 -40 -117.5 -273.5t-176.5 -320.5z" />
    <glyph glyph-name="quotedbl" unicode="&#x22;" horiz-adv-x="245" 
d="M131 613q0 33 20 70t41 37q10 0 17.5 -8.5t7.5 -19.5q-9 -9 -17 -19.5t-13 -18.5t-11.5 -20.5t-9.5 -18.5l-10 -20q-7 -14 -8 -19q-17 10 -17 37zM251 613q0 33 20 70t41 37q10 0 17.5 -8.5t7.5 -19.5q-9 -9 -17 -19.5t-13 -18.5t-12 -20l-9 -19l-9 -20q-7 -14 -9 -19
q-17 10 -17 37z" />
    <glyph glyph-name="numbersign" unicode="#" horiz-adv-x="668" 
d="M9 155q5 65 216 70q9 46 14 64q-124 -9 -136 -10l-57 -5q5 64 205 69l38 188q22 112 29 144q3 12 5.5 18.5t12.5 14.5t27 12q-3 -13 -13 -68l-27 -144l-31 -164h4q44 0 124 -4l68 335q3 12 5.5 18.5t12.5 14.5t27 12q-3 -13 -13 -70l-28 -146l-32 -166q27 -1 69.5 -4
t74.5 -5t58 -2q-37 -32 -101 -32q-22 0 -58 -0.5t-51 -0.5q-14 -71 -15 -76q175 -10 187 -10q-37 -32 -100 -32q-67 0 -96 -1q-15 -76 -26 -122t-25 -92t-28.5 -70t-33.5 -38.5t-43 -14.5q46 56 111 334h-126l-22 -102q-8 -37 -20 -81.5t-22 -67.5t-24 -44.5t-30.5 -30
t-36.5 -8.5q46 56 110 332q-64 -3 -147 -10zM268 225q46 0 126 -4l16 72q-55 0 -129 -2z" />
    <glyph glyph-name="dollar" unicode="$" horiz-adv-x="531" 
d="M1 95q0 62 40.5 96.5t87.5 34.5q-55 -60 -55 -133q0 -51 31 -81t89 -36q32 108 72 287q-34 20 -51 31.5t-41 33t-34.5 47.5t-10.5 58q0 81 64 143t153 76q0 2 3 14t5 17t7 14t13.5 14.5t21.5 8.5q-7 -35 -12 -65q63 0 88 -27t25 -77q0 -79 -48 -161q-17 4 -26 15.5
t-9 26.5t18.5 71t18.5 79q0 49 -72 49l-59 -312q33 -18 52 -30.5t43 -34t35 -49t11 -62.5q0 -85 -66 -138t-160 -61q-40 -106 -100 -106q22 28 49 106q-79 5 -131 43.5t-52 107.5zM192 458q0 -41 23.5 -67.5t67.5 -51.5l58 288q-65 -14 -107 -64t-42 -105zM245 -24
q68 7 107.5 44t39.5 93q0 74 -88 128q-44 -220 -59 -265z" />
    <glyph glyph-name="percent" unicode="%" horiz-adv-x="698" 
d="M78 -87q67 67 220.5 342t209.5 420q5 15 33 30t51 15q-19 -48 -144 -287.5t-185 -335.5q-57 -91 -101 -137.5t-84 -46.5zM98 455q0 73 42.5 143.5t102.5 70.5q38 0 61 -28.5t23 -75.5q0 -71 -43.5 -144.5t-103.5 -73.5q-40 0 -61 31t-21 77zM153 447q0 -62 33 -62
q34 0 61.5 63.5t27.5 124.5q0 60 -32 60q-40 0 -65 -64t-25 -122zM421 108q0 73 42.5 143.5t102.5 70.5q38 0 61 -28.5t23 -75.5q0 -71 -43.5 -144.5t-103.5 -73.5q-40 0 -61 31t-21 77zM476 101q0 -63 33 -63q34 0 61.5 63.5t27.5 124.5q0 60 -32 60q-40 0 -65 -63.5
t-25 -121.5z" />
    <glyph glyph-name="ampersand" unicode="&#x26;" horiz-adv-x="616" 
d="M-3 95q0 93 76 171t183 88q-76 63 -76 158q0 82 59.5 144.5t147.5 62.5q109 0 109 -106q0 -55 -25.5 -104t-50.5 -49q-22 0 -37 32q82 72 82 137q0 32 -17 51t-51 19q-67 0 -105.5 -59.5t-38.5 -144.5q0 -101 58 -151q-96 -16 -158.5 -92t-62.5 -160q0 -57 31.5 -101
t96.5 -44q104 0 191 97.5t101 219.5q-45 -2 -107 -14l-24 -5q3 70 104 70q33 0 84.5 -8.5t68.5 -8.5q-15 -32 -42 -32q-23 -1 -58 -1q-14 -139 -116 -245.5t-228 -106.5q-88 0 -141.5 52.5t-53.5 129.5z" />
    <glyph glyph-name="quotesingle" unicode="'" horiz-adv-x="125" 
d="M131 613q0 33 20 70t41 37q10 0 17.5 -8.5t7.5 -19.5q-9 -9 -17 -19.5t-13 -18.5t-11.5 -20.5t-9.5 -18.5l-10 -20q-7 -14 -8 -19q-17 10 -17 37z" />
    <glyph glyph-name="parenleft" unicode="(" horiz-adv-x="258" 
d="M57 189q0 91 23.5 177t59 148.5t77.5 110t81 71.5t66 24q-125 -89 -187 -241.5t-62 -316.5q0 -150 47 -228q-6 -14 -20 -21q-37 22 -61 100t-24 176z" />
    <glyph glyph-name="parenright" unicode=")" horiz-adv-x="268" 
d="M-61 -63q112 79 184.5 219t72.5 319q0 147 -71 245q46 -12 84 -89.5t38 -195.5q0 -106 -34.5 -207.5t-82.5 -167.5t-94.5 -106.5t-74.5 -40.5q-12 3 -22 24z" />
    <glyph glyph-name="asterisk" unicode="*" horiz-adv-x="391" 
d="M116 572q19 1 117 5q-48 79 -48 115q0 10 14 26q43 -92 68 -130l10 20l9 22q3 7 9 18.5t9.5 17t9 14.5t10.5 14l11 11q6 5 13 8t14 5q-7 -19 -33 -71t-34 -70q45 3 52 3q60 0 86 -29l-130 -12q3 -5 13.5 -20.5t15 -23.5t11.5 -23t9.5 -31.5t2.5 -36.5q-17 20 -89 128
q-31 -60 -55 -92t-48 -32q12 17 22 34.5t15.5 29t14.5 32.5t16 35h-26q-81 0 -89 33z" />
    <glyph glyph-name="plus" unicode="+" horiz-adv-x="408" 
d="M3 144q16 46 159 49v50q0 63 29 103q8 -69 9 -153q88 -1 160 -9q-40 -29 -103 -29h-57q-3 -149 -49 -166q11 69 11 166q-92 0 -159 -11z" />
    <glyph glyph-name="comma" unicode="," horiz-adv-x="196" 
d="M-10 -51q0 33 20 70t41 37q10 0 17.5 -8.5t7.5 -19.5q-9 -9 -17 -19.5t-13 -18.5t-11.5 -20.5t-9.5 -18.5l-10 -20q-7 -14 -8 -19q-17 10 -17 37z" />
    <glyph glyph-name="hyphen" unicode="-" horiz-adv-x="484" 
d="M36 144q18 49 189 49q81 0 168 -9q-40 -29 -103 -29h-95q-90 0 -159 -11z" />
    <glyph glyph-name="period" unicode="." horiz-adv-x="214" 
d="M8 17q0 16 19 28.5t39 12.5q26 0 26 -24q0 -15 -16.5 -29.5t-35.5 -14.5q-32 0 -32 27z" />
    <glyph glyph-name="slash" unicode="/" horiz-adv-x="330" 
d="M-68 -162q93 93 380 837q5 15 33 30t51 15q-49 -127 -289 -698q-37 -87 -84 -135.5t-91 -48.5z" />
    <glyph glyph-name="zero" unicode="0" horiz-adv-x="630" 
d="M53 174q0 117 44.5 241.5t130.5 214.5t187 90q91 0 144.5 -67t53.5 -179q0 -136 -47.5 -264.5t-134 -212.5t-187.5 -84q-94 0 -142.5 74.5t-48.5 186.5zM137 153q0 -94 32.5 -150t88.5 -56q72 0 138 91.5t103.5 218t37.5 238.5q0 91 -29 144.5t-92 53.5q-64 0 -119.5 -58
t-88.5 -144t-52 -176t-19 -162z" />
    <glyph glyph-name="one" unicode="1" horiz-adv-x="365" 
d="M-46 -46q20 -2 32 -2q44 0 108 11q36 84 89 349.5t55 271.5q-93 -66 -115 -66q-13 0 -19 6t-6 23q33 17 97 68t113 105q9 -8 9 -31q0 -18 -10.5 -57.5t-12.5 -54.5q-61 -414 -152 -607q21 3 40 3q42 0 66.5 -12t30.5 -44q-45 5 -79 5q-33 0 -88.5 -4.5t-81.5 -4.5
q-20 0 -41.5 11t-34.5 30z" />
    <glyph glyph-name="two" unicode="2" horiz-adv-x="559" 
d="M-19 0q0 48 75 48q35 0 105 -14q100 89 184 240.5t84 276.5q0 72 -29 107t-77 35q-64 0 -100.5 -57t-36.5 -145q0 -35 12 -68h-5q-36 9 -53 29t-17 60q0 83 61.5 145.5t154.5 62.5q72 0 116 -52t44 -130q0 -93 -47 -197q-39 -87 -105 -173t-138 -145l28 -6
q134 -31 187 -31q34 0 76 25q-24 -98 -102 -98q-55 0 -192 58q-6 2 -20.5 8.5t-22.5 9.5q-67 -43 -114 -43q-30 0 -49 15t-19 39zM12 -2q0 -11 11 -18t25 -7q29 0 75 31q-51 18 -76 18q-18 0 -26.5 -7.5t-8.5 -16.5z" />
    <glyph glyph-name="three" unicode="3" horiz-adv-x="510" 
d="M6 55q0 42 22 75t59 33q13 0 18 -1q-14 -12 -23 -39t-9 -54q0 -50 29.5 -87t76.5 -37q62 0 112 63.5t50 159.5q0 66 -26.5 117t-84.5 66q71 32 116.5 105t45.5 140q0 50 -26 73.5t-64 23.5q-45 0 -79.5 -29.5t-34.5 -78.5q0 -34 16 -67q-5 -11 -17.5 -19.5t-22.5 -8.5
q-17 0 -27 25t-10 54q0 69 57 110t130 41q64 0 109 -33.5t45 -95.5q0 -69 -52 -140t-123 -90q78 -20 114 -75.5t36 -117.5q0 -98 -80 -176.5t-193 -78.5q-84 0 -124 43.5t-40 98.5z" />
    <glyph glyph-name="four" unicode="4" horiz-adv-x="478" 
d="M-8 221q0 27 18 42q38 45 129.5 131t171.5 170t121 156q11 -4 11 -26q0 -23 -19 -55q-28 -118 -72 -351h42q38 0 60 6q-18 -26 -44.5 -42.5t-45.5 -16.5h-22q-8 -40 -11 -60q-10 -53 -22 -143.5t-12 -118.5q-77 7 -77 47q4 37 28 170q1 8 22 106q-16 0 -44 0.5t-39 0.5
q-118 0 -195 -16zM80 288q36 5 101 5q41 0 101 -2q40 177 63 254q-32 -33 -117.5 -111.5t-120.5 -116.5q-6 -6 -14.5 -15.5t-12.5 -13.5z" />
    <glyph glyph-name="five" unicode="5" horiz-adv-x="483" 
d="M-3 54q0 43 22 76t59 33q13 0 18 -1q-32 -27 -32 -97q0 -51 25 -85.5t77 -34.5q75 0 121.5 71t46.5 158q0 68 -33 112t-101 44q-37 0 -92 -11q6 41 27 121l47 167l30 106q52 -13 106 -13q59 0 155 20q4 -15 4 -27q0 -40 -36 -57.5t-87 -17.5q-28 0 -64 6.5t-45 6.5
t-13 -3.5t-10 -16.5q-12 -28 -30 -90t-32 -117t-14 -56q47 10 87 10q97 0 147.5 -52t50.5 -137q0 -109 -75 -182.5t-190 -73.5q-88 0 -128.5 43t-40.5 98z" />
    <glyph glyph-name="six" unicode="6" horiz-adv-x="561" 
d="M49 160q0 57 12.5 120.5t35.5 126t57.5 119t76 100t94.5 69t109 25.5q43 0 68.5 -14.5t25.5 -43.5q0 -34 -46 -48q0 5 1 13t1 15q0 55 -55 55q-60 0 -116.5 -61t-93 -145.5t-59.5 -181.5q70 65 169 65q80 0 131.5 -49t51.5 -145q0 -114 -73 -190.5t-186 -76.5
q-106 0 -155 68t-49 179zM138 140q0 -32 5 -62.5t17 -62t37.5 -51t60.5 -19.5q73 0 120 75t47 166q0 76 -35.5 115t-89.5 39q-85 0 -123.5 -56.5t-38.5 -143.5z" />
    <glyph glyph-name="seven" unicode="7" horiz-adv-x="403" 
d="M59 289q1 28 24.5 43.5t50 18.5t66.5 3h24q31 59 92 161l73 120q-17 0 -77 -3t-84 -3q-102 0 -102 47q0 18 13 42q9 -1 37.5 -6.5t42.5 -7.5t42.5 -4t60.5 -2q109 0 168 20q-31 -50 -54 -75q-81 -119 -160 -292q92 -5 99 -5q20 0 32 3q-35 -51 -79 -51q-43 0 -76 1
l-18 -43q-14 -33 -20 -50l-18 -49q-11 -31 -17.5 -52t-11 -47t-4.5 -47q0 -29 12 -38q-14 -30 -38 -45t-42 -15q-14 0 -24 12t-10 33q0 71 134 341q-86 -2 -136 -10z" />
    <glyph glyph-name="eight" unicode="8" horiz-adv-x="527" 
d="M29 77q0 24 5.5 45.5t20.5 43.5l25 35q10 14 37 37t39 32l46 34l43 32q-54 59 -83 108t-29 110q0 82 55.5 123.5t129.5 41.5q69 0 110 -37.5t41 -106.5q0 -67 -37.5 -119.5t-105.5 -106.5q42 -46 62.5 -70.5t42 -69t21.5 -87.5q0 -93 -75 -151t-173 -58q-91 0 -133 50.5
t-42 113.5zM90 80q0 -57 37.5 -92.5t86.5 -35.5q59 0 107.5 47.5t48.5 118.5q0 51 -25.5 93.5t-73.5 95.5q-46 -33 -69 -52t-54 -49.5t-44.5 -61t-13.5 -64.5zM211 567q0 -51 23 -95t66 -93q111 93 111 197q0 56 -26.5 86t-65.5 30q-41 0 -74.5 -31t-33.5 -94z" />
    <glyph glyph-name="nine" unicode="9" horiz-adv-x="566" 
d="M86 462q0 111 70 184.5t180 73.5t161.5 -72.5t51.5 -189.5q0 -86 -26 -180.5t-71.5 -176.5t-116.5 -135t-152 -53q-96 0 -96 60q0 32 44 46q0 -5 -0.5 -12t-0.5 -13q0 -58 57 -58q46 0 88.5 34.5t74 92t55 124t37.5 137.5q-65 -65 -166 -65q-82 0 -136 51.5t-54 151.5z
M173 456q0 -81 37.5 -122t93.5 -41q77 0 115 47t38 129q0 41 -5.5 76.5t-18.5 69.5t-39 53.5t-62 19.5q-70 0 -114.5 -71.5t-44.5 -160.5z" />
    <glyph glyph-name="colon" unicode=":" horiz-adv-x="216" 
d="M10 17q0 16 19 28.5t39 12.5q26 0 26 -24q0 -15 -16.5 -29.5t-35.5 -14.5q-32 0 -32 27zM70 267q0 16 19 28.5t39 12.5q26 0 26 -24q0 -15 -16.5 -29.5t-35.5 -14.5q-32 0 -32 27z" />
    <glyph glyph-name="semicolon" unicode=";" horiz-adv-x="213" 
d="M1 -51q0 33 20 70t41 37q10 0 17.5 -8.5t7.5 -19.5q-9 -9 -17 -19.5t-13 -18.5t-12 -21l-9 -18l-9 -20q-7 -14 -9 -19q-17 10 -17 37zM70 267q0 16 19 28.5t39 12.5q26 0 26 -24q0 -15 -16.5 -29.5t-35.5 -14.5q-32 0 -32 27z" />
    <glyph glyph-name="less" unicode="&#x3c;" horiz-adv-x="310" 
d="M21 158q49 21 103.5 67t86.5 91q5 -8 5 -22q0 -59 -169 -147q28 -20 43 -30t45 -25t74 -32q-14 -16 -29 -16q-36 0 -93.5 42t-65.5 72z" />
    <glyph glyph-name="equal" unicode="=" horiz-adv-x="503" 
d="M52 106q18 49 189 49q81 0 168 -9q-40 -29 -103 -29h-101q-86 0 -153 -11zM52 206q18 49 189 49q81 0 168 -9q-40 -29 -103 -29h-101q-86 0 -153 -11z" />
    <glyph glyph-name="greater" unicode="&#x3e;" horiz-adv-x="324" 
d="M61 294q0 14 5 22q32 -45 86.5 -91t103.5 -67q-8 -30 -65.5 -72t-93.5 -42q-15 0 -29 16q44 17 74 32t45 25t43 30q-169 88 -169 147z" />
    <glyph glyph-name="question" unicode="?" horiz-adv-x="437" 
d="M108 500q0 88 60 154t150 66q63 0 99 -34.5t36 -98.5q0 -41 -16 -77t-41 -65l-50 -59q-26 -29 -51 -68t-37 -81q-6 -20 -11.5 -57.5t-13.5 -55.5q-19 10 -25 18.5t-6 28.5q0 44 19.5 85.5t48.5 76.5l56 71q28 35 47.5 80.5t19.5 94.5q0 54 -22 83.5t-57 29.5
q-55 0 -103 -63.5t-48 -148.5q0 -24 7 -57q-36 6 -49 25t-13 52zM160 16q0 17 18.5 29.5t39.5 12.5q26 0 26 -22q0 -17 -16 -31.5t-36 -14.5q-13 0 -22.5 7t-9.5 19z" />
    <glyph glyph-name="at" unicode="@" horiz-adv-x="583" 
d="M3 88q0 120 91 213.5t228 93.5q103 0 157 -53.5t54 -127.5q0 -76 -52.5 -140.5t-121.5 -64.5q-64 0 -64 59q0 6 2 20q-69 -93 -131 -93q-26 0 -42.5 17t-16.5 49q0 75 73.5 160.5t148.5 85.5q31 0 52 -16.5t21 -43.5q0 -34 -40 -34q4 11 4 27q0 45 -38 45
q-54 0 -110 -81.5t-56 -143.5q0 -32 22 -32q18 0 40.5 17t49.5 50.5t41 52.5l37 54q10 -1 21 -6.5t11 -13.5q0 -7 -23 -48t-23 -65q0 -33 34 -33q47 0 88 54t41 118t-45 110.5t-134 46.5q-122 0 -202.5 -87t-80.5 -194q0 -76 45 -128t138 -52q117 0 214 85l6 -8
q-90 -102 -226 -102q-106 0 -159.5 60.5t-53.5 148.5z" />
    <glyph glyph-name="A" unicode="A" 
d="M-17 -35q0 75 152 313q-61 5 -108 5h-35q19 52 104 52q26 0 72 -7q77 116 156.5 218.5t125.5 145.5q29 28 48 28q21 0 53 -32q-33 -26 -94.5 -248.5t-61.5 -345.5q0 -80 37 -80q55 0 131 148l10 -10q-31 -82 -77.5 -132t-95.5 -50q-78 0 -78 134q0 64 17 149
q-64 10 -148 20q-98 -180 -174 -360q-34 19 -34 52zM217 319l73 -17q47 -11 56 -14q42 197 120 369q-91 -56 -249 -338z" />
    <glyph glyph-name="B" unicode="B" horiz-adv-x="608" 
d="M19 -7q0 3 5 3q2 0 12 -2.5t31 -5t51 -2.5q168 0 283 71.5t115 165.5q0 126 -252 126q-14 0 -39 -0.5t-36 -0.5l-90 -322q-25 0 -42 14t-17 34q0 9 14 57q16 54 44 138t78 215t90 208q-37 -7 -68.5 -20.5t-48.5 -23.5t-21 -10q-8 0 -20 10t-12 17q44 18 70 27.5t72 18.5
t95 9q40 0 75 -6t73 -21t60.5 -49t22.5 -83q0 -157 -229 -195q228 -14 228 -161q0 -69 -46 -127t-115 -92.5t-141 -53.5t-131 -19q-111 0 -111 80zM195 371q59 2 110.5 13t98 33t73.5 61t27 91q0 130 -169 130q-13 0 -19 -1q-59 -115 -121 -327z" />
    <glyph glyph-name="C" unicode="C" horiz-adv-x="534" 
d="M22 157q0 96 38 198.5t96 182t133 130.5t144 51q92 0 92 -86q0 -62 -38.5 -137.5t-77.5 -75.5q-20 0 -31 23q37 42 72 102t35 99q0 45 -49 45q-69 0 -148.5 -89.5t-132.5 -219.5t-53 -240q0 -82 35 -137.5t106 -55.5q77 0 154 63t118 152l14 -10q-54 -106 -134.5 -172.5
t-175.5 -66.5q-99 0 -148 71t-49 173z" />
    <glyph glyph-name="D" unicode="D" horiz-adv-x="653" 
d="M56 -42q26 125 83.5 310.5t89.5 269.5q36 94 78 94q14 0 28 -10q-60 -139 -121.5 -334t-94.5 -345q24 -4 43 -4q103 0 198 77.5t152 197.5t57 243q0 117 -55 176.5t-150 59.5q-98 0 -163.5 -56t-65.5 -139q0 -22 5 -37q-60 0 -60 56q0 73 95 138t219 65q127 0 188 -75
t61 -199q0 -105 -42.5 -204.5t-110 -171t-154 -114.5t-173.5 -43q-75 0 -107 45z" />
    <glyph glyph-name="E" unicode="E" horiz-adv-x="498" 
d="M-15 95q0 93 76 171t183 88q-76 63 -76 158q0 82 59.5 144.5t146.5 62.5q55 0 84.5 -28t29.5 -80q0 -54 -27 -102.5t-53 -48.5q-22 0 -37 32q84 73 84 139q0 65 -71 65q-67 0 -105 -57.5t-38 -143.5q0 -101 58 -151q-96 -16 -158.5 -92t-62.5 -160q0 -57 31.5 -101
t96.5 -44q77 0 154 63t118 152l14 -10q-56 -108 -136 -173.5t-176 -65.5q-88 0 -141.5 52.5t-53.5 129.5z" />
    <glyph glyph-name="F" unicode="F" horiz-adv-x="482" 
d="M66 539q0 77 79.5 126.5t195.5 49.5q36 0 102 -7.5t97 -7.5q40 0 74 10q-35 -40 -60 -55t-53 -15q-17 0 -67 7l-75 10q-28 -68 -96 -283q32 -2 91 -8.5t84 -7.5q-16 -23 -45.5 -28t-144.5 -7l-44 -149q-50 -168 -52 -261q-42 3 -55 22t-13 57q0 15 2.5 32.5t9.5 42.5
l12 42q5 18 17 52l17 49q5 15 21 57l19 52q-25 -2 -77 -9l-34 -5q4 66 131 70q65 179 116 285q-26 2 -39 2q-93 0 -126.5 -28.5t-33.5 -93.5q0 -41 13 -79q-66 11 -66 78z" />
    <glyph glyph-name="G" unicode="G" horiz-adv-x="554" 
d="M22 161q0 125 62.5 256.5t159.5 216.5t189 85q53 0 78.5 -32t25.5 -81q0 -54 -26.5 -100t-61.5 -46q-20 0 -31 23q24 17 51 66t27 87q0 53 -59 53h-1q-69 0 -148.5 -90t-132.5 -220t-53 -238q0 -89 37.5 -141.5t96.5 -52.5q74 0 133 98t67 205q-58 13 -103 13
q-8 0 -28 -0.5t-33 -0.5q12 52 68 52q33 0 98.5 -23t70.5 -24l-7 -32q-61 -159 -61 -244q0 -15 2 -41.5t2 -36.5q-54 21 -54 71q0 23 7 47q-85 -118 -188 -118h-1q-81 0 -134 66.5t-53 181.5z" />
    <glyph glyph-name="H" unicode="H" horiz-adv-x="617" 
d="M55 -87q24 136 110 401l-66 -7q1 44 83 61l85 251q14 41 14 58q0 15 -14 15q-45 0 -84.5 -66.5t-39.5 -121.5q0 -19 5 -34q-60 0 -60 57q0 65 70.5 129t129.5 64q46 0 46 -48q0 -17 -8 -43l-78 -254q36 2 58 2q78 0 170 -9q74 243 101 300q24 52 55 52
q-42 -111 -105 -356q10 0 35.5 -2t39.5 -2q-30 -32 -82 -32h-2q-21 -86 -31 -137q-33 -155 -33 -239v-3q0 -18 2 -36q-38 4 -53.5 21.5t-15.5 56.5q0 58 24 151q16 66 53 185q-167 -1 -233 -7q-86 -271 -107 -343q-10 -32 -30 -48t-39 -16z" />
    <glyph glyph-name="I" unicode="I" horiz-adv-x="459" 
d="M-38 -88q3 26 16 43t37.5 24.5t48.5 10t61 2.5q42 91 106 363t76 306q-133 -3 -225 -20q14 77 202 77h2q121 0 262 -21q-35 -35 -95 -35h-2q-78 0 -109 -1q-74 -398 -99 -499q-35 -138 -84 -171q29 -2 105.5 -10t111.5 -9q-43 -43 -113 -43h-61q-49 0 -66.5 -1t-54 -2.5
t-64 -5t-55.5 -8.5z" />
    <glyph glyph-name="J" unicode="J" horiz-adv-x="411" 
d="M-31 44q0 63 21.5 115.5t54.5 52.5q12 0 28 -8q-36 -92 -36 -160q0 -95 62 -95h1q27 0 47 23t42 82q35 97 80.5 289t70.5 324q-123 -1 -202 -20q11 71 163 71q98 0 209 -21q-17 -29 -77 -29q-14 0 -37.5 -0.5t-33.5 -0.5q21 -17 21 -47q0 -49 -45 -246t-97 -313
q-37 -84 -76 -115.5t-88 -31.5q-108 0 -108 130z" />
    <glyph glyph-name="K" unicode="K" horiz-adv-x="590" 
d="M30 -69l18 42q9 22 22 57l24 65l31 92l38 110l50 146l60 176q13 36 13 49q0 24 -24 24q-45 0 -84.5 -66.5t-39.5 -121.5q0 -19 5 -34q-60 0 -60 57q0 65 70.5 129t129.5 64q46 0 46 -48q0 -17 -8 -43l-84 -272q7 9 17.5 19.5t18.5 17.5l25 19l25 20q75 60 152.5 139
t120.5 148q9 -12 9 -44q0 -109 -364 -354l48 -81q13 -22 45 -68.5t57.5 -75t66.5 -69.5t91 -82q-17 -33 -53 -33h-1q-49 0 -136.5 128.5t-142.5 249.5l-97 -314q-5 -16 -14.5 -26.5t-24 -14t-24 -4.5t-26.5 -1z" />
    <glyph glyph-name="L" unicode="L" horiz-adv-x="570" 
d="M-74 34q0 44 73 44q44 0 123 -21q17 29 35 75t28.5 76.5t32.5 100.5l29 91q-46 15 -72.5 44t-26.5 63q0 29 17.5 54t44.5 25q-13 -18 -13 -62q0 -72 57 -103q22 67 42 115t46.5 93t58.5 68t68 23q37 0 67 -24t30 -78q0 -36 -15 -75t-43 -74.5t-75.5 -58t-106.5 -22.5h-16
q-85 -256 -144 -344q9 -3 45 -14l49 -15q12 -4 43 -12t48 -11.5t39.5 -6.5t40.5 -3q40 0 71 16q-30 -85 -105 -85q-26 0 -62.5 10.5t-58 19.5t-74.5 33.5t-65 29.5q-53 -59 -111 -59q-45 0 -72.5 29t-27.5 58zM-27 -5q21 -19 49 -19q42 0 77 46q-74 30 -114 30
q-33 0 -33 -19t21 -38zM316 407q82 1 139 84t57 154q0 50 -36 50q-22 0 -43 -21t-42 -67.5t-36 -87.5t-39 -112z" />
    <glyph glyph-name="M" unicode="M" horiz-adv-x="763" 
d="M-17 -87l317 703q10 22 10 41q0 26 -34 26q-59 0 -91.5 -56.5t-32.5 -125.5q0 -13 2 -31q-26 0 -39.5 26t-13.5 56q0 64 63.5 116t131.5 52q52 0 76.5 -47.5t24.5 -176.5q0 -71 -10 -213.5t-11 -180.5q24 92 89 223t113 210t83 131q11 16 16.5 23t14 12.5t19.5 5.5
q14 0 32 -7q-25 -60 -45 -140q-34 -132 -62.5 -303.5t-28.5 -261.5q0 -16 1.5 -27.5t2.5 -17t5 -17.5t6 -20q-50 0 -66 24t-16 88q0 75 16 173t33 169l51 197q-64 -82 -146 -262.5t-122 -298.5q-11 -4 -15 -4q-25 0 -34.5 29.5t-9.5 92.5q0 55 8 214t8 211q0 28 -2 56
l-66 -154l-55 -134l-46 -111l-40 -93l-34 -73q-18 -36 -29.5 -56.5t-25 -37.5t-25 -23.5t-23.5 -6.5z" />
    <glyph glyph-name="N" unicode="N" horiz-adv-x="640" 
d="M46 -87q14 54 40 139l74 242l98 325q7 25 7 41q0 23 -15 23q-45 0 -80.5 -61.5t-35.5 -116.5q0 -20 5 -35q-60 0 -60 57q0 66 69.5 129.5t130.5 63.5q19 0 34.5 -11t27 -35.5t19.5 -48t15 -66t10.5 -71t9.5 -80.5q21 -187 44 -336q18 122 80 338t81 261q7 16 25 32.5
t38 16.5q-58 -154 -128 -426t-71 -381q-32 0 -51 18.5t-27 62.5q-27 142 -91 595q-134 -481 -169 -572q-33 -91 -65 -102q-7 -2 -15 -2z" />
    <glyph glyph-name="O" unicode="O" horiz-adv-x="623" 
d="M21 161q0 94 38 195.5t97 180.5t134 130.5t145 51.5q37 0 60 -12h-11q-62 0 -130.5 -53.5t-121.5 -135t-88 -182t-35 -189.5q0 -87 33.5 -143.5t100.5 -56.5q89 0 165 91t116 218.5t40 248.5q0 51 -11 94.5t-34 43.5q-34 0 -77.5 -75t-57.5 -139q-48 11 -48 49
q0 53 65.5 122.5t115.5 69.5q24 0 42 -18.5t26.5 -49.5t12.5 -61.5t4 -63.5q0 -130 -38 -240.5t-96.5 -179t-125.5 -106.5t-129 -38q-86 0 -139 68t-53 180z" />
    <glyph glyph-name="P" unicode="P" horiz-adv-x="527" 
d="M18 -37q0 15 14 55l80 246q29 86 73 202t93 227q-34 -7 -66 -20.5t-50.5 -24t-22.5 -10.5q-7 0 -19 10t-12 17q128 55 221 55q62 0 119 -20.5t97.5 -66t40.5 -106.5q0 -59 -34 -104t-80.5 -68t-105 -37.5t-96 -18t-65.5 -3.5h-10l-108 -383q-27 0 -48 14.5t-21 35.5z
M199 312q58 3 112.5 18.5t102 42.5t76.5 71.5t29 99.5q0 76 -52 115t-129 40q-61 -121 -139 -387z" />
    <glyph glyph-name="Q" unicode="Q" horiz-adv-x="693" 
d="M88 443q53 120 145.5 198.5t197.5 78.5q95 0 149 -65t54 -178q0 -127 -64.5 -266.5t-161.5 -214.5q83 -46 148 -46q18 0 58 12q-24 -81 -98 -81q-29 0 -59.5 13.5t-50 28t-50.5 40.5q-52 -26 -100 -26q-32 0 -55.5 10.5t-34.5 26t-15.5 28.5t-4.5 23q0 20 18.5 36
t54.5 16q26 0 55.5 -10.5t48.5 -21t55 -32.5q83 75 134.5 226t51.5 270q0 86 -32.5 135t-99.5 49q-69 0 -132 -53.5t-105 -135t-66.5 -177.5t-24.5 -183q0 -47 8 -84q-77 0 -77 137q0 126 53 246zM172 24q0 -20 19.5 -41t64.5 -21q39 0 78 21q-77 68 -125 68q-37 0 -37 -27z
" />
    <glyph glyph-name="R" unicode="R" horiz-adv-x="577" 
d="M16 -37q0 15 14 55q126 389 253 677q-37 -6 -71.5 -20.5t-54 -25.5t-23.5 -11q-7 0 -19 10t-12 17q127 55 225 55q62 0 117 -18t95.5 -62t40.5 -107q0 -56 -33 -98.5t-77.5 -64t-102 -35t-94.5 -16.5t-66 -3l39 -67l40 -71q13 -22 40.5 -63.5t51 -69t59.5 -63.5t77 -70
q-6 -13 -21.5 -23t-29.5 -10q-35 0 -92 72t-105.5 160t-81.5 166l-103 -364q-26 0 -46 14.5t-20 35.5zM201 332q79 5 146.5 27.5t117 73t49.5 121.5q0 76 -51.5 110.5t-127.5 34.5q-60 -119 -134 -367z" />
    <glyph glyph-name="S" unicode="S" horiz-adv-x="536" 
d="M-6 92q0 71 39 102.5t89 31.5q-55 -60 -55 -134q0 -60 39.5 -100t113.5 -40t130 39t56 107q0 47 -31.5 84.5t-76.5 64.5l-89 53q-44 27 -75.5 65.5t-31.5 87.5q0 58 34 118.5t101.5 104.5t149.5 44q105 0 105 -100q0 -50 -24 -112t-53 -108q-33 7 -33 43q0 28 29.5 104.5
t29.5 105.5q0 43 -56 43q-88 0 -154 -75t-66 -145q0 -41 31 -73.5t75 -56.5l87 -51q44 -26 75 -69.5t31 -99.5q0 -97 -80 -155t-181 -58q-88 0 -148.5 46.5t-60.5 132.5z" />
    <glyph glyph-name="T" unicode="T" horiz-adv-x="490" 
d="M69 632q7 88 244 88q75 0 177.5 -11t144.5 -11q-53 -47 -171 -47q-11 0 -35 0.5t-36 0.5q-82 -205 -157 -477q-3 -11 -10.5 -37.5t-10.5 -36.5l-7 -31q-5 -21 -8 -31l-5 -26q-4 -17 -5.5 -28t-2.5 -24.5t-1 -25.5q0 -15 1 -22q-79 0 -79 71q0 39 37 146q111 322 204 522
q-179 -3 -280 -20z" />
    <glyph glyph-name="U" unicode="U" horiz-adv-x="706" 
d="M25 539q0 65 58 123t133 58q103 0 103 -121q0 -75 -61.5 -270t-61.5 -264q0 -50 20.5 -81t63.5 -31q39 0 74.5 26.5t61 69.5t43 87t28.5 88l41 167q16 62 42 151t49 133.5t42 44.5q20 0 50 -32q-30 -21 -107 -269.5t-77 -376.5q0 -67 18 -92t62 -25q-35 -24 -66 -24
q-36 0 -58.5 31t-22.5 75q0 31 9 91q-85 -185 -216 -185q-62 0 -96 38t-34 98q0 62 62.5 269.5t62.5 285.5q0 88 -56 88q-49 0 -77.5 -57t-28.5 -116q0 -30 8 -49q-69 0 -69 69z" />
    <glyph glyph-name="V" unicode="V" horiz-adv-x="632" 
d="M25 542q0 64 56 121t127 57q61 0 92 -47.5t31 -130.5t-32.5 -198.5t-64.5 -215.5t-32 -145q0 -39 28 -39q55 0 139.5 103t148.5 248t64 249q0 87 -55 104q27 46 58 46q24 0 42.5 -29t18.5 -82q0 -107 -73.5 -267t-178.5 -281.5t-184 -121.5q-31 0 -58.5 18t-27.5 62
q0 38 31.5 137t63 217.5t31.5 204.5q0 28 -0.5 43.5t-3.5 37t-9 32.5t-18 19t-29 8q-50 0 -76.5 -54t-26.5 -114q0 -33 9 -54q-37 0 -54 20t-17 52z" />
    <glyph glyph-name="W" unicode="W" horiz-adv-x="906" 
d="M25 542q0 64 56 121t127 57q61 0 92 -47.5t31 -130.5t-32.5 -198.5t-64.5 -215t-32 -145.5q0 -39 30 -39q47 0 115.5 85t119 192t59.5 174q30 0 45 -15.5t15 -33.5q0 -17 -18 -60l-38 -90q-21 -47 -38 -106.5t-17 -103.5q0 -21 5.5 -31.5t22.5 -10.5q55 0 139.5 103
t148.5 248t64 249q0 87 -55 104q27 46 58 46q24 0 42.5 -29t18.5 -82q0 -107 -73.5 -267t-178.5 -281.5t-184 -121.5q-33 0 -59.5 19.5t-26.5 55.5q0 27 20 90q-117 -165 -207 -165q-31 0 -58.5 18t-27.5 62q0 38 31.5 137t63 217.5t31.5 204.5q0 28 -0.5 43.5t-3.5 37
t-9 32.5t-18 19t-29 8q-50 0 -76.5 -54t-26.5 -114q0 -33 9 -54q-37 0 -54 20t-17 52z" />
    <glyph glyph-name="X" unicode="X" horiz-adv-x="662" 
d="M25 -112q3 30 13 47t36 44q113 122 227 267q-8 124 -10 222q-2 133 -11 178.5t-48 45.5q-46 0 -75 -56.5t-29 -116.5q0 -30 8 -49q-69 0 -69 69q0 64 58 122.5t130 58.5q80 0 104 -95q14 -56 15 -227q1 -34 1 -54q158 219 222 378q8 -6 15.5 -20.5t7.5 -27.5
q0 -73 -244 -385q10 -339 94 -339q51 0 170 212l12 -10q-62 -127 -107.5 -183t-101.5 -56q-39 0 -66.5 25.5t-42 73t-20.5 89t-10 97.5q-87 -107 -166 -195t-113 -115z" />
    <glyph glyph-name="Y" unicode="Y" horiz-adv-x="666" 
d="M23 539q0 65 58 123t133 58q53 0 78.5 -30t25.5 -71q0 -33 -33.5 -154t-33.5 -178q0 -96 70 -96q63 0 117 72t95 177q68 280 120 280q26 0 56 -32q-50 -80 -76 -159t-89 -335l-20 -76q-7 -28 -22 -73.5t-29 -73t-36.5 -61.5t-47.5 -52.5t-59.5 -31.5t-74.5 -13
q-60 0 -99 25t-39 70q0 54 60 74q-8 -27 -8 -54q0 -42 22 -66t65 -24q146 0 209 283l18 90l24 115q-91 -175 -217 -175q-109 0 -109 119q0 54 34 177t34 167q0 78 -57 78q-50 0 -79 -57t-29 -116q0 -30 8 -49q-69 0 -69 69z" />
    <glyph glyph-name="Z" unicode="Z" horiz-adv-x="631" 
d="M-25 26q0 52 77 52q48 0 136 -26q88 93 195 269q-60 -1 -130 -11l-34 -5q4 70 149 70q15 0 45 -2q82 146 117 237q-23 6 -78 27.5t-108 38t-92 16.5q-113 0 -113 -144q0 -22 4 -35q-54 10 -54 72q0 66 51 100.5t142 34.5q74 0 186 -32t160 -32q22 0 32 2q-27 -23 -50 -35
q-48 -115 -130 -256q90 -9 106 -9q-16 -23 -38 -28t-94 -7q-112 -183 -218 -285q178 -56 245 -56q40 0 71 16q-30 -85 -105 -85q-17 0 -38.5 4.5t-37 9t-45.5 16.5t-42 17l-46 22q-35 17 -43 20q-72 -56 -128 -56q-41 0 -66.5 25t-25.5 55zM1 28q0 -19 17.5 -37t43.5 -18
q37 0 92 47q-77 32 -115 32h-1q-37 0 -37 -24z" />
    <glyph glyph-name="bracketleft" unicode="[" horiz-adv-x="393" 
d="M29 -67q5 9 11.5 35t28.5 146l72 384q21 114 56.5 159.5t73.5 45.5q7 0 32 -1.5t40 -1.5q65 0 100 20q-3 -50 -29.5 -65t-75.5 -15q-16 0 -33.5 2.5t-39.5 7.5l-34 7q-33 -96 -84 -374.5t-61 -314.5q113 1 153.5 4t86.5 17q-7 -76 -130 -76q-84 0 -167 20z" />
    <glyph glyph-name="backslash" unicode="\" horiz-adv-x="560" 
d="M164 720q22 0 38.5 -14t22.5 -31q29 -75 71 -282l79 -374q37 -167 60 -181q-43 8 -72.5 50t-54.5 134q-19 70 -76 370t-68 328z" />
    <glyph glyph-name="bracketright" unicode="]" horiz-adv-x="410" 
d="M-14 -88q5 70 105 70q12 0 124 -8q33 95 89.5 385t62.5 315h-63q-125 0 -199 -21q0 40 31.5 53.5t97.5 13.5q72 0 167 -21q-3 -15 -22 -134l-40 -246q-21 -126 -33 -187q-6 -30 -9.5 -46t-14.5 -50.5t-23.5 -54t-33.5 -36t-47 -16.5q-140 0 -192 -17z" />
    <glyph glyph-name="asciicircum" unicode="^" horiz-adv-x="203" 
d="M0 460q0 27 45 57.5t69 30.5t57 -39.5t33 -71.5q0 -23 -17 -31q-21 43 -74 92q-67 -24 -103 -57q-10 6 -10 19z" />
    <glyph glyph-name="underscore" unicode="_" horiz-adv-x="845" 
d="M-20 -66q5 47 95.5 64.5t256.5 17.5q108 0 216 -9t168 -9q-65 -45 -163 -45q-64 0 -148.5 -0.5t-113.5 -0.5t-78 -0.5t-65.5 -1.5t-49.5 -3.5t-56 -5t-62 -7.5z" />
    <glyph glyph-name="grave" unicode="`" horiz-adv-x="125" 
d="M0 526q3 31 22 31q27 0 65.5 -50t38.5 -71q0 -19 -14 -26q-38 52 -112 116z" />
    <glyph glyph-name="a" unicode="a" horiz-adv-x="436" 
d="M-26 36q0 59 41.5 131t107.5 124t128 52q39 0 65 -21t26 -54q0 -43 -49 -43q5 18 5 35q0 56 -49 56q-44 0 -93.5 -50.5t-81 -117t-31.5 -115.5q0 -39 27 -39q18 0 42 17t44 38t47.5 56.5t40.5 54.5l36 52q40 -7 40 -25q0 -8 -29 -60t-29 -79q0 -17 8.5 -30.5t25.5 -13.5
q29 0 73 41.5t87 116.5l10 -10q-31 -80 -87.5 -131t-110.5 -51q-35 0 -53.5 20.5t-18.5 49.5q0 12 3 29q-45 -60 -80.5 -88t-70.5 -28q-33 0 -53.5 21.5t-20.5 61.5z" />
    <glyph glyph-name="b" unicode="b" horiz-adv-x="394" 
d="M-10 53q0 95 60.5 256t135.5 283t115 122q15 0 23.5 -19.5t8.5 -43.5q0 -47 -31.5 -122.5t-86 -150t-110.5 -108.5q-13 -24 -30.5 -90t-17.5 -121q0 -94 55 -94q29 0 60 23.5t50 60.5q-35 18 -54 53.5t-19 75.5q0 47 24.5 76.5t59.5 29.5q29 0 46 -24t17 -68
q0 -66 -35 -136q12 -3 26 -3q25 0 46 9.5t36.5 28.5t25 33.5t20.5 37.5l12 -13q-47 -114 -143 -114q-17 0 -32 3q-66 -111 -159 -111q-51 0 -77 33.5t-26 92.5zM116 309q64 51 123.5 161.5t59.5 154.5q0 8 -4 8q-11 0 -44.5 -48t-73.5 -126.5t-61 -149.5zM184 173
q0 -72 48 -104q23 49 23 101q0 34 -9.5 54.5t-23.5 20.5q-15 0 -26.5 -21t-11.5 -51z" />
    <glyph glyph-name="c" unicode="c" horiz-adv-x="323" 
d="M-5 72q0 99 70.5 182.5t148.5 83.5q38 0 54.5 -21.5t16.5 -52.5q0 -30 -13.5 -51.5t-36.5 -21.5q-17 0 -29 15q15 7 26 31.5t11 47.5q0 25 -22 25q-52 0 -108 -85t-56 -160q0 -83 73 -83q61 0 120.5 50t91.5 131l13 -10q-34 -91 -104.5 -150t-143.5 -59q-50 0 -81 33
t-31 95z" />
    <glyph glyph-name="d" unicode="d" horiz-adv-x="473" 
d="M-16 54q0 55 40.5 127t105 125.5t123.5 53.5q44 0 44 -31q0 -4 -2 -14q-11 15 -38 15q-50 0 -99 -50.5t-76.5 -111.5t-27.5 -102q0 -22 9.5 -35t26.5 -13q43 0 106.5 77.5t109.5 197.5l39 101l38 94q24 59 41 92l35 70q20 37 36.5 53.5t29.5 16.5q8 0 14 -6.5t6 -16.5
q0 -20 -36 -98l-79 -164q-43 -87 -79 -192.5t-36 -172.5q0 -23 1 -32.5t6 -16.5t16 -7q33 0 78.5 41.5t75.5 106.5l12 -9q-29 -76 -85.5 -127.5t-108.5 -51.5q-34 0 -50 22t-16 53q0 34 19 107q-51 -84 -105.5 -135t-98.5 -51q-29 0 -52 21.5t-23 62.5z" />
    <glyph glyph-name="e" unicode="e" horiz-adv-x="333" 
d="M-14 72q0 92 84 190t170 98q62 0 62 -61q0 -73 -78 -129t-170 -65q-4 -17 -4 -36q0 -84 79 -84q61 0 123 51t101 126l12 -9q-40 -89 -111 -143t-146 -54q-59 0 -90.5 32.5t-31.5 83.5zM59 124q70 25 134.5 75t64.5 107q0 23 -21 23q-47 0 -102 -65.5t-76 -139.5z" />
    <glyph glyph-name="f" unicode="f" horiz-adv-x="312" 
d="M-68 -192q0 77 44 229t107 304t140.5 265.5t136.5 113.5q34 0 34 -44q0 -81 -82.5 -192t-184.5 -182q-7 -16 -19 -50q21 -5 25 -32q5 -34 8 -52t10 -41.5t15 -34.5t22 -19.5t32 -8.5q33 0 56.5 23t54.5 75l15 -10q-24 -56 -61 -85t-70 -29q-38 0 -74 33
q-1 -127 -49.5 -239t-104.5 -112q-21 0 -38 19.5t-17 68.5zM-6 -184q0 -48 19 -48q28 0 65 106.5t37 185.5q0 50 -34 117q-87 -256 -87 -361zM143 343q90 83 151 172.5t61 123.5q0 14 -14 14q-37 0 -90 -86.5t-108 -223.5z" />
    <glyph glyph-name="g" unicode="g" horiz-adv-x="389" 
d="M-20 -222q0 20 7.5 38t25.5 35t31.5 29t43.5 28l42 23q12 7 45 23q28 72 51 165q-89 -128 -163 -128q-35 0 -55 26.5t-20 70.5q0 66 44 127.5t105 96.5t116 35q54 0 54 -32q0 -16 -12 -20q-11 15 -40 15q-74 0 -137.5 -79t-63.5 -148q0 -49 35 -49q27 0 67.5 37t80.5 95
l12 53q11 51 51 51q9 0 21 -3q0 -27 -22 -108.5t-55 -165.5q52 25 96.5 69.5t66.5 99.5l13 -10q-21 -61 -75.5 -111t-111.5 -77q-101 -244 -195 -244q-24 0 -41 14.5t-17 43.5zM11 -213q0 -16 6.5 -25.5t17.5 -9.5q23 0 57.5 43.5t71.5 131.5q-73 -37 -113 -69t-40 -71z" />
    <glyph glyph-name="h" unicode="h" horiz-adv-x="476" 
d="M6 66q0 92 56 249t128.5 278t114.5 121q16 0 24.5 -19.5t8.5 -43.5q0 -47 -32 -123t-87 -150t-111 -108q-37 -87 -37 -197q0 -16 2 -34q89 259 203 259q38 0 57 -26.5t19 -63.5q0 -33 -21.5 -89t-21.5 -79q0 -38 30 -38q34 0 80 47.5t76 112.5l13 -12q-33 -76 -84.5 -125
t-107.5 -49q-33 0 -51 17.5t-18 45.5q0 20 15.5 73t15.5 78q0 48 -38 48q-33 0 -63.5 -43t-49 -95t-40 -95t-40.5 -43q-18 0 -29.5 31t-11.5 73zM121 309q64 51 123.5 161.5t59.5 154.5q0 8 -4 8q-11 0 -43.5 -45.5t-72.5 -124.5t-63 -154z" />
    <glyph glyph-name="i" unicode="i" horiz-adv-x="241" 
d="M-5 58q0 39 21 105t56 121t67 55q22 0 22 -22q0 -12 -26 -55t-52 -97.5t-26 -95.5q0 -35 11.5 -47.5t37.5 -12.5q78 0 154 153l9 -10q-28 -84 -82.5 -131t-114.5 -47q-37 0 -57 23.5t-20 60.5zM151 465q0 20 24 36t49 16q33 0 33 -30q0 -20 -20.5 -37.5t-44.5 -17.5
q-41 0 -41 33z" />
    <glyph glyph-name="j" unicode="j" horiz-adv-x="218" 
d="M-192 -229q0 37 35.5 81t90.5 75l64 32q43 107 67 246l-28 -48l-19 -31l-9 15q16 30 37.5 86.5t38 88t34.5 31.5q24 0 24 -30q0 -27 -23.5 -127t-56.5 -198q4 2 24 13.5t27 15.5l23 16q17 11 26 22l24 25q14 15 26 33t24 40l13 -7q-14 -34 -32 -60.5t-43 -47t-39 -30.5
t-45.5 -27.5t-37.5 -20.5q-89 -244 -193 -244q-25 0 -38.5 14t-13.5 37zM-166 -222q0 -24 17 -24q22 0 60 46t74 127q-73 -36 -112 -76t-39 -73zM95 469q0 21 23.5 37t49.5 16q33 0 33 -28q0 -22 -20.5 -39.5t-45.5 -17.5q-17 0 -28.5 8.5t-11.5 23.5z" />
    <glyph glyph-name="k" unicode="k" horiz-adv-x="446" 
d="M4 63q0 98 61 257t134 276.5t108 117.5q13 0 22 -19t9 -46q0 -72 -59 -164t-145 -144q-66 -162 -66 -286q111 280 224 280q37 0 63 -26t26 -63q0 -39 -28.5 -67.5t-59 -39t-54.5 -10.5q3 -19 9.5 -44.5t25.5 -55t43 -29.5q75 0 148 163l10 -10q-22 -76 -74.5 -133.5
t-103.5 -57.5q-35 0 -59.5 33.5t-33.5 72t-9 74.5q19 0 47 9t54.5 32.5t26.5 54.5q0 20 -15 32.5t-35 12.5q-41 0 -79.5 -44.5t-60 -94.5t-40.5 -103t-20 -54q-11 -18 -33 -18h-1q-12 0 -19.5 7.5t-10.5 23t-4 28.5t-1 35zM151 381q65 52 109 126.5t44 116.5q0 9 -3 9
q-15 0 -61 -76.5t-89 -175.5z" />
    <glyph glyph-name="l" unicode="l" horiz-adv-x="236" 
d="M3 73q0 68 39 181.5t90.5 215t104 176t77.5 74.5q14 0 23.5 -25t9.5 -49q0 -75 -82 -228.5t-184 -237.5q-13 -58 -13 -101q0 -77 44 -77q37 0 75.5 47t68.5 113l15 -8q-86 -184 -187 -184h-1q-80 0 -80 103zM90 214q82 83 154 218.5t72 190.5q0 16 -7 16
q-14 0 -55.5 -64.5t-89.5 -167.5t-74 -193z" />
    <glyph glyph-name="m" unicode="m" horiz-adv-x="646" 
d="M-35 -6q0 4 17 53t34.5 112t17.5 102q19 21 46 21t27 -26q0 -27 -26 -114q49 78 105.5 134t105.5 56q54 0 54 -76q0 -65 -31 -141q85 154 166 154q57 0 57 -64q0 -28 -18.5 -87.5t-18.5 -79.5q0 -34 30 -34q62 0 134 158l12 -14q-28 -74 -73 -126.5t-100 -52.5
q-33 0 -50 20.5t-17 52.5q0 26 15 75t15 67q0 36 -29 36q-23 0 -49.5 -32.5t-81.5 -116.5q-12 -18 -48 -93q-16 0 -33.5 5.5t-17.5 14.5q0 2 31.5 95t31.5 135q0 38 -25 38q-43 0 -116.5 -95.5t-110.5 -197.5q-15 0 -34.5 7t-19.5 14z" />
    <glyph glyph-name="n" unicode="n" horiz-adv-x="466" 
d="M-38 7q0 3 17.5 47t35.5 102.5t18 96.5q19 21 46 21t27 -26q0 -34 -32 -132q115 176 208 176q36 0 55 -26.5t19 -63.5q0 -33 -20.5 -84t-20.5 -74q0 -38 30 -38q62 0 140 156l11 -13q-72 -169 -173 -169q-34 0 -52 17.5t-18 46.5q0 20 14.5 67.5t14.5 71.5q0 49 -40 49
q-24 0 -51.5 -19t-48.5 -41t-49.5 -64t-40.5 -62l-37 -61q-37 0 -53 22z" />
    <glyph glyph-name="o" unicode="o" horiz-adv-x="365" 
d="M-10 59q0 64 36.5 127.5t78.5 63.5q9 0 21 -5q-19 -16 -45 -79.5t-26 -99.5q0 -57 36 -57q44 0 107 80q-28 23 -43.5 60t-15.5 77q0 52 26.5 89t71.5 37q69 0 69 -77q0 -78 -67 -178q18 -10 38 -10q29 0 60 17.5t47 54.5l12 -10q-19 -44 -54 -65t-72 -21q-27 0 -48 10
q-80 -105 -153 -105q-41 0 -60 25t-19 66zM182 223q0 -68 34 -108q58 86 58 154q0 56 -30 56q-22 0 -42 -30.5t-20 -71.5z" />
    <glyph glyph-name="p" unicode="p" horiz-adv-x="391" 
d="M-53 -119q33 96 53 194.5t42 280.5q1 10 4.5 13.5t14.5 3.5q24 0 36 -13.5t12 -32.5q0 -28 -23 -135q31 60 75.5 103.5t97.5 43.5q44 0 72.5 -31.5t28.5 -82.5q0 -86 -69.5 -168.5t-166.5 -82.5q-25 0 -41.5 5.5t-16.5 12.5q0 5 25 5q78 0 141 70t63 149q0 34 -14.5 55.5
t-42.5 21.5q-47 0 -94.5 -53t-71.5 -108q-88 -373 -123 -407q-5 -5 -12 -5q-11 0 -22 17q-10 15 -9 20q0 8 4.5 23t17 47.5t19.5 53.5z" />
    <glyph glyph-name="q" unicode="q" horiz-adv-x="401" 
d="M-15 56q0 58 41.5 128.5t108 121.5t130.5 51q34 0 56.5 -14t22.5 -35q0 -14 -9 -25.5t-24 -11.5q0 24 -14 39.5t-43 15.5q-51 0 -99 -50t-74 -109.5t-26 -100.5q0 -22 9.5 -35t25.5 -13q25 0 60.5 36.5t60.5 73t66 102.5q19 31 44 31q20 0 20 -18q0 -12 -36.5 -78.5
t-51.5 -135.5q102 9 167 132l12 -11q-31 -70 -79.5 -105t-101.5 -40q17 -54 17 -113q0 -71 -21.5 -121.5t-52.5 -50.5q-35 0 -35 71q0 56 16.5 145t42.5 162q-89 -128 -158 -128q-29 0 -52 21.5t-23 64.5zM213 -197q0 -28 8 -28q11 0 18 39.5t7 86.5q0 41 -7 75
q-26 -109 -26 -173z" />
    <glyph glyph-name="r" unicode="r" horiz-adv-x="348" 
d="M1 127q48 93 81 190q-10 10 -10 24q0 27 15.5 47.5t26.5 20.5q14 0 14 -24q0 -4 -5.5 -19.5t-5.5 -17.5q0 -12 16 -25.5t35 -25.5t35 -35.5t16 -52.5q0 -33 -25 -91.5t-25 -77.5q0 -30 30 -30q44 0 96.5 50t73.5 99l13 -10q-31 -69 -90 -122t-119 -53q-34 0 -53.5 18
t-19.5 47q0 30 27.5 95.5t27.5 91.5q0 10 -3 19.5t-5.5 15t-10.5 12.5l-11 10q-3 3 -13.5 10t-12.5 9q-47 -120 -89 -192z" />
    <glyph glyph-name="s" unicode="s" horiz-adv-x="345" 
d="M-20 80q0 27 8.5 45.5t19 25t22 11.5t14.5 8q64 70 99 145v12q0 34 11.5 51t27.5 17t16 -13q0 -2 -3 -16t-3 -28q0 -30 26 -111t26 -130q0 -27 -6 -49q74 13 126 113l9 -10q-35 -103 -140 -119q-31 -83 -128 -83q-65 0 -95 39t-30 92zM25 81q0 -38 22.5 -67.5t59.5 -29.5
q46 0 63 49q-40 8 -73 31.5t-50 51.5q-22 -1 -22 -35zM51 147q37 -79 124 -98q4 26 4 47q0 28 -5 59t-14 68.5t-12 53.5q-51 -84 -97 -130z" />
    <glyph glyph-name="t" unicode="t" horiz-adv-x="285" 
d="M-4 53q0 86 58 241q-24 4 -36 8v18q36 -4 44 -4q44 114 94.5 197.5t79.5 83.5q8 0 14.5 -6t6.5 -16q0 -15 -19.5 -52t-55 -99t-58.5 -111h37q83 0 143 6v-18q-106 -12 -171 -12h-5h-15q-55 -125 -55 -217q0 -45 13 -63t43 -18q51 0 101 45.5t89 125.5l13 -10
q-37 -87 -100 -142.5t-132 -55.5q-89 0 -89 99z" />
    <glyph glyph-name="u" unicode="u" horiz-adv-x="438" 
d="M0 71q0 57 33 142t55 85q19 0 37 -20q-21 -33 -44 -94.5t-23 -106.5q0 -67 36 -67q13 0 27.5 10t29.5 29.5t28.5 39t28.5 48.5l26 49l24 48q13 29 18 37q48 -9 48 -26q0 -3 -17 -40.5t-33.5 -86.5t-16.5 -78q0 -40 33 -40q34 0 83 44.5t84 117.5l13 -9
q-32 -80 -89.5 -131.5t-111.5 -51.5q-70 0 -70 74q0 20 7 50q-70 -124 -131 -124q-33 0 -54 29.5t-21 71.5z" />
    <glyph glyph-name="v" unicode="v" horiz-adv-x="407" 
d="M10 71q0 19 6 131q1 21 3 29t8.5 13t20.5 5q17 0 21.5 -6.5t4.5 -25.5q0 -21 -4.5 -77.5t-4.5 -83.5q0 -56 23 -56q33 0 80 67.5t85 151.5q4 113 46 113q17 0 26.5 -12.5t9.5 -25.5q0 -9 -8.5 -24.5t-17.5 -43t-9 -66.5q0 -76 47 -76q43 0 79 74l13 -10q-36 -84 -99 -84
q-71 0 -84 97q-41 -82 -93.5 -141t-97.5 -59q-55 0 -55 110z" />
    <glyph glyph-name="w" unicode="w" horiz-adv-x="617" 
d="M0 71q0 57 33 142t55 85q8 0 22.5 -6t14.5 -14q-21 -32 -44 -94.5t-23 -106.5q0 -67 35 -67q53 0 150 191q12 60 18.5 75t21.5 15q29 0 29 -22q0 -3 -2 -11q-28 -91 -28 -209q0 -49 22 -49q28 0 73 62.5t82 142.5q0 127 50 127q17 0 26.5 -12.5t9.5 -25.5
q0 -9 -8.5 -24.5t-17.5 -43t-9 -66.5q0 -76 47 -76q44 0 79 74l13 -10q-36 -84 -99 -84q-64 0 -84 84q-42 -78 -91.5 -132.5t-92.5 -54.5q-54 0 -54 97q0 36 7 90q-89 -178 -159 -178h-1q-32 0 -53.5 29.5t-21.5 71.5z" />
    <glyph glyph-name="x" unicode="x" horiz-adv-x="418" 
d="M10 145l20 43q13 29 22.5 46.5t24 37.5t33.5 29.5t44 9.5q65 0 83 -95q111 116 136 116q6 0 15.5 -3t9.5 -8q-31 0 -155 -144q1 -13 3 -34.5t3 -34.5t3 -30.5t5.5 -28t8.5 -20.5t13 -14.5t18 -4.5q34 0 75.5 49t65.5 102l10 -10q-23 -68 -74.5 -122.5t-101.5 -54.5
q-40 0 -58.5 36.5t-26.5 100.5l-131 -163q-6 -7 -12 -7q-10 0 -10 15q0 35 148 200q-3 31 -5.5 45.5t-7.5 34.5t-12.5 28t-18.5 8q-14 0 -26 -6t-25.5 -24.5t-20.5 -29t-24 -41.5l-23 -42z" />
    <glyph glyph-name="y" unicode="y" horiz-adv-x="389" 
d="M-20 -227q0 25 12 47.5t25.5 37.5t46 35.5t50.5 29.5l60 31q30 77 56 183q-78 -127 -146 -127q-32 0 -56 21t-24 60q0 55 33 136.5t55 81.5q9 0 26.5 -7.5t17.5 -15.5q-20 -29 -43 -93.5t-23 -102.5q0 -40 36 -40q27 0 63.5 37t69.5 91q5 17 10 46q11 51 51 51q9 0 21 -3
q0 -27 -22.5 -111t-55.5 -169q113 44 165 170l13 -10q-37 -117 -189 -187q-100 -245 -189 -245q-27 0 -45 14t-18 39zM11 -218q0 -10 7 -20t20 -10q11 0 29 16t45 58.5t52 103.5q-40 -21 -60.5 -33.5t-45.5 -31.5t-36 -39t-11 -44z" />
    <glyph glyph-name="z" unicode="z" horiz-adv-x="317" 
d="M-71 -229q0 25 13 47.5t41 45t54 39.5l68 42q43 26 69 43q0 73 -69 127q49 14 79 59t30 88q0 24 -10 38.5t-29 14.5t-37.5 -10.5t-31.5 -24t-29.5 -41.5t-26 -47t-27.5 -58l-12 10q39 105 77.5 157t100.5 52q35 0 59 -22.5t24 -59.5q0 -51 -34 -93t-84 -67q52 -40 70 -90
q86 65 111 141l11 -12q-25 -79 -116 -148q4 -13 4 -33q0 -92 -74 -170.5t-165 -78.5q-66 0 -66 51zM-43 -218q0 -33 31 -33q47 0 111.5 61.5t73.5 154.5l-62 -38l-61 -38q-21 -13 -46 -32.5t-36 -37.5t-11 -37z" />
    <glyph glyph-name="braceleft" unicode="{" horiz-adv-x="260" 
d="M37 -21q0 33 37 123t37 131q0 69 -36 98q40 4 59.5 45.5t23.5 97.5l9 113q4 56 25 94.5t63 38.5q50 0 55 -53q-26 14 -33 14q-24 0 -37.5 -35.5t-19.5 -87.5l-12 -103q-6 -52 -23 -89.5t-44 -40.5q26 -27 26 -69q0 -53 -19 -107.5t-38 -100.5t-19 -78t33 -32q15 0 25 8
q-3 -33 -47 -33q-65 0 -65 66z" />
    <glyph glyph-name="bar" unicode="|" horiz-adv-x="259" 
d="M55 -132q32 87 63 441t41 388q28 -12 28 -57q0 -86 -11.5 -290.5t-21.5 -297.5q-19 -184 -99 -184z" />
    <glyph glyph-name="braceright" unicode="}" horiz-adv-x="256" 
d="M-21 -34q18 -12 34 -12q27 0 40.5 45.5t24.5 129.5q7 57 13 92t23 74t42 52q-25 28 -25 72q0 47 35.5 138t35.5 115q0 15 -7 15q-19 0 -41 -17q4 21 26 35.5t42 14.5q18 0 29 -10t11 -24q0 -17 -37 -109t-37 -143q0 -71 35 -95q-42 -10 -63 -58t-25.5 -108.5t-10 -120
t-26 -99.5t-62.5 -40q-52 0 -57 53z" />
    <glyph glyph-name="asciitilde" unicode="~" horiz-adv-x="435" 
d="M40 160q35 46 83 46q26 0 90.5 -22t103.5 -22q15 0 30 3q-32 -36 -78 -36q-28 0 -89.5 19.5t-93.5 19.5q-26 0 -46 -8z" />
    <glyph glyph-name="exclamdown" unicode="&#xa1;" horiz-adv-x="264" 
d="M-79 -227q0 40 117.5 273.5t176.5 320.5q0 -47 -55 -190l-39 -101l-38 -94q-24 -59 -41 -93l-36 -69q-20 -36 -36 -53t-29 -17q-8 0 -14 6.5t-6 16.5zM192 436q0 15 16.5 29.5t35.5 14.5q32 0 32 -27q0 -16 -19 -28.5t-39 -12.5q-26 0 -26 24z" />
    <glyph glyph-name="cent" unicode="&#xa2;" horiz-adv-x="403" 
d="M52 242q0 85 62.5 162.5t137.5 97.5q22 103 32 173q5 37 45 45l-40 -212q39 0 56 -21.5t17 -52.5q0 -30 -13.5 -51.5t-36.5 -21.5q-17 0 -29 15q15 7 26 31.5t11 47.5q0 25 -22 25q-10 0 -15 -1q-39 -210 -63 -324q68 12 121 59l17 -16q-61 -58 -145 -78l-23 -98
q-9 -37 -22.5 -76t-26.5 -60t-31.5 -34.5t-41.5 -13.5q34 38 95 276q-50 0 -80.5 33t-30.5 95zM114 235q0 -75 59 -83q33 129 72 313q-53 -29 -92 -99t-39 -131z" />
    <glyph glyph-name="sterling" unicode="&#xa3;" horiz-adv-x="650" 
d="M-21 34q0 44 73 44q44 0 123 -21q27 46 50 113q-78 -9 -82 -10l-34 -5q4 66 135 70l15 46q-16 -3 -48 -6t-48 -5l-34 -5q4 70 147 70l24 75q-46 15 -72.5 44t-26.5 63q0 29 17.5 54t44.5 25q-13 -18 -13 -62q0 -72 57 -103q22 67 42 115t46.5 93t58.5 68t68 23
q37 0 67 -24t30 -78q0 -36 -15 -75t-43 -74.5t-75.5 -58t-106.5 -22.5h-16q-12 -32 -22 -66q24 -2 77.5 -8t77.5 -6q-16 -22 -43.5 -27t-128.5 -7q-12 -34 -19 -51q30 -2 88 -8t83 -7q-16 -23 -45.5 -28t-145.5 -7q-38 -87 -66 -129q9 -3 45 -14l49 -15q13 -4 43.5 -12
t47.5 -11.5t39.5 -6.5t40.5 -3q40 0 71 16q-30 -85 -105 -85q-26 0 -62.5 10.5t-58 19.5t-74.5 33.5t-65 29.5q-53 -59 -111 -59q-45 0 -72.5 29t-27.5 58zM5 33q0 -19 20.5 -38t49.5 -19q42 0 77 46q-74 30 -114 30q-33 0 -33 -19zM369 407q82 1 139 84t57 154q0 50 -36 50
q-22 0 -43 -21t-42 -67.5t-36 -87.5z" />
    <glyph glyph-name="currency" unicode="&#xa4;" horiz-adv-x="697" 
d="M83 43q10 10 36.5 29t55.5 45.5t54 62.5q-9 27 -9 67q0 91 46 177q-73 79 -118 120q-18 16 -18 60q0 19 6 34q28 -27 157 -169q58 77 130 77t103 -68q14 16 34 45t31 42t33.5 24.5t51.5 11.5q6 0 18 -2q-12 -17 -154 -182q0 -3 0.5 -8t0.5 -8q0 -94 -54 -189
q114 -107 114 -170q0 -12 -2 -18q-8 15 -28 35l-54 53l-58 57q-58 -73 -124 -73q-54 0 -83 40q-83 -93 -169 -93zM277 237q0 -37 21 -62.5t45 -25.5q33 0 67.5 43.5t56 105.5t21.5 114q0 35 -20 59.5t-45 24.5q-38 0 -73.5 -47t-54 -106.5t-18.5 -105.5z" />
    <glyph glyph-name="yen" unicode="&#xa5;" horiz-adv-x="810" 
d="M110 539q0 65 58 123t133 58q53 0 78.5 -30t25.5 -71q0 -33 -33.5 -154t-33.5 -178q0 -96 70 -96q63 0 117 72t95 177q68 280 120 280q26 0 56 -32q-50 -80 -76 -159t-89 -335l-21 -81q58 -3 102 -7q-40 -29 -103 -29h-9q-10 -32 -22 -63q48 -1 134 -8q-40 -29 -103 -29
h-47q-76 -164 -220 -164q-60 0 -99 25t-39 69q0 55 60 75q-8 -27 -8 -54q0 -42 22 -66t65 -24q100 0 163 139q-85 0 -151 -11q17 45 166 49q7 17 20 62h-5q-110 0 -181 -11q18 49 189 49h6l2 6l18 90q14 70 24 115q-91 -175 -217 -175q-109 0 -109 119q0 54 34 177t34 167
q0 78 -57 78q-50 0 -79 -57t-29 -116q0 -30 8 -49q-69 0 -69 69z" />
    <glyph glyph-name="brokenbar" unicode="&#xa6;" horiz-adv-x="260" 
d="M55 -132q27 72 53 329q20 20 46 20q12 0 12 -23q-12 -177 -33 -251.5t-78 -74.5zM117 296q3 38 9 103l9 103q3 37 7.5 81.5t8.5 72t8 41.5q28 -12 28 -57q0 -19 -5 -109t-5 -149q0 -14 -7.5 -34t-24.5 -32z" />
    <glyph glyph-name="section" unicode="&#xa7;" horiz-adv-x="416" 
d="M7 28q0 45 24.5 65t56.5 20q-35 -37 -35 -85q0 -38 25 -64t73 -26q47 0 83 25t36 68q0 30 -20.5 55.5t-49.5 44.5l-58 40q-29 21 -49.5 51.5t-20.5 67.5q0 57 42.5 98.5t117.5 41.5q16 0 24 -1q-26 15 -39 23.5t-31 24t-26 33t-8 39.5q0 58 52 114t126 56q71 0 71 -63
t-49 -141q-21 4 -21 27q0 18 18.5 67t18.5 68q0 27 -35 27q-57 0 -99 -48t-42 -94q0 -26 18.5 -46t45 -35.5t52.5 -34t44.5 -50.5t18.5 -76q0 -64 -36.5 -96.5t-100.5 -32.5q-16 0 -23.5 1.5t-20 7.5t-24.5 10q7 -8 48.5 -31t70.5 -54.5t29 -74.5q0 -60 -55 -98.5
t-119 -38.5q-56 0 -94.5 30t-38.5 85zM128 310q0 -79 91 -79q95 0 95 85q0 39 -22 62t-65 23q-42 0 -70.5 -22.5t-28.5 -68.5z" />
    <glyph glyph-name="dieresis" unicode="&#xa8;" horiz-adv-x="239" 
d="M0 466q0 18 21.5 32.5t44.5 14.5q30 0 30 -28q0 -17 -18.5 -33t-40.5 -16q-37 0 -37 30zM144 445q0 18 21.5 32.5t44.5 14.5q30 0 30 -28q0 -17 -18.5 -33t-40.5 -16q-37 0 -37 30z" />
    <glyph glyph-name="copyright" unicode="&#xa9;" 
d="M79 358q0 124 77 193t171 69t169 -68.5t75 -189.5q0 -124 -77 -193t-171 -69t-169 68.5t-75 189.5zM107 358q0 -101 60 -165.5t156 -64.5t158 65t62 169q0 101 -60 165.5t-156 64.5t-158 -65t-62 -169zM245 299v132q0 47 22.5 69t58.5 22q41 0 61.5 -24t20.5 -47
q0 -17 -15 -17q-13 0 -15 12q-8 49 -51 49q-52 0 -52 -64v-132q0 -64 54 -64q25 0 37 17.5t12 31.5q0 12 13 12q17 0 17 -14q-2 -32 -23.5 -52.5t-58.5 -20.5q-81 0 -81 90z" />
    <glyph glyph-name="ordfeminine" unicode="&#xaa;" horiz-adv-x="383" 
d="M105 506q0 65 64 139.5t130 74.5q27 0 45 -14.5t18 -37.5q0 -30 -34 -30q4 16 4 24q0 40 -35 40q-47 0 -95.5 -72t-48.5 -127q0 -27 19 -27q45 0 147 153q28 -7 28 -18q0 -6 -20.5 -42t-20.5 -55q0 -12 6 -21.5t18 -9.5q20 0 51 29t61 82l7 -7q-21 -56 -61 -92t-77 -36
q-25 0 -38 14.5t-13 34.5q0 5 2 21q-61 -82 -105 -82q-23 0 -37.5 15t-14.5 44z" />
    <glyph glyph-name="guillemotleft" unicode="&#xab;" horiz-adv-x="435" 
d="M6 158q49 21 103.5 67t86.5 91q5 -8 5 -22q0 -59 -169 -147l43 -30q15 -10 45 -25t74 -32q-14 -16 -29 -16q-36 0 -93.5 42t-65.5 72zM156 158q49 21 103.5 67t86.5 91q5 -8 5 -22q0 -59 -169 -147q28 -20 43 -30t45 -25t74 -32q-14 -16 -29 -16q-36 0 -93.5 42t-65.5 72
z" />
    <glyph glyph-name="logicalnot" unicode="&#xac;" horiz-adv-x="667" 
d="M44 184q29 49 302 49q86 0 155 -3q5 31 28 52q0 -3 2.5 -21.5t3.5 -32.5q17 0 80 -4q-30 -14 -78 -23q0 -6 0.5 -18t0.5 -18q0 -120 -49 -132q4 17 6 29.5t3 29t1.5 26.5t0.5 37v42q-18 -2 -50 -2q-59 -1 -134 -1h-105q-29 0 -73 -2.5t-94 -7.5z" />
    <glyph glyph-name="uni00AD" unicode="&#xad;" horiz-adv-x="484" 
d="M35 144q18 49 189 49q81 0 168 -9q-24 -16 -64.5 -22.5t-139.5 -6.5q-86 0 -153 -11z" />
    <glyph glyph-name="registered" unicode="&#xae;" 
d="M79 358q0 124 77 193t171 69t169 -68.5t75 -189.5q0 -124 -77 -193t-171 -69t-169 68.5t-75 189.5zM107 358q0 -101 60 -165.5t156 -64.5t158 65t62 169q0 101 -60 165.5t-156 64.5t-158 -65t-62 -169zM251 224v284q0 5 4.5 9t10.5 4h63q86 0 86 -84q0 -69 -60 -82
l58 -124q2 -4 2 -7q0 -14 -14 -14q-4 0 -8.5 4t-7 8t-5.5 10l-4 7l-53 114h-41v-129q0 -14 -15 -14q-16 0 -16 14zM282 379h47q55 0 55 58q0 57 -55 57h-47v-115z" />
    <glyph glyph-name="degree" unicode="&#xb0;" horiz-adv-x="265" 
d="M92 450q0 38 37 75t85 37q76 0 76 -54q0 -38 -38.5 -75t-87.5 -37q-72 0 -72 54zM124 450q0 -37 45 -37q31 0 61 33t30 63q0 36 -46 36q-32 0 -61 -32t-29 -63z" />
    <glyph glyph-name="plusminus" unicode="&#xb1;" horiz-adv-x="449" 
d="M54 84q16 39 170 39q90 0 151 -7q-38 -23 -153 -23q-103 0 -168 -9zM54 289q14 36 143 39v40q0 51 26 82q7 -48 8 -122q71 -1 144 -7q-36 -24 -93 -24h-51q-3 -118 -44 -132q10 54 10 132q-87 0 -143 -8z" />
    <glyph glyph-name="uni00B2" unicode="&#xb2;" horiz-adv-x="354" 
d="M72 349q0 26 41 26q16 0 51 -7q49 43 89.5 118t40.5 137q0 68 -49 68q-29 0 -46.5 -28t-17.5 -70q0 -16 7 -36h-8q-20 6 -29 16t-9 30q0 42 32 73.5t79 31.5q37 0 60.5 -26.5t23.5 -65.5q0 -63 -42 -135t-99 -119l8 -2q68 -16 91 -16q16 0 44 18q-15 -58 -57 -58
q-29 0 -97 29l-19 8q-32 -21 -56 -21q-17 0 -27.5 8t-10.5 21zM95 348q0 -10 14 -10q10 0 31 13q-18 7 -31 7q-14 0 -14 -10z" />
    <glyph glyph-name="uni00B3" unicode="&#xb3;" horiz-adv-x="294" 
d="M81 387q0 21 12 38t33 17q8 0 14 -2q-17 -14 -17 -47q0 -24 13 -41.5t35 -17.5q29 0 53 31t24 77q0 76 -59 91q37 16 60.5 52.5t23.5 68.5q0 47 -41 47q-21 0 -37 -14t-16 -38q0 -14 8 -33q-8 -16 -24 -16q-10 0 -15.5 13t-5.5 28q0 35 29 56t67 21q33 0 56.5 -17.5
t23.5 -48.5q0 -33 -23.5 -67.5t-58.5 -46.5q36 -12 53 -39.5t17 -56.5q0 -49 -41 -88.5t-99 -39.5q-43 0 -64 22.5t-21 50.5z" />
    <glyph glyph-name="acute" unicode="&#xb4;" horiz-adv-x="125" 
d="M88 436q0 21 38.5 71t65.5 50q19 0 22 -31q-74 -64 -112 -116q-14 7 -14 26z" />
    <glyph glyph-name="uni00B5" unicode="&#xb5;" horiz-adv-x="584" 
d="M-40 -242q11 40 44 126t56 189t45 283q1 10 4.5 13.5t14.5 3.5q24 0 36 -13.5t12 -32.5q-48 -215 -48 -267q0 -50 29 -50q13 0 27.5 10t29.5 29.5t28.5 39t29.5 48.5l25 49l24 48q13 29 18 37q48 -9 48 -26q0 -3 -16.5 -40.5t-33.5 -86.5t-17 -78q0 -40 33 -40
q34 0 83 44.5t84 117.5l13 -9q-32 -80 -89.5 -131.5t-111.5 -51.5q-70 0 -70 74q0 20 7 50q-70 -124 -131 -124q-25 0 -42 17q-75 -267 -101 -267q-12 0 -21.5 16t-9.5 22z" />
    <glyph glyph-name="paragraph" unicode="&#xb6;" horiz-adv-x="644" 
d="M61 336q0 70 50.5 125.5t119 83.5t141.5 34q-2 74 -9 129q16 8 29 8t21 -9t11 -26.5t4 -33t1 -38t1 -31.5l42 -6q-2 89 -6 136q12 8 26 8q28 0 36 -158q48 -16 83 -33q-3 -7 -19 -17t-22 -10q-1 0 -41 21q1 -17 1 -51q0 -144 -3 -262.5t-6.5 -174.5t-6.5 -68
q-8 -23 -27 -36.5t-41 -13.5q3 6 9 108.5t11.5 255t5.5 264.5v4q-17 5 -41 10q3 -75 3 -221q0 -103 -3.5 -190.5t-7 -129.5t-6.5 -51q-8 -21 -34.5 -35.5t-53.5 -14.5q3 37 10.5 120t10.5 123q-30 1 -61.5 5.5t-74.5 17t-75 31t-55 51.5t-23 75z" />
    <glyph glyph-name="periodcentered" unicode="&#xb7;" horiz-adv-x="209" 
d="M38 151q0 16 19 28.5t39 12.5q26 0 26 -24q0 -15 -16.5 -29.5t-35.5 -14.5q-32 0 -32 27z" />
    <glyph glyph-name="cedilla" unicode="&#xb8;" horiz-adv-x="217" 
d="M20 -137q0 17 22 33q10 -45 42 -45q28 0 55.5 30t27.5 57q0 25 -17 25q-15 0 -48 -20.5t-37 -20.5q-6 0 -10 6t-4 12q0 3 21 32t32 39l35 27l-53 -81q34 24 67 24q45 0 45 -42q0 -43 -35.5 -77.5t-81.5 -34.5q-28 0 -44.5 10.5t-16.5 25.5z" />
    <glyph glyph-name="uni00B9" unicode="&#xb9;" horiz-adv-x="259" 
d="M66 338h12q2 0 5 -0.5t4 -0.5q22 0 50 5q18 41 40.5 161t27.5 137q-40 -26 -51 -26q-15 0 -15 18q14 7 47 33t58 52h6q5 -5 5 -16t-6 -33q-4 -17 -18 -85l-19 -95l-13 -62q-13 -61 -28 -79q5 1 13 1q46 0 52 -32q-26 2 -43 2q-18 0 -44.5 -2t-39.5 -2q-27 0 -43 24z" />
    <glyph glyph-name="ordmasculine" unicode="&#xba;" horiz-adv-x="279" 
d="M107 512q0 61 55 134.5t115 73.5q23 0 30 -14q14 0 21.5 -8.5t7.5 -18.5q0 -6 -14 -36.5t-14 -51.5q0 -16 20 -16q3 0 27 3q-11 -20 -41 -20q-19 0 -26 13q-23 -54 -56 -86.5t-69 -32.5q-26 0 -41 16.5t-15 43.5zM152 517q0 -35 27 -35q23 0 52 31t48 76q-4 16 -4 40
q0 45 13 64q-54 0 -95 -63.5t-41 -112.5z" />
    <glyph glyph-name="guillemotright" unicode="&#xbb;" horiz-adv-x="454" 
d="M51 294q0 14 5 22q32 -45 86.5 -91t103.5 -67q-8 -30 -65.5 -72t-93.5 -42q-15 0 -29 16q44 17 74 32t45 25l43 30q-169 88 -169 147zM201 294q0 14 5 22q32 -45 86.5 -91t103.5 -67q-8 -30 -65.5 -72t-93.5 -42q-15 0 -29 16q44 17 74 32t45 25l43 30q-169 88 -169 147z
" />
    <glyph glyph-name="onequarter" unicode="&#xbc;" horiz-adv-x="642" 
d="M45 -87q67 67 220.5 342t209.5 420q5 15 33 30t51 15q-19 -48 -144 -287.5t-185 -335.5q-57 -91 -101 -137.5t-84 -46.5zM66 338h12q2 0 5 -0.5t4 -0.5q22 0 50 5q18 41 40.5 161t27.5 137q-40 -26 -51 -26q-15 0 -15 18q14 7 47 33t58 52h6q5 -5 5 -16t-6 -33
q-4 -17 -18 -85l-19 -95l-13 -62q-13 -61 -28 -79q5 1 13 1q46 0 52 -32q-26 2 -43 2q-18 0 -44.5 -2t-39.5 -2q-27 0 -43 24zM350 126q0 15 10 25q165 146 209 226q13 -2 13 -14q0 -3 -5.5 -22.5t-17 -68t-23.5 -108.5h17q11 0 36 5q-25 -35 -51 -35h-7q-21 -105 -21 -160
q-48 3 -48 26q0 19 25 134q-4 0 -10 0.5t-9 0.5h-17q-61 0 -101 -9zM405 165q24 2 43 2q5 0 14.5 -0.5t13.5 -0.5h19l5 23q12 60 22 90l-44 -43q-64 -61 -73 -71z" />
    <glyph glyph-name="onehalf" unicode="&#xbd;" horiz-adv-x="698" 
d="M51 -87q67 67 220.5 342t209.5 420q5 15 33 30t51 15q-19 -48 -144 -287.5t-185 -335.5q-57 -91 -101 -137.5t-84 -46.5zM72 338h12q2 0 5 -0.5t4 -0.5q22 0 50 5q18 41 40.5 161t27.5 137q-40 -26 -51 -26q-15 0 -15 18q14 7 47 33t58 52h6q5 -5 5 -16t-6 -33
q-4 -17 -17.5 -84.5t-19.5 -95.5l-13 -62q-13 -61 -28 -79q5 1 13 1q46 0 52 -32q-26 2 -43 2q-18 0 -44.5 -2t-39.5 -2q-26 0 -43 24zM345 19q0 26 41 26q16 0 51 -7q49 43 89.5 118t40.5 137q0 68 -49 68q-29 0 -46.5 -28t-17.5 -70q0 -16 7 -36h-8q-20 6 -29 16t-9 30
q0 42 32 73.5t79 31.5q37 0 60.5 -26.5t23.5 -65.5q0 -63 -42 -135t-99 -119l8 -2q68 -16 91 -16q16 0 44 18q-14 -58 -57 -58q-29 0 -97 29l-19 8q-31 -21 -56 -21q-17 0 -27.5 8t-10.5 21zM368 18q0 -10 14 -10q10 0 31 13q-18 7 -31 7q-14 0 -14 -10z" />
    <glyph glyph-name="threequarters" unicode="&#xbe;" horiz-adv-x="685" 
d="M83 387q0 21 12 38t33 17q8 0 14 -2q-17 -14 -17 -47q0 -24 13 -41.5t35 -17.5q29 0 53 31t24 77q0 76 -59 91q37 16 60.5 52.5t23.5 68.5q0 47 -41 47q-21 0 -37 -14t-16 -38q0 -14 8 -33q-8 -16 -24 -16q-10 0 -15.5 13t-5.5 28q0 35 29 56t67 21q33 0 56.5 -17.5
t23.5 -48.5q0 -33 -23.5 -67.5t-58.5 -46.5q36 -12 53 -39.5t17 -56.5q0 -49 -41 -88.5t-99 -39.5q-43 0 -64 22.5t-21 50.5zM88 -87q67 67 220.5 342t209.5 420q5 15 33 30t51 15q-19 -48 -144 -287.5t-185 -335.5q-57 -91 -101 -137.5t-84 -46.5zM393 126q0 15 10 25
q165 146 209 226q13 -2 13 -14q0 -3 -5.5 -22.5t-17 -68t-23.5 -108.5h17q11 0 36 5q-25 -35 -51 -35h-7q-21 -105 -21 -160q-48 3 -48 26q0 19 25 134q-4 0 -10 0.5t-9 0.5h-17q-60 0 -101 -9zM448 165q24 2 43 2q5 0 14.5 -0.5t13.5 -0.5h19l5 23q12 60 22 90l-44 -43
q-64 -61 -73 -71z" />
    <glyph glyph-name="questiondown" unicode="&#xbf;" horiz-adv-x="415" 
d="M-50 -161q0 37 16 69.5t40 59.5l51 52q26 26 51 61t37 73q6 18 11.5 52t13.5 50q19 -9 25 -17t6 -25q0 -39 -19.5 -77t-47.5 -69l-57 -63q-29 -32 -48 -73t-19 -85q0 -49 22 -75.5t57 -26.5q55 0 103 57t48 134q0 21 -7 51q36 -5 49 -22t13 -47q0 -79 -60 -138.5
t-150 -59.5q-63 0 -99 31t-36 88zM156 344q0 17 16 31.5t36 14.5q13 0 22.5 -7t9.5 -19q0 -17 -18.5 -29.5t-39.5 -12.5q-26 0 -26 22z" />
    <glyph glyph-name="Agrave" unicode="&#xc0;" 
d="M-17 -35q0 75 152 313q-61 5 -108 5h-35q19 52 104 52q26 0 72 -7q77 116 156.5 218.5t125.5 145.5q29 28 48 28q21 0 53 -32q-33 -26 -94.5 -248.5t-61.5 -345.5q0 -80 37 -80q55 0 131 148l10 -10q-31 -82 -77.5 -132t-95.5 -50q-78 0 -78 134q0 64 17 149
q-64 10 -148 20q-98 -180 -174 -360q-34 19 -34 52zM217 319l73 -17q47 -11 56 -14q42 197 120 369q-91 -56 -249 -338zM435 864q3 31 22 31q27 0 65.5 -50t38.5 -71q0 -19 -14 -26q-38 52 -112 116z" />
    <glyph glyph-name="Aacute" unicode="&#xc1;" 
d="M-17 -35q0 75 152 313q-61 5 -108 5h-35q19 52 104 52q26 0 72 -7q77 116 156.5 218.5t125.5 145.5q29 28 48 28q21 0 53 -32q-33 -26 -94.5 -248.5t-61.5 -345.5q0 -80 37 -80q55 0 131 148l10 -10q-31 -82 -77.5 -132t-95.5 -50q-78 0 -78 134q0 64 17 149
q-64 10 -148 20q-98 -180 -174 -360q-34 19 -34 52zM217 319l73 -17q47 -11 56 -14q42 197 120 369q-91 -56 -249 -338zM516 774q0 21 38.5 71t65.5 50q19 0 22 -31q-74 -64 -112 -116q-14 7 -14 26z" />
    <glyph glyph-name="Acircumflex" unicode="&#xc2;" 
d="M-17 -35q0 75 152 313q-61 5 -108 5h-35q19 52 104 52q26 0 72 -7q77 116 156.5 218.5t125.5 145.5q29 28 48 28q21 0 53 -32q-33 -26 -94.5 -248.5t-61.5 -345.5q0 -80 37 -80q55 0 131 148l10 -10q-31 -82 -77.5 -132t-95.5 -50q-78 0 -78 134q0 64 17 149
q-64 10 -148 20q-98 -180 -174 -360q-34 19 -34 52zM217 319l73 -17q47 -11 56 -14q42 197 120 369q-91 -56 -249 -338zM418 798q0 27 45 57.5t69 30.5t57 -39.5t33 -71.5q0 -23 -17 -31q-21 43 -74 92q-66 -24 -103 -57q-10 6 -10 19z" />
    <glyph glyph-name="Atilde" unicode="&#xc3;" 
d="M-17 -35q0 75 152 313q-61 5 -108 5h-35q19 52 104 52q26 0 72 -7q77 116 156.5 218.5t125.5 145.5q29 28 48 28q21 0 53 -32q-33 -26 -94.5 -248.5t-61.5 -345.5q0 -80 37 -80q55 0 131 148l10 -10q-31 -82 -77.5 -132t-95.5 -50q-78 0 -78 134q0 64 17 149
q-64 10 -148 20q-98 -180 -174 -360q-34 19 -34 52zM217 319l73 -17q47 -11 56 -14q42 197 120 369q-91 -56 -249 -338zM373 759q35 46 83 46q26 0 90.5 -22t103.5 -22q15 0 30 3q-32 -36 -78 -36q-28 0 -89.5 19.5t-93.5 19.5q-26 0 -46 -8z" />
    <glyph glyph-name="Adieresis" unicode="&#xc4;" 
d="M-17 -35q0 75 152 313q-61 5 -108 5h-35q19 52 104 52q26 0 72 -7q77 116 156.5 218.5t125.5 145.5q29 28 48 28q21 0 53 -32q-33 -26 -94.5 -248.5t-61.5 -345.5q0 -80 37 -80q55 0 131 148l10 -10q-31 -82 -77.5 -132t-95.5 -50q-78 0 -78 134q0 64 17 149
q-64 10 -148 20q-98 -180 -174 -360q-34 19 -34 52zM217 319l73 -17q47 -11 56 -14q42 197 120 369q-91 -56 -249 -338zM411 804q0 18 21.5 32.5t44.5 14.5q30 0 30 -28q0 -17 -18.5 -33t-40.5 -16q-37 0 -37 30zM555 783q0 18 21.5 32.5t44.5 14.5q30 0 30 -28
q0 -17 -18.5 -33t-40.5 -16q-37 0 -37 30z" />
    <glyph glyph-name="Aring" unicode="&#xc5;" 
d="M-17 -35q0 75 152 313q-61 5 -108 5h-35q19 52 104 52q26 0 72 -7q77 116 156.5 218.5t125.5 145.5q29 28 48 28q21 0 53 -32q-33 -26 -94.5 -248.5t-61.5 -345.5q0 -80 37 -80q55 0 131 148l10 -10q-31 -82 -77.5 -132t-95.5 -50q-78 0 -78 134q0 64 17 149
q-64 10 -148 20q-98 -180 -174 -360q-34 19 -34 52zM217 319l73 -17q47 -11 56 -14q42 197 120 369q-91 -56 -249 -338zM452 808q0 38 37 75t85 37q76 0 76 -54q0 -38 -38.5 -75t-87.5 -37q-72 0 -72 54zM491 815q0 -15 11 -28t31 -13q28 0 54 29.5t26 56.5q0 15 -11.5 26
t-32.5 11q-29 0 -53.5 -27t-24.5 -55z" />
    <glyph glyph-name="AE" unicode="&#xc6;" horiz-adv-x="747" 
d="M-17 -35q0 75 152 313q-61 5 -108 5h-35q19 52 104 52q26 0 72 -7q108 162 203 277t127 115q148 0 309 -23q-13 -36 -170 -36q-41 0 -103 2q-38 -75 -84 -248q41 -1 79 -5t81.5 -10.5t47.5 -7.5q-13 -36 -170 -36q-39 0 -53 1q-40 -170 -40 -263q0 -24 3 -41
q39 -6 143.5 -15t128.5 -15q-13 -36 -170 -36q-111 0 -149 4q-29 29 -29 113q0 64 17 149q-64 10 -148 20q-98 -180 -174 -360q-34 19 -34 52zM217 319l73 -17q47 -11 56 -14q42 197 120 369q-91 -56 -249 -338z" />
    <glyph glyph-name="Ccedilla" unicode="&#xc7;" horiz-adv-x="562" 
d="M22 157q0 96 38 198.5t96 182t133 130.5t144 51q92 0 92 -86q0 -62 -38.5 -137.5t-77.5 -75.5q-20 0 -31 23q37 42 72 102t35 99q0 45 -49 45q-69 0 -148.5 -89.5t-132.5 -219.5t-53 -240q0 -82 35 -137.5t106 -55.5q77 0 154 63t118 152l14 -10q-41 -79 -94 -135
l-39 -60q34 24 67 24q45 0 45 -42q0 -43 -35.5 -77.5t-81.5 -34.5q-28 0 -44.5 10.5t-16.5 25.5q0 17 22 33q10 -45 42 -45q28 0 55.5 30t27.5 57q0 25 -17 25q-15 0 -48 -20.5t-37 -20.5q-6 0 -10 6t-4 12q0 3 18 28q-78 -55 -160 -55q-99 0 -148 71t-49 173z" />
    <glyph glyph-name="Egrave" unicode="&#xc8;" horiz-adv-x="498" 
d="M-15 95q0 93 76 171t183 88q-76 63 -76 158q0 82 59.5 144.5t146.5 62.5q55 0 84.5 -28t29.5 -80q0 -54 -27 -102.5t-53 -48.5q-22 0 -37 32q84 73 84 139q0 65 -71 65q-67 0 -105 -57.5t-38 -143.5q0 -101 58 -151q-96 -16 -158.5 -92t-62.5 -160q0 -57 31.5 -101
t96.5 -44q77 0 154 63t118 152l14 -10q-56 -108 -136 -173.5t-176 -65.5q-88 0 -141.5 52.5t-53.5 129.5zM307 864q3 31 22 31q27 0 65.5 -50t38.5 -71q0 -19 -14 -26q-38 52 -112 116z" />
    <glyph glyph-name="Eacute" unicode="&#xc9;" horiz-adv-x="498" 
d="M-15 95q0 93 76 171t183 88q-76 63 -76 158q0 82 59.5 144.5t146.5 62.5q55 0 84.5 -28t29.5 -80q0 -54 -27 -102.5t-53 -48.5q-22 0 -37 32q84 73 84 139q0 65 -71 65q-67 0 -105 -57.5t-38 -143.5q0 -101 58 -151q-96 -16 -158.5 -92t-62.5 -160q0 -57 31.5 -101
t96.5 -44q77 0 154 63t118 152l14 -10q-56 -108 -136 -173.5t-176 -65.5q-88 0 -141.5 52.5t-53.5 129.5zM415 774q0 21 38.5 71t65.5 50q19 0 22 -31q-74 -64 -112 -116q-14 7 -14 26z" />
    <glyph glyph-name="Ecircumflex" unicode="&#xca;" horiz-adv-x="498" 
d="M-15 95q0 93 76 171t183 88q-76 63 -76 158q0 82 59.5 144.5t146.5 62.5q55 0 84.5 -28t29.5 -80q0 -54 -27 -102.5t-53 -48.5q-22 0 -37 32q84 73 84 139q0 65 -71 65q-67 0 -105 -57.5t-38 -143.5q0 -101 58 -151q-96 -16 -158.5 -92t-62.5 -160q0 -57 31.5 -101
t96.5 -44q77 0 154 63t118 152l14 -10q-56 -108 -136 -173.5t-176 -65.5q-88 0 -141.5 52.5t-53.5 129.5zM335 798q0 27 45 57.5t69 30.5t57 -39.5t33 -71.5q0 -23 -17 -31q-21 43 -74 92q-67 -24 -103 -57q-10 6 -10 19z" />
    <glyph glyph-name="Edieresis" unicode="&#xcb;" horiz-adv-x="498" 
d="M-15 95q0 93 76 171t183 88q-76 63 -76 158q0 82 59.5 144.5t146.5 62.5q55 0 84.5 -28t29.5 -80q0 -54 -27 -102.5t-53 -48.5q-22 0 -37 32q84 73 84 139q0 65 -71 65q-67 0 -105 -57.5t-38 -143.5q0 -101 58 -151q-96 -16 -158.5 -92t-62.5 -160q0 -57 31.5 -101
t96.5 -44q77 0 154 63t118 152l14 -10q-56 -108 -136 -173.5t-176 -65.5q-88 0 -141.5 52.5t-53.5 129.5zM313 804q0 18 21.5 32.5t44.5 14.5q30 0 30 -28q0 -17 -18.5 -33t-40.5 -16q-37 0 -37 30zM457 783q0 18 21.5 32.5t44.5 14.5q30 0 30 -28q0 -17 -18.5 -33
t-40.5 -16q-37 0 -37 30z" />
    <glyph glyph-name="Igrave" unicode="&#xcc;" horiz-adv-x="459" 
d="M-38 -88q3 26 16 43t37.5 24.5t48.5 10t61 2.5q42 91 106 363t76 306q-133 -3 -225 -20q14 77 204 77q121 0 262 -21q-35 -35 -97 -35q-78 0 -109 -1q-74 -398 -99 -499q-35 -138 -84 -171q29 -2 105.5 -10t111.5 -9q-43 -43 -113 -43h-61q-49 0 -66.5 -1t-54 -2.5
t-64 -5t-55.5 -8.5zM234 864q3 31 22 31q27 0 65.5 -50t38.5 -71q0 -19 -14 -26q-38 52 -112 116z" />
    <glyph glyph-name="Iacute" unicode="&#xcd;" horiz-adv-x="459" 
d="M-38 -88q3 26 16 43t37.5 24.5t48.5 10t61 2.5q42 91 106 363t76 306q-133 -3 -225 -20q14 77 204 77q121 0 262 -21q-35 -35 -97 -35q-78 0 -109 -1q-74 -398 -99 -499q-35 -138 -84 -171q29 -2 105.5 -10t111.5 -9q-43 -43 -113 -43h-61q-49 0 -66.5 -1t-54 -2.5
t-64 -5t-55.5 -8.5zM342 774q0 21 38.5 71t65.5 50q19 0 22 -31q-74 -64 -112 -116q-14 7 -14 26z" />
    <glyph glyph-name="Icircumflex" unicode="&#xce;" horiz-adv-x="459" 
d="M-38 -88q3 26 16 43t37.5 24.5t48.5 10t61 2.5q42 91 106 363t76 306q-133 -3 -225 -20q14 77 204 77q121 0 262 -21q-35 -35 -97 -35q-78 0 -109 -1q-74 -398 -99 -499q-35 -138 -84 -171q29 -2 105.5 -10t111.5 -9q-43 -43 -113 -43h-61q-49 0 -66.5 -1t-54 -2.5
t-64 -5t-55.5 -8.5zM264 798q0 27 45 57.5t69 30.5t57 -39.5t33 -71.5q0 -23 -17 -31q-21 43 -74 92q-67 -24 -103 -57q-10 6 -10 19z" />
    <glyph glyph-name="Idieresis" unicode="&#xcf;" horiz-adv-x="459" 
d="M-38 -88q3 26 16 43t37.5 24.5t48.5 10t61 2.5q42 91 106 363t76 306q-133 -3 -225 -20q14 77 204 77q121 0 262 -21q-35 -35 -97 -35q-78 0 -109 -1q-74 -398 -99 -499q-35 -138 -84 -171q29 -2 105.5 -10t111.5 -9q-43 -43 -113 -43h-61q-49 0 -66.5 -1t-54 -2.5
t-64 -5t-55.5 -8.5zM241 804q0 18 21.5 32.5t44.5 14.5q30 0 30 -28q0 -17 -18.5 -33t-40.5 -16q-37 0 -37 30zM385 783q0 18 21.5 32.5t44.5 14.5q30 0 30 -28q0 -17 -18.5 -33t-40.5 -16q-37 0 -37 30z" />
    <glyph glyph-name="Eth" unicode="&#xd0;" horiz-adv-x="654" 
d="M32 274q15 40 125 47q41 130 73 217q36 94 78 94q14 0 28 -10q-55 -127 -111 -299q77 0 164 -9q-40 -29 -103 -29h-73q-60 -188 -93 -342q24 -4 43 -4q103 0 198 77.5t152 197.5t57 243q0 117 -55 176.5t-150 59.5q-98 0 -163.5 -56t-65.5 -139q0 -22 5 -37q-60 0 -60 56
q0 73 95 138t219 65q127 0 188 -75t61 -199q0 -105 -42.5 -204.5t-110 -171t-154 -114.5t-173.5 -43q-75 0 -107 45q25 122 88 326q-47 0 -113 -10z" />
    <glyph glyph-name="Ntilde" unicode="&#xd1;" horiz-adv-x="640" 
d="M46 -87q14 54 40 139l74 242l98 325q7 25 7 41q0 23 -15 23q-45 0 -80.5 -61.5t-35.5 -116.5q0 -20 5 -35q-60 0 -60 57q0 66 69.5 129.5t130.5 63.5q19 0 34.5 -11t27 -35.5t19.5 -48t15 -66t10.5 -71t9.5 -80.5q21 -187 44 -336q18 122 80 338t81 261q7 16 25 32.5
t38 16.5q-58 -154 -128 -426t-71 -381q-32 0 -51 18.5t-27 62.5q-27 142 -91 595q-134 -481 -169 -572q-33 -91 -65 -102q-7 -2 -15 -2zM310 759q35 46 83 46q26 0 90.5 -22t103.5 -22q15 0 30 3q-32 -36 -78 -36q-28 0 -89.5 19.5t-93.5 19.5q-26 0 -46 -8z" />
    <glyph glyph-name="Ograve" unicode="&#xd2;" horiz-adv-x="623" 
d="M21 161q0 94 38 195.5t97 180.5t134 130.5t145 51.5q37 0 60 -12h-11q-62 0 -130.5 -53.5t-121.5 -135t-88 -182t-35 -189.5q0 -87 33.5 -143.5t100.5 -56.5q89 0 165 91t116 218.5t40 248.5q0 51 -11 94.5t-34 43.5q-34 0 -77.5 -75t-57.5 -139q-48 11 -48 49
q0 53 65.5 122.5t115.5 69.5q24 0 42 -18.5t26.5 -49.5t12.5 -61.5t4 -63.5q0 -130 -38 -240.5t-96.5 -179t-125.5 -106.5t-129 -38q-86 0 -139 68t-53 180zM437 864q3 31 22 31q27 0 65.5 -50t38.5 -71q0 -19 -14 -26q-38 52 -112 116z" />
    <glyph glyph-name="Oacute" unicode="&#xd3;" horiz-adv-x="623" 
d="M21 161q0 94 38 195.5t97 180.5t134 130.5t145 51.5q37 0 60 -12h-11q-62 0 -130.5 -53.5t-121.5 -135t-88 -182t-35 -189.5q0 -87 33.5 -143.5t100.5 -56.5q89 0 165 91t116 218.5t40 248.5q0 51 -11 94.5t-34 43.5q-34 0 -77.5 -75t-57.5 -139q-48 11 -48 49
q0 53 65.5 122.5t115.5 69.5q24 0 42 -18.5t26.5 -49.5t12.5 -61.5t4 -63.5q0 -130 -38 -240.5t-96.5 -179t-125.5 -106.5t-129 -38q-86 0 -139 68t-53 180zM564 774q0 21 38.5 71t65.5 50q19 0 22 -31q-74 -64 -112 -116q-14 7 -14 26z" />
    <glyph glyph-name="Ocircumflex" unicode="&#xd4;" horiz-adv-x="623" 
d="M21 161q0 94 38 195.5t97 180.5t134 130.5t145 51.5q37 0 60 -12h-11q-62 0 -130.5 -53.5t-121.5 -135t-88 -182t-35 -189.5q0 -87 33.5 -143.5t100.5 -56.5q89 0 165 91t116 218.5t40 248.5q0 51 -11 94.5t-34 43.5q-34 0 -77.5 -75t-57.5 -139q-48 11 -48 49
q0 53 65.5 122.5t115.5 69.5q24 0 42 -18.5t26.5 -49.5t12.5 -61.5t4 -63.5q0 -130 -38 -240.5t-96.5 -179t-125.5 -106.5t-129 -38q-86 0 -139 68t-53 180zM417 798q0 27 45 57.5t69 30.5t57 -39.5t33 -71.5q0 -23 -17 -31q-21 43 -74 92q-67 -24 -103 -57q-10 6 -10 19z
" />
    <glyph glyph-name="Otilde" unicode="&#xd5;" horiz-adv-x="623" 
d="M21 161q0 94 38 195.5t97 180.5t134 130.5t145 51.5q37 0 60 -12h-11q-62 0 -130.5 -53.5t-121.5 -135t-88 -182t-35 -189.5q0 -87 33.5 -143.5t100.5 -56.5q89 0 165 91t116 218.5t40 248.5q0 51 -11 94.5t-34 43.5q-34 0 -77.5 -75t-57.5 -139q-48 11 -48 49
q0 53 65.5 122.5t115.5 69.5q24 0 42 -18.5t26.5 -49.5t12.5 -61.5t4 -63.5q0 -130 -38 -240.5t-96.5 -179t-125.5 -106.5t-129 -38q-86 0 -139 68t-53 180zM376 759q35 46 83 46q26 0 90.5 -22t103.5 -22q15 0 30 3q-32 -36 -78 -36q-28 0 -89.5 19.5t-93.5 19.5
q-26 0 -46 -8z" />
    <glyph glyph-name="Odieresis" unicode="&#xd6;" horiz-adv-x="623" 
d="M21 161q0 94 38 195.5t97 180.5t134 130.5t145 51.5q37 0 60 -12h-11q-62 0 -130.5 -53.5t-121.5 -135t-88 -182t-35 -189.5q0 -87 33.5 -143.5t100.5 -56.5q89 0 165 91t116 218.5t40 248.5q0 51 -11 94.5t-34 43.5q-34 0 -77.5 -75t-57.5 -139q-48 11 -48 49
q0 53 65.5 122.5t115.5 69.5q24 0 42 -18.5t26.5 -49.5t12.5 -61.5t4 -63.5q0 -130 -38 -240.5t-96.5 -179t-125.5 -106.5t-129 -38q-86 0 -139 68t-53 180zM390 804q0 18 21.5 32.5t44.5 14.5q30 0 30 -28q0 -17 -18.5 -33t-40.5 -16q-37 0 -37 30zM534 783q0 18 21.5 32.5
t44.5 14.5q30 0 30 -28q0 -17 -18.5 -33t-40.5 -16q-37 0 -37 30z" />
    <glyph glyph-name="multiply" unicode="&#xd7;" horiz-adv-x="377" 
d="M48 43q0 40 77 124q-69 74 -69 115q0 10 4 18q37 -51 91 -107q65 65 125 112q-7 -48 -52 -93l-45 -46l53 -53q44 -46 52 -93q-60 47 -125 112l-8 7q-57 -57 -99 -114q-4 8 -4 18z" />
    <glyph glyph-name="Oslash" unicode="&#xd8;" horiz-adv-x="623" 
d="M21 161q0 94 38 195.5t97 180.5t134 130.5t145 51.5q37 0 60 -12h-11q-62 0 -130.5 -53.5t-121.5 -135t-88 -182t-35 -189.5q0 -85 28 -135q132 164 413 596q-12 35 -31 35q-34 0 -77.5 -75t-57.5 -139q-48 11 -48 49q0 53 65.5 122.5t115.5 69.5q32 0 52 -32l4 5
q7 11 30 19.5t45 8.5q11 0 16 -1l-70 -104q8 -40 8 -89q0 -130 -38 -240.5t-96.5 -179t-125.5 -106.5t-129 -38q-43 0 -81 19q-46 -33 -86 -33q-6 0 -16 2q22 15 62 60q-71 66 -71 200zM174 -32q31 -21 69 -21q89 0 165 91t116 218.5t40 248.5v16l-325 -475q-35 -49 -65 -78
z" />
    <glyph glyph-name="Ugrave" unicode="&#xd9;" horiz-adv-x="706" 
d="M25 539q0 65 58 123t133 58q103 0 103 -121q0 -75 -61.5 -270t-61.5 -264q0 -50 20.5 -81t63.5 -31q39 0 74.5 26.5t61 69.5t43 87t28.5 88l41 167q16 62 42 151t49 133.5t42 44.5q20 0 50 -32q-30 -21 -107 -269.5t-77 -376.5q0 -67 18 -92t62 -25q-35 -24 -66 -24
q-36 0 -58.5 31t-22.5 75q0 31 9 91q-85 -185 -216 -185q-62 0 -96 38t-34 98q0 62 62.5 269.5t62.5 285.5q0 88 -56 88q-49 0 -77.5 -57t-28.5 -116q0 -30 8 -49q-69 0 -69 69zM421 864q3 31 22 31q27 0 65.5 -50t38.5 -71q0 -19 -14 -26q-38 52 -112 116z" />
    <glyph glyph-name="Uacute" unicode="&#xda;" horiz-adv-x="706" 
d="M25 539q0 65 58 123t133 58q103 0 103 -121q0 -75 -61.5 -270t-61.5 -264q0 -50 20.5 -81t63.5 -31q39 0 74.5 26.5t61 69.5t43 87t28.5 88l41 167q16 62 42 151t49 133.5t42 44.5q20 0 50 -32q-30 -21 -107 -269.5t-77 -376.5q0 -67 18 -92t62 -25q-35 -24 -66 -24
q-36 0 -58.5 31t-22.5 75q0 31 9 91q-85 -185 -216 -185q-62 0 -96 38t-34 98q0 62 62.5 269.5t62.5 285.5q0 88 -56 88q-49 0 -77.5 -57t-28.5 -116q0 -30 8 -49q-69 0 -69 69zM463 774q0 21 38.5 71t65.5 50q19 0 22 -31q-74 -64 -112 -116q-14 7 -14 26z" />
    <glyph glyph-name="Ucircumflex" unicode="&#xdb;" horiz-adv-x="706" 
d="M25 539q0 65 58 123t133 58q103 0 103 -121q0 -75 -61.5 -270t-61.5 -264q0 -50 20.5 -81t63.5 -31q39 0 74.5 26.5t61 69.5t43 87t28.5 88l41 167q16 62 42 151t49 133.5t42 44.5q20 0 50 -32q-30 -21 -107 -269.5t-77 -376.5q0 -67 18 -92t62 -25q-35 -24 -66 -24
q-36 0 -58.5 31t-22.5 75q0 31 9 91q-85 -185 -216 -185q-62 0 -96 38t-34 98q0 62 62.5 269.5t62.5 285.5q0 88 -56 88q-49 0 -77.5 -57t-28.5 -116q0 -30 8 -49q-69 0 -69 69zM385 798q0 27 45 57.5t69 30.5t57 -39.5t33 -71.5q0 -23 -17 -31q-21 43 -74 92
q-67 -24 -103 -57q-10 6 -10 19z" />
    <glyph glyph-name="Udieresis" unicode="&#xdc;" horiz-adv-x="706" 
d="M25 539q0 65 58 123t133 58q103 0 103 -121q0 -75 -61.5 -270t-61.5 -264q0 -50 20.5 -81t63.5 -31q39 0 74.5 26.5t61 69.5t43 87t28.5 88l41 167q16 62 42 151t49 133.5t42 44.5q20 0 50 -32q-30 -21 -107 -269.5t-77 -376.5q0 -67 18 -92t62 -25q-35 -24 -66 -24
q-36 0 -58.5 31t-22.5 75q0 31 9 91q-85 -185 -216 -185q-62 0 -96 38t-34 98q0 62 62.5 269.5t62.5 285.5q0 88 -56 88q-49 0 -77.5 -57t-28.5 -116q0 -30 8 -49q-69 0 -69 69zM383 804q0 18 21.5 32.5t44.5 14.5q30 0 30 -28q0 -17 -18.5 -33t-40.5 -16q-37 0 -37 30z
M527 783q0 18 21.5 32.5t44.5 14.5q30 0 30 -28q0 -17 -18.5 -33t-40.5 -16q-37 0 -37 30z" />
    <glyph glyph-name="Yacute" unicode="&#xdd;" horiz-adv-x="666" 
d="M23 539q0 65 58 123t133 58q53 0 78.5 -30t25.5 -71q0 -33 -33.5 -154t-33.5 -178q0 -96 70 -96q63 0 117 72t95 177q68 280 120 280q26 0 56 -32q-50 -80 -76 -159t-89 -335l-20 -76q-7 -28 -22 -73.5t-29 -73t-36.5 -61.5t-47.5 -52.5t-59.5 -31.5t-74.5 -13
q-60 0 -99 25t-39 69q0 55 60 75q-8 -27 -8 -54q0 -42 22 -66t65 -24q146 0 209 283l18 90l24 115q-91 -175 -217 -175q-109 0 -109 119q0 54 34 177t34 167q0 78 -57 78q-50 0 -79 -57t-29 -116q0 -30 8 -49q-69 0 -69 69zM472 774q0 21 38.5 71t65.5 50q19 0 22 -31
q-74 -64 -112 -116q-14 7 -14 26z" />
    <glyph glyph-name="Thorn" unicode="&#xde;" horiz-adv-x="508" 
d="M31 -37q0 13 14 55q110 346 187 537q-36 -6 -71 -20t-55 -25.5t-24 -11.5q-7 0 -19 10t-12 17q110 47 190 53q4 9 12.5 32t15 38t16 32.5t21 26.5t24.5 9t26 -8q-28 -55 -56 -129q92 -8 160.5 -58.5t68.5 -133.5q0 -46 -20 -83.5t-53.5 -61.5t-71.5 -41t-81.5 -26.5
t-75 -13.5t-59.5 -5l-33 -118l-35 -125q-27 0 -48 14.5t-21 35.5zM173 175q55 6 104.5 23t92 44t67.5 69t25 93q0 74 -48.5 112.5t-121.5 41.5q-48 -131 -119 -383z" />
    <glyph glyph-name="germandbls" unicode="&#xdf;" horiz-adv-x="427" 
d="M-43 -115q14 19 30 115l34 213q20 117 49 233.5t83 195t127 78.5q46 0 75.5 -29.5t29.5 -80.5q0 -68 -46.5 -127t-108.5 -99q-12 -8 -12 -13t13 -11q55 -24 92.5 -89t37.5 -124q0 -81 -60 -157.5t-128 -76.5q-33 0 -51.5 39t-18.5 92q0 48 16.5 83.5t44.5 35.5
q11 0 16 -1q-15 -8 -25.5 -52t-10.5 -91q0 -86 30 -86q39 0 77.5 74.5t38.5 153.5q0 55 -21.5 106.5t-56.5 78.5q-20 15 -20 26q0 13 24 34q35 33 56 57t40 64.5t19 83.5q0 82 -59 82q-55 0 -94 -78.5t-61 -193t-41.5 -230.5t-48.5 -204.5t-70 -101.5z" />
    <glyph glyph-name="agrave" unicode="&#xe0;" horiz-adv-x="436" 
d="M-26 36q0 59 41.5 131t107.5 124t128 52q39 0 65 -21t26 -54q0 -43 -49 -43q5 18 5 35q0 56 -49 56q-44 0 -93.5 -50.5t-81 -117t-31.5 -115.5q0 -39 27 -39q18 0 42 17t44 38t47.5 56.5t40.5 54.5l36 52q40 -7 40 -25q0 -8 -29 -60t-29 -79q0 -17 8.5 -30.5t25.5 -13.5
q29 0 73 41.5t87 116.5l10 -10q-31 -80 -87.5 -131t-110.5 -51q-35 0 -53.5 20.5t-18.5 49.5q0 12 3 29q-45 -60 -80.5 -88t-70.5 -28q-33 0 -53.5 21.5t-20.5 61.5zM213 526q3 31 22 31q27 0 65.5 -50t38.5 -71q0 -19 -14 -26q-38 52 -112 116z" />
    <glyph glyph-name="aacute" unicode="&#xe1;" horiz-adv-x="436" 
d="M-26 36q0 59 41.5 131t107.5 124t128 52q39 0 65 -21t26 -54q0 -43 -49 -43q5 18 5 35q0 56 -49 56q-44 0 -93.5 -50.5t-81 -117t-31.5 -115.5q0 -39 27 -39q18 0 42 17t44 38t47.5 56.5t40.5 54.5l36 52q40 -7 40 -25q0 -8 -29 -60t-29 -79q0 -17 8.5 -30.5t25.5 -13.5
q29 0 73 41.5t87 116.5l10 -10q-31 -80 -87.5 -131t-110.5 -51q-35 0 -53.5 20.5t-18.5 49.5q0 12 3 29q-45 -60 -80.5 -88t-70.5 -28q-33 0 -53.5 21.5t-20.5 61.5zM284 443q0 21 38.5 71t65.5 50q19 0 22 -31q-74 -64 -112 -116q-14 7 -14 26z" />
    <glyph glyph-name="acircumflex" unicode="&#xe2;" horiz-adv-x="436" 
d="M-26 36q0 59 41.5 131t107.5 124t128 52q39 0 65 -21t26 -54q0 -43 -49 -43q5 18 5 35q0 56 -49 56q-44 0 -93.5 -50.5t-81 -117t-31.5 -115.5q0 -39 27 -39q18 0 42 17t44 38t47.5 56.5t40.5 54.5l36 52q40 -7 40 -25q0 -8 -29 -60t-29 -79q0 -17 8.5 -30.5t25.5 -13.5
q29 0 73 41.5t87 116.5l10 -10q-31 -80 -87.5 -131t-110.5 -51q-35 0 -53.5 20.5t-18.5 49.5q0 12 3 29q-45 -60 -80.5 -88t-70.5 -28q-33 0 -53.5 21.5t-20.5 61.5zM222 460q0 27 45 57.5t69 30.5t57 -39.5t33 -71.5q0 -23 -17 -31q-21 43 -74 92q-67 -24 -103 -57
q-10 6 -10 19z" />
    <glyph glyph-name="atilde" unicode="&#xe3;" horiz-adv-x="436" 
d="M-26 36q0 59 41.5 131t107.5 124t128 52q39 0 65 -21t26 -54q0 -43 -49 -43q5 18 5 35q0 56 -49 56q-44 0 -93.5 -50.5t-81 -117t-31.5 -115.5q0 -39 27 -39q18 0 42 17t44 38t47.5 56.5t40.5 54.5l36 52q40 -7 40 -25q0 -8 -29 -60t-29 -79q0 -17 8.5 -30.5t25.5 -13.5
q29 0 73 41.5t87 116.5l10 -10q-31 -80 -87.5 -131t-110.5 -51q-35 0 -53.5 20.5t-18.5 49.5q0 12 3 29q-45 -60 -80.5 -88t-70.5 -28q-33 0 -53.5 21.5t-20.5 61.5zM140 428q35 46 83 46q26 0 90.5 -22t103.5 -22q15 0 30 3q-32 -36 -78 -36q-28 0 -89.5 19.5t-93.5 19.5
q-26 0 -46 -8z" />
    <glyph glyph-name="adieresis" unicode="&#xe4;" horiz-adv-x="436" 
d="M-26 36q0 59 41.5 131t107.5 124t128 52q39 0 65 -21t26 -54q0 -43 -49 -43q5 18 5 35q0 56 -49 56q-44 0 -93.5 -50.5t-81 -117t-31.5 -115.5q0 -39 27 -39q18 0 42 17t44 38t47.5 56.5t40.5 54.5l36 52q40 -7 40 -25q0 -8 -29 -60t-29 -79q0 -17 8.5 -30.5t25.5 -13.5
q29 0 73 41.5t87 116.5l10 -10q-31 -80 -87.5 -131t-110.5 -51q-35 0 -53.5 20.5t-18.5 49.5q0 12 3 29q-45 -60 -80.5 -88t-70.5 -28q-33 0 -53.5 21.5t-20.5 61.5zM154 466q0 18 21.5 32.5t44.5 14.5q30 0 30 -28q0 -17 -18.5 -33t-40.5 -16q-37 0 -37 30zM298 445
q0 18 21.5 32.5t44.5 14.5q30 0 30 -28q0 -17 -18.5 -33t-40.5 -16q-37 0 -37 30z" />
    <glyph glyph-name="aring" unicode="&#xe5;" horiz-adv-x="436" 
d="M-26 36q0 59 41.5 131t107.5 124t128 52q39 0 65 -21t26 -54q0 -43 -49 -43q5 18 5 35q0 56 -49 56q-44 0 -93.5 -50.5t-81 -117t-31.5 -115.5q0 -39 27 -39q18 0 42 17t44 38t47.5 56.5t40.5 54.5l36 52q40 -7 40 -25q0 -8 -29 -60t-29 -79q0 -17 8.5 -30.5t25.5 -13.5
q29 0 73 41.5t87 116.5l10 -10q-31 -80 -87.5 -131t-110.5 -51q-35 0 -53.5 20.5t-18.5 49.5q0 12 3 29q-45 -60 -80.5 -88t-70.5 -28q-33 0 -53.5 21.5t-20.5 61.5zM216 451q0 39 37 75.5t85 36.5q76 0 76 -54q0 -38 -38.5 -75t-87.5 -37q-72 0 -72 54zM255 458
q0 -15 11 -28t31 -13q28 0 54 29.5t26 56.5q0 15 -11.5 26t-32.5 11q-29 0 -53.5 -27t-24.5 -55z" />
    <glyph glyph-name="ae" unicode="&#xe6;" horiz-adv-x="543" 
d="M-26 36q0 59 41.5 131t107.5 124t128 52q54 0 69 -42q67 59 131 59q62 0 62 -61q0 -73 -78 -129t-170 -65q-4 -17 -4 -36q0 -84 79 -84q61 0 123 51t101 126l12 -9q-40 -89 -111 -143t-146 -54q-57 0 -88.5 30.5t-33.5 79.5q-44 -58 -79 -85.5t-70 -27.5
q-33 0 -53.5 21.5t-20.5 61.5zM43 33q0 -39 27 -39q46 0 129 105q7 44 33 92t64 87q-9 38 -47 38q-44 0 -93.5 -50.5t-81 -117t-31.5 -115.5zM270 124q70 25 134.5 75t64.5 107q0 23 -21 23q-47 0 -102 -65.5t-76 -139.5z" />
    <glyph glyph-name="ccedilla" unicode="&#xe7;" horiz-adv-x="323" 
d="M-5 72q0 99 70.5 182.5t148.5 83.5q38 0 54.5 -21.5t16.5 -52.5q0 -30 -13.5 -51.5t-36.5 -21.5q-17 0 -29 15q15 7 26 31.5t11 47.5q0 25 -22 25q-52 0 -108 -85t-56 -160q0 -83 73 -83q61 0 120.5 50t91.5 131l13 -10q-33 -85 -98 -144l-34 -52q34 24 67 24
q45 0 45 -42q0 -43 -35.5 -77.5t-81.5 -34.5q-28 0 -44.5 10.5t-16.5 25.5q0 17 22 33q10 -45 42 -45q28 0 55.5 30t27.5 57q0 25 -17 25q-15 0 -48 -20.5t-37 -20.5q-6 0 -10 6t-4 12q0 3 23 36q-54 -32 -104 -32t-81 33t-31 95z" />
    <glyph glyph-name="egrave" unicode="&#xe8;" horiz-adv-x="333" 
d="M-14 72q0 92 84 190t170 98q62 0 62 -61q0 -73 -78 -129t-170 -65q-4 -17 -4 -36q0 -84 79 -84q61 0 123 51t101 126l12 -9q-40 -89 -111 -143t-146 -54q-59 0 -90.5 32.5t-31.5 83.5zM59 124q70 25 134.5 75t64.5 107q0 23 -21 23q-47 0 -102 -65.5t-76 -139.5zM172 534
q3 31 22 31q27 0 65.5 -50t38.5 -71q0 -19 -14 -26q-38 52 -112 116z" />
    <glyph glyph-name="eacute" unicode="&#xe9;" horiz-adv-x="333" 
d="M-14 72q0 92 84 190t170 98q62 0 62 -61q0 -73 -78 -129t-170 -65q-4 -17 -4 -36q0 -84 79 -84q61 0 123 51t101 126l12 -9q-40 -89 -111 -143t-146 -54q-59 0 -90.5 32.5t-31.5 83.5zM59 124q70 25 134.5 75t64.5 107q0 23 -21 23q-47 0 -102 -65.5t-76 -139.5zM292 455
q0 21 38.5 71t65.5 50q19 0 22 -31q-74 -64 -112 -116q-14 7 -14 26z" />
    <glyph glyph-name="ecircumflex" unicode="&#xea;" horiz-adv-x="333" 
d="M-14 72q0 92 84 190t170 98q62 0 62 -61q0 -73 -78 -129t-170 -65q-4 -17 -4 -36q0 -84 79 -84q61 0 123 51t101 126l12 -9q-40 -89 -111 -143t-146 -54q-59 0 -90.5 32.5t-31.5 83.5zM59 124q70 25 134.5 75t64.5 107q0 23 -21 23q-47 0 -102 -65.5t-76 -139.5zM182 460
q0 27 45 57.5t69 30.5t57 -39.5t33 -71.5q0 -23 -17 -31q-21 43 -74 92q-67 -24 -103 -57q-10 6 -10 19z" />
    <glyph glyph-name="edieresis" unicode="&#xeb;" horiz-adv-x="333" 
d="M-14 72q0 92 84 190t170 98q62 0 62 -61q0 -73 -78 -129t-170 -65q-4 -17 -4 -36q0 -84 79 -84q61 0 123 51t101 126l12 -9q-40 -89 -111 -143t-146 -54q-59 0 -90.5 32.5t-31.5 83.5zM59 124q70 25 134.5 75t64.5 107q0 23 -21 23q-47 0 -102 -65.5t-76 -139.5zM137 466
q0 18 21.5 32.5t44.5 14.5q30 0 30 -28q0 -17 -18.5 -33t-40.5 -16q-37 0 -37 30zM281 445q0 18 21.5 32.5t44.5 14.5q30 0 30 -28q0 -17 -18.5 -33t-40.5 -16q-37 0 -37 30z" />
    <glyph glyph-name="igrave" unicode="&#xec;" horiz-adv-x="241" 
d="M-5 58q0 39 21 105t56 121t67 55q22 0 22 -22q0 -12 -26 -55t-52 -97.5t-26 -95.5q0 -35 11.5 -47.5t37.5 -12.5q78 0 154 153l9 -10q-28 -84 -82.5 -131t-114.5 -47q-37 0 -57 23.5t-20 60.5zM90 531q3 31 22 31q27 0 65.5 -50t38.5 -71q0 -19 -14 -26q-38 52 -112 116z
" />
    <glyph glyph-name="iacute" unicode="&#xed;" horiz-adv-x="241" 
d="M-5 58q0 39 21 105t56 121t67 55q22 0 22 -22q0 -12 -26 -55t-52 -97.5t-26 -95.5q0 -35 11.5 -47.5t37.5 -12.5q78 0 154 153l9 -10q-28 -84 -82.5 -131t-114.5 -47q-37 0 -57 23.5t-20 60.5zM164 436q0 21 38.5 71t65.5 50q19 0 22 -31q-74 -64 -112 -116q-14 7 -14 26
z" />
    <glyph glyph-name="icircumflex" unicode="&#xee;" horiz-adv-x="241" 
d="M-5 58q0 39 21 105t56 121t67 55q22 0 22 -22q0 -12 -26 -55t-52 -97.5t-26 -95.5q0 -35 11.5 -47.5t37.5 -12.5q78 0 154 153l9 -10q-28 -84 -82.5 -131t-114.5 -47q-37 0 -57 23.5t-20 60.5zM100 460q0 27 45 57.5t69 30.5t57 -39.5t33 -71.5q0 -23 -17 -31
q-21 43 -74 92q-67 -24 -103 -57q-10 6 -10 19z" />
    <glyph glyph-name="idieresis" unicode="&#xef;" horiz-adv-x="241" 
d="M-5 58q0 39 21 105t56 121t67 55q22 0 22 -22q0 -12 -26 -55t-52 -97.5t-26 -95.5q0 -35 11.5 -47.5t37.5 -12.5q78 0 154 153l9 -10q-28 -84 -82.5 -131t-114.5 -47q-37 0 -57 23.5t-20 60.5zM59 466q0 18 21.5 32.5t44.5 14.5q30 0 30 -28q0 -17 -18.5 -33t-40.5 -16
q-37 0 -37 30zM203 445q0 18 21.5 32.5t44.5 14.5q30 0 30 -28q0 -17 -18.5 -33t-40.5 -16q-37 0 -37 30z" />
    <glyph glyph-name="eth" unicode="&#xf0;" horiz-adv-x="473" 
d="M-16 54q0 55 40.5 127t105 125.5t123.5 53.5q44 0 44 -31q0 -4 -2 -14q-11 15 -38 15q-50 0 -99 -50.5t-76.5 -111.5t-27.5 -102q0 -22 9.5 -35t26.5 -13q44 0 109.5 82t107.5 193q45 117 45 196q0 23 -4 43q-69 -10 -115 -23q0 19 17 31t36.5 16.5t54.5 9.5
q-21 76 -87 134q15 19 39 19q42 0 73 -42t46 -103q66 4 91 12q-15 -24 -31 -31.5t-54 -12.5q4 -23 4 -47q0 -71 -56 -229t-56 -209q0 -43 28 -43q33 0 78.5 41.5t75.5 106.5l12 -9q-29 -76 -85.5 -127.5t-108.5 -51.5q-34 0 -50 22t-16 53q0 34 19 107q-51 -84 -105.5 -135
t-98.5 -51q-29 0 -52 21.5t-23 62.5z" />
    <glyph glyph-name="ntilde" unicode="&#xf1;" horiz-adv-x="466" 
d="M-38 7q0 3 17.5 47t35.5 102.5t18 96.5q19 21 46 21t27 -26q0 -34 -32 -132q115 176 208 176q36 0 55 -26.5t19 -63.5q0 -33 -20.5 -84t-20.5 -74q0 -38 30 -38q62 0 140 156l11 -13q-72 -169 -173 -169q-34 0 -52 17.5t-18 46.5q0 20 14.5 67.5t14.5 71.5q0 49 -40 49
q-24 0 -51.5 -19t-48.5 -41t-49.5 -64t-40.5 -62l-37 -61q-37 0 -53 22zM98 421q35 46 83 46q26 0 90.5 -22t103.5 -22q15 0 30 3q-32 -36 -78 -36q-28 0 -89.5 19.5t-93.5 19.5q-26 0 -46 -8z" />
    <glyph glyph-name="ograve" unicode="&#xf2;" horiz-adv-x="365" 
d="M-10 59q0 64 36.5 127.5t78.5 63.5q9 0 21 -5q-19 -16 -45 -79.5t-26 -99.5q0 -57 36 -57q44 0 107 80q-28 23 -43.5 60t-15.5 77q0 52 26.5 89t71.5 37q69 0 69 -77q0 -78 -67 -178q18 -10 38 -10q29 0 60 17.5t47 54.5l12 -10q-19 -44 -54 -65t-72 -21q-27 0 -48 10
q-80 -105 -153 -105q-41 0 -60 25t-19 66zM182 223q0 -68 34 -108q58 86 58 154q0 56 -30 56q-22 0 -42 -30.5t-20 -71.5zM187 526q3 31 22 31q27 0 65.5 -50t38.5 -71q0 -19 -14 -26q-38 52 -112 116z" />
    <glyph glyph-name="oacute" unicode="&#xf3;" horiz-adv-x="365" 
d="M-10 59q0 64 36.5 127.5t78.5 63.5q9 0 21 -5q-19 -16 -45 -79.5t-26 -99.5q0 -57 36 -57q44 0 107 80q-28 23 -43.5 60t-15.5 77q0 52 26.5 89t71.5 37q69 0 69 -77q0 -78 -67 -178q18 -10 38 -10q29 0 60 17.5t47 54.5l12 -10q-19 -44 -54 -65t-72 -21q-27 0 -48 10
q-80 -105 -153 -105q-41 0 -60 25t-19 66zM182 223q0 -68 34 -108q58 86 58 154q0 56 -30 56q-22 0 -42 -30.5t-20 -71.5zM334 440q0 21 38.5 71t65.5 50q19 0 22 -31q-74 -64 -112 -116q-14 7 -14 26z" />
    <glyph glyph-name="ocircumflex" unicode="&#xf4;" horiz-adv-x="365" 
d="M-10 59q0 64 36.5 127.5t78.5 63.5q9 0 21 -5q-19 -16 -45 -79.5t-26 -99.5q0 -57 36 -57q44 0 107 80q-28 23 -43.5 60t-15.5 77q0 52 26.5 89t71.5 37q69 0 69 -77q0 -78 -67 -178q18 -10 38 -10q29 0 60 17.5t47 54.5l12 -10q-19 -44 -54 -65t-72 -21q-27 0 -48 10
q-80 -105 -153 -105q-41 0 -60 25t-19 66zM177 460q0 27 45 57.5t69 30.5t57 -39.5t33 -71.5q0 -23 -17 -31q-21 43 -74 92q-67 -24 -103 -57q-10 6 -10 19zM182 223q0 -68 34 -108q58 86 58 154q0 56 -30 56q-22 0 -42 -30.5t-20 -71.5z" />
    <glyph glyph-name="otilde" unicode="&#xf5;" horiz-adv-x="365" 
d="M-10 59q0 64 36.5 127.5t78.5 63.5q9 0 21 -5q-19 -16 -45 -79.5t-26 -99.5q0 -57 36 -57q44 0 107 80q-28 23 -43.5 60t-15.5 77q0 52 26.5 89t71.5 37q69 0 69 -77q0 -78 -67 -178q18 -10 38 -10q29 0 60 17.5t47 54.5l12 -10q-19 -44 -54 -65t-72 -21q-27 0 -48 10
q-80 -105 -153 -105q-41 0 -60 25t-19 66zM132 421q35 46 83 46q26 0 90.5 -22t103.5 -22q15 0 30 3q-32 -36 -78 -36q-28 0 -89.5 19.5t-93.5 19.5q-26 0 -46 -8zM182 223q0 -68 34 -108q58 86 58 154q0 56 -30 56q-22 0 -42 -30.5t-20 -71.5z" />
    <glyph glyph-name="odieresis" unicode="&#xf6;" horiz-adv-x="365" 
d="M-10 59q0 64 36.5 127.5t78.5 63.5q9 0 21 -5q-19 -16 -45 -79.5t-26 -99.5q0 -57 36 -57q44 0 107 80q-28 23 -43.5 60t-15.5 77q0 52 26.5 89t71.5 37q69 0 69 -77q0 -78 -67 -178q18 -10 38 -10q29 0 60 17.5t47 54.5l12 -10q-19 -44 -54 -65t-72 -21q-27 0 -48 10
q-80 -105 -153 -105q-41 0 -60 25t-19 66zM130 466q0 18 21.5 32.5t44.5 14.5q30 0 30 -28q0 -17 -18.5 -33t-40.5 -16q-37 0 -37 30zM182 223q0 -68 34 -108q58 86 58 154q0 56 -30 56q-22 0 -42 -30.5t-20 -71.5zM274 445q0 18 21.5 32.5t44.5 14.5q30 0 30 -28
q0 -17 -18.5 -33t-40.5 -16q-37 0 -37 30z" />
    <glyph glyph-name="divide" unicode="&#xf7;" horiz-adv-x="460" 
d="M25 124q18 49 189 49q81 0 168 -9q-23 -16 -60 -22.5t-116 -6.5q-110 0 -181 -11zM139 17q0 16 19 28.5t39 12.5q26 0 26 -24q0 -15 -16.5 -29.5t-35.5 -14.5q-32 0 -32 27zM199 267q0 16 19 28.5t39 12.5q26 0 26 -24q0 -15 -16.5 -29.5t-35.5 -14.5q-32 0 -32 27z" />
    <glyph glyph-name="oslash" unicode="&#xf8;" horiz-adv-x="404" 
d="M-65 -63q27 13 70 60q-17 23 -17 58q0 54 35 123t93 121.5t114 52.5q18 0 30 -7l16 27q9 15 45 15q2 0 6.5 -0.5t6.5 -0.5q-3 -3 -8 -11l-14 -22q-8 -14 -16 -26q18 -12 18 -34q0 -9 -19.5 -52.5t-19.5 -73.5q0 -37 21 -60t49 -23q42 0 79 76l13 -10q-37 -86 -100 -86
q-29 0 -54 18t-40 52q-33 -76 -78.5 -121t-96.5 -45q-21 0 -37 8q-50 -40 -83 -40q-9 0 -13 1zM52 51q95 117 187 261q-51 -3 -96 -50.5t-68 -103.5t-23 -96v-11zM74 14q8 -3 16 -3q34 0 75 44.5t68 109.5q-6 23 -6 53q-104 -156 -148 -199z" />
    <glyph glyph-name="ugrave" unicode="&#xf9;" horiz-adv-x="438" 
d="M0 71q0 57 33 142t55 85q19 0 37 -20q-21 -33 -44 -94.5t-23 -106.5q0 -67 36 -67q13 0 27.5 10t29.5 29.5t28.5 39t28.5 48.5l26 49l24 48q13 29 18 37q48 -9 48 -26q0 -3 -17 -40.5t-33.5 -86.5t-16.5 -78q0 -40 33 -40q34 0 83 44.5t84 117.5l13 -9
q-32 -80 -89.5 -131.5t-111.5 -51.5q-70 0 -70 74q0 20 7 50q-70 -124 -131 -124q-33 0 -54 29.5t-21 71.5zM164 526q3 31 22 31q27 0 65.5 -50t38.5 -71q0 -19 -14 -26q-38 52 -112 116z" />
    <glyph glyph-name="uacute" unicode="&#xfa;" horiz-adv-x="438" 
d="M0 71q0 57 33 142t55 85q19 0 37 -20q-21 -33 -44 -94.5t-23 -106.5q0 -67 36 -67q13 0 27.5 10t29.5 29.5t28.5 39t28.5 48.5l26 49l24 48q13 29 18 37q48 -9 48 -26q0 -3 -17 -40.5t-33.5 -86.5t-16.5 -78q0 -40 33 -40q34 0 83 44.5t84 117.5l13 -9
q-32 -80 -89.5 -131.5t-111.5 -51.5q-70 0 -70 74q0 20 7 50q-70 -124 -131 -124q-33 0 -54 29.5t-21 71.5zM210 396q0 21 38.5 71t65.5 50q19 0 22 -31q-74 -64 -112 -116q-14 7 -14 26z" />
    <glyph glyph-name="ucircumflex" unicode="&#xfb;" horiz-adv-x="438" 
d="M0 71q0 57 33 142t55 85q19 0 37 -20q-21 -33 -44 -94.5t-23 -106.5q0 -67 36 -67q13 0 27.5 10t29.5 29.5t28.5 39t28.5 48.5l26 49l24 48q13 29 18 37q48 -9 48 -26q0 -3 -17 -40.5t-33.5 -86.5t-16.5 -78q0 -40 33 -40q34 0 83 44.5t84 117.5l13 -9
q-32 -80 -89.5 -131.5t-111.5 -51.5q-70 0 -70 74q0 20 7 50q-70 -124 -131 -124q-33 0 -54 29.5t-21 71.5zM174 460q0 27 45 57.5t69 30.5t57 -39.5t33 -71.5q0 -23 -17 -31q-21 43 -74 92q-67 -24 -103 -57q-10 6 -10 19z" />
    <glyph glyph-name="udieresis" unicode="&#xfc;" horiz-adv-x="438" 
d="M0 71q0 57 33 142t55 85q19 0 37 -20q-21 -33 -44 -94.5t-23 -106.5q0 -67 36 -67q13 0 27.5 10t29.5 29.5t28.5 39t28.5 48.5l26 49l24 48q13 29 18 37q48 -9 48 -26q0 -3 -17 -40.5t-33.5 -86.5t-16.5 -78q0 -40 33 -40q34 0 83 44.5t84 117.5l13 -9
q-32 -80 -89.5 -131.5t-111.5 -51.5q-70 0 -70 74q0 20 7 50q-70 -124 -131 -124q-33 0 -54 29.5t-21 71.5zM126 466q0 18 21.5 32.5t44.5 14.5q30 0 30 -28q0 -17 -18.5 -33t-40.5 -16q-37 0 -37 30zM270 445q0 18 21.5 32.5t44.5 14.5q30 0 30 -28q0 -17 -18.5 -33
t-40.5 -16q-37 0 -37 30z" />
    <glyph glyph-name="yacute" unicode="&#xfd;" horiz-adv-x="389" 
d="M-20 -227q0 25 12 47.5t25.5 37.5t46 35.5t50.5 29.5l60 31q30 77 56 183q-78 -127 -146 -127q-32 0 -56 21t-24 60q0 55 33 136.5t55 81.5q9 0 26.5 -7.5t17.5 -15.5q-20 -29 -43 -93.5t-23 -102.5q0 -40 36 -40q27 0 63.5 37t69.5 91q5 17 10 46q11 51 51 51q9 0 21 -3
q0 -27 -22.5 -111t-55.5 -169q113 44 165 170l13 -10q-37 -117 -189 -187q-100 -245 -189 -245q-27 0 -45 14t-18 39zM11 -218q0 -10 7 -20t20 -10q11 0 29 16t45 58.5t52 103.5q-40 -21 -60.5 -33.5t-45.5 -31.5t-36 -39t-11 -44zM244 396q0 21 38.5 71t65.5 50
q19 0 22 -31q-74 -64 -112 -116q-14 7 -14 26z" />
    <glyph glyph-name="thorn" unicode="&#xfe;" horiz-adv-x="391" 
d="M-94 -242q3 12 23 83l29 98q8 28 26 102t29 132t25 147.5t26 185.5q1 10 4.5 13.5t14.5 3.5q24 0 36 -13.5t12 -32.5q0 -15 -17.5 -126.5t-27.5 -158.5q31 60 75.5 103.5t97.5 43.5q44 0 72.5 -31.5t28.5 -82.5q0 -86 -69.5 -168.5t-166.5 -82.5q-25 0 -41.5 5.5
t-16.5 12.5q0 5 25 5q78 0 141 70t63 149q0 34 -14.5 55.5t-42.5 21.5q-47 0 -94.5 -53t-71.5 -108q-88 -373 -123 -407q-5 -5 -12 -5q-11 0 -21.5 16.5t-9.5 21.5z" />
    <glyph glyph-name="ydieresis" unicode="&#xff;" horiz-adv-x="389" 
d="M-20 -227q0 25 12 47.5t25.5 37.5t46 35.5t50.5 29.5l60 31q30 77 56 183q-78 -127 -146 -127q-32 0 -56 21t-24 60q0 55 33 136.5t55 81.5q9 0 26.5 -7.5t17.5 -15.5q-20 -29 -43 -93.5t-23 -102.5q0 -40 36 -40q27 0 63.5 37t69.5 91q5 17 10 46q11 51 51 51q9 0 21 -3
q0 -27 -22.5 -111t-55.5 -169q113 44 165 170l13 -10q-37 -117 -189 -187q-100 -245 -189 -245q-27 0 -45 14t-18 39zM11 -218q0 -10 7 -20t20 -10q11 0 29 16t45 58.5t52 103.5q-40 -21 -60.5 -33.5t-45.5 -31.5t-36 -39t-11 -44zM126 466q0 18 21.5 32.5t44.5 14.5
q30 0 30 -28q0 -17 -18.5 -33t-40.5 -16q-37 0 -37 30zM270 445q0 18 21.5 32.5t44.5 14.5q30 0 30 -28q0 -17 -18.5 -33t-40.5 -16q-37 0 -37 30z" />
    <glyph glyph-name="dotlessi" unicode="&#x131;" horiz-adv-x="241" 
d="M-5 58q0 39 21 105t56 121t67 55q22 0 22 -22q0 -12 -26 -55t-52 -97.5t-26 -95.5q0 -35 11.5 -47.5t37.5 -12.5q78 0 154 153l9 -10q-28 -84 -82.5 -131t-114.5 -47q-37 0 -57 23.5t-20 60.5z" />
    <glyph glyph-name="OE" unicode="&#x152;" horiz-adv-x="799" 
d="M21 161q0 94 38 195.5t97 180.5t134 130.5t145 51.5q37 0 60 -12h-11q-62 0 -130.5 -53.5t-121.5 -135t-88 -182t-35 -189.5q0 -87 33.5 -143.5t100.5 -56.5q77 0 145.5 90.5t106.5 219t38 248.5q0 127 -30 127q-37 0 -119 -203q-48 11 -48 49q0 53 66 122.5t117 69.5
q66 4 114 4q143 0 194 -17q-13 -36 -170 -36q-17 0 -42 1.5t-38 1.5q11 -33 11 -78q0 -98 -13 -181q136 0 203 -10q-18 -49 -139 -49q-36 0 -74 2q-34 -155 -66 -232t-98 -118q52 -2 167 -2q12 0 57 2t62 2q16 0 20 -1q-9 -23 -99.5 -35t-198.5 -12q-27 0 -85.5 0.5
t-87.5 0.5q-99 0 -157 62.5t-58 185.5z" />
    <glyph glyph-name="oe" unicode="&#x153;" horiz-adv-x="543" 
d="M-26 36q0 59 41.5 131t107.5 124t128 52q54 0 69 -42q67 59 131 59q62 0 62 -61q0 -73 -78 -129t-170 -65q-4 -17 -4 -36q0 -84 79 -84q61 0 123 51t101 126l12 -9q-40 -89 -111 -143t-146 -54q-57 0 -88.5 30.5t-33.5 79.5q-44 -58 -79 -85.5t-70 -27.5
q-33 0 -53.5 21.5t-20.5 61.5zM43 33q0 -39 27 -39q46 0 129 105l3 15q-32 11 -49.5 40.5t-17.5 64.5q0 15 3 28q-41 -47 -68 -108.5t-27 -105.5zM174 204q0 -40 35 -64q26 76 87 138q-9 38 -47 38q-28 0 -51.5 -34t-23.5 -78zM270 124q70 25 134.5 75t64.5 107q0 23 -21 23
q-47 0 -102 -65.5t-76 -139.5z" />
    <glyph glyph-name="Scaron" unicode="&#x160;" horiz-adv-x="536" 
d="M-6 92q0 71 39 102.5t89 31.5q-55 -60 -55 -134q0 -60 39.5 -100t113.5 -40t130 39t56 107q0 47 -31.5 84.5t-76.5 64.5l-89 53q-44 27 -75.5 65.5t-31.5 87.5q0 58 34 118.5t101.5 104.5t149.5 44q105 0 105 -100q0 -50 -24 -112t-53 -108q-33 7 -33 43q0 28 29.5 104.5
t29.5 105.5q0 43 -56 43q-88 0 -154 -75t-66 -145q0 -41 31 -73.5t75 -56.5l87 -51q44 -26 75 -69.5t31 -99.5q0 -97 -80 -155t-181 -58q-88 0 -148.5 46.5t-60.5 132.5zM336 855q0 23 17 31q21 -43 74 -92q67 24 103 57q10 -6 10 -19q0 -27 -45 -57.5t-69 -30.5t-57 39.5
t-33 71.5z" />
    <glyph glyph-name="scaron" unicode="&#x161;" horiz-adv-x="345" 
d="M-20 80q0 27 8.5 45.5t19 25t22 11.5t14.5 8q64 70 99 145v12q0 34 11.5 51t27.5 17t16 -13q0 -2 -3 -16t-3 -28q0 -30 26 -111t26 -130q0 -27 -6 -49q74 13 126 113l9 -10q-35 -103 -140 -119q-31 -83 -128 -83q-65 0 -95 39t-30 92zM25 81q0 -38 22.5 -67.5t59.5 -29.5
q46 0 63 49q-40 8 -73 31.5t-50 51.5q-22 -1 -22 -35zM51 147q37 -79 124 -98q4 26 4 47q0 28 -5 59t-14 68.5t-12 53.5q-51 -84 -97 -130zM137 547q0 23 17 31q21 -43 74 -92q67 24 103 57q10 -6 10 -19q0 -27 -45 -57.5t-69 -30.5t-57 39.5t-33 71.5z" />
    <glyph glyph-name="Ydieresis" unicode="&#x178;" horiz-adv-x="666" 
d="M23 539q0 65 58 123t133 58q53 0 78.5 -30t25.5 -71q0 -33 -33.5 -154t-33.5 -178q0 -96 70 -96q63 0 117 72t95 177q68 280 120 280q26 0 56 -32q-50 -80 -76 -159t-89 -335l-20 -76q-7 -28 -22 -73.5t-29 -73t-36.5 -61.5t-47.5 -52.5t-59.5 -31.5t-74.5 -13
q-60 0 -99 25t-39 69q0 55 60 75q-8 -27 -8 -54q0 -42 22 -66t65 -24q146 0 209 283l18 90l24 115q-91 -175 -217 -175q-109 0 -109 119q0 54 34 177t34 167q0 78 -57 78q-50 0 -79 -57t-29 -116q0 -30 8 -49q-69 0 -69 69zM377 804q0 18 21.5 32.5t44.5 14.5q30 0 30 -28
q0 -17 -18.5 -33t-40.5 -16q-37 0 -37 30zM521 783q0 18 21.5 32.5t44.5 14.5q30 0 30 -28q0 -17 -18.5 -33t-40.5 -16q-37 0 -37 30z" />
    <glyph glyph-name="Zcaron" unicode="&#x17d;" horiz-adv-x="631" 
d="M-25 26q0 52 77 52q48 0 136 -26q88 93 195 269q-60 -1 -130 -11l-34 -5q4 70 149 70q15 0 45 -2q82 146 117 237q-23 6 -78 27.5t-108 38t-92 16.5q-113 0 -113 -144q0 -22 4 -35q-54 10 -54 72q0 66 51 100.5t142 34.5q74 0 186 -32t160 -32q22 0 32 2q-27 -23 -50 -35
q-48 -115 -130 -256q90 -9 106 -9q-16 -22 -38.5 -27.5t-93.5 -7.5q-112 -183 -218 -285q178 -56 245 -56q40 0 71 16q-30 -85 -105 -85q-17 0 -38.5 4.5t-37 9t-45.5 16.5t-42 17l-46 22q-35 17 -43 20q-72 -56 -128 -56q-41 0 -66.5 25t-25.5 55zM1 28q0 -19 17.5 -37
t43.5 -18q37 0 92 47q-78 32 -116 32q-37 0 -37 -24zM416 855q0 23 17 31q21 -43 74 -92q67 24 103 57q10 -6 10 -19q0 -27 -45 -57.5t-69 -30.5t-57 39.5t-33 71.5z" />
    <glyph glyph-name="zcaron" unicode="&#x17e;" horiz-adv-x="317" 
d="M-71 -229q0 25 13 47.5t41 45t54 39.5l68 42q43 26 69 43q0 73 -69 127q49 14 79 59t30 88q0 24 -10 38.5t-29 14.5t-37.5 -10.5t-31.5 -24t-29.5 -41.5t-26 -47t-27.5 -58l-12 10q39 105 77.5 157t100.5 52q35 0 59 -22.5t24 -59.5q0 -51 -34 -93t-84 -67q52 -40 70 -90
q86 65 111 141l11 -12q-25 -79 -116 -148q4 -13 4 -33q0 -92 -74 -170.5t-165 -78.5q-66 0 -66 51zM-43 -218q0 -33 31 -33q47 0 111.5 61.5t73.5 154.5l-62 -38l-61 -38q-21 -13 -46 -32.5t-36 -37.5t-11 -37zM165 517q0 23 17 31q21 -43 74 -92q67 24 103 57q10 -6 10 -19
q0 -27 -45 -57.5t-69 -30.5t-57 39.5t-33 71.5z" />
    <glyph glyph-name="florin" unicode="&#x192;" horiz-adv-x="393" 
d="M-239 -126q0 56 60 76q-8 -27 -8 -53q0 -40 22.5 -67t49.5 -27q17 0 33 7.5t30 26t25.5 36.5t24 51t20.5 57.5t20 69.5l18 71l19 77l19 78q-46 -4 -62 -7q1 49 74 56q22 87 43.5 150t51.5 122.5t69 90.5t86 31q19 0 28.5 -9t9.5 -36q0 -76 -62 -176t-149 -170
q26 -1 67 -4.5t62 -3.5q18 0 28 3q-31 -45 -70 -45q-8 0 -43.5 0.5t-66.5 0.5h-18l-37 -149q-15 -58 -31.5 -117.5t-30.5 -93.5t-31 -65.5t-35.5 -47t-40.5 -24t-50 -8.5q-54 0 -89.5 27.5t-35.5 71.5zM163 347q73 61 129 148t56 132q0 26 -21 26q-39 0 -82.5 -82
t-81.5 -224z" />
    <glyph glyph-name="circumflex" unicode="&#x2c6;" horiz-adv-x="203" 
d="M0 460q0 27 45 57.5t69 30.5t57 -39.5t33 -71.5q0 -23 -17 -31q-21 43 -74 92q-67 -24 -103 -57q-10 6 -10 19z" />
    <glyph glyph-name="caron" unicode="&#x2c7;" horiz-adv-x="203" 
d="M0 517q0 23 17 31q21 -43 74 -92q67 24 103 57q10 -6 10 -19q0 -27 -45 -57.5t-69 -30.5t-57 39.5t-33 71.5z" />
    <glyph glyph-name="ring" unicode="&#x2da;" horiz-adv-x="425" 
d="M121 450q0 38 36.5 75t85.5 37q76 0 76 -54q0 -38 -38.5 -75t-87.5 -37q-72 0 -72 54zM160 457q0 -15 11 -28t31 -13q28 0 54 29.5t26 56.5q0 15 -11.5 26t-32.5 11q-29 0 -53.5 -27t-24.5 -55z" />
    <glyph glyph-name="tilde" unicode="&#x2dc;" horiz-adv-x="306" 
d="M0 421q35 46 83 46q26 0 90.5 -22t103.5 -22q15 0 30 3q-32 -36 -78 -36q-28 0 -89.5 19.5t-93.5 19.5q-26 0 -46 -8z" />
    <glyph glyph-name="endash" unicode="&#x2013;" horiz-adv-x="677" 
d="M25 114q4 47 76.5 64.5t205.5 17.5q86 0 172.5 -9t134.5 -9q-52 -45 -131 -45q-51 0 -118.5 -0.5t-91 -0.5t-62.5 -0.5t-52 -1.5t-39.5 -3.5t-45 -5t-49.5 -7.5z" />
    <glyph glyph-name="emdash" unicode="&#x2014;" horiz-adv-x="838" 
d="M35 114q5 47 95.5 64.5t256.5 17.5q108 0 216 -9t168 -9q-65 -45 -163 -45q-64 0 -148.5 -0.5t-113.5 -0.5t-78 -0.5t-65.5 -1.5t-49.5 -3.5t-56 -5.5z" />
    <glyph glyph-name="quoteleft" unicode="&#x2018;" horiz-adv-x="144" 
d="M126 692q0 11 7.5 19.5t17.5 8.5q4 -17 28.5 -53t32.5 -54q2 -6 2 -9q0 -17 -19 -28q-6 9 -27 38t-31.5 47.5t-10.5 30.5z" />
    <glyph glyph-name="quoteright" unicode="&#x2019;" horiz-adv-x="125" 
d="M124 604q0 3 2 9q8 18 32.5 54t28.5 53q10 0 17.5 -8.5t7.5 -19.5q0 -12 -10.5 -30.5t-31.5 -47.5t-27 -38q-19 11 -19 28z" />
    <glyph glyph-name="quotesinglbase" unicode="&#x201a;" horiz-adv-x="196" 
d="M-10 -51q0 33 20 70t41 37q10 0 17.5 -8.5t7.5 -19.5q-9 -9 -17 -19.5t-13 -18.5t-11.5 -20.5t-9.5 -18.5l-10 -20q-7 -14 -8 -19q-17 10 -17 37z" />
    <glyph glyph-name="quotedblleft" unicode="&#x201c;" horiz-adv-x="254" 
d="M126 692q0 11 7.5 19.5t17.5 8.5q4 -17 28.5 -53t32.5 -54q2 -6 2 -9q0 -17 -19 -28q-6 9 -27 38t-31.5 47.5t-10.5 30.5zM236 692q0 11 7.5 19.5t17.5 8.5q4 -17 28.5 -53t32.5 -54q2 -6 2 -9q0 -17 -19 -28q-6 9 -27 38t-31.5 47.5t-10.5 30.5z" />
    <glyph glyph-name="quotedblright" unicode="&#x201d;" horiz-adv-x="235" 
d="M124 604q0 3 2 9q8 18 32.5 54t28.5 53q10 0 17.5 -8.5t7.5 -19.5q0 -12 -10.5 -30.5t-31.5 -47.5t-27 -38q-19 11 -19 28zM234 604q0 3 2 9q8 18 32.5 54t28.5 53q10 0 17.5 -8.5t7.5 -19.5q0 -12 -10.5 -30.5t-31.5 -47.5t-27 -38q-19 11 -19 28z" />
    <glyph glyph-name="quotedblbase" unicode="&#x201e;" horiz-adv-x="306" 
d="M-10 -51q0 33 20 70t41 37q10 0 17.5 -8.5t7.5 -19.5q-9 -9 -17 -19.5t-13 -18.5t-11.5 -20.5t-9.5 -18.5l-10 -20q-7 -14 -8 -19q-17 10 -17 37zM100 -51q0 33 20 70t41 37q10 0 17.5 -8.5t7.5 -19.5q-9 -9 -17 -19.5t-13 -18.5t-11 -21l-10 -18q-3 -6 -9.5 -20
t-8.5 -19q-17 10 -17 37z" />
    <glyph glyph-name="dagger" unicode="&#x2020;" horiz-adv-x="381" 
d="M71 -27q0 50 49 190l55 159q-55 -5 -103 -14q2 36 31 51.5t54 15.5q7 0 19 -0.5t19 -0.5q81 216 123 216q7 0 12.5 -7t5.5 -16q0 -32 -73 -199q105 -10 112 -10q-23 -32 -60 -32q-48 0 -71 -1q-110 -248 -173 -352z" />
    <glyph glyph-name="daggerdbl" unicode="&#x2021;" horiz-adv-x="419" 
d="M38 221q4 68 141 70l20 53q-48 -1 -103 -9l-34 -5q4 70 149 70h9q75 190 113 190q7 0 12.5 -7t5.5 -16q0 -31 -61 -173q13 -2 41 -7t47 -7.5t36 -2.5q-23 -32 -60 -32q-40 -1 -86 -1l-26 -56q23 -2 73 -10.5t75 -9.5q-23 -32 -60 -32q-53 -1 -111 -1q-89 -193 -133 -262
q0 50 49 190l24 71q-39 -1 -87 -8z" />
    <glyph glyph-name="bullet" unicode="&#x2022;" horiz-adv-x="242" 
d="M40 156q0 24 22 46t48 22q18 0 33 -13t15 -31q0 -21 -23 -41.5t-50 -20.5q-19 0 -32 9.5t-13 28.5z" />
    <glyph glyph-name="ellipsis" unicode="&#x2026;" horiz-adv-x="526" 
d="M8 17q0 16 19 28.5t39 12.5q26 0 26 -24q0 -15 -16.5 -29.5t-35.5 -14.5q-32 0 -32 27zM164 17q0 16 19 28.5t39 12.5q26 0 26 -24q0 -15 -16.5 -29.5t-35.5 -14.5q-32 0 -32 27zM320 17q0 16 19 28.5t39 12.5q26 0 26 -24q0 -15 -16.5 -29.5t-35.5 -14.5q-32 0 -32 27z
" />
    <glyph glyph-name="perthousand" unicode="&#x2030;" horiz-adv-x="987" 
d="M80 -87q67 67 220.5 342t209.5 420q5 15 33 30t51 15q-19 -48 -144 -287.5t-185 -335.5q-57 -91 -101 -137.5t-84 -46.5zM100 455q0 73 42.5 143.5t102.5 70.5q38 0 61 -28.5t23 -75.5q0 -71 -43.5 -144.5t-103.5 -73.5q-40 0 -61 31t-21 77zM155 447q0 -62 33 -62
q34 0 61.5 63.5t27.5 124.5q0 60 -32 60q-40 0 -65 -64t-25 -122zM423 108q0 73 42.5 143.5t102.5 70.5q38 0 61 -28.5t23 -75.5q0 -71 -43.5 -144.5t-103.5 -73.5q-40 0 -61 31t-21 77zM478 101q0 -63 33 -63q34 0 61.5 63.5t27.5 124.5q0 60 -32 60q-40 0 -65 -63.5
t-25 -121.5zM711 108q0 73 42.5 143.5t102.5 70.5q38 0 61 -28.5t23 -75.5q0 -71 -43.5 -144.5t-103.5 -73.5q-40 0 -61 31t-21 77zM766 101q0 -63 33 -63q34 0 61.5 63.5t27.5 124.5q0 60 -32 60q-40 0 -65 -63.5t-25 -121.5z" />
    <glyph glyph-name="guilsinglleft" unicode="&#x2039;" horiz-adv-x="285" 
d="M6 158q49 21 103.5 67t86.5 91q5 -8 5 -22q0 -59 -169 -147l42 -30q14 -10 45.5 -25t74.5 -32q-14 -16 -29 -16q-36 0 -93.5 42t-65.5 72z" />
    <glyph glyph-name="guilsinglright" unicode="&#x203a;" horiz-adv-x="304" 
d="M51 294q0 14 5 22q32 -45 86.5 -91t103.5 -67q-8 -30 -65.5 -72t-93.5 -42q-15 0 -29 16q44 17 74 32t45 25l43 30q-169 88 -169 147z" />
    <glyph glyph-name="uni2074" unicode="&#x2074;" horiz-adv-x="268" 
d="M68 466q0 15 10 25q165 146 209 226q13 -2 13 -14q0 -3 -5.5 -22.5t-17 -68t-23.5 -108.5h17q11 0 36 5q-25 -35 -51 -35h-7q-21 -105 -21 -160q-48 3 -48 26q0 19 25 134q-4 0 -10 0.5t-9 0.5h-17q-61 0 -101 -9zM123 505q24 2 43 2q5 0 14.5 -0.5t13.5 -0.5h19l5 23
q12 60 22 90l-44 -43q-64 -61 -73 -71z" />
    <glyph glyph-name="Euro" unicode="&#x20ac;" horiz-adv-x="686" 
d="M18 155q3 61 110 68q2 15 8 45l-64 -8l-34 -5q3 60 112 69q50 160 162 277.5t223 117.5q92 0 92 -86q0 -62 -38.5 -137.5t-77.5 -75.5q-20 0 -31 23q37 42 72 102t35 99q0 45 -49 45q-78 0 -166 -111t-135 -255q29 -2 86 -8t82 -7q-16 -23 -44.5 -28t-138.5 -7
q-3 -13 -10 -49q31 -2 89.5 -8.5t83.5 -7.5q-16 -23 -44.5 -27.5t-135.5 -6.5q-1 -12 -1 -34q0 -82 35 -137.5t106 -55.5q77 0 154 63t118 152l14 -10q-54 -106 -134.5 -172.5t-175.5 -66.5q-99 0 -148 71t-49 173v12q-25 -2 -72 -9z" />
    <glyph glyph-name="trademark" unicode="&#x2122;" horiz-adv-x="557" 
d="M141 680q1 22 49.5 29t143.5 7h77q23 0 33.5 -19t10.5 -72q0 -23 -3.5 -71t-3.5 -55q13 22 38.5 80.5t47.5 95t42 36.5q5 0 14 -3l3 -3q-14 -34 -34.5 -131.5t-20.5 -146.5q0 -14 3 -23l4 -12q-24 0 -32.5 10t-8.5 36q0 66 33 193q-41 -70 -93 -201q-4 -4 -9 -4
q-21 0 -21 50q0 22 3 84t3 85v4q-70 -169 -93 -213t-45 -44l20 45l26 56l40 87l39 89q5 10 5 15q0 8 -10 8q-82 0 -125 -6q-82 -207 -82 -283q0 -5 2 -11q-41 0 -41 30q0 21 30.5 107.5t63.5 155.5q-66 0 -104 -7z" />
    <glyph glyph-name="uniE000" unicode="&#xe000;" horiz-adv-x="330" 
d="M0 330h330v-330h-330v330z" />
    <glyph glyph-name="NULL" horiz-adv-x="0" 
 />
    <glyph glyph-name="F.salt" horiz-adv-x="453" 
d="M40 305q3 65 127 70q68 179 119 284q-87 -3 -170 -18q14 79 204 79q108 0 262 -23q-35 -35 -97 -35q-5 0 -76.5 -0.5t-75.5 -0.5q-38 -96 -97 -288q30 -2 88 -8t83 -7q-16 -23 -45 -28t-141 -7q-96 -331 -96 -410q-81 7 -81 79q0 20 5 46t18.5 67t21.5 62l30 80l27 72
q-26 -2 -106 -14z" />
    <glyph glyph-name="M.salt" horiz-adv-x="943" 
d="M-103 -31q0 22 11 36q33 -51 92 -51q52 0 94.5 35t84.5 96q70 102 134.5 249t64.5 236q0 55 -26 91.5t-63 36.5q-40 0 -62 -43.5t-22 -98.5q0 -42 13 -65q-66 23 -66 93q0 52 38.5 94t99.5 42q83 0 127 -87.5t44 -251.5q0 -148 -15 -240q39 82 112.5 201.5t158.5 223.5
t126 104q12 0 20 -8.5t10 -20.5q-75 -69 -153 -253.5t-78 -327.5q0 -101 55 -101q47 0 106.5 56.5t98.5 146.5l11 -10q-40 -97 -104 -158.5t-122 -61.5q-47 0 -80 42t-33 117q0 79 35 188t80 206q-127 -184 -168.5 -260t-92.5 -206q-3 -9 -10.5 -20.5t-10.5 -11.5t-9 4
t-12.5 15.5t-6.5 28.5q0 2 12 108t12 203q0 79 -8 143q-10 -42 -35.5 -109.5t-67.5 -152.5t-89.5 -157.5t-107 -122.5t-114.5 -50q-38 0 -61 21t-23 51z" />
    <glyph glyph-name="U.salt" horiz-adv-x="734" 
d="M25 539q0 65 58 123t133 58q103 0 103 -121q0 -75 -61.5 -270t-61.5 -264q0 -50 20.5 -81t63.5 -31q39 0 74.5 26.5t61 69.5t43 87t28.5 88l41 167q16 62 42 151t49 133.5t42 44.5q20 0 50 -32q-30 -21 -107 -269.5t-77 -376.5q0 -82 31 -82q46 0 147 197l13 -10
q-24 -57 -53 -106.5t-68.5 -88.5t-74.5 -39q-33 0 -47.5 29t-14.5 65q0 31 9 91q-85 -185 -216 -185q-62 0 -96 38t-34 98q0 62 62.5 269.5t62.5 285.5q0 88 -56 88q-49 0 -77.5 -57t-28.5 -116q0 -30 8 -49q-69 0 -69 69z" />
    <glyph glyph-name="r.init" horiz-adv-x="417" 
d="M18 0q23 28 64 124.5t69 192.5q-10 10 -10 24q0 27 15.5 47.5t26.5 20.5q14 0 14 -24q0 -4 -5.5 -19.5t-5.5 -17.5q0 -12 16 -25.5t35 -25.5t35 -35.5t16 -52.5q0 -33 -25 -91.5t-25 -77.5q0 -30 30 -30q44 0 96.5 50t73.5 99l13 -10q-31 -69 -90 -122t-119 -53
q-34 0 -53.5 18t-19.5 47q0 30 27.5 95.5t27.5 91.5q0 10 -3 19.5t-5.5 15t-10.5 12.5l-11 10q-3 3 -13.5 10t-12.5 9q-36 -108 -74.5 -199.5t-61.5 -117.5z" />
    <glyph glyph-name="s.salt" horiz-adv-x="312" 
d="M-20 80q0 27 8.5 45.5t19 25t22 11.5t14.5 8q64 70 99 145q7 80 39 80q16 0 16 -13q0 -2 -3 -16t-3 -28q0 -30 26 -111t26 -127q0 -66 -37 -108.5t-103 -42.5q-64 0 -94 39t-30 92zM16 63q0 -38 24 -62t56 -24q34 0 58.5 30t24.5 90q0 27 -5 58t-14 68.5t-12 53.5
q-42 -69 -83 -115q11 0 22 -10t11 -24t-13 -30q-15 19 -32 19q-16 0 -26.5 -15t-10.5 -39z" />
    <glyph glyph-name="v_a" horiz-adv-x="774" 
d="M10 71q0 19 6 131q1 21 3 29t8.5 13t20.5 5q17 0 21.5 -6.5t4.5 -25.5q0 -21 -4.5 -77.5t-4.5 -83.5q0 -56 23 -56q34 0 94.5 89t89.5 168q9 23 26 39.5t35 16.5q4 0 12 -2q-105 -204 -173 -282q-60 -68 -107 -68q-55 0 -55 110zM312 36q0 59 41.5 131t107.5 124t128 52
q39 0 65 -21t26 -54q0 -43 -49 -43q5 18 5 35q0 56 -49 56q-44 0 -93.5 -50.5t-81 -117t-31.5 -115.5q0 -39 27 -39q18 0 42 17t44 38t47.5 56.5t41.5 54.5l35 52q40 -7 40 -25q0 -8 -29 -60t-29 -79q0 -17 8.5 -30.5t25.5 -13.5q29 0 73 41.5t87 116.5l10 -10
q-31 -80 -87.5 -131t-110.5 -51q-35 0 -53.5 20.5t-18.5 49.5q0 12 3 29q-45 -60 -80.5 -88t-70.5 -28q-33 0 -53.5 21.5t-20.5 61.5z" />
    </font>
</defs>
</svg>
