<?xml version="1.0" standalone="no"?>
<!DOCTYPE svg PUBLIC "-//W3C//DTD SVG 1.1//EN" "http://www.w3.org/Graphics/SVG/1.1/DTD/svg11.dtd" >
<svg xmlns="http://www.w3.org/2000/svg" xmlns:xlink="http://www.w3.org/1999/xlink" version="1.1">
<metadata>
Created by FontForge 20170731 at Sat Feb  4 01:37:06 2012
 By Aleksey,,,
Copyright (c) 2011 Natanael Gama (exo@ndiscovered.com), with Reserved Font Name "Exo"
</metadata>
<defs>
<font id="Exo-MediumItalic" horiz-adv-x="616" >
  <font-face 
    font-family="Exo"
    font-weight="500"
    font-style="italic"
    font-stretch="normal"
    units-per-em="1000"
    panose-1="2 0 6 3 0 0 0 0 0 0"
    ascent="800"
    descent="-200"
    x-height="531"
    cap-height="732"
    bbox="-84 -276 1357 1001"
    underline-thickness="50"
    underline-position="-150"
    unicode-range="U+000D-FB06"
  />
<missing-glyph horiz-adv-x="758" 
d="M100 0v531h558v-531h-558zM114 22l256 244l-256 241v-485zM124 518l257 -242l254 242h-511zM127 13h507l-253 243zM392 266l252 -241v481z" />
    <glyph glyph-name="fi" unicode="fi" horiz-adv-x="584" 
d="M406 786h20.5t80.5 -10t95 -22l-9 -59l-174 10h-16.5t-32 -4.5t-43.5 -17.5q-51 -28 -63 -104l-8 -48l355 -10l-82 -521h-93l71 448h-266l-70 -448h-92l70 448h-93l11 66l97 17l9 54q15 95 76 148t157 53z" />
    <glyph glyph-name="fl" unicode="fl" horiz-adv-x="690" 
d="M631 0q-123 0 -123 131q0 26 5 58l82 514h-171q-35 0 -59 -11q-53 -25 -68 -125l-6 -36h155l-13 -83h-156l-74 -448h-92l73 448h-95l11 64l99 19l7 38q28 179 155 208q30 7 66 7h272l-93 -589q-12 -78 5 -96q10 -10 56 -22t48 -12l-10 -65h-74z" />
    <glyph glyph-name=".notdef" horiz-adv-x="758" 
d="M100 0v531h558v-531h-558zM114 22l256 244l-256 241v-485zM124 518l257 -242l254 242h-511zM127 13h507l-253 243zM392 266l252 -241v481z" />
    <glyph glyph-name=".notdef" horiz-adv-x="758" 
d="M100 0v531h558v-531h-558zM114 22l256 244l-256 241v-485zM124 518l257 -242l254 242h-511zM127 13h507l-253 243zM392 266l252 -241v481z" />
    <glyph glyph-name=".null" horiz-adv-x="0" 
 />
    <glyph glyph-name="uni000D" unicode="&#xd;" horiz-adv-x="1000" 
 />
    <glyph glyph-name="space" unicode=" " horiz-adv-x="250" 
 />
    <glyph glyph-name="exclam" unicode="!" horiz-adv-x="266" 
d="M119 114h64q23 0 19 -25l-10 -66q-3 -23 -26 -23h-64q-11 0 -17 6.5t-4 16.5l10 66q4 25 28 25zM118 199l75 532h104l-94 -532h-85z" />
    <glyph glyph-name="quotedbl" unicode="&#x22;" horiz-adv-x="398" 
d="M175 531l9 134l11 67h92l-11 -67l-31 -134h-70zM322 531l10 134l11 67h91l-11 -67l-31 -134h-70z" />
    <glyph glyph-name="numbersign" unicode="#" horiz-adv-x="696" 
d="M54 226l20 64h157l48 153h-157l21 64h158l72 225h64l-72 -225h154l71 225h64l-71 -225h176l-22 -64h-175l-49 -154h176l-20 -64h-177l-73 -225h-64l73 225l-155 1l-73 -226h-64l73 226h-155zM295 290l154 -1l49 154h-155z" />
    <glyph glyph-name="dollar" unicode="$" horiz-adv-x="572" 
d="M596 641l-233 9h-10q-49 0 -81 -20t-41 -76l-9 -58q-2 -14 -2 -34.5t14 -38t70 -17.5h121q137 0 137 -131q0 -24 -4 -51l-10 -63q-17 -104 -91 -141q-58 -28 -131 -28h-20l-13 -82h-65l13 86q-100 10 -164 22l12 68q5 0 93 -3.5t124.5 -3.5t55.5 4t39.5 12t35.5 26t19 43
l9 60q10 61 -5 74q-18 16 -59 16h-120q-84 0 -120 42q-35 42 -35 89q0 20 3 51l10 65q19 117 102 154q47 22 118 23l13 86h66l-14 -89q68 -5 183 -22z" />
    <glyph glyph-name="percent" unicode="%" horiz-adv-x="962" 
d="M284 732h101q66 0 92 -31q19 -21 19 -62q0 -16 -3 -35l-20 -130q-12 -71 -43 -98t-107 -27h-101q-60 0 -86 29.5t-26 70.5q0 14 3 29l20 130q11 67 42 95.5t109 28.5zM187 480q-2 -11 -2 -20t3 -18q6 -19 49 -19h94q37 0 50 11.5t18 45.5l20 121q3 14 3 22.5t-2 17.5
q-4 17 -50 17h-94q-38 0 -51 -11.5t-18 -45.5zM220 0l556 732h79l-555 -732h-80zM755 383h101q66 0 92 -30q19 -22 19 -63q0 -16 -3 -35l-20 -130q-11 -70 -42.5 -97.5t-108.5 -27.5h-101q-60 0 -85 29t-25 70q0 14 2 29l20 130q10 65 39 94q32 31 112 31zM659 131
q-3 -11 -3 -19.5t3 -18.5q6 -19 48 -19h94q38 0 51 11.5t19 45.5l19 121q2 15 2 27.5t-7 21t-45 8.5h-93q-38 0 -51 -11.5t-18 -45.5z" />
    <glyph glyph-name="ampersand" unicode="&#x26;" horiz-adv-x="638" 
d="M385 648q-103 0 -103 -54q0 -25 21 -62l172 -299l134 119l29 -30l-71 -119l-48 -46l93 -157h-97l-62 106l-75 -65q-53 -47 -127 -47q-36 0 -73 14q-54 21 -86 72t-32 102q0 103 107 184l94 72l-47 80q-23 42 -23 78q0 13 3 24q11 45 46 74t84 33.5t82 4.5t70.5 -2.5
t110.5 -19.5l-10 -62h-192zM257 80q40 0 75 30l78 69l-109 182l-80 -61q-74 -55 -74 -114q0 -29 20 -58q33 -48 90 -48z" />
    <glyph glyph-name="quotesingle" unicode="'" horiz-adv-x="196" 
d="M146 531l10 134l11 67h93l-11 -67l-31 -134h-72z" />
    <glyph glyph-name="parenleft" unicode="(" horiz-adv-x="346" 
d="M199 158q0 -145 50 -280q18 -47 32 -72l14 -25h-95q-42 70 -70 193q-21 93 -21 190q0 166 58 332q45 128 127 258q31 49 51 73l19 24h101q-27 -32 -67.5 -94.5t-71.5 -121.5t-63.5 -146.5t-48 -172t-15.5 -158.5z" />
    <glyph glyph-name="parenright" unicode=")" horiz-adv-x="348" 
d="M251 472q0 145 -50 281q-17 47 -31 72l-14 26h94q42 -71 70 -195q21 -93 21 -190q0 -205 -83 -400q-47 -107 -80 -159q-57 -87 -79 -114l-10 -12h-103q27 32 67.5 94t71 121t63.5 146.5t48 172t15 157.5z" />
    <glyph glyph-name="asterisk" unicode="*" horiz-adv-x="436" 
d="M136 566l6 44l144 28l-7 -77zM177 415l45 135l73 -18l-79 -131zM278 473l53 65l95 -91l-29 -35zM286 718l46 17l54 -120l-76 -31zM338 571l132 77l16 -39l-108 -97z" />
    <glyph glyph-name="plus" unicode="+" horiz-adv-x="507" 
d="M95 313l13 86h164l26 165h86l-26 -165h166l-13 -86h-166l-27 -165h-86l27 165h-164z" />
    <glyph glyph-name="comma" unicode="," horiz-adv-x="265" 
d="M104 0q-11 0 -17 6.5t-4 18.5l10 63q4 27 30 27h60q19 0 19 -20v-7l-16 -99q-4 -28 -18 -46q-25 -33 -77 -33h-10l-11 2l6 36q14 0 22.5 6t10 11t3.5 13l3 22h-11z" />
    <glyph glyph-name="hyphen" unicode="-" horiz-adv-x="354" 
d="M60 247l14 86h314l-14 -86h-314z" />
    <glyph glyph-name="period" unicode="." horiz-adv-x="268" 
d="M121 114h62q22 0 22 -18q0 -3 -1 -7l-11 -66q-3 -23 -28 -23h-62q-10 0 -16 6.5t-5 16.5l11 66q3 25 28 25z" />
    <glyph glyph-name="slash" unicode="/" horiz-adv-x="415" 
d="M7 -72l414 842h97l-414 -842h-97z" />
    <glyph glyph-name="zero" unicode="0" horiz-adv-x="638" 
d="M353 732h164q45 0 77.5 -14.5t47.5 -37.5q25 -39 25 -83q0 -16 -4 -31l-63 -400q-14 -87 -61.5 -126.5t-132.5 -39.5h-164q-78 0 -121 41q-33 31 -33 88q0 17 3 37l63 398q27 168 199 168zM184 173q-2 -13 -2 -24.5t1 -20.5t6 -15t7.5 -10.5t11 -7t12 -4t14.5 -1.5
q11 -1 28 -1h146q87 0 101 83l62 388q2 13 2 31t-13.5 35t-61.5 17h-148q-92 0 -104 -83z" />
    <glyph glyph-name="one" unicode="1" horiz-adv-x="363" 
d="M130 584l9 64q38 0 81 20q65 31 94 64h90l-114 -732h-92l99 624q-21 -16 -66 -28t-101 -12z" />
    <glyph glyph-name="two" unicode="2" horiz-adv-x="592" 
d="M542 558q0 94 -111 94h-291l11 68q158 22 307 22q50 0 87 -18q66 -33 83 -119q5 -24 5 -44.5t-2.5 -47t-22.5 -67.5t-47 -76.5t-65.5 -74.5t-72 -67.5t-73.5 -59.5q-56 -42 -112 -79h320l-14 -89h-500l14 83q318 194 434 348q50 67 50 127z" />
    <glyph glyph-name="three" unicode="3" horiz-adv-x="591" 
d="M340 -7h-59h-18.5t-32.5 0.5t-37 1t-32.5 2t-34.5 3.5l-30 5q-29 5 -59 16l10 62h286q45 0 79.5 21t41.5 65l9 52q5 36 1 49.5t-7.5 21t-11 12t-13.5 7.5t-17 4q-16 3 -38 4l-230 7l12 73l232 10q103 4 118 91l9 60q2 12 2 22q0 63 -91 63h-299l9 61q86 29 220 29
q49 0 114 -1.5t107 -49.5q33 -37 33 -91q0 -14 -2 -30l-11 -65q-9 -58 -33 -92t-57 -42q50 -25 50 -101q0 -22 -4 -47l-9 -55q-27 -168 -207 -168z" />
    <glyph glyph-name="four" unicode="4" horiz-adv-x="607" 
d="M54 224l384 508h110l-346 -460h249l32 197l50 75h56l-43 -272h85l-11 -72l-89 -20l-27 -178h-95l28 178h-357z" />
    <glyph glyph-name="five" unicode="5" horiz-adv-x="601" 
d="M238 422q33 31 133 31q17 0 45.5 -1t36.5 -2q70 -1 109 -50q29 -39 29 -93q0 -16 -2 -33l-17 -110q-16 -99 -72 -136q-50 -32 -124 -33h-61q-105 0 -241 24l11 70h298q33 0 49 11t23.5 19.5t12.5 18.5q10 19 13 38l15 95q3 14 3 27q0 65 -71 65h-135q-32 0 -57 -17.5
t-31 -52.5h-87l92 439h429l-14 -89h-341z" />
    <glyph glyph-name="six" unicode="6" horiz-adv-x="617" 
d="M217 412q148 21 253 21q64 0 96 -26q33 -28 38 -63q5 -26 5 -41.5t-3 -28.5l-20 -126q-13 -81 -61.5 -114.5t-128.5 -33.5h-145q-32 0 -57 9.5t-46 36.5q-43 52 -43 176q0 71 15 165.5t41 165t58 108.5q61 75 129 76q23 1 46 1q136 0 258 -20l-12 -69h-278
q-31 0 -57 -24.5t-43 -64.5q-32 -72 -45 -148zM195 222q0 -136 78 -136h130q83 0 95 78l17 109q2 13 2 30t-13 29.5t-59 12.5h-239q-11 -71 -11 -123z" />
    <glyph glyph-name="seven" unicode="7" horiz-adv-x="548" 
d="M130 643l14 89h462l22 -52l-367 -680h-106l351 643h-376z" />
    <glyph glyph-name="eight" unicode="8" horiz-adv-x="629" 
d="M218 362q-71 26 -71 111q0 15 1 29l11 65q15 96 65.5 133t140.5 37h148q77 0 114 -46q27 -34 27 -89q0 -19 -3 -41l-11 -62q-4 -38 -32 -75q-25 -32 -65 -40q38 -11 51 -53q9 -27 9 -47t-2 -34l-15 -94q-18 -116 -97 -143q-37 -13 -94 -13h-147q-48 0 -81.5 13.5
t-48.5 31t-21 41.5t-6 38.5t4 36.5l14 91q8 50 38 77.5t71 32.5zM187 160q-2 -10 -2 -27.5t16.5 -31t67.5 -13.5h131q35 0 61.5 17t32.5 55l15 95q2 9 2 17q0 25 -17.5 42t-51.5 17h-143q-51 0 -78 -31q-15 -18 -19 -45zM238 476q0 -28 20.5 -44t53.5 -16h142q80 0 93 78
l10 62q3 20 3 41t-10 33q-15 20 -60 20h-132q-55 0 -78 -21t-31 -73l-10 -62q-1 -10 -1 -18z" />
    <glyph glyph-name="nine" unicode="9" 
d="M517 326q-148 -21 -253 -21q-76 0 -107 37q-31 36 -31 77q0 13 3 45l19 124q12 81 61 115t128 34h146q146 0 146 -223q0 -72 -15 -167t-41 -165t-58 -108q-61 -72 -129 -74q-28 -1 -55 -1q-146 0 -249 20l11 69h279q30 0 56.5 24.5t43.5 64.5q32 72 45 149zM219 464
q-2 -13 -2 -24.5t5 -23.5q8 -24 66 -24h240q11 71 11 123q0 136 -78 136h-130q-83 0 -95 -78z" />
    <glyph glyph-name="colon" unicode=":" horiz-adv-x="269" 
d="M121 114h62q22 0 22 -18q0 -3 -1 -7l-11 -66q-3 -23 -28 -23h-62q-10 0 -16 6.5t-5 16.5l11 66q3 25 28 25zM187 532h62q22 0 22 -18q0 -3 -1 -7l-10 -66q-4 -23 -29 -23h-62q-10 0 -16 6t-4 17l10 66q4 25 28 25z" />
    <glyph glyph-name="semicolon" unicode=";" horiz-adv-x="269" 
d="M104 0q-10 0 -16 7.5t-5 17.5l10 63q2 11 10.5 19t19.5 8h60q19 0 19 -20v-7l-16 -99q-4 -28 -18 -46q-25 -33 -77 -33h-10l-11 2l6 36q14 0 22.5 6t10 11t3.5 13l3 22h-11zM189 533h62q22 0 22 -18q0 -3 -1 -7l-10 -66q-4 -23 -28 -23h-62q-11 0 -17 6t-4 17l10 66
q3 25 28 25z" />
    <glyph glyph-name="less" unicode="&#x3c;" horiz-adv-x="467" 
d="M95 307l15 93l399 158l-14 -94l-292 -114l255 -122l-15 -90z" />
    <glyph glyph-name="equal" unicode="=" horiz-adv-x="467" 
d="M52 204l14 86h427l-14 -86h-427zM84 415l15 86h427l-15 -86h-427z" />
    <glyph glyph-name="greater" unicode="&#x3e;" horiz-adv-x="468" 
d="M68 138l16 96l297 121l-261 117l15 86l350 -158l-15 -93z" />
    <glyph glyph-name="question" unicode="?" horiz-adv-x="540" 
d="M312 293l-15 -98h-86l27 171q44 -1 78 -1t66 1.5t64.5 24t39.5 67.5l14 88q2 16 2 28q0 37 -22 57.5t-94 20.5h-265l11 65q7 1 32.5 5t32.5 5t29 3.5t30.5 3.5t28 3t32 2t27 0.5t30 0.5t44.5 -1q97 0 142 -55q35 -43 35 -100q0 -17 -3 -35l-15 -96q-17 -109 -90 -143
q-47 -23 -111 -23q-31 0 -64 6zM211 114h62q22 0 22 -18q0 -3 -1 -7l-11 -66q-4 -23 -28 -23h-62q-10 0 -16 6.5t-5 16.5l11 66q3 25 28 25z" />
    <glyph glyph-name="at" unicode="@" horiz-adv-x="875" 
d="M562 61q-58 -65 -153 -65q-43 0 -74 13t-54 45q-28 40 -28 121q0 44 8.5 105t27 110t40.5 77.5t49 46.5q46 30 101 30q162 0 227 -63l-57 -393q41 0 62.5 16.5t30.5 73.5l50 337q6 41 2.5 56.5t-6.5 23t-10 12t-11.5 7.5t-14.5 4q-14 2 -32 2h-376q-103 0 -119 -105
l-80 -501q-2 -18 -2 -31t1 -24q3 -24 24.5 -40.5t62.5 -16.5h386l-10 -57q-135 -27 -292 -27h-97q-87 0 -129 57q-32 42 -32 102q0 19 3 39l80 505q30 184 219 184h372q87 0 123 -51q26 -36 26 -95q0 -22 -3 -47l-52 -347q-12 -83 -54 -122q-17 -16 -48.5 -28t-73.5 -12h-64
zM342 257q-6 -44 -6 -80t9 -58q16 -39 76 -39q54 0 87.5 19t61.5 43l48 304q-56 15 -139 15q-111 0 -137 -204z" />
    <glyph glyph-name="A" unicode="A" horiz-adv-x="667" 
d="M42 0l379 732h97l136 -732h-94l-36 193h-281l-100 -193h-101zM287 280h223l-57 327z" />
    <glyph glyph-name="B" unicode="B" horiz-adv-x="597" 
d="M478 732q85 0 125 -43q41 -46 41 -113q0 -20 -1 -41q-9 -67 -41 -105t-80 -50q30 -5 55 -50q21 -36 21 -93q0 -18 -3 -37q-12 -98 -67 -149t-166 -51h-287l116 732h287zM503 210q3 17 3 42t-15 51q-22 38 -76 38h-193l-40 -253l193 -1q108 0 128 123zM553 570
q0 36 -20.5 55t-69.5 19h-193l-34 -217h191q105 0 123 110q3 18 3 33z" />
    <glyph glyph-name="C" unicode="C" horiz-adv-x="576" 
d="M309.5 723.5q45.5 16.5 126.5 16.5t220 -32l-11 -72q-114 15 -213 15h-16h-13.5t-14.5 -0.5t-20.5 -2t-22.5 -6t-22.5 -11t-23.5 -17.5t-22 -25.5t-21.5 -36t-19.5 -48.5q-19 -51 -31.5 -125.5t-12.5 -122.5q0 -165 124 -173q18 -1 67.5 -1t177.5 9l-10 -73
q-85 -24 -240 -24q-120 0 -168 81q-42 70 -42 181q0 110 37 245q34 123 94 178q32 28 77.5 44.5z" />
    <glyph glyph-name="D" unicode="D" horiz-adv-x="664" 
d="M470 732q108 0 156 -67q48 -65 53 -149q2 -26 2 -46q0 -57 -10 -112q-29 -174 -104.5 -266t-209.5 -92h-282l116 731q0 1 279 1zM366 90q57 0 103 39q84 71 111 235q10 63 10 119q0 162 -138 162h-183l-88 -555h185z" />
    <glyph glyph-name="E" unicode="E" horiz-adv-x="565" 
d="M313 732q5 0 155.5 -7t167.5 -9l-11 -74h-307q-44 0 -56 -35q-3 -9 -5 -21l-28 -176l316 -10l-12 -74l-318 -10l-29 -177q-5 -38 15 -46q15 -6 40 -6h297l-13 -73l-308 -17h-18t-35 6q-73 20 -73 99q0 14 2 28l74 468q22 134 146 134z" />
    <glyph glyph-name="F" unicode="F" horiz-adv-x="566" 
d="M315 732q5 0 155 -7t168 -9l-12 -74h-306q-45 0 -57 -35q-3 -9 -4 -21l-28 -176l315 -11l-11 -74l-319 -10l-50 -315h-92l94 594q22 138 147 138z" />
    <glyph glyph-name="G" unicode="G" horiz-adv-x="610" 
d="M422 739q92 0 234 -30l-10 -73q-89 14 -233 16q-63 0 -95 -23q-39 -30 -63 -82q-31 -71 -43.5 -157.5t-12.5 -120.5t1 -50q4 -62 34 -99t83 -37h2q33 0 77.5 13.5t71.5 26.5l27 14l31 174h-151l10 61q83 24 179 24q31 0 67 -2l-63 -394h-69l-15 56q-37 -34 -110 -53
q-101 -26 -169 13q-72 41 -93 148q-9 45 -9 71t0.5 54.5t11.5 93.5t26 119t38.5 101t55.5 75q67 61 180 61h7z" />
    <glyph glyph-name="H" unicode="H" horiz-adv-x="638" 
d="M79 0l116 732h92l-54 -334h323l54 334h92l-116 -732h-92l50 310h-323l-50 -310h-92z" />
    <glyph glyph-name="I" unicode="I" horiz-adv-x="233" 
d="M83 0l116 732h92l-116 -732h-92z" />
    <glyph glyph-name="J" unicode="J" horiz-adv-x="359" 
d="M50 91q57 -12 75.5 -12t28 1.5t26.5 7.5t27 18q25 28 32 76l87 550h92l-90 -567q-12 -81 -41 -118q-43 -53 -139 -53q-74 0 -112 28z" />
    <glyph glyph-name="K" unicode="K" horiz-adv-x="585" 
d="M75 0l116 732h90l-51 -322h79l263 322h113l-297 -372l181 -360h-109l-158 322h-85l-51 -322h-91z" />
    <glyph glyph-name="L" unicode="L" horiz-adv-x="533" 
d="M243 89h291l-14 -89h-306q-59 0 -90.5 28t-31.5 73q0 14 2 29l97 602h92l-95 -591q-6 -38 14 -46q15 -6 41 -6z" />
    <glyph glyph-name="M" unicode="M" horiz-adv-x="809" 
d="M65 0l169 732h122l86 -579l264 579h127l-57 -732h-91l47 569l-261 -569h-99l-84 568l-131 -568h-92z" />
    <glyph glyph-name="N" unicode="N" horiz-adv-x="662" 
d="M75 0l116 732h90l260 -562l89 562h92l-116 -732h-89l-261 560l-88 -560h-93z" />
    <glyph glyph-name="O" unicode="O" horiz-adv-x="666" 
d="M387 735q26 2 64.5 2t68.5 -3.5t60.5 -13.5t50.5 -28q47 -40 59 -114q6 -34 6 -60.5t-0.5 -58.5t-11.5 -101t-25.5 -122.5t-32 -91.5t-41 -64.5t-47.5 -43t-56 -25.5q-85 -24 -202 -12q-72 7 -111 37q-49 39 -63 110q-6 35 -6 61.5t0.5 57t11 97t23 117.5t28.5 88.5
t33 65.5t40 46.5t44 30t51 17.5t56 8zM218 437q-27 -129 -27 -214q0 -94 53 -120q36 -18 100 -18t99 10t66 40q56 54 83 226q13 83 13 130t-5.5 68.5t-11.5 36t-19 24.5t-24 15.5t-30 8.5q-28 4 -61 4t-46.5 -0.5t-32.5 -2.5t-30.5 -6t-27 -11t-25 -18t-21.5 -26.5
t-20 -36.5q-22 -57 -33 -110z" />
    <glyph glyph-name="P" unicode="P" horiz-adv-x="595" 
d="M492 732q44 0 72 -14.5t43 -31.5q38 -45 38 -118q0 -26 -5 -62t-14.5 -69t-21 -55.5t-26 -39.5t-29.5 -26t-31.5 -15.5t-32.5 -7.5t-32 -2.5t-37.5 -0.5t-110.5 8.5t-93 9.5l-50 -308h-92l116 732h306zM548 516q4 40 4 56.5t-6.5 30t-13 22t-17.5 12.5q-18 7 -40 7h-211
l-42 -266h210q71 0 98 66q11 28 18 72z" />
    <glyph glyph-name="Q" unicode="Q" horiz-adv-x="670" 
d="M452 737q36 0 63 -3t54.5 -10t47 -20t37.5 -32q31 -36 42 -116q4 -25 4 -49q0 -68 -11.5 -143.5t-26.5 -128.5t-32 -91t-41 -65t-47.5 -43t-56.5 -25q-76 -21 -187 -13q-57 4 -84.5 16t-45.5 26.5t-30 33.5q-35 57 -35 152q0 113 35 254q22 88 62 154q28 46 83 76
q51 27 169 27zM221 437q-27 -129 -27 -214q0 -94 53 -120q37 -18 100.5 -18t99 10t65.5 40q56 54 83 226q13 83 13 130t-5.5 68.5t-11.5 36t-19 24.5t-23.5 15.5t-30.5 8.5q-27 4 -60.5 4t-47 -0.5t-32.5 -2.5t-30.5 -6t-26.5 -11t-25 -18t-21.5 -26.5t-20.5 -36.5
q-22 -57 -33 -110zM364 -33q36 -37 90 -37q29 0 73 15l-14 -89q-25 -9 -43 -9t-40 1.5t-53.5 13t-52.5 39.5t-19 66h59z" />
    <glyph glyph-name="R" unicode="R" horiz-adv-x="608" 
d="M498 732q75 0 115 -53q30 -41 30 -118q0 -108 -38 -178q-36 -69 -104 -82q-8 -1 -18 -3l105 -298h-102l-95 290l-181 13l-48 -303h-92l116 732h312zM533 448q10 26 13 55.5t3 53t-6 47t-20.5 32t-42.5 8.5h-215l-42 -265h211q72 0 99 69z" />
    <glyph glyph-name="S" unicode="S" horiz-adv-x="573" 
d="M607 640l-245 9h-16q-49 0 -77.5 -17t-37.5 -78l-9 -58q-6 -36 -2.5 -49t6.5 -19.5t9.5 -10.5t11.5 -6.5t15 -3.5q15 -1 27.5 -1h14.5h130q45 0 76 -16.5t43 -42.5q19 -39 19 -70t-4 -49l-9 -68q-22 -157 -194 -167q-17 -1 -58 -1t-118 8.5t-112 17.5l11 73
q76 -10 247 -10q119 0 131 83l10 60q4 17 4 34t-6 30q-12 26 -63 26h-128q-158 0 -158 134q0 21 4 44l10 69q17 112 82 148q53 29 130 29q54 0 139 -8.5t128 -16.5z" />
    <glyph glyph-name="T" unicode="T" horiz-adv-x="581" 
d="M134 643l15 89h517l-15 -89h-215l-102 -643h-92l102 643h-210z" />
    <glyph glyph-name="U" unicode="U" horiz-adv-x="655" 
d="M215 305q-8 -59 -8 -81.5v-27.5q2 -80 66 -102q28 -10 73 -10q94 0 142 49.5t67 171.5l67 427h93l-66 -432q-29 -180 -113 -247q-72 -58 -199 -58q-158 0 -201 101q-23 52 -23 107.5t9 105.5l67 423h93z" />
    <glyph glyph-name="V" unicode="V" horiz-adv-x="674" 
d="M147 732h97l104 -595l304 595h104l-378 -732h-98z" />
    <glyph glyph-name="W" unicode="W" horiz-adv-x="1004" 
d="M147 732h94l106 -592l300 592h102l-120 -238l57 -359l301 597h99l-371 -732h-97l-57 354l-181 -354h-100z" />
    <glyph glyph-name="X" unicode="X" horiz-adv-x="612" 
d="M36 0l275 367l-161 365h98l125 -288l215 288h108l-283 -379l156 -353h-99l-119 276l-207 -276h-108z" />
    <glyph glyph-name="Y" unicode="Y" horiz-adv-x="637" 
d="M147 732h98l116 -372l250 372h108l-326 -481l-40 -251h-92l40 251z" />
    <glyph glyph-name="Z" unicode="Z" horiz-adv-x="562" 
d="M33 0l14 89l466 554h-379l15 89h496l-15 -89l-463 -554h376l-14 -89h-496z" />
    <glyph glyph-name="bracketleft" unicode="[" horiz-adv-x="324" 
d="M359 833h80l-14 -86h-72q-31 0 -49 -17t-26 -63l-112 -705q-4 -30 -5 -48.5t6 -29.5q11 -17 46 -17h73l-14 -86h-82q-37 0 -62.5 13.5t-36.5 32.5q-22 34 -22 88q0 22 5 50l113 711q12 74 44 113q37 44 128 44z" />
    <glyph glyph-name="backslash" unicode="\" horiz-adv-x="406" 
d="M140 770h89l148 -842h-89z" />
    <glyph glyph-name="bracketright" unicode="]" horiz-adv-x="324" 
d="M233 833q121 0 121 -136q0 -21 -3 -45l-111 -714q-12 -71 -43 -111q-36 -46 -128 -46h-83l13 86h73q31 0 49 17t26 63l112 705q4 29 4 48.5t-5 28.5q-10 18 -47 18h-72l14 86h80z" />
    <glyph glyph-name="asciicircum" unicode="^" horiz-adv-x="389" 
d="M131 531l135 132h80l81 -132h-75l-49 76l-81 -76h-91z" />
    <glyph glyph-name="underscore" unicode="_" horiz-adv-x="673" 
d="M20 -1l14 86h634l-14 -86h-634z" />
    <glyph glyph-name="grave" unicode="`" horiz-adv-x="252" 
d="M124 666h96l98 -135h-75z" />
    <glyph glyph-name="a" unicode="a" horiz-adv-x="540" 
d="M258 532q23 6 46 8.5t55.5 2.5t101.5 -15t105 -49l-70 -479h-68l-14 59q-28 -23 -79 -44.5t-93.5 -21.5t-69 7.5t-50 27t-34.5 52.5q-14 44 -14 95t11 111t30.5 106.5t40.5 73t50 43.5t52 23zM194 343.5q-12 -36.5 -19.5 -84.5t-7.5 -82.5t9 -56.5q17 -41 69.5 -41
t88.5 11.5t87 37.5l48 315q-64 18 -99.5 18t-56.5 -4t-33.5 -8t-31 -16.5t-30.5 -32.5t-24 -56.5z" />
    <glyph glyph-name="b" unicode="b" horiz-adv-x="554" 
d="M414 539q146 0 146 -179q0 -80 -26 -183q-22 -89 -64 -133q-47 -50 -125 -50q-51 0 -109 22.5t-80 41.5l-30 -58h-70l124 785h90l-44 -285q45 18 98 28.5t90 10.5zM468 371q0 84 -73 84q-88 0 -179 -24l-49 -308q88 -43 170 -43q50 0 78.5 45t40.5 125t12 121z" />
    <glyph glyph-name="c" unicode="c" horiz-adv-x="494" 
d="M248.5 534q22.5 4 58.5 4t104.5 -8.5t119.5 -20.5l-9 -63q-126 8 -181.5 8t-67.5 -2t-27.5 -12t-25.5 -31q-25 -47 -43 -147q-9 -59 -9 -93t10 -54q19 -37 64 -37q87 0 194 8l36 2l-10 -64q-101 -30 -223 -30h-13q-83 1 -124 67q-25 42 -25 99t10.5 119.5t28.5 113
t37 78.5t46 43.5t49.5 19.5z" />
    <glyph glyph-name="d" unicode="d" horiz-adv-x="551" 
d="M253 533.5q24 5.5 56 5.5t84.5 -10.5t91.5 -28.5l46 285h90l-125 -785h-70l-12 58q-30 -21 -85.5 -42.5t-102.5 -21.5t-81 24.5t-48 64.5q-18 54 -18 102.5t6 80.5t11 56t12.5 49.5t17.5 46t22 40t27.5 34t34.5 25.5t43 16.5zM171 189q0 -109 72 -109q82 0 182 43l49 308
q-83 24 -173 24q-30 0 -51 -14q-48 -33 -72 -177q-7 -42 -7 -75z" />
    <glyph glyph-name="e" unicode="e" horiz-adv-x="525" 
d="M353 541q155 0 185 -75q11 -26 11 -46q0 -76 -31.5 -118.5t-70.5 -60.5q-76 -33 -155 -33q-40 0 -75.5 4.5t-46.5 9.5q-6 -40 -6 -69t8 -46q16 -31 69 -32q23 -1 76.5 -1t164.5 16l-11 -68q-104 -29 -234 -29h-23q-95 1 -125 72q-16 38 -16 93.5t11 113t19.5 88.5
t22 62.5t32 51.5t45.5 36q51 31 149 31h1zM179 286q28 -3 47 -3h28t32.5 2t44.5 5.5t42.5 11t37.5 17.5q45 30 45 84q0 30 -18 39q-29 14 -90 14q-84 0 -117 -36q-24 -26 -31 -50q-10 -29 -14.5 -50.5t-4.5 -23.5q-1 -6 -2 -10z" />
    <glyph glyph-name="f" unicode="f" horiz-adv-x="403" 
d="M382 785q22 0 48 -5q46 -8 75 -19l-9 -58h-106v0q-25 0 -40 -5.5t-25 -23.5q-16 -26 -28 -107l-6 -36h155l-13 -83h-156l-74 -448h-92l73 448h-95l11 64l99 19l8 45q16 104 43 146q40 63 132 63z" />
    <glyph glyph-name="g" unicode="g" horiz-adv-x="554" 
d="M291 -187q52 0 80 42q15 22 20 53l19 123q-89 -38 -158 -38t-105.5 22t-51.5 61q-17 45 -17 99t10 106q20 126 78.5 191.5t148.5 65.5t264 -25l-96 -609q-15 -93 -66.5 -135t-113.5 -42q-10 0 -21 1l-250 24l10 61h249zM170 183q0 -21 1 -31t6 -27t14 -26
q22 -23 65.5 -23t76 4.5t88.5 19.5l57 355h-162q-48 0 -78 -38q-29 -37 -39 -68q-14 -48 -21.5 -96.5t-7.5 -69.5z" />
    <glyph glyph-name="h" unicode="h" horiz-adv-x="545" 
d="M535 490q25 -38 25 -88q0 -17 -3 -36l-58 -366h-92l58 366q2 12 2 31.5t-16 39t-60 19.5t-80 -12t-99 -42l-64 -402h-92l124 784h92l-50 -314q5 3 28.5 16t44.5 23q63 31 134.5 31t105.5 -50z" />
    <glyph glyph-name="i" unicode="i" horiz-adv-x="203" 
d="M55 0l84 531h92l-84 -531h-92zM180 703h65q20 0 20 -19q0 -3 -1 -6l-9 -64q-4 -23 -27 -23h-65q-11 0 -16.5 6.5t-3.5 16.5l9 64q4 25 28 25z" />
    <glyph glyph-name="j" unicode="j" horiz-adv-x="224" 
d="M23 -270l127 801h92l-85 -535q-24 -161 -71 -266h-63zM256 703q20 0 20 -20q0 -3 -1 -5l-10 -64q-3 -23 -27 -23h-65q-10 0 -16 6.5t-4 16.5l10 64q4 25 28 25h65z" />
    <glyph glyph-name="k" unicode="k" horiz-adv-x="501" 
d="M56 0l124 782h92l-73 -460q68 21 147.5 87t92.5 122h101q-22 -77 -92 -146t-130 -97l190 -288h-108l-172 261l-38 -1l-42 -260h-92z" />
    <glyph glyph-name="l" unicode="l" horiz-adv-x="294" 
d="M202 0q-122 0 -122 131q0 27 5 58l94 594h92l-93 -588q-13 -78 5 -96q10 -10 56 -22t47 -12l-10 -65h-74z" />
    <glyph glyph-name="m" unicode="m" horiz-adv-x="891" 
d="M496.5 514q35.5 -23 46.5 -59q116 82 225 82q70 0 109 -49q29 -37 29 -90q0 -17 -3 -36l-58 -362h-92l58 363q1 10 1 28.5t-17 40t-52 21.5q-57 0 -97.5 -11.5t-88.5 -40.5q0 -1 -3 -20.5t-3 -20.5l-57 -360h-92l57 363q2 10 2 18q0 29 -17.5 50.5t-52.5 21.5t-65.5 -7
t-49 -15.5t-65.5 -30.5l-63 -400h-92l84 531h69l13 -62q9 4 26.5 14t26 14.5t24 12.5t27 11.5t26.5 8.5q27 7 68 7t76.5 -23z" />
    <glyph glyph-name="n" unicode="n" horiz-adv-x="545" 
d="M423 540q78 0 112 -50q25 -38 25 -88q0 -17 -3 -36l-58 -366h-92l58 366q2 12 2 31.5t-16 39t-60 19.5t-80 -12t-99 -42l-64 -402h-92l84 531h69l13 -61q4 3 18.5 11t19 10t18 9.5t19.5 9.5t18.5 7.5t20 8t19.5 6t22 4.5q27 4 46 4z" />
    <glyph glyph-name="o" unicode="o" horiz-adv-x="562" 
d="M364 536q126 0 172 -68q30 -46 30 -124q0 -40 -8 -90q-24 -149 -80.5 -204t-187.5 -55t-179 62q-32 42 -32 122q0 37 10 101t29.5 116.5t53.5 84t78.5 43.5t113.5 12zM198 345q-28 -87 -28 -175q0 -35 20 -62q21 -29 104 -28q61 0 88 12t40 31.5t24.5 52.5t19.5 82
q9 53 9 85.5t-5.5 54t-22 33.5t-38.5 16.5t-56 4.5t-55.5 -3.5t-42 -14.5t-33.5 -32.5t-24 -56.5z" />
    <glyph glyph-name="p" unicode="p" horiz-adv-x="558" 
d="M404 534q46 0 78.5 -17t49.5 -45q30 -50 30 -135q0 -143 -53 -240q-58 -105 -174 -105q-40 0 -92.5 9.5t-89.5 27.5l-49 -299h-91l132 788q112 16 259 16zM366.5 84.5q23.5 10.5 41.5 28.5q37 37 56 152q7 42 7 74q0 112 -81 112h-166l-59 -352q67 -25 122.5 -25t79 10.5
z" />
    <glyph glyph-name="q" unicode="q" horiz-adv-x="553" 
d="M318 538q87 0 261 -25l-124 -783h-92l47 299q-91 -39 -159 -39t-104 21t-51 59q-17 45 -17 98.5t9 103.5q42 266 230 266zM169 178q0 -18 1.5 -35.5t5.5 -25.5t10 -18t15 -14q22 -11 53.5 -11t54.5 2q43 3 113 22l56 357h-166q-27 0 -49 -14t-35.5 -33.5t-24.5 -46.5
q-16 -42 -25 -103.5t-9 -79.5z" />
    <glyph glyph-name="r" unicode="r" horiz-adv-x="424" 
d="M349 526q36 11 80 11t59 -8l-15 -90q-25 5 -76 5t-90.5 -12.5t-97.5 -45.5l-61 -386h-92l84 531h70l11 -67q4 2 26.5 15t44 24.5t57.5 22.5z" />
    <glyph glyph-name="s" unicode="s" horiz-adv-x="508" 
d="M340 76q49 0 57 49l8 46q2 8 2 18.5t-8 21t-36 10.5h-140q-74 0 -108 32q-24 24 -24 70q0 16 3 35l8 50q11 67 47.5 99.5t101 32.5t153 -6t122.5 -13l-11 -65h-255q-50 0 -63 -36q-2 -7 -4 -17l-7 -44q-6 -38 9 -46q11 -6 24.5 -5.5t16.5 0.5h143q66 0 97 -38
q24 -29 24 -70q0 -13 -2 -26l-9 -63q-8 -53 -34 -80q-26 -26 -50 -32q-35 -8 -76.5 -8t-141.5 7.5t-125 13.5l10 64h268z" />
    <glyph glyph-name="t" unicode="t" horiz-adv-x="377" 
d="M259 0q-121 0 -121 131q0 27 5 58l40 260h-95l10 62l99 21l42 148h73l-23 -148h145l-14 -83h-145l-40 -254q-11 -78 6 -96q9 -10 55 -22.5t48 -12.5l-9 -64h-76z" />
    <glyph glyph-name="u" unicode="u" horiz-adv-x="544" 
d="M165 165q-2 -15 -2 -35.5t15.5 -37t60 -16.5t80.5 11.5t100 42.5l63 401h92l-84 -531h-69l-14 60q-3 -2 -26 -14.5t-44 -23.5q-63 -31 -136 -31t-106 49q-25 35 -25 86q0 19 3 40l58 365h92z" />
    <glyph glyph-name="v" unicode="v" horiz-adv-x="520" 
d="M554 531q6 -20 6 -47t-17 -62l-219 -422h-114l-119 531h97l91 -422l170 334q21 44 27 88h78z" />
    <glyph glyph-name="w" unicode="w" horiz-adv-x="806" 
d="M546 529q6 -21 6 -46t-13 -54l-26 -58l50 -253l177 325q21 44 27 88h75q6 -22 6 -49.5t-17 -59.5l-235 -422h-95l-53 259l-134 -259h-104l-119 531h94l89 -418l170 327q22 44 28 89h74z" />
    <glyph glyph-name="x" unicode="x" horiz-adv-x="537" 
d="M22 0l233 270l-149 261h108l105 -192l164 192h116l-233 -274l145 -257h-106l-104 187l-159 -187h-120z" />
    <glyph glyph-name="y" unicode="y" horiz-adv-x="552" 
d="M588 533q5 -19 5 -47t-18 -66l-208 -419q-64 -131 -128.5 -195.5t-142.5 -79.5v65q56 35 94 86.5t75 122.5q-35 0 -67 21q-40 26 -50 96l-57 414h96l55 -403q7 -42 62 -39h2l177 355q17 36 25 89h80z" />
    <glyph glyph-name="z" unicode="z" horiz-adv-x="460" 
d="M43 1l11 86l328 358h-282l12 86h405l-12 -86l-321 -358h262l-13 -86h-390z" />
    <glyph glyph-name="braceleft" unicode="{" horiz-adv-x="320" 
d="M191 -49q0 -86 82 -86q4 0 8 1l-13 -85q-54 0 -91.5 18t-53.5 48q-26 46 -26 100q0 23 5 45l39 241q1 4 1 9q0 23 -21 38t-49 15q-3 0 -7 -1l12 78h13.5t15 0.5t14.5 1t14.5 2.5t12.5 5t11 8q10 11 13 27l37 236q29 181 226 181l-13 -86h-3q-50 0 -80.5 -25t-40.5 -87
l-34 -221q-7 -37 -34.5 -59t-68.5 -28q52 -9 69 -48q6 -13 6 -23t-1 -17l-39 -241q-4 -26 -4 -47z" />
    <glyph glyph-name="bar" unicode="|" horiz-adv-x="245" 
d="M68 -72l133 842h86l-133 -842h-86z" />
    <glyph glyph-name="braceright" unicode="}" horiz-adv-x="316" 
d="M229 661q0 86 -82 86h-8l14 86q85 0 125 -45q42 -46 42 -111q0 -28 -3 -57l-37 -233q-5 -31 21 -48q24 -16 55 -14l-12 -77q-2 -1 -12 -1h-13.5t-12.5 -0.5t-13 -2t-11.5 -3.5t-11.5 -5t-9 -8q-8 -8 -11 -25l-39 -240q-15 -91 -69.5 -136.5t-155.5 -45.5l13 85q2 -1 3 -1
q49 0 79.5 25t40.5 85l37 231q6 35 33 57t68 30q-38 5 -56 26.5t-18 46.5q0 7 1 15l37 231q5 28 5 49z" />
    <glyph glyph-name="asciitilde" unicode="~" horiz-adv-x="432" 
d="M237.5 641.5q13.5 3.5 32.5 3.5t48 -17.5t43.5 -17.5t24.5 2t17 4t18 7.5t15 8t16 9.5t14 9l15 -47q-1 -1 -18.5 -16.5t-24.5 -21t-23 -15.5q-28 -19 -55.5 -19t-59 17.5t-49.5 17.5t-32.5 -4.5t-35 -15t-31.5 -15.5l-15 45q7 5 24.5 19.5t25.5 20t22.5 14t28 12z" />
    <glyph glyph-name="exclamdown" unicode="&#xa1;" horiz-adv-x="272" 
d="M39 -269l96 531h86l-72 -531h-110zM141 376l10 63q3 21 28 23h59q9 -1 15 -8.5t5 -17.5l-10 -60q-5 -21 -24 -26h-65q-20 2 -18 26z" />
    <glyph glyph-name="cent" unicode="&#xa2;" horiz-adv-x="488" 
d="M210.5 526.5q24.5 8.5 42 10t31 1.5h24.5l16 96h67l-16 -101q84 -10 149 -25l-11 -62q-126 7 -181 7t-67.5 -2t-28 -12t-25.5 -30q-24 -47 -42 -147q-10 -59 -10 -93t10 -54q19 -37 65 -37q86 0 194 8l36 2l-11 -64q-76 -25 -164 -29l-13 -91h-68l14 90q-84 1 -125 62
q-28 40 -28 115q0 43 9.5 102t23 104.5t31 75t35.5 47.5t42.5 26.5z" />
    <glyph glyph-name="sterling" unicode="&#xa3;" horiz-adv-x="592" 
d="M624 720l35 -4l-12 -72h-186q-48 0 -75.5 -5t-48 -21t-31 -42.5t-17.5 -73.5l-17 -106l254 -16l-8 -54h-257l-37 -237h335l-14 -89h-498l11 72l74 17l37 236h-71l8 53l74 18l17 107q22 137 81 184q22 16 40 25t46 13q41 7 98 7t162 -12z" />
    <glyph glyph-name="currency" unicode="&#xa4;" horiz-adv-x="460" 
d="M440 332q0 -69 -42 -119l43 -52l-50 -41l-41 50q-38 -25 -92.5 -25t-90.5 29l-53 -45l-38 49l53 45q-18 35 -18 70q0 11 2 21q8 55 35 88l-38 45l49 39l36 -42q46 29 102 29t92 -31l56 47l36 -47l-55 -48q14 -30 14 -62zM177 295q0 -30 21 -57q22 -27 63 -27q69 0 99 60
q16 30 16 58t-20.5 54t-63.5 26q-47 0 -77 -28q-38 -35 -38 -86z" />
    <glyph glyph-name="yen" unicode="&#xa5;" horiz-adv-x="610" 
d="M110 149l10 65h157l7 46h-157l11 66h143l-147 406h98l116 -332l248 332h110l-309 -406h168l-11 -66h-178l-7 -46h178l-10 -65h-176l-20 -149h-92l20 149h-159z" />
    <glyph glyph-name="brokenbar" unicode="&#xa6;" horiz-adv-x="246" 
d="M68 -72l52 328h86l-52 -328h-86zM147 429l54 341h86l-54 -341h-86z" />
    <glyph glyph-name="section" unicode="&#xa7;" horiz-adv-x="548" 
d="M236 582q0 -34 45 -34h164q65 0 92.5 -31.5t27.5 -72.5q0 -12 -2 -24l-9 -55q-12 -84 -60 -93q34 -11 34 -61q0 -12 -3 -28l-10 -69q-12 -74 -46.5 -98t-111.5 -24q-42 0 -139 7t-129 12l11 67h258q29 0 45 8t20 33l10 63q1 8 1 19t-8.5 18t-38.5 7h-159q-63 0 -93.5 28
t-30.5 71q0 12 3 27l8 54q7 40 20.5 63.5t44.5 32.5q-37 24 -37 69q0 11 2 22l9 64q20 127 153 127q41 0 141 -7t132 -12l-10 -67h-265q-26 0 -40 -10t-19 -36l-9 -60q-1 -6 -1 -10zM199 357q-1 -10 -1 -21.5t8.5 -18.5t37.5 -7h154q26 0 39.5 7t17 15t6.5 26l9 55
q2 15 2 22.5t-4 14.5q-7 14 -45 14h-154q-32 0 -44 -10t-17 -43z" />
    <glyph glyph-name="dieresis" unicode="&#xa8;" horiz-adv-x="453" 
d="M172.5 627q13.5 7 31.5 7t29.5 -13.5t11.5 -23.5q0 -34 -20 -51t-41.5 -17t-33.5 14t-12 24.5t1.5 19.5t10.5 21t22.5 19zM455 634q22 0 33.5 -13.5t11.5 -23.5q0 -34 -20 -51t-41.5 -17t-33.5 14t-12 24q0 34 20 50.5t42 16.5z" />
    <glyph glyph-name="copyright" unicode="&#xa9;" horiz-adv-x="802" 
d="M399 732h251q94 0 133 -65q40 -68 40 -167q0 -147 -46 -279q-76 -221 -234 -221h-251q-55 0 -94.5 27t-59.5 68q-38 78 -38 185q0 118 42 241q72 211 257 211zM178 368q-8 -43 -8 -69.5t2 -59t13.5 -75t40.5 -68.5t70 -26h254q64 0 116 76q59 86 83 276q5 47 5 74
t-1 44.5t-7.5 43t-18.5 41.5q-27 37 -79 37h-260q-119 0 -174 -148q-22 -60 -36 -146zM349 293q0 -76 62 -76q74 0 182 16l-9 -58q-94 -28 -189 -28q-65 0 -97 54q-20 35 -20 80.5t8.5 97.5t26 95.5t40.5 66.5q44 42 109.5 42t175.5 -24l-9 -58q-83 12 -172 12
q-40 0 -65 -36.5t-34 -95t-9 -88.5z" />
    <glyph glyph-name="ordfeminine" unicode="&#xaa;" horiz-adv-x="368" 
d="M70 266l9 62h309l-10 -62h-308zM231 726.5q15 3.5 28.5 5t34.5 1.5t72.5 -11.5t74.5 -33.5l-46 -309h-44l-11 54q-18 -21 -54.5 -39.5t-65.5 -18.5t-49.5 9t-39.5 31q-27 30 -27 93q0 25 5.5 61t19.5 67t29.5 48t36.5 28t36 14.5zM175 513q0 -67 55 -67q29 0 55 12t60 37
l22 160q-45 12 -69 12t-36 -3t-20 -6t-19 -11t-19 -20q-18 -28 -23.5 -63t-5.5 -51z" />
    <glyph glyph-name="guillemotleft" unicode="&#xab;" horiz-adv-x="562" 
d="M103 354l238 203l51 -60l-176 -150l127 -149l-62 -52zM300 354l238 203l51 -60l-176 -150l127 -149l-62 -52z" />
    <glyph glyph-name="logicalnot" unicode="&#xac;" horiz-adv-x="517" 
d="M525 336l-28 -177h-84l14 93h-342l13 84h427z" />
    <glyph glyph-name="uni00AD" unicode="&#xad;" horiz-adv-x="354" 
d="M59 247l14 86h314l-14 -86h-314z" />
    <glyph glyph-name="registered" unicode="&#xae;" horiz-adv-x="802" 
d="M399 732h251q94 0 133 -65q40 -68 40 -167q0 -147 -46 -279q-76 -221 -234 -221h-251q-55 0 -94.5 27t-59.5 68q-38 78 -38 185q0 118 42 241q72 211 257 211zM178 368q-8 -43 -8 -69.5t2 -59t13.5 -75t40.5 -68.5t70 -26h254q64 0 116 76q59 86 83 276q5 47 5 74
t-1 44.5t-7.5 43t-18.5 41.5q-27 37 -79 37h-260q-119 0 -174 -148q-22 -60 -36 -146zM525 580q47 0 82 -26q33 -24 33 -82q0 -50 -20 -95q-7 -17 -20.5 -29t-25 -16.5t-16.5 -5.5t-17 -3.5t-14 -2.5l63 -167h-80l-62 167l-69 12l-29 -179h-71l68 427h178zM494 382
q38 0 52 13t20 55q2 10 2 18.5t-2 18t-12 15.5q-15 8 -40 8h-107l-20 -128h107z" />
    <glyph glyph-name="macron" unicode="&#xaf;" horiz-adv-x="385" 
d="M131 531l10 67h292l-10 -67h-292z" />
    <glyph glyph-name="degree" unicode="&#xb0;" horiz-adv-x="293" 
d="M248 734q42 0 71 -29.5t29 -70.5q0 -44 -30 -73.5t-72.5 -29.5t-71.5 29t-29 71.5t30.5 72.5t72.5 30zM247.5 684q-21.5 0 -37 -15.5t-15.5 -36.5t15 -36t36.5 -15t36.5 15t15 36.5t-14.5 36.5t-36 15z" />
    <glyph glyph-name="plusminus" unicode="&#xb1;" horiz-adv-x="519" 
d="M65 82l14 86h416l-14 -86h-416zM113 386l13 86h164l26 164h86l-26 -164h166l-13 -86h-166l-27 -166h-86l27 166h-164z" />
    <glyph glyph-name="twosuperior" unicode="&#xb2;" horiz-adv-x="388" 
d="M351.5 652q12.5 23 15.5 39t3 32t-12 30t-54 14h-169q-3 0 8 51l1 6q121 16 188 16q44 0 73 -26q43 -38 43 -95q0 -56 -38 -111.5t-71 -84.5t-73 -59.5t-44 -35.5h180l-11 -72h-318l11 68q7 5 37 25t49 33.5t50.5 37t52.5 43t43.5 43t35 46.5z" />
    <glyph glyph-name="threesuperior" unicode="&#xb3;" horiz-adv-x="405" 
d="M262 352h-30q-85 0 -112.5 5.5t-45.5 12.5l10 53l172 1q70 0 79 56l4 20q1 7 1 14q0 46 -59 48l-136 5l10 59l138 5q69 3 77 58l3 20q1 8 1 20.5t-11.5 23t-48.5 10.5h-181l8 53q56 19 147 19h55q56 -1 81 -32.5t25 -67.5q0 -10 -1 -20l-6 -34q-6 -35 -23 -60t-40 -32
q35 -21 35 -72q0 -10 -1 -21l-4 -26q-9 -59 -42.5 -88.5t-101.5 -29.5h-3z" />
    <glyph glyph-name="acute" unicode="&#xb4;" horiz-adv-x="242" 
d="M103 531l123 135h103l-151 -135h-75z" />
    <glyph glyph-name="uni00B5" unicode="&#xb5;" horiz-adv-x="592" 
d="M202 165q-2 -12 -2 -31.5t16 -38.5t60 -19t80 11.5t99 42.5l64 401h92l-84 -531h-68l-14 60q-6 -3 -20 -10.5t-20.5 -10.5t-19 -9.5t-20.5 -10t-20 -8t-21.5 -7t-20.5 -5.5q-75 -18 -125 14l-45 -283h-92l127 801h92z" />
    <glyph glyph-name="paragraph" unicode="&#xb6;" horiz-adv-x="579" 
d="M309 732h368l-13 -84h-65l-102 -648h-82l103 650h-86l-146 -920h-82l102 642q-1 0 -8 -3.5t-14 -5.5q-20 -8 -48.5 -8t-57.5 14q-50 24 -62 83q-2 14 -2 26.5t1 23.5l14 93q22 137 180 137zM198 504q-1 -10 -1 -20t4 -21.5t16 -17.5q19 -9 43 -9h56l34 217h-52
q-57 0 -75 -32q-9 -14 -12 -36z" />
    <glyph glyph-name="periodcentered" unicode="&#xb7;" horiz-adv-x="268" 
d="M172 441h62q22 0 22 -18q0 -3 -1 -7l-10 -66q-4 -23 -28 -23h-62q-11 0 -17 6.5t-4 16.5l10 66q4 25 28 25z" />
    <glyph glyph-name="cedilla" unicode="&#xb8;" horiz-adv-x="249" 
d="M71 -174h-52l7 43l52 15q21 8 30.5 27t14.5 52h74q-12 -77 -38 -107q-27 -30 -88 -30z" />
    <glyph glyph-name="onesuperior" unicode="&#xb9;" horiz-adv-x="277" 
d="M114 719l8 51q30 0 64 16q53 25 74 49h72l-76 -479h-74l63 394q-16 -12 -51 -21.5t-80 -9.5z" />
    <glyph glyph-name="ordmasculine" unicode="&#xba;" horiz-adv-x="387" 
d="M81 269l10 61h311l-9 -61h-312zM428 695q24 -29 24 -88q0 -27 -6.5 -68.5t-18 -72.5t-33.5 -53q-40 -41 -133 -41t-127 43q-23 30 -23 85q0 24 4 52q17 106 56 145q40 40 131 40t126 -42zM203.5 616.5q-8.5 -24.5 -14 -60.5t-5.5 -53.5t4.5 -28.5t9 -18t17.5 -10
q20 -5 46 -5t34.5 0.5t24 6t23.5 16.5q37 47 37 148q0 46 -33 53q-19 3 -48.5 3t-43 -2.5t-28.5 -13.5t-23.5 -35.5z" />
    <glyph glyph-name="guillemotright" unicode="&#xbb;" horiz-adv-x="559" 
d="M79 207l176 151l-125 146l61 53l177 -207l-237 -204zM279 207l177 151l-126 146l61 53l178 -207l-238 -204z" />
    <glyph glyph-name="onequarter" unicode="&#xbc;" horiz-adv-x="920" 
d="M114 619l8 51q30 0 64 16q53 25 74 49h72l-76 -479h-74l63 394q-16 -12 -51 -21.5t-80 -9.5zM177 0l573 770h73l-573 -770h-73zM530 144l251 333h86l-213 -288h147l18 116l35 49h47l-26 -165h56l-10 -61l-58 -14l-18 -114h-74l18 114h-240z" />
    <glyph glyph-name="onehalf" unicode="&#xbd;" horiz-adv-x="992" 
d="M114 619l8 51q30 0 64 16q53 25 74 49h72l-76 -479h-74l63 394q-16 -12 -51 -21.5t-80 -9.5zM168 0l573 770h73l-573 -770h-73zM915 296q13 23 15.5 39t2.5 32t-11.5 30t-53.5 14h-169q-2 0 6 43l3 14q120 16 188 16q44 0 72 -26q44 -38 44 -95q0 -56 -38 -111.5
t-71 -84.5t-73 -59.5t-45 -35.5h181l-12 -72h-317l10 68q7 5 37.5 25t49.5 33.5t50.5 37t52.5 43t43 43t35 46.5z" />
    <glyph glyph-name="threequarters" unicode="&#xbe;" horiz-adv-x="1034" 
d="M379 489q35 -21 35 -72q0 -10 -1 -21l-4 -26q-9 -59 -42.5 -88.5t-101.5 -29.5h-4h-22.5h-24.5h-21.5t-22.5 0.5t-19.5 1.5t-20.5 2.5t-18 3.5q-18 3 -38 10l10 53l172 1q70 0 79 56l4 20q1 7 1 14q0 46 -59 48l-136 5l10 59l138 5q69 3 77 58l3 20q1 8 1 20.5t-11.5 23
t-48.5 10.5h-181l8 53q56 19 147 19h55q56 -1 81 -32.5t25 -67.5q0 -10 -1 -20l-6 -34q-6 -35 -23 -60t-40 -32zM276 0l573 770h73l-573 -770h-73zM616 144l251 333h85l-213 -288h148l18 116l35 49h47l-26 -165h55l-9 -61l-58 -14l-18 -114h-74l18 114h-240z" />
    <glyph glyph-name="questiondown" unicode="&#xbf;" horiz-adv-x="538" 
d="M298.5 -269.5q-11.5 -0.5 -27 -1t-30.5 -0.5t-44 1q-97 0 -142 57q-34 43 -34 100q0 17 3 35l15 93q17 109 89 144q48 23 112 23q31 0 63 -6l16 98h85l-27 -171q-45 1 -78.5 1t-65.5 -1t-64 -23.5t-39 -68.5l-14 -88q-3 -15 -3 -28q0 -37 22 -57.5t93 -20.5h265l-10 -65
q-4 -1 -32 -5t-33 -4.5t-28.5 -3.5t-31 -3.5t-28 -2.5t-32 -2.5zM363 469h64q11 0 16.5 -6t4.5 -17l-10 -66q-4 -25 -28 -25h-64q-20 0 -20 19q0 3 1 6l10 66q3 23 26 23z" />
    <glyph glyph-name="Agrave" unicode="&#xc0;" horiz-adv-x="667" 
d="M324 932h95l99 -135h-75zM42 0l379 732h97l136 -732h-94l-36 193h-281l-100 -193h-101zM287 280h223l-57 327z" />
    <glyph glyph-name="Aacute" unicode="&#xc1;" horiz-adv-x="667" 
d="M443 797l123 135h103l-151 -135h-75zM42 0l379 732h97l136 -732h-94l-36 193h-281l-100 -193h-101zM287 280h223l-57 327z" />
    <glyph glyph-name="Acircumflex" unicode="&#xc2;" horiz-adv-x="667" 
d="M332 797l135 131h80l81 -131h-72l-53 78l-85 -78h-86zM42 0l379 732h97l136 -732h-94l-36 193h-281l-100 -193h-101zM287 280h223l-57 327z" />
    <glyph glyph-name="Atilde" unicode="&#xc3;" horiz-adv-x="667" 
d="M503 890q30 -16 37 -16.5t16 -0.5t44.5 14t45.5 21l15 -47q-7 -5 -23.5 -17t-26 -18t-23.5 -14q-49 -27 -94 -5q-18 9 -32.5 17t-29.5 8t-30 -4t-23.5 -7.5t-24.5 -12t-22 -11.5l-15 45q52 41 80.5 53t52 11.5t53.5 -16.5zM42 0l379 732h97l136 -732h-94l-36 193h-281
l-100 -193h-101zM287 280h223l-57 327z" />
    <glyph glyph-name="Adieresis" unicode="&#xc4;" horiz-adv-x="667" 
d="M370 902q22 0 33.5 -13.5t11.5 -23.5q0 -33 -20 -50.5t-42 -17.5t-33.5 14t-11.5 25q0 33 20 49.5t42 16.5zM625 902q22 0 33.5 -13.5t11.5 -23.5q0 -33 -20 -50.5t-42 -17.5t-33.5 14t-11.5 25q0 33 20 49.5t42 16.5zM42 0l379 732h97l136 -732h-94l-36 193h-281
l-100 -193h-101zM287 280h223l-57 327z" />
    <glyph glyph-name="Aring" unicode="&#xc5;" horiz-adv-x="667" 
d="M495 934q-42 0 -76.5 -31.5t-34.5 -80.5q0 -36 25.5 -64t68 -28t76.5 31.5t34 80.5q0 36 -25.5 64t-67.5 28zM490.5 884q21.5 0 34 -14.5t12.5 -32.5q0 -33 -29 -49q-12 -7 -30 -7t-31 14t-13 35t17.5 37.5t39 16.5zM42 0l379 732h97l136 -732h-94l-36 193h-281
l-100 -193h-101zM287 280h223l-57 327z" />
    <glyph glyph-name="AE" unicode="&#xc6;" horiz-adv-x="946" 
d="M625 733l40 -1q10 0 164.5 -7t171.5 -9l-11 -75h-309q-35 0 -46 -17q-8 -13 -13 -36l-29 -183l316 -10l-12 -74l-319 -10l-28 -174q-6 -38 14 -46q15 -6 41 -6h297l-13 -73l-308 -17h-18t-34 6q-75 19 -75 96q0 12 2 24l14 100h-193l-144 -221h-105l389 596
q55 84 110 112q49 25 98 25zM333 308h152l51 308z" />
    <glyph glyph-name="Ccedilla" unicode="&#xc7;" horiz-adv-x="576" 
d="M309.5 723.5q45.5 16.5 126.5 16.5t220 -32l-11 -72q-114 15 -213 15h-16h-14.5t-16 -0.5t-22.5 -3t-25 -7.5t-25 -15t-25.5 -24t-23.5 -35.5t-23 -49.5q-23 -65 -34.5 -139t-11.5 -107.5t1 -47.5q4 -61 34 -98t86 -41q18 -1 67.5 -1t177.5 9l-10 -73q-85 -24 -240 -24
q-120 0 -168 81q-42 70 -42 181q0 110 37 245q34 123 94 178q32 28 77.5 44.5zM238 -174h-53l7 43l53 15q21 6 30 25.5t15 53.5h74q-8 -52 -22 -81t-38.5 -42.5t-65.5 -13.5z" />
    <glyph glyph-name="Egrave" unicode="&#xc8;" horiz-adv-x="565" 
d="M278 926h96l98 -134h-75zM313 732q5 0 155.5 -7t167.5 -9l-11 -74h-307q-44 0 -56 -35q-3 -9 -5 -21l-28 -176l316 -10l-12 -74l-318 -10l-29 -177q-5 -38 15 -46q15 -6 40 -6h297l-13 -73l-308 -17h-18t-35 6q-73 20 -73 99q0 14 2 28l74 468q22 134 146 134z" />
    <glyph glyph-name="Eacute" unicode="&#xc9;" horiz-adv-x="565" 
d="M394 792l123 134h103l-152 -134h-74zM313 732q5 0 155.5 -7t167.5 -9l-11 -74h-307q-44 0 -56 -35q-3 -9 -5 -21l-28 -176l316 -10l-12 -74l-318 -10l-29 -177q-5 -38 15 -46q15 -6 40 -6h297l-13 -73l-308 -17h-18t-35 6q-73 20 -73 99q0 14 2 28l74 468q22 134 146 134
z" />
    <glyph glyph-name="Ecircumflex" unicode="&#xca;" horiz-adv-x="565" 
d="M282 792l136 132h80l81 -132h-75l-49 76l-81 -76h-92zM313 732q5 0 155.5 -7t167.5 -9l-11 -74h-307q-44 0 -56 -35q-3 -9 -5 -21l-28 -176l316 -10l-12 -74l-318 -10l-29 -177q-5 -38 15 -46q15 -6 40 -6h297l-13 -73l-308 -17h-18t-35 6q-73 20 -73 99q0 14 2 28
l74 468q22 134 146 134z" />
    <glyph glyph-name="Edieresis" unicode="&#xcb;" horiz-adv-x="565" 
d="M312 895q22 0 33.5 -13.5t11.5 -23.5q0 -34 -20 -51t-41.5 -17t-33.5 14t-12 24q0 34 20 50.5t42 16.5zM567 895q22 0 33.5 -13.5t11.5 -23.5q0 -34 -20 -51t-41.5 -17t-33.5 14t-12 24q0 34 20 50.5t42 16.5zM313 732q5 0 155.5 -7t167.5 -9l-11 -74h-307q-44 0 -56 -35
q-3 -9 -5 -21l-28 -176l316 -10l-12 -74l-318 -10l-29 -177q-5 -38 15 -46q15 -6 40 -6h297l-13 -73l-308 -17h-18t-35 6q-73 20 -73 99q0 14 2 28l74 468q22 134 146 134z" />
    <glyph glyph-name="Igrave" unicode="&#xcc;" horiz-adv-x="233" 
d="M99 932h96l98 -135h-75zM83 0l116 732h92l-116 -732h-92z" />
    <glyph glyph-name="Iacute" unicode="&#xcd;" horiz-adv-x="233" 
d="M218 797l124 135h103l-152 -135h-75zM83 0l116 732h92l-116 -732h-92z" />
    <glyph glyph-name="Icircumflex" unicode="&#xce;" horiz-adv-x="233" 
d="M107 797l136 131h80l81 -131h-72l-53 78l-85 -78h-87zM83 0l116 732h92l-116 -732h-92z" />
    <glyph glyph-name="Idieresis" unicode="&#xcf;" horiz-adv-x="233" 
d="M145 902q22 0 33.5 -13.5t11.5 -23.5q0 -33 -19.5 -50.5t-41.5 -17.5t-34 14t-12 25q0 33 20 49.5t42 16.5zM400 902q22 0 33.5 -13.5t11.5 -23.5q0 -33 -19.5 -50.5t-41.5 -17.5t-34 14t-12 25q0 33 20 49.5t42 16.5zM83 0l116 732h92l-116 -732h-92z" />
    <glyph glyph-name="Eth" unicode="&#xd0;" horiz-adv-x="663" 
d="M470 732q108 0 156 -67q48 -66 53 -150q2 -26 2 -46q0 -57 -10 -111q-29 -173 -104.5 -265.5t-209.5 -92.5h-283l55 344h-65l9 58h65l52 329q0 1 280 1zM366 90q57 0 102 39q84 71 111 235q10 63 10 120q0 160 -136 160h-185l-38 -242h132l-10 -58h-131l-41 -254h186z
" />
    <glyph glyph-name="Ntilde" unicode="&#xd1;" horiz-adv-x="662" 
d="M483 885.5q30 -16.5 37 -16.5h16t45 14t45 21l15 -47q-7 -5 -23.5 -17t-26 -18t-23.5 -14q-54 -30 -111 3q-28 17 -44 17q-28 0 -45 -7.5t-33.5 -16t-22.5 -11.5l-15 45q52 40 80.5 52.5t52 12t53.5 -17zM75 0l116 732h90l260 -562l89 562h92l-116 -732h-89l-261 560
l-88 -560h-93z" />
    <glyph glyph-name="Ograve" unicode="&#xd2;" horiz-adv-x="666" 
d="M302 932h96l98 -135h-75zM387 735q26 2 61.5 2t63 -2.5t55 -10t47 -20t37.5 -32.5q31 -35 42 -115q3 -26 3 -49q0 -69 -11.5 -144t-26 -128.5t-32 -91.5t-41 -64.5t-47.5 -43t-56 -25.5q-85 -24 -202 -12q-72 7 -111 37q-49 39 -63 110q-6 35 -6 61.5t0.5 57t11 97
t23 117.5t28.5 88.5t33 65.5t40 46.5t44 30t51 17.5t56 8zM217.5 437.5q-7.5 -34.5 -16.5 -92t-9.5 -84t-0.5 -50t8 -53t30 -46t50.5 -22t73 -5.5t74.5 6t57.5 23.5t46.5 47.5q40 65 61 199q13 83 13 130t-5.5 68.5t-11.5 36t-19 24.5t-24 15.5t-30 8.5q-28 4 -61 4
t-46.5 -0.5t-32.5 -2.5t-30.5 -6t-27 -11t-25 -18t-21.5 -26.5t-20 -36.5t-17 -48t-16.5 -61.5z" />
    <glyph glyph-name="Oacute" unicode="&#xd3;" horiz-adv-x="666" 
d="M421 797l124 135h103l-152 -135h-75zM387 735q26 2 61.5 2t63 -2.5t55 -10t47 -20t37.5 -32.5q31 -35 42 -115q3 -26 3 -49q0 -69 -11.5 -144t-26 -128.5t-32 -91.5t-41 -64.5t-47.5 -43t-56 -25.5q-85 -24 -202 -12q-72 7 -111 37q-49 39 -63 110q-6 35 -6 61.5t0.5 57
t11 97t23 117.5t28.5 88.5t33 65.5t40 46.5t44 30t51 17.5t56 8zM217.5 437.5q-7.5 -34.5 -16.5 -92t-9.5 -84t-0.5 -50t8 -53t30 -46t50.5 -22t73 -5.5t74.5 6t57.5 23.5t46.5 47.5q40 65 61 199q13 83 13 130t-5.5 68.5t-11.5 36t-19 24.5t-24 15.5t-30 8.5q-28 4 -61 4
t-46.5 -0.5t-32.5 -2.5t-30.5 -6t-27 -11t-25 -18t-21.5 -26.5t-20 -36.5t-17 -48t-16.5 -61.5z" />
    <glyph glyph-name="Ocircumflex" unicode="&#xd4;" horiz-adv-x="666" 
d="M311 797l135 131h80l81 -131h-72l-53 78l-85 -78h-86zM387 735q26 2 61.5 2t63 -2.5t55 -10t47 -20t37.5 -32.5q31 -35 42 -115q3 -26 3 -49q0 -69 -11.5 -144t-26 -128.5t-32 -91.5t-41 -64.5t-47.5 -43t-56 -25.5q-85 -24 -202 -12q-72 7 -111 37q-49 39 -63 110
q-6 35 -6 61.5t0.5 57t11 97t23 117.5t28.5 88.5t33 65.5t40 46.5t44 30t51 17.5t56 8zM217.5 437.5q-7.5 -34.5 -16.5 -92t-9.5 -84t-0.5 -50t8 -53t30 -46t50.5 -22t73 -5.5t74.5 6t57.5 23.5t46.5 47.5q40 65 61 199q13 83 13 130t-5.5 68.5t-11.5 36t-19 24.5t-24 15.5
t-30 8.5q-28 4 -61 4t-46.5 -0.5t-32.5 -2.5t-30.5 -6t-27 -11t-25 -18t-21.5 -26.5t-20 -36.5t-17 -48t-16.5 -61.5z" />
    <glyph glyph-name="Otilde" unicode="&#xd5;" horiz-adv-x="666" 
d="M481.5 890q30.5 -16 37 -16.5t16 -0.5t45 14t45.5 21l14 -47q-7 -5 -23.5 -17t-25.5 -18t-24 -14q-54 -30 -110 3q-28 17 -45 17q-27 0 -44.5 -7.5t-33.5 -16t-22 -11.5l-15 45q52 41 80 53t51.5 11.5t54 -16.5zM387 735q26 2 61.5 2t63 -2.5t55 -10t47 -20t37.5 -32.5
q31 -35 42 -115q3 -26 3 -49q0 -69 -11.5 -144t-26 -128.5t-32 -91.5t-41 -64.5t-47.5 -43t-56 -25.5q-85 -24 -202 -12q-72 7 -111 37q-49 39 -63 110q-6 35 -6 61.5t0.5 57t11 97t23 117.5t28.5 88.5t33 65.5t40 46.5t44 30t51 17.5t56 8zM217.5 437.5
q-7.5 -34.5 -16.5 -92t-9.5 -84t-0.5 -50t8 -53t30 -46t50.5 -22t73 -5.5t74.5 6t57.5 23.5t46.5 47.5q40 65 61 199q13 83 13 130t-5.5 68.5t-11.5 36t-19 24.5t-24 15.5t-30 8.5q-28 4 -61 4t-46.5 -0.5t-32.5 -2.5t-30.5 -6t-27 -11t-25 -18t-21.5 -26.5t-20 -36.5
t-17 -48t-16.5 -61.5z" />
    <glyph glyph-name="Odieresis" unicode="&#xd6;" horiz-adv-x="666" 
d="M349 902q22 0 33 -13.5t11 -23.5q0 -33 -19.5 -50.5t-41.5 -17.5t-33.5 14t-11.5 25q0 33 20 49.5t42 16.5zM604 902q22 0 33 -13.5t11 -23.5q0 -33 -19.5 -50.5t-41.5 -17.5t-33.5 14t-11.5 25q0 33 20 49.5t42 16.5zM387 735q26 2 61.5 2t63 -2.5t55 -10t47 -20
t37.5 -32.5q31 -35 42 -115q3 -26 3 -49q0 -69 -11.5 -144t-26 -128.5t-32 -91.5t-41 -64.5t-47.5 -43t-56 -25.5q-85 -24 -202 -12q-72 7 -111 37q-49 39 -63 110q-6 35 -6 61.5t0.5 57t11 97t23 117.5t28.5 88.5t33 65.5t40 46.5t44 30t51 17.5t56 8zM217.5 437.5
q-7.5 -34.5 -16.5 -92t-9.5 -84t-0.5 -50t8 -53t30 -46t50.5 -22t73 -5.5t74.5 6t57.5 23.5t46.5 47.5q40 65 61 199q13 83 13 130t-5.5 68.5t-11.5 36t-19 24.5t-24 15.5t-30 8.5q-28 4 -61 4t-46.5 -0.5t-32.5 -2.5t-30.5 -6t-27 -11t-25 -18t-21.5 -26.5t-20 -36.5
t-17 -48t-16.5 -61.5z" />
    <glyph glyph-name="multiply" unicode="&#xd7;" horiz-adv-x="459" 
d="M90 241l134 116l-97 115l66 56l97 -115l141 122l52 -62l-141 -122l98 -117l-66 -55l-97 116l-135 -117z" />
    <glyph glyph-name="Oslash" unicode="&#xd8;" horiz-adv-x="666" 
d="M132 480q22 88 62 154q28 46 83 76q51 27 173.5 27t175.5 -42l30 37h65l-61 -75q34 -54 34 -156q0 -63 -11.5 -138t-26.5 -128t-32 -91t-41 -65t-47.5 -43t-56.5 -25q-53 -15 -125 -15t-117.5 9.5t-76.5 35.5l-33 -41h-65l65 80q-31 53 -31 155.5t36 244.5zM215 437.5
q-7 -34.5 -16.5 -92t-9.5 -105t9 -74.5l367 455q-19 17 -48 22t-64 5t-48.5 -0.5t-32.5 -2.5t-30.5 -6t-26.5 -11t-25 -18t-21.5 -26.5t-20 -36.5t-17.5 -48t-16 -61.5zM352 85q53 0 88.5 10t65.5 40q56 54 83 226q12 80 12 132t-9 81l-370 -457q33 -32 130 -32z" />
    <glyph glyph-name="Ugrave" unicode="&#xd9;" horiz-adv-x="655" 
d="M306 932h96l98 -135h-75zM215 305q-8 -59 -8 -81.5v-27.5q2 -80 66 -102q28 -10 73 -10q94 0 142 49.5t67 171.5l67 427h93l-66 -432q-29 -180 -113 -247q-72 -58 -199 -58q-158 0 -201 101q-23 52 -23 107.5t9 105.5l67 423h93z" />
    <glyph glyph-name="Uacute" unicode="&#xda;" horiz-adv-x="655" 
d="M425 797l124 135h103l-152 -135h-75zM215 305q-8 -59 -8 -81.5v-27.5q2 -80 66 -102q28 -10 73 -10q94 0 142 49.5t67 171.5l67 427h93l-66 -432q-29 -180 -113 -247q-72 -58 -199 -58q-158 0 -201 101q-23 52 -23 107.5t9 105.5l67 423h93z" />
    <glyph glyph-name="Ucircumflex" unicode="&#xdb;" horiz-adv-x="655" 
d="M315 797l135 131h80l81 -131h-72l-53 78l-85 -78h-86zM215 305q-8 -59 -8 -81.5v-27.5q2 -80 66 -102q28 -10 73 -10q94 0 142 49.5t67 171.5l67 427h93l-66 -432q-29 -180 -113 -247q-72 -58 -199 -58q-158 0 -201 101q-23 52 -23 107.5t9 105.5l67 423h93z" />
    <glyph glyph-name="Udieresis" unicode="&#xdc;" horiz-adv-x="655" 
d="M353 902q22 0 33 -13.5t11 -23.5q0 -33 -19.5 -50.5t-41.5 -17.5t-33.5 14t-11.5 25q0 33 20 49.5t42 16.5zM608 902q22 0 33 -13.5t11 -23.5t-1 -19.5t-10 -21.5q-20 -27 -46 -27t-37.5 14t-11.5 25q0 33 20 49.5t42 16.5zM215 305q-8 -59 -8 -81.5v-27.5q2 -80 66 -102
q28 -10 73 -10q94 0 142 49.5t67 171.5l67 427h93l-66 -432q-29 -180 -113 -247q-72 -58 -199 -58q-158 0 -201 101q-23 52 -23 107.5t9 105.5l67 423h93z" />
    <glyph glyph-name="Yacute" unicode="&#xdd;" horiz-adv-x="637" 
d="M406 797l124 135h102l-151 -135h-75zM147 732h98l116 -372l250 372h108l-326 -481l-40 -251h-92l40 251z" />
    <glyph glyph-name="Thorn" unicode="&#xde;" horiz-adv-x="552" 
d="M56 0l115 729h92l-22 -141h184q36 0 62.5 -12.5t40.5 -27.5q41 -45 41 -122q0 -24 -4 -60.5t-14 -70.5t-22 -57t-29 -39t-31.5 -25t-35.5 -13q-32 -8 -84 -8q-117 0 -173 20l-28 -173h-92zM358 241q24 0 40 4t32 18q29 25 43 113q4 18 4 28.5t-2 23t-4 25.5t-10 22
t-14.5 14t-16.5 7q-15 4 -32 4h-171l-41 -259h172z" />
    <glyph glyph-name="germandbls" unicode="&#xdf;" horiz-adv-x="570" 
d="M237 82l159 -5q31 0 53.5 17t28.5 46l6 32q1 4 1 12.5t-11 19.5t-31.5 16.5t-43.5 14.5t-42 20q-37 21 -37 72q0 10 1 21q8 57 32 85t103 72q66 39 66 116q0 37 -27 53t-95 16t-110 -29.5t-54 -108.5l-88 -552h-92l90 566q15 95 78 153.5t183 58.5q148 0 194 -85
q13 -24 14 -40.5t1 -30t-5.5 -39.5t-19.5 -52q-28 -54 -70 -83q-9 -5 -32 -17.5t-34.5 -20.5t-23.5 -23q-17 -22 -17 -41t10.5 -31t31 -18.5t44 -15.5t43.5 -20q37 -19 37 -69q0 -10 -2 -21l-6 -43q-6 -40 -25.5 -68t-46.5 -42q-51 -26 -110 -26q-53 0 -105.5 9t-57.5 10z
" />
    <glyph glyph-name="agrave" unicode="&#xe0;" horiz-adv-x="540" 
d="M202 737h95l99 -134h-75zM258 532q23 6 46 8.5t55.5 2.5t101.5 -15t105 -49l-70 -479h-68l-14 59q-28 -23 -79 -44.5t-93.5 -21.5t-69 7.5t-50 27t-34.5 52.5q-14 44 -14 95t11 111t30.5 106.5t40.5 73t50 43.5t52 23zM188 322q-8 -29 -14.5 -70t-6.5 -75.5t9 -56.5
q17 -41 69.5 -41t88.5 11.5t87 37.5l48 315q-64 18 -99.5 18t-53 -3.5t-27 -6t-23.5 -8.5t-23 -14.5t-20 -23t-19 -34.5t-16 -49z" />
    <glyph glyph-name="aacute" unicode="&#xe1;" horiz-adv-x="540" 
d="M329 603l124 134h102l-151 -134h-75zM258 532q23 6 46 8.5t55.5 2.5t101.5 -15t105 -49l-70 -479h-68l-14 59q-28 -23 -79 -44.5t-93.5 -21.5t-69 7.5t-50 27t-34.5 52.5q-14 44 -14 95t11 111t30.5 106.5t40.5 73t50 43.5t52 23zM188 322q-8 -29 -14.5 -70t-6.5 -75.5
t9 -56.5q17 -41 69.5 -41t88.5 11.5t87 37.5l48 315q-64 18 -99.5 18t-53 -3.5t-27 -6t-23.5 -8.5t-23 -14.5t-20 -23t-19 -34.5t-16 -49z" />
    <glyph glyph-name="acircumflex" unicode="&#xe2;" horiz-adv-x="540" 
d="M210 603l136 131h80l80 -131h-71l-54 78l-85 -78h-86zM258 532q23 6 46 8.5t55.5 2.5t101.5 -15t105 -49l-70 -479h-68l-14 59q-28 -23 -79 -44.5t-93.5 -21.5t-69 7.5t-50 27t-34.5 52.5q-14 44 -14 95t11 111t30.5 106.5t40.5 73t50 43.5t52 23zM188 322
q-8 -29 -14.5 -70t-6.5 -75.5t9 -56.5q17 -41 69.5 -41t88.5 11.5t87 37.5l48 315q-64 18 -99.5 18t-53 -3.5t-27 -6t-23.5 -8.5t-23 -14.5t-20 -23t-19 -34.5t-16 -49z" />
    <glyph glyph-name="atilde" unicode="&#xe3;" horiz-adv-x="540" 
d="M387.5 695.5q30.5 -16.5 37.5 -16.5h16t44.5 14t45.5 21l15 -47q-8 -5 -24.5 -17t-25.5 -18t-23 -14q-54 -30 -111 3q-28 17 -45 17q-27 0 -44.5 -8t-33.5 -16l-22 -11l-15 45q64 50 88.5 57.5t45.5 7t51.5 -17zM258 532q23 6 46 8.5t55.5 2.5t101.5 -15t105 -49
l-70 -479h-68l-14 59q-28 -23 -79 -44.5t-93.5 -21.5t-69 7.5t-50 27t-34.5 52.5q-14 44 -14 95t11 111t30.5 106.5t40.5 73t50 43.5t52 23zM188 322q-8 -29 -14.5 -70t-6.5 -75.5t9 -56.5q17 -41 69.5 -41t88.5 11.5t87 37.5l48 315q-64 18 -99.5 18t-53 -3.5t-27 -6
t-23.5 -8.5t-23 -14.5t-20 -23t-19 -34.5t-16 -49z" />
    <glyph glyph-name="adieresis" unicode="&#xe4;" horiz-adv-x="540" 
d="M220 701q13 7 31.5 7t30 -13.5t11.5 -23.5q0 -34 -20 -51t-42 -17t-33.5 14t-11.5 24.5t1 19.5t10.5 21t22.5 19zM475 701q13 7 31.5 7t30 -13.5t11.5 -23.5q0 -34 -20 -51t-42 -17t-33.5 14t-11.5 24.5t1 19.5t10.5 21t22.5 19zM258 532q23 6 46 8.5t55.5 2.5t101.5 -15
t105 -49l-70 -479h-68l-14 59q-28 -23 -79 -44.5t-93.5 -21.5t-69 7.5t-50 27t-34.5 52.5q-14 44 -14 95t11 111t30.5 106.5t40.5 73t50 43.5t52 23zM188 322q-8 -29 -14.5 -70t-6.5 -75.5t9 -56.5q17 -41 69.5 -41t88.5 11.5t87 37.5l48 315q-64 18 -99.5 18t-53 -3.5
t-27 -6t-23.5 -8.5t-23 -14.5t-20 -23t-19 -34.5t-16 -49z" />
    <glyph glyph-name="aring" unicode="&#xe5;" horiz-adv-x="540" 
d="M340 793.5q25 13.5 59.5 13.5t60 -28t25.5 -64q0 -34 -17 -60q-34 -52 -93 -52q-42 0 -68 27.5t-26 63.5q0 34 17 60t42 39.5zM379 654q14 0 26 6q30 16 30 50q0 18 -13 32t-28.5 14t-25.5 -4t-18 -11q-16 -15 -18 -33t4 -29.5t17.5 -18t25.5 -6.5zM258 532q23 6 46 8.5
t55.5 2.5t101.5 -15t105 -49l-70 -479h-68l-14 59q-28 -23 -79 -44.5t-93.5 -21.5t-69 7.5t-50 27t-34.5 52.5q-14 44 -14 95t11 111t30.5 106.5t40.5 73t50 43.5t52 23zM188 322q-8 -29 -14.5 -70t-6.5 -75.5t9 -56.5q17 -41 69.5 -41t88.5 11.5t87 37.5l48 315
q-64 18 -99.5 18t-53 -3.5t-27 -6t-23.5 -8.5t-23 -14.5t-20 -23t-19 -34.5t-16 -49z" />
    <glyph glyph-name="ae" unicode="&#xe6;" horiz-adv-x="887" 
d="M222.5 532.5q21.5 5.5 44.5 8t50 2.5t83 -10t98 -34q56 42 163 42h1q198 0 198 -130q0 -67 -31.5 -109.5t-70.5 -60.5q-76 -33 -154 -33q-40 0 -75.5 4.5t-47.5 9.5q-7 -38 -7 -58q0 -58 21 -73t50.5 -16t82.5 -1t164 16l-11 -68q-104 -29 -232 -29h-23q-93 1 -124 70
q-29 -27 -90.5 -48.5t-110.5 -21.5q-160 0 -160 181q0 47 11.5 110t31 110.5t40 74t49 42.5t50 21.5zM445 438q-78 22 -136 22q-55 0 -95 -28q-18 -13 -30 -32q-29 -50 -44 -144q-8 -49 -8 -82.5t7 -53.5q16 -41 80 -41q46 0 96 13t71 33q-2 16 -2 51t17 125t44 137z
M490 286q28 -3 47.5 -3h28t32.5 2t44.5 5.5t42.5 11t38 17.5q45 30 45 84q0 29 -22.5 41t-87.5 12q-83 0 -116 -36q-24 -26 -31 -50q-10 -29 -14 -50.5t-5 -23.5q-1 -6 -2 -10z" />
    <glyph glyph-name="ccedilla" unicode="&#xe7;" horiz-adv-x="496" 
d="M266 536q17 2 48.5 2t99 -8.5t119.5 -20.5l-9 -63q-127 7 -182 7t-67 -2t-28 -12t-26 -30q-24 -47 -42 -147q-9 -59 -9 -93t10 -54q18 -37 64 -37q87 0 194 8l36 2l-10 -64q-59 -19 -109 -24.5t-85 -5.5h-43q-83 1 -123 67q-25 42 -25 99t9 109.5t20.5 93t24 68.5t29 48
t31.5 31t35.5 17.5t37.5 8.5zM194 -175h-53l7 44l53 15q27 10 37 44q4 13 7 35h75q-8 -53 -22 -82t-38.5 -42.5t-65.5 -13.5z" />
    <glyph glyph-name="egrave" unicode="&#xe8;" horiz-adv-x="525" 
d="M205 736h96l98 -135h-75zM283 208q-80 0 -113 14q-6 -40 -6 -69t8 -46q16 -31 69 -32q23 -1 76.5 -1t164.5 16l-11 -68q-104 -29 -234 -29h-23q-95 1 -125 72q-16 38 -16 93.5t11 113t19.5 88.5t22 62.5t32 51.5t45.5 36q51 31 149 31h1q196 0 196 -129q0 -60 -25 -99.5
t-56 -58.5q-73 -46 -185 -46zM179 286q27 -3 56 -3t50 1.5t52 7.5t54 16t41 30q24 26 24 60t-22 46.5t-87 12.5q-83 0 -116 -37q-24 -26 -31 -50q-10 -29 -15 -54z" />
    <glyph glyph-name="eacute" unicode="&#xe9;" horiz-adv-x="525" 
d="M324 601l124 135h103l-152 -135h-75zM283 208q-80 0 -113 14q-6 -40 -6 -69t8 -46q16 -31 69 -32q23 -1 76.5 -1t164.5 16l-11 -68q-104 -29 -234 -29h-23q-95 1 -125 72q-16 38 -16 93.5t11 113t19.5 88.5t22 62.5t32 51.5t45.5 36q51 31 149 31h1q196 0 196 -129
q0 -60 -25 -99.5t-56 -58.5q-73 -46 -185 -46zM179 286q27 -3 56 -3t50 1.5t52 7.5t54 16t41 30q24 26 24 60t-22 46.5t-87 12.5q-83 0 -116 -37q-24 -26 -31 -50q-10 -29 -15 -54z" />
    <glyph glyph-name="ecircumflex" unicode="&#xea;" horiz-adv-x="525" 
d="M214 601l135 131h80l81 -131h-72l-53 78l-85 -78h-86zM283 208q-80 0 -113 14q-6 -40 -6 -69t8 -46q16 -31 69 -32q23 -1 76.5 -1t164.5 16l-11 -68q-104 -29 -234 -29h-23q-95 1 -125 72q-16 38 -16 93.5t11 113t19.5 88.5t22 62.5t32 51.5t45.5 36q51 31 149 31h1
q196 0 196 -129q0 -60 -25 -99.5t-56 -58.5q-73 -46 -185 -46zM179 286q27 -3 56 -3t50 1.5t52 7.5t54 16t41 30q24 26 24 60t-22 46.5t-87 12.5q-83 0 -116 -37q-24 -26 -31 -50q-10 -29 -15 -54z" />
    <glyph glyph-name="edieresis" unicode="&#xeb;" horiz-adv-x="525" 
d="M251.5 706q21.5 0 33 -13.5t11.5 -23.5q0 -33 -19.5 -50.5t-41.5 -17.5t-34 14t-12 25q0 33 20.5 49.5t42 16.5zM506.5 706q21.5 0 33 -13.5t11.5 -23.5q0 -33 -19.5 -50.5t-41.5 -17.5t-34 14t-12 25q0 33 20.5 49.5t42 16.5zM283 208q-80 0 -113 14q-6 -40 -6 -69
t8 -46q16 -31 69 -32q23 -1 76.5 -1t164.5 16l-11 -68q-104 -29 -234 -29h-23q-95 1 -125 72q-16 38 -16 93.5t11 113t19.5 88.5t22 62.5t32 51.5t45.5 36q51 31 149 31h1q196 0 196 -129q0 -60 -25 -99.5t-56 -58.5q-73 -46 -185 -46zM179 286q27 -3 56 -3t50 1.5t52 7.5
t54 16t41 30q24 26 24 60t-22 46.5t-87 12.5q-83 0 -116 -37q-24 -26 -31 -50q-10 -29 -15 -54z" />
    <glyph glyph-name="igrave" unicode="&#xec;" horiz-adv-x="203" 
d="M38 731h95l99 -135h-75zM54 0l84 531h92l-84 -531h-92z" />
    <glyph glyph-name="iacute" unicode="&#xed;" horiz-adv-x="203" 
d="M155 596l124 135h102l-151 -135h-75zM54 0l84 531h92l-84 -531h-92z" />
    <glyph glyph-name="icircumflex" unicode="&#xee;" horiz-adv-x="203" 
d="M43 596l135 132h80l81 -132h-72l-53 79l-85 -79h-86zM54 0l84 531h92l-84 -531h-92z" />
    <glyph glyph-name="idieresis" unicode="&#xef;" horiz-adv-x="203" 
d="M77 702q22 0 33.5 -13.5t11.5 -24.5q0 -33 -20 -50.5t-41.5 -17.5t-33.5 14.5t-12 24.5q0 33 20 50t42 17zM332 702q22 0 33.5 -13.5t11.5 -24.5q0 -33 -20 -50.5t-41.5 -17.5t-33.5 14.5t-12 24.5q0 33 20 50t42 17zM54 0l84 531h92l-84 -531h-92z" />
    <glyph glyph-name="eth" unicode="&#xf0;" horiz-adv-x="537" 
d="M297 531h91q56 0 70 -14q-12 78 -50 123l-146 -57l-16 59l105 41q-40 22 -105 22q-9 0 -20 -1l12 79q142 0 213 -59l118 46l17 -60l-90 -34q60 -89 60 -247q0 -79 -15 -175q-22 -136 -71.5 -195t-147.5 -59h-109q-49 0 -82 21.5t-46 57.5q-17 45 -17 93.5t9 89.5
q24 144 73 206.5t147 62.5zM169 259q-8 -62 -8 -93t11 -48.5t24 -23t23.5 -5.5h12.5h96h12t26.5 5.5t31.5 22.5q33 34 51 142q10 60 10 93.5t-6 50.5q-14 39 -71 39h-89q-33 0 -55 -13q-46 -30 -69 -170z" />
    <glyph glyph-name="ntilde" unicode="&#xf1;" horiz-adv-x="545" 
d="M395.5 693q30.5 -16 37 -16.5t16 -0.5t45 14t44.5 21l15 -47q-7 -5 -23.5 -17t-26 -18t-23.5 -14q-54 -30 -110 3q-29 17 -45 17q-28 0 -45 -7.5t-33 -16t-23 -11.5l-15 45q52 41 80.5 53t52 11.5t54 -16.5zM423 540q78 0 112 -50q25 -38 25 -88q0 -17 -3 -36l-58 -366
h-92l58 366q2 12 2 31.5t-16 39t-60 19.5t-80 -12t-99 -42l-64 -402h-92l84 531h69l13 -61q4 3 18.5 11t19 10t18 9.5t19.5 9.5t18.5 7.5t20 8t19.5 6t22 4.5q27 4 46 4z" />
    <glyph glyph-name="ograve" unicode="&#xf2;" horiz-adv-x="562" 
d="M215 731h96l98 -135h-75zM250.5 524q44.5 12 121.5 12q159 0 188 -124q7 -30 7 -69t-9 -89q-24 -149 -80.5 -204t-187.5 -55t-179 62q-32 42 -32 122q0 37 10 101t29.5 116.5t53.5 84t78.5 43.5zM202.5 361.5q-13.5 -38.5 -23 -93t-9.5 -79.5t2 -40.5t10 -28.5t17.5 -21
t25.5 -12q25 -8 63.5 -7.5t58.5 3t41 12t34 29t24.5 52.5t19.5 82q9 53 9 85.5t-5.5 54t-22.5 33.5q-28 21 -82.5 21t-79.5 -6t-47 -26t-35.5 -58.5z" />
    <glyph glyph-name="oacute" unicode="&#xf3;" horiz-adv-x="562" 
d="M335 596l124 135h102l-151 -135h-75zM250.5 524q44.5 12 121.5 12q159 0 188 -124q7 -30 7 -69t-9 -89q-24 -149 -80.5 -204t-187.5 -55t-179 62q-32 42 -32 122q0 37 10 101t29.5 116.5t53.5 84t78.5 43.5zM202.5 361.5q-13.5 -38.5 -23 -93t-9.5 -79.5t2 -40.5
t10 -28.5t17.5 -21t25.5 -12q25 -8 63.5 -7.5t58.5 3t41 12t34 29t24.5 52.5t19.5 82q9 53 9 85.5t-5.5 54t-22.5 33.5q-28 21 -82.5 21t-79.5 -6t-47 -26t-35.5 -58.5z" />
    <glyph glyph-name="ocircumflex" unicode="&#xf4;" horiz-adv-x="562" 
d="M223 596l135 132h80l81 -132h-72l-53 79l-85 -79h-86zM250.5 524q44.5 12 121.5 12q159 0 188 -124q7 -30 7 -69t-9 -89q-24 -149 -80.5 -204t-187.5 -55t-179 62q-32 42 -32 122q0 37 10 101t29.5 116.5t53.5 84t78.5 43.5zM202.5 361.5q-13.5 -38.5 -23 -93t-9.5 -79.5
t2 -40.5t10 -28.5t17.5 -21t25.5 -12q25 -8 63.5 -7.5t58.5 3t41 12t34 29t24.5 52.5t19.5 82q9 53 9 85.5t-5.5 54t-22.5 33.5q-28 21 -82.5 21t-79.5 -6t-47 -26t-35.5 -58.5z" />
    <glyph glyph-name="otilde" unicode="&#xf5;" horiz-adv-x="562" 
d="M394.5 689q30.5 -16 37 -16h16t45 13.5t44.5 21.5l15 -47q-7 -5 -20 -14.5t-21 -15t-20 -13t-21 -11.5q-50 -22 -101 8q-29 16 -45 16q-28 0 -45 -7.5t-33 -16t-22 -11.5l-16 45q53 41 81 53.5t51.5 11.5t54 -17zM250.5 524q44.5 12 121.5 12q159 0 188 -124q7 -30 7 -69
t-9 -89q-24 -149 -80.5 -204t-187.5 -55t-179 62q-32 42 -32 122q0 37 10 101t29.5 116.5t53.5 84t78.5 43.5zM202.5 361.5q-13.5 -38.5 -23 -93t-9.5 -79.5t2 -40.5t10 -28.5t17.5 -21t25.5 -12q25 -8 63.5 -7.5t58.5 3t41 12t34 29t24.5 52.5t19.5 82q9 53 9 85.5t-5.5 54
t-22.5 33.5q-28 21 -82.5 21t-79.5 -6t-47 -26t-35.5 -58.5z" />
    <glyph glyph-name="odieresis" unicode="&#xf6;" horiz-adv-x="562" 
d="M258 702q18 0 29 -7q23 -15 19.5 -41t-21.5 -42t-40 -16t-33.5 14.5t-11.5 24.5q0 33 20 50t38 17zM513 702q34 0 45 -26q3 -8 3 -15q0 -30 -19.5 -47.5t-41.5 -17.5t-33.5 14.5t-11.5 24.5q0 33 20 50t38 17zM250.5 524q44.5 12 121.5 12q159 0 188 -124q7 -30 7 -69
t-9 -89q-24 -149 -80.5 -204t-187.5 -55t-179 62q-32 42 -32 122q0 37 10 101t29.5 116.5t53.5 84t78.5 43.5zM202.5 361.5q-13.5 -38.5 -23 -93t-9.5 -79.5t2 -40.5t10 -28.5t17.5 -21t25.5 -12q25 -8 63.5 -7.5t58.5 3t41 12t34 29t24.5 52.5t19.5 82q9 53 9 85.5t-5.5 54
t-22.5 33.5q-28 21 -82.5 21t-79.5 -6t-47 -26t-35.5 -58.5z" />
    <glyph glyph-name="divide" unicode="&#xf7;" horiz-adv-x="511" 
d="M96 310l13 86h418l-14 -86h-417zM269 250h56q20 0 20 -18q0 -3 -1 -6l-9 -58q-3 -23 -27 -23h-56q-11 0 -16.5 6.5t-4.5 16.5l10 58q3 24 28 24zM317 556h56q20 0 20 -18q0 -3 -1 -7l-8 -57q-3 -23 -27 -23h-57q-10 0 -15.5 6t-4.5 17l9 57q3 25 28 25z" />
    <glyph glyph-name="oslash" unicode="&#xf8;" horiz-adv-x="565" 
d="M173 480q58 56 192 56q89 0 137 -32l25 27h69l-58 -62q31 -45 31 -123q0 -41 -9 -92q-25 -149 -81.5 -204t-188.5 -55q-102 0 -152 36l-29 -31h-64l60 66q-25 39 -25 116t25.5 167t67.5 131zM439 436q-26 16 -77 16t-75.5 -6t-47 -26t-35.5 -58.5t-22 -91t-9 -80t6 -44.5
zM384 92q27 12 40 32q29 43 44 134q8 46 8 80t-9 54l-266 -292q25 -20 90.5 -20t92.5 12z" />
    <glyph glyph-name="ugrave" unicode="&#xf9;" horiz-adv-x="544" 
d="M206 731h96l98 -135h-75zM165 165q-2 -15 -2 -35.5t15.5 -37t60 -16.5t80.5 11.5t100 42.5l63 401h92l-84 -531h-69l-14 60q-3 -2 -26 -14.5t-44 -23.5q-63 -31 -136 -31t-106 49q-25 35 -25 86q0 19 3 40l58 365h92z" />
    <glyph glyph-name="uacute" unicode="&#xfa;" horiz-adv-x="544" 
d="M325 596l124 135h102l-151 -135h-75zM165 165q-2 -15 -2 -35.5t15.5 -37t60 -16.5t80.5 11.5t100 42.5l63 401h92l-84 -531h-69l-14 60q-3 -2 -26 -14.5t-44 -23.5q-63 -31 -136 -31t-106 49q-25 35 -25 86q0 19 3 40l58 365h92z" />
    <glyph glyph-name="ucircumflex" unicode="&#xfb;" horiz-adv-x="544" 
d="M214 596l136 132h80l81 -132h-72l-53 79l-85 -79h-87zM165 165q-2 -15 -2 -35.5t15.5 -37t60 -16.5t80.5 11.5t100 42.5l63 401h92l-84 -531h-69l-14 60q-3 -2 -26 -14.5t-44 -23.5q-63 -31 -136 -31t-106 49q-25 35 -25 86q0 19 3 40l58 365h92z" />
    <glyph glyph-name="udieresis" unicode="&#xfc;" horiz-adv-x="544" 
d="M252 702q22 0 33.5 -13.5t11.5 -24.5q0 -33 -19.5 -50.5t-41.5 -17.5t-34 14.5t-12 24.5q0 33 20 50t42 17zM507 702q22 0 33.5 -13.5t11.5 -24.5q0 -33 -19.5 -50.5t-41.5 -17.5t-34 14.5t-12 24.5q0 33 20 50t42 17zM165 165q-2 -15 -2 -35.5t15.5 -37t60 -16.5
t80.5 11.5t100 42.5l63 401h92l-84 -531h-69l-14 60q-3 -2 -26 -14.5t-44 -23.5q-63 -31 -136 -31t-106 49q-25 35 -25 86q0 19 3 40l58 365h92z" />
    <glyph glyph-name="yacute" unicode="&#xfd;" horiz-adv-x="552" 
d="M314 592l124 134h102l-151 -134h-75zM588 533q5 -19 5 -47t-18 -66l-208 -419q-64 -131 -128.5 -195.5t-142.5 -79.5v65q56 35 94 86.5t75 122.5q-35 0 -67 21q-40 26 -50 96l-57 414h96l55 -403q5 -31 39 -38q10 -2 17.5 -1.5l7.5 0.5l177 355q17 36 25 89h80z" />
    <glyph glyph-name="thorn" unicode="&#xfe;" horiz-adv-x="551" 
d="M433.5 538q36.5 0 67.5 -24.5t44 -63.5q20 -58 20 -106.5t-5 -80t-9 -51.5t-12.5 -51.5t-18 -52.5t-26.5 -45.5t-37 -38.5q-49 -35 -116 -35q-38 0 -89.5 10.5t-90.5 28.5l-47 -298h-92l167 1052h92l-49 -310q46 31 105.5 48.5t96 17.5zM466 266q5 38 5 63t-3.5 54
t-20 49.5t-40.5 20.5q-67 0 -185 -47l-49 -309q51 -17 83.5 -19t40 -2.5l22.5 -1.5t20 -1q46 0 79.5 42t47.5 151z" />
    <glyph glyph-name="ydieresis" unicode="&#xff;" horiz-adv-x="552" 
d="M242 694q22 0 33.5 -13.5t11.5 -23.5q0 -34 -20 -51t-42 -17t-33.5 14t-11.5 24q0 34 20 50.5t42 16.5zM497 694q22 0 33.5 -13.5t11.5 -23.5q0 -34 -20 -51t-42 -17t-33.5 14t-11.5 24q0 34 20 50.5t42 16.5zM588 533q5 -19 5 -47t-18 -66l-208 -419
q-64 -131 -128.5 -195.5t-142.5 -79.5v65q56 35 94 86.5t75 122.5q-35 0 -67 21q-40 26 -50 96l-57 414h96l55 -403q5 -31 39 -38q10 -2 17.5 -1.5l7.5 0.5l177 355q17 36 25 89h80z" />
    <glyph glyph-name="Amacron" unicode="&#x100;" horiz-adv-x="667" 
d="M334 797l11 67h292l-11 -67h-292zM42 0l379 732h97l136 -732h-94l-36 193h-281l-100 -193h-101zM287 280h223l-57 327z" />
    <glyph glyph-name="amacron" unicode="&#x101;" horiz-adv-x="540" 
d="M212 603l11 67h292l-11 -67h-292zM258 532q23 6 46 8.5t55.5 2.5t101.5 -15t105 -49l-70 -479h-68l-14 59q-28 -23 -79 -44.5t-93.5 -21.5t-69 7.5t-50 27t-34.5 52.5q-14 44 -14 95t11 111t30.5 106.5t40.5 73t50 43.5t52 23zM188 322q-8 -29 -14.5 -70t-6.5 -75.5
t9 -56.5q17 -41 69.5 -41t88.5 11.5t87 37.5l48 315q-64 18 -99.5 18t-53 -3.5t-27 -6t-23.5 -8.5t-23 -14.5t-20 -23t-19 -34.5t-16 -49z" />
    <glyph glyph-name="Abreve" unicode="&#x102;" horiz-adv-x="667" 
d="M434 911q-1 -6 -1 -15t5 -22q13 -28 51 -28q64 0 74 65h49q-15 -114 -126 -114q-44 0 -73 29t-29 72v13h50zM42 0l379 732h97l136 -732h-94l-36 193h-281l-100 -193h-101zM287 280h223l-57 327z" />
    <glyph glyph-name="abreve" unicode="&#x103;" horiz-adv-x="540" 
d="M327 717q-1 -6 -1 -20t14 -29.5t40 -15.5h3q64 0 73 65h50q-15 -114 -126 -114q-44 0 -73 29t-29 72v13h49zM258 532q23 6 46 8.5t55.5 2.5t101.5 -15t105 -49l-70 -479h-68l-14 59q-28 -23 -79 -44.5t-93.5 -21.5t-69 7.5t-50 27t-34.5 52.5q-14 44 -14 95t11 111
t30.5 106.5t40.5 73t50 43.5t52 23zM188 322q-8 -29 -14.5 -70t-6.5 -75.5t9 -56.5q17 -41 69.5 -41t88.5 11.5t87 37.5l48 315q-64 18 -99.5 18t-53 -3.5t-27 -6t-23.5 -8.5t-23 -14.5t-20 -23t-19 -34.5t-16 -49z" />
    <glyph glyph-name="Aogonek" unicode="&#x104;" horiz-adv-x="750" 
d="M579 -109q0 69 96 109h44q-70 -50 -70 -87q0 -31 47 -31h9l-11 -64q-12 -2 -24 -2q-40 0 -65.5 23t-25.5 52zM129 0l379 732h97l136 -732h-94l-36 193h-281l-100 -193h-101zM374 280h223l-57 327z" />
    <glyph glyph-name="aogonek" unicode="&#x105;" horiz-adv-x="494" 
d="M326 -109q0 69 96 109h44q-71 -50 -71 -87q0 -31 47 -31h9l-10 -64q-13 -2 -24 -2q-41 0 -66 23t-25 52zM239 532q23 6 46 8.5t56 2.5t101.5 -15t104.5 -49l-70 -479h-68l-14 59q-28 -23 -79 -44.5t-93.5 -21.5t-69 7.5t-50 27t-33.5 52.5q-15 44 -15 95t11.5 111
t30.5 106.5t40 73t50 43.5t52 23zM176 343.5q-12 -36.5 -20 -84.5t-8 -82.5t9 -56.5q17 -41 69.5 -41t88.5 11.5t87 37.5l48 315q-64 18 -99.5 18t-56 -4t-33.5 -8t-31.5 -16.5t-30 -32.5t-23.5 -56.5z" />
    <glyph glyph-name="Cacute" unicode="&#x106;" horiz-adv-x="576" 
d="M409 800l123 134h103l-151 -134h-75zM414 740q103 0 242 -32l-11 -72q-114 15 -213 15h-16h-13.5t-14.5 -0.5t-20.5 -2t-22.5 -6t-22.5 -11t-23.5 -17.5t-22 -25.5t-21.5 -36t-19.5 -48.5q-19 -51 -31.5 -125.5t-12.5 -122.5q0 -165 124 -173q18 -1 67.5 -1t177.5 9
l-10 -73q-85 -24 -240 -24q-120 0 -168 81q-42 70 -42 181q0 98 32 225q27 108 69 163q50 66 123 85q39 11 89 11z" />
    <glyph glyph-name="cacute" unicode="&#x107;" horiz-adv-x="494" 
d="M314 598l124 135h102l-151 -135h-75zM266 536.5q17 1.5 48 1.5t99 -8.5t120 -20.5l-9 -63q-127 8 -182 8t-67.5 -2t-28 -12t-25.5 -31q-24 -47 -42 -147q-9 -59 -9 -93t10 -54q18 -37 64 -37q87 0 194 8l36 2l-10 -64q-101 -30 -223 -30h-13q-84 1 -124 67q-25 42 -25 99
t9 109.5t20.5 93t24 68.5t29 48t31.5 31.5t35.5 18t37.5 8z" />
    <glyph glyph-name="Ccircumflex" unicode="&#x108;" horiz-adv-x="576" 
d="M297 800l135 132h80l81 -132h-72l-53 78l-85 -78h-86zM414 740q103 0 242 -32l-11 -72q-114 15 -213 15h-16h-13.5t-14.5 -0.5t-20.5 -2t-22.5 -6t-22.5 -11t-23.5 -17.5t-22 -25.5t-21.5 -36t-19.5 -48.5q-19 -51 -31.5 -125.5t-12.5 -122.5q0 -165 124 -173
q18 -1 67.5 -1t177.5 9l-10 -73q-85 -24 -240 -24q-120 0 -168 81q-42 70 -42 181q0 98 32 225q27 108 69 163q50 66 123 85q39 11 89 11z" />
    <glyph glyph-name="ccircumflex" unicode="&#x109;" horiz-adv-x="494" 
d="M213 598l135 132h80l81 -132h-72l-53 78l-85 -78h-86zM264 536.5q17 1.5 48 1.5t99.5 -8.5t120.5 -20.5l-10 -63q-126 8 -181.5 8t-67.5 -2t-27.5 -12t-25.5 -31q-25 -47 -43 -147q-10 -49 -10 -74q0 -72 27 -95q18 -15 56 -15q79 0 186 8l36 2l-10 -64
q-101 -30 -223 -30h-13q-83 1 -124 67q-25 42 -25 99t9 109.5t20.5 93t24.5 68.5t29 48t31.5 31.5t35.5 18t37 8z" />
    <glyph glyph-name="Cdotaccent" unicode="&#x10a;" horiz-adv-x="576" 
d="M419 908h56q23 0 19 -25l-10 -60q-3 -23 -26 -23h-56q-10 0 -16 6.5t-5 16.5l10 60q3 25 28 25zM414 740q103 0 242 -32l-11 -72q-114 15 -213 15h-16h-13.5t-14.5 -0.5t-20.5 -2t-22.5 -6t-22.5 -11t-23.5 -17.5t-22 -25.5t-21.5 -36t-19.5 -48.5q-19 -51 -31.5 -125.5
t-12.5 -122.5q0 -165 124 -173q18 -1 67.5 -1t177.5 9l-10 -73q-85 -24 -240 -24q-120 0 -168 81q-42 70 -42 181q0 98 32 225q27 108 69 163q50 66 123 85q39 11 89 11z" />
    <glyph glyph-name="cdotaccent" unicode="&#x10b;" horiz-adv-x="494" 
d="M353 706h56q23 0 19 -25l-10 -60q-3 -23 -26 -23h-56q-11 0 -16.5 6.5t-4.5 16.5l10 60q3 25 28 25zM264 536.5q17 1.5 48 1.5t99.5 -8.5t120.5 -20.5l-10 -63q-126 8 -181.5 8t-67.5 -2t-27.5 -12t-25.5 -31q-25 -47 -43 -147q-10 -49 -10 -74q0 -72 27 -95
q18 -15 56 -15q79 0 186 8l36 2l-10 -64q-101 -30 -223 -30h-13q-83 1 -124 67q-25 42 -25 99t9 109.5t20.5 93t24.5 68.5t29 48t31.5 31.5t35.5 18t37 8z" />
    <glyph glyph-name="Ccaron" unicode="&#x10c;" horiz-adv-x="576" 
d="M327 932h72l54 -79l84 79h87l-136 -132h-79zM414 740q103 0 242 -32l-11 -72q-114 15 -213 15h-16h-13.5t-14.5 -0.5t-20.5 -2t-22.5 -6t-22.5 -11t-23.5 -17.5t-22 -25.5t-21.5 -36t-19.5 -48.5q-19 -51 -31.5 -125.5t-12.5 -122.5q0 -165 124 -173q18 -1 67.5 -1
t177.5 9l-10 -73q-85 -24 -240 -24q-120 0 -168 81q-42 70 -42 181q0 98 32 225q27 108 69 163q50 66 123 85q39 11 89 11z" />
    <glyph glyph-name="ccaron" unicode="&#x10d;" horiz-adv-x="494" 
d="M240 730h72l54 -79l85 79h86l-136 -132h-79zM264 536.5q17 1.5 48 1.5t99.5 -8.5t120.5 -20.5l-10 -63q-126 8 -181.5 8t-67.5 -2t-27.5 -12t-25.5 -31q-25 -47 -43 -147q-10 -49 -10 -74q0 -72 27 -95q18 -15 56 -15q79 0 186 8l36 2l-10 -64q-101 -30 -223 -30h-13
q-83 1 -124 67q-25 42 -25 99t9 109.5t20.5 93t24.5 68.5t29 48t31.5 31.5t35.5 18t37 8z" />
    <glyph glyph-name="Dcaron" unicode="&#x10e;" horiz-adv-x="664" 
d="M333 924h72l53 -78l85 78h86l-135 -131h-80zM484 732q107 0 156 -67q47 -65 53 -149q1 -26 1 -46q0 -57 -9 -112q-29 -174 -104.5 -266t-210.5 -92h-282l116 731q0 1 280 1zM379 90q58 0 103 39q85 71 111 235q10 63 10 119q0 161 -137 161h-184l-88 -554h185z" />
    <glyph glyph-name="dcaron" unicode="&#x10f;" horiz-adv-x="669" 
d="M304.5 539q36.5 0 89 -10.5t91.5 -27.5l46 284h90l-125 -785h-70l-12 58q-30 -21 -85.5 -42.5t-102.5 -21.5t-81 23.5t-48 62.5q-18 53 -18 101.5t7 87t14.5 70.5t19.5 64.5t28.5 56t38 42t51.5 28t66.5 9.5zM171 188q0 -108 72 -108q82 0 182 43l49 308q-83 24 -173 24
q-30 0 -51 -14q-48 -33 -72 -176q-7 -43 -7 -77zM670 579l11 134l10 67h81l-11 -67l-32 -134h-59z" />
    <glyph glyph-name="Dcroat" unicode="&#x110;" horiz-adv-x="663" 
d="M492 732q108 0 156 -67q48 -66 53 -150q2 -26 2 -46q0 -57 -9 -111q-30 -173 -105.5 -265.5t-209.5 -92.5h-283l55 344h-65l9 58h65l52 329q0 1 280 1zM388 90q57 0 102 39q84 71 111 235q10 63 10 120q0 160 -136 160h-185l-38 -242h132l-10 -58h-131l-41 -254h186z" />
    <glyph glyph-name="dcroat" unicode="&#x111;" horiz-adv-x="552" 
d="M226.5 524.5q34.5 14.5 74.5 14.5t92.5 -10.5t91.5 -27.5l18 112h-118l9 57h118l19 115h90l-18 -115h70l-9 -57h-70l-98 -613h-70l-12 58q-30 -21 -85.5 -42.5t-102.5 -21.5t-81 23.5t-48 62.5q-18 53 -18 101.5t7.5 91.5t17 80t26.5 73.5t39.5 60t57 38zM171 188
q0 -108 72 -108q82 0 182 43l49 308q-83 24 -173 24q-30 0 -51 -14q-48 -33 -72 -176q-7 -43 -7 -77z" />
    <glyph glyph-name="Emacron" unicode="&#x112;" horiz-adv-x="565" 
d="M278 792l10 68h292l-10 -68h-292zM313 732q5 0 155.5 -7t167.5 -9l-11 -74h-307q-44 0 -56 -35q-3 -9 -5 -21l-28 -176l316 -10l-12 -74l-318 -10l-29 -177q-5 -38 15 -46q15 -6 40 -6h297l-13 -73l-308 -17h-18t-35 6q-73 20 -73 99q0 14 2 28l74 468q22 134 146 134z
" />
    <glyph glyph-name="emacron" unicode="&#x113;" horiz-adv-x="525" 
d="M215 600l11 67h292l-11 -67h-292zM283 208q-80 0 -113 14q-6 -40 -6 -69t8 -46q16 -31 69 -32q23 -1 76.5 -1t164.5 16l-11 -68q-104 -29 -234 -29h-23q-95 1 -125 72q-16 38 -16 93.5t11 113t19.5 88.5t22 62.5t32 51.5t45.5 36q51 31 149 31h1q196 0 196 -129
q0 -60 -25 -99.5t-56 -58.5q-73 -46 -185 -46zM179 286q27 -3 56 -3t50 1.5t52 7.5t54 16t41 30q24 26 24 60t-22 46.5t-87 12.5q-83 0 -116 -37q-24 -26 -31 -50q-10 -29 -15 -54z" />
    <glyph glyph-name="Edotaccent" unicode="&#x116;" horiz-adv-x="565" 
d="M428 905h56q23 0 19 -25l-10 -60q-3 -23 -26 -23h-56q-10 0 -16 6.5t-5 16.5l10 60q4 25 28 25zM313 732q5 0 155.5 -7t167.5 -9l-11 -74h-307q-44 0 -56 -35q-3 -9 -5 -21l-28 -176l316 -10l-12 -74l-318 -10l-29 -177q-5 -38 15 -46q15 -6 40 -6h297l-13 -73l-308 -17
h-18t-35 6q-73 20 -73 99q0 14 2 28l74 468q22 134 146 134z" />
    <glyph glyph-name="edotaccent" unicode="&#x117;" horiz-adv-x="525" 
d="M352 709h56q22 0 19 -25l-10 -60q-3 -23 -26 -23h-56q-11 0 -17 6.5t-4 16.5l10 60q3 25 28 25zM283 208q-80 0 -113 14q-6 -40 -6 -69t8 -46q16 -31 69 -32q23 -1 76.5 -1t164.5 16l-11 -68q-104 -29 -234 -29h-23q-95 1 -125 72q-16 38 -16 93.5t11 113t19.5 88.5
t22 62.5t32 51.5t45.5 36q51 31 149 31h1q196 0 196 -129q0 -60 -25 -99.5t-56 -58.5q-73 -46 -185 -46zM179 286q27 -3 56 -3t50 1.5t52 7.5t54 16t41 30q24 26 24 60t-22 46.5t-87 12.5q-83 0 -116 -37q-24 -26 -31 -50q-10 -29 -15 -54z" />
    <glyph glyph-name="Eogonek" unicode="&#x118;" horiz-adv-x="560" 
d="M389 -95q0 69 97 109h43q-70 -50 -70 -87q0 -31 47 -31h9l-10 -64q-13 -3 -25 -3q-40 0 -65.5 23.5t-25.5 52.5zM318 732q5 0 155 -7t168 -9l-12 -74h-306q-45 0 -57 -35q-2 -9 -4 -21l-28 -176l315 -10l-12 -74l-318 -10l-28 -177q-6 -38 14 -46q15 -6 41 -6h296
l-12 -73l-309 -17h-18t-34 6q-74 20 -74 99q0 14 2 28l74 468q22 134 147 134z" />
    <glyph glyph-name="eogonek" unicode="&#x119;" horiz-adv-x="525" 
d="M333 -87q0 69 97 109h43q-70 -50 -70 -87q0 -31 47 -31h9l-11 -64q-12 -3 -24 -3q-40 0 -65.5 23.5t-25.5 52.5zM551 412q0 -68 -31.5 -110.5t-71.5 -60.5q-75 -33 -154 -33q-40 0 -75.5 4.5t-46.5 9.5q-7 -40 -7 -69t9 -46q15 -31 69 -32q23 -1 76 -1t164 16l-10 -68
q-104 -29 -234 -29h-23q-95 1 -125 72q-16 38 -16 93.5t11 113t19 88.5t22 62.5t32.5 51.5t45.5 36q50 31 149 31v0q197 0 197 -129zM181 286q26 -3 55.5 -3t50.5 1.5t51.5 7.5t54 16t41.5 30q24 26 24 60t-22 46.5t-87 12.5q-83 0 -117 -37q-23 -26 -31 -50
q-9 -29 -13.5 -50.5t-4.5 -23.5q-1 -6 -2 -10z" />
    <glyph glyph-name="Ecaron" unicode="&#x11a;" horiz-adv-x="565" 
d="M321 928h72l53 -78l85 78h86l-135 -131h-80zM313 732q5 0 155.5 -7t167.5 -9l-11 -74h-307q-44 0 -56 -35q-3 -9 -5 -21l-28 -176l316 -10l-12 -74l-318 -10l-29 -177q-5 -38 15 -46q15 -6 40 -6h297l-13 -73l-308 -17h-18t-35 6q-73 20 -73 99q0 14 2 28l74 468
q22 134 146 134z" />
    <glyph glyph-name="ecaron" unicode="&#x11b;" horiz-adv-x="525" 
d="M243 732h72l54 -78l84 78h87l-136 -131h-79zM283 208q-80 0 -113 14q-6 -40 -6 -69t8 -46q16 -31 69 -32q23 -1 76.5 -1t164.5 16l-11 -68q-104 -29 -234 -29h-23q-95 1 -125 72q-16 38 -16 93.5t11 113t19.5 88.5t22 62.5t32 51.5t45.5 36q51 31 149 31h1
q196 0 196 -129q0 -60 -25 -99.5t-56 -58.5q-73 -46 -185 -46zM179 286q27 -3 56 -3t50 1.5t52 7.5t54 16t41 30q24 26 24 60t-22 46.5t-87 12.5q-83 0 -116 -37q-24 -26 -31 -50q-10 -29 -15 -54z" />
    <glyph glyph-name="Gcircumflex" unicode="&#x11c;" horiz-adv-x="610" 
d="M285 799l135 132h80l81 -132h-72l-53 78l-85 -78h-86zM422 739q92 0 234 -30l-10 -73q-89 14 -233 16q-63 0 -95 -23q-39 -30 -63 -82q-31 -71 -43.5 -157.5t-12.5 -120.5t1 -50q4 -62 34 -99t83 -37q44 0 81 13q61 22 86 35l11 6l31 174h-151l10 61q83 24 179 24
q31 0 67 -2l-63 -394h-69l-15 56q-26 -25 -78 -43q-53 -20 -107 -20t-94 23q-72 41 -93 148q-9 45 -9 71t0.5 54.5t11.5 93.5t26 119t38.5 101t55.5 75q67 61 180 61h7z" />
    <glyph glyph-name="gcircumflex" unicode="&#x11d;" horiz-adv-x="554" 
d="M223 598l136 131h80l80 -131h-71l-54 78l-85 -78h-86zM291 -187q38 0 65.5 24.5t34.5 70.5l19 123q-89 -38 -158 -38t-105.5 22t-51.5 61q-17 45 -17 99t10 106q20 126 78.5 191.5t148.5 65.5t264 -25l-96 -609q-15 -93 -66.5 -135t-113.5 -42q-10 0 -21 1l-250 24l10 61
h249zM170 183.5q0 -21.5 1 -31.5t6 -27t14 -26q22 -23 65.5 -23t76 4.5t88.5 19.5l57 355h-162q-28 0 -51.5 -15t-37.5 -35.5t-24 -48.5q-16 -41 -24.5 -96t-8.5 -76.5z" />
    <glyph glyph-name="Gbreve" unicode="&#x11e;" horiz-adv-x="610" 
d="M386 913q-1 -6 -1 -19.5t14 -29.5t40 -16h3q63 0 73 65h49q-14 -114 -125 -114q-45 0 -74 29t-29 73q0 6 1 12h49zM422 739q92 0 234 -30l-10 -73q-89 14 -233 16q-63 0 -95 -23q-39 -30 -63 -82q-31 -71 -43.5 -157.5t-12.5 -120.5t1 -50q4 -62 34 -99t83 -37
q44 0 81 13q61 22 86 35l11 6l31 174h-151l10 61q83 24 179 24q31 0 67 -2l-63 -394h-69l-15 56q-26 -25 -78 -43q-53 -20 -107 -20t-94 23q-72 41 -93 148q-9 45 -9 71t0.5 54.5t11.5 93.5t26 119t38.5 101t55.5 75q67 61 180 61h7z" />
    <glyph glyph-name="gbreve" unicode="&#x11f;" horiz-adv-x="554" 
d="M333 712q-1 -6 -1 -20t14 -29.5t40 -15.5h2q64 0 74 65h49q-15 -114 -125 -114q-63 0 -91 52q-12 22 -12 39t1 23h49zM291 -187q38 0 65.5 24.5t34.5 70.5l19 123q-89 -38 -158 -38t-105.5 22t-51.5 61q-17 45 -17 99t10 106q20 126 78.5 191.5t148.5 65.5t264 -25
l-96 -609q-15 -93 -66.5 -135t-113.5 -42q-10 0 -21 1l-250 24l10 61h249zM170 183.5q0 -21.5 1 -31.5t6 -27t14 -26q22 -23 65.5 -23t76 4.5t88.5 19.5l57 355h-162q-28 0 -51.5 -15t-37.5 -35.5t-24 -48.5q-16 -41 -24.5 -96t-8.5 -76.5z" />
    <glyph glyph-name="Gdotaccent" unicode="&#x120;" horiz-adv-x="610" 
d="M428 908h56q22 0 19 -25l-10 -60q-3 -23 -26 -23h-56q-11 0 -17 6.5t-4 16.5l10 60q3 25 28 25zM422 739q92 0 234 -30l-10 -73q-89 14 -233 16q-63 0 -95 -23q-39 -30 -63 -82q-31 -71 -43.5 -157.5t-12.5 -120.5t1 -50q4 -62 34 -99t83 -37q44 0 81 13q61 22 86 35
l11 6l31 174h-151l10 61q83 24 179 24q31 0 67 -2l-63 -394h-69l-15 56q-26 -25 -78 -43q-53 -20 -107 -20t-94 23q-72 41 -93 148q-9 45 -9 71t0.5 54.5t11.5 93.5t26 119t38.5 101t55.5 75q67 61 180 61h7z" />
    <glyph glyph-name="gdotaccent" unicode="&#x121;" horiz-adv-x="554" 
d="M377 706h56q22 0 19 -25l-10 -60q-3 -23 -26 -23h-56q-11 0 -17 6.5t-4 16.5l10 60q3 25 28 25zM291 -187q38 0 65.5 24.5t34.5 70.5l19 123q-89 -38 -158 -38t-105.5 22t-51.5 61q-17 45 -17 99t10 106q20 126 78.5 191.5t148.5 65.5t264 -25l-96 -609
q-15 -93 -66.5 -135t-113.5 -42q-10 0 -21 1l-250 24l10 61h249zM170 183.5q0 -21.5 1 -31.5t6 -27t14 -26q22 -23 65.5 -23t76 4.5t88.5 19.5l57 355h-162q-28 0 -51.5 -15t-37.5 -35.5t-24 -48.5q-16 -41 -24.5 -96t-8.5 -76.5z" />
    <glyph glyph-name="Gcommaaccent" unicode="&#x122;" horiz-adv-x="610" 
d="M294 -176q-10 0 -15.5 6t-3.5 16l9 57q4 25 26 25h54q18 0 18 -19v-6l-14 -89q-4 -25 -16 -41q-23 -30 -70 -30q-5 0 -19 2l6 33q19 -1 24 7q6 10 8 19l3 20h-10zM422 739q92 0 234 -30l-10 -73q-89 14 -233 16q-63 0 -95 -23q-39 -30 -63 -82q-31 -71 -43.5 -157.5
t-12.5 -120.5t1 -50q4 -62 34 -99t83 -37q44 0 81 13q61 22 86 35l11 6l31 174h-151l10 61q83 24 179 24q31 0 67 -2l-63 -394h-69l-15 56q-26 -25 -78 -43q-53 -20 -107 -20t-94 23q-72 41 -93 148q-9 45 -9 71t0.5 54.5t11.5 93.5t26 119t38.5 101t55.5 75q67 61 180 61h7
z" />
    <glyph glyph-name="gcommaaccent" unicode="&#x123;" horiz-adv-x="560" 
d="M295 -187q38 0 65.5 24.5t34.5 70.5l20 123q-89 -38 -158 -38t-106 22t-51 61q-17 45 -17 99t9 106q21 126 79 191.5t148.5 65.5t264.5 -25l-97 -609q-15 -93 -66 -135t-114 -42q-10 0 -21 1l-250 24l10 61h249zM174 183.5q0 -21.5 1.5 -31.5t6 -27t13.5 -26
q22 -23 66 -23t76 4.5t88 19.5l57 355h-162q-28 0 -51.5 -15t-37 -35.5t-24.5 -48.5q-16 -41 -24.5 -96t-8.5 -76.5zM420 698q22 0 19 -22l-8 -57q-4 -24 -27 -24h-54q-17 0 -17 18v6l13 89q8 48 48 65q25 11 57 5l-5 -33q-13 0 -20 -5t-9 -9.5t-3 -12.5l-4 -20h10z" />
    <glyph glyph-name="Hcircumflex" unicode="&#x124;" horiz-adv-x="638" 
d="M311 797l135 131h80l81 -131h-72l-53 78l-85 -78h-86zM79 0l116 732h92l-54 -334h323l54 334h92l-116 -732h-92l50 310h-323l-50 -310h-92z" />
    <glyph glyph-name="hcircumflex" unicode="&#x125;" horiz-adv-x="545" 
d="M93 844l136 131h80l81 -131h-72l-53 78l-86 -78h-86zM435 540q79 0 113 -50q25 -38 25 -88q0 -17 -3 -36l-59 -366h-92l59 366q2 12 2 31.5t-16 39t-60 19.5t-80 -12t-100 -42l-64 -402h-92l124 784h92l-49 -314q3 2 18 10.5t19 10.5t17.5 9.5t19 9.5t18.5 8t20.5 8
t20 5.5t21.5 4.5q28 4 46 4z" />
    <glyph glyph-name="Hbar" unicode="&#x126;" horiz-adv-x="645" 
d="M79 0l82 517h-61l8 58h62l25 157h92l-25 -157h323l25 157h92l-25 -157h60l-9 -58h-60l-82 -517h-92l51 310h-323l-51 -310h-92zM234 400h323l19 117h-323z" />
    <glyph glyph-name="hbar" unicode="&#x127;" horiz-adv-x="543" 
d="M558 402q0 -17 -3 -36l-58 -366h-92l58 366q2 12 2 31.5t-16 39t-51 19.5q-69 0 -180 -54l-63 -402h-95l97 608h-75l9 58h74l19 118h94l-18 -118h128l-9 -58h-128l-22 -138q4 3 26 15t28.5 15t25.5 12t28.5 12t25.5 8q27 8 58 8q78 0 112 -50q25 -38 25 -88z" />
    <glyph glyph-name="Itilde" unicode="&#x128;" horiz-adv-x="233" 
d="M278.5 890q30.5 -16 37 -16.5t16 -0.5t45 14t44.5 21l15 -47q-7 -5 -23.5 -17t-26 -18t-23.5 -14q-54 -30 -110 3q-28 17 -45 17q-28 0 -45 -7.5t-33 -16t-22 -11.5l-16 45q53 41 81 53t51.5 11.5t54 -16.5zM83 0l116 732h92l-116 -732h-92z" />
    <glyph glyph-name="itilde" unicode="&#x129;" horiz-adv-x="203" 
d="M205.5 689q30.5 -16 37 -16h16t45 13.5t45.5 21.5l14 -47q-7 -5 -23.5 -17t-26 -18t-23.5 -14q-54 -31 -110 3q-28 16 -45 16q-28 0 -45 -7.5t-33 -16t-22 -11.5l-16 45q53 41 81 53.5t51.5 11.5t54 -17zM54 0l84 531h92l-84 -531h-92z" />
    <glyph glyph-name="Imacron" unicode="&#x12a;" horiz-adv-x="233" 
d="M59 793l11 67h292l-11 -67h-292zM42 0l116 732h92l-116 -732h-92z" />
    <glyph glyph-name="imacron" unicode="&#x12b;" horiz-adv-x="203" 
d="M46 596l11 68h292l-11 -68h-292zM54 0l84 531h92l-84 -531h-92z" />
    <glyph glyph-name="Iogonek" unicode="&#x12e;" horiz-adv-x="233" 
d="M14 -109q0 69 97 109h43q-70 -50 -70 -87q0 -31 47 -31h9l-11 -64q-12 -2 -24 -2q-40 0 -65.5 23t-25.5 52zM83 0l116 732h92l-116 -732h-92z" />
    <glyph glyph-name="iogonek" unicode="&#x12f;" horiz-adv-x="203" 
d="M-38 -104q0 69 96 110h44q-70 -51 -70 -87q0 -32 47 -32q4 0 9 1l-11 -65q-12 -2 -24 -2q-40 0 -65.5 23t-25.5 52zM55 0h92l84 531h-92zM180 703h65q20 0 20 -19q0 -3 -1 -6l-9 -64q-4 -23 -27 -23h-65q-11 0 -16.5 6.5t-3.5 16.5l9 64q4 25 28 25z" />
    <glyph glyph-name="Idotaccent" unicode="&#x130;" horiz-adv-x="233" 
d="M301 905q20 0 20 -20q0 -2 -1 -5l-9 -60q-3 -23 -26 -23h-56q-11 0 -17 6.5t-4 16.5l9 60q4 25 28 25h56zM83 0l116 732h92l-116 -732h-92z" />
    <glyph glyph-name="dotlessi" unicode="&#x131;" horiz-adv-x="203" 
d="M54 0l84 531h92l-84 -531h-92z" />
    <glyph glyph-name="Jcircumflex" unicode="&#x134;" horiz-adv-x="359" 
d="M234 797l136 131h80l81 -131h-72l-53 78l-85 -78h-87zM50 91q57 -12 75.5 -12t28 1.5t26.5 7.5t27 18q25 28 32 76l87 550h92l-90 -567q-12 -81 -41 -118q-43 -53 -139 -53q-74 0 -112 28z" />
    <glyph glyph-name="jcircumflex" unicode="&#x135;" horiz-adv-x="217" 
d="M22 -270l127 801h96l-85 -535q-24 -161 -71 -266h-67zM47 597l135 134h80l82 -134h-75l-51 75l-82 -75h-89z" />
    <glyph glyph-name="Kcommaaccent" unicode="&#x136;" horiz-adv-x="585" 
d="M262 -171q-10 0 -15.5 6t-3.5 17l9 56q4 24 27 24h54q17 0 17 -18v-6l-14 -89q-4 -25 -16 -41q-23 -30 -70 -30q-5 0 -18 2l5 33q12 -1 20 4q9 7 12 22l3 20h-10zM75 0l116 732h90l-51 -322h79l263 322h113l-297 -372l181 -360h-109l-158 322h-85l-51 -322h-91z" />
    <glyph glyph-name="kcommaaccent" unicode="&#x137;" horiz-adv-x="501" 
d="M230 -171q-10 0 -15.5 6t-3.5 17l9 56q4 24 27 24h54q17 0 17 -18v-6l-14 -89q-4 -25 -16 -41q-23 -30 -70 -30q-5 0 -18 2l5 33q12 -1 20 4q9 7 12 22l3 20h-10zM56 -2l124 782h92l-73 -460q68 21 147.5 87t92.5 122h101q-22 -77 -92 -146t-130 -97l190 -288h-108
l-172 261l-38 -1l-42 -260h-92z" />
    <glyph glyph-name="kgreenlandic" unicode="&#x138;" horiz-adv-x="538" 
d="M56 0l84 531h92l-35 -227h83l209 227h115l-239 -271l152 -260h-107l-132 222h-94l-36 -222h-92z" />
    <glyph glyph-name="Lacute" unicode="&#x139;" horiz-adv-x="533" 
d="M150 792l124 134h103l-152 -134h-75zM184 89h291l-13 -89h-307q-59 0 -90.5 28t-31.5 73q0 14 3 29l97 602h91l-95 -591q-5 -38 15 -46q14 -6 40 -6z" />
    <glyph glyph-name="lacute" unicode="&#x13a;" horiz-adv-x="294" 
d="M174 843l124 135h102l-151 -135h-75zM179 0q-122 0 -122 131q0 27 5 58l94 594h92l-93 -588q-13 -78 5 -96q10 -10 56 -22t48 -12l-11 -65h-74z" />
    <glyph glyph-name="Lcommaaccent" unicode="&#x13b;" horiz-adv-x="533" 
d="M261 -171q-10 0 -15.5 6t-3.5 17l8 56q4 24 27 24h54q18 0 18 -18q0 -2 -1 -6l-14 -89q-4 -25 -16 -41q-22 -30 -69 -30q-5 0 -19 2l5 33q19 -1 24 7q7 10 8 19l4 20h-10zM243 89h291l-14 -89h-306q-59 0 -90.5 28t-31.5 73q0 14 2 29l97 602h92l-95 -591q-6 -38 14 -46
q15 -6 41 -6z" />
    <glyph glyph-name="lcommaaccent" unicode="&#x13c;" horiz-adv-x="294" 
d="M117 -171q-10 0 -15.5 6t-3.5 17l8 56q4 24 27 24h54q18 0 18 -18v-6l-14 -89q-4 -25 -17 -41q-22 -30 -69 -30q-5 0 -19 2l5 33q13 -1 20 4q10 7 12 22l4 20h-10zM202 0q-122 0 -122 131q0 27 5 58l94 594h92l-93 -588q-13 -78 5 -96q10 -10 56 -22t47 -12l-10 -65h-74z
" />
    <glyph glyph-name="Lcaron" unicode="&#x13d;" horiz-adv-x="533" 
d="M243 89h291l-14 -89h-306q-59 0 -90.5 28t-31.5 73q0 14 2 29l97 602h92l-95 -591q-6 -38 14 -46q15 -6 41 -6zM336 571l10 134l11 67h80l-11 -67l-31 -134h-59z" />
    <glyph glyph-name="lcaron" unicode="&#x13e;" horiz-adv-x="315" 
d="M201 0q-121 0 -121 130q0 27 5 59l94 594h92l-93 -588q-13 -78 5 -96q10 -10 56 -22t48 -12l-11 -65h-75zM323 580l10 134l11 67h80l-11 -67l-31 -134h-59z" />
    <glyph glyph-name="Lslash" unicode="&#x141;" horiz-adv-x="533" 
d="M241 89h291l-14 -89h-305q-60 0 -91.5 28t-31.5 73q0 14 3 29l35 222l-88 -36l11 64l88 35l50 317h91l-44 -277l141 57l-11 -64l-139 -56l-40 -251q-5 -32 7 -41q3 -3 5.5 -5t7.5 -3l7.5 -1.5t8.5 -1.5h18z" />
    <glyph glyph-name="lslash" unicode="&#x142;" horiz-adv-x="358" 
d="M229 195q-7 -37 -7 -57.5t6.5 -31t14.5 -15t50.5 -15.5t44.5 -11l-10 -65h-74q-123 0 -123 131q0 26 5 58l33 208l-81 -33l10 64l81 32l52 323h94l-45 -281l145 58l-11 -64l-143 -58z" />
    <glyph glyph-name="Nacute" unicode="&#x143;" horiz-adv-x="662" 
d="M429 797l124 135h102l-151 -135h-75zM75 0l116 732h90l260 -562l89 562h92l-116 -732h-89l-261 560l-88 -560h-93z" />
    <glyph glyph-name="nacute" unicode="&#x144;" horiz-adv-x="545" 
d="M335 600l124 134h103l-152 -134h-75zM423 540q78 0 112 -50q25 -38 25 -88q0 -17 -3 -36l-58 -366h-92l58 366q2 12 2 31.5t-16 39t-60 19.5t-80 -12t-99 -42l-64 -402h-92l84 531h69l13 -61q4 3 18.5 11t19 10t18 9.5t19.5 9.5t18.5 7.5t20 8t19.5 6t22 4.5q27 4 46 4z
" />
    <glyph glyph-name="Ncommaaccent" unicode="&#x145;" horiz-adv-x="662" 
d="M305 -171q-10 0 -15.5 6t-3.5 17l9 56q4 24 27 24h54q17 0 17 -18v-6l-14 -89q-4 -25 -16 -41q-23 -30 -70 -30q-5 0 -18 2l5 33q12 -1 20 4q9 7 12 22l3 20h-10zM75 0l116 732h90l260 -562l89 562h92l-116 -732h-89l-261 560l-88 -560h-93z" />
    <glyph glyph-name="ncommaaccent" unicode="&#x146;" horiz-adv-x="545" 
d="M233 -171q-10 0 -15 6t-3 17l8 56q4 24 27 24h54q18 0 18 -18q0 -2 -1 -6l-14 -89q-4 -25 -16 -41q-22 -30 -69 -30q-6 0 -19 2l5 33q19 -1 24 7q6 10 8 19l3 20h-10zM423 540q78 0 112 -50q25 -38 25 -88q0 -17 -3 -36l-58 -366h-92l58 366q2 12 2 31.5t-16 39t-60 19.5
t-80 -12t-99 -42l-64 -402h-92l84 531h69l13 -61q4 3 18.5 11t19 10t18 9.5t19.5 9.5t18.5 7.5t20 8t19.5 6t22 4.5q27 4 46 4z" />
    <glyph glyph-name="Ncaron" unicode="&#x147;" horiz-adv-x="662" 
d="M339 928h72l54 -78l84 78h87l-136 -131h-79zM75 0l116 732h90l260 -562l89 562h92l-116 -732h-89l-261 560l-88 -560h-93z" />
    <glyph glyph-name="ncaron" unicode="&#x148;" horiz-adv-x="545" 
d="M250 732h72l53 -79l85 79h86l-135 -132h-80zM423 540q78 0 112 -50q25 -38 25 -88q0 -17 -3 -36l-58 -366h-92l58 366q2 12 2 31.5t-16 39t-60 19.5t-80 -12t-99 -42l-64 -402h-92l84 531h69l13 -61q4 3 18.5 11t19 10t18 9.5t19.5 9.5t18.5 7.5t20 8t19.5 6t22 4.5
q27 4 46 4z" />
    <glyph glyph-name="Eng" unicode="&#x14a;" horiz-adv-x="662" 
d="M413 -255q-28 -2 -46.5 -2h-26.5l11 69q9 2 26 5t27.5 5.5t25.5 7.5t25 12.5t20 19.5q20 22 28 70l12 73l-259 555l-88 -560h-93l116 732h90l260 -561l89 561h92l-129 -813q-25 -159 -180 -174z" />
    <glyph glyph-name="eng" unicode="&#x14b;" horiz-adv-x="555" 
d="M423 540q78 0 112 -50q25 -38 25 -88q0 -17 -3 -36l-72 -450q-18 -85 -70 -127q-43 -34 -99 -49l-32 -8l-24 48q2 1 16.5 7.5t18 8.5t17 9t19 11.5t16 13t16 16t12.5 18.5q13 18 18 48l72 454q2 12 2 31.5t-16 39t-60 19.5t-80 -12t-99 -42l-64 -402h-92l84 531h69
l13 -60q8 3 21.5 10.5t21 11.5t20 10.5t21.5 10t21 8.5t22.5 7.5t22.5 5.5q23 5 51 5z" />
    <glyph glyph-name="Omacron" unicode="&#x14c;" horiz-adv-x="666" 
d="M319 793l11 67h292l-11 -67h-292zM387 735q26 2 61.5 2t63 -2.5t55 -10t47 -20t37.5 -32.5q31 -35 42 -115q3 -26 3 -49q0 -69 -11.5 -144t-26 -128.5t-32 -91.5t-41 -64.5t-47.5 -43t-56 -25.5q-85 -24 -202 -12q-72 7 -111 37q-49 39 -63 110q-6 35 -6 61.5t0.5 57
t11 97t23 117.5t28.5 88.5t33 65.5t40 46.5t44 30t51 17.5t56 8zM217.5 437.5q-7.5 -34.5 -16.5 -92t-9.5 -84t-0.5 -50t8 -53t30 -46t50.5 -22t73 -5.5t74.5 6t57.5 23.5t46.5 47.5q40 65 61 199q13 83 13 130t-5.5 68.5t-11.5 36t-19 24.5t-24 15.5t-30 8.5q-28 4 -61 4
t-46.5 -0.5t-32.5 -2.5t-30.5 -6t-27 -11t-25 -18t-21.5 -26.5t-20 -36.5t-17 -48t-16.5 -61.5z" />
    <glyph glyph-name="omacron" unicode="&#x14d;" horiz-adv-x="562" 
d="M227 596l11 68h292l-11 -68h-292zM250.5 524q44.5 12 121.5 12q159 0 188 -124q7 -30 7 -69t-9 -89q-24 -149 -80.5 -204t-187.5 -55t-179 62q-32 42 -32 122q0 37 10 101t29.5 116.5t53.5 84t78.5 43.5zM202.5 361.5q-13.5 -38.5 -23 -93t-9.5 -79.5t2 -40.5t10 -28.5
t17.5 -21t25.5 -12q25 -8 63.5 -7.5t58.5 3t41 12t34 29t24.5 52.5t19.5 82q9 53 9 85.5t-5.5 54t-22.5 33.5q-28 21 -82.5 21t-79.5 -6t-47 -26t-35.5 -58.5z" />
    <glyph glyph-name="Ohungarumlaut" unicode="&#x150;" horiz-adv-x="666" 
d="M351 797l124 135h102l-151 -135h-75zM492 797l124 135h102l-151 -135h-75zM387 735q26 2 61.5 2t63 -2.5t55 -10t47 -20t37.5 -32.5q31 -35 42 -115q3 -26 3 -49q0 -69 -11.5 -144t-26 -128.5t-32 -91.5t-41 -64.5t-47.5 -43t-56 -25.5q-85 -24 -202 -12q-72 7 -111 37
q-49 39 -63 110q-6 35 -6 61.5t0.5 57t11 97t23 117.5t28.5 88.5t33 65.5t40 46.5t44 30t51 17.5t56 8zM217.5 437.5q-7.5 -34.5 -16.5 -92t-9.5 -84t-0.5 -50t8 -53t30 -46t50.5 -22t73 -5.5t74.5 6t57.5 23.5t46.5 47.5q40 65 61 199q13 83 13 130t-5.5 68.5t-11.5 36
t-19 24.5t-24 15.5t-30 8.5q-28 4 -61 4t-46.5 -0.5t-32.5 -2.5t-30.5 -6t-27 -11t-25 -18t-21.5 -26.5t-20 -36.5t-17 -48t-16.5 -61.5z" />
    <glyph glyph-name="ohungarumlaut" unicode="&#x151;" horiz-adv-x="562" 
d="M265 596l124 135h103l-152 -135h-75zM406 596l124 135h102l-151 -135h-75zM250.5 524q44.5 12 121.5 12q159 0 188 -124q7 -30 7 -69t-9 -89q-24 -149 -80.5 -204t-187.5 -55t-179 62q-32 42 -32 122q0 37 10 101t29.5 116.5t53.5 84t78.5 43.5zM202.5 361.5
q-13.5 -38.5 -23 -93t-9.5 -79.5t2 -40.5t10 -28.5t17.5 -21t25.5 -12q25 -8 63.5 -7.5t58.5 3t41 12t34 29t24.5 52.5t19.5 82q9 53 9 85.5t-5.5 54t-22.5 33.5q-28 21 -82.5 21t-79.5 -6t-47 -26t-35.5 -58.5z" />
    <glyph glyph-name="OE" unicode="&#x152;" horiz-adv-x="1065" 
d="M457 737q135 0 185 -75q19 42 50 56t71 14q6 0 157 -7t168 -9l-11 -74h-307q-44 0 -56 -35q-3 -9 -5 -21l-27 -176l315 -10l-11 -74l-319 -10l-29 -177q-5 -38 15 -46q15 -6 40 -6h297l-13 -73l-307 -17h-10q-33 0 -63 15t-43 49q-51 -50 -133 -60q-36 -5 -80 -5t-73 3
t-60 12t-51 25q-50 39 -63 110q-7 35 -7 61.5t0.5 57t11 97t23.5 117.5t29 88.5t33 65.5t39.5 46.5t44 30t50.5 17.5q50 10 139 10zM205 437q-27 -129 -27 -214q0 -94 53 -120q37 -18 100.5 -18t99 10t65.5 40q56 54 83 226q13 83 13 130t-5.5 68.5t-11.5 36t-19 24.5
t-23.5 15.5t-29.5 8.5q-28 4 -61.5 4t-47 -0.5t-32.5 -2.5t-30.5 -6t-26.5 -11t-24.5 -18t-21.5 -26.5t-21 -36.5q-22 -57 -33 -110z" />
    <glyph glyph-name="oe" unicode="&#x153;" horiz-adv-x="913" 
d="M664 208q-80 0 -113 14q-7 -40 -7 -69.5t9 -45.5q15 -32 69 -32q140 0 241 15l-11 -68q-104 -29 -234 -29h-23q-89 1 -119 66q-30 -34 -76.5 -49t-117.5 -15q-131 0 -178 63q-33 43 -33 123q0 38 9 93.5t24 101.5t36 77.5t53 49.5q58 33 163 33q131 0 174 -76
q58 81 203 81v0q197 0 197 -129q0 -60 -25 -99.5t-56 -58.5q-73 -46 -185 -46zM162 170q0 -35 20 -62q21 -28 104 -28q62 0 89 12t39.5 31.5t24 52.5t20.5 82q9 53 9 85.5t-6 54t-22 33.5q-29 21 -94 21q-86 0 -116 -32q-29 -30 -48.5 -102.5t-19.5 -147.5zM560 286
q26 -3 55.5 -3t50.5 1.5t52 7.5t54 16t41 30q24 26 24 65q0 30 -19 39q-28 15 -89 15q-84 0 -118 -37q-23 -26 -31 -50q-9 -29 -14 -54z" />
    <glyph glyph-name="Racute" unicode="&#x154;" horiz-adv-x="608" 
d="M378 796l124 135h103l-152 -135h-75zM496 732q75 0 115 -53q30 -41 30 -118q0 -108 -38 -178q-36 -69 -104 -82q-7 -1 -18 -3l106 -298h-102l-96 290l-180 13l-48 -303h-92l116 732h311zM432 379q45 0 76 31q39 38 39 142q0 69 -26 83q-15 9 -43 9h-215l-41 -265h210z
" />
    <glyph glyph-name="racute" unicode="&#x155;" horiz-adv-x="424" 
d="M354 597l124 135h102l-151 -135h-75zM435.5 532q24.5 5 64.5 5t55 -8l-15 -90q-25 5 -75.5 5t-90.5 -12.5t-98 -45.5l-61 -386h-92l84 531h70l11 -67q4 2 21.5 12.5t33.5 19t42 20t50.5 16.5z" />
    <glyph glyph-name="Rcommaaccent" unicode="&#x156;" horiz-adv-x="608" 
d="M279 -171q-10 0 -15.5 6t-3.5 17l9 56q4 24 27 24h54q17 0 17 -18v-6l-14 -89q-4 -25 -16 -41q-23 -30 -70 -30q-5 0 -18 2l5 33q12 -1 20 4q9 7 12 22l3 20h-10zM498 732q75 0 115 -53q30 -41 30 -118q0 -108 -38 -178q-36 -69 -104 -82q-8 -1 -18 -3l105 -298h-102
l-95 290l-181 13l-48 -303h-92l116 732h312zM434 379q115 0 115 173q0 69 -26 83q-15 9 -43 9h-215l-42 -265h211z" />
    <glyph glyph-name="rcommaaccent" unicode="&#x157;" horiz-adv-x="424" 
d="M87 -171q-10 0 -15 6t-4 17l9 56q4 24 27 24h54q18 0 18 -18q0 -2 -1 -6l-14 -89q-4 -25 -16 -41q-23 -30 -69 -30q-6 0 -19 2l5 33q12 -1 20 4q9 7 12 22l3 20h-10zM387 526q36 11 80 11t59 -8l-14 -90q-25 5 -76 5t-90.5 -12.5t-97.5 -45.5l-61 -386h-92l84 531h70
l11 -67q4 2 26.5 15t43.5 24.5t57 22.5z" />
    <glyph glyph-name="Rcaron" unicode="&#x158;" horiz-adv-x="608" 
d="M296 928h71l54 -78l85 78h86l-136 -131h-79zM498 732q75 0 115 -53q30 -41 30 -118q0 -108 -38 -178q-36 -69 -104 -82q-8 -1 -18 -3l105 -298h-102l-95 290l-181 13l-48 -303h-92l116 732h312zM434 379q115 0 115 173q0 69 -26 83q-15 9 -43 9h-215l-42 -265h211z" />
    <glyph glyph-name="rcaron" unicode="&#x159;" horiz-adv-x="424" 
d="M197 729h72l54 -78l84 78h87l-136 -132h-79zM349 526q36 11 80 11t59 -8l-15 -90q-25 5 -76 5t-90.5 -12.5t-97.5 -45.5l-61 -386h-92l84 531h70l11 -67q4 2 26.5 15t44 24.5t57.5 22.5z" />
    <glyph glyph-name="Sacute" unicode="&#x15a;" horiz-adv-x="573" 
d="M368 798l124 135h102l-151 -135h-75zM597 640l-245 9h-16q-49 0 -77.5 -17t-38.5 -78l-8 -58q-6 -36 -2.5 -49t6 -19.5t9.5 -10.5t12 -6.5t15 -3.5q14 -1 27 -1h15h130q45 0 76 -16.5t43 -42.5q19 -39 19 -70t-4 -49l-10 -68q-6 -45 -24.5 -77.5t-41 -49.5t-54.5 -27
q-80 -24 -249 -6q-77 9 -112 18l11 73q75 -10 247 -10q119 0 131 83l10 60q3 18 3 36t-7 32q-12 22 -61 22h-128q-158 0 -158 134q0 21 3 44l11 69q17 112 82 148q53 29 130 29q54 0 139 -8.5t128 -16.5z" />
    <glyph glyph-name="sacute" unicode="&#x15b;" horiz-adv-x="508" 
d="M316 601l124 134h102l-151 -134h-75zM355 76q50 0 58 49l7 46q2 8 2 18.5t-8 21t-36 10.5h-140q-74 0 -107 32q-25 24 -25 70q0 16 3 35l8 50q11 67 48 99.5t111 32.5q81 0 162 -7t103 -12l-11 -65h-255q-50 0 -62 -36q-3 -7 -4 -17l-7 -44q-7 -38 8 -46q11 -6 25 -5.5
t16 0.5h143q66 0 97 -38q24 -29 24 -70q0 -13 -2 -26l-9 -63q-8 -53 -34 -80q-26 -26 -49 -32q-36 -8 -77 -8t-141 7.5t-126 13.5l10 64h268z" />
    <glyph glyph-name="Scircumflex" unicode="&#x15c;" horiz-adv-x="573" 
d="M261 798l136 132h80l81 -132h-72l-53 79l-86 -79h-86zM607 640l-245 9h-16q-49 0 -77.5 -17t-37.5 -78l-9 -58q-6 -36 -2.5 -49t6.5 -19.5t9.5 -10.5t11.5 -6.5t15 -3.5q15 -1 27.5 -1h14.5h130q45 0 76 -16.5t43 -42.5q19 -39 19 -70t-4 -49l-9 -68q-7 -45 -25.5 -77.5
t-41 -49.5t-54.5 -27q-80 -24 -249 -6q-77 9 -112 18l11 73q76 -10 247 -10q119 0 131 83l10 60q3 18 3 36t-7 32q-12 22 -61 22h-128q-158 0 -158 134q0 21 4 44l10 69q17 112 82 148q53 29 130 29q54 0 139 -8.5t128 -16.5z" />
    <glyph glyph-name="scircumflex" unicode="&#x15d;" horiz-adv-x="508" 
d="M198 601l135 131h80l81 -131h-72l-53 78l-85 -78h-86zM340 76q49 0 57 49l8 46q2 8 2 18.5t-8 21t-36 10.5h-140q-74 0 -108 32q-24 24 -24 70q0 16 3 35l8 50q11 67 47.5 99.5t111.5 32.5q81 0 161.5 -7t103.5 -12l-11 -65h-255q-50 0 -63 -36q-2 -7 -4 -17l-7 -44
q-6 -38 9 -46q11 -6 24.5 -5.5t16.5 0.5h143q66 0 97 -38q24 -29 24 -70q0 -13 -2 -26l-9 -63q-8 -53 -34 -80q-26 -26 -50 -32q-35 -8 -76.5 -8t-141.5 7.5t-125 13.5l10 64h268z" />
    <glyph glyph-name="Scedilla" unicode="&#x15e;" horiz-adv-x="573" 
d="M226 -182h-52l7 43l52 15q27 11 37 44q4 13 8 35h74q-12 -78 -38.5 -107.5t-87.5 -29.5zM607 640l-245 9h-16q-49 0 -77.5 -17t-37.5 -78l-9 -58q-6 -36 -2.5 -49t6.5 -19.5t9.5 -10.5t11.5 -6.5t15 -3.5q15 -1 27.5 -1h14.5h130q45 0 76 -16.5t43 -42.5q19 -39 19 -70
t-4 -49l-9 -68q-7 -45 -25.5 -77.5t-41 -49.5t-54.5 -27q-80 -24 -249 -6q-77 9 -112 18l11 73q76 -10 247 -10q119 0 131 83l10 60q3 18 3 36t-7 32q-12 22 -61 22h-128q-158 0 -158 134q0 21 4 44l10 69q17 112 82 148q53 29 130 29q54 0 139 -8.5t128 -16.5z" />
    <glyph glyph-name="scedilla" unicode="&#x15f;" horiz-adv-x="508" 
d="M181 -176h-52l7 43l52 15q21 8 30.5 27t14.5 52h74q-12 -77 -38 -107q-27 -30 -88 -30zM340 76q49 0 57 49l8 46q2 8 2 18.5t-8 21t-36 10.5h-140q-74 0 -108 32q-24 24 -24 70q0 16 3 35l8 50q11 67 47.5 99.5t111.5 32.5q81 0 161.5 -7t103.5 -12l-11 -65h-255
q-50 0 -63 -36q-2 -7 -4 -17l-7 -44q-6 -38 9 -46q11 -6 24.5 -5.5t16.5 0.5h143q66 0 97 -38q24 -29 24 -70q0 -13 -2 -26l-9 -63q-8 -53 -34 -80q-26 -26 -50 -32q-35 -8 -76.5 -8t-141.5 7.5t-125 13.5l10 64h268z" />
    <glyph glyph-name="Scaron" unicode="&#x160;" horiz-adv-x="573" 
d="M295 930h72l53 -78l85 78h86l-135 -132h-80zM607 640l-245 9h-16q-49 0 -77.5 -17t-37.5 -78l-9 -58q-6 -36 -2.5 -49t6.5 -19.5t9.5 -10.5t11.5 -6.5t15 -3.5q15 -1 27.5 -1h14.5h130q45 0 76 -16.5t43 -42.5q19 -39 19 -70t-4 -49l-9 -68q-7 -45 -25.5 -77.5t-41 -49.5
t-54.5 -27q-80 -24 -249 -6q-77 9 -112 18l11 73q76 -10 247 -10q119 0 131 83l10 60q3 18 3 36t-7 32q-12 22 -61 22h-128q-158 0 -158 134q0 21 4 44l10 69q17 112 82 148q53 29 130 29q54 0 139 -8.5t128 -16.5z" />
    <glyph glyph-name="scaron" unicode="&#x161;" horiz-adv-x="508" 
d="M216 732h72l53 -78l85 78h86l-136 -131h-79zM340 76q49 0 57 49l8 46q2 8 2 18.5t-8 21t-36 10.5h-140q-74 0 -108 32q-24 24 -24 70q0 16 3 35l8 50q11 67 47.5 99.5t111.5 32.5q81 0 161.5 -7t103.5 -12l-11 -65h-255q-50 0 -63 -36q-2 -7 -4 -17l-7 -44q-6 -38 9 -46
q11 -6 24.5 -5.5t16.5 0.5h143q66 0 97 -38q24 -29 24 -70q0 -13 -2 -26l-9 -63q-8 -53 -34 -80q-26 -26 -50 -32q-35 -8 -76.5 -8t-141.5 7.5t-125 13.5l10 64h268z" />
    <glyph glyph-name="Tcommaaccent" unicode="&#x162;" horiz-adv-x="581" 
d="M173 -184h-53l7 43l53 15q20 8 29.5 27t14.5 52h75q-12 -78 -39 -107.5t-87 -29.5zM114 643l14 89h517l-14 -89h-216l-101 -643h-92l101 643h-209z" />
    <glyph glyph-name="tcommaaccent" unicode="&#x163;" horiz-adv-x="377" 
d="M117 -186h-53l7 43l53 15q29 12 39 52q3 11 5 27h75q-8 -52 -22 -81t-38.5 -42.5t-65.5 -13.5zM255 0q-121 0 -121 131q0 27 5 58l41 260h-96l10 62l99 21l43 148h72l-23 -148h145l-13 -83h-145l-40 -254q-12 -78 5 -96q10 -10 56 -22.5t47 -12.5l-9 -64h-76z" />
    <glyph glyph-name="Tcaron" unicode="&#x164;" horiz-adv-x="581" 
d="M290 928h72l54 -78l84 78h87l-136 -131h-79zM134 643l15 89h517l-15 -89h-215l-102 -643h-92l102 643h-210z" />
    <glyph glyph-name="tcaron" unicode="&#x165;" horiz-adv-x="405" 
d="M213 196q-6 -38 -6 -58t6 -31t13.5 -15t50 -15.5t44.5 -11.5l-10 -64h-75q-67 0 -99 45q-22 30 -22 85q0 26 5 59l41 259h-95l9 62l99 21l43 148h72l-23 -148h145l-13 -83h-145zM344 599l11 134l10 67h80l-10 -67l-32 -134h-59z" />
    <glyph glyph-name="Tbar" unicode="&#x166;" horiz-adv-x="584" 
d="M134 643l15 89h517l-15 -89h-215l-32 -202h114l-9 -57h-114l-61 -384h-92l61 384h-114l9 57h114l32 202h-210z" />
    <glyph glyph-name="tbar" unicode="&#x167;" horiz-adv-x="369" 
d="M258 1q-67 0 -99 45q-22 30 -22 85q0 26 6 59l11 75h-78l9 57h79l19 127h-95l10 62l99 21l42 148h73l-23 -148h145l-14 -83h-145l-19 -127h98l-9 -57h-99l-11 -69q-12 -78 5 -96q10 -10 33 -16q69 -19 71 -19l-10 -64h-76z" />
    <glyph glyph-name="Utilde" unicode="&#x168;" horiz-adv-x="655" 
d="M485.5 890q30.5 -16 37 -16.5t16 -0.5t45 14t45.5 21l14 -47q-7 -5 -23.5 -17t-25.5 -18t-24 -14q-54 -30 -110 3q-28 17 -45 17q-30 0 -50.5 -10t-31.5 -16t-18 -9l-15 45q52 41 80 53t51.5 11.5t54 -16.5zM215 305q-8 -59 -8 -81.5v-27.5q2 -80 66 -102q28 -10 73 -10
q94 0 142 49.5t67 171.5l67 427h93l-66 -432q-29 -180 -113 -247q-72 -58 -199 -58q-158 0 -201 101q-23 52 -23 107.5t9 105.5l67 423h93z" />
    <glyph glyph-name="utilde" unicode="&#x169;" horiz-adv-x="544" 
d="M385.5 689q30.5 -16 37 -16h16t45 13.5t44.5 21.5l15 -47q-7 -5 -23.5 -17t-26 -18t-23.5 -14q-54 -31 -110 3q-29 16 -45 16q-28 0 -45 -7.5t-33 -16t-22 -11.5l-16 45q53 41 81 53.5t51.5 11.5t54 -17zM165 165q-2 -15 -2 -35.5t15.5 -37t60 -16.5t80.5 11.5t100 42.5
l63 401h92l-84 -531h-69l-14 60q-3 -2 -26 -14.5t-44 -23.5q-63 -31 -136 -31t-106 49q-25 35 -25 86q0 19 3 40l58 365h92z" />
    <glyph glyph-name="Umacron" unicode="&#x16a;" horiz-adv-x="655" 
d="M317 797l11 67h292l-11 -67h-292zM215 305q-8 -59 -8 -81.5v-27.5q2 -80 66 -102q28 -10 73 -10q94 0 142 49.5t67 171.5l67 427h93l-66 -432q-29 -180 -113 -247q-72 -58 -199 -58q-158 0 -201 101q-23 52 -23 107.5t9 105.5l67 423h93z" />
    <glyph glyph-name="umacron" unicode="&#x16b;" horiz-adv-x="544" 
d="M217 596l10 68h292l-10 -68h-292zM165 165q-2 -15 -2 -35.5t15.5 -37t60 -16.5t80.5 11.5t100 42.5l63 401h92l-84 -531h-69l-14 60q-3 -2 -26 -14.5t-44 -23.5q-63 -31 -136 -31t-106 49q-25 35 -25 86q0 19 3 40l58 365h92z" />
    <glyph glyph-name="Ubreve" unicode="&#x16c;" horiz-adv-x="655" 
d="M416 911v-20t14 -29.5t39 -15.5h3q64 0 74 65h49q-15 -114 -126 -114q-44 0 -73 29t-29 72v13h49zM215 305q-8 -59 -8 -81.5v-27.5q2 -80 66 -102q28 -10 73 -10q94 0 142 49.5t67 171.5l67 427h93l-66 -432q-29 -180 -113 -247q-72 -58 -199 -58q-158 0 -201 101
q-23 52 -23 107.5t9 105.5l67 423h93z" />
    <glyph glyph-name="ubreve" unicode="&#x16d;" horiz-adv-x="544" 
d="M316 710q-1 -6 -1 -19.5t14 -29.5t40 -16h3q64 0 73 65h50q-15 -114 -126 -114q-44 0 -73 29t-29 73v12h49zM165 165q-2 -15 -2 -35.5t15.5 -37t60 -16.5t80.5 11.5t100 42.5l63 401h92l-84 -531h-69l-14 60q-3 -2 -26 -14.5t-44 -23.5q-63 -31 -136 -31t-106 49
q-25 35 -25 86q0 19 3 40l58 365h92z" />
    <glyph glyph-name="Uring" unicode="&#x16e;" horiz-adv-x="655" 
d="M488 1001q42 0 67.5 -28t25.5 -64q0 -49 -34 -80.5t-76 -31.5t-68 28t-26 64q0 48 34.5 80t76.5 32zM484 951q-21 0 -39 -16.5t-18 -37.5t13.5 -35t34.5 -14t37 15q19 16 19 37.5t-13 36t-34 14.5zM215 305q-8 -59 -8 -81.5v-27.5q2 -80 66 -102q28 -10 73 -10
q94 0 142 49.5t67 171.5l67 427h93l-66 -432q-29 -180 -113 -247q-72 -58 -199 -58q-158 0 -201 101q-23 52 -23 107.5t9 105.5l67 423h93z" />
    <glyph glyph-name="uring" unicode="&#x16f;" horiz-adv-x="544" 
d="M388 801q42 0 67.5 -28.5t25.5 -64.5q0 -33 -17 -59q-35 -53 -93 -53q-43 0 -68.5 28t-25.5 64q0 49 34.5 81t76.5 32zM383.5 750q-21.5 0 -39 -16.5t-17.5 -37.5t13 -35t34.5 -14t37.5 15q18 17 18 38t-12.5 35.5t-34 14.5zM165 165q-2 -15 -2 -35.5t15.5 -37t60 -16.5
t80.5 11.5t100 42.5l63 401h92l-84 -531h-69l-14 60q-3 -2 -26 -14.5t-44 -23.5q-63 -31 -136 -31t-106 49q-25 35 -25 86q0 19 3 40l58 365h92z" />
    <glyph glyph-name="Uhungarumlaut" unicode="&#x170;" horiz-adv-x="655" 
d="M355 797l124 135h102l-151 -135h-75zM496 797l124 135h102l-151 -135h-75zM215 305q-8 -59 -8 -81.5v-27.5q2 -80 66 -102q28 -10 73 -10q94 0 142 49.5t67 171.5l67 427h93l-66 -432q-29 -180 -113 -247q-72 -58 -199 -58q-158 0 -201 101q-23 52 -23 107.5t9 105.5
l67 423h93z" />
    <glyph glyph-name="uhungarumlaut" unicode="&#x171;" horiz-adv-x="544" 
d="M255 596l124 135h102l-151 -135h-75zM396 596l123 135h103l-151 -135h-75zM165 165q-2 -15 -2 -35.5t15.5 -37t60 -16.5t80.5 11.5t100 42.5l63 401h92l-84 -531h-69l-14 60q-3 -2 -26 -14.5t-44 -23.5q-63 -31 -136 -31t-106 49q-25 35 -25 86q0 19 3 40l58 365h92z" />
    <glyph glyph-name="Uogonek" unicode="&#x172;" horiz-adv-x="655" 
d="M221 -108q0 69 97 109h43q-70 -50 -70 -87q0 -31 47 -31h9l-11 -65q-12 -2 -24 -2q-40 0 -65.5 23.5t-25.5 52.5zM215 305l67 427h-93l-67 -423q-9 -50 -9 -105.5t23 -107.5q43 -101 201 -101q127 0 199 58q84 67 113 247l66 432h-93l-67 -427q-19 -122 -67 -171.5
t-142 -49.5q-45 0 -73 10q-64 22 -66 102v27.5t8 81.5z" />
    <glyph glyph-name="uogonek" unicode="&#x173;" horiz-adv-x="580" 
d="M338 -110q0 69 97 110h43q-70 -51 -70 -87q0 -32 47 -32q4 0 9 1l-11 -65q-12 -2 -24 -2q-40 0 -65.5 23t-25.5 52zM165 165q-2 -15 -2 -35.5t15.5 -37t60 -16.5t80.5 11.5t100 42.5l63 401h92l-84 -531h-69l-14 60q-3 -2 -26 -14.5t-44 -23.5q-63 -31 -136 -31t-106 49
q-25 35 -25 86q0 19 3 40l58 365h92z" />
    <glyph glyph-name="Wcircumflex" unicode="&#x174;" horiz-adv-x="1004" 
d="M472 797l136 131h80l81 -131h-72l-53 78l-85 -78h-87zM147 732h94l106 -592l300 592h102l-120 -238l57 -359l301 597h99l-371 -732h-97l-57 354l-181 -354h-100z" />
    <glyph glyph-name="wcircumflex" unicode="&#x175;" horiz-adv-x="806" 
d="M329 596l136 132h80l81 -132h-72l-53 78l-85 -78h-87zM546 529q6 -21 6 -46t-13 -55l-26 -57l50 -253l177 325q21 44 27 88h75q6 -22 6 -49.5t-17 -59.5l-235 -422h-95l-53 259l-134 -259h-104l-119 531h94l89 -418l170 327q22 44 28 89h74z" />
    <glyph glyph-name="Ycircumflex" unicode="&#x176;" horiz-adv-x="637" 
d="M295 797l136 131h80l81 -131h-72l-53 78l-86 -78h-86zM147 732h98l116 -372l250 372h108l-326 -481l-40 -251h-92l40 251z" />
    <glyph glyph-name="ycircumflex" unicode="&#x177;" horiz-adv-x="552" 
d="M204 596l135 132h80l81 -132h-72l-53 78l-85 -78h-86zM588 533q5 -19 5 -47t-18 -66l-208 -419q-64 -131 -128.5 -195.5t-142.5 -79.5v65q56 35 94 86.5t75 122.5q-35 0 -67 21q-40 26 -50 96l-57 414h96l55 -403q5 -31 39 -38q10 -2 17.5 -1.5l7.5 0.5l177 355
q17 36 25 89h80z" />
    <glyph glyph-name="Ydieresis" unicode="&#x178;" horiz-adv-x="637" 
d="M274.5 894q10.5 4 27 4t28 -13.5t11.5 -23.5q0 -34 -20 -51t-38 -17t-29 7q-24 15 -19 46q3 22 16 33t23.5 15zM511 883q18 15 40 15t33.5 -13.5t11.5 -23.5q0 -34 -20 -51t-38 -17t-29 7q-24 15 -20 41.5t22 41.5zM110 732h98l116 -372l251 372h107l-326 -481l-39 -251
h-92l39 251z" />
    <glyph glyph-name="Zacute" unicode="&#x179;" horiz-adv-x="562" 
d="M457 793l124 134h102l-151 -134h-75zM121 0l15 89l466 554h-379l14 89h496l-14 -89l-463 -554h376l-15 -89h-496z" />
    <glyph glyph-name="zacute" unicode="&#x17a;" horiz-adv-x="460" 
d="M327 592l123 135h103l-151 -135h-75zM83 1l11 86l328 358h-282l12 86h405l-12 -86l-321 -358h262l-13 -86h-390z" />
    <glyph glyph-name="Zdotaccent" unicode="&#x17b;" horiz-adv-x="562" 
d="M397 905h56q23 0 19 -25l-10 -60q-3 -23 -26 -23h-56q-10 0 -16 6.5t-5 16.5l10 60q3 25 28 25zM33 0l14 89l466 554h-379l15 89h496l-15 -89l-463 -554h376l-14 -89h-496z" />
    <glyph glyph-name="zdotaccent" unicode="&#x17c;" horiz-adv-x="460" 
d="M315 704h56q22 0 19 -25l-10 -60q-3 -23 -26 -23h-56q-11 0 -16.5 6.5t-4.5 16.5l10 60q3 25 28 25zM43 1l11 86l328 358h-282l12 86h405l-12 -86l-321 -358h262l-13 -86h-390z" />
    <glyph glyph-name="Zcaron" unicode="&#x17d;" horiz-adv-x="562" 
d="M280 928h72l53 -78l85 78h86l-135 -131h-80zM33 0l14 89l466 554h-379l15 89h496l-15 -89l-463 -554h376l-14 -89h-496z" />
    <glyph glyph-name="zcaron" unicode="&#x17e;" horiz-adv-x="460" 
d="M198 728h72l53 -78l85 78h86l-135 -132h-80zM43 1l11 86l328 358h-282l12 86h405l-12 -86l-321 -358h262l-13 -86h-390z" />
    <glyph glyph-name="florin" unicode="&#x192;" horiz-adv-x="464" 
d="M85 -120q68 0 99 149q5 25 11 59l53 303h-98l18 84h98l4 31q25 139 64 206q53 88 135 88q45 0 93 -22q5 -3 6 -3l-11 -59h-81q-35 0 -56 -34q-22 -36 -32 -72q-12 -49 -23 -104l-5 -32h134l-17 -83h-134l-54 -303q-32 -176 -78 -235q-45 -57 -120 -57q-28 0 -59.5 9.5
t-40.5 15.5l11 59h83z" />
    <glyph glyph-name="circumflex" unicode="&#x2c6;" horiz-adv-x="327" 
d="M62 531l135 131h80l81 -131h-72l-53 78l-85 -78h-86z" />
    <glyph glyph-name="caron" unicode="&#x2c7;" horiz-adv-x="376" 
d="M29 662h72l53 -78l85 78h86l-135 -131h-80z" />
    <glyph glyph-name="breve" unicode="&#x2d8;" horiz-adv-x="253" 
d="M107 644v-15t5 -22q13 -28 48 -28h3q64 0 74 65h49q-15 -114 -126 -114q-44 0 -73 29t-29 73v12h49z" />
    <glyph glyph-name="dotaccent" unicode="&#x2d9;" horiz-adv-x="131" 
d="M197 638q19 0 19 -20v-5l-10 -60q-3 -23 -26 -23h-56q-11 0 -17 6.5t-4 16.5l10 60q3 25 28 25h56z" />
    <glyph glyph-name="ring" unicode="&#x2da;" horiz-adv-x="292" 
d="M248 735q42 0 67.5 -28.5t25.5 -64.5q0 -49 -34 -80.5t-76 -31.5t-68 28t-26 64q0 49 34.5 81t76.5 32zM215 585q10 -4 25.5 -4t31.5 15q19 17 19 38t-13 35.5t-34 14.5t-39 -16.5t-18 -43.5t28 -39z" />
    <glyph glyph-name="ogonek" unicode="&#x2db;" horiz-adv-x="229" 
d="M146 -109q0 69 96 109h44q-70 -50 -70 -87q0 -31 47 -31h9l-11 -64q-13 -3 -24 -3q-41 0 -66 23.5t-25 52.5z" />
    <glyph glyph-name="tilde" unicode="&#x2dc;" horiz-adv-x="437" 
d="M317 624q30 -16 37 -16.5t16 -0.5t44.5 14t45.5 21l15 -47q-7 -5 -24 -17t-26 -18t-23 -14q-54 -30 -111 3q-28 17 -45 17q-27 0 -44.5 -7.5t-33.5 -16t-22 -11.5l-15 45q64 50 88.5 57.5t46 7t51.5 -16.5z" />
    <glyph glyph-name="hungarumlaut" unicode="&#x2dd;" horiz-adv-x="460" 
d="M151 531l124 135h102l-151 -135h-75zM292 531l124 135h102l-151 -135h-75z" />
    <glyph glyph-name="uni0338" unicode="&#x338;" horiz-adv-x="638" 
d="M356 732h164q44 0 76.5 -15t46.5 -39q24 -39 24 -83q0 -16 -4 -33l-63 -398q-14 -87 -62.5 -125.5t-133.5 -38.5h-164q-78 0 -120 42q-32 32 -32 89q0 18 3 39l63 397q26 165 202 165zM187 191q-4 -21 -4 -30.5t1 -13.5l339 493q-14 3 -25 3h-148q-92 0 -104 -83zM263 89
h145q87 0 101 83l59 372q3 16 3 30t-5 23l-346 -505q13 -3 43 -3z" />
    <glyph glyph-name="Omega" unicode="&#x3a9;" horiz-adv-x="773" 
d="M209 92q-96 75 -96 204q0 94 35 194q16 45 46 92t70 80.5t102 55t133 21.5t123 -19.5t83 -52.5q71 -78 71 -195q0 -42 -7 -90.5t-16 -82.5t-26 -74q-34 -77 -121 -135l121 -10l-13 -80h-234l15 92q118 72 151 161q19 50 29 111.5t10 96.5q0 189 -195 189
q-64 0 -115 -22.5t-83 -61.5q-62 -76 -79 -186q-11 -61 -11 -106t24 -87.5t82 -94.5l-15 -92h-226l13 82z" />
    <glyph glyph-name="pi" unicode="&#x3c0;" horiz-adv-x="640" 
d="M482 172q-4 -20 -4 -33.5t4 -27.5q8 -30 54 -31h98l-9 -54q-51 -31 -116.5 -31t-99.5 41q-24 29 -24 83q0 23 4 51l43 272h-169l-69 -442h-92l69 442h-83l15 89h554l-14 -89h-119z" />
    <glyph glyph-name="uni1E02" unicode="&#x1e02;" horiz-adv-x="597" 
d="M409 905h56q22 0 19 -25l-10 -60q-3 -23 -26 -23h-56q-11 0 -17 6.5t-4 16.5l10 60q3 25 28 25zM478 732q85 0 125 -43q41 -46 41 -113q0 -20 -1 -41q-9 -67 -41 -105t-80 -50q30 -5 55 -50q21 -36 21 -93q0 -18 -3 -37q-12 -98 -67 -149t-166 -51h-287l116 732h287z
M375 88q108 0 128 122q3 18 3 34t-5 37.5t-27 40.5t-59 19h-193l-40 -253h193zM427 427q105 0 123 110q3 18 3 33q0 36 -20.5 55t-69.5 19h-193l-34 -217h191z" />
    <glyph glyph-name="uni1E03" unicode="&#x1e03;" horiz-adv-x="554" 
d="M223 961h56q23 0 19 -25l-10 -60q-3 -23 -26 -23h-56q-10 0 -16 6t-5 17l10 60q3 25 28 25zM412 539q146 0 146 -179q0 -80 -26 -183q-22 -89 -63 -133q-47 -50 -125 -50q-52 0 -110 22.5t-79 41.5l-30 -58h-70l124 785h90l-45 -285q46 18 99 28.5t89 10.5zM466 371
q0 84 -72 84q-89 0 -179 -24l-50 -308q89 -43 170 -43q50 0 79 45t40.5 125t11.5 121z" />
    <glyph glyph-name="uni1E0A" unicode="&#x1e0a;" horiz-adv-x="664" 
d="M412 903h56q22 0 19 -25l-10 -60q-3 -23 -26 -23h-56q-11 0 -17 6t-4 17l10 60q3 25 28 25zM470 732q128 0 180 -104q31 -64 31 -164q0 -50 -10 -106q-29 -174 -104.5 -266t-209.5 -92h-282l116 731q0 1 279 1zM366 90q57 0 103 39q84 71 111 235q10 63 10 119
q0 161 -138 161h-183l-88 -554h185z" />
    <glyph glyph-name="uni1E0B" unicode="&#x1e0b;" horiz-adv-x="551" 
d="M631 954q19 0 19 -20v-5l-10 -60q-3 -23 -26 -23h-56q-11 0 -17 6t-4 17l10 60q3 25 28 25h56zM253 533.5q24 5.5 49.5 5.5t56.5 -4q72 -10 126 -35l46 285h90l-125 -785h-70l-12 58q-30 -21 -85.5 -42.5t-102.5 -21.5t-81 24.5t-48 64.5q-18 54 -18 102.5t6 80.5t11 56
t12.5 49.5t17.5 46t22 40t27.5 34t34.5 25.5t43 16.5zM171 189q0 -109 72 -109q82 0 182 43l49 308q-83 24 -173 24q-30 0 -51 -14q-48 -33 -72 -177q-7 -42 -7 -75z" />
    <glyph glyph-name="uni1E1E" unicode="&#x1e1e;" horiz-adv-x="566" 
d="M422 905h56q23 0 19 -25l-10 -60q-3 -23 -26 -23h-56q-10 0 -16 6.5t-5 16.5l10 60q3 25 28 25zM315 732q5 0 155 -7t168 -9l-12 -74h-306q-45 0 -57 -35q-3 -9 -4 -21l-28 -176l315 -10l-11 -75l-319 -10l-50 -315h-92l94 594q22 138 147 138z" />
    <glyph glyph-name="uni1E1F" unicode="&#x1e1f;" horiz-adv-x="403" 
d="M382 953h56q22 0 19 -25l-10 -60q-3 -23 -26 -23h-56q-11 0 -17 6.5t-4 16.5l10 60q3 25 28 25zM385 785q28 0 64 -8t56 -16l-9 -58h-106q-48 0 -64 -26t-29 -110l-6 -36h155l-13 -83h-156l-74 -448h-92l73 448h-95l11 64l99 19l8 45q18 117 55.5 163t122.5 46z" />
    <glyph glyph-name="uni1E40" unicode="&#x1e40;" horiz-adv-x="809" 
d="M533 905h56q23 0 19 -25l-10 -60q-3 -23 -26 -23h-56q-10 0 -16 6.5t-5 16.5l10 60q4 25 28 25zM65 0l169 732h122l86 -579l264 579h127l-57 -732h-91l47 569l-261 -569h-99l-84 568l-131 -568h-92z" />
    <glyph glyph-name="uni1E41" unicode="&#x1e41;" horiz-adv-x="891" 
d="M540 705h56q23 0 19 -25l-10 -60q-3 -23 -26 -23h-56q-10 0 -16 6.5t-5 16.5l10 60q4 25 28 25zM496.5 514q35.5 -23 46.5 -59q116 82 225 82q70 0 109 -49q29 -37 29 -90q0 -17 -3 -36l-58 -362h-92l58 363q8 55 -29 79q-16 11 -46.5 11t-60.5 -5q-56 -9 -118 -47
q0 -1 -3 -20.5t-3 -20.5l-57 -360h-92l57 363q2 9 2 21.5t-7 30t-24 28t-45.5 10.5t-59 -7t-49 -15.5t-65.5 -30.5l-63 -400h-92l84 531h69l13 -62q7 3 30 16t31 17.5t28 13.5t33 12q38 9 77.5 9t75 -23z" />
    <glyph glyph-name="uni1E56" unicode="&#x1e56;" horiz-adv-x="595" 
d="M405 905h56q23 0 19 -25l-10 -60q-3 -23 -26 -23h-56q-10 0 -16 6.5t-5 16.5l10 60q4 25 28 25zM492 732q44 0 72 -14.5t43 -31.5q38 -45 38 -118q0 -26 -5 -62t-14.5 -69t-21 -55.5t-26 -39.5t-29.5 -26t-31.5 -15.5t-32.5 -7.5t-32 -2.5t-37.5 -0.5t-110.5 8.5t-93 9.5
l-50 -308h-92l116 732h306zM432 378q71 0 98 66q11 28 18 72q4 40 4 56.5t-6.5 30t-13 22t-17.5 12.5q-18 7 -40 7h-211l-42 -266h210z" />
    <glyph glyph-name="uni1E57" unicode="&#x1e57;" horiz-adv-x="558" 
d="M349 706h56q23 0 19 -25l-10 -60q-3 -23 -26 -23h-56q-10 0 -16 6t-4 17l9 60q4 25 28 25zM404 534q158 0 158 -200q0 -141 -53 -237q-58 -105 -174 -105q-40 0 -92.5 9.5t-89.5 27.5l-49 -299h-91l132 788q112 16 259 16zM366.5 84.5q23.5 10.5 41.5 28.5q37 37 56 152
q7 42 7 74q0 112 -81 112h-166l-59 -352q67 -25 122.5 -25t79 10.5z" />
    <glyph glyph-name="uni1E60" unicode="&#x1e60;" horiz-adv-x="573" 
d="M400 915h56q23 0 19 -25l-10 -60q-3 -23 -26 -23h-56q-10 0 -16 6t-5 17l10 60q4 25 28 25zM607 640l-245 9h-16q-49 0 -77.5 -17t-37.5 -78l-9 -58q-6 -36 -2.5 -49t6.5 -19.5t9.5 -10.5t11.5 -6.5t15 -3.5q15 -1 27.5 -1h14.5h130q45 0 76 -16.5t43 -42.5
q19 -39 19 -70t-4 -49l-9 -68q-7 -45 -25.5 -77.5t-41 -49.5t-54.5 -27q-80 -24 -249 -6q-77 9 -112 18l11 73q76 -10 247 -10q119 0 131 83l10 60q3 18 3 36t-7 32q-12 22 -61 22h-128q-158 0 -158 134q0 21 4 44l10 69q17 112 82 148q53 29 130 29q54 0 139 -8.5
t128 -16.5z" />
    <glyph glyph-name="uni1E61" unicode="&#x1e61;" horiz-adv-x="508" 
d="M325 708h56q23 0 19 -25l-10 -60q-3 -23 -26 -23h-56q-10 0 -16 6.5t-5 16.5l10 60q4 25 28 25zM340 76q49 0 57 49l8 46q2 8 2 18.5t-8 21t-36 10.5h-140q-74 0 -108 32q-24 24 -24 70q0 16 3 35l8 50q11 67 47.5 99.5t111.5 32.5q81 0 161.5 -7t103.5 -12l-11 -65h-255
q-50 0 -63 -36q-2 -7 -4 -17l-7 -44q-6 -38 9 -46q11 -6 24.5 -5.5t16.5 0.5h143q66 0 97 -38q24 -29 24 -70q0 -13 -2 -26l-9 -63q-8 -53 -34 -80q-26 -26 -50 -32q-35 -8 -76.5 -8t-141.5 7.5t-125 13.5l10 64h268z" />
    <glyph glyph-name="uni1E6A" unicode="&#x1e6a;" horiz-adv-x="581" 
d="M407 905h56q23 0 19 -25l-9 -60q-3 -23 -26 -23h-56q-11 0 -17 6.5t-4 16.5l9 60q4 25 28 25zM134 643l15 89h517l-15 -89h-215l-102 -643h-92l102 643h-210z" />
    <glyph glyph-name="uni1E6B" unicode="&#x1e6b;" horiz-adv-x="377" 
d="M277 848h56q22 0 19 -25l-10 -60q-3 -23 -26 -23h-56q-11 0 -17 6.5t-4 16.5l10 60q3 25 28 25zM259 0q-121 0 -121 131q0 27 5 58l40 260h-95l10 62l99 21l42 148h73l-23 -148h145l-14 -83h-145l-40 -254q-11 -78 6 -96q9 -10 55 -22.5t48 -12.5l-9 -64h-76z" />
    <glyph glyph-name="Wgrave" unicode="&#x1e80;" horiz-adv-x="1004" 
d="M471 932h95l99 -135h-75zM147 732h94l106 -592l300 592h102l-120 -238l57 -359l301 597h99l-371 -732h-97l-57 354l-181 -354h-100z" />
    <glyph glyph-name="wgrave" unicode="&#x1e81;" horiz-adv-x="806" 
d="M324 730h95l98 -134h-75zM546 529q6 -21 6 -46t-13 -55l-26 -57l50 -253l177 325q21 44 27 88h75q6 -22 6 -49.5t-17 -59.5l-235 -422h-95l-53 259l-134 -259h-104l-119 531h94l89 -418l170 327q22 44 28 89h74z" />
    <glyph glyph-name="Wacute" unicode="&#x1e82;" horiz-adv-x="1004" 
d="M590 797l123 135h103l-151 -135h-75zM147 732h94l106 -592l300 592h102l-120 -238l57 -359l301 597h99l-371 -732h-97l-57 354l-181 -354h-100z" />
    <glyph glyph-name="wacute" unicode="&#x1e83;" horiz-adv-x="806" 
d="M444 595l124 135h102l-151 -135h-75zM546 529q6 -21 6 -46t-13 -55l-26 -57l50 -253l177 325q21 44 27 88h75q6 -22 6 -49.5t-17 -59.5l-235 -422h-95l-53 259l-134 -259h-104l-119 531h94l89 -418l170 327q22 44 28 89h74z" />
    <glyph glyph-name="Wdieresis" unicode="&#x1e84;" horiz-adv-x="1004" 
d="M518 902q22 0 33.5 -13.5t11.5 -23.5q0 -33 -20 -50.5t-41.5 -17.5t-33.5 14t-12 25q0 33 20 49.5t42 16.5zM745.5 895.5q13.5 6.5 31.5 6.5t29.5 -13.5t11.5 -23.5q0 -33 -20 -50.5t-41.5 -17.5t-33.5 14t-12 24.5t1.5 20t10.5 21.5t22.5 18.5zM147 732h94l106 -592
l300 592h102l-120 -238l57 -359l301 597h99l-371 -732h-97l-57 354l-181 -354h-100z" />
    <glyph glyph-name="wdieresis" unicode="&#x1e85;" horiz-adv-x="806" 
d="M370 702q22 0 33.5 -14t11.5 -24q0 -33 -19.5 -50.5t-41.5 -17.5t-34 14t-12 25q0 33 20 50t42 17zM625 702q22 0 33.5 -14t11.5 -24q0 -33 -19.5 -50.5t-41.5 -17.5t-34 14t-12 25q0 33 20 50t42 17zM546 529q6 -21 6 -46t-13 -55l-26 -57l50 -253l177 325q21 44 27 88
h75q6 -22 6 -49.5t-17 -59.5l-235 -422h-95l-53 259l-134 -259h-104l-119 531h94l89 -418l170 327q22 44 28 89h74z" />
    <glyph glyph-name="Ygrave" unicode="&#x1ef2;" horiz-adv-x="637" 
d="M287 932h96l98 -135h-75zM147 732h98l116 -372l250 372h108l-326 -481l-40 -251h-92l40 251z" />
    <glyph glyph-name="ygrave" unicode="&#x1ef3;" horiz-adv-x="552" 
d="M206 730h96l98 -134h-75zM588 533q5 -19 5 -47t-18 -66l-208 -419q-64 -131 -128.5 -195.5t-142.5 -79.5v65q56 35 94 86.5t75 122.5q-35 0 -67 21q-40 26 -50 96l-57 414h96l55 -403q5 -31 39 -38q10 -2 17.5 -1.5l7.5 0.5l177 355q17 36 25 89h80z" />
    <glyph glyph-name="endash" unicode="&#x2013;" horiz-adv-x="456" 
d="M60 244l14 87h473l-14 -87h-473z" />
    <glyph glyph-name="emdash" unicode="&#x2014;" horiz-adv-x="736" 
d="M60 246l14 87h696l-14 -87h-696z" />
    <glyph glyph-name="quoteleft" unicode="&#x2018;" horiz-adv-x="266" 
d="M230 723q18 7 31.5 9t20 2t11.5 -1l11 -1l-7 -41h-1q-32 0 -38 -34l-4 -26h12q23 0 23 -20v-6l-11 -68q-4 -29 -32 -29h-64q-22 0 -22 20q0 4 1 9l16 109q5 30 20 50t33 27z" />
    <glyph glyph-name="quoteright" unicode="&#x2019;" horiz-adv-x="266" 
d="M199 609q-27 0 -22 28l11 67q4 30 31 30h65q22 0 22 -21q0 -4 -1 -9l-17 -108q-5 -30 -20 -50t-32 -27q-29 -12 -44 -12t-19 1l-11 1l7 42q15 -1 24 6t11 12.5t3 14.5l4 25h-12z" />
    <glyph glyph-name="quotesinglbase" unicode="&#x201a;" horiz-adv-x="266" 
d="M101 -1q-11 0 -17.5 7t-4.5 21l11 67q4 30 32 30h64q22 0 22 -21q0 -4 -1 -9l-17 -108q-9 -58 -57 -80q-20 -9 -39 -9t-30 2l7 41q32 -1 38 34l4 25h-12z" />
    <glyph glyph-name="quotedblleft" unicode="&#x201c;" horiz-adv-x="416" 
d="M222.5 722.5q17.5 6.5 31.5 8.5t20.5 2h10.5l12 -2l-6 -40h-2q-32 0 -38 -34l-3 -26h12q23 0 23 -20q0 -3 -1 -7l-10 -67q-5 -29 -33 -29h-64q-22 0 -22 20q0 4 1 9l17 108q5 31 19.5 51t32 26.5zM387.5 722.5q17.5 6.5 31 8.5t20.5 2h11l11 -2l-6 -40h-1q-32 0 -38 -34
l-4 -26h12q23 0 23 -20v-7l-10 -67q-5 -29 -33 -29h-64q-22 0 -22 20q0 4 1 9l17 108q4 31 19 51t32.5 26.5z" />
    <glyph glyph-name="quotedblright" unicode="&#x201d;" horiz-adv-x="417" 
d="M192 609q-27 0 -23 28l11 67q5 30 32 30h64q23 0 23 -21q0 -4 -1 -9l-18 -108q-5 -30 -19.5 -50.5t-32.5 -27.5q-28 -11 -43 -11h-19l-11 2l6 41q15 0 24 6.5t11 12.5t4 15l4 25h-12zM356 609q-11 0 -17.5 7t-4.5 21l11 67q4 29 32 29h64q22 0 22 -20q0 -4 -1 -9
l-17 -108q-5 -30 -19.5 -50.5t-32.5 -27.5q-29 -11 -43.5 -11h-19.5l-11 2l7 41q33 0 38 34l4 25h-12z" />
    <glyph glyph-name="quotedblbase" unicode="&#x201e;" horiz-adv-x="416" 
d="M94 0q-12 0 -18.5 7t-4.5 21l12 67q4 29 31 29h64q23 0 23 -20q0 -4 -1 -9l-17 -108q-5 -31 -20 -51t-32 -27q-29 -11 -44 -11h-19l-11 2l6 40q33 0 39 35l4 25h-12zM259 0q-12 0 -18.5 7t-4.5 21l11 67q5 29 32 29h64q23 0 23 -20q0 -4 -1 -9l-18 -108q-5 -31 -19.5 -51
t-32.5 -27q-28 -11 -43 -11h-19l-12 2l7 40q33 0 39 35l4 25h-12z" />
    <glyph glyph-name="dagger" unicode="&#x2020;" horiz-adv-x="479" 
d="M111 479l11 73l135 10l42 208h79l-24 -208l130 -10l-11 -73l-134 -11l-96 -540h-79l78 540z" />
    <glyph glyph-name="daggerdbl" unicode="&#x2021;" horiz-adv-x="449" 
d="M94 166l11 73l137 11l33 218l-131 11l11 73l135 10l42 208h79l-24 -208l130 -10l-11 -73l-134 -11l-38 -218l133 -11l-11 -73l-140 -11l-39 -227h-80l32 227z" />
    <glyph glyph-name="bullet" unicode="&#x2022;" horiz-adv-x="309" 
d="M160 304q-28 0 -28 25q0 3 1 7l13 90q2 16 12.5 25.5t26.5 9.5h85q29 0 29 -27v-8l-14 -90q-5 -32 -41 -32h-84z" />
    <glyph glyph-name="ellipsis" unicode="&#x2026;" horiz-adv-x="769" 
d="M181 114h62q21 0 21 -19q0 -3 -1 -6l-10 -66q-4 -23 -28 -23h-62q-11 0 -16.5 6.5t-4.5 16.5l10 66q5 25 29 25zM453 114h62q21 0 21 -19q0 -3 -1 -6l-10 -66q-4 -23 -28 -23h-62q-11 0 -16.5 6.5t-4.5 16.5l10 66q5 25 29 25zM725 114h62q21 0 21 -19q0 -3 -1 -6
l-10 -66q-4 -23 -28 -23h-62q-11 0 -16.5 6.5t-4.5 16.5l10 66q5 25 29 25z" />
    <glyph glyph-name="perthousand" unicode="&#x2030;" horiz-adv-x="1342" 
d="M252 732h101q66 0 93 -31q18 -22 18 -63q0 -16 -3 -35l-20 -130q-11 -70 -42.5 -97t-107.5 -27h-101q-60 0 -85.5 29.5t-25.5 70.5q0 14 2 29l20 130q11 67 42 95.5t109 28.5zM156 480q-3 -11 -3 -20t3 -18q7 -19 49 -19h94q37 0 50 11.5t19 45.5l19 121q2 15 2 27.5
t-6.5 21t-44.5 8.5h-94q-38 0 -51 -11.5t-18 -45.5zM188 0l556 732h79l-555 -732h-80zM723 383h101q88 0 106 -55q6 -16 6 -35t-3 -38l-21 -130q-8 -48 -23 -74q-30 -51 -128 -51h-101q-60 0 -85 29.5t-25 70.5q0 14 2 29l21 130q10 67 41 95.5t109 28.5zM627 131
q-3 -11 -3 -19.5t3 -18.5q6 -19 49 -19h93q38 0 51 11.5t19 45.5l19 121q2 15 2 27.5t-7 21t-45 8.5h-93q-38 0 -51 -11.5t-18 -45.5zM1145 383h101q88 0 106 -55q5 -16 5 -35t-3 -38l-20 -130q-11 -71 -42.5 -98t-108.5 -27h-101q-60 0 -85 29.5t-25 70.5q0 14 2 29l20 130
q11 67 42 95.5t109 28.5zM1049 131q-3 -11 -3 -19.5t3 -18.5q6 -19 49 -19h93q48 0 60 23q6 11 10 34l19 121q2 15 2 27.5t-7 21t-45 8.5h-93q-48 0 -60 -22q-6 -11 -9 -35z" />
    <glyph glyph-name="guilsinglleft" unicode="&#x2039;" horiz-adv-x="297" 
d="M33 354l238 203l51 -60l-174 -149l125 -147l-62 -55z" />
    <glyph glyph-name="guilsinglright" unicode="&#x203a;" horiz-adv-x="359" 
d="M103 207l174 149l-125 147l63 54l177 -207l-238 -204z" />
    <glyph glyph-name="fraction" unicode="&#x2044;" horiz-adv-x="257" 
d="M-84 0l467 738h75l-467 -738h-75z" />
    <glyph glyph-name="zerosuperior" unicode="&#x2070;" horiz-adv-x="446" 
d="M259 832h118q58 0 80 -26.5t22 -61.5q0 -12 -2 -25l-40 -251q-10 -66 -41.5 -89.5t-90.5 -23.5h-117q-42 0 -75 21q-32 20 -32 68q0 11 2 24l40 250q17 114 136 114zM159 477q-1 -11 -1 -23t7.5 -19.5t41.5 -7.5h97q30 0 43 11.5t17 38.5l38 233q2 12 2 18.5v13.5
q-2 17 -46 17h-98q-32 0 -45.5 -12t-17.5 -37z" />
    <glyph glyph-name="foursuperior" unicode="&#x2074;" horiz-adv-x="468" 
d="M112 500l251 332h85l-213 -287h148l18 116l35 49h47l-27 -165h56l-10 -61l-58 -14l-17 -114h-75l19 114h-241z" />
    <glyph glyph-name="fivesuperior" unicode="&#x2075;" horiz-adv-x="410" 
d="M201 635q24 20 91 20q11 0 28.5 -1t21.5 -1q50 -1 71.5 -31.5t21.5 -67.5q0 -11 -2 -24l-10 -66q-10 -64 -42.5 -88.5t-85.5 -24.5h-6.5t-29 0.5t-32 0.5t-26.5 0.5t-29.5 1.5t-27.5 2q-27 3 -66 10l9 58h206q50 0 57 52l8 49q0 12 1.5 24.5t-8.5 22.5t-32 10h-99
q-41 0 -49 -45h-66l62 295h299l-11 -73h-227z" />
    <glyph glyph-name="sixsuperior" unicode="&#x2076;" horiz-adv-x="405" 
d="M179 626q103 14 161.5 14t79.5 -30t21 -60q0 -9 -1 -17l-11 -73q-9 -55 -40 -79.5t-88 -24.5h-105q-53 0 -84 52q-19 33 -19 86.5t10 118.5t26.5 112.5t37.5 70.5q37 40 83 41q21 1 80 1t139 -13l-9 -59h-197q-30 0 -46 -26q-19 -28 -25 -51q-8 -32 -13 -63zM165 506
q0 -78 45 -78h95q31 0 43 20q6 10 9 27l9 55q1 7 1 17q0 23 -39 23h-158q-5 -37 -5 -64z" />
    <glyph glyph-name="sevensuperior" unicode="&#x2077;" horiz-adv-x="414" 
d="M120 761l12 73h327l15 -36l-253 -442h-83l233 405h-251z" />
    <glyph glyph-name="eightsuperior" unicode="&#x2078;" horiz-adv-x="410" 
d="M199 588q-46 24 -46 77q0 8 2 16l7 41q10 65 45 90t92 25h114q64 0 86 -55q7 -18 7 -34.5t-2 -29.5l-6 -38q-4 -30 -23.5 -50t-41.5 -24q40 -14 40 -73q0 -9 -1 -17l-9 -57q-10 -64 -40.5 -84.5t-86.5 -20.5h-114q-61 0 -82.5 28.5t-21.5 61.5q0 9 2 18l9 55q9 55 70 71z
M196 468q-1 -7 -1 -16.5t7.5 -17.5t39.5 -8h96q46 0 52 42l6 46q1 7 1 13q0 34 -36 34h-104q-24 0 -37 -10.5t-17 -36.5zM229 669q0 -37 39 -37h100q29 0 40 14t15 36l5 30q2 12 2 24t-7.5 21t-34.5 9h-92q-30 0 -43.5 -11.5t-17.5 -42.5l-5 -30q-1 -7 -1 -13z" />
    <glyph glyph-name="ninesuperior" unicode="&#x2079;" horiz-adv-x="454" 
d="M407 567q-103 -14 -161.5 -14t-79.5 30.5t-21 61.5q0 8 1 17l11 70q8 56 39 81t87 25h1h107q53 0 83 -53q19 -34 19 -87.5t-10 -119.5t-26.5 -113t-37.5 -70q-37 -39 -84 -40q-28 -1 -53 -1q-106 0 -166 13l9 59h197q30 0 47 26q18 28 24 52q8 32 14 63zM221 665
q-1 -7 -1 -17q0 -24 38 -24h158q6 37 6 64q0 78 -46 78h-95q-24 0 -36 -11t-16 -36z" />
    <glyph glyph-name="zeroinferior" unicode="&#x2080;" horiz-adv-x="457" 
d="M278 276h118q58 0 80 -26.5t22 -61.5q0 -12 -2 -25l-40 -251q-10 -66 -41.5 -89.5t-90.5 -23.5h-117q-42 0 -76 21q-31 20 -31 68q0 11 2 24l39 250q18 114 137 114zM178 -79q-1 -11 -1 -23t7.5 -19.5t41.5 -7.5h96q31 0 44 11.5t17 38.5l38 233q2 12 2 18.5t-1 13.5
q-2 17 -45 17h-98q-32 0 -45.5 -12t-17.5 -37z" />
    <glyph glyph-name="oneinferior" unicode="&#x2081;" horiz-adv-x="286" 
d="M40 163l8 51q30 0 64 16q53 25 74 49h72l-76 -479h-74l63 394q-16 -12 -51 -21.5t-80 -9.5z" />
    <glyph glyph-name="twoinferior" unicode="&#x2082;" horiz-adv-x="432" 
d="M320 96q13 23 15.5 39t2.5 32t-12 30t-54 14h-168q-2 0 6 43l3 14q120 16 188 16q43 0 72 -26q44 -38 44 -95q0 -56 -38 -111.5t-71 -84.5t-73 -59.5t-45 -35.5h181l-12 -72h-317l10 68q7 5 37.5 25t49.5 33.5t50 37t52.5 43t43.5 43t35 46.5z" />
    <glyph glyph-name="threeinferior" unicode="&#x2083;" horiz-adv-x="388" 
d="M189 -204h-37h-12h-20.5t-22.5 0.5t-19.5 1.5t-20.5 2.5t-18 3.5q-18 3 -38 10l9 53l173 1q70 0 79 56l4 20q1 7 1 14q0 46 -59 48l-136 5l10 59l138 5q69 3 77 58l3 20q1 8 1 20.5t-11.5 23t-48.5 10.5h-181l8 53q56 19 147 19h55q56 -1 81 -32.5t25 -67.5q0 -10 -1 -20
l-6 -34q-6 -35 -23 -60t-40 -32q35 -21 35 -72q0 -10 -1 -21l-4 -26q-9 -59 -42.5 -88.5t-101.5 -29.5h-3z" />
    <glyph glyph-name="fourinferior" unicode="&#x2084;" horiz-adv-x="429" 
d="M2 -56l251 332h85l-212 -287h147l19 116l35 49h46l-26 -165h55l-9 -61l-58 -14l-18 -114h-74l19 114h-241z" />
    <glyph glyph-name="fiveinferior" unicode="&#x2085;" horiz-adv-x="409" 
d="M129 79q24 20 91 20q11 0 28.5 -1t21.5 -1q50 -1 71.5 -31.5t21.5 -67.5q0 -11 -2 -24l-10 -66q-10 -64 -42.5 -88.5t-85.5 -24.5h-6.5t-29 0.5t-32 0.5t-26.5 0.5t-29.5 1.5t-27.5 2q-27 3 -66 10l9 58h206q50 0 57 52l8 49q0 12 1.5 24.5t-8.5 22.5t-32 10h-99
q-41 0 -49 -45h-66l62 295h299l-11 -73h-227z" />
    <glyph glyph-name="sixinferior" unicode="&#x2086;" horiz-adv-x="404" 
d="M107 70q103 14 161.5 14t79.5 -30t21 -60q0 -9 -1 -17l-11 -73q-9 -55 -40 -79.5t-88 -24.5h-105q-53 0 -84 52q-19 33 -19 86.5t10 118.5t26.5 112.5t37.5 70.5q37 40 83 41q24 1 85.5 1t133.5 -13l-9 -59h-197q-36 0 -55 -39q-16 -32 -21 -58.5t-8 -42.5zM93 -50
q0 -78 45 -78h95q23 0 35.5 11t16.5 36l9 55v13t-0.5 10t-5.5 10q-10 7 -32 7h-158q-5 -37 -5 -64z" />
    <glyph glyph-name="seveninferior" unicode="&#x2087;" horiz-adv-x="413" 
d="M48 205l12 73h327l15 -36l-253 -442h-83l233 405h-251z" />
    <glyph glyph-name="eightinferior" unicode="&#x2088;" horiz-adv-x="411" 
d="M127 32q-46 24 -46 77q0 8 2 16l7 41q7 46 22 64.5t26.5 27.5t25.5 13q28 10 63 10h114q46 0 69.5 -28t23.5 -65q0 -12 -2 -26l-6 -38q-4 -30 -23.5 -50t-41.5 -24q40 -14 40 -73q0 -9 -1 -17l-9 -57q-10 -64 -40.5 -84.5t-86.5 -20.5h-114q-61 0 -82.5 28.5t-21.5 61.5
q0 9 2 18l9 55q9 55 70 71zM124 -88q-1 -7 -1 -16.5t7.5 -17.5t39.5 -8h96q46 0 52 42l6 46q1 7 1 13q0 34 -36 34h-104q-24 0 -37 -10.5t-17 -36.5zM157 113q0 -37 39 -37h100q29 0 40 14t15 36l5 30q2 12 2 24t-7.5 21t-34.5 9h-92q-30 0 -43.5 -11.5t-17.5 -42.5l-5 -30
q-1 -7 -1 -13z" />
    <glyph glyph-name="nineinferior" unicode="&#x2089;" horiz-adv-x="453" 
d="M335 11q-103 -14 -161.5 -14t-79.5 30.5t-21 61.5q0 8 1 17l11 70q8 56 39 81t87 25h1h107q53 0 83 -53q19 -34 19 -87.5t-10 -119.5t-26.5 -113t-37.5 -70q-37 -39 -84 -40q-30 -1 -57 -1q-108 0 -162 13l9 59h197q30 0 47 26q18 28 24 52q8 32 14 63zM149 109
q-1 -7 -1 -17q0 -24 38 -24h158q6 37 6 64q0 78 -46 78h-95q-24 0 -36 -11t-16 -36z" />
    <glyph glyph-name="Euro" unicode="&#x20ac;" horiz-adv-x="714" 
d="M375 728.5q41 11.5 85.5 11.5t121 -10t128.5 -22l-11 -70q-157 14 -219 14t-93 -10t-49 -25t-30 -42q-18 -37 -30 -103l233 -8l-8 -52l-235 -6l-15 -92l232 -8l-8 -52q-139 -3 -202 -6l-33 -2q-5 -27 -5 -43.5t2.5 -36t12 -38t28.5 -29.5q34 -19 83 -19q91 0 213 14l41 4
l-11 -68q-120 -36 -259 -36q-63 0 -105 20q-47 23 -65 53q-32 51 -32 93t5 86l-84 8l8 52l87 8l15 92l-84 8l8 48l86 10q0 1 2 14.5t5 28.5t12 45.5t20.5 51.5t33 47t48.5 42t68 27.5z" />
    <glyph glyph-name="afii61289" unicode="&#x2113;" horiz-adv-x="406" 
d="M237 0q-124 0 -124 137q0 23 3 50l5 41q-14 -9 -35 -20l-19 42q29 21 66 56l50 314q9 58 47 88.5t92 30.5q68 0 100 -44q21 -31 21 -75q0 -88 -67 -177.5t-154 -154.5l-12 -90q-5 -55 -5 -66.5t7 -23t17 -17t55.5 -16t47.5 -10.5l-11 -65h-84zM356 610q0 9 -2 17
q-1 16 -19 25q-9 4 -18 4t-19 -5q-19 -9 -23 -35l-35 -214q116 128 116 208z" />
    <glyph glyph-name="afii61352" unicode="&#x2116;" horiz-adv-x="1073" 
d="M873 609q-8 -54 -8 -81.5t2 -41t10.5 -21.5t16.5 -9.5t23 -1.5h48q33 0 48 12q35 27 41 124q2 33 -3 43t-9 14.5t-12 6.5q-18 6 -208 6q-48 0 -76 -22.5t-36 -73.5l-76 -478q-7 -40 -37 -64q-32 -26 -66.5 -26t-64 20.5t-37.5 61.5l-138 562q-2 11 -17.5 8t-17.5 -15
l-100 -633h-89l100 643q5 33 27 57q34 38 91 38q39 0 62.5 -20.5t29.5 -50.5l138 -568q3 -13 16 -11t15 14q49 315 73 466q26 166 194 167l205 -1q71 0 96 -44q15 -27 15 -64.5t-5 -70.5t-9.5 -53t-12.5 -41.5t-19 -34.5t-28 -24q-30 -21 -92 -21h-60q-36 0 -59 11
q-54 26 -54 113q0 43 9 104h74z" />
    <glyph glyph-name="trademark" unicode="&#x2122;" horiz-adv-x="634" 
d="M44 664l11 68h265l-11 -68h-96l-44 -281h-72l45 281h-98zM298 383l85 349h68l48 -230l108 230h77l-21 -349h-71l14 197l-91 -197h-60l-39 198l-46 -198h-72z" />
    <glyph glyph-name="estimated" unicode="&#x212e;" horiz-adv-x="708" 
d="M389 0q-138 0 -219.5 75.5t-81.5 189.5t84 193q43 38 94.5 56.5t109.5 18.5t94 -7q69 -14 127 -59q87 -67 93 -209h-479h-3h-4q-5 -1 -5 -11v-133q0 -23 52 -57q24 -15 61 -25.5t75.5 -10.5t75.5 11q72 22 117 73h56q-58 -61 -114 -83t-133 -22zM574 274q4 0 4 8v133
q0 32 -63 65.5t-127 33.5q-38 0 -74.5 -11t-60.5 -26.5t-39 -31t-15 -24.5v-137q0 -6 2.5 -7.5t6.5 -1.5h357z" />
    <glyph glyph-name="partialdiff" unicode="&#x2202;" horiz-adv-x="636" 
d="M379 465q100 0 157 -57q4 41 4 70q0 86 -23.5 118t-52 43.5t-71.5 11.5q-97 0 -188 -51l-13 62q49 29 72 41.5t63.5 24.5t82.5 12q124 0 182 -99q41 -69 41 -169q0 -102 -36 -216q-60 -188 -192 -242q-47 -19 -101 -19q-104 0 -167 68q-52 57 -52 134q0 16 2 33
q18 113 94 174t198 61zM237 336q-60 -51 -60 -141q0 -21 14.5 -50t47 -45t73 -16t74.5 20t56.5 49.5t40.5 66.5q31 63 41 120q-59 36 -149.5 36t-137.5 -40z" />
    <glyph glyph-name="uni2206" unicode="&#x2206;" horiz-adv-x="724" 
d="M19 0l427 732h77l183 -732h-687zM174 88h423l-126 517z" />
    <glyph glyph-name="product" unicode="&#x220f;" horiz-adv-x="646" 
d="M102 0l101 643h-83l15 89h608l-14 -89h-84l-102 -643h-92l102 643h-258l-101 -643h-92z" />
    <glyph glyph-name="summation" unicode="&#x2211;" horiz-adv-x="582" 
d="M5 -200l15 92l273 378l-154 373l14 89h526l-14 -89h-415l155 -386l-260 -365h401l-15 -92h-526z" />
    <glyph glyph-name="minus" unicode="&#x2212;" horiz-adv-x="445" 
d="M71 313l3 86h416l-3 -86h-416z" />
    <glyph glyph-name="radical" unicode="&#x221a;" horiz-adv-x="636" 
d="M61 272l14 89h137l80 -234l357 673h95l-416 -800h-87l-98 272h-82z" />
    <glyph glyph-name="infinity" unicode="&#x221e;" horiz-adv-x="678" 
d="M253 514q66 0 114 -50q22 -22 38 -52q81 102 185 102q95 0 127 -55q23 -39 23 -90q0 -99 -60 -155q-49 -45 -145 -45q-107 0 -153 105q-68 -105 -184 -105q-98 0 -132 78q-15 34 -15 75q0 91 52.5 141.5t149.5 50.5zM134 322q0 -72 80 -72q45 0 80 30q28 22 60 61
q-19 39 -47.5 65.5t-64.5 26.5q-55 0 -79 -25q-29 -30 -29 -86zM546 250q94 0 109 91q2 14 2 32.5t-11 35.5q-15 24 -71 24q-67 0 -140 -92q35 -70 71 -84q18 -7 40 -7z" />
    <glyph glyph-name="integral" unicode="&#x222b;" horiz-adv-x="442" 
d="M83 -120q42 0 66 53q19 44 27 86t12 69l66 418q34 215 115 271q33 23 65.5 23t51.5 -3t27 -6.5t19 -9t14 -6.5l-10 -59h-80q-67 0 -99 -150q-5 -25 -11 -60l-66 -418q-27 -172 -76 -237q-43 -55 -111 -55t-102 25l9 59h83z" />
    <glyph glyph-name="approxequal" unicode="&#x2248;" horiz-adv-x="525" 
d="M182.5 311.5q31.5 12.5 61.5 12.5t71.5 -18.5t65 -18.5t39 3.5t26 8t29.5 13t32 14.5l15 -48q-8 -5 -21.5 -15t-23 -16.5t-23.5 -15t-25 -13.5q-28 -12 -56 -12t-70.5 19t-69 19t-46 -6t-44.5 -16.5t-43 -15.5l-14 47q31 23 48 34.5t48.5 24zM211 489.5
q32 12.5 61.5 12.5t71 -18.5t65 -18.5t39 3.5t26 8t29.5 13t32 14.5l15 -48q-5 -3 -31 -22t-38 -26q-41 -24 -74.5 -24t-75.5 19t-68.5 19t-46.5 -6t-45 -16.5t-43 -15.5l-14 47q31 23 48 34.5t49 24z" />
    <glyph glyph-name="notequal" unicode="&#x2260;" horiz-adv-x="530" 
d="M123 204l15 91h148l88 116h-218l14 90h272l56 72h64l-56 -72h91l-15 -90h-144l-88 -116h215l-15 -91h-269l-64 -83h-64l64 83h-94z" />
    <glyph glyph-name="lessequal" unicode="&#x2264;" horiz-adv-x="546" 
d="M97 98l13 83h376l-14 -83h-375zM143 397l15 93l400 155l-15 -94l-291 -112l256 -119l-15 -88z" />
    <glyph glyph-name="greaterequal" unicode="&#x2265;" horiz-adv-x="444" 
d="M62 98l13 83h376l-13 -83h-376zM82 228l15 95l297 119l-262 115l15 84l351 -154l-16 -93z" />
    <glyph glyph-name="lozenge" unicode="&#x25ca;" horiz-adv-x="519" 
d="M78 373l264 359h74l144 -359l-260 -373h-74zM182 369l93 -246l185 260l-96 233z" />
    <glyph glyph-name="f_f" unicode="&#xfb00;" horiz-adv-x="793" 
d="M386 776q50 0 118 -23l-10 -59l-112 1q-49 0 -63 -34q-7 -17 -13 -49l-12 -81h295l15 99q12 70 38 102q29 36 59.5 45t59.5 9q67 0 134 -23l-10 -58h-114q-44 0 -58 -24q-12 -19 -18 -60l-14 -90h139l-14 -83h-140l-71 -448h-92l71 448h-296l-70 -448h-92l70 448h-97
l11 66l102 17l14 89q13 80 50 118q38 38 120 38z" />
    <glyph glyph-name="f_f_i" unicode="&#xfb03;" horiz-adv-x="981" 
d="M386 776q50 0 118 -23l-10 -59l-112 1q-43 0 -57 -25q-11 -19 -19 -58l-14 -81h270l8 49q14 95 78 150q64 56 159 56q125 0 192 -23l-9 -58h-173q-136 0 -156 -126l-7 -48l354 -10l-82 -521h-93l70 448h-264l-71 -448h-92l71 448h-269l-70 -448h-92l70 448h-97l11 66
l102 17l14 89q13 80 50 118q38 38 120 38z" />
    <glyph glyph-name="ffl" unicode="&#xfb04;" horiz-adv-x="1082" 
d="M386 776q50 0 118 -23l-10 -59l-112 1q-43 0 -57 -24q-11 -20 -19 -59l-14 -81h271l8 51q31 199 204 204h277l-93 -591q-5 -35 -5 -54.5t3 -28.5q7 -20 37 -29q73 -21 80 -21l-9 -62h-91q-72 0 -98 43q-16 26 -16 66t6 80l80 516h-164q-77 0 -103 -61q-11 -25 -16 -62
l-8 -51h139l-14 -83h-140l-71 -448h-92l71 448h-270l-70 -448h-92l70 448h-97l11 66l102 17l14 89q13 80 50 118q38 38 120 38z" />
    <glyph glyph-name="s_t" unicode="&#xfb06;" horiz-adv-x="886" 
d="M340 75q49 0 57 49l8 43q2 8 2 18.5t-8 21t-36 10.5h-140q-74 0 -107 32q-25 24 -25 70q0 16 3 35l8 47q11 66 48 98.5t112 32.5h447l43 148h72l-23 -148h146l-14 -81h-145l-40 -255q-6 -43 -6 -60.5t5 -28.5t13 -15t51.5 -15.5t45.5 -11.5l-11 -64h-84q-71 0 -97 43
q-16 26 -16 66t6 80l41 259h-436q-40 0 -54 -20q-10 -15 -13 -34l-7 -41q-6 -37 9 -45q11 -7 24.5 -6t16.5 1h143q66 0 97 -38q24 -29 24 -71q0 -12 -3 -26l-8 -59q-8 -53 -34 -80q-26 -26 -50 -32q-35 -8 -74 -8t-141.5 7.5t-127.5 14.5l10 63h268z" />
    <glyph glyph-name="zero.oldstyle" horiz-adv-x="621" 
d="M337 632h164q46 0 78.5 -14.5t47.5 -37.5q25 -39 25 -82q0 -16 -4 -32l-48 -300q-14 -87 -61.5 -126.5t-131.5 -39.5h-164q-79 0 -122 41q-33 31 -33 87q0 18 3 38l48 298q26 168 198 168zM184 173q-2 -13 -2 -24.5t1 -20.5t6 -15t8 -10.5t11 -7t11.5 -4t14.5 -1.5
q11 -1 29 -1h145q87 0 101 83l46 288q2 13 2 31t-13.5 35t-61.5 17h-148q-91 0 -104 -83z" />
    <glyph glyph-name="one.oldstyle" horiz-adv-x="352" 
d="M88 487l10 63q38 0 81 21q65 31 93 64l92 -3l-98 -632h-92l83 527q-30 -23 -80 -31.5t-89 -8.5z" />
    <glyph glyph-name="two.oldstyle" horiz-adv-x="598" 
d="M506 394.5q14 25.5 17.5 45t3.5 43t-19.5 44.5t-81.5 21h-7l-292 -1l11 69q147 21 305 21q179 0 179 -160q0 -17 -2 -35q-4 -48 -37.5 -99t-76 -90t-95.5 -76q-81 -56 -149 -88h296l-14 -89h-500l14 83q5 3 31.5 16.5t49.5 25.5t68 36.5t73.5 42.5t68.5 43.5t66 48.5
t51.5 48t39.5 50.5z" />
    <glyph glyph-name="three.oldstyle" horiz-adv-x="592" 
d="M347 -102h-58h-19t-33 0.5t-36.5 1t-32 2t-34.5 3.5l-30 5q-29 5 -60 16l11 62h286q44 0 78.5 21t41.5 65l9 52q6 36 1.5 49.5t-7.5 21t-10.5 12t-13.5 7.5t-17 4q-16 3 -39 4l-230 7l13 73l232 10q103 4 117 91l9 60q2 12 2 22q0 63 -91 63h-299l9 61q86 29 221 29
q49 0 113.5 -1t107.5 -50q33 -37 33 -91q0 -14 -3 -30l-10 -64q-10 -58 -34 -92.5t-57 -42.5q50 -25 50 -101q0 -22 -4 -47l-9 -55q-26 -168 -207 -168z" />
    <glyph glyph-name="four.oldstyle" horiz-adv-x="611" 
d="M41 124l384 508h110l-346 -460h249l32 197l50 75h56l-43 -272h85l-11 -72l-89 -20l-27 -178h-95l28 178h-356z" />
    <glyph glyph-name="five.oldstyle" horiz-adv-x="593" 
d="M202 322q35 31 133 31q17 0 45.5 -1t35.5 -2q71 -1 110 -50q29 -38 29 -92q0 -16 -3 -34l-16 -109q-16 -98 -73 -134q-49 -31 -124 -34q-41 -2 -77.5 -2t-77.5 3.5t-146 22.5l11 70h298q46 0 69 26.5t29 60.5l15 93q2 14 2 27q0 65 -70 65h-134q-32 0 -57.5 -17.5
t-31.5 -52.5h-87l92 439h429l-15 -89h-339z" />
    <glyph glyph-name="six.oldstyle" horiz-adv-x="618" 
d="M220 412q148 21 253 21q64 0 96 -26q33 -28 39 -63q4 -26 4 -41.5t-3 -28.5l-19 -126q-13 -81 -62 -114.5t-128 -33.5h-146q-32 0 -57 9.5t-46 36.5q-43 52 -43 176q0 71 15 165.5t41 165t58 108.5q61 75 129 76q14 1 29 1t38 -1t57.5 -3.5t57.5 -4t64.5 -6t57.5 -5.5
l-11 -69h-279q-30 0 -56.5 -24.5t-43.5 -64.5q-31 -72 -45 -148zM198 222q0 -136 78 -136h130q34 0 49.5 10t23.5 18q17 18 22 50l17 109q2 16 2 24t-1 17t-10 17q-16 14 -60 14h-240q-11 -71 -11 -123z" />
    <glyph glyph-name="seven.oldstyle" horiz-adv-x="569" 
d="M105 543l14 89h463l21 -52l-367 -680h-106l351 643h-376z" />
    <glyph glyph-name="eight.oldstyle" horiz-adv-x="611" 
d="M217 362q-71 26 -71 111q0 15 2 29l10 65q15 96 65.5 133t140.5 37h148q77 0 114 -46q27 -34 27 -89q0 -19 -3 -41l-11 -62q-3 -38 -32 -75q-25 -32 -65 -40q38 -11 52 -53q9 -27 9 -47t-3 -34l-14 -94q-19 -116 -97 -143q-38 -13 -95 -13h-147q-48 0 -81.5 13.5
t-48.5 31t-20.5 41.5t-5.5 38.5t3 36.5l14 91q8 50 38.5 77.5t70.5 32.5zM186 160q-2 -10 -2 -27.5t16.5 -31t67.5 -13.5h131q35 0 62 17t32 55l16 95q1 9 1 17q0 25 -17 42t-52 17h-143q-51 0 -78 -31q-14 -18 -19 -45zM237 476q0 -28 20.5 -44t53.5 -16h143q79 0 92 78
l10 62q3 20 3 41t-10 33q-15 20 -60 20h-132q-55 0 -77.5 -21t-31.5 -73l-9 -62q-2 -10 -2 -18z" />
    <glyph glyph-name="nine.oldstyle" horiz-adv-x="614" 
d="M516 220q-148 -21 -253 -21q-76 0 -107 37t-31 77q0 14 3 46l19 123q13 84 65 119q48 31 124 31h146q146 0 146 -223q0 -72 -13.5 -158t-33.5 -146.5t-42.5 -99t-49.5 -63.5q-48 -46 -104 -47h-29.5t-58.5 1.5t-60.5 3t-85.5 8t-70 6.5l11 69h279q31 0 57 24.5t43 64.5
q32 72 45 148zM219 359q-3 -13 -3 -24.5t5 -23.5q8 -24 66 -24h240q11 71 11 123q0 136 -78 136h-130q-34 0 -49.5 -10t-23.5 -18q-17 -18 -22 -50z" />
    <glyph glyph-name="at.alt" horiz-adv-x="775" 
d="M575 145q-58 -65 -153 -65q-43 0 -74 13t-54 45q-28 40 -28 121q0 44 8.5 105t27 110t40.5 77.5t49 46.5q46 30 101 30q162 0 227 -63l-57 -393q41 0 62.5 16.5t29.5 73.5l51 337q6 41 2.5 56.5t-6.5 23t-10 12t-11.5 7.5t-14.5 4q-14 2 -32 2h-376q-103 0 -120 -105
l-79 -501q-2 -18 -2 -31t1 -24q2 -24 24 -40.5t63 -16.5h386l-10 -57q-135 -27 -292 -27h-97q-87 0 -129 57q-32 42 -32 102q0 19 3 39l80 505q30 184 219 184h372q87 0 123 -51q26 -36 26 -95q0 -22 -3 -47l-52 -347q-13 -83 -54 -122q-17 -16 -49 -28t-73 -12h-64z
M355 341q-6 -43 -6 -67q0 -71 21 -90q23 -20 64 -20t74.5 13.5t74.5 48.5l47 304q-55 15 -138 15q-111 0 -137 -204z" />
    <glyph glyph-name="questiondown.alt" horiz-adv-x="538" 
d="M339.5 -0.5q-11.5 -0.5 -27 -1t-30.5 -0.5t-44 2q-97 0 -142 56q-34 43 -34 101q0 16 3 34l15 94q25 165 206 165q27 0 58 -4l16 98h85l-27 -171h-78.5t-65.5 -1t-64 -23.5t-39 -67.5l-14 -89q-3 -13 -3 -25q0 -35 23 -58t92 -23h265l-10 -65q-4 0 -32 -4t-33 -5
t-28.5 -4t-31 -3.5t-28 -2.5t-32 -2.5zM404 739h64q11 0 16.5 -6.5t4.5 -16.5l-10 -66q-4 -25 -28 -25h-64q-20 0 -20 18q0 3 1 7l10 66q3 23 26 23z" />
    <glyph glyph-name="g.salt" horiz-adv-x="517" 
d="M139 200q-48 32 -48 115q0 17 3 34q15 96 66.5 140t130.5 44h5l104 -2q57 0 99 -40q38 -35 38 -110q0 -64 -28 -125q-19 -43 -62 -75q-43 -33 -112 -33h-132h-9h-9.5t-8.5 -1.5t-9 -3.5q-8 -7 -10.5 -22t7.5 -23t29 -10l172 -25q57 -8 90.5 -43t33.5 -79q0 -11 -2 -23
l-5 -36q-15 -89 -56 -120q-43 -32 -123 -32h-134q-83 0 -124 43q-31 31 -31 79q0 17 4 35l44 227q5 33 24 59.5t53 26.5zM111 -111q-3 -28 -3 -35.5t6 -15t11.5 -12t15.5 -7.5q16 -3 37 -3h134q38 0 55.5 18t22.5 53l5 25v12q0 49 -69 60l-189 28zM184 313q0 -13 1 -20
q1 -25 18.5 -43t51.5 -18h87q63 0 91 78q12 33 12 68q0 72 -69 72h-87q-54 0 -76 -34q-29 -42 -29 -103z" />
    <glyph glyph-name="exclamdown.alt" horiz-adv-x="312" 
d="M89 -40l92 532h86l-74 -532h-104zM191 605l9 63q3 22 28 23h59q9 0 15.5 -7.5t4.5 -18.5l-9 -60q-5 -21 -25 -25h-65q-19 1 -17 25z" />
    <glyph glyph-name="ampersand.salt" horiz-adv-x="954" 
d="M552 0h-161q-102 0 -144 44q-29 31 -29 86q0 13 2 26q-66 0 -100.5 33t-34.5 82q0 13 3 27l13 88q13 84 56 123q35 32 113 39q31 2 79 2h438l40 143h74l-22 -143h143l-10 -64l-146 -20l-43 -275q-31 -191 -271 -191zM180 296q-2 -9 -2 -18.5t4 -19.5q7 -19 50 -20
q14 88 64 127t137 39h114q129 0 129 -103q0 -41 -12.5 -71t-24.5 -43.5t-32 -19.5q-34 -11 -99 -11h-196q-2 -11 -2 -21t3.5 -21.5t16.5 -17.5q20 -9 43.5 -10t27.5 -1h164q65 0 111.5 29t54.5 82l43 270h-437q-95 -2 -115 -21q-22 -20 -29 -62zM520 238q32 0 43 4t14 13
q7 17 7 35.5t-7 25t-44 6.5h-112q-44 0 -66 -15.5t-31 -68.5h196z" />
    <glyph glyph-name="a.superior" horiz-adv-x="404" 
d="M233 729q16 4 29.5 5t37.5 1t81 -11t81 -34l-48 -322h-48l-15 52q-18 -20 -56.5 -38.5t-79.5 -18.5q-62 0 -90 44q-18 28 -18 69.5t6.5 82.5t20 73.5t29 51t35 30t35.5 15.5zM193 594.5q-6 -19.5 -10.5 -48.5t-4.5 -51.5t5 -35.5q9 -27 43 -27q55 0 130 43l29 183
q-46 12 -73.5 12t-38.5 -1t-18 -3t-16 -6.5t-17 -13t-15.5 -20.5t-13.5 -31.5z" />
    <glyph glyph-name="b.superior" horiz-adv-x="422" 
d="M475 605q0 -121 -51 -184q-38 -49 -113 -49q-59 0 -116 48l-29 -44h-53l83 524h75l-31 -191q72 29 128.5 29t79.5 -33q27 -38 27 -100zM367.5 472.5q23.5 30.5 29.5 81.5q4 26 4 44.5t-4.5 37t-15.5 26t-27.5 7.5h-23.5t-14 -0.5t-12 -1t-11.5 -1.5t-11 -1.5t-11 -2
t-11 -2.5t-13 -3t-14.5 -4l-29 -184q5 -2 18 -7.5t19.5 -8t17.5 -5.5q21 -6 53.5 -6t56 30.5z" />
    <glyph glyph-name="c.superior" horiz-adv-x="366" 
d="M232 729.5q21 5.5 70.5 5.5t144.5 -22l-8 -52q-80 5 -123.5 5t-54 -2.5t-23.5 -12.5q-24 -18 -37 -100q-5 -30 -5 -53.5t7 -35.5q13 -22 49 -22q66 0 135 5l23 2l-9 -53q-47 -13 -80 -18t-58 -5h-26q-64 0 -95 45q-20 30 -20 69t7 84.5t22 82.5t37.5 54.5t43.5 23z" />
    <glyph glyph-name="d.superior" horiz-adv-x="422" 
d="M217 724q30 15 79 15t112 -29l30 191h73l-84 -525h-52l-15 44q-63 -48 -122 -48q-31 0 -54.5 13t-34.5 33q-25 44 -25 88q0 17 3 51q20 133 90 167zM199 513q0 -71 54 -71q36 0 59 8t57 28l29 181q-5 0 -18 2.5t-16 3l-12 2t-13.5 2t-12.5 0.5q-12 1 -42.5 1t-51.5 -23.5
t-30 -92.5q-3 -23 -3 -41z" />
    <glyph glyph-name="e.superior" horiz-adv-x="408" 
d="M315 736q153 0 153 -94q0 -53 -30.5 -83.5t-66.5 -39.5q-45 -13 -98.5 -13t-76.5 10q-3 -22 -3 -39q0 -45 44 -46q21 -2 64.5 -2t119.5 12l-8 -56q-71 -20 -169 -20h-26q-65 1 -85 48q-11 26 -11 64.5t6.5 77t12.5 61t15.5 43t23 34t32.5 23.5q36 20 103 20v0zM202 568
q31 -6 51 -6t30.5 0.5t24.5 2t29.5 5.5t26.5 11q31 18 31 51q0 24 -23 31q-22 7 -54.5 7t-51 -5.5t-29 -13t-17.5 -22.5q-10 -21 -18 -61z" />
    <glyph glyph-name="f.superior" horiz-adv-x="313" 
d="M331 901q48 0 101 -17l-9 -48h-84q-23 0 -31.5 -9.5t-12 -15t-6.5 -16.5q-4 -15 -7 -33l-5 -30h101l-11 -68h-103l-46 -288h-75l46 288h-69l9 55l73 12l7 42q24 128 122 128z" />
    <glyph glyph-name="g.superior" horiz-adv-x="407" 
d="M283 259q63 0 74 62l12 75q-65 -28 -124 -28q-73 0 -102 56q-20 38 -20 75.5t5 66.5q16 90 58.5 131t110.5 41t197 -19l-65 -410q-10 -65 -49 -92t-83 -27q-8 0 -16 1l-187 16l8 52h181zM198 508q0 -72 62 -72q37 0 55.5 2t61.5 12l35 220h-115q-55 0 -77 -55
q-9 -22 -13 -40q-9 -45 -9 -67z" />
    <glyph glyph-name="h.superior" horiz-adv-x="439" 
d="M387 738q59 0 82 -30t23 -66q0 -10 -2 -22l-39 -244h-74l37 234q1 7 1 19.5t-13 25.5t-38 13t-46 -4q-26 -6 -82 -30l-41 -258h-75l83 523h74l-33 -214q7 4 22 12.5t22.5 12.5t21.5 10.5t24 9.5q27 8 53 8z" />
    <glyph glyph-name="i.superior" horiz-adv-x="196" 
d="M118 376l56 356h75l-56 -356h-75zM210 862h51q15 0 15 -13q0 -3 -1 -6l-8 -50q-3 -17 -20 -17h-51q-18 0 -15 17l8 50q4 19 21 19z" />
    <glyph glyph-name="j.superior" horiz-adv-x="197" 
d="M89 194l85 537h77l-57 -358q-15 -105 -50 -179h-55zM211 863h51q15 0 15 -13q0 -3 -1 -6l-8 -50q-3 -18 -20 -18h-51q-18 0 -15 18l8 50q4 19 21 19z" />
    <glyph glyph-name="k.superior" horiz-adv-x="374" 
d="M120 376l83 521h75l-49 -303q30 9 66 32.5t64 53.5t35 56h82q-15 -53 -65 -102t-91 -68l135 -190h-91l-120 174h-22l-27 -174h-75z" />
    <glyph glyph-name="l.superior" horiz-adv-x="245" 
d="M216 514q-3 -23 -3 -36t2 -19q5 -13 27 -19q53 -14 58 -14l-8 -50h-69q-87 0 -87 90q0 18 4 40l62 392h75z" />
    <glyph glyph-name="m.superior" horiz-adv-x="695" 
d="M348 732q14 2 33 2t40 -7q42 -14 53 -50q80 57 166 57q49 0 77.5 -31t28.5 -68q0 -8 -1 -18l-39 -241h-75l37 231q1 6 1 18t-13 26t-44 14q-62 0 -125 -33q0 -1 -2 -10q-3 -19 -3 -20l-36 -226h-74l36 231q1 5 1 17.5t-13.5 26.5t-38.5 14t-46 -4q-27 -6 -83 -30
l-40 -255h-75l56 354h55l11 -48q7 4 22.5 13t22.5 12.5t21 10t23.5 9.5t23.5 5z" />
    <glyph glyph-name="n.superior" horiz-adv-x="439" 
d="M387 737q59 0 82 -30t23 -65q0 -11 -2 -22l-39 -244h-74l37 234q2 7 2 20t-12.5 26t-38 13t-47.5 -5q-26 -6 -82 -30l-41 -258h-75l56 354h51l15 -45q6 3 19 10.5t19.5 11t18.5 9.5t20.5 8.5t19.5 6.5q21 6 48 6z" />
    <glyph glyph-name="o.superior" horiz-adv-x="408" 
d="M182 695q41 40 136 40t125 -44q21 -29 21 -85q0 -27 -7.5 -78.5t-25.5 -87t-55.5 -53t-104.5 -17.5q-93 0 -125 41q-22 30 -22 89q0 23 3 50q14 105 55 145zM215 615q-19 -55 -19 -118q0 -26 7.5 -35.5t12.5 -13.5t17 -6q16 -3 39.5 -3t33 0.5t23 4t20 10t14.5 18.5
q13 20 21 65t8 66t-3.5 34t-15.5 19q-18 11 -54.5 11t-50.5 -3q-39 -7 -53 -49z" />
    <glyph glyph-name="p.superior" horiz-adv-x="419" 
d="M370 736q108 0 108 -139q0 -22 -4.5 -56t-14.5 -65.5t-27 -57.5q-35 -52 -115 -52q-27 0 -61.5 8t-61.5 22l-31 -195h-72l83 520q83 15 196 15zM404 601q0 68 -53 68h-113l-36 -218q56 -16 112 -16q35 0 55 24.5t31 94.5q4 27 4 47z" />
    <glyph glyph-name="q.superior" horiz-adv-x="424" 
d="M225 720q33 17 85.5 17t180.5 -18l-83 -528h-74l32 203q-61 -26 -115 -28q-74 0 -103 57q-19 37 -19 75t8 82.5t31.5 83.5t56.5 56zM266 434h23q4 0 12 0.5t10.5 0.5t12 2t13.5 3l16 4t21 5l35 220h-106q-69 0 -91 -97q-9 -40 -9 -66q0 -72 63 -72z" />
    <glyph glyph-name="r.superior" horiz-adv-x="328" 
d="M354 732.5q11 1.5 36.5 1.5t37.5 -6l-12 -72q-18 3 -54.5 3t-64 -7.5t-70.5 -28.5l-39 -247h-75l56 354h58l8 -51q4 2 18.5 11t20 11.5t18 9.5t20.5 9.5t19.5 6.5t22.5 5.5z" />
    <glyph glyph-name="s.superior" horiz-adv-x="374" 
d="M306 437q35 0 39 29l4 22q2 16 -4.5 23t-25.5 7h-101q-48 0 -69.5 23.5t-21.5 54.5q0 9 2 19l5 34q7 45 32.5 67.5t70 22.5t111.5 -5t89 -10l-8 -55h-181q-32 0 -39 -15q-3 -6 -5 -17l-3 -22q-3 -21 5 -25q11 -6 30 -6h102q45 0 65 -25.5t20 -52.5q0 -7 -1 -15l-7 -37
q-8 -54 -38 -72q-26 -16 -56 -16t-74 3q-112 7 -138 15l8 53h189z" />
    <glyph glyph-name="t.superior" horiz-adv-x="277" 
d="M241 512q-4 -26 -4 -38.5t3.5 -20t40 -16t38.5 -8.5l-8 -52h-63q-87 0 -87 87q0 16 3 37l26 163h-70l9 53l73 14l31 100h58l-15 -99h104l-11 -68h-104z" />
    <glyph glyph-name="u.superior" horiz-adv-x="433" 
d="M200 495q-1 -5 -1 -17.5t13 -26t37 -13.5t44 4q24 5 79 28l41 260h75l-56 -354h-53l-14 45q-8 -4 -25.5 -15t-26.5 -15.5t-24 -10.5q-26 -11 -61 -11q-59 0 -85 36q-20 27 -20 64q0 10 1 22l39 239h75z" />
    <glyph glyph-name="v.superior" horiz-adv-x="375" 
d="M472 730q4 -14 4 -32.5t-11 -41.5l-170 -280h-68l-97 354h77l67 -250l112 190q13 19 18 60h68z" />
    <glyph glyph-name="w.superior" horiz-adv-x="572" 
d="M471 730q4 -15 4 -32t-4.5 -26.5t-10 -18.5t-11.5 -19l-17 -29l38 -121l111 186q14 21 19 60h68q4 -14 4 -32.5t-11 -41.5l-169 -280h-65l-44 150l-88 -150h-68l-97 354h75l66 -246l114 186q12 21 18 60h68z" />
    <glyph glyph-name="x.superior" horiz-adv-x="388" 
d="M74 369l160 182l-108 178h84l76 -128l110 128h91l-162 -187l107 -173h-83l-75 123l-107 -123h-93z" />
    <glyph glyph-name="y.superior" horiz-adv-x="407" 
d="M504 730q4 -15 4 -33.5t-10 -41.5l-146 -278q-104 -196 -219 -214v49q32 26 65 68q49 61 69 100q-42 2 -63 41q-6 12 -8 25l-63 285h77l56 -260q6 -29 33 -29l119 225q13 29 18 63h68z" />
    <glyph glyph-name="z.superior" horiz-adv-x="378" 
d="M106 377l11 70l231 213h-208l11 70h309l-10 -68l-230 -215h194l-11 -70h-297z" />
    <glyph glyph-name="zero.tnum" 
d="M342 732h164q44 0 76.5 -14.5t48.5 -37.5q25 -39 25 -83q0 -16 -4 -31l-63 -400q-14 -87 -61.5 -126.5t-132.5 -39.5h-164q-78 0 -121 41q-33 31 -33 88q0 17 3 37l63 398q27 168 199 168zM246 89h5h146q87 0 101 83l61 388q3 13 3 31t-13.5 35t-62.5 17h-148
q-91 0 -104 -83l-61 -387q-7 -42 4 -59q9 -14 17 -17.5t12 -4.5q11 -3 40 -3z" />
    <glyph glyph-name="one.tnum" 
d="M127 0l14 89h165l87 535q-21 -17 -66 -28.5t-103 -11.5l10 64q38 0 81 20q65 31 93 64h93l-102 -643h158l-14 -89h-416z" />
    <glyph glyph-name="two.tnum" 
d="M557 558q0 94 -111 94h-291l11 68q158 22 307 22q50 0 86 -18q67 -33 84 -119q5 -24 5 -44.5t-3 -47t-22.5 -67.5t-46.5 -76.5t-65.5 -74.5t-72 -67.5t-74.5 -59.5q-55 -42 -111 -79h320l-14 -89h-500l14 83q318 194 434 348q50 67 50 127z" />
    <glyph glyph-name="three.tnum" 
d="M372 -7h-58h-18.5t-33 0.5t-37 1t-32 2t-34.5 3.5l-30 5q-29 5 -59 16l10 62h286q45 0 79 21t42 65l8 52q11 70 -22 86q-18 9 -35 10t-28 2l-230 7l12 73l232 10q103 4 117 91l10 60q2 12 2 22q0 63 -92 63h-299l10 61q85 29 220 29q49 0 114 -1.5t107 -49.5
q33 -37 33 -91q0 -14 -2 -30l-11 -65q-9 -58 -33 -92t-58 -42q51 -25 51 -101q0 -22 -4 -47l-10 -55q-26 -168 -207 -168z" />
    <glyph glyph-name="four.tnum" 
d="M61 224l385 508h110l-346 -460h249l31 197l50 75h57l-44 -272h86l-11 -72l-89 -20l-28 -178h-94l27 178h-356z" />
    <glyph glyph-name="five.tnum" 
d="M239 424q33 31 132 31q17 0 45.5 -1.5t36.5 -1.5q71 -1 109 -51q29 -38 29 -91q0 -16 -2 -34l-17 -109q-16 -99 -73 -134q-49 -31 -123 -34q-42 -2 -78 -2t-77 3.5t-147 22.5l11 70h298q46 0 69.5 26.5t28.5 60.5l15 93q3 14 3 26q0 66 -71 66h-134q-32 0 -57 -17.5
t-31 -53.5h-88l92 440h429l-14 -89h-340z" />
    <glyph glyph-name="six.tnum" 
d="M213 412q148 21 253 21q64 0 96 -26q33 -28 39 -63q4 -26 4 -41.5t-3 -28.5l-20 -126q-13 -81 -61.5 -114.5t-127.5 -33.5h-146q-32 0 -57 9.5t-46 36.5q-43 52 -43 176q0 71 15 165.5t41 165t58 108.5q61 75 129 76q27 1 53 1q143 0 251 -20l-11 -69h-279
q-30 0 -56.5 -24.5t-43.5 -64.5q-31 -72 -45 -148zM191 222q0 -136 78 -136h130q34 0 49.5 10t23.5 18q17 18 22 50l17 109q2 13 2 30t-13 29.5t-58 12.5h-240q-11 -71 -11 -123z" />
    <glyph glyph-name="seven.tnum" 
d="M154 643l15 89h462l21 -52l-367 -680h-105l350 643h-376z" />
    <glyph glyph-name="eight.tnum" 
d="M211 362q-71 26 -71 111q0 15 2 29l10 65q16 96 66 133t140 37h148q77 0 114 -46q27 -34 27 -89q0 -19 -3 -41l-10 -62q-4 -38 -33 -75q-24 -32 -65 -40q38 -11 52 -53q9 -27 9 -47t-3 -34l-14 -94q-19 -116 -97 -143q-38 -13 -95 -13h-146q-49 0 -82.5 13.5t-48.5 31
t-20.5 41.5t-5.5 38.5t3 36.5l14 91q8 50 38.5 77.5t70.5 32.5zM180 160q-2 -10 -2 -27.5t16.5 -31t67.5 -13.5h131q48 0 75 29q16 17 20 43l15 95q1 9 1 17q0 25 -17 42t-52 17h-143q-51 0 -77 -31q-15 -18 -20 -45zM231 476q0 -28 20.5 -44t53.5 -16h143q79 0 92 78l10 62
q3 20 3 41t-9 33q-16 20 -61 20h-132q-55 0 -77.5 -21t-30.5 -73l-10 -62q-2 -10 -2 -18z" />
    <glyph glyph-name="nine.tnum" 
d="M518 326q-148 -21 -253 -21q-76 0 -108 37q-30 36 -30 77q0 13 2 45l19 124q13 81 62 115t128 34h146q146 0 146 -223q0 -72 -15.5 -167t-41 -165t-57.5 -108q-61 -72 -129 -74q-32 -1 -61 -1q-151 0 -243 20l11 69h279q30 0 56.5 24.5t43.5 64.5q31 72 45 149zM220 464
q-2 -13 -2 -24.5t4 -23.5q9 -24 67 -24h240q11 71 11 123q0 136 -78 136h-130q-83 0 -95 -78z" />
    <glyph glyph-name="zero.tosf" 
d="M326 632h164q46 0 78.5 -14.5t47.5 -37.5q24 -39 24 -82q0 -16 -3 -32l-48 -300q-14 -87 -61.5 -126.5t-132.5 -39.5h-164q-78 0 -122 41q-32 31 -32 87q0 18 3 38l47 298q27 168 199 168zM246 89h5h146q87 0 101 83l46 288q2 13 2 31t-13.5 35t-61.5 17h-148
q-92 0 -104 -83l-46 -287q-7 -42 4 -59q9 -14 17 -17.5t12 -4.5q11 -3 40 -3z" />
    <glyph glyph-name="one.tosf" 
d="M138 0l14 89h156l69 435q-21 -16 -65.5 -28t-101.5 -12l11 64q38 0 81 20q64 31 93 64h90l-84 -543h150l-14 -89h-399z" />
    <glyph glyph-name="two.tosf" 
d="M520 394.5q14 25.5 17.5 45t3.5 43t-19.5 44.5t-81.5 21h-7l-292 -1l11 69q147 21 305 21q179 0 179 -160q0 -17 -3 -46.5t-26 -71.5t-59 -78t-74.5 -67.5t-79.5 -57.5q-75 -47 -118 -67h296l-14 -89h-500l14 83q5 3 31.5 16.5t49.5 25.5t68 36.5t73.5 42.5t68.5 43.5
t66 48.5t51.5 48t39.5 50.5z" />
    <glyph glyph-name="three.tosf" 
d="M357 -102h-58h-18.5t-33 0.5t-37 1t-32 2t-34.5 3.5l-30 5q-29 5 -59 16l10 62h286q45 0 79 21t42 65l8 52q6 36 2 49.5t-7.5 21t-11 12t-13.5 7.5t-17 4q-16 3 -38 4l-230 7l12 73l232 10q103 4 117 91l10 60q2 12 2 22q0 63 -92 63h-299l10 61q85 29 220 29
q49 0 114 -1t107 -50q33 -37 33 -91q0 -14 -2 -30l-11 -64q-9 -58 -33 -92.5t-58 -42.5q51 -25 51 -101q0 -22 -4 -47l-10 -55q-26 -168 -207 -168z" />
    <glyph glyph-name="four.tosf" 
d="M45 124l385 508h110l-346 -460h249l31 197l50 75h57l-44 -272h86l-11 -72l-89 -20l-28 -178h-94l27 178h-356z" />
    <glyph glyph-name="five.tosf" 
d="M223 322q33 31 132 31q17 0 45.5 -1t36.5 -2q71 -1 109 -50q29 -38 29 -92q0 -16 -2 -34l-17 -109q-16 -98 -73 -134q-49 -31 -123 -34q-42 -2 -78 -2t-77 3.5t-147 22.5l11 70h298q46 0 69.5 26.5t28.5 60.5l15 93q3 14 3 27q0 65 -71 65h-134q-32 0 -57 -17.5
t-31 -52.5h-88l92 439h429l-14 -89h-340z" />
    <glyph glyph-name="six.tosf" 
d="M213 412q148 21 253 21q64 0 96 -26q33 -28 39 -63q4 -26 4 -41.5t-3 -28.5l-20 -126q-13 -81 -61.5 -114.5t-127.5 -33.5h-146q-32 0 -57 9.5t-46 36.5q-43 52 -43 176q0 71 13.5 156.5t33.5 146.5t42.5 99.5t49.5 64.5q49 47 104 48q22 1 44 1q133 0 260 -20l-11 -69
h-279q-30 0 -56.5 -24.5t-43.5 -64.5q-31 -72 -45 -148zM191 222q0 -136 78 -136h130q83 0 95 78l17 109q2 13 2 30t-13 29.5t-58 12.5h-240q-11 -71 -11 -123z" />
    <glyph glyph-name="seven.tosf" 
d="M148 543l15 89h462l21 -52l-367 -680h-105l350 643h-376z" />
    <glyph glyph-name="eight.tosf" 
d="M211 362q-71 26 -71 111q0 15 2 29l10 65q16 96 66 133t140 37h148q77 0 114 -46q27 -34 27 -89q0 -19 -3 -41l-10 -62q-4 -38 -33 -75q-24 -32 -65 -40q38 -11 52 -53q9 -27 9 -47t-3 -34l-14 -94q-19 -116 -97 -143q-38 -13 -95 -13h-146q-49 0 -82.5 13.5t-48.5 31
t-20.5 41.5t-5.5 38.5t3 36.5l14 91q8 50 38.5 77.5t70.5 32.5zM180 160q-2 -10 -2 -27.5t16.5 -31t67.5 -13.5h131q48 0 75 29q16 17 20 43l15 95q1 9 1 17q0 25 -17 42t-52 17h-143q-51 0 -77 -31q-15 -18 -20 -45zM231 476q0 -28 20.5 -44t53.5 -16h143q79 0 92 78l10 62
q3 20 3 41t-9 33q-16 20 -61 20h-132q-55 0 -77.5 -21t-30.5 -73l-10 -62q-2 -10 -2 -18z" />
    <glyph glyph-name="nine.tosf" 
d="M502 220q-148 -21 -253 -21q-76 0 -108 37q-30 37 -30 77q0 14 2 46l19 123q14 84 66 119q48 31 124 31h146q146 0 146 -223q0 -72 -15.5 -167t-41 -165t-57.5 -108q-61 -73 -129 -74q-36 -2 -74 -2q-141 0 -230 21l11 69h279q30 0 56.5 24.5t43.5 64.5q31 72 45 148z
M204 359q-2 -13 -2 -30t13 -29.5t58 -12.5h240q11 71 11 123q0 136 -78 136h-130q-83 0 -95 -78z" />
    <glyph glyph-name="gbreve.salt" horiz-adv-x="517" 
d="M302 710v-19.5t14 -29.5t39 -16h3q64 0 74 65h49q-15 -114 -126 -114q-44 0 -73 29t-29 73v12h49zM139 200q-48 32 -48 115q0 17 3 33q15 97 66.5 141t130.5 44h5l104 -2q57 0 99 -40q38 -35 38 -110q0 -64 -28 -125q-19 -43 -62 -75q-43 -33 -112 -33h-132h-9h-9.5
t-8.5 -1.5t-9 -3.5q-8 -7 -10.5 -22t7.5 -23t29 -10l172 -25q57 -8 90.5 -43t33.5 -79q0 -11 -2 -23l-5 -36q-15 -89 -56 -120q-43 -32 -123 -32h-134q-83 0 -124 43q-31 31 -31 79q0 17 4 35l44 227q5 33 24 59.5t53 26.5zM111 -112q-3 -27 -3 -34.5t6 -15t11.5 -12
t15.5 -7.5q16 -3 37 -3h134q38 0 55.5 18t22.5 53l5 25v12q0 49 -69 60l-189 28zM183 317q0 -85 72 -85h87q63 0 91 78q12 33 12 68q0 72 -69 72h-87q-54 0 -76 -34q-19 -28 -27 -72q-3 -13 -3 -27z" />
    <glyph glyph-name="gdotaccent.salt" horiz-adv-x="517" 
d="M342 704h56q22 0 19 -25l-10 -60q-3 -23 -26 -23h-56q-11 0 -17 6.5t-4 16.5l10 60q3 25 28 25zM139 200q-48 32 -48 115q0 17 3 33q15 97 66.5 141t130.5 44h5l104 -2q57 0 99 -40q38 -35 38 -110q0 -64 -28 -125q-19 -43 -62 -75q-43 -33 -112 -33h-132h-9h-9.5
t-8.5 -1.5t-9 -3.5q-8 -7 -10.5 -22t7.5 -23t29 -10l172 -25q57 -8 90.5 -43t33.5 -79q0 -11 -2 -23l-5 -36q-15 -89 -56 -120q-43 -32 -123 -32h-134q-83 0 -124 43q-31 31 -31 79q0 17 4 35l44 227q5 33 24 59.5t53 26.5zM111 -112q-3 -27 -3 -34.5t6 -15t11.5 -12
t15.5 -7.5q16 -3 37 -3h134q38 0 55.5 18t22.5 53l5 25v12q0 49 -69 60l-189 28zM183 317q0 -85 72 -85h87q63 0 91 78q12 33 12 68q0 72 -69 72h-87q-54 0 -76 -34q-19 -28 -27 -72q-3 -13 -3 -27z" />
    <glyph glyph-name="gcircumflex.salt" horiz-adv-x="517" 
d="M195 596l136 132h80l81 -132h-72l-53 79l-85 -79h-87zM139 200q-48 32 -48 115q0 17 3 33q15 97 66.5 141t130.5 44h5l104 -2q57 0 99 -40q38 -35 38 -110q0 -64 -28 -125q-19 -43 -62 -75q-43 -33 -112 -33h-132h-9h-9.5t-8.5 -1.5t-9 -3.5q-8 -7 -10.5 -22t7.5 -23
t29 -10l172 -25q57 -8 90.5 -43t33.5 -79q0 -11 -2 -23l-5 -36q-15 -89 -56 -120q-43 -32 -123 -32h-134q-83 0 -124 43q-31 31 -31 79q0 17 4 35l44 227q5 33 24 59.5t53 26.5zM111 -112q-3 -27 -3 -34.5t6 -15t11.5 -12t15.5 -7.5q16 -3 37 -3h134q38 0 55.5 18t22.5 53
l5 25v12q0 49 -69 60l-189 28zM183 317q0 -85 72 -85h87q63 0 91 78q12 33 12 68q0 72 -69 72h-87q-54 0 -76 -34q-19 -28 -27 -72q-3 -13 -3 -27z" />
    <glyph glyph-name="c_t" horiz-adv-x="855" 
d="M724 196q-7 -42 -7 -60t5.5 -29t13.5 -15t51 -15.5t45 -11.5l-10 -64h-84q-72 0 -97 43q-16 26 -16 66t6 80l40 257h-371q-42 0 -50 -5t-17.5 -11t-15 -15t-13 -23t-12.5 -33q-14 -48 -24 -98t-10 -75q0 -72 28 -94q18 -15 56 -15q79 0 186 7l36 3l-10 -65
q-103 -29 -223 -29q-53 0 -83 14.5t-52 46.5q-27 40 -27 114q0 44 8.5 98.5t20.5 95t24.5 68t29.5 46.5t31.5 29.5t36.5 15.5q31 8 77 8l388 3l43 147h73l-24 -148h145l-13 -85h-146z" />
    <glyph glyph-name="t_t" horiz-adv-x="742" 
d="M610 196q-6 -38 -6 -58t6 -31t13.5 -15t50 -15.5t44.5 -11.5l-10 -64h-76q-66 0 -98 45q-22 30 -22 85q0 26 5 59l41 259h-281l-41 -253q-13 -78 4 -96q10 -10 56 -22.5t48 -12.5l-10 -64h-75q-67 0 -99 45q-21 29 -21 83q0 28 5 61l41 259h-96l10 62l99 21l43 148h72
l-23 -148h281l43 148h72l-23 -148h145l-13 -83h-145z" />
    <glyph glyph-name="f_t" horiz-adv-x="764" 
d="M386 786q51 0 117 -23l-9 -58h-114q-44 0 -58 -24q-12 -19 -19 -60l-14 -89h304l42 148h73l-23 -148h145l-14 -83h-145l-38 -253q-12 -79 5 -96q10 -10 32 -16q70 -19 72 -19l-10 -64h-76q-120 0 -120 132q0 26 4 57l39 259h-305l-70 -449h-92l70 448h-93l11 66l97 17
l16 99q13 83 53 120q38 36 120 36z" />
    <glyph glyph-name="t_y" horiz-adv-x="930" 
d="M990 535q5 -18 5 -45.5t-19 -67.5l-208 -419q-64 -131 -128 -195.5t-142 -80.5v66q41 26 64.5 53t36.5 43.5t25 38.5q21 34 42 74q-35 0 -60 16q-46 30 -56 101l-47 280q-5 32 -21.5 41t-61.5 9h-143l-40 -254q-13 -78 4 -96q10 -10 56 -22.5t48 -12.5l-10 -64h-76
q-66 0 -98 45q-22 30 -22 85q0 27 5 59l41 260h-96l10 62l99 21l43 148h72l-23 -148h155q73 -1 108 -29.5t45 -91.5l45 -281q6 -42 58 -40l3 1l180 355q19 38 26 89h80z" />
    <glyph glyph-name="f_y" horiz-adv-x="943" 
d="M386 786q51 0 117 -23l-9 -58h-114q-44 0 -58 -24q-12 -19 -19 -60l-14 -90h168h1q73 0 108 -30t46 -94l46 -281q5 -30 41 -38q10 -2 18 -1.5l8 0.5l174 355q18 40 25 89h79q6 -18 6 -46t-19 -67l-209 -419q-64 -131 -127.5 -195.5t-141.5 -79.5v66q60 36 102 98
q34 48 66 110q-34 0 -59 17q-45 30 -57 100l-46 281q-6 32 -23 42t-61 10h-1h-159l-70 -448h-92l70 448h-93l11 66l97 17l16 99q13 83 53 120q38 36 120 36z" />
    <glyph glyph-name="gcommaaccent.salt" horiz-adv-x="517" 
d="M139 200q-48 32 -48 115q0 17 3 34q15 96 66.5 140t130.5 44h5l104 -2q57 0 99 -40q38 -35 38 -110q0 -64 -28 -125q-19 -43 -62 -75q-43 -33 -112 -33h-132h-9h-9.5t-8.5 -1.5t-9 -3.5q-8 -7 -10.5 -22t7.5 -23t29 -10l172 -25q57 -8 90.5 -43t33.5 -79q0 -11 -2 -23
l-5 -36q-15 -89 -56 -120q-43 -32 -123 -32h-134q-83 0 -124 43q-31 31 -31 79q0 17 4 35l44 227q5 33 24 59.5t53 26.5zM111 -111q-3 -14 -3 -24t2.5 -17t5.5 -12.5t9 -8.5t11.5 -5t13.5 -3q12 -1 27 -1h134q38 0 56 17.5t23 51.5l5 25v12q0 49 -69 60l-189 28zM187 344
q-3 -18 -3 -31t1 -20q1 -25 18.5 -43t51.5 -18h87q63 0 91 78q12 33 12 68q0 72 -69 72h-87q-88 0 -102 -106zM364.5 770.5q14.5 5.5 25.5 7t16.5 1.5t19.5 -2l-5 -33h-2q-26 0 -31 -27l-2 -20h10q22 0 19 -22l-9 -57q-5 -24 -27 -24h-54q-18 0 -18 17v7l15 89q4 25 16 41.5
t26.5 22z" />
    <glyph glyph-name="exclam.smcp" horiz-adv-x="265" 
d="M119 114h64q23 0 19 -25l-10 -66q-3 -23 -26 -23h-64q-11 0 -17 6.5t-4 16.5l10 66q3 25 28 25zM113 172l55 398h103l-72 -398h-86z" />
    <glyph glyph-name="quotedbl.smcp" horiz-adv-x="397" 
d="M158 426l10 134l11 67h90l-11 -67l-31 -134h-69zM305 426l10 134l11 67h91l-11 -67l-31 -134h-70z" />
    <glyph glyph-name="numbersign.smcp" horiz-adv-x="577" 
d="M45 168l19 63h123l37 111h-124l19 63h125l55 168h64l-55 -168h116l55 168h64l-55 -168h135l-18 -63h-136l-37 -111h136l-19 -63h-137l-56 -169h-64l55 169h-115l-56 -169h-64l55 169h-122zM251 231h117l36 111h-116z" />
    <glyph glyph-name="dollar.smcp" horiz-adv-x="506" 
d="M77 80l222 -1q78 0 88 64l6 34q1 9 1 16q0 48 -63 48h-80q-46 0 -78 14q-68 29 -68 109q0 12 2 24l5 32q24 152 196 155l11 67h70l-11 -70q40 -3 146 -16l-11 -69q-193 1 -222 1t-54.5 -15.5t-32.5 -56.5l-4 -29q-2 -8 -2 -22.5t15 -26.5t55 -12h87q73 0 106 -46
q27 -36 27 -80q0 -12 -2 -25l-6 -37q-17 -103 -89 -130q-40 -15 -105 -15l-10 -65h-70l10 68q-141 14 -150 16z" />
    <glyph glyph-name="percent.smcp" horiz-adv-x="877" 
d="M247 591h63q66 0 93 -31q19 -22 19 -63q0 -16 -3 -34l-13 -88q-10 -70 -41.5 -97.5t-107.5 -27.5h-62q-82 0 -105 58q-7 19 -7 37.5t2 32.5l13 88q10 67 40.5 96t108.5 29zM159 381q-1 -10 -1 -23.5t8.5 -23.5t42.5 -10h55q38 0 51 11.5t18 45.5l12 79q2 14 2 27
t-6.5 21.5t-44.5 8.5h-55q-39 0 -52 -11.5t-18 -45.5zM229 0l423 570h79l-422 -570h-80zM711 341h62q67 0 94 -30q19 -22 19 -63q0 -16 -3 -35l-13 -87q-10 -70 -41.5 -97.5t-107.5 -27.5h-63q-60 0 -86 29t-26 71q0 13 2 28l13 87q11 68 41.5 96.5t108.5 28.5zM623 132
q-1 -11 -1 -24.5t8 -23t42 -9.5h55q48 0 60 22q6 12 10 35l11 78q3 15 3 27.5t-7 21t-45 8.5h-55q-48 0 -60 -22q-6 -11 -10 -35z" />
    <glyph glyph-name="ampersand.smcp" horiz-adv-x="546" 
d="M320 488q-60 0 -60 -37q0 -15 12 -33l126 -219l98 79l31 -39l-57 -88l-27 -24l78 -127h-100l-45 75l-54 -45q-48 -36 -107 -36q-32 0 -71 15.5t-64 60.5q-26 46 -26 88q0 79 86 143l71 54l-25 41q-19 34 -19 66t15 54.5t37.5 36.5t52.5 16.5t56 2.5q71 0 149 -19l-11 -65
h-146zM142 161q0 -22 13 -42.5t28 -30.5t26.5 -10t13.5 1q24 1 48 19l60 51l-78 131l-66 -47q-45 -34 -45 -72z" />
    <glyph glyph-name="quotesingle.smcp" horiz-adv-x="249" 
d="M158 426l10 134l11 67h90l-11 -67l-31 -134h-69z" />
    <glyph glyph-name="asterisk.smcp" horiz-adv-x="435" 
d="M110 406l7 44l144 28l-8 -77zM151 254l46 136l72 -18l-79 -131zM252 313l53 66l96 -92l-30 -36zM261 558l45 16l55 -119l-76 -30zM313 412l131 75l16 -38l-107 -97z" />
    <glyph glyph-name="zero.smcp" horiz-adv-x="577" 
d="M327 570h110q45 0 77 -15.5t45 -39.5q22 -39 22 -80q0 -15 -3 -30l-39 -246q-14 -86 -61.5 -122.5t-131.5 -36.5h-110q-75 0 -117 40q-32 31 -32 87q0 18 3 38l40 246q24 159 197 159zM181 146q0 -11 1 -19.5t5.5 -14.5t7 -10t10.5 -6.5t11.5 -4t13.5 -1.5q11 -1 29 -1
h92q84 0 97 81l37 229q2 13 2 31t-12 34.5t-61 16.5h-93q-88 0 -101 -82l-37 -229q-2 -13 -2 -24z" />
    <glyph glyph-name="one.smcp" horiz-adv-x="337" 
d="M104 422l9 64q54 0 115 51q22 19 34 33h90l-86 -570h-92l72 462q-39 -40 -142 -40z" />
    <glyph glyph-name="two.smcp" horiz-adv-x="508" 
d="M430 382q3 14 3 37t-19.5 43.5t-87.5 20.5l-213 -1l11 65q77 20 128.5 22.5t104.5 2.5t89.5 -16t53.5 -44q27 -44 27 -100q0 -19 -4 -40q-7 -49 -42.5 -100t-80.5 -87q-96 -78 -156 -96h232l-14 -89h-418l13 83q351 156 373 299z" />
    <glyph glyph-name="three.smcp" horiz-adv-x="508" 
d="M291 -5h-45q-154 0 -211 21l10 67h235q35 0 59 13t30 51l3 23q2 10 2 26.5t-15.5 29.5t-49.5 14l-190 5l13 78l191 4q26 0 43 6q36 11 44 60l4 30q3 12 3 26.5t-13.5 25t-55.5 10.5h-244l11 66q67 22 219 22h60q57 0 90 -41q25 -31 25 -76q0 -13 -2 -28l-5 -33
q-7 -48 -23.5 -76.5t-51.5 -40.5q41 -27 41 -84q0 -14 -2 -30l-4 -24q-8 -51 -26 -82q-37 -63 -138 -63h-7z" />
    <glyph glyph-name="four.smcp" horiz-adv-x="545" 
d="M46 180l280 390h104l-243 -345h200l25 153l49 78h55l-37 -231h84l-11 -73l-88 -18l-20 -132h-92l20 132h-297z" />
    <glyph glyph-name="five.smcp" horiz-adv-x="537" 
d="M331 360l48 -1q42 0 72.5 -12.5t44 -34t18 -41t4.5 -33.5t-3 -28l-10 -60q-13 -84 -58 -118q-42 -32 -125 -33h-43t-55 1q-79 2 -150 23l11 68h244q56 0 75 32q8 14 11 37l8 51q6 40 -8 51q-17 13 -57 13h-93q-53 0 -71 -45q-5 -10 -7 -23h-83l75 363h367l-14 -89h-283
l-32 -155q34 34 114 34z" />
    <glyph glyph-name="six.smcp" horiz-adv-x="543" 
d="M203 334q91 12 207 12q60 0 87 -33t27 -73q0 -12 -2 -24l-14 -86q-12 -71 -48.5 -101t-107.5 -30h-115q-58 0 -96 35q-22 19 -31 53q-15 50 -15 104t11 123t32 124.5t49 84.5q51 53 120 53q172 0 251 -15l-12 -77h-245q-23 0 -41.5 -16.5t-29.5 -41.5q-20 -46 -27 -92z
M185 187q0 -96 55 -96h115q28 0 43 10t20 40l12 77q1 7 1 18q0 26 -49 26h-191q-6 -43 -6 -75z" />
    <glyph glyph-name="seven.smcp" horiz-adv-x="476" 
d="M104 481l14 89h390l22 -52l-281 -518h-101l262 481h-306z" />
    <glyph glyph-name="eight.smcp" horiz-adv-x="570" 
d="M186 279q-33 12 -45 40t-12 45t1 26l6 43q13 81 49 111.5t112 30.5h166q58 0 88 -40q23 -30 23 -73q0 -15 -3 -32l-7 -42q-9 -50 -41 -75q-15 -13 -35 -17q27 -9 37 -34.5t10 -40t-1 -23.5l-11 -70q-12 -75 -50 -101.5t-101 -26.5h-167q-39 0 -65.5 13.5t-36.5 33.5
q-17 33 -17 54t3 32l11 67q11 68 86 79zM181 136q-1 -7 -1 -18.5t10.5 -21t49.5 -9.5h126q58 0 65 49l10 57q1 8 1 14q0 40 -48 40h-138q-27 0 -43.5 -11t-21.5 -42zM220 372q0 -41 50 -41h137q51 0 61 38q2 7 3 15l7 42q3 14 3 23.5t-4 19.5q-6 19 -46 19h-129
q-35 0 -48 -6.5t-18 -19.5t-9 -36l-6 -41q-1 -7 -1 -13z" />
    <glyph glyph-name="nine.smcp" horiz-adv-x="542" 
d="M432 241q-95 -12 -209 -12q-59 0 -86 33.5t-27 72.5q0 12 2 25l14 86q12 71 48.5 100.5t107.5 29.5h115q58 0 96 -35q22 -20 32 -54q14 -50 14 -104t-11 -123t-31.5 -124.5t-48.5 -83.5q-51 -53 -120 -53q-173 0 -252 15l12 77h245q23 0 41.5 16.5t30.5 41.5q20 47 27 92
zM204 357q-1 -6 -1 -14t4 -16q7 -14 45 -14h191q7 43 7 76q0 95 -56 95h-114q-19 0 -30 -4q-28 -7 -34 -46z" />
    <glyph glyph-name="question.smcp" horiz-adv-x="437" 
d="M264 230l-9 -59h-85l20 133h60.5h44.5q64 4 74 65l4 36q9 56 -31 70q-16 5 -40 5h-207l11 73q9 1 37 5q80 12 100 12l7 -1l52 2q14 0 20 -1q84 0 118 -44q28 -35 28 -90q0 -15 -2 -31l-5 -38q-12 -76 -67 -113q-40 -28 -92 -28q-19 0 -38 4zM169 114h62q22 0 22 -18
q0 -3 -1 -7l-11 -66q-3 -23 -28 -23h-62q-10 0 -16 6.5t-5 16.5l11 66q3 25 28 25z" />
    <glyph glyph-name="at.smcp" horiz-adv-x="876" 
d="M569 98q-58 -66 -153 -66q-43 0 -74 13t-54 45q-28 40 -28 121q0 44 8.5 105.5t27 110t40.5 77t49 46.5q46 31 101 31q162 0 227 -63l-57 -394q41 0 62.5 17t29.5 73l51 337q6 42 2.5 57t-6.5 23t-10 12.5t-11.5 7t-14.5 3.5q-14 2 -32 2h-376q-103 0 -120 -105l-79 -501
q-2 -17 -2 -30.5t1 -23.5q2 -25 24 -41t63 -16h386l-10 -58q-135 -27 -292 -27h-97q-87 0 -129 57q-32 43 -32 102q0 19 3 40l80 504q30 183 219 183h372q87 0 123 -50q26 -36 26 -94q0 -22 -3 -48l-52 -346q-13 -84 -54 -122q-18 -17 -49.5 -29t-72.5 -12h-64zM349 293
q-6 -43 -6 -67q0 -70 21 -90q22 -19 56.5 -19t56.5 5q47 10 100 56l47 305q-55 14 -138 14q-111 0 -137 -204z" />
    <glyph glyph-name="a.smcp" horiz-adv-x="595" 
d="M33 0l314 570h99l117 -570h-93l-32 142h-226l-75 -142h-104zM257 227h168l-46 223z" />
    <glyph glyph-name="b.smcp" horiz-adv-x="546" 
d="M424 571q45 0 77 -13.5t46 -35.5q24 -36 24 -77q0 -14 -3 -28q-17 -111 -87 -126q30 -7 44 -42q9 -22 9 -45.5t-3 -44.5q-13 -79 -56.5 -119t-134.5 -40h-265l90 571h259zM351 87q31 0 57 18q32 23 32 82q0 28 -11 47.5t-51 19.5q-70 -1 -113 -1t-58 1l-26 -167h170z
M391 336q42 0 59.5 17t24.5 61q2 12 2 30q0 41 -63 41h-170l-24 -149h171z" />
    <glyph glyph-name="c.smcp" horiz-adv-x="518" 
d="M262 565q40 13 78 13t80 -3q103 -9 154 -23l-11 -70q-13 3 -91.5 7.5t-124.5 4.5q-72 0 -106 -50q-41 -58 -57 -195q-3 -27 -3 -48.5t2.5 -36.5t9 -32t18.5 -27q25 -24 71 -25l219 12l-11 -68q-119 -28 -230 -28q-91 0 -129 51q-39 52 -42 122q-1 15 -1 33q0 102 29 198
q26 86 78 129q27 23 67 36z" />
    <glyph glyph-name="d.smcp" horiz-adv-x="596" 
d="M561.5 501.5q19.5 -30.5 28 -71.5t8.5 -79.5t-6 -82.5q-38 -248 -208 -266q-16 -2 -56 -2h-253l91 572h252q51 -1 87.5 -20.5t56 -50zM338 87q77 0 115 60q34 53 47 136q6 38 6 79.5t-17 72.5q-28 49 -89 49h-156l-63 -397h157z" />
    <glyph glyph-name="e.smcp" horiz-adv-x="514" 
d="M275 485q-27 0 -33 -14q-2 -6 -5 -19l-19 -123l273 -8l-12 -73l-275 -7l-19 -123q-4 -20 4 -26t27 -6h270l-12 -73q-15 -4 -237 -12l-73 -3q-41 0 -59.5 21.5t-18.5 50.5q0 9 2 19l61 386q7 47 40.5 71.5t85.5 24.5q273 -10 286 -13l-12 -73h-274z" />
    <glyph glyph-name="f.smcp" horiz-adv-x="515" 
d="M276 484q-22 0 -27 -7q-7 -9 -11 -25l-20 -129l272 -8l-11 -73l-275 -7l-37 -235h-92l75 475q7 47 40.5 71.5t84.5 24.5q274 -10 287 -13l-12 -74h-274z" />
    <glyph glyph-name="g.smcp" horiz-adv-x="574" 
d="M246 563q45 16 124 16q50 0 125 -9.5t102 -15.5l-12 -73q-122 13 -231 13q-54 0 -83.5 -16t-49 -59.5t-27.5 -97.5q-11 -68 -11 -89.5t0.5 -38t6.5 -37t17 -37.5q22 -38 74 -38t101.5 17t69.5 33l17 105h-157l9 57q90 23 186 23q30 0 66 -3l-50 -313h-69l-13 44
q-79 -51 -183 -51h-1q-41 0 -73 15t-49 38q-46 59 -46 168q0 116 36 216q37 103 121 133z" />
    <glyph glyph-name="h.smcp" horiz-adv-x="594" 
d="M74 -1l90 571h92l-39 -250h281l39 250h92l-90 -571h-92l37 231h-281l-37 -231h-92z" />
    <glyph glyph-name="i.smcp" horiz-adv-x="222" 
d="M75 0l90 570h92l-90 -570h-92z" />
    <glyph glyph-name="j.smcp" horiz-adv-x="333" 
d="M50 90q39 -6 55 -6t30 1t26 7t23 16q21 20 30 69l62 393h92l-64 -405q-18 -116 -82 -148q-45 -21 -92 -21q-56 0 -94 25z" />
    <glyph glyph-name="k.smcp" horiz-adv-x="561" 
d="M74 -1l90 571h90l-39 -248h69l225 248h110l-256 -297l167 -274h-109l-147 237h-73l-37 -237h-90z" />
    <glyph glyph-name="l.smcp" horiz-adv-x="497" 
d="M225 89h255l-14 -89h-296q-44 0 -63 21.5t-19 51.5q0 10 2 22l75 475h92l-71 -448q-4 -22 5 -27.5t34 -5.5z" />
    <glyph glyph-name="m.smcp" horiz-adv-x="741" 
d="M51 0l145 571h116l83 -428l217 428h116l-37 -571h-90l28 419l-209 -419h-85l-85 419l-110 -419h-89z" />
    <glyph glyph-name="n.smcp" horiz-adv-x="602" 
d="M75 0l90 571h89l226 -414l66 414h91l-90 -571h-88l-225 416l-67 -416h-92z" />
    <glyph glyph-name="o.smcp" horiz-adv-x="604" 
d="M305.5 570.5q32.5 4.5 73 4.5t68.5 -2.5t56 -10.5t46 -21q42 -31 54 -88q5 -28 5 -49v-44t-11.5 -95.5t-34 -129.5t-59.5 -88t-80.5 -41.5t-95.5 -10.5t-80 3t-55 11t-46 21q-42 31 -54 88q-6 29 -6 70.5t9 99t22.5 102.5t32 77.5t40.5 53.5t52.5 33t63 16.5zM378 486h-3
q-61 0 -75 -5.5t-28 -12t-22 -16.5t-18.5 -25.5t-17.5 -35.5q-35 -100 -35 -197q0 -80 47 -98q30 -12 71 -12t55 1t34 5t32.5 11.5t27.5 22.5t25 36q32 67 43 181q2 17 2 27t-0.5 22.5t-2 27t-8 25t-11.5 18t-16.5 12.5t-19 7.5t-23.5 3.5q-22 2 -57 2z" />
    <glyph glyph-name="p.smcp" horiz-adv-x="525" 
d="M419 569q63 0 97.5 -36.5t34.5 -105.5q0 -86 -32 -142q-37 -63 -124 -69q-14 -1 -25 -1t-98 6.5l-87 6.5l-36 -228h-93l90 569h273zM371 298q52 0 71 43q10 20 13.5 42.5t3.5 35.5t-5 30q-13 34 -54 34h-175l-29 -185h175z" />
    <glyph glyph-name="q.smcp" horiz-adv-x="604" 
d="M305.5 570.5q32.5 4.5 73 4.5t68.5 -2.5t56 -10.5t46 -21q42 -31 54 -87q5 -29 5 -49.5v-43.5t-11.5 -95.5t-34 -130t-59.5 -88t-80.5 -41.5t-95.5 -11t-80 3t-55 10.5t-46 21.5q-42 31 -54 87q-6 29 -6 70.5t9 99t22.5 103t32 78t40.5 53t52.5 33t63 17zM378 486h-3
q-61 0 -75 -5.5t-28 -12t-22 -16.5t-18.5 -25.5t-17.5 -35.5q-35 -100 -35 -197q0 -80 47 -98q30 -12 71 -12t55 1t34 5t32.5 11.5t27.5 22.5t25 36q32 67 43 181q2 17 2 27t-0.5 22.5t-2 27t-8 25t-11.5 18t-16.5 12.5t-19 7.5t-23.5 3.5q-22 2 -57 2zM328 -33
q36 -37 90 -37q28 0 73 15l-14 -89q-25 -9 -43 -9t-40.5 1.5t-54 13t-52 39.5t-19.5 66h60z" />
    <glyph glyph-name="r.smcp" horiz-adv-x="536" 
d="M409 571q54 0 95 -36q41 -35 41 -114q0 -91 -37.5 -139t-94.5 -54l93 -228h-98l-85 218q-22 1 -80 7t-58 7l-37 -232h-92l90 571h263zM452 397q2 12 2 23.5t-5 26.5t-18 23q-23 15 -38 15h-168l-30 -186h168q32 0 54.5 19.5t34.5 78.5z" />
    <glyph glyph-name="s.smcp" horiz-adv-x="538" 
d="M354 76q52 0 60 49l10 61q1 12 1 23t-6.5 19t-38.5 8h-151q-67 0 -94.5 29t-27.5 77q0 16 2 33l8 56q22 142 167 142q42 0 128 -6.5t135 -14.5l-11 -69q-158 5 -258 5q-59 0 -68 -61l-8 -52q-4 -21 -1.5 -28t4 -11t6.5 -6.5t7.5 -3.5t9.5 -2h24h152q67 0 94 -38
q20 -29 20 -69q0 -15 -2 -31l-10 -64q-21 -132 -154 -132q-53 0 -153.5 6.5t-123.5 16.5l10 67q172 -4 269 -4z" />
    <glyph glyph-name="t.smcp" horiz-adv-x="517" 
d="M108 481l15 89h452l-15 -89h-180l-76 -481h-92l76 481h-180z" />
    <glyph glyph-name="u.smcp" horiz-adv-x="607" 
d="M208 260q-8 -44 -8 -70t5 -44t14 -30.5t26 -19.5q29 -12 70.5 -12t63 4t42 15t35.5 31q31 41 45 126l49 310h93l-49 -314q-19 -116 -60 -172q-42 -57 -94 -73q-69 -22 -164 -14q-57 5 -81 17t-40 26q-30 25 -43 82q-5 24 -5 41q0 53 8 101l49 306h93z" />
    <glyph glyph-name="v.smcp" horiz-adv-x="599" 
d="M123 570h97l98 -441l236 441h103l-304 -570h-100z" />
    <glyph glyph-name="w.smcp" horiz-adv-x="850" 
d="M123 570h94l86 -443l221 443h98l-91 -185l58 -258l221 443h98l-285 -570h-99l-57 253l-128 -253h-101z" />
    <glyph glyph-name="x.smcp" horiz-adv-x="571" 
d="M33 0l239 289l-147 281h110l107 -204l166 204h121l-245 -289l146 -281h-106l-108 205l-166 -205h-117z" />
    <glyph glyph-name="y.smcp" horiz-adv-x="571" 
d="M123 570h97l109 -276l196 276h104l-265 -378l-30 -193h-92l30 193z" />
    <glyph glyph-name="z.smcp" horiz-adv-x="497" 
d="M33 0l14 89l374 392h-312l14 89h432l-14 -89l-368 -392h306l-14 -89h-432z" />
    <glyph glyph-name="grave.smcp" horiz-adv-x="252" 
d="M124 666h96l98 -135h-75z" />
    <glyph glyph-name="aogonek.smcp" horiz-adv-x="682" 
d="M406 -109q0 69 96 109h44q-70 -50 -70 -87q0 -31 47 -31h9l-11 -64q-12 -2 -24 -2q-40 0 -65.5 23t-25.5 52zM33 0l314 570h99l117 -570h-93l-32 142h-226l-75 -142h-104zM257 227h168l-46 223z" />
    <glyph glyph-name="rcommaaccent.smcp" horiz-adv-x="536" 
d="M246 -158q-10 0 -15.5 5.5t-3.5 16.5l8 57q4 24 27 24h54q18 0 18 -18q0 -3 -1 -6l-14 -89q-4 -25 -16 -42q-22 -30 -69 -30q-5 0 -19 3l5 32q13 0 20 5q10 7 12 22l4 20h-10zM409 571q54 0 95 -36q41 -35 41 -114q0 -91 -37.5 -139t-94.5 -54l93 -228h-98l-85 218
q-22 1 -80 7t-58 7l-37 -232h-92l90 571h263zM363 299q32 0 54.5 19.5t34.5 78.5q2 12 2 23.5t-5 26.5t-18 23q-23 15 -38 15h-168l-30 -186h168z" />
    <glyph glyph-name="itilde.smcp" horiz-adv-x="222" 
d="M238.5 723q30.5 -16 37.5 -16.5t16 -0.5t44.5 14t45.5 21l15 -47q-8 -5 -24.5 -17t-25.5 -18t-23 -14q-49 -27 -94 -5q-18 9 -33 17t-30 8t-29.5 -4t-23 -7.5t-24.5 -12t-22 -11.5l-15 45q64 50 88.5 57.5t45.5 7t51.5 -16.5zM77 0l90 570h92l-90 -570h-92z" />
    <glyph glyph-name="lcommaaccent.smcp" horiz-adv-x="497" 
d="M219 -172q-11 0 -16 5.5t-3 16.5l8 57q4 24 27 24h54q18 0 18 -18q0 -3 -1 -6l-14 -89q-4 -25 -16 -42q-22 -30 -69 -30q-5 0 -19 2l5 33q12 0 20 5q9 7 12 22l3 20h-9zM225 89h255l-14 -89h-296q-44 0 -63 21.5t-19 51.5q0 10 2 22l75 475h92l-71 -448q-4 -10 -1 -16
t4.5 -9.5t8.5 -5.5q10 -2 27 -2z" />
    <glyph glyph-name="dieresis.smcp" horiz-adv-x="453" 
d="M200 634q22 0 33.5 -14t11.5 -24q0 -33 -20 -50.5t-41.5 -17.5t-33.5 14t-12 24q0 34 20 51t42 17zM455 634q22 0 33.5 -14t11.5 -24q0 -33 -20 -50.5t-41.5 -17.5t-33.5 14t-12 24q0 34 20 51t42 17z" />
    <glyph glyph-name="scaron.smcp" horiz-adv-x="538" 
d="M243 764h72l54 -78l84 78h87l-136 -131h-79zM354 76q52 0 60 49l10 61q1 12 1 23t-6.5 19t-38.5 8h-151q-67 0 -94.5 29t-27.5 77q0 16 2 33l8 56q22 142 167 142q42 0 128 -6.5t135 -14.5l-11 -69q-158 5 -258 5q-59 0 -68 -61l-8 -51q-4 -22 -1.5 -29t4 -11t6.5 -6.5
t7.5 -3.5t9.5 -2h24h152q67 0 94 -38q20 -29 20 -69q0 -15 -2 -31l-10 -64q-21 -132 -154 -132q-53 0 -153.5 6.5t-123.5 16.5l10 67q172 -4 269 -4z" />
    <glyph glyph-name="emacron.smcp" horiz-adv-x="514" 
d="M228 632l11 68h292l-11 -68h-292zM275 484q-21 0 -27.5 -6.5t-9.5 -25.5l-20 -123l273 -8l-12 -73l-275 -7l-19 -123q-4 -20 4 -26t27 -6h270l-12 -73q-15 -4 -237 -12l-73 -3q-41 0 -59.5 21.5t-18.5 50.5q0 9 2 19l61 386q7 47 40.5 71.5t85.5 24.5q273 -10 286 -13
l-12 -74h-274z" />
    <glyph glyph-name="gcommaaccent.smcp" horiz-adv-x="574" 
d="M246 563q45 16 124 16q50 0 125 -9.5t102 -15.5l-12 -73q-122 13 -231 13q-54 0 -83.5 -16t-49 -59.5t-27.5 -97.5q-11 -68 -11 -89.5t0.5 -38t6.5 -37t17 -37.5q22 -38 74 -38t101.5 17t69.5 33l17 105h-157l9 57q90 23 186 23q30 0 66 -3l-50 -313h-69l-13 44
q-79 -51 -183 -51h-1q-41 0 -73 15t-49 38q-46 59 -46 168q0 116 36 216q37 103 121 133zM281 -69h54q18 0 18 -18q0 -3 -1 -6l-14 -89q-4 -25 -16 -42q-22 -30 -69 -30q-6 0 -19 2l5 33q19 0 24 7q6 10 8 20l3 20h-10q-10 0 -15 5.5t-3 16.5l8 57q4 24 27 24z" />
    <glyph glyph-name="tbar.smcp" horiz-adv-x="476" 
d="M85 483l14 89h435l-14 -89h-174l-22 -137h96l-9 -57h-95l-47 -289h-92l47 289h-99l9 57h98l22 137h-169z" />
    <glyph glyph-name="zcaron.smcp" horiz-adv-x="497" 
d="M220 762h72l54 -79l84 79h87l-136 -132h-79zM33 0l14 89l374 392h-312l14 89h432l-14 -89l-368 -392h306l-14 -89h-432z" />
    <glyph glyph-name="macron.smcp" horiz-adv-x="385" 
d="M129 523l10 67h292l-10 -67h-292z" />
    <glyph glyph-name="degree.smcp" horiz-adv-x="294" 
d="M236 569q42 0 64.5 -26.5t22.5 -58.5q0 -53 -37.5 -86t-79.5 -33t-65 27t-23 59q0 52 38 85t80 33zM229 518q-21 0 -40.5 -16.5t-19.5 -48.5q0 -10 11.5 -23.5t29.5 -13.5t30 7q32 17 32 53q0 15 -11 28.5t-32 13.5z" />
    <glyph glyph-name="acute.smcp" horiz-adv-x="242" 
d="M103 531l123 135h103l-151 -135h-75z" />
    <glyph glyph-name="caron.smcp" horiz-adv-x="389" 
d="M155 688h68l57 -85l101 85h70l-139 -157h-80z" />
    <glyph glyph-name="eng.smcp" horiz-adv-x="599" 
d="M325 -213q-11 0 -22 1l13 72q94 0 121 95l7 46l-220 410l-68 -414h-91l91 573h89l223 -414l66 414h91l-100 -629q-14 -76 -70 -115t-130 -39z" />
    <glyph glyph-name="amacron.smcp" horiz-adv-x="595" 
d="M260 630l10 68h292l-10 -68h-292zM33 0l314 570h99l117 -570h-93l-32 142h-226l-75 -142h-104zM257 227h168l-46 223z" />
    <glyph glyph-name="aacute.smcp" horiz-adv-x="595" 
d="M369 630l123 134h103l-151 -134h-75zM33 0l314 570h99l117 -570h-93l-32 142h-226l-75 -142h-104zM257 227h168l-46 223z" />
    <glyph glyph-name="acircumflex.smcp" horiz-adv-x="595" 
d="M258 630l136 132h80l80 -132h-71l-54 78l-85 -78h-86zM33 0l314 570h99l117 -570h-93l-32 142h-226l-75 -142h-104zM257 227h168l-46 223z" />
    <glyph glyph-name="atilde.smcp" horiz-adv-x="595" 
d="M429 723q30 -16 37 -16.5t16 -0.5t45 14t45 21l15 -47q-7 -5 -23.5 -17t-26 -18t-23.5 -14q-54 -30 -111 3q-28 17 -44 17q-28 0 -45 -7.5t-33 -16t-23 -11.5l-15 45q52 41 80.5 53t52 11.5t53.5 -16.5zM33 0l314 570h99l117 -570h-93l-32 142h-226l-75 -142h-104z
M257 227h168l-46 223z" />
    <glyph glyph-name="adieresis.smcp" horiz-adv-x="595" 
d="M296 736q22 0 33.5 -14t11.5 -24q0 -33 -20 -50.5t-42 -17.5t-33.5 14t-11.5 25q0 33 20 50t42 17zM551 736q22 0 33.5 -14t11.5 -24q0 -33 -20 -50.5t-42 -17.5t-33.5 14t-11.5 25q0 33 20 50t42 17zM33 0l314 570h99l117 -570h-93l-32 142h-226l-75 -142h-104zM257 227
h168l-46 223z" />
    <glyph glyph-name="aring.smcp" horiz-adv-x="595" 
d="M413 767q-42 0 -76.5 -31.5t-34.5 -80.5q0 -36 26 -64t68 -28t76 31.5t34 80.5q0 36 -25.5 64t-67.5 28zM409 717q21 0 33.5 -14.5t12.5 -35.5t-18 -38q-16 -15 -37 -15t-34.5 14t-13.5 35t18 37.5t39 16.5zM33 0l314 570h99l117 -570h-93l-32 142h-226l-75 -142h-104z
M257 227h168l-46 223z" />
    <glyph glyph-name="ae.smcp" horiz-adv-x="751" 
d="M550 484q-27 0 -33 -14q-3 -6 -6 -19l-21 -127l241 -7l-11 -73l-244 -8l-18 -120q-4 -20 4 -25.5t28 -5.5l237 -1l-11 -72q-17 -4 -257 -14h-14h-5q-41 0 -61 20t-20 51q0 8 1 17l11 70h-143l-99 -156h-107l299 476q39 62 100 79q51 14 128 15q239 -10 253 -13l-12 -73
h-240zM276 235h106l39 233z" />
    <glyph glyph-name="iogonek.smcp" horiz-adv-x="222" 
d="M5 -109q0 69 97 109h43q-70 -50 -70 -87q0 -31 47 -31h9l-10 -64q-13 -2 -25 -2q-40 0 -65.5 23t-25.5 52zM75 0l90 570h92l-90 -570h-92z" />
    <glyph glyph-name="ccaron.smcp" horiz-adv-x="518" 
d="M259 770h71l54 -78l85 78h86l-135 -131h-80zM352 578q63 0 130 -9.5t92 -16.5l-11 -70q-13 3 -91.5 7.5t-120 4.5t-69 -13.5t-44.5 -40.5q-41 -62 -55 -199q-2 -23 -2 -49t6 -44.5t17 -34.5q21 -32 78 -33l219 12l-11 -68q-119 -28 -230 -28q-91 0 -129 51
q-39 52 -42 122q-1 15 -1 33q0 49 10 111.5t26.5 107t45 82t74 56.5t108.5 19z" />
    <glyph glyph-name="eacute.smcp" horiz-adv-x="514" 
d="M348 631l124 135h102l-151 -135h-75zM275 484q-21 0 -27.5 -6.5t-9.5 -25.5l-20 -123l273 -8l-12 -73l-275 -7l-19 -123q-4 -20 4 -26t27 -6h270l-12 -73q-15 -4 -237 -12l-73 -3q-41 0 -59.5 21.5t-18.5 50.5q0 9 2 19l61 386q7 47 40.5 71.5t85.5 24.5q273 -10 286 -13
l-12 -74h-274z" />
    <glyph glyph-name="eogonek.smcp" horiz-adv-x="514" 
d="M334 -96q0 69 97 109h43q-70 -50 -70 -86q0 -32 47 -32h9l-10 -64q-13 -2 -25 -2q-40 0 -65.5 23t-25.5 52zM275 484q-21 0 -27.5 -6.5t-9.5 -25.5l-20 -123l273 -8l-12 -73l-275 -7l-19 -123q-4 -20 4 -26t27 -6h270l-12 -73q-15 -4 -237 -12l-73 -3q-41 0 -59.5 21.5
t-18.5 50.5q0 9 2 19l61 386q7 47 40.5 71.5t85.5 24.5q273 -10 286 -13l-12 -74h-274z" />
    <glyph glyph-name="edieresis.smcp" horiz-adv-x="514" 
d="M226 719q18 15 40 15t33.5 -13.5t11.5 -23.5q0 -33 -20 -50.5t-38 -17.5t-29 7q-24 16 -20 42t22 41zM521 734q22 0 33.5 -13.5t11.5 -23.5q0 -33 -20 -50.5t-41.5 -17.5t-33.5 14t-12 24q0 34 20 50.5t42 16.5zM275 484q-21 0 -27.5 -6.5t-9.5 -25.5l-20 -123l273 -8
l-12 -73l-275 -7l-19 -123q-4 -20 4 -26t27 -6h270l-12 -73q-15 -4 -237 -12l-73 -3q-41 0 -59.5 21.5t-18.5 50.5q0 9 2 19l61 386q7 47 40.5 71.5t85.5 24.5q273 -10 286 -13l-12 -74h-274z" />
    <glyph glyph-name="edotaccent.smcp" horiz-adv-x="514" 
d="M368 740h56q22 0 19 -25l-10 -60q-3 -23 -26 -23h-56q-11 0 -17 6t-4 17l10 60q3 25 28 25zM275 484q-21 0 -27.5 -6.5t-9.5 -25.5l-20 -123l273 -8l-12 -73l-275 -7l-19 -123q-4 -20 4 -26t27 -6h270l-12 -73q-15 -4 -237 -12l-73 -3q-41 0 -59.5 21.5t-18.5 50.5
q0 9 2 19l61 386q7 47 40.5 71.5t85.5 24.5q273 -10 286 -13l-12 -74h-274z" />
    <glyph glyph-name="iacute.smcp" horiz-adv-x="222" 
d="M139 630l124 134h102l-151 -134h-75zM75 0l90 570h92l-90 -570h-92z" />
    <glyph glyph-name="icircumflex.smcp" horiz-adv-x="222" 
d="M67 630l135 132h80l81 -132h-72l-53 78l-85 -78h-86zM75 0l90 570h92l-90 -570h-92z" />
    <glyph glyph-name="imacron.smcp" horiz-adv-x="222" 
d="M69 630l10 68h292l-10 -68h-292zM75 0l90 570h92l-90 -570h-92z" />
    <glyph glyph-name="dcroat.smcp" horiz-adv-x="603" 
d="M344 0h-18h-231l41 262h-76l9 56h76l40 254h229q51 -1 89 -20t57 -50q40 -65 40 -140q0 -34 -6 -91q-26 -161 -99 -221q-24 -20 -42 -30q-40 -20 -109 -20zM340 88q77 0 115 59q34 53 47 136q6 39 6 80t-17 72q-27 49 -87 49h-140l-27 -166h85l-8 -56h-86l-28 -174h140z
" />
    <glyph glyph-name="ncommaaccent.smcp" horiz-adv-x="602" 
d="M261 -158q-10 0 -15.5 5.5t-3.5 16.5l9 57q4 24 27 24h54q17 0 17 -18v-6l-14 -89q-4 -25 -16 -42q-23 -30 -70 -30q-5 0 -18 3l5 32q12 0 20 5q9 7 12 22l3 20h-10zM75 0l90 571h89l226 -414l66 414h91l-90 -571h-88l-225 416l-67 -416h-92z" />
    <glyph glyph-name="omacron.smcp" horiz-adv-x="604" 
d="M245 635l11 67h292l-11 -67h-292zM305.5 570.5q32.5 4.5 73 4.5t68.5 -2.5t56 -10.5t46 -21q42 -31 54 -88q5 -28 5 -49v-44t-11.5 -95.5t-34 -129.5t-59.5 -88t-80.5 -41.5t-95.5 -10.5t-80 3t-55 11t-46 21q-42 31 -54 88q-6 29 -6 70.5t9 99t22.5 102.5t32 77.5
t40.5 53.5t52.5 33t63 16.5zM378 486h-3q-61 0 -75 -5.5t-28 -12t-22 -16.5t-18.5 -25.5t-17.5 -35.5q-35 -100 -35 -197q0 -80 47 -98q30 -12 71 -12t55 1t34 5t32.5 11.5t27.5 22.5t25 36q24 51 33 110q11 69 11 99.5t-1.5 47.5t-11.5 31t-18.5 22t-28.5 11q-28 5 -77 5z
" />
    <glyph glyph-name="kcommaaccent.smcp" horiz-adv-x="561" 
d="M247 -158q-10 0 -15.5 5.5t-3.5 16.5l8 57q4 24 27 24h54q18 0 18 -18v-6l-14 -89q-4 -25 -17 -42q-22 -30 -69 -30q-5 0 -19 3l5 32q13 0 20 5q10 7 12 22l4 20h-10zM74 -1l90 571h90l-39 -248h69l225 248h110l-256 -297l167 -274h-109l-147 237h-73l-37 -237h-90z" />
    <glyph glyph-name="ocircumflex.smcp" horiz-adv-x="604" 
d="M243 635l136 131h80l81 -131h-72l-53 78l-86 -78h-86zM305.5 570.5q32.5 4.5 73 4.5t68.5 -2.5t56 -10.5t46 -21q42 -31 54 -88q5 -28 5 -49v-44t-11.5 -95.5t-34 -129.5t-59.5 -88t-80.5 -41.5t-95.5 -10.5t-80 3t-55 11t-46 21q-42 31 -54 88q-6 29 -6 70.5t9 99
t22.5 102.5t32 77.5t40.5 53.5t52.5 33t63 16.5zM378 486h-3q-61 0 -75 -5.5t-28 -12t-22 -16.5t-18.5 -25.5t-17.5 -35.5q-35 -100 -35 -197q0 -80 47 -98q30 -12 71 -12t55 1t34 5t32.5 11.5t27.5 22.5t25 36q24 51 33 110q11 69 11 99.5t-1.5 47.5t-11.5 31t-18.5 22
t-28.5 11q-28 5 -77 5z" />
    <glyph glyph-name="otilde.smcp" horiz-adv-x="604" 
d="M414 728q30 -16 37 -16.5t16 -0.5t45 14t45 21l15 -47q-7 -5 -23.5 -17t-26 -18t-23.5 -14q-54 -30 -111 3q-28 17 -44 17q-28 0 -45 -7.5t-33 -16t-23 -11.5l-15 45q52 41 80.5 53t52 11.5t53.5 -16.5zM305.5 570.5q32.5 4.5 73 4.5t68.5 -2.5t56 -10.5t46 -21
q42 -31 54 -88q5 -28 5 -49v-44t-11.5 -95.5t-34 -129.5t-59.5 -88t-80.5 -41.5t-95.5 -10.5t-80 3t-55 11t-46 21q-42 31 -54 88q-6 29 -6 70.5t9 99t22.5 102.5t32 77.5t40.5 53.5t52.5 33t63 16.5zM378 486h-3q-61 0 -75 -5.5t-28 -12t-22 -16.5t-18.5 -25.5t-17.5 -35.5
q-35 -100 -35 -197q0 -80 47 -98q30 -12 71 -12t55 1t34 5t32.5 11.5t27.5 22.5t25 36q24 51 33 110q11 69 11 99.5t-1.5 47.5t-11.5 31t-18.5 22t-28.5 11q-28 5 -77 5z" />
    <glyph glyph-name="odieresis.smcp" horiz-adv-x="604" 
d="M281 740q22 0 33.5 -13.5t11.5 -23.5q0 -33 -20 -50.5t-41.5 -17.5t-33.5 14t-12 25q0 33 20 49.5t42 16.5zM536 740q22 0 33.5 -13.5t11.5 -23.5t-1.5 -19.5t-10.5 -21.5q-19 -27 -45 -27t-38 14t-12 25q0 33 20 49.5t42 16.5zM305.5 570.5q32.5 4.5 73 4.5t68.5 -2.5
t56 -10.5t46 -21q42 -31 54 -88q5 -28 5 -49v-44t-11.5 -95.5t-34 -129.5t-59.5 -88t-80.5 -41.5t-95.5 -10.5t-80 3t-55 11t-46 21q-42 31 -54 88q-6 29 -6 70.5t9 99t22.5 102.5t32 77.5t40.5 53.5t52.5 33t63 16.5zM378 486h-3q-61 0 -75 -5.5t-28 -12t-22 -16.5
t-18.5 -25.5t-17.5 -35.5q-35 -100 -35 -197q0 -80 47 -98q30 -12 71 -12t55 1t34 5t32.5 11.5t27.5 22.5t25 36q24 51 33 110q11 69 11 99.5t-1.5 47.5t-11.5 31t-18.5 22t-28.5 11q-28 5 -77 5z" />
    <glyph glyph-name="oslash.smcp" horiz-adv-x="599" 
d="M123 76q-21 43 -21 98t9.5 112.5t23 103t32.5 78t40.5 53t52.5 33.5q53 21 144.5 21t135.5 -27l20 22l64 -1l-48 -55q28 -42 28 -124q0 -47 -11.5 -122t-34 -132.5t-59.5 -88t-80.5 -41.5t-111.5 -11q-107 0 -154 42l-32 -37h-65zM396 486h-9q-56 0 -70.5 -5.5t-28 -12
t-22 -16.5t-19 -25.5t-17.5 -34.5q-17 -49 -25.5 -102.5t-8.5 -82t3 -45.5l277 314q-18 10 -80 10zM464 153q27 58 37.5 124.5t10.5 102t-6 56.5l-288 -326q23 -26 97 -26t105 20t44 49z" />
    <glyph glyph-name="uogonek.smcp" horiz-adv-x="568" 
d="M203 -111q0 69 96 109h44q-70 -50 -70 -87q0 -31 47 -31h9l-11 -64q-12 -2 -24 -2q-40 0 -65.5 23t-25.5 52zM208 260q-8 -44 -8 -70t5 -44t14 -30.5t26 -19.5q29 -12 74.5 -12t71 6.5t48.5 25.5q44 36 62 144l49 310h93l-49 -314q-30 -189 -133 -236q-34 -16 -64 -20.5
t-64.5 -4.5t-56.5 2t-46 6.5t-41.5 13.5t-33.5 23q-30 25 -43 82q-5 24 -5 41q0 53 8 101l49 306h93z" />
    <glyph glyph-name="uacute.smcp" horiz-adv-x="607" 
d="M375 630l124 134h103l-152 -134h-75zM208 260q-8 -44 -8 -70t5 -44t14 -30.5t26 -19.5q29 -12 74.5 -12t71 6.5t48.5 25.5q44 36 62 144l49 310h93l-49 -314q-30 -189 -133 -236q-34 -16 -64 -20.5t-64.5 -4.5t-56.5 2t-46 6.5t-41.5 13.5t-33.5 23q-30 25 -43 82
q-5 24 -5 41q0 53 8 101l49 306h93z" />
    <glyph glyph-name="ucircumflex.smcp" horiz-adv-x="607" 
d="M264 630l136 132h80l81 -132h-72l-53 78l-85 -78h-87zM208 260q-8 -44 -8 -70t5 -44t14 -30.5t26 -19.5q29 -12 74.5 -12t71 6.5t48.5 25.5q44 36 62 144l49 310h93l-49 -314q-30 -189 -133 -236q-34 -16 -64 -20.5t-64.5 -4.5t-56.5 2t-46 6.5t-41.5 13.5t-33.5 23
q-30 25 -43 82q-5 24 -5 41q0 53 8 101l49 306h93z" />
    <glyph glyph-name="udieresis.smcp" horiz-adv-x="607" 
d="M262.5 720.5q18.5 15.5 40 15.5t33 -14t11.5 -24q0 -33 -19.5 -50.5t-38 -17.5t-29.5 7q-23 16 -19.5 42t22 41.5zM529.5 729q13.5 7 31.5 7t29.5 -14t11.5 -24q0 -33 -19.5 -50.5t-38 -17.5t-29.5 7t-16 19.5t-3 27t11 26.5t22.5 19zM208 260q-8 -44 -8 -70t5 -44
t14 -30.5t26 -19.5q29 -12 74.5 -12t71 6.5t48.5 25.5q44 36 62 144l49 310h93l-49 -314q-30 -189 -133 -236q-34 -16 -64 -20.5t-64.5 -4.5t-56.5 2t-46 6.5t-41.5 13.5t-33.5 23q-30 25 -43 82q-5 24 -5 41q0 53 8 101l49 306h93z" />
    <glyph glyph-name="utilde.smcp" horiz-adv-x="607" 
d="M435.5 723q30.5 -16 37 -16.5t16 -0.5t45 14t45.5 21l14 -47q-7 -5 -19.5 -14t-20.5 -15t-20.5 -13t-21.5 -11q-50 -23 -101 7q-28 17 -45 17q-27 0 -44.5 -7.5t-33.5 -16t-22 -11.5l-15 45q52 41 80 53t51.5 11.5t54 -16.5zM208 260q-8 -44 -8 -70t5 -44t14 -30.5
t26 -19.5q29 -12 74.5 -12t71 6.5t48.5 25.5q44 36 62 144l49 310h93l-49 -314q-30 -189 -133 -236q-34 -16 -64 -20.5t-64.5 -4.5t-56.5 2t-46 6.5t-41.5 13.5t-33.5 23q-30 25 -43 82q-5 24 -5 41q0 53 8 101l49 306h93z" />
    <glyph glyph-name="umacron.smcp" horiz-adv-x="607" 
d="M267 630l10 68h292l-10 -68h-292zM208 260q-8 -44 -8 -70t5 -44t14 -30.5t26 -19.5q29 -12 74.5 -12t71 6.5t48.5 25.5q44 36 62 144l49 310h93l-49 -314q-30 -189 -133 -236q-34 -16 -64 -20.5t-64.5 -4.5t-56.5 2t-46 6.5t-41.5 13.5t-33.5 23q-30 25 -43 82
q-5 24 -5 41q0 53 8 101l49 306h93z" />
    <glyph glyph-name="germandbls.smcp" horiz-adv-x="997" 
d="M338 76q52 0 59 49l10 61q2 12 2 23t-7 19t-38 8h-151q-68 0 -95.5 29t-27.5 77q0 16 2 33l8 56q23 142 167 142q42 0 128 -6.5t135 -14.5l-11 -69q-158 5 -258 5q-58 0 -67 -61l-9 -51q-4 -22 -1.5 -29t4 -11t6.5 -6.5t7.5 -3.5t10.5 -2h23h152q67 0 94 -38
q21 -29 21 -69q0 -15 -3 -31l-10 -64q-21 -132 -154 -132q-53 0 -153.5 6.5t-123.5 16.5l11 67q172 -4 269 -4zM823 76q52 0 60 49l10 62q4 32 -3 39q-10 10 -41 10h-151q-67 0 -94.5 29t-27.5 78q0 15 2 32l8 56q23 142 167 142q42 0 128 -6.5t135 -14.5l-11 -69
q-158 5 -258 5q-59 0 -67 -60l-9 -52q-4 -22 -1.5 -29t4 -11t6.5 -6t7.5 -3.5t9.5 -1.5q10 -1 24 -1h152q67 0 94 -38q21 -28 21 -69q0 -15 -3 -31l-10 -64q-21 -132 -154 -132q-53 0 -153.5 6.5t-123.5 16.5l10 67q172 -4 269 -4z" />
    <glyph glyph-name="agrave.smcp" horiz-adv-x="595" 
d="M250 764h95l99 -134h-75zM33 0l314 570h99l117 -570h-93l-32 142h-226l-75 -142h-104zM257 227h168l-46 223z" />
    <glyph glyph-name="ccedilla.smcp" horiz-adv-x="518" 
d="M208 -176h-52l7 43l53 15q20 8 29.5 27t14.5 52h75q-12 -77 -39 -107q-27 -31 -88 -30zM352 578q63 0 130 -9.5t92 -16.5l-11 -70q-13 3 -91.5 7.5t-120 4.5t-69 -13.5t-44.5 -40.5q-41 -62 -55 -199q-2 -23 -2 -49t6 -44.5t17 -34.5q21 -32 78 -33l219 12l-11 -68
q-119 -28 -230 -28q-91 0 -129 51q-39 52 -42 122q-1 15 -1 33q0 49 10 111.5t26.5 107t45 82t74 56.5t108.5 19z" />
    <glyph glyph-name="eth.smcp" horiz-adv-x="612" 
d="M309 0h-18h-231l41 262h-76l9 56h76l40 254h230q50 -1 88 -20t57 -50q40 -65 40 -140q0 -34 -6 -91q-25 -161 -99 -221q-24 -20 -42 -30q-40 -20 -109 -20zM305 88q77 0 116 59q33 53 46 136q6 39 6 80t-17 72q-27 49 -87 49h-140l-27 -166h85l-8 -56h-86l-28 -174h140z
" />
    <glyph glyph-name="egrave.smcp" horiz-adv-x="514" 
d="M226 766h96l98 -135h-75zM275 484q-21 0 -27.5 -6.5t-9.5 -25.5l-20 -123l273 -8l-12 -73l-275 -7l-19 -123q-4 -20 4 -26t27 -6h270l-12 -73q-15 -4 -237 -12l-73 -3q-41 0 -59.5 21.5t-18.5 50.5q0 9 2 19l61 386q7 47 40.5 71.5t85.5 24.5q273 -10 286 -13l-12 -74
h-274z" />
    <glyph glyph-name="ecircumflex.smcp" horiz-adv-x="514" 
d="M229 631l136 131h80l81 -131h-72l-53 78l-85 -78h-87zM275 484q-21 0 -27.5 -6.5t-9.5 -25.5l-20 -123l273 -8l-12 -73l-275 -7l-19 -123q-4 -20 4 -26t27 -6h270l-12 -73q-15 -4 -237 -12l-73 -3q-41 0 -59.5 21.5t-18.5 50.5q0 9 2 19l61 386q7 47 40.5 71.5t85.5 24.5
q273 -10 286 -13l-12 -74h-274z" />
    <glyph glyph-name="igrave.smcp" horiz-adv-x="222" 
d="M19 764h95l98 -134h-75zM75 0l90 570h92l-90 -570h-92z" />
    <glyph glyph-name="idieresis.smcp" horiz-adv-x="222" 
d="M61 736q22 0 33.5 -14t11.5 -24q0 -33 -19.5 -50.5t-38.5 -17.5q-34 0 -45 27q-4 8 -4 15q0 30 20 47t42 17zM276 720.5q18 15.5 40 15.5t33.5 -14t11.5 -24q0 -33 -19.5 -50.5t-38 -17.5t-29.5 7q-24 16 -20 42t22 41.5zM72 0l90 570h92l-90 -570h-92z" />
    <glyph glyph-name="ntilde.smcp" horiz-adv-x="602" 
d="M428.5 724q30.5 -16 37.5 -16.5t16 -0.5t44.5 14t45.5 21l14 -47q-7 -5 -23.5 -17t-25.5 -18t-23 -14q-49 -27 -94 -5q-18 9 -33 17t-30 8t-29.5 -4t-23 -7.5t-24.5 -12t-22 -11.5l-15 45q52 41 80 53t51.5 11.5t54 -16.5zM75 0l90 571h89l226 -414l66 414h91l-90 -571
h-88l-225 416l-67 -416h-92z" />
    <glyph glyph-name="ograve.smcp" horiz-adv-x="604" 
d="M234 770h96l98 -135h-75zM305.5 570.5q32.5 4.5 73 4.5t68.5 -2.5t56 -10.5t46 -21q42 -31 54 -88q5 -28 5 -49v-44t-11.5 -95.5t-34 -129.5t-59.5 -88t-80.5 -41.5t-95.5 -10.5t-80 3t-55 11t-46 21q-42 31 -54 88q-6 29 -6 70.5t9 99t22.5 102.5t32 77.5t40.5 53.5
t52.5 33t63 16.5zM378 486h-3q-61 0 -75 -5.5t-28 -12t-22 -16.5t-18.5 -25.5t-17.5 -35.5q-35 -100 -35 -197q0 -80 47 -98q30 -12 71 -12t55 1t34 5t32.5 11.5t27.5 22.5t25 36q24 51 33 110q11 69 11 99.5t-1.5 47.5t-11.5 31t-18.5 22t-28.5 11q-28 5 -77 5z" />
    <glyph glyph-name="oacute.smcp" horiz-adv-x="604" 
d="M353 635l124 135h102l-151 -135h-75zM305.5 570.5q32.5 4.5 73 4.5t68.5 -2.5t56 -10.5t46 -21q42 -31 54 -88q5 -28 5 -49v-44t-11.5 -95.5t-34 -129.5t-59.5 -88t-80.5 -41.5t-95.5 -10.5t-80 3t-55 11t-46 21q-42 31 -54 88q-6 29 -6 70.5t9 99t22.5 102.5t32 77.5
t40.5 53.5t52.5 33t63 16.5zM378 486h-3q-61 0 -75 -5.5t-28 -12t-22 -16.5t-18.5 -25.5t-17.5 -35.5q-35 -100 -35 -197q0 -80 47 -98q30 -12 71 -12t55 1t34 5t32.5 11.5t27.5 22.5t25 36q24 51 33 110q11 69 11 99.5t-1.5 47.5t-11.5 31t-18.5 22t-28.5 11q-28 5 -77 5z
" />
    <glyph glyph-name="ugrave.smcp" horiz-adv-x="607" 
d="M254 764h96l98 -134h-75zM208 260q-8 -44 -8 -70t5 -44t14 -30.5t26 -19.5q29 -12 74.5 -12t71 6.5t48.5 25.5q44 36 62 144l49 310h93l-49 -314q-30 -189 -133 -236q-34 -16 -64 -20.5t-64.5 -4.5t-56.5 2t-46 6.5t-41.5 13.5t-33.5 23q-30 25 -43 82q-5 24 -5 41
q0 53 8 101l49 306h93z" />
    <glyph glyph-name="yacute.smcp" horiz-adv-x="571" 
d="M347 630l124 134h102l-151 -134h-75zM123 570h97l109 -276l196 276h104l-265 -378l-30 -193h-92l30 193z" />
    <glyph glyph-name="thorn.smcp" horiz-adv-x="517" 
d="M380 468q103 0 123 -99q4 -20 4 -39t-3.5 -53t-18 -70t-31.5 -54.5t-41 -29.5q-35 -16 -83 -15q-93 0 -149 16l-20 -124h-91l90 569h91l-16 -101h145zM416 326q0 56 -56 56h-139l-28 -184h139q41 0 59 28q15 24 20 55.5t5 44.5z" />
    <glyph glyph-name="quotesinglbase.smcp" horiz-adv-x="251" 
d="M99 -1q-12 0 -18.5 7t-4.5 21l11 67q5 30 32 30h64q23 0 23 -21q0 -4 -1 -9l-18 -108q-9 -58 -57 -80q-19 -9 -38.5 -9t-30.5 2l7 41q33 -1 39 34l4 25h-12z" />
    <glyph glyph-name="quotedblleft.smcp" horiz-adv-x="408" 
d="M193.5 560q17.5 7 31.5 9t20.5 2h11.5l11 -2l-7 -40q-32 1 -38 -34l-5 -26h12q28 0 24 -27l-12 -68q-4 -29 -31 -29h-65q-22 0 -22 20q0 4 1 9l16 108q5 31 20 51t32.5 27zM354.5 560q17.5 7 31 9t20.5 2h11l11 -2l-6 -40q-15 0 -24 -6.5t-11 -12.5t-4 -15l-4 -26h12
q24 0 24 -20q0 -3 -1 -7l-11 -68q-5 -29 -32 -29h-64q-23 0 -23 21q0 4 1 8l18 108q5 31 19.5 51t32 27z" />
    <glyph glyph-name="quotedblright.smcp" horiz-adv-x="408" 
d="M163 447q-28 0 -23 27l11 68q4 30 31 30h65q22 0 22 -21q0 -4 -1 -9l-16 -108q-5 -31 -20 -51t-33 -27q-28 -11 -43 -11h-20l-11 2l7 41q33 -1 38 33l5 26h-12zM324 447q-28 0 -24 27l11 68q5 30 32 30h65q22 0 22 -21q0 -4 -1 -9l-17 -108q-5 -31 -19.5 -51t-32.5 -27
q-29 -11 -44 -11h-19l-11 2l6 41q15 -1 24 6t11 12.5t4 14.5l5 26h-12z" />
    <glyph glyph-name="quotedblbase.smcp" horiz-adv-x="408" 
d="M93 0q-12 0 -18.5 7t-4.5 20l11 68q4 29 31 29h65q22 0 22 -20q0 -4 -1 -9l-16 -108q-5 -31 -20 -51t-33 -27q-28 -11 -43 -11h-20l-11 2l7 41q15 -1 24 6t11 12.5t3 14.5l5 26h-12zM254 0q-12 0 -19 7t-5 20l11 68q5 29 32 29h65q22 0 22 -20q0 -4 -1 -9l-17 -108
q-5 -31 -20 -51t-32 -27q-37 -14 -63 -11l-12 2l7 41q33 -1 39 33l4 26h-11z" />
    <glyph glyph-name="exclamdown.smcp" horiz-adv-x="267" 
d="M83 0l67 398h86l-50 -398h-103zM170 456q-19 0 -19 20q0 2 1 5l10 66q3 23 26 23h64q10 0 16 -6.5t5 -16.5l-11 -66q-3 -25 -28 -25h-64z" />
    <glyph glyph-name="ordmasculine.smcp" horiz-adv-x="412" 
d="M73 128l10 61h311l-10 -61h-311zM292 582q87 0 122 -42q25 -29 25 -87q0 -27 -8 -77t-27 -86q-38 -73 -166 -73q-87 0 -121 42q-23 30 -23 84q0 24 6.5 65.5t18.5 75t34 56.5t55 32q33 10 84 10zM188 460.5q-9 -24.5 -14.5 -60t-5.5 -53t4.5 -29t9.5 -18t17 -10.5
q20 -4 46 -4t34.5 0.5t24 5.5t24.5 16q31 41 36 135q1 5 1 14t-3.5 20.5t-8 19t-16.5 10.5q-19 6 -51 6t-45.5 -2.5t-28.5 -14t-24 -36z" />
    <glyph glyph-name="ordfeminine.smcp" horiz-adv-x="411" 
d="M77 131l10 61h329l-10 -61h-329zM93 222l169 351h96l60 -351h-71l-15 89h-118l-43 -89h-78zM242 374h80l-20 126z" />
    <glyph glyph-name="Euro.smcp" horiz-adv-x="516" 
d="M362 577q35 0 98.5 -7.5t107.5 -15.5l-11 -74q-133 11 -179.5 11t-69 -8.5t-35.5 -20.5t-22 -30q-13 -26 -20 -63l182 -6l-9 -50l-183 -5l-8 -53l181 -5l-7 -52q-186 -4 -184 -6q-7 -52 1 -67t15.5 -23t20.5 -12q21 -8 54 -8q70 0 171 11l34 3l-12 -73q-95 -28 -212 -28
q-54 0 -87.5 16t-50.5 37q-30 35 -30 100q0 21 4 44l-65 6l8 52l66 5l8 53l-64 6l7 48l67 7q11 71 32 108q28 48 67 70q54 30 125 30z" />
    <glyph glyph-name="lcaron.smcp" horiz-adv-x="495" 
d="M222 89h255l-14 -89h-296q-43 0 -62 21.5t-19 51.5q0 10 2 22l74 475h92l-70 -448q-5 -22 4.5 -27.5t33.5 -5.5zM309 410l10 134l10 67h80l-10 -67l-31 -134h-59z" />
    <glyph glyph-name="sacute.smcp" horiz-adv-x="538" 
d="M316 633l124 135h103l-152 -135h-75zM354 76q52 0 60 49l10 61q1 12 1 23t-6.5 19t-38.5 8h-151q-67 0 -94.5 29t-27.5 77q0 16 2 33l8 56q22 142 167 142q42 0 128 -6.5t135 -14.5l-11 -69q-158 5 -258 5q-59 0 -68 -61l-8 -51q-4 -22 -1.5 -29t4 -11t6.5 -6.5t7.5 -3.5
t9.5 -2h24h152q67 0 94 -38q20 -29 20 -69q0 -15 -2 -31l-10 -64q-21 -132 -154 -132q-53 0 -153.5 6.5t-123.5 16.5l10 67q172 -4 269 -4z" />
    <glyph glyph-name="scedilla.smcp" horiz-adv-x="538" 
d="M199 -172h-53l7 43l53 15q21 8 30 27t14 52h75q-12 -78 -39 -107.5t-87 -29.5zM354 76q52 0 60 49l10 61q1 12 1 23t-6.5 19t-38.5 8h-151q-67 0 -94.5 29t-27.5 77q0 16 2 33l8 56q22 142 167 142q42 0 128 -6.5t135 -14.5l-11 -69q-158 5 -258 5q-59 0 -68 -61l-8 -51
q-4 -22 -1.5 -29t4 -11t6.5 -6.5t7.5 -3.5t9.5 -2h24h152q67 0 94 -38q20 -29 20 -69q0 -15 -2 -31l-10 -64q-21 -132 -154 -132q-53 0 -153.5 6.5t-123.5 16.5l10 67q172 -4 269 -4z" />
    <glyph glyph-name="tcaron.smcp" horiz-adv-x="603" 
d="M313 773h72l53 -78l85 78h86l-135 -131h-80zM185 481l15 89h452l-15 -89h-180l-76 -481h-92l76 481h-180z" />
    <glyph glyph-name="zacute.smcp" horiz-adv-x="497" 
d="M302 630l124 134h103l-152 -134h-75zM33 0l14 89l374 392h-312l14 89h432l-14 -89l-368 -392h306l-14 -89h-432z" />
    <glyph glyph-name="zdotaccent.smcp" horiz-adv-x="497" 
d="M338 738h56q23 0 19 -25l-10 -60q-3 -23 -26 -23h-56q-10 0 -16 6.5t-5 16.5l10 60q4 25 28 25zM33 0l14 89l374 392h-312l14 89h432l-14 -89l-368 -392h306l-14 -89h-432z" />
    <glyph glyph-name="racute.smcp" horiz-adv-x="536" 
d="M310 631l123 134h103l-151 -134h-75zM409 571q54 0 95 -36q41 -35 41 -114q0 -91 -37.5 -139t-94.5 -54l93 -228h-98l-85 218q-22 1 -80 7t-58 7l-37 -232h-92l90 571h263zM363 299q32 0 54.5 19.5t34.5 78.5q2 12 2 23.5t-5 26.5t-18 23q-23 15 -38 15h-168l-30 -186
h168z" />
    <glyph glyph-name="abreve.smcp" horiz-adv-x="595" 
d="M351 744q-1 -6 -1 -20t14 -29.5t40 -15.5h3q64 0 73 65h49q-14 -114 -125 -114q-44 0 -73 29t-29 72v13h49zM33 0l314 570h99l117 -570h-93l-32 142h-226l-75 -142h-104zM257 227h168l-46 223z" />
    <glyph glyph-name="lacute.smcp" horiz-adv-x="497" 
d="M183 630l124 134h102l-151 -134h-75zM225 89h255l-14 -89h-296q-44 0 -63 21.5t-19 51.5q0 10 2 22l75 475h92l-71 -448q-4 -10 -1 -16t4.5 -9.5t8.5 -5.5q10 -2 27 -2z" />
    <glyph glyph-name="cacute.smcp" horiz-adv-x="518" 
d="M324 643l124 135h102l-151 -135h-75zM352 578q63 0 130 -9.5t92 -16.5l-11 -70q-13 3 -91.5 7.5t-120 4.5t-69 -13.5t-44.5 -40.5q-41 -62 -55 -199q-2 -23 -2 -49t6 -44.5t17 -34.5q21 -32 78 -33l219 12l-11 -68q-119 -28 -230 -28q-91 0 -129 51q-39 52 -42 122
q-1 15 -1 33q0 49 10 111.5t26.5 107t45 82t74 56.5t108.5 19z" />
    <glyph glyph-name="ecaron.smcp" horiz-adv-x="514" 
d="M257 762h72l54 -78l84 78h87l-136 -131h-79zM275 484q-21 0 -27.5 -6.5t-9.5 -25.5l-20 -123l273 -8l-12 -73l-275 -7l-19 -123q-4 -20 4 -26t27 -6h270l-12 -73q-15 -4 -237 -12l-73 -3q-41 0 -59.5 21.5t-18.5 50.5q0 9 2 19l61 386q7 47 40.5 71.5t85.5 24.5
q273 -10 286 -13l-12 -74h-274z" />
    <glyph glyph-name="dcaron.smcp" horiz-adv-x="599" 
d="M312 764h72l54 -79l84 79h87l-136 -132h-79zM395 0h-16h-253l91 572h252q51 -1 87.5 -20.5t55.5 -50.5q37 -58 37 -149q0 -97 -30 -184q-30 -83 -73 -119q-24 -19 -42 -29q-39 -20 -109 -20zM388 88q78 0 116 59q34 53 47 136q6 38 6 79.5t-18 72.5q-27 49 -88 49h-157
l-62 -396h156z" />
    <glyph glyph-name="nacute.smcp" horiz-adv-x="602" 
d="M373 631l124 135h102l-151 -135h-75zM75 0l90 571h89l226 -414l66 414h91l-90 -571h-88l-225 416l-67 -416h-92z" />
    <glyph glyph-name="ncaron.smcp" horiz-adv-x="602" 
d="M283 762h72l54 -78l85 78h86l-136 -131h-79zM75 0l90 571h89l226 -414l66 414h91l-90 -571h-88l-225 416l-67 -416h-92z" />
    <glyph glyph-name="ohungarumlaut.smcp" horiz-adv-x="604" 
d="M283 635l124 135h103l-152 -135h-75zM424 635l124 135h102l-151 -135h-75zM305.5 570.5q32.5 4.5 73 4.5t68.5 -2.5t56 -10.5t46 -21q42 -31 54 -88q5 -28 5 -49v-44t-11.5 -95.5t-34 -129.5t-59.5 -88t-80.5 -41.5t-95.5 -10.5t-80 3t-55 11t-46 21q-42 31 -54 88
q-6 29 -6 70.5t9 99t22.5 102.5t32 77.5t40.5 53.5t52.5 33t63 16.5zM378 486h-3q-61 0 -75 -5.5t-28 -12t-22 -16.5t-18.5 -25.5t-17.5 -35.5q-35 -100 -35 -197q0 -80 47 -98q30 -12 71 -12t55 1t34 5t32.5 11.5t27.5 22.5t25 36q24 51 33 110q11 69 11 99.5t-1.5 47.5
t-11.5 31t-18.5 22t-28.5 11q-28 5 -77 5z" />
    <glyph glyph-name="rcaron.smcp" horiz-adv-x="536" 
d="M224 762h72l53 -78l85 78h86l-135 -131h-80zM409 571q54 0 95 -36q41 -35 41 -114q0 -91 -37.5 -139t-94.5 -54l93 -228h-98l-85 218q-22 1 -80 7t-58 7l-37 -232h-92l90 571h263zM363 299q32 0 54.5 19.5t34.5 78.5q2 12 2 23.5t-5 26.5t-18 23q-23 15 -38 15h-168
l-30 -186h168z" />
    <glyph glyph-name="uring.smcp" horiz-adv-x="607" 
d="M438 834q42 0 67.5 -28t25.5 -64q0 -34 -17 -60q-35 -52 -93 -52q-42 0 -68 28t-26 64q0 48 34.5 80t76.5 32zM434 784q-21 0 -39 -16.5t-18 -37.5t13 -35t34.5 -14t37.5 15q18 16 18 37.5t-12.5 36t-33.5 14.5zM208 260q-8 -44 -8 -70t5 -44t14 -30.5t26 -19.5
q29 -12 74.5 -12t71 6.5t48.5 25.5q44 36 62 144l49 310h93l-49 -314q-30 -189 -133 -236q-34 -16 -64 -20.5t-64.5 -4.5t-56.5 2t-46 6.5t-41.5 13.5t-33.5 23q-30 25 -43 82q-5 24 -5 41q0 53 8 101l49 306h93z" />
    <glyph glyph-name="uhungarumlaut.smcp" horiz-adv-x="607" 
d="M305 630l124 134h102l-151 -134h-75zM446 630l123 134h103l-151 -134h-75zM208 260q-8 -44 -8 -70t5 -44t14 -30.5t26 -19.5q29 -12 74.5 -12t71 6.5t48.5 25.5q44 36 62 144l49 310h93l-49 -314q-30 -189 -133 -236q-34 -16 -64 -20.5t-64.5 -4.5t-56.5 2t-46 6.5
t-41.5 13.5t-33.5 23q-30 25 -43 82q-5 24 -5 41q0 53 8 101l49 306h93z" />
    </font>
</defs>
</svg>
