<?xml version="1.0" standalone="no"?>
<!DOCTYPE svg PUBLIC "-//W3C//DTD SVG 1.1//EN" "http://www.w3.org/Graphics/SVG/1.1/DTD/svg11.dtd" >
<svg xmlns="http://www.w3.org/2000/svg" xmlns:xlink="http://www.w3.org/1999/xlink" version="1.1">
<metadata>
Created by FontForge 20170731 at Fri May 29 12:49:45 2015
 By Aleksey,,,
2015 Iconian Fonts - www.iconian.com
</metadata>
<defs>
<font id="GentlemanCallerCondensedItalic" horiz-adv-x="407" >
  <font-face 
    font-family="Gentleman Caller Condensed Italic"
    font-weight="400"
    font-style="italic"
    font-stretch="condensed"
    units-per-em="1000"
    panose-1="0 0 0 0 0 0 0 0 0 0"
    ascent="800"
    descent="-200"
    x-height="643"
    cap-height="721"
    bbox="-56 -123 842.138 807"
    underline-thickness="50"
    underline-position="-175"
    unicode-range="U+0020-2122"
  />
<missing-glyph horiz-adv-x="500" 
 />
    <glyph glyph-name=".notdef" horiz-adv-x="500" 
 />
    <glyph glyph-name=".null" horiz-adv-x="0" 
 />
    <glyph glyph-name="nonmarkingreturn" horiz-adv-x="500" 
 />
    <glyph glyph-name="FL0020h" unicode=" " horiz-adv-x="287" 
 />
    <glyph glyph-name="FL0021h" unicode="!" horiz-adv-x="218" 
d="M208 197h-128l67 382q2 11 -6 20t-15 12l5 32h180l-5 -32q-7 -3 -18 -12t-13 -20zM59 71q5 30 26.5 50.5t47.5 20.5t42 -20.5t11 -50.5q-6 -30 -29 -50.5t-49 -20.5t-40.5 20.5t-8.5 50.5z" />
    <glyph glyph-name="FL0022h" unicode="&#x22;" horiz-adv-x="343" 
d="M160 643l-28 -162q-3 -14 -14 -24.5t-21 -13.5v-1h-1l-6 -34h74q12 0 27 5.5t29.5 15.5t25 25t13.5 33l27 156h-126zM311 643l-28 -162q-3 -14 -14 -24.5t-21 -13.5v-1l-6 -34h73q12 0 27 5.5t29.5 15.5t25 25t13.5 33l27 156h-126z" />
    <glyph glyph-name="FL0023h" unicode="#" horiz-adv-x="517" 
d="M547 280l-17 -96h-31q5 30 -2.5 37.5t-22.5 7.5h-18l-29 -164q-2 -11 6 -20.5t15 -12.5l-6 -32h-116q-8 5 -13 14.5t-8 20t-4.5 19t-1.5 11.5l29 164h-61l-29 -164q-2 -11 6 -20.5t16 -12.5l-6 -32h-180l6 32q7 3 17.5 12.5t12.5 20.5l29 164h-16q-15 0 -25.5 -7.5
t-15.5 -37.5h-32l17 96h81l17 93h-81l17 96h32q-3 -16 -2.5 -25t4.5 -13.5t9.5 -6t13.5 -1.5h16l27 156q2 11 -5.5 20t-13.5 12l5 32h96q6 0 14.5 -7.5t16 -18t12 -21.5t3.5 -17l-27 -156h61l27 156q2 11 -6 20t-14 12l5 32h180l-5 -32q-8 -3 -19 -12t-13 -20l-27 -156h18
q7 0 13.5 1.5t11.5 6t9 13.5t7 25h31l-17 -96h-82l-17 -93h82zM354 373h-61l-17 -93h61z" />
    <glyph glyph-name="FL0024h" unicode="$" horiz-adv-x="406" 
d="M269 0h-128l17 99h-3q-6 0 -20 4.5t-28.5 12.5t-24 20.5t-6.5 27.5l7 38q2 12 -6 24t-17 15l6 34h73q12 -1 25.5 -6t24 -15t16 -24t2.5 -33l-3 -17q-3 -17 5 -27t19 -10h3q29 0 35 40l14 76q1 16 -3 27.5t-21 16.5h-73q-10 0 -23.5 4t-25.5 12t-19 19.5t-4 26.5l24 134
q4 24 16 38t26 20.5t28.5 8t24.5 1.5h11l13 76h128l-13 -76h6q9 0 23 -1t26 -7t19 -19.5t3 -38.5l-10 -57q-2 -11 6 -24t16 -15l-6 -34h-73q-12 1 -25 6t-23 15t-15.5 24t-2.5 33l4 21q3 16 -2 34.5t-20 18.5q-18 -5 -26 -17t-13 -27l-15 -88q-3 -17 0 -29.5t14 -15.5h82
q10 0 23.5 -1t25.5 -7.5t18.5 -20t2.5 -37.5l-20 -116q-3 -15 -14 -27.5t-25.5 -20.5t-29.5 -12.5t-25 -4.5h-7z" />
    <glyph glyph-name="FL0025h" unicode="%" horiz-adv-x="415" 
d="M188 676h86q6 0 14.5 -1t16 -5t12 -12.5t1.5 -23.5l-41 -232l151 241h74l-5 -32q-8 -3 -17 -12.5t-15 -19.5l-142 -225h85q6 0 14.5 -1t16 -5t11.5 -13t1 -24l-54 -305q-4 -18 -24 -28t-33 -10h-87q-5 0 -13 2.5t-15 7.5t-11.5 12t-2.5 16l41 235l-152 -241h-74l6 32
q6 3 17 12.5t13 20.5l143 225h-85q-5 0 -13.5 2.5t-16 7.5t-12 12t-2.5 16l54 306q3 15 10 23.5t15.5 12.5t17.5 5t15 1zM353 292q-6 0 -9 -9.5t-5 -17.5l-38 -214q-2 -8 -1.5 -15t7.5 -7q12 0 16 28l37 208q2 8 0 17.5t-7 9.5zM222 615q-7 0 -10 -9t-5 -17l-38 -215
q-2 -8 -1.5 -15t7.5 -7q12 0 16 28l37 209q2 8 0.5 17t-6.5 9z" />
    <glyph glyph-name="FL0026h" unicode="&#x26;" horiz-adv-x="386" 
d="M295 571q-5 10 -9.5 16.5t-13.5 9.5q-10 -4 -18.5 -9.5t-10.5 -16.5l-27 -152q-4 -20 -3.5 -37.5t14.5 -19.5h147q7 0 13 1.5t11 6t9 13.5t7 25h32l-24 -136h-32l1 5q2 13 1.5 19t-3.5 8t-7.5 3t-10.5 5l-44 -247q-3 -15 -14.5 -27.5t-25.5 -20.5t-28.5 -12.5t-24.5 -4.5
h-132q-10 0 -23.5 4.5t-25.5 12.5t-19.5 20.5t-4.5 27.5l41 231q5 25 17 41t20 19l2 4q-6 6 -13.5 20t-5.5 30l28 157q4 21 15 35.5t25.5 23.5t30.5 13t30 4h128q9 0 23 -1t26 -7t19 -19.5t3 -37.5l-14 -80q-2 -11 5.5 -24t16.5 -15l-6 -34h-71q-12 1 -25 6t-23 15t-15.5 24
t-2.5 33zM159 103q-5 -26 -4 -42.5t15 -16.5h10q14 0 20.5 16.5t11.5 42.5l33 188q-2 13 -5.5 17.5t-20.5 6.5q-14 -2 -17 -7t-10 -17z" />
    <glyph glyph-name="FL0027h" unicode="'" horiz-adv-x="192" 
d="M160 643l-28 -162q-3 -14 -14 -24.5t-21 -13.5v-1h-1l-6 -34h74q12 0 27 5.5t29.5 15.5t25 25t13.5 33l27 156h-126z" />
    <glyph glyph-name="FL0028h" unicode="(" horiz-adv-x="189" 
d="M25 39l99 560q3 19 13.5 33.5t24 24t28.5 15t28 6.5h72l-7 -35q-9 -3 -21 -14t-14 -22l-35 -198q-5 -15 -16.5 -29.5t-19.5 -19.5l1 -4q6 -2 12.5 -19t1.5 -41l-45 -257q-5 -24 3 -31.5t20 -7.5l-6 -35h-60q-13 0 -28 4t-27.5 13t-19.5 23t-4 34z" />
    <glyph glyph-name="FL0029h" unicode=")" horiz-adv-x="189" 
d="M177 39l99 560q3 19 -2 33.5t-15 24t-23 15t-25 6.5h-73l-7 -35q9 -3 17 -14t6 -22l-35 -198h1q-1 -15 6 -29.5t12 -19.5l-1 -4q-8 -2 -19.5 -19t-16.5 -41l-45 -257q-5 -24 -15.5 -31.5t-22.5 -7.5l-6 -35h61q12 0 28.5 4t32.5 13t28 23t15 34z" />
    <glyph glyph-name="FL002Ah" unicode="*" horiz-adv-x="199" 
d="M220 622q9 10 9 15q2 5 -5 16l-3 7l26 26l42 -73l-25 -27q-5 10 -9 13t-6 3q-3 0 -10 -7l-15 -15l10 -13q5 -8 8 -8q5 0 20 15l16 -26l-68 -72l-17 25l6 7q6 8 8 13q-1 5 -1.5 8.5t-1.5 11.5l-7 11l-12 -13q-9 -11 -9 -14q-2 -11 7 -24l-24 -26l-44 73l26 27l3 -7
q5 -8 9 -8l8 4l7 5l11 11l-6 13q-7 10 -11 10q-1 0 -12 -8l-7 -9l-17 27l70 74l15 -27q-15 -18 -16 -23q-1 -4 1 -7t4 -7l8 -13z" />
    <glyph glyph-name="FL002Bh" unicode="+" horiz-adv-x="258" 
d="M180 383q3 20 -0.5 31t-25.5 11h-4l7 38h109l-7 -38q-26 0 -33.5 -11.5t-10.5 -30.5l-7 -35h28q14 0 25 7.5t16 38.5h31l-24 -136h-31l2 6q2 14 0.5 20.5t-5.5 9.5t-9.5 4.5t-11.5 5.5h-28l-7 -36q-3 -18 0.5 -29.5t29.5 -11.5l-7 -39h-109l7 39h4q11 0 17 3t9.5 8.5
t6 13t7.5 16.5l7 36h-29q-16 0 -25.5 -6.5t-14.5 -33.5l-2 -6h-32l24 136h32q-5 -31 2.5 -38.5t22.5 -7.5h29z" />
    <glyph glyph-name="FL002Ch" unicode="," horiz-adv-x="163" 
d="M31 71q5 30 27.5 50.5t48.5 20.5t40 -20.5t9 -50.5l-4 -20q-2 -8 -3.5 -23.5t-6.5 -41.5q-3 -18 -13.5 -32.5t-25 -24.5t-30 -16t-27.5 -7h-73l7 35q9 4 20.5 14.5t13.5 23.5z" />
    <glyph glyph-name="FL002Dh" unicode="-" horiz-adv-x="206" 
d="M137 304q-16 0 -25.5 -6.5t-14.5 -33.5l-2 -6h-32l24 136h32q-5 -31 2.5 -38.5t22.5 -7.5h39q15 0 25.5 7.5t15.5 38.5h31l-24 -136h-31l2 6q2 14 1 20.5t-5 9.5t-9.5 4.5t-12.5 5.5h-39z" />
    <glyph glyph-name="FL002Eh" unicode="." horiz-adv-x="163" 
d="M31 71q5 30 27 50.5t49 20.5q26 0 40.5 -20.5t9.5 -50.5q-6 -30 -27.5 -50.5t-47.5 -20.5q-27 0 -42 20.5t-9 50.5z" />
    <glyph glyph-name="FL002Fh" unicode="/" horiz-adv-x="401" 
d="M55 65l366 578h74l-5 -32q-8 -3 -17 -12.5t-15 -19.5l-365 -579h-75l6 32q7 3 18 12.5t13 20.5z" />
    <glyph glyph-name="FL0030h" unicode="0" horiz-adv-x="349" 
d="M215 643h144q10 0 24 -1.5t26 -8.5t19 -21.5t3 -39.5l-90 -507q-3 -15 -14 -27.5t-25.5 -20.5t-29.5 -12.5t-25 -4.5h-145q-10 0 -23.5 4.5t-25.5 12.5t-19.5 20.5t-4.5 27.5l90 510q4 24 16 37.5t26.5 20.5t29 8.5t24.5 1.5zM180 44q21 0 30 16.5t14 42.5l44 248
l-99 -205l-10 -55q-3 -19 1.5 -33t19.5 -14zM280 599q-15 0 -26.5 -18t-14.5 -35l-40 -231l99 207l4 24q3 17 -2 35t-20 18z" />
    <glyph glyph-name="FL0031h" unicode="1" horiz-adv-x="236" 
d="M131 643h173l-102 -578q-2 -11 6 -20.5t16 -12.5l-6 -32h-180l6 32q7 3 17.5 12.5t12.5 20.5l94 528q-17 -11 -24 -30h-27z" />
    <glyph glyph-name="FL0032h" unicode="2" horiz-adv-x="406" 
d="M309 599q16 -5 20.5 -16.5t2.5 -27.5l-28 -156q-3 -17 -10 -30t-19 -16h-83q-10 0 -24 -1t-28.5 -7.5t-26 -20t-15.5 -37.5l-51 -287h311l37 210q2 11 14 23t22 15l6 35h-73q-12 -1 -27 -6.5t-29 -15t-24.5 -24t-13.5 -33.5l-28 -160h-33q-15 0 -19.5 14t-1.5 33l31 175
q5 16 12.5 27.5t26.5 16.5h73q10 0 24.5 4t29 12t25.5 20t14 27l36 203q4 24 -3 37.5t-19 20t-25.5 8t-23.5 1.5h-145q-9 0 -23.5 -1t-29 -7t-26.5 -19.5t-16 -37.5l-22 -127q-2 -11 -14.5 -24t-21.5 -15l-6 -34h73q12 1 27.5 6.5t29 15t24 23.5t13.5 33l16 90q3 17 14.5 35
t26.5 18z" />
    <glyph glyph-name="FL00D0h" unicode="3" horiz-adv-x="378" 
d="M309 599q-15 0 -26.5 -18t-14.5 -35l-16 -90q-3 -19 -13.5 -33t-24 -23.5t-29 -15t-27.5 -6.5h-73l6 34q9 2 21.5 15t14.5 24l22 127q4 24 16 37.5t26.5 19.5t29 7t23.5 1h145q12 0 25.5 -4.5t24 -13.5t16.5 -23.5t3 -34.5l-27 -155q-3 -16 -16.5 -31t-21.5 -21l1 -4
q6 -3 13.5 -20t2.5 -42l-41 -233q-3 -14 -16 -25t-28 -19t-28.5 -12.5t-17.5 -4.5h-141q-6 0 -20.5 4.5t-28.5 12.5t-24 20.5t-7 27.5l26 145q2 11 -6 23t-16 15l6 35h73q12 -1 25 -6.5t23.5 -15t16 -24t2.5 -33.5l-20 -116q-3 -16 4.5 -30t18.5 -14h3q15 0 24 14t12 33
l31 175q1 11 -0.5 19.5t-8.5 16.5q-9 -2 -14.5 -10.5t-8.5 -27.5l-2 -6h-32l24 136h32q-3 -18 -2 -27t7 -14h9q14 6 17 26l31 179l-1 -3q2 16 -2.5 27.5t-20.5 16.5z" />
    <glyph glyph-name="FL0034h" unicode="4" horiz-adv-x="401" 
d="M382 0l6 32q-8 3 -15.5 12.5t-5.5 20.5l91 514q2 11 13 20t19 12l5 32h-124q-6 0 -12.5 -7t-11.5 -17t-9 -21t-5 -19l-36 -203h-62l37 209q2 7 12.5 15t17.5 11l5 32h-176l-5 -32q6 -3 14.5 -12t6.5 -20l-44 -249h186l-47 -265q-2 -11 -13 -20.5t-17 -12.5l-6 -32h176z
" />
    <glyph glyph-name="FL0035h" unicode="5" horiz-adv-x="406" 
d="M309 599h-31l-36 -200q-3 -17 0 -30t14 -16h82q10 0 23.5 -1t25.5 -7.5t19 -20t3 -37.5l-40 -222q-3 -15 -14 -27.5t-25.5 -20.5t-29 -12.5t-24.5 -4.5h-138q-6 0 -20.5 4.5t-28.5 12.5t-24 20.5t-7 27.5l26 145q2 11 -6 23t-16 15l6 35h73q12 -1 25 -6.5t23.5 -15
t16 -24t2.5 -33.5l-20 -116q-3 -16 4.5 -30t18.5 -14h3q15 0 24 14t12 33l31 175q2 16 -2.5 27.5t-20.5 16.5h-73q-10 0 -23.5 4t-25.5 12t-19 20t-4 27l47 270h311l-33 -192q-2 -11 5.5 -24t16.5 -15l-6 -34h-73q-12 1 -25 6.5t-23.5 15t-16 23.5t-2.5 33l16 90
q3 17 -1.5 35t-19.5 18z" />
    <glyph glyph-name="FL0036h" unicode="6" horiz-adv-x="378" 
d="M341 65q-3 -15 -17 -27.5t-30.5 -20.5t-32 -12.5t-22.5 -4.5h-137q-10 0 -23.5 4.5t-25.5 12.5t-19.5 20.5t-4.5 27.5l91 511q4 24 15.5 37.5t26 20t29 8t24.5 1.5h144q9 0 23.5 -1t26.5 -7t19.5 -19.5t3.5 -37.5l-13 -72q-2 -11 5.5 -24t15.5 -15l-6 -34h-72
q-12 1 -25 6.5t-23 15t-15.5 23.5t-2.5 33l6 35q3 17 -2 35t-20 18q-19 -5 -26.5 -16.5t-12.5 -27.5l-22 -125q4 -26 22 -37h118q16 -11 23.5 -32t5.5 -33zM264 328q-7 28 -27 28q-9 0 -19 -6t-17 -19l-42 -240q-3 -19 1.5 -33t19.5 -14h2q12 0 23.5 14t16.5 30z" />
    <glyph glyph-name="FL0037h" unicode="7" horiz-adv-x="408" 
d="M107 0l6 32q8 3 19 12.5t13 20.5h4l230 504l6 31h-97q-7 0 -9.5 -6t-3.5 -11l-26 -144q-3 -19 -13.5 -33t-24 -23.5t-29 -15t-27.5 -6.5h-73l6 34q9 2 21.5 15t14.5 24l36 209h342l-13 -75l-234 -510q2 -9 8.5 -16.5t12.5 -9.5l-6 -32h-163z" />
    <glyph glyph-name="FL0038h" unicode="8" horiz-adv-x="343" 
d="M219 643h132q13 0 28 -4t26.5 -13t17.5 -23.5t2 -35.5l-27 -155q-3 -16 -17 -31t-22 -21l1 -4q6 -3 14 -20t3 -42l-41 -229q-3 -15 -14.5 -27.5t-26 -20.5t-29.5 -12.5t-24 -4.5h-140q-10 0 -23.5 4.5t-25.5 12.5t-19.5 20.5t-4.5 27.5l41 229q5 25 18.5 42t20.5 20l2 4
q-6 6 -14.5 21t-5.5 31l27 155q4 21 15 35.5t25.5 23.5t30.5 13t30 4zM159 103q-5 -26 -4 -42.5t15 -16.5h19q14 0 20 16.5t11 42.5l35 200q-2 13 -5 18t-20 7q-19 -2 -24 -7t-12 -18zM214 409q-4 -20 3 -26.5t21 -8.5q14 2 23 8.5t13 26.5l29 162q2 14 -6.5 22t-20.5 8h4
q-12 0 -23.5 -8t-13.5 -22z" />
    <glyph glyph-name="FL0039h" unicode="9" horiz-adv-x="378" 
d="M149 579q3 15 17 27t30.5 20t32 12.5t22.5 4.5h138q9 0 22.5 -4.5t25.5 -12.5t19 -20t4 -27l-90 -512q-4 -24 -15.5 -37.5t-26 -20t-28.5 -8t-24 -1.5h-145q-9 0 -23 1t-26.5 7t-20 19.5t-2.5 38.5l12 72q2 10 -5.5 23t-16.5 15l6 35h73q13 -1 26 -6.5t23 -15t15.5 -24
t2.5 -33.5l-6 -35q-3 -16 2 -34.5t20 -18.5q18 5 26 16.5t13 27.5l22 125q-1 24 -22 37h-118q-17 11 -24 32.5t-5 32.5zM226 315q6 -27 27 -27q9 0 19.5 6t16.5 19l43 240q3 19 -2 32.5t-20 13.5h-2q-12 0 -23.5 -13.5t-16.5 -30.5z" />
    <glyph glyph-name="FL003Ah" unicode=":" horiz-adv-x="163" 
d="M31 71q5 30 27 50.5t49 20.5q26 0 40.5 -20.5t9.5 -50.5q-6 -30 -27.5 -50.5t-47.5 -20.5q-27 0 -42 20.5t-9 50.5zM75 326q5 29 27.5 50t48.5 21t40 -21t9 -50q-5 -30 -26.5 -50.5t-47.5 -20.5t-41 20.5t-10 50.5z" />
    <glyph glyph-name="FL003Bh" unicode=";" horiz-adv-x="163" 
d="M75 326q5 29 27.5 50t48.5 21t40 -21t9 -50q-5 -30 -26.5 -50.5t-47.5 -20.5t-41 20.5t-10 50.5zM31 71q5 30 27.5 50.5t48.5 20.5t40 -20.5t9 -50.5l-2 -7l-2 -13q-2 -8 -3.5 -23.5t-6.5 -41.5q-3 -18 -13.5 -32.5t-25 -24.5t-30 -16t-27.5 -7h-73l7 35q9 4 20.5 14.5
t13.5 23.5z" />
    <glyph glyph-name="FL003Ch" unicode="&#x3c;" horiz-adv-x="462" 
d="M274 583l-26 -144q-3 -19 -13.5 -33t-24 -23.5t-29 -15t-27.5 -6.5h-72l6 34q9 2 21.5 15t14.5 24l36 209h395l-13 -75h-26q0 9 -5.5 20.5t-14.5 11.5h-59q-5 -5 -9 -10.5t-5 -10.5l-91 -514q-2 -11 5.5 -20.5t14.5 -12.5l-6 -32h-180l6 32q8 3 18.5 12.5t12.5 20.5
l91 514q1 12 -6 21q-12 -6 -14 -17z" />
    <glyph glyph-name="FL003Dh" unicode="=" horiz-adv-x="206" 
d="M79 348h168l16 90h-31q-5 -31 -15.5 -38.5t-25.5 -7.5h-39q-15 0 -22.5 7.5t-2.5 38.5h-32zM240 304h-168l-16 -90h32q5 31 15.5 38.5t25.5 7.5h39q15 0 22.5 -7.5t2.5 -38.5h31z" />
    <glyph glyph-name="FL0054h" unicode="&#x3e;" horiz-adv-x="462" 
d="M393 583l-26 -144q-3 -19 2.5 -33t16 -23.5t23.5 -15t25 -6.5h73l6 34q-9 2 -16.5 15.5t-5.5 23.5l36 209h-396l-13 -75h27q3 9 12.5 20.5t18.5 11.5h60q3 -5 5.5 -10.5t1.5 -10.5l-91 -514q-2 -11 -13 -20.5t-19 -12.5l-6 -32h180l6 32q-7 3 -14.5 12.5t-5.5 20.5
l91 514q2 10 13 21q11 -6 9 -17z" />
    <glyph glyph-name="FL003Fh" unicode="?" horiz-adv-x="378" 
d="M309 599q-15 0 -26.5 -18t-14.5 -35l-16 -90q-3 -19 -13.5 -33t-24 -23.5t-29 -15t-27.5 -6.5h-73l6 34q9 2 21.5 15t14.5 24l22 127q4 24 16 37.5t26.5 19.5t29 7t23.5 1h145q10 0 23.5 -1.5t25.5 -8t19 -20t3 -37.5l-36 -203q-3 -15 -14 -27t-25.5 -20t-29 -12
t-24.5 -4h-34q-20 -5 -28.5 -16.5t-11.5 -27.5l-12 -69h-127l16 90q4 24 15.5 37.5t26 20t28.5 7.5t24 1h47q12 3 19 16t10 30l28 156q2 16 -2.5 27.5t-20.5 16.5zM96 71q5 30 27.5 50.5t48.5 20.5t41 -20.5t10 -50.5q-6 -30 -28.5 -50.5t-48.5 -20.5q-27 0 -41.5 20.5
t-8.5 50.5z" />
    <glyph glyph-name="FL0040h" unicode="@" horiz-adv-x="538" 
d="M314 501h87q5 0 13.5 -1t16 -5t11.5 -12.5t1 -23.5l-55 -309h5q11 0 22.5 7.5t15.5 31.5l68 383q0 12 -8 23t-17 14h-197q-9 -3 -20.5 -14t-15.5 -23l-94 -533q-5 -24 3 -31.5t20 -7.5h252l-6 -35h-312q-13 0 -28 4t-27.5 13t-19.5 23t-4 34l93 526q3 19 13.5 33.5t24 24
t28.5 14.5t27 6h342q12 -1 25 -6t23 -14.5t15 -24t2 -33.5l-67 -376q-3 -20 -15 -34t-27.5 -23t-32 -13t-28.5 -4h-202q-6 0 -14 2.5t-15 8t-11.5 12.5t-2.5 16l54 306q3 15 10 23t15.5 12t17 5t14.5 1zM346 439q-7 0 -10 -9t-5 -17l-38 -214q-2 -9 -1.5 -16t7.5 -7
q8 0 10.5 7.5t4.5 20.5l37 209q2 8 1 17t-6 9z" />
    <glyph glyph-name="FL0041h" unicode="A" horiz-adv-x="410" 
d="M25 0l6 36q8 3 19.5 13.5t13.5 23.5l101 575q2 13 -5.5 23t-13.5 13l6 37h250q6 0 24 -1.5t36 -8t30 -21.5t7 -42l-118 -671q-2 -13 3.5 -21.5t14.5 -13t18.5 -6.5t15.5 -2l-6 -38h-92q-13 0 -29 4.5t-29 14t-20 25t-3 37.5l69 393h-76l-52 -297q-2 -13 5.5 -23.5
t15.5 -13.5l-6 -36h-185zM337 670h-37l-44 -249h72l34 191q3 18 -3 38t-22 20z" />
    <glyph glyph-name="FL0042h" unicode="B" horiz-adv-x="406" 
d="M19 0l6 36q10 3 21.5 13.5t13.5 23.5l101 575q2 13 -5.5 23t-15.5 13l6 37h263q15 0 30 -4.5t27 -15t18 -27t2 -39.5l-31 -173q-4 -18 -18.5 -35.5t-22.5 -23.5l2 -3q5 -5 13 -23.5t3 -47.5l-45 -256q-3 -17 -15.5 -30.5t-28 -23t-31.5 -14.5t-26 -5h-267zM265 116
l40 223q-2 19 -19 24t-42 5l-52 -295q-3 -12 6 -24h33q15 0 22 18.5t12 48.5zM297 671l-44 -252q6 0 17 1t22 4.5t20.5 11t12.5 21.5l32 183q4 20 -11.5 25.5t-32.5 5.5h-16z" />
    <glyph glyph-name="FL0043h" unicode="C" horiz-adv-x="396" 
d="M301 671q-20 -5 -28 -18t-13 -31l-92 -520q-4 -21 0.5 -37t21.5 -16h2q12 0 24.5 16t15.5 34l23 130q4 21 15.5 37t26 26.5t30 16.5t29.5 8h77l-7 -39q-11 -4 -24 -17t-15 -26l-28 -162q-3 -17 -17.5 -30.5t-32.5 -23t-34.5 -14.5t-23.5 -5h-145q-10 0 -24 5t-26 14.5
t-19.5 23t-4.5 30.5l101 572q4 27 16.5 42t27.5 22.5t30.5 9.5t25.5 2h152q10 0 25 -1t28 -8t20 -22t2 -43l-28 -162q-1 -5 0.5 -12t5 -13.5t8 -11.5t9.5 -6l-7 -39h-77q-13 1 -26.5 7t-24 17t-16.5 26.5t-3 36.5l22 122q1 5 1 9v10q0 15 -5.5 27.5t-17.5 12.5z" />
    <glyph glyph-name="FL0044h" unicode="D" horiz-adv-x="394" 
d="M146 721h260q10 0 26 -2t30 -10t22 -24t3 -44l-100 -568q-3 -17 -16 -30.5t-29 -23t-33 -14.5t-27 -5h-263l6 36q10 3 21.5 13.5t13.5 23.5l101 575q2 13 -5.5 23t-15.5 13zM328 671q-17 0 -25.5 -6t-11.5 -24l-99 -562q-2 -11 3 -20.5t22 -9.5t28.5 18.5t16.5 48.5
l88 496q1 9 0.5 19.5t-3 19t-7.5 14.5t-12 6z" />
    <glyph glyph-name="FL0045h" unicode="E" horiz-adv-x="429" 
d="M363 653q2 11 -7 20t-22 11q-11 -2 -23.5 -12.5t-14.5 -23.5l-45 -258q15 0 26 8.5t17 43.5h33l-27 -153h-33l1 6q5 31 -2.5 38.5t-23.5 7.5l-47 -268q-2 -13 6 -23.5t22 -15.5q11 2 22.5 10t14.5 23l28 162q4 21 15 37t25.5 26.5t30.5 16.5t30 8h76l-7 -39
q-10 -4 -23.5 -17t-15.5 -26l-41 -235h-359l6 36q10 3 21.5 13.5t13.5 23.5l101 575q2 13 -5.5 23t-15.5 13l6 37h359l-41 -235q-1 -5 1 -12t5.5 -13.5t8 -11.5t8.5 -6l-7 -39h-76q-13 1 -27 7t-24.5 17t-16 27t-1.5 37z" />
    <glyph glyph-name="FL0046h" unicode="F" horiz-adv-x="429" 
d="M19 0l6 36q11 5 22 15.5t13 21.5l101 575q2 13 -5.5 23t-15.5 13l6 37h359l-41 -235q-1 -5 1 -12t5.5 -13.5t8 -11.5t8.5 -6l-7 -39h-76q-13 1 -27 7t-24.5 17t-16 27t-1.5 37l28 161q2 11 -7 20t-22 11q-8 -4 -22 -13.5t-16 -22.5l-48 -272q7 0 14 1.5t12 6.5t9.5 15.5
t7.5 27.5h33l-27 -152h-33l2 6q5 30 -2.5 38t-23.5 8l-46 -258q0 -11 6.5 -20.5t14.5 -12.5l-6 -36h-190z" />
    <glyph glyph-name="FL0047h" unicode="G" horiz-adv-x="396" 
d="M359 73q-3 -17 -17.5 -30.5t-32.5 -23t-34.5 -14.5t-23.5 -5h-145q-10 0 -24 5t-26 14.5t-19.5 23t-4.5 30.5l101 572q4 27 16.5 42t27.5 22.5t30.5 9.5t25.5 2h152q10 0 25 -1t28 -8t20 -22t2 -43l-14 -81q-2 -10 6.5 -25.5t16.5 -17.5l-6 -38h-77q-13 1 -27 7t-25 16.5
t-16.5 26.5t-1.5 37l7 40q1 5 1 9v10q0 15 -5.5 27.5t-17.5 12.5q-20 -5 -28 -18t-13 -31l-92 -520q-4 -21 0.5 -37t21.5 -16h2q11 0 24 16t18 34l40 227q2 13 -5.5 23t-14.5 13l6 36h184l-6 -36q-9 -3 -21 -13t-14 -23z" />
    <glyph glyph-name="FL0048h" unicode="H" horiz-adv-x="430" 
d="M25 0l6 36q8 3 19.5 13.5t13.5 23.5l101 575q2 13 -5.5 23t-13.5 13l6 37h129q7 0 10.5 -8t5 -19.5t1 -24t-1.5 -21.5l-40 -227h66l41 234q2 8 -7 16.5t-14 12.5l6 37h185l-6 -37q-8 -3 -20.5 -13t-14.5 -23l-118 -671q-2 -12 2.5 -19t12.5 -11.5t18 -7l18 -4.5l1 -1
l-6 -38h-92q-13 0 -28.5 4.5t-28.5 14t-20.5 25t-3.5 37.5l69 393h-69l-52 -297q-2 -13 5.5 -23.5t15.5 -13.5l-6 -36h-185z" />
    <glyph glyph-name="FL0049h" unicode="I" horiz-adv-x="228" 
d="M19 0l6 36q10 3 21.5 13.5t13.5 23.5l101 575q2 13 -5.5 23t-15.5 13l6 37h190l-6 -37q-9 -3 -20.5 -13t-13.5 -23l-101 -575q-2 -13 5 -23.5t15 -13.5l-6 -36h-190z" />
    <glyph glyph-name="FL004Ah" unicode="J" horiz-adv-x="424" 
d="M263 99l99 556q2 9 -7 16.5t-14 12.5l6 37h185l-6 -37q-8 -3 -20 -13t-14 -23l-101 -575q-3 -17 -18 -30.5t-33 -23t-35 -14.5t-23 -5h-136q-8 0 -23 5t-29.5 14.5t-24 23t-6.5 30.5l28 162q2 13 -6 26t-17 17l7 39h77q12 -2 26 -8t25 -16.5t16.5 -26.5t1.5 -37l-23 -130
q-3 -18 4.5 -34t19.5 -16h1q12 0 24.5 16t15.5 34z" />
    <glyph glyph-name="FL004Bh" unicode="K" horiz-adv-x="422" 
d="M330 684q-13 -5 -22.5 -13.5t-14.5 -22.5l-40 -229h12q13 0 27.5 3t28.5 12l35 199q4 21 14.5 37t24.5 26.5t29.5 16.5t29.5 8h76l-7 -39q-9 -3 -22 -15.5t-15 -25.5l-32 -180h-1q-5 -18 -19 -35t-21 -23l1 -3q6 -4 13 -23.5t2 -47.5l-62 -352q-2 -13 3.5 -21.5t14.5 -13
t18.5 -6.5t15.5 -2l-6 -38h-92q-13 0 -28.5 4.5t-28.5 14t-20.5 25t-3.5 37.5l64 362q-2 19 -18.5 24t-41.5 5l-52 -295q-2 -13 5 -23.5t15 -13.5l-6 -36h-187l6 36q10 3 21.5 13.5t13.5 23.5l101 575q1 10 -5 20.5t-16 15.5l6 37h190z" />
    <glyph glyph-name="FL004Ch" unicode="L" horiz-adv-x="429" 
d="M162 650q-3 27 -22 34l6 37h190l-6 -37q-9 -3 -20.5 -12.5t-13.5 -22.5l-101 -574q-2 -13 6 -24.5t22 -16.5q10 2 15.5 4.5t13.5 10.5q6 6 8 18l28 162q4 21 15 37t25.5 26.5t30.5 16.5t30 8h76l-7 -39q-10 -4 -23.5 -17t-15.5 -26l-41 -235h-359l6 36q10 3 21.5 13.5
t13.5 23.5z" />
    <glyph glyph-name="FL004Dh" unicode="M" horiz-adv-x="565" 
d="M493 648l-149 -297l-45 297q-1 19 -6 33t-11 23t-12 13t-9 4h-115l-6 -37q8 -3 15.5 -13t5.5 -23l-101 -575q-2 -13 -13.5 -23.5t-21.5 -13.5l-6 -36h186l6 36q-7 3 -14.5 13.5t-5.5 23.5l61 345l48 -315l161 316l-61 -346q-2 -13 -14 -23.5t-20 -13.5l-6 -36h185l6 36
q-8 3 -15 13.5t-5 23.5l101 575q2 13 13.5 23t20.5 13l6 37h-114q-3 0 -11.5 -7t-18.5 -17.5t-19.5 -23.5t-15.5 -25z" />
    <glyph glyph-name="FL004Eh" unicode="N" horiz-adv-x="427" 
d="M496 647h-1v1q2 12 13.5 22.5t19.5 13.5l6 36h-184l-6 -36q6 -3 14.5 -12t6.5 -17l-49 -281l-65 274q0 12 -4 24.5t-10 23t-11.5 17.5t-8.5 7h-71l-6 -36q8 -3 15.5 -13.5t5.5 -22.5l-101 -575q-2 -13 -14 -23.5t-21 -13.5l-6 -36h186l6 36q-7 3 -14.5 13.5t-5.5 23.5
l45 254l69 -258q0 -10 3 -22t8 -22.5t11.5 -17.5t13.5 -7h41z" />
    <glyph glyph-name="FL004Fh" unicode="O" horiz-adv-x="366" 
d="M233 721q-10 0 -25.5 -2t-30.5 -9.5t-27.5 -23t-16.5 -42.5l-101 -571q-3 -17 4.5 -30.5t19.5 -23t26 -14.5t24 -5h153q10 0 26 5t31.5 14.5t27.5 23t15 30.5l100 568q5 28 -2 44t-19.5 24t-27.5 10t-25 2h-152zM301 671q12 0 17.5 -12.5t5.5 -27.5v-10q0 -4 -1 -9
l-88 -496q-5 -30 -14 -48.5t-31 -18.5q-17 0 -21.5 16t-0.5 37l90 510q1 9 5 19.5t10 19t13 14.5t15 6z" />
    <glyph glyph-name="FL0050h" unicode="P" horiz-adv-x="394" 
d="M19 0l6 36q10 3 21.5 13.5t13.5 23.5l101 575q2 13 -5.5 23t-15.5 13l6 37h253q7 0 23.5 -1.5t33 -8.5t27 -22.5t5.5 -42.5l-37 -210q-5 -26 -18 -41t-29.5 -22.5t-35.5 -10t-35 -2.5h-92l-50 -287q-2 -13 5.5 -23.5t14.5 -13.5l-6 -36h-186zM327 670h-31l-46 -259h30
q8 2 22.5 17t22.5 40l25 144q3 18 -2.5 38t-20.5 20z" />
    <glyph glyph-name="FL0051h" unicode="Q" horiz-adv-x="366" 
d="M106 0q-10 0 -24 5t-26 14.5t-19.5 23t-4.5 30.5l101 572q4 27 16.5 42t27.5 22.5t30.5 9.5t25.5 2h152q10 0 25 -2t27.5 -10t19.5 -24t2 -44l-100 -568q-5 -26 -27.5 -44t-45.5 -24l-5 -28q-2 -13 4 -21.5t15 -13t19 -6.5t15 -2l-6 -38h-92q-13 0 -29 4.5t-29 14
t-20.5 25t-3.5 37.5l4 23h-52zM301 671q-8 0 -15 -6t-13 -14.5t-10 -19t-5 -19.5l-90 -510q-4 -21 0.5 -37t21.5 -16q22 0 31 18.5t14 48.5l88 496q1 5 1 9v10q0 15 -5.5 27.5t-17.5 12.5z" />
    <glyph glyph-name="FL0052h" unicode="R" horiz-adv-x="393" 
d="M19 0l6 36q10 3 21.5 13.5t13.5 23.5l101 575q2 13 -5.5 23t-15.5 13l6 37h263q14 0 29.5 -4.5t27 -15t17.5 -27t2 -39.5l-31 -173q-2 -9 -7 -18t-11 -17t-12.5 -14.5t-10.5 -9.5l1 -3q6 -4 13.5 -23.5t2.5 -47.5l-62 -352q-2 -13 3.5 -21.5t14.5 -13t19 -6.5t16 -2
l-6 -38h-93q-13 0 -28.5 4.5t-28.5 14t-20.5 25t-3.5 37.5l64 362q-2 19 -19 24t-42 5l-52 -295q-2 -13 5 -23.5t15 -13.5l-6 -36h-187zM297 671l-44 -252q6 0 16.5 1t22 4.5t20.5 11t12 21.5l32 183q4 20 -10 25.5t-33 5.5h-16z" />
    <glyph glyph-name="FL0053h" unicode="S" horiz-adv-x="426" 
d="M331 671q-20 -5 -27.5 -18t-12.5 -31l-31 -176q-4 -19 -1.5 -32.5t14.5 -18.5h87q10 0 24.5 -1.5t27 -8.5t19.5 -22t3 -42l-44 -248q-3 -17 -15.5 -30.5t-28 -23t-31 -14.5t-25.5 -5h-144q-8 0 -23 5t-29.5 14.5t-24 23t-6.5 30.5l28 162q2 13 -6 26t-17 17l7 39h77
q12 -2 26 -8t25 -16.5t16.5 -26.5t1.5 -37l-23 -130q-3 -18 4.5 -34t19.5 -16h2q17 0 26.5 16t13.5 37l35 197q1 17 -3 30t-22 18h-76q-10 0 -24 4.5t-26 13.5t-19.5 22.5t-4.5 30.5l40 227q4 27 16.5 42t27.5 22.5t30.5 9.5t25.5 2h152q10 0 25 -1t27.5 -8t20 -22t2.5 -43
l-25 -142q-2 -12 5.5 -26.5t16.5 -16.5l-6 -39h-77q-13 1 -27 7t-24.5 17t-16 27t-1.5 37l18 101q1 5 1 9v10q0 15 -6.5 27.5t-17.5 12.5z" />
    <glyph glyph-name="FL0055h" unicode="T" horiz-adv-x="418" 
d="M146 720l-16 -89h28q5 10 15 23.5t19 13.5h58q3 -6 6 -12.5t1 -12.5l-100 -570q-2 -13 -14.5 -23.5t-20.5 -13.5l-6 -36h189l6 36q-7 3 -14.5 13.5t-5.5 23.5l100 570q3 13 15 25h58q9 0 14.5 -13.5t5.5 -23.5h27l16 89h-381z" />
    <glyph glyph-name="FL0056h" unicode="U" horiz-adv-x="427" 
d="M527 682q-10 -4 -22 -17t-14 -26l-100 -566q-3 -17 -18 -30.5t-33 -23t-35 -14.5t-23 -5h-136q-8 0 -23 5t-29.5 14.5t-24 23t-6.5 30.5l100 566q2 13 -6.5 26t-17.5 17l7 39h77q12 -2 26 -8t25 -16.5t17 -26.5t2 -37l-95 -534q-3 -18 4.5 -34t19.5 -16h1q12 0 24.5 16
t15.5 34l95 534q4 21 15 37t25.5 26.5t30 16.5t29.5 8h76z" />
    <glyph glyph-name="FL0057h" unicode="V" horiz-adv-x="427" 
d="M283 633l-55 -556l145 575q14 34 41 49.5t51 19.5h69l-7 -39q-1 0 -6 -3t-11 -9t-11.5 -14t-7.5 -17l-149 -566q-3 -17 -17.5 -30.5t-32.5 -23t-34.5 -14.5t-23.5 -5h-42q-7 0 -22 5t-29 14.5t-24 23t-7 30.5l53 566q0 18 -9.5 30.5t-14.5 12.5l7 39h70q12 -2 25.5 -8
t24 -16.5t16 -26.5t1.5 -37z" />
    <glyph glyph-name="FL0058h" unicode="W" horiz-adv-x="624" 
d="M554 632q3 18 14.5 34t26 28t29.5 19.5t25 7.5h82l-7 -39q-10 -4 -22.5 -17t-14.5 -26l-100 -566q-3 -17 -18 -30.5t-33 -23t-34.5 -14.5t-22.5 -5h-333q-8 0 -23 5t-29.5 14.5t-24 23t-6.5 30.5l100 566q2 13 -6.5 26t-17.5 17l7 39h77q12 -2 26 -8t25 -16.5t17 -26.5
t2 -37l-95 -534q-3 -18 4.5 -34t19.5 -16h1q12 0 24.5 16t15.5 34l91 511q2 13 -5.5 23t-15.5 13l6 36h186l-6 -36q-10 -3 -20.5 -13t-12.5 -23l-91 -511q-3 -18 4 -34t20 -16t25.5 16t15.5 34z" />
    <glyph glyph-name="FL0059h" unicode="X" horiz-adv-x="422" 
d="M304 341l-45 -257q-4 -23 3 -39t19.5 -25.5t28.5 -14t29 -4.5h63l7 39q-12 0 -20 9t-3 35l43 247q5 27 -2.5 46t-12.5 23l-1 4q8 6 21.5 23t18.5 35h1l32 180q2 13 15 25.5t22 15.5l7 39h-76q-13 -1 -28.5 -7t-29.5 -17t-25 -27t-15 -37l-35 -199q-5 -4 -16 -6t-18 -4
q-7 2 -17.5 3.5t-14.5 5.5l35 199q4 21 -1.5 37t-16 26.5t-24 16.5t-25.5 8h-77l-7 -39q10 -3 18 -15.5t6 -25.5l-32 -180q-1 -18 7 -35t14 -23l-2 -3q-8 -4 -22 -23.5t-19 -47.5l-43 -246q-5 -26 -16 -34.5t-24 -8.5l-7 -40h64q13 0 30.5 4t33.5 14t29 26t17 39l45 256
q6 11 14 15t16 6l8 1q7 -4 17.5 -8t10.5 -12z" />
    <glyph glyph-name="FL005Ah" unicode="Y" horiz-adv-x="427" 
d="M527 682l7 39h-76q-14 -2 -29.5 -8t-30 -16.5t-25.5 -26.5t-15 -37l-34 -189q-3 -17 -12.5 -30.5t-21.5 -18.5h-13q-22 10 -19 44l35 194q4 21 -2 37t-17 26.5t-25 16.5t-26 8h-77l-7 -39q9 -4 17.5 -17t6.5 -26l-39 -220q-3 -15 5.5 -28.5t22 -23.5t29 -15.5t26.5 -5.5
h70q16 -6 20 -18t2 -29l-35 -197q-4 -21 -13 -37t-26 -16h-2q-12 0 -19.5 16t-4.5 34l23 130q4 21 -1.5 37t-16.5 26.5t-25 16.5t-26 8h-77l-7 -39q9 -4 16.5 -17t5.5 -26l-28 -162q-3 -17 6.5 -30.5t24 -23t29.5 -14.5t23 -5h144q10 0 26 5t31.5 14.5t28 23t15.5 30.5
l100 566q2 13 14 26t22 17z" />
    <glyph glyph-name="FL005Bh" unicode="Z" horiz-adv-x="429" 
d="M520 636l-347 -533l-9 -54h83q12 12 13 18l28 162q4 21 15 37t25.5 26.5t30.5 16.5t30 8h76l-7 -39q-5 -1 -11 -6t-12 -11.5t-10.5 -13.5t-5.5 -12l-41 -235h-358l14 77l349 539l9 56h-83l-7 -8q-5 -5 -6 -11l-28 -161q-4 -21 -15.5 -37t-26 -27t-30.5 -17t-29 -7h-77
l7 39q5 1 11 6t12 11t10.5 13t5.5 13l41 235h358z" />
    <glyph glyph-name="FL005Dh" unicode="[" horiz-adv-x="189" 
d="M25 39l99 560q3 19 13.5 33.5t24 24t28.5 15t28 6.5h72l-7 -35q-9 -3 -20.5 -14t-15.5 -22l-100 -568q-5 -24 3 -31.5t20 -7.5l-6 -35h-60q-13 0 -28 4t-27.5 13t-19.5 23t-4 34z" />
    <glyph glyph-name="FL005Ch" unicode="\" horiz-adv-x="401" 
d="M368 65l-163 578h-74l-5 -32q7 -3 12.5 -12.5t8.5 -19.5l160 -579h75l6 32q-7 3 -14.5 12.5t-5.5 20.5z" />
    <glyph glyph-name="FL005Eh" unicode="]" horiz-adv-x="189" 
d="M177 39l99 560q3 19 -2 33.5t-15 24t-23 15t-25 6.5h-73l-7 -35q9 -3 17 -14t8 -22l-100 -568q-5 -24 -15.5 -31.5t-22.5 -7.5l-6 -35h61q12 0 28.5 4t32.5 13t28 23t15 34z" />
    <glyph glyph-name="FL005Fh" unicode="^" horiz-adv-x="381" 
d="M362 0l6 32q-7 3 -15 12.5t-6 20.5l91 514q2 11 13 20t19 12l5 32h-239q-6 0 -23.5 -1t-36.5 -7t-35.5 -19t-20.5 -37l-106 -599q-2 -12 -10 -19.5t-18 -12t-19.5 -6t-15.5 -1.5l-7 -35h88q12 0 28.5 4t32.5 13t28 23t15 34l62 350h72l-47 -265q-2 -11 -13 -20.5
t-18 -12.5l-6 -32h176zM282 598h35l-39 -222h-68l30 170q3 17 14 34.5t28 17.5z" />
    <glyph glyph-name="FL0060h" unicode="_" horiz-adv-x="275" 
d="M18 0l8 44h238l-8 -44h-238z" />
    <glyph glyph-name="FL0067h" unicode="`" horiz-adv-x="160" 
d="M252 628h-79l-28 92h85z" />
    <glyph glyph-name="FL0061h" unicode="a" horiz-adv-x="390" 
d="M23 0l6 32q8 3 18.5 12.5t12.5 20.5l91 514q2 11 -5.5 20t-14.5 12l5 32h239q6 0 23 -1t34 -7t28.5 -19t7.5 -37l-106 -599q-2 -12 4 -19.5t14.5 -12t18 -6t15.5 -1.5l-7 -35h-88q-12 0 -27 4t-27 13t-19 23t-4 34l62 350h-72l-47 -265q-2 -11 5.5 -20.5t14.5 -12.5
l-6 -32h-176zM314 598h-35l-39 -222h68l30 170q3 17 -3 34.5t-21 17.5z" />
    <glyph glyph-name="FL0062h" unicode="b" horiz-adv-x="386" 
d="M18 0l6 32q8 3 19 12.5t13 20.5l91 514q2 11 -6 20t-15 12l5 32h251q13 0 28 -4t26.5 -13t17.5 -23.5t2 -35.5l-27 -155q-3 -16 -17 -31t-23 -21l2 -4q6 -3 14 -20t3 -42l-41 -229q-3 -15 -14.5 -27.5t-26 -20.5t-29.5 -12.5t-24 -4.5h-255zM252 103l35 200
q-2 16 -18.5 20.5t-40.5 4.5l-47 -263q-1 -9 7 -21h32q14 0 20.5 16.5t11.5 42.5zM276 599l-40 -225q6 0 16.5 0.5t21.5 4t20 10.5t11 20l29 162q3 19 -11 23.5t-31 4.5h-16z" />
    <glyph glyph-name="FL0063h" unicode="c" horiz-adv-x="378" 
d="M280 599q-19 -5 -26.5 -16.5t-12.5 -27.5l-82 -464q-3 -19 1.5 -33t19.5 -14h2q12 0 24.5 14t15.5 30l20 116q3 19 13.5 33.5t24.5 24t29 15t27 6.5h72l-6 -35q-10 -3 -21.5 -15t-13.5 -23l-26 -145q-3 -15 -17 -27.5t-30.5 -20.5t-32 -12.5t-22.5 -4.5h-137
q-10 0 -23.5 4.5t-25.5 12.5t-19.5 20.5t-4.5 27.5l91 511q4 24 15.5 37.5t26 20t29 8t24.5 1.5h144q9 0 23.5 -1t26.5 -7t19.5 -19.5t3.5 -37.5l-26 -145q-2 -11 5.5 -24t15.5 -15l-6 -34h-72q-12 1 -25 6.5t-23 15t-15.5 23.5t-2.5 33l19 108q3 17 -2 35t-20 18z" />
    <glyph glyph-name="FL0064h" unicode="d" horiz-adv-x="374" 
d="M131 643h248q10 0 25 -1.5t28 -8.5t21 -21.5t4 -39.5l-90 -507q-3 -15 -15 -27.5t-27 -20.5t-30.5 -12.5t-25.5 -4.5h-251l6 32q8 3 19 12.5t13 20.5l91 514q2 11 -6 20t-15 12zM306 599q-15 0 -23.5 -5t-11.5 -22l-88 -501q-2 -10 3 -18.5t20 -8.5q17 0 27.5 16.5
t15.5 42.5l78 443q2 17 -2.5 35t-18.5 18z" />
    <glyph glyph-name="FL0065h" unicode="e" horiz-adv-x="408" 
d="M339 583q2 9 -7 17.5t-21 10.5q-10 -2 -22 -11.5t-14 -20.5l-41 -231q14 0 25 7.5t16 38.5h31l-24 -136h-31l2 6q5 27 -3 33.5t-23 6.5l-43 -239q-2 -11 7 -20t20 -14q11 2 22 8.5t14 20.5l25 144q3 19 13.5 33.5t25 24t29.5 15t27 6.5h73l-6 -35q-10 -3 -22 -15t-14 -23
l-37 -210h-343l6 32q8 3 19 12.5t13 20.5l91 514q2 11 -6 20t-15 12l5 32h343l-36 -209q-2 -11 5.5 -24t16.5 -15l-6 -34h-73q-12 1 -25.5 6.5t-24 15t-16 23.5t-2.5 33z" />
    <glyph glyph-name="FL0066h" unicode="f" horiz-adv-x="408" 
d="M18 0l6 32q10 5 20 13.5t12 19.5l91 514q2 11 -6 20t-15 12l5 32h343l-36 -209q-2 -11 5.5 -24t16.5 -15l-6 -34h-73q-12 1 -25.5 6.5t-24 15t-16 23.5t-2.5 33l26 144q2 9 -7 17.5t-21 10.5q-8 -3 -21 -12t-15 -20l-43 -243q7 0 13.5 1.5t11.5 6t9 13.5t7 25h31
l-24 -136h-31l1 5q5 27 -3 34t-23 7l-40 -230q0 -10 7 -18.5t13 -11.5l-6 -32h-180z" />
    <glyph glyph-name="FL00A7h" unicode="g" horiz-adv-x="378" 
d="M341 65q-3 -15 -17 -27.5t-30.5 -20.5t-32 -12.5t-22.5 -4.5h-137q-10 0 -23.5 4.5t-25.5 12.5t-19.5 20.5t-4.5 27.5l91 511q4 24 15.5 37.5t26 20t29 8t24.5 1.5h144q9 0 23.5 -1t26.5 -7t19.5 -19.5t3.5 -37.5l-13 -72q-2 -11 5.5 -24t15.5 -15l-6 -34h-72
q-12 1 -25 6.5t-23 15t-15.5 23.5t-2.5 33l6 35q3 17 -2 35t-20 18q-19 -5 -26.5 -16.5t-12.5 -27.5l-82 -464q-3 -19 1.5 -33t19.5 -14h2q12 0 23.5 14t16.5 30l35 203q2 11 -5.5 20t-13.5 12l6 32h175l-6 -32q-8 -3 -19 -12t-13 -20z" />
    <glyph glyph-name="h" unicode="h" horiz-adv-x="409" 
d="M23 0l6 32q8 3 18.5 12.5t12.5 20.5l91 514q2 11 -5.5 20t-14.5 12l5 32h124q7 0 10.5 -7t5 -17t1.5 -21t-1 -19l-36 -203h62l37 209q2 7 -6.5 15t-14.5 11l5 32h176l-5 -32q-8 -3 -19 -12t-13 -20l-106 -599q-2 -10 3 -17t13 -11.5t18 -7t18 -3.5l-7 -35h-88
q-12 0 -27 4t-27.5 13t-19.5 23t-4 34l62 350h-65l-47 -265q-2 -11 5.5 -20.5t14.5 -12.5l-6 -32h-176z" />
    <glyph glyph-name="i" unicode="i" horiz-adv-x="218" 
d="M18 0l6 32q8 3 19 12.5t13 20.5l91 514q2 11 -6 20t-15 12l5 32h180l-5 -32q-7 -3 -18 -12t-13 -20l-91 -514q-2 -11 6 -20.5t14 -12.5l-6 -32h-180z" />
    <glyph glyph-name="FL006Ah" unicode="j" horiz-adv-x="404" 
d="M250 88l88 497q2 7 -6.5 15t-13.5 11l5 32h176l-5 -32q-8 -3 -19.5 -12t-13.5 -20l-91 -514q-3 -15 -16.5 -27.5t-30 -20.5t-32 -12.5t-22.5 -4.5h-131q-6 0 -20.5 4.5t-28.5 12.5t-24 20.5t-7 27.5l26 145q2 11 -6 23t-16 15l6 35h73q12 -1 25 -6.5t23.5 -15t16 -24
t2.5 -33.5l-20 -116q-3 -16 4.5 -30t18.5 -14h1q11 0 23 14t15 30z" />
    <glyph glyph-name="FL006Bh" unicode="k" horiz-adv-x="402" 
d="M306 611q-12 -5 -20.5 -12t-13.5 -20l-36 -205h12q12 0 26.5 2.5t26.5 10.5l32 178q3 19 13.5 33.5t24 24.5t28 15t25.5 5h73l-6 -34q-9 -3 -21 -14t-14 -23l-29 -161h-1q-3 -15 -16 -30.5t-21 -20.5v-4q5 -2 13 -20t4 -42l-56 -314q-2 -12 3.5 -19.5t14.5 -12t18 -6
t15 -1.5l-7 -35h-88q-12 0 -27 4t-27 13t-19 23t-4 34l57 323q-2 16 -18 20.5t-40 4.5l-47 -263q-2 -11 5.5 -20.5t15.5 -12.5l-6 -32h-178l6 32q8 3 19 12.5t13 20.5l91 514q-1 8 -5.5 17.5t-15.5 14.5l5 32h180z" />
    <glyph glyph-name="FL006Ch" unicode="l" horiz-adv-x="408" 
d="M147 580q-2 11 -6 19.5t-15 11.5l5 32h180l-5 -32q-7 -3 -17.5 -11.5t-12.5 -19.5l-90 -513q-2 -11 6 -21t19 -15q10 2 15.5 3.5t13.5 9.5q5 8 7 16l25 144q3 19 13.5 33.5t25 24t29.5 15t27 6.5h73l-6 -35q-10 -3 -22 -15t-14 -23l-37 -210h-343l6 32q8 3 19 12.5
t13 20.5z" />
    <glyph glyph-name="FL006Dh" unicode="m" horiz-adv-x="538" 
d="M464 579l-140 -267l-45 267q-4 35 -18 49.5t-22 14.5h-108l-5 -32q7 -3 15 -12t6 -20l-91 -514q-2 -11 -13 -20.5t-19 -12.5l-6 -32h177l6 32q-7 3 -14.5 12.5t-5.5 20.5l55 311l49 -284l150 283l-55 -310q-2 -11 -13 -20.5t-19 -12.5l-6 -32h177l6 32q-7 3 -14.5 12.5
t-5.5 20.5l91 514q2 11 12.5 20t18.5 12l5 32h-108q-3 0 -11.5 -6t-18 -15.5t-18 -21t-12.5 -21.5z" />
    <glyph glyph-name="FL006Eh" unicode="n" 
d="M465 578h-1v1q2 11 13 20t19 12l5 32h-175l-5 -32q5 -3 13.5 -11t6.5 -15l-44 -251l-65 245q0 10 -4 21.5t-9.5 21t-11 15.5t-8.5 6h-68l-5 -32q7 -3 15 -12t6 -20l-91 -514q-2 -11 -13 -20.5t-19 -12.5l-6 -32h177l6 32q-7 3 -14.5 12.5t-5.5 20.5l40 227l69 -230
q0 -9 3 -20t8 -20t11.5 -15.5t12.5 -6.5h38z" />
    <glyph glyph-name="o" unicode="o" horiz-adv-x="349" 
d="M215 643q-10 0 -24.5 -1.5t-29 -8.5t-26.5 -20.5t-16 -37.5l-90 -510q-3 -15 4.5 -27.5t19.5 -20.5t25.5 -12.5t23.5 -4.5h145q10 0 25 4.5t29.5 12.5t25.5 20.5t14 27.5l90 507q4 25 -3 39.5t-19 21.5t-26 8.5t-24 1.5h-144zM280 599q15 0 20 -18t2 -35l-78 -443
q-5 -26 -14 -42.5t-30 -16.5q-15 0 -19.5 14t-1.5 33l80 455q3 17 14.5 35t26.5 18z" />
    <glyph glyph-name="FL0070h" unicode="p" horiz-adv-x="374" 
d="M18 0l6 32q8 3 19 12.5t13 20.5l91 514q2 11 -6 20t-15 12l5 32h241q6 0 22 -1t31.5 -7.5t26 -20t6.5 -37.5l-33 -188q-4 -23 -16 -36t-28 -20.5t-33.5 -9.5t-32.5 -2h-88l-46 -256q-2 -11 5.5 -20.5t14.5 -12.5l-6 -32h-177zM303 598h-28l-40 -231h28q7 2 20.5 15
t21.5 36l22 128q3 17 -2 34.5t-22 17.5z" />
    <glyph glyph-name="FL0071h" unicode="q" horiz-adv-x="349" 
d="M102 0q-10 0 -23.5 4.5t-25.5 12.5t-19.5 20.5t-4.5 27.5l91 511q4 24 15.5 37.5t26 20t29 8t24.5 1.5h144q10 0 24 -1.5t26 -8.5t19 -21.5t3 -39.5l-90 -507q-4 -24 -25 -38.5t-44 -22.5l-5 -24q-2 -12 4 -19.5t15 -12t18.5 -6t14.5 -1.5l-7 -35h-87q-13 0 -28 4t-27 13
t-19 23t-4 34l4 20h-49zM280 599q-15 0 -26.5 -18t-14.5 -35l-80 -455q-3 -19 1.5 -33t19.5 -14q21 0 30 16.5t14 42.5l78 443q3 17 -2 35t-20 18z" />
    <glyph glyph-name="FL0073h" unicode="r" horiz-adv-x="374" 
d="M18 0l6 32q8 3 19 12.5t13 20.5l91 514q2 11 -6 20t-15 12l5 32h250q14 0 29 -4t26 -13t17 -23.5t2 -35.5l-27 -155q-3 -16 -17 -31t-22 -21l1 -4q5 -2 12.5 -20t3.5 -42l-56 -314q-2 -12 4 -19.5t14.5 -12t18 -6t15.5 -1.5l-7 -35h-88q-12 0 -27 4t-27 13t-19 23t-4 34
l57 323q-2 16 -18.5 20.5t-40.5 4.5l-47 -263q-2 -11 5.5 -20.5t15.5 -12.5l-6 -32h-178zM276 599l-40 -225q6 0 16.5 0.5t21.5 4t19.5 10.5t10.5 20l29 162q3 19 -10.5 23.5t-30.5 4.5h-16z" />
    <glyph glyph-name="FL0074h" unicode="s" horiz-adv-x="406" 
d="M309 599q-19 -5 -26.5 -16.5t-12.5 -27.5l-28 -156q-3 -17 0 -30t14 -16h82q10 0 23.5 -1t25.5 -7.5t19 -20t3 -37.5l-40 -222q-3 -15 -14 -27.5t-25.5 -20.5t-29 -12.5t-24.5 -4.5h-138q-6 0 -20.5 4.5t-28.5 12.5t-24 20.5t-7 27.5l26 145q2 11 -6 23t-16 15l6 35h73
q12 -1 25 -6.5t23.5 -15t16 -24t2.5 -33.5l-20 -116q-3 -16 4.5 -30t18.5 -14h3q15 0 24 14t12 33l31 175q2 16 -2.5 27.5t-20.5 16.5h-73q-10 0 -23.5 4t-25.5 12t-19 20t-4 27l36 203q4 24 15.5 37.5t26 20t28.5 8t24 1.5h145q9 0 23 -1t26.5 -7t19.5 -19.5t3 -37.5
l-22 -127q-2 -11 5.5 -24t16.5 -15l-6 -34h-73q-12 1 -25 6.5t-23.5 15t-16 23.5t-2.5 33l16 90q3 17 -1.5 35t-19.5 18z" />
    <glyph glyph-name="FL0075h" unicode="t" horiz-adv-x="399" 
d="M131 643l-14 -80h27q3 9 12.5 21t18.5 12h56q3 -5 5.5 -11t1.5 -11l-90 -509q-2 -11 -13 -20.5t-19 -12.5l-6 -32h180l6 32q-7 3 -14.5 12.5t-5.5 20.5l90 509q1 10 13 22h55q9 0 14 -12t6 -21h26l14 80h-363z" />
    <glyph glyph-name="u" unicode="u" 
d="M495 609q-9 -3 -21 -15t-14 -23l-90 -506q-3 -15 -16.5 -27.5t-30 -20.5t-32 -12.5t-22.5 -4.5h-131q-6 0 -20.5 4.5t-28.5 12.5t-24 20.5t-7 27.5l90 506q2 11 -6 23t-17 15l6 34h73q12 0 25.5 -5t24 -15t16 -24.5t2.5 -33.5l-84 -477q-3 -16 4.5 -30t18.5 -14h1
q11 0 23 14t15 30l84 477q3 19 14 33t25.5 23.5t29 14.5t25.5 7h73z" />
    <glyph glyph-name="FL0076h" unicode="v" 
d="M263 565l-47 -497l133 514q12 30 38 44.5t48 16.5h66l-6 -34q-1 0 -5.5 -3t-10.5 -8t-11 -12t-8 -15l-135 -506q-3 -15 -16.5 -27.5t-30.5 -20.5t-33 -12.5t-23 -4.5h-39q-6 0 -20.5 4.5t-28.5 12.5t-24 20.5t-7 27.5l45 506q-2 14 -10 26t-13 12l6 34h66q12 0 25 -5
t23 -15t15.5 -24.5t2.5 -33.5z" />
    <glyph glyph-name="FL0077h" unicode="w" horiz-adv-x="594" 
d="M521 564q3 16 13.5 30.5t24 25t27.5 17t25 6.5h77l-6 -34q-9 -3 -21 -15t-14 -23l-90 -506q-3 -15 -16.5 -27.5t-30 -20.5t-32 -12.5t-22.5 -4.5h-318q-6 0 -20.5 4.5t-28.5 12.5t-24 20.5t-7 27.5l90 506q2 11 -6 23t-17 15l6 34h73q12 -1 25.5 -6t24 -14.5t16 -24
t2.5 -33.5l-84 -477q-3 -16 4.5 -30t18.5 -14h1q11 0 23 14t15 30l80 456q2 11 -5.5 20.5t-13.5 12.5l5 32h177l-5 -32q-8 -3 -19.5 -12.5t-13.5 -20.5l-80 -456q-3 -16 4.5 -30t18.5 -14h1q11 0 23.5 14t15.5 30z" />
    <glyph glyph-name="FL0078h" unicode="x" horiz-adv-x="402" 
d="M287 304l-41 -229q-3 -20 4 -34t19 -23t27 -13t27 -4h60l6 35q-11 0 -18.5 7.5t-3.5 31.5l39 220q4 24 -3.5 42t-13.5 20l1 4q7 5 20 20.5t17 30.5h1l28 161q2 12 14 23t22 14l6 34h-73q-12 0 -27 -5t-28.5 -15t-23.5 -24.5t-13 -33.5l-32 -178q-5 -4 -16 -5.5t-16 -3.5
q-6 2 -17 3t-14 5l32 178q3 19 -1.5 33.5t-14.5 24.5t-23 15t-27 5h-73l-6 -34q9 -3 17 -14t6 -23l-29 -161h1q-1 -15 7.5 -30.5t13.5 -20.5l-2 -4q-7 -2 -20.5 -20t-17.5 -42l-39 -220q-5 -24 -15.5 -31.5t-22.5 -7.5l-6 -35h61q12 0 28.5 4t32.5 13t28 23t15 34l40 229
q7 11 16 14t17 5l5 -1q7 -2 15.5 -6t10.5 -11z" />
    <glyph glyph-name="FL0079h" unicode="y" 
d="M495 609l6 34h-73q-12 -1 -27 -6t-29 -14.5t-24.5 -24t-13.5 -33.5l-30 -169q-3 -14 -12 -27t-20 -16h-12q-9 3 -14.5 14t-4.5 25l31 173q3 19 -2.5 33.5t-16 24t-24 14.5t-25.5 6h-73l-6 -34q9 -3 17 -15t6 -23l-35 -197q-2 -14 6 -25.5t21 -20t27.5 -13.5t25.5 -5h68
q14 -6 18 -17t2 -27l-31 -175q-3 -19 -11.5 -33t-24.5 -14h-2q-11 0 -18.5 14t-4.5 30l20 116q3 19 -2.5 33.5t-16 24t-23.5 15t-25 6.5h-73l-6 -35q8 -3 16 -15t6 -23l-26 -145q-3 -15 7 -27.5t24 -20.5t28.5 -12.5t20.5 -4.5h138q10 0 24.5 4.5t28.5 12.5t25.5 20.5
t14.5 27.5l90 506q2 11 14 23t21 15z" />
    <glyph glyph-name="FL007Ah" unicode="z" horiz-adv-x="408" 
d="M489 568l-325 -475l-8 -50h78q12 8 13 17l25 144q3 19 13.5 33.5t25 24t29.5 15t27 6.5h73l-6 -35q-10 -2 -22 -15t-14 -23l-37 -210h-342l12 69l327 482l9 49h-79l-8 -8l-3 -3t-2 -6l-26 -144q-3 -19 -13.5 -33t-24 -23.5t-29 -15t-27.5 -6.5h-73l6 34q9 2 21.5 15
t14.5 24l36 209h342z" />
    <glyph glyph-name="FL007Bh" unicode="{" horiz-adv-x="221" 
d="M75 322l9 53q7 2 18.5 5.5t15.5 6.5l38 212q3 19 13.5 33.5t24 24t28.5 15t27 6.5h73l-7 -35q-9 -3 -21 -14t-14 -22l-35 -198h-1q-4 -15 -15.5 -29.5t-19.5 -19.5l1 -4q6 -2 12 -19t1 -41l-45 -257q-5 -24 3.5 -31.5t20.5 -7.5l-6 -35h-61q-12 0 -27 4t-27.5 13
t-19.5 23t-4 34l46 264q-2 11 -11 14t-17 5z" />
    <glyph glyph-name="FL007Ch" unicode="|" horiz-adv-x="166" 
d="M138 -53h-129l130 741h129z" />
    <glyph glyph-name="FL007Dh" unicode="}" horiz-adv-x="221" 
d="M259 322l9 53q-5 2 -15.5 5.5t-14.5 6.5l38 212q3 19 -2 33.5t-15 24t-23 15t-25 6.5h-73l-7 -35q9 -3 17 -14t6 -22l-35 -198h1q-1 -15 6 -29.5t12 -19.5l-1 -4q-8 -2 -19.5 -19t-16.5 -41l-45 -257q-5 -24 -15.5 -31.5t-22.5 -7.5l-6 -35h61q12 0 28.5 4t32.5 13t28 23
t15 34l46 264q7 11 17 14t19 5z" />
    <glyph glyph-name="FL007Eh" unicode="~" horiz-adv-x="238" 
d="M207 377h79l-54 -92h-56l-8 40l-20 -40h-80l55 92h56l7 -40z" />
    <glyph glyph-name="FL007Fh" horiz-adv-x="197" 
 />
    <glyph glyph-name="FL20ACh" horiz-adv-x="440" 
d="M79 348l16 90h32q-5 -30 2 -38t22 -8l33 184q4 24 15.5 37.5t25.5 20t28 8t24 1.5h145q9 0 23.5 -1t26.5 -7t19.5 -19.5t3.5 -37.5l-26 -145q-1 -5 0.5 -11t5 -12t8 -10.5t8.5 -5.5l-6 -34h-73q-12 1 -25 6.5t-23.5 15t-16 23.5t-2.5 33l19 108q3 17 -1.5 35t-19.5 18
q-19 -5 -26.5 -16.5t-12.5 -27.5l-82 -464q-3 -19 1 -33t19 -14h3q11 0 23.5 14t15.5 30l20 116q3 19 13.5 33.5t24.5 24t29 15t28 6.5h73l-6 -35q-10 -3 -22 -15t-14 -23l-26 -145q-3 -15 -17 -27.5t-30.5 -20.5t-32 -12.5t-22.5 -4.5h-138q-9 0 -22.5 4.5t-25.5 12.5
t-19 20.5t-4 27.5l35 195q-15 -1 -25 -8t-15 -38h-32l16 90h64l7 44h-64z" />
    <glyph glyph-name="FL20ACh" unicode="&#x20ac;" horiz-adv-x="440" 
d="M79 348l16 90h32q-5 -30 2 -38t22 -8l33 184q4 24 15.5 37.5t25.5 20t28 8t24 1.5h145q9 0 23.5 -1t26.5 -7t19.5 -19.5t3.5 -37.5l-26 -145q-1 -5 0.5 -11t5 -12t8 -10.5t8.5 -5.5l-6 -34h-73q-12 1 -25 6.5t-23.5 15t-16 23.5t-2.5 33l19 108q3 17 -1.5 35t-19.5 18
q-19 -5 -26.5 -16.5t-12.5 -27.5l-82 -464q-3 -19 1 -33t19 -14h3q11 0 23.5 14t15.5 30l20 116q3 19 13.5 33.5t24.5 24t29 15t28 6.5h73l-6 -35q-10 -3 -22 -15t-14 -23l-26 -145q-3 -15 -17 -27.5t-30.5 -20.5t-32 -12.5t-22.5 -4.5h-138q-9 0 -22.5 4.5t-25.5 12.5
t-19 20.5t-4 27.5l35 195q-15 -1 -25 -8t-15 -38h-32l16 90h64l7 44h-64z" />
    <glyph glyph-name="FL017Dh" horiz-adv-x="408" 
d="M353 766h78l-54 -92h-108l-22 92h78l7 -40zM489 568l-325 -475l-8 -50h78q12 8 13 17l25 144q3 19 13.5 33.5t25 24t29.5 15t27 6.5h73l-6 -35q-10 -2 -22 -15t-14 -23l-37 -210h-342l12 69l327 482l9 49h-79l-8 -8l-3 -3t-2 -6l-26 -144q-3 -19 -13.5 -33t-24 -23.5
t-29 -15t-27.5 -6.5h-73l6 34q9 2 21.5 15t14.5 24l36 209h342z" />
    <glyph glyph-name="FL017Dh" unicode="&#x17d;" horiz-adv-x="408" 
d="M353 766h78l-54 -92h-108l-22 92h78l7 -40zM489 568l-325 -475l-8 -50h78q12 8 13 17l25 144q3 19 13.5 33.5t25 24t29.5 15t27 6.5h73l-6 -35q-10 -2 -22 -15t-14 -23l-37 -210h-342l12 69l327 482l9 49h-79l-8 -8l-3 -3t-2 -6l-26 -144q-3 -19 -13.5 -33t-24 -23.5
t-29 -15t-27.5 -6.5h-73l6 34q9 2 21.5 15t14.5 24l36 209h342z" />
    <glyph glyph-name="FL017Eh" horiz-adv-x="408" 
d="M353 766h78l-54 -92h-108l-22 92h78l7 -40zM489 568l-325 -475l-8 -50h78q12 8 13 17l25 144q3 19 13.5 33.5t25 24t29.5 15t27 6.5h73l-6 -35q-10 -2 -22 -15t-14 -23l-37 -210h-342l12 69l327 482l9 49h-79l-6 -7q-3 -2 -4.5 -3.5t-2.5 -6.5l-26 -144q-3 -19 -13.5 -33
t-24 -23.5t-29 -15t-27.5 -6.5h-73l6 34q9 2 21.5 15t14.5 24l36 209h342z" />
    <glyph glyph-name="FL017Eh" unicode="&#x17e;" horiz-adv-x="408" 
d="M353 766h78l-54 -92h-108l-22 92h78l7 -40zM489 568l-325 -475l-8 -50h78q12 8 13 17l25 144q3 19 13.5 33.5t25 24t29.5 15t27 6.5h73l-6 -35q-10 -2 -22 -15t-14 -23l-37 -210h-342l12 69l327 482l9 49h-79l-6 -7q-3 -2 -4.5 -3.5t-2.5 -6.5l-26 -144q-3 -19 -13.5 -33
t-24 -23.5t-29 -15t-27.5 -6.5h-73l6 34q9 2 21.5 15t14.5 24l36 209h342z" />
    <glyph glyph-name="space" unicode="&#xa0;" horiz-adv-x="356" 
 />
    <glyph glyph-name="FL00A1h" unicode="&#xa1;" horiz-adv-x="218" 
d="M124 446h128l-68 -381q-2 -11 6 -20.5t14 -12.5l-6 -32h-180l6 32q8 3 19 12.5t13 20.5zM273 572q-5 -29 -27 -50t-48 -21t-41.5 21t-10.5 50q5 30 28 50.5t49 20.5t40.5 -20.5t9.5 -50.5z" />
    <glyph glyph-name="FL00A2h" unicode="&#xa2;" horiz-adv-x="378" 
d="M240 0h-128l17 99h-10q-10 0 -23.5 4.5t-25.5 12.5t-19 20.5t-4 27.5l59 335q4 24 16 37.5t26 20t29 8t25 1.5h10l13 77h128l-13 -77h6q10 0 24 -1t26 -7t19 -19.5t3 -38.5l-13 -75q-2 -11 5.5 -24t15.5 -15l-6 -34h-72q-12 1 -25 6.5t-23 15t-15.5 23.5t-2.5 33l7 39
q2 16 -3 34.5t-20 18.5q-18 -5 -26 -16.5t-13 -27.5l-50 -288q-4 -19 0.5 -33t19.5 -14h2q12 0 24.5 14t15.5 30l3 17q3 19 13.5 33.5t24.5 24t29 15t27 6.5h72l-6 -35q-10 -3 -21.5 -15t-13.5 -23l-8 -46q-3 -15 -17 -27.5t-30.5 -20.5t-32 -12.5t-22.5 -4.5z" />
    <glyph glyph-name="FL00A3h" unicode="&#xa3;" horiz-adv-x="466" 
d="M145 352q-16 0 -25.5 -7t-14.5 -34l-1 -5h-32l24 136h32q-3 -16 -2.5 -25t4.5 -13.5t9.5 -6t13.5 -1.5h1l44 252q2 13 -5 23t-15 13l6 37h221l-6 -36q-7 -2 -17.5 -4.5t-21 -7t-18.5 -10.5t-9 -15l-45 -258q15 0 26.5 8.5t17.5 43.5h32l-27 -153h-32l1 6q5 31 -2.5 38.5
t-24.5 7.5l-47 -268q-2 -13 6.5 -23.5t21.5 -15.5q11 2 22.5 10t14.5 23l28 162q4 21 15 37t25.5 26.5t30.5 16.5t30 8h76l-7 -39q-10 -4 -23 -17t-15 -26l-41 -235h-398l6 36q4 1 15.5 5t24 9t22.5 11t11 12l49 279h-1z" />
    <glyph glyph-name="FL00A4h" unicode="&#xa4;" horiz-adv-x="402" 
d="M246 75l14 80h-63l-14 -81q-3 -20 -15 -34t-28 -23t-32.5 -13t-28.5 -4h-61l6 35q12 0 22.5 7.5t15.5 31.5l39 222q5 24 16.5 41t19.5 19l1 4q-5 5 -12 19.5t-6 29.5h-1l29 163q2 12 -6 23t-17 14l6 34h73q13 -1 26 -6t23 -14.5t15 -24t2 -33.5l-5 -24h63l5 25
q3 19 13 33t23.5 23.5t28 15t27.5 6.5h73l-6 -34q-10 -3 -22 -14t-14 -23l-29 -163h-1q-4 -15 -15 -29.5t-19 -19.5v-4q6 -2 12.5 -19t1.5 -41l-39 -222q-4 -24 3.5 -31.5t18.5 -7.5l-6 -35h-60q-12 0 -27 4t-27 13t-19 23t-4 34zM286 479q-6 0 -10 -9t-6 -17l-38 -215
q-2 -8 -0.5 -15t8.5 -7q13 0 17 28l37 209q2 8 -0.5 17t-7.5 9z" />
    <glyph glyph-name="mu" unicode="&#xa5;" horiz-adv-x="804" 
d="M842 322l-2 -1l-14 -25h-45l21 -45l1 -8l-1 -5q-3 -16 -19 -25l-49 14l-18 -70q-6 -13 -22 -13q-13 0 -21.5 4.5t-21.5 15.5l-6 2l-60 -63l-26 -6l-26 34l-106 -57l-15 7l6 33l-131 -22l-13 11l11 28l-128 14l3 21l19 19l-79 18q-16 0 -11 24l37 29l-51 30l-2 28l59 11
l-21 43l9 34l58 -7q14 83 39 83h2l52 -22q26 31 42 46t32 23l40 -34l101 53l15 -19l-5 -17v-7l107 24l35 -5l-10 -35h120l8 -13q-5 -31 -25 -32l96 -32l-1 -8q-5 -26 -43 -32q62 -32 59 -46zM823 314l-2 11l-73 48l54 18h6l-4 11l-112 30l47 35h-136l17 41l-136 -23l2 35
l-9 5l-102 -53l-33 36l-66 -68q-7 -4 -14 -4q-21 0 -46 25l-23 -83l-63 7l-3 -25l26 -52l-66 -5l78 -52l-62 -30l117 -32l-46 -32l138 -7l-21 -39l131 26l12 -23l-10 -22l112 58l41 -36l64 71l60 -24l20 83l65 -13l2 7q3 18 -31 70zM733 356l-24 -76l-14 2l17 79zM706 247
l-17 -16l-8 13l12 11zM668 254q-22 0 -44 51l-9 -50l-16 -2l18 103l39 -68l16 73l14 -5zM584 255l-11 2q-4 25 -17 25q-11 0 -27 -25h-19q17 53 55 103q1 4 13 4q16 0 19 -34zM520 361l-24 -102l-22 -6l27 103zM456 249q-21 0 -45 51l-9 -49l-16 -4l18 105l40 -66l17 70
l13 -4zM389 322q-21 -73 -47 -73l-7.5 -1.5t-7.5 -0.5q-23 0 -28 17q11 67 49 92h11q30 0 30 -34zM309 359l-6 -25q-2 2 -3.5 2.5l-1.5 0.5h-5q-8 0 -26 -15q-15 -15 -20 -42q-3 -21 15 -21q12 0 18 3l-3 -17q-9 -2 -11.5 -4t-7.5 -2q-26 0 -26 47q0 1 -0.5 2.5t-0.5 3.5
l2 8q9 49 76 59zM233 356l-23 -100l-20 -9l27 107zM576 305l-5 34l-23 -34h28zM368 307l2 12q-6 13 -15 13t-16 -8t-16 -24l-2 -8q-4 -25 11 -25q10 0 25 9q6 9 7.5 14.5t3.5 16.5z" />
    <glyph glyph-name="FL00D3h" unicode="&#xa6;" horiz-adv-x="166" 
d="M147 0h-129l113 643h129z" />
    <glyph glyph-name="FL00AAh" unicode="&#xa7;" horiz-adv-x="402" 
d="M386 341q-7 -42 -21.5 -76t-32 -58.5t-37 -38t-35.5 -13.5h-63l-14 -81q-3 -20 -15 -34t-28 -23t-32.5 -13t-28.5 -4h-61l6 35q12 0 22.5 7.5t15.5 31.5l39 222q5 24 16.5 41t19.5 19l1 4q9 50 20 84.5t25.5 56t34.5 31t47 9.5h63l5 25q3 19 13 33t23.5 23.5t28 15
t27.5 6.5h73l-6 -34q-10 -3 -22 -14t-14 -23l-29 -163h-1q-4 -15 -15 -29.5t-19 -19.5zM286 479q-6 0 -10 -9t-6 -17l-38 -215q-2 -8 -0.5 -15t8.5 -7q13 0 17 28l37 209q2 8 -0.5 17t-7.5 9z" />
    <glyph glyph-name="FL00A8h" unicode="&#xa8;" horiz-adv-x="225" 
d="M137 674q3 19 17 32.5t31 13.5t26 -13.5t6 -32.5q-4 -20 -17.5 -33.5t-30.5 -13.5t-26.5 13.5t-5.5 33.5zM325 674q-4 -20 -17.5 -33.5t-30.5 -13.5t-26.5 13.5t-5.5 33.5q3 19 17 32.5t31 13.5t26 -13.5t6 -32.5z" />
    <glyph glyph-name="FL00A9h" unicode="&#xa9;" horiz-adv-x="168" 
d="M205 688q19 0 29 -10q16 -13 19 -32q7 -20 3 -39q-3 -16 -17 -41q-5 -10 -11.5 -15.5t-14.5 -11.5l-3 -3q-16 -8 -24.5 -9l-8.5 -1q-18 0 -31 10q-8 8 -11 14l-8 16q-5 23 -2 41q4 23 16 40.5t31 30.5q17 5 25 7.5zM203 675q-32 0 -53 -34q-10 -15 -13 -34q-3 -21 1 -33
q3 -14 15 -26l4 -1q24 -5 24 -7h-2q10 0 29 8q13 9 23.5 26t13.5 33l1 3q4 24 -8.5 44.5t-32.5 20.5h-2zM210 594l8 -4q-9 -30 -35 -30q-34 0 -26 47q7 45 42 45q25 0 25 -25l-11 -2q-3 16 -16 16q-22 0 -28 -34q-6 -33 15 -33q17 0 26 20z" />
    <glyph glyph-name="FL00AEh" unicode="&#xaa;" 
d="M256 78l48 502l-132 -519q-14 -30 -40 -44.5t-49 -16.5h-65l6 34q1 0 6 3t11 8t11.5 12t7.5 16l135 506q3 15 16.5 27t30 20t32.5 12.5t23 4.5h39q6 0 20.5 -4.5t29 -12.5t24 -20t6.5 -27l-45 -506q2 -17 10.5 -28t11.5 -11l-6 -34h-65q-12 1 -25 6.5t-23 15t-15.5 23.5
t-2.5 33z" />
    <glyph glyph-name="FL00ABh" unicode="&#xab;" horiz-adv-x="210" 
d="M253 353l18 98l-82 -48l-24 -135l65 -48l17 98l-28 18zM154 353l18 98l-83 -48l-24 -135l66 -48l17 98l-28 18z" />
    <glyph glyph-name="FL00ACh" unicode="&#xac;" horiz-adv-x="294" 
d="M144 348h155l-14 -80q-3 -18 1 -29.5t29 -11.5l-7 -39h-115l7 39h4q22 0 29 11.5t17 29.5l7 36h-120q-16 0 -25.5 -6.5t-14.5 -33.5l-2 -6h-32l24 136h32q-5 -31 2.5 -38.5t22.5 -7.5z" />
    <glyph glyph-name="FL00ADh" unicode="&#xad;" horiz-adv-x="130" 
d="M79 348h93l-7 -44h-93z" />
    <glyph glyph-name="registered" unicode="&#xae;" horiz-adv-x="168" 
d="M205 688q19 0 28 -11q8 -6 13.5 -13t6.5 -18q7 -20 3 -39q-3 -16 -17 -41q-9 -18 -29 -30q-15 -8 -24 -9l-9 -1q-21 0 -31 10q-11 11 -19 30q-2 10 -3 20t1 21q2 13 5.5 20t9.5 17l1 2q13 21 30 31q20 11 34 11zM203 674q-31 0 -52 -33q-6 -10 -9 -18.5t-5 -15.5l-0.5 -9
t1.5 -25q3 -12 15 -25l4 -2q12 -3 17 -4.5l5 -1.5q11 0 29 8q8 5 13 11.5t10 13.5q7 13 10.5 23.5l3.5 10.5l1 3q4 25 -8.5 44.5t-32.5 19.5h-2zM155 562l15 87h23q15 0 19 -4l6 -6q3 -8 2 -14q-3 -23 -25 -24q6 -3 7 -7.5t5 -14.5l6 -17h-15l-2 14q-3 9 -5.5 13.5t-3.5 5.5
q-2 3 -8 3h-7l-6 -36h-11zM175 610h13q13 -2 18.5 9t-4.5 17q0 1 -11 1h-12z" />
    <glyph glyph-name="FL00AFh" unicode="&#xaf;" horiz-adv-x="275" 
d="M137 676l8 44h238l-8 -44h-238z" />
    <glyph glyph-name="FL00B0h" unicode="&#xb0;" horiz-adv-x="117" 
d="M137 674q-4 -20 5.5 -33.5t26.5 -13.5t30.5 13.5t17.5 33.5q3 19 -6 32.5t-26 13.5t-31 -13.5t-17 -32.5zM186 674q-2 -9 -11 -9q-8 0 -6 9q1 9 9 9q9 0 8 -9z" />
    <glyph glyph-name="FL00B1h" unicode="&#xb1;" horiz-adv-x="258" 
d="M180 383q3 20 -0.5 31t-25.5 11h-4l7 38h109l-7 -38q-26 0 -33.5 -11.5t-10.5 -30.5l-7 -35h28q14 0 25 7.5t16 38.5h31l-24 -136h-31l2 6q2 14 0.5 20.5t-5.5 9.5t-9.5 4.5t-11.5 5.5h-28l-7 -36q-3 -18 0.5 -29.5t29.5 -11.5l-7 -39h-109l7 39h4q11 0 17 3t9.5 8.5
t6 13t7.5 16.5l7 36h-29q-16 0 -25.5 -6.5t-14.5 -33.5l-2 -6h-32l24 136h32q-5 -31 2.5 -38.5t22.5 -7.5h29zM99 90h93q7 0 13.5 1.5t11.5 6t9 13.5t7 25h31l-24 -136h-31l1 5q2 14 0.5 20.5t-5.5 9.5t-9.5 5t-11.5 6h-93q-15 0 -25 -7t-15 -34l-1 -5h-31l24 136h31
q-3 -16 -2 -25t4.5 -13.5t9.5 -6t13 -1.5z" />
    <glyph glyph-name="FL00B2h" unicode="&#xb2;" horiz-adv-x="258" 
d="M252 694q16 -6 14 -27l-17 -94q-2 -10 -6.5 -18t-12.5 -10h-48q-6 0 -14.5 -0.5t-17 -4.5t-15.5 -11.5t-10 -22.5l-30 -172h186l22 126q2 8 9.5 14.5t12.5 8.5l4 20h-43l-7 -2q-16 -5 -31.5 -14.5t-19.5 -30.5l-17 -96h-20q-9 0 -11 8.5t0 20.5l18 105q4 9 7.5 16.5
t16.5 9.5h43q6 0 14.5 2.5t17 7t15 11.5t8.5 16l22 122q3 15 -1 23t-11 12t-15.5 5t-14.5 1h-87q-6 0 -14.5 -0.5t-17 -4.5t-15.5 -12t-10 -23l-13 -75q-2 -6 -8.5 -14t-14.5 -10l-3 -20h44q16 2 34.5 13t22.5 33l10 54q2 11 8.5 22t15.5 11z" />
    <glyph glyph-name="FL00B3h" unicode="&#xb3;" horiz-adv-x="242" 
d="M252 694q-9 0 -15.5 -11t-8.5 -22l-10 -54q-4 -22 -22.5 -33t-34.5 -13h-44l3 20q8 2 14.5 10t8.5 14l13 75q3 15 10 23t15.5 12t17 4.5t14.5 0.5h87q14 0 29.5 -11t11.5 -35l-17 -94q-2 -10 -8.5 -18.5t-12.5 -11.5l1 -2q4 -2 7.5 -11.5t0.5 -25.5l-25 -140
q-2 -9 -9 -15.5t-16 -11.5t-17 -7.5t-11 -2.5h-85q-3 0 -11.5 2.5t-17 7.5t-14.5 12.5t-4 16.5l15 87q2 8 -2.5 14.5t-11.5 8.5l4 20h44q16 0 30 -12t10 -35l-12 -69q-2 -11 2 -19t12 -8q9 0 15.5 8.5t8.5 20.5l18 105q2 15 -5 22q-5 -2 -9 -7t-6 -17l-1 -3h-18l15 82h18
q-4 -19 3 -26h5q9 4 11 17l19 107l-1 -2q2 21 -14 27z" />
    <glyph glyph-name="FL00B4h" unicode="&#xb4;" horiz-adv-x="160" 
d="M129 628h80l59 92h-84z" />
    <glyph glyph-name="FL00B5h" unicode="&#xb5;" 
d="M125 609l6 34h72q12 -1 25.5 -6t24 -14.5t16 -24t2.5 -33.5l-30 -169q-3 -14 2.5 -27t15.5 -16h12q10 3 19 14t13 25l31 173q3 19 13.5 33.5t24 24t28.5 14.5t27 6h73l-6 -34q-9 -3 -21 -15t-14 -23l-35 -197q-2 -14 -14 -25.5t-28 -20t-32.5 -13.5t-26.5 -5h-68
q-17 -6 -24.5 -17t-12.5 -27l-31 -175q-3 -19 1.5 -33t19.5 -14h2q12 0 24.5 14t15.5 30l20 116q3 19 13.5 33.5t24.5 24t29 15t27 6.5h72l-6 -35q-10 -3 -21.5 -15t-13.5 -23l-26 -145q-3 -15 -16.5 -27.5t-30 -20.5t-32.5 -12.5t-23 -4.5h-137q-10 0 -23.5 4.5t-25.5 12.5
t-19 20.5t-4 27.5l90 506q2 11 -6 23t-17 15z" />
    <glyph glyph-name="FL00B6h" unicode="&#xb6;" horiz-adv-x="402" 
d="M287 304l-57 -323q-4 -20 3 -34t19.5 -23t27.5 -13t27 -4h60l6 35q-11 0 -19 8t-3 31l55 316q5 24 -1.5 41t-12.5 19v4q8 5 19 19.5t15 29.5h1l29 163q2 12 14 23t22 14l6 34h-73q-13 -1 -27.5 -6.5t-28 -15t-23.5 -23.5t-13 -33l-32 -178q-5 -4 -16 -5.5t-16 -3.5
q-6 2 -17 3t-14 5l32 178q3 19 -2 33.5t-15 24t-23 14.5t-26 6h-73l-6 -34q9 -3 17 -14t6 -23l-29 -163h1q-1 -15 6 -29.5t12 -19.5l-1 -4q-8 -2 -19.5 -19t-16.5 -41l-39 -222q-5 -24 -15.5 -31.5t-22.5 -7.5l-6 -35h61q12 0 28.5 4t32.5 13t28 23t15 34l40 229q7 11 16 14
t17 5h3q6 -2 16.5 -6t11.5 -12z" />
    <glyph glyph-name="FL00B7h" unicode="&#xb7;" horiz-adv-x="163" 
d="M75 326q5 29 27.5 50t48.5 21t40 -21t9 -50q-5 -30 -26.5 -50.5t-47.5 -20.5t-41 20.5t-10 50.5z" />
    <glyph glyph-name="FL00B8h" unicode="&#xb8;" horiz-adv-x="74" 
d="M19 0h35l-7 -41q-3 -18 1 -29.5t29 -11.5l-7 -39h-115l7 39h5q22 0 28.5 11.5t16.5 29.5z" />
    <glyph glyph-name="FL00B9h" unicode="&#xb9;" horiz-adv-x="157" 
d="M145 720h104l-61 -347q-2 -7 3.5 -12t8.5 -7l-3 -20h-108l3 20q5 2 11.5 7t8.5 12l55 316q-11 -5 -15 -17h-16z" />
    <glyph glyph-name="FL00BAh" unicode="&#xba;" horiz-adv-x="224" 
d="M196 720h86q6 0 14.5 -1t16 -5t12 -12.5t1.5 -23.5l-54 -305q-2 -9 -9 -16.5t-16 -12.5t-18 -7.5t-15 -2.5h-86q-6 0 -14 2.5t-15.5 7.5t-12 12.5t-2.5 16.5l54 306q3 15 10 23t15.5 12t17.5 5t15 1zM228 658q-7 0 -10.5 -9t-5.5 -17l-37 -214q-2 -9 -1.5 -16t7.5 -7
q12 0 16 28l36 209q2 8 1 17t-6 9z" />
    <glyph glyph-name="FL00BBh" unicode="&#xbb;" horiz-adv-x="210" 
d="M80 353l18 98l65 -48l-24 -135l-82 -48l17 98l35 18zM180 353l18 98l64 -48l-24 -135l-81 -48l17 98l35 18z" />
    <glyph glyph-name="FL00BCh" unicode="&#xbc;" horiz-adv-x="771" 
d="M808 314l-3 11l-73 48l54 18h7l-5 11l-111 30l46 35h-136l18 41l-137 -23l2 35l-9 5l-101 -53l-34 36l-66 -68q-7 -4 -13 -4q-11 0 -22 6.5t-25 18.5l-23 -83l-63 7l-3 -25l26 -52l-66 -5l78 -52l-62 -30l117 -32l-46 -32l138 -7l-20 -39l130 26l12 -23l-9 -22l111 58
l41 -36l64 71l60 -24l20 83l65 -13l3 7q3 18 -31 70zM717 356l-23 -76l-14 2l16 79zM690 247l-17 -16l-8 13l12 11zM653 254q-23 0 -45 51l-9 -50l-16 -2l18 103l39 -68l16 73l15 -5zM568 255l-11 2q-4 25 -17 25q-11 0 -27 -25h-19q18 54 55 103q1 4 13 4q16 0 19 -34z
M504 361l-23 -102l-22 -6l26 103zM440 249q-21 0 -45 51l-9 -49l-16 -4l18 105l40 -66l17 70l13 -4zM373 322q-21 -73 -47 -73l-7.5 -1.5t-7.5 -0.5q-22 0 -28 17q11 66 50 92h10q30 0 30 -34zM293 359l-6 -25q-2 2 -3.5 2.5l-1.5 0.5h-5q-8 0 -26 -15q-15 -15 -20 -42
q-3 -21 15 -21q12 0 18 3l-3 -17q-9 -2 -11.5 -4t-7.5 -2q-26 0 -26 47q0 1 -0.5 2.5t-0.5 3.5l2 8q9 49 76 59zM218 356l-24 -100l-20 -9l28 107zM561 305l-6 34l-22 -34h28zM352 307q1 1 1 4q0 5 1 8q-6 13 -15 13q-14 0 -31 -32l-2 -8q-4 -25 10 -25q10 0 25 9
q6 9 7.5 14.5t3.5 16.5z" />
    <glyph glyph-name="FL00BDh" unicode="&#xbd;" horiz-adv-x="430" 
d="M359 327q-9 0 -16 -11t-9 -22l-10 -54q-4 -21 -22 -33t-34 -14h-44l3 19l-133 -212h-76l6 32q8 3 19 12.5t13 20.5l142 225h-73l4 20q4 2 10 7t8 11l56 317q-12 -5 -14 -17h-16l8 48h104l-61 -346l198 313h73l-5 -32q-8 -3 -17 -12.5t-14 -19.5l-143 -226h90q6 0 14.5 -1
t16 -5t11.5 -12t1 -23l-21 -122q-2 -9 -9 -16t-16 -11.5t-17.5 -7t-14.5 -2.5h-43q-12 -3 -15.5 -10t-8.5 -16l-18 -105q-2 -12 0.5 -20.5t11.5 -8.5h20l17 96q4 21 19 30.5t32 14.5l6 2h43l-4 -20q-5 -2 -12 -8.5t-9 -14.5l-22 -126h-187l31 172q2 15 9 22.5t15.5 11.5
t17 4.5t14.5 0.5h49q8 2 12 10t6 18l17 94q1 10 -1.5 16.5t-11.5 10.5zM251 250l-22 -36q5 2 11.5 9.5t8.5 14.5z" />
    <glyph glyph-name="FL00BEh" unicode="&#xbe;" horiz-adv-x="561" 
d="M605 356l-23 -76l-14 2l17 79zM578 247l-16 -16l-9 13l13 11zM541 254q-22 0 -44 51l-9 -50l-16 -2l18 103l39 -68l15 73l15 -5zM457 255l-12 2q-4 25 -17 25q-11 0 -26 -25h-20q9 27 23 52.5t32 50.5q3 4 13 4q17 0 20 -34zM392 361l-23 -102l-22 -6l27 103zM329 249
q-21 0 -46 51l-9 -49l-16 -4l18 105l41 -66l16 70l14 -4zM262 322q-22 -73 -48 -73l-7.5 -1.5t-7.5 -0.5q-22 0 -27 17q11 67 49 92h11q29 0 30 -34zM181 359l-5 -25q-3 2 -4 2.5l-1 0.5h-6q-9 0 -25 -15q-9 -10 -14 -20.5t-7 -21.5q-3 -21 16 -21q12 0 17 3l-3 -17
q-8 -2 -11 -4t-7 -2q-25 0 -27 47v6l2 8q9 48 75 59zM106 356l-23 -100l-21 -9l28 107zM449 305l-5 34l-23 -34h28zM240 307q1 1 1 4q0 5 1 8q-4 13 -14 13q-15 0 -32 -32l-2 -8q-4 -25 10 -25q9 0 26 9q5 9 6.5 14.5t3.5 16.5z" />
    <glyph glyph-name="FL00BFh" unicode="&#xbf;" horiz-adv-x="378" 
d="M182 44q7 0 14 5.5t12 13.5t9 17t6 17l16 90q3 19 13.5 33.5t24.5 24t29 14.5t27 6h72l-6 -34q-10 -2 -21.5 -15t-13.5 -23l-22 -127q-5 -25 -17 -38.5t-26.5 -19.5t-29 -7t-23.5 -1h-144q-10 0 -24 1.5t-26 8t-19 20t-3 37.5l36 204q3 15 14.5 26.5t26 19.5t29.5 12
t25 4h34q18 5 27 16.5t11 27.5l13 69h127l-16 -90q-5 -24 -16.5 -37t-25.5 -19.5t-28 -7.5t-24 -1h-47q-12 -4 -19.5 -16.5t-10.5 -29.5l-27 -157q-1 -16 2.5 -27.5t20.5 -16.5zM395 572q-5 -29 -27.5 -50t-49.5 -21q-26 0 -40.5 21t-9.5 50q6 30 28.5 50.5t48.5 20.5
t40.5 -20.5t9.5 -50.5z" />
    <glyph glyph-name="FL00C0h" unicode="&#xc0;" horiz-adv-x="415" 
d="M23 0l6 32q8 3 18.5 12.5t12.5 20.5l91 514q2 11 -5.5 20t-14.5 12l5 32h239q6 0 23 -1t34 -7t28.5 -19t7.5 -37l-106 -599q-2 -12 4 -19.5t14.5 -12t18 -6t15.5 -1.5l-7 -35h-88q-12 0 -27 4t-27 13t-19 23t-4 34l62 350h-72l-47 -265q-2 -11 5.5 -20.5t14.5 -12.5
l-6 -32h-176zM314 598h-35l-39 -222h68l30 170q3 17 -3 34.5t-21 17.5zM378 674h-78l-28 92h84z" />
    <glyph glyph-name="FL00C1h" unicode="&#xc1;" horiz-adv-x="415" 
d="M23 0l6 32q8 3 18.5 12.5t12.5 20.5l91 514q2 11 -5.5 20t-14.5 12l5 32h239q6 0 23 -1t34 -7t28.5 -19t7.5 -37l-106 -599q-2 -12 4 -19.5t14.5 -12t18 -6t15.5 -1.5l-7 -35h-88q-12 0 -27 4t-27 13t-19 23t-4 34l62 350h-72l-47 -265q-2 -11 5.5 -20.5t14.5 -12.5
l-6 -32h-176zM314 598h-35l-39 -222h68l30 170q3 17 -3 34.5t-21 17.5zM345 674h-79l54 92h85z" />
    <glyph glyph-name="FL00C2h" unicode="&#xc2;" horiz-adv-x="415" 
d="M23 0l6 32q8 3 18.5 12.5t12.5 20.5l91 514q2 11 -5.5 20t-14.5 12l5 32h239q6 0 23 -1t34 -7t28.5 -19t7.5 -37l-106 -599q-2 -12 4 -19.5t14.5 -12t18 -6t15.5 -1.5l-7 -35h-88q-12 0 -27 4t-27 13t-19 23t-4 34l62 350h-72l-47 -265q-2 -11 5.5 -20.5t14.5 -12.5
l-6 -32h-176zM314 598h-35l-39 -222h68l30 170q3 17 -3 34.5t-21 17.5zM310 674h-79l54 92h108l23 -92h-78l-7 40z" />
    <glyph glyph-name="FL00C3h" unicode="&#xc3;" horiz-adv-x="415" 
d="M23 0l6 32q8 3 18.5 12.5t12.5 20.5l91 514q2 11 -5.5 20t-14.5 12l5 32h239q6 0 23 -1t34 -7t28.5 -19t7.5 -37l-106 -599q-2 -12 4 -19.5t14.5 -12t18 -6t15.5 -1.5l-7 -35h-88q-12 0 -27 4t-27 13t-19 23t-4 34l62 350h-72l-47 -265q-2 -11 5.5 -20.5t14.5 -12.5
l-6 -32h-176zM314 598h-35l-39 -222h68l30 170q3 17 -3 34.5t-21 17.5zM356 766h78l-53 -92h-56l-8 40l-21 -40h-79l55 92h56l7 -40z" />
    <glyph glyph-name="FL00C4h" unicode="&#xc4;" horiz-adv-x="415" 
d="M23 0l6 32q8 3 18.5 12.5t12.5 20.5l91 514q2 11 -5.5 20t-14.5 12l5 32h239q6 0 23 -1t34 -7t28.5 -19t7.5 -37l-106 -599q-2 -12 4 -19.5t14.5 -12t18 -6t15.5 -1.5l-7 -35h-88q-12 0 -27 4t-27 13t-19 23t-4 34l62 350h-72l-47 -265q-2 -11 5.5 -20.5t14.5 -12.5
l-6 -32h-176zM314 598h-35l-39 -222h68l30 170q3 17 -3 34.5t-21 17.5zM237 720q3 19 17 32.5t31 13.5t26 -13.5t6 -32.5q-4 -20 -17.5 -33.5t-30.5 -13.5t-26.5 13.5t-5.5 33.5zM425 720q-4 -20 -17.5 -33.5t-30.5 -13.5t-26.5 13.5t-5.5 33.5q3 19 17 32.5t31 13.5
t26 -13.5t6 -32.5z" />
    <glyph glyph-name="FL00C5h" unicode="&#xc5;" horiz-adv-x="415" 
d="M292 720q-4 -20 5.5 -33.5t26.5 -13.5t30 13.5t17 33.5q3 19 -5.5 32.5t-25.5 13.5t-31 -13.5t-17 -32.5zM279 598h35q15 0 21 -17.5t3 -34.5l-30 -170h-68zM29 32l-6 -32h176l6 32q-7 3 -14.5 12.5t-5.5 20.5l47 265h72l-62 -350q-3 -20 4 -34t19 -23t27 -13t27 -4h88
l7 35q-6 0 -15.5 1.5t-18 6t-14.5 12t-4 19.5l106 599q4 24 -7.5 37t-28.5 19t-34 7t-23 1h-239l-5 -32q7 -3 14.5 -12t5.5 -20l-91 -514q-2 -11 -12.5 -20.5t-18.5 -12.5zM340 720q-2 -9 -10 -9q-9 0 -7 9q1 9 11 9q7 0 6 -9z" />
    <glyph glyph-name="FL00C6h" unicode="&#xc6;" horiz-adv-x="648" 
d="M19 0l6 36q10 3 21.5 13.5t13.5 23.5l101 575q2 13 -5.5 23t-15.5 13l6 37h579l-41 -235q-1 -5 0.5 -12t5 -13.5t7.5 -11.5t9 -6l-7 -39h-77q-12 1 -26 7t-24.5 17t-16 27t-1.5 37l28 161q2 11 -6.5 20t-21.5 11q-11 -2 -24.5 -12.5t-15.5 -23.5l-45 -258q17 0 28 8.5
t17 43.5h32l-27 -153h-32l1 6q5 31 -3 38.5t-25 7.5l-47 -268q-2 -13 7 -23.5t22 -15.5q12 2 23 10t14 23l28 162q4 21 15 37t25.5 26.5t30 16.5t29.5 8h77l-7 -39q-10 -3 -23 -16.5t-15 -26.5l-41 -235h-205l-4 -23q-2 -13 2 -21.5t10.5 -13t14 -6.5t13.5 -2l-6 -38h-92
q-13 0 -29 4.5t-29 14t-20 25t-3 37.5l69 393h-76l-52 -297q-2 -13 5.5 -23.5t14.5 -13.5l-6 -36h-186zM332 670h-36l-44 -249h71l34 191q3 18 -3 38t-22 20z" />
    <glyph glyph-name="FL00C7h" unicode="&#xc7;" horiz-adv-x="396" 
d="M301 671q-20 -5 -28 -18t-13 -31l-92 -520q-4 -21 0.5 -37t21.5 -16h2q12 0 24.5 16t15.5 34l23 130q4 21 15.5 37t26 26.5t30 16.5t29.5 8h77l-7 -39q-11 -4 -24 -17t-15 -26l-28 -162q-3 -17 -17.5 -30.5t-32.5 -23t-34.5 -14.5t-23.5 -5h-51l-7 -41q-3 -18 1 -29.5
t29 -11.5l-7 -39h-115l7 39h4q22 0 29 11.5t17 29.5l7 41h-59q-10 0 -24 5t-26 14.5t-19.5 23t-4.5 30.5l101 572q4 27 16.5 42t27.5 22.5t30.5 9.5t25.5 2h152q10 0 25 -1t28 -8t20 -22t2 -43l-28 -162q-1 -5 0.5 -12t5 -13.5t8 -11.5t9.5 -6l-7 -39h-77q-13 1 -26.5 7
t-24 17t-16.5 26.5t-3 36.5l22 122q1 5 1 9v10q0 15 -5.5 27.5t-17.5 12.5z" />
    <glyph glyph-name="FL00C8h" unicode="&#xc8;" horiz-adv-x="408" 
d="M339 583q2 9 -7 17.5t-21 10.5q-10 -2 -22 -11.5t-14 -20.5l-41 -231q14 0 25 7.5t16 38.5h31l-24 -136h-31l2 6q5 27 -3 33.5t-23 6.5l-43 -239q-2 -11 7 -20t20 -14q11 2 22 8.5t14 20.5l25 144q3 19 13.5 33.5t25 24t29.5 15t27 6.5h73l-6 -35q-10 -3 -22 -15t-14 -23
l-37 -210h-343l6 32q8 3 19 12.5t13 20.5l91 514q2 11 -6 20t-15 12l5 32h343l-36 -209q-2 -11 5.5 -24t16.5 -15l-6 -34h-73q-12 1 -25.5 6.5t-24 15t-16 23.5t-2.5 33zM378 674h-78l-28 92h84z" />
    <glyph glyph-name="FL00C9h" unicode="&#xc9;" horiz-adv-x="408" 
d="M339 583q2 9 -7 17.5t-21 10.5q-10 -2 -22 -11.5t-14 -20.5l-41 -231q14 0 25 7.5t16 38.5h31l-24 -136h-31l2 6q5 27 -3 33.5t-23 6.5l-43 -239q-2 -11 7 -20t20 -14q11 2 22 8.5t14 20.5l25 144q3 19 13.5 33.5t25 24t29.5 15t27 6.5h73l-6 -35q-10 -3 -22 -15t-14 -23
l-37 -210h-343l6 32q8 3 19 12.5t13 20.5l91 514q2 11 -6 20t-15 12l5 32h343l-36 -209q-2 -11 5.5 -24t16.5 -15l-6 -34h-73q-12 1 -25.5 6.5t-24 15t-16 23.5t-2.5 33zM345 674h-79l54 92h85z" />
    <glyph glyph-name="FL00CAh" unicode="&#xca;" horiz-adv-x="408" 
d="M339 583q2 9 -7 17.5t-21 10.5q-10 -2 -22 -11.5t-14 -20.5l-41 -231q14 0 25 7.5t16 38.5h31l-24 -136h-31l2 6q5 27 -3 33.5t-23 6.5l-43 -239q-2 -11 7 -20t20 -14q11 2 22 8.5t14 20.5l25 144q3 19 13.5 33.5t25 24t29.5 15t27 6.5h73l-6 -35q-10 -3 -22 -15t-14 -23
l-37 -210h-343l6 32q8 3 19 12.5t13 20.5l91 514q2 11 -6 20t-15 12l5 32h343l-36 -209q-2 -11 5.5 -24t16.5 -15l-6 -34h-73q-12 1 -25.5 6.5t-24 15t-16 23.5t-2.5 33zM310 674h-79l54 92h108l23 -92h-78l-7 40z" />
    <glyph glyph-name="FL00CBh" unicode="&#xcb;" horiz-adv-x="408" 
d="M339 583q2 9 -7 17.5t-21 10.5q-10 -2 -22 -11.5t-14 -20.5l-41 -231q14 0 25 7.5t16 38.5h31l-24 -136h-31l2 6q5 27 -3 33.5t-23 6.5l-43 -239q-2 -11 7 -20t20 -14q11 2 22 8.5t14 20.5l25 144q3 19 13.5 33.5t25 24t29.5 15t27 6.5h73l-6 -35q-10 -3 -22 -15t-14 -23
l-37 -210h-343l6 32q8 3 19 12.5t13 20.5l91 514q2 11 -6 20t-15 12l5 32h343l-36 -209q-2 -11 5.5 -24t16.5 -15l-6 -34h-73q-12 1 -25.5 6.5t-24 15t-16 23.5t-2.5 33zM237 720q3 19 17 32.5t31 13.5t26 -13.5t6 -32.5q-4 -20 -17.5 -33.5t-30.5 -13.5t-26.5 13.5
t-5.5 33.5zM425 720q-4 -20 -17.5 -33.5t-30.5 -13.5t-26.5 13.5t-5.5 33.5q3 19 17 32.5t31 13.5t26 -13.5t6 -32.5z" />
    <glyph glyph-name="FL00CCh" unicode="&#xcc;" horiz-adv-x="218" 
d="M286 674h-78l-28 92h84zM204 32l-6 -32h-180l6 32q8 3 19 12.5t13 20.5l91 514q2 11 -6 20t-15 12l5 32h180l-5 -32q-7 -3 -18 -12t-13 -20l-91 -514q-2 -11 6 -20.5t14 -12.5z" />
    <glyph glyph-name="FL00CDh" unicode="&#xcd;" horiz-adv-x="218" 
d="M18 0l6 32q8 3 19 12.5t13 20.5l91 514q2 11 -6 20t-15 12l5 32h180l-5 -32q-7 -3 -18 -12t-13 -20l-91 -514q-2 -11 6 -20.5t14 -12.5l-6 -32h-180zM248 674h-79l55 92h84z" />
    <glyph glyph-name="FL00CEh" unicode="&#xce;" horiz-adv-x="218" 
d="M18 0l6 32q8 3 19 12.5t13 20.5l91 514q2 11 -6 20t-15 12l5 32h180l-5 -32q-7 -3 -18 -12t-13 -20l-91 -514q-2 -11 6 -20.5t14 -12.5l-6 -32h-180zM215 674h-78l53 92h108l23 -92h-78l-7 40z" />
    <glyph glyph-name="FL00CFh" unicode="&#xcf;" horiz-adv-x="218" 
d="M18 0l6 32q8 3 19 12.5t13 20.5l91 514q2 11 -6 20t-15 12l5 32h180l-5 -32q-7 -3 -18 -12t-13 -20l-91 -514q-2 -11 6 -20.5t14 -12.5l-6 -32h-180zM142 720q3 19 17 32.5t30 13.5q17 0 26 -13.5t6 -32.5q-4 -20 -17.5 -33.5t-30.5 -13.5q-16 0 -25.5 13.5t-5.5 33.5z
M329 720q-4 -20 -17.5 -33.5t-30.5 -13.5q-16 0 -25.5 13.5t-5.5 33.5q3 19 17 32.5t30 13.5q17 0 26 -13.5t6 -32.5z" />
    <glyph glyph-name="FL0115h" unicode="&#xd0;" horiz-adv-x="411" 
d="M168 643h248q10 0 25 -1.5t28 -8.5t21 -21.5t4 -39.5l-90 -507q-3 -15 -15 -27.5t-27 -20.5t-30.5 -12.5t-25.5 -4.5h-251l6 32q8 3 19 12.5t13 20.5l43 239q-16 -1 -25 -7.5t-14 -32.5l-2 -6h-32l24 136h32q-5 -30 2 -38t22 -8l41 231q2 11 -6 20t-15 12zM343 599
q-15 0 -24 -5t-12 -22l-88 -501q-2 -10 3.5 -18.5t19.5 -8.5q17 0 28 16.5t16 42.5l78 443q2 17 -2.5 35t-18.5 18z" />
    <glyph glyph-name="FL00D1h" unicode="&#xd1;" horiz-adv-x="403" 
d="M432 766h-79l-20 -40l-8 40h-56l-54 -92h78l21 40l7 -40h56zM465 578h-1v1q2 11 13 20t19 12l5 32h-175l-5 -32q5 -3 13.5 -11t6.5 -15l-44 -251l-65 245q0 10 -4 21.5t-9.5 21t-11 15.5t-8.5 6h-68l-5 -32q7 -3 15 -12t6 -20l-91 -514q-2 -11 -13 -20.5t-19 -12.5
l-6 -32h177l6 32q-7 3 -14.5 12.5t-5.5 20.5l40 227l69 -230q0 -9 3 -20t8 -20t11.5 -15.5t12.5 -6.5h38z" />
    <glyph glyph-name="FL00D2h" unicode="&#xd2;" horiz-adv-x="349" 
d="M280 599q-15 0 -26.5 -18t-14.5 -35l-80 -455q-3 -19 1.5 -33t19.5 -14q21 0 30 16.5t14 42.5l78 443q3 17 -2 35t-20 18zM215 643h144q10 0 24 -1.5t26 -8.5t19 -21.5t3 -39.5l-90 -507q-3 -15 -14 -27.5t-25.5 -20.5t-29.5 -12.5t-25 -4.5h-145q-10 0 -23.5 4.5
t-25.5 12.5t-19.5 20.5t-4.5 27.5l90 510q4 24 16 37.5t26.5 20.5t29 8.5t24.5 1.5zM351 674h-78l-28 92h84z" />
    <glyph glyph-name="FL00D4h" unicode="&#xd3;" horiz-adv-x="349" 
d="M280 599q-15 0 -26.5 -18t-14.5 -35l-80 -455q-3 -19 1.5 -33t19.5 -14q21 0 30 16.5t14 42.5l78 443q3 17 -2 35t-20 18zM215 643h144q10 0 24 -1.5t26 -8.5t19 -21.5t3 -39.5l-90 -507q-3 -15 -14 -27.5t-25.5 -20.5t-29.5 -12.5t-25 -4.5h-145q-10 0 -23.5 4.5
t-25.5 12.5t-19.5 20.5t-4.5 27.5l90 510q4 24 16 37.5t26.5 20.5t29 8.5t24.5 1.5zM314 674h-78l54 92h84z" />
    <glyph glyph-name="FL00D5h" unicode="&#xd4;" horiz-adv-x="349" 
d="M215 643h144q10 0 24 -1.5t26 -8.5t19 -21.5t3 -39.5l-90 -507q-3 -15 -14 -27.5t-25.5 -20.5t-29.5 -12.5t-25 -4.5h-145q-10 0 -23.5 4.5t-25.5 12.5t-19.5 20.5t-4.5 27.5l90 510q4 24 16 37.5t26.5 20.5t29 8.5t24.5 1.5zM280 599q-15 0 -26.5 -18t-14.5 -35
l-80 -455q-3 -19 1.5 -33t19.5 -14q21 0 30 16.5t14 42.5l78 443q3 17 -2 35t-20 18zM280 674h-79l54 92h108l22 -92h-77l-8 40z" />
    <glyph glyph-name="FL00D6h" unicode="&#xd5;" horiz-adv-x="349" 
d="M215 643h144q10 0 24 -1.5t26 -8.5t19 -21.5t3 -39.5l-90 -507q-3 -15 -14 -27.5t-25.5 -20.5t-29.5 -12.5t-25 -4.5h-145q-10 0 -23.5 4.5t-25.5 12.5t-19.5 20.5t-4.5 27.5l90 510q4 24 16 37.5t26.5 20.5t29 8.5t24.5 1.5zM280 599q-15 0 -26.5 -18t-14.5 -35
l-80 -455q-3 -19 1.5 -33t19.5 -14q21 0 30 16.5t14 42.5l78 443q3 17 -2 35t-20 18zM328 766h78l-53 -92h-57l-8 40l-20 -40h-79l55 92h56l7 -40z" />
    <glyph glyph-name="FL00D8h" unicode="&#xd6;" horiz-adv-x="349" 
d="M280 599q-15 0 -26.5 -18t-14.5 -35l-80 -455q-3 -19 1.5 -33t19.5 -14q21 0 30 16.5t14 42.5l78 443q3 17 -2 35t-20 18zM215 643h144q10 0 24 -1.5t26 -8.5t19 -21.5t3 -39.5l-90 -507q-3 -15 -14 -27.5t-25.5 -20.5t-29.5 -12.5t-25 -4.5h-145q-10 0 -23.5 4.5
t-25.5 12.5t-19.5 20.5t-4.5 27.5l90 510q4 24 16 37.5t26.5 20.5t29 8.5t24.5 1.5zM208 720q3 19 16.5 32.5t30.5 13.5t26 -13.5t6 -32.5q-4 -20 -17.5 -33.5t-30.5 -13.5t-26 13.5t-5 33.5zM395 720q-4 -20 -17.5 -33.5t-30.5 -13.5t-26 13.5t-5 33.5q3 19 16.5 32.5
t30.5 13.5t26 -13.5t6 -32.5z" />
    <glyph glyph-name="FL00D7h" unicode="&#xd7;" horiz-adv-x="270" 
d="M222 382q7 7 12 13.5t7 14.5q3 13 -8 30l-2 4l26 27l60 -97l-26 -27q-7 11 -12 15.5t-12 4.5q-6 0 -11.5 -4t-13.5 -12l-25 -25l16 -25q5 -8 9 -12.5t10 -4.5q9 0 32 20l16 -27l-94 -96l-16 27l2 3q13 13 16 26q2 8 -0.5 15t-4.5 18l-16 24l-26 -25q-8 -8 -11.5 -14
t-5.5 -14q-2 -15 10 -34l-26 -27l-61 96l26 27l3 -3q8 -14 17 -14q7 0 13.5 5t16.5 10l24 25l-15 25q-9 17 -20 17t-27 -16l-4 -4l-17 27l95 97l17 -27q-19 -19 -22 -35q-2 -8 0 -14t7 -14l17 -25z" />
    <glyph glyph-name="FL00DFh" unicode="&#xd8;" horiz-adv-x="349" 
d="M360 643h-145q-9 0 -23.5 -1.5t-29 -8.5t-27 -21.5t-16.5 -39.5l-90 -507q-3 -15 4.5 -27.5t19.5 -20.5t25.5 -12.5t23.5 -4.5h145q10 0 25 4.5t29.5 12.5t25.5 20.5t14 27.5l90 510q4 24 -2.5 37.5t-18.5 20.5t-26 8.5t-24 1.5zM185 44q-22 0 -25.5 16.5t1.5 42.5
l44 248l27 -205l-10 -55q-3 -19 -12.5 -33t-24.5 -14zM280 599q15 0 20 -18t2 -35l-40 -231l-27 207l4 24q3 17 14.5 35t26.5 18z" />
    <glyph glyph-name="FL00D9h" unicode="&#xd9;" 
d="M495 609q-9 -3 -21 -15t-14 -23l-90 -506q-3 -15 -16.5 -27.5t-30 -20.5t-32 -12.5t-22.5 -4.5h-131q-6 0 -20.5 4.5t-28.5 12.5t-24 20.5t-7 27.5l90 506q2 11 -6 23t-17 15l6 34h73q12 -1 25.5 -6t24 -14.5t16 -24t2.5 -33.5l-84 -477q-3 -16 4.5 -30t18.5 -14h1
q11 0 23 14t15 30l84 477q3 19 13.5 33.5t24.5 24t29 14.5t27 6h73zM378 674h-78l-28 92h84z" />
    <glyph glyph-name="FL00DAh" unicode="&#xda;" 
d="M495 609q-9 -3 -21 -15t-14 -23l-90 -506q-3 -15 -16.5 -27.5t-30 -20.5t-32 -12.5t-22.5 -4.5h-131q-6 0 -20.5 4.5t-28.5 12.5t-24 20.5t-7 27.5l90 506q2 11 -6 23t-17 15l6 34h73q12 -1 25.5 -6t24 -14.5t16 -24t2.5 -33.5l-84 -477q-3 -16 4.5 -30t18.5 -14h1
q11 0 23 14t15 30l84 477q3 19 13.5 33.5t24.5 24t29 14.5t27 6h73zM345 674h-79l54 92h85z" />
    <glyph glyph-name="FL00DBh" unicode="&#xdb;" 
d="M495 609q-9 -3 -21 -15t-14 -23l-90 -506q-3 -15 -16.5 -27.5t-30 -20.5t-32 -12.5t-22.5 -4.5h-131q-6 0 -20.5 4.5t-28.5 12.5t-24 20.5t-7 27.5l90 506q2 11 -6 23t-17 15l6 34h73q12 -1 25.5 -6t24 -14.5t16 -24t2.5 -33.5l-84 -477q-3 -16 4.5 -30t18.5 -14h1
q11 0 23 14t15 30l84 477q3 19 13.5 33.5t24.5 24t29 14.5t27 6h73zM310 674h-79l54 92h108l23 -92h-78l-7 40z" />
    <glyph glyph-name="FL00DCh" unicode="&#xdc;" 
d="M495 609q-9 -3 -21 -15t-14 -23l-90 -506q-3 -15 -16.5 -27.5t-30 -20.5t-32 -12.5t-22.5 -4.5h-131q-6 0 -20.5 4.5t-28.5 12.5t-24 20.5t-7 27.5l90 506q2 11 -6 23t-17 15l6 34h73q12 -1 25.5 -6t24 -14.5t16 -24t2.5 -33.5l-84 -477q-3 -16 4.5 -30t18.5 -14h1
q11 0 23 14t15 30l84 477q3 19 13.5 33.5t24.5 24t29 14.5t27 6h73zM237 720q3 19 17 32.5t31 13.5t26 -13.5t6 -32.5q-4 -20 -17.5 -33.5t-30.5 -13.5t-26.5 13.5t-5.5 33.5zM425 720q-4 -20 -17.5 -33.5t-30.5 -13.5t-26.5 13.5t-5.5 33.5q3 19 17 32.5t31 13.5t26 -13.5
t6 -32.5z" />
    <glyph glyph-name="FL00DDh" unicode="&#xdd;" 
d="M501 643l-6 -34q-9 -3 -21 -15t-14 -23l-90 -506q-3 -15 -14.5 -27.5t-25.5 -20.5t-28.5 -12.5t-24.5 -4.5h-138q-6 0 -20.5 4.5t-28.5 12.5t-24 20.5t-7 27.5l26 145q2 11 -6 23t-16 15l6 35h73q12 -1 25 -6.5t23.5 -15t16 -24t2.5 -33.5l-20 -116q-3 -16 4.5 -30
t18.5 -14h2q16 0 24.5 14t11.5 33l31 175q2 16 -2 27t-18 17h-68q-11 0 -25.5 5t-27.5 13.5t-21 20t-6 25.5l35 197q2 11 -6 23t-17 15l6 34h73q12 -1 25.5 -6t24 -14.5t16 -24t2.5 -33.5l-31 -173q-1 -14 4.5 -25t14.5 -14h12q11 3 20 16t12 27l30 169q3 19 13.5 33.5
t24.5 24t29 14.5t27 6h73zM345 674h-79l54 92h85z" />
    <glyph glyph-name="FL00DEh" unicode="&#xde;" horiz-adv-x="394" 
d="M19 0l6 36q10 3 21.5 13.5t13.5 23.5l101 575q2 13 -5.5 23t-15.5 13l6 37h186l-6 -37q-8 -3 -20 -13t-14 -23l-18 -104h94q7 0 23.5 -1.5t32.5 -8.5t27 -22t6 -42l-37 -211q-5 -25 -17.5 -40t-29.5 -22.5t-35.5 -10t-35.5 -2.5h-92l-19 -111q-2 -13 5.5 -23.5
t14.5 -13.5l-6 -36h-186zM296 494h-31l-46 -259h30q8 2 22 16.5t22 40.5l26 144q3 18 -2.5 38t-20.5 20z" />
    <glyph glyph-name="FL00E7h" unicode="&#xdf;" horiz-adv-x="350" 
d="M282 599q-16 0 -27 -18t-14 -35l-104 -591q-3 -19 -13.5 -33t-24.5 -23.5t-29 -15t-28 -6.5h-73l6 34q10 2 22 15.5t14 23.5l111 628q4 24 16 37.5t26 19.5t28.5 7t24.5 1h145q12 0 25.5 -4.5t24 -13.5t16.5 -23.5t3 -34.5l-28 -157q-2 -16 -14.5 -30t-20.5 -20l1 -4
q5 -3 12 -19t2 -41l-41 -235q-3 -14 -16 -25t-28 -19t-28.5 -12.5t-17.5 -4.5h-76l8 44h2q16 0 24.5 14t11.5 33l31 175q1 11 0 19.5t-9 16.5h-16l9 51h21q14 6 17 26l31 179l-2 -3q2 16 -2.5 27.5t-19.5 16.5z" />
    <glyph glyph-name="FL00E0h" unicode="&#xe0;" horiz-adv-x="415" 
d="M23 0l6 32q8 3 18.5 12.5t12.5 20.5l91 514q2 11 -5.5 20t-14.5 12l5 32h239q6 0 23 -1t34 -7t28.5 -19t7.5 -37l-106 -599q-2 -12 4 -19.5t14.5 -12t18 -6t15.5 -1.5l-7 -35h-88q-12 0 -27 4t-27 13t-19 23t-4 34l62 350h-72l-47 -265q-2 -11 5.5 -20.5t14.5 -12.5
l-6 -32h-176zM314 598h-35l-39 -222h68l30 170q3 17 -3 34.5t-21 17.5zM378 674h-78l-28 92h84z" />
    <glyph glyph-name="FL00E1h" unicode="&#xe1;" horiz-adv-x="415" 
d="M23 0l6 32q8 3 18.5 12.5t12.5 20.5l91 514q2 11 -5.5 20t-14.5 12l5 32h239q6 0 23 -1t34 -7t28.5 -19t7.5 -37l-106 -599q-2 -12 4 -19.5t14.5 -12t18 -6t15.5 -1.5l-7 -35h-88q-12 0 -27 4t-27 13t-19 23t-4 34l62 350h-72l-47 -265q-2 -11 5.5 -20.5t14.5 -12.5
l-6 -32h-176zM314 598h-35l-39 -222h68l30 170q3 17 -3 34.5t-21 17.5zM345 674h-79l54 92h85z" />
    <glyph glyph-name="FL00E2h" unicode="&#xe2;" horiz-adv-x="415" 
d="M23 0l6 32q8 3 18.5 12.5t12.5 20.5l91 514q2 11 -5.5 20t-14.5 12l5 32h239q6 0 23 -1t34 -7t28.5 -19t7.5 -37l-106 -599q-2 -12 4 -19.5t14.5 -12t18 -6t15.5 -1.5l-7 -35h-88q-12 0 -27 4t-27 13t-19 23t-4 34l62 350h-72l-47 -265q-2 -11 5.5 -20.5t14.5 -12.5
l-6 -32h-176zM314 598h-35l-39 -222h68l30 170q3 17 -3 34.5t-21 17.5zM310 674h-79l54 92h108l23 -92h-78l-7 40z" />
    <glyph glyph-name="FL00E3h" unicode="&#xe3;" horiz-adv-x="415" 
d="M23 0l6 32q8 3 18.5 12.5t12.5 20.5l91 514q2 11 -5.5 20t-14.5 12l5 32h239q6 0 23 -1t34 -7t28.5 -19t7.5 -37l-106 -599q-2 -12 4 -19.5t14.5 -12t18 -6t15.5 -1.5l-7 -35h-88q-12 0 -27 4t-27 13t-19 23t-4 34l62 350h-72l-47 -265q-2 -11 5.5 -20.5t14.5 -12.5
l-6 -32h-176zM314 598h-35l-39 -222h68l30 170q3 17 -3 34.5t-21 17.5zM356 766h78l-53 -92h-56l-8 40l-21 -40h-79l55 92h56l7 -40z" />
    <glyph glyph-name="FL00E4h" unicode="&#xe4;" horiz-adv-x="415" 
d="M23 0l6 32q8 3 18.5 12.5t12.5 20.5l91 514q2 11 -5.5 20t-14.5 12l5 32h239q6 0 23 -1t34 -7t28.5 -19t7.5 -37l-106 -599q-2 -12 4 -19.5t14.5 -12t18 -6t15.5 -1.5l-7 -35h-88q-12 0 -27 4t-27 13t-19 23t-4 34l62 350h-72l-47 -265q-2 -11 5.5 -20.5t14.5 -12.5
l-6 -32h-176zM314 598h-35l-39 -222h68l30 170q3 17 -3 34.5t-21 17.5zM237 720q3 19 17 32.5t31 13.5t26 -13.5t6 -32.5q-4 -20 -17.5 -33.5t-30.5 -13.5t-26.5 13.5t-5.5 33.5zM425 720q-4 -20 -17.5 -33.5t-30.5 -13.5t-26.5 13.5t-5.5 33.5q3 19 17 32.5t31 13.5
t26 -13.5t6 -32.5z" />
    <glyph glyph-name="FL00E5h" unicode="&#xe5;" horiz-adv-x="415" 
d="M292 720q-4 -20 5.5 -33.5t26.5 -13.5t30 13.5t17 33.5q3 19 -5.5 32.5t-25.5 13.5t-31 -13.5t-17 -32.5zM279 598h35q15 0 21 -17.5t3 -34.5l-30 -170h-68zM29 32l-6 -32h176l6 32q-7 3 -14.5 12.5t-5.5 20.5l47 265h72l-62 -350q-3 -20 4 -34t19 -23t27 -13t27 -4h88
l7 35q-6 0 -15.5 1.5t-18 6t-14.5 12t-4 19.5l106 599q4 24 -7.5 37t-28.5 19t-34 7t-23 1h-239l-5 -32q7 -3 14.5 -12t5.5 -20l-91 -514q-2 -11 -12.5 -20.5t-18.5 -12.5zM340 720q-2 -9 -10 -9q-9 0 -7 9q1 9 11 9q7 0 6 -9z" />
    <glyph glyph-name="FL00E6h" unicode="&#xe6;" horiz-adv-x="617" 
d="M18 0l6 32q8 3 19 12.5t13 20.5l91 514q2 11 -6 20t-15 12l5 32h552l-36 -209q-2 -11 5 -24t16 -15l-6 -34h-72q-12 1 -25.5 6.5t-24 15t-16 23.5t-2.5 33l26 144q2 9 -7 17.5t-21 10.5q-10 -2 -22 -11.5t-14 -20.5l-41 -231q14 0 24.5 7.5t15.5 38.5h32l-24 -136h-32
l2 6q5 27 -2.5 33.5t-22.5 6.5l-43 -239q-2 -11 7 -20t20 -14q11 2 22 8.5t14 20.5l25 144q3 19 13.5 33.5t25 24t29.5 15t27 6.5h72l-6 -35q-10 -3 -21.5 -15t-13.5 -23l-37 -210h-196l-4 -20q-2 -12 2 -19.5t11 -12t14.5 -6t12.5 -1.5l-7 -35h-88q-12 0 -27 4t-27 13
t-19 23t-4 34l62 350h-72l-47 -265q-2 -11 5.5 -20.5t14.5 -12.5l-6 -32h-177zM310 598h-35l-39 -222h67l30 170q3 17 -2.5 34.5t-20.5 17.5z" />
    <glyph glyph-name="FL00ECh" unicode="&#xe7;" horiz-adv-x="378" 
d="M280 599q-19 -5 -26.5 -16.5t-12.5 -27.5l-82 -464q-3 -19 1.5 -33t19.5 -14h2q12 0 24.5 14t15.5 30l20 116q3 19 13.5 33.5t24.5 24t29 15t27 6.5h72l-6 -35q-10 -3 -21.5 -15t-13.5 -23l-26 -145q-3 -15 -17 -27.5t-30.5 -20.5t-32 -12.5t-22.5 -4.5h-50l-7 -41
q-3 -18 0.5 -29.5t29.5 -11.5l-7 -39h-116l7 39h4q22 0 29.5 11.5t17.5 29.5l7 41h-52q-10 0 -23.5 4.5t-25.5 12.5t-19.5 20.5t-4.5 27.5l91 511q4 24 15.5 37.5t26 20t29 8t24.5 1.5h144q9 0 23.5 -1t26.5 -7t19.5 -19.5t3.5 -37.5l-26 -145q-2 -11 5.5 -24t15.5 -15
l-6 -34h-72q-12 1 -25 6.5t-23 15t-15.5 23.5t-2.5 33l19 108q3 17 -2 35t-20 18z" />
    <glyph glyph-name="FL00E8h" unicode="&#xe8;" horiz-adv-x="408" 
d="M339 583q2 9 -7 17.5t-21 10.5q-10 -2 -22 -11.5t-14 -20.5l-41 -231q14 0 25 7.5t16 38.5h31l-24 -136h-31l2 6q5 27 -3 33.5t-23 6.5l-43 -239q-2 -11 7 -20t20 -14q11 2 22 8.5t14 20.5l25 144q3 19 13.5 33.5t25 24t29.5 15t27 6.5h73l-6 -35q-10 -3 -22 -15t-14 -23
l-37 -210h-343l6 32q8 3 19 12.5t13 20.5l91 514q2 11 -6 20t-15 12l5 32h343l-36 -209q-2 -11 5.5 -24t16.5 -15l-6 -34h-73q-12 1 -25.5 6.5t-24 15t-16 23.5t-2.5 33zM378 674h-78l-28 92h84z" />
    <glyph glyph-name="FL00E9h" unicode="&#xe9;" horiz-adv-x="408" 
d="M339 583q2 9 -7 17.5t-21 10.5q-10 -2 -22 -11.5t-14 -20.5l-41 -231q14 0 25 7.5t16 38.5h31l-24 -136h-31l2 6q5 27 -3 33.5t-23 6.5l-43 -239q-2 -11 7 -20t20 -14q11 2 22 8.5t14 20.5l25 144q3 19 13.5 33.5t25 24t29.5 15t27 6.5h73l-6 -35q-10 -3 -22 -15t-14 -23
l-37 -210h-343l6 32q8 3 19 12.5t13 20.5l91 514q2 11 -6 20t-15 12l5 32h343l-36 -209q-2 -11 5.5 -24t16.5 -15l-6 -34h-73q-12 1 -25.5 6.5t-24 15t-16 23.5t-2.5 33zM345 674h-79l54 92h85z" />
    <glyph glyph-name="FL00EAh" unicode="&#xea;" horiz-adv-x="408" 
d="M339 583q2 9 -7 17.5t-21 10.5q-10 -2 -22 -11.5t-14 -20.5l-41 -231q14 0 25 7.5t16 38.5h31l-24 -136h-31l2 6q5 27 -3 33.5t-23 6.5l-43 -239q-2 -11 7 -20t20 -14q11 2 22 8.5t14 20.5l25 144q3 19 13.5 33.5t25 24t29.5 15t27 6.5h73l-6 -35q-10 -3 -22 -15t-14 -23
l-37 -210h-343l6 32q8 3 19 12.5t13 20.5l91 514q2 11 -6 20t-15 12l5 32h343l-36 -209q-2 -11 5.5 -24t16.5 -15l-6 -34h-73q-12 1 -25.5 6.5t-24 15t-16 23.5t-2.5 33zM310 674h-79l54 92h108l23 -92h-78l-7 40z" />
    <glyph glyph-name="FL00EBh" unicode="&#xeb;" horiz-adv-x="408" 
d="M339 583q2 9 -7 17.5t-21 10.5q-10 -2 -22 -11.5t-14 -20.5l-41 -231q14 0 25 7.5t16 38.5h31l-24 -136h-31l2 6q5 27 -3 33.5t-23 6.5l-43 -239q-2 -11 7 -20t20 -14q11 2 22 8.5t14 20.5l25 144q3 19 13.5 33.5t25 24t29.5 15t27 6.5h73l-6 -35q-10 -3 -22 -15t-14 -23
l-37 -210h-343l6 32q8 3 19 12.5t13 20.5l91 514q2 11 -6 20t-15 12l5 32h343l-36 -209q-2 -11 5.5 -24t16.5 -15l-6 -34h-73q-12 1 -25.5 6.5t-24 15t-16 23.5t-2.5 33zM237 720q3 19 17 32.5t31 13.5t26 -13.5t6 -32.5q-4 -20 -17.5 -33.5t-30.5 -13.5t-26.5 13.5
t-5.5 33.5zM425 720q-4 -20 -17.5 -33.5t-30.5 -13.5t-26.5 13.5t-5.5 33.5q3 19 17 32.5t31 13.5t26 -13.5t6 -32.5z" />
    <glyph glyph-name="FL00F7h" unicode="&#xec;" horiz-adv-x="218" 
d="M286 674h-78l-28 92h84zM204 32l-6 -32h-180l6 32q8 3 19 12.5t13 20.5l91 514q2 11 -6 20t-15 12l5 32h180l-5 -32q-7 -3 -18 -12t-13 -20l-91 -514q-2 -11 6 -20.5t14 -12.5z" />
    <glyph glyph-name="FL00EDh" unicode="&#xed;" horiz-adv-x="218" 
d="M18 0l6 32q8 3 19 12.5t13 20.5l91 514q2 11 -6 20t-15 12l5 32h180l-5 -32q-7 -3 -18 -12t-13 -20l-91 -514q-2 -11 6 -20.5t14 -12.5l-6 -32h-180zM248 674h-79l55 92h84z" />
    <glyph glyph-name="FL00EEh" unicode="&#xee;" horiz-adv-x="218" 
d="M18 0l6 32q8 3 19 12.5t13 20.5l91 514q2 11 -6 20t-15 12l5 32h180l-5 -32q-7 -3 -18 -12t-13 -20l-91 -514q-2 -11 6 -20.5t14 -12.5l-6 -32h-180zM215 674h-78l53 92h108l23 -92h-78l-7 40z" />
    <glyph glyph-name="FL00EFh" unicode="&#xef;" horiz-adv-x="218" 
d="M18 0l6 32q8 3 19 12.5t13 20.5l91 514q2 11 -6 20t-15 12l5 32h180l-5 -32q-7 -3 -18 -12t-13 -20l-91 -514q-2 -11 6 -20.5t14 -12.5l-6 -32h-180zM142 720q3 19 17 32.5t30 13.5q17 0 26 -13.5t6 -32.5q-4 -20 -17.5 -33.5t-30.5 -13.5q-16 0 -25.5 13.5t-5.5 33.5z
M329 720q-4 -20 -17.5 -33.5t-30.5 -13.5q-16 0 -25.5 13.5t-5.5 33.5q3 19 17 32.5t30 13.5q17 0 26 -13.5t6 -32.5z" />
    <glyph glyph-name="FL00F0h" unicode="&#xf0;" horiz-adv-x="378" 
d="M58 65q-3 -15 7 -27.5t24 -20.5t28.5 -12.5t20.5 -4.5h138q10 0 24.5 4.5t29 12.5t25.5 20.5t14 27.5l91 511q4 24 -3 37.5t-19 20t-25.5 8t-23.5 1.5h-145q-9 0 -23.5 -1t-29 -7t-26.5 -19.5t-16 -37.5l-13 -72q-2 -10 -14 -23.5t-22 -15.5l-6 -34h73q13 1 28 6.5t29 15
t24.5 23.5t13.5 33l6 35q3 17 14.5 35t26.5 18q16 -5 20.5 -16.5t2.5 -27.5l-22 -125q-10 -25 -35 -37h-118q-20 -12 -35 -32t-17 -33zM228 328q16 28 38 28q9 0 16.5 -6t9.5 -19l-42 -240q-3 -19 -12 -33t-24 -14h-3q-11 0 -18.5 14t-6.5 30z" />
    <glyph glyph-name="FL00F1h" unicode="&#xf1;" horiz-adv-x="403" 
d="M432 766h-79l-20 -40l-8 40h-56l-54 -92h78l21 40l7 -40h56zM465 578h-1v1q2 11 13 20t19 12l5 32h-175l-5 -32q5 -3 13.5 -11t6.5 -15l-44 -251l-65 245q0 10 -4 21.5t-9.5 21t-11 15.5t-8.5 6h-68l-5 -32q7 -3 15 -12t6 -20l-91 -514q-2 -11 -13 -20.5t-19 -12.5
l-6 -32h177l6 32q-7 3 -14.5 12.5t-5.5 20.5l40 227l69 -230q0 -9 3 -20t8 -20t11.5 -15.5t12.5 -6.5h38z" />
    <glyph glyph-name="FL00F2h" unicode="&#xf2;" horiz-adv-x="349" 
d="M280 599q-15 0 -26.5 -18t-14.5 -35l-80 -455q-3 -19 1.5 -33t19.5 -14q21 0 30 16.5t14 42.5l78 443q3 17 -2 35t-20 18zM215 643h144q10 0 24 -1.5t26 -8.5t19 -21.5t3 -39.5l-90 -507q-3 -15 -14 -27.5t-25.5 -20.5t-29.5 -12.5t-25 -4.5h-145q-10 0 -23.5 4.5
t-25.5 12.5t-19.5 20.5t-4.5 27.5l90 510q4 24 16 37.5t26.5 20.5t29 8.5t24.5 1.5zM351 674h-78l-28 92h84z" />
    <glyph glyph-name="FL00F3h" unicode="&#xf3;" horiz-adv-x="349" 
d="M280 599q-15 0 -26.5 -18t-14.5 -35l-80 -455q-3 -19 1.5 -33t19.5 -14q21 0 30 16.5t14 42.5l78 443q3 17 -2 35t-20 18zM215 643h144q10 0 24 -1.5t26 -8.5t19 -21.5t3 -39.5l-90 -507q-3 -15 -14 -27.5t-25.5 -20.5t-29.5 -12.5t-25 -4.5h-145q-10 0 -23.5 4.5
t-25.5 12.5t-19.5 20.5t-4.5 27.5l90 510q4 24 16 37.5t26.5 20.5t29 8.5t24.5 1.5zM314 674h-78l54 92h84z" />
    <glyph glyph-name="FL00F4h" unicode="&#xf4;" horiz-adv-x="349" 
d="M215 643h144q10 0 24 -1.5t26 -8.5t19 -21.5t3 -39.5l-90 -507q-3 -15 -14 -27.5t-25.5 -20.5t-29.5 -12.5t-25 -4.5h-145q-10 0 -23.5 4.5t-25.5 12.5t-19.5 20.5t-4.5 27.5l90 510q4 24 16 37.5t26.5 20.5t29 8.5t24.5 1.5zM280 599q-15 0 -26.5 -18t-14.5 -35
l-80 -455q-3 -19 1.5 -33t19.5 -14q21 0 30 16.5t14 42.5l78 443q3 17 -2 35t-20 18zM280 674h-79l54 92h108l22 -92h-77l-8 40z" />
    <glyph glyph-name="FL00F5h" unicode="&#xf5;" horiz-adv-x="349" 
d="M215 643h144q10 0 24 -1.5t26 -8.5t19 -21.5t3 -39.5l-90 -507q-3 -15 -14 -27.5t-25.5 -20.5t-29.5 -12.5t-25 -4.5h-145q-10 0 -23.5 4.5t-25.5 12.5t-19.5 20.5t-4.5 27.5l90 510q4 24 16 37.5t26.5 20.5t29 8.5t24.5 1.5zM280 599q-15 0 -26.5 -18t-14.5 -35
l-80 -455q-3 -19 1.5 -33t19.5 -14q21 0 30 16.5t14 42.5l78 443q3 17 -2 35t-20 18zM328 766h78l-53 -92h-57l-8 40l-20 -40h-79l55 92h56l7 -40z" />
    <glyph glyph-name="FL00F6h" unicode="&#xf6;" horiz-adv-x="349" 
d="M280 599q-15 0 -26.5 -18t-14.5 -35l-80 -455q-3 -19 1.5 -33t19.5 -14q21 0 30 16.5t14 42.5l78 443q3 17 -2 35t-20 18zM215 643h144q10 0 24 -1.5t26 -8.5t19 -21.5t3 -39.5l-90 -507q-3 -15 -14 -27.5t-25.5 -20.5t-29.5 -12.5t-25 -4.5h-145q-10 0 -23.5 4.5
t-25.5 12.5t-19.5 20.5t-4.5 27.5l90 510q4 24 16 37.5t26.5 20.5t29 8.5t24.5 1.5zM208 720q3 19 16.5 32.5t30.5 13.5t26 -13.5t6 -32.5q-4 -20 -17.5 -33.5t-30.5 -13.5t-26 13.5t-5 33.5zM395 720q-4 -20 -17.5 -33.5t-30.5 -13.5t-26 13.5t-5 33.5q3 19 16.5 32.5
t30.5 13.5t26 -13.5t6 -32.5z" />
    <glyph glyph-name="FL0100h" unicode="&#xf7;" horiz-adv-x="258" 
d="M144 348h92q14 0 25 7.5t16 38.5h31l-24 -136h-31l2 6q2 14 0.5 20.5t-5.5 9.5t-9.5 4.5t-11.5 5.5h-92q-16 0 -25.5 -6.5t-14.5 -33.5l-2 -6h-32l24 136h32q-5 -31 2.5 -38.5t22.5 -7.5zM168 442q3 19 17 32.5t31 13.5t26 -13.5t6 -32.5q-4 -20 -17.5 -33.5t-30.5 -13.5
t-26.5 13.5t-5.5 33.5zM207 211q-4 -20 -17.5 -33t-30.5 -13t-26.5 13t-5.5 33t17.5 33t30.5 13t26.5 -13t5.5 -33z" />
    <glyph glyph-name="FL00F8h" unicode="&#xf8;" horiz-adv-x="349" 
d="M215 643h144q10 0 24 -1.5t26 -8.5t19 -21.5t3 -39.5l-90 -507q-3 -15 -14 -27.5t-25.5 -20.5t-29.5 -12.5t-25 -4.5h-145q-10 0 -23.5 4.5t-25.5 12.5t-19.5 20.5t-4.5 27.5l90 510q4 24 16 37.5t26.5 20.5t29 8.5t24.5 1.5zM180 44q21 0 30 16.5t14 42.5l44 248
l-99 -205l-10 -55q-3 -19 1.5 -33t19.5 -14zM280 599q-15 0 -26.5 -18t-14.5 -35l-40 -231l99 207l4 24q3 17 -2 35t-20 18z" />
    <glyph glyph-name="FL00F9h" unicode="&#xf9;" 
d="M495 609q-9 -3 -21 -15t-14 -23l-90 -506q-3 -15 -16.5 -27.5t-30 -20.5t-32 -12.5t-22.5 -4.5h-131q-6 0 -20.5 4.5t-28.5 12.5t-24 20.5t-7 27.5l90 506q2 11 -6 23t-17 15l6 34h73q12 -1 25.5 -6t24 -14.5t16 -24t2.5 -33.5l-84 -477q-3 -16 4.5 -30t18.5 -14h1
q11 0 23 14t15 30l84 477q3 19 13.5 33.5t24.5 24t29 14.5t27 6h73zM378 674h-78l-28 92h84z" />
    <glyph glyph-name="FL00FAh" unicode="&#xfa;" 
d="M495 609q-9 -3 -21 -15t-14 -23l-90 -506q-3 -15 -16.5 -27.5t-30 -20.5t-32 -12.5t-22.5 -4.5h-131q-6 0 -20.5 4.5t-28.5 12.5t-24 20.5t-7 27.5l90 506q2 11 -6 23t-17 15l6 34h73q12 -1 25.5 -6t24 -14.5t16 -24t2.5 -33.5l-84 -477q-3 -16 4.5 -30t18.5 -14h1
q11 0 23 14t15 30l84 477q3 19 13.5 33.5t24.5 24t29 14.5t27 6h73zM345 674h-79l54 92h85z" />
    <glyph glyph-name="FL00FBh" unicode="&#xfb;" 
d="M495 609q-9 -3 -21 -15t-14 -23l-90 -506q-3 -15 -16.5 -27.5t-30 -20.5t-32 -12.5t-22.5 -4.5h-131q-6 0 -20.5 4.5t-28.5 12.5t-24 20.5t-7 27.5l90 506q2 11 -6 23t-17 15l6 34h73q12 -1 25.5 -6t24 -14.5t16 -24t2.5 -33.5l-84 -477q-3 -16 4.5 -30t18.5 -14h1
q11 0 23 14t15 30l84 477q3 19 13.5 33.5t24.5 24t29 14.5t27 6h73zM310 674h-79l54 92h108l23 -92h-78l-7 40z" />
    <glyph glyph-name="FL00FCh" unicode="&#xfc;" 
d="M495 609q-9 -3 -21 -15t-14 -23l-90 -506q-3 -15 -16.5 -27.5t-30 -20.5t-32 -12.5t-22.5 -4.5h-131q-6 0 -20.5 4.5t-28.5 12.5t-24 20.5t-7 27.5l90 506q2 11 -6 23t-17 15l6 34h73q12 -1 25.5 -6t24 -14.5t16 -24t2.5 -33.5l-84 -477q-3 -16 4.5 -30t18.5 -14h1
q11 0 23 14t15 30l84 477q3 19 13.5 33.5t24.5 24t29 14.5t27 6h73zM237 720q3 19 17 32.5t31 13.5t26 -13.5t6 -32.5q-4 -20 -17.5 -33.5t-30.5 -13.5t-26.5 13.5t-5.5 33.5zM425 720q-4 -20 -17.5 -33.5t-30.5 -13.5t-26.5 13.5t-5.5 33.5q3 19 17 32.5t31 13.5t26 -13.5
t6 -32.5z" />
    <glyph glyph-name="FL00FDh" unicode="&#xfd;" 
d="M501 643l-6 -34q-9 -3 -21 -15t-14 -23l-90 -506q-3 -15 -14.5 -27.5t-25.5 -20.5t-28.5 -12.5t-24.5 -4.5h-138q-6 0 -20.5 4.5t-28.5 12.5t-24 20.5t-7 27.5l26 145q2 11 -6 23t-16 15l6 35h73q12 -1 25 -6.5t23.5 -15t16 -24t2.5 -33.5l-20 -116q-3 -16 4.5 -30
t18.5 -14h2q16 0 24.5 14t11.5 33l31 175q2 16 -2 27t-18 17h-68q-11 0 -25.5 5t-27.5 13.5t-21 20t-6 25.5l35 197q2 11 -6 23t-17 15l6 34h73q12 -1 25.5 -6t24 -14.5t16 -24t2.5 -33.5l-31 -173q-1 -14 4.5 -25t14.5 -14h12q11 3 20 16t12 27l30 169q3 19 13.5 33.5
t24.5 24t29 14.5t27 6h73zM345 674h-79l54 92h85z" />
    <glyph glyph-name="FL00FEh" unicode="&#xfe;" horiz-adv-x="374" 
d="M18 0l6 32q8 3 19 12.5t13 20.5l91 514q2 11 -6 20t-15 12l5 32h177l-5 -32q-8 -3 -18.5 -12t-12.5 -20l-16 -93h89q6 0 22 -1.5t31 -8t25.5 -20t6.5 -37.5l-33 -188q-4 -23 -16 -36t-28 -20t-33.5 -9t-32.5 -2h-88l-18 -99q-2 -11 5.5 -20.5t14.5 -12.5l-6 -32h-177z
M276 441h-28l-41 -231h28q8 2 21 14.5t21 35.5l23 129q2 16 -3 34t-21 18z" />
    <glyph glyph-name="FL00FFh" unicode="&#xff;" 
d="M501 643l-6 -34q-9 -3 -21 -15t-14 -23l-90 -506q-3 -15 -14.5 -27.5t-25.5 -20.5t-28.5 -12.5t-24.5 -4.5h-138q-6 0 -20.5 4.5t-28.5 12.5t-24 20.5t-7 27.5l26 145q2 11 -6 23t-16 15l6 35h73q12 -1 25 -6.5t23.5 -15t16 -24t2.5 -33.5l-20 -116q-3 -16 4.5 -30
t18.5 -14h2q16 0 24.5 14t11.5 33l31 175q2 16 -2 27t-18 17h-68q-11 0 -25.5 5t-27.5 13.5t-21 20t-6 25.5l35 197q2 11 -6 23t-17 15l6 34h73q12 -1 25.5 -6t24 -14.5t16 -24t2.5 -33.5l-31 -173q-1 -14 4.5 -25t14.5 -14h12q11 3 20 16t12 27l30 169q3 19 13.5 33.5
t24.5 24t29 14.5t27 6h73zM237 720q3 19 17 32.5t31 13.5t26 -13.5t6 -32.5q-4 -20 -17.5 -33.5t-30.5 -13.5t-26.5 13.5t-5.5 33.5zM425 720q-4 -20 -17.5 -33.5t-30.5 -13.5t-26.5 13.5t-5.5 33.5q3 19 17 32.5t31 13.5t26 -13.5t6 -32.5z" />
    <glyph glyph-name="FL0152h" unicode="&#x152;" horiz-adv-x="724" 
d="M663 732q2 11 -7 21.5t-23 12.5q-10 -2 -24 -14.5t-16 -26.5l-51 -289q17 0 28 10t18 49h34l-30 -171h-34l1 6q6 34 -2 43t-25 9l-53 -300q-2 -14 7 -25.5t23 -17.5q10 2 22.5 10t15.5 27l32 180q4 24 16 42t28 30t32.5 18.5t30.5 8.5h80l-8 -44q-10 -5 -23.5 -19
t-16.5 -29l-46 -263h-561q-11 0 -25.5 5.5t-27.5 16t-20.5 25.5t-4.5 35l113 641q6 31 19 48t29 25t32 9.5t27 1.5h561l-46 -263q-1 -6 0.5 -14t5 -15t8 -12.5t8.5 -6.5l-7 -43h-80q-14 1 -28 7.5t-25.5 19t-17 30.5t-1.5 42zM324 752q-20 -6 -29.5 -20.5t-14.5 -34.5
l-103 -583q-4 -23 0.5 -40.5t21.5 -17.5h2q13 0 27 17.5t18 37.5l25 145q4 24 16 42t27.5 30t32 18.5t30.5 8.5h9l17 97h-9q-14 1 -28 8t-25 19t-16.5 29.5t-1.5 40.5l24 137q2 10 1.5 21.5t-3.5 21.5t-8 16.5t-13 6.5z" />
    <glyph glyph-name="FL0153h" unicode="&#x153;" horiz-adv-x="634" 
d="M565 583q2 9 -7 17.5t-21 10.5q-10 -2 -22 -11.5t-14 -20.5l-41 -231q14 0 25 7.5t16 38.5h31l-24 -136h-31l2 6q5 27 -3 33.5t-23 6.5l-43 -239q-2 -11 6.5 -20t21.5 -14q10 2 21 8.5t14 20.5l25 144q3 19 13.5 33.5t24.5 24t29 15t28 6.5h73l-6 -35q-10 -3 -22 -15
t-14 -23l-37 -210h-485q-10 0 -23.5 4.5t-25.5 12.5t-19.5 20.5t-4.5 27.5l91 511q4 24 15.5 37.5t26 20t29 8t24.5 1.5h485l-36 -209q-2 -10 5.5 -23.5t16.5 -15.5l-6 -34h-73q-12 1 -25.5 6.5t-24 15t-16 23.5t-2.5 33zM280 599q-19 -5 -26.5 -16.5t-12.5 -27.5l-82 -464
q-3 -19 1.5 -33t19.5 -14h2q12 0 24.5 14t15.5 30l20 116q6 33 29 51.5t48 24.5l15 83q-23 6 -39.5 24.5t-11.5 50.5l19 108q3 17 -2 35t-20 18z" />
    <glyph glyph-name="FL0160h" unicode="&#x160;" horiz-adv-x="406" 
d="M309 599q-19 -5 -26.5 -16.5t-12.5 -27.5l-28 -156q-3 -17 0 -30t14 -16h82q10 0 23.5 -1t25.5 -7.5t19 -20t3 -37.5l-40 -222q-3 -15 -14 -27.5t-25.5 -20.5t-29 -12.5t-24.5 -4.5h-138q-6 0 -20.5 4.5t-28.5 12.5t-24 20.5t-7 27.5l26 145q2 11 -6 23t-16 15l6 35h73
q12 -1 25 -6.5t23.5 -15t16 -24t2.5 -33.5l-20 -116q-3 -16 4.5 -30t18.5 -14h3q15 0 24 14t12 33l31 175q2 16 -2.5 27.5t-20.5 16.5h-73q-10 0 -23.5 4t-25.5 12t-19 20t-4 27l36 203q4 24 15.5 37.5t26 20t28.5 8t24 1.5h145q9 0 23 -1t26.5 -7t19.5 -19.5t3 -37.5
l-22 -127q-2 -11 5.5 -24t16.5 -15l-6 -34h-73q-12 1 -25 6.5t-23.5 15t-16 23.5t-2.5 33l16 90q3 17 -1.5 35t-19.5 18zM353 766h78l-54 -92h-108l-22 92h78l7 -40z" />
    <glyph glyph-name="FL0161h" unicode="&#x161;" horiz-adv-x="406" 
d="M309 599q-19 -5 -26.5 -16.5t-12.5 -27.5l-28 -156q-3 -17 0 -30t14 -16h82q10 0 23.5 -1t25.5 -7.5t19 -20t3 -37.5l-40 -222q-3 -15 -14 -27.5t-25.5 -20.5t-29 -12.5t-24.5 -4.5h-138q-6 0 -20.5 4.5t-28.5 12.5t-24 20.5t-7 27.5l26 145q2 11 -6 23t-16 15l6 35h73
q12 -1 25 -6.5t23.5 -15t16 -24t2.5 -33.5l-20 -116q-3 -16 4.5 -30t18.5 -14h3q15 0 24 14t12 33l31 175q2 16 -2.5 27.5t-20.5 16.5h-73q-10 0 -23.5 4t-25.5 12t-19 20t-4 27l36 203q4 24 15.5 37.5t26 20t28.5 8t24 1.5h145q9 0 23 -1t26.5 -7t19.5 -19.5t3 -37.5
l-22 -127q-2 -11 5.5 -24t16.5 -15l-6 -34h-73q-12 1 -25 6.5t-23.5 15t-16 23.5t-2.5 33l16 90q3 17 -1.5 35t-19.5 18zM353 766h78l-54 -92h-108l-22 92h78l7 -40z" />
    <glyph glyph-name="FL0178h" unicode="&#x178;" 
d="M501 643l-6 -34q-9 -3 -21 -15t-14 -23l-90 -506q-3 -15 -14.5 -27.5t-25.5 -20.5t-28.5 -12.5t-24.5 -4.5h-138q-6 0 -20.5 4.5t-28.5 12.5t-24 20.5t-7 27.5l26 145q2 11 -6 23t-16 15l6 35h73q12 -1 25 -6.5t23.5 -15t16 -24t2.5 -33.5l-20 -116q-3 -16 4.5 -30
t18.5 -14h2q16 0 24.5 14t11.5 33l31 175q2 16 -2 27t-18 17h-68q-11 0 -25.5 5t-27.5 13.5t-21 20t-6 25.5l35 197q2 11 -6 23t-17 15l6 34h73q12 -1 25.5 -6t24 -14.5t16 -24t2.5 -33.5l-31 -173q-1 -14 4.5 -25t14.5 -14h12q11 3 20 16t12 27l30 169q3 19 13.5 33.5
t24.5 24t29 14.5t27 6h73zM237 720q3 19 17 32.5t31 13.5t26 -13.5t6 -32.5q-4 -20 -17.5 -33.5t-30.5 -13.5t-26.5 13.5t-5.5 33.5zM425 720q-4 -20 -17.5 -33.5t-30.5 -13.5t-26.5 13.5t-5.5 33.5q3 19 17 32.5t31 13.5t26 -13.5t6 -32.5z" />
    <glyph glyph-name="FL0192h" unicode="&#x192;" 
d="M24 34q10 4 22 16t14 23l89 506q3 15 16.5 27t30 20t32.5 12.5t23 4.5h130q6 0 20 -4.5t28.5 -12.5t24 -20t6.5 -27l-89 -506q-2 -11 6 -23t16 -16l-6 -34h-73q-12 1 -25 6.5t-23 15t-15.5 23.5t-2.5 33l84 477q3 17 -4.5 30.5t-18.5 13.5h-1q-11 0 -23.5 -13.5
t-15.5 -30.5l-84 -477q-3 -19 -13.5 -33t-24.5 -23.5t-29 -15t-28 -6.5h-72z" />
    <glyph glyph-name="FL02C6h" unicode="&#x2c6;" horiz-adv-x="222" 
d="M209 628h-80l55 92h108l22 -92h-77l-8 40z" />
    <glyph glyph-name="FL02DCh" unicode="&#x2dc;" horiz-adv-x="238" 
d="M268 720h79l-54 -92h-56l-8 40l-20 -40h-80l55 92h56l7 -40z" />
    <glyph glyph-name="FL2013h" unicode="&#x2013;" horiz-adv-x="206" 
d="M137 304q-16 0 -25.5 -6.5t-14.5 -33.5l-2 -6h-32l24 136h32q-5 -31 2.5 -38.5t22.5 -7.5h39q15 0 25.5 7.5t15.5 38.5h31l-24 -136h-31l2 6q2 14 1 20.5t-5 9.5t-9.5 4.5t-12.5 5.5h-39z" />
    <glyph glyph-name="FL2014h" unicode="&#x2014;" horiz-adv-x="258" 
d="M144 348h92q14 0 25 7.5t16 38.5h31l-24 -136h-31l2 6q2 14 0.5 20.5t-5.5 9.5t-9.5 4.5t-11.5 5.5h-92q-16 0 -25.5 -6.5t-14.5 -33.5l-2 -6h-32l24 136h32q-5 -31 2.5 -38.5t22.5 -7.5z" />
    <glyph glyph-name="FL2018h" unicode="&#x2018;" horiz-adv-x="192" 
d="M216 409l29 162q2 13 14 23.5t20 13.5q0 1 1 1l6 34h-74q-12 -2 -27 -7.5t-29.5 -15t-25 -23.5t-13.5 -33l-27 -156h126v1z" />
    <glyph glyph-name="FL2019h" unicode="&#x2019;" horiz-adv-x="192" 
d="M160 643l-28 -162q-3 -14 -14 -24.5t-21 -13.5v-1h-1l-6 -34h74q12 1 27 6.5t29.5 15.5t25 24.5t13.5 32.5l27 156h-126z" />
    <glyph glyph-name="FL201Ah" unicode="&#x201a;" horiz-adv-x="163" 
d="M31 71q5 30 27.5 50.5t48.5 20.5t40 -20.5t9 -50.5l-2 -7l-2 -13q-2 -8 -3.5 -23.5t-6.5 -41.5q-3 -18 -13.5 -32.5t-25 -24.5t-30 -16t-27.5 -7h-73l7 35q9 4 20.5 14.5t13.5 23.5z" />
    <glyph glyph-name="FL201Ch" unicode="&#x201c;" horiz-adv-x="343" 
d="M367 409l29 162q2 13 14 23.5t20 13.5q0 1 1 1l6 34h-74q-12 -2 -27 -7.5t-29 -15t-24.5 -23.5t-13.5 -33l-27 -156h125v1zM216 409l29 162q2 13 14 23.5t20 13.5q0 1 1 1l6 34h-74q-12 -2 -27 -7.5t-29.5 -15t-25 -23.5t-13.5 -33l-27 -156h126v1z" />
    <glyph glyph-name="FL201Dh" unicode="&#x201d;" horiz-adv-x="343" 
d="M160 643l-28 -162q-3 -14 -14 -24.5t-21 -13.5v-1h-1l-6 -34h74q12 1 27 6.5t29.5 15.5t25 24.5t13.5 32.5l27 156h-126zM311 643l-28 -162q-3 -14 -14 -24.5t-21 -13.5v-1l-6 -34h73q12 1 27 6.5t29.5 15.5t25 24.5t13.5 32.5l27 156h-126z" />
    <glyph glyph-name="FL201Eh" unicode="&#x201e;" horiz-adv-x="319" 
d="M32 71q5 30 27 50.5t49 20.5q26 0 40 -20.5t9 -50.5l-2 -7l-2 -13q-2 -8 -3.5 -23.5t-6.5 -41.5q-3 -18 -13.5 -32.5t-25 -24.5t-30 -16t-27.5 -7h-74l7 35h1q9 4 20.5 14.5t13.5 23.5zM188 71q5 30 27 50.5t48 20.5t40 -20.5t9 -50.5l-2 -7l-2 -13q-2 -8 -3.5 -23.5
t-6.5 -41.5q-3 -18 -13.5 -32.5t-25 -24.5t-29.5 -16t-27 -7h-74l7 35h1q8 4 20 14.5t14 23.5z" />
    <glyph glyph-name="FL2020h" unicode="&#x2020;" horiz-adv-x="358" 
d="M309 379l-56 -314q-2 -11 5.5 -20.5t15.5 -12.5l-6 -32h-180l6 32q8 3 18.5 12.5t12.5 20.5l56 314h-96l16 90h32q-3 -16 -2.5 -25t4.5 -13.5t9.5 -6t13.5 -1.5h31l27 156q2 11 -5.5 20t-14.5 12l5 32h180l-5 -32q-8 -3 -19 -12t-13 -20l-27 -156h32q7 0 13.5 1.5t11.5 6
t9 13.5t7 25h31l-16 -90h-96z" />
    <glyph glyph-name="FL2021h" unicode="&#x2021;" horiz-adv-x="358" 
d="M386 274l-16 -90h-31q5 30 -2.5 37.5t-22.5 7.5h-32l-29 -164q-2 -11 5.5 -20.5t15.5 -12.5l-6 -32h-180l6 32q8 3 18.5 12.5t12.5 20.5l29 164h-31q-15 0 -25.5 -7.5t-15.5 -37.5h-32l16 90h96l19 105h-96l16 90h32q-3 -16 -2.5 -25t4.5 -13.5t9.5 -6t13.5 -1.5h31
l27 156q2 11 -5.5 20t-14.5 12l5 32h180l-5 -32q-8 -3 -19 -12t-13 -20l-27 -156h32q7 0 13.5 1.5t11.5 6t9 13.5t7 25h31l-16 -90h-96l-19 -105h96z" />
    <glyph glyph-name="FL2022h" unicode="&#x2022;" horiz-adv-x="349" 
d="M215 643q-10 0 -24.5 -1.5t-29 -8.5t-26.5 -20.5t-16 -37.5l-90 -510q-3 -15 4.5 -27.5t19.5 -20.5t25.5 -12.5t23.5 -4.5h145q10 0 25 4.5t29.5 12.5t25.5 20.5t14 27.5l90 507q4 25 -3 39.5t-19 21.5t-26 8.5t-24 1.5h-144z" />
    <glyph glyph-name="FL2026h" unicode="&#x2026;" horiz-adv-x="448" 
d="M317 71q5 30 26.5 50.5t47.5 20.5t41 -20.5t10 -50.5q-6 -30 -28 -50.5t-48 -20.5t-40.5 20.5t-8.5 50.5zM175 71q5 30 26.5 50.5t47.5 20.5t40.5 -20.5t9.5 -50.5q-6 -30 -27.5 -50.5t-47.5 -20.5t-40.5 20.5t-8.5 50.5zM31 71q5 30 27 50.5t49 20.5q26 0 40.5 -20.5
t9.5 -50.5q-6 -30 -27.5 -50.5t-47.5 -20.5q-27 0 -42 20.5t-9 50.5z" />
    <glyph glyph-name="FL2030h" unicode="&#x2030;" horiz-adv-x="608" 
d="M188 676h86q6 0 14.5 -1t16 -5t12 -12.5t1.5 -23.5l-41 -232l151 241h74l-5 -32q-8 -3 -17 -12.5t-15 -19.5l-142 -225h85q6 0 14.5 -1t16 -5t11.5 -13t1 -24l-54 -305q-4 -18 -24 -28t-33 -10h-87q-5 0 -13 2.5t-15 7.5t-11.5 12t-2.5 16l41 235l-152 -241h-74l6 32
q6 3 17 12.5t13 20.5l143 225h-85q-5 0 -13.5 2.5t-16 7.5t-12 12t-2.5 16l54 306q3 15 10 23.5t15.5 12.5t17.5 5t15 1zM514 354h87q5 0 13.5 -1t16 -5t12 -13t1.5 -24l-54 -305q-4 -18 -24 -28t-33 -10h-87q-6 0 -14 2.5t-15 7.5t-11.5 12t-2.5 16l54 306q3 15 10 23.5
t15.5 12.5t17 5t14.5 1zM222 615q-7 0 -10 -9t-5 -17l-38 -215q-2 -8 -1.5 -15t7.5 -7q12 0 16 28l37 209q2 8 0.5 17t-6.5 9zM353 292q-6 0 -9 -9.5t-5 -17.5l-38 -214q-2 -8 -1.5 -15t7.5 -7q12 0 16 28l37 208q2 8 0 17.5t-7 9.5zM546 292q-7 0 -9.5 -9.5t-4.5 -17.5
l-38 -214q-2 -8 -1.5 -15t6.5 -7q8 0 11.5 7.5t5.5 20.5l37 208q2 8 0 17.5t-7 9.5z" />
    <glyph glyph-name="FL2039h" unicode="&#x2039;" horiz-adv-x="111" 
d="M154 353l18 98l-83 -48l-24 -135l66 -48l17 98l-28 18z" />
    <glyph glyph-name="FL203Ah" unicode="&#x203a;" horiz-adv-x="111" 
d="M80 353l18 98l65 -48l-24 -135l-82 -48l17 98l35 18z" />
    <glyph glyph-name="FL2122h" unicode="&#x2122;" horiz-adv-x="225" 
d="M170 669l-18 -101h14l18 101h33l3 19h-81l-3 -19h34zM236 684l-21 -116h11l14 78l5 6l9 -77q1 -5 2.5 -6t3.5 -1q5 0 6 1t3 6l37 79l3 -8l-14 -78h11l21 120h-4q-11 0 -20 -9t-21 -36q-4 -11 -8 -21.5t-8 -18.5q-1 8 -1.5 18.5t-2.5 26.5v6q-2 12 -7.5 23t-10.5 11h-1
l1 -1q0 -1 -4 -1q-2 0 -4 -2z" />
    </font>
</defs>
</svg>
