<?xml version="1.0" standalone="no"?>
<!DOCTYPE svg PUBLIC "-//W3C//DTD SVG 1.1//EN" "http://www.w3.org/Graphics/SVG/1.1/DTD/svg11.dtd" >
<svg xmlns="http://www.w3.org/2000/svg" xmlns:xlink="http://www.w3.org/1999/xlink" version="1.1">
<metadata>
Created by FontForge 20170731 at Sat Feb  4 01:37:04 2012
 By Aleksey,,,
Copyright (c) 2011 Natanael Gama (exo@ndiscovered.com), with Reserved Font Name "Exo"
</metadata>
<defs>
<font id="Exo-ExtraLight" horiz-adv-x="549" >
  <font-face 
    font-family="Exo"
    font-weight="200"
    font-stretch="normal"
    units-per-em="1000"
    panose-1="2 0 3 3 0 0 0 0 0 0"
    ascent="800"
    descent="-200"
    x-height="531"
    cap-height="732"
    bbox="-111 -273 1328 1002"
    underline-thickness="50"
    underline-position="-150"
    unicode-range="U+000D-FB06"
  />
<missing-glyph horiz-adv-x="784" 
d="M657 506l-252 -240l252 -241v481zM140 13h507l-253 243zM127 22l256 244l-256 241v-485zM648 518h-511l257 -242zM113 0v531h558v-531h-558z" />
    <glyph glyph-name="fi" unicode="fi" horiz-adv-x="598" 
d="M25 487v28l98 13v56q0 91 47.5 146.5t135 55.5t183.5 -24v-26l-172 9h-10q-61 0 -102 -37.5t-41 -123.5v-56l367 -8v-520h-41v487h-326v-487h-41v487h-98z" />
    <glyph glyph-name="fl" unicode="fl" horiz-adv-x="719" 
d="M25 490v29l98 12v53q0 89 40 145.5t124 56.5h249v-595q0 -94 28 -122q15 -14 24.5 -18t54.5 -13t52 -9v-27h-74q-66 0 -96 44.5t-30 144.5v555h-199q-132 0 -132 -162v-53h147v-41h-148v-490h-41v490h-97z" />
    <glyph glyph-name=".notdef" horiz-adv-x="784" 
d="M657 506l-252 -240l252 -241v481zM140 13h507l-253 243zM127 22l256 244l-256 241v-485zM648 518h-511l257 -242zM113 0v531h558v-531h-558z" />
    <glyph glyph-name=".notdef" horiz-adv-x="784" 
d="M657 506l-252 -240l252 -241v481zM140 13h507l-253 243zM127 22l256 244l-256 241v-485zM648 518h-511l257 -242zM113 0v531h558v-531h-558z" />
    <glyph glyph-name=".null" horiz-adv-x="0" 
 />
    <glyph glyph-name="uni000D" unicode="&#xd;" horiz-adv-x="939" 
 />
    <glyph glyph-name="space" unicode=" " horiz-adv-x="269" 
 />
    <glyph glyph-name="exclam" unicode="!" horiz-adv-x="263" 
d="M101 16v60q0 16 16 16h26q16 0 16 -16v-60q0 -16 -16 -16h-26q-16 0 -16 16zM107 731h45l-6 -535h-33z" />
    <glyph glyph-name="quotedbl" unicode="&#x22;" horiz-adv-x="302" 
d="M74 732h42v-67l-7 -134h-26l-9 134v67zM186 732h42v-67l-7 -134h-26l-9 134v67z" />
    <glyph glyph-name="numbersign" unicode="#" horiz-adv-x="665" 
d="M25 244l4 25h172l30 192h-172l5 25h171l39 246h26l-40 -246h180l38 246h26l-39 -246h177l-4 -25h-178l-30 -193h177l-4 -25h-177l-38 -243h-26l39 243l-180 1l-38 -244h-25l38 244h-171zM226 269l179 -1l30 193h-179z" />
    <glyph glyph-name="dollar" unicode="$" horiz-adv-x="581" 
d="M68 494v66q1 104 51 141t141 37h10v86h31v-88q68 -5 183 -19v-28l-222 8h-14q-66 0 -102.5 -28t-36.5 -109v-66q0 -65 34 -89.5t98 -24.5h113q93 0 126.5 -42t33.5 -114v-68q0 -104 -67 -138q-52 -26 -132 -26h-14v-81h-31v83q-147 10 -183 16v29q86 -6 230 -6
q71 0 113.5 26t42.5 97v68q0 58 -27.5 86t-91.5 28h-112q-108 0 -144 51q-30 42 -30 105z" />
    <glyph glyph-name="percent" unicode="%" horiz-adv-x="954" 
d="M52 474v133q0 66 28 95.5t101 29.5h101q71 0 99 -29.5t28 -95.5v-133q0 -66 -28 -95.5t-101 -29.5h-101q-71 0 -99 29.5t-28 95.5zM84 474q0 -53 21.5 -73t73.5 -20h101q55 0 76 19.5t21 73.5v133q0 52 -20.5 72.5t-74.5 20.5h-101q-55 0 -76 -19t-21 -74v-133zM237 0
l438 732h38l-438 -732h-38zM546 128v133q0 66 28 95.5t101 29.5h101q71 0 99 -29.5t28 -95.5v-133q0 -66 -28 -95.5t-101 -29.5h-101q-71 0 -99 29.5t-28 95.5zM578 128q0 -53 21.5 -73t73.5 -20h101q55 0 76 19.5t21 73.5v133q0 52 -20.5 72.5t-74.5 20.5h-101
q-55 0 -76 -19t-21 -74v-133z" />
    <glyph glyph-name="ampersand" unicode="&#x26;" horiz-adv-x="647" 
d="M42 207q0 89 81 159l86 73l-63 85q-34 47 -34 86q0 48 32 79t70.5 37.5t101.5 6.5t166 -14v-26h-203q-48 0 -81.5 -17t-41.5 -52q-2 -6 -2 -12q0 -31 32 -74l270 -367l141 139l13 -13l-62 -94l-66 -64l102 -139h-50l-82 111l-72 -67q-50 -49 -122 -49q-105 0 -171 87
q-45 63 -45 125zM257 36q50 0 92 36l77 72l-194 260l-78 -65q-73 -60 -73 -132q0 -52 40 -101q54 -70 136 -70z" />
    <glyph glyph-name="quotesingle" unicode="'" horiz-adv-x="137" 
d="M48 732h42v-67l-7 -134h-27l-8 134v67z" />
    <glyph glyph-name="parenleft" unicode="(" horiz-adv-x="321" 
d="M109 149q-17 89 -17 171.5t16.5 165.5t39.5 147q51 137 86 199l17 28h46q-23 -36 -54 -102.5t-53 -126.5t-39.5 -144.5t-17.5 -164.5t17 -166t41 -149q50 -131 89 -191l17 -26h-46l-17 26q-11 16 -38.5 71t-48.5 114t-38 148z" />
    <glyph glyph-name="parenright" unicode=")" horiz-adv-x="321" 
d="M170.5 154.5q17.5 87.5 17.5 167.5t-17 163t-41 147q-52 140 -88 200l-17 28h45q6 -11 17 -30t38.5 -78.5t48.5 -119.5t38 -144.5t17 -167t-16.5 -170.5t-39.5 -150q-47 -127 -87 -186l-16 -24h-45q23 33 54 96t52.5 122t39 146.5z" />
    <glyph glyph-name="asterisk" unicode="*" horiz-adv-x="459" 
d="M62 583v23l141 12l2 -40zM138 411l30 134l41 -8l-50 -133zM196 721l22 8l69 -121l-39 -18zM228 489l22 36l116 -86l-13 -18zM272 558l115 81l12 -20l-99 -92z" />
    <glyph glyph-name="plus" unicode="+" horiz-adv-x="519" 
d="M62 336v40h176v178h41v-178h179v-40h-179v-178h-41v178h-176z" />
    <glyph glyph-name="comma" unicode="," horiz-adv-x="204" 
d="M74 17v59q0 18 17 18h24q16 0 16 -18v-104q0 -26 -12.5 -37.5t-24.5 -11.5l-4 1l-13 1v15q22 0 22 20v40h-8q-17 0 -17 17z" />
    <glyph glyph-name="hyphen" unicode="-" horiz-adv-x="343" 
d="M25 270v40h294v-40h-294z" />
    <glyph glyph-name="period" unicode="." horiz-adv-x="206" 
d="M74 16v60q0 16 17 16h25q16 0 16 -16v-60q0 -16 -16 -16h-25q-7 0 -12 4.5t-5 11.5z" />
    <glyph glyph-name="slash" unicode="/" horiz-adv-x="369" 
d="M25 -72l281 842h39l-281 -842h-39z" />
    <glyph glyph-name="zero" unicode="0" horiz-adv-x="655" 
d="M86 162v408q0 78 48.5 120t123.5 42h144q86 0 127 -45t41 -117v-408q0 -162 -168 -162h-144q-75 0 -123.5 39t-48.5 123zM127 162q0 -61 35.5 -91t95.5 -30h144q127 0 127 121v408q0 121 -127 121h-144q-62 0 -96.5 -32.5t-34.5 -88.5v-408z" />
    <glyph glyph-name="one" unicode="1" horiz-adv-x="356" 
d="M258 732v-732h-41v686l-168 -66v27l168 85h41z" />
    <glyph glyph-name="two" unicode="2" horiz-adv-x="597" 
d="M49 700v29q103 13 284 13q104 0 153.5 -58t49.5 -152q0 -52 -37.5 -118.5t-87 -122t-113.5 -113.5q-94 -84 -167 -137h405v-41h-480v38q438 331 438 496.5t-162 165.5h-283z" />
    <glyph glyph-name="three" unicode="3" horiz-adv-x="597" 
d="M37 693v25q64 17 228 17q33 0 70 -1q84 -1 127.5 -47t43.5 -118v-69q0 -62 -32.5 -94.5t-68.5 -40.5q37 -13 69 -48t32 -97v-59q0 -168 -178 -168q-226 0 -285 17l1 25h281q62 0 100 27t38 99v59q0 63 -41.5 92t-93.5 31l-223 7v29l223 7q60 2 98.5 30.5t38.5 83.5v69
q0 62 -38 93t-96 31h-294z" />
    <glyph glyph-name="four" unicode="4" horiz-adv-x="584" 
d="M429 246v226l19 75h22v-301h90v-29l-90 -13v-202h-41v202h-385l-19 29l311 499h48l-301 -486h346z" />
    <glyph glyph-name="five" unicode="5" horiz-adv-x="633" 
d="M94 39h304q54 0 88 34.5t34 94.5v100q0 127 -123 127h-153q-42 0 -76.5 -31.5t-34.5 -76.5h-38l22 445h423v-41h-385l-15 -309q11 17 40 35t67 19h151q163 0 163 -166v-104q0 -48 -16 -83.5t-43 -52.5q-50 -34 -104 -34q-204 0 -304 15v28z" />
    <glyph glyph-name="six" unicode="6" horiz-adv-x="631" 
d="M129 652q49 86 123 86q185 0 282 -12v-29h-275q-40 0 -69 -31t-43 -82q-26 -93 -26 -186q128 15 276 15q93 0 127 -38.5t34 -108.5v-118q0 -149 -161 -149h-129q-43 0 -75.5 17.5t-58.5 59.5q-54 85 -54 287.5t49 288.5zM121 371q0 -331 147 -331h129q121 0 121 109v117
q0 62 -31.5 83.5t-89.5 21.5h-276z" />
    <glyph glyph-name="seven" unicode="7" horiz-adv-x="538" 
d="M37 691v41h445l19 -32l-247 -700h-48l245 691h-414z" />
    <glyph glyph-name="eight" unicode="8" horiz-adv-x="647" 
d="M92 154v99q0 51 30 79t65 32q-95 20 -95 135v65q0 95 46 134t130 39h126q82 0 122 -41t40 -132v-65q0 -55 -38 -93q-20 -21 -48 -25q86 -22 86 -129v-98q0 -46 -16 -78.5t-42 -47.5q-48 -28 -105 -28h-125q-49 0 -84 12.5t-52.5 29t-27.5 40.5q-12 33 -12 72zM133 151
q0 -110 135 -110h125q48 0 85 27t37 83v105q0 98 -119 98h-139q-44 0 -84 -24t-40 -74v-105zM133 494q0 -100 124 -100h139q61 0 90 30.5t29 69.5v68q0 72 -29.5 103t-91.5 31h-126q-72 0 -103.5 -30.5t-31.5 -103.5v-68z" />
    <glyph glyph-name="nine" unicode="9" horiz-adv-x="631" 
d="M74 468v118q0 149 161 149h129q43 0 75.5 -17.5t58.5 -59.5q54 -85 54 -287.5t-49 -288.5t-123 -86q-206 0 -282 12v29h276q40 0 69 31t43 81q25 94 25 186q-119 -14 -276 -14q-93 0 -127 38.5t-34 108.5zM114 468q0 -62 31.5 -83.5t89.5 -21.5h276q0 331 -147 331h-129
q-121 0 -121 -109v-117z" />
    <glyph glyph-name="colon" unicode=":" horiz-adv-x="209" 
d="M74 16v60q0 16 17 16h25q16 0 16 -16v-60q0 -16 -16 -16h-25q-7 0 -12 4.5t-5 11.5zM74 453v61q0 17 17 17h25q16 0 16 -17v-61q0 -15 -16 -15h-25q-17 0 -17 15z" />
    <glyph glyph-name="semicolon" unicode=";" horiz-adv-x="206" 
d="M74 17v59q0 18 17 18h24q16 0 16 -18v-104q0 -26 -12.5 -37.5t-24.5 -11.5l-4 1l-13 1v15q22 0 22 20v40h-8q-7 0 -12 5t-5 12zM75 454v61q0 16 16 16h25q17 0 17 -16v-61q0 -15 -17 -15h-25q-16 0 -16 15z" />
    <glyph glyph-name="less" unicode="&#x3c;" horiz-adv-x="478" 
d="M62 334v41l354 182v-45l-301 -157l301 -168v-46z" />
    <glyph glyph-name="equal" unicode="=" horiz-adv-x="476" 
d="M25 212v41h427v-41h-427zM25 454v41h427v-41h-427z" />
    <glyph glyph-name="greater" unicode="&#x3e;" horiz-adv-x="478" 
d="M62 141v46l301 168l-301 157v45l354 -182v-41z" />
    <glyph glyph-name="question" unicode="?" horiz-adv-x="535" 
d="M25 698v28q114 13 178 13h75h13q107 0 151 -47.5t44 -137.5v-101q0 -99 -64 -135q-45 -25 -124 -25q-32 0 -71 4v-102h-43v136h119q142 2 142 122v101q0 79 -38 111.5t-125 32.5h-257zM177 16v60q0 16 16 16h26q15 0 15 -16v-60q0 -16 -15 -16h-26q-16 0 -16 16z" />
    <glyph glyph-name="at" unicode="@" horiz-adv-x="858" 
d="M80 0v348q0 75 37 117q16 18 50 32.5t81 14.5h205q63 0 108 -32.5t45 -107.5v-372h-29l-10 64l-13 -8q-118 -65 -199 -65q-53 0 -89.5 33t-35.5 84v53q0 61 34 97t95 36h207v57v19q0 101 -116 101h-202q-127 0 -127 -123v-348q0 -74 37.5 -105t89.5 -31h329
q71 0 103.5 33.5t32.5 102.5v512q0 68 -35.5 107.5t-100.5 39.5h-394v25q77 16 249 16h39h106q82 -2 129.5 -49.5t47.5 -138.5v-512q0 -178 -177 -178h-329q-78 0 -123 46t-45 132zM367 32q73 0 199 60v175l-202 -12q-93 -7 -93 -96q-1 -1 -1 -22.5t1 -22.5q0 -36 26 -59
t68 -23h2z" />
    <glyph glyph-name="A" unicode="A" horiz-adv-x="662" 
d="M56 0l272 732h47l261 -732h-47l-82 236h-319l-84 -236h-48zM203 277h289l-141 401z" />
    <glyph glyph-name="B" unicode="B" horiz-adv-x="597" 
d="M98 0v732h263q102 0 146 -51t44 -125t-32.5 -119t-83.5 -54q42 -10 81 -56t39 -123q0 -84 -39 -140q-45 -64 -155 -64h-263zM140 42h221q153 0 153 164q0 66 -43 111t-107 45h-3h-221v-320zM140 404h221q67 0 107 38q42 38 42 112q0 137 -149 137h-221v-287z" />
    <glyph glyph-name="C" unicode="C" horiz-adv-x="572" 
d="M68 368q0 230 70 308q58 64 173 64q95 0 224 -24v-30q-16 1 -29 2.5t-30.5 2.5t-38 2.5t-41.5 2.5q-35 3 -97 3t-104 -27q-86 -57 -86 -306q0 -331 203 -331q93 0 190 7l33 3v-29q-118 -22 -224 -22q-243 0 -243 374z" />
    <glyph glyph-name="D" unicode="D" horiz-adv-x="666" 
d="M98 0v732h260q65 0 113.5 -24.5t75.5 -61.5t43 -89q27 -84 27 -172t-14.5 -149.5t-44 -115.5t-81.5 -87t-119 -33h-260zM139 42h219q73 0 124 50q94 92 94 272q0 327 -218 327h-219v-649z" />
    <glyph glyph-name="E" unicode="E" horiz-adv-x="576" 
d="M98 123v479q0 69 35 99.5t85 30.5h6l304 -12v-29h-304q-85 0 -85 -89v-218l349 -7v-29l-349 -7v-218q0 -57 31 -73q25 -12 64 -12h294v-29l-294 -12h-19t-32.5 3.5t-40.5 15.5q-44 25 -44 107z" />
    <glyph glyph-name="F" unicode="F" horiz-adv-x="576" 
d="M98 0v602q0 69 35 99.5t85 30.5h6l304 -12v-29h-304q-85 0 -85 -89v-218l349 -7v-29l-349 -7v-341h-41z" />
    <glyph glyph-name="G" unicode="G" horiz-adv-x="617" 
d="M71.5 250q-3.5 49 -3.5 118.5t4 118t17.5 99.5t37 82.5t65 51.5t90 20t128 -8.5t132.5 -18.5v-33q-1 0 -18.5 2t-45 5t-58.5 5q-82 7 -128.5 7t-79 -14.5t-52.5 -40.5t-32 -68q-19 -73 -19 -208q0 -184 39.5 -257.5t147.5 -74.5q34 0 89.5 12t93.5 24l38 12v263h-198v26
q58 16 171 16q32 0 68 -3v-386h-28l-11 52q-34 -19 -98.5 -38t-124.5 -19h-6q-56 0 -98 19.5t-66 50.5t-37.5 83.5t-17 101.5z" />
    <glyph glyph-name="H" unicode="H" horiz-adv-x="655" 
d="M98 0v732h41v-358h410v358h41v-732h-41v334h-410v-334h-41z" />
    <glyph glyph-name="I" unicode="I" horiz-adv-x="204" 
d="M98 0v732h41v-732h-41z" />
    <glyph glyph-name="J" unicode="J" horiz-adv-x="352" 
d="M47 49q53 -16 75 -16t41 1t37.5 13t32 42t13.5 76v567h41v-567q0 -110 -52 -147q-34 -24 -89 -24q-62 0 -103 27z" />
    <glyph glyph-name="K" unicode="K" horiz-adv-x="592" 
d="M98 0v732h41v-344h129l237 344h50l-250 -365l250 -367h-51l-237 346h-127v-346h-42z" />
    <glyph glyph-name="L" unicode="L" horiz-adv-x="558" 
d="M98 126v606h41v-606q0 -57 31 -72q25 -13 64 -13h287v-41h-287q-57 0 -92 20q-44 25 -44 106z" />
    <glyph glyph-name="M" unicode="M" horiz-adv-x="798" 
d="M68 0l69 732h59l207 -663l202 663h59l75 -732h-41l-69 667l-204 -667h-44l-208 667l-64 -667h-41z" />
    <glyph glyph-name="N" unicode="N" horiz-adv-x="670" 
d="M98 0v732h43l423 -655v655h41v-732h-41l-425 655v-655h-41z" />
    <glyph glyph-name="O" unicode="O" horiz-adv-x="675" 
d="M87.5 218.5q-7.5 60.5 -7.5 152t13 161t33.5 110t58 62t74.5 27.5t90 6t85.5 -4t66.5 -17t54.5 -38.5t38.5 -66.5q32 -76 32 -250q0 -182 -43 -268q-20 -40 -56 -61.5t-75 -28.5t-93.5 -7t-87.5 4t-67.5 16.5t-54.5 37t-37 64.5t-24.5 100.5zM125 468.5q-4 -47.5 -4 -131
t11.5 -147t41.5 -98t70 -45t108.5 -10.5t108.5 11.5t70 45.5t42 98t12 163.5t-10.5 162t-26.5 98t-48 53.5t-62.5 22.5t-73 4.5t-62 -1t-45 -5.5t-40.5 -14t-32.5 -25.5t-27.5 -41t-19 -59t-13 -81.5z" />
    <glyph glyph-name="P" unicode="P" horiz-adv-x="582" 
d="M74 0v732h284q67 0 117 -34q59 -42 59 -170q0 -59 -12 -101t-28 -63.5t-43 -33.5t-46 -14t-48.5 -2t-133.5 6t-108 8v-328h-41zM115 356h243q63 0 98.5 34.5t35.5 132.5v5q0 103 -45 136q-35 26 -89 26h-243v-334z" />
    <glyph glyph-name="Q" unicode="Q" horiz-adv-x="675" 
d="M87 218q-7 60 -7 138t6.5 134t17.5 95.5t30 67.5t39 44t51 25q52 15 120 15t105 -6t74 -27.5t57 -61.5q46 -90 46 -281q0 -180 -44 -268q-20 -40 -56 -61.5t-75 -28.5t-93.5 -7t-87.5 4t-67 16.5t-54.5 37t-37.5 64.5t-24 100zM127 481.5q-6 -52.5 -6 -140t11 -151
t41 -98t70 -45t102 -10.5t96.5 7t64.5 26.5t46 55.5q33 76 33 235q0 162 -27 227q-15 37 -31.5 59t-46.5 32.5t-56.5 13.5t-67 3t-62 -1.5t-49.5 -8.5t-44 -20t-33.5 -37t-26 -59.5t-14.5 -88zM538 -124q-29 -11 -60.5 -11t-60 10t-51 34t-29.5 58h27q19 -33 49 -47t59 -14
t66 13v-43z" />
    <glyph glyph-name="R" unicode="R" horiz-adv-x="580" 
d="M74 0v732h288q95 0 137 -58q37 -53 37 -149q0 -148 -72 -189q-32 -18 -76 -20l158 -316h-43l-160 315q-221 6 -228 11v-326h-41zM115 358h247q30 0 50 5t40 21q42 32 42 136t-36 137t-96 33h-247v-332z" />
    <glyph glyph-name="S" unicode="S" horiz-adv-x="585" 
d="M80 494v66q0 101 50.5 139.5t145.5 38.5t230 -21v-29l-231 9h-14q-66 0 -103 -28t-37 -109v-66q0 -70 32 -92t100 -22h123q91 0 125.5 -42t34.5 -114v-68q0 -101 -62 -136q-52 -28 -134 -28q-39 0 -123 6t-117 12v31q86 -8 178.5 -8t117 4.5t48.5 16.5q51 26 51 102v68
q0 58 -27.5 86t-91.5 28h-121q-112 0 -147 49q-17 24 -22.5 48t-5.5 59z" />
    <glyph glyph-name="T" unicode="T" horiz-adv-x="595" 
d="M46 691v41h515v-41h-240v-691h-41v691h-234z" />
    <glyph glyph-name="U" unicode="U" horiz-adv-x="680" 
d="M98 320v412h41v-412q0 -103 14 -163.5t50 -85.5t64.5 -30t91.5 -5h1q115 0 151 40q45 50 56 128q7 50 7 116v412h42v-412q0 -158 -40 -228q-14 -24 -26.5 -40.5t-33.5 -27.5t-35.5 -16.5t-39.5 -8.5q-33 -4 -58 -4h-42t-31.5 0.5t-41 3t-40.5 8t-35 17t-32.5 27.5
t-25.5 40.5t-21 56.5q-16 81 -16 172z" />
    <glyph glyph-name="V" unicode="V" horiz-adv-x="662" 
d="M56 732h44l240 -676l251 676h45l-273 -732h-47z" />
    <glyph glyph-name="W" unicode="W" horiz-adv-x="967" 
d="M56 732h44l240 -672l223 672h46l-91 -278l152 -396l228 674h43l-246 -732h-47l-152 389l-133 -389h-47z" />
    <glyph glyph-name="X" unicode="X" horiz-adv-x="575" 
d="M56 732h48l197 -331l200 331h48l-221 -366l216 -366h-48l-195 327l-194 -327h-48l215 366z" />
    <glyph glyph-name="Y" unicode="Y" horiz-adv-x="622" 
d="M336 0h-41v260l-239 472h45l215 -422l234 422h46l-260 -472v-260z" />
    <glyph glyph-name="Z" unicode="Z" horiz-adv-x="553" 
d="M43 0v41l420 650h-420v41h473v-41l-420 -650h420v-41h-473z" />
    <glyph glyph-name="bracketleft" unicode="[" horiz-adv-x="324" 
d="M105 -38v708q0 58 22 108q13 29 42 46.5t72 17.5h60v-41h-60q-44 0 -69.5 -33t-25.5 -98v-708q0 -59 23.5 -95t71.5 -36h60v-41h-60q-43 0 -72 17.5t-42 46.5q-22 50 -22 108z" />
    <glyph glyph-name="backslash" unicode="\" horiz-adv-x="369" 
d="M25 770h39l281 -842h-39z" />
    <glyph glyph-name="bracketright" unicode="]" horiz-adv-x="324" 
d="M25 -169h60q48 0 71.5 36t23.5 95v708q0 65 -25.5 98t-69.5 33h-60v41h60q43 0 72 -17.5t42 -46.5q22 -50 22 -108v-708q0 -58 -22 -108q-13 -29 -42 -46.5t-72 -17.5h-60v41z" />
    <glyph glyph-name="asciicircum" unicode="^" horiz-adv-x="401" 
d="M62 531l127 130h37l115 -130h-36l-98 100l-109 -100h-36z" />
    <glyph glyph-name="underscore" unicode="_" horiz-adv-x="663" 
d="M25 -1v41h614v-41h-614z" />
    <glyph glyph-name="grave" unicode="`" horiz-adv-x="214" 
d="M25 664h49l116 -133h-32z" />
    <glyph glyph-name="a" unicode="a" horiz-adv-x="519" 
d="M66 510q119 31 242 31q65 0 107.5 -38t42.5 -116v-387h-28l-13 64l-15 -7q-96 -43 -144.5 -53t-75.5 -10q-57 0 -95 35t-38 97v61q0 62 35.5 97.5t97.5 35.5h176.5h58.5q1 33 1 49.5t-1 17.5q0 114 -113 115h-8q-81 0 -230 -19v27zM90 131q0 -50 27 -72.5t64 -23
t95.5 13.5t99.5 29l41 14v199l-235 -12q-92 -4 -92 -94v-54z" />
    <glyph glyph-name="b" unicode="b" horiz-adv-x="552" 
d="M74 0v785h39v-286q45 18 102.5 29t94.5 11q181 0 181 -276q0 -101 -36 -179q-19 -42 -56 -66t-86.5 -24t-112.5 23t-86 42l-14 -59h-26zM310 35q62 0 101 57t39 180.5t-37.5 174.5t-102.5 51q-85 0 -196 -29v-382q110 -52 196 -52z" />
    <glyph glyph-name="c" unicode="c" horiz-adv-x="500" 
d="M62 266q0 84 12 139.5t37 83t54 37.5t93.5 10t185.5 -26v-28q-119 13 -180.5 13t-83 -7.5t-40.5 -31.5q-37 -45 -37 -194q0 -91 17.5 -142t44.5 -67.5t69 -16.5q84 0 184 14l34 4v-30q-97 -28 -216 -29q-41 0 -69.5 10t-54 37.5t-38 83.5t-12.5 140z" />
    <glyph glyph-name="d" unicode="d" horiz-adv-x="552" 
d="M62 263q0 276 181 276q37 0 94.5 -11t102.5 -29v286h39v-785h-27l-13 59q-23 -19 -86 -42t-112.5 -23t-86.5 24t-56 66q-36 78 -36 179zM140 447.5q-37 -50.5 -37 -176t38.5 -181t101.5 -55.5q86 0 196 52v382q-111 29 -196 29q-66 0 -103 -50.5z" />
    <glyph glyph-name="e" unicode="e" horiz-adv-x="525" 
d="M62 268q0 88 11 141t38.5 81t63.5 36.5t85 8.5t71.5 -2t48.5 -8t41.5 -18.5t28.5 -32.5q26 -38 26 -127q0 -57 -33.5 -81t-102.5 -24h-237q0 -85 17 -131.5t43.5 -60.5t72.5 -14q114 0 230 17v-30q-98 -28 -214 -28h-16q-100 1 -137 60.5t-37 212.5zM103 282h237
q46 0 70.5 13t24.5 57.5t-8 74t-30 44.5t-48.5 19t-77.5 4t-79.5 -6t-51 -28t-30 -63.5t-7.5 -114.5z" />
    <glyph glyph-name="f" unicode="f" horiz-adv-x="389" 
d="M25 490v29l90 12v99q0 83 23 118q27 38 80 38q97 0 147 -15v-26l-136 1q-46 0 -59.5 -28t-13.5 -88v-99h168v-41h-168v-490h-41v490h-90z" />
    <glyph glyph-name="g" unicode="g" horiz-adv-x="566" 
d="M72 159q25 29 63 32q-77 36 -77 153q0 97 42 143t130 46h312v-28l-101 -13q37 -36 46 -85q5 -28 5 -56t-3.5 -49t-14 -46.5t-28 -45t-48 -32.5t-71.5 -13h-156q-46 0 -64 -22q-9 -11 -9 -30.5t21.5 -32t45.5 -12.5h208q67 0 103.5 -36.5t36.5 -97.5v-57q0 -147 -150 -147
h-150q-98 0 -137 70q-20 35 -20 84v91l21 92q-18 17 -18 46.5t13 45.5zM167 28q-42 0 -70 22v-166q0 -35 12 -59t32 -35q35 -20 72 -20h150q110 0 110 107v55q0 96 -104 96h-202zM130 242q32 -36 93 -36h101q97 0 121 89q7 22 7 47q0 74 -27 112t-73 38h-129q-73 0 -100 -43
q-25 -38 -25 -104.5t32 -102.5z" />
    <glyph glyph-name="h" unicode="h" 
d="M74 0v784h41v-315q113 71 209 71q76 0 120 -50t44 -120v-370h-41v370q0 59 -33 94t-91 35t-101.5 -13.5t-106.5 -46.5v-439h-41z" />
    <glyph glyph-name="i" unicode="i" horiz-adv-x="179" 
d="M62 620v60q0 16 16 16h24q15 0 15 -16v-60q0 -15 -15 -15h-24q-16 0 -16 15zM68 0v531h41v-531h-41z" />
    <glyph glyph-name="j" unicode="j" horiz-adv-x="203" 
d="M74 620v60q0 16 16 16h24q16 0 16 -16v-60q0 -15 -16 -15h-24q-16 0 -16 15zM82 -270v801h41v-535v-31q0 -144 -17 -235h-24z" />
    <glyph glyph-name="k" unicode="k" horiz-adv-x="498" 
d="M74 0v782h41v-456h53l246 205h60l-266 -227l265 -304h-54l-251 284h-53v-284h-41z" />
    <glyph glyph-name="l" unicode="l" horiz-adv-x="298" 
d="M74 189v594h41v-594q0 -95 29 -123q14 -13 24.5 -17.5t54.5 -13t51 -8.5v-27h-74q-63 0 -94.5 45t-31.5 144z" />
    <glyph glyph-name="m" unicode="m" horiz-adv-x="919" 
d="M74 0v531h27l14 -63q113 71 207 71q49 0 87 -22t57 -59q43 33 106.5 57t130 24t111.5 -49t45 -121v-369h-41v369q0 55 -33.5 92t-89.5 37q-108 0 -220 -65q11 -25 11 -64v-369h-41v369q0 55 -33.5 92t-91 37t-100.5 -13.5t-105 -45.5v-439h-41z" />
    <glyph glyph-name="n" unicode="n" 
d="M74 0v531h27l14 -62q113 71 209 71q76 0 120 -50t44 -120v-370h-41v370q0 57 -33.5 93t-91 36t-101 -13.5t-106.5 -46.5v-439h-41z" />
    <glyph glyph-name="o" unicode="o" horiz-adv-x="571" 
d="M108.5 53.5q-46.5 58.5 -46.5 211.5t49 212t175.5 59t175 -63.5t48.5 -212.5t-48.5 -207t-177.5 -58t-175.5 58.5zM114 386.5q-11 -48.5 -11 -125t11 -122t36.5 -67.5t55 -29t79.5 -7t80.5 7.5t56.5 30.5q47 43 47 184q0 152 -47 197q-26 24 -56.5 32t-80.5 8t-79 -6.5
t-55 -30t-37 -72z" />
    <glyph glyph-name="p" unicode="p" horiz-adv-x="552" 
d="M74 -269v800h26l14 -59q23 19 86 42t112.5 23t86.5 -24t56 -65q36 -79 36 -180q0 -276 -181 -276q-37 0 -94 11t-102 29v-301h-40zM310 33q65 0 102.5 51t37.5 174.5t-39 180.5t-101 57q-86 0 -196 -52v-382q111 -29 196 -29z" />
    <glyph glyph-name="q" unicode="q" horiz-adv-x="556" 
d="M108 467q46 70 138 70q128 0 238 -16v-791h-41v299q-45 -18 -102 -28.5t-104 -10.5t-84 20.5t-57 59.5q-34 70 -34 198.5t46 198.5zM103 268q0 -110 26 -169q30 -68 114.5 -68t199.5 29v436h-197q-143 0 -143 -228z" />
    <glyph glyph-name="r" unicode="r" horiz-adv-x="424" 
d="M74 0v531h26l15 -67q44 25 65.5 36t63.5 24t89.5 13t66.5 -8v-40q-35 7 -63.5 7t-44.5 -1.5t-33 -5.5t-27.5 -7t-29 -11t-26.5 -11q-53 -26 -61 -30v-430h-41z" />
    <glyph glyph-name="s" unicode="s" horiz-adv-x="504" 
d="M49 361v46q0 64 32 96.5t106 32.5q127 0 241 -11v-29h-241q-55 0 -76 -21t-21 -68v-46q0 -54 26 -66q15 -7 28.5 -8.5t42.5 -1.5h138q60 0 95 -32t35 -88v-49q0 -78 -41 -102q-35 -19 -79.5 -19t-139 5t-124.5 8v28h254q49 0 67 16q22 21 22 64v49q0 35 -22.5 57
t-66.5 22h-138q-77 0 -107.5 22t-30.5 95z" />
    <glyph glyph-name="t" unicode="t" horiz-adv-x="359" 
d="M25 491v30l89 11l11 148h30v-148h168v-41h-168v-302q0 -95 29 -123q14 -13 24.5 -17.5t54.5 -13t51 -8.5v-27h-74q-63 0 -94.5 45t-31.5 144v302h-89z" />
    <glyph glyph-name="u" unicode="u" 
d="M62 162v370h41v-370q0 -57 33.5 -93t91.5 -36t101.5 13.5t105.5 45.5v440h41v-531h-27l-14 62q-113 -71 -209 -71q-76 0 -120 50t-44 120z" />
    <glyph glyph-name="v" unicode="v" horiz-adv-x="525" 
d="M25 531h43l193 -472l196 472h44l-219 -531h-42z" />
    <glyph glyph-name="w" unicode="w" horiz-adv-x="785" 
d="M25 531h44l182 -474l173 474h43l-67 -189l129 -285l189 474h43l-209 -531h-43l-129 289l-106 -289h-44z" />
    <glyph glyph-name="x" unicode="x" horiz-adv-x="494" 
d="M29 0l192 266l-192 265h53l165 -230l166 230h53l-193 -266l190 -265h-50l-166 229l-165 -229h-53z" />
    <glyph glyph-name="y" unicode="y" horiz-adv-x="537" 
d="M26 531h44l142 -415q26 -72 78 -74l11 1l165 488h44l-233 -699l-56 -102h-24l90 270q-85 4 -118 110z" />
    <glyph glyph-name="z" unicode="z" horiz-adv-x="468" 
d="M37 490v41h396v-41l-328 -448h328v-41h-381v41l328 448h-343z" />
    <glyph glyph-name="braceleft" unicode="{" horiz-adv-x="309" 
d="M115 420v236q0 82 39 134t131 52v-41q-64 0 -96.5 -33t-32.5 -112v-236q0 -35 -23.5 -57.5t-58.5 -28.5q34 -5 57.5 -28.5t23.5 -54.5v-289q0 -71 32 -101t94 -30h4v-41q-106 0 -142 58q-29 46 -29 114v285q0 32 -26.5 49t-55.5 17h-7v41q90 8 90 66z" />
    <glyph glyph-name="bar" unicode="|" horiz-adv-x="250" 
d="M106 -72v842h41v-842h-41z" />
    <glyph glyph-name="braceright" unicode="}" horiz-adv-x="309" 
d="M29 -169q62 0 94 30t32 101v289q0 31 23.5 54.5t57.5 28.5q-35 6 -58.5 28.5t-23.5 57.5v236q0 79 -32.5 112t-96.5 33v41q92 0 131 -52t39 -134v-236q0 -58 90 -66v-41h-7q-29 0 -55.5 -17t-26.5 -49v-285q0 -123 -82 -157q-36 -15 -89 -15v41h4z" />
    <glyph glyph-name="asciitilde" unicode="~" horiz-adv-x="461" 
d="M233.5 603q40.5 -30 53.5 -30t23 2.5t17.5 6t18 9.5t15 10t15 11.5t12.5 9.5l12 -19q-2 -2 -9.5 -9t-9.5 -9.5t-9 -9t-10.5 -8.5t-10.5 -7.5t-11 -7.5l-11 -6q-17 -8 -39 -8t-62 30t-55 30t-29 -4.5t-22 -9t-25.5 -16t-24.5 -15.5l-10 19q10 10 29 25t23 17.5t13 7.5
t15 6q18 5 34.5 5t57 -30z" />
    <glyph glyph-name="exclamdown" unicode="&#xa1;" horiz-adv-x="267" 
d="M102 386v60q0 14 16 14h24q16 0 16 -15v-58q0 -18 -16 -18h-24q-16 0 -16 17zM108 -270l6 534h33l6 -534h-45z" />
    <glyph glyph-name="cent" unicode="&#xa2;" horiz-adv-x="488" 
d="M58.5 144.5q-9.5 50.5 -9.5 129.5t13 135.5t40.5 83.5t57.5 35.5t53 8.5h28v86h32v-89q86 -7 159 -24v-28q-119 14 -180.5 14t-83 -8t-40.5 -31q-38 -44 -38 -195q0 -137 37 -184q19 -24 41.5 -33.5t59.5 -9.5q77 0 178 13l33 5v-30q-81 -24 -166 -27v-83h-32v81
q-38 0 -64.5 4.5t-52.5 21t-41 45.5t-24.5 79.5z" />
    <glyph glyph-name="sterling" unicode="&#xa3;" horiz-adv-x="599" 
d="M62 0v29l72 12v302h-72v25l72 11v126q0 130 49 179q31 31 67 38q52 10 94 10q55 0 162 -8l32 -3v-29h-174q-80 0 -114 -13t-46 -33q-29 -47 -29 -141v-126l283 -11v-25h-283v-302h361v-41h-474z" />
    <glyph glyph-name="currency" unicode="&#xa4;" horiz-adv-x="463" 
d="M127 437q45 39 105 39t104 -38l46 45l17 -20l-45 -44q39 -44 39 -104t-37 -108l43 -43l-20 -18l-41 42q-46 -44 -107 -44t-108 45l-41 -42l-18 19l41 42q-36 45 -36 105.5t40 105.5l-46 45l19 18zM137.5 407q-39.5 -39 -39.5 -94.5t38.5 -97t94.5 -41.5t94.5 41.5
t38.5 97.5t-38.5 94.5t-93.5 38.5t-94.5 -39z" />
    <glyph glyph-name="yen" unicode="&#xa5;" horiz-adv-x="589" 
d="M504 321v-29h-199v-80h199v-29h-199v-183h-41v183h-187v29h187v80h-187v29h186l-238 411h46l214 -370l231 370h49l-259 -411h198z" />
    <glyph glyph-name="brokenbar" unicode="&#xa6;" horiz-adv-x="252" 
d="M106 -72v328h41v-328h-41zM106 429v341h41v-341h-41z" />
    <glyph glyph-name="section" unicode="&#xa7;" horiz-adv-x="556" 
d="M68 353v62q0 82 51 93q-51 12 -51 82v70q0 67 37 95.5t82.5 28.5t140 -5t124.5 -8v-28h-254q-89 0 -89 -83v-70q0 -38 21.5 -51t67.5 -13h159q81 0 107.5 -25.5t25.5 -84.5v-62q0 -84 -49 -89q30 -6 39 -27.5t9 -54.5v-73q0 -78 -45 -100q-37 -18 -82.5 -18t-136 5
t-120.5 8v28h246q48 0 72.5 16.5t24.5 60.5v73q0 40 -16.5 51.5t-74.5 11.5h-159q-36 0 -55 2.5t-39 12.5q-36 18 -36 92zM109 353q0 -45 17 -55t72 -10h159q62 0 76.5 11.5t14.5 54.5v62q0 42 -17 56t-74 14h-159q-53 0 -71 -11.5t-18 -60.5v-61z" />
    <glyph glyph-name="dieresis" unicode="&#xa8;" horiz-adv-x="434" 
d="M62 582q0 12 8 20t20 8t20.5 -8t8.5 -20t-8.5 -20.5t-20.5 -8.5t-20 8.5t-8 20.5zM316 582q0 12 8.5 20t20.5 8t20.5 -8t8.5 -20t-8.5 -20.5t-20.5 -8.5t-20.5 8.5t-8.5 20.5z" />
    <glyph glyph-name="copyright" unicode="&#xa9;" horiz-adv-x="845" 
d="M74.5 278q-6.5 46 -6.5 102t10.5 115t35 115t73.5 89t117 33h261q213 0 213 -364q0 -217 -92 -315q-49 -53 -121 -53h-261q-53 0 -95 25.5t-67.5 65t-43 90.5t-24 97zM304 31h261q79 0 130.5 88.5t51.5 248.5q0 136 -37 228q-19 50 -56 77.5t-89 27.5h-261
q-83 0 -140 -68q-63 -76 -65 -265q0 -126 49 -225q24 -50 64.5 -81t91.5 -31zM282.5 194.5q-38.5 47.5 -38.5 166t39 170.5t108 52t175 -19v-24q-84 12 -178 12q-113 0 -113 -190q0 -89 26 -136.5t87 -47.5q108 0 184 16v-24q-82 -23 -184 -23q-67 0 -105.5 47.5z" />
    <glyph glyph-name="ordfeminine" unicode="&#xaa;" horiz-adv-x="361" 
d="M37 283v28h288v-28h-288zM49 717q88 22 149 22q125 0 125 -103v-258h-20l-12 49l-11 -5q-90 -48 -137 -48t-76.5 23.5t-29.5 65.5v46q0 41 27 65.5t73 24.5q77 -1 115.5 -1t38.5 1q1 15 1 23t-1 9q0 78 -92 78q-60 0 -150 -13v21zM69 469q0 -63 74 -63q27 0 64 10.5
t61 21.5l23 10v129l-148 -6q-74 -2 -74 -68v-34z" />
    <glyph glyph-name="guillemotleft" unicode="&#xab;" horiz-adv-x="548" 
d="M62 354l205 204l29 -29l-177 -175l183 -179l-30 -30zM247 354l206 204l28 -29l-177 -175l182 -179l-29 -30z" />
    <glyph glyph-name="logicalnot" unicode="&#xac;" horiz-adv-x="530" 
d="M62 272v42h406v-155h-41v113h-365z" />
    <glyph glyph-name="uni00AD" unicode="&#xad;" horiz-adv-x="363" 
d="M25 270v40h314v-40h-314z" />
    <glyph glyph-name="registered" unicode="&#xae;" horiz-adv-x="845" 
d="M74.5 278q-6.5 46 -6.5 102t10.5 115t35 115t73.5 89t117 33h261q213 0 213 -364q0 -217 -92 -315q-49 -53 -121 -53h-261q-53 0 -95 25.5t-67.5 65t-43 90.5t-24 97zM304 31h261q79 0 130.5 88.5t51.5 248.5q0 136 -37 228q-19 50 -56 77.5t-89 27.5h-261
q-83 0 -140 -68q-63 -76 -65 -265q0 -126 49 -225q24 -50 64.5 -81t91.5 -31zM277 153v427h177q58 0 92.5 -27t34.5 -100q0 -62 -25 -86q-10 -9 -15.5 -13.5t-18 -8t-16.5 -3.5q-28 -4 -31 -4l105 -185h-36l-104 185l-132 7v-192h-31zM308 366h152q50 0 70 17t20 70
t-23.5 74.5t-66.5 21.5h-152v-183z" />
    <glyph glyph-name="macron" unicode="&#xaf;" horiz-adv-x="388" 
d="M62 531v31h265v-31h-265z" />
    <glyph glyph-name="degree" unicode="&#xb0;" horiz-adv-x="326" 
d="M62 632q0 43 30 73t72 30t71 -30t29 -73t-29 -72.5t-71 -29.5t-72 29.5t-30 72.5zM109.5 686.5q-22.5 -22.5 -22.5 -54t22.5 -54t54 -22.5t53.5 22t22 54t-22 54.5t-53.5 22.5t-54 -22.5z" />
    <glyph glyph-name="plusminus" unicode="&#xb1;" horiz-adv-x="532" 
d="M69 120v41h396v-41h-396zM69 403v41h177v177h41v-177h178v-41h-178v-178h-41v178h-177z" />
    <glyph glyph-name="twosuperior" unicode="&#xb2;" horiz-adv-x="402" 
d="M39 822q-2 0 -2 6t2 17q83 10 183 10q130 0 130 -136q0 -41 -28 -86q-29 -49 -57 -78t-44.5 -45.5t-38.5 -35.5t-34 -30q-44 -36 -48 -38h249v-33h-309v29q2 2 35 28t50 40t50.5 43.5t53.5 51.5t43 50q43 54 43 103.5t-22 76.5t-81 27h-175z" />
    <glyph glyph-name="threesuperior" unicode="&#xb3;" horiz-adv-x="426" 
d="M37 817v22q42 11 195 11q61 0 91 -31.5t30 -80.5v-35q0 -36 -24 -60.5t-47 -29.5q24 -8 47.5 -33.5t23.5 -63.5v-28q0 -58 -28 -88.5t-98 -30.5q-139 0 -186 13v20h178q55 0 78 19.5t23 70.5v23q0 40 -29 61t-68 22l-142 4v23l142 5q43 2 70.5 22t27.5 54v31q0 80 -93 80
h-191z" />
    <glyph glyph-name="acute" unicode="&#xb4;" horiz-adv-x="214" 
d="M25 531l116 133h49l-133 -133h-32z" />
    <glyph glyph-name="uni00B5" unicode="&#xb5;" horiz-adv-x="611" 
d="M111 -270v802h41v-370q0 -57 33.5 -93t91.5 -36t101.5 13.5t105.5 45.5v440h41v-531h-27l-14 62q-113 -71 -201.5 -71t-130.5 59v-321h-41z" />
    <glyph glyph-name="paragraph" unicode="&#xb6;" horiz-adv-x="575" 
d="M49 499v93q0 67 46.5 103.5t109.5 36.5h345v-43h-69v-689h-41v691h-140v-961h-41v637q-21 -12 -50 -12h-4q-74 0 -115 41t-41 103zM90 501q0 -32 13.5 -55t34.5 -33q34 -17 67 -17h54v295h-54q-56 0 -85.5 -29t-29.5 -72v-89z" />
    <glyph glyph-name="periodcentered" unicode="&#xb7;" horiz-adv-x="266" 
d="M105 369v27q0 16 16 16h25q17 0 17 -16v-27q0 -16 -17 -16h-25q-16 0 -16 16z" />
    <glyph glyph-name="cedilla" unicode="&#xb8;" horiz-adv-x="261" 
d="M166 -44v7h34q0 -78 -20.5 -107t-80.5 -29h-37v17l39 9q36 7 50.5 28t14.5 75z" />
    <glyph glyph-name="onesuperior" unicode="&#xb9;" horiz-adv-x="260" 
d="M181 849v-476h-33v441l-128 -43v23l128 55h33z" />
    <glyph glyph-name="ordmasculine" unicode="&#xba;" horiz-adv-x="384" 
d="M69 412q-32 39 -32 143t31 143t124.5 39t124 -39t30.5 -143.5t-31 -143t-123 -38.5t-124 39zM48 284v28h289v-28h-289zM81 652.5q-13 -33.5 -13 -112.5t26.5 -107t98 -28t96.5 26q26 27 26 122t-24 123.5t-86.5 28.5t-86.5 -9.5t-37 -43z" />
    <glyph glyph-name="guillemotright" unicode="&#xbb;" horiz-adv-x="548" 
d="M62 175l182 179l-176 175l28 29l206 -204l-211 -209zM247 175l182 179l-177 175l30 29l204 -204l-210 -209z" />
    <glyph glyph-name="onequarter" unicode="&#xbc;" horiz-adv-x="885" 
d="M181 732v-476h-33v441l-128 -43v23l128 55h33zM215 0l373 757h34l-373 -757h-34zM768 185v121l16 48h17v-169h59v-23l-59 -11v-151h-33v151h-272l-10 14l197 310h37l-183 -290h231z" />
    <glyph glyph-name="onehalf" unicode="&#xbd;" horiz-adv-x="954" 
d="M181 732v-476h-33v441l-128 -43v23l128 55h33zM204 0l374 757h34l-374 -757h-34zM592 450q-2 0 -2 6t2 17q82 10 183 10q130 0 130 -136q0 -41 -27 -86q-30 -49 -58 -78t-44.5 -45.5t-38.5 -35.5t-35 -30q-43 -36 -47 -38h249v-33h-309v29q2 2 35 28t50 40t50.5 43.5
t53.5 51.5t42 50q44 54 44 103.5t-22 76.5t-81 27h-175z" />
    <glyph glyph-name="threequarters" unicode="&#xbe;" horiz-adv-x="1007" 
d="M37 700v22q42 11 195 11q61 0 91 -31.5t30 -80.5v-35q0 -36 -24 -60.5t-47 -29.5q24 -8 47.5 -33.5t23.5 -63.5v-28q0 -58 -28 -88.5t-98 -30.5q-139 0 -186 13v20h178q55 0 78 19.5t23 70.5v23q0 40 -29 61t-68 22l-142 4v23l142 5q43 2 70.5 22t27.5 54v31q0 80 -93 80
h-191zM326 0l373 757h34l-373 -757h-34zM853 184v123l14 48h17v-171h60v-21l-60 -12v-150h-31v150h-273l-10 15l196 309h36l-183 -291h234z" />
    <glyph glyph-name="questiondown" unicode="&#xbf;" horiz-adv-x="534" 
d="M239 178q31 0 68 -4v102h43v-136h-118q-137 -2 -138 -123v-101q0 -74 36.5 -108.5t116.5 -34.5h5h258v-28q-114 -13 -178 -13h-75h-13q-109 0 -152 48t-43 137v102q-1 95 64 133q46 26 126 26zM300 395v59q0 16 16 16h24q16 0 16 -15v-60q0 -16 -15 -16h-27q-14 1 -14 16
z" />
    <glyph glyph-name="Agrave" unicode="&#xc0;" horiz-adv-x="662" 
d="M203 930h49l116 -133h-32zM56 0l272 732h47l261 -732h-47l-82 236h-319l-84 -236h-48zM203 277h289l-141 401z" />
    <glyph glyph-name="Aacute" unicode="&#xc1;" horiz-adv-x="662" 
d="M336 797l116 133h49l-133 -133h-32zM56 0l272 732h47l261 -732h-47l-82 236h-319l-84 -236h-48zM203 277h289l-141 401z" />
    <glyph glyph-name="Acircumflex" unicode="&#xc2;" horiz-adv-x="662" 
d="M212 797l127 130h37l115 -130h-36l-98 100l-109 -100h-36zM56 0l272 732h47l261 -732h-47l-82 236h-319l-84 -236h-48zM203 277h289l-141 401z" />
    <glyph glyph-name="Atilde" unicode="&#xc3;" horiz-adv-x="662" 
d="M357.5 860.5q41.5 -29.5 52.5 -29.5t20.5 2.5t16.5 5.5t17.5 9t15.5 10q20 16 29 20l12 -19q-24 -22 -35 -31t-33 -20t-44 -10.5t-61.5 30t-54.5 29.5t-29 -4.5t-22 -9t-24.5 -15.5t-24.5 -16l-10 19q24 20 37 31q37 29 73 29q23 -1 64.5 -30.5zM56 0l272 732h47
l261 -732h-47l-82 236h-319l-84 -236h-48zM203 277h289l-141 401z" />
    <glyph glyph-name="Adieresis" unicode="&#xc4;" horiz-adv-x="662" 
d="M196 826q0 12 8 20t20 8t20.5 -8t8.5 -20t-8.5 -20.5t-20.5 -8.5t-20 8.5t-8 20.5zM450 826q0 12 8.5 20t20.5 8t20.5 -8t8.5 -20t-8.5 -20.5t-20.5 -8.5t-20.5 8.5t-8.5 20.5zM56 0l272 732h47l261 -732h-47l-82 236h-319l-84 -236h-48zM203 277h289l-141 401z" />
    <glyph glyph-name="Aring" unicode="&#xc5;" horiz-adv-x="662" 
d="M251 832q0 -43 30 -72.5t72 -29.5t71 29.5t29 72.5t-29 73t-71 30t-72 -30t-30 -73zM299 886.5q23 22.5 54 22.5t53 -22.5t22 -54.5t-22 -54t-53.5 -22t-54 22.5t-22.5 54t23 54zM56 0l272 732h47l261 -732h-47l-82 236h-319l-84 -236h-48zM203 277h289l-141 401z" />
    <glyph glyph-name="AE" unicode="&#xc6;" horiz-adv-x="928" 
d="M584 732h10l286 -12v-29h-286q-54 0 -67 -15q-6 -7 -9.5 -10t-5 -14.5t-2 -15t-0.5 -20.5v-234l330 -6v-30l-330 -6v-218q0 -57 31 -72q25 -11 64 -11h275v-30l-275 -13h-12q-52 0 -88 24.5t-36 100.5v123h-242l-143 -244h-47l349 595q49 85 89 111t109 26zM469 284v371
l-219 -371h219z" />
    <glyph glyph-name="Ccedilla" unicode="&#xc7;" horiz-adv-x="572" 
d="M319 -43v7h34q0 -78 -20.5 -107t-80.5 -29h-37v17l39 9q36 7 50.5 28t14.5 75zM68 368q0 230 70 308q58 64 173 64q95 0 224 -24v-30q-16 1 -29 2.5t-30.5 2.5t-38 2.5t-41.5 2.5q-35 3 -97 3t-104 -27q-86 -57 -86 -306q0 -331 203 -331q93 0 190 7l33 3v-29
q-118 -22 -224 -22q-243 0 -243 374z" />
    <glyph glyph-name="Egrave" unicode="&#xc8;" horiz-adv-x="576" 
d="M192 925h49l116 -133h-32zM98 123v479q0 69 35 99.5t85 30.5h6l304 -12v-29h-304q-85 0 -85 -89v-218l349 -7v-29l-349 -7v-218q0 -57 31 -73q25 -12 64 -12h294v-29l-294 -12h-19t-32.5 3.5t-40.5 15.5q-44 25 -44 107z" />
    <glyph glyph-name="Eacute" unicode="&#xc9;" horiz-adv-x="576" 
d="M317 792l116 133h49l-133 -133h-32zM98 123v479q0 69 35 99.5t85 30.5h6l304 -12v-29h-304q-85 0 -85 -89v-218l349 -7v-29l-349 -7v-218q0 -57 31 -73q25 -12 64 -12h294v-29l-294 -12h-19t-32.5 3.5t-40.5 15.5q-44 25 -44 107z" />
    <glyph glyph-name="Ecircumflex" unicode="&#xca;" horiz-adv-x="576" 
d="M190 797l127 130h37l115 -130h-36l-98 100l-109 -100h-36zM98 123v479q0 69 35 99.5t85 30.5h6l304 -12v-29h-304q-85 0 -85 -89v-218l349 -7v-29l-349 -7v-218q0 -57 31 -73q25 -12 64 -12h294v-29l-294 -12h-19t-32.5 3.5t-40.5 15.5q-44 25 -44 107z" />
    <glyph glyph-name="Edieresis" unicode="&#xcb;" horiz-adv-x="576" 
d="M166 843q0 12 8 20t20 8t20.5 -8t8.5 -20t-8.5 -20.5t-20.5 -8.5t-20 8.5t-8 20.5zM420 843q0 12 8.5 20t20.5 8t20.5 -8t8.5 -20t-8.5 -20.5t-20.5 -8.5t-20.5 8.5t-8.5 20.5zM98 123v479q0 69 35 99.5t85 30.5h6l304 -12v-29h-304q-85 0 -85 -89v-218l349 -7v-29
l-349 -7v-218q0 -57 31 -73q25 -12 64 -12h294v-29l-294 -12h-19t-32.5 3.5t-40.5 15.5q-44 25 -44 107z" />
    <glyph glyph-name="Igrave" unicode="&#xcc;" horiz-adv-x="204" 
d="M-30 930h49l116 -133h-32zM98 0v732h41v-732h-41z" />
    <glyph glyph-name="Iacute" unicode="&#xcd;" horiz-adv-x="204" 
d="M103 797l116 133h49l-133 -133h-32zM98 0v732h41v-732h-41z" />
    <glyph glyph-name="Icircumflex" unicode="&#xce;" horiz-adv-x="204" 
d="M-20 797l127 130h37l115 -130h-36l-98 100l-109 -100h-36zM98 0v732h41v-732h-41z" />
    <glyph glyph-name="Idieresis" unicode="&#xcf;" horiz-adv-x="204" 
d="M-37 826q0 12 8 20t20 8t20.5 -8t8.5 -20t-8.5 -20.5t-20.5 -8.5t-20 8.5t-8 20.5zM217 826q0 12 8.5 20t20.5 8t20.5 -8t8.5 -20t-8.5 -20.5t-20.5 -8.5t-20.5 8.5t-8.5 20.5zM98 0v732h41v-732h-41z" />
    <glyph glyph-name="Eth" unicode="&#xd0;" horiz-adv-x="666" 
d="M33 359v28h65v345h254q65 0 113.5 -24.5t75.5 -61.5t43 -89q27 -84 27 -172t-14.5 -149.5t-44 -115.5t-81.5 -87t-119 -33h-254v359h-65zM139 42h213q56 0 99 29t68 77q50 94 50 216q0 165 -56.5 245t-160.5 80h-213v-302h153v-28h-153v-317z" />
    <glyph glyph-name="Ntilde" unicode="&#xd1;" horiz-adv-x="670" 
d="M357.5 860.5q41.5 -29.5 52.5 -29.5t20.5 2.5t16.5 5.5t17.5 9t15.5 10q20 16 29 20l12 -19q-24 -22 -35 -31t-33 -20t-44 -10.5t-61.5 30t-54.5 29.5t-29 -4.5t-22 -9t-24.5 -15.5t-24.5 -16l-10 19q24 20 37 31q37 29 73 29q23 -1 64.5 -30.5zM98 0v732h43l423 -655
v655h41v-732h-41l-425 655v-655h-41z" />
    <glyph glyph-name="Ograve" unicode="&#xd2;" horiz-adv-x="675" 
d="M205 930h49l116 -133h-32zM87.5 218.5q-7.5 60.5 -7.5 152t13 161t33.5 110t58 62t74.5 27.5t90 6t85.5 -4t66.5 -17t54.5 -38.5t38.5 -66.5q32 -76 32 -250q0 -182 -43 -268q-20 -40 -56 -61.5t-75 -28.5t-93.5 -7t-87.5 4t-67.5 16.5t-54.5 37t-37 64.5t-24.5 100.5z
M125 468.5q-4 -47.5 -4 -131t11.5 -147t41.5 -98t70 -45t108.5 -10.5t108.5 11.5t70 45.5t42 98t12 163.5t-10.5 162t-26.5 98t-48 53.5t-62.5 22.5t-73 4.5t-62 -1t-45 -5.5t-40.5 -14t-32.5 -25.5t-27.5 -41t-19 -59t-13 -81.5z" />
    <glyph glyph-name="Oacute" unicode="&#xd3;" horiz-adv-x="675" 
d="M338 797l116 133h49l-133 -133h-32zM87.5 218.5q-7.5 60.5 -7.5 152t13 161t33.5 110t58 62t74.5 27.5t90 6t85.5 -4t66.5 -17t54.5 -38.5t38.5 -66.5q32 -76 32 -250q0 -182 -43 -268q-20 -40 -56 -61.5t-75 -28.5t-93.5 -7t-87.5 4t-67.5 16.5t-54.5 37t-37 64.5
t-24.5 100.5zM125 468.5q-4 -47.5 -4 -131t11.5 -147t41.5 -98t70 -45t108.5 -10.5t108.5 11.5t70 45.5t42 98t12 163.5t-10.5 162t-26.5 98t-48 53.5t-62.5 22.5t-73 4.5t-62 -1t-45 -5.5t-40.5 -14t-32.5 -25.5t-27.5 -41t-19 -59t-13 -81.5z" />
    <glyph glyph-name="Ocircumflex" unicode="&#xd4;" horiz-adv-x="675" 
d="M214 797l127 130h37l115 -130h-36l-98 100l-109 -100h-36zM87.5 218.5q-7.5 60.5 -7.5 152t13 161t33.5 110t58 62t74.5 27.5t90 6t85.5 -4t66.5 -17t54.5 -38.5t38.5 -66.5q32 -76 32 -250q0 -182 -43 -268q-20 -40 -56 -61.5t-75 -28.5t-93.5 -7t-87.5 4t-67.5 16.5
t-54.5 37t-37 64.5t-24.5 100.5zM125 468.5q-4 -47.5 -4 -131t11.5 -147t41.5 -98t70 -45t108.5 -10.5t108.5 11.5t70 45.5t42 98t12 163.5t-10.5 162t-26.5 98t-48 53.5t-62.5 22.5t-73 4.5t-62 -1t-45 -5.5t-40.5 -14t-32.5 -25.5t-27.5 -41t-19 -59t-13 -81.5z" />
    <glyph glyph-name="Otilde" unicode="&#xd5;" horiz-adv-x="675" 
d="M359.5 860.5q41.5 -29.5 52.5 -29.5t20.5 2.5t16.5 5.5t17.5 9t15.5 10q20 16 29 20l12 -19q-24 -22 -35 -31t-33 -20t-44 -10.5t-61.5 30t-54.5 29.5t-29 -4.5t-22 -9t-24.5 -15.5t-24.5 -16l-10 19q24 20 37 31q37 29 73 29q23 -1 64.5 -30.5zM87.5 218.5
q-7.5 60.5 -7.5 152t13 161t33.5 110t58 62t74.5 27.5t90 6t85.5 -4t66.5 -17t54.5 -38.5t38.5 -66.5q32 -76 32 -250q0 -182 -43 -268q-20 -40 -56 -61.5t-75 -28.5t-93.5 -7t-87.5 4t-67.5 16.5t-54.5 37t-37 64.5t-24.5 100.5zM125 468.5q-4 -47.5 -4 -131t11.5 -147
t41.5 -98t70 -45t108.5 -10.5t108.5 11.5t70 45.5t42 98t12 163.5t-10.5 162t-26.5 98t-48 53.5t-62.5 22.5t-73 4.5t-62 -1t-45 -5.5t-40.5 -14t-32.5 -25.5t-27.5 -41t-19 -59t-13 -81.5z" />
    <glyph glyph-name="Odieresis" unicode="&#xd6;" horiz-adv-x="675" 
d="M198 826q0 12 8 20t20 8t20.5 -8t8.5 -20t-8.5 -20.5t-20.5 -8.5t-20 8.5t-8 20.5zM452 826q0 12 8.5 20t20.5 8t20.5 -8t8.5 -20t-8.5 -20.5t-20.5 -8.5t-20.5 8.5t-8.5 20.5zM87.5 218.5q-7.5 60.5 -7.5 152t13 161t33.5 110t58 62t74.5 27.5t90 6t85.5 -4t66.5 -17
t54.5 -38.5t38.5 -66.5q32 -76 32 -250q0 -182 -43 -268q-20 -40 -56 -61.5t-75 -28.5t-93.5 -7t-87.5 4t-67.5 16.5t-54.5 37t-37 64.5t-24.5 100.5zM125 468.5q-4 -47.5 -4 -131t11.5 -147t41.5 -98t70 -45t108.5 -10.5t108.5 11.5t70 45.5t42 98t12 163.5t-10.5 162
t-26.5 98t-48 53.5t-62.5 22.5t-73 4.5t-62 -1t-45 -5.5t-40.5 -14t-32.5 -25.5t-27.5 -41t-19 -59t-13 -81.5z" />
    <glyph glyph-name="multiply" unicode="&#xd7;" horiz-adv-x="444" 
d="M69 230l126 126l-126 125l29 30l126 -126l126 126l29 -29l-126 -126l125 -126l-29 -29l-125 126l-126 -126z" />
    <glyph glyph-name="Oslash" unicode="&#xd8;" horiz-adv-x="675" 
d="M134 653q19 28 39 44t51 25q52 15 124.5 15t117.5 -10t77 -39l28 44h33l-41 -64q63 -81 63 -307q0 -180 -44 -268q-20 -40 -56 -61.5t-75 -28.5t-103.5 -7t-110 9.5t-76.5 37.5l-28 -43h-32l40 63q-61 79 -61 294.5t54 295.5zM121 361q0 -191 46 -259l353 551
q-27 27 -65.5 35t-88.5 8t-71.5 -1.5t-49.5 -8.5t-44 -20t-33.5 -37t-25.5 -59q-21 -86 -21 -209zM353 37q54 0 88.5 7t64.5 26.5t46 55.5q33 76 33 254.5t-46 249.5l-354 -550q45 -43 168 -43z" />
    <glyph glyph-name="Ugrave" unicode="&#xd9;" horiz-adv-x="680" 
d="M208 930h49l116 -133h-32zM98 320v412h41v-412q0 -103 14 -163.5t50 -85.5t64.5 -30t91.5 -5h1q115 0 151 40q45 50 56 128q7 50 7 116v412h42v-412q0 -158 -40 -228q-14 -24 -26.5 -40.5t-33.5 -27.5t-35.5 -16.5t-39.5 -8.5q-33 -4 -58 -4h-42t-31.5 0.5t-41 3t-40.5 8
t-35 17t-32.5 27.5t-25.5 40.5t-21 56.5q-16 81 -16 172z" />
    <glyph glyph-name="Uacute" unicode="&#xda;" horiz-adv-x="680" 
d="M341 797l116 133h49l-133 -133h-32zM98 320v412h41v-412q0 -103 14 -163.5t50 -85.5t64.5 -30t91.5 -5h1q115 0 151 40q45 50 56 128q7 50 7 116v412h42v-412q0 -158 -40 -228q-14 -24 -26.5 -40.5t-33.5 -27.5t-35.5 -16.5t-39.5 -8.5q-33 -4 -58 -4h-42t-31.5 0.5
t-41 3t-40.5 8t-35 17t-32.5 27.5t-25.5 40.5t-21 56.5q-16 81 -16 172z" />
    <glyph glyph-name="Ucircumflex" unicode="&#xdb;" horiz-adv-x="680" 
d="M218 797l127 130h37l115 -130h-36l-98 100l-109 -100h-36zM98 320v412h41v-412q0 -103 14 -163.5t50 -85.5t64.5 -30t91.5 -5h1q115 0 151 40q45 50 56 128q7 50 7 116v412h42v-412q0 -158 -40 -228q-14 -24 -26.5 -40.5t-33.5 -27.5t-35.5 -16.5t-39.5 -8.5
q-33 -4 -58 -4h-42t-31.5 0.5t-41 3t-40.5 8t-35 17t-32.5 27.5t-25.5 40.5t-21 56.5q-16 81 -16 172z" />
    <glyph glyph-name="Udieresis" unicode="&#xdc;" horiz-adv-x="680" 
d="M201 826q0 12 8 20t20 8t20.5 -8t8.5 -20t-8.5 -20.5t-20.5 -8.5t-20 8.5t-8 20.5zM455 826q0 12 8.5 20t20.5 8t20.5 -8t8.5 -20t-8.5 -20.5t-20.5 -8.5t-20.5 8.5t-8.5 20.5zM98 320v412h41v-412q0 -103 14 -163.5t50 -85.5t64.5 -30t91.5 -5h1q115 0 151 40
q45 50 56 128q7 50 7 116v412h42v-412q0 -158 -40 -228q-14 -24 -26.5 -40.5t-33.5 -27.5t-35.5 -16.5t-39.5 -8.5q-33 -4 -58 -4h-42t-31.5 0.5t-41 3t-40.5 8t-35 17t-32.5 27.5t-25.5 40.5t-21 56.5q-16 81 -16 172z" />
    <glyph glyph-name="Yacute" unicode="&#xdd;" horiz-adv-x="622" 
d="M310 797l116 133h49l-133 -133h-32zM336 0h-41v260l-239 472h45l215 -422l234 422h46l-260 -472v-260z" />
    <glyph glyph-name="Thorn" unicode="&#xde;" horiz-adv-x="555" 
d="M74 0v729h41v-141h210q176 0 176 -213q0 -160 -83 -205q-25 -14 -46 -17.5t-47 -3.5q-152 3 -210 13v-162h-41zM115 190h210q66 0 100.5 41t34.5 146q0 107 -48 142q-38 28 -87 28h-210v-357z" />
    <glyph glyph-name="germandbls" unicode="&#xdf;" horiz-adv-x="567" 
d="M213 38l174 -5q60 0 87.5 30t28.5 69v47q0 53 -85 65q-36 5 -71.5 12t-60.5 29.5t-25 63t23 65t106 83.5q25 18 45 49q27 41 27 86.5t-42.5 74.5t-127.5 29t-131 -43.5t-46 -126.5v-566h-41v566q0 92 55.5 151.5t157.5 59.5q71 0 119.5 -18t69.5 -46q27 -38 27 -86
q0 -54 -41 -111q-21 -31 -42.5 -46.5t-50.5 -36.5t-38.5 -29t-19 -23.5t-9.5 -37.5t25 -35.5t60.5 -19t71 -13.5t60.5 -31.5t25 -64.5v-47q0 -69 -45 -104.5t-117.5 -35.5t-168.5 16v30z" />
    <glyph glyph-name="agrave" unicode="&#xe0;" horiz-adv-x="519" 
d="M121 734h49l116 -133h-32zM66 510q119 31 242 31q65 0 107.5 -38t42.5 -116v-387h-28l-13 64l-15 -7q-96 -43 -144.5 -53t-75.5 -10q-57 0 -95 35t-38 97v61q0 62 35.5 97.5t97.5 35.5h176.5h58.5q1 33 1 49.5t-1 17.5q0 114 -113 115h-8q-81 0 -230 -19v27zM90 131
q0 -50 27 -72.5t64 -23t95.5 13.5t99.5 29l41 14v199l-235 -12q-92 -4 -92 -94v-54z" />
    <glyph glyph-name="aacute" unicode="&#xe1;" horiz-adv-x="519" 
d="M248 601l116 133h49l-133 -133h-32zM66 510q119 31 242 31q65 0 107.5 -38t42.5 -116v-387h-28l-13 64l-15 -7q-96 -43 -144.5 -53t-75.5 -10q-57 0 -95 35t-38 97v61q0 62 35.5 97.5t97.5 35.5h176.5h58.5q1 33 1 49.5t-1 17.5q0 114 -113 115h-8q-81 0 -230 -19v27z
M90 131q0 -50 27 -72.5t64 -23t95.5 13.5t99.5 29l41 14v199l-235 -12q-92 -4 -92 -94v-54z" />
    <glyph glyph-name="acircumflex" unicode="&#xe2;" horiz-adv-x="519" 
d="M128 601l127 130h37l115 -130h-36l-98 100l-109 -100h-36zM66 510q119 31 242 31q65 0 107.5 -38t42.5 -116v-387h-28l-13 64l-15 -7q-96 -43 -144.5 -53t-75.5 -10q-57 0 -95 35t-38 97v61q0 62 35.5 97.5t97.5 35.5h176.5h58.5q1 33 1 49.5t-1 17.5q0 114 -113 115h-8
q-81 0 -230 -19v27zM90 131q0 -50 27 -72.5t64 -23t95.5 13.5t99.5 29l41 14v199l-235 -12q-92 -4 -92 -94v-54z" />
    <glyph glyph-name="atilde" unicode="&#xe3;" horiz-adv-x="519" 
d="M267.5 671.5q41.5 -29.5 52.5 -29.5t20.5 2.5t16.5 5.5t17.5 9t15.5 9q20 17 29 21l12 -19q-24 -22 -35 -31t-33 -20t-44 -10.5t-61.5 30t-54.5 29.5t-29 -4.5t-22 -9t-24.5 -15.5t-24.5 -16l-10 19q24 20 37 30q37 30 73 30q23 -1 64.5 -30.5zM66 510q119 31 242 31
q65 0 107.5 -38t42.5 -116v-387h-28l-13 64l-15 -7q-96 -43 -144.5 -53t-75.5 -10q-57 0 -95 35t-38 97v61q0 62 35.5 97.5t97.5 35.5h176.5h58.5q1 33 1 49.5t-1 17.5q0 114 -113 115h-8q-81 0 -230 -19v27zM90 131q0 -50 27 -72.5t64 -23t95.5 13.5t99.5 29l41 14v199
l-235 -12q-92 -4 -92 -94v-54z" />
    <glyph glyph-name="adieresis" unicode="&#xe4;" horiz-adv-x="519" 
d="M110 652q0 12 8 20t20 8t20.5 -8t8.5 -20t-8.5 -20.5t-20.5 -8.5t-20 8.5t-8 20.5zM364 652q0 12 8.5 20t20.5 8t20.5 -8t8.5 -20t-8.5 -20.5t-20.5 -8.5t-20.5 8.5t-8.5 20.5zM66 510q119 31 242 31q65 0 107.5 -38t42.5 -116v-387h-28l-13 64l-15 -7
q-96 -43 -144.5 -53t-75.5 -10q-57 0 -95 35t-38 97v61q0 62 35.5 97.5t97.5 35.5h176.5h58.5q1 33 1 49.5t-1 17.5q0 114 -113 115h-8q-81 0 -230 -19v27zM90 131q0 -50 27 -72.5t64 -23t95.5 13.5t99.5 29l41 14v199l-235 -12q-92 -4 -92 -94v-54z" />
    <glyph glyph-name="aring" unicode="&#xe5;" horiz-adv-x="519" 
d="M162 673q0 43 30 73t72 30t71 -30t29 -73t-29 -72.5t-71 -29.5t-72 29.5t-30 72.5zM187 673q0 -31 22.5 -53.5t54 -22.5t53.5 22t22 54t-22 54.5t-53.5 22.5t-54 -23t-22.5 -54zM66 510q119 31 242 31q65 0 107.5 -38t42.5 -116v-387h-28l-13 64l-15 -7
q-96 -43 -144.5 -53t-75.5 -10q-57 0 -95 35t-38 97v61q0 62 35.5 97.5t97.5 35.5h176.5h58.5q1 33 1 49.5t-1 17.5q0 114 -113 115h-8q-81 0 -230 -19v27zM90 131q0 -50 27 -72.5t64 -23t95.5 13.5t99.5 29l41 14v199l-235 -12q-92 -4 -92 -94v-54z" />
    <glyph glyph-name="ae" unicode="&#xe6;" horiz-adv-x="882" 
d="M66 512q109 31 243 31q48 0 85 -22t52 -68q18 48 62.5 65.5t122.5 17.5q103 0 131 -15q41 -21 54 -52q18 -47 18 -108t-34 -85.5t-103 -24.5h-238q0 -95 5 -126.5t13 -44t23 -24.5q25 -19 93 -19h11q103 0 220 17v-30q-99 -28 -231 -28q-90 0 -127 34q-16 15 -31 36
l-17 -7q-108 -43 -158.5 -53t-77.5 -10q-57 0 -95 35t-38 97v33q0 62 35.5 97.5t97.5 35.5h176.5h58.5q1 47 1 70.5t-1 24.5q0 114 -113 115h-8q-80 0 -230 -19v27zM90 133q0 -50 27 -72.5t64 -23t95.5 15t99.5 31.5l41 15v165l-235 -9q-92 -4 -92 -94v-28zM697 291
q48 0 72 13t24 47.5t-3 55.5t-7.5 36t-16 25t-21 15.5t-29.5 8.5q-29 3 -92.5 3t-98 -14t-50 -57t-16.5 -133h238z" />
    <glyph glyph-name="ccedilla" unicode="&#xe7;" horiz-adv-x="500" 
d="M62 266q0 84 12 139.5t37 83.5t54 38t91.5 10t187.5 -27v-28q-119 14 -180.5 14t-83 -8t-40.5 -31q-37 -45 -37 -186t33 -188.5t100 -47.5q82 0 182 13l34 5v-30q-97 -28 -216 -29q-41 0 -69.5 10t-54 38t-38 84t-12.5 140zM269 -43v7h34q0 -78 -20.5 -107t-80.5 -29h-38
v18l40 8q36 7 50.5 28.5t14.5 74.5z" />
    <glyph glyph-name="egrave" unicode="&#xe8;" horiz-adv-x="525" 
d="M135 726h49l116 -133h-32zM62 268q0 88 11 141t38.5 81t63.5 36.5t85 8.5t71.5 -2t48.5 -8t41.5 -18.5t28.5 -32.5q26 -38 26 -127q0 -57 -33.5 -81t-102.5 -24h-237q0 -85 17 -131.5t43.5 -60.5t72.5 -14q114 0 230 17v-30q-98 -28 -214 -28h-16q-100 1 -137 60.5
t-37 212.5zM103 282h237q46 0 70.5 13t24.5 57.5t-8 74t-30 44.5t-48.5 19t-77.5 4t-79.5 -6t-51 -28t-30 -63.5t-7.5 -114.5z" />
    <glyph glyph-name="eacute" unicode="&#xe9;" horiz-adv-x="525" 
d="M261 593l116 133h49l-133 -133h-32zM62 268q0 88 11 141t38.5 81t63.5 36.5t85 8.5t71.5 -2t48.5 -8t41.5 -18.5t28.5 -32.5q26 -38 26 -127q0 -57 -33.5 -81t-102.5 -24h-237q0 -85 17 -131.5t43.5 -60.5t72.5 -14q114 0 230 17v-30q-98 -28 -214 -28h-16
q-100 1 -137 60.5t-37 212.5zM103 282h237q46 0 70.5 13t24.5 57.5t-8 74t-30 44.5t-48.5 19t-77.5 4t-79.5 -6t-51 -28t-30 -63.5t-7.5 -114.5z" />
    <glyph glyph-name="ecircumflex" unicode="&#xea;" horiz-adv-x="525" 
d="M133 593l127 130h37l115 -130h-36l-98 100l-109 -100h-36zM62 268q0 88 11 141t38.5 81t63.5 36.5t85 8.5t71.5 -2t48.5 -8t41.5 -18.5t28.5 -32.5q26 -38 26 -127q0 -57 -33.5 -81t-102.5 -24h-237q0 -85 17 -131.5t43.5 -60.5t72.5 -14q114 0 230 17v-30
q-98 -28 -214 -28h-16q-100 1 -137 60.5t-37 212.5zM103 282h237q46 0 70.5 13t24.5 57.5t-8 74t-30 44.5t-48.5 19t-77.5 4t-79.5 -6t-51 -28t-30 -63.5t-7.5 -114.5z" />
    <glyph glyph-name="edieresis" unicode="&#xeb;" horiz-adv-x="525" 
d="M120 644q0 12 8 20t20 8t20.5 -8t8.5 -20t-8.5 -20.5t-20.5 -8.5t-20 8.5t-8 20.5zM374 644q0 12 8.5 20t20.5 8t20.5 -8t8.5 -20t-8.5 -20.5t-20.5 -8.5t-20.5 8.5t-8.5 20.5zM62 268q0 88 11 141t38.5 81t63.5 36.5t85 8.5t71.5 -2t48.5 -8t41.5 -18.5t28.5 -32.5
q26 -38 26 -127q0 -57 -33.5 -81t-102.5 -24h-237q0 -85 17 -131.5t43.5 -60.5t72.5 -14q114 0 230 17v-30q-98 -28 -214 -28h-16q-100 1 -137 60.5t-37 212.5zM103 282h237q46 0 70.5 13t24.5 57.5t-8 74t-30 44.5t-48.5 19t-77.5 4t-79.5 -6t-51 -28t-30 -63.5
t-7.5 -114.5z" />
    <glyph glyph-name="igrave" unicode="&#xec;" horiz-adv-x="188" 
d="M-55 729h49l116 -133h-32zM74 0v531h41v-531h-41z" />
    <glyph glyph-name="iacute" unicode="&#xed;" horiz-adv-x="188" 
d="M78 596l116 133h49l-133 -133h-32zM74 0v531h41v-531h-41z" />
    <glyph glyph-name="icircumflex" unicode="&#xee;" horiz-adv-x="188" 
d="M-45 596l127 130h37l115 -130h-36l-98 100l-109 -100h-36zM74 0v531h41v-531h-41z" />
    <glyph glyph-name="idieresis" unicode="&#xef;" horiz-adv-x="188" 
d="M-61 625q0 12 8 20t20 8t20.5 -8t8.5 -20t-8.5 -20.5t-20.5 -8.5t-20 8.5t-8 20.5zM193 625q0 12 8.5 20t20.5 8t20.5 -8t8.5 -20t-8.5 -20.5t-20.5 -8.5t-20.5 8.5t-8.5 20.5zM74 0v531h41v-531h-41z" />
    <glyph glyph-name="eth" unicode="&#xf0;" horiz-adv-x="539" 
d="M88 62.5q-39 62.5 -39 199t40.5 203t137.5 66.5h80q40 0 73.5 -16.5t43.5 -32.5q-28 125 -93 190l-155 -62l-12 29l139 56q-69 52 -170 52v36q130 0 213 -72l124 49l13 -29l-112 -44q116 -130 116 -423q0 -142 -47 -203t-133 -61h-80q-100 0 -139 62.5zM99.5 379
q-9.5 -46 -9.5 -116t9 -115t28.5 -67.5t42 -30t57.5 -7.5h80q78 0 108.5 57.5t30.5 163.5q0 103 -23 158q-28 68 -116 68h-80q-33 0 -56 -9t-42.5 -32.5t-29 -69.5z" />
    <glyph glyph-name="ntilde" unicode="&#xf1;" 
d="M286.5 663.5q41.5 -29.5 52.5 -29.5t20.5 2.5t16.5 5.5t17.5 9t14.5 9q21 17 30 21l12 -19q-24 -22 -35 -31t-33 -20t-44 -10.5t-61.5 30t-54.5 29.5t-29 -4.5t-22 -9t-24.5 -15.5t-24.5 -16l-10 19q24 20 37 30q37 30 73 30q23 -1 64.5 -30.5zM74 0v531h27l14 -62
q113 71 209 71q76 0 120 -50t44 -120v-370h-41v370q0 57 -33.5 93t-91 36t-101 -13.5t-106.5 -46.5v-439h-41z" />
    <glyph glyph-name="ograve" unicode="&#xf2;" horiz-adv-x="571" 
d="M140 729h49l116 -133h-32zM108.5 53.5q-46.5 58.5 -46.5 211.5t49 212t175.5 59t175 -63.5t48.5 -212.5t-48.5 -207t-177.5 -58t-175.5 58.5zM114 386.5q-11 -48.5 -11 -125t11 -122t36.5 -67.5t55 -29t79.5 -7t80.5 7.5t56.5 30.5q47 43 47 184q0 152 -47 197
q-26 24 -56.5 32t-80.5 8t-79 -6.5t-55 -30t-37 -72z" />
    <glyph glyph-name="oacute" unicode="&#xf3;" horiz-adv-x="571" 
d="M269 596l116 133h49l-133 -133h-32zM108.5 53.5q-46.5 58.5 -46.5 211.5t49 212t175.5 59t175 -63.5t48.5 -212.5t-48.5 -207t-177.5 -58t-175.5 58.5zM114 386.5q-11 -48.5 -11 -125t11 -122t36.5 -67.5t55 -29t79.5 -7t80.5 7.5t56.5 30.5q47 43 47 184q0 152 -47 197
q-26 24 -56.5 32t-80.5 8t-79 -6.5t-55 -30t-37 -72z" />
    <glyph glyph-name="ocircumflex" unicode="&#xf4;" horiz-adv-x="571" 
d="M148 596l127 130h37l115 -130h-36l-98 100l-109 -100h-36zM108.5 53.5q-46.5 58.5 -46.5 211.5t49 212t175.5 59t175 -63.5t48.5 -212.5t-48.5 -207t-177.5 -58t-175.5 58.5zM114 386.5q-11 -48.5 -11 -125t11 -122t36.5 -67.5t55 -29t79.5 -7t80.5 7.5t56.5 30.5
q47 43 47 184q0 152 -47 197q-26 24 -56.5 32t-80.5 8t-79 -6.5t-55 -30t-37 -72z" />
    <glyph glyph-name="otilde" unicode="&#xf5;" horiz-adv-x="571" 
d="M294.5 659.5q41.5 -29.5 52.5 -29.5t20.5 2.5t16.5 5.5t17.5 9t14.5 9q21 17 30 21l12 -19q-24 -22 -35 -31t-33 -20t-44 -10.5t-61.5 30t-54.5 29.5t-29 -4.5t-22 -9t-24.5 -15.5t-24.5 -16l-10 19q24 20 37 30q37 30 73 30q23 -1 64.5 -30.5zM108.5 53.5
q-46.5 58.5 -46.5 211.5t49 212t175.5 59t175 -63.5t48.5 -212.5t-48.5 -207t-177.5 -58t-175.5 58.5zM114 386.5q-11 -48.5 -11 -125t11 -122t36.5 -67.5t55 -29t79.5 -7t80.5 7.5t56.5 30.5q47 43 47 184q0 152 -47 197q-26 24 -56.5 32t-80.5 8t-79 -6.5t-55 -30t-37 -72
z" />
    <glyph glyph-name="odieresis" unicode="&#xf6;" horiz-adv-x="571" 
d="M130 625q0 12 8 20t20 8t20.5 -8t8.5 -20t-8.5 -20.5t-20.5 -8.5t-20 8.5t-8 20.5zM384 625q0 12 8.5 20t20.5 8t20.5 -8t8.5 -20t-8.5 -20.5t-20.5 -8.5t-20.5 8.5t-8.5 20.5zM108.5 53.5q-46.5 58.5 -46.5 211.5t49 212t175.5 59t175 -63.5t48.5 -212.5t-48.5 -207
t-177.5 -58t-175.5 58.5zM114 386.5q-11 -48.5 -11 -125t11 -122t36.5 -67.5t55 -29t79.5 -7t80.5 7.5t56.5 30.5q47 43 47 184q0 152 -47 197q-26 24 -56.5 32t-80.5 8t-79 -6.5t-55 -30t-37 -72z" />
    <glyph glyph-name="divide" unicode="&#xf7;" horiz-adv-x="539" 
d="M62 332v42h416v-42h-416zM245 164v46q0 16 16 16h24q16 0 16 -16v-46q0 -16 -16 -16h-24q-16 0 -16 16zM245 487v46q0 17 16 17h24q16 0 16 -17v-46q0 -16 -16 -16h-24q-16 0 -16 16z" />
    <glyph glyph-name="oslash" unicode="&#xf8;" horiz-adv-x="571" 
d="M108 54q-46 55 -46 209.5t49 213.5t174 59q102 0 151 -39l25 34h34l-39 -52q54 -61 54 -214.5t-48.5 -211.5t-166 -58t-168.5 41l-26 -36h-32zM135 91l276 373q-37 31 -126 31q-40 0 -64.5 -4t-49.5 -17t-38 -38q-30 -59 -30 -178t32 -167zM285 36q50 0 80.5 7.5
t56.5 30.5q47 41 47 179.5t-38 191.5l-278 -375q38 -34 132 -34z" />
    <glyph glyph-name="ugrave" unicode="&#xf9;" 
d="M123 729h49l116 -133h-32zM62 162v370h41v-370q0 -57 33.5 -93t91.5 -36t101.5 13.5t105.5 45.5v440h41v-531h-27l-14 62q-113 -71 -209 -71q-76 0 -120 50t-44 120z" />
    <glyph glyph-name="uacute" unicode="&#xfa;" 
d="M253 596l116 133h49l-133 -133h-32zM62 162v370h41v-370q0 -57 33.5 -93t91.5 -36t101.5 13.5t105.5 45.5v440h41v-531h-27l-14 62q-113 -71 -209 -71q-76 0 -120 50t-44 120z" />
    <glyph glyph-name="ucircumflex" unicode="&#xfb;" 
d="M130 596l127 130h37l115 -130h-36l-98 100l-109 -100h-36zM62 162v370h41v-370q0 -57 33.5 -93t91.5 -36t101.5 13.5t105.5 45.5v440h41v-531h-27l-14 62q-113 -71 -209 -71q-76 0 -120 50t-44 120z" />
    <glyph glyph-name="udieresis" unicode="&#xfc;" 
d="M113 625q0 12 8 20t20 8t20.5 -8t8.5 -20t-8.5 -20.5t-20.5 -8.5t-20 8.5t-8 20.5zM367 625q0 12 8.5 20t20.5 8t20.5 -8t8.5 -20t-8.5 -20.5t-20.5 -8.5t-20.5 8.5t-8.5 20.5zM62 162v370h41v-370q0 -57 33.5 -93t91.5 -36t101.5 13.5t105.5 45.5v440h41v-531h-27
l-14 62q-113 -71 -209 -71q-76 0 -120 50t-44 120z" />
    <glyph glyph-name="yacute" unicode="&#xfd;" horiz-adv-x="537" 
d="M252 596l116 133h49l-133 -133h-32zM26 531h44l142 -415q26 -72 78 -74l11 1l165 488h44l-233 -699l-56 -102h-24l90 270q-85 4 -118 110z" />
    <glyph glyph-name="thorn" unicode="&#xfe;" horiz-adv-x="559" 
d="M86 -270v1052h41v-311q25 18 94 43.5t116.5 25.5t83 -23t53.5 -63q36 -77 36 -187q0 -153 -46 -219q-18 -25 -51 -41.5t-74.5 -16.5t-104.5 10.5t-107 28.5v-299h-41zM437.5 86q31.5 55 31.5 176t-36 179t-100 57.5t-206 -55.5v-384q94 -26 209 -28q70 0 101.5 55z" />
    <glyph glyph-name="ydieresis" unicode="&#xff;" horiz-adv-x="537" 
d="M112 625q0 12 8 20t20 8t20.5 -8t8.5 -20t-8.5 -20.5t-20.5 -8.5t-20 8.5t-8 20.5zM366 625q0 12 8.5 20t20.5 8t20.5 -8t8.5 -20t-8.5 -20.5t-20.5 -8.5t-20.5 8.5t-8.5 20.5zM26 531h44l142 -415q26 -72 78 -74l11 1l165 488h44l-233 -699l-56 -102h-24l90 270
q-85 4 -118 110z" />
    <glyph glyph-name="Amacron" unicode="&#x100;" horiz-adv-x="662" 
d="M219 797v31h265v-31h-265zM56 0l272 732h47l261 -732h-47l-82 236h-319l-84 -236h-48zM203 277h289l-141 401z" />
    <glyph glyph-name="amacron" unicode="&#x101;" horiz-adv-x="519" 
d="M135 601v31h265v-31h-265zM66 510q119 31 242 31q65 0 107.5 -38t42.5 -116v-387h-28l-13 64l-15 -7q-96 -43 -144.5 -53t-75.5 -10q-57 0 -95 35t-38 97v61q0 62 35.5 97.5t97.5 35.5h176.5h58.5q1 33 1 49.5t-1 17.5q0 114 -113 115h-8q-81 0 -230 -19v27zM90 131
q0 -50 27 -72.5t64 -23t95.5 13.5t99.5 29l41 14v199l-235 -12q-92 -4 -92 -94v-54z" />
    <glyph glyph-name="Abreve" unicode="&#x102;" horiz-adv-x="662" 
d="M242 911h25q0 -38 26 -63.5t60 -25.5q42 0 68 25t26 64h25q0 -53 -35.5 -83.5t-80 -30.5t-79.5 31.5t-35 82.5zM56 0l272 732h47l261 -732h-47l-82 236h-319l-84 -236h-48zM203 277h289l-141 401z" />
    <glyph glyph-name="abreve" unicode="&#x103;" horiz-adv-x="519" 
d="M156 715h25q0 -38 26 -63.5t60 -25.5q42 0 68 25t26 64h25q0 -53 -35.5 -83.5t-80 -30.5t-79.5 31.5t-35 82.5zM66 510q119 31 242 31q65 0 107.5 -38t42.5 -116v-387h-28l-13 64l-15 -7q-96 -43 -144.5 -53t-75.5 -10q-57 0 -95 35t-38 97v61q0 62 35.5 97.5t97.5 35.5
h176.5h58.5q1 33 1 49.5t-1 17.5q0 114 -113 115h-8q-81 0 -230 -19v27zM90 131q0 -50 27 -72.5t64 -23t95.5 13.5t99.5 29l41 14v199l-235 -12q-92 -4 -92 -94v-54z" />
    <glyph glyph-name="Aogonek" unicode="&#x104;" horiz-adv-x="662" 
d="M624 0q-71 -37 -71 -92q0 -16 15 -32q24 -27 78 -27v-30q-10 -1 -30 -1t-49.5 16t-41.5 45q-5 11 -5 27t12 36q18 35 71 58h21zM56 0l272 732h47l261 -732h-47l-82 236h-319l-84 -236h-48zM203 277h289l-141 401z" />
    <glyph glyph-name="aogonek" unicode="&#x105;" horiz-adv-x="546" 
d="M468 0q-71 -37 -71 -92q0 -16 15 -32q24 -27 78 -27v-30q-10 -1 -30 -1t-49.5 16t-41.5 45q-5 11 -5 27t12 36q18 35 71 58h21zM79 510q119 31 242 31q65 0 107.5 -38t42.5 -116v-387h-28l-13 64l-16 -7q-95 -43 -143.5 -53t-75.5 -10q-57 0 -95 35t-38 97v61
q0 62 35.5 97.5t97.5 35.5h176h59v49.5v17.5q0 114 -113 115h-8q-81 0 -230 -19v27zM103 131q0 -50 27 -72.5t64 -23t95.5 13.5t99.5 29l41 14v199l-235 -12q-92 -4 -92 -94v-54z" />
    <glyph glyph-name="Cacute" unicode="&#x106;" horiz-adv-x="572" 
d="M310 800l116 133h49l-133 -133h-32zM68 368q0 230 70 308q58 64 173 64q95 0 224 -24v-30q-16 1 -29 2.5t-30.5 2.5t-38 2.5t-41.5 2.5q-35 3 -97 3t-104 -27q-86 -57 -86 -306q0 -331 203 -331q93 0 190 7l33 3v-29q-118 -22 -224 -22q-243 0 -243 374z" />
    <glyph glyph-name="cacute" unicode="&#x107;" horiz-adv-x="500" 
d="M255 597l116 133h49l-133 -133h-32zM62 266q0 84 12 139.5t37 83t54 37.5t93.5 10t185.5 -26v-28q-119 13 -180.5 13t-83 -7.5t-40.5 -31.5q-37 -45 -37 -194q0 -91 17.5 -142t44.5 -67.5t69 -16.5q84 0 184 14l34 4v-30q-97 -28 -216 -29q-41 0 -69.5 10t-54 37.5
t-38 83.5t-12.5 140z" />
    <glyph glyph-name="Ccircumflex" unicode="&#x108;" horiz-adv-x="572" 
d="M193 800l127 130h37l115 -130h-36l-98 100l-109 -100h-36zM68 368q0 230 70 308q58 64 173 64q95 0 224 -24v-30q-16 1 -29 2.5t-30.5 2.5t-38 2.5t-41.5 2.5q-35 3 -97 3t-104 -27q-86 -57 -86 -306q0 -331 203 -331q93 0 190 7l33 3v-29q-118 -22 -224 -22
q-243 0 -243 374z" />
    <glyph glyph-name="ccircumflex" unicode="&#x109;" horiz-adv-x="500" 
d="M134 597l127 130h37l115 -130h-36l-98 100l-109 -100h-36zM62 266q0 84 12 139.5t37 83t54 37.5t93.5 10t185.5 -26v-28q-119 13 -180.5 13t-83 -7.5t-40.5 -31.5q-37 -45 -37 -194q0 -91 17.5 -142t44.5 -67.5t69 -16.5q84 0 184 14l34 4v-30q-97 -28 -216 -29
q-41 0 -69.5 10t-54 37.5t-38 83.5t-12.5 140z" />
    <glyph glyph-name="Cdotaccent" unicode="&#x10a;" horiz-adv-x="572" 
d="M316 817v59q0 16 16 16h24q16 0 16 -16v-59q0 -16 -16 -16h-24q-16 0 -16 16zM68 368q0 230 70 308q58 64 173 64q95 0 224 -24v-30q-16 1 -29 2.5t-30.5 2.5t-38 2.5t-41.5 2.5q-35 3 -97 3t-104 -27q-86 -57 -86 -306q0 -331 203 -331q93 0 190 7l33 3v-29
q-118 -22 -224 -22q-243 0 -243 374z" />
    <glyph glyph-name="cdotaccent" unicode="&#x10b;" horiz-adv-x="500" 
d="M254 614v59q0 16 16 16h24q16 0 16 -16v-59q0 -16 -16 -16h-24q-16 0 -16 16zM62 266q0 84 12 139.5t37 83t54 37.5t93.5 10t185.5 -26v-28q-119 13 -180.5 13t-83 -7.5t-40.5 -31.5q-37 -45 -37 -194q0 -91 17.5 -142t44.5 -67.5t69 -16.5q84 0 184 14l34 4v-30
q-97 -28 -216 -29q-41 0 -69.5 10t-54 37.5t-38 83.5t-12.5 140z" />
    <glyph glyph-name="Ccaron" unicode="&#x10c;" horiz-adv-x="572" 
d="M198 930h35l102 -100l106 100h36l-123 -130h-38zM68 368q0 230 70 308q58 64 173 64q95 0 224 -24v-30q-16 1 -29 2.5t-30.5 2.5t-38 2.5t-41.5 2.5q-35 3 -97 3t-104 -27q-86 -57 -86 -306q0 -331 203 -331q93 0 190 7l33 3v-29q-118 -22 -224 -22q-243 0 -243 374z" />
    <glyph glyph-name="ccaron" unicode="&#x10d;" horiz-adv-x="500" 
d="M140 727h35l102 -100l106 100h36l-123 -130h-38zM62 266q0 84 12 139.5t37 83t54 37.5t93.5 10t185.5 -26v-28q-119 13 -180.5 13t-83 -7.5t-40.5 -31.5q-37 -45 -37 -194q0 -91 17.5 -142t44.5 -67.5t69 -16.5q84 0 184 14l34 4v-30q-97 -28 -216 -29q-41 0 -69.5 10
t-54 37.5t-38 83.5t-12.5 140z" />
    <glyph glyph-name="Dcaron" unicode="&#x10e;" horiz-adv-x="666" 
d="M204 922h35l102 -100l106 100h36l-123 -130h-38zM98 0v732h260q65 0 113.5 -24.5t75.5 -61.5t43 -89q27 -84 27 -172t-14.5 -149.5t-44 -115.5t-81.5 -87t-119 -33h-260zM139 42h219q73 0 124 50q94 92 94 272q0 327 -218 327h-219v-649z" />
    <glyph glyph-name="dcaron" unicode="&#x10f;" horiz-adv-x="552" 
d="M62 263q0 276 181 276q37 0 94.5 -11t102.5 -29v286h39v-785h-27l-13 59q-23 -19 -86 -42t-112.5 -23t-86.5 24t-56 66q-36 78 -36 179zM140 447.5q-37 -50.5 -37 -176t38.5 -181t101.5 -55.5q86 0 196 52v382q-111 29 -196 29q-66 0 -103 -50.5zM537 737l26 44l16 -22
l-4 -90l-22 -89l-11 46z" />
    <glyph glyph-name="Dcroat" unicode="&#x110;" horiz-adv-x="666" 
d="M33 359v28h65v345h254q65 0 113.5 -24.5t75.5 -61.5t43 -89q27 -84 27 -172t-14.5 -149.5t-44 -115.5t-81.5 -87t-119 -33h-254v359h-65zM139 42h213q56 0 99 29t68 77q50 94 50 216q0 165 -56.5 245t-160.5 80h-213v-302h153v-28h-153v-317z" />
    <glyph glyph-name="dcroat" unicode="&#x111;" horiz-adv-x="552" 
d="M62 263q0 276 181 276q37 0 94.5 -11t102.5 -29v133h-128v28h128v125h39v-125h80v-28h-80v-632h-26l-14 59q-23 -19 -86 -42t-112.5 -23t-86.5 24t-56 66q-36 78 -36 179zM140.5 447q-37.5 -51 -37.5 -174.5t39 -180.5t101 -57q86 0 196 52v382q-111 29 -196 29
q-65 0 -102.5 -51z" />
    <glyph glyph-name="Emacron" unicode="&#x112;" horiz-adv-x="576" 
d="M196 795v31h265v-31h-265zM98 123v479q0 69 35 99.5t85 30.5h6l304 -12v-29h-304q-85 0 -85 -89v-218l349 -7v-29l-349 -7v-218q0 -57 31 -73q25 -12 64 -12h294v-29l-294 -12h-19t-32.5 3.5t-40.5 15.5q-44 25 -44 107z" />
    <glyph glyph-name="emacron" unicode="&#x113;" horiz-adv-x="525" 
d="M139 596v31h265v-31h-265zM62 268q0 88 11 141t38.5 81t63.5 36.5t85 8.5t71.5 -2t48.5 -8t41.5 -18.5t28.5 -32.5q26 -38 26 -127q0 -57 -33.5 -81t-102.5 -24h-237q0 -85 17 -131.5t43.5 -60.5t72.5 -14q114 0 230 17v-30q-98 -28 -214 -28h-16q-100 1 -137 60.5
t-37 212.5zM103 282h237q46 0 70.5 13t24.5 57.5t-8 74t-30 44.5t-48.5 19t-77.5 4t-79.5 -6t-51 -28t-30 -63.5t-7.5 -114.5z" />
    <glyph glyph-name="Edotaccent" unicode="&#x116;" horiz-adv-x="576" 
d="M302 812v59q0 16 16 16h24q16 0 16 -16v-59q0 -16 -16 -16h-24q-16 0 -16 16zM98 123v479q0 69 35 99.5t85 30.5h6l304 -12v-29h-304q-85 0 -85 -89v-218l349 -7v-29l-349 -7v-218q0 -57 31 -73q25 -12 64 -12h294v-29l-294 -12h-19t-32.5 3.5t-40.5 15.5q-44 25 -44 107
z" />
    <glyph glyph-name="edotaccent" unicode="&#x117;" horiz-adv-x="525" 
d="M256 612v59q0 16 16 16h24q16 0 16 -16v-59q0 -16 -16 -16h-24q-16 0 -16 16zM62 268q0 88 11 141t38.5 81t63.5 36.5t85 8.5t71.5 -2t48.5 -8t41.5 -18.5t28.5 -32.5q26 -38 26 -127q0 -57 -33.5 -81t-102.5 -24h-237q0 -85 17 -131.5t43.5 -60.5t72.5 -14q114 0 230 17
v-30q-98 -28 -214 -28h-16q-100 1 -137 60.5t-37 212.5zM103 282h237q46 0 70.5 13t24.5 57.5t-8 74t-30 44.5t-48.5 19t-77.5 4t-79.5 -6t-51 -28t-30 -63.5t-7.5 -114.5z" />
    <glyph glyph-name="Eogonek" unicode="&#x118;" horiz-adv-x="576" 
d="M528 10q-71 -37 -71 -92q0 -16 15 -32q24 -27 78 -27v-30q-10 -1 -30 -1t-49.5 16t-41.5 45q-5 11 -5 27t12 36q18 35 71 58h21zM98 123v479q0 69 35 99.5t85 30.5h6l304 -12v-29h-304q-85 0 -85 -89v-218l349 -7v-29l-349 -7v-218q0 -57 31 -73q25 -12 64 -12h294v-29
l-294 -12h-19t-32.5 3.5t-40.5 15.5q-44 25 -44 107z" />
    <glyph glyph-name="eogonek" unicode="&#x119;" horiz-adv-x="525" 
d="M466 23q-71 -37 -71 -92q0 -16 15 -33q24 -26 78 -26v-30q-10 -1 -30 -1t-49.5 16t-41.5 45q-5 11 -5 27t12 37q18 34 71 57h21zM62 268q0 88 11 141t38.5 81t63.5 36.5t85 8.5t71.5 -2t48.5 -8t41.5 -18.5t28.5 -32.5q26 -38 26 -127q0 -57 -33.5 -81t-102.5 -24h-237
q0 -85 17 -131.5t43.5 -60.5t72.5 -14q114 0 230 17v-30q-98 -28 -214 -28h-16q-100 1 -137 60.5t-37 212.5zM103 282h237q46 0 70.5 13t24.5 57.5t-8 74t-30 44.5t-48.5 19t-77.5 4t-79.5 -6t-51 -28t-30 -63.5t-7.5 -114.5z" />
    <glyph glyph-name="Ecaron" unicode="&#x11a;" horiz-adv-x="576" 
d="M193 922h35l102 -100l106 100h36l-123 -130h-38zM98 123v479q0 69 35 99.5t85 30.5h6l304 -12v-29h-304q-85 0 -85 -89v-218l349 -7v-29l-349 -7v-218q0 -57 31 -73q25 -12 64 -12h294v-29l-294 -12h-19t-32.5 3.5t-40.5 15.5q-44 25 -44 107z" />
    <glyph glyph-name="ecaron" unicode="&#x11b;" horiz-adv-x="525" 
d="M145 724h35l102 -100l106 100h36l-123 -130h-38zM62 268q0 88 11 141t38.5 81t63.5 36.5t85 8.5t71.5 -2t48.5 -8t41.5 -18.5t28.5 -32.5q26 -38 26 -127q0 -57 -33.5 -81t-102.5 -24h-237q0 -85 17 -131.5t43.5 -60.5t72.5 -14q114 0 230 17v-30q-98 -28 -214 -28h-16
q-100 1 -137 60.5t-37 212.5zM103 282h237q46 0 70.5 13t24.5 57.5t-8 74t-30 44.5t-48.5 19t-77.5 4t-79.5 -6t-51 -28t-30 -63.5t-7.5 -114.5z" />
    <glyph glyph-name="Gcircumflex" unicode="&#x11c;" horiz-adv-x="617" 
d="M191 800l127 130h37l115 -130h-36l-98 100l-109 -100h-36zM71.5 250q-3.5 49 -3.5 118.5t4 118t17.5 99.5t37 82.5t65 51.5t90 20t128 -8.5t132.5 -18.5v-33q-1 0 -18.5 2t-45 5t-58.5 5q-82 7 -128.5 7t-79 -14.5t-52.5 -40.5t-32 -68q-19 -73 -19 -208
q0 -184 39.5 -257.5t147.5 -74.5q34 0 89.5 12t93.5 24l38 12v263h-198v26q58 16 171 16q32 0 68 -3v-386h-28l-11 52q-34 -19 -98.5 -38t-124.5 -19h-6q-56 0 -98 19.5t-66 50.5t-37.5 83.5t-17 101.5z" />
    <glyph glyph-name="gcircumflex" unicode="&#x11d;" horiz-adv-x="566" 
d="M141 597l127 130h37l115 -130h-36l-98 100l-109 -100h-36zM77 67q-18 17 -18 47.5t19.5 52.5t56.5 24q-77 36 -77 153q0 97 42 143t130 46h312v-28l-101 -13q37 -36 46 -85q5 -28 5 -56t-3.5 -49t-14 -46.5t-28 -45t-48 -32.5t-71.5 -13h-156q-46 0 -64 -22
q-9 -11 -9 -30.5t21.5 -32t45.5 -12.5h208q67 0 103.5 -36.5t36.5 -97.5v-57q0 -147 -150 -147h-150q-98 0 -137 70q-20 35 -20 84v91zM167 28q-42 0 -70 22v-166q0 -35 12 -59t32 -35q35 -20 72 -20h150q110 0 110 107v55q0 96 -104 96h-202zM98 339q0 -39 14 -69
q29 -64 111 -64h101q80 0 111 61q17 33 17 78.5t-13 80.5q-25 66 -87 66h-129q-73 0 -100 -43q-25 -38 -25 -110z" />
    <glyph glyph-name="Gbreve" unicode="&#x11e;" horiz-adv-x="617" 
d="M225 914h25q0 -38 26 -63.5t60 -25.5q42 0 68 25t26 64h25q0 -53 -35.5 -83.5t-80 -30.5t-79.5 31.5t-35 82.5zM71.5 250q-3.5 49 -3.5 118.5t4 118t17.5 99.5t37 82.5t65 51.5t90 20t128 -8.5t132.5 -18.5v-33q-1 0 -18.5 2t-45 5t-58.5 5q-82 7 -128.5 7t-79 -14.5
t-52.5 -40.5t-32 -68q-19 -73 -19 -208q0 -184 39.5 -257.5t147.5 -74.5q34 0 89.5 12t93.5 24l38 12v263h-198v26q58 16 171 16q32 0 68 -3v-386h-28l-11 52q-34 -19 -98.5 -38t-124.5 -19h-6q-56 0 -98 19.5t-66 50.5t-37.5 83.5t-17 101.5z" />
    <glyph glyph-name="gbreve" unicode="&#x11f;" horiz-adv-x="566" 
d="M162 710h25q0 -38 26 -63.5t60 -25.5q42 0 68 25t26 64h25q0 -53 -35.5 -83.5t-80 -30.5t-79.5 31.5t-35 82.5zM77 67q-18 17 -18 47.5t19.5 52.5t56.5 24q-77 36 -77 153q0 97 42 143t130 46h312v-28l-101 -13q37 -36 46 -85q5 -28 5 -56t-3.5 -49t-14 -46.5t-28 -45
t-48 -32.5t-71.5 -13h-156q-46 0 -64 -22q-9 -11 -9 -30.5t21.5 -32t45.5 -12.5h208q67 0 103.5 -36.5t36.5 -97.5v-57q0 -147 -150 -147h-150q-98 0 -137 70q-20 35 -20 84v91zM167 28q-42 0 -70 22v-166q0 -35 12 -59t32 -35q35 -20 72 -20h150q110 0 110 107v55
q0 96 -104 96h-202zM98 339q0 -39 14 -69q29 -64 111 -64h101q80 0 111 61q17 33 17 78.5t-13 80.5q-25 66 -87 66h-129q-73 0 -100 -43q-25 -38 -25 -110z" />
    <glyph glyph-name="Gdotaccent" unicode="&#x120;" horiz-adv-x="617" 
d="M309 816v59q0 16 16 16h24q16 0 16 -16v-59q0 -16 -16 -16h-24q-16 0 -16 16zM71.5 250q-3.5 49 -3.5 118.5t4 118t17.5 99.5t37 82.5t65 51.5t90 20t128 -8.5t132.5 -18.5v-33q-1 0 -18.5 2t-45 5t-58.5 5q-82 7 -128.5 7t-79 -14.5t-52.5 -40.5t-32 -68
q-19 -73 -19 -208q0 -184 39.5 -257.5t147.5 -74.5q34 0 89.5 12t93.5 24l38 12v263h-198v26q58 16 171 16q32 0 68 -3v-386h-28l-11 52q-34 -19 -98.5 -38t-124.5 -19h-6q-56 0 -98 19.5t-66 50.5t-37.5 83.5t-17 101.5z" />
    <glyph glyph-name="gdotaccent" unicode="&#x121;" horiz-adv-x="566" 
d="M256 613v59q0 16 16 16h24q16 0 16 -16v-59q0 -16 -16 -16h-24q-16 0 -16 16zM77 67q-18 17 -18 47.5t19.5 52.5t56.5 24q-77 36 -77 153q0 97 42 143t130 46h312v-28l-101 -13q37 -36 46 -85q5 -28 5 -56t-3.5 -49t-14 -46.5t-28 -45t-48 -32.5t-71.5 -13h-156
q-46 0 -64 -22q-9 -11 -9 -30.5t21.5 -32t45.5 -12.5h208q67 0 103.5 -36.5t36.5 -97.5v-57q0 -147 -150 -147h-150q-98 0 -137 70q-20 35 -20 84v91zM167 28q-42 0 -70 22v-166q0 -35 12 -59t32 -35q35 -20 72 -20h150q110 0 110 107v55q0 96 -104 96h-202zM98 339
q0 -39 14 -69q29 -64 111 -64h101q80 0 111 61q17 33 17 78.5t-13 80.5q-25 66 -87 66h-129q-73 0 -100 -43q-25 -38 -25 -110z" />
    <glyph glyph-name="Gcommaaccent" unicode="&#x122;" horiz-adv-x="617" 
d="M302 -135v53q0 17 15 17h21q15 0 15 -17v-93q0 -24 -11.5 -34t-22.5 -10h-3l-12 1v14q20 0 20 18v36h-7q-15 0 -15 15zM71.5 250q-3.5 49 -3.5 118.5t4 118t17.5 99.5t37 82.5t65 51.5t90 20t128 -8.5t132.5 -18.5v-33q-1 0 -18.5 2t-45 5t-58.5 5q-82 7 -128.5 7
t-79 -14.5t-52.5 -40.5t-32 -68q-19 -73 -19 -208q0 -184 39.5 -257.5t147.5 -74.5q34 0 89.5 12t93.5 24l38 12v263h-198v26q58 16 171 16q32 0 68 -3v-386h-28l-11 52q-34 -19 -98.5 -38t-124.5 -19h-6q-56 0 -98 19.5t-66 50.5t-37.5 83.5t-17 101.5z" />
    <glyph glyph-name="gcommaaccent" unicode="&#x123;" horiz-adv-x="565" 
d="M257 608v94q0 24 11.5 34t21.5 10h3l12 -2v-13q-19 0 -19 -19v-35h7q15 0 15 -16v-53q0 -16 -15 -16h-21q-15 0 -15 16zM77 65q-20 18 -20 49.5t20.5 53t57.5 23.5q-77 35 -77 153q0 97 42.5 143t129.5 46h312v-28l-101 -13q14 -14 21.5 -23.5t18.5 -44t11 -68
t-3.5 -54.5t-14 -46.5t-28 -45t-48.5 -32.5t-71 -13h-156q-46 0 -63 -21q-9 -11 -9 -26q0 -40 72 -50l197 -25q64 -8 104.5 -39.5t40.5 -86.5v-33q0 -54 -25 -98q-15 -26 -47 -41t-78 -15h-150q-72 0 -114.5 40t-42.5 114v91zM97 -116q0 -70 44 -94q35 -19 72 -19h150
q51 0 80 28t29 85v28q0 76 -108 90l-193 26q-41 6 -65 18l-9 5v-167zM126 453q-27 -39 -27 -107t31.5 -104t92.5 -36h101q67 0 97 40t30 105t-26.5 103t-72.5 38h-129q-70 0 -97 -39z" />
    <glyph glyph-name="Hcircumflex" unicode="&#x124;" horiz-adv-x="655" 
d="M205 797l127 130h37l115 -130h-36l-98 100l-109 -100h-36zM98 0v732h41v-358h410v358h41v-732h-41v334h-410v-334h-41z" />
    <glyph glyph-name="hcircumflex" unicode="&#x125;" 
d="M-35 844l127 130h37l115 -130h-36l-98 100l-109 -100h-36zM87 0v784h41v-315q113 71 209 71q76 0 120 -50t44 -120v-370h-41v370q0 59 -33 94t-91 35t-101.5 -13.5t-106.5 -46.5v-439h-41z" />
    <glyph glyph-name="Hbar" unicode="&#x126;" horiz-adv-x="661" 
d="M35 530v28h63v174h41v-174h410v174h41v-174h63v-28h-63v-530h-41v334h-410v-334h-41v530h-63zM139 374h410v156h-410v-156z" />
    <glyph glyph-name="hbar" unicode="&#x127;" 
d="M1 624v27h73v133h42v-133h140v-27h-140v-155q113 71 211 71h3q73 0 115.5 -49.5t42.5 -119.5v-371h-42v370q-1 59 -33 94.5t-89 35t-102 -14.5t-106 -46v-439h-42v624h-73z" />
    <glyph glyph-name="Itilde" unicode="&#x128;" horiz-adv-x="204" 
d="M124.5 860.5q41.5 -29.5 52.5 -29.5t20.5 2.5t16.5 5.5t17.5 9t14.5 10q21 16 30 20l12 -19q-24 -22 -35 -31t-33 -20t-44 -10.5t-61.5 30t-54.5 29.5t-29 -4.5t-22 -9t-24.5 -15.5t-24.5 -16l-10 19q24 20 37 31q37 29 73 29q23 -1 64.5 -30.5zM98 0v732h41v-732h-41z
" />
    <glyph glyph-name="itilde" unicode="&#x129;" horiz-adv-x="188" 
d="M99.5 659.5q41.5 -29.5 52.5 -29.5t20.5 2.5t16.5 5.5t17.5 9t15.5 9q20 17 29 21l12 -19q-24 -22 -35 -31t-33 -20t-44 -10.5t-61.5 30t-54.5 29.5t-29 -4.5t-22 -9t-24.5 -15.5t-24.5 -16l-10 19q24 20 37 30q37 30 73 30q23 -1 64.5 -30.5zM74 0v531h41v-531h-41z" />
    <glyph glyph-name="Imacron" unicode="&#x12a;" horiz-adv-x="204" 
d="M-14 797v31h265v-31h-265zM98 0v732h41v-732h-41z" />
    <glyph glyph-name="imacron" unicode="&#x12b;" horiz-adv-x="188" 
d="M-38 596v31h265v-31h-265zM74 0v531h41v-531h-41z" />
    <glyph glyph-name="Iogonek" unicode="&#x12e;" horiz-adv-x="204" 
d="M131 0q-71 -37 -71 -92q0 -16 15 -32q24 -27 78 -27v-30q-10 -1 -30 -1t-49.5 16t-41.5 45q-5 11 -5 27t11 36q19 35 72 58h21zM98 0v732h41v-732h-41z" />
    <glyph glyph-name="iogonek" unicode="&#x12f;" horiz-adv-x="179" 
d="M114 0q-71 -37 -71 -92q0 -16 15 -32q24 -27 78 -27v-30q-10 -1 -30 -1t-49.5 16t-41.5 45q-5 11 -5 27t12 36q18 35 71 58h21zM75 620v60q0 16 16 16h24q15 0 15 -16v-60q0 -15 -15 -15h-24q-16 0 -16 15zM81 0v531h41v-531h-41z" />
    <glyph glyph-name="Idotaccent" unicode="&#x130;" horiz-adv-x="204" 
d="M91 813v59q0 16 16 16h24q16 0 16 -16v-59q0 -16 -16 -16h-24q-16 0 -16 16zM98 0v732h41v-732h-41z" />
    <glyph glyph-name="dotlessi" unicode="&#x131;" horiz-adv-x="188" 
d="M74 0v531h41v-531h-41z" />
    <glyph glyph-name="Jcircumflex" unicode="&#x134;" horiz-adv-x="352" 
d="M127 797l127 130h37l115 -130h-36l-98 100l-109 -100h-36zM47 49q53 -16 75 -16t41 1t37.5 13t32 42t13.5 76v567h41v-567q0 -110 -52 -147q-34 -24 -89 -24q-62 0 -103 27z" />
    <glyph glyph-name="jcircumflex" unicode="&#x135;" horiz-adv-x="185" 
d="M-53 597l127 140h38l114 -140h-32l-102 108l-112 -108h-33zM70 -270v801h42v-535v-31q0 -140 -16 -235h-26z" />
    <glyph glyph-name="Kcommaaccent" unicode="&#x136;" horiz-adv-x="592" 
d="M290 -131v53q0 17 15 17h21q15 0 15 -17v-93q0 -24 -11.5 -34t-22.5 -10h-3l-12 1v14q20 0 20 18v36h-7q-15 0 -15 15zM98 0v732h41v-344h129l237 344h50l-250 -365l250 -367h-51l-237 346h-127v-346h-42z" />
    <glyph glyph-name="kcommaaccent" unicode="&#x137;" horiz-adv-x="498" 
d="M245 -130v53q0 17 15 17h22q14 0 14 -17v-93q0 -24 -11.5 -34t-22.5 -10h-3l-12 2v13q20 0 20 18v36h-7q-15 0 -15 15zM74 0v782h41v-456h53l246 205h60l-266 -227l265 -304h-54l-251 284h-53v-284h-41z" />
    <glyph glyph-name="kgreenlandic" unicode="&#x138;" horiz-adv-x="488" 
d="M74 0v531h41v-245h104l194 245h51l-208 -265l194 -266h-52l-180 245h-103v-245h-41z" />
    <glyph glyph-name="Lacute" unicode="&#x139;" horiz-adv-x="558" 
d="M106 794l116 133h49l-133 -133h-32zM98 126v606h41v-606q0 -57 31 -72q25 -13 64 -13h287v-41h-287q-57 0 -92 20q-44 25 -44 106z" />
    <glyph glyph-name="lacute" unicode="&#x13a;" horiz-adv-x="298" 
d="M89 843l116 133h49l-133 -133h-32zM74 189v594h41v-594q0 -95 29 -123q14 -13 24.5 -17.5t54.5 -13t51 -8.5v-27h-74q-63 0 -94.5 45t-31.5 144z" />
    <glyph glyph-name="Lcommaaccent" unicode="&#x13b;" horiz-adv-x="558" 
d="M291 -130v53q0 17 15 17h22q14 0 14 -17v-93q0 -24 -11.5 -34t-22.5 -10h-3l-12 2v13q20 0 20 18v36h-7q-15 0 -15 15zM98 126v606h41v-606q0 -57 31 -72q25 -13 64 -13h287v-41h-287q-57 0 -92 20q-44 25 -44 106z" />
    <glyph glyph-name="lcommaaccent" unicode="&#x13c;" horiz-adv-x="298" 
d="M123 -130v53q0 17 15 17h22q14 0 14 -17v-93q0 -24 -11.5 -34t-22.5 -10h-3l-12 2v13q20 0 20 18v36h-7q-15 0 -15 15zM74 189v594h41v-594q0 -95 29 -123q14 -13 24.5 -17.5t54.5 -13t51 -8.5v-27h-74q-63 0 -94.5 45t-31.5 144z" />
    <glyph glyph-name="Lcaron" unicode="&#x13d;" horiz-adv-x="558" 
d="M98 126v606h41v-606q0 -57 31 -72q25 -13 64 -13h287v-41h-287q-57 0 -92 20q-44 25 -44 106zM222 772h41v-67l-7 -134h-26l-8 134v67z" />
    <glyph glyph-name="lcaron" unicode="&#x13e;" horiz-adv-x="298" 
d="M74 189v594h41v-594q0 -106 37 -132q15 -11 65 -20.5t57 -9.5v-27h-77q-64 0 -93.5 43t-29.5 146zM207 782h41v-67l-7 -134h-26l-8 134v67z" />
    <glyph glyph-name="Lslash" unicode="&#x141;" horiz-adv-x="557" 
d="M98 732h41v-298l127 55v-33l-127 -55v-275q0 -57 31 -72q25 -13 64 -13h287v-41h-287q-57 0 -92 20q-44 25 -44 106v256l-82 -36v35l82 36v315z" />
    <glyph glyph-name="lslash" unicode="&#x142;" horiz-adv-x="308" 
d="M84 783h41v-305l136 67l-1 -34l-135 -67v-255q0 -82 19.5 -111.5t60.5 -36.5q72 -14 79 -14v-27h-77q-61 0 -92 43.5t-31 145.5v236l-73 -36v34l73 36v324z" />
    <glyph glyph-name="Nacute" unicode="&#x143;" horiz-adv-x="670" 
d="M344 797l116 133h49l-133 -133h-32zM98 0v732h43l423 -655v655h41v-732h-41l-425 655v-655h-41z" />
    <glyph glyph-name="nacute" unicode="&#x144;" 
d="M264 600l116 133h49l-133 -133h-32zM74 0v531h27l14 -62q113 71 209 71q76 0 120 -50t44 -120v-370h-41v370q0 57 -33.5 93t-91 36t-101 -13.5t-106.5 -46.5v-439h-41z" />
    <glyph glyph-name="Ncommaaccent" unicode="&#x145;" horiz-adv-x="670" 
d="M327 -133v53q0 17 15 17h22q14 0 14 -17v-93q0 -24 -11.5 -34t-22.5 -10h-3l-12 1v14q20 0 20 18v36h-7q-15 0 -15 15zM98 0v732h43l423 -655v655h41v-732h-41l-425 655v-655h-41z" />
    <glyph glyph-name="ncommaaccent" unicode="&#x146;" 
d="M256 -130v53q0 17 15 17h21q15 0 15 -17v-93q0 -24 -11.5 -34t-22.5 -10h-3l-12 2v13q20 0 20 18v36h-7q-15 0 -15 15zM74 0v531h27l14 -62q113 71 209 71q76 0 120 -50t44 -120v-370h-41v370q0 57 -33.5 93t-91 36t-101 -13.5t-106.5 -46.5v-439h-41z" />
    <glyph glyph-name="Ncaron" unicode="&#x147;" horiz-adv-x="670" 
d="M216 927h35l102 -100l106 100h36l-123 -130h-38zM98 0v732h43l423 -655v655h41v-732h-41l-425 655v-655h-41z" />
    <glyph glyph-name="ncaron" unicode="&#x148;" 
d="M145 730h35l102 -100l106 100h36l-123 -130h-38zM74 0v531h27l14 -62q113 71 209 71q76 0 120 -50t44 -120v-370h-41v370q0 57 -33.5 93t-91 36t-101 -13.5t-106.5 -46.5v-439h-41z" />
    <glyph glyph-name="Eng" unicode="&#x14a;" horiz-adv-x="669" 
d="M98 0v732h43l422 -650v650h41v-816q0 -107 -41.5 -140t-139.5 -33v31l25 4q17 2 23.5 3.5t21 4.5t20.5 7.5t16.5 12t14.5 17.5t10 23q9 24 9 74v80l-422 653l-1 -653h-42z" />
    <glyph glyph-name="eng" unicode="&#x14b;" horiz-adv-x="561" 
d="M74 0v531h25l16 -62q43 25 64 35.5t60.5 23t77.5 12.5q77 0 124 -50.5t47 -119.5v-460q-3 -100 -78 -138q-33 -17 -78 -25l-18 23q131 33 133 139v461q0 53 -37 91t-93 38q-39 0 -77 -10t-59.5 -20t-65.5 -32v-437h-41z" />
    <glyph glyph-name="Omacron" unicode="&#x14c;" horiz-adv-x="675" 
d="M221 797v31h265v-31h-265zM87.5 218.5q-7.5 60.5 -7.5 152t13 161t33.5 110t58 62t74.5 27.5t90 6t85.5 -4t66.5 -17t54.5 -38.5t38.5 -66.5q32 -76 32 -250q0 -182 -43 -268q-20 -40 -56 -61.5t-75 -28.5t-93.5 -7t-87.5 4t-67.5 16.5t-54.5 37t-37 64.5t-24.5 100.5z
M125 468.5q-4 -47.5 -4 -131t11.5 -147t41.5 -98t70 -45t108.5 -10.5t108.5 11.5t70 45.5t42 98t12 163.5t-10.5 162t-26.5 98t-48 53.5t-62.5 22.5t-73 4.5t-62 -1t-45 -5.5t-40.5 -14t-32.5 -25.5t-27.5 -41t-19 -59t-13 -81.5z" />
    <glyph glyph-name="omacron" unicode="&#x14d;" horiz-adv-x="571" 
d="M153 596v31h265v-31h-265zM108.5 53.5q-46.5 58.5 -46.5 211.5t49 212t175.5 59t175 -63.5t48.5 -212.5t-48.5 -207t-177.5 -58t-175.5 58.5zM114 386.5q-11 -48.5 -11 -125t11 -122t36.5 -67.5t55 -29t79.5 -7t80.5 7.5t56.5 30.5q47 43 47 184q0 152 -47 197
q-26 24 -56.5 32t-80.5 8t-79 -6.5t-55 -30t-37 -72z" />
    <glyph glyph-name="Ohungarumlaut" unicode="&#x150;" horiz-adv-x="675" 
d="M269 797l116 133h49l-133 -133h-32zM406 797l116 133h50l-133 -133h-33zM87.5 218.5q-7.5 60.5 -7.5 152t13 161t33.5 110t58 62t74.5 27.5t90 6t85.5 -4t66.5 -17t54.5 -38.5t38.5 -66.5q32 -76 32 -250q0 -182 -43 -268q-20 -40 -56 -61.5t-75 -28.5t-93.5 -7t-87.5 4
t-67.5 16.5t-54.5 37t-37 64.5t-24.5 100.5zM125 468.5q-4 -47.5 -4 -131t11.5 -147t41.5 -98t70 -45t108.5 -10.5t108.5 11.5t70 45.5t42 98t12 163.5t-10.5 162t-26.5 98t-48 53.5t-62.5 22.5t-73 4.5t-62 -1t-45 -5.5t-40.5 -14t-32.5 -25.5t-27.5 -41t-19 -59t-13 -81.5
z" />
    <glyph glyph-name="ohungarumlaut" unicode="&#x151;" horiz-adv-x="571" 
d="M201 596l116 133h49l-133 -133h-32zM338 596l116 133h50l-133 -133h-33zM108.5 53.5q-46.5 58.5 -46.5 211.5t49 212t175.5 59t175 -63.5t48.5 -212.5t-48.5 -207t-177.5 -58t-175.5 58.5zM114 386.5q-11 -48.5 -11 -125t11 -122t36.5 -67.5t55 -29t79.5 -7t80.5 7.5
t56.5 30.5q47 43 47 184q0 152 -47 197q-26 24 -56.5 32t-80.5 8t-79 -6.5t-55 -30t-37 -72z" />
    <glyph glyph-name="OE" unicode="&#x152;" horiz-adv-x="1054" 
d="M127 481.5q-6 -52.5 -6 -140t11 -151t41 -98t70 -45t103 -10.5t100 8t65.5 28.5t43.5 58.5q30 76 30 235q0 152 -26 219q-14 37 -31 59t-46 33q-47 18 -106.5 18t-81 -1.5t-49.5 -8.5t-44 -20t-33.5 -37t-26 -59.5t-14.5 -88zM87 218q-7 60 -7 152t13 161.5t33.5 110
t57.5 62t74 27.5t114 6t132 -23.5t84 -96.5q4 61 37 88t79 27h7l284 -12v-29h-284q-85 0 -85 -86.5v-141.5v-79l329 -7v-29l-329 -7v-218q0 -57 31 -73q25 -12 64 -12h274v-29l-274 -12h-12q-50 0 -83.5 23t-38.5 92q-29 -69 -83.5 -92.5t-150.5 -23.5q-94 0 -139 16.5
t-65.5 41t-37.5 64.5t-24 100z" />
    <glyph glyph-name="oe" unicode="&#x153;" horiz-adv-x="932" 
d="M108.5 53.5q-46.5 58.5 -46.5 211.5t49 212t174 59q84 0 132 -27.5t69 -85.5q18 68 62 90t133 22q112 0 147 -29q39 -31 49 -84q6 -32 6 -82q0 -98 -136 -98h-237v-7q0 -115 31.5 -157t101.5 -42q114 0 230 17v-30q-97 -28 -214 -28q-80 0 -118 26t-54 83
q-21 -59 -68.5 -84t-133.5 -25q-130 0 -176.5 58.5zM114 386.5q-11 -48.5 -11 -125t11 -122t36.5 -67.5t55 -29t89.5 -7t97 17q76 35 76 208q0 145 -46 191q-25 25 -56.5 34t-81 9t-78.5 -6.5t-55 -30t-37 -72zM747 282q46 0 70.5 13t24.5 57.5t-8 74t-30 44.5t-48.5 19
t-86 4t-93 -13.5t-50 -57.5t-16.5 -131v-10h237z" />
    <glyph glyph-name="Racute" unicode="&#x154;" horiz-adv-x="580" 
d="M273 792l116 133h49l-133 -133h-32zM74 0v732h288q95 0 137 -58q37 -53 37 -149q0 -148 -72 -189q-32 -18 -76 -20l158 -316h-43l-160 315q-221 6 -228 11v-326h-41zM115 358h247q30 0 50 5t40 21q42 32 42 136t-36 137t-96 33h-247v-332z" />
    <glyph glyph-name="racute" unicode="&#x155;" horiz-adv-x="424" 
d="M228 597l116 133h49l-133 -133h-32zM74 0v531h26l15 -67q44 25 65.5 36t63.5 24t89.5 13t66.5 -8v-40q-35 7 -63.5 7t-44.5 -1.5t-33 -5.5t-27.5 -7t-29 -11t-26.5 -11q-53 -26 -61 -30v-430h-41z" />
    <glyph glyph-name="Rcommaaccent" unicode="&#x156;" horiz-adv-x="580" 
d="M268 -130v53q0 17 15 17h21q15 0 15 -17v-93q0 -24 -11.5 -34t-22.5 -10h-3l-12 2v13q20 0 20 18v36h-7q-15 0 -15 15zM74 0v732h288q95 0 137 -58q37 -53 37 -149q0 -148 -72 -189q-32 -18 -76 -20l158 -316h-43l-160 315q-221 6 -228 11v-326h-41zM115 358h247
q30 0 50 5t40 21q42 32 42 136t-36 137t-96 33h-247v-332z" />
    <glyph glyph-name="rcommaaccent" unicode="&#x157;" horiz-adv-x="424" 
d="M66 -130v53q0 17 15 17h21q15 0 15 -17v-93q0 -24 -11.5 -34t-22.5 -10h-3l-12 2v13q20 0 20 18v36h-7q-15 0 -15 15zM71 0v531h26l15 -67q44 25 65.5 36t63.5 24t89.5 13t66.5 -8v-40q-35 7 -63.5 7t-44.5 -1.5t-33 -5.5t-27.5 -7t-29 -11t-25.5 -11q-54 -26 -62 -30
v-430h-41z" />
    <glyph glyph-name="Rcaron" unicode="&#x158;" horiz-adv-x="580" 
d="M155 924h35l102 -100l106 100h36l-123 -130h-38zM74 0v732h288q95 0 137 -58q37 -53 37 -149q0 -148 -72 -189q-32 -18 -76 -20l158 -316h-43l-160 315q-221 6 -228 11v-326h-41zM115 358h247q30 0 50 5t40 21q42 32 42 136t-36 137t-96 33h-247v-332z" />
    <glyph glyph-name="rcaron" unicode="&#x159;" horiz-adv-x="424" 
d="M98 727h35l102 -100l106 100h36l-123 -130h-38zM74 0v531h26l15 -67q44 25 65.5 36t63.5 24t89.5 13t66.5 -8v-40q-35 7 -63.5 7t-44.5 -1.5t-33 -5.5t-27.5 -7t-29 -11t-26.5 -11q-53 -26 -61 -30v-430h-41z" />
    <glyph glyph-name="Sacute" unicode="&#x15a;" horiz-adv-x="585" 
d="M293 798l116 133h49l-133 -133h-32zM80 494v66q0 101 50.5 139.5t145.5 38.5t230 -21v-29l-231 9h-14q-66 0 -103 -28t-37 -109v-66q0 -70 32 -92t100 -22h123q91 0 125.5 -42t34.5 -114v-68q0 -101 -62 -136q-52 -28 -134 -28q-39 0 -123 6t-117 12v31q86 -8 178.5 -8
t117 4.5t48.5 16.5q51 26 51 102v68q0 58 -27.5 86t-91.5 28h-121q-112 0 -147 49q-17 24 -22.5 48t-5.5 59z" />
    <glyph glyph-name="sacute" unicode="&#x15b;" horiz-adv-x="504" 
d="M240 601l116 133h49l-133 -133h-32zM49 361v46q0 64 32 96.5t106 32.5q127 0 241 -11v-29h-241q-55 0 -76 -21t-21 -68v-46q0 -54 26 -66q15 -7 28.5 -8.5t42.5 -1.5h138q60 0 95 -32t35 -88v-49q0 -78 -41 -102q-35 -19 -79.5 -19t-139 5t-124.5 8v28h254q49 0 67 16
q22 21 22 64v49q0 35 -22.5 57t-66.5 22h-138q-77 0 -107.5 22t-30.5 95z" />
    <glyph glyph-name="Scircumflex" unicode="&#x15c;" horiz-adv-x="585" 
d="M169 798l127 130h37l115 -130h-36l-98 100l-109 -100h-36zM80 494v66q0 101 50.5 139.5t145.5 38.5t230 -21v-29l-231 9h-14q-66 0 -103 -28t-37 -109v-66q0 -70 32 -92t100 -22h123q91 0 125.5 -42t34.5 -114v-68q0 -101 -62 -136q-52 -28 -134 -28q-39 0 -123 6
t-117 12v31q86 -8 178.5 -8t117 4.5t48.5 16.5q51 26 51 102v68q0 58 -27.5 86t-91.5 28h-121q-112 0 -147 49q-17 24 -22.5 48t-5.5 59z" />
    <glyph glyph-name="scircumflex" unicode="&#x15d;" horiz-adv-x="504" 
d="M111 596l127 130h37l115 -130h-36l-98 100l-109 -100h-36zM49 361v46q0 64 32 96.5t106 32.5q127 0 241 -11v-29h-241q-55 0 -76 -21t-21 -68v-46q0 -54 26 -66q15 -7 28.5 -8.5t42.5 -1.5h138q60 0 95 -32t35 -88v-49q0 -78 -41 -102q-35 -19 -79.5 -19t-139 5t-124.5 8
v28h254q49 0 67 16q22 21 22 64v49q0 35 -22.5 57t-66.5 22h-138q-77 0 -107.5 22t-30.5 95z" />
    <glyph glyph-name="Scedilla" unicode="&#x15e;" horiz-adv-x="585" 
d="M308 -52v7h34q0 -78 -20.5 -107t-80.5 -29h-37v17l39 9q36 7 50.5 28t14.5 75zM80 494v66q0 101 50.5 139.5t145.5 38.5t230 -21v-29l-231 9h-14q-66 0 -103 -28t-37 -109v-66q0 -70 32 -92t100 -22h123q91 0 125.5 -42t34.5 -114v-68q0 -101 -62 -136q-52 -28 -134 -28
q-39 0 -123 6t-117 12v31q86 -8 178.5 -8t117 4.5t48.5 16.5q51 26 51 102v68q0 58 -27.5 86t-91.5 28h-121q-112 0 -147 49q-17 24 -22.5 48t-5.5 59z" />
    <glyph glyph-name="scedilla" unicode="&#x15f;" horiz-adv-x="504" 
d="M251 -46v7h34q0 -78 -20.5 -107t-80.5 -29h-37v17l39 9q36 7 50.5 28t14.5 75zM49 361v46q0 64 32 96.5t106 32.5q127 0 241 -11v-29h-241q-55 0 -76 -21t-21 -68v-46q0 -54 26 -66q15 -7 28.5 -8.5t42.5 -1.5h138q60 0 95 -32t35 -88v-49q0 -78 -41 -102
q-35 -19 -79.5 -19t-139 5t-124.5 8v28h254q49 0 67 16q22 21 22 64v49q0 35 -22.5 57t-66.5 22h-138q-77 0 -107.5 22t-30.5 95z" />
    <glyph glyph-name="Scaron" unicode="&#x160;" horiz-adv-x="585" 
d="M177 928h35l102 -100l106 100h36l-123 -130h-38zM80 494v66q0 101 50.5 139.5t145.5 38.5t230 -21v-29l-231 9h-14q-66 0 -103 -28t-37 -109v-66q0 -70 32 -92t100 -22h123q91 0 125.5 -42t34.5 -114v-68q0 -101 -62 -136q-52 -28 -134 -28q-39 0 -123 6t-117 12v31
q86 -8 178.5 -8t117 4.5t48.5 16.5q51 26 51 102v68q0 58 -27.5 86t-91.5 28h-121q-112 0 -147 49q-17 24 -22.5 48t-5.5 59z" />
    <glyph glyph-name="scaron" unicode="&#x161;" horiz-adv-x="504" 
d="M120 731h35l102 -100l106 100h36l-123 -130h-38zM49 361v46q0 64 32 96.5t106 32.5q127 0 241 -11v-29h-241q-55 0 -76 -21t-21 -68v-46q0 -54 26 -66q15 -7 28.5 -8.5t42.5 -1.5h138q60 0 95 -32t35 -88v-49q0 -78 -41 -102q-35 -19 -79.5 -19t-139 5t-124.5 8v28h254
q49 0 67 16q22 21 22 64v49q0 35 -22.5 57t-66.5 22h-138q-77 0 -107.5 22t-30.5 95z" />
    <glyph glyph-name="Tcommaaccent" unicode="&#x162;" horiz-adv-x="595" 
d="M283 -53v7h34q0 -78 -20.5 -107t-80.5 -29h-37v17l39 9q36 7 50.5 28t14.5 75zM46 691v41h515v-41h-240v-691h-41v691h-234z" />
    <glyph glyph-name="tcommaaccent" unicode="&#x163;" horiz-adv-x="359" 
d="M190 -58v7h34q0 -78 -20.5 -107t-80.5 -29h-37v17l39 9q36 7 50.5 28t14.5 75zM25 491v30l89 11l11 148h30v-148h168v-41h-168v-302q0 -95 29 -123q14 -13 24.5 -17.5t54.5 -13t51 -8.5v-27h-74q-63 0 -94.5 45t-31.5 144v302h-89z" />
    <glyph glyph-name="Tcaron" unicode="&#x164;" horiz-adv-x="595" 
d="M161 927h35l102 -100l106 100h36l-123 -130h-38zM46 691v41h515v-41h-240v-691h-41v691h-234z" />
    <glyph glyph-name="tcaron" unicode="&#x165;" horiz-adv-x="347" 
d="M25 491v30l89 11l11 148h30v-148h168v-41h-168v-301q0 -95 27 -122q14 -14 24 -18t55.5 -13t52.5 -9v-27h-78q-60 0 -91 43.5t-31 145.5v301h-89zM230 754l26 45l16 -23l-3 -90l-22 -88l-12 45z" />
    <glyph glyph-name="Tbar" unicode="&#x166;" horiz-adv-x="595" 
d="M43 691v41h515v-41h-240v-260h140v-28h-140v-403h-41v403h-127v28h127v260h-234z" />
    <glyph glyph-name="tbar" unicode="&#x167;" horiz-adv-x="347" 
d="M25 491v30l89 11l11 148h30v-148h168v-41h-168v-162h118v-28h-118v-111q0 -108 35 -132q14 -9 21 -10q86 -19 100 -19v-28h-75q-63 0 -92.5 43t-29.5 146v111h-81v28h81v162h-89z" />
    <glyph glyph-name="Utilde" unicode="&#x168;" horiz-adv-x="680" 
d="M362.5 859.5q41.5 -29.5 52.5 -29.5t20.5 2.5t16.5 5.5t17.5 9t14.5 9q21 17 30 21l12 -19q-24 -22 -35 -31t-33 -20t-44 -10.5t-61.5 30t-54.5 29.5t-29 -4.5t-22 -9t-24.5 -15.5t-24.5 -16l-10 19q24 20 37 30q37 30 73 30q23 -1 64.5 -30.5zM98 320v412h41v-412
q0 -103 14 -163.5t50 -85.5t64.5 -30t91.5 -5h1q115 0 151 40q45 50 56 128q7 50 7 116v412h42v-412q0 -158 -40 -228q-14 -24 -26.5 -40.5t-33.5 -27.5t-35.5 -16.5t-39.5 -8.5q-33 -4 -58 -4h-42t-31.5 0.5t-41 3t-40.5 8t-35 17t-32.5 27.5t-25.5 40.5t-21 56.5
q-16 81 -16 172z" />
    <glyph glyph-name="utilde" unicode="&#x169;" 
d="M274.5 659.5q41.5 -29.5 52.5 -29.5t20.5 2.5t16.5 5.5t17.5 9t14.5 9q21 17 30 21l12 -19q-24 -22 -35 -31t-33 -20t-44 -10.5t-61.5 30t-54.5 29.5t-29 -4.5t-22 -9t-24.5 -15.5t-24.5 -16l-10 19q24 20 37 30q37 30 73 30q23 -1 64.5 -30.5zM62 162v370h41v-370
q0 -57 33.5 -93t91.5 -36t101.5 13.5t105.5 45.5v440h41v-531h-27l-14 62q-113 -71 -209 -71q-76 0 -120 50t-44 120z" />
    <glyph glyph-name="Umacron" unicode="&#x16a;" horiz-adv-x="680" 
d="M224 797v31h265v-31h-265zM98 320v412h41v-412q0 -103 14 -163.5t50 -85.5t64.5 -30t91.5 -5h1q115 0 151 40q45 50 56 128q7 50 7 116v412h42v-412q0 -158 -40 -228q-14 -24 -26.5 -40.5t-33.5 -27.5t-35.5 -16.5t-39.5 -8.5q-33 -4 -58 -4h-42t-31.5 0.5t-41 3t-40.5 8
t-35 17t-32.5 27.5t-25.5 40.5t-21 56.5q-16 81 -16 172z" />
    <glyph glyph-name="umacron" unicode="&#x16b;" 
d="M136 596v31h265v-31h-265zM62 162v370h41v-370q0 -57 33.5 -93t91.5 -36t101.5 13.5t105.5 45.5v440h41v-531h-27l-14 62q-113 -71 -209 -71q-76 0 -120 50t-44 120z" />
    <glyph glyph-name="Ubreve" unicode="&#x16c;" horiz-adv-x="680" 
d="M242 911h25q0 -38 26 -63.5t60 -25.5q42 0 68 25t26 64h25q0 -53 -35.5 -83.5t-80 -30.5t-79.5 31.5t-35 82.5zM98 320v412h41v-412q0 -103 14 -163.5t50 -85.5t64.5 -30t91.5 -5h1q115 0 151 40q45 50 56 128q7 50 7 116v412h42v-412q0 -158 -40 -228
q-14 -24 -26.5 -40.5t-33.5 -27.5t-35.5 -16.5t-39.5 -8.5q-33 -4 -58 -4h-42t-31.5 0.5t-41 3t-40.5 8t-35 17t-32.5 27.5t-25.5 40.5t-21 56.5q-16 81 -16 172z" />
    <glyph glyph-name="ubreve" unicode="&#x16d;" 
d="M157 710h25q0 -38 26 -63.5t60 -25.5q42 0 68 25t26 64h25q0 -53 -35.5 -83.5t-80 -30.5t-79.5 31.5t-35 82.5zM62 162v370h41v-370q0 -57 33.5 -93t91.5 -36t101.5 13.5t105.5 45.5v440h41v-531h-27l-14 62q-113 -71 -209 -71q-76 0 -120 50t-44 120z" />
    <glyph glyph-name="Uring" unicode="&#x16e;" horiz-adv-x="680" 
d="M256 899q0 43 30 73t72 30t71 -30t29 -73t-29 -72.5t-71 -29.5t-72 29.5t-30 72.5zM281 899q0 -31 22.5 -53.5t54 -22.5t53.5 22t22 54t-22 54.5t-53.5 22.5t-54 -23t-22.5 -54zM98 320v412h41v-412q0 -103 14 -163.5t50 -85.5t64.5 -30t91.5 -5h1q115 0 151 40
q45 50 56 128q7 50 7 116v412h42v-412q0 -158 -40 -228q-14 -24 -26.5 -40.5t-33.5 -27.5t-35.5 -16.5t-39.5 -8.5q-33 -4 -58 -4h-42t-31.5 0.5t-41 3t-40.5 8t-35 17t-32.5 27.5t-25.5 40.5t-21 56.5q-16 81 -16 172z" />
    <glyph glyph-name="uring" unicode="&#x16f;" 
d="M168 698q0 43 30 73t72 30t71 -30t29 -73t-29 -72.5t-71 -29.5t-72 29.5t-30 72.5zM215.5 752.5q-22.5 -22.5 -22.5 -54t22.5 -54t54 -22.5t53.5 22t22 54t-22 54.5t-53.5 22.5t-54 -22.5zM62 162v370h41v-370q0 -57 33.5 -93t91.5 -36t101.5 13.5t105.5 45.5v440h41
v-531h-27l-14 62q-113 -71 -209 -71q-76 0 -120 50t-44 120z" />
    <glyph glyph-name="Uhungarumlaut" unicode="&#x170;" horiz-adv-x="680" 
d="M272 797l116 133h49l-133 -133h-32zM409 797l116 133h50l-133 -133h-33zM98 320v412h41v-412q0 -103 14 -163.5t50 -85.5t64.5 -30t91.5 -5h1q115 0 151 40q45 50 56 128q7 50 7 116v412h42v-412q0 -158 -40 -228q-14 -24 -26.5 -40.5t-33.5 -27.5t-35.5 -16.5
t-39.5 -8.5q-33 -4 -58 -4h-42t-31.5 0.5t-41 3t-40.5 8t-35 17t-32.5 27.5t-25.5 40.5t-21 56.5q-16 81 -16 172z" />
    <glyph glyph-name="uhungarumlaut" unicode="&#x171;" 
d="M184 596l116 133h49l-133 -133h-32zM321 596l116 133h50l-133 -133h-33zM62 162v370h41v-370q0 -57 33.5 -93t91.5 -36t101.5 13.5t105.5 45.5v440h41v-531h-27l-14 62q-113 -71 -209 -71q-76 0 -120 50t-44 120z" />
    <glyph glyph-name="Uogonek" unicode="&#x172;" horiz-adv-x="680" 
d="M368 -4q-71 -37 -71 -92q0 -16 15 -32q24 -27 78 -27v-30q-10 -1 -30 -1t-49.5 16t-41.5 45q-5 11 -5 27t12 36q18 35 71 58h21zM98 320v412h41v-412q0 -103 14 -163.5t50 -85.5t64.5 -30t91.5 -5h1q115 0 151 40q45 50 56 128q7 50 7 116v412h42v-412q0 -158 -40 -228
q-14 -24 -26.5 -40.5t-33.5 -27.5t-35.5 -16.5t-39.5 -8.5q-33 -4 -58 -4h-42t-31.5 0.5t-41 3t-40.5 8t-35 17t-32.5 27.5t-25.5 40.5t-21 56.5q-16 81 -16 172z" />
    <glyph glyph-name="uogonek" unicode="&#x173;" horiz-adv-x="604" 
d="M490 1q-71 -37 -71 -92q0 -16 15 -33q24 -26 78 -26v-30q-10 -1 -30 -1t-49.5 16t-41.5 45q-5 11 -5 27t12 37q18 34 71 57h21zM78 162v370h41v-370q0 -57 33.5 -93t91.5 -36t101.5 13.5t105.5 45.5v440h41v-531h-27l-14 62q-113 -71 -209 -71q-76 0 -120 50t-44 120z
" />
    <glyph glyph-name="Wcircumflex" unicode="&#x174;" horiz-adv-x="967" 
d="M362 795l127 130h37l115 -130h-36l-98 100l-109 -100h-36zM56 732h44l240 -672l223 672h46l-91 -278l152 -396l228 674h43l-246 -732h-47l-152 389l-133 -389h-47z" />
    <glyph glyph-name="wcircumflex" unicode="&#x175;" horiz-adv-x="785" 
d="M262 594l127 130h37l115 -130h-36l-98 100l-109 -100h-36zM25 531h44l182 -474l173 474h43l-67 -189l129 -285l189 474h43l-209 -531h-43l-129 289l-106 -289h-44z" />
    <glyph glyph-name="Ycircumflex" unicode="&#x176;" horiz-adv-x="622" 
d="M183 795l127 130h37l115 -130h-36l-98 100l-109 -100h-36zM336 0h-41v260l-239 472h45l215 -422l234 422h46l-260 -472v-260z" />
    <glyph glyph-name="ycircumflex" unicode="&#x177;" horiz-adv-x="537" 
d="M129 596l127 130h37l115 -130h-36l-98 100l-109 -100h-36zM26 531h44l142 -415q26 -72 78 -74l11 1l165 488h44l-233 -699l-56 -102h-24l90 270q-85 4 -118 110z" />
    <glyph glyph-name="Ydieresis" unicode="&#x178;" horiz-adv-x="622" 
d="M170 826q0 12 8 20t20 8t20.5 -8t8.5 -20t-8.5 -20.5t-20.5 -8.5t-20 8.5t-8 20.5zM424 826q0 12 8.5 20t20.5 8t20.5 -8t8.5 -20t-8.5 -20.5t-20.5 -8.5t-20.5 8.5t-8.5 20.5zM336 0h-41v260l-239 472h45l215 -422l234 422h46l-260 -472v-260z" />
    <glyph glyph-name="Zacute" unicode="&#x179;" horiz-adv-x="553" 
d="M277 797l116 133h49l-133 -133h-32zM43 0v41l420 650h-420v41h473v-41l-420 -650h420v-41h-473z" />
    <glyph glyph-name="zacute" unicode="&#x17a;" horiz-adv-x="468" 
d="M219 593l116 133h49l-133 -133h-32zM37 490v41h396v-41l-328 -448h328v-41h-381v41l328 448h-343z" />
    <glyph glyph-name="Zdotaccent" unicode="&#x17b;" horiz-adv-x="553" 
d="M252 813v59q0 16 16 16h24q16 0 16 -16v-59q0 -16 -16 -16h-24q-16 0 -16 16zM43 0v41l420 650h-420v41h473v-41l-420 -650h420v-41h-473z" />
    <glyph glyph-name="zdotaccent" unicode="&#x17c;" horiz-adv-x="468" 
d="M207 612v59q0 16 16 16h24q16 0 16 -16v-59q0 -16 -16 -16h-24q-16 0 -16 16zM37 490v41h396v-41l-328 -448h328v-41h-381v41l328 448h-343z" />
    <glyph glyph-name="Zcaron" unicode="&#x17d;" horiz-adv-x="553" 
d="M140 927h35l102 -100l106 100h36l-123 -130h-38zM43 0v41l420 650h-420v41h473v-41l-420 -650h420v-41h-473z" />
    <glyph glyph-name="zcaron" unicode="&#x17e;" horiz-adv-x="468" 
d="M110 726h35l102 -100l106 100h36l-123 -130h-38zM37 490v41h396v-41l-328 -448h328v-41h-381v41l328 448h-343z" />
    <glyph glyph-name="florin" unicode="&#x192;" horiz-adv-x="597" 
d="M109 -163q47 0 75 44q29 49 39 90q14 65 22 117l51 325h-102l7 42h102l8 51q23 151 50 204q31 62 69 80q23 10 59 10t84 -16l-4 -25h-88q-69 0 -102 -120q-10 -37 -26 -133l-8 -52h143l-7 -41h-143l-51 -325q-25 -154 -47 -196q-13 -24 -30 -48q-34 -48 -101 -48
q-26 0 -52 6t-32 10l4 25h80z" />
    <glyph glyph-name="circumflex" unicode="&#x2c6;" horiz-adv-x="401" 
d="M62 531l127 130h37l115 -130h-36l-98 100l-109 -100h-36z" />
    <glyph glyph-name="caron" unicode="&#x2c7;" horiz-adv-x="401" 
d="M62 661h35l102 -100l106 100h36l-123 -130h-38z" />
    <glyph glyph-name="breve" unicode="&#x2d8;" horiz-adv-x="351" 
d="M62 644h25q0 -38 26 -63.5t60 -25.5q42 0 68 25t26 64h25q0 -53 -35.5 -83.5t-80 -30.5t-79.5 31.5t-35 82.5z" />
    <glyph glyph-name="dotaccent" unicode="&#x2d9;" horiz-adv-x="179" 
d="M58 571v59q0 16 16 16h24q16 0 16 -16v-59q0 -16 -16 -16h-24q-16 0 -16 16z" />
    <glyph glyph-name="ring" unicode="&#x2da;" horiz-adv-x="326" 
d="M62 632q0 43 30 73t72 30t71 -30t29 -73t-29 -72.5t-71 -29.5t-72 29.5t-30 72.5zM109.5 686.5q-22.5 -22.5 -22.5 -54t22.5 -54t54 -22.5t53.5 22t22 54t-22 54.5t-53.5 22.5t-54 -22.5z" />
    <glyph glyph-name="ogonek" unicode="&#x2db;" horiz-adv-x="246" 
d="M163 0q-71 -37 -71 -92q0 -16 15 -32q24 -27 78 -27v-30q-10 -1 -30 -1t-49.5 16t-41.5 45q-5 11 -5 27t11 36q19 35 72 58h21z" />
    <glyph glyph-name="tilde" unicode="&#x2dc;" horiz-adv-x="461" 
d="M236.5 601.5q41.5 -29.5 52.5 -29.5t20.5 2.5t16.5 5.5t17.5 9t14.5 9q21 17 30 21l12 -19q-24 -22 -35 -31t-33 -20t-44 -10.5t-61.5 30t-54.5 29.5t-29 -4.5t-22 -9t-24.5 -15.5t-24.5 -16l-10 19q24 20 37 30q37 30 73 30q23 -1 64.5 -30.5z" />
    <glyph glyph-name="hungarumlaut" unicode="&#x2dd;" horiz-adv-x="356" 
d="M25 531l116 133h49l-133 -133h-32zM162 531l116 133h50l-133 -133h-33z" />
    <glyph glyph-name="uni0338" unicode="&#x338;" horiz-adv-x="654" 
d="M86 162v408q0 78 48.5 120t123.5 42h144q86 0 126.5 -44.5t40.5 -117.5v-408q0 -162 -167 -162h-144q-75 0 -123.5 39t-48.5 123zM127 162q0 -42 18 -69l337 572q-26 26 -80 26h-144q-62 0 -96.5 -32.5t-34.5 -88.5v-408zM258 41h144q126 0 126 121v408q0 49 -20 78
l-338 -578q30 -29 88 -29z" />
    <glyph glyph-name="Omega" unicode="&#x3a9;" horiz-adv-x="788" 
d="M79 388q0 51 7.5 96t28.5 93.5t54.5 83t91.5 56.5t133 22q309 0 309 -356q0 -228 -163 -342l168 -10v-31h-228v42q100 66 141 150.5t41 192.5q0 132 -52 217q-58 96 -216 96q-274 0 -274 -318q0 -110 38 -181.5t147 -156.5v-42h-220v31l166 11q-116 84 -147 176
q-16 47 -20.5 83t-4.5 87z" />
    <glyph glyph-name="pi" unicode="&#x3c0;" horiz-adv-x="615" 
d="M25 490v41h517v-41h-129v-324q0 -70 20 -99.5t65 -29.5h92v-24q-59 -18 -92 -18q-65 0 -95.5 38t-30.5 133v324h-220v-490h-41v490h-86z" />
    <glyph glyph-name="uni1E02" unicode="&#x1e02;" horiz-adv-x="597" 
d="M288 812v59q0 16 16 16h24q16 0 16 -16v-59q0 -16 -16 -16h-24q-16 0 -16 16zM98 0v732h263q102 0 146 -51t44 -125t-32.5 -119t-83.5 -54q42 -10 81 -56t39 -123q0 -84 -39 -140q-45 -64 -155 -64h-263zM140 42h221q153 0 153 164q0 66 -43 111t-107 45h-3h-221v-320z
M140 404h221q67 0 107 38q42 38 42 112q0 137 -149 137h-221v-287z" />
    <glyph glyph-name="uni1E03" unicode="&#x1e03;" horiz-adv-x="552" 
d="M67 864v59q0 16 16 16h24q16 0 16 -16v-59q0 -16 -16 -16h-24q-16 0 -16 16zM74 0v785h39v-286q45 18 102.5 29t94.5 11q181 0 181 -276q0 -101 -36 -179q-19 -42 -56 -66t-86.5 -24t-112.5 23t-86 42l-14 -59h-26zM310 35q62 0 101 57t39 180.5t-37.5 174.5t-102.5 51
q-85 0 -196 -29v-382q110 -52 196 -52z" />
    <glyph glyph-name="uni1E0A" unicode="&#x1e0a;" horiz-adv-x="666" 
d="M305 815v59q0 16 16 16h24q16 0 16 -16v-59q0 -16 -16 -16h-24q-16 0 -16 16zM98 0v732h260q65 0 113.5 -24.5t75.5 -61.5t43 -89q27 -84 27 -172t-14.5 -149.5t-44 -115.5t-81.5 -87t-119 -33h-260zM139 42h219q73 0 124 50q94 92 94 272q0 327 -218 327h-219v-649z" />
    <glyph glyph-name="uni1E0B" unicode="&#x1e0b;" horiz-adv-x="552" 
d="M431 862v59q0 16 16 16h24q16 0 16 -16v-59q0 -16 -16 -16h-24q-16 0 -16 16zM62 263q0 276 181 276q37 0 94.5 -11t102.5 -29v286h39v-785h-27l-13 59q-23 -19 -86 -42t-112.5 -23t-86.5 24t-56 66q-36 78 -36 179zM140 447.5q-37 -50.5 -37 -176t38.5 -181t101.5 -55.5
q86 0 196 52v382q-111 29 -196 29q-66 0 -103 -50.5z" />
    <glyph glyph-name="uni1E1E" unicode="&#x1e1e;" horiz-adv-x="576" 
d="M281 831v59q0 16 16 16h24q16 0 16 -16v-59q0 -16 -16 -16h-24q-16 0 -16 16zM98 0v602q0 69 35 99.5t85 30.5h6l304 -12v-29h-304q-85 0 -85 -89v-218l349 -7v-29l-349 -7v-341h-41z" />
    <glyph glyph-name="uni1E1F" unicode="&#x1e1f;" horiz-adv-x="389" 
d="M220 869v59q0 16 16 16h24q16 0 16 -16v-59q0 -16 -16 -16h-24q-16 0 -16 16zM25 490v29l90 12v99q0 83 23 118q27 38 80 38q97 0 147 -15v-26l-136 1q-46 0 -59.5 -28t-13.5 -88v-99h168v-41h-168v-490h-41v490h-90z" />
    <glyph glyph-name="uni1E40" unicode="&#x1e40;" horiz-adv-x="798" 
d="M373 813v59q0 16 16 16h24q16 0 16 -16v-59q0 -16 -16 -16h-24q-16 0 -16 16zM68 0l69 732h59l207 -663l202 663h59l75 -732h-41l-69 667l-204 -667h-44l-208 667l-64 -667h-41z" />
    <glyph glyph-name="uni1E41" unicode="&#x1e41;" horiz-adv-x="919" 
d="M437 615v59q0 16 16 16h24q16 0 16 -16v-59q0 -16 -16 -16h-24q-16 0 -16 16zM74 0v531h27l14 -63q113 71 207 71q49 0 87 -22t57 -59q43 33 106.5 57t130 24t111.5 -49t45 -121v-369h-41v369q0 55 -33.5 92t-89.5 37q-108 0 -220 -65q11 -25 11 -64v-369h-41v369
q0 55 -33.5 92t-91 37t-100.5 -13.5t-105 -45.5v-439h-41z" />
    <glyph glyph-name="uni1E56" unicode="&#x1e56;" horiz-adv-x="582" 
d="M271 842v59q0 16 16 16h24q16 0 16 -16v-59q0 -16 -16 -16h-24q-16 0 -16 16zM74 0v732h284q67 0 117 -34q59 -42 59 -170q0 -59 -12 -101t-28 -63.5t-43 -33.5t-46 -14t-48.5 -2t-133.5 6t-108 8v-328h-41zM115 356h243q63 0 98.5 34.5t35.5 132.5v5q0 103 -45 136
q-35 26 -89 26h-243v-334z" />
    <glyph glyph-name="uni1E57" unicode="&#x1e57;" horiz-adv-x="552" 
d="M261 617v59q0 16 16 16h24q16 0 16 -16v-59q0 -16 -16 -16h-24q-16 0 -16 16zM74 -269v800h26l14 -59q23 19 86 42t112.5 23t86.5 -24t56 -65q36 -79 36 -180q0 -276 -181 -276q-37 0 -94 11t-102 29v-301h-40zM310 33q65 0 102.5 51t37.5 174.5t-39 180.5t-101 57
q-86 0 -196 -52v-382q111 -29 196 -29z" />
    <glyph glyph-name="uni1E60" unicode="&#x1e60;" horiz-adv-x="585" 
d="M282 818v59q0 16 16 16h24q16 0 16 -16v-59q0 -16 -16 -16h-24q-16 0 -16 16zM80 494v66q0 101 50.5 139.5t145.5 38.5t230 -21v-29l-231 9h-14q-66 0 -103 -28t-37 -109v-66q0 -70 32 -92t100 -22h123q91 0 125.5 -42t34.5 -114v-68q0 -101 -62 -136q-52 -28 -134 -28
q-39 0 -123 6t-117 12v31q86 -8 178.5 -8t117 4.5t48.5 16.5q51 26 51 102v68q0 58 -27.5 86t-91.5 28h-121q-112 0 -147 49q-17 24 -22.5 48t-5.5 59z" />
    <glyph glyph-name="uni1E61" unicode="&#x1e61;" horiz-adv-x="504" 
d="M234 616v59q0 16 16 16h24q16 0 16 -16v-59q0 -16 -16 -16h-24q-16 0 -16 16zM49 361v46q0 64 32 96.5t106 32.5q127 0 241 -11v-29h-241q-55 0 -76 -21t-21 -68v-46q0 -54 26 -66q15 -7 28.5 -8.5t42.5 -1.5h138q60 0 95 -32t35 -88v-49q0 -78 -41 -102
q-35 -19 -79.5 -19t-139 5t-124.5 8v28h254q49 0 67 16q22 21 22 64v49q0 35 -22.5 57t-66.5 22h-138q-77 0 -107.5 22t-30.5 95z" />
    <glyph glyph-name="uni1E6A" unicode="&#x1e6a;" horiz-adv-x="595" 
d="M272 813v59q0 16 16 16h24q16 0 16 -16v-59q0 -16 -16 -16h-24q-16 0 -16 16zM46 691v41h515v-41h-240v-691h-41v691h-234z" />
    <glyph glyph-name="uni1E6B" unicode="&#x1e6b;" horiz-adv-x="359" 
d="M112 757v59q0 16 16 16h24q16 0 16 -16v-59q0 -16 -16 -16h-24q-16 0 -16 16zM25 491v30l89 11l11 148h30v-148h168v-41h-168v-302q0 -95 29 -123q14 -13 24.5 -17.5t54.5 -13t51 -8.5v-27h-74q-63 0 -94.5 45t-31.5 144v302h-89z" />
    <glyph glyph-name="Wgrave" unicode="&#x1e80;" horiz-adv-x="967" 
d="M353 928h49l116 -133h-32zM56 732h44l240 -672l223 672h46l-91 -278l152 -396l228 674h43l-246 -732h-47l-152 389l-133 -389h-47z" />
    <glyph glyph-name="wgrave" unicode="&#x1e81;" horiz-adv-x="785" 
d="M252 727h49l116 -133h-32zM25 531h44l182 -474l173 474h43l-67 -189l129 -285l189 474h43l-209 -531h-43l-129 289l-106 -289h-44z" />
    <glyph glyph-name="Wacute" unicode="&#x1e82;" horiz-adv-x="967" 
d="M486 795l116 133h49l-133 -133h-32zM56 732h44l240 -672l223 672h46l-91 -278l152 -396l228 674h43l-246 -732h-47l-152 389l-133 -389h-47z" />
    <glyph glyph-name="wacute" unicode="&#x1e83;" horiz-adv-x="785" 
d="M385 594l116 133h49l-133 -133h-32zM25 531h44l182 -474l173 474h43l-67 -189l129 -285l189 474h43l-209 -531h-43l-129 289l-106 -289h-44z" />
    <glyph glyph-name="Wdieresis" unicode="&#x1e84;" horiz-adv-x="967" 
d="M346 825q0 12 8 20t20 8t20.5 -8t8.5 -20t-8.5 -20.5t-20.5 -8.5t-20 8.5t-8 20.5zM600 825q0 12 8.5 20t20.5 8t20.5 -8t8.5 -20t-8.5 -20.5t-20.5 -8.5t-20.5 8.5t-8.5 20.5zM56 732h44l240 -672l223 672h46l-91 -278l152 -396l228 674h43l-246 -732h-47l-152 389
l-133 -389h-47z" />
    <glyph glyph-name="wdieresis" unicode="&#x1e85;" horiz-adv-x="785" 
d="M245 624q0 12 8 20t20 8t20.5 -8t8.5 -20t-8.5 -20.5t-20.5 -8.5t-20 8.5t-8 20.5zM499 624q0 12 8.5 20t20.5 8t20.5 -8t8.5 -20t-8.5 -20.5t-20.5 -8.5t-20.5 8.5t-8.5 20.5zM25 531h44l182 -474l173 474h43l-67 -189l129 -285l189 474h43l-209 -531h-43l-129 289
l-106 -289h-44z" />
    <glyph glyph-name="Ygrave" unicode="&#x1ef2;" horiz-adv-x="622" 
d="M177 930h49l116 -133h-32zM336 0h-41v260l-239 472h45l215 -422l234 422h46l-260 -472v-260z" />
    <glyph glyph-name="ygrave" unicode="&#x1ef3;" horiz-adv-x="537" 
d="M122 729h49l116 -133h-32zM26 531h44l142 -415q26 -72 78 -74l11 1l165 488h44l-233 -699l-56 -102h-24l90 270q-85 4 -118 110z" />
    <glyph glyph-name="endash" unicode="&#x2013;" horiz-adv-x="522" 
d="M25 266v42h473v-42h-473z" />
    <glyph glyph-name="emdash" unicode="&#x2014;" horiz-adv-x="745" 
d="M25 268v42h696v-42h-696z" />
    <glyph glyph-name="quoteleft" unicode="&#x2018;" horiz-adv-x="203" 
d="M70 578v102q0 30 14 43t28 13h3l15 -2v-16h-2q-22 0 -22 -25v-33h9q19 0 19 -20v-62q0 -21 -19 -21h-27q-18 0 -18 21z" />
    <glyph glyph-name="quoteright" unicode="&#x2019;" horiz-adv-x="203" 
d="M70 652v63q0 20 20 20h26q19 0 19 -20l-1 -103q0 -30 -14 -43t-28 -13h-3l-15 2v17h2q22 0 22 24v34h-9q-19 0 -19 19z" />
    <glyph glyph-name="quotesinglbase" unicode="&#x201a;" horiz-adv-x="203" 
d="M70 19v62q0 21 19 21h27q18 0 18 -21v-103q0 -30 -14 -43t-28 -13h-3l-15 2v17h2q22 0 22 24v35h-9q-19 0 -19 19z" />
    <glyph glyph-name="quotedblleft" unicode="&#x201c;" horiz-adv-x="310" 
d="M182 578v102q0 30 14 43t22 13h10l15 -2v-16h-2q-22 0 -22 -25v-33h9q19 0 19 -20v-62q0 -21 -19 -21h-26q-20 0 -20 21zM64 578v102q0 30 14 43t28 13h3l15 -2v-16h-2q-22 0 -22 -25v-33h8q8 0 14 -5.5t6 -14.5v-62q0 -21 -20 -21h-26q-18 0 -18 21z" />
    <glyph glyph-name="quotedblright" unicode="&#x201d;" horiz-adv-x="309" 
d="M64 652v63q0 20 19 20h26q19 0 19 -20v-103q0 -30 -14 -43t-28 -13h-3l-15 2v17h2q21 0 21 24v34h-8q-19 0 -19 19zM182 652v63q0 20 20 20h27q18 0 18 -20v-103q0 -30 -14.5 -43t-22 -13h-8.5l-16 2v17h2q23 0 23 24v34h-9q-20 0 -20 19z" />
    <glyph glyph-name="quotedblbase" unicode="&#x201e;" horiz-adv-x="309" 
d="M64 20v62q0 21 19 21h26q19 0 19 -21v-102q0 -30 -14 -43t-28 -13h-3l-15 2v16h2q21 0 21 25v34h-8q-19 0 -19 19zM182 20v62q0 21 20 21h27q18 0 18 -21v-102q0 -30 -14.5 -43t-22 -13h-8.5l-16 2v16h2q23 0 23 25v34h-9q-20 0 -20 19z" />
    <glyph glyph-name="dagger" unicode="&#x2020;" horiz-adv-x="393" 
d="M25 504v29l150 7l6 230h31l6 -230l151 -7v-29l-151 -7l-7 -569h-31l-5 569z" />
    <glyph glyph-name="daggerdbl" unicode="&#x2021;" horiz-adv-x="417" 
d="M25 187v29l152 7l-2 274l-150 7v29l150 7l7 230h30l6 -230l151 -7v-29l-151 -7l-3 -274l154 -7v-29l-155 -7l-3 -252h-31l-2 252z" />
    <glyph glyph-name="bullet" unicode="&#x2022;" horiz-adv-x="317" 
d="M105 358v46q0 36 33 36h41q35 0 35 -36v-46q0 -32 -35 -32h-41q-33 0 -33 32z" />
    <glyph glyph-name="ellipsis" unicode="&#x2026;" horiz-adv-x="810" 
d="M644 16v60q0 16 17 16h25q16 0 16 -16v-60q0 -16 -16 -16h-25q-7 0 -12 4.5t-5 11.5zM372 16v60q0 16 17 16h25q16 0 16 -16v-60q0 -16 -16 -16h-25q-7 0 -12 4.5t-5 11.5zM100 16v60q0 16 17 16h25q16 0 16 -16v-60q0 -16 -16 -16h-25q-7 0 -12 4.5t-5 11.5z" />
    <glyph glyph-name="perthousand" unicode="&#x2030;" horiz-adv-x="1379" 
d="M52 474v133q0 66 28 95.5t101 29.5h101q71 0 99 -29.5t28 -95.5v-133q0 -66 -28 -95.5t-101 -29.5h-101q-71 0 -99 29.5t-28 95.5zM84 474q0 -53 21.5 -73t73.5 -20h101q55 0 76 19.5t21 73.5v133q0 52 -20.5 72.5t-74.5 20.5h-101q-55 0 -76 -19t-21 -74v-133zM237 0
l438 732h38l-438 -732h-38zM546 128v133q0 66 28 95.5t101 29.5h101q71 0 99 -29.5t28 -95.5v-133q0 -66 -28 -95.5t-101 -29.5h-101q-71 0 -99 29.5t-28 95.5zM578 128q0 -53 21.5 -73t73.5 -20h101q55 0 76 19.5t21 73.5v133q0 52 -20.5 72.5t-74.5 20.5h-101
q-55 0 -76 -19t-21 -74v-133zM971 128v133q0 66 28 95.5t101 29.5h101q71 0 99 -29.5t28 -95.5v-133q0 -66 -28 -95.5t-101 -29.5h-101q-71 0 -99 29.5t-28 95.5zM1003 128q0 -53 21.5 -73t73.5 -20h101q55 0 76 19.5t21 73.5v133q0 52 -20.5 72.5t-74.5 20.5h-101
q-55 0 -76 -19t-21 -74v-133z" />
    <glyph glyph-name="guilsinglleft" unicode="&#x2039;" horiz-adv-x="355" 
d="M62 354l206 203l28 -28l-178 -175l184 -179l-30 -29z" />
    <glyph glyph-name="guilsinglright" unicode="&#x203a;" horiz-adv-x="355" 
d="M62 175l182 179l-178 175l30 28l206 -203l-212 -208z" />
    <glyph glyph-name="fraction" unicode="&#x2044;" horiz-adv-x="185" 
d="M-111 0l373 757h34l-373 -757h-34z" />
    <glyph glyph-name="zerosuperior" unicode="&#x2070;" horiz-adv-x="495" 
d="M74 482v255q0 60 30 85t87 25h117q113 0 113 -110v-255q0 -66 -28.5 -88t-84.5 -22h-117q-86 0 -107 51q-10 23 -10 59zM107 486q0 -48 19.5 -64.5t68.5 -16.5h109q52 0 68 18t16 63v247q0 42 -18.5 61.5t-65.5 19.5h-109q-49 0 -68.5 -18.5t-19.5 -62.5v-247z" />
    <glyph glyph-name="foursuperior" unicode="&#x2074;" horiz-adv-x="411" 
d="M302 558v121l16 48h17v-169h59v-23l-59 -12v-150h-33v150h-272l-10 15l196 309h37l-183 -289h232z" />
    <glyph glyph-name="fivesuperior" unicode="&#x2075;" horiz-adv-x="440" 
d="M216 654l67 -1q57 0 83 -26.5t26 -80.5v-64q0 -59 -29.5 -86.5t-79.5 -27.5q-162 0 -215 9v25h211q80 0 80 84v56q0 59 -35 72q-17 6 -43 6h-112q-29 0 -50 -19t-22 -46h-29l15 292h295v-33h-265l-11 -200q17 29 60 36q33 4 54 4z" />
    <glyph glyph-name="sixsuperior" unicode="&#x2076;" horiz-adv-x="461" 
d="M152 846q16 5 43 6t81.5 1t118.5 -9v-25h-204q-54 0 -73 -59q-18 -53 -18 -133q92 10 206 10q61 0 83 -22t22 -65v-73q0 -52 -28.5 -78.5t-76.5 -26.5h-107q-30 0 -52 10q-80 34 -80 226q0 172 53 218q16 15 32 20zM100 604q0 -199 98 -199h106q74 0 74 75v68
q0 35 -17.5 45.5t-56.5 10.5h-204z" />
    <glyph glyph-name="sevensuperior" unicode="&#x2077;" horiz-adv-x="374" 
d="M18 816v33h325l12 -20l-183 -456h-35l177 443h-296z" />
    <glyph glyph-name="eightsuperior" unicode="&#x2078;" horiz-adv-x="495" 
d="M81 475v58q0 33 21.5 52.5t45.5 22.5q-35 8 -51 32.5t-16 54.5v40q0 65 30.5 91t85.5 26h110q54 0 81 -27t27 -90v-40q0 -26 -15.5 -50t-47.5 -28q25 -4 44 -29.5t19 -54.5v-58q0 -104 -105 -104h-120q-63 0 -86 28t-23 76zM114 479q0 -41 17.5 -58t62.5 -17h112
q38 0 57 17.5t19 57.5v50q0 33 -21 50t-47 17h-122q-35 0 -56.5 -18t-21.5 -48v-51zM114 699q0 -35 20.5 -52.5t51.5 -17.5h124q32 0 52 19.5t20 50.5v32q0 51 -19.5 69.5t-64.5 18.5h-97q-46 0 -66.5 -19t-20.5 -69v-32z" />
    <glyph glyph-name="ninesuperior" unicode="&#x2079;" horiz-adv-x="461" 
d="M56 675v73q0 52 28.5 78.5t76.5 26.5h107q30 0 52 -9q80 -35 80 -227q0 -153 -38 -202q-18 -23 -37 -32q-25 -12 -111.5 -12t-141.5 10v25h203q52 0 71.5 52t20.5 140q-83 -9 -206 -9q-61 0 -83 21.5t-22 64.5zM89 677q0 -35 17.5 -45.5t56.5 -10.5h204q0 199 -97 199
h-107q-74 0 -74 -75v-68z" />
    <glyph glyph-name="zeroinferior" unicode="&#x2080;" horiz-adv-x="495" 
d="M74 -90v255q0 60 30 85t87 25h117q113 0 113 -110v-255q0 -66 -28.5 -88t-84.5 -22h-117q-86 0 -107 51q-10 23 -10 59zM107 -86q0 -48 19.5 -64.5t68.5 -16.5h109q52 0 68 18t16 63v247q0 42 -18.5 61.5t-65.5 19.5h-109q-49 0 -68.5 -18.5t-19.5 -62.5v-247z" />
    <glyph glyph-name="oneinferior" unicode="&#x2081;" horiz-adv-x="260" 
d="M181 277v-476h-33v441l-128 -43v23l128 55h33z" />
    <glyph glyph-name="twoinferior" unicode="&#x2082;" horiz-adv-x="402" 
d="M39 250q-2 0 -2 6t2 17q83 10 183 10q130 0 130 -136q0 -41 -28 -86q-29 -49 -57 -78t-44.5 -45.5t-38.5 -35.5t-34 -30q-44 -36 -48 -38h249v-33h-309v29q2 2 35 28t50 40t50.5 43.5t53.5 51.5t43 50q43 54 43 103.5t-22 76.5t-81 27h-175z" />
    <glyph glyph-name="threeinferior" unicode="&#x2083;" horiz-adv-x="426" 
d="M37 245v22q42 11 195 11q61 0 91 -31.5t30 -80.5v-35q0 -36 -24 -60.5t-47 -29.5q24 -8 47.5 -33.5t23.5 -63.5v-28q0 -58 -28 -88.5t-98 -30.5q-139 0 -186 13v20h178q55 0 78 19.5t23 70.5v23q0 40 -29 61t-68 22l-142 4v23l142 5q43 2 70.5 22t27.5 54v31q0 80 -93 80
h-191z" />
    <glyph glyph-name="fourinferior" unicode="&#x2084;" horiz-adv-x="411" 
d="M302 -14v121l16 48h17v-169h59v-23l-59 -12v-150h-33v150h-272l-10 15l196 309h37l-183 -289h232z" />
    <glyph glyph-name="fiveinferior" unicode="&#x2085;" horiz-adv-x="440" 
d="M216 82l67 -1q57 0 83 -26.5t26 -80.5v-64q0 -59 -29.5 -86.5t-79.5 -27.5q-162 0 -215 9v25h211q80 0 80 84v56q0 59 -35 72q-17 6 -43 6h-112q-29 0 -50 -19t-22 -46h-29l15 292h295v-33h-265l-11 -200q17 29 60 36q33 4 54 4z" />
    <glyph glyph-name="sixinferior" unicode="&#x2086;" horiz-adv-x="461" 
d="M152 274q16 5 45 6.5t84.5 1.5t113.5 -10v-25h-204q-54 0 -73 -59q-18 -53 -18 -133q92 10 206 10q61 0 83 -22t22 -65v-73q0 -52 -28.5 -78.5t-76.5 -26.5h-107q-30 0 -52 10q-80 34 -80 226q0 172 53 218q16 15 32 20zM100 32q0 -199 98 -199h106q74 0 74 75v68
q0 35 -17.5 45.5t-56.5 10.5h-204z" />
    <glyph glyph-name="seveninferior" unicode="&#x2087;" horiz-adv-x="374" 
d="M18 244v33h325l12 -20l-183 -456h-35l177 443h-296z" />
    <glyph glyph-name="eightinferior" unicode="&#x2088;" horiz-adv-x="495" 
d="M81 -39q0 33 21.5 52.5t45.5 22.5q-35 8 -51 32.5t-16 54.5v40q0 65 30.5 91t85.5 26h110q54 0 81 -27t27 -90v-40q0 -26 -15.5 -50t-47.5 -28q25 -4 44 -29.5t19 -54.5v-58q0 -104 -105 -104h-120q-63 0 -86 28t-23 76v58zM114 -42v-51q0 -41 17.5 -58t62.5 -17h112
q38 0 57 17.5t19 57.5v50q0 33 -21 50t-47 17h-122q-35 0 -56.5 -18t-21.5 -48zM114 127q0 -35 20.5 -52.5t51.5 -17.5h124q32 0 52 19.5t20 50.5v32q0 51 -19.5 69.5t-64.5 18.5h-97q-46 0 -66.5 -19t-20.5 -69v-32z" />
    <glyph glyph-name="nineinferior" unicode="&#x2089;" horiz-adv-x="461" 
d="M56 103v73q0 52 28.5 78.5t76.5 26.5h107q30 0 52 -9q80 -35 80 -227q0 -153 -38 -202q-18 -23 -37 -32t-50 -10t-86.5 -1t-116.5 9v25h203q52 0 71.5 52t20.5 140q-83 -9 -206 -9q-61 0 -83 21.5t-22 64.5zM89 105q0 -35 17.5 -45.5t56.5 -10.5h204q0 199 -97 199h-107
q-74 0 -74 -75v-68z" />
    <glyph glyph-name="Euro" unicode="&#x20ac;" horiz-adv-x="600" 
d="M260.5 728.5q38.5 11.5 113 11.5t198.5 -23v-30q-16 1 -42 3q-88 9 -161 9t-109 -13.5t-56.5 -34t-31.5 -53.5q-18 -51 -18 -141l267 -5v-24l-267 -5v-127l267 -5v-25q-17 0 -45 -0.5t-87 -1.5t-97.5 -1.5t-38 -3t0.5 -5.5q0 -97 51.5 -157.5t141.5 -61.5h35q73 0 160 10
l34 4v-29q-105 -26 -229 -26q-62 0 -105.5 23.5t-68.5 51.5t-42.5 78t-17.5 114l-88 5v25l88 5v127l-88 5v23l88 6v18t0.5 31t5 47.5t12.5 53.5t25 49t41.5 44t63 28.5z" />
    <glyph glyph-name="afii61289" unicode="&#x2113;" horiz-adv-x="406" 
d="M330 605q0 -135 -195 -311v-106q0 -109 36 -133q15 -10 66.5 -19.5t56.5 -9.5v-27h-77q-64 0 -93.5 43.5t-29.5 145.5v72q-16 -18 -43 -31l-14 19q25 23 57 56v328q1 49 33.5 78t85 29t85 -40t32.5 -94zM286 607q0 17 -5.5 39t-29.5 37t-47 15q-28 0 -48.5 -19.5
t-20.5 -52.5v-276q5 6 20 22.5t22.5 25t22 26t22.5 28.5t20 29t18.5 31t13.5 30.5t9.5 32.5t2.5 32z" />
    <glyph glyph-name="afii61352" unicode="&#x2116;" horiz-adv-x="1087" 
d="M88 0v651q0 48 34 71q23 16 42 16q67 0 89 -58l245 -614q12 -30 40 -30q13 0 28 11.5t16 38.5v482q0 167 135 167h189q74 -2 103 -45t29 -133t-29.5 -133t-102.5 -43h-66q-77 0 -104.5 50.5t-27.5 183.5h33q0 -153 43 -185q20 -16 58 -16h61q52 0 77 32t25 93.5t-7.5 92
t-24 44.5t-32.5 18.5t-41 4.5h-185q-92 0 -92 -129v-491q0 -43 -28.5 -64.5t-56.5 -21.5q-57 0 -78 56l-245 614q-13 33 -42 33q-14 0 -28.5 -12.5t-14.5 -38.5v-645h-42z" />
    <glyph glyph-name="trademark" unicode="&#x2122;" horiz-adv-x="699" 
d="M25 701v31h259v-31h-114v-318h-31v318h-114zM323 383l27 349h28l128 -296l115 296h30l31 -349h-30l-25 278l-108 -278h-25l-120 279l-21 -279h-30z" />
    <glyph glyph-name="estimated" unicode="&#x212e;" horiz-adv-x="749" 
d="M676 258h-488q-3 0 -3 -11v-133q0 -25 56.5 -59t122.5 -34t117.5 23.5t84.5 60.5h56q-58 -61 -114.5 -83t-132.5 -22q-138 0 -219.5 75.5t-81.5 189.5t84 193q84 75 212 75t214 -66.5t92 -208.5zM185 284q0 -9 9 -9h357h7q6 4 6 7v133q0 32 -63 65.5t-120 33.5t-103 -19
t-69.5 -40t-23.5 -34v-137z" />
    <glyph glyph-name="partialdiff" unicode="&#x2202;" horiz-adv-x="664" 
d="M70 227q0 221 253 221q123 0 200 -55q-3 157 -53.5 231.5t-170.5 74.5q-96 0 -183 -54l-12 24q59 38 99.5 54.5t98.5 16.5q139 0 200.5 -91t61.5 -262q0 -227 -106 -333q-59 -59 -155 -59t-164.5 59.5t-68.5 172.5zM163.5 364.5q-52.5 -43.5 -52.5 -136.5t57.5 -142.5
t141.5 -49.5q51 0 90.5 25.5t62 62.5t37.5 84q23 77 23 156q-28 16 -87.5 30t-112.5 14q-107 0 -159.5 -43.5z" />
    <glyph glyph-name="uni2206" unicode="&#x2206;" horiz-adv-x="733" 
d="M25 0l328 732h39l317 -732h-684zM89 41h557l-272 633z" />
    <glyph glyph-name="product" unicode="&#x220f;" horiz-adv-x="607" 
d="M25 691v41h557v-41h-87v-691h-41v691h-302v-691h-41v691h-86z" />
    <glyph glyph-name="summation" unicode="&#x2211;" horiz-adv-x="573" 
d="M49 732h500v-41h-450l213 -421l-213 -426h450v-44h-500v44l214 426l-214 421v41z" />
    <glyph glyph-name="minus" unicode="&#x2212;" horiz-adv-x="445" 
d="M25 336v40h396v-40h-396z" />
    <glyph glyph-name="radical" unicode="&#x221a;" horiz-adv-x="604" 
d="M25 317v41h113l136 -296l265 738h41l-285 -800h-35l-147 317h-88z" />
    <glyph glyph-name="infinity" unicode="&#x221e;" horiz-adv-x="809" 
d="M62 341q0 38 5 64.5t19 53.5q30 55 129 55q52 0 103.5 -41.5t85.5 -93.5q31 50 85 92.5t104.5 42.5t83 -15t47.5 -43q24 -46 24 -115q0 -126 -76 -159q-31 -13 -84 -13t-102.5 40t-81.5 98q-32 -60 -80.5 -99t-101.5 -39t-84.5 13.5t-47 38.5t-22 53.5t-6.5 66.5z
M125.5 443q-22.5 -30 -22.5 -99.5t25 -101.5t87 -32q87 0 170 132q-36 54 -82.5 92.5t-87.5 38.5q-67 0 -89.5 -30zM595 210q65 0 88.5 34t23.5 98.5t-22 97.5t-90 33q-41 0 -90.5 -41t-81.5 -90q79 -132 172 -132z" />
    <glyph glyph-name="integral" unicode="&#x222b;" horiz-adv-x="450" 
d="M25 -163h94q44 0 60 32q9 18 14.5 34t7.5 51q3 51 3 134v418q0 155 18 208q21 60 56 76q21 10 44 10t35.5 -0.5t23.5 -2.5t15 -3q8 -2 30 -9v-26h-95q-34 0 -50 -21q-9 -11 -15.5 -22t-10 -32t-6 -35t-3.5 -41.5t-1 -43.5v-535q0 -72 -4.5 -96t-10 -49.5t-14 -37.5
t-20.5 -26q-22 -24 -70 -24q-79 0 -101 15v26z" />
    <glyph glyph-name="approxequal" unicode="&#x2248;" horiz-adv-x="492" 
d="M136.5 302.5q23.5 10.5 46.5 10.5t68 -30.5t62.5 -30.5t33 5.5t25 11.5t25.5 17t23 15l12 -19q-16 -16 -23 -21t-16.5 -13t-14.5 -11t-14 -8t-16 -7q-19 -6 -38.5 -6t-64 30.5t-62 30.5t-32.5 -4.5t-24.5 -9.5t-27.5 -16t-27 -16l-10 20q24 21 37.5 31t37 20.5z
M136.5 478.5q23.5 10.5 46.5 10.5t68 -30t62.5 -30t33 5.5t25 11t26.5 16.5l22 15l12 -19q-51 -45 -73.5 -55t-45.5 -10t-67.5 30.5t-62 30.5t-32.5 -4.5t-24.5 -9.5t-27.5 -16t-27 -16l-10 19q24 21 37.5 31t37 20.5z" />
    <glyph glyph-name="notequal" unicode="&#x2260;" horiz-adv-x="476" 
d="M25 212v43h138l120 197h-258v43h284l46 75h32l-46 -75h111v-43h-136l-120 -197h256v-43h-283l-52 -86h-32l52 86h-112z" />
    <glyph glyph-name="lessequal" unicode="&#x2264;" horiz-adv-x="498" 
d="M62 120v41h377v-41h-377zM62 414v41l354 182v-45l-301 -157l301 -168v-46z" />
    <glyph glyph-name="greaterequal" unicode="&#x2265;" horiz-adv-x="498" 
d="M62 120v41h377v-41h-377zM83 221v46l301 168l-301 157v45l356 -182v-41z" />
    <glyph glyph-name="lozenge" unicode="&#x25ca;" horiz-adv-x="531" 
d="M25 373l223 359h41l218 -359l-218 -373h-41zM73 373l196 -323l191 323l-191 314z" />
    <glyph glyph-name="f_f" unicode="&#xfb00;" horiz-adv-x="762" 
d="M25 490v27l97 14v89q0 109 56 140q27 16 67 16t122 -19v-26l-113 5h-6q-43 0 -64 -27.5t-21 -88.5v-89h326v99q0 83 23 118q27 38 80 38q80 0 147 -20v-26l-136 6h-5q-41 0 -54.5 -29.5t-13.5 -86.5v-99h167v-41h-168v-491h-41v491h-325v-490h-41v490h-97z" />
    <glyph glyph-name="f_f_i" unicode="&#xfb03;" horiz-adv-x="964" 
d="M25 490v27l97 14v89q0 109 56 140q27 16 67 16t122 -19v-26l-113 5h-6q-43 0 -64 -27.5t-21 -88.5v-89h320v53q0 91 47.5 146.5t134.5 55.5t183 -24v-26l-171 9h-10q-61 0 -102 -37.5t-41 -123.5v-53l367 -8v-523h-41v490h-327v-490h-41v490h-319v-490h-41v490h-97z" />
    <glyph glyph-name="ffl" unicode="&#xfb04;" horiz-adv-x="1076" 
d="M25 490v27l97 14v89q0 109 56 140q27 16 67 16t122 -19v-26l-113 5h-6q-43 0 -64 -27.5t-21 -88.5v-89h317v53q0 89 39.5 145t124.5 56h249v-594q0 -94 29 -122q14 -14 23.5 -18t54.5 -13t52 -9v-27h-74q-66 0 -96 44.5t-30 144.5v556h-198q-133 0 -133 -163v-53h147v-41
h-147v-490h-41v490h-317v-490h-41v490h-97z" />
    <glyph glyph-name="s_t" unicode="&#xfb06;" horiz-adv-x="861" 
d="M49 354v47q0 65 32 98t106 33h433l12 148h29v-148h168v-40h-168v-304q0 -98 28 -124q15 -13 24.5 -17t54 -12t49.5 -8v-28h-71q-66 0 -96 44t-30 145v304l-433 -1q-55 0 -76 -21.5t-21 -68.5v-47q0 -27 5.5 -43t21 -22.5t28 -7.5t42.5 -1h138q61 0 95.5 -29.5t34.5 -82.5
v-47q0 -74 -36 -101t-82.5 -27t-141 5t-124.5 8v28h254q89 0 89 87v47q0 71 -89 71h-138q-77 0 -107.5 21t-30.5 94z" />
    <glyph glyph-name="exclamdown.alt" horiz-adv-x="263" 
d="M101 655v60q0 16 16 16h26q16 0 16 -16v-60q0 -16 -16 -16h-26q-16 0 -16 16zM108 0l6 535h33l6 -535h-45z" />
    <glyph glyph-name="zero.oldstyle" horiz-adv-x="655" 
d="M86 162v307q0 78 48.5 120t123.5 42h144q87 0 127.5 -44.5t40.5 -117.5v-307q0 -162 -168 -162h-144q-75 0 -123.5 39t-48.5 123zM127 162q0 -61 35.5 -91t95.5 -30h144q127 0 127 121v307q0 121 -127 121h-144q-62 0 -96.5 -32.5t-34.5 -88.5v-307z" />
    <glyph glyph-name="one.oldstyle" horiz-adv-x="350" 
d="M246 632v-632h-41v586l-168 -66v27l168 85h41z" />
    <glyph glyph-name="two.oldstyle" horiz-adv-x="597" 
d="M50 598v27q97 15 170.5 15t112.5 -2q102 0 152.5 -49.5t50.5 -137.5q0 -47 -35.5 -103.5t-86 -104.5t-108.5 -93q-105 -80 -165 -109h389v-41h-474v38q85 45 174 109t140.5 110.5t87.5 99.5t36 96q0 145 -164 145h-5h-275z" />
    <glyph glyph-name="three.oldstyle" horiz-adv-x="622" 
d="M62 594v25q64 17 228 17q33 0 70 -1q84 -1 127.5 -47t43.5 -118v-69q0 -62 -33 -94.5t-69 -40.5q38 -13 70 -48t32 -97v-59q0 -168 -179 -168q-224 0 -284 17v25h282q137 0 137 126v59q0 63 -41.5 92t-93.5 31l-222 7v29l222 7q60 2 98.5 30.5t38.5 83.5v69
q0 62 -37.5 93t-95.5 31h-294z" />
    <glyph glyph-name="four.oldstyle" horiz-adv-x="584" 
d="M429 145v226l19 75h22v-301h90v-29l-90 -13v-202h-41v202h-385l-19 29l311 499h48l-301 -486h346z" />
    <glyph glyph-name="five.oldstyle" horiz-adv-x="654" 
d="M94 -62h304q54 0 88 34.5t34 94.5v100q0 127 -123 127h-153q-42 0 -76.5 -31.5t-34.5 -76.5h-38l22 445h423v-41h-385l-15 -308q11 17 40 34.5t67 18.5h151q163 0 163 -166v-104q0 -48 -16 -83.5t-43 -53.5q-50 -33 -104 -33q-204 0 -304 15v28z" />
    <glyph glyph-name="six.oldstyle" horiz-adv-x="631" 
d="M129 652q49 86 123 86q185 0 282 -12v-29h-275q-40 0 -69 -31t-43 -82q-26 -93 -26 -186q128 15 276 15q93 0 127 -38.5t34 -108.5v-118q0 -149 -161 -149h-129q-43 0 -75.5 17.5t-58.5 59.5q-54 85 -54 287.5t49 288.5zM121 371q0 -331 147 -331h129q121 0 121 109v117
q0 62 -31.5 83.5t-89.5 21.5h-276z" />
    <glyph glyph-name="seven.oldstyle" horiz-adv-x="538" 
d="M37 590v41h445l19 -31l-247 -701h-48l245 691h-414z" />
    <glyph glyph-name="eight.oldstyle" horiz-adv-x="647" 
d="M92 154v99q0 51 30 79t65 32q-95 20 -95 135v65q0 95 46 134t130 39h126q82 0 122 -41t40 -132v-65q0 -55 -38 -93q-20 -21 -48 -25q86 -22 86 -129v-98q0 -46 -16 -78.5t-42 -47.5q-48 -28 -105 -28h-125q-49 0 -84 12.5t-52.5 29t-27.5 40.5q-12 33 -12 72zM133 151
q0 -110 135 -110h125q48 0 85 27t37 83v105q0 98 -119 98h-139q-44 0 -84 -24t-40 -74v-105zM133 494q0 -100 124 -100h139q61 0 90 30.5t29 69.5v68q0 72 -29.5 103t-91.5 31h-126q-72 0 -103.5 -30.5t-31.5 -103.5v-68z" />
    <glyph glyph-name="nine.oldstyle" horiz-adv-x="631" 
d="M74 365v118q0 149 161 149h129q43 0 75.5 -17.5t58.5 -59.5q54 -85 54 -287.5t-49 -288.5t-123 -86q-202 0 -282 12v29h276q40 0 69 31t43 81q25 96 25 187q-127 -15 -276 -15q-93 0 -127 38.5t-34 108.5zM114 365q0 -62 31.5 -83.5t89.5 -21.5h276q0 331 -147 331h-129
q-121 0 -121 -109v-117z" />
    <glyph glyph-name="questiondown.alt" horiz-adv-x="535" 
d="M49 178v102q0 99 64 135q45 25 124 25q32 0 71 -4v102h43v-136h-119q-142 -2 -142 -122v-102q0 -79 38 -111t125 -32h257v-28q-114 -13 -178 -13h-75h-14q-106 0 -150 47t-44 137zM302 656v61q0 15 15 15h26q16 0 16 -15v-61q0 -16 -16 -16h-26q-15 0 -15 16z" />
    <glyph glyph-name="at.alt" horiz-adv-x="859" 
d="M249 605h205q63 0 108 -32.5t45 -107.5v-372h-30l-9 64l-14 -7q-117 -66 -195 -66h-3q-53 0 -89.5 33t-35.5 84v53q0 61 34 97t95 36h206v56v20q0 101 -115 101h-202q-127 0 -127 -123v-348q0 -74 37.5 -105t89.5 -31h329q71 0 103.5 33.5t32.5 102.5v512
q0 68 -35.5 107.5t-100.5 39.5h-394v25q76 16 249 16h39l106 -1q82 -2 129.5 -49t47.5 -138v-512q0 -178 -177 -178h-329q-78 0 -123 46t-45 132l-1 348q0 76 38 117q16 18 50 32.5t81 14.5zM272 207q0 -36 26 -59t68 -23h2q74 0 198 59v176l-201 -12q-93 -7 -93 -96v-45z
" />
    <glyph glyph-name="g.salt" horiz-adv-x="560" 
d="M108 467q46 70 138 70q89 0 164 -8t76 -8v-625q0 -86 -46.5 -127.5t-97.5 -41.5q-7 0 -14 1l-238 24v26l238 -10h8q41 0 75 31.5t34 96.5v133q-44 -18 -102.5 -28.5t-105.5 -10.5t-84 20.5t-57 59.5q-34 70 -34 198.5t46 198.5zM103 268q0 -119 31 -178t112 -59
q62 0 104.5 9.5t94.5 22.5v433h-199q-143 0 -143 -228z" />
    <glyph glyph-name="ampersand.salt" horiz-adv-x="940" 
d="M54 286v89q0 96 49.5 126.5t161.5 30.5h454l13 148h28v-149h155v-27l-155 -13v-304q0 -187 -233 -187h-144q-46 0 -77 6t-58 23q-53 33 -53 140q-56 0 -98.5 26.5t-42.5 90.5zM95 286q0 -74 100 -76q0 90 37 136t118 46h129q80 0 103 -24q27 -29 27 -92.5t-29 -85
t-101 -21.5h-243q0 -80 35 -103.5t112 -24.5h144q192 0 192 146v304h-454q-96 0 -133 -20.5t-37 -95.5v-89zM236 210h243q54 0 71.5 12.5t17.5 57.5t-17.5 58t-71.5 13h-129q-57 0 -85.5 -29t-28.5 -112z" />
    <glyph glyph-name="a.superior" horiz-adv-x="368" 
d="M50 723q70 16 159 16q47 0 79 -25.5t32 -77.5v-258h-21l-11 56l-10 -6q-62 -37 -92 -45.5t-48 -8.5q-41 0 -70.5 23.5t-29.5 65.5v46q0 41 27 65.5t73 24.5q150 0 150 1q1 30 0 31q0 76 -85 76t-153 -7v23zM71 467q0 -30 20 -45t48 -15t65 12.5t60 24.5l24 12v121
l-148 -9q-69 -3 -69 -61v-40z" />
    <glyph glyph-name="b.superior" horiz-adv-x="388" 
d="M47 378v524h33v-193q72 30 139 30q112 0 123 -130q2 -23 2 -55q0 -180 -128 -180q-65 0 -136 56l-12 -52h-21zM213 407q98 0 98 147q0 87 -21.5 119.5t-74.5 32.5q-45 0 -88.5 -10.5t-46.5 -11.5v-231q5 -2 20 -10.5t24.5 -13t25.5 -10.5q31 -12 63 -12z" />
    <glyph glyph-name="c.superior" horiz-adv-x="357" 
d="M38 555q0 108 33 145t91 37t149 -20v-23q-89 10 -140.5 10t-75.5 -28.5t-24 -116t23 -120.5t78 -33q72 0 124 10l20 3v-24q-63 -21 -147 -22q-64 0 -97.5 37t-33.5 145z" />
    <glyph glyph-name="d.superior" horiz-adv-x="386" 
d="M38 554q0 106 32 146q30 39 95.5 39t137.5 -30v194h33v-525h-22l-11 52q-71 -56 -137 -56q-128 0 -128 180zM71 554q0 -147 98 -147q52 0 114 35q16 9 20 11v232q-88 21 -138 21t-72 -32.5t-22 -119.5z" />
    <glyph glyph-name="e.superior" horiz-adv-x="388" 
d="M68.5 412q-30.5 39 -30.5 142t35 141t126 38q35 0 56 -3t45 -14q45 -23 45 -108q0 -38 -25 -54.5t-82 -16.5h-167q0 -80 25 -105.5t80 -25.5q87 0 161 13v-23q-83 -23 -160.5 -23t-108 39zM71 569h165q36 0 56 8t20 32q0 54 -23.5 72.5t-91 18.5t-97 -24.5t-29.5 -106.5z
" />
    <glyph glyph-name="f.superior" horiz-adv-x="326" 
d="M32 687v21l74 10v80q0 105 97 105q39 0 92 -10v-22h-78q-45 0 -61.5 -18.5t-16.5 -58.5v-75h124v-32h-124v-309h-33v309h-74z" />
    <glyph glyph-name="g.superior" horiz-adv-x="414" 
d="M43 291v42l14 59q-18 16 -18 44q0 57 66 61q-24 9 -42 39t-18 67q0 63 32.5 96t88.5 33h211v-18l-74 -14q15 -7 29.5 -33.5t14.5 -69.5t-28 -80t-94 -37h-93q-27 0 -43.5 -10.5t-16.5 -28.5q0 -31 38 -35l149 -17q98 -12 98 -86v-8q0 -109 -101 -109h-104
q-50 0 -79.5 26.5t-29.5 78.5zM75 300q0 -82 85 -82h89q75 0 75 77v5q0 51 -74 59l-141 16l-34 8v-83zM78 603q0 -39 24 -65.5t67 -26.5h52q43 0 67.5 25t24.5 67t-21.5 69.5t-59.5 27.5h-63q-91 0 -91 -97z" />
    <glyph glyph-name="h.superior" horiz-adv-x="393" 
d="M47 378v523h33v-216q80 54 143.5 54t93 -33t29.5 -81v-247h-33v243q0 40 -25 62.5t-57.5 22.5t-60.5 -7q-33 -9 -90 -36v-285h-33z" />
    <glyph glyph-name="i.superior" horiz-adv-x="129" 
d="M42 794v36q0 15 14 15h16q13 0 13 -15v-36q0 -13 -13 -13h-16q-14 0 -14 13zM46 378v356h33v-356h-33z" />
    <glyph glyph-name="j.superior" horiz-adv-x="131" 
d="M43 795v37q0 14 14 14h16q13 0 13 -14v-37q0 -13 -13 -13h-16q-14 0 -14 13zM47 196v537h34v-358v-23q0 -85 -13 -156h-21z" />
    <glyph glyph-name="k.superior" horiz-adv-x="358" 
d="M47 378v521h33v-308h49l146 140h46l-162 -156l166 -197h-43l-151 180h-51v-180h-33z" />
    <glyph glyph-name="l.superior" horiz-adv-x="245" 
d="M46 504v396h33v-393q0 -53 15.5 -72t51.5 -25q64 -10 66 -10v-22h-67q-54 0 -76.5 30.5t-22.5 95.5z" />
    <glyph glyph-name="m.superior" horiz-adv-x="650" 
d="M47 378v354h26l7 -48q80 54 152 54t99 -54q72 54 155 54q55 0 86 -32.5t31 -81.5v-246h-33v242q0 40 -25 62.5t-62 22.5q-68 0 -143 -41q7 -15 7 -43v-243h-33v242q0 40 -25 62.5t-57.5 22.5t-60.5 -7q-34 -9 -91 -36v-284h-33z" />
    <glyph glyph-name="n.superior" horiz-adv-x="393" 
d="M47 378v354h25l7 -47q80 54 144 54t93.5 -33t29.5 -81v-247h-33v244q0 40 -24.5 62t-57 22t-60.5 -7q-34 -9 -91 -36v-285h-33z" />
    <glyph glyph-name="o.superior" horiz-adv-x="393" 
d="M71 417.5q-33 42.5 -33 135.5t32.5 137.5t123.5 44.5t122.5 -44t31.5 -137.5t-32 -136t-122 -42.5t-123 42.5zM96 668.5q-25 -33.5 -25 -118t28 -113.5t97 -29t94.5 32.5t25.5 116t-26 114.5t-97.5 31t-96.5 -33.5z" />
    <glyph glyph-name="p.superior" horiz-adv-x="387" 
d="M47 195v538h22l10 -52q71 56 138 56q126 0 126 -181q0 -136 -58 -170q-26 -16 -80.5 -16t-125.5 30v-205h-32zM79 425q88 -22 138 -22t71.5 33t21.5 120q0 148 -96 148q-40 0 -66.5 -12t-31 -14t-20.5 -11l-17 -9v-233z" />
    <glyph glyph-name="q.superior" horiz-adv-x="389" 
d="M73 691q35 48 102 48t163 -12v-533h-33v203q-72 -30 -128 -30q-139 0 -139 189q0 87 35 135zM71 556q0 -74 25 -115.5t88 -41.5q36 0 51 3.5t34 8.5t36 9v287h-121q-113 0 -113 -151z" />
    <glyph glyph-name="r.superior" horiz-adv-x="330" 
d="M47 378v354h21l12 -51q89 55 151 55q43 0 56 -6v-31q-18 4 -51.5 4t-61.5 -7t-43.5 -13.5t-50.5 -23.5v-281h-33z" />
    <glyph glyph-name="s.superior" horiz-adv-x="373" 
d="M38 616v35q0 91 95 91q59 0 176 -13v-22l-168 2h-5q-39 0 -52 -15.5t-13 -50.5v-24q0 -34 12.5 -41.5t52.5 -7.5h106q89 0 89 -79v-37q0 -87 -90 -87q-47 0 -186 16v21l175 -3q18 -4 42 5q11 4 18.5 18.5t7.5 38.5v25q0 27 -14 38t-47 11h-106q-52 0 -72.5 14.5
t-20.5 64.5z" />
    <glyph glyph-name="t.superior" horiz-adv-x="311" 
d="M33 701v22l74 9l12 101h21v-99h112v-33h-112v-196q0 -52 14 -72t55 -25l57 -8v-21h-59q-54 0 -77 28t-23 96v198h-74z" />
    <glyph glyph-name="u.superior" horiz-adv-x="392" 
d="M45 492v245h33v-244q0 -39 24.5 -61.5t57 -22.5t59.5 6.5t42.5 13.5t46.5 22v286h33v-354h-25l-8 46q-78 -53 -141 -53t-92.5 34t-29.5 82z" />
    <glyph glyph-name="v.superior" horiz-adv-x="413" 
d="M31 732h37l140 -307l135 307h37l-157 -354h-31z" />
    <glyph glyph-name="w.superior" horiz-adv-x="620" 
d="M31 732h37l140 -307l135 307h37l-52 -118l87 -189l136 307h36l-157 -354h-31l-90 195l-86 -195h-31z" />
    <glyph glyph-name="x.superior" horiz-adv-x="380" 
d="M32 378l138 178l-137 176h40l117 -149l115 149h41l-136 -176l138 -178h-41l-116 152l-118 -152h-41z" />
    <glyph glyph-name="y.superior" horiz-adv-x="419" 
d="M31 733h37l112 -277q19 -46 48 -46l122 323h37l-175 -469l-45 -68h-20l69 180q-45 8 -69 66z" />
    <glyph glyph-name="z.superior" horiz-adv-x="373" 
d="M38 702v30h290v-24l-239 -299h238v-30h-278v30l235 293h-246z" />
    <glyph glyph-name="zero.tnum" horiz-adv-x="625" 
d="M70 162v408q0 78 48.5 120t123.5 42h144q86 0 127 -45t41 -117v-408q0 -162 -168 -162h-144q-75 0 -123.5 39t-48.5 123zM111 162q0 -61 35.5 -91t95.5 -30h144q127 0 127 121v408q0 121 -127 121h-144q-62 0 -96.5 -32.5t-34.5 -88.5v-408z" />
    <glyph glyph-name="one.tnum" horiz-adv-x="624" 
d="M370 732v-689h174v-44h-396v44h181v643l-173 -67v27l173 86h41z" />
    <glyph glyph-name="two.tnum" horiz-adv-x="624" 
d="M69 700v29q103 13 284 13q104 0 153.5 -58t49.5 -152q0 -52 -37.5 -118.5t-87 -122t-113.5 -113.5q-94 -84 -167 -137h405v-41h-480v38q438 331 438 496.5t-162 165.5h-283z" />
    <glyph glyph-name="three.tnum" horiz-adv-x="624" 
d="M81 693v25q64 17 228 17q33 0 70 -1q84 -1 127.5 -47t43.5 -118v-69q0 -62 -33 -94.5t-69 -40.5q38 -13 70 -48t32 -97v-59q0 -168 -178 -168q-226 0 -285 17l1 25h281q62 0 100 27t38 99v59q0 63 -41.5 92t-93.5 31l-223 7v29l223 7q60 2 98.5 30.5t38.5 83.5v69
q0 62 -38 93t-96 31h-294z" />
    <glyph glyph-name="four.tnum" horiz-adv-x="624" 
d="M457 246v226l19 75h22v-301h90v-29l-90 -13v-202h-41v202h-385l-19 29l312 499h47l-301 -486h346z" />
    <glyph glyph-name="five.tnum" horiz-adv-x="624" 
d="M89 39h304q54 0 88 34.5t34 94.5v100q0 127 -123 127h-153q-42 0 -76.5 -31.5t-34.5 -76.5h-38l22 445h423v-41h-385l-15 -309q11 17 39.5 35t66.5 19h152q163 0 163 -166v-104q0 -48 -16 -83.5t-42 -52.5q-51 -34 -105 -34q-204 0 -304 15v28z" />
    <glyph glyph-name="six.tnum" horiz-adv-x="624" 
d="M138 652q49 86 123 86q183 0 282 -12v-29h-276q-40 0 -69 -31t-42 -82q-26 -95 -26 -186q128 15 276 15q93 0 127 -38.5t34 -108.5v-118q0 -149 -161 -149h-129q-43 0 -75.5 17.5t-59.5 59.5q-53 85 -53 287.5t49 288.5zM130 371q0 -331 147 -331h129q121 0 121 109v117
q0 62 -31.5 83.5t-89.5 21.5h-276z" />
    <glyph glyph-name="seven.tnum" horiz-adv-x="625" 
d="M85 691v41h445l20 -32l-247 -700h-49l245 691h-414z" />
    <glyph glyph-name="eight.tnum" horiz-adv-x="624" 
d="M80 154v99q0 51 30 79t65 32q-95 20 -95 135v65q0 95 46 134t130 39h126q82 0 122 -41t40 -132v-65q0 -55 -38 -93q-20 -21 -48 -25q86 -22 86 -129v-98q0 -46 -16 -78.5t-42 -47.5q-48 -28 -105 -28h-125q-49 0 -84 12.5t-52.5 29t-27.5 40.5q-12 33 -12 72zM121 151
q0 -110 135 -110h125q48 0 85 27t37 83v105q0 98 -119 98h-139q-44 0 -84 -24t-40 -74v-105zM121 494q0 -100 124 -100h139q61 0 90 30.5t29 69.5v68q0 72 -29.5 103t-91.5 31h-126q-72 0 -103.5 -30.5t-31.5 -103.5v-68z" />
    <glyph glyph-name="nine.tnum" horiz-adv-x="624" 
d="M65 468v118q0 149 161 149h129q43 0 75.5 -17.5t59.5 -59.5q53 -85 53 -287.5t-49 -288.5t-123 -86q-200 0 -282 12v29h276q40 0 69 31t42 81q26 94 26 186q-119 -14 -276 -14q-93 0 -127 38.5t-34 108.5zM105 468q0 -62 31.5 -83.5t89.5 -21.5h276q0 331 -147 331h-129
q-121 0 -121 -109v-117z" />
    <glyph glyph-name="zero.tosf" horiz-adv-x="624" 
d="M71 162v307q0 78 48.5 120t123.5 42h144q87 0 127.5 -44.5t40.5 -117.5v-307q0 -162 -168 -162h-144q-75 0 -123.5 39t-48.5 123zM112 162q0 -61 35.5 -91t95.5 -30h144q127 0 127 121v307q0 121 -127 121h-144q-62 0 -96.5 -32.5t-34.5 -88.5v-307z" />
    <glyph glyph-name="one.tosf" horiz-adv-x="624" 
d="M367 632v-589h173v-44h-390v44h176v543l-168 -66v27l168 85h41z" />
    <glyph glyph-name="two.tosf" horiz-adv-x="624" 
d="M69 598v27q97 15 170.5 15t112.5 -2q102 0 152.5 -49.5t50.5 -137.5q0 -47 -35.5 -103.5t-86 -104.5t-109.5 -93q-104 -80 -164 -109h389v-41h-474v38q85 45 174 109t140.5 110.5t87.5 99.5t36 96q0 145 -164 145h-5h-275z" />
    <glyph glyph-name="three.tosf" horiz-adv-x="624" 
d="M81 594v25q64 17 228 17q33 0 70 -1q84 -1 127.5 -47t43.5 -118v-69q0 -62 -33 -95t-69 -41q38 -13 70 -47.5t32 -96.5v-59q0 -168 -178 -168q-229 0 -285 16l1 26h281q62 0 100 27t38 99v59q0 63 -41.5 92t-93.5 31l-223 7v29l223 7q60 2 98.5 30.5t38.5 83.5v69
q0 62 -38 93t-96 31h-294z" />
    <glyph glyph-name="four.tosf" horiz-adv-x="624" 
d="M459 145v226l19 75h22v-301h90v-29l-90 -13v-202h-41v202h-385l-19 29l312 499h47l-301 -486h346z" />
    <glyph glyph-name="five.tosf" horiz-adv-x="624" 
d="M94 -62h304q54 0 88 34.5t34 94.5v100q0 127 -123 127h-153q-42 0 -76.5 -31.5t-34.5 -76.5h-38l22 445h423v-41h-385l-15 -308q11 17 40 34.5t67 18.5h151q163 0 163 -166v-104q0 -48 -16 -83.5t-43 -53.5q-50 -33 -104 -33q-204 0 -304 15v28z" />
    <glyph glyph-name="six.tosf" horiz-adv-x="624" 
d="M134 652q49 86 123 86q183 0 282 -12v-29h-276q-40 0 -69 -31t-42 -82q-26 -95 -26 -186q127 15 276 15q93 0 127 -38.5t34 -108.5v-118q0 -149 -161 -149h-129q-43 0 -75.5 17.5t-59.5 59.5q-53 85 -53 287.5t49 288.5zM126 371q0 -331 147 -331h129q121 0 121 109v117
q0 62 -31.5 83.5t-89.5 21.5h-276z" />
    <glyph glyph-name="seven.tosf" horiz-adv-x="624" 
d="M82 590v41h445l20 -31l-247 -701h-49l245 691h-414z" />
    <glyph glyph-name="eight.tosf" horiz-adv-x="624" 
d="M84 154v99q0 51 30 79t65 32q-95 20 -95 135v65q0 95 46 134t130 39h126q82 0 122 -41t40 -132v-65q0 -55 -38 -93q-20 -21 -48 -25q86 -22 86 -129v-98q0 -46 -16 -78.5t-42 -47.5q-48 -28 -105 -28h-125q-49 0 -84 12.5t-52.5 29t-27.5 40.5q-12 33 -12 72zM125 151
q0 -110 135 -110h125q48 0 85 27t37 83v105q0 98 -119 98h-139q-44 0 -84 -24t-40 -74v-105zM125 494q0 -100 124 -100h139q61 0 90 30.5t29 69.5v68q0 72 -29.5 103t-91.5 31h-126q-72 0 -103.5 -30.5t-31.5 -103.5v-68z" />
    <glyph glyph-name="nine.tosf" horiz-adv-x="624" 
d="M71 365v118q0 149 161 149h129q43 0 75.5 -17.5t59.5 -59.5q53 -85 53 -287.5t-49 -288.5t-123 -86q-202 0 -282 12v29h276q40 0 69 31t42 81q26 96 26 187q-128 -15 -276 -15q-93 0 -127 38.5t-34 108.5zM111 365q0 -62 31.5 -83.5t89.5 -21.5h276q0 331 -147 331h-129
q-121 0 -121 -109v-117z" />
    <glyph glyph-name="gbreve.salt" horiz-adv-x="560" 
d="M175 707h25q0 -38 26 -63.5t60 -25.5q42 0 68 25t26 64h25q0 -53 -35.5 -83.5t-80 -30.5t-79.5 31.5t-35 82.5zM108 467q46 70 138 70q89 0 164 -8t76 -8v-625q0 -86 -46.5 -127.5t-97.5 -41.5q-7 0 -14 1l-238 24v26l238 -10h8q41 0 75 31.5t34 96.5v133
q-44 -18 -102.5 -28.5t-105.5 -10.5t-84 20.5t-57 59.5q-34 70 -34 198.5t46 198.5zM103 268q0 -119 31 -178t112 -59q62 0 104.5 9.5t94.5 22.5v433h-199q-143 0 -143 -228z" />
    <glyph glyph-name="gdotaccent.salt" horiz-adv-x="560" 
d="M267 613v59q0 16 16 16h24q16 0 16 -16v-59q0 -16 -16 -16h-24q-16 0 -16 16zM108 467q46 70 138 70q89 0 164 -8t76 -8v-625q0 -86 -46.5 -127.5t-97.5 -41.5q-7 0 -14 1l-238 24v26l238 -10h8q41 0 75 31.5t34 96.5v133q-44 -18 -102.5 -28.5t-105.5 -10.5t-84 20.5
t-57 59.5q-34 70 -34 198.5t46 198.5zM103 268q0 -119 31 -178t112 -59q62 0 104.5 9.5t94.5 22.5v433h-199q-143 0 -143 -228z" />
    <glyph glyph-name="gcircumflex.salt" horiz-adv-x="560" 
d="M155 596l127 130h37l115 -130h-36l-98 100l-109 -100h-36zM108 467q46 70 138 70q89 0 164 -8t76 -8v-625q0 -86 -46.5 -127.5t-97.5 -41.5q-7 0 -14 1l-238 24v26l238 -10h8q41 0 75 31.5t34 96.5v133q-44 -18 -102.5 -28.5t-105.5 -10.5t-84 20.5t-57 59.5
q-34 70 -34 198.5t46 198.5zM103 268q0 -119 31 -178t112 -59q62 0 104.5 9.5t94.5 22.5v433h-199q-143 0 -143 -228z" />
    <glyph glyph-name="c_t" horiz-adv-x="816" 
d="M61.5 123q-12.5 56 -12.5 139.5t13 139t38.5 82.5t54 37t69.5 10h359l12 148h29v-148h168v-41h-168l1 -303q0 -98 28 -123q15 -14 24.5 -18t54 -12.5t49.5 -8.5v-27h-71q-66 0 -96 44t-30 145l-1 302h-359q-32 0 -54 -8t-42 -31q-38 -45 -38 -191q0 -138 37 -183
q19 -24 41.5 -33t59.5 -9q77 0 178 14l33 4v-30q-97 -28 -215 -29q-41 0 -69.5 10t-54.5 37t-38.5 83z" />
    <glyph glyph-name="t_t" horiz-adv-x="717" 
d="M25 491v30l89 11l11 148h30v-148h329l12 147h29v-148h169v-41h-169v-301q0 -98 28 -123q15 -14 24.5 -18t54.5 -12t50 -8v-28h-71q-67 0 -97 44.5t-30 144.5v301l-329 1v-302q0 -98 28 -123q15 -14 24.5 -18t54 -12.5t49.5 -8.5v-27h-71q-66 0 -96 44t-30 145v302h-89z
" />
    <glyph glyph-name="f_t" horiz-adv-x="746" 
d="M25 490v29l91 12v99q0 83 24 118q26 38 79 38q97 0 147 -15v-26l-136 1q-46 0 -59.5 -28t-13.5 -88v-99h357l11 149h30v-149h168v-41h-168v-301q0 -98 28 -123q15 -14 24.5 -18t54.5 -12.5t50 -8.5v-27h-71q-67 0 -97 44.5t-30 144.5v301h-358v-490h-41v490h-90z" />
    <glyph glyph-name="t_y" horiz-adv-x="914" 
d="M25 491v30l89 11l11 148h30v-148h161q82 -1 113.5 -24t54.5 -88l108 -301q13 -37 35.5 -55.5t38.5 -18.5h15l165 489h45l-233 -699l-56 -102h-25l92 270q-83 4 -120 110l-105 292q-19 53 -44 69t-84 16h-161v-301q0 -98 28 -123q15 -14 24.5 -18t54 -12.5t49.5 -8.5v-27
h-71q-66 0 -96 44t-30 145v302h-89z" />
    <glyph glyph-name="f_y" horiz-adv-x="936" 
d="M25 490v29l91 12v99q0 83 24 118q26 38 79 38q84 0 147 -19v-25l-136 4h-3q-43 0 -56.5 -28t-13.5 -88v-99l177 1q82 -1 114 -24t55 -88l110 -301q13 -37 35 -55.5t38 -18.5v1h16l165 488h45l-233 -699l-57 -102h-25l92 270q-82 4 -119 110l-107 292q-19 53 -44.5 69
t-84.5 16h-178v-490h-41v490h-90z" />
    <glyph glyph-name="gcommaaccent.salt" horiz-adv-x="560" 
d="M270 608v94q0 24 11 34t22 10h3l12 -2v-13q-19 0 -19 -19v-35h7q15 0 15 -16v-53q0 -16 -15 -16h-22q-14 0 -14 16zM108 467q46 70 138 70q89 0 164 -8t76 -8v-625q0 -86 -46.5 -127.5t-97.5 -41.5q-7 0 -14 1l-238 24v26l238 -10h8q41 0 75 31.5t34 96.5v133
q-44 -18 -102.5 -28.5t-105.5 -10.5t-84 20.5t-57 59.5q-34 70 -34 198.5t46 198.5zM103 268q0 -119 31 -178t112 -59q62 0 104.5 9.5t94.5 22.5v433h-199q-143 0 -143 -228z" />
    <glyph glyph-name="exclam.smcp" horiz-adv-x="263" 
d="M101 16v60q0 16 16 16h26q16 0 16 -16v-60q0 -16 -16 -16h-26q-16 0 -16 16zM107 570h45l-6 -404h-33z" />
    <glyph glyph-name="quotedbl.smcp" horiz-adv-x="301" 
d="M74 608h42v-67l-7 -134h-26l-9 134v67zM186 608h42v-67l-7 -134h-26l-9 134v67z" />
    <glyph glyph-name="numbersign.smcp" horiz-adv-x="568" 
d="M25 187l4 24h134l25 145h-138l4 25h138l32 189h25l-32 -189h150l32 189h25l-31 -189h153l-4 -25h-153l-24 -145h156l-4 -24h-156l-32 -188h-25l31 188h-150l-32 -188h-25l32 188h-135zM189 211h150l25 145h-151z" />
    <glyph glyph-name="dollar.smcp" horiz-adv-x="525" 
d="M62 397v31q0 96 60 124q29 14 57 18.5t69 4.5v65h34v-66q86 -2 158 -12v-29h-206q-72 0 -101.5 -25t-29.5 -80v-31q0 -47 34 -69.5t87 -22.5h82q75 0 115 -39t40 -93v-38q0 -50 -29 -83q-48 -56 -138 -56h-12v-65h-34v66q-11 1 -81 6t-87 8v28h218q46 0 83.5 23t37.5 73
v38q0 41 -32 67t-81 26h-82q-162 0 -162 131z" />
    <glyph glyph-name="percent.smcp" horiz-adv-x="785" 
d="M36 384v62q0 66 28 95.5t101 29.5h45q71 0 99 -29.5t28 -95.5v-62q0 -66 -28 -95.5t-101 -29.5h-45q-71 0 -99 29.5t-28 95.5zM68 384q0 -53 21.5 -73t73.5 -20h45q55 0 76 19.5t21 73.5v62q0 52 -20.5 72.5t-74.5 20.5h-45q-55 0 -76 -19t-21 -74v-62zM202 0l341 570h38
l-341 -570h-38zM449 125v63q0 66 28 95.5t101 29.5h45q71 0 99 -29.5t28 -95.5v-63q0 -66 -28 -95.5t-101 -29.5h-45q-71 0 -99 29.5t-28 95.5zM481 125q0 -53 21.5 -73t73.5 -20h45q55 0 76 19.5t21 73.5v63q0 52 -20.5 72.5t-74.5 20.5h-45q-55 0 -76 -19t-21 -74v-63z
" />
    <glyph glyph-name="ampersand.smcp" horiz-adv-x="535" 
d="M40 160q0 69 67 125l69 57l-44 57q-31 42 -31 76q0 38 23.5 63t52 30t77 5t145.5 -13v-26h-168q-46 0 -66.5 -16.5t-20.5 -38.5q0 -29 26 -63l203 -264l102 98l12 -14l-58 -85l-31 -32l91 -119h-48l-72 92l-62 -58q-45 -41 -103 -41q-27 0 -62.5 13.5t-68.5 59t-33 94.5z
M207 35q39 0 73 30l64 59l-143 185l-65 -53q-55 -46 -55 -96q0 -36 30 -76q37 -49 96 -49z" />
    <glyph glyph-name="quotesingle.smcp" horiz-adv-x="189" 
d="M74 607h42v-67l-7 -134h-26l-9 134v67z" />
    <glyph glyph-name="asterisk.smcp" horiz-adv-x="458" 
d="M62 437v23l141 12l1 -41zM137 265l31 134l41 -9l-50 -132zM196 575l22 8l69 -121l-39 -18zM228 342l22 37l116 -86l-13 -18zM272 413l114 80l13 -20l-99 -92z" />
    <glyph glyph-name="zero.smcp" horiz-adv-x="595" 
d="M86 162v246q0 80 48 121t124 41h84q44 0 76.5 -12.5t49.5 -30t27 -41.5q15 -37 15 -78v-246q0 -162 -168 -162h-84q-75 0 -123.5 39t-48.5 123zM127 162q0 -63 38 -92t93 -29h84q127 0 127 121v246q0 57 -31 89t-96 32h-84q-63 0 -97 -31.5t-34 -89.5v-246z" />
    <glyph glyph-name="one.smcp" horiz-adv-x="347" 
d="M249 585v-585h-41v539l-159 -65v26l159 85h41z" />
    <glyph glyph-name="two.smcp" horiz-adv-x="524" 
d="M271 571q193 0 193 -187q0 -76 -63 -145q-31 -34 -60.5 -61.5t-74.5 -57.5q-64 -42 -127 -79h320v-41h-404v39q168 101 208.5 133t70 59.5t46.5 50.5q41 55 41 103q0 70 -35.5 107.5t-117.5 37.5h-4l-215 -1v25q17 2 43.5 5.5t35.5 4.5t27.5 3t32.5 3q40 1 83 1z" />
    <glyph glyph-name="three.smcp" horiz-adv-x="528" 
d="M37 532v26q47 15 224 15h43q63 -1 97.5 -40.5t34.5 -102.5v-35q0 -49 -23.5 -77.5t-49.5 -34.5q27 -9 50 -39.5t23 -76.5v-30q0 -142 -138 -142q-214 0 -256 15v26h245q52 0 79 21.5t27 79.5v30q0 50 -29.5 72t-68.5 23l-205 6v32l205 4q42 1 71 22t29 69v35
q0 47 -26 74.5t-76 27.5h-256z" />
    <glyph glyph-name="four.smcp" horiz-adv-x="534" 
d="M379 200v181l19 75h22v-256h90v-30l-90 -13v-155h-41v155h-332l-22 28l216 385h47l-206 -370h297z" />
    <glyph glyph-name="five.smcp" horiz-adv-x="569" 
d="M94 42h246q117 0 117 110v49q0 77 -51 95q-24 8 -60 8h-100q-45 0 -79.5 -26.5t-34.5 -65.5h-37l17 358h360v-41h-320l-12 -234q13 19 42 34t64 15h100q84 0 118 -36t34 -105v-53q0 -79 -43.5 -114.5t-114.5 -36.5h-33q-151 0 -213 17v26z" />
    <glyph glyph-name="six.smcp" horiz-adv-x="570" 
d="M92.5 148q-12.5 62 -12.5 146.5t14 141.5t38 86q46 55 102 55h85t161 -11v-30h-245q-35 0 -59.5 -25t-35.5 -64q-19 -67 -19 -131q83 10 242 10q75 0 105 -28t30 -82v-89q0 -65 -37.5 -96t-97.5 -31h-123q-35 0 -61.5 12t-50 43t-36 93zM121 285q0 -244 119 -244h123
q94 0 94 90v85q0 39 -22.5 54t-71.5 15h-242z" />
    <glyph glyph-name="seven.smcp" horiz-adv-x="483" 
d="M37 529v41h389l21 -32l-196 -538h-46l194 529h-362z" />
    <glyph glyph-name="eight.smcp" horiz-adv-x="604" 
d="M92 133v47q0 53 25 76t57 27q-39 11 -60.5 44t-21.5 76v33q0 77 33 108t103 31h160q126 0 126 -139v-33q0 -43 -22 -73t-56 -36q33 -4 55.5 -39t22.5 -77v-45q0 -70 -36 -101.5t-91 -31.5h-161q-92 0 -116 52q-18 38 -18 81zM133 131q0 -46 22.5 -68t74.5 -22h153
q41 0 65.5 23.5t24.5 66.5v44q0 93 -94 93h-150q-96 0 -96 -90v-47zM133 402q0 -51 28.5 -71.5t67.5 -20.5h150q46 0 70.5 26.5t24.5 65.5v32q0 54 -21 77t-69 23h-152q-55 0 -77 -19t-22 -81v-32z" />
    <glyph glyph-name="nine.smcp" horiz-adv-x="570" 
d="M74 356v89q0 65 37.5 96t97.5 31h122q35 0 61.5 -12t49.5 -43q49 -64 49 -246q0 -158 -52 -221q-46 -55 -102 -55h-92.5t-152.5 11v30h245q35 0 59.5 25t35.5 65q18 69 18 130q-82 -10 -241 -10q-75 0 -105 28t-30 82zM115 356q0 -39 22.5 -54t71.5 -15h241
q0 244 -119 244h-122q-94 0 -94 -90v-85z" />
    <glyph glyph-name="question.smcp" horiz-adv-x="468" 
d="M25 529v30q104 12 150.5 12h53.5q101 0 146 -38t45 -112v-49q0 -54 -30 -86q-45 -48 -133 -48q-22 0 -46 3v-75h-43v111h80q131 2 131 95v49q0 62 -37.5 85t-119.5 23h-197zM160 16v60q0 16 16 16h25q17 0 17 -16v-60q0 -16 -17 -16h-25q-16 0 -16 16z" />
    <glyph glyph-name="at.smcp" horiz-adv-x="858" 
d="M80 42v348q0 75 37 117q16 18 50 32.5t81 14.5h205q63 0 108 -32.5t45 -107.5v-372h-29l-10 64l-13 -8q-118 -65 -196 -65h-3q-53 0 -89.5 33t-35.5 84v53q0 61 34 97t95 36h207v57v19q0 101 -116 101h-202q-127 0 -127 -123v-348q0 -74 37.5 -105t89.5 -31h329
q71 0 103.5 33.5t32.5 102.5v512q0 68 -35.5 107.5t-100.5 39.5h-394v25q77 16 249 16h39h106q82 -2 129.5 -49.5t47.5 -138.5v-512q0 -178 -177 -178h-329q-78 0 -123 46t-45 132zM367 74q73 0 199 60v175l-202 -12q-93 -7 -93 -96q-1 -1 -1 -22.5t1 -22.5q0 -36 26 -59
t68 -23h2z" />
    <glyph glyph-name="a.smcp" horiz-adv-x="581" 
d="M43 0l240 570h41l220 -570h-45l-67 172h-272l-72 -172h-45zM178 213h240l-115 302z" />
    <glyph glyph-name="b.smcp" horiz-adv-x="548" 
d="M98 0v571h245q58 0 94.5 -24.5t48 -56t11.5 -66.5t-8.5 -59t-24.5 -38q-26 -23 -56 -35q26 -5 59 -40.5t33 -94.5q0 -157 -157 -157h-245zM139 42h204q83 0 105 53q11 25 11 69.5t-33 76.5t-83 32q-96 -1 -147 -1t-57 1v-231zM139 314h204q51 0 82 26t31 81
q0 109 -113 109h-204v-216z" />
    <glyph glyph-name="c.smcp" horiz-adv-x="528" 
d="M71.5 210.5q-3.5 37.5 -3.5 91t8.5 100t29.5 88.5q44 88 166 88q37 0 110.5 -7t108.5 -15v-29q-12 2 -92 6t-127 4q-86 0 -124.5 -59.5t-38.5 -185t37 -190t126 -65.5l219 10v-29q-116 -22 -219 -22q-52 0 -90.5 18.5t-60 46.5t-34 70t-16 79.5z" />
    <glyph glyph-name="d.smcp" horiz-adv-x="610" 
d="M98 0v572h234q63 -1 108 -28t68 -72q43 -84 43 -189q0 -165 -68 -230q-22 -21 -39.5 -31t-42.5 -16q-30 -6 -69 -6h-234zM139 41h193q102 0 142 71q36 64 36 181.5t-51 177.5t-127 60h-193v-490z" />
    <glyph glyph-name="e.smcp" horiz-adv-x="525" 
d="M98 83v398q0 45 27.5 67.5t76.5 22.5l274 -10v-30h-272q-39 0 -52 -14t-13 -41v-170l306 -6v-30l-306 -6v-173q0 -52 52 -52h285v-29l-294 -12q-38 0 -61 23t-23 62z" />
    <glyph glyph-name="f.smcp" horiz-adv-x="525" 
d="M98 0v481q0 45 27.5 67.5t76.5 22.5l274 -10v-30h-272q-38 0 -51 -14t-14 -41v-171l306 -6v-30l-306 -7v-262h-41z" />
    <glyph glyph-name="g.smcp" horiz-adv-x="575" 
d="M68 286q0 149 45.5 221t167.5 72q35 0 105.5 -7.5t115.5 -17.5v-30q-145 14 -221 14q-94 0 -133 -54.5t-39 -181.5t44 -197.5t128 -70.5q54 0 113 20.5t81 37.5v178h-191v26q15 2 39.5 5.5t36.5 4.5q38 5 79 5t77 -3v-308h-29l-11 51q-40 -25 -95 -41.5t-98.5 -16.5
t-78 14t-56.5 34.5t-38 51t-23.5 56.5t-12.5 57q-6 45 -6 80z" />
    <glyph glyph-name="h.smcp" horiz-adv-x="602" 
d="M98 -1v571h41v-274h358v274h41v-571h-41v255h-358v-255h-41z" />
    <glyph glyph-name="i.smcp" horiz-adv-x="204" 
d="M98 0v570h41v-570h-41z" />
    <glyph glyph-name="j.smcp" horiz-adv-x="332" 
d="M47 48q54 -11 70.5 -11t36.5 2.5t36 14.5q36 30 36 114v402h41v-402q0 -113 -54 -151q-37 -21 -77 -21q-49 0 -93 24z" />
    <glyph glyph-name="k.smcp" horiz-adv-x="542" 
d="M98 -1v571h41v-270h113l203 270h50l-216 -290l216 -281h-50l-204 259h-112v-259h-41z" />
    <glyph glyph-name="l.smcp" horiz-adv-x="511" 
d="M98 86v484h41v-476q0 -53 58 -53h277v-41h-290q-40 0 -63 22.5t-23 63.5z" />
    <glyph glyph-name="m.smcp" horiz-adv-x="737" 
d="M68 0l66 571h44l198 -499l198 499h41l63 -571h-41l-53 486l-193 -486h-31l-195 493l-58 -493h-39z" />
    <glyph glyph-name="n.smcp" horiz-adv-x="613" 
d="M98 0v571h38l372 -495v495h40v-571h-37l-372 497v-497h-41z" />
    <glyph glyph-name="o.smcp" horiz-adv-x="606" 
d="M82 130.5q-14 57.5 -14 149t13.5 149.5t44.5 90t73 44t109 12t107 -9t72.5 -38.5t46 -87.5t13.5 -151t-13 -150.5t-44.5 -89.5t-73.5 -43t-108.5 -11t-106.5 9.5t-72.5 39t-46.5 87zM120.5 417q-11.5 -50 -11.5 -131.5t9.5 -130t35 -75t60 -35.5t92.5 -9t94 10
q77 23 96 115q10 45 10 82t-1 82t-9.5 92.5t-33.5 74.5t-59 34.5t-92.5 7.5t-91.5 -8t-60 -33.5t-38.5 -75.5z" />
    <glyph glyph-name="p.smcp" horiz-adv-x="532" 
d="M74 0v569h258q62 0 107 -37.5t45 -117.5q0 -64 -20 -111q-11 -28 -48 -49q-20 -11 -44.5 -12.5t-44.5 -1.5l-212 10v-250h-41zM115 280h217q56 0 83.5 25.5t28 94.5t-30.5 98.5t-81 29.5h-217v-248z" />
    <glyph glyph-name="q.smcp" horiz-adv-x="606" 
d="M82 130.5q-14 57.5 -14 149t13.5 149.5t44.5 90t73 44t109 12t107 -9t72.5 -38.5t46 -87.5t13.5 -151t-13 -150.5t-44.5 -89.5t-73.5 -43t-108.5 -11t-106.5 9.5t-72.5 39t-46.5 87zM120.5 417.5q-11.5 -50.5 -11.5 -132t9.5 -130t35 -75.5t60 -35.5t101.5 -8.5t108 20
q83 39 83 231q0 83 -9.5 131.5t-35.5 74.5t-59.5 33.5t-91.5 7.5t-91 -8t-60 -33t-38.5 -75.5zM495 -124q-29 -11 -60.5 -11t-60 10t-50.5 34t-29 58h27q36 -61 104 -61q31 0 69 13v-43z" />
    <glyph glyph-name="r.smcp" horiz-adv-x="532" 
d="M74 0v571h258q53 0 98 -31q25 -16 40 -50t15 -81q0 -71 -36.5 -115t-92.5 -46l138 -248h-47l-135 244q-9 1 -61 4q-136 6 -136 8v-256h-41zM115 285h224q37 0 71 28t34 95t-35.5 94.5t-76.5 27.5h-217v-245z" />
    <glyph glyph-name="s.smcp" horiz-adv-x="538" 
d="M68 374v64q0 65 32 100t106 35q119 0 246 -17v-28q-148 5 -245.5 5t-97.5 -95v-64q0 -39 17 -58q11 -14 46 -16h34h143q130 0 130 -112v-70q0 -128 -130 -128q-53 0 -144 5t-115 13v28q163 -5 259 -5q46 0 67.5 27.5t21.5 59.5v70q0 39 -21 55.5t-68 16.5h-143
q-75 0 -106.5 22.5t-31.5 91.5z" />
    <glyph glyph-name="t.smcp" horiz-adv-x="533" 
d="M43 529v41h453v-41h-206v-529h-41v529h-206z" />
    <glyph glyph-name="u.smcp" horiz-adv-x="622" 
d="M98 260v310h42v-310q0 -131 43 -177.5t143 -46.5t145 48.5t45 175.5v310h42v-310q0 -188 -96 -238q-32 -17 -62 -22t-72 -5t-73 4.5t-63 20t-51 43.5q-43 63 -43 197z" />
    <glyph glyph-name="v.smcp" horiz-adv-x="593" 
d="M43 570h45l214 -508l209 508h45l-235 -570h-39z" />
    <glyph glyph-name="w.smcp" horiz-adv-x="833" 
d="M43 570h45l189 -509l185 509h44l-64 -178l126 -331l186 509h42l-208 -570h-39l-129 333l-121 -333h-41z" />
    <glyph glyph-name="x.smcp" horiz-adv-x="552" 
d="M43 0l210 285l-208 285h53l181 -247l182 247h53l-209 -285l209 -285h-52l-184 247l-183 -247h-52z" />
    <glyph glyph-name="y.smcp" horiz-adv-x="563" 
d="M306 -1h-41v191l-222 380h47l196 -336l193 336h47l-220 -380v-191z" />
    <glyph glyph-name="z.smcp" horiz-adv-x="499" 
d="M43 0v41l367 488h-367v41h419v-41l-363 -488h363v-41h-419z" />
    <glyph glyph-name="grave.smcp" horiz-adv-x="214" 
d="M25 664h49l116 -133h-32z" />
    <glyph glyph-name="aogonek.smcp" horiz-adv-x="613" 
d="M545 0q-71 -37 -71 -92q0 -16 15 -32q24 -27 78 -27v-30q-10 -1 -30 -1t-49.5 16t-41.5 45q-5 11 -5 27t11 36q19 35 72 58h21zM54 0l240 570h41l220 -570h-45l-67 172h-272l-72 -172h-45zM189 213h240l-115 302z" />
    <glyph glyph-name="rcommaaccent.smcp" horiz-adv-x="532" 
d="M253 -130v53q0 17 15 17h22q14 0 14 -17v-93q0 -24 -11.5 -34t-22.5 -10h-3l-12 2v13q20 0 20 18v36h-7q-15 0 -15 15zM74 0v571h258q53 0 98 -31q25 -16 40 -50t15 -81q0 -71 -36.5 -115t-92.5 -46l138 -248h-47l-135 244q-9 1 -61 4q-136 6 -136 8v-256h-41zM115 285
h224q37 0 71 28t34 95t-35.5 94.5t-76.5 27.5h-217v-245z" />
    <glyph glyph-name="itilde.smcp" horiz-adv-x="204" 
d="M122.5 693.5q41.5 -29.5 52.5 -29.5t20.5 2.5t16.5 5.5t17.5 9t14.5 9q21 17 30 21l12 -19q-24 -22 -35 -31t-33 -20t-44 -10.5t-61.5 30t-54.5 29.5t-29 -4.5t-22 -9t-24.5 -15.5t-24.5 -16l-10 19q23 20 36 30q38 30 74 30q23 -1 64.5 -30.5zM98 0v570h41v-570h-41z
" />
    <glyph glyph-name="lcommaaccent.smcp" horiz-adv-x="511" 
d="M267 -130v53q0 17 15 17h22q14 0 14 -17v-93q0 -24 -11.5 -34t-22.5 -10h-3l-12 2v13q20 0 20 18v36h-7q-15 0 -15 15zM98 86v484h41v-476q0 -53 58 -53h277v-41h-290q-40 0 -63 22.5t-23 63.5z" />
    <glyph glyph-name="dieresis.smcp" horiz-adv-x="434" 
d="M62 582q0 12 8 20t20 8t20.5 -8t8.5 -20t-8.5 -21t-20.5 -9t-20 9t-8 21zM316 582q0 12 8.5 20t20.5 8t20.5 -8t8.5 -20t-8.5 -21t-20.5 -9t-20.5 9t-8.5 21z" />
    <glyph glyph-name="scaron.smcp" horiz-adv-x="538" 
d="M139 763h35l102 -100l106 100h36l-123 -130h-38zM68 374v64q0 65 32 100t106 35q119 0 246 -17v-28q-148 5 -245.5 5t-97.5 -95v-64q0 -39 17 -58q11 -14 46 -16h34h143q130 0 130 -112v-70q0 -128 -130 -128q-53 0 -144 5t-115 13v28q163 -5 259 -5q46 0 67.5 27.5
t21.5 59.5v70q0 39 -21 55.5t-68 16.5h-143q-75 0 -106.5 22.5t-31.5 91.5z" />
    <glyph glyph-name="emacron.smcp" horiz-adv-x="525" 
d="M166 632v31h265v-31h-265zM98 83v398q0 45 27.5 67.5t76.5 22.5l274 -10v-30h-272q-39 0 -52 -14t-13 -41v-170l306 -6v-30l-306 -6v-173q0 -52 52 -52h285v-29l-294 -12q-38 0 -61 23t-23 62z" />
    <glyph glyph-name="gcommaaccent.smcp" horiz-adv-x="576" 
d="M508 0h-28l-12 47q-84 -54 -186 -54q-122 0 -174 100q-41 79 -41 193q0 148 47 220.5t171 72.5q95 0 209 -25v-30q-143 14 -208 14q-97 0 -137.5 -54t-40.5 -186q0 -262 176 -264h6q53 0 103 17t74 35v184h-189v26q15 2 39 5.5t37 4.5q37 5 77.5 5t76.5 -3v-308z
M274 -133v53q0 17 15 17h21q15 0 15 -17v-93q0 -24 -11.5 -34t-22.5 -10h-3l-12 1v14q20 0 20 18v36h-7q-15 0 -15 15z" />
    <glyph glyph-name="tbar.smcp" horiz-adv-x="501" 
d="M25 529v41h452v-41h-206v-190h114v-28h-114v-311h-41v311h-116v28h116v190h-205z" />
    <glyph glyph-name="zcaron.smcp" horiz-adv-x="499" 
d="M113 760h35l102 -100l106 100h36l-123 -130h-38zM43 0v41l367 488h-367v41h419v-41l-363 -488h363v-41h-419z" />
    <glyph glyph-name="macron.smcp" horiz-adv-x="415" 
d="M62 531v31h292v-31h-292z" />
    <glyph glyph-name="degree.smcp" horiz-adv-x="325" 
d="M62 470q0 43 30 73t72 30t71 -30t29 -73t-29 -72.5t-71 -29.5t-72 29.5t-30 72.5zM109.5 524.5q-22.5 -22.5 -22.5 -54t22.5 -53.5t54.5 -22t53.5 21.5t21.5 53.5t-22 54.5t-53.5 22.5t-54 -22.5z" />
    <glyph glyph-name="acute.smcp" horiz-adv-x="214" 
d="M25 531l116 133h49l-133 -133h-32z" />
    <glyph glyph-name="caron.smcp" horiz-adv-x="401" 
d="M62 671h31l102 -107l113 107h33l-127 -140h-39z" />
    <glyph glyph-name="eng.smcp" horiz-adv-x="614" 
d="M98 0v571h39l371 -498v498h41v-621q-1 -95 -41 -130t-130 -35v33q29 3 42.5 5t34 10t29.5 21q25 34 25 96v51l-370 496v-497h-41z" />
    <glyph glyph-name="amacron.smcp" horiz-adv-x="581" 
d="M170 630v31h265v-31h-265zM43 0l240 570h41l220 -570h-45l-67 172h-272l-72 -172h-45zM178 213h240l-115 302z" />
    <glyph glyph-name="aacute.smcp" horiz-adv-x="581" 
d="M287 630l116 133h49l-133 -133h-32zM43 0l240 570h41l220 -570h-45l-67 172h-272l-72 -172h-45zM178 213h240l-115 302z" />
    <glyph glyph-name="acircumflex.smcp" horiz-adv-x="581" 
d="M164 630l127 130h37l115 -130h-36l-98 100l-109 -100h-36zM43 0l240 570h41l220 -570h-45l-67 172h-272l-72 -172h-45zM178 213h240l-115 302z" />
    <glyph glyph-name="atilde.smcp" horiz-adv-x="581" 
d="M308.5 693.5q41.5 -29.5 52.5 -29.5t20.5 2.5t16.5 5.5t17.5 9t14.5 9q21 17 30 21l12 -19q-24 -22 -35 -31t-33 -20t-44 -10.5t-61.5 30t-54.5 29.5t-29 -4.5t-22 -9t-24.5 -15.5t-24.5 -16l-10 19q24 20 37 30q37 30 73 30q23 -1 64.5 -30.5zM43 0l240 570h41l220 -570
h-45l-67 172h-272l-72 -172h-45zM178 213h240l-115 302z" />
    <glyph glyph-name="adieresis.smcp" horiz-adv-x="581" 
d="M147 659q0 12 8 20t20 8t20.5 -8t8.5 -20t-8.5 -20.5t-20.5 -8.5t-20 8.5t-8 20.5zM401 659q0 12 8.5 20t20.5 8t20.5 -8t8.5 -20t-8.5 -20.5t-20.5 -8.5t-20.5 8.5t-8.5 20.5zM43 0l240 570h41l220 -570h-45l-67 172h-272l-72 -172h-45zM178 213h240l-115 302z" />
    <glyph glyph-name="aring.smcp" horiz-adv-x="581" 
d="M202 670q0 -43 30 -72.5t72 -29.5t71 29.5t29 72.5t-29 73t-71 30t-72 -30t-30 -73zM249.5 724.5q22.5 22.5 54 22.5t53.5 -22.5t22 -54.5t-22 -54t-53.5 -22t-54 22.5t-22.5 54t22.5 54zM43 0l240 570h41l220 -570h-45l-67 172h-272l-72 -172h-45zM178 213h240l-115 302
z" />
    <glyph glyph-name="ae.smcp" horiz-adv-x="810" 
d="M760 527h-262q-41 0 -52.5 -10.5t-12.5 -43.5v-171l296 -7v-30l-296 -7v-170q0 -52 52 -52l275 -1v-29l-282 -11h-3q-38 0 -61 22t-23 62v113h-195l-120 -192h-48l298 482q33 52 64.5 67t105.5 18l264 -10v-30zM391 233v273l-172 -273h172z" />
    <glyph glyph-name="iogonek.smcp" horiz-adv-x="204" 
d="M137 0q-71 -37 -71 -92q0 -16 15 -32q24 -27 78 -27v-30q-10 -1 -30 -1t-49.5 16t-41.5 45q-5 11 -5 27t11 36q19 35 72 58h21zM103 0v570h41v-570h-41z" />
    <glyph glyph-name="ccaron.smcp" horiz-adv-x="528" 
d="M169 773h35l102 -100l106 100h36l-123 -130h-38zM71.5 210.5q-3.5 37.5 -3.5 91t8.5 100t29.5 88.5q44 88 166 88q37 0 110.5 -7t108.5 -15v-29q-12 2 -92 6t-127 4q-86 0 -124.5 -59.5t-38.5 -185t37 -190t126 -65.5l219 10v-29q-116 -22 -219 -22q-52 0 -90.5 18.5
t-60 46.5t-34 70t-16 79.5z" />
    <glyph glyph-name="eacute.smcp" horiz-adv-x="525" 
d="M287 631l116 133h49l-133 -133h-32zM98 83v398q0 45 27.5 67.5t76.5 22.5l274 -10v-30h-272q-39 0 -52 -14t-13 -41v-170l306 -6v-30l-306 -6v-173q0 -52 52 -52h285v-29l-294 -12q-38 0 -61 23t-23 62z" />
    <glyph glyph-name="eogonek.smcp" horiz-adv-x="525" 
d="M476 10q-71 -37 -71 -92q0 -16 15 -32q24 -27 78 -27v-30q-10 -1 -30 -1t-49.5 16t-41.5 45q-5 11 -5 27t12 36q18 35 71 58h21zM98 83v398q0 45 27.5 67.5t76.5 22.5l274 -10v-30h-272q-39 0 -52 -14t-13 -41v-170l306 -6v-30l-306 -6v-173q0 -52 52 -52h285v-29
l-294 -12q-38 0 -61 23t-23 62z" />
    <glyph glyph-name="edieresis.smcp" horiz-adv-x="525" 
d="M138 683q0 12 8 20t20 8t20.5 -8t8.5 -20t-8.5 -20.5t-20.5 -8.5t-20 8.5t-8 20.5zM392 683q0 12 8.5 20t20.5 8t20.5 -8t8.5 -20t-8.5 -20.5t-20.5 -8.5t-20.5 8.5t-8.5 20.5zM98 83v398q0 45 27.5 67.5t76.5 22.5l274 -10v-30h-272q-39 0 -52 -14t-13 -41v-170l306 -6
v-30l-306 -6v-173q0 -52 52 -52h285v-29l-294 -12q-38 0 -61 23t-23 62z" />
    <glyph glyph-name="edotaccent.smcp" horiz-adv-x="525" 
d="M276 648v59q0 16 16 16h24q16 0 16 -16v-59q0 -16 -16 -16h-24q-16 0 -16 16zM98 83v398q0 45 27.5 67.5t76.5 22.5l274 -10v-30h-272q-39 0 -52 -14t-13 -41v-170l306 -6v-30l-306 -6v-173q0 -52 52 -52h285v-29l-294 -12q-38 0 -61 23t-23 62z" />
    <glyph glyph-name="iacute.smcp" horiz-adv-x="204" 
d="M106 630l116 133h49l-133 -133h-32zM98 0v570h41v-570h-41z" />
    <glyph glyph-name="icircumflex.smcp" horiz-adv-x="204" 
d="M-21 630l127 130h37l115 -130h-36l-98 100l-109 -100h-36zM98 0v570h41v-570h-41z" />
    <glyph glyph-name="imacron.smcp" horiz-adv-x="204" 
d="M-6 630v31h265v-31h-265zM105 0v570h41v-570h-41z" />
    <glyph glyph-name="dcroat.smcp" horiz-adv-x="603" 
d="M25 276v28h65v268h224q62 0 106.5 -27.5t67.5 -72.5q42 -85 42 -189q0 -163 -68 -230q-51 -50 -119 -53h-30h-223v276h-65zM133 41h175q99 0 138.5 64t39.5 185t-50 180.5t-126 59.5h-177v-226h116v-28h-116v-235z" />
    <glyph glyph-name="ncommaaccent.smcp" horiz-adv-x="613" 
d="M300 -131v53q0 17 15 17h21q15 0 15 -17v-93q0 -24 -11.5 -34t-22.5 -10h-3l-12 1v14q20 0 20 18v36h-7q-15 0 -15 15zM98 0v571h38l372 -495v495h40v-571h-37l-372 497v-497h-41z" />
    <glyph glyph-name="omacron.smcp" horiz-adv-x="606" 
d="M175 639v31h265v-31h-265zM82 130.5q-14 57.5 -14 149t13.5 149.5t44.5 90t73 44t109 12t107 -9t72.5 -38.5t46 -87.5t13.5 -151t-13 -150.5t-44.5 -89.5t-73.5 -43t-108.5 -11t-106.5 9.5t-72.5 39t-46.5 87zM120.5 417q-11.5 -50 -11.5 -131.5t9.5 -130t35 -75
t60 -35.5t92.5 -9t94 10q77 23 96 115q10 45 10 82t-1 82t-9.5 92.5t-33.5 74.5t-59 34.5t-92.5 7.5t-91.5 -8t-60 -33.5t-38.5 -75.5z" />
    <glyph glyph-name="kcommaaccent.smcp" horiz-adv-x="542" 
d="M262 -131v53q0 17 15 17h21q15 0 15 -17v-93q0 -24 -11.5 -34t-22.5 -10h-3l-12 1v14q20 0 20 18v36h-7q-15 0 -15 15zM98 -1v571h41v-270h113l203 270h50l-216 -290l216 -281h-50l-204 259h-112v-259h-41z" />
    <glyph glyph-name="ocircumflex.smcp" horiz-adv-x="606" 
d="M166 633l127 130h37l115 -130h-36l-98 100l-109 -100h-36zM82 130.5q-14 57.5 -14 149t13.5 149.5t44.5 90t73 44t109 12t107 -9t72.5 -38.5t46 -87.5t13.5 -151t-13 -150.5t-44.5 -89.5t-73.5 -43t-108.5 -11t-106.5 9.5t-72.5 39t-46.5 87zM120.5 417
q-11.5 -50 -11.5 -131.5t9.5 -130t35 -75t60 -35.5t92.5 -9t94 10q77 23 96 115q10 45 10 82t-1 82t-9.5 92.5t-33.5 74.5t-59 34.5t-92.5 7.5t-91.5 -8t-60 -33.5t-38.5 -75.5z" />
    <glyph glyph-name="otilde.smcp" horiz-adv-x="606" 
d="M317.5 698.5q41.5 -29.5 52.5 -29.5t20.5 2.5t16.5 5.5t17.5 9t15.5 10q20 16 29 20l12 -19q-24 -22 -35 -31t-33 -20t-44 -10.5t-61.5 30t-54.5 29.5t-29 -4.5t-22 -9t-24.5 -15.5t-24.5 -16l-10 19q24 20 37 31q37 29 73 29q23 -1 64.5 -30.5zM82 130.5
q-14 57.5 -14 149t13.5 149.5t44.5 90t73 44t109 12t107 -9t72.5 -38.5t46 -87.5t13.5 -151t-13 -150.5t-44.5 -89.5t-73.5 -43t-108.5 -11t-106.5 9.5t-72.5 39t-46.5 87zM120.5 417q-11.5 -50 -11.5 -131.5t9.5 -130t35 -75t60 -35.5t92.5 -9t94 10q77 23 96 115
q10 45 10 82t-1 82t-9.5 92.5t-33.5 74.5t-59 34.5t-92.5 7.5t-91.5 -8t-60 -33.5t-38.5 -75.5z" />
    <glyph glyph-name="odieresis.smcp" horiz-adv-x="606" 
d="M150 664q0 12 8 20t20 8t20.5 -8t8.5 -20t-8.5 -20.5t-20.5 -8.5t-20 8.5t-8 20.5zM404 664q0 12 8.5 20t20.5 8t20.5 -8t8.5 -20t-8.5 -20.5t-20.5 -8.5t-20.5 8.5t-8.5 20.5zM82 130.5q-14 57.5 -14 149t13.5 149.5t44.5 90t73 44t109 12t107 -9t72.5 -38.5t46 -87.5
t13.5 -151t-13 -150.5t-44.5 -89.5t-73.5 -43t-108.5 -11t-106.5 9.5t-72.5 39t-46.5 87zM120.5 417q-11.5 -50 -11.5 -131.5t9.5 -130t35 -75t60 -35.5t92.5 -9t94 10q77 23 96 115q10 45 10 82t-1 82t-9.5 92.5t-33.5 74.5t-59 34.5t-92.5 7.5t-91.5 -8t-60 -33.5
t-38.5 -75.5z" />
    <glyph glyph-name="oslash.smcp" horiz-adv-x="601" 
d="M64 0l47 63q-43 62 -43 200t26 202.5t74.5 87t151 22.5t148.5 -33q1 1 11 13.5t11 14.5h35l-36 -47q54 -58 54 -236q0 -92 -13 -149t-44 -89t-72.5 -43t-107.5 -11t-108 10t-69 37l-32 -42h-33zM139 101l304 406q-38 27 -138 27q-44 0 -72 -5t-54 -19.5t-40 -41.5
q-30 -59 -30 -188t30 -179zM462 488l-307 -410q39 -42 150 -42q75 0 115 19t61 73.5t21 158.5q0 153 -40 201z" />
    <glyph glyph-name="uogonek.smcp" horiz-adv-x="567" 
d="M369 -1q-71 -37 -71 -92q0 -16 15 -33q24 -26 78 -26v-30q-10 -1 -30 -1t-49.5 16t-41.5 45q-5 11 -5 27t11 37q19 34 72 57h21zM122 260v310h42v-310q0 -131 43 -177.5t143 -46.5t145 48.5t45 175.5v310h42v-310q0 -188 -96 -238q-32 -17 -62 -22t-72 -5t-73 4.5t-63 20
t-51 43.5q-43 63 -43 197z" />
    <glyph glyph-name="uacute.smcp" horiz-adv-x="622" 
d="M312 630l116 133h49l-133 -133h-32zM98 260v310h42v-310q0 -131 43 -177.5t143 -46.5t145 48.5t45 175.5v310h42v-310q0 -188 -96 -238q-32 -17 -62 -22t-72 -5t-73 4.5t-63 20t-51 43.5q-43 63 -43 197z" />
    <glyph glyph-name="ucircumflex.smcp" horiz-adv-x="622" 
d="M188 630l127 130h37l115 -130h-36l-98 100l-109 -100h-36zM98 260v310h42v-310q0 -131 43 -177.5t143 -46.5t145 48.5t45 175.5v310h42v-310q0 -188 -96 -238q-32 -17 -62 -22t-72 -5t-73 4.5t-63 20t-51 43.5q-43 63 -43 197z" />
    <glyph glyph-name="udieresis.smcp" horiz-adv-x="622" 
d="M171 659q0 12 8 20t20 8t20.5 -8t8.5 -20t-8.5 -20.5t-20.5 -8.5t-20 8.5t-8 20.5zM425 659q0 12 8.5 20t20.5 8t20.5 -8t8.5 -20t-8.5 -20.5t-20.5 -8.5t-20.5 8.5t-8.5 20.5zM98 260v310h42v-310q0 -131 43 -177.5t143 -46.5t145 48.5t45 175.5v310h42v-310
q0 -188 -96 -238q-32 -17 -62 -22t-72 -5t-73 4.5t-63 20t-51 43.5q-43 63 -43 197z" />
    <glyph glyph-name="utilde.smcp" horiz-adv-x="622" 
d="M332.5 693.5q41.5 -29.5 52.5 -29.5t20.5 2.5t16.5 5.5t17.5 9t14.5 9q21 17 30 21l12 -19q-24 -22 -35 -31t-33 -20t-44 -10.5t-61.5 30t-54.5 29.5t-29 -4.5t-22 -9t-24.5 -15.5t-24.5 -16l-10 19q24 20 37 30q37 30 73 30q23 -1 64.5 -30.5zM98 260v310h42v-310
q0 -131 43 -177.5t143 -46.5t145 48.5t45 175.5v310h42v-310q0 -188 -96 -238q-32 -17 -62 -22t-72 -5t-73 4.5t-63 20t-51 43.5q-43 63 -43 197z" />
    <glyph glyph-name="umacron.smcp" horiz-adv-x="622" 
d="M194 630v31h265v-31h-265zM98 260v310h42v-310q0 -131 43 -177.5t143 -46.5t145 48.5t45 175.5v310h42v-310q0 -188 -96 -238q-32 -17 -62 -22t-72 -5t-73 4.5t-63 20t-51 43.5q-43 63 -43 197z" />
    <glyph glyph-name="germandbls.smcp" horiz-adv-x="996" 
d="M46 374v67q0 65 32 98.5t106 33.5q116 0 243 -17v-28l-243 5q-51 0 -74 -22.5t-23 -69.5v-67q0 -39 17 -58q13 -16 80 -16h140q130 0 130 -112v-70q0 -128 -130 -128q-53 0 -142.5 5t-113.5 13v28l256 -5q47 0 68 25t21 62v70q0 39 -21 55.5t-68 16.5h-140
q-75 0 -106.5 22.5t-31.5 91.5zM535 441q0 65 32 98.5t106 33.5q116 0 243 -17v-28q-145 5 -243 5q-51 0 -74 -22.5t-23 -69.5v-67q0 -39 16 -58q12 -14 48 -16h33h140q130 0 130 -112v-70q0 -128 -130 -128q-53 0 -142.5 5t-113.5 13v28q160 -5 256 -5q47 0 68 25t21 62v70
q0 39 -21 55.5t-68 16.5h-140q-75 0 -106.5 22.5t-31.5 91.5v67z" />
    <glyph glyph-name="agrave.smcp" horiz-adv-x="581" 
d="M134 764h49l116 -133h-32zM43 0l240 570h41l220 -570h-45l-67 172h-272l-72 -172h-45zM178 213h240l-115 302z" />
    <glyph glyph-name="ccedilla.smcp" horiz-adv-x="528" 
d="M290 -45v7h34q0 -78 -20.5 -107t-80.5 -29h-37v17l39 9q36 7 50.5 28t14.5 75zM71.5 210.5q-3.5 37.5 -3.5 91t8.5 100t29.5 88.5q44 88 166 88q37 0 110.5 -7t108.5 -15v-29q-12 2 -92 6t-127 4q-86 0 -124.5 -59.5t-38.5 -185t37 -190t126 -65.5l219 10v-29
q-116 -22 -219 -22q-52 0 -90.5 18.5t-60 46.5t-34 70t-16 79.5z" />
    <glyph glyph-name="eth.smcp" horiz-adv-x="608" 
d="M35 276v28h66v268h224q62 0 106 -27.5t67 -72.5q42 -85 42 -189q0 -163 -68 -230q-51 -50 -119 -53h-30h-222v276h-66zM143 41h175q99 0 139 64t40 185t-50.5 180.5t-126.5 59.5h-177v-226h116v-28h-116v-235z" />
    <glyph glyph-name="egrave.smcp" horiz-adv-x="525" 
d="M159 765h49l116 -133h-32zM98 83v398q0 45 27.5 67.5t76.5 22.5l274 -10v-30h-272q-39 0 -52 -14t-13 -41v-170l306 -6v-30l-306 -6v-173q0 -52 52 -52h285v-29l-294 -12q-38 0 -61 23t-23 62z" />
    <glyph glyph-name="ecircumflex.smcp" horiz-adv-x="525" 
d="M159 632l127 130h37l115 -130h-36l-98 100l-109 -100h-36zM98 83v398q0 45 27.5 67.5t76.5 22.5l274 -10v-30h-272q-39 0 -52 -14t-13 -41v-170l306 -6v-30l-306 -6v-173q0 -52 52 -52h285v-29l-294 -12q-38 0 -61 23t-23 62z" />
    <glyph glyph-name="igrave.smcp" horiz-adv-x="204" 
d="M-25 763h49l116 -133h-32zM99 0v570h41v-570h-41z" />
    <glyph glyph-name="idieresis.smcp" horiz-adv-x="204" 
d="M-39 659q0 12 8 20t20 8t20.5 -8t8.5 -20t-8.5 -20.5t-20.5 -8.5t-20 8.5t-8 20.5zM215 659q0 12 8.5 20t20.5 8t20.5 -8t8.5 -20t-8.5 -20.5t-20.5 -8.5t-20.5 8.5t-8.5 20.5zM98 0v570h41v-570h-41z" />
    <glyph glyph-name="ntilde.smcp" horiz-adv-x="613" 
d="M325.5 694.5q41.5 -29.5 52.5 -29.5t20.5 2.5t16.5 5.5t17.5 9t15.5 10q20 16 29 20l12 -19q-24 -22 -35 -31t-33 -20t-44 -10.5t-61.5 30t-54.5 29.5t-29 -4.5t-22 -9t-24.5 -15.5t-24.5 -16l-10 19q24 20 37 31q37 29 73 29q23 -1 64.5 -30.5zM98 0v571h38l372 -495
v495h40v-571h-37l-372 497v-497h-41z" />
    <glyph glyph-name="ograve.smcp" horiz-adv-x="606" 
d="M163 768h49l116 -133h-32zM82 130.5q-14 57.5 -14 149t13.5 149.5t44.5 90t73 44t109 12t107 -9t72.5 -38.5t46 -87.5t13.5 -151t-13 -150.5t-44.5 -89.5t-73.5 -43t-108.5 -11t-106.5 9.5t-72.5 39t-46.5 87zM120.5 417q-11.5 -50 -11.5 -131.5t9.5 -130t35 -75
t60 -35.5t92.5 -9t94 10q77 23 96 115q10 45 10 82t-1 82t-9.5 92.5t-33.5 74.5t-59 34.5t-92.5 7.5t-91.5 -8t-60 -33.5t-38.5 -75.5z" />
    <glyph glyph-name="oacute.smcp" horiz-adv-x="606" 
d="M296 635l116 133h49l-133 -133h-32zM82 130.5q-14 57.5 -14 149t13.5 149.5t44.5 90t73 44t109 12t107 -9t72.5 -38.5t46 -87.5t13.5 -151t-13 -150.5t-44.5 -89.5t-73.5 -43t-108.5 -11t-106.5 9.5t-72.5 39t-46.5 87zM120.5 417q-11.5 -50 -11.5 -131.5t9.5 -130
t35 -75t60 -35.5t92.5 -9t94 10q77 23 96 115q10 45 10 82t-1 82t-9.5 92.5t-33.5 74.5t-59 34.5t-92.5 7.5t-91.5 -8t-60 -33.5t-38.5 -75.5z" />
    <glyph glyph-name="ugrave.smcp" horiz-adv-x="622" 
d="M182 763h49l116 -133h-32zM98 260v310h42v-310q0 -131 43 -177.5t143 -46.5t145 48.5t45 175.5v310h42v-310q0 -188 -96 -238q-32 -17 -62 -22t-72 -5t-73 4.5t-63 20t-51 43.5q-43 63 -43 197z" />
    <glyph glyph-name="yacute.smcp" horiz-adv-x="563" 
d="M263 630l116 133h49l-133 -133h-32zM306 -1h-41v191l-222 380h47l196 -336l193 336h47l-220 -380v-191z" />
    <glyph glyph-name="thorn.smcp" horiz-adv-x="556" 
d="M92 0v569h41v-103h196q39 0 66.5 -14.5t42.5 -32.5q37 -42 37 -126q0 -135 -69 -169q-31 -15 -77 -15q-152 0 -196 12v-121h-41zM133 151h196q53 0 79 31t26 102q0 137 -105 141h-196v-274z" />
    <glyph glyph-name="quotesinglbase.smcp" horiz-adv-x="196" 
d="M69 20v64q0 22 20 22h29q20 0 20 -22v-106q0 -32 -15 -45.5t-30 -13.5q-2 0 -3 1l-17 1v18h2q23 0 23 25v36h-9q-20 0 -20 20z" />
    <glyph glyph-name="quotedblleft.smcp" horiz-adv-x="315" 
d="M185 410v106q0 32 15.5 45t23.5 13h10l16 -2v-17h-2q-24 0 -24 -26v-34h9q20 0 20 -21v-64q0 -22 -20 -22h-29q-19 0 -19 22zM63 410v106q0 32 15 45t29 13h4l16 -2v-17h-2q-23 0 -23 -26v-34h9q20 0 20 -21v-64q0 -22 -20 -22h-28q-20 0 -20 22z" />
    <glyph glyph-name="quotedblright.smcp" horiz-adv-x="315" 
d="M63 487v65q0 22 20 22h29q19 0 19 -22v-106q0 -32 -15 -45.5t-30 -13.5l-3 1l-16 1v18h2q23 0 23 25v35h-9q-20 0 -20 20zM185 487v65q0 22 20 22h28q20 0 20 -22v-106q0 -32 -15 -45.5t-30 -13.5l-3 1l-16 1v18h2q23 0 23 25v35h-9q-20 0 -20 20z" />
    <glyph glyph-name="quotedblbase.smcp" horiz-adv-x="315" 
d="M91 -78q-7 -1 -11 -1t-13 1v17h2q23 0 23 25v36h-9q-20 0 -20 20v64q0 22 20 22h29q19 0 19 -22v-106q0 -50 -40 -56zM213 -78q-7 -1 -11 -1t-13 1v17h2q23 0 23 25v36h-9q-20 0 -20 20v64q0 22 20 22h28q20 0 20 -22v-106q0 -50 -40 -56z" />
    <glyph glyph-name="exclamdown.smcp" horiz-adv-x="263" 
d="M101 494v60q0 16 15 16h27q16 0 16 -16v-60q0 -16 -16 -16h-27q-15 0 -15 16zM108 0l6 404h33l6 -404h-45z" />
    <glyph glyph-name="ordmasculine.smcp" horiz-adv-x="428" 
d="M89 256q-33 39 -33 142.5t32.5 143t126.5 39.5t125.5 -39.5t31.5 -143t-32 -142.5t-125 -39t-126 39zM67 157v32h293v-32h-293zM114.5 518.5q-25.5 -29.5 -25.5 -121t27.5 -119.5t98.5 -28t97 28q27 28 27 121t-25.5 121t-99.5 28t-99.5 -29.5z" />
    <glyph glyph-name="ordfeminine.smcp" horiz-adv-x="420" 
d="M74 159v32h311v-32h-311zM77 223l142 349h37l126 -349h-33l-38 107h-157l-42 -107h-35zM166 360h135l-63 177z" />
    <glyph glyph-name="Euro.smcp" horiz-adv-x="513" 
d="M281 577q62 0 188 -23v-29q-124 11 -180 11t-88 -15.5t-47 -44.5q-25 -50 -25 -121l186 -6v-23l-186 -5v-82l186 -5v-24q-12 0 -31.5 -0.5t-60.5 -1.5q-96 -2 -94 -4q0 -80 41 -123.5t111 -43.5q79 0 161 11l30 4v-29q-98 -28 -191 -28q-70 0 -129 45q-29 22 -46.5 64.5
t-17.5 99.5l-68 6v23l68 6v82l-68 6v21l68 7q0 222 193 222z" />
    <glyph glyph-name="lcaron.smcp" horiz-adv-x="511" 
d="M98 86v484h41v-476q0 -53 58 -53h277v-41h-290q-40 0 -63 22.5t-23 63.5zM220 610h42v-67l-8 -134h-26l-8 134v67z" />
    <glyph glyph-name="sacute.smcp" horiz-adv-x="538" 
d="M252 639l116 133h49l-133 -133h-32zM68 374v64q0 65 32 100t106 35q119 0 246 -17v-28q-148 5 -245.5 5t-97.5 -95v-64q0 -39 17 -58q11 -14 46 -16h34h143q130 0 130 -112v-70q0 -128 -130 -128q-53 0 -144 5t-115 13v28q163 -5 259 -5q46 0 67.5 27.5t21.5 59.5v70
q0 39 -21 55.5t-68 16.5h-143q-75 0 -106.5 22.5t-31.5 91.5z" />
    <glyph glyph-name="scedilla.smcp" horiz-adv-x="538" 
d="M266 -48v7h34q0 -78 -20.5 -107t-80.5 -29h-37v17l39 9q36 7 50.5 28t14.5 75zM68 374v64q0 65 32 100t106 35q119 0 246 -17v-28q-148 5 -245.5 5t-97.5 -95v-64q0 -39 17 -58q11 -14 46 -16h34h143q130 0 130 -112v-70q0 -128 -130 -128q-53 0 -144 5t-115 13v28
q163 -5 259 -5q46 0 67.5 27.5t21.5 59.5v70q0 39 -21 55.5t-68 16.5h-143q-75 0 -106.5 22.5t-31.5 91.5z" />
    <glyph glyph-name="tcaron.smcp" horiz-adv-x="563" 
d="M163 773h35l102 -100l106 100h36l-123 -130h-38zM71 529v41h453v-41h-206v-529h-41v529h-206z" />
    <glyph glyph-name="zacute.smcp" horiz-adv-x="499" 
d="M237 630l116 133h49l-133 -133h-32zM43 0v41l367 488h-367v41h419v-41l-363 -488h363v-41h-419z" />
    <glyph glyph-name="zdotaccent.smcp" horiz-adv-x="499" 
d="M225 646v59q0 16 16 16h24q16 0 16 -16v-59q0 -16 -16 -16h-24q-16 0 -16 16zM43 0v41l367 488h-367v41h419v-41l-363 -488h363v-41h-419z" />
    <glyph glyph-name="racute.smcp" horiz-adv-x="532" 
d="M260 631l116 133h49l-133 -133h-32zM74 0v571h258q53 0 98 -31q25 -16 40 -50t15 -81q0 -71 -36.5 -115t-92.5 -46l138 -248h-47l-135 244q-9 1 -61 4q-136 6 -136 8v-256h-41zM115 285h224q37 0 71 28t34 95t-35.5 94.5t-76.5 27.5h-217v-245z" />
    <glyph glyph-name="abreve.smcp" horiz-adv-x="581" 
d="M188 744h25q0 -38 26 -63.5t60 -25.5q42 0 68 25t26 64h25q0 -53 -35.5 -83.5t-80 -30.5t-79.5 31.5t-35 82.5zM43 0l240 570h41l220 -570h-45l-67 172h-272l-72 -172h-45zM178 213h240l-115 302z" />
    <glyph glyph-name="lacute.smcp" horiz-adv-x="511" 
d="M106 630l116 133h49l-133 -133h-32zM98 86v484h41v-476q0 -53 58 -53h277v-41h-290q-40 0 -63 22.5t-23 63.5z" />
    <glyph glyph-name="cacute.smcp" horiz-adv-x="528" 
d="M264 643l116 133h49l-133 -133h-32zM71.5 210.5q-3.5 37.5 -3.5 91t8.5 100t29.5 88.5q44 88 166 88q37 0 110.5 -7t108.5 -15v-29q-12 2 -92 6t-127 4q-86 0 -124.5 -59.5t-38.5 -185t37 -190t126 -65.5l219 10v-29q-116 -22 -219 -22q-52 0 -90.5 18.5t-60 46.5t-34 70
t-16 79.5z" />
    <glyph glyph-name="ecaron.smcp" horiz-adv-x="525" 
d="M157 761h35l102 -100l106 100h36l-123 -130h-38zM98 83v398q0 45 27.5 67.5t76.5 22.5l274 -10v-30h-272q-39 0 -52 -14t-13 -41v-170l306 -6v-30l-306 -6v-173q0 -52 52 -52h285v-29l-294 -12q-38 0 -61 23t-23 62z" />
    <glyph glyph-name="dcaron.smcp" horiz-adv-x="604" 
d="M193 762h35l102 -100l106 100h36l-123 -130h-38zM118 0v572h234q63 -1 108 -28t68 -72q43 -84 43 -189q0 -165 -68 -230q-22 -21 -39.5 -31t-42.5 -16q-30 -6 -69 -6h-234zM159 41h193q102 0 142 71q36 64 36 181.5t-51 177.5t-127 60h-193v-490z" />
    <glyph glyph-name="nacute.smcp" horiz-adv-x="613" 
d="M313 631l116 133h49l-133 -133h-32zM98 0v571h38l372 -495v495h40v-571h-37l-372 497v-497h-41z" />
    <glyph glyph-name="ncaron.smcp" horiz-adv-x="613" 
d="M185 761h35l102 -100l106 100h36l-123 -130h-38zM98 0v571h38l372 -495v495h40v-571h-37l-372 497v-497h-41z" />
    <glyph glyph-name="ohungarumlaut.smcp" horiz-adv-x="606" 
d="M222 635l116 133h49l-133 -133h-32zM359 635l116 133h50l-133 -133h-33zM82 130.5q-14 57.5 -14 149t13.5 149.5t44.5 90t73 44t109 12t107 -9t72.5 -38.5t46 -87.5t13.5 -151t-13 -150.5t-44.5 -89.5t-73.5 -43t-108.5 -11t-106.5 9.5t-72.5 39t-46.5 87zM120.5 417
q-11.5 -50 -11.5 -131.5t9.5 -130t35 -75t60 -35.5t92.5 -9t94 10q77 23 96 115q10 45 10 82t-1 82t-9.5 92.5t-33.5 74.5t-59 34.5t-92.5 7.5t-91.5 -8t-60 -33.5t-38.5 -75.5z" />
    <glyph glyph-name="rcaron.smcp" horiz-adv-x="532" 
d="M135 761h35l102 -100l106 100h36l-123 -130h-38zM74 0v571h258q53 0 98 -31q25 -16 40 -50t15 -81q0 -71 -36.5 -115t-92.5 -46l138 -248h-47l-135 244q-9 1 -61 4q-136 6 -136 8v-256h-41zM115 285h224q37 0 71 28t34 95t-35.5 94.5t-76.5 27.5h-217v-245z" />
    <glyph glyph-name="uring.smcp" horiz-adv-x="622" 
d="M227 722q0 43 30 73t72 30t71 -30t29 -73t-29 -72.5t-71 -29.5t-72 29.5t-30 72.5zM275 776.5q-23 -22.5 -23 -54t22.5 -54t54 -22.5t53.5 22t22 54t-22 54.5t-53 22.5t-54 -22.5zM98 260v310h42v-310q0 -131 43 -177.5t143 -46.5t145 48.5t45 175.5v310h42v-310
q0 -188 -96 -238q-32 -17 -62 -22t-72 -5t-73 4.5t-63 20t-51 43.5q-43 63 -43 197z" />
    <glyph glyph-name="uhungarumlaut.smcp" horiz-adv-x="622" 
d="M241 630l116 133h49l-133 -133h-32zM378 630l116 133h50l-133 -133h-33zM98 260v310h42v-310q0 -131 43 -177.5t143 -46.5t145 48.5t45 175.5v310h42v-310q0 -188 -96 -238q-32 -17 -62 -22t-72 -5t-73 4.5t-63 20t-51 43.5q-43 63 -43 197z" />
    <glyph glyph-name="tcommaaccent.smcp" horiz-adv-x="533" 
d="M247 -54v7h34q0 -78 -20.5 -107t-80.5 -29h-37v17l39 9q36 7 50.5 28t14.5 75zM43 529v41h453v-41h-206v-529h-41v529h-206z" />
    <glyph glyph-name="lslash.smcp" horiz-adv-x="508" 
d="M101 570h41v-237l116 48v-34l-116 -48v-205q0 -53 57 -53h277v-41h-289q-40 0 -63 22.5t-23 63.5v196l-62 -25v34l62 26v253z" />
    <glyph glyph-name="questiondown.smcp" horiz-adv-x="506" 
d="M69 149v50q0 54 31 87q44 47 132 47q22 0 46 -3v75h43v-112h-80q-131 -2 -131 -94v-50q0 -62 37.5 -85.5t119.5 -23.5h197v-29q-104 -12 -150.5 -12h-53.5q-101 0 -146 38t-45 112zM271 494v60q0 16 16 16h26q16 0 16 -16v-60q0 -16 -16 -16h-26q-16 0 -16 16z" />
    <glyph glyph-name="oe.smcp" horiz-adv-x="903" 
d="M63 130.5q-14 57.5 -14 149t13.5 149.5t44.5 90t73 44t116.5 12t121.5 -17t72 -67q7 80 101 80l268 -10v-30h-266q-39 0 -52 -14t-13 -41v-170l300 -6v-30l-300 -6v-173q0 -52 52 -52h279v-29l-288 -12q-39 0 -60 23t-22 62q-41 -88 -201 -88q-66 0 -106 9.5t-72.5 39
t-46.5 87zM101.5 417.5q-11.5 -50.5 -11.5 -132t9.5 -130t35 -75.5t60 -35.5t101.5 -8.5t108 20q83 39 83 231q0 83 -9.5 131.5t-35.5 74.5t-59.5 33.5t-91.5 7.5t-91 -8t-60 -33t-38.5 -75.5z" />
    <glyph glyph-name="ydieresis.smcp" horiz-adv-x="563" 
d="M129 659q0 12 8 20t20 8t20.5 -8t8.5 -20t-8.5 -20.5t-20.5 -8.5t-20 8.5t-8 20.5zM383 659q0 12 8.5 20t20.5 8t20.5 -8t8.5 -20t-8.5 -20.5t-20.5 -8.5t-20.5 8.5t-8.5 20.5zM306 -1h-41v191l-222 380h47l196 -336l193 336h47l-220 -380v-191z" />
    <glyph glyph-name="sterling.smcp" horiz-adv-x="538" 
d="M62 0v26l56 10v228h-56v23l56 10v94q0 180 196 180l164 -11v-28h-162q-86 0 -121.5 -36.5t-35.5 -106.5v-90l257 -11v-26h-257v-222h319v-40h-416z" />
    <glyph glyph-name="yen.smcp" horiz-adv-x="500" 
d="M443 258v-32h-172v-57h172v-32h-172v-137h-41v137h-165v32h165v57h-165v32h155l-195 313h46l180 -285l177 285h48l-195 -313h162z" />
    <glyph glyph-name="perthousand.smcp" horiz-adv-x="1150" 
d="M36 384v62q0 66 28 95.5t101 29.5h45q71 0 99 -29.5t28 -95.5v-62q0 -66 -28 -95.5t-101 -29.5h-45q-71 0 -99 29.5t-28 95.5zM68 384q0 -53 21.5 -73t73.5 -20h45q55 0 76 19.5t21 73.5v62q0 52 -20.5 72.5t-74.5 20.5h-45q-55 0 -76 -19t-21 -74v-62zM202 0l341 570h38
l-341 -570h-38zM449 125v63q0 66 28 95.5t101 29.5h46q71 0 99 -29.5t28 -95.5v-63q0 -66 -28 -95.5t-101 -29.5h-46q-71 0 -99 29.5t-28 95.5zM481 125q0 -53 21.5 -73t73.5 -20h46q55 0 76 19.5t21 73.5v63q0 52 -20.5 72.5t-74.5 20.5h-46q-55 0 -76 -19t-21 -74v-63z
M801 125v63q0 66 28 95.5t101 29.5h46q71 0 99 -29.5t28 -95.5v-63q0 -66 -28 -95.5t-101 -29.5h-46q-71 0 -99 29.5t-28 95.5zM833 125q0 -53 21.5 -73t73.5 -20h46q55 0 76 19.5t21 73.5v63q0 52 -20.5 72.5t-74.5 20.5h-46q-55 0 -76 -19t-21 -74v-63z" />
    <glyph glyph-name="circumflex.smcp" horiz-adv-x="401" 
d="M62 531l127 130h37l114 -130h-35l-98 100l-109 -100h-36z" />
    <glyph glyph-name="tilde.smcp" horiz-adv-x="461" 
d="M236.5 601.5q41.5 -29.5 52.5 -29.5t20.5 2.5t16.5 5.5t17.5 9t14.5 9q21 17 30 21l12 -19q-24 -22 -35 -31t-33 -20t-44 -10.5t-61.5 30t-54.5 29.5t-29 -4.5t-22 -9t-24.5 -15.5t-24.5 -16l-10 19q24 20 37 30q37 30 73 30q23 -1 64.5 -30.5z" />
    <glyph glyph-name="ring.smcp" horiz-adv-x="325" 
d="M62 632q0 43 30 73t72 30t71 -30t29 -73t-29 -72.5t-71 -29.5t-72 29.5t-30 72.5zM87 632q0 -31 22.5 -53.5t54 -22.5t53.5 22t22 54t-22 54t-53.5 22t-54 -22.5t-22.5 -53.5z" />
    <glyph glyph-name="hbar.smcp" horiz-adv-x="602" 
d="M49 412v25h49v133h41v-133h357v133h41v-133h51v-25h-51v-413h-41v256h-357v-256h-41v413h-49zM139 296h357v116h-357v-116z" />
    <glyph glyph-name="hcircumflex.smcp" horiz-adv-x="602" 
d="M177 630l127 130h37l115 -130h-36l-98 100l-109 -100h-36zM98 -1v571h41v-274h358v274h41v-571h-41v255h-358v-255h-41z" />
    <glyph glyph-name="gbreve.smcp" horiz-adv-x="575" 
d="M183 753h25q0 -38 26 -63.5t60 -25.5q42 0 68 25t26 64h25q0 -53 -35.5 -83.5t-80 -30.5t-79.5 31.5t-35 82.5zM68 286q0 149 45.5 221t167.5 72q35 0 105.5 -7.5t115.5 -17.5v-30q-145 14 -221 14q-94 0 -133 -54.5t-39 -181.5t44 -197.5t128 -70.5q54 0 113 20.5
t81 37.5v178h-191v26q15 2 39.5 5.5t36.5 4.5q38 5 79 5t77 -3v-308h-29l-11 51q-40 -25 -95 -41.5t-98.5 -16.5t-78 14t-56.5 34.5t-38 51t-23.5 56.5t-12.5 57q-6 45 -6 80z" />
    <glyph glyph-name="jcircumflex.smcp" horiz-adv-x="332" 
d="M98 630l127 130h37l115 -130h-36l-98 100l-109 -100h-36zM47 48q54 -11 70.5 -11t36.5 2.5t36 14.5q36 30 36 114v402h41v-402q0 -113 -54 -151q-37 -21 -77 -21q-49 0 -93 24z" />
    <glyph glyph-name="cdotaccent.smcp" horiz-adv-x="528" 
d="M274 659v59q0 16 16 16h24q16 0 16 -16v-59q0 -16 -16 -16h-24q-16 0 -16 16zM71.5 210.5q-3.5 37.5 -3.5 91t8.5 100t29.5 88.5q44 88 166 88q37 0 110.5 -7t108.5 -15v-29q-12 2 -92 6t-127 4q-86 0 -124.5 -59.5t-38.5 -185t37 -190t126 -65.5l219 10v-29
q-116 -22 -219 -22q-52 0 -90.5 18.5t-60 46.5t-34 70t-16 79.5z" />
    <glyph glyph-name="ccircumflex.smcp" horiz-adv-x="528" 
d="M168 643l127 130h37l115 -130h-36l-98 100l-109 -100h-36zM71.5 210.5q-3.5 37.5 -3.5 91t8.5 100t29.5 88.5q44 88 166 88q37 0 110.5 -7t108.5 -15v-29q-12 2 -92 6t-127 4q-86 0 -124.5 -59.5t-38.5 -185t37 -190t126 -65.5l219 10v-29q-116 -22 -219 -22
q-52 0 -90.5 18.5t-60 46.5t-34 70t-16 79.5z" />
    <glyph glyph-name="gdotaccent.smcp" horiz-adv-x="575" 
d="M279 655v59q0 16 16 16h24q16 0 16 -16v-59q0 -16 -16 -16h-24q-16 0 -16 16zM68 286q0 149 45.5 221t167.5 72q35 0 105.5 -7.5t115.5 -17.5v-30q-145 14 -221 14q-94 0 -133 -54.5t-39 -181.5t44 -197.5t128 -70.5q54 0 113 20.5t81 37.5v178h-191v26q15 2 39.5 5.5
t36.5 4.5q38 5 79 5t77 -3v-308h-29l-11 51q-40 -25 -95 -41.5t-98.5 -16.5t-78 14t-56.5 34.5t-38 51t-23.5 56.5t-12.5 57q-6 45 -6 80z" />
    <glyph glyph-name="gcircumflex.smcp" horiz-adv-x="575" 
d="M172 639l127 130h37l115 -130h-36l-98 100l-109 -100h-36zM68 286q0 149 45.5 221t167.5 72q35 0 105.5 -7.5t115.5 -17.5v-30q-145 14 -221 14q-94 0 -133 -54.5t-39 -181.5t44 -197.5t128 -70.5q54 0 113 20.5t81 37.5v178h-191v26q15 2 39.5 5.5t36.5 4.5q38 5 79 5
t77 -3v-308h-29l-11 51q-40 -25 -95 -41.5t-98.5 -16.5t-78 14t-56.5 34.5t-38 51t-23.5 56.5t-12.5 57q-6 45 -6 80z" />
    <glyph glyph-name="ubreve.smcp" horiz-adv-x="622" 
d="M213 744h25q0 -38 26 -63.5t60 -25.5q42 0 68 25t26 64h25q0 -53 -35.5 -83.5t-80 -30.5t-79.5 31.5t-35 82.5zM98 260v310h42v-310q0 -131 43 -177.5t143 -46.5t145 48.5t45 175.5v310h42v-310q0 -188 -96 -238q-32 -17 -62 -22t-72 -5t-73 4.5t-63 20t-51 43.5
q-43 63 -43 197z" />
    <glyph glyph-name="scircumflex.smcp" horiz-adv-x="538" 
d="M121 635l127 130h37l115 -130h-36l-98 100l-109 -100h-36zM68 374v64q0 65 32 100t106 35q119 0 246 -17v-28q-148 5 -245.5 5t-97.5 -95v-64q0 -39 17 -58q11 -14 46 -16h34h143q130 0 130 -112v-70q0 -128 -130 -128q-53 0 -144 5t-115 13v28q163 -5 259 -5
q46 0 67.5 27.5t21.5 59.5v70q0 39 -21 55.5t-68 16.5h-143q-75 0 -106.5 22.5t-31.5 91.5z" />
    <glyph glyph-name="Idotaccent.smcp" horiz-adv-x="196" 
d="M95 0v570h41v-570h-41zM88 677v59q0 16 16 16h24q16 0 16 -16v-59q0 -16 -16 -16h-24q-16 0 -16 16z" />
    <glyph glyph-name="periodcentered.smcp" horiz-adv-x="266" 
d="M109 301v28q0 16 17 16h25q16 0 16 -16v-28q0 -15 -16 -15h-25q-17 0 -17 15z" />
    <glyph glyph-name="bullet.smcp" horiz-adv-x="317" 
d="M105 299v47q0 35 33 35h41q35 0 35 -35v-47q0 -32 -35 -32h-41q-33 0 -33 32z" />
    <glyph glyph-name="quoteleft.smcp" horiz-adv-x="206" 
d="M69 410v106q0 32 15 45t29 13h4l16 -2v-17h-2q-23 0 -23 -26v-35h9q21 0 21 -20v-64q0 -22 -21 -22h-28q-20 0 -20 22z" />
    <glyph glyph-name="quoteright.smcp" horiz-adv-x="206" 
d="M69 487v65q0 22 20 22h29q20 0 20 -22v-106q0 -32 -15 -45.5t-30 -13.5q-2 0 -3 1l-17 1v18h2q23 0 23 25v35h-9q-20 0 -20 20z" />
    <glyph glyph-name="uni1E03.smcp" horiz-adv-x="548" 
d="M262 647v59q0 16 16 16h24q16 0 16 -16v-59q0 -16 -16 -16h-24q-16 0 -16 16zM98 0v571h245q58 0 94.5 -24.5t48 -56t11.5 -66.5t-8.5 -59t-24.5 -38q-26 -23 -56 -35q26 -5 59 -40.5t33 -94.5q0 -157 -157 -157h-245zM139 42h204q83 0 105 53q11 25 11 69.5t-33 76.5
t-83 32q-96 -1 -147 -1t-57 1v-231zM139 314h204q51 0 82 26t31 81q0 109 -113 109h-204v-216z" />
    <glyph glyph-name="uni1E0B.smcp" horiz-adv-x="610" 
d="M273 648v59q0 16 16 16h24q16 0 16 -16v-59q0 -16 -16 -16h-24q-16 0 -16 16zM98 0v572h234q63 -1 108 -28t68 -72q43 -84 43 -189q0 -165 -68 -230q-22 -21 -39.5 -31t-42.5 -16q-30 -6 -69 -6h-234zM139 41h193q102 0 142 71q36 64 36 181.5t-51 177.5t-127 60h-193
v-490z" />
    <glyph glyph-name="uni1E1F.smcp" horiz-adv-x="525" 
d="M267 648v59q0 16 16 16h24q16 0 16 -16v-59q0 -16 -16 -16h-24q-16 0 -16 16zM98 0v481q0 45 27.5 67.5t76.5 22.5l274 -10v-30h-272q-38 0 -51 -14t-14 -41v-171l306 -6v-30l-306 -7v-262h-41z" />
    <glyph glyph-name="uni1E41.smcp" horiz-adv-x="737" 
d="M352 647v59q0 16 16 16h24q16 0 16 -16v-59q0 -16 -16 -16h-24q-16 0 -16 16zM68 0l66 571h44l198 -499l198 499h41l63 -571h-41l-53 486l-193 -486h-31l-195 493l-58 -493h-39z" />
    <glyph glyph-name="wgrave.smcp" horiz-adv-x="833" 
d="M273 763h49l116 -133h-32zM43 570h45l189 -509l185 509h44l-64 -178l126 -331l186 509h42l-208 -570h-39l-129 333l-121 -333h-41z" />
    <glyph glyph-name="uni1E57.smcp" horiz-adv-x="532" 
d="M248 645v59q0 16 16 16h24q16 0 16 -16v-59q0 -16 -16 -16h-24q-16 0 -16 16zM74 0v569h258q62 0 107 -37.5t45 -117.5q0 -64 -20 -111q-11 -28 -48 -49q-20 -11 -44.5 -12.5t-44.5 -1.5l-212 10v-250h-41zM115 280h217q56 0 83.5 25.5t28 94.5t-30.5 98.5t-81 29.5h-217
v-248z" />
    <glyph glyph-name="wacute.smcp" horiz-adv-x="833" 
d="M406 630l116 133h49l-133 -133h-32zM43 570h45l189 -509l185 509h44l-64 -178l126 -331l186 509h42l-208 -570h-39l-129 333l-121 -333h-41z" />
    <glyph glyph-name="ygrave.smcp" horiz-adv-x="563" 
d="M137 763h49l116 -133h-32zM306 -1h-41v191l-222 380h47l196 -336l193 336h47l-220 -380v-191z" />
    <glyph glyph-name="wdieresis.smcp" horiz-adv-x="833" 
d="M266 660q0 12 8 20t20 8t20.5 -8t8.5 -20t-8.5 -20.5t-20.5 -8.5t-20 8.5t-8 20.5zM520 660q0 12 8.5 20t20.5 8t20.5 -8t8.5 -20t-8.5 -20.5t-20.5 -8.5t-20.5 8.5t-8.5 20.5zM43 570h45l189 -509l185 509h44l-64 -178l126 -331l186 509h42l-208 -570h-39l-129 333
l-121 -333h-41z" />
    <glyph glyph-name="uni1E61.smcp" horiz-adv-x="538" 
d="M241 649v59q0 16 16 16h24q16 0 16 -16v-59q0 -16 -16 -16h-24q-16 0 -16 16zM68 374v64q0 65 32 100t106 35q119 0 246 -17v-28q-148 5 -245.5 5t-97.5 -95v-64q0 -39 17 -58q11 -14 46 -16h34h143q130 0 130 -112v-70q0 -128 -130 -128q-53 0 -144 5t-115 13v28
q163 -5 259 -5q46 0 67.5 27.5t21.5 59.5v70q0 39 -21 55.5t-68 16.5h-143q-75 0 -106.5 22.5t-31.5 91.5z" />
    <glyph glyph-name="wcircumflex.smcp" horiz-adv-x="833" 
d="M282 630l127 130h37l115 -130h-36l-98 100l-109 -100h-36zM43 570h45l189 -509l185 509h44l-64 -178l126 -331l186 509h42l-208 -570h-39l-129 333l-121 -333h-41z" />
    <glyph glyph-name="uni1E6B.smcp" horiz-adv-x="533" 
d="M240 646v59q0 16 16 16h24q16 0 16 -16v-59q0 -16 -16 -16h-24q-16 0 -16 16zM43 529v41h453v-41h-206v-529h-41v529h-206z" />
    <glyph glyph-name="ycircumflex.smcp" horiz-adv-x="563" 
d="M145 630l127 130h37l115 -130h-36l-98 100l-109 -100h-36zM306 -1h-41v191l-222 380h47l196 -336l193 336h47l-220 -380v-191z" />
    <glyph glyph-name="c_k" horiz-adv-x="982" 
d="M60 148.5q-11 49.5 -11 125.5t12.5 131.5t37.5 83.5t54 38t91.5 10t187.5 -27v-28q-119 14 -180.5 14t-83 -8t-40.5 -31q-38 -44 -38 -185t40 -189t115 -48q105 0 315 194v553h41v-518l293 267h59l-246 -225l251 -305h-52l-228 277l-77 -70v-208h-41v172
q-105 -91 -178.5 -134.5t-133.5 -43.5q-36 0 -62 6t-52.5 23.5t-44.5 46.5t-29 78.5z" />
    <glyph glyph-name="N.salt" horiz-adv-x="687" 
d="M98 0v652q0 48 34 72q21 15 40 15q67 0 89 -59l236 -613q12 -32 41 -32q14 0 28.5 11t14.5 34v652h41v-653q0 -45 -33 -69q-23 -18 -42 -18q-66 0 -88 58l-237 615q-11 31 -40 31q-13 0 -27.5 -11t-14.5 -37v-648h-42z" />
    <glyph glyph-name="M.salt" horiz-adv-x="806" 
d="M140 724q21 16 39 16q63 0 81 -60l123 -410q5 -17 16 -22.5t21 1t14 21.5l110 411q13 42 50 55q12 4 30 4t39 -15q33 -23 35 -72l49 -653h-41l-51 657q-1 23 -13.5 32t-20.5 9q-29 0 -38 -32l-110 -410q-9 -32 -36 -45q-14 -7 -27.5 -7t-27.5 6q-28 13 -38 46l-122 409
q-9 32 -35 32q-11 0 -23.5 -9.5t-13.5 -31.5l-42 -656h-40l40 652q0 48 32 72z" />
    <glyph glyph-name="uni1E40.salt" horiz-adv-x="806" 
d="M388 816v59q0 16 16 16h24q16 0 16 -16v-59q0 -16 -16 -16h-24q-16 0 -16 16zM140 724q21 16 39 16q63 0 81 -60l123 -410q5 -17 16 -22.5t21 1t14 21.5l110 411q13 42 50 55q12 4 30 4t39 -15q33 -23 35 -72l49 -653h-41l-51 657q-1 23 -13.5 32t-20.5 9q-29 0 -38 -32
l-110 -410q-9 -32 -36 -45q-14 -7 -27.5 -7t-27.5 6q-28 13 -38 46l-122 409q-9 32 -35 32q-11 0 -23.5 -9.5t-13.5 -31.5l-42 -656h-40l40 652q0 48 32 72z" />
    <glyph glyph-name="Ntilde.salt" horiz-adv-x="687" 
d="M376.5 867.5q41.5 -29.5 52.5 -29.5t20.5 2.5t16.5 5.5t17.5 9t14.5 9q21 17 30 21l12 -19q-24 -22 -35 -31t-33 -20t-44 -10.5t-61.5 30t-54.5 29.5t-29 -4.5t-22 -9t-24.5 -15.5t-24.5 -16l-10 19q24 20 37 30q37 30 73 30q23 -1 64.5 -30.5zM98 0v652q0 48 34 72
q21 15 40 15q67 0 89 -59l236 -613q12 -32 41 -32q14 0 28.5 11t14.5 34v652h41v-653q0 -45 -33 -69q-23 -18 -42 -18q-66 0 -88 58l-237 615q-11 31 -40 31q-13 0 -27.5 -11t-14.5 -37v-648h-42z" />
    <glyph glyph-name="Nacute.salt" horiz-adv-x="687" 
d="M359 797l116 133h49l-133 -133h-32zM98 0v652q0 48 34 72q21 15 40 15q67 0 89 -59l236 -613q12 -32 41 -32q14 0 28.5 11t14.5 34v652h41v-653q0 -45 -33 -69q-23 -18 -42 -18q-66 0 -88 58l-237 615q-11 31 -40 31q-13 0 -27.5 -11t-14.5 -37v-648h-42z" />
    <glyph glyph-name="Ncaron.salt" horiz-adv-x="687" 
d="M242 927h35l102 -100l106 100h36l-123 -130h-38zM98 0v652q0 48 34 72q21 15 40 15q67 0 89 -59l236 -613q12 -32 41 -32q14 0 28.5 11t14.5 34v652h41v-653q0 -45 -33 -69q-23 -18 -42 -18q-66 0 -88 58l-237 615q-11 31 -40 31q-13 0 -27.5 -11t-14.5 -37v-648h-42z
" />
    <glyph glyph-name="Ncommaaccent.salt" horiz-adv-x="687" 
d="M319 -137v53q0 17 15 17h22q14 0 14 -17v-93q0 -24 -11.5 -34t-22.5 -10h-3l-12 1v14q20 0 20 18v36h-7q-15 0 -15 15zM98 0v652q0 48 34 72q21 15 40 15q67 0 89 -59l236 -613q12 -32 41 -32q14 0 28.5 11t14.5 34v652h41v-653q0 -45 -33 -69q-23 -18 -42 -18
q-66 0 -88 58l-237 615q-11 31 -40 31q-13 0 -27.5 -11t-14.5 -37v-648h-42z" />
    <glyph glyph-name="zero.numerator" horiz-adv-x="495" 
d="M74 365v255q0 60 30 85t87 25h117q113 0 113 -110v-255q0 -66 -28.5 -88t-84.5 -22h-117q-86 0 -107 51q-10 23 -10 59zM107 369q0 -48 19.5 -64.5t68.5 -16.5h109q52 0 68 18t16 63v247q0 42 -18.5 61.5t-65.5 19.5h-109q-49 0 -68.5 -18.5t-19.5 -62.5v-247z" />
    <glyph glyph-name="one.numerator" horiz-adv-x="260" 
d="M181 732v-476h-33v441l-128 -43v23l128 55h33z" />
    <glyph glyph-name="two.numerator" horiz-adv-x="402" 
d="M39 705q-2 0 -2 5.5t2 17.5q83 10 183 10q130 0 130 -136q0 -41 -28 -86q-29 -49 -57 -78t-44.5 -45.5t-38.5 -35.5t-34 -29q-44 -37 -48 -39h249v-33h-309v29q2 2 35 28t50 40t50.5 43.5t53.5 51.5t43 50q43 54 43 103.5t-22 76.5t-81 27h-175z" />
    <glyph glyph-name="three.numerator" horiz-adv-x="426" 
d="M37 700v22q42 11 195 11q61 0 91 -31.5t30 -80.5v-35q0 -36 -24 -60.5t-47 -29.5q24 -8 47.5 -33.5t23.5 -63.5v-28q0 -58 -28 -88.5t-98 -30.5q-139 0 -186 13v20h178q55 0 78 19.5t23 70.5v23q0 40 -29 61t-68 22l-142 4v23l142 5q43 2 70.5 22t27.5 54v31q0 80 -93 80
h-191z" />
    <glyph glyph-name="four.numerator" horiz-adv-x="411" 
d="M302 441v121l16 48h17v-169h59v-23l-59 -12v-150h-33v150h-272l-10 15l196 309h37l-183 -289h232z" />
    <glyph glyph-name="five.numerator" horiz-adv-x="440" 
d="M216 538l67 -2q57 0 83 -26.5t26 -80.5v-64q0 -59 -29.5 -86.5t-79.5 -27.5q-162 0 -215 9v25h211q80 0 80 84v56q0 59 -35 72q-17 6 -43 6h-112q-29 0 -50 -19t-22 -46h-29l15 292h295v-33h-265l-11 -200q17 29 60 35q33 6 54 6z" />
    <glyph glyph-name="six.numerator" horiz-adv-x="461" 
d="M152 729q16 5 43 6t82 1t118 -9v-25h-204q-54 0 -73 -60q-18 -52 -18 -132q92 10 206 10q61 0 83 -22t22 -65v-73q0 -52 -28.5 -78.5t-76.5 -26.5h-107q-30 0 -52 9q-80 35 -80 227q0 172 53 219q16 14 32 19zM100 487q0 -199 98 -199h106q74 0 74 75v68q0 35 -17.5 45.5
t-56.5 10.5h-204z" />
    <glyph glyph-name="seven.numerator" horiz-adv-x="374" 
d="M18 699v33h325l12 -20l-183 -456h-35l177 443h-296z" />
    <glyph glyph-name="eight.numerator" horiz-adv-x="495" 
d="M81 358v58q0 33 21.5 52.5t45.5 22.5q-35 8 -51 32.5t-16 54.5v40q0 65 30.5 91t85.5 26h110q54 0 81 -27t27 -90v-40q0 -26 -15.5 -50t-47.5 -28q25 -4 44 -29.5t19 -54.5v-58q0 -104 -105 -104h-120q-63 0 -86 28t-23 76zM114 362q0 -41 17.5 -58t62.5 -17h112
q38 0 57 17.5t19 57.5v50q0 33 -21 50t-47 17h-122q-35 0 -56.5 -18t-21.5 -48v-51zM114 582q0 -35 20.5 -52.5t51.5 -17.5h124q32 0 52 19.5t20 50.5v32q0 52 -19.5 70t-64.5 18h-97q-46 0 -66.5 -19t-20.5 -69v-32z" />
    <glyph glyph-name="nine.numerator" horiz-adv-x="461" 
d="M56 558v73q0 52 28.5 78.5t76.5 26.5h107q30 0 52 -10q80 -34 80 -226q0 -153 -38 -202q-18 -23 -37 -32q-25 -12 -113 -12t-140 10v25h203q52 0 71.5 52t20.5 140q-83 -9 -206 -9q-61 0 -83 21.5t-22 64.5zM89 560q0 -35 17.5 -45.5t56.5 -10.5h204q0 199 -97 199h-107
q-74 0 -74 -75v-68z" />
    <glyph glyph-name="zero.denominator" horiz-adv-x="495" 
d="M74 110v255q0 60 30 85t87 25h117q113 0 113 -110v-255q0 -66 -28.5 -88t-84.5 -22h-117q-86 0 -107 51q-10 23 -10 59zM107 114q0 -48 19.5 -64.5t68.5 -16.5h109q52 0 68 18t16 63v247q0 42 -18.5 61.5t-65.5 19.5h-109q-49 0 -68.5 -18.5t-19.5 -62.5v-247z" />
    <glyph glyph-name="one.denominator" horiz-adv-x="260" 
d="M181 477v-476h-33v441l-128 -43v23l128 55h33z" />
    <glyph glyph-name="two.denominator" horiz-adv-x="402" 
d="M39 450q-2 0 -2 6t2 17q83 10 183 10q130 0 130 -136q0 -41 -28 -86q-29 -49 -57 -78t-44.5 -45.5t-38.5 -35.5t-34 -30q-44 -36 -48 -38h249v-33h-309v29q2 2 35 28t50 40t50.5 43.5t53.5 51.5t43 50q43 54 43 103.5t-22 76.5t-81 27h-175z" />
    <glyph glyph-name="three.denominator" horiz-adv-x="426" 
d="M37 445v22q42 11 195 11q61 0 91 -31.5t30 -80.5v-35q0 -36 -24 -60.5t-47 -29.5q24 -8 47.5 -33.5t23.5 -63.5v-28q0 -58 -28 -88.5t-98 -30.5q-139 0 -186 13v20h178q55 0 78 19.5t23 70.5v23q0 40 -29 61t-68 22l-142 4v23l142 5q43 2 70.5 22t27.5 54v31q0 80 -93 80
h-191z" />
    <glyph glyph-name="four.denominator" horiz-adv-x="411" 
d="M302 186v121l16 48h17v-169h59v-23l-59 -12v-150h-33v150h-272l-10 15l196 309h37l-183 -289h232z" />
    <glyph glyph-name="five.denominator" horiz-adv-x="440" 
d="M216 282l67 -1q57 0 83 -26.5t26 -80.5v-64q0 -59 -29.5 -86.5t-79.5 -27.5q-162 0 -215 9v25h211q80 0 80 84v56q0 59 -35 72q-17 6 -43 6h-112q-29 0 -50 -19t-22 -46h-29l15 292h295v-33h-265l-11 -200q17 29 60 36q33 4 54 4z" />
    <glyph glyph-name="six.denominator" horiz-adv-x="461" 
d="M152 474q16 5 45 6.5t85 1.5t113 -10v-25h-204q-54 0 -73 -59q-18 -53 -18 -133q92 10 206 10q61 0 83 -22t22 -65v-73q0 -52 -28.5 -78.5t-76.5 -26.5h-107q-30 0 -52 10q-80 34 -80 226q0 172 53 218q16 15 32 20zM100 232q0 -199 98 -199h106q74 0 74 75v68
q0 35 -17.5 45.5t-56.5 10.5h-204z" />
    <glyph glyph-name="seven.denominator" horiz-adv-x="374" 
d="M18 444v33h325l12 -20l-183 -456h-35l177 443h-296z" />
    <glyph glyph-name="eight.denominator" horiz-adv-x="495" 
d="M81 103v58q0 33 21.5 52.5t45.5 22.5q-35 8 -51 32.5t-16 54.5v40q0 65 30.5 91t85.5 26h110q54 0 81 -27t27 -90v-40q0 -26 -15.5 -50t-47.5 -28q25 -4 44 -29.5t19 -54.5v-58q0 -104 -105 -104h-120q-63 0 -86 28t-23 76zM114 107q0 -41 17.5 -58t62.5 -17h112
q38 0 57 17.5t19 57.5v50q0 33 -21 50t-47 17h-122q-35 0 -56.5 -18t-21.5 -48v-51zM114 327q0 -35 20.5 -52.5t51.5 -17.5h124q32 0 52 19.5t20 50.5v32q0 51 -19.5 69.5t-64.5 18.5h-97q-46 0 -66.5 -19t-20.5 -69v-32z" />
    <glyph glyph-name="nine.denominator" horiz-adv-x="461" 
d="M56 303v73q0 52 28.5 78.5t76.5 26.5h107q30 0 52 -9q80 -35 80 -227q0 -153 -38 -202q-18 -23 -37 -32q-25 -12 -110.5 -12t-142.5 10v25h203q52 0 71.5 52t20.5 140q-83 -9 -206 -9q-61 0 -83 21.5t-22 64.5zM89 305q0 -35 17.5 -45.5t56.5 -10.5h204q0 199 -97 199
h-107q-74 0 -74 -75v-68z" />
    <glyph glyph-name="c_h" horiz-adv-x="1042" 
d="M344 -7l-66 1h-54q-42 0 -71 10t-54 38q-50 56 -50 224q0 167 50 223q25 28 54 38t91.5 10t187.5 -27v-28q-119 14 -180.5 14t-83 -8t-40.5 -31q-38 -44 -38 -195q0 -137 37 -184q19 -24 41.5 -33.5t55.5 -9.5l103 -1q64 0 87 3.5t46 9t36.5 14t29 21.5t22.5 30
q19 44 19 94v578h41v-314q112 71 210 71q76 0 120 -50t44 -120v-370h-42v370q0 59 -32.5 94t-91.5 35t-103.5 -14t-104.5 -46v-234q0 -107 -50 -152q-17 -16 -33 -26.5t-42 -17.5q-62 -17 -139 -17z" />
    <glyph glyph-name="m.salt" horiz-adv-x="901" 
d="M74 0v483q92 37 133 47t115.5 10t119.5 -47q72 28 117 37.5t119.5 9.5t118.5 -50t44 -120v-370h-41v370q0 57 -34 93t-89 36q-109 0 -214 -38q25 -38 25 -91v-370h-41v370q0 57 -34 93t-89 36q-101 0 -209 -40v-459h-41z" />
    <glyph glyph-name="n.salt" 
d="M74 0v483q92 37 133 47t117 10t120 -50t44 -120v-370h-41v370q0 57 -34 93t-89 36q-101 0 -209 -40v-459h-41z" />
    <glyph glyph-name="ntilde.salt" 
d="M286.5 663.5q41.5 -29.5 52.5 -29.5t20.5 2.5t16.5 5.5t17.5 9t14.5 9q21 17 30 21l12 -19q-24 -22 -35 -31t-33 -20t-44 -10.5t-61.5 30t-54.5 29.5t-29 -4.5t-22 -9t-24.5 -15.5t-24.5 -16l-10 19q24 20 37 30q37 30 73 30q23 -1 64.5 -30.5zM74 0v483q92 37 133 47
t117 10t120 -50t44 -120v-370h-41v370q0 57 -34 93t-89 36q-101 0 -209 -40v-459h-41z" />
    <glyph glyph-name="ncommaaccent.salt" 
d="M250 -130v53q0 17 15 17h21q15 0 15 -17v-93q0 -24 -11.5 -34t-22.5 -10h-3l-12 2v13q20 0 20 18v36h-7q-15 0 -15 15zM74 0v483q92 37 133 47t117 10t120 -50t44 -120v-370h-41v370q0 57 -34 93t-89 36q-101 0 -209 -40v-459h-41z" />
    <glyph glyph-name="ncaron.salt" 
d="M141 730h35l102 -100l106 100h36l-123 -130h-38zM74 0v483q92 37 133 47t117 10t120 -50t44 -120v-370h-41v370q0 57 -34 93t-89 36q-101 0 -209 -40v-459h-41z" />
    <glyph glyph-name="nacute.salt" 
d="M268 600l116 133h49l-133 -133h-32zM74 0v483q92 37 133 47t117 10t120 -50t44 -120v-370h-41v370q0 57 -34 93t-89 36q-101 0 -209 -40v-459h-41z" />
    <glyph glyph-name="uni1E41.salt" horiz-adv-x="901" 
d="M432 616v59q0 16 16 16h24q16 0 16 -16v-59q0 -16 -16 -16h-24q-16 0 -16 16zM74 0v483q92 37 133 47t115.5 10t119.5 -47q72 28 117 37.5t119.5 9.5t118.5 -50t44 -120v-370h-41v370q0 57 -34 93t-89 36q-109 0 -214 -38q25 -38 25 -91v-370h-41v370q0 57 -34 93t-89 36
q-101 0 -209 -40v-459h-41z" />
    <glyph glyph-name="r.salt" horiz-adv-x="427" 
d="M262 538.5q28 3.5 60 3.5t80 -4v-41q-31 3 -62 3q-115 0 -225 -41v-459h-41v483q89 38 124.5 45t63.5 10.5z" />
    <glyph glyph-name="racute.salt" horiz-adv-x="427" 
d="M229 601l116 133h49l-133 -133h-32zM262 538.5q28 3.5 60 3.5t80 -4v-41q-31 3 -62 3q-115 0 -225 -41v-459h-41v483q89 38 124.5 45t63.5 10.5z" />
    <glyph glyph-name="rcaron.salt" horiz-adv-x="427" 
d="M105 731h35l102 -100l106 100h36l-123 -130h-38zM262 538.5q28 3.5 60 3.5t80 -4v-41q-31 3 -62 3q-115 0 -225 -41v-459h-41v483q89 38 124.5 45t63.5 10.5z" />
    <glyph glyph-name="rcommaaccent.salt" horiz-adv-x="427" 
d="M63 -131v53q0 17 15 17h22q14 0 14 -17v-93q0 -24 -11.5 -34t-22.5 -10h-3l-12 1v14q20 0 20 18v36h-7q-15 0 -15 15zM257 538.5q28 3.5 60 3.5t80 -4v-41q-31 3 -62 3q-115 0 -225 -41v-459h-41v483q89 38 124.5 45t63.5 10.5z" />
    <glyph glyph-name="x.salt" horiz-adv-x="518" 
d="M179 214q22 30 24.5 44t2.5 23q0 23 -37 69l-144 181h49l125 -155q49 -60 49 -96.5t-32 -84.5l-142 -195h-49zM319 376l125 155h50l-145 -181q-39 -49 -39 -71t29 -65l155 -214h-50l-142 195q-33 49 -33 84.5t50 96.5z" />
    <glyph glyph-name="X.salt" horiz-adv-x="608" 
d="M226 298q23 33 23 75.5t-41 96.5l-183 262h47l173 -245q45 -63 45 -123q0 -46 -24 -80l-193 -284h-48zM318 351v24.5t11 49t34 62.5l173 245h47l-183 -262q-41 -54 -41 -96.5t23 -75.5l201 -298h-48l-193 284q-21 30 -24 67z" />
    <glyph glyph-name="a.salt" horiz-adv-x="539" 
d="M62 131v64q0 122 136 122h238q0 135 -58 164q-30 15 -93 15t-213 -11v29q133 23 223 23q109 0 145.5 -57.5t36.5 -210.5v-113q0 -156 -155 -156h-124q-136 0 -136 131zM103 131q0 -45 22.5 -67.5t72.5 -22.5h124q65 0 89.5 30t24.5 85v132l-238 -12q-48 -2 -71.5 -20
t-23.5 -61v-64z" />
    <glyph glyph-name="agrave.salt" horiz-adv-x="539" 
d="M141 730h49l116 -133h-32zM62 131v64q0 122 136 122h238q0 135 -58 164q-30 15 -93 15t-213 -11v29q133 23 223 23q109 0 145.5 -57.5t36.5 -210.5v-113q0 -156 -155 -156h-124q-136 0 -136 131zM103 131q0 -45 22.5 -67.5t72.5 -22.5h124q65 0 89.5 30t24.5 85v132
l-238 -12q-48 -2 -71.5 -20t-23.5 -61v-64z" />
    <glyph glyph-name="aacute.salt" horiz-adv-x="539" 
d="M266 597l116 133h49l-133 -133h-32zM62 131v64q0 122 136 122h238q0 135 -58 164q-30 15 -93 15t-213 -11v29q133 23 223 23q109 0 145.5 -57.5t36.5 -210.5v-113q0 -156 -155 -156h-124q-136 0 -136 131zM103 131q0 -45 22.5 -67.5t72.5 -22.5h124q65 0 89.5 30t24.5 85
v132l-238 -12q-48 -2 -71.5 -20t-23.5 -61v-64z" />
    <glyph glyph-name="atilde.salt" horiz-adv-x="539" 
d="M290.5 660.5q41.5 -29.5 52.5 -29.5t20.5 2.5t16.5 5.5t17.5 9t14.5 10q21 16 30 20l12 -19q-24 -22 -35 -31t-33 -20t-44 -10.5t-61.5 30t-54.5 29.5t-29 -4.5t-22 -9t-24.5 -15.5t-24.5 -16l-10 19q24 20 37 31q37 29 73 29q23 -1 64.5 -30.5zM62 131v64q0 122 136 122
h238q0 135 -58 164q-30 15 -93 15t-213 -11v29q133 23 223 23q109 0 145.5 -57.5t36.5 -210.5v-113q0 -156 -155 -156h-124q-136 0 -136 131zM103 131q0 -45 22.5 -67.5t72.5 -22.5h124q65 0 89.5 30t24.5 85v132l-238 -12q-48 -2 -71.5 -20t-23.5 -61v-64z" />
    <glyph glyph-name="aring.salt" horiz-adv-x="539" 
d="M181 699q0 43 30 73t72 30t71 -30t29 -73t-29 -72.5t-71 -29.5t-72 29.5t-30 72.5zM206 699q0 -31 22.5 -53.5t54 -22.5t53.5 22t22 54t-22 54.5t-53 22.5t-54 -23t-23 -54zM62 131v64q0 122 136 122h238q0 135 -58 164q-30 15 -93 15t-213 -11v29q133 23 223 23
q109 0 145.5 -57.5t36.5 -210.5v-113q0 -156 -155 -156h-124q-136 0 -136 131zM103 131q0 -45 22.5 -67.5t72.5 -22.5h124q65 0 89.5 30t24.5 85v132l-238 -12q-48 -2 -71.5 -20t-23.5 -61v-64z" />
    <glyph glyph-name="acircumflex.salt" horiz-adv-x="539" 
d="M143 597l127 130h37l115 -130h-36l-98 100l-109 -100h-36zM62 131v64q0 122 136 122h238q0 135 -58 164q-30 15 -93 15t-213 -11v29q133 23 223 23q109 0 145.5 -57.5t36.5 -210.5v-113q0 -156 -155 -156h-124q-136 0 -136 131zM103 131q0 -45 22.5 -67.5t72.5 -22.5h124
q65 0 89.5 30t24.5 85v132l-238 -12q-48 -2 -71.5 -20t-23.5 -61v-64z" />
    <glyph glyph-name="adieresis.salt" horiz-adv-x="539" 
d="M117 626q0 12 8 20t20 8t20.5 -8t8.5 -20t-8.5 -20.5t-20.5 -8.5t-20 8.5t-8 20.5zM371 626q0 12 8.5 20t20.5 8t20.5 -8t8.5 -20t-8.5 -20.5t-20.5 -8.5t-20.5 8.5t-8.5 20.5zM62 131v64q0 122 136 122h238q0 135 -58 164q-30 15 -93 15t-213 -11v29q133 23 223 23
q109 0 145.5 -57.5t36.5 -210.5v-113q0 -156 -155 -156h-124q-136 0 -136 131zM103 131q0 -45 22.5 -67.5t72.5 -22.5h124q65 0 89.5 30t24.5 85v132l-238 -12q-48 -2 -71.5 -20t-23.5 -61v-64z" />
    <glyph glyph-name="aogonek.salt" horiz-adv-x="562" 
d="M425 18q-71 -37 -71 -92q0 -16 15 -32q24 -27 78 -27v-30q-10 -1 -30 -1t-49.5 16t-41.5 45q-5 11 -5 27t11 36q19 35 72 58h21zM78 131v64q0 122 136 122h238q0 135 -58 164q-30 15 -93 15t-213 -11v29q133 23 223 23q109 0 145.5 -57.5t36.5 -210.5v-113
q0 -156 -155 -156h-124q-136 0 -136 131zM119 131q0 -45 22.5 -67.5t72.5 -22.5h124q65 0 89.5 30t24.5 85v132l-238 -12q-48 -2 -71.5 -20t-23.5 -61v-64z" />
    <glyph glyph-name="abreve.salt" horiz-adv-x="539" 
d="M162 711h25q0 -38 26 -63.5t60 -25.5q42 0 68 25t26 64h25q0 -53 -35.5 -83.5t-80 -30.5t-79.5 31.5t-35 82.5zM62 131v64q0 122 136 122h238q0 135 -58 164q-30 15 -93 15t-213 -11v29q133 23 223 23q109 0 145.5 -57.5t36.5 -210.5v-113q0 -156 -155 -156h-124
q-136 0 -136 131zM103 131q0 -45 22.5 -67.5t72.5 -22.5h124q65 0 89.5 30t24.5 85v132l-238 -12q-48 -2 -71.5 -20t-23.5 -61v-64z" />
    </font>
</defs>
</svg>
