<?xml version="1.0" standalone="no"?>
<!DOCTYPE svg PUBLIC "-//W3C//DTD SVG 1.1//EN" "http://www.w3.org/Graphics/SVG/1.1/DTD/svg11.dtd" >
<svg xmlns="http://www.w3.org/2000/svg" xmlns:xlink="http://www.w3.org/1999/xlink" version="1.1">
<metadata>
Created by FontForge 20170731 at Sun Oct 19 05:33:12 2014
 By Aleksey,,,
(c) 2014 Typodermic Fonts Inc. See attached license agreement. If agreement is missing visit typodermicfonts.com for more info.
</metadata>
<defs>
<font id="Breamcatcher-Regular" horiz-adv-x="364" >
  <font-face 
    font-family="Breamcatcher"
    font-weight="400"
    font-stretch="normal"
    units-per-em="1000"
    panose-1="4 9 9 4 8 11 2 2 10 4"
    ascent="768"
    descent="-232"
    cap-height="779"
    bbox="-110 -232 630 968"
    underline-thickness="20"
    underline-position="-163"
    unicode-range="U+0017-25CA"
  />
<missing-glyph horiz-adv-x="514" 
d="M172 -80q-50 0 -76.5 22.5t-26.5 69.5v770q0 45 26.5 68t76.5 23h169q104 0 104 -91v-770q0 -92 -104 -92h-169zM266 236q0 35 7 62.5t17.5 52t22 49.5t22 54t17 65.5t6.5 85.5q0 86 -36.5 135.5t-102.5 49.5q-23 0 -35.5 -5.5t-19.5 -10.5v-64q5 7 18 12t28 5
q41 0 63 -30.5t22 -98.5q0 -61 -12.5 -104t-28.5 -82t-29.5 -80t-14.5 -96h56zM194 42q0 -25 10 -38t33 -13t33 13t10 38q0 23 -10 37t-33 14q-25 0 -33.5 -14t-9.5 -37z" />
    <glyph glyph-name="copyright" unicode="&#x28;C&#x29;" horiz-adv-x="589" 
d="M292 37q48 0 87 19.5t66 62t42 109.5t15 163q0 97 -14.5 164t-41.5 109t-64.5 60.5t-83.5 18.5t-84.5 -18.5t-66.5 -59.5t-44 -106.5t-16 -159.5q0 -188 54 -275t151 -87zM291 -10q-116 0 -181 99.5t-65 308.5q0 104 18 178.5t51 122t79.5 69.5t102.5 22t102 -22.5
t78.5 -70.5t50 -123.5t17.5 -182.5q0 -106 -17.5 -182t-50.5 -124.5t-80 -71.5t-105 -23zM212 398q0 129 23.5 187t69.5 58q14 0 22.5 -2.5t13.5 -6.5v-40q-5 5 -12.5 8t-19.5 3q-28 0 -42.5 -48.5t-14.5 -158.5q0 -111 14.5 -159t42.5 -48q12 0 19.5 3t12.5 7v-39
q-5 -4 -13.5 -6.5t-22.5 -2.5q-46 0 -69.5 57.5t-23.5 187.5z" />
    <glyph glyph-name="registered" unicode="&#x28;R&#x29;" horiz-adv-x="589" 
d="M291 -10q-116 0 -181 99.5t-65 308.5q0 104 18 178.5t51 122t79.5 69.5t102.5 22t102 -22.5t78.5 -70.5t50 -123.5t17.5 -182.5q0 -106 -17.5 -182t-50.5 -124.5t-80 -71.5t-105 -23zM292 37q48 0 87 19.5t66 62t42 109.5t15 163q0 97 -14.5 164t-41.5 109t-64.5 60.5
t-83.5 18.5t-84.5 -18.5t-66.5 -59.5t-44 -106.5t-16 -159.5q0 -188 54 -275t151 -87zM259 159h-38v481q41 -1 69 -15.5t45.5 -39t25 -56.5t7.5 -68q0 -58 -20.5 -97.5t-60.5 -68.5q32 -48 68 -85t64 -51h-63q-11 6 -23 18.5t-24.5 28.5t-25 34.5t-23.5 37.5q0 -1 -1 -1
v-118zM259 314q37 25 53.5 58.5t16.5 83.5q0 25 -4 48.5t-12.5 43t-22 32.5t-31.5 18v-284z" />
    <glyph glyph-name="uni2117" unicode="&#x28;P&#x29;" horiz-adv-x="589" 
d="M292 37q48 0 87 19.5t66 62t42 109.5t15 163q0 97 -14.5 164t-41.5 109t-64.5 60.5t-83.5 18.5t-84.5 -18.5t-66.5 -59.5t-44 -106.5t-16 -159.5q0 -188 54 -275t151 -87zM291 -10q-116 0 -181 99.5t-65 308.5q0 104 18 178.5t51 122t79.5 69.5t102.5 22t102 -22.5
t78.5 -70.5t50 -123.5t17.5 -182.5q0 -106 -17.5 -182t-50.5 -124.5t-80 -71.5t-105 -23zM272 159h-39v481q41 -1 69.5 -16t46 -39t25 -56t7.5 -68q0 -68 -27.5 -110t-81.5 -74v-118zM272 314q36 25 53 58.5t17 83.5q0 25 -4 48.5t-13 43t-22 32.5t-31 18v-284z" />
    <glyph glyph-name=".notdef" horiz-adv-x="514" 
d="M172 -80q-50 0 -76.5 22.5t-26.5 69.5v770q0 45 26.5 68t76.5 23h169q104 0 104 -91v-770q0 -92 -104 -92h-169zM266 236q0 35 7 62.5t17.5 52t22 49.5t22 54t17 65.5t6.5 85.5q0 86 -36.5 135.5t-102.5 49.5q-23 0 -35.5 -5.5t-19.5 -10.5v-64q5 7 18 12t28 5
q41 0 63 -30.5t22 -98.5q0 -61 -12.5 -104t-28.5 -82t-29.5 -80t-14.5 -96h56zM194 42q0 -25 10 -38t33 -13t33 13t10 38q0 23 -10 37t-33 14q-25 0 -33.5 -14t-9.5 -37z" />
    <glyph glyph-name=".null" horiz-adv-x="0" 
 />
    <glyph glyph-name="nonmarkingreturn" horiz-adv-x="196" 
 />
    <glyph glyph-name="uni0017" horiz-adv-x="196" 
 />
    <glyph glyph-name="space" unicode=" " horiz-adv-x="196" 
 />
    <glyph glyph-name="exclam" unicode="!" horiz-adv-x="225" 
d="M83 236l-13 543h84l-14 -543h-57zM112 -9q-21 0 -32 12t-11 39q0 52 43 52q44 0 44 -52q0 -27 -10.5 -39t-33.5 -12z" />
    <glyph glyph-name="quotedbl" unicode="&#x22;" horiz-adv-x="224" 
d="M25 521zM36 521l-11 258h62l-11 -258h-40zM148 521l-11 258h62l-11 -258h-40z" />
    <glyph glyph-name="numbersign" unicode="#" horiz-adv-x="478" 
d="M200 0l60 245h-116l-58 -245h-45l58 245h-71v40h79l52 213h-101v40h111l57 241h45l-57 -241h115l57 241h44l-57 -241h77v-40h-86l-52 -213h110v-40h-117l-60 -245h-45zM319 498h-115l-51 -213h114z" />
    <glyph glyph-name="dollar" unicode="$" horiz-adv-x="318" 
d="M139 0v88q-23 -3 -46 -3q-9 0 -20.5 1t-20.5 2v58q9 -2 18 -3.5t20 -1.5q31 0 52.5 4t34.5 15.5t18.5 32t5.5 52.5q0 31 -11 55.5t-27 46t-35.5 42t-35.5 44t-27 52t-11 65.5q0 44 17.5 76t67.5 46v107h43v-99q7 1 14 1.5t15 0.5t20 -1t22 -2v-60q-8 2 -16.5 2.5
t-16.5 0.5q-53 0 -76 -18.5t-23 -56.5q0 -32 11 -55.5t27.5 -43.5t36 -39.5t36 -43t27.5 -53.5t11 -71q0 -49 -17.5 -87.5t-70.5 -56.5v-97h-43z" />
    <glyph glyph-name="percent" unicode="%" horiz-adv-x="496" 
d="M45 0zM194 562q0 -44 -4.5 -83.5t-13.5 -69t-23.5 -47t-33.5 -17.5q-20 0 -34 17.5t-23 47t-13 69t-4 83.5t4 84.5t13 71.5t23 49.5t34 18.5q19 0 33.5 -18.5t23.5 -49.5t13.5 -71.5t4.5 -84.5zM89 562q0 -30 1 -62t4.5 -58.5t9.5 -43.5t15 -17t15 17t9.5 43.5t4.5 58.5
t1 62q0 29 -1 62t-4 61t-9 46.5t-16 18.5t-16 -18.5t-9 -46.5t-4 -61t-1 -62zM59 0l330 779h49l-329 -779h-50zM451 211q0 -44 -4.5 -83.5t-13.5 -69t-23.5 -47t-33.5 -17.5q-20 0 -34 17.5t-23 47t-13 69t-4 83.5t4 84.5t13 71.5t23 49.5t34 18.5q19 0 33.5 -18.5
t23.5 -49.5t13.5 -71.5t4.5 -84.5zM346 211q0 -30 1 -62t4.5 -58.5t9.5 -43.5t15 -17t15 17t9.5 43.5t4.5 58.5t1 62q0 29 -1 62t-4 61t-9 46.5t-16 18.5t-16 -18.5t-9 -46.5t-4 -61t-1 -62z" />
    <glyph glyph-name="ampersand" unicode="&#x26;" horiz-adv-x="367" 
d="M270 0q-5 3 -10.5 8.5l-12.5 12.5q-42 -31 -99 -31q-19 0 -37.5 7t-33.5 21.5t-24 36t-9 51.5q0 20 3.5 36.5t11.5 33t19.5 34.5t28.5 41q-29 66 -46.5 139t-17.5 155q0 70 10.5 117t28 75.5t40 40.5t45.5 12q22 0 42.5 -12t36.5 -39.5t25 -73t9 -112.5q0 -57 -8 -100.5
t-23 -79.5t-35.5 -66t-45.5 -60q34 -77 87 -142q23 47 30 138h53q-1 -54 -13.5 -99t-35.5 -79q20 -21 41.5 -38t38.5 -27h-99zM106 551q0 -133 40 -249q21 30 34.5 56t21.5 54t11 60.5t3 76.5q0 49 -3.5 82.5t-10 53.5t-15.5 29t-20 9q-12 0 -23 -7t-19.5 -26t-13.5 -52.5
t-5 -86.5zM164 49q15 0 28 2.5t24 9.5l-2 4q-23 32 -43.5 66.5t-39.5 69.5q-14 -23 -20 -46t-6 -50q0 -23 14.5 -39.5t44.5 -16.5z" />
    <glyph glyph-name="quotesingle" unicode="'" horiz-adv-x="112" 
d="M36 521l-11 258h62l-11 -258h-40z" />
    <glyph glyph-name="parenleft" unicode="(" horiz-adv-x="344" 
d="M301 -138q-59 23 -100.5 65t-67.5 104.5t-37.5 146.5t-11.5 192q0 102 9 185.5t31.5 148.5t61 112t97.5 76l27 -38q-53 -29 -86.5 -75t-53 -107.5t-27 -137t-7.5 -164.5q0 -93 9.5 -169.5t31 -135.5t58 -100.5t90.5 -63.5z" />
    <glyph glyph-name="parenright" unicode=")" horiz-adv-x="343" 
d="M19 -99q54 22 90 63.5t58 100.5t31 135.5t9 169.5q0 89 -7.5 164.5t-27 137t-53 107.5t-86.5 75l28 38q58 -29 96.5 -76t61 -112t31.5 -148.5t9 -185.5q0 -108 -11.5 -192t-37 -146.5t-67 -104.5t-100.5 -65z" />
    <glyph glyph-name="asterisk" unicode="*" horiz-adv-x="444" 
d="M311 416l-88 138l-92 -137l-45 34l105 129l-162 44l19 50l155 -61l-11 166h60l-11 -167l157 62l17 -52l-162 -42l105 -130z" />
    <glyph glyph-name="plus" unicode="+" horiz-adv-x="579" 
d="M265 159v197h-196v49h196v194h49v-194h196v-49h-196v-197h-49z" />
    <glyph glyph-name="comma" unicode="," horiz-adv-x="137" 
d="M70 -9q-23 0 -34 12t-11 39q0 52 43 52q44 0 44 -52q0 -16 -4 -37t-11 -42.5t-15 -41.5t-16 -33h-41q10 13 21.5 39.5t23.5 63.5z" />
    <glyph glyph-name="hyphen" unicode="-" horiz-adv-x="187" 
d="M16 195v48h154v-48h-154z" />
    <glyph glyph-name="period" unicode="." horiz-adv-x="137" 
d="M68 -9q-21 0 -32 12t-11 39q0 52 43 52q44 0 44 -52q0 -27 -11 -39t-33 -12z" />
    <glyph glyph-name="slash" unicode="/" horiz-adv-x="330" 
d="M0 -42l283 833h47l-283 -833h-47z" />
    <glyph glyph-name="zero" unicode="0" horiz-adv-x="343" 
d="M298 383q0 -78 -8 -149.5t-23.5 -125.5t-39.5 -86t-56 -32t-56 32t-39.5 86t-23 125.5t-7.5 149.5t7.5 151.5t23 130.5t39.5 91t56 34t56 -34t39.5 -91t23.5 -130.5t8 -151.5zM108 383q0 -57 3 -116t10 -106.5t19.5 -78t30.5 -30.5t30.5 30.5t19.5 78t10 106.5t3 116
t-3 118t-10 111t-19.5 82.5t-30.5 32.5t-30.5 -32.5t-19.5 -82.5t-10 -111t-3 -118z" />
    <glyph glyph-name="one" unicode="1" horiz-adv-x="201" 
d="M69 0v689l63 101v-790h-63z" />
    <glyph glyph-name="two" unicode="2" horiz-adv-x="339" 
d="M58 0v114q0 57 11.5 101t34.5 86q23 44 49 83.5t47 81.5q17 31 25 66.5t8 65.5q0 68 -22.5 98.5t-62.5 30.5q-15 0 -28 -5t-18 -12v64q6 5 18.5 10.5t35.5 5.5q66 0 102.5 -49.5t36.5 -135.5q0 -49 -12 -95t-33 -83q-22 -39 -46.5 -76t-46.5 -78q-20 -38 -27.5 -74.5
t-7.5 -86.5v-52h167v-60h-231z" />
    <glyph glyph-name="three" unicode="3" horiz-adv-x="323" 
d="M192 716h-131v63h221l-96 -236q84 -55 84 -233q0 -152 -37.5 -236t-112.5 -84q-24 0 -37.5 4t-21.5 11v64q9 -7 20.5 -12t31.5 -5q46 0 69.5 68.5t23.5 189.5q0 96 -23.5 146.5t-69.5 50.5z" />
    <glyph glyph-name="four" unicode="4" horiz-adv-x="350" 
d="M217 0v195h-197l260 595v-547h28v-48h-28v-195h-63zM217 493h-5l-108 -250h113v250z" />
    <glyph glyph-name="five" unicode="5" horiz-adv-x="312" 
d="M206 301q0 117 -34 168t-115 43l9 267h183v-63h-124l-5 -154q44 -6 73 -28t46 -56.5t24 -79.5t7 -97q0 -145 -38 -228t-113 -83q-23 0 -36.5 4t-21.5 11v64q8 -7 20 -12t32 -5q46 0 69.5 67.5t23.5 181.5z" />
    <glyph glyph-name="six" unicode="6" horiz-adv-x="361" 
d="M319 255q0 -71 -9.5 -121.5t-27 -82.5t-43 -46.5t-57.5 -14.5t-57.5 15.5t-43 52t-27 96.5t-9.5 150q0 108 5.5 197.5t21.5 153.5t45.5 99.5t78.5 35.5q23 0 36.5 -4t21.5 -12v-64q-8 8 -20 12.5t-32 4.5q-35 0 -59.5 -63t-33.5 -178h4q12 17 33 30.5t49 13.5
q55 0 89.5 -66t34.5 -209zM109 255q0 -97 18 -150t55 -53t55 53t18 150q0 98 -18 155.5t-55 57.5t-55 -57.5t-18 -155.5z" />
    <glyph glyph-name="seven" unicode="7" horiz-adv-x="266" 
d="M57 0l111 716h-148v63h218l-114 -779h-67z" />
    <glyph glyph-name="eight" unicode="8" horiz-adv-x="377" 
d="M336 488q0 -78 -7 -130t-19 -85t-29 -50.5t-36 -26.5v-5q15 -3 29 -11t25 -20.5t17.5 -28.5t6.5 -33q0 -51 -37 -79.5t-98 -28.5t-98 28.5t-37 79.5q0 17 6.5 33t17.5 28.5t25.5 20.5t29.5 11v5q-20 9 -36.5 26.5t-28.5 50.5t-19 85t-7 130q0 81 12.5 138.5t33 94.5
t47 54.5t54.5 17.5t54.5 -17.5t47.5 -54.5t33.5 -94.5t12.5 -138.5zM104 488q0 -80 6.5 -132t18 -83t26.5 -43t33 -12t33 12t26.5 43t18 83t6.5 132q0 115 -24.5 176.5t-59.5 61.5t-59.5 -61.5t-24.5 -176.5zM115 109q0 -14 7 -24.5t17.5 -18.5t23.5 -12t25 -4t25 4t23.5 12
t17.5 18.5t7 24.5t-7 25t-17.5 19t-23.5 12t-25 4t-25 -4t-23.5 -12t-17.5 -19t-7 -25z" />
    <glyph glyph-name="nine" unicode="9" horiz-adv-x="358" 
d="M114 0q60 74 94 148t41 145h-4q-12 -17 -33 -30.5t-49 -13.5q-55 0 -89.5 66t-34.5 209t36 204.5t101 61.5q32 0 57.5 -15.5t43 -52t27 -97t9.5 -150.5q0 -161 -31.5 -282t-88.5 -193h-79zM249 524q0 97 -18 150t-55 53t-55 -53t-18 -150q0 -98 18 -155t55 -57t55 57
t18 155z" />
    <glyph glyph-name="colon" unicode=":" horiz-adv-x="225" 
d="M112 -9q-21 0 -32 12t-11 39q0 52 43 52q44 0 44 -52q0 -27 -11 -39t-33 -12zM112 370q-43 0 -43 53q0 52 43 52q44 0 44 -52q0 -53 -44 -53z" />
    <glyph glyph-name="semicolon" unicode=";" horiz-adv-x="224" 
d="M87 -63l20 59q-16 1 -27 11.5t-11 34.5q0 52 42 52q44 0 44 -52q0 -19 -8 -42l-25 -63h-35zM111 370q-42 0 -42 53q0 52 42 52q44 0 44 -52q0 -53 -44 -53z" />
    <glyph glyph-name="less" unicode="&#x3c;" horiz-adv-x="579" 
d="M69 363v41l441 278v-62l-375 -236l375 -238v-61z" />
    <glyph glyph-name="equal" unicode="=" horiz-adv-x="579" 
d="M69 248v49h441v-49h-441zM69 462v51h441v-51h-441z" />
    <glyph glyph-name="greater" unicode="&#x3e;" horiz-adv-x="579" 
d="M69 85v61l376 238l-376 236v62l441 -278v-41z" />
    <glyph glyph-name="question" unicode="?" horiz-adv-x="275" 
d="M84 236q1 55 14.5 96t29 80t28.5 82t13 104q0 68 -22.5 98.5t-62.5 30.5q-15 0 -28 -5t-18 -12v64q6 5 18.5 10.5t35.5 5.5q66 0 102.5 -49.5t36.5 -135.5q0 -48 -6.5 -85t-17 -66t-22 -54t-22 -49.5t-17.5 -52t-7 -62.5h-55zM67 42q1 23 10 37t33 14q23 0 33.5 -14
t10.5 -37q0 -51 -44 -51q-43 0 -43 51z" />
    <glyph glyph-name="at" unicode="@" horiz-adv-x="432" 
d="M387 -83q-18 -23 -55 -35t-79 -12q-73 0 -114.5 34t-62.5 95.5t-26 147.5t-5 190q0 85 4.5 157.5t22.5 125.5t53.5 83.5t98.5 30.5q56 0 88.5 -20t49 -55.5t21 -84t4.5 -106.5v-369h-38v64q-9 -32 -30 -52.5t-52 -20.5q-42 0 -68 50t-26 156t26 157.5t68 51.5
q32 0 52 -20.5t30 -55.5v48q0 42 -4.5 80t-17.5 67t-38 46.5t-65 17.5q-48 0 -75 -26.5t-40.5 -73t-17 -111.5t-3.5 -141q0 -105 5.5 -183.5t23 -130.5t50 -78t86.5 -26q87 0 134 56v-57zM346 377q-7 35 -24.5 56t-44.5 21q-29 0 -46 -37.5t-17 -120.5q0 -82 17 -119t46 -37
q23 0 43 23.5t26 54.5v159z" />
    <glyph glyph-name="A" unicode="A" horiz-adv-x="361" 
d="M235 195h-111l-34 -195h-62l156 815l149 -815h-64zM132 243h95l-45 262h-4z" />
    <glyph glyph-name="B" unicode="B" horiz-adv-x="344" 
d="M69 785q67 -2 113 -26t74 -63.5t40.5 -91.5t12.5 -110q0 -89 -32 -150t-81 -96v-3q48 -8 74.5 -38.5t26.5 -71.5q0 -30 -10 -55.5t-35.5 -44t-69.5 -29.5t-113 -11v790zM132 252q58 42 86 96.5t28 135.5q0 40 -6.5 79t-20.5 70.5t-35.5 53.5t-51.5 30v-465zM132 53
q54 0 78.5 23.5t24.5 55.5q0 13 -5.5 25.5t-16 23t-25.5 17t-35 6.5q-5 0 -10.5 -0.5t-10.5 -1.5v-149z" />
    <glyph glyph-name="C" unicode="C" horiz-adv-x="296" 
d="M45 389q0 106 9.5 181.5t28.5 124.5t47 72t66 23q23 0 36.5 -4t21.5 -12v-64q-8 8 -20 12.5t-32 4.5q-23 0 -40.5 -19t-29 -59.5t-17.5 -105t-6 -154.5t6 -154t17.5 -104.5t29 -59.5t40.5 -19q20 0 32 5t20 12v-64q-8 -7 -21.5 -11t-36.5 -4q-38 0 -66 23t-47 71.5
t-28.5 124t-9.5 180.5z" />
    <glyph glyph-name="D" unicode="D" horiz-adv-x="354" 
d="M69 785q67 -2 113 -35t74 -87t40.5 -125t12.5 -149t-12.5 -149t-40.5 -124.5t-74 -86t-113 -34.5v790zM132 63q30 10 51.5 41t35.5 75.5t20.5 98.5t6.5 111t-6.5 111.5t-20.5 99t-35.5 75.5t-51.5 42v-654z" />
    <glyph glyph-name="E" unicode="E" horiz-adv-x="278" 
d="M69 0v779h161v-63h-97v-473h95v-48h-95v-135h106v-60h-170z" />
    <glyph glyph-name="F" unicode="F" horiz-adv-x="277" 
d="M69 0v779h166v-63h-102v-473h95v-48h-95v-195h-64z" />
    <glyph glyph-name="G" unicode="G" horiz-adv-x="333" 
d="M276 432v-391q-14 -17 -38.5 -29t-50.5 -12q-34 0 -60.5 21.5t-44.5 68t-27.5 120.5t-9.5 179q0 106 9.5 181.5t28.5 124.5t47 72t66 23q23 0 36.5 -4t21.5 -12v-64q-8 8 -20 12.5t-32 4.5q-23 0 -40.5 -19t-29 -59.5t-17.5 -105t-6 -154.5q0 -158 18.5 -243.5
t58.5 -85.5q11 0 20 2.5t14 7.5v362h56z" />
    <glyph glyph-name="H" unicode="H" horiz-adv-x="389" 
d="M255 0v195h-122v-195h-64v779h64v-536h122v536h65v-779h-65z" />
    <glyph glyph-name="I" unicode="I" horiz-adv-x="202" 
d="M69 0v779h64v-779h-64z" />
    <glyph glyph-name="J" unicode="J" horiz-adv-x="221" 
d="M152 410q0 -117 -6 -200t-17 -141t-26.5 -97t-33.5 -68h-79q27 34 46 73t30.5 96t16.5 138t5 199v369h64v-369z" />
    <glyph glyph-name="K" unicode="K" horiz-adv-x="383" 
d="M288 0q-16 10 -35.5 30t-40 46t-41 56.5t-37.5 61.5l-2 -5v-189h-63v779h63v-423h4l157 423h65l-201 -525q16 -29 43.5 -66.5t60.5 -74.5t67.5 -67.5t64.5 -45.5h-105z" />
    <glyph glyph-name="L" unicode="L" horiz-adv-x="263" 
d="M69 0v779h64v-719h110v-60h-174z" />
    <glyph glyph-name="M" unicode="M" horiz-adv-x="464" 
d="M339 0v439h-4l-104 -325l-102 325h-4v-439h-56v815l160 -517h4l162 517v-815h-56z" />
    <glyph glyph-name="N" unicode="N" horiz-adv-x="391" 
d="M134 466h-4v-466h-61v815l190 -529h4v493h59v-815z" />
    <glyph glyph-name="O" unicode="O" 
d="M319 382q0 -106 -9.5 -180.5t-27 -122t-43 -69t-57.5 -21.5t-57.5 21.5t-43 69t-27 122t-9.5 180.5q0 211 36 309t101 98q64 0 100.5 -98t36.5 -309zM109 382q0 -157 18 -244t55 -87t55 87t18 244q0 78 -4.5 141.5t-13.5 108.5t-23 69.5t-32 24.5t-32 -24.5t-23 -69.5
t-13.5 -108.5t-4.5 -141.5z" />
    <glyph glyph-name="P" unicode="P" horiz-adv-x="351" 
d="M132 0h-63v785q67 -2 113 -26t74 -63.5t40.5 -91.5t12.5 -110q0 -56 -11.5 -100t-33.5 -80t-55.5 -65.5t-76.5 -54.5v-194zM132 252q58 42 86 96.5t28 135.5q0 40 -6.5 79t-20.5 70.5t-35.5 53.5t-51.5 30v-465z" />
    <glyph glyph-name="Q" unicode="Q" 
d="M280 -96q-57 46 -101 87t-73.5 96.5t-45 134.5t-15.5 200q0 194 36 285t101 91q64 0 100.5 -91t36.5 -285q0 -93 -8.5 -160t-24.5 -111t-37.5 -67t-46.5 -28q13 -19 37.5 -41.5t51 -44t52 -39t42.5 -27.5h-105zM109 422q0 -144 18 -223t55 -79t55 79t18 223
q0 71 -4.5 128.5t-13.5 98.5t-23 63.5t-32 22.5t-32 -22.5t-23 -63.5t-13.5 -98.5t-4.5 -128.5z" />
    <glyph glyph-name="R" unicode="R" horiz-adv-x="383" 
d="M132 0h-63v785q67 -2 113 -26t74 -63.5t40.5 -91.5t12.5 -110q0 -96 -34 -160t-99 -112q26 -39 54.5 -74t57 -64t55.5 -50.5t50 -33.5h-105q-17 10 -36.5 30t-40 46.5t-41 57t-37.5 61.5q0 -1 -1 -1v-194zM132 252q58 42 86 96.5t28 135.5q0 40 -6.5 79t-20.5 70.5
t-35.5 53.5t-51.5 30v-465z" />
    <glyph glyph-name="S" unicode="S" horiz-adv-x="315" 
d="M53 69q7 -6 18.5 -11.5t29.5 -5.5q55 0 80.5 35t25.5 108q0 29 -8 56.5t-21 53.5q-20 38 -44 73t-45 70q-20 34 -33 72.5t-13 84.5q0 86 37 135.5t102 49.5q23 0 35.5 -5.5t19.5 -10.5v-64q-5 7 -18 12t-28 5q-41 0 -63 -30.5t-22 -98.5q0 -30 9 -58t23 -54
q17 -31 38.5 -61t41.5 -62q23 -38 38.5 -78t15.5 -90q0 -98 -42 -151.5t-119 -53.5q-23 0 -37 4.5t-21 10.5v64z" />
    <glyph glyph-name="T" unicode="T" horiz-adv-x="267" 
d="M103 0v716h-83v63h227v-63h-81v-716h-63z" />
    <glyph glyph-name="U" unicode="U" horiz-adv-x="404" 
d="M202 -10q-38 0 -64 18t-42 52.5t-23 84t-7 111.5v523h65v-526q0 -101 15.5 -150t55.5 -49q41 0 56 49t15 150v526h65v-523q0 -62 -7 -111.5t-22.5 -84t-41.5 -52.5t-65 -18z" />
    <glyph glyph-name="V" unicode="V" horiz-adv-x="362" 
d="M179 281h4l87 498h64l-156 -815l-150 815h67z" />
    <glyph glyph-name="W" unicode="W" horiz-adv-x="602" 
d="M302 512h-4l-119 -548l-151 815h68l85 -518h4l116 554l110 -554h4l96 518h63l-163 -815z" />
    <glyph glyph-name="X" unicode="X" horiz-adv-x="366" 
d="M280 0l-94 339h-4l-101 -339h-61l131 421l-104 358h62l78 -275h4l81 275h58l-109 -352l125 -427h-66z" />
    <glyph glyph-name="Y" unicode="Y" horiz-adv-x="374" 
d="M156 0v345l-132 434h65l100 -346h4l99 346h58l-130 -434v-345h-64z" />
    <glyph glyph-name="Z" unicode="Z" horiz-adv-x="307" 
d="M43 0l148 716h-148v63h221l-140 -719h140v-60h-221z" />
    <glyph glyph-name="bracketleft" unicode="[" horiz-adv-x="323" 
d="M109 -137v1029h185v-45h-134v-939h134v-45h-185z" />
    <glyph glyph-name="backslash" unicode="\" horiz-adv-x="331" 
d="M284 -42l-284 833h48l283 -833h-47z" />
    <glyph glyph-name="bracketright" unicode="]" horiz-adv-x="323" 
d="M29 -137v45h135v939h-135v45h185v-1029h-185z" />
    <glyph glyph-name="asciicircum" unicode="^" horiz-adv-x="427" 
d="M349 410l-137 275l-136 -275h-50l186 380l189 -380h-52z" />
    <glyph glyph-name="underscore" unicode="_" horiz-adv-x="273" 
d="M0 -109v40h274v-40h-274z" />
    <glyph glyph-name="grave" unicode="`" horiz-adv-x="215" 
d="M133 805l-117 163h70l112 -163h-65z" />
    <glyph glyph-name="a" unicode="a" horiz-adv-x="361" 
d="M28 0zM235 195h-111l-34 -195h-62l156 815l149 -815h-64zM132 243h95l-45 262h-4z" />
    <glyph glyph-name="b" unicode="b" horiz-adv-x="344" 
d="M69 0zM69 785q67 -2 113 -26t74 -63.5t40.5 -91.5t12.5 -110q0 -89 -32 -150t-81 -96v-3q48 -8 74.5 -38.5t26.5 -71.5q0 -30 -10 -55.5t-35.5 -44t-69.5 -29.5t-113 -11v790zM132 252q58 42 86 96.5t28 135.5q0 40 -6.5 79t-20.5 70.5t-35.5 53.5t-51.5 30v-465zM132 53
q54 0 78.5 23.5t24.5 55.5q0 13 -5.5 25.5t-16 23t-25.5 17t-35 6.5q-5 0 -10.5 -0.5t-10.5 -1.5v-149z" />
    <glyph glyph-name="c" unicode="c" horiz-adv-x="296" 
d="M45 0zM45 389q0 106 9.5 181.5t28.5 124.5t47 72t66 23q23 0 36.5 -4t21.5 -12v-64q-8 8 -20 12.5t-32 4.5q-23 0 -40.5 -19t-29 -59.5t-17.5 -105t-6 -154.5t6 -154t17.5 -104.5t29 -59.5t40.5 -19q20 0 32 5t20 12v-64q-8 -7 -21.5 -11t-36.5 -4q-38 0 -66 23t-47 71.5
t-28.5 124t-9.5 180.5z" />
    <glyph glyph-name="d" unicode="d" horiz-adv-x="354" 
d="M69 0zM69 785q67 -2 113 -35t74 -87t40.5 -125t12.5 -149t-12.5 -149t-40.5 -124.5t-74 -86t-113 -34.5v790zM132 63q30 10 51.5 41t35.5 75.5t20.5 98.5t6.5 111t-6.5 111.5t-20.5 99t-35.5 75.5t-51.5 42v-654z" />
    <glyph glyph-name="e" unicode="e" horiz-adv-x="278" 
d="M69 0zM69 0v779h161v-63h-97v-473h95v-48h-95v-135h106v-60h-170z" />
    <glyph glyph-name="f" unicode="f" horiz-adv-x="277" 
d="M69 0zM69 0v779h166v-63h-102v-473h95v-48h-95v-195h-64z" />
    <glyph glyph-name="g" unicode="g" horiz-adv-x="333" 
d="M45 0zM276 432v-391q-14 -17 -38.5 -29t-50.5 -12q-34 0 -60.5 21.5t-44.5 68t-27.5 120.5t-9.5 179q0 106 9.5 181.5t28.5 124.5t47 72t66 23q23 0 36.5 -4t21.5 -12v-64q-8 8 -20 12.5t-32 4.5q-23 0 -40.5 -19t-29 -59.5t-17.5 -105t-6 -154.5q0 -158 18.5 -243.5
t58.5 -85.5q11 0 20 2.5t14 7.5v362h56z" />
    <glyph glyph-name="h" unicode="h" horiz-adv-x="389" 
d="M69 0zM255 0v195h-122v-195h-64v779h64v-536h122v536h65v-779h-65z" />
    <glyph glyph-name="i" unicode="i" horiz-adv-x="202" 
d="M69 0zM69 0v779h64v-779h-64z" />
    <glyph glyph-name="j" unicode="j" horiz-adv-x="221" 
d="M0 0zM152 410q0 -117 -6 -200t-17 -141t-26.5 -97t-33.5 -68h-79q27 34 46 73t30.5 96t16.5 138t5 199v369h64v-369z" />
    <glyph glyph-name="k" unicode="k" horiz-adv-x="383" 
d="M69 0zM288 0q-16 10 -35.5 30t-40 46t-41 56.5t-37.5 61.5l-2 -5v-189h-63v779h63v-423h4l157 423h65l-201 -525q16 -29 43.5 -66.5t60.5 -74.5t67.5 -67.5t64.5 -45.5h-105z" />
    <glyph glyph-name="l" unicode="l" horiz-adv-x="263" 
d="M69 0zM69 0v779h64v-719h110v-60h-174z" />
    <glyph glyph-name="m" unicode="m" horiz-adv-x="464" 
d="M69 0zM339 0v439h-4l-104 -325l-102 325h-4v-439h-56v815l160 -517h4l162 517v-815h-56z" />
    <glyph glyph-name="n" unicode="n" horiz-adv-x="391" 
d="M69 0zM134 466h-4v-466h-61v815l190 -529h4v493h59v-815z" />
    <glyph glyph-name="o" unicode="o" 
d="M45 0zM319 382q0 -106 -9.5 -180.5t-27 -122t-43 -69t-57.5 -21.5t-57.5 21.5t-43 69t-27 122t-9.5 180.5q0 211 36 309t101 98q64 0 100.5 -98t36.5 -309zM109 382q0 -157 18 -244t55 -87t55 87t18 244q0 78 -4.5 141.5t-13.5 108.5t-23 69.5t-32 24.5t-32 -24.5
t-23 -69.5t-13.5 -108.5t-4.5 -141.5z" />
    <glyph glyph-name="p" unicode="p" horiz-adv-x="351" 
d="M69 0zM132 0h-63v785q67 -2 113 -26t74 -63.5t40.5 -91.5t12.5 -110q0 -56 -11.5 -100t-33.5 -80t-55.5 -65.5t-76.5 -54.5v-194zM132 252q58 42 86 96.5t28 135.5q0 40 -6.5 79t-20.5 70.5t-35.5 53.5t-51.5 30v-465z" />
    <glyph glyph-name="q" unicode="q" 
d="M45 0zM280 -96q-57 46 -101 87t-73.5 96.5t-45 134.5t-15.5 200q0 194 36 285t101 91q64 0 100.5 -91t36.5 -285q0 -93 -8.5 -160t-24.5 -111t-37.5 -67t-46.5 -28q13 -19 37.5 -41.5t51 -44t52 -39t42.5 -27.5h-105zM109 422q0 -144 18 -223t55 -79t55 79t18 223
q0 71 -4.5 128.5t-13.5 98.5t-23 63.5t-32 22.5t-32 -22.5t-23 -63.5t-13.5 -98.5t-4.5 -128.5z" />
    <glyph glyph-name="r" unicode="r" horiz-adv-x="383" 
d="M69 0zM132 0h-63v785q67 -2 113 -26t74 -63.5t40.5 -91.5t12.5 -110q0 -96 -34 -160t-99 -112q26 -39 54.5 -74t57 -64t55.5 -50.5t50 -33.5h-105q-17 10 -36.5 30t-40 46.5t-41 57t-37.5 61.5q0 -1 -1 -1v-194zM132 252q58 42 86 96.5t28 135.5q0 40 -6.5 79t-20.5 70.5
t-35.5 53.5t-51.5 30v-465z" />
    <glyph glyph-name="s" unicode="s" horiz-adv-x="315" 
d="M43 0zM53 69q7 -6 18.5 -11.5t29.5 -5.5q55 0 80.5 35t25.5 108q0 29 -8 56.5t-21 53.5q-20 38 -44 73t-45 70q-20 34 -33 72.5t-13 84.5q0 86 37 135.5t102 49.5q23 0 35.5 -5.5t19.5 -10.5v-64q-5 7 -18 12t-28 5q-41 0 -63 -30.5t-22 -98.5q0 -30 9 -58t23 -54
q17 -31 38.5 -61t41.5 -62q23 -38 38.5 -78t15.5 -90q0 -98 -42 -151.5t-119 -53.5q-23 0 -37 4.5t-21 10.5v64z" />
    <glyph glyph-name="t" unicode="t" horiz-adv-x="267" 
d="M20 0zM103 0v716h-83v63h227v-63h-81v-716h-63z" />
    <glyph glyph-name="u" unicode="u" horiz-adv-x="404" 
d="M66 0zM202 -10q-38 0 -64 18t-42 52.5t-23 84t-7 111.5v523h65v-526q0 -101 15.5 -150t55.5 -49q41 0 56 49t15 150v526h65v-523q0 -62 -7 -111.5t-22.5 -84t-41.5 -52.5t-65 -18z" />
    <glyph glyph-name="v" unicode="v" horiz-adv-x="362" 
d="M28 0zM179 281h4l87 498h64l-156 -815l-150 815h67z" />
    <glyph glyph-name="w" unicode="w" horiz-adv-x="602" 
d="M28 0zM302 512h-4l-119 -548l-151 815h68l85 -518h4l116 554l110 -554h4l96 518h63l-163 -815z" />
    <glyph glyph-name="x" unicode="x" horiz-adv-x="366" 
d="M20 0zM280 0l-94 339h-4l-101 -339h-61l131 421l-104 358h62l78 -275h4l81 275h58l-109 -352l125 -427h-66z" />
    <glyph glyph-name="y" unicode="y" horiz-adv-x="374" 
d="M24 0zM156 0v345l-132 434h65l100 -346h4l99 346h58l-130 -434v-345h-64z" />
    <glyph glyph-name="z" unicode="z" horiz-adv-x="307" 
d="M43 0zM43 0l148 716h-148v63h221l-140 -719h140v-60h-221z" />
    <glyph glyph-name="braceleft" unicode="{" horiz-adv-x="316" 
d="M231 -138q-22 0 -43 6.5t-38 22t-27.5 41.5t-10.5 66v277q0 42 -9 59.5t-31 17.5h-28v50h28q23 0 31.5 19t8.5 57v285q0 37 10.5 62t27 40t38 21t43.5 6h56v-46h-53q-15 0 -28 -5t-22.5 -17.5t-15.5 -33t-6 -51.5v-281q0 -66 -45 -81q25 -11 35 -32t10 -55v-276
q0 -33 6 -53.5t15.5 -32t22.5 -16t28 -4.5h53v-46h-56z" />
    <glyph glyph-name="bar" unicode="|" horiz-adv-x="369" 
d="M159 -182v1081h51v-1081h-51z" />
    <glyph glyph-name="braceright" unicode="}" horiz-adv-x="317" 
d="M29 -138v46h53q15 0 28 4.5t22.5 16t15.5 32t6 53.5v276q0 34 10.5 55t35.5 32q-46 15 -46 81v281q0 31 -6 51.5t-15.5 33t-22.5 17.5t-28 5h-53v46h56q22 0 43.5 -6t38.5 -21t27.5 -40t10.5 -62v-285q0 -38 8 -57t31 -19h28v-50h-28q-22 0 -30.5 -17.5t-8.5 -59.5v-277
q0 -40 -10.5 -66t-27.5 -41.5t-38.5 -22t-43.5 -6.5h-56z" />
    <glyph glyph-name="asciitilde" unicode="~" horiz-adv-x="579" 
d="M510 362q-25 -30 -52 -41.5t-59 -11.5q-30 0 -58 8.5t-55 19t-53.5 19.5t-53.5 9q-40 0 -62.5 -15t-47.5 -46v53q26 31 53 42t59 11q30 0 57 -8.5t53.5 -19t53.5 -19t56 -8.5q40 0 62.5 14t46.5 46v-53z" />
    <glyph glyph-name="nonbreakingspace" unicode="&#xa0;" horiz-adv-x="196" 
 />
    <glyph glyph-name="exclamdown" unicode="&#xa1;" horiz-adv-x="225" 
d="M142 434l13 -543h-84l14 543h57zM113 679q21 0 32 -12t11 -39q0 -52 -43 -52q-44 0 -44 52q0 27 10.5 39t33.5 12z" />
    <glyph glyph-name="cent" unicode="&#xa2;" horiz-adv-x="345" 
d="M195 0v88q-75 13 -112.5 83.5t-37.5 212.5t37.5 213t112.5 83v99h43v-96q25 -1 40 -4t23 -7v-60q-11 5 -25.5 8.5t-37.5 3.5q-56 0 -85 -56.5t-29 -183.5q0 -128 28.5 -183.5t85.5 -55.5q23 0 37.5 3.5t25.5 8.5v-60q-8 -5 -23 -8t-40 -3v-86h-43z" />
    <glyph glyph-name="sterling" unicode="&#xa3;" horiz-adv-x="371" 
d="M223 195q0 -28 -1.5 -48t-4.5 -37q29 -22 50 -36t47 -14h25v-60h-14q-32 0 -59.5 14.5t-62.5 45.5q-13 -32 -36 -50.5t-58 -18.5q-42 0 -64.5 21t-22.5 63q0 34 20.5 57t55.5 23q20 0 38 -3.5t37 -13.5q2 11 2.5 23.5t0.5 33.5h-79v48h74q-4 41 -12.5 82t-17.5 84
t-15.5 89.5t-6.5 99.5q0 41 8.5 76t26 61t43.5 40.5t62 14.5q35 0 54 -16v-64q-10 11 -24 14t-29 3q-21 0 -36 -10.5t-24 -29t-13.5 -43.5t-4.5 -53q0 -47 5 -90.5t11.5 -86l13 -85t9.5 -86.5h117v-48h-115zM102 33q26 0 41 15.5t23 44.5q-18 14 -33.5 18t-28.5 4
q-35 0 -35 -40q0 -21 6.5 -31.5t26.5 -10.5z" />
    <glyph glyph-name="currency" unicode="&#xa4;" horiz-adv-x="568" 
d="M418 193q-29 -22 -62.5 -34.5t-70.5 -12.5q-38 0 -72 12.5t-62 34.5l-73 -76l-44 44l75 72q-21 28 -33.5 62t-12.5 72t12 72.5t34 61.5l-74 72l44 43l71 -74q28 22 62 34.5t73 12.5q38 0 71.5 -12.5t62.5 -34.5l70 74l43 -43l-73 -71q23 -28 35 -62.5t12 -72.5
t-12.5 -72.5t-34.5 -61.5l74 -72l-43 -44zM445 367q0 34 -12.5 63t-34.5 51t-51 34.5t-62 12.5q-34 0 -63.5 -12.5t-51 -34.5t-34 -51t-12.5 -63q0 -33 12.5 -62t34 -50.5t51 -34t63.5 -12.5q33 0 62 12.5t51 34t34.5 50.5t12.5 62z" />
    <glyph glyph-name="yen" unicode="&#xa5;" horiz-adv-x="382" 
d="M162 0v195h-134v48h134v77h-134v48h129l-129 411h64l101 -357h5l96 357h60l-124 -411h124v-48h-129v-77h129v-48h-129v-195h-63z" />
    <glyph glyph-name="brokenbar" unicode="&#xa6;" horiz-adv-x="369" 
d="M159 -182v463h51v-463h-51zM159 467v432h51v-432h-51z" />
    <glyph glyph-name="section" unicode="&#xa7;" horiz-adv-x="421" 
d="M53 -126q7 -6 18.5 -11t29.5 -5q55 0 80.5 35t25.5 107q0 30 -7.5 57.5t-21.5 53.5q-19 38 -43 72.5t-46 69.5q-20 34 -33 72.5t-13 84.5q0 74 27.5 121.5t78.5 59.5q0 97 36.5 148t102.5 51q23 0 35.5 -5.5t18.5 -10.5v-64q-5 7 -18 12t-28 5q-40 0 -62 -30.5t-22 -98.5
q0 -30 9 -58t23 -54q17 -31 38.5 -61t41.5 -62q23 -38 38.5 -78t15.5 -90q0 -79 -27.5 -129t-78.5 -67q-1 -97 -43 -150.5t-118 -53.5q-23 0 -37 4.5t-21 11.5v63zM195 448q-23 36 -36 79q-26 -10 -39.5 -39.5t-13.5 -83.5q0 -31 9 -58.5t23 -53.5q17 -32 38.5 -62t41.5 -62
q14 -24 26.5 -49t19.5 -53q49 30 49 129q0 29 -7.5 56.5t-21.5 53.5q-19 38 -43.5 73t-45.5 70z" />
    <glyph glyph-name="dieresis" unicode="&#xa8;" horiz-adv-x="292" 
d="M224 829q-38 0 -38 46t38 46t38 -46t-38 -46zM66 829q-37 0 -37 46t37 46q38 0 38 -46t-38 -46z" />
    <glyph glyph-name="ordfeminine" unicode="&#xaa;" horiz-adv-x="229" 
d="M137 486h-47l-15 -86h-55l96 448l92 -448h-55zM114 617l-15 -83h30z" />
    <glyph glyph-name="guillemotleft" unicode="&#xab;" horiz-adv-x="262" 
d="M16 0zM134 437l-56 -218l56 -219h-62l-56 219l56 218h62zM245 437l-56 -218l56 -219h-62l-56 219l56 218h62z" />
    <glyph glyph-name="logicalnot" unicode="&#xac;" horiz-adv-x="536" 
d="M409 154v262h-340v72h398v-334h-58z" />
    <glyph glyph-name="macron" unicode="&#xaf;" horiz-adv-x="307" 
d="M16 852v49h274v-49h-274z" />
    <glyph glyph-name="degree" unicode="&#xb0;" horiz-adv-x="248" 
d="M123 522q-21 0 -35.5 11t-24.5 29t-14.5 42.5t-4.5 51.5q0 28 4.5 52.5t14.5 43t24.5 29t35.5 10.5q22 0 37.5 -10.5t25.5 -29t14 -43t4 -52.5q0 -27 -4 -51.5t-14 -42.5t-25.5 -29t-37.5 -11zM123 558q23 0 32.5 28.5t9.5 69.5t-9.5 69.5t-32.5 28.5q-21 0 -30 -28.5
t-9 -69.5t9 -69.5t30 -28.5z" />
    <glyph glyph-name="plusminus" unicode="&#xb1;" horiz-adv-x="579" 
d="M69 0zM265 159v197h-196v49h196v194h49v-194h196v-49h-196v-197h-49zM69 -1v49h441v-49h-441z" />
    <glyph glyph-name="twosuperior" unicode="&#xb2;" horiz-adv-x="216" 
d="M42 351zM42 351v63q0 44 15 78t33 64.5t33 59.5t15 64q0 71 -42 71q-20 0 -30 -9v35l11 5.5t23 3.5q41 0 61.5 -27.5t20.5 -74.5q0 -44 -15 -75.5t-32.5 -60.5t-32.5 -60.5t-15 -74.5v-29h92v-33h-137z" />
    <glyph glyph-name="threesuperior" unicode="&#xb3;" horiz-adv-x="208" 
d="M44 345zM116 745h-72v34h131l-53 -129q46 -30 46 -129q0 -84 -22 -130t-70 -46q-14 0 -20.5 2.5t-11.5 6.5v35q5 -4 11 -6.5t17 -2.5q26 0 38.5 37.5t12.5 103.5q0 53 -12.5 81t-38.5 28z" />
    <glyph glyph-name="acute" unicode="&#xb4;" horiz-adv-x="215" 
d="M16 805l112 163h70l-117 -163h-65z" />
    <glyph glyph-name="paragraph" unicode="&#xb6;" horiz-adv-x="417" 
d="M297 -205v921h-105v-920h-48v651q-57 2 -86 46.5t-29 120.5q0 33 4.5 63t16 52.5t30 36t45.5 13.5h273v-63h-53v-921h-48z" />
    <glyph glyph-name="periodcentered" unicode="&#xb7;" horiz-adv-x="137" 
d="M25 161zM68 161q-21 0 -32 12t-11 39q0 52 43 52q44 0 44 -52q0 -27 -11 -39t-33 -12z" />
    <glyph glyph-name="cedilla" unicode="&#xb8;" horiz-adv-x="119" 
d="M61 -130q-45 0 -45 52t42 52q44 0 44 -52q0 -16 -4 -37t-11 -42.5t-15 -41.5t-16 -33h-40q9 12 21 39t24 63z" />
    <glyph glyph-name="onesuperior" unicode="&#xb9;" horiz-adv-x="141" 
d="M48 351zM48 351v377l45 58v-435h-45z" />
    <glyph glyph-name="ordmasculine" unicode="&#xba;" horiz-adv-x="230" 
d="M200 610q0 -64 -4.5 -105.5t-15 -66t-28 -34.5t-42.5 -10q-26 0 -43 10t-27.5 34.5t-15 66t-4.5 105.5t4.5 107.5t15 69t27.5 36.5t43 11t43 -11t27.5 -37t15 -69t4.5 -107zM85 610q0 -52 1 -86t4 -53.5t8 -27t12 -7.5t12 7.5t8 27t4 53.5t1 86t-1 86.5t-4 55t-8 29
t-12 8.5t-12 -8.5t-8 -29t-4 -55t-1 -86.5z" />
    <glyph glyph-name="guillemotright" unicode="&#xbb;" horiz-adv-x="262" 
d="M16 0zM77 437l57 -218l-57 -219h-61l55 219l-55 218h61zM188 437l57 -218l-57 -219h-61l55 219l-55 218h61z" />
    <glyph glyph-name="onequarter" unicode="&#xbc;" horiz-adv-x="477" 
d="M45 0zM62 351v377l45 58v-435h-45zM45 0l330 779h49l-329 -779h-50zM372 0v107h-108l153 328v-301h15v-27h-15v-107h-45zM372 252l-52 -118h52v118z" />
    <glyph glyph-name="onehalf" unicode="&#xbd;" horiz-adv-x="510" 
d="M45 0zM62 351v377l45 58v-435h-45zM45 0l330 779h49l-329 -779h-50zM325 0v63q0 44 15 78t33 64.5t33 59.5t15 64q0 71 -42 71q-20 0 -30 -9v35l11 5.5t23 3.5q41 0 61.5 -27.5t20.5 -74.5q0 -44 -15 -75.5t-32.5 -60.5t-32.5 -60.5t-15 -74.5v-29h92v-33h-137z" />
    <glyph glyph-name="threequarters" unicode="&#xbe;" horiz-adv-x="499" 
d="M45 0zM117 745h-72v34h131l-53 -129q46 -30 46 -129q0 -84 -22 -130t-70 -46q-14 0 -20.5 2.5t-11.5 6.5v35q5 -4 11 -6.5t17 -2.5q26 0 38.5 37.5t12.5 103.5q0 53 -12.5 81t-38.5 28zM59 0l330 779h49l-329 -779h-50zM394 0v107h-108l153 328v-301h15v-27h-15v-107h-45
zM394 252l-52 -118h52v118z" />
    <glyph glyph-name="questiondown" unicode="&#xbf;" horiz-adv-x="275" 
d="M185 434q-1 -56 -14.5 -96.5t-29 -79.5t-28.5 -82t-13 -104q0 -68 22.5 -98.5t62.5 -30.5q15 0 28 5t18 12v-64q-6 -5 -18.5 -10.5t-35.5 -5.5q-66 0 -102.5 49.5t-36.5 135.5q0 48 6.5 85t17 66t22 54t22 50t17.5 52t7 62h55zM202 628q-1 -23 -10 -37t-33 -14
q-23 0 -33.5 14t-10.5 37q0 51 44 51q43 0 43 -51z" />
    <glyph glyph-name="Agrave" unicode="&#xc0;" horiz-adv-x="361" 
d="M186 805l147 -805h-64l-34 195h-111l-34 -195h-62l154 805h-18l-117 163h70l112 -163h-43zM132 243h95l-45 262h-4z" />
    <glyph glyph-name="Aacute" unicode="&#xc1;" horiz-adv-x="361" 
d="M186 805l147 -805h-64l-34 195h-111l-34 -195h-62l154 805h-33l112 163h70l-117 -163h-28zM132 243h95l-45 262h-4z" />
    <glyph glyph-name="Acircumflex" unicode="&#xc2;" horiz-adv-x="361" 
d="M28 0zM235 195h-111l-34 -195h-62l156 815l149 -815h-64zM132 243h95l-45 262h-4zM100 805h-72l153 163l152 -163h-72l-80 88z" />
    <glyph glyph-name="Atilde" unicode="&#xc3;" horiz-adv-x="361" 
d="M28 0zM235 195h-111l-34 -195h-62l156 815l149 -815h-64zM132 243h95l-45 262h-4zM317 863q-27 -29 -71 -29q-18 0 -34 6t-32 13.5t-32.5 13.5t-34.5 6q-23 0 -39.5 -9t-30.5 -28v57q30 30 72 30q18 0 34 -6t32 -13.5t32.5 -13.5t34.5 -6q23 0 39 9t30 27v-57z" />
    <glyph glyph-name="Adieresis" unicode="&#xc4;" horiz-adv-x="361" 
d="M28 0zM235 195h-111l-34 -195h-62l156 815l149 -815h-64zM132 243h95l-45 262h-4zM259 829q-38 0 -38 46t38 46t38 -46t-38 -46zM101 829q-37 0 -37 46t37 46q38 0 38 -46t-38 -46z" />
    <glyph glyph-name="Aring" unicode="&#xc5;" horiz-adv-x="361" 
d="M235 195h-111l-34 -195h-62l150 783q-24 1 -40.5 10t-26.5 22t-14.5 29t-4.5 31t4.5 31.5t15.5 30t28.5 22.5t43.5 9t43.5 -9t28 -22.5t15 -30t4.5 -31.5t-4.5 -31t-14 -29t-26 -22t-40.5 -10l143 -783h-64zM132 243h95l-45 262h-4zM184 817q20 0 31.5 18.5t11.5 39.5
q0 20 -11.5 39t-31.5 19t-31.5 -19t-11.5 -39q0 -21 11.5 -39.5t31.5 -18.5z" />
    <glyph glyph-name="AE" unicode="&#xc6;" horiz-adv-x="440" 
d="M222 0v195h-96l-33 -195h-65l147 779h208v-63h-97v-473h95v-48h-95v-135h106v-60h-170zM134 243h88v473h-4z" />
    <glyph glyph-name="Ccedilla" unicode="&#xc7;" horiz-adv-x="296" 
d="M45 0zM45 389q0 106 9.5 181.5t28.5 124.5t47 72t66 23q23 0 36.5 -4t21.5 -12v-64q-8 8 -20 12.5t-32 4.5q-23 0 -40.5 -19t-29 -59.5t-17.5 -105t-6 -154.5t6 -154t17.5 -104.5t29 -59.5t40.5 -19q20 0 32 5t20 12v-64q-8 -7 -21.5 -11t-36.5 -4q-38 0 -66 23t-47 71.5
t-28.5 124t-9.5 180.5zM195 -130q-45 0 -45 52t42 52q44 0 44 -52q0 -16 -4 -37t-11 -42.5t-15 -41.5t-16 -33h-40q9 12 21 39t24 63z" />
    <glyph glyph-name="Egrave" unicode="&#xc8;" horiz-adv-x="278" 
d="M28 0zM69 0v779h161v-63h-97v-473h95v-48h-95v-135h106v-60h-170zM145 805l-117 163h70l112 -163h-65z" />
    <glyph glyph-name="Eacute" unicode="&#xc9;" horiz-adv-x="278" 
d="M69 0zM69 0v779h161v-63h-97v-473h95v-48h-95v-135h106v-60h-170zM88 805l112 163h70l-117 -163h-65z" />
    <glyph glyph-name="Ecircumflex" unicode="&#xca;" horiz-adv-x="278" 
d="M0 0zM69 0v779h161v-63h-97v-473h95v-48h-95v-135h106v-60h-170zM69 805h-72l153 163l152 -163h-72l-80 88z" />
    <glyph glyph-name="Edieresis" unicode="&#xcb;" horiz-adv-x="278" 
d="M33 0zM69 0v779h161v-63h-97v-473h95v-48h-95v-135h106v-60h-170zM228 829q-38 0 -38 46t38 46t38 -46t-38 -46zM70 829q-37 0 -37 46t37 46q38 0 38 -46t-38 -46z" />
    <glyph glyph-name="Igrave" unicode="&#xcc;" horiz-adv-x="231" 
d="M9 0zM98 0v779h64v-779h-64zM126 805l-117 163h70l112 -163h-65z" />
    <glyph glyph-name="Iacute" unicode="&#xcd;" horiz-adv-x="233" 
d="M40 0zM69 0v779h64v-779h-64zM40 805l112 163h70l-117 -163h-65z" />
    <glyph glyph-name="Icircumflex" unicode="&#xce;" horiz-adv-x="257" 
d="M0 0zM96 0v779h64v-779h-64zM48 805h-72l153 163l152 -163h-72l-80 88z" />
    <glyph glyph-name="Idieresis" unicode="&#xcf;" horiz-adv-x="216" 
d="M0 0zM76 0v779h64v-779h-64zM187 829q-38 0 -38 46t38 46t38 -46t-38 -46zM29 829q-37 0 -37 46t37 46q38 0 38 -46t-38 -46z" />
    <glyph glyph-name="Eth" unicode="&#xd0;" horiz-adv-x="354" 
d="M21 243h48v542q67 -2 113 -35t74 -87t40.5 -125t12.5 -149t-12.5 -149t-40.5 -124.5t-74 -86t-113 -34.5v200h-48v48zM132 243h102q12 67 12 146q0 57 -6.5 111.5t-20.5 99t-35.5 75.5t-51.5 42v-474zM132 63q32 11 54 46t36 86h-90v-132z" />
    <glyph glyph-name="Ntilde" unicode="&#xd1;" horiz-adv-x="391" 
d="M53 0zM134 466h-4v-466h-61v815l190 -529h4v493h59v-815zM327 863q-27 -29 -71 -29q-18 0 -34 6t-32 13.5t-32.5 13.5t-34.5 6q-23 0 -39.5 -9t-30.5 -28v57q30 30 72 30q18 0 34 -6t32 -13.5t32.5 -13.5t34.5 -6q23 0 39 9t30 27v-57z" />
    <glyph glyph-name="Ograve" unicode="&#xd2;" 
d="M45 0zM319 382q0 -106 -9.5 -180.5t-27 -122t-43 -69t-57.5 -21.5t-57.5 21.5t-43 69t-27 122t-9.5 180.5q0 211 36 309t101 98q64 0 100.5 -98t36.5 -309zM109 382q0 -157 18 -244t55 -87t55 87t18 244q0 78 -4.5 141.5t-13.5 108.5t-23 69.5t-32 24.5t-32 -24.5
t-23 -69.5t-13.5 -108.5t-4.5 -141.5zM178 805l-117 163h70l112 -163h-65z" />
    <glyph glyph-name="Oacute" unicode="&#xd3;" 
d="M45 0zM319 382q0 -106 -9.5 -180.5t-27 -122t-43 -69t-57.5 -21.5t-57.5 21.5t-43 69t-27 122t-9.5 180.5q0 211 36 309t101 98q64 0 100.5 -98t36.5 -309zM109 382q0 -157 18 -244t55 -87t55 87t18 244q0 78 -4.5 141.5t-13.5 108.5t-23 69.5t-32 24.5t-32 -24.5
t-23 -69.5t-13.5 -108.5t-4.5 -141.5zM121 805l112 163h70l-117 -163h-65z" />
    <glyph glyph-name="Ocircumflex" unicode="&#xd4;" 
d="M30 0zM319 382q0 -106 -9.5 -180.5t-27 -122t-43 -69t-57.5 -21.5t-57.5 21.5t-43 69t-27 122t-9.5 180.5q0 211 36 309t101 98q64 0 100.5 -98t36.5 -309zM109 382q0 -157 18 -244t55 -87t55 87t18 244q0 78 -4.5 141.5t-13.5 108.5t-23 69.5t-32 24.5t-32 -24.5
t-23 -69.5t-13.5 -108.5t-4.5 -141.5zM102 805h-72l153 163l152 -163h-72l-80 88z" />
    <glyph glyph-name="Otilde" unicode="&#xd5;" 
d="M45 0zM319 382q0 -106 -9.5 -180.5t-27 -122t-43 -69t-57.5 -21.5t-57.5 21.5t-43 69t-27 122t-9.5 180.5q0 211 36 309t101 98q64 0 100.5 -98t36.5 -309zM109 382q0 -157 18 -244t55 -87t55 87t18 244q0 78 -4.5 141.5t-13.5 108.5t-23 69.5t-32 24.5t-32 -24.5
t-23 -69.5t-13.5 -108.5t-4.5 -141.5zM319 863q-27 -29 -71 -29q-18 0 -34 6t-32 13.5t-32.5 13.5t-34.5 6q-23 0 -39.5 -9t-30.5 -28v57q30 30 72 30q18 0 34 -6t32 -13.5t32.5 -13.5t34.5 -6q23 0 39 9t30 27v-57z" />
    <glyph glyph-name="Odieresis" unicode="&#xd6;" 
d="M45 0zM319 382q0 -106 -9.5 -180.5t-27 -122t-43 -69t-57.5 -21.5t-57.5 21.5t-43 69t-27 122t-9.5 180.5q0 211 36 309t101 98q64 0 100.5 -98t36.5 -309zM109 382q0 -157 18 -244t55 -87t55 87t18 244q0 78 -4.5 141.5t-13.5 108.5t-23 69.5t-32 24.5t-32 -24.5
t-23 -69.5t-13.5 -108.5t-4.5 -141.5zM260 829q-38 0 -38 46t38 46t38 -46t-38 -46zM102 829q-37 0 -37 46t37 46q38 0 38 -46t-38 -46z" />
    <glyph glyph-name="multiply" unicode="&#xd7;" horiz-adv-x="484" 
d="M241 344l-138 -137l-34 35l138 138l-138 138l35 34l137 -138l140 138l34 -34l-138 -138l138 -139l-34 -35z" />
    <glyph glyph-name="Oslash" unicode="&#xd8;" 
d="M46 -69l38 143q-19 48 -29 123t-10 186q0 211 36 309t101 98q47 0 78 -49l27 103l32 -8l-37 -141q18 -51 27.5 -128t9.5 -184q0 -106 -9.5 -180.5t-27 -122t-43 -69t-57.5 -21.5q-45 0 -75 40l-28 -108zM109 383q0 -54 1.5 -99t6.5 -83l117 445q-9 39 -22 60t-30 21
q-18 0 -32 -24.5t-23 -69.5t-13.5 -108.5t-4.5 -141.5zM255 383q0 52 -2 97t-6 83l-116 -442q18 -69 51 -69q37 0 55 87t18 244z" />
    <glyph glyph-name="Ugrave" unicode="&#xd9;" horiz-adv-x="404" 
d="M66 0zM202 -10q-38 0 -64 18t-42 52.5t-23 84t-7 111.5v523h65v-526q0 -101 15.5 -150t55.5 -49q41 0 56 49t15 150v526h65v-523q0 -62 -7 -111.5t-22.5 -84t-41.5 -52.5t-65 -18zM198 805l-117 163h70l112 -163h-65z" />
    <glyph glyph-name="Uacute" unicode="&#xda;" horiz-adv-x="404" 
d="M66 0zM202 -10q-38 0 -64 18t-42 52.5t-23 84t-7 111.5v523h65v-526q0 -101 15.5 -150t55.5 -49q41 0 56 49t15 150v526h65v-523q0 -62 -7 -111.5t-22.5 -84t-41.5 -52.5t-65 -18zM141 805l112 163h70l-117 -163h-65z" />
    <glyph glyph-name="Ucircumflex" unicode="&#xdb;" horiz-adv-x="404" 
d="M49 0zM202 -10q-38 0 -64 18t-42 52.5t-23 84t-7 111.5v523h65v-526q0 -101 15.5 -150t55.5 -49q41 0 56 49t15 150v526h65v-523q0 -62 -7 -111.5t-22.5 -84t-41.5 -52.5t-65 -18zM121 805h-72l153 163l152 -163h-72l-80 88z" />
    <glyph glyph-name="Udieresis" unicode="&#xdc;" horiz-adv-x="404" 
d="M66 0zM202 -10q-38 0 -64 18t-42 52.5t-23 84t-7 111.5v523h65v-526q0 -101 15.5 -150t55.5 -49q41 0 56 49t15 150v526h65v-523q0 -62 -7 -111.5t-22.5 -84t-41.5 -52.5t-65 -18zM280 829q-38 0 -38 46t38 46t38 -46t-38 -46zM122 829q-37 0 -37 46t37 46q38 0 38 -46
t-38 -46z" />
    <glyph glyph-name="Yacute" unicode="&#xdd;" horiz-adv-x="374" 
d="M24 0zM156 0v345l-132 434h65l100 -346h4l99 346h58l-130 -434v-345h-64zM126 805l112 163h70l-117 -163h-65z" />
    <glyph glyph-name="Thorn" unicode="&#xde;" horiz-adv-x="351" 
d="M69 779h63v-101q43 -24 76.5 -52t55.5 -63t33.5 -78t11.5 -98q0 -54 -11.5 -97.5t-33.5 -78t-55.5 -63t-76.5 -52.5v-96h-63v779zM132 163q58 38 86 90t28 134t-28 134t-86 90v-448z" />
    <glyph glyph-name="germandbls" unicode="&#xdf;" horiz-adv-x="420" 
d="M219 789q56 0 85 -26t40 -63l-61 -157q43 -28 67.5 -85t24.5 -148q0 -152 -37.5 -236t-112.5 -84q-24 0 -37.5 4t-21.5 11v64q9 -7 20.5 -12t31.5 -5q46 0 69.5 68.5t23.5 189.5q0 96 -27.5 146.5t-73.5 50.5l70 185q-17 33 -66 33q-52 0 -69 -49t-17 -150v-526h-65v526
q0 62 7 111t25 82.5t48 51.5t76 18z" />
    <glyph glyph-name="agrave" unicode="&#xe0;" horiz-adv-x="361" 
d="M28 0zM186 805l147 -805h-64l-34 195h-111l-34 -195h-62l154 805h-18l-117 163h70l112 -163h-43zM132 243h95l-45 262h-4z" />
    <glyph glyph-name="aacute" unicode="&#xe1;" horiz-adv-x="361" 
d="M28 0zM186 805l147 -805h-64l-34 195h-111l-34 -195h-62l154 805h-33l112 163h70l-117 -163h-28zM132 243h95l-45 262h-4z" />
    <glyph glyph-name="acircumflex" unicode="&#xe2;" horiz-adv-x="361" 
d="M28 0zM235 195h-111l-34 -195h-62l156 815l149 -815h-64zM132 243h95l-45 262h-4zM100 805h-72l153 163l152 -163h-72l-80 88z" />
    <glyph glyph-name="atilde" unicode="&#xe3;" horiz-adv-x="361" 
d="M28 0zM235 195h-111l-34 -195h-62l156 815l149 -815h-64zM132 243h95l-45 262h-4zM317 863q-27 -29 -71 -29q-18 0 -34 6t-32 13.5t-32.5 13.5t-34.5 6q-23 0 -39.5 -9t-30.5 -28v57q30 30 72 30q18 0 34 -6t32 -13.5t32.5 -13.5t34.5 -6q23 0 39 9t30 27v-57z" />
    <glyph glyph-name="adieresis" unicode="&#xe4;" horiz-adv-x="361" 
d="M28 0zM235 195h-111l-34 -195h-62l156 815l149 -815h-64zM132 243h95l-45 262h-4zM259 829q-38 0 -38 46t38 46t38 -46t-38 -46zM101 829q-37 0 -37 46t37 46q38 0 38 -46t-38 -46z" />
    <glyph glyph-name="aring" unicode="&#xe5;" horiz-adv-x="361" 
d="M28 0zM235 195h-111l-34 -195h-62l150 783q-24 1 -40.5 10t-26.5 22t-14.5 29t-4.5 31t4.5 31.5t15.5 30t28.5 22.5t43.5 9t43.5 -9t28 -22.5t15 -30t4.5 -31.5t-4.5 -31t-14 -29t-26 -22t-40.5 -10l143 -783h-64zM132 243h95l-45 262h-4zM184 817q20 0 31.5 18.5
t11.5 39.5q0 20 -11.5 39t-31.5 19t-31.5 -19t-11.5 -39q0 -21 11.5 -39.5t31.5 -18.5z" />
    <glyph glyph-name="ae" unicode="&#xe6;" horiz-adv-x="440" 
d="M28 0zM222 0v195h-96l-33 -195h-65l147 779h208v-63h-97v-473h95v-48h-95v-135h106v-60h-170zM134 243h88v473h-4z" />
    <glyph glyph-name="ccedilla" unicode="&#xe7;" horiz-adv-x="296" 
d="M45 0zM45 389q0 106 9.5 181.5t28.5 124.5t47 72t66 23q23 0 36.5 -4t21.5 -12v-64q-8 8 -20 12.5t-32 4.5q-23 0 -40.5 -19t-29 -59.5t-17.5 -105t-6 -154.5t6 -154t17.5 -104.5t29 -59.5t40.5 -19q20 0 32 5t20 12v-64q-8 -7 -21.5 -11t-36.5 -4q-38 0 -66 23t-47 71.5
t-28.5 124t-9.5 180.5zM195 -130q-45 0 -45 52t42 52q44 0 44 -52q0 -16 -4 -37t-11 -42.5t-15 -41.5t-16 -33h-40q9 12 21 39t24 63z" />
    <glyph glyph-name="egrave" unicode="&#xe8;" horiz-adv-x="278" 
d="M28 0zM69 0v779h161v-63h-97v-473h95v-48h-95v-135h106v-60h-170zM145 805l-117 163h70l112 -163h-65z" />
    <glyph glyph-name="eacute" unicode="&#xe9;" horiz-adv-x="278" 
d="M69 0zM69 0v779h161v-63h-97v-473h95v-48h-95v-135h106v-60h-170zM88 805l112 163h70l-117 -163h-65z" />
    <glyph glyph-name="ecircumflex" unicode="&#xea;" horiz-adv-x="278" 
d="M0 0zM69 0v779h161v-63h-97v-473h95v-48h-95v-135h106v-60h-170zM69 805h-72l153 163l152 -163h-72l-80 88z" />
    <glyph glyph-name="edieresis" unicode="&#xeb;" horiz-adv-x="278" 
d="M33 0zM69 0v779h161v-63h-97v-473h95v-48h-95v-135h106v-60h-170zM228 829q-38 0 -38 46t38 46t38 -46t-38 -46zM70 829q-37 0 -37 46t37 46q38 0 38 -46t-38 -46z" />
    <glyph glyph-name="igrave" unicode="&#xec;" horiz-adv-x="231" 
d="M9 0zM98 0v779h64v-779h-64zM126 805l-117 163h70l112 -163h-65z" />
    <glyph glyph-name="iacute" unicode="&#xed;" horiz-adv-x="233" 
d="M40 0zM69 0v779h64v-779h-64zM40 805l112 163h70l-117 -163h-65z" />
    <glyph glyph-name="icircumflex" unicode="&#xee;" horiz-adv-x="257" 
d="M0 0zM96 0v779h64v-779h-64zM48 805h-72l153 163l152 -163h-72l-80 88z" />
    <glyph glyph-name="idieresis" unicode="&#xef;" horiz-adv-x="216" 
d="M0 0zM76 0v779h64v-779h-64zM187 829q-38 0 -38 46t38 46t38 -46t-38 -46zM29 829q-37 0 -37 46t37 46q38 0 38 -46t-38 -46z" />
    <glyph glyph-name="eth" unicode="&#xf0;" horiz-adv-x="354" 
d="M21 0zM21 243h48v542q67 -2 113 -35t74 -87t40.5 -125t12.5 -149t-12.5 -149t-40.5 -124.5t-74 -86t-113 -34.5v200h-48v48zM132 243h102q12 67 12 146q0 57 -6.5 111.5t-20.5 99t-35.5 75.5t-51.5 42v-474zM132 63q32 11 54 46t36 86h-90v-132z" />
    <glyph glyph-name="ntilde" unicode="&#xf1;" horiz-adv-x="391" 
d="M53 0zM134 466h-4v-466h-61v815l190 -529h4v493h59v-815zM327 863q-27 -29 -71 -29q-18 0 -34 6t-32 13.5t-32.5 13.5t-34.5 6q-23 0 -39.5 -9t-30.5 -28v57q30 30 72 30q18 0 34 -6t32 -13.5t32.5 -13.5t34.5 -6q23 0 39 9t30 27v-57z" />
    <glyph glyph-name="ograve" unicode="&#xf2;" 
d="M45 0zM319 382q0 -106 -9.5 -180.5t-27 -122t-43 -69t-57.5 -21.5t-57.5 21.5t-43 69t-27 122t-9.5 180.5q0 211 36 309t101 98q64 0 100.5 -98t36.5 -309zM109 382q0 -157 18 -244t55 -87t55 87t18 244q0 78 -4.5 141.5t-13.5 108.5t-23 69.5t-32 24.5t-32 -24.5
t-23 -69.5t-13.5 -108.5t-4.5 -141.5zM178 805l-117 163h70l112 -163h-65z" />
    <glyph glyph-name="oacute" unicode="&#xf3;" 
d="M45 0zM319 382q0 -106 -9.5 -180.5t-27 -122t-43 -69t-57.5 -21.5t-57.5 21.5t-43 69t-27 122t-9.5 180.5q0 211 36 309t101 98q64 0 100.5 -98t36.5 -309zM109 382q0 -157 18 -244t55 -87t55 87t18 244q0 78 -4.5 141.5t-13.5 108.5t-23 69.5t-32 24.5t-32 -24.5
t-23 -69.5t-13.5 -108.5t-4.5 -141.5zM121 805l112 163h70l-117 -163h-65z" />
    <glyph glyph-name="ocircumflex" unicode="&#xf4;" 
d="M30 0zM319 382q0 -106 -9.5 -180.5t-27 -122t-43 -69t-57.5 -21.5t-57.5 21.5t-43 69t-27 122t-9.5 180.5q0 211 36 309t101 98q64 0 100.5 -98t36.5 -309zM109 382q0 -157 18 -244t55 -87t55 87t18 244q0 78 -4.5 141.5t-13.5 108.5t-23 69.5t-32 24.5t-32 -24.5
t-23 -69.5t-13.5 -108.5t-4.5 -141.5zM102 805h-72l153 163l152 -163h-72l-80 88z" />
    <glyph glyph-name="otilde" unicode="&#xf5;" 
d="M45 0zM319 382q0 -106 -9.5 -180.5t-27 -122t-43 -69t-57.5 -21.5t-57.5 21.5t-43 69t-27 122t-9.5 180.5q0 211 36 309t101 98q64 0 100.5 -98t36.5 -309zM109 382q0 -157 18 -244t55 -87t55 87t18 244q0 78 -4.5 141.5t-13.5 108.5t-23 69.5t-32 24.5t-32 -24.5
t-23 -69.5t-13.5 -108.5t-4.5 -141.5zM319 863q-27 -29 -71 -29q-18 0 -34 6t-32 13.5t-32.5 13.5t-34.5 6q-23 0 -39.5 -9t-30.5 -28v57q30 30 72 30q18 0 34 -6t32 -13.5t32.5 -13.5t34.5 -6q23 0 39 9t30 27v-57z" />
    <glyph glyph-name="odieresis" unicode="&#xf6;" 
d="M45 0zM319 382q0 -106 -9.5 -180.5t-27 -122t-43 -69t-57.5 -21.5t-57.5 21.5t-43 69t-27 122t-9.5 180.5q0 211 36 309t101 98q64 0 100.5 -98t36.5 -309zM109 382q0 -157 18 -244t55 -87t55 87t18 244q0 78 -4.5 141.5t-13.5 108.5t-23 69.5t-32 24.5t-32 -24.5
t-23 -69.5t-13.5 -108.5t-4.5 -141.5zM260 829q-38 0 -38 46t38 46t38 -46t-38 -46zM102 829q-37 0 -37 46t37 46q38 0 38 -46t-38 -46z" />
    <glyph glyph-name="divide" unicode="&#xf7;" horiz-adv-x="579" 
d="M69 144zM69 355v49h441v-49h-441zM289 501q-21 0 -32 12t-11 39q0 52 43 52q44 0 44 -52q0 -27 -11 -39t-33 -12zM289 144q-21 0 -32 12t-11 39q0 52 43 52q44 0 44 -52q0 -27 -11 -39t-33 -12z" />
    <glyph glyph-name="oslash" unicode="&#xf8;" 
d="M45 0zM46 -69l38 143q-19 48 -29 123t-10 186q0 211 36 309t101 98q47 0 78 -49l27 103l32 -8l-37 -141q18 -51 27.5 -128t9.5 -184q0 -106 -9.5 -180.5t-27 -122t-43 -69t-57.5 -21.5q-45 0 -75 40l-28 -108zM109 383q0 -54 1.5 -99t6.5 -83l117 445q-9 39 -22 60
t-30 21q-18 0 -32 -24.5t-23 -69.5t-13.5 -108.5t-4.5 -141.5zM255 383q0 52 -2 97t-6 83l-116 -442q18 -69 51 -69q37 0 55 87t18 244z" />
    <glyph glyph-name="ugrave" unicode="&#xf9;" horiz-adv-x="404" 
d="M66 0zM202 -10q-38 0 -64 18t-42 52.5t-23 84t-7 111.5v523h65v-526q0 -101 15.5 -150t55.5 -49q41 0 56 49t15 150v526h65v-523q0 -62 -7 -111.5t-22.5 -84t-41.5 -52.5t-65 -18zM198 805l-117 163h70l112 -163h-65z" />
    <glyph glyph-name="uacute" unicode="&#xfa;" horiz-adv-x="404" 
d="M66 0zM202 -10q-38 0 -64 18t-42 52.5t-23 84t-7 111.5v523h65v-526q0 -101 15.5 -150t55.5 -49q41 0 56 49t15 150v526h65v-523q0 -62 -7 -111.5t-22.5 -84t-41.5 -52.5t-65 -18zM141 805l112 163h70l-117 -163h-65z" />
    <glyph glyph-name="ucircumflex" unicode="&#xfb;" horiz-adv-x="404" 
d="M49 0zM202 -10q-38 0 -64 18t-42 52.5t-23 84t-7 111.5v523h65v-526q0 -101 15.5 -150t55.5 -49q41 0 56 49t15 150v526h65v-523q0 -62 -7 -111.5t-22.5 -84t-41.5 -52.5t-65 -18zM121 805h-72l153 163l152 -163h-72l-80 88z" />
    <glyph glyph-name="udieresis" unicode="&#xfc;" horiz-adv-x="404" 
d="M66 0zM202 -10q-38 0 -64 18t-42 52.5t-23 84t-7 111.5v523h65v-526q0 -101 15.5 -150t55.5 -49q41 0 56 49t15 150v526h65v-523q0 -62 -7 -111.5t-22.5 -84t-41.5 -52.5t-65 -18zM280 829q-38 0 -38 46t38 46t38 -46t-38 -46zM122 829q-37 0 -37 46t37 46q38 0 38 -46
t-38 -46z" />
    <glyph glyph-name="yacute" unicode="&#xfd;" horiz-adv-x="374" 
d="M24 0zM156 0v345l-132 434h65l100 -346h4l99 346h58l-130 -434v-345h-64zM126 805l112 163h70l-117 -163h-65z" />
    <glyph glyph-name="thorn" unicode="&#xfe;" horiz-adv-x="351" 
d="M69 0zM69 779h63v-101q43 -24 76.5 -52t55.5 -63t33.5 -78t11.5 -98q0 -54 -11.5 -97.5t-33.5 -78t-55.5 -63t-76.5 -52.5v-96h-63v779zM132 163q58 38 86 90t28 134t-28 134t-86 90v-448z" />
    <glyph glyph-name="ydieresis" unicode="&#xff;" horiz-adv-x="374" 
d="M24 0zM156 0v345l-132 434h65l100 -346h4l99 346h58l-130 -434v-345h-64zM265 829q-38 0 -38 46t38 46t38 -46t-38 -46zM107 829q-37 0 -37 46t37 46q38 0 38 -46t-38 -46z" />
    <glyph glyph-name="Amacron" unicode="&#x100;" horiz-adv-x="361" 
d="M28 0zM235 195h-111l-34 -195h-62l156 815l149 -815h-64zM132 243h95l-45 262h-4zM47 852v49h274v-49h-274z" />
    <glyph glyph-name="amacron" unicode="&#x101;" horiz-adv-x="361" 
d="M28 0zM235 195h-111l-34 -195h-62l156 815l149 -815h-64zM132 243h95l-45 262h-4zM47 852v49h274v-49h-274z" />
    <glyph glyph-name="Abreve" unicode="&#x102;" horiz-adv-x="361" 
d="M325 968q-6 -77 -37.5 -120t-101.5 -43l147 -805h-64l-34 195h-111l-34 -195h-62l154 805q-70 1 -100.5 44t-38.5 119h61q7 -62 23 -93t58 -31q21 0 34.5 8t22.5 23.5t14.5 38.5t9.5 54h59zM132 243h95l-45 262h-4z" />
    <glyph glyph-name="abreve" unicode="&#x103;" horiz-adv-x="361" 
d="M28 0zM325 968q-6 -77 -37.5 -120t-101.5 -43l147 -805h-64l-34 195h-111l-34 -195h-62l154 805q-70 1 -100.5 44t-38.5 119h61q7 -62 23 -93t58 -31q21 0 34.5 8t22.5 23.5t14.5 38.5t9.5 54h59zM132 243h95l-45 262h-4z" />
    <glyph glyph-name="Aogonek" unicode="&#x104;" horiz-adv-x="361" 
d="M333 -216q-9 -7 -31 -11.5t-50 -4.5q-54 0 -90 23.5t-36 76.5q0 33 13 56.5t33.5 39t46 24.5t50.5 12l-34 195h-111l-34 -195h-62l156 815l149 -815q-73 -14 -113 -38.5t-40 -71.5q0 -32 18 -45.5t57 -13.5q28 0 46 3.5t32 10.5v-61zM132 243h95l-45 262h-4z" />
    <glyph glyph-name="aogonek" unicode="&#x105;" horiz-adv-x="361" 
d="M28 0zM333 -216q-9 -7 -31 -11.5t-50 -4.5q-54 0 -90 23.5t-36 76.5q0 33 13 56.5t33.5 39t46 24.5t50.5 12l-34 195h-111l-34 -195h-62l156 815l149 -815q-73 -14 -113 -38.5t-40 -71.5q0 -32 18 -45.5t57 -13.5q28 0 46 3.5t32 10.5v-61zM132 243h95l-45 262h-4z" />
    <glyph glyph-name="Cacute" unicode="&#x106;" horiz-adv-x="296" 
d="M45 0zM45 389q0 106 9.5 181.5t28.5 124.5t47 72t66 23q23 0 36.5 -4t21.5 -12v-64q-8 8 -20 12.5t-32 4.5q-23 0 -40.5 -19t-29 -59.5t-17.5 -105t-6 -154.5t6 -154t17.5 -104.5t29 -59.5t40.5 -19q20 0 32 5t20 12v-64q-8 -7 -21.5 -11t-36.5 -4q-38 0 -66 23t-47 71.5
t-28.5 124t-9.5 180.5zM120 805l112 163h70l-117 -163h-65z" />
    <glyph glyph-name="cacute" unicode="&#x107;" horiz-adv-x="296" 
d="M45 0zM45 389q0 106 9.5 181.5t28.5 124.5t47 72t66 23q23 0 36.5 -4t21.5 -12v-64q-8 8 -20 12.5t-32 4.5q-23 0 -40.5 -19t-29 -59.5t-17.5 -105t-6 -154.5t6 -154t17.5 -104.5t29 -59.5t40.5 -19q20 0 32 5t20 12v-64q-8 -7 -21.5 -11t-36.5 -4q-38 0 -66 23t-47 71.5
t-28.5 124t-9.5 180.5zM120 805l112 163h70l-117 -163h-65z" />
    <glyph glyph-name="Cdotaccent" unicode="&#x10a;" horiz-adv-x="296" 
d="M45 0zM45 389q0 106 9.5 181.5t28.5 124.5t47 72t66 23q23 0 36.5 -4t21.5 -12v-64q-8 8 -20 12.5t-32 4.5q-23 0 -40.5 -19t-29 -59.5t-17.5 -105t-6 -154.5t6 -154t17.5 -104.5t29 -59.5t40.5 -19q20 0 32 5t20 12v-64q-8 -7 -21.5 -11t-36.5 -4q-38 0 -66 23t-47 71.5
t-28.5 124t-9.5 180.5zM180 829q-37 0 -37 46t37 46q39 0 39 -46t-39 -46z" />
    <glyph glyph-name="cdotaccent" unicode="&#x10b;" horiz-adv-x="296" 
d="M45 0zM45 389q0 106 9.5 181.5t28.5 124.5t47 72t66 23q23 0 36.5 -4t21.5 -12v-64q-8 8 -20 12.5t-32 4.5q-23 0 -40.5 -19t-29 -59.5t-17.5 -105t-6 -154.5t6 -154t17.5 -104.5t29 -59.5t40.5 -19q20 0 32 5t20 12v-64q-8 -7 -21.5 -11t-36.5 -4q-38 0 -66 23t-47 71.5
t-28.5 124t-9.5 180.5zM180 829q-37 0 -37 46t37 46q39 0 39 -46t-39 -46z" />
    <glyph glyph-name="Ccaron" unicode="&#x10c;" horiz-adv-x="296" 
d="M29 0zM45 389q0 106 9.5 181.5t28.5 124.5t47 72t66 23q23 0 36.5 -4t21.5 -12v-64q-8 8 -20 12.5t-32 4.5q-23 0 -40.5 -19t-29 -59.5t-17.5 -105t-6 -154.5t6 -154t17.5 -104.5t29 -59.5t40.5 -19q20 0 32 5t20 12v-64q-8 -7 -21.5 -11t-36.5 -4q-38 0 -66 23t-47 71.5
t-28.5 124t-9.5 180.5zM262 968h72l-153 -163l-152 163h72l80 -88z" />
    <glyph glyph-name="ccaron" unicode="&#x10d;" horiz-adv-x="296" 
d="M29 0zM45 389q0 106 9.5 181.5t28.5 124.5t47 72t66 23q23 0 36.5 -4t21.5 -12v-64q-8 8 -20 12.5t-32 4.5q-23 0 -40.5 -19t-29 -59.5t-17.5 -105t-6 -154.5t6 -154t17.5 -104.5t29 -59.5t40.5 -19q20 0 32 5t20 12v-64q-8 -7 -21.5 -11t-36.5 -4q-38 0 -66 23t-47 71.5
t-28.5 124t-9.5 180.5zM262 968h72l-153 -163l-152 163h72l80 -88z" />
    <glyph glyph-name="Dcaron" unicode="&#x10e;" horiz-adv-x="354" 
d="M0 0zM69 785q67 -2 113 -35t74 -87t40.5 -125t12.5 -149t-12.5 -149t-40.5 -124.5t-74 -86t-113 -34.5v790zM132 63q30 10 51.5 41t35.5 75.5t20.5 98.5t6.5 111t-6.5 111.5t-20.5 99t-35.5 75.5t-51.5 42v-654zM228 968h72l-153 -163l-152 163h72l80 -88z" />
    <glyph glyph-name="dcaron" unicode="&#x10f;" horiz-adv-x="354" 
d="M0 0zM69 785q67 -2 113 -35t74 -87t40.5 -125t12.5 -149t-12.5 -149t-40.5 -124.5t-74 -86t-113 -34.5v790zM132 63q30 10 51.5 41t35.5 75.5t20.5 98.5t6.5 111t-6.5 111.5t-20.5 99t-35.5 75.5t-51.5 42v-654zM228 968h72l-153 -163l-152 163h72l80 -88z" />
    <glyph glyph-name="Dcroat" unicode="&#x110;" horiz-adv-x="354" 
d="M21 0zM21 243h48v542q67 -2 113 -35t74 -87t40.5 -125t12.5 -149t-12.5 -149t-40.5 -124.5t-74 -86t-113 -34.5v200h-48v48zM132 243h102q12 67 12 146q0 57 -6.5 111.5t-20.5 99t-35.5 75.5t-51.5 42v-474zM132 63q32 11 54 46t36 86h-90v-132z" />
    <glyph glyph-name="dcroat" unicode="&#x111;" horiz-adv-x="354" 
d="M21 0zM21 243h48v542q67 -2 113 -35t74 -87t40.5 -125t12.5 -149t-12.5 -149t-40.5 -124.5t-74 -86t-113 -34.5v200h-48v48zM132 243h102q12 67 12 146q0 57 -6.5 111.5t-20.5 99t-35.5 75.5t-51.5 42v-474zM132 63q32 11 54 46t36 86h-90v-132z" />
    <glyph glyph-name="Emacron" unicode="&#x112;" horiz-adv-x="278" 
d="M12 0zM69 0v779h161v-63h-97v-473h95v-48h-95v-135h106v-60h-170zM12 852v49h274v-49h-274z" />
    <glyph glyph-name="emacron" unicode="&#x113;" horiz-adv-x="278" 
d="M12 0zM69 0v779h161v-63h-97v-473h95v-48h-95v-135h106v-60h-170zM12 852v49h274v-49h-274z" />
    <glyph glyph-name="Ebreve" unicode="&#x114;" horiz-adv-x="278" 
d="M8 0zM69 0v779h161v-63h-97v-473h95v-48h-95v-135h106v-60h-170zM290 968q-6 -77 -37.5 -120t-102.5 -43t-103 43t-39 120h61q7 -62 23 -93t58 -31q21 0 34.5 8t22.5 23.5t14.5 38.5t9.5 54h59z" />
    <glyph glyph-name="ebreve" unicode="&#x115;" horiz-adv-x="278" 
d="M8 0zM69 0v779h161v-63h-97v-473h95v-48h-95v-135h106v-60h-170zM290 968q-6 -77 -37.5 -120t-102.5 -43t-103 43t-39 120h61q7 -62 23 -93t58 -31q21 0 34.5 8t22.5 23.5t14.5 38.5t9.5 54h59z" />
    <glyph glyph-name="Edotaccent" unicode="&#x116;" horiz-adv-x="278" 
d="M69 0zM69 0v779h161v-63h-97v-473h95v-48h-95v-135h106v-60h-170zM148 829q-37 0 -37 46t37 46q39 0 39 -46t-39 -46z" />
    <glyph glyph-name="edotaccent" unicode="&#x117;" horiz-adv-x="278" 
d="M69 0zM69 0v779h161v-63h-97v-473h95v-48h-95v-135h106v-60h-170zM148 829q-37 0 -37 46t37 46q39 0 39 -46t-39 -46z" />
    <glyph glyph-name="Eogonek" unicode="&#x118;" horiz-adv-x="278" 
d="M239 -216q-9 -7 -31 -11.5t-50 -4.5q-54 0 -90 23.5t-36 76.5q0 33 13 56.5t33.5 39t46 24.5t50.5 12h-106v779h161v-63h-97v-473h95v-48h-95v-135h106v-60q-73 -14 -113 -38.5t-40 -71.5q0 -32 18 -45.5t57 -13.5q28 0 46 3.5t32 10.5v-61z" />
    <glyph glyph-name="eogonek" unicode="&#x119;" horiz-adv-x="278" 
d="M32 0zM239 -216q-9 -7 -31 -11.5t-50 -4.5q-54 0 -90 23.5t-36 76.5q0 33 13 56.5t33.5 39t46 24.5t50.5 12h-106v779h161v-63h-97v-473h95v-48h-95v-135h106v-60q-73 -14 -113 -38.5t-40 -71.5q0 -32 18 -45.5t57 -13.5q28 0 46 3.5t32 10.5v-61z" />
    <glyph glyph-name="Ecaron" unicode="&#x11a;" horiz-adv-x="278" 
d="M0 0zM69 0v779h161v-63h-97v-473h95v-48h-95v-135h106v-60h-170zM230 968h72l-153 -163l-152 163h72l80 -88z" />
    <glyph glyph-name="ecaron" unicode="&#x11b;" horiz-adv-x="278" 
d="M0 0zM69 0v779h161v-63h-97v-473h95v-48h-95v-135h106v-60h-170zM230 968h72l-153 -163l-152 163h72l80 -88z" />
    <glyph glyph-name="Gbreve" unicode="&#x11e;" horiz-adv-x="333" 
d="M45 0zM276 432v-391q-14 -17 -38.5 -29t-50.5 -12q-34 0 -60.5 21.5t-44.5 68t-27.5 120.5t-9.5 179q0 106 9.5 181.5t28.5 124.5t47 72t66 23q23 0 36.5 -4t21.5 -12v-64q-8 8 -20 12.5t-32 4.5q-23 0 -40.5 -19t-29 -59.5t-17.5 -105t-6 -154.5q0 -158 18.5 -243.5
t58.5 -85.5q11 0 20 2.5t14 7.5v362h56zM333 968q-6 -77 -37.5 -120t-102.5 -43t-103 43t-39 120h61q7 -62 23 -93t58 -31q21 0 34.5 8t22.5 23.5t14.5 38.5t9.5 54h59z" />
    <glyph glyph-name="gbreve" unicode="&#x11f;" horiz-adv-x="333" 
d="M45 0zM276 432v-391q-14 -17 -38.5 -29t-50.5 -12q-34 0 -60.5 21.5t-44.5 68t-27.5 120.5t-9.5 179q0 106 9.5 181.5t28.5 124.5t47 72t66 23q23 0 36.5 -4t21.5 -12v-64q-8 8 -20 12.5t-32 4.5q-23 0 -40.5 -19t-29 -59.5t-17.5 -105t-6 -154.5q0 -158 18.5 -243.5
t58.5 -85.5q11 0 20 2.5t14 7.5v362h56zM333 968q-6 -77 -37.5 -120t-102.5 -43t-103 43t-39 120h61q7 -62 23 -93t58 -31q21 0 34.5 8t22.5 23.5t14.5 38.5t9.5 54h59z" />
    <glyph glyph-name="Gdotaccent" unicode="&#x120;" horiz-adv-x="333" 
d="M45 0zM276 432v-391q-14 -17 -38.5 -29t-50.5 -12q-34 0 -60.5 21.5t-44.5 68t-27.5 120.5t-9.5 179q0 106 9.5 181.5t28.5 124.5t47 72t66 23q23 0 36.5 -4t21.5 -12v-64q-8 8 -20 12.5t-32 4.5q-23 0 -40.5 -19t-29 -59.5t-17.5 -105t-6 -154.5q0 -158 18.5 -243.5
t58.5 -85.5q11 0 20 2.5t14 7.5v362h56zM191 829q-37 0 -37 46t37 46q39 0 39 -46t-39 -46z" />
    <glyph glyph-name="gdotaccent" unicode="&#x121;" horiz-adv-x="333" 
d="M45 0zM276 432v-391q-14 -17 -38.5 -29t-50.5 -12q-34 0 -60.5 21.5t-44.5 68t-27.5 120.5t-9.5 179q0 106 9.5 181.5t28.5 124.5t47 72t66 23q23 0 36.5 -4t21.5 -12v-64q-8 8 -20 12.5t-32 4.5q-23 0 -40.5 -19t-29 -59.5t-17.5 -105t-6 -154.5q0 -158 18.5 -243.5
t58.5 -85.5q11 0 20 2.5t14 7.5v362h56zM191 829q-37 0 -37 46t37 46q39 0 39 -46t-39 -46z" />
    <glyph glyph-name="Gcommaaccent" unicode="&#x122;" horiz-adv-x="333" 
d="M45 0zM276 432v-391q-14 -17 -38.5 -29t-50.5 -12q-34 0 -60.5 21.5t-44.5 68t-27.5 120.5t-9.5 179q0 106 9.5 181.5t28.5 124.5t47 72t66 23q23 0 36.5 -4t21.5 -12v-64q-8 8 -20 12.5t-32 4.5q-23 0 -40.5 -19t-29 -59.5t-17.5 -105t-6 -154.5q0 -158 18.5 -243.5
t58.5 -85.5q11 0 20 2.5t14 7.5v362h56zM184 -130q-45 0 -45 52t42 52q44 0 44 -52q0 -16 -4 -37t-11 -42.5t-15 -41.5t-16 -33h-40q9 12 21 39t24 63z" />
    <glyph glyph-name="gcommaaccent" unicode="&#x123;" horiz-adv-x="333" 
d="M45 0zM276 432v-391q-14 -17 -38.5 -29t-50.5 -12q-34 0 -60.5 21.5t-44.5 68t-27.5 120.5t-9.5 179q0 106 9.5 181.5t28.5 124.5t47 72t66 23q23 0 36.5 -4t21.5 -12v-64q-8 8 -20 12.5t-32 4.5q-23 0 -40.5 -19t-29 -59.5t-17.5 -105t-6 -154.5q0 -158 18.5 -243.5
t58.5 -85.5q11 0 20 2.5t14 7.5v362h56zM184 -130q-45 0 -45 52t42 52q44 0 44 -52q0 -16 -4 -37t-11 -42.5t-15 -41.5t-16 -33h-40q9 12 21 39t24 63z" />
    <glyph glyph-name="Hbar" unicode="&#x126;" horiz-adv-x="389" 
d="M255 0v195h-122v-195h-64v321h-49v49h49v409h64v-409h122v409h65v-409h49v-49h-49v-321h-65zM255 243v78h-122v-78h122z" />
    <glyph glyph-name="hbar" unicode="&#x127;" horiz-adv-x="389" 
d="M20 0zM255 0v195h-122v-195h-64v321h-49v49h49v409h64v-409h122v409h65v-409h49v-49h-49v-321h-65zM255 243v78h-122v-78h122z" />
    <glyph glyph-name="uni012A" unicode="&#x12a;" horiz-adv-x="249" 
d="M0 0zM93 0v779h64v-779h-64zM-12 852v49h274v-49h-274z" />
    <glyph glyph-name="imacron" unicode="&#x12b;" horiz-adv-x="249" 
d="M0 0zM93 0v779h64v-779h-64zM-12 852v49h274v-49h-274z" />
    <glyph glyph-name="Ibreve" unicode="&#x12c;" horiz-adv-x="287" 
d="M3 0zM112 0v779h64v-779h-64zM285 968q-6 -77 -37.5 -120t-102.5 -43t-103 43t-39 120h61q7 -62 23 -93t58 -31q21 0 34.5 8t22.5 23.5t14.5 38.5t9.5 54h59z" />
    <glyph glyph-name="ibreve" unicode="&#x12d;" horiz-adv-x="287" 
d="M3 0zM112 0v779h64v-779h-64zM285 968q-6 -77 -37.5 -120t-102.5 -43t-103 43t-39 120h61q7 -62 23 -93t58 -31q21 0 34.5 8t22.5 23.5t14.5 38.5t9.5 54h59z" />
    <glyph glyph-name="Iogonek" unicode="&#x12e;" horiz-adv-x="202" 
d="M133 -216q-9 -7 -31 -11.5t-50 -4.5q-54 0 -90 23.5t-36 76.5q0 33 13 56.5t33.5 39t46 24.5t50.5 12v779h64v-779q-73 -14 -113 -38.5t-40 -71.5q0 -32 18 -45.5t57 -13.5q28 0 46 3.5t32 10.5v-61z" />
    <glyph glyph-name="iogonek" unicode="&#x12f;" horiz-adv-x="202" 
d="M0 0zM133 -216q-9 -7 -31 -11.5t-50 -4.5q-54 0 -90 23.5t-36 76.5q0 33 13 56.5t33.5 39t46 24.5t50.5 12v779h64v-779q-73 -14 -113 -38.5t-40 -71.5q0 -32 18 -45.5t57 -13.5q28 0 46 3.5t32 10.5v-61z" />
    <glyph glyph-name="Idotaccent" unicode="&#x130;" horiz-adv-x="202" 
d="M63 0zM69 0v779h64v-779h-64zM100 829q-37 0 -37 46t37 46q39 0 39 -46t-39 -46z" />
    <glyph glyph-name="dotlessi" unicode="&#x131;" horiz-adv-x="202" 
d="M69 0zM69 0v779h64v-779h-64z" />
    <glyph glyph-name="IJ" unicode="&#x132;" horiz-adv-x="423" 
d="M69 0zM69 0v779h64v-779h-64zM354 410q0 -117 -6 -200t-17 -141t-26.5 -97t-33.5 -68h-79q27 34 46 73t30.5 96t16.5 138t5 199v369h64v-369z" />
    <glyph glyph-name="ij" unicode="&#x133;" horiz-adv-x="423" 
d="M69 0zM69 0v779h64v-779h-64zM354 410q0 -117 -6 -200t-17 -141t-26.5 -97t-33.5 -68h-79q27 34 46 73t30.5 96t16.5 138t5 199v369h64v-369z" />
    <glyph glyph-name="Kcommaaccent" unicode="&#x136;" horiz-adv-x="383" 
d="M69 0zM288 0q-16 10 -35.5 30t-40 46t-41 56.5t-37.5 61.5l-2 -5v-189h-63v779h63v-423h4l157 423h65l-201 -525q16 -29 43.5 -66.5t60.5 -74.5t67.5 -67.5t64.5 -45.5h-105zM211 -130q-45 0 -45 52t42 52q44 0 44 -52q0 -16 -4 -37t-11 -42.5t-15 -41.5t-16 -33h-40
q9 12 21 39t24 63z" />
    <glyph glyph-name="kcommaaccent" unicode="&#x137;" horiz-adv-x="383" 
d="M69 0zM288 0q-16 10 -35.5 30t-40 46t-41 56.5t-37.5 61.5l-2 -5v-189h-63v779h63v-423h4l157 423h65l-201 -525q16 -29 43.5 -66.5t60.5 -74.5t67.5 -67.5t64.5 -45.5h-105zM211 -130q-45 0 -45 52t42 52q44 0 44 -52q0 -16 -4 -37t-11 -42.5t-15 -41.5t-16 -33h-40
q9 12 21 39t24 63z" />
    <glyph glyph-name="Lacute" unicode="&#x139;" horiz-adv-x="263" 
d="M69 0zM69 0v779h64v-719h110v-60h-174zM70 805l112 163h70l-117 -163h-65z" />
    <glyph glyph-name="lacute" unicode="&#x13a;" horiz-adv-x="263" 
d="M69 0zM69 0v779h64v-719h110v-60h-174zM70 805l112 163h70l-117 -163h-65z" />
    <glyph glyph-name="Lcommaaccent" unicode="&#x13b;" horiz-adv-x="263" 
d="M69 0zM69 0v779h64v-719h110v-60h-174zM153 -130q-45 0 -45 52t42 52q44 0 44 -52q0 -16 -4 -37t-11 -42.5t-15 -41.5t-16 -33h-40q9 12 21 39t24 63z" />
    <glyph glyph-name="lcommaaccent" unicode="&#x13c;" horiz-adv-x="263" 
d="M69 0zM69 0v779h64v-719h110v-60h-174zM153 -130q-45 0 -45 52t42 52q44 0 44 -52q0 -16 -4 -37t-11 -42.5t-15 -41.5t-16 -33h-40q9 12 21 39t24 63z" />
    <glyph glyph-name="Lcaron" unicode="&#x13d;" horiz-adv-x="263" 
d="M69 0zM69 0v779h64v-719h110v-60h-174zM214 687q-45 0 -45 52t43 52q44 0 44 -52q0 -16 -4 -37t-11 -42.5t-15 -41.5t-16 -33h-41q10 13 21.5 39.5t23.5 62.5z" />
    <glyph glyph-name="lcaron" unicode="&#x13e;" horiz-adv-x="263" 
d="M69 0zM69 0v779h64v-719h110v-60h-174zM214 687q-45 0 -45 52t43 52q44 0 44 -52q0 -16 -4 -37t-11 -42.5t-15 -41.5t-16 -33h-41q10 13 21.5 39.5t23.5 62.5z" />
    <glyph glyph-name="Ldot" unicode="&#x13f;" horiz-adv-x="263" 
d="M69 0zM69 0v779h64v-719h110v-60h-174zM203 172q-37 0 -37 46t37 46q39 0 39 -46t-39 -46z" />
    <glyph glyph-name="ldot" unicode="&#x140;" horiz-adv-x="263" 
d="M69 0zM69 0v779h64v-719h110v-60h-174zM203 172q-37 0 -37 46t37 46q39 0 39 -46t-39 -46z" />
    <glyph glyph-name="Lslash" unicode="&#x141;" horiz-adv-x="263" 
d="M69 0v359l-37 -13v40l37 13v380h64v-357l86 31v-40l-86 -31v-322h110v-60h-174z" />
    <glyph glyph-name="lslash" unicode="&#x142;" horiz-adv-x="263" 
d="M32 0zM69 0v359l-37 -13v40l37 13v380h64v-357l86 31v-40l-86 -31v-322h110v-60h-174z" />
    <glyph glyph-name="Nacute" unicode="&#x143;" horiz-adv-x="391" 
d="M69 0zM134 466h-4v-466h-61v815l190 -529h4v493h59v-815zM134 805l112 163h70l-117 -163h-65z" />
    <glyph glyph-name="nacute" unicode="&#x144;" horiz-adv-x="391" 
d="M69 0zM134 466h-4v-466h-61v815l190 -529h4v493h59v-815zM134 805l112 163h70l-117 -163h-65z" />
    <glyph glyph-name="Ncommaaccent" unicode="&#x145;" horiz-adv-x="391" 
d="M69 0zM134 466h-4v-466h-61v815l190 -529h4v493h59v-815zM211 -130q-45 0 -45 52t42 52q44 0 44 -52q0 -16 -4 -37t-11 -42.5t-15 -41.5t-16 -33h-40q9 12 21 39t24 63z" />
    <glyph glyph-name="ncommaaccent" unicode="&#x146;" horiz-adv-x="391" 
d="M69 0zM134 466h-4v-466h-61v815l190 -529h4v493h59v-815zM211 -130q-45 0 -45 52t42 52q44 0 44 -52q0 -16 -4 -37t-11 -42.5t-15 -41.5t-16 -33h-40q9 12 21 39t24 63z" />
    <glyph glyph-name="Ncaron" unicode="&#x147;" horiz-adv-x="391" 
d="M43 0zM134 466h-4v-466h-61v815l190 -529h4v493h59v-815zM276 968h72l-153 -163l-152 163h72l80 -88z" />
    <glyph glyph-name="ncaron" unicode="&#x148;" horiz-adv-x="391" 
d="M43 0zM134 466h-4v-466h-61v815l190 -529h4v493h59v-815zM276 968h72l-153 -163l-152 163h72l80 -88z" />
    <glyph glyph-name="Eng" unicode="&#x14a;" horiz-adv-x="386" 
d="M322 354q-2 -102 -8 -174.5t-16.5 -124.5t-24.5 -88t-31 -63h-82q18 22 32 47t25 56t18.5 68.5t12.5 84.5l-114 306h-4v-466h-61v815l187 -522q1 27 1.5 56t0.5 61v369h64v-425z" />
    <glyph glyph-name="eng" unicode="&#x14b;" horiz-adv-x="386" 
d="M69 0zM322 354q-2 -102 -8 -174.5t-16.5 -124.5t-24.5 -88t-31 -63h-82q18 22 32 47t25 56t18.5 68.5t12.5 84.5l-114 306h-4v-466h-61v815l187 -522q1 27 1.5 56t0.5 61v369h64v-425z" />
    <glyph glyph-name="Omacron" unicode="&#x14c;" 
d="M45 0zM319 382q0 -106 -9.5 -180.5t-27 -122t-43 -69t-57.5 -21.5t-57.5 21.5t-43 69t-27 122t-9.5 180.5q0 211 36 309t101 98q64 0 100.5 -98t36.5 -309zM109 382q0 -157 18 -244t55 -87t55 87t18 244q0 78 -4.5 141.5t-13.5 108.5t-23 69.5t-32 24.5t-32 -24.5
t-23 -69.5t-13.5 -108.5t-4.5 -141.5zM45 852v49h274v-49h-274z" />
    <glyph glyph-name="omacron" unicode="&#x14d;" 
d="M45 0zM319 382q0 -106 -9.5 -180.5t-27 -122t-43 -69t-57.5 -21.5t-57.5 21.5t-43 69t-27 122t-9.5 180.5q0 211 36 309t101 98q64 0 100.5 -98t36.5 -309zM109 382q0 -157 18 -244t55 -87t55 87t18 244q0 78 -4.5 141.5t-13.5 108.5t-23 69.5t-32 24.5t-32 -24.5
t-23 -69.5t-13.5 -108.5t-4.5 -141.5zM45 852v49h274v-49h-274z" />
    <glyph glyph-name="Obreve" unicode="&#x14e;" 
d="M41 0zM319 382q0 -106 -9.5 -180.5t-27 -122t-43 -69t-57.5 -21.5t-57.5 21.5t-43 69t-27 122t-9.5 180.5q0 211 36 309t101 98q64 0 100.5 -98t36.5 -309zM109 382q0 -157 18 -244t55 -87t55 87t18 244q0 78 -4.5 141.5t-13.5 108.5t-23 69.5t-32 24.5t-32 -24.5
t-23 -69.5t-13.5 -108.5t-4.5 -141.5zM323 968q-6 -77 -37.5 -120t-102.5 -43t-103 43t-39 120h61q7 -62 23 -93t58 -31q21 0 34.5 8t22.5 23.5t14.5 38.5t9.5 54h59z" />
    <glyph glyph-name="obreve" unicode="&#x14f;" 
d="M41 0zM319 382q0 -106 -9.5 -180.5t-27 -122t-43 -69t-57.5 -21.5t-57.5 21.5t-43 69t-27 122t-9.5 180.5q0 211 36 309t101 98q64 0 100.5 -98t36.5 -309zM109 382q0 -157 18 -244t55 -87t55 87t18 244q0 78 -4.5 141.5t-13.5 108.5t-23 69.5t-32 24.5t-32 -24.5
t-23 -69.5t-13.5 -108.5t-4.5 -141.5zM323 968q-6 -77 -37.5 -120t-102.5 -43t-103 43t-39 120h61q7 -62 23 -93t58 -31q21 0 34.5 8t22.5 23.5t14.5 38.5t9.5 54h59z" />
    <glyph glyph-name="Ohungarumlaut" unicode="&#x150;" 
d="M42 0zM319 382q0 -106 -9.5 -180.5t-27 -122t-43 -69t-57.5 -21.5t-57.5 21.5t-43 69t-27 122t-9.5 180.5q0 211 36 309t101 98q64 0 100.5 -98t36.5 -309zM109 382q0 -157 18 -244t55 -87t55 87t18 244q0 78 -4.5 141.5t-13.5 108.5t-23 69.5t-32 24.5t-32 -24.5
t-23 -69.5t-13.5 -108.5t-4.5 -141.5zM199 805l112 163h70l-117 -163h-65zM42 805l112 163h70l-117 -163h-65z" />
    <glyph glyph-name="ohungarumlaut" unicode="&#x151;" 
d="M42 0zM319 382q0 -106 -9.5 -180.5t-27 -122t-43 -69t-57.5 -21.5t-57.5 21.5t-43 69t-27 122t-9.5 180.5q0 211 36 309t101 98q64 0 100.5 -98t36.5 -309zM109 382q0 -157 18 -244t55 -87t55 87t18 244q0 78 -4.5 141.5t-13.5 108.5t-23 69.5t-32 24.5t-32 -24.5
t-23 -69.5t-13.5 -108.5t-4.5 -141.5zM199 805l112 163h70l-117 -163h-65zM42 805l112 163h70l-117 -163h-65z" />
    <glyph glyph-name="OE" unicode="&#x152;" horiz-adv-x="473" 
d="M255 0v28q-16 -20 -34 -29t-39 -9q-32 0 -57.5 21.5t-43 69t-27 122t-9.5 180.5q0 211 36 309t101 98q42 0 73 -43v32h161v-63h-97v-473h95v-48h-95v-135h106v-60h-170zM109 383q0 -157 18 -244t55 -87t55 87t18 244q0 78 -4.5 141.5t-13.5 108.5t-23 69.5t-32 24.5
t-32 -24.5t-23 -69.5t-13.5 -108.5t-4.5 -141.5z" />
    <glyph glyph-name="oe" unicode="&#x153;" horiz-adv-x="473" 
d="M45 0zM255 0v28q-16 -20 -34 -29t-39 -9q-32 0 -57.5 21.5t-43 69t-27 122t-9.5 180.5q0 211 36 309t101 98q42 0 73 -43v32h161v-63h-97v-473h95v-48h-95v-135h106v-60h-170zM109 383q0 -157 18 -244t55 -87t55 87t18 244q0 78 -4.5 141.5t-13.5 108.5t-23 69.5
t-32 24.5t-32 -24.5t-23 -69.5t-13.5 -108.5t-4.5 -141.5z" />
    <glyph glyph-name="Racute" unicode="&#x154;" horiz-adv-x="383" 
d="M69 0zM132 0h-63v785q67 -2 113 -26t74 -63.5t40.5 -91.5t12.5 -110q0 -96 -34 -160t-99 -112q26 -39 54.5 -74t57 -64t55.5 -50.5t50 -33.5h-105q-17 10 -36.5 30t-40 46.5t-41 57t-37.5 61.5q0 -1 -1 -1v-194zM132 252q58 42 86 96.5t28 135.5q0 40 -6.5 79t-20.5 70.5
t-35.5 53.5t-51.5 30v-465zM110 805l112 163h70l-117 -163h-65z" />
    <glyph glyph-name="racute" unicode="&#x155;" horiz-adv-x="383" 
d="M69 0zM132 0h-63v785q67 -2 113 -26t74 -63.5t40.5 -91.5t12.5 -110q0 -96 -34 -160t-99 -112q26 -39 54.5 -74t57 -64t55.5 -50.5t50 -33.5h-105q-17 10 -36.5 30t-40 46.5t-41 57t-37.5 61.5q0 -1 -1 -1v-194zM132 252q58 42 86 96.5t28 135.5q0 40 -6.5 79t-20.5 70.5
t-35.5 53.5t-51.5 30v-465zM110 805l112 163h70l-117 -163h-65z" />
    <glyph glyph-name="Rcommaaccent" unicode="&#x156;" horiz-adv-x="383" 
d="M69 0zM132 0h-63v785q67 -2 113 -26t74 -63.5t40.5 -91.5t12.5 -110q0 -96 -34 -160t-99 -112q26 -39 54.5 -74t57 -64t55.5 -50.5t50 -33.5h-105q-17 10 -36.5 30t-40 46.5t-41 57t-37.5 61.5q0 -1 -1 -1v-194zM132 252q58 42 86 96.5t28 135.5q0 40 -6.5 79t-20.5 70.5
t-35.5 53.5t-51.5 30v-465zM203 -130q-45 0 -45 52t42 52q44 0 44 -52q0 -16 -4 -37t-11 -42.5t-15 -41.5t-16 -33h-40q9 12 21 39t24 63z" />
    <glyph glyph-name="rcommaaccent" unicode="&#x157;" horiz-adv-x="383" 
d="M69 0zM132 0h-63v785q67 -2 113 -26t74 -63.5t40.5 -91.5t12.5 -110q0 -96 -34 -160t-99 -112q26 -39 54.5 -74t57 -64t55.5 -50.5t50 -33.5h-105q-17 10 -36.5 30t-40 46.5t-41 57t-37.5 61.5q0 -1 -1 -1v-194zM132 252q58 42 86 96.5t28 135.5q0 40 -6.5 79t-20.5 70.5
t-35.5 53.5t-51.5 30v-465zM203 -130q-45 0 -45 52t42 52q44 0 44 -52q0 -16 -4 -37t-11 -42.5t-15 -41.5t-16 -33h-40q9 12 21 39t24 63z" />
    <glyph glyph-name="Rcaron" unicode="&#x158;" horiz-adv-x="383" 
d="M19 0zM132 0h-63v785q67 -2 113 -26t74 -63.5t40.5 -91.5t12.5 -110q0 -96 -34 -160t-99 -112q26 -39 54.5 -74t57 -64t55.5 -50.5t50 -33.5h-105q-17 10 -36.5 30t-40 46.5t-41 57t-37.5 61.5q0 -1 -1 -1v-194zM132 252q58 42 86 96.5t28 135.5q0 40 -6.5 79t-20.5 70.5
t-35.5 53.5t-51.5 30v-465zM252 968h72l-153 -163l-152 163h72l80 -88z" />
    <glyph glyph-name="rcaron" unicode="&#x159;" horiz-adv-x="383" 
d="M19 0zM132 0h-63v785q67 -2 113 -26t74 -63.5t40.5 -91.5t12.5 -110q0 -96 -34 -160t-99 -112q26 -39 54.5 -74t57 -64t55.5 -50.5t50 -33.5h-105q-17 10 -36.5 30t-40 46.5t-41 57t-37.5 61.5q0 -1 -1 -1v-194zM132 252q58 42 86 96.5t28 135.5q0 40 -6.5 79t-20.5 70.5
t-35.5 53.5t-51.5 30v-465zM252 968h72l-153 -163l-152 163h72l80 -88z" />
    <glyph glyph-name="Sacute" unicode="&#x15a;" horiz-adv-x="315" 
d="M43 0zM53 69q7 -6 18.5 -11.5t29.5 -5.5q55 0 80.5 35t25.5 108q0 29 -8 56.5t-21 53.5q-20 38 -44 73t-45 70q-20 34 -33 72.5t-13 84.5q0 86 37 135.5t102 49.5q23 0 35.5 -5.5t19.5 -10.5v-64q-5 7 -18 12t-28 5q-41 0 -63 -30.5t-22 -98.5q0 -30 9 -58t23 -54
q17 -31 38.5 -61t41.5 -62q23 -38 38.5 -78t15.5 -90q0 -98 -42 -151.5t-119 -53.5q-23 0 -37 4.5t-21 10.5v64zM116 805l112 163h70l-117 -163h-65z" />
    <glyph glyph-name="sacute" unicode="&#x15b;" horiz-adv-x="315" 
d="M43 0zM53 69q7 -6 18.5 -11.5t29.5 -5.5q55 0 80.5 35t25.5 108q0 29 -8 56.5t-21 53.5q-20 38 -44 73t-45 70q-20 34 -33 72.5t-13 84.5q0 86 37 135.5t102 49.5q23 0 35.5 -5.5t19.5 -10.5v-64q-5 7 -18 12t-28 5q-41 0 -63 -30.5t-22 -98.5q0 -30 9 -58t23 -54
q17 -31 38.5 -61t41.5 -62q23 -38 38.5 -78t15.5 -90q0 -98 -42 -151.5t-119 -53.5q-23 0 -37 4.5t-21 10.5v64zM116 805l112 163h70l-117 -163h-65z" />
    <glyph glyph-name="Scedilla" unicode="&#x15e;" horiz-adv-x="315" 
d="M43 0zM53 69q7 -6 18.5 -11.5t29.5 -5.5q55 0 80.5 35t25.5 108q0 29 -8 56.5t-21 53.5q-20 38 -44 73t-45 70q-20 34 -33 72.5t-13 84.5q0 86 37 135.5t102 49.5q23 0 35.5 -5.5t19.5 -10.5v-64q-5 7 -18 12t-28 5q-41 0 -63 -30.5t-22 -98.5q0 -30 9 -58t23 -54
q17 -31 38.5 -61t41.5 -62q23 -38 38.5 -78t15.5 -90q0 -98 -42 -151.5t-119 -53.5q-23 0 -37 4.5t-21 10.5v64zM139 -130q-45 0 -45 52t42 52q44 0 44 -52q0 -16 -4 -37t-11 -42.5t-15 -41.5t-16 -33h-40q9 12 21 39t24 63z" />
    <glyph glyph-name="scedilla" unicode="&#x15f;" horiz-adv-x="315" 
d="M43 0zM53 69q7 -6 18.5 -11.5t29.5 -5.5q55 0 80.5 35t25.5 108q0 29 -8 56.5t-21 53.5q-20 38 -44 73t-45 70q-20 34 -33 72.5t-13 84.5q0 86 37 135.5t102 49.5q23 0 35.5 -5.5t19.5 -10.5v-64q-5 7 -18 12t-28 5q-41 0 -63 -30.5t-22 -98.5q0 -30 9 -58t23 -54
q17 -31 38.5 -61t41.5 -62q23 -38 38.5 -78t15.5 -90q0 -98 -42 -151.5t-119 -53.5q-23 0 -37 4.5t-21 10.5v64zM139 -130q-45 0 -45 52t42 52q44 0 44 -52q0 -16 -4 -37t-11 -42.5t-15 -41.5t-16 -33h-40q9 12 21 39t24 63z" />
    <glyph glyph-name="Scaron" unicode="&#x160;" horiz-adv-x="315" 
d="M7 0zM53 69q7 -6 18.5 -11.5t29.5 -5.5q55 0 80.5 35t25.5 108q0 29 -8 56.5t-21 53.5q-20 38 -44 73t-45 70q-20 34 -33 72.5t-13 84.5q0 86 37 135.5t102 49.5q23 0 35.5 -5.5t19.5 -10.5v-64q-5 7 -18 12t-28 5q-41 0 -63 -30.5t-22 -98.5q0 -30 9 -58t23 -54
q17 -31 38.5 -61t41.5 -62q23 -38 38.5 -78t15.5 -90q0 -98 -42 -151.5t-119 -53.5q-23 0 -37 4.5t-21 10.5v64zM240 968h72l-153 -163l-152 163h72l80 -88z" />
    <glyph glyph-name="scaron" unicode="&#x161;" horiz-adv-x="315" 
d="M7 0zM53 69q7 -6 18.5 -11.5t29.5 -5.5q55 0 80.5 35t25.5 108q0 29 -8 56.5t-21 53.5q-20 38 -44 73t-45 70q-20 34 -33 72.5t-13 84.5q0 86 37 135.5t102 49.5q23 0 35.5 -5.5t19.5 -10.5v-64q-5 7 -18 12t-28 5q-41 0 -63 -30.5t-22 -98.5q0 -30 9 -58t23 -54
q17 -31 38.5 -61t41.5 -62q23 -38 38.5 -78t15.5 -90q0 -98 -42 -151.5t-119 -53.5q-23 0 -37 4.5t-21 10.5v64zM240 968h72l-153 -163l-152 163h72l80 -88z" />
    <glyph glyph-name="Tcedilla" unicode="&#x162;" horiz-adv-x="267" 
d="M20 0zM103 0v716h-83v63h227v-63h-81v-716h-63zM135 -130q-45 0 -45 52t42 52q44 0 44 -52q0 -16 -4 -37t-11 -42.5t-15 -41.5t-16 -33h-40q9 12 21 39t24 63z" />
    <glyph glyph-name="tcedilla" unicode="&#x163;" horiz-adv-x="267" 
d="M20 0zM103 0v716h-83v63h227v-63h-81v-716h-63zM135 -130q-45 0 -45 52t42 52q44 0 44 -52q0 -16 -4 -37t-11 -42.5t-15 -41.5t-16 -33h-40q9 12 21 39t24 63z" />
    <glyph glyph-name="Tcaron" unicode="&#x164;" horiz-adv-x="267" 
d="M0 0zM103 0v716h-83v63h227v-63h-81v-716h-63zM214 968h72l-153 -163l-152 163h72l80 -88z" />
    <glyph glyph-name="tcaron" unicode="&#x165;" horiz-adv-x="267" 
d="M0 0zM103 0v716h-83v63h227v-63h-81v-716h-63zM214 968h72l-153 -163l-152 163h72l80 -88z" />
    <glyph glyph-name="Tbar" unicode="&#x166;" horiz-adv-x="267" 
d="M103 0v321h-77v49h77v346h-83v63h227v-63h-81v-346h74v-49h-74v-321h-63z" />
    <glyph glyph-name="tbar" unicode="&#x167;" horiz-adv-x="267" 
d="M20 0zM103 0v321h-77v49h77v346h-83v63h227v-63h-81v-346h74v-49h-74v-321h-63z" />
    <glyph glyph-name="Utilde" unicode="&#x168;" horiz-adv-x="404" 
d="M65 0zM202 -10q-38 0 -64 18t-42 52.5t-23 84t-7 111.5v523h65v-526q0 -101 15.5 -150t55.5 -49q41 0 56 49t15 150v526h65v-523q0 -62 -7 -111.5t-22.5 -84t-41.5 -52.5t-65 -18zM339 863q-27 -29 -71 -29q-18 0 -34 6t-32 13.5t-32.5 13.5t-34.5 6q-23 0 -39.5 -9
t-30.5 -28v57q30 30 72 30q18 0 34 -6t32 -13.5t32.5 -13.5t34.5 -6q23 0 39 9t30 27v-57z" />
    <glyph glyph-name="utilde" unicode="&#x169;" horiz-adv-x="404" 
d="M65 0zM202 -10q-38 0 -64 18t-42 52.5t-23 84t-7 111.5v523h65v-526q0 -101 15.5 -150t55.5 -49q41 0 56 49t15 150v526h65v-523q0 -62 -7 -111.5t-22.5 -84t-41.5 -52.5t-65 -18zM339 863q-27 -29 -71 -29q-18 0 -34 6t-32 13.5t-32.5 13.5t-34.5 6q-23 0 -39.5 -9
t-30.5 -28v57q30 30 72 30q18 0 34 -6t32 -13.5t32.5 -13.5t34.5 -6q23 0 39 9t30 27v-57z" />
    <glyph glyph-name="Umacron" unicode="&#x16a;" horiz-adv-x="404" 
d="M65 0zM202 -10q-38 0 -64 18t-42 52.5t-23 84t-7 111.5v523h65v-526q0 -101 15.5 -150t55.5 -49q41 0 56 49t15 150v526h65v-523q0 -62 -7 -111.5t-22.5 -84t-41.5 -52.5t-65 -18zM65 852v49h274v-49h-274z" />
    <glyph glyph-name="umacron" unicode="&#x16b;" horiz-adv-x="404" 
d="M65 0zM202 -10q-38 0 -64 18t-42 52.5t-23 84t-7 111.5v523h65v-526q0 -101 15.5 -150t55.5 -49q41 0 56 49t15 150v526h65v-523q0 -62 -7 -111.5t-22.5 -84t-41.5 -52.5t-65 -18zM65 852v49h274v-49h-274z" />
    <glyph glyph-name="Ubreve" unicode="&#x16c;" horiz-adv-x="404" 
d="M61 0zM202 -10q-38 0 -64 18t-42 52.5t-23 84t-7 111.5v523h65v-526q0 -101 15.5 -150t55.5 -49q41 0 56 49t15 150v526h65v-523q0 -62 -7 -111.5t-22.5 -84t-41.5 -52.5t-65 -18zM343 968q-6 -77 -37.5 -120t-102.5 -43t-103 43t-39 120h61q7 -62 23 -93t58 -31
q21 0 34.5 8t22.5 23.5t14.5 38.5t9.5 54h59z" />
    <glyph glyph-name="ubreve" unicode="&#x16d;" horiz-adv-x="404" 
d="M61 0zM202 -10q-38 0 -64 18t-42 52.5t-23 84t-7 111.5v523h65v-526q0 -101 15.5 -150t55.5 -49q41 0 56 49t15 150v526h65v-523q0 -62 -7 -111.5t-22.5 -84t-41.5 -52.5t-65 -18zM343 968q-6 -77 -37.5 -120t-102.5 -43t-103 43t-39 120h61q7 -62 23 -93t58 -31
q21 0 34.5 8t22.5 23.5t14.5 38.5t9.5 54h59z" />
    <glyph glyph-name="Uring" unicode="&#x16e;" horiz-adv-x="404" 
d="M66 0zM202 -10q-38 0 -64 18t-42 52.5t-23 84t-7 111.5v523h65v-526q0 -101 15.5 -150t55.5 -49q41 0 56 49t15 150v526h65v-523q0 -62 -7 -111.5t-22.5 -84t-41.5 -52.5t-65 -18zM202 783q-26 0 -43.5 8.5t-28.5 22t-15.5 29.5t-4.5 32q0 15 4.5 31.5t15.5 30t28.5 22.5
t43.5 9t43.5 -9t28 -22.5t15 -30t4.5 -31.5q0 -16 -4.5 -32t-15 -29.5t-28 -22t-43.5 -8.5zM202 817q20 0 31.5 18.5t11.5 39.5q0 20 -11.5 39t-31.5 19t-31.5 -19t-11.5 -39q0 -21 11.5 -39.5t31.5 -18.5z" />
    <glyph glyph-name="uring" unicode="&#x16f;" horiz-adv-x="404" 
d="M66 0zM202 -10q-38 0 -64 18t-42 52.5t-23 84t-7 111.5v523h65v-526q0 -101 15.5 -150t55.5 -49q41 0 56 49t15 150v526h65v-523q0 -62 -7 -111.5t-22.5 -84t-41.5 -52.5t-65 -18zM202 783q-26 0 -43.5 8.5t-28.5 22t-15.5 29.5t-4.5 32q0 15 4.5 31.5t15.5 30t28.5 22.5
t43.5 9t43.5 -9t28 -22.5t15 -30t4.5 -31.5q0 -16 -4.5 -32t-15 -29.5t-28 -22t-43.5 -8.5zM202 817q20 0 31.5 18.5t11.5 39.5q0 20 -11.5 39t-31.5 19t-31.5 -19t-11.5 -39q0 -21 11.5 -39.5t31.5 -18.5z" />
    <glyph glyph-name="Uhungarumlaut" unicode="&#x170;" horiz-adv-x="404" 
d="M62 0zM202 -10q-38 0 -64 18t-42 52.5t-23 84t-7 111.5v523h65v-526q0 -101 15.5 -150t55.5 -49q41 0 56 49t15 150v526h65v-523q0 -62 -7 -111.5t-22.5 -84t-41.5 -52.5t-65 -18zM219 805l112 163h70l-117 -163h-65zM62 805l112 163h70l-117 -163h-65z" />
    <glyph glyph-name="uhungarumlaut" unicode="&#x171;" horiz-adv-x="404" 
d="M62 0zM202 -10q-38 0 -64 18t-42 52.5t-23 84t-7 111.5v523h65v-526q0 -101 15.5 -150t55.5 -49q41 0 56 49t15 150v526h65v-523q0 -62 -7 -111.5t-22.5 -84t-41.5 -52.5t-65 -18zM219 805l112 163h70l-117 -163h-65zM62 805l112 163h70l-117 -163h-65z" />
    <glyph glyph-name="Uogonek" unicode="&#x172;" horiz-adv-x="404" 
d="M285 -216q-9 -7 -31 -11.5t-50 -4.5q-54 0 -90 23.5t-36 76.5q0 50 27.5 80.5t65.5 45.5q-59 14 -82 82t-23 180v523h65v-526q0 -101 15.5 -150t55.5 -49q41 0 56 49t15 150v526h65v-523q0 -114 -23 -180.5t-86 -82.5q-48 -12 -72.5 -39t-24.5 -64q0 -32 18 -45.5
t57 -13.5q28 0 46 3.5t32 10.5v-61z" />
    <glyph glyph-name="uogonek" unicode="&#x173;" horiz-adv-x="404" 
d="M66 0zM285 -216q-9 -7 -31 -11.5t-50 -4.5q-54 0 -90 23.5t-36 76.5q0 50 27.5 80.5t65.5 45.5q-59 14 -82 82t-23 180v523h65v-526q0 -101 15.5 -150t55.5 -49q41 0 56 49t15 150v526h65v-523q0 -114 -23 -180.5t-86 -82.5q-48 -12 -72.5 -39t-24.5 -64q0 -32 18 -45.5
t57 -13.5q28 0 46 3.5t32 10.5v-61z" />
    <glyph glyph-name="Wcircumflex" unicode="&#x174;" horiz-adv-x="602" 
d="M28 0zM302 512h-4l-119 -548l-151 815h68l85 -518h4l116 554l110 -554h4l96 518h63l-163 -815zM220 805h-72l153 163l152 -163h-72l-80 88z" />
    <glyph glyph-name="wcircumflex" unicode="&#x175;" horiz-adv-x="602" 
d="M28 0zM302 512h-4l-119 -548l-151 815h68l85 -518h4l116 554l110 -554h4l96 518h63l-163 -815zM220 805h-72l153 163l152 -163h-72l-80 88z" />
    <glyph glyph-name="Ycircumflex" unicode="&#x176;" horiz-adv-x="374" 
d="M24 0zM156 0v345l-132 434h65l100 -346h4l99 346h58l-130 -434v-345h-64zM107 805h-72l153 163l152 -163h-72l-80 88z" />
    <glyph glyph-name="ycircumflex" unicode="&#x177;" horiz-adv-x="374" 
d="M24 0zM156 0v345l-132 434h65l100 -346h4l99 346h58l-130 -434v-345h-64zM107 805h-72l153 163l152 -163h-72l-80 88z" />
    <glyph glyph-name="Ydieresis" unicode="&#x178;" horiz-adv-x="374" 
d="M24 0zM156 0v345l-132 434h65l100 -346h4l99 346h58l-130 -434v-345h-64zM265 829q-38 0 -38 46t38 46t38 -46t-38 -46zM107 829q-37 0 -37 46t37 46q38 0 38 -46t-38 -46z" />
    <glyph glyph-name="Zacute" unicode="&#x179;" horiz-adv-x="307" 
d="M43 0zM43 0l148 716h-148v63h221l-140 -719h140v-60h-221zM98 805l112 163h70l-117 -163h-65z" />
    <glyph glyph-name="zacute" unicode="&#x17a;" horiz-adv-x="307" 
d="M43 0zM43 0l148 716h-148v63h221l-140 -719h140v-60h-221zM98 805l112 163h70l-117 -163h-65z" />
    <glyph glyph-name="Zdotaccent" unicode="&#x17b;" horiz-adv-x="307" 
d="M43 0zM43 0l148 716h-148v63h221l-140 -719h140v-60h-221zM158 829q-37 0 -37 46t37 46q39 0 39 -46t-39 -46z" />
    <glyph glyph-name="zdotaccent" unicode="&#x17c;" horiz-adv-x="307" 
d="M43 0zM43 0l148 716h-148v63h221l-140 -719h140v-60h-221zM158 829q-37 0 -37 46t37 46q39 0 39 -46t-39 -46z" />
    <glyph glyph-name="Zcaron" unicode="&#x17d;" horiz-adv-x="307" 
d="M11 0zM43 0l148 716h-148v63h221l-140 -719h140v-60h-221zM244 968h72l-153 -163l-152 163h72l80 -88z" />
    <glyph glyph-name="zcaron" unicode="&#x17e;" horiz-adv-x="307" 
d="M11 0zM43 0l148 716h-148v63h221l-140 -719h140v-60h-221zM244 968h72l-153 -163l-152 163h72l80 -88z" />
    <glyph glyph-name="florin" unicode="&#x192;" horiz-adv-x="381" 
d="M25 -78v57h24q35 0 56 17.5t25 61.5l49 486h-79v53h86l5 55q3 38 13.5 62.5t28 38.5t42 19.5t56.5 5.5h25v-57h-29q-33 0 -53 -16.5t-23 -54.5l-5 -53h86v-53h-92l-49 -495q-4 -38 -14.5 -63t-28 -39t-42 -19.5t-55.5 -5.5h-26z" />
    <glyph glyph-name="Scommaaccent" unicode="&#x218;" horiz-adv-x="315" 
d="M43 0zM53 69q7 -6 18.5 -11.5t29.5 -5.5q55 0 80.5 35t25.5 108q0 29 -8 56.5t-21 53.5q-20 38 -44 73t-45 70q-20 34 -33 72.5t-13 84.5q0 86 37 135.5t102 49.5q23 0 35.5 -5.5t19.5 -10.5v-64q-5 7 -18 12t-28 5q-41 0 -63 -30.5t-22 -98.5q0 -30 9 -58t23 -54
q17 -31 38.5 -61t41.5 -62q23 -38 38.5 -78t15.5 -90q0 -98 -42 -151.5t-119 -53.5q-23 0 -37 4.5t-21 10.5v64zM139 -130q-45 0 -45 52t42 52q44 0 44 -52q0 -16 -4 -37t-11 -42.5t-15 -41.5t-16 -33h-40q9 12 21 39t24 63z" />
    <glyph glyph-name="scommaaccent" unicode="&#x219;" horiz-adv-x="315" 
d="M43 0zM53 69q7 -6 18.5 -11.5t29.5 -5.5q55 0 80.5 35t25.5 108q0 29 -8 56.5t-21 53.5q-20 38 -44 73t-45 70q-20 34 -33 72.5t-13 84.5q0 86 37 135.5t102 49.5q23 0 35.5 -5.5t19.5 -10.5v-64q-5 7 -18 12t-28 5q-41 0 -63 -30.5t-22 -98.5q0 -30 9 -58t23 -54
q17 -31 38.5 -61t41.5 -62q23 -38 38.5 -78t15.5 -90q0 -98 -42 -151.5t-119 -53.5q-23 0 -37 4.5t-21 10.5v64zM139 -130q-45 0 -45 52t42 52q44 0 44 -52q0 -16 -4 -37t-11 -42.5t-15 -41.5t-16 -33h-40q9 12 21 39t24 63z" />
    <glyph glyph-name="uni021A" unicode="&#x21a;" horiz-adv-x="267" 
d="M20 0zM103 0v716h-83v63h227v-63h-81v-716h-63zM135 -130q-45 0 -45 52t42 52q44 0 44 -52q0 -16 -4 -37t-11 -42.5t-15 -41.5t-16 -33h-40q9 12 21 39t24 63z" />
    <glyph glyph-name="uni021B" unicode="&#x21b;" horiz-adv-x="267" 
d="M20 0zM103 0v716h-83v63h227v-63h-81v-716h-63zM135 -130q-45 0 -45 52t42 52q44 0 44 -52q0 -16 -4 -37t-11 -42.5t-15 -41.5t-16 -33h-40q9 12 21 39t24 63z" />
    <glyph glyph-name="circumflex" unicode="&#x2c6;" horiz-adv-x="378" 
d="M108 805h-72l153 163l152 -163h-72l-80 88z" />
    <glyph glyph-name="caron" unicode="&#x2c7;" horiz-adv-x="378" 
d="M269 968h72l-153 -163l-152 163h72l80 -88z" />
    <glyph glyph-name="breve" unicode="&#x2d8;" horiz-adv-x="355" 
d="M318 968q-6 -77 -37.5 -120t-102.5 -43t-103 43t-39 120h61q7 -62 23 -93t58 -31q21 0 34.5 8t22.5 23.5t14.5 38.5t9.5 54h59z" />
    <glyph glyph-name="dotaccent" unicode="&#x2d9;" horiz-adv-x="109" 
d="M53 829q-37 0 -37 46t37 46q39 0 39 -46t-39 -46z" />
    <glyph glyph-name="ring" unicode="&#x2da;" horiz-adv-x="216" 
d="M108 783q-26 0 -43.5 8.5t-28.5 22t-15.5 29.5t-4.5 32q0 15 4.5 31.5t15.5 30t28.5 22.5t43.5 9t43.5 -9t28 -22.5t15 -30t4.5 -31.5q0 -16 -4.5 -32t-15 -29.5t-28 -22t-43.5 -8.5zM108 817q20 0 31.5 18.5t11.5 39.5q0 20 -11.5 39t-31.5 19t-31.5 -19t-11.5 -39
q0 -21 11.5 -39.5t31.5 -18.5z" />
    <glyph glyph-name="ogonek" unicode="&#x2db;" horiz-adv-x="240" 
d="M223 -216q-9 -7 -31 -11.5t-50 -4.5q-54 0 -90 23.5t-36 76.5q0 33 13 56.5t33.5 39t46 24.5t50.5 12h64q-73 -14 -113 -38.5t-40 -71.5q0 -32 18 -45.5t57 -13.5q28 0 46 3.5t32 10.5v-61z" />
    <glyph glyph-name="tilde" unicode="&#x2dc;" horiz-adv-x="307" 
d="M290 863q-27 -29 -71 -29q-18 0 -34 6t-32 13.5t-32.5 13.5t-34.5 6q-23 0 -39.5 -9t-30.5 -28v57q30 30 72 30q18 0 34 -6t32 -13.5t32.5 -13.5t34.5 -6q23 0 39 9t30 27v-57z" />
    <glyph glyph-name="hungarumlaut" unicode="&#x2dd;" horiz-adv-x="372" 
d="M173 805l112 163h70l-117 -163h-65zM16 805l112 163h70l-117 -163h-65z" />
    <glyph glyph-name="Delta" unicode="&#x394;" horiz-adv-x="361" 
d="M28 0l156 815l149 -815h-305zM100 60h158l-76 445h-4z" />
    <glyph glyph-name="Omega" unicode="&#x3a9;" horiz-adv-x="420" 
d="M239 0v67q21 25 34.5 64t20.5 87t9.5 104t2.5 116q0 140 -21.5 214.5t-74.5 74.5q-54 0 -75.5 -74t-21.5 -215q0 -60 2.5 -116t9.5 -104t20.5 -87t35.5 -64v-67h-126v60h84q-22 19 -39.5 59.5t-29.5 92.5t-18.5 111t-6.5 116q0 73 9 137.5t29 111.5t51 74.5t76 27.5
t76.5 -27.5t51 -74.5t28.5 -111.5t9 -137.5q0 -57 -6.5 -116t-19 -111t-30 -92.5t-39.5 -59.5h84v-60h-125z" />
    <glyph glyph-name="mu" unicode="&#x3bc;" horiz-adv-x="441" 
d="M315 0v56q-5 -13 -12.5 -25t-19.5 -21t-29 -14t-41 -5q-23 0 -46.5 9.5t-35.5 28.5v-228h-62v771h62v-413q0 -32 7.5 -52.5t19.5 -32.5t27.5 -17t32.5 -5q33 0 55.5 19.5t37.5 78.5v422h61v-572h-57z" />
    <glyph glyph-name="pi" unicode="&#x3c0;" horiz-adv-x="467" 
d="M380 0q-23 17 -43.5 37.5t-35.5 47.5t-24 60.5t-9 75.5v288h-137v-509h-62v572h261v-344q0 -77 37 -130t118 -98h-105z" />
    <glyph glyph-name="Wgrave" unicode="&#x1e80;" horiz-adv-x="602" 
d="M303 805l108 -544h4l96 518h63l-163 -815l-109 548h-4l-119 -548l-151 815h68l85 -518h4l114 544h-26l-117 163h70l112 -163h-35z" />
    <glyph glyph-name="wgrave" unicode="&#x1e81;" horiz-adv-x="602" 
d="M28 0zM303 805l108 -544h4l96 518h63l-163 -815l-109 548h-4l-119 -548l-151 815h68l85 -518h4l114 544h-26l-117 163h70l112 -163h-35z" />
    <glyph glyph-name="Wacute" unicode="&#x1e82;" horiz-adv-x="602" 
d="M303 805l108 -544h4l96 518h63l-163 -815l-109 548h-4l-119 -548l-151 815h68l85 -518h4l114 544h-38l112 163h70l-117 -163h-23z" />
    <glyph glyph-name="wacute" unicode="&#x1e83;" horiz-adv-x="602" 
d="M28 0zM303 805l108 -544h4l96 518h63l-163 -815l-109 548h-4l-119 -548l-151 815h68l85 -518h4l114 544h-38l112 163h70l-117 -163h-23z" />
    <glyph glyph-name="Wdieresis" unicode="&#x1e84;" horiz-adv-x="602" 
d="M28 0zM302 512h-4l-119 -548l-151 815h68l85 -518h4l116 554l110 -554h4l96 518h63l-163 -815zM379 829q-38 0 -38 46t38 46t38 -46t-38 -46zM221 829q-37 0 -37 46t37 46q38 0 38 -46t-38 -46z" />
    <glyph glyph-name="wdieresis" unicode="&#x1e85;" horiz-adv-x="602" 
d="M28 0zM302 512h-4l-119 -548l-151 815h68l85 -518h4l116 554l110 -554h4l96 518h63l-163 -815zM379 829q-38 0 -38 46t38 46t38 -46t-38 -46zM221 829q-37 0 -37 46t37 46q38 0 38 -46t-38 -46z" />
    <glyph glyph-name="Ygrave" unicode="&#x1ef2;" horiz-adv-x="374" 
d="M24 0zM156 0v345l-132 434h65l100 -346h4l99 346h58l-130 -434v-345h-64zM183 805l-117 163h70l112 -163h-65z" />
    <glyph glyph-name="ygrave" unicode="&#x1ef3;" horiz-adv-x="374" 
d="M24 0zM156 0v345l-132 434h65l100 -346h4l99 346h58l-130 -434v-345h-64zM183 805l-117 163h70l112 -163h-65z" />
    <glyph glyph-name="endash" unicode="&#x2013;" horiz-adv-x="312" 
d="M16 195v48h279v-48h-279z" />
    <glyph glyph-name="emdash" unicode="&#x2014;" horiz-adv-x="467" 
d="M0 195v48h468v-48h-468z" />
    <glyph glyph-name="quoteleft" unicode="&#x2018;" horiz-adv-x="137" 
d="M67 699q45 0 45 -51q0 -53 -43 -53q-44 0 -44 53q0 15 4 36t11 42.5t15 41.5t16 33h41q-10 -12 -21.5 -39t-23.5 -63z" />
    <glyph glyph-name="quoteright" unicode="&#x2019;" horiz-adv-x="137" 
d="M70 687q-45 0 -45 52t43 52q44 0 44 -52q0 -16 -4 -37t-11 -42.5t-15 -41.5t-16 -33h-41q10 13 21.5 39.5t23.5 62.5z" />
    <glyph glyph-name="quotesinglbase" unicode="&#x201a;" horiz-adv-x="137" 
d="M70 -9q-23 0 -34 12t-11 39q0 52 43 52q44 0 44 -52q0 -16 -4 -37t-11 -42.5t-15 -41.5t-16 -33h-41q10 13 21.5 39.5t23.5 63.5z" />
    <glyph glyph-name="quotedblleft" unicode="&#x201c;" horiz-adv-x="254" 
d="M25 595zM67 699q45 0 45 -51q0 -53 -43 -53q-44 0 -44 53q0 15 4 36t11 42.5t15 41.5t16 33h41q-10 -12 -21.5 -39t-23.5 -63zM184 699q45 0 45 -51q0 -53 -43 -53q-44 0 -44 53q0 15 4 36t11 42.5t15 41.5t16 33h41q-10 -12 -21.5 -39t-23.5 -63z" />
    <glyph glyph-name="quotedblright" unicode="&#x201d;" horiz-adv-x="254" 
d="M25 585zM70 687q-45 0 -45 52t43 52q44 0 44 -52q0 -16 -4 -37t-11 -42.5t-15 -41.5t-16 -33h-41q10 13 21.5 39.5t23.5 62.5zM187 687q-45 0 -45 52t43 52q44 0 44 -52q0 -16 -4 -37t-11 -42.5t-15 -41.5t-16 -33h-41q10 13 21.5 39.5t23.5 62.5z" />
    <glyph glyph-name="quotedblbase" unicode="&#x201e;" horiz-adv-x="254" 
d="M25 0zM70 -9q-23 0 -34 12t-11 39q0 52 43 52q44 0 44 -52q0 -16 -4 -37t-11 -42.5t-15 -41.5t-16 -33h-41q10 13 21.5 39.5t23.5 63.5zM187 -9q-23 0 -34 12t-11 39q0 52 43 52q44 0 44 -52q0 -16 -4 -37t-11 -42.5t-15 -41.5t-16 -33h-41q10 13 21.5 39.5t23.5 63.5z
" />
    <glyph glyph-name="dagger" unicode="&#x2020;" horiz-adv-x="328" 
d="M191 599v-74q0 -153 -9 -284.5t-18 -252.5q-11 121 -19.5 252.5t-8.5 284.5v74h-96v28l96 16v136h55v-136l96 -16v-28h-96z" />
    <glyph glyph-name="daggerdbl" unicode="&#x2021;" horiz-adv-x="328" 
d="M136 0v132l-96 18v27h96v53q0 44 3.5 83t8.5 76q-5 37 -8.5 76.5t-3.5 83.5v53h-96v27l96 18v132h55v-132l96 -18v-27h-96v-53q0 -44 -3.5 -83.5t-9.5 -76.5q6 -37 9.5 -76t3.5 -83v-53h96v-27l-96 -18v-132h-55z" />
    <glyph glyph-name="bullet" unicode="&#x2022;" horiz-adv-x="302" 
d="M262 373q0 -23 -9 -43t-24 -34.5t-35 -23t-43 -8.5q-24 0 -44.5 8.5t-35 23t-23 34.5t-8.5 43q0 51 31.5 81t79.5 30q46 0 78.5 -30t32.5 -81z" />
    <glyph glyph-name="ellipsis" unicode="&#x2026;" horiz-adv-x="514" 
d="M39 0zM82 -9q-21 0 -32 12t-11 39q0 52 43 52q44 0 44 -52q0 -27 -11 -39t-33 -12zM256 -9q-21 0 -32 12t-11 39q0 52 43 52q44 0 44 -52q0 -27 -11 -39t-33 -12zM430 -9q-21 0 -32 12t-11 39q0 52 43 52q44 0 44 -52q0 -27 -11 -39t-33 -12z" />
    <glyph glyph-name="perthousand" unicode="&#x2030;" horiz-adv-x="675" 
d="M45 0zM194 562q0 -44 -4.5 -83.5t-13.5 -69t-23.5 -47t-33.5 -17.5q-20 0 -34 17.5t-23 47t-13 69t-4 83.5t4 84.5t13 71.5t23 49.5t34 18.5q19 0 33.5 -18.5t23.5 -49.5t13.5 -71.5t4.5 -84.5zM89 562q0 -30 1 -62t4.5 -58.5t9.5 -43.5t15 -17t15 17t9.5 43.5t4.5 58.5
t1 62q0 29 -1 62t-4 61t-9 46.5t-16 18.5t-16 -18.5t-9 -46.5t-4 -61t-1 -62zM59 0l330 779h49l-329 -779h-50zM461 211q0 -44 -4.5 -83.5t-13.5 -69t-23.5 -47t-33.5 -17.5q-20 0 -34 17.5t-23 47t-13 69t-4 83.5t4 84.5t13 71.5t23 49.5t34 18.5q19 0 33.5 -18.5
t23.5 -49.5t13.5 -71.5t4.5 -84.5zM356 211q0 -30 1 -62t4.5 -58.5t9.5 -43.5t15 -17t15 17t9.5 43.5t4.5 58.5t1 62q0 29 -1 62t-4 61t-9 46.5t-16 18.5t-16 -18.5t-9 -46.5t-4 -61t-1 -62zM630 211q0 -44 -4.5 -83.5t-13.5 -69t-23.5 -47t-33.5 -17.5q-20 0 -34 17.5
t-23 47t-13 69t-4 83.5t4 84.5t13 71.5t23 49.5t34 18.5q19 0 33.5 -18.5t23.5 -49.5t13.5 -71.5t4.5 -84.5zM525 211q0 -30 1 -62t4.5 -58.5t9.5 -43.5t15 -17t15 17t9.5 43.5t4.5 58.5t1 62q0 29 -1 62t-4 61t-9 46.5t-16 18.5t-16 -18.5t-9 -46.5t-4 -61t-1 -62z" />
    <glyph glyph-name="guilsinglleft" unicode="&#x2039;" horiz-adv-x="151" 
d="M134 437l-56 -218l56 -219h-62l-56 219l56 218h62z" />
    <glyph glyph-name="guilsinglright" unicode="&#x203a;" horiz-adv-x="151" 
d="M77 437l57 -218l-57 -219h-61l55 219l-55 218h61z" />
    <glyph glyph-name="fraction" unicode="&#x2044;" horiz-adv-x="158" 
d="M-110 0l330 779h49l-329 -779h-50z" />
    <glyph glyph-name="zerosuperior" unicode="&#x2070;" horiz-adv-x="219" 
d="M35 345zM184 562q0 -44 -4.5 -83.5t-13.5 -69t-23.5 -47t-33.5 -17.5q-20 0 -34 17.5t-23 47t-13 69t-4 83.5t4 84.5t13 71.5t23 49.5t34 18.5q19 0 33.5 -18.5t23.5 -49.5t13.5 -71.5t4.5 -84.5zM79 562q0 -30 1 -62t4.5 -58.5t9.5 -43.5t15 -17t15 17t9.5 43.5
t4.5 58.5t1 62q0 29 -1 62t-4 61t-9 46.5t-16 18.5t-16 -18.5t-9 -46.5t-4 -61t-1 -62z" />
    <glyph glyph-name="foursuperior" unicode="&#x2074;" horiz-adv-x="223" 
d="M21 351zM129 351v107h-108l153 328v-301h15v-27h-15v-107h-45zM129 603l-52 -118h52v118z" />
    <glyph glyph-name="fivesuperior" unicode="&#x2075;" horiz-adv-x="202" 
d="M41 345zM123 517q0 60 -17 88.5t-55 28.5q-7 0 -10 -1l5 146h111v-34h-68l-3 -85q49 -7 65.5 -46.5t16.5 -96.5q0 -79 -21 -124.5t-68 -47.5q-16 0 -23.5 2.5t-11.5 6.5v35q5 -4 11 -6.5t17 -2.5q26 0 38.5 37t12.5 100z" />
    <glyph glyph-name="sixsuperior" unicode="&#x2076;" horiz-adv-x="229" 
d="M35 345zM195 491q0 -78 -20.5 -112t-59.5 -34q-20 0 -34.5 8.5t-25 29t-15.5 53.5t-5 82q0 60 3 109t12.5 84.5t28 55t49.5 19.5q13 0 20 -2.5t12 -6.5v-35q-5 4 -11.5 6.5t-17.5 2.5q-18 0 -31.5 -32.5t-18.5 -91.5q7 6 16.5 10.5t23.5 4.5q35 0 54.5 -36t19.5 -115z
M80 491q0 -50 8 -80.5t27 -30.5q18 0 26.5 30.5t8.5 80.5q0 51 -8.5 83.5t-26.5 32.5q-19 0 -27 -32.5t-8 -83.5z" />
    <glyph glyph-name="sevensuperior" unicode="&#x2077;" horiz-adv-x="176" 
d="M21 351zM41 351l61 394h-81v34h130l-63 -428h-47z" />
    <glyph glyph-name="eightsuperior" unicode="&#x2078;" horiz-adv-x="237" 
d="M33 345zM205 619q0 -43 -4 -71.5t-10.5 -46.5t-16 -27.5t-19.5 -14.5v-3q17 -3 30 -17.5t13 -33.5q0 -29 -21 -44.5t-58 -15.5q-38 0 -59 15.5t-21 44.5q0 19 13.5 33.5t30.5 17.5v3q-11 5 -20.5 14.5t-16 27.5t-10 46.5t-3.5 71.5q0 18 2.5 46.5t11.5 55.5t26 46.5
t45 19.5t45 -17.5t26.5 -43t12.5 -54.5t3 -53zM77 619q0 -41 3 -68.5t8.5 -45t13 -25.5t16.5 -9q9 1 16.5 9t13 25t9 45t3.5 69q0 59 -12 94.5t-30 35.5t-29.5 -35.5t-11.5 -94.5zM83 411q0 -14 9 -23t26 -9t26.5 9t9.5 23t-11.5 22.5t-24.5 10.5q-12 -2 -23.5 -10.5
t-11.5 -22.5z" />
    <glyph glyph-name="ninesuperior" unicode="&#x2079;" horiz-adv-x="227" 
d="M31 351zM73 351q31 38 49 76t23 75q-7 -6 -16.5 -10t-23.5 -4q-34 0 -54 36.5t-20 114.5q0 79 21 113t60 34q19 0 34 -8.5t25.5 -29t15.5 -54t5 -82.5q0 -88 -17 -154.5t-49 -106.5h-53zM147 639q0 50 -8.5 80.5t-26.5 30.5q-19 0 -27 -30.5t-8 -80.5q0 -51 8 -83.5
t27 -32.5q18 0 26.5 32.5t8.5 83.5z" />
    <glyph glyph-name="zeroinferior" unicode="&#x2080;" horiz-adv-x="219" 
d="M184 211q0 -44 -4.5 -83.5t-13.5 -69t-23.5 -47t-33.5 -17.5q-20 0 -34 17.5t-23 47t-13 69t-4 83.5t4 84.5t13 71.5t23 49.5t34 18.5q19 0 33.5 -18.5t23.5 -49.5t13.5 -71.5t4.5 -84.5zM79 211q0 -30 1 -62t4.5 -58.5t9.5 -43.5t15 -17t15 17t9.5 43.5t4.5 58.5t1 62
q0 29 -1 62t-4 61t-9 46.5t-16 18.5t-16 -18.5t-9 -46.5t-4 -61t-1 -62z" />
    <glyph glyph-name="oneinferior" unicode="&#x2081;" horiz-adv-x="141" 
d="M48 0v377l45 58v-435h-45z" />
    <glyph glyph-name="twoinferior" unicode="&#x2082;" horiz-adv-x="216" 
d="M42 0v63q0 44 15 78t33 64.5t33 59.5t15 64q0 71 -42 71q-20 0 -30 -9v35l11 5.5t23 3.5q41 0 61.5 -27.5t20.5 -74.5q0 -44 -15 -75.5t-32.5 -60.5t-32.5 -60.5t-15 -74.5v-29h92v-33h-137z" />
    <glyph glyph-name="threeinferior" unicode="&#x2083;" horiz-adv-x="208" 
d="M116 394h-72v34h131l-53 -129q46 -30 46 -129q0 -84 -22 -130t-70 -46q-14 0 -20.5 2.5t-11.5 6.5v35q5 -4 11 -6.5t17 -2.5q26 0 38.5 37.5t12.5 103.5q0 53 -12.5 81t-38.5 28z" />
    <glyph glyph-name="fourinferior" unicode="&#x2084;" horiz-adv-x="223" 
d="M129 0v107h-108l153 328v-301h15v-27h-15v-107h-45zM129 252l-52 -118h52v118z" />
    <glyph glyph-name="fiveinferior" unicode="&#x2085;" horiz-adv-x="202" 
d="M123 166q0 60 -17 88.5t-55 28.5q-7 0 -10 -1l5 146h111v-34h-68l-3 -85q49 -7 65.5 -46.5t16.5 -96.5q0 -79 -21 -124.5t-68 -47.5q-16 0 -23.5 2.5t-11.5 6.5v35q5 -4 11 -6.5t17 -2.5q26 0 38.5 37t12.5 100z" />
    <glyph glyph-name="sixinferior" unicode="&#x2086;" horiz-adv-x="229" 
d="M195 140q0 -78 -20.5 -112t-59.5 -34q-20 0 -34.5 8.5t-25 29t-15.5 53.5t-5 82q0 60 3 109t12.5 84.5t28 55t49.5 19.5q13 0 20 -2.5t12 -6.5v-35q-5 4 -11.5 6.5t-17.5 2.5q-18 0 -31.5 -32.5t-18.5 -91.5q7 6 16.5 10.5t23.5 4.5q35 0 54.5 -36t19.5 -115zM80 140
q0 -50 8 -80.5t27 -30.5q18 0 26.5 30.5t8.5 80.5q0 51 -8.5 83.5t-26.5 32.5q-19 0 -27 -32.5t-8 -83.5z" />
    <glyph glyph-name="seveninferior" unicode="&#x2087;" horiz-adv-x="176" 
d="M41 0l61 394h-81v34h130l-63 -428h-47z" />
    <glyph glyph-name="eightinferior" unicode="&#x2088;" horiz-adv-x="237" 
d="M205 268q0 -43 -4 -71.5t-10.5 -46.5t-16 -27.5t-19.5 -14.5v-3q17 -3 30 -17.5t13 -33.5q0 -29 -21 -44.5t-58 -15.5q-38 0 -59 15.5t-21 44.5q0 19 13.5 33.5t30.5 17.5v3q-11 5 -20.5 14.5t-16 27.5t-10 46.5t-3.5 71.5q0 18 2.5 46.5t11.5 55.5t26 46.5t45 19.5
t45 -17.5t26.5 -43t12.5 -54.5t3 -53zM77 268q0 -41 3 -68.5t8.5 -45t13 -25.5t16.5 -9q9 1 16.5 9t13 25t9 45t3.5 69q0 59 -12 94.5t-30 35.5t-29.5 -35.5t-11.5 -94.5zM83 60q0 -14 9 -23t26 -9t26.5 9t9.5 23t-11.5 22.5t-24.5 10.5q-12 -2 -23.5 -10.5t-11.5 -22.5z
" />
    <glyph glyph-name="nineinferior" unicode="&#x2089;" horiz-adv-x="227" 
d="M73 0q31 38 49 76t23 75q-7 -6 -16.5 -10t-23.5 -4q-34 0 -54 36.5t-20 114.5q0 79 21 113t60 34q19 0 34 -8.5t25.5 -29t15.5 -54t5 -82.5q0 -88 -17 -154.5t-49 -106.5h-53zM147 288q0 50 -8.5 80.5t-26.5 30.5q-19 0 -27 -30.5t-8 -80.5q0 -51 8 -83.5t27 -32.5
q18 0 26.5 32.5t8.5 83.5z" />
    <glyph glyph-name="Euro" unicode="&#x20ac;" horiz-adv-x="310" 
d="M136 195q10 -75 31 -109t51 -34q20 0 32 5t21 12v-64q-8 -7 -22 -11t-37 -4q-54 0 -89 48.5t-50 156.5h-67l10 48h51q-2 17 -3 34t-2 36h-56l10 48h45v28q0 106 9.5 181.5t28.5 124.5t47.5 72t65.5 23q28 0 44 -6.5t31 -17.5l-16 -56q-9 8 -21 12.5t-32 4.5
q-23 0 -40 -19t-29 -59.5t-18 -105t-6 -154.5v-28h93l-10 -48h-82q1 -20 1.5 -37t2.5 -33h63l-10 -48h-47z" />
    <glyph glyph-name="uni20B9" unicode="&#x20b9;" horiz-adv-x="381" 
d="M270 584q9 -42 9 -90q0 -96 -34 -160.5t-99 -111.5q26 -39 54.5 -74.5t57 -64.5t55.5 -50t50 -33h-105q-33 19 -81 83t-107 156q41 26 69 52.5t45 56t24.5 63t7.5 73.5q0 27 -3 52t-8 48h-179l10 48h154q-18 41 -49 67.5t-76 31.5h-39l10 48h320l-10 -48h-158
q24 -19 41 -44t28 -55h99l-10 -48h-76z" />
    <glyph glyph-name="uni20BA" unicode="&#x20ba;" horiz-adv-x="300" 
d="M122 528v-465q35 13 59.5 49.5t37.5 82.5h54q-12 -42 -30.5 -78.5t-44.5 -63t-60.5 -42t-78.5 -16.5v510l-41 -14v48l41 14v78l-41 -15v48l41 15v100h63v-77l123 46v-48l-123 -46v-78l123 46v-48z" />
    <glyph glyph-name="uni20BD" unicode="&#x20bd;" horiz-adv-x="347" 
d="M130 95v-95h-63v95h-51v48h51v52h-51v48h51v542q67 -2 113 -26t74 -63.5t40.5 -91.5t12.5 -110q0 -111 -42.5 -182.5t-134.5 -117.5v-51h144v-48h-144zM130 252q114 73 114 232q0 40 -6.5 79t-20.5 70.5t-35.5 53.5t-51.5 30v-465z" />
    <glyph glyph-name="trademark" unicode="&#x2122;" horiz-adv-x="501" 
d="M79 340v400h-57v39h150v-39h-55v-400h-38zM397 340v233h-4l-72 -202l-70 202h-5v-233h-33v449l108 -313l111 313v-449h-35z" />
    <glyph glyph-name="onethird" unicode="&#x2153;" horiz-adv-x="517" 
d="M45 0zM62 351v377l45 58v-435h-45zM45 0l330 779h49l-329 -779h-50zM413 394h-72v34h131l-53 -129q46 -30 46 -129q0 -84 -22 -130t-70 -46q-14 0 -20.5 2.5t-11.5 6.5v35q5 -4 11 -6.5t17 -2.5q26 0 38.5 37.5t12.5 103.5q0 53 -12.5 81t-38.5 28z" />
    <glyph glyph-name="twothirds" unicode="&#x2154;" horiz-adv-x="557" 
d="M45 0zM45 351v63q0 44 15 78t33 64.5t33 59.5t15 64q0 71 -42 71q-20 0 -30 -9v35l11 5.5t23 3.5q41 0 61.5 -27.5t20.5 -74.5q0 -44 -15 -75.5t-32.5 -60.5t-32.5 -60.5t-15 -74.5v-29h92v-33h-137zM89 0l330 779h49l-329 -779h-50zM453 394h-72v34h131l-53 -129
q46 -30 46 -129q0 -84 -22 -130t-70 -46q-14 0 -20.5 2.5t-11.5 6.5v35q5 -4 11 -6.5t17 -2.5q26 0 38.5 37.5t12.5 103.5q0 53 -12.5 81t-38.5 28z" />
    <glyph glyph-name="uni2155" unicode="&#x2155;" horiz-adv-x="526" 
d="M45 0zM62 351v377l45 58v-435h-45zM45 0l330 779h49l-329 -779h-50zM436 166q0 60 -17 88.5t-55 28.5q-7 0 -10 -1l5 146h111v-34h-68l-3 -85q49 -7 65.5 -46.5t16.5 -96.5q0 -79 -21 -124.5t-68 -47.5q-16 0 -23.5 2.5t-11.5 6.5v35q5 -4 11 -6.5t17 -2.5q26 0 38.5 37
t12.5 100z" />
    <glyph glyph-name="uni2156" unicode="&#x2156;" horiz-adv-x="590" 
d="M45 0zM45 351v63q0 44 15 78t33 64.5t33 59.5t15 64q0 71 -42 71q-20 0 -30 -9v35l11 5.5t23 3.5q41 0 61.5 -27.5t20.5 -74.5q0 -44 -15 -75.5t-32.5 -60.5t-32.5 -60.5t-15 -74.5v-29h92v-33h-137zM109 0l330 779h49l-329 -779h-50zM500 166q0 60 -17 88.5t-55 28.5
q-7 0 -10 -1l5 146h111v-34h-68l-3 -85q49 -7 65.5 -46.5t16.5 -96.5q0 -79 -21 -124.5t-68 -47.5q-16 0 -23.5 2.5t-11.5 6.5v35q5 -4 11 -6.5t17 -2.5q26 0 38.5 37t12.5 100z" />
    <glyph glyph-name="uni2157" unicode="&#x2157;" horiz-adv-x="570" 
d="M45 0zM117 745h-72v34h131l-53 -129q46 -30 46 -129q0 -84 -22 -130t-70 -46q-14 0 -20.5 2.5t-11.5 6.5v35q5 -4 11 -6.5t17 -2.5q26 0 38.5 37.5t12.5 103.5q0 53 -12.5 81t-38.5 28zM89 0l330 779h49l-329 -779h-50zM480 166q0 60 -17 88.5t-55 28.5q-7 0 -10 -1
l5 146h111v-34h-68l-3 -85q49 -7 65.5 -46.5t16.5 -96.5q0 -79 -21 -124.5t-68 -47.5q-16 0 -23.5 2.5t-11.5 6.5v35q5 -4 11 -6.5t17 -2.5q26 0 38.5 37t12.5 100z" />
    <glyph glyph-name="uni2158" unicode="&#x2158;" horiz-adv-x="608" 
d="M45 0zM153 351v107h-108l153 328v-301h15v-27h-15v-107h-45zM153 603l-52 -118h52v118zM127 0l330 779h49l-329 -779h-50zM518 166q0 60 -17 88.5t-55 28.5q-7 0 -10 -1l5 146h111v-34h-68l-3 -85q49 -7 65.5 -46.5t16.5 -96.5q0 -79 -21 -124.5t-68 -47.5
q-16 0 -23.5 2.5t-11.5 6.5v35q5 -4 11 -6.5t17 -2.5q26 0 38.5 37t12.5 100z" />
    <glyph glyph-name="uni2159" unicode="&#x2159;" horiz-adv-x="543" 
d="M45 0zM62 351v377l45 58v-435h-45zM45 0l330 779h49l-329 -779h-50zM498 140q0 -78 -20.5 -112t-59.5 -34q-20 0 -34.5 8.5t-25 29t-15.5 53.5t-5 82q0 60 3 109t12.5 84.5t28 55t49.5 19.5q13 0 20 -2.5t12 -6.5v-35q-5 4 -11.5 6.5t-17.5 2.5q-18 0 -31.5 -32.5
t-18.5 -91.5q7 6 16.5 10.5t23.5 4.5q35 0 54.5 -36t19.5 -115zM383 140q0 -50 8 -80.5t27 -30.5q18 0 26.5 30.5t8.5 80.5q0 51 -8.5 83.5t-26.5 32.5q-19 0 -27 -32.5t-8 -83.5z" />
    <glyph glyph-name="uni215A" unicode="&#x215a;" horiz-adv-x="584" 
d="M45 0zM127 517q0 60 -17 88.5t-55 28.5q-7 0 -10 -1l5 146h111v-34h-68l-3 -85q49 -7 65.5 -46.5t16.5 -96.5q0 -79 -21 -124.5t-68 -47.5q-16 0 -23.5 2.5t-11.5 6.5v35q5 -4 11 -6.5t17 -2.5q26 0 38.5 37t12.5 100zM86 0l330 779h49l-329 -779h-50zM539 140
q0 -78 -20.5 -112t-59.5 -34q-20 0 -34.5 8.5t-25 29t-15.5 53.5t-5 82q0 60 3 109t12.5 84.5t28 55t49.5 19.5q13 0 20 -2.5t12 -6.5v-35q-5 4 -11.5 6.5t-17.5 2.5q-18 0 -31.5 -32.5t-18.5 -91.5q7 6 16.5 10.5t23.5 4.5q35 0 54.5 -36t19.5 -115zM424 140q0 -50 8 -80.5
t27 -30.5q18 0 26.5 30.5t8.5 80.5q0 51 -8.5 83.5t-26.5 32.5q-19 0 -27 -32.5t-8 -83.5z" />
    <glyph glyph-name="oneeighth" unicode="&#x215b;" horiz-adv-x="543" 
d="M45 0zM62 351v377l45 58v-435h-45zM45 0l330 779h49l-329 -779h-50zM498 268q0 -43 -4 -71.5t-10.5 -46.5t-16 -27.5t-19.5 -14.5v-3q17 -3 30 -17.5t13 -33.5q0 -29 -21 -44.5t-58 -15.5q-38 0 -59 15.5t-21 44.5q0 19 13.5 33.5t30.5 17.5v3q-11 5 -20.5 14.5t-16 27.5
t-10 46.5t-3.5 71.5q0 18 2.5 46.5t11.5 55.5t26 46.5t45 19.5t45 -17.5t26.5 -43t12.5 -54.5t3 -53zM370 268q0 -41 3 -68.5t8.5 -45t13 -25.5t16.5 -9q9 1 16.5 9t13 25t9 45t3.5 69q0 59 -12 94.5t-30 35.5t-29.5 -35.5t-11.5 -94.5zM376 60q0 -14 9 -23t26 -9t26.5 9
t9.5 23t-11.5 22.5t-24.5 10.5q-12 -2 -23.5 -10.5t-11.5 -22.5z" />
    <glyph glyph-name="threeeighths" unicode="&#x215c;" horiz-adv-x="546" 
d="M45 0zM117 745h-72v34h131l-53 -129q46 -30 46 -129q0 -84 -22 -130t-70 -46q-14 0 -20.5 2.5t-11.5 6.5v35q5 -4 11 -6.5t17 -2.5q26 0 38.5 37.5t12.5 103.5q0 53 -12.5 81t-38.5 28zM58 0l330 779h49l-329 -779h-50zM501 268q0 -43 -4 -71.5t-10.5 -46.5t-16 -27.5
t-19.5 -14.5v-3q17 -3 30 -17.5t13 -33.5q0 -29 -21 -44.5t-58 -15.5q-38 0 -59 15.5t-21 44.5q0 19 13.5 33.5t30.5 17.5v3q-11 5 -20.5 14.5t-16 27.5t-10 46.5t-3.5 71.5q0 18 2.5 46.5t11.5 55.5t26 46.5t45 19.5t45 -17.5t26.5 -43t12.5 -54.5t3 -53zM373 268
q0 -41 3 -68.5t8.5 -45t13 -25.5t16.5 -9q9 1 16.5 9t13 25t9 45t3.5 69q0 59 -12 94.5t-30 35.5t-29.5 -35.5t-11.5 -94.5zM379 60q0 -14 9 -23t26 -9t26.5 9t9.5 23t-11.5 22.5t-24.5 10.5q-12 -2 -23.5 -10.5t-11.5 -22.5z" />
    <glyph glyph-name="fiveeighths" unicode="&#x215d;" horiz-adv-x="554" 
d="M45 0zM127 517q0 60 -17 88.5t-55 28.5q-7 0 -10 -1l5 146h111v-34h-68l-3 -85q49 -7 65.5 -46.5t16.5 -96.5q0 -79 -21 -124.5t-68 -47.5q-16 0 -23.5 2.5t-11.5 6.5v35q5 -4 11 -6.5t17 -2.5q26 0 38.5 37t12.5 100zM66 0l330 779h49l-329 -779h-50zM509 268
q0 -43 -4 -71.5t-10.5 -46.5t-16 -27.5t-19.5 -14.5v-3q17 -3 30 -17.5t13 -33.5q0 -29 -21 -44.5t-58 -15.5q-38 0 -59 15.5t-21 44.5q0 19 13.5 33.5t30.5 17.5v3q-11 5 -20.5 14.5t-16 27.5t-10 46.5t-3.5 71.5q0 18 2.5 46.5t11.5 55.5t26 46.5t45 19.5t45 -17.5
t26.5 -43t12.5 -54.5t3 -53zM381 268q0 -41 3 -68.5t8.5 -45t13 -25.5t16.5 -9q9 1 16.5 9t13 25t9 45t3.5 69q0 59 -12 94.5t-30 35.5t-29.5 -35.5t-11.5 -94.5zM387 60q0 -14 9 -23t26 -9t26.5 9t9.5 23t-11.5 22.5t-24.5 10.5q-12 -2 -23.5 -10.5t-11.5 -22.5z" />
    <glyph glyph-name="seveneighths" unicode="&#x215e;" horiz-adv-x="568" 
d="M45 0zM65 351l61 394h-81v34h130l-63 -428h-47zM60 0l330 779h49l-329 -779h-50zM523 268q0 -43 -4 -71.5t-10.5 -46.5t-16 -27.5t-19.5 -14.5v-3q17 -3 30 -17.5t13 -33.5q0 -29 -21 -44.5t-58 -15.5q-38 0 -59 15.5t-21 44.5q0 19 13.5 33.5t30.5 17.5v3
q-11 5 -20.5 14.5t-16 27.5t-10 46.5t-3.5 71.5q0 18 2.5 46.5t11.5 55.5t26 46.5t45 19.5t45 -17.5t26.5 -43t12.5 -54.5t3 -53zM395 268q0 -41 3 -68.5t8.5 -45t13 -25.5t16.5 -9q9 1 16.5 9t13 25t9 45t3.5 69q0 59 -12 94.5t-30 35.5t-29.5 -35.5t-11.5 -94.5zM401 60
q0 -14 9 -23t26 -9t26.5 9t9.5 23t-11.5 22.5t-24.5 10.5q-12 -2 -23.5 -10.5t-11.5 -22.5z" />
    <glyph glyph-name="partialdiff" unicode="&#x2202;" horiz-adv-x="434" 
d="M188 772q14 10 54 10q51 0 80 -32.5t44 -80t19 -101.5t4 -96q0 -45 -3.5 -99t-12.5 -108.5t-24 -105.5t-39 -90t-57.5 -62.5t-78.5 -23.5q-34 0 -58.5 16.5t-40 44.5t-23 66t-7.5 81q0 52 11 98t32.5 80.5t53 55t73.5 20.5q41 0 72 -27.5t46 -76.5q3 34 4.5 69t1.5 66
q0 36 -3 78.5t-14 79t-32 60.5t-56 24q-17 0 -27 -2t-19 -8v64zM324 284q-13 51 -40.5 80.5t-65.5 29.5q-31 0 -54 -14.5t-38.5 -41t-23 -62.5t-7.5 -78q0 -33 5 -60.5t15.5 -47.5t27 -31t38.5 -11q33 0 57.5 19.5t41 52.5t27.5 75.5t17 88.5z" />
    <glyph glyph-name="product" unicode="&#x220f;" horiz-adv-x="446" 
d="M320 -178v901h-195v-901h-56v957h308v-957h-57z" />
    <glyph glyph-name="summation" unicode="&#x2211;" horiz-adv-x="379" 
d="M30 -150l212 464l-212 465h317v-58h-228l180 -407l-180 -406h228v-58h-317z" />
    <glyph glyph-name="minus" unicode="&#x2212;" horiz-adv-x="579" 
d="M69 355v49h441v-49h-441z" />
    <glyph glyph-name="radical" unicode="&#x221a;" horiz-adv-x="488" 
d="M226 -36l-121 360h-89v52h134l73 -235h4l196 638h65z" />
    <glyph glyph-name="infinity" unicode="&#x221e;" horiz-adv-x="600" 
d="M300 331q-3 -36 -13 -59.5t-25.5 -37t-35.5 -18.5t-43 -5t-47.5 4t-44.5 21t-33 50.5t-13 93.5q0 59 13 92.5t33 50t44.5 20t47.5 3.5t43 -5t35.5 -18.5t25.5 -36t13 -58.5q3 36 13.5 58.5t26 36t35 18.5t41.5 5q24 0 48.5 -3.5t44.5 -20t33 -50t13 -92.5
q0 -60 -13 -93.5t-33 -50.5t-44.5 -21t-48.5 -4q-22 0 -41.5 5t-35 18.5t-26 37t-13.5 59.5zM410 275q18 0 36.5 2.5t34.5 12.5t26 31t10 59q0 36 -10 56.5t-25.5 30.5t-34.5 12.5t-37 2.5q-16 0 -31 -3.5t-26 -14.5t-18 -31t-7 -53t7 -53.5t18 -32t26 -15.5t31 -4zM188 275
q16 0 31.5 4t27 15t18.5 32t7 54t-7 53t-18 31t-26.5 14.5t-31.5 3.5q-18 0 -36.5 -2.5t-33.5 -12.5t-24.5 -30.5t-9.5 -56.5q0 -38 9.5 -59t24.5 -31t33.5 -12.5t35.5 -2.5z" />
    <glyph glyph-name="integral" unicode="&#x222b;" horiz-adv-x="325" 
d="M14 -145q11 -11 22 -14t24 -3q32 0 52 23.5t20 75.5v659q0 106 29.5 151t87.5 45q46 0 67 -22l-6 -58q-10 10 -21 13t-25 3q-32 0 -51.5 -23t-19.5 -75v-659q0 -53 -7.5 -90.5t-22.5 -61t-36.5 -34t-49.5 -10.5q-46 0 -69 22z" />
    <glyph glyph-name="approxequal" unicode="&#x2248;" horiz-adv-x="579" 
d="M69 184zM510 482q-25 -30 -52 -41.5t-59 -11.5q-30 0 -58 8.5t-55 19t-53.5 19.5t-53.5 9q-40 0 -62.5 -15t-47.5 -46v53q26 31 53 42t59 11q30 0 57 -8.5t53.5 -19t53.5 -19t56 -8.5q40 0 62.5 14t46.5 46v-53zM510 242q-25 -30 -52 -41.5t-59 -11.5q-30 0 -58 8.5
t-55 19t-53.5 19.5t-53.5 9q-40 0 -62.5 -15t-47.5 -46v53q26 31 53 42t59 11q30 0 57 -8.5t53.5 -19t53.5 -19t56 -8.5q40 0 62.5 14t46.5 46v-53z" />
    <glyph glyph-name="notequal" unicode="&#x2260;" horiz-adv-x="549" 
d="M229 246l-153 -286h-48l154 286h-133v49h159l92 170h-251v50h277l149 275h46l-149 -275h129v-50h-154l-92 -170h246v-49h-272z" />
    <glyph glyph-name="lessequal" unicode="&#x2264;" horiz-adv-x="579" 
d="M69 0zM69 363v41l441 278v-62l-375 -236l375 -238v-61zM69 -1v49h441v-49h-441z" />
    <glyph glyph-name="greaterequal" unicode="&#x2265;" horiz-adv-x="579" 
d="M69 0zM69 85v61l376 238l-376 236v62l441 -278v-41zM69 -1v49h441v-49h-441z" />
    <glyph glyph-name="lozenge" unicode="&#x25ca;" horiz-adv-x="406" 
d="M201 -12l-186 401l186 401l189 -401zM201 678l-133 -289l133 -289l134 289z" />
    <glyph glyph-name=".ttfautohint" horiz-adv-x="0" 
d="M0 0z" />
    </font>
</defs>
</svg>
