<?xml version="1.0" standalone="no"?>
<!DOCTYPE svg PUBLIC "-//W3C//DTD SVG 1.1//EN" "http://www.w3.org/Graphics/SVG/1.1/DTD/svg11.dtd" >
<svg xmlns="http://www.w3.org/2000/svg" xmlns:xlink="http://www.w3.org/1999/xlink" version="1.1">
<metadata>
Created by FontForge 20170731 at Sat Feb  4 01:37:05 2012
 By Aleksey,,,
Copyright (c) 2011 Natanael Gama (exo@ndiscovered.com), with Reserved Font Name "Exo"
</metadata>
<defs>
<font id="Exo-Italic" horiz-adv-x="544" >
  <font-face 
    font-family="Exo"
    font-weight="400"
    font-style="italic"
    font-stretch="normal"
    units-per-em="1000"
    panose-1="2 0 5 3 0 0 0 0 0 0"
    ascent="800"
    descent="-200"
    x-height="531"
    cap-height="732"
    bbox="-90 -273 1356 1002"
    underline-thickness="50"
    underline-position="-200"
    unicode-range="U+000D-FB06"
  />
<missing-glyph horiz-adv-x="758" 
d="M100 0v531h558v-531h-558zM114 22l256 244l-256 241v-485zM124 518l257 -242l254 242h-511zM127 13h507l-253 243zM392 266l252 -241v481z" />
    <glyph glyph-name="fi" unicode="fi" horiz-adv-x="579" 
d="M254 733q60 53 145 53t192 -34l-8 -49l-170 11h-13q-47 0 -91 -28t-56 -102l-8 -53l358 -10l-82 -521h-75l72 457h-287l-72 -457h-74l72 457h-97l9 57l102 17l8 53q15 96 75 149z" />
    <glyph glyph-name="fl" unicode="fl" horiz-adv-x="690" 
d="M424 784h266l-94 -595q-6 -32 -6 -51.5t2 -30t10 -17.5q11 -11 60 -22.5t50 -11.5l-9 -56h-68q-118 0 -118 129q0 27 5 60l83 523h-185q-56 0 -89.5 -32t-45.5 -113l-6 -36h165l-12 -74h-166l-76 -457h-74l75 457h-99l9 55l104 19l6 36q18 115 70.5 166t142.5 51z" />
    <glyph glyph-name=".notdef" horiz-adv-x="758" 
d="M100 0v531h558v-531h-558zM114 22l256 244l-256 241v-485zM124 518l257 -242l254 242h-511zM127 13h507l-253 243zM392 266l252 -241v481z" />
    <glyph glyph-name=".notdef" horiz-adv-x="758" 
d="M100 0v531h558v-531h-558zM114 22l256 244l-256 241v-485zM124 518l257 -242l254 242h-511zM127 13h507l-253 243zM392 266l252 -241v481z" />
    <glyph glyph-name=".null" horiz-adv-x="0" 
 />
    <glyph glyph-name="uni000D" unicode="&#xd;" horiz-adv-x="1000" 
 />
    <glyph glyph-name="space" unicode=" " horiz-adv-x="250" 
 />
    <glyph glyph-name="exclam" unicode="!" horiz-adv-x="265" 
d="M122 105h55q20 0 20 -18q0 -3 -1 -7l-9 -57q-3 -23 -26 -23h-55q-24 0 -21 23l9 57q3 25 28 25zM122 200l77 531h89l-91 -531h-75z" />
    <glyph glyph-name="quotedbl" unicode="&#x22;" horiz-adv-x="381" 
d="M180 531l10 134l11 67h75l-11 -67l-31 -134h-54zM315 531l10 134l11 67h75l-11 -67l-31 -134h-54z" />
    <glyph glyph-name="numbersign" unicode="#" horiz-adv-x="687" 
d="M56 232l16 52h159l52 165h-159l18 52h158l73 231h52l-73 -231h166l72 231h52l-72 -231h177l-18 -52h-177l-52 -166h177l-16 -52h-177l-74 -231h-52l74 231l-166 1l-74 -232h-52l74 232h-158zM283 284l165 -1l52 166h-165z" />
    <glyph glyph-name="dollar" unicode="$" horiz-adv-x="574" 
d="M90 70l238 -6q38 0 71 13q63 25 71 79l11 68q6 41 6 55q0 43 -74 43h-130q-94 0 -128 51q-25 38 -25 86q0 17 3 35l10 66q17 99 72 137.5t145 40.5l14 86h58l-14 -89q93 -7 187 -21l-9 -58l-238 9h-10q-114 0 -131 -105l-10 -66q-2 -16 -2 -38t13 -38q18 -22 77 -22h130
q49 0 80 -15.5t41 -40.5q14 -31 14 -62t-5 -54l-11 -68q-10 -65 -50 -104.5t-83 -50t-71 -10.5t-40 1l-13 -82h-58l14 87q-27 3 -163 20z" />
    <glyph glyph-name="percent" unicode="%" horiz-adv-x="962" 
d="M285 732h101q66 0 92 -29q18 -21 18 -61q0 -16 -3 -35l-21 -133q-12 -72 -42 -98.5t-106 -26.5h-101q-58 0 -84 28.5t-26 69.5q0 13 2 27l21 133q11 68 40.5 96.5t108.5 28.5zM180 474q-2 -12 -2 -26t9.5 -24t45.5 -10h101q40 0 53.5 11.5t19.5 48.5l21 133q2 16 2 29.5
t-6.5 22t-47.5 8.5h-101q-42 0 -55 -12t-19 -48zM225 0l554 732h71l-554 -732h-71zM753 383h101q66 0 92 -29q18 -21 18 -61q0 -16 -3 -35l-21 -133q-12 -71 -42.5 -98t-106.5 -27h-101q-58 0 -83.5 28t-25.5 70q0 13 2 27l21 133q11 68 40.5 96.5t108.5 28.5zM648 125
q-2 -13 -2 -26.5t9 -23.5t45 -10h101q40 0 54 11.5t20 48.5l21 133q2 15 2 28.5t-7 22.5t-48 9h-101q-41 0 -54 -12t-19 -48z" />
    <glyph glyph-name="ampersand" unicode="&#x26;" horiz-adv-x="626" 
d="M63 181q0 103 107 185l95 73l-49 85q-24 42 -24 77q0 12 4 24q11 44 46 71t76.5 31t80.5 4q94 0 184 -21l-8 -48h-203q-111 0 -111 -59q0 -26 21 -63l187 -324l133 120l24 -20l-71 -118l-48 -46l90 -152h-76l-65 111l-74 -67q-55 -49 -130 -49l-71 13q-54 20 -86 70.5
t-32 102.5zM254 64q45 0 82 33l84 75l-120 202l-86 -66q-82 -61 -82 -130q0 -34 23 -62q36 -52 99 -52z" />
    <glyph glyph-name="quotesingle" unicode="'" horiz-adv-x="186" 
d="M150 531l10 134l11 67h75l-11 -67l-31 -134h-54z" />
    <glyph glyph-name="parenleft" unicode="(" horiz-adv-x="335" 
d="M236 -113q17 -47 32 -72l14 -25h-81q-37 62 -67 196q-20 89 -20 184q0 159 58 328q43 128 123 261q30 50 49 75l20 26h88q-25 -28 -66 -92.5t-72 -123t-64 -146.5q-64 -170 -64 -323.5t50 -287.5z" />
    <glyph glyph-name="parenright" unicode=")" horiz-adv-x="337" 
d="M204 763q-18 47 -32 72l-15 25h81q37 -62 67 -196q20 -89 20 -184q0 -159 -57 -328q-44 -128 -124 -261q-30 -50 -50 -75l-19 -26h-88q25 28 66 92.5t72 123t64 146.5q64 170 64 323.5t-49 287.5z" />
    <glyph glyph-name="asterisk" unicode="*" horiz-adv-x="440" 
d="M139 566l6 40l144 29l-7 -74zM183 414l45 135l70 -17l-80 -130zM283 476l51 62l95 -91l-26 -32zM289 717l41 16l57 -118l-73 -31zM341 571l132 76l13 -35l-106 -97z" />
    <glyph glyph-name="plus" unicode="+" horiz-adv-x="516" 
d="M100 319l12 74h170l27 171h74l-27 -171h172l-12 -74h-172l-27 -171h-74l27 171h-170z" />
    <glyph glyph-name="comma" unicode="," horiz-adv-x="268" 
d="M83 -56q28 0 34 31l4 25h-11q-22 0 -22 19q0 3 1 6l8 54q5 27 30 27h51q20 0 20 -20q0 -3 -1 -7l-14 -90q-4 -27 -17 -45q-24 -34 -73 -34q-4 0 -17 2l5 32h2z" />
    <glyph glyph-name="hyphen" unicode="-" horiz-adv-x="355" 
d="M60 253l12 74h314l-12 -74h-314z" />
    <glyph glyph-name="period" unicode="." horiz-adv-x="271" 
d="M125 105h53q22 0 22 -18q0 -3 -1 -7l-9 -57q-4 -23 -28 -23h-53q-24 0 -21 23l9 57q3 25 28 25z" />
    <glyph glyph-name="slash" unicode="/" horiz-adv-x="400" 
d="M8 -72l414 842h79l-414 -842h-79z" />
    <glyph glyph-name="zero" unicode="0" horiz-adv-x="642" 
d="M357 732h164q84 0 119 -48q26 -36 26 -83q0 -15 -3 -31l-65 -408q-14 -87 -61.5 -124.5t-131.5 -37.5h-164q-75 0 -117 39q-32 30 -32 86q0 17 3 37l65 408q25 162 197 162zM169 162q-3 -17 -3 -29.5t3 -26.5t18 -21.5t26.5 -9t24.5 -1.5h179q92 0 107 88l65 408
q2 13 2 32t-14 37.5t-67 18.5h-164q-99 0 -112 -88z" />
    <glyph glyph-name="one" unicode="1" horiz-adv-x="361" 
d="M134 594l8 53q44 0 89.5 21.5t68.5 42.5l24 21h72l-114 -732h-74l102 637q-21 -16 -66.5 -29.5t-109.5 -13.5z" />
    <glyph glyph-name="two" unicode="2" horiz-adv-x="595" 
d="M560 567q0 100 -112 100h-303l9 55q160 20 308 20q95 0 136 -61q34 -51 34 -121q0 -71 -40.5 -137.5t-88 -116t-110.5 -100.5q-91 -75 -179 -132h340l-12 -74h-495l11 68q154 95 288 200q88 68 145 138q69 84 69 161z" />
    <glyph glyph-name="three" unicode="3" horiz-adv-x="594" 
d="M355 68q42 0 78.5 23.5t44.5 69.5l10 59q4 14 4 23t-2 19.5t-2.5 21.5t-9.5 19t-14.5 12t-18 6.5t-21 3t-22.5 1.5l-242 7l10 58l244 10q105 5 120 99l11 69q2 11 2 20q0 71 -92 71h-311l7 46q84 29 244 29q38 0 79 -1q73 -2 114 -48q33 -36 33 -88q0 -14 -2 -29l-11 -69
q-19 -117 -88 -136q48 -27 48 -100q0 -20 -4 -44l-10 -59q-26 -168 -204 -168h-60.5t-49 0.5t-36.5 1t-32 2t-34 3.5l-30 5q-28 5 -59 16l8 47h298z" />
    <glyph glyph-name="four" unicode="4" horiz-adv-x="603" 
d="M55 224l401 508h93l-368 -467h276l33 207l52 75h37l-45 -282h90l-9 -59l-93 -19l-29 -185h-77l29 185h-362z" />
    <glyph glyph-name="five" unicode="5" horiz-adv-x="603" 
d="M364 449l86 -3q69 0 108 -48q30 -38 30 -92q0 -15 -2 -31l-17 -110q-15 -95 -63.5 -132t-126.5 -38h-64q-102 0 -236 24l9 55h304q47 0 72 28.5t31 64.5l17 106q3 16 3 29q0 70 -76 70h-151q-33 0 -61 -19t-34 -56h-69l91 435h423l-12 -74h-352l-51 -242q30 33 141 33z
" />
    <glyph glyph-name="six" unicode="6" horiz-adv-x="621" 
d="M202 407q181 21 244.5 21t89.5 -9q43 -16 64 -63q7 -18 7 -29.5t-2 -47.5l-20 -131q-24 -148 -185 -148h-147q-144 0 -144 220q0 71 15 164q29 183 93 268.5t135 85.5q175 0 299 -19l-9 -55h-289q-30 0 -57 -27.5t-46 -70.5q-32 -76 -48 -159zM180 216q0 -145 81 -145
h149q34 0 65 18t38 65l19 125q2 13 2 31t-14.5 31t-63.5 13h-263q-13 -81 -13 -138z" />
    <glyph glyph-name="seven" unicode="7" horiz-adv-x="546" 
d="M134 658l12 74h459l19 -48l-373 -684h-88l362 658h-391z" />
    <glyph glyph-name="eight" unicode="8" horiz-adv-x="632" 
d="M186.5 398q-18.5 24 -22 43.5t-3.5 32.5t2 25l11 65q15 97 64 135t139 38h146q75 0 111 -45q27 -34 27 -87q0 -19 -3 -41l-11 -65q-3 -43 -41 -85q-23 -26 -57 -33q37 -12 51 -51q10 -27 10 -46.5t-2 -31.5l-15 -98q-16 -101 -75 -130q-28 -15 -53 -19.5t-60 -4.5h-145
q-48 0 -80.5 13t-47 30t-21 40t-6.5 37.5t4 33.5l15 98q8 52 40 80t72 32q-31 10 -49.5 34zM180 131q0 -27 18 -42t74 -15h145q36 0 65.5 18t35.5 59l17 105q1 9 1 17q0 27 -19 45.5t-55 18.5h-159q-91 0 -104 -81l-17 -105q-2 -11 -2 -20zM234 476q0 -31 23 -48.5t57 -17.5
h159q85 0 99 84l11 68q4 22 4 44.5t-11 35.5q-16 21 -65 21h-146q-60 0 -84.5 -23t-33.5 -78l-11 -68q-2 -10 -2 -18z" />
    <glyph glyph-name="nine" unicode="9" horiz-adv-x="620" 
d="M535 331q-181 -21 -244.5 -21t-89.5 9q-43 16 -63 63q-8 18 -8 29.5t2 47.5l20 131q24 148 185 148h147q144 0 144 -220q0 -71 -15 -164q-29 -183 -93 -268.5t-135 -85.5q-199 0 -299 19l9 55h289q30 0 57 27.5t45 70.5q33 76 49 159zM205 459q-2 -13 -2 -31t14.5 -31
t63.5 -13h263q13 81 13 138q0 145 -81 145h-149q-34 0 -65 -18t-38 -65z" />
    <glyph glyph-name="colon" unicode=":" horiz-adv-x="272" 
d="M125 105h53q22 0 22 -18q0 -3 -1 -7l-9 -57q-4 -23 -28 -23h-53q-24 0 -21 23l9 57q3 25 28 25zM193 532h53q22 0 22 -18q0 -3 -1 -7l-9 -57q-4 -23 -29 -23h-53q-20 0 -20 18v5l9 57q3 25 28 25z" />
    <glyph glyph-name="semicolon" unicode=";" horiz-adv-x="272" 
d="M83 -56q28 0 34 31l4 25h-11q-10 0 -16.5 8t-4.5 17l8 54q2 11 10.5 19t19.5 8h51q20 0 20 -20q0 -3 -1 -7l-14 -90q-4 -27 -17 -45q-24 -34 -73 -34q-4 0 -17 2l5 32h2zM195 533h53q22 0 22 -18q0 -3 -1 -7l-9 -57q-4 -23 -28 -23h-53q-24 0 -21 23l9 57q3 25 28 25z
" />
    <glyph glyph-name="less" unicode="&#x3c;" horiz-adv-x="474" 
d="M99 314l13 80l400 162l-12 -80l-310 -126l269 -135l-13 -75z" />
    <glyph glyph-name="equal" unicode="=" horiz-adv-x="467" 
d="M53 212l13 74h427l-13 -74h-427zM85 421l13 74h427l-13 -74h-427z" />
    <glyph glyph-name="greater" unicode="&#x3e;" horiz-adv-x="475" 
d="M72 140l13 82l316 132l-276 132l13 70l349 -162l-12 -80z" />
    <glyph glyph-name="question" unicode="?" horiz-adv-x="540" 
d="M318 739l70 2q20 0 31 -2q96 0 139 -53q34 -42 34 -97q0 -17 -3 -35l-16 -101q-26 -163 -196 -163q-33 0 -72 6l-9 -48q-8 -49 -7 -53h-75l25 162q47 -1 83 -1t68.5 1.5t67 25.5t42.5 70l16 101q3 17 3 31q0 39 -23.5 61t-99.5 22h-271l9 51q58 8 81.5 10.5t57.5 6
t45 3.5zM212 105h53q22 0 22 -18q0 -3 -1 -7l-9 -57q-4 -23 -28 -23h-53q-24 0 -21 23l9 57q3 25 28 25z" />
    <glyph glyph-name="at" unicode="@" horiz-adv-x="868" 
d="M566 63q-61 -67 -155.5 -67t-134.5 59q-27 39 -27 117q0 45 10.5 113.5t35.5 124.5t57 84q57 50 121 50q162 0 227 -62l-59 -405q42 0 65 17t32 73l53 354q3 20 3 36q0 56 -36 65q-10 2 -23.5 2h-14.5h-382q-102 0 -119 -103l-81 -512q-3 -17 -3 -31q0 -83 88 -83h386
l-8 -47q-135 -27 -292 -27h-98q-77 0 -119 53q-31 41 -31 98q0 18 3 37l81 512q29 178 205 178h375q82 0 117 -46q26 -34 26 -89q0 -20 -3 -43l-53 -354q-12 -83 -50 -121q-16 -16 -47 -29.5t-72 -13.5h-54zM329 254q-6 -46 -6 -84.5t11 -60.5q17 -39 82 -39q40 0 74.5 12.5
t81.5 47.5l51 325q-60 16 -149 16q-118 0 -145 -217z" />
    <glyph glyph-name="A" unicode="A" horiz-adv-x="660" 
d="M45 0l385 732h74l141 -732h-75l-39 204h-297l-108 -204h-81zM273 278h244l-63 350z" />
    <glyph glyph-name="B" unicode="B" horiz-adv-x="597" 
d="M479 732q52 0 88 -18q75 -37 75 -145q0 -14 -2 -30q-16 -130 -119 -159q28 -5 49.5 -47t21.5 -93q0 -19 -2 -39q-25 -201 -227 -201h-283l116 732h283zM375 74q119 0 140 132q3 18 3 45t-17 55q-24 41 -83 41h-208l-43 -273h208zM430 421q116 0 135 121q3 19 3 34
q0 40 -22 61t-77 21h-209l-38 -237h208z" />
    <glyph glyph-name="C" unicode="C" horiz-adv-x="578" 
d="M291 716q52 24 130 24t235 -30l-9 -59q-114 15 -216 15q-39 0 -49.5 -0.5t-33 -6t-36 -16t-34.5 -32.5t-35 -53q-36 -78 -50 -166t-14 -122.5t1 -51.5q5 -64 37 -105t89 -45q20 -1 71 -1t182 9l-8 -59q-85 -23 -249 -23q-55 0 -94.5 23t-61.5 59q-41 71 -41 179
q0 52 13 129.5t33 141.5t54 115t86 75z" />
    <glyph glyph-name="D" unicode="D" horiz-adv-x="668" 
d="M469 732q64 0 109 -27t66 -67q37 -70 37 -176q0 -48 -10 -99q-63 -363 -318 -363h-273l116 731q0 1 273 1zM365 77q92 0 152 82.5t80 204.5q10 62 10 121t-21 101q-34 72 -129 72h-199l-92 -581h199z" />
    <glyph glyph-name="E" unicode="E" horiz-adv-x="567" 
d="M309 732h12l314 -16l-9 -58h-317q-32 0 -44.5 -15t-16.5 -41l-32 -200l328 -10l-10 -59l-330 -10l-32 -200q-4 -39 14 -46q16 -6 41 -6h307l-10 -57l-310 -17h-9q-49 0 -79 26.5t-30 72.5q0 12 2 27l76 479q21 130 135 130z" />
    <glyph glyph-name="F" unicode="F" horiz-adv-x="568" 
d="M310 732h12l314 -16l-9 -58h-317q-32 0 -44.5 -15t-16.5 -41l-31 -200l327 -10l-9 -59l-331 -10l-51 -323h-74l95 602q21 130 135 130z" />
    <glyph glyph-name="G" unicode="G" horiz-adv-x="609" 
d="M424 739q72 0 226 -29l-8 -59q-70 10 -156 11.5t-97.5 2.5t-24.5 -2.5t-26.5 -7t-27.5 -14.5t-27 -25t-26 -37.5t-25 -52.5q-24 -61 -35.5 -139t-11.5 -133.5t17 -103.5q28 -83 109 -83h2q35 0 83.5 13.5t79.5 27.5l31 14l34 192h-169l8 50q95 25 179 25q31 0 67 -3
l-61 -386h-57l-10 57q-26 -24 -82.5 -44t-110.5 -20t-93 23q-72 42 -94 146q-11 48 -11 98.5t13 125.5t33 139t55 115q66 99 211 99h5z" />
    <glyph glyph-name="H" unicode="H" horiz-adv-x="644" 
d="M85 0l116 732h74l-55 -341h350l55 341h74l-116 -732h-74l51 317h-350l-51 -317h-74z" />
    <glyph glyph-name="I" unicode="I" horiz-adv-x="225" 
d="M90 0l116 732h74l-116 -732h-74z" />
    <glyph glyph-name="J" unicode="J" horiz-adv-x="360" 
d="M51 75q61 -15 85 -15t37.5 4t31.5 14q35 20 46 87l90 567h74l-90 -567q-17 -113 -75 -147q-42 -24 -105 -24q-70 0 -107 27z" />
    <glyph glyph-name="K" unicode="K" horiz-adv-x="572" 
d="M80 0l116 732h74l-52 -328h87l275 328h92l-304 -370l188 -362h-89l-169 330h-91l-52 -330h-75z" />
    <glyph glyph-name="L" unicode="L" horiz-adv-x="535" 
d="M228 74h306l-11 -74h-308q-57 0 -87.5 27t-30.5 72q0 12 2 27l98 606h73l-97 -606q-6 -38 15 -46q15 -6 40 -6z" />
    <glyph glyph-name="M" unicode="M" horiz-adv-x="802" 
d="M71 0l164 732h96l102 -609l288 609h101l-60 -732h-74l52 599l-285 -599h-76l-99 598l-135 -598h-74z" />
    <glyph glyph-name="N" unicode="N" horiz-adv-x="660" 
d="M80 0l116 732h72l279 -594l94 594h74l-116 -732h-70l-280 594l-94 -594h-75z" />
    <glyph glyph-name="O" unicode="O" horiz-adv-x="667" 
d="M350.5 731q38.5 6 88 6t80 -3.5t60.5 -13.5t50 -27q46 -40 59 -113q5 -34 5 -60.5t-0.5 -57.5t-12 -106t-28.5 -134t-40.5 -99t-49 -65.5t-60.5 -39.5q-60 -22 -152 -22q-127 0 -178 38q-48 37 -62 109q-7 34 -7 60.5t0.5 57t14 116t37 155t50 110t67 62t79 27.5z
M211.5 471.5q-12.5 -47.5 -23.5 -117.5t-11.5 -97.5t-0.5 -53t9 -57t33.5 -48.5t54.5 -22.5t83.5 -5.5t90.5 10.5t70 41.5q63 59 90 239q13 80 13 134.5t-6.5 77t-13 37.5t-21 25.5t-25.5 16t-32 8.5q-31 3 -71.5 3t-59 -1t-46 -6.5t-42.5 -17t-34.5 -33t-32 -54t-25 -80z
" />
    <glyph glyph-name="P" unicode="P" horiz-adv-x="595" 
d="M497 732q70 0 113 -50q33 -37 33 -109q0 -106 -46 -195q-20 -39 -63 -64q-30 -16 -105 -16q-29 0 -127 7.5t-102 9.5l-51 -315h-74l116 732h306zM439 372q48 0 79.5 29t45.5 119q4 20 4 31.5t-1.5 25t-3.5 28t-10 24.5t-14.5 15.5t-17.5 8.5q-15 4 -36 4h-232l-45 -285
h231z" />
    <glyph glyph-name="Q" unicode="Q" horiz-adv-x="671" 
d="M354.5 731q38.5 6 88 6t80 -3.5t60.5 -13.5t50 -27q46 -40 59 -113q5 -34 5 -60.5t-0.5 -57.5t-12 -106t-28.5 -134t-40.5 -99t-49 -65.5t-60.5 -39.5q-60 -22 -152 -22q-127 0 -178 38q-48 37 -62 109q-7 34 -7 60.5t0.5 57t14 116t37 155t50 110t67 62t79 27.5z
M215.5 471.5q-12.5 -47.5 -23.5 -117.5t-11.5 -97.5t-0.5 -53t9 -57t33.5 -48.5t54.5 -22.5t83.5 -5.5t90.5 10.5t70 41.5q63 59 90 239q13 80 13 134.5t-6.5 77t-13 37.5t-21 25.5t-25.5 16t-32 8.5q-31 3 -71.5 3t-59 -1t-46 -6.5t-42.5 -17t-34.5 -33t-32 -54t-25 -80z
M361 -33q44 -35 86.5 -35t78.5 15l-13 -80q-33 -9 -55.5 -9h-31.5q-45 3 -81 32.5t-36 76.5h52z" />
    <glyph glyph-name="R" unicode="R" horiz-adv-x="610" 
d="M503 732q137 0 137 -169q0 -24 -3 -51q-19 -191 -159 -210l106 -302h-81l-99 294l-206 14l-49 -308h-74l116 732h312zM441 372q47 0 81 32.5t40 107.5q3 23 3 39t-2.5 34.5t-6 34.5t-14.5 24q-19 13 -51 13h-237l-45 -285h232z" />
    <glyph glyph-name="S" unicode="S" horiz-adv-x="571" 
d="M335 66q129 0 143 90l11 68q3 20 3 40t-7 34q-12 24 -64 24h-139q-154 0 -154 128q0 21 4 44l10 66q18 112 82 149q52 29 124 29q101 0 265 -24l-9 -59l-248 9h-16q-52 0 -83 -18.5t-41 -85.5l-10 -66q-3 -21 -3 -37t3 -26t8.5 -17.5t12.5 -10.5t16 -5t19 -2h171
q44 0 74 -15.5t42 -40.5q18 -37 18 -67t-4 -49l-11 -68q-7 -44 -26 -75.5t-41 -48t-53 -26.5q-49 -14 -104.5 -14t-135.5 8.5t-113 15.5l9 60q72 -10 247 -10z" />
    <glyph glyph-name="T" unicode="T" horiz-adv-x="579" 
d="M139 658l12 74h508l-12 -74h-220l-104 -658h-74l104 658h-214z" />
    <glyph glyph-name="U" unicode="U" horiz-adv-x="656" 
d="M202 302q-8 -61 -8 -85.5v-30.5q2 -46 23 -72t50 -35.5t77 -9.5q100 0 152.5 51.5t72.5 181.5l68 430h75l-68 -430q-8 -52 -17 -87.5t-30.5 -81t-52 -72.5t-83.5 -46.5t-123 -19.5q-127 0 -182 73q-37 50 -37 141q0 42 8 93l68 430h75z" />
    <glyph glyph-name="V" unicode="V" horiz-adv-x="670" 
d="M150 732h78l116 -613l321 613h85l-385 -732h-74z" />
    <glyph glyph-name="W" unicode="W" horiz-adv-x="1002" 
d="M150 732h75l117 -611l323 611h84l-130 -252l59 -365l323 617h81l-385 -732h-74l-61 374l-197 -374h-74z" />
    <glyph glyph-name="X" unicode="X" horiz-adv-x="601" 
d="M38 0l276 364l-163 368h78l134 -303l229 303h89l-285 -377l157 -355h-78l-128 290l-220 -290h-89z" />
    <glyph glyph-name="Y" unicode="Y" horiz-adv-x="630" 
d="M150 732h78l128 -381l266 381h88l-328 -472l-41 -260h-74l41 260z" />
    <glyph glyph-name="Z" unicode="Z" horiz-adv-x="564" 
d="M35 0l12 74l488 584h-396l12 74h493l-12 -74l-488 -584h396l-12 -74h-493z" />
    <glyph glyph-name="bracketleft" unicode="[" horiz-adv-x="321" 
d="M354 842h80l-12 -74h-80q-31 0 -49 -17t-26 -63l-115 -726q-4 -32 -4 -52t4 -28q9 -18 47 -18h80l-12 -74h-80q-43 0 -70 19t-34 46q-9 37 -9 64t4 43l115 726q12 76 45 115t116 39z" />
    <glyph glyph-name="backslash" unicode="\" horiz-adv-x="391" 
d="M141 770h71l148 -842h-71z" />
    <glyph glyph-name="bracketright" unicode="]" horiz-adv-x="322" 
d="M79 -136q31 0 49 17t26 63l115 726q5 32 5 52t-5 28q-9 18 -47 18h-80l12 74h80q43 0 70 -19t34 -46q10 -37 10 -64t-5 -43l-115 -726q-12 -76 -45 -115t-116 -39h-80l12 74h80z" />
    <glyph glyph-name="asciicircum" unicode="^" horiz-adv-x="392" 
d="M134 531l138 131h71l83 -131h-69l-52 80l-87 -80h-84z" />
    <glyph glyph-name="underscore" unicode="_" horiz-adv-x="673" 
d="M19 -1l12 74h634l-12 -74h-634z" />
    <glyph glyph-name="grave" unicode="`" horiz-adv-x="254" 
d="M125 664h87l106 -133h-69z" />
    <glyph glyph-name="a" unicode="a" horiz-adv-x="541" 
d="M242 525.5q28 11.5 54.5 14.5t58.5 3t102 -15t106 -49l-70 -479h-53l-11 60q-102 -67 -186 -67q-101 0 -135 52q-29 46 -29 119q0 48 12 119.5t35.5 125t55.5 79.5t60 37.5zM183 345.5q-13 -39.5 -21 -90.5t-8 -88t10 -59q19 -41 75 -41t95 11t100 37l52 337
q-74 20 -113 20t-61.5 -4.5t-36 -8.5t-34 -17.5t-33 -35t-25.5 -61z" />
    <glyph glyph-name="b" unicode="b" horiz-adv-x="554" 
d="M408 539q147 0 147 -177q0 -70 -24 -176q-7 -30 -24 -71.5t-38 -66t-54.5 -39.5t-72.5 -15q-51 0 -115 24t-85 41l-29 -59h-53l124 785h72l-45 -286q105 40 197 40zM482 374q0 91 -80 91q-95 0 -199 -26l-52 -325q107 -46 189 -46q55 0 86 48.5t43.5 132t12.5 125.5z" />
    <glyph glyph-name="c" unicode="c" horiz-adv-x="496" 
d="M152 170q0 -103 80 -103q94 0 198 8l39 3l-9 -56q-105 -28 -222 -28q-91 0 -133 66q-25 40 -25 96.5t12.5 128.5t35 129.5t53 83t57.5 33t86.5 7.5t205.5 -28l-8 -54q-138 8 -193 8t-67.5 -2.5t-28 -13t-26.5 -31.5q-24 -46 -39.5 -127.5t-15.5 -119.5z" />
    <glyph glyph-name="d" unicode="d" horiz-adv-x="552" 
d="M214 517q40 22 85.5 22t101 -11t97.5 -29l46 286h72l-125 -785h-53l-10 59q-30 -20 -90 -42.5t-107.5 -22.5t-82 25t-47.5 64q-19 57 -19 102.5t8.5 91.5t22 90t37.5 86t64 64zM163 263q-7 -43 -7 -79.5t10 -64.5q19 -51 69 -51q83 0 202 46l51 325q-95 26 -192 26
q-49 0 -81.5 -43.5t-51.5 -158.5z" />
    <glyph glyph-name="e" unicode="e" horiz-adv-x="525" 
d="M155 227q-8 -47 -8 -78.5t7 -48.5q16 -35 70 -36q26 -2 81.5 -2t167.5 16l-8 -56q-106 -29 -250 -29q-95 0 -124 69q-15 36 -15 90.5t13 125t27.5 112t42.5 79.5q53 72 194 72q101 0 151 -35q42 -29 42 -90q0 -80 -50 -130q-39 -40 -90 -54q-66 -18 -143 -18t-108 13z
M163 281q38 -3 55 -3t56.5 1.5t79 10.5t74.5 34q44 30 44 85q0 32 -24.5 45t-88 13t-98.5 -12t-53.5 -42.5t-25.5 -49.5q-11 -33 -19 -82z" />
    <glyph glyph-name="f" unicode="f" horiz-adv-x="403" 
d="M384 785q42 0 119 -24l-7 -49h-112q-50 0 -68 -28t-31 -117l-6 -36h165l-12 -74h-166l-76 -457h-74l75 457h-99l9 55l104 19l6 36q20 123 54.5 170.5t118.5 47.5z" />
    <glyph glyph-name="g" unicode="g" horiz-adv-x="553" 
d="M303 -199q37 0 65 24.5t35 70.5l21 133q-99 -38 -178 -38t-119 38.5t-43 101.5q-1 15 -1 49t8 95q20 125 78 193.5t142 68.5q85 0 169 -11t95 -12l-98 -618q-14 -88 -64 -128.5t-106 -40.5q-8 0 -16 1l-254 24l8 49h258zM165 268q-10 -41 -10 -82.5t4 -56t13 -31.5
q16 -34 70 -34q89 0 191 25l60 374h-182q-37 0 -66 -23t-45 -59q-26 -59 -35 -113z" />
    <glyph glyph-name="h" unicode="h" 
d="M416 540q76 0 112 -50q28 -38 28 -88q0 -16 -3 -32l-59 -370h-74l59 370q2 12 2 23q0 31 -18 52t-57.5 21t-74.5 -8t-57 -16.5t-75 -32.5l-65 -409h-74l124 784h74l-50 -315q49 33 124 57q40 14 84 14z" />
    <glyph glyph-name="i" unicode="i" horiz-adv-x="195" 
d="M60 0l84 531h74l-84 -531h-74zM182 695h50q20 0 20 -18q0 -3 -1 -7l-8 -54q-3 -23 -27 -23h-50q-20 0 -20 18v5l8 54q3 25 28 25z" />
    <glyph glyph-name="j" unicode="j" horiz-adv-x="217" 
d="M28 -270l127 801h74l-85 -535q-23 -155 -68 -266h-48zM194 695h50q20 0 20 -18q0 -3 -1 -7l-9 -54q-3 -23 -27 -23h-50q-20 0 -20 18v5l9 54q3 25 28 25z" />
    <glyph glyph-name="k" unicode="k" horiz-adv-x="490" 
d="M60 0l124 782h74l-74 -466q70 21 157.5 91t98.5 124h83q-21 -73 -96 -144.5t-137 -98.5l201 -288h-90l-186 268l-38 -1l-43 -267h-74z" />
    <glyph glyph-name="l" unicode="l" horiz-adv-x="290" 
d="M163 189q-6 -32 -6 -51.5t2 -30t9 -17.5q12 -11 61 -22.5t50 -11.5l-9 -56h-68q-118 0 -118 130q0 27 5 59l94 594h74z" />
    <glyph glyph-name="m" unicode="m" horiz-adv-x="898" 
d="M363.5 534q20.5 3 55 3t71 -24.5t47.5 -61.5q118 86 232 86q66 0 107 -49q33 -37 33 -90q0 -15 -3 -32l-58 -366h-74l58 366q2 10 2 20q0 29 -20 53t-57 24q-63 0 -106.5 -12t-98.5 -44l-64 -407h-74l58 366q2 10 2 19q0 30 -20.5 54t-57.5 24q-30 0 -45.5 -2.5
t-22.5 -3.5t-20.5 -5.5t-18.5 -5.5t-21.5 -8t-20 -8.5t-24 -11t-25.5 -11.5l-64 -407h-74l84 531h52l12 -64q6 3 36.5 19.5t40.5 21t34 14t44.5 12.5z" />
    <glyph glyph-name="n" unicode="n" 
d="M416 540q76 0 112 -50q28 -38 28 -88q0 -16 -3 -32l-59 -370h-74l59 370q2 12 2 22q0 32 -18.5 53t-57.5 21t-74 -8t-57 -16.5t-75 -32.5l-65 -409h-74l84 531h52l12 -62q49 33 124 57q40 14 84 14z" />
    <glyph glyph-name="o" unicode="o" horiz-adv-x="564" 
d="M173 477.5q59 58.5 187.5 58.5t174.5 -68q30 -45 30 -121q0 -40 -8 -89q-25 -150 -80.5 -206.5t-185 -56.5t-177.5 61q-32 41 -32 120q0 37 7 82q25 161 84 219.5zM190 367.5q-15 -40.5 -25 -99.5t-10 -88.5t6.5 -48.5t16.5 -32t29 -19q31 -11 81 -11t75.5 5t51.5 23.5
t41.5 57.5t25.5 97.5t10 102.5t-16 67q-28 40 -120 40q-47 0 -74 -6t-52 -27t-40 -61.5z" />
    <glyph glyph-name="p" unicode="p" horiz-adv-x="559" 
d="M403 534q156 0 156 -197q0 -169 -75 -271q-53 -74 -147 -74q-40 0 -98.5 9.5t-99.5 27.5l-49 -299h-73l133 791q110 13 253 13zM373 75q25 11 45 30q41 37 61 158q7 44 7 78q0 119 -87 119h-187l-62 -370q78 -26 138 -26t85 11z" />
    <glyph glyph-name="q" unicode="q" horiz-adv-x="553" 
d="M318 537q85 0 165.5 -11t91.5 -12l-124 -784h-74l47 299q-102 -39 -179.5 -39t-116.5 37t-44 99q-1 17 -1 51t8 91q43 269 227 269zM177 326.5q-8 -28.5 -15 -79.5t-7 -81.5t3 -42.5q13 -59 85 -59q89 0 191 25l59 374h-187q-35 0 -62.5 -20.5t-43 -54t-23.5 -62z" />
    <glyph glyph-name="r" unicode="r" horiz-adv-x="427" 
d="M384 535q16 2 53.5 2t52.5 -8l-12 -73q-24 6 -67.5 6t-79 -8t-57.5 -17t-76 -33l-64 -404h-74l84 531h52l11 -67q6 3 27.5 14.5t29.5 15.5t27 13t30.5 12.5t29 8.5t33.5 7z" />
    <glyph glyph-name="s" unicode="s" horiz-adv-x="508" 
d="M420 172q2 9 2 20.5t-8.5 23t-40.5 11.5h-148q-74 0 -102.5 26t-28.5 71q0 16 3 34l8 51q11 67 47.5 99.5t122 32.5t248.5 -16l-9 -57h-261q-56 0 -69 -40q-3 -8 -5 -19l-8 -51q-4 -13 -2 -22t2 -15.5t5.5 -10t7.5 -6t9.5 -3t10.5 -1t11 0t11 0.5h150q64 0 92 -32t28 -73
q0 -11 -2 -24l-9 -63q-12 -78 -61 -101q-39 -18 -89 -18q-95 0 -271 19l9 55h274q19 -3 39.5 12t24.5 42z" />
    <glyph glyph-name="t" unicode="t" horiz-adv-x="378" 
d="M263 0q-119 0 -119 128q0 27 5 61l42 269h-99l9 56l102 18l41 148h56l-23 -148h155l-12 -74h-155l-42 -269q-3 -38 -4.5 -50.5t-1.5 -22t7 -20t15 -14.5t53.5 -15t46.5 -11l-8 -56h-68z" />
    <glyph glyph-name="u" unicode="u" horiz-adv-x="543" 
d="M148 134q0 -69 77 -69q67 0 130 25q22 8 75 32l64 409h74l-84 -531h-52l-12 62q-23 -14 -39.5 -21.5t-33.5 -16t-25.5 -11.5t-24.5 -8.5t-27 -7.5q-35 -6 -57 -6q-77 0 -113 48q-27 36 -27 87q0 16 3 35l58 370h74l-58 -370q-2 -15 -2 -27z" />
    <glyph glyph-name="v" unicode="v" horiz-adv-x="515" 
d="M546 531q7 -21 7 -44t-12 -48l-229 -439h-93l-125 531h77l104 -440l186 360q20 41 26 80h59z" />
    <glyph glyph-name="w" unicode="w" horiz-adv-x="798" 
d="M536 528q7 -21 7 -44t-12 -48l-29 -65l54 -269l194 349q20 41 26 80h55q7 -23 7 -46t-12 -46l-247 -439h-73l-58 280l-147 -280h-82l-125 531h74l101 -435l187 352q20 41 26 80h54z" />
    <glyph glyph-name="x" unicode="x" horiz-adv-x="524" 
d="M24 0l235 268l-151 263h85l117 -204l179 204h95l-235 -272l148 -259h-85l-115 200l-173 -200h-100z" />
    <glyph glyph-name="y" unicode="y" horiz-adv-x="549" 
d="M235 116q4 -22 20 -31t24 -9h9l15 1l193 376q18 34 25 80h61q6 -19 6 -43t-15 -53l-221 -436q-66 -129 -121 -192t-133 -78v53q57 38 101 103q35 52 66 113q-26 0 -51 14q-47 26 -57 96l-63 421h77z" />
    <glyph glyph-name="z" unicode="z" horiz-adv-x="456" 
d="M45 1l9 74l345 382h-295l10 74h396l-10 -74l-339 -382h276l-11 -74h-381z" />
    <glyph glyph-name="braceleft" unicode="{" horiz-adv-x="320" 
d="M178 -45q0 -91 90 -91h10l-12 -74q-68 0 -108 33q-54 46 -54 130q0 24 4 50l40 244q1 5 1 9q0 24 -23 39t-52 15h-7l11 67h22q52 0 67 19q7 9 9 24l37 236q30 186 220 186l-12 -74h-4q-112 0 -130 -112l-37 -236q-6 -34 -33 -55.5t-66 -28.5q35 -5 53.5 -27t18.5 -46
q0 -6 -1 -12l-40 -248q-4 -27 -4 -48z" />
    <glyph glyph-name="bar" unicode="|" horiz-adv-x="245" 
d="M74 -72l133 842h74l-133 -842h-74z" />
    <glyph glyph-name="braceright" unicode="}" horiz-adv-x="315" 
d="M242 677q0 91 -90 91h-10l12 74q68 0 108 -33q54 -46 54 -130q0 -24 -4 -50l-40 -244q-1 -5 -1 -9q0 -24 23 -39t52 -15h7l-11 -67h-22q-52 0 -67 -19q-7 -9 -9 -24l-38 -236q-30 -186 -219 -186l12 74h4q111 0 129 112l38 236q6 34 32.5 55.5t65.5 28.5q-35 5 -53 27
t-18 46q0 6 1 12l40 248q4 27 4 48z" />
    <glyph glyph-name="asciitilde" unicode="~" horiz-adv-x="438" 
d="M368 605q40 0 100 40l15 -42q-3 -2 -24 -20.5t-32 -26.5q-37 -25 -65 -25t-59 17.5t-49 17.5t-33 -5.5t-34 -15t-32 -14.5l-15 41q8 6 30 23.5t32 24.5q32 20 60 20t57 -17.5t49 -17.5z" />
    <glyph glyph-name="exclamdown" unicode="&#xa1;" horiz-adv-x="271" 
d="M45 -269l95 531h75l-73 -531h-97zM147 385l8 54q3 21 28 23h49q9 -1 15 -8.5t5 -17.5l-8 -51q-5 -20 -24 -25h-56q-19 1 -17 25z" />
    <glyph glyph-name="cent" unicode="&#xa2;" horiz-adv-x="489" 
d="M143 170q0 -103 80 -103q94 0 198 8l39 3l-9 -56q-80 -22 -164 -27l-13 -91h-60l13 90q-156 2 -156 177q0 42 11 106.5t29.5 116.5t38 81t48 44t48 17.5t36 2.5t31.5 -1l16 96h60l-17 -101q77 -9 150 -23l-9 -54q-138 8 -193 8t-67.5 -2.5t-28 -13t-26.5 -31.5
q-24 -46 -39.5 -127.5t-15.5 -119.5z" />
    <glyph glyph-name="sterling" unicode="&#xa3;" horiz-adv-x="596" 
d="M624 720l35 -4l-9 -57h-187q-100 0 -135.5 -28.5t-51.5 -125.5l-18 -113l268 -17l-7 -45h-271l-40 -256h349l-12 -74h-495l9 59l75 15l40 256h-72l7 45l75 17l18 113q21 135 81 183q21 16 38.5 24.5t45.5 13.5q40 6 95 6t162 -12z" />
    <glyph glyph-name="currency" unicode="&#xa4;" horiz-adv-x="465" 
d="M111 293q0 11 2 22q8 57 37 91l-37 44l46 36l35 -42q46 30 103.5 30t94.5 -32l56 47l34 -47l-55 -47q15 -30 15 -52.5t-2 -35.5q-8 -57 -39 -95l44 -53l-48 -37l-40 49q-39 -27 -96 -27t-94 30l-52 -45l-36 48l52 44q-20 37 -20 72zM172 294q0 -32 23 -60q23 -29 66 -29
q98 0 120 104q2 11 2 21q0 29 -21.5 57t-66.5 28q-51 0 -82 -29q-41 -37 -41 -92z" />
    <glyph glyph-name="yen" unicode="&#xa5;" horiz-adv-x="601" 
d="M106 153l9 59h165l7 50h-164l10 59h159l-156 411h78l128 -333l265 333h89l-324 -411h188l-10 -59h-189l-7 -50h188l-9 -59h-186l-20 -153h-74l20 153h-167z" />
    <glyph glyph-name="brokenbar" unicode="&#xa6;" horiz-adv-x="246" 
d="M74 -72l52 328h74l-52 -328h-74zM153 429l54 341h74l-54 -341h-74z" />
    <glyph glyph-name="section" unicode="&#xa7;" horiz-adv-x="551" 
d="M221 579q0 -36 49 -36h179q62 0 88 -31.5t26 -70.5q0 -12 -2 -25l-10 -62q-12 -83 -55 -89q30 -12 30 -56q0 -12 -2 -26l-11 -73q-12 -73 -44.5 -95.5t-116 -22.5t-259.5 19l9 55h266q31 0 48.5 8.5t22.5 35.5l11 73q2 9 2 21t-9.5 19t-42.5 7h-173q-60 0 -89 27.5
t-29 68.5q0 13 2 27l10 62q6 40 19.5 62.5t39.5 30.5q-34 23 -34 59q0 11 2 23l11 70q20 124 149 124q95 0 271 -19l-8 -55h-274q-28 0 -43.5 -11t-20.5 -39l-11 -70q-1 -6 -1 -11zM184 353q-2 -10 -2 -22t9.5 -19.5t40.5 -7.5h179q43 0 54 15q9 12 12 35l10 62q3 15 3 29
q0 25 -52 25h-179q-34 0 -46.5 -10t-18.5 -46z" />
    <glyph glyph-name="dieresis" unicode="&#xa8;" horiz-adv-x="456" 
d="M201 632q21 0 32 -13t11 -23q0 -32 -19 -48.5t-40 -16.5t-32.5 13.5t-11.5 23.5q0 32 19.5 48t40.5 16zM456 632q21 0 32 -13t11 -23q0 -32 -19 -48.5t-40 -16.5t-32.5 13.5t-11.5 23.5q0 32 19.5 48t40.5 16z" />
    <glyph glyph-name="copyright" unicode="&#xa9;" horiz-adv-x="805" 
d="M395 732h260q55 0 91.5 -26.5t52.5 -65.5q23 -55 23 -150q0 -50 -11.5 -124t-32.5 -137.5t-52.5 -116t-76.5 -82.5t-100 -30h-260q-55 0 -93.5 28.5t-57.5 69.5q-35 79 -35 185q0 45 7 85q55 364 285 364zM174 368q-8 -43 -8 -70t1.5 -59.5t13.5 -76t40.5 -71t69.5 -27.5
h266q62 0 115 78q64 97 86 304q2 27 2 48t-0.5 48t-10 56t-33 49.5t-61.5 20.5h-270q-75 0 -130 -66t-81 -234zM341 300q0 -89 64 -89q72 0 187 16l-8 -52q-104 -28 -189 -28q-64 0 -95 54q-21 34 -21 79t7 85q20 124 65 171t113 47q44 0 174 -24l-8 -52q-83 12 -176 12
q-80 0 -105 -157q-8 -34 -8 -62z" />
    <glyph glyph-name="ordfeminine" unicode="&#xaa;" horiz-adv-x="370" 
d="M72 268l9 58h304l-9 -58h-304zM112 560q27 173 180 173q20 0 72.5 -12t75.5 -34l-45 -306h-34l-10 56q-20 -22 -57 -41t-66 -19t-50 8t-40.5 28t-24 46.5t-4.5 49.5t3 51zM169 511q0 -71 60 -71q31 0 58 12.5t68 39.5l23 167q-52 13 -77.5 13t-40 -3.5t-25 -8.5
t-24.5 -18q-29 -25 -39 -96q-3 -19 -3 -35z" />
    <glyph glyph-name="guillemotleft" unicode="&#xab;" horiz-adv-x="556" 
d="M106 354l238 203l46 -54l-183 -156l131 -154l-54 -47zM296 354l238 203l46 -54l-183 -156l131 -154l-54 -47z" />
    <glyph glyph-name="logicalnot" unicode="&#xac;" horiz-adv-x="527" 
d="M90 256l12 74h427l-27 -171h-74l15 97h-353z" />
    <glyph glyph-name="uni00AD" unicode="&#xad;" horiz-adv-x="355" 
d="M60 253l12 74h314l-12 -74h-314z" />
    <glyph glyph-name="registered" unicode="&#xae;" horiz-adv-x="805" 
d="M395 732h260q55 0 91.5 -26.5t52.5 -65.5q23 -55 23 -150q0 -50 -11.5 -124t-32.5 -137.5t-52.5 -116t-76.5 -82.5t-100 -30h-260q-55 0 -93.5 28.5t-57.5 69.5q-35 79 -35 185q0 45 7 85q55 364 285 364zM174 368q-8 -43 -8 -70t1.5 -59.5t13.5 -76t40.5 -71t69.5 -27.5
h266q62 0 115 78q64 97 86 304q2 27 2 48t-0.5 48t-10 56t-33 49.5t-61.5 20.5h-270q-75 0 -130 -66t-81 -234zM527 580q46 0 81 -26q34 -24 34 -82q0 -67 -30 -112q-8 -12 -23 -20.5t-22 -10.5q-28 -8 -43 -8l64 -168h-72l-64 170l-77 12l-29 -182h-64l68 427h177zM501 379
q39 0 53.5 14t21.5 58q2 12 2 21t-2.5 19.5t-13.5 16.5q-16 8 -39 8h-119l-22 -137h119z" />
    <glyph glyph-name="macron" unicode="&#xaf;" horiz-adv-x="392" 
d="M134 531l10 63h292l-10 -63h-292z" />
    <glyph glyph-name="degree" unicode="&#xb0;" horiz-adv-x="300" 
d="M148 632q0 43 30 73t72 30t71.5 -30t29.5 -73t-29.5 -72.5t-71.5 -29.5t-72 29.5t-30 72.5zM195 632q0 -22 16 -38t38.5 -16t38.5 16t16 38.5t-16 38.5t-38 16t-38.5 -16.5t-16.5 -38.5z" />
    <glyph glyph-name="plusminus" unicode="&#xb1;" horiz-adv-x="526" 
d="M69 87l12 74h416l-12 -74h-416zM117 387l11 74h170l27 171h74l-27 -171h172l-11 -74h-172l-28 -171h-74l28 171h-170z" />
    <glyph glyph-name="twosuperior" unicode="&#xb2;" horiz-adv-x="385" 
d="M350.5 641.5q19.5 30.5 22.5 50.5t3 37t-11.5 32t-53.5 15h-172q-3 0 5 36l2 11q126 15 176.5 15t77.5 -26q42 -39 42 -91q0 -10 -2 -19q-8 -52 -43.5 -104t-72 -83t-77 -61.5t-45.5 -35.5h192l-10 -62h-309l9 58q8 6 45.5 31.5t60.5 42t59.5 46.5t59 53.5t42 54z" />
    <glyph glyph-name="threesuperior" unicode="&#xb3;" horiz-adv-x="405" 
d="M377 587q32 -23 32 -71q0 -8 -1 -17l-4 -28q-9 -58 -41 -88.5t-100 -30.5h-5.5h-21.5h-42t-24.5 0.5t-18.5 1.5t-20.5 2.5t-18.5 3.5q-15 3 -36 10l8 43l177 1q71 0 81 61l4 23q2 9 2 17q0 50 -59 52l-141 5l8 48l143 6q70 3 79 64l3 22q1 9 1 22.5t-10.5 25.5t-49.5 12
h-186l7 43q54 18 173 18h24q55 -1 79.5 -31.5t24.5 -66.5q0 -9 -1 -19l-6 -35q-6 -35 -22.5 -60.5t-37.5 -33.5z" />
    <glyph glyph-name="acute" unicode="&#xb4;" horiz-adv-x="242" 
d="M104 531l128 133h95l-154 -133h-69z" />
    <glyph glyph-name="uni00B5" unicode="&#xb5;" horiz-adv-x="594" 
d="M187 138q0 -31 18.5 -52t57.5 -21t74 8t57 16.5t75 32.5l65 409h74l-84 -531h-52l-12 62q-49 -33 -124 -58q-40 -13 -88 -13t-82 25l-45 -286h-74l127 801h74l-59 -370q-2 -12 -2 -23z" />
    <glyph glyph-name="paragraph" unicode="&#xb6;" horiz-adv-x="581" 
d="M312 732h365l-12 -76h-69l-104 -656h-74l104 658h-94l-147 -928h-74l102 642q-1 0 -8.5 -3.5t-14.5 -6.5q-23 -7 -38 -7q-75 0 -107 45q-25 35 -25 76q0 11 2 23l14 93q22 140 180 140zM191 482q0 -53 69 -53h57l37 232h-54q-83 0 -93 -71l-14 -89q-2 -11 -2 -19z" />
    <glyph glyph-name="periodcentered" unicode="&#xb7;" horiz-adv-x="271" 
d="M177 436h53q22 0 22 -18q0 -3 -1 -7l-9 -57q-4 -23 -28 -23h-53q-24 0 -21 23l9 57q3 25 28 25z" />
    <glyph glyph-name="cedilla" unicode="&#xb8;" horiz-adv-x="251" 
d="M73 -173h-51l6 37l55 15q35 14 46 84h67q-12 -78 -38 -107t-85 -29z" />
    <glyph glyph-name="onesuperior" unicode="&#xb9;" horiz-adv-x="277" 
d="M115 725l7 42q36 0 72 16.5t54 33.5l19 17h60l-76 -478h-62l65 403q-44 -34 -139 -34z" />
    <glyph glyph-name="ordmasculine" unicode="&#xba;" horiz-adv-x="388" 
d="M83 271l9 58h307l-9 -58h-307zM426 697q25 -29 25 -87q0 -27 -5 -60q-16 -99 -54.5 -138.5t-130.5 -39.5t-126 42q-24 30 -24 84q0 24 5 52q17 106 55 146q39 42 129.5 42t125.5 -41zM174 507.5q0 -18.5 1.5 -30.5t9 -20.5t12.5 -12.5t19 -6q18 -4 45.5 -4t41 1.5
t32.5 11.5q35 18 49 103q6 38 6 57t-4 31.5t-9 20t-19 11.5q-21 6 -54.5 6t-49.5 -2.5t-33 -14.5t-26.5 -38t-15 -60.5t-5.5 -53z" />
    <glyph glyph-name="guillemotright" unicode="&#xbb;" horiz-adv-x="553" 
d="M81 200l183 156l-131 154l54 47l178 -208l-238 -203zM275 200l183 156l-131 154l54 47l178 -208l-238 -203z" />
    <glyph glyph-name="onequarter" unicode="&#xbc;" horiz-adv-x="903" 
d="M115 625l7 42q36 0 72 16.5t54 33.5l19 17h60l-76 -478h-62l65 403q-44 -34 -139 -34zM172 0l588 770h61l-588 -770h-61zM518 144l261 331h74l-224 -290h161l19 121l36 48h34l-27 -169h59l-8 -52l-61 -13l-19 -120h-62l19 120h-243z" />
    <glyph glyph-name="onehalf" unicode="&#xbd;" horiz-adv-x="984" 
d="M115 625l7 42q36 0 72 16.5t54 33.5l19 17h60l-76 -478h-62l65 403q-44 -34 -139 -34zM161 0l588 770h61l-588 -770h-61zM909.5 285.5q19.5 30.5 22.5 50.5t3 37t-11.5 32t-53.5 15h-172q-3 0 4 36l3 11q126 15 176.5 15t78.5 -26q41 -39 41 -91q0 -10 -2 -19
q-8 -52 -43.5 -104t-72 -83t-77 -61.5t-45.5 -35.5h192l-10 -62h-309l9 58q8 6 45.5 31.5t60.5 42t59.5 46.5t59 53.5t42 54z" />
    <glyph glyph-name="threequarters" unicode="&#xbe;" horiz-adv-x="1018" 
d="M377 487q32 -23 32 -71q0 -8 -1 -17l-4 -28q-9 -58 -41 -88.5t-100 -30.5h-5.5h-21.5h-42t-24.5 0.5t-18.5 1.5t-20.5 2.5t-18.5 3.5q-15 3 -36 10l8 43l177 1q71 0 81 61l4 23q2 9 2 17q0 50 -59 52l-141 5l8 48l143 6q70 3 79 64l3 22q1 9 1 22.5t-10.5 25.5t-49.5 12
h-186l7 43q54 18 173 18h24q55 -1 79.5 -31.5t24.5 -66.5q0 -9 -1 -19l-6 -35q-6 -35 -22.5 -60.5t-37.5 -33.5zM270 0l588 770h61l-588 -770h-61zM603 144l261 331h73l-224 -290h162l19 121l36 48h34l-27 -169h58l-8 -52l-60 -13l-19 -120h-63l20 120h-244z" />
    <glyph glyph-name="questiondown" unicode="&#xbf;" horiz-adv-x="538" 
d="M292 -269l-71 -3q-17 0 -26 2q-96 0 -139 54q-33 41 -33 96q0 17 3 35l16 101q26 163 196 163q33 0 72 -6l8 49q9 48 8 52h75l-26 -162q-47 1 -83 1t-68.5 -1.5t-66.5 -25.5t-42 -70l-16 -101q-3 -17 -3 -32q0 -38 23 -60t99 -22h271l-8 -51q-48 -7 -109 -13.5t-72 -6.5z
M370 469h55q24 0 21 -23l-9 -57q-3 -25 -28 -25h-55q-20 0 -20 18q0 3 1 7l9 57q3 23 26 23z" />
    <glyph glyph-name="Agrave" unicode="&#xc0;" horiz-adv-x="660" 
d="M319 930h87l106 -133h-69zM45 0l385 732h74l141 -732h-75l-39 204h-297l-108 -204h-81zM273 278h244l-63 350z" />
    <glyph glyph-name="Aacute" unicode="&#xc1;" horiz-adv-x="660" 
d="M443 797l128 133h95l-154 -133h-69zM45 0l385 732h74l141 -732h-75l-39 204h-297l-108 -204h-81zM273 278h244l-63 350z" />
    <glyph glyph-name="Acircumflex" unicode="&#xc2;" horiz-adv-x="660" 
d="M331 797l138 130h71l83 -130h-65l-57 83l-90 -83h-80zM45 0l385 732h74l141 -732h-75l-39 204h-297l-108 -204h-81zM273 278h244l-63 350z" />
    <glyph glyph-name="Atilde" unicode="&#xc3;" horiz-adv-x="660" 
d="M516.5 876q14.5 -8 20.5 -8h11.5t29.5 8q49 16 64 26l15 -42q-9 -6 -30 -21q-61 -41 -94 -41q-36 0 -60 18q-44 32 -116 -5l-28 -14l-15 41q30 22 46 32q47 32 75.5 31.5t47.5 -9t33.5 -16.5zM45 0l385 732h74l141 -732h-75l-39 204h-297l-108 -204h-81zM273 278h244
l-63 350z" />
    <glyph glyph-name="Adieresis" unicode="&#xc4;" horiz-adv-x="660" 
d="M366 898q21 0 32 -13t11 -23t-1 -19t-10 -21q-18 -25 -43 -25t-36.5 13.5t-11.5 23.5q0 32 19 48t40 16zM621 898q21 0 32 -13t11 -23q0 -32 -18.5 -48.5t-39.5 -16.5t-32.5 13.5t-11.5 23.5q0 32 19 48t40 16zM45 0l385 732h74l141 -732h-75l-39 204h-297l-108 -204h-81
zM273 278h244l-63 350z" />
    <glyph glyph-name="Aring" unicode="&#xc5;" horiz-adv-x="660" 
d="M494 935q-42 0 -77 -32t-35 -81q0 -36 26 -64t68 -28t76 31.5t34 80.5q0 37 -25 65t-67 28zM453 785.5q-12 7.5 -18 19.5t-4.5 31t19 35t40 16t36 -15t13.5 -37.5t-19 -40.5q-17 -16 -36 -16t-31 7.5zM45 0l385 732h74l141 -732h-75l-39 204h-297l-108 -204h-81zM273 278
h244l-63 350z" />
    <glyph glyph-name="AE" unicode="&#xc6;" horiz-adv-x="921" 
d="M622 733l50 -1l317 -16l-9 -59h-320q-35 0 -45 -17q-9 -14 -13 -36l-33 -207l328 -10l-9 -59l-332 -10l-31 -197q-6 -38 15 -46q15 -6 40 -6h307l-10 -57l-310 -17h-9q-49 0 -79 26.5t-30 72.5q0 12 2 27l16 109h-201l-151 -230h-85l394 604q26 40 53 67t46.5 36.5
t28.5 14.5q19 11 70 11zM313 304h167l56 336z" />
    <glyph glyph-name="Ccedilla" unicode="&#xc7;" horiz-adv-x="578" 
d="M291 716q52 24 130 24t235 -30l-9 -59q-114 15 -216 15q-73 0 -88 -7.5t-32.5 -18t-28 -24.5t-26 -37t-26.5 -53q-24 -69 -36.5 -146t-12.5 -111.5t1 -50.5q4 -64 35.5 -105t88.5 -45q20 -1 71 -1t182 9l-8 -59q-85 -23 -249 -23q-55 0 -94.5 23t-61.5 59q-41 71 -41 179
q0 52 13 129.5t33 141.5t54 115t86 75zM240 -173h-51l6 37l55 15q34 9 46 84h67q-12 -78 -38 -107t-85 -29z" />
    <glyph glyph-name="Egrave" unicode="&#xc8;" horiz-adv-x="567" 
d="M279 925h87l106 -133h-69zM309 732h12l314 -16l-9 -58h-317q-32 0 -44.5 -15t-16.5 -41l-32 -200l328 -10l-10 -59l-330 -10l-32 -200q-4 -39 14 -46q16 -6 41 -6h307l-10 -57l-310 -17h-9q-49 0 -79 26.5t-30 72.5q0 12 2 27l76 479q21 130 135 130z" />
    <glyph glyph-name="Eacute" unicode="&#xc9;" horiz-adv-x="567" 
d="M398 792l128 133h95l-154 -133h-69zM309 732h12l314 -16l-9 -58h-317q-32 0 -44.5 -15t-16.5 -41l-32 -200l328 -10l-10 -59l-330 -10l-32 -200q-4 -39 14 -46q16 -6 41 -6h307l-10 -57l-310 -17h-9q-49 0 -79 26.5t-30 72.5q0 12 2 27l76 479q21 130 135 130z" />
    <glyph glyph-name="Ecircumflex" unicode="&#xca;" horiz-adv-x="567" 
d="M285 792l138 131h71l83 -131h-69l-52 80l-87 -80h-84zM309 732h12l314 -16l-9 -58h-317q-32 0 -44.5 -15t-16.5 -41l-32 -200l328 -10l-10 -59l-330 -10l-32 -200q-4 -39 14 -46q16 -6 41 -6h307l-10 -57l-310 -17h-9q-49 0 -79 26.5t-30 72.5q0 12 2 27l76 479
q21 130 135 130z" />
    <glyph glyph-name="Edieresis" unicode="&#xcb;" horiz-adv-x="567" 
d="M313 893q21 0 32 -13t11 -23q0 -32 -19 -48.5t-40 -16.5t-32.5 13.5t-11.5 23.5q0 32 19.5 48t40.5 16zM568 893q21 0 32 -13t11 -23q0 -32 -19 -48.5t-40 -16.5t-32.5 13.5t-11.5 23.5q0 32 19.5 48t40.5 16zM309 732h12l314 -16l-9 -58h-317q-32 0 -44.5 -15t-16.5 -41
l-32 -200l328 -10l-10 -59l-330 -10l-32 -200q-4 -39 14 -46q16 -6 41 -6h307l-10 -57l-310 -17h-9q-49 0 -79 26.5t-30 72.5q0 12 2 27l76 479q21 130 135 130z" />
    <glyph glyph-name="Igrave" unicode="&#xcc;" horiz-adv-x="225" 
d="M95 930h87l106 -133h-69zM90 0l116 732h74l-116 -732h-74z" />
    <glyph glyph-name="Iacute" unicode="&#xcd;" horiz-adv-x="225" 
d="M219 797l128 133h95l-154 -133h-69zM90 0l116 732h74l-116 -732h-74z" />
    <glyph glyph-name="Icircumflex" unicode="&#xce;" horiz-adv-x="225" 
d="M107 797l138 130h71l83 -130h-65l-57 83l-90 -83h-80zM90 0l116 732h74l-116 -732h-74z" />
    <glyph glyph-name="Idieresis" unicode="&#xcf;" horiz-adv-x="225" 
d="M142 898q21 0 32 -13t11 -23t-1 -17t-6.5 -16.5t-12.5 -16.5q-17 -15 -38 -15t-32.5 13.5t-11.5 23.5q0 32 19 48t40 16zM397 898q21 0 32 -13t11 -23q0 -32 -18.5 -48.5t-39.5 -16.5t-32.5 13.5t-11.5 23.5q0 32 19 48t40 16zM90 0l116 732h74l-116 -732h-74z" />
    <glyph glyph-name="Eth" unicode="&#xd0;" horiz-adv-x="668" 
d="M468 732q64 0 109 -27t67 -67q37 -69 37 -176q0 -48 -10 -99q-63 -363 -319 -363h-273l55 346h-65l9 54h65l52 331q0 1 273 1zM364 77q92 0 152 82.5t80 204.5q10 62 10 121t-20 101q-35 72 -130 72h-199l-40 -258h139l-9 -54h-139l-43 -269h199z" />
    <glyph glyph-name="Ntilde" unicode="&#xd1;" horiz-adv-x="660" 
d="M481 879q30 -16 36.5 -16h15t45.5 14.5t45 19.5l15 -42q-9 -6 -30.5 -20.5t-33.5 -21.5q-61 -37 -120 -3q-28 17 -46 17t-33.5 -5t-37 -16t-27.5 -14l-15 41l45 33q47 31 83 31q28 -2 58 -18zM80 0l116 732h72l279 -594l94 594h74l-116 -732h-70l-280 594l-94 -594h-75z
" />
    <glyph glyph-name="Ograve" unicode="&#xd2;" horiz-adv-x="667" 
d="M299 930h87l106 -133h-69zM350.5 731q38.5 6 88 6t80 -3.5t60.5 -13.5t50 -27q46 -40 59 -113q5 -34 5 -60.5t-0.5 -57.5t-12 -106t-28.5 -134t-40.5 -99t-49 -65.5t-60.5 -39.5q-60 -22 -152 -22q-127 0 -178 38q-48 37 -62 109q-7 34 -7 60.5t0.5 57t14 116t37 155
t50 110t67 62t79 27.5zM211.5 471.5q-12.5 -47.5 -23.5 -117.5t-11.5 -97.5t-0.5 -53t9 -57t33.5 -48.5t54.5 -22.5t83.5 -5.5t90.5 10.5t70 41.5q63 59 90 239q13 80 13 134.5t-6.5 77t-13 37.5t-21 25.5t-25.5 16t-32 8.5q-31 3 -71.5 3t-59 -1t-46 -6.5t-42.5 -17
t-34.5 -33t-32 -54t-25 -80z" />
    <glyph glyph-name="Oacute" unicode="&#xd3;" horiz-adv-x="667" 
d="M423 797l128 133h95l-154 -133h-69zM350.5 731q38.5 6 88 6t80 -3.5t60.5 -13.5t50 -27q46 -40 59 -113q5 -34 5 -60.5t-0.5 -57.5t-12 -106t-28.5 -134t-40.5 -99t-49 -65.5t-60.5 -39.5q-60 -22 -152 -22q-127 0 -178 38q-48 37 -62 109q-7 34 -7 60.5t0.5 57t14 116
t37 155t50 110t67 62t79 27.5zM211.5 471.5q-12.5 -47.5 -23.5 -117.5t-11.5 -97.5t-0.5 -53t9 -57t33.5 -48.5t54.5 -22.5t83.5 -5.5t90.5 10.5t70 41.5q63 59 90 239q13 80 13 134.5t-6.5 77t-13 37.5t-21 25.5t-25.5 16t-32 8.5q-31 3 -71.5 3t-59 -1t-46 -6.5t-42.5 -17
t-34.5 -33t-32 -54t-25 -80z" />
    <glyph glyph-name="Ocircumflex" unicode="&#xd4;" horiz-adv-x="667" 
d="M312 797l138 130h71l83 -130h-65l-57 83l-90 -83h-80zM350.5 731q38.5 6 88 6t80 -3.5t60.5 -13.5t50 -27q46 -40 59 -113q5 -34 5 -60.5t-0.5 -57.5t-12 -106t-28.5 -134t-40.5 -99t-49 -65.5t-60.5 -39.5q-60 -22 -152 -22q-127 0 -178 38q-48 37 -62 109
q-7 34 -7 60.5t0.5 57t14 116t37 155t50 110t67 62t79 27.5zM211.5 471.5q-12.5 -47.5 -23.5 -117.5t-11.5 -97.5t-0.5 -53t9 -57t33.5 -48.5t54.5 -22.5t83.5 -5.5t90.5 10.5t70 41.5q63 59 90 239q13 80 13 134.5t-6.5 77t-13 37.5t-21 25.5t-25.5 16t-32 8.5
q-31 3 -71.5 3t-59 -1t-46 -6.5t-42.5 -17t-34.5 -33t-32 -54t-25 -80z" />
    <glyph glyph-name="Otilde" unicode="&#xd5;" horiz-adv-x="667" 
d="M480.5 884q30.5 -16 36.5 -16h12t29 8q49 16 64 26l15 -42q-9 -6 -30 -21q-61 -41 -94 -41q-36 0 -60 18q-44 32 -116 -5q-21 -11 -28 -14l-15 41q30 22 46 32q47 32 78.5 31t62 -17zM350.5 731q38.5 6 88 6t80 -3.5t60.5 -13.5t50 -27q46 -40 59 -113q5 -34 5 -60.5
t-0.5 -57.5t-12 -106t-28.5 -134t-40.5 -99t-49 -65.5t-60.5 -39.5q-60 -22 -152 -22q-127 0 -178 38q-48 37 -62 109q-7 34 -7 60.5t0.5 57t14 116t37 155t50 110t67 62t79 27.5zM211.5 471.5q-12.5 -47.5 -23.5 -117.5t-11.5 -97.5t-0.5 -53t9 -57t33.5 -48.5t54.5 -22.5
t83.5 -5.5t90.5 10.5t70 41.5q63 59 90 239q13 80 13 134.5t-6.5 77t-13 37.5t-21 25.5t-25.5 16t-32 8.5q-31 3 -71.5 3t-59 -1t-46 -6.5t-42.5 -17t-34.5 -33t-32 -54t-25 -80z" />
    <glyph glyph-name="Odieresis" unicode="&#xd6;" horiz-adv-x="667" 
d="M347 898q21 0 31.5 -13t10.5 -23t-1 -19t-10 -21q-18 -25 -43 -25t-36.5 13.5t-11.5 23.5q0 32 19.5 48t40.5 16zM602 898q21 0 31.5 -13t10.5 -23q0 -32 -18.5 -48.5t-39.5 -16.5t-32.5 13.5t-11.5 23.5q0 32 19.5 48t40.5 16zM350.5 731q38.5 6 88 6t80 -3.5
t60.5 -13.5t50 -27q46 -40 59 -113q5 -34 5 -60.5t-0.5 -57.5t-12 -106t-28.5 -134t-40.5 -99t-49 -65.5t-60.5 -39.5q-60 -22 -152 -22q-127 0 -178 38q-48 37 -62 109q-7 34 -7 60.5t0.5 57t14 116t37 155t50 110t67 62t79 27.5zM211.5 471.5q-12.5 -47.5 -23.5 -117.5
t-11.5 -97.5t-0.5 -53t9 -57t33.5 -48.5t54.5 -22.5t83.5 -5.5t90.5 10.5t70 41.5q63 59 90 239q13 80 13 134.5t-6.5 77t-13 37.5t-21 25.5t-25.5 16t-32 8.5q-31 3 -71.5 3t-59 -1t-46 -6.5t-42.5 -17t-34.5 -33t-32 -54t-25 -80z" />
    <glyph glyph-name="multiply" unicode="&#xd7;" horiz-adv-x="459" 
d="M93 237l139 120l-100 119l56 48l100 -119l146 126l45 -54l-145 -126l102 -121l-57 -48l-101 121l-140 -120z" />
    <glyph glyph-name="Oslash" unicode="&#xd8;" horiz-adv-x="667" 
d="M100 225q0 60 14 148.5t37.5 158t50 110t67 62t79 27.5t97.5 6q127 0 180 -43l30 38h61l-59 -74q33 -54 33 -156q0 -62 -12 -141.5t-29 -138.5t-40.5 -99t-49 -65.5t-61.5 -39.5q-59 -22 -151 -22q-131 0 -184 45l-33 -41h-61l62 78q-31 52 -31 147zM208.5 471.5
q-12.5 -47.5 -24 -119t-11.5 -124.5t11 -84l393 491q-21 18 -51.5 23t-74.5 5t-62.5 -1t-46 -6.5t-42.5 -17t-34.5 -33t-32 -54t-25 -80zM349 70q58 0 95 10.5t70 41.5q63 59 90 239q13 84 13 141.5t-12 90.5l-394 -491q36 -32 138 -32z" />
    <glyph glyph-name="Ugrave" unicode="&#xd9;" horiz-adv-x="656" 
d="M305 930h87l106 -133h-69zM202 302q-8 -61 -8 -85.5v-30.5q2 -46 23 -72t50 -35.5t77 -9.5q100 0 152.5 51.5t72.5 181.5l68 430h75l-68 -430q-8 -52 -17 -87.5t-30.5 -81t-52 -72.5t-83.5 -46.5t-123 -19.5q-127 0 -182 73q-37 50 -37 141q0 42 8 93l68 430h75z" />
    <glyph glyph-name="Uacute" unicode="&#xda;" horiz-adv-x="656" 
d="M429 797l128 133h95l-154 -133h-69zM202 302q-8 -61 -8 -85.5v-30.5q2 -46 23 -72t50 -35.5t77 -9.5q100 0 152.5 51.5t72.5 181.5l68 430h75l-68 -430q-8 -52 -17 -87.5t-30.5 -81t-52 -72.5t-83.5 -46.5t-123 -19.5q-127 0 -182 73q-37 50 -37 141q0 42 8 93l68 430h75
z" />
    <glyph glyph-name="Ucircumflex" unicode="&#xdb;" horiz-adv-x="656" 
d="M318 797l138 130h71l83 -130h-65l-57 83l-90 -83h-80zM202 302q-8 -61 -8 -85.5v-30.5q2 -46 23 -72t50 -35.5t77 -9.5q100 0 152.5 51.5t72.5 181.5l68 430h75l-68 -430q-8 -52 -17 -87.5t-30.5 -81t-52 -72.5t-83.5 -46.5t-123 -19.5q-127 0 -182 73q-37 50 -37 141
q0 42 8 93l68 430h75z" />
    <glyph glyph-name="Udieresis" unicode="&#xdc;" horiz-adv-x="656" 
d="M353 898q21 0 32 -13t11 -23t-1.5 -19t-9.5 -21q-19 -25 -44 -25t-36.5 13.5t-11.5 23.5q0 32 19.5 48t40.5 16zM608 898q21 0 32 -13t11 -23q0 -32 -19 -48.5t-40 -16.5t-32.5 13.5t-11.5 23.5q0 32 19.5 48t40.5 16zM202 302q-8 -61 -8 -85.5v-30.5q2 -46 23 -72
t50 -35.5t77 -9.5q100 0 152.5 51.5t72.5 181.5l68 430h75l-68 -430q-8 -52 -17 -87.5t-30.5 -81t-52 -72.5t-83.5 -46.5t-123 -19.5q-127 0 -182 73q-37 50 -37 141q0 42 8 93l68 430h75z" />
    <glyph glyph-name="Yacute" unicode="&#xdd;" horiz-adv-x="630" 
d="M406 797l128 133h95l-154 -133h-69zM150 732h78l128 -381l266 381h88l-328 -472l-41 -260h-74l41 260z" />
    <glyph glyph-name="Thorn" unicode="&#xde;" horiz-adv-x="555" 
d="M60 0l115 729h74l-22 -141h197q46 0 75 -19t44 -41q26 -38 26 -108q0 -21 -6 -70.5t-26.5 -97t-52.5 -67.5t-58 -25.5t-67 -5.5q-138 0 -197 20l-28 -174h-74zM367 228q48 0 75 24q32 28 48 125q3 51 3 65.5t-8.5 29t-15.5 23t-19 12.5q-19 6 -38 6h-197l-45 -285h197z
" />
    <glyph glyph-name="germandbls" unicode="&#xdf;" horiz-adv-x="570" 
d="M230 71l176 -5q32 0 56 18t30 48l7 37q1 4 1 7q0 31 -64 48q-29 7 -57.5 17.5t-43.5 33.5t-15 42q0 78 34 117q25 29 112 76q70 39 70 120q0 40 -30 56.5t-103.5 16.5t-120 -29t-58.5 -108l-90 -566h-74l90 566q15 95 76.5 153t179.5 58q84 0 134.5 -27.5t62.5 -68.5
q7 -25 7 -46q0 -70 -38 -125q-27 -38 -60 -57q-7 -4 -26.5 -13.5t-29.5 -16t-24 -17.5q-26 -19 -32 -54q-1 -6 -1 -11q0 -38 63 -53q29 -7 57.5 -16.5t43.5 -31t15 -39.5t-2 -30l-7 -47q-6 -39 -25.5 -66.5t-46.5 -41.5q-49 -24 -92.5 -24t-76.5 3.5t-64.5 9t-42.5 6.5z" />
    <glyph glyph-name="agrave" unicode="&#xe0;" horiz-adv-x="541" 
d="M202 736h87l106 -133h-69zM242 525.5q28 11.5 54.5 14.5t58.5 3t102 -15t106 -49l-70 -479h-53l-11 60q-102 -67 -186 -67q-101 0 -135 52q-29 46 -29 119q0 48 12 119.5t35.5 125t55.5 79.5t60 37.5zM183 345.5q-13 -39.5 -21 -90.5t-8 -88t10 -59q19 -41 75 -41t95 11
t100 37l52 337q-74 20 -113 20t-61.5 -4.5t-36 -8.5t-34 -17.5t-33 -35t-25.5 -61z" />
    <glyph glyph-name="aacute" unicode="&#xe1;" horiz-adv-x="541" 
d="M336 603l128 133h95l-154 -133h-69zM242 525.5q28 11.5 54.5 14.5t58.5 3t102 -15t106 -49l-70 -479h-53l-11 60q-102 -67 -186 -67q-101 0 -135 52q-29 46 -29 119q0 48 12 119.5t35.5 125t55.5 79.5t60 37.5zM183 345.5q-13 -39.5 -21 -90.5t-8 -88t10 -59
q19 -41 75 -41t95 11t100 37l52 337q-74 20 -113 20t-61.5 -4.5t-36 -8.5t-34 -17.5t-33 -35t-25.5 -61z" />
    <glyph glyph-name="acircumflex" unicode="&#xe2;" horiz-adv-x="541" 
d="M214 603l138 130h71l83 -130h-65l-57 83l-90 -83h-80zM242 525.5q28 11.5 54.5 14.5t58.5 3t102 -15t106 -49l-70 -479h-53l-11 60q-102 -67 -186 -67q-101 0 -135 52q-29 46 -29 119q0 48 12 119.5t35.5 125t55.5 79.5t60 37.5zM183 345.5q-13 -39.5 -21 -90.5t-8 -88
t10 -59q19 -41 75 -41t95 11t100 37l52 337q-74 20 -113 20t-61.5 -4.5t-36 -8.5t-34 -17.5t-33 -35t-25.5 -61z" />
    <glyph glyph-name="atilde" unicode="&#xe3;" horiz-adv-x="541" 
d="M391 690q30 -16 36.5 -16h14.5t45.5 14t45.5 20l15 -42q-9 -6 -31 -21q-60 -41 -93 -41q-31 0 -59 17t-44 17q-33 0 -64 -16t-37 -19l-15 41q30 22 46 32q46 32 78 31t62 -17zM242 525.5q28 11.5 54.5 14.5t58.5 3t102 -15t106 -49l-70 -479h-53l-11 60
q-102 -67 -186 -67q-101 0 -135 52q-29 46 -29 119q0 48 12 119.5t35.5 125t55.5 79.5t60 37.5zM183 345.5q-13 -39.5 -21 -90.5t-8 -88t10 -59q19 -41 75 -41t95 11t100 37l52 337q-74 20 -113 20t-61.5 -4.5t-36 -8.5t-34 -17.5t-33 -35t-25.5 -61z" />
    <glyph glyph-name="adieresis" unicode="&#xe4;" horiz-adv-x="541" 
d="M210.5 689.5q17.5 14.5 38.5 14.5t32 -13t11 -23q0 -32 -19 -48.5t-36 -16.5t-28 7q-23 15 -19.5 40t21 39.5zM536 691q11 -13 11 -23q0 -32 -19 -48.5t-36 -16.5t-28 7q-23 15 -19 44q4 25 28 40q14 10 33 10t30 -13zM242 525.5q28 11.5 54.5 14.5t58.5 3t102 -15
t106 -49l-70 -479h-53l-11 60q-102 -67 -186 -67q-101 0 -135 52q-29 46 -29 119q0 48 12 119.5t35.5 125t55.5 79.5t60 37.5zM183 345.5q-13 -39.5 -21 -90.5t-8 -88t10 -59q19 -41 75 -41t95 11t100 37l52 337q-74 20 -113 20t-61.5 -4.5t-36 -8.5t-34 -17.5t-33 -35
t-25.5 -61z" />
    <glyph glyph-name="aring" unicode="&#xe5;" horiz-adv-x="541" 
d="M396 808q42 0 67.5 -28.5t25.5 -64.5q0 -49 -34.5 -80.5t-76.5 -31.5t-67.5 28t-25.5 64q0 49 34.5 81t76.5 32zM346 666q14 -15 36.5 -15t39.5 16q19 18 19 40.5t-13.5 37.5t-36 15t-39.5 -16q-20 -19 -20 -41t14 -37zM242 525.5q28 11.5 54.5 14.5t58.5 3t102 -15
t106 -49l-70 -479h-53l-11 60q-102 -67 -186 -67q-101 0 -135 52q-29 46 -29 119q0 48 12 119.5t35.5 125t55.5 79.5t60 37.5zM183 345.5q-13 -39.5 -21 -90.5t-8 -88t10 -59q19 -41 75 -41t95 11t100 37l52 337q-74 20 -113 20t-61.5 -4.5t-36 -8.5t-34 -17.5t-33 -35
t-25.5 -61z" />
    <glyph glyph-name="ae" unicode="&#xe6;" horiz-adv-x="902" 
d="M472 227q-8 -47 -8 -78.5t8 -48.5q15 -35 69 -36q26 -2 82 -2t168 16l-9 -56q-106 -29 -249 -29q-95 0 -125 70q-31 -25 -93 -47.5t-105.5 -22.5t-70.5 7.5t-51 26t-34 50.5q-15 43 -15 92.5t12 110.5t31 109t38.5 75t46.5 44.5t49 23.5q44 11 83 11t98.5 -10.5
t103.5 -37.5q57 46 163.5 46t157.5 -35q41 -29 41 -90q0 -80 -49 -130q-40 -40 -91 -54q-66 -18 -143 -18t-108 13zM112 162q0 -36 9 -55q17 -40 89 -40q50 0 105.5 13.5t78.5 35.5q-2 16 -2 51.5t18 131.5t49 147q-93 25 -150 25q-63 0 -107 -29q-20 -14 -32 -36
q-33 -55 -49 -155q-9 -53 -9 -89zM480 281q38 -3 55 -3t56.5 1.5t79 10.5t75.5 34q43 30 43 85q0 32 -24.5 45t-88 13t-98.5 -12t-53.5 -42.5t-24.5 -49.5q-12 -33 -20 -82z" />
    <glyph glyph-name="ccedilla" unicode="&#xe7;" horiz-adv-x="498" 
d="M154 170q0 -103 80 -103q94 0 198 8l39 3l-9 -56q-105 -28 -222 -28q-91 0 -133 66q-25 40 -25 96.5t12.5 128.5t35 129.5t53 83t57.5 33t86.5 7.5t205.5 -28l-8 -54q-138 8 -193 8t-67.5 -2.5t-28 -13t-26.5 -31.5q-24 -46 -39.5 -127.5t-15.5 -119.5zM197 -173h-51
l6 37l55 15q35 14 46 84h67q-12 -78 -38 -107t-85 -29z" />
    <glyph glyph-name="egrave" unicode="&#xe8;" horiz-adv-x="525" 
d="M204 734h87l106 -133h-69zM155 227q-8 -47 -8 -78.5t7 -48.5q16 -35 70 -36q26 -2 81.5 -2t167.5 16l-8 -56q-106 -29 -250 -29q-95 0 -124 69q-15 36 -15 90.5t13 125t27.5 112t42.5 79.5q53 72 194 72q101 0 151 -35q42 -29 42 -90q0 -80 -50 -130q-39 -40 -90 -54
q-66 -18 -143 -18t-108 13zM163 281q38 -3 55 -3t56.5 1.5t79 10.5t74.5 34q44 30 44 85q0 32 -24.5 45t-88 13t-98.5 -12t-53.5 -42.5t-25.5 -49.5q-11 -33 -19 -82z" />
    <glyph glyph-name="eacute" unicode="&#xe9;" horiz-adv-x="525" 
d="M328 601l128 133h95l-154 -133h-69zM155 227q-8 -47 -8 -78.5t7 -48.5q16 -35 70 -36q26 -2 81.5 -2t167.5 16l-8 -56q-106 -29 -250 -29q-95 0 -124 69q-15 36 -15 90.5t13 125t27.5 112t42.5 79.5q53 72 194 72q101 0 151 -35q42 -29 42 -90q0 -80 -50 -130
q-39 -40 -90 -54q-66 -18 -143 -18t-108 13zM163 281q38 -3 55 -3t56.5 1.5t79 10.5t74.5 34q44 30 44 85q0 32 -24.5 45t-88 13t-98.5 -12t-53.5 -42.5t-25.5 -49.5q-11 -33 -19 -82z" />
    <glyph glyph-name="ecircumflex" unicode="&#xea;" horiz-adv-x="525" 
d="M217 601l138 130h71l83 -130h-65l-57 83l-90 -83h-80zM155 227q-8 -47 -8 -78.5t7 -48.5q16 -35 70 -36q26 -2 81.5 -2t167.5 16l-8 -56q-106 -29 -250 -29q-95 0 -124 69q-15 36 -15 90.5t13 125t27.5 112t42.5 79.5q53 72 194 72q101 0 151 -35q42 -29 42 -90
q0 -80 -50 -130q-39 -40 -90 -54q-66 -18 -143 -18t-108 13zM163 281q38 -3 55 -3t56.5 1.5t79 10.5t74.5 34q44 30 44 85q0 32 -24.5 45t-88 13t-98.5 -12t-53.5 -42.5t-25.5 -49.5q-11 -33 -19 -82z" />
    <glyph glyph-name="edieresis" unicode="&#xeb;" horiz-adv-x="525" 
d="M213.5 687.5q17.5 14.5 38.5 14.5t31.5 -13t10.5 -23q0 -32 -18.5 -48.5t-33.5 -16.5t-22 2.5t-12.5 7.5t-9.5 11q-8 13 -5 32t20.5 33.5zM468.5 687.5q17.5 14.5 38.5 14.5t31.5 -13t10.5 -23q0 -32 -18.5 -48.5t-36 -16.5t-28.5 7q-22 15 -18.5 40t21 39.5zM155 227
q-8 -47 -8 -78.5t7 -48.5q16 -35 70 -36q26 -2 81.5 -2t167.5 16l-8 -56q-106 -29 -250 -29q-95 0 -124 69q-15 36 -15 90.5t13 125t27.5 112t42.5 79.5q53 72 194 72q101 0 151 -35q42 -29 42 -90q0 -80 -50 -130q-39 -40 -90 -54q-66 -18 -143 -18t-108 13zM163 281
q38 -3 55 -3t56.5 1.5t79 10.5t74.5 34q44 30 44 85q0 32 -24.5 45t-88 13t-98.5 -12t-53.5 -42.5t-25.5 -49.5q-11 -33 -19 -82z" />
    <glyph glyph-name="igrave" unicode="&#xec;" horiz-adv-x="195" 
d="M33 729h87l106 -133h-69zM60 0l84 531h74l-84 -531h-74z" />
    <glyph glyph-name="iacute" unicode="&#xed;" horiz-adv-x="195" 
d="M155 596l128 133h95l-154 -133h-69zM60 0l84 531h74l-84 -531h-74z" />
    <glyph glyph-name="icircumflex" unicode="&#xee;" horiz-adv-x="195" 
d="M41 596l138 130h71l83 -130h-65l-57 83l-90 -83h-80zM60 0l84 531h74l-84 -531h-74z" />
    <glyph glyph-name="idieresis" unicode="&#xef;" horiz-adv-x="195" 
d="M72 697q21 0 32 -13t11 -23q0 -32 -18.5 -48.5t-36.5 -16.5q-33 0 -43 25q-4 9 -4 15q0 29 19 45t40 16zM301 690.5q13 6.5 30 6.5t28 -13t11 -23t-1 -19t-9.5 -20.5t-21.5 -18.5t-26.5 -7t-24 7t-15.5 18.5t-3.5 25.5t10.5 25.5t22 18zM60 0l84 531h74l-84 -531h-74z
" />
    <glyph glyph-name="eth" unicode="&#xf0;" horiz-adv-x="537" 
d="M297 531h103q56 0 68 -15q-13 84 -53 132l-154 -58l-15 60l116 44q-42 24 -107 24h-19l10 65q132 0 200 -59l125 47l16 -60l-97 -36q61 -93 61 -250q0 -76 -14 -167q-22 -137 -69.5 -197.5t-146.5 -60.5h-108q-49 0 -82 21.5t-45 57.5q-16 47 -16 93.5t9 85.5
q25 147 72.5 210t145.5 63zM153 258q-9 -65 -9 -100t13 -54t27 -24.5t25 -5.5h14h108h3q46 0 78.5 36.5t50.5 147.5q10 62 10 99t-7 57q-15 43 -77 43h-100q-54 0 -85 -40.5t-51 -158.5z" />
    <glyph glyph-name="ntilde" unicode="&#xf1;" 
d="M395.5 687q30.5 -16 36.5 -16h14t45.5 14.5t45.5 19.5l15 -42q-9 -6 -24.5 -16.5t-26 -17.5t-23.5 -14q-55 -30 -110 3q-27 17 -43 17q-33 0 -64 -16t-37 -19l-15 41q30 22 46 32q47 32 78.5 31t62 -17zM416 540q76 0 112 -50q28 -38 28 -88q0 -16 -3 -32l-59 -370h-74
l59 370q2 12 2 22q0 32 -18.5 53t-57.5 21t-74 -8t-57 -16.5t-75 -32.5l-65 -409h-74l84 531h52l12 -62q49 33 124 57q40 14 84 14z" />
    <glyph glyph-name="ograve" unicode="&#xf2;" horiz-adv-x="564" 
d="M215 729h87l106 -133h-69zM173 477.5q59 58.5 187.5 58.5t174.5 -68q30 -45 30 -121q0 -40 -8 -89q-25 -150 -80.5 -206.5t-185 -56.5t-177.5 61q-32 41 -32 120q0 37 7 82q25 161 84 219.5zM190 367.5q-15 -40.5 -25 -99.5t-10 -88.5t6.5 -48.5t16.5 -32t29 -19
q31 -11 81 -11t75.5 5t51.5 23.5t41.5 57.5t25.5 97.5t10 102.5t-16 67q-28 40 -120 40q-47 0 -74 -6t-52 -27t-40 -61.5z" />
    <glyph glyph-name="oacute" unicode="&#xf3;" horiz-adv-x="564" 
d="M339 596l128 133h95l-154 -133h-69zM173 477.5q59 58.5 187.5 58.5t174.5 -68q30 -45 30 -121q0 -40 -8 -89q-25 -150 -80.5 -206.5t-185 -56.5t-177.5 61q-32 41 -32 120q0 37 7 82q25 161 84 219.5zM190 367.5q-15 -40.5 -25 -99.5t-10 -88.5t6.5 -48.5t16.5 -32
t29 -19q31 -11 81 -11t75.5 5t51.5 23.5t41.5 57.5t25.5 97.5t10 102.5t-16 67q-28 40 -120 40q-47 0 -74 -6t-52 -27t-40 -61.5z" />
    <glyph glyph-name="ocircumflex" unicode="&#xf4;" horiz-adv-x="564" 
d="M228 596l138 130h71l83 -130h-65l-57 83l-90 -83h-80zM173 477.5q59 58.5 187.5 58.5t174.5 -68q30 -45 30 -121q0 -40 -8 -89q-25 -150 -80.5 -206.5t-185 -56.5t-177.5 61q-32 41 -32 120q0 37 7 82q25 161 84 219.5zM190 367.5q-15 -40.5 -25 -99.5t-10 -88.5
t6.5 -48.5t16.5 -32t29 -19q31 -11 81 -11t75.5 5t51.5 23.5t41.5 57.5t25.5 97.5t10 102.5t-16 67q-28 40 -120 40q-47 0 -74 -6t-52 -27t-40 -61.5z" />
    <glyph glyph-name="otilde" unicode="&#xf5;" horiz-adv-x="564" 
d="M396.5 683q30.5 -16 36.5 -16h12t29 8q49 16 64 26l15 -42q-9 -6 -30 -21q-61 -41 -94 -41q-31 0 -59 17t-44 17q-33 0 -63.5 -16t-37.5 -19l-15 41q30 22 46 32q47 32 78.5 31t62 -17zM173 477.5q59 58.5 187.5 58.5t174.5 -68q30 -45 30 -121q0 -40 -8 -89
q-25 -150 -80.5 -206.5t-185 -56.5t-177.5 61q-32 41 -32 120q0 37 7 82q25 161 84 219.5zM190 367.5q-15 -40.5 -25 -99.5t-10 -88.5t6.5 -48.5t16.5 -32t29 -19q31 -11 81 -11t75.5 5t51.5 23.5t41.5 57.5t25.5 97.5t10 102.5t-16 67q-28 40 -120 40q-47 0 -74 -6t-52 -27
t-40 -61.5z" />
    <glyph glyph-name="odieresis" unicode="&#xf6;" horiz-adv-x="564" 
d="M224.5 682.5q17.5 14.5 38.5 14.5t31.5 -13t10.5 -23q0 -32 -18.5 -48.5t-36 -16.5t-28.5 7q-22 15 -18.5 40t21 39.5zM479.5 682.5q17.5 14.5 38.5 14.5t31.5 -13t10.5 -23q0 -32 -18.5 -48.5t-36 -16.5t-28.5 7q-22 15 -18.5 40t21 39.5zM173 477.5q59 58.5 187.5 58.5
t174.5 -68q30 -45 30 -121q0 -40 -8 -89q-25 -150 -80.5 -206.5t-185 -56.5t-177.5 61q-32 41 -32 120q0 37 7 82q25 161 84 219.5zM190 367.5q-15 -40.5 -25 -99.5t-10 -88.5t6.5 -48.5t16.5 -32t29 -19q31 -11 81 -11t75.5 5t51.5 23.5t41.5 57.5t25.5 97.5t10 102.5
t-16 67q-28 40 -120 40q-47 0 -74 -6t-52 -27t-40 -61.5z" />
    <glyph glyph-name="divide" unicode="&#xf7;" horiz-adv-x="517" 
d="M100 316l12 74h416l-12 -74h-416zM276 252h50q20 0 20 -18q0 -3 -1 -7l-9 -54q-3 -23 -26 -23h-50q-24 0 -21 23l9 54q3 25 28 25zM323 551h50q20 0 20 -18q0 -3 -1 -7l-8 -54q-3 -23 -27 -23h-50q-20 0 -20 18v5l8 54q3 25 28 25z" />
    <glyph glyph-name="oslash" unicode="&#xf8;" horiz-adv-x="568" 
d="M84 174q0 38 7 84q25 161 84 219.5t191 58.5q85 0 134 -32l24 27h66l-55 -61q32 -45 32 -124q0 -40 -8 -88q-25 -150 -80.5 -206.5t-185.5 -56.5q-102 0 -152 37l-29 -32h-61l58 65q-25 40 -25 109zM449 447q-30 15 -84.5 15t-81.5 -6t-51.5 -27t-39.5 -61.5t-25 -98
t-10 -90t7 -52.5zM192 89q28 -20 88 -20t85.5 5t51.5 23.5t41.5 57.5t25.5 96.5t10 97t-11 63.5z" />
    <glyph glyph-name="ugrave" unicode="&#xf9;" horiz-adv-x="543" 
d="M203 729h87l106 -133h-69zM148 134q0 -69 77 -69q67 0 130 25q22 8 75 32l64 409h74l-84 -531h-52l-12 62q-23 -14 -39.5 -21.5t-33.5 -16t-25.5 -11.5t-24.5 -8.5t-27 -7.5q-35 -6 -57 -6q-77 0 -113 48q-27 36 -27 87q0 16 3 35l58 370h74l-58 -370q-2 -15 -2 -27z" />
    <glyph glyph-name="uacute" unicode="&#xfa;" horiz-adv-x="543" 
d="M327 596l128 133h95l-154 -133h-69zM148 134q0 -69 77 -69q67 0 130 25q22 8 75 32l64 409h74l-84 -531h-52l-12 62q-23 -14 -39.5 -21.5t-33.5 -16t-25.5 -11.5t-24.5 -8.5t-27 -7.5q-35 -6 -57 -6q-77 0 -113 48q-27 36 -27 87q0 16 3 35l58 370h74l-58 -370
q-2 -15 -2 -27z" />
    <glyph glyph-name="ucircumflex" unicode="&#xfb;" horiz-adv-x="543" 
d="M215 596l138 130h71l83 -130h-65l-57 83l-90 -83h-80zM148 134q0 -69 77 -69q67 0 130 25q22 8 75 32l64 409h74l-84 -531h-52l-12 62q-23 -14 -39.5 -21.5t-33.5 -16t-25.5 -11.5t-24.5 -8.5t-27 -7.5q-35 -6 -57 -6q-77 0 -113 48q-27 36 -27 87q0 16 3 35l58 370h74
l-58 -370q-2 -15 -2 -27z" />
    <glyph glyph-name="udieresis" unicode="&#xfc;" horiz-adv-x="543" 
d="M212 682.5q17 14.5 38 14.5t32 -13t11 -23q0 -32 -18.5 -48.5t-36 -16.5t-28.5 7q-23 15 -19 40t21 39.5zM467 682.5q17 14.5 38 14.5t32 -13t11 -23q0 -32 -18.5 -48.5t-36 -16.5t-28.5 7q-23 15 -19 40t21 39.5zM148 134q0 -69 77 -69q67 0 130 25q22 8 75 32l64 409
h74l-84 -531h-52l-12 62q-23 -14 -39.5 -21.5t-33.5 -16t-25.5 -11.5t-24.5 -8.5t-27 -7.5q-35 -6 -57 -6q-77 0 -113 48q-27 36 -27 87q0 16 3 35l58 370h74l-58 -370q-2 -15 -2 -27z" />
    <glyph glyph-name="yacute" unicode="&#xfd;" horiz-adv-x="549" 
d="M314 591l128 133h95l-154 -133h-69zM235 116q4 -22 20 -31t24 -9h9l15 1l193 376q18 34 25 80h61q6 -19 6 -43t-15 -53l-221 -436q-66 -129 -121 -192t-133 -78v53q57 38 101 103q35 52 66 113q-26 0 -51 14q-47 26 -57 96l-63 421h77z" />
    <glyph glyph-name="thorn" unicode="&#xfe;" horiz-adv-x="550" 
d="M313.5 515q65.5 25 116 25t84.5 -44q47 -61 47 -163q0 -32 -5 -64.5t-7.5 -49.5t-11 -50t-18 -53.5t-26.5 -47t-37 -41.5q-51 -37 -119 -37q-38 0 -92.5 10.5t-96.5 28.5l-47 -299h-74l167 1052h74l-50 -311q30 19 95.5 44zM343 64q111 0 138 205q5 36 5 75.5t-12 72.5
q-18 50 -58 50h-6q-72 -4 -200 -51l-52 -327q45 -14 76 -17l42 -4q44 -4 67 -4z" />
    <glyph glyph-name="ydieresis" unicode="&#xff;" horiz-adv-x="549" 
d="M238 692q21 0 32 -13t11 -23q0 -32 -19 -48.5t-40 -16.5t-32.5 13.5t-11.5 23.5q0 32 19.5 48t40.5 16zM493 692q21 0 32 -13t11 -23q0 -32 -19 -48.5t-40 -16.5t-32.5 13.5t-11.5 23.5q0 32 19.5 48t40.5 16zM235 116q4 -22 20 -31t24 -9h9l15 1l193 376q18 34 25 80h61
q6 -19 6 -43t-15 -53l-221 -436q-66 -129 -121 -192t-133 -78v53q57 38 101 103q35 52 66 113q-26 0 -51 14q-47 26 -57 96l-63 421h77z" />
    <glyph glyph-name="Amacron" unicode="&#x100;" horiz-adv-x="660" 
d="M331 797l10 63h292l-10 -63h-292zM45 0l385 732h74l141 -732h-75l-39 204h-297l-108 -204h-81zM273 278h244l-63 350z" />
    <glyph glyph-name="amacron" unicode="&#x101;" horiz-adv-x="541" 
d="M214 603l10 63h292l-10 -63h-292zM242 525.5q28 11.5 54.5 14.5t58.5 3t102 -15t106 -49l-70 -479h-53l-11 60q-102 -67 -186 -67q-101 0 -135 52q-29 46 -29 119q0 48 12 119.5t35.5 125t55.5 79.5t60 37.5zM183 345.5q-13 -39.5 -21 -90.5t-8 -88t10 -59q19 -41 75 -41
t95 11t100 37l52 337q-74 20 -113 20t-61.5 -4.5t-36 -8.5t-34 -17.5t-33 -35t-25.5 -61z" />
    <glyph glyph-name="Abreve" unicode="&#x102;" horiz-adv-x="660" 
d="M428 911q-1 -6 -1 -20.5t15 -31t41 -16.5h3q66 0 77 68h46q-15 -114 -126 -114q-43 0 -72 29t-29 73v12h46zM45 0l385 732h74l141 -732h-75l-39 204h-297l-108 -204h-81zM273 278h244l-63 350z" />
    <glyph glyph-name="abreve" unicode="&#x103;" horiz-adv-x="541" 
d="M321 717q-1 -6 -1 -20.5t15 -31t41 -16.5h3q66 0 77 68h46q-16 -114 -126 -114q-43 0 -72.5 29t-29.5 73q0 6 1 12h46zM242 525.5q28 11.5 54.5 14.5t58.5 3t102 -15t106 -49l-70 -479h-53l-11 60q-102 -67 -186 -67q-101 0 -135 52q-29 46 -29 119q0 48 12 119.5
t35.5 125t55.5 79.5t60 37.5zM183 345.5q-13 -39.5 -21 -90.5t-8 -88t10 -59q19 -41 75 -41t95 11t100 37l52 337q-74 20 -113 20t-61.5 -4.5t-36 -8.5t-34 -17.5t-33 -35t-25.5 -61z" />
    <glyph glyph-name="Aogonek" unicode="&#x104;" horiz-adv-x="758" 
d="M593 -109q0 69 100 109h39q-74 -54 -74 -91q0 -30 49 -30h9l-10 -60q-12 -2 -22 -2q-43 0 -67 23.5t-24 50.5zM147 0l385 732h74l141 -732h-75l-39 204h-297l-108 -204h-81zM375 278h244l-63 350z" />
    <glyph glyph-name="aogonek" unicode="&#x105;" horiz-adv-x="487" 
d="M325 -109q0 69 100 109h39q-74 -54 -74 -91q0 -30 49 -30h9l-10 -60q-12 -2 -22 -2q-43 0 -67 23.5t-24 50.5zM220 525.5q28 11.5 54.5 14.5t58.5 3t102 -15t106 -49l-70 -479h-53l-11 60q-102 -67 -186 -67q-101 0 -135 52q-29 46 -29 119q0 48 12 119.5t35.5 125
t55.5 79.5t60 37.5zM161 345.5q-13 -39.5 -21 -90.5t-8 -88t10 -59q19 -41 75 -41t95 11t100 37l52 337q-74 20 -113 20t-61.5 -4.5t-36 -8.5t-34 -17.5t-33 -35t-25.5 -61z" />
    <glyph glyph-name="Cacute" unicode="&#x106;" horiz-adv-x="578" 
d="M409 800l128 133h95l-154 -133h-69zM291 716q52 24 130 24t235 -30l-9 -59q-114 15 -216 15q-39 0 -49.5 -0.5t-33 -6t-36 -16t-34.5 -32.5t-35 -53q-36 -78 -50 -166t-14 -122.5t1 -51.5q5 -64 37 -105t89 -45q20 -1 71 -1t182 9l-8 -59q-85 -23 -249 -23
q-55 0 -94.5 23t-61.5 59q-41 71 -41 179q0 52 13 129.5t33 141.5t54 115t86 75z" />
    <glyph glyph-name="cacute" unicode="&#x107;" horiz-adv-x="496" 
d="M316 598l128 133h95l-154 -133h-69zM154 170q0 -103 80 -103q94 0 198 8l39 3l-9 -56q-105 -28 -222 -28q-91 0 -133 66q-25 40 -25 96.5t12.5 128.5t35 129.5t53 83t57.5 33t86.5 7.5t205.5 -28l-8 -54q-138 8 -193 8t-67.5 -2.5t-28 -13t-26.5 -31.5
q-24 -46 -39.5 -127.5t-15.5 -119.5z" />
    <glyph glyph-name="Ccircumflex" unicode="&#x108;" horiz-adv-x="578" 
d="M300 800l138 130h71l83 -130h-65l-57 83l-90 -83h-80zM291 716q52 24 130 24t235 -30l-9 -59q-114 15 -216 15q-39 0 -49.5 -0.5t-33 -6t-36 -16t-34.5 -32.5t-35 -53q-36 -78 -50 -166t-14 -122.5t1 -51.5q5 -64 37 -105t89 -45q20 -1 71 -1t182 9l-8 -59
q-85 -23 -249 -23q-55 0 -94.5 23t-61.5 59q-41 71 -41 179q0 52 13 129.5t33 141.5t54 115t86 75z" />
    <glyph glyph-name="ccircumflex" unicode="&#x109;" horiz-adv-x="496" 
d="M218 598l138 130h71l83 -130h-65l-57 83l-90 -83h-80zM152 170q0 -103 80 -103q94 0 198 8l39 3l-9 -56q-105 -28 -222 -28q-91 0 -133 66q-25 40 -25 96.5t12.5 128.5t35 129.5t53 83t57.5 33t86.5 7.5t205.5 -28l-8 -54q-138 8 -193 8t-67.5 -2.5t-28 -13t-26.5 -31.5
q-24 -46 -39.5 -127.5t-15.5 -119.5z" />
    <glyph glyph-name="Cdotaccent" unicode="&#x10a;" horiz-adv-x="578" 
d="M418 902h50q22 0 19 -25l-9 -54q-3 -23 -26 -23h-50q-11 0 -17 6.5t-4 16.5l9 54q3 25 28 25zM291 716q52 24 130 24t235 -30l-9 -59q-114 15 -216 15q-39 0 -49.5 -0.5t-33 -6t-36 -16t-34.5 -32.5t-35 -53q-36 -78 -50 -166t-14 -122.5t1 -51.5q5 -64 37 -105t89 -45
q20 -1 71 -1t182 9l-8 -59q-85 -23 -249 -23q-55 0 -94.5 23t-61.5 59q-41 71 -41 179q0 52 13 129.5t33 141.5t54 115t86 75z" />
    <glyph glyph-name="cdotaccent" unicode="&#x10b;" horiz-adv-x="496" 
d="M359 700h50q22 0 19 -25l-9 -54q-3 -23 -26 -23h-50q-11 0 -17 6.5t-4 16.5l9 54q3 25 28 25zM152 170q0 -103 80 -103q94 0 198 8l39 3l-9 -56q-105 -28 -222 -28q-91 0 -133 66q-25 40 -25 96.5t12.5 128.5t35 129.5t53 83t57.5 33t86.5 7.5t205.5 -28l-8 -54
q-138 8 -193 8t-67.5 -2.5t-28 -13t-26.5 -31.5q-24 -46 -39.5 -127.5t-15.5 -119.5z" />
    <glyph glyph-name="Ccaron" unicode="&#x10c;" horiz-adv-x="578" 
d="M327 930h65l57 -83l90 83h80l-138 -130h-71zM291 716q52 24 130 24t235 -30l-9 -59q-114 15 -216 15q-39 0 -49.5 -0.5t-33 -6t-36 -16t-34.5 -32.5t-35 -53q-36 -78 -50 -166t-14 -122.5t1 -51.5q5 -64 37 -105t89 -45q20 -1 71 -1t182 9l-8 -59q-85 -23 -249 -23
q-55 0 -94.5 23t-61.5 59q-41 71 -41 179q0 52 13 129.5t33 141.5t54 115t86 75z" />
    <glyph glyph-name="ccaron" unicode="&#x10d;" horiz-adv-x="496" 
d="M244 728h65l57 -83l90 83h80l-138 -130h-71zM152 170q0 -103 80 -103q94 0 198 8l39 3l-9 -56q-105 -28 -222 -28q-91 0 -133 66q-25 40 -25 96.5t12.5 128.5t35 129.5t53 83t57.5 33t86.5 7.5t205.5 -28l-8 -54q-138 8 -193 8t-67.5 -2.5t-28 -13t-26.5 -31.5
q-24 -46 -39.5 -127.5t-15.5 -119.5z" />
    <glyph glyph-name="Dcaron" unicode="&#x10e;" horiz-adv-x="668" 
d="M340 922h65l57 -83l90 83h80l-138 -130h-71zM485 732q64 0 109 -27t66 -67q37 -70 37 -176q0 -48 -10 -99q-63 -363 -318 -363h-273l116 731q0 1 273 1zM381 77q92 0 152 82.5t80 204.5q10 62 10 121t-21 101q-34 72 -129 72h-199l-92 -581h199z" />
    <glyph glyph-name="dcaron" unicode="&#x10f;" horiz-adv-x="650" 
d="M214 517q40 22 85.5 22t101 -11t97.5 -29l46 286h72l-125 -785h-53l-10 59q-30 -20 -90 -42.5t-107.5 -22.5t-82 25t-47.5 64q-19 57 -19 102.5t8.5 91.5t22 90t37.5 86t64 64zM163 263q-7 -43 -7 -79.5t10 -64.5q19 -51 69 -51q83 0 202 46l51 325q-95 26 -192 26
q-49 0 -81.5 -43.5t-51.5 -158.5zM668 579l11 134l10 67h75l-11 -67l-32 -134h-53z" />
    <glyph glyph-name="Dcroat" unicode="&#x110;" horiz-adv-x="668" 
d="M492 732q64 0 109 -27t67 -67q37 -69 37 -176q0 -48 -10 -99q-63 -363 -319 -363h-273l55 346h-65l9 54h65l52 331q0 1 273 1zM388 77q92 0 152 82.5t80 204.5q10 62 10 121t-20 101q-35 72 -130 72h-199l-40 -258h139l-9 -54h-139l-43 -269h199z" />
    <glyph glyph-name="dcroat" unicode="&#x111;" horiz-adv-x="552" 
d="M214 517q40 22 85.5 22t101 -11t97.5 -29l18 117h-122l9 54h122l19 115h72l-18 -115h72l-9 -54h-72l-98 -616h-53l-10 59q-30 -20 -90 -42.5t-107.5 -22.5t-82 25t-47.5 64q-19 57 -19 102.5t8.5 91.5t22 90t37.5 86t64 64zM163 263q-7 -43 -7 -79.5t10 -64.5
q19 -51 69 -51q83 0 202 46l51 325q-95 26 -192 26q-49 0 -81.5 -43.5t-51.5 -158.5z" />
    <glyph glyph-name="Emacron" unicode="&#x112;" horiz-adv-x="567" 
d="M278 792l10 63h292l-10 -63h-292zM309 732h12l314 -16l-9 -58h-317q-32 0 -44.5 -15t-16.5 -41l-32 -200l328 -10l-10 -59l-330 -10l-32 -200q-4 -39 14 -46q16 -6 41 -6h307l-10 -57l-310 -17h-9q-49 0 -79 26.5t-30 72.5q0 12 2 27l76 479q21 130 135 130z" />
    <glyph glyph-name="emacron" unicode="&#x113;" horiz-adv-x="525" 
d="M217 601l10 63h292l-10 -63h-292zM155 227q-8 -47 -8 -78.5t7 -48.5q16 -35 70 -36q26 -2 81.5 -2t167.5 16l-8 -56q-106 -29 -250 -29q-95 0 -124 69q-15 36 -15 90.5t13 125t27.5 112t42.5 79.5q53 72 194 72q101 0 151 -35q42 -29 42 -90q0 -80 -50 -130
q-39 -40 -90 -54q-66 -18 -143 -18t-108 13zM163 281q38 -3 55 -3t56.5 1.5t79 10.5t74.5 34q44 30 44 85q0 32 -24.5 45t-88 13t-98.5 -12t-53.5 -42.5t-25.5 -49.5q-11 -33 -19 -82z" />
    <glyph glyph-name="Edotaccent" unicode="&#x116;" horiz-adv-x="567" 
d="M432 899h50q23 0 19 -25l-9 -54q-3 -23 -26 -23h-50q-10 0 -16 6.5t-5 16.5l9 54q4 25 28 25zM309 732h12l314 -16l-9 -58h-317q-32 0 -44.5 -15t-16.5 -41l-32 -200l328 -10l-10 -59l-330 -10l-32 -200q-4 -39 14 -46q16 -6 41 -6h307l-10 -57l-310 -17h-9
q-49 0 -79 26.5t-30 72.5q0 12 2 27l76 479q21 130 135 130z" />
    <glyph glyph-name="edotaccent" unicode="&#x117;" horiz-adv-x="525" 
d="M355 703h50q22 0 19 -25l-9 -54q-3 -23 -26 -23h-50q-11 0 -17 6.5t-4 16.5l9 54q3 25 28 25zM155 227q-8 -47 -8 -78.5t7 -48.5q16 -35 70 -36q26 -2 81.5 -2t167.5 16l-8 -56q-106 -29 -250 -29q-95 0 -124 69q-15 36 -15 90.5t13 125t27.5 112t42.5 79.5q53 72 194 72
q101 0 151 -35q42 -29 42 -90q0 -80 -50 -130q-39 -40 -90 -54q-66 -18 -143 -18t-108 13zM163 281q38 -3 55 -3t56.5 1.5t79 10.5t74.5 34q44 30 44 85q0 32 -24.5 45t-88 13t-98.5 -12t-53.5 -42.5t-25.5 -49.5q-11 -33 -19 -82z" />
    <glyph glyph-name="Eogonek" unicode="&#x118;" horiz-adv-x="562" 
d="M390 -95q0 69 100 109h39q-74 -54 -74 -91q0 -30 49 -30h9l-10 -60q-12 -2 -22 -2q-43 0 -67 23.5t-24 50.5zM314 732h12l314 -16l-9 -58h-317q-32 0 -44.5 -15t-16.5 -41l-32 -200l328 -10l-10 -59l-330 -10l-32 -200q-4 -39 15 -46q15 -6 40 -6h307l-10 -57l-310 -17
h-9q-49 0 -79 26.5t-30 72.5q0 12 2 27l76 479q21 130 135 130z" />
    <glyph glyph-name="eogonek" unicode="&#x119;" horiz-adv-x="525" 
d="M328 -87q0 69 100 109h39q-74 -54 -74 -91q0 -30 49 -30h9l-10 -60q-12 -2 -22 -2q-43 0 -67 23.5t-24 50.5zM157 227q-8 -47 -8 -78.5t7 -48.5q16 -35 70 -36q26 -2 81.5 -2t167.5 16l-8 -56q-106 -29 -250 -29q-95 0 -124 69q-15 36 -15 90.5t13 125t27.5 112
t42.5 79.5q53 72 194 72q101 0 151 -35q42 -29 42 -90q0 -80 -50 -130q-39 -40 -90 -54q-66 -18 -143 -18t-108 13zM165 281q38 -3 55 -3t56.5 1.5t79 10.5t74.5 34q44 30 44 85q0 32 -24.5 45t-88 13t-98.5 -12t-53.5 -42.5t-25.5 -49.5q-11 -33 -19 -82z" />
    <glyph glyph-name="Ecaron" unicode="&#x11a;" horiz-adv-x="567" 
d="M328 927h65l57 -83l90 83h80l-138 -130h-71zM309 732h12l314 -16l-9 -58h-317q-32 0 -44.5 -15t-16.5 -41l-32 -200l328 -10l-10 -59l-330 -10l-32 -200q-4 -39 14 -46q16 -6 41 -6h307l-10 -57l-310 -17h-9q-49 0 -79 26.5t-30 72.5q0 12 2 27l76 479q21 130 135 130z
" />
    <glyph glyph-name="ecaron" unicode="&#x11b;" horiz-adv-x="525" 
d="M247 731h65l57 -83l90 83h80l-138 -130h-71zM155 227q-8 -47 -8 -78.5t7 -48.5q16 -35 70 -36q26 -2 81.5 -2t167.5 16l-8 -56q-106 -29 -250 -29q-95 0 -124 69q-15 36 -15 90.5t13 125t27.5 112t42.5 79.5q53 72 194 72q101 0 151 -35q42 -29 42 -90q0 -80 -50 -130
q-39 -40 -90 -54q-66 -18 -143 -18t-108 13zM163 281q38 -3 55 -3t56.5 1.5t79 10.5t74.5 34q44 30 44 85q0 32 -24.5 45t-88 13t-98.5 -12t-53.5 -42.5t-25.5 -49.5q-11 -33 -19 -82z" />
    <glyph glyph-name="Gcircumflex" unicode="&#x11c;" horiz-adv-x="609" 
d="M285 799l138 130h71l83 -130h-65l-57 83l-90 -83h-80zM424 739q72 0 226 -29l-8 -59q-70 10 -156 11.5t-97.5 2.5t-24.5 -2.5t-26.5 -7t-27.5 -14.5t-27 -25t-26 -37.5t-25 -52.5q-24 -61 -35.5 -139t-11.5 -133.5t17 -103.5q28 -83 109 -83h2q35 0 83.5 13.5t79.5 27.5
l31 14l34 192h-169l8 50q95 25 179 25q31 0 67 -3l-61 -386h-57l-10 57q-26 -24 -82.5 -44t-110.5 -20t-93 23q-72 42 -94 146q-11 48 -11 98.5t13 125.5t33 139t55 115q66 99 211 99h5z" />
    <glyph glyph-name="gcircumflex" unicode="&#x11d;" horiz-adv-x="553" 
d="M225 597l138 130h71l83 -130h-65l-57 83l-90 -83h-80zM303 -199q37 0 65 24.5t35 70.5l21 133q-99 -38 -178 -38t-119 38.5t-43 101.5q-1 15 -1 49t8 95q20 125 78 193.5t142 68.5q85 0 169 -11t95 -12l-98 -618q-14 -88 -64 -128.5t-106 -40.5q-8 0 -16 1l-254 24l8 49
h258zM165 268q-10 -41 -10 -82.5t4 -56t13 -31.5q16 -34 70 -34q89 0 191 25l60 374h-182q-37 0 -66 -23t-45 -59q-26 -59 -35 -113z" />
    <glyph glyph-name="Gbreve" unicode="&#x11e;" horiz-adv-x="609" 
d="M381 913v-20.5t14.5 -31t40.5 -16.5h3q67 0 77 68h46q-15 -114 -126 -114q-43 0 -72 29t-29 73v12h46zM424 739q72 0 226 -29l-8 -59q-70 10 -156 11.5t-97.5 2.5t-24.5 -2.5t-26.5 -7t-27.5 -14.5t-27 -25t-26 -37.5t-25 -52.5q-24 -61 -35.5 -139t-11.5 -133.5
t17 -103.5q28 -83 109 -83h2q35 0 83.5 13.5t79.5 27.5l31 14l34 192h-169l8 50q95 25 179 25q31 0 67 -3l-61 -386h-57l-10 57q-26 -24 -82.5 -44t-110.5 -20t-93 23q-72 42 -94 146q-11 48 -11 98.5t13 125.5t33 139t55 115q66 99 211 99h5z" />
    <glyph glyph-name="gbreve" unicode="&#x11f;" horiz-adv-x="553" 
d="M332 711q-1 -6 -1 -20.5t15 -31t41 -16.5h3q67 0 77 68h46q-15 -114 -126 -114q-43 0 -72 29t-29 73v12h46zM303 -199q37 0 65 24.5t35 70.5l21 133q-99 -38 -178 -38t-119 38.5t-43 101.5q-1 15 -1 49t8 95q20 125 78 193.5t142 68.5q85 0 169 -11t95 -12l-98 -618
q-14 -88 -64 -128.5t-106 -40.5q-8 0 -16 1l-254 24l8 49h258zM165 268q-10 -41 -10 -82.5t4 -56t13 -31.5q16 -34 70 -34q89 0 191 25l60 374h-182q-37 0 -66 -23t-45 -59q-26 -59 -35 -113z" />
    <glyph glyph-name="Gdotaccent" unicode="&#x120;" horiz-adv-x="609" 
d="M428 902h50q20 0 20 -18q0 -3 -1 -7l-9 -54q-3 -23 -26 -23h-50q-24 0 -21 23l9 54q3 25 28 25zM424 739q72 0 226 -29l-8 -59q-70 10 -156 11.5t-97.5 2.5t-24.5 -2.5t-26.5 -7t-27.5 -14.5t-27 -25t-26 -37.5t-25 -52.5q-24 -61 -35.5 -139t-11.5 -133.5t17 -103.5
q28 -83 109 -83h2q35 0 83.5 13.5t79.5 27.5l31 14l34 192h-169l8 50q95 25 179 25q31 0 67 -3l-61 -386h-57l-10 57q-26 -24 -82.5 -44t-110.5 -20t-93 23q-72 42 -94 146q-11 48 -11 98.5t13 125.5t33 139t55 115q66 99 211 99h5z" />
    <glyph glyph-name="gdotaccent" unicode="&#x121;" horiz-adv-x="553" 
d="M383 699h50q22 0 19 -25l-9 -54q-3 -23 -26 -23h-50q-11 0 -17 6.5t-4 16.5l9 54q3 25 28 25zM303 -199q37 0 65 24.5t35 70.5l21 133q-99 -38 -178 -38t-119 38.5t-43 101.5q-1 15 -1 49t8 95q20 125 78 193.5t142 68.5q85 0 169 -11t95 -12l-98 -618
q-14 -88 -64 -128.5t-106 -40.5q-8 0 -16 1l-254 24l8 49h258zM165 268q-10 -41 -10 -82.5t4 -56t13 -31.5q16 -34 70 -34q89 0 191 25l60 374h-182q-37 0 -66 -23t-45 -59q-26 -59 -35 -113z" />
    <glyph glyph-name="Gcommaaccent" unicode="&#x122;" horiz-adv-x="609" 
d="M300 -170q-10 0 -15.5 6t-3.5 16l7 49q4 24 27 24h46q18 0 18 -18q0 -3 -1 -6l-12 -81q-4 -24 -15 -40q-22 -31 -67 -31q-3 0 -15 2l5 29q12 -1 20 5q9 7 12 23l4 22h-10zM424 739q72 0 226 -29l-8 -59q-70 10 -156 11.5t-97.5 2.5t-24.5 -2.5t-26.5 -7t-27.5 -14.5
t-27 -25t-26 -37.5t-25 -52.5q-24 -61 -35.5 -139t-11.5 -133.5t17 -103.5q28 -83 109 -83h2q35 0 83.5 13.5t79.5 27.5l31 14l34 192h-169l8 50q95 25 179 25q31 0 67 -3l-61 -386h-57l-10 57q-26 -24 -82.5 -44t-110.5 -20t-93 23q-72 42 -94 146q-11 48 -11 98.5
t13 125.5t33 139t55 115q66 99 211 99h5z" />
    <glyph glyph-name="gcommaaccent" unicode="&#x123;" 
d="M304 -199q37 0 65 24.5t35 70.5l21 133q-99 -38 -178 -38t-119 38.5t-44 101.5v49t8 95q20 125 78 193.5t142 68.5q85 0 169 -11t95 -12l-98 -618q-14 -88 -64 -128.5t-106 -40.5q-8 0 -16 1l-254 24l8 49h258zM166 268q-10 -41 -10 -82.5t4 -56t12 -31.5q18 -34 71 -34
q89 0 191 25l60 374h-182q-37 0 -66 -23t-45 -59q-26 -59 -35 -113zM418 770h3l21 -2l-5 -29q-19 0 -24 -8q-6 -10 -8 -20l-4 -23h10q22 0 19 -22l-7 -49q-5 -24 -27 -24h-46q-17 0 -17 18v6l12 81q6 38 29.5 55t43.5 17z" />
    <glyph glyph-name="Hcircumflex" unicode="&#x124;" horiz-adv-x="644" 
d="M314 797l138 130h71l83 -130h-65l-57 83l-90 -83h-80zM85 0l116 732h74l-55 -341h350l55 341h74l-116 -732h-74l51 317h-350l-51 -317h-74z" />
    <glyph glyph-name="hcircumflex" unicode="&#x125;" 
d="M104 844l138 130h71l83 -130h-65l-57 83l-90 -83h-80zM442 540q76 0 112 -50q28 -38 28 -88q0 -16 -3 -32l-59 -370h-74l59 370q2 12 2 23q0 31 -18 52t-57.5 21t-74.5 -8t-57 -16.5t-75 -32.5l-65 -409h-74l124 784h74l-50 -315q49 33 124 57q40 14 84 14z" />
    <glyph glyph-name="Hbar" unicode="&#x126;" horiz-adv-x="639" 
d="M85 0l82 517h-61l8 55h61l26 160h74l-26 -160h350l26 160h74l-26 -160h59l-8 -55h-59l-82 -517h-74l52 318h-350l-52 -318h-74zM221 393h350l20 124h-350z" />
    <glyph glyph-name="hbar" unicode="&#x127;" horiz-adv-x="537" 
d="M409 540q76 0 112 -50q28 -38 28 -88q0 -16 -3 -32l-59 -370h-74l59 370q2 12 2 23q0 31 -18 52t-56 21q-71 0 -198 -57l-65 -409h-77l97 610h-77l8 54h77l19 120h77l-19 -120h134l-8 -54h-134l-23 -141q9 6 42 22t38 18.5t19 8.5t20.5 8t18.5 5.5t21 4.5q19 4 39 4z" />
    <glyph glyph-name="Itilde" unicode="&#x128;" horiz-adv-x="225" 
d="M276.5 884q30.5 -16 36.5 -16h11.5t29.5 8q49 16 64 26l15 -42q-9 -6 -30 -21q-61 -41 -94 -41q-31 0 -59 17t-44 17q-33 0 -64 -16t-37 -19l-15 41q30 22 46 32q47 32 78.5 31t62 -17zM90 0l116 732h74l-116 -732h-74z" />
    <glyph glyph-name="itilde" unicode="&#x129;" horiz-adv-x="195" 
d="M202.5 683q30.5 -16 36.5 -16h14t45.5 14.5t45.5 19.5l15 -42q-9 -6 -30 -21q-61 -41 -94 -41q-25 0 -43.5 9t-32 17t-31 8t-33 -5t-37 -16t-27.5 -14l-15 41q30 22 46 32q47 32 78.5 31t62 -17zM60 0l84 531h74l-84 -531h-74z" />
    <glyph glyph-name="Imacron" unicode="&#x12a;" horiz-adv-x="225" 
d="M48 792l10 63h292l-10 -63h-292zM42 0l116 732h74l-116 -732h-74z" />
    <glyph glyph-name="imacron" unicode="&#x12b;" horiz-adv-x="195" 
d="M43 596l10 63h292l-10 -63h-292zM60 0l84 531h74l-84 -531h-74z" />
    <glyph glyph-name="Iogonek" unicode="&#x12e;" horiz-adv-x="225" 
d="M9 -109q0 69 101 109h39q-74 -54 -74 -91q0 -30 49 -30h9l-10 -60q-12 -1 -22 -1q-43 0 -67.5 23t-24.5 50zM90 0l116 732h74l-116 -732h-74z" />
    <glyph glyph-name="iogonek" unicode="&#x12f;" horiz-adv-x="195" 
d="M-50 -103q0 69 101 109h39q-74 -54 -74 -91q0 -30 49 -30h9l-10 -60q-12 -1 -22 -1q-43 0 -67.5 23t-24.5 50zM60 0h74l84 531h-74zM182 695h50q20 0 20 -18q0 -3 -1 -7l-8 -54q-3 -23 -27 -23h-50q-20 0 -20 18v5l8 54q3 25 28 25z" />
    <glyph glyph-name="Idotaccent" unicode="&#x130;" horiz-adv-x="225" 
d="M295 899q20 0 20 -20q0 -2 -1 -5l-9 -54q-3 -23 -26 -23h-50q-10 0 -16 6.5t-5 16.5l9 54q4 25 28 25h50zM90 0l116 732h74l-116 -732h-74z" />
    <glyph glyph-name="dotlessi" unicode="&#x131;" horiz-adv-x="195" 
d="M60 0l84 531h74l-84 -531h-74z" />
    <glyph glyph-name="Jcircumflex" unicode="&#x134;" horiz-adv-x="360" 
d="M242 797l138 130h71l83 -130h-65l-57 83l-90 -83h-80zM51 75q61 -15 85 -15t37.5 4t31.5 14q35 20 46 87l90 567h74l-90 -567q-17 -113 -75 -147q-42 -24 -105 -24q-70 0 -107 27z" />
    <glyph glyph-name="jcircumflex" unicode="&#x135;" horiz-adv-x="209" 
d="M26 -270l127 801h79l-85 -535q-23 -155 -68 -266h-53zM44 597l137 134h71l84 -134h-69l-52 80l-87 -80h-84z" />
    <glyph glyph-name="Kcommaaccent" unicode="&#x136;" horiz-adv-x="572" 
d="M265 -165q-10 0 -15.5 6t-3.5 17l7 48q4 24 27 24h46q18 0 18 -18q0 -3 -1 -6l-12 -81q-4 -24 -15 -40q-22 -31 -67 -31q-3 0 -15 2l5 29q12 -1 20 5q9 7 12 22l4 23h-10zM80 0l116 732h74l-52 -328h87l275 328h92l-304 -370l188 -362h-89l-169 330h-91l-52 -330h-75z
" />
    <glyph glyph-name="kcommaaccent" unicode="&#x137;" horiz-adv-x="490" 
d="M230 -165q-10 0 -15.5 6t-3.5 17l7 48q4 24 27 24h46q18 0 18 -18q0 -3 -1 -6l-12 -81q-4 -24 -15 -40q-22 -31 -67 -31q-3 0 -15 2l5 29q12 -1 20 5q9 7 12 22l4 23h-10zM60 -2l124 782h74l-74 -466q70 21 157.5 91t98.5 124h83q-21 -73 -96 -144.5t-137 -98.5l201 -288
h-90l-186 268l-38 -1l-43 -267h-74z" />
    <glyph glyph-name="kgreenlandic" unicode="&#x138;" horiz-adv-x="528" 
d="M60 0l84 531h74l-36 -231h94l219 231h97l-245 -268l160 -263h-89l-142 226h-105l-37 -226h-74z" />
    <glyph glyph-name="Lacute" unicode="&#x139;" horiz-adv-x="535" 
d="M148 792l128 133h95l-154 -133h-69zM166 74h306l-11 -74h-308q-57 0 -87.5 27t-30.5 72q0 12 2 27l98 606h73l-97 -606q-6 -38 15 -46q15 -6 40 -6z" />
    <glyph glyph-name="lacute" unicode="&#x13a;" horiz-adv-x="290" 
d="M168 843l128 133h95l-154 -133h-69zM136 189q-6 -32 -6 -51.5t2 -30t10 -17.5q11 -11 60 -22.5t50 -11.5l-9 -56h-68q-118 0 -118 130q0 27 5 59l94 594h74z" />
    <glyph glyph-name="Lcommaaccent" unicode="&#x13b;" horiz-adv-x="535" 
d="M270 -165q-10 0 -15.5 6t-3.5 17l7 48q4 24 27 24h46q18 0 18 -18q0 -3 -1 -6l-12 -81q-4 -24 -15 -40q-22 -31 -67 -31q-3 0 -15 2l5 29q12 -1 20 5q9 7 12 22l4 23h-10zM228 74h306l-11 -74h-308q-57 0 -87.5 27t-30.5 72q0 12 2 27l98 606h73l-97 -606q-6 -38 15 -46
q15 -6 40 -6z" />
    <glyph glyph-name="lcommaaccent" unicode="&#x13c;" horiz-adv-x="290" 
d="M121 -165q-10 0 -15.5 6t-3.5 17l7 48q4 24 27 24h46q18 0 18 -18q0 -3 -1 -6l-12 -81q-4 -24 -15 -40q-22 -31 -67 -31q-3 0 -15 2l5 29q12 -1 20 5q9 7 12 22l4 23h-10zM163 189q-6 -32 -6 -51.5t2 -30t9 -17.5q12 -11 61 -22.5t50 -11.5l-9 -56h-68q-118 0 -118 130
q0 27 5 59l94 594h74z" />
    <glyph glyph-name="Lcaron" unicode="&#x13d;" horiz-adv-x="535" 
d="M228 74h306l-11 -74h-308q-57 0 -87.5 27t-30.5 72q0 12 2 27l98 606h73l-97 -606q-6 -38 15 -46q15 -6 40 -6zM327 571l10 134l11 67h74l-11 -67l-31 -134h-53z" />
    <glyph glyph-name="lcaron" unicode="&#x13e;" horiz-adv-x="297" 
d="M163 189q-6 -32 -6 -51.5t2 -30t9 -17.5q12 -11 61 -22.5t50 -11.5l-9 -56h-68q-118 0 -118 129q0 27 5 60l94 594h74zM312 580l10 134l11 67h74l-11 -67l-31 -134h-53z" />
    <glyph glyph-name="Lslash" unicode="&#x141;" horiz-adv-x="535" 
d="M225 74h307l-12 -74h-307q-57 0 -87.5 27t-30.5 72q0 12 2 27l37 231l-90 -37l10 61l90 36l50 315h73l-45 -283l149 60l-11 -60l-147 -60l-42 -263q-6 -39 13 -46q16 -6 41 -6z" />
    <glyph glyph-name="lslash" unicode="&#x142;" horiz-adv-x="363" 
d="M222 189q-7 -39 -7 -60t7 -32t15 -15t54 -15t47 -11l-8 -56h-68q-119 0 -119 129q0 27 5 60l34 214l-82 -34l10 61l82 33l51 320h77l-46 -286l153 61l-11 -60l-151 -62z" />
    <glyph glyph-name="Nacute" unicode="&#x143;" horiz-adv-x="660" 
d="M431 797l128 133h95l-154 -133h-69zM80 0l116 732h72l279 -594l94 594h74l-116 -732h-70l-280 594l-94 -594h-75z" />
    <glyph glyph-name="nacute" unicode="&#x144;" 
d="M338 600l128 133h95l-154 -133h-69zM416 540q76 0 112 -50q28 -38 28 -88q0 -16 -3 -32l-59 -370h-74l59 370q2 12 2 22q0 32 -18.5 53t-57.5 21t-74 -8t-57 -16.5t-75 -32.5l-65 -409h-74l84 531h52l12 -62q49 33 124 57q40 14 84 14z" />
    <glyph glyph-name="Ncommaaccent" unicode="&#x145;" horiz-adv-x="660" 
d="M311 -165q-10 0 -15.5 6t-3.5 17l7 48q4 24 27 24h46q18 0 18 -18q0 -3 -1 -6l-12 -81q-4 -24 -15 -40q-22 -31 -67 -31q-3 0 -15 2l5 29q12 -1 20 5q9 7 12 22l4 23h-10zM80 0l116 732h72l279 -594l94 594h74l-116 -732h-70l-280 594l-94 -594h-75z" />
    <glyph glyph-name="ncommaaccent" unicode="&#x146;" 
d="M239 -165q-10 0 -15.5 6t-3.5 17l7 48q4 24 27 24h46q18 0 18 -18q0 -3 -1 -6l-12 -81q-4 -24 -15 -40q-22 -31 -67 -31q-3 0 -15 2l5 29q12 -1 20 5q9 7 12 22l4 23h-10zM416 540q76 0 112 -50q28 -38 28 -88q0 -16 -3 -32l-59 -370h-74l59 370q2 12 2 22q0 32 -18.5 53
t-57.5 21t-74 -8t-57 -16.5t-75 -32.5l-65 -409h-74l84 531h52l12 -62q49 33 124 57q40 14 84 14z" />
    <glyph glyph-name="Ncaron" unicode="&#x147;" horiz-adv-x="660" 
d="M341 927h65l57 -83l90 83h80l-138 -130h-71zM80 0l116 732h72l279 -594l94 594h74l-116 -732h-70l-280 594l-94 -594h-75z" />
    <glyph glyph-name="ncaron" unicode="&#x148;" 
d="M252 730h65l57 -83l90 83h80l-138 -130h-71zM416 540q76 0 112 -50q28 -38 28 -88q0 -16 -3 -32l-59 -370h-74l59 370q2 12 2 22q0 32 -18.5 53t-57.5 21t-74 -8t-57 -16.5t-75 -32.5l-65 -409h-74l84 531h52l12 -62q49 33 124 57q40 14 84 14z" />
    <glyph glyph-name="Eng" unicode="&#x14a;" horiz-adv-x="660" 
d="M80 0l116 732h72l279 -594l94 594h74l-129 -816q-20 -124 -113 -156q-52 -17 -129 -17l9 57q10 3 31.5 7t33.5 7t30.5 12t29.5 20q26 28 36 84l12 76l-277 588l-94 -594h-75z" />
    <glyph glyph-name="eng" unicode="&#x14b;" horiz-adv-x="554" 
d="M416 540q76 0 112 -50q28 -38 28 -88q0 -16 -3 -32l-74 -460q-10 -46 -38 -91q-10 -16 -29 -30l-28 -21q-18 -13 -44.5 -21t-51.5 -15l-24 38l24 12q65 32 85 57q25 30 32 67l74 464q2 12 2 22q0 32 -18.5 53t-57.5 21t-74 -8t-57 -16.5t-75 -32.5l-65 -409h-74l84 531
h52l12 -62q49 33 124 57q40 14 84 14z" />
    <glyph glyph-name="Omacron" unicode="&#x14c;" horiz-adv-x="667" 
d="M319 792l10 63h292l-10 -63h-292zM350.5 731q38.5 6 88 6t80 -3.5t60.5 -13.5t50 -27q46 -40 59 -113q5 -34 5 -60.5t-0.5 -57.5t-12 -106t-28.5 -134t-40.5 -99t-49 -65.5t-60.5 -39.5q-60 -22 -152 -22q-127 0 -178 38q-48 37 -62 109q-7 34 -7 60.5t0.5 57t14 116
t37 155t50 110t67 62t79 27.5zM211.5 471.5q-12.5 -47.5 -23.5 -117.5t-11.5 -97.5t-0.5 -53t9 -57t33.5 -48.5t54.5 -22.5t83.5 -5.5t90.5 10.5t70 41.5q63 59 90 239q13 80 13 134.5t-6.5 77t-13 37.5t-21 25.5t-25.5 16t-32 8.5q-31 3 -71.5 3t-59 -1t-46 -6.5t-42.5 -17
t-34.5 -33t-32 -54t-25 -80z" />
    <glyph glyph-name="omacron" unicode="&#x14d;" horiz-adv-x="564" 
d="M228 596l10 63h292l-10 -63h-292zM173 477.5q59 58.5 187.5 58.5t174.5 -68q30 -45 30 -121q0 -40 -8 -89q-25 -150 -80.5 -206.5t-185 -56.5t-177.5 61q-32 41 -32 120q0 37 7 82q25 161 84 219.5zM190 367.5q-15 -40.5 -25 -99.5t-10 -88.5t6.5 -48.5t16.5 -32t29 -19
q31 -11 81 -11t75.5 5t51.5 23.5t41.5 57.5t25.5 97.5t10 102.5t-16 67q-28 40 -120 40q-47 0 -74 -6t-52 -27t-40 -61.5z" />
    <glyph glyph-name="Ohungarumlaut" unicode="&#x150;" horiz-adv-x="667" 
d="M356 797l128 133h95l-154 -133h-69zM491 797l128 133h95l-154 -133h-69zM350.5 731q38.5 6 88 6t80 -3.5t60.5 -13.5t50 -27q46 -40 59 -113q5 -34 5 -60.5t-0.5 -57.5t-12 -106t-28.5 -134t-40.5 -99t-49 -65.5t-60.5 -39.5q-60 -22 -152 -22q-127 0 -178 38
q-48 37 -62 109q-7 34 -7 60.5t0.5 57t14 116t37 155t50 110t67 62t79 27.5zM211.5 471.5q-12.5 -47.5 -23.5 -117.5t-11.5 -97.5t-0.5 -53t9 -57t33.5 -48.5t54.5 -22.5t83.5 -5.5t90.5 10.5t70 41.5q63 59 90 239q13 80 13 134.5t-6.5 77t-13 37.5t-21 25.5t-25.5 16
t-32 8.5q-31 3 -71.5 3t-59 -1t-46 -6.5t-42.5 -17t-34.5 -33t-32 -54t-25 -80z" />
    <glyph glyph-name="ohungarumlaut" unicode="&#x151;" horiz-adv-x="564" 
d="M272 596l128 133h95l-154 -133h-69zM407 596l128 133h95l-154 -133h-69zM173 477.5q59 58.5 187.5 58.5t174.5 -68q30 -45 30 -121q0 -40 -8 -89q-25 -150 -80.5 -206.5t-185 -56.5t-177.5 61q-32 41 -32 120q0 37 7 82q25 161 84 219.5zM190 367.5q-15 -40.5 -25 -99.5
t-10 -88.5t6.5 -48.5t16.5 -32t29 -19q31 -11 81 -11t75.5 5t51.5 23.5t41.5 57.5t25.5 97.5t10 102.5t-16 67q-28 40 -120 40q-47 0 -74 -6t-52 -27t-40 -61.5z" />
    <glyph glyph-name="OE" unicode="&#x152;" horiz-adv-x="1076" 
d="M339.5 731q38.5 6 108 6t121.5 -17.5t81 -64.5q28 77 121 77h11l314 -16l-9 -58h-317q-32 0 -44.5 -15t-16.5 -41l-31 -200l327 -10l-9 -59l-331 -10l-32 -200q-4 -39 15 -46q15 -6 40 -6h307l-10 -57l-309 -17h-8q-36 0 -66.5 16.5t-40.5 53.5q-39 -41 -92 -56t-111 -15
t-86 2.5t-59 11.5t-51 24q-49 37 -64 109q-6 34 -6 60.5t0.5 57t14 116t37 155t50 110t67 62t79 27.5zM200.5 471.5q-12.5 -47.5 -23.5 -117.5t-11.5 -97.5t-0.5 -53t9 -57t33.5 -48.5t54.5 -22.5t83.5 -5.5t90.5 10.5t70 41.5q63 59 90 239q13 80 13 134.5t-6.5 77
t-13 37.5t-21 25.5t-25.5 16t-33 8.5q-30 3 -70.5 3t-59 -1t-46 -6.5t-42.5 -17t-34.5 -33t-32 -54t-25 -80z" />
    <glyph glyph-name="oe" unicode="&#x153;" horiz-adv-x="928" 
d="M548 227q-8 -47 -8 -78.5t8 -48.5q15 -36 69 -36q150 0 249 14l-8 -56q-106 -29 -250 -29q-96 0 -126 73q-57 -71 -192.5 -71t-183.5 62q-32 42 -32 122q0 37 7 82q25 161 84 218t194.5 57t177.5 -85q57 90 209 90q101 0 152 -35q41 -29 41 -90q0 -80 -49 -130
q-40 -40 -91 -54q-66 -18 -143 -18t-108 13zM182 367.5q-15 -40.5 -25 -99.5t-10 -88.5t6.5 -48.5t16.5 -32t29 -19q31 -11 81 -11t75.5 5t51.5 23.5t41.5 57.5t25.5 97.5t10 102.5t-16 67q-28 40 -120 40q-47 0 -74 -6t-52 -27t-40 -61.5zM556 281q38 -3 55 -3t56.5 1.5
t79 10.5t75.5 34q43 30 43 85q0 32 -24.5 45t-88 13t-98.5 -12t-53.5 -42.5t-24.5 -49.5q-12 -33 -20 -82z" />
    <glyph glyph-name="Racute" unicode="&#x154;" horiz-adv-x="610" 
d="M383 797l128 133h95l-154 -133h-69zM503 732q137 0 137 -169q0 -24 -3 -51q-19 -191 -159 -210l106 -302h-81l-99 294l-206 14l-49 -308h-74l116 732h312zM441 372q47 0 81 32.5t40 107.5q3 23 3 39t-2.5 34.5t-6 34.5t-14.5 24q-19 13 -51 13h-237l-45 -285h232z" />
    <glyph glyph-name="racute" unicode="&#x155;" horiz-adv-x="427" 
d="M372 597l128 133h95l-154 -133h-69zM463 535q16 2 53.5 2t52.5 -8l-12 -73q-24 6 -67.5 6t-79 -8t-57.5 -17t-76 -33l-64 -404h-74l84 531h52l11 -67q6 3 27.5 14.5t29.5 15.5t27 13t30.5 12.5t29 8.5t33.5 7z" />
    <glyph glyph-name="Rcommaaccent" unicode="&#x156;" horiz-adv-x="610" 
d="M287 -165q-10 0 -15.5 6t-3.5 17l7 48q4 24 27 24h46q18 0 18 -18q0 -3 -1 -6l-12 -81q-4 -24 -15 -40q-22 -31 -67 -31q-3 0 -15 2l5 29q19 -1 24 7q7 11 8 20l4 23h-10zM503 732q137 0 137 -169q0 -24 -3 -51q-19 -191 -159 -210l106 -302h-81l-99 294l-206 14
l-49 -308h-74l116 732h312zM441 372q47 0 81 32.5t40 107.5q3 23 3 39t-2.5 34.5t-6 34.5t-14.5 24q-19 13 -51 13h-237l-45 -285h232z" />
    <glyph glyph-name="rcommaaccent" unicode="&#x157;" horiz-adv-x="427" 
d="M91 -165q-10 0 -15.5 6t-3.5 17l7 48q4 24 27 24h46q18 0 18 -18q0 -3 -1 -6l-12 -81q-4 -24 -15 -40q-22 -31 -67 -31q-3 0 -15 2l5 29q12 -1 20 5q9 7 12 22l4 23h-10zM427 535q16 2 53.5 2t52.5 -8l-12 -73q-24 6 -67.5 6t-79 -8t-57.5 -17t-76 -33l-64 -404h-74
l84 531h52l11 -67q6 3 27.5 14.5t29.5 15.5t27 13t30.5 12.5t29 8.5t33.5 7z" />
    <glyph glyph-name="Rcaron" unicode="&#x158;" horiz-adv-x="610" 
d="M297 927h65l57 -83l90 83h80l-138 -130h-71zM503 732q137 0 137 -169q0 -24 -3 -51q-19 -191 -159 -210l106 -302h-81l-99 294l-206 14l-49 -308h-74l116 732h312zM441 372q47 0 81 32.5t40 107.5q3 23 3 39t-2.5 34.5t-6 34.5t-14.5 24q-19 13 -51 13h-237l-45 -285h232
z" />
    <glyph glyph-name="rcaron" unicode="&#x159;" horiz-adv-x="427" 
d="M202 727h65l57 -83l90 83h80l-138 -130h-71zM384 535q16 2 53.5 2t52.5 -8l-12 -73q-24 6 -67.5 6t-79 -8t-57.5 -17t-76 -33l-64 -404h-74l84 531h52l11 -67q6 3 27.5 14.5t29.5 15.5t27 13t30.5 12.5t29 8.5t33.5 7z" />
    <glyph glyph-name="Sacute" unicode="&#x15a;" horiz-adv-x="571" 
d="M370 798l128 133h95l-154 -133h-69zM323 66q129 0 143 90l11 68q3 20 3 40t-7 34q-12 24 -64 24h-139q-154 0 -154 128q0 21 4 44l10 66q18 112 82 149q52 29 124 29q101 0 265 -24l-9 -59l-248 9h-16q-52 0 -83 -18.5t-41 -85.5l-10 -66q-3 -21 -3 -37t3 -26t8.5 -17.5
t12.5 -10.5t16 -5t19 -2h171q44 0 74 -15.5t42 -40.5q18 -37 18 -67t-4 -49l-11 -68q-7 -44 -26 -75.5t-41 -48t-53 -26.5q-49 -14 -104.5 -14t-135.5 8.5t-113 15.5l9 60q72 -10 247 -10z" />
    <glyph glyph-name="sacute" unicode="&#x15b;" horiz-adv-x="508" 
d="M321 601l128 133h95l-154 -133h-69zM438 172q2 9 2 20.5t-8.5 23t-40.5 11.5h-148q-74 0 -102.5 26t-28.5 71q0 16 3 34l8 51q11 67 47.5 99.5t122 32.5t248.5 -16l-9 -57h-261q-56 0 -69 -40q-3 -8 -5 -19l-8 -51q-4 -13 -2 -22t2 -15.5t5.5 -10t7.5 -6t9.5 -3t10.5 -1
t11 0t11 0.5h150q64 0 92 -32t28 -73q0 -11 -2 -24l-9 -63q-12 -78 -61 -101q-39 -18 -89 -18q-95 0 -271 19l9 55h274q19 -3 39.5 12t24.5 42z" />
    <glyph glyph-name="Scircumflex" unicode="&#x15c;" horiz-adv-x="571" 
d="M263 798l138 130h71l83 -130h-65l-57 83l-90 -83h-80zM335 66q129 0 143 90l11 68q3 20 3 40t-7 34q-12 24 -64 24h-139q-154 0 -154 128q0 21 4 44l10 66q18 112 82 149q52 29 124 29q101 0 265 -24l-9 -59l-248 9h-16q-52 0 -83 -18.5t-41 -85.5l-10 -66q-3 -21 -3 -37
t3 -26t8.5 -17.5t12.5 -10.5t16 -5t19 -2h171q44 0 74 -15.5t42 -40.5q18 -37 18 -67t-4 -49l-11 -68q-7 -44 -26 -75.5t-41 -48t-53 -26.5q-49 -14 -104.5 -14t-135.5 8.5t-113 15.5l9 60q72 -10 247 -10z" />
    <glyph glyph-name="scircumflex" unicode="&#x15d;" horiz-adv-x="508" 
d="M201 601l138 130h71l83 -130h-65l-57 83l-90 -83h-80zM420 172q2 9 2 20.5t-8.5 23t-40.5 11.5h-148q-74 0 -102.5 26t-28.5 71q0 16 3 34l8 51q11 67 47.5 99.5t122 32.5t248.5 -16l-9 -57h-261q-56 0 -69 -40q-3 -8 -5 -19l-8 -51q-4 -13 -2 -22t2 -15.5t5.5 -10
t7.5 -6t9.5 -3t10.5 -1t11 0t11 0.5h150q64 0 92 -32t28 -73q0 -11 -2 -24l-9 -63q-12 -78 -61 -101q-39 -18 -89 -18q-95 0 -271 19l9 55h274q19 -3 39.5 12t24.5 42z" />
    <glyph glyph-name="Scedilla" unicode="&#x15e;" horiz-adv-x="571" 
d="M222 -181h-51l6 37l55 15q35 14 46 84h67q-12 -78 -38 -107t-85 -29zM335 66q129 0 143 90l11 68q3 20 3 40t-7 34q-12 24 -64 24h-139q-154 0 -154 128q0 21 4 44l10 66q18 112 82 149q52 29 124 29q101 0 265 -24l-9 -59l-248 9h-16q-52 0 -83 -18.5t-41 -85.5l-10 -66
q-3 -21 -3 -37t3 -26t8.5 -17.5t12.5 -10.5t16 -5t19 -2h171q44 0 74 -15.5t42 -40.5q18 -37 18 -67t-4 -49l-11 -68q-7 -44 -26 -75.5t-41 -48t-53 -26.5q-49 -14 -104.5 -14t-135.5 8.5t-113 15.5l9 60q72 -10 247 -10z" />
    <glyph glyph-name="scedilla" unicode="&#x15f;" horiz-adv-x="508" 
d="M177 -175h-51l6 37l55 15q35 14 46 84h67q-12 -78 -38 -107t-85 -29zM420 172q2 9 2 20.5t-8.5 23t-40.5 11.5h-148q-74 0 -102.5 26t-28.5 71q0 16 3 34l8 51q11 67 47.5 99.5t122 32.5t248.5 -16l-9 -57h-261q-56 0 -69 -40q-3 -8 -5 -19l-8 -51q-4 -13 -2 -22t2 -15.5
t5.5 -10t7.5 -6t9.5 -3t10.5 -1t11 0t11 0.5h150q64 0 92 -32t28 -73q0 -11 -2 -24l-9 -63q-12 -78 -61 -101q-39 -18 -89 -18q-95 0 -271 19l9 55h274q19 -3 39.5 12t24.5 42z" />
    <glyph glyph-name="Scaron" unicode="&#x160;" horiz-adv-x="571" 
d="M299 928h65l57 -83l90 83h80l-138 -130h-71zM335 66q129 0 143 90l11 68q3 20 3 40t-7 34q-12 24 -64 24h-139q-154 0 -154 128q0 21 4 44l10 66q18 112 82 149q52 29 124 29q101 0 265 -24l-9 -59l-248 9h-16q-52 0 -83 -18.5t-41 -85.5l-10 -66q-3 -21 -3 -37t3 -26
t8.5 -17.5t12.5 -10.5t16 -5t19 -2h171q44 0 74 -15.5t42 -40.5q18 -37 18 -67t-4 -49l-11 -68q-7 -44 -26 -75.5t-41 -48t-53 -26.5q-49 -14 -104.5 -14t-135.5 8.5t-113 15.5l9 60q72 -10 247 -10z" />
    <glyph glyph-name="scaron" unicode="&#x161;" horiz-adv-x="508" 
d="M218 731h65l57 -83l90 83h80l-138 -130h-71zM420 172q2 9 2 20.5t-8.5 23t-40.5 11.5h-148q-74 0 -102.5 26t-28.5 71q0 16 3 34l8 51q11 67 47.5 99.5t122 32.5t248.5 -16l-9 -57h-261q-56 0 -69 -40q-3 -8 -5 -19l-8 -51q-4 -13 -2 -22t2 -15.5t5.5 -10t7.5 -6t9.5 -3
t10.5 -1t11 0t11 0.5h150q64 0 92 -32t28 -73q0 -11 -2 -24l-9 -63q-12 -78 -61 -101q-39 -18 -89 -18q-95 0 -271 19l9 55h274q19 -3 39.5 12t24.5 42z" />
    <glyph glyph-name="Tcommaaccent" unicode="&#x162;" horiz-adv-x="579" 
d="M170 -185h-51l6 37l55 15q35 14 46 84h67q-12 -78 -38 -107t-85 -29zM119 658l12 74h508l-12 -74h-220l-104 -658h-74l104 658h-214z" />
    <glyph glyph-name="tcommaaccent" unicode="&#x163;" horiz-adv-x="378" 
d="M114 -187h-51l6 37l55 15q35 14 46 84h67q-12 -78 -38 -107t-85 -29zM263 0q-119 0 -119 128q0 27 5 61l42 269h-99l9 56l102 18l41 148h56l-23 -148h155l-12 -74h-155l-42 -269q-3 -38 -4.5 -50.5t-1.5 -22t7 -20t15 -14.5t53.5 -15t46.5 -11l-8 -56h-68z" />
    <glyph glyph-name="Tcaron" unicode="&#x164;" horiz-adv-x="579" 
d="M290 927h65l57 -83l90 83h80l-138 -130h-71zM139 658l12 74h508l-12 -74h-220l-104 -658h-74l104 658h-214z" />
    <glyph glyph-name="tcaron" unicode="&#x165;" horiz-adv-x="409" 
d="M195 190q-4 -39 -4 -61t3 -30q8 -16 41 -24q74 -18 75 -18l-8 -56h-68q-118 0 -118 129q0 27 5 60l42 268h-99l9 56l102 18l41 148h56l-23 -148h155l-12 -74h-155zM328 599l12 134l9 67h75l-10 -67l-33 -134h-53z" />
    <glyph glyph-name="Tbar" unicode="&#x166;" horiz-adv-x="579" 
d="M139 658l12 74h508l-12 -74h-220l-34 -214h120l-8 -54h-120l-62 -390h-74l62 390h-120l8 54h120l34 214h-214z" />
    <glyph glyph-name="tbar" unicode="&#x167;" horiz-adv-x="368" 
d="M223 190q-7 -40 -7 -60.5t7 -31.5t15 -15t54 -15t47 -11l-9 -56h-68q-118 0 -118 129q0 27 5 60l12 78h-81l9 54h81l21 136h-99l9 56l102 18l41 148h56l-23 -148h155l-12 -74h-155l-21 -136h105l-9 -54h-105z" />
    <glyph glyph-name="Utilde" unicode="&#x168;" horiz-adv-x="656" 
d="M486.5 884q30.5 -16 36.5 -16h12t29 8q49 16 65 26l15 -42q-10 -6 -31 -21q-60 -41 -94 -41q-31 0 -59 17t-43 17q-33 0 -64 -16t-37 -19l-15 41q68 50 90.5 57t43.5 6t51.5 -17zM202 302q-8 -61 -8 -85.5v-30.5q2 -46 23 -72t50 -35.5t77 -9.5q100 0 152.5 51.5
t72.5 181.5l68 430h75l-68 -430q-8 -52 -17 -87.5t-30.5 -81t-52 -72.5t-83.5 -46.5t-123 -19.5q-127 0 -182 73q-37 50 -37 141q0 42 8 93l68 430h75z" />
    <glyph glyph-name="utilde" unicode="&#x169;" horiz-adv-x="543" 
d="M400.5 675q14.5 -8 20.5 -8h14t45.5 14.5t45.5 19.5l15 -42q-9 -6 -30 -21q-61 -41 -94 -41q-31 0 -59 17t-44 17q-33 0 -64 -16t-37 -19l-15 41q30 22 46 32q47 32 75.5 31.5t47.5 -9t33.5 -16.5zM148 134q0 -69 77 -69q67 0 130 25q22 8 75 32l64 409h74l-84 -531h-52
l-12 62q-23 -14 -39.5 -21.5t-33.5 -16t-25.5 -11.5t-24.5 -8.5t-27 -7.5q-35 -6 -57 -6q-77 0 -113 48q-27 36 -27 87q0 16 3 35l58 370h74l-58 -370q-2 -15 -2 -27z" />
    <glyph glyph-name="Umacron" unicode="&#x16a;" horiz-adv-x="656" 
d="M318 797l10 63h292l-10 -63h-292zM202 302q-8 -61 -8 -85.5v-30.5q2 -46 23 -72t50 -35.5t77 -9.5q100 0 152.5 51.5t72.5 181.5l68 430h75l-68 -430q-8 -52 -17 -87.5t-30.5 -81t-52 -72.5t-83.5 -46.5t-123 -19.5q-127 0 -182 73q-37 50 -37 141q0 42 8 93l68 430h75z
" />
    <glyph glyph-name="umacron" unicode="&#x16b;" horiz-adv-x="543" 
d="M215 596l10 63h292l-10 -63h-292zM148 134q0 -69 77 -69q67 0 130 25q22 8 75 32l64 409h74l-84 -531h-52l-12 62q-23 -14 -39.5 -21.5t-33.5 -16t-25.5 -11.5t-24.5 -8.5t-27 -7.5q-35 -6 -57 -6q-77 0 -113 48q-27 36 -27 87q0 16 3 35l58 370h74l-58 -370
q-2 -15 -2 -27z" />
    <glyph glyph-name="Ubreve" unicode="&#x16c;" horiz-adv-x="656" 
d="M415 911q-1 -6 -1 -20.5t14.5 -31t41.5 -16.5h3q66 0 77 68h46q-16 -114 -126 -114q-44 0 -73 29t-29 73q0 6 1 12h46zM202 302q-8 -61 -8 -85.5v-30.5q2 -46 23 -72t50 -35.5t77 -9.5q100 0 152.5 51.5t72.5 181.5l68 430h75l-68 -430q-8 -52 -17 -87.5t-30.5 -81
t-52 -72.5t-83.5 -46.5t-123 -19.5q-127 0 -182 73q-37 50 -37 141q0 42 8 93l68 430h75z" />
    <glyph glyph-name="ubreve" unicode="&#x16d;" horiz-adv-x="543" 
d="M312 710q-1 -6 -1 -20.5t15 -31t41 -16.5h3q66 0 77 68h46q-15 -114 -126 -114q-43 0 -72 29t-29 73v12h46zM148 134q0 -69 77 -69q67 0 130 25q22 8 75 32l64 409h74l-84 -531h-52l-12 62q-23 -14 -39.5 -21.5t-33.5 -16t-25.5 -11.5t-24.5 -8.5t-27 -7.5q-35 -6 -57 -6
q-77 0 -113 48q-27 36 -27 87q0 16 3 35l58 370h74l-58 -370q-2 -15 -2 -27z" />
    <glyph glyph-name="Uring" unicode="&#x16e;" horiz-adv-x="656" 
d="M490 1002q42 0 67 -28.5t25 -64.5q0 -49 -34 -80.5t-76 -31.5t-68 28t-26 64q0 49 35 81t77 32zM439 860q14 -15 36.5 -15t40.5 16q19 18 19 40.5t-13.5 37.5t-36 15t-40.5 -16q-20 -19 -20 -41t14 -37zM202 302q-8 -61 -8 -85.5v-30.5q2 -46 23 -72t50 -35.5t77 -9.5
q100 0 152.5 51.5t72.5 181.5l68 430h75l-68 -430q-8 -52 -17 -87.5t-30.5 -81t-52 -72.5t-83.5 -46.5t-123 -19.5q-127 0 -182 73q-37 50 -37 141q0 42 8 93l68 430h75z" />
    <glyph glyph-name="uring" unicode="&#x16f;" horiz-adv-x="543" 
d="M387 801q42 0 67.5 -28.5t25.5 -64.5q0 -49 -34.5 -80.5t-76.5 -31.5t-67.5 28t-25.5 64q0 49 34.5 81t76.5 32zM337 659q14 -15 36.5 -15t39.5 16q19 18 19 40.5t-13.5 37.5t-36 15t-39.5 -16q-20 -19 -20 -41t14 -37zM148 134q0 -69 77 -69q67 0 130 25q22 8 75 32
l64 409h74l-84 -531h-52l-12 62q-23 -14 -39.5 -21.5t-33.5 -16t-25.5 -11.5t-24.5 -8.5t-27 -7.5q-35 -6 -57 -6q-77 0 -113 48q-27 36 -27 87q0 16 3 35l58 370h74l-58 -370q-2 -15 -2 -27z" />
    <glyph glyph-name="Uhungarumlaut" unicode="&#x170;" horiz-adv-x="656" 
d="M362 797l128 133h95l-154 -133h-69zM497 797l128 133h95l-154 -133h-69zM202 302q-8 -61 -8 -85.5v-30.5q2 -46 23 -72t50 -35.5t77 -9.5q100 0 152.5 51.5t72.5 181.5l68 430h75l-68 -430q-8 -52 -17 -87.5t-30.5 -81t-52 -72.5t-83.5 -46.5t-123 -19.5q-127 0 -182 73
q-37 50 -37 141q0 42 8 93l68 430h75z" />
    <glyph glyph-name="uhungarumlaut" unicode="&#x171;" horiz-adv-x="543" 
d="M259 596l128 133h95l-154 -133h-69zM394 596l128 133h95l-154 -133h-69zM148 134q0 -69 77 -69q67 0 130 25q22 8 75 32l64 409h74l-84 -531h-52l-12 62q-23 -14 -39.5 -21.5t-33.5 -16t-25.5 -11.5t-24.5 -8.5t-27 -7.5q-35 -6 -57 -6q-77 0 -113 48q-27 36 -27 87
q0 16 3 35l58 370h74l-58 -370q-2 -15 -2 -27z" />
    <glyph glyph-name="Uogonek" unicode="&#x172;" horiz-adv-x="656" 
d="M219 -108q0 69 100 109h39q-74 -54 -74 -91q0 -30 49 -30h9l-10 -60q-12 -2 -22 -2q-43 0 -67 23.5t-24 50.5zM202 302l68 430h-75l-68 -430q-8 -51 -8 -93q0 -91 37 -141q55 -73 182 -73q70 0 123 19.5t83.5 46.5t52 72.5t30.5 81t17 87.5l68 430h-75l-68 -430
q-20 -130 -72.5 -181.5t-152.5 -51.5q-48 0 -77 9.5t-50 35.5t-23 72v30.5t8 85.5z" />
    <glyph glyph-name="uogonek" unicode="&#x173;" horiz-adv-x="585" 
d="M340 -109q0 69 100 109h39q-74 -54 -74 -91q0 -30 49 -30h9l-10 -60q-12 -2 -22 -2q-43 0 -67 23.5t-24 50.5zM148 134q0 -69 77 -69q67 0 130 25q22 8 75 32l64 409h74l-84 -531h-52l-12 62q-23 -14 -39.5 -21.5t-33.5 -16t-25.5 -11.5t-24.5 -8.5t-27 -7.5
q-35 -6 -57 -6q-77 0 -113 48q-27 36 -27 87q0 16 3 35l58 370h74l-58 -370q-2 -15 -2 -27z" />
    <glyph glyph-name="Wcircumflex" unicode="&#x174;" horiz-adv-x="1002" 
d="M480 797l138 130h71l83 -130h-65l-57 83l-90 -83h-80zM150 732h75l117 -611l323 611h84l-130 -252l59 -365l323 617h81l-385 -732h-74l-61 374l-197 -374h-74z" />
    <glyph glyph-name="wcircumflex" unicode="&#x175;" horiz-adv-x="798" 
d="M327 596l138 130h71l83 -130h-65l-57 83l-90 -83h-80zM536 528q7 -21 7 -44t-12 -48l-29 -65l54 -269l194 349q20 41 26 80h55q7 -23 7 -46t-12 -46l-247 -439h-73l-58 280l-147 -280h-82l-125 531h74l101 -435l187 352q20 41 26 80h54z" />
    <glyph glyph-name="Ycircumflex" unicode="&#x176;" horiz-adv-x="630" 
d="M294 797l138 130h71l83 -130h-65l-57 83l-90 -83h-80zM150 732h78l128 -381l266 381h88l-328 -472l-41 -260h-74l41 260z" />
    <glyph glyph-name="ycircumflex" unicode="&#x177;" horiz-adv-x="549" 
d="M206 596l138 130h71l83 -130h-65l-57 83l-90 -83h-80zM235 116q4 -22 20 -31t24 -9h9l15 1l193 376q18 34 25 80h61q6 -19 6 -43t-15 -53l-221 -436q-66 -129 -121 -192t-133 -78v53q57 38 101 103q35 52 66 113q-26 0 -51 14q-47 26 -57 96l-63 421h77z" />
    <glyph glyph-name="Ydieresis" unicode="&#x178;" horiz-adv-x="630" 
d="M286 893q21 0 32 -13t11 -23q0 -32 -19 -48.5t-40 -16.5t-32.5 13.5t-11.5 23.5q0 32 19.5 48t40.5 16zM541 893q21 0 32 -13t11 -23q0 -32 -19 -48.5t-40 -16.5t-32.5 13.5t-11.5 23.5q0 32 19.5 48t40.5 16zM107 732h78l128 -381l266 381h88l-328 -472l-41 -260h-74
l41 260z" />
    <glyph glyph-name="Zacute" unicode="&#x179;" horiz-adv-x="564" 
d="M476 792l128 133h95l-154 -133h-69zM139 0l12 74l488 584h-396l12 74h493l-12 -74l-488 -584h396l-12 -74h-493z" />
    <glyph glyph-name="zacute" unicode="&#x17a;" horiz-adv-x="456" 
d="M334 591l128 133h95l-154 -133h-69zM92 1l9 74l345 382h-295l10 74h396l-10 -74l-339 -382h276l-11 -74h-381z" />
    <glyph glyph-name="Zdotaccent" unicode="&#x17b;" horiz-adv-x="564" 
d="M400 899h50q22 0 19 -25l-9 -54q-3 -23 -26 -23h-50q-11 0 -17 6.5t-4 16.5l9 54q3 25 28 25zM35 0l12 74l488 584h-396l12 74h493l-12 -74l-488 -584h396l-12 -74h-493z" />
    <glyph glyph-name="zdotaccent" unicode="&#x17c;" horiz-adv-x="456" 
d="M314 698h50q23 0 19 -25l-9 -54q-3 -23 -26 -23h-50q-10 0 -16 6.5t-5 16.5l9 54q4 25 28 25zM45 1l9 74l345 382h-295l10 74h396l-10 -74l-339 -382h276l-11 -74h-381z" />
    <glyph glyph-name="Zcaron" unicode="&#x17d;" horiz-adv-x="564" 
d="M283 927h65l57 -83l90 83h80l-138 -130h-71zM35 0l12 74l488 584h-396l12 74h493l-12 -74l-488 -584h396l-12 -74h-493z" />
    <glyph glyph-name="zcaron" unicode="&#x17e;" horiz-adv-x="456" 
d="M197 726h65l57 -83l90 83h80l-138 -130h-71zM45 1l9 74l345 382h-295l10 74h396l-10 -74l-339 -382h276l-11 -74h-381z" />
    <glyph glyph-name="florin" unicode="&#x192;" horiz-adv-x="442" 
d="M89 -130q51 0 75 73q20 60 33 145l48 309h-102l13 75h102l5 34q33 217 111 272q33 22 75 22q37 0 55 -8l40 -17l-7 -49h-88q-49 0 -75 -75q-20 -58 -34 -145l-5 -35h141l-13 -74h-141l-48 -309q-22 -151 -52 -206q-33 -59 -76 -76q-25 -10 -53.5 -10t-60.5 10t-40 15
l7 49h90z" />
    <glyph glyph-name="circumflex" unicode="&#x2c6;" horiz-adv-x="332" 
d="M66 531l138 130h71l83 -130h-65l-57 83l-90 -83h-80z" />
    <glyph glyph-name="caron" unicode="&#x2c7;" horiz-adv-x="377" 
d="M32 661h65l57 -83l90 83h80l-138 -130h-71z" />
    <glyph glyph-name="breve" unicode="&#x2d8;" horiz-adv-x="255" 
d="M105 644q-1 -6 -1 -20.5t15 -31t41 -16.5h4q65 0 76 68h46q-15 -114 -126 -114q-43 0 -72 29t-29 73v12h46z" />
    <glyph glyph-name="dotaccent" unicode="&#x2d9;" horiz-adv-x="128" 
d="M141 635h50q20 0 20 -18q0 -3 -1 -7l-9 -54q-3 -23 -26 -23h-50q-24 0 -21 23l9 54q3 25 28 25z" />
    <glyph glyph-name="ring" unicode="&#x2da;" horiz-adv-x="299" 
d="M251 735q42 0 67.5 -28.5t25.5 -64.5q0 -34 -17 -59q-35 -53 -94 -53q-42 0 -67.5 28t-25.5 64q0 49 34.5 81t76.5 32zM201 593q14 -15 36.5 -15t39.5 16q20 18 20 36.5t-6 30.5q-13 26 -39.5 26t-44.5 -16q-20 -19 -20 -41t14 -37z" />
    <glyph glyph-name="ogonek" unicode="&#x2db;" horiz-adv-x="235" 
d="M149 -109q0 69 100 109h39q-74 -54 -74 -91q0 -30 49 -30h9l-10 -60q-12 -2 -22 -2q-43 0 -67 23.5t-24 50.5z" />
    <glyph glyph-name="tilde" unicode="&#x2dc;" horiz-adv-x="443" 
d="M320 618q30 -16 36.5 -16h15t45.5 14.5t45 19.5l15 -42q-9 -6 -30.5 -20.5t-32.5 -21.5q-62 -37 -121 -2q-28 16 -46 16t-33.5 -5t-37 -16t-27.5 -14l-15 41q30 22 46 32q46 32 82 32q28 -2 58 -18z" />
    <glyph glyph-name="hungarumlaut" unicode="&#x2dd;" horiz-adv-x="458" 
d="M154 531l128 133h95l-154 -133h-69zM289 531l128 133h95l-154 -133h-69z" />
    <glyph glyph-name="uni0338" unicode="&#x338;" horiz-adv-x="642" 
d="M357 732h164q84 0 119 -48q26 -36 26 -83q0 -15 -3 -31l-65 -408q-14 -87 -61.5 -124.5t-131.5 -37.5h-164q-75 0 -117 39q-32 30 -32 86q0 17 3 37l65 408q25 162 197 162zM169 162q-3 -18 -3 -27.5t1 -15.5l368 537q-16 2 -25 2h-164q-99 0 -112 -88zM253 74h164
q92 0 107 88l65 408q2 15 2 30t-5 26l-377 -550q13 -2 44 -2z" />
    <glyph glyph-name="Omega" unicode="&#x3a9;" horiz-adv-x="777" 
d="M126 208.5q-9 30.5 -9.5 52.5t-0.5 40q0 34 10.5 86t26 97t45.5 93.5t70 82.5t102 56.5t140.5 22.5t137 -30t86.5 -79q44 -78 44 -172q0 -37 -8.5 -83t-16.5 -79.5t-26 -76.5q-34 -81 -129 -142l127 -10l-11 -67h-228l13 78q78 46 116 92q41 51 53 89q36 115 36 220
q0 76 -45 129q-47 57 -171 57t-197 -80.5t-92 -204.5q-11 -65 -11 -111.5t26 -90t90 -100.5l-13 -78h-220l11 68l135 10q-36 29 -59 64.5t-32 66z" />
    <glyph glyph-name="pi" unicode="&#x3c0;" horiz-adv-x="639" 
d="M467 166q-4 -22 -4 -42q0 -54 58 -54h108l-7 -44q-51 -31 -113 -31q-120 0 -120 121q0 23 4 50l46 291h-187l-72 -457h-74l72 457h-86l12 74h550l-12 -74h-129z" />
    <glyph glyph-name="uni1E02" unicode="&#x1e02;" horiz-adv-x="597" 
d="M411 899h50q23 0 19 -25l-9 -54q-3 -23 -26 -23h-50q-11 0 -16.5 6.5t-4.5 16.5l9 54q3 25 28 25zM479 732q52 0 88 -18q75 -37 75 -145q0 -14 -2 -30q-16 -130 -119 -159q28 -5 49.5 -47t21.5 -93q0 -19 -2 -39q-25 -201 -227 -201h-283l116 732h283zM375 74
q119 0 140 132q3 18 3 45t-17 55q-24 41 -83 41h-208l-43 -273h208zM430 421q116 0 135 121q3 19 3 34q0 40 -22 61t-77 21h-209l-38 -237h208z" />
    <glyph glyph-name="uni1E03" unicode="&#x1e03;" horiz-adv-x="554" 
d="M222 956h50q20 0 20 -18q0 -3 -1 -7l-9 -54q-3 -23 -26 -23h-50q-24 0 -21 23l9 54q3 25 28 25zM408 539q147 0 147 -177q0 -70 -24 -176q-7 -30 -24 -71.5t-38 -66t-54.5 -39.5t-72.5 -15q-51 0 -115 24t-85 41l-29 -59h-53l124 785h72l-45 -286q105 40 197 40zM482 374
q0 91 -80 91q-95 0 -199 -26l-52 -325q107 -46 189 -46q55 0 86 48.5t43.5 132t12.5 125.5z" />
    <glyph glyph-name="uni1E0A" unicode="&#x1e0a;" horiz-adv-x="668" 
d="M415 899h50q22 0 19 -25l-9 -54q-3 -23 -26 -23h-50q-11 0 -17 6.5t-4 16.5l9 54q3 25 28 25zM469 732q64 0 109 -27t66 -67q37 -70 37 -176q0 -48 -10 -99q-63 -363 -318 -363h-273l116 731q0 1 273 1zM365 77q92 0 152 82.5t80 204.5q10 62 10 121t-21 101
q-34 72 -129 72h-199l-92 -581h199z" />
    <glyph glyph-name="uni1E0B" unicode="&#x1e0b;" horiz-adv-x="552" 
d="M581 948h50q20 0 20 -18q0 -3 -1 -7l-9 -54q-3 -23 -26 -23h-50q-24 0 -21 23l9 54q3 25 28 25zM214 517q40 22 85.5 22t101 -11t97.5 -29l46 286h72l-125 -785h-53l-10 59q-30 -20 -90 -42.5t-107.5 -22.5t-82 25t-47.5 64q-19 57 -19 102.5t8.5 91.5t22 90t37.5 86
t64 64zM163 263q-7 -43 -7 -79.5t10 -64.5q19 -51 69 -51q83 0 202 46l51 325q-95 26 -192 26q-49 0 -81.5 -43.5t-51.5 -158.5z" />
    <glyph glyph-name="uni1E1E" unicode="&#x1e1e;" horiz-adv-x="568" 
d="M426 899h50q23 0 19 -25l-9 -54q-3 -23 -26 -23h-50q-10 0 -16 6.5t-5 16.5l9 54q4 25 28 25zM310 732h12l314 -16l-9 -58h-317q-32 0 -44.5 -15t-16.5 -41l-31 -200l327 -10l-9 -59l-331 -10l-51 -323h-74l95 602q21 130 135 130z" />
    <glyph glyph-name="uni1E1F" unicode="&#x1e1f;" horiz-adv-x="403" 
d="M386 947h50q22 0 19 -25l-9 -54q-3 -23 -26 -23h-50q-11 0 -17 6.5t-4 16.5l9 54q3 25 28 25zM384 785q42 0 119 -24l-7 -49h-112q-50 0 -68 -28t-31 -117l-6 -36h165l-12 -74h-166l-76 -457h-74l75 457h-99l9 55l104 19l6 36q20 123 54.5 170.5t118.5 47.5z" />
    <glyph glyph-name="uni1E40" unicode="&#x1e40;" horiz-adv-x="802" 
d="M531 899h50q22 0 19 -25l-9 -54q-3 -23 -26 -23h-50q-11 0 -17 6.5t-4 16.5l9 54q3 25 28 25zM71 0l164 732h96l102 -609l288 609h101l-60 -732h-74l52 599l-285 -599h-76l-99 598l-135 -598h-74z" />
    <glyph glyph-name="uni1E41" unicode="&#x1e41;" horiz-adv-x="898" 
d="M550 699h50q23 0 19 -25l-9 -54q-3 -23 -26 -23h-50q-11 0 -16.5 6.5t-4.5 16.5l9 54q3 25 28 25zM363.5 534q20.5 3 55 3t71 -24.5t47.5 -61.5q118 86 232 86q66 0 107 -49q33 -37 33 -90q0 -15 -3 -32l-58 -366h-74l58 366q2 10 2 20q0 29 -20 53t-57 24
q-63 0 -106.5 -12t-98.5 -44l-64 -407h-74l58 366q2 10 2 19q0 30 -20.5 54t-57.5 24q-30 0 -45.5 -2.5t-22.5 -3.5t-20.5 -5.5t-18.5 -5.5t-21.5 -8t-20 -8.5t-24 -11t-25.5 -11.5l-64 -407h-74l84 531h52l12 -64q6 3 36.5 19.5t40.5 21t34 14t44.5 12.5z" />
    <glyph glyph-name="uni1E56" unicode="&#x1e56;" horiz-adv-x="595" 
d="M407 899h50q23 0 19 -25l-9 -54q-3 -23 -26 -23h-50q-10 0 -16 6.5t-5 16.5l9 54q4 25 28 25zM497 732q70 0 113 -50q33 -37 33 -109q0 -106 -46 -195q-20 -39 -63 -64q-30 -16 -105 -16q-29 0 -127 7.5t-102 9.5l-51 -315h-74l116 732h306zM439 372q48 0 79.5 29
t45.5 119q4 20 4 31.5t-1.5 25t-3.5 28t-10 24.5t-14.5 15.5t-17.5 8.5q-15 4 -36 4h-232l-45 -285h231z" />
    <glyph glyph-name="uni1E57" unicode="&#x1e57;" horiz-adv-x="559" 
d="M353 698h50q20 0 20 -18q0 -3 -1 -7l-9 -54q-3 -23 -26 -23h-50q-24 0 -21 23l9 54q3 25 28 25zM403 534q156 0 156 -197q0 -169 -75 -271q-53 -74 -147 -74q-40 0 -98.5 9.5t-99.5 27.5l-49 -299h-73l133 791q110 13 253 13zM373 75q25 11 45 30q41 37 61 158q7 44 7 78
q0 119 -87 119h-187l-62 -370q78 -26 138 -26t85 11z" />
    <glyph glyph-name="uni1E60" unicode="&#x1e60;" horiz-adv-x="571" 
d="M402 910h50q20 0 20 -18q0 -3 -1 -7l-9 -54q-3 -23 -26 -23h-50q-24 0 -21 23l9 54q3 25 28 25zM335 66q129 0 143 90l11 68q3 20 3 40t-7 34q-12 24 -64 24h-139q-154 0 -154 128q0 21 4 44l10 66q18 112 82 149q52 29 124 29q101 0 265 -24l-9 -59l-248 9h-16
q-52 0 -83 -18.5t-41 -85.5l-10 -66q-3 -21 -3 -37t3 -26t8.5 -17.5t12.5 -10.5t16 -5t19 -2h171q44 0 74 -15.5t42 -40.5q18 -37 18 -67t-4 -49l-11 -68q-7 -44 -26 -75.5t-41 -48t-53 -26.5q-49 -14 -104.5 -14t-135.5 8.5t-113 15.5l9 60q72 -10 247 -10z" />
    <glyph glyph-name="uni1E61" unicode="&#x1e61;" horiz-adv-x="508" 
d="M330 703h50q22 0 19 -25l-9 -54q-3 -23 -26 -23h-50q-11 0 -17 6.5t-4 16.5l9 54q3 25 28 25zM420 172q2 9 2 20.5t-8.5 23t-40.5 11.5h-148q-74 0 -102.5 26t-28.5 71q0 16 3 34l8 51q11 67 47.5 99.5t122 32.5t248.5 -16l-9 -57h-261q-56 0 -69 -40q-3 -8 -5 -19
l-8 -51q-4 -13 -2 -22t2 -15.5t5.5 -10t7.5 -6t9.5 -3t10.5 -1t11 0t11 0.5h150q64 0 92 -32t28 -73q0 -11 -2 -24l-9 -63q-12 -78 -61 -101q-39 -18 -89 -18q-95 0 -271 19l9 55h274q19 -3 39.5 12t24.5 42z" />
    <glyph glyph-name="uni1E6A" unicode="&#x1e6a;" horiz-adv-x="579" 
d="M407 899h50q23 0 19 -25l-9 -54q-3 -23 -26 -23h-50q-10 0 -16 6.5t-5 16.5l9 54q4 25 28 25zM139 658l12 74h508l-12 -74h-220l-104 -658h-74l104 658h-214z" />
    <glyph glyph-name="uni1E6B" unicode="&#x1e6b;" horiz-adv-x="378" 
d="M274 842h50q22 0 19 -25l-9 -54q-3 -23 -26 -23h-50q-11 0 -17 6.5t-4 16.5l9 54q3 25 28 25zM263 0q-119 0 -119 128q0 27 5 61l42 269h-99l9 56l102 18l41 148h56l-23 -148h155l-12 -74h-155l-42 -269q-3 -38 -4.5 -50.5t-1.5 -22t7 -20t15 -14.5t53.5 -15t46.5 -11
l-8 -56h-68z" />
    <glyph glyph-name="Wgrave" unicode="&#x1e80;" horiz-adv-x="1002" 
d="M468 930h87l106 -133h-69zM150 732h75l117 -611l323 611h84l-130 -252l59 -365l323 617h81l-385 -732h-74l-61 374l-197 -374h-74z" />
    <glyph glyph-name="wgrave" unicode="&#x1e81;" horiz-adv-x="798" 
d="M314 729h87l106 -133h-69zM536 528q7 -21 7 -44t-12 -48l-29 -65l54 -269l194 349q20 41 26 80h55q7 -23 7 -46t-12 -46l-247 -439h-73l-58 280l-147 -280h-82l-125 531h74l101 -435l187 352q20 41 26 80h54z" />
    <glyph glyph-name="Wacute" unicode="&#x1e82;" horiz-adv-x="1002" 
d="M592 797l128 133h95l-154 -133h-69zM150 732h75l117 -611l323 611h84l-130 -252l59 -365l323 617h81l-385 -732h-74l-61 374l-197 -374h-74z" />
    <glyph glyph-name="wacute" unicode="&#x1e83;" horiz-adv-x="798" 
d="M438 596l128 133h95l-154 -133h-69zM536 528q7 -21 7 -44t-12 -48l-29 -65l54 -269l194 349q20 41 26 80h55q7 -23 7 -46t-12 -46l-247 -439h-73l-58 280l-147 -280h-82l-125 531h74l101 -435l187 352q20 41 26 80h54z" />
    <glyph glyph-name="Wdieresis" unicode="&#x1e84;" horiz-adv-x="1002" 
d="M515 898q21 0 32 -13t11 -23q0 -32 -18.5 -48.5t-39.5 -16.5t-32.5 13.5t-11.5 23.5q0 32 19 48t40 16zM770 898q21 0 32 -13t11 -23q0 -32 -18.5 -48.5t-39.5 -16.5t-32.5 13.5t-11.5 23.5q0 32 19 48t40 16zM150 732h75l117 -611l323 611h84l-130 -252l59 -365l323 617
h81l-385 -732h-74l-61 374l-197 -374h-74z" />
    <glyph glyph-name="wdieresis" unicode="&#x1e85;" horiz-adv-x="798" 
d="M323.5 682.5q17.5 14.5 38.5 14.5t32 -13t11 -23t-1.5 -19t-10 -20.5t-21 -18.5t-26.5 -7t-24 7q-23 15 -19.5 40t21 39.5zM578.5 682.5q17.5 14.5 38.5 14.5t32 -13t11 -23q0 -32 -19 -48.5t-36.5 -16.5t-27.5 7q-23 15 -19.5 40t21 39.5zM536 528q7 -21 7 -44t-12 -48
l-29 -65l54 -269l194 349q20 41 26 80h55q7 -23 7 -46t-12 -46l-247 -439h-73l-58 280l-147 -280h-82l-125 531h74l101 -435l187 352q20 41 26 80h54z" />
    <glyph glyph-name="Ygrave" unicode="&#x1ef2;" horiz-adv-x="630" 
d="M282 930h87l106 -133h-69zM150 732h78l128 -381l266 381h88l-328 -472l-41 -260h-74l41 260z" />
    <glyph glyph-name="ygrave" unicode="&#x1ef3;" horiz-adv-x="549" 
d="M203 729h87l106 -133h-69zM235 116q4 -22 20 -31t24 -9h9l15 1l193 376q18 34 25 80h61q6 -19 6 -43t-15 -53l-221 -436q-66 -129 -121 -192t-133 -78v53q57 38 101 103q35 52 66 113q-26 0 -51 14q-47 26 -57 96l-63 421h77z" />
    <glyph glyph-name="endash" unicode="&#x2013;" horiz-adv-x="457" 
d="M60 250l12 75h473l-12 -75h-473z" />
    <glyph glyph-name="emdash" unicode="&#x2014;" horiz-adv-x="736" 
d="M59 252l12 75h696l-12 -75h-696z" />
    <glyph glyph-name="quoteleft" unicode="&#x2018;" horiz-adv-x="270" 
d="M232.5 721q16.5 7 29.5 9t19.5 2h10.5l10 -2l-6 -35h-2q-32 0 -38 -34l-4 -28h12q24 0 24 -20q0 -4 -1 -7l-9 -59q-4 -30 -33 -30h-56q-22 0 -22 20q0 5 1 10l15 99q5 29 19 48.5t30.5 26.5z" />
    <glyph glyph-name="quoteright" unicode="&#x2019;" horiz-adv-x="270" 
d="M177 554q31 0 37 34l4 27h-12q-24 0 -24 21q0 3 1 7l10 59q5 30 32 30h56q23 0 23 -20q0 -5 -1 -10l-16 -99q-5 -29 -19 -48.5t-30 -26.5q-27 -12 -41 -12h-17l-11 2l6 36h2z" />
    <glyph glyph-name="quotesinglbase" unicode="&#x201a;" horiz-adv-x="269" 
d="M78 -63q31 0 37 35l4 27h-12q-24 0 -24 21q0 3 1 7l10 59q4 30 32 30h56q23 0 23 -20q0 -5 -1 -10l-16 -99q-5 -29 -19 -48.5t-30 -26.5q-27 -12 -41 -12h-18l-10 2l6 35h2z" />
    <glyph glyph-name="quotedblleft" unicode="&#x201c;" horiz-adv-x="414" 
d="M264 732h4l26 -2l-5 -35h-2q-32 0 -38 -34l-4 -28h12q24 0 24 -20q0 -4 -1 -7l-9 -59q-5 -30 -33 -30h-56q-22 0 -22 20q0 5 1 10l15 99q8 46 36 66t52 20zM424 732h4l26 -2l-5 -35h-2q-32 0 -38 -34l-4 -28h12q24 0 24 -20q0 -4 -1 -7l-9 -59q-5 -30 -33 -30h-56
q-22 0 -22 20q0 5 1 10l15 99q8 46 36 66t52 20z" />
    <glyph glyph-name="quotedblright" unicode="&#x201d;" horiz-adv-x="415" 
d="M169 554q31 0 37 34l4 27h-12q-24 0 -24 21q0 3 1 7l10 59q5 30 32 30h56q23 0 23 -20q0 -5 -1 -10l-16 -99q-5 -29 -19 -48.5t-30 -26.5q-27 -12 -41 -12h-17l-11 2l6 36h2zM329 554q31 0 37 34l4 27h-12q-24 0 -24 21q0 3 1 7l10 59q5 30 32 30h56q23 0 23 -20
q0 -5 -1 -10l-16 -99q-5 -29 -19 -48.5t-30 -26.5q-27 -12 -41 -12h-17l-11 2l6 36h2z" />
    <glyph glyph-name="quotedblbase" unicode="&#x201e;" horiz-adv-x="414" 
d="M70 -62q31 0 37 35l4 27h-12q-24 0 -24 21q0 3 1 7l10 59q4 30 32 30h56q23 0 23 -20q0 -5 -1 -10l-16 -99q-5 -29 -19 -48.5t-30 -26.5q-27 -12 -41 -12t-18 1l-10 1l6 35h2zM230 -62q31 0 37 35l4 27h-12q-24 0 -24 21q0 3 1 7l10 59q4 30 32 30h56q23 0 23 -20
q0 -5 -1 -10l-16 -99q-5 -29 -19 -48.5t-30 -26.5q-27 -12 -41 -12t-18 1l-10 1l6 35h2z" />
    <glyph glyph-name="dagger" unicode="&#x2020;" horiz-adv-x="464" 
d="M113 489l9 59l135 10l42 212h63l-26 -212l130 -10l-9 -59l-134 -10l-96 -551h-63l80 551z" />
    <glyph glyph-name="daggerdbl" unicode="&#x2021;" horiz-adv-x="434" 
d="M97 174l9 59l136 10l36 236l-131 10l9 59l135 10l42 212h62l-25 -212l130 -10l-9 -59l-134 -10l-40 -236l133 -10l-9 -59l-139 -10l-41 -236h-63l33 236z" />
    <glyph glyph-name="bullet" unicode="&#x2022;" horiz-adv-x="310" 
d="M190 456h74q30 0 30 -27q0 -4 -1 -8l-12 -80q-5 -32 -41 -32h-74q-28 0 -28 24q0 4 1 8l12 80q5 35 39 35z" />
    <glyph glyph-name="ellipsis" unicode="&#x2026;" horiz-adv-x="764" 
d="M182 105h53q22 0 22 -19q0 -3 -1 -6l-9 -57q-4 -23 -28 -23h-53q-11 0 -16.5 6.5t-4.5 16.5l9 57q5 25 28 25zM454 105h53q22 0 22 -19q0 -3 -1 -6l-9 -57q-4 -23 -28 -23h-53q-11 0 -16.5 6.5t-4.5 16.5l9 57q5 25 28 25zM726 105h53q22 0 22 -19q0 -3 -1 -6l-9 -57
q-4 -23 -28 -23h-53q-11 0 -16.5 6.5t-4.5 16.5l9 57q5 25 28 25z" />
    <glyph glyph-name="perthousand" unicode="&#x2030;" horiz-adv-x="1344" 
d="M253 732h101q66 0 92 -29q18 -21 18 -61q0 -16 -3 -35l-21 -133q-12 -72 -42 -98.5t-106 -26.5h-101q-58 0 -84 28.5t-26 69.5q0 13 2 27l21 133q11 68 40.5 96.5t108.5 28.5zM148 474q-2 -12 -2 -26t9.5 -24t45.5 -10h101q40 0 53.5 11.5t19.5 48.5l21 133q2 16 2 29.5
t-6.5 22t-47.5 8.5h-101q-42 0 -55 -12t-19 -48zM193 0l554 732h71l-554 -732h-71zM721 383h101q66 0 92 -29q18 -21 18 -61q0 -16 -3 -35l-21 -133q-12 -71 -42.5 -98t-106.5 -27h-101q-58 0 -83.5 28t-25.5 70q0 13 2 27l21 133q11 68 40.5 96.5t108.5 28.5zM616 125
q-2 -13 -2 -26.5t9 -23.5t45 -10h101q40 0 54 11.5t20 48.5l21 133q2 15 2 28.5t-7 22.5t-48 9h-101q-41 0 -54 -12t-19 -48zM1145 383h101q66 0 92 -29q18 -21 18 -61q0 -16 -3 -35l-21 -133q-12 -71 -42.5 -98t-106.5 -27h-101q-58 0 -83.5 28t-25.5 70q0 13 2 27l21 133
q11 68 40.5 96.5t108.5 28.5zM1040 125q-2 -13 -2 -26.5t9 -23.5t45 -10h101q40 0 54 11.5t20 48.5l21 133q2 15 2 28.5t-7 22.5t-48 9h-101q-41 0 -54 -12t-19 -48z" />
    <glyph glyph-name="guilsinglleft" unicode="&#x2039;" horiz-adv-x="301" 
d="M38 354l238 203l46 -54l-183 -156l131 -154l-54 -47z" />
    <glyph glyph-name="guilsinglright" unicode="&#x203a;" horiz-adv-x="360" 
d="M106 200l183 156l-131 154l54 47l178 -208l-238 -203z" />
    <glyph glyph-name="fraction" unicode="&#x2044;" horiz-adv-x="233" 
d="M-90 0l464 732h65l-464 -732h-65z" />
    <glyph glyph-name="zerosuperior" unicode="&#x2070;" horiz-adv-x="450" 
d="M264 830h117q55 0 76 -26t21 -60q0 -11 -2 -24l-40 -255q-10 -67 -41 -88.5t-90 -21.5h-117q-38 0 -69 19q-32 19 -32 68q0 11 2 23l40 255q17 110 135 110zM152 469q-2 -12 -2 -24t7.5 -20t44.5 -8h109q33 0 46 12t18 40l39 247q2 12 2 23t-6 20t-43 9h-109
q-59 0 -67 -52z" />
    <glyph glyph-name="foursuperior" unicode="&#x2074;" horiz-adv-x="468" 
d="M115 500l261 330h73l-224 -289h162l19 121l36 48h34l-27 -169h58l-8 -52l-60 -13l-19 -120h-63l20 120h-244z" />
    <glyph glyph-name="fivesuperior" unicode="&#x2075;" horiz-adv-x="409" 
d="M292 351l-74 1q-71 0 -139 13l8 48h211q51 0 59 56l9 56q0 12 2 26t-8.5 25t-34.5 11h-111q-44 0 -52 -49h-56l62 292h295l-10 -62h-234l-30 -138q25 21 87 21l63 -2q47 0 69.5 -29.5t22.5 -66.5q0 -11 -2 -24l-11 -64q-11 -65 -41 -89.5t-81 -24.5h-4z" />
    <glyph glyph-name="sixsuperior" unicode="&#x2076;" horiz-adv-x="405" 
d="M169 621q128 14 177.5 14t70.5 -29t21 -58q0 -7 -1 -14l-11 -73q-16 -105 -122 -105h-110q-54 0 -82 58q-17 32 -17 82.5t10.5 115.5t28 112.5t38.5 70.5q36 41 81 41q136 0 214 -12l-8 -50h-204q-42 0 -62 -58q-12 -35 -24 -95zM156 500q0 -82 45 -82h109q25 0 37.5 12
t17.5 39l10 61q1 7 1 18q0 25 -41 25h-173q-6 -42 -6 -73z" />
    <glyph glyph-name="sevensuperior" unicode="&#x2077;" horiz-adv-x="408" 
d="M124 770l10 62h318l13 -31l-253 -445h-70l237 414h-255z" />
    <glyph glyph-name="eightsuperior" unicode="&#x2078;" horiz-adv-x="405" 
d="M202 588q-46 26 -46 77q0 6 1 13l7 40q11 65 44.5 91t88.5 26h114q43 0 66 -28t23 -63q0 -13 -2 -26l-6 -40q-6 -33 -24 -52t-40 -24q39 -16 39 -71q0 -7 -1 -15l-9 -58q-10 -63 -39.5 -83.5t-82.5 -20.5h-115q-55 0 -77.5 27t-22.5 59q0 9 2 18l10 58q9 54 70 72z
M185 462q-1 -7 -1 -17.5t8 -19t42 -8.5h107q48 0 55 45l7 50q1 8 1 15q0 37 -38 37h-116q-49 0 -57 -52zM220 682q-1 -9 -1 -21.5t10.5 -23t30.5 -10.5h111q22 0 35.5 10t17 20t6.5 25l5 32q2 14 2 27t-7.5 22.5t-36.5 9.5h-102q-32 0 -46.5 -12.5t-19.5 -46.5z" />
    <glyph glyph-name="ninesuperior" unicode="&#x2079;" horiz-adv-x="457" 
d="M418 571q-128 -14 -177.5 -14t-70.5 29t-21 58q0 7 1 14l11 73q16 105 122 105h110q54 0 83 -58q16 -33 16 -83.5t-9 -108.5q-22 -134 -60.5 -182t-88.5 -48q-160 0 -214 12l8 50h204q42 0 62 58q12 35 24 95zM213 662q-1 -7 -1 -18q0 -25 41 -25h173q6 41 6 72
q0 83 -46 83h-109q-47 0 -55 -51z" />
    <glyph glyph-name="zeroinferior" unicode="&#x2080;" horiz-adv-x="457" 
d="M280 274h117q55 0 76 -26t21 -60q0 -11 -2 -24l-40 -255q-10 -67 -41 -88.5t-90 -21.5h-117q-38 0 -69 19q-32 19 -32 68q0 11 2 23l40 255q17 110 135 110zM168 -87q-2 -12 -2 -24t7.5 -20t44.5 -8h109q33 0 46 12t18 40l39 247q2 12 2 23t-6 20t-43 9h-109
q-59 0 -67 -52z" />
    <glyph glyph-name="oneinferior" unicode="&#x2081;" horiz-adv-x="287" 
d="M43 169l7 42q36 0 72 16.5t54 33.5l19 17h60l-76 -478h-62l65 403q-44 -34 -139 -34z" />
    <glyph glyph-name="twoinferior" unicode="&#x2082;" horiz-adv-x="430" 
d="M318.5 85.5q19.5 30.5 22.5 50.5t3 37t-11.5 32t-53.5 15h-172q-3 0 5 36l2 11q126 15 176.5 15t77.5 -26q42 -39 42 -91q0 -10 -2 -19q-8 -52 -43.5 -104t-72 -83t-77 -61.5t-45.5 -35.5h192l-10 -62h-309l9 58q8 6 45.5 31.5t60.5 42t59.5 46.5t59 53.5t42 54z" />
    <glyph glyph-name="threeinferior" unicode="&#x2083;" horiz-adv-x="386" 
d="M304 31q32 -23 32 -71q0 -8 -1 -17l-4 -28q-9 -58 -41 -88.5t-100 -30.5h-5.5h-22.5h-41t-24.5 0.5t-18.5 1.5t-20.5 2.5l-17.5 3.5q-16 3 -37 10l7 43l178 1q71 0 81 61l4 23q2 9 2 17q0 50 -59 52l-141 5l8 48l143 6q70 3 79 64l3 22q1 9 1 22.5t-10.5 25.5t-49.5 12
h-186l7 43q54 18 173 18h24q55 -1 79.5 -31.5t24.5 -66.5q0 -9 -1 -19l-6 -35q-6 -35 -22.5 -60.5t-37.5 -33.5z" />
    <glyph glyph-name="fourinferior" unicode="&#x2084;" horiz-adv-x="428" 
d="M4 -56l261 330h73l-224 -289h162l19 121l36 48h34l-27 -169h58l-8 -52l-60 -13l-19 -120h-63l20 120h-244z" />
    <glyph glyph-name="fiveinferior" unicode="&#x2085;" horiz-adv-x="408" 
d="M220 -205l-74 1q-71 0 -139 13l8 48h211q51 0 59 56l9 56q0 12 2 26t-8.5 25t-34.5 11h-111q-44 0 -52 -49h-56l62 292h295l-10 -62h-234l-30 -138q25 21 87 21l63 -2q47 0 69.5 -29.5t22.5 -66.5q0 -11 -2 -24l-11 -64q-11 -65 -41 -89.5t-81 -24.5h-4z" />
    <glyph glyph-name="sixinferior" unicode="&#x2086;" horiz-adv-x="404" 
d="M97 65q128 14 177.5 14t70.5 -29t21 -58q0 -7 -1 -14l-11 -73q-16 -105 -122 -105h-110q-54 0 -82 58q-17 32 -17 82.5t10.5 115.5t28 112.5t38.5 70.5q36 41 81 41q146 0 214 -12l-8 -50h-204q-42 0 -62 -58q-12 -35 -24 -95zM84 -56q0 -82 45 -82h109q25 0 37.5 12
t17.5 39l10 61q1 7 1 18q0 25 -41 25h-173q-6 -42 -6 -73z" />
    <glyph glyph-name="seveninferior" unicode="&#x2087;" horiz-adv-x="407" 
d="M52 214l10 62h318l13 -31l-253 -445h-70l237 414h-255z" />
    <glyph glyph-name="eightinferior" unicode="&#x2088;" horiz-adv-x="406" 
d="M130 32q-46 26 -46 77q0 6 1 13l7 40q11 65 44.5 91t88.5 26h114q43 0 66 -28t23 -63q0 -13 -2 -26l-6 -40q-6 -33 -24 -52t-40 -24q39 -16 39 -71q0 -7 -1 -15l-9 -58q-10 -63 -39.5 -83.5t-82.5 -20.5h-115q-55 0 -77.5 27t-22.5 59q0 9 2 18l10 58q9 54 70 72z
M113 -94q-1 -7 -1 -17.5t8 -19t42 -8.5h107q48 0 55 45l7 50q1 8 1 15q0 37 -38 37h-116q-49 0 -57 -52zM148 126q-1 -9 -1 -21.5t10.5 -23t30.5 -10.5h111q22 0 35.5 10t17 20t6.5 25l5 32q2 14 2 27t-7.5 22.5t-36.5 9.5h-102q-32 0 -46.5 -12.5t-19.5 -46.5z" />
    <glyph glyph-name="nineinferior" unicode="&#x2089;" horiz-adv-x="456" 
d="M346 15q-128 -14 -177.5 -14t-70.5 29t-21 58q0 7 1 14l11 73q16 105 122 105h110q54 0 83 -58q16 -33 16 -83.5t-9 -108.5q-22 -134 -60.5 -182t-88.5 -48q-166 0 -214 12l8 50h204q42 0 62 58q12 35 24 95zM141 106q-1 -7 -1 -18q0 -25 41 -25h173q6 41 6 72
q0 83 -46 83h-109q-47 0 -55 -51z" />
    <glyph glyph-name="Euro" unicode="&#x20ac;" horiz-adv-x="718" 
d="M469 740q83 0 240 -30l-9 -59q-161 15 -223.5 15t-95 -11.5t-51 -28t-32.5 -45.5t-19.5 -51.5t-12.5 -59.5l233 -7l-7 -46l-235 -7l-16 -101l232 -7l-7 -47q-32 0 -134 -3t-101 -4q-6 -34 -6 -62q0 -53 23 -79q36 -39 114 -39q95 0 210 12l42 5l-9 -56q-129 -35 -254 -35
q-75 0 -120 28q-50 33 -65 77q-16 47 -16 82t7 67l-87 7l7 47l90 7l16 101l-87 8l7 43l89 9q15 101 45 152q68 118 232 118z" />
    <glyph glyph-name="afii61289" unicode="&#x2113;" horiz-adv-x="386" 
d="M305 739q67 0 95 -43q19 -29 19 -69q0 -84 -62.5 -174.5t-149.5 -158.5l-14 -105q-3 -38 -4 -50.5t-1 -21.5t7 -20t14.5 -15t53 -15t46.5 -11l-9 -56h-68q-71 0 -98 46q-18 32 -18 90q0 24 3 53l5 46q-15 -9 -34 -19l-21 32q29 23 66 56l52 328q8 51 41 79t77 28z
M345 619q0 11 -3 24t-21 21q-8 3 -17.5 3t-19.5 -5q-20 -10 -24 -36l-37 -230q122 137 122 223z" />
    <glyph glyph-name="afii61352" unicode="&#x2116;" horiz-adv-x="1061" 
d="M850 615q-10 -67 -10 -100.5t9 -48.5t19.5 -19t30.5 -4h54q39 0 61 20t33 90q5 32 5 53.5t-3.5 33.5t-12.5 18q-13 9 -47 11q-113 1 -185 1q-92 0 -108 -100l-79 -494q-7 -47 -43.5 -68.5t-75 -6t-51.5 61.5l-166 589q-3 11 -19 8.5t-18 -15.5l-102 -645h-70l101 652
q8 48 46 71q25 15 44 15q68 0 85 -58l167 -596q4 -13 17 -11t15 14q47 304 75 481q26 167 194 167l189 -1q69 0 93 -44q16 -29 16 -66.5t-6 -77t-14 -66.5t-25 -52q-32 -47 -120 -47h-66q-68 0 -91 53q-13 29 -13 75.5t9 105.5h62z" />
    <glyph glyph-name="trademark" unicode="&#x2122;" horiz-adv-x="637" 
d="M47 668l10 64h259l-10 -64h-97l-45 -285h-64l45 285h-98zM300 383l82 349h58l57 -241l117 241h69l-24 -349h-64l15 202l-99 -202h-53l-47 203l-47 -203h-64z" />
    <glyph glyph-name="estimated" unicode="&#x212e;" horiz-adv-x="716" 
d="M700 258h-488q-3 0 -3 -11v-133q0 -25 56.5 -59t122.5 -34t117.5 23.5t84.5 60.5h56q-58 -61 -114.5 -83t-132.5 -22q-138 0 -219.5 75.5t-81.5 189.5t84 193q84 75 212 75t214 -66.5t92 -208.5zM209 284q0 -9 9 -9h357h7q6 4 6 7v133q0 32 -63 65.5t-120 33.5t-103 -19
t-69.5 -40t-23.5 -34v-137z" />
    <glyph glyph-name="partialdiff" unicode="&#x2202;" horiz-adv-x="639" 
d="M388 465q100 0 164 -57q4 41 4 74q0 88 -28 128q-39 56 -133.5 56t-185.5 -51l-15 47q52 31 72.5 42t61 23.5t82.5 12.5q121 0 180 -96q40 -68 40 -167q0 -42 -7 -90q-27 -175 -108 -283.5t-209 -108.5q-104 0 -166 68q-51 57 -51 133q0 15 2 31q18 114 95 176t202 62z
M162 199q0 -53 39 -91.5t101 -38.5t106.5 32.5t71.5 80.5q50 91 64 169q-65 40 -164.5 40t-151.5 -45q-66 -56 -66 -147z" />
    <glyph glyph-name="uni2206" unicode="&#x2206;" horiz-adv-x="728" 
d="M20 0l427 732h78l183 -732h-688zM153 74h459l-136 562z" />
    <glyph glyph-name="product" unicode="&#x220f;" horiz-adv-x="645" 
d="M106 0l104 658h-86l12 74h604l-12 -74h-87l-104 -658h-74l104 658h-283l-104 -658h-74z" />
    <glyph glyph-name="summation" unicode="&#x2211;" horiz-adv-x="587" 
d="M8 -200l12 77l276 393l-152 388l12 74h526l-12 -74h-437l152 -403l-263 -378h424l-12 -77h-526z" />
    <glyph glyph-name="minus" unicode="&#x2212;" horiz-adv-x="444" 
d="M70 319v74h416v-74h-416z" />
    <glyph glyph-name="radical" unicode="&#x221a;" horiz-adv-x="628" 
d="M64 284l12 74h127l89 -255l368 697h74l-412 -800h-68l-102 284h-88z" />
    <glyph glyph-name="infinity" unicode="&#x221e;" horiz-adv-x="683" 
d="M257 514q47 0 87 -29.5t63 -75.5q85 105 184 105q62 0 98 -26t44.5 -56.5t8.5 -52.5q0 -108 -60 -163q-49 -47 -151 -47t-146 108q-67 -108 -183 -108q-82 0 -115.5 48.5t-33.5 106.5q0 88 53 139t151 51zM127 321q0 -78 87 -78q32 0 62 16.5t46 32.5t43 49
q-48 99 -120 99q-60 0 -86 -26q-32 -33 -32 -93zM548 243q102 0 118 98q3 15 3 35t-13 38q-17 26 -77 26q-71 0 -150 -99q23 -44 40 -64q30 -34 79 -34z" />
    <glyph glyph-name="integral" unicode="&#x222b;" horiz-adv-x="442" 
d="M90 -130q35 0 56 36q20 36 29 75q13 54 22 107l66 418q33 217 111 272q33 22 64.5 22t49 -3t25.5 -6.5t18 -9t13 -6.5l-8 -49h-88q-50 0 -76 -74q-20 -61 -35 -146l-66 -418q-21 -131 -55 -204q-40 -88 -127 -88q-63 0 -97 25l8 49h90z" />
    <glyph glyph-name="approxequal" unicode="&#x2248;" horiz-adv-x="531" 
d="M247 321q30 0 71.5 -18.5t67 -18.5t43 5t41.5 16.5t40 17.5l15 -42q-10 -6 -32 -22t-37 -25q-40 -25 -74.5 -25t-76 19t-68 19t-46.5 -6t-44.5 -16.5t-42.5 -15.5l-15 41q33 24 49 34.5t47.5 23.5t61.5 13zM275 498q30 0 71.5 -18.5t67 -18.5t43 5t41.5 16.5t40 17.5
l15 -42q-10 -6 -32 -22t-37 -25q-40 -25 -74.5 -25t-76 19t-68 19t-46.5 -6t-44.5 -16.5t-42.5 -15.5l-15 41q33 24 49 34.5t47.5 23.5t61.5 13z" />
    <glyph glyph-name="notequal" unicode="&#x2260;" horiz-adv-x="528" 
d="M125 212l13 79h147l96 125h-224l13 79h271l58 75h61l-58 -75h95l-13 -79h-142l-96 -125h219l-13 -79h-267l-66 -86h-61l66 86h-99z" />
    <glyph glyph-name="lessequal" unicode="&#x2264;" horiz-adv-x="553" 
d="M100 104l12 74h376l-12 -74h-376zM147 406l13 80l401 162l-13 -80l-309 -126l269 -135l-13 -75z" />
    <glyph glyph-name="greaterequal" unicode="&#x2265;" horiz-adv-x="450" 
d="M66 104l12 74h376l-12 -74h-376zM85 228l13 82l316 132l-276 132l13 70l349 -162l-13 -80z" />
    <glyph glyph-name="lozenge" unicode="&#x25ca;" horiz-adv-x="522" 
d="M79 373l264 359h74l144 -359l-260 -373h-74zM172 370l101 -268l200 281l-104 254z" />
    <glyph glyph-name="f_f" unicode="&#xfb00;" horiz-adv-x="791" 
d="M294 760q29 16 81 16t124 -23l-8 -49h-121q-43 0 -57.5 -20t-21.5 -64l-14 -89h316l15 99q19 110 76 140q30 16 82.5 16t124.5 -23l-8 -49h-121q-43 0 -58 -20t-22 -64l-15 -99h146l-12 -74h-148l-72 -457h-74l72 457h-316l-72 -457h-74l72 457h-97l9 57l102 17l14 89
q19 110 77 140z" />
    <glyph glyph-name="f_f_i" unicode="&#xfb03;" horiz-adv-x="972" 
d="M294 760q29 16 81 16t124 -23l-8 -49h-121q-43 0 -57 -19.5t-22 -64.5l-16 -89h288l8 53q15 95 76.5 148.5t162 53.5t172.5 -23l-8 -49h-169q-140 0 -160 -130l-8 -53l357 -10l-82 -521h-75l72 457h-286l-72 -457h-74l72 457h-286l-72 -457h-74l72 457h-97l9 57l102 17
l14 89q19 110 77 140z" />
    <glyph glyph-name="ffl" unicode="&#xfb04;" horiz-adv-x="1076" 
d="M294 760q29 16 81 16t124 -23l-8 -49h-121q-43 0 -57 -19.5t-22 -64.5l-16 -89h288l8 53q31 197 195 202h269l-94 -597q-5 -36 -5 -56.5t4 -29.5q7 -20 39 -29q79 -21 86 -21l-8 -53h-88q-71 0 -95 42q-13 25 -13 64.5t6 82.5l81 525h-176q-53 0 -84 -27t-43 -103l-8 -53
h146l-12 -74h-148l-72 -457h-74l72 457h-286l-72 -457h-74l72 457h-97l9 57l102 17l14 89q19 110 77 140z" />
    <glyph glyph-name="s_t" unicode="&#xfb06;" horiz-adv-x="886" 
d="M420 167q2 9 2 21t-8.5 23t-40.5 11h-148q-74 0 -102.5 26t-28.5 71q0 16 3 34l8 47q12 67 48 99.5t111 32.5h451l41 148h56l-23 -148h155l-12 -72h-155l-42 -270q-5 -42 -5 -63t3 -28q7 -16 42 -24q75 -18 76 -18l-9 -56h-78q-72 0 -96 43q-13 25 -13 64.5t6 81.5
l42 270h-450q-65 0 -74 -60l-8 -47q-4 -13 -2 -22t2 -15.5t5.5 -10t7.5 -6t9.5 -3t10.5 -1t11 0t11 0.5h150q64 0 92 -32t28 -73q0 -11 -2 -24l-9 -59q-12 -78 -61 -101q-39 -18 -89 -18q-95 0 -271 19l9 55h274q19 -3 39.5 12t24.5 42z" />
    <glyph glyph-name="zero.oldstyle" horiz-adv-x="623" 
d="M339 632h164q84 0 119 -48q26 -36 26 -83q0 -15 -3 -31l-49 -308q-14 -87 -61.5 -124.5t-131.5 -37.5h-164q-75 0 -117 39q-32 30 -32 86q0 17 3 37l49 308q25 162 197 162zM167 162q-3 -17 -3 -29.5t3 -26.5t18 -21.5t26.5 -9t24.5 -1.5h179q92 0 107 88l49 308
q2 13 2 32t-14 37.5t-67 18.5h-164q-99 0 -112 -88z" />
    <glyph glyph-name="one.oldstyle" horiz-adv-x="349" 
d="M112 497l8 53q44 0 89.5 21t68.5 43l24 21l74 -3l-100 -632h-74l87 541q-56 -44 -177 -44z" />
    <glyph glyph-name="two.oldstyle" horiz-adv-x="574" 
d="M543 483q0 36 -19.5 58.5t-84.5 22.5h-5l-305 -1l10 55q146 20 306 20q174 0 174 -158q0 -14 -1 -29q-4 -50 -40.5 -104t-84 -96t-105.5 -82q-80 -56 -158 -95h324l-12 -74h-495l11 68q220 116 316 186q152 110 166 199q3 16 3 30z" />
    <glyph glyph-name="three.oldstyle" horiz-adv-x="595" 
d="M353 -26q42 0 78.5 23.5t44.5 69.5l10 59q4 14 4 23t-2 19.5t-2.5 21.5t-9.5 19t-14.5 12t-18 6.5t-21 3t-22.5 1.5l-242 7l10 58l244 10q105 5 120 99l11 69q2 11 2 20q0 71 -92 71h-311l7 46q84 29 244 29q38 0 79 -1q73 -2 114 -48q33 -36 33 -88q0 -14 -2 -29
l-11 -69q-19 -117 -88 -136q48 -27 48 -100q0 -20 -4 -44l-10 -59q-26 -168 -204 -168h-60.5t-49 0.5t-36.5 1t-32 2t-34 3.5l-30 5q-28 5 -59 16l8 47h298z" />
    <glyph glyph-name="four.oldstyle" horiz-adv-x="603" 
d="M54 124l401 508h93l-368 -467h276l33 207l52 75h37l-45 -282h90l-9 -59l-93 -19l-29 -185h-77l29 185h-362z" />
    <glyph glyph-name="five.oldstyle" horiz-adv-x="592" 
d="M318 349l92 -3q69 0 108 -48q31 -38 31 -90q0 -16 -3 -33l-17 -108q-15 -94 -63 -130t-127 -40q-43 -3 -78 -3t-74 4t-148 23l9 55h304q47 0 72 28.5t31 64.5l17 104q3 16 3 29q0 70 -76 70h-150q-33 0 -61 -19t-34 -56h-70l91 435h423l-12 -74h-351l-51 -242
q33 33 134 33z" />
    <glyph glyph-name="six.oldstyle" horiz-adv-x="621" 
d="M202 407q181 21 244.5 21t89.5 -9q43 -16 64 -63q7 -18 7 -29.5t-2 -47.5l-20 -131q-24 -148 -185 -148h-147q-144 0 -144 220q0 71 15 164q29 183 93 268.5t135 85.5t171.5 -8.5t127.5 -10.5l-9 -55h-289q-30 0 -57 -27.5t-46 -70.5q-32 -76 -48 -159zM180 216
q0 -145 81 -145h149q34 0 65 18t38 65l19 125q2 13 2 31t-14.5 31t-63.5 13h-263q-13 -81 -13 -138z" />
    <glyph glyph-name="seven.oldstyle" horiz-adv-x="546" 
d="M129 558l12 74h459l19 -48l-373 -684h-88l362 658h-391z" />
    <glyph glyph-name="eight.oldstyle" horiz-adv-x="633" 
d="M186.5 398q-18.5 24 -22 43.5t-3.5 32.5t2 25l11 65q15 97 64 135t139 38h146q75 0 111 -45q27 -34 27 -87q0 -19 -3 -41l-11 -65q-3 -43 -41 -85q-23 -26 -57 -33q37 -12 51 -51q10 -27 10 -46.5t-2 -31.5l-15 -98q-16 -101 -75 -130q-28 -15 -53 -19.5t-60 -4.5h-145
q-48 0 -80.5 13t-47 30t-21 40t-6.5 37.5t4 33.5l15 98q8 52 40 80t72 32q-31 10 -49.5 34zM180 131q0 -27 18 -42t74 -15h145q36 0 65.5 18t35.5 59l17 105q1 9 1 17q0 27 -19 45.5t-55 18.5h-159q-91 0 -104 -81l-17 -105q-2 -11 -2 -20zM234 476q0 -31 23 -48.5t57 -17.5
h159q85 0 99 84l11 68q4 22 4 44.5t-11 35.5q-16 21 -65 21h-146q-60 0 -84.5 -23t-33.5 -78l-11 -68q-2 -10 -2 -18z" />
    <glyph glyph-name="nine.oldstyle" horiz-adv-x="619" 
d="M545 225q-181 -21 -244.5 -21t-89.5 9q-43 16 -63 63q-8 18 -8 29.5t2 47.5l20 131q24 148 185 148h147q144 0 144 -220q0 -71 -15 -164q-29 -183 -93 -268.5t-135 -85.5t-171.5 8.5t-127.5 10.5l9 55h289q30 0 57 27.5t45 70.5q33 76 49 159zM215 353q-2 -13 -2 -31
t14.5 -31t63.5 -13h263q13 81 13 138q0 145 -81 145h-149q-34 0 -65 -18t-38 -65z" />
    <glyph glyph-name="at.alt" horiz-adv-x="762" 
d="M578 153q-61 -67 -155.5 -67t-134.5 59q-27 39 -27 117q0 45 10.5 113.5t35.5 124.5t57 84q57 50 121 50q162 0 227 -62l-59 -405q42 0 65 17t32 73l53 354q3 20 3 36q0 56 -36 65q-10 2 -23.5 2h-14.5h-382q-102 0 -119 -103l-81 -512q-3 -17 -3 -31q0 -83 88 -83h386
l-8 -47q-135 -27 -292 -27h-98q-77 0 -119 53q-31 41 -31 98q0 18 3 37l81 512q29 178 205 178h375q82 0 117 -46q26 -34 26 -89q0 -20 -3 -43l-53 -354q-12 -83 -50 -121q-16 -16 -47 -29.5t-72 -13.5h-54zM341 344q-6 -46 -6 -84.5t11 -60.5q17 -39 82 -39q40 0 74.5 12.5
t81.5 47.5l51 325q-60 16 -149 16q-118 0 -145 -217z" />
    <glyph glyph-name="questiondown.alt" horiz-adv-x="538" 
d="M333 2l-71 -3q-17 0 -26 2q-96 0 -139 53q-33 42 -33 97q0 17 3 35l16 101q26 162 204 162q30 0 64 -5l9 48q8 49 7 53h75l-26 -162q-48 1 -83 1t-68 -1.5t-67 -25.5t-42 -70l-16 -101q-2 -14 -2 -27q0 -38 23.5 -62.5t97.5 -24.5h271l-8 -51q-48 -7 -109 -13.5t-72 -6.5
zM411 740h55q24 0 21 -23l-9 -57q-3 -25 -28 -25h-55q-20 0 -20 18q0 3 1 7l9 57q3 23 26 23z" />
    <glyph glyph-name="g.salt" horiz-adv-x="517" 
d="M141 200q-47 32 -47 114q0 15 2 30q30 189 194 189h5l105 -2q61 0 102 -45q32 -36 32 -101q0 -91 -51 -167q-21 -32 -59.5 -51t-88.5 -19h-123t-47 -0.5t-8 -2.5t-7 -5q-9 -8 -9 -26q0 -26 37 -31l184 -25q55 -7 89.5 -42.5t34.5 -77.5q0 -10 -2 -21l-5 -33
q-5 -35 -11.5 -55t-23.5 -47q-34 -52 -139 -52h-139q-78 0 -120 42q-31 31 -31 78q0 16 4 34l45 230q5 33 24 59.5t53 26.5zM94 -116q-3 -11 -3 -17.5t1.5 -15l3 -17t9.5 -14t13.5 -8.5t15.5 -4q18 -3 34 -3h150q42 0 61.5 20.5t25.5 58.5l5 28q1 7 1 13q0 53 -77 65
l-211 31zM170 344q-1 -17 -1 -30.5v-22.5q1 -27 21 -47.5t56 -20.5h101q49 0 76 39q37 55 37 118q0 79 -76 79h-101q-93 0 -113 -115z" />
    <glyph glyph-name="exclamdown.alt" horiz-adv-x="309" 
d="M92 1l90 531h75l-76 -531h-89zM193 655l8 54q3 21 28 23h49q9 -1 15 -8.5t5 -17.5l-8 -51q-5 -20 -24 -25h-56q-19 1 -17 25z" />
    <glyph glyph-name="ampersand.salt" horiz-adv-x="946" 
d="M339 531h441l41 149h56l-23 -149h155l-9 -53l-158 -20l-43 -271q-30 -187 -262 -187h-160q-103 0 -141 42q-28 31 -28 87q0 12 1 25q-59 0 -90.5 32t-31.5 76q0 12 2 24l14 89q13 80 54 117q32 30 107 36q29 3 75 3zM352 75l32 -1h164q67 0 117.5 29.5t59.5 83.5l43 271
h-441q-90 -3 -102 -10t-23 -16q-19 -15 -25 -57l-14 -89q-2 -10 -2 -24q0 -34 59 -36q14 88 62 127t133 39h129q120 0 120 -98q0 -11 -2 -23q-12 -76 -42.5 -97t-113.5 -21h-223q-4 -13 -1.5 -23t2.5 -18t5.5 -13.5t8.5 -9.5t11 -6.5t13 -4.5q12 -3 30 -3zM517 226
q30 0 40 2q33 4 33 62q0 15 -8 21.5t-50 6.5h-129q-50 0 -74.5 -17t-34.5 -75h223z" />
    <glyph glyph-name="a.superior" horiz-adv-x="405" 
d="M261 735q10 1 34.5 1t82.5 -11t81 -34l-48 -322h-36l-14 54q-21 -20 -61.5 -39.5t-81.5 -19.5q-63 0 -90 41q-18 26 -18 67.5t6 80.5q26 173 145 182zM170 490q0 -24 5 -38q10 -27 46 -27q54 0 144 45l31 195q-51 13 -81.5 13t-45.5 -1q-77 -8 -94 -128q-5 -35 -5 -59z
" />
    <glyph glyph-name="b.superior" horiz-adv-x="425" 
d="M233 709q77 30 126 30t74 -19.5t31 -47.5q10 -44 10 -72.5t-3 -45.5q-7 -76 -46 -128t-115 -52q-59 0 -122 49l-29 -45h-40l83 524h62zM412 604q0 34 -8 49q-13 24 -52 24q-36 0 -51.5 -2.5t-22.5 -3.5t-24.5 -5t-27.5 -6l-31 -195q8 -3 26 -10t27 -10q27 -9 65 -9
t68.5 38t30.5 130z" />
    <glyph glyph-name="c.superior" horiz-adv-x="370" 
d="M237 731.5q21 5.5 63 5.5t149 -21l-7 -46q-87 5 -131 5t-55 -2.5t-25 -13.5q-25 -20 -39 -106q-5 -31 -5 -56t7 -38q14 -24 56 -24l161 7l-8 -47q-83 -22 -153.5 -22t-102.5 44q-21 29 -21 81q0 26 7.5 72t22.5 84t37.5 55t43.5 22.5z" />
    <glyph glyph-name="d.superior" horiz-adv-x="425" 
d="M292 740q58 0 126 -30l31 194h60l-84 -526h-40l-14 45q-65 -49 -126 -49q-32 0 -56 13.5t-35 34.5q-25 43 -25 86q0 9 2 47q26 185 161 185zM190 516q0 -80 60 -80q51 0 88 18q13 6 41 22l30 190q-73 12 -116.5 12t-66.5 -25t-33 -98q-3 -21 -3 -39z" />
    <glyph glyph-name="e.superior" horiz-adv-x="415" 
d="M340 514q-41 -3 -85 -3t-66 8q-5 -27 -5 -45q0 -48 41 -50q25 -2 71 -2t124 12l-6 -48q-71 -20 -194 -20q-64 0 -83 46q-10 25 -10 63t7 85q15 96 52.5 137t123 41t123 -23t37.5 -69q0 -65 -44.5 -97t-85.5 -35zM194 568q44 -6 76 -6t58 4.5t51 20.5q30 19 30 52
q0 26 -27 33q-25 8 -64 8t-61 -7.5t-34.5 -25.5t-17.5 -33.5t-11 -45.5z" />
    <glyph glyph-name="f.superior" horiz-adv-x="314" 
d="M329 903q43 0 103 -17l-9 -41h-89q-22 0 -36 -15t-17 -28t-7 -36l-6 -32h107l-10 -62h-109l-47 -294h-62l47 294h-73l8 49l77 11l7 41q22 130 116 130z" />
    <glyph glyph-name="g.superior" horiz-adv-x="409" 
d="M293 253q63 0 74 63l13 81q-71 -28 -138 -28t-96 57q-20 38 -20 75t5 64q32 174 168 174q59 0 122 -8t72 -9l-66 -415q-10 -64 -48.5 -89t-77.5 -25q-6 0 -12 1l-191 16l7 43h188zM188 500q0 -24 15.5 -47t52.5 -23q58 0 131 16l37 231h-129q-23 0 -41 -10t-27 -20.5
t-17.5 -33t-10 -29.5t-6.5 -28q-2 -20 -3.5 -36t-1.5 -20z" />
    <glyph glyph-name="h.superior" horiz-adv-x="446" 
d="M387 739q57 0 81.5 -30t24.5 -65q0 -9 -1 -19l-39 -247h-62l37 236q1 7 1 21t-14.5 28t-34 14t-29 -0.5t-16.5 -1.5t-16.5 -3.5t-14.5 -3.5t-16 -5t-16 -6l-20 -8q-15 -6 -21 -8l-42 -263h-62l83 523h62l-34 -216q8 4 28 15t29.5 15.5t26.5 11.5q28 12 65 12z" />
    <glyph glyph-name="i.superior" horiz-adv-x="198" 
d="M125 378l56 356h62l-56 -356h-62zM216 861h40q14 0 14 -14v-5l-7 -43q-3 -17 -20 -17h-40q-18 0 -15 17l7 43q3 19 21 19z" />
    <glyph glyph-name="j.superior" horiz-adv-x="199" 
d="M96 196l85 537h64l-57 -358q-14 -100 -47 -179h-45zM217 862h40q14 0 14 -14v-5l-7 -43q-3 -18 -20 -18h-40q-18 0 -15 18l7 43q3 19 21 19z" />
    <glyph glyph-name="k.superior" horiz-adv-x="366" 
d="M127 378l83 521h62l-49 -306q48 14 107 62t67 84h70q-14 -50 -68 -101.5t-95 -69.5l143 -190h-79l-130 178h-21l-28 -178h-62z" />
    <glyph glyph-name="l.superior" horiz-adv-x="247" 
d="M210 512q-3 -23 -3 -36.5t2 -19.5q5 -14 29 -20q57 -14 62 -14l-7 -44h-67q-83 0 -83 89q0 19 4 42l62 391h62z" />
    <glyph glyph-name="m.superior" horiz-adv-x="709" 
d="M343 733.5q15 2.5 41.5 2.5t54 -16t35.5 -43q81 59 172 59q45 0 76.5 -31t31.5 -68q0 -7 -1 -15l-39 -244h-62l37 233q1 6 1 18.5t-14.5 28.5t-42.5 16q-73 0 -145 -36l-41 -260h-62l37 233q1 5 1 10q0 21 -15.5 37t-43.5 16q-35 0 -53 -5t-22 -6t-15 -5t-15 -6
q-12 -4 -37 -14l-41 -260h-62l56 354h43l11 -49q8 4 28 15t29 15.5t25.5 11t31.5 9z" />
    <glyph glyph-name="n.superior" horiz-adv-x="446" 
d="M387 739q57 0 81.5 -30t24.5 -65q0 -9 -1 -19l-39 -247h-62l38 237q1 7 1 21t-14 28t-34.5 14t-30 -0.5t-20 -2.5t-17.5 -3.5t-19 -6t-17.5 -6.5t-22 -8.5t-24.5 -9.5l-42 -263h-62l56 354h39l15 -46q72 43 117 50q15 3 33 3z" />
    <glyph glyph-name="o.superior" horiz-adv-x="413" 
d="M185 696.5q41 41.5 135 41.5t125 -44q21 -29 21 -84q0 -27 -5 -60q-15 -102 -52 -140t-131.5 -38t-126.5 40q-23 29 -23 89q0 22 3 49q13 105 54 146.5zM189 507.5q0 -18.5 1.5 -31t8.5 -21t13 -12.5t19 -6q20 -3 49.5 -3t43.5 2t31.5 12.5t27 34.5t16 63t6.5 62
t-4.5 36.5t-17.5 20.5q-20 11 -59.5 11t-55 -2.5t-32.5 -14t-26.5 -38t-15 -61t-5.5 -53z" />
    <glyph glyph-name="p.superior" horiz-adv-x="423" 
d="M373 738q48 0 74.5 -28.5t28.5 -68.5q1 -15 1 -36t-2 -49q-12 -92 -46 -139.5t-106 -47.5t-135 30l-31 -194h-59l83 520q83 13 192 13zM321 431q37 0 58.5 25.5t33.5 99.5q4 25 4 45q0 76 -57 76h-128l-37 -229q64 -17 126 -17z" />
    <glyph glyph-name="q.superior" horiz-adv-x="428" 
d="M307 739q58 0 116 -8t68 -9l-83 -528h-62l32 203q-67 -26 -122 -28q-73 0 -102 57q-20 38 -20 75t5 64q32 174 168 174zM297 429l34 5q1 0 22 5t32 7l37 231h-119q-23 0 -41 -10t-27 -20.5t-17.5 -33t-10 -29.5t-6.5 -28q-2 -20 -3.5 -36t-1.5 -20q0 -24 15.5 -47
t52.5 -23q25 2 27.5 0.5t5.5 -1.5z" />
    <glyph glyph-name="r.superior" horiz-adv-x="335" 
d="M348 734q15 2 45 2t42 -6l-10 -60q-18 4 -50 4t-58 -6q-33 -6 -95 -31l-41 -259h-62l56 354h45l9 -51q81 47 119 53z" />
    <glyph glyph-name="s.superior" horiz-adv-x="379" 
d="M313 430q0 1 4 0t10 1t12 5q14 5 18 27l4 25q2 18 -5 26t-28 8h-108q-47 0 -69 22.5t-22 53.5q0 8 2 18l5 35q8 46 33.5 68.5t76.5 22.5q80 0 194 -13l-8 -49h-186q-36 0 -44 -18q-3 -6 -5 -19l-4 -24q-4 -30 15 -33q8 -2 24 -2h108q45 0 64.5 -25.5t19.5 -52.5
q0 -7 -1 -15l-6 -37q-8 -51 -34.5 -69t-79.5 -18t-192 16l7 47h195z" />
    <glyph glyph-name="t.superior" horiz-adv-x="276" 
d="M231 510q-3 -27 -3 -40t3 -20t43 -16t41 -9l-7 -46h-59q-84 0 -84 86q0 18 3 38l27 169h-74l8 48l76 12l31 101h46l-15 -99h112l-10 -62h-112z" />
    <glyph glyph-name="u.superior" horiz-adv-x="438" 
d="M192 495q-1 -5 -1 -18t15 -28.5t42 -15.5q15 0 27 1.5t17 2t13.5 3t12 3.5t14 4.5t14.5 5t17 7t19 7.5l42 265h62l-56 -354h-40l-15 46q-10 -5 -33 -18.5t-34 -18.5q-37 -16 -74 -16q-57 0 -81.5 32.5t-24.5 68.5q0 9 1 19l39 241h62z" />
    <glyph glyph-name="v.superior" horiz-adv-x="371" 
d="M468 732q5 -15 5 -31t-8 -32l-179 -291h-51l-105 354h66l77 -256l123 201q11 17 17 55h55z" />
    <glyph glyph-name="w.superior" horiz-adv-x="565" 
d="M466 732q5 -15 5 -31t-8 -32l-39 -65l41 -123l122 196q12 19 18 55h55q5 -15 5 -31t-8 -32l-177 -291h-49l-49 160l-96 -160h-51l-105 354h64l76 -251l124 197q11 17 17 54h55z" />
    <glyph glyph-name="x.superior" horiz-adv-x="383" 
d="M74 370l163 181l-112 180h72l85 -136l120 136h79l-164 -187l111 -174h-72l-83 130l-117 -130h-82z" />
    <glyph glyph-name="y.superior" horiz-adv-x="404" 
d="M501 732q5 -15 5 -31t-8 -32l-155 -289q-110 -200 -212 -216v42q32 28 66 72t52 74l18 31q-23 2 -39.5 19t-22.5 40l-71 291h65l65 -266q7 -29 34 -29l130 240q14 28 18 54h55z" />
    <glyph glyph-name="z.superior" horiz-adv-x="385" 
d="M109 379l10 62l248 229h-223l10 62h310l-9 -63l-246 -228h208l-10 -62h-298z" />
    <glyph glyph-name="zero.tnum" horiz-adv-x="620" 
d="M345 732h164q84 0 119 -48q26 -36 26 -83q0 -15 -3 -31l-65 -408q-14 -87 -61.5 -124.5t-131.5 -37.5h-164q-75 0 -117 39q-32 30 -32 86q0 17 3 37l65 408q25 162 197 162zM157 162q-3 -17 -3 -29.5t3 -26.5t18 -21.5t26.5 -9t24.5 -1.5h179q92 0 107 88l65 408
q2 13 2 32t-14 37.5t-67 18.5h-164q-99 0 -112 -88z" />
    <glyph glyph-name="one.tnum" horiz-adv-x="620" 
d="M130 0l12 78h172l92 559q-54 -43 -178 -43l8 53q44 0 89.5 21.5t68.5 42.5l24 21h75l-104 -654h163l-12 -78h-410z" />
    <glyph glyph-name="two.tnum" horiz-adv-x="620" 
d="M576 567q0 100 -112 100h-303l9 55q160 20 308 20q95 0 136 -61q34 -51 34 -121q0 -71 -40.5 -137.5t-88 -116t-110.5 -100.5q-91 -75 -179 -132h340l-12 -74h-495l11 68q154 95 288 200q88 68 145 138q69 84 69 161z" />
    <glyph glyph-name="three.tnum" horiz-adv-x="620" 
d="M380 68q42 0 78.5 23.5t44.5 69.5l10 59q4 14 4 23t-2 19.5t-2.5 21.5t-9.5 19t-14.5 12t-18 6.5t-21 3t-22.5 1.5l-242 7l10 58l244 10q105 5 120 99l11 69q2 11 2 20q0 71 -92 71h-311l7 46q84 29 244 29q38 0 79 -1q73 -2 115 -48q32 -36 32 -88q0 -14 -2 -29l-11 -69
q-19 -117 -88 -136q48 -27 48 -100q0 -20 -4 -44l-10 -59q-26 -168 -204 -168h-60.5t-49 0.5t-36.5 1t-32 2t-34 3.5t-29 5q-29 5 -60 16l8 47h298z" />
    <glyph glyph-name="four.tnum" horiz-adv-x="620" 
d="M53 224l401 508h93l-368 -467h276l33 207l52 75h37l-45 -282h90l-9 -59l-93 -19l-29 -185h-77l29 185h-362z" />
    <glyph glyph-name="five.tnum" horiz-adv-x="620" 
d="M364 451l86 -3q69 0 108 -48q31 -38 31 -90q0 -16 -3 -33l-17 -108q-15 -94 -63 -130t-127 -40q-43 -3 -78 -3t-74 4t-148 23l9 55h304q47 0 72 28.5t31 64.5l17 104q3 16 3 29q0 70 -76 70h-150q-33 0 -61 -19t-34 -56h-70l91 435h423l-12 -74h-351l-51 -242
q30 33 140 33z" />
    <glyph glyph-name="six.tnum" horiz-adv-x="620" 
d="M198 407q181 21 244.5 21t89.5 -9q43 -16 64 -63q7 -18 7 -29.5t-2 -47.5l-20 -131q-24 -148 -185 -148h-147q-144 0 -144 220q0 71 15 164q29 183 93 268.5t135 85.5q193 0 299 -19l-9 -55h-289q-30 0 -57 -27.5t-46 -70.5q-32 -76 -48 -159zM176 216q0 -145 81 -145
h149q34 0 65 18t38 65l19 125q2 13 2 31t-14.5 31t-63.5 13h-263q-13 -81 -13 -138z" />
    <glyph glyph-name="seven.tnum" horiz-adv-x="620" 
d="M171 658l12 74h459l19 -48l-373 -684h-88l362 658h-391z" />
    <glyph glyph-name="eight.tnum" horiz-adv-x="620" 
d="M173.5 398q-18.5 24 -22 43.5t-3.5 32.5t2 25l11 65q15 97 64 135t139 38h146q75 0 112 -45q26 -34 26 -87q0 -19 -3 -41l-11 -65q-3 -43 -40 -85q-24 -26 -58 -33q37 -12 52 -51q9 -27 9 -46.5t-2 -31.5l-15 -98q-16 -101 -74 -130q-29 -15 -54 -19.5t-60 -4.5h-145
q-48 0 -80.5 13t-47 30t-21 40t-6.5 37.5t4 33.5l15 98q8 52 40 80t72 32q-31 10 -49.5 34zM167 131q0 -27 18 -42t74 -15h145q36 0 65.5 18t35.5 59l17 105q1 9 1 17q0 27 -19 45.5t-55 18.5h-159q-91 0 -104 -81l-17 -105q-2 -11 -2 -20zM221 476q0 -31 23 -48.5t57 -17.5
h159q85 0 99 84l11 68q4 22 4 44.5t-10 35.5q-17 21 -66 21h-146q-60 0 -84.5 -23t-33.5 -78l-11 -68q-2 -10 -2 -18z" />
    <glyph glyph-name="nine.tnum" horiz-adv-x="620" 
d="M536 331q-181 -21 -244.5 -21t-89.5 9q-43 16 -64 63q-7 18 -7 29.5t2 47.5l20 131q24 148 185 148h147q144 0 144 -220q0 -71 -15 -164q-29 -183 -93 -268.5t-135 -85.5q-212 0 -299 19l9 55h289q30 0 57 27.5t46 70.5q32 76 48 159zM206 459q-2 -13 -2 -31t14.5 -31
t63.5 -13h263q13 81 13 138q0 145 -81 145h-149q-34 0 -65 -18t-38 -65z" />
    <glyph glyph-name="zero.tosf" horiz-adv-x="620" 
d="M329 632h164q84 0 119 -48q26 -36 26 -83q0 -15 -3 -31l-49 -308q-14 -87 -61.5 -124.5t-131.5 -37.5h-164q-75 0 -117 39q-32 30 -32 86q0 17 3 37l49 308q25 162 197 162zM157 162q-3 -17 -3 -29.5t3 -26.5t18 -21.5t26.5 -9t24.5 -1.5h179q92 0 107 88l49 308
q2 13 2 32t-14 37.5t-67 18.5h-164q-99 0 -112 -88z" />
    <glyph glyph-name="one.tosf" horiz-adv-x="620" 
d="M138 0l12 78h162l74 459q-56 -43 -174 -43l9 53q44 0 89.5 21.5t68.5 42.5l23 21h72l-88 -554h154l-12 -78h-390z" />
    <glyph glyph-name="two.tosf" horiz-adv-x="620" 
d="M558 483q0 36 -19.5 58.5t-84.5 22.5h-5l-305 -1l10 55q146 20 306 20q174 0 174 -158q0 -14 -1 -29q-4 -50 -40.5 -104t-84 -96t-104.5 -82q-81 -56 -159 -95h324l-12 -74h-495l11 68q220 116 316 186q152 110 166 199q3 16 3 30z" />
    <glyph glyph-name="three.tosf" horiz-adv-x="620" 
d="M365 -26q42 0 78.5 23.5t44.5 69.5l10 59q4 14 4 23t-2 19.5t-2.5 21.5t-9.5 19t-14.5 12t-18 6.5t-21 3t-22.5 1.5l-242 7l10 58l244 10q105 5 120 99l11 69q2 11 2 20q0 71 -92 71h-311l7 46q84 29 244 29q38 0 79 -1q73 -2 114 -48q33 -36 33 -88q0 -14 -2 -29
l-11 -69q-19 -117 -88 -136q48 -27 48 -100q0 -20 -4 -44l-10 -59q-26 -168 -204 -168h-60.5t-49 0.5t-36.5 1t-32 2t-34 3.5l-30 5q-28 5 -59 16l8 47h298z" />
    <glyph glyph-name="four.tosf" horiz-adv-x="620" 
d="M47 124l401 508h93l-368 -467h276l33 207l52 75h37l-45 -282h90l-9 -59l-93 -19l-29 -185h-77l29 185h-362z" />
    <glyph glyph-name="five.tosf" horiz-adv-x="620" 
d="M348 349l86 -3q69 0 108 -48q31 -38 31 -90q0 -16 -3 -33l-17 -108q-15 -94 -63 -130t-127 -40q-43 -3 -78 -3t-74 4t-148 23l9 55h304q47 0 72 28.5t31 64.5l17 104q3 16 3 29q0 70 -76 70h-150q-33 0 -61 -19t-34 -56h-70l91 435h423l-12 -74h-351l-51 -242
q30 33 140 33z" />
    <glyph glyph-name="six.tosf" horiz-adv-x="620" 
d="M198 407q181 21 244.5 21t89.5 -9q43 -16 64 -63q7 -18 7 -29.5t-2 -47.5l-20 -131q-24 -148 -185 -148h-147q-144 0 -144 220q0 71 15 164q29 183 93 268.5t135 85.5q170 0 299 -19l-9 -55h-289q-30 0 -57 -27.5t-46 -70.5q-32 -76 -48 -159zM176 216q0 -145 81 -145
h149q34 0 65 18t38 65l19 125q2 13 2 31t-14.5 31t-63.5 13h-263q-13 -81 -13 -138z" />
    <glyph glyph-name="seven.tosf" horiz-adv-x="620" 
d="M145 558l12 74h459l19 -48l-373 -684h-88l362 658h-391z" />
    <glyph glyph-name="eight.tosf" horiz-adv-x="620" 
d="M169.5 398q-18.5 24 -22 43.5t-3.5 32.5t2 25l11 65q15 97 64 135t139 38h146q75 0 112 -45q26 -34 26 -87q0 -19 -3 -41l-11 -65q-3 -43 -40 -85q-24 -26 -58 -33q37 -12 52 -51q9 -27 9 -46.5t-2 -31.5l-15 -98q-16 -101 -74 -130q-29 -15 -54 -19.5t-60 -4.5h-145
q-48 0 -80.5 13t-47 30t-21 40t-6.5 37.5t4 33.5l15 98q8 52 40 80t72 32q-31 10 -49.5 34zM163 131q0 -27 18 -42t74 -15h145q36 0 65.5 18t35.5 59l17 105q1 9 1 17q0 27 -19 45.5t-55 18.5h-159q-91 0 -104 -81l-17 -105q-2 -11 -2 -20zM217 476q0 -31 23 -48.5t57 -17.5
h159q85 0 99 84l11 68q4 22 4 44.5t-10 35.5q-17 21 -66 21h-146q-60 0 -84.5 -23t-33.5 -78l-11 -68q-2 -10 -2 -18z" />
    <glyph glyph-name="nine.tosf" horiz-adv-x="620" 
d="M380 -106l-95 -1q-92 0 -133 6.5t-71 13.5l9 55h289q30 0 57 27.5t46 70.5q32 76 48 159q-181 -21 -244.5 -21t-89.5 9q-43 16 -64 63q-7 18 -7 29.5t2 47.5l20 131q24 148 185 148h147q144 0 144 -220q0 -71 -15 -164q-29 -183 -93 -268.5t-135 -85.5zM200 353
q-2 -13 -2 -31t14.5 -31t63.5 -13h263q13 81 13 138q0 145 -81 145h-149q-34 0 -65 -18t-38 -65z" />
    <glyph glyph-name="gbreve.salt" horiz-adv-x="517" 
d="M303 710q-1 -6 -1 -20.5t15 -31t41 -16.5h3q66 0 77 68h46q-15 -114 -126 -114q-43 0 -72 29t-29 73v12h46zM141 200q-47 32 -47 114q0 15 2 30q30 189 194 189h5l105 -2q61 0 102 -45q32 -36 32 -101q0 -91 -51 -167q-21 -32 -59.5 -51t-88.5 -19h-123t-47 -0.5t-8 -2.5
t-7 -5q-9 -8 -9 -26q0 -26 37 -31l184 -25q55 -7 89.5 -42.5t34.5 -77.5q0 -10 -2 -21l-5 -33q-5 -35 -11.5 -55t-23.5 -47q-34 -52 -139 -52h-139q-78 0 -120 42q-31 31 -31 78q0 16 4 34l45 230q5 33 24 59.5t53 26.5zM94 -116q-3 -11 -3 -17.5t1.5 -15l3 -17t9.5 -14
t13.5 -8.5t15.5 -4q18 -3 34 -3h150q42 0 61.5 20.5t25.5 58.5l5 28q1 7 1 13q0 53 -77 65l-211 31zM170 344q-1 -17 -1 -30.5v-22.5q1 -27 21 -47.5t56 -20.5h101q49 0 76 39q37 55 37 118q0 79 -76 79h-101q-93 0 -113 -115z" />
    <glyph glyph-name="gdotaccent.salt" horiz-adv-x="517" 
d="M345 698h50q22 0 19 -25l-9 -54q-4 -23 -26 -23h-50q-11 0 -17 6.5t-4 16.5l9 54q3 25 28 25zM141 200q-47 32 -47 114q0 15 2 30q30 189 194 189h5l105 -2q61 0 102 -45q32 -36 32 -101q0 -91 -51 -167q-21 -32 -59.5 -51t-88.5 -19h-123t-47 -0.5t-8 -2.5t-7 -5
q-9 -8 -9 -26q0 -26 37 -31l184 -25q55 -7 89.5 -42.5t34.5 -77.5q0 -10 -2 -21l-5 -33q-5 -35 -11.5 -55t-23.5 -47q-34 -52 -139 -52h-139q-78 0 -120 42q-31 31 -31 78q0 16 4 34l45 230q5 33 24 59.5t53 26.5zM94 -116q-3 -11 -3 -17.5t1.5 -15l3 -17t9.5 -14t13.5 -8.5
t15.5 -4q18 -3 34 -3h150q42 0 61.5 20.5t25.5 58.5l5 28q1 7 1 13q0 53 -77 65l-211 31zM170 344q-1 -17 -1 -30.5v-22.5q1 -27 21 -47.5t56 -20.5h101q49 0 76 39q37 55 37 118q0 79 -76 79h-101q-93 0 -113 -115z" />
    <glyph glyph-name="gcircumflex.salt" horiz-adv-x="517" 
d="M199 596l138 130h71l83 -130h-65l-57 83l-90 -83h-80zM141 200q-47 32 -47 114q0 15 2 30q30 189 194 189h5l105 -2q61 0 102 -45q32 -36 32 -101q0 -91 -51 -167q-21 -32 -59.5 -51t-88.5 -19h-123t-47 -0.5t-8 -2.5t-7 -5q-9 -8 -9 -26q0 -26 37 -31l184 -25
q55 -7 89.5 -42.5t34.5 -77.5q0 -10 -2 -21l-5 -33q-5 -35 -11.5 -55t-23.5 -47q-34 -52 -139 -52h-139q-78 0 -120 42q-31 31 -31 78q0 16 4 34l45 230q5 33 24 59.5t53 26.5zM94 -116q-3 -11 -3 -17.5t1.5 -15l3 -17t9.5 -14t13.5 -8.5t15.5 -4q18 -3 34 -3h150
q42 0 61.5 20.5t25.5 58.5l5 28q1 7 1 13q0 53 -77 65l-211 31zM170 344q-1 -17 -1 -30.5v-22.5q1 -27 21 -47.5t56 -20.5h101q49 0 76 39q37 55 37 118q0 79 -76 79h-101q-93 0 -113 -115z" />
    <glyph glyph-name="c_t" horiz-adv-x="856" 
d="M143 170q0 -103 80 -103q94 0 198 8l39 3l-9 -56q-105 -28 -222 -28q-91 0 -133 66q-25 40 -25 96.5t11 120t29.5 114t36.5 77.5t46 41.5t49 17.5t55 3l394 3l42 147h56l-24 -148h155l-12 -76h-155l-42 -266q-7 -44 -7 -62.5t6 -29.5t14.5 -15t55 -15t47.5 -11l-9 -56
h-78q-72 0 -95 43q-14 25 -14 64.5t6 81.5l42 266h-394q-23 0 -34 -1.5t-27.5 -11t-26.5 -29.5q-26 -51 -40.5 -128.5t-14.5 -115.5z" />
    <glyph glyph-name="t_t" horiz-adv-x="738" 
d="M593 190q-7 -40 -7 -60.5t7 -31.5t15 -15t53.5 -15t46.5 -11l-8 -56h-68q-118 0 -118 129q0 27 5 60l42 268h-296l-43 -268q-7 -40 -7 -60.5t7 -31.5t15 -15t53.5 -15t46.5 -11l-8 -56h-68q-118 0 -118 128q0 27 6 61l42 268h-99l9 56l102 18l41 148h56l-23 -148h296
l41 148h56l-23 -148h155l-12 -74h-155z" />
    <glyph glyph-name="f_t" horiz-adv-x="766" 
d="M294 770q30 16 82.5 16t124.5 -23l-8 -49h-121q-43 0 -58 -20t-22 -64l-15 -98h324l41 148h56l-23 -148h155l-12 -74h-155l-40 -268q-4 -39 -4 -61t3 -30q8 -16 41 -24q75 -18 76 -18l-9 -56h-68q-118 0 -118 132q0 26 5 57l40 268h-326l-72 -458h-74l72 457h-97l9 57
l102 17l15 99q19 110 76 140z" />
    <glyph glyph-name="t_y" horiz-adv-x="926" 
d="M636 118q4 -22 19 -31t22.5 -9h8.5l14 1l197 376q19 37 26 80h61q6 -17 6 -40.5t-16 -55.5l-222 -436q-66 -130 -120.5 -192.5t-132.5 -77.5v53q74 49 135 158q12 21 31 58q-27 0 -50 14q-46 26 -56 96l-54 302q-5 28 -21 36t-61 8h-158l-42 -269q-7 -40 -7 -60.5
t7 -31.5t15 -15t53.5 -15t46.5 -11l-8 -56h-68q-118 0 -118 129q0 27 5 60l42 269h-99l9 56l102 18l41 148h56l-23 -148h158q71 -1 104 -28t44 -90z" />
    <glyph glyph-name="f_y" horiz-adv-x="940" 
d="M294 770q30 16 82.5 16t124.5 -23l-8 -49h-121q-43 0 -58 -20t-22 -64l-15 -99h171q70 0 103.5 -29t45.5 -92l54 -296q4 -22 21 -31t25 -9h10l16 1l189 376q18 38 25 80h61q6 -18 6 -41.5t-15 -54.5l-223 -436q-67 -130 -120.5 -192.5t-131.5 -77.5v53q74 49 135 158
q12 21 31 58q-26 0 -49 14q-46 26 -58 96l-53 302q-6 29 -23 38t-61 9h-173l-72 -457h-74l72 457h-97l9 57l102 17l15 99q19 110 76 140z" />
    <glyph glyph-name="gcommaaccent.salt" horiz-adv-x="517" 
d="M141 200q-47 32 -47 114q0 15 2 30q30 189 194 189h5l105 -2q61 0 102 -45q32 -36 32 -101q0 -91 -51 -167q-21 -32 -59.5 -51t-88.5 -19h-123t-47 -0.5t-8 -2.5t-7 -5q-9 -8 -9 -26q0 -26 37 -31l184 -25q55 -7 89.5 -42.5t34.5 -77.5q0 -10 -2 -21l-5 -33
q-5 -35 -11.5 -55t-23.5 -47q-34 -52 -139 -52h-139q-78 0 -120 42q-31 31 -31 78q0 16 4 34l45 230q5 33 24 59.5t53 26.5zM94 -116q-4 -11 -4 -17.5t2 -15t3 -16.5t9.5 -13.5t13.5 -8.5t16 -4.5t16 -1.5h167q77 0 88 77l5 28q1 7 1 13q0 53 -77 65l-211 31zM170 344
q-1 -17 -1 -30.5v-22.5q1 -27 21 -47.5t56 -20.5h101q49 0 76 39q37 55 37 118q0 79 -76 79h-101q-93 0 -113 -115zM396 770h3l21 -2l-4 -29h-2q-25 0 -31 -28l-3 -23h10q22 0 19 -22l-8 -49q-5 -24 -26 -24h-46q-18 0 -18 18v6l13 81q6 38 29 55t43 17z" />
    <glyph glyph-name="exclam.smcp" horiz-adv-x="264" 
d="M122 105h55q20 0 20 -18q0 -3 -1 -7l-9 -57q-3 -23 -26 -23h-55q-24 0 -21 23l9 57q3 25 28 25zM117 167l57 403h89l-71 -403h-75z" />
    <glyph glyph-name="quotedbl.smcp" horiz-adv-x="380" 
d="M165 436l10 134l11 67h74l-11 -67l-31 -134h-53zM300 436l10 134l11 67h74l-11 -67l-31 -134h-53z" />
    <glyph glyph-name="numbersign.smcp" horiz-adv-x="565" 
d="M47 174l16 51h123l40 118h-125l15 51h126l58 176h52l-58 -176h124l57 176h52l-57 -176h138l-15 -51h-139l-39 -118h140l-16 -51h-140l-58 -175h-52l57 175h-123l-58 -175h-52l57 175h-123zM239 225h124l38 118h-123z" />
    <glyph glyph-name="dollar.smcp" horiz-adv-x="502" 
d="M78 67l219 1q87 0 99 71l6 38q1 9 1 16q0 56 -70 56h-76q-94 0 -125 48q-23 34 -23 70q0 10 2 21l5 31q24 154 197 156l10 65h64l-11 -67q60 -4 141 -16l-9 -57h-207q-46 0 -74.5 -17t-36.5 -64l-5 -31q-1 -9 -1 -17q0 -25 17 -38t61 -13h83q70 0 105 -44q29 -35 29 -77
q0 -11 -2 -22l-6 -38q-13 -84 -60 -115t-127 -31l-10 -62h-63l10 66l-152 14z" />
    <glyph glyph-name="percent.smcp" horiz-adv-x="848" 
d="M249 594h56q66 0 91 -29q19 -21 19 -61q0 -16 -3 -35l-12 -83q-11 -71 -41.5 -98t-107.5 -27h-56q-58 0 -83.5 28t-25.5 70q0 13 2 27l12 83q11 68 40.5 96.5t108.5 28.5zM153 386q-2 -11 -2 -25.5t9.5 -24.5t45.5 -10h56q40 0 54 11.5t19 48.5l12 83q2 16 2 29.5
t-6.5 22t-47.5 8.5h-56q-42 0 -55 -12t-19 -48zM212 0l436 570h71l-436 -570h-71zM687 334h56q66 0 91 -29q19 -21 19 -61q0 -16 -3 -35l-12 -83q-10 -71 -41 -98t-108 -27h-56q-58 0 -83.5 28t-25.5 70q0 13 2 27l12 83q11 68 40.5 96.5t108.5 28.5zM591 126q-2 -12 -2 -26
t9 -24t45 -10h56q41 0 55 11.5t19 48.5l12 83q2 16 2 29.5t-6.5 22t-47.5 8.5h-56q-42 0 -55 -12t-19 -48z" />
    <glyph glyph-name="ampersand.smcp" horiz-adv-x="534" 
d="M306 501q-64 0 -64 -41q0 -16 13 -35l139 -242l92 79l26 -31l-54 -87l-24 -23l74 -121h-84l-46 78l-57 -48q-48 -36 -106 -36q-32 0 -69.5 15.5t-63.5 59t-26 87.5q0 80 83 142l75 56l-26 44q-21 37 -21 68q0 47 39 78q27 23 62 25.5t60 2.5q65 0 145 -18l-9 -53h-158z
M130 158q0 -25 14.5 -48t32 -34t30 -11h14.5q26 1 53 22l65 55l-88 147l-71 -51q-50 -37 -50 -80z" />
    <glyph glyph-name="quotesingle.smcp" horiz-adv-x="245" 
d="M165 436l10 134l11 67h74l-11 -67l-31 -134h-53z" />
    <glyph glyph-name="asterisk.smcp" horiz-adv-x="439" 
d="M114 408l6 40l144 29l-8 -74zM157 256l46 135l70 -17l-81 -130zM258 318l51 63l95 -92l-26 -32zM264 559l41 16l57 -118l-73 -30zM316 414l131 75l14 -35l-106 -97z" />
    <glyph glyph-name="zero.smcp" horiz-adv-x="582" 
d="M332 570h104q84 0 118 -48q27 -36 27 -83q0 -15 -3 -31l-40 -246q-14 -87 -61.5 -124.5t-131.5 -37.5h-104q-75 0 -117 39q-32 30 -32 86q0 17 3 37l40 246q25 162 197 162zM169 162q-3 -18 -3 -30.5t3 -26.5t19.5 -21.5t27.5 -8.5t37 -1h104q92 0 107 88l40 246
q2 13 2 32t-14 37.5t-67 18.5h-104q-99 0 -112 -88z" />
    <glyph glyph-name="one.smcp" horiz-adv-x="330" 
d="M108 432l8 53q38 0 76 21.5t57 42.5l19 21h72l-86 -570h-74l74 475q-36 -43 -146 -43z" />
    <glyph glyph-name="two.smcp" horiz-adv-x="506" 
d="M445 415q0 35 -17 55q-23 27 -92 27l-218 -1l9 51q59 16 105.5 20t125.5 4q98 0 134 -55q29 -42 29 -102q0 -18 -3 -38q-8 -51 -47 -105.5t-89 -94.5q-109 -87 -168 -102h254l-12 -74h-410l11 68q362 166 386 318q2 16 2 29z" />
    <glyph glyph-name="three.smcp" horiz-adv-x="509" 
d="M283 69q88 0 99 72l4 26q2 10 2 18q0 59 -72 61l-194 5l11 65l195 4q43 1 66.5 17t29.5 58l5 34q3 15 3 31.5t-14.5 27.5t-61.5 11h-248l9 52q64 20 155 21q33 1 73 1h48q55 0 83.5 -35.5t28.5 -79.5q0 -14 -2 -29l-5 -34q-8 -48 -24 -76.5t-51 -41.5q41 -29 41 -84
q0 -12 -2 -26l-4 -26q-12 -77 -48.5 -111.5t-108.5 -34.5h-8h-49t-60.5 1t-49.5 2q-57 3 -97 18l8 53h238z" />
    <glyph glyph-name="four.smcp" horiz-adv-x="542" 
d="M47 175l291 395h88l-258 -354h224l27 165l49 75h37l-39 -240h90l-9 -59l-93 -19l-21 -136h-74l21 136h-305z" />
    <glyph glyph-name="five.smcp" horiz-adv-x="540" 
d="M335 78q48 0 69 19.5t27 56.5l9 59l3 34q0 15 -18 26t-58 11h-103q-72 0 -85 -75h-70l75 361h361l-12 -74h-290l-35 -173q25 26 71 33q14 2 97.5 2t115.5 -42q24 -34 24 -76q0 -12 -2 -25l-10 -63q-13 -84 -54.5 -118t-127.5 -35h-22q-139 0 -221 24l9 55h247z" />
    <glyph glyph-name="six.smcp" horiz-adv-x="546" 
d="M188 330q97 12 220 12q59 0 86.5 -31t27.5 -69q0 -10 -2 -22l-15 -94q-11 -69 -46.5 -98t-108.5 -29h-114q-56 0 -92 33q-21 20 -30 54q-15 50 -15 103.5t10 110.5q22 154 73.5 215t124.5 61q168 0 249 -15l-10 -63h-252q-24 0 -44 -18.5t-32 -47.5q-21 -51 -30 -102z
M171 183q0 -106 61 -106h131q30 0 47 10.5t22 42.5l14 90q1 7 1 19q0 29 -54 29h-215q-7 -49 -7 -85z" />
    <glyph glyph-name="seven.smcp" horiz-adv-x="476" 
d="M108 496l12 74h389l19 -48l-285 -522h-83l272 496h-324z" />
    <glyph glyph-name="eight.smcp" horiz-adv-x="574" 
d="M192 279q-33 12 -45.5 40.5t-12.5 45t1 25.5l7 43q13 80 47.5 111t110.5 31h166q56 0 85 -41q22 -30 22 -71q0 -14 -3 -30l-7 -43q-3 -14 -8.5 -30t-24 -37.5t-44.5 -26.5q28 -10 38 -35t10 -39.5t-1 -21.5l-11 -70q-12 -76 -48.5 -103t-99.5 -27h-165q-38 0 -64 13
t-36 32.5t-13.5 37t-3.5 27.5t2 20l11 70q11 71 87 79zM167 128q-1 -8 -1 -20q0 -33 65 -33h145q63 0 71 53l11 65q1 8 1 14q0 45 -53 45h-156q-62 0 -72 -59zM207 372q0 -45 55 -45h156q27 0 43 9.5t21 21t7 28.5l7 45q3 16 3 31.5t-9.5 26.5t-45.5 11h-146q-24 0 -33.5 -1
t-22 -7t-18 -20.5t-9.5 -40.5l-7 -45q-1 -7 -1 -14z" />
    <glyph glyph-name="nine.smcp" horiz-adv-x="545" 
d="M449 245q-97 -12 -220 -12q-59 0 -87 31t-28 69q0 11 2 22l15 94q11 69 46.5 98t108.5 29h114q56 0 92 -34q21 -19 30 -52q15 -51 15 -104.5t-10 -110.5q-22 -154 -73 -215t-124 -61q-169 0 -250 15l10 63h252q31 0 56 33q38 52 51 135zM190 355q-1 -7 -1 -19
q0 -29 54 -29h215q7 49 7 86q0 105 -60 105h-131q-30 0 -47.5 -10.5t-22.5 -42.5z" />
    <glyph glyph-name="question.smcp" horiz-adv-x="431" 
d="M212 566l85 5q16 0 21 -2q81 0 114 -43q27 -35 27 -89q0 -13 -2 -27l-5 -41q-12 -75 -66 -113q-42 -28 -94 -28q-17 0 -35 3l-5 -31q-6 -32 -5 -34h-76l20 131q35 -1 62 -1t44 1q70 4 81 72l5 41q1 10 1 28t-13.5 37.5t-64.5 19.5h-207l9 58q95 14 102 14zM169 105h53
q22 0 22 -18q0 -3 -1 -7l-9 -57q-4 -23 -28 -23h-53q-24 0 -21 23l9 57q3 25 28 25z" />
    <glyph glyph-name="at.smcp" horiz-adv-x="869" 
d="M573 104q-61 -67 -155.5 -67t-135.5 59q-26 39 -26 117q0 45 10.5 113.5t35.5 124.5t56 83q58 51 122 51q162 0 227 -62l-59 -405q42 0 65 17t32 73l53 354q3 20 3 36q0 56 -36 65q-10 2 -23.5 2h-14.5h-382q-102 0 -119 -103l-81 -512q-3 -17 -3 -31q0 -83 88 -83h386
l-8 -47q-135 -27 -292 -27h-98q-77 0 -118 54q-32 40 -32 97q0 18 3 37l81 512q29 178 205 178h375q82 0 118 -46q25 -34 25 -89q0 -20 -3 -43l-53 -354q-12 -83 -49 -120q-17 -17 -48 -30.5t-72 -13.5h-54zM336 295q-6 -46 -6 -84.5t10 -60.5q18 -39 83 -39q40 0 74.5 12.5
t81.5 47.5l51 325q-60 16 -149 16q-118 0 -145 -217z" />
    <glyph glyph-name="a.smcp" horiz-adv-x="591" 
d="M35 0l323 570h74l124 -570h-76l-36 152h-240l-82 -152h-87zM246 226h185l-51 243z" />
    <glyph glyph-name="b.smcp" horiz-adv-x="546" 
d="M427 571q44 0 75 -14.5t44 -36.5q21 -37 21 -75q0 -14 -3 -27q-17 -110 -82 -127q28 -8 41 -41q8 -20 8 -43t-4 -45q-13 -78 -54 -120t-129 -42h-264l90 571h257zM356 75q33 0 62.5 20.5t34.5 66.5q1 11 1 32t-12 42.5t-57 21.5q-77 -1 -124.5 -1t-65.5 1l-29 -183h190z
M397 332q47 0 66 19t27 67q2 14 2 34q0 45 -69 45h-190l-26 -165h190z" />
    <glyph glyph-name="c.smcp" horiz-adv-x="520" 
d="M244.5 558q45.5 20 93.5 20t124 -8t111 -17l-9 -59q-12 2 -95 6t-130 4q-73 0 -110 -53t-53 -156q-9 -55 -9 -89t7 -67q15 -67 97 -69l227 10l-9 -57q-147 -27 -230 -27q-167 0 -167 204q0 51 9.5 111.5t25.5 105t44 83t73.5 58.5z" />
    <glyph glyph-name="d.smcp" horiz-adv-x="600" 
d="M561 500.5q19 -30.5 28 -71t9 -78t-7 -81.5q-41 -256 -221 -269q-11 -1 -43 -1h-247l91 572h247q51 -1 87.5 -21t55.5 -50.5zM339 74q146 0 178 209q6 39 6 83.5t-20 78.5q-31 53 -97 53h-173l-67 -424h173z" />
    <glyph glyph-name="e.smcp" horiz-adv-x="516" 
d="M264 498q-21 0 -27.5 -6.5t-9.5 -26.5l-23 -142l285 -8l-10 -61l-287 -7l-22 -143q-3 -20 4.5 -26t26.5 -6h281l-10 -60l-309 -14q-38 0 -55 20.5t-17 47.5q0 8 1 17l63 398q7 43 38.5 66.5t80.5 23.5l285 -12l-10 -61h-285z" />
    <glyph glyph-name="f.smcp" horiz-adv-x="517" 
d="M265 498q-27 0 -32 -14q-2 -6 -5 -19l-23 -145l284 -8l-9 -61l-287 -7l-39 -244h-74l76 481q7 43 38 66.5t80 23.5l286 -12l-10 -61h-285z" />
    <glyph glyph-name="g.smcp" horiz-adv-x="577" 
d="M359 579q33 0 114.5 -8.5t122.5 -16.5l-10 -62q-132 13 -239 13q-82 0 -117 -43t-56 -174q-5 -23 -5 -41t1 -41t8 -57.5t33 -58.5t73.5 -24t102.5 17.5t80 34.5l19 119h-178l8 49q95 25 189 25q30 0 66 -3l-49 -308h-56l-8 44q-87 -51 -192 -51q-49 0 -84.5 19t-52.5 52
q-36 69 -36 137q0 67 7 108q23 144 79 207t180 63z" />
    <glyph glyph-name="h.smcp" horiz-adv-x="598" 
d="M79 -1l90 571h74l-40 -258h311l40 258h74l-90 -571h-74l38 239h-311l-38 -239h-74z" />
    <glyph glyph-name="i.smcp" horiz-adv-x="214" 
d="M80 0l90 570h74l-90 -570h-74z" />
    <glyph glyph-name="j.smcp" horiz-adv-x="333" 
d="M134 67q72 0 91 98l64 405h74l-64 -405q-18 -116 -80 -148q-43 -21 -90 -21q-55 0 -91 25l13 54q48 -8 83 -8z" />
    <glyph glyph-name="k.smcp" horiz-adv-x="557" 
d="M79 -1l90 571h74l-40 -254h74l242 254h93l-271 -296l181 -275h-93l-161 243h-77l-38 -243h-74z" />
    <glyph glyph-name="l.smcp" horiz-adv-x="496" 
d="M204 74h270l-12 -74h-296q-40 0 -57 19.5t-17 46.5q0 9 2 20l76 484h74l-74 -469q-3 -18 5 -22.5t29 -4.5z" />
    <glyph glyph-name="m.smcp" horiz-adv-x="733" 
d="M55 0l145 571h91l97 -449l237 449h90l-36 -571h-72l29 441l-230 -441h-64l-100 442l-117 -442h-70z" />
    <glyph glyph-name="n.smcp" horiz-adv-x="603" 
d="M80 0l90 571h71l248 -444l71 444h73l-90 -571h-70l-247 448l-72 -448h-74z" />
    <glyph glyph-name="o.smcp" horiz-adv-x="607" 
d="M271.5 563q43.5 12 95.5 12t79.5 -2.5t55.5 -10t46 -20.5q43 -31 54 -86q6 -28 6 -48.5t-0.5 -43.5t-12.5 -96t-33.5 -130t-57 -89t-79 -43t-95.5 -11t-80 2.5t-55 10.5t-45 21q-61 42 -61 151q0 43 12 117t34 132t57.5 90t79 44zM164 179q0 -17 6 -39.5t16.5 -37
t31.5 -21.5q35 -12 78 -12t57 0.5t36.5 4.5t35.5 12t30.5 24t28.5 39q27 57 40 138q9 54 9 94.5t-6 56.5t-11 26.5t-18 18t-21.5 11t-28.5 4.5q-32 3 -50 3h-33t-28 -0.5t-35 -4.5t-34.5 -12t-29.5 -24q-26 -25 -50 -104.5t-24 -176.5z" />
    <glyph glyph-name="p.smcp" horiz-adv-x="525" 
d="M421 569q58 0 92.5 -35.5t34.5 -103.5q0 -64 -16.5 -105t-34.5 -59.5t-45 -28.5q-37 -14 -86 -14l-194 13l-37 -236h-75l90 569h271zM378 297q58 0 78 45q10 22 14.5 47t4.5 45t-17.5 40.5t-48.5 20.5h-196l-31 -198h196z" />
    <glyph glyph-name="q.smcp" horiz-adv-x="607" 
d="M271.5 563q43.5 12 95.5 12t79.5 -2.5t55.5 -10t46 -20.5q43 -31 54 -86q6 -28 6 -48.5t-0.5 -43.5t-12.5 -96t-33.5 -130t-57 -89t-79 -43t-95.5 -11t-80 2.5t-55 10.5t-45 21q-61 42 -61 151q0 43 12 117t34 132t57.5 90t79 44zM164 179q0 -17 6 -39.5t16.5 -37
t31.5 -21.5q35 -12 78 -12t57 0.5t36.5 4.5t35.5 12t30.5 24t28.5 39q27 57 40 138q9 54 9 94.5t-6 56.5t-11 26.5t-18 18t-21.5 11t-28.5 4.5q-32 3 -50 3h-33t-28 -0.5t-35 -4.5t-34.5 -12t-29.5 -24q-26 -25 -50 -104.5t-24 -176.5zM325 -33q73 -58 165 -20l-13 -80
q-33 -9 -55.5 -9h-31.5q-45 3 -81 32.5t-36 76.5h52z" />
    <glyph glyph-name="r.smcp" horiz-adv-x="533" 
d="M411 571q53 0 91.5 -36t38.5 -109q0 -90 -38.5 -139t-100.5 -54l99 -233h-80l-93 224q-26 2 -90.5 8.5t-65.5 7.5l-38 -240h-74l90 571h261zM369 298q55 0 79 48q21 43 21 81q0 25 -12.5 40.5t-24.5 20.5q-20 9 -31 9h-188l-32 -199h188z" />
    <glyph glyph-name="s.smcp" horiz-adv-x="538" 
d="M362 64q57 0 65 54l11 70q2 12 2 25t-7.5 21.5t-41.5 8.5h-160q-65 0 -92.5 26t-27.5 75q0 14 2 30l8 59q22 140 162 140q113 0 260 -20l-9 -57q-165 4 -263 4q-64 0 -74 -67l-10 -59q-2 -11 -2 -19q0 -31 23 -36q7 -2 34 -2h160q63 0 91 -35q21 -27 21 -67q0 -13 -2 -27
l-11 -70q-20 -128 -150 -128q-48 0 -149 7t-124 15l9 55q179 -3 275 -3z" />
    <glyph glyph-name="t.smcp" horiz-adv-x="516" 
d="M113 496l12 74h446l-12 -74h-186l-79 -496h-74l79 496h-186z" />
    <glyph glyph-name="u.smcp" horiz-adv-x="611" 
d="M195 260q-8 -38 -8 -56.5t1.5 -39t8 -41.5t26.5 -33q35 -21 111 -21t121 38.5t63 152.5l49 310h75l-49 -310q-26 -167 -101 -220q-38 -27 -75 -36t-76.5 -9t-61.5 1.5t-45.5 6t-41 13.5t-33.5 22q-29 24 -42 80q-5 22 -5 40q0 51 8 102l49 310h75z" />
    <glyph glyph-name="v.smcp" horiz-adv-x="596" 
d="M125 570h79l109 -458l253 458h85l-313 -570h-74z" />
    <glyph glyph-name="w.smcp" horiz-adv-x="851" 
d="M125 570h76l99 -461l241 461h80l-98 -194l63 -267l240 461h80l-296 -570h-74l-66 278l-143 -278h-76z" />
    <glyph glyph-name="x.smcp" horiz-adv-x="564" 
d="M35 0l244 288l-152 282h88l120 -216l183 216h101l-249 -287l149 -283h-85l-118 219l-184 -219h-97z" />
    <glyph glyph-name="y.smcp" horiz-adv-x="566" 
d="M125 570h78l120 -296l214 296h84l-270 -380l-30 -191h-74l30 191z" />
    <glyph glyph-name="z.smcp" horiz-adv-x="496" 
d="M35 0l12 74l395 422h-328l11 74h426l-11 -74l-391 -422h324l-12 -74h-426z" />
    <glyph glyph-name="grave.smcp" horiz-adv-x="254" 
d="M125 664h87l106 -133h-69z" />
    <glyph glyph-name="aogonek.smcp" horiz-adv-x="693" 
d="M406 -109q0 69 100 109h39q-74 -54 -74 -91q0 -30 49 -30h9l-10 -60q-12 -2 -22 -2q-43 0 -67 23.5t-24 50.5zM35 0l323 570h74l124 -570h-76l-36 152h-240l-82 -152h-87zM246 226h185l-51 243z" />
    <glyph glyph-name="rcommaaccent.smcp" horiz-adv-x="533" 
d="M253 -150q-10 0 -15.5 6t-3.5 16l7 49q4 24 27 24h46q18 0 18 -18q0 -3 -1 -6l-12 -81q-4 -24 -15 -40q-22 -31 -67 -31q-3 0 -15 2l5 29q12 -1 20 5q9 7 12 23l4 22h-10zM411 571q53 0 91.5 -36t38.5 -109q0 -90 -38.5 -139t-100.5 -54l99 -233h-80l-93 224
q-26 2 -90.5 8.5t-65.5 7.5l-38 -240h-74l90 571h261zM369 298q55 0 79 48q21 43 21 81q0 25 -12.5 40.5t-24.5 20.5q-20 9 -31 9h-188l-32 -199h188z" />
    <glyph glyph-name="itilde.smcp" horiz-adv-x="214" 
d="M234 717q30 -16 36.5 -16h15t45.5 14.5t45 19.5l15 -42q-9 -6 -30.5 -20.5t-32.5 -21.5q-62 -37 -121 -3q-28 17 -46 17t-33.5 -5t-37 -16t-27.5 -14l-15 41q30 22 46 33q46 31 82 31q28 -2 58 -18zM83 0l90 570h74l-90 -570h-74z" />
    <glyph glyph-name="lcommaaccent.smcp" horiz-adv-x="496" 
d="M222 -165q-10 0 -15.5 6t-3.5 17l7 48q4 24 27 24h46q18 0 18 -18q0 -3 -1 -6l-12 -81q-4 -24 -15 -40q-22 -31 -67 -31q-3 0 -15 2l5 29q12 -1 20 5q9 7 12 22l4 23h-10zM204 74h270l-12 -74h-296q-40 0 -57 19.5t-17 46.5q0 9 2 20l76 484h74l-74 -469q-3 -18 5 -22.5
t29 -4.5z" />
    <glyph glyph-name="dieresis.smcp" horiz-adv-x="456" 
d="M201 632q21 0 32 -13.5t11 -23.5q0 -32 -19 -48.5t-40 -16.5t-32.5 13.5t-11.5 23.5q0 32 19.5 48.5t40.5 16.5zM456 632q21 0 32 -13.5t11 -23.5q0 -32 -19 -48.5t-40 -16.5t-32.5 13.5t-11.5 23.5q0 32 19.5 48.5t40.5 16.5z" />
    <glyph glyph-name="scaron.smcp" horiz-adv-x="538" 
d="M247 763h65l57 -83l90 83h80l-138 -130h-71zM362 64q57 0 65 54l11 70q2 12 2 25t-7.5 21.5t-41.5 8.5h-160q-65 0 -92.5 26t-27.5 75q0 14 2 30l8 59q22 140 162 140q113 0 260 -20l-9 -57q-165 4 -263 4q-64 0 -74 -67l-10 -59q-2 -11 -2 -19q0 -31 23 -36q7 -2 34 -2
h160q63 0 91 -35q21 -27 21 -67q0 -13 -2 -27l-11 -70q-20 -128 -150 -128q-48 0 -149 7t-124 15l9 55q179 -3 275 -3z" />
    <glyph glyph-name="emacron.smcp" horiz-adv-x="516" 
d="M230 632l10 63h292l-10 -63h-292zM264 498q-21 0 -27.5 -6.5t-9.5 -26.5l-23 -142l285 -8l-10 -61l-287 -7l-22 -143q-3 -20 4.5 -26t26.5 -6h281l-10 -60l-309 -14q-38 0 -55 20.5t-17 47.5q0 8 1 17l63 398q7 43 38.5 66.5t80.5 23.5l285 -12l-10 -61h-285z" />
    <glyph glyph-name="gcommaaccent.smcp" horiz-adv-x="577" 
d="M359 579q33 0 114.5 -8.5t122.5 -16.5l-10 -62q-132 13 -239 13q-82 0 -117 -43t-56 -174q-5 -23 -5 -41t1 -41t8 -57.5t33 -58.5t73.5 -24t102.5 17.5t80 34.5l19 119h-178l8 49q95 25 189 25q30 0 66 -3l-49 -308h-56l-8 44q-87 -51 -192 -51q-49 0 -84.5 19t-52.5 52
q-36 69 -36 137q0 67 7 108q23 144 79 207t180 63zM284 -70h46q18 0 18 -18q0 -3 -1 -6l-12 -81q-4 -24 -15 -40q-22 -31 -67 -31q-3 0 -15 2l5 29q12 -1 20 5q9 7 12 22l4 23h-10q-10 0 -15.5 6t-3.5 17l7 48q4 24 27 24z" />
    <glyph glyph-name="tbar.smcp" horiz-adv-x="466" 
d="M98 498l12 74h426l-12 -74h-179l-23 -146h97l-8 -54h-97l-48 -298h-74l48 298h-100l8 54h100l23 146h-173z" />
    <glyph glyph-name="zcaron.smcp" horiz-adv-x="496" 
d="M222 760h65l57 -83l90 83h80l-138 -130h-71zM35 0l12 74l395 422h-328l11 74h426l-11 -74l-391 -422h324l-12 -74h-426z" />
    <glyph glyph-name="macron.smcp" horiz-adv-x="392" 
d="M133 530l10 63h292l-10 -63h-292z" />
    <glyph glyph-name="degree.smcp" horiz-adv-x="301" 
d="M241 570q42 0 64 -26.5t22 -58.5q0 -53 -38.5 -87t-80.5 -34t-64.5 26.5t-22.5 58.5q0 54 39 87.5t81 33.5zM169 452q0 -11 12 -25t34.5 -14t43 17.5t20.5 52.5q0 11 -12 24.5t-34.5 13.5t-43 -17.5t-20.5 -51.5z" />
    <glyph glyph-name="acute.smcp" horiz-adv-x="242" 
d="M104 531l128 133h95l-154 -133h-69z" />
    <glyph glyph-name="caron.smcp" horiz-adv-x="392" 
d="M159 691h60l61 -91l109 91h62l-143 -160h-71z" />
    <glyph glyph-name="eng.smcp" horiz-adv-x="599" 
d="M328 -213q-9 0 -19 1l11 62q99 0 129 101l8 50l-241 443l-73 -448h-73l91 574h71l244 -448l71 448h73l-100 -632q-14 -70 -69 -110.5t-123 -40.5z" />
    <glyph glyph-name="amacron.smcp" horiz-adv-x="591" 
d="M259 630l10 63h292l-10 -63h-292zM35 0l323 570h74l124 -570h-76l-36 152h-240l-82 -152h-87zM246 226h185l-51 243z" />
    <glyph glyph-name="aacute.smcp" horiz-adv-x="591" 
d="M370 630l128 133h95l-154 -133h-69zM35 0l323 570h74l124 -570h-76l-36 152h-240l-82 -152h-87zM246 226h185l-51 243z" />
    <glyph glyph-name="acircumflex.smcp" horiz-adv-x="591" 
d="M259 630l138 130h71l83 -130h-65l-57 83l-90 -83h-80zM35 0l323 570h74l124 -570h-76l-36 152h-240l-82 -152h-87zM246 226h185l-51 243z" />
    <glyph glyph-name="atilde.smcp" horiz-adv-x="591" 
d="M427.5 717q30.5 -16 36.5 -16h12t29 8q49 16 64 26l15 -42q-9 -6 -30 -21q-61 -41 -94 -41q-24 0 -42.5 9t-32.5 17t-29 8t-29.5 -4t-24 -8.5t-23.5 -11.5t-23 -11l-15 41q30 22 46 32q47 32 78.5 31t62 -17zM35 0l323 570h74l124 -570h-76l-36 152h-240l-82 -152h-87z
M246 226h185l-51 243z" />
    <glyph glyph-name="adieresis.smcp" horiz-adv-x="591" 
d="M255.5 716.5q17.5 14.5 38.5 14.5t31.5 -13t10.5 -23q0 -32 -18.5 -48.5t-36 -16.5t-28.5 7q-22 15 -18.5 40t21 39.5zM510.5 716.5q17.5 14.5 38.5 14.5t31.5 -13t10.5 -23q0 -32 -18.5 -48.5t-36 -16.5t-28.5 7q-22 15 -18.5 40t21 39.5zM35 0l323 570h74l124 -570h-76
l-36 152h-240l-82 -152h-87zM246 226h185l-51 243z" />
    <glyph glyph-name="aring.smcp" horiz-adv-x="591" 
d="M404 767q-35 0 -69.5 -32t-34.5 -81q0 -36 25.5 -64t67.5 -28t76.5 31.5t34.5 89.5q0 13 -10 33q-24 51 -90 51zM361 625q-14 15 -14 37t20 41q18 16 44.5 16t40.5 -28q6 -12 4 -31t-19 -34.5t-39.5 -15.5t-36.5 15zM35 0l323 570h74l124 -570h-76l-36 152h-240l-82 -152
h-87zM246 226h185l-51 243z" />
    <glyph glyph-name="ae.smcp" horiz-adv-x="739" 
d="M532 497q-21 0 -28 -7t-11 -25l-24 -147l247 -7l-9 -61l-250 -8l-22 -139q-3 -20 5 -25.5t28 -5.5l241 -1l-9 -60l-264 -13h-4q-41 0 -58.5 20t-17.5 48q0 7 1 15l12 82h-151l-105 -163h-90l310 482q35 53 82 70t126 18l245 -12l-9 -61h-245zM263 234h116l42 252z" />
    <glyph glyph-name="iogonek.smcp" horiz-adv-x="214" 
d="M-1 -109q0 69 101 109h39q-74 -54 -74 -91q0 -30 49 -30h9l-10 -60q-12 -1 -22 -1q-43 0 -67.5 23t-24.5 50zM80 0l90 570h74l-90 -570h-74z" />
    <glyph glyph-name="ccaron.smcp" horiz-adv-x="520" 
d="M264 768h65l57 -83l90 83h80l-138 -130h-71zM244.5 558q45.5 20 93.5 20t124 -8t111 -17l-9 -59q-12 2 -95 6t-130 4q-73 0 -110 -53t-53 -156q-9 -55 -9 -89t7 -67q15 -67 97 -69l227 10l-9 -57q-147 -27 -230 -27q-167 0 -167 204q0 51 9.5 111.5t25.5 105t44 83
t73.5 58.5z" />
    <glyph glyph-name="eacute.smcp" horiz-adv-x="516" 
d="M354 631l128 133h95l-154 -133h-69zM264 498q-21 0 -27.5 -6.5t-9.5 -26.5l-23 -142l285 -8l-10 -61l-287 -7l-22 -143q-3 -20 4.5 -26t26.5 -6h281l-10 -60l-309 -14q-38 0 -55 20.5t-17 47.5q0 8 1 17l63 398q7 43 38.5 66.5t80.5 23.5l285 -12l-10 -61h-285z" />
    <glyph glyph-name="eogonek.smcp" horiz-adv-x="516" 
d="M333 -96q0 69 100 109h39q-74 -54 -74 -91q0 -30 49 -30h9l-10 -60q-12 -2 -22 -2q-43 0 -67 23.5t-24 50.5zM264 498q-21 0 -27.5 -6.5t-9.5 -26.5l-23 -142l285 -8l-10 -61l-287 -7l-22 -143q-3 -20 4.5 -26t26.5 -6h281l-10 -60l-309 -14q-38 0 -55 20.5t-17 47.5
q0 8 1 17l63 398q7 43 38.5 66.5t80.5 23.5l285 -12l-10 -61h-285z" />
    <glyph glyph-name="edieresis.smcp" horiz-adv-x="516" 
d="M268 732q21 0 32 -13t11 -23q0 -32 -19 -48.5t-40 -16.5t-32.5 13.5t-11.5 23.5q0 32 19.5 48t40.5 16zM523 732q21 0 32 -13t11 -23q0 -32 -19 -48.5t-40 -16.5t-32.5 13.5t-11.5 23.5q0 32 19.5 48t40.5 16zM264 498q-21 0 -27.5 -6.5t-9.5 -26.5l-23 -142l285 -8
l-10 -61l-287 -7l-22 -143q-3 -20 4.5 -26t26.5 -6h281l-10 -60l-309 -14q-38 0 -55 20.5t-17 47.5q0 8 1 17l63 398q7 43 38.5 66.5t80.5 23.5l285 -12l-10 -61h-285z" />
    <glyph glyph-name="edotaccent.smcp" horiz-adv-x="516" 
d="M372 734h50q20 0 20 -18q0 -3 -1 -7l-9 -54q-3 -23 -26 -23h-50q-24 0 -21 23l9 54q3 25 28 25zM264 498q-21 0 -27.5 -6.5t-9.5 -26.5l-23 -142l285 -8l-10 -61l-287 -7l-22 -143q-3 -20 4.5 -26t26.5 -6h281l-10 -60l-309 -14q-38 0 -55 20.5t-17 47.5q0 8 1 17l63 398
q7 43 38.5 66.5t80.5 23.5l285 -12l-10 -61h-285z" />
    <glyph glyph-name="iacute.smcp" horiz-adv-x="214" 
d="M130 630l128 133h95l-154 -133h-69zM80 0l90 570h74l-90 -570h-74z" />
    <glyph glyph-name="icircumflex.smcp" horiz-adv-x="214" 
d="M65 630l138 130h71l83 -130h-65l-57 83l-90 -83h-80zM80 0l90 570h74l-90 -570h-74z" />
    <glyph glyph-name="imacron.smcp" horiz-adv-x="214" 
d="M64 630l10 63h292l-10 -63h-292zM80 0l90 570h74l-90 -570h-74z" />
    <glyph glyph-name="dcroat.smcp" horiz-adv-x="603" 
d="M555 501q19 -31 30 -68t11 -57q0 -49 -6 -103q-26 -161 -102 -223q-26 -20 -44.5 -29.5t-45.5 -14.5q-31 -6 -77 -6h-221l41 263h-80l9 54h80l40 255h220q51 -1 88.5 -20.5t56.5 -50.5zM338 74q146 0 178 209q6 39 6 83.5t-20 78.5q-30 53 -96 53h-153l-29 -181h88
l-7 -54h-90l-30 -189h153z" />
    <glyph glyph-name="ncommaaccent.smcp" horiz-adv-x="603" 
d="M267 -150q-10 0 -15.5 6t-3.5 16l7 49q4 24 27 24h46q18 0 18 -18q0 -3 -1 -6l-12 -81q-4 -24 -15 -40q-22 -31 -67 -31q-3 0 -15 2l5 29q19 -1 24 7q7 11 8 21l4 22h-10zM80 0l90 571h71l248 -444l71 444h73l-90 -571h-70l-247 448l-72 -448h-74z" />
    <glyph glyph-name="omacron.smcp" horiz-adv-x="607" 
d="M245 635l10 63h292l-10 -63h-292zM271.5 563q43.5 12 95.5 12t79.5 -2.5t55.5 -10t46 -20.5q43 -31 54 -86q6 -28 6 -48.5t-0.5 -43.5t-12.5 -96t-33.5 -130t-57 -89t-79 -43t-95.5 -11t-80 2.5t-55 10.5t-45 21q-61 42 -61 151q0 43 12 117t34 132t57.5 90t79 44z
M164 179q0 -17 6 -39.5t16.5 -37t31.5 -21.5q35 -12 78 -12t57 0.5t36.5 4.5t35.5 12t30.5 24t28.5 39q27 57 40 138q9 54 9 94.5t-6 56.5t-11 26.5t-18 18t-21.5 11t-28.5 4.5q-32 3 -50 3h-33t-28 -0.5t-35 -4.5t-34.5 -12t-29.5 -24q-26 -25 -50 -104.5t-24 -176.5z" />
    <glyph glyph-name="kcommaaccent.smcp" horiz-adv-x="557" 
d="M251 -150q-10 0 -15.5 6t-3.5 16l7 49q4 24 27 24h46q18 0 18 -18q0 -3 -1 -6l-12 -81q-4 -24 -15 -40q-22 -31 -67 -31q-3 0 -15 2l5 29q12 -1 20 5q9 7 12 23l4 22h-10zM79 -1l90 571h74l-40 -254h74l242 254h93l-271 -296l181 -275h-93l-161 243h-77l-38 -243h-74z
" />
    <glyph glyph-name="ocircumflex.smcp" horiz-adv-x="607" 
d="M245 635l138 130h71l83 -130h-65l-57 83l-90 -83h-80zM271.5 563q43.5 12 95.5 12t79.5 -2.5t55.5 -10t46 -20.5q43 -31 54 -86q6 -28 6 -48.5t-0.5 -43.5t-12.5 -96t-33.5 -130t-57 -89t-79 -43t-95.5 -11t-80 2.5t-55 10.5t-45 21q-61 42 -61 151q0 43 12 117t34 132
t57.5 90t79 44zM164 179q0 -17 6 -39.5t16.5 -37t31.5 -21.5q35 -12 78 -12t57 0.5t36.5 4.5t35.5 12t30.5 24t28.5 39q27 57 40 138q9 54 9 94.5t-6 56.5t-11 26.5t-18 18t-21.5 11t-28.5 4.5q-32 3 -50 3h-33t-28 -0.5t-35 -4.5t-34.5 -12t-29.5 -24q-26 -25 -50 -104.5
t-24 -176.5z" />
    <glyph glyph-name="otilde.smcp" horiz-adv-x="607" 
d="M413.5 722q30.5 -16 36.5 -16h14.5t45.5 14.5t45 19.5l15 -42q-9 -6 -30 -21q-61 -41 -94 -41q-31 0 -59 17t-44 17q-28 0 -46 -8.5t-32 -15.5t-23 -11l-15 41q30 22 46 32q47 32 78.5 31t62 -17zM271.5 563q43.5 12 95.5 12t79.5 -2.5t55.5 -10t46 -20.5q43 -31 54 -86
q6 -28 6 -48.5t-0.5 -43.5t-12.5 -96t-33.5 -130t-57 -89t-79 -43t-95.5 -11t-80 2.5t-55 10.5t-45 21q-61 42 -61 151q0 43 12 117t34 132t57.5 90t79 44zM164 179q0 -17 6 -39.5t16.5 -37t31.5 -21.5q35 -12 78 -12t57 0.5t36.5 4.5t35.5 12t30.5 24t28.5 39q27 57 40 138
q9 54 9 94.5t-6 56.5t-11 26.5t-18 18t-21.5 11t-28.5 4.5q-32 3 -50 3h-33t-28 -0.5t-35 -4.5t-34.5 -12t-29.5 -24q-26 -25 -50 -104.5t-24 -176.5z" />
    <glyph glyph-name="odieresis.smcp" horiz-adv-x="607" 
d="M241.5 721.5q17.5 14.5 38.5 14.5t31.5 -13t10.5 -23t-1 -19t-9.5 -20.5t-21 -18.5t-26.5 -7t-25 7q-22 15 -18.5 40t21 39.5zM496.5 721.5q17.5 14.5 38.5 14.5t31.5 -13t10.5 -23q0 -32 -18.5 -48.5t-36 -16.5t-28.5 7q-22 15 -18.5 40t21 39.5zM271.5 563
q43.5 12 95.5 12t79.5 -2.5t55.5 -10t46 -20.5q43 -31 54 -86q6 -28 6 -48.5t-0.5 -43.5t-12.5 -96t-33.5 -130t-57 -89t-79 -43t-95.5 -11t-80 2.5t-55 10.5t-45 21q-61 42 -61 151q0 43 12 117t34 132t57.5 90t79 44zM164 179q0 -17 6 -39.5t16.5 -37t31.5 -21.5
q35 -12 78 -12t57 0.5t36.5 4.5t35.5 12t30.5 24t28.5 39q27 57 40 138q9 54 9 94.5t-6 56.5t-11 26.5t-18 18t-21.5 11t-28.5 4.5q-32 3 -50 3h-33t-28 -0.5t-35 -4.5t-34.5 -12t-29.5 -24q-26 -25 -50 -104.5t-24 -176.5z" />
    <glyph glyph-name="oslash.smcp" horiz-adv-x="601" 
d="M128 78q-20 43 -20 96.5t12 125t34.5 129.5t58 90t79 44t124.5 12t125 -28l21 23l61 -1l-49 -55q28 -42 28 -123q0 -46 -12 -121t-33.5 -132t-57.5 -89t-79.5 -43t-110.5 -11q-108 0 -154 45l-35 -40h-61zM209.5 365q-10.5 -35 -18.5 -85t-8 -82.5t4 -52.5l304 345
q-20 11 -89 11h-18.5t-28 -0.5t-34.5 -4.5t-34 -11.5t-29 -23.5t-27.5 -38.5t-21 -57.5zM422 86q41 27 55 57q30 67 41 136.5t11 110.5t-8 64l-314 -356q25 -29 106.5 -29t108.5 17z" />
    <glyph glyph-name="uogonek.smcp" horiz-adv-x="565" 
d="M203 -111q0 69 100 109h39q-74 -54 -74 -91q0 -30 49 -30h9l-10 -60q-12 -2 -22 -2q-43 0 -67 23.5t-24 50.5zM195 260q-8 -38 -8 -56.5t1.5 -39t8 -41.5t26.5 -33q35 -21 111 -21t121 38.5t63 152.5l49 310h75l-49 -310q-26 -167 -101 -220q-38 -27 -75 -36t-76.5 -9
t-61.5 1.5t-45.5 6t-41 13.5t-33.5 22q-29 24 -42 80q-5 22 -5 40q0 51 8 102l49 310h75z" />
    <glyph glyph-name="uacute.smcp" horiz-adv-x="611" 
d="M381 630l128 133h95l-154 -133h-69zM195 260q-8 -38 -8 -56.5t1.5 -39t8 -41.5t26.5 -33q35 -21 111 -21t121 38.5t63 152.5l49 310h75l-49 -310q-26 -167 -101 -220q-38 -27 -75 -36t-76.5 -9t-61.5 1.5t-45.5 6t-41 13.5t-33.5 22q-29 24 -42 80q-5 22 -5 40
q0 51 8 102l49 310h75z" />
    <glyph glyph-name="ucircumflex.smcp" horiz-adv-x="611" 
d="M269 630l138 130h71l83 -130h-65l-57 83l-90 -83h-80zM195 260q-8 -38 -8 -56.5t1.5 -39t8 -41.5t26.5 -33q35 -21 111 -21t121 38.5t63 152.5l49 310h75l-49 -310q-26 -167 -101 -220q-38 -27 -75 -36t-76.5 -9t-61.5 1.5t-45.5 6t-41 13.5t-33.5 22q-29 24 -42 80
q-5 22 -5 40q0 51 8 102l49 310h75z" />
    <glyph glyph-name="udieresis.smcp" horiz-adv-x="611" 
d="M265.5 716.5q17.5 14.5 38.5 14.5t32 -13t11 -23t-1.5 -19t-10 -20.5t-21 -18.5t-26 -7t-24.5 7q-23 15 -19.5 40t21 39.5zM520.5 716.5q17.5 14.5 38.5 14.5t32 -13t11 -23q0 -32 -19 -48.5t-36 -16.5t-28 7q-23 15 -19.5 40t21 39.5zM195 260q-8 -38 -8 -56.5t1.5 -39
t8 -41.5t26.5 -33q35 -21 111 -21t121 38.5t63 152.5l49 310h75l-49 -310q-26 -167 -101 -220q-38 -27 -75 -36t-76.5 -9t-61.5 1.5t-45.5 6t-41 13.5t-33.5 22q-29 24 -42 80q-5 22 -5 40q0 51 8 102l49 310h75z" />
    <glyph glyph-name="utilde.smcp" horiz-adv-x="611" 
d="M437.5 717q30.5 -16 37 -16h14.5t45.5 14.5t45.5 19.5l15 -42q-10 -6 -31 -21q-60 -41 -94 -41q-30 0 -58 17t-44 17q-33 0 -64 -16t-37 -19l-15 41q30 22 46 32q46 32 77.5 31t62 -17zM195 260q-8 -38 -8 -56.5t1.5 -39t8 -41.5t26.5 -33q35 -21 111 -21t121 38.5
t63 152.5l49 310h75l-49 -310q-26 -167 -101 -220q-38 -27 -75 -36t-76.5 -9t-61.5 1.5t-45.5 6t-41 13.5t-33.5 22q-29 24 -42 80q-5 22 -5 40q0 51 8 102l49 310h75z" />
    <glyph glyph-name="umacron.smcp" horiz-adv-x="611" 
d="M269 630l10 63h292l-10 -63h-292zM195 260q-8 -38 -8 -56.5t1.5 -39t8 -41.5t26.5 -33q35 -21 111 -21t121 38.5t63 152.5l49 310h75l-49 -310q-26 -167 -101 -220q-38 -27 -75 -36t-76.5 -9t-61.5 1.5t-45.5 6t-41 13.5t-33.5 22q-29 24 -42 80q-5 22 -5 40q0 51 8 102
l49 310h75z" />
    <glyph glyph-name="germandbls.smcp" horiz-adv-x="988" 
d="M344 64q57 0 65 54l11 70q2 12 2 25t-7.5 21.5t-41.5 8.5h-160q-65 0 -92.5 26t-27.5 75q0 14 2 30l8 59q22 140 162 140q113 0 260 -20l-9 -57q-165 4 -263 4q-64 0 -74 -67l-10 -59q-2 -11 -2 -19q0 -31 23 -36q7 -2 34 -2h160q63 0 91 -35q21 -27 21 -67q0 -13 -2 -27
l-11 -70q-20 -128 -150 -128q-48 0 -149 7t-124 15l9 55q179 -3 275 -3zM823 64q57 0 65 54l11 70q2 12 2 25t-7.5 21.5t-41.5 8.5h-160q-65 0 -92.5 26t-27.5 75q0 14 2 30l8 59q22 140 162 140q113 0 260 -20l-9 -57q-165 4 -263 4q-64 0 -74 -67l-10 -59q-2 -11 -2 -19
q0 -31 23 -36q7 -2 34 -2h160q63 0 91 -35q21 -27 21 -67q0 -13 -2 -27l-11 -70q-20 -128 -150 -128q-48 0 -149 7t-124 15l9 55q179 -3 275 -3z" />
    <glyph glyph-name="agrave.smcp" horiz-adv-x="591" 
d="M246 763h87l106 -133h-69zM35 0l323 570h74l124 -570h-76l-36 152h-240l-82 -152h-87zM246 226h185l-51 243z" />
    <glyph glyph-name="ccedilla.smcp" horiz-adv-x="520" 
d="M205 -175h-51l6 37l55 15q35 14 46 84h67q-12 -78 -38 -107t-85 -29zM244.5 558q45.5 20 93.5 20t124 -8t111 -17l-9 -59q-12 2 -95 6t-130 4q-73 0 -110 -53t-53 -156q-9 -55 -9 -89t7 -67q15 -67 97 -69l227 10l-9 -57q-147 -27 -230 -27q-167 0 -167 204
q0 51 9.5 111.5t25.5 105t44 83t73.5 58.5z" />
    <glyph glyph-name="eth.smcp" horiz-adv-x="614" 
d="M514 501q19 -31 30 -68t11 -57q0 -49 -6 -103q-26 -161 -103 -223q-25 -20 -43.5 -29.5t-44.5 -14.5q-32 -6 -78 -6h-221l41 263h-80l9 54h80l40 255h220q51 -1 88.5 -20.5t56.5 -50.5zM297 74q146 0 178 209q6 39 6 83.5t-19 78.5q-31 53 -97 53h-153l-29 -181h88
l-7 -54h-90l-30 -189h153z" />
    <glyph glyph-name="egrave.smcp" horiz-adv-x="516" 
d="M226 764h87l106 -133h-69zM264 498q-21 0 -27.5 -6.5t-9.5 -26.5l-23 -142l285 -8l-10 -61l-287 -7l-22 -143q-3 -20 4.5 -26t26.5 -6h281l-10 -60l-309 -14q-38 0 -55 20.5t-17 47.5q0 8 1 17l63 398q7 43 38.5 66.5t80.5 23.5l285 -12l-10 -61h-285z" />
    <glyph glyph-name="ecircumflex.smcp" horiz-adv-x="516" 
d="M233 631l138 130h71l83 -130h-65l-57 83l-90 -83h-80zM264 498q-21 0 -27.5 -6.5t-9.5 -26.5l-23 -142l285 -8l-10 -61l-287 -7l-22 -143q-3 -20 4.5 -26t26.5 -6h281l-10 -60l-309 -14q-38 0 -55 20.5t-17 47.5q0 8 1 17l63 398q7 43 38.5 66.5t80.5 23.5l285 -12
l-10 -61h-285z" />
    <glyph glyph-name="igrave.smcp" horiz-adv-x="214" 
d="M6 763h87l106 -133h-69zM80 0l90 570h74l-90 -570h-74z" />
    <glyph glyph-name="idieresis.smcp" horiz-adv-x="214" 
d="M54 731q21 0 31.5 -13t10.5 -23q0 -32 -18.5 -48.5t-36.5 -16.5q-32 0 -43 25q-4 9 -4 15q0 29 19.5 45t40.5 16zM270.5 716.5q17.5 14.5 38.5 14.5t31.5 -13t10.5 -23t-1 -19t-9.5 -20.5t-21 -18.5t-26.5 -7t-25 7q-22 15 -18.5 40t21 39.5zM80 0l90 570h74l-90 -570
h-74z" />
    <glyph glyph-name="ntilde.smcp" horiz-adv-x="603" 
d="M434.5 718q30.5 -16 36.5 -16h14t45.5 14.5t45.5 19.5l15 -42q-9 -6 -31 -21q-60 -41 -93 -41q-31 0 -59 17t-44 17q-32 0 -83 -26q-10 -6 -18 -9l-15 41q30 22 46 32q47 32 78.5 31t62 -17zM80 0l90 571h71l248 -444l71 444h73l-90 -571h-70l-247 448l-72 -448h-74z" />
    <glyph glyph-name="ograve.smcp" horiz-adv-x="607" 
d="M232 768h87l106 -133h-69zM271.5 563q43.5 12 95.5 12t79.5 -2.5t55.5 -10t46 -20.5q43 -31 54 -86q6 -28 6 -48.5t-0.5 -43.5t-12.5 -96t-33.5 -130t-57 -89t-79 -43t-95.5 -11t-80 2.5t-55 10.5t-45 21q-61 42 -61 151q0 43 12 117t34 132t57.5 90t79 44zM164 179
q0 -17 6 -39.5t16.5 -37t31.5 -21.5q35 -12 78 -12t57 0.5t36.5 4.5t35.5 12t30.5 24t28.5 39q27 57 40 138q9 54 9 94.5t-6 56.5t-11 26.5t-18 18t-21.5 11t-28.5 4.5q-32 3 -50 3h-33t-28 -0.5t-35 -4.5t-34.5 -12t-29.5 -24q-26 -25 -50 -104.5t-24 -176.5z" />
    <glyph glyph-name="oacute.smcp" horiz-adv-x="607" 
d="M356 635l128 133h95l-154 -133h-69zM271.5 563q43.5 12 95.5 12t79.5 -2.5t55.5 -10t46 -20.5q43 -31 54 -86q6 -28 6 -48.5t-0.5 -43.5t-12.5 -96t-33.5 -130t-57 -89t-79 -43t-95.5 -11t-80 2.5t-55 10.5t-45 21q-61 42 -61 151q0 43 12 117t34 132t57.5 90t79 44z
M164 179q0 -17 6 -39.5t16.5 -37t31.5 -21.5q35 -12 78 -12t57 0.5t36.5 4.5t35.5 12t30.5 24t28.5 39q27 57 40 138q9 54 9 94.5t-6 56.5t-11 26.5t-18 18t-21.5 11t-28.5 4.5q-32 3 -50 3h-33t-28 -0.5t-35 -4.5t-34.5 -12t-29.5 -24q-26 -25 -50 -104.5t-24 -176.5z" />
    <glyph glyph-name="ugrave.smcp" horiz-adv-x="611" 
d="M257 763h87l106 -133h-69zM195 260q-8 -38 -8 -56.5t1.5 -39t8 -41.5t26.5 -33q35 -21 111 -21t121 38.5t63 152.5l49 310h75l-49 -310q-26 -167 -101 -220q-38 -27 -75 -36t-76.5 -9t-61.5 1.5t-45.5 6t-41 13.5t-33.5 22q-29 24 -42 80q-5 22 -5 40q0 51 8 102l49 310
h75z" />
    <glyph glyph-name="yacute.smcp" horiz-adv-x="566" 
d="M348 630l128 133h95l-154 -133h-69zM125 570h78l120 -296l214 296h84l-270 -380l-30 -191h-74l30 191z" />
    <glyph glyph-name="thorn.smcp" horiz-adv-x="514" 
d="M379 466q44 0 82 -29q39 -29 39 -109q0 -77 -22 -125.5t-50 -65.5q-46 -28 -103 -28q-101 0 -157 16l-20 -125h-73l90 569h73l-16 -103h157zM427 330q0 62 -60 62h-157l-32 -205h157q37 0 58 23t31 87q3 18 3 33z" />
    <glyph glyph-name="quotesinglbase.smcp" horiz-adv-x="253" 
d="M75 -63q31 0 37 35l4 27h-12q-24 0 -24 21q0 3 1 7l10 59q5 30 32 30h56q23 0 23 -20q0 -5 -1 -10l-16 -99q-5 -29 -19 -48.5t-30 -26.5q-27 -12 -41 -12h-17l-11 2l6 35h2z" />
    <glyph glyph-name="quotedblleft.smcp" horiz-adv-x="405" 
d="M195.5 558.5q16.5 6.5 30 9t19.5 2.5h9l11 -2l-6 -35h-2q-31 0 -37 -34l-5 -28h12q25 0 25 -21q0 -3 -1 -6l-10 -60q-5 -30 -32 -30h-57q-22 0 -22 21q0 4 1 9l15 99q5 29 19 49t30.5 26.5zM351 558.5q16 6.5 29.5 9t19.5 2.5h10l10 -2l-6 -35h-2q-31 0 -37 -34l-5 -28
h13q24 0 24 -20q0 -4 -1 -7l-10 -60q-4 -30 -32 -30h-56q-23 0 -23 21q0 4 1 9l16 99q5 29 19 49t30 26.5z" />
    <glyph glyph-name="quotedblright.smcp" horiz-adv-x="405" 
d="M139 391q31 0 37 34l5 28h-12q-25 0 -25 21q0 3 1 6l10 60q5 30 32 30h56q23 0 23 -21q0 -4 -1 -9l-15 -99q-5 -29 -19 -49t-31 -26q-29 -12 -42 -12h-16l-11 2l6 35h2zM294 391q31 0 37 34l5 28h-12q-24 0 -24 21v6l10 60q5 30 32 30h57q22 0 22 -21q0 -4 -1 -9l-15 -99
q-5 -29 -19 -49t-30 -26q-30 -12 -43 -12h-17l-10 2l6 35h2z" />
    <glyph glyph-name="quotedblbase.smcp" horiz-adv-x="404" 
d="M68 -62q31 0 37 34l5 28h-12q-24 0 -24 21v6l10 60q4 30 32 30h56q23 0 23 -21q0 -4 -1 -9l-15 -99q-5 -29 -19 -49t-30 -27q-30 -11 -43 -11t-17 1l-10 1l6 35h2zM223 -62q31 0 37 34l5 28h-12q-25 0 -25 21q0 3 1 6l10 60q5 30 32 30h57q22 0 22 -21q0 -4 -1 -9
l-15 -99q-5 -29 -19 -49t-31 -27q-29 -11 -42 -11t-16 1l-11 1l6 35h2z" />
    <glyph glyph-name="exclamdown.smcp" horiz-adv-x="266" 
d="M89 0l66 403h75l-52 -403h-89zM191 570h55q24 0 21 -23l-9 -57q-3 -25 -28 -25h-55q-20 0 -20 18q0 3 1 7l9 57q3 23 26 23z" />
    <glyph glyph-name="ordmasculine.smcp" horiz-adv-x="412" 
d="M76 130l9 58h307l-9 -58h-307zM410 541q25 -29 25 -87q0 -27 -5 -60q-16 -99 -54.5 -138.5t-130.5 -39.5t-126 42q-24 30 -24 84q0 24 5 52q17 106 55 146q39 42 129.5 42t125.5 -41zM158 351.5q0 -18.5 1.5 -30.5t9 -20.5t12.5 -12.5t19 -6q18 -4 45.5 -4t41 1.5
t32.5 11.5q35 18 49 103q6 38 6 57t-4 31.5t-9 20t-19 11.5q-21 6 -54.5 6t-49.5 -2.5t-33 -14.5t-26.5 -38t-15 -60.5t-5.5 -53z" />
    <glyph glyph-name="ordfeminine.smcp" horiz-adv-x="411" 
d="M81 133l9 58h324l-9 -58h-324zM97 221l172 352h83l63 -352h-61l-17 95h-127l-46 -95h-67zM238 374h89l-24 136z" />
    <glyph glyph-name="Euro.smcp" horiz-adv-x="515" 
d="M294.5 567.5q33.5 9.5 91 9.5t179.5 -23l-9 -62q-136 11 -184 11t-73 -10.5t-38.5 -23t-23.5 -35.5q-13 -28 -20 -67l185 -6l-8 -46l-186 -5l-9 -59l184 -5l-7 -47q-12 0 -31.5 -0.5t-60.5 -1.5q-97 -2 -95 -4q-4 -23 -4 -51.5t17 -45.5q27 -26 72 -26q82 0 186 10l34 4
l-10 -61q-103 -28 -208 -28q-61 0 -114 33q-30 18 -44 60q-7 25 -7 52t4 53l-68 6l7 47l70 5l9 59l-67 6l6 44l70 7q11 72 25.5 97.5t32.5 47t39.5 34t55 22z" />
    <glyph glyph-name="lcaron.smcp" horiz-adv-x="496" 
d="M204 74h270l-12 -74h-296q-40 0 -57 19.5t-17 46.5q0 9 2 20l76 484h74l-74 -469q-3 -18 5 -22.5t29 -4.5zM303 410l10 134l10 67h74l-10 -67l-31 -134h-53z" />
    <glyph glyph-name="sacute.smcp" horiz-adv-x="538" 
d="M318 633l128 133h95l-154 -133h-69zM362 64q57 0 65 54l11 70q2 12 2 25t-7.5 21.5t-41.5 8.5h-160q-65 0 -92.5 26t-27.5 75q0 14 2 30l8 59q22 140 162 140q113 0 260 -20l-9 -57q-165 4 -263 4q-64 0 -74 -67l-10 -59q-2 -11 -2 -19q0 -31 23 -36q7 -2 34 -2h160
q63 0 91 -35q21 -27 21 -67q0 -13 -2 -27l-11 -70q-20 -128 -150 -128q-48 0 -149 7t-124 15l9 55q179 -3 275 -3z" />
    <glyph glyph-name="scedilla.smcp" horiz-adv-x="538" 
d="M195 -171h-51l6 37l55 15q35 14 46 84h67q-12 -78 -38 -107t-85 -29zM362 64q57 0 65 54l11 70q2 12 2 25t-7.5 21.5t-41.5 8.5h-160q-65 0 -92.5 26t-27.5 75q0 14 2 30l8 59q22 140 162 140q113 0 260 -20l-9 -57q-165 4 -263 4q-64 0 -74 -67l-10 -59q-2 -11 -2 -19
q0 -31 23 -36q7 -2 34 -2h160q63 0 91 -35q21 -27 21 -67q0 -13 -2 -27l-11 -70q-20 -128 -150 -128q-48 0 -149 7t-124 15l9 55q179 -3 275 -3z" />
    <glyph glyph-name="tcaron.smcp" horiz-adv-x="609" 
d="M323 773h65l57 -83l90 83h80l-138 -130h-71zM197 496l12 74h446l-12 -74h-186l-79 -496h-74l79 496h-186z" />
    <glyph glyph-name="zacute.smcp" horiz-adv-x="496" 
d="M303 630l128 133h95l-154 -133h-69zM35 0l12 74l395 422h-328l11 74h426l-11 -74l-391 -422h324l-12 -74h-426z" />
    <glyph glyph-name="zdotaccent.smcp" horiz-adv-x="496" 
d="M340 732h50q22 0 19 -25l-9 -54q-3 -23 -26 -23h-50q-11 0 -17 6.5t-4 16.5l9 54q3 25 28 25zM35 0l12 74l395 422h-328l11 74h426l-11 -74l-391 -422h324l-12 -74h-426z" />
    <glyph glyph-name="racute.smcp" horiz-adv-x="533" 
d="M306 631l128 133h95l-154 -133h-69zM411 571q53 0 91.5 -36t38.5 -109q0 -90 -38.5 -139t-100.5 -54l99 -233h-80l-93 224q-26 2 -90.5 8.5t-65.5 7.5l-38 -240h-74l90 571h261zM369 298q55 0 79 48q21 43 21 81q0 25 -12.5 40.5t-24.5 20.5q-20 9 -31 9h-188l-32 -199
h188z" />
    <glyph glyph-name="abreve.smcp" horiz-adv-x="591" 
d="M345 744q-1 -6 -1 -20.5t15 -31t41 -16.5h3q67 0 77 68h46q-15 -114 -126 -114q-43 0 -72 29t-29 73v12h46zM35 0l323 570h74l124 -570h-76l-36 152h-240l-82 -152h-87zM246 226h185l-51 243z" />
    <glyph glyph-name="lacute.smcp" horiz-adv-x="496" 
d="M182 630l128 133h95l-154 -133h-69zM204 74h270l-12 -74h-296q-40 0 -57 19.5t-17 46.5q0 9 2 20l76 484h74l-74 -469q-3 -18 5 -22.5t29 -4.5z" />
    <glyph glyph-name="cacute.smcp" horiz-adv-x="520" 
d="M326 643l128 133h95l-154 -133h-69zM244.5 558q45.5 20 93.5 20t124 -8t111 -17l-9 -59q-12 2 -95 6t-130 4q-73 0 -110 -53t-53 -156q-9 -55 -9 -89t7 -67q15 -67 97 -69l227 10l-9 -57q-147 -27 -230 -27q-167 0 -167 204q0 51 9.5 111.5t25.5 105t44 83t73.5 58.5z
" />
    <glyph glyph-name="ecaron.smcp" horiz-adv-x="516" 
d="M262 761h65l57 -83l90 83h80l-138 -130h-71zM264 498q-21 0 -27.5 -6.5t-9.5 -26.5l-23 -142l285 -8l-10 -61l-287 -7l-22 -143q-3 -20 4.5 -26t26.5 -6h281l-10 -60l-309 -14q-38 0 -55 20.5t-17 47.5q0 8 1 17l63 398q7 43 38.5 66.5t80.5 23.5l285 -12l-10 -61h-285z
" />
    <glyph glyph-name="dcaron.smcp" horiz-adv-x="603" 
d="M324 762h65l57 -83l90 83h80l-138 -130h-71zM619 500.5q19 -30.5 28 -71t9 -78t-7 -81.5q-41 -256 -221 -269q-11 -1 -43 -1h-247l91 572h247q51 -1 87.5 -21t55.5 -50.5zM397 74q146 0 178 209q6 39 6 83.5t-20 78.5q-31 53 -97 53h-173l-67 -424h173z" />
    <glyph glyph-name="nacute.smcp" horiz-adv-x="603" 
d="M377 631l128 133h95l-154 -133h-69zM80 0l90 571h71l248 -444l71 444h73l-90 -571h-70l-247 448l-72 -448h-74z" />
    <glyph glyph-name="ncaron.smcp" horiz-adv-x="603" 
d="M286 761h65l57 -83l90 83h80l-138 -130h-71zM80 0l90 571h71l248 -444l71 444h73l-90 -571h-70l-247 448l-72 -448h-74z" />
    <glyph glyph-name="ohungarumlaut.smcp" horiz-adv-x="607" 
d="M289 635l128 133h95l-154 -133h-69zM424 635l128 133h95l-154 -133h-69zM271.5 563q43.5 12 95.5 12t79.5 -2.5t55.5 -10t46 -20.5q43 -31 54 -86q6 -28 6 -48.5t-0.5 -43.5t-12.5 -96t-33.5 -130t-57 -89t-79 -43t-95.5 -11t-80 2.5t-55 10.5t-45 21q-61 42 -61 151
q0 43 12 117t34 132t57.5 90t79 44zM164 179q0 -17 6 -39.5t16.5 -37t31.5 -21.5q35 -12 78 -12t57 0.5t36.5 4.5t35.5 12t30.5 24t28.5 39q27 57 40 138q9 54 9 94.5t-6 56.5t-11 26.5t-18 18t-21.5 11t-28.5 4.5q-32 3 -50 3h-33t-28 -0.5t-35 -4.5t-34.5 -12t-29.5 -24
q-26 -25 -50 -104.5t-24 -176.5z" />
    <glyph glyph-name="rcaron.smcp" horiz-adv-x="533" 
d="M225 761h65l57 -83l90 83h80l-138 -130h-71zM411 571q53 0 91.5 -36t38.5 -109q0 -90 -38.5 -139t-100.5 -54l99 -233h-80l-93 224q-26 2 -90.5 8.5t-65.5 7.5l-38 -240h-74l90 571h261zM369 298q55 0 79 48q21 43 21 81q0 25 -12.5 40.5t-24.5 20.5q-20 9 -31 9h-188
l-32 -199h188z" />
    <glyph glyph-name="uring.smcp" horiz-adv-x="611" 
d="M441 835q42 0 67 -28.5t25 -64.5q0 -49 -34 -80.5t-76 -31.5t-68 28t-26 64q0 49 35 81t77 32zM391 693q14 -15 32.5 -15t31.5 7q31 17 31 52q0 20 -13.5 35t-36 15t-40.5 -16q-19 -19 -19 -41t14 -37zM195 260q-8 -38 -8 -56.5t1.5 -39t8 -41.5t26.5 -33q35 -21 111 -21
t121 38.5t63 152.5l49 310h75l-49 -310q-26 -167 -101 -220q-38 -27 -75 -36t-76.5 -9t-61.5 1.5t-45.5 6t-41 13.5t-33.5 22q-29 24 -42 80q-5 22 -5 40q0 51 8 102l49 310h75z" />
    <glyph glyph-name="uhungarumlaut.smcp" horiz-adv-x="611" 
d="M313 630l128 133h95l-154 -133h-69zM448 630l128 133h95l-154 -133h-69zM195 260q-8 -38 -8 -56.5t1.5 -39t8 -41.5t26.5 -33q35 -21 111 -21t121 38.5t63 152.5l49 310h75l-49 -310q-26 -167 -101 -220q-38 -27 -75 -36t-76.5 -9t-61.5 1.5t-45.5 6t-41 13.5t-33.5 22
q-29 24 -42 80q-5 22 -5 40q0 51 8 102l49 310h75z" />
    <glyph glyph-name="tcommaaccent.smcp" horiz-adv-x="516" 
d="M170 -183h-51l6 37l55 15q35 14 46 84h67q-12 -78 -38 -107t-85 -29zM125 496l12 74h446l-12 -74h-186l-79 -496h-74l79 496h-186z" />
    <glyph glyph-name="lslash.smcp" horiz-adv-x="496" 
d="M204 74h270l-12 -74h-296q-40 0 -57 19.5t-17 46.5q0 9 2 20l30 193l-78 -29l10 62l78 29l36 229h74l-31 -200l119 46l-11 -62l-118 -44l-33 -209q-3 -18 5 -22.5t29 -4.5z" />
    <glyph glyph-name="questiondown.smcp" horiz-adv-x="459" 
d="M326 3l-85 -5q-16 0 -22 2q-81 0 -114 43q-27 35 -27 89q0 13 2 27l4 41q12 75 66 112q42 29 94 29q17 0 35 -3l6 32q6 31 5 33h76l-21 -131q-35 1 -62 1t-44 -1q-70 -4 -81 -72l-4 -41q-1 -11 -1 -29t13 -37t64 -19h207l-9 -58q-9 -1 -53.5 -7t-48.5 -6zM331 569h53
q20 0 20 -18v-5l-9 -57q-3 -25 -28 -25h-53q-22 0 -22 18q0 3 1 7l9 57q4 23 29 23z" />
    <glyph glyph-name="oe.smcp" horiz-adv-x="896" 
d="M256.5 563.5q43.5 11.5 113 11.5t115.5 -11.5t73 -44.5q29 52 97 52h8l285 -12l-10 -61h-285q-21 0 -27.5 -6.5t-9.5 -26.5l-22 -142l284 -8l-9 -61l-287 -7l-23 -143q-3 -20 4.5 -26t26.5 -6h281l-10 -60l-309 -14h-6q-51 0 -63 45q-56 -48 -183 -48q-118 0 -166 35
q-60 43 -60 153q0 43 12 117t34 131.5t57.5 89t79 43zM149 179q0 -17 6 -39.5t16.5 -37t30.5 -21.5q36 -12 79 -12t57 0.5t36.5 4.5t35.5 12t30.5 24t28.5 39q27 57 40 138q9 54 9 94.5t-6 56.5t-11 26.5t-18 18t-21.5 11t-27.5 4.5q-33 3 -51 3h-33t-28 -0.5t-35 -4.5
t-34.5 -12t-28.5 -24q-27 -25 -51 -104.5t-24 -176.5z" />
    <glyph glyph-name="ydieresis.smcp" horiz-adv-x="566" 
d="M233.5 716.5q17.5 14.5 38.5 14.5t31.5 -13t10.5 -23t-1 -19t-9.5 -20.5t-21 -18.5t-26.5 -7t-25 7q-22 15 -18.5 40t21 39.5zM488.5 716.5q17.5 14.5 38.5 14.5t31.5 -13t10.5 -23q0 -32 -18.5 -48.5t-36 -16.5t-28.5 7q-22 15 -18.5 40t21 39.5zM125 570h78l120 -296
l214 296h84l-270 -380l-30 -191h-74l30 191z" />
    <glyph glyph-name="sterling.smcp" horiz-adv-x="516" 
d="M393 571q47 0 135 -10l27 -3l-9 -59h-159q-127 0 -145 -110l-13 -77l223 -15l-8 -48h-225l-27 -176h286l-12 -73h-416l8 48l59 20l29 183h-56l6 41l60 16l13 83q29 180 224 180z" />
    <glyph glyph-name="yen.smcp" horiz-adv-x="518" 
d="M91 111l9 58h147l5 31h-147l9 58h135l-139 313h82l113 -244l190 244h93l-241 -313h145l-9 -58h-157l-5 -31h157l-9 -58h-157l-18 -111h-74l18 111h-147z" />
    <glyph glyph-name="perthousand.smcp" horiz-adv-x="1237" 
d="M249 594h56q66 0 91 -29q19 -21 19 -61q0 -16 -3 -35l-12 -83q-11 -71 -41.5 -98t-107.5 -27h-56q-58 0 -83.5 28t-25.5 70q0 13 2 27l12 83q11 68 40.5 96.5t108.5 28.5zM153 386q-2 -11 -2 -25.5t9.5 -24.5t45.5 -10h56q40 0 54 11.5t19 48.5l12 83q2 16 2 29.5
t-6.5 22t-47.5 8.5h-56q-42 0 -55 -12t-19 -48zM212 0l436 570h71l-436 -570h-71zM687 334h56q66 0 91 -29q19 -21 19 -61q0 -16 -3 -35l-12 -83q-10 -71 -41 -98t-108 -27h-56q-58 0 -83.5 28t-25.5 70q0 13 2 27l12 83q11 68 40.5 96.5t108.5 28.5zM591 126q-2 -12 -2 -26
t9 -24t45 -10h56q41 0 55 11.5t19 48.5l12 83q2 16 2 29.5t-6.5 22t-47.5 8.5h-56q-42 0 -55 -12t-19 -48zM1066 334h56q66 0 92 -29q18 -21 18 -61q0 -16 -3 -35l-12 -83q-11 -71 -41.5 -98t-107.5 -27h-56q-58 0 -83.5 28t-25.5 70q0 13 2 27l12 83q11 68 40.5 96.5
t108.5 28.5zM970 126q-2 -12 -2 -26t9 -24t45 -10h56q41 0 55 11.5t19 48.5l12 83q2 15 2 28.5t-7 22.5t-48 9h-56q-41 0 -54 -12t-19 -48z" />
    <glyph glyph-name="circumflex.smcp" horiz-adv-x="392" 
d="M134 531l138 130h71l83 -130h-69l-52 80l-87 -80h-84z" />
    <glyph glyph-name="tilde.smcp" horiz-adv-x="439" 
d="M368 605q40 0 100 40l15 -42q-3 -2 -24 -20.5t-32 -26.5q-37 -25 -65 -25t-59 17.5t-49 17.5t-33 -5.5t-34 -15t-32 -14.5l-15 41q8 6 30 23.5t32 24.5q32 20 60 20t57 -17.5t49 -17.5z" />
    <glyph glyph-name="ring.smcp" horiz-adv-x="301" 
d="M267 735q42 0 64 -26.5t22 -58.5q0 -53 -38.5 -87t-80.5 -34t-64.5 26.5t-22.5 58.5q0 54 39 87.5t81 33.5zM259 686q-23 0 -43.5 -18t-20.5 -51q0 -11 12 -25t34.5 -14t40.5 16q23 19 23 41.5t-11.5 36.5t-34.5 14z" />
    <glyph glyph-name="hbar.smcp" horiz-adv-x="598" 
d="M70 -1l64 400h-48l7 51h48l19 120h74l-19 -120h293l19 120h74l-19 -120h46l-7 -51h-46l-64 -400h-74l39 240h-293l-39 -240h-74zM194 313h293l14 86h-293z" />
    <glyph glyph-name="hcircumflex.smcp" horiz-adv-x="598" 
d="M262 630l138 130h71l83 -130h-65l-57 83l-90 -83h-80zM79 -1l90 571h74l-40 -258h311l40 258h74l-90 -571h-74l38 239h-311l-38 -239h-74z" />
    <glyph glyph-name="gbreve.smcp" horiz-adv-x="577" 
d="M329 753q-1 -6 -1 -20.5t15 -31t41 -16.5h3q67 0 77 68h46q-15 -114 -126 -114q-43 0 -72 29t-29 73v12h46zM359 579q33 0 114.5 -8.5t122.5 -16.5l-10 -62q-132 13 -239 13q-82 0 -117 -43t-56 -174q-5 -23 -5 -41t1 -41t8 -57.5t33 -58.5t73.5 -24t102.5 17.5t80 34.5
l19 119h-178l8 49q95 25 189 25q30 0 66 -3l-49 -308h-56l-8 44q-87 -51 -192 -51q-49 0 -84.5 19t-52.5 52q-36 69 -36 137q0 67 7 108q23 144 79 207t180 63z" />
    <glyph glyph-name="jcircumflex.smcp" horiz-adv-x="333" 
d="M179 630l138 130h71l83 -130h-65l-57 83l-90 -83h-80zM134 67q72 0 91 98l64 405h74l-64 -405q-18 -116 -80 -148q-43 -21 -90 -21q-55 0 -91 25l13 54q48 -8 83 -8z" />
    <glyph glyph-name="cdotaccent.smcp" horiz-adv-x="520" 
d="M378 745h50q22 0 19 -25l-9 -54q-3 -23 -26 -23h-50q-11 0 -17 6.5t-4 16.5l9 54q3 25 28 25zM244.5 558q45.5 20 93.5 20t124 -8t111 -17l-9 -59q-12 2 -95 6t-130 4q-73 0 -110 -53t-53 -156q-9 -55 -9 -89t7 -67q15 -67 97 -69l227 10l-9 -57q-147 -27 -230 -27
q-167 0 -167 204q0 51 9.5 111.5t25.5 105t44 83t73.5 58.5z" />
    <glyph glyph-name="ccircumflex.smcp" horiz-adv-x="520" 
d="M235 643l138 130h71l83 -130h-65l-57 83l-90 -83h-80zM244.5 558q45.5 20 93.5 20t124 -8t111 -17l-9 -59q-12 2 -95 6t-130 4q-73 0 -110 -53t-53 -156q-9 -55 -9 -89t7 -67q15 -67 97 -69l227 10l-9 -57q-147 -27 -230 -27q-167 0 -167 204q0 51 9.5 111.5t25.5 105
t44 83t73.5 58.5z" />
    </font>
</defs>
</svg>
