<?xml version="1.0" standalone="no"?>
<!DOCTYPE svg PUBLIC "-//W3C//DTD SVG 1.1//EN" "http://www.w3.org/Graphics/SVG/1.1/DTD/svg11.dtd" >
<svg xmlns="http://www.w3.org/2000/svg" xmlns:xlink="http://www.w3.org/1999/xlink" version="1.1">
<metadata></metadata>
<defs>
<font id="biergrten_condensedcondensed" horiz-adv-x="808" >
<font-face units-per-em="2048" ascent="1638" descent="-410" />
<missing-glyph horiz-adv-x="397" />
<glyph horiz-adv-x="0" />
<glyph unicode="&#xd;" horiz-adv-x="1024" />
<glyph unicode=" "  horiz-adv-x="397" />
<glyph unicode="&#x09;" horiz-adv-x="397" />
<glyph unicode="&#xa0;" horiz-adv-x="397" />
<glyph unicode="!" horiz-adv-x="497" d="M-2 1282q0 -82 78 -65q2 -20 6 -71.5t8 -109t7 -108.5t3 -72q0 -49 -12 -77.5t-25.5 -48t-25.5 -39t-12 -50.5q0 -4 1 -10l1 -6l168 -232q-35 -37 -68 -84t-33 -114q0 -37 13.5 -73t35 -63.5t48 -45t51.5 -17.5q49 0 84.5 49t35.5 117q0 23 -5 56.5t-14 67t-22.5 63.5 t-29.5 44l168 232q6 8 -4.5 30.5t-20.5 34.5q-6 8 -28.5 20.5t-30.5 12.5v592q0 25 -17.5 64.5t-42 76.5t-51 64.5t-45.5 27.5q-20 0 -57 -30.5t-74 -72.5t-63.5 -87t-26.5 -76z" />
<glyph unicode="&#x22;" horiz-adv-x="763" d="M0 1311l88 -197l96 -192l25 -33l4 -1t8 -1q2 0 5 1t5 1q12 2 32 23.5t38 47t32.5 51t18.5 38.5q0 2 1 14t1 29q0 16 1 34.5t1 32.5q0 119 -26.5 207t-98.5 162l-182 -51zM381 1313l88 -197l96 -192l25 -31l4 -2q4 -2 8 -2t6 2t6 2q10 2 30 22.5t38 46t32.5 52t18.5 39.5 l1 12q1 12 1 29q0 18 1 36.5t1 32.5q0 117 -25.5 206t-97.5 163l-182 -53z" />
<glyph unicode="#" horiz-adv-x="1163" d="M0 788l82 -53l133 -14l6 -154l-211 -55q-4 0 11.5 -7t44 -17.5t68.5 -19.5t87 -13l-6 -195q0 -27 17.5 -71t41 -87t49 -73.5t42.5 -30.5q20 0 56 35t70.5 82t61.5 98t27 84q0 94 -76 76q-4 14 -5 32.5t-3 40.5q39 -4 74.5 -6t70.5 -8v-166q0 -29 17.5 -72.5t42 -87 t50 -74t42.5 -30.5q20 0 56 35t70.5 82t60.5 98t26 86q0 94 -76 76q0 12 -3 28.5t-3 45.5q59 12 99 21t67 30q4 2 -2 5l-7 3l-163 27q-4 29 -5.5 57.5t-1.5 56.5q84 8 138.5 45t85.5 66q4 2 -3 5l-6 3l-221 37q2 47 14.5 74.5t25.5 49t23.5 42t10.5 53.5q0 4 -1 12l-1 7 q-29 70 -79 141.5t-116 138.5q-66 -82 -105.5 -132t-63 -81t-32 -46t-8.5 -28v-12t5 -22q4 -27 5 -31t9 -12q14 -10 29.5 -18.5t19.5 -8.5v-80l-119 21l-30 -5q6 25 16 41.5t20.5 30.5t17.5 31.5t7 46.5q0 6 -2 13l-2 7q-29 68 -80 139.5t-117 141.5q-66 -82 -105.5 -132 t-62 -81t-31 -47t-8.5 -29q0 -8 5.5 -34.5t5.5 -28.5q6 -10 28.5 -24.5t30.5 -14.5v-107zM481 690l160 -16v-92l-117 20l-37 -8q-2 29 -4 51.5t-2 44.5z" />
<glyph unicode="$" horiz-adv-x="659" d="M0 442q0 -6 1 -10l1 -4q2 -10 14.5 -36.5t27.5 -56.5t29.5 -56.5t20.5 -36.5q2 -4 10.5 -21.5t19.5 -36t24.5 -34t25.5 -15.5q4 0 6 1t6 1q10 6 24.5 11.5t37.5 13.5q8 -29 18 -58.5t20.5 -52t19.5 -37t18 -14.5q10 0 27.5 22.5t34.5 57.5t32.5 77t25.5 79q23 8 37.5 13 t24.5 9q14 8 34.5 19.5t40 26.5t33 33.5t13.5 43.5l2 160l-246 217l12 -31q14 -6 29 -6q16 0 51 11t70 29.5t61.5 43t26.5 51.5q0 2 -2 8l-2 6q-6 6 -19.5 33t-28 58.5t-27.5 60.5t-19 39q-4 0 -11.5 16.5t-16.5 34.5t-22.5 34.5t-27.5 16.5q-4 0 -6 -3t-7 -3q-4 -2 -13 -7 t-23 -9q-18 47 -40 93t-49 91q-61 -127 -89.5 -183.5t-36.5 -80.5q-51 -14 -72 -27q-16 -6 -37 -18t-37 -27.5t-27.5 -35t-11.5 -40.5v-131l250 -204l-27 -11q-10 8 -26 8q-14 0 -48 -11t-69 -29.5t-61.5 -42t-26.5 -50.5z" />
<glyph unicode="%" horiz-adv-x="872" d="M0 840q0 -16 22.5 -42t53 -50.5t61.5 -43t45 -18.5q4 0 8 1l3 1q2 0 11 9.5t19 20.5t19.5 21.5t11.5 12.5q23 14 36 23t25 20l-165 -539q-10 -27 -7.5 -74t14 -92t26 -79t30.5 -34q14 0 47 18.5t71 55.5t76.5 91.5t67.5 125.5q8 -20 30.5 -57t47.5 -73t48.5 -62.5 t37.5 -26.5q4 0 8 1l4 1q2 0 10.5 9.5t18.5 20.5t18.5 21.5t12.5 12.5q47 35 73.5 51t40 38.5t16.5 63.5t3 125v25q0 16 -1 35.5t-1 35.5v25q-4 27 -13.5 57.5t-23.5 58t-31.5 48t-38.5 27.5q-4 -2 -14 -9.5t-21.5 -15.5t-22.5 -14.5t-13 -6.5q-16 -10 -53.5 -19t-73.5 -24 q18 61 30.5 112.5t20.5 74.5q18 57 39.5 90t43 57.5t40 46t28.5 58.5v14v8q-4 72 -30.5 145.5t-71.5 145.5q-104 -98 -162.5 -152.5t-89.5 -85.5v21q-6 25 -15.5 55.5t-22.5 58t-30.5 49t-37.5 27.5q-4 -2 -14.5 -9t-23 -15t-23.5 -15.5t-13 -7.5q-12 -6 -42 -15 t-61.5 -18.5t-56.5 -17.5t-25 -12v-350q-20 0 -20 -29v-12zM193 895v287q10 -4 17 -20.5t7 -26.5v-261q-8 0 -16 5.5t-8 15.5zM651 258v287q10 -4 16.5 -19.5t6.5 -25.5v-262q-8 0 -15.5 5t-7.5 15z" />
<glyph unicode="&#x26;" horiz-adv-x="684" d="M0 352q0 -53 31.5 -116.5t81.5 -116.5l-4 -129q-4 -29 7 -76t28.5 -92t35 -79t29.5 -34q14 0 37.5 37t46 89t40 106.5t17.5 91.5q27 25 64 57.5t73.5 65t66.5 60.5t44 40q33 29 41 42t8 54q0 23 -7 43.5t-30 20.5q-35 0 -64.5 -17.5t-66.5 -17.5q-31 0 -80 19.5t-73 58.5 q0 4 1 6t1 4q41 12 91 32.5t94 41t72.5 38t24.5 21.5l-225 160l-74 -49v245q8 -16 15.5 -35.5t17.5 -37t24.5 -29.5t39.5 -12q16 0 50 10t67.5 30.5t59 48.5t25.5 64v19q-6 8 -14 34.5t-16.5 58.5t-16.5 61.5t-12 43.5q-4 2 -12.5 22.5t-19.5 44.5t-24.5 43t-27.5 19 q-4 0 -6 -1t-6 -1q-16 -8 -52 -25.5t-79 -37.5q10 25 16 46.5t6 55.5q0 6 -2 14l-2 9q-23 74 -54.5 151.5t-74.5 149.5q-43 -88 -70.5 -143.5t-43 -88t-20.5 -49t-5 -26.5q0 -4 1 -15.5t3 -23.5t3 -22l1 -11q4 -10 18.5 -26.5t18.5 -16.5v-100q-16 -10 -37 -25.5t-39 -36 t-30.5 -45t-12.5 -53.5v-670z" />
<glyph unicode="'" horiz-adv-x="382" d="M0 1311l88 -197l96 -192l25 -33l4 -1t8 -1q2 0 5 1t5 1q12 2 32 23.5t38 47t32.5 51t18.5 38.5q0 2 1 14t1 29q0 16 1 34.5t1 32.5q0 119 -26.5 207t-98.5 162l-182 -51z" />
<glyph unicode="(" horiz-adv-x="374" d="M0 317q0 -70 37 -147.5t89 -143t108.5 -108.5t97.5 -43q6 0 17 -1t23.5 2t23 11.5t12.5 26.5q-72 18 -109 112.5t-52.5 241t-14.5 330.5t4 381q0 41 8 78t20 69l41 152l-41 29l-121 114l-4 1t-8 1q-2 0 -7 -1l-5 -1l-76 -118q-16 -16 -26.5 -48t-16.5 -55v-883zM305 1278 l6 -4z" />
<glyph unicode=")" horiz-adv-x="376" d="M-76 -86q2 -18 11.5 -26.5t21.5 -11.5t24.5 -2t18.5 1q39 0 96.5 43t109.5 108.5t89 143.5t37 147v883q-6 23 -16.5 54.5t-26.5 48.5l-78 118l-4 1t-6 1q-4 0 -9 -1l-6 -1l-118 -114l-41 -29l41 -152q27 -70 26 -147q2 -197 3 -381t-13 -330.5t-50 -241t-110 -112.5z M20 1274l7 4z" />
<glyph unicode="*" horiz-adv-x="419" d="M2 1718q-4 0 4 -23.5t23.5 -60.5t38 -84t45.5 -96l-99 -289q-2 -4 13.5 6.5t41 30t58.5 46t66 55.5q18 -33 26 -35q27 -12 47.5 -23.5t38 -19.5t32.5 -11.5t32 0.5q2 0 2 5v6l-68 178q23 23 33 38t12 19q16 72 30.5 114t10.5 85q0 2 -4 2h-4l-139 -90z" />
<glyph unicode="+" horiz-adv-x="559" d="M2 627q-2 -4 16.5 -12.5t49 -19.5t70.5 -24.5t81 -25.5l84 -297q2 -6 7 15.5t13.5 60t16.5 89t18 101.5q27 -4 37 0q51 35 84 51.5t49 50.5q4 2 0 6l-4 5l-141 63q6 55 2 82q-27 68 -39 112t-39 66q-2 4 -4 0l-2 -4l-51 -196z" />
<glyph unicode="," horiz-adv-x="344" d="M0 -258q0 55 27.5 109.5t103.5 115.5q-35 29 -75 82t-46 131q16 86 60.5 130t109.5 50l76 -26q18 -33 29.5 -56.5t18.5 -47t9 -51t2 -66.5q0 -94 -29.5 -164t-75.5 -116t-102.5 -68.5t-107.5 -22.5z" />
<glyph unicode="-" horiz-adv-x="503" d="M2 713q-4 -4 19.5 -21.5t60.5 -41t81 -49.5t84 -45t69.5 -28.5t35.5 -1.5q47 53 76 86t45 86q4 2 0 8l-4 7l-242 205z" />
<glyph unicode="." horiz-adv-x="303" d="M0 193q0 63 31.5 108t66.5 82q88 -16 128 -67.5t40 -155.5q0 -66 -35.5 -114t-85.5 -48q-27 0 -52 17.5t-45.5 45t-34 62.5t-13.5 70z" />
<glyph unicode="/" horiz-adv-x="604" d="M-17 182q-3 47 7 74l221 702q-10 0 -25.5 15.5t-19.5 25.5v13q0 10 1 21t3 21.5t4 14.5q6 10 19.5 25.5t46 47.5t90 86t149.5 140q90 -145 103 -291v-8q0 -12 -2 -14q-10 -37 -27.5 -58.5t-39 -46t-43 -57.5t-40.5 -90q-8 -25 -24.5 -85.5t-34 -129t-32.5 -130t-20 -85.5 q43 14 54.5 -8.5t-2.5 -71.5q-12 -35 -55.5 -88t-93.5 -104.5t-98 -87.5t-69 -36q-16 0 -31.5 34t-26.5 79t-14 92z" />
<glyph unicode="0" d="M2 307q0 -35 45 -87t106.5 -101t122 -85t91.5 -36q6 0 14 1l8 1q4 2 21.5 20.5t38 41t38 42t21.5 23.5q66 47 111 75.5t74.5 52.5t46 50.5t24.5 72.5t9 119.5t1 188.5v47q0 35 -1 72t-1 72v49q-10 55 -29.5 115.5t-46 114.5t-62.5 96t-79 59q-6 -6 -26.5 -21.5t-44 -31 t-44 -28.5t-26.5 -16q-25 -14 -87.5 -32.5t-126 -37t-112.5 -34.5t-49 -25v-702q-23 0 -30 -15.5t-7 -37.5v-23zM389 416v575q14 -14 30.5 -45t16.5 -51v-518q-16 0 -31.5 9t-15.5 30z" />
<glyph unicode="1" horiz-adv-x="497" d="M14 1034q0 -8 5.5 -34.5t7.5 -28.5q2 -6 10 -12.5t17 -12.5t18.5 -10t13.5 -4v-672q0 -27 17.5 -71t42 -87t51 -73.5t45.5 -30.5q20 0 57 35t74 82t63.5 98t26.5 84q0 94 -78 76q-4 23 -8 81t-7 124.5t-6.5 125t-3.5 80.5q0 55 12.5 87t26 53.5t25.5 42t12 55.5 q0 6 -2 13l-2 7q-29 68 -81 139.5t-122 141.5q-68 -82 -109.5 -133t-65 -82t-32 -46t-8.5 -28z" />
<glyph unicode="2" horiz-adv-x="653" d="M0 936q0 -37 25.5 -68.5t59.5 -56.5t67.5 -39t50.5 -14q23 0 41 24.5t31.5 57t23.5 65.5t16 51l31 -63l-344 -373l8 -270q0 -25 12.5 -50.5t31 -47t38 -39t33.5 -25.5q18 -10 61 -22.5t92.5 -24.5t92.5 -25.5t61 -23.5q4 0 6 -1t6 -1q14 0 27.5 19.5t24 44t18.5 46 t10 25.5q6 12 20.5 48t29 77t25.5 75.5t15 47.5l1 6t1 12q0 33 -26.5 64.5t-60 56.5t-67.5 40t-48 15q-18 0 -31 -14l225 285v178q0 27 -11 51.5t-27.5 43.5t-36 34.5t-38 26t-63.5 33l-94 47t-93 48t-63 35.5q-4 0 -7 2t-7 2q-12 0 -24.5 -20.5t-22.5 -45t-17.5 -46 t-9.5 -23.5q-4 -12 -17.5 -50t-27.5 -80t-27.5 -76.5t-19.5 -41.5l-1 -9q-1 -9 -1 -11zM227 342l125 172q-8 -18 -14 -49t-12.5 -62.5t-11.5 -57.5t-11 -34z" />
<glyph unicode="3" horiz-adv-x="684" d="M0 352q0 -41 9 -54t40 -42q14 -16 56 -53t88.5 -78t87.5 -77t57 -48q2 0 9 -1t13 -1q33 0 82.5 36t94.5 89t77.5 114.5t32.5 114.5v670q0 29 -13 53.5t-31.5 45t-39 35.5t-35.5 26q-20 8 -67 30.5t-99.5 48t-100.5 48t-68 32.5l-5 1q-4 1 -6 1q-16 0 -29.5 -19t-23.5 -43 t-18.5 -44t-12.5 -23q-6 -12 -14 -41.5t-15.5 -61.5t-15.5 -59.5t-14 -35.5l-1 -6q-1 -6 -1 -13q0 -37 25.5 -64.5t59.5 -48t67.5 -30.5t50.5 -10q25 0 40 12t25 29.5t17.5 37t15.5 35.5v-245l-74 49l-227 -160q-4 -4 25.5 -20.5t73.5 -38t95.5 -43t94.5 -33.5 q-10 -23 -31 -39t-43.5 -26.5t-45 -15.5t-38.5 -5q-37 0 -66.5 17.5t-62.5 17.5q-23 0 -31 -20.5t-8 -43.5z" />
<glyph unicode="4" horiz-adv-x="688" d="M2 575q0 -14 47 -51t105.5 -75.5t107.5 -72.5t53 -42q2 -10 10.5 -47t16.5 -79t14 -77t9 -41q8 -29 10 -46t5 -26.5t9 -13.5t23 -4q25 0 44 28.5t32.5 73.5t21.5 101.5t13 110t7.5 99t4.5 70.5q4 0 12 2t12 2q20 0 31.5 -18t27.5 -18q25 0 33 18t8 43v33q0 51 -16 93 t-35.5 81t-36 81t-16.5 97q0 49 14.5 96t28.5 85t21.5 64.5t-9.5 35.5l-170 102q-49 -23 -87 -51.5t-60 -85.5q-2 0 -24.5 19.5t-52.5 42t-59.5 42t-43.5 19.5q-16 0 -36 -24.5t-36 -56.5t-27.5 -61.5t-11.5 -40.5v-508zM246 662v331l22 31l25 -31v-270z" />
<glyph unicode="5" horiz-adv-x="688" d="M0 1081q2 -51 6 -73.5t6 -40t4 -43t2 -80.5q4 -104 -1 -182t-5 -138q0 -14 8.5 -24.5t30.5 -10.5q4 0 8 -1t9 1q31 -25 88 -18q47 8 93 1t66 5q14 -10 24.5 -18t10.5 -21v-237q-8 10 -18 27.5t-24.5 35t-34 29.5t-44.5 12q-16 0 -52 -8t-72.5 -20.5t-64.5 -30t-28 -35.5 q0 -2 1 -6l1 -4q4 -4 18.5 -23.5t30 -41t29.5 -41t19 -25.5q2 -4 11 -15.5t20.5 -24t24.5 -22.5t28 -10h4l6 2q18 6 66 18.5t101.5 25.5t100.5 24.5t68 15.5q14 4 34.5 12t39 18.5t31.5 24t13 29.5v356q0 27 -31.5 59.5t-77.5 61.5t-95 48.5t-84 19.5q-4 0 -11.5 -1t-9.5 -1 q-12 -6 -37.5 -17.5t-58.5 -27.5q-10 16 -4 24l4 289l297 -92q0 2 10 13t17 20l45 34q-4 2 -9.5 8.5t11.5 6.5q0 8 -1 12l-1 4q-12 51 -46 104.5t-72 100.5t-72 84t-48 57h-6q2 4 3 7t1 10q-31 0 -80 -22.5t-103.5 -59.5t-107.5 -85t-92 -100z" />
<glyph unicode="6" horiz-adv-x="708" d="M0 346v576q0 63 30.5 135.5t78 135t102.5 104.5t102 42q16 0 50 -22.5t73 -57t81 -77.5t77 -84t56.5 -76t21.5 -51q0 -29 -12.5 -40t-34.5 -11q-43 0 -73 18t-73 18q-23 0 -51.5 -10t-55 -28.5t-45 -46t-18.5 -60.5q0 -47 24.5 -79t62.5 -57.5t82 -48t82 -50t62.5 -64.5 t24.5 -90v-43l-168 -352q-2 -2 -19.5 -13.5t-27.5 -17.5h-14q-23 0 -62 15.5t-86 42t-95 61.5t-87 73.5t-63.5 79.5t-24.5 78zM287 379q2 4 8 18.5t13 29.5t14.5 29.5t11.5 18.5q6 12 15 37t9 27q0 8 -11 20t-25.5 21.5t-24.5 15.5l-10 6v-223z" />
<glyph unicode="7" horiz-adv-x="696" d="M0 969q0 8 1 12l1 4q10 51 43 104.5t72 100.5t73.5 85t49.5 56h6q-4 4 -4 17q31 0 80 -22.5t103 -59.5t107.5 -85t92.5 -100q-8 -104 -13.5 -198.5t-5.5 -206.5v-357q4 -6 11.5 -19t14.5 -29.5t13 -32t10 -21.5l1 -6t1 -10q-39 -35 -69.5 -85t-57 -90t-51 -55.5 t-49.5 21.5l-108 192q0 2 -1.5 13.5t-1.5 19.5q0 29 9.5 50.5t42.5 15.5v696l-297 -92q0 2 -10.5 13.5t-16.5 19.5l-45 34q4 2 9 8.5t-11 6.5z" />
<glyph unicode="8" horiz-adv-x="653" d="M0 391q0 -6 1 -12l1 -6q0 -10 12.5 -46t27.5 -77t28.5 -77t19.5 -48q2 -4 10.5 -25.5t19.5 -46t23.5 -44t24.5 -19.5q4 0 7 1t7 1q18 10 62.5 23.5t92.5 25.5t91 24.5t61 22.5q14 10 34 26.5t38.5 37t30.5 45t12 53.5l10 270l-133 166q23 12 46.5 41t44 64.5t32.5 74.5 t12 70q0 2 -1 11l-1 9q-6 6 -19 41t-27.5 77t-28 80t-17.5 50q-4 2 -11 23.5t-17.5 46t-22.5 45t-27 20.5q-4 0 -6 -2t-6 -2q-18 -12 -62 -35.5t-93.5 -48t-94.5 -47t-63 -33.5q-16 -10 -36 -25.5t-36 -34.5t-27.5 -44t-11.5 -51v-178l170 -232q-16 12 -28 12 q-16 0 -41 -23.5t-49.5 -57t-42 -73.5t-17.5 -73zM242 862l55 94q10 -23 21.5 -81t29.5 -111zM311 311q-6 8 2.5 43t12.5 72l63 -84z" />
<glyph unicode="9" horiz-adv-x="708" d="M-2 367q0 29 12.5 40t34.5 11q23 0 40 -6t33.5 -12.5t34 -12.5t40.5 -6q20 0 48.5 10t55.5 28.5t45 45.5t18 61q0 45 -25.5 78t-62 58.5t-82 48t-82 50t-62.5 63.5t-26 89q0 10 2.5 26.5t2.5 18.5l168 353q0 2 18 12t29 18h12q33 0 102.5 -33.5t140 -85t124 -113.5 t53.5 -118v-575q0 -63 -32 -136t-79 -135.5t-102.5 -104.5t-100.5 -42q-18 0 -52 22.5t-73.5 57.5t-81.5 78t-76 84t-55.5 74.5t-21.5 52.5zM311 799q0 -10 11.5 -21.5t25.5 -20.5t24 -15l11 -7v223q-2 -4 -9 -17t-15.5 -28.5t-15.5 -30t-9 -20.5q-4 -12 -13.5 -36.5 t-9.5 -26.5z" />
<glyph unicode=":" horiz-adv-x="303" d="M0 193q0 63 31.5 108t66.5 82q88 -16 128 -67.5t40 -155.5q0 -66 -35.5 -114t-85.5 -48q-27 0 -52 17.5t-45.5 45t-34 62.5t-13.5 70zM0 956q0 63 31.5 108.5t66.5 82.5q88 -16 128 -67.5t40 -155.5q0 -66 -35.5 -114t-85.5 -48q-27 0 -52 17.5t-45.5 45t-34 62.5 t-13.5 69z" />
<glyph unicode=";" horiz-adv-x="344" d="M0 -258q0 55 27.5 109.5t103.5 115.5q-35 29 -75 82t-46 131q16 86 60.5 130t109.5 50l76 -26q18 -33 29.5 -56.5t18.5 -47t9 -51t2 -66.5q0 -94 -29.5 -164t-75.5 -116t-102.5 -68.5t-107.5 -22.5zM0 956q0 63 31.5 108.5t66.5 82.5q88 -16 128 -67.5t40 -155.5 q0 -66 -35.5 -114t-85.5 -48q-27 0 -52 17.5t-45.5 45t-34 62.5t-13.5 69z" />
<glyph unicode="&#x3c;" horiz-adv-x="458" d="M2 688q-4 -10 13.5 -55t48 -106.5t67.5 -130t69.5 -125t56.5 -91.5t28 -30l147 276l-215 246q8 10 35 44t56.5 73.5t58 78.5t41.5 58q6 8 0.5 34.5t-17.5 61.5t-28.5 73t-31 67.5t-26.5 48t-14 14.5z" />
<glyph unicode="=" horiz-adv-x="681" d="M2 627q-4 -2 21.5 -13.5t66.5 -26t91 -29.5t95.5 -26.5t79 -17.5t39.5 0q51 35 84 51.5t49 50.5q4 2 0 6l-4 5l-272 123zM125 911q-4 -2 21.5 -12t66.5 -25.5t91 -31t95 -26.5t78 -17t41 0q25 18 46.5 30.5t37.5 22.5t28.5 21.5t22.5 27.5q0 4 -3 7l-3 3l-270 123z" />
<glyph unicode="&#x3e;" horiz-adv-x="458" d="M0 426l213 246q-10 10 -35.5 44t-55.5 73.5t-57.5 78.5t-39.5 58q-10 12 5 63t37.5 105.5t45 95.5t26.5 35l291 -537q4 -10 -13.5 -55t-48 -106.5t-67.5 -130t-69.5 -125t-56 -91.5t-28.5 -30z" />
<glyph unicode="?" horiz-adv-x="634" d="M0 1122q0 -35 25.5 -67.5t59.5 -57t67.5 -39t50.5 -14.5q18 0 30 14l-231 -249l133 -217l150 176q-4 0 20.5 21.5t58 52t66.5 61.5t47 49l131 172v178q0 27 -11 51.5t-27.5 44t-36 36t-38 26.5t-62.5 31.5t-94 46t-94 48t-63 36.5q-4 0 -7 2t-7 2q-12 0 -24.5 -20.5 t-22.5 -45t-17.5 -46t-9.5 -23.5q-4 -12 -17.5 -50t-27.5 -79t-27.5 -76t-19.5 -43l-1 -9q-1 -8 -1 -12zM10 193q0 -35 13.5 -70t34 -62.5t47 -45t51.5 -17.5q49 0 84.5 48t35.5 114q0 104 -38.5 155.5t-128.5 67.5q-35 -37 -67 -82t-32 -108zM242 969q12 16 24.5 39.5 t21.5 48t16 47.5t11 39l31 -64z" />
<glyph unicode="@" horiz-adv-x="743" d="M0 270q14 -47 60 -90t101.5 -74.5t111 -46t85.5 -2.5q6 2 14 9l7 6q12 14 50 46t79 69.5t78 72.5t49 55q10 18 17 31.5t10.5 24t1.5 23t-9 28.5q-4 23 -14 37t-33 8q-35 -16 -59.5 -43t-61.5 -43q-20 -6 -54 5t-68.5 33.5t-62.5 52.5t-36 58l53 463q12 -14 42 -32.5 t69 -38.5q-25 -43 -37 -88.5t2 -92.5q6 -35 30 -61.5t54.5 -44t64.5 -23.5t60 4q53 25 84 85.5t12 129.5q-16 61 -13 101.5t11.5 72t13.5 62.5t-3 76q-4 6 -7 10l-2 4q-8 10 -37.5 31.5t-64.5 46.5t-66.5 48.5t-39.5 35.5q-4 0 3 9t14 19.5t9 19.5t-12 9l-125 29q-2 0 -4 -3 t-6 -3q-16 -14 -57.5 -52t-87.5 -81t-87 -82t-57 -54q-12 -14 -28.5 -36.5t-31 -48t-21.5 -54t1 -53.5z" />
<glyph unicode="A" horiz-adv-x="776" d="M0 518v166v41q0 37 1 67.5t1 67.5v41q6 88 40 145.5t82 96.5t101.5 68.5t100.5 64.5q27 20 43 37.5t45 17.5q23 0 41 -16.5t35.5 -40t36 -49t42.5 -43.5q14 -14 39 -26.5t47.5 -28t40 -37t17.5 -56.5q0 -23 -7.5 -34t-17.5 -18t-21.5 -15.5t-19.5 -20.5q-10 -68 -10 -119 v-114v-82v-33v-90v-16q0 -6 1 -26t5 -42.5t10 -39.5t19 -17q12 0 18 8t19 8q2 0 8 -8t12 -20.5t10 -25t4 -20.5q0 -14 -1 -20t-4 -11.5t-10 -9.5t-17 -14q-10 -16 -33 -45t-47.5 -59.5t-48 -59.5t-31.5 -43h-19q-29 0 -55 34t-47.5 76t-39 75.5t-25.5 33.5q-16 0 -39 -33.5 t-47.5 -75.5t-51 -76t-51.5 -34q-23 0 -38 17.5t-32 37.5q-66 90 -86 191.5t-20 224.5zM295 590q0 -49 2 -101.5t6 -111.5q0 -10 8 -17h4h7l21 35t15 39v512l-16 21q-8 10 -16.5 27.5t-14.5 21.5h-6h-2l-8 -58v-16v-96v-39v-217z" />
<glyph unicode="B" horiz-adv-x="729" d="M0 1438q2 -14 14.5 -52t24.5 -82t22.5 -86t10.5 -67v-768q-4 -4 -11.5 -12.5t-14.5 -17.5t-13 -18t-8 -16l-3 -6q-2 -6 -2 -10t2 -10l3 -6q14 -29 57 -79t91 -98.5t88 -82t50 -27.5l336 223l9 23q10 24 16 41q2 12 8 36.5t10 41t4 18.5v479q0 25 -18.5 69t-44 86 t-52 72.5t-42.5 30.5q-20 0 -43 -15t-46.5 -36.5t-46 -43t-43.5 -34.5v29v86v27q0 78 11.5 126t28 74.5t35 37.5t34.5 18.5t27.5 16.5t11.5 30q0 29 -5 49t-22 49q-39 -8 -76.5 -14.5t-73.5 -15.5t-70 -24.5t-66 -41.5l-74 -64l-4 -1q-4 -1 -9 -1q-4 0 -8 1l-4 1 q-4 4 -14 17.5t-21.5 29t-21.5 29.5t-12 20zM358 383v416q0 20 17.5 29.5t32.5 9.5v-519z" />
<glyph unicode="C" horiz-adv-x="684" d="M0 352q0 -53 33 -114.5t79 -114.5t94 -89t81 -36q6 0 14 1t10 1q16 12 57.5 48t87.5 78t86 79t56 51q33 29 41 42t8 54q0 23 -7 43.5t-30 20.5q-35 0 -64.5 -17.5t-66.5 -17.5q-18 0 -47 8t-55.5 24.5t-46 41t-19.5 57.5v446q8 -16 18.5 -47.5t25 -64.5t34 -57.5 t43.5 -24.5q16 0 52 14.5t72 39t63.5 56t27.5 68.5v16q-4 10 -18.5 46t-29.5 78t-29.5 80t-18.5 52q-4 2 -12.5 22.5t-19.5 44.5t-24.5 43t-27.5 19q-4 0 -6 -1t-6 -1q-20 -10 -67.5 -32.5t-99.5 -48t-100.5 -48t-68.5 -30.5q-16 -10 -37 -25.5t-39 -36t-30.5 -45 t-12.5 -53.5v-670z" />
<glyph unicode="D" horiz-adv-x="681" d="M0 256q0 -6 19.5 -26.5t48 -49t63.5 -60.5t67.5 -58.5t56.5 -44t32 -17.5q10 0 40.5 18.5t71.5 47t84 63.5t80 71t60.5 67.5t23.5 51.5v576q0 25 -13 58.5t-31.5 67.5t-40 60.5t-36.5 36.5q-14 12 -54 40t-86 58.5t-88 57t-58 37.5q0 2 -1 7t-1 7q0 18 12 31.5t27.5 29 t28.5 38t13 59.5q-53 0 -102 -8.5t-88 -36t-61.5 -77.5t-22.5 -132q0 -113 49 -187.5t121 -132.5h-158v-557q-12 -12 -34.5 -42.5t-22.5 -53.5zM334 383v479l49 -63v-480z" />
<glyph unicode="E" horiz-adv-x="708" d="M0 416q0 -63 30.5 -136t78 -135.5t102.5 -104.5t102 -42q16 0 50 22.5t73 57.5t81 78t77 84t56.5 74.5t21.5 52.5q0 29 -12.5 40t-34.5 11q-43 0 -73 -18.5t-73 -18.5q-23 0 -51.5 10t-55 28.5t-45 45.5t-18.5 61q0 45 24.5 78t62.5 58.5t82 48t82 50t62.5 63.5t24.5 89 v45l-168 353q-2 2 -19.5 12t-27.5 18h-14q-23 0 -62 -15t-86 -42t-95 -61.5t-87 -73.5t-63.5 -80t-24.5 -78v-575zM287 735v223q2 -4 8 -18t13 -29.5t14.5 -30t11.5 -18.5q6 -12 15 -36.5t9 -26.5q0 -10 -11 -21.5t-25.5 -20.5t-24.5 -15z" />
<glyph unicode="F" horiz-adv-x="567" d="M0 895q0 -37 9 -56.5t40 -39.5v-447q-2 -2 -10 -15t-16.5 -29.5t-14.5 -32t-6 -19.5q-2 -8 6 -32.5t19 -30.5q14 -23 45.5 -56t63.5 -63.5t55.5 -52t25.5 -21.5h49l215 287v71q-35 0 -56.5 -19.5t-49.5 -19.5h-15q-6 2 -14 15.5t-8 17.5v414q0 8 8 19.5t14 13.5q8 2 30 7 t44.5 11t43 10t28.5 4q0 10 1 39t1 39q0 49 -7 76t-24.5 41t-45.5 19.5t-71 9.5v63q23 -29 42.5 -32t46.5 -3q83 0 83 108q0 60 -19 103t-56 80q37 23 49 57.5t12 81.5q-74 0 -127 -2t-99 -15t-92 -42t-102 -80q-35 78 -98 78q0 -43 8 -82t18.5 -78t18.5 -78.5t8 -83.5 q0 -35 -8 -63.5t-18.5 -56t-18.5 -55t-8 -60.5z" />
<glyph unicode="G" horiz-adv-x="708" d="M0 500q0 -35 11.5 -70t28.5 -62.5t40.5 -46t48.5 -18.5q29 0 46.5 7t33.5 20.5t38.5 32t63.5 40.5h11h12q6 -14 19.5 -50t28.5 -76.5t29.5 -77.5t20.5 -52v-32q0 -41 -16.5 -65.5t-40 -37t-50 -16.5t-46.5 -4q0 49 -6.5 94t-24 81t-46 57.5t-71.5 21.5q-72 0 -91.5 -41 t-19.5 -129q0 -74 26 -118t67 -66.5t89 -29.5t95 -7q63 0 131 21.5t121 66.5t88 116.5t35 171.5q0 33 -4 60.5t-12.5 53.5t-23 55.5t-34.5 66.5v512q4 4 11 17.5t14.5 28.5t13.5 28.5t10 19.5v17v16q-2 8 -11 16t-13 17q-14 12 -52.5 43.5t-81.5 67.5t-79.5 68t-51.5 44 l-9 1t-15 1q-12 0 -42 -16.5t-67 -42t-76.5 -57t-72.5 -60.5t-54.5 -51.5t-21.5 -30.5v-606zM264 555v487l47 -32v-416q0 -20 -17.5 -29.5t-29.5 -9.5z" />
<glyph unicode="H" horiz-adv-x="696" d="M0 1458q0 -78 19.5 -159.5t43.5 -141.5v-727q-25 -12 -28.5 -29.5t-3.5 -40.5q0 -35 22.5 -72.5t53 -70.5t60.5 -53.5t44 -20.5t33.5 12.5t40 30t40 35t33.5 27.5q0 -6 1 -20.5t2 -30t2.5 -29.5t1.5 -21q0 -82 -13.5 -122.5t-37 -68.5t-54 -56.5t-63.5 -83.5 q8 -31 27.5 -35t41.5 -4q59 0 119.5 40t111 102.5t87.5 141t49 156.5q2 20 6 88t9 147.5t9.5 156.5t4.5 116q0 8 -4.5 37t-9.5 62.5t-9 66.5t-6 51q-2 10 -15.5 57.5t-34 96.5t-43 81.5t-42.5 14.5l-164 -145q0 14 -2 52t-2 58q0 55 3 103.5t16 86t41 63.5t79 36q0 4 1 9 t1 7q0 6 -1 14l-1 9q-4 12 -11 21.5t-14 15.5h-20q-16 0 -29.5 1t-29.5 1h-19q-47 0 -80 -6.5t-61.5 -22.5t-55 -45t-59.5 -74q-23 29 -40 55.5t-50 26.5zM334 430v434l33 39v-477z" />
<glyph unicode="I" horiz-adv-x="497" d="M2 895q-6 -8 4 -30.5t21 -33.5q4 -8 27.5 -20t31.5 -12v-576q0 -23 17.5 -60.5t42 -74.5t51 -63.5t45.5 -26.5q20 0 57 29.5t74 70.5t63.5 85t26.5 73q0 66 -53 66q-11 0 -25 -3q-4 18 -8 68.5t-7 107t-6.5 106.5t-3.5 71q0 47 12.5 73.5t26 46t25.5 38t12 47.5 q0 6 -2 12l-2 6l-166 223q33 37 66 82t33 111q0 33 -13.5 67.5t-35 62t-47 45t-52.5 17.5q-47 0 -83 -48t-36 -114q0 -20 5.5 -53t14.5 -66.5t21.5 -62.5t28.5 -41z" />
<glyph unicode="J" horiz-adv-x="696" d="M0 344q0 -8 1 -12l1 -4q10 -49 44 -103.5t72 -102.5t73.5 -86t48.5 -56h6q-4 -2 -4 -15q31 0 80 22.5t103 59.5t107.5 85t92.5 99q-8 104 -13.5 198.5t-5.5 207.5v68v215v73q4 6 11.5 19.5t14.5 30t13 32t10 21.5l1 6q1 6 1 8q2 0 -19.5 28.5t-49 63.5t-51 64.5 t-23.5 33.5q4 6 17.5 26t27.5 42.5t27.5 42t19.5 27.5l1 11q1 11 1 21q0 25 -7 54.5t-19.5 55.5t-29.5 44t-38 18q-14 0 -35.5 -11t-41 -30.5t-33 -45t-9.5 -52.5q0 -10 6.5 -38.5t13.5 -62.5t15 -63.5t12 -38.5l-120 -172q0 -2 -1.5 -13t-1.5 -19q0 -29 9.5 -50.5 t42.5 -15.5v-696l-297 92q0 -4 -10.5 -14.5t-16.5 -18.5l-45 -35l3 -2t5 -5t1 -5t-11 -2z" />
<glyph unicode="K" horiz-adv-x="716" d="M0 360q0 23 21.5 42.5t44.5 31.5v729q-23 59 -40.5 142.5t-17.5 156.5q31 0 49.5 -24.5t34.5 -53.5q33 43 60.5 72t56.5 46.5t61.5 23.5t77.5 6q6 0 18.5 -2t28.5 -2t28.5 -1t18.5 -1q6 -2 14.5 -13.5t12.5 -21.5l1 -9t1 -12q0 -4 -1 -8t-1 -12q-51 -10 -79 -34.5 t-41 -62.5t-15 -86t-2 -104v-24q0 -16 1 -34t1 -34v-18l162 143q14 14 38.5 21.5t50 4.5t49 -18.5t36.5 -46.5l-273 -307q43 -16 104.5 -46t153.5 -77q19 -10 27 -49q7 -34 7 -79v-12q-1 -52 -9 -112.5t-17.5 -114t-18.5 -92.5t-15 -51q-35 -78 -75 -152.5t-84 -135 t-95 -101.5t-109 -51q-18 -2 -40.5 3t-26.5 36l123 377q-20 -10 -33 -19.5t-24 -15.5t-22.5 -10.5t-29.5 -4.5q-16 0 -52 20.5t-72 53.5t-62.5 71t-26.5 72zM315 262q33 35 44.5 73t11.5 60v68q0 55 -8 112.5t-41 116.5z" />
<glyph unicode="L" horiz-adv-x="495" d="M0 1446q0 -6 1 -19.5t1 -21.5l25 -94q2 -16 5 -37t7 -40.5t7 -33.5t3 -18v-830q-10 -4 -26.5 -27.5t-20.5 -37.5q-4 -12 5 -33t22.5 -41t27 -35.5t17.5 -17.5q8 -10 28.5 -34t44 -49.5t44 -47t26.5 -29.5q4 2 23.5 13.5t25.5 19.5l191 190q0 2 2 13.5t2 19.5 q0 33 -9.5 45t-23.5 13t-31.5 -3t-36.5 -4v1034q0 25 14.5 30t31 14.5t31 35t14.5 90.5q-55 0 -106.5 -21.5t-95.5 -48t-80 -48t-58 -21.5q-4 0 -9 1l-4 1l-71 64q-2 2 -13.5 5t-13.5 3z" />
<glyph unicode="M" horiz-adv-x="1167" d="M2 1067q-4 -20 3 -40.5t20.5 -38t27 -28t21.5 -10.5v-608q-6 -10 -13.5 -38t-11.5 -38v-20v-15q4 -14 21.5 -39.5t27.5 -39.5q4 -4 11.5 -12.5t17.5 -24.5q29 -37 55.5 -72t34.5 -43l4 -1t8 -1q25 0 46.5 24.5t42 55.5t43 55.5t53.5 24.5q25 0 44 -24.5t36.5 -55.5 t37 -55.5t46.5 -24.5q23 0 52 21.5t55 55.5t44.5 74.5t18.5 81.5q0 29 -5.5 53.5t-21.5 57.5v571q0 37 24 37q12 0 21.5 -6t15.5 -6v-707q0 -31 18.5 -70.5t43 -75.5t50.5 -61.5t40 -25.5q20 0 54 28.5t66.5 67.5t55.5 81t23 71q0 2 -3 11l-4 9q-2 6 -8 17.5t-13 22.5 t-14.5 21.5t-11.5 14.5v608q6 8 14.5 37t10.5 43v17v20q0 2 -9.5 15.5t-15.5 23.5q-10 10 -32.5 42t-49 68.5t-50 69.5t-36.5 43l-4 3q-4 3 -6 3q-4 0 -9 -3l-5 -3q-10 -10 -31.5 -41t-48.5 -64.5t-53.5 -59t-44.5 -25.5q-4 0 -9 2l-4 2l-118 186l-4 3q-5 3 -7 3q-4 0 -9 -3 l-5 -3q-14 -6 -46 -39t-63.5 -67.5t-56.5 -60t-27 -19.5l-118 186h-49l-17 -21q-16 -20 -39.5 -49.5t-48.5 -61.5t-39 -54q-8 -10 -19.5 -28.5t-18.5 -32t-9 -15.5zM385 342v608l47 41v-649h-47z" />
<glyph unicode="N" horiz-adv-x="974" d="M0 1055q0 -37 15.5 -47.5t34 -13.5t33.5 -7t15 -29v-575q-4 -4 -15 -17.5t-23.5 -28.5t-21.5 -29.5t-11 -20.5q-4 -10 1 -23.5t13 -28t17.5 -25.5t15.5 -17l168 -193h24q2 0 23.5 21.5t52.5 52t62.5 63.5t52.5 56l24 30v15v18q-2 8 -11 31.5t-13 31.5v639l24 33l37 -33 v-765q0 -25 18.5 -60t44 -66.5t51 -53t40.5 -21.5q6 0 13 4t11 4l191 193q16 16 26.5 25t16.5 18.5t8 20.5t2 30q0 43 -23.5 63.5t-52.5 32.5v575q6 4 14.5 16.5t15.5 28t12 30t5 22.5q0 2 -17 26.5t-30 36.5l-96 96q-4 2 -18.5 20.5t-31 42t-30.5 43t-16 21.5l-4 1t-6 1 q-31 0 -64 -28.5t-66.5 -65.5t-65.5 -74.5t-58 -56.5q-12 29 -31 68t-41.5 73.5t-49 58t-57.5 23.5h-12q-29 -18 -59.5 -49.5t-59 -67.5t-53.5 -73t-43 -66q0 -2 -1 -12t-1 -18z" />
<glyph unicode="O" d="M2 307q0 -35 45 -87t106.5 -101t122 -85t91.5 -36q6 0 14 1l8 1q4 2 21.5 20.5t38 41t38 42t21.5 23.5q66 47 111 75.5t74.5 52.5t46 50.5t24.5 72.5t9 119.5t1 188.5v47q0 35 -1 72t-1 72v49q-10 55 -29.5 115.5t-46 114.5t-62.5 96t-79 59q-6 -6 -26.5 -21.5t-44 -31 t-44 -28.5t-26.5 -16q-25 -14 -87.5 -32.5t-126 -37t-112.5 -34.5t-49 -25v-702q-23 0 -30 -15.5t-7 -37.5v-23zM389 416v575q14 -14 30.5 -45t16.5 -51v-518q-16 0 -31.5 9t-15.5 30z" />
<glyph unicode="P" horiz-adv-x="688" d="M2 406q0 -29 7 -50.5t30 -21.5q8 0 15 7t13.5 14t14.5 14.5t18 7.5q4 0 12.5 -2t12.5 -2q2 -29 4 -82t7 -115.5t13.5 -128t21.5 -119t31.5 -87.5t45.5 -34q14 0 20 5.5t9.5 17.5t5.5 32.5t10 53.5q2 8 8 49t14.5 88t15.5 90t9 55.5t51 50.5t107.5 84t106.5 87t48 59v594 q0 12 -11 47t-27.5 72t-36 65.5t-35.5 28.5t-45 -22.5t-57.5 -49t-51 -49t-24.5 -22.5q-23 66 -59 124t-85 87l47 71q-4 18 -12 25.5t-18.5 10.5t-21.5 2t-19 -1q-78 0 -113 -62.5t-35 -172.5q0 -55 8.5 -98.5t19.5 -84t19 -86t8 -102.5q0 -63 -16 -113.5t-34.5 -96.5 t-35 -94t-16.5 -108v-38zM365 651v318l24 35l25 -35v-387z" />
<glyph unicode="Q" horiz-adv-x="690" d="M2 766q0 -59 1 -149.5t16.5 -175.5t50 -146.5t104.5 -61.5q25 0 42 20.5t33.5 46.5t34 46.5t44.5 20.5q2 0 5 -1t7 -1q2 -20 8 -68.5t16.5 -109t24.5 -126t30.5 -120t36 -89t40.5 -34.5q14 0 26.5 35.5t24.5 90t21.5 120t17.5 126t12 108.5t6 67q2 23 4 72.5t5 112 t5.5 133.5t5.5 134.5t4 113.5t1 73q23 10 23.5 26.5t0.5 36.5q0 33 -39 78t-90 84t-101 66.5t-71 27.5h-12l-72 -66q-59 -43 -102 -70.5t-73 -51t-48 -49t-27.5 -65.5t-12.5 -101.5t-3 -153.5zM268 588v422q12 0 29.5 -9.5t17.5 -29.5v-420q-14 0 -30.5 8t-16.5 29z" />
<glyph unicode="R" horiz-adv-x="782" d="M0 1024q0 -37 18.5 -52.5t42 -24.5t42 -18t18.5 -34v-449l-94 -127q-10 -12 11 -39.5t58 -63.5t83 -75t87 -70.5t72 -52t37 -20.5q4 0 16 1t17 1q78 78 150.5 166t137.5 186q0 2 2 12.5t2 18.5q0 29 -8 48.5t-30 19.5q-20 0 -35 -11.5t-29 -24t-29.5 -23.5t-36.5 -11 q-4 0 -16 -1t-25.5 1t-23.5 9t-10 26v479l24 31l97 -191l22 -33l5 -1t9 -1q2 0 5.5 1t5.5 1q10 2 29.5 22.5t39 47.5t33.5 52.5t18 37.5v41q0 18 1.5 36.5t1.5 33.5q0 119 -26 207t-97 161l-168 -223h-25q-29 49 -46 82t-35.5 56.5t-43 43t-65.5 41.5q-10 -10 -33 -37.5 t-49.5 -58.5t-51 -58.5t-34.5 -35.5q-18 -23 -32.5 -36t-24 -25.5t-13.5 -26.5t-4 -39z" />
<glyph unicode="S" horiz-adv-x="653" d="M0 391q0 33 25.5 64.5t60.5 56.5t67.5 40t49.5 15q16 0 28 -14l-223 285v178q0 27 11.5 51.5t27.5 43.5t35.5 34.5t36.5 25.5q18 10 63 33t94.5 47.5t93.5 48t62 35.5q4 0 6 2t6 2q14 0 27.5 -20.5t23 -45t16.5 -46t11 -23.5q4 -12 17.5 -50t28 -80t27.5 -76.5t19 -41.5 l1 -9q1 -9 1 -11q0 -37 -25.5 -68.5t-60 -56.5t-68.5 -39t-48 -14q-23 0 -41.5 24.5t-32.5 57t-24.5 65.5t-18.5 51l-29 -63l346 -373l-4 -209q0 -29 -12 -53.5t-30.5 -44.5t-38 -36.5t-33.5 -26.5q-18 -10 -62.5 -33t-93.5 -47.5t-94.5 -46t-63.5 -31.5q-4 0 -7 -1t-7 -1 q-12 0 -24.5 19.5t-23.5 44t-19.5 46t-10.5 25.5q-6 12 -19.5 48t-28.5 77t-27.5 76.5t-12.5 46.5l-1 6t-1 12zM260 514q23 -35 34 -77t21 -64l56 8z" />
<glyph unicode="T" horiz-adv-x="565" d="M0 926q0 -47 19.5 -73t54.5 -54v-447q0 -10 -11.5 -21.5t-25.5 -21.5t-19 -13l-16 -9q10 -47 40 -87t65.5 -75t72.5 -65.5t62 -59.5q20 8 64 44t89 82t79 94t34 83q0 33 -16.5 43t-37 8t-41 -8t-28.5 -6v491q24 -6 44 -6q37 1 61 19q38 28 38 114q0 39 -18 62.5t-43 36.5 t-51.5 18.5t-40.5 9.5v385l-62 64q-37 -96 -68.5 -172t-66.5 -142.5t-77 -129t-99 -132.5q0 -2 -1 -13t-1 -19z" />
<glyph unicode="U" horiz-adv-x="974" d="M0 1024q0 -35 8 -47t22.5 -13t32 3t35.5 4v-555q0 -2 -9 -13.5t-15 -19.5q-6 -2 -24.5 -13.5t-22.5 -17.5l-1 -5t-1 -7q0 -8 1 -14l1 -7q10 -47 43.5 -96t72.5 -94t74 -79t49 -50h13q31 0 57 25.5t53 55.5t54.5 55.5t62.5 25.5q31 0 54.5 -25.5t45 -55.5t46 -55.5 t57.5 -25.5q25 0 64.5 26.5t76.5 66.5t63.5 83t26.5 78q0 39 -15.5 49t-35 12t-34.5 6.5t-15 30.5v574q29 35 41 60.5t12 68.5v22q-4 8 -5 11.5t-7.5 9.5t-18.5 20.5t-37 44.5q-18 20 -41.5 47t-46 52.5t-40 47t-25.5 31.5q-41 -74 -95.5 -129t-119.5 -94v-16v-17 q2 -8 8 -25.5t13 -38t15.5 -37.5t12.5 -26v-575q0 -12 -19.5 -27.5t-36 -24.5t-18.5 -12q0 18 1 51t1 74q0 43 1 93.5t1 101.5q0 104 -2 193.5t-2 125.5q0 43 -10 109t-31.5 127t-52.5 105t-72 44q-6 0 -13 -1t-11 -1q-10 -10 -33 -37.5t-49.5 -58.5t-51 -58.5t-34.5 -35.5 q-18 -23 -32.5 -36t-24 -25.5t-13.5 -26.5t-4 -39z" />
<glyph unicode="V" horiz-adv-x="829" d="M0 1214q0 -43 3 -75.5t12.5 -61t22.5 -56.5t36 -63v-542l-10 -6q-11 -7 -24 -17t-25.5 -21.5t-12.5 -19.5q0 -20 21.5 -54t55.5 -73t75 -79t77.5 -72.5t66.5 -53t40 -20.5q2 0 21.5 12.5t25.5 20.5l96 94q31 31 83 52.5t103.5 49t88.5 70.5t37 117v606q0 6 -3.5 20.5 t-6.5 29.5t-8 28.5t-7 17.5q-10 20 -33.5 53t-47 64t-42 53.5t-20.5 22.5h-25l-205 -172l-178 235q31 -12 53.5 -5t39 28.5t24.5 51.5t8 64q-63 0 -124.5 -8t-110 -38.5t-78 -90t-29.5 -162.5zM408 446v512q0 20 18 29.5t31 9.5v-614z" />
<glyph unicode="W" horiz-adv-x="1099" d="M0 1190q0 -88 15.5 -145.5t58.5 -114.5v-559q-29 -23 -39 -44.5t-10 -68.5q0 -16 26.5 -60t60 -90.5t66.5 -81t43 -34.5q4 0 12.5 4t12.5 4l143 188l7 2q7 3 12 3q39 0 72.5 -31t66.5 -67t64.5 -66.5t68.5 -30.5q12 0 45 22.5t75 58.5t89 81t85 90t63.5 87t25.5 71v598 q0 33 -19.5 85t-46 101t-55.5 85t-47 36q-29 0 -51.5 -25.5t-43 -55.5t-42 -55.5t-45.5 -25.5q-2 0 -7 3l-4 3q-37 35 -54 63.5t-29.5 50t-28 34t-47.5 12.5q-55 0 -94 -47t-84 -113q-31 66 -80 109t-88 77l96 72l1 5q1 5 1 7q0 33 -11.5 48.5t-26.5 20.5t-31.5 4t-28.5 -1 q-197 0 -197 -309zM389 332v639l43 -4v-609zM727 408v522q0 29 17.5 39t29.5 10v-614q-12 0 -29.5 7t-17.5 36z" />
<glyph unicode="X" horiz-adv-x="735" d="M0 94q0 -119 27.5 -201.5t75 -135t109.5 -76t132 -23.5q47 0 94 10t84 39t59.5 79t22.5 132q0 139 -98 139q-37 0 -60.5 -20.5t-37 -55t-18.5 -79.5t-5 -95q-4 0 -15.5 -1t-25.5 -2t-26.5 -2t-14.5 -1q-31 0 -66.5 7.5t-67.5 29t-53.5 60.5t-21.5 100q0 66 19.5 115 t68.5 49q25 0 45.5 -10.5t41 -23.5t40 -23.5t41.5 -10.5q18 0 63.5 44t93.5 101.5t85 112t37 76.5q0 2 -2 9l-2 7q-2 8 -10.5 21.5t-14.5 15.5h-10q-29 0 -53.5 -20.5t-57.5 -20.5q-12 0 -29.5 5.5t-17.5 35.5v461h25q18 -80 41.5 -115.5t66.5 -35.5q27 0 51.5 16t43 44 t29.5 63.5t11 76.5q0 29 -12 86.5t-31.5 114.5t-43 100t-48.5 43q-4 0 -8 -2l-4 -2l-145 -213q-16 27 -37 65t-45.5 71.5t-52 57t-58.5 23.5q-4 0 -13 -2l-9 -2l-191 -284q-6 -8 2 -35t23 -33q18 -10 38.5 -5t36.5 5q18 0 30.5 -13.5t12.5 -58.5v-426q-72 -78 -108.5 -170 t-36.5 -217z" />
<glyph unicode="Y" horiz-adv-x="636" d="M0 1120q0 -61 8 -116.5t18.5 -109.5t18.5 -111.5t8 -120.5q0 -102 -14 -185.5t-14 -179.5q0 -39 16 -81t40.5 -76t51.5 -56.5t49 -22.5q2 0 6 1l5 1q8 8 28.5 29t44 43.5t44 44t28.5 31.5q0 -8 1 -26.5t1 -39.5v-61q0 -76 -7 -125t-24.5 -89t-46 -80t-69.5 -95 q2 -18 12 -26.5t22.5 -11.5t23.5 -2t17 1q39 0 96.5 43t109.5 108.5t89 143.5t37 147v883q-6 23 -15.5 54.5t-25.5 47.5l-78 119l-5 1t-7 1q-4 0 -8 -1l-4 -1l-119 -112l-49 -35l-121 182v18q0 12 8 23.5t20.5 22t24.5 20.5t21 22q-16 51 -30.5 64.5t-43.5 13.5 q-47 0 -79 -23.5t-51.5 -64.5t-28.5 -95t-9 -118zM313 385v485l25 37q27 -70 27 -147v-146v-39q0 -29 -2.5 -54t-2.5 -54v-37q-12 -45 -47 -45z" />
<glyph unicode="Z" horiz-adv-x="591" d="M0 270q0 -82 12.5 -157.5t42 -134t76.5 -94.5t117 -36q78 0 136 41t97 109t58.5 155t19.5 179q0 70 -12 131t-26.5 113.5t-27 97.5t-12.5 86q0 4 2 10l2 6l47 64l2 6q1 6 1 10q0 45 -31 45q-12 0 -27.5 -3t-25.5 -3q0 25 1 69v46v49q-1 51 -7.5 103t-21.5 95t-41 70 t-67 27q-4 0 -12 -1t-10 -1q-10 -10 -33.5 -33t-50.5 -47.5t-51.5 -47t-32.5 -32.5q-6 -8 -18.5 -22.5t-24.5 -30t-20.5 -27.5t-8.5 -16q-6 -16 3.5 -40t19.5 -24h121q4 0 11 -23.5t13 -39.5v-19q0 -55 -26.5 -76.5t-59.5 -34t-59.5 -28.5t-26.5 -63q0 -8 2 -20.5t2 -14.5 q0 -4 3 -18.5t8.5 -30t8.5 -29.5t3 -19q0 -6 -11.5 -34.5t-23.5 -60.5t-23.5 -60.5t-11.5 -34.5q0 -8 -3 -44t-3 -73v-39zM211 41v385q0 14 1 48t7 67.5t17.5 59.5t31.5 26v-586q0 -25 6.5 -39t10.5 -21.5t2 -8.5t-17 -1q-29 0 -44 10.5t-15 59.5z" />
<glyph unicode="[" horiz-adv-x="434" d="M0 225q0 -70 37 -147.5t89 -143t108.5 -108.5t97.5 -43q6 0 17 -1t23.5 2t23 12.5t12.5 27.5q-55 -4 -91 60.5t-56.5 173t-29 251t-8.5 295.5q0 156 6.5 312.5t12.5 297.5q0 78 26 148l43 151l-43 31l-118 113l-4 1q-5 1 -9 1q-2 0 -7 -1l-5 -1l-78 -119 q-16 -16 -26.5 -48t-14.5 -54zM311 1513l4 -4z" />
<glyph unicode="\" horiz-adv-x="604" d="M-18 1069q0 -12 2 -14q10 -37 27.5 -58.5t39 -45t44 -57.5t40.5 -91q8 -25 23.5 -86.5t33 -129t33 -129t21.5 -85.5q-45 14 -56.5 -8.5t3.5 -71.5q12 -35 55 -88t93 -104.5t97 -87.5t70 -36q16 0 31.5 34t24.5 79t12.5 92t-3.5 74l-221 702q10 0 25.5 15.5t19.5 25.5v13 q0 10 -1 21t-3 21.5t-4 14.5q-6 10 -19.5 25.5t-46 47.5t-90 86t-149.5 140q-90 -145 -102 -291v-8z" />
<glyph unicode="]" horiz-adv-x="376" d="M-61 -176q55 -4 91 60.5t55 173t27.5 251t8.5 295.5q0 156 -5 312.5t-12 297.5q-2 41 -8 78t-20 70l-41 151l41 31l121 113l5 1t9 1l10 -2l76 -119q18 -16 28.5 -48t14.5 -54l6 -1211q0 -70 -37 -147.5t-89 -143t-109.5 -108.5t-96.5 -43q-4 0 -16 -1t-24.5 2t-22.5 12.5 t-12 27.5zM29 1509l6 4z" />
<glyph unicode="^" horiz-adv-x="829" d="M-2 287v608q0 74 37 117t88 70.5t103.5 49t82.5 50.5l97 96q6 8 25.5 20.5t21.5 12.5q10 0 39.5 -20.5t66.5 -53.5t78 -73t74.5 -80t55 -74t21.5 -52q0 -10 -12 -20t-25.5 -20.5t-23.5 -16.5l-10 -6v-543q20 -35 34.5 -63.5t22.5 -56t12.5 -60.5t4.5 -76 q0 -104 -30 -163.5t-78 -90t-109.5 -39t-124.5 -8.5q0 33 8 64.5t24.5 52t39 29t52.5 -3.5l-178 235l-205 -172h-24q-2 0 -20.5 21.5t-42 52t-47 63.5t-36.5 56q-4 4 -7 17t-7 28.5t-6 29t-2 19.5zM334 311q12 0 29.5 9.5t17.5 31.5v510l-47 64v-615z" />
<glyph unicode="_" horiz-adv-x="776" d="M-72 -164l434 103l476 -103l4 -3t0 -5q-29 -29 -86.5 -44t-145.5 -44q-12 -4 -69.5 1t-135 15.5t-163.5 22.5t-158 24.5t-117 21.5t-39 11z" />
<glyph unicode="`" horiz-adv-x="323" d="M0 1765l182 160l109 -305l2 -6t-2 -6q-10 -49 -36 -74t-62 -64q-4 -8 -21.5 10.5t-40 50.5t-47.5 71.5t-44.5 75.5t-31.5 60.5t-8 26.5z" />
<glyph unicode="a" horiz-adv-x="776" d="M0 518v166v41q0 37 1 67.5t1 67.5v41q6 88 40 145.5t82 96.5t101.5 68.5t100.5 64.5q27 20 43 37.5t45 17.5q23 0 41 -16.5t35.5 -40t36 -49t42.5 -43.5q14 -14 39 -26.5t47.5 -28t40 -37t17.5 -56.5q0 -23 -7.5 -34t-17.5 -18t-21.5 -15.5t-19.5 -20.5q-10 -68 -10 -119 v-114v-82v-33v-90v-16q0 -6 1 -26t5 -42.5t10 -39.5t19 -17q12 0 18 8t19 8q2 0 8 -8t12 -20.5t10 -25t4 -20.5q0 -14 -1 -20t-4 -11.5t-10 -9.5t-17 -14q-10 -16 -33 -45t-47.5 -59.5t-48 -59.5t-31.5 -43h-19q-29 0 -55 34t-47.5 76t-39 75.5t-25.5 33.5q-16 0 -39 -33.5 t-47.5 -75.5t-51 -76t-51.5 -34q-23 0 -38 17.5t-32 37.5q-66 90 -86 191.5t-20 224.5zM295 590q0 -49 2 -101.5t6 -111.5q0 -10 8 -17h4h7l21 35t15 39v512l-16 21q-8 10 -16.5 27.5t-14.5 21.5h-6h-2l-8 -58v-16v-96v-39v-217z" />
<glyph unicode="b" horiz-adv-x="729" d="M0 1438q2 -14 14.5 -52t24.5 -82t22.5 -86t10.5 -67v-768q-4 -4 -11.5 -12.5t-14.5 -17.5t-13 -18t-8 -16l-3 -6q-2 -6 -2 -10t2 -10l3 -6q14 -29 57 -79t91 -98.5t88 -82t50 -27.5l336 223l9 23q10 24 16 41q2 12 8 36.5t10 41t4 18.5v479q0 25 -18.5 69t-44 86 t-52 72.5t-42.5 30.5q-20 0 -43 -15t-46.5 -36.5t-46 -43t-43.5 -34.5v29v86v27q0 78 11.5 126t28 74.5t35 37.5t34.5 18.5t27.5 16.5t11.5 30q0 29 -5 49t-22 49q-39 -8 -76.5 -14.5t-73.5 -15.5t-70 -24.5t-66 -41.5l-74 -64l-4 -1q-4 -1 -9 -1q-4 0 -8 1l-4 1 q-4 4 -14 17.5t-21.5 29t-21.5 29.5t-12 20zM358 383v416q0 20 17.5 29.5t32.5 9.5v-519z" />
<glyph unicode="c" horiz-adv-x="684" d="M0 352q0 -53 33 -114.5t79 -114.5t94 -89t81 -36q6 0 14 1t10 1q16 12 57.5 48t87.5 78t86 79t56 51q33 29 41 42t8 54q0 23 -7 43.5t-30 20.5q-35 0 -64.5 -17.5t-66.5 -17.5q-18 0 -47 8t-55.5 24.5t-46 41t-19.5 57.5v446q8 -16 18.5 -47.5t25 -64.5t34 -57.5 t43.5 -24.5q16 0 52 14.5t72 39t63.5 56t27.5 68.5v16q-4 10 -18.5 46t-29.5 78t-29.5 80t-18.5 52q-4 2 -12.5 22.5t-19.5 44.5t-24.5 43t-27.5 19q-4 0 -6 -1t-6 -1q-20 -10 -67.5 -32.5t-99.5 -48t-100.5 -48t-68.5 -30.5q-16 -10 -37 -25.5t-39 -36t-30.5 -45 t-12.5 -53.5v-670z" />
<glyph unicode="d" horiz-adv-x="681" d="M0 256q0 -6 19.5 -26.5t48 -49t63.5 -60.5t67.5 -58.5t56.5 -44t32 -17.5q10 0 40.5 18.5t71.5 47t84 63.5t80 71t60.5 67.5t23.5 51.5v576q0 25 -13 58.5t-31.5 67.5t-40 60.5t-36.5 36.5q-14 12 -54 40t-86 58.5t-88 57t-58 37.5q0 2 -1 7t-1 7q0 18 12 31.5t27.5 29 t28.5 38t13 59.5q-53 0 -102 -8.5t-88 -36t-61.5 -77.5t-22.5 -132q0 -113 49 -187.5t121 -132.5h-158v-557q-12 -12 -34.5 -42.5t-22.5 -53.5zM334 383v479l49 -63v-480z" />
<glyph unicode="e" horiz-adv-x="708" d="M0 416q0 -63 30.5 -136t78 -135.5t102.5 -104.5t102 -42q16 0 50 22.5t73 57.5t81 78t77 84t56.5 74.5t21.5 52.5q0 29 -12.5 40t-34.5 11q-43 0 -73 -18.5t-73 -18.5q-23 0 -51.5 10t-55 28.5t-45 45.5t-18.5 61q0 45 24.5 78t62.5 58.5t82 48t82 50t62.5 63.5t24.5 89 v45l-168 353q-2 2 -19.5 12t-27.5 18h-14q-23 0 -62 -15t-86 -42t-95 -61.5t-87 -73.5t-63.5 -80t-24.5 -78v-575zM287 735v223q2 -4 8 -18t13 -29.5t14.5 -30t11.5 -18.5q6 -12 15 -36.5t9 -26.5q0 -10 -11 -21.5t-25.5 -20.5t-24.5 -15z" />
<glyph unicode="f" horiz-adv-x="567" d="M0 895q0 -37 9 -56.5t40 -39.5v-447q-2 -2 -10 -15t-16.5 -29.5t-14.5 -32t-6 -19.5q-2 -8 6 -32.5t19 -30.5q14 -23 45.5 -56t63.5 -63.5t55.5 -52t25.5 -21.5h49l215 287v71q-35 0 -56.5 -19.5t-49.5 -19.5h-15q-6 2 -14 15.5t-8 17.5v414q0 8 8 19.5t14 13.5q8 2 30 7 t44.5 11t43 10t28.5 4q0 10 1 39t1 39q0 49 -7 76t-24.5 41t-45.5 19.5t-71 9.5v63q23 -29 42.5 -32t46.5 -3q83 0 83 108q0 60 -19 103t-56 80q37 23 49 57.5t12 81.5q-74 0 -127 -2t-99 -15t-92 -42t-102 -80q-35 78 -98 78q0 -43 8 -82t18.5 -78t18.5 -78.5t8 -83.5 q0 -35 -8 -63.5t-18.5 -56t-18.5 -55t-8 -60.5z" />
<glyph unicode="g" horiz-adv-x="708" d="M0 500q0 -35 11.5 -70t28.5 -62.5t40.5 -46t48.5 -18.5q29 0 46.5 7t33.5 20.5t38.5 32t63.5 40.5h11h12q6 -14 19.5 -50t28.5 -76.5t29.5 -77.5t20.5 -52v-32q0 -41 -16.5 -65.5t-40 -37t-50 -16.5t-46.5 -4q0 49 -6.5 94t-24 81t-46 57.5t-71.5 21.5q-72 0 -91.5 -41 t-19.5 -129q0 -74 26 -118t67 -66.5t89 -29.5t95 -7q63 0 131 21.5t121 66.5t88 116.5t35 171.5q0 33 -4 60.5t-12.5 53.5t-23 55.5t-34.5 66.5v512q4 4 11 17.5t14.5 28.5t13.5 28.5t10 19.5v17v16q-2 8 -11 16t-13 17q-14 12 -52.5 43.5t-81.5 67.5t-79.5 68t-51.5 44 l-9 1t-15 1q-12 0 -42 -16.5t-67 -42t-76.5 -57t-72.5 -60.5t-54.5 -51.5t-21.5 -30.5v-606zM264 555v487l47 -32v-416q0 -20 -17.5 -29.5t-29.5 -9.5z" />
<glyph unicode="h" horiz-adv-x="696" d="M0 1458q0 -78 19.5 -159.5t43.5 -141.5v-727q-25 -12 -28.5 -29.5t-3.5 -40.5q0 -35 22.5 -72.5t53 -70.5t60.5 -53.5t44 -20.5t33.5 12.5t40 30t40 35t33.5 27.5q0 -6 1 -20.5t2 -30t2.5 -29.5t1.5 -21q0 -82 -13.5 -122.5t-37 -68.5t-54 -56.5t-63.5 -83.5 q8 -31 27.5 -35t41.5 -4q59 0 119.5 40t111 102.5t87.5 141t49 156.5q2 20 6 88t9 147.5t9.5 156.5t4.5 116q0 8 -4.5 37t-9.5 62.5t-9 66.5t-6 51q-2 10 -15.5 57.5t-34 96.5t-43 81.5t-42.5 14.5l-164 -145q0 14 -2 52t-2 58q0 55 3 103.5t16 86t41 63.5t79 36q0 4 1 9 t1 7q0 6 -1 14l-1 9q-4 12 -11 21.5t-14 15.5h-20q-16 0 -29.5 1t-29.5 1h-19q-47 0 -80 -6.5t-61.5 -22.5t-55 -45t-59.5 -74q-23 29 -40 55.5t-50 26.5zM334 430v434l33 39v-477z" />
<glyph unicode="i" horiz-adv-x="497" d="M2 895q-6 -8 4 -30.5t21 -33.5q4 -8 27.5 -20t31.5 -12v-576q0 -23 17.5 -60.5t42 -74.5t51 -63.5t45.5 -26.5q20 0 57 29.5t74 70.5t63.5 85t26.5 73q0 66 -53 66q-11 0 -25 -3q-4 18 -8 68.5t-7 107t-6.5 106.5t-3.5 71q0 47 12.5 73.5t26 46t25.5 38t12 47.5 q0 6 -2 12l-2 6l-166 223q33 37 66 82t33 111q0 33 -13.5 67.5t-35 62t-47 45t-52.5 17.5q-47 0 -83 -48t-36 -114q0 -20 5.5 -53t14.5 -66.5t21.5 -62.5t28.5 -41z" />
<glyph unicode="j" horiz-adv-x="696" d="M0 344q0 -8 1 -12l1 -4q10 -49 44 -103.5t72 -102.5t73.5 -86t48.5 -56h6q-4 -2 -4 -15q31 0 80 22.5t103 59.5t107.5 85t92.5 99q-8 104 -13.5 198.5t-5.5 207.5v68v215v73q4 6 11.5 19.5t14.5 30t13 32t10 21.5l1 6q1 6 1 8q2 0 -19.5 28.5t-49 63.5t-51 64.5 t-23.5 33.5q4 6 17.5 26t27.5 42.5t27.5 42t19.5 27.5l1 11q1 11 1 21q0 25 -7 54.5t-19.5 55.5t-29.5 44t-38 18q-14 0 -35.5 -11t-41 -30.5t-33 -45t-9.5 -52.5q0 -10 6.5 -38.5t13.5 -62.5t15 -63.5t12 -38.5l-120 -172q0 -2 -1.5 -13t-1.5 -19q0 -29 9.5 -50.5 t42.5 -15.5v-696l-297 92q0 -4 -10.5 -14.5t-16.5 -18.5l-45 -35l3 -2t5 -5t1 -5t-11 -2z" />
<glyph unicode="k" horiz-adv-x="716" d="M0 360q0 23 21.5 42.5t44.5 31.5v729q-23 59 -40.5 142.5t-17.5 156.5q31 0 49.5 -24.5t34.5 -53.5q33 43 60.5 72t56.5 46.5t61.5 23.5t77.5 6q6 0 18.5 -2t28.5 -2t28.5 -1t18.5 -1q6 -2 14.5 -13.5t12.5 -21.5l1 -9t1 -12q0 -4 -1 -8t-1 -12q-51 -10 -79 -34.5 t-41 -62.5t-15 -86t-2 -104v-24q0 -16 1 -34t1 -34v-18l162 143q14 14 38.5 21.5t50 4.5t49 -18.5t36.5 -46.5l-273 -307q43 -16 104.5 -46t153.5 -77q19 -10 27 -49q7 -34 7 -79v-12q-1 -52 -9 -112.5t-17.5 -114t-18.5 -92.5t-15 -51q-35 -78 -75 -152.5t-84 -135 t-95 -101.5t-109 -51q-18 -2 -40.5 3t-26.5 36l163 364q-43 -23 -76.5 -30t-72.5 -7q-16 0 -52 20.5t-72 53.5t-62.5 71t-26.5 72zM315 262q33 35 44.5 73t11.5 60v68q0 55 -8 112.5t-41 116.5z" />
<glyph unicode="l" horiz-adv-x="495" d="M0 1446q0 -6 1 -19.5t1 -21.5l25 -94q2 -16 5 -37t7 -40.5t7 -33.5t3 -18v-830q-10 -4 -26.5 -27.5t-20.5 -37.5q-4 -12 5 -33t22.5 -41t27 -35.5t17.5 -17.5q8 -10 28.5 -34t44 -49.5t44 -47t26.5 -29.5q4 2 23.5 13.5t25.5 19.5l191 190q0 2 2 13.5t2 19.5 q0 33 -9.5 45t-23.5 13t-31.5 -3t-36.5 -4v1034q0 25 14.5 30t31 14.5t31 35t14.5 90.5q-55 0 -106.5 -21.5t-95.5 -48t-80 -48t-58 -21.5q-4 0 -9 1l-4 1l-71 64q-2 2 -13.5 5t-13.5 3z" />
<glyph unicode="m" horiz-adv-x="1167" d="M2 1067q-4 -20 3 -40.5t20.5 -38t27 -28t21.5 -10.5v-608q-6 -10 -13.5 -38t-11.5 -38v-20v-15q4 -14 21.5 -39.5t27.5 -39.5q4 -4 11.5 -12.5t17.5 -24.5q29 -37 55.5 -72t34.5 -43l4 -1t8 -1q25 0 46.5 24.5t42 55.5t43 55.5t53.5 24.5q25 0 44 -24.5t36.5 -55.5 t37 -55.5t46.5 -24.5q23 0 52 21.5t55 55.5t44.5 74.5t18.5 81.5q0 29 -5.5 53.5t-21.5 57.5v571q0 37 24 37q12 0 21.5 -6t15.5 -6v-707q0 -31 18.5 -70.5t43 -75.5t50.5 -61.5t40 -25.5q20 0 54 28.5t66.5 67.5t55.5 81t23 71q0 2 -3 11l-4 9q-2 6 -8 17.5t-13 22.5 t-14.5 21.5t-11.5 14.5v608q6 8 14.5 37t10.5 43v17v20q0 2 -9.5 15.5t-15.5 23.5q-10 10 -32.5 42t-49 68.5t-50 69.5t-36.5 43l-4 3q-4 3 -6 3q-4 0 -9 -3l-5 -3q-10 -10 -31.5 -41t-48.5 -64.5t-53.5 -59t-44.5 -25.5q-4 0 -9 2l-4 2l-118 186l-4 3q-5 3 -7 3q-4 0 -9 -3 l-5 -3q-14 -6 -46 -39t-63.5 -67.5t-56.5 -60t-27 -19.5l-118 186h-49l-17 -21q-16 -20 -39.5 -49.5t-48.5 -61.5t-39 -54q-8 -10 -19.5 -28.5t-18.5 -32t-9 -15.5zM385 342v608l47 41v-649h-47z" />
<glyph unicode="n" horiz-adv-x="974" d="M0 1055q0 -37 15.5 -47.5t34 -13.5t33.5 -7t15 -29v-575q-4 -4 -15 -17.5t-23.5 -28.5t-21.5 -29.5t-11 -20.5q-4 -10 1 -23.5t13 -28t17.5 -25.5t15.5 -17l168 -193h24q2 0 23.5 21.5t52.5 52t62.5 63.5t52.5 56l24 30v15v18q-2 8 -11 31.5t-13 31.5v639l24 33l37 -33 v-765q0 -25 18.5 -60t44 -66.5t51 -53t40.5 -21.5q6 0 13 4t11 4l191 193q16 16 26.5 25t16.5 18.5t8 20.5t2 30q0 43 -23.5 63.5t-52.5 32.5v575q6 4 14.5 16.5t15.5 28t12 30t5 22.5q0 2 -17 26.5t-30 36.5l-96 96q-4 2 -18.5 20.5t-31 42t-30.5 43t-16 21.5l-4 1t-6 1 q-31 0 -64 -28.5t-66.5 -65.5t-65.5 -74.5t-58 -56.5q-12 29 -31 68t-41.5 73.5t-49 58t-57.5 23.5h-12q-29 -18 -59.5 -49.5t-59 -67.5t-53.5 -73t-43 -66q0 -2 -1 -12t-1 -18z" />
<glyph unicode="o" d="M2 307q0 -35 45 -87t106.5 -101t122 -85t91.5 -36q6 0 14 1l8 1q4 2 21.5 20.5t38 41t38 42t21.5 23.5q66 47 111 75.5t74.5 52.5t46 50.5t24.5 72.5t9 119.5t1 188.5v47q0 35 -1 72t-1 72v49q-10 55 -29.5 115.5t-46 114.5t-62.5 96t-79 59q-6 -6 -26.5 -21.5t-44 -31 t-44 -28.5t-26.5 -16q-25 -14 -87.5 -32.5t-126 -37t-112.5 -34.5t-49 -25v-702q-23 0 -30 -15.5t-7 -37.5v-23zM389 416v575q14 -14 30.5 -45t16.5 -51v-518q-16 0 -31.5 9t-15.5 30z" />
<glyph unicode="p" horiz-adv-x="688" d="M2 406q0 -29 7 -50.5t30 -21.5q8 0 15 7t13.5 14t14.5 14.5t18 7.5q4 0 12.5 -2t12.5 -2q2 -29 4 -82t7 -115.5t13.5 -128t21.5 -119t31.5 -87.5t45.5 -34q14 0 20 5.5t9.5 17.5t5.5 32.5t10 53.5q2 8 8 49t14.5 88t15.5 90t9 55.5t51 50.5t107.5 84t106.5 87t48 59v594 q0 12 -11 47t-27.5 72t-36 65.5t-35.5 28.5t-45 -22.5t-57.5 -49t-51 -49t-24.5 -22.5q-23 66 -59 124t-85 87l47 71q-4 18 -12 25.5t-18.5 10.5t-21.5 2t-19 -1q-78 0 -113 -62.5t-35 -172.5q0 -55 8.5 -98.5t19.5 -84t19 -86t8 -102.5q0 -63 -16 -113.5t-34.5 -96.5 t-35 -94t-16.5 -108v-38zM365 651v318l24 35l25 -35v-387z" />
<glyph unicode="q" horiz-adv-x="690" d="M2 766q0 -59 1 -149.5t16.5 -175.5t50 -146.5t104.5 -61.5q25 0 42 20.5t33.5 46.5t34 46.5t44.5 20.5q2 0 5 -1t7 -1q2 -20 8 -68.5t16.5 -109t24.5 -126t30.5 -120t36 -89t40.5 -34.5q14 0 26.5 35.5t24.5 90t21.5 120t17.5 126t12 108.5t6 67q2 23 4 72.5t5 112 t5.5 133.5t5.5 134.5t4 113.5t1 73q23 10 23.5 26.5t0.5 36.5q0 33 -39 78t-90 84t-101 66.5t-71 27.5h-12l-72 -66q-59 -43 -102 -70.5t-73 -51t-48 -49t-27.5 -65.5t-12.5 -101.5t-3 -153.5zM268 588v422q12 0 29.5 -9.5t17.5 -29.5v-420q-14 0 -30.5 8t-16.5 29z" />
<glyph unicode="r" horiz-adv-x="782" d="M0 1024q0 -37 18.5 -52.5t42 -24.5t42 -18t18.5 -34v-449l-94 -127q-10 -12 11 -39.5t58 -63.5t83 -75t87 -70.5t72 -52t37 -20.5q4 0 16 1t17 1q78 78 150.5 166t137.5 186q0 2 2 12.5t2 18.5q0 29 -8 48.5t-30 19.5q-20 0 -35 -11.5t-29 -24t-29.5 -23.5t-36.5 -11 q-4 0 -16 -1t-25.5 1t-23.5 9t-10 26v479l24 31l97 -191l22 -33l5 -1t9 -1q2 0 5.5 1t5.5 1q10 2 29.5 22.5t39 47.5t33.5 52.5t18 37.5v41q0 18 1.5 36.5t1.5 33.5q0 119 -26 207t-97 161l-168 -223h-25q-29 49 -46 82t-35.5 56.5t-43 43t-65.5 41.5q-10 -10 -33 -37.5 t-49.5 -58.5t-51 -58.5t-34.5 -35.5q-18 -23 -32.5 -36t-24 -25.5t-13.5 -26.5t-4 -39z" />
<glyph unicode="s" horiz-adv-x="653" d="M0 391q0 33 25.5 64.5t60.5 56.5t67.5 40t49.5 15q16 0 28 -14l-223 285v178q0 27 11.5 51.5t27.5 43.5t35.5 34.5t36.5 25.5q18 10 63 33t94.5 47.5t93.5 48t62 35.5q4 0 6 2t6 2q14 0 27.5 -20.5t23 -45t16.5 -46t11 -23.5q4 -12 17.5 -50t28 -80t27.5 -76.5t19 -41.5 l1 -9q1 -9 1 -11q0 -37 -25.5 -68.5t-60 -56.5t-68.5 -39t-48 -14q-23 0 -41.5 24.5t-32.5 57t-24.5 65.5t-18.5 51l-29 -63l346 -373l-4 -209q0 -29 -12 -53.5t-30.5 -44.5t-38 -36.5t-33.5 -26.5q-18 -10 -62.5 -33t-93.5 -47.5t-94.5 -46t-63.5 -31.5q-4 0 -7 -1t-7 -1 q-12 0 -24.5 19.5t-23.5 44t-19.5 46t-10.5 25.5q-6 12 -19.5 48t-28.5 77t-27.5 76.5t-12.5 46.5l-1 6t-1 12zM260 514q23 -35 34 -77t21 -64l56 8z" />
<glyph unicode="t" horiz-adv-x="565" d="M0 926q0 -47 19.5 -73t54.5 -54v-447q0 -10 -11.5 -21.5t-25.5 -21.5t-19 -13l-16 -9q10 -47 40 -87t65.5 -75t72.5 -65.5t62 -59.5q20 8 64 44t89 82t79 94t34 83q0 33 -16.5 43t-37 8t-41 -8t-28.5 -6v491q24 -6 44 -6q37 1 61 19q38 28 38 114q0 39 -18 62.5t-43 36.5 t-51.5 18.5t-40.5 9.5v385l-62 64q-37 -96 -68.5 -172t-66.5 -142.5t-77 -129t-99 -132.5q0 -2 -1 -13t-1 -19z" />
<glyph unicode="u" horiz-adv-x="974" d="M0 1024q0 -35 8 -47t22.5 -13t32 3t35.5 4v-555q0 -2 -9 -13.5t-15 -19.5q-6 -2 -24.5 -13.5t-22.5 -17.5l-1 -5t-1 -7q0 -8 1 -14l1 -7q10 -47 43.5 -96t72.5 -94t74 -79t49 -50h13q31 0 57 25.5t53 55.5t54.5 55.5t62.5 25.5q31 0 54.5 -25.5t45 -55.5t46 -55.5 t57.5 -25.5q25 0 64.5 26.5t76.5 66.5t63.5 83t26.5 78q0 39 -15.5 49t-35 12t-34.5 6.5t-15 30.5v574q29 35 41 60.5t12 68.5v22q-4 8 -5 11.5t-7.5 9.5t-18.5 20.5t-37 44.5q-18 20 -41.5 47t-46 52.5t-40 47t-25.5 31.5q-41 -74 -95.5 -129t-119.5 -94v-16v-17 q2 -8 8 -25.5t13 -38t15.5 -37.5t12.5 -26v-575q0 -12 -19.5 -27.5t-36 -24.5t-18.5 -12q0 18 1 51t1 74q0 43 1 93.5t1 101.5q0 104 -2 193.5t-2 125.5q0 43 -10 109t-31.5 127t-52.5 105t-72 44q-6 0 -13 -1t-11 -1q-10 -10 -33 -37.5t-49.5 -58.5t-51 -58.5t-34.5 -35.5 q-18 -23 -32.5 -36t-24 -25.5t-13.5 -26.5t-4 -39z" />
<glyph unicode="v" horiz-adv-x="829" d="M0 1214q0 -43 3 -75.5t12.5 -61t22.5 -56.5t36 -63v-542l-10 -6q-11 -7 -24 -17t-25.5 -21.5t-12.5 -19.5q0 -20 21.5 -54t55.5 -73t75 -79t77.5 -72.5t66.5 -53t40 -20.5q2 0 21.5 12.5t25.5 20.5l96 94q31 31 83 52.5t103.5 49t88.5 70.5t37 117v606q0 6 -3.5 20.5 t-6.5 29.5t-8 28.5t-7 17.5q-10 20 -33.5 53t-47 64t-42 53.5t-20.5 22.5h-25l-205 -172l-178 235q31 -12 53.5 -5t39 28.5t24.5 51.5t8 64q-63 0 -124.5 -8t-110 -38.5t-78 -90t-29.5 -162.5zM408 446v512q0 20 18 29.5t31 9.5v-614z" />
<glyph unicode="w" horiz-adv-x="1099" d="M0 1190q0 -88 15.5 -145.5t58.5 -114.5v-559q-29 -23 -39 -44.5t-10 -68.5q0 -16 26.5 -60t60 -90.5t66.5 -81t43 -34.5q4 0 12.5 4t12.5 4l143 188l7 2q7 3 12 3q39 0 72.5 -31t66.5 -67t64.5 -66.5t68.5 -30.5q12 0 45 22.5t75 58.5t89 81t85 90t63.5 87t25.5 71v598 q0 33 -19.5 85t-46 101t-55.5 85t-47 36q-29 0 -51.5 -25.5t-43 -55.5t-42 -55.5t-45.5 -25.5q-2 0 -7 3l-4 3q-37 35 -54 63.5t-29.5 50t-28 34t-47.5 12.5q-55 0 -94 -47t-84 -113q-31 66 -80 109t-88 77l96 72l1 5q1 5 1 7q0 33 -11.5 48.5t-26.5 20.5t-31.5 4t-28.5 -1 q-197 0 -197 -309zM389 332v639l43 -4v-609zM727 408v522q0 29 17.5 39t29.5 10v-614q-12 0 -29.5 7t-17.5 36z" />
<glyph unicode="x" horiz-adv-x="735" d="M0 94q0 -119 27.5 -201.5t75 -135t109.5 -76t132 -23.5q47 0 94 10t84 39t59.5 79t22.5 132q0 139 -98 139q-37 0 -60.5 -20.5t-37 -55t-18.5 -79.5t-5 -95q-4 0 -15.5 -1t-25.5 -2t-26.5 -2t-14.5 -1q-31 0 -66.5 7.5t-67.5 29t-53.5 60.5t-21.5 100q0 66 19.5 115 t68.5 49q25 0 45.5 -10.5t41 -23.5t40 -23.5t41.5 -10.5q18 0 63.5 44t93.5 101.5t85 112t37 76.5q0 2 -2 9l-2 7q-2 8 -10.5 21.5t-14.5 15.5h-10q-29 0 -53.5 -20.5t-57.5 -20.5q-12 0 -29.5 5.5t-17.5 35.5v461h25q18 -80 41.5 -115.5t66.5 -35.5q27 0 51.5 16t43 44 t29.5 63.5t11 76.5q0 29 -12 86.5t-31.5 114.5t-43 100t-48.5 43q-4 0 -8 -2l-4 -2l-145 -213q-16 27 -37 65t-45.5 71.5t-52 57t-58.5 23.5q-4 0 -13 -2l-9 -2l-191 -284q-6 -8 2 -35t23 -33q18 -10 38.5 -5t36.5 5q18 0 30.5 -13.5t12.5 -58.5v-426q-72 -78 -108.5 -170 t-36.5 -217z" />
<glyph unicode="y" horiz-adv-x="636" d="M0 1120q0 -61 8 -116.5t18.5 -109.5t18.5 -111.5t8 -120.5q0 -102 -14 -185.5t-14 -179.5q0 -39 16 -81t40.5 -76t51.5 -56.5t49 -22.5q2 0 6 1l5 1q8 8 28.5 29t44 43.5t44 44t28.5 31.5q0 -8 1 -26.5t1 -39.5v-61q0 -76 -7 -125t-24.5 -89t-46 -80t-69.5 -95 q2 -18 12 -26.5t22.5 -11.5t23.5 -2t17 1q39 0 96.5 43t109.5 108.5t89 143.5t37 147v883q-6 23 -15.5 54.5t-25.5 47.5l-78 119l-5 1t-7 1q-4 0 -8 -1l-4 -1l-119 -112l-49 -35l-121 182v18q0 12 8 23.5t20.5 22t24.5 20.5t21 22q-16 51 -30.5 64.5t-43.5 13.5 q-47 0 -79 -23.5t-51.5 -64.5t-28.5 -95t-9 -118zM313 385v485l25 37q27 -70 27 -147v-146v-39q0 -29 -2.5 -54t-2.5 -54v-37q-12 -45 -47 -45z" />
<glyph unicode="z" horiz-adv-x="591" d="M0 270q0 -82 12.5 -157.5t42 -134t76.5 -94.5t117 -36q78 0 136 41t97 109t58.5 155t19.5 179q0 70 -12 131t-26.5 113.5t-27 97.5t-12.5 86q0 4 2 10l2 6l47 64l2 6q1 6 1 10q0 45 -31 45q-12 0 -27.5 -3t-25.5 -3q0 25 1 69v46v49q-1 51 -7.5 103t-21.5 95t-41 70 t-67 27q-4 0 -12 -1t-10 -1q-10 -10 -33.5 -33t-50.5 -47.5t-51.5 -47t-32.5 -32.5q-6 -8 -18.5 -22.5t-24.5 -30t-20.5 -27.5t-8.5 -16q-6 -16 3.5 -40t19.5 -24h121q4 0 11 -23.5t13 -39.5v-19q0 -55 -26.5 -76.5t-59.5 -34t-59.5 -28.5t-26.5 -63q0 -8 2 -20.5t2 -14.5 q0 -4 3 -18.5t8.5 -30t8.5 -29.5t3 -19q0 -6 -11.5 -34.5t-23.5 -60.5t-23.5 -60.5t-11.5 -34.5q0 -8 -3 -44t-3 -73v-39zM211 41v385q0 14 1 48t7 67.5t17.5 59.5t31.5 26v-586q0 -25 6.5 -39t10.5 -21.5t2 -8.5t-17 -1q-29 0 -44 10.5t-15 59.5z" />
<glyph unicode="{" horiz-adv-x="376" d="M-78 94q4 -23 14.5 -55.5t28.5 -48.5l78 -117l4 -2t6 -2q4 0 9 2l4 2l120 113l43 28l-43 154q-29 63 -28 147q-2 199 -2 381q0 184 14 328.5t51 239t109 114.5q-4 18 -13.5 26.5t-21.5 11.5t-23.5 2t-17.5 -1q-39 0 -96.5 -43t-109.5 -107.5t-89 -143.5t-37 -148v-881z M229 14l4 6z" />
<glyph unicode="|" horiz-adv-x="507" d="M14 1153q0 14 8.5 34.5t33 58.5t68.5 102.5t114 167.5q72 -86 125 -176.5t81 -176.5l4 -11q3 -11 3 -17q0 -43 -12.5 -69t-28 -53.5t-27.5 -67.5t-12 -109q0 -31 3 -106t7 -158t8 -155.5t8 -101.5q80 18 80 -98q0 -43 -27.5 -107.5t-65.5 -126t-77 -104.5t-59 -43 q-18 0 -46 39t-52.5 93.5t-42 110.5t-17.5 91v852q-4 0 -13 5t-20.5 12.5t-19.5 16.5t-10 15l-2 11q-2 10 -4.5 24t-4.5 27.5t-2 19.5z" />
<glyph unicode="}" horiz-adv-x="376" d="M-76 1378q2 18 11.5 26.5t21.5 11.5t24.5 2t18.5 -1q39 0 96.5 -43t109.5 -107.5t89 -143.5t37 -148v-881q-6 -23 -16.5 -55.5t-26.5 -48.5l-78 -117l-4 -2t-6 -2q-4 0 -9 2l-6 2l-118 113l-41 28l41 154q27 66 26 147q2 199 3 382.5t-13 327.5t-50 238.5t-110 114.5z M20 20l7 -6z" />
<glyph unicode="~" horiz-adv-x="837" d="M2 713l225 205l135 -156q16 29 39 69.5t54 77.5q6 8 35.5 -1t69.5 -28.5t85 -45t82 -49t59.5 -41t20.5 -21.5l-225 -205l-121 129q-16 -25 -46 -55.5t-63 -65.5q-6 -8 -35.5 1.5t-68.5 28.5t-84 45t-82 49.5t-60.5 41t-19.5 21.5z" />
<glyph unicode="&#xa1;" horiz-adv-x="497" d="M-6 260q0 80 78 68q2 20 5 71.5t7 108.5t7 108.5t3 71.5q0 49 -11 78t-25.5 48.5t-26 37.5t-11.5 49q0 6 2 13l3 6l168 231q-35 37 -68 83t-33 116q0 37 13.5 72.5t34 63t47 45t53.5 17.5q49 0 83.5 -49t34.5 -119q0 -23 -5 -55.5t-14 -66t-22.5 -63.5t-29.5 -44 l168 -231q6 -8 -3.5 -31t-19.5 -37q-6 -8 -30.5 -19.5t-30.5 -11.5v-592q0 -25 -17.5 -64.5t-42 -77.5t-51.5 -64.5t-45 -26.5q-20 0 -57 30.5t-74 72.5t-63.5 87t-26.5 74z" />
<glyph unicode="&#xa2;" horiz-adv-x="684" d="M0 444q0 -23 13.5 -48t36 -51t51 -49.5t57.5 -41.5q2 -35 14 -79t27.5 -83t31 -66.5t25.5 -27.5t28.5 22.5t37 58.5t36 79t27.5 84q29 16 62.5 36.5t64.5 40t56.5 36t37.5 24.5q31 20 39 28.5t8 36.5q0 16 -7 30.5t-30 14.5q-35 0 -64.5 -12t-66.5 -12q-29 0 -72.5 10 t-72.5 33q-4 66 -5 140.5t-1 123.5v53v6q14 -33 38.5 -65.5t61.5 -32.5q18 0 54 9.5t73 25.5t64.5 37.5t27.5 46.5v12q-4 8 -17 35t-28.5 55.5t-31 54t-21.5 33.5q-4 2 -13.5 16.5t-19.5 32t-23.5 31t-27.5 13.5q-2 0 -5 -1t-5 -1q-12 -4 -33.5 -10.5t-50.5 -16.5 q-41 139 -129 287q-43 -86 -69.5 -139.5t-41 -86t-19.5 -48t-5 -27.5q0 -6 1 -17.5l2 -23t2 -20.5l1 -9q-16 -4 -37 -15.5t-39 -26.5t-30.5 -33.5t-12.5 -37.5v-465z" />
<glyph unicode="&#xa3;" horiz-adv-x="567" d="M0 61q63 0 98 78q55 -51 101.5 -79.5t92.5 -42t99 -15.5t127 -2q0 47 -12 82t-49 57q37 37 56 80t19 100q0 111 -83 111q-27 0 -46.5 -3t-42.5 -32v64q43 4 71 9t45.5 19.5t24.5 41t7 75.5q0 10 -1 40t-1 40q-6 0 -27.5 4t-45 9t-44 10.5t-29.5 7.5q-6 2 -14 13t-8 20 v415q0 2 8 15.5t14 15.5h15q29 0 50 -19.5t56 -19.5v72l-215 286h-49q-2 0 -25.5 -21.5t-55.5 -52t-63.5 -63.5t-45.5 -53q-10 -8 -18.5 -33t-6.5 -33q0 -4 6 -19t14.5 -30.5t15.5 -29t11 -15.5v-448q-31 -20 -40 -40t-9 -57q0 -33 8 -60.5t18.5 -55t18.5 -56t8 -63.5 q0 -43 -8 -83t-18.5 -79t-18.5 -78t-8 -82z" />
<glyph unicode="&#xa4;" horiz-adv-x="1650" d="M0 625l66 30l14 389l-53 -14zM109 825q0 -14 1 -24t1 -27q25 -176 106 -176q25 0 57 16l-4 70q-16 -6 -29.5 -8t-23.5 -2q-61 0 -61 76q0 45 12 84.5t31 74.5q23 29 38 41.5t37 12.5q8 0 14.5 -1t16.5 -6l4 97q-201 -49 -200 -228zM330 696q18 -68 94 -67q12 0 21.5 1 t25.5 1q82 -1 107 278q-25 133 -115 133h-14h-15q-104 -96 -104 -346zM383 801v26q37 123 84 123q33 0 51 -51q8 -4 8 -18v-29q0 -31 -4 -57.5t-22 -57.5q-47 -35 -74 -35q-43 0 -43 99zM608 1020l8 -395l39 10v192q106 -196 174 -196v389l-53 24l-6 -274zM879 641l69 31 l13 387l-50 -15zM991 668h58q23 45 36 67.5t35 22.5q31 0 66 -90l33 -17l-5 293q-20 125 -71 125q-10 0 -17.5 -1t-19.5 -9q-100 -193 -115 -391zM1077 840l58 135l34 -135h-92zM1262 1036l8 -395l41 10v189q104 -191 172 -191v393l-49 17l-13 -273zM1520 612l34 -49l43 62 l-41 26zM1546 758l41 -10l37 288l-68 23z" />
<glyph unicode="&#xa5;" horiz-adv-x="829" d="M0 1120q0 -61 8 -116.5t18.5 -109.5t18.5 -111.5t8 -120.5q0 -102 -14 -185.5t-14 -179.5q0 -39 16 -81t40.5 -76t51.5 -56.5t49 -22.5q2 0 6 1l5 1q6 8 26.5 29t44 43.5t45 44t29.5 31.5q0 -8 1 -26.5t1 -39.5v-61q0 -76 -7 -125t-24.5 -89t-46 -80t-69.5 -95 q2 -18 13 -26.5t23.5 -11.5t23.5 -2t15 1q39 0 96.5 43t109.5 108.5t89 143.5t37 147v107q25 -4 37 -5t16 1q51 35 85 52t50 52q2 2 -1 6l-3 4l-184 82v160q55 -10 66 -4q25 18 46 30.5t37.5 22.5t29 21.5t22.5 27.5q0 4 -3 7l-3 4l-195 88v227q-6 23 -15.5 54.5t-25.5 47.5 l-78 119l-5 1t-7 1q-4 0 -8 -1l-4 -1l-119 -112l-49 -35l-121 182v18q0 12 8 23.5t20.5 22t24.5 20.5t21 22q-16 51 -30.5 64.5t-43.5 13.5q-47 0 -79 -23.5t-51.5 -64.5t-28.5 -95t-9 -118zM313 385v258q12 -4 23.5 -7t28.5 -9v-52q0 -29 -2.5 -54t-2.5 -54v-37 q-12 -45 -47 -45zM313 686v184l25 37q27 -70 27 -147v-49z" />
<glyph unicode="&#xa6;" horiz-adv-x="507" d="M14 1153q0 14 8.5 34.5t33 58.5t68.5 102.5t114 167.5q72 -86 125 -176.5t81 -176.5l4 -11q3 -11 3 -17q0 -43 -12.5 -69t-28 -53.5t-27.5 -67.5t-12 -109q0 -31 3 -106t7 -158t8 -155.5t8 -101.5q80 18 80 -98q0 -43 -27.5 -107.5t-65.5 -126t-77 -104.5t-59 -43 q-18 0 -46 39t-52.5 93.5t-42 110.5t-17.5 91v852q-4 0 -13 5t-20.5 12.5t-19.5 16.5t-10 15l-2 11q-2 10 -4.5 24t-4.5 27.5t-2 19.5z" />
<glyph unicode="&#xa8;" horiz-adv-x="743" d="M0 1620q0 -35 13.5 -69.5t34 -62.5t46 -45.5t51.5 -17.5q49 0 85 48.5t36 113.5q0 104 -40 155.5t-128 67.5q-35 -37 -66.5 -82t-31.5 -108zM451 1622q0 -35 13 -69.5t33.5 -62.5t46 -45.5t52.5 -17.5q47 0 83 48.5t36 113.5q0 104 -39 157t-129 69q-33 -37 -64.5 -83 t-31.5 -110z" />
<glyph unicode="&#xa9;" d="M2 307q0 -35 45 -87t106.5 -101t122 -85t91.5 -36q6 0 14 1l8 1q6 2 23.5 20.5t37 41t37 42t21.5 23.5q66 47 111 75.5t74.5 52.5t46 50.5t24.5 72.5t9 119.5t1 188.5v47q0 35 -1 72t-1 72v49q-10 55 -29.5 115.5t-47 114.5t-62.5 96t-78 59q-4 -8 -25.5 -23.5t-45 -31 t-45 -27.5t-25.5 -15q-25 -14 -87.5 -32.5t-126 -37t-112.5 -34.5t-49 -25v-702q-23 0 -30 -15.5t-7 -37.5v-23zM248 489v336q0 29 20.5 49.5t36.5 30.5q10 4 35 14.5t51.5 22.5t50 24.5t31.5 18.5h6q6 0 12.5 -10t12.5 -21.5t11 -21.5t7 -10l47 -127l1 -3q1 -4 1 -8 q0 -18 -13 -33.5t-31.5 -27.5t-37 -19.5t-26.5 -7.5q-12 0 -21.5 12.5t-16.5 29t-13 32.5t-11 25v-226q0 -16 9.5 -28.5t24 -20.5t28.5 -12t24 -4q16 0 32 8t32 8q10 0 15 -9t5 -22q0 -20 -5 -25t-21 -22q-8 -8 -28.5 -26.5t-44 -39t-43 -37.5t-28.5 -24l-4 -2q-4 -2 -8 -2 q-16 0 -39.5 18.5t-46 45t-39 57.5t-16.5 57z" />
<glyph unicode="&#xaa;" horiz-adv-x="397" d="M0 1108q0 -66 9 -114t44 -93q16 -29 35 -29q12 0 24.5 17.5t25 38t23.5 38t21 17.5q4 0 13.5 -17.5t19.5 -38t23.5 -38t27.5 -17.5h8q4 8 15.5 22.5t24 30t24.5 30t18 20.5q8 14 11 14q4 0 4 17q0 8 -7.5 22t-11.5 14t-8 -5t-10 -5q-4 0 -7 8.5t-5.5 19.5t-2.5 21v15v8 v43v18v41v58q0 12 1.5 27.5t3.5 31.5q8 12 20 17.5t12 25.5q0 16 -8 27.5t-20.5 19.5t-24.5 14.5t-18 12.5q-23 20 -40.5 48t-39.5 28q-14 0 -20.5 -8.5t-22.5 -20.5q-23 -16 -50.5 -31.5t-51 -35t-41 -48.5t-19.5 -72v-20v-68v-20v-84zM147 1092v53v108v21v45v10l3 27h4h2 q4 0 8 -9.5t8 -15.5l6 -8v-256q0 -6 -7 -19.5t-11 -17.5h-2h-2l-6 6q0 16 -1.5 28.5t-1.5 27.5z" />
<glyph unicode="&#xab;" horiz-adv-x="684" d="M2 692q-4 -10 7 -55t28.5 -106.5t39 -130t41 -126t35 -93.5t19.5 -31l152 301l-193 200q8 10 33.5 41t54.5 67t55.5 70.5t40.5 53.5q6 8 -1 37.5t-21 68.5t-32.5 83t-36 79t-30 56.5t-16.5 17.5zM334 705q-4 -10 7 -55.5t28.5 -107t39 -130t41 -126t35 -93t19.5 -31.5 l151 301l-192 201q8 10 33.5 40.5t54.5 66.5t55.5 71t40.5 53q6 8 -1 38t-21.5 68.5t-33 82.5t-35.5 79t-30.5 56.5t-15.5 17.5z" />
<glyph unicode="&#xac;" horiz-adv-x="763" d="M2 713q-4 -4 23.5 -18.5t73.5 -34t103.5 -42t115 -42t107.5 -34t83 -18.5l-74 -131l148 -254q4 -4 17 21.5t30.5 66.5t36 91.5t32 94.5t20.5 76.5t3 38.5q-23 25 -34 45.5t-23 36.5q23 20 40 40t29 48q2 2 -2 8l-4 7l-377 205z" />
<glyph unicode="&#xad;" horiz-adv-x="425" d="M2 709l188 198l203 -198l2 -7q2 -6 0 -10q-6 -29 -15 -47t-21.5 -35.5t-29 -37t-34.5 -46.5q-4 -8 -28.5 1.5t-57.5 27.5t-71 43t-69.5 47.5t-51 39.5t-15.5 24z" />
<glyph unicode="&#xae;" d="M2 307q0 -35 45 -87t106.5 -101t122 -85t91.5 -36q6 0 14 1l8 1q6 2 23.5 20.5t37 41t37 42t21.5 23.5q66 47 111 75.5t74.5 52.5t46 50.5t24.5 72.5t9 119.5t1 188.5v47q0 35 -1 72t-1 72v49q-10 55 -29.5 115.5t-47 114.5t-62.5 96t-78 59q-4 -8 -25.5 -23.5t-45 -31 t-45 -27.5t-25.5 -15q-25 -14 -87.5 -32.5t-126 -37t-112.5 -34.5t-49 -25v-702q-23 0 -30 -15.5t-7 -37.5v-23zM205 831q0 23 7 32t30 32q6 6 18 19.5t24.5 28.5t23.5 29.5t18 18.5q20 -12 32.5 -22.5t21.5 -22.5t18.5 -28.5t23.5 -40.5h12l84 114q37 -37 49.5 -81 t12.5 -103v-57q-2 -6 -10.5 -19.5t-17.5 -26t-18.5 -22.5t-15.5 -10l-2 -2t-4 -2q-4 0 -5 2l-1 2l-12 14l-50 96l-10 -16v-240q0 -18 17 -18h20q23 0 33 17.5t33 17.5q18 0 18 -31v-18q-35 -47 -69.5 -91.5t-73.5 -83.5q-4 0 -9.5 -1t-9.5 -1t-34.5 21.5t-63.5 50.5 t-57.5 54.5t-18.5 35.5l47 64v223q0 12 -9 17t-21.5 9.5t-21.5 11.5t-9 27z" />
<glyph unicode="&#xaf;" horiz-adv-x="776" d="M-53 1704q-6 -2 39 -11.5t116.5 -22.5t158.5 -26.5t165 -22.5t135 -14t68 1q90 29 146 44t87 44q4 2 -1 5l-5 3l-473 102z" />
<glyph unicode="&#xb0;" horiz-adv-x="413" d="M0 1036v13q0 29 20 28v350q0 4 25 12.5t56.5 17.5t61.5 18.5t42 15.5q2 0 13 7t23.5 15.5t22.5 15.5t15 9q20 -6 37.5 -27.5t30.5 -49t22.5 -58.5t15.5 -55v-25q0 -16 1 -35.5t1 -36.5v-24q0 -86 -3 -127t-16.5 -63.5t-40 -38t-73.5 -50.5q-2 -2 -11.5 -12t-19.5 -21.5 t-19 -20.5t-11 -9l-3 -1q-4 -1 -8 -1q-14 0 -45 18.5t-61.5 43t-53 50t-22.5 41.5zM193 1092q0 -10 8 -15.5t16 -5.5v260q0 10 -7 26.5t-17 20.5v-286z" />
<glyph unicode="&#xb1;" horiz-adv-x="559" d="M8 774l248 123l49 197l3 4q3 4 5 0q27 -20 39 -66t37 -112q6 -18 0 -82l141 -64l4 -4q3 -4 1 -6q-16 -35 -49 -51.5t-87 -50.5q-6 -4 -37 0q-10 -51 -18 -101.5t-15 -89.5t-12.5 -60.5t-7.5 -15.5l-86 297q-41 12 -81 25.5t-70.5 25t-48 19.5t-15.5 12zM20 201l250 123 l273 -123l4 -3q4 -3 0 -5q-16 -35 -49 -52.5t-84 -52.5q-6 -4 -39 2t-79 17.5t-96 27t-91 29.5t-67 24.5t-22 12.5z" />
<glyph unicode="&#xb2;" horiz-adv-x="333" d="M0 1104l174 184l-16 31q-4 -8 -9.5 -24.5t-12.5 -33t-15 -28.5t-21 -12q-6 0 -23.5 7t-33.5 19.5t-29.5 28.5t-13.5 35v8q2 4 9 21.5t13.5 39t12.5 41t10 25.5q2 0 6 10t8 22.5t10.5 22.5t14.5 10q2 0 3 -1t3 -1q8 -4 30.5 -15t47.5 -25.5t47.5 -25.5t32.5 -16 q16 -10 35.5 -29.5t19.5 -47.5v-88l-110 -144q6 8 12 8q8 0 24.5 -7t34 -19.5t30.5 -28.5t13 -35q0 -2 -1 -4l-1 -2q0 -6 -6 -24.5t-14.5 -39t-15.5 -38t-9 -23.5q-2 -2 -5 -13t-8 -23.5t-11.5 -21.5t-12.5 -9h-8q-10 4 -30.5 10t-45 14t-46 14.5t-30.5 10.5 q-16 10 -36.5 31.5t-20.5 50.5zM113 1012l37 -15q2 6 5 18.5t6 28t7 31t8 23.5z" />
<glyph unicode="&#xb3;" horiz-adv-x="352" d="M0 1018q0 -20 4 -25.5t21 -21.5q6 -8 26.5 -27.5t43 -40t44 -38t29.5 -21.5l4 -2t8 -2q16 0 41 18.5t47.5 45t39 57t16.5 57.5v336q0 29 -21.5 49t-38.5 31q-10 6 -32.5 18t-49 24.5t-51.5 22.5t-37 14h-4q-6 0 -13 -10t-13.5 -21.5t-10.5 -21.5t-6 -10q-4 -8 -7 -22.5 t-7 -30t-8.5 -28.5t-6.5 -19v-9q0 -18 13.5 -32.5t30 -24.5t34 -15t23.5 -5q29 0 36 21.5t13 37.5v-123l-37 25l-113 -82q-2 -4 12.5 -12.5t37 -17.5t48 -19.5t46.5 -16.5q-12 -23 -37 -34t-41 -11q-23 0 -36 8.5t-30 8.5q-12 0 -15 -9.5t-3 -21.5z" />
<glyph unicode="&#xb4;" horiz-adv-x="323" d="M0 1614q-2 -6 2 -6q4 -25 13.5 -42.5t22.5 -31.5t28.5 -28.5t33.5 -35.5q4 -8 21.5 10.5t40 50.5t47 71.5t45 75.5t32 60.5t9.5 26.5l-182 160l-111 -305z" />
<glyph unicode="&#xb5;" horiz-adv-x="636" d="M0 98q0 -70 37 -147.5t89 -143t108.5 -108.5t97.5 -43q6 0 17 -1t23.5 2t23 11.5t12.5 26.5q-41 55 -70 95t-46.5 80t-24.5 89t-7 125v61q0 20 2 39t2 27q8 -10 28.5 -31.5t43 -45t43 -43t29.5 -28.5l4 -1t6 -1q20 0 48 22.5t52.5 56.5t42 76t17.5 81q0 96 -15.5 179 t-15.5 186q0 63 8 120.5t18.5 111.5t18.5 109.5t8 116.5q0 63 -9 117.5t-28.5 95.5t-52.5 64.5t-78 23.5q-29 0 -43 -13t-31 -65q6 -12 18.5 -22t25 -20.5t21.5 -20.5t9 -25v-18l-121 -182l-47 35l-121 112l-4 1q-4 1 -8 1q-2 0 -7 -1l-5 -1l-76 -119q-16 -16 -26.5 -47.5 t-16.5 -54.5v-883zM236 575v39v146q0 41 8 77.5t20 69.5l23 -37v-485q-35 0 -47 45v37q0 29 -2 54.5t-2 53.5z" />
<glyph unicode="&#xb6;" horiz-adv-x="2043" d="M0 752l12 -99l150 -96l-82 -94q0 -74 39 -74l213 -57l-39 -62v-71l346 -41l-12 -95l43 -38l327 75v-114l43 -19l252 191l80 -117l72 22l129 207q90 -78 137 -77q33 0 51 43l17 227l129 -41q43 14 43 80v16q0 20 -2 23l-80 149h119l24 80q0 2 3 3t3 3q0 49 -176 146 q94 14 94 108v10q0 12 -2 13l-266 98q55 18 55 113l-28 36h-322l12 117l-92 13l-266 -74l-12 20l12 54l-53 61l-238 -172l-121 111q-61 -33 -161 -224l-148 74h-8q-31 0 -44 -63.5t-13 -204.5l-160 22l-17 -112l82 -136zM39 709l174 20l-94 170l-15 80l175 -18l26 264 q80 -82 131 -82q16 0 33 8l145 225l105 -112l242 166l26 -13l10 -117l351 76l-29 -135h360l-106 -111l307 -96l16 -37h-16l-135 -55l217 -156l12 -34l-172 -23q109 -172 109 -227q0 -6 -1 -10.5t-3 -10.5l-172 37l-13 -262l-176 76l-131 -232l-123 117l-266 -192l14 75 l-43 80l-327 -94l37 131l-375 19l108 110l-321 98l147 97zM332 530l57 27l8 330l-41 -13zM424 702q0 -12 1 -21t1 -26q20 -147 92 -147q12 0 21.5 4t25.5 8l-4 60q-29 -6 -43 -7q-55 0 -55 64q0 66 41 137q31 45 61 45q8 0 12.5 -1t14.5 -7l4 84q-172 -41 -172 -193z M614 590q14 -57 80 -58q10 0 18.5 2.5t18.5 2.5q72 -1 90 237q-14 113 -94 113h-14v-2h-11q-88 -86 -88 -295zM659 678v24q31 106 68 107q31 0 43 -43q10 -6 10 -18v-23q0 -43 -22 -98q-16 -16 -31.5 -22.5t-30.5 -6.5q-37 0 -37 80zM850 868l6 -338l37 11v161 q82 -165 141 -165v331l-41 19l-6 -234zM1079 545l58 24l12 332l-43 -14zM1178 567h47q27 76 59 76q33 0 53 -76l29 -14l-2 250q-14 106 -61 106q-8 0 -13.5 -1t-17.5 -9q-88 -166 -94 -332zM1247 715l51 112l27 -112h-78zM1407 883l2 -338l39 8v162q86 -164 143 -164v334 l-41 16l-6 -233zM1624 518l29 -39l39 51l-37 23zM1647 643l39 -8l26 248l-57 18z" />
<glyph unicode="&#xb7;" horiz-adv-x="303" d="M0 647q0 -35 13.5 -69.5t34 -62.5t46 -45t51.5 -17q49 0 85 48t36 113q0 104 -40 156t-128 68q-35 -37 -66.5 -82t-31.5 -109z" />
<glyph unicode="&#xb8;" horiz-adv-x="202" d="M0 45q49 0 99.5 -12.5t91 -41t66.5 -76.5t26 -120q0 -29 -3.5 -49t-9.5 -38.5t-17.5 -37t-25.5 -43.5l-69 -22q-59 4 -100.5 38.5t-55.5 100.5q4 31 19.5 46t36 24.5t41 15.5t36.5 18q-23 25 -46 51.5t-43.5 53.5t-33 50.5t-12.5 41.5z" />
<glyph unicode="&#xb9;" horiz-adv-x="249" d="M0 1372q0 6 4 13.5t16.5 22.5t33 40t52.5 68q68 -70 103 -140l1 -4t1 -6q0 -18 -6 -28.5t-12.5 -21.5t-12.5 -27.5t-6 -43.5v-41q0 -29 2 -61.5t3 -62t5 -38.5q39 6 39 -38q0 -18 -13 -44t-31.5 -49.5t-37 -41t-28.5 -17.5t-23.5 15.5t-26 37t-20.5 44t-8 36.5v334 q-4 0 -14.5 7t-14.5 13q-4 2 -5 14.5t-1 18.5z" />
<glyph unicode="&#xba;" horiz-adv-x="413" d="M0 1036v13q0 29 20 28v350q0 4 25 12.5t56.5 17.5t61.5 18.5t42 15.5q2 0 13 7t23.5 15.5t22.5 15.5t15 9q20 -6 37.5 -27.5t30.5 -49t22.5 -58.5t15.5 -55v-25q0 -16 1 -35.5t1 -36.5v-24q0 -86 -3 -127t-16.5 -63.5t-40 -38t-73.5 -50.5q-2 -2 -11.5 -12t-19.5 -21.5 t-19 -20.5t-11 -9l-3 -1q-4 -1 -8 -1q-14 0 -45 18.5t-61.5 43t-53 50t-22.5 41.5zM193 1092q0 -10 8 -15.5t16 -5.5v260q0 10 -7 26.5t-17 20.5v-286z" />
<glyph unicode="&#xbb;" horiz-adv-x="684" d="M0 463l193 201q-10 10 -35 40.5t-54.5 66.5t-56.5 71t-39 53q-6 8 1 38t21.5 68.5t33 82.5t36 79t30.5 56.5t15 17.5l177 -532q4 -10 -6.5 -55.5t-28 -108t-39 -131t-42 -126t-34.5 -92t-18 -30.5zM332 451l192 200q-10 10 -34.5 41t-54 67t-56.5 70.5t-39 53.5 q-6 8 1 37.5t21.5 68.5t33 83t36 79t29.5 56.5t16 17.5l176 -533q4 -12 -6 -57t-27.5 -106.5t-39 -130t-41 -125t-35 -92.5t-19.5 -31z" />
<glyph unicode="&#xbc;" horiz-adv-x="886" d="M0 1372q0 -6 1 -18.5t5 -14.5q4 -6 14.5 -13t14.5 -7v-334q0 -14 8 -36.5t20.5 -44t25.5 -37t24 -15.5q10 0 28.5 17.5t37 41t31.5 49t13 44.5q0 45 -39 38q-4 8 -5 38t-3 63t-2 61v41q0 27 6 43.5t12.5 27.5t12.5 21.5t6 28.5q0 2 -1 6l-1 4q-35 70 -103 140 q-33 -43 -53 -68t-32.5 -40t-16.5 -22.5t-4 -13.5zM118 182q3 -47 14 -92t26.5 -79t31.5 -34q20 0 56.5 25t72 61.5t65.5 78.5t42 77q14 49 3 71.5t-54 8.5q2 16 14 57t27.5 92.5t33 109.5t34 109.5t28.5 91.5t16 56q18 57 45 92t52.5 59.5t48 48t35.5 58.5q0 6 4 -2t4 -2v8 q-12 145 -103 291q-92 -86 -149 -140t-90 -86t-46.5 -47.5t-19.5 -25.5q-2 -4 -4 -14.5t-4 -21.5t-2 -21t2 -13q4 -10 19.5 -25.5t23.5 -15.5l-219 -702q-10 -27 -7 -74zM528 281q0 -8 25 -26.5t54.5 -38t54 -36t26.5 -20.5t5 -23.5t7.5 -41t7.5 -39t3 -19.5q4 -10 6 -19.5 t2 -17.5t14 -8q20 0 31.5 30.5t17.5 71.5t8.5 81t4.5 58q4 0 6 1.5t6 1.5q10 0 15 -9.5t16 -9.5q20 0 20 31v18q0 25 -8 45.5t-18.5 40t-18.5 41t-8 47.5q0 25 7 48.5t15.5 42t11.5 31.5t-3 18l-88 51q-27 -12 -44.5 -25.5t-29.5 -42.5l-12 9q-13 10 -27 22t-29.5 21.5 t-21.5 9.5q-8 0 -18.5 -12.5t-18.5 -29t-13.5 -31.5t-5.5 -20v-251zM651 322v167l13 15l10 -15v-135z" />
<glyph unicode="&#xbd;" horiz-adv-x="899" d="M0 1372q0 6 4 13.5t16.5 22.5t33 40t52.5 68q68 -70 103 -140l1 -4t1 -6q0 -18 -6 -28.5t-12.5 -21.5t-12.5 -27.5t-6 -43.5v-41q0 -29 2 -61.5t3 -62t5 -38.5q39 6 39 -38q0 -18 -13 -44t-31.5 -49.5t-37 -41t-28.5 -17.5t-23.5 15.5t-26 37t-20.5 44t-8 36.5v334 q-4 0 -14.5 7t-14.5 13q-4 2 -5 14.5t-1 18.5zM118 182q-3 47 7 74l219 702q-8 0 -23.5 15.5t-19.5 25.5q-2 2 -2 13q0 10 2 21t4 21.5t4 14.5q6 10 19.5 25.5t46.5 47.5t90 86t149 140q90 -145 103 -291v-8q0 -6 -4 2t-4 2q-12 -35 -35 -58.5t-48.5 -48t-52 -59.5 t-45.5 -92q-4 -16 -16 -56t-28.5 -91.5t-34 -109.5t-33 -109.5t-26.5 -92.5t-15 -57q43 14 54 -8.5t-3 -71.5q-12 -35 -42 -77t-65.5 -78.5t-71.5 -61.5t-57 -25q-16 0 -31.5 34t-26.5 79t-14 92zM563 266l174 185l-16 30q-4 -8 -9 -24.5t-12.5 -32.5t-15.5 -28.5t-18 -12.5 q-8 0 -24.5 7t-34 19.5t-31 29t-13.5 32.5v10q2 4 9.5 21.5t14.5 39t13 40t10 24.5q2 0 5 10.5t8.5 23.5t11.5 23.5t12 10.5q4 0 5 -1l1 -1l31 -15.5t48.5 -26t47 -25.5t31.5 -15q18 -10 37.5 -29.5t19.5 -48.5v-90l-112 -141q2 6 14 6q8 0 24.5 -7.5t34 -19.5t30.5 -27.5 t13 -33.5q0 -2 -2 -4l-2 -2q0 -6 -6 -24.5t-13 -39t-14.5 -39t-9.5 -24.5q-2 -2 -6 -12.5t-9 -23t-11 -21.5t-13 -9h-6q-10 4 -31.5 10t-45 14.5t-46 14.5t-30.5 10q-16 10 -37 31.5t-21 50.5zM676 174l39 -14q2 4 4 17t5 28.5t7 31t8 23.5z" />
<glyph unicode="&#xbe;" horiz-adv-x="948" d="M0 1022q0 -20 4 -25.5t21 -21.5q8 -6 27.5 -24.5t43 -40t44 -40t28.5 -22.5l4 -1q4 -1 8 -1q16 0 41 18.5t47.5 45t39 57t16.5 55.5v338q0 29 -21.5 48t-38.5 30q-10 6 -32.5 18t-49 24.5t-51.5 24t-37 15.5h-4q-6 0 -13 -10.5t-13.5 -22.5t-10.5 -22.5t-6 -10.5 q-6 -14 -14 -50t-15 -50v-6q0 -18 13.5 -33t30 -26t34 -16t23.5 -5q29 0 36 21.5t13 37.5v-123l-37 25l-113 -82q-4 -2 11.5 -10.5t38 -17.5t49 -19t45.5 -19q-12 -23 -37 -34t-41 -11q-23 0 -36 9.5t-30 9.5q-12 0 -15 -9.5t-3 -23.5zM180 182q4 -47 14.5 -92t26 -79 t31.5 -34q20 0 56 25t72 61.5t66.5 78.5t40.5 77q16 49 5 71.5t-56 8.5q2 16 14.5 57t28 92.5t33.5 109.5t34.5 109.5t29 91.5t16.5 56q18 57 44 92t52.5 59.5t48 48t33.5 58.5q2 6 6 -2t4 -2v8q-12 147 -104 291q-92 -86 -149.5 -139t-90.5 -85t-47 -48.5t-18 -26.5 q-2 -4 -3 -15.5t-2 -22.5t-2.5 -20.5t-1.5 -11.5q4 -10 20 -25.5t26 -15.5l-222 -702q-10 -27 -6 -74zM592 281q0 -8 23.5 -26.5t53 -38t54.5 -36t27 -20.5t5 -23.5t7 -41t7 -39t5 -19.5q4 -10 6 -19.5t2 -17.5t13 -8q20 0 32.5 30.5t18.5 71.5t8 81t4 58q2 0 6 1l4 2 q14 0 18.5 -9.5t14.5 -9.5q20 0 21 31v18q0 25 -8.5 45.5t-18.5 40t-18.5 41t-8.5 47.5q0 25 7.5 48.5t14.5 42t10 31.5t-3 18l-86 51q-27 -12 -44 -25.5t-30 -42.5l-12 9q-12 10 -26.5 22t-30 21.5t-21.5 9.5q-8 0 -18.5 -12.5t-18.5 -29t-13 -31.5t-5 -20v-251zM713 322 v167l14 15l10 -15v-135z" />
<glyph unicode="&#xbf;" horiz-adv-x="634" d="M0 322q0 -29 11.5 -52.5t27.5 -44t35.5 -36t38 -25.5t62.5 -31.5t94 -46.5t94.5 -48.5t62.5 -35.5q4 0 6 -2t6 -2q12 0 24.5 19.5t23 44t17.5 46t11 25.5q4 12 17.5 50t27.5 79t27.5 76t19.5 43l1 8t1 12q0 35 -25.5 68t-59.5 57.5t-67.5 39t-49.5 14.5q-18 0 -31 -15 l231 250l-133 217l-151 -176q2 0 -22 -21.5t-56.5 -52t-65.5 -61.5t-47 -49l-131 -172v-178zM260 444l105 111q-12 -16 -23.5 -39.5t-21 -48.5t-17.5 -48.5t-12 -37.5zM332 1364q0 -104 39 -155.5t129 -67.5q33 37 65.5 81t32.5 109q0 35 -13.5 70t-35 62.5t-48 45 t-50.5 17.5q-47 0 -83 -48t-36 -114z" />
<glyph unicode="&#xc0;" horiz-adv-x="776" d="M0 518q0 -123 20.5 -224t85.5 -192q16 -20 32 -37.5t38 -17.5q25 0 51.5 34t51 76t47 75.5t39.5 33.5q8 0 25.5 -33.5t39 -75.5t48 -76t54.5 -34h19q8 14 31.5 43t48 59.5t47 59.5t33.5 45q10 10 17 14t10 9.5t4 11.5t1 20q0 8 -4 20.5t-10 25t-12 20.5t-8 8 q-12 0 -18.5 -8t-18.5 -8t-18.5 17t-10.5 39.5t-5 42t-1 26.5v16v90v33v82v114q0 51 10 119q8 12 19.5 20.5t21.5 15.5t17.5 18.5t7.5 33.5q0 35 -17.5 56.5t-40 37t-47 27.5t-39.5 27q-25 18 -43 43.5t-35.5 49t-36 40t-40.5 16.5q-29 0 -45.5 -17.5t-42.5 -37.5 q-47 -35 -100.5 -64.5t-101.5 -68.5t-82 -96.5t-40 -145.5v-41q0 -37 -1 -67.5t-1 -67.5v-41v-166zM199 1765q-4 -2 8 -26.5t31.5 -60.5t44 -75.5t47 -71.5t40 -50.5t23.5 -10.5q18 20 33.5 35t28 29t21.5 31.5t13 42.5q4 0 2 6l-2 6l-108 305zM295 590v217v39v96v16l8 58h2 h6q6 -4 14.5 -21.5t16.5 -27.5l16 -21v-512q0 -14 -15 -38.5t-21 -35.5h-7h-4q-8 7 -8 17q-4 59 -6 111.5t-2 101.5z" />
<glyph unicode="&#xc1;" horiz-adv-x="776" d="M0 518q0 -123 20.5 -224t85.5 -192q16 -20 32 -37.5t38 -17.5q25 0 51.5 34t51 76t47 75.5t39.5 33.5q8 0 25.5 -33.5t39 -75.5t48 -76t54.5 -34h19q8 14 31.5 43t48 59.5t47 59.5t33.5 45q10 10 17 14t10 9.5t4 11.5t1 20q0 8 -4 20.5t-10 25t-12 20.5t-8 8 q-12 0 -18.5 -8t-18.5 -8t-18.5 17t-10.5 39.5t-5 42t-1 26.5v16v90v33v82v114q0 51 10 119q8 12 19.5 20.5t21.5 15.5t17.5 18.5t7.5 33.5q0 35 -17.5 56.5t-40 37t-47 27.5t-39.5 27q-25 18 -43 43.5t-35.5 49t-36 40t-40.5 16.5q-29 0 -45.5 -17.5t-42.5 -37.5 q-47 -35 -100.5 -64.5t-101.5 -68.5t-82 -96.5t-40 -145.5v-41q0 -37 -1 -67.5t-1 -67.5v-41v-166zM248 1614q-2 -6 2 -6q4 -25 13 -42.5t21.5 -31.5t29 -28.5t34.5 -35.5q6 -8 22.5 10.5t39 50.5t47 71.5t44 74.5t32 60.5t10.5 27.5l-185 160l-108 -305zM295 590v217v39v96 v16l8 58h2h6q6 -4 14.5 -21.5t16.5 -27.5l16 -21v-512q0 -14 -15 -38.5t-21 -35.5h-7h-4q-8 7 -8 17q-4 59 -6 111.5t-2 101.5z" />
<glyph unicode="&#xc2;" horiz-adv-x="776" d="M-18 1563q-4 -4 11 -21.5t40.5 -40t56.5 -47t58.5 -44t48 -29t26.5 -1.5q14 18 39 54t50.5 75t47 72t29.5 45l143 -258l213 205q2 4 -22.5 23.5t-65.5 46t-90 56.5t-93 53.5t-76.5 36.5t-39.5 9zM0 518q0 -123 20.5 -224t85.5 -192q16 -20 32 -37.5t38 -17.5 q25 0 51.5 34t51 76t47 75.5t39.5 33.5q8 0 25.5 -33.5t39 -75.5t48 -76t54.5 -34h19q8 14 31.5 43t48 59.5t47 59.5t33.5 45q10 10 17 14t10 9.5t4 11.5t1 20q0 8 -4 20.5t-10 25t-12 20.5t-8 8q-12 0 -18.5 -8t-18.5 -8t-18.5 17t-10.5 39.5t-5 42t-1 26.5v16v90v33v82 v114q0 51 10 119q8 12 19.5 20.5t21.5 15.5t17.5 18.5t7.5 33.5q0 35 -17.5 56.5t-40 37t-47 27.5t-39.5 27q-25 18 -43 43.5t-35.5 49t-36 40t-40.5 16.5q-29 0 -45.5 -17.5t-42.5 -37.5q-47 -35 -100.5 -64.5t-101.5 -68.5t-82 -96.5t-40 -145.5v-41q0 -37 -1 -67.5 t-1 -67.5v-41v-166zM295 590v217v39v96v16l8 58h2h6q6 -4 14.5 -21.5t16.5 -27.5l16 -21v-512q0 -14 -15 -38.5t-21 -35.5h-7h-4q-8 7 -8 17q-4 59 -6 111.5t-2 101.5z" />
<glyph unicode="&#xc3;" horiz-adv-x="776" d="M-31 1612q-4 -4 19.5 -21.5t60.5 -41t82 -49t85 -45t69.5 -29t36.5 -1.5q29 35 58.5 66t45.5 55l123 -129l225 205q2 4 -20.5 21.5t-59.5 41t-82 49t-85 45t-69.5 29t-35.5 0.5q-33 -37 -54.5 -77.5t-37.5 -69.5l-137 156zM0 518q0 -123 20.5 -224t85.5 -192 q16 -20 32 -37.5t38 -17.5q25 0 51.5 34t51 76t47 75.5t39.5 33.5q8 0 25.5 -33.5t39 -75.5t48 -76t54.5 -34h19q8 14 31.5 43t48 59.5t47 59.5t33.5 45q10 10 17 14t10 9.5t4 11.5t1 20q0 8 -4 20.5t-10 25t-12 20.5t-8 8q-12 0 -18.5 -8t-18.5 -8t-18.5 17t-10.5 39.5 t-5 42t-1 26.5v16v90v33v82v114q0 51 10 119q8 12 19.5 20.5t21.5 15.5t17.5 18.5t7.5 33.5q0 35 -17.5 56.5t-40 37t-47 27.5t-39.5 27q-25 18 -43 43.5t-35.5 49t-36 40t-40.5 16.5q-29 0 -45.5 -17.5t-42.5 -37.5q-47 -35 -100.5 -64.5t-101.5 -68.5t-82 -96.5 t-40 -145.5v-41q0 -37 -1 -67.5t-1 -67.5v-41v-166zM295 590v217v39v96v16l8 58h2h6q6 -4 14.5 -21.5t16.5 -27.5l16 -21v-512q0 -14 -15 -38.5t-21 -35.5h-7h-4q-8 7 -8 17q-4 59 -6 111.5t-2 101.5z" />
<glyph unicode="&#xc4;" horiz-adv-x="776" d="M0 518q0 -123 20.5 -224t85.5 -192q16 -20 32 -37.5t38 -17.5q25 0 51.5 34t51 76t47 75.5t39.5 33.5q8 0 25.5 -33.5t39 -75.5t48 -76t54.5 -34h19q8 14 31.5 43t48 59.5t47 59.5t33.5 45q10 10 17 14t10 9.5t4 11.5t1 20q0 8 -4 20.5t-10 25t-12 20.5t-8 8 q-12 0 -18.5 -8t-18.5 -8t-18.5 17t-10.5 39.5t-5 42t-1 26.5v16v90v33v82v114q0 51 10 119q8 12 19.5 19.5t21.5 15.5t17.5 19.5t7.5 33.5q0 35 -17.5 56.5t-40 37t-47 27.5t-39.5 27q-23 18 -42 43.5t-36.5 49t-36 40t-40.5 16.5q-29 0 -45.5 -17.5t-42.5 -37.5 q-47 -35 -100.5 -64.5t-101.5 -68.5t-82 -96.5t-40 -145.5v-41q0 -37 -1 -67.5t-1 -67.5v-41v-166zM51 1653q0 -35 13.5 -70t35 -62.5t48 -45t51.5 -17.5q47 0 82.5 48t35.5 114q0 104 -38.5 155.5t-128.5 67.5q-33 -37 -66 -82t-33 -108zM295 590v217v39v96v16l8 58h2h6 q6 -4 14.5 -21.5t16.5 -27.5l16 -21v-512q0 -14 -14 -38.5t-22 -35.5h-7h-4q-8 7 -8 17q-4 59 -6 111.5t-2 101.5zM432 1655q0 -35 13.5 -70t35 -62.5t48 -45t51.5 -17.5q47 0 82.5 48t35.5 114q0 104 -39 155.5t-129 67.5q-33 -37 -65.5 -82t-32.5 -108z" />
<glyph unicode="&#xc5;" horiz-adv-x="776" d="M0 518v166v41q0 37 1 67.5t1 67.5v41q6 88 40 145.5t82 96.5t101.5 68.5t100.5 64.5q27 20 43 37.5t45 17.5q23 0 41 -16.5t35.5 -40t36 -49t42.5 -43.5q14 -14 39 -26.5t47.5 -28t40 -37t17.5 -56.5q0 -23 -7.5 -34t-17.5 -18t-21.5 -15.5t-19.5 -20.5q-10 -68 -10 -119 v-114v-82v-33v-90v-16q0 -6 1 -26t5 -42.5t10 -39.5t19 -17q12 0 18 8t19 8q2 0 8 -8t12 -20.5t10 -25t4 -20.5q0 -14 -1 -20t-4 -11.5t-10 -9.5t-17 -14q-10 -16 -33 -45t-47.5 -59.5t-48 -59.5t-31.5 -43h-19q-29 0 -55 34t-47.5 76t-39 75.5t-25.5 33.5q-16 0 -39 -33.5 t-47.5 -75.5t-51 -76t-51.5 -34q-23 0 -38 17.5t-32 37.5q-66 90 -86 191.5t-20 224.5zM186 1516v8q0 20 23 20v254q0 2 25.5 8t57.5 13.5t63.5 14.5t43.5 11q2 0 13.5 4t24 9.5t22.5 10.5t14 9q23 -6 40 -20.5t30.5 -34t22.5 -42t16 -40.5v-19q0 -12 1 -25.5t1 -25.5v-20 q0 -61 -3 -91t-15.5 -45.5t-39 -26.5t-75.5 -36q-4 -2 -14.5 -10t-20.5 -16.5t-18.5 -14.5t-10.5 -6l-3 -1t-7 -1q-16 0 -48 13.5t-64 31.5t-55.5 38t-23.5 30zM295 590q0 -49 2 -101.5t6 -111.5q0 -10 8 -17h4h7l21 35t15 39v512l-16 21q-8 10 -16.5 27.5t-14.5 21.5h-6h-2 l-8 -58v-16v-96v-39v-217zM387 1556q0 -8 8 -12t17 -4v191q0 4 -7.5 15t-17.5 15v-205z" />
<glyph unicode="&#xc6;" horiz-adv-x="1208" d="M0 518q0 -123 20.5 -224t85.5 -192q16 -20 32 -37.5t38 -17.5q25 0 51.5 34t51 76t47 75.5t39.5 33.5q8 0 25.5 -33.5t39 -75.5t48 -76t54.5 -34h19q10 12 29.5 38t42.5 54q51 -59 102 -99t96 -40q18 0 52 22.5t74 57.5t82 78t76 84t55.5 74.5t21.5 52.5q0 29 -13.5 40 t-35.5 11q-23 0 -39.5 -6t-33 -12.5t-33.5 -12.5t-40 -6t-51.5 10t-54 28.5t-44 45.5t-18.5 61q0 47 24.5 79t62.5 57.5t82 48t82 50.5t62.5 64.5t24.5 90.5q0 10 -1 25t-1 18l-168 352q-2 2 -19.5 13t-27.5 17h-12q-23 0 -62 -15t-84 -40.5t-93 -59.5t-87 -71 q-10 6 -18.5 11.5t-14.5 13.5q-25 18 -43 43.5t-35.5 49t-36 40t-40.5 16.5q-29 0 -45.5 -17.5t-42.5 -37.5q-47 -35 -100.5 -64.5t-101.5 -68.5t-82 -96.5t-40 -145.5v-41q0 -37 -1 -67.5t-1 -67.5v-207zM295 590v368l8 58h8q6 -4 14.5 -21.5t16.5 -27.5l16 -21v-512 q0 -14 -15 -38.5t-21 -35.5h-11q-8 7 -8 17q-4 59 -6 111.5t-2 101.5zM795 737v224q2 -4 9 -18.5t14 -30t14.5 -30t11.5 -18.5q4 -12 14 -36.5t10 -26.5q0 -12 -19.5 -27.5t-35.5 -25t-18 -11.5z" />
<glyph unicode="&#xc7;" horiz-adv-x="684" d="M0 352q0 -41 21.5 -90t55.5 -96t73.5 -86t76.5 -60q23 -43 56.5 -89t66.5 -83q-16 -12 -36.5 -18t-40 -15.5t-35 -24.5t-19.5 -46q12 -66 54 -100.5t102 -38.5l67 22q16 25 27.5 43.5t18 37t8.5 39t2 48.5q0 92 -40 152.5t-100 91.5q27 25 64 57.5t72.5 63t63.5 57.5 t40 39q33 29 41 42t8 54q0 23 -7 43.5t-30 20.5q-35 0 -64.5 -17.5t-66.5 -17.5q-18 0 -47 8t-55.5 24.5t-46 41t-19.5 57.5v446q8 -16 18.5 -47.5t24 -64.5t33 -57.5t45.5 -24.5q16 0 52 14.5t72 39t63.5 56t27.5 68.5v16q-4 10 -18.5 46t-29.5 78t-29.5 80t-18.5 52 q-4 2 -12.5 22.5t-19.5 44.5t-24.5 43t-27.5 19q-4 0 -6 -1t-6 -1q-20 -10 -67.5 -32.5t-99.5 -48t-100.5 -48t-68.5 -30.5q-16 -10 -37 -25.5t-39 -36t-30.5 -45t-12.5 -53.5v-670z" />
<glyph unicode="&#xc8;" horiz-adv-x="708" d="M0 416q0 -63 30.5 -136t78 -135.5t102.5 -104.5t102 -42q16 0 50 22.5t73 57.5t81 78t77 84t56.5 74.5t21.5 52.5q0 29 -12.5 40t-34.5 11q-43 0 -73 -18.5t-73 -18.5q-23 0 -51.5 10t-55 28.5t-45 45.5t-18.5 61q0 45 24.5 78t62.5 58.5t82 48t82 50t62.5 63.5t24.5 89 v45l-168 353q-2 2 -19.5 12t-27.5 18h-14q-23 0 -62 -15t-86 -42t-95 -61.5t-87 -73.5t-63.5 -80t-24.5 -78v-575zM154 1769q-4 -2 8 -26.5t31.5 -59t44 -74.5t47 -72t40 -50.5t21.5 -11.5q37 41 62.5 65.5t35.5 71.5q4 0 2 6l-2 6l-110 305zM287 735v223q2 -4 8 -18 t13 -29.5t14.5 -30t11.5 -18.5q6 -12 15 -36.5t9 -26.5q0 -10 -11 -21.5t-25.5 -20.5t-24.5 -15z" />
<glyph unicode="&#xc9;" horiz-adv-x="708" d="M0 416q0 -63 30.5 -136t78 -135.5t102.5 -104.5t102 -42q16 0 50 22.5t73 57.5t81 78t77 84t56.5 74.5t21.5 52.5q0 29 -12.5 40t-34.5 11q-43 0 -73 -18.5t-73 -18.5q-23 0 -51.5 10t-55 28.5t-45 45.5t-18.5 61q0 45 24.5 78t62.5 58.5t82 48t82 50t62.5 63.5t24.5 89 v45l-168 353q-2 2 -19.5 12t-27.5 18h-14q-23 0 -62 -15t-86 -42t-95 -61.5t-87 -73.5t-63.5 -80t-24.5 -78v-575zM211 1614q-2 -6 2 -6q4 -25 13.5 -42.5t21.5 -31.5t28.5 -28.5t34.5 -35.5q4 -8 21.5 9.5t39 49.5t46 71.5t45 75.5t33 61.5t10.5 27.5l-184 160l-109 -305z M287 735v223q2 -4 8 -18t14 -30.5t15.5 -30t9.5 -17.5q6 -12 15 -36.5t9 -26.5q0 -10 -11 -20.5t-24.5 -20.5t-24.5 -16z" />
<glyph unicode="&#xca;" horiz-adv-x="708" d="M-84 1589q-4 -4 12.5 -21.5t43 -40t59 -47t61.5 -43t51.5 -27.5t28.5 -1q14 16 39 52t51.5 75t49 72.5t32.5 46.5l152 -258l225 202q4 4 -22.5 25t-69.5 47.5t-95.5 55t-98.5 52t-81 38t-41 10.5zM0 416q0 -63 30.5 -136t78 -135.5t102.5 -104.5t102 -42q16 0 50 22.5 t73 57.5t81 78t77 84t56.5 74.5t21.5 52.5q0 29 -12.5 40t-34.5 11q-43 0 -73 -18.5t-73 -18.5q-23 0 -51.5 10t-55 28.5t-45 45.5t-18.5 61q0 45 24.5 78t62.5 58.5t82 48t82 50t62.5 63.5t24.5 89v45l-168 353q-2 2 -19.5 12t-27.5 18h-14q-23 0 -62 -15t-86 -42 t-95 -61.5t-87 -73.5t-63.5 -80t-24.5 -78v-575zM287 735v223q2 -4 8 -18t14 -30.5t15.5 -30t9.5 -17.5q6 -12 15 -36.5t9 -26.5q0 -10 -11 -20.5t-24.5 -20.5t-24.5 -16z" />
<glyph unicode="&#xcb;" horiz-adv-x="708" d="M0 416v575q0 37 24.5 78t63.5 80t87 73.5t95 61.5t86 42t62 15h14q10 -8 27.5 -18t19.5 -12l168 -353v-45q0 -53 -24.5 -89t-62.5 -63.5t-82 -50t-82 -48t-62.5 -57.5t-24.5 -79q0 -35 18.5 -61.5t45 -45t55.5 -28.5t51 -10q43 0 73 18.5t73 18.5q23 0 35 -11.5t12 -39.5 q0 -18 -21.5 -52t-56.5 -75t-77 -84t-81 -78t-72.5 -57.5t-50.5 -22.5q-47 0 -102 42t-102.5 104.5t-78 135t-30.5 136.5zM0 1659q0 63 31.5 109t66.5 83q88 -16 128 -68t40 -157q0 -66 -35.5 -114t-85.5 -48q-27 0 -52 17.5t-45.5 45t-34 62.5t-13.5 70zM287 735l10 7 q10 6 24.5 15t25.5 20t11 22q0 2 -9 26.5t-15 36.5q-4 4 -11.5 18.5t-14.5 30t-13 29.5t-8 18v-223zM408 1659q0 63 32.5 109t65.5 83q90 -16 129 -68t39 -157q0 -66 -36 -114t-83 -48q-25 0 -51.5 17.5t-48 45t-34.5 62.5t-13 70z" />
<glyph unicode="&#xcc;" horiz-adv-x="497" d="M2 895l166 223q4 2 14.5 18.5t32.5 16.5q12 0 23.5 -7t27.5 -28l166 -223l2 -6t2 -12q0 -29 -12 -47.5t-25.5 -38t-26 -46t-12.5 -73.5q0 -18 3.5 -69.5t6.5 -108t7 -106.5t8 -69q78 16 78 -63q0 -29 -26.5 -73t-63.5 -85t-74 -70.5t-57 -29.5q-18 0 -45 26.5t-51.5 63.5 t-42 75t-17.5 60v576q-8 0 -31.5 12t-27.5 20q-10 10 -20.5 33t-4.5 31zM57 1618l183 160l108 -305l2 -7q2 -6 -2 -6q-4 -25 -13 -42t-21.5 -31.5t-29 -29t-34.5 -34.5q-6 -8 -23.5 10.5t-40 50t-46 71.5t-43 76t-31 60.5t-9.5 26.5z" />
<glyph unicode="&#xcd;" horiz-adv-x="497" d="M2 895q-6 -8 4 -30.5t21 -33.5q4 -8 27.5 -20t31.5 -12v-576q0 -23 17.5 -60.5t42 -74.5t51 -63.5t45.5 -26.5q20 0 57 29.5t74 70.5t63.5 85t26.5 73q0 80 -78 63q-4 18 -8 68.5t-7 107t-6.5 107.5t-3.5 70q0 47 12.5 73.5t26 46t25.5 38t12 47.5q0 6 -2 12l-2 6 l-166 223q-16 20 -27.5 27.5t-23.5 7.5q-23 0 -33 -16.5t-14 -18.5zM74 1472q-2 -6 2 -6q10 -47 35.5 -71.5t62.5 -65.5q4 -8 20.5 10.5t40 50t48 71.5t44 76t32 60.5t8.5 26.5l-183 160l-108 -305z" />
<glyph unicode="&#xce;" horiz-adv-x="497" d="M-160 1438q-2 -4 12.5 -21.5t38 -39t51 -46t54.5 -42t46 -27t26 -0.5q12 16 34.5 51t46 71.5t44 69.5t28.5 45l135 -250l199 199q2 4 -22.5 23.5t-62.5 46t-83 56.5t-86 52.5t-70.5 35.5t-37.5 7zM2 895q-6 -8 4 -30.5t21 -33.5q4 -8 27.5 -20t31.5 -12v-576 q0 -23 17.5 -60.5t42 -74.5t51 -63.5t45.5 -26.5q20 0 57 29.5t74 70.5t63.5 85t26.5 73q0 80 -78 63q-4 18 -8 68.5t-7 107t-6.5 107.5t-3.5 70q0 47 12.5 73.5t26 46t25.5 38t12 47.5q0 6 -2 12l-2 6l-166 223q-16 20 -27.5 27.5t-23.5 7.5q-23 0 -33 -16.5t-14 -18.5z " />
<glyph unicode="&#xcf;" horiz-adv-x="497" d="M-90 1503q0 63 32.5 109.5t65.5 83.5q90 -16 129 -67.5t39 -155.5q0 -66 -36 -114t-83 -48q-25 0 -51 17.5t-47.5 45t-35 61t-13.5 68.5zM2 895l166 223q4 2 14.5 18.5t32.5 16.5q12 0 23.5 -7t27.5 -28l166 -223l2 -6t2 -12q0 -29 -12 -47.5t-25.5 -38t-26 -46 t-12.5 -73.5q0 -20 3.5 -70.5t6.5 -107t7 -106.5t8 -69q78 16 78 -63q0 -29 -26.5 -73t-63.5 -85t-74 -70.5t-57 -29.5q-18 0 -45 26.5t-51.5 63.5t-42 75t-17.5 60v576q-8 0 -31.5 12t-27.5 20q-10 10 -20.5 33t-4.5 31zM279 1507q0 63 31.5 108.5t66.5 82.5 q88 -16 127 -67.5t39 -155.5q0 -66 -36 -114t-83 -48q-25 0 -51.5 17.5t-47 45t-33.5 62.5t-13 69z" />
<glyph unicode="&#xd0;" horiz-adv-x="948" d="M2 623q-4 -4 31 -18.5t87 -33t111.5 -35t102.5 -22.5v-162q-14 -12 -37 -42.5t-23 -53.5q0 -6 19.5 -26.5t48.5 -49t63.5 -60.5t67.5 -58.5t56.5 -44t31.5 -17.5q10 0 41 18.5t71 47t84 63.5t80.5 71t60.5 67.5t24 51.5v576q0 25 -13.5 58.5t-32 67.5t-39 60.5 t-36.5 36.5q-14 12 -54 40t-86.5 58.5t-87.5 57t-59 37.5q0 2 -1 7t-1 7q0 18 12.5 31.5t27.5 29t27.5 38t12.5 59.5q-53 0 -101.5 -8.5t-86 -36t-60 -77.5t-22.5 -132q0 -113 48 -187.5t119 -132.5h-155v-200l-82 36zM610 383v479l47 -63v-480z" />
<glyph unicode="&#xd1;" horiz-adv-x="974" d="M0 1055q0 -37 15.5 -47.5t34 -13.5t33.5 -7t15 -29v-575q-4 -4 -15 -17.5t-23.5 -28.5t-21.5 -29.5t-11 -20.5q-4 -10 2 -23.5t14 -28t17.5 -25.5t13.5 -17l168 -193h24q2 0 23.5 21.5t52.5 52t62.5 63.5t52.5 56l24 30v15v18q-2 8 -11 31.5t-13 31.5v639l24 33l37 -33 v-765q0 -25 18.5 -60t44 -66.5t51 -53t40.5 -21.5q6 0 13 4t11 4l191 193q16 16 26.5 25t16.5 18.5t8 20.5t2 30q0 43 -23.5 63.5t-52.5 32.5v575q6 4 14.5 16.5t15.5 28t12 30t5 22.5q0 2 -17 26.5t-30 36.5l-96 96q-4 2 -18.5 20.5t-31 42t-30.5 43t-16 21.5l-4 1t-6 1 q-31 0 -64 -28.5t-66.5 -65.5t-65.5 -74.5t-58 -56.5q-12 29 -31 68t-41.5 73.5t-49 58t-57.5 23.5h-12q-31 -18 -60.5 -48.5t-58 -66.5t-53.5 -73t-43 -68q0 -2 -1 -12t-1 -18zM37 1630q-4 -4 19.5 -22.5t60.5 -42t82 -48t85 -44t69.5 -29.5t35.5 -2q29 35 59.5 66.5 t47.5 54.5l120 -127l226 202q4 4 -19.5 22.5t-60.5 42t-82 48.5t-86 44.5t-69.5 29.5t-35.5 2q-31 -37 -53 -78t-39 -70l-137 154z" />
<glyph unicode="&#xd2;" d="M2 307q0 -35 45 -87t106.5 -101t122 -85t91.5 -36q6 0 14 1l8 1q4 2 21.5 20.5t38 41t38 42t21.5 23.5q66 47 111 75.5t74.5 52.5t46 50.5t24.5 72.5t9 119.5t1 188.5v47q0 35 -1 72t-1 72v49q-10 55 -29.5 115.5t-46 114.5t-62.5 96t-79 59q-6 -6 -26.5 -21.5t-44 -31 t-44 -28.5t-26.5 -16q-25 -14 -87.5 -32.5t-126 -37t-112.5 -34.5t-49 -25v-702q-23 0 -30 -15.5t-7 -37.5v-23zM168 1722q-4 -2 8 -26.5t31.5 -59t44 -74.5t47.5 -72t39 -51.5t22 -11.5q37 41 63 66t36 72q4 0 2 6l-2 6l-109 305zM389 416v575q14 -14 30.5 -45t16.5 -51 v-518q-16 0 -31.5 9t-15.5 30z" />
<glyph unicode="&#xd3;" d="M2 307q0 -35 45 -87t106.5 -101t122 -85t91.5 -36q6 0 14 1l8 1q6 2 23.5 20.5t37 41t37 42t21.5 23.5q66 47 111 75.5t74.5 52.5t46 50.5t24.5 72.5t9 119.5t1 188.5v47q0 35 -1 72t-1 72v49q-10 55 -29.5 115.5t-47 114.5t-62.5 96t-78 59q-4 -8 -25.5 -23.5t-45 -31 t-45 -27.5t-25.5 -15q-25 -14 -87.5 -32.5t-126 -37t-112.5 -34.5t-49 -25v-702q-23 0 -30 -15.5t-7 -37.5v-23zM254 1538q-2 -6 2 -6q10 -49 34.5 -73.5t61.5 -65.5q6 -6 23.5 12t40 50t46 72t43 74.5t32 59.5t10.5 27l-182 159l-109 -303zM389 416v575q14 -14 30.5 -45 t16.5 -51v-518q-16 0 -31.5 9t-15.5 30z" />
<glyph unicode="&#xd4;" d="M-10 1608q-4 -6 31.5 -40t83 -70t89.5 -60.5t52 -12.5q14 18 38.5 54.5t51 75t49.5 71.5t33 45l151 -258l226 205q2 4 -25 23.5t-69 46t-94 56.5t-98 53.5t-80 36.5t-42 9zM2 307q0 -35 45 -87t106.5 -101t122 -85t91.5 -36q6 0 14 1l8 1q6 2 23.5 20.5t37 41t37 42 t21.5 23.5q66 47 111 75.5t74.5 52.5t46 50.5t24.5 72.5t9 119.5t1 188.5v47q0 35 -1 72t-1 72v49q-10 55 -29.5 115.5t-47 114.5t-62.5 96t-78 59q-4 -8 -25.5 -23.5t-45 -31t-45 -27.5t-25.5 -15q-25 -14 -87.5 -32.5t-126 -37t-112.5 -34.5t-49 -25v-702q-23 0 -30 -15.5 t-7 -37.5v-23zM389 416v575q14 -14 30.5 -45t16.5 -51v-518q-16 0 -31.5 9t-15.5 30z" />
<glyph unicode="&#xd5;" d="M-10 1608q-4 -4 19.5 -22.5t60 -42t81 -48.5t84 -44t69.5 -28.5t36 -1.5q29 35 60.5 66t48.5 53l120 -127l226 205q2 4 -20.5 21.5t-60.5 41t-83 48t-85 44t-68.5 29.5t-35.5 2q-33 -37 -54 -77.5t-38 -69.5l-137 153zM2 307q0 -35 45 -87t106.5 -101t122 -85t91.5 -36 q6 0 14 1l8 1q6 2 23.5 20.5t37 41t37 42t21.5 23.5q66 47 111 75.5t74.5 52.5t46 50.5t24.5 72.5t9 119.5t1 188.5v47q0 35 -1 72t-1 72v49q-10 55 -29.5 115.5t-47 114.5t-62.5 96t-78 59q-4 -8 -25.5 -23.5t-45 -31t-45 -27.5t-25.5 -15q-25 -14 -87.5 -32.5t-126 -37 t-112.5 -34.5t-49 -25v-702q-23 0 -30 -15.5t-7 -37.5v-23zM389 416v575q14 -14 30.5 -45t16.5 -51v-518q-16 0 -31.5 9t-15.5 30z" />
<glyph unicode="&#xd6;" d="M2 307v23q0 23 7 38t30 15v702q0 8 49 24.5t112.5 35t126 37t87.5 32.5q6 2 26.5 15.5t44 29t44 31t26.5 21.5q43 -16 79 -58.5t62.5 -96.5t46 -114.5t29.5 -115.5v-49q0 -35 1 -72t1 -72v-47q0 -115 -1 -188.5t-9 -119.5t-24.5 -72.5t-46 -50.5t-75 -52.5t-110.5 -75.5 q-4 -4 -21.5 -23.5t-38 -42t-38 -41t-21.5 -20.5l-8 -1t-14 -1q-31 0 -91.5 36t-122 85t-106.5 101t-45 87zM29 1620q0 63 31.5 108t66.5 82q90 -16 129 -67t39 -156q0 -66 -36 -114t-85 -48q-25 0 -51.5 17.5t-47 45.5t-33.5 62.5t-13 69.5zM389 416q0 -20 15.5 -29.5 t31.5 -9.5v518q0 20 -16.5 51t-30.5 45v-575zM479 1622q0 63 32 109.5t67 83.5q88 -16 127.5 -68.5t39.5 -157.5q0 -66 -35.5 -114t-84.5 -48q-27 0 -52.5 17.5t-46 45.5t-34 62.5t-13.5 69.5z" />
<glyph unicode="&#xd7;" horiz-adv-x="559" d="M94 868q-4 0 4 -23.5t23.5 -60t38 -84t45.5 -96.5l-99 -289q-2 -4 15.5 12.5t46.5 44t63.5 60.5t69.5 62q12 -31 35.5 -56.5t48.5 -42t46.5 -25t29.5 -5.5q2 0 2 4v4l-68 180q41 41 45 57q16 70 30.5 113t10.5 86q0 2 -4 2h-4l-170 -133z" />
<glyph unicode="&#xd8;" d="M2 307q0 -35 45 -87t106.5 -101t122 -85t91.5 -36q6 0 14 1l8 1q6 2 23.5 20.5t37 41t37 42t21.5 23.5q66 47 111 75.5t74.5 52.5t46 50.5t24.5 72.5t9 119.5t1 188.5v47q0 35 -1 72t-1 72v49q-10 55 -29.5 115.5t-47 114.5t-62.5 96t-78 59q-4 -8 -25.5 -23.5t-45 -31 t-45 -27.5t-25.5 -15q-25 -14 -87.5 -32.5t-126 -37t-112.5 -34.5t-49 -25v-702q-23 0 -30 -15.5t-7 -37.5v-23zM389 416v108l47 64l8 -174q-16 0 -35.5 -8.5t-19.5 10.5zM389 735v256q14 -14 28.5 -45t18.5 -51l8 -59z" />
<glyph unicode="&#xd9;" horiz-adv-x="974" d="M0 1024q0 -35 8 -47t22.5 -13t32 3t35.5 4v-555q0 -2 -9 -13.5t-15 -19.5q-6 -2 -24.5 -13.5t-22.5 -17.5l-1 -5t-1 -7q0 -8 1 -14l1 -7q10 -47 43.5 -96t72.5 -94t74 -79t49 -50h13q31 0 57 25.5t53 55.5t54.5 55.5t62.5 25.5q31 0 54.5 -25.5t45 -55.5t46 -55.5 t57.5 -25.5q25 0 64.5 26.5t76.5 66.5t63.5 83t26.5 78q0 39 -15.5 49t-35 12t-34.5 6.5t-15 30.5v574q29 35 41 60.5t12 68.5v22q-4 8 -5 11.5t-7.5 9.5t-18.5 20.5t-37 44.5q-18 20 -41.5 47t-46 52.5t-40 47t-25.5 31.5q-41 -74 -95.5 -129t-119.5 -94v-16v-17 q2 -8 8 -25.5t13 -38t15.5 -37.5t12.5 -26v-575q0 -12 -19.5 -27.5t-36 -24.5t-18.5 -12q0 18 1 51t1 74q0 43 1 93.5t1 101.5q0 104 -2 193.5t-2 125.5q0 43 -10 109t-31.5 127t-52.5 105t-72 44q-6 0 -13 -1t-11 -1q-10 -10 -33 -37.5t-49.5 -58.5t-51 -58.5t-34.5 -35.5 q-18 -23 -32.5 -36t-24 -25.5t-13.5 -26.5t-4 -39zM297 1753q-2 -2 9 -26.5t30.5 -60.5t43 -76t46.5 -71.5t40 -50t23 -10.5q18 20 35 34.5t29 29t21.5 32t13.5 41.5q4 0 2 7l-2 6l-109 305z" />
<glyph unicode="&#xda;" horiz-adv-x="974" d="M0 1024q0 -35 8 -47t22.5 -13t32 3t35.5 4v-555q0 -2 -9 -13.5t-15 -19.5q-6 -2 -24.5 -13.5t-22.5 -17.5l-1 -5t-1 -7q0 -8 1 -14l1 -7q10 -47 43.5 -95t72.5 -92t74 -79t49 -53h13q31 0 57 25.5t53 55.5t54.5 55.5t62.5 25.5q31 0 54.5 -25.5t45 -55.5t46 -55.5 t57.5 -25.5q25 0 64.5 26.5t76.5 66.5t63.5 83t26.5 78q0 39 -15.5 49t-35 12t-34.5 6.5t-15 30.5v574q29 35 41 60.5t12 68.5v22q-2 8 -3 11.5t-7 9.5t-19.5 20.5t-38.5 44.5q-20 20 -43.5 47t-46 53.5t-40 47t-23.5 30.5q-84 -145 -215 -223v-16v-17q2 -6 8 -24.5 t14 -37.5t15.5 -37.5t11.5 -27.5v-575q0 -10 -11.5 -20.5t-24.5 -20.5t-26 -16l-12 -7q0 18 1 51t1 74q0 43 1 93.5t1 101.5q0 104 -2 193.5t-2 125.5q0 43 -10 109t-31.5 127t-52.5 105t-72 44q-6 0 -13 -1t-11 -1q-10 -10 -34 -37.5t-50.5 -58.5t-50 -57.5t-33.5 -36.5 q-18 -23 -32.5 -36t-24 -25.5t-13.5 -26.5t-4 -39zM354 1608q-2 -6 2 -6q10 -47 35 -72t62 -66q6 -8 22.5 10.5t39 50t47 71.5t44 76t31.5 60.5t10 26.5l-184 160l-107 -305z" />
<glyph unicode="&#xdb;" horiz-adv-x="974" d="M0 1024q0 -35 8 -47t22.5 -13t32 3t35.5 4v-555q0 -2 -9 -13.5t-15 -19.5q-6 -2 -24.5 -13.5t-22.5 -17.5l-1 -5t-1 -7q0 -8 1 -14l1 -7q10 -47 43.5 -95t72.5 -92t74 -79t49 -53h13q31 0 57 25.5t53 55.5t54.5 55.5t62.5 25.5q31 0 54.5 -25.5t45 -55.5t46 -55.5 t57.5 -25.5q25 0 64.5 26.5t76.5 66.5t63.5 83t26.5 78q0 39 -15.5 49t-35 12t-34.5 6.5t-15 30.5v574q29 35 41 60.5t12 68.5v22q-2 8 -3 11.5t-7 9.5t-19.5 20.5t-38.5 44.5q-20 20 -43.5 47t-46 53.5t-40 47t-23.5 30.5q-84 -145 -215 -223v-16v-17q2 -6 8 -24.5 t14 -37.5t15.5 -37.5t11.5 -27.5v-575q0 -10 -11.5 -20.5t-24.5 -20.5t-26 -16l-12 -7q0 18 1 51t1 74q0 43 1 93.5t1 101.5q0 104 -2 193.5t-2 125.5q0 43 -10 109t-31.5 127t-52.5 105t-72 44q-6 0 -13 -1t-11 -1q-10 -10 -34 -37.5t-50.5 -58.5t-50 -57.5t-33.5 -36.5 q-18 -23 -32.5 -36t-24 -25.5t-13.5 -26.5t-4 -39zM55 1583q-4 -6 32 -40t83 -69.5t89 -60t52 -12.5q14 18 40 54t52.5 75t49 71.5t32.5 45.5l150 -258l225 204q4 4 -22.5 23.5t-69.5 46.5t-94 56.5t-98.5 53t-81 37t-41.5 9.5z" />
<glyph unicode="&#xdc;" horiz-adv-x="974" d="M0 1024q0 25 4 39t13.5 26.5t23.5 25.5t33 36q10 8 34.5 35.5t51 58.5t49 58.5t33.5 37.5q4 0 11 1t13 1q41 0 72 -44t52.5 -105t31.5 -127t10 -109q0 -37 2 -126t2 -193q0 -51 -1 -101.5t-1 -93.5q0 -41 -1 -73.5t-1 -51.5q2 2 18.5 11.5t36 25t19.5 27.5v575 q-4 8 -12.5 25.5t-15.5 38t-13 38t-8 25.5v17v16q66 39 120 94.5t95 128.5q12 -12 38.5 -43.5t57.5 -66.5t57.5 -68t38.5 -45q16 -18 22.5 -24.5t6.5 -16.5v-22q0 -43 -12.5 -68.5t-40.5 -60.5v-574q0 -27 15 -31t34.5 -6t35 -12t15.5 -49q0 -35 -26.5 -78t-63.5 -83 t-77 -66.5t-64 -26.5q-33 0 -57.5 25.5t-46 55.5t-45 55.5t-54.5 25.5q-35 0 -62.5 -25.5t-54.5 -55.5t-53.5 -55.5t-56.5 -25.5h-13q-14 16 -49 50t-74 79t-72.5 94t-43.5 96l-1 7q-1 6 -1 14q0 2 1 7l1 5q4 6 22.5 17.5t24.5 13.5q6 8 15 19.5t9 13.5v555q-18 0 -35.5 -4 t-32 -3t-22.5 13t-8 47zM113 1657q0 63 31.5 108t66.5 82q88 -16 127 -67t39 -156q0 -66 -36 -114t-83 -48q-25 0 -51.5 17.5t-47 45t-33.5 62.5t-13 70zM561 1659q0 63 32.5 109t65.5 83q88 -16 128 -68t40 -157q0 -66 -35.5 -114t-82.5 -48q-27 0 -52.5 17.5t-47 45 t-35 62.5t-13.5 70z" />
<glyph unicode="&#xdd;" horiz-adv-x="636" d="M0 1120q0 -61 8 -116.5t18.5 -109.5t18.5 -111.5t8 -120.5q0 -102 -14 -185.5t-14 -179.5q0 -39 16 -81t40.5 -76t51.5 -56.5t49 -22.5q2 0 6 1l5 1q6 8 26.5 29t44 43.5t45 44t29.5 31.5q0 -8 1 -26.5t1 -39.5v-61q0 -76 -7 -125t-24.5 -89t-46 -80t-69.5 -95 q2 -18 13 -26.5t23.5 -11.5t23.5 -2t15 1q39 0 96.5 43t109.5 108.5t89 143.5t37 147v883q-6 23 -15.5 54.5t-25.5 47.5l-78 119l-5 1t-7 1q-4 0 -8 -1l-4 -1l-119 -112l-49 -35l-121 182v18q0 12 8 23.5t20.5 22t24.5 20.5t21 22q-16 51 -30.5 64.5t-43.5 13.5 q-47 0 -79 -23.5t-51.5 -64.5t-28.5 -95t-9 -118zM203 1608q-2 -6 2 -6q10 -47 35.5 -72t62.5 -66q4 -8 21.5 11.5t40 51.5t46 71.5t44 74.5t32 59.5t9.5 26.5l-183 160l-108 -305zM313 385v485l25 37q27 -70 27 -147v-146v-39q0 -29 -2.5 -54t-2.5 -54v-37q-12 -45 -47 -45 z" />
<glyph unicode="&#xde;" horiz-adv-x="663" d="M0 406v38q0 59 16.5 107.5t35 94.5t34.5 96.5t16 113.5q0 57 -8 102.5t-19.5 86t-19.5 83.5t-8 99q0 111 35 173t113 62h38q23 0 33 -37l-47 -71q23 -14 42.5 -60.5t34.5 -101.5t28.5 -109.5t23.5 -85.5q2 0 23.5 22.5t51.5 49.5t58.5 49.5t44.5 22.5t36 -29t36 -65.5 t26.5 -70.5t10.5 -46v-596q0 -12 -22.5 -36t-56.5 -52.5t-74 -58t-74.5 -57.5t-58 -48.5t-25.5 -28.5q-4 -12 -8.5 -31.5t-9.5 -40t-9 -39t-6 -26.5q-6 -33 -9 -53.5t-6.5 -32.5t-9.5 -17.5t-20 -5.5q-27 0 -45.5 34t-31.5 87.5t-21.5 119t-13.5 128t-7 115.5t-4 82 q-4 0 -11.5 2t-11.5 2q-12 0 -19 -7.5t-13.5 -14.5t-13.5 -14t-15 -7q-23 0 -31 21.5t-8 50.5zM348 506l47 -68v385l-24 35l-23 -35v-317z" />
<glyph unicode="&#xdf;" horiz-adv-x="856" d="M0 971q0 14 6 34.5t25.5 57.5t55.5 99.5t93 162.5q10 2 23 2h26h54q27 0 48 3t38 13q2 0 5 -1t5 -1q20 -10 62 -34.5t89.5 -51t89.5 -50t60 -31.5q14 -10 35.5 -25.5t40 -36t32 -45.5t13.5 -53l33 -662q0 -53 -33 -114.5t-78 -114.5t-94 -89t-82 -36h-15q-8 0 -8 2 q-18 23 -39.5 45.5t-37 44t-20.5 38.5t7 30q31 27 57.5 72.5t41 93t11.5 87.5t-32 56l-160 84q23 53 42.5 101t41.5 102l74 -49v245q-31 4 -42 7.5t-21.5 0t-28 -14.5t-60.5 -38q-14 -35 -28.5 -98.5t-14.5 -155.5q0 -20 1 -60t3.5 -90t5.5 -105.5t5 -105.5t4 -89t4 -58 q33 10 33 -10v-76q0 -43 -22.5 -106.5t-52.5 -122.5t-60.5 -101t-49.5 -42q-16 0 -37.5 19.5t-42 60t-34 101t-13.5 144.5v834q-6 0 -26.5 17.5t-24.5 29.5q0 2 -2 17.5t-4 35t-2 27.5z" />
<glyph unicode="&#xe0;" horiz-adv-x="776" d="M0 518q0 -123 20.5 -224t85.5 -192q16 -20 32 -37.5t38 -17.5q25 0 51.5 34t51 76t47 75.5t39.5 33.5q8 0 25.5 -33.5t39 -75.5t48 -76t54.5 -34h19q8 14 31.5 43t48 59.5t47 59.5t33.5 45q10 10 17 14t10 9.5t4 11.5t1 20q0 8 -4 20.5t-10 25t-12 20.5t-8 8 q-12 0 -18.5 -8t-18.5 -8t-18.5 17t-10.5 39.5t-5 42t-1 26.5v16v90v33v82v114q0 51 10 119q8 12 19.5 20.5t21.5 15.5t17.5 18.5t7.5 33.5q0 35 -17.5 56.5t-40 37t-47 27.5t-39.5 27q-25 18 -43 43.5t-35.5 49t-36 40t-40.5 16.5q-29 0 -45.5 -17.5t-42.5 -37.5 q-47 -35 -100.5 -64.5t-101.5 -68.5t-82 -96.5t-40 -145.5v-41q0 -37 -1 -67.5t-1 -67.5v-41v-166zM199 1765q-4 -2 8 -26.5t31.5 -60.5t44 -75.5t47 -71.5t40 -50.5t23.5 -10.5q18 20 33.5 35t28 29t21.5 31.5t13 42.5q4 0 2 6l-2 6l-108 305zM295 590v217v39v96v16l8 58h2 h6q6 -4 14.5 -21.5t16.5 -27.5l16 -21v-512q0 -14 -15 -38.5t-21 -35.5h-7h-4q-8 7 -8 17q-4 59 -6 111.5t-2 101.5z" />
<glyph unicode="&#xe1;" horiz-adv-x="776" d="M0 518q0 -123 20.5 -224t85.5 -192q16 -20 32 -37.5t38 -17.5q25 0 51.5 34t51 76t47 75.5t39.5 33.5q8 0 25.5 -33.5t39 -75.5t48 -76t54.5 -34h19q8 14 31.5 43t48 59.5t47 59.5t33.5 45q10 10 17 14t10 9.5t4 11.5t1 20q0 8 -4 20.5t-10 25t-12 20.5t-8 8 q-12 0 -18.5 -8t-18.5 -8t-18.5 17t-10.5 39.5t-5 42t-1 26.5v16v90v33v82v114q0 51 10 119q8 12 19.5 20.5t21.5 15.5t17.5 18.5t7.5 33.5q0 35 -17.5 56.5t-40 37t-47 27.5t-39.5 27q-25 18 -43 43.5t-35.5 49t-36 40t-40.5 16.5q-29 0 -45.5 -17.5t-42.5 -37.5 q-47 -35 -100.5 -64.5t-101.5 -68.5t-82 -96.5t-40 -145.5v-41q0 -37 -1 -67.5t-1 -67.5v-41v-166zM248 1614q-2 -6 2 -6q4 -25 13 -42.5t21.5 -31.5t29 -28.5t34.5 -35.5q6 -8 22.5 10.5t39 50.5t47 71.5t44 74.5t32 60.5t10.5 27.5l-185 160l-108 -305zM295 590v217v39v96 v16l8 58h2h6q6 -4 14.5 -21.5t16.5 -27.5l16 -21v-512q0 -14 -15 -38.5t-21 -35.5h-7h-4q-8 7 -8 17q-4 59 -6 111.5t-2 101.5z" />
<glyph unicode="&#xe2;" horiz-adv-x="776" d="M-18 1563q-4 -4 11 -21.5t40.5 -40t56.5 -47t58.5 -44t48 -29t26.5 -1.5q14 18 39 54t50.5 75t47 72t29.5 45l143 -258l213 205q2 4 -22.5 23.5t-65.5 46t-90 56.5t-93 53.5t-76.5 36.5t-39.5 9zM0 518q0 -123 20.5 -224t85.5 -192q16 -20 32 -37.5t38 -17.5 q25 0 51.5 34t51 76t47 75.5t39.5 33.5q8 0 25.5 -33.5t39 -75.5t48 -76t54.5 -34h19q8 14 31.5 43t48 59.5t47 59.5t33.5 45q10 10 17 14t10 9.5t4 11.5t1 20q0 8 -4 20.5t-10 25t-12 20.5t-8 8q-12 0 -18.5 -8t-18.5 -8t-18.5 17t-10.5 39.5t-5 42t-1 26.5v16v90v33v82 v114q0 51 10 119q8 12 19.5 20.5t21.5 15.5t17.5 18.5t7.5 33.5q0 35 -17.5 56.5t-40 37t-47 27.5t-39.5 27q-25 18 -43 43.5t-35.5 49t-36 40t-40.5 16.5q-29 0 -45.5 -17.5t-42.5 -37.5q-47 -35 -100.5 -64.5t-101.5 -68.5t-82 -96.5t-40 -145.5v-41q0 -37 -1 -67.5 t-1 -67.5v-41v-166zM295 590v217v39v96v16l8 58h2h6q6 -4 14.5 -21.5t16.5 -27.5l16 -21v-512q0 -14 -15 -38.5t-21 -35.5h-7h-4q-8 7 -8 17q-4 59 -6 111.5t-2 101.5z" />
<glyph unicode="&#xe3;" horiz-adv-x="776" d="M-31 1612q-4 -4 19.5 -21.5t60.5 -41t82 -49t85 -45t69.5 -29t36.5 -1.5q29 35 58.5 66t45.5 55l123 -129l225 205q2 4 -20.5 21.5t-59.5 41t-82 49t-85 45t-69.5 29t-35.5 0.5q-33 -37 -54.5 -77.5t-37.5 -69.5l-137 156zM0 518q0 -123 20.5 -224t85.5 -192 q16 -20 32 -37.5t38 -17.5q25 0 51.5 34t51 76t47 75.5t39.5 33.5q8 0 25.5 -33.5t39 -75.5t48 -76t54.5 -34h19q8 14 31.5 43t48 59.5t47 59.5t33.5 45q10 10 17 14t10 9.5t4 11.5t1 20q0 8 -4 20.5t-10 25t-12 20.5t-8 8q-12 0 -18.5 -8t-18.5 -8t-18.5 17t-10.5 39.5 t-5 42t-1 26.5v16v90v33v82v114q0 51 10 119q8 12 19.5 20.5t21.5 15.5t17.5 18.5t7.5 33.5q0 35 -17.5 56.5t-40 37t-47 27.5t-39.5 27q-25 18 -43 43.5t-35.5 49t-36 40t-40.5 16.5q-29 0 -45.5 -17.5t-42.5 -37.5q-47 -35 -100.5 -64.5t-101.5 -68.5t-82 -96.5 t-40 -145.5v-41q0 -37 -1 -67.5t-1 -67.5v-41v-166zM295 590v217v39v96v16l8 58h2h6q6 -4 14.5 -21.5t16.5 -27.5l16 -21v-512q0 -14 -15 -38.5t-21 -35.5h-7h-4q-8 7 -8 17q-4 59 -6 111.5t-2 101.5z" />
<glyph unicode="&#xe4;" horiz-adv-x="776" d="M0 518v166v41q0 37 1 67.5t1 67.5v41q6 88 40 145.5t82 96.5t101.5 68.5t100.5 64.5q27 20 43 37.5t45 17.5q23 0 41 -16.5t35.5 -40t36 -49t42.5 -43.5q14 -14 39 -26.5t47.5 -28t40 -37t17.5 -56.5q0 -23 -7.5 -34t-17.5 -18t-21.5 -15.5t-19.5 -20.5q-10 -68 -10 -119 v-114v-82v-33v-90v-16q0 -6 1 -26t5 -42.5t10 -39.5t19 -17q12 0 18 8t19 8q2 0 8 -8t12 -20.5t10 -25t4 -20.5q0 -14 -1 -20t-4 -11.5t-10 -9.5t-17 -14q-10 -16 -33 -45t-47.5 -59.5t-48 -59.5t-31.5 -43h-19q-29 0 -55 34t-47.5 76t-39 75.5t-25.5 33.5q-16 0 -39 -33.5 t-47.5 -75.5t-51 -76t-51.5 -34q-23 0 -38 17.5t-32 37.5q-66 90 -86 191.5t-20 224.5zM12 1655q0 63 32 108t67 82q90 -16 129 -67.5t39 -155.5q0 -66 -36 -114t-85 -48q-25 0 -51.5 17.5t-47 45t-34 62.5t-13.5 70zM295 590q0 -49 2 -101.5t6 -111.5q0 -10 8 -17h4h7 l21 35t15 39v512l-16 21q-8 10 -16.5 27.5t-14.5 21.5h-6h-2l-8 -58v-16v-96v-39v-217zM463 1657q0 63 31.5 108t66.5 82q88 -16 127 -67t39 -156q0 -66 -36 -114t-83 -48q-25 0 -51.5 17.5t-47 45t-33.5 62.5t-13 70z" />
<glyph unicode="&#xe5;" horiz-adv-x="776" d="M0 518v166v41q0 37 1 67.5t1 67.5v41q6 88 40 145.5t82 96.5t101.5 68.5t100.5 64.5q27 20 43 37.5t45 17.5q23 0 41 -16.5t35.5 -40t36 -49t42.5 -43.5q14 -14 39 -26.5t47.5 -28t40 -37t17.5 -56.5q0 -23 -7.5 -34t-17.5 -18t-21.5 -15.5t-19.5 -20.5q-10 -68 -10 -119 v-114v-82v-33v-90v-16q0 -6 1 -26t5 -42.5t10 -39.5t19 -17q12 0 18 8t19 8q2 0 8 -8t12 -20.5t10 -25t4 -20.5q0 -14 -1 -20t-4 -11.5t-10 -9.5t-17 -14q-10 -16 -33 -45t-47.5 -59.5t-48 -59.5t-31.5 -43h-19q-29 0 -55 34t-47.5 76t-39 75.5t-25.5 33.5q-16 0 -39 -33.5 t-47.5 -75.5t-51 -76t-51.5 -34q-23 0 -38 17.5t-32 37.5q-66 90 -86 191.5t-20 224.5zM186 1516v8q0 20 23 20v254q0 2 25.5 8t57.5 13.5t63.5 14.5t43.5 11q2 0 13.5 4t24 9.5t22.5 10.5t14 9q23 -6 40 -20.5t30.5 -34t22.5 -42t16 -40.5v-19q0 -12 1 -25.5t1 -25.5v-20 q0 -61 -3 -91t-15.5 -45.5t-39 -26.5t-75.5 -36q-4 -2 -14.5 -10t-20.5 -16.5t-18.5 -14.5t-10.5 -6l-3 -1t-7 -1q-16 0 -48 13.5t-64 31.5t-55.5 38t-23.5 30zM295 590q0 -49 2 -101.5t6 -111.5q0 -10 8 -17h4h7l21 35t15 39v512l-16 21q-8 10 -16.5 27.5t-14.5 21.5h-6h-2 l-8 -58v-16v-96v-39v-217zM387 1556q0 -8 8 -12t17 -4v191q0 4 -7.5 15t-17.5 15v-205z" />
<glyph unicode="&#xe6;" horiz-adv-x="1208" d="M0 518q0 -123 20.5 -224t85.5 -192q16 -20 32 -37.5t38 -17.5q25 0 51.5 34t51 76t47 75.5t39.5 33.5q8 0 25.5 -33.5t39 -75.5t48 -76t54.5 -34h19q10 12 29.5 38t42.5 54q51 -59 102 -99t96 -40q18 0 52 22.5t74 57.5t82 78t76 84t55.5 74.5t21.5 52.5q0 29 -13.5 40 t-35.5 11q-23 0 -39.5 -6t-33 -12.5t-33.5 -12.5t-40 -6t-51.5 10t-54 28.5t-44 45.5t-18.5 61q0 47 24.5 79t62.5 57.5t82 48t82 50.5t62.5 64.5t24.5 90.5q0 10 -1 25t-1 18l-168 352q-2 2 -19.5 13t-27.5 17h-12q-23 0 -62 -15t-84 -40.5t-93 -59.5t-87 -71 q-10 6 -18.5 11.5t-14.5 13.5q-25 18 -43 43.5t-35.5 49t-36 40t-40.5 16.5q-29 0 -45.5 -17.5t-42.5 -37.5q-47 -35 -100.5 -64.5t-101.5 -68.5t-82 -96.5t-40 -145.5v-41q0 -37 -1 -67.5t-1 -67.5v-207zM295 590v368l8 58h8q6 -4 14.5 -21.5t16.5 -27.5l16 -21v-512 q0 -14 -15 -38.5t-21 -35.5h-11q-8 7 -8 17q-4 59 -6 111.5t-2 101.5zM795 737v224q2 -4 9 -18.5t14 -30t14.5 -30t11.5 -18.5q4 -12 14 -36.5t10 -26.5q0 -12 -19.5 -27.5t-35.5 -25t-18 -11.5z" />
<glyph unicode="&#xe7;" horiz-adv-x="684" d="M0 352q0 -41 21.5 -90t55.5 -96t73.5 -86t76.5 -60q23 -43 56.5 -89t66.5 -83q-16 -12 -36.5 -18t-40 -15.5t-35 -24.5t-19.5 -46q12 -66 54 -100.5t102 -38.5l67 22q16 25 27.5 43.5t18 37t8.5 39t2 48.5q0 92 -40 152.5t-100 91.5q27 25 64 57.5t72.5 63t63.5 57.5 t40 39q33 29 41 42t8 54q0 23 -7 43.5t-30 20.5q-35 0 -64.5 -17.5t-66.5 -17.5q-18 0 -47 8t-55.5 24.5t-46 41t-19.5 57.5v446q8 -16 18.5 -47.5t24 -64.5t33 -57.5t45.5 -24.5q16 0 52 14.5t72 39t63.5 56t27.5 68.5v16q-4 10 -18.5 46t-29.5 78t-29.5 80t-18.5 52 q-4 2 -12.5 22.5t-19.5 44.5t-24.5 43t-27.5 19q-4 0 -6 -1t-6 -1q-20 -10 -67.5 -32.5t-99.5 -48t-100.5 -48t-68.5 -30.5q-16 -10 -37 -25.5t-39 -36t-30.5 -45t-12.5 -53.5v-670z" />
<glyph unicode="&#xe8;" horiz-adv-x="708" d="M0 416q0 -63 30.5 -136t78 -135.5t102.5 -104.5t102 -42q16 0 50 22.5t73 57.5t81 78t77 84t56.5 74.5t21.5 52.5q0 29 -12.5 40t-34.5 11q-43 0 -73 -18.5t-73 -18.5q-23 0 -51.5 10t-55 28.5t-45 45.5t-18.5 61q0 45 24.5 78t62.5 58.5t82 48t82 50t62.5 63.5t24.5 89 v45l-168 353q-2 2 -19.5 12t-27.5 18h-14q-23 0 -62 -15t-86 -42t-95 -61.5t-87 -73.5t-63.5 -80t-24.5 -78v-575zM154 1769q-4 -2 8 -26.5t31.5 -59t44 -74.5t47 -72t40 -50.5t21.5 -11.5q37 41 62.5 65.5t35.5 71.5q4 0 2 6l-2 6l-110 305zM287 735v223q2 -4 8 -18 t13 -29.5t14.5 -30t11.5 -18.5q6 -12 15 -36.5t9 -26.5q0 -10 -11 -21.5t-25.5 -20.5t-24.5 -15z" />
<glyph unicode="&#xe9;" horiz-adv-x="708" d="M0 416q0 -63 30.5 -136t78 -135.5t102.5 -104.5t102 -42q16 0 50 22.5t73 57.5t81 78t77 84t56.5 74.5t21.5 52.5q0 29 -12.5 40t-34.5 11q-43 0 -73 -18.5t-73 -18.5q-23 0 -51.5 10t-55 28.5t-45 45.5t-18.5 61q0 45 24.5 78t62.5 58.5t82 48t82 50t62.5 63.5t24.5 89 v45l-168 353q-2 2 -19.5 12t-27.5 18h-14q-23 0 -62 -15t-86 -42t-95 -61.5t-87 -73.5t-63.5 -80t-24.5 -78v-575zM211 1614q-2 -6 2 -6q4 -25 13.5 -42.5t21.5 -31.5t28.5 -28.5t34.5 -35.5q4 -8 21.5 9.5t39 49.5t46 71.5t45 75.5t33 61.5t10.5 27.5l-184 160l-109 -305z M287 735v223q2 -4 8 -18t14 -30.5t15.5 -30t9.5 -17.5q6 -12 15 -36.5t9 -26.5q0 -10 -11 -20.5t-24.5 -20.5t-24.5 -16z" />
<glyph unicode="&#xea;" horiz-adv-x="708" d="M-84 1589q-4 -4 12.5 -21.5t43 -40t59 -47t61.5 -43t51.5 -27.5t28.5 -1q14 16 39 52t51.5 75t49 72.5t32.5 46.5l152 -258l225 202q4 4 -22.5 25t-69.5 47.5t-95.5 55t-98.5 52t-81 38t-41 10.5zM0 416q0 -63 30.5 -136t78 -135.5t102.5 -104.5t102 -42q16 0 50 22.5 t73 57.5t81 78t77 84t56.5 74.5t21.5 52.5q0 29 -12.5 40t-34.5 11q-43 0 -73 -18.5t-73 -18.5q-23 0 -51.5 10t-55 28.5t-45 45.5t-18.5 61q0 45 24.5 78t62.5 58.5t82 48t82 50t62.5 63.5t24.5 89v45l-168 353q-2 2 -19.5 12t-27.5 18h-14q-23 0 -62 -15t-86 -42 t-95 -61.5t-87 -73.5t-63.5 -80t-24.5 -78v-575zM287 735v223q2 -4 8 -18t14 -30.5t15.5 -30t9.5 -17.5q6 -12 15 -36.5t9 -26.5q0 -10 -11 -20.5t-24.5 -20.5t-24.5 -16z" />
<glyph unicode="&#xeb;" horiz-adv-x="708" d="M0 416v575q0 37 24.5 78t63.5 80t87 73.5t95 61.5t86 42t62 15h14q10 -8 27.5 -18t19.5 -12l168 -353v-45q0 -53 -24.5 -89t-62.5 -63.5t-82 -50t-82 -48t-62.5 -57.5t-24.5 -79q0 -35 18.5 -61.5t45 -45t55.5 -28.5t51 -10q43 0 73 18.5t73 18.5q23 0 35 -11.5t12 -39.5 q0 -18 -21.5 -52t-56.5 -75t-77 -84t-81 -78t-72.5 -57.5t-50.5 -22.5q-47 0 -102 42t-102.5 104.5t-78 135t-30.5 136.5zM0 1659q0 63 31.5 109t66.5 83q88 -16 128 -68t40 -157q0 -66 -35.5 -114t-85.5 -48q-27 0 -52 17.5t-45.5 45t-34 62.5t-13.5 70zM287 735l10 7 q10 6 24.5 15t25.5 20t11 22q0 2 -9 26.5t-15 36.5q-4 4 -11.5 18.5t-14.5 30t-13 29.5t-8 18v-223zM408 1659q0 63 32.5 109t65.5 83q90 -16 129 -68t39 -157q0 -66 -36 -114t-83 -48q-25 0 -51.5 17.5t-48 45t-34.5 62.5t-13 70z" />
<glyph unicode="&#xec;" horiz-adv-x="497" d="M2 895l166 223q4 2 14.5 18.5t32.5 16.5q12 0 23.5 -7t27.5 -28l166 -223l2 -6t2 -12q0 -29 -12 -47.5t-25.5 -38t-26 -46t-12.5 -73.5q0 -18 3.5 -69.5t6.5 -108t7 -106.5t8 -69q78 16 78 -63q0 -29 -26.5 -73t-63.5 -85t-74 -70.5t-57 -29.5q-18 0 -45 26.5t-51.5 63.5 t-42 75t-17.5 60v576q-8 0 -31.5 12t-27.5 20q-10 10 -20.5 33t-4.5 31zM57 1618l183 160l108 -305l2 -7q2 -6 -2 -6q-4 -25 -13 -42t-21.5 -31.5t-29 -29t-34.5 -34.5q-6 -8 -23.5 10.5t-40 50t-46 71.5t-43 76t-31 60.5t-9.5 26.5z" />
<glyph unicode="&#xed;" horiz-adv-x="497" d="M2 895q-6 -8 4 -30.5t21 -33.5q4 -8 27.5 -20t31.5 -12v-576q0 -23 17.5 -60.5t42 -74.5t51 -63.5t45.5 -26.5q20 0 57 29.5t74 70.5t63.5 85t26.5 73q0 80 -78 63q-4 18 -8 68.5t-7 107t-6.5 107.5t-3.5 70q0 47 12.5 73.5t26 46t25.5 38t12 47.5q0 6 -2 12l-2 6 l-166 223q-16 20 -27.5 27.5t-23.5 7.5q-23 0 -33 -16.5t-14 -18.5zM74 1472q-2 -6 2 -6q10 -47 35.5 -71.5t62.5 -65.5q4 -8 20.5 10.5t40 50t48 71.5t44 76t32 60.5t8.5 26.5l-183 160l-108 -305z" />
<glyph unicode="&#xee;" horiz-adv-x="497" d="M-160 1438q-2 -4 12.5 -21.5t38 -39t51 -46t54.5 -42t46 -27t26 -0.5q12 16 34.5 51t46 71.5t44 69.5t28.5 45l135 -250l199 199q2 4 -22.5 23.5t-62.5 46t-83 56.5t-86 52.5t-70.5 35.5t-37.5 7zM2 895q-6 -8 4 -30.5t21 -33.5q4 -8 27.5 -20t31.5 -12v-576 q0 -23 17.5 -60.5t42 -74.5t51 -63.5t45.5 -26.5q20 0 57 29.5t74 70.5t63.5 85t26.5 73q0 80 -78 63q-4 18 -8 68.5t-7 107t-6.5 107.5t-3.5 70q0 47 12.5 73.5t26 46t25.5 38t12 47.5q0 6 -2 12l-2 6l-166 223q-16 20 -27.5 27.5t-23.5 7.5q-23 0 -33 -16.5t-14 -18.5z " />
<glyph unicode="&#xef;" horiz-adv-x="497" d="M-90 1503q0 63 32.5 109.5t65.5 83.5q90 -16 129 -67.5t39 -155.5q0 -66 -36 -114t-83 -48q-25 0 -51 17.5t-47.5 45t-35 61t-13.5 68.5zM2 895l166 223q4 2 14.5 18.5t32.5 16.5q12 0 23.5 -7t27.5 -28l166 -223l2 -6t2 -12q0 -29 -12 -47.5t-25.5 -38t-26 -46 t-12.5 -73.5q0 -20 3.5 -70.5t6.5 -107t7 -106.5t8 -69q78 16 78 -63q0 -29 -26.5 -73t-63.5 -85t-74 -70.5t-57 -29.5q-18 0 -45 26.5t-51.5 63.5t-42 75t-17.5 60v576q-8 0 -31.5 12t-27.5 20q-10 10 -20.5 33t-4.5 31zM279 1507q0 63 31.5 108.5t66.5 82.5 q88 -16 127 -67.5t39 -155.5q0 -66 -36 -114t-83 -48q-25 0 -51.5 17.5t-47 45t-33.5 62.5t-13 69z" />
<glyph unicode="&#xf0;" horiz-adv-x="708" d="M-2 971q0 -29 12.5 -40t34.5 -11q23 0 40 6t33.5 12t34 12t40.5 6t43 -7t43 -19l-39 -90q-4 -4 22.5 10t67.5 37q31 -29 30 -76q0 -47 -25.5 -79t-62 -57.5t-82 -48t-82 -50t-62.5 -64.5t-26 -90q0 -10 2.5 -25.5t2.5 -17.5l168 -352q0 -2 18 -13.5t29 -17.5h12 q33 0 102.5 33.5t140 85t124 113t53.5 118.5v576q0 45 -17.5 96t-46.5 100q23 53 35 88t10 70q0 4 -6 4h-2l-110 -55q-43 51 -89.5 82.5t-87.5 31.5q-18 0 -52 -22.5t-73.5 -57t-81.5 -77.5t-76 -84t-55.5 -76t-21.5 -51zM311 539q0 12 18.5 27.5t35 24.5t18.5 11v-223 q-2 6 -8 19.5t-14.5 28.5t-15.5 28.5t-11 19.5q-4 12 -13.5 37t-9.5 27z" />
<glyph unicode="&#xf1;" horiz-adv-x="974" d="M0 1055q0 -37 15.5 -47.5t34 -13.5t33.5 -7t15 -29v-575q-4 -4 -15 -17.5t-23.5 -28.5t-21.5 -29.5t-11 -20.5q-4 -10 2 -23.5t14 -28t17.5 -25.5t13.5 -17l168 -193h24q2 0 23.5 21.5t52.5 52t62.5 63.5t52.5 56l24 30v15v18q-2 8 -11 31.5t-13 31.5v639l24 33l37 -33 v-765q0 -25 18.5 -60t44 -66.5t51 -53t40.5 -21.5q6 0 13 4t11 4l191 193q16 16 26.5 25t16.5 18.5t8 20.5t2 30q0 43 -23.5 63.5t-52.5 32.5v575q6 4 14.5 16.5t15.5 28t12 30t5 22.5q0 2 -17 26.5t-30 36.5l-96 96q-4 2 -18.5 20.5t-31 42t-30.5 43t-16 21.5l-4 1t-6 1 q-31 0 -64 -28.5t-66.5 -65.5t-65.5 -74.5t-58 -56.5q-12 29 -31 68t-41.5 73.5t-49 58t-57.5 23.5h-12q-31 -18 -60.5 -48.5t-58 -66.5t-53.5 -73t-43 -68q0 -2 -1 -12t-1 -18zM37 1630q-4 -4 19.5 -22.5t60.5 -42t82 -48t85 -44t69.5 -29.5t35.5 -2q29 35 59.5 66.5 t47.5 54.5l120 -127l226 202q4 4 -19.5 22.5t-60.5 42t-82 48.5t-86 44.5t-69.5 29.5t-35.5 2q-31 -37 -53 -78t-39 -70l-137 154z" />
<glyph unicode="&#xf2;" d="M2 307q0 -35 45 -87t106.5 -101t122 -85t91.5 -36q6 0 14 1l8 1q4 2 21.5 20.5t38 41t38 42t21.5 23.5q66 47 111 75.5t74.5 52.5t46 50.5t24.5 72.5t9 119.5t1 188.5v47q0 35 -1 72t-1 72v49q-10 55 -29.5 115.5t-46 114.5t-62.5 96t-79 59q-6 -6 -26.5 -21.5t-44 -31 t-44 -28.5t-26.5 -16q-25 -14 -87.5 -32.5t-126 -37t-112.5 -34.5t-49 -25v-702q-23 0 -30 -15.5t-7 -37.5v-23zM168 1722q-4 -2 8 -26.5t31.5 -59t44 -74.5t47.5 -72t39 -51.5t22 -11.5q37 41 63 66t36 72q4 0 2 6l-2 6l-109 305zM389 416v575q14 -14 30.5 -45t16.5 -51 v-518q-16 0 -31.5 9t-15.5 30z" />
<glyph unicode="&#xf3;" d="M2 307q0 -35 45 -87t106.5 -101t122 -85t91.5 -36q6 0 14 1l8 1q6 2 23.5 20.5t37 41t37 42t21.5 23.5q66 47 111 75.5t74.5 52.5t46 50.5t24.5 72.5t9 119.5t1 188.5v47q0 35 -1 72t-1 72v49q-10 55 -29.5 115.5t-47 114.5t-62.5 96t-78 59q-4 -8 -25.5 -23.5t-45 -31 t-45 -27.5t-25.5 -15q-25 -14 -87.5 -32.5t-126 -37t-112.5 -34.5t-49 -25v-702q-23 0 -30 -15.5t-7 -37.5v-23zM254 1538q-2 -6 2 -6q10 -49 34.5 -73.5t61.5 -65.5q6 -6 23.5 12t40 50t46 72t43 74.5t32 59.5t10.5 27l-182 159l-109 -303zM389 416v575q14 -14 30.5 -45 t16.5 -51v-518q-16 0 -31.5 9t-15.5 30z" />
<glyph unicode="&#xf4;" d="M-10 1608q-4 -6 31.5 -40t83 -70t89.5 -60.5t52 -12.5q14 18 38.5 54.5t51 75t49.5 71.5t33 45l151 -258l226 205q2 4 -25 23.5t-69 46t-94 56.5t-98 53.5t-80 36.5t-42 9zM2 307q0 -35 45 -87t106.5 -101t122 -85t91.5 -36q6 0 14 1l8 1q6 2 23.5 20.5t37 41t37 42 t21.5 23.5q66 47 111 75.5t74.5 52.5t46 50.5t24.5 72.5t9 119.5t1 188.5v47q0 35 -1 72t-1 72v49q-10 55 -29.5 115.5t-47 114.5t-62.5 96t-78 59q-4 -8 -25.5 -23.5t-45 -31t-45 -27.5t-25.5 -15q-25 -14 -87.5 -32.5t-126 -37t-112.5 -34.5t-49 -25v-702q-23 0 -30 -15.5 t-7 -37.5v-23zM389 416v575q14 -14 30.5 -45t16.5 -51v-518q-16 0 -31.5 9t-15.5 30z" />
<glyph unicode="&#xf5;" d="M-10 1608q-4 -4 19.5 -22.5t60 -42t81 -48.5t84 -44t69.5 -28.5t36 -1.5q29 35 60.5 66t48.5 53l120 -127l226 205q2 4 -20.5 21.5t-60.5 41t-83 48t-85 44t-68.5 29.5t-35.5 2q-33 -37 -54 -77.5t-38 -69.5l-137 153zM2 307q0 -35 45 -87t106.5 -101t122 -85t91.5 -36 q6 0 14 1l8 1q6 2 23.5 20.5t37 41t37 42t21.5 23.5q66 47 111 75.5t74.5 52.5t46 50.5t24.5 72.5t9 119.5t1 188.5v47q0 35 -1 72t-1 72v49q-10 55 -29.5 115.5t-47 114.5t-62.5 96t-78 59q-4 -8 -25.5 -23.5t-45 -31t-45 -27.5t-25.5 -15q-25 -14 -87.5 -32.5t-126 -37 t-112.5 -34.5t-49 -25v-702q-23 0 -30 -15.5t-7 -37.5v-23zM389 416v575q14 -14 30.5 -45t16.5 -51v-518q-16 0 -31.5 9t-15.5 30z" />
<glyph unicode="&#xf6;" d="M2 307v23q0 23 7 38t30 15v702q0 8 49 24.5t112.5 35t126 37t87.5 32.5q6 2 26.5 15.5t44 29t44 31t26.5 21.5q43 -16 79 -58.5t62.5 -96.5t46 -114.5t29.5 -115.5v-49q0 -35 1 -72t1 -72v-47q0 -115 -1 -188.5t-9 -119.5t-24.5 -72.5t-46 -50.5t-75 -52.5t-110.5 -75.5 q-4 -4 -21.5 -23.5t-38 -42t-38 -41t-21.5 -20.5l-8 -1t-14 -1q-31 0 -91.5 36t-122 85t-106.5 101t-45 87zM29 1620q0 63 31.5 108t66.5 82q90 -16 129 -67t39 -156q0 -66 -36 -114t-85 -48q-25 0 -51.5 17.5t-47 45.5t-33.5 62.5t-13 69.5zM389 416q0 -20 15.5 -29.5 t31.5 -9.5v518q0 20 -16.5 51t-30.5 45v-575zM479 1622q0 63 32 109.5t67 83.5q88 -16 127.5 -68.5t39.5 -157.5q0 -66 -35.5 -114t-84.5 -48q-27 0 -52.5 17.5t-46 45.5t-34 62.5t-13.5 69.5z" />
<glyph unicode="&#xf7;" horiz-adv-x="647" d="M2 578l295 124l319 -124l2 -4q3 -5 0 -7q-23 -35 -59.5 -51t-95.5 -53q-8 -4 -47 2t-91.5 18.5t-111.5 27.5t-107.5 29.5t-78 24.5t-25.5 13zM215 193q0 63 31.5 108t66.5 82q90 -16 129 -67.5t39 -155.5q0 -66 -35.5 -114t-85.5 -48q-25 0 -51 17.5t-46.5 45t-34 62.5 t-13.5 70zM215 956q0 63 31.5 108.5t66.5 82.5q90 -16 129 -67.5t39 -155.5q0 -66 -35.5 -114t-85.5 -48q-25 0 -51 17.5t-46.5 45t-34 62.5t-13.5 69z" />
<glyph unicode="&#xf8;" d="M2 307q0 -35 45 -87t106.5 -101t122 -85t91.5 -36q6 0 14 1l8 1q6 2 23.5 20.5t37 41t37 42t21.5 23.5q66 47 111 75.5t74.5 52.5t46 50.5t24.5 72.5t9 119.5t1 188.5v47q0 35 -1 72t-1 72v49q-10 55 -29.5 115.5t-47 114.5t-62.5 96t-78 59q-4 -8 -25.5 -23.5t-45 -31 t-45 -27.5t-25.5 -15q-25 -14 -87.5 -32.5t-126 -37t-112.5 -34.5t-49 -25v-702q-23 0 -30 -15.5t-7 -37.5v-23zM389 416v108l47 64l8 -174q-16 0 -35.5 -8.5t-19.5 10.5zM389 735v256q14 -14 28.5 -45t18.5 -51l8 -59z" />
<glyph unicode="&#xf9;" horiz-adv-x="974" d="M0 1024q0 -35 8 -47t22.5 -13t32 3t35.5 4v-555q0 -2 -9 -13.5t-15 -19.5q-6 -2 -24.5 -13.5t-22.5 -17.5l-1 -5t-1 -7q0 -8 1 -14l1 -7q10 -47 43.5 -96t72.5 -94t74 -79t49 -50h13q31 0 57 25.5t53 55.5t54.5 55.5t62.5 25.5q31 0 54.5 -25.5t45 -55.5t46 -55.5 t57.5 -25.5q25 0 64.5 26.5t76.5 66.5t63.5 83t26.5 78q0 39 -15.5 49t-35 12t-34.5 6.5t-15 30.5v574q29 35 41 60.5t12 68.5v22q-4 8 -5 11.5t-7.5 9.5t-18.5 20.5t-37 44.5q-18 20 -41.5 47t-46 52.5t-40 47t-25.5 31.5q-41 -74 -95.5 -129t-119.5 -94v-16v-17 q2 -8 8 -25.5t13 -38t15.5 -37.5t12.5 -26v-575q0 -12 -19.5 -27.5t-36 -24.5t-18.5 -12q0 18 1 51t1 74q0 43 1 93.5t1 101.5q0 104 -2 193.5t-2 125.5q0 43 -10 109t-31.5 127t-52.5 105t-72 44q-6 0 -13 -1t-11 -1q-10 -10 -33 -37.5t-49.5 -58.5t-51 -58.5t-34.5 -35.5 q-18 -23 -32.5 -36t-24 -25.5t-13.5 -26.5t-4 -39zM297 1753q-2 -2 9 -26.5t30.5 -60.5t43 -76t46.5 -71.5t40 -50t23 -10.5q18 20 35 34.5t29 29t21.5 32t13.5 41.5q4 0 2 7l-2 6l-109 305z" />
<glyph unicode="&#xfa;" horiz-adv-x="974" d="M0 1024q0 -35 8 -47t22.5 -13t32 3t35.5 4v-555q0 -2 -9 -13.5t-15 -19.5q-6 -2 -24.5 -13.5t-22.5 -17.5l-1 -5t-1 -7q0 -8 1 -14l1 -7q10 -47 43.5 -95t72.5 -92t74 -79t49 -53h13q31 0 57 25.5t53 55.5t54.5 55.5t62.5 25.5q31 0 54.5 -25.5t45 -55.5t46 -55.5 t57.5 -25.5q25 0 64.5 26.5t76.5 66.5t63.5 83t26.5 78q0 39 -15.5 49t-35 12t-34.5 6.5t-15 30.5v574q29 35 41 60.5t12 68.5v22q-2 8 -3 11.5t-7 9.5t-19.5 20.5t-38.5 44.5q-20 20 -43.5 47t-46 53.5t-40 47t-23.5 30.5q-84 -145 -215 -223v-16v-17q2 -6 8 -24.5 t14 -37.5t15.5 -37.5t11.5 -27.5v-575q0 -10 -11.5 -20.5t-24.5 -20.5t-26 -16l-12 -7q0 18 1 51t1 74q0 43 1 93.5t1 101.5q0 104 -2 193.5t-2 125.5q0 43 -10 109t-31.5 127t-52.5 105t-72 44q-6 0 -13 -1t-11 -1q-10 -10 -34 -37.5t-50.5 -58.5t-50 -57.5t-33.5 -36.5 q-18 -23 -32.5 -36t-24 -25.5t-13.5 -26.5t-4 -39zM354 1608q-2 -6 2 -6q10 -47 35 -72t62 -66q6 -8 22.5 10.5t39 50t47 71.5t44 76t31.5 60.5t10 26.5l-184 160l-107 -305z" />
<glyph unicode="&#xfb;" horiz-adv-x="974" d="M0 1024q0 -35 8 -47t22.5 -13t32 3t35.5 4v-555q0 -2 -9 -13.5t-15 -19.5q-6 -2 -24.5 -13.5t-22.5 -17.5l-1 -5t-1 -7q0 -8 1 -14l1 -7q10 -47 43.5 -95t72.5 -92t74 -79t49 -53h13q31 0 57 25.5t53 55.5t54.5 55.5t62.5 25.5q31 0 54.5 -25.5t45 -55.5t46 -55.5 t57.5 -25.5q25 0 64.5 26.5t76.5 66.5t63.5 83t26.5 78q0 39 -15.5 49t-35 12t-34.5 6.5t-15 30.5v574q29 35 41 60.5t12 68.5v22q-2 8 -3 11.5t-7 9.5t-19.5 20.5t-38.5 44.5q-20 20 -43.5 47t-46 53.5t-40 47t-23.5 30.5q-84 -145 -215 -223v-16v-17q2 -6 8 -24.5 t14 -37.5t15.5 -37.5t11.5 -27.5v-575q0 -10 -11.5 -20.5t-24.5 -20.5t-26 -16l-12 -7q0 18 1 51t1 74q0 43 1 93.5t1 101.5q0 104 -2 193.5t-2 125.5q0 43 -10 109t-31.5 127t-52.5 105t-72 44q-6 0 -13 -1t-11 -1q-10 -10 -34 -37.5t-50.5 -58.5t-50 -57.5t-33.5 -36.5 q-18 -23 -32.5 -36t-24 -25.5t-13.5 -26.5t-4 -39zM55 1583q-4 -6 32 -40t83 -69.5t89 -60t52 -12.5q14 18 40 54t52.5 75t49 71.5t32.5 45.5l150 -258l225 204q4 4 -22.5 23.5t-69.5 46.5t-94 56.5t-98.5 53t-81 37t-41.5 9.5z" />
<glyph unicode="&#xfc;" horiz-adv-x="974" d="M0 1024q0 25 4 39t13.5 26.5t23.5 25.5t33 36q10 8 34.5 35.5t51 58.5t49 58.5t33.5 37.5q4 0 11 1t13 1q41 0 72 -44t52.5 -105t31.5 -127t10 -109q0 -37 2 -126t2 -193q0 -51 -1 -101.5t-1 -93.5q0 -41 -1 -73.5t-1 -51.5q2 2 18.5 11.5t36 25t19.5 27.5v575 q-4 8 -12.5 25.5t-15.5 38t-13 38t-8 25.5v17v16q66 39 120 94.5t95 128.5q12 -12 38.5 -43.5t57.5 -66.5t57.5 -68t38.5 -45q16 -18 22.5 -24.5t6.5 -16.5v-22q0 -43 -12.5 -68.5t-40.5 -60.5v-574q0 -27 15 -31t34.5 -6t35 -12t15.5 -49q0 -35 -26.5 -78t-63.5 -83 t-77 -66.5t-64 -26.5q-33 0 -57.5 25.5t-46 55.5t-45 55.5t-54.5 25.5q-35 0 -62.5 -25.5t-54.5 -55.5t-53.5 -55.5t-56.5 -25.5h-13q-14 16 -49 50t-74 79t-72.5 94t-43.5 96l-1 7q-1 6 -1 14q0 2 1 7l1 5q4 6 22.5 17.5t24.5 13.5q6 8 15 19.5t9 13.5v555q-18 0 -35.5 -4 t-32 -3t-22.5 13t-8 47zM113 1657q0 63 31.5 108t66.5 82q88 -16 127 -67t39 -156q0 -66 -36 -114t-83 -48q-25 0 -51.5 17.5t-47 45t-33.5 62.5t-13 70zM561 1659q0 63 32.5 109t65.5 83q88 -16 128 -68t40 -157q0 -66 -35.5 -114t-82.5 -48q-27 0 -52.5 17.5t-47 45 t-35 62.5t-13.5 70z" />
<glyph unicode="&#xfd;" horiz-adv-x="636" d="M0 1120q0 -61 8 -116.5t18.5 -109.5t18.5 -111.5t8 -120.5q0 -102 -14 -185.5t-14 -179.5q0 -39 16 -81t40.5 -76t51.5 -56.5t49 -22.5q2 0 6 1l5 1q6 8 26.5 29t44 43.5t45 44t29.5 31.5q0 -8 1 -26.5t1 -39.5v-61q0 -76 -7 -125t-24.5 -89t-46 -80t-69.5 -95 q2 -18 13 -26.5t23.5 -11.5t23.5 -2t15 1q39 0 96.5 43t109.5 108.5t89 143.5t37 147v883q-6 23 -15.5 54.5t-25.5 47.5l-78 119l-5 1t-7 1q-4 0 -8 -1l-4 -1l-119 -112l-49 -35l-121 182v18q0 12 8 23.5t20.5 22t24.5 20.5t21 22q-16 51 -30.5 64.5t-43.5 13.5 q-47 0 -79 -23.5t-51.5 -64.5t-28.5 -95t-9 -118zM203 1608q-2 -6 2 -6q10 -47 35.5 -72t62.5 -66q4 -8 21.5 11.5t40 51.5t46 71.5t44 74.5t32 59.5t9.5 26.5l-183 160l-108 -305zM313 385v485l25 37q27 -70 27 -147v-146v-39q0 -29 -2.5 -54t-2.5 -54v-37q-12 -45 -47 -45 z" />
<glyph unicode="&#xfe;" horiz-adv-x="663" d="M0 406v38q0 59 16.5 107.5t35 94.5t34.5 96.5t16 113.5q0 57 -8 102.5t-19.5 86t-19.5 83.5t-8 99q0 111 35 173t113 62h38q23 0 33 -37l-47 -71q23 -14 42.5 -60.5t34.5 -101.5t28.5 -109.5t23.5 -85.5q2 0 23.5 22.5t51.5 49.5t58.5 49.5t44.5 22.5t36 -29t36 -65.5 t26.5 -70.5t10.5 -46v-596q0 -12 -22.5 -36t-56.5 -52.5t-74 -58t-74.5 -57.5t-58 -48.5t-25.5 -28.5q-4 -12 -8.5 -31.5t-9.5 -40t-9 -39t-6 -26.5q-6 -33 -9 -53.5t-6.5 -32.5t-9.5 -17.5t-20 -5.5q-27 0 -45.5 34t-31.5 87.5t-21.5 119t-13.5 128t-7 115.5t-4 82 q-4 0 -11.5 2t-11.5 2q-12 0 -19 -7.5t-13.5 -14.5t-13.5 -14t-15 -7q-23 0 -31 21.5t-8 50.5zM348 506l47 -68v385l-24 35l-23 -35v-317z" />
<glyph unicode="&#xff;" horiz-adv-x="636" d="M0 1120q0 -61 8 -116.5t18.5 -109.5t18.5 -111.5t8 -120.5q0 -102 -14 -185.5t-14 -179.5q0 -39 16 -81t40.5 -76t51.5 -56.5t49 -22.5q2 0 6 1l5 1q8 8 28.5 29t44 43.5t44 44t28.5 31.5q0 -8 1 -26.5t1 -39.5v-61q0 -76 -7 -125t-24.5 -89t-46 -80t-69.5 -95 q2 -18 12 -26.5t22.5 -11.5t23.5 -2t17 1q39 0 96.5 43t109.5 108.5t89 143.5t37 147v883q-6 23 -15.5 54.5t-25.5 47.5l-78 119l-5 1t-7 1q-4 0 -8 -1l-4 -1l-119 -112l-49 -35l-121 182v18q0 12 8 23.5t20.5 22t24.5 20.5t21 22q-16 51 -30.5 64.5t-43.5 13.5 q-47 0 -79 -23.5t-51.5 -64.5t-28.5 -95t-9 -118zM10 1661q0 -35 13.5 -70t34 -62.5t47 -45t51.5 -17.5q51 0 85.5 48.5t34.5 115.5q0 104 -38.5 155.5t-128.5 67.5q-35 -37 -67 -83t-32 -109zM313 385v485l25 37q27 -70 27 -147v-146v-39q0 -29 -2.5 -54t-2.5 -54v-37 q-12 -45 -47 -45zM377 1661q0 -35 13 -70t33.5 -62.5t46.5 -45t52 -17.5q49 0 84 48.5t35 115.5q0 104 -39 155.5t-129 67.5q-33 -37 -64.5 -83t-31.5 -109z" />
<glyph unicode="&#x152;" horiz-adv-x="1228" d="M0 352q0 -53 33 -114.5t79 -114.5t94 -89t81 -36q6 0 14 1t10 1q14 10 49 41t75 66.5t80 71.5t65 59q25 -47 57.5 -90.5t67 -76t70.5 -52t67 -19.5q16 0 50 22.5t74 57.5t82 78t75.5 84t55 74.5t21.5 52.5q0 29 -12 40t-35 11q-41 0 -71.5 -18.5t-73.5 -18.5 q-23 0 -51.5 10t-55.5 28.5t-45 45.5t-18 61q0 47 25.5 79t62.5 57.5t82 48t81.5 50.5t62.5 64.5t26 90.5q0 10 -1 25t-1 18l-168 352q-2 2 -19.5 13t-27.5 17h-13q-25 0 -71 -18t-98 -49t-104 -72t-89 -86q-12 31 -21.5 56.5t-13.5 39.5q-4 2 -12.5 22.5t-19.5 44.5 t-24.5 43t-27.5 19q-4 0 -6 -1t-6 -1q-20 -10 -67.5 -32.5t-99.5 -48t-100.5 -48t-68.5 -30.5q-16 -10 -37 -25.5t-39 -36t-30.5 -45t-12.5 -53.5v-670zM311 512v446q8 -16 18.5 -47.5t24 -64.5t33 -57.5t45.5 -24.5q30 0 96 35v-381v-27q-16 -10 -49 -10q-18 0 -47 8 t-55.5 24.5t-46 41t-19.5 57.5zM817 737v221q0 -4 6 -17t14.5 -28.5t15.5 -29t11 -19.5q6 -12 14.5 -36.5t8.5 -26.5q0 -12 -18.5 -27.5t-34 -25t-17.5 -11.5z" />
<glyph unicode="&#x153;" horiz-adv-x="1228" d="M0 352q0 -53 33 -114.5t79 -114.5t94 -89t81 -36q6 0 14 1t10 1q14 10 49 41t75 66.5t80 71.5t65 59q25 -47 57.5 -90.5t67 -76t70.5 -52t67 -19.5q16 0 50 22.5t74 57.5t82 78t75.5 84t55 74.5t21.5 52.5q0 29 -12 40t-35 11q-41 0 -71.5 -18.5t-73.5 -18.5 q-23 0 -51.5 10t-55.5 28.5t-45 45.5t-18 61q0 47 25.5 79t62.5 57.5t82 48t81.5 50.5t62.5 64.5t26 90.5q0 10 -1 25t-1 18l-168 352q-2 2 -19.5 13t-27.5 17h-13q-25 0 -71 -18t-98 -49t-104 -72t-89 -86q-12 31 -21.5 56.5t-13.5 39.5q-4 2 -12.5 22.5t-19.5 44.5 t-24.5 43t-27.5 19q-4 0 -6 -1t-6 -1q-20 -10 -67.5 -32.5t-99.5 -48t-100.5 -48t-68.5 -30.5q-16 -10 -37 -25.5t-39 -36t-30.5 -45t-12.5 -53.5v-670zM311 512v446q8 -16 18.5 -47.5t24 -64.5t33 -57.5t45.5 -24.5q30 0 96 35v-381v-27q-16 -10 -49 -10q-18 0 -47 8 t-55.5 24.5t-46 41t-19.5 57.5zM817 737v221q0 -4 6 -17t14.5 -28.5t15.5 -29t11 -19.5q6 -12 14.5 -36.5t8.5 -26.5q0 -12 -18.5 -27.5t-34 -25t-17.5 -11.5z" />
<glyph unicode="&#x178;" horiz-adv-x="636" d="M0 1120q0 -61 8 -116.5t18.5 -109.5t18.5 -111.5t8 -120.5q0 -102 -14 -185.5t-14 -179.5q0 -39 16 -81t40.5 -76t51.5 -56.5t49 -22.5q2 0 6 1l5 1q8 8 28.5 29t44 43.5t44 44t28.5 31.5q0 -8 1 -26.5t1 -39.5v-61q0 -76 -7 -125t-24.5 -89t-46 -80t-69.5 -95 q2 -18 12 -26.5t22.5 -11.5t23.5 -2t17 1q39 0 96.5 43t109.5 108.5t89 143.5t37 147v883q-6 23 -15.5 54.5t-25.5 47.5l-78 119l-5 1t-7 1q-4 0 -8 -1l-4 -1l-119 -112l-49 -35l-121 182v18q0 12 8 23.5t20.5 22t24.5 20.5t21 22q-16 51 -30.5 64.5t-43.5 13.5 q-47 0 -79 -23.5t-51.5 -64.5t-28.5 -95t-9 -118zM10 1661q0 -35 13.5 -70t34 -62.5t47 -45t51.5 -17.5q51 0 85.5 48.5t34.5 115.5q0 104 -38.5 155.5t-128.5 67.5q-35 -37 -67 -83t-32 -109zM313 385v485l25 37q27 -70 27 -147v-146v-39q0 -29 -2.5 -54t-2.5 -54v-37 q-12 -45 -47 -45zM377 1661q0 -35 13 -70t33.5 -62.5t46.5 -45t52 -17.5q49 0 84 48.5t35 115.5q0 104 -39 155.5t-129 67.5q-33 -37 -64.5 -83t-31.5 -109z" />
<glyph unicode="&#x2c6;" horiz-adv-x="837" d="M2 1608l397 235q8 4 42 -9t81 -36.5t98.5 -52.5t93.5 -55.5t68.5 -46t24.5 -25.5l-225 -205l-150 258q-10 -12 -32.5 -45t-49 -71.5t-52.5 -74.5t-40 -55q-10 -12 -52 12.5t-89 60.5t-83 70t-32 40z" />
<glyph unicode="&#x2dc;" horiz-adv-x="837" d="M2 1630l225 203l135 -154q16 29 39 70t54 78q6 8 34.5 -2t69.5 -29.5t86 -44.5t82 -48.5t60.5 -42t19.5 -22.5l-225 -202l-121 127q-16 -23 -46 -54.5t-63 -66.5q-6 -8 -34.5 2t-68.5 29.5t-85 44t-82 48t-60.5 42t-19.5 22.5z" />
<glyph unicode="&#x2000;" horiz-adv-x="964" />
<glyph unicode="&#x2001;" horiz-adv-x="1929" />
<glyph unicode="&#x2002;" horiz-adv-x="964" />
<glyph unicode="&#x2003;" horiz-adv-x="1929" />
<glyph unicode="&#x2004;" horiz-adv-x="643" />
<glyph unicode="&#x2005;" horiz-adv-x="482" />
<glyph unicode="&#x2006;" horiz-adv-x="321" />
<glyph unicode="&#x2007;" horiz-adv-x="321" />
<glyph unicode="&#x2008;" horiz-adv-x="241" />
<glyph unicode="&#x2009;" horiz-adv-x="385" />
<glyph unicode="&#x200a;" horiz-adv-x="107" />
<glyph unicode="&#x2010;" horiz-adv-x="503" d="M2 713q-4 -4 19.5 -21.5t60.5 -41t81 -49.5t84 -45t69.5 -28.5t35.5 -1.5q47 53 76 86t45 86q4 2 0 8l-4 7l-242 205z" />
<glyph unicode="&#x2011;" horiz-adv-x="503" d="M2 713q-4 -4 19.5 -21.5t60.5 -41t81 -49.5t84 -45t69.5 -28.5t35.5 -1.5q47 53 76 86t45 86q4 2 0 8l-4 7l-242 205z" />
<glyph unicode="&#x2012;" horiz-adv-x="503" d="M2 713q-4 -4 19.5 -21.5t60.5 -41t81 -49.5t84 -45t69.5 -28.5t35.5 -1.5q47 53 76 86t45 86q4 2 0 8l-4 7l-242 205z" />
<glyph unicode="&#x2013;" horiz-adv-x="503" d="M2 713q-4 -4 19.5 -21.5t60.5 -41t81 -49.5t84 -45t69.5 -28.5t35.5 -1.5q47 53 76 86t45 86q4 2 0 8l-4 7l-242 205z" />
<glyph unicode="&#x2014;" horiz-adv-x="763" d="M2 713l348 205l377 -205l4 -7q4 -6 2 -8q-12 -29 -29.5 -49t-40 -38.5t-52 -38t-64.5 -46.5q-8 -8 -53 2.5t-107.5 28.5t-132.5 44t-127 48.5t-94 41t-31 22.5z" />
<glyph unicode="&#x2018;" horiz-adv-x="382" d="M-2 1253q0 -119 25.5 -207t97.5 -161l182 51l49 168l-86 196l-98 191l-23 33l-5 1t-9 1l-4 -1q-4 -1 -6 -1q-12 -6 -30.5 -26.5t-37 -45.5t-33 -49.5t-18.5 -38.5l-1 -12q-1 -13 -1 -31q0 -16 -1 -34.5t-1 -33.5z" />
<glyph unicode="&#x2019;" horiz-adv-x="382" d="M-4 1305l88 -197l96 -190l25 -33l4 -1t8 -1q2 0 6 1t6 1q10 2 30 22.5t38 47t32.5 52t18.5 37.5l1 12q1 13 1 29q0 18 1 37t1 33q0 119 -26.5 207t-96.5 162l-184 -51z" />
<glyph unicode="&#x201a;" horiz-adv-x="344" d="M0 -258q0 55 27.5 109.5t103.5 115.5q-35 29 -75 82t-46 131q16 86 60.5 130t109.5 50l76 -26q18 -33 29.5 -56.5t18.5 -47t9 -51t2 -66.5q0 -94 -29.5 -164t-75.5 -116t-102.5 -68.5t-107.5 -22.5z" />
<glyph unicode="&#x201c;" horiz-adv-x="763" d="M0 1255q0 -119 25.5 -206.5t97.5 -161.5l182 51l51 168l-90 197l-94 192l-25 31l-4 1q-4 1 -8 1t-6 -1t-6 -1q-12 -6 -30.5 -26.5t-37 -45t-34 -49.5t-19.5 -39v-43q0 -16 -1 -34.5t-1 -33.5zM381 1257q0 -117 26.5 -205.5t98.5 -162.5l182 53l49 166l-90 197l-94 192 l-25 31l-4 2t-8 2q-2 0 -6 -2l-4 -2q-12 -6 -30.5 -26.5t-37 -45t-34 -49.5t-19.5 -39q0 -2 -1 -20.5t-2 -45t-1 -45.5z" />
<glyph unicode="&#x201d;" horiz-adv-x="763" d="M0 1311l88 -197l96 -192l25 -33l4 -1t8 -1q2 0 5 1t5 1q12 2 32 23.5t38 47t32.5 51t18.5 38.5q0 2 1 14t1 29q0 16 1 34.5t1 32.5q0 119 -26.5 207t-98.5 162l-182 -51zM381 1313l88 -197l96 -192l25 -31l4 -2q4 -2 8 -2t6 2t6 2q10 2 30 22.5t38 46t32.5 52t18.5 39.5 l1 12q1 12 1 29q0 18 1 36.5t1 32.5q0 117 -25.5 206t-97.5 163l-182 -53z" />
<glyph unicode="&#x201e;" horiz-adv-x="684" d="M0 -258q51 0 107.5 22.5t102.5 68.5t75.5 115.5t29.5 164.5q0 39 -2 66.5t-9 51t-18.5 47t-29.5 56.5l-76 26q-66 -6 -109.5 -50t-60.5 -130q6 -78 47 -132t74 -81q-78 -66 -104.5 -117t-26.5 -108zM340 -260q53 0 109.5 22.5t102.5 68.5t75.5 115.5t29.5 164.5 q0 39 -2 66.5t-9 51t-18.5 47t-29.5 56.5l-76 26q-66 -8 -110.5 -51t-59.5 -131q2 -39 14.5 -71.5t30 -58.5t38 -46t36.5 -35q-78 -66 -104.5 -117t-26.5 -108z" />
<glyph unicode="&#x2022;" d="M2 307v23q0 23 7 38t30 15v702q0 8 49 24.5t112.5 35t126 37t87.5 32.5q4 2 25.5 14.5t45 28t45 31t25.5 23.5q43 -16 78 -58.5t62.5 -96.5t47 -114.5t29.5 -115.5v-49q0 -35 1 -72t1 -72v-47q0 -115 -1 -188.5t-9 -119.5t-24.5 -72.5t-46 -50.5t-75 -52.5t-110.5 -75.5 q-4 -4 -21.5 -23.5t-37 -42t-37 -41t-23.5 -20.5l-8 -1t-14 -1q-31 0 -91.5 36t-122 85t-106.5 101t-45 87z" />
<glyph unicode="&#x2026;" horiz-adv-x="976" d="M0 193q0 63 31.5 108t66.5 82q88 -16 128 -67.5t40 -155.5q0 -66 -35.5 -114t-85.5 -48q-27 0 -52 17.5t-45.5 45t-34 62.5t-13.5 70zM297 195q0 63 32.5 108t65.5 82q90 -16 129 -67.5t39 -155.5q0 -66 -35.5 -114t-83.5 -48q-25 0 -51 17.5t-47.5 45t-35 62.5t-13.5 70 zM592 195q0 63 31.5 108t66.5 82q88 -16 127 -67.5t39 -155.5q0 -66 -36 -114t-83 -48q-25 0 -51.5 17.5t-47 45t-33.5 62.5t-13 70z" />
<glyph unicode="&#x202f;" horiz-adv-x="385" />
<glyph unicode="&#x2039;" horiz-adv-x="352" d="M2 692q-4 -10 7 -55t28.5 -106.5t39 -130t41 -126t35 -93.5t19.5 -31l152 301l-193 200q8 10 33.5 41t54.5 67t55.5 70.5t40.5 53.5q6 8 -1 37.5t-21 68.5t-32.5 83t-36 79t-30 56.5t-16.5 17.5z" />
<glyph unicode="&#x203a;" horiz-adv-x="352" d="M0 451l193 200q-10 10 -35 41t-54.5 67t-56.5 70.5t-39 53.5q-6 8 1 37.5t21.5 68.5t33 83t36 79t30.5 56.5t15 17.5l177 -533q4 -10 -6.5 -55t-28 -107.5t-39 -131t-42 -126t-34.5 -92.5t-18 -30z" />
<glyph unicode="&#x205f;" horiz-adv-x="482" />
<glyph unicode="&#x20ac;" horiz-adv-x="1011" d="M2 539q-4 -4 32 -18.5t88 -31t111.5 -34t100.5 -27.5v-76q0 -53 32.5 -114.5t79 -114.5t95.5 -89t82 -36q4 0 13 1t11 1q14 12 55 48t87.5 78t87.5 79t57 51q31 29 41 42t10 54q0 23 -8 43.5t-31 20.5q-35 0 -64.5 -17.5t-68.5 -17.5q-18 0 -47 8t-54.5 24.5t-45 41 t-19.5 57.5v446q6 -16 16.5 -47.5t24.5 -64.5t33.5 -57.5t44.5 -24.5q16 0 53 14.5t74 39t64.5 56t27.5 68.5q0 4 -1 10l-1 6q-6 10 -19.5 46t-28.5 78t-28.5 80t-19.5 52q-4 2 -12.5 22.5t-19.5 44.5t-25.5 43t-28.5 19l-4 -1t-6 -1q-18 -10 -66.5 -32.5t-102 -48 t-100.5 -48t-67 -30.5q-16 -10 -37 -25.5t-39.5 -36t-31.5 -45t-13 -53.5v-109l-51 25l-252 -123q-4 -2 25.5 -14.5t75.5 -28.5t100.5 -32.5t101.5 -26.5v-88l-82 37z" />
<glyph unicode="&#x2122;" horiz-adv-x="903" d="M0 987q2 0 19.5 11.5t17.5 21.5v223q-16 16 -26.5 28.5t-10.5 35.5v18q57 66 89 128.5t67 158.5l30 -31v-192q8 -4 21.5 -7.5t26 -9.5t21.5 -17.5t9 -29.5q0 -45 -19.5 -59.5t-51.5 -3.5v-246q4 0 13 3t21 3q10 0 18.5 -5t8.5 -22q0 -16 -16.5 -39.5t-39 -47t-45 -41 t-34.5 -21.5q-12 14 -30.5 28.5t-36 32t-32 36.5t-20.5 44zM309 1380l9 16q10 15 16 21q10 14 27.5 38t29.5 39t15 17h24l59 -94q0 -4 12.5 9.5t29 31t33 33.5t22.5 20l1 1q1 1 5 1l6 -2l59 -94l1 -1q1 -1 6 -1q10 0 22 13.5t25.5 30t25 32.5t17.5 20l4 2q4 0 5 -1l1 -1 q6 -4 19.5 -20t26.5 -34.5t24.5 -35t15.5 -20.5q4 -6 7 -13l3 -8v-8v-10q0 -6 -3 -20.5t-7 -18.5v-305q4 -6 12 -19.5t12 -17.5v-10q0 -14 -11 -36t-26.5 -41.5t-33 -33.5t-27.5 -14q-6 0 -19.5 12t-25.5 30.5t-21.5 38t-9.5 36.5v354q-4 0 -8 3t-10 3q-12 0 -12 -18v-287 q14 -33 14 -55q0 -18 -9 -40t-22.5 -38.5t-28 -27.5t-26.5 -11t-22.5 12t-19.5 27.5t-18.5 28t-21.5 12.5q-16 0 -27.5 -12.5t-21.5 -28t-20.5 -27.5t-22.5 -12q-2 0 -4 1l-2 1q-4 6 -16.5 20.5t-30.5 36.5q-6 14 -13 19q-4 6 -12 19t-12 20v8v10q4 4 6 17.5t6 19.5v305 q-10 0 -25.5 18.5t-11.5 38.5zM500 1018h24v323l-24 -18v-305z" />
<glyph unicode="&#x25fc;" horiz-adv-x="1331" d="M0 0v1331h1331v-1331h-1331z" />
</font>
</defs>
</svg>
