<?xml version="1.0" standalone="no"?>
<!DOCTYPE svg PUBLIC "-//W3C//DTD SVG 1.1//EN" "http://www.w3.org/Graphics/SVG/1.1/DTD/svg11.dtd" >
<svg xmlns="http://www.w3.org/2000/svg" xmlns:xlink="http://www.w3.org/1999/xlink" version="1.1">
<metadata>
Created by FontForge 20170731 at Mon Jan 14 16:03:03 2013
 By Aleksey,,,
2011 Iconian Fonts - www.iconian.com
</metadata>
<defs>
<font id="Crixus3D" horiz-adv-x="606" >
  <font-face 
    font-family="Crixus 3D"
    font-weight="400"
    font-stretch="normal"
    units-per-em="1000"
    panose-1="0 0 0 0 0 0 0 0 0 0"
    ascent="800"
    descent="-200"
    x-height="778"
    cap-height="778"
    bbox="-71 -222 1396 1031"
    underline-thickness="50"
    underline-position="-175"
    unicode-range="U+0020-2122"
  />
<missing-glyph horiz-adv-x="500" 
 />
    <glyph glyph-name=".notdef" horiz-adv-x="500" 
 />
    <glyph glyph-name=".null" horiz-adv-x="0" 
 />
    <glyph glyph-name="nonmarkingreturn" horiz-adv-x="500" 
 />
    <glyph glyph-name="space" unicode=" " horiz-adv-x="404" 
 />
    <glyph glyph-name="space" unicode="&#xa0;" horiz-adv-x="404" 
 />
    <glyph glyph-name="FL0021h" unicode="!" horiz-adv-x="300" 
d="M78 -6l25 -25q10 -10 23.5 -16t30.5 -6h5q22 0 39 8.5t28.5 21t17.5 27t6 27.5q0 16 -7.5 32.5t-20.5 29.5l-23 23q-11 17 -29 30t-39 13l-13 -1q-18 0 -34 -8.5t-27.5 -21t-18.5 -28t-7 -29.5q0 -22 11 -44t33 -33zM49 197l37 -37h155v576l-37 37v6h-161v-582h6zM122 0
h-5q-16 0 -28.5 6.5t-21 17t-13 23t-4.5 24.5t6 24.5t15.5 23t22.5 17t28 6.5l13 1q13 0 25 -7t21 -17.5t14 -23t5 -24.5q0 -11 -5 -23.5t-15 -23t-24.5 -17.5t-33.5 -7zM188 213h-129v550h129v-550z" />
    <glyph glyph-name="FL0022h" unicode="&#x22;" horiz-adv-x="496" 
d="M225 714l-23 22q-11 18 -28.5 31t-39.5 13l-13 -1q-18 0 -34 -8.5t-27.5 -21t-18.5 -28t-7 -29.5v-154q0 -21 11 -42.5t33 -33.5l24 -23q21 -23 55 -23h4q38 0 60.5 21.5t27.5 45.5q5 -6 11 -11.5t14 -10.5l24 -23q21 -23 55 -23h4q22 0 39.5 8.5t29 21t17.5 27t6 27.5
v154q0 16 -7 32t-20 28l-23 23q-11 18 -29 30.5t-39 12.5l-14 -1q-16 0 -30 -6.5t-25.5 -16.5t-19 -23t-10.5 -26q-6 6 -7 8zM121 469h-4q-16 0 -28.5 6.5t-21 16.5t-13 22t-4.5 24v154q0 12 6 24.5t15.5 23t22.5 17t28 6.5l13 1q13 0 25 -6.5t20.5 -16.5t13.5 -22.5
t5 -24.5v-154q0 -11 -5 -23.5t-15 -23t-24.5 -17.5t-33.5 -7zM317 468h-4q-16 0 -28.5 6.5t-21 16.5t-13 22t-4.5 24v154q0 12 6 25t15.5 23t22.5 16.5t28 6.5l14 1q13 0 24.5 -6.5t20.5 -16.5t14 -22.5t5 -24.5v-154q0 -11 -5 -23.5t-15 -23t-25 -17.5t-34 -7z" />
    <glyph glyph-name="FL0023h" unicode="#" horiz-adv-x="697" 
d="M273 419h99v-64h-99v64zM144 535h-94v-116h94v-64h-94v-117h94v-238h129v238h99v-238h129v238h96v117h-96v64h96v116h-96v228h-129v-228h-99v228h-129v-228zM34 551h94v228h161v-6l37 -37v-185h30v228h161v-6l37 -37v-185h59v-6l37 -37v-142h-37v-1l37 -37v-143h-96v-238
h-155l-37 37h-6v201h-30v-238h-155l-37 37h-6v201h-51l-37 37h-6v149h38l-32 32h-6v148z" />
    <glyph glyph-name="FL0024h" unicode="$" horiz-adv-x="663" 
d="M422 456v46h194v142l-37 37v6h-157v49l-37 37v6h-160v-92h-97q-13 0 -29.5 -8t-30.5 -20.5t-24 -28t-10 -30.5v-200q0 -18 16.5 -39.5t36.5 -35.5l20 -19q14 -14 28.5 -22.5t27.5 -8.5h62v-48h-191v-149h6l37 -37h148v-57h6l37 -37h154v94h103q12 0 27.5 7.5t29 19.5
t23 27t9.5 30v202q0 13 -8.5 27.5t-21.5 27.5l-20 20q-14 21 -36 37.5t-40 16.5h-66zM241 555h-61v-115h61v115zM433 211v117h-64v-117h64zM369 0h-128v94h-191v117h191v117h-118q-11 0 -23.5 7t-23.5 18t-18.5 23.5t-7.5 23.5v200q0 13 8 25.5t20 22.5t25.5 16.5t24.5 6.5
h113v92h128v-92h194v-116h-194v-115h119q10 0 23 -7t24 -18t18.5 -24t7.5 -24v-202q0 -13 -8 -25.5t-19.5 -22.5t-25 -16.5t-23.5 -6.5h-116v-94z" />
    <glyph glyph-name="FL0025h" unicode="%" horiz-adv-x="803" 
d="M505 58v265h135v-265h-135zM471 1q2 0 3.5 -0.5t2.5 -0.5h191q11 0 23 12t12 23v310q0 13 -14 24.5t-26 11.5h-183q-15 0 -27.5 -13t-12.5 -27v-300q0 -14 9 -25.5t22 -14.5zM115 439v265h135v-265h-135zM81 382q2 0 3.5 -0.5t2.5 -0.5h191q11 0 23 12t12 23v310
q0 13 -14 24.5t-26 11.5h-183q-15 0 -27.5 -13t-12.5 -27v-300q0 -14 9 -25.5t22 -14.5zM647 762h-107l-421 -762h109zM93 343l-27 26q-14 7 -23 21.5t-9 31.5v300q0 10 4.5 20t12.5 18t18 13t21 5h183q13 0 28 -11t23 -25l26 -25h-1l2 -1q15 -15 15 -30v-207l165 299h142
l-3 -5l38 -38l-187 -338h142q13 0 28 -11t23 -25l27 -26q15 -15 15 -30v-310q0 -16 -16 -32t-32 -16h-193q-1 0 -1.5 0.5t-2.5 0.5h-3q-14 3 -25 14l-27 27q-14 7 -23 21t-9 31v176l-149 -270h-137l-37 37h-8l189 344h-157q-1 0 -1.5 0.5t-2.5 0.5h-3q-14 3 -25 14zM558 270
v-196h66v196h-66zM168 651v-196h66v196h-66z" />
    <glyph glyph-name="FL0026h" unicode="&#x26;" horiz-adv-x="699" 
d="M378 329v-215h-198v215h198zM599 444h-419v200h326v116h-376q-17 0 -31.5 -8t-25 -20.5t-17 -28.5t-6.5 -31v-586q0 -33 19.5 -55t48.5 -33h311q11 0 24.5 6.5t25 16.5t19.5 23t8 25v260h93v115zM106 -24l-22 22q-23 14 -36.5 36.5t-13.5 51.5v586q0 18 7.5 36.5
t20.5 33.5t30.5 24.5t37.5 9.5h392v-6l37 -37v-142h-326v-131h382v-6l37 -37v-141h-93v-247q0 -15 -9.5 -30t-23 -27t-29 -19.5t-28.5 -7.5h-313q-29 10 -50 31zM233 276v-146h129v146h-129z" />
    <glyph glyph-name="FL0027h" unicode="'" horiz-adv-x="299" 
d="M78 461l24 -23q21 -23 55 -23h4q22 0 39 8.5t28.5 21t17.5 27t6 27.5v154q0 16 -7 32t-20 28l-23 22q-11 18 -28.5 31t-39.5 13l-13 -1q-18 0 -34 -8.5t-27.5 -21t-18.5 -28t-7 -29.5v-154q0 -21 11 -42.5t33 -33.5zM121 468h-4q-16 0 -28.5 6.5t-21 16.5t-13 22t-4.5 24
v154q0 12 6 25t15.5 23t22.5 16.5t28 6.5l13 1q13 0 25 -6.5t20.5 -16.5t13.5 -22.5t5 -24.5v-154q0 -11 -5 -23.5t-15 -23t-24.5 -17.5t-33.5 -7z" />
    <glyph glyph-name="FL0028h" unicode="(" horiz-adv-x="411" 
d="M311 646v116h-181q-17 0 -31.5 -8t-25 -20.5t-17 -28.5t-6.5 -31v-586q0 -29 16 -50.5t42 -33.5q2 -2 7 -3t7 -1h189v115h-131v531h131zM327 778v-6l37 -37v-142h-131v-462h94v-6l37 -37v-141h-202q-10 0 -20 6q-11 5 -19.5 10.5t-16.5 13.5l-23 23q-23 14 -36 36.5
t-13 51.5v586q0 18 7.5 36.5t20.5 33.5t30.5 24.5t37.5 9.5h197z" />
    <glyph glyph-name="FL0029h" unicode=")" horiz-adv-x="411" 
d="M34 778v-148h6l37 -37h88v-462h-131v-147h6l37 -37h202q3 0 8.5 1t10.5 5q30 14 48 38t18 57v586q0 20 -9 39.5t-24 34.5l-21 21q-14 20 -34 34.5t-45 14.5h-197zM50 646v116h181q16 0 31 -8t25.5 -20.5t17 -28.5t6.5 -31v-586q0 -29 -16 -50.5t-43 -33.5q-2 -2 -6.5 -3
t-6.5 -1h-189v115h131v531h-131z" />
    <glyph glyph-name="FL002Ah" unicode="*" horiz-adv-x="445" 
d="M298 713l-25 24q-11 17 -28.5 29.5t-37.5 12.5l-13 -1q-32 -1 -56 -23.5t-30 -49.5q-14 -2 -27 -9t-23.5 -18t-17 -24.5t-6.5 -28.5l1 -13q0 -24 13.5 -44.5t33.5 -31.5l22 -21q2 -3 4.5 -5t4.5 -4q11 -29 38 -45l25 -24q10 -10 23 -16t30 -6h5q19 0 35 7t27.5 17.5
t18.5 23.5t9 25q13 1 26.5 7t24 16.5t17 24.5t6.5 31v5q0 21 -7.5 37.5t-18.5 27.5l-3 2l1 -1q1 0 2 -1l-25 24q-14 23 -34 33q-4 8 -15 19zM345 612v-5q0 -15 -6.5 -27.5t-16.5 -21t-22 -13t-24 -4.5h-4v-2q0 -11 -5 -23.5t-15 -23t-24.5 -17.5t-33.5 -7h-5
q-15 0 -27.5 6.5t-21 16.5t-13 22t-4.5 24v4h-1q-12 0 -24.5 6t-23 15.5t-17 22.5t-6.5 28l-1 13q0 13 6.5 24.5t16.5 20.5t22.5 14t24.5 5h3v1q0 12 6 25t15.5 23t22.5 16.5t28 6.5l13 1q13 0 24.5 -6.5t20.5 -16.5t14 -22.5t5 -24.5v-3h2q11 0 23.5 -5t23 -15t17.5 -24.5
t7 -33.5z" />
    <glyph glyph-name="FL002Bh" unicode="+" horiz-adv-x="651" 
d="M379 560h-148v-99h-197v-148h6l37 -37h154v-67h6l37 -37h142v103h188v144l-37 37v6h-151v55l-37 37v6zM247 544h116v-98h188v-118h-188v-103h-116v104h-197v116h197v99z" />
    <glyph glyph-name="FL002Ch" unicode="," horiz-adv-x="299" 
d="M78 -158l24 -24q21 -23 55 -23h4q22 0 39 8.5t28.5 21t17.5 27t6 27.5v154q0 16 -7 32t-20 28l-23 22q-11 18 -28.5 31t-39.5 13l-13 -1q-18 0 -34 -8.5t-27.5 -21t-18.5 -28t-7 -29.5v-154q0 -20 11 -42t33 -33zM121 -152h-4q-16 0 -28.5 6.5t-21 16.5t-13 22t-4.5 24
v154q0 12 6 24.5t15.5 23t22.5 17t28 6.5l13 1q13 0 25 -6.5t20.5 -16.5t13.5 -22.5t5 -24.5v-154q0 -11 -5 -23.5t-15 -23t-24.5 -17.5t-33.5 -7z" />
    <glyph glyph-name="FL002Dh" unicode="-" horiz-adv-x="469" 
d="M369 445h-319v-116h319v116zM34 461h351v-6l37 -37v-142h-345l-37 37h-6v148z" />
    <glyph glyph-name="FL002Eh" unicode="." horiz-adv-x="300" 
d="M78 -6l25 -25q10 -10 23.5 -16t30.5 -6h5q22 0 39 8.5t28.5 21t17.5 27t6 27.5q0 16 -7.5 32.5t-20.5 29.5l-23 23q-11 17 -29 30t-39 13l-13 -1q-18 0 -34 -8.5t-27.5 -21t-18.5 -28t-7 -29.5q0 -22 11 -44t33 -33zM122 0h-5q-16 0 -28.5 6.5t-21 17t-13 23t-4.5 24.5
t6 24.5t15.5 23t22.5 17t28 6.5l13 1q13 0 25 -7t21 -17.5t14 -23t5 -24.5q0 -11 -5 -23.5t-15 -23t-24.5 -17.5t-33.5 -7z" />
    <glyph glyph-name="FL002Fh" unicode="/" horiz-adv-x="717" 
d="M32 -16l37 -37h188l421 788l-38 38l3 5h-183l-436 -794h8zM210 0h-160l419 762h148z" />
    <glyph glyph-name="FL0030h" unicode="0" horiz-adv-x="677" 
d="M233 410v183h201v-207q-3 5 -6.5 9t-7.5 9l-24 24q-11 17 -28.5 29.5t-38.5 12.5h-14q-27 0 -49.5 -18.5t-32.5 -41.5zM272 304l24 -23q23 -23 55 -23h4q29 0 48.5 12.5t30.5 29.5v-167h-201v218q10 -30 39 -47zM158 -51l1 -1l1 -1h386q13 0 27.5 8.5t27 21t21 27
t8.5 27.5v620q0 13 -7.5 26t-18.5 24l-21 20q-14 22 -39.5 39.5t-46.5 17.5h-367q-17 0 -34.5 -8.5t-31 -22t-22 -31t-8.5 -34.5v-600q0 -25 13.5 -48.5t35.5 -37.5l24 -23q18 -18 43 -24h8zM315 311h-4q-16 0 -28.5 6.5t-21.5 17t-13.5 23t-4.5 24.5t6 25t16 23.5t23 17
t27 6.5h14q13 0 25 -6.5t21 -17t14 -23.5t5 -25q0 -11 -5 -23.5t-15 -23t-25 -17.5t-34 -7zM113 2q-26 6 -44.5 30t-18.5 50v600q0 15 7 29t18.5 25.5t25.5 18.5t29 7h367q12 0 26 -6.5t26 -16.5t20 -23t8 -25v-620q0 -11 -7 -23.5t-17.5 -23t-23 -17.5t-23.5 -7h-382
q-1 0 -5 1t-6 1zM450 117v529h-270v-529h270z" />
    <glyph glyph-name="FL0031h" unicode="1" horiz-adv-x="386" 
d="M40 629l37 -37h64v-608h6l37 -37h155v789l-37 37v6h-268v-150h6zM286 0h-129v645h-107v118h236v-763z" />
    <glyph glyph-name="FL0032h" unicode="2" horiz-adv-x="663" 
d="M34 777v-148h6l37 -37h340v-148h-293q-13 0 -28.5 -9t-29 -22t-22.5 -29t-9 -29v-371h6l37 -37h538v141l-37 37v6h-346v132h296q12 0 27 8.5t28 21.5t22 28t9 28v301q0 14 -7.5 27t-18.5 24l-22 21q-7 12 -17.5 22t-21.5 17.5t-22.5 11.5t-20.5 4h-451zM50 645v116h435
q10 0 23.5 -6.5t25.5 -16.5t20 -22.5t8 -25.5v-301q0 -11 -7.5 -24t-18.5 -24t-24 -18t-23 -7h-309v-201h383v-115h-512v355q0 11 7.5 24t18.5 24t23.5 18t23.5 7h309v217h-383z" />
    <glyph glyph-name="FL0033h" unicode="3" horiz-adv-x="663" 
d="M557 398l-6 -9v1zM34 460v-143h6l37 -37h344v-148h-387v-148h6l37 -37h449q12 0 28 7.5t29.5 19.5t23 27t9.5 30v268q0 8 -8 21t-16 24q-2 2 -2 4q8 12 16 29t8 25v249q0 13 -7.5 26.5t-18.5 24.5l-23 22q-14 22 -38 38t-42 16h-451v-146h6l37 -37h343v-135h-386z
M436 444v204h-386v114h435q10 0 23.5 -6.5t25 -16.5t19.5 -23t8 -25v-249q0 -4 -3 -12.5t-7 -17.5t-9 -16t-8 -8q1 -3 5.5 -10t10 -14.5t9.5 -14.5t4 -10v-268q0 -12 -8 -25t-20 -23t-25.5 -16.5t-23.5 -6.5h-436v116h387v217h-387v111h386z" />
    <glyph glyph-name="FL0034h" unicode="4" horiz-adv-x="647" 
d="M195 779h-161v-476h6l37 -37h325v-282h6l37 -37h155v789l-37 37v6h-161v-325h-170v282l-37 37v6zM50 763h129v-325h239v325h129v-763h-129v319h-368v444z" />
    <glyph glyph-name="FL0035h" unicode="5" horiz-adv-x="663" 
d="M50 116v-116h435q10 0 23.5 6.5t25.5 16.5t20 23t8 25v302q0 11 -7.5 23.5t-18.5 23.5t-24 18t-23 7h-309v201h383v115h-512v-355q0 -11 7.5 -24t18.5 -24t23.5 -18t23.5 -7h309v-217h-383zM34 -16v148h383v148h-253q-13 0 -27.5 8.5t-28.5 22.5l-20 19
q-20 14 -36.5 35.5t-16.5 40.5v371h544v-6l37 -37v-141h-383v-132h256q18 0 40.5 -17t36.5 -38l19 -19q13 -13 21.5 -27t8.5 -27v-302q0 -15 -9.5 -30t-23 -27t-29.5 -19.5t-28 -7.5h-448l-37 37h-6z" />
    <glyph glyph-name="FL0036h" unicode="6" 
d="M233 132v144h129v-144h-129zM233 460v131h326v142l-37 37v6h-392q-20 0 -37.5 -9.5t-30.5 -24.5t-20.5 -33.5t-7.5 -36.5v-584q0 -29 13.5 -51.5t36.5 -36.5l22 -22q21 -21 50 -31h313q13 0 28.5 7.5t29 19.5t23 27t9.5 30v300q0 12 -9 27t-22 28l-19 18q-14 21 -36 38.5
t-40 17.5h-200zM378 116v213h-198v-213h198zM429 0h-311q-29 11 -48.5 33t-19.5 55v584q0 15 6.5 31t17 28.5t25 20.5t31.5 8h376v-116h-326v-200h253q10 0 23 -7.5t24 -18.5t18.5 -24t7.5 -23v-300q0 -12 -8 -25t-19.5 -23t-25 -16.5t-24.5 -6.5z" />
    <glyph glyph-name="FL0037h" unicode="7" horiz-adv-x="607" 
d="M41 630l37 -37h254l-309 -609h8l37 -37h156l336 655v133l-37 37v6h-488v-148h6zM176 0h-126l328 646h-327v116h456v-116z" />
    <glyph glyph-name="FL0038h" unicode="8" horiz-adv-x="663" 
d="M557 398l-6 -9v1zM231 460v133h188v-133h-188zM229 132v148h192v-148h-192zM485 778h-357q-13 0 -29 -8t-30 -20.5t-23.5 -28t-9.5 -30.5v-249q0 -7 7 -22t17 -29v-1h1q-2 -2 -2 -3t-1 -2q-8 -11 -16 -24.5t-8 -21.5v-268q0 -20 15 -39t35 -32l19 -19q14 -14 32 -24
t32 -10h359q12 0 28 7.5t29.5 19.5t23 27t9.5 30v268q0 8 -8 21t-16 24q-2 2 -2 4q8 12 16 29t8 25v249q0 13 -7.5 26.5t-18.5 24.5l-23 22q-14 22 -38 38t-42 16zM435 646h-257v-202h257v202zM437 333h-261v-217h261v217zM128 762h357q10 0 23.5 -6.5t25 -16.5t19.5 -23
t8 -25v-249q0 -4 -3 -12.5t-7 -17.5t-9 -16t-8 -8q1 -3 5.5 -10t10 -14.5t9.5 -14.5t4 -10v-268q0 -12 -8 -25t-20 -23t-25.5 -16.5t-23.5 -6.5h-359q-11 0 -24 6.5t-25 16.5t-20 23t-8 25v268q0 3 4 10t9 15t9.5 14.5t6.5 9.5q-3 1 -8 8t-9 16t-7 17.5t-3 12.5v249
q0 12 8 25t19.5 23t24.5 16.5t24 6.5z" />
    <glyph glyph-name="FL0039h" unicode="9" 
d="M232 446v146h129v-146h-129zM441 777h-314q-13 0 -29 -8t-30.5 -20.5t-24 -28t-9.5 -30.5v-301q0 -19 16.5 -40.5t36.5 -35.5l20 -19q14 -14 28.5 -22.5t27.5 -8.5h198v-132h-327v-148h6l37 -37h389q19 0 36 9.5t29.5 24t20 32.5t7.5 35v586q0 41 -29 70l-22 21
q-23 36 -67 53zM179 645v-215h198v215h-198zM127 761h311q30 -11 49 -33t19 -55v-586q0 -15 -6.5 -30.5t-17 -28.5t-25.5 -21t-31 -8h-376v116h327v201h-254q-11 0 -23.5 7t-23.5 18t-18.5 24t-7.5 24v301q0 13 8 25.5t20 22.5t25 16.5t24 6.5z" />
    <glyph glyph-name="FL003Ah" unicode=":" horiz-adv-x="301" 
d="M78 -6l25 -25q10 -10 23.5 -16t30.5 -6h5q22 0 39 8.5t28.5 21t17.5 27t6 27.5q0 16 -7.5 32.5t-20.5 29.5l-23 23q-11 17 -29 30t-39 13l-13 -1q-18 0 -34 -8.5t-27.5 -21t-18.5 -28t-7 -29.5q0 -22 11 -44t33 -33zM79 295l25 -24q10 -10 23.5 -16t30.5 -6h5
q22 0 39 8.5t28.5 21t17.5 27t6 27.5q0 16 -7 32.5t-20 29.5l-24 24q-11 17 -28.5 29.5t-38.5 12.5h-13q-18 0 -34 -8t-28 -21t-19 -28.5t-7 -30.5q0 -22 11 -44t33 -34zM123 302h-5q-16 0 -28.5 6.5t-21 17t-13 23t-4.5 24.5t6 25t15.5 23.5t22.5 17t28 6.5h13
q13 0 25 -6.5t21 -17t14 -23.5t5 -25q0 -11 -5 -23.5t-15 -23t-24.5 -17.5t-33.5 -7zM122 0h-5q-16 0 -28.5 6.5t-21 17t-13 23t-4.5 24.5t6 24.5t15.5 23t22.5 17t28 6.5l13 1q13 0 25 -7t21 -17.5t14 -23t5 -24.5q0 -11 -5 -23.5t-15 -23t-24.5 -17.5t-33.5 -7z" />
    <glyph glyph-name="FL003Bh" unicode=";" horiz-adv-x="301" 
d="M79 295l25 -24q10 -10 23.5 -16t30.5 -6h5q22 0 39 8.5t28.5 21t17.5 27t6 27.5q0 16 -7 32.5t-20 29.5l-24 24q-11 17 -28.5 29.5t-38.5 12.5h-13q-18 0 -34 -8t-28 -21t-19 -28.5t-7 -30.5q0 -22 11 -44t33 -34zM78 -158l24 -24q21 -23 55 -23h4q22 0 39 8.5t28.5 21
t17.5 27t6 27.5v154q0 16 -7 32t-20 28l-23 22q-11 18 -28.5 31t-39.5 13l-13 -1q-18 0 -34 -8.5t-27.5 -21t-18.5 -28t-7 -29.5v-154q0 -20 11 -42t33 -33zM121 -152h-4q-16 0 -28.5 6.5t-21 16.5t-13 22t-4.5 24v154q0 12 6 24.5t15.5 23t22.5 17t28 6.5l13 1
q13 0 25 -6.5t20.5 -16.5t13.5 -22.5t5 -24.5v-154q0 -11 -5 -23.5t-15 -23t-24.5 -17.5t-33.5 -7zM123 302h-5q-16 0 -28.5 6.5t-21 17t-13 23t-4.5 24.5t6 25t15.5 23.5t22.5 17t28 6.5h13q13 0 25 -6.5t21 -17t14 -23.5t5 -25q0 -11 -5 -23.5t-15 -23t-24.5 -17.5
t-33.5 -7z" />
    <glyph glyph-name="FL003Ch" unicode="&#x3c;" horiz-adv-x="599" 
d="M50 379l288 -379h160l-291 376v6l292 384h-148zM331 -16l-301 395l314 403h187l-4 -5l38 -38l-305 -400l304 -392h-192l-37 37h-4z" />
    <glyph glyph-name="FL003Dh" unicode="=" horiz-adv-x="469" 
d="M369 535h-319v-116h319v116zM369 355h-319v-117h319v117zM34 551h351v-6l37 -37v-142h-37v-1l37 -37v-143h-345l-37 37h-6v149h38l-32 32h-6v148z" />
    <glyph glyph-name="FL003Eh" unicode="&#x3e;" horiz-adv-x="599" 
d="M28 -16l37 -37h192l298 392l-311 400l-25 25l-14 18h-187l308 -403l-307 -395h9zM499 379l-288 -379h-160l292 376v6l-293 384h148z" />
    <glyph glyph-name="FL003Fh" unicode="?" horiz-adv-x="662" 
d="M78 -6l25 -25q10 -10 23.5 -16t30.5 -6h5q22 0 39 8.5t28.5 21t17.5 27t6 27.5q0 16 -7.5 32.5t-20.5 29.5l-23 23q-11 17 -29 30t-39 13l-13 -1q-18 0 -34 -8.5t-27.5 -21t-18.5 -28t-7 -29.5q0 -22 11 -44t33 -33zM34 777v-148h6l37 -37h340v-148h-293q-13 0 -28.5 -9
t-29 -22t-22.5 -29t-9 -29v-158h6l37 -37h155v103h296q12 0 27 8.5t28 21.5t22 28t9 28v301q0 14 -7.5 27t-18.5 24l-22 21q-7 12 -17.5 22t-21.5 17.5t-22.5 11.5t-20.5 4h-451zM122 0h-5q-16 0 -28.5 6.5t-21 17t-13 23t-4.5 24.5t6 24.5t15.5 23t22.5 17t28 6.5l13 1
q13 0 25 -7t21 -17.5t14 -23t5 -24.5q0 -11 -5 -23.5t-15 -23t-24.5 -17.5t-33.5 -7zM50 645v116h435q10 0 23.5 -6.5t25.5 -16.5t20 -22.5t8 -25.5v-301q0 -11 -7.5 -24t-18.5 -24t-24 -18t-23 -7h-309v-103h-129v142q0 11 7.5 24t18.5 24t23.5 18t23.5 7h309v217h-383z
" />
    <glyph glyph-name="FL0040h" unicode="@" 
d="M233 574v19h129v-1h-94q-20 0 -35 -18zM87 -3l23 -23q12 -12 27.5 -19.5t32.5 -7.5h389v142l-37 37v6h-289v102q5 -8 16 -13l28 -27q9 -9 22 -12h218q6 0 13.5 4.5t14 11t11 14.5t4.5 15v424q0 13 -7.5 26t-18.5 24l-21 21q-14 23 -39 39.5t-45 16.5h-314
q-35 -14 -58 -40t-23 -64v-586q0 -26 14.5 -51.5t38.5 -39.5zM352 344h26q2 0 5 4t3 8v109q0 5 -3 8.5t-5 3.5h-24q-3 0 -6 -4.5t-3 -9.5v-105q0 -13 7 -14zM477 235h-215q-11 2 -19 13t-8 23v270q0 13 10 24t23 11h110v70h-198v-530h326v-116h-376q-17 0 -31.5 8t-25 20.5
t-17 28.5t-6.5 31v586q0 33 19.5 55t48.5 33h311q11 0 24.5 -6.5t25.5 -16.5t20 -23t8 -25v-424q0 -10 -10.5 -21t-19.5 -11z" />
    <glyph glyph-name="FL0041h" unicode="A" horiz-adv-x="675" 
d="M594 711l1 -2q0 2 -1 2zM232 462v131h200v-131h-200zM40 -16l37 -37h155v330h200v-293h6l37 -37h153v699q0 17 -7.5 32t-20.5 28l-5 3l-1 2l-14 14q-10 18 -27 31.5t-37 20.5q-3 0 -4 1q-2 0 -3 1h-388q-14 0 -29 -8.5t-28 -21.5t-21.5 -28.5t-8.5 -28.5v-708h6zM448 446
v200h-269v-200h269zM448 330h-269v-330h-129v692q0 11 7 23.5t17.5 23t23 17.5t23.5 7h383q1 0 4.5 -1t5.5 -1q25 -8 43 -29t18 -46v-686h-127v330z" />
    <glyph glyph-name="FL0042h" unicode="B" horiz-adv-x="663" 
d="M552 390h-1l6 8q-2 -3 -3 -5t-2 -3zM232 460v133h187v-133h-187zM233 132v146h188v-146h-188zM41 -16l37 -37h448q12 0 28 7.5t29.5 19.5t23 27t9.5 30v268q0 8 -8 21t-16 24q-2 2 -2 4q8 12 16 29t8 25v249q0 13 -7.5 26.5t-18.5 24.5l-23 22q-14 22 -38 38t-42 16h-451
v-773h1v-21h6zM435 646h-256v-202h256v202zM437 116v215h-257v-215h257zM51 21h-1v741h435q10 0 23.5 -6.5t25 -16.5t19.5 -23t8 -25v-249q0 -4 -3 -12.5t-7 -17.5t-9 -16t-8 -8q1 -3 5.5 -10t10 -14.5t9.5 -14.5t4 -10v-268q0 -12 -8 -25t-20 -23t-25.5 -16.5t-23.5 -6.5
h-435v21z" />
    <glyph glyph-name="FL0043h" unicode="C" 
d="M506 646v116h-376q-17 0 -31.5 -8t-25 -20.5t-17 -28.5t-6.5 -31v-586q0 -29 16 -50.5t42 -33.5q2 -2 7 -3t7 -1h384v115h-326v531h326zM522 778v-6l37 -37v-142h-326v-462h289v-6l37 -37v-141h-397q-10 0 -20 6q-11 5 -19.5 10.5t-16.5 13.5l-23 23q-23 14 -36 36.5
t-13 51.5v586q0 18 7.5 36.5t20.5 33.5t30.5 24.5t37.5 9.5h392z" />
    <glyph glyph-name="FL0044h" unicode="D" horiz-adv-x="677" 
d="M180 117v529h270v-529h-270zM497 763h-447v-763h456q11 0 23.5 7t23 17.5t17.5 23t7 23.5v620q0 13 -8 25.5t-20 23t-26 17t-26 6.5zM34 779h463q20 0 44.5 -15.5t38.5 -37.5l24 -23q11 -11 18.5 -24.5t7.5 -27.5v-620q0 -13 -8.5 -27.5t-21 -27t-27 -21t-27.5 -8.5h-469
l-37 37h-6v795zM233 593v-460h201v460h-201z" />
    <glyph glyph-name="FL0065h" unicode="E" 
d="M378 645v-215h-198v215h198zM429 761h-311q-29 -11 -48.5 -33t-19.5 -55v-586q0 -15 6.5 -30.5t17 -28.5t25 -21t31.5 -8h376v116h-326v201h253q10 0 23 7t24 18t18.5 24t7.5 24v301q0 13 -8 25.5t-19.5 22.5t-25 16.5t-24.5 6.5zM115 777h314q20 0 44 -16t38 -39l22 -21
q11 -11 18.5 -24t7.5 -27v-301q0 -13 -9 -28t-22 -28t-28 -21.5t-27 -8.5h-240v-132h289v-6l37 -37v-142h-389q-17 0 -32.5 7.5t-27.5 19.5l-23 23q-23 14 -38 39.5t-15 51.5v586q0 38 23 64t58 40zM233 592v-146h129v146h-129z" />
    <glyph glyph-name="FL0046h" unicode="F" horiz-adv-x="605" 
d="M505 646v116h-378q-13 0 -26.5 -6t-25 -15.5t-18.5 -22.5t-7 -26v-692h125v329h320v116h-320v201h330zM521 778v-6l37 -37v-142h-330v-132h283v-6l37 -37v-142h-320v-329h-151l-37 37h-6v708q0 17 8.5 32.5t22 27.5t30 19t32.5 7h394z" />
    <glyph glyph-name="FL0047h" unicode="G" 
d="M274 316l37 -37h51v-147h-129v461h326v142l-37 37v6h-392q-20 0 -37.5 -9.5t-30.5 -24.5t-20.5 -33.5t-7.5 -36.5v-586q0 -29 13.5 -51.5t36.5 -36.5l22 -22q21 -21 50 -31h313q13 0 28.5 7.5t29 19.5t23 27t9.5 30v302q0 13 -8.5 27t-21.5 27l-19 19q-14 21 -36.5 38
t-40.5 17h-165v-145h6zM429 0h-311q-29 11 -48.5 33t-19.5 55v586q0 15 6.5 31t17 28.5t25 20.5t31.5 8h376v-116h-326v-530h198v216h-94v113h149q10 0 23 -7t24 -18t18.5 -23.5t7.5 -23.5v-302q0 -12 -8 -25t-19.5 -23t-25 -16.5t-24.5 -6.5z" />
    <glyph glyph-name="FL0048h" unicode="H" horiz-adv-x="647" 
d="M195 779h-161v-795h6l37 -37h155v319h170v-282h6l37 -37h155v789l-37 37v6h-161v-325h-170v282l-37 37v6zM50 763h129v-325h239v325h129v-763h-129v319h-239v-319h-129v763z" />
    <glyph glyph-name="FL0049h" unicode="I" horiz-adv-x="607" 
d="M213 117h-162v-117h456v117h-165v529h164v116h-456v-116h163v-529zM35 133h162v460h-120l-37 37h-6v148h488v-6l37 -37v-142h-164v-460h128v-6l37 -37v-143h-482l-37 37h-6v149z" />
    <glyph glyph-name="FL004Ah" unicode="J" 
d="M127 0h311q30 11 49 33t19 55v675h-456v-117h327v-530h-198v216h-129v-261q0 -12 8 -25t20 -23t25 -16.5t24 -6.5zM77 593l-37 37h-6v149h488v-6l37 -37v-688q0 -38 -22 -62.5t-57 -38.5h-313q-14 0 -32 10t-32 24l-19 19q-20 13 -35 32t-15 39v277h161v-6l37 -37v-173
h129v461h-284z" />
    <glyph glyph-name="FL004Bh" unicode="K" horiz-adv-x="730" 
d="M188 400l282 -400h160l-286 398v6l241 358h-147zM50 762v-762h128v762h-128zM462 -16l-231 327v-364h-154l-37 37h-6v794h160v-6l37 -37v-246l199 289h184l-3 -5l38 -38l-251 -373l298 -415h-193l-37 37h-4z" />
    <glyph glyph-name="FL004Ch" unicode="L" horiz-adv-x="605" 
d="M521 125v6h-293v603l-37 37v6h-157v-708q0 -22 13 -41t33 -30l22 -22q30 -30 65 -30h391v142zM505 115v-116h-378q-13 0 -26.5 6t-25 15.5t-18.5 22t-7 26.5v692h125v-646h330z" />
    <glyph glyph-name="FL004Dh" unicode="M" horiz-adv-x="886" 
d="M193 778h-159v-794h6l37 -37h155v402l186 -387l2 5l38 -38l183 381v-326h6l37 -37h155v789l-37 37v6h-160l-217 -460l-194 416l-34 33zM50 762h132l234 -501l237 502h133v-763h-129v499l-239 -499l-239 499v-499h-129v762z" />
    <glyph glyph-name="FL00CBh" unicode="N" horiz-adv-x="675" 
d="M594 711l1 -2q0 2 -1 2zM40 -16l37 -37h155v646h201v-609h6l37 -37h152v699q0 17 -7.5 32t-20.5 28l-5 3l-1 2l-13 13q-9 18 -26.5 32t-37.5 21l-11 1h-472v-794h6zM575 0h-126v646h-270v-646h-129v762h455l9 -1q25 -8 43 -29t18 -46v-686z" />
    <glyph glyph-name="FL004Fh" unicode="O" horiz-adv-x="677" 
d="M180 117v529h270v-529h-270zM113 2q2 0 6 -1t5 -1h382q11 0 23.5 7t23 17.5t17.5 23t7 23.5v620q0 12 -8 25t-20 23t-26 16.5t-26 6.5h-367q-15 0 -29 -7t-25.5 -18.5t-18.5 -25.5t-7 -29v-600q0 -26 18.5 -50t44.5 -30zM160 -53l-1 1l-1 1h-8q-25 6 -43 24l-24 23
q-22 14 -35.5 37.5t-13.5 48.5v600q0 17 8.5 34.5t22 31t31 22t34.5 8.5h367q21 0 46.5 -17.5t39.5 -39.5l21 -20q11 -11 18.5 -24t7.5 -26v-620q0 -13 -8.5 -27.5t-21 -27t-27 -21t-27.5 -8.5h-386zM233 593v-460h201v460h-201z" />
    <glyph glyph-name="FL0050h" unicode="P" horiz-adv-x="662" 
d="M232 461v132h187v-132h-187zM34 778v-794h6l37 -37h155v332h299q12 0 27 9t27.5 22t21 28t8.5 28v285q0 13 -7.5 26t-18.5 24l-21 20q-7 12 -17.5 22t-22 18t-23 12.5t-20.5 4.5h-451zM435 646h-256v-201h256v201zM50 0v762h435q10 0 23.5 -6.5t25.5 -16.5t20 -23t8 -25
v-285q0 -11 -7 -24t-18 -24t-23.5 -18.5t-22.5 -7.5h-312v-332h-129z" />
    <glyph glyph-name="FL0051h" unicode="Q" horiz-adv-x="700" 
d="M233 223l49 -90h-49v90zM233 308v285h201v-384l-30 56l-32 32l-6 11h-133zM158 -51l1 -1l1 -1h224l66 -117h5l37 -37h169l-88 162q21 11 39 33t18 43v620q0 13 -7.5 26t-18.5 24l-21 20q-14 22 -39.5 39.5t-46.5 17.5h-367q-17 0 -34.5 -8.5t-31 -22t-22 -31t-8.5 -34.5
v-600q0 -25 13.5 -48.5t35.5 -37.5l24 -23q18 -18 43 -24h8zM450 646h-270v-529h129l-96 175h144l93 -171v525zM515 1l85 -155h-141l-85 154h-250q-1 0 -5 1t-6 1q-26 6 -44.5 30t-18.5 50v600q0 15 7 29t18.5 25.5t25.5 18.5t29 7h367q12 0 26 -6.5t26 -16.5t20 -23t8 -25
v-620q0 -10 -6 -21t-15 -21t-20 -17.5t-21 -10.5z" />
    <glyph glyph-name="R" unicode="R" horiz-adv-x="708" 
d="M485 762h-435v-762h129v646h256v-201h-214l247 -445h140l-184 333h67q10 0 22.5 7t23.5 18t18 24t7 24v285q0 12 -8 25t-20 23t-25.5 16.5t-23.5 6.5zM34 778h451q9 0 20.5 -4.5t23 -12.5t22 -18t17.5 -22l21 -20q11 -11 18.5 -24t7.5 -26v-285q0 -13 -8.5 -28t-21 -28
t-27.5 -21.5t-27 -8.5h-46l184 -333h-168l-37 37h-5l-227 408v-445h-155l-37 37h-6v794zM232 593v-132h187v132h-187z" />
    <glyph glyph-name="FL0053h" unicode="S" horiz-adv-x="663" 
d="M50 116v-116h435q10 0 23.5 6.5t25.5 16.5t20 23t8 25v302q0 11 -7.5 23.5t-18.5 23.5t-24 18t-23 7h-309v201h383v116h-435q-11 0 -24.5 -6.5t-25 -16.5t-19.5 -23t-8 -25v-285q0 -11 7.5 -24t18.5 -24t23.5 -18t23.5 -7h309v-217h-383zM34 -16v148h383v148h-253
q-13 0 -27.5 8.5t-28.5 22.5l-20 19q-20 14 -36.5 35.5t-16.5 40.5v285q0 15 9.5 30.5t24 28t30.5 20.5t29 8h451v-6l37 -37v-142h-383v-132h256q18 0 40.5 -17t36.5 -38l19 -19q13 -13 21.5 -27t8.5 -27v-302q0 -15 -9.5 -30t-23 -27t-29.5 -19.5t-28 -7.5h-448l-37 37h-6z
" />
    <glyph glyph-name="FL0054h" unicode="T" 
d="M40 630l37 -37h120v-609h6l37 -37h155v646h164v142l-37 37v6h-488v-148h6zM342 0h-129v646h-163v116h456v-116h-164v-646z" />
    <glyph glyph-name="FL0055h" unicode="U" horiz-adv-x="675" 
d="M192 779h-158v-702q0 -24 14 -45t35 -34l21 -21q10 -10 21.5 -16.5t23.5 -11.5h6l1 -1l1 -1h387q13 0 27.5 8.5t27 21t21 27t8.5 27.5v705l-37 37v6h-161v-646h-201v603l-37 37v6zM50 763h126v-646h270v646h129v-692q0 -11 -7 -23.5t-17.5 -23t-23 -17.5t-23.5 -7h-383
q-1 0 -5 1t-6 1q-24 8 -42 29t-18 46v686z" />
    <glyph glyph-name="FL0056h" unicode="V" horiz-adv-x="647" 
d="M193 779h-163l158 -795h6l37 -37h217l155 789l-37 37l1 6h-163l-90 -454l-84 411l-36 35zM50 763h129l122 -594l117 594h129l-150 -763h-195z" />
    <glyph glyph-name="FL0057h" unicode="W" horiz-adv-x="1015" 
d="M561 779h-157l-90 -454l-84 411l-36 35l-1 8h-163l158 -795h6l37 -37h217l57 291l51 -254h6l37 -37h217l155 789l-37 37l1 6h-163l-90 -454l-84 411l-36 35zM418 763h129l122 -594l117 594h129l-150 -763h-195l-87 437l-86 -437h-195l-152 763h129l122 -594z" />
    <glyph glyph-name="FL0058h" unicode="X" horiz-adv-x="762" 
d="M290 735l-33 32l-5 11h-184l192 -375l-237 -419h8l37 -37h189l128 231l108 -194h5l37 -37h189l-236 415l191 373l-38 37l3 6h-184l-97 -182zM210 0h-160l227 400v7l-182 355h148l113 -213l113 213h148l-182 -355v-7l227 -400h-160l-146 263z" />
    <glyph glyph-name="FL0059h" unicode="Y" horiz-adv-x="647" 
d="M420 115h-339v-115h395q11 0 23.5 7t23 18t17.5 24t7 25v689h-129v-325h-242v324h-126v-369q0 -14 8 -27t20.5 -23.5t27 -17t27.5 -6.5h287v-204zM65 131h339v135h-231q-17 0 -36 9.5t-34 24.5l-22 21q-20 14 -33.5 33t-13.5 39v385h158v-6l37 -37v-281h173v325h161v-6
l37 -37v-702q0 -14 -8.5 -29.5t-21 -28.5t-27 -21t-27.5 -8h-408l-37 37h-6v147z" />
    <glyph glyph-name="FL005Ah" unicode="Z" horiz-adv-x="607" 
d="M34 122v-138h6l37 -37h482v142l-37 37v6h-250l288 470v133l-37 37v6h-488v-148h6l37 -37h247zM50 0v116l328 530h-327v116h456v-116l-325 -530h324v-116h-456z" />
    <glyph glyph-name="FL005Bh" unicode="[" horiz-adv-x="411" 
d="M311 646v116h-261v-762h261v115h-131v531h131zM327 778v-6l37 -37v-142h-131v-462h94v-6l37 -37v-141h-287l-37 37h-6v794h293z" />
    <glyph glyph-name="FL005Ch" unicode="\" horiz-adv-x="717" 
d="M457 0h160l-419 762h-148zM490 -53l-37 37h-5l-424 794h183l6 -11l32 -32l433 -788h-188z" />
    <glyph glyph-name="FL005Dh" unicode="]" horiz-adv-x="411" 
d="M34 778v-148h6l37 -37h88v-462h-131v-147h6l37 -37h287v788l-37 37v6h-293zM50 646v116h261v-762h-261v115h131v531h-131z" />
    <glyph glyph-name="FL005Eh" unicode="^" horiz-adv-x="399" 
d="M34 539l37 -37h103l27 67l13 -30h5l37 -37h101l-83 233l-35 35l-3 8h-120l-89 -239h7zM299 555h-74l-50 122l-50 -122h-75l77 207h98z" />
    <glyph glyph-name="FL005Fh" unicode="_" 
d="M506 117h-456v-117h456v117zM34 133h488v-6l37 -37v-143h-482l-37 37h-6v149z" />
    <glyph glyph-name="FL0060h" unicode="`" horiz-adv-x="360" 
d="M240 554l3 2q17 17 23.5 34.5t6.5 34.5q0 23 -11 40l-8 9l-47 50q-20 11 -41 11q-33 0 -61 -28l-4 -6h1q-25 -25 -25 -61q0 -24 9 -39l51 -47l-1 2l3 -3q18 -18 47 -18q14 0 27 2.5t27 16.5zM241 551l4 3q18 18 24.5 36t6.5 35q0 22 -11 39l-47 51l-40 40q-20 20 -52 20
q-33 0 -61 -28l-5 -7v-1q-23 -23 -23 -59q0 -33 19 -51l40 -40l50 -47l31 -28l-1 2l3 -3q18 -18 47 -18q14 0 26.5 2t26.5 16l4 3q17 17 23.5 34.5t6.5 34.5q0 31 -17 48l-17 17l-14 14q-3 5 -6.5 9t-7.5 9v-1l-71 76q-21 21 -54 21q-34 0 -63 -29l-6 -8v-1q-23 -25 -23 -60
q0 -36 20 -53l82 -76q19 -19 50 -19q14 0 27 2.5t28 16.5zM235 566l-4 -3q-11 -11 -22 -13t-23 -2q-27 0 -40 16l-81 75q-15 13 -15 41q0 31 21 52l8 11q19 19 47 19q27 0 43 -16l76 -81q15 -14 15 -40q0 -14 -5.5 -29.5t-19.5 -29.5z" />
    <glyph glyph-name="a" unicode="a" horiz-adv-x="658" 
d="M180 117v211h251v-211h-251zM431 646v-201h-307q-13 0 -26 -8t-23.5 -20t-17.5 -26t-7 -26v-285q0 -12 6.5 -26t17 -26t23 -20t25.5 -8h436v689q0 13 -8 26.5t-20 23.5t-26 16.5t-26 6.5h-413v-116h366zM34 365q0 14 8.5 31t21.5 31.5t29 24t31 9.5h291v132h-323l-37 37
h-6v148h429q20 0 44.5 -15.5t38.5 -37.5l24 -23q11 -11 18.5 -25t7.5 -28v-702h-449q-13 0 -26.5 7.5t-24.5 18.5l-22 22q-23 14 -39 39t-16 46v285zM233 275v-142h182v142h-182z" />
    <glyph glyph-name="FL0062h" unicode="b" horiz-adv-x="663" 
d="M552 390h-1l6 8q-2 -3 -3 -5t-2 -3zM232 460v133h187v-133h-187zM233 132v146h188v-146h-188zM41 -16l37 -37h448q12 0 28 7.5t29.5 19.5t23 27t9.5 30v268q0 8 -8 21t-16 24q-2 2 -2 4q8 12 16 29t8 25v249q0 13 -7.5 26.5t-18.5 24.5l-23 22q-14 22 -38 38t-42 16h-451
v-773h1v-21h6zM435 646h-256v-202h256v202zM437 116v215h-257v-215h257zM51 21h-1v741h435q10 0 23.5 -6.5t25 -16.5t19.5 -23t8 -25v-249q0 -4 -3 -12.5t-7 -17.5t-9 -16t-8 -8q1 -3 5.5 -10t10 -14.5t9.5 -14.5t4 -10v-268q0 -12 -8 -25t-20 -23t-25.5 -16.5t-23.5 -6.5
h-435v21z" />
    <glyph glyph-name="c" unicode="c" 
d="M506 646v116h-376q-17 0 -31.5 -8t-25 -20.5t-17 -28.5t-6.5 -31v-586q0 -29 16 -50.5t42 -33.5q2 -2 7 -3t7 -1h384v115h-326v531h326zM522 778v-6l37 -37v-142h-326v-462h289v-6l37 -37v-141h-397q-10 0 -20 6q-11 5 -19.5 10.5t-16.5 13.5l-23 23q-23 14 -36 36.5
t-13 51.5v586q0 18 7.5 36.5t20.5 33.5t30.5 24.5t37.5 9.5h392z" />
    <glyph glyph-name="FL0064h" unicode="d" horiz-adv-x="677" 
d="M180 117v529h270v-529h-270zM497 763h-447v-763h456q11 0 23.5 7t23 17.5t17.5 23t7 23.5v620q0 13 -8 25.5t-20 23t-26 17t-26 6.5zM34 779h463q20 0 44.5 -15.5t38.5 -37.5l24 -23q11 -11 18.5 -24.5t7.5 -27.5v-620q0 -13 -8.5 -27.5t-21 -27t-27 -21t-27.5 -8.5h-469
l-37 37h-6v795zM233 593v-460h201v460h-201z" />
    <glyph glyph-name="FL0045h" unicode="e" horiz-adv-x="608" 
d="M508 646v116h-378q-13 0 -27 -6.5t-26 -16.5t-19.5 -23.5t-7.5 -26.5v-618q0 -11 7 -23.5t18 -23t23.5 -17.5t23.5 -7h386v115h-330v214h319v116h-319v201h330zM524 778v-6l37 -37v-142h-330v-132h282v-6l37 -37v-142h-319v-145h293v-6l37 -37v-141h-399q-13 0 -28 8.5
t-28 21.5l-20 20q-20 13 -36 34.5t-16 39.5v618q0 16 9 32t23 28.5t31 20.5t33 8h394z" />
    <glyph glyph-name="FL0066h" unicode="f" horiz-adv-x="605" 
d="M505 646v116h-378q-13 0 -26.5 -6t-25 -15.5t-18.5 -22.5t-7 -26v-692h125v329h320v116h-320v201h330zM521 778v-6l37 -37v-142h-330v-132h283v-6l37 -37v-142h-320v-329h-151l-37 37h-6v708q0 17 8.5 32.5t22 27.5t30 19t32.5 7h394z" />
    <glyph glyph-name="FL0067h" unicode="g" 
d="M233 132v461h326v142l-37 37v6h-392q-20 0 -37.5 -9.5t-30.5 -24.5t-20.5 -33.5t-7.5 -36.5v-586q0 -29 13.5 -51.5t36.5 -36.5l22 -22q21 -21 50 -31h313q13 0 28.5 7.5t29 19.5t23 27t9.5 30v315l-37 37v6h-160v-257h-129zM429 0h-311q-29 11 -48.5 33t-19.5 55v586
q0 15 6.5 31t17 28.5t25 20.5t31.5 8h376v-116h-326v-530h198v257h128v-302q0 -12 -8 -25t-19.5 -23t-25 -16.5t-24.5 -6.5z" />
    <glyph glyph-name="FL0068h" unicode="h" horiz-adv-x="647" 
d="M195 779h-161v-795h6l37 -37h155v319h170v-282h6l37 -37h155v789l-37 37v6h-161v-325h-170v282l-37 37v6zM50 763h129v-325h239v325h129v-763h-129v319h-239v-319h-129v763z" />
    <glyph glyph-name="FL0069h" unicode="i" horiz-adv-x="279" 
d="M40 -16l37 -37h155v789l-37 37v6h-161v-795h6zM179 0h-129v763h129v-763z" />
    <glyph glyph-name="FL006Ah" unicode="j" 
d="M127 0h311q30 11 49 33t19 55v675h-129v-647h-198v216h-129v-261q0 -12 8 -25t20 -23t25 -16.5t24 -6.5zM232 305v-173h129v647h161v-6l37 -37v-688q0 -38 -22 -62.5t-57 -38.5h-313q-14 0 -32 10t-32 24l-19 19q-20 13 -35 32t-15 39v277h161v-6z" />
    <glyph glyph-name="k" unicode="k" horiz-adv-x="688" 
d="M231 489v246l-37 37v6h-160v-794h6l37 -37h154v364l231 -327h4l37 -37h193l-298 415l251 373l-38 38l3 5h-184zM630 0h-160l-282 400l250 362h147l-241 -358v-6zM178 0h-128v762h128v-762z" />
    <glyph glyph-name="FL006Ch" unicode="l" horiz-adv-x="605" 
d="M521 125v6h-293v603l-37 37v6h-157v-708q0 -22 13 -41t33 -30l22 -22q30 -30 65 -30h391v142zM505 115v-116h-378q-13 0 -26.5 6t-25 15.5t-18.5 22t-7 26.5v692h125v-646h330z" />
    <glyph glyph-name="FL006Dh" unicode="m" horiz-adv-x="886" 
d="M201 779l-167 -1v-794h6l37 -37h155v402l186 -387l2 5l38 -38l183 381v-326h6l37 -37h155v789l-37 37v6h-160l-217 -459l-186 416l-34 34zM50 762l141 1l225 -502l237 502h133v-763h-129v499l-239 -499l-239 499v-499h-129v762z" />
    <glyph glyph-name="FL006Eh" unicode="n" horiz-adv-x="647" 
d="M190 779h-156v-795h6l37 -37h155v412l175 -375h5l37 -37h151v789l-37 37v6h-161v-412l-174 369l-34 33zM50 763h129l239 -506v506h129v-763h-129l-239 511v-511h-129v763z" />
    <glyph glyph-name="o" unicode="o" horiz-adv-x="677" 
d="M180 117v529h270v-529h-270zM113 2q2 0 6 -1t5 -1h382q11 0 23.5 7t23 17.5t17.5 23t7 23.5v620q0 12 -8 25t-20 23t-26 16.5t-26 6.5h-367q-15 0 -29 -7t-25.5 -18.5t-18.5 -25.5t-7 -29v-600q0 -26 18.5 -50t44.5 -30zM160 -53l-1 1l-1 1h-8q-25 6 -43 24l-24 23
q-22 14 -35.5 37.5t-13.5 48.5v600q0 17 8.5 34.5t22 31t31 22t34.5 8.5h367q21 0 46.5 -17.5t39.5 -39.5l21 -20q11 -11 18.5 -24t7.5 -26v-620q0 -13 -8.5 -27.5t-21 -27t-27 -21t-27.5 -8.5h-386zM233 593v-460h201v460h-201z" />
    <glyph glyph-name="FL0070h" unicode="p" horiz-adv-x="662" 
d="M232 461v132h187v-132h-187zM34 778v-794h6l37 -37h155v332h299q12 0 27 9t27.5 22t21 28t8.5 28v285q0 13 -7.5 26t-18.5 24l-21 20q-7 12 -17.5 22t-22 18t-23 12.5t-20.5 4.5h-451zM435 646h-256v-201h256v201zM50 0v762h435q10 0 23.5 -6.5t25.5 -16.5t20 -23t8 -25
v-285q0 -11 -7 -24t-18 -24t-23.5 -18.5t-22.5 -7.5h-312v-332h-129z" />
    <glyph glyph-name="FL0071h" unicode="q" horiz-adv-x="688" 
d="M233 214l47 -81h-47v81zM233 275v318h201v-389l-16 28l-32 31l-6 12h-147zM158 -51l1 -1l1 -1h227l52 -83h5l37 -37h170l-78 128q21 11 39 33.5t18 42.5v620q0 13 -7.5 26t-18.5 24l-21 20q-14 22 -39.5 39.5t-46.5 17.5h-367q-17 0 -34.5 -8.5t-31 -22t-22 -31
t-8.5 -34.5v-600q0 -25 13.5 -48.5t35.5 -37.5l24 -23q18 -18 43 -24h8zM450 646h-270v-529h129l-82 142h144l79 -138v525zM515 1l73 -121h-140l-74 120h-250q-1 0 -5 1t-6 1q-26 6 -44.5 30t-18.5 50v600q0 15 7 29t18.5 25.5t25.5 18.5t29 7h367q12 0 26 -6.5t26 -16.5
t20 -23t8 -25v-620q0 -10 -6 -21t-15 -21t-20 -17.5t-21 -10.5z" />
    <glyph glyph-name="FL0072h" unicode="r" horiz-adv-x="708" 
d="M485 762h-435v-762h129v646h256v-201h-214l247 -445h140l-184 333h67q10 0 22.5 7t23.5 18t18 24t7 24v285q0 12 -8 25t-20 23t-25.5 16.5t-23.5 6.5zM34 778h451q9 0 20.5 -4.5t23 -12.5t22 -18t17.5 -22l21 -20q11 -11 18.5 -24t7.5 -26v-285q0 -13 -8.5 -28t-21 -28
t-27.5 -21.5t-27 -8.5h-46l184 -333h-168l-37 37h-5l-227 408v-445h-155l-37 37h-6v794zM232 593v-132h187v132h-187z" />
    <glyph glyph-name="FL0073h" unicode="s" horiz-adv-x="663" 
d="M50 116v-116h435q10 0 23.5 6.5t25.5 16.5t20 23t8 25v302q0 11 -7.5 23.5t-18.5 23.5t-24 18t-23 7h-309v201h383v116h-435q-11 0 -24.5 -6.5t-25 -16.5t-19.5 -23t-8 -25v-285q0 -11 7.5 -24t18.5 -24t23.5 -18t23.5 -7h309v-217h-383zM34 -16v148h383v148h-253
q-13 0 -27.5 8.5t-28.5 22.5l-20 19q-20 14 -36.5 35.5t-16.5 40.5v285q0 15 9.5 30.5t24 28t30.5 20.5t29 8h451v-6l37 -37v-142h-383v-132h256q18 0 40.5 -17t36.5 -38l19 -19q13 -13 21.5 -27t8.5 -27v-302q0 -15 -9.5 -30t-23 -27t-29.5 -19.5t-28 -7.5h-448l-37 37h-6z
" />
    <glyph glyph-name="FL0074h" unicode="t" 
d="M40 630l37 -37h120v-609h6l37 -37h155v646h164v142l-37 37v6h-488v-148h6zM342 0h-129v646h-163v116h456v-116h-164v-646z" />
    <glyph glyph-name="FL0075h" unicode="u" horiz-adv-x="675" 
d="M192 779h-158v-702q0 -24 14 -45t35 -34l21 -21q10 -10 21.5 -16.5t23.5 -11.5h6l1 -1l1 -1h387q13 0 27.5 8.5t27 21t21 27t8.5 27.5v705l-37 37v6h-161v-646h-201v603l-37 37v6zM50 763h126v-646h270v646h129v-692q0 -11 -7 -23.5t-17.5 -23t-23 -17.5t-23.5 -7h-383
q-1 0 -5 1t-6 1q-24 8 -42 29t-18 46v686z" />
    <glyph glyph-name="FL0076h" unicode="v" horiz-adv-x="647" 
d="M193 779h-163l158 -795h6l37 -37h217l155 789l-37 37l1 6h-163l-90 -454l-84 411l-36 35zM50 763h129l122 -594l117 594h129l-150 -763h-195z" />
    <glyph glyph-name="FL0077h" unicode="w" horiz-adv-x="1015" 
d="M561 779h-157l-90 -454l-84 411l-36 35l-1 8h-163l158 -795h6l37 -37h217l57 291l51 -254h6l37 -37h217l155 789l-37 37l1 6h-163l-90 -454l-84 411l-36 35zM418 763h129l122 -594l117 594h129l-150 -763h-195l-87 437l-86 -437h-195l-152 763h129l122 -594z" />
    <glyph glyph-name="FL0078h" unicode="x" horiz-adv-x="708" 
d="M262 400l-227 -400h160l146 263l146 -263h160l-227 400v7l182 355h-148l-113 -213l-113 213h-148l182 -355v-7zM8 -16l237 419l-192 375h184l5 -11l33 -32l73 -139l97 182h184l-3 -6l38 -37l-191 -373l236 -415h-189l-37 37h-5l-108 194l-128 -231h-189l-37 37h-8z" />
    <glyph glyph-name="y" unicode="y" horiz-adv-x="647" 
d="M420 115h-339v-115h395q11 0 23.5 7t23 18t17.5 24t7 25v689h-129v-325h-242v324h-126v-369q0 -14 8 -27t20.5 -23.5t27 -17t27.5 -6.5h287v-204zM65 131h339v135h-231q-17 0 -36 9.5t-34 24.5l-22 21q-20 14 -33.5 33t-13.5 39v385h158v-6l37 -37v-281h173v325h161v-6
l37 -37v-702q0 -14 -8.5 -29.5t-21 -28.5t-27 -21t-27.5 -8h-408l-37 37h-6v147z" />
    <glyph glyph-name="FL007Ah" unicode="z" horiz-adv-x="607" 
d="M34 122v-138h6l37 -37h482v142l-37 37v6h-250l288 470v133l-37 37v6h-488v-148h6l37 -37h247zM50 0v116l328 530h-327v116h456v-116l-325 -530h324v-116h-456z" />
    <glyph glyph-name="FL007Bh" unicode="{" horiz-adv-x="411" 
d="M311 789v116h-181q-17 0 -31.5 -8t-25 -20.5t-17 -28.5t-6.5 -31v-871q0 -30 16 -51t42 -33q2 -2 7 -3t7 -1h189v115h-132v816h132zM327 921v-6l37 -37v-142h-132v-747h95v-6l37 -37v-141h-202q-10 0 -20 6q-11 5 -20.5 11t-16.5 14l-22 22q-23 14 -36 36.5t-13 51.5v871
q0 18 7.5 36.5t20.5 33.5t30.5 24.5t37.5 9.5h197z" />
    <glyph glyph-name="FL007Ch" unicode="|" horiz-adv-x="281" 
d="M40 -158l37 -37h157v1071l-37 37v6h-163v-1077h6zM181 -142h-131v1045h131v-1045z" />
    <glyph glyph-name="FL007Dh" unicode="}" horiz-adv-x="411" 
d="M34 921v-148h6l37 -37h88v-747h-131v-147h6l37 -37h202q3 0 8.5 1t10.5 5q29 14 47.5 37.5t18.5 57.5v871q0 20 -9 39.5t-24 34.5l-21 21q-14 20 -34 34.5t-45 14.5h-197zM50 789v116h181q16 0 31 -8t25.5 -20.5t17 -28.5t6.5 -31v-871q0 -30 -16.5 -51t-42.5 -33
q-2 -2 -6.5 -3t-6.5 -1h-189v115h131v816h-131z" />
    <glyph glyph-name="FL007Eh" unicode="~" horiz-adv-x="500" 
d="M175 401l50 -125h98l77 207h-75l-50 -122l-50 125h-98l-77 -207h75zM214 260l-13 33l-27 -67h-103l-37 37h-7l89 239h120l3 -9l35 -34l11 -30l29 70h109l-2 -5l38 -38l-87 -233h-116l-37 37h-5z" />
    <glyph glyph-name="FL007Fh" horiz-adv-x="148" 
 />
    <glyph glyph-name="FL00A1h" unicode="&#xa1;" horiz-adv-x="300" 
d="M133 779h-5q-23 0 -40.5 -8.5t-29.5 -21.5t-18 -28.5t-6 -28.5q0 -22 13 -44.5t33 -34.5l24 -23q23 -23 51 -23l13 1h1q16 0 31.5 8t27 20t18.5 27t7 29q0 16 -6.5 32.5t-19.5 29.5l-24 24q-11 17 -28.5 29t-41.5 12zM207 566h-160v-582h6l37 -37h154v576l-37 37v6z
M128 763h5q16 0 28.5 -6.5t21 -17t13 -23t4.5 -24.5t-6 -24.5t-15.5 -23t-22.5 -17t-28 -6.5l-13 -1q-14 0 -25.5 6.5t-20.5 17t-14 23.5t-5 25q0 11 5 23.5t15 23t24.5 17.5t33.5 7zM63 550h128v-550h-128v550z" />
    <glyph glyph-name="FL00A2h" unicode="&#xa2;" 
d="M180 478h73v-204h-73v204zM253 159v-159h129v159h124v115h-124v204h124v116h-124v169h-129v-169h-123q-17 0 -31.5 -8t-25 -21t-17 -28.5t-6.5 -30.5v-259q0 -29 16 -50.5t42 -32.5q2 -2 7 -3.5t7 -1.5h131zM237 -16v122h-75q-3 0 -8.5 1.5t-10.5 4.5q-21 9 -37 25
l-20 20q-25 14 -38.5 37t-13.5 53v259q0 18 7.5 36.5t20.5 33.5t30.5 24.5t37.5 9.5h107v169h161v-6l37 -37v-126h87v-6l37 -37v-142h-124v-135h87v-6l37 -37v-141h-124v-159h-155l-37 37h-6zM233 425v-135h4v135h-4zM99 155q0 -1 1 -2h1z" />
    <glyph glyph-name="FL0579h" unicode="&#xa3;" horiz-adv-x="735" 
d="M34 132v-148h6l37 -37h611v142l-37 37v6h-293v131h320v143l-37 37v6h-283v286l-37 37v6h-157v-330h-130v-148h6l37 -37h87v-131h-130zM50 0v116h130v200h-130v116h130v330h125v-329h320v-117h-320v-200h330v-116h-585z" />
    <glyph glyph-name="FL00A4h" unicode="&#xa4;" horiz-adv-x="762" 
d="M312 250v250q0 8 6.5 15.5t14.5 7.5h100v-257q0 -5 -4.5 -10.5t-9.5 -5.5h-107zM145 614v-414l-122 -216h8l37 -37h189l81 146h94l61 -109h5l37 -37h189l-123 216v421l78 151l-38 37l3 6h-184l-51 -93h-92l-26 50l-33 32l-5 11h-185l78 -155q-2 -3 -1.5 -5.5t0.5 -3.5z
M286 234h133q9 0 19.5 11t10.5 21v279q0 11 -11.5 21t-21.5 10h-123q-13 0 -23.5 -11.5t-10.5 -24.5v-270q0 -12 8 -23t19 -13zM163 628l-68 134h148l49 -93h127l50 93h148l-70 -136q1 -1 1 -6v-419l114 -201h-160l-81 146h-130l-81 -146h-160l111 196v418q0 2 0.5 5.5
t1.5 8.5z" />
    <glyph glyph-name="FL00A5h" unicode="&#xa5;" horiz-adv-x="809" 
d="M65 131v-147h6l37 -37h408q13 0 27.5 8t27 21t21 28.5t8.5 29.5v150h154v143l-37 37v1h37v142l-37 37v6h-117v186l-37 37v6h-161v-325h-173v281l-37 37v6h-158v-385q0 -20 13.5 -39t33.5 -33l22 -21q15 -15 34 -24.5t36 -9.5h231v-135h-339zM81 0v115h339v204h-287
q-13 0 -27.5 6.5t-27 17t-20.5 23.5t-8 27v369h126v-324h242v325h129v-229h154v-116h-154v-64h154v-117h-154v-163q0 -12 -7 -25t-17.5 -24t-23 -18t-23.5 -7h-395z" />
    <glyph glyph-name="FL00A6h" unicode="&#xa6;" horiz-adv-x="1434" 
d="M541 305q0 11 -5 16q-10 19 -29 19q-27 0 -46 -45q-1 -1 -1 -10q0 -35 26 -35q15 0 41 12q14 20 14 43zM852 301h51l-19 48zM259 368l29 6l-8 -141l-36 -11zM419 377l-3 -35q-5 2 -8.5 2.5t-8.5 0.5q-19 0 -42 -20q-24 -27 -24 -58q0 -28 34 -28q19 0 30 4l2 -25
q-11 -2 -19 -4t-13 -2q-46 0 -61 63l-1.5 10.5t-0.5 8.5q0 67 115 83zM570 325q-15 -100 -61 -100q-7 -1 -13 -1.5t-12 -0.5q-44 0 -54 24q0 92 59 125q5 0 7 0.5t1 0.5h9q50 0 64 -48zM711 366v-141q-39 0 -96 70v-69l-24 -4l-3 144l91 -91l4 99zM756 374l30 6l-8 -141
l-38 -10zM929 338l3 -107l-20 6q-15 33 -36 33t-40 -33h-32q8 71 64 142q7 4 21 4q29 0 40 -45zM1080 372v-142q-37 0 -96 71v-70l-23 -2l-3 142l89 -91l6 100zM1123 231l24 -9l-26 -22l-19 16zM1123 380l38 -9l-19 -105l-25 4zM1220 306l114 9l-9 15l-142 66l89 24h10
l-10 16l-204 41l71 48h-239l18 57l-231 -32l-8 49l-18 7l-160 -73l-71 49l-96 -96q-7 -4 -21 -4q-31 0 -87 35l-17 -113l-115 8l9 -33l61 -73l-114 -8l150 -72l-97 -41l213 -42l-72 -47l248 -9l-26 -56l221 40l27 -32l-9 -32l177 80l81 -48l88 98l115 -34l8 114l116 -17
l1.5 6l0.5 2q0 24 -72 98zM1315 367l-20 -6l42 -19l8 -13l29 -29l22 -36l-108 -9q57 -63 57 -87q0 -6 -1 -8q-1 -3 -1 -9v-6l-117 17l-8 -116l-122 36l-90 -100l-85 50l-197 -89l-38 38l-7 -4l9 33l-204 -36l-38 37l-7 -1l12 27l-208 8l-37 36l-14 1l46 30l-140 28l-36 36
l-15 3l94 40l-63 30l-33 32l-11 6l6 27l92 6l-44 53l-16 56l123 -9l19 125q77 -47 99 -47q10 0 12 1l104 104l73 -52l159 72l33 -13l1 -6l31 -33l214 31l-2 -6l38 -38l-5 -17h219l-7 -5l38 -38l-40 -27l102 -20l9 -15l28 -28l25 -41h-30z" />
    <glyph glyph-name="FL00A7h" unicode="&#xa7;" horiz-adv-x="762" 
d="M312 250v275h121v-275h-121zM31 -16l37 -37h189l81 146h263v491l78 151l-38 37l3 6h-184l-51 -93l-263 -1v-484l-123 -216h8zM286 234h163v311q0 11 -11.5 21t-21.5 12h-157v-308q0 -12 8 -23t19 -13zM162 196v472l257 1l50 93h148l-70 -136q1 -1 1 -6v-474h-257
l-81 -146h-160z" />
    <glyph glyph-name="FL00A8h" unicode="&#xa8;" horiz-adv-x="500" 
d="M234 700l-9 12l-23 23q-11 17 -29 30t-39 13l-13 -1q-18 0 -34 -8.5t-27.5 -21t-18.5 -28t-7 -29.5q0 -22 11 -44t33 -34l25 -24q10 -10 23.5 -16t30.5 -6h5q19 0 34.5 6.5t27 16.5t18.5 23t9 25q13 -18 27 -25l25 -24q10 -10 23.5 -16t30.5 -6h5q22 0 39 8.5t28.5 21
t17.5 27t6 27.5q0 16 -7.5 32.5t-20.5 29.5l-23 23q-11 17 -29 30t-39 13l-13 -1q-17 0 -31.5 -7t-26 -18t-19.5 -25t-10 -27zM322 619h-5q-16 0 -28.5 6.5t-21 17t-13 23t-4.5 24.5t6 24.5t15.5 23t22.5 17t28 6.5l13 1q13 0 25 -7t21 -17.5t14 -23t5 -24.5q0 -11 -5 -23.5
t-15 -23t-24.5 -17.5t-33.5 -7zM122 619h-5q-16 0 -28.5 6.5t-21 17t-13 23t-4.5 24.5t6 24.5t15.5 23t22.5 17t28 6.5l13 1q13 0 25 -7t21 -17.5t14 -23t5 -24.5q0 -11 -5 -23.5t-15 -23t-24.5 -17.5t-33.5 -7z" />
    <glyph glyph-name="FL00A9h" unicode="&#xa9;" horiz-adv-x="413" 
d="M66 370l27 -26q11 -11 25 -14h3q2 0 2.5 -0.5t1.5 -0.5h193q16 0 32 16t16 32v310q0 15 -15 30l-27 26q-8 14 -23 25t-28 11h-183q-11 0 -21 -5t-18 -13t-12.5 -18t-4.5 -20v-300q0 -17 9 -31.5t23 -21.5zM247 662v41h-113q-7 0 -14.5 -10t-7.5 -21v-202q0 -21 18 -28
l2 -0.5t13 -0.5h34h68v38h-96v183h96zM81 383q-13 3 -22 14.5t-9 25.5v300q0 14 12.5 27t27.5 13h183q12 0 26 -11.5t14 -24.5v-310q0 -11 -12 -23t-23 -12h-191q-1 0 -2.5 0.5t-3.5 0.5z" />
    <glyph glyph-name="FL00AAh" unicode="&#xaa;" horiz-adv-x="404" 
d="M115 440v106h125v-106h-125zM240 705v-101h-153q-13 0 -25 -14t-12 -26v-142q0 -12 11.5 -26t24.5 -14h218v344q0 14 -14 25.5t-26 11.5h-207v-58h183zM34 564q0 8 5 18t12.5 18.5t17 14t18.5 5.5h137v32h-140l-37 37h-6v90h223q13 0 28 -10t23 -24l27 -27q15 -15 15 -32
v-357h-231q-15 0 -30 15l-27 26q-14 8 -24.5 23.5t-10.5 28.5v142zM168 493v-37h56v37h-56z" />
    <glyph glyph-name="FL00ABh" unicode="&#xab;" horiz-adv-x="613" 
d="M257 262v74l-122 50l122 50v75l-207 -77v-98zM513 262v74l-122 50l122 50v75l-207 -77v-98zM273 347v-5l37 -37v-101l-233 83l-35 35l-8 3v120l239 89v-7l37 -37v-38l219 82v-7l37 -37v-103l-68 -28l31 -12v-5l37 -37v-101l-233 83l-35 35l-8 3v54l-48 -20z" />
    <glyph glyph-name="FL00ACh" unicode="&#xac;" horiz-adv-x="651" 
d="M34 461v-148h6l37 -37h342v-88h6l37 -37h143v268l-37 37v6zM50 329v116l502 1v-242h-117v125h-385z" />
    <glyph glyph-name="FL00ADh" unicode="&#xad;" horiz-adv-x="397" 
d="M297 446h-247v-117h247v117zM34 462h279v-6l37 -37v-143h-273l-37 37h-6v149z" />
    <glyph glyph-name="FL00AEh" unicode="&#xae;" horiz-adv-x="413" 
d="M66 370l27 -26q11 -11 25 -14h3q2 0 2.5 -0.5t1.5 -0.5h193q16 0 32 16t16 32v310q0 15 -15 30l-2 1h1l-26 25q-8 14 -23 25t-28 11h-183q-11 0 -21 -5t-18 -13t-12.5 -18t-4.5 -20v-300q0 -17 9 -31.5t23 -21.5zM247 662v41h-113q-7 0 -14.5 -10t-7.5 -21v-233h39v223
h96zM81 383q-13 3 -22 14.5t-9 25.5v300q0 14 12.5 27t27.5 13h183q12 0 26 -11.5t14 -24.5v-310q0 -11 -12 -23t-23 -12h-191q-1 0 -2.5 0.5t-3.5 0.5z" />
    <glyph glyph-name="FL00AFh" unicode="&#xaf;" 
d="M506 763h-456v-117h456v117zM34 779h488v-6l37 -37v-143h-482l-37 37h-6v149z" />
    <glyph glyph-name="FL00B0h" unicode="&#xb0;" horiz-adv-x="300" 
d="M78 613l25 -24q10 -10 23.5 -16t30.5 -6h5q22 0 39 8.5t28.5 21t17.5 27t6 27.5q0 16 -7.5 32.5t-20.5 29.5l-23 23q-11 17 -29 30t-39 13l-13 -1q-18 0 -34 -8.5t-27.5 -21t-18.5 -28t-7 -29.5q0 -22 11 -44t33 -34zM122 620h-5q-16 0 -28.5 6.5t-21 17t-13 23
t-4.5 24.5t6 24.5t15.5 23t22.5 17t28 6.5l13 1q13 0 25 -7t21 -17.5t14 -23t5 -24.5q0 -11 -5 -23.5t-15 -23t-24.5 -17.5t-33.5 -7z" />
    <glyph glyph-name="FL00B1h" unicode="&#xb1;" horiz-adv-x="651" 
d="M34 132v-148h6l37 -37h527v142l-37 37v6h-533zM379 560h-148v-99h-197v-148h6l37 -37h154v-67h6l37 -37h142v103h188v144l-37 37v6h-151v55l-37 37v6zM50 0v116h501v-116h-501zM247 544h116v-98h188v-118h-188v-103h-116v104h-197v116h197v99z" />
    <glyph glyph-name="FL00B3h" unicode="&#xb3;" horiz-adv-x="406" 
d="M34 619v-88h6l37 -37h150v-39h-193v-90h6l37 -37h231q7 0 16 4.5t17 11.5t13 15.5t5 16.5v134q0 4 -4 11.5t-8 14.5q5 8 8 15.5t3 10.5v124q0 8 -4.5 16t-11.5 15l-26 25q-7 14 -22 25t-27 11h-233v-89h6l37 -37h150v-33h-193zM243 603v102h-193v57h217q11 0 24.5 -11.5
t13.5 -24.5v-124q0 -4 -5 -15t-8 -12q2 -3 8 -12.5t6 -12.5v-134q0 -12 -13.5 -23.5t-24.5 -11.5h-218v58h193v108h-193v56h193z" />
    <glyph glyph-name="FL00B4h" unicode="&#xb4;" horiz-adv-x="360" 
d="M75 566l4 -3q11 -11 22 -13t23 -2q27 0 40 16l81 75q15 13 15 41q0 31 -21 52l-8 11q-19 19 -47 19q-27 0 -43 -16l-76 -81q-15 -14 -15 -40q0 -14 5.5 -29.5t19.5 -29.5zM65 554l-1 1q-17 17 -23.5 35t-6.5 35q0 33 25 57v-1l71 76q21 21 54 21q34 0 63 -29l6 -8l-1 -1
q2 -3 5 -5l25 -26l-3 3l6 -5l5 -7l-2 1q25 -25 25 -61q0 -33 -19 -51l-81 -75h-1q-18 -19 -48 -19q-14 0 -26.5 2t-26.5 16l-4 3l-24 24q-8 4 -15 12z" />
    <glyph glyph-name="FL00B5h" unicode="&#xb5;" horiz-adv-x="647" 
d="M232 454v282l-37 37v6h-161v-705q0 -21 16 -43t37 -35l20 -20q13 -13 27 -21t27 -8h408v141l-37 37v6h-302v135h274q15 0 32 7.5t31 20t23.5 28t9.5 31.5v382l-37 37v6h-158v-324h-173zM177 115h339v-115h-395q-11 0 -23.5 7t-23 18t-17.5 24t-7 25v689h129v-325h242v324
h126v-369q0 -14 -8 -27t-20.5 -23.5t-27 -17t-27.5 -6.5h-287v-204z" />
    <glyph glyph-name="FL00B6h" unicode="&#xb6;" horiz-adv-x="662" 
d="M578 778h-451q-13 0 -29 -8t-30.5 -20.5t-24 -28t-9.5 -30.5v-285q0 -19 15.5 -40.5t35.5 -35.5l22 -21q13 -13 27.5 -21t26.5 -8h96v-296h6l37 -37h145v15l15 -15h155v788l-37 37v6zM127 762h435v-762h-129v646h-41v-646h-119v333h-152q-11 0 -23 7t-23 18t-18 24t-7 24
v285q0 12 8 25t20 23t25 16.5t24 6.5z" />
    <glyph glyph-name="FL00B7h" unicode="&#xb7;" horiz-adv-x="301" 
d="M79 295l25 -24q10 -10 23.5 -16t30.5 -6h5q22 0 39 8.5t28.5 21t17.5 27t6 27.5q0 16 -7 32.5t-20 29.5l-24 24q-11 17 -28.5 29.5t-38.5 12.5h-13q-18 0 -34 -8t-28 -21t-19 -28.5t-7 -30.5q0 -22 11 -44t33 -34zM123 302h-5q-16 0 -28.5 6.5t-21 17t-13 23t-4.5 24.5
t6 25t15.5 23.5t22.5 17t28 6.5h13q13 0 25 -6.5t21 -17t14 -23.5t5 -25q0 -11 -5 -23.5t-15 -23t-24.5 -17.5t-33.5 -7z" />
    <glyph glyph-name="FL00B8h" unicode="&#xb8;" horiz-adv-x="351" 
d="M0 -163l4 -3q7 -8 15 -12l23 -23l4 -3q14 -14 26.5 -16t26.5 -2q32 0 50 21l176 174l-38 38l5 5h-249l-49 -51q-25 -24 -25 -57q0 -17 6.5 -35t24.5 -36zM14 -154l-4 3q-14 14 -19.5 29.5t-5.5 29.5q0 26 15 40l49 52h205l-155 -153q-13 -16 -40 -16q-12 0 -23 2t-22 13z
" />
    <glyph glyph-name="FL00B9h" unicode="&#xb9;" horiz-adv-x="268" 
d="M40 688l37 -37h10v-285h6l37 -37h91v407l-37 37v6h-150v-91h6zM168 382h-65v322h-53v59h118v-381z" />
    <glyph glyph-name="FL00BAh" unicode="&#xba;" horiz-adv-x="413" 
d="M115 440v265h135v-265h-135zM81 383q2 0 3.5 -0.5t2.5 -0.5h191q11 0 23 12t12 23v310q0 13 -14 24.5t-26 11.5h-183q-15 0 -27.5 -13t-12.5 -27v-300q0 -14 9 -25.5t22 -14.5zM93 344l-27 26q-14 7 -23 21.5t-9 31.5v300q0 10 4.5 20t12.5 18t18 13t21 5h183
q13 0 28 -11t23 -25l27 -26q15 -15 15 -30v-310q0 -16 -16 -32t-32 -16h-193q-1 0 -1.5 0.5t-2.5 0.5h-3q-14 3 -25 14zM168 652v-196h66v196h-66z" />
    <glyph glyph-name="FL00BBh" unicode="&#xbb;" horiz-adv-x="613" 
d="M33 347v-107l5 2l38 -38l213 76v-40l5 2l38 -38l233 83v116l-37 37v5l-239 89v-109l8 -4l35 -34l26 -11l-49 -21v48l-37 37v5l-239 89v-109l8 -4l35 -34l26 -11zM305 262v74l122 50l-122 50v75l207 -77v-98zM49 262v74l122 50l-122 50v75l207 -77v-98z" />
    <glyph glyph-name="FL00BCh" unicode="&#xbc;" horiz-adv-x="753" 
d="M522 235v119l-37 37v6h-33l187 338l-38 38l3 5h-142l-200 -363v321l-37 37v6h-150v-91h6l37 -37h3v-284h6l37 -37h51l-191 -346h8l37 -37h137l183 332v-136h6l37 -37h141v-122h6l37 -37h90v407l-37 37v6h-96v-162h-51zM405 381h64v-162h120v162h64v-381h-64v159h-184v222
zM209 383h-72v321h-46v59h118v-380zM159 0h-109l421 762h107z" />
    <glyph glyph-name="FL00BDh" unicode="&#xbd;" horiz-adv-x="760" 
d="M394 -16l37 -37h282v83l-37 37v6h-154v32h141q7 0 15.5 5t16 12t13 15.5t5.5 16.5v151q0 8 -4.5 15t-10.5 14l-26 25q-7 14 -22.5 25.5t-28.5 11.5h-169l187 339l-38 38l3 5h-142l-200 -363v321l-37 37v6h-150v-91h6l37 -37h3v-284h6l37 -37h51l-191 -346h8l37 -37h137
l194 353l31 -31h148v-39h-138q-7 0 -16 -5t-17.5 -13t-14 -17t-5.5 -18v-193h6zM404 322v58h217q11 0 25 -11t14 -24v-151q0 -6 -4 -12t-9.5 -11.5t-12 -9t-11.5 -3.5h-154v-101h191v-57h-256v177q0 12 13.5 24.5t23.5 12.5h154v108h-191zM209 383h-72v321h-46v59h118v-380z
M159 0h-109l421 762h107z" />
    <glyph glyph-name="FL00BEh" unicode="&#xbe;" horiz-adv-x="829" 
d="M34 620v-88h6l37 -37h150v-39h-193v-90h6l37 -37h213l-190 -345h8l37 -37h137l183 332v-136h6l37 -37h141v-122h6l37 -37h90v407l-37 37v6h-96v-162h-51v119l-37 37v6h-33l187 338l-38 38l3 5h-142l-179 -325v58q0 4 -4 11.5t-8 14.5q5 8 8 15.5t3 10.5v124q0 8 -4.5 16
t-11.5 15l-26 25q-7 14 -22 25t-27 11h-233v-89h6l37 -37h150v-33h-193zM243 604v102h-193v57h217q11 0 24.5 -11.5t13.5 -24.5v-124q0 -4 -5 -15t-8 -12q2 -3 8 -12.5t6 -12.5v-134q0 -12 -13.5 -23.5t-24.5 -11.5h-218v58h193v108h-193v56h193zM481 381h64v-162h120v162
h64v-381h-64v159h-184v222zM235 0h-109l421 762h107z" />
    <glyph glyph-name="FL00BFh" unicode="&#xbf;" horiz-adv-x="662" 
d="M495 777h-5q-23 0 -40.5 -8.5t-29.5 -21.5t-18 -28.5t-6 -28.5q0 -22 13 -44.5t33 -34.5l24 -23q23 -23 51 -23l13 1h1q16 0 31.5 8t27 20t18.5 27t7 29q0 16 -6.5 32.5t-19.5 29.5l-24 24q-11 17 -28.5 29t-41.5 12zM578 126v6h-346v148h296q12 0 27 8.5t28 21.5t22 28
t9 28v155l-37 37v6h-161v-103h-293q-13 0 -28.5 -9t-29 -22t-22.5 -28.5t-9 -28.5v-302q0 -20 15 -39t35 -32l19 -19q14 -14 32 -24t32 -10h448v142zM490 761h5q16 0 28.5 -6.5t21 -17t13 -23t4.5 -24.5t-6 -24.5t-15.5 -23t-22.5 -17t-28 -6.5l-13 -1q-14 0 -25.5 6.5
t-20.5 17t-14 23.5t-5 25q0 11 5 23.5t15 23t24.5 17.5t33.5 7zM562 116v-116h-435q-11 0 -24 6.5t-25 16.5t-20 23t-8 25v302q0 11 7.5 23.5t18.5 23.5t23.5 18t23.5 7h309v103h129v-142q0 -11 -7.5 -24t-18.5 -24t-24 -18t-23 -7h-309v-217h383z" />
    <glyph glyph-name="FL00C0h" unicode="&#xc0;" horiz-adv-x="675" 
d="M229 462v131h200v-131h-200zM39 -16l37 -37h153v330h200v-293h6l37 -37h155v705q0 13 -8 27.5t-21 27.5l-22 22q-14 20 -35 35t-38 15h-52q10 14 14 27.5t4 26.5q0 31 -17 48l-17 17l-14 14q-3 5 -6.5 9t-7.5 9v-1l-71 76q-21 21 -54 21q-34 0 -63 -29l-6 -8v-1
q-23 -25 -23 -60q0 -36 20 -53l82 -76q2 -3 11 -10l12 -10h-200q-1 -1 -3 -1q-1 -1 -4 -1q-31 -10 -53 -35.5t-22 -55.5v-702h6zM391 814l-4 -3q-11 -11 -22 -13t-23 -2q-27 0 -40 16l-81 75q-15 13 -15 41q0 31 21 52l8 11q19 19 47 19q27 0 43 -16l76 -81q15 -14 15 -40
q0 -14 -5.5 -29.5t-19.5 -29.5zM574 0h-129v330h-269v-330h-127v686q0 25 18 46t43 29q2 0 5.5 1t4.5 1h383q11 0 23.5 -7t23 -17.5t17.5 -23t7 -23.5v-692zM445 446v200h-269v-200h269z" />
    <glyph glyph-name="FL00C1h" unicode="&#xc1;" horiz-adv-x="675" 
d="M233 814l4 -3q11 -11 22 -13t23 -2q27 0 40 16l81 75q15 13 15 41q0 31 -21 52l-8 11q-19 19 -47 19q-27 0 -43 -16l-76 -81q-15 -14 -15 -40q0 -14 5.5 -29.5t19.5 -29.5zM50 0h129v330h269v-330h127v686q0 25 -18 46t-43 29q-2 0 -5.5 1t-4.5 1h-383q-11 0 -23.5 -7
t-23 -17.5t-17.5 -23t-7 -23.5v-692zM179 446v200h269v-200h-269zM223 802l-1 1q-17 17 -23.5 35t-6.5 35q0 33 25 57v-1l71 76q21 21 54 21q34 0 63 -29l6 -8l-1 -1q2 -3 5 -5l25 -26l-3 3l6 -5l5 -7l-2 1q25 -25 25 -61q0 -33 -19 -51l-63 -58h120q1 -1 3 -1q1 -1 4 -1
q43 -14 63 -51l21 -20q13 -13 20.5 -28t7.5 -32v-699h-153l-37 37h-6v293h-200v-330h-155l-37 37h-6v708q0 13 8.5 28.5t21.5 28.5t28 21.5t29 8.5h129l-8 8q-8 4 -15 12zM232 593v-131h200v131h-200z" />
    <glyph glyph-name="FL00C2h" unicode="&#xc2;" horiz-adv-x="675" 
d="M338 812l13 -30h5l3 -3h-35zM232 462v131h200v-131h-200zM40 -16l37 -37h155v330h200v-293h6l37 -37h153v699q0 17 -7.5 32t-20.5 28l-21 20q-20 37 -63 51q-3 0 -4 1q-2 0 -3 1h-27l-71 199l-35 35l-3 8h-120l-89 -239h7l3 -3h-53q-14 0 -29 -8.5t-28 -21.5t-21.5 -28.5
t-8.5 -28.5v-708h6zM436 798h-74l-50 122l-50 -122h-75l77 207h98zM448 446v200h-269v-200h269zM448 330h-269v-330h-129v692q0 11 7 23.5t17.5 23t23 17.5t23.5 7h383q1 0 4.5 -1t5.5 -1q25 -8 43 -29t18 -46v-686h-127v330z" />
    <glyph glyph-name="FL00C3h" unicode="&#xc3;" horiz-adv-x="675" 
d="M271 920l50 -125h98l77 207h-75l-50 -122l-50 125h-98l-77 -207h75zM50 0h129v330h269v-330h127v686q0 25 -18 46t-43 29q-2 0 -5.5 1t-4.5 1h-383q-11 0 -23.5 -7t-23 -17.5t-17.5 -23t-7 -23.5v-692zM179 446v200h269v-200h-269zM555 975l-74 -196h28q1 -1 3 -1
q1 -1 4 -1q43 -14 63 -51l21 -20q13 -13 20.5 -28t7.5 -32v-699h-153l-37 37h-6v293h-200v-330h-155l-37 37h-6v708q0 13 8.5 28.5t21.5 28.5t28 21.5t29 8.5h12l-3 3h-7l89 239h120l3 -9l35 -34l11 -30l29 70h109l-2 -5zM232 593v-131h200v131h-200zM310 779l-14 33
l-13 -33h27z" />
    <glyph glyph-name="FL00C4h" unicode="&#xc4;" horiz-adv-x="675" 
d="M367 808l25 -24q2 -3 5 -5h-93q15 11 24 25.5t12 28.5q13 -18 27 -25zM232 462v131h200v-131h-200zM323 896l-9 12l-23 23q-11 17 -29 30t-39 13l-13 -1q-18 0 -34 -8.5t-27.5 -21t-18.5 -28t-7 -29.5q0 -22 11 -44t33 -34l25 -24q2 -3 5 -5h-76q-14 0 -29 -8.5
t-28 -21.5t-21.5 -28.5t-8.5 -28.5v-708h6l37 -37h155v330h200v-293h6l37 -37h153v699q0 17 -7.5 32t-20.5 28l-4 3v-1h1l-18 18q-20 37 -63 51q-3 0 -4 1q-2 0 -3 1h-5q18 13 28 31.5t10 35.5q0 16 -7.5 32.5t-20.5 29.5l-23 23q-11 17 -29 30t-39 13l-13 -1
q-17 0 -31.5 -7t-26 -18t-19.5 -25t-10 -27zM411 815h-5q-16 0 -28.5 6.5t-21 17t-13 23t-4.5 24.5t6 24.5t15.5 23t22.5 17t28 6.5l13 1q13 0 25 -7t21 -17.5t14 -23t5 -24.5q0 -11 -5 -23.5t-15 -23t-24.5 -17.5t-33.5 -7zM211 815h-5q-16 0 -28.5 6.5t-21 17t-13 23
t-4.5 24.5t6 24.5t15.5 23t22.5 17t28 6.5l13 1q13 0 25 -7t21 -17.5t14 -23t5 -24.5q0 -11 -5 -23.5t-15 -23t-24.5 -17.5t-33.5 -7zM448 446v200h-269v-200h269zM448 330h-269v-330h-129v692q0 11 7 23.5t17.5 23t23 17.5t23.5 7h383q1 0 4.5 -1t5.5 -1q25 -8 43 -29
t18 -46v-686h-127v330z" />
    <glyph glyph-name="FL00C5h" unicode="&#xc5;" horiz-adv-x="675" 
d="M594 711l1 -2q0 2 -1 2zM232 462v131h200v-131h-200zM270 805l25 -24q0 -1 0.5 -1.5l0.5 -0.5h-175q-14 0 -29 -8.5t-28 -21.5t-21.5 -28.5t-8.5 -28.5v-708h6l37 -37h155v330h200v-293h6l37 -37h153v699q0 17 -7.5 32t-20.5 28l-5 3h1l-2 2l-14 14q-10 18 -27 31.5
t-37 20.5q-3 0 -4 1q-2 0 -3 1h-97q16 13 24.5 30.5t8.5 33.5t-7.5 32.5t-20.5 29.5l-23 23q-11 17 -29 30t-39 13l-13 -1q-18 0 -34 -8.5t-27.5 -21t-18.5 -28t-7 -29.5q0 -22 11 -44t33 -34zM314 812h-5q-16 0 -28.5 6.5t-21 17t-13 23t-4.5 24.5t6 24.5t15.5 23t22.5 17
t28 6.5l13 1q13 0 25 -7t21 -17.5t14 -23t5 -24.5q0 -11 -5 -23.5t-15 -23t-24.5 -17.5t-33.5 -7zM448 446v200h-269v-200h269zM448 330h-269v-330h-129v692q0 11 7 23.5t17.5 23t23 17.5t23.5 7h383q1 0 4.5 -1t5.5 -1q25 -8 43 -29t18 -46v-686h-127v330z" />
    <glyph glyph-name="FL00C6h" unicode="&#xc6;" horiz-adv-x="1004" 
d="M578 645h198v-215h-198v215zM179 646h269v-200h-269v200zM179 0v330h269v-330h456v115h-326v201h253q10 0 23 7t24 18t18.5 24t7.5 24v301q0 13 -8 25.5t-19.5 22.5t-25 16.5t-24.5 6.5h-708q-11 0 -23.5 -6.5t-22.5 -17t-16.5 -22.5t-6.5 -23v-692h129zM631 263v-132
h289v-6l37 -37v-141h-482l-37 37h-6v293h-200v-330h-155l-37 37h-6v708q0 13 8 28t20.5 27.5t27.5 21t29 8.5h708q20 0 44 -16t38 -39l22 -21q11 -11 18.5 -24t7.5 -27v-301q0 -13 -9 -28t-22 -28t-28 -21.5t-27 -8.5h-240zM232 593v-131h200v131h-200zM631 592v-146h129
v146h-129z" />
    <glyph glyph-name="FL00C7h" unicode="&#xc7;" 
d="M161 -165l1 -1q7 -8 15 -12l23 -23l4 -3q14 -14 26.5 -16t26.5 -2q31 0 49 20l151 149h102v141l-37 37v6h-289v462h326v142l-37 37v6h-392q-20 0 -37.5 -9.5t-30.5 -24.5t-20.5 -33.5t-7.5 -36.5v-586q0 -29 13 -51.5t36 -36.5l23 -23q8 -8 16 -13.5t19 -10.5
q-14 -20 -14 -45q0 -17 6.5 -35t24.5 -36zM172 -154l-4 3q-14 14 -19.5 29.5t-5.5 29.5q0 26 15 40l49 52h-85q-2 0 -7 1t-7 3q-26 12 -42 33.5t-16 50.5v586q0 15 6.5 31t17 28.5t25 20.5t31.5 8h376v-116h-326v-531h326v-115h-94l-155 -153q-13 -16 -40 -16q-12 0 -23 2
t-22 13z" />
    <glyph glyph-name="FL00C8h" unicode="&#xc8;" 
d="M233 446v146h129v-146h-129zM319 777h-204q-35 -14 -58 -40t-23 -64v-586q0 -26 15 -51.5t38 -39.5l23 -23q12 -12 27.5 -19.5t32.5 -7.5h389v142l-37 37v6h-289v132h240q12 0 27 8.5t28 21.5t22 28t9 28v301q0 14 -7.5 27t-18.5 24l-22 21q-11 17 -28 30.5t-34 20.5
q12 15 17 30.5t5 29.5q0 31 -17 48l-17 17l-14 14q-3 5 -6.5 9t-7.5 9v-1l-71 76q-21 21 -54 21q-34 0 -63 -29l-6 -8v-1q-23 -25 -23 -60q0 -36 20 -53l82 -76q5 -7 11 -9zM393 814l-4 -3q-11 -11 -22 -13t-23 -2q-27 0 -40 16l-81 75q-15 13 -15 41q0 31 21 52l8 11
q19 19 47 19q27 0 43 -16l76 -81q15 -14 15 -40q0 -14 -5.5 -29.5t-19.5 -29.5zM118 761h311q11 0 24.5 -6.5t25 -16.5t19.5 -22.5t8 -25.5v-301q0 -11 -7.5 -24t-18.5 -24t-24 -18t-23 -7h-253v-201h326v-116h-376q-17 0 -31.5 8t-25 21t-17 28.5t-6.5 30.5v586
q0 33 19.5 55t48.5 33zM180 645v-215h198v215h-198z" />
    <glyph glyph-name="FL00C9h" unicode="&#xc9;" 
d="M233 814l4 -3q11 -11 22 -13t23 -2q27 0 40 16l81 75q15 13 15 41q0 31 -21 52l-8 11q-19 19 -47 19q-27 0 -43 -16l-76 -81q-15 -14 -15 -40q0 -14 5.5 -29.5t19.5 -29.5zM378 645v-215h-198v215h198zM429 761h-311q-29 -11 -48.5 -33t-19.5 -55v-586q0 -15 6.5 -30.5
t17 -28.5t25 -21t31.5 -8h376v116h-326v201h253q10 0 23 7t24 18t18.5 24t7.5 24v301q0 13 -8 25.5t-19.5 22.5t-25 16.5t-24.5 6.5zM223 802l-1 1q-17 17 -23.5 35t-6.5 35q0 33 25 57v-1l71 76q21 21 54 21q34 0 63 -29l6 -8l-1 -1q2 -3 5 -5l28 -28l5 -7l-2 1
q25 -25 25 -61q0 -33 -19 -51l-65 -60h42q20 0 44 -16t38 -39l22 -21q11 -11 18.5 -24t7.5 -27v-301q0 -13 -9 -28t-22 -28t-28 -21.5t-27 -8.5h-240v-132h289v-6l37 -37v-142h-389q-17 0 -32.5 7.5t-27.5 19.5l-23 23q-23 14 -38 39.5t-15 51.5v586q0 38 23 64t58 40h137
l-10 10q-8 4 -15 12l-1 1zM233 592v-146h129v146h-129z" />
    <glyph glyph-name="FL00CAh" unicode="&#xca;" 
d="M306 815l13 -30h5l8 -8h-42zM233 446v146h129v-146h-129zM147 777h-32q-35 -14 -58 -40t-23 -64v-586q0 -26 15 -51.5t38 -39.5l23 -23q12 -12 27.5 -19.5t32.5 -7.5h389v142l-37 37v6h-289v132h240q12 0 27 8.5t28 21.5t22 28t9 28v301q0 14 -7.5 27t-18.5 24l-22 21
q-10 16 -25.5 29t-31.5 20l-75 210l-35 35l-3 8h-120l-89 -239h7zM404 801h-74l-50 122l-50 -122h-75l77 207h98zM118 761h311q11 0 24.5 -6.5t25 -16.5t19.5 -22.5t8 -25.5v-301q0 -11 -7.5 -24t-18.5 -24t-24 -18t-23 -7h-253v-201h326v-116h-376q-17 0 -31.5 8t-25 21
t-17 28.5t-6.5 30.5v586q0 33 19.5 55t48.5 33zM180 645v-215h198v215h-198z" />
    <glyph glyph-name="FL00CEh" unicode="&#xcb;" 
d="M352 807l25 -24q2 -5 5 -6h-93q15 11 24 25.5t12 29.5q13 -18 27 -25zM233 446v146h129v-146h-129zM182 777h-67q-35 -14 -58 -40t-23 -64v-586q0 -26 15 -51.5t38 -39.5l23 -23q12 -12 27.5 -19.5t32.5 -7.5h389v142l-37 37v6h-289v132h240q12 0 27 8.5t28 21.5t22 28
t9 28v301q0 14 -7.5 27t-18.5 24l-22 21q-8 13 -20 24t-25 19q29 11 45 35t16 45q0 16 -7.5 32.5t-20.5 29.5l-23 23q-11 17 -29 30t-39 13l-13 -1q-17 0 -31.5 -7t-26 -18t-19.5 -25t-10 -27l-9 12l-23 23q-11 17 -29 30t-39 13l-13 -1q-18 0 -34 -8.5t-27.5 -21t-18.5 -28
t-7 -29.5q0 -22 11 -44t33 -34l25 -24q2 -5 5 -6zM396 814h-5q-16 0 -28.5 6.5t-21 17t-13 23t-4.5 24.5t6 24.5t15.5 23t22.5 17t28 6.5l13 1q13 0 25 -7t21 -17.5t14 -23t5 -24.5q0 -11 -5 -23.5t-15 -23t-24.5 -17.5t-33.5 -7zM196 814h-5q-16 0 -28.5 6.5t-21 17t-13 23
t-4.5 24.5t6 24.5t15.5 23t22.5 17t28 6.5l13 1q13 0 25 -7t21 -17.5t14 -23t5 -24.5q0 -11 -5 -23.5t-15 -23t-24.5 -17.5t-33.5 -7zM118 761h311q11 0 24.5 -6.5t25 -16.5t19.5 -22.5t8 -25.5v-301q0 -11 -7.5 -24t-18.5 -24t-24 -18t-23 -7h-253v-201h326v-116h-376
q-17 0 -31.5 8t-25 21t-17 28.5t-6.5 30.5v586q0 33 19.5 55t48.5 33zM180 645v-215h198v215h-198z" />
    <glyph glyph-name="FL00CCh" unicode="&#xcc;" horiz-adv-x="607" 
d="M40 630l37 -37h121v-460h-165v-149h6l37 -37h482v143l-37 37v6h-125v460h163v142l-37 37v6h-104q12 15 17 30.5t5 29.5q0 31 -17 48l-17 17l-14 14q-3 5 -6.5 9t-7.5 9v-1l-71 76q-21 21 -54 21q-34 0 -63 -29l-6 -8v-1q-23 -25 -23 -60q0 -36 20 -53l82 -76q2 -3 5 -5
t5 -4l19 -17h-258v-148h6zM362 819l-4 -3q-11 -11 -22 -13t-23 -2q-27 0 -40 16l-81 75q-15 13 -15 41q0 31 21 52l8 11q19 19 47 19q27 0 43 -16l76 -81q15 -14 15 -40q0 -14 -5.5 -29.5t-19.5 -29.5zM343 117h162v-117h-456v117h165v529h-164v116h456v-116h-163v-529z" />
    <glyph glyph-name="FL00CDh" unicode="&#xcd;" horiz-adv-x="607" 
d="M194 819l4 -3q11 -11 22 -13t23 -2q27 0 40 16l81 75q15 13 15 41q0 31 -21 52l-8 11q-19 19 -47 19q-27 0 -43 -16l-76 -81q-15 -14 -15 -40q0 -14 5.5 -29.5t19.5 -29.5zM213 117h-162v-117h456v117h-165v529h164v116h-456v-116h163v-529zM184 807l-1 1
q-17 17 -23.5 35t-6.5 35q0 33 25 57v-1l71 76q21 21 54 21q34 0 63 -29l6 -8l-1 -1q2 -3 5 -5l25 -26l-3 3l6 -5l5 -7l-2 1q25 -25 25 -61q0 -33 -19 -51l-70 -64h179v-6l37 -37v-142h-164v-460h128v-6l37 -37v-143h-482l-37 37h-6v149h162v460h-120l-37 37h-6v148h183
l-15 15q-8 4 -15 12z" />
    <glyph glyph-name="FL00D7h" unicode="&#xce;" horiz-adv-x="607" 
d="M305 814l13 -30h5l6 -6h-39zM40 630l37 -37h120v-460h-162v-149h6l37 -37h482v143l-37 37v6h-128v460h164v142l-37 37v6h-72l-72 202l-35 35l-3 8h-120l-89 -239h7l6 -6h-110v-148h6zM403 800h-74l-50 122l-50 -122h-75l77 207h98zM507 0h-456v117h162v529h-163v116h456
v-116h-164v-529h165v-117z" />
    <glyph glyph-name="FL00CFh" unicode="&#xcf;" horiz-adv-x="607" 
d="M339 807l25 -24q2 -3 5 -5h-93q15 11 24 25.5t12 28.5q13 -18 27 -25zM197 133h-162v-149h6l37 -37h482v143l-37 37v6h-128v460h164v142l-37 37v6h-46q18 13 28 31.5t10 35.5q0 16 -7.5 32.5t-20.5 29.5l-23 23q-11 17 -29 30t-39 13l-13 -1q-17 0 -31.5 -7t-26 -18
t-19.5 -25t-10 -27l-9 12l-23 23q-11 17 -29 30t-39 13l-13 -1q-18 0 -34 -8.5t-27.5 -21t-18.5 -28t-7 -29.5q0 -22 11 -44t33 -34l25 -24q2 -3 5 -5h-135v-148h6l37 -37h120v-460zM383 814h-5q-16 0 -28.5 6.5t-21 17t-13 23t-4.5 24.5t6 24.5t15.5 23t22.5 17t28 6.5
l13 1q13 0 25 -7t21 -17.5t14 -23t5 -24.5q0 -11 -5 -23.5t-15 -23t-24.5 -17.5t-33.5 -7zM183 814h-5q-16 0 -28.5 6.5t-21 17t-13 23t-4.5 24.5t6 24.5t15.5 23t22.5 17t28 6.5l13 1q13 0 25 -7t21 -17.5t14 -23t5 -24.5q0 -11 -5 -23.5t-15 -23t-24.5 -17.5t-33.5 -7z
M51 117h162v529h-163v116h456v-116h-164v-529h165v-117h-456v117z" />
    <glyph glyph-name="FL00D0h" unicode="&#xd0;" horiz-adv-x="769" 
d="M325 460v133h201v-460h-201v142h97v142l-37 37v6h-60zM34 460v-148h6l37 -37h49v-291h6l37 -37h469q13 0 27.5 8.5t27 21t21 27t8.5 27.5v620q0 14 -7.5 27.5t-18.5 24.5l-24 23q-14 22 -38.5 37.5t-44.5 15.5h-463v-319h-92zM542 646h-270v-202h97v-116h-97v-211h270
v529zM50 328v116h92v319h447q12 0 26 -6.5t26 -17t20 -23t8 -25.5v-620q0 -11 -7 -23.5t-17.5 -23t-23 -17.5t-23.5 -7h-456v328h-92z" />
    <glyph glyph-name="FL00D1h" unicode="&#xd1;" horiz-adv-x="675" 
d="M267 920l50 -125h98l77 207h-75l-50 -122l-50 125h-98l-77 -207h75zM449 0h126v686q0 25 -18 46t-43 29l-9 1h-455v-762h129v646h270v-646zM551 975l-74 -197h29l11 -1q43 -13 63 -52l20 -19q13 -13 20.5 -28t7.5 -32v-699h-152l-37 37h-6v609h-201v-646h-155l-37 37h-6
v794h96l-4 4h-7l89 239h120l3 -9l35 -34l11 -30l29 70h109l-2 -5zM306 779l-13 33l-14 -34h33l-1 1h-5z" />
    <glyph glyph-name="FL00D2h" unicode="&#xd2;" horiz-adv-x="677" 
d="M233 133v460h201v-460h-201zM158 -51l1 -1l1 -1h386q13 0 27.5 8.5t27 21t21 27t8.5 27.5v620q0 13 -7.5 26t-18.5 24l-21 20q-14 22 -39.5 39.5t-46.5 17.5h-44q10 14 14 27.5t4 27.5q0 31 -17 48l-17 17l-14 14q-3 5 -6.5 9t-7.5 9v-1l-71 76q-21 21 -54 21
q-34 0 -63 -29l-6 -8v-1q-23 -25 -23 -60q0 -36 20 -53l82 -76q2 -3 11 -10l13 -11h-188q-17 0 -34.5 -8.5t-31 -22t-22 -31t-8.5 -34.5v-600q0 -25 13.5 -48.5t35.5 -37.5l24 -23q18 -18 43 -24h8zM393 814l-4 -3q-11 -11 -22 -13t-23 -2q-27 0 -40 16l-81 75
q-15 13 -15 41q0 31 21 52l8 11q19 19 47 19q27 0 43 -16l76 -81q15 -14 15 -40q0 -14 -5.5 -29.5t-19.5 -29.5zM113 2q-26 6 -44.5 30t-18.5 50v600q0 15 7 29t18.5 25.5t25.5 18.5t29 7h367q12 0 26 -6.5t26 -16.5t20 -23t8 -25v-620q0 -11 -7 -23.5t-17.5 -23t-23 -17.5
t-23.5 -7h-382q-1 0 -5 1t-6 1zM180 646v-529h270v529h-270z" />
    <glyph glyph-name="FL00D3h" unicode="&#xd3;" horiz-adv-x="677" 
d="M233 814l4 -3q11 -11 22 -13t23 -2q27 0 40 16l81 75q15 13 15 41q0 31 -21 52l-8 11q-19 19 -47 19q-27 0 -43 -16l-76 -81q-15 -14 -15 -40q0 -14 5.5 -29.5t19.5 -29.5zM513 2q26 6 44.5 30t18.5 50v600q0 15 -7 29t-18.5 25.5t-25.5 18.5t-29 7h-367q-12 0 -26 -6.5
t-26 -16.5t-20 -23t-8 -25v-620q0 -11 7 -23.5t17.5 -23t23 -17.5t23.5 -7h382q1 0 5 1t6 1zM446 646v-529h-270v529h270zM223 802l-1 1q-17 17 -23.5 35t-6.5 35q0 33 25 57v-1l71 76q21 21 54 21q34 0 63 -29l6 -8l-1 -1l33 -33l5 -7l-2 1q25 -25 25 -61q0 -33 -19 -51
l-64 -59h108q23 0 45.5 -15t36.5 -38l21 -20q30 -30 30 -63v-600q0 -15 -5.5 -30t-15.5 -28t-23.5 -22.5t-28.5 -12.5h-3q-5 0 -6 -1l-1 -1h-386q-13 0 -27.5 8t-27.5 21l-22 22q-20 14 -35 34.5t-15 38.5v620q0 15 9.5 30.5t24 28t31.5 20.5t31 8h122l-10 10q-8 4 -15 12z
M229 593v-460h201v460h-201z" />
    <glyph glyph-name="FL00D4h" unicode="&#xd4;" horiz-adv-x="677" 
d="M338 812l13 -30h5l4 -4h-36zM233 133v460h201v-460h-201zM158 -51l1 -1l1 -1h386q13 0 27.5 8.5t27 21t21 27t8.5 27.5v620q0 13 -7.5 26t-18.5 24l-21 20q-14 22 -39.5 39.5t-46.5 17.5h-15l-71 200l-35 35l-3 8h-120l-89 -239h7l4 -4h-45q-17 0 -34.5 -8.5t-31 -22
t-22 -31t-8.5 -34.5v-600q0 -25 13.5 -48.5t35.5 -37.5l24 -23q18 -18 43 -24h8zM436 798h-74l-50 122l-50 -122h-75l77 207h98zM113 2q-26 6 -44.5 30t-18.5 50v600q0 15 7 29t18.5 25.5t25.5 18.5t29 7h367q12 0 26 -6.5t26 -16.5t20 -23t8 -25v-620q0 -11 -7 -23.5
t-17.5 -23t-23 -17.5t-23.5 -7h-382q-1 0 -5 1t-6 1zM180 646v-529h270v529h-270z" />
    <glyph glyph-name="FL00D5h" unicode="&#xd5;" horiz-adv-x="677" 
d="M274 921l50 -125h98l77 207h-75l-50 -122l-50 125h-98l-77 -207h75zM450 117h-270v529h270v-529zM113 2q2 0 6 -1t5 -1h382q11 0 23.5 7t23 17.5t17.5 23t7 23.5v620q0 12 -8 25t-20 23t-26 16.5t-26 6.5h-367q-15 0 -29 -7t-25.5 -18.5t-18.5 -25.5t-7 -29v-600
q0 -26 18.5 -50t44.5 -30zM160 -53l-1 1l-1 1h-8q-25 6 -43 24l-24 23q-22 14 -35.5 37.5t-13.5 48.5v600q0 17 8.5 34.5t22 31t31 22t34.5 8.5h8l-5 5h-7l89 239h120l3 -9l35 -34l11 -30l29 70h109l-2 -5l38 -38l-74 -198h13q21 0 46.5 -17.5t39.5 -39.5l21 -20
q11 -11 18.5 -24t7.5 -26v-620q0 -13 -8.5 -27.5t-21 -27t-27 -21t-27.5 -8.5h-386zM233 593v-460h201v460h-201zM313 780l-13 32l-14 -34h34l-2 2h-5z" />
    <glyph glyph-name="FL00D6h" unicode="&#xd6;" horiz-adv-x="677" 
d="M367 808l25 -24q2 -5 5 -6h-93q15 11 24 25.5t12 29.5q13 -18 27 -25zM233 133v460h201v-460h-201zM160 -53h386q13 0 27.5 8.5t27 21t21 27t8.5 27.5v620q0 13 -7.5 26t-18.5 24l-21 20q-13 21 -36 37.5t-44 18.5q19 14 29 33t10 36q0 16 -7.5 32.5t-20.5 29.5l-23 23
q-11 17 -29 30t-39 13l-13 -1q-17 0 -31.5 -7t-26 -18t-19.5 -25t-10 -27l-9 12l-23 23q-11 17 -29 30t-39 13l-13 -1q-18 0 -34 -8.5t-27.5 -21t-18.5 -28t-7 -29.5q0 -22 11 -44t33 -34l25 -24q2 -5 5 -6h-67q-17 0 -34.5 -8.5t-31 -22t-22 -31t-8.5 -34.5v-600
q0 -25 13.5 -48.5t35.5 -37.5l24 -23q18 -18 43 -24h8l1 -1zM411 815h-5q-16 0 -28.5 6.5t-21 17t-13 23t-4.5 24.5t6 24.5t15.5 23t22.5 17t28 6.5l13 1q13 0 25 -7t21 -17.5t14 -23t5 -24.5q0 -11 -5 -23.5t-15 -23t-24.5 -17.5t-33.5 -7zM211 815h-5q-16 0 -28.5 6.5
t-21 17t-13 23t-4.5 24.5t6 24.5t15.5 23t22.5 17t28 6.5l13 1q13 0 25 -7t21 -17.5t14 -23t5 -24.5q0 -11 -5 -23.5t-15 -23t-24.5 -17.5t-33.5 -7zM113 2q-26 6 -44.5 30t-18.5 50v600q0 15 7 29t18.5 25.5t25.5 18.5t29 7h367q12 0 26 -6.5t26 -16.5t20 -23t8 -25v-620
q0 -11 -7 -23.5t-17.5 -23t-23 -17.5t-23.5 -7h-382q-1 0 -5 1t-6 1zM180 646v-529h270v529h-270z" />
    <glyph glyph-name="FL0302h" unicode="&#xd7;" horiz-adv-x="456" 
d="M193 553l-33 32l-5 11h-110l100 -196l-122 -217h8l37 -37h109l55 99l35 -62h5l37 -37h109l-122 214l99 193l-38 37l3 6h-111l-40 -75zM130 199h-80l113 200v3l-91 178h74l57 -107l56 107h74l-91 -178v-3l114 -200h-80l-73 131z" />
    <glyph glyph-name="FL00D8h" unicode="&#xd8;" horiz-adv-x="677" 
d="M180 646h194l-194 -371v371zM222 117l228 433v-433h-228zM113 2q2 0 6 -1t5 -1h382q11 0 23.5 7t23 17.5t17.5 23t7 23.5v620q0 12 -8 25t-20 23t-26 16.5t-26 6.5h-367q-15 0 -29 -7t-25.5 -18.5t-18.5 -25.5t-7 -29v-600q0 -26 18.5 -50t44.5 -30zM160 -53l-1 1l-1 1
h-8q-25 6 -43 24l-24 23q-22 14 -35.5 37.5t-13.5 48.5v600q0 17 8.5 34.5t22 31t31 22t34.5 8.5h367q21 0 46.5 -17.5t39.5 -39.5l21 -20q11 -11 18.5 -24t7.5 -26v-620q0 -13 -8.5 -27.5t-21 -27t-27 -21t-27.5 -8.5h-386zM306 133h128v241zM233 593v-181l94 181h-94z" />
    <glyph glyph-name="FL00D9h" unicode="&#xd9;" horiz-adv-x="675" 
d="M398 802l3 2q17 17 23.5 34.5t6.5 34.5q0 23 -11 40l-8 9l-47 50q-20 11 -41 11q-33 0 -61 -28l-4 -5l1 -1q-25 -25 -25 -61q0 -24 9 -39l51 -47l-1 2l3 -3q18 -18 47 -18q14 0 27 2.5t27 16.5zM192 779h-158v-702q0 -24 14 -45t35 -34l21 -21q10 -10 21.5 -16.5
t23.5 -11.5h6l1 -1l1 -1h387q13 0 27.5 8.5t27 21t21 27t8.5 27.5v705l-37 37v6h-138q10 14 14 27.5t4 26.5q0 31 -17 48l-17 17l-14 14q-3 5 -6.5 9t-7.5 9v-1l-71 76q-21 21 -54 21q-34 0 -63 -29l-6 -8v-1q-23 -25 -23 -60q0 -36 20 -53l82 -76q19 -19 50 -19
q14 0 27 2.5t28 16.5l4 3q18 18 24.5 36t6.5 35q0 22 -11 39l-47 51l-40 40q-20 20 -52 20q-33 0 -61 -28l-5 -7v-1q-23 -23 -23 -59q0 -33 19 -51l40 -40l50 -47l31 -28l-1 2l3 -3q18 -18 47 -18q12 0 23 1.5t23 9.5v-621h-201v603l-37 37v6zM393 814l-4 -3
q-11 -11 -22 -13t-23 -2q-27 0 -40 16l-81 75q-15 13 -15 41q0 31 21 52l8 11q19 19 47 19q27 0 43 -16l76 -81q15 -14 15 -40q0 -14 -5.5 -29.5t-19.5 -29.5zM50 763h126v-646h270v646h129v-692q0 -11 -7 -23.5t-17.5 -23t-23 -17.5t-23.5 -7h-383q-1 0 -5 1t-6 1
q-24 8 -42 29t-18 46v686z" />
    <glyph glyph-name="FL00DAh" unicode="&#xda;" horiz-adv-x="675" 
d="M233 814l4 -3q11 -11 22 -13t23 -2q27 0 40 16l81 75q15 13 15 41q0 31 -21 52l-8 11q-19 19 -47 19q-27 0 -43 -16l-76 -81q-15 -14 -15 -40q0 -14 5.5 -29.5t19.5 -29.5zM176 763h-126v-686q0 -25 18 -46t42 -29q2 0 6 -1t5 -1h383q11 0 23.5 7t23 17.5t17.5 23t7 23.5
v692h-129v-646h-270v646zM156 -52l-1 1h-6q-12 5 -23.5 11.5t-21.5 16.5l-21 21q-21 13 -35 34t-14 45v702h158v-6l37 -37v-603h201v646h161v-6l37 -37v-705q0 -13 -8.5 -27.5t-21 -27t-27 -21t-27.5 -8.5h-387zM223 802l-1 1q-17 17 -23.5 35t-6.5 35q0 33 25 57v-1l71 76
q21 21 54 21q34 0 63 -29l6 -8l-1 -1l30 -31l-3 3l6 -5l5 -7l-2 1q25 -25 25 -61q0 -33 -19 -51l-81 -75h-1q-18 -19 -48 -19q-14 0 -26.5 2t-26.5 16l-4 3l-24 24q-8 4 -15 12z" />
    <glyph glyph-name="FL00DBh" unicode="&#xdb;" horiz-adv-x="675" 
d="M220 745h91l27 67l13 -30h5l37 -37h37v-612h-201v603zM155 -51l1 -1l1 -1h387q13 0 27.5 8.5t27 21t21 27t8.5 27.5v705l-37 37v6h-109l-71 199l-35 35l-3 8h-120l-89 -239h7l3 -3h-140v-702q0 -24 14 -45t35 -34l21 -21q10 -10 21.5 -16.5t23.5 -11.5h6zM436 798h-74
l-50 122l-50 -122h-75l77 207h98zM50 763h126v-646h270v646h129v-692q0 -11 -7 -23.5t-17.5 -23t-23 -17.5t-23.5 -7h-383q-1 0 -5 1t-6 1q-24 8 -42 29t-18 46v686z" />
    <glyph glyph-name="FL00DCh" unicode="&#xdc;" horiz-adv-x="675" 
d="M192 779h-158v-702q0 -24 14 -45t35 -34l21 -21q10 -10 21.5 -16.5t23.5 -11.5h6l1 -1l1 -1h387q13 0 27.5 8.5t27 21t21 27t8.5 27.5v705l-37 37v6h-87q18 13 28 31.5t10 35.5q0 16 -7.5 32.5t-20.5 29.5l-23 23q-11 17 -29 30t-39 13l-13 -1q-17 0 -31.5 -7t-26 -18
t-19.5 -25t-10 -27l-9 12l-23 23q-11 17 -29 30t-39 13l-13 -1q-18 0 -34 -8.5t-27.5 -21t-18.5 -28t-7 -29.5q0 -22 11 -44t33 -34l25 -24q10 -10 23.5 -16t30.5 -6h5q19 0 34.5 6.5t27 16.5t18.5 23t9 25q13 -18 27 -25l25 -24q14 -17 38 -21v-630h-201v603l-37 37v6z
M411 815h-5q-16 0 -28.5 6.5t-21 17t-13 23t-4.5 24.5t6 24.5t15.5 23t22.5 17t28 6.5l13 1q13 0 25 -7t21 -17.5t14 -23t5 -24.5q0 -11 -5 -23.5t-15 -23t-24.5 -17.5t-33.5 -7zM211 815h-5q-16 0 -28.5 6.5t-21 17t-13 23t-4.5 24.5t6 24.5t15.5 23t22.5 17t28 6.5l13 1
q13 0 25 -7t21 -17.5t14 -23t5 -24.5q0 -11 -5 -23.5t-15 -23t-24.5 -17.5t-33.5 -7zM50 763h126v-646h270v646h129v-692q0 -11 -7 -23.5t-17.5 -23t-23 -17.5t-23.5 -7h-383q-1 0 -5 1t-6 1q-24 8 -42 29t-18 46v686z" />
    <glyph glyph-name="FL00DDh" unicode="&#xdd;" horiz-adv-x="647" 
d="M233 814l4 -3q11 -11 22 -13t23 -2q27 0 40 16l81 75q15 13 15 41q0 31 -21 52l-8 11q-19 19 -47 19q-27 0 -43 -16l-76 -81q-15 -14 -15 -40q0 -14 5.5 -29.5t19.5 -29.5zM420 115h-339v-115h395q11 0 23.5 7t23 18t17.5 24t7 25v689h-129v-325h-242v324h-126v-369
q0 -14 8 -27t20.5 -23.5t27 -17t27.5 -6.5h287v-204zM65 131h339v135h-231q-17 0 -36 9.5t-34 24.5l-22 21q-20 14 -33.5 33t-13.5 39v385h158v-6l37 -37v-281h173v325h161v-6l37 -37v-702q0 -14 -8.5 -29.5t-21 -28.5t-27 -21t-27.5 -8h-408l-37 37h-6v147zM223 802l-1 1
q-17 17 -23.5 35t-6.5 35q0 33 25 57v-1l71 76q21 21 54 21q34 0 63 -29l6 -8l-1 -1l30 -31l-3 3l6 -5l5 -7l-2 1q25 -25 25 -61q0 -33 -19 -51l-81 -75h-1q-18 -19 -48 -19q-14 0 -26.5 2t-26.5 16l-4 3l-23 23q-8 4 -15 12l-1 1z" />
    <glyph glyph-name="FL00DEh" unicode="&#xde;" horiz-adv-x="662" 
d="M232 303v132h187v-132h-187zM232 620v116l-37 37v6h-161v-795h6l37 -37h155v174h299q12 0 27 9t27.5 22t21 28t8.5 28v285q0 13 -7.5 26t-18.5 24l-21 20q-7 12 -17.5 22t-22 18t-23 12.5t-20.5 4.5h-253zM435 488h-256v-201h256v201zM179 0h-129v763h129v-159h306
q10 0 23.5 -6.5t25.5 -16.5t20 -23t8 -25v-285q0 -11 -7 -24t-18 -24t-23.5 -18.5t-22.5 -7.5h-312v-174z" />
    <glyph glyph-name="FL00DFh" unicode="&#xdf;" horiz-adv-x="663" 
d="M552 390h-1l6 8q-2 -3 -3 -5t-2 -3zM234 460v133h185v-133h-185zM234 313l33 -33h154v-148h-187v181zM40 -158l37 -37h157v175l33 -33h259q12 0 28 7.5t29.5 19.5t23 27t9.5 30v268q0 8 -8 21t-16 24q-2 2 -2 4q8 12 16 29t8 25v249q0 13 -7.5 26.5t-18.5 24.5l-23 22
q-14 22 -38 38t-42 16h-451v-936h6zM181 -142h-131v904h435q10 0 23.5 -6.5t25 -16.5t19.5 -23t8 -25v-249q0 -4 -3 -12.5t-7 -17.5t-9 -16t-8 -8q1 -3 5.5 -10t10 -14.5t9.5 -14.5t4 -10v-268q0 -12 -8 -25t-20 -23t-25.5 -16.5t-23.5 -6.5h-246v116h197v217h-197v111h195
v202h-254v-788z" />
    <glyph glyph-name="FL00E0h" unicode="&#xe0;" horiz-adv-x="658" 
d="M233 133v142h182v-142h-182zM415 461h-291q-15 0 -31 -9.5t-29 -24t-21.5 -31.5t-8.5 -31v-285q0 -21 16 -46t39 -39l22 -22q11 -11 24.5 -18.5t26.5 -7.5h449v702q0 14 -7.5 28t-18.5 25l-24 23q-14 22 -38.5 37.5t-44.5 15.5h-25q10 14 14 27.5t4 27.5q0 31 -17 48
l-17 17l-14 14q-3 5 -6.5 9t-7.5 9v-1l-71 76q-21 21 -54 21q-34 0 -63 -29l-6 -8v-1q-23 -25 -23 -60q0 -36 20 -53l82 -76q2 -3 11 -10l13 -11h-269v-148h6l37 -37h323v-132zM393 814l-4 -3q-11 -11 -22 -13t-23 -2q-27 0 -40 16l-81 75q-15 13 -15 41q0 31 21 52l8 11
q19 19 47 19q27 0 43 -16l76 -81q15 -14 15 -40q0 -14 -5.5 -29.5t-19.5 -29.5zM124 445h307v201h-366v116h413q12 0 26 -6.5t26 -16.5t20 -23.5t8 -26.5v-689h-436q-13 0 -25.5 8t-23 20t-17 26t-6.5 26v285q0 12 7 26t17.5 26t23.5 20t26 8zM431 117v211h-251v-211h251z
" />
    <glyph glyph-name="FL00E1h" unicode="&#xe1;" horiz-adv-x="658" 
d="M233 814l4 -3q11 -11 22 -13t23 -2q27 0 40 16l81 75q15 13 15 41q0 31 -21 52l-8 11q-19 19 -47 19q-27 0 -43 -16l-76 -81q-15 -14 -15 -40q0 -14 5.5 -29.5t19.5 -29.5zM180 117v211h251v-211h-251zM431 646v-201h-307q-13 0 -26 -8t-23.5 -20t-17.5 -26t-7 -26v-285
q0 -12 6.5 -26t17 -26t23 -20t25.5 -8h436v689q0 13 -8 26.5t-20 23.5t-26 16.5t-26 6.5h-413v-116h366zM223 802l-1 1q-17 17 -23.5 35t-6.5 35q0 33 25 57v-1l71 76q21 21 54 21q34 0 63 -29l6 -8l-1 -1l33 -33l5 -7l-2 1q25 -25 25 -61q0 -33 -19 -51l-64 -59h90
q20 0 44.5 -15.5t38.5 -37.5l24 -23q11 -11 18.5 -25t7.5 -28v-702h-449q-13 0 -26.5 7.5t-24.5 18.5l-22 22q-23 14 -39 39t-16 46v285q0 14 8.5 31t21.5 31.5t29 24t31 9.5h291v132h-323l-37 37h-6v148h202l-9 9q-8 4 -15 12zM233 275v-142h182v142h-182z" />
    <glyph glyph-name="FL00E2h" unicode="&#xe2;" horiz-adv-x="658" 
d="M333 814l13 -30h5l6 -6h-39zM233 133v142h182v-142h-182zM415 461h-291q-15 0 -31 -9.5t-29 -24t-21.5 -31.5t-8.5 -31v-285q0 -21 16 -46t39 -39l22 -22q11 -11 24.5 -18.5t26.5 -7.5h449v702q0 14 -7.5 28t-18.5 25l-24 23q-14 22 -38.5 37.5t-44.5 15.5l-72 202
l-35 35l-3 8h-120l-89 -239h7l6 -6h-123v-148h6l37 -37h323v-132zM431 800h-74l-50 122l-50 -122h-75l77 207h98zM124 445h307v201h-366v116h413q12 0 26 -6.5t26 -16.5t20 -23.5t8 -26.5v-689h-436q-13 0 -25.5 8t-23 20t-17 26t-6.5 26v285q0 12 7 26t17.5 26t23.5 20
t26 8zM431 117v211h-251v-211h251z" />
    <glyph glyph-name="FL00E3h" unicode="&#xe3;" horiz-adv-x="658" 
d="M267 920l50 -125h98l77 207h-75l-50 -122l-50 125h-98l-77 -207h75zM180 117v211h251v-211h-251zM431 646v-201h-307q-13 0 -26 -8t-23.5 -20t-17.5 -26t-7 -26v-285q0 -12 6.5 -26t17 -26t23 -20t25.5 -8h436v689q0 13 -8 26.5t-20 23.5t-26 16.5t-26 6.5h-413v-116h366
zM34 365q0 14 8.5 31t21.5 31.5t29 24t31 9.5h291v132h-323l-37 37h-6v148h81l-4 4h-7l89 239h120l3 -9l35 -34l11 -30l29 70h109l-2 -5l38 -38l-74 -197h1q20 0 44.5 -15.5t38.5 -37.5l24 -23q11 -11 18.5 -25t7.5 -28v-702h-449q-13 0 -26.5 7.5t-24.5 18.5l-22 22
q-23 14 -39 39t-16 46v285zM233 275v-142h182v142h-182zM306 779l-13 33l-14 -34h33l-1 1h-5z" />
    <glyph glyph-name="FL00E4h" unicode="&#xe4;" horiz-adv-x="658" 
d="M360 807l25 -24q2 -3 5 -5h-93q15 11 24 25.5t12 28.5q13 -18 27 -25zM233 133v142h182v-142h-182zM415 461h-291q-15 0 -31 -9.5t-29 -24t-21.5 -31.5t-8.5 -31v-285q0 -21 16 -46t39 -39l22 -22q11 -11 24.5 -18.5t26.5 -7.5h449v702q0 14 -7.5 28t-18.5 25l-24 23
q-11 18 -29.5 31.5t-36.5 18.5q19 14 29.5 33.5t10.5 36.5q0 16 -7.5 32.5t-20.5 29.5l-23 23q-11 17 -29 30t-39 13l-13 -1q-17 0 -31.5 -7t-26 -18t-19.5 -25t-10 -27l-9 12l-23 23q-11 17 -29 30t-39 13l-13 -1q-18 0 -34 -8.5t-27.5 -21t-18.5 -28t-7 -29.5
q0 -22 11 -44t33 -34l25 -24q2 -3 5 -5h-141v-148h6l37 -37h323v-132zM404 814h-5q-16 0 -28.5 6.5t-21 17t-13 23t-4.5 24.5t6 24.5t15.5 23t22.5 17t28 6.5l13 1q13 0 25 -7t21 -17.5t14 -23t5 -24.5q0 -11 -5 -23.5t-15 -23t-24.5 -17.5t-33.5 -7zM204 814h-5
q-16 0 -28.5 6.5t-21 17t-13 23t-4.5 24.5t6 24.5t15.5 23t22.5 17t28 6.5l13 1q13 0 25 -7t21 -17.5t14 -23t5 -24.5q0 -11 -5 -23.5t-15 -23t-24.5 -17.5t-33.5 -7zM124 445h307v201h-366v116h413q12 0 26 -6.5t26 -16.5t20 -23.5t8 -26.5v-689h-436q-13 0 -25.5 8t-23 20
t-17 26t-6.5 26v285q0 12 7 26t17.5 26t23.5 20t26 8zM431 117v211h-251v-211h251z" />
    <glyph glyph-name="FL00E5h" unicode="&#xe5;" horiz-adv-x="658" 
d="M233 133v142h182v-142h-182zM415 461h-291q-15 0 -31 -9.5t-29 -24t-21.5 -31.5t-8.5 -31v-285q0 -21 16 -46t39 -39l22 -22q11 -11 24.5 -18.5t26.5 -7.5h449v702q0 14 -7.5 28t-18.5 25l-24 23q-14 22 -38.5 37.5t-44.5 15.5h-76q17 13 26 31t9 34t-7.5 32.5
t-20.5 29.5l-23 23q-11 17 -29 30t-39 13l-13 -1q-18 0 -34 -8.5t-27.5 -21t-18.5 -28t-7 -29.5q0 -22 11 -44t33 -34l28 -27h-241v-148h6l37 -37h323v-132zM306 812h-5q-16 0 -28.5 6.5t-21 17t-13 23t-4.5 24.5t6 24.5t15.5 23t22.5 17t28 6.5l13 1q13 0 25 -7t21 -17.5
t14 -23t5 -24.5q0 -11 -5 -23.5t-15 -23t-24.5 -17.5t-33.5 -7zM124 445h307v201h-366v116h413q12 0 26 -6.5t26 -16.5t20 -23.5t8 -26.5v-689h-436q-13 0 -25.5 8t-23 20t-17 26t-6.5 26v285q0 12 7 26t17.5 26t23.5 20t26 8zM431 117v211h-251v-211h251z" />
    <glyph glyph-name="FL00E6h" unicode="&#xe6;" horiz-adv-x="987" 
d="M180 117v211h249v-211h-249zM887 646v116h-822v-116h364v-201h-305q-13 0 -26 -8t-23.5 -20t-17.5 -26t-7 -26v-285q0 -12 6.5 -26t17 -26t23 -20t25.5 -8h765v115h-329v214h318v116h-318v201h329zM903 778v-6l37 -37v-142h-329v-132h281v-6l37 -37v-142h-318v-145h292
v-6l37 -37v-141h-778q-13 0 -26.5 7.5t-24.5 18.5l-22 22q-23 14 -39 39t-16 46v285q0 14 8.5 31t21.5 31.5t29 24t31 9.5h289v132h-321l-37 37h-6v148h854zM233 275v-142h180v142h-180z" />
    <glyph glyph-name="FL00E7h" unicode="&#xe7;" 
d="M161 -165l1 -1q7 -8 15 -12l23 -23l4 -3q14 -14 26.5 -16t26.5 -2q31 0 49 20l151 149h102v141l-37 37v6h-289v462h326v142l-37 37v6h-392q-20 0 -37.5 -9.5t-30.5 -24.5t-20.5 -33.5t-7.5 -36.5v-586q0 -29 13 -51.5t36 -36.5l23 -23q8 -8 16 -13.5t19 -10.5
q-14 -20 -14 -45q0 -17 6.5 -35t24.5 -36zM172 -154l-4 3q-14 14 -19.5 29.5t-5.5 29.5q0 26 15 40l49 52h-85q-2 0 -7 1t-7 3q-26 12 -42 33.5t-16 50.5v586q0 15 6.5 31t17 28.5t25 20.5t31.5 8h376v-116h-326v-531h326v-115h-94l-155 -153q-13 -16 -40 -16q-12 0 -23 2
t-22 13z" />
    <glyph glyph-name="FL00E8h" unicode="&#xe8;" horiz-adv-x="608" 
d="M318 778h-188q-16 0 -33 -8t-31 -20.5t-23 -28.5t-9 -32v-618q0 -18 16 -39.5t36 -34.5l20 -20q13 -13 28 -21.5t28 -8.5h399v141l-37 37v6h-293v145h319v142l-37 37v6h-282v132h330v142l-37 37v6h-71q10 14 14 27.5t4 27.5q0 31 -17 48l-17 17l-14 14q-3 5 -6.5 9
t-7.5 9v-1l-71 76q-21 21 -54 21q-34 0 -63 -29l-6 -8v-1q-23 -25 -23 -60q0 -36 20 -53l82 -76q2 -3 11 -10zM393 814l-4 -3q-11 -11 -22 -13t-23 -2q-27 0 -40 16l-81 75q-15 13 -15 41q0 31 21 52l8 11q19 19 47 19q27 0 43 -16l76 -81q15 -14 15 -40q0 -14 -5.5 -29.5
t-19.5 -29.5zM130 762h378v-116h-330v-201h319v-116h-319v-214h330v-115h-386q-11 0 -23.5 7t-23.5 17.5t-18 23t-7 23.5v618q0 13 7.5 26.5t19.5 23.5t26 16.5t27 6.5z" />
    <glyph glyph-name="FL00E9h" unicode="&#xe9;" horiz-adv-x="608" 
d="M233 814l4 -3q11 -11 22 -13t23 -2q27 0 40 16l81 75q15 13 15 41q0 31 -21 52l-8 11q-19 19 -47 19q-27 0 -43 -16l-76 -81q-15 -14 -15 -40q0 -14 5.5 -29.5t19.5 -29.5zM178 445v201h330v116h-378q-13 0 -27 -6.5t-26 -16.5t-19.5 -23.5t-7.5 -26.5v-618
q0 -11 7 -23.5t18 -23t23.5 -17.5t23.5 -7h386v115h-330v214h319v116h-319zM223 802l-1 1q-17 17 -23.5 35t-6.5 35q0 33 25 57v-1l71 76q21 21 54 21q34 0 63 -29l6 -8l-1 -1l33 -33l5 -7l-2 1q25 -25 25 -61q0 -33 -19 -51l-64 -59h136v-6l37 -37v-142h-330v-132h282v-6
l37 -37v-142h-319v-145h293v-6l37 -37v-141h-399q-13 0 -28 8.5t-28 21.5l-20 20q-20 13 -36 34.5t-16 39.5v618q0 16 9 32t23 28.5t31 20.5t33 8h121l-9 9q-8 4 -15 12l-1 1z" />
    <glyph glyph-name="FL00EAh" unicode="&#xea;" horiz-adv-x="608" 
d="M321 813l13 -30h5l5 -5h-37zM159 778h-29q-16 0 -33 -8t-31 -20.5t-23 -28.5t-9 -32v-618q0 -18 16 -39.5t36 -34.5l20 -20q13 -13 28 -21.5t28 -8.5h399v141l-37 37v6h-293v145h319v142l-37 37v6h-282v132h330v142l-37 37v6h-59l-71 201l-35 35l-3 8h-120l-89 -239h7z
M419 799h-74l-50 122l-50 -122h-75l77 207h98zM130 762h378v-116h-330v-201h319v-116h-319v-214h330v-115h-386q-11 0 -23.5 7t-23.5 17.5t-18 23t-7 23.5v618q0 13 7.5 26.5t19.5 23.5t26 16.5t27 6.5z" />
    <glyph glyph-name="FL00EBh" unicode="&#xeb;" horiz-adv-x="608" 
d="M358 806l25 -24q1 -1 1.5 -2t1.5 -2h-89q29 23 34 53q13 -18 27 -25zM524 772v6h-27q17 13 26.5 31t9.5 35q0 16 -7.5 32.5t-20.5 29.5l-23 23q-11 17 -29 30t-39 13l-13 -1q-17 0 -31.5 -7t-26 -18t-19.5 -25t-10 -27l-9 12l-23 23q-11 17 -29 30t-39 13l-13 -1
q-18 0 -34 -8.5t-27.5 -21t-18.5 -28t-7 -29.5q0 -22 11 -44t33 -34l25 -24q1 -1 1.5 -2t1.5 -2h-56q-16 0 -33 -8t-31 -20.5t-23 -28.5t-9 -32v-618q0 -18 16 -39.5t36 -34.5l20 -20q13 -13 28 -21.5t28 -8.5h399v141l-37 37v6h-293v145h319v142l-37 37v6h-282v132h330v142
zM402 813h-5q-16 0 -28.5 6.5t-21 17t-13 23t-4.5 24.5t6 24.5t15.5 23t22.5 17t28 6.5l13 1q13 0 25 -7t21 -17.5t14 -23t5 -24.5q0 -11 -5 -23.5t-15 -23t-24.5 -17.5t-33.5 -7zM202 813h-5q-16 0 -28.5 6.5t-21 17t-13 23t-4.5 24.5t6 24.5t15.5 23t22.5 17t28 6.5l13 1
q13 0 25 -7t21 -17.5t14 -23t5 -24.5q0 -11 -5 -23.5t-15 -23t-24.5 -17.5t-33.5 -7zM508 762v-116h-330v-201h319v-116h-319v-214h330v-115h-386q-11 0 -23.5 7t-23.5 17.5t-18 23t-7 23.5v618q0 13 7.5 26.5t19.5 23.5t26 16.5t27 6.5h378z" />
    <glyph glyph-name="FL00ECh" unicode="&#xec;" horiz-adv-x="279" 
d="M117 779h-86v-795h6l37 -37h155v789l-12 11q10 4 20 14l4 3q17 17 23.5 34.5t6.5 34.5q0 31 -17 48l-17 17l-14 14q-3 5 -6.5 9t-7.5 9v-1l-71 76q-21 21 -54 21q-34 0 -63 -29l-6 -8v-1q-23 -25 -23 -60q0 -36 20 -53l82 -76q2 -3 11 -10zM193 814l-4 -3
q-11 -11 -22 -13t-23 -2q-27 0 -40 16l-81 75q-15 13 -15 41q0 31 21 52l8 11q19 19 47 19q27 0 43 -16l76 -81q15 -14 15 -40q0 -14 -5.5 -29.5t-19.5 -29.5zM47 763h129v-763h-129v763z" />
    <glyph glyph-name="FL00EDh" unicode="&#xed;" horiz-adv-x="279" 
d="M33 814l4 -3q11 -11 22 -13t23 -2q27 0 40 16l81 75q15 13 15 41q0 31 -21 52l-8 11q-19 19 -47 19q-27 0 -43 -16l-76 -81q-15 -14 -15 -40q0 -14 5.5 -29.5t19.5 -29.5zM179 763h-129v-763h129v763zM23 802l-1 1q-17 17 -23.5 35t-6.5 35q0 33 25 57v-1l71 76
q21 21 54 21q34 0 63 -29l6 -8l-1 -1q2 -3 5 -5l28 -28l5 -7l-2 1q25 -25 25 -61q0 -33 -19 -51l-63 -58h6v-6l37 -37v-789h-155l-37 37h-6v795h16l-8 8q-8 4 -15 12z" />
    <glyph glyph-name="FL00EEh" unicode="&#xee;" horiz-adv-x="279" 
d="M139 815l13 -30h5l6 -6h-39zM-28 785l37 -37h25v-764h6l37 -37h155v789l-12 12h75l-83 233l-35 35l-3 8h-120l-89 -239h7zM237 801h-74l-50 122l-50 -122h-75l77 207h98zM179 0h-129v763h129v-763z" />
    <glyph glyph-name="FL00EFh" unicode="&#xef;" horiz-adv-x="279" 
d="M129 895l-9 12l-23 23q-11 17 -29 30t-39 13l-13 -1q-18 0 -33.5 -8.5t-27.5 -21t-19 -28t-7 -29.5q0 -22 11.5 -44t33.5 -34l24 -24q13 -15 36 -21v-778h6l37 -37h155v789l-37 37v6h-83q29 23 34 53q13 -18 27 -25l25 -24q10 -10 23.5 -16t30.5 -6h5q22 0 39 8.5
t28.5 21t17.5 27t6 27.5q0 16 -7.5 32.5t-20.5 29.5l-23 23q-11 17 -29 30t-39 13l-13 -1q-17 0 -31.5 -7t-26 -18t-19.5 -25t-10 -27zM217 814h-5q-16 0 -28.5 6.5t-21 17t-13 23t-4.5 24.5t6 24.5t15.5 23t22.5 17t28 6.5l13 1q13 0 25 -7t21 -17.5t14 -23t5 -24.5
q0 -11 -5 -23.5t-15 -23t-24.5 -17.5t-33.5 -7zM17 814h-5q-16 0 -28.5 6.5t-21 17t-13 23t-4.5 24.5t6 24.5t15.5 23t22.5 17t28 6.5l13 1q13 0 25 -7t21 -17.5t14 -23t5 -24.5q0 -11 -5 -23.5t-15 -23t-24.5 -17.5t-33.5 -7zM179 0h-129v763h129v-763z" />
    <glyph glyph-name="FL00F0h" unicode="&#xf0;" horiz-adv-x="700" 
d="M231 132v144h129v-144h-129zM265 591v-124h6l7 -7h-155q-13 0 -28.5 -9t-29 -22.5t-22.5 -29t-9 -28.5v-300q0 -19 14 -38t34 -32l21 -21q14 -14 32 -23.5t32 -9.5h313q34 13 56.5 38t22.5 63v382h94v142l-37 37v6h-56v17q0 20 -9 39t-24 34l-20 20q-14 21 -35 36t-46 15
h-392v-148h6l37 -37h188zM376 329h-198v-213h198v213zM281 483v116h95v45h-326v116h376q16 0 31 -8t26 -20.5t17.5 -28.5t6.5 -31v-73h93v-116h-94v-395q0 -33 -19.5 -55t-48.5 -33h-311q-11 0 -24.5 6.5t-25 16.5t-19.5 23t-8 25v300q0 10 7.5 23t18.5 24t23.5 18.5
t23.5 7.5h254v39h-96z" />
    <glyph glyph-name="FL00F1h" unicode="&#xf1;" horiz-adv-x="647" 
d="M262 921l50 -125h98l77 207h-75l-50 -122l-50 125h-98l-77 -207h75zM179 763h-129v-763h129v511l239 -511h129v763h-129v-506zM34 779h91l-4 4h-7l89 239h120l3 -9l35 -34l11 -30l29 70h109l-2 -5l38 -38l-74 -197h91v-6l37 -37v-789h-151l-37 37h-5l-175 375v-412h-155
l-37 37h-6v795zM301 780l-13 33l-27 -67h-43l10 -10l174 -369v376h-59l-37 37h-5z" />
    <glyph glyph-name="FL00F2h" unicode="&#xf2;" horiz-adv-x="677" 
d="M233 133v460h201v-460h-201zM158 -51l1 -1l1 -1h386q13 0 27.5 8.5t27 21t21 27t8.5 27.5v620q0 13 -7.5 26t-18.5 24l-21 20q-14 22 -39.5 39.5t-46.5 17.5h-44q10 14 14 27.5t4 27.5q0 31 -17 48l-17 17l-14 14q-3 5 -6.5 9t-7.5 9v-1l-71 76q-21 21 -54 21
q-34 0 -63 -29l-6 -8v-1q-23 -25 -23 -60q0 -36 20 -53l82 -76q2 -3 11 -10l13 -11h-188q-17 0 -34.5 -8.5t-31 -22t-22 -31t-8.5 -34.5v-600q0 -25 13.5 -48.5t35.5 -37.5l24 -23q18 -18 43 -24h8zM393 814l-4 -3q-11 -11 -22 -13t-23 -2q-27 0 -40 16l-81 75
q-15 13 -15 41q0 31 21 52l8 11q19 19 47 19q27 0 43 -16l76 -81q15 -14 15 -40q0 -14 -5.5 -29.5t-19.5 -29.5zM113 2q-26 6 -44.5 30t-18.5 50v600q0 15 7 29t18.5 25.5t25.5 18.5t29 7h367q12 0 26 -6.5t26 -16.5t20 -23t8 -25v-620q0 -11 -7 -23.5t-17.5 -23t-23 -17.5
t-23.5 -7h-382q-1 0 -5 1t-6 1zM180 646v-529h270v529h-270z" />
    <glyph glyph-name="FL00F3h" unicode="&#xf3;" horiz-adv-x="677" 
d="M233 814l4 -3q11 -11 22 -13t23 -2q27 0 40 16l81 75q15 13 15 41q0 31 -21 52l-8 11q-19 19 -47 19q-27 0 -43 -16l-76 -81q-15 -14 -15 -40q0 -14 5.5 -29.5t19.5 -29.5zM513 2q26 6 44.5 30t18.5 50v600q0 15 -7 29t-18.5 25.5t-25.5 18.5t-29 7h-367q-12 0 -26 -6.5
t-26 -16.5t-20 -23t-8 -25v-620q0 -11 7 -23.5t17.5 -23t23 -17.5t23.5 -7h382q1 0 5 1t6 1zM446 646v-529h-270v529h270zM223 802l-1 1q-17 17 -23.5 35t-6.5 35q0 33 25 57v-1l71 76q21 21 54 21q34 0 63 -29l6 -8l-1 -1l33 -33l5 -7l-2 1q25 -25 25 -61q0 -33 -19 -51
l-64 -59h108q23 0 45.5 -15t36.5 -38l21 -20q30 -30 30 -63v-600q0 -15 -5.5 -30t-15.5 -28t-23.5 -22.5t-28.5 -12.5h-3q-5 0 -6 -1l-1 -1h-386q-13 0 -27.5 8t-27.5 21l-22 22q-20 14 -35 34.5t-15 38.5v620q0 15 9.5 30.5t24 28t31.5 20.5t31 8h122l-10 10q-8 4 -15 12z
M229 593v-460h201v460h-201z" />
    <glyph glyph-name="FL00F4h" unicode="&#xf4;" horiz-adv-x="677" 
d="M338 812l13 -30h5l4 -4h-36zM233 133v460h201v-460h-201zM158 -51l1 -1l1 -1h386q13 0 27.5 8.5t27 21t21 27t8.5 27.5v620q0 13 -7.5 26t-18.5 24l-21 20q-14 22 -39.5 39.5t-46.5 17.5h-15l-71 200l-35 35l-3 8h-120l-89 -239h7l4 -4h-45q-17 0 -34.5 -8.5t-31 -22
t-22 -31t-8.5 -34.5v-600q0 -25 13.5 -48.5t35.5 -37.5l24 -23q18 -18 43 -24h8zM436 798h-74l-50 122l-50 -122h-75l77 207h98zM113 2q-26 6 -44.5 30t-18.5 50v600q0 15 7 29t18.5 25.5t25.5 18.5t29 7h367q12 0 26 -6.5t26 -16.5t20 -23t8 -25v-620q0 -11 -7 -23.5
t-17.5 -23t-23 -17.5t-23.5 -7h-382q-1 0 -5 1t-6 1zM180 646v-529h270v529h-270z" />
    <glyph glyph-name="FL00F5h" unicode="&#xf5;" horiz-adv-x="677" 
d="M274 921l50 -125h98l77 207h-75l-50 -122l-50 125h-98l-77 -207h75zM450 117h-270v529h270v-529zM113 2q2 0 6 -1t5 -1h382q11 0 23.5 7t23 17.5t17.5 23t7 23.5v620q0 12 -8 25t-20 23t-26 16.5t-26 6.5h-367q-15 0 -29 -7t-25.5 -18.5t-18.5 -25.5t-7 -29v-600
q0 -26 18.5 -50t44.5 -30zM160 -53l-1 1l-1 1h-8q-25 6 -43 24l-24 23q-22 14 -35.5 37.5t-13.5 48.5v600q0 17 8.5 34.5t22 31t31 22t34.5 8.5h8l-5 5h-7l89 239h120l3 -9l35 -34l11 -30l29 70h109l-2 -5l38 -38l-74 -198h13q21 0 46.5 -17.5t39.5 -39.5l21 -20
q11 -11 18.5 -24t7.5 -26v-620q0 -13 -8.5 -27.5t-21 -27t-27 -21t-27.5 -8.5h-386zM233 593v-460h201v460h-201zM313 780l-13 32l-14 -34h34l-2 2h-5z" />
    <glyph glyph-name="FL00F6h" unicode="&#xf6;" horiz-adv-x="677" 
d="M367 808l25 -24q2 -5 5 -6h-93q15 11 24 25.5t12 29.5q13 -18 27 -25zM233 133v460h201v-460h-201zM160 -53h386q13 0 27.5 8.5t27 21t21 27t8.5 27.5v620q0 13 -7.5 26t-18.5 24l-21 20q-13 21 -36 37.5t-44 18.5q19 14 29 33t10 36q0 16 -7.5 32.5t-20.5 29.5l-23 23
q-11 17 -29 30t-39 13l-13 -1q-17 0 -31.5 -7t-26 -18t-19.5 -25t-10 -27l-9 12l-23 23q-11 17 -29 30t-39 13l-13 -1q-18 0 -34 -8.5t-27.5 -21t-18.5 -28t-7 -29.5q0 -22 11 -44t33 -34l25 -24q2 -5 5 -6h-67q-17 0 -34.5 -8.5t-31 -22t-22 -31t-8.5 -34.5v-600
q0 -25 13.5 -48.5t35.5 -37.5l24 -23q18 -18 43 -24h8l1 -1zM411 815h-5q-16 0 -28.5 6.5t-21 17t-13 23t-4.5 24.5t6 24.5t15.5 23t22.5 17t28 6.5l13 1q13 0 25 -7t21 -17.5t14 -23t5 -24.5q0 -11 -5 -23.5t-15 -23t-24.5 -17.5t-33.5 -7zM211 815h-5q-16 0 -28.5 6.5
t-21 17t-13 23t-4.5 24.5t6 24.5t15.5 23t22.5 17t28 6.5l13 1q13 0 25 -7t21 -17.5t14 -23t5 -24.5q0 -11 -5 -23.5t-15 -23t-24.5 -17.5t-33.5 -7zM113 2q-26 6 -44.5 30t-18.5 50v600q0 15 7 29t18.5 25.5t25.5 18.5t29 7h367q12 0 26 -6.5t26 -16.5t20 -23t8 -25v-620
q0 -11 -7 -23.5t-17.5 -23t-23 -17.5t-23.5 -7h-382q-1 0 -5 1t-6 1zM180 646v-529h270v529h-270z" />
    <glyph glyph-name="FL00F7h" unicode="&#xf7;" horiz-adv-x="651" 
d="M40 313l37 -37h153q-13 -19 -13 -43q0 -22 11 -44t33 -34l25 -24q10 -10 23.5 -16t30.5 -6h5q22 0 39 8.5t28.5 21t17.5 27t6 27.5q0 16 -7.5 32.5t-20.5 29.5l-21 21h217v143l-37 37v6h-139q4 8 6.5 16.5t2.5 16.5q0 16 -7 32.5t-20 29.5l-24 24q-11 17 -28.5 29.5
t-38.5 12.5h-13q-18 0 -34 -8t-28 -21t-19 -28.5t-7 -30.5q0 -20 9.5 -40t27.5 -33h-221v-149h6zM306 464h-5q-16 0 -28.5 6.5t-21 17t-13 23t-4.5 24.5t6 25t15.5 23.5t22.5 17t28 6.5h13q13 0 25 -6.5t21 -17t14 -23.5t5 -25q0 -11 -5 -23.5t-15 -23t-24.5 -17.5t-33.5 -7
zM305 162h-5q-16 0 -28.5 6.5t-21 17t-13 23t-4.5 24.5t6 24.5t15.5 23t22.5 17t28 6.5l13 1q13 0 25 -7t21 -17.5t14 -23t5 -24.5q0 -11 -5 -23.5t-15 -23t-24.5 -17.5t-33.5 -7zM551 329h-501v117h501v-117z" />
    <glyph glyph-name="FL00F8h" unicode="&#xf8;" horiz-adv-x="677" 
d="M180 646h194l-194 -371v371zM222 117l228 433v-433h-228zM113 2q2 0 6 -1t5 -1h382q11 0 23.5 7t23 17.5t17.5 23t7 23.5v620q0 12 -8 25t-20 23t-26 16.5t-26 6.5h-367q-15 0 -29 -7t-25.5 -18.5t-18.5 -25.5t-7 -29v-600q0 -26 18.5 -50t44.5 -30zM160 -53l-1 1l-1 1
h-8q-25 6 -43 24l-24 23q-22 14 -35.5 37.5t-13.5 48.5v600q0 17 8.5 34.5t22 31t31 22t34.5 8.5h367q21 0 46.5 -17.5t39.5 -39.5l21 -20q11 -11 18.5 -24t7.5 -26v-620q0 -13 -8.5 -27.5t-21 -27t-27 -21t-27.5 -8.5h-386zM306 133h128v241zM233 593v-181l94 181h-94z" />
    <glyph glyph-name="FL00F9h" unicode="&#xf9;" horiz-adv-x="675" 
d="M398 802l3 2q17 17 23.5 34.5t6.5 34.5q0 23 -11 40l-8 9l-47 50q-20 11 -41 11q-33 0 -61 -28l-4 -5l1 -1q-25 -25 -25 -61q0 -24 9 -39l51 -47l-1 2l3 -3q18 -18 47 -18q14 0 27 2.5t27 16.5zM192 779h-158v-702q0 -24 14 -45t35 -34l21 -21q10 -10 21.5 -16.5
t23.5 -11.5h6l1 -1l1 -1h387q13 0 27.5 8.5t27 21t21 27t8.5 27.5v705l-37 37v6h-138q10 14 14 27.5t4 26.5q0 31 -17 48l-17 17l-14 14q-3 5 -6.5 9t-7.5 9v-1l-71 76q-21 21 -54 21q-34 0 -63 -29l-6 -8v-1q-23 -25 -23 -60q0 -36 20 -53l82 -76q19 -19 50 -19
q14 0 27 2.5t28 16.5l4 3q18 18 24.5 36t6.5 35q0 22 -11 39l-47 51l-40 40q-20 20 -52 20q-33 0 -61 -28l-5 -7v-1q-23 -23 -23 -59q0 -33 19 -51l40 -40l50 -47l31 -28l-1 2l3 -3q18 -18 47 -18q12 0 23 1.5t23 9.5v-621h-201v603l-37 37v6zM393 814l-4 -3
q-11 -11 -22 -13t-23 -2q-27 0 -40 16l-81 75q-15 13 -15 41q0 31 21 52l8 11q19 19 47 19q27 0 43 -16l76 -81q15 -14 15 -40q0 -14 -5.5 -29.5t-19.5 -29.5zM50 763h126v-646h270v646h129v-692q0 -11 -7 -23.5t-17.5 -23t-23 -17.5t-23.5 -7h-383q-1 0 -5 1t-6 1
q-24 8 -42 29t-18 46v686z" />
    <glyph glyph-name="FL00FAh" unicode="&#xfa;" horiz-adv-x="675" 
d="M233 814l4 -3q11 -11 22 -13t23 -2q27 0 40 16l81 75q15 13 15 41q0 31 -21 52l-8 11q-19 19 -47 19q-27 0 -43 -16l-76 -81q-15 -14 -15 -40q0 -14 5.5 -29.5t19.5 -29.5zM176 763h-126v-686q0 -25 18 -46t42 -29q2 0 6 -1t5 -1h383q11 0 23.5 7t23 17.5t17.5 23t7 23.5
v692h-129v-646h-270v646zM156 -52l-1 1h-6q-12 5 -23.5 11.5t-21.5 16.5l-21 21q-21 13 -35 34t-14 45v702h158v-6l37 -37v-603h201v646h161v-6l37 -37v-705q0 -13 -8.5 -27.5t-21 -27t-27 -21t-27.5 -8.5h-387zM223 802l-1 1q-17 17 -23.5 35t-6.5 35q0 33 25 57v-1l71 76
q21 21 54 21q34 0 63 -29l6 -8l-1 -1l30 -31l-3 3l6 -5l5 -7l-2 1q25 -25 25 -61q0 -33 -19 -51l-81 -75h-1q-18 -19 -48 -19q-14 0 -26.5 2t-26.5 16l-4 3l-24 24q-8 4 -15 12z" />
    <glyph glyph-name="FL00FBh" unicode="&#xfb;" horiz-adv-x="675" 
d="M220 745h91l27 67l13 -30h5l37 -37h37v-612h-201v603zM155 -51l1 -1l1 -1h387q13 0 27.5 8.5t27 21t21 27t8.5 27.5v705l-37 37v6h-109l-71 199l-35 35l-3 8h-120l-89 -239h7l3 -3h-140v-702q0 -24 14 -45t35 -34l21 -21q10 -10 21.5 -16.5t23.5 -11.5h6zM436 798h-74
l-50 122l-50 -122h-75l77 207h98zM50 763h126v-646h270v646h129v-692q0 -11 -7 -23.5t-17.5 -23t-23 -17.5t-23.5 -7h-383q-1 0 -5 1t-6 1q-24 8 -42 29t-18 46v686z" />
    <glyph glyph-name="FL00FCh" unicode="&#xfc;" horiz-adv-x="675" 
d="M192 779h-158v-702q0 -24 14 -45t35 -34l21 -21q10 -10 21.5 -16.5t23.5 -11.5h6l1 -1l1 -1h387q13 0 27.5 8.5t27 21t21 27t8.5 27.5v705l-37 37v6h-87q18 13 28 31.5t10 35.5q0 16 -7.5 32.5t-20.5 29.5l-23 23q-11 17 -29 30t-39 13l-13 -1q-17 0 -31.5 -7t-26 -18
t-19.5 -25t-10 -27l-9 12l-23 23q-11 17 -29 30t-39 13l-13 -1q-18 0 -34 -8.5t-27.5 -21t-18.5 -28t-7 -29.5q0 -22 11 -44t33 -34l25 -24q10 -10 23.5 -16t30.5 -6h5q19 0 34.5 6.5t27 16.5t18.5 23t9 25q13 -18 27 -25l25 -24q14 -17 38 -21v-630h-201v603l-37 37v6z
M411 815h-5q-16 0 -28.5 6.5t-21 17t-13 23t-4.5 24.5t6 24.5t15.5 23t22.5 17t28 6.5l13 1q13 0 25 -7t21 -17.5t14 -23t5 -24.5q0 -11 -5 -23.5t-15 -23t-24.5 -17.5t-33.5 -7zM211 815h-5q-16 0 -28.5 6.5t-21 17t-13 23t-4.5 24.5t6 24.5t15.5 23t22.5 17t28 6.5l13 1
q13 0 25 -7t21 -17.5t14 -23t5 -24.5q0 -11 -5 -23.5t-15 -23t-24.5 -17.5t-33.5 -7zM50 763h126v-646h270v646h129v-692q0 -11 -7 -23.5t-17.5 -23t-23 -17.5t-23.5 -7h-383q-1 0 -5 1t-6 1q-24 8 -42 29t-18 46v686z" />
    <glyph glyph-name="FL00FDh" unicode="&#xfd;" horiz-adv-x="647" 
d="M233 814l4 -3q11 -11 22 -13t23 -2q27 0 40 16l81 75q15 13 15 41q0 31 -21 52l-8 11q-19 19 -47 19q-27 0 -43 -16l-76 -81q-15 -14 -15 -40q0 -14 5.5 -29.5t19.5 -29.5zM420 115h-339v-115h395q11 0 23.5 7t23 18t17.5 24t7 25v689h-129v-325h-242v324h-126v-369
q0 -14 8 -27t20.5 -23.5t27 -17t27.5 -6.5h287v-204zM65 131h339v135h-231q-17 0 -36 9.5t-34 24.5l-22 21q-20 14 -33.5 33t-13.5 39v385h158v-6l37 -37v-281h173v325h161v-6l37 -37v-702q0 -14 -8.5 -29.5t-21 -28.5t-27 -21t-27.5 -8h-408l-37 37h-6v147zM223 802l-1 1
q-17 17 -23.5 35t-6.5 35q0 33 25 57v-1l71 76q21 21 54 21q34 0 63 -29l6 -8l-1 -1l30 -31l-3 3l6 -5l5 -7l-2 1q25 -25 25 -61q0 -33 -19 -51l-81 -75h-1q-18 -19 -48 -19q-14 0 -26.5 2t-26.5 16l-4 3l-23 23q-8 4 -15 12l-1 1z" />
    <glyph glyph-name="FL00FEh" unicode="&#xfe;" horiz-adv-x="662" 
d="M232 303v132h187v-132h-187zM232 620v116l-37 37v6h-161v-795h6l37 -37h155v174h299q12 0 27 9t27.5 22t21 28t8.5 28v285q0 13 -7.5 26t-18.5 24l-21 20q-7 12 -17.5 22t-22 18t-23 12.5t-20.5 4.5h-253zM435 488h-256v-201h256v201zM179 0h-129v763h129v-159h306
q10 0 23.5 -6.5t25.5 -16.5t20 -23t8 -25v-285q0 -11 -7 -24t-18 -24t-23.5 -18.5t-22.5 -7.5h-312v-174z" />
    <glyph glyph-name="FL00FFh" unicode="&#xff;" horiz-adv-x="647" 
d="M231 765h5q19 0 34.5 6.5t27 16.5t18.5 23t9 25q13 -18 27 -25l25 -24q10 -12 25 -17v-316h-173v281l-37 37v3q17 -10 39 -10zM404 131h-339v-147h6l37 -37h408q13 0 27.5 8t27 21t21 28.5t8.5 29.5v702l-37 37v6h-78q21 13 31.5 33t10.5 37q0 16 -7.5 32.5t-20.5 29.5
l-23 23q-11 17 -29 30t-39 13l-13 -1q-17 0 -31.5 -7t-26 -18t-19.5 -25t-10 -27l-9 12l-23 23q-11 17 -29 30t-39 13l-13 -1q-18 0 -34 -8.5t-27.5 -21t-18.5 -28t-7 -29.5q0 -22 11 -44t33 -34l25 -24q3 -5 10 -9h-153v-385q0 -20 13.5 -39t33.5 -33l22 -21
q15 -15 34 -24.5t36 -9.5h231v-135zM396 818h-5q-16 0 -28.5 6.5t-21 17t-13 23t-4.5 24.5t6 24.5t15.5 23t22.5 17t28 6.5l13 1q13 0 25 -7t21 -17.5t14 -23t5 -24.5q0 -11 -5 -23.5t-15 -23t-24.5 -17.5t-33.5 -7zM196 818h-5q-16 0 -28.5 6.5t-21 17t-13 23t-4.5 24.5
t6 24.5t15.5 23t22.5 17t28 6.5l13 1q13 0 25 -7t21 -17.5t14 -23t5 -24.5q0 -11 -5 -23.5t-15 -23t-24.5 -17.5t-33.5 -7zM81 115h339v204h-287q-13 0 -27.5 6.5t-27 17t-20.5 23.5t-8 27v369h126v-324h242v325h129v-689q0 -12 -7 -25t-17.5 -24t-23 -18t-23.5 -7h-395v115
z" />
    <glyph glyph-name="FL0152h" unicode="&#x152;" horiz-adv-x="938" 
d="M180 115v531h200v-531h-200zM838 646v116h-708q-17 0 -31.5 -8t-25 -20.5t-17 -28.5t-6.5 -31v-586q0 -29 16 -50.5t42 -33.5q2 -2 7 -3t7 -1h716v115h-330v214h319v116h-319v201h330zM854 778v-6l37 -37v-142h-330v-132h282v-6l37 -37v-142h-319v-145h293v-6l37 -37
v-141h-729q-10 0 -20 6q-11 5 -19.5 10.5t-16.5 13.5l-23 23q-23 14 -36 36.5t-13 51.5v586q0 18 7.5 36.5t20.5 33.5t30.5 24.5t37.5 9.5h724zM233 593v-462h131v462h-131z" />
    <glyph glyph-name="FL0153h" unicode="&#x153;" horiz-adv-x="938" 
d="M180 115v531h200v-531h-200zM838 646v116h-708q-17 0 -31.5 -8t-25 -20.5t-17 -28.5t-6.5 -31v-586q0 -29 16 -50.5t42 -33.5q2 -2 7 -3t7 -1h716v115h-330v214h319v116h-319v201h330zM854 778v-6l37 -37v-142h-330v-132h282v-6l37 -37v-142h-319v-145h293v-6l37 -37
v-141h-729q-10 0 -20 6q-11 5 -19.5 10.5t-16.5 13.5l-23 23q-23 14 -36 36.5t-13 51.5v586q0 18 7.5 36.5t20.5 33.5t30.5 24.5t37.5 9.5h724zM233 593v-462h131v462h-131z" />
    <glyph glyph-name="FL0160h" unicode="&#x160;" horiz-adv-x="663" 
d="M34 132v-148h6l37 -37h448q12 0 28 7.5t29.5 19.5t23 27t9.5 30v302q0 13 -8.5 27t-21.5 27l-19 19q-14 21 -36.5 38t-40.5 17h-256v132h383v142l-37 37v6h-159l72 199l-38 38l2 5h-108l-29 -71l-11 28l-35 34l-3 9h-113l93 -239h5l3 -3h-130q-13 0 -29 -8t-30.5 -20.5
t-24 -28t-9.5 -30.5v-285q0 -19 16.5 -40.5t36.5 -35.5l20 -19q14 -14 28.5 -22.5t27.5 -8.5h253v-148h-383zM181 1004h78l51 -122l49 122h75l-75 -207h-98zM50 0v116h383v217h-309q-11 0 -23.5 7t-23.5 18t-18.5 24t-7.5 24v285q0 12 8 25t19.5 23t25 16.5t24.5 6.5h435
v-116h-383v-201h309q10 0 23 -7t24 -18t18.5 -23.5t7.5 -23.5v-302q0 -12 -8 -25t-20 -23t-25.5 -16.5t-23.5 -6.5h-435z" />
    <glyph glyph-name="FL0161h" unicode="&#x161;" horiz-adv-x="663" 
d="M34 132v-148h6l37 -37h448q12 0 28 7.5t29.5 19.5t23 27t9.5 30v302q0 13 -8.5 27t-21.5 27l-19 19q-14 21 -36.5 38t-40.5 17h-256v132h383v142l-37 37v6h-159l72 199l-38 38l2 5h-108l-29 -71l-11 28l-35 34l-3 9l-116 -1l96 -238h5l3 -3h-130q-13 0 -29 -8
t-30.5 -20.5t-24 -28t-9.5 -30.5v-285q0 -19 16.5 -40.5t36.5 -35.5l20 -19q14 -14 28.5 -22.5t27.5 -8.5h253v-148h-383zM178 1003l81 1l51 -122l49 122h75l-75 -207h-98zM50 0v116h383v217h-309q-11 0 -23.5 7t-23.5 18t-18.5 24t-7.5 24v285q0 12 8 25t19.5 23t25 16.5
t24.5 6.5h435v-116h-383v-201h309q10 0 23 -7t24 -18t18.5 -23.5t7.5 -23.5v-302q0 -12 -8 -25t-20 -23t-25.5 -16.5t-23.5 -6.5h-435z" />
    <glyph glyph-name="FL0178h" unicode="&#x178;" horiz-adv-x="647" 
d="M231 765h5q19 0 34.5 6.5t27 16.5t18.5 23t9 25q13 -18 27 -25l25 -24q10 -12 25 -17v-316h-173v281l-37 37v3q17 -10 39 -10zM404 131h-339v-147h6l37 -37h408q13 0 27.5 8t27 21t21 28.5t8.5 29.5v702l-37 37v6h-78q21 13 31.5 33t10.5 37q0 16 -7.5 32.5t-20.5 29.5
l-23 23q-11 17 -29 30t-39 13l-13 -1q-17 0 -31.5 -7t-26 -18t-19.5 -25t-10 -27l-9 12l-23 23q-11 17 -29 30t-39 13l-13 -1q-18 0 -34 -8.5t-27.5 -21t-18.5 -28t-7 -29.5q0 -22 11 -44t33 -34l25 -24q3 -5 10 -9h-153v-385q0 -20 13.5 -39t33.5 -33l22 -21
q15 -15 34 -24.5t36 -9.5h231v-135zM396 818h-5q-16 0 -28.5 6.5t-21 17t-13 23t-4.5 24.5t6 24.5t15.5 23t22.5 17t28 6.5l13 1q13 0 25 -7t21 -17.5t14 -23t5 -24.5q0 -11 -5 -23.5t-15 -23t-24.5 -17.5t-33.5 -7zM196 818h-5q-16 0 -28.5 6.5t-21 17t-13 23t-4.5 24.5
t6 24.5t15.5 23t22.5 17t28 6.5l13 1q13 0 25 -7t21 -17.5t14 -23t5 -24.5q0 -11 -5 -23.5t-15 -23t-24.5 -17.5t-33.5 -7zM81 115h339v204h-287q-13 0 -27.5 6.5t-27 17t-20.5 23.5t-8 27v369h126v-324h242v325h129v-689q0 -12 -7 -25t-17.5 -24t-23 -18t-23.5 -7h-395v115
z" />
    <glyph glyph-name="FL017Dh" unicode="&#x17d;" horiz-adv-x="607" 
d="M34 122v-138h6l37 -37h482v142l-37 37v6h-250l288 470v133l-37 37v6h-119l72 200l-38 38l2 5h-108l-29 -71l-11 28l-35 34l-3 9h-118l98 -239h5l4 -4h-208v-148h6l37 -37h247zM160 1005h83l51 -122l49 122h75l-75 -207h-98zM50 0v116l328 530h-327v116h456v-116
l-325 -530h324v-116h-456z" />
    <glyph glyph-name="FL017Eh" unicode="&#x17e;" horiz-adv-x="607" 
d="M34 122v-138h6l37 -37h482v142l-37 37v6h-250l288 470v133l-37 37v6h-119l72 200l-38 38l2 5h-108l-29 -71l-11 28l-35 34l-3 9h-118l98 -239h5l4 -4h-208v-148h6l37 -37h247zM160 1005h83l51 -122l49 122h75l-75 -207h-98zM50 0v116l328 530h-327v116h456v-116
l-325 -530h324v-116h-456z" />
    <glyph glyph-name="FL02C6h" unicode="&#x2c6;" horiz-adv-x="399" 
d="M34 539l37 -37h103l27 67l13 -30h5l37 -37h101l-83 233l-35 35l-3 8h-120l-89 -239h7zM299 555h-74l-50 122l-50 -122h-75l77 207h98z" />
    <glyph glyph-name="FL02DCh" unicode="&#x2dc;" horiz-adv-x="500" 
d="M175 680l50 -125h98l77 207h-75l-50 -122l-50 125h-98l-77 -207h75zM214 539l-13 33l-27 -67h-103l-37 37h-7l89 239h120l3 -9l35 -34l11 -30l29 70h109l-2 -5l38 -38l-87 -233h-116l-37 37h-5z" />
    <glyph glyph-name="FL2013h" unicode="&#x2013;" horiz-adv-x="469" 
d="M369 445h-319v-116h319v116zM34 461h351v-6l37 -37v-142h-345l-37 37h-6v148z" />
    <glyph glyph-name="FL2014h" unicode="&#x2014;" horiz-adv-x="651" 
d="M551 446h-501v-117h501v117zM34 462h533v-6l37 -37v-143h-527l-37 37h-6v149z" />
    <glyph glyph-name="FL2018h" unicode="&#x2018;" horiz-adv-x="299" 
d="M78 461l24 -23q21 -23 55 -23h4q22 0 39 8.5t28.5 21t17.5 27t6 27.5v154q0 16 -7 32t-20 28l-23 22q-11 18 -28.5 31t-39.5 13l-13 -1q-18 0 -34 -8.5t-27.5 -21t-18.5 -28t-7 -29.5v-154q0 -21 11 -42.5t33 -33.5zM121 468h-4q-16 0 -28.5 6.5t-21 16.5t-13 22t-4.5 24
v154q0 12 6 25t15.5 23t22.5 16.5t28 6.5l13 1q13 0 25 -6.5t20.5 -16.5t13.5 -22.5t5 -24.5v-154q0 -11 -5 -23.5t-15 -23t-24.5 -17.5t-33.5 -7z" />
    <glyph glyph-name="FL2019h" unicode="&#x2019;" horiz-adv-x="299" 
d="M78 461l24 -23q21 -23 55 -23h4q22 0 39 8.5t28.5 21t17.5 27t6 27.5v154q0 16 -7 32t-20 28l-23 22q-11 18 -28.5 31t-39.5 13l-13 -1q-18 0 -34 -8.5t-27.5 -21t-18.5 -28t-7 -29.5v-154q0 -21 11 -42.5t33 -33.5zM121 468h-4q-16 0 -28.5 6.5t-21 16.5t-13 22t-4.5 24
v154q0 12 6 25t15.5 23t22.5 16.5t28 6.5l13 1q13 0 25 -6.5t20.5 -16.5t13.5 -22.5t5 -24.5v-154q0 -11 -5 -23.5t-15 -23t-24.5 -17.5t-33.5 -7z" />
    <glyph glyph-name="FL201Ah" unicode="&#x201a;" horiz-adv-x="299" 
d="M78 -158l24 -24q21 -23 55 -23h4q22 0 39 8.5t28.5 21t17.5 27t6 27.5v154q0 16 -7 32t-20 28l-23 22q-11 18 -28.5 31t-39.5 13l-13 -1q-18 0 -34 -8.5t-27.5 -21t-18.5 -28t-7 -29.5v-154q0 -20 11 -42t33 -33zM121 -152h-4q-16 0 -28.5 6.5t-21 16.5t-13 22t-4.5 24
v154q0 12 6 24.5t15.5 23t22.5 17t28 6.5l13 1q13 0 25 -6.5t20.5 -16.5t13.5 -22.5t5 -24.5v-154q0 -11 -5 -23.5t-15 -23t-24.5 -17.5t-33.5 -7z" />
    <glyph glyph-name="FL201Ch" unicode="&#x201c;" horiz-adv-x="496" 
d="M225 714l-23 22q-11 18 -28.5 31t-39.5 13l-13 -1q-18 0 -34 -8.5t-27.5 -21t-18.5 -28t-7 -29.5v-154q0 -21 11 -42.5t33 -33.5l24 -23q21 -23 55 -23h4q38 0 60.5 21.5t27.5 45.5q5 -6 11 -11.5t14 -10.5l24 -23q21 -23 55 -23h4q22 0 39.5 8.5t29 21t17.5 27t6 27.5
v154q0 16 -7 32t-20 28l-23 23q-11 18 -29 30.5t-39 12.5l-14 -1q-16 0 -30 -6.5t-25.5 -16.5t-19 -23t-10.5 -26q-6 6 -7 8zM121 469h-4q-16 0 -28.5 6.5t-21 16.5t-13 22t-4.5 24v154q0 12 6 24.5t15.5 23t22.5 17t28 6.5l13 1q13 0 25 -6.5t20.5 -16.5t13.5 -22.5
t5 -24.5v-154q0 -11 -5 -23.5t-15 -23t-24.5 -17.5t-33.5 -7zM317 468h-4q-16 0 -28.5 6.5t-21 16.5t-13 22t-4.5 24v154q0 12 6 25t15.5 23t22.5 16.5t28 6.5l14 1q13 0 24.5 -6.5t20.5 -16.5t14 -22.5t5 -24.5v-154q0 -11 -5 -23.5t-15 -23t-25 -17.5t-34 -7z" />
    <glyph glyph-name="FL201Dh" unicode="&#x201d;" horiz-adv-x="496" 
d="M225 714l-23 22q-11 18 -28.5 31t-39.5 13l-13 -1q-18 0 -34 -8.5t-27.5 -21t-18.5 -28t-7 -29.5v-154q0 -21 11 -42.5t33 -33.5l24 -23q21 -23 55 -23h4q38 0 60.5 21.5t27.5 45.5q5 -6 11 -11.5t14 -10.5l24 -23q21 -23 55 -23h4q22 0 39.5 8.5t29 21t17.5 27t6 27.5
v154q0 16 -7 32t-20 28l-23 23q-11 18 -29 30.5t-39 12.5l-14 -1q-16 0 -30 -6.5t-25.5 -16.5t-19 -23t-10.5 -26q-6 6 -7 8zM121 469h-4q-16 0 -28.5 6.5t-21 16.5t-13 22t-4.5 24v154q0 12 6 24.5t15.5 23t22.5 17t28 6.5l13 1q13 0 25 -6.5t20.5 -16.5t13.5 -22.5
t5 -24.5v-154q0 -11 -5 -23.5t-15 -23t-24.5 -17.5t-33.5 -7zM317 468h-4q-16 0 -28.5 6.5t-21 16.5t-13 22t-4.5 24v154q0 12 6 25t15.5 23t22.5 16.5t28 6.5l14 1q13 0 24.5 -6.5t20.5 -16.5t14 -22.5t5 -24.5v-154q0 -11 -5 -23.5t-15 -23t-25 -17.5t-34 -7z" />
    <glyph glyph-name="FL201Eh" unicode="&#x201e;" horiz-adv-x="494" 
d="M225 93l-23 22q-11 18 -28.5 31t-39.5 13l-13 -1q-18 0 -34 -8.5t-27.5 -21t-18.5 -28t-7 -29.5v-154q0 -20 11 -42t33 -33l24 -24q21 -23 55 -23h4q18 0 33 6t26.5 16t18.5 21.5t10 23.5q5 -5 10.5 -10t11.5 -9l25 -25q23 -23 55 -23h4q22 0 39.5 8.5t29 21t17.5 27
t6 27.5v154q0 16 -7 32t-20 28l-23 23q-11 18 -29 30.5t-39 12.5l-14 -1q-15 0 -29 -6.5t-25 -16.5t-19.5 -22.5t-11.5 -25.5q-2 2 -3 3.5t-2 2.5zM121 -152h-4q-16 0 -28.5 6.5t-21 16.5t-13 22t-4.5 24v154q0 12 6 24.5t15.5 23t22.5 17t28 6.5l13 1q13 0 25 -6.5
t20.5 -16.5t13.5 -22.5t5 -24.5v-154q0 -11 -5 -23.5t-15 -23t-24.5 -17.5t-33.5 -7zM315 -152h-4q-15 0 -27.5 6.5t-21.5 16.5t-13.5 22t-4.5 24v154q0 12 6 24.5t16 23t23 17t27 6.5l14 1q13 0 24.5 -6.5t20.5 -16.5t14 -22.5t5 -24.5v-154q0 -11 -5 -23.5t-15 -23
t-25 -17.5t-34 -7z" />
    <glyph glyph-name="FL2020h" unicode="&#x2020;" horiz-adv-x="469" 
d="M144 535h-94v-116h94v-419h129v419h96v116h-96v228h-129v-228zM34 551h94v228h161v-6l37 -37v-185h59v-6l37 -37v-142h-96v-419h-155l-37 37h-6v382h-51l-37 37h-6v148z" />
    <glyph glyph-name="FL2021h" unicode="&#x2021;" horiz-adv-x="469" 
d="M144 535h-94v-116h94v-64h-94v-117h94v-238h129v238h96v117h-96v64h96v116h-96v228h-129v-228zM34 551h94v228h161v-6l37 -37v-185h59v-6l37 -37v-142h-37v-1l37 -37v-143h-96v-238h-155l-37 37h-6v201h-51l-37 37h-6v149h38l-32 32h-6v148z" />
    <glyph glyph-name="FL2022h" unicode="&#x2022;" horiz-adv-x="420" 
d="M34 662v-561h6l37 -37h296v555l-37 37v6h-302zM50 117v529h270v-529h-270z" />
    <glyph glyph-name="FL2026h" unicode="&#x2026;" horiz-adv-x="700" 
d="M434 81l-9 12l-23 23q-11 17 -29 30t-39 13l-13 -1q-17 0 -31.5 -7t-26 -18t-19.5 -25t-10 -27l-9 12l-23 23q-11 17 -29 30t-39 13l-13 -1q-18 0 -34 -8.5t-27.5 -21t-18.5 -28t-7 -29.5q0 -22 11 -44t33 -33l25 -25q10 -10 23.5 -16t30.5 -6h5q19 0 35 6.5t27 17t18 23
t9 24.5q10 -15 27 -24l25 -25q10 -10 23.5 -16t30.5 -6h5q19 0 34.5 6.5t27 17t18.5 23t9 24.5q10 -15 27 -24l25 -25q10 -10 23.5 -16t30.5 -6h5q22 0 39 8.5t28.5 21t17.5 27t6 27.5q0 16 -7.5 32.5t-20.5 29.5l-23 23q-11 17 -29 30t-39 13l-13 -1q-17 0 -31.5 -7
t-26 -18t-19.5 -25t-10 -27zM322 0h-5q-16 0 -28.5 6.5t-21 17t-13 23t-4.5 24.5t6 24.5t15.5 23t22.5 17t28 6.5l13 1q13 0 25 -7t21 -17.5t14 -23t5 -24.5q0 -11 -5 -23.5t-15 -23t-24.5 -17.5t-33.5 -7zM122 0h-5q-16 0 -28.5 6.5t-21 17t-13 23t-4.5 24.5t6 24.5
t15.5 23t22.5 17t28 6.5l13 1q13 0 25 -7t21 -17.5t14 -23t5 -24.5q0 -11 -5 -23.5t-15 -23t-24.5 -17.5t-33.5 -7zM522 0h-5q-16 0 -28.5 6.5t-21 17t-13 23t-4.5 24.5t6 24.5t15.5 23t22.5 17t28 6.5l13 1q13 0 25 -7t21 -17.5t14 -23t5 -24.5q0 -11 -5 -23.5t-15 -23
t-24.5 -17.5t-33.5 -7z" />
    <glyph glyph-name="FL2030h" unicode="&#x2030;" horiz-adv-x="1102" 
d="M804 58v265h135v-265h-135zM770 1q2 0 3.5 -0.5t2.5 -0.5h191q11 0 23 12t12 23v310q0 13 -14 24.5t-26 11.5h-183q-15 0 -27.5 -13t-12.5 -27v-300q0 -14 9 -25.5t22 -14.5zM505 58v265h135v-265h-135zM471 1q2 0 3.5 -0.5t2.5 -0.5h191q11 0 23 12t12 23v310
q0 13 -14 24.5t-26 11.5h-183q-15 0 -27.5 -13t-12.5 -27v-300q0 -14 9 -25.5t22 -14.5zM115 439v265h135v-265h-135zM81 382q2 0 3.5 -0.5t2.5 -0.5h191q11 0 23 12t12 23v310q0 13 -14 24.5t-26 11.5h-183q-15 0 -27.5 -13t-12.5 -27v-300q0 -14 9 -25.5t22 -14.5z
M647 762h-107l-421 -762h109zM93 343l-27 26q-14 7 -23 21.5t-9 31.5v300q0 10 4.5 20t12.5 18t18 13t21 5h183q13 0 28 -11t23 -25l27 -26q15 -15 15 -30v-207l165 299h142l-3 -5l38 -38l-187 -338h142q13 0 28 -11t23 -25l10 -9q5 17 20.5 31t34.5 14h183q13 0 28 -11
t23 -25l27 -26q15 -15 15 -30v-310q0 -16 -16 -32t-32 -16h-193q-1 0 -1.5 0.5t-2.5 0.5h-3q-14 3 -25 14l-27 27q-3 -15 -18 -28.5t-29 -13.5h-193q-1 0 -1.5 0.5t-2.5 0.5h-3q-14 3 -25 14l-27 27q-14 7 -23 21t-9 31v176l-149 -270h-137l-37 37h-8l189 344h-157
q-1 0 -1.5 0.5t-2.5 0.5h-3q-14 3 -25 14zM857 270v-196h66v196h-66zM558 270v-196h66v196h-66zM168 651v-196h66v196h-66z" />
    <glyph glyph-name="FL2039h" unicode="&#x2039;" horiz-adv-x="357" 
d="M256 262v74l-122 50l122 50v75l-207 -77v-98zM272 347v-5l37 -37v-101l-233 83l-35 35l-8 3v120l239 89v-7l37 -37v-103l-68 -28z" />
    <glyph glyph-name="FL203Ah" unicode="&#x203a;" horiz-adv-x="357" 
d="M34 347v-107l5 2l38 -38l233 83v116l-37 37v5l-239 89v-109l8 -4l35 -34l26 -11zM50 262v74l122 50l-122 50v75l207 -77v-98z" />
    <glyph glyph-name="FL20ACh" unicode="&#x20ac;" horiz-adv-x="712" 
d="M155 527h-105v-116h105v-65h-105v-116h105v-142q0 -29 16.5 -50.5t42.5 -33.5q2 -2 6.5 -3t6.5 -1h385v115h-327v115h216v116h-216v65h216v116h-216v119h327v116h-377q-17 0 -31.5 -8t-25 -20.5t-17 -28.5t-6.5 -31v-147zM34 543h105v131q0 18 7.5 36.5t20.5 33.5
t30.5 24.5t37.5 9.5h393v-6l37 -37v-142h-327v-50h179v-6l37 -37v-142h-37v-2l37 -37v-142h-216v-46h290v-6l37 -37v-141h-398q-3 0 -8.5 1.5t-10.5 4.5q-21 9 -36 24l-23 23q-23 14 -36.5 36.5t-13.5 51.5v89h-62l-37 37h-6v148h39l-33 33h-6v148z" />
    <glyph glyph-name="FL04E5h" unicode="&#x2122;" horiz-adv-x="1182" 
d="M367 241q-1 -7 -2.5 -13t-5.5 -13q-4 -1 -10 -6q5 11 9 19t9 13zM227 236q5 8 11.5 12.5t12.5 7.5q-4 -15 -5.5 -32t-1.5 -35l-7 6v10q-20 -12 -33 -15q5 20 23 46zM1100 357l-75 20l-2 -42l-16 16v5l-60 22l-6 -109l-62 73l-14 14l-29 34l1 -56l-13 12q-17 32 -48 32
q-16 0 -32 -10q-9 -12 -16.5 -24t-14.5 -24l1 12l-38 37l1 7l-65 -12l-4 -37l-16 18v5l-63 22l-4 -112l-63 74l-10 10l-33 38l1 -58l-1 1q-25 40 -75 40h-8q-9 0 -19 -6q-7 -5 -13.5 -10t-11.5 -11l-28 28l1 7q-77 -12 -118 -42l-32 33l1 7l-64 -15l-20 -233l5 2l38 -37
l69 27l1 18q2 -2 5 -3.5t6 -3.5l24 -23q20 -20 48 -20q11 0 21 1.5t27 12.5l-2 46l28 -27q19 -19 58 -19h9q6 0 9 1q10 2 11 2q26 0 45 25l33 -33l54 10v61q1 -1 2 -1.5t2 -1.5l15 -15q45 -45 89 -45v4l5 -5l68 21l5 -4h57q8 16 15 26t14 14l5 -2l35 -35l43 -17v8l8 -8l52 8
v60q1 -1 2 -1.5t3 -2.5l16 -15q37 -38 70 -44l10 -9l2 2l38 -38l51 50l-38 38l3 3l-5 2l23 -3l26 163l-38 37zM385 257q0 15 -5 23q-14 24 -33 24q-30 0 -53 -59v-13q0 -47 28 -47q17 0 48 19q9 13 12 26.5t3 26.5zM735 253h57l-22 62zM67 342l32 8l-8 -186l-41 -16z
M247 353l-5 -46q-7 4 -19 4q-25 0 -46 -27q-27 -35 -27 -75q0 -37 38 -37q27 0 34 4l1 -32q-10 -6 -18 -7t-17 -1q-53 0 -68 83l-1.5 13.5t-0.5 11.5q0 88 129 109zM417 284q-17 -131 -68 -131q-9 -1 -15.5 -2t-13.5 -1q-50 0 -60 33q0 120 66 162q7 4 10 4h8q58 0 73 -65z
M576 339v-186q-46 0 -108 92v-92l-28 -5l-4 190l103 -119l5 131zM627 350l33 6l-9 -186l-42 -13zM821 302l2 -141l-20 8q-20 42 -42 42t-44 -42h-36q6 95 73 186q10 7 22 7q34 0 45 -60zM991 345v-186q-44 0 -108 94v-92l-26 -4l-4 188l102 -118l7 129zM1040 161l26 -13
l-29 -28l-22 23zM1040 356l42 -11l-22 -138l-27 4z" />
  </font>
</defs>
</svg>
