<?xml version="1.0" standalone="no"?>
<!DOCTYPE svg PUBLIC "-//W3C//DTD SVG 1.1//EN" "http://www.w3.org/Graphics/SVG/1.1/DTD/svg11.dtd" >
<svg xmlns="http://www.w3.org/2000/svg" xmlns:xlink="http://www.w3.org/1999/xlink" version="1.1">
<metadata>
Created by FontForge 20170731 at Wed Apr 11 13:53:10 2012
 By Aleksey,,,
weknow (c) (weknow.deviantart.com). 2012. All Rights Reserved
</metadata>
<defs>
<font id="CorelDraw" horiz-adv-x="1139" >
  <font-face 
    font-family="CorelDraw"
    font-weight="400"
    font-stretch="normal"
    units-per-em="2048"
    panose-1="2 0 0 0 0 0 0 0 0 0"
    ascent="1638"
    descent="-410"
    x-height="796"
    cap-height="1344"
    bbox="50 -551 2494 1602"
    underline-thickness="150"
    underline-position="-442"
    unicode-range="U+0020-F005"
  />
<missing-glyph horiz-adv-x="1124" 
 />
    <glyph glyph-name=".notdef" horiz-adv-x="1124" 
 />
    <glyph glyph-name=".null" horiz-adv-x="0" 
 />
    <glyph glyph-name="nonmarkingreturn" horiz-adv-x="569" 
 />
    <glyph glyph-name="space" unicode=" " horiz-adv-x="569" 
 />
    <glyph glyph-name="space" unicode="&#xa0;" horiz-adv-x="569" 
 />
    <glyph glyph-name="exclam" unicode="!" horiz-adv-x="344" 
d="M58 1344h228l8 -8v-840l-8 -8h-228l-8 8v840zM58 248h228l8 -8v-232l-8 -8h-228l-8 8v232z" />
    <glyph glyph-name="quotedbl" unicode="&#x22;" horiz-adv-x="708" 
d="M58 1346h228l8 -8v-236q0 -86 -96 -120h-120v8q69 0 92 112h-8q-112 28 -112 108v128zM422 1346h228l8 -8v-248q0 -71 -96 -108h-116v8q88 31 88 104v8h-8q-112 27 -112 112v124z" />
    <glyph glyph-name="numbersign" unicode="#" horiz-adv-x="1444" 
d="M482 1344h232l8 -8l-52 -296h240l56 304h244v-4l-52 -300h228l8 -8v-232l-8 -8h-276v-4l-40 -236h316l8 -8v-232l-8 -8h-364q-49 -304 -60 -304h-232l-8 8l52 296h-240l-56 -304h-244v4l52 300h-228l-8 8v232l8 8h276v4l40 236h-316l-8 8v232l8 8h364q49 304 60 304z
M622 792l-40 -240h240l40 240h-240z" />
    <glyph glyph-name="dollar" unicode="$" horiz-adv-x="1444" 
d="M414 1582h232l8 -8v-236h120v236l8 8h232l8 -8v-236h4q152 0 292 -160q76 -111 76 -224v-8l-8 -8h-232q-7 0 -16 60q-57 92 -116 92v-300q119 0 252 -112q120 -128 120 -268v-32q0 -239 -264 -364q-70 -19 -108 -19v-236l-8 -8h-232l-8 8v236h-120v-236l-8 -8h-232l-8 8
v236q-105 0 -248 119q-108 130 -108 260v12l8 8h232q8 0 8 -36q28 -77 80 -100l28 -12v300q-154 0 -292 176q-64 104 -64 200v36q0 192 192 324q106 56 164 56v236zM654 1090v-300h120v300h-120zM298 958v-24q0 -99 108 -136v288q-108 -46 -108 -128zM654 542v-300h120v300
h-120zM1022 538v-296q124 42 124 132v24q0 102 -116 140h-8z" />
    <glyph glyph-name="percent" unicode="%" horiz-adv-x="1444" 
d="M374 1344h40q146 0 264 -168l4 -12q10 0 36 176l4 4h236l8 -8l-128 -708q104 80 216 80h8q210 0 312 -220q20 -49 20 -104v-60q0 -186 -192 -292q-61 -32 -132 -32h-40q-146 0 -264 168l-4 12q-7 -1 -40 -180h-236l-8 8l128 708q-104 -80 -216 -80h-8q-210 0 -312 220
q-20 49 -20 104v60q0 186 192 292q62 32 132 32zM298 1016v-52q0 -64 84 -80h8q84 16 84 80v52q-16 80 -80 80h-16q-80 -16 -80 -80zM970 380v-52q16 -80 80 -80h16q80 16 80 80v52q0 64 -84 80h-8q-84 -16 -84 -80z" />
    <glyph glyph-name="ampersand" unicode="&#x26;" horiz-adv-x="1444" 
d="M534 1344h376q174 0 288 -200q28 -73 28 -136v-72q0 -224 -240 -324l-108 -16v-4l224 -148q40 164 52 172h232l8 -8l-84 -308h4l80 -56v-240h-8l-168 112h-4q-101 -116 -216 -116h-624q-186 0 -292 192q-32 62 -32 132v212q0 147 172 268l20 8q-24 58 -24 128v68
q0 213 220 316q55 20 96 20zM466 1000v-56q10 -96 80 -96h352q70 0 80 96v56q0 82 -80 96h-352q-80 -14 -80 -96zM298 516v-188q16 -80 80 -80h624l8 8l-516 340h-116q-80 -16 -80 -80z" />
    <glyph glyph-name="quotesingle" unicode="'" horiz-adv-x="344" 
d="M58 1343h228l8 -8v-248q0 -74 -100 -108h-116v8q92 26 92 112h-8q-112 28 -112 108v128z" />
    <glyph glyph-name="parenleft" unicode="(" horiz-adv-x="772" 
d="M686 1583h28l8 -8v-232l-8 -8h-4q-249 0 -384 -264q-28 -83 -28 -148v-512q0 -249 264 -384q83 -28 148 -28h4l8 -8v-232l-8 -8h-28q-239 0 -464 220q-172 213 -172 416v560q0 239 220 464q213 172 416 172z" />
    <glyph glyph-name="parenright" unicode=")" horiz-adv-x="772" 
d="M58 1592h28q239 0 464 -220q172 -213 172 -416v-560q0 -239 -220 -464q-213 -172 -416 -172h-28l-8 8v232l8 8h4q249 0 384 264q28 83 28 148v512q0 249 -264 384q-83 28 -148 28h-4l-8 8v232z" />
    <glyph glyph-name="asterisk" unicode="*" horiz-adv-x="568" 
d="M226 1339h108l8 -8v-112q105 64 120 64l56 -100v-4q-27 -23 -124 -72v-4l80 -84v-4l-84 -84l-108 104l-108 -104l-84 84v4l80 84l-120 76l56 104q13 0 112 -60v108z" />
    <glyph glyph-name="plus" unicode="+" horiz-adv-x="832" 
d="M298 1041h232l8 -8v-236h236l8 -8v-228l-8 -8h-236v-236l-8 -8h-232l-8 8v236h-232l-8 8v228l8 8h232v236z" />
    <glyph glyph-name="comma" unicode="," horiz-adv-x="344" 
d="M58 244h228l8 -8v-248q0 -74 -100 -108h-116v8q92 27 92 112h-8q-112 28 -112 108v128z" />
    <glyph glyph-name="hyphen" unicode="-" horiz-adv-x="832" 
d="M58 801h716l8 -8v-228l-8 -8h-716l-8 8v228z" />
    <glyph glyph-name="hyphen" unicode="&#xad;" horiz-adv-x="832" 
d="M58 801h716l8 -8v-228l-8 -8h-716l-8 8v228z" />
    <glyph glyph-name="period" unicode="." horiz-adv-x="344" 
d="M58 244h228l8 -8v-228l-8 -8h-228l-8 8v228z" />
    <glyph glyph-name="slash" unicode="/" horiz-adv-x="588" 
d="M530 1344l8 -8l-244 -1336h-236l-8 8l244 1336h236z" />
    <glyph glyph-name="zero" unicode="0" horiz-adv-x="1444" 
d="M374 1344h696q186 0 292 -192q32 -61 32 -132v-696q0 -186 -192 -292q-61 -32 -132 -32h-696q-186 0 -292 192q-32 62 -32 132v696q0 186 192 292q62 32 132 32zM298 1016v-688q16 -80 80 -80h688q80 16 80 80v688q-16 80 -80 80h-688q-80 -16 -80 -80z" />
    <glyph glyph-name="one" unicode="1" horiz-adv-x="604" 
d="M274 1344h272l8 -8v-1328l-8 -8h-228l-8 8v1088h-12q-78 0 -152 -32q-32 63 -96 228q129 52 224 52z" />
    <glyph glyph-name="two" unicode="2" horiz-adv-x="1444" 
d="M374 1344h696q186 0 292 -192q32 -61 32 -132v-96q0 -207 -232 -312q-73 -16 -164 -16h-620q-80 -16 -80 -80v-252h1088l8 -8v-248l-8 -8h-1328l-8 8v512q0 206 232 312q70 16 176 16h608q80 16 80 80v88q-16 80 -80 80h-688q-67 0 -80 -84l-4 -4h-236l-8 8v4
q0 186 192 292q62 32 132 32z" />
    <glyph glyph-name="three" unicode="3" horiz-adv-x="1444" 
d="M374 1344h696q186 0 292 -192q32 -61 32 -132v-96q0 -106 -76 -204q76 -89 76 -200v-196q0 -186 -192 -292q-61 -32 -132 -32h-1012l-8 8v232l8 8h1008q80 16 80 80v188q-16 80 -80 80h-672l-8 8v236l8 8h672q80 16 80 80v88q-16 80 -80 80h-688q-67 0 -80 -84l-4 -4
h-236l-8 8v4q0 186 192 292q62 32 132 32z" />
    <glyph glyph-name="four" unicode="4" horiz-adv-x="1444" 
d="M58 1344h232l8 -8v-408q16 -80 80 -80h688q80 16 80 80v408l8 8h232l8 -8v-1328l-8 -8h-232l-8 8v508q-16 80 -80 80h-612q-216 0 -300 96q-104 103 -104 232v412z" />
    <glyph glyph-name="five" unicode="5" horiz-adv-x="1444" 
d="M58 1344h1328l8 -8v-248l-8 -8h-1088v-152q16 -80 80 -80h608q220 0 304 -96q104 -104 104 -232v-196q0 -186 -192 -292q-61 -32 -132 -32h-696q-186 0 -292 192q-32 62 -32 132v8l8 8h232q8 0 8 -28q28 -64 80 -64h688q80 16 80 80v188q-16 80 -80 80h-612
q-216 0 -300 96q-104 103 -104 232v412z" />
    <glyph glyph-name="six" unicode="6" horiz-adv-x="1444" 
d="M374 1344h696q186 0 292 -192q32 -61 32 -132v-8l-8 -8h-232q-8 0 -8 28q-28 64 -80 64h-688q-80 -16 -80 -80v-184q32 12 68 12h700q202 0 308 -216q20 -55 20 -108v-196q0 -186 -192 -292q-61 -32 -132 -32h-696q-186 0 -292 192q-32 62 -32 132v696q0 186 192 292
q62 32 132 32zM298 516v-188q16 -80 80 -80h688q80 16 80 80v188q-16 80 -80 80h-688q-80 -16 -80 -80z" />
    <glyph glyph-name="seven" unicode="7" horiz-adv-x="1444" 
d="M58 1344h1328l8 -8v-412q0 -199 -216 -300q-39 -19 -292 -44q-268 -89 -372 -272l-184 -308h-272l-8 8q244 422 308 512q208 216 344 256q139 64 304 64q140 11 140 88v152h-1088l-8 8v248z" />
    <glyph glyph-name="eight" unicode="8" horiz-adv-x="1444" 
d="M374 1344h696q186 0 292 -192q32 -61 32 -132v-96q0 -106 -76 -204q76 -89 76 -200v-196q0 -186 -192 -292q-61 -32 -132 -32h-696q-186 0 -292 192q-32 62 -32 132v196q0 106 76 204q-76 89 -76 200v96q0 186 192 292q62 32 132 32zM298 1016v-88q16 -80 80 -80h688
q80 16 80 80v88q-16 80 -80 80h-688q-80 -16 -80 -80zM298 516v-188q16 -80 80 -80h688q80 16 80 80v188q-16 80 -80 80h-688q-80 -16 -80 -80z" />
    <glyph glyph-name="nine" unicode="9" horiz-adv-x="1444" 
d="M374 1344h696q186 0 292 -192q32 -61 32 -132v-696q0 -186 -192 -292q-61 -32 -132 -32h-696q-186 0 -292 192q-32 62 -32 132v8l8 8h232q8 0 8 -28q28 -64 80 -64h688q80 16 80 80v184q-32 -12 -68 -12h-700q-202 0 -308 216q-20 55 -20 108v196q0 186 192 292
q62 32 132 32zM298 1016v-188q16 -80 80 -80h688q80 16 80 80v188q-16 80 -80 80h-688q-80 -16 -80 -80z" />
    <glyph glyph-name="colon" unicode=":" horiz-adv-x="344" 
d="M58 1040h228l8 -8v-232l-8 -8h-228l-8 8v232zM58 552h228l8 -8v-228l-8 -8h-228l-8 8v228z" />
    <glyph glyph-name="semicolon" unicode=";" horiz-adv-x="344" 
d="M58 1032h228l8 -8v-228l-8 -8h-228l-8 8v228zM58 548h228l8 -8v-252q-29 -108 -108 -108h-108v8q57 0 88 88l4 24h-4q-116 22 -116 120v120z" />
    <glyph glyph-name="semicolon" unicode="&#x37e;" horiz-adv-x="344" 
d="M58 1032h228l8 -8v-228l-8 -8h-228l-8 8v228zM58 548h228l8 -8v-252q-29 -108 -108 -108h-108v8q57 0 88 88l4 24h-4q-116 22 -116 120v120z" />
    <glyph glyph-name="less" unicode="&#x3c;" horiz-adv-x="1440" 
d="M1386 1344l4 -4v-268q0 -8 -788 -396v-8q788 -388 788 -396v-264l-4 -4v-4q-1332 664 -1336 672q4 8 1336 672z" />
    <glyph glyph-name="equal" unicode="=" horiz-adv-x="832" 
d="M58 1040h716l8 -8v-232l-8 -8h-716l-8 8v232zM58 556h716l8 -8v-232l-8 -8h-716l-8 8v232z" />
    <glyph glyph-name="greater" unicode="&#x3e;" horiz-adv-x="1440" 
d="M54 1344q1332 -664 1336 -672q-4 -8 -1336 -672l-4 4v268q0 8 788 396v8q-788 388 -788 396v264l4 4v4z" />
    <glyph glyph-name="question" unicode="?" horiz-adv-x="1444" 
d="M374 1344h696q186 0 292 -192q32 -61 32 -132v-196q0 -202 -224 -308q-62 -20 -184 -20h-104q-67 0 -80 -84l-4 -4h-236l-8 8v4q0 210 236 312q57 16 168 16h108q80 16 80 80v188q-16 80 -80 80h-688q-67 0 -80 -84l-4 -4h-236l-8 8v4q0 186 192 292q62 32 132 32z
M562 264h232l8 -8v-248l-8 -8h-232l-8 8v248z" />
    <glyph glyph-name="at" unicode="@" horiz-adv-x="1628" 
d="M374 1344h876q203 0 308 -228q16 -60 16 -104v-356q0 -219 -224 -320q-67 -20 -116 -20q-198 0 -308 208q-28 66 -28 184q-24 72 -88 72q-88 -17 -88 -84v-48q15 -80 80 -80l12 -12v-232l-8 -8q-175 0 -288 172q-44 78 -44 160v48q0 196 204 304q72 28 136 28
q197 0 308 -208q28 -68 28 -192q34 -64 84 -64q92 16 92 84v356q-9 92 -80 92h-868q-76 0 -84 -108v-628q0 -89 68 -112h1208l8 -8v-232l-8 -8h-1196q-187 0 -292 192q-32 60 -32 132v696q0 199 216 304q53 20 108 20z" />
    <glyph glyph-name="A" unicode="A" horiz-adv-x="1444" 
d="M686 1344h72q239 0 464 -220q172 -213 172 -416v-700l-8 -8h-232l-8 8v540h-848v-540l-8 -8h-232l-8 8v700q0 239 220 464q213 172 416 172zM314 796h816q-60 178 -224 260q-84 40 -172 40h-24q-253 0 -384 -268z" />
    <glyph glyph-name="B" unicode="B" horiz-adv-x="1444" 
d="M58 1344h952q232 0 360 -252q24 -73 24 -132v-24q0 -140 -108 -264q108 -125 108 -256v-36q0 -224 -252 -356q-79 -24 -128 -24h-956l-8 8v1328zM298 1096v-848h716q90 0 132 124v32q0 122 -152 144h-448l-8 8v232l8 8h432q124 0 160 100q8 16 8 44v24q0 90 -124 132
h-724z" />
    <glyph glyph-name="C" unicode="C" horiz-adv-x="1444" 
d="M686 1344h700l8 -8v-232l-8 -8h-676q-249 0 -384 -264q-28 -83 -28 -148v-24q0 -226 228 -364q89 -48 184 -48h676l8 -8v-232l-8 -8h-700q-239 0 -464 220q-172 213 -172 416v72q0 222 200 444q219 192 436 192z" />
    <glyph glyph-name="D" unicode="D" horiz-adv-x="1444" 
d="M58 1344h700q239 0 464 -220q172 -213 172 -416v-72q0 -222 -200 -444q-219 -192 -436 -192h-700l-8 8v1328zM298 1096v-848h436q249 0 384 264q28 83 28 148v24q0 249 -264 384q-83 28 -148 28h-436z" />
    <glyph glyph-name="E" unicode="E" horiz-adv-x="1444" 
d="M430 1344h956l8 -8v-232l-8 -8h-956q-90 0 -132 -124v-32q0 -122 152 -144h508l8 -8v-232l-8 -8h-492q-124 0 -160 -100q-8 -16 -8 -44v-24q0 -90 124 -132h964l8 -8v-232l-8 -8h-952q-232 0 -360 252q-24 73 -24 132v24q0 140 108 264q-108 125 -108 256v36
q0 224 252 356q79 24 128 24z" />
    <glyph glyph-name="F" unicode="F" horiz-adv-x="1444" 
d="M686 1344h700l8 -8v-232l-8 -8h-676q-253 0 -384 -268l-12 -32h648l8 -8v-232l-8 -8h-664v-540l-8 -8h-232l-8 8v700q0 239 220 464q213 172 416 172z" />
    <glyph glyph-name="G" unicode="G" horiz-adv-x="1448" 
d="M686 1344h704l8 -8v-232l-8 -8h-680q-230 0 -368 -232q-44 -96 -44 -176v-32q0 -218 224 -360q96 -48 188 -48h440v300h-380l-8 8v232l8 8h620l8 -8v-780l-8 -8h-704q-237 0 -464 220q-172 213 -172 416v72q0 239 220 464q214 172 416 172z" />
    <glyph glyph-name="H" unicode="H" horiz-adv-x="1444" 
d="M58 1344h232l8 -8v-540h848v540l8 8h232l8 -8v-1328l-8 -8h-232l-8 8v540h-848v-540l-8 -8h-232l-8 8v1328z" />
    <glyph glyph-name="I" unicode="I" horiz-adv-x="344" 
d="M58 1344h228l8 -8v-1328l-8 -8h-228l-8 8v1328z" />
    <glyph glyph-name="J" unicode="J" horiz-adv-x="1444" 
d="M730 1344h28q239 0 464 -220q172 -213 172 -416v-72q0 -239 -220 -464q-213 -172 -416 -172h-700l-8 8v232l8 8h676q249 0 384 264q28 83 28 148v24q0 249 -264 384q-83 28 -148 28h-4l-8 8v232z" />
    <glyph glyph-name="K" unicode="K" horiz-adv-x="1444" 
d="M58 1344h232l8 -8v-540h412q297 0 416 292q20 64 20 116v132l8 8h232l8 -8v-136q0 -299 -280 -528q280 -229 280 -528v-136l-8 -8h-232l-8 8v132q0 234 -256 376q-95 32 -180 32h-412v-540l-8 -8h-232l-8 8v1328z" />
    <glyph glyph-name="L" unicode="L" horiz-adv-x="1444" 
d="M58 1344h232l8 -8v-676q0 -249 264 -384q83 -28 148 -28h676l8 -8v-232l-8 -8h-700q-239 0 -464 220q-172 213 -172 416v700z" />
    <glyph glyph-name="M" unicode="M" horiz-adv-x="1444" 
d="M434 1344h32q131 0 256 -108q125 108 256 108h32q232 0 360 -252q24 -73 24 -132v-952l-8 -8h-232l-8 8v956q0 90 -124 132h-32q-122 0 -144 -152v-464l-8 -8h-232l-8 8v448q0 124 -100 160q-16 8 -44 8h-24q-90 0 -132 -124v-964l-8 -8h-232l-8 8v952q0 232 252 360
q73 24 132 24z" />
    <glyph glyph-name="N" unicode="N" horiz-adv-x="1444" 
d="M434 1344h32q194 0 328 -200q52 -99 52 -192v-536q0 -123 100 -160q16 -8 44 -8h24q90 0 132 124v964l8 8h232l8 -8v-952q0 -232 -252 -360q-73 -24 -132 -24h-32q-204 0 -336 216q-44 90 -44 176v536q0 124 -100 160q-16 8 -44 8h-24q-90 0 -132 -124v-964l-8 -8h-232
l-8 8v952q0 232 252 360q73 24 132 24z" />
    <glyph glyph-name="O" unicode="O" horiz-adv-x="1444" 
d="M686 1344h72q239 0 464 -220q172 -213 172 -416v-72q0 -239 -220 -464q-213 -172 -416 -172h-72q-239 0 -464 220q-172 213 -172 416v72q0 239 220 464q213 172 416 172zM298 684v-24q0 -250 264 -384q83 -28 148 -28h24q250 0 384 264q28 83 28 148v24q0 250 -264 384
q-83 28 -148 28h-24q-250 0 -384 -264q-28 -83 -28 -148z" />
    <glyph glyph-name="P" unicode="P" horiz-adv-x="1444" 
d="M58 1344h952q232 0 360 -252q24 -73 24 -132v-32q0 -204 -216 -336q-90 -44 -176 -44h-704v-540l-8 -8h-232l-8 8v1328zM298 1096v-300h680q124 0 160 100q8 16 8 44v24q0 90 -124 132h-724z" />
    <glyph glyph-name="Q" unicode="Q" horiz-adv-x="1444" 
d="M686 1344h72q239 0 464 -220q172 -213 172 -416v-56q0 -193 -132 -384q55 -20 120 -20h4l8 -8v-232l-8 -8h-12q-156 0 -316 88q-160 -88 -316 -88h-56q-239 0 -464 220q-172 213 -172 416v72q0 239 220 464q213 172 416 172zM298 684v-24q0 -245 256 -380q84 -32 156 -32
h32q55 0 112 20q-132 191 -132 384v12l8 8h232l8 -8v-4q0 -123 84 -248h8q84 124 84 248v24q0 250 -264 384q-83 28 -148 28h-24q-250 0 -384 -264q-28 -83 -28 -148z" />
    <glyph glyph-name="R" unicode="R" horiz-adv-x="1444" 
d="M58 1344h952q232 0 360 -252q24 -73 24 -132v-24q0 -140 -108 -264q108 -125 108 -256v-408l-8 -8h-232l-8 8v396q0 122 -152 144h-448l-8 8v232l8 8h432q124 0 160 100q8 16 8 44v24q0 90 -124 132h-724v-1088l-8 -8h-232l-8 8v1328z" />
    <glyph glyph-name="S" unicode="S" horiz-adv-x="1444" 
d="M434 1344h952l8 -8v-232l-8 -8h-956q-90 0 -132 -124v-32q0 -122 152 -144h552q185 0 316 -164q76 -108 76 -216v-32q0 -232 -252 -360q-73 -24 -132 -24h-952l-8 8v232l8 8h956q90 0 132 124v32q0 122 -152 144h-552q-185 0 -316 164q-76 108 -76 216v32q0 232 252 360
q73 24 132 24z" />
    <glyph glyph-name="T" unicode="T" horiz-adv-x="1444" 
d="M58 1344h1328l8 -8v-232l-8 -8h-540v-1088l-8 -8h-232l-8 8v1088h-540l-8 8v232z" />
    <glyph glyph-name="U" unicode="U" horiz-adv-x="1444" 
d="M58 1344h232l8 -8v-676q0 -249 264 -384q83 -28 148 -28h24q249 0 384 264q28 83 28 148v676l8 8h232l8 -8v-700q0 -239 -220 -464q-213 -172 -416 -172h-72q-239 0 -464 220q-172 213 -172 416v700z" />
    <glyph glyph-name="V" unicode="V" horiz-adv-x="1444" 
d="M58 1344h232l8 -8v-564l424 -424l424 424v564l8 8h232l8 -8v-664l-672 -672l-672 672v664z" />
    <glyph glyph-name="W" unicode="W" horiz-adv-x="1444" 
d="M58 1344h232l8 -8v-956q0 -90 124 -132h32q109 0 144 132v484l8 8h232l8 -8v-448q0 -123 100 -160q16 -8 44 -8h24q90 0 132 124v964l8 8h232l8 -8v-952q0 -232 -252 -360q-73 -24 -132 -24h-32q-131 0 -256 108q-125 -108 -256 -108h-32q-232 0 -360 252q-24 73 -24 132
v952z" />
    <glyph glyph-name="X" unicode="X" horiz-adv-x="1444" 
d="M58 1340h232l8 -8v-124q0 -243 256 -380q84 -32 156 -32h24q240 0 372 244q40 79 40 168v124l8 8h232l8 -8v-144q0 -287 -284 -520q174 -106 264 -376q20 -85 20 -140v-144l-8 -8h-232l-8 8v124q0 244 -256 380q-83 32 -156 32h-24q-240 0 -372 -244q-40 -79 -40 -168
v-124l-8 -8h-232l-8 8v144q0 287 284 520q-174 106 -264 376q-20 85 -20 140v144z" />
    <glyph glyph-name="Y" unicode="Y" horiz-adv-x="1444" 
d="M58 1340h232l8 -8v-124q0 -231 240 -372q97 -40 172 -40h24q226 0 364 228q48 89 48 184v124l8 8h232l8 -8v-132q0 -308 -292 -536q-157 -93 -256 -104v-552l-8 -8h-232l-8 8v552q-137 13 -320 156q-228 217 -228 484v132z" />
    <glyph glyph-name="Z" unicode="Z" horiz-adv-x="1444" 
d="M58 1344h952q232 0 360 -252q24 -73 24 -132v-32q0 -204 -216 -336q-90 -44 -176 -44h-536q-124 0 -160 -100q-8 -16 -8 -44v-24q0 -90 124 -132h964l8 -8v-232l-8 -8h-952q-232 0 -360 252q-24 73 -24 132v32q0 194 200 328q99 52 192 52h536q124 0 160 100q8 16 8 44
v24q0 90 -124 132h-964l-8 8v232z" />
    <glyph glyph-name="bracketleft" unicode="[" horiz-adv-x="588" 
d="M58 1590h472l8 -8v-232l-8 -8h-236v-1336h236l8 -7v-232l-8 -8h-472l-8 8v1815z" />
    <glyph glyph-name="backslash" unicode="\" horiz-adv-x="588" 
d="M290 1344q11 0 76 -396l172 -944l-4 -4h-236q-10 0 -44 220l-204 1120l4 4h236z" />
    <glyph glyph-name="bracketright" unicode="]" horiz-adv-x="588" 
d="M58 1602h472l8 -8v-1816l-8 -8h-472l-8 8v232l8 8h236v1336h-236l-8 8v232z" />
    <glyph glyph-name="asciicircum" unicode="^" horiz-adv-x="496" 
d="M242 1344h12l192 -388l-4 -4h-128q-11 0 -64 120h-4q-53 -120 -64 -120h-124l-4 4h-4z" />
    <glyph glyph-name="underscore" unicode="_" horiz-adv-x="1444" 
d="M58 -3h1328l8 -8v-228l-8 -8h-1328l-8 8v228z" />
    <glyph glyph-name="grave" unicode="`" horiz-adv-x="400" 
d="M58 1342h12q154 0 280 -128v-180l-4 -4v-4q-46 24 -152 116q-79 44 -144 44v148z" />
    <glyph glyph-name="a" unicode="a" horiz-adv-x="1444" 
d="M430 796h584q226 0 356 -252q24 -79 24 -128v-408l-8 -8h-956q-226 0 -356 252q-24 79 -24 128v36q0 226 252 356q77 24 128 24zM298 380q0 -84 112 -128l32 -4h512q108 0 192 -28v196q0 84 -112 128l-32 4h-560q-106 0 -144 -124v-44z" />
    <glyph glyph-name="b" unicode="b" horiz-adv-x="1444" 
d="M58 1344h232l8 -8v-540h704q185 0 316 -164q76 -108 76 -216v-32q0 -228 -244 -356q-76 -28 -136 -28h-956l-8 8v1328zM298 548v-300h716q90 0 132 124v32q0 122 -152 144h-696z" />
    <glyph glyph-name="c" unicode="c" horiz-adv-x="1444" 
d="M430 796h956l8 -8v-232l-8 -8h-944q-106 0 -144 -124v-44q0 -84 112 -128l32 -4h944l8 -8v-232l-8 -8h-956q-226 0 -356 252q-24 79 -24 128v36q0 226 252 356q77 24 128 24z" />
    <glyph glyph-name="d" unicode="d" horiz-adv-x="1444" 
d="M1154 1344h232l8 -8v-1328l-8 -8h-956q-227 0 -356 252q-24 73 -24 132v32q0 194 200 328q99 52 192 52h704v540zM298 404v-24q0 -90 124 -132h724v300h-680q-124 0 -160 -100q-8 -16 -8 -44z" />
    <glyph glyph-name="e" unicode="e" horiz-adv-x="1444" 
d="M418 796h608q172 0 316 -196q52 -109 52 -176v-32q-19 -88 -88 -88h-984q55 -88 200 -88h864l8 -8v-200l-8 -8h-952q-232 0 -356 248q-28 69 -28 132v40q0 182 192 320q102 56 176 56zM326 496v-4h792v4q-24 45 -92 68q0 15 -256 24q-344 0 -400 -44q-40 -36 -44 -48z
" />
    <glyph glyph-name="f" unicode="f" horiz-adv-x="1444" 
d="M434 802h576q232 0 360 -252q24 -73 24 -132v-8l-8 -8h-232q-7 0 -16 60q-54 92 -124 92h-584q-90 0 -132 -124v-204q79 28 148 28h260l8 -8v-232l-8 -8h-252q-107 0 -148 -99q-8 -16 -8 -44v-396l-8 -8h-232l-8 8v951q0 232 252 360q73 24 132 24z" />
    <glyph glyph-name="g" unicode="g" horiz-adv-x="1444" 
d="M434 800h576q232 0 360 -252q24 -73 24 -132v-580q0 -202 -212 -336q-86 -44 -176 -44h-572q-232 0 -360 252q-24 73 -24 132v8l8 8h232q7 0 16 -60q54 -92 124 -92h584q90 0 132 124v32q0 110 -132 144h-564q-259 0 -380 268q-20 61 -20 120v24q0 232 252 360
q73 24 132 24zM298 396q0 -108 124 -140l36 -4h540q69 0 148 -28v196q0 90 -124 132h-592q-90 0 -132 -124v-32z" />
    <glyph glyph-name="h" unicode="h" horiz-adv-x="1444" 
d="M58 1344h232l8 -8v-540h704q185 0 316 -164q76 -108 76 -216v-408l-8 -8h-232l-8 8v396q0 122 -152 144h-696v-540l-8 -8h-232l-8 8v1328z" />
    <glyph glyph-name="i" unicode="i" horiz-adv-x="344" 
d="M58 1344h228l8 -8v-232l-8 -8h-228l-8 8v232zM58 796h228l8 -8v-780l-8 -8h-228l-8 8v780z" />
    <glyph glyph-name="j" unicode="j" horiz-adv-x="1444" 
d="M1154 1344h232l8 -8v-232l-8 -8h-232l-8 8v232zM1154 796h232l8 -8v-959q0 -227 -252 -356q-77 -24 -128 -24h-584q-227 0 -356 252q-24 76 -24 128v12l8 8h232q7 0 16 -60q54 -92 124 -92h584q90 0 132 124v967z" />
    <glyph glyph-name="k" unicode="k" horiz-adv-x="1444" 
d="M58 1344h232l8 -8v-540h416q279 0 404 272q10 32 16 32h248v-4q-17 -158 -180 -348l-88 -76q280 -229 280 -528v-136l-8 -8h-232l-8 8v132q0 234 -256 376q-95 32 -180 32h-412v-540l-8 -8h-232l-8 8v1328z" />
    <glyph glyph-name="l" unicode="l" horiz-adv-x="1444" 
d="M58 1344h232l8 -8v-956q0 -90 124 -132h592q90 0 132 124q0 28 8 28h232l8 -8v-8q0 -232 -252 -360q-73 -24 -132 -24h-576q-232 0 -360 252q-24 73 -24 132v952z" />
    <glyph glyph-name="m" unicode="m" horiz-adv-x="2544" 
d="M58 796h232q8 0 8 -28q64 28 136 28h572q145 0 264 -108q156 108 256 108h580q236 0 360 -248q28 -69 28 -132v-408l-8 -8h-232l-8 8v408q0 91 -128 132h-576q-104 0 -144 -120v-420l-8 -8h-236l-8 8v408q0 89 -124 132h-580q-106 0 -144 -124v-416l-8 -8h-232l-8 8v780z
" />
    <glyph glyph-name="n" unicode="n" horiz-adv-x="1444" 
d="M58 796h232q8 0 8 -28q64 28 136 28h572q236 0 360 -248q28 -69 28 -132v-408l-8 -8h-232l-8 8v408q0 89 -124 132h-580q-106 0 -144 -124v-416l-8 -8h-232l-8 8v780z" />
    <glyph glyph-name="o" unicode="o" horiz-adv-x="1444" 
d="M430 796h584q226 0 356 -252q24 -79 24 -128v-36q0 -226 -252 -356q-77 -24 -128 -24h-584q-226 0 -356 252q-24 79 -24 128v36q0 226 252 356q77 24 128 24zM298 380q0 -84 112 -128l32 -4h560q106 0 144 124v44q0 84 -112 128l-32 4h-560q-106 0 -144 -124v-44z" />
    <glyph glyph-name="p" unicode="p" horiz-adv-x="1444" 
d="M434 800h576q232 0 360 -252q24 -73 24 -132v-32q0 -218 -240 -348q-83 -32 -160 -32h-540q-107 0 -148 -99q-8 -16 -8 -44v-396l-8 -8h-232l-8 8v951q0 232 252 360q73 24 132 24zM298 224q79 28 148 28h540q111 0 152 100q8 16 8 44v24q0 90 -124 132h-592
q-90 0 -132 -124v-204z" />
    <glyph glyph-name="q" unicode="q" horiz-adv-x="1444" 
d="M434 800h576q232 0 360 -252q24 -73 24 -132v-951l-8 -8h-232l-8 8v396q0 109 -132 143h-564q-261 0 -380 268q-20 61 -20 120v24q0 232 252 360q73 24 132 24zM298 396q0 -107 124 -140l36 -4h540q69 0 148 -28v196q0 90 -124 132h-592q-90 0 -132 -124v-32z" />
    <glyph glyph-name="r" unicode="r" horiz-adv-x="1444" 
d="M58 796h232q8 0 8 -28q64 28 136 28h572q236 0 360 -248q28 -69 28 -132v-12l-8 -8h-232q-5 0 -20 68q-55 84 -124 84h-568q-106 0 -144 -124v-416l-8 -8h-232l-8 8v780z" />
    <glyph glyph-name="s" unicode="s" horiz-adv-x="1444" 
d="M418 796h968l8 -8v-200l-8 -8l-588 8h-104q-337 0 -360 -84l-8 -8v-4h980q88 -19 88 -84v-28q0 -226 -252 -356q-73 -24 -132 -24h-952l-8 8v200l8 8h864q145 0 200 88h-984q-88 19 -88 88v32q0 162 172 304q111 67 196 68z" />
    <glyph glyph-name="t" unicode="t" horiz-adv-x="1444" 
d="M58 1344h232l8 -8v-396q0 -109 132 -144h276l8 -8v-232l-8 -8h-260q-69 0 -148 28v-196q0 -90 124 -132h592q90 0 132 124q0 28 8 28h232l8 -8v-8q0 -232 -252 -360q-73 -24 -132 -24h-576q-232 0 -360 252q-24 73 -24 132v952z" />
    <glyph glyph-name="u" unicode="u" horiz-adv-x="1444" 
d="M58 796h232l8 -8v-408q0 -89 124 -132h580q106 0 144 124v416l8 8h232l8 -8v-780l-8 -8h-232q-8 0 -8 28q-64 -28 -136 -28h-572q-236 0 -360 248q-28 69 -28 132v408z" />
    <glyph glyph-name="v" unicode="v" horiz-adv-x="1444" 
d="M58 804h228l8 -8v-368l428 -164l428 164v368l8 8h228l8 -8v-532q-4 -8 -420 -168l-252 -96l-672 260v536z" />
    <glyph glyph-name="w" unicode="w" horiz-adv-x="2544" 
d="M58 796h232l8 -8v-408q0 -91 128 -132h576q106 0 144 124v416l8 8h236l8 -8v-408q0 -84 112 -128l32 -4h568q91 0 136 120v420l8 8h232l8 -8v-408q0 -213 -232 -348q-88 -32 -148 -32h-580q-115 0 -260 108q-156 -108 -256 -108h-580q-236 0 -360 248q-28 69 -28 132v408
z" />
    <glyph glyph-name="x" unicode="x" horiz-adv-x="1444" 
d="M58 796h228l8 -8v-44q59 -36 428 -208q369 172 428 208v44l8 8h228l8 -8v-200q-3 -11 -320 -160l-64 -28v-4q315 -145 384 -184v-204l-8 -8h-228l-8 8v44q-59 36 -428 208q-369 -172 -428 -208v-44l-8 -8h-228l-8 8v200q3 11 320 160l64 28v4q-315 145 -384 184v204z" />
    <glyph glyph-name="y" unicode="y" horiz-adv-x="1444" 
d="M58 800h232l8 -8v-396q0 -108 124 -140l36 -4h540q69 0 148 -28v568l8 8h232l8 -8v-956q0 -203 -212 -336q-86 -44 -176 -44h-572q-232 0 -360 252q-24 73 -24 132v8l8 8h232q7 0 16 -60q54 -92 124 -92h584q90 0 132 124v32q0 109 -132 144h-564q-239 0 -364 232
q-36 73 -36 148v408z" />
    <glyph glyph-name="z" unicode="z" horiz-adv-x="1444" 
d="M58 796h968q172 0 316 -196q52 -109 52 -176v-32q-19 -88 -88 -88h-984q55 -88 200 -88h864l8 -8v-200l-8 -8h-952q-232 0 -356 248q-28 69 -28 132v28q0 65 88 84h980v4q-59 76 -128 76q-10 11 -240 16h-104l-592 -8l-4 4v204z" />
    <glyph glyph-name="braceleft" unicode="{" horiz-adv-x="768" 
d="M338 1599h372l8 -8v-248l-8 -8h-232v-376q0 -192 -88 -280q88 -82 88 -276v-407h232l8 -8v-248l-8 -8h-372q-80 0 -108 112v595q0 76 -52 96l-128 24v236q0 14 116 24q64 23 64 104v564q28 112 108 112z" />
    <glyph glyph-name="bar" unicode="|" horiz-adv-x="344" 
d="M58 1599h228l8 -8v-1851l-8 -8h-228l-8 8v1851z" />
    <glyph glyph-name="braceright" unicode="}" horiz-adv-x="768" 
d="M58 1599h372q80 0 108 -112v-564q0 -112 140 -112q40 -5 40 -16v-232q0 -9 -124 -24q-56 -25 -56 -100v-595q-28 -112 -108 -112h-372l-8 8v248l8 8h232v407q0 189 88 280q-88 79 -88 276v376h-232l-8 8v248z" />
    <glyph glyph-name="asciitilde" unicode="~" horiz-adv-x="924" 
d="M318 837h36q87 0 204 -68l28 -4q38 0 80 44q204 -115 208 -124q-113 -164 -268 -164h-36q-87 0 -204 68l-28 4q-38 0 -80 -44q-204 115 -208 124q113 164 268 164z" />
    <glyph glyph-name="exclamdown" unicode="&#xa1;" horiz-adv-x="682" 
 />
    <glyph glyph-name="cent" unicode="&#xa2;" 
 />
    <glyph glyph-name="sterling" unicode="&#xa3;" 
 />
    <glyph glyph-name="currency" unicode="&#xa4;" 
 />
    <glyph glyph-name="yen" unicode="&#xa5;" 
 />
    <glyph glyph-name="brokenbar" unicode="&#xa6;" horiz-adv-x="532" 
 />
    <glyph glyph-name="section" unicode="&#xa7;" 
 />
    <glyph glyph-name="dieresis" unicode="&#xa8;" horiz-adv-x="682" 
 />
    <glyph glyph-name="copyright" unicode="&#xa9;" horiz-adv-x="1509" 
 />
    <glyph glyph-name="ordfeminine" unicode="&#xaa;" horiz-adv-x="758" 
 />
    <glyph glyph-name="guillemotleft" unicode="&#xab;" 
 />
    <glyph glyph-name="logicalnot" unicode="&#xac;" horiz-adv-x="1196" 
 />
    <glyph glyph-name="registered" unicode="&#xae;" horiz-adv-x="1509" 
 />
    <glyph glyph-name="macron" unicode="&#xaf;" horiz-adv-x="1131" 
 />
    <glyph glyph-name="degree" unicode="&#xb0;" horiz-adv-x="819" 
 />
    <glyph glyph-name="plusminus" unicode="&#xb1;" horiz-adv-x="1124" 
 />
    <glyph glyph-name="uni00B2" unicode="&#xb2;" horiz-adv-x="682" 
 />
    <glyph glyph-name="uni00B3" unicode="&#xb3;" horiz-adv-x="682" 
 />
    <glyph glyph-name="acute" unicode="&#xb4;" horiz-adv-x="682" 
 />
    <glyph glyph-name="mu" unicode="&#xb5;" horiz-adv-x="1180" 
 />
    <glyph glyph-name="paragraph" unicode="&#xb6;" horiz-adv-x="1100" 
 />
    <glyph glyph-name="periodcentered" unicode="&#xb7;" horiz-adv-x="569" 
 />
    <glyph glyph-name="periodcentered" unicode="&#x2219;" horiz-adv-x="569" 
 />
    <glyph glyph-name="cedilla" unicode="&#xb8;" horiz-adv-x="682" 
 />
    <glyph glyph-name="uni00B9" unicode="&#xb9;" horiz-adv-x="682" 
 />
    <glyph glyph-name="ordmasculine" unicode="&#xba;" horiz-adv-x="748" 
 />
    <glyph glyph-name="guillemotright" unicode="&#xbb;" 
 />
    <glyph glyph-name="onequarter" unicode="&#xbc;" horiz-adv-x="1708" 
 />
    <glyph glyph-name="onehalf" unicode="&#xbd;" horiz-adv-x="1708" 
 />
    <glyph glyph-name="threequarters" unicode="&#xbe;" horiz-adv-x="1708" 
 />
    <glyph glyph-name="questiondown" unicode="&#xbf;" horiz-adv-x="1251" 
 />
    <glyph glyph-name="Agrave" unicode="&#xc0;" horiz-adv-x="1366" 
 />
    <glyph glyph-name="Aacute" unicode="&#xc1;" horiz-adv-x="1366" 
 />
    <glyph glyph-name="Acircumflex" unicode="&#xc2;" horiz-adv-x="1366" 
 />
    <glyph glyph-name="Atilde" unicode="&#xc3;" horiz-adv-x="1366" 
 />
    <glyph glyph-name="Adieresis" unicode="&#xc4;" horiz-adv-x="1366" 
 />
    <glyph glyph-name="Aring" unicode="&#xc5;" horiz-adv-x="1366" 
 />
    <glyph glyph-name="AE" unicode="&#xc6;" horiz-adv-x="2048" 
 />
    <glyph glyph-name="Ccedilla" unicode="&#xc7;" horiz-adv-x="1479" 
 />
    <glyph glyph-name="Egrave" unicode="&#xc8;" horiz-adv-x="1366" 
 />
    <glyph glyph-name="Eacute" unicode="&#xc9;" horiz-adv-x="1366" 
 />
    <glyph glyph-name="Ecircumflex" unicode="&#xca;" horiz-adv-x="1366" 
 />
    <glyph glyph-name="Edieresis" unicode="&#xcb;" horiz-adv-x="1366" 
 />
    <glyph glyph-name="Igrave" unicode="&#xcc;" horiz-adv-x="569" 
 />
    <glyph glyph-name="Iacute" unicode="&#xcd;" horiz-adv-x="569" 
 />
    <glyph glyph-name="Icircumflex" unicode="&#xce;" horiz-adv-x="569" 
 />
    <glyph glyph-name="Idieresis" unicode="&#xcf;" horiz-adv-x="569" 
 />
    <glyph glyph-name="Eth" unicode="&#xd0;" horiz-adv-x="1479" 
 />
    <glyph glyph-name="Ntilde" unicode="&#xd1;" horiz-adv-x="1479" 
 />
    <glyph glyph-name="Ograve" unicode="&#xd2;" horiz-adv-x="1593" 
 />
    <glyph glyph-name="Oacute" unicode="&#xd3;" horiz-adv-x="1593" 
 />
    <glyph glyph-name="Ocircumflex" unicode="&#xd4;" horiz-adv-x="1593" 
 />
    <glyph glyph-name="Otilde" unicode="&#xd5;" horiz-adv-x="1593" 
 />
    <glyph glyph-name="Odieresis" unicode="&#xd6;" horiz-adv-x="1593" 
 />
    <glyph glyph-name="multiply" unicode="&#xd7;" horiz-adv-x="1196" 
 />
    <glyph glyph-name="Oslash" unicode="&#xd8;" horiz-adv-x="1593" 
 />
    <glyph glyph-name="Ugrave" unicode="&#xd9;" horiz-adv-x="1479" 
 />
    <glyph glyph-name="Uacute" unicode="&#xda;" horiz-adv-x="1479" 
 />
    <glyph glyph-name="Ucircumflex" unicode="&#xdb;" horiz-adv-x="1479" 
 />
    <glyph glyph-name="Udieresis" unicode="&#xdc;" horiz-adv-x="1479" 
 />
    <glyph glyph-name="Yacute" unicode="&#xdd;" horiz-adv-x="1366" 
 />
    <glyph glyph-name="Thorn" unicode="&#xde;" horiz-adv-x="1366" 
 />
    <glyph glyph-name="germandbls" unicode="&#xdf;" horiz-adv-x="1251" 
 />
    <glyph glyph-name="agrave" unicode="&#xe0;" 
 />
    <glyph glyph-name="aacute" unicode="&#xe1;" 
 />
    <glyph glyph-name="acircumflex" unicode="&#xe2;" 
 />
    <glyph glyph-name="atilde" unicode="&#xe3;" 
 />
    <glyph glyph-name="adieresis" unicode="&#xe4;" 
 />
    <glyph glyph-name="aring" unicode="&#xe5;" 
 />
    <glyph glyph-name="ae" unicode="&#xe6;" horiz-adv-x="1821" 
 />
    <glyph glyph-name="ccedilla" unicode="&#xe7;" horiz-adv-x="1024" 
 />
    <glyph glyph-name="egrave" unicode="&#xe8;" 
 />
    <glyph glyph-name="eacute" unicode="&#xe9;" 
 />
    <glyph glyph-name="ecircumflex" unicode="&#xea;" 
 />
    <glyph glyph-name="edieresis" unicode="&#xeb;" 
 />
    <glyph glyph-name="igrave" unicode="&#xec;" horiz-adv-x="569" 
 />
    <glyph glyph-name="iacute" unicode="&#xed;" horiz-adv-x="569" 
 />
    <glyph glyph-name="icircumflex" unicode="&#xee;" horiz-adv-x="569" 
 />
    <glyph glyph-name="idieresis" unicode="&#xef;" horiz-adv-x="569" 
 />
    <glyph glyph-name="eth" unicode="&#xf0;" 
 />
    <glyph glyph-name="ntilde" unicode="&#xf1;" 
 />
    <glyph glyph-name="ograve" unicode="&#xf2;" 
 />
    <glyph glyph-name="oacute" unicode="&#xf3;" 
 />
    <glyph glyph-name="ocircumflex" unicode="&#xf4;" 
 />
    <glyph glyph-name="otilde" unicode="&#xf5;" 
 />
    <glyph glyph-name="odieresis" unicode="&#xf6;" 
 />
    <glyph glyph-name="divide" unicode="&#xf7;" horiz-adv-x="1124" 
 />
    <glyph glyph-name="oslash" unicode="&#xf8;" horiz-adv-x="1251" 
 />
    <glyph glyph-name="ugrave" unicode="&#xf9;" 
 />
    <glyph glyph-name="uacute" unicode="&#xfa;" 
 />
    <glyph glyph-name="ucircumflex" unicode="&#xfb;" 
 />
    <glyph glyph-name="udieresis" unicode="&#xfc;" 
 />
    <glyph glyph-name="yacute" unicode="&#xfd;" horiz-adv-x="1024" 
 />
    <glyph glyph-name="thorn" unicode="&#xfe;" 
 />
    <glyph glyph-name="ydieresis" unicode="&#xff;" horiz-adv-x="1024" 
 />
    <glyph glyph-name="Amacron" unicode="&#x100;" horiz-adv-x="1366" 
 />
    <glyph glyph-name="amacron" unicode="&#x101;" 
 />
    <glyph glyph-name="Abreve" unicode="&#x102;" horiz-adv-x="1366" 
 />
    <glyph glyph-name="abreve" unicode="&#x103;" 
 />
    <glyph glyph-name="Aogonek" unicode="&#x104;" horiz-adv-x="1366" 
 />
    <glyph glyph-name="aogonek" unicode="&#x105;" 
 />
    <glyph glyph-name="Cacute" unicode="&#x106;" horiz-adv-x="1479" 
 />
    <glyph glyph-name="cacute" unicode="&#x107;" horiz-adv-x="1024" 
 />
    <glyph glyph-name="Ccircumflex" unicode="&#x108;" horiz-adv-x="1479" 
 />
    <glyph glyph-name="ccircumflex" unicode="&#x109;" horiz-adv-x="1024" 
 />
    <glyph glyph-name="Cdotaccent" unicode="&#x10a;" horiz-adv-x="1479" 
 />
    <glyph glyph-name="cdotaccent" unicode="&#x10b;" horiz-adv-x="1024" 
 />
    <glyph glyph-name="Ccaron" unicode="&#x10c;" horiz-adv-x="1479" 
 />
    <glyph glyph-name="ccaron" unicode="&#x10d;" horiz-adv-x="1024" 
 />
    <glyph glyph-name="Dcaron" unicode="&#x10e;" horiz-adv-x="1479" 
 />
    <glyph glyph-name="dcaron" unicode="&#x10f;" horiz-adv-x="1259" 
 />
    <glyph glyph-name="Dcroat" unicode="&#x110;" horiz-adv-x="1479" 
 />
    <glyph glyph-name="dcroat" unicode="&#x111;" 
 />
    <glyph glyph-name="Emacron" unicode="&#x112;" horiz-adv-x="1366" 
 />
    <glyph glyph-name="emacron" unicode="&#x113;" 
 />
    <glyph glyph-name="Ebreve" unicode="&#x114;" horiz-adv-x="1366" 
 />
    <glyph glyph-name="ebreve" unicode="&#x115;" 
 />
    <glyph glyph-name="Edotaccent" unicode="&#x116;" horiz-adv-x="1366" 
 />
    <glyph glyph-name="edotaccent" unicode="&#x117;" 
 />
    <glyph glyph-name="Eogonek" unicode="&#x118;" horiz-adv-x="1366" 
 />
    <glyph glyph-name="eogonek" unicode="&#x119;" 
 />
    <glyph glyph-name="Ecaron" unicode="&#x11a;" horiz-adv-x="1366" 
 />
    <glyph glyph-name="ecaron" unicode="&#x11b;" 
 />
    <glyph glyph-name="Gcircumflex" unicode="&#x11c;" horiz-adv-x="1593" 
 />
    <glyph glyph-name="gcircumflex" unicode="&#x11d;" 
 />
    <glyph glyph-name="Gbreve" unicode="&#x11e;" horiz-adv-x="1593" 
 />
    <glyph glyph-name="gbreve" unicode="&#x11f;" 
 />
    <glyph glyph-name="Gdotaccent" unicode="&#x120;" horiz-adv-x="1593" 
 />
    <glyph glyph-name="gdotaccent" unicode="&#x121;" 
 />
    <glyph glyph-name="Gcommaaccent" unicode="&#x122;" horiz-adv-x="1593" 
 />
    <glyph glyph-name="gcommaaccent" unicode="&#x123;" 
 />
    <glyph glyph-name="Hcircumflex" unicode="&#x124;" horiz-adv-x="1479" 
 />
    <glyph glyph-name="hcircumflex" unicode="&#x125;" 
 />
    <glyph glyph-name="Hbar" unicode="&#x126;" horiz-adv-x="1479" 
 />
    <glyph glyph-name="hbar" unicode="&#x127;" 
 />
    <glyph glyph-name="Itilde" unicode="&#x128;" horiz-adv-x="569" 
 />
    <glyph glyph-name="itilde" unicode="&#x129;" horiz-adv-x="569" 
 />
    <glyph glyph-name="Imacron" unicode="&#x12a;" horiz-adv-x="569" 
 />
    <glyph glyph-name="imacron" unicode="&#x12b;" horiz-adv-x="569" 
 />
    <glyph glyph-name="Ibreve" unicode="&#x12c;" horiz-adv-x="569" 
 />
    <glyph glyph-name="ibreve" unicode="&#x12d;" horiz-adv-x="569" 
 />
    <glyph glyph-name="Iogonek" unicode="&#x12e;" horiz-adv-x="569" 
 />
    <glyph glyph-name="iogonek" unicode="&#x12f;" horiz-adv-x="455" 
 />
    <glyph glyph-name="Idotaccent" unicode="&#x130;" horiz-adv-x="569" 
 />
    <glyph glyph-name="dotlessi" unicode="&#x131;" horiz-adv-x="569" 
 />
    <glyph glyph-name="IJ" unicode="&#x132;" horiz-adv-x="1505" 
 />
    <glyph glyph-name="ij" unicode="&#x133;" horiz-adv-x="909" 
 />
    <glyph glyph-name="Jcircumflex" unicode="&#x134;" horiz-adv-x="1024" 
 />
    <glyph glyph-name="jcircumflex" unicode="&#x135;" horiz-adv-x="455" 
 />
    <glyph glyph-name="Kcommaaccent" unicode="&#x136;" horiz-adv-x="1366" 
 />
    <glyph glyph-name="kcommaaccent" unicode="&#x137;" horiz-adv-x="1024" 
 />
    <glyph glyph-name="kgreenlandic" unicode="&#x138;" horiz-adv-x="1024" 
 />
    <glyph glyph-name="Lacute" unicode="&#x139;" 
 />
    <glyph glyph-name="lacute" unicode="&#x13a;" horiz-adv-x="455" 
 />
    <glyph glyph-name="Lcommaaccent" unicode="&#x13b;" 
 />
    <glyph glyph-name="lcommaaccent" unicode="&#x13c;" horiz-adv-x="455" 
 />
    <glyph glyph-name="Lcaron" unicode="&#x13d;" 
 />
    <glyph glyph-name="lcaron" unicode="&#x13e;" horiz-adv-x="597" 
 />
    <glyph glyph-name="Ldot" unicode="&#x13f;" 
 />
    <glyph glyph-name="ldot" unicode="&#x140;" horiz-adv-x="684" 
 />
    <glyph glyph-name="Lslash" unicode="&#x141;" 
 />
    <glyph glyph-name="lslash" unicode="&#x142;" horiz-adv-x="455" 
 />
    <glyph glyph-name="Nacute" unicode="&#x143;" horiz-adv-x="1479" 
 />
    <glyph glyph-name="nacute" unicode="&#x144;" 
 />
    <glyph glyph-name="Ncommaaccent" unicode="&#x145;" horiz-adv-x="1479" 
 />
    <glyph glyph-name="ncommaaccent" unicode="&#x146;" 
 />
    <glyph glyph-name="Ncaron" unicode="&#x147;" horiz-adv-x="1479" 
 />
    <glyph glyph-name="ncaron" unicode="&#x148;" 
 />
    <glyph glyph-name="napostrophe" unicode="&#x149;" horiz-adv-x="1237" 
 />
    <glyph glyph-name="Eng" unicode="&#x14a;" horiz-adv-x="1481" 
 />
    <glyph glyph-name="eng" unicode="&#x14b;" 
 />
    <glyph glyph-name="Omacron" unicode="&#x14c;" horiz-adv-x="1593" 
 />
    <glyph glyph-name="omacron" unicode="&#x14d;" 
 />
    <glyph glyph-name="Obreve" unicode="&#x14e;" horiz-adv-x="1593" 
 />
    <glyph glyph-name="obreve" unicode="&#x14f;" 
 />
    <glyph glyph-name="Ohungarumlaut" unicode="&#x150;" horiz-adv-x="1593" 
 />
    <glyph glyph-name="ohungarumlaut" unicode="&#x151;" 
 />
    <glyph glyph-name="OE" unicode="&#x152;" horiz-adv-x="2048" 
 />
    <glyph glyph-name="oe" unicode="&#x153;" horiz-adv-x="1933" 
 />
    <glyph glyph-name="Racute" unicode="&#x154;" horiz-adv-x="1479" 
 />
    <glyph glyph-name="racute" unicode="&#x155;" horiz-adv-x="682" 
 />
    <glyph glyph-name="Rcommaaccent" unicode="&#x156;" horiz-adv-x="1479" 
 />
    <glyph glyph-name="rcommaaccent" unicode="&#x157;" horiz-adv-x="682" 
 />
    <glyph glyph-name="Rcaron" unicode="&#x158;" horiz-adv-x="1479" 
 />
    <glyph glyph-name="rcaron" unicode="&#x159;" horiz-adv-x="682" 
 />
    <glyph glyph-name="Sacute" unicode="&#x15a;" horiz-adv-x="1366" 
 />
    <glyph glyph-name="sacute" unicode="&#x15b;" horiz-adv-x="1024" 
 />
    <glyph glyph-name="Scircumflex" unicode="&#x15c;" horiz-adv-x="1366" 
 />
    <glyph glyph-name="scircumflex" unicode="&#x15d;" horiz-adv-x="1024" 
 />
    <glyph glyph-name="Scedilla" unicode="&#x15e;" horiz-adv-x="1366" 
 />
    <glyph glyph-name="scedilla" unicode="&#x15f;" horiz-adv-x="1024" 
 />
    <glyph glyph-name="Scaron" unicode="&#x160;" horiz-adv-x="1366" 
 />
    <glyph glyph-name="scaron" unicode="&#x161;" horiz-adv-x="1024" 
 />
    <glyph glyph-name="Tcommaaccent" unicode="&#x162;" horiz-adv-x="1251" 
 />
    <glyph glyph-name="tcommaaccent" unicode="&#x163;" horiz-adv-x="569" 
 />
    <glyph glyph-name="Tcaron" unicode="&#x164;" horiz-adv-x="1251" 
 />
    <glyph glyph-name="tcaron" unicode="&#x165;" horiz-adv-x="768" 
 />
    <glyph glyph-name="Tbar" unicode="&#x166;" horiz-adv-x="1251" 
 />
    <glyph glyph-name="tbar" unicode="&#x167;" horiz-adv-x="569" 
 />
    <glyph glyph-name="Utilde" unicode="&#x168;" horiz-adv-x="1479" 
 />
    <glyph glyph-name="utilde" unicode="&#x169;" 
 />
    <glyph glyph-name="Umacron" unicode="&#x16a;" horiz-adv-x="1479" 
 />
    <glyph glyph-name="umacron" unicode="&#x16b;" 
 />
    <glyph glyph-name="Ubreve" unicode="&#x16c;" horiz-adv-x="1479" 
 />
    <glyph glyph-name="ubreve" unicode="&#x16d;" 
 />
    <glyph glyph-name="Uring" unicode="&#x16e;" horiz-adv-x="1479" 
 />
    <glyph glyph-name="uring" unicode="&#x16f;" 
 />
    <glyph glyph-name="Uhungarumlaut" unicode="&#x170;" horiz-adv-x="1479" 
 />
    <glyph glyph-name="uhungarumlaut" unicode="&#x171;" 
 />
    <glyph glyph-name="Uogonek" unicode="&#x172;" horiz-adv-x="1479" 
 />
    <glyph glyph-name="uogonek" unicode="&#x173;" 
 />
    <glyph glyph-name="Wcircumflex" unicode="&#x174;" horiz-adv-x="1933" 
 />
    <glyph glyph-name="wcircumflex" unicode="&#x175;" horiz-adv-x="1479" 
 />
    <glyph glyph-name="Ycircumflex" unicode="&#x176;" horiz-adv-x="1366" 
 />
    <glyph glyph-name="ycircumflex" unicode="&#x177;" horiz-adv-x="1024" 
 />
    <glyph glyph-name="Ydieresis" unicode="&#x178;" horiz-adv-x="1366" 
 />
    <glyph glyph-name="Zacute" unicode="&#x179;" horiz-adv-x="1251" 
 />
    <glyph glyph-name="zacute" unicode="&#x17a;" horiz-adv-x="1024" 
 />
    <glyph glyph-name="Zdotaccent" unicode="&#x17b;" horiz-adv-x="1251" 
 />
    <glyph glyph-name="zdotaccent" unicode="&#x17c;" horiz-adv-x="1024" 
 />
    <glyph glyph-name="Zcaron" unicode="&#x17d;" horiz-adv-x="1251" 
 />
    <glyph glyph-name="zcaron" unicode="&#x17e;" horiz-adv-x="1024" 
 />
    <glyph glyph-name="longs" unicode="&#x17f;" horiz-adv-x="455" 
 />
    <glyph glyph-name="florin" unicode="&#x192;" 
 />
    <glyph glyph-name="Aringacute" unicode="&#x1fa;" horiz-adv-x="1366" 
 />
    <glyph glyph-name="aringacute" unicode="&#x1fb;" 
 />
    <glyph glyph-name="AEacute" unicode="&#x1fc;" horiz-adv-x="2048" 
 />
    <glyph glyph-name="aeacute" unicode="&#x1fd;" horiz-adv-x="1821" 
 />
    <glyph glyph-name="Oslashacute" unicode="&#x1fe;" horiz-adv-x="1593" 
 />
    <glyph glyph-name="oslashacute" unicode="&#x1ff;" horiz-adv-x="1251" 
 />
    <glyph glyph-name="circumflex" unicode="&#x2c6;" horiz-adv-x="682" 
 />
    <glyph glyph-name="caron" unicode="&#x2c7;" horiz-adv-x="682" 
 />
    <glyph glyph-name="uni02C9" unicode="&#x2c9;" horiz-adv-x="682" 
 />
    <glyph glyph-name="breve" unicode="&#x2d8;" horiz-adv-x="682" 
 />
    <glyph glyph-name="dotaccent" unicode="&#x2d9;" horiz-adv-x="682" 
 />
    <glyph glyph-name="ring" unicode="&#x2da;" horiz-adv-x="682" 
 />
    <glyph glyph-name="ogonek" unicode="&#x2db;" horiz-adv-x="682" 
 />
    <glyph glyph-name="tilde" unicode="&#x2dc;" horiz-adv-x="682" 
 />
    <glyph glyph-name="hungarumlaut" unicode="&#x2dd;" horiz-adv-x="682" 
 />
    <glyph glyph-name="tonos" unicode="&#x384;" horiz-adv-x="682" 
 />
    <glyph glyph-name="dieresistonos" unicode="&#x385;" horiz-adv-x="682" 
 />
    <glyph glyph-name="Alphatonos" unicode="&#x386;" horiz-adv-x="1367" 
 />
    <glyph glyph-name="anoteleia" unicode="&#x387;" horiz-adv-x="569" 
 />
    <glyph glyph-name="Epsilontonos" unicode="&#x388;" horiz-adv-x="1606" 
 />
    <glyph glyph-name="Etatonos" unicode="&#x389;" horiz-adv-x="1716" 
 />
    <glyph glyph-name="Iotatonos" unicode="&#x38a;" horiz-adv-x="786" 
 />
    <glyph glyph-name="Omicrontonos" unicode="&#x38c;" horiz-adv-x="1586" 
 />
    <glyph glyph-name="Upsilontonos" unicode="&#x38e;" horiz-adv-x="1752" 
 />
    <glyph glyph-name="Omegatonos" unicode="&#x38f;" horiz-adv-x="1541" 
 />
    <glyph glyph-name="iotadieresistonos" unicode="&#x390;" horiz-adv-x="455" 
 />
    <glyph glyph-name="Alpha" unicode="&#x391;" horiz-adv-x="1366" 
 />
    <glyph glyph-name="Beta" unicode="&#x392;" horiz-adv-x="1366" 
 />
    <glyph glyph-name="Gamma" unicode="&#x393;" horiz-adv-x="1128" 
 />
    <glyph glyph-name="uni0394" unicode="&#x394;" horiz-adv-x="1368" 
 />
    <glyph glyph-name="Epsilon" unicode="&#x395;" horiz-adv-x="1366" 
 />
    <glyph glyph-name="Zeta" unicode="&#x396;" horiz-adv-x="1251" 
 />
    <glyph glyph-name="Eta" unicode="&#x397;" horiz-adv-x="1479" 
 />
    <glyph glyph-name="Theta" unicode="&#x398;" horiz-adv-x="1593" 
 />
    <glyph glyph-name="Iota" unicode="&#x399;" horiz-adv-x="569" 
 />
    <glyph glyph-name="Kappa" unicode="&#x39a;" horiz-adv-x="1366" 
 />
    <glyph glyph-name="Lambda" unicode="&#x39b;" horiz-adv-x="1368" 
 />
    <glyph glyph-name="Mu" unicode="&#x39c;" horiz-adv-x="1706" 
 />
    <glyph glyph-name="Nu" unicode="&#x39d;" horiz-adv-x="1479" 
 />
    <glyph glyph-name="Xi" unicode="&#x39e;" horiz-adv-x="1331" 
 />
    <glyph glyph-name="Omicron" unicode="&#x39f;" horiz-adv-x="1593" 
 />
    <glyph glyph-name="Pi" unicode="&#x3a0;" horiz-adv-x="1479" 
 />
    <glyph glyph-name="Rho" unicode="&#x3a1;" horiz-adv-x="1366" 
 />
    <glyph glyph-name="Sigma" unicode="&#x3a3;" horiz-adv-x="1266" 
 />
    <glyph glyph-name="Tau" unicode="&#x3a4;" horiz-adv-x="1251" 
 />
    <glyph glyph-name="Upsilon" unicode="&#x3a5;" horiz-adv-x="1366" 
 />
    <glyph glyph-name="Phi" unicode="&#x3a6;" horiz-adv-x="1634" 
 />
    <glyph glyph-name="Chi" unicode="&#x3a7;" horiz-adv-x="1366" 
 />
    <glyph glyph-name="Psi" unicode="&#x3a8;" horiz-adv-x="1711" 
 />
    <glyph glyph-name="uni03A9" unicode="&#x3a9;" horiz-adv-x="1531" 
 />
    <glyph glyph-name="Iotadieresis" unicode="&#x3aa;" horiz-adv-x="569" 
 />
    <glyph glyph-name="Upsilondieresis" unicode="&#x3ab;" horiz-adv-x="1366" 
 />
    <glyph glyph-name="alphatonos" unicode="&#x3ac;" horiz-adv-x="1184" 
 />
    <glyph glyph-name="epsilontonos" unicode="&#x3ad;" horiz-adv-x="913" 
 />
    <glyph glyph-name="etatonos" unicode="&#x3ae;" 
 />
    <glyph glyph-name="iotatonos" unicode="&#x3af;" horiz-adv-x="455" 
 />
    <glyph glyph-name="upsilondieresistonos" unicode="&#x3b0;" horiz-adv-x="1120" 
 />
    <glyph glyph-name="alpha" unicode="&#x3b1;" horiz-adv-x="1184" 
 />
    <glyph glyph-name="beta" unicode="&#x3b2;" horiz-adv-x="1178" 
 />
    <glyph glyph-name="gamma" unicode="&#x3b3;" horiz-adv-x="1024" 
 />
    <glyph glyph-name="delta" unicode="&#x3b4;" horiz-adv-x="1140" 
 />
    <glyph glyph-name="epsilon" unicode="&#x3b5;" horiz-adv-x="913" 
 />
    <glyph glyph-name="zeta" unicode="&#x3b6;" horiz-adv-x="903" 
 />
    <glyph glyph-name="eta" unicode="&#x3b7;" 
 />
    <glyph glyph-name="theta" unicode="&#x3b8;" 
 />
    <glyph glyph-name="iota" unicode="&#x3b9;" horiz-adv-x="455" 
 />
    <glyph glyph-name="kappa" unicode="&#x3ba;" horiz-adv-x="1024" 
 />
    <glyph glyph-name="lambda" unicode="&#x3bb;" horiz-adv-x="1024" 
 />
    <glyph glyph-name="uni03BC" unicode="&#x3bc;" horiz-adv-x="1180" 
 />
    <glyph glyph-name="nu" unicode="&#x3bd;" horiz-adv-x="1024" 
 />
    <glyph glyph-name="xi" unicode="&#x3be;" horiz-adv-x="917" 
 />
    <glyph glyph-name="omicron" unicode="&#x3bf;" 
 />
    <glyph glyph-name="pi" unicode="&#x3c0;" horiz-adv-x="1413" 
 />
    <glyph glyph-name="rho" unicode="&#x3c1;" horiz-adv-x="1165" 
 />
    <glyph glyph-name="sigma1" unicode="&#x3c2;" horiz-adv-x="987" 
 />
    <glyph glyph-name="sigma" unicode="&#x3c3;" horiz-adv-x="1264" 
 />
    <glyph glyph-name="tau" unicode="&#x3c4;" horiz-adv-x="809" 
 />
    <glyph glyph-name="upsilon" unicode="&#x3c5;" horiz-adv-x="1120" 
 />
    <glyph glyph-name="phi" unicode="&#x3c6;" horiz-adv-x="1328" 
 />
    <glyph glyph-name="chi" unicode="&#x3c7;" horiz-adv-x="1075" 
 />
    <glyph glyph-name="psi" unicode="&#x3c8;" horiz-adv-x="1460" 
 />
    <glyph glyph-name="omega" unicode="&#x3c9;" horiz-adv-x="1599" 
 />
    <glyph glyph-name="iotadieresis" unicode="&#x3ca;" horiz-adv-x="455" 
 />
    <glyph glyph-name="upsilondieresis" unicode="&#x3cb;" horiz-adv-x="1120" 
 />
    <glyph glyph-name="omicrontonos" unicode="&#x3cc;" 
 />
    <glyph glyph-name="upsilontonos" unicode="&#x3cd;" horiz-adv-x="1120" 
 />
    <glyph glyph-name="omegatonos" unicode="&#x3ce;" horiz-adv-x="1599" 
 />
    <glyph glyph-name="afii10023" unicode="&#x401;" horiz-adv-x="1367" 
 />
    <glyph glyph-name="afii10051" unicode="&#x402;" horiz-adv-x="1771" 
 />
    <glyph glyph-name="afii10052" unicode="&#x403;" horiz-adv-x="1109" 
 />
    <glyph glyph-name="afii10053" unicode="&#x404;" horiz-adv-x="1472" 
 />
    <glyph glyph-name="afii10054" unicode="&#x405;" horiz-adv-x="1366" 
 />
    <glyph glyph-name="afii10055" unicode="&#x406;" horiz-adv-x="569" 
 />
    <glyph glyph-name="afii10056" unicode="&#x407;" horiz-adv-x="569" 
 />
    <glyph glyph-name="afii10057" unicode="&#x408;" horiz-adv-x="1024" 
 />
    <glyph glyph-name="afii10058" unicode="&#x409;" horiz-adv-x="2165" 
 />
    <glyph glyph-name="afii10059" unicode="&#x40a;" horiz-adv-x="2069" 
 />
    <glyph glyph-name="afii10060" unicode="&#x40b;" horiz-adv-x="1749" 
 />
    <glyph glyph-name="afii10061" unicode="&#x40c;" horiz-adv-x="1193" 
 />
    <glyph glyph-name="afii10062" unicode="&#x40e;" horiz-adv-x="1301" 
 />
    <glyph glyph-name="afii10145" unicode="&#x40f;" horiz-adv-x="1472" 
 />
    <glyph glyph-name="afii10017" unicode="&#x410;" horiz-adv-x="1366" 
 />
    <glyph glyph-name="afii10018" unicode="&#x411;" horiz-adv-x="1344" 
 />
    <glyph glyph-name="afii10019" unicode="&#x412;" horiz-adv-x="1366" 
 />
    <glyph glyph-name="afii10020" unicode="&#x413;" horiz-adv-x="1109" 
 />
    <glyph glyph-name="afii10021" unicode="&#x414;" horiz-adv-x="1387" 
 />
    <glyph glyph-name="afii10022" unicode="&#x415;" horiz-adv-x="1366" 
 />
    <glyph glyph-name="afii10024" unicode="&#x416;" horiz-adv-x="1891" 
 />
    <glyph glyph-name="afii10025" unicode="&#x417;" horiz-adv-x="1237" 
 />
    <glyph glyph-name="afii10026" unicode="&#x418;" horiz-adv-x="1472" 
 />
    <glyph glyph-name="afii10027" unicode="&#x419;" horiz-adv-x="1472" 
 />
    <glyph glyph-name="afii10028" unicode="&#x41a;" horiz-adv-x="1193" 
 />
    <glyph glyph-name="afii10029" unicode="&#x41b;" horiz-adv-x="1344" 
 />
    <glyph glyph-name="afii10030" unicode="&#x41c;" horiz-adv-x="1706" 
 />
    <glyph glyph-name="afii10031" unicode="&#x41d;" horiz-adv-x="1479" 
 />
    <glyph glyph-name="afii10032" unicode="&#x41e;" horiz-adv-x="1593" 
 />
    <glyph glyph-name="afii10033" unicode="&#x41f;" horiz-adv-x="1472" 
 />
    <glyph glyph-name="afii10034" unicode="&#x420;" horiz-adv-x="1366" 
 />
    <glyph glyph-name="afii10035" unicode="&#x421;" horiz-adv-x="1479" 
 />
    <glyph glyph-name="afii10036" unicode="&#x422;" horiz-adv-x="1251" 
 />
    <glyph glyph-name="afii10037" unicode="&#x423;" horiz-adv-x="1301" 
 />
    <glyph glyph-name="afii10038" unicode="&#x424;" horiz-adv-x="1557" 
 />
    <glyph glyph-name="afii10039" unicode="&#x425;" horiz-adv-x="1366" 
 />
    <glyph glyph-name="afii10040" unicode="&#x426;" horiz-adv-x="1515" 
 />
    <glyph glyph-name="afii10041" unicode="&#x427;" horiz-adv-x="1365" 
 />
    <glyph glyph-name="afii10042" unicode="&#x428;" horiz-adv-x="1877" 
 />
    <glyph glyph-name="afii10043" unicode="&#x429;" horiz-adv-x="1920" 
 />
    <glyph glyph-name="afii10044" unicode="&#x42a;" horiz-adv-x="1621" 
 />
    <glyph glyph-name="afii10045" unicode="&#x42b;" horiz-adv-x="1813" 
 />
    <glyph glyph-name="afii10046" unicode="&#x42c;" horiz-adv-x="1344" 
 />
    <glyph glyph-name="afii10047" unicode="&#x42d;" horiz-adv-x="1472" 
 />
    <glyph glyph-name="afii10048" unicode="&#x42e;" horiz-adv-x="2069" 
 />
    <glyph glyph-name="afii10049" unicode="&#x42f;" horiz-adv-x="1479" 
 />
    <glyph glyph-name="afii10065" unicode="&#x430;" 
 />
    <glyph glyph-name="afii10066" unicode="&#x431;" horiz-adv-x="1173" 
 />
    <glyph glyph-name="afii10067" unicode="&#x432;" horiz-adv-x="1088" 
 />
    <glyph glyph-name="afii10068" unicode="&#x433;" horiz-adv-x="747" 
 />
    <glyph glyph-name="afii10069" unicode="&#x434;" horiz-adv-x="1195" 
 />
    <glyph glyph-name="afii10070" unicode="&#x435;" 
 />
    <glyph glyph-name="afii10072" unicode="&#x436;" horiz-adv-x="1370" 
 />
    <glyph glyph-name="afii10073" unicode="&#x437;" horiz-adv-x="939" 
 />
    <glyph glyph-name="afii10074" unicode="&#x438;" horiz-adv-x="1144" 
 />
    <glyph glyph-name="afii10075" unicode="&#x439;" horiz-adv-x="1144" 
 />
    <glyph glyph-name="afii10076" unicode="&#x43a;" horiz-adv-x="896" 
 />
    <glyph glyph-name="afii10077" unicode="&#x43b;" horiz-adv-x="1195" 
 />
    <glyph glyph-name="afii10078" unicode="&#x43c;" horiz-adv-x="1408" 
 />
    <glyph glyph-name="afii10079" unicode="&#x43d;" horiz-adv-x="1131" 
 />
    <glyph glyph-name="afii10080" unicode="&#x43e;" 
 />
    <glyph glyph-name="afii10081" unicode="&#x43f;" horiz-adv-x="1109" 
 />
    <glyph glyph-name="afii10082" unicode="&#x440;" 
 />
    <glyph glyph-name="afii10083" unicode="&#x441;" horiz-adv-x="1024" 
 />
    <glyph glyph-name="afii10084" unicode="&#x442;" horiz-adv-x="938" 
 />
    <glyph glyph-name="afii10085" unicode="&#x443;" horiz-adv-x="1024" 
 />
    <glyph glyph-name="afii10086" unicode="&#x444;" horiz-adv-x="1685" 
 />
    <glyph glyph-name="afii10087" unicode="&#x445;" horiz-adv-x="1024" 
 />
    <glyph glyph-name="afii10088" unicode="&#x446;" horiz-adv-x="1173" 
 />
    <glyph glyph-name="afii10089" unicode="&#x447;" horiz-adv-x="1067" 
 />
    <glyph glyph-name="afii10090" unicode="&#x448;" horiz-adv-x="1643" 
 />
    <glyph glyph-name="afii10091" unicode="&#x449;" horiz-adv-x="1685" 
 />
    <glyph glyph-name="afii10092" unicode="&#x44a;" horiz-adv-x="1280" 
 />
    <glyph glyph-name="afii10093" unicode="&#x44b;" horiz-adv-x="1472" 
 />
    <glyph glyph-name="afii10094" unicode="&#x44c;" horiz-adv-x="1067" 
 />
    <glyph glyph-name="afii10095" unicode="&#x44d;" horiz-adv-x="1045" 
 />
    <glyph glyph-name="afii10096" unicode="&#x44e;" horiz-adv-x="1536" 
 />
    <glyph glyph-name="afii10097" unicode="&#x44f;" horiz-adv-x="1109" 
 />
    <glyph glyph-name="afii10071" unicode="&#x451;" 
 />
    <glyph glyph-name="afii10099" unicode="&#x452;" 
 />
    <glyph glyph-name="afii10100" unicode="&#x453;" horiz-adv-x="747" 
 />
    <glyph glyph-name="afii10101" unicode="&#x454;" horiz-adv-x="1045" 
 />
    <glyph glyph-name="afii10102" unicode="&#x455;" horiz-adv-x="1024" 
 />
    <glyph glyph-name="afii10103" unicode="&#x456;" horiz-adv-x="455" 
 />
    <glyph glyph-name="afii10104" unicode="&#x457;" horiz-adv-x="569" 
 />
    <glyph glyph-name="afii10105" unicode="&#x458;" horiz-adv-x="455" 
 />
    <glyph glyph-name="afii10106" unicode="&#x459;" horiz-adv-x="1856" 
 />
    <glyph glyph-name="afii10107" unicode="&#x45a;" horiz-adv-x="1664" 
 />
    <glyph glyph-name="afii10108" unicode="&#x45b;" 
 />
    <glyph glyph-name="afii10109" unicode="&#x45c;" horiz-adv-x="896" 
 />
    <glyph glyph-name="afii10110" unicode="&#x45e;" horiz-adv-x="1024" 
 />
    <glyph glyph-name="afii10193" unicode="&#x45f;" horiz-adv-x="1131" 
 />
    <glyph glyph-name="afii10050" unicode="&#x490;" horiz-adv-x="1001" 
 />
    <glyph glyph-name="afii10098" unicode="&#x491;" horiz-adv-x="842" 
 />
    <glyph glyph-name="Wgrave" unicode="&#x1e80;" horiz-adv-x="1933" 
 />
    <glyph glyph-name="wgrave" unicode="&#x1e81;" horiz-adv-x="1479" 
 />
    <glyph glyph-name="Wacute" unicode="&#x1e82;" horiz-adv-x="1933" 
 />
    <glyph glyph-name="wacute" unicode="&#x1e83;" horiz-adv-x="1479" 
 />
    <glyph glyph-name="Wdieresis" unicode="&#x1e84;" horiz-adv-x="1933" 
 />
    <glyph glyph-name="wdieresis" unicode="&#x1e85;" horiz-adv-x="1479" 
 />
    <glyph glyph-name="Ygrave" unicode="&#x1ef2;" horiz-adv-x="1366" 
 />
    <glyph glyph-name="ygrave" unicode="&#x1ef3;" horiz-adv-x="1024" 
 />
    <glyph glyph-name="endash" unicode="&#x2013;" 
 />
    <glyph glyph-name="emdash" unicode="&#x2014;" horiz-adv-x="2048" 
 />
    <glyph glyph-name="afii00208" unicode="&#x2015;" horiz-adv-x="2048" 
 />
    <glyph glyph-name="underscoredbl" unicode="&#x2017;" horiz-adv-x="1131" 
 />
    <glyph glyph-name="quoteleft" unicode="&#x2018;" horiz-adv-x="455" 
 />
    <glyph glyph-name="quoteright" unicode="&#x2019;" horiz-adv-x="455" 
 />
    <glyph glyph-name="quotesinglbase" unicode="&#x201a;" horiz-adv-x="455" 
 />
    <glyph glyph-name="quotereversed" unicode="&#x201b;" horiz-adv-x="455" 
 />
    <glyph glyph-name="quotedblleft" unicode="&#x201c;" horiz-adv-x="682" 
 />
    <glyph glyph-name="quotedblright" unicode="&#x201d;" horiz-adv-x="682" 
 />
    <glyph glyph-name="quotedblbase" unicode="&#x201e;" horiz-adv-x="682" 
 />
    <glyph glyph-name="dagger" unicode="&#x2020;" 
 />
    <glyph glyph-name="daggerdbl" unicode="&#x2021;" 
 />
    <glyph glyph-name="bullet" unicode="&#x2022;" horiz-adv-x="717" 
 />
    <glyph glyph-name="ellipsis" unicode="&#x2026;" horiz-adv-x="2048" 
 />
    <glyph glyph-name="perthousand" unicode="&#x2030;" horiz-adv-x="2048" 
 />
    <glyph glyph-name="minute" unicode="&#x2032;" horiz-adv-x="384" 
 />
    <glyph glyph-name="second" unicode="&#x2033;" horiz-adv-x="725" 
 />
    <glyph glyph-name="guilsinglleft" unicode="&#x2039;" horiz-adv-x="682" 
 />
    <glyph glyph-name="guilsinglright" unicode="&#x203a;" horiz-adv-x="682" 
 />
    <glyph glyph-name="exclamdbl" unicode="&#x203c;" horiz-adv-x="1024" 
 />
    <glyph glyph-name="uni203E" unicode="&#x203e;" horiz-adv-x="682" 
 />
    <glyph glyph-name="fraction" unicode="&#x2044;" horiz-adv-x="342" 
 />
    <glyph glyph-name="fraction" unicode="&#x2215;" horiz-adv-x="342" 
 />
    <glyph glyph-name="uni207F" unicode="&#x207f;" horiz-adv-x="747" 
 />
    <glyph glyph-name="franc" unicode="&#x20a3;" 
 />
    <glyph glyph-name="lira" unicode="&#x20a4;" 
 />
    <glyph glyph-name="peseta" unicode="&#x20a7;" horiz-adv-x="2240" 
 />
    <glyph glyph-name="Euro" unicode="&#x20ac;" 
 />
    <glyph glyph-name="afii61248" unicode="&#x2105;" horiz-adv-x="1813" 
 />
    <glyph glyph-name="afii61289" unicode="&#x2113;" horiz-adv-x="662" 
 />
    <glyph glyph-name="afii61352" unicode="&#x2116;" horiz-adv-x="2197" 
 />
    <glyph glyph-name="trademark" unicode="&#x2122;" horiz-adv-x="2048" 
 />
    <glyph glyph-name="Omega" unicode="&#x2126;" horiz-adv-x="1573" 
 />
    <glyph glyph-name="estimated" unicode="&#x212e;" horiz-adv-x="1229" 
 />
    <glyph glyph-name="oneeighth" unicode="&#x215b;" horiz-adv-x="1708" 
 />
    <glyph glyph-name="threeeighths" unicode="&#x215c;" horiz-adv-x="1708" 
 />
    <glyph glyph-name="fiveeighths" unicode="&#x215d;" horiz-adv-x="1708" 
 />
    <glyph glyph-name="seveneighths" unicode="&#x215e;" horiz-adv-x="1708" 
 />
    <glyph glyph-name="arrowleft" unicode="&#x2190;" horiz-adv-x="2048" 
 />
    <glyph glyph-name="arrowup" unicode="&#x2191;" horiz-adv-x="1024" 
 />
    <glyph glyph-name="arrowright" unicode="&#x2192;" horiz-adv-x="2048" 
 />
    <glyph glyph-name="arrowdown" unicode="&#x2193;" horiz-adv-x="1024" 
 />
    <glyph glyph-name="arrowboth" unicode="&#x2194;" horiz-adv-x="2048" 
 />
    <glyph glyph-name="arrowupdn" unicode="&#x2195;" horiz-adv-x="1024" 
 />
    <glyph glyph-name="arrowupdnbse" unicode="&#x21a8;" horiz-adv-x="1024" 
 />
    <glyph glyph-name="partialdiff" unicode="&#x2202;" horiz-adv-x="1012" 
 />
    <glyph glyph-name="Delta" unicode="&#x2206;" horiz-adv-x="1253" 
 />
    <glyph glyph-name="product" unicode="&#x220f;" horiz-adv-x="1686" 
 />
    <glyph glyph-name="summation" unicode="&#x2211;" horiz-adv-x="1460" 
 />
    <glyph glyph-name="minus" unicode="&#x2212;" horiz-adv-x="1196" 
 />
    <glyph glyph-name="radical" unicode="&#x221a;" horiz-adv-x="1124" 
 />
    <glyph glyph-name="infinity" unicode="&#x221e;" horiz-adv-x="1460" 
 />
    <glyph glyph-name="orthogonal" unicode="&#x221f;" horiz-adv-x="2005" 
 />
    <glyph glyph-name="intersection" unicode="&#x2229;" horiz-adv-x="1472" 
 />
    <glyph glyph-name="integral" unicode="&#x222b;" horiz-adv-x="561" 
 />
    <glyph glyph-name="approxequal" unicode="&#x2248;" horiz-adv-x="1124" 
 />
    <glyph glyph-name="notequal" unicode="&#x2260;" horiz-adv-x="1124" 
 />
    <glyph glyph-name="equivalence" unicode="&#x2261;" horiz-adv-x="1195" 
 />
    <glyph glyph-name="lessequal" unicode="&#x2264;" horiz-adv-x="1124" 
 />
    <glyph glyph-name="greaterequal" unicode="&#x2265;" horiz-adv-x="1124" 
 />
    <glyph glyph-name="house" unicode="&#x2302;" horiz-adv-x="1237" 
 />
    <glyph glyph-name="revlogicalnot" unicode="&#x2310;" horiz-adv-x="1196" 
 />
    <glyph glyph-name="integraltp" unicode="&#x2320;" horiz-adv-x="1237" 
 />
    <glyph glyph-name="integralbt" unicode="&#x2321;" horiz-adv-x="1237" 
 />
    <glyph glyph-name="SF100000" unicode="&#x2500;" horiz-adv-x="1451" 
 />
    <glyph glyph-name="SF110000" unicode="&#x2502;" horiz-adv-x="1280" 
 />
    <glyph glyph-name="SF010000" unicode="&#x250c;" horiz-adv-x="1451" 
 />
    <glyph glyph-name="SF030000" unicode="&#x2510;" horiz-adv-x="1451" 
 />
    <glyph glyph-name="SF020000" unicode="&#x2514;" horiz-adv-x="1451" 
 />
    <glyph glyph-name="SF040000" unicode="&#x2518;" horiz-adv-x="1451" 
 />
    <glyph glyph-name="SF080000" unicode="&#x251c;" horiz-adv-x="1451" 
 />
    <glyph glyph-name="SF090000" unicode="&#x2524;" horiz-adv-x="1451" 
 />
    <glyph glyph-name="SF060000" unicode="&#x252c;" horiz-adv-x="1451" 
 />
    <glyph glyph-name="SF070000" unicode="&#x2534;" horiz-adv-x="1451" 
 />
    <glyph glyph-name="SF050000" unicode="&#x253c;" horiz-adv-x="1451" 
 />
    <glyph glyph-name="SF430000" unicode="&#x2550;" horiz-adv-x="1451" 
 />
    <glyph glyph-name="SF240000" unicode="&#x2551;" horiz-adv-x="1451" 
 />
    <glyph glyph-name="SF510000" unicode="&#x2552;" horiz-adv-x="1451" 
 />
    <glyph glyph-name="SF520000" unicode="&#x2553;" horiz-adv-x="1451" 
 />
    <glyph glyph-name="SF390000" unicode="&#x2554;" horiz-adv-x="1451" 
 />
    <glyph glyph-name="SF220000" unicode="&#x2555;" horiz-adv-x="1451" 
 />
    <glyph glyph-name="SF210000" unicode="&#x2556;" horiz-adv-x="1451" 
 />
    <glyph glyph-name="SF250000" unicode="&#x2557;" horiz-adv-x="1451" 
 />
    <glyph glyph-name="SF500000" unicode="&#x2558;" horiz-adv-x="1451" 
 />
    <glyph glyph-name="SF490000" unicode="&#x2559;" horiz-adv-x="1451" 
 />
    <glyph glyph-name="SF380000" unicode="&#x255a;" horiz-adv-x="1451" 
 />
    <glyph glyph-name="SF280000" unicode="&#x255b;" horiz-adv-x="1451" 
 />
    <glyph glyph-name="SF270000" unicode="&#x255c;" horiz-adv-x="1451" 
 />
    <glyph glyph-name="SF260000" unicode="&#x255d;" horiz-adv-x="1451" 
 />
    <glyph glyph-name="SF360000" unicode="&#x255e;" horiz-adv-x="1451" 
 />
    <glyph glyph-name="SF370000" unicode="&#x255f;" horiz-adv-x="1451" 
 />
    <glyph glyph-name="SF420000" unicode="&#x2560;" horiz-adv-x="1451" 
 />
    <glyph glyph-name="SF190000" unicode="&#x2561;" horiz-adv-x="1451" 
 />
    <glyph glyph-name="SF200000" unicode="&#x2562;" horiz-adv-x="1451" 
 />
    <glyph glyph-name="SF230000" unicode="&#x2563;" horiz-adv-x="1451" 
 />
    <glyph glyph-name="SF470000" unicode="&#x2564;" horiz-adv-x="1451" 
 />
    <glyph glyph-name="SF480000" unicode="&#x2565;" horiz-adv-x="1451" 
 />
    <glyph glyph-name="SF410000" unicode="&#x2566;" horiz-adv-x="1451" 
 />
    <glyph glyph-name="SF450000" unicode="&#x2567;" horiz-adv-x="1451" 
 />
    <glyph glyph-name="SF460000" unicode="&#x2568;" horiz-adv-x="1451" 
 />
    <glyph glyph-name="SF400000" unicode="&#x2569;" horiz-adv-x="1451" 
 />
    <glyph glyph-name="SF540000" unicode="&#x256a;" horiz-adv-x="1451" 
 />
    <glyph glyph-name="SF530000" unicode="&#x256b;" horiz-adv-x="1451" 
 />
    <glyph glyph-name="SF440000" unicode="&#x256c;" horiz-adv-x="1451" 
 />
    <glyph glyph-name="upblock" unicode="&#x2580;" horiz-adv-x="1451" 
 />
    <glyph glyph-name="dnblock" unicode="&#x2584;" horiz-adv-x="1451" 
 />
    <glyph glyph-name="block" unicode="&#x2588;" horiz-adv-x="1451" 
 />
    <glyph glyph-name="lfblock" unicode="&#x258c;" horiz-adv-x="1451" 
 />
    <glyph glyph-name="rtblock" unicode="&#x2590;" horiz-adv-x="1451" 
 />
    <glyph glyph-name="ltshade" unicode="&#x2591;" horiz-adv-x="1451" 
 />
    <glyph glyph-name="shade" unicode="&#x2592;" horiz-adv-x="1451" 
 />
    <glyph glyph-name="dkshade" unicode="&#x2593;" horiz-adv-x="1493" 
 />
    <glyph glyph-name="filledbox" unicode="&#x25a0;" horiz-adv-x="1237" 
 />
    <glyph glyph-name="H22073" unicode="&#x25a1;" horiz-adv-x="1237" 
 />
    <glyph glyph-name="H18543" unicode="&#x25aa;" horiz-adv-x="726" 
 />
    <glyph glyph-name="H18551" unicode="&#x25ab;" horiz-adv-x="726" 
 />
    <glyph glyph-name="filledrect" unicode="&#x25ac;" horiz-adv-x="2048" 
 />
    <glyph glyph-name="triagup" unicode="&#x25b2;" horiz-adv-x="2027" 
 />
    <glyph glyph-name="triagrt" unicode="&#x25ba;" horiz-adv-x="2027" 
 />
    <glyph glyph-name="triagdn" unicode="&#x25bc;" horiz-adv-x="2027" 
 />
    <glyph glyph-name="triaglf" unicode="&#x25c4;" horiz-adv-x="2027" 
 />
    <glyph glyph-name="lozenge" unicode="&#x25ca;" horiz-adv-x="1012" 
 />
    <glyph glyph-name="circle" unicode="&#x25cb;" horiz-adv-x="1237" 
 />
    <glyph glyph-name="H18533" unicode="&#x25cf;" horiz-adv-x="1237" 
 />
    <glyph glyph-name="invbullet" unicode="&#x25d8;" horiz-adv-x="1237" 
 />
    <glyph glyph-name="invcircle" unicode="&#x25d9;" horiz-adv-x="1237" 
 />
    <glyph glyph-name="openbullet" unicode="&#x25e6;" horiz-adv-x="726" 
 />
    <glyph glyph-name="smileface" unicode="&#x263a;" horiz-adv-x="2091" 
 />
    <glyph glyph-name="invsmileface" unicode="&#x263b;" horiz-adv-x="2155" 
 />
    <glyph glyph-name="sun" unicode="&#x263c;" horiz-adv-x="1877" 
 />
    <glyph glyph-name="female" unicode="&#x2640;" horiz-adv-x="1536" 
 />
    <glyph glyph-name="male" unicode="&#x2642;" horiz-adv-x="1536" 
 />
    <glyph glyph-name="spade" unicode="&#x2660;" horiz-adv-x="1088" 
 />
    <glyph glyph-name="club" unicode="&#x2663;" horiz-adv-x="1344" 
 />
    <glyph glyph-name="heart" unicode="&#x2665;" horiz-adv-x="1216" 
 />
    <glyph glyph-name="diamond" unicode="&#x2666;" horiz-adv-x="1045" 
 />
    <glyph glyph-name="musicalnote" unicode="&#x266a;" horiz-adv-x="1024" 
 />
    <glyph glyph-name="musicalnotedbl" unicode="&#x266b;" horiz-adv-x="1536" 
 />
    <glyph glyph-name="uniF001" unicode="&#xf001;" horiz-adv-x="1024" 
 />
    <glyph glyph-name="uniF001" unicode="&#xfb01;" horiz-adv-x="1024" 
 />
    <glyph glyph-name="uniF002" unicode="&#xf002;" horiz-adv-x="1024" 
 />
    <glyph glyph-name="uniF002" unicode="&#xfb02;" horiz-adv-x="1024" 
 />
    <glyph glyph-name="uniF004" unicode="&#xf004;" horiz-adv-x="682" 
 />
    <glyph glyph-name="uniF005" unicode="&#xf005;" horiz-adv-x="682" 
 />
    <glyph glyph-name=".notdef.001" horiz-adv-x="1124" 
d="M50 0v1280h1024v-1280h-1024zM82 32h960v1216h-960v-1216z" />
    </font>
</defs>
</svg>
