<?xml version="1.0" standalone="no"?>
<!DOCTYPE svg PUBLIC "-//W3C//DTD SVG 1.1//EN" "http://www.w3.org/Graphics/SVG/1.1/DTD/svg11.dtd" >
<svg xmlns="http://www.w3.org/2000/svg" xmlns:xlink="http://www.w3.org/1999/xlink" version="1.1">
<metadata>
Created by FontForge 20170731 at Tue Aug  7 10:11:14 2012
 By Aleksey,,,
Copyright (c) 2012 by Brittney Murphy. All rights reserved.
</metadata>
<defs>
<font id="alwaysforever" horiz-adv-x="277" >
  <font-face 
    font-family="always  forever"
    font-weight="400"
    font-stretch="normal"
    units-per-em="1000"
    panose-1="0 0 0 0 0 0 0 0 0 0"
    ascent="750"
    descent="-250"
    x-height="480"
    cap-height="648"
    bbox="-142.75 -422.125 565.614 731"
    underline-thickness="50"
    underline-position="-150"
    unicode-range="U+0020-2212"
  />
<missing-glyph horiz-adv-x="219" 
 />
    <glyph glyph-name=".notdef" horiz-adv-x="219" 
 />
    <glyph glyph-name=".null" horiz-adv-x="0" 
 />
    <glyph glyph-name="nonmarkingreturn" horiz-adv-x="333" 
 />
    <glyph glyph-name="space" unicode=" " horiz-adv-x="188" 
 />
    <glyph glyph-name="exclam" unicode="!" horiz-adv-x="128" 
d="M43 635q2 11 10 11t10 -11q-1 -128 -0.5 -252.5t11.5 -251.5q-3 -9 -10.5 -8.5t-9.5 8.5q-11 128 -11.5 252.5t0.5 251.5zM78 35q5 -5 2 -10.5t-11 -5.5h-3q-5 4 -7 6q-1 5 -1 11q2 11 10 11t10 -11v-1z" />
    <glyph glyph-name="quotedbl" unicode="&#x22;" horiz-adv-x="149" 
d="M96 587q2 11 10 11t10 -11v-150q-3 -9 -10.5 -8.5t-9.5 8.5v150zM15 591q2 11 10 11t10 -11q0 -36 1 -73t15 -72q4 -9 -3.5 -14t-13.5 5q-15 37 -17 76t-2 78z" />
    <glyph glyph-name="numbersign" unicode="#" horiz-adv-x="369" 
d="M64 545q2 8 9 10.5t10 -7.5q5 -33 9 -66t7 -66q27 5 53.5 11t52.5 14q-3 60 -3 120q2 11 10 11t10 -11q0 -58 3 -115l83 24q11 2 12.5 -7t-8.5 -12l-86 -25q1 -26 2 -50.5t3 -49.5q54 5 109 6q9 -2 9.5 -9.5t-8.5 -10.5q-55 -1 -109 -6q4 -82 6 -166q-3 -9 -10.5 -8.5
t-9.5 8.5q-1 81 -6 164q-26 -2 -51.5 -4t-51.5 -4q2 -29 2.5 -59t1.5 -59q-3 -9 -10.5 -8.5t-9.5 8.5q-1 29 -1.5 58.5t-2.5 58.5q-13 -1 -26 -1h-26q-10 0 -11 9t10 11h26t26 1q-1 20 -2.5 39t-3.5 39q-17 -3 -33 -4t-33 -2q-10 0 -11 9t10 11q17 1 33 2t32 4q-3 33 -7 66
t-9 66zM107 316l52 4l52 4q-2 24 -3 48.5t-2 48.5q-26 -8 -52 -14t-53 -11z" />
    <glyph glyph-name="dollar" unicode="$" 
d="M126 629q2 11 10 11t10 -11v-58.5t1 -58.5q12 5 23.5 5.5t16.5 -10.5q3 -9 -3.5 -14t-12.5 3q-13 0 -24 -5l4 -194q23 -2 45.5 -3.5t43.5 -6.5q5 -2 6 -7q1 -1 3.5 -11t0.5 -15q-8 -17 -35.5 -37.5t-60.5 -34.5q1 -37 0.5 -57t-1 -36.5t-1 -36.5t-0.5 -57
q-3 -9 -10.5 -8.5t-9.5 8.5q0 36 0.5 55t1 34.5t1 34.5t-0.5 55q-33 -11 -61 -7t-37 33q-3 10 6 13t12 -7q4 -14 13 -18.5t20.5 -3.5t23.5 5t23 8q-1 21 -1.5 42t-0.5 42q-22 3 -44 7.5t-39 11t-27 15.5t-9 21q5 57 29.5 93t72.5 65l12 7q-1 32 -1 64v64zM57 318
q17 -9 35.5 -13t38.5 -6l-4 181q-15 -10 -30 -23t-27.5 -27t-21 -26.5t-10.5 -21.5q-2 -10 -2 -20.5t-2 -21.5q6 -5 11 -11.5t12 -10.5zM228 269q-8 2 -29 4t-47 5q0 -18 0.5 -36.5t1.5 -36.5q9 4 17 8t16.5 10t18.5 15t24 23z" />
    <glyph glyph-name="percent" unicode="%" horiz-adv-x="427" 
d="M296 274q5 7 17 13t25.5 9.5t26.5 2t20 -9.5q16 -18 19.5 -44t-4 -50.5t-23.5 -43.5t-38 -23q-39 -6 -56.5 8t-20 37.5t7.5 51.5t26 49zM329 658q7 7 14 3.5t4 -12.5q-36 -89 -73.5 -176.5t-72 -176.5t-64 -179.5t-51.5 -184.5q-2 -5 -5.5 -7t-7 -1.5t-6 3.5t-1.5 8
q22 94 52 185.5t64.5 181t72 178.5t74.5 178zM373 272q-16 11 -31 6.5t-27.5 -16.5t-20.5 -29t-11 -32q-2 -12 0 -24t8 -21t17 -12t26 3q12 5 26 22t22.5 37t7.5 38.5t-17 27.5zM128 574q3 -8 -3.5 -13.5t-12.5 1.5q-21 5 -38 -12t-25.5 -43t-6 -53.5t21.5 -42.5
q15 -12 31 -10.5t29.5 11.5t22.5 25.5t9 31.5t-11 30t-37 20q-9 5 -7.5 13t12.5 6q32 -7 46 -25t15.5 -39t-8.5 -42t-27 -34.5t-39.5 -16t-46.5 12.5q-21 13 -26.5 37.5t-1.5 50.5t15.5 50.5t24.5 38.5q3 3 12 7t19.5 5.5t19.5 -0.5t12 -9z" />
    <glyph glyph-name="ampersand" unicode="&#x26;" horiz-adv-x="311" 
d="M291 19q3 -8 -2.5 -12.5t-13.5 0.5q-20 26 -49 54.5t-60 60.5q-25 -25 -54 -43.5t-62 -20.5q-9 0 -14.5 11.5t-6.5 19.5q-2 20 11.5 57t33.5 80q-26 34 -42.5 68.5t-16.5 69.5q-1 38 14 77t45 62q10 7 25 13t30 6t27.5 -8t18.5 -28q2 -35 -4.5 -68.5t-18 -65.5t-26 -64
t-28.5 -63q15 -19 32.5 -37t35.5 -36q14 14 25 28t20 25q8 8 15 2.5t1 -14.5q-11 -13 -22.5 -27.5t-24.5 -28.5q30 -30 59 -59.5t52 -58.5zM46 312q6 -17 15.5 -33.5t20.5 -32.5q20 45 38.5 85.5t26.5 66.5q4 15 6.5 37.5t-1 40.5t-16.5 25t-40 -8q-23 -12 -36.5 -33.5
t-19 -47.5t-4 -52.5t9.5 -47.5zM55 78q24 1 49 18.5t48 40.5q-33 34 -63 69l-14.5 -29t-14.5 -34.5t-8.5 -34.5t3.5 -30z" />
    <glyph glyph-name="quotesingle" unicode="'" horiz-adv-x="107" 
d="M36 587q2 11 10 11t10 -11v-150q-3 -9 -10.5 -8.5t-9.5 8.5v150v0z" />
    <glyph glyph-name="parenleft" unicode="(" horiz-adv-x="182" 
d="M139 671q8 8 15.5 2t0.5 -14q-27 -29 -51 -82t-40 -117t-21 -133t5.5 -132t40 -113.5t82.5 -76.5q6 -7 1.5 -14t-12.5 -3q-53 27 -84 77t-44 113t-9.5 133.5t18.5 137.5t40.5 125t57.5 97z" />
    <glyph glyph-name="parenright" unicode=")" horiz-adv-x="158" 
d="M11 673q-5 9 2.5 14.5t13.5 -2.5q54 -82 82 -178.5t28.5 -196t-26 -197t-80.5 -181.5q-6 -9 -13.5 -4.5t-4.5 13.5q52 81 78 176t26 192t-26.5 191t-79.5 173z" />
    <glyph glyph-name="asterisk" unicode="*" horiz-adv-x="411" 
d="M136 415q20 -17 36.5 -36.5t34.5 -38.5q11 24 29 52t39.5 52t44.5 39.5t44 13.5q10 -2 16 -15t3 -30q-6 -33 -21.5 -71.5t-36 -79t-42.5 -80.5t-41 -75q8 -4 5 -11t-11 -7q-1 0 -1.5 0.5t-1.5 0.5q-15 -29 -24 -60t-5 -62q-3 -9 -10.5 -8.5t-9.5 8.5q-4 31 5.5 65
t26.5 69q-27 21 -55.5 42t-54.5 45t-48.5 53.5t-37.5 67.5q-15 40 -8.5 64t25 32t45.5 0.5t54 -30.5zM224 325q5 -7 2 -13t-10 -5q-3 -8 -6.5 -9t-6.5 2t-4 8.5t0 11.5q-17 16 -31.5 33.5t-31.5 34.5q-19 19 -41 31.5t-38.5 11t-23 -18.5t4.5 -56q9 -30 26 -54t40.5 -46.5
t54 -46t66.5 -51.5q14 28 32 61.5t35.5 67.5t33.5 66t25.5 58t11.5 43.5t-7 22.5q-14 1 -33 -15t-38.5 -40t-36 -50.5t-25.5 -45.5q0 -1 1 -1z" />
    <glyph glyph-name="plus" unicode="+" horiz-adv-x="284" 
d="M28 375q-9 0 -10.5 7.5t6.5 11.5q20 5 40.5 10t40.5 10v122q2 11 10 11t10 -11v-118q32 8 64.5 12.5t65.5 6.5q9 -2 9.5 -9.5t-8.5 -10.5q-34 -2 -66 -7t-64 -12q0 -29 0.5 -46t1 -32t0.5 -32.5v-45.5q-3 -9 -10.5 -8.5t-9.5 8.5v45t-0.5 31t-1 30.5t-0.5 44.5l-78 -18v0
z" />
    <glyph glyph-name="comma" unicode="," horiz-adv-x="118" 
d="M40 39q-8 7 -3 14.5t14 2.5q14 -9 18.5 -29t3.5 -43.5t-5.5 -45.5t-8.5 -35q-4 -11 -13 -8t-6 14q3 9 7 28.5t5.5 40.5t-1 38.5t-11.5 22.5z" />
    <glyph glyph-name="hyphen" unicode="-" horiz-adv-x="191" 
d="M26 323q-10 0 -11 9t10 11q39 1 67 3.5t67 3.5q9 -2 9.5 -9.5t-8.5 -10.5q-38 -1 -66.5 -3.5t-67.5 -3.5z" />
    <glyph glyph-name="period" unicode="." horiz-adv-x="75" 
d="M48 35q5 -5 2 -10.5t-11 -5.5h-3q-5 4 -7 6q-1 5 -1 11q2 11 10 11t10 -11v-1z" />
    <glyph glyph-name="slash" unicode="/" horiz-adv-x="295" 
d="M259 658q7 7 14 3.5t4 -12.5q-36 -89 -73.5 -176.5t-72 -176.5t-64 -179.5t-51.5 -184.5q-2 -5 -5.5 -7t-7 -1.5t-6 3.5t-1.5 8q22 94 52 185.5t64.5 181t72 178.5t74.5 178z" />
    <glyph glyph-name="zero" unicode="0" horiz-adv-x="344" 
d="M185 601q6 -7 1.5 -14t-12.5 -3q-19 14 -36.5 5t-32 -28t-25.5 -41t-16 -35q-8 -21 -16 -58.5t-13 -82.5t-6.5 -93t2 -91t13 -77t26.5 -50q20 -18 43.5 -9t47 34.5t46 61.5t40 73t29.5 68.5t15 47.5q8 45 -6 78t-40.5 59t-59.5 47.5t-63 43.5q-8 7 -3 14.5t14 2.5
q24 -18 51.5 -35.5t53 -37.5t45 -44.5t26.5 -56.5q11 -26 3 -70t-28.5 -92.5t-50.5 -95t-62 -78t-62.5 -41.5t-52.5 15q-19 22 -30 58.5t-15.5 80.5t-3.5 92.5t6.5 94.5t14 85.5t19.5 65.5q7 17 20 42.5t31 45.5t40.5 28t46.5 -10z" />
    <glyph glyph-name="one" unicode="1" horiz-adv-x="140" 
d="M55 588q2 11 10 11t10 -11q0 -76 -3 -152.5t-3 -152.5t5.5 -152t22.5 -151q2 -11 -7 -12t-12 9q-17 76 -23 152t-6 152.5t3 153t3 153.5z" />
    <glyph glyph-name="two" unicode="2" 
d="M38 466q-2 -5 -5.5 -7t-7 -1.5t-6 3.5t-1.5 8q1 2 1 3q0 2 1 3q6 13 15.5 24.5t17.5 22.5q9 12 26.5 29t37 28.5t38.5 11.5t31 -22q10 -18 11.5 -39.5t-1.5 -44t-8.5 -43.5t-11.5 -38q-11 -37 -33 -85t-44 -98.5t-37.5 -98t-14.5 -82.5q10 -3 37.5 5.5t58.5 21t59 25.5
t39 19q10 5 14 -2.5t-4 -14.5q-16 -9 -44.5 -23.5t-60.5 -26.5t-62 -19t-49 -2q-7 3 -8 9q-1 36 9.5 69t23.5 66q15 41 35 83t37.5 85t30 87t12.5 89q1 37 -9 49t-25 9t-33 -17.5t-33.5 -31.5t-26 -33t-10.5 -21z" />
    <glyph glyph-name="three" unicode="3" horiz-adv-x="362" 
d="M101 561q2 7 7.5 10t9.5 -3q26 16 53 23t48.5 1t33.5 -28t8 -64q-2 -25 -12.5 -49t-25.5 -45.5t-33 -41t-35 -36.5q23 5 45 11t45 8q62 4 84.5 -31.5t9.5 -93.5q-6 -28 -25.5 -66.5t-46 -74.5t-58.5 -61.5t-63 -26.5q-47 0 -67 8.5t-29 19.5q-14 16 -22 36t-15 40
q-2 8 5 12.5t12 -3.5q7 -17 14 -37t21 -35q22 -23 46.5 -25.5t49 8.5t48 32t43 45.5t34 49t21.5 41.5q6 13 11.5 31.5t7 37t-3.5 35.5t-20 28q-20 14 -42.5 13t-45 -8t-44.5 -13.5t-43 -3.5q-10 6 -7 15q20 20 39 40t36 43q12 17 22 32.5t17 35.5q2 8 4 15t2 15q1 8 1 16.5
t-2 16.5q-5 21 -15 30.5t-21 12t-21.5 -0.5t-17.5 -7q-6 -3 -15.5 -9t-19 -9.5t-17.5 -2.5t-11 13z" />
    <glyph glyph-name="four" unicode="4" horiz-adv-x="280" 
d="M210 467l1 5q0 1 -1 -1q2 32 3 64l2 64q1 8 8.5 10.5t10.5 -6.5q2 -6 2 -10.5t1 -11.5l-3 -6q-2 -83 -10 -165.5t-16 -164.5l41 2q11 -1 10.5 -10t-11.5 -10l-43 -3q-5 -58 -8.5 -116.5t-1.5 -117.5q-2 -9 -9.5 -9t-9.5 8q-2 60 0 117.5t7 116.5q-20 -1 -39.5 -1.5
t-36.5 1.5q-45 4 -65.5 25t-25 51.5t3 67.5t17 72t17.5 65t6 48l-4 2q-5 8 0 13.5t13 2.5q9 -6 11 -16t1 -21t-4 -22t-5 -20q-5 -22 -12 -48.5t-13 -53.5t-9 -53.5t0 -49.5q3 -20 19 -29.5t36 -12.5t40.5 -2t34.5 1h17q5 55 11.5 108.5t13.5 108.5l-1 5z" />
    <glyph glyph-name="five" unicode="5" horiz-adv-x="291" 
d="M222 576q11 -2 10 -11t-12 -9q-10 0 -33.5 1t-50.5 0.5t-51.5 -3.5t-34.5 -11q5 -3 8 -25t5 -52t3 -62.5t3 -56.5q25 20 51 37.5t61 17.5q21 0 35.5 -10.5t23.5 -27.5t14 -38.5t6 -42.5t0 -40.5t-4 -32.5q-3 -15 -10 -37t-17 -45t-21 -43t-22 -31q-57 -57 -102.5 -43.5
t-67.5 88.5q-3 10 6 13t12 -7q8 -27 22 -47t32.5 -27.5t39.5 0t43 36.5q15 20 28 45.5t22.5 53t15 56t4.5 53.5q0 23 -6.5 46.5t-20 39t-33.5 19.5t-48 -11q-19 -10 -34.5 -25.5t-34.5 -26.5q-8 -3 -14 5q-1 1 -1 2q-1 1 -1 4q-2 18 -3 51t-2.5 67t-4.5 63t-9 41
q-5 10 5 15.5t29 8.5t43 4t47 0.5t41.5 -1.5t27.5 -1z" />
    <glyph glyph-name="six" unicode="6" horiz-adv-x="295" 
d="M69 592q2 11 10 11t10 -11q-10 -94 -24.5 -185.5t-17.5 -185.5q0 -21 -1.5 -52t2.5 -62t16.5 -56.5t38.5 -35.5q3 40 11 92.5t21.5 102.5t33 90t44.5 55q6 3 13 0q22 -12 32.5 -43.5t10.5 -71t-10 -82.5t-29 -78.5t-46.5 -58t-62.5 -21.5q1 -12 2.5 -23.5t5.5 -22.5
q4 -9 -3.5 -14t-13.5 5q-1 3 -3 10.5t-4 16t-4.5 15.5t-4.5 8q-27 12 -42 34.5t-21 52.5t-6.5 65.5t0.5 73.5q3 94 17.5 186t24.5 185zM173 261q-8 -24 -17 -53t-17 -60.5t-13 -63.5t-6 -62q32 -1 56 20.5t39.5 54.5t23.5 72.5t8 74.5t-7 60.5t-21 30.5q-19 -11 -29 -32.5
t-17 -41.5z" />
    <glyph glyph-name="seven" unicode="7" horiz-adv-x="234" 
d="M30 553q-10 0 -11 9t10 11q10 1 28.5 6t39.5 10t42 7.5t37 -1.5t24 -17t3 -39q-3 -17 -6.5 -33t-7.5 -33q-6 -32 -13 -64.5t-14 -64.5q-17 -82 -27 -163t-12 -165q-3 -9 -10.5 -8.5t-9.5 8.5q2 85 12.5 166.5t27.5 164.5l27 130q8 40 11 61.5t-0.5 31t-14.5 9.5t-29 -5
t-44.5 -11.5t-62.5 -9.5z" />
    <glyph glyph-name="eight" unicode="8" horiz-adv-x="331" 
d="M217 552q6 -8 2 -14t-12 -4q-10 -49 -31.5 -95.5t-44.5 -97.5q26 -23 54.5 -44t53.5 -42.5t43 -43.5t23 -47.5t-5.5 -55t-42.5 -65.5q-12 -13 -38 -31t-56.5 -31t-60.5 -15t-48 18q-24 25 -30 55t-1 62t17.5 66t25.5 69q10 28 21 53t22 48q-32 32 -56 66t-29 75
q-4 36 13 59.5t43.5 35t57.5 11t55 -13.5q1 14 1.5 27.5t-1.5 27.5q-6 -4 -11.5 0.5t-2.5 12.5l4 10l4 10q3 3 8 5h5q8 -1 10 -8q5 -26 4.5 -50.5t-3.5 -47.5q2 -1 6 -5zM242 56q29 32 38 57.5t4.5 47.5t-20.5 41.5t-39 39t-49.5 39.5t-52.5 43q-1 -3 -2 -5.5t-2 -4.5
q-13 -29 -26 -55t-24 -52t-19 -53.5t-11 -59.5q-3 -36 6 -60t27.5 -35.5t45 -10.5t56.5 15q18 9 36.5 23.5t31.5 29.5zM117 354q25 51 45 97t28 97q-9 5 -19.5 7t-20.5 4q-33 4 -57 -3t-37 -24t-13 -43t14 -58q9 -20 24.5 -39t35.5 -38z" />
    <glyph glyph-name="nine" unicode="9" horiz-adv-x="264" 
d="M229 626q2 -11 -7 -12t-12 9v2q-18 -5 -37 -6.5t-35 -11.5q-26 -15 -47.5 -43.5t-35 -62.5t-17 -70.5t6.5 -67.5l19 -8q23 15 39.5 31.5t29 35t23.5 39.5t22 45q4 9 7.5 19.5t8 20t10.5 18t15 12.5q11 3 13 -10q-1 -57 -9.5 -114t-13.5 -114q-5 -52 -8 -95t-5 -84.5
t-3 -85t-1 -95.5q-3 -9 -10.5 -8.5t-9.5 8.5q0 77 3 144.5t8 132.5t12 132t16 144q-28 -64 -64 -125q-7 -11 -15.5 -21t-16.5 -20q-15 -18 -32.5 -25t-33 -3t-26 18.5t-9.5 38.5q1 22 4.5 49t15 56.5t33.5 61t60 63.5q9 7 25.5 12.5t33 7t29 -2.5t14.5 -15z" />
    <glyph glyph-name="colon" unicode=":" horiz-adv-x="75" 
d="M48 35q5 -5 2 -10.5t-11 -5.5h-3q-5 4 -7 6q-1 5 -1 11q2 11 10 11t10 -11v-1zM48 405q5 -5 2 -10.5t-11 -5.5h-3q-5 4 -7 6q-1 5 -1 11q2 11 10 11t10 -11v-1z" />
    <glyph glyph-name="semicolon" unicode=";" horiz-adv-x="118" 
d="M40 39q-8 7 -3 14.5t14 2.5q14 -9 18.5 -29t3.5 -43.5t-5.5 -45.5t-8.5 -35q-4 -11 -13 -8t-6 14q3 9 7 28.5t5.5 40.5t-1 38.5t-11.5 22.5zM48 405q5 -5 2 -10.5t-11 -5.5h-3q-5 4 -7 6q-1 5 -1 11q2 11 10 11t10 -11v-1z" />
    <glyph glyph-name="less" unicode="&#x3c;" horiz-adv-x="226" 
d="M185 450q2 11 10 11t10 -11q0 -3 -1 -6q-1 -2 -1.5 -4.5t-1.5 -4.5q-10 -21 -22 -41.5t-24 -40.5t-29 -45.5l-35 -52.5t-33.5 -53t-23.5 -45q6 -11 32 -20t56.5 -16t58 -11.5t35.5 -6.5q9 -4 6.5 -11.5t-11.5 -7.5l-90 19q-14 4 -29 6.5t-30 7.5q-29 8 -39 18.5t-8.5 24
t12.5 30t25 36.5q3 5 14.5 21.5t26 39t31 48t30 48.5t22.5 41t9 26z" />
    <glyph glyph-name="equal" unicode="=" 
d="M26 433q-10 0 -11 9t10 11q19 0 49.5 1t62.5 2.5t62 2.5t50 1q9 -2 9.5 -9.5t-8.5 -10.5q-19 0 -49 -1t-62.5 -2.5t-63 -2.5t-49.5 -1zM26 373q-10 0 -11 9t10 11q19 0 49.5 1t62.5 2.5t62 2.5t50 1q9 -2 9.5 -9.5t-8.5 -10.5q-19 0 -49 -1t-62.5 -2.5t-63 -2.5t-49.5 -1
z" />
    <glyph glyph-name="greater" unicode="&#x3e;" horiz-adv-x="245" 
d="M17 420q-8 7 -3 14.5t14 2.5q48 -29 86 -65q30 -29 57 -65q12 -16 24 -33t23 -34q17 -27 12 -42.5t-22.5 -25.5t-42 -16.5t-48 -16t-40.5 -24t-18 -40.5q-2 -5 -5.5 -7t-7 -1.5t-6 3.5t-1.5 8q5 28 25 47.5t46.5 32.5t54 21.5t48.5 15.5q1 15 -9.5 35.5t-28 43
t-39.5 45.5t-44 42.5t-42 35t-33 23.5z" />
    <glyph glyph-name="question" unicode="?" horiz-adv-x="201" 
d="M33 609q-10 -3 -13 5t6 13q21 9 41.5 22t43.5 13q34 0 50 -20.5t20.5 -49.5t2 -60t-4.5 -51q-5 -44 -14 -88t-18.5 -87.5l-19 -87t-15.5 -87.5q-3 -9 -10.5 -8.5t-9.5 8.5q7 54 19.5 109t24.5 110t20 110.5t7 109.5q0 5 -0.5 15t-3.5 21t-10.5 20t-22 12t-37.5 -3
t-56 -26zM92 43q2 11 10 11t10 -11v-18q-3 -9 -10.5 -8.5t-9.5 8.5v18z" />
    <glyph glyph-name="at" unicode="@" horiz-adv-x="328" 
d="M220 326q2 -11 -7 -12t-12 9q-4 22 -14.5 30t-23 5.5t-25 -13.5t-20.5 -27t-12.5 -45.5t-4.5 -62t6 -61t19 -42.5q13 8 22.5 26.5t16.5 40.5t11.5 43.5t8.5 35.5q4 11 16 6q10 -6 11 -18.5t0 -26.5t1.5 -26.5t15.5 -18.5q31 15 44.5 48t15 72t-6.5 78t-20 66
q-6 13 -14 27t-18.5 25.5t-24.5 19t-30 7.5q-28 0 -52 -17t-42 -41t-29.5 -51t-13.5 -48q-15 -151 14.5 -236t85.5 -103q26 -8 55.5 2.5t52.5 40.5q8 5 13 -1t0 -14q-14 -16 -30.5 -34t-39.5 -22q-37 -6 -66.5 8.5t-51 42.5t-35 66.5t-20 82t-6 87.5t7.5 84q4 26 17 56.5
t33.5 56.5t47 43.5t59.5 17.5t58 -23t41.5 -55.5t25 -68.5t7.5 -62q-1 -33 -5.5 -67.5t-18.5 -65.5q-11 -24 -25 -35t-27 -9t-24 16.5t-16 40.5q-5 -17 -9 -34t-10.5 -32.5t-17 -29.5t-26.5 -23q-5 -1 -12 3q-18 19 -26.5 50.5t-9.5 66.5t4.5 68.5t17.5 56.5q11 22 29 35.5
t36 14.5t33 -12t20 -42z" />
    <glyph glyph-name="A" unicode="A" horiz-adv-x="489" 
d="M22 193q-10 0 -11 9t10 11q19 0 41.5 5t43.5 12t38 13t26 8h1q0 2 0.5 4t0.5 4q1 48 2.5 94.5t6 92.5t14 92.5t26.5 96.5q10 30 22.5 42.5t24.5 11.5t22.5 -13.5t17.5 -31.5q14 -35 21.5 -73t12 -77t7 -78t6.5 -75q0 -3 0.5 -6t0.5 -6q20 8 40.5 14t42.5 11q11 2 12.5 -7
t-8.5 -12q-22 -5 -43 -11.5t-41 -14.5q2 -20 4 -41t5 -42q5 -32 9.5 -63.5t10.5 -63.5q3 -15 7.5 -38t10.5 -47t14 -47t18 -38q6 -8 15.5 -13.5t17.5 -11.5q6 -7 1.5 -14t-12.5 -3q-10 8 -20 14t-18 15q-9 10 -18 36t-16.5 54.5t-12.5 54t-7 35.5q-10 51 -17 102.5
t-12 103.5q-38 -15 -74 -31.5t-74 -31.5v-239q0 -3 -1 -12t-3.5 -16.5t-7.5 -10t-13 6.5q-3 33 -2 68t2.5 69t3 66t0.5 60q-32 -12 -72.5 -23.5t-75.5 -14.5zM220 557q-8 -40 -13 -76t-8.5 -71.5t-5 -72.5t-1.5 -78q36 15 72 31.5t73 31.5l-7 109q0 1 -2 18t-5.5 42.5t-9 55
t-12 55t-14 43t-16.5 19.5q-12 2 -21.5 -14.5t-16.5 -36.5q-8 -25 -13 -56z" />
    <glyph glyph-name="B" unicode="B" horiz-adv-x="448" 
d="M13 622q2 11 10 11t10 -11q5 -85 10 -165t9 -171l7 64q4 27 9 55.5t12.5 56.5t19 54.5t28.5 48.5q9 12 20.5 23t24 17t25.5 5t27 -12q7 -6 10 -20t3.5 -29.5t-0.5 -29.5t-1 -20q-1 -6 -3 -22t-6 -37.5t-9.5 -46t-12.5 -48.5q31 4 64.5 1.5t63.5 -14t54.5 -33t39.5 -55.5
q13 -30 2.5 -64.5t-35.5 -66t-60 -56t-72 -36t-72 -5.5t-59 36q-5 8 0.5 13.5t13.5 1.5q25 -23 55 -28.5t61 3t59 27.5t49 44t32.5 53.5t7.5 56t-25 51.5t-65 39q-34 13 -68 14q-20 2 -32 1t-20 -4q-11 -32 -25 -56t-31 -28q-7 0 -11 6q-9 16 -7 31t10.5 27.5t21 21.5
t25.5 14q19 57 30.5 120.5t-3.5 122.5q-8 6 -17.5 4.5t-18.5 -7t-17 -13t-14 -14.5q-28 -35 -43.5 -88.5t-23.5 -115t-9.5 -125t-0.5 -117.5q2 -20 2.5 -39.5t-1.5 -36.5q-13 -5 -16 -4.5t-4 4.5q0 17 -0.5 34.5t-0.5 34.5q-3 80 -7 149.5t-8 133t-9 122.5t-9 117zM149 267
q6 8 12 19t11 22q-14 -15 -18.5 -24t-4.5 -17z" />
    <glyph glyph-name="C" unicode="C" horiz-adv-x="375" 
d="M268 424q-3 -9 -10.5 -8.5t-9.5 8.5q-2 26 -3 56.5t-4.5 61t-12 60t-24.5 53.5q-6 10 -16.5 14t-22.5 3t-23 -6t-18 -13q-29 -30 -50 -76.5t-33 -102t-15 -115.5t3.5 -116.5t24 -104.5t45.5 -79q22 -24 54 -39.5t65 -17t62 13.5t44 52q6 14 7.5 30t3.5 31q4 10 11 7.5
t9 -10.5q-3 -17 -4 -34.5t-9 -32.5q-22 -41 -54 -59.5t-67.5 -18t-70.5 18t-64.5 47t-49 69t-22.5 84.5q-4 53 -5.5 103.5t2.5 99.5t16 97t35 96q21 42 52.5 67.5t61.5 27t52.5 -25t26.5 -89.5q4 -38 7 -76z" />
    <glyph glyph-name="D" unicode="D" horiz-adv-x="382" 
d="M14 650q2 11 10 11t10 -11q1 -174 6 -350q5 67 15.5 132t30.5 130q10 32 28.5 60.5t44 44.5t55.5 15t62 -28q29 -23 47.5 -65t28.5 -93.5t12 -108t-2 -109t-14 -96.5t-23 -71q-7 -15 -21.5 -34.5t-32 -37.5t-37 -31t-37.5 -16t-32.5 8t-21.5 41q2 11 10 11t10 -11
q8 -19 21 -23.5t27 0.5t29 17t28.5 27t24 31t15.5 28q14 30 24 79.5t13 106t-2 115.5t-21 109t-44 86t-71 46q-23 6 -42 -9.5t-33 -39.5t-24 -49.5t-14 -40.5q-23 -84 -29.5 -169.5t-7.5 -172.5q0 -45 1.5 -89t-5.5 -89q0 -3 0.5 -6t0.5 -6l-6 3q-9 -4 -13 5h-2v3
q-10 162 -13.5 323.5t-5.5 323.5z" />
    <glyph glyph-name="E" unicode="E" horiz-adv-x="324" 
d="M21 346q-10 0 -11 9t10 11h6q1 45 3 89.5t4 89.5q0 7 1 21t2 30.5t1.5 33t0.5 29.5h-23q-10 0 -11 9t10 11q26 1 58.5 3t66.5 5.5t66.5 7.5t59.5 8q9 -2 9.5 -9.5t-8.5 -10.5q-20 -3 -47.5 -6t-56.5 -6t-56.5 -6t-47.5 -4q0 -14 -0.5 -31t-1.5 -33.5t-2 -30.5t-1 -22
q-2 -44 -4 -87.5t-3 -88.5q12 2 32 5t42.5 6.5t45.5 7t41 7.5q11 2 12.5 -7t-8.5 -12q-15 -3 -37 -7t-45.5 -7.5t-46 -7t-37.5 -5.5q-1 -51 2 -100.5t11 -98.5q3 -19 7 -37t10 -36q16 -41 44.5 -54.5t60.5 -9.5t64 19.5t55 32.5q10 5 14 -2.5t-4 -14.5q-46 -35 -90 -47.5
t-80.5 -1.5t-63 47t-37.5 99q-8 50 -11 100.5t-2 101.5h-4v0z" />
    <glyph glyph-name="F" unicode="F" horiz-adv-x="490" 
d="M25 42q-9 0 -10.5 7.5t6.5 11.5q19 4 31 8t22 8.5t21 10.5t29 16q-1 53 0 100t3.5 92t6.5 92t10 100q1 12 6.5 42.5t14.5 63t21 58.5t27 31q35 12 73.5 -3t71 -44t54 -67t21.5 -72q0 -44 -10 -85t-41 -87.5t-88 -102t-151 -126.5l3 -78q2 1 6 5q15 14 38.5 29t43.5 20
q35 9 61 13t47 1.5t39.5 -11.5t39.5 -26q23 -19 32.5 -61t10.5 -88.5t-4.5 -88t-12.5 -58.5q-10 -25 -24 -57.5t-35 -59.5t-50.5 -42.5t-68.5 -6.5q-27 6 -48 32t-35 57.5t-22 63t-11 48.5q-6 45 -12.5 87.5t-10.5 87.5q0 2 -0.5 3.5t-0.5 3.5l-3 -4q-13 -17 -21 -36.5
t-15 -40.5q-6 -9 -13.5 -4.5t-4.5 13.5q10 29 23 54t32 46q-1 22 -2 43.5t-1 43.5q-7 -5 -20 -13t-27 -15.5t-28 -12t-24 -2.5zM407 34q-26 29 -60.5 35.5t-70.5 -2.5t-69.5 -30t-58.5 -46q0 -8 0.5 -15t1.5 -14q2 -29 7 -68t13 -80.5t19 -80.5t25 -68q11 -22 26.5 -35
t32 -18.5t33 -4t29.5 8.5q27 15 48.5 45.5t36.5 69.5t22.5 82t7 84.5t-11 77.5t-31.5 59zM193 611q-32 -108 -42.5 -232.5t-7.5 -259.5q17 14 49.5 40t69 61t71.5 77t57 87.5t24 93t-26 92.5q-8 14 -23.5 30t-34.5 29.5t-39.5 23t-39.5 9t-34.5 -12t-23.5 -38.5z" />
    <glyph glyph-name="G" unicode="G" horiz-adv-x="385" 
d="M279 643q4 -9 -3.5 -14t-13.5 5q-8 17 -23 24t-33 6.5t-35.5 -6.5t-30.5 -15q-15 -11 -27 -26.5t-22 -32.5q-24 -41 -38 -89.5t-20 -99.5t-4.5 -102t9.5 -97q3 -14 7.5 -31t11 -33t16.5 -30t24 -23q17 -11 38 -4.5t35 23.5q24 28 39.5 63t25.5 72.5t16.5 75.5t12.5 73
q-3 21 -5 43t-1.5 40.5t4.5 33t12 20.5q9 4 14 -3q7 -12 8 -28.5t-0.5 -34t-4.5 -35t-6 -30.5q5 -40 13 -79.5t18 -78.5q16 -60 33.5 -120.5t28 -122t8.5 -123.5t-26 -125q-16 -42 -37 -77t-62 -58q-29 -15 -50.5 -12.5t-36.5 18t-25 40t-14 52.5q-11 69 3 143.5t59 137.5
q14 20 33 36.5t36 33.5q8 8 15 2.5t1 -14.5q-17 -17 -35.5 -33t-32.5 -36q-22 -31 -38.5 -73.5t-23 -88t-2.5 -90t24 -80.5q11 -20 34 -27.5t42 8.5q19 15 39 39t43 74q21 45 28 91t4.5 94t-13 99t-25.5 106q-11 42 -22 80t-21 82l-9 40q-12 -64 -29.5 -124.5t-57.5 -113.5
q-22 -29 -42.5 -37t-38.5 -2t-33.5 23t-26.5 38.5t-18 43.5t-9 39q-5 49 -6.5 101.5t3.5 104.5t19 101.5t40 94.5q11 19 24 36t30 29t39 19t43.5 6t39.5 -11t28 -31z" />
    <glyph glyph-name="H" unicode="H" horiz-adv-x="475" 
d="M15 244q-8 -3 -12 4t2 13l38 24q-3 96 -5.5 190t-4.5 189q2 11 10 11t10 -11q1 -92 3.5 -183.5t6.5 -183.5q66 42 131 76.5t138 55.5q2 63 4 126.5t4 127.5q2 11 10 11t10 -11q-2 -63 -4 -124.5t-4 -124.5q49 13 99 17q9 -2 9.5 -9.5t-8.5 -10.5q-53 -4 -101 -18
q-2 -87 0.5 -173t16.5 -173q2 -11 -7 -12t-12 9q-14 87 -17 172t-1 172q-72 -22 -137 -56.5t-131 -76.5l2 -35q4 -91 6.5 -182.5t17.5 -182.5q2 -11 -7 -12t-12 9q-16 91 -18.5 184t-6.5 184q-1 5 -1 11v11l-29 -18v0z" />
    <glyph glyph-name="I" unicode="I" horiz-adv-x="137" 
d="M39 637q2 11 10 11t10 -11q5 -88 5 -175.5t2 -176.5q2 -79 5.5 -157.5t22.5 -156.5q2 -11 -7 -12t-12 9q-20 78 -23.5 158t-5.5 160q-2 88 -2 175.5t-5 175.5z" />
    <glyph glyph-name="J" unicode="J" horiz-adv-x="170" 
d="M55 642q2 11 10 11t10 -11q1 -27 2 -44.5t2 -33.5t3 -33t6 -42q14 -83 31 -168t16 -171q0 -30 -1.5 -49t-4.5 -35.5t-7.5 -35.5t-10.5 -48q-14 -65 -55 -123.5t-99 -92.5q-8 -5 -22 -13t-27.5 -12t-24 -0.5t-12.5 21.5q2 11 10 11t10 -11v-1q5 1 11.5 2.5t12.5 3.5
q11 6 18.5 9.5t14 7t13.5 8t17 12.5q42 33 71 82t42 100q21 84 20 165.5t-12 162.5t-25.5 162.5t-18.5 165.5z" />
    <glyph glyph-name="K" unicode="K" horiz-adv-x="279" 
d="M219 619q4 10 11 7.5t9 -10.5q-17 -53 -46 -106.5t-58.5 -107.5t-52 -107.5t-25.5 -104.5q-2 -37 19.5 -68t59.5 -40q33 -8 67 -5.5t68 1.5q11 -2 10 -11t-12 -9l-140 4q-23 3 -39 15.5t-26.5 30t-16.5 37.5t-9 40v-90.5t1 -90.5q-3 -9 -10.5 -8.5t-9.5 8.5
q-1 169 -3 335.5t-3 334.5q2 11 10 11t10 -11q0 -116 1.5 -231t2.5 -231q3 19 13 45.5t21 52.5t21 47t15 30q13 25 26 48.5t26 47.5q18 33 33.5 67t26.5 69z" />
    <glyph glyph-name="L" unicode="L" horiz-adv-x="267" 
d="M28 696q2 11 10 11t10 -11q-3 -57 -6.5 -115t-6 -115.5t-2.5 -115.5t5 -116q1 -18 4.5 -44.5t10 -54t16.5 -52.5t25 -41q5 -6 14 -13.5t25.5 -8.5t42.5 8.5t67 39.5q9 6 13.5 -2t-3.5 -15q-25 -13 -48 -30t-52 -22q-28 -4 -48.5 7.5t-34.5 32.5t-23.5 48t-15.5 54.5
t-9 51.5t-4 39q-5 58 -5 116.5t2.5 116.5t6 116t6.5 115z" />
    <glyph glyph-name="M" unicode="M" horiz-adv-x="517" 
d="M12 598q2 11 10 11t10 -11q3 -106 6 -210t10 -209q9 79 24.5 156t35.5 158q5 21 10.5 44t12 46t16 44t22.5 38q5 5 10.5 5t7.5 -8q14 -51 14.5 -104t2.5 -107q2 -73 8 -144.5t17 -143.5q1 -5 2 -9.5t4 -8.5q18 28 32.5 74.5t26.5 98t21.5 101t18.5 84.5q4 18 10 37.5
t14 38.5t19 35.5t26 27.5q9 4 14 -2q17 -46 22.5 -93t10.5 -96q11 -106 20 -211.5t28 -211.5q2 -11 -7 -12t-12 9q-20 106 -29 213t-20 214q-5 40 -8.5 83.5t-17.5 81.5q-24 -33 -40.5 -79.5t-28.5 -96.5t-21.5 -99.5t-19.5 -88.5q-4 -15 -8 -30.5t-9 -30.5q-4 -11 -7 -21
t-8 -21q-5 -13 -17 -22.5t-26 4.5q-9 10 -14 30.5t-7.5 42.5t-3 42.5t-1.5 30.5q-2 29 -3.5 58t-3.5 58q-1 27 -0.5 59t0 65t-3 64t-9.5 56q-7 -9 -14 -30t-13 -44t-11 -44t-7 -30q-27 -111 -46 -218t-24 -221q0 -1 -1 -1q0 -2 0.5 -3t0.5 -2h-3q-9 -9 -16 2h-1v4
q-12 137 -17 273.5t-9 273.5z" />
    <glyph glyph-name="N" unicode="N" horiz-adv-x="357" 
d="M9 547q2 11 10 11t10 -11q2 -105 15.5 -208t18.5 -208q10 48 19.5 96t20.5 95t24.5 94t32.5 92q34 81 58 109t39.5 19.5t24 -44.5t13 -82t6 -93t3.5 -78q3 -58 6.5 -109t11 -100.5t20 -99.5t33.5 -104q4 -9 -3.5 -14t-13.5 5q-21 54 -34.5 105t-21 102t-11.5 103.5
t-7 111.5q-2 28 -2.5 70t-3 83t-8 73t-17 40.5t-29.5 -14.5t-46 -92q-21 -54 -36 -109t-27 -110.5t-23 -111t-26 -111.5q-3 -9 -10 -9t-10 7h-1q0 2 1 3q-7 40 -6 82t-2 83q-7 82 -17 162t-12 162z" />
    <glyph glyph-name="O" unicode="O" horiz-adv-x="274" 
d="M146 631q5 -2 6 -6t-0.5 -7.5t-5 -5t-8.5 0.5q-7 4 -18 -4.5t-22 -20.5t-19.5 -24t-10.5 -16q-12 -25 -21.5 -65t-15 -87t-6 -97.5t5 -97t18.5 -85.5t34 -62q27 -29 50 -24.5t41.5 25.5t30.5 49.5t17 48.5q7 29 11 67.5t4 80t-5 83.5t-17.5 79.5t-33 67.5t-50.5 47
q-5 8 0.5 13.5t13.5 1.5q33 -15 54.5 -48.5t34 -76.5t17.5 -91t4.5 -92.5t-4.5 -80.5t-9 -55q-7 -27 -23.5 -60t-40 -55.5t-51.5 -25t-59 31.5q-20 27 -33.5 68t-20.5 89.5t-7.5 100t4.5 100t15.5 90.5t25.5 71q4 8 14 23t23.5 28t28 20.5t28.5 0.5z" />
    <glyph glyph-name="P" unicode="P" horiz-adv-x="363" 
d="M19 609q2 11 10 11t10 -11q1 -111 6 -220.5t13 -220.5l3 -37v304q0 39 -1.5 78t2.5 77q1 13 2 25t4 23q12 43 27.5 64t32.5 25t35.5 -6.5t36.5 -30t34.5 -45.5t30.5 -52q9 -18 21 -44.5t23 -57t19.5 -63.5t10.5 -64t-3.5 -57.5t-21.5 -44.5q-36 -38 -83 -39t-98 15
q-8 4 -7.5 11t9.5 9q21 -2 43 -7.5t43.5 -7.5t41 4t36.5 29q10 13 14 31t4.5 36.5t-1.5 36.5t-5 32q-6 34 -19.5 74.5t-33 80.5t-44 74.5t-52.5 56.5q-18 14 -31.5 11t-22.5 -17.5t-14.5 -36t-8.5 -43.5t-4.5 -41t-1.5 -28q-3 -118 -0.5 -241.5t2.5 -237.5v-38t-5 -38
q-3 -9 -10.5 -8.5t-9.5 8.5q-11 44 -12.5 90t-5.5 90q-8 111 -13 220.5t-6 220.5z" />
    <glyph glyph-name="Q" unicode="Q" horiz-adv-x="335" 
d="M270 567q29 -49 37 -119.5t1 -144t-26.5 -140t-44.5 -107.5q24 -96 47.5 -191t56.5 -189q4 -9 -3.5 -14t-13.5 5q-32 91 -55.5 183.5t-46.5 185.5q-15 -18 -34.5 -27t-44.5 -4q-35 8 -57 32.5t-36 57.5t-21.5 69t-13.5 67q-4 28 -4.5 73.5t3 94.5t12.5 95t25 75
q19 36 44 62t53 31t59 -16.5t63 -78.5zM159 258q-2 8 5 12.5t12 -3.5q16 -47 29.5 -93t25.5 -94q18 30 31 70t20 85t8.5 91.5t-2 89.5t-12.5 79.5t-23 61.5q-21 40 -44.5 62t-47.5 23.5t-48 -19t-45 -64.5q-22 -46 -33 -114.5t-9 -141t19 -138.5t52 -108q16 -18 43.5 -27
t50.5 6q15 10 25 24q-13 50 -26.5 99t-30.5 99z" />
    <glyph glyph-name="R" unicode="R" horiz-adv-x="448" 
d="M8 605q2 11 10 11t10 -11q3 -55 7 -110t8 -111q6 60 21 120q5 19 13.5 45.5t22 50.5t32.5 40.5t46 15.5q16 -1 26 -12t16 -26t9 -31.5t5 -26.5q6 -27 1.5 -62t-13.5 -72.5t-21 -73t-22 -62.5q-14 -35 -33.5 -66t-38.5 -63h1q85 -32 169 -62.5t170 -70.5q9 -4 6.5 -11.5
t-11.5 -7.5q-38 17 -76 33.5t-76 31.5q-11 4 -27.5 10.5l-33 13t-31.5 12t-24 8.5q-51 20 -70.5 26.5t-18.5 15t17 26.5t37 62q13 24 22 52q13 32 22.5 63.5t17.5 65.5l8.5 42.5t6 45.5t-0.5 45t-10 42q-12 27 -25 31.5t-26 -5.5t-25 -29.5t-21.5 -40t-16 -38t-7.5 -22.5
q-22 -76 -29 -138t-7 -118.5t4 -112t4 -117.5v-2h-1q-4 -7 -9.5 -7t-8.5 6h-1v3q0 75 -3 145t-8 142q-4 77 -8 152.5t-9 151.5z" />
    <glyph glyph-name="S" unicode="S" horiz-adv-x="478" 
d="M303 666q6 -7 1.5 -14t-12.5 -3q-11 8 -22 16.5t-24 13.5q-28 10 -56 4t-52.5 -23.5t-43 -43.5t-28.5 -55t-9.5 -58.5t15.5 -53.5q24 -39 65.5 -63t89 -41.5t95 -34.5t84.5 -42q10 -7 22 -18t21 -25.5t12.5 -30.5t-2.5 -33q-17 -46 -43 -77.5t-59.5 -52t-74 -32
t-88.5 -17.5q-19 -3 -38.5 -1.5t-39.5 5.5q-21 4 -44.5 16.5t-39.5 31t-21 42t12 50.5l50 79q7 7 14 3.5t4 -12.5q-13 -20 -27 -38.5t-23 -40.5q-14 -36 -1.5 -59.5t38.5 -36.5t58.5 -17t56.5 -2q36 3 75.5 14.5t74 32t61 50t36.5 68.5q6 25 -4.5 44t-29 33t-40.5 24.5
t-38 17.5q-14 6 -37 14.5t-50.5 18.5t-57 22t-55.5 26t-45.5 29.5t-27.5 32.5q-14 29 -17.5 58.5t6.5 64.5q8 33 28 64.5t48 53t62.5 30.5t70.5 -2q14 -5 26 -14.5t24 -17.5z" />
    <glyph glyph-name="T" unicode="T" horiz-adv-x="521" 
d="M242 691q2 11 10 11t10 -11q0 -19 0.5 -37.5t0.5 -37.5q60 14 119.5 22.5t121.5 12.5q9 -2 9.5 -9.5t-8.5 -10.5q-62 -4 -121.5 -13t-119.5 -23q4 -140 15 -276.5t32 -275.5q2 -11 -7 -12t-12 9q-21 139 -32.5 275.5t-15.5 275.5q-42 -10 -83.5 -21.5t-83.5 -24.5
l-28 -10t-27 -13q-8 -3 -12 4t2 13q26 16 54.5 25t57.5 17q30 8 59.5 16t59.5 15q0 20 -0.5 39.5t-0.5 39.5z" />
    <glyph glyph-name="U" unicode="U" horiz-adv-x="347" 
d="M50 627q2 11 10 11t10 -11q-2 -61 -11.5 -120t-15.5 -120q-6 -60 -8 -122t0 -122q1 -12 2.5 -33t6 -42.5t13 -39.5t22.5 -24q19 -7 35.5 2t31 27t26.5 42t21.5 48.5t16.5 45.5l11 33q7 20 15 45.5t16 55.5q-1 34 -0.5 68t2.5 69q1 27 0.5 64t2 76t9.5 75t24 62q5 5 12 4
q16 -8 21 -35t4 -59.5t-5 -62.5l-6 -45q-15 -110 -44 -222q1 -93 11 -184t33 -184q2 -11 -7 -12t-12 9q-20 78 -30 154.5t-13 154.5q-17 -54 -39 -105.5t-48 -100.5q-9 -17 -25.5 -30t-35 -17.5t-36 2.5t-27.5 30q-18 44 -23.5 87.5t-5.5 90.5q0 39 1.5 78t3.5 77
q5 71 16.5 140t14.5 140zM272 380q10 41 18 83.5t12.5 83.5t4.5 78.5t-7 67.5q-13 -26 -18 -59.5t-6.5 -68t-1 -67.5t-0.5 -58z" />
    <glyph glyph-name="V" unicode="V" horiz-adv-x="305" 
d="M18 618q-9 5 -7.5 13t12.5 6q8 -4 15.5 -18.5t14.5 -34.5t12.5 -42.5t9.5 -42t7 -34.5t4 -19q25 -100 52.5 -199t62.5 -205l2 -3q3 14 4.5 40.5t3.5 57t3.5 61t4.5 53.5q13 101 26 199.5t22 198.5q2 11 10 11t10 -11q-9 -100 -22 -199t-26 -199q-1 -10 -3 -28t-4 -38
t-3.5 -38.5t-1.5 -28.5q0 -7 -1.5 -24.5t-4 -35.5t-6.5 -32.5t-11 -14.5q-11 2 -22 25.5t-20 52t-15 53.5t-8 30q-25 85 -46.5 169t-42.5 169q-2 7 -6 24.5t-9 35.5t-9.5 32t-7.5 16z" />
    <glyph glyph-name="W" unicode="W" horiz-adv-x="445" 
d="M58 720q2 11 10 11t10 -11q-3 -136 -15.5 -269t-21.5 -269q0 -6 -1.5 -23t-3 -39.5t-2.5 -47t-0.5 -45.5t2 -35.5t5.5 -16.5q1 0 2 1t1 1.5t1 1.5q11 14 16.5 31t10.5 33q10 32 18 64t15 64q5 23 8.5 45.5t8.5 45.5q11 64 17.5 127.5t6.5 127.5q2 5 8 8t12 -8
q0 -92 1.5 -187.5t21.5 -186.5q3 -14 7.5 -31.5t11 -35t17 -31.5t25.5 -21q23 -10 42 -4t35 22.5t28.5 40t21 48t13.5 45.5t6 34q6 58 7 116t-6.5 114t-25 110t-47.5 105q-5 9 2.5 14.5t13.5 -2.5q28 -44 46.5 -101.5t28 -119.5t9.5 -124t-9 -116q-7 -42 -20.5 -87
t-45.5 -80l-15 -15t-22 -15.5t-29.5 -8.5t-38.5 4q-17 2 -30 19t-22.5 41.5t-16.5 54t-11.5 57t-6.5 49t-3 31.5q-2 12 -2.5 24t-1.5 25q-8 -57 -19.5 -112.5t-26.5 -109.5q-3 -12 -7 -28.5t-9 -33t-11.5 -31.5t-16.5 -25q-11 -11 -19.5 -10t-14.5 8t-9 18.5t-3 21.5
q0 23 0.5 45t1.5 45q2 44 5 89.5t7 89.5q10 113 19 224t11 224z" />
    <glyph glyph-name="X" unicode="X" horiz-adv-x="328" 
d="M18 596q-5 8 0.5 13.5t13.5 1.5q31 -26 58.5 -53t47.5 -62q17 62 41.5 118.5t62.5 107.5q7 7 14 3.5t4 -12.5q-42 -53 -66 -112t-41 -126q7 -11 13.5 -21t12.5 -21q44 -79 70.5 -156t40.5 -155.5t19 -160t7 -169.5q-3 -9 -10.5 -8.5t-9.5 8.5q-2 89 -7 173.5t-20 166.5
t-44 161t-78 157q-13 -59 -21 -120t-12 -122t-6 -120.5t-3 -113.5q-3 -9 -10.5 -8.5t-9.5 8.5q1 58 3 120t6.5 126t13.5 128t24 125q-23 36 -53 65t-61 58z" />
    <glyph glyph-name="Y" unicode="Y" horiz-adv-x="476" 
d="M59 632q7 7 14 3.5t4 -12.5q-26 -53 -35.5 -121.5t-7.5 -141.5t14 -143t30 -125q15 -35 31.5 -42.5t33.5 4t34 38.5t32.5 61.5t29 72.5t24.5 71.5t18 59t9 35.5q9 37 16 74l14 74q2 14 3.5 27t3.5 27q1 4 4 10.5t1 4.5q10 10 17 0q8 -16 17 -46.5t18 -68.5t17 -80
t14.5 -81t11 -70.5t5.5 -49.5l4 -59q41 31 56.5 37t12 -2.5t-21.5 -25.5t-45 -32q5 -54 5 -103t-8 -112q-6 -45 -11.5 -76t-15.5 -57.5t-26 -52.5t-44 -61q-22 -28 -48 -45.5t-51 -24.5t-47.5 -2.5t-36.5 22.5t-18 49t7 78q27 114 94.5 209t158.5 170l21 17l-6 72
q-10 89 -28.5 175.5t-41.5 172.5q-3 -39 -13.5 -95.5t-25.5 -115.5t-33 -113.5t-37 -90.5q-19 -35 -40.5 -68t-44.5 -49t-45.5 -7t-42.5 59q-22 54 -34.5 127.5t-13.5 150.5t10.5 149t36.5 123zM415 -81q6 48 7 98t-2 101l-11 -9q-40 -33 -79.5 -74.5t-73 -89t-58 -99
t-34.5 -103.5q-4 -17 -5 -35.5t2 -36.5q8 -46 27.5 -57.5t43.5 -3.5t48.5 30t43.5 43q20 23 35 50.5t26 56.5q12 32 18.5 64.5t11.5 64.5z" />
    <glyph glyph-name="Z" unicode="Z" horiz-adv-x="542" 
d="M23 678q-10 0 -11 9t10 11q43 4 85.5 4t85.5 -2q21 -1 52 -2t63 -6t62 -15t49.5 -27t23.5 -43.5t-14 -64.5q-13 -26 -28 -50.5t-29 -50.5q-36 -63 -71.5 -125.5t-67.5 -128.5q-4 -9 -13 -27.5t-19.5 -41.5t-20 -47.5t-15 -47t-5.5 -40.5t9 -26q18 0 47 10.5t63 26.5
t70 36t69.5 40.5t61 39t44.5 31.5q10 5 14 -2.5t-4 -14.5q-40 -32 -82.5 -56.5t-87.5 -48.5q-30 -16 -59.5 -33.5t-61.5 -31.5q-49 -22 -72.5 -17t-29 26.5t2.5 55t21.5 67.5t28 64t21.5 46l26 52q14 27 27.5 51.5t27.5 50.5l58 100q6 10 21 32t28.5 48t20 52t-5.5 45
q-8 13 -23 21.5t-32 13.5t-34.5 7.5t-30.5 4.5q-67 9 -137 9t-138 -5z" />
    <glyph glyph-name="bracketleft" unicode="[" horiz-adv-x="186" 
d="M126 636q11 -2 10 -11t-12 -9q-17 1 -31 3.5t-24.5 1t-17 -10t-7.5 -28.5q-1 -16 -2 -36t-1.5 -40.5t-0.5 -40v-35.5q-1 -91 -2 -184.5t10 -184.5q17 0 32.5 1t30.5 -0.5t28.5 -7.5t26.5 -19q7 -8 1 -14.5t-15 -0.5q-13 13 -32.5 17t-38.5 4t-33.5 0.5t-17.5 8.5
q-3 7 -4.5 22.5t-2.5 31.5t-1 29v16q-2 71 -2.5 141t0.5 141q0 22 0.5 43.5t0.5 42.5q1 45 2 70t10 37t30 13.5t63 -1.5z" />
    <glyph glyph-name="backslash" unicode="\" horiz-adv-x="283" 
d="M16 658q37 -89 74.5 -178t72 -178.5t64.5 -181t52 -185.5q1 -11 -8 -12t-12 9q-22 94 -51.5 184.5t-64 179.5t-72 176.5t-73.5 176.5q-3 9 4 12.5t14 -3.5z" />
    <glyph glyph-name="bracketright" unicode="]" horiz-adv-x="175" 
d="M45 613q-9 0 -10.5 7.5t6.5 11.5q20 4 38.5 11t32.5 8t22 -9t8 -40q0 -17 -0.5 -34.5t-1.5 -35.5q-1 -33 -2 -56.5t-2.5 -45t-3 -46t-3.5 -58.5q-1 -19 -3 -46t-4 -56.5t-4 -57t-4 -47.5q-3 -34 -9 -71q-5 -29 -12 -37.5t-17 -7t-23 9t-31 10.5q-9 5 -7.5 13t12.5 6
q14 -3 23.5 -9.5t16.5 -9t11 2.5t7 26q6 32 9 67q2 25 4 49l4 48q8 103 14.5 206t4.5 206q-7 5 -17 3.5t-20.5 -5t-21 -8t-17.5 -5.5z" />
    <glyph glyph-name="asciicircum" unicode="^" horiz-adv-x="224" 
d="M32 523q-6 -9 -13.5 -4.5t-4.5 13.5q3 4 14 25.5t25 46.5t26.5 45.5t18.5 22.5q8 2 11 -4q15 -18 25.5 -38.5l21 -41t22 -40.5t28.5 -37q2 -6 -0.5 -10.5t-9.5 -4.5q-6 0 -8 6q-15 15 -27.5 35.5t-23 41.5t-20 39.5t-16.5 28.5q-16 -32 -33 -62.5t-36 -61.5z" />
    <glyph glyph-name="underscore" unicode="_" horiz-adv-x="325" 
d="M26 3q-10 0 -11 9t10 11q13 0 34.5 0.5t48 1.5t54.5 1.5t54.5 1.5t48 1.5t34.5 0.5q9 -2 9.5 -9.5t-8.5 -10.5q-19 0 -57 -1t-79.5 -2.5t-80 -2.5t-57.5 -1z" />
    <glyph glyph-name="grave" unicode="`" horiz-adv-x="139" 
d="M19 641q-5 8 0.5 13.5t13.5 1.5q26 -24 46.5 -52t40.5 -57q3 -8 -2.5 -12.5t-13.5 0.5q-20 29 -39.5 56t-45.5 50z" />
    <glyph glyph-name="a" unicode="a" horiz-adv-x="323" 
d="M58 419q35 62 72 66t78 -45q0 2 0.5 4.5t0.5 5.5v2q2 8 8 8t10 -6l2 1v-6q2 -23 1.5 -46.5t-2.5 -46.5q1 -32 2.5 -63.5t3.5 -60t5 -52.5t6 -40q2 -11 6.5 -34t13 -43.5t20.5 -31t30 5.5q8 5 13 -1t0 -14q-23 -20 -40 -14.5t-29.5 26t-21 51.5t-13.5 61.5t-7.5 55.5
t-3.5 34q0 3 -0.5 7t-0.5 8l-10 -46q-5 -24 -15 -47t-21 -46q-15 -31 -36.5 -56t-42.5 -32.5t-39 7.5t-28 65q-8 37 -10 79.5t2.5 85t15.5 83.5t30 75zM201 302q2 14 4 29t3 30v56q-6 0 -9 3q-10 14 -19.5 26.5t-26.5 17.5t-31.5 -3t-26.5 -22.5t-21 -31t-13 -28.5
q-23 -58 -27.5 -120.5t0.5 -123.5q4 -41 14 -64t25.5 -25t35 17t42.5 62q11 21 18.5 43t13.5 44q7 23 11 45t7 45z" />
    <glyph glyph-name="b" unicode="b" horiz-adv-x="352" 
d="M15 676q-5 9 2.5 14.5t13.5 -2.5q9 -12 14.5 -29.5t9 -36t6 -37t4.5 -31.5q14 -88 23 -176t14 -178q2 -24 3 -53.5t3 -52.5q4 15 7.5 32.5t6 33t4.5 26.5t2 12q2 10 7.5 38.5t14.5 63.5t21 71t28 60.5t35 33t42 -11.5q25 -20 37 -53.5t16 -71t1 -74t-8 -60.5
q-2 -12 -11 -41.5t-23 -60.5t-32 -56t-39 -29q-15 -2 -22 3.5t-10 14.5t-3.5 21.5t-3.5 26.5q2 8 9 10.5t10 -7.5l9 -46l13 -2q29 31 51 72.5t33.5 86.5t11.5 91.5t-14 88.5q-7 23 -20.5 45.5t-36.5 31.5q-26 -24 -43.5 -61.5t-29.5 -80t-20 -85t-15 -76.5q-4 -19 -7 -46.5
t-16 -43.5q-9 -7 -16 3q-7 15 -9.5 34t-3.5 39t-1 39t-1 34q-2 28 -4.5 70t-6.5 89.5t-9.5 97.5t-12.5 93.5t-15.5 77t-18.5 48.5z" />
    <glyph glyph-name="c" unicode="c" horiz-adv-x="260" 
d="M174 413q-3 -9 -10.5 -8.5t-9.5 8.5q0 47 -12.5 66t-29 16t-33.5 -26.5t-27 -62.5q-9 -36 -15 -83t-6 -96t7 -95.5t24 -80.5q12 -22 27.5 -24t32 9t33 30.5t31 41.5t25.5 42t17 31q7 7 14 3.5t4 -12.5q-11 -20 -20.5 -38t-23.5 -36q-12 -17 -17.5 -24.5t-9.5 -12.5
t-10.5 -11t-20.5 -21q-8 -8 -18 -14.5t-21 -6.5q-34 0 -54 24.5t-29.5 62.5t-11 84t1.5 90.5t9 82t11 57.5q12 49 36 77t47.5 30.5t41 -22t17.5 -81.5z" />
    <glyph glyph-name="d" unicode="d" horiz-adv-x="290" 
d="M124 472q22 -7 38 -25t31 -36q-1 8 -1 17v18q-1 46 1.5 91t12.5 89q1 4 6 20t12.5 29t16.5 16.5t19 -15.5q8 -16 10 -45.5t0.5 -62t-5.5 -64t-7 -50.5q-6 -45 -14.5 -88t-21.5 -85l5 -47v1q14 -72 28.5 -142.5t35.5 -142.5q2 -9 -5.5 -11.5t-12.5 5.5q-23 72 -39.5 143.5
t-26.5 146.5q-9 -27 -20 -54t-24 -53q-8 -17 -21.5 -35.5t-29.5 -30t-32.5 -13t-31.5 15.5q-17 19 -24.5 59.5t-9 87t0.5 90t5 69.5q2 18 9 39t20 37.5t31.5 25t43.5 0.5zM203 273q-6 52 -9 105q-16 37 -40.5 55t-49 17t-43 -21.5t-22.5 -60.5q-6 -65 -5.5 -123t7.5 -99.5
t20.5 -61.5t34 -9t47 58t60.5 140zM214 383q1 -13 1.5 -25.5t2.5 -24.5q6 27 10.5 57t9.5 64q4 27 8 54.5t6 55.5t0 54.5t-11 51.5q-12 -24 -18.5 -56t-9 -69.5t-2 -78.5t2.5 -82v-1zM229 217l-2 12q2 -10 2 -12z" />
    <glyph glyph-name="e" unicode="e" horiz-adv-x="253" 
d="M10 242q-8 4 -7.5 11.5t8.5 7.5v19.5t1 16.5q1 12 2 35t4.5 48.5t11.5 49t23 34.5q20 15 37 11t31 -17.5t24 -31.5t17 -31q11 -21 12 -49t-7 -54.5t-24.5 -48.5t-39.5 -32q-11 -5 -20 -4t-17.5 5t-16.5 10t-16 11q4 -30 13 -64t21.5 -63.5t29 -50t36 -23.5t41 15.5
t45.5 67.5q7 7 14 3.5t4 -12.5q-7 -12 -15 -27t-18.5 -29t-23.5 -24.5t-29 -13.5q-33 -5 -57.5 16.5t-41.5 56.5t-26.5 77.5t-12.5 78.5q-1 0 -1.5 0.5t-1.5 0.5zM42 402q-8 -35 -10.5 -73t-0.5 -74q14 -8 27.5 -19.5t28.5 -9.5q25 3 39 22.5t19.5 44.5t4.5 51t-6 43
q-7 22 -21 39t-29.5 22t-30 -5t-21.5 -41z" />
    <glyph glyph-name="f" unicode="f" horiz-adv-x="259" 
d="M12 235q-8 4 -7.5 11t9.5 9q7 -1 20 3.5t29 16.5q2 29 5 53t6 41q12 65 18 103.5t12 64.5t14 45.5t23 47.5q13 24 32 30.5t35.5 -2t27 -30t6.5 -53.5q-2 -19 -5.5 -38t-11.5 -37q-7 -18 -21 -49.5t-33 -66.5t-41.5 -68t-46.5 -52q-6 -80 -9 -174q39 22 81.5 13t72.5 -63
q18 -33 22.5 -84t-2 -104t-24 -101t-42.5 -76q-14 -15 -27.5 -15t-25.5 9t-22 23.5t-16 28.5q-10 23 -16.5 59t-11 79.5t-6.5 92.5t-2 99q-8 -8 -15 -17.5t-12 -19.5q-6 -9 -13.5 -4.5t-4.5 13.5q18 33 45 55q1 46 2.5 89.5t3.5 82.5q-16 -9 -28.5 -14.5t-20.5 -0.5zM211 29
q-14 26 -30.5 39.5t-34.5 17t-36.5 -2t-35.5 -17.5q-2 -93 6 -181.5t29 -155.5q20 -41 39 -42t35 23.5t27.5 67.5t16 90t1.5 90.5t-17 70.5zM94 366q-2 -17 -4 -35t-4 -37q21 20 40 48t35 58t27.5 59t18.5 50q3 11 7 26t6.5 31.5t2.5 32t-4 28.5q-3 10 -11.5 13t-17.5 0.5
t-18 -9t-14 -13.5q-14 -22 -25 -56t-18.5 -70.5t-12.5 -70t-8 -55.5z" />
    <glyph glyph-name="g" unicode="g" horiz-adv-x="300" 
d="M201 447q6 -7 1.5 -14t-12.5 -3q-22 17 -48.5 24t-43.5 -9q-26 -25 -42 -68t-23 -91t-6.5 -95.5t6.5 -81.5q6 -30 19.5 -49t30 -22t34 12.5t31.5 53.5q8 21 14 49.5t11 60.5t9 65.5t7 64.5q2 11 10.5 10.5t9.5 -11.5q5 -72 20 -140.5t32 -138.5q6 2 12.5 3t13.5 2
q9 -2 9.5 -9.5t-8.5 -10.5q-6 -1 -11.5 -2t-11.5 -3l2 -6q9 -38 17 -79t10 -80q2 -27 1.5 -47.5t-2.5 -38t-5.5 -33t-8.5 -32.5q-9 -33 -28.5 -64.5t-42.5 -47t-47.5 -7t-45.5 57.5q-11 27 -14.5 63t0.5 74.5t15 78t29 73.5t43 60.5t56 40.5q-12 52 -25 101t-21 95
q-4 -24 -8 -48.5t-9 -48.5q-3 -15 -7 -32t-9 -33.5t-13 -31.5t-20 -27q-20 -19 -40 -18t-36.5 14t-28 34.5t-14.5 43.5q-6 35 -7 86t6 103t24.5 97t49.5 69q3 2 12.5 6.5t24 5t34 -4.5t44.5 -21zM223 -348q27 42 39 89t12.5 96t-7 100t-18.5 101q-36 -17 -62 -53.5t-42 -80
t-22.5 -88t-3.5 -77.5q1 -11 5.5 -27.5t11.5 -33t17 -30.5t21 -20t23.5 -1.5t25.5 25.5z" />
    <glyph glyph-name="h" unicode="h" horiz-adv-x="240" 
d="M20 658q2 11 10 11t10 -11q0 -113 -1 -225.5t1 -225.5q0 -5 1 -27t2 -48t2.5 -50t3.5 -33q12 31 16.5 64t11.5 65q6 27 13.5 62t16 72t18.5 72.5t20.5 62.5t21 42.5t21.5 12.5q9 -8 12.5 -16.5t4.5 -20.5t0.5 -30.5t-0.5 -46.5t-2.5 -68t-4 -85.5t0.5 -92t10 -87
t25 -71.5t46 -44q9 -4 6.5 -11.5t-11.5 -7.5q-30 11 -48 35t-28.5 56t-14 69t-4 73.5t0.5 70.5t0 60q0 2 1 16t2 34t1.5 43.5t0 44t-2.5 35.5t-5 19q-32 -71 -48.5 -149t-32.5 -154q-7 -31 -10.5 -50t-5.5 -30.5t-3 -18t-3.5 -13.5t-6 -17t-10.5 -27q-4 -5 -9 -5.5t-9 5.5
q-17 45 -17.5 93.5t-2.5 95.5q-2 114 -1 226t1 225z" />
    <glyph glyph-name="i" unicode="i" horiz-adv-x="121" 
d="M40 462q2 11 10 11t10 -11q-1 -53 -3.5 -106t-3.5 -106.5t3 -106.5t17 -104q2 -11 -7 -12t-12 9q-13 52 -17 105.5t-3.5 107t3 107t3.5 106.5zM61 628q10 -1 8.5 -7t-7.5 -10.5t-13 -3.5t-8 14l1 1v1q3 2 6 3.5t13 1.5z" />
    <glyph glyph-name="j" unicode="j" horiz-adv-x="119" 
d="M48 481q9 2 11.5 -5t-3.5 -12q-2 -48 0 -85t7 -79q4 -53 11.5 -106.5t13.5 -107.5t9 -107.5t0 -107.5q-2 -37 -10.5 -74.5t-22 -71t-31 -61.5t-38.5 -47q-16 -14 -34 -23t-34.5 -9.5t-29.5 8.5t-20 30l-19 66q-3 10 6 13t12 -7q5 -15 8 -31t10 -30q16 -30 37.5 -27t43 24
t41 51.5t31.5 53.5q25 61 29.5 132.5t-1 146.5t-16 148t-16.5 137q0 4 -4 31.5t-5.5 59.5t0.5 59t14 31zM51 628q11 -2 10 -11t-12 -9h-9q-2 0 -2.5 0.5t-1.5 0.5q-3 1 -4 4v1q-1 2 -1 7l1 1v1l3 2q2 2 3 2q1 1 3 1h10z" />
    <glyph glyph-name="k" unicode="k" horiz-adv-x="257" 
d="M18 634q2 11 10 11t10 -11v-523q0 5 4.5 23.5t12 44.5t17.5 57.5t21.5 63t23.5 60t24 49.5l1 2v-1q6 5 12.5 1.5t3.5 -12.5q-24 -54 -46 -108.5t-38 -112.5q-4 -14 -7.5 -28t-6.5 -28q0 -36 20 -53.5t48.5 -22t60.5 1t56 14.5q9 2 12 -5.5t-5 -12.5q-24 -10 -53.5 -15.5
t-58 -3.5t-52.5 14t-37 36q-3 -14 -6 -29t-7 -29q-11 -11 -14.5 -8t-5.5 8v617v0z" />
    <glyph glyph-name="l" unicode="l" horiz-adv-x="92" 
d="M46 674q0 -83 -1 -166t0 -166t5 -166t14 -166q-3 -9 -10.5 -8.5t-9.5 8.5q-10 83 -14 166.5t-5 167t0 167t1 167.5q1 8 8 10h3l4 -2l1 -1q2 -2 2 -3q1 -1 1 -2t1 -2v-4v0z" />
    <glyph glyph-name="m" unicode="m" horiz-adv-x="407" 
d="M12 458q2 11 10 11t10 -11q0 -21 0.5 -54t2 -71.5t3 -79.5t3.5 -78t5 -67.5t7 -47.5q7 13 13.5 35t12.5 48.5t11.5 54.5t10 52.5t8 43.5t5.5 27q2 7 6 24.5t9.5 36.5t12.5 34.5t15 19.5q4 1 10 -2q12 -12 16.5 -34t5 -47.5t-1 -50t-1.5 -39.5q0 -8 1.5 -26.5t4 -39.5
t6.5 -39t10 -25q17 22 28.5 57.5t20 75t16.5 77.5t17 67q3 8 10 8t9 -8q7 -26 9 -59.5t3 -69.5t3 -72t9 -68.5t20 -58.5t37 -41q6 -7 1.5 -14t-12.5 -3q-23 11 -37 35t-22.5 54.5t-11.5 66t-4.5 69.5t-2 65t-3.5 53q-6 -20 -12.5 -59t-16 -79t-23.5 -73.5t-35 -43.5
q-5 -1 -12 3q-12 10 -18.5 32t-8.5 50t-2 59t-0.5 60t-2.5 53t-8 38q-10 -20 -15 -44t-10 -45q-14 -60 -24 -118.5t-32 -120.5q-12 -38 -20 -46.5t-13.5 1.5t-9 32t-5.5 44l-5 50l-7 99q-3 51 -4 100t-2 99z" />
    <glyph glyph-name="n" unicode="n" horiz-adv-x="291" 
d="M12 399q2 11 10 11t10 -11q6 -39 9 -78t7 -78t9 -78t16 -77q8 19 13 55.5t9.5 80t9.5 88.5t13.5 81.5t21.5 59.5t33 23q19 0 29.5 -29.5t16 -75t9 -99.5t9 -104.5t14.5 -90t27 -54.5q9 -11 22.5 -22t25.5 -19q6 -7 1.5 -14t-12.5 -3q-13 9 -26 17t-26 18q-17 13 -26.5 50
t-16 85.5t-11 102.5t-9 100t-12 78t-19.5 38q-3 0 -5 -1q-12 -6 -19 -29.5t-12 -57.5t-9 -75.5t-9 -84.5t-12 -83.5t-19 -71.5q-4 -3 -12 0t-11 8q-12 42 -19 84t-11.5 84.5t-8.5 85t-10 86.5z" />
    <glyph glyph-name="o" unicode="o" horiz-adv-x="256" 
d="M58 463q23 17 44.5 17t39.5 -9.5t31.5 -25t22.5 -28.5q8 -12 16 -37.5t13.5 -58.5t7 -71t-3 -75t-16 -70.5t-32.5 -57.5q-33 -37 -60 -35t-46.5 25t-31.5 57t-17 60t-7 46.5t-2 40t0.5 39.5t1.5 46q1 22 3.5 43.5t7 40t11.5 32.5t17 21zM143 443q-8 5 -17.5 9t-20 4.5
t-20 -2.5t-16.5 -11q-12 -18 -20 -49.5t-11 -70.5t-1.5 -81t8.5 -80t19.5 -68.5t30.5 -45.5q16 -12 36.5 -7t34.5 19q17 20 28.5 52t17 69t4 76.5t-10 75t-24 64.5t-38.5 46z" />
    <glyph glyph-name="p" unicode="p" horiz-adv-x="284" 
d="M9 402q-4 3 -3 10q2 8 8 10.5t11 -4.5q4 -6 7.5 -26.5t6.5 -48.5t6 -59.5t5.5 -59t4.5 -46.5t4 -23q4 45 12 95.5t19 92.5q4 13 10.5 34.5t15 42.5t19 38.5t21.5 24.5q24 14 41.5 9t36.5 -44q19 -41 25 -92.5t3 -103t-13 -98t-23 -76.5q-11 -25 -28 -45.5t-36.5 -30.5
t-40 -5t-36.5 31q-5 9 2.5 17t13.5 0q15 -23 30 -27t29 4t26.5 25.5t21.5 37.5q16 35 25 81t10 94.5t-5.5 95t-20.5 82.5q-3 7 -8 15t-11 13t-13.5 6t-16.5 -6q-38 -53 -57 -119t-25.5 -138.5t-5 -148t5.5 -147.5q3 -24 6 -48.5t4 -48.5q0 -6 1 -9l-3 1q-3 -5 -9 -4.5
t-9 7.5v1q-5 36 -8.5 72.5t-5.5 73.5v5z" />
    <glyph glyph-name="q" unicode="q" horiz-adv-x="265" 
d="M233 430q2 -11 -7 -12t-12 9q-2 12 -4 19q-2 2 -4 2q-29 -11 -54 -40t-45.5 -65t-36 -72.5t-24.5 -63.5l-9 -27t-7.5 -30t0.5 -28.5t15 -23.5q16 3 28 16t21 30t15 35l10 30q1 2 7.5 26.5t15.5 54.5t18.5 57t17.5 36q5 5 12 4q12 -2 11 -13.5t0 -19.5q6 -102 6 -203
q0 -57 1 -113t4 -112q18 10 41.5 17.5t47 8.5t43.5 -7t32 -30q12 -13 17 -36t4.5 -51.5t-6.5 -58.5t-15.5 -57.5t-23 -48.5t-28.5 -31q-32 -20 -55 -3.5t-36 48.5q-20 49 -29.5 100.5t-13.5 105.5q-24 -26 -37.5 -61t-15.5 -73q-3 -9 -10.5 -8.5t-9.5 8.5q2 28 7 54t19 51
q17 33 45 56q-3 62 -2 122.5t1 118.5q0 12 0.5 38.5t0.5 57t-0.5 60.5t-3.5 49q-9 -17 -13 -39.5t-9 -39.5q-7 -25 -14.5 -59.5t-27.5 -73.5q-3 -6 -12 -19.5t-21 -26t-26 -19.5t-26 1q-26 17 -26 41.5t6 51.5q17 66 47.5 130t75.5 115q12 13 26.5 27.5t28 20.5t24.5 -1
t16 -35zM315 -70q-60 3 -102 -27q1 -41 6 -81q6 -27 12.5 -60.5t16.5 -61.5t25.5 -43.5t39.5 -7.5q19 17 35 51t24 71.5t6 73.5t-18 58q-8 11 -20 18.5t-25 8.5z" />
    <glyph glyph-name="r" unicode="r" horiz-adv-x="235" 
d="M23 453q-9 5 -7.5 13t12.5 6q8 2 17 -24t17.5 -69.5t14.5 -98.5t9 -111q3 43 8 98.5t17 106t34.5 87.5t62.5 44q9 -2 9.5 -9.5t-8.5 -10.5q-28 -3 -47.5 -38.5t-32.5 -87.5t-20 -113t-10.5 -114.5t-4 -93t-0.5 -47.5q-4 -5 -10.5 -6.5t-7.5 6.5q-1 14 -2 44.5t-3.5 70
t-6 86t-9 92t-12.5 88t-16 74.5q-2 4 -4 7z" />
    <glyph glyph-name="s" unicode="s" horiz-adv-x="297" 
d="M186 489q6 -7 1.5 -14t-12.5 -3q-18 13 -36 9.5t-34.5 -16.5t-30 -33.5t-23 -42t-13.5 -42t-1 -33.5q4 -15 16.5 -24.5t29 -15t33 -9t27.5 -6.5q30 -8 59 -18.5t48.5 -28t25 -44t-10.5 -64.5q-10 -24 -28 -44t-40.5 -34t-48 -20.5t-52.5 -2.5q-11 2 -26 5.5t-23 12.5
q-25 26 -29 58t-4 66q2 11 10 11t10 -11q0 -24 1 -51t15 -47q13 -19 35 -23.5t45.5 0t45.5 15t36 22.5q13 12 20.5 26t15.5 28q2 6 2 8q10 37 0 58t-32 33t-52.5 18.5t-59.5 15t-53.5 21.5t-34.5 39q-8 18 -4 42.5t16 49.5t30.5 47.5t39.5 36.5t43.5 16.5t42.5 -11.5z" />
    <glyph glyph-name="t" unicode="t" horiz-adv-x="220" 
d="M14 388q-9 0 -10.5 7.5t6.5 11.5q41 10 86 18q5 62 9.5 123t7.5 124q2 11 10 11t10 -11q-2 -62 -7 -122.5t-10 -121.5l75 12q9 -2 9.5 -9.5t-8.5 -10.5q-20 -4 -38.5 -6.5t-38.5 -5.5q-2 -31 -4 -61.5t-3 -60.5q-2 -71 -2 -145.5t20 -143.5q5 -16 12.5 -30.5t14.5 -30.5
q4 -9 -3.5 -14t-13.5 5l-28 62q-7 16 -11 41.5t-6.5 53t-3.5 53t-1 40.5q-1 57 1.5 113.5t6.5 113.5q-20 -3 -40 -7t-40 -9z" />
    <glyph glyph-name="u" unicode="u" horiz-adv-x="271" 
d="M52 232q0 -3 3.5 -26.5t9.5 -53t15.5 -57.5t22.5 -41q16 13 26.5 34.5t17 46.5t10.5 50.5t8 46.5q6 29 12.5 82t10.5 113q2 23 2.5 45.5t1.5 45.5q8 15 20 -1q0 -37 -1.5 -73.5t-5.5 -72.5q-2 -48 -2.5 -98.5t2 -98t10 -89.5t22.5 -73q5 -10 12.5 -18.5t14.5 -17.5
q3 -8 -2.5 -12.5t-13.5 0.5q-7 10 -16 19t-13 20q-17 45 -25 99t-10 109q-9 -26 -15 -53t-13.5 -51t-18 -43.5t-28.5 -32.5q-9 -2 -16 3q-22 28 -35 63.5t-20 74t-10 77.5t-5 76t-4.5 69.5t-9.5 57.5q-2 8 5 12.5t12 -3.5q3 -6 5.5 -22.5t5 -39.5t5 -48.5t4.5 -49t3.5 -42.5
t2.5 -27z" />
    <glyph glyph-name="v" unicode="v" horiz-adv-x="198" 
d="M21 340q-2 11 -6.5 24t-7 25t-1 21t10.5 11q5 1 9 -11t6 -25q9 -43 16.5 -89.5t15.5 -93t17.5 -92t23.5 -87.5q14 36 18.5 75.5t8.5 76.5q10 93 15.5 184.5t7.5 184.5q2 11 10 11t10 -11q-2 -93 -7.5 -185t-15.5 -184q-1 -9 -3 -35t-6.5 -55.5t-12.5 -55t-21 -32.5
q-4 -1 -9 1q-9 6 -14.5 19.5t-9 29.5t-5.5 31t-4 24q-14 60 -24 119t-22 119z" />
    <glyph glyph-name="w" unicode="w" horiz-adv-x="424" 
d="M14 438q2 11 10 11t10 -11q0 -47 1.5 -102.5t8 -111t20.5 -107.5t39 -93h8q14 20 25 46.5t18.5 56t12.5 61t8 61.5q-1 21 0.5 41.5t6.5 40.5v2h1q4 8 10.5 5t8.5 -11q-2 -17 -3.5 -34t-3.5 -34q0 -71 21 -143q19 -52 39.5 -63t40 3.5t36 46t27.5 64.5q10 31 16 69t5 75.5
t-11.5 73t-33.5 62.5q-10 12 -21.5 22.5t-26.5 13.5q-14 4 -29.5 2t-30.5 -5q-3 -1 -6.5 1.5t-4.5 7.5v1q2 8 7 10q54 10 88.5 -7t54.5 -51t26.5 -80t3 -93.5t-15 -91.5t-27.5 -75q-28 -54 -55 -67.5t-50 2t-40 52.5t-25 83q-1 1 -1 5q-11 -51 -24 -102q-7 -25 -18.5 -46.5
t-40.5 -24.5q-16 -2 -29 23t-22.5 65t-16.5 89.5t-11 98t-5.5 91t-0.5 67.5z" />
    <glyph glyph-name="x" unicode="x" horiz-adv-x="307" 
d="M28 455q-8 -3 -12 4t2 13q18 13 38.5 0t38 -34.5t30 -43.5t15.5 -27q13 -22 28 -49l9 20q18 42 37.5 80.5t55.5 67.5q10 5 14 -2.5t-4 -14.5q-32 -26 -50.5 -64.5t-35.5 -76.5q-4 -8 -7 -16t-7 -16q36 -71 61 -146.5t43.5 -153.5t32 -157t27.5 -156q2 -11 -7 -12t-12 9
q-13 75 -26.5 150.5t-31 150.5t-40.5 147.5t-56 141.5l-1 1q-31 -75 -56.5 -153.5t-38.5 -158.5q-2 -5 -5.5 -7t-7 -1.5t-6 3.5t-1.5 8q14 85 42 168.5t61 163.5q-11 21 -28.5 51.5t-36 57t-36.5 43t-29 9.5z" />
    <glyph glyph-name="y" unicode="y" horiz-adv-x="303" 
d="M14 442q2 11 10 11t10 -11q0 -19 -0.5 -51.5t-0.5 -71t1.5 -79.5t4.5 -79t8.5 -69t14.5 -48q6 0 13.5 14t14.5 31t12 33t6 19q15 43 26.5 86t22.5 86.5t22.5 86.5t27.5 85q5 5 10.5 5t7.5 -8q18 -82 20.5 -163.5t5.5 -165.5q1 -25 2 -49t1 -49q7 -2 13 -3t13 -2
q11 -2 10 -11t-12 -9q-10 1 -23 5q0 -37 -0.5 -73.5t-2.5 -74.5q-2 -41 -7.5 -91.5t-14.5 -92.5q-2 -9 -6.5 -26.5t-11 -36t-15.5 -34.5t-21 -22q-14 -7 -27.5 -6t-25.5 8t-21.5 18.5t-15.5 24.5q-11 28 -14.5 68t0.5 83.5t16 88t31 82.5t45 66t59 39q3 1 5.5 1.5t5.5 0.5
q0 24 -1 47.5t-2 47.5q-2 73 -2 146.5t-16 145.5q-4 -10 -7 -20.5t-8 -21.5q-9 -26 -15 -58t-13 -58q-3 -14 -9.5 -39t-10.5 -39q-3 -10 -11 -40t-20 -62.5t-26.5 -57.5t-29.5 -25q-11 1 -17.5 9t-10 19t-5 22.5t-2.5 19.5l-6 59q0 6 -1 26t-2 42.5t-2 42.5t-1 26
q-1 39 -1.5 76.5t-0.5 75.5zM232 -112q2 38 2.5 75t0.5 74q-2 0 -3.5 -0.5t-3.5 -0.5q-14 -3 -27 -13.5t-24 -23.5t-20 -27t-15 -25q-16 -30 -30 -69.5t-21.5 -81t-5.5 -82.5t19 -75q8 -17 25 -30t36 -7q21 31 33.5 66t19 71.5t9.5 74t5 74.5z" />
    <glyph glyph-name="z" unicode="z" horiz-adv-x="301" 
d="M17 457q-8 -3 -12 4t2 13q15 10 37 12t46 0t47.5 -7t40.5 -8q18 -3 28 -15t13.5 -28t2 -32.5t-7.5 -27.5q-26 -54 -58.5 -104.5t-64.5 -103.5q-14 -24 -24 -56t-8 -55t21 -30.5t64 17.5q18 10 34 22.5t31.5 24.5t31.5 23.5t35 20.5q9 2 12 -5.5t-5 -12.5q-18 -8 -33 -18
t-31 -23q-20 -17 -40 -32t-45 -27q-34 -11 -55 -9t-31 13.5t-11.5 30.5t3 40.5t14 44t20.5 41.5q6 11 22.5 34t35.5 52t36.5 60.5t26 59t4.5 48.5t-28 28q-8 3 -28.5 7.5t-44 6.5t-46.5 1t-35 -10z" />
    <glyph glyph-name="braceleft" unicode="{" horiz-adv-x="203" 
d="M182 679q11 2 12.5 -7t-8.5 -12q-38 -2 -57.5 -18t-27 -39.5t-6.5 -50.5t3 -51q4 -40 9 -75t3 -66t-15 -58t-45 -50q10 -1 17 1t13.5 2t13 -5.5t15.5 -20.5q12 -21 12.5 -54t-1.5 -66t-3 -60.5t8 -37.5q1 0 14.5 -0.5t45.5 -0.5q11 -2 10 -11t-12 -9q-17 0 -34 -1.5
t-33 4.5q-8 3 -11.5 10.5t-4.5 16t-1 17v13.5q0 19 3 41t4 44.5t-1.5 43.5t-12.5 39q-7 12 -14.5 15.5t-16.5 3t-18 -1.5t-19 3q-6 3 -7.5 8t3.5 10q34 22 49.5 50.5t19 60t-0.5 64.5t-8.5 65t-6 61.5t8 54t32.5 42t68 25.5z" />
    <glyph glyph-name="bar" unicode="|" horiz-adv-x="107" 
d="M46 674q0 -55 -0.5 -129t-0.5 -157t0.5 -171t2.5 -171t5.5 -157t10.5 -129q-3 -9 -10.5 -8.5t-9.5 8.5q-7 56 -10.5 130t-5.5 157.5t-2.5 171.5t-0.5 171.5t0.5 157.5t0.5 130q1 8 8 10h3l4 -2l1 -1q2 -2 2 -3q1 -1 1 -2t1 -2v-4v0z" />
    <glyph glyph-name="braceright" unicode="}" horiz-adv-x="255" 
d="M24 650q-9 5 -7.5 13t12.5 6l54 -9q25 -5 39 -27.5t20 -54t6 -69t-1.5 -72.5t-3.5 -64t0 -44q3 -19 14 -29.5t26 -18t30.5 -14.5t26.5 -18q6 -6 3 -12q-6 -11 -15.5 -13.5t-18.5 -10.5q-10 -9 -17 -21t-12 -24q-5 -13 -9 -25.5t-6 -26.5q-2 -13 -1.5 -35t-2.5 -43.5
t-12 -39t-30 -21.5q-17 -2 -28.5 -3.5t-25.5 9.5q-5 8 0.5 13.5t13.5 1.5q8 -6 17 -6t17 4.5t14.5 11.5t9.5 15q7 18 8.5 36.5t2.5 37.5t3.5 39t11.5 41q11 26 28 41t27 23q-11 7 -24 12.5t-26 11.5t-23.5 14.5t-14.5 22.5q-7 21 -7 51.5t2 65.5t3.5 70.5t-2.5 66t-15 53.5
t-35 32q-12 5 -25.5 6t-26.5 3z" />
    <glyph glyph-name="asciitilde" unicode="~" horiz-adv-x="286" 
d="M30 378q-8 -3 -12 4t2 13q5 3 12 16t14.5 27.5t16.5 28t18.5 18t19.5 -3t21 -33.5q8 -16 17.5 -31t19 -26t18.5 -16.5t16 -3.5q23 9 36 32t24 43q7 7 14 3.5t4 -12.5q-5 -10 -10.5 -20t-12.5 -20q-22 -32 -40 -42.5t-32.5 -6t-26 19.5t-22 32.5t-20 33.5t-18.5 23
q-10 0 -17 -10.5t-13.5 -24t-13 -26.5t-15.5 -18z" />
    <glyph glyph-name="cent" unicode="&#xa2;" horiz-adv-x="260" 
d="M114 619q2 11 10 11t10 -11v-62.5t1 -61.5q11 8 23 16l24 16q10 5 14 -2.5t-4 -14.5q-14 -10 -28.5 -19.5t-28.5 -19.5l4 -250h9q16 0 26.5 2t20 5.5t19.5 8t25 10.5q9 2 12 -5.5t-5 -12.5q-21 -9 -30.5 -13.5t-16.5 -7t-17 -3.5t-33 -4q-3 -1 -9 -1q1 -42 1 -62.5v-36.5
t0.5 -36.5t0.5 -62.5q-3 -9 -10.5 -8.5t-9.5 8.5v46t-0.5 30.5t-0.5 23v23t-0.5 30.5t-0.5 46q-26 3 -47.5 16t-36.5 33t-20.5 44.5t0.5 50.5q11 45 38 77t61 58q-1 35 -1 69.5v69.5zM36 341q-6 -23 -1.5 -43t16.5 -35t29.5 -25t38.5 -14l-4 232q-28 -23 -49.5 -50
t-29.5 -65z" />
    <glyph glyph-name="multiply" unicode="&#xd7;" horiz-adv-x="223" 
d="M23 505q-8 7 -3 14.5t14 2.5q25 -20 45.5 -42t38.5 -46l44 103q7 7 14 3.5t4 -12.5q-13 -28 -24.5 -56t-23.5 -56q21 -29 40 -60.5t39 -63.5q3 -8 -2.5 -12.5t-13.5 0.5q-18 29 -35.5 58.5t-36.5 56.5l-28 -62t-30 -61q-6 -9 -13.5 -4.5t-4.5 13.5q17 32 33 65.5t30 67.5
q-19 25 -40 48t-47 43z" />
    <glyph glyph-name="divide" unicode="&#xf7;" horiz-adv-x="300" 
d="M272 413q-61 -7 -121.5 -10.5t-121.5 -3.5q-9 1 -9.5 9.5t10.5 10.5q61 0 121 3.5t120 10.5q9 -2 9.5 -9.5t-8.5 -10.5zM152 530q8 -3 6 -12t-11 -7q-5 1 -7 4.5t-1 7t4.5 6t8.5 1.5zM162 341q8 -3 6 -12t-11 -7q-5 1 -7 4.5t-1 7t4.5 6t8.5 1.5z" />
    <glyph glyph-name="quoteleft" unicode="&#x2018;" horiz-adv-x="100" 
d="M15 591q2 11 10 11t10 -11q0 -36 16 -73t30 -72q4 -9 -3.5 -14t-13.5 5q-15 37 -32 76t-17 78z" />
    <glyph glyph-name="quoteright" unicode="&#x2019;" horiz-adv-x="110" 
d="M86 591q0 -39 -17 -78t-32 -76q-6 -10 -13.5 -5t-3.5 14q14 35 30 72t16 73q2 11 10 11t10 -11z" />
    <glyph glyph-name="quotedblleft" unicode="&#x201c;" horiz-adv-x="168" 
d="M96 587q2 11 10 11t10 -11l30 -150q-3 -9 -10.5 -8.5t-9.5 8.5zM15 591q2 11 10 11t10 -11q0 -36 16 -73t30 -72q4 -9 -3.5 -14t-13.5 5q-15 37 -32 76t-17 78z" />
    <glyph glyph-name="quotedblright" unicode="&#x201d;" horiz-adv-x="162" 
d="M65 587l-30 -150q-2 -8 -9.5 -8.5t-10.5 8.5l30 150q2 11 10 11t10 -11zM146 591q0 -39 -17 -78t-32 -76q-6 -10 -13.5 -5t-3.5 14q14 35 30 72t16 73q2 11 10 11t10 -11z" />
    <glyph glyph-name="perthousand" unicode="&#x2030;" horiz-adv-x="587" 
d="M296 274q5 7 17 13t25.5 9.5t26.5 2t20 -9.5q16 -18 19.5 -44t-4 -50.5t-23.5 -43.5t-38 -23q-39 -6 -56.5 8t-20 37.5t7.5 51.5t26 49zM329 658q7 7 14 3.5t4 -12.5q-36 -89 -73.5 -176.5t-72 -176.5t-64 -179.5t-51.5 -184.5q-2 -5 -5.5 -7t-7 -1.5t-6 3.5t-1.5 8
q22 94 52 185.5t64.5 181t72 178.5t74.5 178zM373 272q-16 11 -31 6.5t-27.5 -16.5t-20.5 -29t-11 -32q-2 -12 0 -24t8 -21t17 -12t26 3q12 5 26 22t22.5 37t7.5 38.5t-17 27.5zM128 574q3 -8 -3.5 -13.5t-12.5 1.5q-21 5 -38 -12t-25.5 -43t-6 -53.5t21.5 -42.5
q15 -12 31 -10.5t29.5 11.5t22.5 25.5t9 31.5t-11 30t-37 20q-9 5 -7.5 13t12.5 6q32 -7 46 -25t15.5 -39t-8.5 -42t-27 -34.5t-39.5 -16t-46.5 12.5q-21 13 -26.5 37.5t-1.5 50.5t15.5 50.5t24.5 38.5q3 3 12 7t19.5 5.5t19.5 -0.5t12 -9zM456 274q5 7 17 13t25.5 9.5
t26.5 2t20 -9.5q16 -18 19.5 -44t-4 -50.5t-23.5 -43.5t-38 -23q-39 -6 -56.5 8t-20 37.5t7.5 51.5t26 49zM533 272q-16 11 -31 6.5t-27.5 -16.5t-20.5 -29t-11 -32q-2 -12 0 -24t8 -21t17 -12t26 3q12 5 26 22t22.5 37t7.5 38.5t-17 27.5z" />
    <glyph glyph-name="fraction" unicode="&#x2044;" horiz-adv-x="295" 
d="M259 658q7 7 14 3.5t4 -12.5q-36 -89 -73.5 -176.5t-72 -176.5t-64 -179.5t-51.5 -184.5q-2 -5 -5.5 -7t-7 -1.5t-6 3.5t-1.5 8q22 94 52 185.5t64.5 181t72 178.5t74.5 178z" />
    <glyph glyph-name="minus" unicode="&#x2212;" horiz-adv-x="244" 
d="M26 403q-10 0 -11 9t10 11q19 0 44.5 1t52.5 2.5t52 2.5t45 1q9 -2 9.5 -9.5t-8.5 -10.5q-19 0 -44.5 -1t-52 -2.5t-52.5 -2.5t-45 -1z" />
    </font>
</defs>
</svg>
