<?xml version="1.0" standalone="no"?>
<!DOCTYPE svg PUBLIC "-//W3C//DTD SVG 1.1//EN" "http://www.w3.org/Graphics/SVG/1.1/DTD/svg11.dtd" >
<svg xmlns="http://www.w3.org/2000/svg" xmlns:xlink="http://www.w3.org/1999/xlink" version="1.1">
<metadata></metadata>
<defs>
<font id="biergrten_shadow_italshadowIt" horiz-adv-x="1202" >
<font-face units-per-em="2048" ascent="1638" descent="-410" />
<missing-glyph horiz-adv-x="491" />
<glyph horiz-adv-x="0" />
<glyph unicode="&#xd;" horiz-adv-x="1024" />
<glyph unicode=" "  horiz-adv-x="491" />
<glyph unicode="&#x09;" horiz-adv-x="491" />
<glyph unicode="&#xa0;" horiz-adv-x="491" />
<glyph unicode="!" horiz-adv-x="786" d="M167 87.5q13 -52.5 50 -83.5l25 -39q20 -31 51 -50t69 -19q37 0 75 15t73 40.5t62.5 59.5t41.5 71q8 20 14.5 52t7.5 64.5t-2 63.5t-16 51l291 217q10 6 12.5 11.5t4.5 9.5q4 12 2 34.5t-10 37.5l-37 55l-2 2q-4 16 -9 27l203 528q12 31 -1 83t-42 97l-12 21 q-20 53 -54 96t-67 43q-20 0 -58 -15.5t-83 -41t-93.5 -57t-90.5 -64.5t-71.5 -62.5t-37.5 -52.5q-27 -68 16 -88l37 -57v-4q-10 -37 -22.5 -81t-23.5 -83t-20.5 -70t-15.5 -43q-16 -47 -41.5 -71.5t-52.5 -45.5q-31 -23 -52.5 -43t-35.5 -55q-4 -8 -4 -12v-19l125 -215 q-63 -39 -117.5 -87t-81.5 -113q-20 -55 -7 -107.5zM190.5 122q-4.5 36 10.5 73q27 68 87 114.5t124 83.5l-136 232v6t3 10q12 31 35.5 50.5t49 39t52 48t45.5 77.5q8 20 23.5 71.5t33 109t30.5 108.5t19 72q-109 -16 -78 65q8 20 35 48t66 56.5t83 58.5t85 52.5t75.5 36.5 t53.5 14q25 0 49.5 -27.5t42.5 -64.5t26.5 -77t-1.5 -64l-226 -592q10 0 36 -12.5t30 -20.5q10 -12 14 -34.5t-6 -30.5l-311 -232q14 -14 20 -44t5 -63.5t-7 -67.5t-14 -56q-12 -35 -37 -64.5t-55.5 -52t-64.5 -36t-66 -13.5q-35 0 -64 17.5t-46 45t-21.5 63.5zM1020 1427v3 q2 -2 2 -5q0 -2 2 -4z" />
<glyph unicode="&#x22;" horiz-adv-x="1142" d="M471 1307l45 -209l57 -193l25 -41q8 -2 8 -4l45 -67q10 -4 13 -5h12h6q2 0 5 1.5t5 1.5q18 2 55 25.5t77 53t73 59t43 42.5q0 2 2 5t6 11q10 18 20.5 45t20.5 49q6 18 12.5 37t10.5 35l12 -53l57 -193l25 -37q4 -2 4 -4h4l21 -32l24 -35q12 -6 15.5 -7t9.5 -1h6q6 0 12 4 h4q16 2 53 25.5t76 52t72 58.5t45 44q6 14 8 19t8 22q4 10 9.5 19t9.5 20l10 30q41 104 45 189.5t-41 157.5l-18 30q-20 45 -60 99l-288 -58l-115 -143q-6 16 -12.5 32.5t-16.5 32.5l-24 39q-18 45 -56 92l-288 -55zM504 1311l129 166l262 51q66 -74 69 -162t-44 -207 q-6 -14 -13.5 -32.5t-14.5 -35t-13.5 -28.5t-6.5 -14q-8 -12 -37.5 -38t-64.5 -51.5t-68.5 -47t-50.5 -23.5q-2 0 -8 -1t-8 -1q-6 0 -10 1l-4 1l-21 33l-53 192zM1012 1313l131 166l264 53q66 -74 67 -163t-44 -206q-4 -14 -12.5 -32.5t-16.5 -36.5q-6 -16 -13 -28l-6 -13 q-10 -12 -38.5 -39t-64.5 -52.5t-68.5 -46t-49.5 -22.5q-4 0 -8 -2t-8 -2t-11 2l-6 2l-20 31l-53 192z" />
<glyph unicode="#" horiz-adv-x="1675" d="M193 539q0 -6 8 -15l45 -71q6 -10 48 -36t114 -44l-48 -113q-10 -25 -6 -64.5t16.5 -79.5t31 -75t40.5 -53l21 -33q14 -25 30.5 -40t32.5 -15q25 0 78 28.5t113.5 69.5t119 89t91.5 89q8 -53 31.5 -106.5t52.5 -77.5l22 -35q33 -53 64 -53q29 0 94 36.5t135 88t127 105.5 t72 91q20 49 4 76l-33 55v4q66 10 113 18.5t88 29.5l18 12q8 23 6 26l-43 68q4 14 1 17.5t-17 7.5l-135 14v2q106 12 189 47t136 64q10 0 14.5 3t10.5 19q6 14 2 19l-41 67q4 12 2 16.5t-18 8.5l-172 20l35 31q29 23 49 44t34 56q2 4 3 8q0 4 2 27q-8 37 -23.5 77t-42.5 81 q-20 53 -58 108.5t-85 110.5q-59 -41 -121 -83t-98 -69q-72 -49 -114 -77.5t-65 -49.5q-6 12 -13 24.5t-13 27.5l-6 10q-23 51 -60 105.5t-84 107.5l-43 -31q-43 -29 -83 -56.5t-68 -47.5q-68 -47 -110 -77t-67.5 -50.5t-37 -33.5t-17.5 -28q-4 -10 -7 -40.5t-3 -39.5 q2 -4 7 -9l11 -11l29 -43l-16 -43l-367 -43l27 -17l41 -65l139 -86l80 -8l-12 -39l-281 -51h-20zM211 512l301 55l51 154l-172 14l-88 53l301 37l41 107q-6 0 -15 4t-19.5 10t-18.5 12.5t-10 12.5q-2 2 2 28.5t8 34.5q4 12 21.5 28.5t59.5 47.5t115.5 81t190.5 132 q61 -70 102 -141.5t52 -139.5v-8q0 -6 -3 -12q-10 -29 -26.5 -46.5t-35.5 -31.5t-38.5 -30.5t-38.5 -41.5l41 5l152 -21l30 80q-6 0 -22 8t-33 19q-8 8 -8 12t4 31q6 31 8 34q4 12 21.5 27.5t60.5 46.5t117 81t190 132q59 -68 100.5 -139.5t51.5 -140.5v-9q0 -6 -2 -10 q-12 -33 -34.5 -53.5t-49.5 -42t-52.5 -49t-45.5 -74.5l278 -37l8 -3q9 -3 0 -5q-53 -29 -140 -65.5t-202 -45.5q-10 -29 -19 -57.5t-13 -56.5l206 -27l8 -3q7 -3 1 -5q-43 -20 -99.5 -29.5t-142.5 -21.5q-10 -29 -12 -45.5t-7 -28.5q109 18 72 -76q-12 -35 -66.5 -86 t-120 -98t-127 -82t-87.5 -35q-23 0 -45.5 30.5t-38 74t-20.5 87.5t5 72l64 166q-45 6 -92 8t-96 6q-8 -23 -13.5 -41t-5.5 -32q109 18 72 -76q-8 -23 -37 -53.5t-67 -63.5t-83 -65.5t-86 -58t-75.5 -42t-51.5 -16.5q-23 0 -45 30.5t-38.5 73.5t-21.5 87t5 71l82 195 q-59 4 -109.5 13t-85 19.5t-52 17.5t-11.5 7zM877 594l53 8l149 -20l35 92l-207 16q-8 -23 -14 -45t-16 -51zM928 344q8 -2 24 -2h9l-13 -31zM1161 885q2 4 8 10l2 -4l-2 -6h-8z" />
<glyph unicode="$" horiz-adv-x="1003" d="M139 420h2q0 -20 5.5 -49t13.5 -56.5t16 -51t12 -34.5q0 -6 4.5 -20t11.5 -31.5t17 -34t25 -26.5l26 -41q10 -16 23.5 -27.5t30.5 -11.5q4 0 6 1t4 1h10q12 6 29 10q12 -59 37 -74l37 -57q10 -16 24 -16q16 0 50 22.5t72 57t78 76.5t68 81l19 6q39 8 61 17q8 2 15.5 4 t11.5 4q25 8 56.5 20.5t60 29t52 36.5t34.5 47l69 170l-45 72l4 8l-100 88q39 10 81 24.5t80 32t65.5 37.5t35.5 43v4q0 4 2 23l-2 2q-2 0 -2 4q-8 16 -16.5 48t-16.5 65q-6 27 -16 55.5t-6 26.5l-4 4q2 2 1 3t1 5q-4 14 -8.5 29.5t-12.5 29.5l-24 41q-8 25 -22.5 48.5 t-47.5 23.5q-6 0 -12 -2t-11 -4q-4 0 -16 -4q-12 45 -35 102l-32 51l-13 37q-12 -14 -24.5 -25.5t-24.5 -21.5q-45 -45 -81 -82t-62 -61l-4 -4q0 2 -4 -2l2 2q-68 -63 -97 -91q-29 -6 -51 -11t-39 -13q-29 -6 -64.5 -20.5t-68.5 -34t-59.5 -43t-36.5 -50.5l-55 -147l18 -16 l37 -58l119 -98q-37 -8 -87.5 -23.5t-96.5 -35t-80.5 -44t-45.5 -49.5v-2l-2 2q0 -6 -2 -8v-14zM166 428v4t4 10q10 27 55 50.5t98.5 42t103.5 29.5t69 11q20 0 30 -8l39 11l-254 204l49 131q8 20 31 40t52.5 35.5t60.5 27.5t55 18q33 14 107 27q10 12 29.5 30.5t50 49 t76.5 76t112 108.5q39 -92 47 -184q20 4 34.5 9t20.5 7q6 0 10.5 3t10.5 3q20 0 30.5 -16.5t16.5 -34.5t9 -34.5t7 -16.5q4 -10 10.5 -39t14.5 -60.5t15 -58t14 -33.5v-6t-3 -8q-10 -27 -55 -51.5t-98 -43t-104.5 -29.5t-71.5 -11q-16 0 -35 6l-4 31l244 -217l-66 -160 q-10 -25 -34.5 -43.5t-55.5 -33.5t-62.5 -26.5t-54.5 -19.5q-14 -4 -35.5 -9t-54.5 -13q-27 -37 -64.5 -79t-74.5 -77t-68 -57.5t-45 -22.5q-10 0 -17 14.5t-12.5 37t-7.5 52t-2 58.5q-33 -8 -53.5 -13.5t-36.5 -11.5q-4 0 -8 -1t-10 -1q-16 0 -28.5 15.5t-21 34t-13.5 36 t-5 21.5q-4 10 -13 36.5t-18.5 56.5t-15.5 56.5t-4 36.5zM1133 1079l2 2q2 0 0 -2h-2z" />
<glyph unicode="%" horiz-adv-x="1286" d="M216 49q1 -37 10.5 -63.5t27.5 -32.5l35 -55q12 -18 26 -19q18 0 65.5 16.5t109 48t131 80t135.5 109.5q14 -27 30.5 -50.5t32.5 -39.5l12 -16q20 -33 41 -54.5t39 -21.5h13q2 0 8 2q10 4 29.5 15.5t42.5 27.5l2 -2q14 10 26 18t8 6q25 10 46.5 18.5t37.5 16.5h-2 q51 20 82 35.5t52.5 41.5t41 68t48.5 117l10 25q4 8 6 18.5t6 20.5q2 10 4 17t6 16l13 28q4 37 -0.5 82t-24.5 80l-29 45q-10 31 -30.5 53.5t-53.5 32.5q-8 -8 -16 -10l-13 -5q-12 -5 -22 -9q-18 -8 -35.5 -15.5t-25.5 -7.5l-17 -6q10 10 16.5 19.5t14.5 17.5q49 59 92 92 t82 57q33 20 62.5 42t58.5 57q6 6 9 11t7 15l4 10q23 76 13 155t-45 161l-27 39q-4 12 -8 23.5t-8 23.5q-125 -70 -219.5 -122t-159.5 -87q-6 20 -17 47l-22 33q-10 35 -27.5 60.5t-52.5 35.5q-8 0 -16.5 -4t-16.5 -7t-16 -7q-23 -10 -45.5 -20.5t-26.5 -10.5 q-12 -4 -40.5 -10t-63.5 -15l-31 -6q-12 -4 -23.5 -5t-23.5 -3q-45 -8 -79 -18.5t-42 -32.5l-127 -332q-33 -14 -45 -47l-6 -12q-4 -16 8 -39t37 -47l20 -29q12 -20 34 -43t46.5 -42t49 -33.5t42.5 -18.5l-256 -322q-12 -14 -19 -29.5t-15 -33.5q-14 -35 -20.5 -76t-5.5 -78 zM244 90q4 45 17 92t36 74l430 539q-23 -10 -43 -19.5t-55 -23.5q-4 -2 -20.5 -12.5t-35 -21.5t-34 -20.5t-17.5 -9.5l-5 -1q-5 -1 -9 -1q-18 0 -52 18.5t-66 43t-53.5 50t-14.5 42.5l6 12q10 29 37 29l135 350q2 4 37.5 12t82 17.5t90.5 18.5t62 15q4 0 20.5 7.5t36 15.5 t36 15t20.5 9q27 -6 41 -27.5t22 -49t9 -58t-1 -55.5l-8 -21q53 31 151.5 86.5t274.5 151.5q33 -72 41 -145.5t-14 -145.5l-4 -8q-2 -10 -6 -14q-29 -37 -61 -58.5t-69.5 -46t-79.5 -57.5t-89 -90q-18 -23 -54.5 -74t-83.5 -113q53 14 106.5 23.5t78.5 19.5q4 0 20.5 6.5 t34.5 14.5t34.5 15t22.5 10q25 -6 40.5 -27t22.5 -48.5t8 -58t-3 -57.5l-8 -25q-6 -16 -11.5 -35.5t-13.5 -35.5l-8 -25q-33 -84 -52.5 -125t-46 -63.5t-68.5 -38.5t-120 -51q-4 -2 -20.5 -12.5t-33.5 -21.5t-31.5 -20.5t-16.5 -9.5l-6 -1t-13 -1q-18 0 -39.5 26.5t-41 62.5 t-34 73t-18.5 57q-63 -72 -136 -126t-138.5 -91t-116.5 -55.5t-70 -18.5q-20 0 -28 34t-4 79zM602 895q-4 -10 5 -15.5t20 -5.5l100 261q4 10 -1 26.5t-15 20.5zM967 258q-4 -10 5 -15t19 -5l101 262q4 10 -0.5 25.5t-14.5 19.5z" />
<glyph unicode="&#x26;" horiz-adv-x="1036" d="M97.5 -103q-1.5 -47 5 -92t18.5 -79.5t29 -40.5l34 -58q10 -16 23 -16q20 0 67.5 37t101.5 89t101 109.5t68 98.5q57 31 137 73.5t149 79.5q41 23 72 38.5t47 25.5q8 6 17 8q23 12 38 21.5t26 19.5t19.5 24.5t16.5 38.5q8 18 10 36t-6 30l-37 55q0 20 -11 33.5t-40 13.5 t-51.5 -5t-44.5 -11q-4 -2 -8 -2q-2 0 -7 -2q-16 -6 -33.5 -9t-33.5 -5q55 14 108.5 31.5t97.5 33.5t71.5 29.5t31.5 19.5l6 15l-45 71l4 10l-188 127h18q25 0 77 12.5t109.5 35t105.5 54.5t65 73q4 6 4 8q0 4 4 20h-2q-6 16 -5 52t3 73q2 33 1 50.5t1 27.5l-2 2q-2 0 -2 4 l-4 4q-2 4 -2 19q-4 18 -9.5 40.5t-15.5 39.5l-25 38q-6 29 -20 50.5t-43 21.5q-2 0 -4 -1t-4 -1h-17l-5 -1q-5 -1 -9 -3q-10 -4 -21.5 -7t-25.5 -7q-2 72 -17.5 150.5t-48.5 160.5l-26 45q-4 10 -8.5 21.5t-8.5 21.5q-29 -29 -67.5 -65.5t-65.5 -63.5h2l-22 -18 q-55 -53 -90 -87t-56.5 -56.5t-32 -36t-14.5 -25.5q-4 -6 -5 -14.5t-3 -18.5q-6 -16 -10 -29.5t-2 -21.5q0 -10 9 -19.5t19 -19.5l5 -4l-29 -74q-66 -29 -134 -73t-91 -101l-258 -670q-23 -57 -5.5 -122.5t60.5 -123.5l-49 -116l-4 -13q-12 -33 -13.5 -80zM123 -86 q4 47 18 76l56 129q-45 53 -63.5 116.5t1.5 116.5l258 670q10 29 36 53.5t58.5 45t65.5 35.5t59 26l39 100q-6 0 -19.5 16.5t-15.5 26.5l4 11q3 10 6 22t6 23.5t3 15.5q4 10 17.5 26.5t46 49t90 88t149.5 143.5q29 -72 42 -149.5t15 -151.5v-8q0 -8 -2 -15 q-14 -35 -30.5 -56t-38.5 -46q66 20 119 37.5t77 25.5q4 0 9.5 1t9.5 1q20 0 30.5 -19t15.5 -43t8 -44t9 -23q0 -14 -1 -43.5t-2 -61.5t-1 -58q0 -27 4 -35l-1 -6t-3 -13q-14 -37 -59 -64.5t-97.5 -48t-101.5 -30.5t-72 -10q-33 0 -48 12t-22 29.5t-8.5 37t-5.5 35.5 l-94 -245l117 49l240 -160q2 -4 -42 -21.5t-111 -38t-142.5 -41t-133.5 -32.5q0 -2 -3 -4t-5 -6q8 -18 30 -33.5t47.5 -25t51 -14.5t45.5 -5q49 0 96.5 17.5t92.5 17.5q29 0 33 -20.5t-7 -43.5q-8 -20 -15 -32.5t-17.5 -21.5t-26.5 -18.5t-43 -23.5q-23 -12 -74 -40 t-112.5 -60.5t-124 -65.5t-107.5 -57q-14 -37 -58 -91.5t-94.5 -106.5t-96.5 -89t-64 -37q-16 0 -26.5 34t-15.5 79t-1 92zM817 791l4 8l4 -13l-4 7z" />
<glyph unicode="'" horiz-adv-x="634" d="M471 1307l45 -209l57 -193l25 -41q8 -2 8 -4l45 -67q10 -4 13 -5h12h6q2 0 5 1.5t5 1.5q18 2 55 25.5t77 53t73 59t43 42.5q0 2 2 5t6 11q10 18 20.5 45t20.5 49q41 106 44 189.5t-42 154.5l-18 27q-10 27 -25.5 52.5t-36.5 51.5l-288 -55zM504 1311l129 166l262 51 q66 -74 69 -162t-44 -207q-6 -14 -13.5 -32.5t-14.5 -35t-13.5 -28.5t-6.5 -14q-8 -12 -37.5 -38t-64.5 -51.5t-68.5 -47t-50.5 -23.5q-2 0 -8 -1t-8 -1q-6 0 -10 1l-4 1l-21 33l-53 192z" />
<glyph unicode="(" horiz-adv-x="622" d="M79 227q1 -47 15.5 -93t39 -89t54.5 -80l9 -12q47 -76 112.5 -126t124.5 -50h31q29 0 60.5 9t52.5 48l-9 23l-34 55l2 2l-11 27q-33 6 -51 24q-6 45 2 108.5t29.5 140.5t51.5 165t67 182q33 82 66.5 167t68.5 173q14 35 34.5 66.5t45.5 60.5l135 182l-47 72l8 8l-6 4 l-56 37l-118 117q-6 2 -11 2h-14h-8q-2 0 -23 -4l-159 -127q-33 -20 -59.5 -55t-47.5 -62l-340 -885q-16 -43 -15 -90zM114.5 170q-20.5 78 6.5 147l340 883q16 23 41.5 54.5t54.5 48.5l148 118l7 1t9 1q6 0 11 -1l5 -1l117 -114l45 -29l-115 -152q-29 -33 -53 -69.5 t-41 -77.5q-53 -131 -103 -258t-90 -240.5t-64.5 -212t-28 -173.5t21.5 -122t84 -59q-10 -18 -25.5 -26.5t-33 -11.5t-33 -2t-23.5 1q-53 0 -112.5 43t-103.5 108.5t-64.5 143.5zM899 1278l6 -4z" />
<glyph unicode=")" horiz-adv-x="624" d="M-160 -86q-6 -25 0 -38t19 -19l37 -60q10 -14 28.5 -17t36.5 -3h31q37 0 93 20.5t121.5 56t133.5 82t126 97.5t103 104t64 103l338 882q2 25 1 55.5t-11 53.5l-7 8l-59 123l-12 20l-31 64q-16 4 -21 4h-6h-16q-2 0 -12 -2l-205 -117l-4 -2l-56 -24l-34 -15l-4 -186 q4 -29 -0.5 -59.5t-18.5 -65.5l-20 -55q-4 -14 -8.5 -26.5t-10.5 -27.5q-10 -29 -20 -57.5t-21 -56.5l-43 -109q-53 -141 -107.5 -264t-112.5 -216t-122.5 -152.5t-138.5 -73.5zM-133 -86q104 18 189 112.5t160 241t143.5 330.5t142.5 381q16 41 20 78t0 69l4 152l66 29 l203 114l7 1t13 1q2 0 7 -1l5 -1l58 -118q16 -16 18 -48t0 -55l-340 -883q-18 -47 -60 -97t-97.5 -99t-120 -94t-127 -79t-116.5 -53.5t-89 -19.5q-8 0 -24.5 -1t-32 2t-24.5 11.5t-5 26.5zM516 1274l10 4z" />
<glyph unicode="*" horiz-adv-x="684" d="M442 1169q-4 -12 11 -12l43 -70q6 -10 84.5 16.5t207.5 92.5l9 -10q10 -14 18 -17q16 -8 30.5 -13t28.5 -11q27 -14 48.5 -22.5t50.5 -8.5q20 0 28 2q14 0 19.5 7t9.5 18l4 10l-20 168q35 20 53 35.5t23 21.5q16 23 30.5 42.5t28.5 35.5q25 33 42 58.5t28 48.5q0 4 1 8 l3 12q4 12 2 18l-41 66q4 16 -5.5 19.5t-17.5 3.5h-12l-213 -89l-258 146q-27 0 -32 -3t-13 -26q-4 -10 -1 -35.5t9 -61.5t15.5 -79t19.5 -88l-225 -272q-4 -4 -7 -8zM467 1165l242 289q-12 49 -22.5 96t-17.5 84t-10.5 60.5t3.5 23.5l262 -147l221 90h6q4 0 4 -2 q-10 -43 -44 -85t-85 -114q-8 -14 -82 -57l21 -178l-4 -6q0 -4 -3 -5q-47 -8 -81.5 10.5t-96.5 43.5q-12 4 -22 35q-53 -29 -107.5 -55.5t-97.5 -46t-67.5 -30t-18.5 -6.5z" />
<glyph unicode="+" horiz-adv-x="868" d="M225 637q2 2 4 5t9 7l370 119l140 190q16 16 20 18.5t14 2.5q12 0 18.5 -2t4.5 -12q10 -14 16 -31l27 -41q0 -6 -2 -10l8 -15q0 2 -2 2l4 -4q10 -16 14 -37.5t4 -50.5q2 -16 3 -35q0 -18 4 -41l-2 -8q-2 -4 -2 -12l86 -33q8 -10 11 -13t-1 -11l2 -7l4 3l-2 -3l37 -61 q4 -4 -2 -16q-8 -23 -21 -23q-27 -23 -56.5 -35t-70.5 -28q-20 -8 -42.5 -15.5t-49.5 -21.5q-8 -4 -27 -4h-14q-8 -10 -15 -20.5t-11 -20.5q-27 -43 -52.5 -84t-47 -73t-40 -50.5t-30.5 -18.5l-48 72h-6l-8 14v230q-74 23 -128 45t-64 41l-39 61q-18 16 -17 27zM242 627 q-4 -4 17.5 -12.5t58 -19.5t85 -24.5t99.5 -25.5l-2 -297q0 -6 15 15.5t40 60t56.5 89t62.5 101.5q37 -4 49 0q82 35 132 51.5t87 50.5q4 2 1 6l-3 5l-164 63q16 33 23.5 52.5t11.5 29.5q-10 68 -10 111q0 45 -27 67q0 4 -5 0l-5 -4l-143 -196z" />
<glyph unicode="," horiz-adv-x="581" d="M-135 -285q27 70 82 132.5t166 121.5q-33 35 -52.5 89.5t-1.5 125.5q57 96 145.5 146.5t192.5 56.5l95 -29q4 -10 6 -17t4 -15l33 -52q14 -37 21 -63.5t7 -52.5q0 -25 -7 -53.5t-21 -69.5q-39 -100 -111 -174t-158 -122t-178 -71.5t-168 -23.5l-43 71h-12zM-98 -258 q70 0 152.5 22.5t162.5 68.5t145.5 115.5t102.5 164.5q14 39 22.5 66.5t8.5 49.5q0 25 -6.5 48.5t-18.5 56.5l-90 26q-92 -6 -168 -50t-129 -130q-10 -39 -6 -71.5t17.5 -59t31.5 -47t35 -35.5q-123 -61 -181.5 -115.5t-78.5 -109.5z" />
<glyph unicode="-" horiz-adv-x="794" d="M248 711q-2 -2 20 -25l37 -57q6 -10 31.5 -28.5t61.5 -41t80 -46.5t85 -44t77 -32.5t56 -12.5q18 0 33 10q18 12 33.5 20.5t32.5 18.5h-2q51 33 88 59.5t69 67.5q10 0 21 23q4 8 3 11t-5 13l-37 60l4 4l-6 -4v2v8q0 6 -4 16l-258 217l-414 -225zM276 713l379 205 l246 -205l1 -7q1 -6 -3 -8q-20 -27 -42.5 -47t-49.5 -38.5t-59.5 -39t-73.5 -47.5q-12 -8 -47 1.5t-81 28.5t-96.5 45t-90.5 49.5t-64.5 41t-18.5 21.5z" />
<glyph unicode="." horiz-adv-x="526" d="M40 87q-13 52 7 106q14 37 39 67.5t55.5 56t64.5 48t66 41.5l17 4q154 -25 174 -113l29 -45q37 -59 -9 -170q-14 -37 -40.5 -69.5t-61.5 -58.5t-73 -40t-75 -14q-39 0 -68.5 19.5t-49.5 49.5l-21 35q-41 31 -54 83zM66 123q4 -35 21 -62.5t45 -45t63 -17.5 q33 0 66.5 13.5t63 35t54 51t37.5 62.5q41 104 7.5 155.5t-144.5 67.5q-59 -37 -120 -82t-85 -108q-12 -35 -8 -70z" />
<glyph unicode="/" horiz-adv-x="929" d="M5 51q-1 35 5 75t21 75q8 20 15 35.5t20 29.5l542 676l-8 10q-10 10 -18.5 19.5t-6.5 19.5l5 13q4 10 18 35.5t25 39.5l2 2q12 12 33.5 27.5t68.5 42.5t128 71t210 115q8 4 17.5 10.5t21.5 12.5q20 10 40.5 22.5t37.5 22.5q4 -10 8 -21.5t8 -21.5l29 -43q76 -166 33 -318 l-5 -10q-4 -6 -7 -13t-9 -11q-29 -35 -57.5 -56.5t-63.5 -44.5q-39 -25 -82 -57.5t-92 -91.5q-16 -18 -49 -62.5t-72 -97.5t-78.5 -107.5t-68.5 -97.5l31 -47q10 -16 -2 -43q-4 -10 -12.5 -24.5t-22.5 -30.5q-20 -25 -64.5 -58.5t-100.5 -69.5t-117.5 -72t-118 -64.5 t-100.5 -46t-65 -17.5q-16 0 -28 19l-35 57q-18 8 -26.5 34.5t-9.5 61.5zM32 90q-3 -45 4 -79t30 -34q18 0 61 17.5t96 44.5t112.5 61.5t113 69.5t95.5 67.5t62 55.5q39 49 32 71.5t-69 8.5q16 25 59.5 86t93.5 129.5t95 129t64 85.5q47 57 89 90t79.5 57.5t69.5 46t61 58.5 q2 2 6 14l4 8q39 143 -27 291q-158 -86 -254 -140t-151.5 -86t-79 -47.5t-35.5 -25.5q-4 -4 -11 -14.5t-13.5 -21.5t-10.5 -21.5t-4 -12.5q4 -10 19.5 -25.5t25.5 -15.5l-563 -702q-23 -27 -37 -74t-17 -92z" />
<glyph unicode="0" d="M94 307q-10 -25 5.5 -58.5t47.5 -68.5l17 -28q25 -41 73 -85t101 -81t104.5 -61.5t85.5 -24.5h15q4 0 20 2q14 4 56.5 30.5t82.5 53.5q25 16 45.5 28.5t28.5 16.5h2q53 25 97.5 43t78.5 35q63 27 107.5 46t77 41.5t58.5 53.5t50.5 78t51 114.5t65.5 165.5l18 47 q6 16 12.5 35t12.5 37l49 127q10 76 2 161t-49 150l-18 27q-18 53 -52 92t-88 55q-10 -6 -43.5 -21t-70.5 -30.5t-70 -29t-41 -15.5q-41 -16 -123 -33.5t-172 -33.5q-53 -10 -102 -21.5t-89 -23t-65.5 -22.5t-32.5 -24l-260 -682q-33 -8 -51 -26.5t-29 -46.5zM121 307l8 23 q10 23 26.5 38t45.5 15l268 702q2 6 37 15.5t87 21t115.5 23.5t123 24.5t109.5 23.5t77 21q8 2 41 15.5t70.5 29t71.5 31t44 21.5q51 -16 82 -58.5t46.5 -96.5t17.5 -114.5t-5 -115.5l-20 -49q-14 -35 -26.5 -72t-26.5 -72l-17 -47q-45 -115 -74.5 -188.5t-58 -119.5 t-61.5 -72.5t-81 -50.5t-119 -52.5t-175 -75.5q-8 -4 -39 -23.5t-66.5 -42t-66.5 -41t-37 -20.5l-10 -1t-19 -1q-41 0 -108.5 36t-130 85t-102 101t-27.5 87zM678 416q-8 -20 10.5 -29.5t38.5 -9.5l199 518q8 20 -2.5 51t-24.5 45z" />
<glyph unicode="1" horiz-adv-x="786" d="M182 196.5q4 -38.5 16.5 -78.5t33 -76t42.5 -54l17 -29q16 -27 33.5 -43t35.5 -16t56.5 17t84.5 45t94 62.5t91 69.5t74 69t39 56q20 49 4 76l-35 55q0 27 -18 39q12 41 26.5 89t28.5 94t26.5 82.5t18.5 52.5q23 57 50.5 85.5t56 51t50 43t35.5 57.5q2 4 2 8q0 6 3 29 q-8 35 -22.5 70.5t-37.5 72.5h-2q-47 111 -158 234q-31 -23 -46 -32t-27 -17q-109 -74 -177.5 -120t-107.5 -76t-55.5 -47t-22.5 -32q-4 -10 -7 -40.5t-3 -39.5q4 -8 14 -18l35 -47l-242 -629q-10 -25 -6 -63.5zM211 189q-6 44 4 71l258 672q-6 0 -16.5 4t-20.5 10t-18 12.5 t-10 12.5q-2 2 2 28.5t8 34.5q4 12 21.5 27.5t60.5 46.5t118.5 82t196.5 133q66 -70 108 -141.5t54 -139.5v-8q0 -6 -2 -12q-14 -35 -38 -55.5t-51.5 -42t-55 -53t-48.5 -87.5q-8 -23 -27.5 -81t-39 -124.5t-36.5 -125t-22 -80.5q111 18 74 -76q-8 -23 -36.5 -53.5 t-68.5 -63.5t-85 -65.5t-88 -58t-78 -42t-53 -16.5q-25 0 -48.5 30.5t-40 73.5t-22.5 87z" />
<glyph unicode="2" horiz-adv-x="993" d="M84 250q-16 -41 3 -81t48 -69l19 -30q16 -29 39.5 -48.5t39.5 -29.5q27 -10 77 -22.5t108 -24.5q61 -14 115.5 -27.5t72.5 -21.5l8 -2q4 0 6.5 -1.5t4.5 -1.5h6q18 0 39.5 13.5t42 32t40 39t33.5 36.5q10 10 14.5 15.5t8.5 7.5q12 12 46 50t71 82t67.5 83t40.5 51l6 12 q6 18 3 38t-13 36l-29 45q-6 33 -34.5 61.5t-63.5 51.5l295 207l72 186q10 29 6 53.5t-16 44.5l-25 41q-8 41 -41 71t-64 48q-4 4 -12 6t-18 6q-14 6 -32.5 14.5t-37.5 18.5q-10 4 -16 6t-15 6q-31 14 -64.5 28.5t-64 29t-56.5 28t-40 23.5q-6 0 -6 2h-8q-4 0 -6 1t-4 1 q-18 0 -42 -14.5t-47.5 -36t-44 -44t-34.5 -38.5q-6 -8 -13 -14q-4 -6 -16 -21.5t-29 -34.5q-23 -27 -49 -58.5t-52 -60t-46.5 -50t-28.5 -25.5q-8 -14 -10 -18.5t-6 -14.5q-12 -35 1 -65.5t40 -57.5l24 -35q10 -23 28.5 -38t41.5 -31l-287 -177zM107.5 199.5 q-7.5 25.5 3.5 50.5l92 270l602 373l-17 63q-16 -18 -42.5 -51t-57.5 -65.5t-63.5 -57t-63.5 -24.5q-23 0 -61.5 14t-74.5 39t-58.5 56.5t-8.5 68.5q2 2 6 11l5 9q10 6 41.5 41t67.5 77t68 80t42 50q2 2 20.5 23.5t42 46t48 45t40.5 20.5q6 0 8.5 -2t8.5 -2q18 -12 68 -35.5 t107.5 -48t109 -47t71.5 -33.5q18 -10 38.5 -25.5t35 -34.5t19.5 -44t-5 -51l-67 -178l-408 -285q20 14 43 14q20 0 59 -15t75 -40t58.5 -56.5t10.5 -64.5q-2 -6 -5 -12l-3 -6q-8 -12 -38 -47t-65 -76t-66.5 -77t-45.5 -48q-6 -4 -24.5 -25.5t-42.5 -46t-48.5 -44 t-42.5 -19.5q-4 0 -7.5 1t-9.5 1q-20 10 -73.5 23.5t-111.5 25.5t-111.5 24.5t-73.5 22.5q-16 8 -36 25.5t-36 39t-23.5 47zM434 342l90 -31q10 8 27.5 34t37 57.5t40 62.5t39.5 49z" />
<glyph unicode="3" horiz-adv-x="1036" d="M95.5 285.5q4.5 -17.5 31.5 -43.5l29 -41q8 -12 28 -31q2 -2 4 -3t5 -5q14 -16 56 -54t88 -79t88 -78t60 -49h13q4 0 11 -1t11 -1q31 0 79 17t104.5 47t115 68t109.5 80t88 84t51 78l258 670q18 51 -8 94l-29 43q-4 23 -17.5 42.5t-30.5 36t-35.5 28.5t-33.5 22 q-23 8 -78 31t-115 47.5t-115.5 47t-78.5 32.5h-4v2q-47 0 -91 -37t-77 -71q-16 -25 -28 -27q-10 -10 -31 -38t-43 -60q-27 -35 -51.5 -67t-40.5 -44q-4 -8 -6 -11t-6 -18q-12 -33 -1 -59.5t39 -48.5l23 -39q16 -29 52 -50.5t71 -35.5l-318 -139l-2 -7q-4 -10 19 -30l37 -56 q10 -16 56 -45.5t105 -60.5q-31 -10 -59.5 -14t-46.5 -4q-27 0 -66 14q-4 2 -6 2t-4 2q-18 6 -36.5 11t-47.5 5q-45 0 -72.5 -28.5t-39.5 -61.5q-18 -49 -13.5 -66.5zM126 298q-7 13 9 54q10 23 28.5 43.5t47.5 20.5q23 0 41 -5t36.5 -12.5t38 -12.5t44.5 -5q20 0 52 5 t66.5 15.5t67.5 26.5t57 39q-51 12 -111.5 33.5t-111.5 43t-84 38t-26 20.5l364 160l80 -49l94 245q-16 -16 -33.5 -35.5t-38 -37t-46 -29.5t-58.5 -12q-23 0 -63.5 10t-77.5 30.5t-60.5 48.5t-9.5 64q2 6 5 13l3 6q12 8 34 35.5t44.5 59.5t45 61.5t34.5 41.5q6 2 24.5 22.5 t42 44.5t49 43t46.5 19q2 0 6 -1t6 -1q23 -10 78 -32.5t115.5 -48t115 -48t76.5 -30.5q16 -10 39 -25.5t39 -36t24.5 -45t-2.5 -53.5l-258 -670q-14 -35 -49 -74.5t-83 -78.5t-103 -76t-108.5 -64.5t-99.5 -44t-75 -16.5q-8 0 -18 1t-12 1q-16 12 -58.5 48t-88.5 77t-86 78 t-54 53q-31 29 -38 42z" />
<glyph unicode="4" horiz-adv-x="1040" d="M197 575q-4 -12 5 -28.5t25 -32.5l29 -41q8 -16 30.5 -34.5t52.5 -39t62.5 -41t63.5 -41.5q12 -10 24.5 -17t24.5 -15q2 -4 1 -6.5t-1 -6.5q-4 -23 -6 -50t-6 -52q-2 -20 -3 -33.5t-1 -23.5l-2 -17q0 -12 -3.5 -31.5t-9.5 -41.5q-4 -23 -1 -33t20 -15l39 -63 q8 -10 49 -10q55 0 109.5 56t103.5 133t89 158t62 130l4 8q4 0 7.5 1t7.5 1q10 0 15 -5l11 -11q6 -8 14.5 -14.5t24.5 -6.5q45 0 70 24.5t37 57.5l14 33q23 57 15.5 100t-19.5 84l-2 2q-10 35 -16.5 74t16.5 92q16 47 52 91t71 81q23 27 41 48.5t24 39.5q8 18 2 29l-40 61 q4 20 -17 33l-194 105q-76 -23 -138.5 -50.5t-122.5 -80.5l-10 10q-18 14 -41.5 32.5t-48 35t-47 27.5t-39.5 11q-27 0 -67.5 -28.5t-80.5 -65.5t-71 -70.5t-35 -44.5zM223 575l195 508q4 10 29.5 40t60.5 62t69.5 56.5t57.5 24.5q20 0 52 -19.5t62.5 -42t53 -42t26.5 -19.5 q53 57 114 85.5t136 51.5l189 -102q16 -8 -3.5 -35t-53 -65t-71.5 -85t-57 -96q-20 -55 -14 -97t17.5 -81t17.5 -81t-14 -93l-13 -33q-10 -25 -28.5 -43t-51.5 -18q-12 0 -18 6t-11 12t-13.5 12t-22.5 6q-6 0 -16.5 -2t-16.5 -2q-12 -25 -32.5 -70.5t-48 -99t-60.5 -110 t-68 -101.5t-70.5 -73.5t-70.5 -28.5q-20 0 -27.5 4t-7.5 12q0 10 4 27.5t4 46.5q0 6 4 41t9.5 77t10.5 79t5 47q-2 6 -27.5 23.5t-63.5 41t-81 50t-79 52t-58.5 45t-18.5 29.5zM582 662l88 61l102 270l-20 31l-43 -31z" />
<glyph unicode="5" horiz-adv-x="1040" d="M67 198q-1 -3 1 -16q14 -12 27.5 -35.5t25.5 -46.5l2 -4l10 -18q10 -19 12 -23l9 -12q4 -8 13 -20.5t19 -22.5l2 -4q4 -8 8.5 -12t6.5 -7l6 -10q10 -16 32.5 -41.5t57.5 -25.5h6q2 0 5 1t5 1h4q18 4 55.5 11t84.5 15.5t98 17.5t98 17t84 14.5t56 8.5q25 4 59.5 13 t67 23.5t58.5 31t34 36.5l137 356q8 23 -10 52l-31 49q-4 31 -40 64.5t-85 62t-105.5 47t-99.5 18.5h-8q-4 0 -7 -1t-7 -1h-8q-8 0 -13 -2q-8 -2 -13 -3t-9 -1l57 143l363 -92l7 12q7 13 13 17q4 4 9 6t10 6l114 54l-12 20q2 6 2 16h2q4 45 -12.5 90.5t-42.5 86.5l-6 6l2 -2 l-2 8q-23 51 -54.5 97t-62.5 81l4 10l-45 72l6 12q-47 0 -130 -23.5t-178 -63.5t-192.5 -90t-173.5 -105q-20 -57 -24 -79t-9 -34q2 -4 1 -5t-1 -3q-2 -10 -4 -20.5t-6 -25t-10 -34t-18 -49.5q-12 -37 -27 -74q-10 -29 -22.5 -55.5t-22.5 -53.5q-4 -10 -9 -19t-10 -19l-2 -7 q-10 -25 -20 -47t-19 -43q-14 -41 19 -55l37 -59q10 -18 51 -19h12q27 -20 88 -20q8 0 17.5 1t17.5 1q16 2 31.5 3t30.5 1q16 0 29.5 -1t27.5 -1q8 0 15 -1t18 -1l-41 -105q-14 23 -39 43.5t-72 20.5q-25 0 -81 -10.5t-115.5 -26.5t-107.5 -37.5t-56 -46.5q-4 -10 -5 -13z M97 205q-1 4 1 6q6 18 49 35.5t97.5 30t104.5 20.5t73 8q33 0 54.5 -12t34.5 -29.5t20.5 -35t13.5 -27.5l90 237q4 12 -6.5 20.5t-26.5 18.5q-31 -12 -88 -5t-125 -1q-80 -6 -110 18q-6 -2 -11.5 -1t-9.5 1q-31 0 -38 10.5t-3 24.5q23 59 59.5 137t71.5 183q20 55 28.5 80.5 t11.5 43t7 40t21 73.5q70 51 160 99.5t177 85.5t161.5 59.5t115.5 22.5q-4 -6 -6 -9.5t-6 -7.5h8q10 -20 41 -57t63.5 -84t57 -100.5t22.5 -104.5l-1 -4l-3 -12q-23 0 -18.5 -6.5t10.5 -8.5l-76 -34q-10 -8 -27.5 -19.5t-19.5 -13.5l-360 92l-117 -289q-12 -8 -2 -24 q47 16 86 27.5t57 17.5q2 0 14.5 1t16.5 1q45 0 103.5 -19.5t108.5 -48.5t80 -61.5t19 -59.5l-137 -356q-6 -16 -27.5 -29.5t-50 -24t-59.5 -18.5t-53 -12q-29 -4 -96.5 -15.5t-143.5 -24.5t-144.5 -25.5t-95.5 -18.5q-2 0 -7 -1t-7 -1q-18 0 -33.5 10t-26 22.5t-17.5 24 t-9 15.5q-4 6 -15.5 25.5t-23.5 41t-22.5 41t-14.5 23.5zM659 362h3l2 -2z" />
<glyph unicode="6" horiz-adv-x="1069" d="M106 346l222 576q16 45 56 95t93 99t115.5 94t125 80t121 55.5t103.5 20.5q31 0 85 -41t109.5 -98.5t99.5 -118.5t56 -102l15 -19q18 -31 27 -55.5t3 -38.5q-16 -41 -43.5 -56.5t-66.5 -15.5q-29 0 -52.5 5t-44.5 16l-2 -2q-18 6 -38.5 12t-42.5 6q-27 0 -65 -8 t-77 -24.5t-69.5 -40t-42.5 -52.5l-7 -18q20 -16 47 -29.5t56 -28.5q59 -31 110.5 -64.5t63.5 -86.5l27 -43q14 -23 17 -52.5t-13 -66.5q-2 -8 -7.5 -18.5t-7.5 -18.5l-4 -10l-373 -365q4 2 -12 -4t-33 -12l2 -2q-10 -4 -21 -8t-17 -8h-25q-35 0 -93.5 21.5t-121 56 t-117.5 80.5t-86 96l-16 28q-37 41 -54.5 83t-1.5 83zM133 346q-14 -39 3.5 -79t54 -78.5t88 -73.5t102.5 -61.5t98 -42t76 -15.5h18q16 6 45 17.5t31 13.5l359 352q0 2 7 17.5t11 25.5q20 53 1 90t-58 64.5t-89.5 50t-90 48t-61 57.5t-3.5 79q12 33 47 60.5t78 46t85 28.5 t71 10t50 -6t39.5 -12t40 -12t50.5 -6t51.5 11t32.5 40q6 16 -10.5 51t-46 76t-68.5 84t-79 77.5t-76 57t-58 22.5q-63 0 -152.5 -42t-175.5 -104.5t-155.5 -135t-94.5 -135.5zM528 379l86 223l12 -6q13 -6 27.5 -15.5t25.5 -21.5t7 -20l-7 -9q-7 -8 -16.5 -18t-18.5 -20.5 t-15 -16.5q-6 -4 -21.5 -18.5t-32 -29.5t-30 -29.5t-17.5 -18.5zM793 676q0 -8 6 -10z" />
<glyph unicode="7" horiz-adv-x="1052" d="M311 954q8 4 15.5 6.5t17.5 6.5q8 16 10 18h-2q29 43 78 88t105.5 87t114 79t100.5 66q4 4 10 6t10 6q10 8 21.5 14t21.5 15q2 8 10 28q47 0 111.5 -23.5t130 -63.5t123 -90t92.5 -105q-6 -6 -6 -9l47 -71q-51 -104 -94 -199.5t-90 -214.5l-136 -350l10.5 -31.5 t10.5 -36.5l-2 2q4 -10 5 -20t1 -17h2l-3 -12t-7 -20q-47 -27 -94 -64t-93 -72l-2 3q-55 -45 -100 -78t-82 -33q-31 0 -49 27l-31 51q-16 8 -24 30l-70 189q-4 4 1 22.5t9 28.5q12 35 37 62.5t66 31.5l209 543l-338 -72l-41 62l-13 8h-2l-2 2l-26 23l-37 59zM369 954l47 -34 q4 -8 14 -19.5t8 -13.5l430 92l-266 -696q-39 6 -60.5 -15.5t-31.5 -50.5q-4 -8 -7 -19.5t-1 -13.5l67 -192q18 -37 57.5 -21.5t90.5 55.5t111.5 90t125.5 85q2 4 3 10l1 6q-2 6 -5 21.5t-7 32t-8 29.5t-6 19l137 357q43 113 86 207t94 198q-33 51 -85 99.5t-110.5 85.5 t-115.5 59.5t-98 22.5q-6 -10 0 -17h-9q-27 -18 -88 -56t-130.5 -85t-134 -100.5t-97.5 -104.5l-3 -4t-5 -12q23 0 12.5 -6.5t-16.5 -8.5z" />
<glyph unicode="8" horiz-adv-x="993" d="M115 365h2q-2 -16 0 -53.5t6 -77t8 -74.5t8 -49q0 -4 2 -7q0 -12 3 -32.5t9.5 -41t15.5 -38t24 -25.5l30 -51q18 -25 39 -25h8q2 0 4 1.5t7 1.5l8 2q25 8 90 21t139 28q66 12 127.5 24.5t97.5 24.5q23 10 57 26.5t67.5 39t62 51t41.5 61.5l119 279l-43 71l2 8l-54 78 q37 20 77 51t76 65t62.5 69.5t38.5 64.5h-2q2 4 3 10t7 21l-6 10q-4 12 -6 33.5t-5 48.5t-5 53.5t-4 48.5q0 39 -4 56q-2 0 -2 2q0 4 -1 9t-1 13q-4 23 -7.5 49.5t-15.5 47.5l-4 2h2l-24 38q-6 27 -18.5 46.5t-37.5 19.5q-2 0 -4 -1t-4 -1h-8q-4 -2 -8 -2q-16 -6 -50 -18.5 t-77 -26.5t-91.5 -30.5t-93.5 -31.5v-2q-61 -18 -108 -34.5t-66 -22.5q-31 -12 -65.5 -28.5t-68.5 -40t-61.5 -51t-39.5 -60.5l-72 -189l113 -190q-33 -12 -78 -40t-88 -63.5t-78 -73.5t-47 -69l-5 -15t-3 -11zM143 326.5q-2 35.5 2 46.5l1 6t4 12q12 33 51 73t85 73.5 t89 57t63 23.5q16 0 33 -12l-139 232l67 178q10 27 35 51.5t54.5 43.5t61.5 34.5t60.5 26t96 33t142.5 47t142.5 48t98.5 35.5q6 0 10 2t8 2q18 0 27.5 -20.5t13.5 -45t5 -46t5 -23.5q2 -12 4 -50t5 -80t7.5 -76.5t10.5 -41.5l-2 -9q-2 -9 -4 -11q-12 -31 -43 -70t-71 -74.5 t-83 -64.5t-78 -41l115 -166l-117 -270q-10 -29 -37.5 -53.5t-59.5 -45t-64.5 -37t-53.5 -26.5q-29 -10 -91 -22.5t-132 -24.5t-132 -25.5t-93 -23.5q-6 0 -9.5 -1t-9.5 -1q-16 0 -26.5 19.5t-15.5 44t-8 46t-3 25.5q-4 12 -8 48t-9.5 77t-7.5 76.5zM535 311l114 31l-51 84 q-20 -37 -44 -72t-19 -43zM655 862l103 -98q-2 27 0 56.5t4 55t3 47t-1 33.5z" />
<glyph unicode="9" horiz-adv-x="1069" d="M113 367q16 45 46.5 61t71.5 16q29 0 51.5 -6t45.5 -14q16 -6 35.5 -11t48.5 -5q25 0 62.5 8t74.5 23.5t67.5 37t40.5 49.5q4 8 5 15v14q-20 14 -44 26.5t-49 26.5q-47 23 -91 48.5t-66 62.5l-27 43q-29 29 -40 64.5t7 86.5q4 10 11.5 24.5t11.5 23.5l2 6l368 362 q12 8 16.5 9t16.5 5q4 2 8.5 3.5t8.5 3.5q10 4 19 9t20 9h26q39 0 107.5 -27.5t137.5 -70.5t125 -97.5t73 -109.5l22 -35q16 -29 22.5 -57.5t-4.5 -57.5l-221 -575q-16 -45 -56 -94t-92 -97.5t-114.5 -93.5t-124 -78.5t-119 -54t-100.5 -20.5q-27 0 -68.5 27.5t-87 69.5 t-88.5 92t-71 95q-45 57 -72 107.5t-16 75.5zM139 367q-8 -18 8.5 -52t46 -75t68.5 -84t79 -78t77 -57.5t59 -22.5q61 0 150.5 42t176.5 104.5t156.5 135t94.5 136.5l221 575q14 37 -3.5 78t-55 80t-89 73.5t-103.5 61.5t-99 42t-76 15h-16q-14 -8 -43 -18t-31 -12 l-359 -353q-2 -2 -10 -18t-12 -27q-20 -53 -1 -89t59 -63.5t90.5 -50t91 -48t61 -58.5t4.5 -78q-12 -35 -48 -61.5t-78 -45t-85 -28.5t-72 -10t-50 6t-39.5 12.5t-40 12.5t-50.5 6t-50 -11.5t-32 -39.5zM723 799l6 8q6 8 15.5 18.5t18.5 20.5t15 16q4 6 18.5 20.5t32 30 t31.5 28.5t21 17l-86 -223l-13 7q-12 6 -26.5 15t-25.5 20t-7 22z" />
<glyph unicode=":" horiz-adv-x="526" d="M40 87q-13 52 7 106q14 37 39 67.5t55.5 56t64.5 48t66 41.5l17 4q154 -25 174 -113l29 -45q37 -59 -9 -170q-14 -37 -40.5 -69.5t-61.5 -58.5t-73 -40t-75 -14q-39 0 -68.5 19.5t-49.5 49.5l-21 35q-41 31 -54 83zM66 123q4 -35 21 -62.5t45 -45t63 -17.5 q33 0 66.5 13.5t63 35t54 51t37.5 62.5q41 104 7.5 155.5t-144.5 67.5q-59 -37 -120 -82t-85 -108q-12 -35 -8 -70zM333.5 851q-14.5 52 6.5 105q14 37 40 68t56.5 56.5t64.5 48t64 40.5l17 5q154 -25 174 -113l28 -45q37 -57 -6 -170q-14 -37 -41.5 -70t-62.5 -58.5 t-73 -39.5t-75 -14q-39 0 -68.5 19t-49.5 50l-21 35q-39 31 -53.5 83zM358.5 886.5q3.5 -34.5 21 -62t45.5 -45t62 -17.5q33 0 67 13t64.5 34.5t54 51.5t36.5 63q41 104 7 155.5t-145 67.5q-59 -37 -119.5 -82t-84.5 -109q-12 -35 -8.5 -69.5z" />
<glyph unicode=";" horiz-adv-x="581" d="M-135 -285q27 70 82 132.5t166 121.5q-33 35 -52.5 89.5t-1.5 125.5q57 96 145.5 146.5t192.5 56.5l95 -29q4 -10 6 -17t4 -15l33 -52q14 -37 21 -63.5t7 -52.5q0 -25 -7 -53.5t-21 -69.5q-39 -100 -111 -174t-158 -122t-178 -71.5t-168 -23.5l-43 71h-12zM-98 -258 q70 0 152.5 22.5t162.5 68.5t145.5 115.5t102.5 164.5q14 39 22.5 66.5t8.5 49.5q0 25 -6.5 48.5t-18.5 56.5l-90 26q-92 -6 -168 -50t-129 -130q-10 -39 -6 -71.5t17.5 -59t31.5 -47t35 -35.5q-123 -61 -181.5 -115.5t-78.5 -109.5zM333.5 851q-14.5 52 6.5 105 q14 37 40 68t56.5 56.5t64.5 48t64 40.5l17 5q154 -25 174 -113l28 -45q37 -57 -6 -170q-14 -37 -41.5 -70t-62.5 -58.5t-73 -39.5t-75 -14q-39 0 -68.5 19t-49.5 50l-21 35q-39 31 -53.5 83zM358.5 886.5q3.5 -34.5 21 -62t45.5 -45t62 -17.5q33 0 67 13t64.5 34.5t54 51.5 t36.5 63q41 104 7 155.5t-145 67.5q-59 -37 -119.5 -82t-84.5 -109q-12 -35 -8.5 -69.5z" />
<glyph unicode="&#x3c;" horiz-adv-x="735" d="M236 684l2 4q0 2 6 8l614 555h14q4 0 11.5 -13t15.5 -36l27 -43q10 -16 22.5 -56t21.5 -86t12 -89t-5 -66q-4 -8 -8 -14t-15 -14h2q-20 -16 -60 -46t-86 -63t-91 -65.5t-78 -55.5l137 -174l-8 -6l47 -72l-330 -301h-12q-6 0 -16 17l-35 55q-8 0 -26.5 37t-41 94 t-47 124.5t-43 130t-28 111t-2.5 64.5zM263 633q7 -45 24.5 -106.5t40 -129t45 -125t40 -92.5t23.5 -30l303 276l-190 246q16 10 63 44t102.5 73.5t107.5 78.5t77 58q18 12 17 63t-10 105.5t-23.5 95.5t-22.5 35l-594 -537q-10 -10 -3 -55z" />
<glyph unicode="=" horiz-adv-x="1032" d="M223 639q-2 -2 10 -10l43 -70q6 -10 65.5 -33.5t136.5 -48t153 -44t114 -19.5h15q6 0 14 4q41 20 57.5 25.5t32.5 11.5q41 16 71 28.5t56 34.5q12 0 21 23q6 12 2 16l-37 61l2 3l-4 -3l-2 7q4 8 1 11t-11 13l-330 127l-408 -131zM242 627l381 123l317 -123l3 -5 q3 -4 -1 -6q-37 -35 -87 -51t-132 -51q-12 -6 -53 0t-96.5 17.5t-117 26.5t-110.5 29.5t-79.5 26t-24.5 13.5zM508 930q0 -4 10 -12l45 -70q6 -10 62.5 -33.5t130 -50.5t147.5 -46.5t115 -19.5q18 0 29 4q59 25 98 39q41 16 72.5 31.5t64.5 44.5l4 8q4 12 2 17l-43 67 q4 8 2 11.5t-12 13.5l-326 127l-393 -125zM518 911l381 123l315 -123l4 -3q3 -3 -1 -7q-18 -16 -40 -27.5t-47.5 -21.5t-58.5 -22.5t-74 -30.5q-12 -6 -54 0t-97 17t-115.5 26.5t-110 31t-79 25.5t-23.5 12z" />
<glyph unicode="&#x3e;" horiz-adv-x="735" d="M129 430l102 -307h9l45 -72h12q8 0 54 37t111.5 93.5t140.5 123t140.5 129t111.5 109.5t52 63q0 8 2 10l-186 551l-35 54l-8 30h-14q-6 0 -29 -18.5t-54.5 -47t-67.5 -63.5t-67.5 -69.5t-54 -64.5t-31.5 -48l-4 -12t0 -10h-2q8 -16 25.5 -48t39 -67l43 -70t38.5 -59z M164 426l379 246q-8 10 -29.5 44t-46.5 73.5t-47.5 78.5t-30.5 58q-6 8 11.5 34.5t46 61.5t64.5 73t67.5 67.5t54 48t24.5 14.5l181 -537q2 -10 -39 -55t-105.5 -106.5t-139.5 -129t-140.5 -125t-111.5 -92.5t-48 -30z" />
<glyph unicode="?" horiz-adv-x="970" d="M55.5 89.5q14.5 -50.5 50.5 -83.5l23 -37q20 -31 50 -50t69 -19q37 0 74.5 14t72.5 40t61.5 58.5t41.5 69.5q45 111 8 170l-29 45q-12 55 -74 86l347 227q8 0 45 21q31 16 63.5 33.5t63 35t56.5 33t42 27.5l250 178l71 186q20 55 -10 103l-24 41q-10 39 -39 67.5 t-58 44.5q-10 4 -21 8.5t-28 12.5q-31 10 -65 29v2q-35 14 -73 31.5t-73 32.5t-62.5 28.5t-41.5 23.5q-6 0 -6 2h-9q-4 0 -6 1t-4 1q-18 0 -41.5 -14t-47 -35.5t-44 -44t-35.5 -39.5q-8 -8 -12 -14q-4 -4 -10 -13.5t-17 -19.5q-14 -16 -41 -47q-23 -25 -46 -52.5t-44.5 -52 t-38 -42t-24.5 -23.5l-17 -33q-12 -35 3.5 -67.5t46.5 -59.5l16 -28q10 -23 28.5 -39.5t41.5 -30.5l-301 -186l114 -258l6 4l45 -74q-37 16 -100 27l-16 -4q-33 -18 -67 -41t-64.5 -48.5t-55 -56.5t-39.5 -67q-20 -53 -5.5 -103.5zM80 123q-4 35 8 70q25 63 85.5 108 t119.5 82q113 -16 145.5 -67.5t-8.5 -155.5q-12 -33 -36.5 -62.5t-54.5 -51t-63.5 -35t-66.5 -13.5q-35 0 -62.5 17.5t-45 45t-21.5 62.5zM274 709l406 249q-20 -14 -47 -14q-23 0 -62 14.5t-74.5 39t-57 57t-9.5 67.5q4 4 7 12l3 9q10 8 42 43t67 76t66.5 78.5t43.5 50.5 q2 2 20.5 23.5t42 46t48.5 45t41 20.5q6 0 8 -2t8 -2q20 -12 70.5 -36t107 -48.5t107.5 -46t72 -31.5q18 -10 38.5 -26.5t35 -36t19.5 -44t-5 -51.5l-68 -178l-239 -172q-27 -18 -83.5 -49t-112.5 -61.5t-97 -52t-35 -21.5l-268 -176zM696 969l181 110l-17 64 q-12 -16 -30.5 -39t-40 -47.5t-46 -48t-47.5 -39.5z" />
<glyph unicode="@" horiz-adv-x="1114" d="M76 266q2 -55 57 -110l19 -29q20 -35 61 -66.5t88 -55t98.5 -38t94.5 -14.5q10 0 24 2t27 6v-2q12 2 17 4t26 14q14 10 47 26.5t74 39.5q43 23 92 49.5t93 51t80 46t52 35.5l10 11h2q29 23 42.5 38t21.5 33q4 10 6 20.5t-2 24.5q2 12 0 21.5t-4 19.5l-37 58 q-2 20 -12.5 32.5t-36.5 12.5h-10q-4 0 -15 -4q-27 -10 -38 -15.5t-25 -11.5l-21 -12v2l-37 -19q-20 -10 -38.5 -18t-34.5 -12h-13q-35 0 -76.5 16t-74.5 41l145 272l2 -4q-4 -29 9.5 -53.5t35.5 -44.5l25 -37q23 -39 75 -61.5t107 -22.5q33 0 58 6q72 23 135 75t86 114 q12 27 12 55h-2q4 25 7 45t11 41q10 23 23.5 44t28.5 42l-2 2q14 18 27.5 38.5t23.5 43.5q8 20 14 57l-8 10q0 2 2 7l-37 57v6l-5 10t1 6q-10 14 -40 38t-67 46l-28 19q8 6 12 16q2 6 -2 19l-39 63q2 10 -2 18.5t-20 12.5l-158 29q-14 0 -17.5 -1t-11.5 -8l-8 -2 q-10 -6 -27.5 -15t-40.5 -22q-25 -14 -53 -30.5t-63 -34.5q-74 -41 -146.5 -81t-120.5 -67q-25 -12 -36 -20q-20 -12 -50 -33.5t-60 -46t-53.5 -52.5t-33.5 -54q-10 -25 -8 -39zM104 270l261 668q-2 25 18 53.5t49 54t59.5 48t53.5 36.5q18 10 57 32t87 48.5t101.5 55 t101.5 55.5t86 47.5t54 30.5q4 0 8 3t7 3l155 -29q18 0 12 -9t-19 -19.5t-26.5 -19.5t-7.5 -9q8 -12 41 -35.5t70 -48.5t68.5 -46.5t37.5 -31.5v-4t4 -10q-4 -45 -23.5 -76t-42 -62.5t-42 -71.5t-21.5 -102q0 -35 -18 -67.5t-48 -61t-67 -51t-76 -35.5q-39 -10 -82.5 -4 t-78.5 23.5t-56.5 44.5t-15.5 61q2 47 35 92.5t82 88.5q-43 20 -76 38.5t-45 32.5l-248 -463q0 -29 25.5 -58.5t62.5 -52t78 -33.5t70 -5q57 16 100 43t96 43q31 6 40 -8.5t5 -36.5q2 -16 0 -28.5t-10 -23t-22.5 -23.5t-36.5 -32q-25 -20 -86.5 -55t-131 -72.5t-132 -69.5 t-85.5 -46l-11 -6q-11 -7 -19 -9q-47 -12 -115 2.5t-130 46t-107.5 74.5t-45.5 90z" />
<glyph unicode="A" horiz-adv-x="1159" d="M111 284q12 106 61 234l117 305q4 10 8 18.5t8 18.5l17 43q37 76 89 128t111.5 91t126 67t131.5 52q4 2 17 6q27 10 58.5 23.5t66.5 29.5l-4 -2q4 2 6 2t4 3l20 10t15 8q29 16 53 26.5t57 10.5q45 0 65.5 -24.5t43.5 -59.5q18 -45 63 -80l9 -5q8 -5 22 -11q2 -2 4 -2 t6 -2q33 -16 62.5 -38t33.5 -59l31 -49q8 -14 10 -31.5t-8 -40.5q-14 -37 -37.5 -52t-50.5 -25h2q-12 -6 -21.5 -10.5t-17.5 -8.5q-31 -59 -49 -102t-39 -96l-96 -252q6 -2 15 -17.5t14 -34.5l28 -45q10 -16 15.5 -40.5t-0.5 -41.5q-12 -33 -20.5 -41t-33.5 -18 q-6 -4 -11 -5t-11 -5q-23 -20 -69 -52t-95 -65q-41 -27 -77 -51.5t-58 -44.5h-35q-27 0 -45 14t-33 37l-22 35q-27 18 -43.5 51t-26.5 66q-16 -10 -41 -30t-49 -40q-59 -47 -116.5 -90t-98.5 -43q-33 0 -49.5 16.5t-28.5 36.5q-2 2 -2 4t-2 4l-16 25q-12 10 -20.5 23.5 t-16.5 25.5q-49 78 -49 164q0 18 2 36zM140 294q-2 -19 -3 -37q0 -81 45 -155q12 -20 27.5 -37.5t44.5 -17.5q33 0 81 34t97 76t92 75.5t66 33.5q12 0 20 -33.5t22.5 -75.5t36 -76t60.5 -34h25q18 14 59 43t87 59.5t87 59.5t60 45q18 10 27 14t15.5 9.5t10.5 11.5t10 20 q2 8 2 21q0 12 -3 24.5t-7 20.5t-8 8q-16 0 -28.5 -8t-29.5 -8q-14 0 -16 17t1 39.5t9 42t8 26.5l6 16l35 90l13 33l32 82q12 33 22.5 60.5t22 55t25.5 55t33 62.5q16 12 33.5 20.5t34 15.5t30.5 18.5t23 33.5q12 35 -2.5 56.5t-39 37t-52 27.5t-42.5 27q-25 18 -39 43.5 t-28.5 49t-32.5 40t-49 16.5q-39 0 -67.5 -17.5t-71.5 -37.5q-76 -35 -159 -64.5t-161 -68.5t-145.5 -96.5t-110.5 -145.5l-16 -41q-14 -37 -26.5 -67.5t-26.5 -67.5l-17 -41l-63 -166q-47 -123 -59 -224zM549 377q33 119 72 213l81 217l17 39l37 96l6 16l31 58h4h8 q6 -4 11 -21.5t11 -27.5q4 -8 9 -15l6 -6l-197 -512q-2 -6 -12 -17t-22.5 -21.5t-25 -20.5t-18.5 -15h-6h-6q-12 7 -6 17zM1192 1237l2 -2q4 -4 5 -6t5 -6l-2 4q-2 4 -5 6t-5 4z" />
<glyph unicode="B" horiz-adv-x="1095" d="M113 274q6 -23 29.5 -57.5t58.5 -73.5q25 -37 60.5 -78.5t73.5 -78.5t69.5 -60.5t48.5 -23.5h8l536 225l-2 2q12 10 35 32.5t39 39.5q12 16 19.5 25.5t13.5 18.5t14 21.5t23 32.5l186 485q6 18 5 45t-9 58t-20.5 61.5t-28.5 55.5l-12 18q-20 49 -48 87t-55 38 q-35 0 -77 -18.5t-89 -45.5q27 63 55.5 101.5t56 60t52.5 31.5t45 16q35 10 57.5 21.5t36.5 44.5q14 40 14 62.5t-16 58.5l-30 51q-2 14 -13 33q-10 -2 -23.5 -3t-23.5 -4q-25 -2 -45 -6q-92 -10 -178 -26.5t-178 -63.5l-119 -61h-2q-2 0 -2 -2l-4 2q-8 6 -17 22l2 2l-10 13 q-10 23 -20.5 44t-12.5 31l-92 -67q-2 -10 -2 -37v-51q1 -35 1 -74v-40q-1 -62 -11 -91l-291 -756q-20 -14 -47 -33.5t-35 -27.5q-12 -16 -14 -19.5t-6 -11.5q-4 -10 -4 -14q0 -2 -2 -15zM143 287v6q0 6 2 10t7 10l4 6q6 6 17 15.5t24.5 18.5t27 17.5t19.5 12.5l295 768 q8 25 11 67t3 85q0 45 -2 82.5t0 52.5l47 32q2 -6 9 -20t16.5 -29.5t18.5 -29t13 -17.5l5 -1q6 -1 10 -1t11 1l7 1l119 64q53 27 105.5 42t104.5 24t104.5 15.5t107.5 14.5q10 -29 8 -49.5t-12 -48.5q-8 -20 -26.5 -29.5t-43.5 -17t-54.5 -18.5t-61 -37.5t-64.5 -75 t-64 -125.5l-10 -27q-8 -20 -15 -43t-16 -43l-10 -29q31 12 70 34t76.5 43.5t74.5 36.5t66 15q20 0 43.5 -30.5t41.5 -72.5t26 -86q3 -20 4 -36q0 -19 -5 -33l-184 -479q-2 -2 -13 -18.5t-27.5 -41t-26.5 -36.5l-35 -40t-23 -24l-532 -223q-2 -1 -5 -1q-15 1 -51 29 q-42 34 -87.5 82t-83 98t-46.5 79zM627 383l39 -64l198 519q-16 0 -42.5 -9.5t-35.5 -29.5z" />
<glyph unicode="C" horiz-adv-x="1036" d="M98 284q2 -36 15.5 -72t35 -71t48.5 -65l6 -8q20 -35 48 -66t56.5 -53.5t58 -35.5t56.5 -13q4 0 13 1t16 1h12q18 8 57 28.5t89 47t104.5 56t103.5 56.5q45 25 81 43.5t52 28.5q8 6 17 8q23 12 38 21.5t26 19.5t19.5 24.5t16.5 38.5q8 18 10 36t-6 30l-37 55 q0 20 -11 33.5t-40 13.5t-51.5 -5t-44.5 -11q-4 -2 -8 -2q-2 0 -7 -2q-20 -6 -40.5 -10t-36.5 -4q-23 0 -54.5 7t-58.5 21l123 320q2 -6 10 -8l29 -46q19 -36 63 -36h2q25 0 82.5 16t120 43t114.5 62.5t68 76.5q4 10 5 13.5t4 11.5q-4 10 -9.5 47t-9.5 80t-8 82t-4 53l-6 6 q-2 4 -2 10t-2 15q-4 18 -9.5 39.5t-15.5 38.5l-4 4l-19 26q-8 29 -21 54.5t-44 25.5q-2 0 -4 -1t-4 -1h-15q-31 -10 -101.5 -32.5t-149 -47t-149.5 -47t-101 -31.5q-31 -12 -71 -29.5t-77 -42t-67.5 -54t-42.5 -62.5l-258 -670q-11 -29 -11 -61v-7zM135 352l258 670 q10 29 36 53.5t58.5 45t65.5 35.5t59 26q20 6 60.5 18t90.5 27.5t104.5 33t103.5 33t89 28.5t60 19q4 0 9.5 1t9.5 1q18 0 28.5 -19t16.5 -43t9 -44t9 -23q0 -14 4 -52t8.5 -80t9.5 -77.5t7 -46.5l-1 -6t-3 -10q-14 -37 -63.5 -68.5t-108 -56t-111.5 -39t-76 -14.5 q-33 0 -49 24.5t-22 57.5t-7.5 64.5t-5.5 47.5l-172 -446q-12 -33 3.5 -57.5t45 -41t64.5 -24.5t59 -8q49 0 96.5 17.5t92.5 17.5q29 0 33 -20.5t-7 -43.5q-8 -20 -15 -32.5t-17.5 -21.5t-26.5 -18.5t-43 -23.5q-29 -14 -96.5 -51t-144 -79t-145.5 -78t-95 -48 q-2 0 -13.5 -1t-19.5 -1q-43 0 -94 36t-92 89t-61 115q-10 31 -11 60q0 28 10 54zM1231 1266l2 -2q0 2 -2 2z" />
<glyph unicode="D" horiz-adv-x="1032" d="M72 256q-2 -4 9 -20.5t32 -38.5l18 -31q12 -23 54 -66t90.5 -88t91.5 -77.5t57 -32.5t64.5 19.5t118 49t142 67.5t139 76t110.5 71.5t55 56.5l221 575q9 21 9 47q0 22 -7 50q-14 58 -41 100l-12 20q-10 29 -24.5 54.5t-31.5 41.5h4q-10 8 -35.5 24.5t-58.5 37t-69.5 43 t-69.5 43.5l2 2q35 18 71 49t60 96l-43 72l4 12q-80 0 -159.5 -9t-149.5 -38.5t-126 -85t-91 -147.5q-25 -65 -25 -118q1 -26 7 -50q18 -70 69 -125h-147l-220 -571q-14 -10 -32.5 -22.5t-36 -28t-30.5 -31t-19 -27.5zM98 256q4 10 18.5 24.5t32 28t36 25.5t28.5 18l213 557 h209q-35 29 -63 62t-44 71q-17 40 -17 89q0 46 21 98q33 82 82.5 132t110.5 77.5t130 36t140 8.5q-14 -37 -39.5 -59.5t-52 -38t-48 -29t-30.5 -31.5q0 -2 -1 -7t-1 -7q18 -10 63.5 -37t94.5 -57.5t92 -58.5t60 -40q16 -10 33.5 -36.5t29.5 -60.5t15 -67.5t-5 -58.5 l-221 -576q-8 -20 -51 -51.5t-105.5 -67.5t-134 -71t-136 -63.5t-113 -47t-62.5 -18.5q-10 0 -35.5 17.5t-58.5 44t-67 58.5t-62.5 60.5t-46 49t-15.5 26.5zM594 383l41 -64l184 480l-41 63z" />
<glyph unicode="E" horiz-adv-x="1069" d="M117 326q0 -47 13 -94.5t38 -91.5t57 -79l6 -8q41 -66 100.5 -109.5t125.5 -43.5q23 0 78 23.5t125.5 60t145.5 82t139.5 88.5t109.5 79.5t51 55.5q14 35 4 51l-39 59q2 45 -67 45q-29 0 -57.5 -6t-57.5 -14q-20 -6 -43 -11t-51 -5q-27 0 -58.5 8t-54.5 24l2 9 q23 55 97.5 90.5t164.5 68.5q53 18 106.5 40t98.5 47.5t80 59t53 81.5q4 8 6 19t6 19l4 11l-92 364l-32 51l-7 29q-6 8 -8 9t-12 5l-12 7q-8 4 -14.5 9t-12.5 9h-29q-31 0 -92 -16.5t-137 -45t-158 -66.5t-151.5 -80t-121.5 -86t-67 -83l-221 -575q-16 -43 -16 -90zM148 280 q-5 25 -4 49q0 45 16 87l221 575q14 37 62.5 78t116 80t144 73.5t149.5 61.5t131 42t87 15h19q10 -8 30.5 -18t22.5 -12l88 -353q-2 -2 -7 -18t-10 -27q-20 -53 -67 -89t-107.5 -63.5t-128 -50t-127 -48t-105.5 -58.5t-63 -78q-12 -35 1.5 -61.5t41 -45t62.5 -28.5t63 -10 q29 0 54.5 6t50 12.5t50.5 12.5t54 6q29 0 42.5 -11.5t2.5 -39.5q-8 -18 -50 -52t-103.5 -75t-133 -84t-139 -78t-120 -57.5t-74.5 -22.5q-63 0 -120.5 42t-96.5 105t-53 135zM666 735l17 7q17 6 38.5 15t41 20t23.5 22q0 2 -2 26.5t-6 36.5q-4 4 -8 18.5t-8 30t-7 29.5 t-3 18z" />
<glyph unicode="F" horiz-adv-x="880" d="M72 215q2 -27 12 -41q8 -23 35 -47l14 -25l6 -6q14 -25 45 -57.5t63 -63t57.5 -52t27.5 -21.5h71l414 299l37 100l-43 72l4 12q-47 0 -73.5 -7t-49.5 -16q-2 -2 -4 -2l125 328q2 4 7 7t9 5q8 0 13.5 1t13.5 4q20 4 48 9t56.5 9t54 7t38.5 3q4 8 11 26.5t13 31.5 q4 12 9.5 23t9.5 17q22 58 22 92q0 21 -8 33v2l-20 29q104 14 147 129q16 44 16 80v8q-2 39 -20 74l-10 10l4 -6l-4 12q47 27 74.5 68t50.5 94l-45 72l6 12q-98 0 -174 -2t-146.5 -14.5t-143.5 -39t-167 -75.5q-31 70 -137 70q-23 -59 -30 -106.5t-7 -88.5q0 -4 -1 -6t-1 -6 q-2 -35 -5 -69t-18 -73q-12 -31 -33.5 -58.5t-44.5 -51.5q-27 -29 -48 -59.5t-36 -65.5q-14 -35 -14 -57v-6q2 -24 29 -46l6 -8l-164 -428q-8 -8 -16 -14t-19 -17q-23 -23 -43 -41t-22 -22v-2q-4 -12 -2 -39zM98.5 223.5q-2.5 24.5 1.5 32.5q2 4 16.5 19.5t32 32t33 29.5 t19.5 15l172 447q-35 20 -39 39.5t10 56.5q12 33 33.5 60.5t45 55t46.5 56.5t37 63q16 43 20 83t5 79t5.5 78t20.5 82q86 0 102 -78q94 51 165 80t138.5 42t140.5 15t169 2q-18 -47 -48 -81.5t-85 -57.5q33 -37 43 -80q3 -13 3 -27q0 -33 -16 -73q-43 -111 -155 -111 q-35 0 -60.5 3.5t-42.5 31.5l-24 -63q55 -4 91 -9.5t52.5 -19.5t15 -41t-19.5 -76q-2 -6 -6 -16l-9 -22.5t-10.5 -22.5t-7.5 -17q-10 0 -38.5 -4t-60.5 -10t-62.5 -11t-43.5 -7q-10 -2 -25 -13.5t-18 -19.5l-159 -414q-2 -4 4 -17t14 -16h19q37 0 73.5 19.5t81.5 19.5 l-26 -71l-398 -287h-63q-2 0 -26.5 21.5t-55.5 52t-59.5 63.5t-40.5 56q-8 6 -10.5 30.5zM606 352l6 -12q-4 2 -5 6t-1 6z" />
<glyph unicode="G" horiz-adv-x="1069" d="M14 -40q9 -44 43 -73l27 -43q18 -29 50 -46t72 -26.5t86 -12.5t89 -3q90 0 191.5 22.5t194.5 71t170 123t118 181.5q12 35 18 63.5t5 55t-9 56t-20 66.5l190 498q10 8 24.5 22.5t30 28.5t28.5 27.5t19 19.5q4 8 5.5 10.5t5.5 10.5l4 10q-2 29 -13 41l-30 49q0 12 -5 20.5 t-8 14.5l-10 16q-16 12 -55 44t-83 68t-82 68.5t-52 45.5h-12q-4 0 -6.5 1t-6.5 1h-12q-16 0 -65.5 -18.5t-113 -47.5t-133 -63.5t-129 -65.5t-99.5 -56.5t-44 -33.5l-231 -606q-15 -37 -15 -74q0 -18 3 -36q12 -56 49 -87l20 -35q-80 -10 -119.5 -57t-72.5 -135 q-20 -53 -20 -91q0 -14 3 -25zM47 -42q-8 17 -8 40q0 33 18 78q16 43 34 75.5t41.5 53t56 31t79.5 10.5q57 0 88 -21.5t40 -57.5q5 -18 5 -38.5t-5 -42.5q-9 -45 -27 -94q27 0 64.5 4t73.5 16.5t66.5 37t47.5 65.5q4 8 6 17t6 15q-4 14 -8 51.5t-8.5 78l-8.5 76.5t-6 50h-16 h-15q-61 -23 -99 -41t-65.5 -31.5t-53 -20.5t-64.5 -7q-33 0 -57.5 18.5t-37 46t-13.5 62.5v5q0 33 12 65l231 606q4 8 41 30.5t92 51.5t120.5 60.5t125 57t105.5 42t63 16.5q8 0 18 -1t12 -1q14 -12 51.5 -44t80.5 -68t80.5 -67.5t54.5 -43.5q4 -8 12 -16.5t6 -16.5l-1 -6 t-3 -10.5t-5 -10.5l-3 -6q-6 -6 -20.5 -19.5t-30 -28.5t-29.5 -28.5t-20 -17.5l-195 -512q12 -37 20.5 -66.5t9.5 -55.5t-5.5 -53.5t-18.5 -60.5q-39 -100 -111.5 -171.5t-161.5 -116.5t-186.5 -66.5t-183.5 -21.5q-61 0 -123.5 7t-107.5 29.5t-64 66.5zM408 213 q18 4 34.5 13.5t38.5 19.5q18 8 44 21.5t57 25.5q0 -4 4 -12q2 -47 7 -87t9 -57l-6 -14q-2 -4 -1 -5t-1 -3q-14 -39 -50 -58.5t-77 -29.5q4 31 1 58.5t-15 47.5l-31 51q-4 8 -7 15.5t-7 13.5zM565 555q16 0 43 9t35 30l160 416l-51 32z" />
<glyph unicode="H" horiz-adv-x="1052" d="M154 360q-7 -18 -7 -37q0 -24 11 -50q20 -46 55 -83l16 -26q14 -25 35 -46.5t41.5 -38t38.5 -25.5t31 -9q20 0 50 10.5t60 26.5q-31 -59 -66.5 -86t-82.5 -55q-4 -4 -8 -5.5t-9 -5.5q-31 -18 -65.5 -41.5t-79.5 -58.5l-10 -23q0 -37 26 -49l35 -57q10 -16 30.5 -19.5 t43.5 -3.5h10q84 0 183.5 41t194.5 106.5t177 146.5t129 161q6 14 23.5 50t40 84t48 103.5t50.5 107.5t44.5 97.5t29.5 71.5q4 10 11 43t13 68q2 16 7.5 36.5t8.5 37t5 25.5t0 7l-41 64l41 -64v39t-3 70t-11.5 78t-22.5 63l-20 31l-5 4q-10 33 -23 54.5t-36 21.5 q-20 0 -41 -13l-137 -73q18 41 38.5 75.5t51.5 62.5t74 46t104 27q2 4 7 15t7 15v4q4 10 5.5 13.5t3.5 13.5q0 16 -11 31l-30 47l2 4q-2 14 -10.5 26.5t-14.5 22.5l-6 6h-96q-4 0 -8.5 1t-8.5 1h-24q-59 0 -107.5 -5t-92.5 -20.5t-91 -42t-104 -69.5q-2 2 0 4 q-14 29 -37 48.5t-84 19.5q-35 -95 -45 -187q-5 -45 -6 -83q0 -39 6 -70l-271 -701q-39 -18 -51 -38.5t-22 -45.5zM180 360q8 23 20.5 40.5t49.5 29.5l278 727q-6 37 -7 83q0 28 3 58q6 82 35 160q43 0 57.5 -26.5t32.5 -55.5q61 45 107.5 74t91.5 45t92 22.5t109 6.5h24 q20 0 37.5 -1t38.5 -1h29q16 -16 18 -37l-1 -9q-1 -8 -5 -14q0 -2 -3 -7t-5 -9q-72 -10 -119 -36t-80 -63.5t-55.5 -86t-42.5 -103.5q-8 -20 -19.5 -58t-17.5 -52l272 145q35 18 53.5 -14.5t25.5 -81.5t7 -97v-57q-6 -18 -12 -51t-12 -66.5t-12.5 -62.5t-8.5 -37 q-16 -39 -50 -116t-72 -156.5t-69.5 -147t-41.5 -88.5q-47 -78 -125 -156.5t-170 -141t-188.5 -102.5t-176.5 -40q-29 0 -53.5 4t-24.5 35q68 55 119 83.5t93 56.5t77 69t66 122q2 6 6 20.5t8 30t8 30t6 20.5q-23 -10 -55.5 -27.5t-67 -35t-65.5 -30t-49 -12.5t-50 20.5 t-60 53.5t-44 71q-9 21 -8 40q0 16 6 32zM612 430l41 -4l183 477l-58 -39z" />
<glyph unicode="I" horiz-adv-x="786" d="M170 175q4 -30 15.5 -61.5t29.5 -62.5t39 -51l16 -23q20 -33 44 -55t46 -22q29 0 94.5 31.5t134 76.5t125 92t68.5 78q10 24 10 41q0 13 -6 23l-36 57q0 27 -23 39q10 35 21.5 74t22.5 74.5t20.5 64.5t15.5 43q18 47 44 70.5t54.5 44t49 39t32.5 51.5q4 8 4 10q0 4 -2 20 l-41 66q2 4 1 7t-1 7l-82 131q57 37 112.5 82t80.5 111q11 29 11 58q0 8 -1 17q-4 38 -22 68l-27 41q-14 47 -52 80t-89 33q-37 0 -77 -15.5t-76 -41t-64.5 -59.5t-43.5 -73q-6 -18 -11 -46.5t-7 -60.5t2 -62.5t16 -53.5l-284 -205q-10 -8 -13.5 -14t-5.5 -10q-6 -16 -1 -42 t16 -36q6 -6 10 -8l35 -55l-201 -525q-8 -18 -4 -48zM201 223l221 576q-10 0 -37 12t-31 20q-10 10 -14 33t6 31l309 223q-18 12 -24 41t-6 62q0 35 6 67.5t14 52.5q12 33 37 63t55.5 51.5t64.5 34.5t66 13q35 0 64 -17.5t46 -45.5q18 -27 22 -62q1 -9 1 -18q0 -25 -10 -49 q-27 -66 -87 -111t-120 -82l138 -223v-6q0 -6 -4 -12q-10 -29 -33 -47.5t-49.5 -38t-52 -46t-44.5 -73.5q-8 -20 -23.5 -70.5t-32.5 -107t-30.5 -106.5t-15.5 -69q18 3 33 3q52 0 52 -36q0 -13 -7 -30q-10 -29 -62.5 -73t-117 -85t-126 -70.5t-87.5 -29.5q-25 0 -49.5 26.5 t-43 63.5t-27.5 75t-1 60z" />
<glyph unicode="J" horiz-adv-x="1052" d="M98 328q-1 -11 -1 -22q0 -26 7 -52q9 -37 26 -73t38.5 -68.5t44.5 -59.5q16 -27 34.5 -48t35.5 -42q-6 -10 -13 -24h13l45 -72q45 0 126 23.5t174 62.5t189 89t170 103q14 51 28.5 100.5t31 99.5t35 102.5t40.5 111.5l133 348q14 12 34 31.5t38 38.5q10 10 19.5 20.5 t15.5 14.5l2 6q2 2 6 12v2v2q-4 23 -29 62l-10 18l4 10l-8 -6l-2 4q-4 20 -18.5 45t-34.5 52q-4 4 -6 8q10 8 25.5 18t31.5 25q29 23 60.5 48t41.5 34q8 14 10.5 19t8.5 22q13 33 13 74v6q-1 45 -21 75l-27 43q-8 33 -27.5 55.5t-54.5 22.5q-20 0 -57 -13.5t-75 -35 t-70.5 -50t-45.5 -59.5l-2 -8q-4 -8 -7 -31.5t-5 -53t-4 -60.5t-2 -53l-207 -158q-10 -6 -19.5 -23.5t-13.5 -27.5q-10 -31 -11 -56.5t23 -35.5l15 -19l-238 -616l-360 92q-8 -20 -13.5 -26.5t-9.5 -8.5q-12 -8 -16 -10l-90 -41l-2 -4h-2q-8 -23 -10.5 -31t-4.5 -12h-2z M127 328l1 4l3 12q12 0 15.5 2t1 5t-5.5 5l-3 2l76 35q10 8 27.5 18.5t19.5 14.5l361 -92l266 696q-43 -6 -48 15.5t5 50.5q4 8 9 19t9 13l226 172q-2 8 -3 37q0 31 3.5 65t6.5 62.5t7 38.5q6 27 33.5 52.5t61.5 45t66.5 30.5t51.5 11q27 0 43 -18t22.5 -44t4 -55.5 t-10.5 -54.5q-4 -10 -10 -21l-6 -11q-10 -8 -36 -27.5t-53.5 -42t-52 -42t-32.5 -26.5q-2 -4 17.5 -33.5t42 -64.5t41 -63.5t16.5 -28.5q0 -2 -5 -8l-4 -6q-6 -6 -20 -21.5t-30.5 -32t-31 -30t-22.5 -19.5l-29 -73l-82 -215l-26 -68q-43 -113 -73 -207t-58 -199 q-72 -51 -161 -99t-176 -85t-162 -59.5t-116 -22.5q8 12 12 15h-8q-10 18 -42.5 56t-65.5 86t-57 102q-20 44 -20 85q0 9 1 19zM166 129l8 -14zM336 -111l2 2l6 -10z" />
<glyph unicode="K" horiz-adv-x="1079" d="M113 360q10 27 45 50.5t75 40.5l271 704q-2 22 -2 47q0 46 7 106q11 92 46 181q53 0 78.5 -19.5t40.5 -46.5q57 39 103 66t91 42t91.5 21.5t103.5 6.5h6q4 0 7 -1.5t7 -1.5q8 -2 19 -2h20t16.5 -1t12.5 -1h41q10 -4 21.5 -19t15.5 -32l-2 -6l26 -41v-2l9 -8q4 -6 6 -11.5 t2 -11.5q-4 -14 -4 -18q0 -2 -4 -10l-5 -9q0 -4 -5 -15t-7 -15q-59 -8 -102 -26.5t-73 -44.5t-51.5 -60.5t-37.5 -73.5l131 70v-2q57 32 123 32h4q45 0 81 -19.5t46 -66.5l2 -2l29 -45q12 -18 14 -41l-399 -254q35 -14 74.5 -31.5t87.5 -37.5q20 -12 24 -45l33 -54 q14 -18 10 -52t-20 -75q-20 -53 -55.5 -116.5t-72 -121t-67.5 -101.5t-45 -58h2q-78 -80 -161 -155.5t-168 -138t-171 -104.5t-170 -53h-20q-20 0 -37.5 4.5t-28.5 18.5l-37 59q-22 14 -22 40q0 8 2 18l186 229q-18 6 -42.5 19.5t-49 32t-46 41t-36.5 46.5l-18 31 q-34 35 -50 72q-9 19 -8 38q0 17 7 33zM139 360q-6 -14 -5 -28q0 -22 12 -44q22 -38 57 -71t74.5 -53.5t62.5 -20.5q25 0 41 4.5t32.5 10.5t37 15t51.5 20l-307 -377q-4 -31 23.5 -36t51.5 -3q80 10 163 51t166 101.5t164 135t159 152.5q12 12 39.5 51t61.5 92.5t67.5 114 t55 112.5t27 91t-19.5 49q-104 47 -175 77t-122 46l481 307q-4 31 -29.5 46.5t-59.5 18.5q-10 1 -19 1q-23 1 -49 -5q-34 -8 -60 -22l-272 -143l8 18q6 16 11 33.5t12 34.5l10 24q20 55 42.5 103.5t54.5 86.5t79 62.5t119 34.5q4 12 10 20q0 2 2 12l2 9q-2 10 -8 21.5 t-14 13.5q-8 0 -24.5 1t-39.5 1q-20 0 -35.5 2t-23.5 2q-59 0 -106.5 -6t-91.5 -23.5t-92 -46.5t-110 -72q-8 29 -24.5 53.5t-57.5 24.5q-29 -74 -36 -156q-4 -41 -3.5 -77t3.5 -66l-281 -729q-35 -12 -71 -31.5t-44 -42.5zM522 262l172 430q14 -41 14 -81q0 -17 -3 -35 q-9 -58 -31 -113l-27 -68q-10 -23 -38.5 -60.5t-86.5 -72.5zM1253 1452v2q2 0 0 -2z" />
<glyph unicode="L" horiz-adv-x="784" d="M82 244q4 -21 13 -41.5t20.5 -38t19.5 -25.5q4 -4 9.5 -13t15.5 -20l8 -12q14 -25 20 -31q8 -12 28 -35.5t41.5 -49t40.5 -48t28 -30.5q4 0 16 5t26.5 11l29 12t22.5 11l340 196l6 12q4 6 8 15.5t6 15.5q9 25 9 42q0 13 -5 22l-34 55q2 39 -39 45l354 922q2 6 11 9t20 7 q16 4 35.5 12t41 25.5t43 50.5t41.5 86l-45 72l5 12q-115 0 -213.5 -31.5t-176.5 -62.5q-47 -18 -84.5 -31.5t-58.5 -13.5h-4l-70 61l-4 -2q-6 2 -16 4t-21.5 4t-19.5 4.5t-10 2.5l-17 -46q-2 -4 -2 -6t-2 -6l-4 -12l-4 -94q-6 -29 -10 -55.5t-6 -41.5v-12q-2 -10 -2 -20 l-314 -820q-27 -16 -51.5 -34.5t-34.5 -28.5l-6 -8l-2 -8q-6 -16 -2 -37zM109 254q-4 21 4 33q6 6 17 16t24.5 20.5t27 18.5t19.5 10l317 830q2 4 4 18t4 33.5t5.5 40t7.5 37.5l2 94q4 8 7 21.5t7 19.5q2 0 16.5 -3t14.5 -5l73 -64l5 -1q4 -1 10 -1q31 0 86 21.5t123.5 48 t145.5 48t151 21.5q-25 -66 -52.5 -91t-54 -34.5t-47 -14.5t-31.5 -30l-395 -1034q25 0 49.5 4t43 3t25.5 -13t-5 -45q-4 -8 -10.5 -19.5t-6.5 -13.5l-329 -190q-6 -4 -17.5 -9.5t-24 -10.5l-22.5 -9t-12 -4q-6 8 -25.5 29.5t-41 47t-40 49.5t-24.5 34q-6 2 -17.5 17.5 t-20.5 35.5t-13 41z" />
<glyph unicode="M" horiz-adv-x="1679" d="M125 225q2 -16 14.5 -45.5t22.5 -46.5q2 -2 1 -3t3 -1q0 -6 6 -6l29 -47q4 -6 8 -12.5t8 -10.5q14 -23 28.5 -44t26.5 -34q16 -23 28.5 -42t23.5 -29q10 -4 12 -4h10q37 0 76 23.5t80 56.5q39 29 76.5 54t72.5 25q4 0 6 -1t7 -1q14 -51 45 -71l28 -45q10 -18 26.5 -29.5 t45.5 -11.5q27 0 69 16t86 44t86 63.5t70 72.5q27 -59 62 -94l16 -25q20 -35 44 -56t42 -21q31 0 91.5 30.5t123 73.5t112.5 88t60 76q2 4 2 6q0 4 2 23q-4 12 -14 36.5t-19 38.5l228 594q16 16 37.5 43t27.5 41l19 45l-5 12.5t-5 8.5l-5 8q-4 6 -8 23l-24 36q0 6 -1 8.5 t-3 6.5t-6.5 12t-6.5 18q-12 16 -25.5 38t-27.5 48l-12 19q-23 37 -42.5 70.5t-41.5 52.5h-2q2 0 -4 6h-27l4 2l-4 -2q-29 -18 -47.5 -29.5t-34.5 -23.5q-29 -20 -62.5 -45t-66.5 -46.5t-60.5 -36t-41.5 -16.5l-45 101l-17 28l-28 58q-10 8 -12.5 9t-12.5 1q-12 0 -16 -1 t-14.5 -5t-32 -15.5t-49 -27t-58.5 -34.5t-61 -38q-16 -8 -23 -12q-25 -16 -48.5 -29.5t-39.5 -23.5l-41 96l-16 28l-27 56h-86q-70 -47 -111 -76t-67.5 -47.5t-47 -33.5t-48.5 -38q-10 -6 -16.5 -11t-15.5 -13.5t-25.5 -20.5t-43.5 -37q-12 -14 -16 -26q-10 -31 0 -57.5 t31 -45.5l18 -26l-221 -576q-4 -6 -10.5 -13t-12.5 -16q-4 -4 -6 -7t-6 -7q0 -2 -2 -4t-2 -4q-4 -4 -10 -9t-11 -12zM154 231l6 15l8 20q10 10 29.5 38t31.5 38l234 608q-10 0 -24.5 10.5t-25 28t-13.5 38t12 40.5q2 2 17 15.5t37.5 32t37.5 28.5q29 23 74 54.5t87 61 t73 49.5l30 21h63l89 -186q0 -6 43 19.5t99 60t109.5 67.5t75.5 39l7 3q8 3 16 3q2 0 6 -3l4 -3l88 -186l3 -2q3 -2 11 -2q23 0 69 25.5t94 59t90 64.5t59 41l7 3q7 3 13 3q2 0 6 -3t6 -3q10 -10 30 -43t41.5 -69.5t39.5 -68.5t27 -42q4 -10 11 -23.5t7 -15.5l-8 -20l-6 -17 q-4 -6 -12.5 -18.5t-17.5 -24.5t-18.5 -22.5t-15.5 -14.5l-233 -608q6 -10 18.5 -36.5t16.5 -39.5l-1 -9q-1 -9 -1 -11q-10 -29 -57.5 -71t-105 -81t-112.5 -67.5t-84 -28.5q-18 0 -42.5 25.5t-44.5 61.5t-30 76q-5 19 -4 35q0 19 6 35l273 707q-8 0 -18.5 6t-26.5 6 q-33 0 -47 -37l-219 -571q10 -33 8 -57.5t-15 -53.5q-16 -41 -56 -81.5t-87 -74.5t-94 -55.5t-78 -21.5q-35 0 -51.5 24.5t-28.5 55.5t-27.5 55.5t-50.5 24.5q-41 0 -80.5 -24.5t-78.5 -55.5t-76 -55.5t-70 -24.5q-6 0 -11 1l-5 1q-8 8 -30.5 43t-47.5 72q-6 16 -13 24 t-12 13q-8 14 -20 39.5t-14 39.5zM645 342h64l249 649l-79 -41z" />
<glyph unicode="N" horiz-adv-x="1423" d="M113 279q-10 -25 1 -52.5t23 -44.5l39 -53l6 -6q2 -10 15 -19l2 -6l153 -196h43q4 0 44 22.5t93.5 53t110.5 64.5t94 56l11 6q10 -25 26.5 -49t34.5 -43l12 -18q25 -41 57.5 -70.5t55.5 -29.5q10 0 29 6q2 0 8 1l6 1l334 196q16 8 28 17q20 12 36 21t26 18.5t17 22.5 t14 32q8 18 8 34q0 18 -10 33l-35 52q0 16 -6 28l196 514q12 8 29.5 22.5t33 31t27 31t15.5 22.5q4 10 0 18l-41 64q4 6 -2 18l-7 8q-6 10 -15 26.5t-19 27.5l-95 98q-2 2 -10 15.5t-19.5 30.5t-21.5 34.5t-16 30.5q-4 4 -4 6q0 4 -4 8l-4 6q-8 2 -11 2h-12q-57 0 -135 -44 t-156 -97q-23 -16 -50.5 -33.5t-53.5 -32.5q-4 12 -11.5 24.5t-11.5 26.5l-16 27q-20 49 -54 88t-90 39h-22q-49 -20 -106.5 -54t-112.5 -72t-106.5 -77t-88.5 -69l-6 -17q0 -4 -2 -6t-4 -6l-4 -12q-14 -35 -8 -52.5t20 -25.5l37 -57q2 -10 23 -19l-195 -506q-4 -2 -7 -4 t-7 -6q-12 -10 -30.5 -22.5t-36 -24.5t-32 -24.5t-20.5 -18.5l-4 -6q0 -2 -2 -3t-2 -3zM138 263.5q-1 13.5 7 23.5q4 6 23.5 20.5t41 29.5t42 28.5t27.5 17.5l221 575q8 25 -10.5 29t-42 7t-40 13.5t-1.5 47.5q4 8 8 18t4 12q35 29 83 66t100 73t104.5 67.5t99.5 49.5h16 q39 0 65.5 -23.5t44 -58t28 -73.5t16.5 -68q43 18 99 56t114.5 75t114 65.5t96.5 28.5q2 0 7 -1l5 -1q2 -2 12.5 -21.5t23.5 -43t25.5 -41.5t18.5 -21l92 -96q12 -12 24.5 -36.5t14.5 -26.5q-4 -8 -16.5 -22.5t-27.5 -30t-30.5 -27.5t-25.5 -17l-222 -575q32 -13 56 -33 q14 -12 14 -32q0 -14 -6 -31q-6 -18 -14.5 -29.5t-19.5 -21t-28.5 -18.5t-44.5 -25l-327 -193q-4 0 -16.5 -4t-20.5 -4q-18 0 -45 21.5t-48.5 53t-33.5 66.5t-2 60l295 765l-37 33l-43 -33l-246 -639q4 -8 6 -31.5t0 -31.5l-6 -18l-6 -15l-43 -30q-37 -23 -92 -56 t-107.5 -63.5t-90.5 -52t-40 -21.5h-32l-150 193q-6 6 -14 17t-13.5 25.5t-6.5 28z" />
<glyph unicode="O" d="M94 307q-10 -25 5.5 -58.5t47.5 -68.5l17 -28q25 -41 73 -85t101 -81t104.5 -61.5t85.5 -24.5h15q4 0 20 2q14 4 56.5 30.5t82.5 53.5q25 16 45.5 28.5t28.5 16.5h2q53 25 97.5 43t78.5 35q63 27 107.5 46t77 41.5t58.5 53.5t50.5 78t51 114.5t65.5 165.5l18 47 q6 16 12.5 35t12.5 37l49 127q6 42 5 87q0 36 -3 74q-8 85 -49 150l-18 27q-18 53 -52 92t-88 55q-10 -6 -43.5 -21t-70.5 -30.5t-70 -29t-41 -15.5q-41 -16 -123 -33.5t-172 -33.5q-53 -10 -102 -21.5t-89 -23t-65.5 -22.5t-32.5 -24l-260 -682q-33 -8 -51 -26.5t-29 -46.5 zM121 307l8 23q10 23 26.5 38t45.5 15l268 702q2 6 37 15.5t87 21t115.5 23.5t123 24.5t109.5 23.5t77 21q8 2 41 15.5t70.5 29t71.5 31t44 21.5q51 -16 82 -58.5t46.5 -96.5t17.5 -114v-27q0 -46 -5 -89l-20 -49q-14 -35 -26.5 -72t-26.5 -72l-17 -47 q-45 -115 -74.5 -188.5t-58 -119.5t-61.5 -72.5t-81 -50.5t-119 -52.5t-175 -75.5q-8 -4 -39 -23.5t-66.5 -42t-66.5 -41t-37 -20.5l-10 -1t-19 -1q-41 0 -108.5 36t-130 85t-102.5 101q-30 40 -30 70q0 9 3 17zM678 416q-8 -20 10.5 -29.5t38.5 -9.5l199 518q8 20 -2.5 51 t-24.5 45z" />
<glyph unicode="P" horiz-adv-x="1040" d="M119 346q0 -25 22 -35l39 -57q10 -18 41 -18q12 0 21 2q-18 -63 -38 -135q-20 -73 -28 -137q-4 -34 -4 -64q0 -26 3 -50q7 -50 40 -65l31 -49q16 -29 49 -29q41 0 56.5 13.5t35.5 50.5q10 18 39 59q4 6 19.5 35t37.5 63q16 27 35 56.5t34 55.5t27.5 45t16.5 28h-2 q8 4 64.5 32.5t132.5 63.5q55 27 111 54.5t103.5 53t79 47t37.5 35.5l230 594q4 10 4 35q0 27 -5 56.5t-13.5 59.5t-20.5 52l-27 37q-10 33 -24.5 55.5t-36.5 22.5q-18 0 -50 -13.5t-70 -32t-76 -40t-66 -37.5q-4 10 -8.5 17.5t-8.5 17.5l-16 22q-4 12 -10 24.5t-11 22.5 l60 47q6 31 -4 43l-35 58q0 31 -21.5 39t-44.5 8h-34q-119 0 -198 -69.5t-126 -192.5q-23 -57 -28 -102.5t-5 -86.5q0 -4 -1 -7t-1 -7q-4 -37 -8 -76t-27 -92q-23 -59 -62.5 -106.5t-80.5 -94.5q-4 -4 -11 -12t-12 -12q-39 -41 -72.5 -85t-56.5 -102l-14 -38 q-12 -33 -12 -60zM150 355.5q-3 21.5 8 50.5l14 38q23 59 62.5 107.5t83.5 94.5t84 96.5t65 113.5q23 57 29 102.5t8 86t6 83.5t27 99q43 111 112.5 173t173.5 62q12 0 27.5 1t29 -2t20.5 -10t5 -26l-90 -71q53 -29 79 -87.5t32 -123.5q2 0 40 22.5t87 49t97 49t69 22.5 q23 0 37 -28.5t21 -65.5t8 -72t-3 -47l-227 -594q-4 -12 -44 -34.5t-96.5 -51t-121 -60.5t-122 -58.5t-97 -47t-44.5 -28.5q-8 -12 -33.5 -55.5t-55 -90.5t-53 -88t-30.5 -49q-23 -33 -34 -53.5t-19 -32.5t-18.5 -17.5t-30.5 -5.5q-35 0 -46 34q-9 27 -8 65v22 q3 54 17 119.5t31.5 128t35 115.5t25.5 82q-6 0 -15 2t-15 2q-29 0 -51.5 -21.5t-47.5 -21.5q-29 0 -32 21.5zM737 651l37 -69l150 387l-21 35l-43 -35z" />
<glyph unicode="Q" horiz-adv-x="1042" d="M165 322q7 -56 46 -86l29 -46q33 -55 120 -55q41 0 76 21.5t70 50.5q16 16 35 26q-10 -59 -17.5 -128.5t-7.5 -133.5q0 -63 9.5 -110t33.5 -64l35 -55q12 -23 37 -23q23 0 57.5 37t73.5 93.5t80 124t75.5 131t60.5 112.5t36 68q10 23 31.5 69.5t48 106t55.5 127t55.5 130 t48 114t33.5 79.5q31 12 41 31t21 41l2 6q4 10 4 20q0 24 -19 54l-26 41q-10 39 -51 82t-92.5 80t-101.5 60.5t-77 23.5h-22l-125 -68q-37 -16 -70 -30.5t-61 -26.5q-6 -4 -19 -9l-12 -4l4 2q-94 -41 -152.5 -69.5t-100.5 -71.5t-77 -113.5t-82 -193.5l-22 -55 q-23 -57 -45.5 -127t-33.5 -138q-7 -41 -7 -78q0 -24 3 -46zM194 337q-4 20 -4 43q0 29 6 62q9 58 26.5 117t38 113.5t36.5 93.5q35 92 62.5 153.5t55 101.5t62.5 65.5t83 49t116.5 51t165.5 70.5l121 66h14q29 0 85 -27.5t109.5 -66.5t88.5 -84q25 -33 25 -60q0 -9 -3 -18 q-8 -20 -16.5 -36.5t-42.5 -26.5q-10 -25 -31 -74t-47.5 -112.5t-57 -134.5t-58.5 -133.5t-50.5 -112.5t-32.5 -72q-8 -18 -32.5 -66.5t-58.5 -109t-72 -126t-74.5 -120t-67.5 -90t-49 -35.5q-27 0 -39 34.5t-14 89.5v24q0 45 5 96q7 65 16 125.5t18.5 109t15.5 68.5 q-6 0 -9 1t-5 1q-35 0 -68 -20.5t-63.5 -46.5t-62.5 -46.5t-64 -20.5q-61 0 -91 29t-37 75zM584 588q-8 -20 10 -28.5t39 -8.5l162 420q8 20 -12.5 29.5t-37.5 9.5z" />
<glyph unicode="R" horiz-adv-x="1167" d="M123 311q-4 -14 9 -37.5t36 -52.5l20 -28q23 -37 77 -87.5t111.5 -96.5t104.5 -77.5t58 -31.5h22q6 0 16.5 1t14.5 1q141 84 275 175t263 189l7 15q4 6 7 13t5 11q11 29 11 49q0 13 -5 21l-4 4h2l-35 53q0 45 -53 45q-31 0 -58.5 -12t-56.5 -29q-20 -10 -40.5 -19 t-43.5 -9h-2l144 370l18 -59l23 -41q4 -2 10 -2l43 -70q14 -4 16 -4h10h7q2 0 6 1t6 1q16 2 53 24.5t76 51.5t71.5 56.5t41.5 39.5q8 14 10 20.5t12 28.5q4 10 8 19.5t8 19.5l13 31q41 106 44 189q0 5 1 10q0 77 -43 147l-10 14v-2q2 0 2 -2l-7 9q-10 29 -26.5 58.5 t-40.5 57.5l-320 -231q-4 12 -9 22.5t-9 20.5l-18 26q-10 27 -20.5 46.5t-28 37t-44 35t-67.5 37.5q-10 -6 -40 -25.5t-59 -37.5q-18 -10 -32 -23q-47 -31 -96.5 -62.5t-73.5 -43.5h-4q-18 -12 -25.5 -16.5t-21.5 -14.5q-6 -4 -12.5 -8t-2.5 -2q-43 -27 -68.5 -47.5 t-41.5 -65.5q-14 -37 -6 -57.5t26 -30.5l33 -51q8 -23 43 -33l-152 -395l-166 -119q-8 -6 -13 -11t-9 -16zM157.5 279.5q-16.5 27.5 0.5 39.5l176 127l172 449q8 25 -13.5 34t-48 18t-46 24.5t-5.5 52.5q8 25 20.5 39t30 26.5t41 25.5t56.5 36q18 8 60 35.5t89 58.5t88 58.5 t58 37.5q47 -23 73.5 -42t42 -42.5t26.5 -56.5t30 -82h32l308 223q66 -73 68 -161v-6q0 -86 -46 -201q-4 -14 -12 -32.5t-17 -37.5q-6 -16 -11 -29l-5 -12q-10 -12 -40 -37.5t-64.5 -52.5t-68.5 -47t-48 -23q-2 0 -8 -1t-9 -1q-6 0 -11 1l-5 1l-18 33l-56 191l-43 -31 l-184 -479q-6 -18 4 -25.5t26.5 -9.5t33 -1t22.5 1q29 0 53.5 11t48 23.5t47 24t50.5 11.5q29 0 33 -19.5t-7 -48.5q-4 -8 -10 -18.5t-6 -12.5q-127 -98 -256 -186t-264 -166q-6 0 -22.5 -1t-22.5 -1q-8 0 -41 20.5t-76 52t-90 70.5t-83 75t-52.5 63.5z" />
<glyph unicode="S" horiz-adv-x="993" d="M115 365q2 8 3 11l5 15q12 33 53 63.5t91 57.5t102.5 46.5t89.5 29.5l-158 239l72 189q12 33 39.5 60.5t61.5 51t69 40t65 28.5q18 6 65.5 22.5t108.5 34.5v2q45 14 93.5 31t91.5 31t76.5 26.5t50.5 18.5q4 0 8 2h8q2 0 4 1t4 1q25 0 38 -19.5t20 -43.5l26 -43 q10 -18 15.5 -45t5.5 -50l4 -24q0 -6 2 -22.5t2 -35.5q2 -23 4 -49t5 -53t5 -48.5t6 -33.5l6 -10q-6 -14 -7 -20.5t-3 -10.5h2q-12 -33 -50 -63.5t-84 -55t-95 -43t-86 -28.5l117 -136l-4 -8l45 -71l-91 -220q-12 -33 -39.5 -60.5t-60.5 -50t-66.5 -38.5t-56.5 -27 q-16 -6 -44.5 -15t-66.5 -21.5t-80 -25.5t-81 -26l2 -2q-72 -23 -131.5 -42t-87.5 -29l-8 -2q-4 0 -6.5 -1.5t-4.5 -1.5h-8q-20 0 -39 25l-30 51q-14 8 -23.5 25.5t-16 38t-9.5 41t-3 32.5q-2 2 -2 7q-4 14 -8 49t-8 74.5t-6 76.5t0 54h-2zM143 327q2 -36 7.5 -77t9.5 -77 t8 -48q0 -4 3 -25.5t8 -46t15.5 -44t26.5 -19.5q6 0 9.5 1t9.5 1q18 6 56 18.5t85 27.5t99 32.5t98.5 33t84 27.5t56.5 19q23 10 54.5 26.5t64 36.5t58.5 45t36 53l88 209l-320 373l64 63q2 -18 4 -51t8 -65.5t20.5 -57t45.5 -24.5q20 0 70.5 14t105.5 39t101 56.5t61 68.5 q2 2 4 11l2 9q-6 6 -10.5 41t-7.5 77t-5 80t-4 50q-4 2 -5 23.5t-4 46t-12.5 45t-29.5 20.5q-4 0 -8 -2t-10 -2q-31 -12 -98.5 -35.5t-142.5 -48t-142.5 -47t-96 -33t-60.5 -26t-61.5 -34.5t-54 -44t-35.5 -51l-67 -178l190 -285q-8 14 -35 14q-20 0 -70 -15t-105.5 -40 t-102.5 -56.5t-59 -64.5l-4 -12l-1 -6q-4 -10 -2 -46zM545 514l94 -133l-74 -8q-4 23 -4 63q0 43 -16 78zM631 303h2h2l-4 2v-2z" />
<glyph unicode="T" horiz-adv-x="876" d="M84 281q-1 -11 -1 -22q-1 -36 15 -67q20 -40 56 -75l10 -19q20 -35 50 -62.5t60 -51.5l2 -4q20 -16 38 -32t40 -46l2 -4q23 6 67 25.5t97 48t109.5 62.5t105.5 68.5t83 66.5t44 56q14 35 4 51l-39 60q0 27 -18 36t-47 9h-4l135 348q10 -2 18 -2h21q70 0 124 37t85 117 q10 23 10 43q0 22 -12 39l-2 2q2 0 1 -1t1 -1l-31 51q-4 35 -29.5 52t-60.5 28l119 309l-45 72l4 8l-84 90q-92 -104 -169 -185t-153 -151t-157.5 -134.5t-184.5 -133.5l-8 -17q0 -4 -2 -7t-4 -7l-4 -12q-14 -33 -14 -56q0 -15 6 -26q14 -29 45 -58l4 -6l-164 -428 q-2 -4 -13.5 -9t-25.5 -11t-28.5 -11.5t-22.5 -7.5v-4zM113 287l17 6t38.5 16t41 21.5t23.5 21.5l173 447q-36 29 -52 55q-8 12 -7 29q0 19 9 43q2 8 7.5 19t7.5 13q102 70 182 132.5t152.5 129t144.5 142.5t158 172l57 -64l-150 -385q20 -4 53 -9t61 -18.5t43 -37.5 q8 -12 8 -28q0 -15 -7 -34q-35 -86 -97 -114q-40 -18 -87 -19q-26 0 -55 6l-189 -491q10 0 40 6t58.5 8t46 -8t5.5 -43q-8 -23 -41 -52.5t-79 -61t-98.5 -63.5t-102.5 -57.5t-91 -44t-61 -24.5q-23 29 -59 59.5t-70.5 65.5t-58.5 75q-21 34 -21 74q-1 6 0 13z" />
<glyph unicode="U" horiz-adv-x="1423" d="M129 307q-1 -8 -1 -17q0 -48 28 -96q34 -58 75 -106q27 -43 59 -80t58 -65q10 -12 21.5 -23.5l17.5 -17.5h25q47 0 93 25.5t95 56.5q47 29 91 54t85 25q27 0 43 -16q8 -14 17.5 -26.5t23.5 -22.5l19 -31q16 -29 41.5 -47t66.5 -18q35 0 101.5 28.5t136 71.5t125 90 t69.5 84q10 23 9 37t-5 25l-37 57q0 37 -38 43l192 500q51 35 78 62.5t45 76.5l8 22q2 2 1 4.5t1 4.5l-3 18t-9 16l-29 50q-2 10 -5 17t-15 24l-6 6q-10 12 -33 45q-18 20 -41 49t-44.5 57.5t-37.5 53t-25 36.5q-174 -152 -378 -235q-4 27 -12.5 48t-18.5 42l-25 39 q-14 41 -39.5 68.5t-70.5 27.5q-4 0 -7.5 -1t-5.5 -1h-32q-10 -6 -32 -21.5t-48 -31.5l-11 -8q-18 -10 -32 -23q-47 -31 -96.5 -62.5t-73.5 -43.5h-4q-18 -12 -25.5 -16.5t-21.5 -14.5q-6 -4 -12.5 -8t-2.5 -2q-43 -27 -68.5 -47.5t-41.5 -65.5q-16 -39 -12.5 -57.5 t20.5 -26.5l39 -59q6 -14 22 -17l-170 -442q-4 0 -14 -8l-12 -8q-16 -6 -46 -18.5t-44 -22.5q-10 -16 -11.5 -18.5t-1.5 -6.5q-4 -10 -5 -13t-3 -20zM158 319l1 7q1 6 5 14q0 2 3 7l3 5q6 2 16.5 7.5t22.5 10.5t22.5 9t14.5 4q10 8 27.5 19.5t17.5 13.5l213 555 q-25 0 -50.5 -4t-43 -3t-23.5 13t6 47q8 25 20.5 39t30 26.5t41 25.5t56.5 36q18 8 60 35.5t89 58.5t88 58.5t58 37.5q6 0 16 1t18 1q55 0 80 -44t29 -105q1 -17 1 -35q0 -45 -7 -92q-10 -66 -27 -109q-16 -37 -47 -126t-72 -193q-20 -51 -40.5 -101.5t-36.5 -93.5 q-16 -41 -29.5 -73.5t-20.5 -51.5l18 7q17 6 38.5 15t41 20.5t23.5 21.5l221 575q-4 8 -7 25.5t-5 38t-3 38t-1 25.5l8 17l6 16q100 39 192.5 94.5t178.5 128.5q6 -10 21.5 -31.5t35 -47t41 -52t39.5 -47.5q20 -31 31.5 -45t15.5 -20t5.5 -9.5t3.5 -11.5l-9 -22 q-16 -43 -42.5 -68.5t-75.5 -60.5l-222 -574q-10 -27 9.5 -31t44 -6t41 -12t2.5 -49q-12 -35 -65.5 -78t-118 -83t-127 -66.5t-95.5 -26.5q-45 0 -67.5 25.5t-40 55.5t-39 55.5t-64.5 25.5q-45 0 -92 -25.5t-94 -55.5t-92 -55.5t-86 -25.5h-17q-12 16 -46 50t-68 79t-60 94 q-22 42 -23 83q0 7 1 13z" />
<glyph unicode="V" horiz-adv-x="1228" d="M111 352q-3 -8 -3 -17q0 -21 15 -51q22 -44 63 -94l7 -6q27 -43 70.5 -93t88.5 -92t84 -69.5t56 -27.5l11 4t25.5 10t28.5 12t23 11l163 94q35 20 78 34.5t90 28.5l2 -2q55 16 111.5 34.5t108 46.5t90.5 68t61 95l234 606q2 6 4 21.5t3 32t0 33t-3 22.5q-10 33 -41 80v2 q-2 0 -2 2q-8 23 -28.5 56.5t-42.5 66t-40 55t-20 22.5h-41l-328 -166l-61 97q63 10 116 65.5t80 122.5l-45 72l6 12q-94 0 -189 -9t-180 -42t-154 -98.5t-112 -176.5q-18 -45 -26 -78.5t-9.5 -63.5t7 -59.5t24.5 -64.5l-198 -518q-10 -4 -11 -4l2 2q-27 -10 -64.5 -29.5 t-51.5 -42.5zM137 352q6 8 25.5 19.5t41 21.5t38.5 17l16 6l209 542q-16 35 -24.5 63t-8.5 56q0 29 9 61.5t24 75.5q39 102 101.5 162t139 90.5t161.5 38.5t169 8q-12 -35 -35.5 -64.5t-53 -51t-63.5 -28.5q-13 -3 -25 -3q-21 0 -42 8l144 -235l342 172h32q2 0 18.5 -22.5 t36 -53.5t38 -63.5t24.5 -53.5q2 -4 3 -17.5t0 -28.5t-3 -29.5t-4 -20.5l-233 -606q-29 -74 -94.5 -117t-144.5 -70.5t-157 -49t-131 -52.5l-164 -94q-6 -4 -18 -9.5t-24.5 -10.5l-22.5 -9l-10 -4q-14 0 -45 20.5t-69 53t-77 72.5t-68.5 79t-46 73t-8.5 54zM717 446l41 -63 l235 614q-16 0 -43.5 -9t-36.5 -30z" />
<glyph unicode="W" horiz-adv-x="1589" d="M104 258q-6 -14 4.5 -44t29 -64.5t42 -71.5t45.5 -64q29 -47 59.5 -83.5t47.5 -36.5q6 0 24 6q2 0 6.5 1t14.5 1l262 188q10 2 13 3t7 1q45 0 76 -30.5t60 -65.5q29 -37 62.5 -67.5t88.5 -30.5q16 0 70.5 23.5t128.5 61.5t155.5 85t154.5 95t124 91t63 74l230 598 q8 25 8 59q0 35 -8 73t-21.5 74.5t-29.5 65.5l-15 25q-23 47 -47 80.5t-51 33.5q-47 0 -92 -29.5t-90 -62.5l-8 -6q-35 -25 -61.5 -43t-49.5 -20l-8 4l-19 18q-4 6 -5 13.5t-3 13.5l-24 41q-4 4 -2 6q-12 33 -30 51t-75 18q-76 0 -143.5 -40.5t-147.5 -102.5q-20 43 -53 78 l98 45q10 16 11.5 19.5t3.5 7.5q9 26 9 44q0 14 -5 23l-37 56q0 35 -27.5 44t-58.5 9h-43q-289 0 -418 -336q-35 -90 -38 -150v-10q0 -56 32 -110l-205 -535q-47 -27 -72 -53.5t-43 -73.5zM131 258q18 47 40 68.5t69 44.5l215 559q-34 55 -34 111q0 58 36 149 q119 309 381 309q14 0 37.5 1t42 -4t27.5 -20.5t-3 -48.5q-2 -2 -5 -7l-3 -5l-156 -72q18 -18 42 -36.5t45.5 -41t40 -49t26.5 -59.5q84 66 154.5 113t144.5 47q43 0 58.5 -12.5t23.5 -34t20.5 -50t46.5 -63.5l6 -3q5 -3 7 -3q33 0 70.5 25.5t77.5 55.5t80 55.5t77 25.5 q25 0 49.5 -36t40.5 -85q16 -50 22 -102q2 -16 1 -29q0 -33 -9 -55l-229 -598q-10 -29 -59.5 -71t-119 -87t-148.5 -90t-148.5 -81t-121.5 -58.5t-69 -22.5q-49 0 -80.5 30.5t-60.5 66.5t-62.5 67t-85.5 31q-6 0 -17 -3l-11 -2l-262 -188q-6 0 -18.5 -4t-18.5 -4 q-14 0 -44 34.5t-57.5 81t-46 90.5t-12.5 60zM645 332l68 26l233 609l-55 4zM1122 385.5q4 -8.5 12.5 -13.5t18.5 -6t18 -1l236 614q-16 0 -43 -10.5t-39 -38.5l-201 -522q-6 -14 -2 -22.5z" />
<glyph unicode="X" horiz-adv-x="1103" d="M-33 -137q10 -92 70 -146l18 -30q41 -68 123 -97.5t189 -29.5q68 0 138 11t133.5 42t117 85t88.5 142q19 47 19 79q0 25 -11 42l-33 51q-6 66 -100 72q55 33 115.5 74t110.5 77.5t85 67.5t41 47q2 6 2 8q0 4 2 15h-2q0 12 -10 33l-4 4l-2 2l-25 39l2 4h-2q2 14 -9 31.5 t-22 21.5h-20q-23 0 -40 -6t-36 -13q-4 -2 -6 -2t-6 -2q-18 -8 -35 -12l119 309q-2 -2 2 -2l33 -51q20 -37 86 -37q39 0 82 18.5t81.5 49.5t71.5 70.5t49 82.5q8 25 14 69q6 38 7 80q0 6 -1 13q-1 49 -8.5 96.5t-25.5 75.5l-27 39q-8 35 -25.5 55.5t-39.5 20.5 q-10 0 -14.5 -1t-18.5 -7l-246 -191q-4 8 -7 15.5t-7 15.5l-12 16q-12 27 -26.5 54.5t-34 49t-45 35t-56.5 13.5q-8 0 -13 -1t-30 -5l-373 -291q-10 -8 -13 -12t-7 -15q-8 -20 -4 -46.5t20 -37.5q0 -4 8 -4l29 -47q4 -6 6 -8q2 -6 8 -12h2q16 -8 39 -9h23l-146 -380 q-129 -82 -215 -177.5t-133 -222.5q-45 -117 -45 -201q0 -15 2 -30zM-5 -108q0 8 -1 17q0 78 43 185q47 125 133 217t209 170l164 426q18 45 7 58.5t-36 13.5t-54.5 -5t-49.5 5q-14 6 -15.5 32.5t8.5 35.5l367 284l12 2q11 2 17 2q39 0 67.5 -23.5t49 -57t35 -71.5t24.5 -65 l274 213l5 2q6 2 12 2q33 0 48 -43t19 -100q2 -23 2 -46q0 -34 -4 -68q-6 -58 -16 -87q-16 -41 -45 -76.5t-65 -63.5t-74.5 -44t-73.5 -16q-57 -1 -75 35q-12 24 -12 70q0 21 3 46h-33l-178 -461q-6 -16 -2 -24t12 -11.5t18.5 -4.5t18.5 -1q43 0 83 20.5t79 20.5h14 q8 -2 14.5 -15t4.5 -22v-8q0 -6 -3 -8q-6 -14 -40.5 -45t-84 -67.5t-108.5 -75.5t-112.5 -72t-94.5 -53.5t-57 -20.5q-29 0 -51.5 10.5t-45 23.5t-46 23.5t-56.5 10.5q-66 0 -109.5 -49.5t-68.5 -114.5q-16 -40 -16 -70q1 -16 5 -30q14 -39 47.5 -60.5t78.5 -29t86 -7.5 q4 0 20.5 1t35.5 2t35.5 2t20.5 1q18 49 43 94.5t55.5 80t69.5 55t88 20.5q95 0 95 -71q0 -28 -15 -68q-31 -82 -81 -132t-110.5 -79t-127 -39t-129.5 -10q-92 0 -167 23.5t-118 76t-48 134.5zM180 -137q0 12 4.5 26.5t10.5 30.5q23 59 60.5 101t90.5 42q31 0 52.5 -10 t43.5 -22q18 -12 37 -21.5t41 -13.5q-29 -33 -53.5 -74t-42.5 -88q-8 -2 -16 -2q-6 0 -17 -2q-18 -2 -35 -2h-18q-39 0 -83 7t-75 28zM1057 412l2 -2q0 2 -2 2z" />
<glyph unicode="Y" horiz-adv-x="972" d="M115 -305q-6 -25 0 -38t18 -19l37 -60q8 -14 27.5 -17t38.5 -3h30q37 0 93.5 20.5t122 56t133 81.5t126 97.5t103.5 104.5t63 102l338 883v6q4 25 1 55.5t-13 49.5l-4 6h2l-62 123l-8 10l-35 74q-16 4 -20 4h-6h-17q-2 0 -10 -2l-205 -115l-4 -2l-53 -25l-41 82l4 9 q2 6 18.5 15t36.5 19q16 8 36 19.5t40 30.5q2 29 -2 48t-10 29l-35 54q-8 35 -25.5 45t-52.5 10q-68 0 -125 -25.5t-104 -69.5t-84 -103.5t-64 -129.5q-27 -66 -37 -121t-16 -108q-8 -55 -18 -111.5t-33 -117.5q-18 -47 -42 -92.5t-48 -90.5q-25 -43 -46.5 -86t-41.5 -96 q-12 -32 -12 -65q0 -28 9 -58q19 -63 60 -102l19 -29q23 -35 51 -57.5t59 -22.5h10t13 2q10 4 28.5 16.5t40.5 24.5q8 4 17.5 10.5t19.5 10.5q-25 -53 -51.5 -91t-61 -72t-82.5 -69t-114 -84zM138 216q-2 13 -2 25q0 29 11 56q37 96 87.5 179t91.5 186q25 63 35 120.5 t18 111.5t17.5 109.5t33.5 116.5q25 63 57.5 117.5t74.5 95.5t94.5 64.5t113.5 23.5q37 0 51.5 -13t16.5 -65q-14 -12 -36 -22t-41.5 -20.5t-35.5 -21.5t-20 -24q0 -2 -3 -10l-2 -8l91 -182l77 35l203 112l6 1q6 1 13 1q2 0 7 -1l5 -1l59 -119q16 -16 17.5 -47.5t-0.5 -54.5 l-340 -883q-18 -47 -60.5 -97t-98.5 -99t-120.5 -94.5t-126 -79t-116 -53t-89.5 -19.5q-8 0 -24.5 -1t-31.5 2t-24.5 11.5t-5.5 26.5q76 55 129.5 95t91 80t67.5 89t58 125q2 4 7.5 22.5t13.5 39t14 39t10 26.5q-16 -10 -51 -31.5t-74.5 -44t-74.5 -43t-49 -29.5l-7 -1 q-6 -1 -8 -1q-29 0 -56.5 22.5t-47 56.5t-26.5 76zM565 385q45 0 82 45l15 37q10 29 23 54.5t24 53.5l14 39l55 146q16 41 20 78q3 19 3 37q0 16 -2 32l-47 -37z" />
<glyph unicode="Z" horiz-adv-x="913" d="M27 43q0 -51 14 -93t47 -73l25 -39q51 -88 200 -88q109 0 207 43t179 113.5t143.5 161t99.5 186.5q31 82 36 151.5t5 129.5q0 41 2 76.5t16 70.5l7 6l88 64q10 16 11 19t3 7q12 33 2 49l-37 60q2 27 -18 35l4 12q14 39 28.5 84t22.5 87q6 34 6 65v15q-2 38 -18 64l-27 43 q-8 39 -35.5 63.5t-85.5 24.5h-10q-4 0 -8 -1t-8 -1h-17q-10 -6 -33.5 -20.5t-50.5 -28.5q-23 -14 -50 -28.5t-54 -28.5q-35 -18 -63.5 -34.5t-41.5 -25.5q-10 -6 -29.5 -20t-40 -29.5t-40 -31t-31.5 -25.5l-2 2q-6 -6 -8 -12t-6 -13q-10 -23 -2 -47t22 -30l39 -58 q6 -14 21 -14h86q-20 -33 -56.5 -46.5t-72.5 -23.5q-53 -14 -100.5 -35.5t-69.5 -80.5q-4 -8 -6.5 -19.5t-4.5 -17.5q-4 -6 0 -11q-2 -10 -3 -23t-1 -24q4 -18 0 -26v-11q-14 -16 -22 -25t-15.5 -17.5t-15.5 -17.5t-22 -24v3q-33 -35 -59.5 -67t-31.5 -42l-8 -14 q-2 -4 -4 -9.5t-4 -9.5q-20 -37 -37 -84l-14 -39q-25 -61 -38 -118.5t-13 -108.5zM62 112q12 76 42 158l15 39q14 37 31.5 73t21.5 44q2 6 27.5 34.5t55.5 60.5t55.5 60.5t29.5 34.5q2 4 2 19v29q0 16 1 30.5t3 18.5q0 2 1 14t5 21q18 47 60.5 63t90.5 28.5t91 34t65 76.5 l9 19q-2 16 -4 39.5t-7 23.5h-159q-12 0 -16.5 23.5t10.5 40.5q2 4 18 16t37.5 27.5t43 30t34.5 22.5q16 10 56 32.5t85 47t85 47t58 33.5q2 0 14.5 1t18.5 1q53 0 77.5 -27t28.5 -70q1 -9 0 -19q0 -35 -10 -76q-12 -52 -29.5 -103t-36 -95t-28.5 -69q12 0 34.5 3t39.5 3 q28 0 28 -21q0 -10 -6 -24l-5 -10l-3 -6l-88 -64l-4 -6t-8 -10q-16 -41 -17 -86q0 -45 -1 -97.5t-8 -114t-34 -130.5q-35 -92 -94 -179t-137 -155t-171 -109t-196 -41q-92 0 -142 36t-66 94q-9 33 -10 73q1 28 6 61zM295 -18.5q18 -10.5 55 -10.5q20 0 23.5 1t0.5 8.5 t-6 21.5t7 39l223 586q-27 0 -52.5 -26t-46 -59.5t-34.5 -67.5t-21 -48l-147 -385q-20 -49 -2 -59.5z" />
<glyph unicode="[" horiz-adv-x="702" d="M44 135q1 -47 15.5 -93t39 -89t55.5 -80l8 -12q47 -76 112.5 -126t124.5 -50h31q29 0 60.5 10t52.5 49l-13 23l-32 53l4 4l-15 26h-10q-27 0 -47 13q-6 51 5 123.5t35 158.5t57.5 182.5t72.5 198.5q59 156 127 311.5t129 297.5q31 76 84 133l133 178l-47 72l8 8l-18 12 l-45 31l-117 114l-12 3h-13h-8q-2 0 -22 -5l-162 -127q-35 -23 -60.5 -55.5t-39.5 -54.5l-478 -1219q-16 -43 -15 -90zM78.5 78q-19.5 78 7.5 147l473 1211q16 23 41 54.5t53 47.5l152 119l6 1t8 1q4 0 11 -1l6 -1l114 -113l47 -31l-116 -151q-59 -66 -93 -148 q-61 -141 -129.5 -297.5t-128.5 -312.5q-59 -154 -103 -296t-58.5 -250.5t8 -173t98.5 -60.5q-10 -18 -26.5 -27.5t-34 -12.5t-32.5 -2t-24 1q-53 0 -112.5 43t-103.5 108.5t-63.5 143.5zM997 1513l4 -4z" />
<glyph unicode="\" horiz-adv-x="929" d="M342 283q4 -29 27.5 -72t62.5 -88q25 -41 62.5 -84t77.5 -79t76 -58.5t61 -22.5q23 0 52.5 24.5t59 62.5t56 81t41.5 80q6 16 9 30.5t5 26.5l-23 686q18 10 40 23.5t32 24.5l4 8q4 12 9 38.5t3 36.5h2q-2 8 -10 19l-33 55l-1 1t-1 3l4 2q-2 12 -12 27.5t-36.5 42.5 t-74 71t-120.5 115l-23 23l-45 45q-104 -86 -176 -167t-109 -159l-4 -10q-6 -20 -2 -29q2 -35 13.5 -57t29.5 -43l7 -10l20 -29l12 -18q8 -16 14.5 -39t8.5 -51q0 -16 -1 -46t-3 -67t-3 -80t-3 -82q0 -16 -1 -31.5t-1 -29.5q-2 -16 -3.5 -29.5t-1.5 -24.5q-72 0 -94 -61 q-10 -29 -8 -59zM371 293q-2 49 21.5 71.5t78.5 8.5q0 25 3 86t6 128.5t5 129t2 86.5q-2 57 -18 91t-35.5 57.5t-35 45t-15.5 58.5q-2 2 2 14l4 8q72 145 248 291q90 -86 146.5 -140t87 -86t43 -47.5t14.5 -25.5q2 -4 0 -14.5t-4 -21.5t-5.5 -21.5t-5.5 -12.5q-4 -6 -14 -13 t-21.5 -13t-21.5 -10.5t-16 -4.5l22 -702q0 -27 -21.5 -74t-52 -92t-63.5 -79t-55 -34q-29 0 -78 36t-97.5 87.5t-85 104.5t-38.5 88z" />
<glyph unicode="]" horiz-adv-x="624" d="M-171 -203.5q-7 19.5 3 53.5h37q63 0 128.5 63.5t129 168t124 241t116.5 281.5q59 156 111 311.5t100 296.5q12 37 17 69t1 58l4 187l92 41l2 2l207 114q8 2 10 3h17h6q4 0 20 -5l31 -63l12 -21l60 -122l6 -9q10 -23 12 -53.5t0 -54.5l-457 -1211q-18 -49 -63 -102 t-103.5 -104.5t-126 -97.5t-133 -81.5t-122 -56t-93.5 -20.5h-28q-16 0 -34.5 4t-29.5 20l-35 58q-14 10 -21 29.5zM-150 -176q-6 -18 4.5 -27.5t27 -12.5t32.5 -2t23 1q35 0 89 19.5t116.5 53t127 79t120.5 94.5t98 99t61 97l457 1211q2 23 0 54.5t-19 47.5l-55 119l-6 1 t-8 1q-6 0 -12 -1l-7 -1l-205 -113l-65 -31l-4 -151q8 -66 -19 -148q-47 -141 -100 -297.5t-113 -312.5q-59 -154 -123.5 -296t-134 -250.5t-141.5 -173t-144 -60.5zM618 1509l11 4z" />
<glyph unicode="^" horiz-adv-x="1228" d="M73 196.5q-1 16.5 0 34t3 34t6 22.5l233 608q23 57 64 97t93 69t111.5 48t116.5 36q4 2 7 2q4 0 8 2q41 12 78.5 24.5t64.5 28.5l164 96q8 4 24.5 11.5t32 13.5t27.5 10l12 4q20 0 69.5 -37.5t102.5 -92t98.5 -114t57.5 -100.5l16 -24q16 -29 24.5 -50.5t2.5 -37.5l-2 -4 q-6 -10 -21.5 -21.5t-34 -21t-37 -16.5t-30.5 -13l-201 -524q14 -35 21.5 -64t7.5 -57q0 -29 -7 -63t-26 -79q-43 -111 -110.5 -175t-150.5 -96t-175 -41t-184 -9l-43 72h-13q27 72 80 130t119 70l-61 97l-322 -164h-37q-2 0 -25.5 29.5t-48.5 68.5q-12 14 -29.5 36.5 t-33.5 47.5t-29.5 47.5t-19.5 40.5q-2 8 -3 24.5zM98 209q0 -12 4 -16q6 -23 24.5 -56t39 -63.5t37 -52t18.5 -21.5h33l340 172l145 -235q-35 12 -68.5 3.5t-62 -29t-52.5 -52t-36 -64.5q84 0 169 8.5t161 39t138.5 90t103.5 163.5q16 43 23 76t7 59q0 29 -8 57.5t-22 63.5 l208 543l16 6q17 6 38.5 16.5t41 20.5t25.5 20q6 18 -10 52t-46 74t-69 80t-75.5 73t-67.5 53.5t-45 20.5l-10 -4q-11 -4 -24 -9.5t-25.5 -10.5t-16.5 -9l-166 -96q-53 -29 -130 -50.5t-155.5 -49t-144 -70.5t-94.5 -117l-233 -608q-2 -6 -4.5 -19.5t-4.5 -29t-2 -29.5z M563 311l238 615l39 -64l-197 -510q-10 -23 -36.5 -32t-43.5 -9z" />
<glyph unicode="_" horiz-adv-x="1157" d="M-170 -145q2 8 8 8l629 102l602 -102q16 -10 19.5 -14.5t-1.5 -14.5l41 -67q2 -4 0 -15q-10 -23 -26 -22q-41 -20 -90 -32.5t-121 -27.5q-29 -6 -60.5 -12t-70.5 -16l-2 2q-10 -4 -33 -4q-43 0 -122 9t-171 22.5t-189.5 29.5t-176 31.5t-130 28t-53.5 16.5l-43 71z M-160 -164q-8 -2 48.5 -11t147.5 -21.5t201.5 -24.5t210 -22.5t173 -15.5t92.5 -1q131 29 212 44t132 44q6 2 1 5l-5 3l-594 103z" />
<glyph unicode="`" horiz-adv-x="555" d="M651 1763l6 17l351 184l2 -25l41 -63l30 -326q0 -8 -2 -16q-4 -6 -6 -11t-8 -10q-29 -37 -58.5 -57t-68.5 -43q-8 -4 -22.5 -13t-36.5 -24h-2q-8 -6 -21 -6q-10 0 -21.5 12.5t-23.5 32.5l-20 35q-20 18 -46 65.5t-47.5 99.5t-36 95t-10.5 53zM678 1738.5 q6 -24.5 19.5 -60.5t30.5 -75.5t35.5 -71.5t34 -50.5t25.5 -10.5q63 39 107.5 64t75.5 74q4 0 5 6l1 6l-29 305l-305 -160q-6 -2 0 -26.5z" />
<glyph unicode="a" horiz-adv-x="1159" d="M111 284q12 106 61 234l117 305q4 10 8 18.5t8 18.5l17 43q37 76 89 128t111.5 91t126 67t131.5 52q4 2 17 6q27 10 58.5 23.5t66.5 29.5l-4 -2q4 2 6 2t4 3l20 10t15 8q29 16 53 26.5t57 10.5q45 0 65.5 -24.5t43.5 -59.5q18 -45 63 -80l9 -5q8 -5 22 -11q2 -2 4 -2 t6 -2q33 -16 62.5 -38t33.5 -59l31 -49q8 -14 10 -31.5t-8 -40.5q-14 -37 -37.5 -52t-50.5 -25h2q-12 -6 -21.5 -10.5t-17.5 -8.5q-31 -59 -49 -102t-39 -96l-96 -252q6 -2 15 -17.5t14 -34.5l28 -45q10 -16 15.5 -40.5t-0.5 -41.5q-12 -33 -20.5 -41t-33.5 -18 q-6 -4 -11 -5t-11 -5q-23 -20 -69 -52t-95 -65q-41 -27 -77 -51.5t-58 -44.5h-35q-27 0 -45 14t-33 37l-22 35q-27 18 -43.5 51t-26.5 66q-16 -10 -41 -30t-49 -40q-59 -47 -116.5 -90t-98.5 -43q-33 0 -49.5 16.5t-28.5 36.5q-2 2 -2 4t-2 4l-16 25q-12 10 -20.5 23.5 t-16.5 25.5q-49 78 -49 164q0 18 2 36zM140 294q-2 -19 -3 -37q0 -81 45 -155q12 -20 27.5 -37.5t44.5 -17.5q33 0 81 34t97 76t92 75.5t66 33.5q12 0 20 -33.5t22.5 -75.5t36 -76t60.5 -34h25q18 14 59 43t87 59.5t87 59.5t60 45q18 10 27 14t15.5 9.5t10.5 11.5t10 20 q2 8 2 21q0 12 -3 24.5t-7 20.5t-8 8q-16 0 -28.5 -8t-29.5 -8q-14 0 -16 17t1 39.5t9 42t8 26.5l6 16l35 90l13 33l32 82q12 33 22.5 60.5t22 55t25.5 55t33 62.5q16 12 33.5 20.5t34 15.5t30.5 18.5t23 33.5q12 35 -2.5 56.5t-39 37t-52 27.5t-42.5 27q-25 18 -39 43.5 t-28.5 49t-32.5 40t-49 16.5q-39 0 -67.5 -17.5t-71.5 -37.5q-76 -35 -159 -64.5t-161 -68.5t-145.5 -96.5t-110.5 -145.5l-16 -41q-14 -37 -26.5 -67.5t-26.5 -67.5l-17 -41l-63 -166q-47 -123 -59 -224zM549 377q33 119 72 213l81 217l17 39l37 96l6 16l31 58h4h8 q6 -4 11 -21.5t11 -27.5q4 -8 9 -15l6 -6l-197 -512q-2 -6 -12 -17t-22.5 -21.5t-25 -20.5t-18.5 -15h-6h-6q-12 7 -6 17zM1192 1237l2 -2q4 -4 5 -6t5 -6l-2 4q-2 4 -5 6t-5 4z" />
<glyph unicode="b" horiz-adv-x="1095" d="M113 274q6 -23 29.5 -57.5t58.5 -73.5q25 -37 60.5 -78.5t73.5 -78.5t69.5 -60.5t48.5 -23.5h8l536 225l-2 2q12 10 35 32.5t39 39.5q12 16 19.5 25.5t13.5 18.5t14 21.5t23 32.5l186 485q6 18 5 45t-9 58t-20.5 61.5t-28.5 55.5l-12 18q-20 49 -48 87t-55 38 q-35 0 -77 -18.5t-89 -45.5q27 63 55.5 101.5t56 60t52.5 31.5t45 16q35 10 57.5 21.5t36.5 44.5q14 40 14 62.5t-16 58.5l-30 51q-2 14 -13 33q-10 -2 -23.5 -3t-23.5 -4q-25 -2 -45 -6q-92 -10 -178 -26.5t-178 -63.5l-119 -61h-2q-2 0 -2 -2l-4 2q-8 6 -17 22l2 2l-10 13 q-10 23 -20.5 44t-12.5 31l-92 -67q-2 -10 -2 -37v-51q1 -35 1 -74v-40q-1 -62 -11 -91l-291 -756q-20 -14 -47 -33.5t-35 -27.5q-12 -16 -14 -19.5t-6 -11.5q-4 -10 -4 -14q0 -2 -2 -15zM143 287v6q0 6 2 10t7 10l4 6q6 6 17 15.5t24.5 18.5t27 17.5t19.5 12.5l295 768 q8 25 11 67t3 85q0 45 -2 82.5t0 52.5l47 32q2 -6 9 -20t16.5 -29.5t18.5 -29t13 -17.5l5 -1q6 -1 10 -1t11 1l7 1l119 64q53 27 105.5 42t104.5 24t104.5 15.5t107.5 14.5q10 -29 8 -49.5t-12 -48.5q-8 -20 -26.5 -29.5t-43.5 -17t-54.5 -18.5t-61 -37.5t-64.5 -75 t-64 -125.5l-10 -27q-8 -20 -15 -43t-16 -43l-10 -29q31 12 70 34t76.5 43.5t74.5 36.5t66 15q20 0 43.5 -30.5t41.5 -72.5t26 -86q3 -20 4 -36q0 -19 -5 -33l-184 -479q-2 -2 -13 -18.5t-27.5 -41t-26.5 -36.5l-35 -40t-23 -24l-532 -223q-2 -1 -5 -1q-15 1 -51 29 q-42 34 -87.5 82t-83 98t-46.5 79zM627 383l39 -64l198 519q-16 0 -42.5 -9.5t-35.5 -29.5z" />
<glyph unicode="c" horiz-adv-x="1036" d="M98 284q2 -36 15.5 -72t35 -71t48.5 -65l6 -8q20 -35 48 -66t56.5 -53.5t58 -35.5t56.5 -13q4 0 13 1t16 1h12q18 8 57 28.5t89 47t104.5 56t103.5 56.5q45 25 81 43.5t52 28.5q8 6 17 8q23 12 38 21.5t26 19.5t19.5 24.5t16.5 38.5q8 18 10 36t-6 30l-37 55 q0 20 -11 33.5t-40 13.5t-51.5 -5t-44.5 -11q-4 -2 -8 -2q-2 0 -7 -2q-20 -6 -40.5 -10t-36.5 -4q-23 0 -54.5 7t-58.5 21l123 320q2 -6 10 -8l29 -46q19 -36 63 -36h2q25 0 82.5 16t120 43t114.5 62.5t68 76.5q4 10 5 13.5t4 11.5q-4 10 -9.5 47t-9.5 80t-8 82t-4 53l-6 6 q-2 4 -2 10t-2 15q-4 18 -9.5 39.5t-15.5 38.5l-4 4l-19 26q-8 29 -21 54.5t-44 25.5q-2 0 -4 -1t-4 -1h-15q-31 -10 -101.5 -32.5t-149 -47t-149.5 -47t-101 -31.5q-31 -12 -71 -29.5t-77 -42t-67.5 -54t-42.5 -62.5l-258 -670q-11 -29 -11 -61v-7zM135 352l258 670 q10 29 36 53.5t58.5 45t65.5 35.5t59 26q20 6 60.5 18t90.5 27.5t104.5 33t103.5 33t89 28.5t60 19q4 0 9.5 1t9.5 1q18 0 28.5 -19t16.5 -43t9 -44t9 -23q0 -14 4 -52t8.5 -80t9.5 -77.5t7 -46.5l-1 -6t-3 -10q-14 -37 -63.5 -68.5t-108 -56t-111.5 -39t-76 -14.5 q-33 0 -49 24.5t-22 57.5t-7.5 64.5t-5.5 47.5l-172 -446q-12 -33 3.5 -57.5t45 -41t64.5 -24.5t59 -8q49 0 96.5 17.5t92.5 17.5q29 0 33 -20.5t-7 -43.5q-8 -20 -15 -32.5t-17.5 -21.5t-26.5 -18.5t-43 -23.5q-29 -14 -96.5 -51t-144 -79t-145.5 -78t-95 -48 q-2 0 -13.5 -1t-19.5 -1q-43 0 -94 36t-92 89t-61 115q-10 31 -11 60q0 28 10 54zM1231 1266l2 -2q0 2 -2 2z" />
<glyph unicode="d" horiz-adv-x="1032" d="M72 256q-2 -4 9 -20.5t32 -38.5l18 -31q12 -23 54 -66t90.5 -88t91.5 -77.5t57 -32.5t64.5 19.5t118 49t142 67.5t139 76t110.5 71.5t55 56.5l221 575q9 21 9 47q0 22 -7 50q-14 58 -41 100l-12 20q-10 29 -24.5 54.5t-31.5 41.5h4q-10 8 -35.5 24.5t-58.5 37t-69.5 43 t-69.5 43.5l2 2q35 18 71 49t60 96l-43 72l4 12q-80 0 -159.5 -9t-149.5 -38.5t-126 -85t-91 -147.5q-25 -65 -25 -118q1 -26 7 -50q18 -70 69 -125h-147l-220 -571q-14 -10 -32.5 -22.5t-36 -28t-30.5 -31t-19 -27.5zM98 256q4 10 18.5 24.5t32 28t36 25.5t28.5 18l213 557 h209q-35 29 -63 62t-44 71q-17 40 -17 89q0 46 21 98q33 82 82.5 132t110.5 77.5t130 36t140 8.5q-14 -37 -39.5 -59.5t-52 -38t-48 -29t-30.5 -31.5q0 -2 -1 -7t-1 -7q18 -10 63.5 -37t94.5 -57.5t92 -58.5t60 -40q16 -10 33.5 -36.5t29.5 -60.5t15 -67.5t-5 -58.5 l-221 -576q-8 -20 -51 -51.5t-105.5 -67.5t-134 -71t-136 -63.5t-113 -47t-62.5 -18.5q-10 0 -35.5 17.5t-58.5 44t-67 58.5t-62.5 60.5t-46 49t-15.5 26.5zM594 383l41 -64l184 480l-41 63z" />
<glyph unicode="e" horiz-adv-x="1069" d="M117 326q0 -47 13 -94.5t38 -91.5t57 -79l6 -8q41 -66 100.5 -109.5t125.5 -43.5q23 0 78 23.5t125.5 60t145.5 82t139.5 88.5t109.5 79.5t51 55.5q14 35 4 51l-39 59q2 45 -67 45q-29 0 -57.5 -6t-57.5 -14q-20 -6 -43 -11t-51 -5q-27 0 -58.5 8t-54.5 24l2 9 q23 55 97.5 90.5t164.5 68.5q53 18 106.5 40t98.5 47.5t80 59t53 81.5q4 8 6 19t6 19l4 11l-92 364l-32 51l-7 29q-6 8 -8 9t-12 5l-12 7q-8 4 -14.5 9t-12.5 9h-29q-31 0 -92 -16.5t-137 -45t-158 -66.5t-151.5 -80t-121.5 -86t-67 -83l-221 -575q-16 -43 -16 -90zM148 280 q-5 25 -4 49q0 45 16 87l221 575q14 37 62.5 78t116 80t144 73.5t149.5 61.5t131 42t87 15h19q10 -8 30.5 -18t22.5 -12l88 -353q-2 -2 -7 -18t-10 -27q-20 -53 -67 -89t-107.5 -63.5t-128 -50t-127 -48t-105.5 -58.5t-63 -78q-12 -35 1.5 -61.5t41 -45t62.5 -28.5t63 -10 q29 0 54.5 6t50 12.5t50.5 12.5t54 6q29 0 42.5 -11.5t2.5 -39.5q-8 -18 -50 -52t-103.5 -75t-133 -84t-139 -78t-120 -57.5t-74.5 -22.5q-63 0 -120.5 42t-96.5 105t-53 135zM666 735l17 7q17 6 38.5 15t41 20t23.5 22q0 2 -2 26.5t-6 36.5q-4 4 -8 18.5t-8 30t-7 29.5 t-3 18z" />
<glyph unicode="f" horiz-adv-x="880" d="M72 215q2 -27 12 -41q8 -23 35 -47l14 -25l6 -6q14 -25 45 -57.5t63 -63t57.5 -52t27.5 -21.5h71l414 299l37 100l-43 72l4 12q-47 0 -73.5 -7t-49.5 -16q-2 -2 -4 -2l125 328q2 4 7 7t9 5q8 0 13.5 1t13.5 4q20 4 48 9t56.5 9t54 7t38.5 3q4 8 11 26.5t13 31.5 q4 12 9.5 23t9.5 17q22 57 22 92q0 21 -8 33v2l-20 29q104 14 147 129q16 44 16 80v8q-2 39 -20 74l-10 10l4 -6l-4 12q47 27 74.5 68t50.5 94l-45 72l6 12q-98 0 -174 -2t-146.5 -14.5t-143.5 -39t-167 -75.5q-31 70 -137 70q-23 -59 -30 -106.5t-7 -88.5q0 -4 -1 -6t-1 -6 q-2 -35 -5 -69t-18 -73q-12 -31 -33.5 -58.5t-44.5 -51.5q-27 -29 -48 -59.5t-36 -65.5q-14 -35 -14 -57v-6q2 -23 29 -46l6 -8l-164 -428q-8 -8 -16 -14t-19 -17q-23 -23 -43 -41t-22 -22v-2q-4 -12 -2 -39zM98.5 223.5q-2.5 24.5 1.5 32.5q2 4 16.5 19.5t32 32t33 29.5 t19.5 15l172 447q-35 20 -39 39.5t10 56.5q12 33 33.5 60.5t45 55t46.5 56.5t37 63q16 43 20 83t5 79t5.5 78t20.5 82q86 0 102 -78q94 51 165 80t138.5 42t140.5 15t169 2q-18 -47 -48 -81.5t-85 -57.5q33 -37 43 -80q3 -13 3 -27q0 -33 -16 -73q-43 -111 -155 -111 q-35 0 -60.5 3.5t-42.5 31.5l-24 -63q55 -4 91 -9.5t52.5 -19.5t15 -41t-19.5 -76q-2 -6 -6 -16l-9 -22.5t-10.5 -22.5t-7.5 -17q-10 0 -38.5 -4t-60.5 -10t-62.5 -11t-43.5 -7q-10 -2 -25 -13.5t-18 -19.5l-159 -414q-2 -4 4 -17t14 -16h19q37 0 73.5 19.5t81.5 19.5 l-26 -71l-398 -287h-63q-2 0 -26.5 21.5t-55.5 52t-59.5 63.5t-40.5 56q-8 6 -10.5 30.5zM606 352l6 -12q-4 2 -5 6t-1 6z" />
<glyph unicode="g" horiz-adv-x="1069" d="M14 -40q9 -44 43 -73l27 -43q18 -29 50 -46t72 -26.5t86 -12.5t89 -3q90 0 191.5 22.5t194.5 71t170 123t118 181.5q12 35 18 63.5t5 55t-9 56t-20 66.5l190 498q10 8 24.5 22.5t30 28.5t28.5 27.5t19 19.5q4 8 5.5 10.5t5.5 10.5l4 10q-2 29 -13 41l-30 49q0 12 -5 20.5 t-8 14.5l-10 16q-16 12 -55 44t-83 68t-82 68.5t-52 45.5h-12q-4 0 -6.5 1t-6.5 1h-12q-16 0 -65.5 -18.5t-113 -47.5t-133 -63.5t-129 -65.5t-99.5 -56.5t-44 -33.5l-231 -606q-15 -37 -15 -74q0 -18 3 -36q12 -56 49 -87l20 -35q-80 -10 -119.5 -57t-72.5 -135 q-20 -53 -20 -91q0 -14 3 -25zM47 -42q-8 17 -8 40q0 33 18 78q16 43 34 75.5t41.5 53t56 31t79.5 10.5q57 0 88 -21.5t40 -57.5q5 -18 5 -38.5t-5 -42.5q-9 -45 -27 -94q27 0 64.5 4t73.5 16.5t66.5 37t47.5 65.5q4 8 6 17t6 15q-4 14 -8 51.5t-8.5 78l-8.5 76.5t-6 50h-16 h-15q-61 -23 -99 -41t-65.5 -31.5t-53 -20.5t-64.5 -7q-33 0 -57.5 18.5t-37 46t-13.5 62.5v5q0 33 12 65l231 606q4 8 41 30.5t92 51.5t120.5 60.5t125 57t105.5 42t63 16.5q8 0 18 -1t12 -1q14 -12 51.5 -44t80.5 -68t80.5 -67.5t54.5 -43.5q4 -8 12 -16.5t6 -16.5l-1 -6 t-3 -10.5t-5 -10.5l-3 -6q-6 -6 -20.5 -19.5t-30 -28.5t-29.5 -28.5t-20 -17.5l-195 -512q12 -37 20.5 -66.5t9.5 -55.5t-5.5 -53.5t-18.5 -60.5q-39 -100 -111.5 -171.5t-161.5 -116.5t-186.5 -66.5t-183.5 -21.5q-61 0 -123.5 7t-107.5 29.5t-64 66.5zM408 213 q18 4 34.5 13.5t38.5 19.5q18 8 44 21.5t57 25.5q0 -4 4 -12q2 -47 7 -87t9 -57l-6 -14q-2 -4 -1 -5t-1 -3q-14 -39 -50 -58.5t-77 -29.5q4 31 1 58.5t-15 47.5l-31 51q-4 8 -7 15.5t-7 13.5zM565 555q16 0 43 9t35 30l160 416l-51 32z" />
<glyph unicode="h" horiz-adv-x="1052" d="M154 360q-7 -18 -7 -37q0 -24 11 -50q20 -46 55 -83l16 -26q14 -25 35 -46.5t41.5 -38t38.5 -25.5t31 -9q20 0 50 10.5t60 26.5q-31 -59 -66.5 -86t-82.5 -55q-4 -4 -8 -5.5t-9 -5.5q-31 -18 -65.5 -41.5t-79.5 -58.5l-10 -23q0 -37 26 -49l35 -57q10 -16 30.5 -19.5 t43.5 -3.5h10q84 0 183.5 41t194.5 106.5t177 146.5t129 161q6 14 23.5 50t40 84t48 103.5t50.5 107.5t44.5 97.5t29.5 71.5q4 10 11 43t13 68q2 16 7.5 36.5t8.5 37t5 25.5t0 7l-41 64l41 -64v39t-3 70t-11.5 78t-22.5 63l-20 31l-5 4q-10 33 -23 54.5t-36 21.5 q-20 0 -41 -13l-137 -73q18 41 38.5 75.5t51.5 62.5t74 46t104 27q2 4 7 15t7 15v4q4 10 5.5 13.5t3.5 13.5q0 16 -11 31l-30 47l2 4q-2 14 -10.5 26.5t-14.5 22.5l-6 6h-96q-4 0 -8.5 1t-8.5 1h-24q-59 0 -107.5 -5t-92.5 -20.5t-91 -42t-104 -69.5q-2 2 0 4 q-14 29 -37 48.5t-84 19.5q-35 -95 -45 -187q-5 -45 -6 -83q0 -39 6 -70l-271 -701q-39 -18 -51 -38.5t-22 -45.5zM180 360q8 23 20.5 40.5t49.5 29.5l278 727q-6 37 -7 83q0 28 3 58q6 82 35 160q43 0 57.5 -26.5t32.5 -55.5q61 45 107.5 74t91.5 45t92 22.5t109 6.5h24 q20 0 37.5 -1t38.5 -1h29q16 -16 18 -37l-1 -9q-1 -8 -5 -14q0 -2 -3 -7t-5 -9q-72 -10 -119 -36t-80 -63.5t-55.5 -86t-42.5 -103.5q-8 -20 -19.5 -58t-17.5 -52l272 145q35 18 53.5 -14.5t25.5 -81.5t7 -97v-57q-6 -18 -12 -51t-12 -66.5t-12.5 -62.5t-8.5 -37 q-16 -39 -50 -116t-72 -156.5t-69.5 -147t-41.5 -88.5q-47 -78 -125 -156.5t-170 -141t-188.5 -102.5t-176.5 -40q-29 0 -53.5 4t-24.5 35q68 55 119 83.5t93 56.5t77 69t66 122q2 6 6 20.5t8 30t8 30t6 20.5q-23 -10 -55.5 -27.5t-67 -35t-65.5 -30t-49 -12.5t-50 20.5 t-60 53.5t-44 71q-9 21 -8 40q0 16 6 32zM612 430l41 -4l183 477l-58 -39z" />
<glyph unicode="i" horiz-adv-x="786" d="M170 175q4 -30 15.5 -61.5t29.5 -62.5t39 -51l16 -23q20 -33 44 -55t46 -22q29 0 94.5 31.5t134 76.5t125 92t68.5 78q10 24 10 41q0 13 -6 23l-36 57q0 27 -23 39q10 35 21.5 74t22.5 74.5t20.5 64.5t15.5 43q18 47 44 70.5t54.5 44t49 39t32.5 51.5q4 8 4 10q0 4 -2 20 l-41 66q2 4 1 7t-1 7l-82 131q57 37 112.5 82t80.5 111q11 29 11 58q0 8 -1 17q-4 38 -22 68l-27 41q-14 47 -52 80t-89 33q-37 0 -77 -15.5t-76 -41t-64.5 -59.5t-43.5 -73q-6 -18 -11 -46.5t-7 -60.5t2 -62.5t16 -53.5l-284 -205q-10 -8 -13.5 -14t-5.5 -10q-6 -16 -1 -42 t16 -36q6 -6 10 -8l35 -55l-201 -525q-8 -18 -4 -48zM201 223l221 576q-10 0 -37 12t-31 20q-10 10 -14 33t6 31l309 223q-18 12 -24 41t-6 62q0 35 6 67.5t14 52.5q12 33 37 63t55.5 51.5t64.5 34.5t66 13q35 0 64 -17.5t46 -45.5q18 -27 22 -62q1 -9 1 -18q0 -25 -10 -49 q-27 -66 -87 -111t-120 -82l138 -223v-6q0 -6 -4 -12q-10 -29 -33 -47.5t-49.5 -38t-52 -46t-44.5 -73.5q-8 -20 -23.5 -70.5t-32.5 -107t-30.5 -106.5t-15.5 -69q18 3 33 3q52 0 52 -36q0 -13 -7 -30q-10 -29 -62.5 -73t-117 -85t-126 -70.5t-87.5 -29.5q-25 0 -49.5 26.5 t-43 63.5t-27.5 75t-1 60z" />
<glyph unicode="j" horiz-adv-x="1052" d="M98 328q-1 -11 -1 -22q0 -26 7 -52q9 -37 26 -73t38.5 -68.5t44.5 -59.5q16 -27 34.5 -48t35.5 -42q-6 -10 -13 -24h13l45 -72q45 0 126 23.5t174 62.5t189 89t170 103q14 51 28.5 100.5t31 99.5t35 102.5t40.5 111.5l133 348q14 12 34 31.5t38 38.5q10 10 19.5 20.5 t15.5 14.5l2 6q2 2 6 12v2v2q-4 23 -29 62l-10 18l4 10l-8 -6l-2 4q-4 20 -18.5 45t-34.5 52q-4 4 -6 8q10 8 25.5 18t31.5 25q29 23 60.5 48t41.5 34q8 14 10.5 19t8.5 22q13 33 13 74v6q-1 45 -21 75l-27 43q-8 33 -27.5 55.5t-54.5 22.5q-20 0 -57 -13.5t-75 -35 t-70.5 -50t-45.5 -59.5l-2 -8q-4 -8 -7 -31.5t-5 -53t-4 -60.5t-2 -53l-207 -158q-10 -6 -19.5 -23.5t-13.5 -27.5q-10 -31 -11 -56.5t23 -35.5l15 -19l-238 -616l-360 92q-8 -20 -13.5 -26.5t-9.5 -8.5q-12 -8 -16 -10l-90 -41l-2 -4h-2q-8 -23 -10.5 -31t-4.5 -12h-2z M127 328l1 4l3 12q12 0 15.5 2t1 5t-5.5 5l-3 2l76 35q10 8 27.5 18.5t19.5 14.5l361 -92l266 696q-43 -6 -48 15.5t5 50.5q4 8 9 19t9 13l226 172q-2 8 -3 37q0 31 3.5 65t6.5 62.5t7 38.5q6 27 33.5 52.5t61.5 45t66.5 30.5t51.5 11q27 0 43 -18t22.5 -44t4 -55.5 t-10.5 -54.5q-4 -10 -10 -21l-6 -11q-10 -8 -36 -27.5t-53.5 -42t-52 -42t-32.5 -26.5q-2 -4 17.5 -33.5t42 -64.5t41 -63.5t16.5 -28.5q0 -2 -5 -8l-4 -6q-6 -6 -20 -21.5t-30.5 -32t-31 -30t-22.5 -19.5l-29 -73l-82 -215l-26 -68q-43 -113 -73 -207t-58 -199 q-72 -51 -161 -99t-176 -85t-162 -59.5t-116 -22.5q8 12 12 15h-8q-10 18 -42.5 56t-65.5 86t-57 102q-20 44 -20 85q0 9 1 19zM166 129l8 -14zM336 -111l2 2l6 -10z" />
<glyph unicode="k" horiz-adv-x="1079" d="M113 360q10 27 45 50.5t75 40.5l271 704q-2 22 -2 47q0 46 7 106q11 92 46 181q53 0 78.5 -19.5t40.5 -46.5q57 39 103 66t91 42t91.5 21.5t103.5 6.5h6q4 0 7 -1.5t7 -1.5q8 -2 19 -2h20t16.5 -1t12.5 -1h41q10 -4 21.5 -19t15.5 -32l-2 -6l35 -51q4 -6 6 -11.5t2 -11.5 q-4 -14 -4 -18q0 -2 -4 -10l-5 -9q0 -4 -5 -15t-7 -15q-59 -8 -102 -26.5t-73 -44.5t-51.5 -60.5t-37.5 -73.5l131 70v-2q57 32 123 32h4q45 0 81 -19.5t46 -66.5l2 -2l29 -45q12 -18 14 -41l-399 -254q35 -14 74.5 -31.5t87.5 -37.5q20 -12 24 -45l33 -54q14 -18 10 -52 t-20 -75q-20 -53 -55.5 -116.5t-72 -121t-67.5 -101.5t-45 -58h2q-78 -80 -161 -155.5t-168 -138t-171 -104.5t-170 -53h-20q-20 0 -37.5 5.5t-28.5 19.5l-34 57q-14 6 -21.5 21.5t-1.5 40.5l217 223h-8q-16 0 -43 11.5t-55.5 32t-55 45t-43.5 52.5l-18 31q-34 35 -50 72 q-9 19 -8 38q0 17 7 33zM139 360q-6 -14 -5 -28q0 -22 12 -44q22 -38 57 -71t74.5 -53.5t62.5 -20.5q51 0 99 7.5t114 29.5l-358 -364q-4 -31 23.5 -36t51.5 -3q80 10 163 51t166 101.5t164 135t159 152.5q12 12 39.5 51t61.5 92.5t67.5 114t55 112.5t27 91t-19.5 49 q-104 47 -175 77t-122 46l481 307q-4 31 -29.5 46.5t-59.5 18.5q-10 1 -19 1q-23 1 -49 -5q-34 -8 -60 -22l-272 -143l8 18q6 16 11 33.5t12 34.5l10 24q20 55 42.5 103.5t54.5 86.5t79 62.5t119 34.5q4 12 10 20q0 2 2 12l2 9q-2 10 -8 21.5t-14 13.5q-8 0 -24.5 1t-39.5 1 q-20 0 -35.5 2t-23.5 2q-59 0 -106.5 -6t-91.5 -23.5t-92 -46.5t-110 -72q-8 29 -24.5 53.5t-57.5 24.5q-29 -74 -36 -156q-4 -41 -3.5 -77t3.5 -66l-281 -729q-35 -12 -71 -31.5t-44 -42.5zM522 262l172 430q14 -41 14 -81q0 -17 -3 -35q-9 -58 -31 -113l-27 -68 q-10 -23 -38.5 -60.5t-86.5 -72.5z" />
<glyph unicode="l" horiz-adv-x="784" d="M82 244q4 -21 13 -41.5t20.5 -38t19.5 -25.5q4 -4 9.5 -13t15.5 -20l8 -12q14 -25 20 -31q8 -12 28 -35.5t41.5 -49t40.5 -48t28 -30.5q4 0 16 5t26.5 11l29 12t22.5 11l340 196l6 12q4 6 8 15.5t6 15.5q9 25 9 42q0 13 -5 22l-34 55q2 39 -39 45l354 922q2 6 11 9t20 7 q16 4 35.5 12t41 25.5t43 50.5t41.5 86l-45 72l5 12q-115 0 -213.5 -31.5t-176.5 -62.5q-47 -18 -84.5 -31.5t-58.5 -13.5h-4l-70 61l-4 -2q-6 2 -16 4t-21.5 4t-19.5 4.5t-10 2.5l-17 -46q-2 -4 -2 -6t-2 -6l-4 -12l-4 -94q-6 -29 -10 -55.5t-6 -41.5v-12q-2 -10 -2 -20 l-314 -820q-27 -16 -51.5 -34.5t-34.5 -28.5l-6 -8l-2 -8q-6 -16 -2 -37zM109 254q-4 21 4 33q6 6 17 16t24.5 20.5t27 18.5t19.5 10l317 830q2 4 4 18t4 33.5t5.5 40t7.5 37.5l2 94q4 8 7 21.5t7 19.5q2 0 16.5 -3t14.5 -5l73 -64l5 -1q4 -1 10 -1q31 0 86 21.5t123.5 48 t145.5 48t151 21.5q-25 -66 -52.5 -91t-54 -34.5t-47 -14.5t-31.5 -30l-395 -1034q25 0 49.5 4t43 3t25.5 -13t-5 -45q-4 -8 -10.5 -19.5t-6.5 -13.5l-329 -190q-6 -4 -17.5 -9.5t-24 -10.5l-22.5 -9t-12 -4q-6 8 -25.5 29.5t-41 47t-40 49.5t-24.5 34q-6 2 -17.5 17.5 t-20.5 35.5t-13 41z" />
<glyph unicode="m" horiz-adv-x="1679" d="M125 225q2 -16 14.5 -45.5t22.5 -46.5q2 -2 1 -3t3 -1q0 -6 6 -6l29 -47q4 -6 8 -12.5t8 -10.5q14 -23 28.5 -44t26.5 -34q16 -23 28.5 -42t23.5 -29q10 -4 12 -4h10q37 0 76 23.5t80 56.5q39 29 76.5 54t72.5 25q4 0 6 -1t7 -1q14 -51 45 -71l28 -45q10 -18 26.5 -29.5 t45.5 -11.5q27 0 69 16t86 44t86 63.5t70 72.5q27 -59 62 -94l16 -25q20 -35 44 -56t42 -21q31 0 91.5 30.5t123 73.5t112.5 88t60 76q2 4 2 6q0 4 2 23q-4 12 -14 36.5t-19 38.5l228 594q16 16 37.5 43t27.5 41l19 45l-5 12.5t-5 8.5l-5 8q-4 6 -8 23l-24 36q0 6 -1 8.5 t-3 6.5t-6.5 12t-6.5 18q-12 16 -25.5 38t-27.5 48l-12 19q-23 37 -42.5 70.5t-41.5 52.5h-2q2 0 -4 6h-27l4 2l-4 -2q-29 -18 -47.5 -29.5t-34.5 -23.5q-29 -20 -62.5 -45t-66.5 -46.5t-60.5 -36t-41.5 -16.5l-45 101l-17 28l-28 58q-10 8 -12.5 9t-12.5 1q-12 0 -16 -1 t-14.5 -5t-32 -15.5t-49 -27t-58.5 -34.5t-61 -38q-16 -8 -23 -12q-25 -16 -48.5 -29.5t-39.5 -23.5l-41 96l-16 28l-27 56h-86q-70 -47 -111 -76t-67.5 -47.5t-47 -33.5t-48.5 -38q-10 -6 -16.5 -11t-15.5 -13.5t-25.5 -20.5t-43.5 -37q-12 -14 -16 -26q-10 -31 0 -57.5 t31 -45.5l18 -26l-221 -576q-4 -6 -10.5 -13t-12.5 -16q-4 -4 -6 -7t-6 -7q0 -2 -2 -4t-2 -4q-4 -4 -10 -9t-11 -12zM154 231l6 15l8 20q10 10 29.5 38t31.5 38l234 608q-10 0 -24.5 10.5t-25 28t-13.5 38t12 40.5q2 2 17 15.5t37.5 32t37.5 28.5q29 23 74 54.5t87 61 t73 49.5l30 21h63l89 -186q0 -6 43 19.5t99 60t109.5 67.5t75.5 39l7 3q8 3 16 3q2 0 6 -3l4 -3l88 -186l3 -2q3 -2 11 -2q23 0 69 25.5t94 59t90 64.5t59 41l7 3q7 3 13 3q2 0 6 -3t6 -3q10 -10 30 -43t41.5 -69.5t39.5 -68.5t27 -42q4 -10 11 -23.5t7 -15.5l-8 -20l-6 -17 q-4 -6 -12.5 -18.5t-17.5 -24.5t-18.5 -22.5t-15.5 -14.5l-233 -608q6 -10 18.5 -36.5t16.5 -39.5l-1 -9q-1 -9 -1 -11q-10 -29 -57.5 -71t-105 -81t-112.5 -67.5t-84 -28.5q-18 0 -42.5 25.5t-44.5 61.5t-30 76q-5 19 -4 35q0 19 6 35l273 707q-8 0 -18.5 6t-26.5 6 q-33 0 -47 -37l-219 -571q10 -33 8 -57.5t-15 -53.5q-16 -41 -56 -81.5t-87 -74.5t-94 -55.5t-78 -21.5q-35 0 -51.5 24.5t-28.5 55.5t-27.5 55.5t-50.5 24.5q-41 0 -80.5 -24.5t-78.5 -55.5t-76 -55.5t-70 -24.5q-6 0 -11 1l-5 1q-8 8 -30.5 43t-47.5 72q-6 16 -13 24 t-12 13q-8 14 -20 39.5t-14 39.5zM645 342h64l249 649l-79 -41z" />
<glyph unicode="n" horiz-adv-x="1423" d="M113 279q-10 -25 1 -52.5t23 -44.5l39 -53l6 -6q2 -10 15 -19l2 -6l153 -196h43q4 0 44 22.5t93.5 53t110.5 64.5t94 56l11 6q10 -25 26.5 -49t34.5 -43l12 -18q25 -41 57.5 -70.5t55.5 -29.5q10 0 29 6q2 0 8 1l6 1l334 196q16 8 28 17q20 12 36 21t26 18.5t17 22.5 t14 32q8 18 8 34q0 18 -10 33l-35 52q0 16 -6 28l196 514q12 8 29.5 22.5t33 31t27 31t15.5 22.5q4 10 0 18l-41 64q4 6 -2 18l-7 8q-6 10 -15 26.5t-19 27.5l-95 98q-2 2 -10 15.5t-19.5 30.5t-21.5 34.5t-16 30.5q-4 4 -4 6q0 4 -4 8l-4 6q-8 2 -11 2h-12q-57 0 -135 -44 t-156 -97q-23 -16 -50.5 -33.5t-53.5 -32.5q-4 12 -11.5 24.5t-11.5 26.5l-16 27q-20 49 -54 88t-90 39h-22q-49 -20 -106.5 -54t-112.5 -72t-106.5 -77t-88.5 -69l-6 -17q0 -4 -2 -6t-4 -6l-4 -12q-14 -35 -8 -52.5t20 -25.5l37 -57q2 -10 23 -19l-195 -506q-4 -2 -7 -4 t-7 -6q-12 -10 -30.5 -22.5t-36 -24.5t-32 -24.5t-20.5 -18.5l-4 -6q0 -2 -2 -3t-2 -3zM138 263.5q-1 13.5 7 23.5q4 6 23.5 20.5t41 29.5t42 28.5t27.5 17.5l221 575q8 25 -10.5 29t-42 7t-40 13.5t-1.5 47.5q4 8 8 18t4 12q35 29 83 66t100 73t104.5 67.5t99.5 49.5h16 q39 0 65.5 -23.5t44 -58t28 -73.5t16.5 -68q43 18 99 56t114.5 75t114 65.5t96.5 28.5q2 0 7 -1l5 -1q2 -2 12.5 -21.5t23.5 -43t25.5 -41.5t18.5 -21l92 -96q12 -12 24.5 -36.5t14.5 -26.5q-4 -8 -16.5 -22.5t-27.5 -30t-30.5 -27.5t-25.5 -17l-222 -575q32 -13 56 -33 q14 -12 14 -32q0 -14 -6 -31q-6 -18 -14.5 -29.5t-19.5 -21t-28.5 -18.5t-44.5 -25l-327 -193q-4 0 -16.5 -4t-20.5 -4q-18 0 -45 21.5t-48.5 53t-33.5 66.5t-2 60l295 765l-37 33l-43 -33l-246 -639q4 -8 6 -31.5t0 -31.5l-6 -18l-6 -15l-43 -30q-37 -23 -92 -56 t-107.5 -63.5t-90.5 -52t-40 -21.5h-32l-150 193q-6 6 -14 17t-13.5 25.5t-6.5 28z" />
<glyph unicode="o" d="M94 307q-10 -25 5.5 -58.5t47.5 -68.5l17 -28q25 -41 73 -85t101 -81t104.5 -61.5t85.5 -24.5h15q4 0 20 2q14 4 56.5 30.5t82.5 53.5q25 16 45.5 28.5t28.5 16.5h2q53 25 97.5 43t78.5 35q63 27 107.5 46t77 41.5t58.5 53.5t50.5 78t51 114.5t65.5 165.5l18 47 q6 16 12.5 35t12.5 37l49 127q6 42 5 87q0 36 -3 74q-8 85 -49 150l-18 27q-18 53 -52 92t-88 55q-10 -6 -43.5 -21t-70.5 -30.5t-70 -29t-41 -15.5q-41 -16 -123 -33.5t-172 -33.5q-53 -10 -102 -21.5t-89 -23t-65.5 -22.5t-32.5 -24l-260 -682q-33 -8 -51 -26.5t-29 -46.5 zM121 307l8 23q10 23 26.5 38t45.5 15l268 702q2 6 37 15.5t87 21t115.5 23.5t123 24.5t109.5 23.5t77 21q8 2 41 15.5t70.5 29t71.5 31t44 21.5q51 -16 82 -58.5t46.5 -96.5t17.5 -114v-27q0 -46 -5 -89l-20 -49q-14 -35 -26.5 -72t-26.5 -72l-17 -47 q-45 -115 -74.5 -188.5t-58 -119.5t-61.5 -72.5t-81 -50.5t-119 -52.5t-175 -75.5q-8 -4 -39 -23.5t-66.5 -42t-66.5 -41t-37 -20.5l-10 -1t-19 -1q-41 0 -108.5 36t-130 85t-102.5 101q-30 40 -30 70q0 9 3 17zM678 416q-8 -20 10.5 -29.5t38.5 -9.5l199 518q8 20 -2.5 51 t-24.5 45z" />
<glyph unicode="p" horiz-adv-x="1040" d="M119 346q0 -25 22 -35l39 -57q10 -18 41 -18q12 0 21 2q-18 -63 -38 -135t-28 -137q-4 -34 -4 -64q0 -26 3 -50q7 -49 40 -65l31 -49q16 -29 49 -29q41 0 56.5 13.5t35.5 50.5q10 18 39 59q4 6 19.5 35t37.5 63q16 27 35 56.5t34 55.5t27.5 45t16.5 28h-2q8 4 64.5 32.5 t132.5 63.5q55 27 111 54.5t103.5 53t79 47t37.5 35.5l230 594q4 10 4 35q0 27 -5 56.5t-13.5 59.5t-20.5 52l-27 37q-10 33 -24.5 55.5t-36.5 22.5q-18 0 -50 -13.5t-70 -32t-76 -40t-66 -37.5q-4 10 -8.5 17.5t-8.5 17.5l-16 22q-4 12 -10 24.5t-11 22.5l60 47q6 31 -4 43 l-35 58q0 31 -21.5 39t-44.5 8h-34q-119 0 -198 -69.5t-126 -192.5q-23 -57 -28 -102.5t-5 -86.5q0 -4 -1 -7t-1 -7q-4 -37 -8 -76t-27 -92q-23 -59 -62.5 -106.5t-80.5 -94.5q-4 -4 -11 -12t-12 -12q-39 -41 -72.5 -85t-56.5 -102l-14 -38q-12 -33 -12 -60zM150 355.5 q-3 21.5 8 50.5l14 38q23 59 62.5 107.5t83.5 94.5t84 96.5t65 113.5q23 57 29 102.5t8 86t6 83.5t27 99q43 111 112.5 173t173.5 62q12 0 27.5 1t29 -2t20.5 -10t5 -26l-90 -71q53 -29 79 -87.5t32 -123.5q2 0 40 22.5t87 49t97 49t69 22.5q23 0 37 -28.5t21 -65.5t8 -72 t-3 -47l-227 -594q-4 -12 -44 -34.5t-96.5 -51t-121 -60.5t-122 -58.5t-97 -47t-44.5 -28.5q-8 -12 -33.5 -55.5t-55 -90.5t-53 -88t-30.5 -49q-23 -33 -34 -53.5t-19 -32.5t-18.5 -17.5t-30.5 -5.5q-35 0 -46 34q-9 27 -9 65q0 11 1 22q3 54 17 119.5t31.5 128t35 115.5 t25.5 82q-6 0 -15 2t-15 2q-29 0 -51.5 -21.5t-47.5 -21.5q-29 0 -32 21.5zM737 651l37 -69l150 387l-21 35l-43 -35z" />
<glyph unicode="q" horiz-adv-x="1042" d="M165 322q7 -56 46 -86l29 -46q33 -55 120 -55q41 0 76 21.5t70 50.5q16 16 35 26q-10 -59 -17.5 -128.5t-7.5 -133.5q0 -63 9.5 -110t33.5 -64l35 -55q12 -23 37 -23q23 0 57.5 37t73.5 93.5t80 124t75.5 131t60.5 112.5t36 68q10 23 31.5 69.5t48 106t55.5 127t55.5 130 t48 114t33.5 79.5q31 12 41 31t21 41l2 6q4 10 4 20q0 24 -19 54l-26 41q-10 39 -51 82t-92.5 80t-101.5 60.5t-77 23.5h-22l-125 -68q-37 -16 -70 -30.5t-61 -26.5q-6 -4 -19 -9l-12 -4l4 2q-94 -41 -152.5 -69.5t-100.5 -71.5t-77 -113.5t-82 -193.5l-22 -55 q-23 -57 -45.5 -127t-33.5 -138q-7 -41 -7 -78q0 -24 3 -46zM194 337q-4 20 -4 43q0 29 6 62q9 58 26.5 117t38 113.5t36.5 93.5q35 92 62.5 153.5t55 101.5t62.5 65.5t83 49t116.5 51t165.5 70.5l121 66h14q29 0 85 -27.5t109.5 -66.5t88.5 -84q25 -33 25 -60q0 -9 -3 -18 q-8 -20 -16.5 -36.5t-42.5 -26.5q-10 -25 -31 -74t-47.5 -112.5t-57 -134.5t-58.5 -133.5t-50.5 -112.5t-32.5 -72q-8 -18 -32.5 -66.5t-58.5 -109t-72 -126t-74.5 -120t-67.5 -90t-49 -35.5q-27 0 -39 34.5t-14 89.5v24q0 45 5 96q7 65 16 125.5t18.5 109t15.5 68.5 q-6 0 -9 1t-5 1q-35 0 -68 -20.5t-63.5 -46.5t-62.5 -46.5t-64 -20.5q-61 0 -91 29t-37 75zM584 588q-8 -20 10 -28.5t39 -8.5l162 420q8 20 -12.5 29.5t-37.5 9.5z" />
<glyph unicode="r" horiz-adv-x="1167" d="M123 311q-4 -14 9 -37.5t36 -52.5l20 -28q23 -37 77 -87.5t111.5 -96.5t104.5 -77.5t58 -31.5h22q6 0 16.5 1t14.5 1q141 84 275 175t263 189l7 15q4 6 7 13t5 11q11 29 11 49q0 13 -5 21l-4 4h2l-35 53q0 45 -53 45q-31 0 -58.5 -12t-56.5 -29q-20 -10 -40.5 -19 t-43.5 -9h-2l144 370l18 -59l23 -41q4 -2 10 -2l43 -70q14 -4 16 -4h10h7q2 0 6 1t6 1q16 2 53 24.5t76 51.5t71.5 56.5t41.5 39.5q8 14 10 20.5t12 28.5q4 10 8 19.5t8 19.5l13 31q41 106 44 189q0 5 1 10q0 77 -43 147l-10 14v-2q2 0 2 -2l-7 9q-10 29 -26.5 58.5 t-40.5 57.5l-320 -231q-4 12 -9 22.5t-9 20.5l-18 26q-10 27 -20.5 46.5t-28 37t-44 35t-67.5 37.5q-10 -6 -40 -25.5t-59 -37.5q-18 -10 -32 -23q-47 -31 -96.5 -62.5t-73.5 -43.5h-4q-18 -12 -25.5 -16.5t-21.5 -14.5q-6 -4 -12.5 -8t-2.5 -2q-43 -27 -68.5 -47.5 t-41.5 -65.5q-14 -37 -6 -57.5t26 -30.5l33 -51q8 -23 43 -33l-152 -395l-166 -119q-8 -6 -13 -11t-9 -16zM157.5 279.5q-16.5 27.5 0.5 39.5l176 127l172 449q8 25 -13.5 34t-48 18t-46 24.5t-5.5 52.5q8 25 20.5 39t30 26.5t41 25.5t56.5 36q18 8 60 35.5t89 58.5t88 58.5 t58 37.5q47 -23 73.5 -42t42 -42.5t26.5 -56.5t30 -82h32l308 223q66 -73 68 -161v-6q0 -86 -46 -201q-4 -14 -12 -32.5t-17 -37.5q-6 -16 -11 -29l-5 -12q-10 -12 -40 -37.5t-64.5 -52.5t-68.5 -47t-48 -23q-2 0 -8 -1t-9 -1q-6 0 -11 1l-5 1l-18 33l-56 191l-43 -31 l-184 -479q-6 -18 4 -25.5t26.5 -9.5t33 -1t22.5 1q29 0 53.5 11t48 23.5t47 24t50.5 11.5q29 0 33 -19.5t-7 -48.5q-4 -8 -10 -18.5t-6 -12.5q-127 -98 -256 -186t-264 -166q-6 0 -22.5 -1t-22.5 -1q-8 0 -41 20.5t-76 52t-90 70.5t-83 75t-52.5 63.5z" />
<glyph unicode="s" horiz-adv-x="993" d="M115 365q2 8 3 11l5 15q12 33 53 63.5t91 57.5t102.5 46.5t89.5 29.5l-158 239l72 189q12 33 39.5 60.5t61.5 51t69 40t65 28.5q18 6 65.5 22.5t108.5 34.5v2q45 14 93.5 31t91.5 31t76.5 26.5t50.5 18.5q4 0 8 2h8q2 0 4 1t4 1q25 0 38 -19.5t20 -43.5l26 -43 q10 -18 15.5 -45t5.5 -50l4 -24q0 -6 2 -22.5t2 -35.5q2 -23 4 -49t5 -53t5 -48.5t6 -33.5l6 -10q-6 -14 -7 -20.5t-3 -10.5h2q-12 -33 -50 -63.5t-84 -55t-95 -43t-86 -28.5l117 -136l-4 -8l45 -71l-91 -220q-12 -33 -39.5 -60.5t-60.5 -50t-66.5 -38.5t-56.5 -27 q-16 -6 -44.5 -15t-66.5 -21.5t-80 -25.5t-81 -26l2 -2q-72 -23 -131.5 -42t-87.5 -29l-8 -2q-4 0 -6.5 -1.5t-4.5 -1.5h-8q-20 0 -39 25l-30 51q-14 8 -23.5 25.5t-16 38t-9.5 41t-3 32.5q-2 2 -2 7q-4 14 -8 49t-8 74.5t-6 76.5t0 54h-2zM143 327q2 -36 7.5 -77t9.5 -77 t8 -48q0 -4 3 -25.5t8 -46t15.5 -44t26.5 -19.5q6 0 9.5 1t9.5 1q18 6 56 18.5t85 27.5t99 32.5t98.5 33t84 27.5t56.5 19q23 10 54.5 26.5t64 36.5t58.5 45t36 53l88 209l-320 373l64 63q2 -18 4 -51t8 -65.5t20.5 -57t45.5 -24.5q20 0 70.5 14t105.5 39t101 56.5t61 68.5 q2 2 4 11l2 9q-6 6 -10.5 41t-7.5 77t-5 80t-4 50q-4 2 -5 23.5t-4 46t-12.5 45t-29.5 20.5q-4 0 -8 -2t-10 -2q-31 -12 -98.5 -35.5t-142.5 -48t-142.5 -47t-96 -33t-60.5 -26t-61.5 -34.5t-54 -44t-35.5 -51l-67 -178l190 -285q-8 14 -35 14q-20 0 -70 -15t-105.5 -40 t-102.5 -56.5t-59 -64.5l-4 -12l-1 -6q-4 -10 -2 -46zM545 514l94 -133l-74 -8q-4 23 -4 63q0 43 -16 78zM631 303h2h2l-4 2v-2z" />
<glyph unicode="t" horiz-adv-x="876" d="M84 281q-1 -11 -1 -22q-1 -36 15 -67q20 -40 56 -75l10 -19q20 -35 50 -62.5t60 -51.5l2 -4q20 -16 38 -32t40 -46l2 -4q23 6 67 25.5t97 48t109.5 62.5t105.5 68.5t83 66.5t44 56q14 35 4 51l-39 60q0 27 -18 36t-47 9h-4l135 348q10 -2 18 -2h21q70 0 124 37t85 117 q10 23 10 43q0 22 -12 39l-2 2q2 0 1 -1t1 -1l-31 51q-4 35 -29.5 52t-60.5 28l119 309l-45 72l4 8l-84 90q-92 -104 -169 -185t-153 -151t-157.5 -134.5t-184.5 -133.5l-8 -17q0 -4 -2 -7t-4 -7l-4 -12q-14 -33 -14 -56q0 -15 6 -26q14 -29 45 -58l4 -6l-164 -428 q-2 -4 -13.5 -9t-25.5 -11t-28.5 -11.5t-22.5 -7.5v-4zM113 287l17 6t38.5 16t41 21.5t23.5 21.5l173 447q-36 29 -52 55q-8 12 -7 29q0 19 9 43q2 8 7.5 19t7.5 13q102 70 182 132.5t152.5 129t144.5 142.5t158 172l57 -64l-150 -385q20 -4 53 -9t61 -18.5t43 -37.5 q8 -12 8 -28q0 -15 -7 -34q-35 -86 -97 -114q-40 -18 -87 -19q-26 0 -55 6l-189 -491q10 0 40 6t58.5 8t46 -8t5.5 -43q-8 -23 -41 -52.5t-79 -61t-98.5 -63.5t-102.5 -57.5t-91 -44t-61 -24.5q-23 29 -59 59.5t-70.5 65.5t-58.5 75q-21 34 -21 74q-1 6 0 13z" />
<glyph unicode="u" horiz-adv-x="1423" d="M129 307q-1 -8 -1 -17q0 -48 28 -96q34 -58 75 -106q27 -43 59 -80t58 -65q10 -12 21.5 -23.5l17.5 -17.5h25q47 0 93 25.5t95 56.5q47 29 91 54t85 25q27 0 43 -16q8 -14 17.5 -26.5t23.5 -22.5l19 -31q16 -29 41.5 -47t66.5 -18q35 0 101.5 28.5t136 71.5t125 90 t69.5 84q10 23 9 37t-5 25l-37 57q0 37 -38 43l192 500q51 35 78 62.5t45 76.5l8 22q2 2 1 4.5t1 4.5l-3 18t-9 16l-29 50q-2 10 -5 17t-15 24l-6 6q-10 12 -33 45q-18 20 -41 49t-44.5 57.5t-37.5 53t-25 36.5q-174 -152 -378 -235q-4 27 -12.5 48t-18.5 42l-25 39 q-14 41 -39.5 68.5t-70.5 27.5q-4 0 -7.5 -1t-5.5 -1h-32q-10 -6 -32 -21.5t-48 -31.5l-11 -8q-18 -10 -32 -23q-47 -31 -96.5 -62.5t-73.5 -43.5h-4q-18 -12 -25.5 -16.5t-21.5 -14.5q-6 -4 -12.5 -8t-2.5 -2q-43 -27 -68.5 -47.5t-41.5 -65.5q-16 -39 -12.5 -57.5 t20.5 -26.5l39 -59q6 -14 22 -17l-170 -442q-4 0 -14 -8l-12 -8q-16 -6 -46 -18.5t-44 -22.5q-10 -16 -11.5 -18.5t-1.5 -6.5q-4 -10 -5 -13t-3 -20zM158 319l1 7q1 6 5 14q0 2 3 7l3 5q6 2 16.5 7.5t22.5 10.5t22.5 9t14.5 4q10 8 27.5 19.5t17.5 13.5l213 555 q-25 0 -50.5 -4t-43 -3t-23.5 13t6 47q8 25 20.5 39t30 26.5t41 25.5t56.5 36q18 8 60 35.5t89 58.5t88 58.5t58 37.5q6 0 16 1t18 1q55 0 80 -44t29 -105q1 -17 1 -35q0 -45 -7 -92q-10 -66 -27 -109q-16 -37 -47 -126t-72 -193q-20 -51 -40.5 -101.5t-36.5 -93.5 q-16 -41 -29.5 -73.5t-20.5 -51.5l18 7q17 6 38.5 15t41 20.5t23.5 21.5l221 575q-4 8 -7 25.5t-5 38t-3 38t-1 25.5l8 17l6 16q100 39 192.5 94.5t178.5 128.5q6 -10 21.5 -31.5t35 -47t41 -52t39.5 -47.5q20 -31 31.5 -45t15.5 -20t5.5 -9.5t3.5 -11.5l-9 -22 q-16 -43 -42.5 -68.5t-75.5 -60.5l-222 -574q-10 -27 9.5 -31t44 -6t41 -12t2.5 -49q-12 -35 -65.5 -78t-118 -83t-127 -66.5t-95.5 -26.5q-45 0 -67.5 25.5t-40 55.5t-39 55.5t-64.5 25.5q-45 0 -92 -25.5t-94 -55.5t-92 -55.5t-86 -25.5h-17q-12 16 -46 50t-68 79t-60 94 q-22 42 -23 83q0 7 1 13z" />
<glyph unicode="v" horiz-adv-x="1228" d="M111 352q-3 -8 -3 -17q0 -21 15 -51q22 -44 63 -94l7 -6q27 -43 70.5 -93t88.5 -92t84 -69.5t56 -27.5l11 4t25.5 10t28.5 12t23 11l163 94q35 20 78 34.5t90 28.5l2 -2q55 16 111.5 34.5t108 46.5t90.5 68t61 95l234 606q2 6 4 21.5t3 32t0 33t-3 22.5q-10 33 -41 80v2 q-2 0 -2 2q-8 23 -28.5 56.5t-42.5 66t-40 55t-20 22.5h-41l-328 -166l-61 97q63 10 116 65.5t80 122.5l-45 72l6 12q-94 0 -189 -9t-180 -42t-154 -98.5t-112 -176.5q-18 -45 -26 -78.5t-9.5 -63.5t7 -59.5t24.5 -64.5l-198 -518q-10 -4 -11 -4l2 2q-27 -10 -64.5 -29.5 t-51.5 -42.5zM137 352q6 8 25.5 19.5t41 21.5t38.5 17l16 6l209 542q-16 35 -24.5 63t-8.5 56q0 29 9 61.5t24 75.5q39 102 101.5 162t139 90.5t161.5 38.5t169 8q-12 -35 -35.5 -64.5t-53 -51t-63.5 -28.5q-13 -3 -25 -3q-21 0 -42 8l144 -235l342 172h32q2 0 18.5 -22.5 t36 -53.5t38 -63.5t24.5 -53.5q2 -4 3 -17.5t0 -28.5t-3 -29.5t-4 -20.5l-233 -606q-29 -74 -94.5 -117t-144.5 -70.5t-157 -49t-131 -52.5l-164 -94q-6 -4 -18 -9.5t-24.5 -10.5l-22.5 -9l-10 -4q-14 0 -45 20.5t-69 53t-77 72.5t-68.5 79t-46 73t-8.5 54zM717 446l41 -63 l235 614q-16 0 -43.5 -9t-36.5 -30z" />
<glyph unicode="w" horiz-adv-x="1589" d="M104 258q-6 -14 4.5 -44t29 -64.5t42 -71.5t45.5 -64q29 -47 59.5 -83.5t47.5 -36.5q6 0 24 6q2 0 6.5 1t14.5 1l262 188q10 2 13 3t7 1q45 0 76 -30.5t60 -65.5q29 -37 62.5 -67.5t88.5 -30.5q16 0 70.5 23.5t128.5 61.5t155.5 85t154.5 95t124 91t63 74l230 598 q8 25 8 59q0 35 -8 73t-21.5 74.5t-29.5 65.5l-15 25q-23 47 -47 80.5t-51 33.5q-47 0 -92 -29.5t-90 -62.5l-8 -6q-35 -25 -61.5 -43t-49.5 -20l-8 4l-19 18q-4 6 -5 13.5t-3 13.5l-24 41q-4 4 -2 6q-12 33 -30 51t-75 18q-76 0 -143.5 -40.5t-147.5 -102.5q-20 43 -53 78 l98 45q10 16 11.5 19.5t3.5 7.5q9 26 9 44q0 14 -5 23l-37 56q0 35 -27.5 44t-58.5 9h-43q-289 0 -418 -336q-35 -90 -38 -150v-10q0 -56 32 -110l-205 -535q-47 -27 -72 -53.5t-43 -73.5zM131 258q18 47 40 68.5t69 44.5l215 559q-34 55 -34 111q0 58 36 149 q119 309 381 309q14 0 37.5 1t42 -4t27.5 -20.5t-3 -48.5q-2 -2 -5 -7l-3 -5l-156 -72q18 -18 42 -36.5t45.5 -41t40 -49t26.5 -59.5q84 66 154.5 113t144.5 47q43 0 58.5 -12.5t23.5 -34t20.5 -50t46.5 -63.5l6 -3q5 -3 7 -3q33 0 70.5 25.5t77.5 55.5t80 55.5t77 25.5 q25 0 49.5 -36t40.5 -85q16 -50 22 -102q2 -16 1 -29q0 -33 -9 -55l-229 -598q-10 -29 -59.5 -71t-119 -87t-148.5 -90t-148.5 -81t-121.5 -58.5t-69 -22.5q-49 0 -80.5 30.5t-60.5 66.5t-62.5 67t-85.5 31q-6 0 -17 -3l-11 -2l-262 -188q-6 0 -18.5 -4t-18.5 -4 q-14 0 -44 34.5t-57.5 81t-46 90.5t-12.5 60zM645 332l68 26l233 609l-55 4zM1122 385.5q4 -8.5 12.5 -13.5t18.5 -6t18 -1l236 614q-16 0 -43 -10.5t-39 -38.5l-201 -522q-6 -14 -2 -22.5z" />
<glyph unicode="x" horiz-adv-x="1103" d="M-33 -137q10 -92 70 -146l18 -30q41 -68 123 -97.5t189 -29.5q68 0 138 11t133.5 42t117 85t88.5 142q19 47 19 79q0 25 -11 42l-33 51q-6 66 -100 72q55 33 115.5 74t110.5 77.5t85 67.5t41 47q2 6 2 8q0 4 2 15h-2q0 12 -10 33l-4 4l-2 2l-25 39l2 4h-2q2 14 -9 31.5 t-22 21.5h-20q-23 0 -40 -6t-36 -13q-4 -2 -6 -2t-6 -2q-18 -8 -35 -12l119 309q-2 -2 2 -2l33 -51q20 -37 86 -37q39 0 82 18.5t81.5 49.5t71.5 70.5t49 82.5q8 25 14 69q6 38 7 80q0 6 -1 13q-1 49 -8.5 96.5t-25.5 75.5l-27 39q-8 35 -25.5 55.5t-39.5 20.5 q-10 0 -14.5 -1t-18.5 -7l-246 -191q-4 8 -7 15.5t-7 15.5l-12 16q-12 27 -26.5 54.5t-34 49t-45 35t-56.5 13.5q-8 0 -13 -1t-30 -5l-373 -291q-10 -8 -13 -12t-7 -15q-8 -20 -4 -46.5t20 -37.5q0 -4 8 -4l29 -47q4 -6 6 -8q2 -6 8 -12h2q16 -8 39 -9h23l-146 -380 q-129 -82 -215 -177.5t-133 -222.5q-45 -117 -45 -201q0 -15 2 -30zM-5 -108q0 8 -1 17q0 78 43 185q47 125 133 217t209 170l164 426q18 45 7 58.5t-36 13.5t-54.5 -5t-49.5 5q-14 6 -15.5 32.5t8.5 35.5l367 284l12 2q11 2 17 2q39 0 67.5 -23.5t49 -57t35 -71.5t24.5 -65 l274 213l5 2q6 2 12 2q33 0 48 -43t19 -100q2 -23 2 -46q0 -34 -4 -68q-6 -58 -16 -87q-16 -41 -45 -76.5t-65 -63.5t-74.5 -44t-73.5 -16q-57 -1 -75 35q-12 24 -12 70q0 21 3 46h-33l-178 -461q-6 -16 -2 -24t12 -11.5t18.5 -4.5t18.5 -1q43 0 83 20.5t79 20.5h14 q8 -2 14.5 -15t4.5 -22v-8q0 -6 -3 -8q-6 -14 -40.5 -45t-84 -67.5t-108.5 -75.5t-112.5 -72t-94.5 -53.5t-57 -20.5q-29 0 -51.5 10.5t-45 23.5t-46 23.5t-56.5 10.5q-66 0 -109.5 -49.5t-68.5 -114.5q-16 -40 -16 -70q1 -16 5 -30q14 -39 47.5 -60.5t78.5 -29t86 -7.5 q4 0 20.5 1t35.5 2t35.5 2t20.5 1q18 49 43 94.5t55.5 80t69.5 55t88 20.5q95 0 95 -71q0 -28 -15 -68q-31 -82 -81 -132t-110.5 -79t-127 -39t-129.5 -10q-92 0 -167 23.5t-118 76t-48 134.5zM180 -137q0 12 4.5 26.5t10.5 30.5q23 59 60.5 101t90.5 42q31 0 52.5 -10 t43.5 -22q18 -12 37 -21.5t41 -13.5q-29 -33 -53.5 -74t-42.5 -88q-8 -2 -16 -2q-6 0 -17 -2q-18 -2 -35 -2h-18q-39 0 -83 7t-75 28zM1057 412l2 -2q0 2 -2 2z" />
<glyph unicode="y" horiz-adv-x="972" d="M115 -305q-6 -25 0 -38t18 -19l37 -60q8 -14 27.5 -17t38.5 -3h30q37 0 93.5 20.5t122 56t133 81.5t126 97.5t103.5 104.5t63 102l338 883v6q4 25 1 55.5t-13 49.5l-4 6h2l-62 123l-8 10l-35 74q-16 4 -20 4h-6h-17q-2 0 -10 -2l-205 -115l-4 -2l-53 -25l-41 82l4 9 q2 6 18.5 15t36.5 19q16 8 36 19.5t40 30.5q2 29 -2 48t-10 29l-35 54q-8 35 -25.5 45t-52.5 10q-68 0 -125 -25.5t-104 -69.5t-84 -103.5t-64 -129.5q-27 -66 -37 -121t-16 -108q-8 -55 -18 -111.5t-33 -117.5q-18 -47 -42 -92.5t-48 -90.5q-25 -43 -46.5 -86t-41.5 -96 q-12 -32 -12 -65q0 -28 9 -58q19 -63 60 -102l19 -29q23 -35 51 -57.5t59 -22.5h10t13 2q10 4 28.5 16.5t40.5 24.5q8 4 17.5 10.5t19.5 10.5q-25 -53 -51.5 -91t-61 -72t-82.5 -69t-114 -84zM138 216q-2 13 -2 25q0 29 11 56q37 96 87.5 179t91.5 186q25 63 35 120.5 t18 111.5t17.5 109.5t33.5 116.5q25 63 57.5 117.5t74.5 95.5t94.5 64.5t113.5 23.5q37 0 51.5 -13t16.5 -65q-14 -12 -36 -22t-41.5 -20.5t-35.5 -21.5t-20 -24q0 -2 -3 -10l-2 -8l91 -182l77 35l203 112l6 1q6 1 13 1q2 0 7 -1l5 -1l59 -119q16 -16 17.5 -47.5t-0.5 -54.5 l-340 -883q-18 -47 -60.5 -97t-98.5 -99t-120.5 -94.5t-126 -79t-116 -53t-89.5 -19.5q-8 0 -24.5 -1t-31.5 2t-24.5 11.5t-5.5 26.5q76 55 129.5 95t91 80t67.5 89t58 125q2 4 7.5 22.5t13.5 39t14 39t10 26.5q-16 -10 -51 -31.5t-74.5 -44t-74.5 -43t-49 -29.5l-7 -1 q-6 -1 -8 -1q-29 0 -56.5 22.5t-47 56.5t-26.5 76zM565 385q45 0 82 45l15 37q10 29 23 54.5t24 53.5l14 39l55 146q16 41 20 78q3 19 3 37q0 16 -2 32l-47 -37z" />
<glyph unicode="z" horiz-adv-x="913" d="M27 43q0 -51 14 -93t47 -73l25 -39q51 -88 200 -88q109 0 207 43t179 113.5t143.5 161t99.5 186.5q31 82 36 151.5t5 129.5q0 41 2 76.5t16 70.5l7 6l88 64q10 16 11 19t3 7q12 33 2 49l-37 60q2 27 -18 35l4 12q14 39 28.5 84t22.5 87q6 34 6 65v15q-2 38 -18 64l-27 43 q-8 39 -35.5 63.5t-85.5 24.5h-10q-4 0 -8 -1t-8 -1h-17q-10 -6 -33.5 -20.5t-50.5 -28.5q-23 -14 -50 -28.5t-54 -28.5q-35 -18 -63.5 -34.5t-41.5 -25.5q-10 -6 -29.5 -20t-40 -29.5t-40 -31t-31.5 -25.5l-2 2q-6 -6 -8 -12t-6 -13q-10 -23 -2 -47t22 -30l39 -58 q6 -14 21 -14h86q-20 -33 -56.5 -46.5t-72.5 -23.5q-53 -14 -100.5 -35.5t-69.5 -80.5q-4 -8 -6.5 -19.5t-4.5 -17.5q-4 -6 0 -11q-2 -10 -3 -23t-1 -24q4 -18 0 -26v-11q-14 -16 -22 -25t-15.5 -17.5t-15.5 -17.5t-22 -24v3q-33 -35 -59.5 -67t-31.5 -42l-8 -14 q-2 -4 -4 -9.5t-4 -9.5q-20 -37 -37 -84l-14 -39q-25 -61 -38 -118.5t-13 -108.5zM62 112q12 76 42 158l15 39q14 37 31.5 73t21.5 44q2 6 27.5 34.5t55.5 60.5t55.5 60.5t29.5 34.5q2 4 2 19v29q0 16 1 30.5t3 18.5q0 2 1 14t5 21q18 47 60.5 63t90.5 28.5t91 34t65 76.5 l9 19q-2 16 -4 39.5t-7 23.5h-159q-12 0 -16.5 23.5t10.5 40.5q2 4 18 16t37.5 27.5t43 30t34.5 22.5q16 10 56 32.5t85 47t85 47t58 33.5q2 0 14.5 1t18.5 1q53 0 77.5 -27t28.5 -70q1 -9 0 -19q0 -35 -10 -76q-12 -52 -29.5 -103t-36 -95t-28.5 -69q12 0 34.5 3t39.5 3 q28 0 28 -21q0 -10 -6 -24l-5 -10l-3 -6l-88 -64l-4 -6t-8 -10q-16 -41 -17 -86q0 -45 -1 -97.5t-8 -114t-34 -130.5q-35 -92 -94 -179t-137 -155t-171 -109t-196 -41q-92 0 -142 36t-66 94q-9 33 -10 73q1 28 6 61zM295 -18.5q18 -10.5 55 -10.5q20 0 23.5 1t0.5 8.5 t-6 21.5t7 39l223 586q-27 0 -52.5 -26t-46 -59.5t-34.5 -67.5t-21 -48l-147 -385q-20 -49 -2 -59.5z" />
<glyph unicode="{" horiz-adv-x="624" d="M-98 26.5q2 -34.5 22 -57.5l62 -119q4 -2 6 -2t4 -2l43 -67q16 -6 18 -7t4 -1q4 0 8.5 1t22.5 7l199 110l88 37l2 183q-10 51 20 129q8 23 15.5 46t17.5 46q23 59 42.5 114.5t41.5 110.5q55 143 110.5 269t116 222.5t126 158t143.5 75.5l26 25q2 18 -4 32l-37 60 q0 31 -25.5 39t-49.5 8h-29q-37 0 -94.5 -20.5t-124 -56.5t-134 -83t-128 -99t-105.5 -106.5t-63 -103.5l-342 -889q-4 -25 -2 -59.5zM-68.5 39q-1.5 33 2.5 55l338 881q18 47 60.5 98t98.5 100.5t120.5 93.5t127 77.5t117 53t89.5 19.5q6 0 21.5 1t30.5 -2t25.5 -11.5 t6.5 -26.5q-104 -20 -189.5 -114.5t-160 -238.5t-144 -327.5t-143.5 -382.5q-16 -43 -20.5 -79.5t-0.5 -67.5v-154l-69 -28l-203 -113l-7 -2t-12 -2q-2 0 -7 2l-5 2l-59 117q-16 16 -17.5 49zM311 14l8 6z" />
<glyph unicode="|" horiz-adv-x="800" d="M147 84q0 53 13 86l311 813l-43 70l-4 6q-6 12 -4 22l16 -20q0 8 -1 18.5t-1 20.5q-4 39 2 53q6 16 22.5 34.5t51.5 48.5t92 75t150 116q18 16 42.5 35t53.5 41q16 12 32.5 25.5t30.5 23.5q29 -43 53.5 -85t45.5 -85q43 -76 69.5 -151.5t30.5 -147.5q-2 -10 -2 -14 q0 -2 -4 -12q-16 -43 -41 -69.5t-53 -51.5q-31 -29 -64 -67t-61 -111q-10 -25 -27.5 -76t-37 -112.5t-41 -126t-36.5 -115.5q18 -12 19 -37l35 -55q18 -31 -9 -97q-12 -31 -45.5 -71.5t-81 -85.5t-100.5 -88.5t-102 -78t-89 -56t-61 -21.5q-27 0 -51 41l-27 41 q-25 18 -44 63t-29.5 97.5t-10.5 103.5zM175 79q1 -56 13.5 -110.5t33 -93.5t46.5 -39q18 0 56 20.5t85.5 53.5t97.5 74t94 84t76 81.5t44 67.5q43 117 -70 98q6 29 28.5 101.5t49.5 155.5t51.5 158t36.5 106q27 70 58.5 109.5t62.5 67t56.5 53.5t41.5 69q2 6 3 17l1 11 q-4 86 -41.5 176.5t-99.5 176.5q-133 -102 -215 -167t-129 -103t-66.5 -58.5t-25.5 -34.5q-2 -6 -5 -19.5t-6 -27.5t-4 -24l-2 -11q0 -6 8.5 -15t20.5 -16.5t23.5 -12.5t15.5 -5l-328 -852q-12 -35 -11 -91zM961 1460l4 -8l2 -2q0 2 -2 2zM965 1450v2l2 -2h-2z" />
<glyph unicode="}" horiz-adv-x="624" d="M2 2l139 186q23 25 44.5 56.5t35.5 70.5l21 56l24 55q10 29 22.5 57.5t22.5 57.5l43 108q39 100 71 193.5t52.5 172.5t26.5 142.5t-6 108.5q-12 8 -33 14l-43 70q-6 0 -10 2l-11 26q23 45 59 55.5t64 10.5h31q37 0 78 -20.5t79 -55.5t69.5 -81t52.5 -97l4 -8 q41 -66 57 -140.5t-10 -144.5l-338 -881q-18 -27 -48 -62.5t-61 -53.5l2 -2l-147 -117l-35 -10q-6 0 -9 1t-16 7l-118 112v-2l-45 31l-11 6l-39 64l-4 2zM35 20l6 -6zM41 14l43 -28l117 -113l5 -2t11 -2q2 0 9 2l7 2l148 117q29 16 55.5 49t42.5 55l338 881q27 70 7.5 148.5 t-63.5 143t-103.5 107.5t-112.5 43q-8 0 -23.5 1t-33 -2t-34 -11.5t-26.5 -26.5q90 -20 102.5 -114.5t-23.5 -238.5t-107.5 -327.5t-151.5 -382.5q-33 -82 -94 -147zM530 1239l2 -2q0 2 -2 2z" />
<glyph unicode="~" horiz-adv-x="1239" d="M248 711q-2 -2 20 -25l37 -57q6 -10 31.5 -28.5t61.5 -41t80 -46.5t85 -44t77 -32.5t56 -12.5q18 0 33 10q23 14 40 24.5t38 22.5q55 33 94 60l113 -125l405 219l4 12l-43 72l2 6q2 6 -20.5 23.5t-60 42t-84 50t-91.5 48t-83.5 37t-61.5 14.5q-10 0 -21.5 -4t-15.5 -8 q-41 -29 -78 -59.5t-67 -57.5l-11 -10l-118 151l-416 -227zM276 713l379 205l121 -156q35 29 79 69.5t99 77.5q12 8 48 -1t82 -28.5t96.5 -45t91.5 -49t65.5 -41t18.5 -21.5l-381 -205l-113 129q-33 -25 -84 -55.5t-104 -65.5q-12 -8 -47 1.5t-81 28.5t-96.5 45t-90.5 49.5 t-64.5 41t-18.5 21.5z" />
<glyph unicode="&#xa1;" horiz-adv-x="786" d="M63.5 216q-4.5 26 2.5 44q37 96 141 96h2q16 35 39.5 85.5t47 99.5t43 90t26.5 57q18 47 11 71.5t-18 45.5q-14 23 -20 42t8 54q4 12 7 16.5t14 14.5l290 215q-31 39 -50 87t7 116q16 41 51 82t79 72.5t91.5 51t88.5 19.5q49 0 79.5 -24.5t40.5 -65.5l31 -45 q33 -57 2 -137q-8 -20 -25.5 -51t-41 -64t-52 -63.5t-55.5 -51.5l82 -135q6 -8 2 -16l39 -66q6 -8 2 -20q-6 -14 -28.5 -37t-41.5 -39q-10 -8 -37.5 -18.5t-50.5 -14.5l-221 -575q-10 -29 -52 -72t-93 -83t-101.5 -69.5t-76.5 -29.5q-18 0 -40 12t-45.5 32.5t-45 47 t-39.5 55.5l-2 6q-23 25 -42.5 54.5t-31.5 57t-16.5 53.5zM92 260q-10 -29 8.5 -74t50 -87t68.5 -72.5t66 -30.5q25 0 70.5 26.5t93 64.5t85 78t48.5 64l227 592q4 0 17.5 3t28.5 8.5t28.5 10.5t19.5 9q16 14 38 36.5t17 31.5l-133 231q27 14 56.5 44t55.5 63.5t45 66.5 t28 55q27 70 -2 119t-95 49q-35 0 -76.5 -17.5t-80.5 -45t-70 -63.5t-45 -72q-12 -35 -11 -64t11 -52.5t25.5 -44t31.5 -38.5l-313 -231l-5 -6q-5 -7 -7 -13q-12 -31 -3 -49t20 -37.5t15.5 -48.5t-14.5 -78q-8 -20 -31.5 -71.5t-50 -108.5t-52.5 -108.5t-36 -71.5 q-98 12 -129 -68z" />
<glyph unicode="&#xa2;" horiz-adv-x="1036" d="M143 444q-14 -35 3.5 -74.5t52.5 -74.5l16 -25q10 -18 24.5 -36.5t34.5 -34.5q-2 -37 1.5 -75t9.5 -69.5t16 -54.5t23 -27l34 -55q8 -18 23 -18q16 0 50 22.5t76 58t84 79.5t73 87q37 12 77.5 29t80.5 33t77 30.5t66 26.5q12 4 21 8.5t18 8.5q4 2 8 3t8 3 q47 18 62.5 30.5t29.5 47.5q4 14 6 26.5t-4 22.5l-39 59q0 16 -11 28.5t-42 12.5q-27 0 -49.5 -4t-44.5 -8h-4q-23 -4 -45.5 -8t-42.5 -4t-46 2t-53 10q16 51 36 100t34 86l4 -6q12 -20 33.5 -34.5t56.5 -14.5q25 0 81 11t116.5 29.5t109.5 44t60 54.5q4 10 4 12v9 q0 8 -8.5 35.5t-19.5 58.5t-21.5 57.5t-14.5 34.5l-12 20q-4 10 -8 19.5t-10 19.5l-7 9q-6 8 -6 16q-4 2 -6 7t-6 11q-10 23 -26.5 50.5t-51.5 27.5q-2 0 -3 -1t-3 -1h-16q-12 -4 -31 -6q-10 -2 -20.5 -3t-16.5 -3q-10 49 -23.5 99t-35.5 104l-33 51q-4 10 -7 18t-7 19 l-68 -66h2q-80 -78 -131 -126t-80 -77.5t-42 -47t-17 -29.5q-6 -14 -11 -50q-31 -8 -63.5 -22t-63 -31.5t-53 -38t-30.5 -41.5zM170 396.5q-8 25.5 0 47.5l178 465q8 18 31.5 37t54.5 34t62.5 26.5t56.5 15.5l1 9t4 20.5t6 22.5t5 18q4 12 16.5 27.5t45.5 48t89 86 t146 139.5q59 -145 62 -287q41 10 72 16.5t49 10.5q2 0 8 1t8 1q18 0 30.5 -13.5t20.5 -31t14.5 -32t10.5 -16.5q6 -8 15 -33.5t19.5 -54t18.5 -55.5t8 -35v-4q0 -2 -2 -8q-10 -25 -55 -46.5t-100.5 -37.5t-107.5 -25.5t-77 -9.5q-49 0 -68.5 33t-27.5 65l-2 -6l-21 -53 q-20 -49 -46.5 -124t-45.5 -140q14 -12 37 -20.5t47.5 -13.5t49 -7t42.5 -2q49 0 94.5 12t92.5 12q29 0 34 -14t-4 -31q-6 -14 -11 -22t-14 -14.5t-23.5 -12.5t-39.5 -16q-18 -8 -59 -24.5t-90 -36t-101.5 -40t-97.5 -36.5q-29 -41 -68.5 -84t-77.5 -79t-71 -58.5t-47 -22.5 t-24.5 27.5t-15.5 66.5t-4 83t11 79q-33 18 -61.5 41.5t-49 49.5t-28.5 51.5z" />
<glyph unicode="&#xa3;" horiz-adv-x="880" d="M-12 35h12l43 -72q104 0 184 68q53 -47 104.5 -74t111 -39t134 -14t175.5 -2q16 47 21 84t-11 63l-12 17q53 37 91 78.5t60 97.5q25 63 6 98l-30 49q33 16 56 47t46 90q2 4 5 16.5t7 25t10.5 30.5t10.5 29l-43 71l4 13q-16 0 -60.5 6t-83.5 12l136 356l6 5q6 4 10 6h16 q14 0 26.5 -5.5t23.5 -11.5q16 -10 36.5 -16t61.5 -6l39 100l-45 72l4 8l-187 303h-73q-2 0 -45 -22.5t-100.5 -54t-115 -65.5t-87.5 -55q-10 -4 -21.5 -16t-23 -25.5t-20.5 -24.5t-11 -17v-3q-4 -8 2 -31.5t16 -45.5q2 -4 4 -9.5t4 -9.5l-166 -432q-49 -23 -71.5 -48.5 t-36.5 -62t-15 -66.5t5 -58q2 -27 2 -56q0 -27 -10 -55q-16 -41 -42 -80t-53 -74q-31 -41 -59.5 -88t-50.5 -106zM25 61q16 43 41.5 82t54.5 78t55.5 79t42.5 83q12 35 12 63q0 29 -3 56.5t-3 54.5q0 29 13 61q14 37 33.5 56.5t68.5 40.5l172 448q-4 2 -9 15.5t-9.5 29 t-7.5 30.5t-1 19q2 8 22.5 33t35.5 33q29 20 83 53t108 63.5t95 52t43 21.5h64l176 -286l-29 -72q-23 0 -38 6t-28 13.5t-26.5 13.5t-32.5 6h-18q-10 -2 -26.5 -15.5t-16.5 -15.5l-160 -415q-4 -8 3.5 -19.5t15.5 -13.5t34.5 -7.5t55 -10.5t54.5 -9t36 -4q-4 -10 -13.5 -40 t-13.5 -40q-18 -49 -38.5 -75.5t-48 -41t-67.5 -19.5t-98 -9l-24 -64q41 29 68.5 32t62.5 3q113 0 70 -111q-23 -57 -66 -100t-104 -80q39 -23 42 -57.5t-16 -81.5q-96 0 -166.5 2t-128 15.5t-106.5 42t-105 79.5q-72 -78 -159 -78z" />
<glyph unicode="&#xa4;" horiz-adv-x="2324" d="M197 586l14 4l43 -72l149 45l21 51q4 -8 9 -15t16 -11l30 -49q23 -39 82 -39q18 0 46 7t61 17l32 109l-2 2q6 -10 17 -17l33 -49q25 -39 98 -39h28q8 0 17.5 1t19.5 1q55 0 117 60l4 2l47 -72l101 19l51 131l24 -31l19 -25q49 -84 115 -84l28 21v2l13 -20l155 45l2 6 l10 -17h109q37 35 60.5 56.5t41.5 29.5q0 -4 1 -5t1 -5l13 -6l41 -66l67 -28l8 22l19 -28l102 16l51 133q10 -18 23 -26l16 -27q49 -82 109 -84l14 -27l6 4l45 -73l130 98l-48 74l11 6l-80 49l10 27l27 -45l86 -19l182 330l-47 72l6 10l-131 37l-37 -86l-27 45l4 10l-102 31 l-106 -238l-74 160l-17 26l-30 68l-43 -119l-25 41q-10 63 -69 64q-16 0 -29.5 -2t-40.5 -13q-39 -35 -73 -69.5t-64 -71.5l30 68l-47 71l9 15l-130 -27l-45 -88l-26 49l4 10l-109 41l-98 -239l-74 161l-12 19l-37 76l-45 -127l-10 14q-16 86 -121 86h-45 q-25 -14 -46.5 -29.5t-43.5 -31.5l-39 63l6 14q-164 -31 -272 -92l-43 72l6 14l-133 -26zM240 625l192 405l76 14l-168 -389zM444 774q6 16 9.5 26.5t9.5 24.5q68 178 354 228l-43 -97q-10 4 -19.5 5.5t-19.5 1.5q-29 0 -54.5 -12.5t-66.5 -41.5q-37 -35 -68.5 -74.5 t-49.5 -84.5q-27 -76 53 -76q12 0 30.5 2t43.5 8l-21 -70q-49 -16 -82 -16q-111 0 -76 176zM575 700q40 68 101 119q29 23 48 32t42 13q-27 -39 -47.5 -81t-38.5 -89v-22t4 -19l-29 49l7 17q-63 -16 -87 -19zM709 696q96 252 270 346h18h19q125 0 102 -133 q-137 -279 -248 -278q-20 0 -33.5 -1t-29.5 -1q-102 0 -98 67zM819 801q-37 -98 21 -99q31 0 110 35q35 31 51.5 57.5t28.5 57.5q6 16 10 29.5t-4 17.5q-6 51 -49 51q-66 0 -158 -123zM895 739l2 6q57 80 102 99q-10 -23 -22 -44.5t-35 -41.5q-16 -6 -26.5 -10.5t-20.5 -8.5 zM1061 625l141 395l121 -250l115 274l59 -24l-149 -389q-88 0 -156 196l-74 -192zM1417 641l199 403l70 15l-164 -387zM1579 668q47 100 123 197.5t178 193.5q20 8 30.5 9t22.5 1q70 0 49 -125l-108 -293l-37 17q-10 90 -51 90q-29 0 -56.5 -22.5t-74.5 -67.5h-76zM1757 840 h123l8 135zM1939 641l142 395l117 -250l120 273l58 -17l-150 -393q-88 0 -155 191l-72 -189zM2263 612l61 39l46 -26l-80 -62zM2353 758l127 301l82 -23l-158 -288z" />
<glyph unicode="&#xa5;" horiz-adv-x="1228" d="M115 -305q-10 -41 18 -55l37 -60q10 -14 29.5 -18t40.5 -4h26q37 0 93.5 20.5t122 56t133 81.5t126 97.5t103.5 104.5t63 102l31 82q10 -2 18 -2h19q4 0 10 1t8 1q27 10 52.5 20.5t44.5 18.5q41 14 73.5 28.5t63.5 43.5q16 12 17 17.5t-9 23.5l-33 51l2 2q2 6 -2 12.5 t-12 18.5l-141 53l24 64q14 -2 25 -2h22q18 0 29 4q59 25 98 39q41 16 73 31.5t64 43.5l5 9q4 12 2 16l-43 68q4 8 2 11t-13 13l-151 60l59 155v6q4 25 1 56t-13 49l-4 6h2l-62 123l-8 10l-35 74q-16 4 -20 4h-6h-17q-2 0 -10 -2l-205 -115l-4 -2l-53 -25l-41 82l4 9 q2 6 18.5 15t36.5 19q16 8 36 19.5t40 30.5q2 29 -2 48t-10 29l-4 4v-2h2l-33 52q-8 35 -25.5 45t-52.5 10q-68 0 -125 -25.5t-104 -69.5t-84 -103.5t-64 -129.5q-27 -66 -37 -121t-16 -108q-8 -55 -18 -111.5t-33 -117.5q-18 -47 -42 -92.5t-48 -90.5q-25 -43 -46.5 -86 t-41.5 -96q-23 -59 -3.5 -122.5t60.5 -102.5l19 -29q23 -35 51 -57.5t59 -22.5h10t13 2q14 10 42.5 26.5t63.5 37.5q-23 -53 -49.5 -92t-62 -73t-83.5 -69t-114 -84zM138 216q-7 42 9 81q37 96 87.5 179t91.5 186q25 63 35 120.5t18 111.5t17.5 109.5t33.5 116.5 q25 63 57.5 117.5t74.5 95.5t94.5 64.5t113.5 23.5q37 0 51.5 -13t16.5 -65q-14 -12 -36 -22t-41.5 -20.5t-35.5 -21.5t-20 -24q0 -2 -3 -10l-2 -8l91 -182l77 35l203 112l6 1q6 1 13 1q2 0 7 -1l5 -1l59 -119q16 -16 17.5 -47.5t-0.5 -54.5l-88 -227l227 -88l3 -4 q3 -3 -1 -7q-18 -16 -40 -27.5t-47.5 -21.5t-58 -22.5t-73.5 -30.5q-16 -6 -86 4l-62 -160l215 -82l3 -4q4 -4 -1 -6q-37 -35 -88 -52t-131 -52q-8 -2 -24.5 -1t-46.5 5l-41 -107q-18 -47 -60.5 -97t-98.5 -99t-120.5 -94.5t-126 -79t-116 -53t-89.5 -19.5q-6 0 -21.5 -1 t-31.5 2t-26.5 11.5t-6.5 26.5q76 55 129.5 95t91 80t67.5 89t58 125q2 4 7.5 22.5t13.5 39t14 39t10 26.5q-16 -10 -52 -31.5t-75.5 -44t-74.5 -43t-47 -29.5l-7 -1q-6 -1 -8 -1q-29 0 -56.5 22.5t-47 56.5t-26.5 76zM565 385q45 0 82 45l15 37q10 29 23 54.5t24 53.5 l18 52q-20 6 -33.5 9t-27.5 7zM682 686l78 25l18 49q16 41 20.5 77.5t0.5 69.5l-47 -37z" />
<glyph unicode="&#xa6;" horiz-adv-x="800" d="M147 84q0 53 13 86l311 813l-43 70l-4 6q-6 12 -4 22l16 -20q0 8 -1 18.5t-1 20.5q-4 39 2 53q6 16 22.5 34.5t51.5 48.5t92 75t150 116q18 16 42.5 35t53.5 41q16 12 32.5 25.5t30.5 23.5q29 -43 53.5 -85t45.5 -85q43 -76 69.5 -151.5t30.5 -147.5q-2 -10 -2 -14 q0 -2 -4 -12q-16 -43 -41 -69.5t-53 -51.5q-31 -29 -64 -67t-61 -111q-10 -25 -27.5 -76t-37 -112.5t-41 -126t-36.5 -115.5q18 -12 19 -37l35 -55q18 -31 -9 -97q-12 -31 -45.5 -71.5t-81 -85.5t-100.5 -88.5t-102 -78t-89 -56t-61 -21.5q-27 0 -51 41l-27 41 q-25 18 -44 63t-29.5 97.5t-10.5 103.5zM175 79q1 -56 13.5 -110.5t33 -93.5t46.5 -39q18 0 56 20.5t85.5 53.5t97.5 74t94 84t76 81.5t44 67.5q43 117 -70 98q6 29 28.5 101.5t49.5 155.5t51.5 158t36.5 106q27 70 58.5 109.5t62.5 67t56.5 53.5t41.5 69q2 6 3 17l1 11 q-4 86 -41.5 176.5t-99.5 176.5q-133 -102 -215 -167t-129 -103t-66.5 -58.5t-25.5 -34.5q-2 -6 -5 -19.5t-6 -27.5t-4 -24l-2 -11q0 -6 8.5 -15t20.5 -16.5t23.5 -12.5t15.5 -5l-328 -852q-12 -35 -11 -91zM961 1460l4 -8l2 -2q0 2 -2 2zM965 1450v2l2 -2h-2z" />
<glyph unicode="&#xa8;" horiz-adv-x="1114" d="M587.5 1514.5q14.5 -52.5 53.5 -82.5l23 -35q18 -31 48.5 -50.5t69.5 -19.5q37 0 75 14.5t72 40t61.5 58.5t41.5 69q43 111 8 170l-30 45q-18 88 -174 113l-15 -4q-66 -39 -131 -89t-94 -124q-23 -53 -8.5 -105.5zM612 1550.5q-4 34.5 11 69.5q12 31 33.5 58.5t49 50 t59 43t60.5 38.5q111 -16 145 -67t-7 -156q-12 -33 -36 -62.5t-54.5 -51t-64.5 -35t-67 -13.5q-35 0 -62.5 17.5t-45 45.5t-21.5 62.5zM1189 1516.5q13 -52.5 54 -82.5l21 -35q20 -31 49.5 -50.5t68.5 -19.5q37 0 75 14.5t73 40t61.5 58.5t40.5 69q43 115 8 170l-28 43 q-10 49 -53 76t-123 41l-19 -4q-31 -20 -63.5 -42.5t-63 -48.5t-55.5 -56.5t-39 -67.5q-20 -53 -7 -105.5zM1214.5 1552.5q-4.5 34.5 8.5 69.5q25 63 85 109.5t117 83.5q113 -16 147 -68.5t-7 -157.5q-12 -33 -37 -62.5t-54.5 -51t-63.5 -35t-67 -13.5q-35 0 -62.5 17.5 t-44.5 45.5t-21.5 62.5z" />
<glyph unicode="&#xa9;" d="M94 307q-10 -25 5.5 -58.5t47.5 -68.5l17 -28q25 -41 73 -85t101 -81t104.5 -61.5t85.5 -24.5h9q4 0 20 2q29 10 73 36.5t85 53.5l63 39q53 25 97.5 43t78.5 35q63 27 107.5 46t77 41.5t58.5 53.5t50.5 78t51 114.5t65.5 165.5l18 47q6 16 12.5 35t12.5 37l49 127 q10 78 1 163t-50 150l-14 23q-20 53 -56.5 94t-89.5 59q-12 -12 -48 -28.5t-74 -32.5t-70.5 -28.5t-38.5 -14.5q-16 -6 -45 -13t-68 -15.5t-83 -17.5t-89 -17q-53 -10 -102 -21.5t-89 -23t-65.5 -22.5t-32.5 -24l-260 -682q-33 -8 -51 -26.5t-29 -46.5zM121 307l8 23 q10 23 26.5 38t45.5 15l268 702q2 6 37 15.5t87 21t115.5 23.5t123 24.5t109.5 23.5t77 21q6 2 39 14.5t71.5 28t72.5 31t44 23.5q51 -16 82 -58.5t46.5 -96.5t17.5 -114.5t-5 -115.5l-20 -49q-14 -35 -26.5 -72t-26.5 -72l-17 -47q-45 -115 -74.5 -188.5t-58 -119.5 t-61.5 -72.5t-81 -50.5t-119 -52.5t-175 -75.5q-8 -4 -38 -23.5t-65.5 -42t-66.5 -41t-39 -20.5l-10 -1t-19 -1q-41 0 -108.5 36t-130 85t-102 101t-27.5 87zM517 431.5q9 -30.5 29.5 -57t45 -45t47.5 -18.5q6 0 12 2l6 2q12 6 46 23.5t72 38t73 39t49 26.5q29 16 37 21.5 t16 25.5q4 12 2 21.5t-16 9.5q-23 0 -47.5 -8t-46.5 -8q-12 0 -29.5 4t-32 12t-22.5 20.5t-2 28.5l86 226q2 -8 4 -24.5t5 -33t10 -29t24 -12.5q12 0 38.5 7.5t55.5 19.5t53.5 27.5t30.5 33.5q2 4 2 7v4l-14 127q-4 0 -6.5 10t-5.5 21.5t-8 21.5t-13 10h-8q-14 -6 -50 -18.5 t-76 -24.5t-77 -22.5t-51 -14.5q-25 -10 -62 -30.5t-47 -49.5l-129 -336q-10 -27 -1 -57.5zM582 375v18q0 9 4 19l129 336q6 16 34.5 32.5t51.5 26.5q4 2 8 2q6 0 12 2l-92 -242q-10 -23 -3 -39t24 -26l34 -55q8 -16 29 -27q-41 -23 -89 -47.5t-77 -36.5q-33 0 -65 37z M868 825q35 10 80 25.5t76 26.5l12 -93q-4 -10 -18 -20t-33.5 -18.5t-40 -14.5t-35.5 -8q-4 16 -9 36.5t-5 24.5z" />
<glyph unicode="&#xaa;" horiz-adv-x="653" d="M366 984q-4 -52 25 -101q10 -29 27 -33l33 -53q16 -23 43 -23q25 0 55.5 22.5t58.5 47.5l29 24l8 -8l8 -8l33 -51l-10 12q4 -4 5 -6t5 -6q16 -27 43 -27h23q10 8 31.5 24.5t45 33t45 31t31.5 20.5l8 8q8 2 18.5 11t16.5 26q4 8 1 22.5t-7 24.5l-27 43l64 168 q4 10 10 21.5t12 27.5l13 6h2q0 2 2 2q16 6 28.5 15.5t20.5 29.5q12 27 0 45l-35 58q0 27 -19.5 39t-39.5 22q-16 4 -17 8q-18 18 -26 35q-2 2 -3 4t-3 4v-2q-10 16 -21.5 28.5t-36.5 12.5q-16 0 -27.5 -4t-25.5 -10h2l-3 -2t-7 -4q-2 -2 -4 -3t-17 -8q-37 -16 -65 -26 q-70 -27 -138.5 -64t-107.5 -118l-74 -195q-29 -72 -33 -124zM394 994q5 48 32 114l31 84l8 20l27 68l8 20q20 43 54 72t73 48.5t81 34.5t80 32q25 12 36.5 20.5t31.5 8.5q14 0 24.5 -8.5t17.5 -19.5t15.5 -24.5t18.5 -23.5q8 -6 21.5 -12.5t25.5 -14.5t19.5 -19.5 t0.5 -27.5q-8 -20 -25.5 -25.5t-33.5 -17.5q-20 -37 -29 -59l-22 -58l-17 -41l-6 -18l-16 -43l-4 -8q-2 -4 -5 -14.5t-5 -21.5t-1 -19.5t7 -8.5q8 0 15 5t13 5t9.5 -14t-0.5 -22q-4 -16 -11 -17q-2 0 -18 -14q-10 -6 -31.5 -20.5t-44 -30t-43 -29.5t-29.5 -23h-12 q-18 0 -29.5 17.5t-17.5 38t-11 38t-11 17.5q-12 0 -34 -17.5t-45.5 -38t-47 -38t-39.5 -17.5q-27 0 -37 29q-29 45 -24 93zM598 1036l4 -6h4h2q8 4 21.5 17.5t17.5 19.5l98 256l-4 8q-4 6 -7 15.5t-7 9.5h-2h-4l-14 -27l-5 -10l-16 -45l-8 -21l-41 -108l-21 -53 q-6 -14 -10 -26.5t-8 -29.5z" />
<glyph unicode="&#xab;" horiz-adv-x="1034" d="M229 508.5q-2 62.5 0 111t11 66.5l4 12l458 553h19q4 0 11 -15t16 -40l26 -39q8 -14 18.5 -45t19.5 -68.5t16.5 -77.5t11.5 -75l309 373h18q4 0 12.5 -15.5t14.5 -40.5l27 -39q12 -18 26.5 -65t24.5 -100.5t14 -102.5t-4 -72q-4 -10 -10 -16l-10 -10q-20 -16 -57.5 -42 t-79.5 -55.5t-84 -58.5t-72 -49l121 -129l-7 -6l45 -74l-344 -326h-12q-4 0 -4 5l-43 67h-4q-8 0 -15.5 37t-13.5 93.5t-10 125t-6 131t1 110.5t9 66q-45 -31 -88 -60.5t-74 -51.5l119 -129l-8 -6l47 -74l-344 -326h-12q-2 0 -7 4l-40 68h-5q-8 0 -15 37t-13 93t-10.5 124.5 t-6.5 131zM252 530q0 -61 3 -129.5t7 -126t10.5 -93.5t14.5 -31l317 301l-180 200q16 10 60 41t96.5 67t102.5 70.5t75 53.5q18 12 15 69.5t-14 120t-26.5 110.5t-23.5 42l-441 -533q-8 -10 -12 -55t-4 -107zM698 543q0 -61 3.5 -130t8.5 -126.5t11 -93t12 -31.5l320 301 l-183 201q16 10 61.5 40.5t97.5 66.5t102.5 71t74.5 53q16 12 14.5 69.5t-14 120t-28 110.5t-23.5 42l-440 -532q-8 -10 -12.5 -55.5t-4.5 -106.5z" />
<glyph unicode="&#xac;" horiz-adv-x="1140" d="M262 727q0 -6 19 -18l36 -62q6 -10 51.5 -33.5t111 -51t142 -56.5t148.5 -49l-74 -64l111 -280h8l45 -72h12q6 0 34 24.5t66 63.5t81 86t80.5 91t65.5 81t34 53q2 6 3 12.5t-3 14.5l-39 57v4q33 16 60.5 36t54.5 46q10 8 11 13.5t-9 27.5l-33 51q0 4 -3 11.5t-7 21.5 l-439 211l-565 -213zM276 713l543 205l426 -205l2 -7q2 -6 0 -8q-29 -29 -59.5 -48t-69.5 -40q10 -16 18.5 -36.5t28.5 -45.5q4 -6 -18.5 -38.5t-58 -76.5t-78.5 -94.5t-82 -91.5t-66.5 -66.5t-32.5 -21.5l-98 254l148 131q-41 4 -103.5 18.5t-131.5 34t-136.5 42t-120.5 42 t-85 34t-26 18.5z" />
<glyph unicode="&#xad;" horiz-adv-x="690" d="M246 707l6 14l364 221l209 -217q0 -6 1 -9t-1 -7l41 -64q2 -12 2 -16q0 -2 -4 -13l-4 -8q-29 -43 -61.5 -68.5t-73.5 -54.5q-16 -10 -33.5 -22t-40.5 -29q-6 -4 -12 -7t-16 -3q-25 0 -74 24.5t-100.5 57.5t-93.5 65.5t-52 49.5l-33 51q-27 27 -24 35zM274 709 q-6 -6 13.5 -23.5t52.5 -40t74 -47.5t78.5 -43t66.5 -27.5t37 -1.5q35 27 63.5 46.5t52 37t44 36t39.5 46.5q4 4 3 10l-1 7l-195 198z" />
<glyph unicode="&#xae;" d="M94 307q-10 -25 5.5 -58.5t47.5 -68.5l17 -28q25 -41 73 -85t101 -81t104.5 -61.5t85.5 -24.5h9q4 0 20 2q29 10 73 36.5t85 53.5l63 39q53 25 97.5 43t78.5 35q63 27 107.5 46t77 41.5t58.5 53.5t50.5 78t51 114.5t65.5 165.5l18 47q6 16 12.5 35t12.5 37l49 127 q10 78 1 163t-50 150l-14 23q-20 53 -56.5 94t-89.5 59q-12 -12 -48 -28.5t-74 -32.5t-70.5 -28.5t-38.5 -14.5q-16 -6 -45 -13t-68 -15.5t-83 -17.5t-89 -17q-53 -10 -102 -21.5t-89 -23t-65.5 -22.5t-32.5 -24l-260 -682q-33 -8 -51 -26.5t-29 -46.5zM121 307l8 23 q10 23 26.5 38t45.5 15l268 702q2 6 37 15.5t87 21t115.5 23.5t123 24.5t109.5 23.5t77 21q6 2 39 14.5t71.5 28t72.5 31t44 23.5q51 -16 82 -58.5t46.5 -96.5t17.5 -114.5t-5 -115.5l-20 -49q-14 -35 -26.5 -72t-26.5 -72l-17 -47q-45 -115 -74.5 -188.5t-58 -119.5 t-61.5 -72.5t-81 -50.5t-119 -52.5t-175 -75.5q-8 -4 -38 -23.5t-65.5 -42t-66.5 -41t-39 -20.5l-10 -1q-10 -1 -19 -1q-41 0 -108.5 36t-130 85t-102 101t-27.5 87zM477 479q-12 -10 9.5 -35.5t55 -54.5t65.5 -50.5t38 -21.5q4 0 12.5 1t14.5 1q131 78 258 175q0 2 8 18 q12 31 -14 31q-29 0 -50.5 -17.5t-50.5 -17.5h-26q-25 0 -15 18l92 240l21 16l29 -96l10 -14l1 -2t5 -2q2 0 5 2l3 2q8 0 24.5 10t34 22.5t33 25.5t19.5 20q2 2 10 21.5t14 35.5q23 59 24 103t-36 81l-156 -114h-16q-8 25 -14 41t-14.5 28t-20.5 22.5t-35 22.5 q-10 -4 -30.5 -18.5t-43 -29.5t-44 -28.5t-29.5 -19.5q-39 -23 -51.5 -32t-22.5 -32q-8 -20 2 -27t23.5 -11.5t24.5 -9.5t7 -17l-86 -223zM559 406l72 51l88 231q6 18 0 29l-39 59q4 4 9 6t11 6q6 6 17 11h2q6 4 29.5 20.5t50.5 32.5q29 23 57 37l8 -6q0 -2 1 -3t1 -3 q4 -4 4 -9q0 -4 2 -8q4 -4 5 -10h8l18 -31l-51 -41l-96 -252q-16 -37 12 -43l33 -55q-33 -23 -66 -43t-67 -41h-13q-6 0 -35.5 18.5t-60.5 43.5zM934 778h31l108 80q-4 -12 -7 -24.5t-9 -26.5q-2 -6 -6 -14.5t-9 -16.5l-6 -20q-10 -10 -31.5 -26.5t-37.5 -27.5l-9 37z M1395 1182l6 -8z" />
<glyph unicode="&#xaf;" horiz-adv-x="1157" d="M571 1720q0 -2 11 -6l45 -72q2 -6 52 -17t126 -26.5t170 -32t185 -29.5t171 -21.5t129 -8.5q12 0 21.5 -1t19.5 3h2q39 10 71 16.5t60 12.5q70 12 121 24.5t92 34.5q10 0 15.5 3.5t11.5 19.5q4 10 0 14l-41 68q4 10 0 14t-21 15l-598 102l-632 -104q-4 0 -11 -9z M584 1704l622 102l590 -102l5 -3t1 -5q-53 -29 -134 -44.5t-212 -43.5q-12 -4 -58 -3t-111.5 7t-145.5 14t-160 18.5t-154.5 19.5t-131 18.5t-87 14.5t-24.5 7z" />
<glyph unicode="&#xb0;" horiz-adv-x="675" d="M371 1036l6 13q12 33 43 47l129 331q8 23 42 33t79 19q12 2 23.5 3t23.5 5q8 2 14 3t17 3q35 8 63.5 14t38.5 11q4 0 27.5 10t46.5 20q8 4 16 7.5t16.5 7.5t16.5 4q35 -10 53 -36t29 -61l18 -32q23 -35 28 -80t1 -82l-27 -68q-4 -10 -5 -18t-5 -16l-10 -25 q-29 -76 -47.5 -119t-39 -67.5t-50 -39t-78.5 -34.5q-37 -16 -86 -37l-33 -21q-23 -14 -45.5 -28.5t-34.5 -16.5q-8 -2 -18 -2q-16 0 -43 13.5t-54.5 34t-52 44t-37.5 46.5l-20 28q-25 25 -38 47.5t-7 38.5zM397 1036q-6 -16 15.5 -41.5t52.5 -50t64.5 -43t52.5 -18.5 q4 0 10 1l6 1q2 0 17.5 9t34 20.5t34.5 21.5t21 12q76 35 116.5 50.5t67 38t46 63.5t52.5 127l10 24q6 16 12.5 36t12.5 36l10 25q2 25 1 55.5t-9 58t-22.5 49t-40.5 27.5q-4 -2 -20.5 -9t-37 -15.5t-37 -15.5t-20.5 -7q-18 -6 -62.5 -15.5t-90.5 -18.5t-82 -17t-36 -13 l-135 -350q-27 0 -37 -28zM678 1092l108 286q10 -4 15.5 -20.5t1.5 -26.5l-101 -260q-10 0 -19 5t-5 16z" />
<glyph unicode="&#xb1;" horiz-adv-x="868" d="M84 213q0 -6 10 -10l43 -70q4 -6 34 -19.5t75 -29.5t98 -32.5t104.5 -31t95.5 -23.5t66 -9q6 0 13.5 1t15.5 5q23 10 43 17t41 16q39 14 70.5 28.5t58.5 38.5q10 0 13 4t9 19q2 12 3 14l-43 68q4 8 2 11t-13 13l-202 76q23 16 50 63.5t64 106.5q25 43 58 92h16q16 0 27 4 q29 10 50 19.5t42 17.5q43 16 75.5 30.5t69.5 49.5l2 6q4 6 4 8q0 4 -4 17l-39 61l-2 21l-96 34q2 6 2 11q0 6 2 10q-2 23 -3 41t-1 35q-4 31 -5 55.5t-11 40.5l-9 12v6l-43 70q4 16 -16 16q-4 4 -8 7v-7q-10 0 -15.5 -3t-21.5 -17l-135 -191l-373 -118q-10 -8 -10 -13 q-6 -14 20 -30l37 -58q10 -18 62.5 -40.5t124.5 -45.5l2 -221q-10 -23 8 -22l24 -48l-73 31l-410 -131zM104 201l381 123l318 -123l2 -3t-2 -5q-37 -35 -87 -52.5t-130 -52.5q-10 -4 -52 1t-97.5 17.5t-117 28t-110.5 28.5t-80 24.5t-25 13.5zM307 774l379 123l141 197l7 4 q6 4 6 0q14 -10 19 -26.5t7 -39t2 -51.5q0 -28 4 -61q0 -18 -32 -82l166 -64l2 -4q2 -4 -2 -6q-37 -35 -87.5 -51.5t-132.5 -50.5q-10 -4 -49 0q-31 -51 -61.5 -101.5t-55 -89.5t-40 -60.5t-15.5 -15.5v297q-51 12 -99 25.5t-85 25t-57.5 19.5t-16.5 12z" />
<glyph unicode="&#xb2;" horiz-adv-x="569" d="M352 967l49 149l129 78l-22 37q-18 16 -29.5 36.5t-1.5 43.5l6 18q12 10 20.5 19.5t18.5 21.5q4 6 10.5 12.5t12.5 14.5q8 12 12 16q10 14 23.5 27.5t31.5 29.5l2 5q16 18 42 40.5t57 22.5l2 -2h4q14 -8 22.5 -12t16.5 -8.5t16 -8.5t25 -10l8 -4q29 -14 57.5 -26.5 t38.5 -16.5q16 -10 33.5 -26.5t17.5 -45.5l33 -47h-2l2 -2q6 -10 9 -25.5t-5 -31.5l-37 -96l-129 -91q10 -10 11 -28l34 -53q14 -25 7 -46q-4 -6 -7 -10q-10 -14 -31.5 -38.5t-39.5 -47.5q-16 -16 -31.5 -33.5t-11.5 -13.5q-6 -2 -11 -10q-16 -18 -39.5 -42t-46.5 -24h-14 q-12 4 -38.5 10.5t-55.5 14.5q-14 4 -24.5 6t-19.5 4t-21.5 6t-32.5 13q-10 6 -20.5 16t-18.5 22l-27 39q-18 12 -32.5 36t-2.5 61zM381 969q-12 -29 7.5 -50.5t35.5 -31.5q10 -4 36.5 -10.5t55.5 -14.5t55.5 -14t36.5 -10h10q8 0 20.5 9t24 21.5t20.5 23.5t13 13 q2 6 18.5 23.5t35 38t35 39t18.5 24.5l2 2t2 4q6 18 -4 34.5t-28.5 29t-38 19.5t-29.5 7t-21 -8l203 144l35 88q10 29 -8.5 48t-36.5 29q-12 4 -38 15.5t-53.5 26t-52 25.5t-35.5 15q-2 0 -4 1t-4 1q-10 0 -22.5 -10t-22.5 -22.5t-19.5 -22.5t-11.5 -10q-6 -6 -22 -25.5 t-33.5 -41t-33 -39t-21.5 -21.5l-2 -8q-8 -18 3 -34.5t29.5 -29t38 -19.5t29.5 -7q14 0 30.5 12t32 28.5t28 33t22.5 24.5l8 -31l-301 -184zM539 1012l118 86q-10 -8 -20 -23.5t-19.5 -31t-18.5 -27.5t-15 -19z" />
<glyph unicode="&#xb3;" horiz-adv-x="591" d="M355.5 983q0.5 -8 17.5 -25q0 -6 6 -8l6 -10l29 -41q4 -8 12 -16q2 -2 3 -4t5 -5q6 -6 23.5 -23t39 -37.5t43 -38t33.5 -25.5q8 -6 13 -7q6 -2 18 -2q25 0 68 20.5t88 50.5t83 64.5t48 63.5l129 336q12 31 -2 55l-37 53q-2 29 -21.5 46.5t-37.5 27.5q-10 6 -38 18.5 t-58.5 26t-58.5 23.5t-40 14h-14q-25 0 -48.5 -19.5t-41.5 -35.5q0 -2 -5 -6q-2 -2 -6 -2q-4 -4 -11 -13.5t-13 -19.5q-6 -8 -12.5 -15.5t-10.5 -13.5q-4 -4 -4 -6t-2 -4q-4 -10 -12 -19.5t-27 -25.5l-8 -19q-8 -23 2 -41t29 -32l28 -45v-4l-110 -52q-8 -6 -10 -10 q-6 -14 20 -35l35 -55q2 -2 2 -4t2 -4q-20 0 -37 10v-2q-4 0 -6 2q-16 6 -29 6q-35 0 -49 -17.5t-24 -39.5q-10 -27 -9.5 -35zM386.5 992q-3.5 5 4.5 26q4 12 12.5 21.5t24.5 9.5q23 0 37 -8.5t43 -8.5q20 0 58 11.5t65 33.5q-25 6 -55.5 16.5t-57 19.5t-43 17.5t-12.5 12.5 l182 82l39 -25l47 123q-14 -16 -32.5 -37.5t-53.5 -21.5q-10 0 -30.5 5t-40 15t-31 24.5t-4.5 32.5l4 9q6 6 16 19t21.5 28.5t22.5 30t18 22.5q2 0 12 10t22.5 21.5t24.5 21.5t22 10h7q12 -4 40.5 -14t59.5 -22.5t57.5 -24.5t36.5 -18q18 -10 39 -31t10 -49l-129 -336 q-10 -27 -44 -57.5t-74.5 -57t-80.5 -45t-61 -18.5q-6 0 -10 2t-6 2q-10 4 -30.5 21.5t-43 38t-42 40t-25.5 27.5q-16 16 -19.5 21z" />
<glyph unicode="&#xb4;" horiz-adv-x="555" d="M592 1606q-4 -10 2 -17q0 -37 11 -57.5t32 -40.5l25 -37q6 -10 15 -20.5t19 -20.5q4 -4 11.5 -13t19.5 -24v2q6 -8 18 -8q10 0 44 21.5t76 54.5t89 71.5t87 73.5t68 61.5t30 33.5l4 12l-43 71l4 11l-211 184l-287 -334q-8 -8 -10 -14l-2 4q-2 -6 -2 -14zM621 1608 q-4 0 1 6l5 6l262 305l182 -160q2 -2 -22.5 -26.5t-65.5 -60.5t-89 -75.5t-90 -71.5t-72 -50.5t-32 -10.5q-16 20 -31.5 35t-27.5 29t-18.5 31.5t-1.5 42.5z" />
<glyph unicode="&#xb5;" horiz-adv-x="972" d="M-5 8q1 -47 15.5 -93t39 -89t54.5 -80l9 -12q47 -76 112.5 -126t124.5 -50h31q29 0 60.5 9t52.5 48v16l-21 33q-6 10 -11 17.5t-9 17.5v12l-33 53q-16 47 -12 100.5t38 141.5l5 12q4 10 10 22.5t12 27.5l8 24q18 -23 42 -48.5t44 -43.5l4 -6q4 -4 14.5 -13.5t14.5 -15.5 q10 -2 12 -2h9q31 0 81 24.5t100 61.5t92 82t58 88q20 51 29.5 94t19.5 86q10 45 20.5 90.5t29.5 94.5q25 63 58.5 119.5t68.5 111.5q35 53 65.5 107.5t54.5 119.5q33 82 39 150t-20 111l-25 40q-12 47 -51 76t-111 29q-25 0 -43 -4t-36.5 -15.5t-39 -33t-46.5 -56.5 q10 -27 17 -37t15 -16v2q0 -4 4 -4l21 -39l-195 -158l-36 27l-119 115q-6 2 -10 2h-15h-8q-2 0 -23 -4l-159 -127q-33 -20 -59.5 -55t-47.5 -62l-340 -885q-16 -43 -15 -90zM29.5 -49q-19.5 78 7.5 147l340 883q16 23 41.5 54.5t54.5 47.5l148 119l7 1t9 1q6 0 11 -1l5 -1 l117 -112l51 -35l230 182l4 8q4 8 4 10q6 14 -2 24.5t-20.5 21t-26 20.5t-15.5 22q39 51 63.5 64.5t61.5 13.5q61 0 95 -23.5t45.5 -64.5t3 -95t-32.5 -118q-25 -61 -56.5 -116.5t-66.5 -109.5t-67.5 -111.5t-57.5 -120.5q-20 -51 -30.5 -96.5t-19.5 -89.5t-19.5 -87 t-28.5 -92q-16 -39 -54 -81t-84.5 -76t-91.5 -56.5t-73 -22.5q-2 0 -8 1l-7 1q-6 8 -25.5 28t-41 43.5t-41 45t-25.5 31.5q-4 -8 -13 -26.5t-17.5 -39t-15.5 -39t-9 -22.5q-29 -76 -38 -125t-2 -89t29.5 -80t57.5 -95q-10 -18 -25.5 -26.5t-33 -11.5t-33 -2t-23.5 1 q-53 0 -112.5 43t-104.5 108.5t-64.5 143.5zM485 430q0 -45 45 -45l187 485l-17 37q-29 -33 -53 -69.5t-41 -77.5l-55 -146l-14 -39q-10 -29 -18.5 -54t-18.5 -54z" />
<glyph unicode="&#xb6;" horiz-adv-x="2848" d="M236 637l16 -10l41 -64l53 -35l-84 -53q-39 -98 12 -110l35 -56q8 -18 37 -18l119 -29l-33 -88l10 -2l45 -70l349 -32l-9 -19l17 -18l37 -58l57 -51l358 60l-8 -19l15 -4l43 -70l69 -24l391 180l21 -35l8 2l45 -73l121 26l242 199q43 -35 80.5 -53.5t72.5 -18.5 q55 0 109 56l98 208l143 -36q84 20 115 102l8 16q4 14 4 23q0 8 -2 12h2l-39 117h136l67 86q12 10 19 20q6 20 -7 43l-34 54q-2 31 -47 65q55 33 75 92l4 11q10 25 7 28l-41 66q2 10 1 14t-12 8l-178 56q8 12 14.5 26.5t14.5 32.5l-45 72l4 8l-33 53h-328l19 31l-47 72l6 12 l-150 14l-311 -59l-20 33l4 8l-66 86l-387 -174l-119 108q-59 -20 -135 -75.5t-176 -145.5l-156 70h-14q-53 0 -101 -62.5t-106 -204.5l-200 23l-82 -145l45 -113l-191 -31zM266 653l23 99l207 34l-56 136l64 112l205 -22q53 141 96 204.5t84 63.5h10l168 -74 q104 94 178 150.5t123 73.5l119 -111l383 172l47 -61l-37 -54l8 -20l385 74l119 -13l-61 -117h428l22 -36q-37 -94 -115 -113l316 -98q4 0 -2 -13l-4 -10q-37 -94 -166 -108q199 -97 176 -146q0 -2 -3 -3t-5 -3l-64 -80h-159l49 -149q4 -4 -4 -23l-7 -16q-25 -66 -88 -80 l-157 41l-109 -227q-41 -43 -84 -43q-35 0 -73.5 20t-79.5 57l-252 -207l-103 -22l-61 117l-412 -191l-51 19l45 114l-465 -75l-43 38l53 95l-446 41l29 71l73 62l-260 57q-53 0 -24 74l145 94zM324 709l239 -168l-233 -97l391 -98l-189 -110l494 -19l-100 -131l473 94 l26 -80l-47 -75l430 192l119 -117l262 232l205 -76l117 262l217 -37l7 10.5t5 10.5q20 51 -55 227l235 23l-4 34l-227 156l201 55h22l-8 37l-373 96l185 111h-480l88 135l-495 -76l33 117l-33 13l-385 -166l-96 112l-281 -225q-25 -8 -47 -8q-68 0 -141 82l-138 -264 l-227 18l-8 -80l59 -170zM504 621l141 14l-72 194l9 50l194 -19l-160 -336l-6 11l13 6zM555 420l84 35l20 -31l136 41l14 39q4 -4 7 -5t7 -5l31 -50q23 -35 72 -34q16 0 28.5 2t22.5 6q6 2 19.5 4t21.5 4l29 96q2 0 3 -1t3 -1l30 -51q25 -35 86 -35q23 0 33 2q4 0 8 1t11 1 q51 0 104 51l37 -61l100 18l37 101l14 -12l19 -31q41 -66 94 -66l23 17l12 -19l135 39l2 6l8 -12h99q27 29 46 48.5t36 25.5v-2l43 -66l63 -29l4 13l10 -17l99 15l41 106q2 -4 6 -7t8 -7l18 -29q37 -66 88 -67l7 -11l2 2l45 -67l-37 -84l-191 72l-260 -230l-114 113 l-346 -156l-11 33l-35 53l-8 31l-321 -64l12 13l-47 73l8 11l-297 10l45 27l-45 73l14 8zM645 530l166 344l59 13l-139 -330zM819 655q6 16 9 25.5t8 21.5q57 154 303 193l-37 -84q-10 6 -16.5 7t-16.5 1q-43 0 -100 -45q-80 -70 -107 -137q-25 -63 47 -64q20 0 64 7 l-19 -60q-23 -4 -38 -8t-31 -4q-94 0 -66 147zM819 901l107 207q66 -63 135 -64q20 0 61 13l267 211l92 -107l317 137l-6 -28l10 2l47 -74l365 55l-25 -39h15l43 -71h260l-43 -27l22 -6l41 -68l219 -59l-127 -33l25 -18l39 -62l147 -102l-170 -16l39 69l-47 72l6 10l-116 33 l-31 -74l-19 33l5 10l-95 33l-82 -197l-55 121l-16 21l-33 73l-41 -108l-16 29q-6 59 -64 59q-16 0 -25.5 -2t-35.5 -12q-23 -20 -42.5 -39t-37.5 -39l4 6l-45 72l6 14l-121 -27l-35 -71l-20 39l4 10l-94 35l-82 -197l-55 123l-19 29l-29 65l-38 -106l-5 6q-12 72 -106 71 h-45l-2 -6q-35 -20 -68 -47l-33 53l9 15q-76 -12 -134.5 -31.5t-105.5 -46.5l-35 57l6 15zM952 602q27 39 74 80h2q16 10 28.5 19.5t22.5 13.5q-33 -55 -61 -127v-15l-14 23l4 14q-16 -4 -30.5 -5t-25.5 -3zM1047 590q80 209 229 295h14v2h19q104 0 84 -113 q-115 -238 -211 -237q-12 0 -24.5 -2.5t-27.5 -2.5q-86 0 -83 58zM1141 678q-31 -80 18 -80q16 0 40 6t52 23q50 51 68 98q4 12 8 23.5t-4 17.5q-4 43 -41 43q-51 0 -131 -107zM1231 641q8 10 16.5 18.5l16.5 16.5q-6 -8 -13.5 -15.5t-13.5 -17.5q-4 -2 -6 -2zM1343 530 l125 338l99 -215l98 234l49 -19l-127 -331q-80 0 -125 165l-63 -161zM1649 545l166 342l63 14l-143 -332zM1788 567q37 82 99.5 164t154.5 168q18 8 25.5 9t17.5 1q61 0 41 -106l-90 -250l-35 14q2 76 -41 76q-41 0 -109 -76h-63zM1937 715h105l6 112zM2089 545l125 338 l102 -215l99 233l47 -16l-129 -334q-74 0 -127 164l-62 -162zM2365 518l56 35l39 -23l-72 -51zM2441 578l2 2l2 -5zM2443 643l111 258l67 -18l-131 -248zM2548 541l100 186q70 -168 68 -215z" />
<glyph unicode="&#xb7;" horiz-adv-x="526" d="M215 541.5q14 -52.5 53 -82.5l21 -35q20 -31 50 -50.5t69 -19.5q37 0 74.5 14.5t72.5 40t62.5 58.5t41.5 70q43 113 7 170l-29 45q-20 88 -174 112l-17 -4q-31 -18 -64.5 -40.5t-64 -48.5t-56 -56.5t-40.5 -67.5q-20 -53 -6 -105.5zM240 577.5q-4 34.5 8 69.5 q25 63 85.5 108.5t119.5 82.5q111 -16 144.5 -67.5t-7.5 -156.5q-12 -33 -36 -62.5t-54.5 -51t-64.5 -34.5t-66 -13q-35 0 -62.5 17t-45 45t-21.5 62.5z" />
<glyph unicode="&#xb8;" horiz-adv-x="393" d="M-121 -256q33 57 78 76.5t92 32.5q2 0 6 1t8 1q2 2 9 2q-41 49 -66.5 105t-5.5 110q57 0 113.5 -8.5t102.5 -27t79 -48t43 -72.5l24 -39q18 -29 21.5 -68.5t-16.5 -91.5q-12 -31 -25.5 -53t-31 -42.5t-41 -41t-58.5 -49.5l-111 -25q-113 6 -149 70l-27 43q-51 39 -45 125 zM-94 -256q-8 -66 34 -100.5t119 -38.5l101 22q31 25 52 43.5t36.5 37t27 39t23.5 48.5q27 72 10.5 120t-60.5 76.5t-106.5 41t-126.5 12.5q-6 -18 2.5 -41.5t23.5 -50.5t36.5 -53.5t44.5 -51.5q-27 -12 -57.5 -18t-60.5 -15.5t-55.5 -24.5t-43.5 -46z" />
<glyph unicode="&#xb9;" horiz-adv-x="456" d="M395 946.5q-2 22.5 4 38.5l119 313l-2 7q-16 8 -22 20l4 2q-4 10 -3 23.5t5 21.5q2 8 8 15.5t16.5 15.5t26.5 19.5t41 27.5q16 12 48 34.5t67 45.5q14 10 30 20q70 -76 99 -170q-2 -8 -5 -14q-10 -25 -23 -39t-27.5 -24.5t-25 -22.5t-20.5 -35q-4 -8 -10 -28.5t-15.5 -47 t-17.5 -53t-14 -47.5q55 -6 31 -65q-8 -20 -40 -51t-71 -59t-76 -48.5t-55 -20.5q-6 0 -18 4l-19 35q-16 27 -25.5 63t1.5 58l116 307l-4 6l2 5q-4 0 -4 2l-14 22l4 -4l-2 2q-6 8 -4 23.5t6 23.5q6 16 23.5 28.5t64.5 45.5q20 14 59 40.5t80 55.5q33 -37 55 -74l37 -59v-2 l13 -16q12 -23 22 -44.5t17 -43.5q0 -8 -5 -15q-8 -23 -20 -36t-27 -23q-12 -10 -24.5 -24.5t-22.5 -37.5q-6 -16 -23.5 -64t-29.5 -87l29 -45h-2q0 2 -2 2l4 -2q8 -12 -2 -45q-8 -20 -39 -49t-70 -56.5t-75 -47t-52 -19.5q-10 0 -19.5 9t-19.5 23l-28 43q-12 8 -23.5 28 t-20 43.5t-10.5 46zM423 948.5q3 -22.5 10 -44t19.5 -37t24.5 -15.5q14 0 46 17.5t65 41t60.5 49t33.5 44.5q18 45 -37 38q0 8 8.5 38t19.5 63t21.5 62.5t14.5 39.5q10 27 24.5 43.5t27.5 27.5t25.5 21.5t18.5 28.5q0 2 1 6l1 4q-18 74 -82 140q-61 -43 -99 -68t-59.5 -40 t-30 -22.5t-10.5 -13.5t-5 -18.5t1 -14.5q4 -6 14.5 -13t16.5 -7l-127 -334q-6 -14 -3 -36.5zM453 907l122 318q12 -4 19 -4l-43 67l4 6q4 16 21.5 28.5t64.5 45.5q23 14 61.5 41t77.5 55q8 -10 15.5 -17t13.5 -15q6 -12 11 -26t9 -26q-2 -8 -4 -14q-10 -23 -21 -36 t-25.5 -23.5t-27 -24.5t-22.5 -37q-4 -10 -12 -33.5t-18.5 -51t-18.5 -55.5l-12 -42h-15l43 -72q-12 -23 -43.5 -50.5t-67.5 -52t-69 -41t-47 -16.5q-8 0 -14 3q-12 41 -2 73zM823 1413l2 -4q-6 0 -2 4z" />
<glyph unicode="&#xba;" horiz-adv-x="675" d="M371 1036l6 13q12 33 43 47l129 331q8 23 42 33t79 19q12 2 23.5 3t23.5 5q8 2 14 3t17 3q35 8 63.5 14t38.5 11q4 0 27.5 10t46.5 20q8 4 16 7.5t16.5 7.5t16.5 4q35 -10 53 -36t29 -61l18 -32q23 -35 28 -80t1 -82l-27 -68q-4 -10 -5 -18t-5 -16l-10 -25 q-29 -76 -47.5 -119t-39 -67.5t-50 -39t-78.5 -34.5q-37 -16 -86 -37l-33 -21q-23 -14 -45.5 -28.5t-34.5 -16.5q-8 -2 -18 -2q-16 0 -43 13.5t-54.5 34t-52 44t-37.5 46.5l-20 28q-25 25 -38 47.5t-7 38.5zM397 1036q-6 -16 15.5 -41.5t52.5 -50t64.5 -43t52.5 -18.5 q4 0 10 1l6 1q2 0 17.5 9t34 20.5t34.5 21.5t21 12q76 35 116.5 50.5t67 38t46 63.5t52.5 127l10 24q6 16 12.5 36t12.5 36l10 25q2 25 1 55.5t-9 58t-22.5 49t-40.5 27.5q-4 -2 -20.5 -9t-37 -15.5t-37 -15.5t-20.5 -7q-18 -6 -62.5 -15.5t-90.5 -18.5t-82 -17t-36 -13 l-135 -350q-27 0 -37 -28zM678 1092l108 286q10 -4 15.5 -20.5t1.5 -26.5l-101 -260q-10 0 -19 5t-5 16z" />
<glyph unicode="&#xbb;" horiz-adv-x="1034" d="M143 469l101 -334h8l45 -72h12q6 0 35 30t71 77t90 105.5t95 115.5l82 -268h8l45 -72h13q6 0 40.5 36t84 92.5t103.5 123t103 129t83 110.5t42 66l4 10l-32 549l-41 66v18h-19q-6 0 -32.5 -21.5t-62.5 -55t-78 -74.5t-79 -81t-63.5 -73t-32.5 -51q-6 -12 -6 -21 q0 -4 2 -6v-2q16 -29 48 -78t65 -92q8 -10 15 -22t15 -23l-196 -116q45 61 55 86l4 10l-33 549l-41 65v19h-18q-6 0 -33 -21.5t-62.5 -55.5t-77.5 -75t-79 -81t-63.5 -72.5t-32.5 -51.5q-4 -16 -4 -20h-2l4 -6q0 -2 2 -2q12 -29 45 -78t63 -92q8 -10 15.5 -22.5t15.5 -22.5z M178 463l334 201q-8 10 -30.5 40.5t-47 66.5t-47 71t-31.5 53q-6 8 15.5 38t55.5 68.5t75 82.5t77.5 79t62.5 56.5t28 17.5l30 -532q0 -10 -30.5 -55.5t-77.5 -108t-103.5 -131t-104.5 -126t-82 -92t-36 -30.5zM348 856l17 -27q-4 6 -8.5 13.5t-8.5 13.5zM614 451l336 200 q-8 10 -30.5 41t-47 67t-48 70.5t-31.5 53.5q-4 8 16 37.5t55 68.5t76 83t78 79t62.5 56.5t27.5 17.5l31 -533q0 -10 -31 -56t-78 -107.5t-102.5 -130t-103.5 -125t-81.5 -92.5t-37.5 -31z" />
<glyph unicode="&#xbc;" horiz-adv-x="1304" d="M185 51q1 -35 9.5 -61.5t26.5 -34.5l35 -57q12 -18 29 -19q31 0 91 26.5t125.5 64.5t125 82t88.5 81q29 35 35 55q12 27 2 43l-29 45q23 31 53.5 70t67.5 84l-58 -149q-10 -23 27 -50l31 -47q10 -18 39.5 -38.5t60.5 -41.5l-2 -16q-6 -23 -9 -40t1 -28q0 -14 -2 -20 q-8 -27 12 -33l41 -65q2 -8 31 -8q31 0 58.5 24.5t52 60t44 75.5t33.5 69l4 12q4 -4 9 -4l8 -8t16 -4q47 0 68 51l6 18q12 31 9 52.5t-11 44.5q-4 16 -8.5 35.5t6.5 41.5q8 20 25.5 43t33.5 39q12 14 22.5 25.5t16.5 24.5q2 12 0 18l-41 66q4 10 0 15t-12 11l-105 53 q-41 -14 -71.5 -26.5t-59.5 -34.5l-4 4l-6 4h2q-18 16 -39.5 31.5t-42.5 15.5h-2q-2 0 -14 -4q23 29 40 49.5t27 32.5q49 59 100.5 94t98.5 62q33 18 62.5 35.5t56.5 44.5l16 -25l25 61q43 152 -33 318l-29 43q-4 10 -8 21.5t-8 21.5q-16 -10 -36.5 -22.5t-41.5 -22.5 q-12 -6 -21.5 -12.5t-17.5 -10.5q-129 -72 -210 -115.5t-128 -70.5t-68.5 -42t-33.5 -27.5t-25.5 -35t-19.5 -36.5q-4 -16 -4 -21v-2q2 -2 0 -4q2 -8 8 -15t16 -18l6 -8l-540 -676q-12 -14 -19.5 -29.5t-15.5 -35.5q-14 -35 -20.5 -75t-5.5 -75zM212 90q3 45 17.5 92 t36.5 74l561 702q-10 0 -25.5 15.5t-17.5 25.5q-2 2 2.5 12.5t11.5 21.5t14 21.5t11 14.5q12 10 36 25.5t79 47.5t151.5 86t253.5 140q66 -147 27 -291l-4 -8q-2 -6 -4 2t-6 2q-29 -35 -68 -58.5t-83 -48t-92 -59.5t-95 -92q-12 -16 -44 -56t-74 -91.5t-87 -109.5 t-86 -109.5t-71.5 -92.5t-41.5 -57q61 14 68.5 -8.5t-31.5 -71.5q-29 -35 -84 -77t-117.5 -78.5t-119 -61.5t-84.5 -25q-23 0 -30 34t-4 79zM395 946.5q2 -22.5 10.5 -46t19.5 -43t24 -28.5l28 -43q10 -14 19.5 -23t19.5 -9q16 0 52 19.5t75 47t69.5 56t39.5 49.5 q10 33 2 45l-29 45q12 39 29.5 87t23.5 64q10 23 22.5 37.5t24.5 24.5q14 10 26.5 23.5t20.5 35.5q4 6 5 15q-6 23 -16.5 44t-22.5 44l-13 16v2l-37 59q-23 37 -55 74q-41 -29 -80 -55.5t-59 -40.5q-47 -33 -64.5 -45t-23.5 -29q-4 -8 -6 -23.5t4 -23.5l2 -2l-4 4l14 -22 q0 -2 4 -2l-2 -5l4 -6l-116 -307q-10 -23 -1 -58.5t25 -62.5l19 -35q12 -4 18 -4q18 0 55 20.5t76 48.5t70.5 58.5t40.5 51.5q25 59 -31 65q6 20 14 47t17.5 53.5t15.5 47t10 28.5q10 23 20.5 35t25 22.5t27.5 24.5t23 39q2 6 5 14q-29 94 -99 170q-16 -10 -30 -20 q-35 -23 -67 -45.5t-48 -34.5q-25 -16 -41 -27.5t-26.5 -19.5t-16.5 -15.5t-8 -15.5q-4 -8 -5 -21.5t3 -23.5l-4 -2q6 -12 22 -20l2 -7l-119 -313q-6 -16 -4 -38.5zM423 948.5q-3 22.5 3 36.5l127 334q-6 0 -16.5 7t-14.5 13q-4 2 -1 14.5t5 18.5t10.5 13.5t30 22.5t59.5 40 t99 68q63 -66 82 -140l-1 -4t-1 -6q-6 -18 -18.5 -28.5t-25.5 -21.5t-27.5 -27.5t-24.5 -43.5q-4 -10 -14.5 -39.5t-21.5 -62.5t-19.5 -62.5t-8.5 -38.5q55 6 37 -38q-6 -18 -33.5 -44t-60.5 -49.5t-64.5 -41t-46.5 -17.5q-12 0 -24.5 15.5t-19.5 37t-10 44zM453 907 q-10 -33 2 -73q6 -2 14 -3q14 0 47 16.5t69 41t67.5 52.5t43.5 50l-43 72h15l12 42t18.5 55.5t18.5 51t12 33.5q10 23 22.5 37t27 24.5t25.5 23.5t21 36q2 6 4 14q-4 12 -9 25.5t-11 26.5q-6 8 -13.5 15t-15.5 17q-39 -29 -77.5 -55.5t-61.5 -40.5q-47 -33 -64.5 -45 t-21.5 -29l-4 -6l43 -67q-6 0 -19 4zM713 246h2l35 -58zM813 281l96 251q2 4 15.5 19.5t30 32t35 29t28.5 12.5q8 0 24.5 -9.5t32 -21.5t27.5 -21.5t14 -9.5q29 29 55.5 42t67.5 26l98 -51q6 -4 -4 -17.5t-26.5 -32t-36 -42t-27.5 -48.5q-10 -27 -8 -48t8 -40.5t9 -40 t-5 -45.5l-8 -18q-10 -31 -37 -31q-12 0 -16 9.5t-19 9.5q-4 0 -8 -1.5t-8 -1.5q-10 -18 -27.5 -58t-42 -81t-52.5 -71.5t-54 -30.5q-18 0 -17 8q4 10 5 37q0 2 2 19.5t6 39t6 41t2 23.5t-27.5 20.5t-59.5 36t-57.5 37.5t-21.5 27zM823 1413q-4 -4 2 -4zM991 322l43 32 l53 135l-10 15l-20 -15z" />
<glyph unicode="&#xbd;" horiz-adv-x="1323" d="M185 51q-1 35 5.5 75t20.5 75q8 20 15 35.5t20 29.5l540 676l-6 8q-10 10 -16 17.5t-8 15.5q2 2 0 4v2q0 4 4 21q6 14 19.5 36.5t25.5 35t33.5 27.5t68.5 42t128 71t210 115q8 4 17.5 10.5t21.5 12.5q20 10 41 22.5t37 22.5q4 -10 8 -21.5t8 -21.5l29 -43 q76 -166 33 -318l-25 -61l-16 25q-27 -27 -56.5 -44.5t-62.5 -35.5q-47 -27 -98.5 -62t-100.5 -94q-12 -16 -41.5 -53t-68.5 -86q-31 -39 -65 -81t-66.5 -84t-63.5 -80t-53 -69l29 -45q10 -16 -2 -43q-6 -20 -35 -55q-29 -37 -88.5 -81t-125 -82t-126 -64.5t-90.5 -26.5 q-16 0 -29 19l-35 57q-18 8 -26.5 34.5t-9.5 61.5zM212 90q-3 -45 4 -79t30 -34q29 0 85 25t118.5 61.5t118 78.5t83.5 77q39 49 32 71.5t-69 8.5q10 16 41 57t72 92.5t86 109.5t87 109.5t74 91.5t44 56q47 57 95 92t92 59.5t83 48t68 58.5q4 6 6 -2t4 -2l4 8 q39 143 -27 291q-158 -86 -254 -140t-151 -86t-78.5 -47.5t-36.5 -25.5q-4 -4 -11 -14.5t-14 -21.5t-11.5 -21.5t-2.5 -12.5q2 -10 17.5 -25.5t25.5 -15.5l-561 -702q-23 -27 -37 -74t-17 -92zM395 946.5q-2 22.5 4 38.5l119 313l-2 7q-16 8 -22 20l4 2q-4 10 -3 23.5 t5 21.5q2 8 8 15.5t16.5 15.5t26.5 19.5t41 27.5q16 12 48 34.5t67 45.5q14 10 30 20q70 -76 99 -170q-2 -8 -5 -14q-10 -25 -23 -39t-27.5 -24.5t-25 -22.5t-20.5 -35q-4 -8 -10 -28.5t-15.5 -47t-17.5 -53t-14 -47.5q55 -6 31 -65q-8 -20 -40 -51t-71 -59t-76 -48.5 t-55 -20.5q-6 0 -18 4l-19 35q-16 27 -25.5 63t1.5 58l116 307l-4 6l2 5q-4 0 -4 2l-14 22l4 -4l-2 2q-6 8 -4 23.5t6 23.5q6 16 23.5 28.5t64.5 45.5q20 14 59 40.5t80 55.5q33 -37 55 -74l37 -59v-2l13 -16q12 -23 22 -44.5t17 -43.5q0 -8 -5 -15q-8 -23 -20 -36t-27 -23 q-12 -10 -24.5 -24.5t-22.5 -37.5q-6 -16 -23.5 -64t-29.5 -87l29 -45q8 -12 -2 -45q-8 -20 -39 -49t-70 -56.5t-75 -47t-52 -19.5q-10 0 -19.5 9t-19.5 23l-28 43q-12 8 -23.5 28t-20 43.5t-10.5 46zM423 948.5q3 -22.5 10 -44t19.5 -37t24.5 -15.5q14 0 46 17.5t65 41 t60.5 49t33.5 44.5q18 45 -37 38q0 8 8.5 38t19.5 63t21.5 62.5t14.5 39.5q10 27 24.5 43.5t27.5 27.5t25.5 21.5t18.5 28.5q0 2 1 6l1 4q-18 74 -82 140q-61 -43 -99 -68t-59.5 -40t-30 -22.5t-10.5 -13.5t-5 -18.5t1 -14.5q4 -6 14.5 -13t16.5 -7l-127 -334 q-6 -14 -3 -36.5zM453 907l122 318q12 -4 19 -4l-43 67l4 6q4 16 21.5 28.5t64.5 45.5q23 14 61.5 41t77.5 55q8 -10 15.5 -17t13.5 -15q6 -12 11 -26t9 -26q-2 -8 -4 -14q-10 -23 -21 -36t-25.5 -23.5t-27 -24.5t-22.5 -37q-4 -10 -12 -33.5t-18.5 -51t-18.5 -55.5l-12 -42 h-15l43 -72q-12 -23 -43.5 -50.5t-67.5 -52t-69 -41t-47 -16.5q-8 0 -14 3q-12 41 -2 73zM713 246l37 -58l-35 58h-2zM782 129l49 150l130 77l-21 37q-20 16 -31.5 36t-3.5 42l8 21q10 6 29 28.5t39 44.5q25 31 59 66l-2 -2l6 8q16 23 41 43t48 20q4 0 6 -2h6 q10 -4 37.5 -16t56.5 -27q25 -14 49.5 -24t34.5 -15q20 -12 40.5 -30.5t20.5 -46.5l33 -52q16 -23 4 -53l-37 -98l-127 -88q12 -16 11 -33l35 -51h-3q0 2 -2 2l5 -2q12 -23 6 -43q-4 -8 -13 -17q-10 -16 -32.5 -40.5t-40.5 -47.5q-10 -14 -23 -28l-14 -13q4 2 -1 -3l-9 -9 q-16 -16 -42 -38.5t-44 -22.5h-13q-12 4 -38.5 10t-55.5 14q-14 4 -16 4t-7.5 1t-20.5 6.5t-56 17.5q-10 6 -20.5 16.5t-18.5 22.5l-27 39q-18 12 -33.5 35.5t-1.5 60.5zM811 131q-12 -29 7.5 -50.5t35.5 -31.5q10 -4 37 -10t56.5 -14.5t56 -14.5t36.5 -10h9q8 0 19 9 t23.5 21.5t21.5 22.5t13 13q4 6 20.5 24.5t35 39t34 38.5t17.5 25l3 2t3 4q6 18 -4 33.5t-28.5 27.5t-38 19.5t-29.5 7.5q-16 0 -23 -6l203 141l35 90q10 29 -7.5 48.5t-37.5 29.5q-12 4 -37 15t-52.5 25.5t-53 26t-36.5 15.5q-2 0 -3 1t-5 1q-10 0 -22.5 -10.5t-22.5 -23.5 t-19 -23.5t-11 -10.5q-6 -6 -22.5 -24.5t-34 -40t-33 -39t-21.5 -21.5l-4 -10q-6 -16 5 -32.5t29.5 -29t38 -19.5t29.5 -7q14 0 30.5 12.5t32 28.5t28 32.5t22.5 24.5l8 -30l-301 -185zM823 1413l2 -4q-6 0 -2 4zM969 174l118 86q-10 -8 -20 -23.5t-20.5 -31t-18.5 -28.5 t-12 -17z" />
<glyph unicode="&#xbe;" horiz-adv-x="1388" d="M267 49q1 -37 10.5 -63.5t27.5 -32.5l35 -55q12 -18 27 -19q31 0 91 26.5t126.5 64.5t126 82t88.5 81q14 16 23 31.5t14 25.5q10 31 2 41l-29 50q23 31 53.5 70.5t65.5 80.5l-58 -151q-8 -20 31 -54l27 -41q8 -18 37.5 -38.5t60.5 -41.5l-2 -18q-4 -18 -5 -33.5t-1 -25.5 q0 -8 1 -15.5t-3 -13.5q-8 -27 12 -33l41 -65q2 -8 29 -8q31 0 59.5 25.5t53 61t45 75.5t32.5 69l4 10q4 -4 8 -4q4 -4 8.5 -8t16.5 -4q47 0 68 51l6 18q12 31 9 52.5t-11 44.5q-4 16 -8.5 35.5t6 42t28 45t33.5 38.5q12 14 20.5 24.5t12.5 21.5q6 10 -2 22l-39 61 q4 18 -10 29l-103 53q-41 -14 -71.5 -26.5t-59.5 -34.5l-4 4l-6 4h2q-18 16 -39.5 31.5t-42.5 15.5h-2q-4 0 -5 -1t-3 -1q23 29 37 49.5t24 30.5q49 59 100.5 94t98.5 62q31 16 60.5 33.5t58.5 46.5l16 -25l25 61q23 76 12.5 155t-47.5 161l-29 43q-4 10 -8 21.5t-8 21.5 q-39 -20 -82 -44t-78 -44q-16 -10 -29.5 -17.5t-23.5 -13.5t-19.5 -11t-19.5 -9q-86 -47 -138.5 -77t-86.5 -50l55 145q12 31 -4 53l-33 51q0 29 -21.5 47.5t-39.5 28.5q-10 6 -37 19.5t-57.5 26t-59.5 23.5t-41 15h-14q-25 0 -46.5 -17.5t-37.5 -35.5l-10 -10l-3 -2 q-20 -16 -35.5 -36t-25.5 -36v-2q-6 -8 -15.5 -17.5t-13.5 -17.5q10 10 11 2q-12 -12 -13 -16h-6l-4 -10q-10 -23 -1 -40.5t26 -31.5l32 -49v-4l-104 -49q-25 -12 -29 -21q-6 -16 23 -37l26 -45q-4 2 -14 2q-4 0 -4 2q-18 6 -31 6q-35 0 -49 -16t-24.5 -43t-10.5 -35t15 -24 h-4q4 -2 8 -6.5t10 -8.5l29 -45q4 -4 6 -8t8 -8q4 -4 8 -6l2 -2q6 -4 15.5 -13.5t25.5 -23.5q27 -27 58.5 -55.5t46.5 -36.5h8q4 0 7 -1t7 -1q27 0 75 23.5t97 57.5l-450 -563q-12 -14 -19.5 -29.5t-15.5 -33.5q-14 -35 -20.5 -76t-5.5 -78zM295 90q4 45 17.5 92t35.5 74 l563 702q-10 0 -25.5 15.5t-19.5 25.5q0 2 5.5 11.5t11.5 20.5t12 22.5t10 15.5q10 10 35 26.5t81 48.5t152.5 85t251.5 139q68 -147 29 -291l-4 -8q-2 -6 -4 2t-6 2q-31 -35 -70 -58.5t-83 -48t-91 -59.5t-94 -92q-12 -16 -45 -56t-74 -91.5t-87 -109.5t-87 -109.5 t-71.5 -92.5t-41.5 -57q66 14 72 -8.5t-33 -71.5q-29 -35 -84 -77t-117.5 -78.5t-120 -61.5t-85.5 -25q-20 0 -28.5 34t-4.5 79zM388.5 996q-3.5 5 4.5 26q4 14 12.5 23.5t24.5 9.5q23 0 37 -9.5t43 -9.5q20 0 58 11.5t65 33.5q-23 8 -53.5 18.5t-58 19.5t-44 17.5 t-12.5 10.5l180 82l41 -25l47 123q-14 -16 -32.5 -37.5t-53.5 -21.5q-10 0 -30.5 5t-39 16t-30.5 25.5t-4 33.5l2 6q6 6 16 20.5t21.5 29.5t22.5 29.5t18 20.5q2 0 12 10.5t22.5 22.5t24.5 22.5t23 10.5h6q12 -4 40.5 -15.5t59.5 -24t56.5 -24.5t35.5 -18q20 -10 41 -29.5 t10 -48.5l-129 -338q-10 -25 -43.5 -55.5t-73.5 -57t-80 -45t-61 -18.5q-6 0 -11 1t-7 1q-10 4 -29.5 22.5t-42 40t-42 40t-27.5 24.5q-16 16 -19.5 21zM897 281l96 251q2 4 15.5 19.5t30 32t35 29t28.5 12.5q8 0 24.5 -9.5t32 -21.5t27.5 -21.5t14 -9.5q29 29 55.5 42 t67.5 26l96 -51q6 -4 -3 -17.5t-26.5 -32t-36 -42t-26.5 -48.5q-10 -27 -8 -48t8 -40.5t9 -40t-5 -45.5l-8 -18q-10 -31 -37 -31q-14 0 -17 9.5t-20 9.5q-2 0 -7 -1.5t-7 -1.5q-10 -18 -28.5 -58t-42 -81t-52.5 -71.5t-55 -30.5q-16 0 -15 8q4 10 5 37q0 2 2 19.5t5 39t5 41 t2 23.5t-26.5 20.5t-58.5 36t-57.5 37.5t-21.5 27zM1073 322l45 32l53 135l-10 15l-22 -15z" />
<glyph unicode="&#xbf;" horiz-adv-x="970" d="M92 238q14 -37 43 -62l23 -35q16 -23 36.5 -41t43.5 -28q16 -6 47.5 -20.5t66.5 -31.5h2q33 -14 70 -30.5t70.5 -31.5t62.5 -29.5t45 -24.5h4q4 -4 19 -4q16 0 36.5 13t42 31.5t40 39t32.5 36.5q8 10 13.5 15.5l7.5 7.5q6 10 26 33q20 25 50 58.5t59 66t52.5 59.5 t33.5 33q10 23 12 26t4 5q14 37 -12 77l-27 41q-4 33 -29.5 61.5t-60.5 51.5l293 180l-108 250l-23 37l-23 45q39 -14 97 -25l16 5q63 39 127 87t92 119q16 39 11 77t-25 69l-23 33q-12 51 -51 85.5t-90 34.5q-37 0 -77 -15t-75.5 -41t-63.5 -59.5t-42 -72.5 q-57 -143 14 -201l31 -47q8 -16 22.5 -26.5t32.5 -20.5l-346 -227q-10 -2 -22 -8l-8 -7q-31 -16 -68 -35.5t-70.5 -39t-62.5 -36t-43 -26.5l-250 -180l-74 -188q-18 -47 -4 -84zM118 269.5q-5 23.5 5 52.5l70 178l239 172q25 18 81 49t111.5 61.5t96.5 52t37 21.5l268 176 l96 -217l-405 -250q20 14 47 15q20 0 60 -14.5t76 -39t57.5 -57.5t7.5 -68q-2 -4 -7 -12l-4 -8q-10 -8 -40.5 -43t-66.5 -76t-67.5 -79t-42.5 -50q-6 -4 -23.5 -25.5t-41 -46t-47 -44t-39.5 -19.5q-6 0 -9.5 2t-9.5 2q-18 12 -68 35.5t-106.5 48.5t-108 46.5t-71.5 31.5 q-18 10 -38.5 25.5t-36 36t-20.5 44zM518 444l17 -63q12 14 30.5 37.5t41 48.5t47 48.5t46.5 39.5zM958.5 1208.5q-32.5 51.5 8.5 155.5q12 33 35.5 62.5t54 51t64.5 35t67 13.5t61.5 -17.5t46 -45t21.5 -62.5t-8 -70q-27 -66 -86.5 -109.5t-118.5 -80.5 q-113 16 -145.5 67.5z" />
<glyph unicode="&#xc0;" horiz-adv-x="1159" d="M110.5 283.5q-12.5 -105.5 47.5 -199.5q8 -12 16 -25.5t21 -23.5l16 -25q2 -2 2 -4t2 -4q12 -20 28.5 -36.5t49.5 -16.5q41 0 98.5 43t116.5 90q25 20 49.5 39.5t40.5 30.5q10 -33 26.5 -66t43.5 -51l22 -35q14 -23 32.5 -37t45.5 -14h35q23 20 58.5 44.5t76.5 51.5 q49 33 95 64.5t69 52.5q6 4 11 5t11 5q25 10 33 18.5t21 40.5q6 16 1 41t-16 41l-28 45q-4 18 -13.5 34t-15.5 18l96 252q20 53 39 96t49 102q8 4 17.5 8t21.5 11h-2q27 10 50.5 25.5t37.5 51.5q10 23 8 40.5t-10 31.5l-31 49q-4 37 -33.5 58.5t-62.5 38.5q-4 2 -6 2t-4 2 q-14 6 -22 11l-9 5q-45 35 -63 80q-23 35 -43.5 59.5t-65.5 24.5q-33 0 -57.5 -10.5t-52.5 -26.5q-6 -4 -14.5 -8t-20.5 -10q-2 -2 -4 -3q-2 0 -6 -2l4 2q-35 -16 -67 -29.5t-58 -23.5q-12 -4 -17 -6q-66 -25 -132 -52.5t-125.5 -66.5t-112 -91t-88.5 -128l-17 -43 q-4 -10 -8 -18t-8 -19l-117 -305q-49 -129 -61.5 -234.5zM139.5 293.5q12.5 101.5 59.5 224.5l63 166l17 41q14 37 26 67.5t27 67.5l16 41q43 88 110.5 145.5t145.5 96.5t161 68.5t159 64.5q43 20 71.5 37.5t67.5 17.5q31 0 49 -16.5t32.5 -40t29 -49t38.5 -43.5 q14 -14 42 -26.5t52.5 -28t39 -37t2.5 -56.5q-8 -23 -22.5 -34t-31 -18t-34 -15.5t-33.5 -20.5q-18 -35 -32.5 -62.5t-26 -55t-21.5 -55.5t-23 -60l-32 -82l-13 -33l-35 -90l-6 -16q-2 -6 -8 -26t-9 -42.5t-1 -39.5t16 -17q16 0 28.5 8t29.5 8q4 0 8 -8t7 -20.5t3 -24.5 t-2 -21q-6 -14 -10 -20t-10.5 -11.5t-15.5 -9.5t-27 -14q-18 -16 -59.5 -45t-87.5 -59.5t-87 -59.5t-59 -43h-25q-39 0 -60.5 34t-36 76t-22.5 75.5t-20 33.5q-23 0 -66 -33.5t-92 -75.5t-97 -76t-81 -34q-29 0 -44 17.5t-28 37.5q-55 90 -42.5 191.5zM549 377q-6 -10 6 -17 h6h6q6 4 18.5 14.5l25 21t22.5 21.5t12 17l197 512l-6 6q-5 6 -9 15q-6 10 -11 27.5t-11 21.5h-8h-4l-31 -58l-6 -16l-37 -96l-17 -39l-81 -217q-39 -94 -72 -213zM918 1763q-4 -10 9 -53t34.5 -95t47 -99.5t46.5 -65.5l20 -33q27 -47 47 -47q4 0 8.5 1t12.5 5 q16 10 29.5 17.5t27.5 15.5q43 23 73 45.5t58 63.5q6 4 15 16q2 8 2 10q0 4 -5 10l-28 324l-43 66v20l-350 -186zM944 1738.5q-6 24.5 0 26.5l303 160l29 -305v-6t-6 -6q-16 -25 -33.5 -42.5t-39 -31.5t-48.5 -28.5t-59 -35.5q-10 -8 -26.5 10.5t-35 50.5t-36 71.5t-30 75.5 t-18.5 60.5zM1192 1237q4 -4 6 -7t6 -7q-4 4 -5 6t-5 6z" />
<glyph unicode="&#xc1;" horiz-adv-x="1159" d="M110.5 283.5q-12.5 -105.5 47.5 -199.5q8 -12 16 -25.5t21 -23.5l16 -25q2 -2 2 -4t2 -4q12 -20 28.5 -36.5t49.5 -16.5q41 0 98.5 43t116.5 90q27 20 50.5 39.5t41.5 32.5q10 -35 26.5 -67t41.5 -50l22 -37q14 -23 32.5 -37t45.5 -14h35q23 20 58.5 44.5t76.5 51.5 q49 33 95 64.5t69 52.5q6 4 11 5t11 5q25 10 33 18.5t21 40.5q6 16 1 41t-16 41l-28 45q-4 18 -13.5 34t-15.5 18l96 252q20 53 39 96t49 102q8 4 17.5 8t21.5 11h-2q27 10 50.5 25.5t37.5 51.5q10 23 8 40.5t-10 31.5l-31 49q-4 37 -33.5 58.5t-62.5 38.5q-4 2 -6 2t-4 2 q-14 6 -22 11l-9 5q-45 35 -63 80q-23 35 -43.5 59.5t-65.5 24.5q-33 0 -57.5 -10.5t-52.5 -26.5q-6 -4 -14.5 -8t-20.5 -10q-2 -2 -4 -3q-2 0 -6 -2l4 2q-35 -16 -67 -29.5t-58 -23.5q-12 -4 -17 -6q-66 -25 -132 -52.5t-125.5 -66.5t-112 -91t-88.5 -128l-17 -43 q-4 -10 -8 -18.5t-8 -18.5l-117 -305q-49 -129 -61.5 -234.5zM139.5 293.5q12.5 101.5 59.5 224.5l63 166l17 41q14 37 26 67.5t27 67.5l16 41q43 88 110.5 145.5t145.5 96.5t161 68.5t159 64.5q43 20 71.5 37.5t67.5 17.5q31 0 49 -16.5t32.5 -40t29 -49t38.5 -43.5 q14 -14 42 -26.5t52.5 -28t39 -37t2.5 -56.5q-8 -23 -22.5 -34t-31 -18t-34 -15.5t-33.5 -20.5q-18 -35 -32.5 -62.5t-26 -55t-21.5 -55.5t-23 -60l-32 -82l-13 -33l-35 -90l-6 -16q-2 -6 -8 -26t-9 -42.5t-1 -39.5t16 -17q16 0 28.5 8t29.5 8q4 0 8 -8t7 -20.5t3 -24.5 t-2 -21q-6 -14 -10 -20t-10.5 -11.5t-15.5 -9.5t-27 -14q-18 -16 -59.5 -45t-87.5 -59.5t-87 -59.5t-59 -43h-25q-39 0 -60.5 34t-36 76t-22.5 75.5t-20 33.5q-23 0 -66 -33.5t-92 -75.5t-97 -76t-81 -34q-29 0 -44 17.5t-28 37.5q-55 90 -42.5 191.5zM549 377q-6 -10 6 -17 h6h6q6 4 18.5 14.5l25 21t22.5 21.5t12 17l197 512l-6 6q-5 6 -9 15q-6 10 -11 27.5t-11 21.5h-8h-4l-31 -58l-6 -16l-37 -96l-17 -39l-81 -217q-39 -94 -72 -213zM922 1587q0 -37 12 -57.5t31 -38.5l24 -35q6 -10 15.5 -20.5t19.5 -20.5q8 -8 16.5 -18.5t18.5 -20.5 q4 -6 16 -6t46 21.5t77 55.5t89 73t86 73.5t66.5 60t28.5 32.5l5 12l-43 71l4 11l-211 184l-287 -334q-6 -4 -7 -6l-3 -6v2q-6 -6 -2 -8q-6 -16 -2 -25zM950 1608q-4 0 1 6l5 6l263 305l182 -160q2 -2 -23.5 -27.5t-65.5 -60.5t-87 -74.5t-89 -71.5t-72 -50.5t-34 -10.5 q-16 20 -32.5 35t-28 29t-17.5 31.5t-2 42.5zM1192 1237q2 -2 5 -4t5 -6l2 -4q-4 4 -5 6t-5 6z" />
<glyph unicode="&#xc2;" horiz-adv-x="1159" d="M110.5 283.5q-12.5 -105.5 47.5 -199.5q8 -12 16 -25.5t21 -23.5l16 -25h-2l2 -4q0 -4 4 -4q12 -20 28.5 -36.5t49.5 -16.5q41 0 98.5 43t116.5 90q27 20 50.5 39.5t41.5 32.5q10 -35 26.5 -67t41.5 -50l22 -37q14 -23 32.5 -37t45.5 -14h35q23 20 58.5 44.5t76.5 51.5 q49 33 95 64.5t69 52.5q6 4 11 5t11 5q25 10 33 18.5t21 40.5q6 16 1 41t-16 41l-28 45q-4 18 -13.5 34t-15.5 18l96 252q20 53 39 96t49 102q8 4 17.5 8t21.5 11h-2q27 10 50.5 25.5t37.5 51.5q10 23 8 40.5t-10 31.5l-31 49q-4 37 -33.5 58.5t-62.5 38.5q-4 2 -6 2t-4 2 q-14 6 -22 11l-9 5q-45 35 -63 80q-23 35 -43.5 59.5t-65.5 24.5q-33 0 -57.5 -10.5t-52.5 -26.5q-6 -4 -14.5 -8t-20.5 -10q-2 -2 -4 -3q-2 0 -6 -2l4 2q-35 -16 -67 -29.5t-58 -23.5q-12 -4 -17 -6q-66 -25 -132 -52.5t-125.5 -66.5t-112 -91t-88.5 -128l-17 -43 q-4 -10 -8 -18.5t-8 -18.5l-117 -305q-49 -129 -61.5 -234.5zM139.5 293.5q12.5 101.5 59.5 224.5l63 166l17 41q14 37 26 67.5t27 67.5l16 41q43 88 110.5 145.5t145.5 96.5t161 68.5t159 64.5q43 20 71.5 37.5t67.5 17.5q31 0 49 -16.5t32.5 -40t29 -49t38.5 -43.5 q14 -14 42 -26.5t52.5 -28t39 -37t2.5 -56.5q-8 -23 -22.5 -34t-31 -18t-34 -15.5t-33.5 -20.5q-18 -35 -32.5 -62.5t-26 -55t-21.5 -55.5t-23 -60l-32 -82l-13 -33l-35 -90l-6 -16q-2 -6 -8 -26t-9 -42.5t-1 -39.5t16 -17q16 0 28.5 8t29.5 8q4 0 8 -8t7 -20.5t3 -24.5 t-2 -21q-6 -14 -10 -20t-10.5 -11.5t-15.5 -9.5t-27 -14q-18 -16 -59.5 -45t-87.5 -59.5t-87 -59.5t-59 -43h-25q-39 0 -60.5 34t-36 76t-22.5 75.5t-20 33.5q-23 0 -66 -33.5t-92 -75.5t-97 -76t-81 -34q-29 0 -44 17.5t-28 37.5q-55 90 -42.5 191.5zM168 80l8 -14 q-6 4 -8 14zM203 18l6 -8q-4 2 -4 4t-2 4zM549 377q-6 -10 6 -17h6h6q6 4 18.5 14.5l25 21t22.5 21.5t12 17l197 512l-6 6q-5 6 -9 15q-6 10 -11 27.5t-11 21.5h-8h-4l-31 -58l-6 -16l-37 -96l-17 -39l-81 -217q-39 -94 -72 -213zM549 1561q-4 -6 5 -19.5t26 -32.5l26 -41 q12 -18 45 -50t72 -63.5t76 -54t59 -22.5q12 0 27 10q18 14 52 40t73 55.5t77.5 60.5t67.5 53l62 -166l6 4l45 -73l385 217q4 2 0 8l-43 67l2 5q2 6 -23.5 28.5t-66.5 52t-92.5 62.5t-99.5 60.5t-88 46t-56 18.5q-2 0 -3 -1t-3 -1h-6l-619 -246zM575 1563l594 235 q10 4 48 -9t87.5 -36.5t104.5 -53.5t99 -56.5t71 -46t20 -23.5l-364 -205l-92 258q-14 -12 -55 -45t-90.5 -72t-96.5 -74.5t-72 -54.5q-10 -8 -34.5 1.5t-55 29t-61.5 44t-55.5 47t-39 40t-8.5 21.5zM1192 1237q2 -2 5 -4t5 -6l2 -4q-4 4 -5 6t-5 6z" />
<glyph unicode="&#xc3;" horiz-adv-x="1159" d="M110.5 283.5q-12.5 -105.5 47.5 -199.5q8 -12 16 -25.5t21 -23.5l16 -25q2 -2 2 -4t2 -4q12 -20 28.5 -36.5t49.5 -16.5q41 0 98.5 43t116.5 90q25 20 49.5 39.5t40.5 30.5q10 -35 26.5 -67t43.5 -50l22 -35q14 -23 32.5 -37t45.5 -14h35q23 20 58.5 44.5t76.5 51.5 q49 33 95 64.5t69 52.5q6 4 11 5t11 5q25 10 33 18.5t21 40.5q6 16 1 41t-16 41l-28 45q-4 18 -13.5 34t-15.5 18l96 252q20 53 39 96t49 102q8 4 17.5 8t21.5 11h-2q27 10 50.5 25.5t37.5 51.5q10 23 8 40.5t-10 31.5l-31 49q-4 37 -33.5 58.5t-62.5 38.5q-4 2 -6 2t-4 2 q-14 6 -22 11l-9 5q-45 35 -63 80q-23 35 -43.5 59.5t-65.5 24.5h-4q14 10 27.5 17t27.5 18q20 14 40 21t38 24l113 -123l405 219l4 12l-6 6q2 0 2 -2h2l-43 68l2 6q2 6 -20.5 23.5t-58 42t-82.5 50t-91.5 48t-83 37t-61.5 14.5q-6 0 -13 -2t-11 -4v4q-53 -35 -90 -65.5 t-68 -59.5q-10 -6 -12 -12l-119 151l-416 -227l-4 -14q-2 -4 20 -25l35 -57q8 -12 51 -42t99.5 -62.5t116 -60.5t98.5 -36l-8 -6q-6 -4 -14.5 -8t-20.5 -10q-2 -2 -4 -3q-2 0 -6 -2l4 2q-35 -16 -67 -29.5t-58 -23.5q-12 -4 -17 -6q-66 -25 -132 -52.5t-125.5 -66.5 t-112 -91t-88.5 -128l-17 -43q-4 -10 -8 -18.5t-8 -18.5l-117 -305q-49 -129 -61.5 -234.5zM139.5 293.5q12.5 101.5 59.5 224.5l63 166l17 41q14 37 26 67.5t27 67.5l16 41q43 88 110.5 145.5t145.5 96.5t161 68.5t159 64.5q43 20 71.5 37.5t67.5 17.5q31 0 49 -16.5 t32.5 -40t29 -49t38.5 -43.5q14 -14 42 -26.5t52.5 -28t39 -37t2.5 -56.5q-8 -23 -22.5 -34t-31 -18t-34 -15.5t-33.5 -20.5q-18 -35 -32.5 -62.5t-26 -55t-21.5 -55.5t-23 -60l-32 -82l-13 -33l-35 -90l-6 -16q-2 -6 -8 -26t-9 -42.5t-1 -39.5t16 -17q16 0 28.5 8t29.5 8 q4 0 8 -8t7 -20.5t3 -24.5t-2 -21q-6 -14 -10 -20t-10.5 -11.5t-15.5 -9.5t-27 -14q-18 -16 -59.5 -45t-87.5 -59.5t-87 -59.5t-59 -43h-25q-39 0 -60.5 34t-36 76t-22.5 75.5t-20 33.5q-23 0 -66 -33.5t-92 -75.5t-97 -76t-81 -34q-29 0 -44 17.5t-28 37.5 q-55 90 -42.5 191.5zM549 377q-6 -10 6 -17h6h6q6 4 18.5 14.5l25 21t22.5 21.5t12 17l197 512l-6 6q-5 6 -9 15q-6 10 -11 27.5t-11 21.5h-8h-4l-31 -58l-6 -16l-37 -96l-17 -39l-81 -217q-39 -94 -72 -213zM578 1612l376 205l123 -156q35 29 79 70t101 77q10 8 46 -1 t82.5 -28.5t96.5 -45t90 -49t64.5 -41t18.5 -21.5l-377 -205l-115 129q-33 -25 -84 -55.5t-104 -65.5q-12 -8 -47 1.5t-81 29t-96.5 45t-90 49t-64.5 41t-18 21.5zM1192 1237q2 -2 5 -4t5 -6l2 -4q-4 4 -5 6t-5 6z" />
<glyph unicode="&#xc4;" horiz-adv-x="1159" d="M110.5 283.5q-12.5 -105.5 47.5 -199.5q8 -12 16 -25.5t21 -23.5l16 -25q2 -2 2 -4t2 -4q12 -20 28.5 -36.5t49.5 -16.5q41 0 98.5 43t116.5 90q27 20 50.5 39.5t41.5 32.5q10 -35 26.5 -67t41.5 -50l22 -37q14 -23 32.5 -37t45.5 -14h35q23 20 58.5 44.5t76.5 51.5 q49 33 95 64.5t69 52.5q6 4 11 5t11 5q25 10 33 18.5t21 40.5q6 16 1 41t-16 41l-28 45q-4 18 -13.5 34t-15.5 18l96 252q20 53 39 96t49 102q10 6 18.5 9t16.5 8q29 10 52.5 25.5t37.5 53.5q10 23 8 40.5t-10 31.5l-31 49q-4 37 -33.5 58.5t-62.5 38.5q-33 12 -55 34 q-16 12 -27.5 29.5t-21.5 34.5q-18 35 -41 60.5t-68 25.5q-33 0 -57.5 -10.5t-52.5 -26.5q-6 -4 -14.5 -8t-20.5 -10q-2 -2 -4 -3q-2 0 -6 -2l4 2q-35 -16 -67 -29.5t-58 -23.5q-12 -4 -17 -6q-66 -25 -132 -52.5t-125.5 -66.5t-112 -91t-88.5 -128l-17 -43q-4 -10 -8 -18.5 t-8 -18.5l-117 -305q-49 -129 -61.5 -234.5zM139.5 293.5q12.5 101.5 59.5 224.5l63 166l17 41q14 37 26 67.5t27 67.5l16 41q43 88 110.5 145.5t145.5 96.5t161 68.5t159 64.5q43 20 71.5 37.5t67.5 17.5q31 0 49 -16.5t32.5 -40t30 -49t37.5 -43.5q14 -14 42 -26.5 t52.5 -28t39 -37t2.5 -56.5q-8 -23 -22.5 -34t-31 -19t-34 -15.5t-33.5 -19.5q-18 -35 -32.5 -62.5t-26 -55t-21.5 -55.5t-23 -60l-32 -82l-13 -33l-35 -90l-6 -16q-2 -6 -8 -26t-9 -42.5t-1 -39.5t16 -17q16 0 28.5 8t29.5 8q4 0 8 -8t7 -20.5t3 -24.5t-2 -21 q-6 -14 -10 -20t-10.5 -11.5t-15.5 -9.5t-27 -14q-18 -16 -59.5 -45t-87.5 -59.5t-87 -59.5t-59 -43h-25q-39 0 -60.5 34t-36 76t-22.5 75.5t-20 33.5q-23 0 -66 -33.5t-92 -75.5t-97 -76t-81 -34q-29 0 -44 17.5t-28 37.5q-55 90 -42.5 191.5zM549 377q-6 -10 6 -17h6h6 q6 6 18.5 15.5t25 20t22.5 21.5t12 17l197 512l-6 6q-5 6 -9 15q-6 10 -11 27.5t-11 21.5h-8h-4l-31 -58l-6 -16l-37 -96l-17 -39l-81 -217q-39 -94 -72 -213zM672 1549.5q14 -50.5 51 -83.5l22 -36q18 -31 49 -50.5t70 -19.5q37 0 75 14.5t73 40t61.5 58t40.5 69.5 q43 115 8 170l-30 45q-18 88 -174 113l-15 -4q-66 -39 -131 -89.5t-94 -123.5q-20 -53 -6 -103.5zM696 1583q-4 35 9 70q25 63 84 108t118 82q113 -16 146.5 -67.5t-6.5 -155.5q-12 -33 -37 -62.5t-55.5 -51t-64.5 -35t-67 -13.5q-35 0 -62.5 17.5t-44 45t-20.5 62.5z M1180 1551.5q14 -50.5 51 -83.5l22 -36q20 -31 50 -50.5t69 -19.5q37 0 75 14.5t72.5 40t61.5 58t41 69.5q45 111 8 170l-28 45q-20 88 -175 113l-16 -4q-33 -18 -66.5 -41t-64.5 -48.5t-55.5 -56t-38.5 -67.5q-20 -53 -6 -103.5zM1204 1585q-4 35 8 70q25 63 85.5 108 t119.5 82q113 -16 145.5 -67.5t-8.5 -155.5q-12 -33 -35.5 -62.5t-54 -51t-64.5 -35t-67 -13.5q-35 0 -62.5 17.5t-45 45t-21.5 62.5z" />
<glyph unicode="&#xc5;" horiz-adv-x="1159" d="M111 283.5q12 105.5 61 234.5l117 305q4 10 8 18.5t8 18.5l17 43q37 76 89 128t111.5 91t126 67t131.5 52q4 2 17 6q27 10 58.5 23.5t66.5 29.5l-4 -2q4 2 6 2t4 3l20 10t15 8q12 8 20 12q-39 18 -75 43t-46 45l-31 49q-33 29 -26 46l4 8q8 27 43 41l92 237 q37 12 58.5 19.5t39 12.5t35 8t47.5 9q41 6 73 11.5t48 9.5q4 0 19.5 4t34 9t34 11.5t21.5 10.5q51 -10 76.5 -40t35.5 -65l23 -37q16 -23 21.5 -50t2.5 -52l-18 -45l-6 -25l-8 -20q-23 -57 -37 -89t-32.5 -50.5t-47.5 -28.5t-78 -25q-16 -4 -32.5 -9t-34.5 -11h2 q2 -2 -20.5 -10.5t-35.5 -14.5q-12 -8 -20 -10q10 -10 18 -23.5t19 -27.5q18 -45 63 -80l9 -5q8 -5 22 -11q2 -2 4 -2t6 -2q33 -16 62.5 -38t33.5 -59l31 -49q8 -14 10 -31.5t-8 -40.5q-14 -37 -37.5 -52t-50.5 -25h2q-12 -6 -21.5 -10.5t-17.5 -8.5q-31 -59 -49 -102 t-39 -96l-96 -252q6 -2 15 -17.5t14 -34.5l28 -45q10 -16 15.5 -40.5t-0.5 -41.5q-12 -33 -20.5 -41t-33.5 -18q-6 -4 -11 -5t-11 -5q-23 -20 -69 -52t-95 -65q-41 -27 -77 -51.5t-58 -44.5h-35q-27 0 -45 14t-33 37l-22 35q-27 18 -43.5 51t-26.5 66q-16 -10 -41 -30 t-49 -40q-59 -47 -116.5 -90t-98.5 -43q-33 0 -49.5 16.5t-28.5 36.5q-4 0 -4 4l-2 4h2l-16 25q-12 10 -20.5 23.5t-16.5 25.5q-59 94 -47 199.5zM139.5 294q-12.5 -101 42.5 -192q12 -20 27.5 -37.5t44.5 -17.5q33 0 81 34t97 76t92 75.5t66 33.5q12 0 20 -33.5t22.5 -75.5 t36 -76t60.5 -34h25q18 14 59 43t87 59.5t87 59.5t60 45q18 10 27 14t15.5 9.5t10.5 11.5t10 20q2 8 2 21q0 12 -3 24.5t-7 20.5t-8 8q-16 0 -28.5 -8t-29.5 -8q-14 0 -16 17t1 39.5t9 42t8 26.5l6 16l35 90l13 33l32 82q12 33 22.5 60.5t22 55t25.5 55t33 62.5 q16 12 33.5 20.5t34 15.5t30.5 18.5t23 33.5q12 35 -2.5 56.5t-39 37t-52 27.5t-42.5 27q-25 18 -39 43.5t-28.5 49t-32.5 40t-49 16.5q-39 0 -67.5 -17.5t-71.5 -37.5q-76 -35 -159 -64.5t-161 -68.5t-145.5 -96.5t-110.5 -145.5l-16 -41q-14 -37 -26.5 -67.5t-26.5 -67.5 l-17 -41l-63 -166q-47 -123 -59.5 -224zM168 80q2 -10 8 -14zM203 18q2 -2 2 -4t4 -4zM549 377q33 119 72 213l81 217l17 39l37 96l6 16l31 58h4h8q6 -4 11 -21.5t11 -27.5q4 -8 9 -15l6 -6l-197 -512q-2 -6 -12 -17t-22.5 -21.5t-25 -20.5t-18.5 -15h-6h-6q-12 7 -6 17z M831 1516q-4 -10 19.5 -30t58.5 -38t72 -31.5t59 -13.5q4 0 10 1l5 1q2 0 16 6t31.5 14.5t33 16.5t21.5 10q74 25 115 36t63.5 26.5t38 45t37.5 91.5l8 20q4 12 9.5 25.5t9.5 25.5l6 19q0 18 -3 40.5t-14.5 42t-30 34t-44.5 20.5q-6 -4 -22.5 -9t-35 -10.5t-34 -9.5 t-19.5 -4q-18 -4 -62 -11t-90.5 -14.5t-83 -13.5t-36.5 -8l-99 -254q-29 0 -34 -20zM1114 1556l78 205q10 -4 17.5 -15t2.5 -15l-71 -191q-10 0 -20.5 4t-6.5 12zM1192 1235l10 -8q-4 2 -5 4t-5 4z" />
<glyph unicode="&#xc6;" horiz-adv-x="1734" d="M110.5 283.5q-12.5 -105.5 47.5 -199.5q8 -12 16 -25.5t21 -23.5l16 -25q2 -2 2 -4t2 -4q12 -20 28.5 -36.5t49.5 -16.5q41 0 98.5 43t116.5 90q27 20 50.5 39.5t41.5 32.5q10 -35 26.5 -67t41.5 -50l22 -37q14 -23 32.5 -37t45.5 -14h33q16 10 49 34.5t74 51.5 q43 -59 97 -96t116 -37q25 0 80 23.5t124.5 60.5t145.5 82t139.5 88t107.5 79.5t52 55.5q12 35 2 51l-39 59q2 45 -66 45q-29 0 -57.5 -6t-56.5 -14q-23 -6 -44.5 -11t-49.5 -5q-27 0 -59 8t-56 24l2 9q12 29 37.5 51t61.5 40.5t78 35t87 32.5q53 18 106.5 40t98.5 47.5 t80 60.5t53 82q4 10 7 21t5 20l2 6l-90 364l-35 56l-12 45l-3 -6q-3 -7 -5 -5q-4 4 -10 6.5t-10.5 6.5t-8.5 7l-4 3q-12 4 -12 6h-25q-31 0 -87 -15.5t-125.5 -40t-146.5 -58t-147 -70.5v4l-6 3t-12 7h2q-41 35 -59 74q-23 35 -43.5 59.5t-65.5 24.5q-33 0 -57.5 -10.5 t-52.5 -26.5q-6 -4 -14.5 -8t-20.5 -10q-2 -2 -4 -3q-2 0 -6 -2l4 2q-35 -16 -67 -29.5t-58 -23.5q-12 -4 -17 -6q-66 -25 -132 -52.5t-125.5 -66.5t-112 -91t-88.5 -128l-17 -43q-4 -10 -8 -18t-8 -19l-117 -305q-49 -129 -61.5 -234.5zM139.5 293.5q12.5 101.5 59.5 224.5 l80 207q14 37 26 67.5t27 67.5l16 41q43 88 110.5 145.5t145.5 96.5t161 68.5t159 64.5q43 20 71.5 37.5t67.5 17.5q31 0 49 -16.5t32.5 -40t29 -49t38.5 -43.5q6 -8 15.5 -13.5t19.5 -11.5q68 37 143.5 71t146.5 59.5t128 40.5t88 15h16q10 -6 30 -17t22 -13l88 -352 q0 -2 -4 -17.5t-9 -25.5q-20 -53 -67 -90t-108.5 -65t-129 -50.5t-127 -48t-105.5 -57.5t-65 -79q-12 -35 2.5 -61.5t42 -45t62.5 -28.5t63 -10q29 0 54.5 6t50 12.5t50.5 12.5t54 6q29 0 41 -11.5t2 -39.5q-6 -18 -48 -52t-103.5 -75t-133 -84t-138 -78t-120 -57.5 t-77.5 -22.5q-59 0 -113.5 40t-97.5 99q-43 -29 -79 -54.5t-52 -37.5h-25q-39 0 -60.5 34t-36 76t-22.5 75.5t-20 33.5q-23 0 -66 -33.5t-92 -75.5t-97 -76t-81 -34q-29 0 -44 17.5t-28 37.5q-55 90 -42.5 191.5zM168 80l8 -14q-6 4 -8 14zM549 377q-6 -10 6 -17h12 q6 4 18.5 14.5l25 21t22.5 21.5t12 17l197 512l-6 6q-5 6 -9 15q-6 10 -11 27.5t-11 21.5h-12l-31 -58l-141 -368q-39 -94 -72 -213zM1198 1231q0 -4 4 -4q2 -2 1 -3t1 -3zM1343 737l17 7q18 6 39.5 15t41 20.5t23.5 21.5q0 2 -2 26.5t-4 36.5q-4 4 -8 18.5t-8 30t-8 29.5 t-4 19z" />
<glyph unicode="&#xc7;" horiz-adv-x="1036" d="M98.5 284.5q1.5 -36.5 14 -73.5t34 -72t48.5 -65l8 -15q20 -35 46.5 -61.5t55.5 -46.5q20 -45 53 -92q-6 -2 -10 -3t-10 -3q-47 -12 -92 -32t-78 -77q-8 -82 43 -125l27 -45q20 -33 59 -48t92 -20l109 25q37 27 60.5 48.5t40.5 41t29.5 43t24.5 53.5q23 59 21 104.5 t-25 80.5l-24 37q-6 23 -19 41q4 2 7 4t8 2q47 25 98 51t97 51t82 44.5t52 29.5q8 6 17 8q23 12 38 21.5t26 19.5t19.5 24.5t16.5 38.5q8 18 10 36t-6 30l-6 4h2l-33 51q0 20 -11 33.5t-40 13.5t-51.5 -5t-44.5 -11q-4 -2 -8 -2q-2 0 -7 -2q-20 -6 -40.5 -10t-36.5 -4 q-23 0 -54.5 7t-58.5 21l121 318q2 -2 4 -2t4 -2l31 -48q20 -37 67 -36q25 0 82.5 16t120 43t114.5 62.5t68 76.5q4 10 5 13.5t4 11.5q-4 10 -9.5 47t-9.5 80t-8 82t-4 53l-4 6q-2 4 -4 9t-2 14q-4 18 -9.5 40.5t-15.5 39.5l-25 38q-6 29 -20 50.5t-43 21.5q-2 0 -4 -1 t-4 -1h-15q-31 -10 -101.5 -32.5t-149 -47t-149.5 -47t-101 -31.5q-31 -12 -71 -29.5t-77 -42t-67.5 -54t-42.5 -62.5l-258 -670q-12 -31 -10.5 -67.5zM129 262q-10 49 6 90l258 670q10 29 36 53.5t58.5 45t65.5 35.5t59 26q20 6 60.5 18t90.5 27.5t104.5 33t103.5 33 t89 28.5t60 19q4 0 9.5 1t9.5 1q20 0 30.5 -19t15.5 -43t8 -44t9 -23q0 -14 4 -52t8.5 -80t9.5 -77.5t7 -46.5l-1 -6t-3 -10q-14 -37 -63.5 -68.5t-108 -56t-111.5 -39t-76 -14.5q-35 0 -51 24.5t-22.5 57.5t-6.5 63q0 33 -4 49l-172 -446q-12 -33 3.5 -57.5t45 -41 t64.5 -24.5t59 -8q49 0 96.5 17.5t92.5 17.5q29 0 33 -20.5t-7 -43.5q-8 -20 -15 -32.5t-17.5 -21.5t-26.5 -18.5t-43 -23.5q-20 -12 -68.5 -39t-107.5 -57.5t-120.5 -63.5t-108.5 -57q68 -31 98.5 -91.5t-4.5 -152.5q-12 -29 -23.5 -49t-27 -38.5t-37 -37t-52.5 -43.5 l-98 -22q-78 4 -120 38.5t-33 100.5q18 31 43.5 46t55.5 24.5t59.5 15.5t56.5 18q-29 37 -57.5 83t-41.5 89q-41 20 -79.5 59.5t-65.5 86.5t-37 96z" />
<glyph unicode="&#xc8;" horiz-adv-x="1069" d="M117 326q0 -47 13 -94.5t38 -91.5t57 -79l6 -8q41 -66 100.5 -109.5t125.5 -43.5q23 0 78 23.5t125.5 60t145.5 82t139.5 88.5t109.5 79.5t51 55.5q14 35 4 51l-39 59q2 45 -67 45q-29 0 -57.5 -6t-57.5 -14q-20 -6 -43 -11t-51 -5q-27 0 -58.5 8t-54.5 24l2 9 q23 55 97.5 90.5t164.5 68.5q53 18 106.5 40t98.5 47.5t80 59t53 81.5q4 8 6 19t6 19l4 11l-92 364l-32 51l-7 29q-6 8 -8 9t-12 5l-12 7q-8 4 -14.5 9t-12.5 9h-29q-31 0 -92 -16.5t-137 -45t-158 -66.5t-151.5 -80t-121.5 -86t-67 -83l-221 -575q-16 -43 -16 -90z M148.5 279.5q-13.5 72.5 11.5 136.5l221 575q14 37 62.5 78t116 80t144 73.5t149.5 61.5t131 42t87 15h19q10 -8 30.5 -18t22.5 -12l88 -353q-2 -2 -7 -18t-10 -27q-20 -53 -67 -89t-107.5 -63.5t-128 -50t-127 -48t-105.5 -58.5t-63 -78q-12 -35 1.5 -61.5t41 -45 t62.5 -28.5t63 -10q29 0 54.5 6t50 12.5t50.5 12.5t54 6q29 0 42.5 -11.5t2.5 -39.5q-8 -18 -50 -52t-103.5 -75t-133 -84t-139 -78t-120 -57.5t-74.5 -22.5q-63 0 -120.5 42t-96.5 104.5t-52.5 135zM666 735l17 7q17 6 38.5 15t41 20t23.5 22q0 2 -2 26.5t-6 36.5 q-4 4 -8 18.5t-8 30t-7 29.5t-3 18zM856 1767q-4 -10 10.5 -53t36 -94t47 -99t45.5 -67l21 -31q12 -23 25.5 -36t23.5 -13t18 6h2q23 14 38.5 23.5t19.5 13.5q41 25 72.5 47.5t58.5 59.5q8 8 10 14q4 8 4 10q0 4 -4 11l-29 323l-43 66v20l-350 -186zM885 1742.5 q-6 24.5 0 26.5l303 160l26 -305l2 -6q1 -6 -6 -6q-31 -47 -73.5 -71.5t-108.5 -65.5q-10 -8 -25.5 11t-33 51t-34.5 72t-30.5 74.5t-19.5 59z" />
<glyph unicode="&#xc9;" horiz-adv-x="1069" d="M117 326q0 -47 13 -94.5t38 -91.5t57 -79l6 -8q41 -66 100.5 -109.5t125.5 -43.5q23 0 78 23.5t125.5 60t145.5 82t139.5 88.5t109.5 79.5t51 55.5q14 35 4 51l-39 59q2 45 -67 45q-29 0 -57.5 -6t-57.5 -14q-20 -6 -43 -11t-51 -5q-27 0 -58.5 8t-54.5 24l2 9 q23 55 97.5 90.5t164.5 68.5q53 18 106.5 40t98.5 47.5t80 59t53 81.5q4 8 6 19t6 19l4 11l-92 364l-32 51l-7 29q-6 8 -8 9t-12 5l-12 7q-8 4 -14.5 9t-12.5 9h-29q-31 0 -92 -16.5t-137 -45t-158 -66.5t-151.5 -80t-121.5 -86t-67 -83l-221 -575q-16 -43 -16 -90z M148.5 279.5q-13.5 72.5 11.5 136.5l221 575q14 37 62.5 78t116 80t144 73.5t149.5 61.5t131 42t87 15h19q10 -8 30.5 -18t22.5 -12l88 -353q-2 -2 -7 -18t-10 -27q-20 -53 -67 -89t-107.5 -63.5t-128 -50t-127 -48t-105.5 -58.5t-63 -78q-12 -35 1.5 -61.5t41 -45 t62.5 -28.5t63 -10q29 0 54.5 6t50 12.5t50.5 12.5t54 6q29 0 42.5 -11.5t2.5 -39.5q-8 -18 -50 -52t-103.5 -75t-133 -84t-139 -78t-120 -57.5t-74.5 -22.5q-63 0 -120.5 42t-96.5 104.5t-52.5 135zM666 735l17 7q17 6 38.5 16t41 20t23.5 21q0 2 -2 26.5t-6 36.5 q-2 4 -6 17.5t-9 30t-8 30.5t-3 18zM872 1587q0 -37 12.5 -57.5t30.5 -38.5l25 -35q6 -10 15.5 -20.5t19.5 -20.5q8 -8 16 -18.5t19 -20.5q4 -6 16 -6q10 0 44 21.5t76 54.5t89 71.5t87 73.5t67.5 61.5t29.5 33.5l4 12l-43 71l4 11l-210 184l-287 -334q-6 -4 -7 -6l-3 -6v2 q-6 -6 -3 -8q-6 -16 -2 -25zM901 1608q-4 0 1 6l5 6l262 305l183 -160q2 -4 -23.5 -28.5t-66.5 -60.5t-89.5 -75.5t-89.5 -71.5t-70.5 -49.5t-31.5 -9.5q-16 20 -32.5 35t-28 29t-17.5 31.5t-2 42.5z" />
<glyph unicode="&#xca;" horiz-adv-x="1069" d="M117 326q0 -47 13 -94.5t38 -91.5t57 -79l6 -8q41 -66 100.5 -109.5t125.5 -43.5q23 0 78 23.5t125.5 60t145.5 82t139.5 88.5t109.5 79.5t51 55.5q14 35 4 51l-39 59q2 45 -67 45q-29 0 -57.5 -6t-57.5 -14q-20 -6 -43 -11t-51 -5q-27 0 -58.5 8t-54.5 24l2 9 q23 55 97.5 90.5t164.5 68.5q53 18 106.5 40t98.5 47.5t80 59t53 81.5q4 8 6 19t6 19l4 11l-92 364l-32 51l-7 29q-6 8 -8 9t-12 5l-12 7q-8 4 -14.5 9t-12.5 9h-29q-31 0 -92 -16.5t-137 -45t-158 -66.5t-151.5 -80t-121.5 -86t-67 -83l-221 -575q-16 -43 -16 -90z M148.5 279.5q-13.5 72.5 11.5 136.5l221 575q14 37 62.5 78t116 80t144 73.5t149.5 61.5t131 42t87 15h19q10 -8 30.5 -18t22.5 -12l88 -353q-2 -2 -7 -18t-10 -27q-20 -53 -67 -89t-107.5 -63.5t-128 -50t-127 -48t-105.5 -58.5t-63 -78q-12 -35 1.5 -61.5t41 -45 t62.5 -28.5t63 -10q29 0 54.5 6t50 12.5t50.5 12.5t54 6q29 0 42.5 -11.5t2.5 -39.5q-8 -18 -50 -52t-103.5 -75t-133 -84t-139 -78t-120 -57.5t-74.5 -22.5q-63 0 -120.5 42t-96.5 104.5t-52.5 135zM469 1587q-2 -6 29 -41l30 -49q10 -18 44 -50t76 -62.5t83 -54t66 -23.5 q14 0 26 8h2q12 6 37 24.5t56.5 43t66.5 52t68 52.5q16 12 30.5 23.5t24.5 21.5l70 -170l8 4l45 -74l407 219l7 13q0 2 -1.5 3t-1.5 3l-43 67l3 5q2 6 -26 27.5t-74 50t-103.5 59t-109.5 56.5t-95 42t-59 16h-13l-645 -247zM498 1589l620 238q10 4 51 -9.5t94.5 -38t111 -53 t104.5 -55t75.5 -47t20.5 -25.5l-377 -202l-104 258q-16 -12 -60.5 -46t-94.5 -73t-97 -75t-72 -52q-16 -12 -64.5 12.5t-97.5 59.5t-84 68.5t-26 39.5zM666 735l17 7q17 6 38.5 16t41 20t23.5 21q0 2 -2 26.5t-6 36.5q-2 4 -6 17.5t-9 30t-8 30.5t-3 18z" />
<glyph unicode="&#xcb;" horiz-adv-x="1069" d="M117 326q0 47 16 90l221 575q14 39 66.5 83t122 86t151.5 80t158 66.5t137.5 45t91.5 16.5h29q6 -4 12 -9t15 -9l12 -7q10 -4 12 -5t8 -9l7 -29l32 -51l92 -364l-4 -11q-4 -8 -6 -19t-6 -19q-18 -45 -52 -79t-79 -60.5t-98.5 -47t-106.5 -39.5q-45 -16 -87 -32.5 t-77.5 -35t-61.5 -42t-38 -51.5l-2 -9q23 -16 54.5 -24t58.5 -8q29 0 51 5t43 11q29 8 57.5 14t57.5 6q70 0 67 -45l39 -59q10 -16 -4 -51q-8 -18 -52 -54t-108.5 -79t-139.5 -89.5t-145.5 -83t-125 -60t-78.5 -23.5q-66 0 -125.5 44t-100.5 109l-6 8q-33 35 -57.5 79 t-37.5 91.5t-13 94.5zM148.5 280q13.5 -73 52.5 -135.5t96 -104.5t121 -42q23 0 76 22.5t119.5 57.5t138 78t133 84t104.5 75.5t49 51.5q10 29 -3 40t-42 11t-54.5 -6t-50 -12.5t-50 -12.5t-54.5 -6t-63.5 10t-62 28.5t-41 45.5t-1.5 61q18 47 63.5 79t106 57.5t127 48 t127 50t107.5 63.5t67 89q4 10 9.5 26.5t7.5 18.5l-88 353q-2 2 -22.5 12t-30.5 18h-19q-29 0 -87 -15t-131 -42t-149.5 -61.5t-144 -73.5t-116 -80t-62.5 -78l-221 -575q-25 -63 -11.5 -136zM602 1553.5q-14 52.5 8 105.5q29 74 95.5 125t130.5 90l16 4q78 -14 121 -41 t53 -76l29 -43q35 -55 -8 -170q-14 -37 -41 -69.5t-62 -58t-72.5 -40t-74.5 -14.5q-39 0 -70 19.5t-49 50.5l-21 34q-41 31 -55 83.5zM628 1589q3 -35 20.5 -62.5t45 -45t62.5 -17.5q33 0 66.5 13.5t64.5 35t55.5 51t36.5 62.5q41 104 7.5 156.5t-144.5 68.5 q-59 -37 -119.5 -83t-85.5 -109q-12 -35 -9 -70zM666 735l86 223q0 -4 3 -18t7 -29.5t8 -30t8 -18.5q4 -12 6 -36.5t2 -26.5q-4 -10 -23.5 -21.5t-41 -20.5t-38.5 -15zM1149 1556q-14 50 6 103q29 74 95.5 125t129.5 90l17 4q154 -25 174 -111l28 -47q35 -57 -8 -172 q-14 -37 -40.5 -69.5t-61.5 -58t-73 -40t-75 -14.5q-39 0 -69.5 19.5t-48.5 50.5l-23 37q-37 33 -51 83zM1174 1589q4 -35 20 -62.5t44 -45t62 -17.5q33 0 67 13.5t64.5 35t55 51t37.5 62.5q41 104 8 156.5t-146 68.5q-59 -37 -119.5 -83t-84.5 -109q-12 -35 -8 -70z" />
<glyph unicode="&#xcc;" horiz-adv-x="786" d="M170 175q-4 30 4 48l201 525l-35 55q-4 2 -10 8q-10 10 -15.5 35.5t0.5 42.5q2 4 5.5 10t13.5 14l321 232q12 10 34 22.5t50 12.5q23 0 38.5 -9.5t31.5 -33.5l139 -228q0 -4 1 -7t-1 -7l41 -66q2 -16 2 -20q0 -2 -4 -10q-12 -33 -32.5 -51.5t-49 -39t-54.5 -44t-44 -70.5 q-4 -12 -13.5 -41t-20.5 -65.5t-23.5 -75.5t-22.5 -74q23 -12 23 -39l36 -57q14 -20 -4 -64q-12 -31 -68.5 -78t-125 -92t-134 -76.5t-94.5 -31.5q-23 0 -46 22.5t-44 54.5l-16 23q-20 20 -38.5 51t-30 62.5t-15.5 61.5zM201 223q-8 -23 1 -60.5t27.5 -74.5t43 -63.5 t49.5 -26.5q27 0 88 29.5t125.5 70.5t117 85t62.5 73q31 80 -78 63q2 18 16.5 68.5t30.5 107t31.5 107.5t23.5 70q18 47 44 73.5t52.5 46t49 38t33.5 47.5q4 6 4 12v6l-138 223q-12 20 -25.5 27.5t-29.5 7.5q-29 0 -48 -16.5t-26 -18.5l-309 -223q-10 -8 -6 -30.5t14 -33.5 q4 -8 31 -20t37 -12zM670 1616l6 16l350 185l2 -25l41 -63l31 -326q0 -8 -2 -17q-4 -6 -6 -11t-9 -9q-25 -37 -54.5 -56.5t-67.5 -41.5q-14 -8 -31 -18.5t-35 -20.5q-8 -4 -12 -5t-9 -1q-16 0 -47 47l-20 33q-23 18 -47.5 66t-46 100.5t-34.5 95.5t-9 51zM696 1618 q-4 -2 2.5 -26.5t18.5 -60.5t29.5 -76t35 -71.5t32.5 -50t28 -10.5q33 20 59.5 34.5t49 29t41 32t34.5 41.5q4 0 4 6v7l-29 305z" />
<glyph unicode="&#xcd;" horiz-adv-x="786" d="M170 175q4 -30 15.5 -61.5t29.5 -62.5t39 -51l16 -23q20 -33 44 -55t46 -22q29 0 94.5 31.5t134 76.5t125 92t68.5 78q18 43 4 64l-36 57q0 27 -23 39q10 35 22.5 74t23.5 75.5t20.5 65.5t13.5 41q18 47 44 70.5t54.5 44t49 39t32.5 51.5q4 8 4 10q0 4 -2 20l-41 66 q2 4 1 7t-1 7l-139 228q-16 25 -31.5 34t-38.5 9q-29 0 -50 -12.5t-34 -22.5l-321 -232q-10 -8 -13.5 -14t-5.5 -10q-6 -16 -1 -42t16 -36q6 -6 10 -8l35 -55l-201 -525q-8 -18 -4 -48zM201 223l221 576q-10 0 -37 12t-31 20q-10 10 -14 33t6 31l309 223q6 2 25.5 18.5 t48.5 16.5q16 0 29.5 -7t25.5 -28l138 -223v-6t-4 -12q-10 -29 -33 -47.5t-49.5 -38t-52 -46t-44.5 -73.5q-8 -18 -23.5 -69.5t-31.5 -108t-30.5 -106.5t-16.5 -69q109 16 78 -63q-10 -29 -62.5 -73t-117 -85t-126 -70.5t-87.5 -29.5q-25 0 -49.5 26.5t-43 63.5t-27.5 75 t-1 60zM633 1448q0 -37 14.5 -58.5t36.5 -43.5l18 -29q6 -10 15.5 -21.5t19.5 -23.5q8 -10 31 -37l2 2q4 -8 14 -8t43 21.5t76 54t91 71.5t88 74t68 60.5t30 33.5l6 12l-45 72l4 10l-209 185l-289 -334q-8 -12 -10 -16l-2 2v-9q-4 -12 -2 -18zM664 1466q-4 0 0 6l4 7 l262 305l182 -160q4 -2 -21.5 -26.5t-65.5 -60.5t-88 -76t-91 -71.5t-73 -50t-32 -10.5q-35 41 -59.5 65.5t-17.5 71.5z" />
<glyph unicode="&#xce;" horiz-adv-x="786" d="M170 175q4 -30 15.5 -61.5t29.5 -62.5t39 -51l16 -23q20 -33 44 -55t46 -22q29 0 94.5 31.5t134 76.5t125 92t68.5 78q18 43 4 64l-36 57q0 27 -23 39q10 35 22.5 74t23.5 75.5t20.5 65.5t13.5 41q18 47 44 70.5t54.5 44t49 39t32.5 51.5q4 8 4 10q0 4 -2 20l-41 66 q2 4 1 7t-1 7l-139 228q-16 25 -31.5 34t-38.5 9q-29 0 -50 -12.5t-34 -22.5l-321 -232q-10 -8 -13.5 -14t-5.5 -10q-6 -16 -1 -42t16 -36q6 -6 10 -8l35 -55l-201 -525q-8 -18 -4 -48zM201 223l221 576q-10 0 -37 12t-31 20q-10 10 -14 33t6 31l309 223q6 2 25.5 18.5 t48.5 16.5q16 0 29.5 -7t25.5 -28l138 -223v-6t-4 -12q-10 -29 -33 -47.5t-49.5 -38t-52 -46t-44.5 -73.5q-8 -18 -23.5 -69.5t-31.5 -108t-30.5 -106.5t-16.5 -69q109 16 78 -63q-10 -29 -62.5 -73t-117 -85t-126 -70.5t-87.5 -29.5q-25 0 -49.5 26.5t-43 63.5t-27.5 75 t-1 60zM311 1436q-4 -14 37 -58l23 -37q12 -18 41.5 -48.5t63.5 -60.5t68 -51.5t56 -21.5q16 0 31 10q18 12 49 37t65.5 52.5t70.5 57.5t65 52l53 -156l8 5l45 -74l367 213q2 2 0 8l-43 68q4 4 -17.5 25.5t-58.5 51t-83 63.5t-91 61.5t-83 46t-58 18.5q-8 0 -13.5 -1 t-13.5 -5l-574 -238zM338 1438l561 231q12 6 47 -7t80 -35.5t94 -52.5t89 -56.5t64.5 -46t20.5 -23.5l-340 -199l-84 250q-14 -12 -54 -45t-86 -69.5t-89 -71.5t-68 -51q-16 -12 -58 11t-83 58t-70.5 68t-23.5 39z" />
<glyph unicode="&#xcf;" horiz-adv-x="786" d="M170 175q-4 30 4 48l201 525l-35 55q-4 2 -10 8q-10 10 -15.5 35.5t0.5 42.5q2 4 5.5 10t13.5 14l321 232q12 10 34 22.5t50 12.5q23 0 38.5 -9.5t31.5 -33.5l139 -228q0 -4 1 -7t-1 -7l41 -66q2 -16 2 -20q0 -2 -4 -10q-12 -33 -32.5 -51.5t-49 -39t-54.5 -44t-44 -70.5 q-6 -14 -15.5 -43t-20.5 -64.5t-22.5 -74.5t-21.5 -74q23 -12 23 -39l36 -57q14 -20 -4 -64q-12 -31 -68.5 -78t-125 -92t-134 -76.5t-94.5 -31.5q-23 0 -46 22.5t-44 54.5l-16 23q-20 20 -38.5 51t-30 62.5t-15.5 61.5zM201 223q-8 -23 1 -60.5t27.5 -74.5t43 -63.5 t49.5 -26.5q27 0 88 29.5t125.5 70.5t117 85t62.5 73q31 80 -78 63q2 18 15.5 68.5t30.5 107t32.5 106.5t23.5 71q18 47 44 73.5t52.5 46t49 38t33.5 47.5q4 6 4 12v6l-138 223q-12 20 -25.5 27.5t-29.5 7.5q-29 0 -48 -16.5t-26 -18.5l-309 -223q-10 -8 -6 -30.5t14 -33.5 q4 -8 31 -20t37 -12zM425 1405q-13 49 7 98q29 74 94.5 125t130.5 90l17 4q154 -25 174 -112l29 -45q37 -59 -9 -170q-14 -37 -40.5 -70t-61.5 -58.5t-73 -40t-75 -14.5q-39 0 -69.5 19.5t-50.5 50.5l-25 41q-35 33 -48 82zM451 1434.5q4 -33.5 21 -61t45 -45t63 -17.5 q33 0 66.5 13t63 34.5t54 51.5t37.5 63q41 104 8.5 155.5t-145.5 67.5q-29 -18 -61 -39t-59.5 -44.5t-50 -51t-34.5 -58.5q-12 -35 -8 -68.5zM916.5 1404q-15.5 50 7.5 103q29 74 94 124t129 89l16 4q156 -25 174 -112l31 -45q35 -59 -8 -170q-14 -37 -42 -70t-61.5 -58.5 t-71.5 -40t-75 -14.5q-39 0 -69.5 19.5t-49.5 50.5l-22 37q-37 33 -52.5 83zM940 1437.5q4 -34.5 21.5 -62t45 -45t62.5 -17.5q33 0 66.5 13t64.5 34.5t54.5 51.5t35.5 63q41 104 8.5 155.5t-145.5 67.5q-29 -18 -60.5 -39t-59 -43.5t-49 -50t-34.5 -58.5q-14 -35 -10 -69.5 z" />
<glyph unicode="&#xd0;" horiz-adv-x="1388" d="M227 637q0 -8 19 -21l37 -59q6 -8 33.5 -23.5t69.5 -34t93 -37t105 -30.5l-27 -67q-14 -10 -32.5 -22.5t-36 -28t-31 -31t-19.5 -27.5q-4 -14 41 -59l19 -31q12 -23 54 -66t90 -88t91 -77.5t58 -32.5q12 0 62 19.5t116.5 49t142.5 67.5t141.5 76t111.5 71.5t54 56.5 l221 575q16 39 2 97.5t-40 99.5l-7 6l2 -2l-8 16q-10 29 -24.5 54.5t-30.5 41.5h4q-10 8 -35.5 24.5t-58.5 37t-71 43t-70 43.5l2 2q35 18 70.5 49t60.5 96l-43 72l4 12q-80 0 -159 -9t-148.5 -38.5t-126 -85t-91.5 -147.5q-37 -98 -18.5 -168t70.5 -125h-148l-74 -193 l-69 29l-402 -129zM242 623l381 122l94 -36l76 200h208q-35 29 -63.5 62t-43.5 70.5t-16 85t21 102.5q33 82 82 132t110.5 77.5t130 36t138.5 8.5q-14 -37 -40 -59.5t-51.5 -38t-47 -29t-29.5 -31.5q0 -2 -1 -7t-1 -7q18 -10 63 -37t94.5 -57.5t92.5 -58.5t59 -40 q16 -10 33.5 -36.5t30 -60.5t15.5 -67.5t-5 -58.5l-221 -576q-8 -20 -52.5 -51.5t-107 -67.5t-135 -71t-136 -63.5t-111.5 -47t-60 -18.5q-10 0 -36 17.5t-58.5 44t-66.5 58.5t-62.5 60.5t-46 49t-15.5 26.5q4 10 18.5 24.5t31.5 28t35.5 25.5t29.5 18l61 162 q-55 6 -127 22.5t-134.5 35t-103 32.5t-34.5 19zM961 383l38 -64l185 480l-39 63z" />
<glyph unicode="&#xd1;" horiz-adv-x="1423" d="M117 281q-10 -27 3 -55.5t23 -45.5l2 -8l41 -53l13 -21l153 -196h43q4 0 44 22.5t93.5 53t110.5 64.5t94 56l11 6q10 -25 26.5 -49t34.5 -43l12 -18q25 -41 57.5 -70.5t55.5 -29.5q10 0 29 6q2 0 8 1l6 1l334 196q16 8 28 17q20 12 36 21t26 18.5t17 22.5t14 32 q16 39 -2 67l-35 52q0 16 -6 28l196 514q12 8 29.5 22.5t33 31t27 31t15.5 22.5q4 10 0 18l-41 64q4 6 -2 18l-7 8q-6 10 -15 26.5t-19 27.5l-95 98q-2 2 -10 15.5t-19.5 30.5t-21.5 34.5t-16 30.5h-2l375 202l4 13l-45 71l2 6q2 6 -20.5 24.5t-59.5 43.5t-84 50.5t-92 48 t-84 37t-60 14.5q-10 0 -20 -4.5t-15 -8.5q-41 -29 -77.5 -59.5t-67.5 -56.5l-12 -13l-119 152l-414 -226l-6 -14q-4 -6 23 -26l35 -56q8 -14 59 -48t115.5 -69.5t127 -62.5t91.5 -27q16 0 30 11q23 16 49.5 31.5t53.5 31.5q18 12 35.5 23.5t33.5 21.5l78 -92 q-55 -10 -123.5 -50t-136.5 -87q-23 -16 -50.5 -33.5t-53.5 -32.5q-4 12 -11.5 24.5t-11.5 26.5l-16 27q-20 49 -54 88t-90 39h-22q-49 -20 -105.5 -53t-111.5 -71t-106.5 -78t-90.5 -72l-6 -15q0 -4 -2 -6t-4 -6l-4 -12q-14 -35 -8 -52.5t20 -25.5l37 -57q2 -10 23 -19 l-195 -506q-4 -2 -7 -4t-7 -6q-12 -10 -30.5 -22.5t-36 -24.5t-32 -24.5t-20.5 -18.5l-4 -6zM139 263.5q-2 13.5 6 23.5q4 6 23.5 20.5t41 29.5t42 28.5t27.5 17.5l221 575q8 25 -10.5 29t-42 7t-40 13.5t-1.5 47.5q4 8 8 18t4 12q37 31 85 68t99 73t103.5 66.5t99.5 48.5 h16q39 0 65.5 -23.5t44 -58t28 -73.5t16.5 -68q43 18 99 56t114.5 75t114 65.5t96.5 28.5q2 0 7 -1l5 -1q2 -2 12.5 -21.5t23.5 -43t25.5 -41.5t18.5 -21l92 -96q12 -12 24.5 -36.5t14.5 -26.5q-4 -8 -16.5 -22.5t-27.5 -30t-30.5 -27.5t-25.5 -17l-222 -575 q33 -12 56.5 -32.5t7.5 -63.5q-6 -18 -14.5 -29.5t-19.5 -21t-28.5 -18.5t-44.5 -25l-327 -193q-4 0 -16.5 -4t-20.5 -4q-18 0 -45 21.5t-48.5 53t-33.5 66.5t-2 60l295 765l-37 33l-43 -33l-246 -639q4 -8 6 -31.5t0 -31.5l-6 -18l-6 -15l-43 -30q-37 -23 -92 -56 t-107.5 -63.5t-90.5 -52t-40 -21.5h-32l-150 193q-4 6 -11 17t-13.5 25.5t-8.5 28zM676 1630l377 203l123 -154q35 29 78.5 70t99.5 78q10 8 46 -2t82 -29.5t96 -44.5t91 -48.5t64.5 -42t17.5 -22.5l-377 -202l-112 127q-33 -23 -85.5 -54.5t-105.5 -66.5q-10 -8 -46 2 t-82 29.5t-96 44t-90 48t-63.5 42t-17.5 22.5zM1485 1260l10 -15q-6 6 -10 15zM1653 1051q2 -4 4 -7.5t4 -7.5z" />
<glyph unicode="&#xd2;" d="M94 307q-10 -25 5.5 -58.5t47.5 -68.5l17 -28q25 -41 73 -85t101 -81t104.5 -61.5t85.5 -24.5h15q4 0 20 2q14 4 56.5 30.5t82.5 53.5q25 16 45.5 28.5t28.5 16.5h2q53 25 97.5 43t78.5 35q63 27 107.5 46t77 41.5t58.5 53.5t50.5 78t51 114.5t65.5 165.5l18 47 q6 16 12.5 35t12.5 37l49 127q10 76 2 161t-49 150l-18 27q-18 53 -52 92t-88 55q-10 -6 -43.5 -21t-70.5 -30.5t-70 -29t-41 -15.5q-41 -16 -123 -33.5t-172 -33.5q-53 -10 -102 -21.5t-89 -23t-65.5 -22.5t-32.5 -24l-260 -682q-33 -8 -51 -26.5t-29 -46.5zM121 307l8 23 q10 23 26.5 38t45.5 15l268 702q2 6 37 15.5t87 21t115.5 23.5t123 24.5t109.5 23.5t77 21q8 2 41 15.5t70.5 29t71.5 31t44 21.5q51 -16 82 -58.5t46.5 -96.5t17.5 -114.5t-5 -115.5l-20 -49q-14 -35 -26.5 -72t-26.5 -72l-17 -47q-45 -115 -74.5 -188.5t-58 -119.5 t-61.5 -72.5t-81 -50.5t-119 -52.5t-175 -75.5q-8 -4 -39 -23.5t-66.5 -42t-66.5 -41t-37 -20.5l-10 -1q-10 -1 -19 -1q-41 0 -108.5 36t-130 85t-102 101t-27.5 87zM678 416q-8 -20 10.5 -29.5t38.5 -9.5l199 518q8 20 -2.5 51t-24.5 45zM856 1720q-4 -8 10.5 -52t37 -97 t48 -101.5t45.5 -64.5l23 -31q27 -47 45 -47q10 0 18 6h2q23 14 37.5 23.5t22.5 13.5q41 25 71.5 46.5t57.5 56.5q6 4 10 18q4 8 4 16l-31 326l-43 63v25l-350 -184zM885 1722l305 160l29 -305l-1 -6t-6 -6q-31 -47 -73.5 -72t-108.5 -66q-10 -8 -26.5 11.5t-34 51.5 t-33.5 72t-29.5 74.5t-19.5 59t-2 26.5zM1399 1180l6 -9z" />
<glyph unicode="&#xd3;" d="M94 307q-10 -25 5.5 -58.5t47.5 -68.5l17 -28q25 -41 73 -85t101 -81t104.5 -61.5t85.5 -24.5h9q4 0 20 2q29 10 73 36.5t85 53.5l63 39q53 25 97.5 43t78.5 35q63 27 107.5 46t77 41.5t58.5 53.5t50.5 78t51 114.5t65.5 165.5l18 47q6 16 12.5 35t12.5 37l49 127 q10 78 1 163t-50 150l-14 23q-20 53 -56.5 94t-89.5 59q-12 -12 -48 -28.5t-74 -32.5t-70.5 -28.5t-38.5 -14.5q-16 -6 -45 -13t-68 -15.5t-83 -17.5t-89 -17q-53 -10 -102 -21.5t-89 -23t-65.5 -22.5t-32.5 -24l-260 -682q-33 -8 -51 -26.5t-29 -46.5zM121 307l8 23 q10 23 26.5 38t45.5 15l268 702q2 6 37 15.5t87 21t115.5 23.5t123 24.5t109.5 23.5t77 21q6 2 39 14.5t71.5 28t72.5 31t44 23.5q51 -16 82 -58.5t46.5 -96.5t17.5 -114.5t-5 -115.5l-20 -49q-14 -35 -26.5 -72t-26.5 -72l-17 -47q-45 -115 -74.5 -188.5t-58 -119.5 t-61.5 -72.5t-81 -50.5t-119 -52.5t-175 -75.5q-8 -4 -38 -23.5t-65.5 -42t-66.5 -41t-39 -20.5l-10 -1t-19 -1q-41 0 -108.5 36t-130 85t-102 101t-27.5 87zM678 416q-8 -20 10.5 -29.5t38.5 -9.5l199 518q8 20 -2.5 51t-24.5 45zM901 1520q-4 -43 8.5 -64.5t34.5 -44.5 l25 -37q6 -10 15 -20.5t20 -20.5l10 -10t22 -29q2 0 6.5 -1t6.5 -1q12 0 45.5 21.5t76.5 55.5t90.5 73t87.5 73.5t66.5 60.5t28.5 32l6 12l-45 72l4 8l-207 186l-284 -327q-8 -6 -10.5 -9.5t-6.5 -13.5t0 -16zM929 1538l5 6l262 303l180 -159q2 -2 -23.5 -27t-64.5 -59.5 t-86 -74.5t-89 -72t-71.5 -50.5t-35.5 -11.5q-16 20 -32 35.5t-27 30t-16 31.5t-1 42q-6 0 -1 6z" />
<glyph unicode="&#xd4;" d="M94 307q-10 -25 5.5 -58.5t47.5 -68.5l17 -28q25 -41 73 -85t101 -81t104.5 -61.5t85.5 -24.5h9q4 0 20 2q29 10 73 36.5t85 53.5l63 39q53 25 97.5 43t78.5 35q63 27 107.5 46t77 41.5t58.5 53.5t50.5 78t51 114.5t65.5 165.5l18 47q6 16 12.5 35t12.5 37l49 127 q10 78 1 163t-50 150l-14 23q-20 53 -56.5 94t-89.5 59q-12 -12 -48 -28.5t-74 -32.5t-70.5 -28.5t-38.5 -14.5q-16 -6 -45 -13t-68 -15.5t-83 -17.5t-89 -17q-53 -10 -102 -21.5t-89 -23t-65.5 -22.5t-32.5 -24l-260 -682q-33 -8 -51 -26.5t-29 -46.5zM121 307l8 23 q10 23 26.5 38t45.5 15l268 702q2 6 37 15.5t87 21t115.5 23.5t123 24.5t109.5 23.5t77 21q6 2 39 14.5t71.5 28t72.5 31t44 23.5q51 -16 82 -58.5t46.5 -96.5t17.5 -114.5t-5 -115.5l-20 -49q-14 -35 -26.5 -72t-26.5 -72l-17 -47q-45 -115 -74.5 -188.5t-58 -119.5 t-61.5 -72.5t-81 -50.5t-119 -52.5t-175 -75.5q-8 -4 -38 -23.5t-65.5 -42t-66.5 -41t-39 -20.5l-10 -1t-19 -1q-41 0 -108.5 36t-130 85t-102 101t-27.5 87zM575 1606q-4 -12 29 -45l29 -45q10 -18 45 -50t76 -64t82 -55.5t65 -23.5q16 0 31 10q27 20 82 62.5t108 83.5 q25 20 48.5 37.5t41.5 31.5l70 -172l8 4l45 -73l410 223l4 12v4l-43 70l2 4q2 6 -26.5 27.5t-74.5 49t-102.5 58.5t-110 56.5t-95.5 42t-60 16.5h-12l-645 -246zM602 1608l621 235q12 4 53 -9t93 -36.5t110.5 -53.5t104.5 -56.5t74 -46t21 -23.5l-376 -205l-105 258 q-16 -12 -59 -45t-93.5 -71.5t-98.5 -74.5t-73 -55q-16 -12 -64 12.5t-97 60.5t-84 70t-27 40zM678 416q-8 -20 10.5 -29.5t38.5 -9.5l199 518q8 20 -2.5 51t-24.5 45z" />
<glyph unicode="&#xd5;" d="M94 307q-10 -25 5.5 -58.5t47.5 -68.5l17 -28q25 -41 73 -85t101 -81t104.5 -61.5t85.5 -24.5h9q4 0 20 2q29 10 73 36.5t85 53.5l63 39q53 25 97.5 43t78.5 35q63 27 107.5 46t77 41.5t58.5 53.5t50.5 78t51 114.5t65.5 165.5l18 47q6 16 12.5 35t12.5 37l49 127 q10 78 1 163t-50 150l-14 23q-20 53 -56.5 94t-89.5 59q-12 -12 -48 -28.5t-74 -32.5t-70.5 -28.5t-38.5 -14.5q-16 -6 -45 -13t-68 -15.5t-83 -17.5t-89 -17q-53 -10 -102 -21.5t-89 -23t-65.5 -22.5t-32.5 -24l-260 -682q-33 -8 -51 -26.5t-29 -46.5zM121 307l8 23 q10 23 26.5 38t45.5 15l268 702q2 6 37 15.5t87 21t115.5 23.5t123 24.5t109.5 23.5t77 21q6 2 39 14.5t71.5 28t72.5 31t44 23.5q51 -16 82 -58.5t46.5 -96.5t17.5 -114.5t-5 -115.5l-20 -49q-14 -35 -26.5 -72t-26.5 -72l-17 -47q-45 -115 -74.5 -188.5t-58 -119.5 t-61.5 -72.5t-81 -50.5t-119 -52.5t-175 -75.5q-8 -4 -38 -23.5t-65.5 -42t-66.5 -41t-39 -20.5l-10 -1t-19 -1q-41 0 -108.5 36t-130 85t-102 101t-27.5 87zM575 1606q-2 -4 19 -25l37 -59q6 -10 31.5 -28.5t62.5 -41t80 -46.5t85 -43.5t78 -31.5t56 -12q18 0 33 10 q23 16 48 31.5t54 32.5q20 12 34.5 20t35.5 23l112 -125l404 219l4 12l-45 72l4 6q2 6 -21.5 23.5t-60.5 42t-84 50t-92 48t-84 37t-59 14.5q-14 0 -23 -6l2 4q-53 -35 -91 -65.5t-69 -59.5l-6 -6l-6 -6l-119 149l-413 -225zM602 1608l377 202l125 -153q35 29 78 69.5 t100 77.5q10 8 46 -2t82 -29.5t95 -44t90 -48t66 -41t18 -21.5l-376 -205l-113 127q-33 -23 -85 -53.5t-106 -65.5q-12 -8 -46.5 1.5t-81 28.5t-96.5 44t-91 48.5t-64.5 42t-17.5 22.5zM678 416q-8 -20 10.5 -29.5t38.5 -9.5l199 518q8 20 -2.5 51t-24.5 45z" />
<glyph unicode="&#xd6;" d="M94 307l8 23q10 29 29 47t51 26l260 682q6 12 32 23.5t66 23t89 22.5t102 22q90 16 172 33.5t123 33.5q8 2 41 15.5t70 29t70.5 30.5t43.5 21q53 -16 87 -55t53 -92l18 -27q41 -66 49 -150.5t-2 -160.5l-49 -127q-6 -18 -12 -36.5t-13 -35.5l-18 -47 q-39 -98 -65.5 -165.5t-51 -114.5t-50.5 -78t-58.5 -53.5t-76.5 -42t-108 -45.5q-35 -16 -79 -35t-97 -43h-2q-8 -4 -28.5 -16.5t-45.5 -28.5q-41 -27 -82.5 -53.5t-56.5 -30.5q-16 -2 -20 -2h-15q-33 0 -84 24.5t-105 61.5t-101.5 82t-71.5 86l-14 22q-35 37 -51.5 72 t-6.5 59zM121 307q-12 -35 27.5 -87t102 -101t130.5 -85t108 -36q8 0 19 1l10 1q6 2 37 20.5t66.5 41t66.5 42t39 23.5q104 47 175 75.5t119 52.5t81 50.5t61.5 72.5t58 119.5t74.5 188.5l17 47q14 35 26.5 72t26.5 72l20 49q6 55 4.5 115.5t-17 114.5t-46.5 96t-82 59 q-10 -6 -44 -21.5t-71.5 -31t-70.5 -28.5t-41 -16q-27 -10 -77 -21t-109.5 -23.5t-123 -24.5t-115.5 -23.5t-87 -20.5t-37 -16l-268 -702q-29 0 -45.5 -15.5t-26.5 -37.5zM628.5 1517q-14.5 50 6.5 103q29 74 94.5 124t130.5 89l14 4q156 -25 175 -113l30 -45 q35 -59 -8 -170q-14 -37 -42 -69.5t-61.5 -58t-71.5 -40t-75 -14.5q-39 0 -69.5 19.5t-49.5 50.5l-22 37q-37 33 -51.5 83zM651.5 1550.5q3.5 -34.5 21 -62.5t45 -45.5t62.5 -17.5q33 0 67 13.5t64.5 35t54 51t35.5 62.5q41 104 8.5 155.5t-145.5 67.5q-29 -18 -60.5 -38.5 t-59 -43t-49 -50t-33.5 -58.5q-14 -35 -10.5 -69.5zM678 416l221 575q14 -14 24.5 -45t2.5 -51l-199 -518q-20 0 -38.5 9t-10.5 30zM1227.5 1517q-13.5 52 7.5 105q29 74 95.5 125t129.5 90l17 4q78 -14 120.5 -40.5t53.5 -76.5l28 -43q35 -55 -8 -170q-14 -37 -40.5 -69.5 t-61.5 -58t-73 -40t-75 -14.5q-39 0 -68.5 19.5t-49.5 50.5l-21 35q-41 31 -54.5 83zM1253.5 1552.5q3.5 -34.5 21 -62.5t45.5 -45.5t62 -17.5q33 0 67 13.5t63.5 35t54 51t37.5 62.5q41 104 7 157t-145 69q-59 -37 -119.5 -83t-84.5 -110q-12 -35 -8.5 -69.5z" />
<glyph unicode="&#xd7;" horiz-adv-x="868" d="M221 287q-8 -16 8 -17h2l43 -69q4 -8 43 16.5t93 52.5q43 25 98 56.5t110 60.5l15 -25q12 -23 33.5 -41t45 -30t44 -18.5t32.5 -6.5h7q16 0 22 7.5t10 17.5l2 8l-18 170q59 35 78 57q20 31 30.5 45.5t20.5 24.5q27 35 45.5 61.5t28.5 51.5q4 10 8 26q0 10 -2 15l-41 63 l2 4q4 16 -4 18.5t-19 2.5h-16l-266 -127l-199 184q-29 0 -34 -3t-15 -26q-4 -10 -1 -35.5t10 -61.5t16.5 -79t19.5 -88l-225 -270q-20 -29 -27 -45zM264 315l240 289q-12 49 -22.5 96.5t-17.5 84t-9 60t4 23.5l207 -190l276 133h6q4 0 4 -2q-10 -43 -45 -86t-86 -113 q-8 -14 -80 -57l19 -180l-2 -4q0 -4 -4 -4q-12 -2 -37 6t-51.5 24.5t-48 42t-25.5 56.5q-55 -29 -115.5 -62t-109 -60.5t-78 -44t-25.5 -12.5z" />
<glyph unicode="&#xd8;" d="M94 307q-10 -25 5.5 -58.5t47.5 -68.5l17 -28q25 -41 73 -85t101 -81t104.5 -61.5t85.5 -24.5h9q4 0 20 2q29 10 73 36.5t85 53.5l63 39q53 25 97.5 43t78.5 35q63 27 107.5 46t77 41.5t58.5 53.5t50.5 78t51 114.5t65.5 165.5l18 47q6 16 12.5 35t12.5 37l49 127 q10 78 1 163t-50 150l-14 23q-20 53 -56.5 94t-89.5 59q-12 -12 -48 -28.5t-74 -32.5t-70.5 -28.5t-38.5 -14.5q-16 -6 -45 -13t-68 -15.5t-83 -17.5t-89 -17q-53 -10 -102 -21.5t-89 -23t-65.5 -22.5t-32.5 -24l-260 -682q-33 -8 -51 -26.5t-29 -46.5zM121 307l8 23 q10 23 26.5 38t45.5 15l268 702q2 6 37 15.5t87 21t115.5 23.5t123 24.5t109.5 23.5t77 21q6 2 39 14.5t71.5 28t72.5 31t44 23.5q51 -16 82 -58.5t46.5 -96.5t17.5 -114.5t-5 -115.5l-20 -49q-14 -35 -26.5 -72t-26.5 -72l-17 -47q-45 -115 -74.5 -188.5t-58 -119.5 t-61.5 -72.5t-81 -50.5t-119 -52.5t-175 -75.5q-8 -4 -38 -23.5t-65.5 -42t-66.5 -41t-39 -20.5l-10 -1t-19 -1q-41 0 -108.5 36t-130 85t-102 101t-27.5 87zM678 416q-4 -10 3 -11.5t19.5 1t26.5 5.5t25 3l55 174l-88 -64zM801 735l112 101l13 59q4 20 -4.5 51t-22.5 45z " />
</font>
</defs>
</svg>
