<?xml version="1.0" standalone="no"?>
<!DOCTYPE svg PUBLIC "-//W3C//DTD SVG 1.1//EN" "http://www.w3.org/Graphics/SVG/1.1/DTD/svg11.dtd" >
<svg xmlns="http://www.w3.org/2000/svg" xmlns:xlink="http://www.w3.org/1999/xlink" version="1.1">
<metadata>
Created by FontForge 20170731 at Fri Jan 13 02:25:25 2012
 By Aleksey,,,
Copyright (c) 2011 by LatinoType Limitada (info@latinotype.com),  with Reserved Font Names "Flamenco"
</metadata>
<defs>
<font id="Flamenco-Light" horiz-adv-x="495" >
  <font-face 
    font-family="Flamenco"
    font-weight="300"
    font-stretch="normal"
    units-per-em="1000"
    panose-1="0 0 0 0 0 0 0 0 0 0"
    ascent="800"
    descent="-200"
    x-height="374"
    cap-height="608"
    bbox="-41 -231 1287 791"
    underline-thickness="50"
    underline-position="-150"
    unicode-range="U+0020-FB02"
  />
<missing-glyph horiz-adv-x="230" 
 />
    <glyph glyph-name=".notdef" horiz-adv-x="230" 
 />
    <glyph glyph-name=".null" horiz-adv-x="0" 
 />
    <glyph glyph-name="nonmarkingreturn" horiz-adv-x="333" 
 />
    <glyph glyph-name="space" unicode=" " horiz-adv-x="230" 
 />
    <glyph glyph-name="exclam" unicode="!" horiz-adv-x="202" 
d="M101 613q9 0 9 -9l-2 -515q0 -8 -7 -8t-7 8l-2 515q0 9 9 9zM87 10q0 15 15 15t15 -15t-15 -15t-15 15z" />
    <glyph glyph-name="quotedbl" unicode="&#x22;" horiz-adv-x="202" 
d="M61 755q10 0 10 -9l-5 -100q0 -5 -5 -5t-5 5l-5 100q0 9 10 9zM141 755q10 0 10 -9l-5 -100q0 -5 -5 -5t-5 5l-5 100q0 9 10 9z" />
    <glyph glyph-name="numbersign" unicode="#" horiz-adv-x="507" 
d="M76 7l49 215h-81q-8 0 -8 8.5t8 8.5h85l32 139h-81q-8 0 -8 8.5t8 8.5h85l48 209q2 8 7 8q1 0 5 -2t3 -9l-47 -206h186l48 209q2 8 7 8q1 0 5 -2t3 -9l-47 -206h81q8 0 8 -8.5t-8 -8.5h-85l-32 -139h81q8 0 8 -8.5t-8 -8.5h-85l-50 -219q-2 -6 -8 -6q-9 0 -7 9l49 216
h-186l-50 -219q-2 -6 -9 -6t-6 10zM177 378l-32 -139h186l32 139h-186z" />
    <glyph glyph-name="dollar" unicode="$" horiz-adv-x="551" 
d="M271 742q0 9 8.5 9t8.5 -9v-129q118 -2 198 -45q6 -3 6 -8v-86q0 -9 -8.5 -9t-8.5 9v81q-72 39 -187 41v-268q131 -26 178 -67t47 -109t-58 -110t-167 -46v-151q0 -9 -8.5 -9t-8.5 9v150q-60 0 -125.5 12.5t-99.5 33.5q-4 2 -4 7v86q0 9 8.5 9t8.5 -9v-81q34 -19 95 -30
t117 -11v302q-112 22 -164 53t-52 102t53 106.5t163 37.5v129zM442 52.5q54 36.5 54 104t-52.5 100.5t-155.5 54v-299q100 4 154 40.5zM72 466q0 -50 39 -80q30 -24 99 -40q22 -6 61 -14v264q-103 -2 -151 -33t-48 -97z" />
    <glyph glyph-name="percent" unicode="%" horiz-adv-x="592" 
d="M250 380.5q-32 -37.5 -88 -37.5t-88 36.5t-32 98.5t32 98.5t88.5 36.5t88 -38t31.5 -97.5t-32 -97zM161 596q-48 0 -75 -31t-27 -87t27 -87t75 -31t76 31.5t28 86.5t-28 86.5t-76 31.5zM518 32.5q-32 -37.5 -88 -37.5t-88 36.5t-32 98.5t32 98.5t88.5 36.5t88 -38
t31.5 -97.5t-32 -97zM429 248q-48 0 -75 -31t-27 -87t27 -87t75 -31t76 31.5t28 86.5t-28 86.5t-76 31.5zM89 -3q-9 3 -9 7t3 8l414 595q4 4 7 4q10 0 10 -8q0 -2 -2 -5l-414 -595q-4 -6 -9 -6z" />
    <glyph glyph-name="ampersand" unicode="&#x26;" horiz-adv-x="535" 
d="M222 -5q-78 0 -123 41t-45 104.5t33.5 107t92.5 86.5q-57 91 -57 165q0 55 31.5 85.5t84.5 30.5t80 -32t27 -84q0 -32 -15.5 -53.5t-24.5 -32.5t-26.5 -25.5t-26 -21t-27.5 -20t-23 -16.5l29 -40q58 -74 167 -185q59 65 80 140q4 8 11 5q6 -2 6 -7q0 -57 -85 -150
q21 -22 39 -41q22 -21 44 -43q2 -3 2 -6t-2.5 -6t-5.5 -3l-6 3l-82 83q-83 -85 -178 -85zM388 92q-151 154 -198 228q-57 -41 -88 -81t-31 -97.5t40 -93.5t117.5 -36t159.5 80zM297.5 578.5q-21.5 19.5 -55.5 19.5t-56.5 -11.5t-31.5 -30.5q-14 -28 -14 -57q0 -70 54 -155
q5 4 23 17t27 20t24.5 20t24 23t17.5 23q19 25 19 49t-5 43.5t-26.5 39z" />
    <glyph glyph-name="quotesingle" unicode="'" horiz-adv-x="122" 
d="M61 755q10 0 10 -9l-5 -100q0 -5 -5 -5t-5 5l-5 100q0 9 10 9z" />
    <glyph glyph-name="parenleft" unicode="(" horiz-adv-x="219" 
d="M50 244q0 126 36 231.5t106 148.5q2 1 5 1q7 0 7 -8q0 -4 -6 -8q-67 -44 -99 -143t-32 -222t32 -222t99 -143q6 -4 6 -7q0 -9 -8 -9q-2 0 -4 1q-70 43 -106 148.5t-36 231.5z" />
    <glyph glyph-name="parenright" unicode=")" horiz-adv-x="219" 
d="M169 244q0 -126 -36 -231.5t-106 -148.5q-2 -1 -5 -1q-7 0 -7 8q0 4 6 8q67 44 99 143t32 222t-32 222t-99 143q-6 4 -6 7q0 9 8 9q2 0 4 -1q70 -43 106 -148.5t36 -231.5z" />
    <glyph glyph-name="asterisk" unicode="*" horiz-adv-x="399" 
d="M341 512q4 -3 4 -5.5t-2.5 -7t-9.5 -0.5l-127 73v-146q0 -8 -8.5 -8t-8.5 8v146l-125 -73q-7 -4 -10 1t-3 8t4 6l126 72l-125 73q-4 3 -4 5.5t1 5.5q4 9 12 4l124 -73v146q0 8 8.5 8t8.5 -8v-147l127 74q7 4 9.5 -1t2.5 -7.5t-4 -5.5l-127 -74z" />
    <glyph glyph-name="plus" unicode="+" horiz-adv-x="346" 
d="M163 226v100q0 8 8.5 8t8.5 -8v-100h101q8 0 8 -8.5t-8 -8.5h-101v-100q0 -8 -8.5 -8t-8.5 8v100h-99q-8 0 -8 8.5t8 8.5h99z" />
    <glyph glyph-name="comma" unicode="," horiz-adv-x="144" 
d="M74 -19.5q-13 -15.5 -21 -19.5t-11 -4t-3 3.5t3 5.5q15 10 23 30q-10 3 -10 15q0 16 16 16t16 -15.5t-13 -31z" />
    <glyph glyph-name="hyphen" unicode="-" horiz-adv-x="389" 
d="M74 226h241q8 0 8 -8.5t-8 -8.5h-241q-8 0 -8 8.5t8 8.5z" />
    <glyph glyph-name="period" unicode="." horiz-adv-x="144" 
d="M56 11q0 16 16 16t16 -16t-16 -16t-16 16z" />
    <glyph glyph-name="slash" unicode="/" horiz-adv-x="486" 
d="M35 -3q-9 3 -9 7t3 8l414 595q4 4 7 4q10 0 10 -8q0 -2 -2 -5l-414 -595q-4 -6 -9 -6z" />
    <glyph glyph-name="zero" unicode="0" horiz-adv-x="446" 
d="M374 187q0 79 -39.5 127t-111.5 48t-111.5 -48t-39.5 -127t39.5 -127t111.5 -48t111.5 48t39.5 127zM55 187q0 87 44.5 139.5t123.5 52.5t123.5 -52.5t44.5 -139.5t-44.5 -139.5t-123.5 -52.5t-123.5 52.5t-44.5 139.5z" />
    <glyph glyph-name="one" unicode="1" horiz-adv-x="287" 
d="M252 0h-191q-8 0 -8 8.5t8 8.5h87v327q-38 -44 -83 -61q-9 -4 -11 5t5 11q51 18 89 72q5 7 11 7t6 -7v-354h87q8 0 8 -8.5t-8 -8.5z" />
    <glyph glyph-name="two" unicode="2" horiz-adv-x="437" 
d="M373 0h-313q-8 0 -8 8q0 65 50 104q27 21 47.5 32t41 20.5t22.5 10.5q5 3 11 5.5t24 11t26.5 12.5t23 12t22 14.5t16.5 15.5q15 15 15 39q0 77 -137 77q-77 0 -129 -25v-79q0 -8 -8.5 -8t-8.5 8v85q0 5 7 8q54 28 139 28q154 0 154 -94q0 -44 -44 -71q-33 -21 -78.5 -42
t-60.5 -28t-41 -22.5t-38 -28.5q-33 -34 -37 -76h295v79q0 8 8.5 8t8.5 -8v-88q0 -8 -8 -8z" />
    <glyph glyph-name="three" unicode="3" horiz-adv-x="469" 
d="M228 -229q-49 0 -98 13.5t-77 35.5q-3 2 -3 6v85q0 9 8.5 9t8.5 -9v-80q27 -19 72 -31t89 -12q176 0 176 139q0 76 -50.5 114t-162.5 49q-8 0 -8 8t8 8q105 10 152 42.5t47 95t-38 90.5t-126 28t-146 -36v-80q0 -9 -8.5 -9t-8.5 9v83q0 7 10 12q62 38 155 38t136 -32.5
t43 -101.5q0 -120 -158 -147q87 -15 129.5 -57t42.5 -114q0 -156 -193 -156z" />
    <glyph glyph-name="four" unicode="4" horiz-adv-x="426" 
d="M28 0q-10 0 -10 8q0 3 2 5l207 362q3 4 6 4t8 -2.5t1 -10.5l-200 -349h253v84q0 9 8.5 9t8.5 -9v-84h86q9 0 9 -8.5t-9 -8.5h-86v-220q0 -9 -8.5 -9t-8.5 9v220h-267z" />
    <glyph glyph-name="five" unicode="5" horiz-adv-x="463" 
d="M94 134l-14 -3q-7 0 -7 6v234q0 8 9 8h304q8 0 8 -8.5t-8 -8.5h-296v-212q72 19 130 19q98 0 149.5 -53t51.5 -145t-53.5 -146t-146.5 -54t-162 54q-6 5 -6 10v97q0 9 8.5 9t8.5 -9v-94q27 -22 71.5 -36t87.5 -14q84 0 129.5 52.5t45.5 121.5q0 190 -182 190
q-53 0 -128 -18z" />
    <glyph glyph-name="six" unicode="6" horiz-adv-x="460" 
d="M239 -5q-57 0 -101 31q-50 35 -72 124q-11 48 -11 111q0 236 70 355t216 139h3q7 0 7 -8.5t-7 -8.5q-137 -18 -203 -128.5t-69 -326.5q80 96 169.5 96t137 -54.5t47.5 -138t-52 -137.5t-135 -54zM114.5 75q42.5 -63 121 -63t126 49t47.5 126.5t-44.5 126t-117.5 48.5
q-40 0 -80 -22t-60 -41.5t-35 -40.5q0 -120 42.5 -183z" />
    <glyph glyph-name="seven" unicode="7" horiz-adv-x="406" 
d="M175 -220q0 -9 -8.5 -9t-8.5 9q0 105 26 179.5t91 164.5q31 43 45.5 67t29.5 69.5t16 96.5h-323v-76q0 -8 -8.5 -8t-8.5 8v85q0 8 9 8h340q9 0 9 -8q0 -123 -74 -224q-30 -41 -61 -86.5t-52.5 -115.5t-21.5 -160z" />
    <glyph glyph-name="eight" unicode="8" horiz-adv-x="515" 
d="M256 -5q-95 0 -150.5 47t-55.5 135q0 86 61 137q32 26 56 40t71 37q-85 41 -125.5 86t-40.5 118t49.5 116.5t136 43.5t136 -44.5t49.5 -116t-40.5 -116.5t-125.5 -87q47 -23 71 -37t56 -40q61 -51 61 -136t-57 -134t-152 -49zM132 310q-65 -53 -65 -132.5t49.5 -122.5
t139 -43t141 44.5t51.5 120.5q0 82 -67 133q-34 26 -57.5 39.5t-66.5 33.5q-95 -49 -125 -73zM257 738q-116 0 -153 -77q-15 -32 -15 -71q0 -68 41.5 -108t126.5 -82q86 42 127.5 82t41.5 109t-44.5 108t-124.5 39z" />
    <glyph glyph-name="nine" unicode="9" horiz-adv-x="451" 
d="M111 -229q-9 0 -9 7.5t8 9.5q80 11 143.5 59t96.5 113t39 136q-78 -82 -168.5 -82t-138 51t-47.5 133t52 131.5t135 49.5q113 0 152 -83q32 -69 32 -179q0 -141 -95 -248q-66 -74 -177 -95q-21 -3 -23 -3zM222 362q-76 0 -123 -44.5t-47 -121.5t44.5 -121t117.5 -44
q105 0 175 89q0 135 -45 191q-17 22 -48.5 36.5t-73.5 14.5z" />
    <glyph glyph-name="colon" unicode=":" horiz-adv-x="164" 
d="M66 11q0 16 16 16t16 -16t-16 -16t-16 16zM66 363q0 16 16 16t16 -16t-16 -16t-16 16z" />
    <glyph glyph-name="semicolon" unicode=";" horiz-adv-x="188" 
d="M81 363q0 16 16 16t16 -16t-16 -16t-16 16zM100 -19.5q-13 -15.5 -21 -19.5t-11 -4t-3 3.5t3 5.5q15 10 23 30q-10 3 -10 15q0 16 16 16t16 -15.5t-13 -31z" />
    <glyph glyph-name="less" unicode="&#x3c;" horiz-adv-x="430" 
d="M346 437q3 2 9 2t6 -6.5t-6 -9.5l-301 -189l301 -189q5 -3 5 -6.5t-2.5 -6.5t-5.5 -3t-6 2l-309 195q-5 3 -5 8t5 8z" />
    <glyph glyph-name="equal" unicode="=" horiz-adv-x="415" 
d="M77 286h261q8 0 8 -8.5t-8 -8.5h-261q-8 0 -8 8.5t8 8.5zM77 166h261q8 0 8 -8.5t-8 -8.5h-261q-8 0 -8 8.5t8 8.5z" />
    <glyph glyph-name="greater" unicode="&#x3e;" horiz-adv-x="430" 
d="M74 439q6 0 9 -2l309 -195q4 -3 4 -8t-4 -8l-309 -195q-3 -2 -6 -2t-5.5 3t-2.5 6.5t5 6.5l301 189l-301 189q-6 3 -6 9.5t6 6.5z" />
    <glyph glyph-name="question" unicode="?" horiz-adv-x="470" 
d="M184 150q0 49 17.5 85t43 56t56 40t56 37t43 47t17.5 70q0 57 -45 84t-147.5 27t-166.5 -35v-87q0 -8 -8.5 -8t-8.5 8v92q0 6 15 13q71 34 175 34q203 0 203 -128q0 -91 -82 -143q-35 -21 -69 -42.5t-58 -59t-24 -90.5q0 -8 -8.5 -8t-8.5 8zM208 10q0 -6 -4.5 -10.5
t-10.5 -4.5t-10.5 4.5t-4.5 10.5t4.5 10.5t10.5 4.5t10.5 -4.5t4.5 -10.5z" />
    <glyph glyph-name="at" unicode="@" horiz-adv-x="894" 
d="M432 -5q-83 0 -126 54t-43 139.5t45 138t130 52.5t157 -70v61q0 9 8.5 9t8.5 -9v-317q0 -59 72 -59t115.5 55t43.5 142q0 178 -109.5 291.5t-281.5 113.5t-280 -113t-108 -291.5t108 -291t279 -112.5q137 0 236 72q7 5 12 -2t-2 -12q-103 -75 -246 -75q-182 0 -293 118.5
t-111 302t112 302.5t293.5 119t294.5 -121t113 -301q0 -91 -47.5 -152.5t-125.5 -61.5q-92 0 -92 76v43q-66 -101 -163 -101zM432 362q-70 0 -111 -47t-41 -128t41 -128t111 -47q100 0 163 115v159q-29 32 -72 54t-91 22z" />
    <glyph glyph-name="A" unicode="A" horiz-adv-x="614" 
d="M616 3q0 -8 -9 -8q-5 0 -7 5l-100 201h-381l-99 -201q-2 -5 -7 -5q-9 0 -9 8q0 2 1 4l289 584h-65q-8 0 -8 8.5t8 8.5h83q5 0 7 -4l296 -597q1 -2 1 -4zM310 585l-182 -367h364z" />
    <glyph glyph-name="B" unicode="B" horiz-adv-x="606" 
d="M342 0h-228q-9 0 -9 8v583h-72q-8 0 -8 8.5t8 8.5h289q197 0 197 -146q0 -111 -109 -138q145 -22 145 -159q0 -165 -213 -165zM122 313v-296h220q100 0 148 36t48 112q0 148 -179 148h-237zM122 591v-261h224q72 0 114 33.5t42 99t-44.5 97t-135.5 31.5h-200z" />
    <glyph glyph-name="C" unicode="C" horiz-adv-x="612" 
d="M570 94q-83 -99 -219 -99t-217 84.5t-81 223.5t81 224.5t204.5 85.5t206.5 -48q6 -3 6 -8v-90q0 -9 -8.5 -9t-8.5 9v85q-82 44 -197.5 44t-191 -80.5t-75.5 -211.5t75.5 -211.5t205 -80.5t206.5 93q6 7 10.5 2.5t4.5 -7.5t-2 -6z" />
    <glyph glyph-name="D" unicode="D" horiz-adv-x="656" 
d="M305 0h-190q-8 0 -8 8v583h-78q-9 0 -9 8.5t9 8.5h276q135 0 216 -82.5t81 -222.5t-79.5 -221.5t-217.5 -81.5zM124 591v-574h181q132 0 206 75.5t74 210t-76 211.5t-204 77h-181z" />
    <glyph glyph-name="E" unicode="E" horiz-adv-x="572" 
d="M526 512q0 -8 -8.5 -8t-8.5 8v79h-385v-277h335v54q0 9 8.5 9t8.5 -9v-126q0 -9 -8.5 -9t-8.5 9v55h-335v-280h394q8 0 8 -8.5t-8 -8.5h-403q-8 0 -8 8v583h-78q-9 0 -9 8.5t9 8.5h489q8 0 8 -9v-87z" />
    <glyph glyph-name="F" unicode="F" horiz-adv-x="530" 
d="M497 512q0 -8 -8.5 -8t-8.5 8v79h-357v-277h306v54q0 9 8.5 9t8.5 -9v-126q0 -9 -8.5 -9t-8.5 9v55h-306v-294q0 -8 -8.5 -8t-8.5 8v588h-78q-9 0 -9 8.5t9 8.5h461q8 0 8 -9v-87z" />
    <glyph glyph-name="G" unicode="G" horiz-adv-x="631" 
d="M548 73q-83 -78 -209.5 -78t-206 87t-79.5 224.5t82 222t203.5 84.5t206.5 -48q7 -3 7 -8v-90q0 -9 -8.5 -9t-8.5 9v85q-82 44 -198 44t-191.5 -80.5t-75.5 -211.5t75.5 -211.5t199 -80.5t203.5 82v172h-173q-9 0 -9 8.5t9 8.5h182q8 0 8 -8v-272q0 -8 -8.5 -8t-8.5 8v70
z" />
    <glyph glyph-name="H" unicode="H" horiz-adv-x="673" 
d="M644 0h-34q-61 0 -61 49v248h-426v-294q0 -8 -8.5 -8t-8.5 8v588h-78q-8 0 -8 8.5t8 8.5h87q8 0 8 -9v-285h426v277h-78q-8 0 -8 8.5t8 8.5h87q8 0 8 -9v-550q0 -32 44 -32h34q9 0 9 -8.5t-9 -8.5z" />
    <glyph glyph-name="I" unicode="I" horiz-adv-x="244" 
d="M209 0h-173q-9 0 -9 8.5t9 8.5h78v574h-78q-9 0 -9 8.5t9 8.5h173q8 0 8 -8.5t-8 -8.5h-78v-574h78q8 0 8 -8.5t-8 -8.5z" />
    <glyph glyph-name="J" unicode="J" horiz-adv-x="230" 
d="M-5 -203q0 7 6 9q62 20 83.5 64t21.5 122v599h-78q-8 0 -8 8.5t8 8.5h173q9 0 9 -8.5t-9 -8.5h-78v-599q0 -86 -24 -130t-81 -68q-8 -4 -15.5 -4t-7.5 7z" />
    <glyph glyph-name="K" unicode="K" horiz-adv-x="571" 
d="M564 591h-61l-219 -256l257 -326q5 -7 0.5 -10.5t-8 -3.5t-6.5 3l-255 323l-149 -174v-144q0 -8 -8.5 -8t-8.5 8v588h-78q-8 0 -8 8.5t8 8.5h87q8 0 8 -9v-427l358 419h-60q-9 0 -9 8.5t9 8.5h143q8 0 8 -8.5t-8 -8.5z" />
    <glyph glyph-name="L" unicode="L" horiz-adv-x="534" 
d="M510 0h-394q-9 0 -9 9v582h-78q-9 0 -9 8.5t9 8.5h173q8 0 8 -8.5t-8 -8.5h-78v-574h378v78q0 9 8.5 9t8.5 -9v-87q0 -8 -9 -8z" />
    <glyph glyph-name="M" unicode="M" horiz-adv-x="812" 
d="M776 0h-34q-61 0 -61 49v523l-272 -372q-3 -3 -7 -3t-7 3l-272 372v-569q0 -8 -8.5 -8t-8.5 8v588h-78q-9 0 -9 8.5t9 8.5h83q7 0 11 -6l280 -383l279 382q5 7 11 7h84q9 0 9 -8.5t-9 -8.5h-78v-542q0 -32 44 -32h34q9 0 9 -8.5t-9 -8.5z" />
    <glyph glyph-name="N" unicode="N" horiz-adv-x="693" 
d="M665 591h-78v-588q0 -8 -8 -8q-5 0 -9 5l-447 573v-570q0 -8 -8.5 -8t-8.5 8v588h-78q-9 0 -9 8.5t9 8.5h83q6 0 10 -5l449 -575v563h-78q-9 0 -9 8.5t9 8.5h173q8 0 8 -8.5t-8 -8.5z" />
    <glyph glyph-name="O" unicode="O" horiz-adv-x="700" 
d="M52 304q0 136 83 222.5t215 86.5t215 -86.5t83 -222.5t-83 -222.5t-215 -86.5t-215 86.5t-83 222.5zM69 304q0 -129 78 -210.5t203 -81.5t203 81.5t78 210.5t-78 210.5t-203 81.5t-203 -81.5t-78 -210.5z" />
    <glyph glyph-name="P" unicode="P" horiz-adv-x="598" 
d="M123 3q0 -8 -8.5 -8t-8.5 8v588h-78q-8 0 -8 8.5t8 8.5h326q210 0 210 -191t-210 -191h-231v-223zM123 591v-348h231q193 0 193 174t-193 174h-231z" />
    <glyph glyph-name="Q" unicode="Q" horiz-adv-x="701" 
d="M52 304q0 136 83 222.5t215 86.5t215 -86.5t83 -222.5q0 -89 -37.5 -159t-103.5 -109l113 -130q5 -7 1 -11t-7 -4l-6 3l-117 133q-62 -32 -141 -32q-132 0 -215 86.5t-83 222.5zM69 304q0 -129 78 -210.5t203 -81.5q71 0 130 28l-135 155q-6 6 0.5 11.5t12.5 -0.5
l137 -157q64 36 100 103t36 152q0 129 -78 210.5t-203 81.5t-203 -81.5t-78 -210.5z" />
    <glyph glyph-name="R" unicode="R" horiz-adv-x="627" 
d="M576 3q0 -8 -8 -8q-5 0 -8 4l-147 250q-25 -4 -60 -4h-230v-242q0 -8 -8.5 -8t-8.5 8v588h-78q-9 0 -9 8.5t9 8.5h325q211 0 211 -181q0 -144 -133 -174l144 -245q1 -3 1 -5zM353 262q194 0 194 164.5t-194 164.5h-230v-329h230z" />
    <glyph glyph-name="S" unicode="S" horiz-adv-x="574" 
d="M277 -5q-56 0 -121 12.5t-99 33.5q-4 2 -4 7v86q0 9 8.5 9t8.5 -9v-81q34 -19 94 -30t113 -11q110 0 170 37t60 106q0 60 -41 95q-47 39 -183 64q-105 21 -146.5 43t-56 47.5t-14.5 61.5q0 75 55.5 111t174.5 36t201 -45q6 -3 6 -8v-86q0 -9 -8.5 -9t-8.5 9v81
q-32 18 -87 29.5t-108 11.5q-107 0 -157.5 -31.5t-50.5 -98.5q0 -49 40 -80q32 -25 101 -41q22 -5 61 -13.5t60 -13.5t53.5 -15t51 -22t38.5 -29q36 -33 36 -102.5t-63.5 -112t-183.5 -42.5z" />
    <glyph glyph-name="T" unicode="T" horiz-adv-x="605" 
d="M587 512q0 -8 -8.5 -8t-8.5 8v79h-259v-588q0 -8 -8.5 -8t-8.5 8v588h-259v-79q0 -8 -8.5 -8t-8.5 8v87q0 9 8 9h552q9 0 9 -9v-87z" />
    <glyph glyph-name="U" unicode="U" horiz-adv-x="644" 
d="M489.5 47.5q-67.5 -52.5 -166 -52.5t-162.5 54t-64 140v402h-78q-8 0 -8 8.5t8 8.5h87q8 0 8 -9v-410q0 -78 59 -127.5t153 -49.5t154 49.5t60 127.5v402h-78q-8 0 -8 8.5t8 8.5h87q8 0 8 -9v-410q0 -89 -67.5 -141.5z" />
    <glyph glyph-name="V" unicode="V" horiz-adv-x="583" 
d="M1 606q0 7 9 7q4 0 7 -5l274 -585l275 585q3 5 6 5q10 0 10 -8q0 -2 -1 -4l-282 -601q-2 -5 -7.5 -5t-7.5 5l-282 601q-1 3 -1 5z" />
    <glyph glyph-name="W" unicode="W" horiz-adv-x="830" 
d="M4 605q0 8 9 8q4 0 7 -5l248 -583l137 323l-107 253q-4 8 1.5 10t9 2t5.5 -5l101 -237l101 237q3 5 6 5t5 -1q9 -4 5 -11l-108 -253l138 -323l248 583q3 5 6 5q10 0 10 -8q0 -2 -1 -4l-255 -601q-2 -5 -8 -5t-8 5l-139 326l-139 -326q-2 -5 -8 -5t-8 5l-255 601
q-1 2 -1 4z" />
    <glyph glyph-name="X" unicode="X" horiz-adv-x="579" 
d="M25 -2q-3 -3 -6.5 -3t-6.5 2.5t-3 5.5t3 6l266 300l-258 290q-6 6 -1.5 10t7.5 4t7 -3l256 -289l257 289q3 4 6 4q15 -7 7 -15l-258 -291l266 -299q3 -3 3 -6t-3 -5.5t-5 -2.5l-7 3l-265 298z" />
    <glyph glyph-name="Y" unicode="Y" horiz-adv-x="546" 
d="M282 3q0 -8 -8.5 -8t-8.5 8v216l-263 380q-2 2 -2 5t3.5 6t6.5 3t6 -4l257 -372l257 372q3 5 6.5 5t6.5 -3t3 -6t-2 -6l-262 -378v-218z" />
    <glyph glyph-name="Z" unicode="Z" horiz-adv-x="590" 
d="M538 0h-487q-8 0 -8 9q0 66 38 118q21 29 37.5 49t53.5 51q46 38 85 67.5t68.5 52t40 30.5t35.5 29.5t36 33.5t29 32.5t26 37.5q22 46 25 81h-447v-99q0 -8 -8.5 -8t-8.5 8v108q0 8 9 8h463q9 0 9 -8q0 -47 -15.5 -75t-25 -44t-28.5 -35.5t-31 -32t-35.5 -31.5t-34 -27
t-35.5 -26.5t-31 -23t-37.5 -28.5t-41 -32t-37 -31t-38.5 -35t-30 -35t-28 -40q-23 -48 -26 -87h470v99q0 8 8.5 8t8.5 -8v-107q0 -9 -9 -9z" />
    <glyph glyph-name="bracketleft" unicode="[" horiz-adv-x="266" 
d="M91 -100v704q0 9 8 9h141q8 0 8 -8.5t-8 -8.5h-132v-688h132q8 0 8 -8.5t-8 -8.5h-141q-8 0 -8 9z" />
    <glyph glyph-name="backslash" unicode="\" horiz-adv-x="366" 
d="M33 603q0 8 7.5 8t9.5 -6l279 -596q2 -4 2 -7q0 -7 -7.5 -7t-10.5 7l-279 596q-1 3 -1 5z" />
    <glyph glyph-name="bracketright" unicode="]" horiz-adv-x="266" 
d="M175 604v-704q0 -9 -8 -9h-141q-8 0 -8 8.5t8 8.5h132v688h-132q-8 0 -8 8.5t8 8.5h141q8 0 8 -9z" />
    <glyph glyph-name="asciicircum" unicode="^" horiz-adv-x="224" 
d="M21 389q-2 -4 -6.5 -4t-4.5 6q0 2 2 5l92 145q3 5 8 5t8 -5l92 -145q2 -3 2 -5q0 -6 -4.5 -6t-6.5 4l-91 135z" />
    <glyph glyph-name="underscore" unicode="_" horiz-adv-x="549" 
d="M129 -29h291q8 0 8 -8.5t-8 -8.5h-291q-8 0 -8 8.5t8 8.5z" />
    <glyph glyph-name="grave" unicode="`" horiz-adv-x="152" 
d="M127 460q0 -6 -6 -6q-2 0 -5 3l-88 84q-3 3 -3 6t3 6.5t6 3.5t7 -5l83 -87q3 -3 3 -5z" />
    <glyph glyph-name="a" unicode="a" horiz-adv-x="439" 
d="M158 -5q-52 0 -82.5 26.5t-30.5 75.5t39 75.5t101.5 26.5t148.5 -23v92q0 61 -43 79q-35 15 -98 15t-109 -24v-85q0 -8 -8.5 -8t-8.5 8v90q0 5 4 7q49 29 127 29t115.5 -25t37.5 -86v-215q0 -36 49 -36h38q8 0 8 -8.5t-8 -8.5h-38q-66 0 -66 53v44q-65 -102 -176 -102z
M334 160q-83 23 -140.5 23t-94.5 -21.5t-37 -63.5t25.5 -64t70.5 -22q116 0 176 115v33z" />
    <glyph glyph-name="b" unicode="b" horiz-adv-x="472" 
d="M378 48q-45 -53 -130.5 -53t-157.5 68v-59q0 -9 -8.5 -9t-8.5 9v729h-86q-9 0 -9 8.5t9 8.5h95q8 0 8 -9v-462q66 100 163 100q81 0 125.5 -53.5t44.5 -139t-45 -138.5zM253 12q71 0 112 47t41 128t-41 128t-112 47q-100 0 -163 -112v-167q69 -71 163 -71z" />
    <glyph glyph-name="c" unicode="c" horiz-adv-x="426" 
d="M227 -5q-81 0 -130 55.5t-49 138t51.5 136.5t129 54t134.5 -37q4 -3 4 -7v-90q0 -8 -8.5 -8t-8.5 8v85q-52 32 -122 32t-116.5 -49t-46.5 -126t45.5 -126t116.5 -49q96 0 141 72q5 7 12 3q4 -3 4 -6t-1 -6q-50 -80 -156 -80z" />
    <glyph glyph-name="d" unicode="d" horiz-adv-x="499" 
d="M219 -5q-84 0 -127 55.5t-43 137.5t44 136.5t130 54.5t159 -71v425h-86q-9 0 -9 8.5t9 8.5h95q8 0 8 -8v-689q0 -36 49 -36h38q8 0 8 -8.5t-8 -8.5h-38q-66 0 -66 53v44q-66 -102 -163 -102zM219 362q-71 0 -112 -47t-41 -128t41 -128t112 -47q100 0 163 115v159
q-29 32 -72 54t-91 22z" />
    <glyph glyph-name="e" unicode="e" horiz-adv-x="436" 
d="M229 -5q-85 0 -133 54.5t-48 139t50 137.5t131 53t120 -49t39 -133q0 -9 -8 -9h-315v-1q0 -80 44.5 -127.5t119.5 -47.5q96 0 141 72q5 7 12 2.5t3 -11.5q-50 -80 -156 -80zM371 205q0 71 -35 114t-106 43t-115 -43t-50 -114h306z" />
    <glyph glyph-name="f" unicode="f" horiz-adv-x="353" 
d="M332 357h-205v-366q0 -89 -25.5 -141.5t-94.5 -76.5q-9 -3 -11 -3q-8 0 -8 7t6 9q67 21 91.5 70t24.5 135v366h-80q-9 0 -9 8.5t9 8.5h80v227q0 84 34.5 119t107 35t124.5 -32q4 -3 4 -7v-90q0 -8 -8.5 -8t-8.5 8v85q-48 27 -114 27t-94 -32t-28 -106v-226h205
q8 0 8 -8.5t-8 -8.5z" />
    <glyph glyph-name="g" unicode="g" horiz-adv-x="399" 
d="M292.5 -218.5q-47.5 -11.5 -109 -11.5t-114.5 33t-53 93.5t62 99.5q-30 15 -30 45q0 43 89 75q-78 38 -78 125q0 61 41.5 99.5t101.5 38.5t101 -30q50 38 50 95q0 26 -12 57q-4 7 1 9.5t7 2.5q5 0 7 -6q14 -35 14 -63q0 -62 -55 -105q42 -39 42 -100.5t-43.5 -99
t-106.5 -37.5q-27 0 -47 6q-95 -28 -95 -67q0 -34 70 -45q35 -5 94.5 -12t74.5 -9q51 -7 80 -26t29 -59t-36.5 -68.5t-84 -40zM94 -11q-61 -36 -61 -88.5t44.5 -83t121 -30.5t136.5 28t60 75q0 57 -93 69q-145 17 -165.5 20t-42.5 10zM303 328q-37 34 -95.5 34t-95 -34
t-36.5 -87.5t36.5 -87.5t95 -34t95.5 34t37 87.5t-37 87.5z" />
    <glyph glyph-name="h" unicode="h" horiz-adv-x="472" 
d="M464 0h-38q-66 0 -66 53v227q0 39 -24.5 60.5t-69.5 21.5q-113 0 -176 -116v-242q0 -9 -8.5 -9t-8.5 9v729h-86q-9 0 -9 8.5t9 8.5h95q8 0 8 -9v-465q65 103 176 103q51 0 81 -26t30 -73v-227q0 -36 49 -36h38q8 0 8 -8.5t-8 -8.5z" />
    <glyph glyph-name="i" unicode="i" horiz-adv-x="186" 
d="M96 4v353h-87q-8 0 -8 8.5t8 8.5h95q9 0 9 -9v-361q0 -9 -8.5 -9t-8.5 9zM86 556q0 6 4.5 10.5t10.5 4.5t10.5 -4.5t4.5 -10.5t-4.5 -10.5t-10.5 -4.5t-10.5 4.5t-4.5 10.5z" />
    <glyph glyph-name="j" unicode="j" horiz-adv-x="186" 
d="M-17 -230q-9 0 -9 7t6 9q67 21 91.5 70.5t24.5 134.5v366h-87q-8 0 -8 8.5t8 8.5h96q8 0 8 -9v-374q0 -90 -25 -141t-94 -77q-9 -3 -11 -3zM87 556q0 6 4.5 10.5t10.5 4.5t10.5 -4.5t4.5 -10.5t-4.5 -10.5t-10.5 -4.5t-10.5 4.5t-4.5 10.5z" />
    <glyph glyph-name="k" unicode="k" horiz-adv-x="433" 
d="M408 -5q-95 0 -173.5 53t-122.5 135q-2 5 0.5 9t20 1.5t74.5 -2.5t105 21t48 73q0 77 -94 77q-113 0 -176 -116v-242q0 -9 -8.5 -9t-8.5 9v729h-86q-9 0 -9 8.5t9 8.5h95q8 0 8 -9v-464q35 52 76.5 77t96 25t84.5 -24t30 -62.5t-16 -61.5t-42 -35q-51 -22 -96.5 -22
t-90.5 5q45 -75 118.5 -121t157.5 -46q8 0 8 -8.5t-8 -8.5z" />
    <glyph glyph-name="l" unicode="l" horiz-adv-x="198" 
d="M182 0h-37q-66 0 -66 53v680h-87q-8 0 -8 8.5t8 8.5h95q9 0 9 -9v-688q0 -36 49 -36h37q9 0 9 -8.5t-9 -8.5z" />
    <glyph glyph-name="m" unicode="m" horiz-adv-x="729" 
d="M720 0h-37q-66 0 -66 53v228q0 81 -86 81q-96 0 -158 -115v-243q0 -8 -8.5 -8t-8.5 8v277q0 81 -86 81q-95 0 -158 -115v-243q0 -8 -8.5 -8t-8.5 8v323q0 35 -49 35h-37q-9 0 -9 8.5t9 8.5h37q66 0 66 -52v-50q64 102 158 102q103 0 103 -98v-4q64 102 158 102
q103 0 103 -98v-228q0 -36 49 -36h37q9 0 9 -8.5t-9 -8.5z" />
    <glyph glyph-name="n" unicode="n" 
d="M486 0h-37q-66 0 -66 53v227q0 39 -24.5 60.5t-69.5 21.5q-113 0 -176 -116v-242q0 -9 -8.5 -9t-8.5 9v317q0 36 -49 36h-37q-9 0 -9 8.5t9 8.5h37q66 0 66 -53v-45q64 103 176 103q55 0 83 -27.5t28 -71.5v-227q0 -36 49 -36h37q9 0 9 -8.5t-9 -8.5z" />
    <glyph glyph-name="o" unicode="o" horiz-adv-x="464" 
d="M399 187q0 77 -46.5 126t-120.5 49t-120.5 -49t-46.5 -126t46.5 -126t120.5 -49t120.5 49t46.5 126zM48 187q0 85 51.5 138.5t132.5 53.5t132.5 -53.5t51.5 -138.5t-51.5 -138.5t-132.5 -53.5t-132.5 53.5t-51.5 138.5z" />
    <glyph glyph-name="p" unicode="p" 
d="M113 -221q0 -8 -8.5 -8t-8.5 8v578h-86q-9 0 -9 8.5t9 8.5h95q8 0 8 -8v-91q68 104 163 104q82 0 126 -54.5t44 -137.5t-44.5 -137.5t-130 -54.5t-158.5 71v-287zM276 12q70 0 111.5 47.5t41.5 128t-41 127.5t-112 47q-99 0 -163 -115v-160q28 -31 71.5 -53t91.5 -22z
" />
    <glyph glyph-name="q" unicode="q" horiz-adv-x="471" 
d="M398 -221q0 -8 -8.5 -8t-8.5 8v316q-66 -100 -163 -100q-81 0 -125 54t-44 139t44 138t128.5 53t159.5 -69v61q0 8 8.5 8t8.5 -8v-592zM218 362q-70 0 -111 -47t-41 -127.5t41 -128t111 -47.5q101 0 163 113v162q-29 31 -72 53t-91 22z" />
    <glyph glyph-name="r" unicode="r" horiz-adv-x="358" 
d="M113 4q0 -8 -8.5 -8t-8.5 8v318q0 35 -49 35h-37q-9 0 -9 8.5t9 8.5h39q64 0 64 -52v-47q31 52 65 78t80 26t72 -16q5 -3 5 -8v-89q0 -8 -8.5 -8t-8.5 8v85q-24 11 -53 11q-49 0 -84.5 -28t-67.5 -91v-239z" />
    <glyph glyph-name="s" unicode="s" horiz-adv-x="402" 
d="M58 21q-7 3 -7 10v87q0 8 8.5 8t8.5 -8v-82q46 -24 127 -24q141 0 141 84q0 33 -26 56q-18 16 -70 28q-11 2 -67.5 14.5t-85 32.5t-28.5 58q0 94 145 94q78 0 129 -27q8 -4 8 -9v-85q0 -8 -8.5 -8t-8.5 8v80q-46 24 -120 24q-128 0 -128 -77q0 -27 14 -38t21.5 -16
t24 -10t22.5 -7q38 -9 55 -12t30.5 -6t38.5 -12t38 -19q33 -27 33 -63t-15.5 -57t-40.5 -31q-47 -19 -114.5 -19t-124.5 26z" />
    <glyph glyph-name="t" unicode="t" horiz-adv-x="360" 
d="M325 357h-200v-249q0 -53 23 -74.5t83.5 -21.5t109.5 30q7 4 10 -1t3 -8t-4 -6q-54 -32 -120 -32t-94 26t-28 87v249h-80q-9 0 -9 8.5t9 8.5h80v158q0 8 8.5 8t8.5 -8v-158h200q8 0 8 -8.5t-8 -8.5z" />
    <glyph glyph-name="u" unicode="u" 
d="M207 -5q-53 0 -82 27t-29 72v227q0 36 -49 36h-37q-9 0 -9 8.5t9 8.5h37q66 0 66 -53v-227q0 -39 25 -60.5t69 -21.5q114 0 176 115v243q0 9 8.5 9t8.5 -9v-317q0 -36 49 -36h38q8 0 8 -8.5t-8 -8.5h-38q-66 0 -66 53v43q-66 -101 -176 -101z" />
    <glyph glyph-name="v" unicode="v" horiz-adv-x="420" 
d="M387 379q9 0 9 -8q0 -2 -1 -5l-176 -364q-3 -7 -9 -7t-9 7l-176 364q-1 3 -1 5q0 8 9 8q4 0 7 -5l170 -351l170 351q3 5 7 5z" />
    <glyph glyph-name="w" unicode="w" horiz-adv-x="610" 
d="M30 367q-1 2 -1 5q0 7 7 7t10 -6l133 -345l118 345q2 6 8 6t8 -6l119 -345l133 345q3 8 9.5 5.5t6.5 -5.5t-1 -6l-141 -366q-1 -6 -8 -6t-8 6l-118 343l-118 -343q-1 -6 -7.5 -6t-8.5 6z" />
    <glyph glyph-name="x" unicode="x" horiz-adv-x="409" 
d="M39 -2q-3 -3 -6.5 -3t-6.5 2.5t-3 5.5t3 6l167 183l-157 172q-6 6 -1.5 10.5t7.5 4.5l6 -3l157 -172l157 172q3 3 6 3l6 -3q5 -5 0 -12l-158 -172l168 -183q2 -2 2 -6q0 -8 -9 -8q-3 0 -6 3l-166 181z" />
    <glyph glyph-name="y" unicode="y" horiz-adv-x="422" 
d="M387 379q10 0 10 -8q0 -2 -1 -5l-218 -451q-34 -70 -74 -108t-105 -38q-19 0 -29.5 2t-10.5 10t9 8l32 -3q56 0 92.5 34t70.5 103l39 81l-176 362q-4 7 1.5 10t8.5 3t5 -5l170 -351l170 351q2 5 6 5z" />
    <glyph glyph-name="z" unicode="z" horiz-adv-x="420" 
d="M368 0h-319q-8 0 -8 10.5t2.5 23t9 24.5t12 21.5t17.5 21.5l19 19q13 13 52.5 41t45 32t21.5 15.5t22 16t20.5 16t21.5 18t18.5 17.5t17 19t12.5 19q13 20 15 43h-277v-76q0 -8 -8.5 -8t-8.5 8v85q0 8 8 8h295q8 0 8 -8q0 -54 -52 -103q-35 -33 -64.5 -55t-30.5 -23
q-3 -3 -8.5 -6.5t-22.5 -15t-24 -17t-21.5 -16.5t-21.5 -17.5t-18.5 -16.5t-17 -18.5t-11.5 -18.5q-12 -17 -14 -42h302v79q0 8 8.5 8t8.5 -8v-88q0 -8 -9 -8z" />
    <glyph glyph-name="braceleft" unicode="{" horiz-adv-x="284" 
d="M259 -122h-35q-71 0 -115.5 39t-44.5 105q0 43 35.5 102.5t35.5 85t-25.5 39t-55.5 13.5h-8q-8 0 -8 8.5t8 8.5h8q31 0 56 14t25 39.5t-35.5 84t-35.5 102.5q0 68 45.5 106.5t114.5 38.5h35q9 0 9 -8.5t-9 -8.5h-34q-66 0 -105 -34.5t-39 -93.5q0 -39 35.5 -97t35.5 -87
q0 -45 -55 -64q24 -8 39.5 -25.5t15.5 -42.5t-35.5 -84t-35.5 -97q0 -58 39 -92.5t105 -34.5h34q9 0 9 -8.5t-9 -8.5z" />
    <glyph glyph-name="bar" unicode="|" horiz-adv-x="193" 
d="M88 -220v962q0 9 8.5 9t8.5 -9v-962q0 -9 -8.5 -9t-8.5 9z" />
    <glyph glyph-name="braceright" unicode="}" horiz-adv-x="284" 
d="M60 -122h-35q-9 0 -9 8.5t9 8.5h34q66 0 105 34.5t39 92.5q0 38 -35.5 97t-35.5 84t15.5 42.5t39.5 25.5q-55 19 -55 64q0 29 35.5 87t35.5 97q0 59 -39 93.5t-105 34.5h-34q-9 0 -9 8.5t9 8.5h35q69 0 114.5 -38.5t45.5 -106.5q0 -44 -35.5 -102.5t-35.5 -84t25 -39.5
t56 -14h8q8 0 8 -8.5t-8 -8.5h-8q-30 0 -55.5 -13.5t-25.5 -39t35.5 -85t35.5 -102.5q0 -66 -44.5 -105t-115.5 -39z" />
    <glyph glyph-name="asciitilde" unicode="~" horiz-adv-x="566" 
d="M85 178q0 -8 -8.5 -8t-8.5 8q0 42 26 70t70 28q46 0 88 -23q12 -7 36 -22t37 -22q39 -21 80 -21t60 23.5t19 56.5q0 9 8.5 9t8.5 -9q0 -44 -26.5 -70.5t-60.5 -26.5t-58.5 7.5t-38 15t-37.5 22.5q-66 43 -111 43t-64.5 -24t-19.5 -57z" />
    <glyph glyph-name="uni00A0" unicode="&#xa0;" horiz-adv-x="230" 
 />
    <glyph glyph-name="exclamdown" unicode="&#xa1;" horiz-adv-x="202" 
d="M101 527q7 0 7 -8l2 -515q0 -9 -9 -9t-9 9l2 515q0 8 7 8zM87 598q0 15 15 15t15 -15t-15 -15t-15 15z" />
    <glyph glyph-name="cent" unicode="&#xa2;" horiz-adv-x="428" 
d="M221 493q0 9 8.5 9t8.5 -9v-114q71 -2 127 -37q4 -3 4 -7v-90q0 -8 -8.5 -8t-8.5 8v85q-50 30 -114 32v-350q88 3 132 72q5 7 12 3q4 -3 4 -6t-1 -6q-48 -75 -147 -80v-114q0 -9 -8.5 -9t-8.5 9v114q-78 3 -124.5 58t-46.5 134.5t47.5 132.5t123.5 58v115zM110 308
q-43 -48 -43 -122t43 -122.5t111 -51.5v349q-68 -5 -111 -53z" />
    <glyph glyph-name="sterling" unicode="&#xa3;" horiz-adv-x="514" 
d="M131 374v54q0 87 41.5 136t123 49t138.5 -37q4 -3 4 -7v-90q0 -8 -8.5 -8t-8.5 8v85q-52 32 -125.5 32t-110.5 -44t-37 -123v-55h143q8 0 8 -8.5t-8 -8.5h-143v-340h298v78q0 9 8.5 9t8.5 -9v-87q0 -8 -9 -8h-401q-9 0 -9 8.5t9 8.5h78v340h-81q-8 0 -8 8.5t8 8.5h81z
" />
    <glyph glyph-name="currency" unicode="&#xa4;" horiz-adv-x="406" 
d="M97 187q0 42 23 71l-50 50q-3 3 -3 6.5t3 6t5 2.5l7 -3l49 -50q30 27 72 27t71 -27l51 50q4 3 7 3t5.5 -2.5t2.5 -6t-3 -6.5l-51 -51q23 -28 23 -69t-23 -72l52 -51q3 -4 3 -7t-2.5 -5.5t-6 -2.5t-6.5 3l-51 51q-30 -28 -72.5 -28t-71.5 27l-49 -49q-3 -3 -6.5 -3t-6 3
t-2.5 6t3 6l50 50q-23 29 -23 71zM293 187q0 42 -25 68.5t-65 26.5t-65 -26.5t-25 -68.5t25 -69t65 -27t65 27t25 69z" />
    <glyph glyph-name="yen" unicode="&#xa5;" horiz-adv-x="516" 
d="M433 276q8 0 8 -8.5t-8 -8.5h-166v-113h166q8 0 8 -8.5t-8 -8.5h-166v-126q0 -8 -8.5 -8t-8.5 8v126h-167q-8 0 -8 8.5t8 8.5h167v113h-167q-8 0 -8 8.5t8 8.5h158l-204 323q-2 2 -2 5t3.5 6t6.5 3t6 -4l207 -329l207 329q3 5 6.5 5t6.5 -3t3 -6t-2 -6l-205 -323h159z
" />
    <glyph glyph-name="brokenbar" unicode="&#xa6;" horiz-adv-x="199" 
d="M91 367v335q0 9 8.5 9t8.5 -9v-335q0 -9 -8.5 -9t-8.5 9zM91 -180v335q0 9 8.5 9t8.5 -9v-335q0 -9 -8.5 -9t-8.5 9z" />
    <glyph glyph-name="section" unicode="&#xa7;" horiz-adv-x="429" 
d="M72 504q0 54 45.5 81.5t108 27.5t120.5 -31q8 -4 8 -9v-87q0 -8 -8.5 -8t-8.5 8v82q-54 28 -111.5 28t-97 -23.5t-39.5 -68.5q0 -63 126 -90q82 -16 107 -30q43 -25 44 -71q0 -77 -96 -91q41 -16 67 -45t26 -69q0 -57 -50 -85t-114.5 -28t-130.5 30q-7 3 -7 10v87
q0 8 8.5 8t8.5 -8v-82q22 -11 60 -19.5t78 -8.5t85 23.5t45 72.5q0 85 -138 114q-85 18 -110 38q-29 23 -29 59q0 69 94 92q-91 25 -91 93zM95 355q-9 -15 -9 -39t24 -42t44.5 -23.5t46 -10.5t27.5 -5.5t4.5 -1t4.5 -0.5t14.5 2t25.5 5t33 11q39 16 39 62q0 22 -8.5 32
t-14 15.5t-17 10.5t-18.5 8t-22.5 6.5t-23 5t-26 5t-25.5 5.5q-80 -14 -99 -46z" />
    <glyph glyph-name="dieresis" unicode="&#xa8;" horiz-adv-x="199" 
d="M34 497q0 6 4.5 10.5t10.5 4.5t10.5 -4.5t4.5 -10.5t-4.5 -10.5t-10.5 -4.5t-10.5 4.5t-4.5 10.5zM139 497q0 6 4.5 10.5t10.5 4.5t10.5 -4.5t4.5 -10.5t-4.5 -10.5t-10.5 -4.5t-10.5 4.5t-4.5 10.5z" />
    <glyph glyph-name="copyright" unicode="&#xa9;" horiz-adv-x="704" 
d="M237.5 183.5q-43.5 45.5 -43.5 120t43.5 120.5t108 46t111.5 -25q6 -3 6 -7v-48q0 -8 -7.5 -8t-7.5 8v43q-44 22 -102.5 22t-97.5 -42t-39 -109t39 -109t103 -42t110 48q5 5 9.5 0.5t1.5 -9.5q-44 -54 -117.5 -54t-117 45.5zM54 304q0 136 83 222.5t215 86.5t215 -86.5
t83 -222.5t-83 -222.5t-215 -86.5t-215 86.5t-83 222.5zM71 304q0 -129 78 -210.5t203 -81.5t203 81.5t78 210.5t-78 210.5t-203 81.5t-203 -81.5t-78 -210.5z" />
    <glyph glyph-name="ordfeminine" unicode="&#xaa;" horiz-adv-x="381" 
d="M135 343q-37 0 -59 19t-22 54.5t28.5 54t72 18.5t99.5 -15v60q0 33 -20.5 47.5t-68.5 14.5t-78 -15v-57q0 -9 -8.5 -9t-8.5 9v62q0 5 7 9q34 18 87.5 18t80 -18t26.5 -61v-152q0 -22 32 -22h25q9 0 9 -8.5t-9 -8.5h-25q-49 0 -49 39v25q-41 -64 -119 -64zM71 414
q0 -54 64 -54q78 0 119 77v20q-56 15 -98 15q-85 0 -85 -58z" />
    <glyph glyph-name="guillemotleft" unicode="&#xab;" horiz-adv-x="472" 
d="M46 180q-5 4 -5 8.5t5 8.5l209 150q3 2 6 2t7 -5.5t-3 -10.5l-202 -145l202 -144q7 -5 3 -10.5t-7 -5.5t-6 2zM198 180q-5 4 -5 8.5t5 8.5l209 150q3 2 6 2t5.5 -3.5t2.5 -6.5t-4 -6l-202 -145l202 -144q4 -3 4 -6t-2.5 -6.5t-5.5 -3.5t-6 2z" />
    <glyph glyph-name="logicalnot" unicode="&#xac;" horiz-adv-x="473" 
d="M404 281v-161q0 -8 -8.5 -8t-8.5 8v153h-302q-8 0 -8 8.5t8 8.5h311q8 0 8 -9z" />
    <glyph glyph-name="uni00AD" unicode="&#xad;" horiz-adv-x="389" 
d="M74 226h241q8 0 8 -8.5t-8 -8.5h-241q-8 0 -8 8.5t8 8.5z" />
    <glyph glyph-name="registered" unicode="&#xae;" horiz-adv-x="704" 
d="M256 260v-125q0 -7 -8 -7t-8 7v308h-37q-8 0 -8 7.5t8 7.5h171q114 0 114 -98q0 -74 -69 -94l73 -124q4 -8 -3.5 -12.5t-11.5 4.5l-74 128q-9 -2 -29 -2h-118zM256 275h118q98 0 98 85q0 83 -98 83h-118v-168zM54 304q0 136 83 222.5t215 86.5t215 -86.5t83 -222.5
t-83 -222.5t-215 -86.5t-215 86.5t-83 222.5zM71 304q0 -129 78 -210.5t203 -81.5t203 81.5t78 210.5t-78 210.5t-203 81.5t-203 -81.5t-78 -210.5z" />
    <glyph glyph-name="macron" unicode="&#xaf;" horiz-adv-x="297" 
d="M58 484h181q8 0 8 -8.5t-8 -8.5h-181q-8 0 -8 8.5t8 8.5z" />
    <glyph glyph-name="degree" unicode="&#xb0;" horiz-adv-x="284" 
d="M141 422q-41 0 -66.5 26.5t-25.5 69t25.5 69t67 26.5t67 -27t25.5 -69t-26 -68.5t-67 -26.5zM197 575.5q-21 22.5 -55.5 22.5t-56 -22.5t-21.5 -58t21.5 -58t56 -22.5t55.5 22t21 58t-21 58.5z" />
    <glyph glyph-name="plusminus" unicode="&#xb1;" horiz-adv-x="351" 
d="M166 276v90q0 8 8.5 8t8.5 -8v-90h91q8 0 8 -8.5t-8 -8.5h-91v-90q0 -8 -8.5 -8t-8.5 8v90h-89q-8 0 -8 8.5t8 8.5h89zM274 0h-197q-8 0 -8 8.5t8 8.5h197q8 0 8 -8.5t-8 -8.5z" />
    <glyph glyph-name="twosuperior" unicode="&#xb2;" horiz-adv-x="353" 
d="M282 343h-213q-8 0 -8 8q0 63 77 103q14 7 43 20.5t43.5 21t27.5 21t13 29.5q0 50 -91 50q-52 0 -85 -15v-54q0 -8 -8.5 -8t-8.5 8v59q0 5 11 10q36 17 91 17q108 0 108 -67q0 -29 -23.5 -47.5t-63.5 -36.5t-59 -28t-37 -30t-21 -44h195v52q0 8 8.5 8t8.5 -8v-61
q0 -8 -8 -8z" />
    <glyph glyph-name="threesuperior" unicode="&#xb3;" horiz-adv-x="339" 
d="M168 342q-62 0 -100 19q-8 3 -8 9v36q0 9 8.5 9t8.5 -9v-31q37 -16 91 -16q99 0 99 54q0 30 -29 45.5t-93 19.5q-7 0 -7 8.5t7 8.5q114 7 114 55q0 21 -18 33.5t-70 12.5t-87 -14v-31q0 -9 -8.5 -9t-8.5 9v36q0 5 5 8q39 18 97 18q107 0 107 -63q0 -47 -69 -63
q77 -16 77 -74q0 -71 -116 -71z" />
    <glyph glyph-name="acute" unicode="&#xb4;" horiz-adv-x="152" 
d="M31 454q-6 0 -6 6q0 2 3 5l83 87q2 3 7 3q9 0 9 -8q0 -3 -3 -6l-88 -84q-3 -3 -5 -3z" />
    <glyph glyph-name="mu" unicode="&#xb5;" horiz-adv-x="579" 
d="M146 -9v379q0 9 8.5 9t8.5 -9v-276q0 -39 25 -60.5t69 -21.5q114 0 176 115v243q0 9 8.5 9t8.5 -9v-317q0 -36 49 -36h38q8 0 8 -8.5t-8 -8.5h-38q-66 0 -66 53v43q-67 -101 -176 -101q-64 0 -94 42v-46q0 -89 -25 -140t-94 -77q-9 -3 -11 -3q-9 0 -9 7t6 9q68 21 92 70
t24 134z" />
    <glyph glyph-name="paragraph" unicode="&#xb6;" horiz-adv-x="457" 
d="M339 -117q0 -8 -8.5 -8t-8.5 8v708h-40v-708q0 -8 -8.5 -8t-8.5 8v403h-54q-84 0 -132 41t-48 120t48 120t132 41h206q8 0 8 -8.5t-8 -8.5h-78v-708z" />
    <glyph glyph-name="periodcentered" unicode="&#xb7;" horiz-adv-x="154" 
d="M61 363q0 16 16 16t16 -16t-16 -16t-16 16z" />
    <glyph glyph-name="cedilla" unicode="&#xb8;" horiz-adv-x="215" 
d="M165 -157q-26 -19 -57 -19t-58.5 9.5t-27.5 23.5q0 8 8 8q4 0 8 -4q20 -20 55.5 -20t56.5 13t21 32.5t-10 31t-23 16.5q-25 9 -37 9t-12 8q0 4 2 6l25 50l16 -8l-20 -41q35 -4 57 -23t22 -46t-26 -46z" />
    <glyph glyph-name="onesuperior" unicode="&#xb9;" horiz-adv-x="255" 
d="M202 342h-132q-8 0 -8 8.5t8 8.5h58v221q-27 -28 -55 -39q-11 -3 -11 8q0 6 6 8q35 12 61 51q3 5 9.5 5t6.5 -7v-247h57q8 0 8 -8.5t-8 -8.5z" />
    <glyph glyph-name="ordmasculine" unicode="&#xba;" horiz-adv-x="360" 
d="M179 343q-57 0 -93.5 37.5t-36.5 97.5t36.5 97.5t94.5 37.5t94.5 -38.5t36.5 -97.5t-37.5 -96.5t-94.5 -37.5zM262 563q-32 33 -82.5 33t-82 -33t-31.5 -85t31.5 -85t82 -33t82.5 33t32 85t-32 85z" />
    <glyph glyph-name="guillemotright" unicode="&#xbb;" horiz-adv-x="472" 
d="M216 30q-3 -2 -6 -2t-7 5.5t3 10.5l202 144l-202 145q-7 5 -3 10.5t7 5.5t6 -2l209 -150q5 -4 5 -8.5t-5 -8.5zM64 30q-3 -2 -6 -2t-5.5 3.5t-2.5 6.5t4 6l202 144l-202 145q-4 3 -4 6t2.5 6.5t5.5 3.5t6 -2l209 -150q5 -4 5 -8.5t-5 -8.5z" />
    <glyph glyph-name="onequarter" unicode="&#xbc;" horiz-adv-x="536" 
d="M429 3q0 -8 -8.5 -8t-8.5 8v43h-179q-6 0 -9 4q-3 6 2 13l132 198q4 8 12 3q6 -5 2 -12l-125 -189h165v56q0 9 8.5 9t8.5 -9v-56h55q9 0 9 -8.5t-9 -8.5h-55v-43zM202 342h-132q-8 0 -8 8.5t8 8.5h58v221q-27 -28 -55 -39q-11 -3 -11 8q0 6 6 8q35 12 61 51q3 5 9.5 5
t6.5 -7v-247h57q8 0 8 -8.5t-8 -8.5zM57 -3q-9 3 -9 7t3 8l414 595q4 4 7 4q10 0 10 -8q0 -2 -2 -5l-414 -595q-4 -6 -9 -6z" />
    <glyph glyph-name="onehalf" unicode="&#xbd;" horiz-adv-x="550" 
d="M52 -3q-9 3 -9 7t3 8l414 595q6 7 13 2.5t2 -11.5l-414 -595q-5 -6 -9 -6zM279 0q-8 0 -8 8q0 49 41 79q21 16 35.5 23.5t43.5 21t43.5 21t27.5 21t13 29.5q0 50 -91 50q-52 0 -85 -15v-54q0 -8 -8.5 -8t-8.5 8v59q0 5 11 10q36 17 91 17q108 0 108 -67q0 -20 -15 -37.5
t-31.5 -26.5t-57 -27t-68.5 -39.5t-32 -55.5h195v52q0 8 8.5 8t8.5 -8v-61q0 -8 -8 -8h-213zM74 342q-8 0 -8 8.5t8 8.5h58v221q-27 -28 -55 -39q-11 -3 -11 8q0 6 6 8q35 12 61 51q3 5 9.5 5t6.5 -7v-247h57q8 0 8 -8.5t-8 -8.5h-132z" />
    <glyph glyph-name="threequarters" unicode="&#xbe;" horiz-adv-x="551" 
d="M425 3v43h-179q-6 0 -9 4q-3 6 2 13l132 198q4 8 12 3q6 -5 2 -12l-125 -189h165v56q0 9 8.5 9t8.5 -9v-56h55q9 0 9 -8.5t-9 -8.5h-55v-43q0 -8 -8.5 -8t-8.5 8zM498 610q4 -3 4 -6t-2 -6l-414 -595q-4 -6 -9 -6l-5 2q-7 5 -1 13l414 595q6 7 13 3zM163 342
q-62 0 -100 19q-8 3 -8 9v36q0 9 8.5 9t8.5 -9v-31q37 -16 91 -16q99 0 99 54q0 30 -29 45.5t-93 19.5q-7 0 -7 8.5t7 8.5q114 7 114 55q0 21 -18 33.5t-70 12.5t-87 -14v-31q0 -9 -8.5 -9t-8.5 9v36q0 5 5 8q39 18 97 18q107 0 107 -63q0 -47 -69 -63q77 -16 77 -74
q0 -71 -116 -71z" />
    <glyph glyph-name="questiondown" unicode="&#xbf;" horiz-adv-x="470" 
d="M286 458q0 -49 -17.5 -85t-43 -56t-56 -40t-56 -37t-43 -47t-17.5 -70q0 -57 45 -84t147.5 -27t166.5 35v87q0 8 8.5 8t8.5 -8v-92q0 -6 -15 -13q-71 -34 -175 -34q-203 0 -203 128q0 91 82 143q35 21 69 42.5t58 59t24 90.5q0 8 8.5 8t8.5 -8zM262 598q0 6 4.5 10.5
t10.5 4.5t10.5 -4.5t4.5 -10.5t-4.5 -10.5t-10.5 -4.5t-10.5 4.5t-4.5 10.5z" />
    <glyph glyph-name="Agrave" unicode="&#xc0;" horiz-adv-x="614" 
d="M4 3q0 2 1 4l289 584h-65q-8 0 -8 8.5t8 8.5h83q5 0 7 -4l296 -597q1 -2 1 -4q0 -8 -9 -8q-5 0 -7 5l-100 201h-381l-99 -201q-2 -5 -7 -5q-9 0 -9 8zM128 218h364l-182 367zM315 694q0 -6 -6 -6q-2 0 -5 3l-88 84q-3 3 -3 6t3 6.5t6 3.5t7 -5l83 -87q3 -3 3 -5z" />
    <glyph glyph-name="Aacute" unicode="&#xc1;" horiz-adv-x="614" 
d="M616 3q0 -8 -9 -8q-5 0 -7 5l-100 201h-381l-99 -201q-2 -5 -7 -5q-9 0 -9 8q0 2 1 4l289 584h-65q-8 0 -8 8.5t8 8.5h83q5 0 7 -4l296 -597q1 -2 1 -4zM310 585l-182 -367h364zM306 688q-6 0 -6 6q0 2 3 5l83 87q2 3 6 3q10 0 10 -8q0 -3 -3 -6l-88 -84q-3 -3 -5 -3z
" />
    <glyph glyph-name="Acircumflex" unicode="&#xc2;" horiz-adv-x="614" 
d="M616 3q0 -8 -9 -8q-5 0 -7 5l-100 201h-381l-99 -201q-2 -5 -7 -5q-9 0 -9 8q0 2 1 4l289 584h-65q-8 0 -8 8.5t8 8.5h83q5 0 7 -4l296 -597q1 -2 1 -4zM310 585l-182 -367h364zM247 689q-3 -3 -7 -3t-4 6q0 2 2 4l65 79q4 4 8 4t8 -4l65 -79q2 -2 2 -4q0 -6 -4 -6t-7 3
l-64 69z" />
    <glyph glyph-name="Atilde" unicode="&#xc3;" horiz-adv-x="614" 
d="M616 3q0 -8 -9 -8q-5 0 -7 5l-100 201h-381l-99 -201q-2 -5 -7 -5q-9 0 -9 8q0 2 1 4l289 584h-65q-8 0 -8 8.5t8 8.5h83q5 0 7 -4l296 -597q1 -2 1 -4zM310 585l-182 -367h364zM217.5 724q-9.5 -12 -9.5 -23.5t-7.5 -11.5t-7.5 7q0 25 15 40.5t42.5 15.5t64.5 -24
t58.5 -24t31 12t9.5 24t7.5 12t7.5 -8q0 -24 -15 -39.5t-40.5 -15.5t-63.5 23.5t-60.5 23.5t-32 -12z" />
    <glyph glyph-name="Adieresis" unicode="&#xc4;" horiz-adv-x="614" 
d="M4 3q0 2 1 4l289 584h-65q-8 0 -8 8.5t8 8.5h83q5 0 7 -4l296 -597q1 -2 1 -4q0 -8 -9 -8q-5 0 -7 5l-100 201h-381l-99 -201q-2 -5 -7 -5q-9 0 -9 8zM128 218h364l-182 367zM243 731q0 6 4.5 10.5t10.5 4.5t10.5 -4.5t4.5 -10.5t-4.5 -10.5t-10.5 -4.5t-10.5 4.5
t-4.5 10.5zM348 731q0 6 4.5 10.5t10.5 4.5t10.5 -4.5t4.5 -10.5t-4.5 -10.5t-10.5 -4.5t-10.5 4.5t-4.5 10.5z" />
    <glyph glyph-name="Aring" unicode="&#xc5;" horiz-adv-x="614" 
d="M4 3q0 2 1 4l289 584h-65q-8 0 -8 8.5t8 8.5h83q5 0 7 -4l296 -597q1 -2 1 -4q0 -8 -9 -8q-5 0 -7 5l-100 201h-381l-99 -201q-2 -5 -7 -5q-9 0 -9 8zM128 218h364l-182 367zM256 723q0 24 15.5 39.5t39.5 15.5t39.5 -15.5t15.5 -39.5t-15.5 -39.5t-39.5 -15.5
t-39.5 15.5t-15.5 39.5zM270 723q0 -18 11.5 -29.5t29.5 -11.5t29.5 11.5t11.5 29.5t-11.5 29.5t-29.5 11.5t-29.5 -11.5t-11.5 -29.5z" />
    <glyph glyph-name="AE" unicode="&#xc6;" horiz-adv-x="920" 
d="M2 -2q-3 -4 -9.5 -4t-6.5 8q0 3 2 5l411 584h-61q-8 0 -8 8.5t8 8.5h528q8 0 8 -9v-87q0 -8 -8.5 -8t-8.5 8v79h-385v-277h335v54q0 9 8.5 9t8.5 -9v-126q0 -9 -8.5 -9t-8.5 9v55h-335v-280h394q8 0 8 -8.5t-8 -8.5h-403q-8 0 -8 8v289h-242zM455 591h-35l-195 -277h230
v277z" />
    <glyph glyph-name="Ccedilla" unicode="&#xc7;" horiz-adv-x="612" 
d="M396 -157q-26 -19 -57 -19t-58.5 9.5t-27.5 23.5q0 8 8 8q4 0 8 -4q20 -20 55.5 -20t56.5 13t21 32.5t-10 31t-24 16.5q-24 9 -36 9t-12 8q0 4 2 6l19 38q-127 1 -207.5 85.5t-80.5 223t81 224t204.5 85.5t206.5 -48q6 -3 6 -8v-90q0 -9 -8.5 -9t-8.5 9v85
q-82 44 -197.5 44t-191 -80.5t-75.5 -211.5t75.5 -211.5t205 -80.5t206.5 93q6 7 10.5 2.5t4.5 -7.5t-2 -6q-77 -91 -209 -98l-18 -38q36 -4 57.5 -23t21.5 -46t-26 -46z" />
    <glyph glyph-name="Egrave" unicode="&#xc8;" horiz-adv-x="572" 
d="M509 512v79h-385v-277h335v54q0 9 8.5 9t8.5 -9v-126q0 -9 -8.5 -9t-8.5 9v55h-335v-280h394q8 0 8 -8.5t-8 -8.5h-403q-8 0 -8 8v583h-78q-9 0 -9 8.5t9 8.5h489q8 0 8 -9v-87q0 -8 -8.5 -8t-8.5 8zM341 694q0 -6 -6 -6q-2 0 -5 3l-88 84q-3 3 -3 6t3 6.5t6 3.5t7 -5
l83 -87q3 -3 3 -5z" />
    <glyph glyph-name="Eacute" unicode="&#xc9;" horiz-adv-x="572" 
d="M526 512q0 -8 -8.5 -8t-8.5 8v79h-385v-277h335v54q0 9 8.5 9t8.5 -9v-126q0 -9 -8.5 -9t-8.5 9v55h-335v-280h394q8 0 8 -8.5t-8 -8.5h-403q-8 0 -8 8v583h-78q-9 0 -9 8.5t9 8.5h489q8 0 8 -9v-87zM285 688q-6 0 -6 6q0 2 3 5l83 87q2 3 7 3q9 0 9 -8q0 -3 -3 -6
l-88 -84q-3 -3 -5 -3z" />
    <glyph glyph-name="Ecircumflex" unicode="&#xca;" horiz-adv-x="572" 
d="M526 512q0 -8 -8.5 -8t-8.5 8v79h-385v-277h335v54q0 9 8.5 9t8.5 -9v-126q0 -9 -8.5 -9t-8.5 9v55h-335v-280h394q8 0 8 -8.5t-8 -8.5h-403q-8 0 -8 8v583h-78q-9 0 -9 8.5t9 8.5h489q8 0 8 -9v-87zM246 689q-3 -3 -7 -3t-4 6q0 2 2 4l65 79q4 4 8 4t8 -4l65 -79
q2 -2 2 -4q0 -6 -4 -6t-7 3l-64 69z" />
    <glyph glyph-name="Edieresis" unicode="&#xcb;" horiz-adv-x="572" 
d="M509 512v79h-385v-277h335v54q0 9 8.5 9t8.5 -9v-126q0 -9 -8.5 -9t-8.5 9v55h-335v-280h394q8 0 8 -8.5t-8 -8.5h-403q-8 0 -8 8v583h-78q-9 0 -9 8.5t9 8.5h489q8 0 8 -9v-87q0 -8 -8.5 -8t-8.5 8zM242 731q0 6 4.5 10.5t10.5 4.5t10.5 -4.5t4.5 -10.5t-4.5 -10.5
t-10.5 -4.5t-10.5 4.5t-4.5 10.5zM347 731q0 6 4.5 10.5t10.5 4.5t10.5 -4.5t4.5 -10.5t-4.5 -10.5t-10.5 -4.5t-10.5 4.5t-4.5 10.5z" />
    <glyph glyph-name="Igrave" unicode="&#xcc;" horiz-adv-x="244" 
d="M209 0h-173q-9 0 -9 8.5t9 8.5h78v574h-78q-9 0 -9 8.5t9 8.5h173q8 0 8 -8.5t-8 -8.5h-78v-574h78q8 0 8 -8.5t-8 -8.5zM165 694q0 -6 -6 -6q-2 0 -5 3l-88 84q-3 3 -3 6t3 6.5t6 3.5t7 -5l83 -87q3 -3 3 -5z" />
    <glyph glyph-name="Iacute" unicode="&#xcd;" horiz-adv-x="244" 
d="M209 0h-173q-9 0 -9 8.5t9 8.5h78v574h-78q-9 0 -9 8.5t9 8.5h173q8 0 8 -8.5t-8 -8.5h-78v-574h78q8 0 8 -8.5t-8 -8.5zM86 688q-6 0 -6 6q0 2 3 5l83 87q2 3 6 3q10 0 10 -8q0 -3 -3 -6l-88 -84q-3 -3 -5 -3z" />
    <glyph glyph-name="Icircumflex" unicode="&#xce;" horiz-adv-x="244" 
d="M209 0h-173q-9 0 -9 8.5t9 8.5h78v574h-78q-9 0 -9 8.5t9 8.5h173q8 0 8 -8.5t-8 -8.5h-78v-574h78q8 0 8 -8.5t-8 -8.5zM57 689q-3 -3 -7 -3t-4 6q0 2 2 4l65 79q4 4 8 4t8 -4l65 -79q2 -2 2 -4q0 -6 -4 -6t-7 3l-64 69z" />
    <glyph glyph-name="Idieresis" unicode="&#xcf;" horiz-adv-x="244" 
d="M209 0h-173q-9 0 -9 8.5t9 8.5h78v574h-78q-9 0 -9 8.5t9 8.5h173q8 0 8 -8.5t-8 -8.5h-78v-574h78q8 0 8 -8.5t-8 -8.5zM54 731q0 6 4.5 10.5t10.5 4.5t10.5 -4.5t4.5 -10.5t-4.5 -10.5t-10.5 -4.5t-10.5 4.5t-4.5 10.5zM159 731q0 6 4.5 10.5t10.5 4.5t10.5 -4.5
t4.5 -10.5t-4.5 -10.5t-10.5 -4.5t-10.5 4.5t-4.5 10.5z" />
    <glyph glyph-name="Eth" unicode="&#xd0;" horiz-adv-x="655" 
d="M304 0h-190q-8 0 -8 8v299h-79q-8 0 -8 8.5t8 8.5h79v267h-78q-9 0 -9 8.5t9 8.5h276q135 0 216 -82.5t81 -222.5t-79.5 -221.5t-217.5 -81.5zM123 324h135q8 0 8 -8.5t-8 -8.5h-135v-290h181q132 0 206 75.5t74 210t-76 211.5t-204 77h-181v-267z" />
    <glyph glyph-name="Ntilde" unicode="&#xd1;" horiz-adv-x="693" 
d="M665 591h-78v-588q0 -8 -8 -8q-5 0 -9 5l-447 573v-570q0 -8 -8.5 -8t-8.5 8v588h-78q-9 0 -9 8.5t9 8.5h83q6 0 10 -5l449 -575v563h-78q-9 0 -9 8.5t9 8.5h173q8 0 8 -8.5t-8 -8.5zM255.5 724q-9.5 -12 -9.5 -23.5t-7.5 -11.5t-7.5 7q0 25 15 40.5t42.5 15.5t64.5 -24
t58.5 -24t31 12t9.5 24t7.5 12t7.5 -8q0 -24 -15 -39.5t-40.5 -15.5t-63.5 23.5t-60.5 23.5t-32 -12z" />
    <glyph glyph-name="Ograve" unicode="&#xd2;" horiz-adv-x="700" 
d="M52 304q0 136 83 222.5t215 86.5t215 -86.5t83 -222.5t-83 -222.5t-215 -86.5t-215 86.5t-83 222.5zM69 304q0 -129 78 -210.5t203 -81.5t203 81.5t78 210.5t-78 210.5t-203 81.5t-203 -81.5t-78 -210.5zM393 694q0 -6 -6 -6q-2 0 -5 3l-88 84q-3 3 -3 6t3 6.5t6 3.5
t7 -5l83 -87q3 -3 3 -5z" />
    <glyph glyph-name="Oacute" unicode="&#xd3;" horiz-adv-x="700" 
d="M52 304q0 136 83 222.5t215 86.5t215 -86.5t83 -222.5t-83 -222.5t-215 -86.5t-215 86.5t-83 222.5zM69 304q0 -129 78 -210.5t203 -81.5t203 81.5t78 210.5t-78 210.5t-203 81.5t-203 -81.5t-78 -210.5zM311 688q-6 0 -6 6q0 2 3 5l83 87q2 3 7 3q9 0 9 -8q0 -3 -3 -6
l-88 -84q-3 -3 -5 -3z" />
    <glyph glyph-name="Ocircumflex" unicode="&#xd4;" horiz-adv-x="700" 
d="M52 304q0 136 83 222.5t215 86.5t215 -86.5t83 -222.5t-83 -222.5t-215 -86.5t-215 86.5t-83 222.5zM69 304q0 -129 78 -210.5t203 -81.5t203 81.5t78 210.5t-78 210.5t-203 81.5t-203 -81.5t-78 -210.5zM289 689q-3 -3 -7 -3t-4 6q0 2 2 4l65 79q4 4 8 4t8 -4l65 -79
q2 -2 2 -4q0 -6 -4 -6t-7 3l-64 69z" />
    <glyph glyph-name="Otilde" unicode="&#xd5;" horiz-adv-x="700" 
d="M52 304q0 136 83 222.5t215 86.5t215 -86.5t83 -222.5t-83 -222.5t-215 -86.5t-215 86.5t-83 222.5zM69 304q0 -129 78 -210.5t203 -81.5t203 81.5t78 210.5t-78 210.5t-203 81.5t-203 -81.5t-78 -210.5z" />
    <glyph glyph-name="Odieresis" unicode="&#xd6;" horiz-adv-x="700" 
d="M52 304q0 136 83 222.5t215 86.5t215 -86.5t83 -222.5t-83 -222.5t-215 -86.5t-215 86.5t-83 222.5zM69 304q0 -129 78 -210.5t203 -81.5t203 81.5t78 210.5t-78 210.5t-203 81.5t-203 -81.5t-78 -210.5zM286 731q0 6 4.5 10.5t10.5 4.5t10.5 -4.5t4.5 -10.5t-4.5 -10.5
t-10.5 -4.5t-10.5 4.5t-4.5 10.5zM391 731q0 6 4.5 10.5t10.5 4.5t10.5 -4.5t4.5 -10.5t-4.5 -10.5t-10.5 -4.5t-10.5 4.5t-4.5 10.5z" />
    <glyph glyph-name="multiply" unicode="&#xd7;" horiz-adv-x="475" 
d="M429 372.5q0 -3.5 -3 -6.5l-177 -176l178 -177q4 -4 4 -7t-3 -5.5t-6.5 -2.5t-6.5 3l-178 177l-177 -177q-3 -3 -6.5 -3t-6 2.5t-2.5 5.5t3 7l177 177l-176 176q-3 3 -3 6.5t2.5 6t5.5 2.5t7 -3l176 -176l177 176q3 3 7 3l5 -2q3 -3 3 -6.5z" />
    <glyph glyph-name="Oslash" unicode="&#xd8;" horiz-adv-x="700" 
d="M52 304q0 136 83 222.5t215 86.5q96 0 170 -49l30 43q6 7 13 2.5t2 -11.5l-31 -44q114 -88 114 -250q0 -136 -83 -222.5t-215 -86.5q-99 0 -171 49l-28 -41q-7 -9 -14 -4t-1 13l29 42q-113 88 -113 250zM631 304q0 153 -107 236l-335 -482q67 -46 161 -46q125 0 203 81.5
t78 210.5zM69 304q0 -154 106 -236l335 482q-70 46 -160 46q-125 0 -203 -81.5t-78 -210.5z" />
    <glyph glyph-name="Ugrave" unicode="&#xd9;" horiz-adv-x="644" 
d="M161 49q-64 54 -64 140v402h-78q-8 0 -8 8.5t8 8.5h87q8 0 8 -9v-410q0 -78 59 -127.5t153 -49.5t154 49.5t60 127.5v402h-78q-8 0 -8 8.5t8 8.5h87q8 0 8 -9v-410q0 -89 -67.5 -141.5t-166 -52.5t-162.5 54zM352 694q0 -6 -6 -6q-2 0 -5 3l-88 84q-3 3 -3 6t3 6.5t6 3.5
t7 -5l83 -87q3 -3 3 -5z" />
    <glyph glyph-name="Uacute" unicode="&#xda;" horiz-adv-x="644" 
d="M489.5 47.5q-67.5 -52.5 -166 -52.5t-162.5 54t-64 140v402h-78q-8 0 -8 8.5t8 8.5h87q8 0 8 -9v-410q0 -78 59 -127.5t153 -49.5t154 49.5t60 127.5v402h-78q-8 0 -8 8.5t8 8.5h87q8 0 8 -9v-410q0 -89 -67.5 -141.5zM286 688q-6 0 -6 6q0 2 3 5l83 87q2 3 6 3
q10 0 10 -8q0 -3 -3 -6l-88 -84q-3 -3 -5 -3z" />
    <glyph glyph-name="Ucircumflex" unicode="&#xdb;" horiz-adv-x="644" 
d="M489.5 47.5q-67.5 -52.5 -166 -52.5t-162.5 54t-64 140v402h-78q-8 0 -8 8.5t8 8.5h87q8 0 8 -9v-410q0 -78 59 -127.5t153 -49.5t154 49.5t60 127.5v402h-78q-8 0 -8 8.5t8 8.5h87q8 0 8 -9v-410q0 -89 -67.5 -141.5zM252 689q-3 -3 -7 -3t-4 6q0 2 2 4l65 79q4 4 8 4
t8 -4l65 -79q2 -2 2 -4q0 -6 -4 -6t-7 3l-64 69z" />
    <glyph glyph-name="Udieresis" unicode="&#xdc;" horiz-adv-x="644" 
d="M161 49q-64 54 -64 140v402h-78q-8 0 -8 8.5t8 8.5h87q8 0 8 -9v-410q0 -78 59 -127.5t153 -49.5t154 49.5t60 127.5v402h-78q-8 0 -8 8.5t8 8.5h87q8 0 8 -9v-410q0 -89 -67.5 -141.5t-166 -52.5t-162.5 54zM253 731q0 6 4.5 10.5t10.5 4.5t10.5 -4.5t4.5 -10.5
t-4.5 -10.5t-10.5 -4.5t-10.5 4.5t-4.5 10.5zM358 731q0 6 4.5 10.5t10.5 4.5t10.5 -4.5t4.5 -10.5t-4.5 -10.5t-10.5 -4.5t-10.5 4.5t-4.5 10.5z" />
    <glyph glyph-name="Yacute" unicode="&#xdd;" horiz-adv-x="546" 
d="M282 3q0 -8 -8.5 -8t-8.5 8v216l-263 380q-2 2 -2 5t5.5 8t10.5 -3l257 -372l257 372q6 8 11 3.5t5 -7.5t-2 -6l-262 -378v-218zM229 688q-6 0 -6 6q0 2 3 5l83 87q2 3 7 3q9 0 9 -8q0 -3 -3 -6l-88 -84q-3 -3 -5 -3z" />
    <glyph glyph-name="Thorn" unicode="&#xde;" horiz-adv-x="597" 
d="M115 473v-328h231q99 0 146 38.5t47 127t-49 125.5t-144 37h-231zM98 3v602q0 8 8.5 8t8.5 -8v-115h231q106 0 158 -43.5t52 -137.5t-52 -137.5t-158 -43.5h-231v-125q0 -8 -8.5 -8t-8.5 8z" />
    <glyph glyph-name="germandbls" unicode="&#xdf;" horiz-adv-x="546" 
d="M90 4q0 -9 -8.5 -9t-8.5 9v596q0 155 146 155q75 0 130 -32.5t55 -98.5q0 -57 -64 -96q-26 -17 -52 -32q-63 -38 -63 -81q0 -59 98 -100q41 -17 81.5 -36t69 -54.5t28.5 -94.5t-41 -97t-117 -38q-36 0 -77.5 11.5t-63.5 30.5q-6 6 -0.5 12.5t11.5 0.5q19 -16 58 -27
t72 -11q68 0 104.5 33t36.5 87t-28.5 86.5t-69.5 50.5t-81.5 35t-69 44.5t-28.5 64t28 64t61.5 44t61.5 43.5t28 64t-29 64q-48 47 -139 47q-68 0 -98.5 -35t-30.5 -104v-596z" />
    <glyph glyph-name="agrave" unicode="&#xe0;" horiz-adv-x="439" 
d="M158 -5q-52 0 -82.5 26.5t-30.5 75.5t39 75.5t101.5 26.5t148.5 -23v92q0 30 -11 50q-24 44 -120 44q-73 0 -119 -24v-85q0 -8 -8.5 -8t-8.5 8v90q0 5 4 7q49 29 127 29t115.5 -25t37.5 -86v-215q0 -36 49 -36h38q8 0 8 -8.5t-8 -8.5h-38q-66 0 -66 53v44
q-65 -102 -176 -102zM99 161.5q-37 -21.5 -37 -63.5t25.5 -64t70.5 -22q116 0 176 115v33q-83 23 -140.5 23t-94.5 -21.5zM243 460q0 -6 -6 -6q-2 0 -5 3l-88 84q-3 3 -3 6t3 6.5t6 3.5t7 -5l83 -87q3 -3 3 -5z" />
    <glyph glyph-name="aacute" unicode="&#xe1;" horiz-adv-x="439" 
d="M158 -5q-52 0 -82.5 26.5t-30.5 75.5t39 75.5t101.5 26.5t148.5 -23v92q0 61 -43 79q-35 15 -98 15t-109 -24v-85q0 -8 -8.5 -8t-8.5 8v90q0 5 4 7q49 29 127 29t115.5 -25t37.5 -86v-215q0 -36 49 -36h38q8 0 8 -8.5t-8 -8.5h-38q-66 0 -66 53v44q-65 -102 -176 -102z
M334 160q-83 23 -140.5 23t-94.5 -21.5t-37 -63.5t25.5 -64t70.5 -22q116 0 176 115v33zM169 454q-6 0 -6 6q0 2 3 5l83 87q2 3 7 3q9 0 9 -8q0 -3 -3 -6l-88 -84q-3 -3 -5 -3z" />
    <glyph glyph-name="acircumflex" unicode="&#xe2;" horiz-adv-x="439" 
d="M158 -5q-52 0 -82.5 26.5t-30.5 75.5t39 75.5t101.5 26.5t148.5 -23v92q0 61 -43 79q-35 15 -98 15t-109 -24v-85q0 -8 -8.5 -8t-8.5 8v90q0 5 4 7q49 29 127 29t115.5 -25t37.5 -86v-215q0 -36 49 -36h38q8 0 8 -8.5t-8 -8.5h-38q-66 0 -66 53v44q-65 -102 -176 -102z
M334 160q-83 23 -140.5 23t-94.5 -21.5t-37 -63.5t25.5 -64t70.5 -22q116 0 176 115v33zM138 455q-3 -3 -7 -3t-4 6q0 2 2 4l65 79q4 4 8 4t8 -4l65 -79q2 -2 2 -4q0 -6 -4 -6t-7 3l-64 69z" />
    <glyph glyph-name="atilde" unicode="&#xe3;" horiz-adv-x="439" 
d="M158 -5q-52 0 -82.5 26.5t-30.5 75.5t39 75.5t101.5 26.5t148.5 -23v92q0 61 -43 79q-35 15 -98 15t-109 -24v-85q0 -8 -8.5 -8t-8.5 8v90q0 5 4 7q49 29 127 29t115.5 -25t37.5 -86v-215q0 -36 49 -36h38q8 0 8 -8.5t-8 -8.5h-38q-66 0 -66 53v44q-65 -102 -176 -102z
M334 160q-83 23 -140.5 23t-94.5 -21.5t-37 -63.5t25.5 -64t70.5 -22q116 0 176 115v33zM118.5 490q-9.5 -12 -9.5 -23.5t-7.5 -11.5t-7.5 7q0 25 15 40.5t42.5 15.5t64.5 -24t58.5 -24t31 12t9.5 24t7.5 12t7.5 -8q0 -24 -15 -39.5t-40.5 -15.5t-63.5 23.5t-60.5 23.5
t-32 -12z" />
    <glyph glyph-name="adieresis" unicode="&#xe4;" horiz-adv-x="439" 
d="M158 -5q-52 0 -82.5 26.5t-30.5 75.5t39 75.5t101.5 26.5t148.5 -23v92q0 30 -11 50q-24 44 -120 44q-73 0 -119 -24v-85q0 -8 -8.5 -8t-8.5 8v90q0 5 4 7q49 29 127 29t115.5 -25t37.5 -86v-215q0 -36 49 -36h38q8 0 8 -8.5t-8 -8.5h-38q-66 0 -66 53v44
q-65 -102 -176 -102zM99 161.5q-37 -21.5 -37 -63.5t25.5 -64t70.5 -22q116 0 176 115v33q-83 23 -140.5 23t-94.5 -21.5zM138 497q0 6 4.5 10.5t10.5 4.5t10.5 -4.5t4.5 -10.5t-4.5 -10.5t-10.5 -4.5t-10.5 4.5t-4.5 10.5zM243 497q0 6 4.5 10.5t10.5 4.5t10.5 -4.5
t4.5 -10.5t-4.5 -10.5t-10.5 -4.5t-10.5 4.5t-4.5 10.5z" />
    <glyph glyph-name="aring" unicode="&#xe5;" horiz-adv-x="439" 
d="M158 -5q-52 0 -82.5 26.5t-30.5 75.5t39 75.5t101.5 26.5t148.5 -23v92q0 30 -11 50q-24 44 -120 44q-73 0 -119 -24v-85q0 -8 -8.5 -8t-8.5 8v90q0 5 4 7q49 29 127 29t115.5 -25t37.5 -86v-215q0 -36 49 -36h38q8 0 8 -8.5t-8 -8.5h-38q-66 0 -66 53v44
q-65 -102 -176 -102zM99 161.5q-37 -21.5 -37 -63.5t25.5 -64t70.5 -22q116 0 176 115v33q-83 23 -140.5 23t-94.5 -21.5zM157 489q0 24 15.5 39.5t39.5 15.5t39.5 -15.5t15.5 -39.5t-15.5 -39.5t-39.5 -15.5t-39.5 15.5t-15.5 39.5zM171 489q0 -18 11.5 -29.5t29.5 -11.5
t29.5 11.5t11.5 29.5t-11.5 29.5t-29.5 11.5t-29.5 -11.5t-11.5 -29.5z" />
    <glyph glyph-name="ae" unicode="&#xe6;" horiz-adv-x="722" 
d="M515 -5q-65 0 -109 33t-62 88q-63 -121 -186 -121q-51 0 -82 28t-31 77t39 77t93 28h157v63q0 62 -44 80q-36 14 -98 14t-108 -24v-85q0 -8 -8.5 -8t-8.5 8v90q0 5 4 7q49 29 125.5 29t114.5 -23.5t40 -80.5q21 49 63.5 76.5t99.5 27.5q82 0 121 -49t39 -133q0 -9 -8 -9
h-315v-9q2 -77 46.5 -122t117.5 -45q96 0 141 72q5 7 12 2.5t3 -11.5q-50 -80 -156 -80zM334 188h-149q-53 0 -88 -22.5t-35 -65t25.5 -65.5t70.5 -23q121 0 181 125q-5 27 -5 50v1zM657 205q0 71 -35 114t-106 43t-115 -43t-50 -114h306z" />
    <glyph glyph-name="ccedilla" unicode="&#xe7;" horiz-adv-x="426" 
d="M276 -157q-26 -19 -57 -19t-58.5 9.5t-27.5 23.5q0 8 8 8q4 0 8 -4q20 -20 55.5 -20t56.5 13t21 32.5t-10 31t-24 16.5q-24 9 -36 9t-12 8q0 4 2 6l19 38q-79 2 -126 57.5t-47 137t51.5 135.5t129 54t134.5 -37q4 -3 4 -7v-90q0 -8 -8.5 -8t-8.5 8v85q-52 32 -122 32
t-116.5 -49t-46.5 -126t45.5 -126t116.5 -49q96 0 141 72q5 7 12 3q4 -3 4 -6t-1 -6q-45 -73 -142 -79l-18 -38q36 -4 57.5 -23t21.5 -46t-26 -46z" />
    <glyph glyph-name="egrave" unicode="&#xe8;" horiz-adv-x="436" 
d="M229 -5q-85 0 -133 54.5t-48 139t50 137.5t131 53t120 -49t39 -133q0 -9 -8 -9h-315v-1q0 -80 44.5 -127.5t119.5 -47.5q96 0 141 72q5 7 12 2.5t3 -11.5q-50 -80 -156 -80zM115 319q-44 -43 -50 -114h306q0 71 -35 114t-106 43t-115 -43zM259 460q0 -6 -6 -6q-2 0 -5 3
l-88 84q-3 3 -3 6t3 6.5t6 3.5t7 -5l83 -87q3 -3 3 -5z" />
    <glyph glyph-name="eacute" unicode="&#xe9;" horiz-adv-x="436" 
d="M229 -5q-85 0 -133 54.5t-48 139t50 137.5t131 53t120 -49t39 -133q0 -9 -8 -9h-315v-1q0 -80 44.5 -127.5t119.5 -47.5q96 0 141 72q5 7 12 2.5t3 -11.5q-50 -80 -156 -80zM371 205q0 71 -35 114t-106 43t-115 -43t-50 -114h306zM193 454q-6 0 -6 6q0 2 3 5l83 87
q2 3 7 3q9 0 9 -8q0 -3 -3 -6l-88 -84q-3 -3 -5 -3z" />
    <glyph glyph-name="ecircumflex" unicode="&#xea;" horiz-adv-x="436" 
d="M229 -5q-85 0 -133 54.5t-48 139t50 137.5t131 53t120 -49t39 -133q0 -9 -8 -9h-315v-1q0 -80 44.5 -127.5t119.5 -47.5q96 0 141 72q5 7 12 2.5t3 -11.5q-50 -80 -156 -80zM371 205q0 71 -35 114t-106 43t-115 -43t-50 -114h306zM154 455q-3 -3 -7 -3t-4 6q0 2 2 4
l65 79q4 4 8 4t8 -4l65 -79q2 -2 2 -4q0 -6 -4 -6t-7 3l-64 69z" />
    <glyph glyph-name="edieresis" unicode="&#xeb;" horiz-adv-x="436" 
d="M229 -5q-85 0 -133 54.5t-48 139t50 137.5t131 53t120 -49t39 -133q0 -9 -8 -9h-315v-1q0 -80 44.5 -127.5t119.5 -47.5q96 0 141 72q5 7 12 2.5t3 -11.5q-50 -80 -156 -80zM115 319q-44 -43 -50 -114h306q0 71 -35 114t-106 43t-115 -43zM161 497q0 6 4.5 10.5t10.5 4.5
t10.5 -4.5t4.5 -10.5t-4.5 -10.5t-10.5 -4.5t-10.5 4.5t-4.5 10.5zM266 497q0 6 4.5 10.5t10.5 4.5t10.5 -4.5t4.5 -10.5t-4.5 -10.5t-10.5 -4.5t-10.5 4.5t-4.5 10.5z" />
    <glyph glyph-name="igrave" unicode="&#xec;" horiz-adv-x="186" 
d="M14 541q-6 6 -1.5 11t7.5 5t7 -5l83 -87q5 -5 1 -9t-9 1zM96 4v353h-87q-8 0 -8 8.5t8 8.5h95q9 0 9 -9v-361q0 -9 -8.5 -9t-8.5 9z" />
    <glyph glyph-name="iacute" unicode="&#xed;" horiz-adv-x="186" 
d="M113 4q0 -9 -8.5 -9t-8.5 9v353h-87q-8 0 -8 8.5t8 8.5h95q9 0 9 -9v-361zM43 454q-6 0 -6 6q0 2 3 5l83 87q2 3 7 3q9 0 9 -8q0 -3 -3 -6l-88 -84q-3 -3 -5 -3z" />
    <glyph glyph-name="icircumflex" unicode="&#xee;" horiz-adv-x="186" 
d="M113 4q0 -9 -8.5 -9t-8.5 9v353h-87q-8 0 -8 8.5t8 8.5h95q9 0 9 -9v-361zM35 455q-3 -3 -7 -3t-4 6q0 2 2 4l65 79q4 4 8 4t8 -4l65 -79q2 -2 2 -4q0 -6 -4 -6t-7 3l-64 69z" />
    <glyph glyph-name="idieresis" unicode="&#xef;" horiz-adv-x="186" 
d="M96 4v353h-87q-8 0 -8 8.5t8 8.5h95q9 0 9 -9v-361q0 -9 -8.5 -9t-8.5 9zM29 497q0 6 4.5 10.5t10.5 4.5t10.5 -4.5t4.5 -10.5t-4.5 -10.5t-10.5 -4.5t-10.5 4.5t-4.5 10.5zM134 497q0 6 4.5 10.5t10.5 4.5t10.5 -4.5t4.5 -10.5t-4.5 -10.5t-10.5 -4.5t-10.5 4.5
t-4.5 10.5z" />
    <glyph glyph-name="eth" unicode="&#xf0;" horiz-adv-x="477" 
d="M130 738q-7 0 -7 8.5t7 8.5h3q101 -13 167 -76l67 65q7 5 13 -0.5t0 -11.5l-69 -65q108 -119 108 -406q0 -177 -83 -235q-44 -31 -101 -31q-83 0 -135 54t-52 137.5t47.5 138t137 54.5t169.5 -96q-4 263 -103 372l-66 -62q-5 -5 -11 1q-6 8 0 12l65 61q-60 57 -157 71z
M227 362q-73 0 -117.5 -48.5t-44.5 -126t47.5 -126.5t126 -49t121 63t42.5 183q-15 21 -35 40.5t-60 41.5t-80 22z" />
    <glyph glyph-name="ntilde" unicode="&#xf1;" 
d="M486 0h-37q-66 0 -66 53v227q0 39 -24.5 60.5t-69.5 21.5q-113 0 -176 -116v-242q0 -9 -8.5 -9t-8.5 9v317q0 36 -49 36h-37q-9 0 -9 8.5t9 8.5h37q66 0 66 -53v-45q64 103 176 103q55 0 83 -27.5t28 -71.5v-227q0 -36 49 -36h37q9 0 9 -8.5t-9 -8.5zM156.5 490
q-9.5 -12 -9.5 -23.5t-7.5 -11.5t-7.5 7q0 25 15 40.5t42.5 15.5t64.5 -24t58.5 -24t31 12t9.5 24t7.5 12t7.5 -8q0 -24 -15 -39.5t-40.5 -15.5t-63.5 23.5t-60.5 23.5t-32 -12z" />
    <glyph glyph-name="ograve" unicode="&#xf2;" horiz-adv-x="464" 
d="M399 187q0 77 -46.5 126t-120.5 49t-120.5 -49t-46.5 -126t46.5 -126t120.5 -49t120.5 49t46.5 126zM48 187q0 85 51.5 138.5t132.5 53.5t132.5 -53.5t51.5 -138.5t-51.5 -138.5t-132.5 -53.5t-132.5 53.5t-51.5 138.5zM256 460q0 -6 -6 -6q-2 0 -5 3l-88 84q-3 3 -3 6
t3 6.5t6 3.5t7 -5l83 -87q3 -3 3 -5z" />
    <glyph glyph-name="oacute" unicode="&#xf3;" horiz-adv-x="464" 
d="M399 187q0 77 -46.5 126t-120.5 49t-120.5 -49t-46.5 -126t46.5 -126t120.5 -49t120.5 49t46.5 126zM48 187q0 85 51.5 138.5t132.5 53.5t132.5 -53.5t51.5 -138.5t-51.5 -138.5t-132.5 -53.5t-132.5 53.5t-51.5 138.5zM190 454q-6 0 -6 6q0 2 3 5l83 87q2 3 6 3
q10 0 10 -8q0 -3 -3 -6l-88 -84q-3 -3 -5 -3z" />
    <glyph glyph-name="ocircumflex" unicode="&#xf4;" horiz-adv-x="464" 
d="M399 187q0 77 -46.5 126t-120.5 49t-120.5 -49t-46.5 -126t46.5 -126t120.5 -49t120.5 49t46.5 126zM48 187q0 85 51.5 138.5t132.5 53.5t132.5 -53.5t51.5 -138.5t-51.5 -138.5t-132.5 -53.5t-132.5 53.5t-51.5 138.5zM171 455q-3 -3 -7 -3t-4 6q0 2 2 4l65 79q4 4 8 4
t8 -4l65 -79q2 -2 2 -4q0 -6 -4 -6t-7 3l-64 69z" />
    <glyph glyph-name="otilde" unicode="&#xf5;" horiz-adv-x="464" 
d="M399 187q0 77 -46.5 126t-120.5 49t-120.5 -49t-46.5 -126t46.5 -126t120.5 -49t120.5 49t46.5 126zM48 187q0 85 51.5 138.5t132.5 53.5t132.5 -53.5t51.5 -138.5t-51.5 -138.5t-132.5 -53.5t-132.5 53.5t-51.5 138.5zM141.5 490q-9.5 -12 -9.5 -23.5t-7.5 -11.5t-7.5 7
q0 25 15 40.5t42.5 15.5t64.5 -24t58.5 -24t31 12t9.5 24t7.5 12t7.5 -8q0 -24 -15 -39.5t-40.5 -15.5t-63.5 23.5t-60.5 23.5t-32 -12z" />
    <glyph glyph-name="odieresis" unicode="&#xf6;" horiz-adv-x="464" 
d="M399 187q0 77 -46.5 126t-120.5 49t-120.5 -49t-46.5 -126t46.5 -126t120.5 -49t120.5 49t46.5 126zM48 187q0 85 51.5 138.5t132.5 53.5t132.5 -53.5t51.5 -138.5t-51.5 -138.5t-132.5 -53.5t-132.5 53.5t-51.5 138.5zM167 497q0 6 4.5 10.5t10.5 4.5t10.5 -4.5
t4.5 -10.5t-4.5 -10.5t-10.5 -4.5t-10.5 4.5t-4.5 10.5zM272 497q0 6 4.5 10.5t10.5 4.5t10.5 -4.5t4.5 -10.5t-4.5 -10.5t-10.5 -4.5t-10.5 4.5t-4.5 10.5z" />
    <glyph glyph-name="divide" unicode="&#xf7;" horiz-adv-x="355" 
d="M278 195q8 0 8 -8.5t-8 -8.5h-201q-8 0 -8 8.5t8 8.5h201zM161 91q0 16 16 16t16 -16t-16 -16t-16 16zM161 283q0 16 16 16t16 -16t-16 -16t-16 16z" />
    <glyph glyph-name="oslash" unicode="&#xf8;" horiz-adv-x="464" 
d="M115 34q-67 54 -67 146t51.5 145.5t132.5 53.5q56 0 103 -29l40 58q4 4 7 4t8 -3t0 -10l-41 -60q67 -54 67 -145.5t-51.5 -145t-132.5 -53.5q-60 0 -103 29l-39 -56q-4 -6 -9 -6l-5 2q-7 5 -1 13zM352.5 61q46.5 49 46.5 131.5t-60 132.5l-200 -287q40 -26 93 -26
q74 0 120.5 49zM232 362q-74 0 -120.5 -49t-46.5 -132t60 -132l200 287q-40 26 -93 26z" />
    <glyph glyph-name="ugrave" unicode="&#xf9;" 
d="M207 -5q-53 0 -82 27t-29 72v227q0 36 -49 36h-37q-9 0 -9 8.5t9 8.5h37q66 0 66 -53v-227q0 -39 25 -60.5t69 -21.5q114 0 176 115v243q0 9 8.5 9t8.5 -9v-317q0 -36 49 -36h38q8 0 8 -8.5t-8 -8.5h-38q-66 0 -66 53v43q-66 -101 -176 -101zM264 460q0 -6 -6 -6
q-2 0 -5 3l-88 84q-3 3 -3 6t3 6.5t6 3.5t7 -5l83 -87q3 -3 3 -5z" />
    <glyph glyph-name="uacute" unicode="&#xfa;" 
d="M207 -5q-53 0 -82 27t-29 72v227q0 36 -49 36h-37q-9 0 -9 8.5t9 8.5h37q66 0 66 -53v-227q0 -39 25 -60.5t69 -21.5q114 0 176 115v243q0 9 8.5 9t8.5 -9v-317q0 -36 49 -36h38q8 0 8 -8.5t-8 -8.5h-38q-66 0 -66 53v43q-66 -101 -176 -101zM207 454q-6 0 -6 6q0 2 3 5
l83 87q2 3 7 3q9 0 9 -8q0 -3 -3 -6l-88 -84q-3 -3 -5 -3z" />
    <glyph glyph-name="ucircumflex" unicode="&#xfb;" 
d="M207 -5q-53 0 -82 27t-29 72v227q0 36 -49 36h-37q-9 0 -9 8.5t9 8.5h37q66 0 66 -53v-227q0 -39 25 -60.5t69 -21.5q114 0 176 115v243q0 9 8.5 9t8.5 -9v-317q0 -36 49 -36h38q8 0 8 -8.5t-8 -8.5h-38q-66 0 -66 53v43q-66 -101 -176 -101zM176 455q-3 -3 -7 -3t-4 6
q0 2 2 4l65 79q4 4 8 4t8 -4l65 -79q2 -2 2 -4q0 -6 -4 -6t-7 3l-64 69z" />
    <glyph glyph-name="udieresis" unicode="&#xfc;" 
d="M207 -5q-53 0 -82 27t-29 72v227q0 36 -49 36h-37q-9 0 -9 8.5t9 8.5h37q66 0 66 -53v-227q0 -39 25 -60.5t69 -21.5q114 0 176 115v243q0 9 8.5 9t8.5 -9v-317q0 -36 49 -36h38q8 0 8 -8.5t-8 -8.5h-38q-66 0 -66 53v43q-66 -101 -176 -101zM165 497q0 6 4.5 10.5
t10.5 4.5t10.5 -4.5t4.5 -10.5t-4.5 -10.5t-10.5 -4.5t-10.5 4.5t-4.5 10.5zM270 497q0 6 4.5 10.5t10.5 4.5t10.5 -4.5t4.5 -10.5t-4.5 -10.5t-10.5 -4.5t-10.5 4.5t-4.5 10.5z" />
    <glyph glyph-name="yacute" unicode="&#xfd;" horiz-adv-x="422" 
d="M-32 -211l32 -3q56 0 92.5 34t70.5 103l39 81l-176 362q-4 7 3.5 11.5t11.5 -3.5l170 -351l170 351q4 8 10 4.5t6 -6.5t-1 -6l-218 -451q-34 -70 -74 -108t-105 -38q-19 0 -29.5 2t-10.5 10t9 8zM174 454q-6 0 -6 6q0 2 3 5l83 87q2 3 6 3q10 0 10 -8q0 -3 -3 -6l-88 -84
q-3 -3 -5 -3z" />
    <glyph glyph-name="thorn" unicode="&#xfe;" horiz-adv-x="472" 
d="M378 48q-45 -53 -130.5 -53t-157.5 68v-283q0 -9 -8.5 -9t-8.5 9v953h-86q-9 0 -9 8.5t9 8.5h95q8 0 8 -9v-462q66 100 163 100q81 0 125.5 -53.5t44.5 -139t-45 -138.5zM253 12q71 0 112 47t41 128t-41 128t-112 47q-100 0 -163 -112v-167q69 -71 163 -71z" />
    <glyph glyph-name="ydieresis" unicode="&#xff;" horiz-adv-x="422" 
d="M0 -214q56 0 92.5 34t70.5 103l39 81l-176 362q-4 7 3.5 11.5t11.5 -3.5l170 -351l170 351q4 8 10 4.5t6 -6.5t-1 -6l-218 -451q-34 -70 -74 -108t-105 -38q-19 0 -29.5 2t-10.5 10t9 8zM144 497q0 6 4.5 10.5t10.5 4.5t10.5 -4.5t4.5 -10.5t-4.5 -10.5t-10.5 -4.5
t-10.5 4.5t-4.5 10.5zM249 497q0 6 4.5 10.5t10.5 4.5t10.5 -4.5t4.5 -10.5t-4.5 -10.5t-10.5 -4.5t-10.5 4.5t-4.5 10.5z" />
    <glyph glyph-name="Lslash" unicode="&#x141;" horiz-adv-x="534" 
d="M510 0h-394q-9 0 -9 9v243l-81 -46q-7 -3 -9.5 1.5t-2.5 7.5t4 6l89 51v319h-78q-9 0 -9 8.5t9 8.5h173q8 0 8 -8.5t-8 -8.5h-78v-309l102 59q7 4 11 -3.5t-3 -11.5l-110 -64v-245h378v78q0 9 8.5 9t8.5 -9v-87q0 -8 -9 -8z" />
    <glyph glyph-name="lslash" unicode="&#x142;" horiz-adv-x="266" 
d="M221 0h-37q-66 0 -66 53v199l-80 -46q-7 -3 -11 3q-4 8 3 12l88 51v461h-87q-8 0 -8 8.5t8 8.5h95q9 0 9 -9v-459l103 59q7 4 9.5 -1.5t2.5 -8t-4 -5.5l-111 -64v-209q0 -36 49 -36h37q9 0 9 -8.5t-9 -8.5z" />
    <glyph glyph-name="OE" unicode="&#x152;" horiz-adv-x="955" 
d="M133.5 81.5q-79.5 81.5 -79.5 221.5t81 222.5t216 82.5h550q8 0 8 -9v-87q0 -8 -8.5 -8t-8.5 8v79h-385v-277h335v54q0 9 8.5 9t8.5 -9v-126q0 -9 -8.5 -9t-8.5 9v55h-335v-280h394q8 0 8 -8.5t-8 -8.5h-550q-138 0 -217.5 81.5zM490 17v574h-139q-128 0 -204 -77
t-76 -211.5t74 -210t206 -75.5h139z" />
    <glyph glyph-name="oe" unicode="&#x153;" horiz-adv-x="706" 
d="M499 -5q-84 0 -133 55q-52 -55 -133.5 -55t-133 53.5t-51.5 138.5t51.5 138.5t132.5 53.5t134 -55q50 55 132 55t121 -49t39 -133q0 -9 -8 -9h-315v-1q0 -80 44.5 -127.5t119.5 -47.5q96 0 141 72q5 7 12 2.5t3 -11.5q-50 -80 -156 -80zM318 187q0 72 37 123
q-47 52 -122 52t-121.5 -49t-46.5 -126t46.5 -126t122 -49t121.5 51q-37 52 -37 124zM641 205q0 71 -35 114t-106 43t-115 -43t-50 -114h306z" />
    <glyph glyph-name="Scaron" unicode="&#x160;" horiz-adv-x="574" 
d="M277 -5q-56 0 -121 12.5t-99 33.5q-4 2 -4 7v86q0 9 8.5 9t8.5 -9v-81q34 -19 94 -30t113 -11q110 0 170 37t60 101.5t-41 99.5q-19 15 -50 28t-60.5 20.5t-103.5 22t-125 41.5q-61 32 -61 104q0 75 55.5 111t174.5 36t201 -45q6 -3 6 -8v-86q0 -9 -8.5 -9t-8.5 9v81
q-32 18 -87 29.5t-108 11.5q-107 0 -157.5 -31.5t-50.5 -98.5q0 -49 40 -80q16 -13 47.5 -24.5t53.5 -16.5t77 -17t97 -25q33 -10 51.5 -22t38.5 -29q36 -33 36 -97q0 -75 -63.5 -117.5t-183.5 -42.5zM363 776q3 3 7 3t4 -5q0 -3 -2 -5l-65 -79q-4 -4 -8 -4t-8 4l-65 79
q-2 2 -2 5q0 5 4 5t7 -3l64 -69z" />
    <glyph glyph-name="scaron" unicode="&#x161;" horiz-adv-x="402" 
d="M286 9.5q-36 -14.5 -103.5 -14.5t-124.5 26q-7 3 -7 10v87q0 8 8.5 8t8.5 -8v-82q46 -24 127 -24q141 0 141 84q0 33 -26 56q-10 9 -34 17t-35.5 10.5t-28 6t-18.5 4t-27 6.5t-49 15q-59 22 -59 74q0 94 145 94q78 0 129 -27q8 -4 8 -9v-85q0 -8 -8.5 -8t-8.5 8v80
q-46 24 -120 24q-128 0 -128 -77q0 -27 18 -41q10 -8 17.5 -13t24 -10t22.5 -6.5t24.5 -5.5t46 -9.5t53.5 -15.5q25 -9 37.5 -19t23 -28t10.5 -44.5t-15.5 -47.5t-51.5 -35.5zM267 542q3 3 7 3t4 -5q0 -3 -2 -5l-65 -79q-4 -4 -8 -4t-8 4l-65 79q-2 2 -2 5q0 5 4 5t7 -3
l64 -69z" />
    <glyph glyph-name="Ydieresis" unicode="&#x178;" horiz-adv-x="546" 
d="M265 3v216l-263 380q-2 2 -2 5t5.5 8t10.5 -3l257 -372l257 372q6 8 11 3.5t5 -7.5t-2 -6l-262 -378v-218q0 -8 -8.5 -8t-8.5 8zM207 731q0 6 4.5 10.5t10.5 4.5t10.5 -4.5t4.5 -10.5t-4.5 -10.5t-10.5 -4.5t-10.5 4.5t-4.5 10.5zM312 731q0 6 4.5 10.5t10.5 4.5
t10.5 -4.5t4.5 -10.5t-4.5 -10.5t-10.5 -4.5t-10.5 4.5t-4.5 10.5z" />
    <glyph glyph-name="Zcaron" unicode="&#x17d;" horiz-adv-x="590" 
d="M51 0q-8 0 -8 9q0 66 38 118q21 29 37.5 49t53.5 51t54.5 44.5t43.5 33t55.5 42t40 30.5t35.5 29.5t36 33.5t29 32.5t33 52t18 66.5h-447v-99q0 -8 -8.5 -8t-8.5 8v108q0 8 9 8h463q9 0 9 -8q0 -47 -20 -83q-11 -20 -20.5 -36t-28.5 -35.5t-31 -32t-35.5 -31.5t-34 -27
t-35.5 -26.5t-31 -23t-37.5 -28.5t-41 -32t-37 -31t-38.5 -35t-30 -35q-48 -58 -54 -127h470v99q0 8 8.5 8t8.5 -8v-107q0 -9 -9 -9h-487zM367 776q3 3 7 3t4 -5q0 -3 -2 -5l-65 -79q-4 -4 -8 -4t-8 4l-65 79q-2 2 -2 5q0 5 4 5t7 -3l64 -69z" />
    <glyph glyph-name="zcaron" unicode="&#x17e;" horiz-adv-x="420" 
d="M368 0h-319q-8 0 -8 8q0 29 16 59q11 20 25 34l19 19q7 7 23.5 19.5t23.5 17.5t26 18.5t24.5 17.5t21.5 15.5t22 16t20.5 16t21.5 18t18.5 17.5t17 19t15.5 23.5t12 38.5h-277v-76q0 -8 -8.5 -8t-8.5 8v85q0 8 8 8h295q8 0 8 -8q0 -46 -40 -91.5t-138 -110.5
q-17 -12 -24 -17.5t-21.5 -16.5t-21.5 -17.5t-18.5 -16.5t-17 -18.5t-14.5 -22t-11 -38.5h302v79q0 8 8.5 8t8.5 -8v-88q0 -8 -9 -8zM270 542q3 3 7 3t4 -5q0 -3 -2 -5l-65 -79q-4 -4 -8 -4t-8 4l-65 79q-2 2 -2 5q0 5 4 5t7 -3l64 -69z" />
    <glyph glyph-name="florin" unicode="&#x192;" horiz-adv-x="528" 
d="M417 362h-205l-31 -371q-8 -89 -38 -141.5t-100 -76.5q-9 -3 -11 -3q-7 0 -7 7.5t7 8.5q68 21 96.5 70t35.5 135l31 371h-80q-10 0 -8 8q0 9 9 9h80l19 222q7 84 44 119t110 35t122 -32q4 -3 4 -7l-8 -90q0 -8 -8.5 -8t-8.5 8l7 85q-44 27 -110 27t-97.5 -32.5
t-37.5 -105.5l-19 -221h205q8 0 8 -9q-2 -8 -9 -8z" />
    <glyph glyph-name="circumflex" unicode="&#x2c6;" horiz-adv-x="167" 
d="M19 455q-3 -3 -7 -3t-4 6q0 2 2 4l65 79q4 4 8 4t8 -4l65 -79q2 -2 2 -4q0 -6 -4 -6t-7 3l-64 69z" />
    <glyph glyph-name="caron" unicode="&#x2c7;" horiz-adv-x="167" 
d="M147 542q3 3 7 3t4 -5q0 -3 -2 -5l-65 -79q-4 -4 -8 -4t-8 4l-65 79q-2 2 -2 5q0 5 4 5t7 -3l64 -69z" />
    <glyph glyph-name="breve" unicode="&#x2d8;" horiz-adv-x="238" 
d="M191 543q0 9 8.5 9t8.5 -9q0 -39 -25.5 -64t-64 -25t-63.5 25t-25 64q0 9 8.5 9t8.5 -9q0 -33 20 -53.5t52 -20.5t52 20.5t20 53.5z" />
    <glyph glyph-name="ring" unicode="&#x2da;" horiz-adv-x="193" 
d="M41 489q0 24 15.5 39.5t39.5 15.5t39.5 -15.5t15.5 -39.5t-15.5 -39.5t-39.5 -15.5t-39.5 15.5t-15.5 39.5zM55 489q0 -18 11.5 -29.5t29.5 -11.5t29.5 11.5t11.5 29.5t-11.5 29.5t-29.5 11.5t-29.5 -11.5t-11.5 -29.5z" />
    <glyph glyph-name="ogonek" unicode="&#x2db;" horiz-adv-x="207" 
d="M47 -96q0 -48 53 -48q37 0 65 32q5 5 9 1.5t4 -5.5t-7.5 -11t-28.5 -21t-42 -12q-70 0 -70 64q0 28 21.5 57t52.5 44l25 -3q-35 -14 -58.5 -42t-23.5 -56z" />
    <glyph glyph-name="tilde" unicode="&#x2dc;" horiz-adv-x="354" 
d="M81.5 490q-9.5 -12 -9.5 -23.5t-7.5 -11.5t-7.5 7q0 25 15 40.5t42.5 15.5t64.5 -24t58.5 -24t31 12t9.5 24t7.5 12t7.5 -8q0 -24 -15 -39.5t-40.5 -15.5t-63.5 23.5t-60.5 23.5t-32 -12z" />
    <glyph glyph-name="hungarumlaut" unicode="&#x2dd;" horiz-adv-x="267" 
d="M36 454q-6 0 -6 6q0 2 3 5l83 87q2 3 6.5 3t8.5 -4t-2 -10l-88 -84q-3 -3 -5 -3zM141 454q-6 0 -6 6q0 2 3 5l83 87q2 3 7 3q9 0 9 -8q0 -3 -3 -6l-88 -84q-3 -3 -5 -3z" />
    <glyph glyph-name="endash" unicode="&#x2013;" horiz-adv-x="509" 
d="M74 226h361q8 0 8 -8.5t-8 -8.5h-361q-8 0 -8 8.5t8 8.5z" />
    <glyph glyph-name="emdash" unicode="&#x2014;" horiz-adv-x="760" 
d="M74 226h611q8 0 8 -8.5t-8 -8.5h-611q-8 0 -8 8.5t8 8.5z" />
    <glyph glyph-name="quoteleft" unicode="&#x2018;" horiz-adv-x="105" 
d="M45 731.5q13 15.5 21 19.5t11 4t3 -3.5t-3 -5.5q-15 -10 -23 -30q10 -3 10 -15q0 -16 -16 -16t-16 15.5t13 31z" />
    <glyph glyph-name="quoteright" unicode="&#x2019;" horiz-adv-x="105" 
d="M66 708.5q-13 -15.5 -21 -19.5t-11 -4t-3 3.5t3 5.5q15 10 23 30q-10 3 -10 15q0 16 16 16t16 -15.5t-13 -31z" />
    <glyph glyph-name="quotesinglbase" unicode="&#x201a;" horiz-adv-x="144" 
d="M74 -19.5q-13 -15.5 -21 -19.5t-11 -4t-3 3.5t3 5.5q15 10 23 30q-10 3 -10 15q0 16 16 16t16 -15.5t-13 -31z" />
    <glyph glyph-name="quotedblleft" unicode="&#x201c;" horiz-adv-x="171" 
d="M112 731.5q13 15.5 21 19.5t11 4t3 -3.5t-3 -5.5q-15 -10 -23 -30q10 -3 10 -15q0 -16 -16 -16t-16 15.5t13 31zM45 731.5q13 15.5 21 19.5t11 4t3 -3.5t-3 -5.5q-15 -10 -23 -30q10 -3 10 -15q0 -16 -16 -16t-16 15.5t13 31z" />
    <glyph glyph-name="quotedblright" unicode="&#x201d;" horiz-adv-x="172" 
d="M66 708.5q-13 -15.5 -21 -19.5t-11 -4t-3 3.5t3 5.5q15 10 23 30q-10 3 -10 15q0 16 16 16t16 -15.5t-13 -31zM133 708.5q-13 -15.5 -21 -19.5t-11 -4t-3 3.5t3 5.5q15 10 23 30q-10 3 -10 15q0 16 16 16t16 -15.5t-13 -31z" />
    <glyph glyph-name="quotedblbase" unicode="&#x201e;" horiz-adv-x="205" 
d="M74 -19.5q-13 -15.5 -21 -19.5t-11 -4t-3 3.5t3 5.5q15 10 23 30q-10 3 -10 15q0 16 16 16t16 -15.5t-13 -31zM135 -19.5q-13 -15.5 -21 -19.5t-11 -4t-3 3.5t3 5.5q15 10 23 30q-10 3 -10 15q0 16 16 16t16 -15.5t-13 -31z" />
    <glyph glyph-name="dagger" unicode="&#x2020;" horiz-adv-x="351" 
d="M45 374h121v230q0 9 8.5 9t8.5 -9v-230h123q8 0 8 -8.5t-8 -8.5h-123v-524q0 -9 -8.5 -9t-8.5 9v524h-121q-8 0 -8 8.5t8 8.5z" />
    <glyph glyph-name="daggerdbl" unicode="&#x2021;" horiz-adv-x="357" 
d="M48 374h121v230q0 9 8.5 9t8.5 -9v-230h123q8 0 8 -8.5t-8 -8.5h-123v-205h123q8 0 8 -8.5t-8 -8.5h-123v-302q0 -9 -8.5 -9t-8.5 9v302h-121q-8 0 -8 8.5t8 8.5h121v205h-121q-8 0 -8 8.5t8 8.5z" />
    <glyph glyph-name="bullet" unicode="&#x2022;" horiz-adv-x="271" 
d="M89 346q0 20 13 33.5t33 13.5t33.5 -13.5t13.5 -33.5t-13.5 -33t-33 -13t-33 13t-13.5 33z" />
    <glyph glyph-name="ellipsis" unicode="&#x2026;" horiz-adv-x="328" 
d="M56 11q0 16 16 16t16 -16t-16 -16t-16 16zM148 11q0 16 16 16t16 -16t-16 -16t-16 16zM240 11q0 16 16 16t16 -16t-16 -16t-16 16z" />
    <glyph glyph-name="perthousand" unicode="&#x2030;" horiz-adv-x="874" 
d="M251 380.5q-32 -37.5 -88 -37.5t-88 36.5t-32 98.5t32 98.5t88.5 36.5t88 -38t31.5 -97.5t-32 -97zM162 596q-48 0 -75 -31t-27 -87t27 -87t75 -31t76 31.5t28 86.5t-28 86.5t-76 31.5zM519 32.5q-32 -37.5 -88 -37.5t-88 36.5t-32 98.5t32 98.5t88.5 36.5t88 -38
t31.5 -97.5t-32 -97zM430 248q-48 0 -75 -31t-27 -87t27 -87t75 -31t76 31.5t28 86.5t-28 86.5t-76 31.5zM498 607q4 4 7 4t8 -3t0 -10l-414 -595q-7 -9 -12.5 -5t-5.5 7t3 7zM810 32.5q-32 -37.5 -88 -37.5t-88 36.5t-32 98.5t32 98.5t88.5 36.5t88 -38t31.5 -97.5t-32 -97
zM721 248q-48 0 -75 -31t-27 -87t27 -87t75 -31t76 31.5t28 86.5t-28 86.5t-76 31.5z" />
    <glyph glyph-name="guilsinglleft" unicode="&#x2039;" horiz-adv-x="320" 
d="M46 180q-5 4 -5 8.5t5 8.5l209 150q3 2 6 2t5.5 -3.5t2.5 -6.5t-4 -6l-202 -145l202 -144q4 -3 4 -6t-2.5 -6.5t-5.5 -3.5t-6 2z" />
    <glyph glyph-name="guilsinglright" unicode="&#x203a;" horiz-adv-x="320" 
d="M64 30q-3 -2 -6 -2t-5.5 3.5t-2.5 6.5t4 6l202 144l-202 145q-4 3 -4 6t2.5 6.5t5.5 3.5t6 -2l209 -150q5 -4 5 -8.5t-5 -8.5z" />
    <glyph glyph-name="fraction" unicode="&#x2044;" horiz-adv-x="445" 
d="M15 -3q-9 3 -9 7t3 8l414 595q4 4 7 4q10 0 10 -8q0 -2 -2 -5l-414 -595q-4 -6 -9 -6z" />
    <glyph glyph-name="Euro" unicode="&#x20ac;" horiz-adv-x="423" 
d="M333 243q8 0 8 -8.5t-8 -8.5h-216q16 -101 74.5 -157.5t160.5 -56.5q8 0 8 -8.5t-8 -8.5q-109 0 -172.5 61.5t-80.5 169.5h-49q-8 0 -8 8.5t8 8.5h47q-3 29 -3 60t3 61h-47q-8 0 -8 8.5t8 8.5h49q16 108 80 170t173 62q8 0 8 -8.5t-8 -8.5q-102 0 -161 -57t-75 -158h217
q8 0 8 -8.5t-8 -8.5h-219q-3 -28 -3 -60t3 -61h219z" />
    <glyph glyph-name="trademark" unicode="&#x2122;" horiz-adv-x="712" 
d="M397 338h-14q-31 0 -31 25v211l-105 -144q-4 -5 -8.5 -5t-7.5 5l-105 144v-228q0 -8 -8.5 -8t-8.5 8v245h-28q-8 0 -8 8.5t8 8.5h35q8 0 12 -7l111 -153l113 155q3 5 9 5h36q8 0 8 -8.5t-8 -8.5h-28v-228q0 -9 14 -9h14q8 0 8 -8t-8 -8zM671 563q0 -8 -8.5 -8t-8.5 8v28
h-99v-245q0 -8 -8.5 -8t-8.5 8v245h-100v-28q0 -8 -8.5 -8t-8.5 8v37q0 8 9 8h232q9 0 9 -8v-37z" />
    <glyph glyph-name="apple" unicode="&#xf8ff;" horiz-adv-x="1347" 
d="M889 488l5 -94h-113q0 160 8 213l3 20h76q6 -42 6 -74l2 10q18 68 79 68q40 0 56.5 -23.5t17.5 -77.5l2 -136h-112l2 94q0 25 -15 25q-17 0 -17 -25zM178 394h-116q0 138 8 268l3 39h95q10 -137 10 -307zM1166 631q69 0 95 -33t26 -89.5t-30.5 -88.5t-90 -32t-90 32
t-30.5 87q0 124 120 124zM1166.5 466q23.5 0 23.5 28.5t-23.5 28.5t-23.5 -28.5t23.5 -28.5zM329 631q116 0 116 -112v-125h-76l-9 58q-12 -64 -74 -64q-89 0 -89 112q0 65 31 98t101 33zM324 466q24 0 24 28.5t-24 28.5q-21 0 -21 -28.5t21 -28.5zM682 363q35 0 56.5 -29.5
t21.5 -89t-33 -94.5t-94 -35q2 -15 2 -42h-127q0 139 8 249l3 33h78q7 -51 7 -75q14 83 78 83zM656 232q0 21 -19 21q-23 0 -23 -30l4 -27q14 0 26 10.5t12 25.5zM941 189q22 0 41 15v-73q-21 -16 -80 -16t-92 32.5t-33 88.5q0 127 123 127q52 0 82 -30.5t30 -83.5l-5 -36
h-120q0 -24 54 -24zM881 238h39q1 3 1 8q0 19 -18 19q-22 0 -22 -27zM479 452l2 86h-23v83l116 36l4 -30h172q8 -63 8 -233h-114q0 110 2 144h-57l2 -63q2 -2 11 -2l17 4v-72q-7 -17 -62 -17q-78 0 -78 64zM659 657.5q-17 17.5 -17 42.5t17 42.5t42 17.5t42 -17.5t17 -42.5
t-17 -42.5t-42 -17.5t-42 17.5zM85 179l2 82h-27v83l121 40l4 -29h165q-2 -102 -2 -106q0 -26 15.5 -26t15.5 26l-2 106h106q6 -58 6 -137t-36 -112t-105.5 -33t-101.5 21v83q25 -19 63 -19t56 9t21 18l4 9q-11 -15 -57 -15q-93 0 -93 74v8h-45l2 -61q16 0 28 6v-74
q-18 -17 -67 -17q-73 0 -73 64zM1089 327q0 -9 -8 -12l8 -13h-9l-7 11h-7v-11h-8v37h16q15 0 15 -12zM1081 326q0 6 -7 6h-8v-12h8q7 0 7 6zM1035 320q0 15 11 26t26 11t26 -11t11 -26t-11 -26t-26 -11t-26 11t-11 26zM1042 320q0 -12 9 -21t21 -9t21 9t9 21t-9 21t-21 9
t-21 -9t-9 -21z" />
    <glyph glyph-name="fi" unicode="&#xfb01;" horiz-adv-x="488" 
d="M416 4q0 -9 -8.5 -9t-8.5 9v353h-272v-366q0 -89 -25.5 -141.5t-94.5 -76.5q-9 -3 -11 -3q-8 0 -8 7t6 9q67 21 91.5 70t24.5 135v366h-80q-9 0 -9 8.5t9 8.5h80v227q0 84 39.5 119t120.5 35t136 -32q4 -3 4 -7v-168q0 -8 -8.5 -8t-8.5 8v163q-51 27 -126 27t-107.5 -32
t-32.5 -106v-226h280q9 0 9 -9v-361z" />
    <glyph glyph-name="fl" unicode="&#xfb02;" horiz-adv-x="512" 
d="M332 357h-205v-366q0 -89 -25.5 -141.5t-94.5 -76.5q-9 -3 -11 -3q-8 0 -8 7t6 9q67 21 91.5 70t24.5 135v366h-80q-9 0 -9 8.5t9 8.5h80v227q0 84 39.5 119t120.5 35t136 -32q4 -3 4 -7v-663q0 -36 49 -36h37q9 0 9 -8.5t-9 -8.5h-37q-66 0 -66 53v658q-51 27 -126 27
t-107.5 -32t-32.5 -106v-226h205q8 0 8 -8.5t-8 -8.5z" />
    </font>
</defs>
</svg>
