<?xml version="1.0" standalone="no"?>
<!DOCTYPE svg PUBLIC "-//W3C//DTD SVG 1.1//EN" "http://www.w3.org/Graphics/SVG/1.1/DTD/svg11.dtd" >
<svg xmlns="http://www.w3.org/2000/svg" xmlns:xlink="http://www.w3.org/1999/xlink" version="1.1">
<metadata>
Created by FontForge 20170731 at Sat Nov 18 04:54:28 2006
 By Aleksey,,,
(c) 2000, 2006 Nick Curtis. All Rights Reserved. Distributed under non-exclusive license by 1001 Free Fonts.
</metadata>
<defs>
<font id="AirstreamNF" horiz-adv-x="572" >
  <font-face 
    font-family="Airstream NF"
    font-weight="400"
    font-stretch="normal"
    units-per-em="1000"
    panose-1="2 1 7 6 3 3 3 9 1 4"
    ascent="770"
    descent="-230"
    x-height="326"
    cap-height="610"
    bbox="-121 -299 1180 1000"
    underline-thickness="67"
    underline-position="566"
    unicode-range="U+0020-2212"
  />
<missing-glyph horiz-adv-x="275" 
 />
    <glyph glyph-name=".notdef" horiz-adv-x="275" 
 />
    <glyph glyph-name=".null" horiz-adv-x="0" 
 />
    <glyph glyph-name="nonmarkingreturn" horiz-adv-x="333" 
 />
    <glyph glyph-name="space" unicode=" " horiz-adv-x="275" 
 />
    <glyph glyph-name="exclam" unicode="!" horiz-adv-x="202" 
d="M119 2h-104l31 98h105zM176 179h-104l135 414h104z" />
    <glyph glyph-name="quotedbl" unicode="&#x22;" horiz-adv-x="140" 
d="M109 462h-95l63 155h94zM229 462h-95l63 155h94z" />
    <glyph glyph-name="numbersign" unicode="#" horiz-adv-x="500" 
d="M421 249h-82l-79 -249h-100l78 249h-70l-79 -249h-100l78 249h-86l32 99h85l25 81h-94l32 99h93l38 123h104l-39 -123h68l38 123h104l-39 -123h74l-33 -99h-72l-26 -81h83zM269 348l25 81h-68l-26 -81h69z" />
    <glyph glyph-name="dollar" unicode="$" horiz-adv-x="409" 
d="M468 527q0 -23 -10 -47.5t-25.5 -49.5t-33.5 -49t-33 -46l-81 57l79 113q1 1 1 3q-21 -5 -57.5 -21.5t-81.5 -49.5q-6 -5 -10 -9.5t-4 -12.5q0 -10 5 -15l100 -108q8 -8 13.5 -23t5.5 -39q0 -18 -6.5 -38t-20.5 -36t-36 -26.5t-54 -10.5h-16l-38 -117h-70l38 117h-132
l32 99h186q6 0 10.5 5t6.5 10l-92 100q-12 13 -21 32.5t-9 48.5q0 56 44.5 95.5t126.5 76.5l20 61h70l-14 -39q5 1 10.5 1h10.5q42 0 64 -25.5t22 -56.5z" />
    <glyph glyph-name="percent" unicode="%" horiz-adv-x="567" 
d="M175 656q60 0 86.5 -37.5t26.5 -97.5q0 -36 -14.5 -72.5t-38.5 -66.5t-55 -49t-64 -19q-26 0 -46.5 11t-34.5 29.5t-22 43t-8 50.5q0 39 14.5 76.5t38.5 66.5t54.5 47t62.5 18zM208 492q3 13 3 28q0 20 -7.5 39.5t-28.5 19.5q-22 0 -39 -14t-29 -34t-18.5 -42t-6.5 -39
q0 -10 1.5 -20.5t6 -19.5t11 -14.5t17.5 -5.5q16 0 31 9.5t27 24.5t20.5 33t11.5 35zM154 0h-87l340 666h88zM455 340q60 0 86.5 -37.5t26.5 -97.5q0 -36 -14.5 -72.5t-38.5 -66.5t-55 -49t-64 -19q-26 0 -46.5 11t-34.5 29.5t-22 43t-8 50.5q0 39 14.5 76.5t38.5 66.5
t54.5 47t62.5 18zM488 176q3 13 3 28q0 20 -7.5 39.5t-28.5 19.5q-22 0 -39 -14t-29 -34t-18.5 -42t-6.5 -39q0 -10 1.5 -20.5t6 -19.5t11 -14.5t17.5 -5.5q16 0 31 9.5t27 24.5t20.5 33t11.5 35z" />
    <glyph glyph-name="ampersand" unicode="&#x26;" horiz-adv-x="586" 
d="M575 129h-65q-2 -26 -14 -49t-31.5 -40t-43 -27.5t-47.5 -10.5h-279q-49 0 -71.5 28.5t-22.5 64.5q0 32 12.5 54.5t32 40.5t44 33.5t48.5 32.5q-8 7 -14.5 20t-11.5 27.5t-8 29t-3 26.5q0 34 24.5 68t62.5 60.5t84 43t90 16.5q24 0 47.5 -4t42.5 -14.5t30.5 -28
t11.5 -44.5q0 -29 -13.5 -56.5t-34 -51.5t-45.5 -45t-48 -37l-57 81q6 3 20 14q5 3 17.5 12t25.5 20.5t23.5 23.5t12.5 22q-12 9 -28 9q-25 0 -52 -8.5t-51 -21.5t-41.5 -29t-22.5 -30q0 -7 9.5 -26t21.5 -40.5t24 -40.5t17 -26l-160 -108q-3 -3 -6.5 -7t-5.5 -9h274
q-1 0 3.5 1t11.5 4t13 8t8 14h-89l32 99h254z" />
    <glyph glyph-name="quotesingle" unicode="'" horiz-adv-x="38" 
d="M104 462h-95l63 155h94z" />
    <glyph glyph-name="parenleft" unicode="(" horiz-adv-x="328" 
d="M310 493q-42 -6 -80 -26.5t-67.5 -57t-46.5 -90t-17 -125.5q0 -52 11 -93.5t29.5 -71.5t42 -49t48.5 -25l-24 -94q-42 11 -78.5 38.5t-64.5 70t-44 99t-16 125.5q0 90 27 164t72.5 126t106 81t127.5 29z" />
    <glyph glyph-name="parenright" unicode=")" horiz-adv-x="328" 
d="M-1 -38q42 6 80 26.5t67.5 57t46.5 90t17 125.5q0 52 -11 93.5t-29.5 71.5t-42 49t-48.5 25l24 94q42 -11 78.5 -38.5t64.5 -70t44 -99t16 -125.5q0 -90 -27 -164t-73 -126t-106 -81t-127 -29z" />
    <glyph glyph-name="asterisk" unicode="*" horiz-adv-x="286" 
d="M143 664q12 0 18 -11t6 -21q0 -11 -3.5 -21.5t-6.5 -20.5q-4 -16 -6.5 -32t-2.5 -32q13 8 25 18t23 21q7 6 16.5 16t17.5 15q10 5 19 5t16.5 -4.5t7.5 -14.5q0 -9 -6 -16t-14 -12t-21.5 -8t-23.5 -6q-15 -3 -28.5 -8.5t-27.5 -12.5q26 -14 55 -22q10 -2 24 -5t22 -9
q8 -5 13.5 -12t5.5 -16t-7 -14t-16 -5q-10 0 -20 5q-8 5 -17 15t-16 17q-11 11 -23 21t-26 18q1 -17 3.5 -32.5t6.5 -31.5q3 -11 6.5 -21.5t3.5 -21.5t-6 -21.5t-18 -10.5t-18 10.5t-6 21.5t4 23t7 23q3 14 5.5 29t2.5 30q-24 -14 -46 -36q-8 -8 -17 -18t-18 -15
q-9 -6 -20 -6q-9 0 -16 5t-7 15q0 9 6 16t13 12q8 5 21.5 8l22.5 5q15 4 29.5 9.5t27.5 13.5q-13 8 -28 13t-29 9q-9 2 -22.5 5.5t-21.5 7.5q-7 5 -13 12.5t-6 16.5t7 14t16 5q10 0 20 -5q9 -5 18 -15.5t17 -17.5q11 -11 22 -20t24 -17q0 15 -2.5 30t-6.5 29q-2 11 -6 23
t-4 23q0 10 6 21t18 11z" />
    <glyph glyph-name="plus" unicode="+" horiz-adv-x="535" 
d="M224 332v205h87v-205h205v-87h-205v-205h-87v205h-205v87h205z" />
    <glyph glyph-name="comma" unicode="," horiz-adv-x="150" 
d="M51 -68l-44 38l39 45q-14 9 -17.5 24.5t-3.5 23.5q0 28 18 43t41 15q15 0 26.5 -6t18.5 -15t10.5 -19.5t3.5 -19.5q0 -22 -14 -38z" />
    <glyph glyph-name="hyphen" unicode="-" horiz-adv-x="276" 
d="M242 249h-240l32 99h241z" />
    <glyph glyph-name="period" unicode="." horiz-adv-x="131" 
d="M125 62q0 -26 -18 -43t-42 -17q-23 0 -41 17.5t-18 42.5q0 24 17.5 41.5t41.5 17.5q25 0 42.5 -16.5t17.5 -42.5z" />
    <glyph glyph-name="slash" unicode="/" horiz-adv-x="276" 
d="M23 -209h-100l276 875h104z" />
    <glyph glyph-name="zero" unicode="0" horiz-adv-x="491" 
d="M446 508q20 -32 29 -68t9 -74q0 -70 -25 -135.5t-66.5 -116t-94.5 -81t-110 -30.5q-43 0 -77.5 18.5t-58.5 50t-37 72.5t-13 85l2 35q7 67 34.5 127t67.5 105t89 71t101 26q48 0 86 -22t64 -63zM378 308q3 13 4.5 26t1.5 30q0 22 -4 45t-14.5 42t-27.5 31t-42 12
q-45 0 -80.5 -28t-60.5 -68t-38.5 -85.5t-13.5 -79.5q0 -23 4 -46t14.5 -42t27 -31t42.5 -12q34 0 65 19.5t56 50t42.5 67t23.5 69.5z" />
    <glyph glyph-name="one" unicode="1" horiz-adv-x="240" 
d="M104 2h-104l192 591h104z" />
    <glyph glyph-name="two" unicode="2" horiz-adv-x="531" 
d="M516 357q-14 -42 -37 -77t-52.5 -65.5t-65 -58t-73.5 -54.5h210l-32 -100h-354q-15 0 -30 -6.5t-25 -14.5l-57 80q22 16 49.5 27.5t56.5 13.5q44 26 98.5 62t103 77t82.5 85t38 87q0 46 -24 63.5t-58 17.5q-32 0 -61.5 -11.5t-57.5 -29.5t-54 -39.5t-50 -42.5l-67 73
q25 26 55.5 51.5t66 46.5t75 35t84.5 17q50 0 85.5 -15t58.5 -39t34 -55t11 -63q0 -20 -3.5 -35.5t-6.5 -29.5z" />
    <glyph glyph-name="three" unicode="3" horiz-adv-x="521" 
d="M520 461q0 -31 -9 -54t-24 -40t-35 -29.5t-42 -21.5q31 -25 48.5 -57t17.5 -70q0 -53 -27 -89t-66 -57.5t-82.5 -30.5t-76.5 -9q-27 0 -57.5 3t-60.5 8.5t-58 12.5t-50 15l36 92q48 -17 98.5 -24.5t98.5 -7.5q14 0 38.5 4.5t48.5 14.5t41.5 26.5t17.5 41.5q0 30 -34 49.5
t-113 37.5v99h11q27 2 58 8t58 17t44.5 26t17.5 35q0 17 -22 25.5t-48 8.5q-45 0 -84 -4.5t-84 -12.5l-16 98q38 5 80 11.5t84 6.5q32 0 66 -6.5t61.5 -22t45.5 -41t18 -63.5z" />
    <glyph glyph-name="four" unicode="4" horiz-adv-x="492" 
d="M430 231h54l-33 -99h-53l-42 -130h-106l44 130h-296l40 122l382 339h127zM161 231h165l66 206z" />
    <glyph glyph-name="five" unicode="5" horiz-adv-x="484" 
d="M428 494h-174l-43 -133q7 1 13.5 1h13.5q104 0 165.5 -36t61.5 -101q0 -59 -33 -101t-82.5 -69t-108 -40t-108.5 -13q-33 0 -66.5 2t-65.5 7l13 98q25 -3 54.5 -5.5t61.5 -2.5q77 0 142 23q14 5 30 14.5t29.5 22.5t22.5 28.5t9 31.5q0 13 -12 21t-30.5 12.5t-40.5 6
t-41 1.5q-45 0 -87 -7.5t-87 -18.5l118 357h277z" />
    <glyph glyph-name="six" unicode="6" horiz-adv-x="438" 
d="M401 217q0 -43 -20.5 -82t-53 -68.5t-73.5 -47t-82 -17.5q-40 0 -71.5 13t-53 35.5t-33 52t-11.5 61.5v9.5t1 9.5q9 52 31.5 105.5t54.5 106.5t71.5 103t81.5 95h133q-47 -42 -94.5 -100.5t-89.5 -121.5q5 2 13.5 3t17.5 1q35 0 67.5 -10.5t57 -30.5t39 -49.5t14.5 -67.5
zM302 217q0 30 -21 44.5t-48 14.5q-21 0 -44.5 -9t-43 -25t-32 -37t-12.5 -45q0 -27 19 -42.5t51 -15.5q21 0 44.5 9t42.5 24.5t31.5 36.5t12.5 45z" />
    <glyph glyph-name="seven" unicode="7" horiz-adv-x="367" 
d="M420 593q-8 -12 -15.5 -25t-14.5 -25q-38 -63 -77 -130t-74 -135.5t-64 -138t-47 -137.5h-102q15 65 39 128.5t53.5 125.5t62.5 121.5t66 116.5h-243v99h416v0z" />
    <glyph glyph-name="eight" unicode="8" horiz-adv-x="565" 
d="M529 456q0 -40 -21 -72.5t-50 -54.5q28 -21 45.5 -49.5t17.5 -66.5q0 -45 -23 -83.5t-62 -66.5t-90 -44t-106 -16q-44 0 -86.5 9.5t-75.5 29.5t-53.5 51t-20.5 73q0 27 12 53.5t32 50t46.5 43t55.5 32.5q-10 14 -15.5 32t-5.5 37q0 42 22 74.5t56 55t74.5 34.5t77.5 12
q29 0 59 -7.5t55 -24t40.5 -42t15.5 -60.5zM422 213q0 19 -14.5 31.5t-34.5 19.5t-40.5 9.5t-32.5 2.5q-26 0 -59.5 -6.5t-64.5 -20t-52 -34.5t-21 -51q0 -17 13.5 -28.5t32.5 -19t40 -11t36 -3.5q34 0 69.5 5.5t63.5 18.5t46 34.5t18 52.5zM300 375q59 0 94.5 21t35.5 58
q0 11 -7 18.5t-17.5 12.5t-23 7.5t-24.5 2.5q-17 0 -39.5 -4.5t-42.5 -14.5t-34 -24.5t-14 -34.5q0 -11 7 -19t17.5 -13t23 -7.5t24.5 -2.5z" />
    <glyph glyph-name="nine" unicode="9" horiz-adv-x="400" 
d="M399 401q-9 -51 -33 -104t-56 -104t-71 -99.5t-78 -91.5h-139q52 52 100 106.5t89 116.5q-11 -2 -20 -3t-19 -1q-33 0 -63.5 11t-54 31.5t-37.5 49.5t-14 66q0 42 19 80t50.5 67.5t71.5 47.5t81 20q41 0 74 -12.5t56 -34t35 -51t12 -63.5q0 -17 -3 -32zM303 436
q0 12 -5.5 22.5t-15 19t-21.5 13.5t-24 5q-29 0 -54 -10t-43 -26.5t-28 -37.5t-10 -43q0 -31 21.5 -45t47.5 -14q21 0 44.5 9t43 25t32 37t12.5 45z" />
    <glyph glyph-name="colon" unicode=":" horiz-adv-x="153" 
d="M125 62q0 -26 -18 -43t-42 -17q-23 0 -41 17.5t-18 42.5q0 24 17.5 41.5t41.5 17.5q25 0 42.5 -16.5t17.5 -42.5zM165 222q0 -26 -18 -43t-42 -17q-23 0 -41 17.5t-18 42.5q0 24 17.5 41.5t41.5 17.5q25 0 42.5 -16.5t17.5 -42.5z" />
    <glyph glyph-name="semicolon" unicode=";" horiz-adv-x="172" 
d="M51 -68l-44 38l39 45q-13 8 -17 24t-4 24q0 28 18 43t41 15q15 0 26.5 -6t18.5 -15t10.5 -19.5t3.5 -19.5q0 -22 -14 -38zM165 222q0 -26 -18 -43t-42 -17q-23 0 -41 17.5t-18 42.5q0 24 17.5 41.5t41.5 17.5q25 0 42.5 -16.5t17.5 -42.5z" />
    <glyph glyph-name="less" unicode="&#x3c;" horiz-adv-x="515" 
d="M144 288l352 -153v-95l-477 209v79l477 208v-94z" />
    <glyph glyph-name="equal" unicode="=" horiz-adv-x="535" 
d="M516 247v-87h-497v87h497zM516 417v-87h-497v87h497z" />
    <glyph glyph-name="greater" unicode="&#x3e;" horiz-adv-x="515" 
d="M19 442v94l477 -208v-79l-477 -209v95l351 153z" />
    <glyph glyph-name="question" unicode="?" horiz-adv-x="347" 
d="M139 2h-104l32 100h105zM401 497q0 -27 -8.5 -48t-22 -39t-30.5 -34.5t-33 -32.5q-17 -17 -36 -34.5t-36.5 -34.5t-30 -32t-16.5 -27l-13 -39h-100q10 41 24 71t33 55.5t43.5 49.5t54.5 54q27 25 40 39t19 22.5t7.5 13t4.5 12.5q-4 2 -11 2.5t-16 0.5h-99q-27 0 -48 -7.5
t-21 -33.5q0 -8 5 -18t14 -17l-63 -77q-25 22 -40 51t-15 61v11t2 12q10 42 30 65t46 34.5t55.5 13.5t59.5 2h46q26 0 53.5 -2.5t50 -12t37 -28.5t14.5 -53z" />
    <glyph glyph-name="at" unicode="@" horiz-adv-x="921" 
d="M897 297q-36 -56 -83.5 -97.5t-102 -68.5t-113.5 -40.5t-118 -13.5q-87 0 -169 28t-146 83t-102.5 136t-38.5 187q0 110 43 200t116 154.5t169 99.5t201 35q87 0 153.5 -30t111.5 -79.5t67.5 -114t22.5 -133.5q0 -64 -20.5 -128.5t-62.5 -124.5q-39 -57 -88.5 -91
t-99.5 -34q-54 0 -85.5 31.5t-31.5 87.5q-17 -22 -38.5 -44t-46 -39.5t-51.5 -28.5t-54 -11q-24 0 -47.5 11.5t-44.5 37.5q-22 26 -31.5 56t-9.5 63q0 67 31.5 136t82.5 124.5t116 90.5t133 35q38 0 63.5 -27t27.5 -66l40 90h102l-186 -418q-4 -9 -6.5 -20.5t-2.5 -23.5
q0 -20 9.5 -37t34.5 -17q24 0 49 14t47 33t38 38t22 28q38 56 57.5 115.5t19.5 117.5q0 66 -23 125t-67 103.5t-109 70t-150 25.5q-91 0 -168 -41.5t-133.5 -108.5t-88.5 -150t-32 -166q0 -75 25.5 -147t83.5 -132q57 -60 128 -86.5t149 -26.5q55 0 109.5 14.5t104 41.5
t92 65t73.5 86zM581 564q4 12 10.5 29t12 37.5t9.5 41.5t4 40q0 27 -12.5 48.5t-47.5 21.5q-36 0 -69.5 -21t-62.5 -56t-53 -79t-41.5 -90.5t-27 -90.5t-9.5 -78q0 -33 11.5 -52t34.5 -19q39 0 77 29.5t70 71.5t56.5 88t37.5 79z" />
    <glyph glyph-name="A" unicode="A" 
d="M129 246q18 65 51.5 127.5t78 111.5t97.5 79t110 30q67 0 106.5 -37t39.5 -122q0 -77 -40 -201l-76 -231h-104l47 143h-224q0 2 1.5 -16.5t5.5 -49.5t12 -71t22 -80l-95 -29q-1 0 -8.5 23.5t-16 59.5t-15.5 79.5t-7 83.5h-114l32 100h97zM477 264q19 58 28 100t9 74
q0 34 -12 45.5t-36 11.5q-38 0 -75 -24.5t-69 -61.5t-56 -81t-35 -82h240z" />
    <glyph glyph-name="B" unicode="B" horiz-adv-x="431" 
d="M377 614q60 0 93 -27.5t33 -81.5q0 -39 -15.5 -76.5t-38.5 -73t-50 -67.5t-50 -61q6 -14 15 -31t16.5 -35.5t13 -37.5t5.5 -37q0 -32 -19 -57.5t-57 -25.5h-323l32 99h263l-60 141q19 23 48 56t56 68.5t46.5 69.5t19.5 59q0 10 -7.5 13.5t-19.5 5.5q-24 0 -60.5 -27.5
t-71.5 -77t-61 -119t-29 -154.5h-99q2 46 10.5 89.5t22.5 88.5q7 24 20.5 55.5t32 65t42.5 65.5t53.5 57t64 40.5t74.5 15.5z" />
    <glyph glyph-name="C" unicode="C" horiz-adv-x="490" 
d="M464 619q27 0 49 -5.5t38.5 -17.5t25.5 -32t9 -50q0 -39 -28 -85t-70 -93.5t-90.5 -93t-89.5 -82.5l-60 78q39 30 81 67t77 74.5t58 72t23 59.5q0 5 -6 8t-21 3q-24 0 -52.5 -14t-51.5 -28q-31 -19 -69 -54t-71.5 -78.5t-56.5 -91.5t-23 -93q0 -26 10.5 -43.5t38.5 -17.5
h274l-32 -99h-242q-35 0 -63 13t-47 34.5t-29 50.5t-10 62q0 51 18.5 102t53.5 102q20 28 43 57t48 54.5t49.5 45.5t47.5 32q36 25 79.5 44t88.5 19z" />
    <glyph glyph-name="D" unicode="D" horiz-adv-x="632" 
d="M497 607q34 0 68 -9t61 -28.5t44 -49.5t17 -73q0 -62 -40 -131t-111 -136q-67 -65 -126.5 -100.5t-114 -52.5t-106 -20.5t-102.5 -3.5h-27l126 386h104l-92 -283q56 7 109 32q30 15 78 48t94 75.5t79 89.5t33 90q0 38 -26 53t-66 15q-33 0 -79.5 -8.5t-99 -24.5
t-108 -38.5t-105.5 -50.5l-43 90q55 25 111 48.5t110.5 41.5t107.5 29t104 11z" />
    <glyph glyph-name="E" unicode="E" horiz-adv-x="549" 
d="M447 616q27 0 53 -6.5t45.5 -20t31.5 -34.5t12 -49q0 -32 -20.5 -63t-50 -58t-60.5 -49t-52 -37l-61 79l25 17q12 8 31.5 23t39 31.5t33.5 31.5t14 23q0 5 -5 8t-11.5 4.5t-13.5 2t-11 0.5q-27 0 -62.5 -12.5t-65.5 -29.5q-5 -3 -17.5 -11t-26 -19.5t-23.5 -25.5t-10 -28
q0 -5 1 -8l74 -130q-50 -41 -102 -78t-103 -75h417l-32 -99h-386q-54 0 -82.5 26t-28.5 61q0 27 16 50.5t42.5 46t60.5 45t70 48.5l-4 8q-8 8 -15.5 20t-13.5 26t-9.5 29t-4.5 28q0 45 29 85.5t73.5 71.5t98.5 49.5t104 18.5z" />
    <glyph glyph-name="F" unicode="F" horiz-adv-x="585" 
d="M664 495h-92l-68 -210h94l-32 -100h-94l-65 -198l-116 -36l77 234h-81l32 100h81l68 210h-268q-12 0 -16.5 -3.5t-4.5 -8.5q0 -8 8 -20t19 -23l36 -40l-76 -62q-12 14 -26.5 31.5t-28 37t-22.5 41.5t-9 45q0 21 7.5 39.5t26 32t50.5 21.5t81 8h451z" />
    <glyph glyph-name="G" unicode="G" horiz-adv-x="540" 
d="M581 414q-27 -45 -70 -88.5t-94 -88.5l-63 76q30 30 58.5 56t51 50t36.5 46t14 44q0 6 -6.5 8t-17.5 2q-25 0 -48.5 -8.5t-43 -20t-34 -23t-21.5 -17.5q-39 -30 -76 -64t-67 -72.5t-50.5 -80.5t-26.5 -89q0 -22 5 -35.5t14.5 -21t22.5 -10.5t29 -3q25 0 49.5 8t47.5 21
t44.5 29.5t40.5 33.5q8 8 13 23t10 28l93 -35q-47 -122 -103 -239t-137 -221l-78 60q40 51 72.5 106.5t61.5 112.5q-26 -10 -51.5 -17t-54.5 -7q-39 0 -71.5 9.5t-56 28.5t-37 48t-13.5 67q0 49 17 98.5t45 96t65 88.5t78 76q28 24 59 46.5t64 40.5t68.5 29t72.5 11
q32 0 55 -10t37.5 -25t21.5 -33.5t7 -35.5q0 -27 -10 -52.5t-23 -45.5z" />
    <glyph glyph-name="H" unicode="H" horiz-adv-x="496" 
d="M380 -61h-104l81 246h-142l-60 -182h-104l60 182h-87l32 100h87l100 309h104l-100 -309h142l117 357h104z" />
    <glyph glyph-name="I" unicode="I" horiz-adv-x="468" 
d="M535 470q-26 -82 -52 -162l-52 -160q-10 -30 -30 -56t-46 -46t-56.5 -31.5t-61.5 -11.5h-237l32 96h167q15 0 29 1t25 4q33 7 54 31t35 57t24.5 71.5t22.5 75.5q14 41 24.5 84.5t29.5 81.5q0 3 -2.5 4t-4.5 1q-31 0 -56.5 -14t-45.5 -26q-1 -1 -19.5 -13.5t-40 -32.5
t-39.5 -45t-18 -50q0 -18 4 -29t11.5 -21.5t17.5 -22t23 -30.5l-84 -54q-14 24 -27 43t-23 37t-15.5 36.5t-5.5 41.5q0 37 18 76q12 27 44 62t73.5 66.5t88.5 53.5t89 22q30 0 51 -9.5t34.5 -24.5t19.5 -33t6 -34q0 -11 -2 -20t-5 -19z" />
    <glyph glyph-name="J" unicode="J" horiz-adv-x="494" 
d="M395 102h94l-32 -99h-94q-17 -40 -26 -74t-23 -69q-17 -42 -44.5 -66.5t-60 -37.5t-67 -17t-64.5 -4q-38 0 -58 19t-20 49q0 31 18 56t34 50q45 54 106 102.5t129 76.5q24 75 50 153t51 157q8 26 15.5 54.5t19.5 52.5q0 3 -3 4t-6 1q-43 -2 -113 -50q-10 -7 -27.5 -20.5
t-35 -31t-30 -38.5t-12.5 -42q0 -14 4 -25t11.5 -22.5t18 -24.5t23.5 -30l-83 -54q-29 39 -50.5 76.5t-21.5 81.5q0 37 18 76q12 27 44 62t73.5 66.5t88.5 53.5t89 22q28 0 48.5 -9t34.5 -23t21 -32t7 -36q0 -9 -2 -20t-5 -20zM244 -45q-35 -26 -67.5 -57t-57.5 -64
q28 0 49 10t35.5 26.5t24.5 38.5t16 46z" />
    <glyph glyph-name="K" unicode="K" horiz-adv-x="527" 
d="M104 3h-104l192 591h104zM293 220l172 -217h-127l-126 160q-9 9 -19 27t-10 31q0 14 7.5 29t27.5 35l308 309h140z" />
    <glyph glyph-name="L" unicode="L" horiz-adv-x="488" 
d="M387 255l-87 47q12 22 24 43t23 44q4 9 13.5 24t19 31t16.5 30t7 22q0 6 -6 6q-20 0 -41 -9t-39.5 -25t-33.5 -38t-23 -47l-91 -281h290l-32 -99h-321q-17 -14 -36 -27.5t-38 -24.5l-32 96q25 16 44 33t25 35l97 299q15 46 41.5 80t58.5 57t65.5 34.5t62.5 11.5
q45 0 76.5 -24t31.5 -68q0 -19 -5 -38.5t-16 -39.5z" />
    <glyph glyph-name="M" unicode="M" horiz-adv-x="772" 
d="M788 594q-3 -5 -10 -18.5t-7 -18.5q-20 -43 -39 -80.5t-38 -85.5q-24 -61 -45.5 -119.5t-21.5 -105.5q0 -27 15 -46t56 -19h49l-32 -98h-17q-47 0 -79.5 11.5t-52.5 32.5t-29 50t-9 64q0 17 1.5 36t6.5 39q-41 -56 -81 -113.5t-87 -119.5h-106l75 303
q-50 -77 -101.5 -153t-110.5 -150h-125q23 30 47 61t48 66q48 69 88.5 128t77 113.5t71 108.5t70.5 114h109l-85 -341l244 341h118v0z" />
    <glyph glyph-name="N" unicode="N" horiz-adv-x="623" 
d="M743 594q-12 -32 -29.5 -72t-34.5 -76q-48 -100 -99.5 -196.5t-119.5 -182.5q-6 -9 -16 -20t-23.5 -21t-28 -17t-29.5 -7q-21 0 -34.5 8.5t-21.5 22t-11 29t-3 30.5q0 48 7.5 105.5t15.5 117.5q-45 -83 -94.5 -164t-98.5 -148h-123q16 21 38.5 52t47.5 67t50.5 76
t46.5 79q42 77 86 156.5t82 160.5h101l-12 -98q-11 -83 -22.5 -175t-20.5 -174q36 48 69.5 104t63.5 114.5t56.5 117t47.5 111.5h109v0z" />
    <glyph glyph-name="O" unicode="O" horiz-adv-x="674" 
d="M752 330h-112q-2 -63 -30.5 -121.5t-74 -104.5t-104.5 -73.5t-122 -27.5q-55 0 -101 20t-79 54.5t-51 80t-18 96.5q0 64 27 125t73 109t106.5 77t127.5 29q39 0 75.5 -11.5t67.5 -33t54 -52t36 -68.5h157zM541 330q-20 0 -43 2t-43 10t-33.5 25t-13.5 46q0 17 3 39t21 40
q-11 2 -20 2.5t-18 0.5q-46 0 -88.5 -21t-75 -54.5t-52 -77t-19.5 -88.5q0 -32 10.5 -59.5t30 -48t47 -32.5t60.5 -12q44 0 85 19t73 51t52.5 73t23.5 85z" />
    <glyph glyph-name="P" unicode="P" horiz-adv-x="588" 
d="M641 431q-5 -64 -31 -124t-64 -109q-19 -24 -40.5 -38t-46.5 -21.5t-52 -9.5t-56 -2q-20 0 -40.5 0.5t-41.5 0.5l32 100h96q30 0 57 23t47 57.5t32 75t12 75.5q0 24 -3.5 33t-11.5 9q-9 0 -22.5 -7.5t-26.5 -18.5q-59 -48 -108.5 -106t-93 -119.5t-83 -124.5t-79.5 -122
h-117q2 3 5 8.5t6 8.5q8 13 30.5 47t50 80t55.5 100t47 107q4 12 7.5 28.5t6 35t4 38.5t1.5 39h-125l32 99h60q24 0 47 -3.5t41 -14.5t29 -33.5t11 -59.5q0 -2 -0.5 -13.5t-3.5 -29.5q15 19 40.5 46.5t56.5 52.5t66 42.5t68 17.5q31 0 52 -11.5t33.5 -30.5t17.5 -42t5 -45
v-20.5t-2 -18.5z" />
    <glyph glyph-name="Q" unicode="Q" horiz-adv-x="632" 
d="M473 621q32 0 66 -8t62 -24.5t46 -43.5t18 -64q0 -30 -10 -60t-26.5 -59t-37 -54.5t-41.5 -46.5h67l-33 -99h-138q-18 -17 -37 -31.5t-39 -28.5h264l-32 -99h-410q-25 0 -47 -12.5t-39 -31.5q-26 39 -26 73q0 35 26 52.5t63 17.5q29 14 57 28.5t55 31.5q-35 0 -74 5.5
t-71.5 23t-54 49.5t-21.5 85q0 41 18.5 79t50 71t73.5 59.5t87.5 46t93 30t90.5 10.5zM566 468q0 24 -22.5 39.5t-65.5 15.5q-14 0 -29.5 -2t-30 -4.5t-27 -5.5t-19.5 -6q-1 0 -17.5 -6t-40 -16.5t-50.5 -26t-50 -35t-38.5 -43t-15.5 -50.5q0 -23 10.5 -36.5t28.5 -21
t42 -10t51 -2.5q29 0 58.5 1.5t58.5 1.5q2 1 14 12.5t29.5 28.5t37.5 39t37 44.5t28 44t11 38.5z" />
    <glyph glyph-name="R" unicode="R" horiz-adv-x="683" 
d="M716 350q-41 -65 -105.5 -106t-133.5 -63q17 -17 29.5 -36.5t23.5 -42.5h113l-33 -99h-145q-2 2 -2 4.5t-2 6.5q-12 29 -25 54t-32.5 44t-47.5 30t-70 12l32 100q58 6 105.5 17t97.5 33q24 10 48.5 29.5t44 42t32 46t12.5 42.5q-2 9 -6.5 16t-21.5 9l-28 -2t-32 -7
q-77 -26 -141 -78t-119 -118t-103.5 -139t-94.5 -142h-112q21 34 44.5 74.5t47 84t46 88.5t40 87t29 80t13.5 67q0 7 -2.5 9t-11.5 2h-104l32 99h58q24 0 46.5 -3t40.5 -13.5t29 -30t11 -52.5q0 -35 -10 -69q24 24 60 52.5t78 53t87.5 41.5t87.5 17q34 0 59.5 -10.5t42 -28
t24.5 -39.5t8 -44q0 -30 -12.5 -62.5t-27.5 -55.5z" />
    <glyph glyph-name="S" unicode="S" horiz-adv-x="524" 
d="M593 570q8 -13 9.5 -27t1.5 -28q0 -30 -13 -60.5t-32.5 -60.5t-42.5 -59t-43 -57l-81 57l48 64q10 13 21 28.5t21 31t16.5 29.5t6.5 24q-34 0 -71.5 -14.5t-91.5 -45.5q-7 -5 -19 -14t-23.5 -20t-20 -23t-8.5 -23q0 -17 23.5 -43t51.5 -56q12 -14 27.5 -28.5t29 -30.5
t23 -33t9.5 -34q0 -32 -11 -58.5t-30.5 -45.5t-45 -29.5t-55.5 -10.5h-293l32 99h261q15 0 26 11.5t13 27.5q-29 32 -58 60.5t-52 55.5t-37 54.5t-14 59.5q0 33 14.5 61t37.5 51.5t51.5 42t56.5 32.5q29 14 70.5 31.5t89.5 20.5q31 0 57.5 -6t44.5 -34z" />
    <glyph glyph-name="T" unicode="T" horiz-adv-x="512" 
d="M455 475l-147 -487l-95 28l134 445l-274 -37l-13 98l319 42l26 86l95 -29l-13 -42l106 14l13 -98z" />
    <glyph glyph-name="U" unicode="U" horiz-adv-x="556" 
d="M638 594q-13 -22 -37 -61.5t-40 -87.5q-30 -88 -57 -172.5t-54 -170.5h98l-29 -99h-83q-31 0 -54.5 20t-31.5 49q-33 -32 -70 -50.5t-82 -18.5q-39 0 -65.5 11t-42.5 30.5t-23 46t-7 57.5q0 30 5 59.5t14 59.5q10 33 24 70t26.5 70t21 58t8.5 33q0 9 -21.5 11.5
t-59.5 10.5l20 96q8 -2 17.5 -4t19.5 -2q36 -4 60 -14t38 -24t20 -31t6 -35q0 -26 -8.5 -53.5t-18.5 -54.5q-6 -14 -18.5 -46.5t-25 -70t-22 -74t-9.5 -57.5q0 -18 9 -33t32 -15q36 0 67.5 27t60 70t55 97t52.5 108q2 7 5.5 13.5t5.5 13.5q7 17 10.5 33.5t7.5 35.5
t10.5 41.5t18.5 52.5h147v0z" />
    <glyph glyph-name="V" unicode="V" horiz-adv-x="439" 
d="M574 594q-43 -76 -85.5 -149t-89 -144.5t-99 -141.5t-114.5 -140q-10 -11 -24.5 -16.5t-28.5 -7.5q-25 0 -39.5 6.5t-22 19t-9.5 30t-2 40.5q0 63 6.5 130t16 133t20.5 127.5t19 112.5h100q-19 -114 -38 -225t-24 -226q86 106 158 219.5t143 231.5h113v0z" />
    <glyph glyph-name="W" unicode="W" horiz-adv-x="716" 
d="M835 594q-38 -63 -83.5 -138t-95.5 -151.5t-103.5 -150.5t-106.5 -135q-9 -11 -23.5 -16.5t-29.5 -7.5q-25 0 -47 11t-25 44q0 37 0.5 72t2.5 72q-16 -23 -33 -45l-34 -44q-13 -16 -26.5 -34.5t-29 -34.5t-32.5 -27.5t-37 -13.5q-26 0 -40.5 7.5t-21.5 21t-8.5 32.5
t-1.5 41q0 66 7 134.5t16.5 134t20 124.5t17.5 104h103l-7 -35q-20 -103 -37.5 -207.5t-21.5 -208.5q3 3 27.5 33t55.5 71.5t62 86t47 76.5q5 48 15 96.5t17 87.5h99q-1 -8 -5.5 -32.5t-11 -60.5t-13.5 -80.5t-13.5 -92t-11.5 -95.5t-6 -90q86 106 158 219.5t143 231.5h114
v0z" />
    <glyph glyph-name="X" unicode="X" horiz-adv-x="628" 
d="M697 500q-66 -17 -133.5 -56.5t-136.5 -97.5l149 -343h-108l-118 272q-60 -60 -116 -128t-111 -144h-123q72 103 150.5 198.5t157.5 170.5l-96 222h108l66 -153q66 52 137 93.5t149 61.5l25 -96v0z" />
    <glyph glyph-name="Y" unicode="Y" horiz-adv-x="528" 
d="M641 594q-28 -54 -54 -106t-51 -106q-9 -19 -14.5 -30.5t-12 -28.5t-15.5 -45.5t-24 -80.5q-20 -68 -43.5 -138.5t-49.5 -135t-53.5 -119t-55.5 -88.5l-74 64q9 10 24 35t32.5 60t35 77.5t29.5 87.5q-52 -37 -113 -37q-36 0 -59.5 11.5t-37.5 30.5t-19.5 44.5t-5.5 53.5
t5 61t12.5 64.5t15.5 60t15 48.5l5 12.5t10.5 31t10.5 40t5 41.5q0 4 -4.5 5t-18.5 1q-9 0 -21 -0.5t-26 -1.5l-5 99q12 1 23 1.5t22 0.5q62 0 95 -26.5t33 -83.5q0 -29 -8.5 -63t-19.5 -65l-8 -23t-17.5 -56.5t-17 -72.5t-7.5 -71q0 -20 5 -32t18 -12q31 0 59.5 20.5
t54.5 54.5t49.5 78t44.5 91q11 25 19 56.5t15 65t14 66.5t18 60h165v0z" />
    <glyph glyph-name="Z" unicode="Z" horiz-adv-x="597" 
d="M620 405q-50 -78 -115 -149.5t-130 -136.5q2 -8 5.5 -17.5t8.5 -17.5q56 14 102 23.5t64 12.5l15 -83l-158 -32v-8t1 -8q0 -54 -23.5 -99t-62 -77.5t-87 -51t-97.5 -18.5q-67 0 -105 29.5t-38 73.5q0 38 23.5 68.5t63 56t92 46.5t111.5 39q1 0 1 0.5t2 0.5
q-9 20 -16.5 41t-15.5 41q45 51 95 103t98 107q13 14 29 33t30 38.5t23.5 37t9.5 29.5q0 11 -6.5 18t-16.5 11.5t-22 6t-23 1.5q-30 0 -63.5 -9.5t-67 -24.5t-65.5 -33.5t-60.5 -37.5t-51.5 -35.5t-38 -27.5l-61 78q38 31 88 63.5t105.5 59t113 43.5t110.5 17
q81 0 121.5 -32t40.5 -83q0 -25 -8.5 -52t-21.5 -45zM311 -31q-30 -5 -66 -18t-67 -29.5t-52 -33t-21 -28.5q0 -14 12.5 -20.5t26.5 -6.5q24 0 51.5 10t52.5 28t42.5 43t20.5 55z" />
    <glyph glyph-name="bracketleft" unicode="[" horiz-adv-x="243" 
d="M22 651h199v-22h-74v-836h74v-23h-199v881z" />
    <glyph glyph-name="backslash" unicode="\" horiz-adv-x="391" 
d="M19 671h101l269 -851h-97z" />
    <glyph glyph-name="bracketright" unicode="]" horiz-adv-x="270" 
d="M221 -230h-199v23h74v836h-74v22h199v-881z" />
    <glyph glyph-name="asciicircum" unicode="^" horiz-adv-x="453" 
d="M183 630h87l164 -374h-94l-114 258l-113 -258h-94z" />
    <glyph glyph-name="underscore" unicode="_" horiz-adv-x="500" 
d="M0 -10h500v-96h-500v96z" />
    <glyph glyph-name="grave" unicode="`" horiz-adv-x="341" 
d="M266 350l-219 74l25 73l219 -74z" />
    <glyph glyph-name="a" unicode="a" horiz-adv-x="405" 
d="M373 2h-97q-17 0 -29.5 5t-23.5 13q-22 -14 -45.5 -19.5t-45.5 -5.5t-42.5 7.5t-36.5 21.5t-25.5 34.5t-9.5 46.5q0 27 10 51q21 48 56 80.5t78 52t90.5 28t94.5 8.5v-99q-6 1 -11.5 1h-11.5q-57 0 -107.5 -18t-82.5 -58q-12 -15 -14.5 -24.5t-2.5 -18.5q0 -5 4 -10.5
t10 -5.5q22 0 38 10.5t27 26t18 35t12 37.5l94 -31l-22 -69h107z" />
    <glyph glyph-name="b" unicode="b" horiz-adv-x="396" 
d="M394 188h-58q0 -29 -16 -62t-42.5 -61t-61 -46t-71.5 -18q-30 0 -53 11t-38 29t-22.5 41t-7.5 47q0 9 1.5 24t5.5 26l142 438h104l-152 -469q-3 -9 -3 -18q0 -11 3 -20t19 -9t33 9.5t30.5 23.5t22 31t8.5 32q0 12 -3 20.5t-7 16.5t-7 17.5t-3 22.5q0 6 1.5 15t9.5 37
l94 -30l-2 -8h105z" />
    <glyph glyph-name="c" unicode="c" horiz-adv-x="360" 
d="M327 2h-222q-44 0 -72 27.5t-28 72.5q0 39 20 80.5t51.5 76t71.5 56.5t80 22h10q19 0 35.5 -7.5t28.5 -19.5t19 -28.5t7 -34.5q0 -3 -0.5 -6.5t-0.5 -6.5l-5 -44h-100l5 48q-18 -6 -40 -18.5t-40.5 -30t-31 -39.5t-12.5 -46q0 -3 2 -3h255z" />
    <glyph glyph-name="d" unicode="d" horiz-adv-x="407" 
d="M305 148q-2 -5 -3 -11t-1 -11q0 -14 9.5 -19.5t20.5 -5.5h65l-32 -99h-33q-28 0 -54 10.5t-45 32.5q-23 -19 -50.5 -31t-53.5 -12q-33 0 -57 9.5t-39.5 25.5t-23 38t-7.5 47q0 32 13.5 67.5t39 65.5t61.5 49.5t82 19.5h61l95 293h104zM197 226q-18 0 -35.5 -9
t-31.5 -23.5t-22.5 -31.5t-8.5 -33q0 -14 3 -21t18 -7q14 0 28 6.5t26 17t20.5 23.5t13.5 26l18 52h-29z" />
    <glyph glyph-name="e" unicode="e" horiz-adv-x="362" 
d="M329 2h-218q-43 0 -71 26t-28 71q0 13 2.5 26.5t7.5 28.5q17 54 45.5 89.5t59 57t58 30t42.5 8.5q21 0 40.5 -4.5t34.5 -15t23.5 -27t8.5 -40.5q0 -29 -23.5 -68t-86.5 -83h138zM231 242q-35 -1 -63 -28q-11 -10 -26.5 -28t-23.5 -48q22 13 41 28t33.5 29t24 26.5
t14.5 20.5z" />
    <glyph glyph-name="f" unicode="f" horiz-adv-x="377" 
d="M358 226h-58q24 -37 37.5 -81t13.5 -91q0 -53 -17.5 -115t-50 -115t-78.5 -88t-103 -35q-26 0 -50.5 8t-41.5 31q-10 16 -16.5 37t-6.5 47q0 40 15 88l102 314h-87l40 100h79l94 291h105l-94 -291h149zM216 172q-9 12 -18 21l-100 -311q0 -2 -7 -19t-7 -40q0 -10 3.5 -16
t14.5 -6q5 1 12 3t18 7q26 14 48 38.5t38 55t25 64.5t9 66q0 37 -7 72.5t-29 64.5z" />
    <glyph glyph-name="g" unicode="g" horiz-adv-x="355" 
d="M362 226h-22t-23 -1q-59 -4 -106 -17q-20 -6 -39 -14t-34 -19.5t-24 -26t-9 -32.5q0 -6 5 -13t16 -7q9 0 25 3.5t34.5 14.5t37.5 33t35 60l95 -28l-84 -259q-14 -41 -42 -78.5t-65.5 -65.5t-81 -44.5t-88.5 -16.5v97q3 1 7 1q27 0 55 12.5t52 32t42.5 44.5t26.5 50l21 65
q-16 -8 -36 -11.5t-37 -3.5q-25 0 -46.5 8.5t-37 23t-24.5 34t-9 42.5q0 44 16.5 76.5t44 56.5t63.5 39.5t75.5 25t80 13t76.5 3.5v-98v0z" />
    <glyph glyph-name="h" unicode="h" horiz-adv-x="406" 
d="M374 2h-71q-37 0 -60 24.5t-23 57.5v6t1 7q0 4 1 7l37 118q-21 -8 -42 -25.5t-39 -39t-32 -44.5t-20 -43l-22 -68h-104l200 615h104l-101 -312q16 10 30 15t30 5q50 0 72.5 -28.5t22.5 -66.5q0 -16 -3.5 -30.5t-8.5 -29.5t-11 -31.5t-10 -37.5h81z" />
    <glyph glyph-name="i" unicode="i" horiz-adv-x="222" 
d="M185 2h-83q-40 0 -65 22.5t-25 64.5q0 3 1 8.5t4 15.5l68 213h105l-72 -225h99zM242 477q0 -29 -20 -49t-48 -20t-48 20t-20 49q0 28 20 48t48 20q29 0 48.5 -19.5t19.5 -48.5z" />
    <glyph glyph-name="j" unicode="j" horiz-adv-x="230" 
d="M156 -36q-14 -42 -42.5 -79t-66 -65.5t-81 -45t-86.5 -16.5v97q3 1 8 1q27 0 54.5 12.5t51.5 32.5t42 45t26 49l48 150q-13 -5 -25 -9.5t-25 -8.5l-25 96q40 14 76.5 37.5t56.5 65.5h106zM310 477q0 -29 -20 -49t-48 -20t-48 20t-20 49q0 28 20 48t48 20q29 0 48.5 -19.5
t19.5 -48.5z" />
    <glyph glyph-name="k" unicode="k" horiz-adv-x="356" 
d="M230 160l25 -57q1 -1 5 -1.5t8 -0.5h74l-33 -99h-41q-29 0 -58 12.5t-43 44.5l-26 59l-38 -116h-104l199 615h104l-119 -369l134 100l59 -80z" />
    <glyph glyph-name="l" unicode="l" horiz-adv-x="226" 
d="M118 101h99l-32 -99h-89q-37 0 -60 24.5t-23 57.5v5q0 3 1 8.5t4 15.5l164 504h104z" />
    <glyph glyph-name="m" unicode="m" horiz-adv-x="590" 
d="M558 2h-68q-37 0 -60 24t-23 58q0 23 10.5 52.5t18.5 54.5l10 31q-5 -2 -10 -3.5t-10 -5.5q-32 -23 -54.5 -49t-37.5 -53t-25 -54.5t-17 -54.5h-105l70 220q-17 -7 -35.5 -19.5t-36.5 -31t-34 -44t-26 -57.5l-22 -68h-103l104 324h105l-8 -22q34 21 72 21q24 0 45 -14
t30 -35q25 20 53.5 34.5t56.5 14.5q25 0 42 -9t26.5 -22.5t13.5 -30t4 -31.5q0 -19 -3.5 -34.5t-8.5 -30.5t-10.5 -31t-9.5 -35h78z" />
    <glyph glyph-name="n" unicode="n" horiz-adv-x="406" 
d="M373 2h-69q-37 0 -60 24t-23 58q0 5 2 15l35 123q-18 -7 -36.5 -18t-35.5 -29t-32.5 -43.5t-27.5 -61.5l-22 -68h-104l105 324h104l-7 -21q14 8 34 14t36 6q45 0 65.5 -25.5t20.5 -70.5q0 -13 -2.5 -26t-7.5 -29l-22 -73h80z" />
    <glyph glyph-name="o" unicode="o" horiz-adv-x="397" 
d="M380 146h-48q-7 -29 -23 -55.5t-39 -46t-51.5 -31t-58.5 -11.5q-32 0 -58 12t-45.5 32t-30 47t-10.5 57q0 35 14 67.5t38 58t56 41t69 15.5q44 0 78.5 -23t51.5 -61h90zM225 148q-26 5 -44.5 25.5t-21.5 47.5q-17 -11 -29.5 -30t-12.5 -38t11 -34t32 -15q20 0 37 12.5
t28 31.5z" />
    <glyph glyph-name="p" unicode="p" horiz-adv-x="496" 
d="M464 2h-297v99h65q16 0 34.5 8t34.5 21.5t27 30.5t11 36q0 16 -10 22.5t-24 6.5q-24 0 -53.5 -21t-59 -55.5t-54.5 -78.5t-40 -90l-84 -261l-94 31l112 346q13 41 18 72.5t5 57.5q0 42 -7 64t-6 22l97 21q1 -3 6 -27t8 -56q30 30 70 52t84 22q29 0 53 -10t41.5 -27.5
t27 -41t9.5 -49.5q0 -27 -9 -50.5t-22 -45.5h89z" />
    <glyph glyph-name="q" unicode="q" horiz-adv-x="433" 
d="M412 4h-34l2 -12q0 -28 -3.5 -47t-7.5 -39q-1 -4 -7 -21t-16.5 -40t-25.5 -48.5t-35 -46.5t-44 -35t-52 -14q-24 0 -42 9t-29 23.5t-16.5 32t-5.5 35.5q0 11 2 21t5 21l54 166q-8 -2 -18 -3.5t-19 -1.5q-49 0 -81 28t-32 74q0 11 2 20.5t5 20.5q14 48 42.5 81t66.5 54
t82.5 31.5t90.5 13.5h22.5t22.5 -1l-7 -99q-7 1 -13.5 1h-13.5q-10 0 -28.5 -1.5t-40.5 -6.5t-45 -13.5t-42 -22t-31.5 -33t-13.5 -46.5q1 -1 6 -1q39 0 63 22.5t39 56.5l6 17l94 -30l-22 -67h153zM281 -17v11.5t-2 9.5h-19l-47 -142l-2.5 -7t-5.5 -16t-5.5 -18.5
t-2.5 -13.5q0 -3 1 -3q12 0 26 21t26.5 50.5t21 59.5t9.5 48z" />
    <glyph glyph-name="r" unicode="r" horiz-adv-x="367" 
d="M328 226q-12 -9 -27.5 -25t-29.5 -33t-23.5 -33t-9.5 -25q3 -9 12 -9h112l-32 -99h-43q-23 0 -49 3t-48 13.5t-36 31.5t-14 57q0 31 13.5 62t33.5 57h-16q-4 0 -11.5 -3.5t-16 -10.5t-15.5 -18.5t-10 -26.5l-94 31l55 172l95 -31l-5 -13h197v-100h-38z" />
    <glyph glyph-name="s" unicode="s" horiz-adv-x="258" 
d="M251 153q0 -68 -41 -109.5t-109 -41.5h-101l32 99h69q24 0 37.5 11.5t13.5 40.5q0 24 -11 49q-20 -26 -33 -45.5t-13 -18.5l-80 58q-2 -3 7.5 10t25 33.5t34 45.5t34.5 47.5t27 38.5t11 18l89 -44l-40 -56q48 -60 48 -136z" />
    <glyph glyph-name="t" unicode="t" horiz-adv-x="263" 
d="M231 226h-53l-41 -125h119l-32 -99h-112q-36 0 -58.5 24.5t-22.5 55.5q0 2 0.5 11t4.5 17l38 116h-56l33 99h55l38 116h104l-38 -116h53z" />
    <glyph glyph-name="u" unicode="u" horiz-adv-x="358" 
d="M325 2q-35 0 -60 5t-49 25q-20 -14 -43.5 -22t-47.5 -8t-44 8.5t-34.5 23t-22.5 33.5t-8 40q0 13 1.5 22t3.5 23l56 174h104l-66 -205q0 -2 -0.5 -3t-0.5 -3q0 -8 2 -11t10 -3q2 0 10.5 1.5t18.5 6.5t19.5 15.5t15.5 27.5l57 174h103l-65 -205q0 -2 -0.5 -3t-0.5 -3
q0 -14 15 -14h59z" />
    <glyph glyph-name="v" unicode="v" horiz-adv-x="361" 
d="M377 177h-83q-19 -30 -38 -54.5t-40 -45.5t-43.5 -39t-49.5 -36h-27q-15 22 -26.5 41t-20 39.5t-13 43t-4.5 51.5q0 38 7.5 74.5t20.5 74.5h106q-16 -34 -25.5 -74.5t-9.5 -75.5q0 -11 1 -20.5t3 -20.5q19 16 34.5 35.5t29.5 40.5q-5 9 -8 18.5t-3 20.5q0 19 9 35.5
t23.5 29t33 20t38.5 7.5h68q-5 -17 -10.5 -33t-10.5 -33h70z" />
    <glyph glyph-name="w" unicode="w" horiz-adv-x="522" 
d="M537 177h-84q-35 -59 -76.5 -98.5t-95.5 -76.5h-28q-13 13 -24.5 33t-19.5 38q-20 -20 -40.5 -37t-43.5 -34h-29q-1 2 -2 3.5t-2 3.5q-34 33 -47 78.5t-13 91.5q0 36 7.5 74t20.5 73h103q-5 -14 -10.5 -34.5t-10.5 -42.5t-8 -44t-3 -39q0 -8 0.5 -15.5t3.5 -12.5
q16 16 30 34.5t26 38.5q6 58 27 115h106q-16 -42 -25 -80.5t-9 -73.5q0 -10 1 -20t3 -17q18 17 33.5 36.5t29.5 39.5q-11 16 -11 38q0 27 13.5 45t34 28.5t43 15t40.5 4.5h41q-5 -17 -10.5 -33t-10.5 -33h73z" />
    <glyph glyph-name="x" unicode="x" horiz-adv-x="385" 
d="M240 129q8 -16 8 -22t11 -6h110l-32 -99h-43q-43 0 -73 7t-53 38l-38 -45h-130l127 147l-66 177h105q9 -23 17.5 -45.5t16.5 -45.5l78 91h131z" />
    <glyph glyph-name="y" unicode="y" horiz-adv-x="336" 
d="M380 326q-2 -4 -10.5 -24t-21.5 -47.5t-28.5 -58t-30.5 -55.5q0 -64 -9.5 -133.5t-36 -131.5t-73.5 -109t-122 -66l-24 95q38 10 66 32.5t46.5 53t30 66.5t16.5 73q-30 -18 -63 -18q-24 0 -44 9t-34.5 24t-22 35t-7.5 41q0 11 2 21t5 20q13 44 27.5 86.5t28.5 86.5h104
l-66 -204q0 -1 -1 -4.5t-1 -7.5q0 -8 9 -8q12 0 31.5 19t40.5 50.5t42 71.5t37 83h109v0z" />
    <glyph glyph-name="z" unicode="z" horiz-adv-x="305" 
d="M282 223q0 -36 -20.5 -70t-42.5 -63q37 -11 52.5 -33t15.5 -53q0 -32 -13 -64t-32 -63t-41.5 -62t-41.5 -61h-129q16 20 34 42t37 47q5 7 17.5 23t25.5 35.5t23 39.5t10 35q0 26 -43 26h-93l133 196q2 3 5 9t3 14q0 5 -6 5h-176l32 100h148q43 0 72.5 -29.5t29.5 -73.5z
" />
    <glyph glyph-name="braceleft" unicode="{" horiz-adv-x="323" 
d="M97 547q0 36 12 58.5t32.5 35.5t47 17.5t56.5 4.5h56v-27q-33 -10 -54.5 -38t-21.5 -70v-196q0 -41 -26.5 -71t-64.5 -38q38 -8 64.5 -38t26.5 -72v-196q0 -42 21.5 -69.5t54.5 -37.5v-28h-56q-30 0 -56.5 5t-47 17.5t-32.5 35.5t-12 59v214q0 37 -21 65.5t-54 39.5v9
q33 11 54 39.5t21 65.5v215z" />
    <glyph glyph-name="bar" unicode="|" horiz-adv-x="500" 
 />
    <glyph glyph-name="braceright" unicode="}" horiz-adv-x="314" 
d="M226 332q0 -37 21 -65.5t54 -39.5v-9q-33 -11 -54 -39.5t-21 -65.5v-214q0 -36 -12 -59t-32.5 -35.5t-47 -17.5t-56.5 -5h-56v28q33 10 54.5 37.5t21.5 69.5v196q0 42 26.5 72t64.5 38q-38 8 -64.5 38t-26.5 71v196q0 42 -21.5 70t-54.5 38v27h56q30 0 56.5 -4.5
t47 -17.5t32.5 -35.5t12 -58.5v-215z" />
    <glyph glyph-name="asciitilde" unicode="~" horiz-adv-x="628" 
d="M609 270q-32 -32 -71 -51t-86 -19q-35 0 -71 10.5t-71 23.5t-68.5 23.5t-62.5 10.5q-26 0 -50 -9.5t-49 -34.5l-61 61q38 39 78 54.5t82 15.5q34 0 70 -10.5t71.5 -23.5t68.5 -23.5t63 -10.5q23 0 47.5 10t48.5 34z" />
    <glyph glyph-name="nonbreakingspace" unicode="&#xa0;" horiz-adv-x="275" 
 />
    <glyph glyph-name="exclamdown" unicode="&#xa1;" horiz-adv-x="260" 
d="M150 255h104l-135 -414h-104zM207 432h104l-31 -98h-105z" />
    <glyph glyph-name="cent" unicode="&#xa2;" horiz-adv-x="348" 
d="M449 512q0 -27 -7.5 -49.5t-21 -43.5t-32.5 -42t-41 -43l-72 69q13 13 27 27.5t25 28t18.5 25t7.5 17.5t-10 6q-36 0 -78 -27.5t-77.5 -68t-59.5 -86.5t-24 -82q0 -26 14 -31.5t46 -5.5h36t39.5 0.5t37 1t29.5 0.5l-32 -99h-89l-35 -107h-69l35 108q-27 0 -48 11.5
t-35 30t-21 42.5t-7 49q0 57 24 109t62 97t85.5 81t95.5 60l19 57h69l-14 -42q27 0 46 -8.5t32 -22t19 -30t6 -32.5z" />
    <glyph glyph-name="sterling" unicode="&#xa3;" horiz-adv-x="465" 
d="M405 433q-6 9 -21 14.5t-25 5.5q-27 0 -48.5 -14t-37 -34.5t-25.5 -44t-14 -42.5h80l-32 -100h-80l-23 -70q19 -2 34 -6l30 -8t30 -7.5t34 -3.5q28 0 61 7.5t57 19.5l43 -89q-35 -17 -77 -27t-84 -10q-24 0 -43 4t-36 8.5t-33.5 8.5t-34.5 4q-31 0 -62.5 -7.5
t-54.5 -18.5l-43 89q17 8 35 13.5t36 11.5l27 81h-55l32 100h55q4 10 8 23t9 27q9 37 31.5 70t52.5 57.5t65.5 38.5t71.5 14q35 0 67 -14.5t52 -45.5z" />
    <glyph glyph-name="currency" unicode="&#xa4;" horiz-adv-x="550" 
d="M568 444q-18 26 -46.5 37.5t-63.5 11.5q-32 0 -64 -9t-62 -25.5t-56 -38.5t-47 -48h267l-67 -66h-241l-8 -21h228l-66 -66h-174q0 -25 8 -47t24 -38.5t40.5 -26t56.5 -9.5q49 0 90 17.5t79 44.5l60 -79q-21 -16 -46.5 -30.5t-53.5 -26t-57 -18t-56 -6.5q-54 0 -99 15
t-77.5 43.5t-50.5 69t-18 91.5h-65l21 66h52l6 21h-56l21 66h64q56 101 141 152.5t192 67.5q58 0 106 -15t88 -62z" />
    <glyph glyph-name="yen" unicode="&#xa5;" horiz-adv-x="454" 
d="M597 593q-20 -27 -44.5 -57l-49 -60t-48 -57t-41.5 -47h48l-21 -66h-90l-10.5 -10.5t-5.5 -5t-3 -2.5l-3 -3h106l-22 -66h-150l-70 -217h-104l69 217h-159l21 66h121l-5 21h-110l22 66h81q-1 14 -2.5 25.5t-1.5 29.5v166h101v-170q0 -25 1 -48t5 -43q66 56 127.5 126
t111.5 135h126v0z" />
    <glyph glyph-name="brokenbar" unicode="&#xa6;" horiz-adv-x="500" 
 />
    <glyph glyph-name="section" unicode="&#xa7;" horiz-adv-x="1211" 
d="M1180 638v-270h-79v190h-46v80h125zM911 305q-8 0 -8 -8q0 -9 8 -9h159v-38h-159q-8 0 -8 -8t8 -8h159v-39h-159q-19 0 -32.5 13.5t-13.5 33.5q0 15 9 27q-9 10 -9 28q0 19 13.5 32t32.5 13h159v-37h-159zM343 288v-38h-167v-55h-38v102q0 19 13 32t33 13h159v-37h-159
q-8 0 -8 -8v-9h167zM379 342h216v-50q0 -23 -15 -40t-38 -19l35 -38h-51l-35 38h-56v38h101q9 0 15 6t6 15v12h-140v-109h-38v147zM673 305q-8 0 -8 -8q0 -9 8 -9h159v-38h-159q-8 0 -8 -8t8 -8h159v-39h-159q-19 0 -32.5 13.5t-13.5 33.5q0 15 9 27q-9 10 -9 28
q0 19 13.5 32t32.5 13h159v-37h-159zM946 170v-38h-108v-71h46v-38h-84v109h-66v38h212zM1107 61q19 0 30 16h-165v19q0 31 22 52.5t52 21.5h134v-38h-134q-19 0 -30 -16h164v-20q0 -30 -21 -51.5t-52 -21.5h-135v38h135zM233 116v-39h-168v-54h-38v101q0 19 13.5 32.5
t33.5 13.5h159v-38h-159q-9 0 -9 -8v-8h168zM702 23h-57q-7 26 -19 45t-34 36q-28 21 -61 26v-107h-38v147h21q27 0 53 -9t48 -26q29 -23 48 -58v93h39v-147zM459 170v-68q0 -32 -23.5 -55.5t-56.5 -23.5h-124v68q0 32 23 55.5t56 23.5h125zM334 131q-17 0 -29 -11.5
t-12 -28.5v-30h86q17 0 29 12t12 29v29h-86zM153 638v-270h-80v190h-46v80h126zM1001 638v-125q0 -30 -11.5 -56.5t-31.5 -46t-46 -31t-56 -11.5h-225v125q0 30 11.5 56.5t31 46t46 31t56.5 11.5h225zM776 558q-27 0 -46.5 -19t-19.5 -46v-46h146q26 0 45.5 19.5t19.5 46.5
v45h-145zM577 638v-125q0 -30 -11.5 -56.5t-31.5 -46t-46 -31t-56 -11.5h-225v125q0 30 11.5 56.5t31.5 46t46 31t56 11.5h225zM352 558q-27 0 -46 -19t-19 -46v-46h145q26 0 45.5 19.5t19.5 46.5v45h-145z" />
    <glyph glyph-name="dieresis" unicode="&#xa8;" horiz-adv-x="287" 
d="M78 352l-65 41l57 91l65 -40zM218 352l-66 41l56 91l66 -40z" />
    <glyph glyph-name="copyright" unicode="&#xa9;" horiz-adv-x="729" 
d="M16 319q0 72 27 135.5t74 111t110 74.5t135 27t135.5 -27t111 -74.5t74.5 -111t27 -135.5t-27 -135t-74.5 -110t-111 -74t-135.5 -27t-135 27t-110 74t-74 110t-27 135zM42 319q0 -66 25 -124.5t68.5 -102t102 -68.5t124.5 -25t124.5 25t102 68.5t69 102t25.5 124.5
t-25.5 124.5t-69 102t-102 69t-124.5 25.5t-124.5 -25.5t-102 -69t-68.5 -102t-25 -124.5zM458 577q41 0 68 -18t27 -64q0 -30 -22 -66.5t-54.5 -73.5t-70.5 -72.5t-70 -63.5l-47 60q30 23 63 52.5t60.5 59t45.5 56.5t18 46q0 9 -21 9q-19 0 -41 -11t-41 -22
q-24 -15 -53.5 -42.5t-55.5 -61.5t-44 -71.5t-18 -72.5q0 -20 8.5 -34t29.5 -14h214l-25 -78h-189q-27 0 -48.5 10t-36.5 27t-23 40t-8 49q0 39 14.5 79.5t41.5 79.5q15 22 33.5 44.5t37.5 42.5t38 36t37 25q29 20 63 34.5t69 14.5z" />
    <glyph glyph-name="ordfeminine" unicode="&#xaa;" horiz-adv-x="177" 
d="M242 364h-65q-10 0 -18.5 3.5t-16.5 8.5q-15 -8 -30 -12.5t-32 -4.5q-13 0 -26 4t-24 12.5t-18 22.5t-7 34q0 42 23 70.5t56.5 46t72 25t68.5 7.5v-67q-45 0 -83 -13q-6 -2 -18 -7.5t-24 -13.5t-20.5 -20t-8.5 -28q0 -7 8 -7q15 0 25.5 6.5t18 17t12.5 23t9 25.5l63 -20
l-15 -47h72z" />
    <glyph glyph-name="guillemotleft" unicode="&#xab;" horiz-adv-x="350" 
d="M169 140l-159 158l159 159l50 -51l-108 -108l108 -108zM299 140l-159 158l159 159l50 -51l-108 -108l108 -108z" />
    <glyph glyph-name="logicalnot" unicode="&#xac;" horiz-adv-x="544" 
d="M438 245h-419v87h506v-231h-87v144z" />
    <glyph glyph-name="registered" unicode="&#xae;" horiz-adv-x="328" 
d="M11 515q0 31 12 59t32.5 48t48 32t59.5 12q31 0 59 -12t48 -32t32 -48t12 -59q0 -32 -12 -59.5t-32 -48t-48 -32.5t-59 -12q-32 0 -59.5 12t-48 32.5t-32.5 48t-12 59.5zM33 515q0 -27 10 -50.5t28 -41.5t41.5 -28t50.5 -10t50.5 10t41 28t27.5 41.5t10 50.5t-10 50.5
t-27.5 41t-41 27.5t-50.5 10t-50.5 -10t-41.5 -27.5t-28 -41t-10 -50.5zM253 534q-11 -17 -28 -28t-35 -17q5 -5 8 -10l6 -10h29l-8 -27h-39q-1 1 -1 3q-7 16 -15.5 26t-30.5 11l8 27q16 2 28.5 4.5t25.5 8.5q13 5 25 18.5t12 24.5l-2 4t-6 2h-7.5t-8.5 -2q-20 -7 -37 -21
t-32 -31.5t-28 -37l-25 -37.5h-29q8 13 17.5 30.5t18.5 35t15 33.5t7 28q0 4 -4 4h-27l8 26h16q13 0 23.5 -4.5t10.5 -21.5q0 -5 -1 -9.5t-2 -9.5q13 13 36.5 28.5t46.5 15.5q18 0 26.5 -10.5t8.5 -22.5q0 -8 -3 -16.5t-7 -14.5z" />
    <glyph glyph-name="macron" unicode="&#xaf;" horiz-adv-x="304" 
d="M270 406v-58h-234v58h234z" />
    <glyph glyph-name="degree" unicode="&#xb0;" horiz-adv-x="198" 
d="M14 483q0 35 25 60t60 25t60 -25t25 -60t-25 -60t-60 -25t-60 25t-25 60zM38 483q0 -25 18 -43t43 -18t43 18t18 43t-18 43t-43 18t-43 -18t-18 -43z" />
    <glyph glyph-name="plusminus" unicode="&#xb1;" horiz-adv-x="535" 
d="M516 87v-87h-497v87h497zM224 362v175h87v-175h205v-87h-205v-175h-87v175h-205v87h205z" />
    <glyph glyph-name="twosuperior" unicode="&#xb2;" horiz-adv-x="284" 
d="M267 548q-14 -42 -45 -71t-69 -56h105l-16 -50h-177q-8 0 -15.5 -3t-12.5 -8l-28 40q11 8 24.5 14t28.5 7q22 13 49 31t51.5 38.5t41.5 42.5t19 43q0 23 -12 32t-29 9q-32 0 -60 -20.5t-52 -41.5l-33 37q26 26 60.5 49t79.5 26q25 0 43 -7.5t29.5 -19.5t17 -27.5
t5.5 -31.5q0 -11 -1.5 -18t-3.5 -15z" />
    <glyph glyph-name="threesuperior" unicode="&#xb3;" horiz-adv-x="260" 
d="M269 600q0 -31 -16.5 -47t-38.5 -25q15 -13 24 -29t9 -35q0 -27 -13.5 -44.5t-33 -28.5t-41.5 -15.5t-38 -4.5q-28 0 -59.5 6t-53.5 14l18 46q24 -9 49.5 -12.5t48.5 -3.5q7 0 19.5 2t24.5 7t20.5 13.5t8.5 20.5q0 15 -17 25t-56 19v49h5q13 1 29 4.5t29 8.5t22 12.5
t9 17.5q0 9 -10.5 13t-24.5 4q-22 0 -41.5 -2t-42.5 -6l-8 49q20 2 41 5.5t41 3.5q16 0 33 -3.5t31 -11t23 -20.5t9 -32z" />
    <glyph glyph-name="acute" unicode="&#xb4;" horiz-adv-x="341" 
d="M85 350l-25 73l219 74l25 -73z" />
    <glyph glyph-name="paragraph" unicode="&#xb6;" horiz-adv-x="518" 
d="M499 663v-25h-35q-19 0 -32 -13t-13 -32v-730h-48v763h-78v-763h-45v398h-28q-42 0 -78.5 16t-63.5 43t-43 63.5t-16 78.5t16 78.5t43 63.5t63.5 43t78.5 16h279z" />
    <glyph glyph-name="periodcentered" unicode="&#xb7;" horiz-adv-x="210" 
d="M165 222q0 -26 -18 -43t-42 -17q-23 0 -41 17.5t-18 42.5q0 24 17.5 41.5t41.5 17.5q25 0 42.5 -16.5t17.5 -42.5z" />
    <glyph glyph-name="cedilla" unicode="&#xb8;" horiz-adv-x="287" 
d="M215 -142q-9 -19 -21.5 -30.5t-28 -17.5t-33.5 -8t-37 -2q-18 0 -36.5 1t-36.5 1l30 73h66q29 3 29 17q0 9 -6.5 16.5t-16.5 15t-22 14t-24 13.5q14 26 29 49t30 49l65 -40l-19 -34q20 -14 30 -35t10 -44q0 -20 -8 -38z" />
    <glyph glyph-name="onesuperior" unicode="&#xb9;" horiz-adv-x="120" 
d="M74 372h-52l96 295h52z" />
    <glyph glyph-name="ordmasculine" unicode="&#xba;" horiz-adv-x="149" 
d="M246 468h-32q-11 -39 -42 -67.5t-73 -28.5q-21 0 -39 7.5t-30.5 21t-20 31.5t-7.5 38q0 22 9 44t25 39.5t38 28t47 10.5q29 0 52 -15t35 -41h60zM142 469q-16 3 -29 16.5t-15 32.5q-10 -8 -18 -18.5t-10 -22.5q0 -16 6.5 -26.5t21.5 -10.5q14 0 25 8t19 21z" />
    <glyph glyph-name="guillemotright" unicode="&#xbb;" horiz-adv-x="347" 
d="M117 298l-108 108l50 51l159 -159l-159 -158l-50 50zM247 298l-108 108l50 51l159 -159l-159 -158l-50 50z" />
    <glyph glyph-name="onequarter" unicode="&#xbc;" horiz-adv-x="675" 
d="M594 155h36l-22 -67h-36l-28 -87h-71l30 87h-199l27 82l256 227h85zM414 155h110l44 138zM104 151h-70l129 396h69zM135 0h-88l433 540h91z" />
    <glyph glyph-name="onehalf" unicode="&#xbd;" horiz-adv-x="749" 
d="M715 239q-9 -28 -24.5 -51.5t-35 -44t-43.5 -39t-49 -36.5h140l-21 -67h-237q-11 0 -20.5 -4t-16.5 -10l-38 54q14 11 32.5 18.5t38.5 8.5q29 18 65.5 42t69 51.5t55.5 57t25 58.5q0 31 -15.5 42.5t-38.5 11.5q-21 0 -41.5 -8t-39 -20t-36 -26.5t-33.5 -27.5l-45 48
q17 18 37.5 35t44 31t50.5 23.5t57 11.5q33 0 57 -10t39.5 -26t22.5 -37t7 -42q0 -14 -2.5 -24t-4.5 -20zM104 151h-70l129 396h69zM135 0h-88l433 540h91z" />
    <glyph glyph-name="threequarters" unicode="&#xbe;" horiz-adv-x="827" 
d="M357 451q0 -41 -22 -63t-51 -34q20 -17 32 -38.5t12 -46.5q0 -36 -18 -60t-44 -38.5t-55.5 -20.5t-51.5 -6q-18 0 -38.5 2t-40.5 5.5t-38.5 8.5t-33.5 10l24 62q32 -12 66 -17t66 -5q9 0 25.5 3t32.5 9.5t28 18t12 28.5q0 20 -23 33t-76 25v66h7q18 1 39 5.5t39 11.5
t30 17t12 24q0 11 -15 17t-32 6q-30 0 -56.5 -3.5t-56.5 -8.5l-10 66q26 4 54 8t55 4q22 0 44.5 -4.5t41 -14.5t30.5 -27.5t12 -42.5zM734 155h36l-22 -67h-36l-28 -87h-71l30 87h-199l27 82l256 227h85zM554 155h110l44 138zM275 0h-88l433 540h91z" />
    <glyph glyph-name="questiondown" unicode="&#xbf;" horiz-adv-x="400" 
d="M11 -122q0 27 8.5 48t22 39t30 33.5t33.5 32.5q19 19 38.5 37t36 34.5t28.5 30.5t16 26l13 39h100q-7 -26 -13.5 -47.5t-16 -41.5t-23.5 -39t-36 -41q-55 -55 -82 -81t-38.5 -37.5t-12.5 -15.5t-4 -13q7 -3 27 -3q15 0 31 1t27 1t21.5 -0.5t21.5 -0.5q27 0 47 8t20 37
q-5 5 -7 13.5t-12 16.5l63 76q29 -26 42 -56t13 -66q-12 -46 -31.5 -71.5t-44.5 -38t-55 -15t-62 -2.5h-37q-27 0 -56 2t-53 11.5t-39.5 28.5t-15.5 54zM273 372h104l-32 -100h-105z" />
    <glyph glyph-name="Agrave" unicode="&#xc0;" 
d="M129 246q18 65 51.5 127.5t78 111.5t97.5 79t110 30q67 0 106.5 -37t39.5 -122q0 -77 -40 -201l-76 -231h-104l47 143h-224q0 2 1.5 -16.5t5.5 -49.5t12 -71t22 -80l-95 -29q-1 0 -8.5 23.5t-16 59.5t-15.5 79.5t-7 83.5h-114l32 100h97zM477 264q19 58 28 100t9 74
q0 34 -12 45.5t-36 11.5q-38 0 -75 -24.5t-69 -61.5t-56 -81t-35 -82h240zM469 623l-219 74l25 73l219 -74z" />
    <glyph glyph-name="Aacute" unicode="&#xc1;" 
d="M129 246q18 65 51.5 127.5t78 111.5t97.5 79t110 30q67 0 106.5 -37t39.5 -122q0 -77 -40 -201l-76 -231h-104l47 143h-224q0 2 1.5 -16.5t5.5 -49.5t12 -71t22 -80l-95 -29q-1 0 -8.5 23.5t-16 59.5t-15.5 79.5t-7 83.5h-114l32 100h97zM477 264q19 58 28 100t9 74
q0 34 -12 45.5t-36 11.5q-38 0 -75 -24.5t-69 -61.5t-56 -81t-35 -82h240zM396 620l-25 73l219 74l25 -73z" />
    <glyph glyph-name="Acircumflex" unicode="&#xc2;" 
d="M129 246q18 65 51.5 127.5t78 111.5t97.5 79t110 30q67 0 106.5 -37t39.5 -122q0 -77 -40 -201l-76 -231h-104l47 143h-224q0 2 1.5 -16.5t5.5 -49.5t12 -71t22 -80l-95 -29q-1 0 -8.5 23.5t-16 59.5t-15.5 79.5t-7 83.5h-114l32 100h97zM477 264q19 58 28 100t9 74
q0 34 -12 45.5t-36 11.5q-38 0 -75 -24.5t-69 -61.5t-56 -81t-35 -82h240zM592 621l-114 64l-115 -64l-38 67l153 85l152 -85z" />
    <glyph glyph-name="Atilde" unicode="&#xc3;" 
d="M129 246q18 65 51.5 127.5t78 111.5t97.5 79t110 30q67 0 106.5 -37t39.5 -122q0 -77 -40 -201l-76 -231h-104l47 143h-224q0 2 1.5 -16.5t5.5 -49.5t12 -71t22 -80l-95 -29q-1 0 -8.5 23.5t-16 59.5t-15.5 79.5t-7 83.5h-114l32 100h97zM477 264q19 58 28 100t9 74
q0 34 -12 45.5t-36 11.5q-38 0 -75 -24.5t-69 -61.5t-56 -81t-35 -82h240zM633 685q-17 -30 -47.5 -47t-64.5 -17q-14 0 -25.5 3.5t-21.5 7.5t-19 7.5t-19 3.5q-14 0 -25.5 -7t-19.5 -18l-67 38q18 31 47.5 47.5t64.5 16.5q13 0 24 -3.5t21.5 -7.5t20 -7.5t19.5 -3.5
q13 0 25 6t20 20l67 -39v0z" />
    <glyph glyph-name="Adieresis" unicode="&#xc4;" 
d="M129 246q18 65 51.5 127.5t78 111.5t97.5 79t110 30q67 0 106.5 -37t39.5 -122q0 -77 -40 -201l-76 -231h-104l47 143h-224q0 2 1.5 -16.5t5.5 -49.5t12 -71t22 -80l-95 -29q-1 0 -8.5 23.5t-16 59.5t-15.5 79.5t-7 83.5h-114l32 100h97zM477 264q19 58 28 100t9 74
q0 34 -12 45.5t-36 11.5q-38 0 -75 -24.5t-69 -61.5t-56 -81t-35 -82h240zM417 618l-65 41l57 91l65 -40zM557 618l-66 41l56 91l66 -40z" />
    <glyph glyph-name="Aring" unicode="&#xc5;" 
d="M129 246q18 65 51.5 127.5t78 111.5t97.5 79t110 30q67 0 106.5 -37t39.5 -122q0 -77 -40 -201l-76 -231h-104l47 143h-224q0 2 1.5 -16.5t5.5 -49.5t12 -71t22 -80l-95 -29q-1 0 -8.5 23.5t-16 59.5t-15.5 79.5t-7 83.5h-114l32 100h97zM477 264q19 58 28 100t9 74
q0 34 -12 45.5t-36 11.5q-38 0 -75 -24.5t-69 -61.5t-56 -81t-35 -82h240zM413 660q0 26 18 44t43 18t43.5 -18t18.5 -44q0 -25 -18.5 -43t-43.5 -18t-43 18t-18 43zM440 660q0 -14 10 -23.5t24 -9.5t24 9.5t10 23.5q0 15 -10 24.5t-24 9.5t-24 -9.5t-10 -24.5z" />
    <glyph glyph-name="AE" unicode="&#xc6;" horiz-adv-x="886" 
d="M814 617q28 0 54 -5t45.5 -17.5t31 -34.5t11.5 -55t-21 -63.5t-50.5 -57.5t-60.5 -49t-52 -36l-60 78l25 18q10 7 29.5 21.5t39.5 31t35 32t15 23.5q0 5 -4.5 8.5t-11.5 5.5t-14 2.5t-11 0.5q-16 0 -32 -4t-31 -9.5t-27.5 -11t-19.5 -8.5q3 1 -12 -7t-34 -21.5t-35 -31
t-16 -34.5q0 1 -0.5 0.5t-0.5 -2.5q0 -5 3 -6l73 -130q-44 -35 -97.5 -72.5t-106.5 -80.5h409l-32 -100h-378q-54 0 -82.5 26t-28.5 61q0 13 4 28t15 29h-172q0 -54 14.5 -109t27.5 -108l-95 -29q-8 13 -16 44.5t-14.5 68t-10.5 71t-5 52.5v10h-114l32 99h96q22 80 60 144.5
t84.5 109.5t96.5 69.5t96 24.5q45 0 75 -14.5t50 -46.5q46 38 105 61.5t118 23.5zM514 432q0 62 -48 62q-33 0 -68 -21t-66.5 -55.5t-57.5 -79.5t-42 -93h240q14 38 28 89t14 98z" />
    <glyph glyph-name="Ccedilla" unicode="&#xc7;" horiz-adv-x="490" 
d="M464 619q27 0 49 -5.5t38.5 -17.5t25.5 -32t9 -50q0 -39 -28 -85t-70 -93.5t-90.5 -93t-89.5 -82.5l-60 78q39 30 81 67t77 74.5t58 72t23 59.5q0 5 -6 8t-21 3q-24 0 -52.5 -14t-51.5 -28q-31 -19 -69 -54t-71.5 -78.5t-56.5 -91.5t-23 -93q0 -26 10.5 -43.5t38.5 -17.5
h274l-32 -99h-242q-35 0 -63 13t-47 34.5t-29 50.5t-10 62q0 51 18.5 102t53.5 102q20 28 43 57t48 54.5t49.5 45.5t47.5 32q36 25 79.5 44t88.5 19zM337 -142q-9 -19 -21.5 -30.5t-28 -17.5t-33.5 -8t-37 -2q-18 0 -36.5 1t-36.5 1l30 73h66q29 3 29 17q0 9 -6.5 16.5
t-16.5 15t-22 14t-24 13.5q14 26 29 49t30 49l65 -40l-19 -34q20 -14 30 -35t10 -44q0 -20 -8 -38z" />
    <glyph glyph-name="Egrave" unicode="&#xc8;" horiz-adv-x="549" 
d="M447 616q27 0 53 -6.5t45.5 -20t31.5 -34.5t12 -49q0 -32 -20.5 -63t-50 -58t-60.5 -49t-52 -37l-61 79l25 17q12 8 31.5 23t39 31.5t33.5 31.5t14 23q0 5 -5 8t-11.5 4.5t-13.5 2t-11 0.5q-27 0 -62.5 -12.5t-65.5 -29.5q-5 -3 -17.5 -11t-26 -19.5t-23.5 -25.5t-10 -28
q0 -5 1 -8l74 -130q-50 -41 -102 -78t-103 -75h417l-32 -99h-386q-54 0 -82.5 26t-28.5 61q0 27 16 50.5t42.5 46t60.5 45t70 48.5l-4 8q-8 8 -15.5 20t-13.5 26t-9.5 29t-4.5 28q0 45 29 85.5t73.5 71.5t98.5 49.5t104 18.5zM480 636l-219 74l25 73l219 -74z" />
    <glyph glyph-name="Eacute" unicode="&#xc9;" horiz-adv-x="549" 
d="M447 616q27 0 53 -6.5t45.5 -20t31.5 -34.5t12 -49q0 -32 -20.5 -63t-50 -58t-60.5 -49t-52 -37l-61 79l25 17q12 8 31.5 23t39 31.5t33.5 31.5t14 23q0 5 -5 8t-11.5 4.5t-13.5 2t-11 0.5q-27 0 -62.5 -12.5t-65.5 -29.5q-5 -3 -17.5 -11t-26 -19.5t-23.5 -25.5t-10 -28
q0 -5 1 -8l74 -130q-50 -41 -102 -78t-103 -75h417l-32 -99h-386q-54 0 -82.5 26t-28.5 61q0 27 16 50.5t42.5 46t60.5 45t70 48.5l-4 8q-8 8 -15.5 20t-13.5 26t-9.5 29t-4.5 28q0 45 29 85.5t73.5 71.5t98.5 49.5t104 18.5zM340 637l-25 73l219 74l25 -73z" />
    <glyph glyph-name="Ecircumflex" unicode="&#xca;" horiz-adv-x="549" 
d="M447 616q27 0 53 -6.5t45.5 -20t31.5 -34.5t12 -49q0 -32 -20.5 -63t-50 -58t-60.5 -49t-52 -37l-61 79l25 17q12 8 31.5 23t39 31.5t33.5 31.5t14 23q0 5 -5 8t-11.5 4.5t-13.5 2t-11 0.5q-27 0 -62.5 -12.5t-65.5 -29.5q-5 -3 -17.5 -11t-26 -19.5t-23.5 -25.5t-10 -28
q0 -5 1 -8l74 -130q-50 -41 -102 -78t-103 -75h417l-32 -99h-386q-54 0 -82.5 26t-28.5 61q0 27 16 50.5t42.5 46t60.5 45t70 48.5l-4 8q-8 8 -15.5 20t-13.5 26t-9.5 29t-4.5 28q0 45 29 85.5t73.5 71.5t98.5 49.5t104 18.5zM553 642l-114 64l-115 -64l-38 67l153 85
l152 -85z" />
    <glyph glyph-name="Edieresis" unicode="&#xcb;" horiz-adv-x="549" 
d="M447 616q27 0 53 -6.5t45.5 -20t31.5 -34.5t12 -49q0 -32 -20.5 -63t-50 -58t-60.5 -49t-52 -37l-61 79l25 17q12 8 31.5 23t39 31.5t33.5 31.5t14 23q0 5 -5 8t-11.5 4.5t-13.5 2t-11 0.5q-27 0 -62.5 -12.5t-65.5 -29.5q-5 -3 -17.5 -11t-26 -19.5t-23.5 -25.5t-10 -28
q0 -5 1 -8l74 -130q-50 -41 -102 -78t-103 -75h417l-32 -99h-386q-54 0 -82.5 26t-28.5 61q0 27 16 50.5t42.5 46t60.5 45t70 48.5l-4 8q-8 8 -15.5 20t-13.5 26t-9.5 29t-4.5 28q0 45 29 85.5t73.5 71.5t98.5 49.5t104 18.5zM336 636l-65 41l57 91l65 -40zM476 636l-66 41
l56 91l66 -40z" />
    <glyph glyph-name="Igrave" unicode="&#xcc;" horiz-adv-x="468" 
d="M535 470q-26 -82 -52 -162l-52 -160q-10 -30 -30 -56t-46 -46t-56.5 -31.5t-61.5 -11.5h-237l32 96h167q15 0 29 1t25 4q33 7 54 31t35 57t24.5 71.5t22.5 75.5q14 41 24.5 84.5t29.5 81.5q0 3 -2.5 4t-4.5 1q-31 0 -56.5 -14t-45.5 -26q-1 -1 -19.5 -13.5t-40 -32.5
t-39.5 -45t-18 -50q0 -18 4 -29t11.5 -21.5t17.5 -22t23 -30.5l-84 -54q-14 24 -27 43t-23 37t-15.5 36.5t-5.5 41.5q0 37 18 76q12 27 44 62t73.5 66.5t88.5 53.5t89 22q30 0 51 -9.5t34.5 -24.5t19.5 -33t6 -34q0 -11 -2 -20t-5 -19zM487 630l-219 74l25 73l219 -74z" />
    <glyph glyph-name="Iacute" unicode="&#xcd;" horiz-adv-x="468" 
d="M535 470q-26 -82 -52 -162l-52 -160q-10 -30 -30 -56t-46 -46t-56.5 -31.5t-61.5 -11.5h-237l32 96h167q15 0 29 1t25 4q33 7 54 31t35 57t24.5 71.5t22.5 75.5q14 41 24.5 84.5t29.5 81.5q0 3 -2.5 4t-4.5 1q-31 0 -56.5 -14t-45.5 -26q-1 -1 -19.5 -13.5t-40 -32.5
t-39.5 -45t-18 -50q0 -18 4 -29t11.5 -21.5t17.5 -22t23 -30.5l-84 -54q-14 24 -27 43t-23 37t-15.5 36.5t-5.5 41.5q0 37 18 76q12 27 44 62t73.5 66.5t88.5 53.5t89 22q30 0 51 -9.5t34.5 -24.5t19.5 -33t6 -34q0 -11 -2 -20t-5 -19zM313 639l-25 73l219 74l25 -73z" />
    <glyph glyph-name="Icircumflex" unicode="&#xce;" horiz-adv-x="468" 
d="M535 470q-26 -82 -52 -162l-52 -160q-10 -30 -30 -56t-46 -46t-56.5 -31.5t-61.5 -11.5h-237l32 96h167q15 0 29 1t25 4q33 7 54 31t35 57t24.5 71.5t22.5 75.5q14 41 24.5 84.5t29.5 81.5q0 3 -2.5 4t-4.5 1q-31 0 -56.5 -14t-45.5 -26q-1 -1 -19.5 -13.5t-40 -32.5
t-39.5 -45t-18 -50q0 -18 4 -29t11.5 -21.5t17.5 -22t23 -30.5l-84 -54q-14 24 -27 43t-23 37t-15.5 36.5t-5.5 41.5q0 37 18 76q12 27 44 62t73.5 66.5t88.5 53.5t89 22q30 0 51 -9.5t34.5 -24.5t19.5 -33t6 -34q0 -11 -2 -20t-5 -19zM514 643l-114 64l-115 -64l-38 67
l153 85l152 -85z" />
    <glyph glyph-name="Idieresis" unicode="&#xcf;" horiz-adv-x="468" 
d="M535 470q-26 -82 -52 -162l-52 -160q-10 -30 -30 -56t-46 -46t-56.5 -31.5t-61.5 -11.5h-237l32 96h167q15 0 29 1t25 4q33 7 54 31t35 57t24.5 71.5t22.5 75.5q14 41 24.5 84.5t29.5 81.5q0 3 -2.5 4t-4.5 1q-31 0 -56.5 -14t-45.5 -26q-1 -1 -19.5 -13.5t-40 -32.5
t-39.5 -45t-18 -50q0 -18 4 -29t11.5 -21.5t17.5 -22t23 -30.5l-84 -54q-14 24 -27 43t-23 37t-15.5 36.5t-5.5 41.5q0 37 18 76q12 27 44 62t73.5 66.5t88.5 53.5t89 22q30 0 51 -9.5t34.5 -24.5t19.5 -33t6 -34q0 -11 -2 -20t-5 -19zM324 643l-65 41l57 91l65 -40z
M464 643l-66 41l56 91l66 -40z" />
    <glyph glyph-name="Eth" unicode="&#xd0;" 
d="M297 211h-125l-34 -105q28 3 68 17.5t84 37.5t87 53.5t77 66.5t55.5 76.5t21.5 83.5q0 13 -3.5 24.5t-14.5 22.5t-30 16t-44 5q-33 0 -79.5 -8.5t-99 -24.5t-108 -38.5t-105.5 -50.5l-43 90q55 25 111 48.5t110.5 41.5t107.5 29t104 11q45 0 87 -14t71 -50
q17 -22 24.5 -45t7.5 -51q0 -61 -26.5 -118t-72 -106.5t-105.5 -90t-126.5 -69t-136 -44.5t-133.5 -16h-27l68 208h-91l32 99h91l26 79h104l-26 -79h126z" />
    <glyph glyph-name="Ntilde" unicode="&#xd1;" horiz-adv-x="623" 
d="M743 594q-12 -32 -29.5 -72t-34.5 -76q-48 -100 -99.5 -196.5t-119.5 -182.5q-6 -9 -16 -20t-23.5 -21t-28 -17t-29.5 -7q-21 0 -34.5 8.5t-21.5 22t-11 29t-3 30.5q0 48 7.5 105.5t15.5 117.5q-45 -83 -94.5 -164t-98.5 -148h-123q16 21 38.5 52t47.5 67t50.5 76
t46.5 79q42 77 86 156.5t82 160.5h101l-12 -98q-11 -83 -22.5 -175t-20.5 -174q36 48 69.5 104t63.5 114.5t56.5 117t47.5 111.5h109v0zM709 700q-17 -30 -47.5 -47t-64.5 -17q-14 0 -25.5 3.5t-21.5 7.5t-19 7.5t-19 3.5q-14 0 -25.5 -7t-19.5 -18l-67 38q18 31 47.5 47.5
t64.5 16.5q13 0 24 -3.5t21.5 -7.5t20 -7.5t19.5 -3.5q13 0 25 6t20 20l67 -39v0z" />
    <glyph glyph-name="Ograve" unicode="&#xd2;" horiz-adv-x="674" 
d="M752 330h-112q-2 -63 -30.5 -121.5t-74 -104.5t-104.5 -73.5t-122 -27.5q-55 0 -101 20t-79 54.5t-51 80t-18 96.5q0 64 27 125t73 109t106.5 77t127.5 29q39 0 75.5 -11.5t67.5 -33t54 -52t36 -68.5h157zM541 330q-20 0 -43 2t-43 10t-33.5 25t-13.5 46q0 17 3 39t21 40
q-11 2 -20 2.5t-18 0.5q-46 0 -88.5 -21t-75 -54.5t-52 -77t-19.5 -88.5q0 -32 10.5 -59.5t30 -48t47 -32.5t60.5 -12q44 0 85 19t73 51t52.5 73t23.5 85zM529 638l-219 74l25 73l219 -74z" />
    <glyph glyph-name="Oacute" unicode="&#xd3;" horiz-adv-x="674" 
d="M752 330h-112q-2 -63 -30.5 -121.5t-74 -104.5t-104.5 -73.5t-122 -27.5q-55 0 -101 20t-79 54.5t-51 80t-18 96.5q0 64 27 125t73 109t106.5 77t127.5 29q39 0 75.5 -11.5t67.5 -33t54 -52t36 -68.5h157zM541 330q-20 0 -43 2t-43 10t-33.5 25t-13.5 46q0 17 3 39t21 40
q-11 2 -20 2.5t-18 0.5q-46 0 -88.5 -21t-75 -54.5t-52 -77t-19.5 -88.5q0 -32 10.5 -59.5t30 -48t47 -32.5t60.5 -12q44 0 85 19t73 51t52.5 73t23.5 85zM379 638l-25 73l219 74l25 -73z" />
    <glyph glyph-name="Ocircumflex" unicode="&#xd4;" horiz-adv-x="674" 
d="M752 330h-112q-2 -63 -30.5 -121.5t-74 -104.5t-104.5 -73.5t-122 -27.5q-55 0 -101 20t-79 54.5t-51 80t-18 96.5q0 64 27 125t73 109t106.5 77t127.5 29q39 0 75.5 -11.5t67.5 -33t54 -52t36 -68.5h157zM541 330q-20 0 -43 2t-43 10t-33.5 25t-13.5 46q0 17 3 39t21 40
q-11 2 -20 2.5t-18 0.5q-46 0 -88.5 -21t-75 -54.5t-52 -77t-19.5 -88.5q0 -32 10.5 -59.5t30 -48t47 -32.5t60.5 -12q44 0 85 19t73 51t52.5 73t23.5 85zM555 624l-114 64l-115 -64l-38 67l153 85l152 -85z" />
    <glyph glyph-name="Otilde" unicode="&#xd5;" horiz-adv-x="674" 
d="M752 330h-112q-2 -63 -30.5 -121.5t-74 -104.5t-104.5 -73.5t-122 -27.5q-55 0 -101 20t-79 54.5t-51 80t-18 96.5q0 64 27 125t73 109t106.5 77t127.5 29q39 0 75.5 -11.5t67.5 -33t54 -52t36 -68.5h157zM541 330q-20 0 -43 2t-43 10t-33.5 25t-13.5 46q0 17 3 39t21 40
q-11 2 -20 2.5t-18 0.5q-46 0 -88.5 -21t-75 -54.5t-52 -77t-19.5 -88.5q0 -32 10.5 -59.5t30 -48t47 -32.5t60.5 -12q44 0 85 19t73 51t52.5 73t23.5 85zM580 698q-17 -30 -47.5 -47t-64.5 -17q-14 0 -25.5 3.5t-21.5 7.5t-19 7.5t-19 3.5q-14 0 -25.5 -7t-19.5 -18l-67 38
q18 31 47.5 47.5t64.5 16.5q13 0 24 -3.5t21.5 -7.5t20 -7.5t19.5 -3.5q13 0 25 6t20 20l67 -39v0z" />
    <glyph glyph-name="Odieresis" unicode="&#xd6;" horiz-adv-x="674" 
d="M752 330h-112q-2 -63 -30.5 -121.5t-74 -104.5t-104.5 -73.5t-122 -27.5q-55 0 -101 20t-79 54.5t-51 80t-18 96.5q0 64 27 125t73 109t106.5 77t127.5 29q39 0 75.5 -11.5t67.5 -33t54 -52t36 -68.5h157zM541 330q-20 0 -43 2t-43 10t-33.5 25t-13.5 46q0 17 3 39t21 40
q-11 2 -20 2.5t-18 0.5q-46 0 -88.5 -21t-75 -54.5t-52 -77t-19.5 -88.5q0 -32 10.5 -59.5t30 -48t47 -32.5t60.5 -12q44 0 85 19t73 51t52.5 73t23.5 85zM353 638l-65 41l57 91l65 -40zM493 638l-66 41l56 91l66 -40z" />
    <glyph glyph-name="multiply" unicode="&#xd7;" horiz-adv-x="487" 
d="M182 288l-163 163l61 62l163 -163l163 163l62 -62l-163 -163l163 -163l-62 -61l-163 163l-163 -163l-61 61z" />
    <glyph glyph-name="Oslash" unicode="&#xd8;" horiz-adv-x="621" 
d="M698 330h-112q-2 -63 -30.5 -122t-74.5 -104.5t-105 -73t-122 -27.5q-23 0 -49 4t-47 13l-70 -113h-57l85 135q-53 35 -82 91t-29 121q0 64 27 125t73 109t106.5 77t127.5 29q57 0 108 -24l54 85h56l-69 -109q29 -23 50.5 -51.5t33.5 -65.5h158zM464 330q-26 0 -49 5.5
t-41 28.5l-162 -257q10 -3 19.5 -4t20.5 -1q44 0 85.5 19t73.5 51t52.5 73t22.5 85h-22zM377 490q-7 2 -14 2.5t-14 2.5q-47 0 -91 -19.5t-78 -53t-54.5 -77t-20.5 -91.5q0 -42 17 -75t46 -53l191 304q0 5 2 14t4.5 18t5.5 17t6 11z" />
    <glyph glyph-name="Ugrave" unicode="&#xd9;" horiz-adv-x="556" 
d="M638 594q-13 -22 -37 -61.5t-40 -87.5q-30 -88 -57 -172.5t-54 -170.5h98l-29 -99h-83q-31 0 -54.5 20t-31.5 49q-33 -32 -70 -50.5t-82 -18.5q-39 0 -65.5 11t-42.5 30.5t-23 46t-7 57.5q0 30 5 59.5t14 59.5q10 33 24 70t26.5 70t21 58t8.5 33q0 9 -21.5 11.5
t-59.5 10.5l20 96q8 -2 17.5 -4t19.5 -2q36 -4 60 -14t38 -24t20 -31t6 -35q0 -26 -8.5 -53.5t-18.5 -54.5q-6 -14 -18.5 -46.5t-25 -70t-22 -74t-9.5 -57.5q0 -18 9 -33t32 -15q36 0 67.5 27t60 70t55 97t52.5 108q2 7 5.5 13.5t5.5 13.5q7 17 10.5 33.5t7.5 35.5
t10.5 41.5t18.5 52.5h147v0zM432 628l-219 74l25 73l219 -74z" />
    <glyph glyph-name="Uacute" unicode="&#xda;" horiz-adv-x="556" 
d="M638 594q-13 -22 -37 -61.5t-40 -87.5q-30 -88 -57 -172.5t-54 -170.5h98l-29 -99h-83q-31 0 -54.5 20t-31.5 49q-33 -32 -70 -50.5t-82 -18.5q-39 0 -65.5 11t-42.5 30.5t-23 46t-7 57.5q0 30 5 59.5t14 59.5q10 33 24 70t26.5 70t21 58t8.5 33q0 9 -21.5 11.5
t-59.5 10.5l20 96q8 -2 17.5 -4t19.5 -2q36 -4 60 -14t38 -24t20 -31t6 -35q0 -26 -8.5 -53.5t-18.5 -54.5q-6 -14 -18.5 -46.5t-25 -70t-22 -74t-9.5 -57.5q0 -18 9 -33t32 -15q36 0 67.5 27t60 70t55 97t52.5 108q2 7 5.5 13.5t5.5 13.5q7 17 10.5 33.5t7.5 35.5
t10.5 41.5t18.5 52.5h147v0zM315 619l-25 73l219 74l25 -73z" />
    <glyph glyph-name="Ucircumflex" unicode="&#xdb;" horiz-adv-x="556" 
d="M638 594q-13 -22 -37 -61.5t-40 -87.5q-30 -88 -57 -172.5t-54 -170.5h98l-29 -99h-83q-31 0 -54.5 20t-31.5 49q-33 -32 -70 -50.5t-82 -18.5q-39 0 -65.5 11t-42.5 30.5t-23 46t-7 57.5q0 30 5 59.5t14 59.5q10 33 24 70t26.5 70t21 58t8.5 33q0 9 -21.5 11.5
t-59.5 10.5l20 96q8 -2 17.5 -4t19.5 -2q36 -4 60 -14t38 -24t20 -31t6 -35q0 -26 -8.5 -53.5t-18.5 -54.5q-6 -14 -18.5 -46.5t-25 -70t-22 -74t-9.5 -57.5q0 -18 9 -33t32 -15q36 0 67.5 27t60 70t55 97t52.5 108q2 7 5.5 13.5t5.5 13.5q7 17 10.5 33.5t7.5 35.5
t10.5 41.5t18.5 52.5h147v0zM490 626l-114 64l-115 -64l-38 67l153 85l152 -85z" />
    <glyph glyph-name="Udieresis" unicode="&#xdc;" horiz-adv-x="556" 
d="M638 594q-13 -22 -37 -61.5t-40 -87.5q-30 -88 -57 -172.5t-54 -170.5h98l-29 -99h-83q-31 0 -54.5 20t-31.5 49q-33 -32 -70 -50.5t-82 -18.5q-39 0 -65.5 11t-42.5 30.5t-23 46t-7 57.5q0 30 5 59.5t14 59.5q10 33 24 70t26.5 70t21 58t8.5 33q0 9 -21.5 11.5
t-59.5 10.5l20 96q8 -2 17.5 -4t19.5 -2q36 -4 60 -14t38 -24t20 -31t6 -35q0 -26 -8.5 -53.5t-18.5 -54.5q-6 -14 -18.5 -46.5t-25 -70t-22 -74t-9.5 -57.5q0 -18 9 -33t32 -15q36 0 67.5 27t60 70t55 97t52.5 108q2 7 5.5 13.5t5.5 13.5q7 17 10.5 33.5t7.5 35.5
t10.5 41.5t18.5 52.5h147v0zM311 628l-65 41l57 91l65 -40zM451 628l-66 41l56 91l66 -40z" />
    <glyph glyph-name="Yacute" unicode="&#xdd;" horiz-adv-x="528" 
d="M641 594q-28 -54 -54 -106t-51 -106q-9 -19 -14.5 -30.5t-12 -28.5t-15.5 -45.5t-24 -80.5q-20 -68 -43.5 -138.5t-49.5 -135t-53.5 -119t-55.5 -88.5l-74 64q9 10 24 35t32.5 60t35 77.5t29.5 87.5q-52 -37 -113 -37q-36 0 -59.5 11.5t-37.5 30.5t-19.5 44.5t-5.5 53.5
t5 61t12.5 64.5t15.5 60t15 48.5l5 12.5t10.5 31t10.5 40t5 41.5q0 4 -4.5 5t-18.5 1q-9 0 -21 -0.5t-26 -1.5l-5 99q12 1 23 1.5t22 0.5q62 0 95 -26.5t33 -83.5q0 -29 -8.5 -63t-19.5 -65l-8 -23t-17.5 -56.5t-17 -72.5t-7.5 -71q0 -20 5 -32t18 -12q31 0 59.5 20.5
t54.5 54.5t49.5 78t44.5 91q11 25 19 56.5t15 65t14 66.5t18 60h165v0zM333 613l-25 73l219 74l25 -73z" />
    <glyph glyph-name="Thorn" unicode="&#xde;" horiz-adv-x="530" 
d="M579 391q0 -75 -26.5 -144.5t-71.5 -125.5q-19 -23 -41 -37t-46.5 -21.5t-52 -10t-56.5 -2.5q-23 0 -46.5 0.5t-47.5 0.5l50 98h91q30 0 57.5 23.5t47.5 58.5t32 76t12 76q0 18 -3.5 29.5t-11.5 11.5q-13 0 -26 -7t-26 -18q-67 -55 -126 -119t-98 -141l-96 -189h-116
l217 420q24 48 24 75q0 18 -5 28t-19 15t-38 6t-63 1l32 98h60q39 0 64.5 -12t40.5 -32.5t20.5 -47.5t5.5 -57q34 31 73 54.5t82 23.5q31 0 52 -12t33 -31t17 -42.5t5 -45.5z" />
    <glyph glyph-name="germandbls" unicode="&#xdf;" horiz-adv-x="520" 
d="M500 2h-323l33 100h67q26 0 45 13.5t19 43.5q0 32 -18.5 56.5t-41.5 44.5l-60 60l69 48q7 4 20.5 13.5t26.5 23t23 29.5t10 34q0 26 -29 26q-17 0 -32.5 -7t-29 -17.5t-23 -23.5t-13.5 -26l-156 -479h-104l93 285h-64l32 99h64q8 31 22.5 76.5t40.5 88.5t66 73.5t99 30.5
q31 0 56 -10t42 -27t26 -40t9 -49q0 -50 -28.5 -91.5t-67.5 -67.5q28 -28 46 -66t21 -76q0 -34 -10 -65h102z" />
    <glyph glyph-name="agrave" unicode="&#xe0;" horiz-adv-x="405" 
d="M373 2h-97q-17 0 -29.5 5t-23.5 13q-22 -14 -45.5 -19.5t-45.5 -5.5t-42.5 7.5t-36.5 21.5t-25.5 34.5t-9.5 46.5q0 27 10 51q21 48 56 80.5t78 52t90.5 28t94.5 8.5v-99q-6 1 -11.5 1h-11.5q-57 0 -107.5 -18t-82.5 -58q-12 -15 -14.5 -24.5t-2.5 -18.5q0 -5 4 -10.5
t10 -5.5q22 0 38 10.5t27 26t18 35t12 37.5l94 -31l-22 -69h107zM318 350l-219 74l25 73l219 -74z" />
    <glyph glyph-name="aacute" unicode="&#xe1;" horiz-adv-x="405" 
d="M373 2h-97q-17 0 -29.5 5t-23.5 13q-22 -14 -45.5 -19.5t-45.5 -5.5t-42.5 7.5t-36.5 21.5t-25.5 34.5t-9.5 46.5q0 27 10 51q21 48 56 80.5t78 52t90.5 28t94.5 8.5v-99q-6 1 -11.5 1h-11.5q-57 0 -107.5 -18t-82.5 -58q-12 -15 -14.5 -24.5t-2.5 -18.5q0 -5 4 -10.5
t10 -5.5q22 0 38 10.5t27 26t18 35t12 37.5l94 -31l-22 -69h107zM170 350l-25 73l219 74l25 -73z" />
    <glyph glyph-name="acircumflex" unicode="&#xe2;" horiz-adv-x="405" 
d="M373 2h-97q-17 0 -29.5 5t-23.5 13q-22 -14 -45.5 -19.5t-45.5 -5.5t-42.5 7.5t-36.5 21.5t-25.5 34.5t-9.5 46.5q0 27 10 51q21 48 56 80.5t78 52t90.5 28t94.5 8.5v-99q-6 1 -11.5 1h-11.5q-57 0 -107.5 -18t-82.5 -58q-12 -15 -14.5 -24.5t-2.5 -18.5q0 -5 4 -10.5
t10 -5.5q22 0 38 10.5t27 26t18 35t12 37.5l94 -31l-22 -69h107zM321 353l-114 64l-115 -64l-38 67l153 85l152 -85z" />
    <glyph glyph-name="atilde" unicode="&#xe3;" horiz-adv-x="405" 
d="M373 2h-97q-17 0 -29.5 5t-23.5 13q-22 -14 -45.5 -19.5t-45.5 -5.5t-42.5 7.5t-36.5 21.5t-25.5 34.5t-9.5 46.5q0 27 10 51q21 48 56 80.5t78 52t90.5 28t94.5 8.5v-99q-6 1 -11.5 1h-11.5q-57 0 -107.5 -18t-82.5 -58q-12 -15 -14.5 -24.5t-2.5 -18.5q0 -5 4 -10.5
t10 -5.5q22 0 38 10.5t27 26t18 35t12 37.5l94 -31l-22 -69h107zM369 419q-17 -30 -47.5 -47t-64.5 -17q-14 0 -25.5 3.5t-21.5 7.5t-19 7.5t-19 3.5q-14 0 -25.5 -7t-19.5 -18l-67 38q18 31 47.5 47.5t64.5 16.5q13 0 24 -3.5t21.5 -7.5t20 -7.5t19.5 -3.5q13 0 25 6t20 20
l67 -39v0z" />
    <glyph glyph-name="adieresis" unicode="&#xe4;" horiz-adv-x="405" 
d="M373 2h-97q-17 0 -29.5 5t-23.5 13q-22 -14 -45.5 -19.5t-45.5 -5.5t-42.5 7.5t-36.5 21.5t-25.5 34.5t-9.5 46.5q0 27 10 51q21 48 56 80.5t78 52t90.5 28t94.5 8.5v-99q-6 1 -11.5 1h-11.5q-57 0 -107.5 -18t-82.5 -58q-12 -15 -14.5 -24.5t-2.5 -18.5q0 -5 4 -10.5
t10 -5.5q22 0 38 10.5t27 26t18 35t12 37.5l94 -31l-22 -69h107zM170 352l-65 41l57 91l65 -40zM310 352l-66 41l56 91l66 -40z" />
    <glyph glyph-name="aring" unicode="&#xe5;" horiz-adv-x="405" 
d="M373 2h-97q-17 0 -29.5 5t-23.5 13q-22 -14 -45.5 -19.5t-45.5 -5.5t-42.5 7.5t-36.5 21.5t-25.5 34.5t-9.5 46.5q0 27 10 51q21 48 56 80.5t78 52t90.5 28t94.5 8.5v-99q-6 1 -11.5 1h-11.5q-57 0 -107.5 -18t-82.5 -58q-12 -15 -14.5 -24.5t-2.5 -18.5q0 -5 4 -10.5
t10 -5.5q22 0 38 10.5t27 26t18 35t12 37.5l94 -31l-22 -69h107zM219 391q0 26 18 44t43 18t43.5 -18t18.5 -44q0 -25 -18.5 -43t-43.5 -18t-43 18t-18 43zM246 391q0 -14 10 -23.5t24 -9.5t24 9.5t10 23.5q0 15 -10 24.5t-24 9.5t-24 -9.5t-10 -24.5z" />
    <glyph glyph-name="ae" unicode="&#xe6;" horiz-adv-x="611" 
d="M583 3h-319q-17 0 -29.5 5t-23.5 13q-22 -14 -45.5 -19.5t-45.5 -5.5q-23 0 -43 7.5t-36 21.5t-25 34.5t-9 46.5q0 25 10 51q18 48 53 80.5t79 52t92.5 28t93.5 8.5v-71q38 50 74.5 69t72.5 19q22 0 43 -5t37.5 -15.5t26.5 -27t10 -40.5q0 -13 -5 -30t-17 -36.5
t-33.5 -41t-54.5 -45.5h127zM316 226q-54 -3 -105.5 -19.5t-89.5 -62.5q-4 -5 -8 -11q-7 -12 -7 -26q0 -5 3.5 -9t9.5 -4q22 0 38 10t27 25.5t18 35t12 37.5l79 -26zM496 245q-18 -1 -35 -6.5t-31 -18.5q-5 -5 -11.5 -13.5t-12.5 -17.5t-10 -18t-4 -15q46 28 71 50.5
t33 38.5z" />
    <glyph glyph-name="ccedilla" unicode="&#xe7;" horiz-adv-x="360" 
d="M327 2h-222q-44 0 -72 27.5t-28 72.5q0 39 20 80.5t51.5 76t71.5 56.5t80 22h10q19 0 35.5 -7.5t28.5 -19.5t19 -28.5t7 -34.5q0 -3 -0.5 -6.5t-0.5 -6.5l-5 -44h-100l5 48q-18 -6 -40 -18.5t-40.5 -30t-31 -39.5t-12.5 -46q0 -3 2 -3h255zM218 -142q-9 -19 -21.5 -30.5
t-28 -17.5t-33.5 -8t-37 -2q-18 0 -36.5 1t-36.5 1l30 73h66q29 3 29 17q0 9 -6.5 16.5t-16.5 15t-22 14t-24 13.5q14 26 29 49t30 49l65 -40l-19 -34q20 -14 30 -35t10 -44q0 -20 -8 -38z" />
    <glyph glyph-name="egrave" unicode="&#xe8;" horiz-adv-x="362" 
d="M329 2h-218q-43 0 -71 26t-28 71q0 13 2.5 26.5t7.5 28.5q17 54 45.5 89.5t59 57t58 30t42.5 8.5q21 0 40.5 -4.5t34.5 -15t23.5 -27t8.5 -40.5q0 -29 -23.5 -68t-86.5 -83h138zM231 242q-35 -1 -63 -28q-11 -10 -26.5 -28t-23.5 -48q22 13 41 28t33.5 29t24 26.5
t14.5 20.5zM278 350l-219 74l25 73l219 -74z" />
    <glyph glyph-name="eacute" unicode="&#xe9;" horiz-adv-x="362" 
d="M329 2h-218q-43 0 -71 26t-28 71q0 13 2.5 26.5t7.5 28.5q17 54 45.5 89.5t59 57t58 30t42.5 8.5q21 0 40.5 -4.5t34.5 -15t23.5 -27t8.5 -40.5q0 -29 -23.5 -68t-86.5 -83h138zM231 242q-35 -1 -63 -28q-11 -10 -26.5 -28t-23.5 -48q22 13 41 28t33.5 29t24 26.5
t14.5 20.5zM126 350l-25 73l219 74l25 -73z" />
    <glyph glyph-name="ecircumflex" unicode="&#xea;" horiz-adv-x="362" 
d="M329 2h-218q-43 0 -71 26t-28 71q0 13 2.5 26.5t7.5 28.5q17 54 45.5 89.5t59 57t58 30t42.5 8.5q21 0 40.5 -4.5t34.5 -15t23.5 -27t8.5 -40.5q0 -29 -23.5 -68t-86.5 -83h138zM231 242q-35 -1 -63 -28q-11 -10 -26.5 -28t-23.5 -48q22 13 41 28t33.5 29t24 26.5
t14.5 20.5zM323 353l-114 64l-115 -64l-38 67l153 85l152 -85z" />
    <glyph glyph-name="edieresis" unicode="&#xeb;" horiz-adv-x="362" 
d="M329 2h-218q-43 0 -71 26t-28 71q0 13 2.5 26.5t7.5 28.5q17 54 45.5 89.5t59 57t58 30t42.5 8.5q21 0 40.5 -4.5t34.5 -15t23.5 -27t8.5 -40.5q0 -29 -23.5 -68t-86.5 -83h138zM231 242q-35 -1 -63 -28q-11 -10 -26.5 -28t-23.5 -48q22 13 41 28t33.5 29t24 26.5
t14.5 20.5zM154 352l-65 41l57 91l65 -40zM294 352l-66 41l56 91l66 -40z" />
    <glyph glyph-name="igrave" unicode="&#xec;" horiz-adv-x="198" 
d="M176 2h-90q-37 0 -60 24.5t-23 57.5q0 6 1.5 14.5t3.5 14.5l68 213h105l-72 -225h99zM197 350l-219 74l25 73l219 -74z" />
    <glyph glyph-name="iacute" unicode="&#xed;" horiz-adv-x="198" 
d="M176 2h-90q-37 0 -60 24.5t-23 57.5q0 6 1.5 14.5t3.5 14.5l68 213h105l-72 -225h99zM68 350l-25 73l219 74l25 -73z" />
    <glyph glyph-name="icircumflex" unicode="&#xee;" horiz-adv-x="198" 
d="M176 2h-90q-37 0 -60 24.5t-23 57.5q0 6 1.5 14.5t3.5 14.5l68 213h105l-72 -225h99zM262 353l-114 64l-115 -64l-38 67l153 85l152 -85z" />
    <glyph glyph-name="idieresis" unicode="&#xef;" horiz-adv-x="198" 
d="M176 2h-90q-37 0 -60 24.5t-23 57.5q0 6 1.5 14.5t3.5 14.5l68 213h105l-72 -225h99zM75 352l-65 41l57 91l65 -40zM215 352l-66 41l56 91l66 -40z" />
    <glyph glyph-name="eth" unicode="&#xf0;" horiz-adv-x="465" 
d="M440 465q5 -18 6.5 -34.5t1.5 -34.5q0 -70 -22.5 -143t-51.5 -151h100l-32 -100h-90q-24 0 -43 12t-30 32q-32 -20 -67 -32t-77 -12q-62 0 -97 31.5t-35 80.5q0 55 29.5 94.5t74 65.5t97 38.5t97.5 12.5h19.5t20.5 -2q5 17 8.5 38t3.5 48q0 7 -1 11l-94 -48l-35 68l95 49
q-7 5 -14 6t-15 1q-21 0 -40 -9t-28 -16l-62 78q29 21 55.5 30t60.5 16q39 0 73.5 -12t60.5 -47l58 29l35 -67zM307 226h-16.5t-17.5 -1q-17 -2 -46 -9t-56.5 -20t-47.5 -32.5t-20 -46.5q0 -16 32 -16q29 0 55 10.5t48 28t39.5 40t29.5 46.5z" />
    <glyph glyph-name="ntilde" unicode="&#xf1;" horiz-adv-x="406" 
d="M373 2h-69q-37 0 -60 24t-23 58q0 5 2 15l35 123q-18 -7 -36.5 -18t-35.5 -29t-32.5 -43.5t-27.5 -61.5l-22 -68h-104l105 324h104l-7 -21q14 8 34 14t36 6q45 0 65.5 -25.5t20.5 -70.5q0 -13 -2.5 -26t-7.5 -29l-22 -73h80zM393 419q-17 -30 -47.5 -47t-64.5 -17
q-14 0 -25.5 3.5t-21.5 7.5t-19 7.5t-19 3.5q-14 0 -25.5 -7t-19.5 -18l-67 38q18 31 47.5 47.5t64.5 16.5q13 0 24 -3.5t21.5 -7.5t20 -7.5t19.5 -3.5q13 0 25 6t20 20l67 -39v0z" />
    <glyph glyph-name="ograve" unicode="&#xf2;" horiz-adv-x="397" 
d="M380 146h-48q-7 -29 -23 -55.5t-39 -46t-51.5 -31t-58.5 -11.5q-32 0 -58 12t-45.5 32t-30 47t-10.5 57q0 35 14 67.5t38 58t56 41t69 15.5q44 0 78.5 -23t51.5 -61h90zM225 148q-26 5 -44.5 25.5t-21.5 47.5q-17 -11 -29.5 -30t-12.5 -38t11 -34t32 -15q20 0 37 12.5
t28 31.5zM295 350l-219 74l25 73l219 -74z" />
    <glyph glyph-name="oacute" unicode="&#xf3;" horiz-adv-x="397" 
d="M380 146h-48q-7 -29 -23 -55.5t-39 -46t-51.5 -31t-58.5 -11.5q-32 0 -58 12t-45.5 32t-30 47t-10.5 57q0 35 14 67.5t38 58t56 41t69 15.5q44 0 78.5 -23t51.5 -61h90zM225 148q-26 5 -44.5 25.5t-21.5 47.5q-17 -11 -29.5 -30t-12.5 -38t11 -34t32 -15q20 0 37 12.5
t28 31.5zM149 350l-25 73l219 74l25 -73z" />
    <glyph glyph-name="ocircumflex" unicode="&#xf4;" horiz-adv-x="397" 
d="M380 146h-48q-7 -29 -23 -55.5t-39 -46t-51.5 -31t-58.5 -11.5q-32 0 -58 12t-45.5 32t-30 47t-10.5 57q0 35 14 67.5t38 58t56 41t69 15.5q44 0 78.5 -23t51.5 -61h90zM225 148q-26 5 -44.5 25.5t-21.5 47.5q-17 -11 -29.5 -30t-12.5 -38t11 -34t32 -15q20 0 37 12.5
t28 31.5zM327 353l-114 64l-115 -64l-38 67l153 85l152 -85z" />
    <glyph glyph-name="otilde" unicode="&#xf5;" horiz-adv-x="397" 
d="M380 146h-48q-7 -29 -23 -55.5t-39 -46t-51.5 -31t-58.5 -11.5q-32 0 -58 12t-45.5 32t-30 47t-10.5 57q0 35 14 67.5t38 58t56 41t69 15.5q44 0 78.5 -23t51.5 -61h90zM225 148q-26 5 -44.5 25.5t-21.5 47.5q-17 -11 -29.5 -30t-12.5 -38t11 -34t32 -15q20 0 37 12.5
t28 31.5zM349 419q-17 -30 -47.5 -47t-64.5 -17q-14 0 -25.5 3.5t-21.5 7.5t-19 7.5t-19 3.5q-14 0 -25.5 -7t-19.5 -18l-67 38q18 31 47.5 47.5t64.5 16.5q13 0 24 -3.5t21.5 -7.5t20 -7.5t19.5 -3.5q13 0 25 6t20 20l67 -39v0z" />
    <glyph glyph-name="odieresis" unicode="&#xf6;" horiz-adv-x="397" 
d="M380 146h-48q-7 -29 -23 -55.5t-39 -46t-51.5 -31t-58.5 -11.5q-32 0 -58 12t-45.5 32t-30 47t-10.5 57q0 35 14 67.5t38 58t56 41t69 15.5q44 0 78.5 -23t51.5 -61h90zM225 148q-26 5 -44.5 25.5t-21.5 47.5q-17 -11 -29.5 -30t-12.5 -38t11 -34t32 -15q20 0 37 12.5
t28 31.5zM151 352l-65 41l57 91l65 -40zM291 352l-66 41l56 91l66 -40z" />
    <glyph glyph-name="divide" unicode="&#xf7;" horiz-adv-x="535" 
d="M516 332v-87h-497v87h497zM268 481q24 0 40.5 -17t16.5 -41t-16.5 -41t-40.5 -17t-41.5 17t-17.5 41t17.5 41t41.5 17zM268 212q24 0 40.5 -17t16.5 -41t-16.5 -41t-40.5 -17t-41.5 17t-17.5 41t17.5 41t41.5 17z" />
    <glyph glyph-name="oslash" unicode="&#xf8;" horiz-adv-x="344" 
d="M367 146h-49q-7 -29 -23 -55.5t-39 -46t-51.5 -31t-58.5 -11.5q-13 0 -23.5 2t-21.5 6l-45 -71h-56l58 93q-26 20 -41 51.5t-15 66.5t14 67.5t38.5 58t56.5 41t68 15.5q31 0 60 -12l44 70h56l-61 -97q10 -11 18 -21t13 -24h90zM192 155l-32 -50q16 5 30 16.5t22 26.5z
M156 188q-5 8 -6.5 16t-3.5 17q-17 -11 -29.5 -30t-12.5 -37q0 -6 1.5 -17t7.5 -17z" />
    <glyph glyph-name="ugrave" unicode="&#xf9;" horiz-adv-x="358" 
d="M325 2q-35 0 -60 5t-49 25q-20 -14 -43.5 -22t-47.5 -8t-44 8.5t-34.5 23t-22.5 33.5t-8 40q0 13 1.5 22t3.5 23l56 174h104l-66 -205q0 -2 -0.5 -3t-0.5 -3q0 -8 2 -11t10 -3q2 0 10.5 1.5t18.5 6.5t19.5 15.5t15.5 27.5l57 174h103l-65 -205q0 -2 -0.5 -3t-0.5 -3
q0 -14 15 -14h59zM276 350l-219 74l25 73l219 -74z" />
    <glyph glyph-name="uacute" unicode="&#xfa;" horiz-adv-x="358" 
d="M325 2q-35 0 -60 5t-49 25q-20 -14 -43.5 -22t-47.5 -8t-44 8.5t-34.5 23t-22.5 33.5t-8 40q0 13 1.5 22t3.5 23l56 174h104l-66 -205q0 -2 -0.5 -3t-0.5 -3q0 -8 2 -11t10 -3q2 0 10.5 1.5t18.5 6.5t19.5 15.5t15.5 27.5l57 174h103l-65 -205q0 -2 -0.5 -3t-0.5 -3
q0 -14 15 -14h59zM133 350l-25 73l219 74l25 -73z" />
    <glyph glyph-name="ucircumflex" unicode="&#xfb;" horiz-adv-x="358" 
d="M325 2q-35 0 -60 5t-49 25q-20 -14 -43.5 -22t-47.5 -8t-44 8.5t-34.5 23t-22.5 33.5t-8 40q0 13 1.5 22t3.5 23l56 174h104l-66 -205q0 -2 -0.5 -3t-0.5 -3q0 -8 2 -11t10 -3q2 0 10.5 1.5t18.5 6.5t19.5 15.5t15.5 27.5l57 174h103l-65 -205q0 -2 -0.5 -3t-0.5 -3
q0 -14 15 -14h59zM329 353l-114 64l-115 -64l-38 67l153 85l152 -85z" />
    <glyph glyph-name="udieresis" unicode="&#xfc;" horiz-adv-x="358" 
d="M325 2q-35 0 -60 5t-49 25q-20 -14 -43.5 -22t-47.5 -8t-44 8.5t-34.5 23t-22.5 33.5t-8 40q0 13 1.5 22t3.5 23l56 174h104l-66 -205q0 -2 -0.5 -3t-0.5 -3q0 -8 2 -11t10 -3q2 0 10.5 1.5t18.5 6.5t19.5 15.5t15.5 27.5l57 174h103l-65 -205q0 -2 -0.5 -3t-0.5 -3
q0 -14 15 -14h59zM157 352l-65 41l57 91l65 -40zM297 352l-66 41l56 91l66 -40z" />
    <glyph glyph-name="yacute" unicode="&#xfd;" horiz-adv-x="336" 
d="M380 326q-2 -4 -10.5 -24t-21.5 -47.5t-28.5 -58t-30.5 -55.5q0 -64 -9.5 -133.5t-36 -131.5t-73.5 -109t-122 -66l-24 95q38 10 66 32.5t46.5 53t30 66.5t16.5 73q-30 -18 -63 -18q-24 0 -44 9t-34.5 24t-22 35t-7.5 41q0 11 2 21t5 20q13 44 27.5 86.5t28.5 86.5h104
l-66 -204q0 -1 -1 -4.5t-1 -7.5q0 -8 9 -8q12 0 31.5 19t40.5 50.5t42 71.5t37 83h109v0zM143 350l-25 73l219 74l25 -73z" />
    <glyph glyph-name="thorn" unicode="&#xfe;" horiz-adv-x="464" 
d="M443 2h-281l32 100h41q16 0 34.5 8t34.5 21t26.5 30.5t10.5 36.5q0 15 -10 21.5t-24 6.5q-21 0 -50 -20t-58.5 -54t-55.5 -78t-42 -93l-55 -170h-104l65 201q11 34 22 67.5t22 67.5q10 30 21 61.5t20 62.5t15.5 61t8.5 58q0 28 -3 52.5t-8 54.5l97 21q6 -27 8.5 -50
t4.5 -46q0 -35 -3.5 -67t-12.5 -69q25 16 52.5 27.5t58.5 11.5q30 0 54 -10.5t41 -27.5t26 -40.5t9 -48.5q0 -26 -8 -51t-22 -45h65z" />
    <glyph glyph-name="ydieresis" unicode="&#xff;" horiz-adv-x="336" 
d="M380 326q-2 -4 -10.5 -24t-21.5 -47.5t-28.5 -58t-30.5 -55.5q0 -64 -9.5 -133.5t-36 -131.5t-73.5 -109t-122 -66l-24 95q38 10 66 32.5t46.5 53t30 66.5t16.5 73q-30 -18 -63 -18q-24 0 -44 9t-34.5 24t-22 35t-7.5 41q0 11 2 21t5 20q13 44 27.5 86.5t28.5 86.5h104
l-66 -204q0 -1 -1 -4.5t-1 -7.5q0 -8 9 -8q12 0 31.5 19t40.5 50.5t42 71.5t37 83h109v0zM170 352l-65 41l57 91l65 -40zM310 352l-66 41l56 91l66 -40z" />
    <glyph glyph-name="dotlessi" unicode="&#x131;" horiz-adv-x="198" 
d="M176 2h-90q-37 0 -60 24.5t-23 57.5q0 6 1.5 14.5t3.5 14.5l68 213h105l-72 -225h99z" />
    <glyph glyph-name="OE" unicode="&#x152;" horiz-adv-x="863" 
d="M920 539q4 -11 5 -18.5t1 -15.5q0 -33 -21 -63.5t-50.5 -57.5t-60.5 -49t-52 -36l-59 78l25 18q12 9 32 24.5t39 31.5t33 30.5t14 22.5q0 5 -5 8t-11.5 5t-13.5 2.5t-11 0.5q-22 0 -45 -7.5t-43 -14.5q-36 -18 -59 -32t-35.5 -26t-17.5 -23t-5 -22q0 -27 23 -60t51 -80
q-49 -40 -101 -77.5t-103 -75.5h413l-33 -100h-317q-46 0 -85 4t-61 21q-57 -24 -120 -24q-56 0 -101.5 21.5t-77.5 56.5t-49 79.5t-17 91.5q0 59 25.5 120t69.5 110t103.5 80t127.5 31q57 0 109 -20t92 -71q23 25 53 46t63.5 36.5t69 24t69.5 8.5q53 0 88 -21.5t48 -56.5z
M243 102q42 0 84.5 19.5t77.5 53t57 77t22 91.5q0 40 -13.5 68.5t-34.5 47t-46.5 27t-50.5 8.5q-37 0 -78.5 -17.5t-77 -49.5t-59 -76.5t-23.5 -99.5q2 -36 14.5 -63.5t32 -46.5t44.5 -29t51 -10z" />
    <glyph glyph-name="oe" unicode="&#x153;" horiz-adv-x="542" 
d="M520 2h-207q-19 0 -38.5 6.5t-33.5 20.5q-20 -14 -43.5 -20.5t-46.5 -6.5q-32 0 -59.5 12t-47 33t-30.5 48.5t-11 57.5q0 35 14.5 68.5t39 59.5t57.5 42t70 16q35 0 64.5 -14.5t49.5 -40.5q10 9 23.5 19t29.5 19t33.5 14.5t35.5 5.5q21 0 41.5 -4.5t37 -15t26.5 -26.5
t10 -38q0 -17 -5 -34t-17 -36t-33 -40.5t-54 -46.5h126zM217 151q-26 6 -45.5 26t-22.5 49q-17 -11 -29.5 -29.5t-12.5 -38.5t9 -36t34 -16q21 0 39 13t28 32zM433 244q-38 -2 -65 -27q-11 -11 -21.5 -25t-18.5 -37q46 28 71 50t34 39z" />
    <glyph glyph-name="Scaron" unicode="&#x160;" horiz-adv-x="524" 
d="M593 570q8 -13 9.5 -27t1.5 -28q0 -30 -13 -60.5t-32.5 -60.5t-42.5 -59t-43 -57l-81 57l48 64q10 13 21 28.5t21 31t16.5 29.5t6.5 24q-34 0 -71.5 -14.5t-91.5 -45.5q-7 -5 -19 -14t-23.5 -20t-20 -23t-8.5 -23q0 -17 23.5 -43t51.5 -56q12 -14 27.5 -28.5t29 -30.5
t23 -33t9.5 -34q0 -32 -11 -58.5t-30.5 -45.5t-45 -29.5t-55.5 -10.5h-293l32 99h261q15 0 26 11.5t13 27.5q-29 32 -58 60.5t-52 55.5t-37 54.5t-14 59.5q0 33 14.5 61t37.5 51.5t51.5 42t56.5 32.5q29 14 70.5 31.5t89.5 20.5q31 0 57.5 -6t44.5 -34zM493 646l-153 84
l38 67l115 -64l114 64l38 -67z" />
    <glyph glyph-name="scaron" unicode="&#x161;" horiz-adv-x="258" 
d="M251 153q0 -68 -41 -109.5t-109 -41.5h-101l32 99h69q24 0 37.5 11.5t13.5 40.5q0 24 -11 49q-20 -26 -33 -45.5t-13 -18.5l-80 58q-2 -3 7.5 10t25 33.5t34 45.5t34.5 47.5t27 38.5t11 18l89 -44l-40 -56q48 -60 48 -136zM161 396l-153 84l38 67l115 -64l114 64l38 -67z
" />
    <glyph glyph-name="Ydieresis" unicode="&#x178;" horiz-adv-x="528" 
d="M641 594q-28 -54 -54 -106t-51 -106q-9 -19 -14.5 -30.5t-12 -28.5t-15.5 -45.5t-24 -80.5q-20 -68 -43.5 -138.5t-49.5 -135t-53.5 -119t-55.5 -88.5l-74 64q9 10 24 35t32.5 60t35 77.5t29.5 87.5q-52 -37 -113 -37q-36 0 -59.5 11.5t-37.5 30.5t-19.5 44.5t-5.5 53.5
t5 61t12.5 64.5t15.5 60t15 48.5l5 12.5t10.5 31t10.5 40t5 41.5q0 4 -4.5 5t-18.5 1q-9 0 -21 -0.5t-26 -1.5l-5 99q12 1 23 1.5t22 0.5q62 0 95 -26.5t33 -83.5q0 -29 -8.5 -63t-19.5 -65l-8 -23t-17.5 -56.5t-17 -72.5t-7.5 -71q0 -20 5 -32t18 -12q31 0 59.5 20.5
t54.5 54.5t49.5 78t44.5 91q11 25 19 56.5t15 65t14 66.5t18 60h165v0zM309 615l-65 41l57 91l65 -40zM449 615l-66 41l56 91l66 -40z" />
    <glyph glyph-name="Zcaron" unicode="&#x17d;" horiz-adv-x="597" 
d="M620 405q-50 -78 -115 -149.5t-130 -136.5q2 -8 5.5 -17.5t8.5 -17.5q56 14 102 23.5t64 12.5l15 -83l-158 -32v-8t1 -8q0 -54 -23.5 -99t-62 -77.5t-87 -51t-97.5 -18.5q-67 0 -105 29.5t-38 73.5q0 38 23.5 68.5t63 56t92 46.5t111.5 39q1 0 1 0.5t2 0.5
q-9 20 -16.5 41t-15.5 41q45 51 95 103t98 107q13 14 29 33t30 38.5t23.5 37t9.5 29.5q0 11 -6.5 18t-16.5 11.5t-22 6t-23 1.5q-30 0 -63.5 -9.5t-67 -24.5t-65.5 -33.5t-60.5 -37.5t-51.5 -35.5t-38 -27.5l-61 78q38 31 88 63.5t105.5 59t113 43.5t110.5 17
q81 0 121.5 -32t40.5 -83q0 -25 -8.5 -52t-21.5 -45zM311 -31q-30 -5 -66 -18t-67 -29.5t-52 -33t-21 -28.5q0 -14 12.5 -20.5t26.5 -6.5q24 0 51.5 10t52.5 28t42.5 43t20.5 55zM490 646l-153 84l38 67l115 -64l114 64l38 -67z" />
    <glyph glyph-name="zcaron" unicode="&#x17e;" horiz-adv-x="305" 
d="M282 223q0 -36 -20.5 -70t-42.5 -63q37 -11 52.5 -33t15.5 -53q0 -32 -13 -64t-32 -63t-41.5 -62t-41.5 -61h-129q16 20 34 42t37 47q5 7 17.5 23t25.5 35.5t23 39.5t10 35q0 26 -43 26h-93l133 196q2 3 5 9t3 14q0 5 -6 5h-176l32 100h148q43 0 72.5 -29.5t29.5 -73.5z
M154 358l-153 84l38 67l115 -64l114 64l38 -67z" />
    <glyph glyph-name="florin" unicode="&#x192;" horiz-adv-x="863" 
d="M489 345q0 -10 -1 -14q4 1 8 1h8q21 0 42 -9t24 -31q10 5 24.5 7t26.5 2q32 0 57 -15.5t25 -48.5q0 -14 -10 -29q-3 -4 -9 -4q-10 0 -10 9q0 3 3 6q6 9 6 18q0 20 -15.5 32t-37.5 12q-23 0 -42 -6.5t-32 -16t-20 -20.5t-7 -20q0 -10 7.5 -20t33.5 -10q13 0 30 5q1 1 3 1
q10 0 10 -11q-2 -17 -10.5 -31t-22.5 -25q-14 -10 -30.5 -16t-35.5 -6q-23 0 -44.5 8.5t-35.5 25.5q-15 -17 -36.5 -25.5t-43.5 -8.5q-20 0 -36.5 6t-30.5 16q-14 11 -22.5 25t-10.5 31q0 5 3 8t6 3t4 -1q17 -5 30 -5q28 0 35.5 10t7.5 20q0 9 -7.5 19.5t-21 20.5t-33 16.5
t-43.5 6.5q-21 0 -36 -12t-15 -32q0 -8 7 -18q2 -4 2 -6q0 -9 -10 -9q-6 0 -9 4q-4 7 -6.5 14t-2.5 15q0 33 24.5 48.5t56.5 15.5q13 0 27 -2t24 -7q3 22 24 31t40 9h9t9 -1q-1 4 -1 8v9q0 12 1 23.5t4 19.5q5 17 11 17q7 0 12 -17q2 -8 4 -24l-18 -22h19q0 -8 -0.5 -14.5
t-1.5 -12.5q8 -6 12.5 -14t4.5 -16q0 -17 -9 -25.5t-20 -13.5t-20.5 -11t-9.5 -14q0 -9 7 -15.5t17 -10t21.5 -5.5t21.5 -2q9 0 20.5 2t21.5 5.5t16.5 10t6.5 15.5q0 8 -8 14t-21 11q-11 5 -20 13t-9 26q0 17 18 30q-3 13 -3 30q0 25 5 43q5 17 12 17q6 0 12 -17
q1 -5 2 -11.5t1 -13.5l-18 -21h19zM506 320q-24 0 -38 -11q-14 -9 -14 -21q0 -14 14 -22q14 -11 38 -11q23 0 37 11q14 8 14 22q0 12 -14 21q-14 11 -37 11zM361 320q-23 0 -37 -11q-14 -9 -14 -21q0 -14 14 -22q14 -11 37 -11q24 0 38 11q14 8 14 22q0 12 -14 21
q-14 11 -38 11zM501 192q-14 -12 -33 -16t-34 -4q-16 0 -35 4t-33 16q-14 -12 -32.5 -18t-36.5 -6q-5 0 -10 0.5t-10 1.5q9 -23 31 -34t46 -11q20 0 40 9t31 27q2 5 9 5t8 -5q11 -18 31 -27t41 -9q23 0 45 11t31 34q-5 -1 -10 -1.5t-10 -0.5q-18 0 -36 6t-33 18zM358 466
q-51 -11 -85.5 -35.5t-34.5 -70.5q0 -8 1.5 -14.5t1.5 -15.5q0 -10 -10 -10q-8 0 -9 8q-3 16 -3 32q0 33 12.5 64t35.5 55q-18 11 -32 28.5t-19 40.5q0 9 10 9q8 0 9 -8q8 -32 36 -49t58 -17q29 0 55.5 15t35.5 44q3 7 10 7q8 0 9 -7q10 -29 36.5 -44t55.5 -15q30 0 58 17
t35 49q1 5 4 6.5t6 1.5t6 -2.5t3 -9.5q-5 -20 -17 -36t-29 -27q24 -25 37.5 -56t13.5 -66q0 -16 -3 -32q-1 -8 -9 -8q-10 0 -10 12q1 8 2 14.5t1 13.5q0 49 -30 72.5t-74 31.5q-28 5 -54 16.5t-41 36.5q-12 -20 -31 -33t-41 -18zM732 33q-25 -26 -58.5 -40.5t-69.5 -14.5
q-38 -21 -84 -21h-11q-36 -17 -75 -17q-40 0 -76 17h-11q-45 0 -84 21q-36 0 -70 14.5t-57 40.5q-35 25 -61 60.5t-26 81.5q0 33 15 62t39 52q-25 47 -25 97q0 55 28 102.5t77 83.5q49 35 113 55.5t138 20.5q73 0 137 -20.5t113 -55.5q49 -36 77.5 -83.5t28.5 -102.5
q0 -26 -7 -50t-19 -47q24 -23 39.5 -52t15.5 -62q0 -46 -26 -81.5t-61 -60.5zM637 1q46 10 79.5 44t33.5 85q0 42 -26 74q-2 4 -2 6q0 10 10 10q5 0 8 -5q29 -37 29 -85q0 -24 -6 -43q16 18 26 40t10 48q0 31 -15.5 57.5t-37.5 47.5q-4 2 -4 7q0 1 2 5q26 44 26 94t-26.5 94
t-71.5 77q-46 33 -107 52.5t-131 19.5q-71 0 -132 -19.5t-107 -52.5q-45 -33 -71.5 -77t-26.5 -94q0 -25 7 -48.5t19 -45.5q1 -1 1 -4q0 -6 -2 -8q-23 -21 -38.5 -47.5t-15.5 -57.5q0 -26 10 -48t26 -40q-6 19 -6 43q0 48 29 85q2 5 9 5q3 0 6 -3t3 -7q0 -2 -2 -6
q-25 -31 -25 -74q0 -51 33 -85t80 -44q-22 20 -35.5 47.5t-13.5 59.5q0 50 33 89q2 5 8 5q4 0 6.5 -3t2.5 -6t-2 -7q-28 -34 -28 -78q0 -26 10 -48.5t27 -39.5t39.5 -28t46.5 -14q-26 20 -41.5 49t-15.5 64q0 11 10 11t10 -11q0 -29 12.5 -53.5t33 -42t46.5 -27t54 -9.5
q27 0 53.5 9.5t46.5 27t32.5 42t12.5 53.5q0 11 11 11q3 0 6 -3t3 -8q0 -35 -15.5 -64t-40.5 -49q24 3 46.5 14t39.5 28t27 39.5t10 48.5q0 43 -29 78q-2 4 -2 7t2.5 6t6.5 3q5 0 8 -5q33 -39 33 -89q0 -32 -13 -59.5t-35 -47.5z" />
    <glyph glyph-name="circumflex" unicode="&#x2c6;" horiz-adv-x="341" 
d="M288 353l-114 64l-115 -64l-38 67l153 85l152 -85z" />
    <glyph glyph-name="caron" unicode="&#x2c7;" horiz-adv-x="341" 
d="M174 358l-153 84l38 67l115 -64l114 64l38 -67z" />
    <glyph glyph-name="ring" unicode="&#x2da;" horiz-adv-x="138" 
d="M9 386q0 26 18 44t43 18t43.5 -18t18.5 -44q0 -25 -18.5 -43t-43.5 -18t-43 18t-18 43zM36 386q0 -14 10 -23.5t24 -9.5t24 9.5t10 23.5q0 15 -10 24.5t-24 9.5t-24 -9.5t-10 -24.5z" />
    <glyph glyph-name="tilde" unicode="&#x2dc;" horiz-adv-x="341" 
d="M324 419q-17 -30 -47.5 -47t-64.5 -17q-14 0 -25.5 3.5t-21.5 7.5t-19 7.5t-19 3.5q-14 0 -25.5 -7t-19.5 -18l-67 38q18 31 47.5 47.5t64.5 16.5q13 0 24 -3.5t21.5 -7.5t20 -7.5t19.5 -3.5q13 0 25 6t20 20l67 -39v0z" />
    <glyph glyph-name="mu" unicode="&#x3bc;" horiz-adv-x="534" 
d="M420 132q0 -13 1 -28t5 -27.5t11.5 -21t19.5 -8.5q10 0 17 6.5t11.5 16t6.5 19.5t3 18h20q-3 -21 -8 -41.5t-15.5 -37t-27 -26.5t-41.5 -10q-40 0 -60 28.5t-24 69.5q-15 -17 -34.5 -34.5t-41.5 -31.5t-46 -23t-49 -9q-23 0 -44.5 9.5t-38.5 24.5v-5q0 -12 3 -28t9 -40
q9 -38 9 -52q0 -20 -10.5 -39t-33.5 -19q-11 0 -19.5 5.5t-13.5 14.5t-7.5 19.5t-2.5 20.5q0 7 1 15t4 19q13 43 18.5 79.5t5.5 82.5v354h81v-281q0 -28 3 -50t11.5 -37t24.5 -23t42 -8q35 0 70 20t59 44v335h81v-321z" />
    <glyph glyph-name="endash" unicode="&#x2013;" horiz-adv-x="477" 
d="M442 249h-440l32 99h441z" />
    <glyph glyph-name="emdash" unicode="&#x2014;" horiz-adv-x="724" 
d="M698 249h-710l32 99h711z" />
    <glyph glyph-name="quoteleft" unicode="&#x2018;" horiz-adv-x="33" 
d="M104 462h-95l63 155h94z" />
    <glyph glyph-name="quoteright" unicode="&#x2019;" horiz-adv-x="33" 
d="M104 462h-95l63 155h94z" />
    <glyph glyph-name="quotesinglbase" unicode="&#x201a;" horiz-adv-x="173" 
d="M-26 -68h-95l63 155h94z" />
    <glyph glyph-name="quotedblleft" unicode="&#x201c;" horiz-adv-x="127" 
d="M109 462h-95l63 155h94zM229 462h-95l63 155h94z" />
    <glyph glyph-name="quotedblright" unicode="&#x201d;" horiz-adv-x="139" 
d="M109 462h-95l63 155h94zM229 462h-95l63 155h94z" />
    <glyph glyph-name="quotedblbase" unicode="&#x201e;" horiz-adv-x="305" 
d="M109 -68h-95l63 155h94zM229 -68h-95l63 155h94z" />
    <glyph glyph-name="dagger" unicode="&#x2020;" horiz-adv-x="625" 
d="M405 -110q-55 -11 -93 -50q-36 39 -92 50q17 53 30.5 109.5t23 114.5t15 115t6.5 111q-51 -5 -96.5 -25.5t-80.5 -55.5q-31 68 -97 99q67 31 97 98q35 -34 80 -55t96 -26q-4 58 -27 108.5t-61 90.5q35 16 62.5 43.5t43.5 62.5q17 -35 44 -62.5t62 -43.5
q-38 -40 -60.5 -90.5t-26.5 -108.5q51 5 95.5 26t79.5 55q31 -67 98 -98q-33 -15 -58 -40.5t-40 -58.5q-35 35 -80 55.5t-96 25.5q0 -54 5.5 -111t15 -115t23.5 -114.5t31 -109.5z" />
    <glyph glyph-name="daggerdbl" unicode="&#x2021;" horiz-adv-x="598" 
d="M387 435q-17 -14 -28.5 -26t-20 -24.5t-14 -28.5t-9.5 -37q49 5 92 24.5t77 51.5q14 -30 38 -54t55 -38q-31 -14 -55 -38t-38 -54q-34 32 -76.5 51.5t-91.5 24.5q4 -55 26 -102.5t58 -85.5q-33 -15 -59.5 -40.5t-42.5 -58.5q-31 68 -101 99q36 38 58.5 85.5t26.5 102.5
q-49 -5 -92 -24.5t-76 -51.5q-14 30 -38 54t-55 38q31 14 55 38t38 54q33 -32 76 -51.5t92 -24.5q-4 21 -9.5 37t-13.5 28.5t-20 24.5t-28 26q16 14 28 26t20 24.5t13.5 28.5t9.5 37q-49 -5 -92 -24.5t-76 -51.5q-14 30 -38 54t-55 38q31 14 55 38t38 54q33 -32 76 -51.5
t92 -24.5q-4 55 -26.5 102.5t-58.5 85.5q70 31 101 99q16 -33 42.5 -58.5t59.5 -40.5q-36 -38 -58 -85.5t-26 -102.5q49 5 91.5 24.5t76.5 51.5q14 -30 38 -54t55 -38q-31 -14 -55 -38t-38 -54q-34 32 -77 51.5t-92 24.5q4 -21 9.5 -37t14 -28.5t20 -24.5t28.5 -26z" />
    <glyph glyph-name="bullet" unicode="&#x2022;" horiz-adv-x="251" 
d="M132 372q22 0 42 -9t35 -24t24 -35t9 -42q0 -23 -9 -43t-24 -34.5t-35 -23t-42 -8.5q-23 0 -43 8.5t-35 23.5t-23.5 35t-8.5 42t8.5 42t23.5 35t35 24t43 9z" />
    <glyph glyph-name="ellipsis" unicode="&#x2026;" horiz-adv-x="500" 
d="M469 62q0 -26 -18 -43t-42 -17q-23 0 -41 17.5t-18 42.5q0 24 17.5 41.5t41.5 17.5q25 0 42.5 -16.5t17.5 -42.5zM309 62q0 -26 -18 -43t-42 -17q-23 0 -41 17.5t-18 42.5q0 24 17.5 41.5t41.5 17.5q25 0 42.5 -16.5t17.5 -42.5zM149 62q0 -26 -18 -43t-42 -17
q-23 0 -41 17.5t-18 42.5q0 24 17.5 41.5t41.5 17.5q25 0 42.5 -16.5t17.5 -42.5z" />
    <glyph glyph-name="perthousand" unicode="&#x2030;" horiz-adv-x="864" 
d="M175 656q60 0 86.5 -37.5t26.5 -97.5q0 -36 -14.5 -72.5t-38.5 -66.5t-55 -49t-64 -19q-26 0 -46.5 11t-34.5 29.5t-22 43t-8 50.5q0 39 14.5 76.5t38.5 66.5t54.5 47t62.5 18zM208 492q3 13 3 28q0 20 -7.5 39.5t-28.5 19.5q-22 0 -39 -14t-29 -34t-18.5 -42t-6.5 -39
q0 -10 1.5 -20.5t6 -19.5t11 -14.5t17.5 -5.5q16 0 31 9.5t27 24.5t20.5 33t11.5 35zM154 0h-87l340 666h88zM455 340q60 0 86.5 -37.5t26.5 -97.5q0 -36 -14.5 -72.5t-38.5 -66.5t-55 -49t-64 -19q-26 0 -46.5 11t-34.5 29.5t-22 43t-8 50.5q0 39 14.5 76.5t38.5 66.5
t54.5 47t62.5 18zM488 176q3 13 3 28q0 20 -7.5 39.5t-28.5 19.5q-22 0 -39 -14t-29 -34t-18.5 -42t-6.5 -39q0 -10 1.5 -20.5t6 -19.5t11 -14.5t17.5 -5.5q16 0 31 9.5t27 24.5t20.5 33t11.5 35zM751 340q60 0 86.5 -37.5t26.5 -97.5q0 -36 -14.5 -72.5t-38.5 -66.5
t-55 -49t-64 -19q-26 0 -46.5 11t-34.5 29.5t-22 43t-8 50.5q0 39 14.5 76.5t38.5 66.5t54.5 47t62.5 18zM784 176q3 13 3 28q0 20 -7.5 39.5t-28.5 19.5q-22 0 -39 -14t-29 -34t-18.5 -42t-6.5 -39q0 -10 1.5 -20.5t6 -19.5t11 -14.5t17.5 -5.5q16 0 31 9.5t27 24.5
t20.5 33t11.5 35z" />
    <glyph glyph-name="guilsinglleft" unicode="&#x2039;" horiz-adv-x="229" 
d="M169 140l-159 158l159 159l50 -51l-108 -108l108 -108z" />
    <glyph glyph-name="guilsinglright" unicode="&#x203a;" horiz-adv-x="229" 
d="M117 298l-108 108l50 51l159 -159l-159 -158l-50 50z" />
    <glyph glyph-name="Euro" unicode="&#x20ac;" horiz-adv-x="550" 
d="M568 444q-18 26 -46.5 37.5t-63.5 11.5q-32 0 -64 -9t-62 -25.5t-56 -38.5t-47 -48h267l-67 -66h-241l-8 -21h228l-66 -66h-174q0 -25 8 -47t24 -38.5t40.5 -26t56.5 -9.5q49 0 90 17.5t79 44.5l60 -79q-21 -16 -46.5 -30.5t-53.5 -26t-57 -18t-56 -6.5q-54 0 -99 15
t-77.5 43.5t-50.5 69t-18 91.5h-65l21 66h52l6 21h-56l21 66h64q28 50 65 91t80.5 69.5t91 44t96.5 15.5q58 0 106 -15t88 -62z" />
    <glyph glyph-name="trademark" unicode="&#x2122;" horiz-adv-x="554" 
d="M201 584l-69 -226l-44 13l63 207l-128 -17l-6 45l148 20l12 39l45 -13l-6 -20l49 7l6 -46zM542 639q-2 -2 -5 -8t-3 -9q-9 -20 -18 -37t-17 -40q-11 -28 -21 -55t-10 -49q0 -13 6.5 -21.5t26.5 -8.5h22l-15 -46h-7q-45 0 -62 21t-17 53q0 8 0.5 16.5t2.5 17.5
q-19 -26 -37.5 -52.5t-40.5 -55.5h-49l35 141q-23 -36 -47 -71t-51 -70h-58q11 14 22 28.5t22 30.5q22 32 41 59.5t36 53t32.5 50.5t32.5 52h51l-40 -158l114 158h54z" />
    <glyph glyph-name="minus" unicode="&#x2212;" horiz-adv-x="535" 
d="M516 332v-87h-497v87h497z" />
    </font>
</defs>
</svg>
