<?xml version="1.0" standalone="no"?>
<!DOCTYPE svg PUBLIC "-//W3C//DTD SVG 1.1//EN" "http://www.w3.org/Graphics/SVG/1.1/DTD/svg11.dtd" >
<svg xmlns="http://www.w3.org/2000/svg" xmlns:xlink="http://www.w3.org/1999/xlink" version="1.1">
<metadata>
Created by FontForge 20170731 at Tue Jul 16 18:01:57 2013
 By Aleksey,,,
Copyright (c) 2012 Kemie Guaida (www.pixilate.com), with Reserved Font Name "Bellota".  Based on "Snippet" by Gesine Todt. This Font Software is licensed under the SIL Open Font License, Version 1.1. This license is available with a FAQ at: http://scripts.sil.org/OFL
</metadata>
<defs>
<font id="Bellota-BoldItalic" horiz-adv-x="624" >
  <font-face 
    font-family="Bellota Bold"
    font-weight="700"
    font-style="italic"
    font-stretch="normal"
    units-per-em="1000"
    panose-1="2 1 5 3 4 0 0 2 0 4"
    ascent="800"
    descent="-200"
    x-height="506"
    cap-height="686"
    bbox="-84 -304 1311 1145"
    underline-thickness="50"
    underline-position="-200"
    slope="-8"
    unicode-range="U+0020-1F330"
  />
<missing-glyph horiz-adv-x="544" 
d="M44 0v700h500v-700h-500zM294 395l170 255h-340zM324 350l170 -255v510zM124 50h340l-170 255zM94 605v-510l170 255z" />
    <glyph glyph-name="fi" unicode="fi" horiz-adv-x="529" 
d="M-17 -253l101 714q15 114 56 174q54 72 138 72q87 0 121 -64l-63 -54q-15 44 -60 44q-52 0 -80 -51l1 -1q-26 -40 -37 -121l-1 -2h261l-52 -371v-5q0 -4 3 -12q5 -4 12 -4t12 2.5t8 6t9 12.5l61 -45q-19 -27 -46 -41h1q-20 -11 -48 -11q-45 0 -67 32q-21 21 -21 54
q0 10 1 15l41 294h-185l-90 -638h-76z" />
    <glyph glyph-name="fl" unicode="fl" horiz-adv-x="550" 
d="M-7 -255l100 714q17 112 57 174q54 72 149 72q55 0 92.5 -25.5t45.5 -69.5q5 -18 5 -37q0 -9 -1 -14l-66 -471q0 -2 -1 -4v-2q0 -4 3 -10q7 -5 13 -5q15 0 29 21l61 -45q-17 -25 -44 -42q-28 -10 -48 -10q-46 0 -68 32q-21 21 -21 54q0 10 1 15l66 469q0 2 0.5 6.5
t0.5 6.5q0 57 -68 57q-51 0 -81 -36q-33 -33 -41 -97l-35 -232h144l-10 -73h-144l-63 -448h-76z" />
    <glyph glyph-name="f_f" unicode="ff" horiz-adv-x="643" 
d="M-17 -255l100 714q16 111 57 174q58 78 151 78q69 0 112 -41q45 32 103 32q34 0 64 -14q71 -26 71 -118q0 -44 -19.5 -90t-55.5 -78q-62 -50 -158 -50h-37l-12 -86h144l-10 -73h-144l-63 -448h-76l63 448h-151l-63 -448h-76zM283 266l27 193q13 92 43 150q-18 29 -63 29
q-60 0 -93 -61q-27 -40 -38 -119l-27 -192h151zM382 425h33q67 0 105 43q43 39 43 102q0 58 -60 58q-54 0 -79 -50q-26 -38 -38 -120z" />
    <glyph glyph-name="f_f_i" unicode="ffi" horiz-adv-x="752" 
d="M-17 -253l101 714q15 114 56 174q55 72 149 72q69 0 109 -38q3 3 8 6.5t8.5 6t5.5 4.5q37 21 83 21q39 0 73 -19t47 -45l-65 -54q-3 19 -20 31.5t-39 12.5q-50 0 -79 -54q-24 -36 -36 -119l-1 -1h260l-52 -372v-5q0 -4 3 -12q5 -4 13 -4q14 0 28 22l61 -46
q-17 -25 -44 -42q-27 -10 -48 -10q-46 0 -68 32q-21 21 -21 54q0 10 1 15l41 294h-184l-90 -638h-77l90 638h-147l-90 -638h-76zM328 557l18 51q-14 25 -61 25q-59 0 -88 -54q-26 -38 -37 -119l-1 -2h147l1 3q5 43 21 96z" />
    <glyph glyph-name="f_f_l" unicode="ffl" horiz-adv-x="804" 
d="M-15 -253l101 714q15 110 56 174q52 69 139 69t121 -61l-64 -54q-12 41 -58 41q-55 0 -82 -55q-25 -42 -38 -125l-26 -184h184l29 203q15 113 54 169q51 64 139 64q70 0 106 -44q29 -30 29 -81q0 -13 -1 -19l-66 -470v-6q0 -5 2 -11q6 -4 13 -4q12 0 23 11l16 2l51 -37
q-13 -21 -45 -43q-23 -9 -48 -9q-42 0 -67 31q-22 20 -22 56q0 9 1 14l66 468q3 33 -13.5 50.5t-47.5 17.5q-44 0 -71.5 -31t-34.5 -81l-37 -250h144l-10 -73h-144l-63 -448h-76l63 448h-184l-63 -446h-76z" />
    <glyph glyph-name=".notdef" horiz-adv-x="544" 
d="M44 0v700h500v-700h-500zM294 395l170 255h-340zM324 350l170 -255v510zM124 50h340l-170 255zM94 605v-510l170 255z" />
    <glyph glyph-name=".null" horiz-adv-x="0" 
 />
    <glyph glyph-name="nonmarkingreturn" horiz-adv-x="333" 
 />
    <glyph glyph-name="space" unicode=" " horiz-adv-x="312" 
 />
    <glyph glyph-name="exclam" unicode="!" horiz-adv-x="213" 
d="M112 134h-73l71 572h91zM24 93q21 0 35.5 -15t14.5 -35q0 -21 -18 -38t-39 -17q-20 0 -34 14.5t-14 34.5q0 21 17.5 38.5t37.5 17.5z" />
    <glyph glyph-name="quotedbl" unicode="&#x22;" horiz-adv-x="335" 
d="M301 478h-72l18 209h94zM168 477h-73l18 209h95z" />
    <glyph glyph-name="numbersign" unicode="#" horiz-adv-x="608" 
d="M470 492h111l-10 -73h-111l-24 -167h111l-10 -74h-111l-21 -149h-76l21 149h-140l-21 -149h-76l21 149h-113l10 74h111l24 167h-111l10 73h111l21 149h78l-21 -149h138l21 149h78zM244 419l-24 -167h138l24 167h-138z" />
    <glyph glyph-name="dollar" unicode="$" horiz-adv-x="556" 
d="M374 750l-14 -86q50 -7 92 -26q55 -22 91 -53l-50 -63q-33 24 -69 43q-31 13 -71 20l-34 -213q83 -27 116 -59q51 -43 51 -111q0 -19 -2 -29q-12 -85 -78 -135q-56 -37 -136 -45l-11 -61h-79l11 60q-116 13 -191 80l51 63q72 -53 147 -65l38 246q-72 25 -99 60
q-40 39 -40 100q0 85 61 138q49 38 123 49l14 87h79zM244 401l31 187q-48 -9 -71.5 -37.5t-23.5 -67.5q0 -29 16 -50q22 -20 48 -32zM312 290l-36 -222q48 6 75 29q53 34 53 101q0 33 -23 55q-24 18 -69 37z" />
    <glyph glyph-name="percent" unicode="%" horiz-adv-x="763" 
d="M172 535q56 0 90 -33.5t34 -88.5q0 -78 -49 -119.5t-110 -41.5q-56 0 -90 33.5t-34 88.5q0 8 2 24q10 67 56 102t101 35zM233 10h-85l294 509h83zM169 464q-35 0 -58 -26t-23 -64q0 -24 14 -38t39 -14q35 0 57.5 25.5t22.5 64.5q0 52 -52 52zM541 297q56 0 90 -33.5
t34 -88.5q0 -78 -49 -119.5t-110 -41.5q-56 0 -90 33.5t-34 88.5q0 8 2 24q10 67 56 102t101 35zM538 226q-35 0 -58 -26t-23 -64q0 -24 14 -38t39 -14q35 0 57.5 25.5t22.5 64.5q0 52 -52 52z" />
    <glyph glyph-name="ampersand" unicode="&#x26;" horiz-adv-x="647" 
d="M506 -8l-77 78q-92 -80 -215 -80q-85 0 -134.5 42.5t-49.5 115.5q0 9 2 31q8 60 43 106t82 74q-27 51 -27 91q0 8 2 26q11 78 70.5 120t123.5 42q55 0 93.5 -31t44.5 -70l-60 -44q-21 68 -84 68q-44 0 -73 -26.5t-29 -76.5q0 -32 25 -70l191 -202q40 65 50 135l7 48h75
l-8 -54q-15 -106 -75 -184l79 -82zM380 122l-173 179q-45 -21 -71.5 -61t-26.5 -88q0 -42 28.5 -65t81.5 -23q93 0 161 58z" />
    <glyph glyph-name="quotesingle" unicode="'" horiz-adv-x="217" 
d="M162 477h-73l18 209h95z" />
    <glyph glyph-name="parenleft" unicode="(" horiz-adv-x="389" 
d="M362 755l32 -64q-52 -25 -100.5 -70.5t-84.5 -100.5q-77 -110 -93 -228q-4 -27 -4 -61q0 -88 29 -165q49 -114 139 -166l-42 -60q-126 72 -175 205q-34 80 -34 175q0 38 6 79q19 139 96 259q92 130 231 197z" />
    <glyph glyph-name="parenright" unicode=")" horiz-adv-x="389" 
d="M-83 702l32 64q139 -67 231 -197q77 -120 96 -259q6 -40 6 -79q0 -95 -34 -175q-49 -133 -175 -205l-42 60q90 52 139 166q29 77 29 165q0 34 -4 61q-16 118 -93 228q-36 55 -84.5 100.5t-100.5 70.5z" />
    <glyph glyph-name="asterisk" unicode="*" horiz-adv-x="397" 
d="M268 588l102 39l13 -79l-99 -26l52 -75l-72 -47l-44 86l-69 -88l-62 50l71 75l-93 25l37 79l93 -38l9 107h83z" />
    <glyph glyph-name="plus" unicode="+" horiz-adv-x="449" 
d="M261 332h153l-11 -73h-153l-22 -156h-78l22 156h-153l11 73h153l21 155h78z" />
    <glyph glyph-name="comma" unicode="," horiz-adv-x="216" 
d="M31 63v1q2 18 15 29.5t30 11.5q21 0 32 -15t8 -30l-3 -20q-4 -40 -20 -78q-24 -35 -69 -64l-48 49q29 21 39 45q8 15 13 41q0 3 1.5 13.5t1.5 16.5z" />
    <glyph glyph-name="hyphen" unicode="-" horiz-adv-x="453" 
d="M370 268h-311l11 79h311z" />
    <glyph glyph-name="period" unicode="." horiz-adv-x="230" 
d="M76 101q21 0 35.5 -15t14.5 -35q0 -21 -18 -38t-39 -17q-20 0 -34 14.5t-14 34.5q0 21 17.5 38.5t37.5 17.5z" />
    <glyph glyph-name="slash" unicode="/" horiz-adv-x="362" 
d="M56 -68h-87l334 818h85z" />
    <glyph glyph-name="zero" unicode="0" horiz-adv-x="664" 
d="M372 666q112 0 173.5 -80t61.5 -200q0 -28 -5 -65q-20 -138 -106.5 -234.5t-210.5 -96.5q-113 0 -174 79t-61 198q0 28 5 65q19 138 105.5 236t211.5 98zM371 589q-91 0 -154 -77.5t-79 -187.5q-4 -38 -4 -55q0 -89 39.5 -146t116.5 -57q93 0 154 79t77 188q4 27 4 57
q0 88 -39 143.5t-115 55.5z" />
    <glyph glyph-name="one" unicode="1" horiz-adv-x="382" 
d="M355 673l-94 -674h-82l78 543q-75 -52 -152 -49l-13 75q5 -1 13 -1q10 0 20 1.5t21.5 5t20.5 6.5t23.5 10.5t23.5 12t26.5 15t26.5 16.5t31 19.5t32 19.5h25z" />
    <glyph glyph-name="two" unicode="2" horiz-adv-x="552" 
d="M143 470l-64 39q75 159 238 159q85 0 131.5 -41.5t46.5 -113.5q0 -9 -2 -31q-6 -42 -22.5 -76t-47.5 -64t-56 -49.5t-71 -51t-70 -49.5q-86 -59 -114 -114h356l-11 -79h-446l4 27q10 76 62 136.5t142 124.5q5 3 33.5 21.5t36 23.5t31.5 22.5t32.5 26.5t25 26.5t23 31
t12 32t5.5 37.5q0 41 -27.5 64.5t-76.5 23.5q-59 0 -104.5 -33.5t-66.5 -92.5z" />
    <glyph glyph-name="three" unicode="3" horiz-adv-x="572" 
d="M169 543l-35 67q57 38 96.5 51.5t89.5 13.5q79 0 132 -40t53 -104q0 -45 -28 -90t-74 -69q14 -6 21 -16q32 -21 51 -60.5t19 -85.5q0 -102 -78 -162t-181 -60q-147 0 -228 105l55 59q39 -44 74.5 -65t89.5 -21q72 0 123.5 35t60.5 96q1 6 1 18q0 51 -37 79.5t-91 30.5
h-120l11 78h115q45 0 87.5 37t42.5 83q0 34 -29.5 54t-71.5 20q-77 0 -149 -54z" />
    <glyph glyph-name="four" unicode="4" horiz-adv-x="551" 
d="M115 200h209l30 216h84l-30 -216h81l-11 -78h-81l-18 -125h-84l18 125h-308l8 62l269 479h92z" />
    <glyph glyph-name="five" unicode="5" horiz-adv-x="534" 
d="M458 578l-265 -4l-21 -131q49 7 73 7q103 0 164.5 -51.5t61.5 -139.5q0 -18 -3 -36q-14 -100 -88.5 -164.5t-169.5 -64.5q-64 0 -117 27t-73 53l24 71q50 -41 83.5 -57.5t76.5 -16.5q77 0 126 46.5t59 120.5q2 20 2 27q0 59 -42 83t-123 24q-78 0 -130 -22l-15 12l39 287
l349 7z" />
    <glyph glyph-name="six" unicode="6" horiz-adv-x="584" 
d="M498 652l-7 -75q-113 3 -201 -60q-67 -41 -121 -126l-1 -5q66 43 139 43q88 0 146.5 -59.5t58.5 -146.5q0 -21 -2 -32q-14 -94 -90.5 -160.5t-173.5 -66.5t-154.5 66.5t-57.5 169.5q0 24 3 49q11 74 50 148.5t99 133.5q140 127 312 121zM304 355q-74 0 -132 -57.5
t-58 -127.5q0 -54 37.5 -93t97.5 -39q74 0 132 55t58 129q0 57 -38.5 95t-96.5 38z" />
    <glyph glyph-name="seven" unicode="7" horiz-adv-x="502" 
d="M506 635l-340 -636h-89l313 575h-321l10 77l429 5z" />
    <glyph glyph-name="eight" unicode="8" horiz-adv-x="569" 
d="M323 669q76 0 126 -43t50 -107q0 -93 -97 -158q89 -49 89 -150q0 -21 -2 -32q-12 -90 -82.5 -142.5t-168.5 -52.5q-93 0 -150 47.5t-57 127.5q0 10 2 30q15 104 131 184q-53 41 -53 108q0 14 1 21q10 73 71 120t140 47zM320 396l5 -1q47 31 69 56.5t22 63.5
q0 34 -26 55.5t-68 21.5q-54 0 -91 -32t-37 -79q0 -25 15.5 -39.5t46.5 -25.5zM254 333l-16 2q-65 -49 -90 -79.5t-31 -71.5q-2 -16 -2 -22q0 -49 32.5 -75.5t92.5 -26.5q70 0 115 35.5t53 95.5q1 7 1 19q0 51 -37.5 75.5t-117.5 47.5z" />
    <glyph glyph-name="nine" unicode="9" horiz-adv-x="583" 
d="M73 -36l7 74q113 -3 207 68q73 48 123 133q-78 -52 -151 -52q-84 0 -142 60.5t-58 146.5q0 9 2 31q13 92 90.5 159.5t174.5 67.5q96 0 153 -66t57 -169q0 -28 -4 -52q-11 -77 -49.5 -149.5t-95.5 -129.5q-138 -128 -314 -122zM268 261q75 0 132.5 58t57.5 128
q0 56 -39 93.5t-98 37.5q-72 0 -130 -53t-58 -129q0 -57 38 -96t97 -39z" />
    <glyph glyph-name="colon" unicode=":" horiz-adv-x="239" 
d="M111 494q21 0 35.5 -15t14.5 -35q0 -21 -18 -38t-39 -17q-20 0 -34 14.5t-14 34.5q0 22 17 39t38 17zM57 112q21 0 35.5 -15t14.5 -35q0 -21 -18 -38t-39 -17q-20 0 -34 14.5t-14 34.5q0 22 17 39t38 17z" />
    <glyph glyph-name="semicolon" unicode=";" horiz-adv-x="223" 
d="M111 494q21 0 35.5 -15t14.5 -35q0 -21 -18 -38t-39 -17q-20 0 -34 14.5t-14 34.5q0 22 17 39t38 17zM12 74v1q2 18 15 29.5t30 11.5q21 0 32 -15t8 -30l-3 -20q-4 -40 -20 -78q-24 -35 -69 -64l-48 49q29 21 39 45q8 15 13 41q0 3 1.5 13.5t1.5 16.5z" />
    <glyph glyph-name="less" unicode="&#x3c;" horiz-adv-x="407" 
d="M353 399l-204 -129l169 -131l-53 -66l-256 195l307 196z" />
    <glyph glyph-name="equal" unicode="=" horiz-adv-x="475" 
d="M432 336h-364l10 74h364zM410 181h-364l11 74h364z" />
    <glyph glyph-name="greater" unicode="&#x3e;" horiz-adv-x="407" 
d="M375 268l-307 -196l-38 65l204 129l-169 131l54 67z" />
    <glyph glyph-name="question" unicode="?" horiz-adv-x="479" 
d="M169 554l7 -73q-2 0 -6 -0.5t-8 -0.5q-41 0 -63.5 22t-22.5 56q0 48 37.5 83t83 49.5t88.5 14.5q79 0 128 -52.5t49 -130.5q0 -9 -2 -31q-6 -45 -27 -83q-15 -23 -38.5 -45t-35.5 -29.5t-42 -26.5q-8 -4 -27.5 -14.5l-26 -14t-20.5 -12t-19 -13t-14 -12.5t-12.5 -14.5
t-7 -15.5t-4.5 -19q-1 -6 -1 -21q0 -16 1 -25l-72 -12q-3 19 -3 38q0 7 2 27q5 33 16.5 57.5t34.5 44t39 29.5t50 29q79 38 108 82q29 38 29 77q0 45 -32 78.5t-82 33.5q-41 0 -82 -19.5t-45 -45.5q0 -11 20 -11zM158 101q21 0 37 -16.5t16 -37.5q0 -23 -19 -42.5t-42 -19.5
q-22 0 -38 16t-16 39t19.5 42t42.5 19z" />
    <glyph glyph-name="at" unicode="@" horiz-adv-x="712" 
d="M510 60l17 -69q-102 -50 -218 -50q-122 0 -196.5 66t-74.5 184q0 29 4 54q20 138 113.5 223.5t227.5 85.5q121 0 193 -68.5t72 -178.5q0 -21 -3 -44q-11 -82 -55.5 -130.5t-110.5 -48.5q-71 0 -91 50q-43 -37 -90 -37q-50 0 -82.5 39.5t-32.5 97.5q0 81 52.5 132
t112.5 51q14 0 35 -3l32 -2h55l-30 -214q1 -47 39 -47q35 0 59.5 33.5t32.5 87.5q3 18 3 36q0 80 -52 128.5t-140 48.5q-107 0 -178.5 -69.5t-86.5 -179.5q-3 -22 -3 -44q0 -86 52.5 -133.5t151.5 -47.5q118 0 192 49zM388 345h-42q-39 0 -65.5 -31.5t-26.5 -79.5
q0 -65 46 -65q37 0 63 43l7 11z" />
    <glyph glyph-name="A" unicode="A" horiz-adv-x="817" 
d="M690 -1h-85l-61 221h-271l-92 -167q-14 -27 -41 -42t-54 -15q-40 0 -67.5 28.5t-23.5 66.5l78 11q0 -26 17 -26q13 0 21 14l344 598h34zM451 540l1 3zM521 298l-68 244l-136 -244h204z" />
    <glyph glyph-name="B" unicode="B" horiz-adv-x="656" 
d="M190 697h216q81 0 132.5 -45.5t51.5 -117.5q0 -55 -27 -100t-71 -67h-2q85 -48 85 -152q0 -9 -2 -31q-14 -98 -92.5 -146t-198.5 -48q-66 0 -116 5l-63 7l89 617q-25 -1 -33 -12q-15 -9 -15 -26l-14 -9l-65 2q0 8 1 15q6 42 40 76q42 32 84 32zM273 619l-79 -548
q94 -5 95 -5q187 0 205 127q2 14 2 21q0 52 -37 81t-96 29h-106l11 77h95q61 0 97 31q50 37 50 103q0 39 -26 60.5t-72 23.5h-139z" />
    <glyph glyph-name="C" unicode="C" horiz-adv-x="748" 
d="M606 180l60 -47q-59 -76 -141.5 -115.5t-167.5 -39.5q-133 0 -219.5 89.5t-86.5 221.5q0 28 4 52q21 149 141 259.5t262 110.5q62 0 121.5 -22.5t82.5 -68.5q14 -23 14 -54q0 -45 -32 -79.5t-75 -34.5q-42 0 -68 30l51 57q13 -11 21 -11q9 0 17.5 9t9.5 22l1 7q0 9 -8 25
q-39 44 -137 44q-116 0 -212.5 -90.5t-113.5 -211.5q-3 -21 -3 -42q0 -101 65.5 -168.5t168.5 -67.5q72 0 137 33.5t108 91.5z" />
    <glyph glyph-name="D" unicode="D" horiz-adv-x="812" 
d="M190 692h291q130 -12 202.5 -91t72.5 -208q0 -29 -5 -67q-47 -335 -476 -335q-73 0 -113 4l-29 2h-1l-28 4l88 613q-26 -2 -35 -15q-14 -8 -14 -22l-13 -10l-67 2q4 55 43 93q41 30 84 30zM273 614l-78 -543q90 -5 151 -5q131 0 219 73t106 204q4 24 4 52q0 98 -56 156.5
t-156 62.5h-190z" />
    <glyph glyph-name="E" unicode="E" horiz-adv-x="659" 
d="M637 609h-375l-29 -208h259l-11 -79h-259l-34 -244h375l-11 -79h-458l87 609q-15 0 -25 -13q-14 -7 -17 -26q0 -1 -0.5 -4.5t-0.5 -5.5l-76 4q1 2 1 6q0 45 41 86q42 31 83 31h461z" />
    <glyph glyph-name="F" unicode="F" horiz-adv-x="620" 
d="M637 608h-375l-29 -208h259l-11 -78h-259l-45 -323h-83l87 608q-17 0 -25 -13q-15 -8 -17 -26q-1 -2 -1 -10l-76 4q0 8 1 15q6 42 41 77q39 31 83 31h461z" />
    <glyph glyph-name="G" unicode="G" horiz-adv-x="757" 
d="M539 -159l31 216q-95 -88 -221 -88q-131 0 -215.5 92t-84.5 223q0 16 4 50q20 147 140.5 258.5t258.5 111.5q46 0 93 -12t86 -45.5t39 -81.5t-32.5 -82t-75.5 -34q-45 0 -68 28l52 57q13 -10 20 -10q11 0 19.5 11t8.5 26q0 32 -47 49t-97 17q-114 0 -209.5 -90.5
t-112.5 -211.5q-3 -21 -3 -41q0 -101 64 -170t162 -69q86 0 153 53.5t89 132.5l12 86h79l-67 -481q-6 -46 -41 -72.5t-72 -26.5q-29 0 -52.5 16.5t-31.5 40.5l70 41q1 -2 2 -5q10 -12 16 -13q22 0 31 24z" />
    <glyph glyph-name="H" unicode="H" horiz-adv-x="709" 
d="M132 587l-65 51q35 53 94 53q38 0 65.5 -25t27.5 -64q0 -10 -1 -15l-27 -192h335l41 291h82l-96 -687h-82l44 318h-335l-44 -318h-83l83 592v3q0 14 -13 14t-26 -21z" />
    <glyph glyph-name="I" unicode="I" horiz-adv-x="228" 
d="M103 -1h-82l96 687h82z" />
    <glyph glyph-name="J" unicode="J" horiz-adv-x="484" 
d="M114 594l-29 71q84 33 120 33q21 0 87 -25q33 -10 47 -10q11 0 33 11h-1q14 7 14 6.5t-1 -4.5l14 13h67l-70 -495q-12 -82 -66.5 -140t-146.5 -58q-83 0 -122 46.5t-39 114.5q0 14 4 42l76 -10q-3 -17 -3 -30q0 -40 23 -62.5t67 -22.5q59 0 90.5 37.5t38.5 89.5l57 390
q-17 -6 -40 -6t-47 8q-18 4 -45 15.5t-40 11.5q-16 0 -47.5 -12t-40.5 -14z" />
    <glyph glyph-name="K" unicode="K" horiz-adv-x="654" 
d="M470 688l101 -4q-105 -155 -137 -204q-10 -13 -33 -44t-30 -40q-35 -37 -55 -51l149 -267q5 -8 14 -8q11 0 19 7.5t9 18.5v1q2 5 1 8l78 -3q-2 -52 -38 -81t-74 -29q-24 0 -45 12t-31 32l-157 275q-37 -9 -92 -8l-44 -303h-84l96 686h82l-42 -302h28q36 1 58 14
q26 10 48 36q36 35 79 100q21 27 100 154z" />
    <glyph glyph-name="L" unicode="L" horiz-adv-x="527" 
d="M114 78h317l-11 -79h-399l96 687h82z" />
    <glyph glyph-name="M" unicode="M" horiz-adv-x="1045" 
d="M839 -1l-33 544l-272 -544h-73l-120 543l-161 -473q-11 -32 -40 -54t-61 -22q-34 0 -59 22t-29 51l72 25q3 -8 4.5 -11t3.5 -6t4.5 -3.5t6.5 -0.5q13 0 22 15l209 601h74l126 -561l1 -1l2 2l-2 -1l285 561h74l45 -687h-79zM811 553l-1 -1l-4 -8v-4zM341 543l-2 8l-1 1
l1 -14z" />
    <glyph glyph-name="N" unicode="N" horiz-adv-x="787" 
d="M345 561l277 -397l-5 13l67 508h81l-96 -686h-34l-385 551l6 -11l-58 -447q-6 -45 -43 -70.5t-73 -25.5q-35 0 -61 26t-26 63q0 9 1 13q0 8 1 10l80 -4q-5 -10 -5 -13v-3q0 -15 16 -15q10 0 18.5 7.5t9.5 15.5l83 590h53z" />
    <glyph glyph-name="O" unicode="O" horiz-adv-x="815" 
d="M54 333l2 19q21 144 136.5 250t259.5 106q132 0 220 -91t88 -221q0 -24 -3 -48l-3 -19q-20 -147 -135 -251.5t-258 -104.5q-133 0 -221.5 90.5t-88.5 221.5q0 24 3 48zM678 333l2 19q3 21 3 42q0 102 -67 169.5t-167 67.5q-114 0 -206.5 -85t-108.5 -198l-3 -19
q-3 -21 -3 -41q0 -102 66.5 -170t166.5 -68q114 0 207 84t110 199z" />
    <glyph glyph-name="P" unicode="P" horiz-adv-x="621" 
d="M187 686h224q81 0 126 -50t45 -129q0 -21 -3 -42q-15 -106 -87 -161t-165 -55q-39 0 -86 6l6 76q72 -4 79 -4q153 0 174 145q2 11 2 32q0 100 -112 105h-118l-85 -610h-83l87 610q-24 -1 -34 -14q-18 -11 -19 -36l-76 4q1 2 1 6q0 45 41 86q42 31 83 31z" />
    <glyph glyph-name="Q" unicode="Q" horiz-adv-x="787" 
d="M112 -152l135 157q-94 28 -145 104t-51 178q0 33 4 60q21 150 129 249.5t255 99.5q135 0 215.5 -83.5t80.5 -214.5q0 -33 -4 -60q-21 -151 -129.5 -249.5t-256.5 -97.5h-21l-54 -65l57 -22q48 -18 100 -18q25 0 46 8t57 32l32 -65q-45 -31 -73 -40t-59 -9q-61 0 -127 23
l-85 28l-51 -62zM437 619q-118 0 -200.5 -78.5t-99.5 -200.5q-4 -36 -4 -51q0 -100 57 -161.5t160 -61.5q119 0 201.5 79.5t100.5 202.5q4 34 4 49q0 99 -58.5 160.5t-160.5 61.5z" />
    <glyph glyph-name="R" unicode="R" horiz-adv-x="728" 
d="M578 103l82 -6q-1 -45 -35 -76t-76 -31q-50 0 -76 44l-101 159q-22 39 -46.5 55.5t-73.5 19.5l8 77h94q66 0 108 44.5t42 113.5q0 48 -26.5 77t-71.5 29h-136l-85 -610h-83l85 610h-5q-15 0 -28 -12t-15 -28q0 -1 -0.5 -4.5t-0.5 -5.5l-77 4q3 52 43 92q38 31 83 31h229
q48 0 79 -19q42 -21 65.5 -65t23.5 -99q0 -22 -2 -33q-10 -72 -56 -122t-108 -63l-36 12q8 -3 22 -15l-13 -1h14q9 -7 14 -16l121 -190q5 -9 11 -9q10 0 20 9t11 19q0 5 -4 9zM405 281l-1 1q2 0 6.5 1t7.5 2l8 -4h-21z" />
    <glyph glyph-name="S" unicode="S" horiz-adv-x="572" 
d="M11 159l73 25q15 -63 57.5 -97.5t100.5 -34.5q67 0 116.5 43t57.5 104q1 6 1 18q0 32 -17 52t-54 43q-11 6 -43.5 21.5t-50 25t-44 27.5t-41 35t-25.5 42.5t-11 53.5q0 81 63.5 136t145.5 55q35 0 62 -12q42 -12 65 -40t23 -64q0 -44 -32 -75.5t-75 -31.5q-9 0 -23 2
l15 80q5 -9 12 -9q10 0 17.5 9.5t7.5 22.5q0 18 -23 29.5t-51 11.5q-51 0 -91 -32t-40 -74q0 -21 12 -39t33.5 -33.5t42.5 -27t48.5 -25.5t42.5 -23q108 -58 108 -157q0 -94 -77 -169.5t-177 -75.5q-83 0 -149 52.5t-80 131.5z" />
    <glyph glyph-name="T" unicode="T" horiz-adv-x="637" 
d="M636 608h-231l-85 -609h-83l85 609h-142q-10 0 -18 -8t-9 -17q0 -6 3 -8l-82 3q2 47 38 82q34 26 72 26h463z" />
    <glyph glyph-name="U" unicode="U" horiz-adv-x="760" 
d="M137 589l-65 51q15 24 44 39.5t56 15.5q44 0 70 -24t26 -65q0 -6 -2 -20l-44 -317q-3 -21 -3 -41q0 -73 40 -117t119 -44q95 0 152 61.5t69 144.5l58 414h83l-58 -418q-16 -112 -96 -195t-209 -83q-115 0 -178 67.5t-63 168.5q0 23 3 46l45 317v7q0 16 -14 16
q-24 0 -33 -24z" />
    <glyph glyph-name="V" unicode="V" horiz-adv-x="629" 
d="M138 583l-73 26q12 38 43.5 60.5t66.5 22.5q31 0 52.5 -17t26.5 -41l99 -502l257 555h84l-319 -688h-74l-118 602q-3 10 -13 10q-24 0 -32 -28z" />
    <glyph glyph-name="W" unicode="W" horiz-adv-x="1056" 
d="M1121 687l-320 -688h-74l-101 548l-255 -548h-74l-113 605q-4 13 -15 13q-23 0 -31 -29l-72 26q11 38 43 60t64 22q33 0 57.5 -20.5t28.5 -50.5l91 -491l-9 -23l1 1l8 18l4 -19l2 -11l-3 37l253 550h74l95 -528l-10 -74l1 5l4 21l10 22l4 -22l-1 27l254 549h84zM780 133
l-5 26l5 32l3 -53zM350 130v4l3 8v-5z" />
    <glyph glyph-name="X" unicode="X" horiz-adv-x="678" 
d="M369 351l122 -273q2 -6 11 -6q12 0 21 10.5t10 23.5l78 -8q-5 -48 -39.5 -76.5t-76.5 -28.5q-35 0 -54.5 19.5t-34.5 57.5l-96 215l-210 -286h-98l260 352l-164 335h92l131 -270l208 270h99z" />
    <glyph glyph-name="Y" unicode="Y" horiz-adv-x="643" 
d="M147 583l-82 12q6 46 41 73.5t73 27.5q56 0 81 -55l104 -251l207 297h96l-271 -389l-42 -299h-87l45 297l-125 311q-5 8 -15 8q-9 0 -17.5 -6.5t-9.5 -15.5q0 -6 2 -10z" />
    <glyph glyph-name="Z" unicode="Z" horiz-adv-x="601" 
d="M146 107l12 -3q18 -4 83.5 -23.5t96.5 -19.5q65 0 125 57l50 -56q-87 -76 -177 -76q-51 0 -133 26.5t-103 30.5l-48 -62l-60 38l435 590h-294l11 74h427z" />
    <glyph glyph-name="bracketleft" unicode="[" horiz-adv-x="355" 
d="M369 672h-172l-107 -763h172l-11 -78h-254l129 919h254z" />
    <glyph glyph-name="backslash" unicode="\" horiz-adv-x="362" 
d="M273 -68h-86l-103 818h86z" />
    <glyph glyph-name="bracketright" unicode="]" horiz-adv-x="356" 
d="M211 -169h-254l11 78h172l107 763h-172l11 78h254z" />
    <glyph glyph-name="asciicircum" unicode="^" horiz-adv-x="470" 
d="M431 360l-71 -47l-104 186l-154 -184l-62 45l216 259h31z" />
    <glyph glyph-name="underscore" unicode="_" horiz-adv-x="592" 
d="M453 -130h-450l10 77h450z" />
    <glyph glyph-name="grave" unicode="`" horiz-adv-x="282" 
d="M284 597l-39 -52l-172 120l57 67z" />
    <glyph glyph-name="a" unicode="a" 
d="M493 89l60 -47q-32 -52 -91 -52q-30 0 -53.5 17.5t-31.5 43.5q-57 -61 -149 -61t-140.5 60.5t-48.5 152.5q0 28 4 51q16 115 92.5 188.5t187.5 73.5q56 0 119 -9h66l-59 -420v-4q0 -17 15 -17q18 0 29 23zM387 195l36 239q-9 1 -50 4.5t-57 3.5q-80 0 -131.5 -54.5
t-63.5 -139.5q-3 -21 -3 -42q0 -62 29 -102t85 -40q88 0 134 77q16 21 21 54z" />
    <glyph glyph-name="b" unicode="b" horiz-adv-x="556" 
d="M199 727l-38 -262q59 51 140 51q87 0 137 -59.5t50 -156.5q0 -15 -4 -51q-16 -112 -88.5 -185.5t-200.5 -73.5q-52 0 -94 6q-50 5 -76 18l98 713h76zM107 71l38 -4q30 -5 52 -3q97 0 147 53t63 139q3 22 3 43q0 68 -32 105.5t-82 37.5q-48 0 -89 -31q-52 -31 -64 -85z
" />
    <glyph glyph-name="c" unicode="c" horiz-adv-x="534" 
d="M410 119l33 -62q-96 -63 -201 -63q-99 0 -151 54.5t-52 147.5q0 24 3 50q17 116 88 194.5t170 78.5q70 0 119.5 -38.5t49.5 -101.5q0 -15 -3 -32l-79 4q3 13 3 26q0 35 -24.5 53.5t-63.5 18.5q-74 0 -122.5 -64t-60.5 -148q-3 -21 -3 -39q0 -63 33 -97t95 -34
q66 0 166 52z" />
    <glyph glyph-name="d" unicode="d" 
d="M449 87v-2q0 -8 4.5 -13.5t11.5 -5.5q16 0 28 23l60 -47q-32 -52 -91 -52q-30 0 -53.5 17.5t-31.5 43.5q-57 -61 -148 -61t-140.5 60t-49.5 153q0 17 4 51q16 115 92.5 188.5t187.5 73.5q40 0 106 -8l33 220h77zM387 195l36 238q-60 9 -81 9q-193 0 -221 -189
q-3 -23 -3 -44q0 -66 29.5 -105.5t87.5 -39.5q84 0 131 77q16 21 21 54z" />
    <glyph glyph-name="e" unicode="e" horiz-adv-x="536" 
d="M409 115l33 -62q-96 -63 -203 -63q-100 0 -150.5 55t-50.5 145q0 24 3 48q7 50 26.5 97t50.5 88.5t78.5 67t104.5 25.5q71 0 119 -39t48 -103q0 -86 -68.5 -133.5t-178.5 -47.5l-103 -2q3 -127 124 -127q67 0 167 51zM124 265l103 2q75 0 119.5 26t44.5 81
q0 34 -25.5 52.5t-63.5 18.5q-70 0 -117 -56.5t-61 -123.5z" />
    <glyph glyph-name="f" unicode="f" horiz-adv-x="417" 
d="M-17 -253l106 753q34 243 197 243q62 0 98 -35t36 -96q0 -9 -2 -31q-12 -85 -74.5 -132t-155.5 -47h-37l-19 -135h144l-10 -74h-144l-63 -446h-76zM162 476h33q61 0 99 30.5t46 83.5q1 7 1 19q0 60 -59 60q-54 0 -80 -46t-37 -124z" />
    <glyph glyph-name="g" unicode="g" horiz-adv-x="557" 
d="M509 507l-85 -607q-11 -77 -61.5 -125t-117.5 -48q-66 0 -101 43t-35 102q0 74 54 130q-28 8 -46 28q-75 62 -75 191q0 24 3 43q14 101 92.5 176.5t185.5 75.5q16 0 64 -2l59 -7h63zM344 442h-29q-77 0 -132 -58.5t-65 -135.5q-2 -11 -2 -33q0 -63 30 -107t82 -44
q26 0 49 12q24 9 52 31t44 48q14 20 16 32l35 250zM349 -99l22 149q-21 -18 -26 -24q-11 -7 -39.5 -22.5t-57.5 -32.5q-65 -33 -65 -97q0 -30 17.5 -51t52.5 -21q38 0 62.5 27.5t33.5 71.5z" />
    <glyph glyph-name="h" unicode="h" horiz-adv-x="605" 
d="M199 730l-39 -274q66 62 158 62q74 0 113 -35t39 -99q0 -17 -3 -35l-37 -260v-2q0 -18 17 -18t27 22l61 -47q-35 -51 -91 -51q-39 0 -64.5 25t-25.5 61q0 9 1 14l36 257q2 18 2 24q0 71 -85 71q-46 0 -82.5 -22.5t-78.5 -69.5l-50 -351h-76l102 728h76z" />
    <glyph glyph-name="i" unicode="i" horiz-adv-x="260" 
d="M150 716q21 0 35.5 -15t14.5 -35q0 -21 -18 -38t-39 -17q-20 0 -34 14.5t-14 34.5q0 22 17.5 39t37.5 17zM99 87v-4q0 -7 4.5 -12t10.5 -5q20 0 28 23l62 -47q-36 -52 -93 -52q-38 0 -63.5 25.5t-25.5 61.5q0 9 1 14l58 417h77z" />
    <glyph glyph-name="j" unicode="j" horiz-adv-x="267" 
d="M213 716q21 0 35.5 -15t14.5 -35q0 -21 -18 -38t-39 -17q-20 0 -34 14.5t-14 34.5q0 22 17 39t38 17zM222 509l-93 -665q-6 -40 -37.5 -68.5t-71.5 -28.5q-60 0 -84 56l69 38q5 -11 8 -14t10 -3q11 0 19.5 7.5t10.5 16.5l92 661h77z" />
    <glyph glyph-name="k" unicode="k" horiz-adv-x="596" 
d="M199 728l-40 -278q63 68 153 68q65 0 104.5 -38.5t39.5 -99.5q0 -8 -2 -26q-13 -88 -104 -138l63 -133q1 -4 7 -4q29 0 32 24v10l78 -8q-3 -40 -36 -72.5t-73 -32.5q-25 0 -47.5 14t-30.5 35l-71 145h-148l-27 -194h-76l102 728h76zM137 266l99 2q43 0 71 14q75 27 75 98
q0 30 -19.5 48t-54.5 18q-47 0 -87.5 -32.5t-63.5 -90.5q-14 -29 -20 -57z" />
    <glyph glyph-name="l" unicode="l" horiz-adv-x="283" 
d="M108 88v-4q0 -17 16 -17t28 22l61 -46q-15 -24 -41.5 -38t-51.5 -14q-37 0 -62.5 26t-25.5 62q0 9 1 13l89 635h76z" />
    <glyph glyph-name="m" unicode="m" horiz-adv-x="899" 
d="M76 470l51 45q40 -27 48 -72q67 73 157 73q98 0 127 -78q70 78 160 78q65 0 104.5 -38.5t39.5 -99.5q0 -8 -2 -28l-37 -264v-3q0 -8 5.5 -13t11.5 -5q13 0 29 21l59 -45q-35 -52 -92 -52q-39 0 -64 25.5t-25 61.5q0 9 1 14l36 262q0 3 0.5 9t0.5 8q0 39 -16.5 56
t-53.5 17q-86 0 -146 -90l-50 -353h-76l48 340q2 20 2 28q0 75 -69 75q-44 0 -84 -25t-61 -63l-51 -355h-76l50 357q2 12 2 34q0 52 -29 80z" />
    <glyph glyph-name="n" unicode="n" horiz-adv-x="621" 
d="M59 470l52 45q40 -25 49 -77q75 78 174 78q72 0 112 -35t40 -102q0 -3 -0.5 -9t-0.5 -9l-39 -277v-3q0 -8 5 -13t11 -4q15 0 29 20l59 -45q-35 -52 -92 -52q-39 0 -64.5 26.5t-25.5 62.5q0 8 1 12l36 251q2 22 2 30q0 38 -19.5 55.5t-60.5 17.5q-48 0 -85 -22.5
t-79 -69.5l-50 -351h-77l50 357q3 20 3 35q0 52 -30 79z" />
    <glyph glyph-name="o" unicode="o" horiz-adv-x="620" 
d="M328 516q101 0 162 -63t61 -162q0 -21 -3 -43q-16 -113 -97 -185.5t-190 -72.5q-101 0 -161 62t-60 160q0 20 3 43q15 111 95 186t190 75zM326 442q-84 0 -138.5 -55t-66.5 -139q-3 -20 -3 -36q0 -68 39 -108t108 -40q83 0 138 55t67 141q3 20 3 36q0 68 -39 107t-108 39
z" />
    <glyph glyph-name="p" unicode="p" horiz-adv-x="571" 
d="M59 470l52 45q37 -28 47 -67q58 68 155 68q93 0 142 -60t49 -153q0 -17 -4 -51q-16 -116 -92 -189t-189 -73q-45 0 -105 7l-37 -251h-77l86 610q3 20 3 35q0 52 -30 79zM159 326l-38 -255q69 -7 96 -7q87 0 140 51t65 139q3 21 3 41q0 65 -29 106t-83 41q-52 0 -98 -33
t-56 -83z" />
    <glyph glyph-name="q" unicode="q" horiz-adv-x="557" 
d="M323 -254l42 293q-55 -49 -138 -49q-90 0 -139 60t-49 154q0 16 4 52q16 117 93 188.5t202 71.5q93 0 165 -24l-103 -746h-77zM384 179l38 255q-46 7 -82 7q-193 0 -218 -187q-4 -23 -4 -49q0 -65 28 -103t81 -38q54 0 99.5 32t57.5 83z" />
    <glyph glyph-name="r" unicode="r" horiz-adv-x="373" 
d="M69 470l52 45q38 -27 48 -72q27 32 54 51q43 22 93 22q14 0 69 -10l-6 -74q-34 9 -63 9q-51 0 -80 -25q-33 -20 -63 -64l-50 -353h-77l50 357q3 20 3 35q0 52 -30 79z" />
    <glyph glyph-name="s" unicode="s" horiz-adv-x="461" 
d="M4 56l44 58q61 -50 138 -50q51 0 85 23t34 70q0 20 -11 33.5t-36 27.5q-16 8 -46 19.5t-49.5 20.5t-40.5 23.5t-32 35t-11 48.5q0 69 50 110t119 41q36 0 75 -10.5t59 -27.5l-22 -71q-51 35 -115 35q-40 0 -63.5 -18.5t-23.5 -47.5q0 -26 25.5 -43t71.5 -35.5t69 -34.5
q60 -37 60 -104q0 -6 -2 -22q-10 -73 -69.5 -110t-134.5 -37q-105 0 -174 66z" />
    <glyph glyph-name="t" unicode="t" horiz-adv-x="384" 
d="M166 506h154l-11 -77h-154l-39 -281q-3 -19 -3 -35q0 -25 10 -37t34 -12q65 0 98 65l56 -48q-60 -91 -157 -91q-117 0 -117 123q0 18 3 39l67 476h76z" />
    <glyph glyph-name="u" unicode="u" horiz-adv-x="635" 
d="M58 458l48 62q25 -21 36.5 -32t25.5 -35.5t14 -50.5q0 -11 -1 -16l-31 -218q-2 -20 -2 -28q0 -39 19.5 -57t61.5 -18q48 0 83.5 21.5t79.5 70.5l51 351h77l-60 -422v-4q0 -7 5 -12t11 -5q16 0 28 22l61 -48q-36 -50 -91 -50q-35 0 -59.5 20.5t-29.5 50.5
q-71 -68 -163 -68q-73 0 -112.5 34.5t-39.5 101.5q0 3 0.5 9t0.5 9l35 244q1 11 -5 23t-12.5 18.5t-18 16t-12.5 10.5z" />
    <glyph glyph-name="v" unicode="v" horiz-adv-x="508" 
d="M58 464l48 62q62 -38 74 -118l53 -278l177 377h80l-237 -508h-71l-79 411l2 1q-13 43 -47 53z" />
    <glyph glyph-name="w" unicode="w" horiz-adv-x="833" 
d="M58 465l48 63q59 -39 73 -119l54 -276l175 375h71l70 -375l175 375h81l-236 -508h-72l-68 375l-177 -375h-72l-75 412q-14 44 -47 53z" />
    <glyph glyph-name="x" unicode="x" horiz-adv-x="571" 
d="M294 256l89 -186l-2 -3q3 -7 14 -7t19 7.5t10 16.5q0 8 -3 10l81 -8q-4 -44 -36.5 -74.5t-73.5 -30.5q-54 0 -79 49l-77 159l-146 -190h-92l197 255l-126 254h90l92 -190l142 190h93z" />
    <glyph glyph-name="y" unicode="y" horiz-adv-x="567" 
d="M520 508l-52 -364l-35 -248q-11 -81 -60.5 -127t-115.5 -46t-102 41.5t-36 101.5q0 8 2 24q10 68 52 108q-49 9 -76 40.5t-27 80.5q0 8 2 28l34 243q2 16 -20 41t-28 24l48 65q25 -22 37.5 -34t25.5 -35.5t13 -48.5q0 -10 -1 -16l-31 -218q-2 -20 -2 -28q0 -39 19.5 -57
t60.5 -18q45 0 79 19t73 59l-1 -1q14 18 17 37l47 329h77zM358 -104l20 142q-19 -13 -47 -28l-52 -25q-39 -20 -58.5 -42.5t-24.5 -58.5q-1 -6 -1 -19q0 -67 63 -67q39 0 66.5 27t33.5 71z" />
    <glyph glyph-name="z" unicode="z" horiz-adv-x="545" 
d="M470 478l-311 -377l57 -23q43 -17 98 -17q26 0 47 7.5t59 32.5l31 -65q-71 -49 -137 -49q-61 0 -123 23l-85 27l-51 -62l-55 46l337 411h-238l10 74h364z" />
    <glyph glyph-name="braceleft" unicode="{" horiz-adv-x="343" 
d="M130 260q12 -22 15 -47q1 -8 2 -24.5t2 -24.5q1 -16 1.5 -53t1.5 -67.5t3 -46.5q3 -20 12 -31q25 -40 128 -58l-17 -67q-6 1 -27 5t-32 6.5t-31 9t-33 13.5t-28.5 18.5t-27.5 26.5q-19 29 -25 71q-7 52 -10 183q0 25 -1 33q-3 18 -11 26h2q-17 17 -46 23q-18 8 -36 9
l-6 75q15 0 36 3q25 8 35 20q2 6 2 10t-2 16q-1 6 -4 18.5t-4 19.5v1l-15 57l-15 61q-7 26 -10 50q-3 18 -3 35q0 29 11 45q10 29 38 44q40 27 118 43l28 -67q-63 -10 -97 -31q-15 -17 -16 -19q-1 -4 -1 -13q0 -7 2 -21q1 -7 2.5 -14t3.5 -16t3 -14v-1l15 -58
q27 -95 27 -133q0 -35 -22 -57q-4 -10 -14 -15q29 -17 46 -44z" />
    <glyph glyph-name="bar" unicode="|" horiz-adv-x="228" 
d="M93 -68h-82l115 818h82z" />
    <glyph glyph-name="braceright" unicode="}" horiz-adv-x="342" 
d="M251 474l-15 -58q-1 -7 -4 -19.5t-4 -18.5q-2 -12 -2 -16t2 -10q10 -12 35 -20q21 -3 36 -3l-6 -75q-18 -1 -36 -9q-29 -6 -46 -23h2q-8 -8 -11 -26q-1 -8 -1 -33q-3 -131 -10 -183q-6 -42 -25 -71q-14 -17 -30.5 -30t-40.5 -21.5t-35 -12t-41.5 -9.5t-31.5 -6l-17 67
q103 18 128 58q9 11 12 31q2 16 3 46.5t1.5 67.5t1.5 53q1 8 2 24.5t2 24.5q3 25 15 47h1q15 26 45 44q-10 5 -14 15q-22 22 -22 57q0 39 27 133l15 58v1q1 5 3 14t3.5 16t2.5 14q2 14 2 21q0 9 -1 13q-1 2 -16 19q-34 21 -97 31l28 67q78 -16 118 -43q28 -15 38 -44
q11 -17 11 -45q0 -17 -3 -35q-3 -24 -10 -50z" />
    <glyph glyph-name="asciitilde" unicode="~" horiz-adv-x="543" 
d="M421 354l44 -60q-58 -47 -120 -52h-15q-35 0 -79 16.5t-63 16.5q-45 0 -89 -37l-43 60q67 51 133 51q44 0 84 -16t59 -16q43 0 89 37z" />
    <glyph glyph-name="uni00A0" unicode="&#xa0;" horiz-adv-x="350" 
 />
    <glyph glyph-name="exclamdown" unicode="&#xa1;" horiz-adv-x="251" 
d="M94 413q-20 0 -37.5 17.5t-17.5 38.5q0 20 14 34.5t34 14.5q21 0 39 -17t18 -38q0 -20 -14.5 -35t-35.5 -15zM180 -200l-71 572h73l89 -572h-91z" />
    <glyph glyph-name="cent" unicode="&#xa2;" horiz-adv-x="521" 
d="M351 685l-16 -101q60 -10 95 -49q34 -36 34 -88q0 -15 -3 -32l-78 4q3 15 3 29q0 25 -12 41q-21 17 -45 24l-57 -376q26 3 47 10t50.5 21.5t35.5 17.5l33 -60q-39 -29 -88 -47q-48 -14 -84 -17l-11 -63h-83l11 66q-88 17 -121 84q-27 48 -27 117q0 30 4 55q15 103 73 176
q61 69 140 85l16 103h83zM190 142l55 365q-49 -18 -81 -73q-40 -55 -51 -133q-3 -21 -3 -37q0 -43 18 -76q25 -34 62 -46z" />
    <glyph glyph-name="sterling" unicode="&#xa3;" horiz-adv-x="584" 
d="M146 372l16 112q11 83 67 133q61 49 160 49q67 0 121 -22l-6 -72q-65 20 -124 20q-60 0 -93 -31q-35 -27 -43 -81l-15 -108h149l-11 -79h-149l-23 -162l-3 -18l-4 -9q83 -30 109 -34q28 -6 45 -6q47 0 109 42l30 -70q-68 -49 -131 -49q-42 0 -69 6q-29 5 -60 17l-60 17
q-19 -31 -28 -38l-14 -1l-57 29q16 22 32 56q13 19 19 60l22 160h-79l11 79h79z" />
    <glyph glyph-name="currency" unicode="&#xa4;" horiz-adv-x="711" 
d="M673 537l-116 -104q24 -42 24 -103q0 -22 -3 -44q-7 -49 -22 -85q-20 -34 -40 -57l88 -100l-64 -59l-92 104q-24 -12 -54 -26q-36 -10 -78 -10q-43 0 -74 13q-28 7 -50 24l-120 -105l-52 59l115 102q-25 45 -25 104q0 22 3 44q7 50 23 86q20 34 40 57l-87 100l65 59
l90 -104q21 13 54 26q36 10 77 10q44 0 75 -14q28 -7 51 -24l121 106zM373 452q-36 0 -63 -13q-34 -11 -54 -34q-24 -18 -37 -51q-16 -28 -22 -68q-3 -20 -3 -39q0 -10 2 -28q7 -23 23 -51q19 -19 40 -31q26 -9 61 -9q37 0 64 14q28 10 54 35q24 20 37 52q17 29 21 67
q3 20 3 36q0 46 -24 81q-36 39 -102 39z" />
    <glyph glyph-name="yen" unicode="&#xa5;" horiz-adv-x="641" 
d="M417 384h135l-11 -76h-179l-5 -8l-10 -62h185l-10 -75h-185l-23 -164h-82l23 164h-188l10 75h186l10 62l-3 8h-184l11 76h140l-139 279h93l134 -273l209 273h97z" />
    <glyph glyph-name="brokenbar" unicode="&#xa6;" horiz-adv-x="220" 
d="M154 368h-82l53 382h82zM92 -68h-82l54 382h82z" />
    <glyph glyph-name="section" unicode="&#xa7;" horiz-adv-x="429" 
d="M353 677l13 -74q-90 -16 -124 -37q-40 -16 -40 -56q0 -25 31 -56q7 -6 26.5 -19t31.5 -23t23 -24q42 -39 42 -88q0 -64 -41 -114q-16 -12 -31 -22q15 -30 15 -63q0 -73 -69 -118q-64 -35 -169 -50l-12 74q89 17 123 37q35 14 40 47q0 1 0.5 4t0.5 5q0 25 -31 56
q-9 7 -26.5 19t-31 23t-24.5 24q-40 38 -40 89q0 61 39 113q25 18 31 23q-14 28 -14 58q0 77 69 122q67 37 168 50zM186 387q-43 -25 -43 -71q0 -20 24 -47q10 -9 31.5 -23.5t30.5 -22.5q42 24 42 69q0 20 -22 49q-62 45 -63 46z" />
    <glyph glyph-name="dieresis" unicode="&#xa8;" horiz-adv-x="461" 
d="M148 709q21 0 35.5 -15t14.5 -35q0 -21 -18 -38t-39 -17q-20 0 -34 14.5t-14 34.5q0 21 17.5 38.5t37.5 17.5zM363 709q21 0 35.5 -15t14.5 -35q0 -21 -18 -38t-39 -17q-20 0 -34 14.5t-14 34.5q0 21 17 38.5t38 17.5z" />
    <glyph glyph-name="copyright" unicode="&#xa9;" horiz-adv-x="746" 
d="M398 555q122 0 195 -73.5t73 -188.5q0 -24 -3 -48q-17 -133 -114.5 -218.5t-230.5 -85.5q-123 0 -195.5 73t-72.5 188q0 24 3 49q19 135 115 219.5t230 84.5zM396 485q-103 0 -179 -67.5t-90 -172.5q-3 -23 -3 -44q0 -88 52 -139.5t144 -51.5q104 0 179 70.5t90 175.5
q3 21 3 40q0 91 -51.5 140t-144.5 49zM440 189l30 -59q-61 -43 -120 -43q-60 0 -93 39t-33 98q0 72 44 131.5t111 59.5q23 0 49.5 -7t34.5 -18l-6 -49l-16 -9q-34 15 -57 15q-40 0 -63 -39.5t-23 -81.5q0 -34 16 -52.5t44 -18.5q34 0 82 34z" />
    <glyph glyph-name="ordfeminine" unicode="&#xaa;" horiz-adv-x="426" 
d="M331 454l44 -31q-29 -37 -62 -37q-32 0 -47 24q-30 -24 -69 -24q-52 0 -78.5 38.5t-26.5 89.5q0 52 27 92t67 60q32 10 55 10q10 0 31.5 -2t27.5 -2h52l-31 -220zM275 603l-13 1q-4 0 -7.5 0.5t-5.5 1t-3 0.5q-36 0 -61.5 -25.5t-25.5 -67.5q0 -24 10 -41t29 -17
q34 0 54 37l7 10z" />
    <glyph glyph-name="guillemotleft" unicode="&#xab;" horiz-adv-x="626" 
d="M371 439l-235 -184l183 -185l-58 -57l-182 187q-33 33 -29 59q3 20 41 52l234 185zM575 439l-235 -184l183 -185l-58 -57l-182 187q-33 33 -29 59q3 20 41 52l234 185z" />
    <glyph glyph-name="logicalnot" unicode="&#xac;" horiz-adv-x="501" 
d="M403 142h-84l16 114h-289l11 79h373z" />
    <glyph glyph-name="softhyphen" unicode="&#xad;" horiz-adv-x="612" 
d="M351 279h-311l11 79h311z" />
    <glyph glyph-name="registered" unicode="&#xae;" horiz-adv-x="746" 
d="M422 727q120 0 194.5 -74t74.5 -187q0 -16 -4 -50q-18 -134 -114 -218.5t-230 -84.5q-124 0 -196.5 73t-72.5 188q0 24 3 49q19 136 116 220t229 84zM420 657q-105 0 -180 -68t-89 -173q-3 -22 -3 -43q0 -89 51.5 -140t144.5 -51q104 0 179 70t90 175q3 21 3 42
q0 91 -51.5 139.5t-144.5 48.5zM306 593h45q9 0 27.5 2.5t29.5 2.5q50 0 81.5 -27.5t31.5 -71.5q0 -63 -58 -101q12 -12 20 -37l28 -98l-69 -29l-22 96q-11 47 -63 47h-12l-21 -145h-69l13 99l23 164zM354 439h43q24 0 39.5 16t15.5 40q0 35 -52 35q-16 0 -32 -3z" />
    <glyph glyph-name="macron" unicode="&#xaf;" horiz-adv-x="459" 
d="M435 608h-340l11 78h340z" />
    <glyph glyph-name="degree" unicode="&#xb0;" horiz-adv-x="415" 
d="M249 667q56 0 90 -33.5t34 -88.5q0 -78 -49 -119.5t-110 -41.5q-56 0 -90 33.5t-34 88.5q0 8 2 24q10 67 56 102t101 35zM246 596q-35 0 -58 -26t-23 -64q0 -24 14 -38t39 -14q35 0 57.5 25.5t22.5 64.5q0 52 -52 52z" />
    <glyph glyph-name="plusminus" unicode="&#xb1;" horiz-adv-x="507" 
d="M290 332h153l-11 -73h-153l-22 -156h-78l22 156h-153l11 73h153l21 155h78zM396 -1h-384l10 74h384z" />
    <glyph glyph-name="twosuperior" unicode="&#xb2;" horiz-adv-x="322" 
d="M154 556l-63 37q14 42 46 66.5t73 24.5q40 0 65 -23t25 -59q0 -9 -1 -13q-4 -24 -18 -45.5t-24.5 -30.5t-38.5 -28t-34 -23l-20 -14h127l-10 -69h-215l4 31q9 58 88 120q25 15 35.5 21.5t23 19.5t14.5 27v4q0 16 -22 16q-21 0 -36 -13.5t-18 -36.5q-1 -2 -1 -12z" />
    <glyph glyph-name="threesuperior" unicode="&#xb3;" horiz-adv-x="333" 
d="M130 659l-1 1q39 24 76 24t65 -22t28 -55q0 -31 -30 -64q25 -23 25 -65q0 -48 -38.5 -77t-84.5 -29q-42 0 -71.5 20t-43.5 41l49 51q21 -27 32 -35t31 -8q24 0 39.5 10.5t15.5 28.5q0 25 -35 27h-67l10 68h64q9 0 19.5 9.5t11.5 19.5q0 11 -22 11q-24 0 -66 -32l-29 60z
" />
    <glyph glyph-name="acute" unicode="&#xb4;" horiz-adv-x="334" 
d="M322 665l-202 -120l-28 52l188 135z" />
    <glyph glyph-name="uni00B5" unicode="&#xb5;" horiz-adv-x="540" 
d="M472 506l-50 -357q-3 -21 -3 -37q0 -50 29 -78l-52 -45q-30 20 -41 54q-6 11 -8 25q-72 -78 -164 -78q-39 0 -62 9q-13 2 -31 10l-37 -252h-77l105 749h77l-47 -326l2 -2q-6 -28 -6 -48q0 -29 12 -47q18 -19 72 -19q44 0 78 26q35 20 76 68l50 348h77z" />
    <glyph glyph-name="paragraph" unicode="&#xb6;" horiz-adv-x="524" 
d="M492 618l-87 -618h-80l76 540h-56l-76 -540h-80l36 243q-112 12 -150 56q-32 35 -32 97q0 17 3 37q14 102 81 147q69 41 229 41h46z" />
    <glyph glyph-name="periodcentered" unicode="&#xb7;" horiz-adv-x="248" 
d="M126 397q26 0 44.5 -18.5t18.5 -44.5q0 -29 -23.5 -52.5t-51.5 -23.5q-27 0 -45.5 19t-18.5 45q0 7 1 10q3 26 26 45.5t49 19.5z" />
    <glyph glyph-name="cedilla" unicode="&#xb8;" horiz-adv-x="281" 
d="M116 33l-21 -51q57 -16 57 -84q0 -46 -39 -87.5t-97 -35.5l7 75q4 -1 10 -1q18 0 31.5 15t13.5 33q0 20 -30 20h-45l29 116h84z" />
    <glyph glyph-name="onesuperior" unicode="&#xb9;" horiz-adv-x="243" 
d="M260 711l-43 -308h-70l31 204q-20 -6 -38 -6q-9 0 -17 2l-15 77q17 -12 30 -12q5 0 10.5 1.5t10 3.5t13 6.5t14 7.5t18 11t20.5 13h36z" />
    <glyph glyph-name="ordmasculine" unicode="&#xba;" horiz-adv-x="429" 
d="M259 701q68 0 103 -46q29 -31 29 -84q0 -75 -56 -133q-48 -41 -109 -41q-70 0 -104 48q-28 33 -28 83q0 32 14.5 69t40.5 63q49 41 110 41zM258 634q-36 0 -61.5 -22t-29.5 -58q-2 -20 -2 -27q0 -25 10 -44q15 -19 49 -19q40 0 64 28q33 30 33 81q0 25 -12 43
q-18 18 -51 18z" />
    <glyph glyph-name="guillemotright" unicode="&#xbb;" horiz-adv-x="626" 
d="M133 496l182 -187q29 -26 29 -52t-40 -59l-235 -185l-45 57l234 185l-182 184zM337 496l183 -187q28 -31 28 -53q0 -23 -40 -58l-235 -185l-45 57l234 185l-182 184z" />
    <glyph glyph-name="onequarter" unicode="&#xbc;" horiz-adv-x="814" 
d="M228 509l-43 -308h-70l31 204q-20 -6 -38 -6q-9 0 -17 2l-15 77q17 -12 30 -12q5 0 10.5 1.5t10 3.5t13 6.5t14 7.5t18 11t20.5 13h36zM260 -1h-85l294 509h83zM569 133h37l12 86h71l-12 -86h33l-9 -68h-33l-7 -51h-71l7 51h-123l5 47l116 206h78z" />
    <glyph glyph-name="onehalf" unicode="&#xbd;" horiz-adv-x="805" 
d="M228 509l-43 -308h-70l31 204q-20 -6 -38 -6q-9 0 -17 2l-15 77q17 -12 30 -12q5 0 10.5 1.5t10 3.5t13 6.5t14 7.5t18 11t20.5 13h36zM260 -1h-85l294 509h83zM557 188l-63 37q14 42 46 66.5t73 24.5q40 0 65 -23t25 -59q0 -9 -1 -13q-4 -24 -18 -45.5t-24.5 -30.5
t-38.5 -28t-34 -23l-20 -14h127l-10 -69h-215l4 31q9 58 88 120q25 15 35.5 21.5t23 19.5t14.5 27v4q0 16 -22 16q-21 0 -36 -13.5t-18 -36.5q-1 -2 -1 -12z" />
    <glyph glyph-name="threequarters" unicode="&#xbe;" horiz-adv-x="904" 
d="M125 487l-1 1q39 24 76 24t65 -22t28 -55q0 -31 -30 -64q25 -23 25 -65q0 -48 -38.5 -77t-84.5 -29q-42 0 -71.5 20t-43.5 41l49 51q21 -27 32 -35t31 -8q24 0 39.5 10.5t15.5 28.5q0 25 -35 27h-67l10 68h64q9 0 19.5 9.5t11.5 19.5q0 11 -22 11q-24 0 -66 -32l-29 60z
M350 -1h-85l294 509h83zM659 133h37l12 86h71l-12 -86h33l-9 -68h-33l-7 -51h-71l7 51h-123l5 47l116 206h78z" />
    <glyph glyph-name="questiondown" unicode="&#xbf;" horiz-adv-x="521" 
d="M350 444q-21 0 -37 16.5t-16 37.5q0 23 19 42.5t42 19.5q22 0 38 -16t16 -39t-19.5 -42t-42.5 -19zM339 -9l-7 73q2 0 6 0.5t8 0.5q41 0 63.5 -22t22.5 -56q0 -48 -37.5 -83t-83 -49.5t-88.5 -14.5q-79 0 -128 52.5t-49 130.5q0 9 2 31q6 45 27 83q15 23 38.5 45
t35.5 29.5t42 26.5q8 4 27.5 14.5l26 14t20.5 12t19 13t14 12.5t12.5 14.5t7 15.5t4.5 19q1 6 1 21q0 16 -1 25l72 12q3 -20 3 -38q0 -7 -2 -27q-5 -33 -16.5 -57.5t-34.5 -44t-39 -29.5t-50 -29q-79 -38 -108 -82q-29 -38 -29 -77q0 -45 32 -78.5t82 -33.5q41 0 82 19.5
t45 45.5q0 11 -20 11z" />
    <glyph glyph-name="Agrave" unicode="&#xc0;" horiz-adv-x="817" 
d="M494 726l-172 120l57 67l154 -135zM690 -1h-85l-61 221h-271l-92 -167q-14 -27 -41 -42t-54 -15q-40 0 -67.5 28.5t-23.5 66.5l78 11q0 -26 17 -26q13 0 21 14l344 598h34zM451 540l1 3zM521 298l-68 244l-136 -244h204z" />
    <glyph glyph-name="Aacute" unicode="&#xc1;" horiz-adv-x="817" 
d="M471 726l-28 52l188 135l42 -67zM690 -1h-85l-61 221h-271l-92 -167q-14 -27 -41 -42t-54 -15q-40 0 -67.5 28.5t-23.5 66.5l78 11q0 -26 17 -26q13 0 21 14l344 598h34zM451 540l1 3zM521 298l-68 244l-136 -244h204z" />
    <glyph glyph-name="Acircumflex" unicode="&#xc2;" horiz-adv-x="817" 
d="M412 767h-98l163 161h58l117 -161h-94l-60 81zM690 -1h-85l-61 221h-271l-92 -167q-14 -27 -41 -42t-54 -15q-40 0 -67.5 28.5t-23.5 66.5l78 11q0 -26 17 -26q13 0 21 14l344 598h34zM451 540l1 3zM521 298l-68 244l-136 -244h204z" />
    <glyph glyph-name="Atilde" unicode="&#xc3;" horiz-adv-x="817" 
d="M638 886l45 -60q-28 -20 -40.5 -28t-36 -15.5t-51.5 -7.5q-17 0 -47.5 8t-54.5 16t-26 8q-34 0 -80 -38l-44 60q67 53 125 53q35 0 76.5 -17t55.5 -17q30 0 78 38zM690 -1h-85l-61 221h-271l-92 -167q-14 -27 -41 -42t-54 -15q-40 0 -67.5 28.5t-23.5 66.5l78 11
q0 -26 17 -26q13 0 21 14l344 598h34zM451 540l1 3zM521 298l-68 244l-136 -244h204z" />
    <glyph glyph-name="Adieresis" unicode="&#xc4;" horiz-adv-x="817" 
d="M346 781q-20 0 -34 14.5t-14 34.5q0 22 17 39t38 17t35.5 -15t14.5 -35q0 -21 -18 -38t-39 -17zM561 781q-20 0 -34 14.5t-14 34.5q0 22 17.5 39t37.5 17q21 0 35.5 -15t14.5 -35q0 -21 -18 -38t-39 -17zM690 -1h-85l-61 221h-271l-92 -167q-14 -27 -41 -42t-54 -15
q-40 0 -67.5 28.5t-23.5 66.5l78 11q0 -26 17 -26q13 0 21 14l344 598h34zM451 540l1 3zM521 298l-68 244l-136 -244h204z" />
    <glyph glyph-name="Aring" unicode="&#xc5;" horiz-adv-x="817" 
d="M478 711q-45 0 -71 26t-26 68q0 55 34.5 92t88.5 37q45 0 71.5 -26.5t26.5 -68.5q0 -55 -36 -91.5t-88 -36.5zM452 818q-1 -4 -1 -10q0 -32 29 -32q21 0 37 17.5t16 41.5q0 33 -31 33q-20 0 -33 -13.5t-17 -36.5zM690 -1h-85l-61 221h-271l-92 -167q-14 -27 -41 -42
t-54 -15q-40 0 -67.5 28.5t-23.5 66.5l78 11q0 -26 17 -26q13 0 21 14l344 598h34zM451 540l1 3zM521 298l-68 244l-136 -244h204z" />
    <glyph glyph-name="AE" unicode="&#xc6;" horiz-adv-x="945" 
d="M904 608h-375l-29 -207h307l-11 -79h-307l-34 -244h395l-11 -79h-478l31 221h-166l-145 -221h-99l457 687h476zM275 298h128l32 240l19 38z" />
    <glyph glyph-name="Ccedilla" unicode="&#xc7;" horiz-adv-x="748" 
d="M600 559l1 7q0 9 -8 25q-39 44 -137 44q-116 0 -212.5 -90.5t-113.5 -211.5q-3 -21 -3 -42q0 -101 65.5 -168.5t168.5 -67.5q72 0 137 33.5t108 91.5l60 -47q-56 -72 -133.5 -111.5t-159.5 -43.5l-7 -16q57 -16 57 -84q0 -46 -39 -87.5t-97 -35.5l7 75q4 -1 10 -1
q18 0 31.5 15t13.5 33q0 20 -30 20h-45l22 87q-110 20 -177.5 105t-67.5 200q0 28 4 52q21 149 141 259.5t262 110.5q62 0 121.5 -22.5t82.5 -68.5q14 -23 14 -54q0 -45 -32 -79.5t-75 -34.5q-42 0 -68 30l51 57q13 -11 21 -11q9 0 17.5 9t9.5 22z" />
    <glyph glyph-name="Egrave" unicode="&#xc8;" horiz-adv-x="659" 
d="M475 776l-39 -52l-172 120l57 67zM637 609h-375l-29 -208h259l-11 -79h-259l-34 -244h375l-11 -79h-458l87 609q-15 0 -25 -13q-14 -7 -17 -26q0 -1 -0.5 -4.5t-0.5 -5.5l-76 4q1 2 1 6q0 45 41 86q42 31 83 31h461z" />
    <glyph glyph-name="Eacute" unicode="&#xc9;" horiz-adv-x="659" 
d="M615 844l-202 -120l-28 52l188 135zM637 609h-375l-29 -208h259l-11 -79h-259l-34 -244h375l-11 -79h-458l87 609q-15 0 -25 -13q-14 -7 -17 -26q0 -1 -0.5 -4.5t-0.5 -5.5l-76 4q1 2 1 6q0 45 41 86q42 31 83 31h461z" />
    <glyph glyph-name="Ecircumflex" unicode="&#xca;" horiz-adv-x="659" 
d="M594 765h-94l-60 81l-86 -81h-98l163 161h58zM637 609h-375l-29 -208h259l-11 -79h-259l-34 -244h375l-11 -79h-458l87 609q-15 0 -25 -13q-14 -7 -17 -26q0 -1 -0.5 -4.5t-0.5 -5.5l-76 4q1 2 1 6q0 45 41 86q42 31 83 31h461z" />
    <glyph glyph-name="Edieresis" unicode="&#xcb;" horiz-adv-x="659" 
d="M295 884q21 0 35.5 -15t14.5 -35q0 -21 -18 -38t-39 -17q-20 0 -34 14.5t-14 34.5q0 22 17 39t38 17zM510 884q21 0 35.5 -15t14.5 -35q0 -21 -18 -38t-39 -17q-20 0 -34 14.5t-14 34.5q0 22 17.5 39t37.5 17zM637 609h-375l-29 -208h259l-11 -79h-259l-34 -244h375
l-11 -79h-458l87 609q-15 0 -25 -13q-14 -7 -17 -26q0 -1 -0.5 -4.5t-0.5 -5.5l-76 4q1 2 1 6q0 45 41 86q42 31 83 31h461z" />
    <glyph glyph-name="Igrave" unicode="&#xcc;" horiz-adv-x="228" 
d="M216 776l-39 -52l-172 120l57 67zM103 -1h-82l96 687h82z" />
    <glyph glyph-name="Iacute" unicode="&#xcd;" horiz-adv-x="228" 
d="M356 844l-202 -120l-28 52l188 135zM103 -1h-82l96 687h82z" />
    <glyph glyph-name="Icircumflex" unicode="&#xce;" horiz-adv-x="228" 
d="M335 765h-94l-60 81l-86 -81h-98l163 161h58zM103 -1h-82l96 687h82z" />
    <glyph glyph-name="Idieresis" unicode="&#xcf;" horiz-adv-x="228" 
d="M36 884q21 0 35.5 -15t14.5 -35q0 -21 -18 -38t-39 -17q-20 0 -34 14.5t-14 34.5q0 22 17.5 39t37.5 17zM251 884q21 0 35.5 -15t14.5 -35q0 -21 -18 -38t-39 -17q-20 0 -34 14.5t-14 34.5q0 22 17 39t38 17zM103 -1h-82l96 687h82z" />
    <glyph glyph-name="Eth" unicode="&#xd0;" horiz-adv-x="812" 
d="M190 691h291q130 -11 202.5 -90t72.5 -208q0 -29 -5 -67q-47 -335 -476 -335q-73 0 -113 4l-29 2h-1l-28 4l44 307h-119l11 79h119l33 227q-26 -2 -35 -15q-14 -8 -14 -22l-13 -10l-67 2q4 55 43 93q42 30 84 29zM229 308l-34 -237q90 -5 151 -5q131 0 219 73t106 204
q4 24 4 52q0 98 -56 156.5t-156 62.5h-190l-33 -227h111l-11 -79h-111z" />
    <glyph glyph-name="Ntilde" unicode="&#xd1;" horiz-adv-x="787" 
d="M648 884l45 -60q-28 -20 -40.5 -28t-36 -15.5t-51.5 -7.5q-17 0 -47.5 8t-54.5 16t-26 8q-34 0 -80 -38l-44 60q67 53 125 53q36 0 77 -17t55 -17q30 0 78 38zM345 561l277 -397l-5 13l67 508h81l-96 -686h-34l-385 551l6 -11l-58 -447q-6 -45 -43 -70.5t-73 -25.5
q-35 0 -61 26t-26 63q0 9 1 13q0 8 1 10l80 -4q-5 -10 -5 -13v-3q0 -15 16 -15q10 0 18.5 7.5t9.5 15.5l83 590h53z" />
    <glyph glyph-name="Ograve" unicode="&#xd2;" horiz-adv-x="815" 
d="M512 776l-39 -52l-172 120l57 67zM54 333l2 19q21 144 136.5 250t259.5 106q132 0 220 -91t88 -221q0 -24 -3 -48l-3 -19q-20 -147 -135 -251.5t-258 -104.5q-133 0 -221.5 90.5t-88.5 221.5q0 24 3 48zM678 333l2 19q3 21 3 42q0 102 -67 169.5t-167 67.5
q-114 0 -206.5 -85t-108.5 -198l-3 -19q-3 -21 -3 -41q0 -102 66.5 -170t166.5 -68q114 0 207 84t110 199z" />
    <glyph glyph-name="Oacute" unicode="&#xd3;" horiz-adv-x="815" 
d="M652 844l-202 -120l-28 52l188 135zM54 333l2 19q21 144 136.5 250t259.5 106q132 0 220 -91t88 -221q0 -24 -3 -48l-3 -19q-20 -147 -135 -251.5t-258 -104.5q-133 0 -221.5 90.5t-88.5 221.5q0 24 3 48zM678 333l2 19q3 21 3 42q0 102 -67 169.5t-167 67.5
q-114 0 -206.5 -85t-108.5 -198l-3 -19q-3 -21 -3 -41q0 -102 66.5 -170t166.5 -68q114 0 207 84t110 199z" />
    <glyph glyph-name="Ocircumflex" unicode="&#xd4;" horiz-adv-x="815" 
d="M631 765h-94l-60 81l-86 -81h-98l163 161h58zM54 333l2 19q21 144 136.5 250t259.5 106q132 0 220 -91t88 -221q0 -24 -3 -48l-3 -19q-20 -147 -135 -251.5t-258 -104.5q-133 0 -221.5 90.5t-88.5 221.5q0 24 3 48zM678 333l2 19q3 21 3 42q0 102 -67 169.5t-167 67.5
q-114 0 -206.5 -85t-108.5 -198l-3 -19q-3 -21 -3 -41q0 -102 66.5 -170t166.5 -68q114 0 207 84t110 199z" />
    <glyph glyph-name="Otilde" unicode="&#xd5;" horiz-adv-x="815" 
d="M617 884l45 -60q-28 -20 -40.5 -28t-36 -15.5t-51.5 -7.5q-17 0 -47.5 8t-54.5 16t-26 8q-34 0 -80 -38l-44 60q67 53 125 53q35 0 76 -17t56 -17q30 0 78 38zM54 333l2 19q21 144 136.5 250t259.5 106q132 0 220 -91t88 -221q0 -24 -3 -48l-3 -19q-20 -147 -135 -251.5
t-258 -104.5q-133 0 -221.5 90.5t-88.5 221.5q0 24 3 48zM678 333l2 19q3 21 3 42q0 102 -67 169.5t-167 67.5q-114 0 -206.5 -85t-108.5 -198l-3 -19q-3 -21 -3 -41q0 -102 66.5 -170t166.5 -68q114 0 207 84t110 199z" />
    <glyph glyph-name="Odieresis" unicode="&#xd6;" horiz-adv-x="815" 
d="M332 884q21 0 35.5 -15t14.5 -35q0 -21 -18 -38t-39 -17q-20 0 -34 14.5t-14 34.5q0 22 17.5 39t37.5 17zM547 884q21 0 35.5 -15t14.5 -35q0 -21 -18 -38t-39 -17q-20 0 -34 14.5t-14 34.5q0 22 17 39t38 17zM54 333l2 19q21 144 136.5 250t259.5 106q132 0 220 -91
t88 -221q0 -24 -3 -48l-3 -19q-20 -147 -135 -251.5t-258 -104.5q-133 0 -221.5 90.5t-88.5 221.5q0 24 3 48zM678 333l2 19q3 21 3 42q0 102 -67 169.5t-167 67.5q-114 0 -206.5 -85t-108.5 -198l-3 -19q-3 -21 -3 -41q0 -102 66.5 -170t166.5 -68q114 0 207 84t110 199z
" />
    <glyph glyph-name="multiply" unicode="&#xd7;" horiz-adv-x="530" 
d="M468 409l-157 -138l124 -144l-65 -59l-123 145l-166 -146l-50 57l166 144l-119 139l64 58l119 -139l156 139z" />
    <glyph glyph-name="Oslash" unicode="&#xd8;" horiz-adv-x="815" 
d="M691 659l-27 -34q96 -91 96 -229q0 -24 -3 -48l-3 -19q-20 -147 -135 -251.5t-258 -104.5q-103 0 -182 57l-45 -55l-84 25l70 85q-69 85 -69 200q0 24 3 48l2 19q21 144 136.5 250t259.5 106q81 0 148 -36l10 12zM134 348l-3 -19q-3 -21 -3 -41q0 -79 43 -141l378 463
q-48 21 -100 21q-114 0 -206.5 -85t-108.5 -198zM678 333l2 19q3 21 3 42q0 103 -68 171l-387 -475q59 -40 133 -40q114 0 207 84t110 199z" />
    <glyph glyph-name="Ugrave" unicode="&#xd9;" horiz-adv-x="760" 
d="M528 776l-39 -52l-172 120l57 67zM137 589l-65 51q15 24 44 39.5t56 15.5q44 0 70 -24t26 -65q0 -6 -2 -20l-44 -317q-3 -21 -3 -41q0 -73 40 -117t119 -44q95 0 152 61.5t69 144.5l58 414h83l-58 -418q-16 -112 -96 -195t-209 -83q-115 0 -178 67.5t-63 168.5q0 23 3 46
l45 317v7q0 16 -14 16q-24 0 -33 -24z" />
    <glyph glyph-name="Uacute" unicode="&#xda;" horiz-adv-x="760" 
d="M668 844l-202 -120l-28 52l188 135zM137 589l-65 51q15 24 44 39.5t56 15.5q44 0 70 -24t26 -65q0 -6 -2 -20l-44 -317q-3 -21 -3 -41q0 -73 40 -117t119 -44q95 0 152 61.5t69 144.5l58 414h83l-58 -418q-16 -112 -96 -195t-209 -83q-115 0 -178 67.5t-63 168.5
q0 23 3 46l45 317v7q0 16 -14 16q-24 0 -33 -24z" />
    <glyph glyph-name="Ucircumflex" unicode="&#xdb;" horiz-adv-x="760" 
d="M647 765h-94l-60 81l-86 -81h-98l163 161h58zM137 589l-65 51q15 24 44 39.5t56 15.5q44 0 70 -24t26 -65q0 -6 -2 -20l-44 -317q-3 -21 -3 -41q0 -73 40 -117t119 -44q95 0 152 61.5t69 144.5l58 414h83l-58 -418q-16 -112 -96 -195t-209 -83q-115 0 -178 67.5
t-63 168.5q0 23 3 46l45 317v7q0 16 -14 16q-24 0 -33 -24z" />
    <glyph glyph-name="Udieresis" unicode="&#xdc;" horiz-adv-x="760" 
d="M348 884q21 0 35.5 -15t14.5 -35q0 -21 -18 -38t-39 -17q-20 0 -34 14.5t-14 34.5q0 22 17.5 39t37.5 17zM563 884q21 0 35.5 -15t14.5 -35q0 -21 -18 -38t-39 -17q-20 0 -34 14.5t-14 34.5q0 22 17 39t38 17zM137 589l-65 51q15 24 44 39.5t56 15.5q44 0 70 -24t26 -65
q0 -6 -2 -20l-44 -317q-3 -21 -3 -41q0 -73 40 -117t119 -44q95 0 152 61.5t69 144.5l58 414h83l-58 -418q-16 -112 -96 -195t-209 -83q-115 0 -178 67.5t-63 168.5q0 23 3 46l45 317v7q0 16 -14 16q-24 0 -33 -24z" />
    <glyph glyph-name="Yacute" unicode="&#xdd;" horiz-adv-x="643" 
d="M603 844l-202 -120l-28 52l188 135zM147 583l-82 12q6 46 41 73.5t73 27.5q56 0 81 -55l104 -251l207 297h96l-271 -389l-42 -299h-87l45 297l-125 311q-5 8 -15 8q-9 0 -17.5 -6.5t-9.5 -15.5q0 -6 2 -10z" />
    <glyph glyph-name="Thorn" unicode="&#xde;" horiz-adv-x="549" 
d="M182 569h139q79 -4 125 -52.5t46 -127.5q0 -19 -3 -40q-15 -108 -90.5 -162.5t-182.5 -54.5q-31 0 -67 6l7 77q44 -7 66 -7q75 0 126 38t61 114q2 10 2 29q0 51 -30.5 77.5t-86.5 26.5h-123l-69 -494h-82l96 687h82z" />
    <glyph glyph-name="germandbls" unicode="&#xdf;" horiz-adv-x="532" 
d="M-14 -243l103 735q34 243 199 243q62 0 98 -32.5t36 -84.5q0 -30 -30 -69t-60.5 -79t-30.5 -71q0 -23 18 -37t48 -30t46 -35q47 -52 32 -137q-12 -89 -76 -129.5t-156 -40.5q-28 0 -117 7l-34 -240h-76zM165 491l-61 -421q48 -6 103 -6q80 0 118.5 24t45.5 79q3 31 -1 51
t-25 45q-12 12 -49 33.5t-55.5 45.5t-14.5 61q5 37 61 112t56 97q0 49 -59 49q-55 0 -81 -45t-38 -125z" />
    <glyph glyph-name="agrave" unicode="&#xe0;" 
d="M377 605l-39 -52l-172 120l57 67zM493 89l60 -47q-32 -52 -91 -52q-30 0 -53.5 17.5t-31.5 43.5q-57 -61 -149 -61t-140.5 60.5t-48.5 152.5q0 28 4 51q16 115 92.5 188.5t187.5 73.5q56 0 119 -9h66l-59 -420v-4q0 -17 15 -17q18 0 29 23zM387 195l36 239q-9 1 -50 4.5
t-57 3.5q-80 0 -131.5 -54.5t-63.5 -139.5q-3 -21 -3 -42q0 -62 29 -102t85 -40q88 0 134 77q16 21 21 54z" />
    <glyph glyph-name="aacute" unicode="&#xe1;" 
d="M517 673l-202 -120l-28 52l188 135zM493 89l60 -47q-32 -52 -91 -52q-30 0 -53.5 17.5t-31.5 43.5q-57 -61 -149 -61t-140.5 60.5t-48.5 152.5q0 28 4 51q16 115 92.5 188.5t187.5 73.5q56 0 119 -9h66l-59 -420v-4q0 -17 15 -17q18 0 29 23zM387 195l36 239
q-9 1 -50 4.5t-57 3.5q-80 0 -131.5 -54.5t-63.5 -139.5q-3 -21 -3 -42q0 -62 29 -102t85 -40q88 0 134 77q16 21 21 54z" />
    <glyph glyph-name="acircumflex" unicode="&#xe2;" 
d="M496 594h-94l-60 81l-86 -81h-98l163 161h58zM493 89l60 -47q-32 -52 -91 -52q-30 0 -53.5 17.5t-31.5 43.5q-57 -61 -149 -61t-140.5 60.5t-48.5 152.5q0 28 4 51q16 115 92.5 188.5t187.5 73.5q56 0 119 -9h66l-59 -420v-4q0 -17 15 -17q18 0 29 23zM387 195l36 239
q-9 1 -50 4.5t-57 3.5q-80 0 -131.5 -54.5t-63.5 -139.5q-3 -21 -3 -42q0 -62 29 -102t85 -40q88 0 134 77q16 21 21 54z" />
    <glyph glyph-name="atilde" unicode="&#xe3;" 
d="M482 713l45 -60q-28 -20 -40.5 -28t-36 -15.5t-51.5 -7.5q-17 0 -47.5 8t-54.5 16t-26 8q-34 0 -80 -38l-44 60q67 53 125 53q36 0 77 -17t55 -17q30 0 78 38zM493 89l60 -47q-32 -52 -91 -52q-30 0 -53.5 17.5t-31.5 43.5q-57 -61 -149 -61t-140.5 60.5t-48.5 152.5
q0 28 4 51q16 115 92.5 188.5t187.5 73.5q56 0 119 -9h66l-59 -420v-4q0 -17 15 -17q18 0 29 23zM387 195l36 239q-9 1 -50 4.5t-57 3.5q-80 0 -131.5 -54.5t-63.5 -139.5q-3 -21 -3 -42q0 -62 29 -102t85 -40q88 0 134 77q16 21 21 54z" />
    <glyph glyph-name="adieresis" unicode="&#xe4;" 
d="M197 713q21 0 35.5 -15t14.5 -35q0 -21 -18 -38t-39 -17q-20 0 -34 14.5t-14 34.5q0 21 17 38.5t38 17.5zM412 713q21 0 35.5 -15t14.5 -35q0 -21 -18 -38t-39 -17q-20 0 -34 14.5t-14 34.5q0 21 17.5 38.5t37.5 17.5zM493 89l60 -47q-32 -52 -91 -52q-30 0 -53.5 17.5
t-31.5 43.5q-57 -61 -149 -61t-140.5 60.5t-48.5 152.5q0 28 4 51q16 115 92.5 188.5t187.5 73.5q56 0 119 -9h66l-59 -420v-4q0 -17 15 -17q18 0 29 23zM387 195l36 239q-9 1 -50 4.5t-57 3.5q-80 0 -131.5 -54.5t-63.5 -139.5q-3 -21 -3 -42q0 -62 29 -102t85 -40
q88 0 134 77q16 21 21 54z" />
    <glyph glyph-name="aring" unicode="&#xe5;" 
d="M348 761q45 0 71.5 -26.5t26.5 -68.5q0 -55 -36 -91.5t-88 -36.5q-45 0 -71 26t-26 68q0 55 34.5 92t88.5 37zM346 695q-20 0 -33 -13.5t-17 -36.5q-1 -4 -1 -10q0 -32 29 -32q21 0 37 17.5t16 41.5q0 33 -31 33zM493 89l60 -47q-32 -52 -91 -52q-30 0 -53.5 17.5
t-31.5 43.5q-57 -61 -149 -61t-140.5 60.5t-48.5 152.5q0 28 4 51q16 115 92.5 188.5t187.5 73.5q56 0 119 -9h66l-59 -420v-4q0 -17 15 -17q18 0 29 23zM387 195l36 239q-9 1 -50 4.5t-57 3.5q-80 0 -131.5 -54.5t-63.5 -139.5q-3 -21 -3 -42q0 -62 29 -102t85 -40
q88 0 134 77q16 21 21 54z" />
    <glyph glyph-name="ae" unicode="&#xe6;" horiz-adv-x="831" 
d="M127 383l-34 62q39 32 90 53q56 18 102 18q67 0 101 -34q27 -24 35 -55q29 34 64 59q52 30 108 30q83 0 127 -45q44 -37 44 -98q0 -54 -30 -98q-44 -54 -132 -74q-52 -8 -85 -8l-103 -2q0 -59 27 -95q34 -32 100 -32q40 0 76 14q42 12 88 37l33 -62q-40 -27 -95 -48
q-52 -15 -106 -15q-78 0 -122 35q-36 22 -53 62q-23 -41 -57 -64q-57 -33 -127 -33q-78 0 -115 39q-38 31 -38 89q0 56 30 100q59 76 207 76h85l7 45q3 21 3 36q0 27 -12 47q-19 20 -59 20q-45 0 -79 -17q-45 -13 -80 -42zM420 265l103 2q87 0 126 32q37 26 37 75
q0 35 -25.5 53t-63.5 18q-70 0 -118 -61q-46 -49 -59 -119zM337 222h-81q-62 0 -97 -18q-48 -18 -55 -72q-1 -6 -1 -15q0 -31 19 -42t53 -11q66 0 103 33q46 32 54 88z" />
    <glyph glyph-name="ccedilla" unicode="&#xe7;" horiz-adv-x="534" 
d="M466 347l-79 4q3 13 3 26q0 35 -24.5 53.5t-63.5 18.5q-74 0 -122.5 -64t-60.5 -148q-3 -21 -3 -39q0 -63 33 -97t95 -34q66 0 166 52l33 -62q-84 -56 -178 -62l-5 -13q57 -16 57 -84q0 -46 -39 -87.5t-97 -35.5l7 75q4 -1 10 -1q18 0 31.5 15t13.5 33q0 20 -30 20h-45
l20 82q-74 14 -111.5 65.5t-37.5 131.5q0 24 3 50q17 116 88 194.5t170 78.5q70 0 119.5 -38.5t49.5 -101.5q0 -15 -3 -32z" />
    <glyph glyph-name="egrave" unicode="&#xe8;" horiz-adv-x="536" 
d="M362 605l-39 -52l-172 120l57 67zM409 115l33 -62q-96 -63 -203 -63q-100 0 -150.5 55t-50.5 145q0 24 3 48q7 50 26.5 97t50.5 88.5t78.5 67t104.5 25.5q71 0 119 -39t48 -103q0 -86 -68.5 -133.5t-178.5 -47.5l-103 -2q3 -127 124 -127q67 0 167 51zM124 265l103 2
q75 0 119.5 26t44.5 81q0 34 -25.5 52.5t-63.5 18.5q-70 0 -117 -56.5t-61 -123.5z" />
    <glyph glyph-name="eacute" unicode="&#xe9;" horiz-adv-x="536" 
d="M502 673l-202 -120l-28 52l188 135zM409 115l33 -62q-96 -63 -203 -63q-100 0 -150.5 55t-50.5 145q0 24 3 48q7 50 26.5 97t50.5 88.5t78.5 67t104.5 25.5q71 0 119 -39t48 -103q0 -86 -68.5 -133.5t-178.5 -47.5l-103 -2q3 -127 124 -127q67 0 167 51zM124 265l103 2
q75 0 119.5 26t44.5 81q0 34 -25.5 52.5t-63.5 18.5q-70 0 -117 -56.5t-61 -123.5z" />
    <glyph glyph-name="ecircumflex" unicode="&#xea;" horiz-adv-x="536" 
d="M481 594h-94l-60 81l-86 -81h-98l163 161h58zM409 115l33 -62q-96 -63 -203 -63q-100 0 -150.5 55t-50.5 145q0 24 3 48q7 50 26.5 97t50.5 88.5t78.5 67t104.5 25.5q71 0 119 -39t48 -103q0 -86 -68.5 -133.5t-178.5 -47.5l-103 -2q3 -127 124 -127q67 0 167 51z
M124 265l103 2q75 0 119.5 26t44.5 81q0 34 -25.5 52.5t-63.5 18.5q-70 0 -117 -56.5t-61 -123.5z" />
    <glyph glyph-name="edieresis" unicode="&#xeb;" horiz-adv-x="536" 
d="M182 713q21 0 35.5 -15t14.5 -35q0 -21 -18 -38t-39 -17q-20 0 -34 14.5t-14 34.5q0 21 17.5 38.5t37.5 17.5zM397 713q21 0 35.5 -15t14.5 -35q0 -21 -18 -38t-39 -17q-20 0 -34 14.5t-14 34.5q0 21 17 38.5t38 17.5zM409 115l33 -62q-96 -63 -203 -63q-100 0 -150.5 55
t-50.5 145q0 24 3 48q7 50 26.5 97t50.5 88.5t78.5 67t104.5 25.5q71 0 119 -39t48 -103q0 -86 -68.5 -133.5t-178.5 -47.5l-103 -2q3 -127 124 -127q67 0 167 51zM124 265l103 2q75 0 119.5 26t44.5 81q0 34 -25.5 52.5t-63.5 18.5q-70 0 -117 -56.5t-61 -123.5z" />
    <glyph glyph-name="igrave" unicode="&#xec;" horiz-adv-x="260" 
d="M180 597l-39 -52l-172 120l57 67zM99 87v-4q0 -7 4.5 -12t10.5 -5q20 0 28 23l62 -47q-36 -52 -93 -52q-38 0 -63.5 25.5t-25.5 61.5q0 9 1 14l58 417h77z" />
    <glyph glyph-name="iacute" unicode="&#xed;" horiz-adv-x="260" 
d="M320 665l-202 -120l-28 52l188 135zM99 87v-4q0 -7 4.5 -12t10.5 -5q20 0 28 23l62 -47q-36 -52 -93 -52q-38 0 -63.5 25.5t-25.5 61.5q0 9 1 14l58 417h77z" />
    <glyph glyph-name="icircumflex" unicode="&#xee;" horiz-adv-x="260" 
d="M299 586h-94l-60 81l-86 -81h-98l163 161h58zM99 87v-4q0 -7 4.5 -12t10.5 -5q20 0 28 23l62 -47q-36 -52 -93 -52q-38 0 -63.5 25.5t-25.5 61.5q0 9 1 14l58 417h77z" />
    <glyph glyph-name="idieresis" unicode="&#xef;" horiz-adv-x="260" 
d="M0 705q21 0 35.5 -15t14.5 -35q0 -21 -18 -38t-39 -17q-20 0 -34 14.5t-14 34.5q0 21 17.5 38.5t37.5 17.5zM215 705q21 0 35.5 -15t14.5 -35q0 -21 -18 -38t-39 -17q-20 0 -34 14.5t-14 34.5q0 21 17 38.5t38 17.5zM99 87v-4q0 -7 4.5 -12t10.5 -5q20 0 28 23l62 -47
q-36 -52 -93 -52q-38 0 -63.5 25.5t-25.5 61.5q0 9 1 14l58 417h77z" />
    <glyph glyph-name="eth" unicode="&#xf0;" horiz-adv-x="609" 
d="M462 650l101 30l10 -76l-96 -31q44 -221 44 -272q0 -22 -3 -46q-17 -124 -88 -194.5t-178 -70.5q-101 0 -156.5 60t-55.5 156q0 24 3 48q15 112 90.5 187t183.5 75q31 0 89 -8l-7 42l-97 -29l-9 76l91 29l-25 101l80 24zM336 441q-94 0 -148.5 -49.5t-67.5 -139.5
q-3 -22 -3 -42q0 -69 35.5 -107.5t101.5 -38.5q77 0 124.5 50t59.5 137q4 32 4 50q0 52 -16 129q-14 2 -32 5t-30.5 4.5t-27.5 1.5z" />
    <glyph glyph-name="ntilde" unicode="&#xf1;" horiz-adv-x="621" 
d="M496 713l45 -60q-28 -20 -40.5 -28t-36 -15.5t-51.5 -7.5q-17 0 -47.5 8t-54.5 16t-26 8q-34 0 -80 -38l-44 60q67 53 125 53q35 0 76 -17t56 -17q30 0 78 38zM59 470l52 45q40 -25 49 -77q75 78 174 78q72 0 112 -35t40 -102q0 -3 -0.5 -9t-0.5 -9l-39 -277v-3
q0 -8 5 -13t11 -4q15 0 29 20l59 -45q-35 -52 -92 -52q-39 0 -64.5 26.5t-25.5 62.5q0 8 1 12l36 251q2 22 2 30q0 38 -19.5 55.5t-60.5 17.5q-48 0 -85 -22.5t-79 -69.5l-50 -351h-77l50 357q3 20 3 35q0 52 -30 79z" />
    <glyph glyph-name="ograve" unicode="&#xf2;" horiz-adv-x="620" 
d="M392 605l-39 -52l-172 120l57 67zM328 516q101 0 162 -63t61 -162q0 -21 -3 -43q-16 -113 -97 -185.5t-190 -72.5q-101 0 -161 62t-60 160q0 20 3 43q15 111 95 186t190 75zM326 442q-84 0 -138.5 -55t-66.5 -139q-3 -20 -3 -36q0 -68 39 -108t108 -40q83 0 138 55
t67 141q3 20 3 36q0 68 -39 107t-108 39z" />
    <glyph glyph-name="oacute" unicode="&#xf3;" horiz-adv-x="620" 
d="M532 673l-202 -120l-28 52l188 135zM328 516q101 0 162 -63t61 -162q0 -21 -3 -43q-16 -113 -97 -185.5t-190 -72.5q-101 0 -161 62t-60 160q0 20 3 43q15 111 95 186t190 75zM326 442q-84 0 -138.5 -55t-66.5 -139q-3 -20 -3 -36q0 -68 39 -108t108 -40q83 0 138 55
t67 141q3 20 3 36q0 68 -39 107t-108 39z" />
    <glyph glyph-name="ocircumflex" unicode="&#xf4;" horiz-adv-x="620" 
d="M511 594h-94l-60 81l-86 -81h-98l163 161h58zM328 516q101 0 162 -63t61 -162q0 -21 -3 -43q-16 -113 -97 -185.5t-190 -72.5q-101 0 -161 62t-60 160q0 20 3 43q15 111 95 186t190 75zM326 442q-84 0 -138.5 -55t-66.5 -139q-3 -20 -3 -36q0 -68 39 -108t108 -40
q83 0 138 55t67 141q3 20 3 36q0 68 -39 107t-108 39z" />
    <glyph glyph-name="otilde" unicode="&#xf5;" horiz-adv-x="620" 
d="M497 713l45 -60q-28 -20 -40.5 -28t-36 -15.5t-51.5 -7.5q-17 0 -47.5 8t-54.5 16t-26 8q-34 0 -80 -38l-44 60q67 53 125 53q35 0 76 -17t56 -17q30 0 78 38zM328 516q101 0 162 -63t61 -162q0 -21 -3 -43q-16 -113 -97 -185.5t-190 -72.5q-101 0 -161 62t-60 160
q0 20 3 43q15 111 95 186t190 75zM326 442q-84 0 -138.5 -55t-66.5 -139q-3 -20 -3 -36q0 -68 39 -108t108 -40q83 0 138 55t67 141q3 20 3 36q0 68 -39 107t-108 39z" />
    <glyph glyph-name="odieresis" unicode="&#xf6;" horiz-adv-x="620" 
d="M212 713q21 0 35.5 -15t14.5 -35q0 -21 -18 -38t-39 -17q-20 0 -34 14.5t-14 34.5q0 21 17.5 38.5t37.5 17.5zM427 713q21 0 35.5 -15t14.5 -35q0 -21 -18 -38t-39 -17q-20 0 -34 14.5t-14 34.5q0 21 17 38.5t38 17.5zM328 516q101 0 162 -63t61 -162q0 -21 -3 -43
q-16 -113 -97 -185.5t-190 -72.5q-101 0 -161 62t-60 160q0 20 3 43q15 111 95 186t190 75zM326 442q-84 0 -138.5 -55t-66.5 -139q-3 -20 -3 -36q0 -68 39 -108t108 -40q83 0 138 55t67 141q3 20 3 36q0 68 -39 107t-108 39z" />
    <glyph glyph-name="divide" unicode="&#xf7;" horiz-adv-x="505" 
d="M249 504q21 0 35.5 -15t14.5 -35q0 -21 -18 -38t-39 -17q-20 0 -34 14.5t-14 34.5q0 22 17 39t38 17zM431 259h-384l11 73h384zM208 214q21 0 35.5 -15t14.5 -35q0 -21 -18 -38t-39 -17q-20 0 -34 14.5t-14 34.5q0 22 17.5 39t37.5 17z" />
    <glyph glyph-name="oslash" unicode="&#xf8;" horiz-adv-x="620" 
d="M530 489l-36 -40q57 -60 57 -154q0 -21 -3 -44q-17 -122 -102.5 -192t-185.5 -70q-56 0 -106 24l-29 -38l-65 41l36 39q-56 56 -56 154q0 23 3 45q15 111 95 186.5t189 75.5q62 0 108 -24l30 39zM140 116l252 314q-19 12 -58 12q-85 0 -143 -53.5t-71 -143.5
q-3 -19 -3 -39q0 -53 23 -90zM451 389l-251 -316q26 -10 64 -10q75 0 134.5 53.5t72.5 147.5q3 21 3 39q0 51 -23 86z" />
    <glyph glyph-name="ugrave" unicode="&#xf9;" horiz-adv-x="635" 
d="M368 597l-39 -52l-172 120l57 67zM58 458l48 62q25 -21 36.5 -32t25.5 -35.5t14 -50.5q0 -11 -1 -16l-31 -218q-2 -20 -2 -28q0 -39 19.5 -57t61.5 -18q48 0 83.5 21.5t79.5 70.5l51 351h77l-60 -422v-4q0 -7 5 -12t11 -5q16 0 28 22l61 -48q-36 -50 -91 -50
q-35 0 -59.5 20.5t-29.5 50.5q-71 -68 -163 -68q-73 0 -112.5 34.5t-39.5 101.5q0 3 0.5 9t0.5 9l35 244q1 11 -5 23t-12.5 18.5t-18 16t-12.5 10.5z" />
    <glyph glyph-name="uacute" unicode="&#xfa;" horiz-adv-x="635" 
d="M508 665l-202 -120l-28 52l188 135zM58 458l48 62q25 -21 36.5 -32t25.5 -35.5t14 -50.5q0 -11 -1 -16l-31 -218q-2 -20 -2 -28q0 -39 19.5 -57t61.5 -18q48 0 83.5 21.5t79.5 70.5l51 351h77l-60 -422v-4q0 -7 5 -12t11 -5q16 0 28 22l61 -48q-36 -50 -91 -50
q-35 0 -59.5 20.5t-29.5 50.5q-71 -68 -163 -68q-73 0 -112.5 34.5t-39.5 101.5q0 3 0.5 9t0.5 9l35 244q1 11 -5 23t-12.5 18.5t-18 16t-12.5 10.5z" />
    <glyph glyph-name="ucircumflex" unicode="&#xfb;" horiz-adv-x="635" 
d="M487 586h-94l-60 81l-86 -81h-98l163 161h58zM58 458l48 62q25 -21 36.5 -32t25.5 -35.5t14 -50.5q0 -11 -1 -16l-31 -218q-2 -20 -2 -28q0 -39 19.5 -57t61.5 -18q48 0 83.5 21.5t79.5 70.5l51 351h77l-60 -422v-4q0 -7 5 -12t11 -5q16 0 28 22l61 -48q-36 -50 -91 -50
q-35 0 -59.5 20.5t-29.5 50.5q-71 -68 -163 -68q-73 0 -112.5 34.5t-39.5 101.5q0 3 0.5 9t0.5 9l35 244q1 11 -5 23t-12.5 18.5t-18 16t-12.5 10.5z" />
    <glyph glyph-name="udieresis" unicode="&#xfc;" horiz-adv-x="635" 
d="M188 705q21 0 35.5 -15t14.5 -35q0 -21 -18 -38t-39 -17q-20 0 -34 14.5t-14 34.5q0 21 17.5 38.5t37.5 17.5zM403 705q21 0 35.5 -15t14.5 -35q0 -21 -18 -38t-39 -17q-20 0 -34 14.5t-14 34.5q0 21 17 38.5t38 17.5zM58 458l48 62q25 -21 36.5 -32t25.5 -35.5t14 -50.5
q0 -11 -1 -16l-31 -218q-2 -20 -2 -28q0 -39 19.5 -57t61.5 -18q48 0 83.5 21.5t79.5 70.5l51 351h77l-60 -422v-4q0 -7 5 -12t11 -5q16 0 28 22l61 -48q-36 -50 -91 -50q-35 0 -59.5 20.5t-29.5 50.5q-71 -68 -163 -68q-73 0 -112.5 34.5t-39.5 101.5q0 3 0.5 9t0.5 9
l35 244q1 11 -5 23t-12.5 18.5t-18 16t-12.5 10.5z" />
    <glyph glyph-name="yacute" unicode="&#xfd;" horiz-adv-x="567" 
d="M318 545l-28 52l188 135l42 -67zM443 508h77l-52 -364l-35 -248q-11 -81 -60.5 -127t-115.5 -46t-102 41.5t-36 101.5q0 8 2 24q10 68 52 108q-49 9 -76 40.5t-27 80.5q0 8 2 28l34 243q2 16 -20 41t-28 24l48 65q25 -22 37.5 -34t25.5 -35.5t13 -48.5q0 -10 -1 -16
l-31 -218q-2 -20 -2 -28q0 -39 19.5 -57t60.5 -18q45 0 79 19t73 59l-1 -1q14 18 17 37zM358 -104l20 142q-19 -13 -47 -28l-52 -25q-39 -20 -58.5 -42.5t-24.5 -58.5q-1 -6 -1 -19q0 -67 63 -67q39 0 66.5 27t33.5 71z" />
    <glyph glyph-name="thorn" unicode="&#xfe;" horiz-adv-x="556" 
d="M122 727l76 -2q0 -3 -3 -21t-4 -29q-20 -142 -34 -214q58 55 141 55q92 0 141 -60.5t49 -152.5q0 -17 -4 -51q-16 -114 -92 -187.5t-189 -73.5q-45 0 -105 7l-36 -240h-76zM142 328l-38 -256q80 -8 96 -8q88 0 140.5 51.5t65.5 138.5q3 21 3 41q0 65 -29 106.5t-84 41.5
q-50 0 -95 -32t-59 -83z" />
    <glyph glyph-name="ydieresis" unicode="&#xff;" horiz-adv-x="567" 
d="M193 600q-20 0 -34 14.5t-14 34.5q0 21 17.5 38.5t37.5 17.5q21 0 35.5 -15t14.5 -35q0 -21 -18 -38t-39 -17zM408 600q-20 0 -34 14.5t-14 34.5q0 21 17 38.5t38 17.5t35.5 -15t14.5 -35q0 -21 -18 -38t-39 -17zM520 508l-52 -364l-35 -248q-11 -81 -60.5 -127
t-115.5 -46t-102 41.5t-36 101.5q0 8 2 24q10 68 52 108q-49 9 -76 40.5t-27 80.5q0 8 2 28l34 243q2 16 -20 41t-28 24l48 65q25 -22 37.5 -34t25.5 -35.5t13 -48.5q0 -10 -1 -16l-31 -218q-2 -20 -2 -28q0 -39 19.5 -57t60.5 -18q45 0 79 19t73 59l-1 -1q14 18 17 37
l47 329h77zM358 -104l20 142q-19 -13 -47 -28l-52 -25q-39 -20 -58.5 -42.5t-24.5 -58.5q-1 -6 -1 -19q0 -67 63 -67q39 0 66.5 27t33.5 71z" />
    <glyph glyph-name="Amacron" unicode="&#x100;" horiz-adv-x="817" 
d="M657 789h-340l11 78h340zM690 -1h-85l-61 221h-271l-92 -167q-14 -27 -41 -42t-54 -15q-40 0 -67.5 28.5t-23.5 66.5l78 11q0 -26 17 -26q13 0 21 14l344 598h34zM451 540l1 3zM521 298l-68 244l-136 -244h204z" />
    <glyph glyph-name="amacron" unicode="&#x101;" 
d="M501 616h-340l11 78h340zM493 89l60 -47q-32 -52 -91 -52q-30 0 -53.5 17.5t-31.5 43.5q-57 -61 -149 -61t-140.5 60.5t-48.5 152.5q0 28 4 51q16 115 92.5 188.5t187.5 73.5q56 0 119 -9h66l-59 -420v-4q0 -17 15 -17q18 0 29 23zM387 195l36 239q-9 1 -50 4.5t-57 3.5
q-80 0 -131.5 -54.5t-63.5 -139.5q-3 -21 -3 -42q0 -62 29 -102t85 -40q88 0 134 77q16 21 21 54z" />
    <glyph glyph-name="Abreve" unicode="&#x102;" horiz-adv-x="817" 
d="M571 913l82 -4q-10 -74 -53.5 -114t-112.5 -40q-65 0 -100 34.5t-35 91.5q0 15 3 32l81 -4q-2 -18 -2 -24q0 -55 56 -55q72 0 81 83zM690 -1h-85l-61 221h-271l-92 -167q-14 -27 -41 -42t-54 -15q-40 0 -67.5 28.5t-23.5 66.5l78 11q0 -26 17 -26q13 0 21 14l344 598h34z
M451 540l1 3zM521 298l-68 244l-136 -244h204z" />
    <glyph glyph-name="abreve" unicode="&#x103;" 
d="M415 740l82 -4q-10 -74 -53.5 -114t-112.5 -40q-65 0 -100 34.5t-35 91.5q0 16 3 32l81 -4q-2 -18 -2 -24q0 -55 56 -55q72 0 81 83zM493 89l60 -47q-32 -52 -91 -52q-30 0 -53.5 17.5t-31.5 43.5q-57 -61 -149 -61t-140.5 60.5t-48.5 152.5q0 28 4 51q16 115 92.5 188.5
t187.5 73.5q56 0 119 -9h66l-59 -420v-4q0 -17 15 -17q18 0 29 23zM387 195l36 239q-9 1 -50 4.5t-57 3.5q-80 0 -131.5 -54.5t-63.5 -139.5q-3 -21 -3 -42q0 -62 29 -102t85 -40q88 0 134 77q16 21 21 54z" />
    <glyph glyph-name="Aogonek" unicode="&#x104;" horiz-adv-x="817" 
d="M663 -116l30 -66q-18 -16 -48.5 -26t-55.5 -10q-38 0 -62 25t-24 63q0 10 2.5 19.5t5 17t9.5 16.5t11.5 14.5t15.5 15.5l16.5 15t20 17t20.5 17l-60 218h-271l-92 -167q-14 -27 -41 -42t-54 -15q-40 0 -67.5 28.5t-23.5 66.5l78 11q0 -26 17 -26q13 0 21 14l344 598h34
l201 -689q-85 -77 -97 -96q-9 -12 -10 -24v-5q0 -18 22 -18q24 0 58 28zM451 540l1 3zM521 298l-68 244l-136 -244h204z" />
    <glyph glyph-name="aogonek" unicode="&#x105;" 
d="M493 89l60 -47q-10 -17 -28 -31q-65 -59 -84 -79.5t-21 -38.5v-5q0 -18 22 -18q24 0 58 28l30 -66q-18 -16 -48.5 -26t-55.5 -10q-38 0 -62 25t-24 63q0 32 19 56t62 60q-34 17 -44 51q-57 -61 -149 -61t-140.5 60.5t-48.5 152.5q0 28 4 51q16 115 92.5 188.5t187.5 73.5
q56 0 119 -9h66l-59 -420v-4q0 -17 15 -17q18 0 29 23zM387 195l36 239q-9 1 -50 4.5t-57 3.5q-80 0 -131.5 -54.5t-63.5 -139.5q-3 -21 -3 -42q0 -62 29 -102t85 -40q88 0 134 77q16 21 21 54z" />
    <glyph glyph-name="Cacute" unicode="&#x106;" horiz-adv-x="748" 
d="M640 872l-202 -120l-28 52l188 135zM606 180l60 -47q-59 -76 -141.5 -115.5t-167.5 -39.5q-133 0 -219.5 89.5t-86.5 221.5q0 28 4 52q21 149 141 259.5t262 110.5q62 0 121.5 -22.5t82.5 -68.5q14 -23 14 -54q0 -45 -32 -79.5t-75 -34.5q-42 0 -68 30l51 57
q13 -11 21 -11q9 0 17.5 9t9.5 22l1 7q0 9 -8 25q-39 44 -137 44q-116 0 -212.5 -90.5t-113.5 -211.5q-3 -21 -3 -42q0 -101 65.5 -168.5t168.5 -67.5q72 0 137 33.5t108 91.5z" />
    <glyph glyph-name="cacute" unicode="&#x107;" horiz-adv-x="534" 
d="M501 665l-202 -120l-28 52l188 135zM410 119l33 -62q-96 -63 -201 -63q-99 0 -151 54.5t-52 147.5q0 24 3 50q17 116 88 194.5t170 78.5q70 0 119.5 -38.5t49.5 -101.5q0 -15 -3 -32l-79 4q3 13 3 26q0 35 -24.5 53.5t-63.5 18.5q-74 0 -122.5 -64t-60.5 -148
q-3 -21 -3 -39q0 -63 33 -97t95 -34q66 0 166 52z" />
    <glyph glyph-name="Ccircumflex" unicode="&#x108;" horiz-adv-x="748" 
d="M619 793h-94l-60 81l-86 -81h-98l163 161h58zM606 180l60 -47q-59 -76 -141.5 -115.5t-167.5 -39.5q-133 0 -219.5 89.5t-86.5 221.5q0 28 4 52q21 149 141 259.5t262 110.5q62 0 121.5 -22.5t82.5 -68.5q14 -23 14 -54q0 -45 -32 -79.5t-75 -34.5q-42 0 -68 30l51 57
q13 -11 21 -11q9 0 17.5 9t9.5 22l1 7q0 9 -8 25q-39 44 -137 44q-116 0 -212.5 -90.5t-113.5 -211.5q-3 -21 -3 -42q0 -101 65.5 -168.5t168.5 -67.5q72 0 137 33.5t108 91.5z" />
    <glyph glyph-name="ccircumflex" unicode="&#x109;" horiz-adv-x="534" 
d="M480 586h-94l-60 81l-86 -81h-98l163 161h58zM410 119l33 -62q-96 -63 -201 -63q-99 0 -151 54.5t-52 147.5q0 24 3 50q17 116 88 194.5t170 78.5q70 0 119.5 -38.5t49.5 -101.5q0 -15 -3 -32l-79 4q3 13 3 26q0 35 -24.5 53.5t-63.5 18.5q-74 0 -122.5 -64t-60.5 -148
q-3 -21 -3 -39q0 -63 33 -97t95 -34q66 0 166 52z" />
    <glyph glyph-name="Cdotaccent" unicode="&#x10a;" horiz-adv-x="748" 
d="M470 923q21 0 35.5 -15t14.5 -35q0 -21 -18 -38t-39 -17q-20 0 -34 14.5t-14 34.5q0 21 17.5 38.5t37.5 17.5zM606 180l60 -47q-59 -76 -141.5 -115.5t-167.5 -39.5q-133 0 -219.5 89.5t-86.5 221.5q0 28 4 52q21 149 141 259.5t262 110.5q62 0 121.5 -22.5t82.5 -68.5
q14 -23 14 -54q0 -45 -32 -79.5t-75 -34.5q-42 0 -68 30l51 57q13 -11 21 -11q9 0 17.5 9t9.5 22l1 7q0 9 -8 25q-39 44 -137 44q-116 0 -212.5 -90.5t-113.5 -211.5q-3 -21 -3 -42q0 -101 65.5 -168.5t168.5 -67.5q72 0 137 33.5t108 91.5z" />
    <glyph glyph-name="cdotaccent" unicode="&#x10b;" horiz-adv-x="534" 
d="M331 716q21 0 35.5 -15t14.5 -35q0 -21 -18 -38t-39 -17q-20 0 -34 14.5t-14 34.5q0 22 17 39t38 17zM410 119l33 -62q-96 -63 -201 -63q-99 0 -151 54.5t-52 147.5q0 24 3 50q17 116 88 194.5t170 78.5q70 0 119.5 -38.5t49.5 -101.5q0 -15 -3 -32l-79 4q3 13 3 26
q0 35 -24.5 53.5t-63.5 18.5q-74 0 -122.5 -64t-60.5 -148q-3 -21 -3 -39q0 -63 33 -97t95 -34q66 0 166 52z" />
    <glyph glyph-name="Ccaron" unicode="&#x10c;" horiz-adv-x="748" 
d="M480 784h-58l-117 161h94l60 -81l86 81h99zM606 180l60 -47q-59 -76 -141.5 -115.5t-167.5 -39.5q-133 0 -219.5 89.5t-86.5 221.5q0 28 4 52q21 149 141 259.5t262 110.5q62 0 121.5 -22.5t82.5 -68.5q14 -23 14 -54q0 -45 -32 -79.5t-75 -34.5q-42 0 -68 30l51 57
q13 -11 21 -11q9 0 17.5 9t9.5 22l1 7q0 9 -8 25q-39 44 -137 44q-116 0 -212.5 -90.5t-113.5 -211.5q-3 -21 -3 -42q0 -101 65.5 -168.5t168.5 -67.5q72 0 137 33.5t108 91.5z" />
    <glyph glyph-name="ccaron" unicode="&#x10d;" horiz-adv-x="534" 
d="M341 577h-58l-117 161h94l60 -81l86 81h99zM410 119l33 -62q-96 -63 -201 -63q-99 0 -151 54.5t-52 147.5q0 24 3 50q17 116 88 194.5t170 78.5q70 0 119.5 -38.5t49.5 -101.5q0 -15 -3 -32l-79 4q3 13 3 26q0 35 -24.5 53.5t-63.5 18.5q-74 0 -122.5 -64t-60.5 -148
q-3 -21 -3 -39q0 -63 33 -97t95 -34q66 0 166 52z" />
    <glyph glyph-name="Dcaron" unicode="&#x10e;" horiz-adv-x="812" 
d="M508 756h-58l-117 161h94l60 -81l86 81h99zM190 692h291q130 -12 202.5 -91t72.5 -208q0 -29 -5 -67q-47 -335 -476 -335q-73 0 -113 4l-29 2h-1l-28 4l88 613q-26 -2 -35 -15q-14 -8 -14 -22l-13 -10l-67 2q4 55 43 93q41 30 84 30zM273 614l-78 -543q90 -5 151 -5
q131 0 219 73t106 204q4 24 4 52q0 98 -56 156.5t-156 62.5h-190z" />
    <glyph glyph-name="dcaron" unicode="&#x10f;" 
d="M449 87v-2q0 -8 4.5 -13.5t11.5 -5.5q16 0 28 23l60 -47q-32 -52 -91 -52q-30 0 -53.5 17.5t-31.5 43.5q-57 -61 -148 -61t-140.5 60t-49.5 153q0 17 4 51q16 115 92.5 188.5t187.5 73.5q40 0 106 -8l33 220h77zM605 667l1 9q1 16 14 32q17 10 31 10q21 0 30 -17
q13 -9 9 -29l-1 -9q-6 -46 -26 -88q-27 -46 -74 -74l-47 49q51 38 63 117zM387 195l36 238q-60 9 -81 9q-193 0 -221 -189q-3 -23 -3 -44q0 -66 29.5 -105.5t87.5 -39.5q84 0 131 77q16 21 21 54z" />
    <glyph glyph-name="Dcroat" unicode="&#x110;" horiz-adv-x="812" 
d="M652 787h-340l11 78h340zM190 692h291q130 -12 202.5 -91t72.5 -208q0 -29 -5 -67q-47 -335 -476 -335q-73 0 -113 4l-29 2h-1l-28 4l88 613q-26 -2 -35 -15q-14 -8 -14 -22l-13 -10l-67 2q4 55 43 93q41 30 84 30zM273 614l-78 -543q90 -5 151 -5q131 0 219 73t106 204
q4 24 4 52q0 98 -56 156.5t-156 62.5h-190z" />
    <glyph glyph-name="dcroat" unicode="&#x111;" 
d="M449 87v-2q0 -8 4.5 -13.5t11.5 -5.5q16 0 28 23l60 -47q-32 -52 -91 -52q-30 0 -53.5 17.5t-31.5 43.5q-57 -61 -148 -61t-140.5 60t-49.5 153q0 17 4 51q16 115 92.5 188.5t187.5 73.5q40 0 106 -8l17 111h-176l11 78h176l5 31h77l-4 -31h86l-11 -78h-86zM387 195
l36 238q-60 9 -81 9q-193 0 -221 -189q-3 -23 -3 -44q0 -66 29.5 -105.5t87.5 -39.5q84 0 131 77q16 21 21 54z" />
    <glyph glyph-name="Emacron" unicode="&#x112;" horiz-adv-x="659" 
d="M599 787h-340l11 78h340zM637 609h-375l-29 -208h259l-11 -79h-259l-34 -244h375l-11 -79h-458l87 609q-15 0 -25 -13q-14 -7 -17 -26q0 -1 -0.5 -4.5t-0.5 -5.5l-76 4q1 2 1 6q0 45 41 86q42 31 83 31h461z" />
    <glyph glyph-name="emacron" unicode="&#x113;" horiz-adv-x="536" 
d="M486 616h-340l11 78h340zM409 115l33 -62q-96 -63 -203 -63q-100 0 -150.5 55t-50.5 145q0 24 3 48q7 50 26.5 97t50.5 88.5t78.5 67t104.5 25.5q71 0 119 -39t48 -103q0 -86 -68.5 -133.5t-178.5 -47.5l-103 -2q3 -127 124 -127q67 0 167 51zM124 265l103 2
q75 0 119.5 26t44.5 81q0 34 -25.5 52.5t-63.5 18.5q-70 0 -117 -56.5t-61 -123.5z" />
    <glyph glyph-name="Ebreve" unicode="&#x114;" horiz-adv-x="659" 
d="M513 911l82 -4q-10 -74 -53.5 -114t-112.5 -40q-65 0 -100 34.5t-35 91.5q0 16 3 32l81 -4q-2 -18 -2 -24q0 -55 56 -55q72 0 81 83zM637 609h-375l-29 -208h259l-11 -79h-259l-34 -244h375l-11 -79h-458l87 609q-15 0 -25 -13q-14 -7 -17 -26q0 -1 -0.5 -4.5t-0.5 -5.5
l-76 4q1 2 1 6q0 45 41 86q42 31 83 31h461z" />
    <glyph glyph-name="ebreve" unicode="&#x115;" horiz-adv-x="536" 
d="M400 740l82 -4q-10 -74 -53.5 -114t-112.5 -40q-65 0 -100 34.5t-35 91.5q0 16 3 32l81 -4q-2 -18 -2 -24q0 -55 56 -55q72 0 81 83zM409 115l33 -62q-96 -63 -203 -63q-100 0 -150.5 55t-50.5 145q0 24 3 48q7 50 26.5 97t50.5 88.5t78.5 67t104.5 25.5q71 0 119 -39
t48 -103q0 -86 -68.5 -133.5t-178.5 -47.5l-103 -2q3 -127 124 -127q67 0 167 51zM124 265l103 2q75 0 119.5 26t44.5 81q0 34 -25.5 52.5t-63.5 18.5q-70 0 -117 -56.5t-61 -123.5z" />
    <glyph glyph-name="Edotaccent" unicode="&#x116;" horiz-adv-x="659" 
d="M445 895q21 0 35.5 -15t14.5 -35q0 -21 -18 -38t-39 -17q-20 0 -34 14.5t-14 34.5q0 21 17 38.5t38 17.5zM637 609h-375l-29 -208h259l-11 -79h-259l-34 -244h375l-11 -79h-458l87 609q-15 0 -25 -13q-14 -7 -17 -26q0 -1 -0.5 -4.5t-0.5 -5.5l-76 4q1 2 1 6q0 45 41 86
q42 31 83 31h461z" />
    <glyph glyph-name="edotaccent" unicode="&#x117;" horiz-adv-x="536" 
d="M332 724q21 0 35.5 -15t14.5 -35q0 -21 -18 -38t-39 -17q-20 0 -34 14.5t-14 34.5q0 22 17.5 39t37.5 17zM409 115l33 -62q-96 -63 -203 -63q-100 0 -150.5 55t-50.5 145q0 24 3 48q7 50 26.5 97t50.5 88.5t78.5 67t104.5 25.5q71 0 119 -39t48 -103q0 -86 -68.5 -133.5
t-178.5 -47.5l-103 -2q3 -127 124 -127q67 0 167 51zM124 265l103 2q75 0 119.5 26t44.5 81q0 34 -25.5 52.5t-63.5 18.5q-70 0 -117 -56.5t-61 -123.5z" />
    <glyph glyph-name="Eogonek" unicode="&#x118;" horiz-adv-x="659" 
d="M262 609l-29 -208h259l-11 -79h-259l-34 -244h375l-11 -76h2l-2 -2v-1h-1q-65 -59 -83.5 -79t-20.5 -38v-5q0 -18 22 -18q24 0 58 28l30 -66q-18 -16 -48.5 -26t-55.5 -10q-38 0 -62 25t-24 63q0 25 14.5 48t28 35t51.5 43h-367l87 609q-15 0 -25 -13q-14 -7 -17 -26
q0 -1 -0.5 -4.5t-0.5 -5.5l-76 4q1 2 1 6q0 45 41 86q42 31 83 31h461l-11 -77h-375z" />
    <glyph glyph-name="eogonek" unicode="&#x119;" horiz-adv-x="536" 
d="M442 53l-6 -4q-85 -77 -97 -96q-8 -13 -10 -24v-5q0 -18 22 -18q24 0 58 28l30 -66q-18 -16 -48.5 -26t-55.5 -10q-38 0 -62 25t-24 63t33 73q-21 -3 -43 -3q-100 0 -150.5 55t-50.5 145q0 24 3 48q7 50 26.5 97t50.5 88.5t78.5 67t104.5 25.5q71 0 119 -39t48 -103
q0 -86 -68.5 -133.5t-178.5 -47.5l-103 -2q3 -127 124 -127q67 0 167 51zM124 265l103 2q75 0 119.5 26t44.5 81q0 34 -25.5 52.5t-63.5 18.5q-70 0 -117 -56.5t-61 -123.5z" />
    <glyph glyph-name="Ecaron" unicode="&#x11a;" horiz-adv-x="659" 
d="M455 756h-58l-117 161h94l60 -81l86 81h99zM637 609h-375l-29 -208h259l-11 -79h-259l-34 -244h375l-11 -79h-458l87 609q-15 0 -25 -13q-14 -7 -17 -26q0 -1 -0.5 -4.5t-0.5 -5.5l-76 4q1 2 1 6q0 45 41 86q42 31 83 31h461z" />
    <glyph glyph-name="ecaron" unicode="&#x11b;" horiz-adv-x="536" 
d="M342 585h-58l-117 161h94l60 -81l86 81h99zM409 115l33 -62q-96 -63 -203 -63q-100 0 -150.5 55t-50.5 145q0 24 3 48q7 50 26.5 97t50.5 88.5t78.5 67t104.5 25.5q71 0 119 -39t48 -103q0 -86 -68.5 -133.5t-178.5 -47.5l-103 -2q3 -127 124 -127q67 0 167 51zM124 265
l103 2q75 0 119.5 26t44.5 81q0 34 -25.5 52.5t-63.5 18.5q-70 0 -117 -56.5t-61 -123.5z" />
    <glyph glyph-name="Gcircumflex" unicode="&#x11c;" horiz-adv-x="757" 
d="M629 779h-94l-60 81l-86 -81h-98l163 161h58zM539 -159l31 216q-95 -88 -221 -88q-131 0 -215.5 92t-84.5 223q0 16 4 50q20 147 140.5 258.5t258.5 111.5q46 0 93 -12t86 -45.5t39 -81.5t-32.5 -82t-75.5 -34q-45 0 -68 28l52 57q13 -10 20 -10q11 0 19.5 11t8.5 26
q0 32 -47 49t-97 17q-114 0 -209.5 -90.5t-112.5 -211.5q-3 -21 -3 -41q0 -101 64 -170t162 -69q86 0 153 53.5t89 132.5l12 86h79l-67 -481q-6 -46 -41 -72.5t-72 -26.5q-29 0 -52.5 16.5t-31.5 40.5l70 41q1 -2 2 -5q10 -12 16 -13q22 0 31 24z" />
    <glyph glyph-name="gcircumflex" unicode="&#x11d;" horiz-adv-x="557" 
d="M502 595h-94l-60 81l-86 -81h-98l163 161h58zM509 507l-85 -607q-11 -77 -61.5 -125t-117.5 -48q-66 0 -101 43t-35 102q0 74 54 130q-28 8 -46 28q-75 62 -75 191q0 24 3 43q14 101 92.5 176.5t185.5 75.5q16 0 64 -2l59 -7h63zM344 442h-29q-77 0 -132 -58.5
t-65 -135.5q-2 -11 -2 -33q0 -63 30 -107t82 -44q26 0 49 12q24 9 52 31t44 48q14 20 16 32l35 250zM349 -99l22 149q-21 -18 -26 -24q-11 -7 -39.5 -22.5t-57.5 -32.5q-65 -33 -65 -97q0 -30 17.5 -51t52.5 -21q38 0 62.5 27.5t33.5 71.5z" />
    <glyph glyph-name="Gbreve" unicode="&#x11e;" horiz-adv-x="757" 
d="M548 925l82 -4q-10 -74 -53.5 -114t-112.5 -40q-65 0 -100 34.5t-35 91.5q0 15 3 32l81 -4q-2 -18 -2 -24q0 -55 56 -55q72 0 81 83zM539 -159l31 216q-95 -88 -221 -88q-131 0 -215.5 92t-84.5 223q0 16 4 50q20 147 140.5 258.5t258.5 111.5q46 0 93 -12t86 -45.5
t39 -81.5t-32.5 -82t-75.5 -34q-45 0 -68 28l52 57q13 -10 20 -10q11 0 19.5 11t8.5 26q0 32 -47 49t-97 17q-114 0 -209.5 -90.5t-112.5 -211.5q-3 -21 -3 -41q0 -101 64 -170t162 -69q86 0 153 53.5t89 132.5l12 86h79l-67 -481q-6 -46 -41 -72.5t-72 -26.5
q-29 0 -52.5 16.5t-31.5 40.5l70 41q1 -2 2 -5q10 -12 16 -13q22 0 31 24z" />
    <glyph glyph-name="gbreve" unicode="&#x11f;" horiz-adv-x="557" 
d="M421 741l82 -4q-10 -74 -53.5 -114t-112.5 -40q-65 0 -100 34.5t-35 91.5q0 15 3 32l81 -4q-2 -18 -2 -24q0 -55 56 -55q72 0 81 83zM509 507l-85 -607q-11 -77 -61.5 -125t-117.5 -48q-66 0 -101 43t-35 102q0 74 54 130q-28 8 -46 28q-75 62 -75 191q0 24 3 43
q14 101 92.5 176.5t185.5 75.5q16 0 64 -2l59 -7h63zM344 442h-29q-77 0 -132 -58.5t-65 -135.5q-2 -11 -2 -33q0 -63 30 -107t82 -44q26 0 49 12q24 9 52 31t44 48q14 20 16 32l35 250zM349 -99l22 149q-21 -18 -26 -24q-11 -7 -39.5 -22.5t-57.5 -32.5q-65 -33 -65 -97
q0 -30 17.5 -51t52.5 -21q38 0 62.5 27.5t33.5 71.5z" />
    <glyph glyph-name="Gdotaccent" unicode="&#x120;" horiz-adv-x="757" 
d="M480 909q21 0 35.5 -15t14.5 -35q0 -21 -18 -38t-39 -17q-20 0 -34 14.5t-14 34.5q0 21 17.5 38.5t37.5 17.5zM539 -159l31 216q-95 -88 -221 -88q-131 0 -215.5 92t-84.5 223q0 16 4 50q20 147 140.5 258.5t258.5 111.5q46 0 93 -12t86 -45.5t39 -81.5t-32.5 -82
t-75.5 -34q-45 0 -68 28l52 57q13 -10 20 -10q11 0 19.5 11t8.5 26q0 32 -47 49t-97 17q-114 0 -209.5 -90.5t-112.5 -211.5q-3 -21 -3 -41q0 -101 64 -170t162 -69q86 0 153 53.5t89 132.5l12 86h79l-67 -481q-6 -46 -41 -72.5t-72 -26.5q-29 0 -52.5 16.5t-31.5 40.5
l70 41q1 -2 2 -5q10 -12 16 -13q22 0 31 24z" />
    <glyph glyph-name="gdotaccent" unicode="&#x121;" horiz-adv-x="557" 
d="M353 725q21 0 35.5 -15t14.5 -35q0 -21 -18 -38t-39 -17q-20 0 -34 14.5t-14 34.5q0 21 17 38.5t38 17.5zM509 507l-85 -607q-11 -77 -61.5 -125t-117.5 -48q-66 0 -101 43t-35 102q0 74 54 130q-28 8 -46 28q-75 62 -75 191q0 24 3 43q14 101 92.5 176.5t185.5 75.5
q16 0 64 -2l59 -7h63zM344 442h-29q-77 0 -132 -58.5t-65 -135.5q-2 -11 -2 -33q0 -63 30 -107t82 -44q26 0 49 12q24 9 52 31t44 48q14 20 16 32l35 250zM349 -99l22 149q-21 -18 -26 -24q-11 -7 -39.5 -22.5t-57.5 -32.5q-65 -33 -65 -97q0 -30 17.5 -51t52.5 -21
q38 0 62.5 27.5t33.5 71.5z" />
    <glyph glyph-name="Gcommaaccent" unicode="&#x122;" horiz-adv-x="757" 
d="M539 -159l31 216q-95 -88 -221 -88q-131 0 -215.5 92t-84.5 223q0 16 4 50q20 147 140.5 258.5t258.5 111.5q46 0 93 -12t86 -45.5t39 -81.5t-32.5 -82t-75.5 -34q-45 0 -68 28l52 57q13 -10 20 -10q11 0 19.5 11t8.5 26q0 32 -47 49t-97 17q-114 0 -209.5 -90.5
t-112.5 -211.5q-3 -21 -3 -41q0 -101 64 -170t162 -69q86 0 153 53.5t89 132.5l12 86h79l-67 -481q-6 -46 -41 -72.5t-72 -26.5q-29 0 -52.5 16.5t-31.5 40.5l70 41q1 -2 2 -5q10 -12 16 -13q22 0 31 24zM296 -304h-76l75 224h86z" />
    <glyph glyph-name="gcommaaccent" unicode="&#x123;" horiz-adv-x="557" 
d="M509 507l-85 -607q-11 -77 -61.5 -125t-117.5 -48q-66 0 -101 43t-35 102q0 20 6 43l-69 -181h-76l75 224h86l-1 -2q15 27 33 46q-28 8 -46 28q-75 62 -75 191q0 24 3 43q14 101 92.5 176.5t185.5 75.5q16 0 64 -2l59 -7h63zM424 437l-80 5h-29q-77 0 -132 -58.5
t-65 -135.5q-2 -11 -2 -33q0 -63 30 -107t82 -44q26 0 49 12q24 9 52 31t44 48q14 20 16 32zM349 -99l22 149q-21 -18 -26 -24q-11 -7 -39.5 -22.5t-57.5 -32.5q-65 -33 -65 -97q0 -30 17.5 -51t52.5 -21q38 0 62.5 27.5t33.5 71.5z" />
    <glyph glyph-name="Hcircumflex" unicode="&#x124;" horiz-adv-x="709" 
d="M622 765h-94l-60 81l-86 -81h-98l163 161h58zM132 587l-65 51q35 53 94 53q38 0 65.5 -25t27.5 -64q0 -10 -1 -15l-27 -192h335l41 291h82l-96 -687h-82l44 318h-335l-44 -318h-83l83 592v3q0 14 -13 14t-26 -21z" />
    <glyph glyph-name="hcircumflex" unicode="&#x125;" horiz-adv-x="605" 
d="M518 586h-94l-60 81l-86 -81h-98l163 161h58zM199 730l-39 -274q66 62 158 62q74 0 113 -35t39 -99q0 -17 -3 -35l-37 -260v-2q0 -18 17 -18t27 22l61 -47q-35 -51 -91 -51q-39 0 -64.5 25t-25.5 61q0 9 1 14l36 257q2 18 2 24q0 71 -85 71q-46 0 -82.5 -22.5
t-78.5 -69.5l-50 -351h-76l102 728h76z" />
    <glyph glyph-name="Hbar" unicode="&#x126;" horiz-adv-x="730" 
d="M692 485h-36l-66 -475h-82l44 318h-335l-44 -318h-83l66 475l11 74l6 43v3q0 14 -13 14t-26 -21l-65 51q35 53 94 53q38 0 65.5 -25t27.5 -64q0 -10 -1 -15l-5 -39h335l19 138h82l-19 -138h35zM574 485h-335l-11 -79h335z" />
    <glyph glyph-name="hbar" unicode="&#x127;" horiz-adv-x="605" 
d="M474 91l61 -47q-35 -51 -91 -51q-39 0 -64.5 25t-25.5 61q0 9 1 14l36 257q2 18 2 24q0 71 -85 71q-46 0 -82.5 -22.5t-78.5 -69.5l-50 -351h-76l87 618h-87l11 79h87l4 31h76l-4 -31h148l-11 -79h-149l-23 -164q66 62 158 62q74 0 113 -35t39 -99q0 -17 -3 -35l-37 -260
v-2q0 -18 17 -18t27 22z" />
    <glyph glyph-name="Itilde" unicode="&#x128;" horiz-adv-x="228" 
d="M321 884l45 -60q-28 -20 -40.5 -28t-36 -15.5t-51.5 -7.5q-17 0 -47.5 8t-54.5 16t-26 8q-34 0 -80 -38l-44 60q67 53 125 53q35 0 76 -17t56 -17q30 0 78 38zM103 -1h-82l96 687h82z" />
    <glyph glyph-name="itilde" unicode="&#x129;" horiz-adv-x="260" 
d="M285 705l45 -60q-28 -20 -40.5 -28t-36 -15.5t-51.5 -7.5q-17 0 -47.5 8t-54.5 16t-26 8q-34 0 -80 -38l-44 60q67 53 125 53q35 0 76 -17t56 -17q30 0 78 38zM99 87v-4q0 -7 4.5 -12t10.5 -5q20 0 28 23l62 -47q-36 -52 -93 -52q-38 0 -63.5 25.5t-25.5 61.5q0 9 1 14
l58 417h77z" />
    <glyph glyph-name="Imacron" unicode="&#x12a;" horiz-adv-x="228" 
d="M340 787h-340l11 78h340zM103 -1h-82l96 687h82z" />
    <glyph glyph-name="imacron" unicode="&#x12b;" horiz-adv-x="260" 
d="M304 608h-340l11 78h340zM99 87v-4q0 -7 4.5 -12t10.5 -5q20 0 28 23l62 -47q-36 -52 -93 -52q-38 0 -63.5 25.5t-25.5 61.5q0 9 1 14l58 417h77z" />
    <glyph glyph-name="Ibreve" unicode="&#x12c;" horiz-adv-x="228" 
d="M254 911l82 -4q-10 -74 -53.5 -114t-112.5 -40q-65 0 -100 34.5t-35 91.5q0 16 3 32l81 -4q-2 -18 -2 -24q0 -55 56 -55q72 0 81 83zM103 -1h-82l96 687h82z" />
    <glyph glyph-name="ibreve" unicode="&#x12d;" horiz-adv-x="260" 
d="M218 732l82 -4q-10 -74 -53.5 -114t-112.5 -40q-65 0 -100 34.5t-35 91.5q0 16 3 32l81 -4q-2 -18 -2 -24q0 -55 56 -55q72 0 81 83zM99 87v-4q0 -7 4.5 -12t10.5 -5q20 0 28 23l62 -47q-36 -52 -93 -52q-38 0 -63.5 25.5t-25.5 61.5q0 9 1 14l58 417h77z" />
    <glyph glyph-name="Iogonek" unicode="&#x12e;" horiz-adv-x="228" 
d="M-4 -119v-5q0 -18 22 -18q24 0 58 28l30 -66q-18 -16 -48.5 -26t-55.5 -10q-38 0 -62 25t-24 63q0 12 2 22t9 21t11 17t17.5 18.5t18.5 17t24 20t24 20.5l95 678h82l-96 -687h-2q-65 -59 -84 -79.5t-21 -38.5z" />
    <glyph glyph-name="iogonek" unicode="&#x12f;" horiz-adv-x="260" 
d="M143 611q-20 0 -34 14.5t-14 34.5q0 22 17.5 39t37.5 17q21 0 35.5 -15t14.5 -35q0 -21 -18 -38t-39 -17zM142 89l62 -47q-12 -17 -33 -33q-85 -77 -97 -96q-9 -12 -10 -24v-5q0 -18 22 -18q24 0 58 28l30 -66q-18 -16 -48.5 -26t-55.5 -10q-38 0 -62 25t-24 63
q0 33 20 57.5t66 61.5q-48 25 -48 78q0 9 1 14l58 417h77l-59 -421v-4q0 -7 4.5 -12t10.5 -5q20 0 28 23z" />
    <glyph glyph-name="Idotaccent" unicode="&#x130;" horiz-adv-x="228" 
d="M186 895q21 0 35.5 -15t14.5 -35q0 -21 -18 -38t-39 -17q-20 0 -34 14.5t-14 34.5q0 21 17.5 38.5t37.5 17.5zM103 -1h-82l96 687h82z" />
    <glyph glyph-name="dotlessi" unicode="&#x131;" horiz-adv-x="260" 
d="M99 87v-4q0 -7 4.5 -12t10.5 -5q20 0 28 23l62 -47q-36 -52 -93 -52q-38 0 -63.5 25.5t-25.5 61.5q0 9 1 14l58 417h77z" />
    <glyph glyph-name="IJ" unicode="&#x132;" horiz-adv-x="712" 
d="M342 594l-29 71q84 33 120 33q21 0 87 -25q33 -10 47 -10q11 0 33 11h-1q14 7 14 6.5t-1 -4.5l14 13h67l-70 -495q-12 -82 -66.5 -140t-146.5 -58q-83 0 -122 46.5t-39 114.5q0 14 4 42l76 -10q-3 -17 -3 -30q0 -40 23 -62.5t67 -22.5q59 0 90.5 37.5t38.5 89.5l57 390
q-17 -6 -40 -6t-47 8q-18 4 -45 15.5t-40 11.5q-16 0 -47.5 -12t-40.5 -14zM103 -1h-82l96 687h82z" />
    <glyph glyph-name="ij" unicode="&#x133;" horiz-adv-x="467" 
d="M150 716q21 0 35.5 -15t14.5 -35q0 -21 -18 -38t-39 -17q-20 0 -34 14.5t-14 34.5q0 22 17.5 39t37.5 17zM413 716q21 0 35.5 -15t14.5 -35q0 -21 -18 -38t-39 -17q-20 0 -34 14.5t-14 34.5q0 22 17 39t38 17zM422 509l-93 -665q-6 -40 -37.5 -68.5t-71.5 -28.5
q-60 0 -84 56l69 38q5 -11 8 -14t10 -3q11 0 19.5 7.5t10.5 16.5l92 661h77zM99 87v-4q0 -7 4.5 -12t10.5 -5q20 0 28 23l62 -47q-36 -52 -93 -52q-38 0 -63.5 25.5t-25.5 61.5q0 9 1 14l58 417h77z" />
    <glyph glyph-name="Jcircumflex" unicode="&#x134;" horiz-adv-x="484" 
d="M472 763h-94l-60 81l-86 -81h-98l163 161h58zM114 594l-29 71q84 33 120 33q21 0 87 -25q33 -10 47 -10q11 0 33 11h-1q14 7 14 6.5t-1 -4.5l14 13h67l-70 -495q-12 -82 -66.5 -140t-146.5 -58q-83 0 -122 46.5t-39 114.5q0 14 4 42l76 -10q-3 -17 -3 -30q0 -40 23 -62.5
t67 -22.5q59 0 90.5 37.5t38.5 89.5l57 390q-17 -6 -40 -6t-47 8q-18 4 -45 15.5t-40 11.5q-16 0 -47.5 -12t-40.5 -14z" />
    <glyph glyph-name="jcircumflex" unicode="&#x135;" horiz-adv-x="267" 
d="M362 586h-94l-60 81l-86 -81h-98l163 161h58zM222 509l-93 -665q-6 -40 -37.5 -68.5t-71.5 -28.5q-60 0 -84 56l69 38q5 -11 8 -14t10 -3q11 0 19.5 7.5t10.5 16.5l92 661h77z" />
    <glyph glyph-name="Kcommaaccent" unicode="&#x136;" horiz-adv-x="654" 
d="M470 688l101 -4q-105 -155 -137 -204q-10 -13 -33 -44t-30 -40q-35 -37 -55 -51l149 -267q5 -8 14 -8q11 0 19 7.5t9 18.5v1q2 5 1 8l78 -3q-2 -52 -38 -81t-74 -29q-24 0 -45 12t-31 32l-157 275q-37 -9 -92 -8l-44 -303h-84l96 686h82l-42 -302h28q36 1 58 14
q26 10 48 36q36 35 79 100q21 27 100 154zM242 -277h-76l75 224h86z" />
    <glyph glyph-name="kcommaaccent" unicode="&#x137;" horiz-adv-x="596" 
d="M199 728l-40 -278q63 68 153 68q65 0 104.5 -38.5t39.5 -99.5q0 -8 -2 -26q-13 -88 -104 -138l63 -133q1 -4 7 -4q29 0 32 24v10l78 -8q-3 -40 -36 -72.5t-73 -32.5q-25 0 -47.5 14t-30.5 35l-71 145h-148l-27 -194h-76l102 728h76zM137 266l99 2q43 0 71 14q75 27 75 98
q0 30 -19.5 48t-54.5 18q-47 0 -87.5 -32.5t-63.5 -90.5q-14 -29 -20 -57zM213 -277h-76l75 224h86z" />
    <glyph glyph-name="kgreenlandic" unicode="&#x138;" horiz-adv-x="544" 
d="M170 518l-11 -67q61 65 150 65q68 0 108.5 -36.5t40.5 -95.5q0 -37 -17.5 -79t-57.5 -72q-2 -1 -14 -7.5t-19 -9.5l61 -132q5 -5 13 -5q11 0 19 7t8 14l13 10l66 -5q-4 -43 -37 -74t-72 -31q-26 0 -47.5 13.5t-30.5 35.5l-71 145h-148l-27 -194h-76l73 518h76zM137 266
l99 2q68 0 108 31.5t40 80.5q0 32 -22 49t-56 17q-47 0 -86.5 -33.5t-62.5 -88.5q-16 -30 -20 -58z" />
    <glyph glyph-name="Lacute" unicode="&#x139;" horiz-adv-x="527" 
d="M524 844l-202 -120l-28 52l188 135zM114 78h317l-11 -79h-399l96 687h82z" />
    <glyph glyph-name="lacute" unicode="&#x13a;" horiz-adv-x="283" 
d="M361 884l-202 -120l-28 52l188 135zM108 88v-4q0 -17 16 -17t28 22l61 -46q-15 -24 -41.5 -38t-51.5 -14q-37 0 -62.5 26t-25.5 62q0 9 1 13l89 635h76z" />
    <glyph glyph-name="Lcommaaccent" unicode="&#x13b;" horiz-adv-x="527" 
d="M114 78h317l-11 -79h-399l96 687h82zM178 -277h-76l75 224h86z" />
    <glyph glyph-name="lcommaaccent" unicode="&#x13c;" horiz-adv-x="283" 
d="M108 88v-4q0 -17 16 -17t28 22l61 -46q-15 -24 -41.5 -38t-51.5 -14q-37 0 -62.5 26t-25.5 62q0 9 1 13l89 635h76zM57 -277h-76l75 224h86z" />
    <glyph glyph-name="Lcaron" unicode="&#x13d;" horiz-adv-x="527" 
d="M114 78h317l-11 -79h-399l96 687h82z" />
    <glyph glyph-name="lcaron" unicode="&#x13e;" horiz-adv-x="283" 
d="M108 88v-4q0 -17 16 -17t28 22l61 -46q-15 -24 -41.5 -38t-51.5 -14q-37 0 -62.5 26t-25.5 62q0 9 1 13l89 635h76z" />
    <glyph glyph-name="Ldot" unicode="&#x13f;" horiz-adv-x="527" 
d="M114 78h317l-11 -79h-399l96 687h82zM274 408q26 0 44.5 -18.5t18.5 -44.5q0 -29 -23.5 -52.5t-51.5 -23.5q-27 0 -45.5 19t-18.5 45q0 7 1 10q3 26 26 45.5t49 19.5z" />
    <glyph glyph-name="ldot" unicode="&#x140;" horiz-adv-x="283" 
d="M108 88v-4q0 -17 16 -17t28 22l61 -46q-15 -24 -41.5 -38t-51.5 -14q-37 0 -62.5 26t-25.5 62q0 9 1 13l89 635h76l-46 -329q18 10 35 10q26 0 44.5 -18.5t18.5 -44.5q0 -29 -23.5 -52.5t-51.5 -23.5q-23 0 -40 14z" />
    <glyph glyph-name="Lslash" unicode="&#x141;" horiz-adv-x="527" 
d="M431 78l-11 -79h-399l39 280l-46 -30l11 90l48 31l44 316h82l-36 -256l123 80l-11 -91l-125 -81l-36 -260h317z" />
    <glyph glyph-name="lslash" unicode="&#x142;" horiz-adv-x="283" 
d="M68 88v-4q0 -17 16 -17t28 22l61 -46q-15 -24 -41.5 -38t-51.5 -14q-37 0 -62.5 26t-25.5 62q0 9 1 13l33 237l-22 -13l13 88l21 12l44 311h76l-37 -263l121 70l-13 -89l-120 -69z" />
    <glyph glyph-name="Nacute" unicode="&#x143;" horiz-adv-x="787" 
d="M683 844l-202 -120l-28 52l188 135zM345 561l277 -397l-5 13l67 508h81l-96 -686h-34l-385 551l6 -11l-58 -447q-6 -45 -43 -70.5t-73 -25.5q-35 0 -61 26t-26 63q0 9 1 13q0 8 1 10l80 -4q-5 -10 -5 -13v-3q0 -15 16 -15q10 0 18.5 7.5t9.5 15.5l83 590h53z" />
    <glyph glyph-name="nacute" unicode="&#x144;" horiz-adv-x="621" 
d="M531 673l-202 -120l-28 52l188 135zM59 470l52 45q40 -25 49 -77q75 78 174 78q72 0 112 -35t40 -102q0 -3 -0.5 -9t-0.5 -9l-39 -277v-3q0 -8 5 -13t11 -4q15 0 29 20l59 -45q-35 -52 -92 -52q-39 0 -64.5 26.5t-25.5 62.5q0 8 1 12l36 251q2 22 2 30q0 38 -19.5 55.5
t-60.5 17.5q-48 0 -85 -22.5t-79 -69.5l-50 -351h-77l50 357q3 20 3 35q0 52 -30 79z" />
    <glyph glyph-name="Ncommaaccent" unicode="&#x145;" horiz-adv-x="787" 
d="M345 561l277 -397l-5 13l67 508h81l-96 -686h-34l-385 551l6 -11l-58 -447q-6 -45 -43 -70.5t-73 -25.5q-35 0 -61 26t-26 63q0 9 1 13q0 8 1 10l80 -4q-5 -10 -5 -13v-3q0 -15 16 -15q10 0 18.5 7.5t9.5 15.5l83 590h53zM338 -277h-76l75 224h86z" />
    <glyph glyph-name="ncommaaccent" unicode="&#x146;" horiz-adv-x="621" 
d="M59 470l52 45q40 -25 49 -77q75 78 174 78q72 0 112 -35t40 -102q0 -3 -0.5 -9t-0.5 -9l-39 -277v-3q0 -8 5 -13t11 -4q15 0 29 20l59 -45q-35 -52 -92 -52q-39 0 -64.5 26.5t-25.5 62.5q0 8 1 12l36 251q2 22 2 30q0 38 -19.5 55.5t-60.5 17.5q-48 0 -85 -22.5
t-79 -69.5l-50 -351h-77l50 357q3 20 3 35q0 52 -30 79zM194 -277h-76l75 224h86z" />
    <glyph glyph-name="Ncaron" unicode="&#x147;" horiz-adv-x="787" 
d="M523 756h-58l-117 161h94l60 -81l86 81h99zM345 561l277 -397l-5 13l67 508h81l-96 -686h-34l-385 551l6 -11l-58 -447q-6 -45 -43 -70.5t-73 -25.5q-35 0 -61 26t-26 63q0 9 1 13q0 8 1 10l80 -4q-5 -10 -5 -13v-3q0 -15 16 -15q10 0 18.5 7.5t9.5 15.5l83 590h53z" />
    <glyph glyph-name="ncaron" unicode="&#x148;" horiz-adv-x="621" 
d="M371 585h-58l-117 161h94l60 -81l86 81h99zM59 470l52 45q40 -25 49 -77q75 78 174 78q72 0 112 -35t40 -102q0 -3 -0.5 -9t-0.5 -9l-39 -277v-3q0 -8 5 -13t11 -4q15 0 29 20l59 -45q-35 -52 -92 -52q-39 0 -64.5 26.5t-25.5 62.5q0 8 1 12l36 251q2 22 2 30
q0 38 -19.5 55.5t-60.5 17.5q-48 0 -85 -22.5t-79 -69.5l-50 -351h-77l50 357q3 20 3 35q0 52 -30 79z" />
    <glyph glyph-name="napostrophe" unicode="&#x149;" horiz-adv-x="621" 
d="M553 604l8 58q1 16 14 32q17 10 31 10q22 0 30 -17q13 -9 9 -29l-8 -58q-6 -45 -26 -87q-27 -46 -73 -74l-48 49q51 36 63 116zM40 481l52 45q40 -25 49 -77q75 78 174 78q72 0 112 -35t40 -102q0 -3 -0.5 -9t-0.5 -9l-39 -277v-3q0 -8 5 -13t11 -4q15 0 29 20l59 -45
q-35 -52 -92 -52q-39 0 -64.5 26.5t-25.5 62.5q0 8 1 12l36 251q2 22 2 30q0 38 -19.5 55.5t-60.5 17.5q-48 0 -85 -22.5t-79 -69.5l-50 -351h-77l50 357q3 19 3 35q0 52 -30 79z" />
    <glyph glyph-name="Eng" unicode="&#x14a;" horiz-adv-x="612" 
 />
    <glyph glyph-name="eng" unicode="&#x14b;" horiz-adv-x="612" 
 />
    <glyph glyph-name="Omacron" unicode="&#x14c;" horiz-adv-x="815" 
d="M636 787h-340l11 78h340zM54 333l2 19q21 144 136.5 250t259.5 106q132 0 220 -91t88 -221q0 -24 -3 -48l-3 -19q-20 -147 -135 -251.5t-258 -104.5q-133 0 -221.5 90.5t-88.5 221.5q0 24 3 48zM678 333l2 19q3 21 3 42q0 102 -67 169.5t-167 67.5q-114 0 -206.5 -85
t-108.5 -198l-3 -19q-3 -21 -3 -41q0 -102 66.5 -170t166.5 -68q114 0 207 84t110 199z" />
    <glyph glyph-name="omacron" unicode="&#x14d;" horiz-adv-x="620" 
d="M516 616h-340l11 78h340zM328 516q101 0 162 -63t61 -162q0 -21 -3 -43q-16 -113 -97 -185.5t-190 -72.5q-101 0 -161 62t-60 160q0 20 3 43q15 111 95 186t190 75zM326 442q-84 0 -138.5 -55t-66.5 -139q-3 -20 -3 -36q0 -68 39 -108t108 -40q83 0 138 55t67 141
q3 20 3 36q0 68 -39 107t-108 39z" />
    <glyph glyph-name="Obreve" unicode="&#x14e;" horiz-adv-x="815" 
d="M550 911l82 -4q-10 -74 -53.5 -114t-112.5 -40q-65 0 -100 34.5t-35 91.5q0 16 3 32l81 -4q-2 -18 -2 -24q0 -55 56 -55q72 0 81 83zM54 333l2 19q21 144 136.5 250t259.5 106q132 0 220 -91t88 -221q0 -24 -3 -48l-3 -19q-20 -147 -135 -251.5t-258 -104.5
q-133 0 -221.5 90.5t-88.5 221.5q0 24 3 48zM678 333l2 19q3 21 3 42q0 102 -67 169.5t-167 67.5q-114 0 -206.5 -85t-108.5 -198l-3 -19q-3 -21 -3 -41q0 -102 66.5 -170t166.5 -68q114 0 207 84t110 199z" />
    <glyph glyph-name="obreve" unicode="&#x14f;" horiz-adv-x="620" 
d="M430 740l82 -4q-10 -74 -53.5 -114t-112.5 -40q-65 0 -100 34.5t-35 91.5q0 16 3 32l81 -4q-2 -18 -2 -24q0 -55 56 -55q72 0 81 83zM328 516q101 0 162 -63t61 -162q0 -21 -3 -43q-16 -113 -97 -185.5t-190 -72.5q-101 0 -161 62t-60 160q0 20 3 43q15 111 95 186
t190 75zM326 442q-84 0 -138.5 -55t-66.5 -139q-3 -20 -3 -36q0 -68 39 -108t108 -40q83 0 138 55t67 141q3 20 3 36q0 68 -39 107t-108 39z" />
    <glyph glyph-name="Ohungarumlaut" unicode="&#x150;" horiz-adv-x="815" 
d="M549 880l-182 -136l-50 51l184 137zM735 880l-184 -136l-50 51l183 137zM54 333l2 19q21 144 136.5 250t259.5 106q132 0 220 -91t88 -221q0 -24 -3 -48l-3 -19q-20 -147 -135 -251.5t-258 -104.5q-133 0 -221.5 90.5t-88.5 221.5q0 24 3 48zM678 333l2 19q3 21 3 42
q0 102 -67 169.5t-167 67.5q-114 0 -206.5 -85t-108.5 -198l-3 -19q-3 -21 -3 -41q0 -102 66.5 -170t166.5 -68q114 0 207 84t110 199z" />
    <glyph glyph-name="ohungarumlaut" unicode="&#x151;" horiz-adv-x="620" 
d="M429 709l-182 -136l-50 51l184 137zM615 709l-184 -136l-50 51l183 137zM328 516q101 0 162 -63t61 -162q0 -21 -3 -43q-16 -113 -97 -185.5t-190 -72.5q-101 0 -161 62t-60 160q0 20 3 43q15 111 95 186t190 75zM326 442q-84 0 -138.5 -55t-66.5 -139q-3 -20 -3 -36
q0 -68 39 -108t108 -40q83 0 138 55t67 141q3 20 3 36q0 68 -39 107t-108 39z" />
    <glyph glyph-name="OE" unicode="&#x152;" horiz-adv-x="1205" 
d="M759 415l1 -3h280l-11 -79h-274l-1 -4q-4 -30 -16 -70l-24 -170h397l-11 -79h-477l12 83q-118 -120 -274 -120q-133 0 -221.5 90.5t-88.5 221.5q0 24 3 48l2 19q21 144 136.5 250t259.5 106q79 0 144 -34t107 -94l16 117h458l-11 -78h-378zM134 348l-3 -19q-3 -21 -3 -41
q0 -102 66.5 -170t166.5 -68q94 0 176.5 60t120.5 150l23 166q-11 90 -76 147.5t-156 57.5q-114 0 -206.5 -85t-108.5 -198z" />
    <glyph glyph-name="oe" unicode="&#x153;" horiz-adv-x="961" 
d="M829 115l33 -61q-93 -64 -201 -64q-142 0 -180 111q-81 -111 -219 -111q-101 0 -161.5 61t-60.5 159q0 22 3 45q16 112 96 186.5t190 74.5q69 0 119.5 -31.5t74.5 -87.5q74 119 199 119q71 0 118.5 -37.5t47.5 -102.5q0 -49 -21.5 -85.5t-58 -57t-78.5 -30.5t-89 -10
l-102 -2q1 -127 123 -127q69 0 167 51zM545 265l102 2q163 0 163 108q0 35 -25 52.5t-62 17.5q-67 0 -116 -54.5t-62 -125.5zM326 442q-81 0 -137 -53.5t-68 -138.5q-3 -18 -3 -35q0 -69 38.5 -110t107.5 -41q82 0 138.5 55t67.5 141q3 18 3 36q0 67 -39 106.5t-108 39.5z
" />
    <glyph glyph-name="Racute" unicode="&#x154;" horiz-adv-x="728" 
d="M383 724l-28 52l188 135l42 -67zM578 103l82 -6q-1 -45 -35 -76t-76 -31q-50 0 -76 44l-101 159q-22 39 -46.5 55.5t-73.5 19.5l8 77h94q66 0 108 44.5t42 113.5q0 48 -26.5 77t-71.5 29h-136l-85 -610h-83l85 610h-5q-15 0 -28 -12t-15 -28q0 -1 -0.5 -4.5t-0.5 -5.5
l-77 4q3 52 43 92q38 31 83 31h229q48 0 79 -19q42 -21 65.5 -65t23.5 -99q0 -22 -2 -33q-10 -72 -56 -122t-108 -63l-36 12q8 -3 22 -15l-13 -1h14q9 -7 14 -16l121 -190q5 -9 11 -9q10 0 20 9t11 19q0 5 -4 9zM405 281l-1 1q2 0 6.5 1t7.5 2l8 -4h-21z" />
    <glyph glyph-name="racute" unicode="&#x155;" horiz-adv-x="373" 
d="M458 666l-202 -120l-28 52l188 135zM69 470l52 45q38 -27 48 -72q27 32 54 51q43 22 93 22q14 0 69 -10l-6 -74q-34 9 -63 9q-51 0 -80 -25q-33 -20 -63 -64l-50 -353h-77l50 357q3 20 3 35q0 52 -30 79z" />
    <glyph glyph-name="Rcommaaccent" unicode="&#x156;" horiz-adv-x="728" 
d="M578 103l82 -6q-1 -45 -35 -76t-76 -31q-50 0 -76 44l-101 159q-22 39 -46.5 55.5t-73.5 19.5l8 77h94q66 0 108 44.5t42 113.5q0 48 -26.5 77t-71.5 29h-136l-85 -610h-83l85 610h-5q-15 0 -28 -12t-15 -28q0 -1 -0.5 -4.5t-0.5 -5.5l-77 4q3 52 43 92q38 31 83 31h229
q48 0 79 -19q42 -21 65.5 -65t23.5 -99q0 -22 -2 -33q-10 -72 -56 -122t-108 -63l-36 12q8 -3 22 -15l-13 -1h14q9 -7 14 -16l121 -190q5 -9 11 -9q10 0 20 9t11 19q0 5 -4 9zM405 281l-1 1q2 0 6.5 1t7.5 2l8 -4h-21zM241 -53h86l-85 -224h-76z" />
    <glyph glyph-name="rcommaaccent" unicode="&#x157;" horiz-adv-x="373" 
d="M69 470l52 45q38 -27 48 -72q27 32 54 51q43 22 93 22q14 0 69 -10l-6 -74q-34 9 -63 9q-51 0 -80 -25q-33 -20 -63 -64l-50 -353h-77l50 357q3 20 3 35q0 52 -30 79zM34 -277h-76l75 224h86z" />
    <glyph glyph-name="Rcaron" unicode="&#x158;" horiz-adv-x="728" 
d="M367 756l-117 161h94l60 -81l86 81h99l-164 -161h-58zM578 103l82 -6q-1 -45 -35 -76t-76 -31q-50 0 -76 44l-101 159q-22 39 -46.5 55.5t-73.5 19.5l8 77h94q66 0 108 44.5t42 113.5q0 48 -26.5 77t-71.5 29h-136l-85 -610h-83l85 610h-5q-15 0 -28 -12t-15 -28
q0 -1 -0.5 -4.5t-0.5 -5.5l-77 4q3 52 43 92q38 31 83 31h229q48 0 79 -19q42 -21 65.5 -65t23.5 -99q0 -22 -2 -33q-10 -72 -56 -122t-108 -63l-36 12q8 -3 22 -15l-13 -1h14q9 -7 14 -16l121 -190q5 -9 11 -9q10 0 20 9t11 19q0 5 -4 9zM405 281l-1 1q2 0 6.5 1t7.5 2
l8 -4h-21z" />
    <glyph glyph-name="rcaron" unicode="&#x159;" horiz-adv-x="373" 
d="M298 578h-58l-117 161h94l60 -81l86 81h99zM69 470l52 45q38 -27 48 -72q27 32 54 51q43 22 93 22q14 0 69 -10l-6 -74q-34 9 -63 9q-51 0 -80 -25q-33 -20 -63 -64l-50 -353h-77l50 357q3 20 3 35q0 52 -30 79z" />
    <glyph glyph-name="Sacute" unicode="&#x15a;" horiz-adv-x="572" 
d="M544 865l-202 -120l-28 52l188 135zM11 159l73 25q15 -63 57.5 -97.5t100.5 -34.5q67 0 116.5 43t57.5 104q1 6 1 18q0 32 -17 52t-54 43q-11 6 -43.5 21.5t-50 25t-44 27.5t-41 35t-25.5 42.5t-11 53.5q0 81 63.5 136t145.5 55q35 0 62 -12q42 -12 65 -40t23 -64
q0 -44 -32 -75.5t-75 -31.5q-9 0 -23 2l15 80q5 -9 12 -9q10 0 17.5 9.5t7.5 22.5q0 18 -23 29.5t-51 11.5q-51 0 -91 -32t-40 -74q0 -21 12 -39t33.5 -33.5t42.5 -27t48.5 -25.5t42.5 -23q108 -58 108 -157q0 -94 -77 -169.5t-177 -75.5q-83 0 -149 52.5t-80 131.5z" />
    <glyph glyph-name="sacute" unicode="&#x15b;" horiz-adv-x="461" 
d="M451 673l-202 -120l-28 52l188 135zM4 56l44 58q61 -50 138 -50q51 0 85 23t34 70q0 20 -11 33.5t-36 27.5q-16 8 -46 19.5t-49.5 20.5t-40.5 23.5t-32 35t-11 48.5q0 69 50 110t119 41q36 0 75 -10.5t59 -27.5l-22 -71q-51 35 -115 35q-40 0 -63.5 -18.5t-23.5 -47.5
q0 -26 25.5 -43t71.5 -35.5t69 -34.5q60 -37 60 -104q0 -6 -2 -22q-10 -73 -69.5 -110t-134.5 -37q-105 0 -174 66z" />
    <glyph glyph-name="Scircumflex" unicode="&#x15c;" horiz-adv-x="572" 
d="M523 786h-94l-60 81l-86 -81h-98l163 161h58zM11 159l73 25q15 -63 57.5 -97.5t100.5 -34.5q67 0 116.5 43t57.5 104q1 6 1 18q0 32 -17 52t-54 43q-11 6 -43.5 21.5t-50 25t-44 27.5t-41 35t-25.5 42.5t-11 53.5q0 81 63.5 136t145.5 55q35 0 62 -12q42 -12 65 -40
t23 -64q0 -44 -32 -75.5t-75 -31.5q-9 0 -23 2l15 80q5 -9 12 -9q10 0 17.5 9.5t7.5 22.5q0 18 -23 29.5t-51 11.5q-51 0 -91 -32t-40 -74q0 -21 12 -39t33.5 -33.5t42.5 -27t48.5 -25.5t42.5 -23q108 -58 108 -157q0 -94 -77 -169.5t-177 -75.5q-83 0 -149 52.5t-80 131.5z
" />
    <glyph glyph-name="scircumflex" unicode="&#x15d;" horiz-adv-x="461" 
d="M430 594h-94l-60 81l-86 -81h-98l163 161h58zM4 56l44 58q61 -50 138 -50q51 0 85 23t34 70q0 20 -11 33.5t-36 27.5q-16 8 -46 19.5t-49.5 20.5t-40.5 23.5t-32 35t-11 48.5q0 69 50 110t119 41q36 0 75 -10.5t59 -27.5l-22 -71q-51 35 -115 35q-40 0 -63.5 -18.5
t-23.5 -47.5q0 -26 25.5 -43t71.5 -35.5t69 -34.5q60 -37 60 -104q0 -6 -2 -22q-10 -73 -69.5 -110t-134.5 -37q-105 0 -174 66z" />
    <glyph glyph-name="Scedilla" unicode="&#x15e;" horiz-adv-x="572" 
d="M360 487l15 80q5 -9 12 -9q10 0 17.5 9.5t7.5 22.5q0 18 -23 29.5t-51 11.5q-51 0 -91 -32t-40 -74q0 -21 12 -39t33.5 -33.5t42.5 -27t48.5 -25.5t42.5 -23q108 -58 108 -157q0 -82 -61 -152.5t-146 -87.5q50 -19 50 -82q0 -46 -39 -87.5t-97 -35.5l7 75q4 -1 10 -1
q18 0 31.5 15t13.5 33q0 20 -30 20h-45l15 61q-72 11 -125.5 61t-66.5 120l73 25q15 -63 57.5 -97.5t100.5 -34.5q67 0 116.5 43t57.5 104q1 6 1 18q0 32 -17 52t-54 43q-11 6 -43.5 21.5t-50 25t-44 27.5t-41 35t-25.5 42.5t-11 53.5q0 81 63.5 136t145.5 55q35 0 62 -12
q42 -12 65 -40t23 -64q0 -44 -32 -75.5t-75 -31.5q-9 0 -23 2z" />
    <glyph glyph-name="scedilla" unicode="&#x15f;" horiz-adv-x="461" 
d="M382 478l-22 -71q-51 35 -115 35q-40 0 -63.5 -18.5t-23.5 -47.5q0 -26 25.5 -43t71.5 -35.5t69 -34.5q60 -37 60 -104q0 -6 -2 -22q-8 -61 -50.5 -96t-103.5 -47l-5 -12q57 -16 57 -84q0 -46 -39 -87.5t-97 -35.5l7 75q4 -1 10 -1q18 0 31.5 15t13.5 33q0 20 -30 20h-45
l19 74q-88 9 -146 65l44 58q61 -50 138 -50q51 0 85 23t34 70q0 20 -11 33.5t-36 27.5q-16 8 -46 19.5t-49.5 20.5t-40.5 23.5t-32 35t-11 48.5q0 69 50 110t119 41q36 0 75 -10.5t59 -27.5z" />
    <glyph glyph-name="Scaron" unicode="&#x160;" horiz-adv-x="572" 
d="M384 777h-58l-117 161h94l60 -81l86 81h99zM11 159l73 25q15 -63 57.5 -97.5t100.5 -34.5q67 0 116.5 43t57.5 104q1 6 1 18q0 32 -17 52t-54 43q-11 6 -43.5 21.5t-50 25t-44 27.5t-41 35t-25.5 42.5t-11 53.5q0 81 63.5 136t145.5 55q35 0 62 -12q42 -12 65 -40t23 -64
q0 -44 -32 -75.5t-75 -31.5q-9 0 -23 2l15 80q5 -9 12 -9q10 0 17.5 9.5t7.5 22.5q0 18 -23 29.5t-51 11.5q-51 0 -91 -32t-40 -74q0 -21 12 -39t33.5 -33.5t42.5 -27t48.5 -25.5t42.5 -23q108 -58 108 -157q0 -94 -77 -169.5t-177 -75.5q-83 0 -149 52.5t-80 131.5z" />
    <glyph glyph-name="scaron" unicode="&#x161;" horiz-adv-x="461" 
d="M291 585h-58l-117 161h94l60 -81l86 81h99zM4 56l44 58q61 -50 138 -50q51 0 85 23t34 70q0 20 -11 33.5t-36 27.5q-16 8 -46 19.5t-49.5 20.5t-40.5 23.5t-32 35t-11 48.5q0 69 50 110t119 41q36 0 75 -10.5t59 -27.5l-22 -71q-51 35 -115 35q-40 0 -63.5 -18.5
t-23.5 -47.5q0 -26 25.5 -43t71.5 -35.5t69 -34.5q60 -37 60 -104q0 -6 -2 -22q-10 -73 -69.5 -110t-134.5 -37q-105 0 -174 66z" />
    <glyph glyph-name="Tcedilla" unicode="&#x162;" horiz-adv-x="637" 
d="M647 686l-11 -78h-231l-80 -575h3l-5 -12l-3 -22h-6l-7 -17q57 -16 57 -84q0 -46 -39 -87.5t-97 -35.5l7 75q4 -1 10 -1q18 0 31.5 15t13.5 33q0 20 -30 20h-45l24 96l83 595h-142q-10 0 -18 -8t-9 -17q0 -6 3 -8l-82 3q2 47 38 82q34 26 72 26h463z" />
    <glyph glyph-name="tcedilla" unicode="&#x163;" horiz-adv-x="384" 
d="M155 429l-39 -281q-3 -19 -3 -35q0 -25 10 -37t34 -12q65 0 98 65l56 -48q-48 -72 -120 -87l-5 -12q57 -16 57 -84q0 -46 -39 -87.5t-97 -35.5l7 75q4 -1 10 -1q18 0 31.5 15t13.5 33q0 20 -30 20h-45l19 78q-76 20 -76 118q0 18 3 39l67 476h76l-17 -122h154l-11 -77
h-154z" />
    <glyph glyph-name="Tcaron" unicode="&#x164;" horiz-adv-x="637" 
d="M420 756h-58l-117 161h94l60 -81l86 81h99zM636 608h-231l-85 -609h-83l85 609h-142q-10 0 -18 -8t-9 -17q0 -6 3 -8l-82 3q2 47 38 82q34 26 72 26h463z" />
    <glyph glyph-name="tcaron" unicode="&#x165;" horiz-adv-x="384" 
d="M314 689l1 9q1 16 14 32q17 10 31 10q22 0 30 -17q13 -9 9 -29l-1 -9q-6 -46 -26 -88q-27 -46 -74 -74l-47 49q51 38 63 117zM166 506h154l-11 -77h-154l-39 -281q-3 -19 -3 -35q0 -25 10 -37t34 -12q65 0 98 65l56 -48q-60 -91 -157 -91q-117 0 -117 123q0 18 3 39
l67 476h76z" />
    <glyph glyph-name="Tbar" unicode="&#x166;" horiz-adv-x="637" 
d="M564 787h-340l11 78h340zM636 608h-231l-85 -609h-83l85 609h-142q-10 0 -18 -8t-9 -17q0 -6 3 -8l-82 3q2 47 38 82q34 26 72 26h463z" />
    <glyph glyph-name="tbar" unicode="&#x167;" horiz-adv-x="384" 
d="M136 289l-20 -141q-3 -19 -3 -35q0 -25 10 -37t34 -12q65 0 98 65l56 -48q-60 -91 -157 -91q-117 0 -117 123q0 18 3 39l19 137h-84l11 78h84l37 261h76l-17 -122h154l-11 -77h-154l-9 -62h180l-11 -78h-179z" />
    <glyph glyph-name="Utilde" unicode="&#x168;" horiz-adv-x="760" 
d="M633 884l45 -60q-28 -20 -40.5 -28t-36 -15.5t-51.5 -7.5q-17 0 -47.5 8t-54.5 16t-26 8q-34 0 -80 -38l-44 60q67 53 125 53q35 0 76 -17t56 -17q30 0 78 38zM137 589l-65 51q15 24 44 39.5t56 15.5q44 0 70 -24t26 -65q0 -6 -2 -20l-44 -317q-3 -21 -3 -41
q0 -73 40 -117t119 -44q95 0 152 61.5t69 144.5l58 414h83l-58 -418q-16 -112 -96 -195t-209 -83q-115 0 -178 67.5t-63 168.5q0 23 3 46l45 317v7q0 16 -14 16q-24 0 -33 -24z" />
    <glyph glyph-name="utilde" unicode="&#x169;" horiz-adv-x="635" 
d="M473 705l45 -60q-28 -20 -40.5 -28t-36 -15.5t-51.5 -7.5q-17 0 -47.5 8t-54.5 16t-26 8q-34 0 -80 -38l-44 60q67 53 125 53q35 0 76 -17t56 -17q30 0 78 38zM58 458l48 62q25 -21 36.5 -32t25.5 -35.5t14 -50.5q0 -11 -1 -16l-31 -218q-2 -20 -2 -28q0 -39 19.5 -57
t61.5 -18q48 0 83.5 21.5t79.5 70.5l51 351h77l-60 -422v-4q0 -7 5 -12t11 -5q16 0 28 22l61 -48q-36 -50 -91 -50q-35 0 -59.5 20.5t-29.5 50.5q-71 -68 -163 -68q-73 0 -112.5 34.5t-39.5 101.5q0 3 0.5 9t0.5 9l35 244q1 11 -5 23t-12.5 18.5t-18 16t-12.5 10.5z" />
    <glyph glyph-name="Umacron" unicode="&#x16a;" horiz-adv-x="760" 
d="M652 787h-340l11 78h340zM137 589l-65 51q15 24 44 39.5t56 15.5q44 0 70 -24t26 -65q0 -6 -2 -20l-44 -317q-3 -21 -3 -41q0 -73 40 -117t119 -44q95 0 152 61.5t69 144.5l58 414h83l-58 -418q-16 -112 -96 -195t-209 -83q-115 0 -178 67.5t-63 168.5q0 23 3 46l45 317
v7q0 16 -14 16q-24 0 -33 -24z" />
    <glyph glyph-name="umacron" unicode="&#x16b;" horiz-adv-x="635" 
d="M492 608h-340l11 78h340zM58 458l48 62q25 -21 36.5 -32t25.5 -35.5t14 -50.5q0 -11 -1 -16l-31 -218q-2 -20 -2 -28q0 -39 19.5 -57t61.5 -18q48 0 83.5 21.5t79.5 70.5l51 351h77l-60 -422v-4q0 -7 5 -12t11 -5q16 0 28 22l61 -48q-36 -50 -91 -50q-35 0 -59.5 20.5
t-29.5 50.5q-71 -68 -163 -68q-73 0 -112.5 34.5t-39.5 101.5q0 3 0.5 9t0.5 9l35 244q1 11 -5 23t-12.5 18.5t-18 16t-12.5 10.5z" />
    <glyph glyph-name="Ubreve" unicode="&#x16c;" horiz-adv-x="760" 
d="M566 911l82 -4q-10 -74 -53.5 -114t-112.5 -40q-65 0 -100 34.5t-35 91.5q0 16 3 32l81 -4q-2 -18 -2 -24q0 -55 56 -55q72 0 81 83zM137 589l-65 51q15 24 44 39.5t56 15.5q44 0 70 -24t26 -65q0 -6 -2 -20l-44 -317q-3 -21 -3 -41q0 -73 40 -117t119 -44q95 0 152 61.5
t69 144.5l58 414h83l-58 -418q-16 -112 -96 -195t-209 -83q-115 0 -178 67.5t-63 168.5q0 23 3 46l45 317v7q0 16 -14 16q-24 0 -33 -24z" />
    <glyph glyph-name="ubreve" unicode="&#x16d;" horiz-adv-x="635" 
d="M406 732l82 -4q-10 -74 -53.5 -114t-112.5 -40q-65 0 -100 34.5t-35 91.5q0 16 3 32l81 -4q-2 -18 -2 -24q0 -55 56 -55q72 0 81 83zM58 458l48 62q25 -21 36.5 -32t25.5 -35.5t14 -50.5q0 -11 -1 -16l-31 -218q-2 -20 -2 -28q0 -39 19.5 -57t61.5 -18q48 0 83.5 21.5
t79.5 70.5l51 351h77l-60 -422v-4q0 -7 5 -12t11 -5q16 0 28 22l61 -48q-36 -50 -91 -50q-35 0 -59.5 20.5t-29.5 50.5q-71 -68 -163 -68q-73 0 -112.5 34.5t-39.5 101.5q0 3 0.5 9t0.5 9l35 244q1 11 -5 23t-12.5 18.5t-18 16t-12.5 10.5z" />
    <glyph glyph-name="Uring" unicode="&#x16e;" horiz-adv-x="760" 
d="M499 932q45 0 71.5 -26.5t26.5 -68.5q0 -55 -36 -91.5t-88 -36.5q-45 0 -71 26t-26 68q0 55 34.5 92t88.5 37zM497 866q-20 0 -33 -13.5t-17 -36.5q-1 -4 -1 -10q0 -32 29 -32q21 0 37 17.5t16 41.5q0 33 -31 33zM137 589l-65 51q15 24 44 39.5t56 15.5q44 0 70 -24
t26 -65q0 -6 -2 -20l-44 -317q-3 -21 -3 -41q0 -73 40 -117t119 -44q95 0 152 61.5t69 144.5l58 414h83l-58 -418q-16 -112 -96 -195t-209 -83q-115 0 -178 67.5t-63 168.5q0 23 3 46l45 317v7q0 16 -14 16q-24 0 -33 -24z" />
    <glyph glyph-name="uring" unicode="&#x16f;" horiz-adv-x="635" 
d="M339 753q45 0 71.5 -26.5t26.5 -68.5q0 -55 -36 -91.5t-88 -36.5q-45 0 -71 26t-26 68q0 55 34.5 92t88.5 37zM337 687q-20 0 -33 -13.5t-17 -36.5q-1 -4 -1 -10q0 -32 29 -32q21 0 37 17.5t16 41.5q0 33 -31 33zM58 458l48 62q25 -21 36.5 -32t25.5 -35.5t14 -50.5
q0 -11 -1 -16l-31 -218q-2 -20 -2 -28q0 -39 19.5 -57t61.5 -18q48 0 83.5 21.5t79.5 70.5l51 351h77l-60 -422v-4q0 -7 5 -12t11 -5q16 0 28 22l61 -48q-36 -50 -91 -50q-35 0 -59.5 20.5t-29.5 50.5q-71 -68 -163 -68q-73 0 -112.5 34.5t-39.5 101.5q0 3 0.5 9t0.5 9
l35 244q1 11 -5 23t-12.5 18.5t-18 16t-12.5 10.5z" />
    <glyph glyph-name="Uhungarumlaut" unicode="&#x170;" horiz-adv-x="760" 
d="M565 880l-182 -136l-50 51l184 137zM751 880l-184 -136l-50 51l183 137zM137 589l-65 51q15 24 44 39.5t56 15.5q44 0 70 -24t26 -65q0 -6 -2 -20l-44 -317q-3 -21 -3 -41q0 -73 40 -117t119 -44q95 0 152 61.5t69 144.5l58 414h83l-58 -418q-16 -112 -96 -195t-209 -83
q-115 0 -178 67.5t-63 168.5q0 23 3 46l45 317v7q0 16 -14 16q-24 0 -33 -24z" />
    <glyph glyph-name="uhungarumlaut" unicode="&#x171;" horiz-adv-x="635" 
d="M405 701l-182 -136l-50 51l184 137zM591 701l-184 -136l-50 51l183 137zM58 458l48 62q25 -21 36.5 -32t25.5 -35.5t14 -50.5q0 -11 -1 -16l-31 -218q-2 -20 -2 -28q0 -39 19.5 -57t61.5 -18q48 0 83.5 21.5t79.5 70.5l51 351h77l-60 -422v-4q0 -7 5 -12t11 -5
q16 0 28 22l61 -48q-36 -50 -91 -50q-35 0 -59.5 20.5t-29.5 50.5q-71 -68 -163 -68q-73 0 -112.5 34.5t-39.5 101.5q0 3 0.5 9t0.5 9l35 244q1 11 -5 23t-12.5 18.5t-18 16t-12.5 10.5z" />
    <glyph glyph-name="Uogonek" unicode="&#x172;" horiz-adv-x="760" 
d="M740 687l-58 -418q-9 -66 -43 -126t-88 -99q-85 -77 -97 -96q-8 -13 -10 -24v-5q0 -18 22 -18q24 0 58 28l30 -66q-18 -16 -48.5 -26t-55.5 -10q-38 0 -62 25t-24 63q0 40 37 77l-24 -1q-115 0 -178 67.5t-63 168.5q0 23 3 46l45 317v7q0 16 -14 16q-24 0 -33 -24l-65 51
q15 24 44 39.5t56 15.5q44 0 70 -24t26 -65q0 -6 -2 -20l-44 -317q-3 -21 -3 -41q0 -73 40 -117t119 -44q95 0 152 61.5t69 144.5l58 414h83z" />
    <glyph glyph-name="uogonek" unicode="&#x173;" horiz-adv-x="635" 
d="M504 87l61 -48q-11 -15 -27 -28q-66 -60 -85 -80.5t-21 -38.5v-5q0 -18 22 -18q24 0 58 28l30 -66q-18 -16 -48.5 -26t-55.5 -10q-38 0 -62 25t-24 63q0 32 19 56t62 59q-40 18 -48 62q-71 -68 -163 -68q-73 0 -112.5 34.5t-39.5 101.5q0 3 0.5 9t0.5 9l35 244
q1 11 -5 23t-12.5 18.5t-18 16t-12.5 10.5l48 62q25 -21 36.5 -32t25.5 -35.5t14 -50.5q0 -11 -1 -16l-31 -218q-2 -20 -2 -28q0 -39 19.5 -57t61.5 -18q48 0 83.5 21.5t79.5 70.5l51 351h77l-60 -422v-4q0 -7 5 -12t11 -5q16 0 28 22z" />
    <glyph glyph-name="Wcircumflex" unicode="&#x174;" horiz-adv-x="1056" 
d="M583 765h-98l163 161h58l117 -161h-94l-60 81zM1121 687l-320 -688h-74l-101 548l-255 -548h-74l-113 605q-4 13 -15 13q-23 0 -31 -29l-72 26q11 38 43 60t64 22q33 0 57.5 -20.5t28.5 -50.5l91 -491l-9 -23l1 1l8 18l4 -19l2 -11l-3 37l253 550h74l95 -528l-10 -74l1 5
l4 21l10 22l4 -22l-1 27l254 549h84zM780 133l-5 26l5 32l3 -53zM350 130v4l3 8v-5z" />
    <glyph glyph-name="wcircumflex" unicode="&#x175;" horiz-adv-x="833" 
d="M624 586h-94l-60 81l-86 -81h-98l163 161h58zM58 465l48 63q59 -39 73 -119l54 -276l175 375h71l70 -375l175 375h81l-236 -508h-72l-68 375l-177 -375h-72l-75 412q-14 44 -47 53z" />
    <glyph glyph-name="Ycircumflex" unicode="&#x176;" horiz-adv-x="643" 
d="M582 765h-94l-60 81l-86 -81h-98l163 161h58zM147 583l-82 12q6 46 41 73.5t73 27.5q56 0 81 -55l104 -251l207 297h96l-271 -389l-42 -299h-87l45 297l-125 311q-5 8 -15 8q-9 0 -17.5 -6.5t-9.5 -15.5q0 -6 2 -10z" />
    <glyph glyph-name="ycircumflex" unicode="&#x177;" horiz-adv-x="567" 
d="M259 586h-98l163 161h58l117 -161h-94l-60 81zM520 508l-52 -364l-35 -248q-11 -81 -60.5 -127t-115.5 -46t-102 41.5t-36 101.5q0 8 2 24q10 68 52 108q-49 9 -76 40.5t-27 80.5q0 8 2 28l34 243q2 16 -20 41t-28 24l48 65q25 -22 37.5 -34t25.5 -35.5t13 -48.5
q0 -10 -1 -16l-31 -218q-2 -20 -2 -28q0 -39 19.5 -57t60.5 -18q45 0 79 19t73 59l-1 -1q14 18 17 37l47 329h77zM358 -104l20 142q-19 -13 -47 -28l-52 -25q-39 -20 -58.5 -42.5t-24.5 -58.5q-1 -6 -1 -19q0 -67 63 -67q39 0 66.5 27t33.5 71z" />
    <glyph glyph-name="Ydieresis" unicode="&#x178;" horiz-adv-x="643" 
d="M283 884q21 0 35.5 -15t14.5 -35q0 -21 -18 -38t-39 -17q-20 0 -34 14.5t-14 34.5q0 22 17 39t38 17zM498 884q21 0 35.5 -15t14.5 -35q0 -21 -18 -38t-39 -17q-20 0 -34 14.5t-14 34.5q0 22 17.5 39t37.5 17zM147 583l-82 12q6 46 41 73.5t73 27.5q56 0 81 -55l104 -251
l207 297h96l-271 -389l-42 -299h-87l45 297l-125 311q-5 8 -15 8q-9 0 -17.5 -6.5t-9.5 -15.5q0 -6 2 -10z" />
    <glyph glyph-name="Zacute" unicode="&#x179;" horiz-adv-x="601" 
d="M562 843l-202 -120l-28 52l188 135zM146 107l12 -3q18 -4 83.5 -23.5t96.5 -19.5q65 0 125 57l50 -56q-87 -76 -177 -76q-51 0 -133 26.5t-103 30.5l-48 -62l-60 38l435 590h-294l11 74h427z" />
    <glyph glyph-name="zacute" unicode="&#x17a;" horiz-adv-x="545" 
d="M508 662l-202 -120l-28 52l188 135zM470 478l-311 -377l57 -23q43 -17 98 -17q26 0 47 7.5t59 32.5l31 -65q-71 -49 -137 -49q-61 0 -123 23l-85 27l-51 -62l-55 46l337 411h-238l10 74h364z" />
    <glyph glyph-name="Zdotaccent" unicode="&#x17b;" horiz-adv-x="601" 
d="M392 894q21 0 35.5 -15t14.5 -35q0 -21 -18 -38t-39 -17q-20 0 -34 14.5t-14 34.5q0 22 17.5 39t37.5 17zM146 107l12 -3q18 -4 83.5 -23.5t96.5 -19.5q65 0 125 57l50 -56q-87 -76 -177 -76q-51 0 -133 26.5t-103 30.5l-48 -62l-60 38l435 590h-294l11 74h427z" />
    <glyph glyph-name="zdotaccent" unicode="&#x17c;" horiz-adv-x="545" 
d="M338 713q21 0 35.5 -15t14.5 -35q0 -21 -18 -38t-39 -17q-20 0 -34 14.5t-14 34.5q0 21 17.5 38.5t37.5 17.5zM470 478l-311 -377l57 -23q43 -17 98 -17q26 0 47 7.5t59 32.5l31 -65q-71 -49 -137 -49q-61 0 -123 23l-85 27l-51 -62l-55 46l337 411h-238l10 74h364z" />
    <glyph glyph-name="Zcaron" unicode="&#x17d;" horiz-adv-x="601" 
d="M402 755h-58l-117 161h94l60 -81l86 81h99zM146 107l12 -3q18 -4 83.5 -23.5t96.5 -19.5q65 0 125 57l50 -56q-87 -76 -177 -76q-51 0 -133 26.5t-103 30.5l-48 -62l-60 38l435 590h-294l11 74h427z" />
    <glyph glyph-name="zcaron" unicode="&#x17e;" horiz-adv-x="545" 
d="M348 574h-58l-117 161h94l60 -81l86 81h99zM470 478l-311 -377l57 -23q43 -17 98 -17q26 0 47 7.5t59 32.5l31 -65q-71 -49 -137 -49q-61 0 -123 23l-85 27l-51 -62l-55 46l337 411h-238l10 74h364z" />
    <glyph glyph-name="longs" unicode="&#x17f;" horiz-adv-x="417" 
d="M-15 -253l101 714q17 124 58 183.5t133 59.5q91 0 125 -61l-64 -54q-8 24 -22.5 32.5t-39.5 8.5q-51 0 -75.5 -35t-34.5 -102l-105 -746h-76z" />
    <glyph glyph-name="florin" unicode="&#x192;" horiz-adv-x="511" 
d="M452 682l27 -2q12 -2 17 -4l8 -10l-7 -60q-45 0 -68 2h-48q-31 0 -52 -28q-24 -24 -33 -85l-10 -72h167l-10 -76h-167l-57 -402q-7 -47 -20 -88q-15 -33 -38 -59q-24 -19 -50 -29q-28 -7 -62 -7q-29 0 -49 3l-30 6l9 69l35 -3h40q31 0 52 25q25 24 34 87l56 398h-110
l10 76h110l7 50q10 67 22 101q13 41 31 66q22 24 48 36q27 8 66 8h35z" />
    <glyph glyph-name="Ohorn" unicode="&#x1a0;" horiz-adv-x="815" 
d="M775 628l46 55q10 -5 20.5 -12.5t22.5 -28t12 -45.5q0 -58 -40.5 -86.5t-86.5 -31.5q11 -41 11 -83q0 -24 -3 -48l-3 -19q-20 -147 -135 -251.5t-258 -104.5q-133 0 -221.5 90.5t-88.5 221.5q0 24 3 48l2 19q21 144 136.5 250t259.5 106q92 0 164.5 -46t110.5 -123l6 14
q6 -3 17 -3q20 0 36.5 12.5t16.5 32.5q0 6 -2.5 11t-5.5 7.5t-10 7t-10 7.5zM678 333l2 19q3 21 3 42q0 102 -67 169.5t-167 67.5q-114 0 -206.5 -85t-108.5 -198l-3 -19q-3 -21 -3 -41q0 -102 66.5 -170t166.5 -68q114 0 207 84t110 199z" />
    <glyph glyph-name="ohorn" unicode="&#x1a1;" horiz-adv-x="620" 
d="M584 446l46 55q10 -5 20.5 -12.5t22.5 -28t12 -45.5q0 -61 -44.5 -89.5t-89.5 -28.5v-6q0 -21 -3 -43q-16 -113 -97 -185.5t-190 -72.5q-101 0 -161 62t-60 160q0 20 3 43q15 111 95 186t190 75q80 0 135.5 -40t76.5 -109l2 4q6 -3 17 -3q20 0 36.5 12.5t16.5 32.5
q0 6 -2.5 11t-5.5 7.5t-10 7t-10 7.5zM470 260q3 20 3 36q0 68 -39 107t-108 39q-84 0 -138.5 -55t-66.5 -139q-3 -20 -3 -36q0 -68 39 -108t108 -40q83 0 138 55t67 141z" />
    <glyph glyph-name="Uhorn" unicode="&#x1af;" horiz-adv-x="760" 
d="M756 634l46 55q10 -5 20.5 -12.5t22.5 -28t12 -45.5q0 -61 -44.5 -89.5t-89.5 -28.5q-7 0 -11 1l-30 -217q-16 -112 -96 -195t-209 -83q-115 0 -178 67.5t-63 168.5q0 23 3 46l45 317v7q0 16 -14 16q-24 0 -33 -24l-65 51q15 24 44 39.5t56 15.5q44 0 70 -24t26 -65
q0 -6 -2 -20l-44 -317q-3 -21 -3 -41q0 -73 40 -117t119 -44q95 0 152 61.5t69 144.5l58 414h83l-18 -130l9 -1q20 0 36.5 12.5t16.5 32.5q0 6 -2.5 11t-5.5 7.5t-10 7t-10 7.5z" />
    <glyph glyph-name="uhorn" unicode="&#x1b0;" horiz-adv-x="635" 
d="M460 86v-4q0 -7 5 -12t11 -5q16 0 28 22l61 -48q-36 -50 -91 -50q-35 0 -59.5 20.5t-29.5 50.5q-71 -68 -163 -68q-73 0 -112.5 34.5t-39.5 101.5q0 3 0.5 9t0.5 9l35 244q1 11 -5 23t-12.5 18.5t-18 16t-12.5 10.5l48 62q25 -21 36.5 -32t25.5 -35.5t14 -50.5
q0 -11 -1 -16l-31 -218q-2 -20 -2 -28q0 -39 19.5 -57t61.5 -18q48 0 83.5 21.5t79.5 70.5l51 351h77l-19 -133l10 -1q20 0 36.5 12.5t16.5 32.5q0 6 -2.5 11t-5.5 7.5t-10 7t-10 7.5l46 55q10 -5 20.5 -12.5t22.5 -28t12 -45.5q0 -61 -44.5 -89.5t-89.5 -28.5q-2 0 -6 0.5
t-6 0.5z" />
    <glyph glyph-name="clickdental" unicode="&#x1c0;" horiz-adv-x="228" 
d="M74 -57h-82l115 818h82z" />
    <glyph glyph-name="clicklateral" unicode="&#x1c1;" horiz-adv-x="416" 
d="M74 -57h-82l115 818h82zM262 -57h-82l115 818h82z" />
    <glyph glyph-name="DZcaron" unicode="&#x1c4;" horiz-adv-x="1338" 
d="M403 766h-58l-117 161h94l60 -81l86 81h99zM886 129l12 -3q18 -4 83.5 -23.5t96.5 -19.5q65 0 125 57l50 -56q-87 -76 -177 -76q-51 0 -133 26.5t-103 30.5l-48 -62l-60 38l435 590h-294l11 74h427zM191 703h291q130 -12 202.5 -91t72.5 -208q0 -29 -5 -67
q-47 -335 -476 -335q-73 0 -113 4l-29 2h-1l-28 4l88 613q-26 -2 -35 -15q-14 -8 -14 -22l-13 -10l-67 2q4 55 43 93q41 30 84 30zM274 625l-78 -543q90 -5 151 -5q131 0 219 73t106 204q4 24 4 52q0 98 -56 156.5t-156 62.5h-190z" />
    <glyph glyph-name="Dzcaron" unicode="&#x1c5;" horiz-adv-x="1227" 
d="M1032 585h-58l-117 161h94l60 -81l86 81h99zM190 692h291q130 -12 202.5 -91t72.5 -208q0 -29 -5 -67q-47 -335 -476 -335q-73 0 -113 4l-29 2h-1l-28 4l88 613q-26 -2 -35 -15q-14 -8 -14 -22l-13 -10l-67 2q4 55 43 93q41 30 84 30zM273 614l-78 -543q90 -5 151 -5
q131 0 219 73t106 204q4 24 4 52q0 98 -56 156.5t-156 62.5h-190zM1154 489l-311 -377l57 -23q43 -17 98 -17q26 0 47 7.5t59 32.5l31 -65q-71 -49 -137 -49q-61 0 -123 23l-85 27l-51 -62l-55 46l337 411h-238l10 74h364z" />
    <glyph glyph-name="dzcaron" unicode="&#x1c6;" horiz-adv-x="1159" 
d="M962 574h-58l-117 161h94l60 -81l86 81h99zM449 87v-2q0 -8 4.5 -13.5t11.5 -5.5q16 0 28 23l60 -47q-32 -52 -91 -52q-30 0 -53.5 17.5t-31.5 43.5q-57 -61 -148 -61t-140.5 60t-49.5 153q0 17 4 51q16 115 92.5 188.5t187.5 73.5q40 0 106 -8l33 220h77zM1084 478
l-311 -377l57 -23q43 -17 98 -17q26 0 47 7.5t59 32.5l31 -65q-71 -49 -137 -49q-61 0 -123 23l-85 27l-51 -62l-55 46l337 411h-238l10 74h364zM387 195l36 238q-60 9 -81 9q-193 0 -221 -189q-3 -23 -3 -44q0 -66 29.5 -105.5t87.5 -39.5q84 0 131 77q16 21 21 54z" />
    <glyph glyph-name="LJ" unicode="&#x1c7;" horiz-adv-x="981" 
d="M529 605l-29 71q84 33 120 33q21 0 87 -25q33 -10 47 -10q11 0 33 11h-1q14 7 14 6.5t-1 -4.5l14 13h67l-70 -495q-12 -82 -66.5 -140t-146.5 -58q-83 0 -122 46.5t-39 114.5q0 14 4 42l76 -10q-3 -16 -3 -30q0 -40 23 -62.5t67 -22.5q59 0 90.5 37.5t38.5 89.5l57 390
q-17 -6 -40 -6t-47 8q-18 4 -45 15.5t-40 11.5q-16 0 -47.5 -12t-40.5 -14zM114 78h317l-11 -79h-399l96 687h82z" />
    <glyph glyph-name="Lj" unicode="&#x1c8;" horiz-adv-x="764" 
d="M710 716q21 0 35.5 -15t14.5 -35q0 -21 -18 -38t-39 -17q-20 0 -34 14.5t-14 34.5q0 22 17.5 39t37.5 17zM114 78h317l-11 -79h-399l96 687h82zM719 509l-93 -665q-6 -40 -37.5 -68.5t-71.5 -28.5q-60 0 -84 56l69 38q5 -11 8 -14t10 -3q11 0 19.5 7.5t10.5 16.5l92 661
h77z" />
    <glyph glyph-name="lj" unicode="&#x1c9;" horiz-adv-x="490" 
d="M108 88v-4q0 -17 16 -17t28 22l61 -46q-15 -24 -41.5 -38t-51.5 -14q-37 0 -62.5 26t-25.5 62q0 9 1 13l89 635h76zM436 716q21 0 35.5 -15t14.5 -35q0 -21 -18 -38t-39 -17q-20 0 -34 14.5t-14 34.5q0 22 17.5 39t37.5 17zM445 509l-93 -665q-6 -40 -37.5 -68.5
t-71.5 -28.5q-60 0 -84 56l69 38q5 -11 8 -14t10 -3q11 0 19.5 7.5t10.5 16.5l92 661h77z" />
    <glyph glyph-name="NJ" unicode="&#x1ca;" horiz-adv-x="1271" 
d="M901 594l-29 71q84 33 120 33q21 0 87 -25q33 -10 47 -10q11 0 33 11h-1q14 7 14 6.5t-1 -4.5l14 13h67l-70 -495q-12 -82 -66.5 -140t-146.5 -58q-83 0 -122 46.5t-39 114.5q0 14 4 42l76 -10q-3 -17 -3 -30q0 -40 23 -62.5t67 -22.5q59 0 90.5 37.5t38.5 89.5l57 390
q-17 -6 -40 -6t-47 8q-18 4 -45 15.5t-40 11.5q-16 0 -47.5 -12t-40.5 -14zM345 561l277 -397l-5 13l67 508h81l-96 -686h-34l-385 551l6 -11l-58 -447q-6 -45 -43 -70.5t-73 -25.5q-35 0 -61 26t-26 63q0 9 1 13q0 8 1 10l80 -4q-5 -10 -5 -13v-3q0 -15 16 -15
q10 0 18.5 7.5t9.5 15.5l83 590h53z" />
    <glyph glyph-name="Nj" unicode="&#x1cb;" horiz-adv-x="1054" 
d="M1000 716q21 0 35.5 -15t14.5 -35q0 -21 -18 -38t-39 -17q-20 0 -34 14.5t-14 34.5q0 22 17.5 39t37.5 17zM345 561l277 -397l-5 13l67 508h81l-96 -686h-34l-385 551l6 -11l-58 -447q-6 -45 -43 -70.5t-73 -25.5q-35 0 -61 26t-26 63q0 9 1 13q0 8 1 10l80 -4
q-5 -10 -5 -13v-3q0 -15 16 -15q10 0 18.5 7.5t9.5 15.5l83 590h53zM1009 509l-93 -665q-6 -40 -37.5 -68.5t-71.5 -28.5q-60 0 -84 56l69 38q5 -11 8 -14t10 -3q11 0 19.5 7.5t10.5 16.5l92 661h77z" />
    <glyph glyph-name="nj" unicode="&#x1cc;" horiz-adv-x="828" 
d="M774 716q21 0 35.5 -15t14.5 -35q0 -21 -18 -38t-39 -17q-20 0 -34 14.5t-14 34.5q0 22 17.5 39t37.5 17zM59 470l52 45q40 -25 49 -77q75 78 174 78q72 0 112 -35t40 -102q0 -3 -0.5 -9t-0.5 -9l-39 -277v-3q0 -8 5 -13t11 -4q15 0 29 20l59 -45q-35 -52 -92 -52
q-39 0 -64.5 26.5t-25.5 62.5q0 8 1 12l36 251q2 22 2 30q0 38 -19.5 55.5t-60.5 17.5q-48 0 -85 -22.5t-79 -69.5l-50 -351h-77l50 357q3 20 3 35q0 52 -30 79zM783 509l-93 -665q-6 -40 -37.5 -68.5t-71.5 -28.5q-60 0 -84 56l69 38q5 -11 8 -14t10 -3q11 0 19.5 7.5
t10.5 16.5l92 661h77z" />
    <glyph glyph-name="Acaron" unicode="&#x1cd;" horiz-adv-x="817" 
d="M455 758l-117 161h94l60 -81l86 81h99l-164 -161h-58zM690 -1h-85l-61 221h-271l-92 -167q-14 -27 -41 -42t-54 -15q-40 0 -67.5 28.5t-23.5 66.5l78 11q0 -26 17 -26q13 0 21 14l344 598h34zM451 540l1 3zM521 298l-68 244l-136 -244h204z" />
    <glyph glyph-name="acaron" unicode="&#x1ce;" 
d="M357 585h-58l-117 161h94l60 -81l86 81h99zM493 89l60 -47q-32 -52 -91 -52q-30 0 -53.5 17.5t-31.5 43.5q-57 -61 -149 -61t-140.5 60.5t-48.5 152.5q0 28 4 51q16 115 92.5 188.5t187.5 73.5q56 0 119 -9h66l-59 -420v-4q0 -17 15 -17q18 0 29 23zM387 195l36 239
q-9 1 -50 4.5t-57 3.5q-80 0 -131.5 -54.5t-63.5 -139.5q-3 -21 -3 -42q0 -62 29 -102t85 -40q88 0 134 77q16 21 21 54z" />
    <glyph glyph-name="Icaron" unicode="&#x1cf;" horiz-adv-x="228" 
d="M196 756h-58l-117 161h94l60 -81l86 81h99zM103 -1h-82l96 687h82z" />
    <glyph glyph-name="icaron" unicode="&#x1d0;" horiz-adv-x="260" 
d="M160 577h-58l-117 161h94l60 -81l86 81h99zM99 87v-4q0 -7 4.5 -12t10.5 -5q20 0 28 23l62 -47q-36 -52 -93 -52q-38 0 -63.5 25.5t-25.5 61.5q0 9 1 14l58 417h77z" />
    <glyph glyph-name="Ocaron" unicode="&#x1d1;" horiz-adv-x="815" 
d="M492 756h-58l-117 161h94l60 -81l86 81h99zM54 333l2 19q21 144 136.5 250t259.5 106q132 0 220 -91t88 -221q0 -24 -3 -48l-3 -19q-20 -147 -135 -251.5t-258 -104.5q-133 0 -221.5 90.5t-88.5 221.5q0 24 3 48zM678 333l2 19q3 21 3 42q0 102 -67 169.5t-167 67.5
q-114 0 -206.5 -85t-108.5 -198l-3 -19q-3 -21 -3 -41q0 -102 66.5 -170t166.5 -68q114 0 207 84t110 199z" />
    <glyph glyph-name="ocaron" unicode="&#x1d2;" horiz-adv-x="620" 
d="M372 585h-58l-117 161h94l60 -81l86 81h99zM328 516q101 0 162 -63t61 -162q0 -21 -3 -43q-16 -113 -97 -185.5t-190 -72.5q-101 0 -161 62t-60 160q0 20 3 43q15 111 95 186t190 75zM326 442q-84 0 -138.5 -55t-66.5 -139q-3 -20 -3 -36q0 -68 39 -108t108 -40
q83 0 138 55t67 141q3 20 3 36q0 68 -39 107t-108 39z" />
    <glyph glyph-name="Ucaron" unicode="&#x1d3;" horiz-adv-x="760" 
d="M508 756h-58l-117 161h94l60 -81l86 81h99zM137 589l-65 51q15 24 44 39.5t56 15.5q44 0 70 -24t26 -65q0 -6 -2 -20l-44 -317q-3 -21 -3 -41q0 -73 40 -117t119 -44q95 0 152 61.5t69 144.5l58 414h83l-58 -418q-16 -112 -96 -195t-209 -83q-115 0 -178 67.5t-63 168.5
q0 23 3 46l45 317v7q0 16 -14 16q-24 0 -33 -24z" />
    <glyph glyph-name="ucaron" unicode="&#x1d4;" horiz-adv-x="635" 
d="M348 577h-58l-117 161h94l60 -81l86 81h99zM58 458l48 62q25 -21 36.5 -32t25.5 -35.5t14 -50.5q0 -11 -1 -16l-31 -218q-2 -20 -2 -28q0 -39 19.5 -57t61.5 -18q48 0 83.5 21.5t79.5 70.5l51 351h77l-60 -422v-4q0 -7 5 -12t11 -5q16 0 28 22l61 -48q-36 -50 -91 -50
q-35 0 -59.5 20.5t-29.5 50.5q-71 -68 -163 -68q-73 0 -112.5 34.5t-39.5 101.5q0 3 0.5 9t0.5 9l35 244q1 11 -5 23t-12.5 18.5t-18 16t-12.5 10.5z" />
    <glyph glyph-name="Udieresismacron" unicode="&#x1d5;" horiz-adv-x="755" 
d="M630 952h-340l11 78h340zM348 884q21 0 35.5 -15t14.5 -35q0 -21 -18 -38t-39 -17q-20 0 -34 14.5t-14 34.5q0 22 17.5 39t37.5 17zM563 884q21 0 35.5 -15t14.5 -35q0 -21 -18 -38t-39 -17q-20 0 -34 14.5t-14 34.5q0 22 17 39t38 17zM137 589l-65 51q15 24 44 39.5
t56 15.5q44 0 70 -24t26 -65q0 -6 -2 -20l-44 -317q-3 -21 -3 -41q0 -73 40 -117t119 -44q95 0 152 61.5t69 144.5l58 414h83l-58 -418q-16 -112 -96 -195t-209 -83q-115 0 -178 67.5t-63 168.5q0 23 3 46l45 317v7q0 16 -14 16q-24 0 -33 -24z" />
    <glyph glyph-name="udieresismacron" unicode="&#x1d6;" horiz-adv-x="635" 
d="M497 787h-340l11 78h340zM188 705q21 0 35.5 -15t14.5 -35q0 -21 -18 -38t-39 -17q-20 0 -34 14.5t-14 34.5q0 21 17.5 38.5t37.5 17.5zM403 705q21 0 35.5 -15t14.5 -35q0 -21 -18 -38t-39 -17q-20 0 -34 14.5t-14 34.5q0 21 17 38.5t38 17.5zM58 458l48 62
q25 -21 36.5 -32t25.5 -35.5t14 -50.5q0 -11 -1 -16l-31 -218q-2 -20 -2 -28q0 -39 19.5 -57t61.5 -18q48 0 83.5 21.5t79.5 70.5l51 351h77l-60 -422v-4q0 -7 5 -12t11 -5q16 0 28 22l61 -48q-36 -50 -91 -50q-35 0 -59.5 20.5t-29.5 50.5q-71 -68 -163 -68
q-73 0 -112.5 34.5t-39.5 101.5q0 3 0.5 9t0.5 9l35 244q1 11 -5 23t-12.5 18.5t-18 16t-12.5 10.5z" />
    <glyph glyph-name="Udieresisacute" unicode="&#x1d7;" horiz-adv-x="755" 
d="M667 1014l-202 -120l-28 52l188 135zM348 884q21 0 35.5 -15t14.5 -35q0 -21 -18 -38t-39 -17q-20 0 -34 14.5t-14 34.5q0 22 17.5 39t37.5 17zM563 884q21 0 35.5 -15t14.5 -35q0 -21 -18 -38t-39 -17q-20 0 -34 14.5t-14 34.5q0 22 17 39t38 17zM137 589l-65 51
q15 24 44 39.5t56 15.5q44 0 70 -24t26 -65q0 -6 -2 -20l-44 -317q-3 -21 -3 -41q0 -73 40 -117t119 -44q95 0 152 61.5t69 144.5l58 414h83l-58 -418q-16 -112 -96 -195t-209 -83q-115 0 -178 67.5t-63 168.5q0 23 3 46l45 317v7q0 16 -14 16q-24 0 -33 -24z" />
    <glyph glyph-name="udieresisacute" unicode="&#x1d8;" horiz-adv-x="635" 
d="M522 906l-202 -120l-28 52l188 135zM188 705q21 0 35.5 -15t14.5 -35q0 -21 -18 -38t-39 -17q-20 0 -34 14.5t-14 34.5q0 21 17.5 38.5t37.5 17.5zM403 705q21 0 35.5 -15t14.5 -35q0 -21 -18 -38t-39 -17q-20 0 -34 14.5t-14 34.5q0 21 17 38.5t38 17.5zM58 458l48 62
q25 -21 36.5 -32t25.5 -35.5t14 -50.5q0 -11 -1 -16l-31 -218q-2 -20 -2 -28q0 -39 19.5 -57t61.5 -18q48 0 83.5 21.5t79.5 70.5l51 351h77l-60 -422v-4q0 -7 5 -12t11 -5q16 0 28 22l61 -48q-36 -50 -91 -50q-35 0 -59.5 20.5t-29.5 50.5q-71 -68 -163 -68
q-73 0 -112.5 34.5t-39.5 101.5q0 3 0.5 9t0.5 9l35 244q1 11 -5 23t-12.5 18.5t-18 16t-12.5 10.5z" />
    <glyph glyph-name="Udieresiscaron" unicode="&#x1d9;" horiz-adv-x="755" 
d="M504 907h-58l-117 161h94l60 -81l86 81h99zM348 884q21 0 35.5 -15t14.5 -35q0 -21 -18 -38t-39 -17q-20 0 -34 14.5t-14 34.5q0 22 17.5 39t37.5 17zM563 884q21 0 35.5 -15t14.5 -35q0 -21 -18 -38t-39 -17q-20 0 -34 14.5t-14 34.5q0 22 17 39t38 17zM137 589l-65 51
q15 24 44 39.5t56 15.5q44 0 70 -24t26 -65q0 -6 -2 -20l-44 -317q-3 -21 -3 -41q0 -73 40 -117t119 -44q95 0 152 61.5t69 144.5l58 414h83l-58 -418q-16 -112 -96 -195t-209 -83q-115 0 -178 67.5t-63 168.5q0 23 3 46l45 317v7q0 16 -14 16q-24 0 -33 -24z" />
    <glyph glyph-name="udieresiscaron" unicode="&#x1da;" horiz-adv-x="635" 
d="M357 785h-58l-117 161h94l60 -81l86 81h99zM188 705q21 0 35.5 -15t14.5 -35q0 -21 -18 -38t-39 -17q-20 0 -34 14.5t-14 34.5q0 21 17.5 38.5t37.5 17.5zM403 705q21 0 35.5 -15t14.5 -35q0 -21 -18 -38t-39 -17q-20 0 -34 14.5t-14 34.5q0 21 17 38.5t38 17.5zM58 458
l48 62q25 -21 36.5 -32t25.5 -35.5t14 -50.5q0 -11 -1 -16l-31 -218q-2 -20 -2 -28q0 -39 19.5 -57t61.5 -18q48 0 83.5 21.5t79.5 70.5l51 351h77l-60 -422v-4q0 -7 5 -12t11 -5q16 0 28 22l61 -48q-36 -50 -91 -50q-35 0 -59.5 20.5t-29.5 50.5q-71 -68 -163 -68
q-73 0 -112.5 34.5t-39.5 101.5q0 3 0.5 9t0.5 9l35 244q1 11 -5 23t-12.5 18.5t-18 16t-12.5 10.5z" />
    <glyph glyph-name="Udieresisgrave" unicode="&#x1db;" horiz-adv-x="755" 
d="M526 937l-39 -52l-172 120l57 67zM348 884q21 0 35.5 -15t14.5 -35q0 -21 -18 -38t-39 -17q-20 0 -34 14.5t-14 34.5q0 22 17.5 39t37.5 17zM563 884q21 0 35.5 -15t14.5 -35q0 -21 -18 -38t-39 -17q-20 0 -34 14.5t-14 34.5q0 22 17 39t38 17zM137 589l-65 51
q15 24 44 39.5t56 15.5q44 0 70 -24t26 -65q0 -6 -2 -20l-44 -317q-3 -21 -3 -41q0 -73 40 -117t119 -44q95 0 152 61.5t69 144.5l58 414h83l-58 -418q-16 -112 -96 -195t-209 -83q-115 0 -178 67.5t-63 168.5q0 23 3 46l45 317v7q0 16 -14 16q-24 0 -33 -24z" />
    <glyph glyph-name="udieresisgrave" unicode="&#x1dc;" horiz-adv-x="635" 
d="M381 833l-39 -52l-172 120l57 67zM188 705q21 0 35.5 -15t14.5 -35q0 -21 -18 -38t-39 -17q-20 0 -34 14.5t-14 34.5q0 21 17.5 38.5t37.5 17.5zM403 705q21 0 35.5 -15t14.5 -35q0 -21 -18 -38t-39 -17q-20 0 -34 14.5t-14 34.5q0 21 17 38.5t38 17.5zM58 458l48 62
q25 -21 36.5 -32t25.5 -35.5t14 -50.5q0 -11 -1 -16l-31 -218q-2 -20 -2 -28q0 -39 19.5 -57t61.5 -18q48 0 83.5 21.5t79.5 70.5l51 351h77l-60 -422v-4q0 -7 5 -12t11 -5q16 0 28 22l61 -48q-36 -50 -91 -50q-35 0 -59.5 20.5t-29.5 50.5q-71 -68 -163 -68
q-73 0 -112.5 34.5t-39.5 101.5q0 3 0.5 9t0.5 9l35 244q1 11 -5 23t-12.5 18.5t-18 16t-12.5 10.5z" />
    <glyph glyph-name="Adieresismacron" unicode="&#x1de;" horiz-adv-x="782" 
d="M656 919h-340l11 78h340zM346 781q-20 0 -34 14.5t-14 34.5q0 22 17 39t38 17t35.5 -15t14.5 -35q0 -21 -18 -38t-39 -17zM513 830q0 22 17.5 39t37.5 17q21 0 35.5 -15t14.5 -35q0 -21 -18 -38t-39 -17q-20 0 -34 14.5t-14 34.5zM690 -1h-85l-61 221h-271l-92 -167
q-14 -27 -41 -42t-54 -15q-40 0 -67.5 28.5t-23.5 66.5l78 11q0 -26 17 -26q13 0 21 14l344 598h34zM451 540l1 3zM521 298l-68 244l-136 -244h204z" />
    <glyph glyph-name="adieresismacron" unicode="&#x1df;" 
d="M485 656h-340l11 78h340zM180 643q21 0 35.5 -15t14.5 -35q0 -21 -18 -38t-39 -17q-20 0 -34 14.5t-14 34.5q0 21 17.5 38.5t37.5 17.5zM395 643q21 0 35.5 -15t14.5 -35q0 -21 -18 -38t-39 -17q-20 0 -34 14.5t-14 34.5q0 21 17 38.5t38 17.5zM493 89l60 -47
q-32 -52 -91 -52q-30 0 -53.5 17.5t-31.5 43.5q-57 -61 -149 -61t-140.5 60.5t-48.5 152.5q0 28 4 51q16 115 92.5 188.5t187.5 73.5q56 0 119 -9h66l-59 -420v-4q0 -17 15 -17q18 0 29 23zM387 195l36 239q-9 1 -50 4.5t-57 3.5q-80 0 -131.5 -54.5t-63.5 -139.5
q-3 -21 -3 -42q0 -62 29 -102t85 -40q88 0 134 77q16 21 21 54z" />
    <glyph glyph-name="Adotmacron" unicode="&#x1e0;" horiz-adv-x="782" 
d="M663 931h-340l11 78h340zM448 841q0 21 17 38.5t38 17.5t35.5 -15t14.5 -35q0 -21 -18 -38t-39 -17q-20 0 -34 14.5t-14 34.5zM690 -1h-85l-61 221h-271l-92 -167q-14 -27 -41 -42t-54 -15q-40 0 -67.5 28.5t-23.5 66.5l78 11q0 -26 17 -26q13 0 21 14l344 598h34z
M451 540l1 3zM521 298l-68 244l-136 -244h204z" />
    <glyph glyph-name="adotmacron" unicode="&#x1e1;" 
d="M471 705h-340l11 78h340zM247 647q21 0 35.5 -15t14.5 -35q0 -21 -18 -38t-39 -17q-20 0 -34 14.5t-14 34.5q0 21 17 38.5t38 17.5zM493 89l60 -47q-32 -52 -91 -52q-30 0 -53.5 17.5t-31.5 43.5q-57 -61 -149 -61t-140.5 60.5t-48.5 152.5q0 28 4 51q16 115 92.5 188.5
t187.5 73.5q56 0 119 -9h66l-59 -420v-4q0 -17 15 -17q18 0 29 23zM387 195l36 239q-9 1 -50 4.5t-57 3.5q-80 0 -131.5 -54.5t-63.5 -139.5q-3 -21 -3 -42q0 -62 29 -102t85 -40q88 0 134 77q16 21 21 54z" />
    <glyph glyph-name="AEmacron" unicode="&#x1e2;" horiz-adv-x="945" 
d="M711 785h-340l11 78h340zM904 608h-375l-29 -207h307l-11 -79h-307l-34 -244h395l-11 -79h-478l31 221h-166l-145 -221h-99l457 687h476zM275 298h128l32 240l19 38z" />
    <glyph glyph-name="aemacron" unicode="&#x1e3;" horiz-adv-x="831" 
d="M621 610h-340l11 78h340zM127 383l-34 62q39 32 90 53q56 18 102 18q67 0 101 -34q27 -24 35 -55q29 34 64 59q52 30 108 30q83 0 127 -45q44 -37 44 -98q0 -54 -30 -98q-44 -54 -132 -74q-52 -8 -85 -8l-103 -2q0 -59 27 -95q34 -32 100 -32q40 0 76 14q42 12 88 37
l33 -62q-40 -27 -95 -48q-52 -15 -106 -15q-78 0 -122 35q-36 22 -53 62q-23 -41 -57 -64q-57 -33 -127 -33q-78 0 -115 39q-38 31 -38 89q0 56 30 100q59 76 207 76h85l7 45q3 21 3 36q0 27 -12 47q-19 20 -59 20q-45 0 -79 -17q-45 -13 -80 -42zM420 265l103 2
q87 0 126 32q37 26 37 75q0 35 -25.5 53t-63.5 18q-70 0 -118 -61q-46 -49 -59 -119zM337 222h-81q-62 0 -97 -18q-48 -18 -55 -72q-1 -6 -1 -15q0 -31 19 -42t53 -11q66 0 103 33q46 32 54 88z" />
    <glyph glyph-name="Gcaron" unicode="&#x1e6;" horiz-adv-x="757" 
d="M490 770h-58l-117 161h94l60 -81l86 81h99zM539 -159l31 216q-95 -88 -221 -88q-131 0 -215.5 92t-84.5 223q0 16 4 50q20 147 140.5 258.5t258.5 111.5q46 0 93 -12t86 -45.5t39 -81.5t-32.5 -82t-75.5 -34q-45 0 -68 28l52 57q13 -10 20 -10q11 0 19.5 11t8.5 26
q0 32 -47 49t-97 17q-114 0 -209.5 -90.5t-112.5 -211.5q-3 -21 -3 -41q0 -101 64 -170t162 -69q86 0 153 53.5t89 132.5l12 86h79l-67 -481q-6 -46 -41 -72.5t-72 -26.5q-29 0 -52.5 16.5t-31.5 40.5l70 41q1 -2 2 -5q10 -12 16 -13q22 0 31 24z" />
    <glyph glyph-name="gcaron" unicode="&#x1e7;" horiz-adv-x="557" 
d="M363 586h-58l-117 161h94l60 -81l86 81h99zM509 507l-85 -607q-11 -77 -61.5 -125t-117.5 -48q-66 0 -101 43t-35 102q0 74 54 130q-28 8 -46 28q-75 62 -75 191q0 24 3 43q14 101 92.5 176.5t185.5 75.5q16 0 64 -2l59 -7h63zM344 442h-29q-77 0 -132 -58.5t-65 -135.5
q-2 -11 -2 -33q0 -63 30 -107t82 -44q26 0 49 12q24 9 52 31t44 48q14 20 16 32l35 250zM349 -99l22 149q-21 -18 -26 -24q-11 -7 -39.5 -22.5t-57.5 -32.5q-65 -33 -65 -97q0 -30 17.5 -51t52.5 -21q38 0 62.5 27.5t33.5 71.5z" />
    <glyph glyph-name="Kcaron" unicode="&#x1e8;" horiz-adv-x="654" 
d="M428 756h-58l-117 161h94l60 -81l86 81h99zM470 688l101 -4q-105 -155 -137 -204q-10 -13 -33 -44t-30 -40q-35 -37 -55 -51l149 -267q5 -8 14 -8q11 0 19 7.5t9 18.5v1q2 5 1 8l78 -3q-2 -52 -38 -81t-74 -29q-24 0 -45 12t-31 32l-157 275q-37 -9 -92 -8l-44 -303h-84
l96 686h82l-42 -302h28q36 1 58 14q26 10 48 36q36 35 79 100q21 27 100 154z" />
    <glyph glyph-name="kcaron" unicode="&#x1e9;" horiz-adv-x="596" 
d="M452 113l78 -8q-3 -40 -36 -72.5t-73 -32.5q-25 0 -47.5 14t-30.5 35l-71 145h-148l-27 -194h-76l102 728h64l-13 18h94l60 -81l86 81h99l-164 -161h-58l-94 129l-38 -264q63 68 153 68q65 0 104.5 -38.5t39.5 -99.5q0 -8 -2 -26q-13 -88 -104 -138l63 -133q1 -4 7 -4
q29 0 32 24v10zM137 266l99 2q43 0 71 14q75 27 75 98q0 30 -19.5 48t-54.5 18q-47 0 -87.5 -32.5t-63.5 -90.5q-14 -29 -20 -57z" />
    <glyph glyph-name="Oogonek" unicode="&#x1ea;" horiz-adv-x="815" 
d="M54 333l2 19q21 144 136.5 250t259.5 106q132 0 220 -91t88 -221q0 -24 -3 -48l-3 -19q-20 -143 -129 -246q-85 -77 -97 -96q-9 -12 -10 -24v-5q0 -18 22 -18q24 0 58 28l30 -66q-18 -16 -48.5 -26t-55.5 -10q-38 0 -62 25t-24 63q0 14 5 29q-39 -10 -82 -10
q-133 0 -221.5 90.5t-88.5 221.5q0 24 3 48zM678 333l2 19q3 21 3 42q0 102 -67 169.5t-167 67.5q-114 0 -206.5 -85t-108.5 -198l-3 -19q-3 -21 -3 -41q0 -102 66.5 -170t166.5 -68q114 0 207 84t110 199z" />
    <glyph glyph-name="oogonek" unicode="&#x1eb;" horiz-adv-x="620" 
d="M397 -74l30 -66q-18 -16 -48.5 -26t-55.5 -10q-38 0 -62 25t-24 63q0 41 39 78h-15q-101 0 -161 62t-60 160q0 20 3 43q15 111 95 186t190 75q101 0 162 -63t61 -162q0 -21 -3 -43q-20 -133 -124 -207q-85 -77 -97 -96q-8 -13 -10 -24v-5q0 -18 22 -18q24 0 58 28z
M470 260q3 20 3 36q0 68 -39 107t-108 39q-84 0 -138.5 -55t-66.5 -139q-3 -20 -3 -36q0 -68 39 -108t108 -40q83 0 138 55t67 141z" />
    <glyph glyph-name="Oogonekmacron" unicode="&#x1ec;" horiz-adv-x="815" 
d="M636 787h-340l11 78h340zM54 333l2 19q21 144 136.5 250t259.5 106q132 0 220 -91t88 -221q0 -24 -3 -48l-3 -19q-20 -143 -129 -246q-85 -77 -97 -96q-9 -12 -10 -24v-5q0 -18 22 -18q24 0 58 28l30 -66q-18 -16 -48.5 -26t-55.5 -10q-38 0 -62 25t-24 63q0 14 5 29
q-39 -10 -82 -10q-133 0 -221.5 90.5t-88.5 221.5q0 24 3 48zM678 333l2 19q3 21 3 42q0 102 -67 169.5t-167 67.5q-114 0 -206.5 -85t-108.5 -198l-3 -19q-3 -21 -3 -41q0 -102 66.5 -170t166.5 -68q114 0 207 84t110 199z" />
    <glyph glyph-name="oogonekmacron" unicode="&#x1ed;" horiz-adv-x="620" 
d="M516 616h-340l11 78h340zM397 -74l30 -66q-18 -16 -48.5 -26t-55.5 -10q-38 0 -62 25t-24 63q0 41 39 78h-15q-101 0 -161 62t-60 160q0 20 3 43q15 111 95 186t190 75q101 0 162 -63t61 -162q0 -21 -3 -43q-20 -133 -124 -207q-85 -77 -97 -96q-8 -13 -10 -24v-5
q0 -18 22 -18q24 0 58 28zM470 260q3 20 3 36q0 68 -39 107t-108 39q-84 0 -138.5 -55t-66.5 -139q-3 -20 -3 -36q0 -68 39 -108t108 -40q83 0 138 55t67 141z" />
    <glyph glyph-name="jcaron" unicode="&#x1f0;" horiz-adv-x="267" 
d="M223 577h-58l-117 161h94l60 -81l86 81h99zM222 509l-93 -665q-6 -40 -37.5 -68.5t-71.5 -28.5q-60 0 -84 56l69 38q5 -11 8 -14t10 -3q11 0 19.5 7.5t10.5 16.5l92 661h77z" />
    <glyph glyph-name="DZ" unicode="&#x1f1;" horiz-adv-x="1338" 
d="M885 118l12 -3q18 -4 83.5 -23.5t96.5 -19.5q65 0 125 57l50 -56q-87 -76 -177 -76q-51 0 -133 26.5t-103 30.5l-48 -62l-60 38l435 590h-294l11 74h427zM190 692h291q130 -12 202.5 -91t72.5 -208q0 -29 -5 -67q-47 -335 -476 -335q-73 0 -113 4l-29 2h-1l-28 4l88 613
q-26 -2 -35 -15q-14 -8 -14 -22l-13 -10l-67 2q4 55 43 93q41 30 84 30zM273 614l-78 -543q90 -5 151 -5q131 0 219 73t106 204q4 24 4 52q0 98 -56 156.5t-156 62.5h-190z" />
    <glyph glyph-name="Dz" unicode="&#x1f2;" horiz-adv-x="1230" 
d="M190 692h291q130 -12 202.5 -91t72.5 -208q0 -29 -5 -67q-47 -335 -476 -335q-73 0 -113 4l-29 2h-1l-28 4l88 613q-26 -2 -35 -15q-14 -8 -14 -22l-13 -10l-67 2q4 55 43 93q41 30 84 30zM273 614l-78 -543q90 -5 151 -5q131 0 219 73t106 204q4 24 4 52q0 98 -56 156.5
t-156 62.5h-190zM1157 489l-311 -377l57 -23q43 -17 98 -17q26 0 47 7.5t59 32.5l31 -65q-71 -49 -137 -49q-61 0 -123 23l-85 27l-51 -62l-55 46l337 411h-238l10 74h364z" />
    <glyph glyph-name="dz" unicode="&#x1f3;" horiz-adv-x="1159" 
d="M449 87v-2q0 -8 4.5 -13.5t11.5 -5.5q16 0 28 23l60 -47q-32 -52 -91 -52q-30 0 -53.5 17.5t-31.5 43.5q-57 -61 -148 -61t-140.5 60t-49.5 153q0 17 4 51q16 115 92.5 188.5t187.5 73.5q40 0 106 -8l33 220h77zM1084 478l-311 -377l57 -23q43 -17 98 -17q26 0 47 7.5
t59 32.5l31 -65q-71 -49 -137 -49q-61 0 -123 23l-85 27l-51 -62l-55 46l337 411h-238l10 74h364zM387 195l36 238q-60 9 -81 9q-193 0 -221 -189q-3 -23 -3 -44q0 -66 29.5 -105.5t87.5 -39.5q84 0 131 77q16 21 21 54z" />
    <glyph glyph-name="Gacute" unicode="&#x1f4;" horiz-adv-x="757" 
d="M650 858l-202 -120l-28 52l188 135zM539 -159l31 216q-95 -88 -221 -88q-131 0 -215.5 92t-84.5 223q0 16 4 50q20 147 140.5 258.5t258.5 111.5q46 0 93 -12t86 -45.5t39 -81.5t-32.5 -82t-75.5 -34q-45 0 -68 28l52 57q13 -10 20 -10q11 0 19.5 11t8.5 26q0 32 -47 49
t-97 17q-114 0 -209.5 -90.5t-112.5 -211.5q-3 -21 -3 -41q0 -101 64 -170t162 -69q86 0 153 53.5t89 132.5l12 86h79l-67 -481q-6 -46 -41 -72.5t-72 -26.5q-29 0 -52.5 16.5t-31.5 40.5l70 41q1 -2 2 -5q10 -12 16 -13q22 0 31 24z" />
    <glyph glyph-name="gacute" unicode="&#x1f5;" horiz-adv-x="557" 
d="M523 674l-202 -120l-28 52l188 135zM509 507l-85 -607q-11 -77 -61.5 -125t-117.5 -48q-66 0 -101 43t-35 102q0 74 54 130q-28 8 -46 28q-75 62 -75 191q0 24 3 43q14 101 92.5 176.5t185.5 75.5q16 0 64 -2l59 -7h63zM344 442h-29q-77 0 -132 -58.5t-65 -135.5
q-2 -11 -2 -33q0 -63 30 -107t82 -44q26 0 49 12q24 9 52 31t44 48q14 20 16 32l35 250zM349 -99l22 149q-21 -18 -26 -24q-11 -7 -39.5 -22.5t-57.5 -32.5q-65 -33 -65 -97q0 -30 17.5 -51t52.5 -21q38 0 62.5 27.5t33.5 71.5z" />
    <glyph glyph-name="uni01F8" unicode="&#x1f8;" horiz-adv-x="787" 
d="M543 776l-39 -52l-172 120l57 67zM345 561l277 -397l-5 13l67 508h81l-96 -686h-34l-385 551l6 -11l-58 -447q-6 -45 -43 -70.5t-73 -25.5q-35 0 -61 26t-26 63q0 9 1 13q0 8 1 10l80 -4q-5 -10 -5 -13v-3q0 -15 16 -15q10 0 18.5 7.5t9.5 15.5l83 590h53z" />
    <glyph glyph-name="uni01F9" unicode="&#x1f9;" horiz-adv-x="621" 
d="M391 605l-39 -52l-172 120l57 67zM59 470l52 45q40 -25 49 -77q75 78 174 78q72 0 112 -35t40 -102q0 -3 -0.5 -9t-0.5 -9l-39 -277v-3q0 -8 5 -13t11 -4q15 0 29 20l59 -45q-35 -52 -92 -52q-39 0 -64.5 26.5t-25.5 62.5q0 8 1 12l36 251q2 22 2 30q0 38 -19.5 55.5
t-60.5 17.5q-48 0 -85 -22.5t-79 -69.5l-50 -351h-77l50 357q3 20 3 35q0 52 -30 79z" />
    <glyph glyph-name="Aringacute" unicode="&#x1fa;" horiz-adv-x="782" 
d="M491 958l-28 52l188 135l42 -67zM478 711q-45 0 -71 26t-26 68q0 55 34.5 92t88.5 37q45 0 71.5 -26.5t26.5 -68.5q0 -55 -36 -91.5t-88 -36.5zM452 818q-1 -4 -1 -10q0 -32 29 -32q21 0 37 17.5t16 41.5q0 33 -31 33q-20 0 -33 -13.5t-17 -36.5zM489 688l201 -689h-85
l-61 221h-271l-92 -167q-14 -27 -41 -42t-54 -15q-40 0 -67.5 28.5t-23.5 66.5l78 11q0 -26 17 -26q13 0 21 14l344 598h34zM451 540l1 3zM521 298l-68 244l-136 -244h204z" />
    <glyph glyph-name="aringacute" unicode="&#x1fb;" horiz-adv-x="622" 
d="M525 888l-202 -120l-28 52l188 135zM348 761q45 0 71.5 -26.5t26.5 -68.5q0 -55 -36 -91.5t-88 -36.5q-45 0 -71 26t-26 68q0 55 34.5 92t88.5 37zM346 695q-20 0 -33 -13.5t-17 -36.5q-1 -4 -1 -10q0 -32 29 -32q21 0 37 17.5t16 41.5q0 33 -31 33zM493 89l60 -47
q-32 -52 -91 -52q-30 0 -53.5 17.5t-31.5 43.5q-57 -61 -149 -61t-140.5 60.5t-48.5 152.5q0 28 4 51q16 115 92.5 188.5t187.5 73.5q56 0 119 -9h66l-59 -420v-4q0 -17 15 -17q18 0 29 23zM387 195l36 239q-9 1 -50 4.5t-57 3.5q-80 0 -131.5 -54.5t-63.5 -139.5
q-3 -21 -3 -42q0 -62 29 -102t85 -40q88 0 134 77q16 21 21 54z" />
    <glyph glyph-name="AEacute" unicode="&#x1fc;" horiz-adv-x="945" 
d="M727 842l-202 -120l-28 52l188 135zM904 608h-375l-29 -207h307l-11 -79h-307l-34 -244h395l-11 -79h-478l31 221h-166l-145 -221h-99l457 687h476zM275 298h128l32 240l19 38z" />
    <glyph glyph-name="aeacute" unicode="&#x1fd;" horiz-adv-x="831" 
d="M637 667l-202 -120l-28 52l188 135zM127 383l-34 62q39 32 90 53q56 18 102 18q67 0 101 -34q27 -24 35 -55q29 34 64 59q52 30 108 30q83 0 127 -45q44 -37 44 -98q0 -54 -30 -98q-44 -54 -132 -74q-52 -8 -85 -8l-103 -2q0 -59 27 -95q34 -32 100 -32q40 0 76 14
q42 12 88 37l33 -62q-40 -27 -95 -48q-52 -15 -106 -15q-78 0 -122 35q-36 22 -53 62q-23 -41 -57 -64q-57 -33 -127 -33q-78 0 -115 39q-38 31 -38 89q0 56 30 100q59 76 207 76h85l7 45q3 21 3 36q0 27 -12 47q-19 20 -59 20q-45 0 -79 -17q-45 -13 -80 -42zM420 265
l103 2q87 0 126 32q37 26 37 75q0 35 -25.5 53t-63.5 18q-70 0 -118 -61q-46 -49 -59 -119zM337 222h-81q-62 0 -97 -18q-48 -18 -55 -72q-1 -6 -1 -15q0 -31 19 -42t53 -11q66 0 103 33q46 32 54 88z" />
    <glyph glyph-name="Oslashacute" unicode="&#x1fe;" horiz-adv-x="815" 
d="M438 724l-28 52l188 135l42 -67zM691 659l-27 -34q96 -91 96 -229q0 -24 -3 -48l-3 -19q-20 -147 -135 -251.5t-258 -104.5q-103 0 -182 57l-45 -55l-84 25l70 85q-69 85 -69 200q0 24 3 48l2 19q21 144 136.5 250t259.5 106q81 0 148 -36l10 12zM134 348l-3 -19
q-3 -21 -3 -41q0 -79 43 -141l378 463q-48 21 -100 21q-114 0 -206.5 -85t-108.5 -198zM678 333l2 19q3 21 3 42q0 103 -68 171l-387 -475q59 -40 133 -40q114 0 207 84t110 199z" />
    <glyph glyph-name="oslashacute" unicode="&#x1ff;" horiz-adv-x="620" 
d="M525 665l-202 -120l-28 52l188 135zM530 489l-36 -40q57 -60 57 -154q0 -21 -3 -44q-17 -122 -102.5 -192t-185.5 -70q-56 0 -106 24l-29 -38l-65 41l36 39q-56 56 -56 154q0 23 3 45q15 111 95 186.5t189 75.5q62 0 108 -24l30 39zM140 116l252 314q-19 12 -58 12
q-85 0 -143 -53.5t-71 -143.5q-3 -19 -3 -39q0 -53 23 -90zM451 389l-251 -316q26 -10 64 -10q75 0 134.5 53.5t72.5 147.5q3 21 3 39q0 51 -23 86z" />
    <glyph glyph-name="einvertedbreve" unicode="&#x207;" horiz-adv-x="556" 
d="M238 537l-82 4q10 74 53.5 114t112.5 40q65 0 100 -34.5t35 -91.5q0 -15 -3 -32l-81 4q2 18 2 24q0 55 -56 55q-72 0 -81 -83zM410 126l33 -62q-96 -63 -203 -63q-100 0 -150.5 55t-50.5 145q0 24 3 48q7 50 26.5 97t50.5 88.5t78.5 67t104.5 25.5q71 0 119 -39t48 -103
q0 -86 -68.5 -133.5t-178.5 -47.5l-103 -2q3 -127 124 -127q67 0 167 51zM125 276l103 2q75 0 119.5 26t44.5 81q0 34 -25.5 52.5t-63.5 18.5q-70 0 -117 -56.5t-61 -123.5z" />
    <glyph glyph-name="iinvertedbreve" unicode="&#x20b;" horiz-adv-x="260" 
d="M42 537l-82 4q10 74 53.5 114t112.5 40q65 0 100 -34.5t35 -91.5q0 -15 -3 -32l-81 4q2 18 2 24q0 55 -56 55q-72 0 -81 -83zM80 98v-4q0 -7 4.5 -12t10.5 -5q20 0 28 23l62 -47q-36 -52 -93 -52q-38 0 -63.5 25.5t-25.5 61.5q0 9 1 14l58 417h77z" />
    <glyph glyph-name="oinvertedbreve" unicode="&#x20f;" horiz-adv-x="642" 
d="M692 541l-82 -4q-9 83 -81 83q-56 0 -56 -55q0 -6 2 -24l-81 -4q-3 16 -3 32q0 57 35 91.5t100 34.5q69 0 112.5 -40t53.5 -114zM330 527q101 0 162 -63t61 -162q0 -20 -3 -43q-16 -113 -97 -185.5t-190 -72.5q-101 0 -161 62t-60 160q0 21 3 43q15 111 95 186t190 75z
M328 453q-84 0 -138.5 -55t-66.5 -139q-3 -19 -3 -36q0 -68 39 -108t108 -40q83 0 138 55t67 141q3 19 3 36q0 68 -39 107t-108 39z" />
    <glyph glyph-name="rinvertedbreve" unicode="&#x213;" horiz-adv-x="384" 
d="M191 551l-82 4q10 74 53.5 114t112.5 40q65 0 100 -34.5t35 -91.5q0 -15 -3 -32l-81 4q2 18 2 24q0 55 -56 55q-72 0 -81 -83zM71 481l52 45q38 -27 48 -72q27 32 54 51q43 22 93 22q14 0 69 -10l-6 -74q-34 9 -63 9q-51 0 -80 -25q-33 -20 -63 -64l-50 -353h-77l50 357
q3 19 3 35q0 52 -30 79z" />
    <glyph glyph-name="uinvertedbreve" unicode="&#x217;" horiz-adv-x="635" 
d="M655 564l-82 -4q-9 83 -81 83q-56 0 -56 -55q0 -6 2 -24l-81 -4q-3 16 -3 32q0 57 35 91.5t100 34.5q69 0 112.5 -40t53.5 -114zM39 469l48 62q25 -21 36.5 -32t25.5 -35.5t14 -50.5q0 -11 -1 -16l-31 -218q-2 -20 -2 -28q0 -39 19.5 -57t61.5 -18q48 0 83.5 21.5
t79.5 70.5l51 351h77l-60 -422v-4q0 -7 5 -12t11 -5q16 0 28 22l61 -48q-36 -50 -91 -50q-35 0 -59.5 20.5t-29.5 50.5q-71 -68 -163 -68q-73 0 -112.5 34.5t-39.5 101.5q0 3 0.5 9t0.5 9l35 244q1 11 -5 23t-12.5 18.5t-18 16t-12.5 10.5z" />
    <glyph glyph-name="Scommaaccent" unicode="&#x218;" horiz-adv-x="572" 
d="M11 159l73 25q15 -63 57.5 -97.5t100.5 -34.5q67 0 116.5 43t57.5 104q1 6 1 18q0 32 -17 52t-54 43q-11 6 -43.5 21.5t-50 25t-44 27.5t-41 35t-25.5 42.5t-11 53.5q0 81 63.5 136t145.5 55q35 0 62 -12q42 -12 65 -40t23 -64q0 -44 -32 -75.5t-75 -31.5q-9 0 -23 2
l15 80q5 -9 12 -9q10 0 17.5 9.5t7.5 22.5q0 18 -23 29.5t-51 11.5q-51 0 -91 -32t-40 -74q0 -21 12 -39t33.5 -33.5t42.5 -27t48.5 -25.5t42.5 -23q108 -58 108 -157q0 -94 -77 -169.5t-177 -75.5q-83 0 -149 52.5t-80 131.5zM202 -277h-76l75 224h86z" />
    <glyph glyph-name="scommaaccent" unicode="&#x219;" horiz-adv-x="461" 
d="M4 56l44 58q61 -50 138 -50q51 0 85 23t34 70q0 20 -11 33.5t-36 27.5q-16 8 -46 19.5t-49.5 20.5t-40.5 23.5t-32 35t-11 48.5q0 69 50 110t119 41q36 0 75 -10.5t59 -27.5l-22 -71q-51 35 -115 35q-40 0 -63.5 -18.5t-23.5 -47.5q0 -26 25.5 -43t71.5 -35.5t69 -34.5
q60 -37 60 -104q0 -6 -2 -22q-10 -73 -69.5 -110t-134.5 -37q-105 0 -174 66zM145 -277h-76l75 224h86z" />
    <glyph glyph-name="uni021A" unicode="&#x21a;" horiz-adv-x="637" 
d="M636 608h-231l-85 -609h-83l85 609h-142q-10 0 -18 -8t-9 -17q0 -6 3 -8l-82 3q2 47 38 82q34 26 72 26h463zM229 -277h-76l75 224h86z" />
    <glyph glyph-name="uni021B" unicode="&#x21b;" horiz-adv-x="384" 
d="M166 506h154l-11 -77h-154l-39 -281q-3 -19 -3 -35q0 -25 10 -37t34 -12q65 0 98 65l56 -48q-60 -91 -157 -91q-117 0 -117 123q0 18 3 39l67 476h76zM108 -277h-76l75 224h86z" />
    <glyph glyph-name="uni021E" unicode="&#x21e;" horiz-adv-x="709" 
d="M483 756h-58l-117 161h94l60 -81l86 81h99zM132 587l-65 51q35 53 94 53q38 0 65.5 -25t27.5 -64q0 -10 -1 -15l-27 -192h335l41 291h82l-96 -687h-82l44 318h-335l-44 -318h-83l83 592v3q0 14 -13 14t-26 -21z" />
    <glyph glyph-name="uni021F" unicode="&#x21f;" horiz-adv-x="605" 
d="M379 577h-58l-117 161h94l60 -81l86 81h99zM199 730l-39 -274q66 62 158 62q74 0 113 -35t39 -99q0 -17 -3 -35l-37 -260v-2q0 -18 17 -18t27 22l61 -47q-35 -51 -91 -51q-39 0 -64.5 25t-25.5 61q0 9 1 14l36 257q2 18 2 24q0 71 -85 71q-46 0 -82.5 -22.5t-78.5 -69.5
l-50 -351h-76l102 728h76z" />
    <glyph glyph-name="Adotaccent" unicode="&#x226;" horiz-adv-x="817" 
d="M496 792q-20 0 -34 14.5t-14 34.5q0 21 17 38.5t38 17.5t35.5 -15t14.5 -35q0 -21 -18 -38t-39 -17zM690 -1h-85l-61 221h-271l-92 -167q-14 -27 -41 -42t-54 -15q-40 0 -67.5 28.5t-23.5 66.5l78 11q0 -26 17 -26q13 0 21 14l344 598h34zM451 540l1 3zM521 298l-68 244
l-136 -244h204z" />
    <glyph glyph-name="adotaccent" unicode="&#x227;" 
d="M347 724q21 0 35.5 -15t14.5 -35q0 -21 -18 -38t-39 -17q-20 0 -34 14.5t-14 34.5q0 22 17 39t38 17zM493 89l60 -47q-32 -52 -91 -52q-30 0 -53.5 17.5t-31.5 43.5q-57 -61 -149 -61t-140.5 60.5t-48.5 152.5q0 28 4 51q16 115 92.5 188.5t187.5 73.5q56 0 119 -9h66
l-59 -420v-4q0 -17 15 -17q18 0 29 23zM387 195l36 239q-9 1 -50 4.5t-57 3.5q-80 0 -131.5 -54.5t-63.5 -139.5q-3 -21 -3 -42q0 -62 29 -102t85 -40q88 0 134 77q16 21 21 54z" />
    <glyph glyph-name="uni0228" unicode="&#x228;" horiz-adv-x="659" 
d="M262 609l-29 -208h259l-11 -79h-259l-34 -244h375l-11 -79h-188l-7 -17q57 -16 57 -84q0 -46 -39 -87.5t-97 -35.5l7 75q4 -1 10 -1q18 0 31.5 15t13.5 33q0 20 -30 20h-45l21 82h-192l87 609q-15 0 -25 -13q-14 -7 -17 -26q0 -1 -0.5 -4.5t-0.5 -5.5l-76 4q1 2 1 6
q0 45 41 86q42 31 83 31h461l-11 -77h-375z" />
    <glyph glyph-name="uni0229" unicode="&#x229;" horiz-adv-x="536" 
d="M409 115l33 -62q-82 -55 -177 -62l-4 -9q57 -16 57 -84q0 -46 -39 -87.5t-97 -35.5l7 75q4 -1 10 -1q18 0 31.5 15t13.5 33q0 20 -30 20h-45l19 77q-75 14 -112.5 66.5t-37.5 129.5q0 24 3 48q7 50 26.5 97t50.5 88.5t78.5 67t104.5 25.5q71 0 119 -39t48 -103
q0 -86 -68.5 -133.5t-178.5 -47.5l-103 -2q3 -127 124 -127q67 0 167 51zM124 265l103 2q75 0 119.5 26t44.5 81q0 34 -25.5 52.5t-63.5 18.5q-70 0 -117 -56.5t-61 -123.5z" />
    <glyph glyph-name="uni022A" unicode="&#x22a;" horiz-adv-x="815" 
d="M616 931h-340l11 78h340zM332 884q21 0 35.5 -15t14.5 -35q0 -21 -18 -38t-39 -17q-20 0 -34 14.5t-14 34.5q0 22 17.5 39t37.5 17zM547 884q21 0 35.5 -15t14.5 -35q0 -21 -18 -38t-39 -17q-20 0 -34 14.5t-14 34.5q0 22 17 39t38 17zM54 333l2 19q21 144 136.5 250
t259.5 106q132 0 220 -91t88 -221q0 -24 -3 -48l-3 -19q-20 -147 -135 -251.5t-258 -104.5q-133 0 -221.5 90.5t-88.5 221.5q0 24 3 48zM678 333l2 19q3 21 3 42q0 102 -67 169.5t-167 67.5q-114 0 -206.5 -85t-108.5 -198l-3 -19q-3 -21 -3 -41q0 -102 66.5 -170t166.5 -68
q114 0 207 84t110 199z" />
    <glyph glyph-name="uni022B" unicode="&#x22b;" horiz-adv-x="621" 
d="M521 784h-340l11 78h340zM212 713q21 0 35.5 -15t14.5 -35q0 -21 -18 -38t-39 -17q-20 0 -34 14.5t-14 34.5q0 21 17.5 38.5t37.5 17.5zM427 713q21 0 35.5 -15t14.5 -35q0 -21 -18 -38t-39 -17q-20 0 -34 14.5t-14 34.5q0 21 17 38.5t38 17.5zM328 516q101 0 162 -63
t61 -162q0 -21 -3 -43q-16 -113 -97 -185.5t-190 -72.5q-101 0 -161 62t-60 160q0 20 3 43q15 111 95 186t190 75zM326 442q-84 0 -138.5 -55t-66.5 -139q-3 -20 -3 -36q0 -68 39 -108t108 -40q83 0 138 55t67 141q3 20 3 36q0 68 -39 107t-108 39z" />
    <glyph glyph-name="Ymacron" unicode="&#x232;" horiz-adv-x="643" 
d="M587 787h-340l11 78h340zM147 583l-82 12q6 46 41 73.5t73 27.5q56 0 81 -55l104 -251l207 297h96l-271 -389l-42 -299h-87l45 297l-125 311q-5 8 -15 8q-9 0 -17.5 -6.5t-9.5 -15.5q0 -6 2 -10z" />
    <glyph glyph-name="ymacron" unicode="&#x233;" horiz-adv-x="567" 
d="M504 608h-340l11 78h340zM520 508l-52 -364l-35 -248q-11 -81 -60.5 -127t-115.5 -46t-102 41.5t-36 101.5q0 8 2 24q10 68 52 108q-49 9 -76 40.5t-27 80.5q0 8 2 28l34 243q2 16 -20 41t-28 24l48 65q25 -22 37.5 -34t25.5 -35.5t13 -48.5q0 -10 -1 -16l-31 -218
q-2 -20 -2 -28q0 -39 19.5 -57t60.5 -18q45 0 79 19t73 59l-1 -1q14 18 17 37l47 329h77zM358 -104l20 142q-19 -13 -47 -28l-52 -25q-39 -20 -58.5 -42.5t-24.5 -58.5q-1 -6 -1 -19q0 -67 63 -67q39 0 66.5 27t33.5 71z" />
    <glyph glyph-name="dotlessj" unicode="&#x237;" horiz-adv-x="267" 
d="M222 509l-93 -665q-6 -40 -37.5 -68.5t-71.5 -28.5q-60 0 -84 56l69 38q5 -11 8 -14t10 -3q11 0 19.5 7.5t10.5 16.5l92 661h77z" />
    <glyph glyph-name="primemod" unicode="&#x2b9;" horiz-adv-x="217" 
d="M143 488h-73l18 209h95z" />
    <glyph glyph-name="dblprimemod" unicode="&#x2ba;" horiz-adv-x="335" 
d="M282 489h-72l18 209h94zM149 488h-73l18 209h95z" />
    <glyph glyph-name="uni02BC" unicode="&#x2bc;" horiz-adv-x="234" 
d="M126 597l8 58q1 16 14 32q17 10 31 10q21 0 30 -17q13 -9 9 -29l-8 -58q-6 -45 -26 -87q-27 -46 -73 -74l-48 49q51 36 63 116z" />
    <glyph glyph-name="circumflex" unicode="&#x2c6;" horiz-adv-x="437" 
d="M418 586h-94l-60 81l-86 -81h-98l163 161h58z" />
    <glyph glyph-name="caron" unicode="&#x2c7;" horiz-adv-x="418" 
d="M270 577h-58l-117 161h94l60 -81l86 81h99z" />
    <glyph glyph-name="breve" unicode="&#x2d8;" horiz-adv-x="432" 
d="M336 732l82 -4q-10 -74 -53.5 -114t-112.5 -40q-65 0 -100 34.5t-35 91.5q0 16 3 32l81 -4q-2 -18 -2 -24q0 -55 56 -55q72 0 81 83z" />
    <glyph glyph-name="dotaccent" unicode="&#x2d9;" horiz-adv-x="202" 
d="M124 720q21 0 35.5 -15t14.5 -35q0 -21 -18 -38t-39 -17q-20 0 -34 14.5t-14 34.5q0 22 17.5 39t37.5 17z" />
    <glyph glyph-name="ring" unicode="&#x2da;" horiz-adv-x="335" 
d="M220 753q45 0 71.5 -26.5t26.5 -68.5q0 -55 -36 -91.5t-88 -36.5q-45 0 -71 26t-26 68q0 55 34.5 92t88.5 37zM218 687q-20 0 -33 -13.5t-17 -36.5q-1 -4 -1 -10q0 -32 29 -32q21 0 37 17.5t16 41.5q0 33 -31 33z" />
    <glyph glyph-name="ogonek" unicode="&#x2db;" horiz-adv-x="291" 
d="M103 31l75 -12q-85 -77 -97 -96q-9 -12 -10 -24v-5q0 -18 22 -18q24 0 58 28l30 -66q-18 -16 -48.5 -26t-55.5 -10q-38 0 -62 25t-24 63q0 14 4.5 27t9.5 22t19 23t21 20.5t28.5 24t29.5 24.5z" />
    <glyph glyph-name="tilde" unicode="&#x2dc;" horiz-adv-x="517" 
d="M449 705l45 -60q-28 -20 -40.5 -28t-36 -15.5t-51.5 -7.5q-17 0 -47.5 8t-54.5 16t-26 8q-34 0 -80 -38l-44 60q67 53 125 53q35 0 76 -17t56 -17q30 0 78 38z" />
    <glyph glyph-name="hungarumlaut" unicode="&#x2dd;" horiz-adv-x="504" 
d="M318 701l-182 -136l-50 51l184 137zM504 701l-184 -136l-50 51l183 137z" />
    <glyph glyph-name="gravecomb" unicode="&#x300;" horiz-adv-x="0" 
d="M316 646l-39 -69l-214 95l42 75z" />
    <glyph glyph-name="acutecomb" unicode="&#x301;" horiz-adv-x="0" 
d="M346 672l-236 -95l-19 69l235 101z" />
    <glyph glyph-name="circumflexcomb" unicode="&#x302;" horiz-adv-x="0" 
d="M410 577h-95l-61 81l-84 -81h-99l163 161h57z" />
    <glyph glyph-name="tildecomb" unicode="&#x303;" horiz-adv-x="0" 
d="M397 743l45 -60q-28 -20 -40.5 -28t-36 -15.5t-51.5 -7.5q-17 0 -47.5 8t-54.5 16t-26 8q-34 0 -80 -38l-44 60q67 53 125 53q35 0 76 -17t56 -17q30 0 78 38z" />
    <glyph glyph-name="macroncomb" unicode="&#x304;" horiz-adv-x="0" 
d="M394 617h-297l10 75h297z" />
    <glyph glyph-name="brevecomb" unicode="&#x306;" horiz-adv-x="0" 
d="M346 732l81 -4q-7 -70 -56 -112t-120 -42q-66 0 -105 36t-39 93q0 14 3 29l81 -4q-2 -14 -2 -19q0 -60 64 -60q42 0 66 22.5t27 60.5z" />
    <glyph glyph-name="dieresiscomb" unicode="&#x308;" horiz-adv-x="0" 
d="M129 705q24 0 36 -19q15 -13 12 -37q-2 -18 -18 -34q-18 -12 -36 -12q-23 0 -35 18q-12 9 -12 30t18 42q19 12 35 12zM344 705q25 0 35 -19q15 -13 12 -37q-2 -17 -18 -35q-15 -11 -35 -11q-24 0 -36 18q-12 9 -12 30q0 17 17 42q21 12 37 12z" />
    <glyph glyph-name="ringcomb" unicode="&#x30a;" horiz-adv-x="0" 
d="M201 764q45 0 71.5 -26.5t26.5 -68.5q0 -55 -36 -91.5t-88 -36.5q-45 0 -71 26t-26 68q0 55 34.5 92t88.5 37zM199 698q-20 0 -33 -13.5t-17 -36.5q-1 -4 -1 -10q0 -32 29 -32q21 0 37 17.5t16 41.5q0 33 -31 33z" />
    <glyph glyph-name="caroncomb" unicode="&#x30c;" horiz-adv-x="0" 
d="M270 577h-58l-117 161h94l60 -81l86 81h99z" />
    <glyph glyph-name="commaaccentcomb" unicode="&#x326;" horiz-adv-x="0" 
d="M25 -277h-76l75 224h86z" />
    <glyph glyph-name="cedillacomb" unicode="&#x327;" horiz-adv-x="0" 
d="M116 44l-21 -51q57 -16 57 -84q0 -46 -39 -87.5t-97 -35.5l7 75q4 -1 10 -1q18 0 31.5 15t13.5 33q0 20 -30 20h-45l29 116h84z" />
    <glyph glyph-name="ogonekcomb" unicode="&#x328;" horiz-adv-x="0" 
d="M84 42l75 -12q-85 -77 -97 -96q-9 -12 -10 -24v-5q0 -18 22 -18q24 0 58 28l30 -66q-18 -16 -48.5 -26t-55.5 -10q-38 0 -62 25t-24 63q0 14 4.5 27t9.5 22t19 23t21 20.5t28.5 24t29.5 24.5z" />
    <glyph glyph-name="gravetonecomb" unicode="&#x340;" horiz-adv-x="0" 
d="M297 657l-39 -69l-214 95l42 75z" />
    <glyph glyph-name="acutetonecomb" unicode="&#x341;" horiz-adv-x="0" 
d="M327 683l-236 -95l-19 69l235 101z" />
    <glyph glyph-name="dialytikatonoscomb" unicode="&#x344;" horiz-adv-x="0" 
d="M458 842l-236 -95l-19 69l235 101zM110 716q24 0 36 -19q15 -13 12 -37q-2 -18 -18 -34q-18 -12 -36 -12q-23 0 -35 18q-12 9 -12 30t18 42q19 12 35 12zM325 716q25 0 35 -19q15 -13 12 -37q-2 -17 -18 -35q-15 -11 -35 -11q-24 0 -36 18q-12 9 -12 30q0 17 17 42
q21 12 37 12z" />
    <glyph glyph-name="numeralsigngreek" unicode="&#x374;" horiz-adv-x="217" 
d="M124 499h-73l18 209h95z" />
    <glyph glyph-name="questiongreek" unicode="&#x37e;" horiz-adv-x="223" 
d="M92 505q21 0 35.5 -15t14.5 -35q0 -21 -18 -38t-39 -17q-20 0 -34 14.5t-14 34.5q0 21 17.5 38.5t37.5 17.5zM-7 85v1q2 18 15 29.5t30 11.5q21 0 32 -15t8 -30l-3 -20q-4 -40 -20 -78q-24 -35 -69 -64l-48 49q29 21 39 45q8 15 13 41q0 3 1.5 13.5t1.5 16.5z" />
    <glyph glyph-name="anoteleia" unicode="&#x387;" horiz-adv-x="248" 
d="M107 408q26 0 44.5 -18.5t18.5 -44.5q0 -29 -23.5 -52.5t-51.5 -23.5q-27 0 -45.5 19t-18.5 45q0 7 1 10q3 26 26 45.5t49 19.5z" />
    <glyph glyph-name="Alpha" unicode="&#x391;" horiz-adv-x="817" 
d="M690 -1h-85l-61 221h-271l-92 -167q-14 -27 -41 -42t-54 -15q-40 0 -67.5 28.5t-23.5 66.5l78 11q0 -26 17 -26q13 0 21 14l344 598h34zM451 540l1 3zM521 298l-68 244l-136 -244h204z" />
    <glyph glyph-name="Beta" unicode="&#x392;" horiz-adv-x="656" 
d="M190 697h216q81 0 132.5 -45.5t51.5 -117.5q0 -55 -27 -100t-71 -67h-2q85 -48 85 -152q0 -9 -2 -31q-14 -98 -92.5 -146t-198.5 -48q-66 0 -116 5l-63 7l89 617q-25 -1 -33 -12q-15 -9 -15 -26l-14 -9l-65 2q0 8 1 15q6 42 40 76q42 32 84 32zM273 619l-79 -548
q94 -5 95 -5q187 0 205 127q2 14 2 21q0 52 -37 81t-96 29h-106l11 77h95q61 0 97 31q50 37 50 103q0 39 -26 60.5t-72 23.5h-139z" />
    <glyph glyph-name="Delta" unicode="&#x394;" horiz-adv-x="569" 
d="M451 70l-4 -60h-458l5 60l250 611h127zM295 603l-209 -515h279l-65 515h-5z" />
    <glyph glyph-name="Epsilon" unicode="&#x395;" horiz-adv-x="659" 
d="M637 609h-375l-29 -208h259l-11 -79h-259l-34 -244h375l-11 -79h-458l87 609q-15 0 -25 -13q-14 -7 -17 -26q0 -1 -0.5 -4.5t-0.5 -5.5l-76 4q1 2 1 6q0 45 41 86q42 31 83 31h461z" />
    <glyph glyph-name="Zeta" unicode="&#x396;" horiz-adv-x="601" 
d="M146 107l12 -3q18 -4 83.5 -23.5t96.5 -19.5q65 0 125 57l50 -56q-87 -76 -177 -76q-51 0 -133 26.5t-103 30.5l-48 -62l-60 38l435 590h-294l11 74h427z" />
    <glyph glyph-name="Eta" unicode="&#x397;" horiz-adv-x="709" 
d="M132 587l-65 51q35 53 94 53q38 0 65.5 -25t27.5 -64q0 -10 -1 -15l-27 -192h335l41 291h82l-96 -687h-82l44 318h-335l-44 -318h-83l83 592v3q0 14 -13 14t-26 -21z" />
    <glyph glyph-name="Iota" unicode="&#x399;" horiz-adv-x="228" 
d="M103 -1h-82l96 687h82z" />
    <glyph glyph-name="Kappa" unicode="&#x39a;" horiz-adv-x="654" 
d="M470 688l101 -4q-105 -155 -137 -204q-10 -13 -33 -44t-30 -40q-35 -37 -55 -51l149 -267q5 -8 14 -8q11 0 19 7.5t9 18.5v1q2 5 1 8l78 -3q-2 -52 -38 -81t-74 -29q-24 0 -45 12t-31 32l-157 275q-37 -9 -92 -8l-44 -303h-84l96 686h82l-42 -302h28q36 1 58 14
q26 10 48 36q36 35 79 100q21 27 100 154z" />
    <glyph glyph-name="Mu" unicode="&#x39c;" horiz-adv-x="1045" 
d="M839 -1l-33 544l-272 -544h-73l-120 543l-161 -473q-11 -32 -40 -54t-61 -22q-34 0 -59 22t-29 51l72 25q3 -8 4.5 -11t3.5 -6t4.5 -3.5t6.5 -0.5q13 0 22 15l209 601h74l126 -561l1 -1l2 2l-2 -1l285 561h74l45 -687h-79zM811 553l-1 -1l-4 -8v-4zM341 543l-2 8l-1 1
l1 -14z" />
    <glyph glyph-name="Nu" unicode="&#x39d;" horiz-adv-x="787" 
d="M345 561l277 -397l-5 13l67 508h81l-96 -686h-34l-385 551l6 -11l-58 -447q-6 -45 -43 -70.5t-73 -25.5q-35 0 -61 26t-26 63q0 9 1 13q0 8 1 10l80 -4q-5 -10 -5 -13v-3q0 -15 16 -15q10 0 18.5 7.5t9.5 15.5l83 590h53z" />
    <glyph glyph-name="Omicron" unicode="&#x39f;" horiz-adv-x="815" 
d="M54 333l2 19q21 144 136.5 250t259.5 106q132 0 220 -91t88 -221q0 -24 -3 -48l-3 -19q-20 -147 -135 -251.5t-258 -104.5q-133 0 -221.5 90.5t-88.5 221.5q0 24 3 48zM678 333l2 19q3 21 3 42q0 102 -67 169.5t-167 67.5q-114 0 -206.5 -85t-108.5 -198l-3 -19
q-3 -21 -3 -41q0 -102 66.5 -170t166.5 -68q114 0 207 84t110 199z" />
    <glyph glyph-name="Rho" unicode="&#x3a1;" horiz-adv-x="621" 
d="M187 686h224q81 0 126 -50t45 -129q0 -21 -3 -42q-15 -106 -87 -161t-165 -55q-39 0 -86 6l6 76q72 -4 79 -4q153 0 174 145q2 11 2 32q0 100 -112 105h-118l-85 -610h-83l87 610q-24 -1 -34 -14q-18 -11 -19 -36l-76 4q1 2 1 6q0 45 41 86q42 31 83 31z" />
    <glyph glyph-name="Tau" unicode="&#x3a4;" horiz-adv-x="637" 
d="M636 608h-231l-85 -609h-83l85 609h-142q-10 0 -18 -8t-9 -17q0 -6 3 -8l-82 3q2 47 38 82q34 26 72 26h463z" />
    <glyph glyph-name="Upsilon" unicode="&#x3a5;" horiz-adv-x="643" 
d="M147 583l-82 12q6 46 41 73.5t73 27.5q56 0 81 -55l104 -251l207 297h96l-271 -389l-42 -299h-87l45 297l-125 311q-5 8 -15 8q-9 0 -17.5 -6.5t-9.5 -15.5q0 -6 2 -10z" />
    <glyph glyph-name="Chi" unicode="&#x3a7;" horiz-adv-x="678" 
d="M369 351l122 -273q2 -6 11 -6q12 0 21 10.5t10 23.5l78 -8q-5 -48 -39.5 -76.5t-76.5 -28.5q-35 0 -54.5 19.5t-34.5 57.5l-96 215l-210 -286h-98l260 352l-164 335h92l131 -270l208 270h99z" />
    <glyph glyph-name="Omega" unicode="&#x3a9;" horiz-adv-x="596" 
d="M116 75l-13 35q-10 24 -16 55q-15 39 -23 103q-6 30 -6 63q0 25 3 54q11 74 28 129q15 52 45 95q32 36 75 57q49 18 111 18q66 0 104 -22q46 -19 63 -61q24 -38 24 -114q0 -40 -10 -110q-6 -47 -24 -94q-14 -42 -36 -88q-16 -25 -46 -77q-6 -8 -17 -23t-16 -22l117 2
l-10 -73h-211l6 55l49 74q26 38 44 78q23 37 39 81q15 39 21 82q9 66 9 119q0 35 -7 60q-12 25 -33 39q-24 12 -69 12q-51 0 -76 -16q-30 -11 -48 -43q-19 -26 -31 -73q-8 -31 -20 -106q-3 -26 -3 -52q0 -24 3 -51q4 -18 11.5 -52t10.5 -48q9 -20 17 -53q11 -21 24 -53
l-6 -53h-211l10 73h118z" />
    <glyph glyph-name="Iotadieresis" unicode="&#x3aa;" horiz-adv-x="228" 
d="M36 884q21 0 35.5 -15t14.5 -35q0 -21 -18 -38t-39 -17q-20 0 -34 14.5t-14 34.5q0 22 17.5 39t37.5 17zM251 884q21 0 35.5 -15t14.5 -35q0 -21 -18 -38t-39 -17q-20 0 -34 14.5t-14 34.5q0 22 17 39t38 17zM103 -1h-82l96 687h82z" />
    <glyph glyph-name="Upsilondieresis" unicode="&#x3ab;" horiz-adv-x="643" 
d="M283 884q21 0 35.5 -15t14.5 -35q0 -21 -18 -38t-39 -17q-20 0 -34 14.5t-14 34.5q0 22 17 39t38 17zM498 884q21 0 35.5 -15t14.5 -35q0 -21 -18 -38t-39 -17q-20 0 -34 14.5t-14 34.5q0 22 17.5 39t37.5 17zM147 583l-82 12q6 46 41 73.5t73 27.5q56 0 81 -55l104 -251
l207 297h96l-271 -389l-42 -299h-87l45 297l-125 311q-5 8 -15 8q-9 0 -17.5 -6.5t-9.5 -15.5q0 -6 2 -10z" />
    <glyph glyph-name="beta" unicode="&#x3b2;" horiz-adv-x="612" 
 />
    <glyph glyph-name="kappa" unicode="&#x3ba;" horiz-adv-x="544" 
d="M170 518l-11 -67q61 65 150 65q68 0 108.5 -36.5t40.5 -95.5q0 -37 -17.5 -79t-57.5 -72q-2 -1 -14 -7.5t-19 -9.5l61 -132q5 -5 13 -5q11 0 19 7t8 14l13 10l66 -5q-4 -43 -37 -74t-72 -31q-26 0 -47.5 13.5t-30.5 35.5l-71 145h-148l-27 -194h-76l73 518h76zM137 266
l99 2q68 0 108 31.5t40 80.5q0 32 -22 49t-56 17q-47 0 -86.5 -33.5t-62.5 -88.5q-16 -30 -20 -58z" />
    <glyph glyph-name="mu" unicode="&#x3bc;" horiz-adv-x="540" 
d="M453 517l-50 -357q-3 -21 -3 -37q0 -50 29 -78l-52 -45q-30 20 -41 54q-6 11 -8 25q-72 -78 -164 -78q-40 0 -62 9q-13 2 -31 10l-37 -252h-77l105 749h77l-47 -326l2 -2q-6 -29 -6 -48q0 -29 12 -47q18 -19 72 -19q44 0 78 26q35 20 76 68l50 348h77z" />
    <glyph glyph-name="omicron" unicode="&#x3bf;" horiz-adv-x="620" 
d="M328 516q101 0 162 -63t61 -162q0 -21 -3 -43q-16 -113 -97 -185.5t-190 -72.5q-101 0 -161 62t-60 160q0 20 3 43q15 111 95 186t190 75zM326 442q-84 0 -138.5 -55t-66.5 -139q-3 -20 -3 -36q0 -68 39 -108t108 -40q83 0 138 55t67 141q3 20 3 36q0 68 -39 107t-108 39
z" />
    <glyph glyph-name="pi" unicode="&#x3c0;" horiz-adv-x="628" 
d="M594 535l-13 -84q-6 -4 -39 -18q-17 -3 -55 -5l-39 -265q-1 -4 -4 -48q3 -14 8 -24q5 -4 19 -7q23 -3 54 -3l-4 -81q-52 -2 -84 8q-32 4 -50 28q-22 18 -23 54q-2 14 -2 26q0 13 4 51l37 258h-138l-85 -426h-82l84 425l-36 -3q-36 -5 -37 -5l-47 -10l10 86q28 6 60 9
l52 4l53 3h195q35 0 68 4q45 4 94 23z" />
    <glyph glyph-name="rho" unicode="&#x3c1;" horiz-adv-x="571" 
d="M59 470l52 45q37 -28 47 -67q58 68 155 68q93 0 142 -60t49 -153q0 -17 -4 -51q-16 -116 -92 -189t-189 -73q-45 0 -105 7l-37 -251h-77l86 610q3 20 3 35q0 52 -30 79zM159 326l-38 -255q69 -7 96 -7q87 0 140 51t65 139q3 21 3 41q0 65 -29 106t-83 41q-52 0 -98 -33
t-56 -83z" />
    <glyph glyph-name="chi" unicode="&#x3c7;" horiz-adv-x="571" 
d="M294 256l89 -186l-2 -3q3 -7 14 -7t19 7.5t10 16.5q0 8 -3 10l81 -8q-4 -44 -36.5 -74.5t-73.5 -30.5q-54 0 -79 49l-77 159l-146 -190h-92l197 255l-126 254h90l92 -190l142 190h93z" />
    <glyph glyph-name="UpsilonhookSymbol" unicode="&#x3d2;" horiz-adv-x="643" 
d="M147 583l-82 12q6 46 41 73.5t73 27.5q56 0 81 -55l104 -251l207 297h96l-271 -389l-42 -299h-87l45 297l-125 311q-5 8 -15 8q-9 0 -17.5 -6.5t-9.5 -15.5q0 -6 2 -10z" />
    <glyph glyph-name="UpsilondieresishookSymbol" unicode="&#x3d4;" horiz-adv-x="643" 
d="M283 884q21 0 35.5 -15t14.5 -35q0 -21 -18 -38t-39 -17q-20 0 -34 14.5t-14 34.5q0 22 17 39t38 17zM498 884q21 0 35.5 -15t14.5 -35q0 -21 -18 -38t-39 -17q-20 0 -34 14.5t-14 34.5q0 22 17.5 39t37.5 17zM147 583l-82 12q6 46 41 73.5t73 27.5q56 0 81 -55l104 -251
l207 297h96l-271 -389l-42 -299h-87l45 297l-125 311q-5 8 -15 8q-9 0 -17.5 -6.5t-9.5 -15.5q0 -6 2 -10z" />
    <glyph glyph-name="piSymbol" unicode="&#x3d6;" horiz-adv-x="628" 
d="M594 535l-13 -84q-6 -4 -39 -18q-17 -3 -55 -5l-39 -265q-1 -4 -4 -48q3 -14 8 -24q5 -4 19 -7q23 -3 54 -3l-4 -81q-52 -2 -84 8q-32 4 -50 28q-22 18 -23 54q-2 14 -2 26q0 13 4 51l37 258h-138l-85 -426h-82l84 425l-36 -3q-36 -5 -37 -5l-47 -10l10 86q28 6 60 9
l52 4l53 3h195q35 0 68 4q45 4 94 23z" />
    <glyph glyph-name="kappaSymbol" unicode="&#x3f0;" horiz-adv-x="544" 
d="M170 518l-11 -67q61 65 150 65q68 0 108.5 -36.5t40.5 -95.5q0 -37 -17.5 -79t-57.5 -72q-2 -1 -14 -7.5t-19 -9.5l61 -132q5 -5 13 -5q11 0 19 7t8 14l13 10l66 -5q-4 -43 -37 -74t-72 -31q-26 0 -47.5 13.5t-30.5 35.5l-71 145h-148l-27 -194h-76l73 518h76zM137 266
l99 2q68 0 108 31.5t40 80.5q0 32 -22 49t-56 17q-47 0 -86.5 -33.5t-62.5 -88.5q-16 -30 -20 -58z" />
    <glyph glyph-name="rhoSymbol" unicode="&#x3f1;" horiz-adv-x="571" 
d="M59 470l52 45q37 -28 47 -67q58 68 155 68q93 0 142 -60t49 -153q0 -17 -4 -51q-16 -116 -92 -189t-189 -73q-45 0 -105 7l-37 -251h-77l86 610q3 20 3 35q0 52 -30 79zM159 326l-38 -255q69 -7 96 -7q87 0 140 51t65 139q3 21 3 41q0 65 -29 106t-83 41q-52 0 -98 -33
t-56 -83z" />
    <glyph glyph-name="uni0589" unicode="&#x589;" horiz-adv-x="239" 
d="M92 505q21 0 35.5 -15t14.5 -35q0 -21 -18 -38t-39 -17q-20 0 -34 14.5t-14 34.5q0 21 17.5 38.5t37.5 17.5zM38 123q21 0 35.5 -15t14.5 -35q0 -21 -18 -38t-39 -17q-20 0 -34 14.5t-14 34.5q0 21 17.5 38.5t37.5 17.5z" />
    <glyph glyph-name="Wgrave" unicode="&#x1e80;" horiz-adv-x="1056" 
d="M665 724l-172 120l57 67l154 -135zM1121 687l-320 -688h-74l-101 548l-255 -548h-74l-113 605q-4 13 -15 13q-23 0 -31 -29l-72 26q11 38 43 60t64 22q33 0 57.5 -20.5t28.5 -50.5l91 -491l-9 -23l1 1l8 18l4 -19l2 -11l-3 37l253 550h74l95 -528l-10 -74l1 5l4 21l10 22
l4 -22l-1 27l254 549h84zM780 133l-5 26l5 32l3 -53zM350 130v4l3 8v-5z" />
    <glyph glyph-name="wgrave" unicode="&#x1e81;" horiz-adv-x="833" 
d="M505 597l-39 -52l-172 120l57 67zM58 465l48 63q59 -39 73 -119l54 -276l175 375h71l70 -375l175 375h81l-236 -508h-72l-68 375l-177 -375h-72l-75 412q-14 44 -47 53z" />
    <glyph glyph-name="Wacute" unicode="&#x1e82;" horiz-adv-x="1056" 
d="M642 724l-28 52l188 135l42 -67zM1121 687l-320 -688h-74l-101 548l-255 -548h-74l-113 605q-4 13 -15 13q-23 0 -31 -29l-72 26q11 38 43 60t64 22q33 0 57.5 -20.5t28.5 -50.5l91 -491l-9 -23l1 1l8 18l4 -19l2 -11l-3 37l253 550h74l95 -528l-10 -74l1 5l4 21l10 22
l4 -22l-1 27l254 549h84zM780 133l-5 26l5 32l3 -53zM350 130v4l3 8v-5z" />
    <glyph glyph-name="wacute" unicode="&#x1e83;" horiz-adv-x="833" 
d="M645 665l-202 -120l-28 52l188 135zM58 465l48 63q59 -39 73 -119l54 -276l175 375h71l70 -375l175 375h81l-236 -508h-72l-68 375l-177 -375h-72l-75 412q-14 44 -47 53z" />
    <glyph glyph-name="Wdieresis" unicode="&#x1e84;" horiz-adv-x="1056" 
d="M517 779q-20 0 -34 14.5t-14 34.5q0 22 17.5 39t37.5 17q21 0 35.5 -15t14.5 -35q0 -21 -18 -38t-39 -17zM732 779q-20 0 -34 14.5t-14 34.5q0 22 17 39t38 17t35.5 -15t14.5 -35q0 -21 -18 -38t-39 -17zM1121 687l-320 -688h-74l-101 548l-255 -548h-74l-113 605
q-4 13 -15 13q-23 0 -31 -29l-72 26q11 38 43 60t64 22q33 0 57.5 -20.5t28.5 -50.5l91 -491l-9 -23l1 1l8 18l4 -19l2 -11l-3 37l253 550h74l95 -528l-10 -74l1 5l4 21l10 22l4 -22l-1 27l254 549h84zM780 133l-5 26l5 32l3 -53zM350 130v4l3 8v-5z" />
    <glyph glyph-name="wdieresis" unicode="&#x1e85;" horiz-adv-x="833" 
d="M325 705q21 0 35.5 -15t14.5 -35q0 -21 -18 -38t-39 -17q-20 0 -34 14.5t-14 34.5q0 21 17 38.5t38 17.5zM540 705q21 0 35.5 -15t14.5 -35q0 -21 -18 -38t-39 -17q-20 0 -34 14.5t-14 34.5q0 21 17.5 38.5t37.5 17.5zM58 465l48 63q59 -39 73 -119l54 -276l175 375h71
l70 -375l175 375h81l-236 -508h-72l-68 375l-177 -375h-72l-75 412q-14 44 -47 53z" />
    <glyph glyph-name="Adotbelow" unicode="&#x1ea0;" horiz-adv-x="817" 
d="M690 -1h-85l-61 221h-271l-92 -167q-14 -27 -41 -42t-54 -15q-40 0 -67.5 28.5t-23.5 66.5l78 11q0 -26 17 -26q13 0 21 14l344 598h34zM451 540l1 3zM521 298l-68 244l-136 -244h204zM394 -105q13 -9 13 -31q0 -24 -18 -43q-19 -12 -37 -12q-26 0 -35 18q-13 10 -13 31
q0 23 19 44q15 11 36 11q27 0 35 -18z" />
    <glyph glyph-name="adotbelow" unicode="&#x1ea1;" 
d="M493 89l60 -47q-32 -52 -91 -52q-30 0 -53.5 17.5t-31.5 43.5q-57 -61 -149 -61t-140.5 60.5t-48.5 152.5q0 28 4 51q16 115 92.5 188.5t187.5 73.5q56 0 119 -9h66l-59 -420v-4q0 -17 15 -17q18 0 29 23zM387 195l36 239q-9 1 -50 4.5t-57 3.5q-80 0 -131.5 -54.5
t-63.5 -139.5q-3 -21 -3 -42q0 -62 29 -102t85 -40q88 0 134 77q16 21 21 54zM207 -94q27 0 35 -18q13 -9 13 -31q0 -23 -18 -43q-19 -12 -37 -12q-26 0 -35 18q-13 10 -13 31q0 23 19 44q15 11 36 11z" />
    <glyph glyph-name="Acircumflexacute" unicode="&#x1ea4;" horiz-adv-x="817" 
d="M481 939l-28 52l188 135l42 -67zM412 767h-98l163 161h58l117 -161h-94l-60 81zM690 -1h-85l-61 221h-271l-92 -167q-14 -27 -41 -42t-54 -15q-40 0 -67.5 28.5t-23.5 66.5l78 11q0 -26 17 -26q13 0 21 14l344 598h34zM451 540l1 3zM521 298l-68 244l-136 -244h204z" />
    <glyph glyph-name="acircumflexacute" unicode="&#x1ea5;" 
d="M526 892l-202 -120l-28 52l188 135zM496 594h-94l-60 81l-86 -81h-98l163 161h58zM493 89l60 -47q-32 -52 -91 -52q-30 0 -53.5 17.5t-31.5 43.5q-57 -61 -149 -61t-140.5 60.5t-48.5 152.5q0 28 4 51q16 115 92.5 188.5t187.5 73.5q56 0 119 -9h66l-59 -420v-4
q0 -17 15 -17q18 0 29 23zM387 195l36 239q-9 1 -50 4.5t-57 3.5q-80 0 -131.5 -54.5t-63.5 -139.5q-3 -21 -3 -42q0 -62 29 -102t85 -40q88 0 134 77q16 21 21 54z" />
    <glyph glyph-name="Acircumflexgrave" unicode="&#x1ea6;" horiz-adv-x="817" 
d="M504 936l-172 120l57 67l154 -135zM412 767h-98l163 161h58l117 -161h-94l-60 81zM690 -1h-85l-61 221h-271l-92 -167q-14 -27 -41 -42t-54 -15q-40 0 -67.5 28.5t-23.5 66.5l78 11q0 -26 17 -26q13 0 21 14l344 598h34zM451 540l1 3zM521 298l-68 244l-136 -244h204z
" />
    <glyph glyph-name="acircumflexgrave" unicode="&#x1ea7;" 
d="M387 834l-39 -52l-172 120l57 67zM496 594h-94l-60 81l-86 -81h-98l163 161h58zM493 89l60 -47q-32 -52 -91 -52q-30 0 -53.5 17.5t-31.5 43.5q-57 -61 -149 -61t-140.5 60.5t-48.5 152.5q0 28 4 51q16 115 92.5 188.5t187.5 73.5q56 0 119 -9h66l-59 -420v-4
q0 -17 15 -17q18 0 29 23zM387 195l36 239q-9 1 -50 4.5t-57 3.5q-80 0 -131.5 -54.5t-63.5 -139.5q-3 -21 -3 -42q0 -62 29 -102t85 -40q88 0 134 77q16 21 21 54z" />
    <glyph glyph-name="Acircumflextilde" unicode="&#x1eaa;" horiz-adv-x="817" 
d="M643 1060l45 -60q-28 -20 -40.5 -28t-36 -15.5t-51.5 -7.5q-17 0 -47.5 8t-54.5 16t-26 8q-34 0 -80 -38l-44 60q67 53 125 53q35 0 76 -17t56 -17q30 0 78 38zM535 928l117 -161h-94l-60 81l-86 -81h-98l163 161h58zM690 -1h-85l-61 221h-271l-92 -167q-14 -27 -41 -42
t-54 -15q-40 0 -67.5 28.5t-23.5 66.5l78 11q0 -26 17 -26q13 0 21 14l344 598h34zM451 540l1 3zM521 298l-68 244l-136 -244h204z" />
    <glyph glyph-name="acircumflextilde" unicode="&#x1eab;" 
d="M486 898l45 -60q-28 -20 -40.5 -28t-36 -15.5t-51.5 -7.5q-17 0 -47.5 8t-54.5 16t-26 8q-34 0 -80 -38l-44 60q67 53 125 53q36 0 77 -17t55 -17q30 0 78 38zM496 594h-94l-60 81l-86 -81h-98l163 161h58zM493 89l60 -47q-32 -52 -91 -52q-30 0 -53.5 17.5t-31.5 43.5
q-57 -61 -149 -61t-140.5 60.5t-48.5 152.5q0 28 4 51q16 115 92.5 188.5t187.5 73.5q56 0 119 -9h66l-59 -420v-4q0 -17 15 -17q18 0 29 23zM387 195l36 239q-9 1 -50 4.5t-57 3.5q-80 0 -131.5 -54.5t-63.5 -139.5q-3 -21 -3 -42q0 -62 29 -102t85 -40q88 0 134 77
q16 21 21 54z" />
    <glyph glyph-name="Acircumflexdotbelow" unicode="&#x1eac;" horiz-adv-x="817" 
d="M412 767h-98l163 161h58l117 -161h-94l-60 81zM690 -1h-85l-61 221h-271l-92 -167q-14 -27 -41 -42t-54 -15q-40 0 -67.5 28.5t-23.5 66.5l78 11q0 -26 17 -26q13 0 21 14l344 598h34zM451 540l1 3zM521 298l-68 244l-136 -244h204zM394 -105q13 -9 13 -31q0 -24 -18 -43
q-19 -12 -37 -12q-26 0 -35 18q-13 10 -13 31q0 23 19 44q15 11 36 11q27 0 35 -18z" />
    <glyph glyph-name="Abreveacute" unicode="&#x1eae;" horiz-adv-x="817" 
d="M479 926l-28 52l188 135l42 -67zM571 913l82 -4q-10 -74 -53.5 -114t-112.5 -40q-65 0 -100 34.5t-35 91.5q0 15 3 32l81 -4q-2 -18 -2 -24q0 -55 56 -55q72 0 81 83zM690 -1h-85l-61 221h-271l-92 -167q-14 -27 -41 -42t-54 -15q-40 0 -67.5 28.5t-23.5 66.5l78 11
q0 -26 17 -26q13 0 21 14l344 598h34zM451 540l1 3zM521 298l-68 244l-136 -244h204z" />
    <glyph glyph-name="abreveacute" unicode="&#x1eaf;" 
d="M522 866l-202 -120l-28 52l188 135zM415 740l82 -4q-10 -74 -53.5 -114t-112.5 -40q-65 0 -100 34.5t-35 91.5q0 16 3 32l81 -4q-2 -18 -2 -24q0 -55 56 -55q72 0 81 83zM493 89l60 -47q-32 -52 -91 -52q-30 0 -53.5 17.5t-31.5 43.5q-57 -61 -149 -61t-140.5 60.5
t-48.5 152.5q0 28 4 51q16 115 92.5 188.5t187.5 73.5q56 0 119 -9h66l-59 -420v-4q0 -17 15 -17q18 0 29 23zM387 195l36 239q-9 1 -50 4.5t-57 3.5q-80 0 -131.5 -54.5t-63.5 -139.5q-3 -21 -3 -42q0 -62 29 -102t85 -40q88 0 134 77q16 21 21 54z" />
    <glyph glyph-name="Abrevegrave" unicode="&#x1eb0;" horiz-adv-x="817" 
d="M502 920l-172 120l57 67l154 -135zM355 913l81 -4q-2 -18 -2 -24q0 -55 56 -55q72 0 81 83l82 -4q-10 -74 -53.5 -114t-112.5 -40q-65 0 -100 34.5t-35 91.5q0 15 3 32zM690 -1h-85l-61 221h-271l-92 -167q-14 -27 -41 -42t-54 -15q-40 0 -67.5 28.5t-23.5 66.5l78 11
q0 -26 17 -26q13 0 21 14l344 598h34zM451 540l1 3zM521 298l-68 244l-136 -244h204z" />
    <glyph glyph-name="abrevegrave" unicode="&#x1eb1;" 
d="M381 793l-39 -52l-172 120l57 67zM415 740l82 -4q-10 -74 -53.5 -114t-112.5 -40q-65 0 -100 34.5t-35 91.5q0 16 3 32l81 -4q-2 -18 -2 -24q0 -55 56 -55q72 0 81 83zM493 89l60 -47q-32 -52 -91 -52q-30 0 -53.5 17.5t-31.5 43.5q-57 -61 -149 -61t-140.5 60.5
t-48.5 152.5q0 28 4 51q16 115 92.5 188.5t187.5 73.5q56 0 119 -9h66l-59 -420v-4q0 -17 15 -17q18 0 29 23zM387 195l36 239q-9 1 -50 4.5t-57 3.5q-80 0 -131.5 -54.5t-63.5 -139.5q-3 -21 -3 -42q0 -62 29 -102t85 -40q88 0 134 77q16 21 21 54z" />
    <glyph glyph-name="Abrevetilde" unicode="&#x1eb4;" horiz-adv-x="817" 
d="M642 1055l45 -60q-28 -20 -40.5 -28t-36 -15.5t-51.5 -7.5q-17 0 -47.5 8t-54.5 16t-26 8q-34 0 -80 -38l-44 60q67 53 125 53q36 0 77 -17t55 -17q30 0 78 38zM355 913l81 -4q-2 -18 -2 -24q0 -55 56 -55q72 0 81 83l82 -4q-10 -74 -53.5 -114t-112.5 -40
q-65 0 -100 34.5t-35 91.5q0 15 3 32zM690 -1h-85l-61 221h-271l-92 -167q-14 -27 -41 -42t-54 -15q-40 0 -67.5 28.5t-23.5 66.5l78 11q0 -26 17 -26q13 0 21 14l344 598h34zM451 540l1 3zM521 298l-68 244l-136 -244h204z" />
    <glyph glyph-name="abrevetilde" unicode="&#x1eb5;" 
d="M474 894l45 -60q-28 -20 -40.5 -28t-36 -15.5t-51.5 -7.5q-17 0 -47.5 8t-54.5 16t-26 8q-34 0 -80 -38l-44 60q67 53 125 53q36 0 77 -17t55 -17q30 0 78 38zM415 740l82 -4q-10 -74 -53.5 -114t-112.5 -40q-65 0 -100 34.5t-35 91.5q0 16 3 32l81 -4q-2 -18 -2 -24
q0 -55 56 -55q72 0 81 83zM493 89l60 -47q-32 -52 -91 -52q-30 0 -53.5 17.5t-31.5 43.5q-57 -61 -149 -61t-140.5 60.5t-48.5 152.5q0 28 4 51q16 115 92.5 188.5t187.5 73.5q56 0 119 -9h66l-59 -420v-4q0 -17 15 -17q18 0 29 23zM387 195l36 239q-9 1 -50 4.5t-57 3.5
q-80 0 -131.5 -54.5t-63.5 -139.5q-3 -21 -3 -42q0 -62 29 -102t85 -40q88 0 134 77q16 21 21 54z" />
    <glyph glyph-name="Abrevedotbelow" unicode="&#x1eb6;" horiz-adv-x="817" 
d="M571 913l82 -4q-10 -74 -53.5 -114t-112.5 -40q-65 0 -100 34.5t-35 91.5q0 15 3 32l81 -4q-2 -18 -2 -24q0 -55 56 -55q72 0 81 83zM690 -1h-85l-61 221h-271l-92 -167q-14 -27 -41 -42t-54 -15q-40 0 -67.5 28.5t-23.5 66.5l78 11q0 -26 17 -26q13 0 21 14l344 598h34z
M451 540l1 3zM521 298l-68 244l-136 -244h204zM394 -105q13 -9 13 -31q0 -24 -18 -43q-19 -12 -37 -12q-26 0 -35 18q-13 10 -13 31q0 23 19 44q15 11 36 11q27 0 35 -18z" />
    <glyph glyph-name="Edotbelow" unicode="&#x1eb8;" horiz-adv-x="659" 
d="M637 609h-375l-29 -208h259l-11 -79h-259l-34 -244h375l-11 -79h-458l87 609q-15 0 -25 -13q-14 -7 -17 -26q0 -1 -0.5 -4.5t-0.5 -5.5l-76 4q1 2 1 6q0 45 41 86q42 31 83 31h461zM311 -87q27 0 35 -18q13 -9 13 -31q0 -24 -18 -43q-19 -12 -37 -12q-26 0 -35 18
q-13 10 -13 31q0 23 19 44q15 11 36 11z" />
    <glyph glyph-name="edotbelow" unicode="&#x1eb9;" horiz-adv-x="536" 
d="M332 724q21 0 35.5 -15t14.5 -35q0 -21 -18 -38t-39 -17q-20 0 -34 14.5t-14 34.5q0 22 17.5 39t37.5 17zM409 115l33 -62q-96 -63 -203 -63q-100 0 -150.5 55t-50.5 145q0 24 3 48q7 50 26.5 97t50.5 88.5t78.5 67t104.5 25.5q71 0 119 -39t48 -103q0 -86 -68.5 -133.5
t-178.5 -47.5l-103 -2q3 -127 124 -127q67 0 167 51zM124 265l103 2q75 0 119.5 26t44.5 81q0 34 -25.5 52.5t-63.5 18.5q-70 0 -117 -56.5t-61 -123.5z" />
    <glyph glyph-name="Etilde" unicode="&#x1ebc;" horiz-adv-x="659" 
d="M580 884l45 -60q-28 -20 -40.5 -28t-36 -15.5t-51.5 -7.5q-17 0 -47.5 8t-54.5 16t-26 8q-34 0 -80 -38l-44 60q67 53 125 53q36 0 77 -17t55 -17q30 0 78 38zM637 609h-375l-29 -208h259l-11 -79h-259l-34 -244h375l-11 -79h-458l87 609q-15 0 -25 -13q-14 -7 -17 -26
q0 -1 -0.5 -4.5t-0.5 -5.5l-76 4q1 2 1 6q0 45 41 86q42 31 83 31h461z" />
    <glyph glyph-name="etilde" unicode="&#x1ebd;" horiz-adv-x="536" 
d="M467 713l45 -60q-28 -20 -40.5 -28t-36 -15.5t-51.5 -7.5q-17 0 -47.5 8t-54.5 16t-26 8q-34 0 -80 -38l-44 60q67 53 125 53q35 0 76 -17t56 -17q30 0 78 38zM409 115l33 -62q-96 -63 -203 -63q-100 0 -150.5 55t-50.5 145q0 24 3 48q7 50 26.5 97t50.5 88.5t78.5 67
t104.5 25.5q71 0 119 -39t48 -103q0 -86 -68.5 -133.5t-178.5 -47.5l-103 -2q3 -127 124 -127q67 0 167 51zM124 265l103 2q75 0 119.5 26t44.5 81q0 34 -25.5 52.5t-63.5 18.5q-70 0 -117 -56.5t-61 -123.5z" />
    <glyph glyph-name="Ecircumflexacute" unicode="&#x1ebe;" horiz-adv-x="704" 
d="M670 1060l-202 -120l-28 52l188 135zM620 776h-94l-60 81l-86 -81h-98l163 161h58zM637 609h-375l-29 -208h259l-11 -79h-259l-34 -244h375l-11 -79h-458l87 609q-15 0 -25 -13q-14 -7 -17 -26q0 -1 -0.5 -4.5t-0.5 -5.5l-76 4q1 2 1 6q0 45 41 86q42 31 83 31h461z" />
    <glyph glyph-name="ecircumflexacute" unicode="&#x1ebf;" horiz-adv-x="536" 
d="M514 903l-202 -120l-28 52l188 135zM481 594h-94l-60 81l-86 -81h-98l163 161h58zM409 115l33 -62q-96 -63 -203 -63q-100 0 -150.5 55t-50.5 145q0 24 3 48q7 50 26.5 97t50.5 88.5t78.5 67t104.5 25.5q71 0 119 -39t48 -103q0 -86 -68.5 -133.5t-178.5 -47.5l-103 -2
q3 -127 124 -127q67 0 167 51zM124 265l103 2q75 0 119.5 26t44.5 81q0 34 -25.5 52.5t-63.5 18.5q-70 0 -117 -56.5t-61 -123.5z" />
    <glyph glyph-name="Ecircumflexgrave" unicode="&#x1ec0;" horiz-adv-x="704" 
d="M530 987l-39 -52l-172 120l57 67zM594 765h-94l-60 81l-86 -81h-98l163 161h58zM637 609h-375l-29 -208h259l-11 -79h-259l-34 -244h375l-11 -79h-458l87 609q-15 0 -25 -13q-14 -7 -17 -26q0 -1 -0.5 -4.5t-0.5 -5.5l-76 4q1 2 1 6q0 45 41 86q42 31 83 31h461z" />
    <glyph glyph-name="ecircumflexgrave" unicode="&#x1ec1;" horiz-adv-x="536" 
d="M375 834l-39 -52l-172 120l57 67zM481 594h-94l-60 81l-86 -81h-98l163 161h58zM409 115l33 -62q-96 -63 -203 -63q-100 0 -150.5 55t-50.5 145q0 24 3 48q7 50 26.5 97t50.5 88.5t78.5 67t104.5 25.5q71 0 119 -39t48 -103q0 -86 -68.5 -133.5t-178.5 -47.5l-103 -2
q3 -127 124 -127q67 0 167 51zM124 265l103 2q75 0 119.5 26t44.5 81q0 34 -25.5 52.5t-63.5 18.5q-70 0 -117 -56.5t-61 -123.5z" />
    <glyph glyph-name="Ecircumflextilde" unicode="&#x1ec4;" horiz-adv-x="704" 
d="M631 1071l45 -60q-28 -20 -40.5 -28t-36 -15.5t-51.5 -7.5q-17 0 -47.5 8t-54.5 16t-26 8q-34 0 -80 -38l-44 60q67 53 125 53q35 0 76 -17t56 -17q30 0 78 38zM594 765h-94l-60 81l-86 -81h-98l163 161h58zM637 609h-375l-29 -208h259l-11 -79h-259l-34 -244h375
l-11 -79h-458l87 609q-15 0 -25 -13q-14 -7 -17 -26q0 -1 -0.5 -4.5t-0.5 -5.5l-76 4q1 2 1 6q0 45 41 86q42 31 83 31h461z" />
    <glyph glyph-name="ecircumflextilde" unicode="&#x1ec5;" horiz-adv-x="536" 
d="M473 898l45 -60q-28 -20 -40.5 -28t-36 -15.5t-51.5 -7.5q-17 0 -47.5 8t-54.5 16t-26 8q-34 0 -80 -38l-44 60q67 53 125 53q35 0 76 -17t56 -17q30 0 78 38zM481 594h-94l-60 81l-86 -81h-98l163 161h58zM409 115l33 -62q-96 -63 -203 -63q-100 0 -150.5 55t-50.5 145
q0 24 3 48q7 50 26.5 97t50.5 88.5t78.5 67t104.5 25.5q71 0 119 -39t48 -103q0 -86 -68.5 -133.5t-178.5 -47.5l-103 -2q3 -127 124 -127q67 0 167 51zM124 265l103 2q75 0 119.5 26t44.5 81q0 34 -25.5 52.5t-63.5 18.5q-70 0 -117 -56.5t-61 -123.5z" />
    <glyph glyph-name="Ecircumflexdotbelow" unicode="&#x1ec6;" horiz-adv-x="659" 
d="M594 765h-94l-60 81l-86 -81h-98l163 161h58zM637 609h-375l-29 -208h259l-11 -79h-259l-34 -244h375l-11 -79h-458l87 609q-15 0 -25 -13q-14 -7 -17 -26q0 -1 -0.5 -4.5t-0.5 -5.5l-76 4q1 2 1 6q0 45 41 86q42 31 83 31h461zM311 -87q27 0 35 -18q13 -9 13 -31
q0 -24 -18 -43q-19 -12 -37 -12q-26 0 -35 18q-13 10 -13 31q0 23 19 44q15 11 36 11z" />
    <glyph glyph-name="Idotbelow" unicode="&#x1eca;" horiz-adv-x="228" 
d="M103 -1h-82l96 687h82zM44 -88q27 0 35 -18q13 -9 13 -31q0 -23 -18 -43q-19 -12 -37 -12q-26 0 -35 18q-13 10 -13 31q0 23 19 44q15 11 36 11z" />
    <glyph glyph-name="idotbelow" unicode="&#x1ecb;" horiz-adv-x="260" 
d="M150 716q21 0 35.5 -15t14.5 -35q0 -21 -18 -38t-39 -17q-20 0 -34 14.5t-14 34.5q0 22 17.5 39t37.5 17zM99 87v-4q0 -7 4.5 -12t10.5 -5q20 0 28 23l62 -47q-36 -52 -93 -52q-38 0 -63.5 25.5t-25.5 61.5q0 9 1 14l58 417h77zM34 -87q27 0 35 -18q13 -9 13 -31
q0 -24 -18 -43q-19 -12 -37 -12q-26 0 -35 18q-13 10 -13 31q0 23 19 44q15 11 36 11z" />
    <glyph glyph-name="Odotbelow" unicode="&#x1ecc;" horiz-adv-x="815" 
d="M54 333l2 19q21 144 136.5 250t259.5 106q132 0 220 -91t88 -221q0 -24 -3 -48l-3 -19q-20 -147 -135 -251.5t-258 -104.5q-133 0 -221.5 90.5t-88.5 221.5q0 24 3 48zM678 333l2 19q3 21 3 42q0 102 -67 169.5t-167 67.5q-114 0 -206.5 -85t-108.5 -198l-3 -19
q-3 -21 -3 -41q0 -102 66.5 -170t166.5 -68q114 0 207 84t110 199zM339 -113q27 0 35 -18q13 -9 13 -31q0 -24 -18 -43q-19 -12 -37 -12q-26 0 -35 18q-13 10 -13 31q0 23 19 44q15 11 36 11z" />
    <glyph glyph-name="odotbelow" unicode="&#x1ecd;" horiz-adv-x="620" 
d="M328 516q101 0 162 -63t61 -162q0 -21 -3 -43q-16 -113 -97 -185.5t-190 -72.5q-101 0 -161 62t-60 160q0 20 3 43q15 111 95 186t190 75zM326 442q-84 0 -138.5 -55t-66.5 -139q-3 -20 -3 -36q0 -68 39 -108t108 -40q83 0 138 55t67 141q3 20 3 36q0 68 -39 107t-108 39
zM242 -85q27 0 35 -18q13 -9 13 -31q0 -24 -18 -43q-19 -12 -37 -12q-26 0 -35 18q-13 10 -13 31q0 23 19 44q15 11 36 11z" />
    <glyph glyph-name="Ocircumflexacute" unicode="&#x1ed0;" horiz-adv-x="824" 
d="M673 1065l-202 -120l-28 52l188 135zM631 765h-94l-60 81l-86 -81h-98l163 161h58zM54 333l2 19q21 144 136.5 250t259.5 106q132 0 220 -91t88 -221q0 -24 -3 -48l-3 -19q-20 -147 -135 -251.5t-258 -104.5q-133 0 -221.5 90.5t-88.5 221.5q0 24 3 48zM678 333l2 19
q3 21 3 42q0 102 -67 169.5t-167 67.5q-114 0 -206.5 -85t-108.5 -198l-3 -19q-3 -21 -3 -41q0 -102 66.5 -170t166.5 -68q114 0 207 84t110 199z" />
    <glyph glyph-name="ocircumflexacute" unicode="&#x1ed1;" horiz-adv-x="621" 
d="M545 900l-202 -120l-28 52l188 135zM511 594h-94l-60 81l-86 -81h-98l163 161h58zM328 516q101 0 162 -63t61 -162q0 -21 -3 -43q-16 -113 -97 -185.5t-190 -72.5q-101 0 -161 62t-60 160q0 20 3 43q15 111 95 186t190 75zM326 442q-84 0 -138.5 -55t-66.5 -139
q-3 -20 -3 -36q0 -68 39 -108t108 -40q83 0 138 55t67 141q3 20 3 36q0 68 -39 107t-108 39z" />
    <glyph glyph-name="Ocircumflexgrave" unicode="&#x1ed2;" horiz-adv-x="824" 
d="M533 996l-39 -52l-172 120l57 67zM631 765h-94l-60 81l-86 -81h-98l163 161h58zM54 333l2 19q21 144 136.5 250t259.5 106q132 0 220 -91t88 -221q0 -24 -3 -48l-3 -19q-20 -147 -135 -251.5t-258 -104.5q-133 0 -221.5 90.5t-88.5 221.5q0 24 3 48zM678 333l2 19
q3 21 3 42q0 102 -67 169.5t-167 67.5q-114 0 -206.5 -85t-108.5 -198l-3 -19q-3 -21 -3 -41q0 -102 66.5 -170t166.5 -68q114 0 207 84t110 199z" />
    <glyph glyph-name="ocircumflexgrave" unicode="&#x1ed3;" horiz-adv-x="621" 
d="M406 831l-39 -52l-172 120l57 67zM511 594h-94l-60 81l-86 -81h-98l163 161h58zM328 516q101 0 162 -63t61 -162q0 -21 -3 -43q-16 -113 -97 -185.5t-190 -72.5q-101 0 -161 62t-60 160q0 20 3 43q15 111 95 186t190 75zM326 442q-84 0 -138.5 -55t-66.5 -139
q-3 -20 -3 -36q0 -68 39 -108t108 -40q83 0 138 55t67 141q3 20 3 36q0 68 -39 107t-108 39z" />
    <glyph glyph-name="Ocircumflextilde" unicode="&#x1ed6;" horiz-adv-x="824" 
d="M632 1062l45 -60q-28 -20 -40.5 -28t-36 -15.5t-51.5 -7.5q-17 0 -47.5 8t-54.5 16t-26 8q-34 0 -80 -38l-44 60q67 53 125 53q36 0 77 -17t55 -17q30 0 78 38zM631 765h-94l-60 81l-86 -81h-98l163 161h58zM54 333l2 19q21 144 136.5 250t259.5 106q132 0 220 -91
t88 -221q0 -24 -3 -48l-3 -19q-20 -147 -135 -251.5t-258 -104.5q-133 0 -221.5 90.5t-88.5 221.5q0 24 3 48zM678 333l2 19q3 21 3 42q0 102 -67 169.5t-167 67.5q-114 0 -206.5 -85t-108.5 -198l-3 -19q-3 -21 -3 -41q0 -102 66.5 -170t166.5 -68q114 0 207 84t110 199z
" />
    <glyph glyph-name="ocircumflextilde" unicode="&#x1ed7;" horiz-adv-x="621" 
d="M505 898l45 -60q-28 -20 -40.5 -28t-36 -15.5t-51.5 -7.5q-17 0 -47.5 8t-54.5 16t-26 8q-34 0 -80 -38l-44 60q67 53 125 53q35 0 76 -17t56 -17q30 0 78 38zM511 594h-94l-60 81l-86 -81h-98l163 161h58zM328 516q101 0 162 -63t61 -162q0 -21 -3 -43
q-16 -113 -97 -185.5t-190 -72.5q-101 0 -161 62t-60 160q0 20 3 43q15 111 95 186t190 75zM326 442q-84 0 -138.5 -55t-66.5 -139q-3 -20 -3 -36q0 -68 39 -108t108 -40q83 0 138 55t67 141q3 20 3 36q0 68 -39 107t-108 39z" />
    <glyph glyph-name="Ocircumflexdotbelow" unicode="&#x1ed8;" horiz-adv-x="815" 
d="M631 765h-94l-60 81l-86 -81h-98l163 161h58zM54 333l2 19q21 144 136.5 250t259.5 106q132 0 220 -91t88 -221q0 -24 -3 -48l-3 -19q-20 -147 -135 -251.5t-258 -104.5q-133 0 -221.5 90.5t-88.5 221.5q0 24 3 48zM678 333l2 19q3 21 3 42q0 102 -67 169.5t-167 67.5
q-114 0 -206.5 -85t-108.5 -198l-3 -19q-3 -21 -3 -41q0 -102 66.5 -170t166.5 -68q114 0 207 84t110 199zM339 -113q27 0 35 -18q13 -9 13 -31q0 -24 -18 -43q-19 -12 -37 -12q-26 0 -35 18q-13 10 -13 31q0 23 19 44q15 11 36 11z" />
    <glyph glyph-name="Udotbelow" unicode="&#x1ee4;" horiz-adv-x="760" 
d="M137 589l-65 51q15 24 44 39.5t56 15.5q44 0 70 -24t26 -65q0 -6 -2 -20l-44 -317q-3 -21 -3 -41q0 -73 40 -117t119 -44q95 0 152 61.5t69 144.5l58 414h83l-58 -418q-16 -112 -96 -195t-209 -83q-115 0 -178 67.5t-63 168.5q0 23 3 46l45 317v7q0 16 -14 16
q-24 0 -33 -24zM355 -96q27 0 35 -18q13 -9 13 -31q0 -23 -18 -43q-19 -12 -37 -12q-26 0 -35 18q-13 10 -13 31q0 23 19 44q15 11 36 11z" />
    <glyph glyph-name="udotbelow" unicode="&#x1ee5;" horiz-adv-x="635" 
d="M58 458l48 62q25 -21 36.5 -32t25.5 -35.5t14 -50.5q0 -11 -1 -16l-31 -218q-2 -20 -2 -28q0 -39 19.5 -57t61.5 -18q48 0 83.5 21.5t79.5 70.5l51 351h77l-60 -422v-4q0 -7 5 -12t11 -5q16 0 28 22l61 -48q-36 -50 -91 -50q-35 0 -59.5 20.5t-29.5 50.5
q-71 -68 -163 -68q-73 0 -112.5 34.5t-39.5 101.5q0 3 0.5 9t0.5 9l35 244q1 11 -5 23t-12.5 18.5t-18 16t-12.5 10.5zM209 -95q27 0 35 -18q13 -9 13 -31q0 -24 -18 -43q-19 -12 -37 -12q-26 0 -35 18q-13 10 -13 31q0 23 19 44q15 11 36 11z" />
    <glyph glyph-name="Ygrave" unicode="&#x1ef2;" horiz-adv-x="643" 
d="M463 776l-39 -52l-172 120l57 67zM147 583l-82 12q6 46 41 73.5t73 27.5q56 0 81 -55l104 -251l207 297h96l-271 -389l-42 -299h-87l45 297l-125 311q-5 8 -15 8q-9 0 -17.5 -6.5t-9.5 -15.5q0 -6 2 -10z" />
    <glyph glyph-name="ygrave" unicode="&#x1ef3;" horiz-adv-x="567" 
d="M341 545l-172 120l57 67l154 -135zM520 508l-52 -364l-35 -248q-11 -81 -60.5 -127t-115.5 -46t-102 41.5t-36 101.5q0 8 2 24q10 68 52 108q-49 9 -76 40.5t-27 80.5q0 8 2 28l34 243q2 16 -20 41t-28 24l48 65q25 -22 37.5 -34t25.5 -35.5t13 -48.5q0 -10 -1 -16
l-31 -218q-2 -20 -2 -28q0 -39 19.5 -57t60.5 -18q45 0 79 19t73 59l-1 -1q14 18 17 37l47 329h77zM358 -104l20 142q-19 -13 -47 -28l-52 -25q-39 -20 -58.5 -42.5t-24.5 -58.5q-1 -6 -1 -19q0 -67 63 -67q39 0 66.5 27t33.5 71z" />
    <glyph glyph-name="Ydotbelow" unicode="&#x1ef4;" horiz-adv-x="643" 
d="M147 583l-82 12q6 46 41 73.5t73 27.5q56 0 81 -55l104 -251l207 297h96l-271 -389l-42 -299h-87l45 297l-125 311q-5 8 -15 8q-9 0 -17.5 -6.5t-9.5 -15.5q0 -6 2 -10zM291 -86q27 0 35 -18q13 -9 13 -31q0 -23 -18 -43q-19 -12 -37 -12q-26 0 -35 18q-13 10 -13 31
q0 23 19 44q15 11 36 11z" />
    <glyph glyph-name="ydotbelow" unicode="&#x1ef5;" horiz-adv-x="567" 
d="M468 144l-29 -203q11 3 20 3q27 0 35 -18q13 -9 13 -31q0 -23 -18 -43q-19 -12 -37 -12q-19 0 -29 10q-21 -60 -66 -93.5t-100 -33.5q-66 0 -102 41.5t-36 101.5q0 8 2 24q10 68 52 108q-49 9 -76 40.5t-27 80.5q0 8 2 28l34 243q2 16 -20 41t-28 24l48 65
q25 -22 37.5 -34t25.5 -35.5t13 -48.5q0 -10 -1 -16l-31 -218q-2 -20 -2 -28q0 -39 19.5 -57t60.5 -18q45 0 79 19t73 59l-1 -1q14 18 17 37l47 329h77zM358 -104l20 142q-19 -13 -47 -28l-52 -25q-39 -20 -58.5 -42.5t-24.5 -58.5q-1 -6 -1 -19q0 -67 63 -67q39 0 66.5 27
t33.5 71z" />
    <glyph glyph-name="Ytilde" unicode="&#x1ef8;" horiz-adv-x="643" 
d="M568 884l45 -60q-28 -20 -40.5 -28t-36 -15.5t-51.5 -7.5q-17 0 -47.5 8t-54.5 16t-26 8q-34 0 -80 -38l-44 60q67 53 125 53q36 0 77 -17t55 -17q30 0 78 38zM147 583l-82 12q6 46 41 73.5t73 27.5q56 0 81 -55l104 -251l207 297h96l-271 -389l-42 -299h-87l45 297
l-125 311q-5 8 -15 8q-9 0 -17.5 -6.5t-9.5 -15.5q0 -6 2 -10z" />
    <glyph glyph-name="ytilde" unicode="&#x1ef9;" horiz-adv-x="567" 
d="M485 705l45 -60q-28 -20 -40.5 -28t-36 -15.5t-51.5 -7.5q-17 0 -47.5 8t-54.5 16t-26 8q-34 0 -80 -38l-44 60q67 53 125 53q36 0 77 -17t55 -17q30 0 78 38zM443 508h77l-52 -364l-35 -248q-11 -81 -60.5 -127t-115.5 -46t-102 41.5t-36 101.5q0 8 2 24q10 68 52 108
q-49 9 -76 40.5t-27 80.5q0 8 2 28l34 243q2 16 -20 41t-28 24l48 65q25 -22 37.5 -34t25.5 -35.5t13 -48.5q0 -10 -1 -16l-31 -218q-2 -20 -2 -28q0 -39 19.5 -57t60.5 -18q45 0 79 19t73 59l-1 -1q14 18 17 37zM358 -104l20 142q-19 -13 -47 -28l-52 -25
q-39 -20 -58.5 -42.5t-24.5 -58.5q-1 -6 -1 -19q0 -67 63 -67q39 0 66.5 27t33.5 71z" />
    <glyph glyph-name="endash" unicode="&#x2013;" horiz-adv-x="557" 
d="M486 268h-438l11 79h438z" />
    <glyph glyph-name="emdash" unicode="&#x2014;" horiz-adv-x="712" 
d="M641 268h-593l11 79h593z" />
    <glyph glyph-name="quoteleft" unicode="&#x2018;" horiz-adv-x="234" 
d="M185 711l47 -49q-52 -38 -62 -116l-2 -10q-1 -16 -14 -32q-17 -10 -31 -10q-21 0 -30 17q-13 11 -10 29l1 10q6 40 26 87q29 47 75 74z" />
    <glyph glyph-name="quoteright" unicode="&#x2019;" horiz-adv-x="234" 
d="M133 646l1 9q1 16 14 32q17 10 31 10q21 0 30 -17q13 -9 9 -29l-1 -9q-6 -46 -26 -88q-27 -46 -74 -74l-47 49q51 38 63 117z" />
    <glyph glyph-name="quotesinglbase" unicode="&#x201a;" horiz-adv-x="234" 
d="M49 54l2 10q2 17 14 31q17 10 31 10q21 0 30 -16q13 -8 9 -29l-1 -10q-7 -47 -26 -88q-29 -48 -74 -73l-47 49q52 37 62 116z" />
    <glyph glyph-name="quotedblleft" unicode="&#x201c;" horiz-adv-x="361" 
d="M187 711l47 -49q-53 -39 -63 -116l-2 -10q-2 -17 -13 -32q-17 -10 -31 -10q-21 0 -30 17q-13 11 -10 29l1 10q6 40 26 87q26 45 75 74zM308 711l47 -49q-52 -38 -62 -116l-2 -10q-1 -16 -14 -32q-17 -10 -31 -10q-22 0 -30 17q-13 11 -10 29l1 10q6 42 27 87q27 46 74 74
z" />
    <glyph glyph-name="quotedblright" unicode="&#x201d;" horiz-adv-x="361" 
d="M137 646l1 9q2 18 15 33q12 9 30 9q21 0 30 -16q13 -10 9 -30l-1 -9q-6 -46 -26 -88q-26 -45 -75 -74l-46 49q51 38 63 117zM258 646l1 9q1 16 14 32q17 10 31 10q22 0 30 -17q13 -10 10 -29l-1 -9q-6 -43 -27 -88q-27 -46 -74 -74l-47 49q51 38 63 117z" />
    <glyph glyph-name="quotedblbase" unicode="&#x201e;" horiz-adv-x="361" 
d="M53 54l2 10q2 18 14 32q13 9 31 9q23 0 28 -16q15 -8 11 -29l-1 -10q-7 -47 -26 -88q-28 -47 -75 -73l-46 49q52 37 62 116zM174 54l2 10q2 17 14 31q17 10 31 10q21 0 30 -16q14 -9 10 -29l-1 -10q-6 -43 -27 -88q-29 -48 -74 -73l-47 49q52 37 62 116z" />
    <glyph glyph-name="dagger" unicode="&#x2020;" horiz-adv-x="518" 
d="M321 506h168l-11 -81h-168l-71 -500h-81l71 500h-169l11 81h169l26 188h81z" />
    <glyph glyph-name="daggerdbl" unicode="&#x2021;" horiz-adv-x="518" 
d="M321 506h168l-11 -81h-168l-33 -233h168l-11 -79h-168l-27 -188h-81l27 188h-169l11 79h169l33 233h-169l11 81h169l26 188h81z" />
    <glyph glyph-name="bullet" unicode="&#x2022;" horiz-adv-x="303" 
d="M156 410q36 0 61 -25t25 -61q0 -41 -32 -72t-72 -31q-36 0 -61 25t-25 60q0 40 32 72t72 32z" />
    <glyph glyph-name="ellipsis" unicode="&#x2026;" horiz-adv-x="544" 
d="M57 112q21 0 35.5 -15t14.5 -35q0 -21 -18 -38t-39 -17q-20 0 -34 14.5t-14 34.5q0 22 17 39t38 17zM212 112q21 0 35.5 -15t14.5 -35q0 -21 -18 -38t-39 -17q-20 0 -34 14.5t-14 34.5q0 22 17.5 39t37.5 17zM367 112q21 0 35.5 -15t14.5 -35q0 -21 -18 -38t-39 -17
q-20 0 -34 14.5t-14 34.5q0 22 17 39t38 17z" />
    <glyph glyph-name="perthousand" unicode="&#x2030;" horiz-adv-x="1063" 
d="M223 10h-85l294 509h83zM170 517q56 0 90 -33.5t34 -88.5q0 -78 -49 -119.5t-110 -41.5q-56 0 -90 33.5t-34 88.5q0 8 2 24q10 67 56 102t101 35zM167 446q-35 0 -58 -26t-23 -64q0 -24 14 -38t39 -14q35 0 57.5 25.5t22.5 64.5q0 52 -52 52zM564 297q56 0 90 -33.5
t34 -88.5q0 -78 -49 -119.5t-110 -41.5q-56 0 -90 33.5t-34 88.5q0 8 2 24q10 67 56 102t101 35zM855 297q56 0 90 -33.5t34 -88.5q0 -78 -49 -119.5t-110 -41.5q-56 0 -90 33.5t-34 88.5q0 8 2 24q10 67 56 102t101 35zM561 226q-35 0 -58 -26t-23 -64q0 -24 14 -38t39 -14
q35 0 57.5 25.5t22.5 64.5q0 52 -52 52zM852 226q-35 0 -58 -26t-23 -64q0 -24 14 -38t39 -14q35 0 57.5 25.5t22.5 64.5q0 52 -52 52z" />
    <glyph glyph-name="guilsinglleft" unicode="&#x2039;" horiz-adv-x="398" 
d="M357 439l-234 -184l182 -185l-57 -57l-182 187q-34 34 -30 59q3 20 41 52l235 185z" />
    <glyph glyph-name="guilsinglright" unicode="&#x203a;" horiz-adv-x="398" 
d="M123 496l182 -187q14 -16 20 -30q9 -9 9 -22q0 -25 -41 -59l-234 -185l-46 57l235 185l-183 184z" />
    <glyph glyph-name="uni203D" unicode="&#x203d;" horiz-adv-x="479" 
d="M158 539l-37 -53q-23 7 -34.5 28t-11.5 46q0 65 74 113q62 32 128 32q91 0 140 -59q45 -45 45 -118q0 -22 -2 -34q-12 -88 -81 -146q-23 -18 -69 -44t-54 -31q-38 -20 -52 -37t-18 -46q-1 -5 -1 -14q0 -5 1 -15.5t0 -14.5l-72 -12q-3 8 -3 21q0 18 4 42l35 299h85
l-26 -166q52 25 103 64q78 49 78 130q0 42 -26 72q-35 34 -90 34q-42 0 -79 -21q-42 -18 -45 -41q0 -1 -0.5 -3t-0.5 -3q0 -4 5 -9zM131 116q21 0 35.5 -15t14.5 -35q0 -21 -18 -38t-39 -17q-20 0 -34 14.5t-14 34.5q0 22 17 39t38 17z" />
    <glyph glyph-name="fraction" unicode="&#x2044;" horiz-adv-x="240" 
d="M17 -1h-85l294 509h83z" />
    <glyph glyph-name="uni20A8" unicode="&#x20a8;" horiz-adv-x="705" 
d="M711 610h-156l-11 9q23 -29 28 -71q5 -28 5 -40l132 2l-12 -79l-132 -2q-19 -54 -53 -92q-46 -43 -113 -55q6 -8 9 -11l21 -28l1 -1l102 -167q4 -7 12 -7q11 0 16 7q12 4 15 28l77 -3q0 -10 -1 -17q-5 -36 -37 -64.5t-71 -28.5q-51 0 -77 44l-102 159q-15 28 -40 54
q-25 17 -80 21l8 77h94q58 0 98 37q23 18 38 49h-292l12 81h295q-3 28 -19 59q-29 35 -80 39h-171q-10 0 -18.5 -8t-9.5 -18v-6q0 -8 15 -15l-49 -63q-43 29 -43 78q0 44 32.5 75.5t75.5 32.5h491z" />
    <glyph glyph-name="Euro" unicode="&#x20ac;" horiz-adv-x="612" 
d="M85 410l65 2q12 50 35 100q52 98 149 138q54 17 120 17q36 0 113 -20l-7 -77q-54 20 -115 20q-50 0 -81 -15q-72 -23 -105 -99q-15 -25 -28 -66h241l-23 -74h-232l-5 -33h227l-21 -76h-208q3 -74 36 -118q43 -43 117 -43q44 0 76.5 12t76.5 39l32 -65q-83 -62 -188 -62
q-121 0 -178 72q-53 57 -55 169l-83 -2l26 74h60l5 33h-76z" />
    <glyph glyph-name="trademark" unicode="&#x2122;" horiz-adv-x="630" 
d="M308 570h-80l-35 -250h-63l35 250h-82l8 57h225zM570 319h-62l25 174l-81 -164h-57l-32 160l-25 -170h-62l43 308h75l41 -202l102 202h76z" />
    <glyph glyph-name="Ohm" unicode="&#x2126;" horiz-adv-x="596" 
d="M135 64l-13 35q-10 24 -16 55q-15 39 -23 103q-6 30 -6 63q0 26 3 54q11 74 28 129q15 52 45 95q31 36 75 57q50 18 111 18q66 0 104 -22q46 -19 63 -61q24 -38 24 -114q0 -40 -10 -110q-6 -47 -24 -94q-14 -42 -36 -88q-16 -25 -46 -77q-6 -8 -17 -23t-16 -22l117 2
l-10 -73h-211l6 55l49 74q26 38 44 78q22 38 39 81q15 39 21 82q9 66 9 119q0 35 -7 60q-12 25 -33 39q-24 12 -69 12q-51 0 -76 -16q-30 -11 -48 -43q-19 -26 -31 -73q-8 -31 -20 -106q-3 -25 -3 -52q0 -24 3 -51q4 -18 11.5 -52t10.5 -48q9 -20 17 -53q11 -21 24 -53
l-6 -53h-211l10 73h118z" />
    <glyph glyph-name="oneeighth" unicode="&#x215b;" horiz-adv-x="807" 
d="M228 509l-43 -308h-70l31 204q-20 -6 -38 -6q-9 0 -17 2l-15 77q17 -12 30 -12q5 0 10.5 1.5t10 3.5t13 6.5t14 7.5t18 11t20.5 13h36zM260 -1h-85l294 509h83zM623 320q36 0 62.5 -23.5t26.5 -56.5q0 -34 -30 -62q26 -24 26 -61q0 -48 -36 -78.5t-84 -30.5
q-43 0 -72 25.5t-29 64.5q0 47 45 87q-14 19 -14 42q0 38 33 65.5t72 27.5zM641 236v2q0 14 -20 14q-12 0 -21.5 -7.5t-10.5 -16.5q0 -1 -1 -2v-2q0 -2 13 -7l21 -4q17 10 19 23zM589 149l3 -2q-1 -1 -5 -4t-5.5 -4.5t-5 -4.5t-5 -5t-4.5 -5t-4 -5.5t-2.5 -5.5t-2 -6.5
t-0.5 -7.5q0 -23 31 -23q22 0 35 11t13 30q0 12 -10.5 18.5t-37.5 13.5z" />
    <glyph glyph-name="threeeighths" unicode="&#x215c;" horiz-adv-x="897" 
d="M125 487l-1 1q39 24 76 24t65 -22t28 -55q0 -31 -30 -64q25 -23 25 -65q0 -48 -38.5 -77t-84.5 -29q-42 0 -71.5 20t-43.5 41l49 51q21 -27 32 -35t31 -8q24 0 39.5 10.5t15.5 28.5q0 25 -35 27h-67l10 68h64q9 0 19.5 9.5t11.5 19.5q0 11 -22 11q-24 0 -66 -32l-29 60z
M350 -1h-85l294 509h83zM713 320q36 0 62.5 -23.5t26.5 -56.5q0 -34 -30 -62q26 -24 26 -61q0 -48 -36 -78.5t-84 -30.5q-43 0 -72 25.5t-29 64.5q0 47 45 87q-14 19 -14 42q0 38 33 65.5t72 27.5zM731 236v2q0 14 -20 14q-12 0 -21.5 -7.5t-10.5 -16.5q0 -1 -1 -2v-2
q0 -2 13 -7l21 -4q17 10 19 23zM679 149l3 -2q-1 -1 -5 -4t-5.5 -4.5t-5 -4.5t-5 -5t-4.5 -5t-4 -5.5t-2.5 -5.5t-2 -6.5t-0.5 -7.5q0 -23 31 -23q22 0 35 11t13 30q0 12 -10.5 18.5t-37.5 13.5z" />
    <glyph glyph-name="fiveeighths" unicode="&#x215d;" horiz-adv-x="877" 
d="M264 442l-106 -2l-2 -13h9q45 0 75.5 -26.5t30.5 -67.5q0 -51 -37.5 -88t-84.5 -37q-35 0 -64 17.5t-31 30.5l-1 4l21 58q6 -4 14 -10.5t11.5 -9.5t9.5 -7.5t8.5 -6t7 -3.5t7.5 -3t7 -1.5t8 -0.5q24 0 40 16t16 40q0 27 -49 27q-38 0 -57 -14l-19 22l19 141l177 3z
M330 -1h-85l294 509h83zM693 320q36 0 62.5 -23.5t26.5 -56.5q0 -34 -30 -62q26 -24 26 -61q0 -48 -36 -78.5t-84 -30.5q-43 0 -72 25.5t-29 64.5q0 47 45 87q-14 19 -14 42q0 38 33 65.5t72 27.5zM711 236v2q0 14 -20 14q-12 0 -21.5 -7.5t-10.5 -16.5q0 -1 -1 -2v-2
q0 -2 13 -7l21 -4q17 10 19 23zM659 149l3 -2q-1 -1 -5 -4t-5.5 -4.5t-5 -4.5t-5 -5t-4.5 -5t-4 -5.5t-2.5 -5.5t-2 -6.5t-0.5 -7.5q0 -23 31 -23q22 0 35 11t13 30q0 12 -10.5 18.5t-37.5 13.5z" />
    <glyph glyph-name="partialdiff" unicode="&#x2202;" horiz-adv-x="577" 
d="M175 566v80q79 27 155 27q57 0 95 -20q43 -15 67 -59q26 -37 32 -102q2 -13 2 -43q0 -42 -8 -108q-24 -170 -103 -263q-81 -87 -195 -87q-104 0 -151 59q-38 41 -38 113q0 19 3 39q8 50 28 92q47 80 130 111q47 14 92 14q91 0 159 -56l-5 8q5 52 5 84q0 52 -15 91
q-16 25 -37 38q-27 10 -64 10q-76 0 -152 -28zM285 343q-68 0 -112.5 -40t-54.5 -109q-2 -11 -2 -32q0 -40 19 -63q30 -30 90 -30q39 0 68 18q64 30 99 116q19 38 32 84q-9 6 -20 17q-58 39 -119 39z" />
    <glyph glyph-name="increment" unicode="&#x2206;" horiz-adv-x="569" 
d="M470 59l-4 -60h-458l5 60l250 611h127zM314 592l-209 -515h279l-65 515h-5z" />
    <glyph glyph-name="product" unicode="&#x220f;" horiz-adv-x="602" 
d="M578 581h-67l-95 -676h-82l95 676h-191l-95 -676h-82l95 676h-67l11 82h489z" />
    <glyph glyph-name="summation" unicode="&#x2211;" horiz-adv-x="528" 
d="M509 581h-328l-4 -8l155 -288l-234 -291l-2 -7h329l-11 -82h-417l13 103l220 277l-141 274l14 102h417z" />
    <glyph glyph-name="minus" unicode="&#x2212;" horiz-adv-x="474" 
d="M401 257h-355l11 78h355z" />
    <glyph glyph-name="divisionslash" unicode="&#x2215;" horiz-adv-x="441" 
d="M81 -45h-93l358 692h93z" />
    <glyph glyph-name="radical" unicode="&#x221a;" horiz-adv-x="617" 
d="M324 -93h-132l-55 385l-81 -26l-13 74l163 50l56 -405h7l278 848h85z" />
    </font>
</defs>
</svg>
