<?xml version="1.0" standalone="no"?>
<!DOCTYPE svg PUBLIC "-//W3C//DTD SVG 1.1//EN" "http://www.w3.org/Graphics/SVG/1.1/DTD/svg11.dtd" >
<svg xmlns="http://www.w3.org/2000/svg" xmlns:xlink="http://www.w3.org/1999/xlink" version="1.1">
<metadata>
Created by FontForge 20170731 at Thu Jun 11 10:30:11 2015
 By Aleksey,,,
briNicolemonkeyroodlesfonts
</metadata>
<defs>
<font id="frozenberries" horiz-adv-x="300" >
  <font-face 
    font-family="frozenberries"
    font-weight="500"
    font-stretch="normal"
    units-per-em="1000"
    panose-1="2 0 6 3 0 0 0 0 0 0"
    ascent="800"
    descent="-200"
    x-height="500"
    cap-height="751"
    bbox="-146.515 -294.067 882.643 834.5"
    underline-thickness="50"
    underline-position="-200"
    unicode-range="U+0020-3000"
  />
<missing-glyph horiz-adv-x="364" 
d="M66 33h199v600h-199v-600zM33 0v666h265v-666h-265z" />
    <glyph glyph-name=".notdef" horiz-adv-x="364" 
d="M66 33h199v600h-199v-600zM33 0v666h265v-666h-265z" />
    <glyph glyph-name=".null" horiz-adv-x="0" 
 />
    <glyph glyph-name="nonmarkingreturn" horiz-adv-x="333" 
 />
    <glyph glyph-name="space" unicode=" " 
 />
    <glyph glyph-name="exclam" unicode="!" horiz-adv-x="212" 
d="M198 721q-29 -188 -28 -338q0 -120 25 -209q9 -22 7.5 -32.5t-22.5 -16.5q-5 -2 -12 -3.5t-17.5 -2.5t-17.5 2t-7 10q-7 112 -4 343q0 17 2 72t1 91.5t-5 69.5q-3 21 3 29t26 9q9 0 19.5 -1t20.5 -7t9 -16zM185 -5q-15 -3 -29 6q-20 13 -27 36q-6 16 9 27q-2 12 1 18
q4 11 26 14q7 3 30.5 0.5t22.5 -15.5q0 -5 -1 -13v-1q17 -12 2 -39q-4 -8 -10 -15l-1 -3q-2 -3 -4 -5l-4 -4q-5 -3 -10 -5q-3 -1 -5 -1z" />
    <glyph glyph-name="quotedbl" unicode="&#x22;" horiz-adv-x="291" 
d="M121 700q-22 -74 -13 -142q5 -37 18 -95q7 -22 3.5 -32.5t-26.5 -13.5q-7 -3 -30.5 0t-22.5 16q11 101 5 157q-1 2 -5 42t-8 63q-3 20 5 28t28 7q17 -1 33.5 -8.5t12.5 -21.5zM271 728q-2 -15 -6 -54t-5 -62t0 -45q3 -40 24 -58q13 -12 17.5 -17t3.5 -13.5t-13 -19.5
q-4 -4 -9.5 -8.5t-15 -10.5t-16 -6t-10.5 6q-14 29 -21 62t-8 48t-2 56q-2 69 -14 97q-8 19 -2.5 28.5t25.5 13.5q9 4 31 0.5t21 -17.5z" />
    <glyph glyph-name="numbersign" unicode="#" horiz-adv-x="745" 
d="M119 -2q7 13 13 20q2 2 5 4q-4 2 -8 5q-14 8 -7 25.5t30 20.5v0q8 61 10 146q-97 -16 -168 -48q-19 -9 -28.5 -6.5t-17.5 20.5q-3 8 -5.5 18.5t0 22.5t12.5 13q105 18 208 29q0 50 -2 107v6q-41 -11 -73 -24q-19 -8 -28.5 -4t-15.5 23q-5 9 -4 30.5t16 22.5q41 4 103 12
q0 22 -1 47q0 69 -1.5 121t-4.5 91q-2 22 5 29.5t27 6.5q9 0 19 -2t19.5 -8.5t8.5 -16.5q-16 -100 -19 -261l24 4q100 13 141 18q-5 126 -16 192q-3 21 2.5 29.5t25.5 10.5q8 1 18.5 0t21 -6.5t9.5 -15.5q-5 -74 -7 -204q13 1 27 2q36 2 82 3.5t69 3.5q15 1 25 0.5t14 -6.5
t5 -22q0 -6 -0.5 -13t-2 -17t-6.5 -16t-12 -5q-107 16 -202 15v-135q53 1 142 -2q100 -2 143 -1q16 1 25.5 0.5t14 -6.5t5.5 -22q0 -5 -0.5 -12t-2 -17.5t-6.5 -16.5t-12 -5q-169 26 -309 31q1 -52 -3 -140q-4 -98 -4 -135v-10v-9t-0.5 -6.5t-1.5 -6t-2 -4.5t-3.5 -3.5
t-5.5 -2t-7 -2t-10 -0.5q-8 0 -18 1.5t-21.5 7t-10.5 14.5q28 152 35 296q-45 0 -87 -2q-41 -2 -78 -7q6 -181 3 -233q-1 -25 -7 -33t-28 -4q-9 2 -19 4l-8 4q-13 4 -26 12q-16 9 -9 22zM211 394q0 -57 1 -121q85 8 168 12q1 39 0 78q-1 29 -1 56q-37 -2 -71 -7
q-52 -8 -97 -18z" />
    <glyph glyph-name="dollar" unicode="$" horiz-adv-x="504" 
d="M370 518q30 13 49 32.5t12 33.5q-13 24 -46 41q-26 13 -52 14q-1 -7 -1 -15q-2 -47 -2 -68.5t-1.5 -63t-1.5 -68.5v-40l4 -2q50 -22 81 -37q50 -23 81.5 -68.5t23.5 -94.5q-9 -54 -49 -93t-93 -58q-20 -7 -40 -10q2 -83 2 -187v-11v-10t-0.5 -7.5t-2 -6.5t-3 -4t-5 -4
t-8 -1.5t-10.5 -0.5q-5 -1 -12 0t-17 2.5t-16 6.5t-6 12q12 90 17 205q-42 1 -83 14q-50 16 -87.5 57t-51.5 97q-8 27 -4 38.5t27 14.5q7 3 30.5 0.5t22.5 -15.5q-2 -29 10.5 -64t44.5 -56q34 -23 93 -23q3 119 0 262q-33 15 -70 34q-60 30 -98 60q-19 17 -18 47t16 64.5
t37 61.5q26 30 61 53q35 22 70 29q-3 58 -10 103q-3 22 1 30t24 11q16 3 33.5 0t17.5 -18q-1 -11 -3 -63q-2 -43 -2 -61q21 -2 43 -7q50 -14 85 -45q22 -19 31.5 -49t0.5 -57q-5 -16 -20 -32.5t-24.5 -23t-30.5 -21.5q-17 -12 -27 -11t-20 18q-5 8 -9 17.5t-3.5 21t9.5 16.5
zM276 631q-38 -11 -75 -37q-57 -42 -63 -88q-2 -13 11 -27t43.5 -31t59.5 -30l22 -11q-1 63 1 115q2 51 1 109zM334 81q49 8 82 33q24 17 42 49.5t9 49.5q-18 33 -63 63q-38 24 -77 42q1 -14 1 -26l2 -66q3 -59 4 -145z" />
    <glyph glyph-name="percent" unicode="%" horiz-adv-x="804" 
d="M671 627q-51 -72 -139 -220.5t-116 -191.5q-38 -60 -57 -92t-43.5 -83.5t-36.5 -96.5q-2 -5 -3.5 -12t-2 -10t-2 -7.5t-3.5 -5.5t-5.5 -3.5t-8 -1t-11.5 1.5l-12.5 2.5t-17 5t-14.5 9.5t-2 12q29 66 70 135t96 153t82 130q81 135 152 303q8 19 17 23t27 -5q15 -8 27 -21
t3 -25zM379 620q3 -3 4 -6q3 -8 -2 -22q2 -63 -33 -90q-34 -26 -85.5 -14.5t-66.5 47.5q-10 23 8 53t47 46q20 11 49 9q1 0 2 1q2 2 6 4.5t9 5.5q5 2 12 4.5t17 5t17.5 1t8.5 -8.5q4 -19 7 -36zM320 564q-42 26 -60 12q-15 -12 -12 -25t23 -18q31 -7 46 19q3 5 3 12z
M792 229q-1 -9 -3 -14q-9 -28 -31 -47q-24 -17 -51 -16.5t-50.5 15t-29.5 33.5q-9 25 7.5 56t45.5 48q17 10 47 10q4 14 13 24q26 26 48.5 20.5t25.5 -31.5q2 -14 -2 -30q2 -2 4 -3q5 -9 -1 -29q-5 -15 -16 -29zM731 246q-27 9 -37 2q-16 -11 -16.5 -28t11.5 -18
q12 -2 25.5 3t15.5 12q4 14 1 29z" />
    <glyph glyph-name="ampersand" unicode="&#x26;" horiz-adv-x="601" 
d="M550 -22q-22 28 -98 118q-11 13 -21 25q-17 -20 -36 -38q-28 -27 -71 -39.5t-87 -10.5q-42 1 -81.5 22t-65.5 57q-27 39 -30.5 84.5t16.5 77.5q17 28 45.5 51.5t73.5 52.5q17 11 32 21q-13 21 -24 42q-17 31 -21.5 72t8 83t41.5 69q23 21 63.5 22t71.5 -16
q33 -18 56.5 -53t17.5 -61q-7 -25 -22 -50t-31 -43t-43.5 -40.5t-46.5 -35.5q-2 -1 -5 -3q27 -42 64 -85q28 -34 64 -72l10 -12l4 8q8 16 14.5 38.5t10 33.5t10.5 42.5t9 38.5q1 5 3 14.5t3 12t3 8t4 6.5t5.5 3t8.5 1.5t12 -1.5q8 -2 18 -5t20 -10.5t7 -16.5
q-2 -6 -15 -43.5t-23.5 -62.5t-29.5 -63q-11 -24 -25 -46l10 -10q24 -25 65 -67.5t56 -57.5q15 -16 16 -25t-14 -23q-6 -6 -14.5 -11t-20.5 -8.5t-17 6.5zM268 427q2 2 5 4q32 23 61.5 50.5t41.5 53.5t6 50q-7 30 -43.5 43.5t-65.5 2.5q-27 -11 -39.5 -43t-2.5 -68
q12 -46 37 -93zM253 358q-4 -3 -9 -6q-33 -23 -49 -35q-48 -33 -71 -72t-9 -69q22 -48 68 -70t94 -12q41 8 79 36q22 15 39 34q-44 55 -83 107q-31 43 -59 87z" />
    <glyph glyph-name="quotesingle" unicode="'" horiz-adv-x="131" 
d="M137 741q10 -69 2 -169q-5 -51 2 -83q7 -22 3.5 -32t-26.5 -13q-7 -3 -30.5 -0.5t-22.5 15.5q5 29 16 79.5t13 75.5q2 49 -23 84q-12 17 -9 27.5t21 18.5q8 4 18.5 7t22.5 1.5t13 -11.5z" />
    <glyph glyph-name="parenleft" unicode="(" 
d="M310 682q-101 -111 -138 -238q-40 -133 -28 -269q9 -101 32.5 -182.5t61.5 -114.5q5 -4 12.5 -0.5t16.5 1.5t14 -16q8 -23 4 -46q-1 -12 -9 -9q-135 56 -172 262q-24 134 -4 267q23 162 140 382q9 18 19 21t27 -9q13 -9 23.5 -23.5t0.5 -25.5z" />
    <glyph glyph-name="parenright" unicode=")" horiz-adv-x="213" 
d="M95 728q87 -112 118 -297q21 -128 11 -261q-15 -208 -94 -350q-8 -15 -14 -21t-14.5 -5.5t-20.5 9.5q-5 4 -10 8.5t-12 13t-8 14.5t3 13q84 83 112 245q21 121 7 247q-12 107 -42 190.5t-75 124.5q-12 10 -16 15.5t-3.5 13t8.5 18.5q10 12 25.5 22.5t24.5 -0.5z" />
    <glyph glyph-name="asterisk" unicode="*" horiz-adv-x="414" 
d="M162 560l-4 6q-53 -8 -89 -24q-19 -8 -28.5 -3.5t-14.5 23.5q-5 9 -3.5 31t15.5 22q43 1 77 2q-2 3 -5 7q-10 12 -16 17.5t-15.5 14t-18.5 15.5q-17 12 -17.5 23t14.5 25q6 6 15 11.5t21 9t16 -6.5q39 -67 72 -113q12 0 23 1q32 53 40 99q4 20 13 25.5t29 -1.5
q15 -5 29.5 -16.5t6.5 -23.5q-26 -39 -54 -80q71 6 112 16q21 7 31.5 4t14.5 -25q4 -7 2.5 -30.5t-14.5 -23.5q-19 1 -56 3.5t-56.5 3.5t-47.5 1h-21q-4 -6 -9 -12q41 -47 86 -72q2 -1 5 -3q14 -7 18.5 -11t5 -12t-7.5 -20q-2 -5 -6.5 -11t-12 -14t-13.5 -9.5t-13 2.5
q-24 26 -46 53q-21 24 -45 55l-2 -2q-9 -13 -38 -52t-43 -59q-10 -16 -14.5 -20.5t-12.5 -5t-21 9.5q-4 3 -9.5 8t-12.5 13.5t-8 14.5t4 12q79 67 124 122z" />
    <glyph glyph-name="plus" unicode="+" horiz-adv-x="484" 
d="M297 493q21 -59 25 -137q2 -29 2 -57q97 5 128 11q22 6 32.5 2.5t13.5 -25.5q3 -8 0 -31.5t-16 -21.5q-13 1 -46.5 5t-44.5 5t-43 4q-14 1 -24 1q-1 -23 -3 -45q-7 -128 -1 -163q5 -22 2 -32t-25 -13q-8 -4 -31.5 -1t-21.5 16q3 23 11.5 80.5t14.5 104.5q2 26 4 51h-7
q-81 -6 -133 -36q-18 -11 -28 -8t-18 22q-3 8 -5.5 19t0 22.5t12.5 12.5q81 12 181 18q2 105 -31 137q-16 14 -16 24t15 24q6 5 16 10.5t22 8.5t15 -8z" />
    <glyph glyph-name="comma" unicode="," horiz-adv-x="180" 
d="M63 83q3 14 11 31q9 17 21 10q17 -9 32 -20q1 2 2 3q25 30 47 -8q3 -5 6 -13.5t5 -18t-1 -16.5q-1 -5 -6 -7q12 -22 15 -48q2 -26 -15.5 -53.5t-47.5 -47.5q-18 -15 -29 -14t-22 21q-2 5 -4.5 12t-5 17t-1 17t8.5 9q39 10 54 24.5t7 35.5q-3 9 -8 15q-3 -2 -7 -3
q-7 -2 -10 -2t-10 -0.5t-8 -0.5q-24 -1 -32.5 4.5t-5.5 28.5q0 6 1 13q2 5 3 11z" />
    <glyph glyph-name="hyphen" unicode="-" horiz-adv-x="358" 
d="M46 317q108 -5 176 0q62 4 104 13q22 6 32 2.5t13 -25.5q3 -8 0.5 -31.5t-15.5 -21.5q-10 1 -32.5 3.5t-32.5 3.5t-27.5 3t-29 2h-25.5t-27 -1q-67 -5 -110 -23q-19 -7 -28.5 -2t-13.5 25q-4 10 -1 31.5t17 20.5z" />
    <glyph glyph-name="period" unicode="." horiz-adv-x="165" 
d="M177 75q-4 -6 -7.5 -10t-7.5 -7q-3 -3 -5 -4v0q-9 -19 -19 -30.5t-26 -11.5q-8 1 -11 31q-2 0 -5 5q-3 4 -5 15.5t3 33.5q4 23 13 29t31 -4q5 -2 11.5 -6t14.5 -11q6 -5 9 -9q11 -10 4 -21z" />
    <glyph glyph-name="slash" unicode="/" horiz-adv-x="315" 
d="M327 676q-102 -150 -169 -357q-44 -138 -59 -249q-1 -4 -1.5 -10t-1 -8.5t-1 -6.5t-1.5 -6t-2.5 -4.5t-4 -3t-5.5 -1.5t-7 -0.5t-9.5 1t-12.5 2t-17 4.5t-15.5 8.5t-2.5 12.5q83 250 130 385q17 47 53.5 133t49.5 125q7 19 16.5 23.5t27.5 -4.5q15 -7 27.5 -19.5
t4.5 -24.5z" />
    <glyph glyph-name="zero" unicode="0" horiz-adv-x="463" 
d="M444 441q-2 -19 -3 -49q-2 -53 -5 -103.5t-18 -123t-42 -136.5q-9 -23 -37.5 -37t-57.5 -13q-40 1 -70.5 17t-45.5 41q-47 80 -54 203q-11 218 62 342q25 43 77 59t103 -8q20 -10 38 -28.5t28 -34.5q7 -11 17 -27q6 0 12 -1q26 -5 29 -26q1 -4 0 -8q-1 -7 -9 -19
q8 -13 6 -21q-1 -10 -17 -20q-6 -4 -13 -7zM378 494q-52 98 -102 100q-27 1 -55.5 -41t-45.5 -103q-25 -92 -15 -201q7 -77 24.5 -133.5t43.5 -73.5q28 -17 59 -9.5t49 31.5q35 48 46 146q3 33 -2 77.5t-11 78t-4 72.5q2 31 13 56z" />
    <glyph glyph-name="one" unicode="1" horiz-adv-x="549" 
d="M52 491q72 79 138 148q38 40 89 84q10 9 15 12.5t11.5 4.5t12.5 -4q4 -3 10 -11q6 1 15 1t19 -2.5t19.5 -9t7.5 -16.5q-10 -57 -12 -131t0.5 -137t8.5 -153q8 -114 1 -216q85 3 130 10q22 6 32.5 2.5t13.5 -25.5q3 -7 0 -30.5t-16 -22.5q-9 1 -42.5 4.5t-40.5 4
t-39.5 3.5t-38.5 3q-2 -1 -4 -1v-9l-2.5 -10t-4 -8t-6 -4t-9.5 -2t-14 2q-8 1 -17.5 4t-20 10.5t-7.5 16.5v1q-94 -4 -148 -21q-20 -6 -29 -1t-12 25q-4 9 -0.5 30.5t17.5 21.5q101 -5 186 -5q29 133 13 336q-5 55 -10 155q-2 66 -5 106q-75 -36 -124 -91q-48 -54 -62 -102
q-6 -20 -16.5 -24t-28.5 5q-14 8 -27 21.5t-3 24.5z" />
    <glyph glyph-name="two" unicode="2" horiz-adv-x="531" 
d="M59 434q-2 51 23 110.5t74 93.5q43 30 96.5 41.5t101.5 -0.5q51 -12 86.5 -58.5t36.5 -104.5q0 -45 -18 -90t-49 -78q-46 -49 -117.5 -107t-122.5 -103q-35 -29 -54 -54q71 1 216 2q118 1 166 9q23 5 33 2t13 -25q4 -8 1 -31t-16 -22q-14 1 -67 6.5t-73.5 7t-57.5 3
t-66 1.5q-87 -2 -147 -19q-7 -12 -20 -28q-15 -16 -21 -5q-5 10 -8 19q-4 0 -7 2q-10 4 -15 24q-4 9 -2 30.5t16 22.5h7q3 8 6 15q15 29 35 53t46 47q21 18 65.5 50.5t65.5 50.5q140 121 140 246q1 27 -19 49t-47 31q-58 20 -115 -6q-55 -24 -86 -68t-26 -90q1 -13 1 -21.5
t-5 -13.5t-18 -7q-9 -5 -30.5 -2.5t-21.5 17.5z" />
    <glyph glyph-name="three" unicode="3" horiz-adv-x="514" 
d="M59 695q47 -2 121.5 -11t102.5 -11q67 -5 112 17q2 2 7.5 4.5t7 3t5.5 2.5t5.5 2t4.5 0.5t4.5 -0.5t3.5 -2t4 -4q1 -1 2 -3q3 -1 7 -3q14 -8 26.5 -22t1.5 -24q-21 -22 -47 -44t-43 -35.5t-47.5 -36.5t-41.5 -32q-23 -18 -40 -36q40 -2 76 -15q82 -28 138 -103
q65 -85 60 -171q-4 -47 -30.5 -91t-66.5 -69q-53 -32 -116.5 -40t-121.5 12q-38 14 -78.5 55.5t-61 86.5t-5.5 67q27 38 67 24q26 -10 28 -29q1 -5 -2 -10q-5 -12 -28 -30q5 -5 13 -16q5 -6 16 -23q25 -38 38 -53q10 -11 38 -20q63 -21 104 -10q63 16 108 58.5t49 96.5
q2 47 -27 96t-75 82q-42 29 -96 34q-40 5 -74 -4q-1 -1 -2 -4q-3 -4 -4 -4.5t-4 -2.5t-5 -1.5t-5.5 0.5t-7.5 2h-2q-14 -5 -22 -3q-10 2 -17 19q-4 8 -6.5 18t-0.5 22t12 14q11 3 22 5q7 7 16 15q24 21 41.5 34.5t46 35t41.5 31.5q34 26 56 52h-20q-12 0 -33 1t-29.5 2
t-32 3t-29.5 2q-91 8 -137 -8q-20 -8 -29 -3t-13 25q-5 9 -2 31t17 21z" />
    <glyph glyph-name="four" unicode="4" horiz-adv-x="491" 
d="M170 724v-102t4.5 -104t5.5 -107q2 -57 -6 -141h10q21 1 71 4t74 3q24 1 48 -1q-2 64 -6 128q-2 25 -6 123.5t-10 149.5q-3 22 3.5 30t26.5 8q9 0 19 -1.5t20 -7.5t9 -16q-22 -171 -6 -387q1 -18 3 -35q22 -5 44 -13l18 -7.5t10 -7.5t3 -12t-6 -18q-4 -8 -9.5 -16.5
t-15.5 -16.5t-17 -2q-10 8 -21 14q8 -99 14 -143q5 -23 2 -33.5t-25 -13.5q-8 -3 -31 -0.5t-22 15.5q5 100 4 201q-49 15 -105 10q-58 -5 -107 -19v-2q-1 -11 -1.5 -14t-2 -10t-3.5 -8t-6 -3.5t-9.5 -2.5t-13.5 2q-9 1 -18.5 4t-20 10.5t-6.5 16.5q5 13 9 25q-2 9 0 26
q3 17 13 20q27 110 19 224q-10 129 -32 209q-5 20 0 29t26 11q16 3 33.5 -0.5t16.5 -18.5z" />
    <glyph glyph-name="five" unicode="5" horiz-adv-x="521" 
d="M486 580q-85 46 -205 33q-37 -4 -88 -13q-10 -72 -24 -145q-2 -13 -7 -35q29 14 56 22q50 14 101.5 10t93.5 -25q46 -24 78 -67.5t42 -95.5q8 -43 -3.5 -91t-39.5 -91q-33 -52 -87 -81t-113 -33q-65 -4 -127 29q-49 25 -77.5 66t-24.5 90q2 26 11 34t32 1q5 -2 11.5 -5
t15.5 -8t13 -12t0 -13q-13 -19 -12 -37t20 -38q31 -30 86 -43q103 -25 151 14q56 46 81 115t8 123q-16 48 -66.5 81t-109.5 33q-46 0 -94 -26q-33 -19 -62 -46v-1q-1 -3 -2.5 -10t-3.5 -8.5t-6 -3.5t-10 -2h-3q-14 -16 -22 -18t-24 10q-13 11 -22 26t2 25q13 11 25 21
q11 24 16 35q8 18 19 50.5t15 59.5q6 42 2 79q-21 -7 -32 -3q-10 3 -13 26q-3 7 0 30.5t16 22.5q12 -1 25 -2q7 5 20 7q16 2 34 -2q10 -1 14 -6q65 0 143 6q51 3 162 -11q21 -2 26.5 -12t-1.5 -29q-5 -15 -16.5 -29t-23.5 -7z" />
    <glyph glyph-name="six" unicode="6" horiz-adv-x="476" 
d="M414 496q-18 70 -49 96q-16 13 -38 16.5t-42 -4.5q-46 -21 -77 -65.5t-40 -99.5q-2 -9 -3 -18q5 2 11 3q35 13 67 12q60 -3 113 -54q46 -44 70.5 -101t19.5 -116q-3 -31 -23 -62.5t-51 -54.5q-29 -22 -64 -30t-68 4q-49 20 -80.5 75.5t-40.5 129.5q-8 52 -9 104
q-2 2 -4 3q-5 5 -12.5 13.5t-8 15t3.5 12.5q10 8 22 17q0 7 1 14q7 91 36 148q26 51 75 83t97 31q49 -1 91.5 -38.5t71.5 -93.5q10 -19 7 -28.5t-22 -17.5q-8 -3 -18 -5.5t-21.5 -0.5t-14.5 12zM159 338q0 -56 9 -112q13 -69 40.5 -111.5t66.5 -47.5q27 -4 56 15t48 53
q15 28 15 60.5t-14 62.5q-15 33 -41.5 59t-57.5 40t-62 10.5t-53 -22.5z" />
    <glyph glyph-name="seven" unicode="7" horiz-adv-x="567" 
d="M67 669q46 1 283 7q114 3 163 9q5 4 18 3q17 3 25 0q6 -2 10 -11q2 -1 4 -3q17 -9 9 -21l-8 -14q-1 -3 -1 -7q-3 -23 -16 -22h-1q-22 -36 -53 -83q-51 -79 -88.5 -142t-63.5 -124q-58 -137 -90 -276q-1 -4 -2.5 -12t-2 -10t-2.5 -7t-4 -6t-5.5 -2.5t-8.5 -1.5t-12 2
q-8 1 -18 4t-20 10.5t-7 16.5q122 296 177 412q17 36 75 126q39 59 57 100q-8 1 -13 1q-12 1 -37.5 3t-41 3t-37 2t-40.5 0.5t-38 -0.5q-115 -5 -181 -30q-19 -8 -28.5 -3.5t-14.5 23.5q-5 9 -3 30.5t16 22.5z" />
    <glyph glyph-name="eight" unicode="8" horiz-adv-x="483" 
d="M355 526q49 21 57 41q3 6 -0.5 16.5t-12.5 18.5q-20 17 -52 23.5t-74 -3.5q-41 -11 -69 -31.5t-36 -44.5q-8 -26 10 -49t56 -39q10 -3 33 -12q9 8 17 14q18 14 59 45l2 2q0 1 1 3q0 12 9 16zM300 383q-43 -33 -66 -50q-58 -41 -91 -83t-29 -89q2 -30 38 -53t83 -28
q87 -11 152 30q30 19 46.5 53.5t11.5 73.5q-5 41 -27.5 72t-56.5 49q-20 11 -61 25zM465 535q1 -4 3 -7q3 -10 3 -23t-9 -15q-20 -6 -52 -27q-24 -16 -66 -47q6 -2 10 -4q22 -10 53 -30t52 -43q24 -27 33.5 -69.5t1.5 -84.5q-7 -40 -33.5 -74.5t-61.5 -51.5
q-53 -24 -114 -29t-117 10q-33 9 -61 33t-41 56q-13 28 -11 67.5t22 64.5q23 29 50 58t49 49q18 18 45 41q-7 3 -12 5q-45 20 -75.5 63.5t-14.5 85.5q20 53 83 87t138 36q42 1 80 -22.5t50 -56.5q13 -34 -5 -72z" />
    <glyph glyph-name="nine" unicode="9" horiz-adv-x="470" 
d="M114 171q41 -76 76 -106q21 -19 44.5 -24.5t40.5 3.5q40 24 75 79t58 129q39 124 26 235q-8 72 -38 124t-73 63q-26 6 -59 -20t-59 -68q-43 -71 -45 -153q-1 -44 12 -79t38 -48q32 -16 66.5 -10t60.5 29q6 6 13 13.5t9.5 10t7.5 4.5t10 0t12 -8q5 -3 10 -8t12.5 -13.5
t8 -14.5t-3.5 -12q-89 -77 -180 -68q-40 4 -73.5 32.5t-45.5 65.5q-35 116 31 265q30 67 83 103q32 22 69 27.5t71 -12.5q50 -31 79.5 -92.5t33.5 -135.5q5 -99 -17.5 -200t-68.5 -186q-29 -55 -78.5 -88.5t-97.5 -27.5q-22 2 -44 14t-45 35t-37.5 40t-38.5 47
q-13 16 -13 26t16 22q5 3 11.5 6.5t15 7t16 2t11.5 -8.5z" />
    <glyph glyph-name="colon" unicode=":" horiz-adv-x="230" 
d="M198 17q-11 7 -20 15q-7 4 -11 8q-7 0 -15 4q-14 6 -15 20q0 6 2 11q-25 17 2 44q4 4 9.5 8.5t15 10.5t15.5 6t12 -6q16 -26 21 -45h3q38 -4 23 -42q-6 -15 -17.5 -28.5t-24.5 -5.5zM215 462q1 -2 3 -4q5 -10 -2 -29q-6 -15 -17.5 -29.5t-23.5 -6.5q-8 6 -12 13
q-8 -2 -29 1q-23 3 -22 16q0 3 1 9q1 17 2 25q1 4 2 9q-6 19 25 30q5 2 12.5 3.5t18 3t17.5 -1.5t7 -10v-1q3 -1 7 -3q16 -8 12 -22q-1 -2 -1 -3z" />
    <glyph glyph-name="semicolon" unicode=";" horiz-adv-x="231" 
d="M100 112q90 6 117 -32q32 -46 1 -119q-27 -64 -86 -106q-17 -15 -28.5 -14.5t-22.5 21.5q-3 8 -6.5 17.5t-4 22.5t8.5 15q42 12 70.5 39t34.5 63q2 17 -12 23.5t-41 -3.5q-20 -8 -29 -4t-15 24q-5 9 -3.5 30.5t16.5 22.5zM200 497q10 -3 24 -9q36 -14 11 -47
q-10 -13 -25.5 -23t-24.5 1q-4 5 -6 10q-18 -3 -36 17q-6 6 -9 12q-13 6 -14 20q0 15 19 29q5 3 11.5 6.5t16 7.5t17 3t9.5 -8q4 -10 7 -19z" />
    <glyph glyph-name="less" unicode="&#x3c;" horiz-adv-x="623" 
d="M8 284q180 98 357 180q122 56 225 82q22 8 32.5 4t13.5 -27q3 -7 0.5 -29.5t-15.5 -23.5q-139 -1 -346 -103q-99 -48 -156 -90q119 -29 280 -98q35 -14 102 -45.5t96 -42.5q2 -1 5 -2q11 -5 15.5 -7t9 -6.5t3.5 -11t-6 -17.5q-2 -5 -5.5 -11t-10 -15t-12 -11.5t-12.5 0.5
q-153 107 -302 166q-135 53 -206 38q-21 -4 -30 1l-2 2q-9 -1 -23 14q-6 6 -11.5 15t-9 21t7.5 17z" />
    <glyph glyph-name="equal" unicode="=" horiz-adv-x="647" 
d="M46 395q43 3 93.5 3.5t83.5 -0.5t93 -3.5l84 -3.5q120 -4 199 29q4 2 12.5 5.5t11 4.5t7.5 2t7.5 -1.5t6 -6.5t6.5 -11q3 -5 5.5 -12t5 -17t0.5 -17.5t-9 -8.5q-77 -14 -173.5 -15t-172.5 4q-149 6 -225 -23q-20 -8 -29.5 -4.5t-15.5 22.5q-5 8 -4.5 30t14.5 23zM34 221
q142 3 334 -10q139 -9 203 -1q23 5 33.5 1.5t13.5 -24.5q3 -8 0 -31.5t-16 -21.5q-32 3 -146.5 17t-175.5 17q-133 7 -216 -21q-20 -7 -29.5 -2.5t-14.5 23.5q-4 9 -2 30.5t16 22.5z" />
    <glyph glyph-name="greater" unicode="&#x3e;" horiz-adv-x="568" 
d="M54 494q64 -26 175.5 -84t121.5 -62q32 -16 103 -39t94 -32q2 -1 4 -1q8 1 14 -2q5 -3 10 -12v-1q5 -5 4 -11v-1v0q4 -9 1.5 -30t-16.5 -22q-10 0 -20 -1q-6 -3 -11 -1q-123 -12 -304 -74q-55 -18 -93.5 -36.5t-39.5 -25.5q-1 -3 -2.5 -10.5t-2 -9l-2 -6t-3.5 -5.5
t-5.5 -2.5t-8.5 -1t-12 1.5q-14 3 -33.5 12.5t-11.5 18.5q14 17 31.5 31.5t46 28.5t45.5 22t59 22.5t57.5 19.5t68.5 22q31 10 80 25q28 8 50 14l-4 2q-44 24 -108.5 56t-88.5 44q-40 20 -66 32t-64 24t-70 15q-21 2 -28 9t-4 27q2 16 10.5 32t22.5 11z" />
    <glyph glyph-name="question" unicode="?" horiz-adv-x="466" 
d="M104 429q-12 25 -18 55t-3.5 65.5t17.5 62.5q19 35 56 61t80 38q39 13 85 9t80 -26q40 -25 63.5 -71.5t14.5 -88.5q-5 -23 -19 -47.5t-26.5 -40t-36.5 -41.5t-33 -36q-66 -78 -38 -124q3 -6 8.5 -13t7.5 -10.5t3 -8t-2 -9t-10 -11.5q-5 -3 -10.5 -7t-15 -9.5t-16 -5
t-11.5 5.5q-13 23 -20.5 50.5t-5.5 60t16 57.5q10 19 26 36.5t39.5 39.5t33.5 32q62 65 63 106q0 28 -19.5 57.5t-47.5 41.5q-39 16 -88 9t-84 -35q-35 -27 -43 -71t13 -80q11 -17 11 -27t-16 -20q-7 -5 -16.5 -9.5t-21.5 -4.5t-16 9zM294 23q-10 23 -9.5 26.5t8.5 7.5
q1 1 2 1q-4 4 -7 11q-4 9 2 15q-3 10 0 25q4 24 11.5 31t29.5 -1q5 -1 11.5 -4.5t15.5 -8.5t13 -11.5t0 -12.5q-9 -14 -21 -25h1q29 -25 -3 -48q-5 -3 -12 -6.5t-15.5 -6.5t-16 -1.5t-10.5 8.5z" />
    <glyph glyph-name="at" unicode="@" horiz-adv-x="797" 
d="M568 448q-11 28 -17 38q-2 1 -8 0.5t-17 -8t-19 -19.5q-29 -42 -39.5 -96t-2.5 -102q4 -24 9 -18q28 34 42 62q28 59 49 135q1 4 3 8zM599 507q1 8 4 12q5 8 24 9q16 2 33 -2.5t17 -18.5q-2 -32 -12 -96q1 -5 0 -8l-2 -6q-6 -32 -13 -73q-7 -39 -3 -78q0 -2 2 -2.5t7.5 1
t14.5 6.5q60 39 80 119q22 91 -4 155q-25 61 -73 102.5t-105 44.5q-51 3 -109 -30t-102 -86q-60 -74 -60 -184q0 -108 62 -185q30 -37 74 -61t92 -28q67 -6 192 42q6 2 15 6t12.5 5t8.5 2t8 -1t6.5 -6t6.5 -12q4 -7 7.5 -16.5t3.5 -22.5t-9 -15q-3 -1 -27 -8l-36 -10.5
t-39.5 -9.5t-46.5 -8.5t-48 -4.5t-52.5 0t-51.5 8t-53 16q-69 28 -115.5 98.5t-58.5 151.5q-10 76 14 154t76 143q54 68 141 96q46 16 95.5 14.5t87.5 -21.5q53 -29 91.5 -82t51.5 -118q12 -55 0.5 -117.5t-43.5 -117.5q-15 -28 -41.5 -48.5t-54.5 -26.5q-31 -7 -57.5 18.5
t-27.5 66.5v16q-5 -10 -10 -18q-9 -17 -23 -35.5t-27 -29.5q-33 -24 -66.5 -2.5t-42.5 63.5q-10 48 4 110q32 133 100 158q21 7 41.5 0.5t39.5 -26.5q0 -2 1 -3z" />
    <glyph glyph-name="A" unicode="A" horiz-adv-x="639" 
d="M413 729q10 -2 12 -12q38 -194 109 -408q5 0 9 -1q10 -4 13 -26q3 -8 0 -32v-5q49 -145 86 -225q1 -3 4.5 -11t4.5 -10t2.5 -7t0.5 -7t-3 -5.5t-6 -6t-11 -5.5q-7 -4 -16.5 -7.5t-22.5 -3.5t-15 9q-39 146 -75 267q-6 1 -13 1q-31 4 -44.5 5.5t-43 4t-42.5 2t-42 -1.5
q-68 -3 -117 -24q-12 -28 -29 -68q-44 -101 -60 -151q-2 -7 -4.5 -18.5t-4 -14.5t-7.5 -5.5t-18 -0.5q-5 0 -12.5 2t-17.5 5t-15 8.5t-2 12.5q63 129 109 228q-2 4 -4 9t-3.5 13t-2.5 17t2.5 16t11.5 7q13 1 26 3q35 77 57 132q7 18 29 73t32.5 82t25.5 71t25 80q5 21 13 26
t27 -1q16 -5 30 -16q1 0 2 -1zM378 627q-74 -153 -147 -339q65 5 144 7q70 2 109 6q-14 46 -28 88q-6 18 -28 89t-38 116q-6 17 -12 33z" />
    <glyph glyph-name="B" unicode="B" horiz-adv-x="538" 
d="M99 516q-9 6 -6 15q3 7 6 15q0 119 7 176q5 39 44 20q14 -7 26 -19t6 -25q-10 -20 -18 -59q9 8 18 15q65 53 156 73q45 11 91 -2t75 -42q33 -33 41 -83.5t-13 -95.5q-23 -46 -76 -83q-23 -16 -49 -29q10 -3 19 -6q42 -16 76 -44q35 -27 46.5 -81.5t-2.5 -97.5
q-22 -83 -106 -138q-92 -62 -199 -68q-32 -2 -65 7q-21 6 -40 15q-9 -1 -25 1q-23 3 -22 16q1 8 1 15q-13 14 -23 33q-18 34 -15 77q1 18 22 21q12 3 22 -3q3 82 3 183q-15 -3 -23 -1q-10 3 -13 25q-4 7 -2 29q0 6 1 13q0 11 5.5 21.5t14.5 8.5q8 -2 13 -5q1 5 4 9v31v63z
M151 506q-2 -44 -2 -96q2 -5 5 -12l42 2q31 4 56 5q45 6 83 16q84 21 126 71q29 34 35.5 73.5t-12.5 66.5q-24 31 -74 40.5t-108 -9.5q-56 -20 -91 -54t-39 -67q-2 -13 -3 -17.5t-4 -10.5t-9 -8h-5zM149 328v-26q3 -194 16 -276q1 -3 1 -5q20 -7 44 -8q78 -3 133 20
q60 24 103.5 63.5t54.5 88.5q10 45 -17.5 92.5t-74.5 65.5q-21 9 -46 10.5t-52 -3t-48 -10t-50 -14.5q-20 -7 -29 -4q-6 2 -10 9q-2 0 -5 -1q-11 -1 -20 -2z" />
    <glyph glyph-name="C" unicode="C" horiz-adv-x="620" 
d="M557 504q-9 38 -39.5 76t-76.5 53q-42 13 -88.5 2t-76.5 -43q-61 -65 -94 -159.5t-27 -192.5q4 -65 37 -120t82 -74q58 -20 119 -5.5t96 53.5q5 5 10 12.5t7 11t6 6t9 2t14 -4.5q5 -3 11 -6.5t15 -10.5t10.5 -13t-1.5 -13q-33 -41 -95.5 -74.5t-131.5 -30.5
q-61 1 -114.5 32t-77.5 79q-43 87 -43 197.5t40 209.5q27 72 84.5 125.5t126.5 74.5q39 10 80 2.5t79 -28.5q69 -37 110 -126q9 -19 5.5 -28.5t-22.5 -16.5q-9 -5 -30 -5t-24 15z" />
    <glyph glyph-name="D" unicode="D" horiz-adv-x="629" 
d="M100 452q-8 7 -4 17q2 5 4 11v50q-1 115 -7 173q-2 21 4.5 29t26.5 8q9 0 19 -1.5t20 -8t9 -16.5q-9 -65 -14 -136q3 5 7 10q50 61 120 91q65 28 139 14t120 -63q71 -76 94 -236q21 -149 -40 -244q-40 -63 -110 -100.5t-152 -50.5q-87 -14 -167 16l2 -22q5 -24 2 -34
t-25 -13q-7 -4 -30 -1t-23 16q3 47 4 94q-11 9 -21 20q-37 40 -51 92q-8 25 -4 36.5t27 14.5q7 3 30 0q21 -3 23 -13q1 96 -2 192q-1 11 -1 55zM152 435q-2 -75 1 -155q5 -116 10 -196q39 -24 99 -28q119 -10 207 39q40 22 70.5 60t44.5 85q22 76 -2 191q-18 85 -56 139
q-23 34 -55.5 54.5t-67.5 22.5q-75 4 -145 -51q-34 -26 -55.5 -60.5t-27.5 -67.5q-4 -22 -10 -28q-4 -5 -13 -5zM103 186v11q-1 -5 0 -11z" />
    <glyph glyph-name="E" unicode="E" horiz-adv-x="624" 
d="M88 731q156 -25 307 -28q120 -2 196 8q23 6 33.5 2.5t13.5 -25.5q3 -7 0 -30.5t-16 -22.5q-224 19 -309 21q-8 1 -49.5 2t-58.5 1q-16 0 -44 -1q-14 -125 -10 -275q95 5 206 1q116 -4 163 2q23 6 33 2.5t13 -25.5q3 -7 0.5 -30.5t-15.5 -22.5q-32 4 -87.5 11.5
t-97.5 11.5t-80 4q-76 1 -133 -16q1 -25 3 -51q13 -195 23 -273q124 -11 220 -6q95 5 166 29q21 10 31.5 9t17.5 -22q2 -6 3.5 -13t3 -17t-1 -17.5t-10.5 -7.5q-44 -4 -88 -6t-109 -4t-85 -2q-12 -1 -45 -1.5t-50.5 -1.5t-44 -3.5t-48.5 -7.5q-20 -4 -28.5 1.5t-10.5 26.5
q-1 8 0 18t5 19q6 149 -1 311q-10 -3 -16 0q-10 3 -17 22q-5 9 -5 31t14 23l20 2v1q-3 38 -6 140q-1 81 -5 131q-12 0 -17 4q-8 7 -9 27q0 9 1.5 19.5t7.5 20.5t16 8z" />
    <glyph glyph-name="F" unicode="F" horiz-adv-x="618" 
d="M101 729q0 5 3 8q5 8 25 10q8 1 18.5 0t20.5 -7q10 -4 10 -12q88 -4 226 -13q120 -8 181 0q23 5 33 2t13 -25q3 -8 0.5 -31.5t-15.5 -21.5q-30 3 -133.5 16t-158.5 17q-90 4 -152 -7q-15 -142 -23 -262q140 17 237 20q38 1 109.5 -2t78.5 -3q16 -1 20 -1.5t11.5 -3
t8.5 -9t0 -18.5q0 -9 -2 -19t-8 -21t-15 -9q-158 42 -280 33q-97 -7 -164 -35q-3 -46 -4 -89q-6 -180 23 -254l5 -12.5t4 -10.5t2 -7.5t-1 -7t-6.5 -6t-11.5 -7.5q-5 -2 -12 -4.5t-17 -5t-17.5 -1t-8.5 8.5q-8 56 -10 135.5t0 141.5q1 41 4 104q-9 5 -15 22q-2 5 -4 12.5
t-2.5 17t3 16t11.5 7.5q5 1 10 1q1 22 4 66q3 46 4 71t2 61q0 32 -1 58q-2 1 -3 2q-10 4 -14 24q-4 9 -2 30q3 18 13 21z" />
    <glyph glyph-name="G" unicode="G" horiz-adv-x="724" 
d="M569 516q-16 47 -53.5 91t-95.5 64q-37 12 -80.5 -10.5t-74.5 -68.5q-58 -81 -79 -213q-20 -126 18 -223q29 -71 88 -99q31 -16 65.5 -17.5t66.5 12.5q53 28 88 86.5t42 134.5v22v15q1 5 5 8h-1q-37 2 -50 2q-84 2 -131 -23q-19 -10 -28.5 -6.5t-17.5 22.5
q-2 6 -3.5 13.5t-2 17t2.5 16t11 7.5q39 3 75 3.5t87.5 -1.5t62.5 -3q69 -1 113 21q2 1 7 4t6.5 3.5t6 2.5t5.5 2t4.5 0.5t4.5 -0.5t3.5 -2.5t4 -4t4 -5.5t4.5 -8q2 -4 4.5 -11.5t5.5 -17.5t1 -17t-9 -8q-29 -5 -62 -7q-10 -1 -19 -1q12 -177 14 -229q1 -33 -5 -166
q-1 -15 -1.5 -20t-3.5 -11.5t-9.5 -7.5t-18.5 0q-9 1 -19 3.5t-21 9t-8 15.5q42 132 34 245l-2 28q-6 -17 -14 -36q-20 -52 -51 -85q-46 -49 -113.5 -68t-127.5 0q-55 17 -99 72t-65 131q-26 91 6 223q23 98 69 176.5t111 118.5q39 20 88.5 13t100.5 -36q71 -41 123 -134
q10 -18 7.5 -28t-20.5 -19q-8 -3 -17.5 -6t-21.5 -1t-15 11z" />
    <glyph glyph-name="H" unicode="H" horiz-adv-x="649" 
d="M169 728q-4 -131 -3 -300q79 -4 253 -12q89 -4 148 -2q1 8 1 16q0 6 1 19q9 199 -5 293q-3 22 2.5 30t25.5 10q9 1 19.5 0t21 -6.5t9.5 -15.5q-16 -176 -26 -342v0q23 5 33.5 2t13.5 -25q3 -7 0 -30.5t-16 -22.5q-15 2 -35 4l-2 -40q-8 -190 1 -293q5 -24 2 -34t-25 -13
q-7 -4 -30.5 -1t-22.5 16q4 46 11.5 139t13.5 168q2 32 4 63l-18 2q-64 7 -115 12t-96 7q-100 4 -168 -7q0 -37 1 -75q4 -213 12 -284q5 -23 1.5 -33.5t-24.5 -13.5q-8 -3 -31 -0.5t-22 15.5q14 228 14 380q-15 -3 -22 1q-9 5 -13 24q-4 10 -0.5 31.5t18.5 20.5q3 0 15 -1
q-1 54 -2 82q-1 33 -6.5 91.5t-14.5 102.5q-5 21 0 29.5t25 11.5q16 2 33.5 -1.5t17.5 -17.5z" />
    <glyph glyph-name="I" unicode="I" horiz-adv-x="296" 
d="M-3 739q67 -7 120 -7q1 3 3 5q6 8 26 8q9 0 19 -1q10 -2 19 -8q41 4 75 12q22 7 32 3t13 -26q4 -7 1 -30.5t-16 -22.5q-7 1 -31 4t-31.5 3.5t-25.5 2.5h-11q-5 -43 -8 -92q-4 -69 -7 -155t-6 -135q-9 -154 -3 -247h3q51 1 95 10q22 7 32 3t13 -26q4 -7 1 -30.5t-16 -22.5
q-18 2 -46 6t-44 6q-15 2 -33 3q0 -4 -1 -6q-3 -11 -25 -14q-7 -3 -30.5 0t-22.5 16v4q-40 -3 -68 -11q-19 -6 -28 0.5t-11 27.5q-1 8 0 19t6.5 21.5t15.5 8.5q50 -8 90 -12q5 48 13 128q15 150 19 232q4 116 -11 266q-60 -5 -99 -19q-19 -7 -28.5 -1.5t-12.5 26.5
q-2 16 1.5 34t17.5 17z" />
    <glyph glyph-name="J" unicode="J" horiz-adv-x="413" 
d="M422 723q-2 -49 1.5 -149.5t4.5 -175t-9.5 -168.5t-36.5 -164q-11 -32 -51 -50t-85 -17t-87 14q-69 25 -110 83.5t-33 126.5q2 25 12 32.5t33 -1.5q8 -3 17 -8t17 -15t3 -17q-18 -24 -13 -56t38 -60q28 -25 63 -39.5t64 -8.5q58 10 88 58.5t33 123.5q13 234 -27 474
q-3 21 2.5 29t25.5 10q16 2 33 -2.5t17 -19.5z" />
    <glyph glyph-name="K" unicode="K" horiz-adv-x="583" 
d="M175 729q-5 -27 -8 -54.5t-5 -63.5t-3.5 -55.5t-2 -66t-0.5 -57.5v-57q120 89 209 183q112 119 159 193q11 18 21 20.5t26 -10.5q13 -10 22.5 -25t-0.5 -24q-22 -20 -46 -43t-41.5 -39.5t-45.5 -45.5t-40 -41t-45.5 -46.5t-42.5 -42.5q-29 -31 -88 -86q-23 -23 -41 -40
q26 -49 65 -104q57 -80 130 -152q60 -58 68 -49v3q-5 22 1.5 32t30.5 8q5 0 12 -1.5t17 -4t15.5 -8t3.5 -11.5q-10 -36 -30.5 -58.5t-45.5 -20.5q-13 1 -29.5 10t-26.5 18t-29 26q-49 44 -103 108q-26 31 -82 100q-25 32 -44 54q1 -174 9 -255q5 -24 1.5 -34t-24.5 -13
q-8 -4 -31 -1t-22 16q11 171 16 292l-4 4q-4 5 -10.5 14.5t-6 15.5t5.5 12q8 6 16 11q1 46 1 82q0 110 -11 303q-1 21 6.5 28.5t27.5 5.5q9 0 18.5 -2.5t19 -10t7.5 -17.5z" />
    <glyph glyph-name="L" unicode="L" horiz-adv-x="531" 
d="M190 736q-37 -174 -24 -470q5 -121 6 -190q79 0 170 -8q105 -9 157 -2q22 6 32 2.5t13 -25.5q4 -7 1 -30.5t-16 -22.5q-38 5 -125 19t-133 17q-54 3 -99 -4v-3q0 -14 -0.5 -20t-4 -12t-10 -7t-18.5 0q-9 1 -19 3q-4 1 -9 3q-13 3 -26 10h-1q-4 0 -8 2q-9 3 -15 22
q-5 9 -4.5 31t14.5 22q11 1 22 1q5 3 11 4q14 117 7 321q-2 56 -0.5 174.5t0.5 158.5q-1 21 6.5 28.5t27.5 5.5q9 -1 18.5 -3.5t19 -9.5t7.5 -17z" />
    <glyph glyph-name="M" unicode="M" horiz-adv-x="719" 
d="M733 692q-22 -225 -32 -398q-9 -162 0 -255q5 -23 2 -33.5t-25 -13.5q-7 -3 -30.5 0t-22.5 16q3 28 16 172.5t18 221.5q3 65 4.5 95t0.5 83q0 12 -1 22q-11 -18 -23 -42q-40 -79 -101 -226q-14 -32 -43 -100.5t-44 -106.5q-7 -16 -12 -30q11 -25 23 -50q2 -3 4.5 -9
t3.5 -8t3 -6.5t2 -6v-4.5t-1.5 -4.5t-4 -4.5t-6 -5t-8.5 -4q-8 -4 -17.5 -7.5t-22 -3.5t-15.5 9q-6 22 -15 47q-2 1 -5 3q-14 7 -25.5 20.5t-3.5 24.5q6 8 12 18q-42 121 -117 307q-6 17 -22 58t-25 62.5t-24 53.5q-7 18 -16 33q-15 -159 -14 -340q1 -190 12 -296
q5 -23 2 -33.5t-25 -13.5q-7 -3 -30.5 0t-22.5 16q14 240 14 449q0 32 1.5 98.5t1.5 118.5t-4 97q-2 21 4 29t26 8h9q8 3 16 5q13 2 16 -9q2 -5 5 -10q1 -2 2 -5q36 -77 87 -213q57 -149 79 -200q31 -72 65 -148q62 113 147 318q14 33 33.5 87t33 85.5t29.5 50.5
q34 39 56 -1q10 0 20.5 -5.5t9.5 -15.5z" />
    <glyph glyph-name="N" unicode="N" horiz-adv-x="627" 
d="M181 764q122 -281 228 -457q70 -117 153 -204q13 209 13 326q2 63 0.5 147.5t-11.5 145.5q-3 22 2.5 30t25.5 10q9 1 19 0t21 -6.5t10 -15.5q-17 -199 -19 -426q-1 -185 8 -275v-1q2 -2 5 -6t2 -7t-3 -8q0 -1 -1 -2q0 -7 -1 -11q-2 -8 -17 -11q-4 -4 -10 -9
q-8 -8 -14 -8.5t-12 3.5q-5 6 -10 13q-15 4 -15 14v4q-129 166 -258 395q-19 33 -54 99.5t-63 117.5q-2 2 -4 5q-2 -164 -6 -342q-5 -200 3 -282q5 -24 2 -34t-25 -13q-7 -4 -30.5 -1t-22.5 16q2 32 8 104.5t9 113.5t6 102t4 112q3 193 -22 299q-5 20 0 29q2 4 8 7v1
q1 10 17 21q8 5 17.5 9t21 4t15.5 -9z" />
    <glyph glyph-name="O" unicode="O" horiz-adv-x="673" 
d="M674 484q5 -41 5 -100q0 -71 -12 -136q-15 -75 -50.5 -139t-86.5 -105q-31 -24 -75 -32t-87 1q-41 8 -78.5 27t-60.5 46q-101 116 -107 268q-4 99 44 206q55 122 140 172q47 27 106 28.5t116 -24.5q56 -27 95 -73q12 -14 22 -29q8 -1 10 -8q1 -6 3 -11q15 -25 25 -51
q7 -20 3 -30q-3 -6 -12 -10zM583 564q-18 30 -51 57q-60 47 -109 45q-54 -2 -105 -35.5t-84 -89.5q-36 -58 -52 -127.5t-9 -134.5q6 -66 40 -128t85 -97q40 -27 88 -33.5t78 8.5q37 15 68 51t47 83q31 89 34 188t-19 178q-2 8 -6 19q-5 11 -5 16z" />
    <glyph glyph-name="P" unicode="P" horiz-adv-x="579" 
d="M100 536q-8 7 -5 17l4 14q-2 88 -6 136q-1 21 5 29t26 8q9 0 19 -1.5t20 -8t9 -16.5q-3 -20 -5 -40q32 32 72 48q48 18 99 16.5t100 -18.5q47 -18 85 -53.5t56 -81.5q18 -45 14 -101t-30 -94q-34 -48 -93 -75.5t-122 -28.5q-74 -1 -140 28q-28 13 -52 30l2 -56
q1 -26 4.5 -87t5 -109.5t0.5 -97.5q0 -26 -7 -34t-30 -4q-8 2 -17 4.5t-19 10t-9 16.5q28 153 18 406q0 1 -1 2q-17 19 -16 31q1 10 15 19q-1 34 -2 91zM156 522q-1 -31 -1 -63q7 -2 9 -8q10 -34 41.5 -62t82.5 -41q77 -19 154 10q35 13 61 39.5t35 60.5q11 38 4.5 78
t-27.5 67q-32 41 -85 63.5t-107 17.5q-57 -6 -98 -43t-51 -85q-2 -12 -3.5 -17t-5 -10.5t-9.5 -6.5z" />
    <glyph glyph-name="Q" unicode="Q" horiz-adv-x="746" 
d="M649 194q-23 -39 -53 -81q-2 -3 -5 -7q30 -34 61 -62q15 -14 24 -25q1 2 2 5q10 15 33 14q5 -1 13 -2t18 -4t15.5 -8t2.5 -12q-14 -29 -36 -39.5t-44.5 -5t-43.5 22.5t-76 76l-1 1q-23 -27 -49 -52q-30 -28 -69 -41t-75 -12q-40 3 -77.5 21.5t-62.5 50.5
q-95 118 -111 292q-17 176 54 301q32 56 84 90t104 32q100 -4 200 -114q74 -80 106 -184q21 -69 17 -147q6 -5 13 -13q8 -10 2 -18q-6 -7 -25 -43q-1 -3 -2 -7q-4 -21 -12 -27q-3 -1 -7 -2zM594 246q10 29 14 66q4 43 -5.5 102t-35.5 111q-34 66 -88.5 112t-111.5 60
q-27 7 -58 -5t-58 -38q-50 -49 -69 -119q-34 -126 -9 -265q18 -98 64 -164q28 -40 64.5 -63.5t72.5 -22.5q34 2 75 28q37 23 71 62q-10 10 -16 15q-8 8 -22 22.5t-24.5 22.5t-19.5 14q-18 11 -19 22t12 26q6 6 14.5 12.5t20.5 10.5t17 -6q34 -52 68 -95q3 4 5 9q14 26 30 63
q4 11 8 20z" />
    <glyph glyph-name="R" unicode="R" horiz-adv-x="612" 
d="M129 522q-12 8 -21 20q-10 15 0 25t20 19q-3 67 -7 142q-2 21 5 28.5t27 6.5q9 0 19 -2.5t19.5 -9.5t7.5 -17q-7 -44 -12 -99q27 20 57 37q74 44 147 48q49 4 97 -15.5t81 -53.5q39 -41 51.5 -97t-12.5 -106q-27 -48 -93.5 -82t-154.5 -48q-27 -4 -54 -3q28 -32 48 -58
q34 -43 97 -125q13 -17 20 -26q18 -24 41.5 -29t37.5 10q6 7 8 17t-1.5 23t-8.5 26t-14 31q-2 3 -5 9.5t-3.5 8t-2.5 6t-2 6v5t1.5 5t3.5 4t6 4.5t9 5q7 4 16.5 7.5t22.5 3.5t15 -9q3 -10 13 -35t15 -47.5t2 -44.5q-6 -41 -44 -71t-70 -21q-20 6 -37.5 18t-36.5 34t-28.5 35
t-31 45.5t-26.5 40.5q-40 59 -99 113q-13 13 -27 24q-26 9 -51 22l-1 -40q0 -6 -1.5 -45t-2 -50t-1 -43t0 -49.5t1.5 -43t3 -47.5q5 -23 2 -33.5t-25 -13.5q-7 -3 -30.5 0t-22.5 16q3 42 12 132t14 159q3 44 5 86l-14 10q-16 13 -21 19t-4.5 14.5t11.5 20.5q4 4 9 8.5
t14 11.5q3 2 6 3v55zM181 534q0 -1 -1 -2q-1 -31 -2 -83q20 -19 41 -40q14 -8 30 -14q60 -24 135 -16q99 11 149 59q33 31 40.5 73.5t-14.5 74.5q-29 43 -88.5 64.5t-122.5 8.5q-84 -17 -167 -125z" />
    <glyph glyph-name="S" unicode="S" horiz-adv-x="591" 
d="M485 472q0 28 -10.5 66t-34.5 66q-39 44 -104 52q-69 9 -114 -32q-23 -21 -39 -53t-5 -58q12 -33 55.5 -68t93 -61.5t118.5 -67.5t116 -77q45 -35 44 -105.5t-50 -120.5q-59 -59 -192 -53q-114 6 -181 57q-22 16 -38 45t-23 61.5t4.5 65t42.5 51.5q8 5 19.5 -3t16 -22
t-2.5 -29q-4 -8 -10 -16t-17 -15q-4 -2 -7 -3q1 -2 3 -5q11 -18 21 -47q7 -20 47 -43q35 -20 79 -31q53 -12 98 -8q69 5 101 33q27 23 41.5 53.5t4.5 46.5q-25 38 -75 73t-137.5 81.5t-127.5 72.5q-47 29 -73.5 74.5t-17.5 96.5q9 58 48 101.5t89 57.5q48 12 100.5 0.5
t94.5 -41.5q69 -50 98 -172q5 -21 0 -30t-25 -12q-9 -3 -30 0.5t-21 18.5z" />
    <glyph glyph-name="T" unicode="T" horiz-adv-x="586" 
d="M346 717h5q148 1 202 8q23 5 33 2t13 -25q4 -8 1 -31t-16 -22q-17 1 -63 5.5t-68 6t-59 3.5q-26 2 -49 3q-3 -57 -8 -162q-8 -154 -10 -238q0 -32 4.5 -134.5t0.5 -162.5q-2 -26 -8.5 -33.5t-28.5 -3.5q-8 1 -17.5 4t-20 10.5t-7.5 16.5q10 45 17 105.5t9 92.5t4.5 120.5
t3.5 104.5q7 181 -9 281h-8q-134 -3 -212 -29q-20 -7 -29 -2.5t-14 23.5q-4 9 -2 30.5t16 22.5q111 2 245 3v0q5 9 25 12q16 3 34 0q12 -3 16 -11z" />
    <glyph glyph-name="U" unicode="U" horiz-adv-x="623" 
d="M193 743q-1 -27 -7 -102.5t-9.5 -128t-6 -129t-0.5 -141.5q5 -153 78 -195q57 -30 117.5 -22.5t93.5 43.5q82 87 103 311q14 146 0 353q-4 25 -1.5 35.5t24.5 13.5q7 3 30 0.5t23 -15.5q-1 -18 -3 -95.5t-4 -128.5t-10 -133.5t-21 -154.5q-14 -75 -44 -137t-76 -98
q-32 -25 -77.5 -38t-96.5 -7.5t-88 34.5q-24 19 -42 43t-29 55t-17.5 57.5t-9.5 66.5t-4 65t-1 70q-1 49 2.5 196.5t-1.5 164.5q-2 22 3 29.5t25 9.5q8 1 18.5 0t21 -6.5t9.5 -15.5z" />
    <glyph glyph-name="V" unicode="V" horiz-adv-x="625" 
d="M110 763q78 -171 168 -450q4 -12 15 -47.5t16 -51l15 -46.5q11 -29 18 -48q38 132 107 312q16 42 54.5 137.5t52.5 135.5q1 3 2.5 8.5t2.5 7t2.5 6t2.5 5.5t2.5 3.5t3.5 2.5t4.5 1t5.5 0.5t7 -1t8 -2.5q8 -3 17.5 -7t18.5 -13t4 -17q-116 -203 -194 -424
q-57 -159 -60 -244q3 -6 8 -13q6 -8 7 -11.5t-1.5 -9t-11.5 -13.5v0q-1 -11 -4 -16q-5 -8 -25 -10h-15q-6 -2 -13 -3q-12 -2 -15 9v1q-8 6 -6 15q1 7 3 14q1 7 3 15q1 5 2 9v2q-8 -1 -16 -1q-3 0 -3.5 9.5t5.5 19.5q1 3 3 5q-20 63 -46 150q-44 153 -65 217
q-63 190 -139 287q-14 16 -13.5 26t15.5 22q7 5 16.5 9.5t22 7t15.5 -8.5z" />
    <glyph glyph-name="W" unicode="W" horiz-adv-x="868" 
d="M92 748q21 -81 49.5 -236.5t45.5 -223.5q23 -98 58 -192q29 114 80 319q7 27 36 134t41 163q0 3 1.5 10t2 9.5t2 7t3 5.5t4 3.5t5.5 2.5h7.5t11.5 -1q8 -2 17 -5l6 -2h2q10 3 22 1t14 -12q61 -259 114 -439q5 -17 16 -55.5t17.5 -59.5t16.5 -51q4 -13 8 -25q21 70 30 101
q11 36 27.5 101t26.5 118q22 108 45 300q0 3 1 10t1 9t1 6.5t2 6t2.5 4t4 3t5.5 1.5t7 1h10q8 -1 18 -3.5t21 -9t8 -15.5q-18 -64 -34.5 -133t-38.5 -170.5t-31 -140.5q-6 -26 -24 -96t-28 -120q-6 -34 -9 -66q6 -8 7.5 -11.5t-0.5 -9.5q-3 -6 -10 -13q-2 -17 -8 -23
q-6 -7 -26 -5q-16 1 -32.5 8.5t-12.5 21.5q3 8 9 29q-14 44 -28 91q-21 73 -44.5 161.5t-37.5 137.5q-2 5 -14 48t-15.5 54.5t-14.5 46.5t-18 54q-7 18 -17 43q-74 -197 -113 -364q-43 -182 -51 -289q1 -4 2 -6t2 -7t0 -6.5l-3 -4.5q-1 -3 -3 -5q-1 -19 -7 -27q-7 -7 -27 -5
q-16 2 -32.5 9.5t-12.5 21.5q2 6 4 16q-70 271 -102 423q-2 11 -14.5 75t-18.5 88t-20.5 67t-30.5 74q-11 18 -9.5 28t18.5 19q8 4 18.5 7.5t22 3t14.5 -10.5z" />
    <glyph glyph-name="X" unicode="X" horiz-adv-x="637" 
d="M646 684q-66 -59 -146 -163q-49 -62 -109 -145q18 -28 36 -58q10 -17 36 -60t39 -64t34 -54t39 -58.5t36 -47.5q2 -4 8.5 -11t7.5 -9l3.5 -7t1 -8t-4.5 -7.5t-9 -9.5q-5 -4 -10.5 -8t-15 -9.5t-16 -5t-11.5 5.5q-18 33 -72 132.5t-98 176.5q-17 30 -34 59
q-27 -37 -56 -78q-45 -65 -71 -100.5t-60 -75.5t-61 -62q-17 -16 -29 -15t-23 22q-3 7 -6.5 16t-3.5 22t8 17q89 44 273 301q-13 22 -27 44q-118 187 -216 262q-17 13 -19.5 21.5t9.5 25.5q10 12 25.5 22t24.5 -1q106 -133 233 -332l4 6q42 61 116 162.5t99 138.5
q12 17 22.5 18.5t25.5 -12.5q6 -6 12 -13.5t10 -19.5t-5 -18z" />
    <glyph glyph-name="Y" unicode="Y" horiz-adv-x="571" 
d="M212 760q-2 -20 -15.5 -179.5t-15.5 -251.5q-4 -149 36 -242q10 -24 31.5 -37.5t44.5 -13.5q27 -1 55.5 9t40.5 32q63 118 81.5 268.5t11.5 341.5q-4 26 -1 37t24 14q2 1 5 1q0 2 1 3q5 8 24 10q9 1 19.5 0t21 -6.5t9.5 -15.5q-32 -426 -41 -725q-2 -75 -16.5 -135
t-54.5 -109q-23 -28 -61.5 -42t-79.5 -13q-40 2 -77 25t-62 61q-15 23 -15 34.5t21 22.5q8 3 17.5 6.5t22 4t15.5 -8.5q14 -55 45 -72q36 -19 77 -7q37 12 66 42.5t37 69.5q11 45 14 97.5t3 121.5q1 33 1 58q-22 -62 -56 -104q-23 -28 -56 -46t-67 -23q-40 -5 -81 10t-52 46
q-27 80 -39.5 176t-12 179.5t1.5 176.5t-1 166q0 23 4.5 30.5t23.5 9.5q9 1 19 0t20.5 -6.5t10.5 -15.5z" />
    <glyph glyph-name="Z" unicode="Z" horiz-adv-x="591" 
d="M73 708q185 -11 277 -14q111 -3 170 6q23 5 33 2q4 -1 7 -6q13 -6 25 -16q14 -13 5 -24q-35 -47 -141 -181.5t-162 -209.5q-6 -8 -31 -41.5t-33.5 -45.5t-29.5 -40.5t-33 -45.5q-7 -10 -14 -22q31 -1 70 -2q102 -2 156 -4q23 -1 88 -10t93 -5q5 1 14.5 3t12.5 2.5t8 -1
t7.5 -6.5t5.5 -14q1 -5 2.5 -13t2 -18.5t-2.5 -17t-10 -6.5q-48 4 -148.5 21.5t-153.5 17.5q-116 2 -191 -17q-2 -3 -4 -7q-4 -7 -5.5 -9l-4.5 -6t-5 -4t-6 -0.5t-8.5 1.5t-10.5 5q-8 4 -16 10t-15.5 16.5t-1.5 17.5q13 15 25 30q4 18 16 19q173 205 263 326q12 17 49 65.5
t55 73.5t43 64q8 15 16 28q-13 1 -27 3q-63 7 -104.5 10.5t-81.5 4.5q-117 2 -181 -16q-20 -5 -29 0t-12 25q-3 16 0.5 34t17.5 17z" />
    <glyph glyph-name="bracketleft" unicode="[" horiz-adv-x="365" 
d="M250 615q-57 30 -102 25q-5 -1 -13 -2q2 -163 21 -459q2 -35 5.5 -100t6.5 -118q2 -38 5 -74q25 -4 43 -6q23 -3 43 -4q35 0 48 15q10 13 16.5 17.5t14.5 2t19 -13.5q3 -4 7.5 -10.5t10 -16t5 -16t-6.5 -10.5q-38 -15 -80.5 -17t-72.5 2q-23 1 -41 0q-1 -1 -1 -2
q-3 -11 -25 -14q-7 -3 -30 0q-18 1 -22 10q-5 7 -8 21q0 8 -0.5 20t4.5 23q2 5 6 7q9 228 -4 412q-6 81 -9 116.5t-12 100.5q-6 54 -15 96q-13 -3 -21 0q-10 4 -13 27q-3 7 -0.5 30.5t15.5 22.5q92 -12 128 -9q11 1 24.5 1.5t31 1t29.5 0.5q21 1 27.5 -8.5t1.5 -30.5
q-4 -15 -14 -31t-22 -9z" />
    <glyph glyph-name="backslash" unicode="\" horiz-adv-x="299" 
d="M41 711q52 -129 148 -409q55 -162 108 -250q2 -3 7.5 -11.5t6.5 -10.5t2.5 -7t-0.5 -7.5t-5.5 -6.5t-10.5 -9q-4 -3 -10.5 -6.5t-16 -7.5t-17 -3.5t-10.5 7.5q-29 77 -76.5 222.5t-60.5 183.5q-61 176 -124 262q-13 17 -12.5 27t17.5 21q7 5 16.5 9.5t21.5 5t16 -9.5z
" />
    <glyph glyph-name="bracketright" unicode="]" horiz-adv-x="189" 
d="M0 708q164 19 197 -80q8 -17 6.5 -46.5t-5.5 -49.5t-10.5 -50.5t-8.5 -49.5q-18 -164 -16 -274q1 -15 11 -223q2 -31 -18 -71t-52 -44q-58 -8 -127 3q-2 0 -5 1q-25 4 -31.5 9.5t-2.5 26.5q1 9 4 18.5t10.5 20t16.5 6.5q16 -6 35.5 -12t44.5 -11.5t46 -4.5t31 10
q5 1 4 20t-3.5 37t-6 45t-4.5 45q-4 195 4 306q2 32 9 104.5t9 110.5q2 21 3.5 44t2.5 39l2 14q-5 2 -11 3.5t-13.5 1t-13 -0.5t-14.5 -2l-13.5 -3t-14.5 -4t-12.5 -4t-12.5 -4l-10 -3q-20 -7 -29.5 -3.5t-14.5 22.5q-5 9 -3.5 30.5t16.5 22.5z" />
    <glyph glyph-name="asciicircum" unicode="^" horiz-adv-x="438" 
d="M18 273q10 30 27.5 66.5t28.5 57t41 74t37 67.5q57 103 63 149q0 3 0.5 9t1 8t1.5 6.5t1.5 6t2.5 4t4 3t5 1.5t7.5 0.5t9.5 -1t12 -2.5q6 -1 14 -3q13 -2 27 -9q16 -9 11 -23q-20 -62 47 -166q59 -91 82 -135q12 -20 11 -31t-22 -19q-8 -4 -17.5 -6.5t-22.5 -1.5t-15 10
q-19 93 -91 210q-19 31 -31 63q-22 -38 -51 -87q-32 -53 -51 -87q-59 -109 -54 -153q2 -21 -4.5 -29t-26.5 -8q-16 0 -34.5 6.5t-13.5 19.5z" />
    <glyph glyph-name="underscore" unicode="_" horiz-adv-x="581" 
d="M-10 -79q117 8 344 7q134 -1 209 16q22 8 32.5 6t15.5 -23q2 -5 3 -12.5t1.5 -17.5t-2.5 -17t-10 -7q-63 -2 -176.5 2.5t-162.5 4.5q-141 0 -221 -31q-19 -8 -28.5 -4.5t-15.5 22.5q-5 9 -4 31t15 23z" />
    <glyph glyph-name="grave" unicode="`" horiz-adv-x="223" 
d="M93 761q10 -16 24 -41t23.5 -39.5t18.5 -25.5q17 -21 47 -30q13 -4 18.5 -6.5t10 -7t3.5 -11.5t-6 -18q-2 -5 -5.5 -11.5t-10 -15.5t-12.5 -11t-12 1q-21 18 -36 35t-31.5 39t-20.5 27q-27 34 -56 50q-34 18 -7 47q6 7 14.5 13.5t20.5 10.5t17 -6z" />
    <glyph glyph-name="a" unicode="a" horiz-adv-x="462" 
d="M466 366v-4l-2 -4q-4 -12 -8 -30l-15 -50q-11 -72 -14 -117q-4 -44 -7 -71q8 3 29 0q23 -3 22 -16v-14t-1 -17.5t-3 -16t-6.5 -16.5t-11.5 -12q-22 -14 -47 2.5t-30 43.5q-3 21 1 74l-8 -12q-18 -29 -41 -52t-50 -41q-47 -29 -110 -9t-89 70q-37 72 -14 208
q31 188 149 252q36 16 76 7.5t78 -32.5q18 -12 36 -32q-1 2 -1 4q-3 21 2.5 29t25.5 10q9 1 19.5 0t21 -6.5t9.5 -15.5q-2 -16 -17 -105l1 -1q10 -7 8 -16q-1 -4 -3 -10zM385 364q-14 36 -37 68q-29 39 -67 51q-33 10 -73 -10.5t-59 -62.5q-37 -77 -41.5 -173.5t28.5 -167.5
q8 -16 39.5 -20t59.5 6q57 20 91 75q11 18 19.5 38.5t14.5 47.5t9 44t9 54q4 33 7 50z" />
    <glyph glyph-name="b" unicode="b" horiz-adv-x="490" 
d="M116 178q-1 -32 0 -56q7 -18 20 -29q35 -30 92 -29q47 1 91.5 19t77.5 52q49 51 55 144q6 119 -33 170q-16 21 -46.5 28t-60.5 -2q-56 -17 -101 -68q-40 -45 -61.5 -96t-20.5 -97q0 -22 -4 -30q-2 -4 -9 -6zM64 80q-23 31 -32 69q-7 25 -4 36q4 10 24 14q3 34 15 73
q0 11 1 22q3 91 5 138q0 18 1 55t1.5 54.5t1.5 47.5t0.5 47.5t-1 39.5t-2.5 38t-5 30q-4 21 2 29.5t26 9.5q9 1 19.5 0.5t21 -6t9.5 -15.5q-18 -155 -26 -374q10 14 21 28q42 49 92.5 81t99.5 34q57 3 103.5 -45t60.5 -124q21 -104 -17 -185q-29 -61 -80 -103.5t-112 -59.5
q-75 -22 -145 5q-2 1 -4 1v-2q1 -4 -2 -8.5t-10 -11.5q-4 -3 -11 -7.5t-16.5 -10t-16 -5t-9.5 6.5q-8 33 -11 86v12z" />
    <glyph glyph-name="c" unicode="c" horiz-adv-x="450" 
d="M388 339q-24 86 -78 124q-24 18 -55.5 17t-59.5 -20q-56 -37 -78 -117q-21 -78 1 -147q14 -45 44.5 -79.5t70.5 -49.5q22 -8 46.5 -6.5t40.5 10.5q32 18 42 67q2 5 3 12t1.5 10t2 8t3 6t5 3.5t8 1.5t11.5 -1q6 0 13 -1.5t17 -5t15 -9t3 -12.5q-7 -20 -17 -40.5t-26 -43.5
t-39.5 -40t-51.5 -23q-49 -11 -99.5 8t-78.5 54q-49 63 -64 149t9 166q19 61 72 109t114 47q99 -1 193 -156q11 -18 8 -28t-22 -18q-8 -4 -18 -6.5t-21.5 -0.5t-14.5 12z" />
    <glyph glyph-name="d" unicode="d" horiz-adv-x="489" 
d="M386 346q-13 43 -46 80.5t-79 43.5q-37 4 -74 -24t-52 -75q-15 -55 -8 -108.5t31 -104.5q14 -29 34.5 -50.5t43.5 -30.5q18 -10 45 -3.5t43 28.5q73 96 79 232h-3q-11 3 -14 12zM460 767q-17 -165 11 -446q2 -21 6.5 -127t16.5 -153q1 -8 5 -18t4.5 -14t-3 -9t-14.5 -10
l-12.5 -5t-17.5 -5.5t-17 -0.5t-8 9q-4 60 -8 179q-16 -36 -38 -70q-24 -36 -58.5 -56.5t-67.5 -18.5q-34 1 -67 23t-57 57q-55 76 -61 177q-7 115 48 182q33 40 85.5 57t101.5 4q46 -11 83 -49l5 -5q-5 47 -13 109q-17 118 -21 166q-4 26 0 36.5t26 12.5h18q6 1 11 0l12 -2
q10 -1 20.5 -7t9.5 -16z" />
    <glyph glyph-name="e" unicode="e" horiz-adv-x="452" 
d="M95 226q-24 4 -64 11q-22 4 -28.5 11t-2.5 26q3 16 11.5 31t22.5 11q35 -11 66 -20q4 32 12 66q19 76 56 116q28 31 66.5 42t72.5 -2q38 -15 72 -46.5t53 -71.5q14 -30 15.5 -64.5t-13.5 -65t-43 -44.5q-23 -12 -57 -16.5t-60.5 -4.5t-79.5 7q-23 2 -41 5q4 -53 22 -102
q12 -29 41 -47t62 -17q63 0 104 60q4 6 9 14.5t7 11.5t6.5 6t10 1.5t13.5 -5.5t16.5 -9.5t16.5 -15.5t3 -17q-14 -18 -33.5 -36t-48 -37t-64.5 -28.5t-72 -4.5q-50 6 -88 51t-53 103q-9 38 -10 81zM154 283q30 -7 54 -10q74 -9 123.5 -2t59.5 25q15 28 -8.5 77.5t-69.5 85.5
q-19 15 -41.5 18.5t-36.5 -5.5q-39 -20 -58 -76q-18 -56 -23 -113z" />
    <glyph glyph-name="f" unicode="f" horiz-adv-x="368" 
d="M232 600q2 64 -14 106q0 1 -5.5 -3.5t-15 -20.5t-16.5 -41q-17 -56 -20 -127q-1 -22 -1 -42l35 5q52 6 148 3q14 0 19.5 -0.5t12 -4t7.5 -10t0 -18.5q-1 -9 -3.5 -19t-9 -20.5t-15.5 -8.5q-104 34 -194 24q1 -21 2 -40q2 -36 11.5 -99.5t16 -108.5t2 -96t-26.5 -83
q-25 -35 -65 -20q-27 10 -30 28q-1 7 3 12q10 13 34 26q15 9 15 0q0 45 -5 216q-3 86 -4 157q-64 -14 -110 -39q-19 -10 -29 -6.5t-16 23.5q-5 8 -5 30t14 23q43 5 119 16q14 2 27 4v73q3 138 66 206q21 20 55 8.5t53 -42.5q5 -9 9.5 -22.5t5.5 -21.5t3.5 -27t3.5 -22
q3 -22 -2.5 -30t-25.5 -10q-16 -1 -33 3.5t-16 18.5z" />
    <glyph glyph-name="g" unicode="g" horiz-adv-x="475" 
d="M478 503q-1 -53 4 -159q1 -27 2 -52v-1q8 -20 4 -29q-1 -3 -3 -5q2 -54 4 -101q3 -83 -7 -181.5t-37 -164.5q-11 -29 -55 -45t-93.5 -16.5t-96.5 6.5q-44 9 -84 40.5t-60 79t4 103.5q3 3 16.5 0.5t26.5 -15t9 -26.5q-2 -8 -5.5 -18t-11.5 -19v-1q3 -2 7 -6q10 -9 18 -23
q12 -22 34 -36q23 -15 51 -21q65 -16 99 -8q68 17 95.5 53.5t29.5 107.5q2 94 -1 188q-7 -14 -15 -27q-38 -60 -92.5 -98t-106 -36.5t-88.5 57.5t-45 140q-8 91 28 190q27 77 74 113q34 26 73 34.5t74 -6.5q40 -19 76 -68q-2 17 -5 33q-3 21 2.5 29t25.5 10q16 2 33 -2.5
t16 -19.5zM399 329q-17 68 -43 101q-27 34 -67 41.5t-71 -14.5q-30 -22 -52 -69t-31 -110q-9 -50 -5.5 -101t17.5 -83q12 -26 34.5 -38.5t46.5 -8.5q55 11 99 68q67 85 72 206v8z" />
    <glyph glyph-name="h" unicode="h" horiz-adv-x="458" 
d="M51 209q-12 6 -9 18q4 21 11 42q2 86 2 168q0 32 1.5 102t1 121.5t-4.5 95.5q-2 21 4.5 29t26.5 8q9 0 19 -1.5t20 -7.5t9 -16q-25 -172 -28 -388q30 47 70 85q68 63 143 64q43 0 83.5 -28t50.5 -72q14 -57 19 -111t1.5 -111t-7.5 -91.5t-14 -95.5q-2 -15 -3 -22
q0 -2 -1 -5q-1 -9 -2 -13t-2.5 -9.5t-3.5 -7.5t-6 -4t-9.5 -1.5t-12.5 1.5q-9 2 -18.5 5t-20 10.5t-6.5 16.5q41 109 53 242q8 88 -3 138q-11 48 -35.5 78t-53.5 30q-35 1 -75.5 -23t-73.5 -63q-57 -69 -57 -154q0 -22 -6 -29q-2 -4 -9 -6q3 -126 11 -201q5 -24 2 -34
t-25 -13q-7 -4 -30 -1t-23 16q8 122 11 238z" />
    <glyph glyph-name="i" unicode="i" horiz-adv-x="156" 
d="M164 696q10 -19 3 -40q-6 -19 -20.5 -30t-33.5 -12q-27 -1 -47 18q-14 13 -16 31q-6 33 21 52q14 10 33 11q10 1 23 -2q26 -4 37 -28zM163 529q-31 -137 -24 -297q6 -118 17 -197q6 -23 2.5 -33t-25.5 -13q-7 -3 -30 -0.5t-23 15.5q12 161 7 308q-1 23 -0.5 105t-2.5 106
q-2 21 5 28.5t28 6.5q8 0 18.5 -2.5t20 -9.5t7.5 -17z" />
    <glyph glyph-name="j" unicode="j" horiz-adv-x="167" 
d="M158 726q24 -15 24 -43q0 -22 -10 -39q-14 -23 -40 -29q-19 -4 -37 3q-14 6 -24 15q-12 11 -18 24q-11 24 -1 48q10 25 38 34q16 4 36 2q19 -1 32 -15zM174 544q-9 -72 -8 -261t-8 -311q-4 -50 -26.5 -93.5t-58.5 -61.5q-48 -25 -106.5 -7.5t-97.5 66.5
q-16 19 -15.5 31.5t22.5 22.5q7 4 16.5 7.5t22.5 3.5t15 -9q17 -62 60 -70q30 -6 55.5 7t37.5 37q40 80 36 233q-4 168 -23 399q-2 21 5 28.5t27 6.5q9 0 18.5 -2.5t19.5 -9.5t8 -17z" />
    <glyph glyph-name="k" unicode="k" horiz-adv-x="480" 
d="M148 745v-127.5t4 -149.5q2 -86 3 -130q24 15 61 38q44 28 76 54q87 70 129 138q11 18 20.5 20t25.5 -10q13 -10 23 -25.5t-1 -24.5q-129 -108 -224 -181q-12 -9 -43 -33q-19 -13 -34 -25q22 -18 43 -40q30 -32 48 -53t48 -62.5t41 -54.5q13 -17 32.5 -25.5t29.5 -4.5
q3 1 4 7t-0.5 17t-6.5 24q-2 5 -5.5 13t-4.5 10.5t-2 7.5t1 7.5t6.5 6t11.5 7.5q5 2 12 4.5t17 5t17 1t9 -8.5q6 -39 0.5 -75.5t-25.5 -61t-47 -21.5q-17 2 -33.5 10.5t-26.5 15t-25 25t-19.5 24.5t-19.5 30.5t-16 26.5q-42 63 -81 99q-19 19 -39 28q0 -115 -9 -214
q-2 -26 -8 -33.5t-29 -3.5q-8 2 -17.5 4.5t-20 10.5t-7.5 16q25 76 34 186h-1q-3 -2 -4.5 -1.5t-4.5 1t-5.5 2.5t-5 4.5l-6.5 6.5q-3 4 -7 9.5t-9.5 15.5t-5 16t5.5 11q10 6 20 11q-1 13 3 30q6 19 18 14q3 -1 7 -3q0 49 -2 103q-8 202 -31 284q-5 20 0 29t25 12q16 3 34 0
t17 -18z" />
    <glyph glyph-name="l" unicode="l" horiz-adv-x="192" 
d="M162 728q-1 -17 -5.5 -80.5t-6.5 -98.5t-5 -93t-4.5 -111t-1.5 -105q-1 -78 5.5 -134t16.5 -58q14 -3 23 -1.5t14.5 -2.5t7.5 -19q4 -32 -5 -49q-4 -7 -10 -4q-29 13 -48.5 31.5t-30.5 37.5t-16.5 47t-6.5 50t-1 57q0 8 5 192q5 85 4.5 175.5t-11.5 143.5q-5 21 0 29.5
t25 11.5q16 2 34 -1.5t17 -17.5z" />
    <glyph glyph-name="m" unicode="m" horiz-adv-x="737" 
d="M372 0q1 20 1 87.5t4 126.5q4 56 13 109q-3 18 -7 38q-7 37 -21 69t-33 61q-12 18 -61 -2.5t-83 -56.5q-41 -44 -59 -111q1 -59 1 -130q0 -111 -11 -222l-1.5 -13.5t-2 -10.5t-3.5 -8t-6 -4t-9.5 -2t-13.5 2q-9 1 -18.5 4t-20 10.5t-6.5 16.5q42 121 42 305q-12 3 -25 10
q-15 9 -10 23q15 36 32 67q-5 112 -21 168q-6 21 -0.5 29.5t25.5 11.5q16 3 33.5 -0.5t17.5 -17.5q-2 -31 -2 -113q37 45 82 74q36 23 80 24.5t80 -21.5q27 -17 45 -53q8 -18 14 -38q24 42 60 69q31 23 75 30t83.5 -6t54.5 -43q26 -51 38 -117t12.5 -116t-1.5 -125.5
t0 -113.5q3 -25 0.5 -35.5t-23.5 -13.5q-8 -3 -31 0t-22 16q2 27 7.5 89.5t9 118t3.5 105.5q1 118 -33 163q-25 31 -68.5 34t-74.5 -25q-54 -49 -74 -134q6 -57 10 -133q8 -123 12 -169q5 -24 2 -34.5t-25 -13.5q-6 -3 -24 -1q-15 -1 -31 4q-17 4 -16 18z" />
    <glyph glyph-name="n" unicode="n" horiz-adv-x="488" 
d="M43 3q3 77 5 113.5t12 97.5q4 18 8 35l-2 36q-1 22 -2.5 69.5t-3.5 83.5t-7 68q-3 21 3.5 29t26.5 8q9 1 19.5 -0.5t20.5 -8t8 -16.5q-10 -66 -13 -138q36 63 84 101q30 24 74 36t85 3.5t60 -37.5q29 -48 41 -114t10.5 -121.5t0.5 -116t12 -93.5q3 -9 10.5 -19.5t7 -16
t-11.5 -15.5q-4 -4 -10 -8t-16 -9.5t-16 -5.5t-11 6q-22 52 -25 138.5t4 170.5q1 17 2 26q5 104 -34 143q-28 27 -69.5 28t-71.5 -24q-43 -35 -75 -89t-49 -111q-1 -4 -2 -7q1 -20 2 -41q7 -110 18 -176q6 -22 2.5 -32.5t-25.5 -13.5q-6 -3 -27 0q-14 -1 -28 2q-17 5 -17 19
z" />
    <glyph glyph-name="o" unicode="o" horiz-adv-x="476" 
d="M406 348q-53 116 -105 136q-29 11 -65.5 -8.5t-61.5 -58.5q-23 -36 -32.5 -83t-2.5 -94q7 -52 31 -95t56 -61q24 -14 54.5 -11.5t57.5 19.5q53 33 73 99q20 67 5 149q-7 1 -10 8zM406 485v1q7 2 17 5.5t17.5 2t9.5 -8.5q0 -1 3.5 -11.5l5 -15t6 -18.5t6 -21t5.5 -23
t5.5 -25t4.5 -26.5t3 -27.5t1 -27.5t-1 -26.5q-5 -62 -31 -115.5t-66 -83.5q-49 -37 -111.5 -38t-110.5 37q-37 30 -60 86t-23 113q1 83 36 156.5t92 111.5q34 20 78 14t84 -33q11 -7 21 -17q4 -4 8 -9z" />
    <glyph glyph-name="p" unicode="p" horiz-adv-x="480" 
d="M59 192q-5 4 -4 11q1 18 5 38q1 17 2 39q1 50 2 79t0 70.5t-4 74.5q-2 21 4 29t26 9q9 0 19 -1.5t20 -7.5t9 -16q-8 -57 -14 -115q10 16 22 32q46 60 103.5 96.5t110.5 27.5q49 -9 82 -71.5t46 -149.5q19 -124 -15 -197q-33 -71 -97 -109t-128 -21q-49 13 -90 63
q-26 32 -52 77q0 -29 -1 -57q-3 -175 8 -277q5 -23 2 -33.5t-25 -13.5q-7 -3 -30.5 -0.5t-22.5 15.5q18 260 22 408zM137 265q1 -1 2 -4q29 -110 75 -156q33 -34 77 -42t76 13t51.5 67.5t24.5 107.5q8 84 -24 176q-13 38 -35.5 60.5t-45.5 21.5q-27 -1 -57.5 -19.5
t-56.5 -49.5q-43 -52 -68 -111q-13 -33 -19 -64z" />
    <glyph glyph-name="q" unicode="q" horiz-adv-x="572" 
d="M395 335q4 67 -14 96q-11 17 -29.5 28.5t-38.5 11.5q-41 0 -83 -25t-70 -71q-24 -40 -33.5 -96t-1.5 -109q6 -39 40 -70t85 -42q28 -6 55.5 9.5t47.5 45.5q33 49 48 135q6 34 10 69q-17 4 -16 18zM512 553q-6 -92 -9 -277.5t-6 -256.5q-1 -18 1 -68q1 -11 1 -21q1 0 1 1
q3 5 6 9q11 17 16 22.5t13 5.5t21 -10q5 -3 10 -7.5t12 -13t8 -15t-4 -12.5q-7 -6 -32.5 -41t-49.5 -51q-30 -21 -45.5 -12t-20.5 29.5t-2 48.5q21 178 21 284v59q-8 -31 -17 -59q-13 -35 -28 -69q-26 -55 -91 -77t-130 4q-56 23 -86.5 77t-26.5 121q5 92 42.5 165.5
t94.5 110.5q39 25 88.5 27t86.5 -19q18 -10 33 -26l-2 44q-4 24 -1.5 34.5t24.5 13.5q6 4 27 1q14 1 29 -3q17 -4 16 -19z" />
    <glyph glyph-name="r" unicode="r" horiz-adv-x="351" 
d="M98 328l-2 2q-13 10 -23 25.5t1 24.5q7 6 18 14q-9 65 -25 109q-7 20 -2.5 29.5t23.5 13.5q9 5 30.5 3t22.5 -17q1 -38 3 -92q20 17 38 32q29 22 57 39q29 18 68 0t53 -59q8 -22 4 -32.5t-27 -13.5q-8 -4 -31 -1t-22 16q4 52 6 52q-25 2 -67 -34q-52 -46 -75 -89
q2 -57 5 -126q6 -151 12 -194q5 -23 2 -33t-25 -13q-8 -3 -31 -0.5t-22 15.5q17 207 11 303z" />
    <glyph glyph-name="s" unicode="s" horiz-adv-x="478" 
d="M345 360q3 55 -25 76q-29 23 -80 20q-52 -2 -77 -30q-9 -9 -14 -25t-5 -26t2 -14q27 -16 84.5 -37t104.5 -38.5t92.5 -51.5t61.5 -76q13 -34 -17.5 -73.5t-85 -67.5t-109.5 -33q-57 -6 -109 15.5t-79 58.5q-21 28 -4.5 68.5t56.5 52.5q6 2 14 2.5t14 0.5t16.5 -2t15.5 -3
t18 -4t17 -4t13 -3t11.5 -2.5t8 -2.5t6.5 -3l4 -4t3 -6v-7.5t-1 -10.5q-2 -9 -5 -18.5t-10.5 -20t-16.5 -6.5q-23 9 -60 18t-53 5q-2 -1 2.5 -11.5t18.5 -24t35 -20.5q62 -19 132.5 -4t101.5 55q19 26 4 56.5t-53 50.5q-18 10 -39.5 18t-54 18t-45.5 15q-4 1 -22 7
t-24.5 8.5t-21 8t-21.5 10t-17 10.5t-16.5 12.5t-10.5 14.5q-19 34 -3.5 82t51.5 73q33 22 77 27t82 -7q42 -13 71 -49t39 -80q5 -21 -1 -29.5t-26 -10.5q-16 -1 -33.5 3.5t-16.5 18.5z" />
    <glyph glyph-name="t" unicode="t" horiz-adv-x="289" 
d="M-10 504q26 6 56 8.5t44 2.5h11q1 19 2 33q2 32 2 69t-3 62q-3 21 3 29t27 9q8 0 18.5 -1.5t21 -7.5t8.5 -16q-17 -93 -26 -181q25 -2 29 -2q36 -2 37 7q3 22 12 28t31 -3q15 -7 31 -20t6 -22q-8 -6 -17 -12t-15.5 -10t-17 -6.5t-16 -4.5t-17.5 -3t-15.5 -1.5t-17.5 0
t-16 0.5t-18 1h-1q-10 -119 -7 -228q2 -74 17.5 -128.5t36.5 -66.5q6 -3 14 -6.5t11 -5t6 -5t2.5 -9t-3.5 -15.5q-2 -5 -5 -11.5t-9 -16t-11.5 -12.5t-11.5 0q-83 66 -96 228q-4 62 1 192q1 34 4 86q-38 -3 -55 -20q-15 -14 -25.5 -13t-22.5 18q-5 7 -9.5 17t-5.5 22.5
t10 14.5z" />
    <glyph glyph-name="u" unicode="u" horiz-adv-x="479" 
d="M162 487q-2 -13 -12.5 -70t-15 -86t-9 -76.5t-2.5 -86.5q1 -33 18 -60.5t45 -37.5q36 -14 75 -9.5t55 25.5q51 65 70 170t13 221q-4 24 -1.5 34t24.5 13q6 4 27 1q6 1 13 0q11 -1 21.5 -6.5t9.5 -15.5q-16 -148 -15 -294q1 -121 10 -187q6 -23 2.5 -33t-25.5 -13
q-7 -4 -30.5 -1t-22.5 16q9 98 13 170q-13 -36 -33 -67q-26 -38 -60 -59q-37 -22 -84 -25.5t-89 18.5q-94 52 -90 220q1 40 8 117.5t6 110.5q0 22 6 29.5t25 7.5q9 0 19.5 -1.5t20.5 -8t8 -16.5z" />
    <glyph glyph-name="v" unicode="v" horiz-adv-x="472" 
d="M86 540q24 -127 106 -291q20 -40 56 -119q35 99 91 251q42 114 46 157v7q1 11 2 16t4 10t9.5 6t17.5 -1q5 0 12 -2q6 -1 14 -3q13 -2 28 -10q16 -9 10 -22v0q4 -6 4 -17q0 -23 -22 -34q-10 -5 -27 -6q-10 -23 -23 -52q-40 -92 -63 -155q-53 -148 -55 -232q-1 -22 -8 -29
q-4 -4 -11 -5q-3 -1 -7 -3q-8 -4 -17.5 -6.5t-22.5 -1.5t-15 10q-31 149 -105 295q-16 31 -46.5 99t-47.5 102q-10 19 -6.5 28.5t23.5 16.5q8 5 29.5 5t23.5 -14z" />
    <glyph glyph-name="w" unicode="w" horiz-adv-x="707" 
d="M59 492q16 -58 39.5 -160t33.5 -142q19 -75 51 -126q63 97 98 218q29 99 39 191q0 2 0.5 8t0.5 8t1 6.5t1.5 5.5l2 4t3 3.5t3.5 2t5.5 1.5h7h8.5q6 -1 13 -2.5t16 -4.5q4 -1 8 -3h10q21 -1 22 -15q14 -163 47 -301q12 -49 25 -84q36 88 84 242q2 7 9.5 31t9.5 31.5
t8.5 26.5t10 27.5t9 22.5t11 24t10.5 19q13 21 23.5 23.5t27.5 -13.5q4 -4 8.5 -9.5t10.5 -14.5t5.5 -15.5t-4.5 -12.5q-62 -50 -124 -256q-43 -145 -51 -203q0 -1 2 -3q2 -4 2 -5.5t0.5 -5t-1.5 -6t-5 -6t-7 -7.5q-5 -4 -10.5 -8t-15.5 -9.5t-16 -5.5t-11 6q-8 20 -16 43
q-3 4 -3 8q-7 19 -11 34q-5 18 -13 50t-11.5 46.5t-12 54.5t-11.5 52t-9 42t-9.5 44t-9.5 36q-1 6 -3 12q-27 -83 -68 -209q-12 -37 -40.5 -104t-38.5 -94q-7 -19 -16 -23q-7 -3 -17 1q-2 -2 -5 -4q-10 -5 -16.5 -4.5t-11.5 5.5q-21 45 -40 102t-26.5 87t-25.5 103
q-11 43 -18 68t-21 59.5t-31 59.5q-12 17 -10.5 27t19.5 20q8 5 18 8.5t21.5 3t14.5 -10.5z" />
    <glyph glyph-name="x" unicode="x" horiz-adv-x="457" 
d="M438 464q-21 -28 -94 -130q-23 -34 -44 -62q7 -9 14 -19q5 -7 31.5 -44.5t37 -51.5t31 -40.5t37.5 -46.5q2 -2 7 -8t6 -7.5t4.5 -5.5t3 -5.5t0 -5t-1.5 -6t-5 -6t-7 -8.5q-5 -3 -10.5 -7t-15 -9.5t-16 -5t-11.5 5.5q-78 137 -136 227q-24 -31 -42 -54
q-104 -130 -119 -183q-2 -5 -3.5 -11.5t-2 -9.5t-2 -7t-3.5 -5.5t-5.5 -3t-8.5 -1t-12 1.5q-5 1 -12.5 3.5t-17 6.5t-14 9.5t-1.5 11.5q25 44 61.5 92t88.5 111q41 49 65 80q-11 16 -22 31q-93 128 -157 183q-16 14 -17 23.5t13 24.5q6 6 14.5 11.5t20.5 9t17 -6.5
q67 -101 162 -235q49 72 92 182q8 20 17.5 23.5t27.5 -6.5q14 -8 25.5 -21t3.5 -25z" />
    <glyph glyph-name="y" unicode="y" horiz-adv-x="434" 
d="M133 513q-10 -102 -14 -166t-0.5 -152t21.5 -148q6 -19 31 -20.5t60 18.5q37 21 97 88q4 4 10 11.5t8 9.5t6.5 5t7.5 3l4 -2l5 80q2 35 4 82t1.5 89.5t-3.5 80.5q-1 22 3.5 30t24.5 10q8 1 18.5 0t21.5 -6.5t9 -15.5q-8 -68 -16 -190t-20 -230t-35 -211
q-12 -56 -65 -98.5t-114 -40.5q-33 1 -63.5 16t-48.5 32t-39.5 39.5t-30.5 29.5q-6 5 -15 10.5t-11.5 8t-3 9t4.5 17.5q3 5 6.5 10.5t10.5 14.5t12.5 11t12.5 -1q18 -14 52 -61.5t56 -61.5q31 -20 70.5 -19t60.5 20q74 65 86 246q-11 -11 -18 -17q-11 -9 -33 -26
t-36.5 -25.5t-33 -16t-34.5 -8.5q-53 -3 -90 47.5t-45 124.5q-7 62 -6 185t-6 171q-3 21 2.5 29t25.5 10q8 1 18.5 0t21 -6.5t9.5 -15.5z" />
    <glyph glyph-name="z" unicode="z" horiz-adv-x="494" 
d="M49 487q85 5 235 -2q86 -4 130 2q4 10 10 13q9 4 27 -4q15 -6 29 -18.5t5 -23.5q-11 -15 -22 -29q-3 -10 -9 -12q-96 -127 -195 -246q-34 -41 -79 -90q61 -2 128 -1q15 1 71 1.5t87 2.5q15 1 24.5 0.5t13.5 -7t4 -22.5q0 -6 -0.5 -13t-2.5 -17t-6.5 -16t-12.5 -5
q-142 29 -239 26q-75 -3 -125 -11l-11 -11q-13 -14 -18.5 -18t-13.5 -2t-19 13q-4 5 -8 10.5t-9.5 15t-4.5 15.5q0 5 5 11v5q1 11 6.5 21.5t15.5 9.5q13 -1 26 -3q100 76 200 202q64 79 95 136l-12 2q-46 7 -82.5 11.5t-68.5 5.5q-87 2 -139 -23q-19 -10 -28.5 -6t-16.5 23
q-5 9 -4.5 31t14.5 23z" />
    <glyph glyph-name="braceleft" unicode="{" horiz-adv-x="343" 
d="M316 658q-51 23 -59 18q-22 -13 -36 -70q-7 -33 -16 -103t-12 -86q-15 -94 -41 -133q-11 -15 -25 -27q42 -27 53 -71q6 -26 6 -57.5t-3.5 -56.5t-8 -57t-5.5 -53q-1 -46 45 -74q40 -25 68 -1q4 3 10.5 9t9 7.5t7 3.5t7.5 1t7.5 -4t10.5 -9q3 -4 7.5 -9.5t10.5 -15
t5.5 -15.5t-5.5 -12q-74 -45 -123 -30q-31 9 -57.5 28.5t-38.5 45.5q-9 19 -11.5 44.5t-1 44.5t5.5 53.5t5 51.5q8 100 -18 133q-11 14 -36 17q-33 -11 -71 -7q-4 -2 -9 -3q-19 -8 -28.5 -4.5t-15.5 21.5q-6 9 -5.5 30.5t15.5 23.5q4 0 8 1q2 3 5 6q7 9 13 11t13 -1
q18 -14 35 -19l12 -2q14 -1 27 4q33 13 52 70q5 16 9.5 34t8 40.5t5.5 36.5t5.5 42.5t5.5 39.5q13 94 32 128q17 30 52.5 44t79.5 10q21 -2 27 -11t1 -28q-4 -16 -14 -30.5t-24 -9.5z" />
    <glyph glyph-name="bar" unicode="|" horiz-adv-x="136" 
d="M150 735q0 -58 -6 -454q-3 -194 -6 -255q-1 -25 -7.5 -33t-29.5 -4q-8 2 -17.5 5t-20 10.5t-7.5 16.5q40 121 41 411q1 214 -20 272q-7 20 -3 29.5t24 14.5q9 4 31 2.5t21 -15.5z" />
    <glyph glyph-name="braceright" unicode="}" horiz-adv-x="335" 
d="M-33 685q69 47 120 41q43 -5 71.5 -36.5t29.5 -69.5q0 -38 -14 -112t-17 -99q-8 -77 17 -101q13 -13 40.5 -15.5t40.5 6.5q5 3 12 8.5t10 7t8 2.5t9 -3q2 -1 5 -3q3 1 6 1q11 0 24 -15q6 -6 11.5 -14.5t8.5 -20.5t-7 -17q-92 -66 -106 -116q-9 -31 -9.5 -99.5
t-7.5 -103.5q-4 -23 -19 -45t-37 -35q-37 -21 -75 -25t-65.5 17.5t-25.5 66.5q1 21 16 27t35 -9q4 -3 9 -7.5t12.5 -13t8 -15t-3.5 -12.5q-5 -4 -9 -8q8 2 17 4q61 17 81 52q17 29 16 98q-2 104 57 206q-21 0 -43 5q-35 12 -59 39.5t-28 59.5q-3 31 -0.5 64t13 87t12.5 68
q14 92 -7 109q-14 12 -44 4t-51 -28q-16 -15 -24.5 -16t-23.5 13q-6 7 -11.5 15.5t-9 20.5t6.5 17z" />
    <glyph glyph-name="asciitilde" unicode="~" horiz-adv-x="573" 
d="M12 101q-9 26 -12 55.5t5.5 63t29.5 55.5q26 28 72 34.5t84 -4.5q48 -10 135.5 -43t97.5 -36q38 -12 68 -15.5t31 2.5q11 18 -22 108q-2 6 -6.5 16.5t-5 13t-0.5 8t4.5 9t13.5 7.5q8 4 17.5 7.5t22.5 3.5t15 -9q1 -4 8 -25.5t11.5 -41.5t5.5 -39q2 -49 -22 -84t-59 -33
q-33 2 -71.5 14.5t-91.5 34t-83 31.5q-106 36 -150 22q-28 -9 -39 -43.5t5 -65.5q10 -18 8.5 -28t-18.5 -19q-8 -4 -18 -7.5t-21.5 -2.5t-14.5 11z" />
    <glyph glyph-name="quoteleft" unicode="&#x2018;" horiz-adv-x="184" 
d="M164 649q-19 9 -31.5 8t-23.5 -16q-28 -40 -23 -88q2 -24 12.5 -33t27.5 -2q21 11 31.5 10t18.5 -21q2 -5 4 -12.5t4 -17.5t-0.5 -17t-9.5 -8q-45 -6 -79.5 4t-47.5 35q-26 51 -2 128q13 42 45.5 71.5t74.5 37.5q20 4 27.5 -5.5t4.5 -30.5q-2 -16 -11 -32t-22 -11z" />
    <glyph glyph-name="quoteright" unicode="&#x2019;" horiz-adv-x="157" 
d="M34 688q3 1 16 4.5t17.5 4.5t15 3t15.5 2.5t13 0.5t13 -1.5t10 -4.5q23 -13 31.5 -35t5.5 -42t-12 -38q-30 -57 -30 -65q-1 -24 -7 -31t-29 -3q-5 1 -12.5 3t-17 6t-14.5 10t-1 12q13 22 43 61t38 60q2 4 -4 5q-14 1 -50 -19q-18 -11 -28 -8t-18 21q-4 8 -6.5 18.5
t-0.5 22t12 13.5z" />
    <glyph glyph-name="quotedblleft" unicode="&#x201c;" horiz-adv-x="297" 
d="M162 648q-33 -4 -58 -29.5t-32 -64.5q-3 -16 2.5 -23.5t17.5 -6.5q14 2 23.5 1.5t13.5 -7t4 -22.5q0 -6 -0.5 -13t-2.5 -17t-7 -16t-12 -5q-78 19 -89 65q-10 43 16 103q27 63 90 106q32 22 45 -18q5 -9 4 -30.5t-15 -22.5zM307 666q-68 -69 -71 -114q-2 -23 33 -31
q11 -2 13 -2.5t9.5 -3t8 -4.5t3 -6t1.5 -9.5t-3 -13.5q-2 -5 -4.5 -12t-7.5 -16.5t-11 -13.5t-12 0q-91 64 -72 153q4 20 20 54.5t21 49.5q6 20 17 23.5t28 -7.5q14 -8 26 -22.5t1 -24.5z" />
    <glyph glyph-name="quotedblright" unicode="&#x201d;" horiz-adv-x="294" 
d="M3 703q64 -1 104 -29.5t34 -69.5q-2 -15 -9.5 -29.5t-23.5 -37t-21 -29.5q-9 -16 -14 -21t-13 -5t-21 10q-4 3 -9.5 8t-12.5 13.5t-8 14.5t4 12q44 37 64 58.5t20 38.5q0 3 -7 4.5t-22.5 -1t-33.5 -9.5q-19 -9 -28.5 -4.5t-14.5 23.5q-5 10 -3.5 32t15.5 21zM175 712
q77 -13 113.5 -55t8.5 -79q-9 -12 -32 -35.5t-28 -35.5q-6 -14 -8 -18t-7 -9t-11.5 -3.5t-17.5 6.5q-4 2 -10.5 6t-15.5 11t-11 13t2 12q25 26 67.5 60t53.5 48q0 1 -0.5 1.5t-2.5 1t-5 1t-7 1.5t-9 1h-11.5h-14t-17 -1.5t-19.5 -3.5q-21 -3 -29.5 2.5t-10.5 25.5
q-1 9 0 19.5t6.5 21t15.5 9.5z" />
    <glyph glyph-name="uni3000" unicode="&#x3000;" horiz-adv-x="1000" 
 />
  </font>
</defs>
</svg>
