<?xml version="1.0" standalone="no"?>
<!DOCTYPE svg PUBLIC "-//W3C//DTD SVG 1.1//EN" "http://www.w3.org/Graphics/SVG/1.1/DTD/svg11.dtd" >
<svg xmlns="http://www.w3.org/2000/svg" xmlns:xlink="http://www.w3.org/1999/xlink" version="1.1">
<metadata></metadata>
<defs>
<font id="biergrten_light_italicLtIt" horiz-adv-x="1345" >
<font-face units-per-em="2048" ascent="1638" descent="-410" />
<missing-glyph horiz-adv-x="491" />
<glyph horiz-adv-x="0" />
<glyph unicode="&#xd;" horiz-adv-x="1024" />
<glyph unicode=" "  horiz-adv-x="491" />
<glyph unicode="&#x09;" horiz-adv-x="491" />
<glyph unicode="&#xa0;" horiz-adv-x="491" />
<glyph unicode="!" horiz-adv-x="716" d="M199 104.5q4 -30.5 21.5 -55t44 -39t59.5 -14.5q57 0 114.5 40t79.5 97q8 20 13.5 51t5.5 62q0 33 -6.5 60.5t-20.5 39.5l14 55l330 230q-2 10 -14 26v2q-4 6 -24.5 15.5t-29.5 9.5l-24 37l237 618q8 23 0 58t-26.5 68.5t-42 58t-45.5 24.5q-29 0 -88.5 -27.5t-122 -66.5 t-113.5 -80t-61 -67q-14 -35 26 -35h13q8 0 18 2l33 -33q-6 -23 -20.5 -76t-31 -113.5t-34 -114.5t-25.5 -77q-27 -68 -65.5 -103.5t-75.5 -64.5q-18 -12 -34.5 -25.5t-22.5 -29.5l153 -236l-24 -53q-61 -35 -121 -78t-82 -102q-12 -33 -8 -63.5zM854 625q0 4 10 14l-10 -8 v-6z" />
<glyph unicode="&#x22;" horiz-adv-x="1067" d="M555 1436l39 -205l53 -209l15 -29h6q2 0 3 2t3 2q14 2 44 20.5t60.5 43t57 47t32.5 33.5q0 2 2 4t7 12v2q10 23 22 50.5t21 50.5q47 125 49 213t-56 159l-247 -51zM662 993q-8 0 2 -2zM1102 1438l39 -205l53 -209l18 -27h-2q-2 0 -7 -1t-15 -9l24 10l7 2q2 0 1 1t3 1 q12 2 41.5 21.5t61.5 44.5t58.5 48.5t36.5 35.5q8 16 10.5 20.5t6.5 16.5q4 10 9 21.5t9 21.5l12 35q47 121 50.5 210t-56.5 158l-245 -51z" />
<glyph unicode="#" horiz-adv-x="1597" d="M166 467h27l21 3q22 3 58.5 6t85 4t101.5 -1l20 -39l-88 -204q-10 -25 -5 -65t17.5 -79t32 -66.5t39.5 -27.5q25 0 80 31.5t115.5 77t110.5 92.5t63 77q18 45 -21 46q-16 0 -26 -3l-31 27q0 29 20 86l54 39q23 -2 44 -3t42 -3q29 -2 57.5 -3t56.5 -5l19 -37l-68 -176 q-10 -25 -6 -66t16.5 -80t32 -67.5t37.5 -28.5q25 0 82 32t116.5 77t110 93t62.5 79q18 45 -21 45q-14 0 -24 -2l-29 36l2 7v8q2 10 5 25.5t9 35.5l46 39q10 2 18 2q10 0 18.5 2t14.5 2q8 0 14 2l-61 11l-23 28q6 23 14.5 49.5t16.5 53.5l2 2q2 6 3 11t3 13l49 37 q72 4 132.5 22.5t109.5 39.5l-217 28l-15 39q27 63 62 97t65 63q23 16 38.5 31.5t25.5 38.5v2q-10 72 -46 139t-89 127q-33 -23 -56.5 -39t-43 -29.5t-37 -26t-37.5 -26.5q-53 -39 -88 -63.5t-55.5 -40t-30 -22.5t-9.5 -9l-1 -6q-1 -6 -5 -23l-2 -8q-2 -4 -1 -5t-1 -5v-2 q12 -10 25.5 -17.5t15.5 -7.5l23 -37l-33 -84l-55 -37l-152 23l-41 -4l-20 49q20 27 38.5 44t40.5 34q16 14 34 29.5t26 37.5l2 5q-10 66 -47 133t-92 131q-27 -18 -46.5 -32.5t-36 -25t-31.5 -21.5t-34 -24q-61 -43 -100 -71.5t-61.5 -45t-32 -24.5t-11.5 -12q-4 -6 -8 -23 l-4 -18l2 -4q4 -6 19.5 -16.5t21.5 -10.5l23 -37l-43 -112l-48 -37l-180 -23l164 -14l23 -33l-54 -164l-47 -39zM381 776l4 -2h8zM836 590q2 8 5 18t5 21v2q4 16 9 30.5t11 30.5l54 37l215 -18l20 -37l-37 -96l-55 -37l-150 20l-49 -8zM1194 1014q0 -6 4 -2q-4 0 -4 2z M1495 485l158 -18q-12 4 -13 10q0 6 11 35l16 12q-29 -12 -71 -20t-101 -19zM1741 752l78 -11q-12 4 -13.5 8.5t6.5 22.5l7 16q-16 -8 -36 -17t-42 -19zM1819 788q4 4 8 5.5t8 5.5l25 8q-23 0 -30 -2t-11 -17z" />
<glyph unicode="$" horiz-adv-x="929" d="M164 424q-2 -10 5 -37t17.5 -55.5t19.5 -55t13 -36.5l2 -4q0 -4 3 -18.5t10.5 -31t16.5 -30t21 -13.5q7 0 9 2q10 4 32.5 9.5t53.5 11.5l10 2q2 0 5 1t7 1l27 -23q0 -53 4 -100t12 -47q12 0 39 21.5t60.5 54.5t68.5 71.5t59 75.5l37 25q18 2 33 8q23 4 37 7t27 7l16 6 l6 3q23 8 48.5 17t49 20.5t41 23.5t21.5 25l61 149l-241 211l63 41v-4h12q18 0 64.5 8t95.5 21.5t91 32t55 38.5q-4 10 -16.5 48t-24.5 79q-4 14 -8.5 31.5t-6.5 26.5q-12 4 -16 43q-4 16 -10.5 36.5t-16.5 26.5q-8 -4 -13 -5t-9 -1q-25 -8 -58 -17l-34 23q-6 45 -14.5 81 t-22.5 64q-27 -25 -43.5 -41t-28.5 -28t-24.5 -23.5t-26.5 -25.5q-45 -43 -70.5 -69t-46.5 -46l-35 -18q-72 -12 -102 -25l-8 -2q-23 -6 -50.5 -15.5t-53 -21.5t-45 -26.5t-25.5 -28.5l-45 -119l266 -207l-33 -63l-41 -11l-33 2q-4 4 -14 5q-18 0 -64.5 -9.5t-96.5 -24 t-91 -32.5t-49 -39l-2 -4v-2zM1053 1147h2q2 0 6 4q-2 0 -4 -2t-4 -2zM1061 1151q2 2 4 2t6 4zM1071 1155l1 -1t5 -1l6 4q-4 -2 -12 -2zM1120 1047h2q-4 6 -2 0zM1174 860h2v6v-4z" />
<glyph unicode="%" horiz-adv-x="1208" d="M241 -4.5q3 -20.5 15 -20.5q18 0 66.5 18.5t113 55.5t136 90.5t135.5 122.5l67 2q4 -20 17.5 -56t31 -71t36 -60.5t32.5 -25.5h10l8 2q-4 0 8.5 10.5t30.5 20.5q14 10 29.5 19.5t23.5 13.5q27 10 46.5 18t39.5 19h3q41 16 64.5 28.5t41.5 34t34.5 58t41.5 102.5l10 26 q4 8 4 15q0 6 4 16t7 20.5t10 24.5l6 17q2 25 3 52t-3 52t-13.5 42t-25.5 22q4 2 5 4t-9 -2q-12 -6 -30.5 -13.5t-37 -14.5t-32 -12t-17.5 -5q-14 -6 -40 -11.5t-58 -11.5q-23 -6 -47.5 -10t-49.5 -10l-26 47q23 29 43 55.5t37 50.5q25 35 44 60.5t23 31.5q59 72 111.5 112 t99.5 69q29 16 56.5 35.5t50.5 47.5l12 13l-10 -8v4q23 72 17.5 135t-34.5 123q-94 -51 -160.5 -87t-114.5 -62.5t-82 -46t-62 -36.5l-48 31l9 18q2 23 2 50t-5.5 51t-15.5 42.5t-28 22.5q-4 -2 -6.5 -3t-14.5 -7q-27 -12 -58.5 -24.5t-35.5 -12.5q-12 -6 -55 -14t-91 -19 q-20 -6 -40.5 -11t-36 -7t-24.5 0t-5 14l-139 -362l-52 -37q6 0 11 4l-4 -10q-4 -12 16 -33.5t50 -41t60.5 -35t49.5 -15.5h6l8 2q-12 0 7.5 11.5t37.5 23.5q14 8 27.5 15t19.5 11h2q37 14 58.5 23.5t42.5 19.5l39 -45l-457 -567q-14 -16 -23 -41q-12 -31 -19 -65.5 t-10 -64.5t0 -50.5zM549 905l115 303l65 33q16 -8 24.5 -35.5t0.5 -48.5l-105 -272l-51 -37q-23 0 -42 13t-7 44zM942 236l117 301l61 34q20 -8 27.5 -34.5t-0.5 -47.5l-107 -276l-51 -37q-25 0 -42 14.5t-5 45.5z" />
<glyph unicode="&#x26;" horiz-adv-x="962" d="M120 -208q3 -38 10 -65.5t20 -27.5q16 0 58 34t87 82t85 98t52 85l29 29q31 16 69.5 36.5t81.5 42t86 44t82 43.5q43 23 77 39t50 26q12 8 17 10q35 16 46 25.5t21 36.5q4 10 3 19t-11 9q-20 0 -40.5 -5t-43.5 -9q-29 -8 -59.5 -15t-59.5 -7q-25 0 -56.5 6t-63 18 t-57 29.5t-38.5 40.5v22q4 12 8.5 18.5t18.5 16.5l2 2l22 10q47 10 105.5 23.5t114 26t102.5 24.5t72 19l-213 135l-107 -43l-43 32l96 254l80 19q-2 -8 0 -21l2 -14q4 -25 15.5 -45.5t50.5 -20.5q20 0 66.5 8.5t95.5 25t90 39t51 50.5l2 4q-8 10 -7 52.5t3 83.5v2 q2 10 1 26.5t-3 30.5q0 2 -3 13.5t-7 27.5q-6 27 -15.5 54.5t-19.5 27.5q-4 0 -5 -1t-3 -1h-7l-19 -5t-48 -15.5t-63.5 -20.5t-71.5 -23l-27 52q20 23 35.5 41t26.5 47l-1 1q-1 1 1 9v2q-2 74 -14.5 141.5t-35.5 120.5q-18 -16 -28.5 -25.5t-18.5 -16.5t-15 -15t-20 -21 q-53 -49 -87.5 -80.5t-55 -52l-30 -30t-11.5 -15.5q2 2 1 -5t-5 -17v-3q-10 -29 -14 -26l6 -8q2 -6 5 -14.5t5 -8.5l25 -37l-39 -104l-37 -33q-25 -10 -55.5 -23.5t-60 -30t-53.5 -37t-32 -42.5l-266 -692q-18 -47 1 -105.5t67 -109.5l2 -31l-58 -133l-4 -10 q-10 -29 -14 -70t-1 -79zM1010 578l18 -11l6 17q-2 0 -8 -2t-16 -4z" />
<glyph unicode="'" horiz-adv-x="569" d="M555 1436l49 -205l66 -209l18 -27h6h2q0 2 4 2q16 2 48 20.5t64 43t59.5 48.5t33.5 34l4 4t6 10l3 4q10 20 21 49t19 52q49 125 47.5 213t-67.5 159l-264 -51zM688 993v2q-8 0 0 -2z" />
<glyph unicode="(" horiz-adv-x="542" d="M110.5 152.5q22.5 -74.5 71.5 -137t113.5 -104.5t120.5 -42h16q-51 37 -63.5 110.5t4 173t55.5 222.5t92 258q33 86 69 175t73 181q18 47 45.5 89t60.5 77l104 129l-32 19l-131 114l-150 -112l-12 -9q-25 -12 -44.5 -36.5t-35.5 -42.5l-354 -922q-25 -68 -2.5 -142.5z M432 -131q37 -21 80 -33l-16 41q-4 -6 -17.5 -7t-27.5 -1h-19zM897 1270l6 -4l64 63l-9 4z" />
<glyph unicode=")" horiz-adv-x="544" d="M-211 -164q63 14 102 33h-18q-12 0 -25.5 1t-9.5 7zM-109 -131h17q37 0 94 19.5t121.5 51t131.5 74.5t125 91.5t101 96.5t60 93l354 922q0 18 -2 42.5t-16 36.5l-5 9l-65 112l-221 -114l-43 -19v-129q18 -72 -19 -166q-10 -29 -20 -57.5t-21 -57.5q-23 -59 -44 -117.5 t-44 -115.5q-53 -137 -107.5 -261t-114.5 -224.5t-130 -174t-152 -112.5zM481 1329l15 -63l10 4l-12 63z" />
<glyph unicode="*" horiz-adv-x="616" d="M498 1264q18 14 68 50t102.5 72.5t93.5 65.5t43 31l51 -10q8 -25 6 -25h4q39 -18 74 -31q16 -10 31.5 -17t32.5 -11l-17 157l27 49q41 23 50 29l26 18q18 27 35.5 49.5t31.5 41.5q31 39 49 67l-198 -80h-33l-225 125q10 -41 22 -94t25 -106l-11 -39l-276 -330zM678 1884 l72 -39q-16 61 -13 76q-10 -29 -17 -33t-42 -4zM1004 1389l4 -37l2 2q4 10 8 18t20 14h-6q-20 0 -28 3zM1038 1386h13l8 3q-6 0 -11.5 -1.5t-9.5 -1.5zM1206 1800l45 19q-10 0 -19 2t-7 14v-2q-4 -6 -8.5 -14.5t-10.5 -18.5zM1225 1835l4 10l2 13q-6 -16 -6 -23z" />
<glyph unicode="+" horiz-adv-x="796" d="M223 623l27 8q-8 -2 -15.5 -3t-11.5 -5zM250 631q45 8 124 -1t152 -26l21 -24l-2 -232q14 27 32.5 59.5t40.5 67.5q10 16 20.5 31.5t20.5 32.5l58 30q10 -2 14 -2h10t4 -2q12 6 45 18.5t60 22.5v2q20 8 37.5 14.5t34.5 14.5l-140 53l-10 41q20 41 27 60q2 4 2 6q0 4 2 8 q-4 23 -4 41v41h-2q-2 18 -2 33q0 16 -2 30l-125 -172l-31 -22zM523 292.5q-4 -20.5 12 -20.5l8 -16l2 92q-18 -35 -22 -55.5zM743 565h2h-2zM757 985q1 -6 19 -6l-4 4l-6 33q-10 -25 -9 -31zM776 979q6 -4 9.5 -12.5t7.5 -16.5l32 47q-14 -14 -18 -16t-19 -2h-12zM803 805 l2 -6l2 18zM922 637l41 -14q-10 10 -11.5 12t2.5 12l7 12q-8 -8 -18.5 -13t-20.5 -9zM961 659q2 2 2 3q0 2 4 4l39 18q-25 0 -32 -4t-13 -21z" />
<glyph unicode="," horiz-adv-x="518" d="M-113 -291q6 18 23.5 36.5t48.5 40t77 48.5t111 57l25 66q-18 14 -38.5 33.5t-36 46t-22.5 57.5t3 66q53 80 128 122t167 46l84 -23q14 -31 21 -53.5t7 -46.5q0 -23 -7 -50.5t-21 -66.5q-37 -96 -104.5 -167t-147.5 -118t-164 -70.5t-154 -23.5z" />
<glyph unicode="-" horiz-adv-x="724" d="M309 801l15 6q-8 8 -7 14zM324 807q18 -16 70 -44t112.5 -55.5t118 -49t88.5 -23.5q18 12 34.5 22.5t32.5 20.5q49 33 85 59.5t67 61.5l-236 223zM702 627q8 4 13 8h-2l-6 -6zM932 799l8 -6l-2 2q0 2 4 12l6 14l-8 -12t-8 -10zM948 821l47 27q-25 0 -32 -4t-15 -23z" />
<glyph unicode="." horiz-adv-x="471" d="M66 123q-4 35 8 70q23 57 82 102t123 86q111 -23 142.5 -74t-9.5 -155q-12 -31 -35 -60t-52.5 -49t-62.5 -32.5t-63 -12.5q-35 0 -64 17.5t-47 45t-22 62.5zM262 383l37 10q-8 -8 -20 -12q-14 0 -17 2z" />
<glyph unicode="/" horiz-adv-x="854" d="M14 44q2 30 10.5 64.5t20.5 65.5q8 25 23 43l604 739l-17 54q-4 0 -12 5t-8 9q4 10 11 24.5t13 18.5v2q6 8 28 20.5t71 40t134 72.5t220 117q12 6 18.5 10t12.5 7t13 7.5t20 10.5q55 -117 18 -260l-2 -4l3 3t9 7l-12 -13q-23 -29 -50.5 -48t-56.5 -35q-47 -29 -101 -69 t-114 -112v-2q-23 -27 -71.5 -91t-103 -137t-101.5 -137.5t-64 -90.5l33 -43q8 2 31 2q8 0 6 -2q-2 -8 -22 -35q-20 -23 -62.5 -54.5t-96.5 -66.5t-114.5 -69t-114 -61.5t-95.5 -44t-62 -16.5q-12 0 -16.5 19.5t-2.5 49.5z" />
<glyph unicode="0" horiz-adv-x="1126" d="M113 287q-8 -20 9 -50t49 -62t75 -63.5t88 -57t86 -41t67 -15.5h5q2 0 18 2q4 2 42 25.5t79 50.5q31 18 56.5 32.5t31.5 18.5l2 2q59 27 106 46.5t86 35.5q86 37 136.5 62.5t87.5 70.5t70.5 124t88.5 220l19 49q8 18 13 37t13 39l50 127q6 53 5 111.5t-14.5 110.5t-41 92 t-72.5 55q-10 -6 -42 -20.5t-69 -30t-69.5 -28.5t-40.5 -16q-25 -8 -61 -17t-81 -19.5t-93 -19.5t-97 -17q-47 -10 -89 -18.5t-74 -13.5t-50.5 -6t-18.5 5l-284 -739l-52 -37q-18 0 -26 -21zM632 366.5q-5 14.5 3 34.5l233 609l72 30q8 -10 17.5 -26.5t14.5 -34.5t6 -37.5 t-5 -32.5l-209 -549l-53 -36q-16 0 -32.5 5t-29 14t-17.5 23.5z" />
<glyph unicode="1" horiz-adv-x="720" d="M217 172q6 -41 22.5 -79t40 -66.5t46.5 -28.5q18 0 53 15.5t76 39t86 54t83 61.5t65.5 59.5t35.5 48.5q18 45 -25 46h-14q-4 0 -14 -3l-33 31q4 25 21.5 87.5t39 133t41 133t29.5 87.5q31 78 70 116.5t78 67.5q23 16 38 30.5t23 36.5l2 5q-14 66 -57 132t-109 132 q8 6 -2 1t-22 -16q-113 -72 -182.5 -116.5t-109.5 -70.5t-54.5 -37t-16.5 -17q-4 -6 -7 -23l-3 -18l2 -4q4 -6 22.5 -16.5t24.5 -10.5l25 -37l-271 -708q-10 -25 -4 -66z" />
<glyph unicode="2" horiz-adv-x="919" d="M103.5 183q7.5 -21 22.5 -39.5t33.5 -33t35.5 -22.5q10 -6 65 -17.5t123 -25.5q70 -14 130 -29.5t89 -25.5h-6h4h6q6 0 18.5 10t28 24.5t30.5 32t28 29.5q25 27 30 31q14 12 47 48t68 75t64.5 73.5t35.5 44.5q4 8 5.5 10.5t3.5 6.5q10 27 -12.5 54.5t-58.5 48t-74 33.5 t-56 13q-10 0 -14 -4l-37 51l430 291l65 172q8 23 2 42.5t-21 35.5t-34.5 28.5t-38.5 22.5q-14 8 -43 20.5t-63 28.5q-39 16 -83 34t-83 35t-70 31.5t-43 22.5h-18q-6 -6 -18.5 -17t-27 -25.5t-27.5 -29t-22 -24.5q-16 -23 -24 -27l-13.5 -18t-23.5 -31h-4 q-25 -31 -56.5 -66.5t-59 -67.5t-48 -54.5t-24.5 -24.5q-12 -31 10 -58.5t57 -48t74 -32.5t59 -12q14 0 35 14t43.5 35.5t44 46.5t39.5 47l2 2q12 12 22.5 25.5t18.5 21.5h66l18 -67l-27 -47l-634 -383l-89 -265v-2q-8 -23 -0.5 -44zM393 289l8 61l252 180l41 -45 q-12 -12 -34.5 -44.5t-45.5 -69.5h-4q-23 -35 -38 -61.5t-37 -43.5l-43 -10zM590 -8l6 -2q-2 2 -6 2zM713 1335l4 2h-2zM717 1337q4 2 6 2q-2 0 -6 -2z" />
<glyph unicode="3" horiz-adv-x="962" d="M123 299q4 -10 24 -27q4 -2 11 -8q16 -16 60 -55t92 -82t91 -79t60 -48q4 0 12 -1t12 -1q29 0 75 15.5t98.5 42t105.5 61.5t100 71.5t82 74.5t47 71l271 706q8 23 0.5 43.5t-23.5 38t-36.5 30.5t-37.5 24q-25 8 -83 31.5t-124.5 49t-126 50t-83.5 34.5h-2h-19q-2 0 -2 2 q-4 0 -30.5 -27.5t-49.5 -51.5q-18 -20 -31.5 -33.5t-17.5 -16.5q-6 -4 -21.5 -25.5t-33.5 -45.5q-33 -45 -61.5 -82t-37.5 -43l-2 -2q-10 -29 13.5 -52.5t60.5 -40t76 -25.5t59 -9q39 0 70 25.5t53 50.5q6 8 12.5 14t12.5 12l65 -16l-100 -260l-68 -33l-71 43l-371 -158 q2 0 44 -7t100.5 -18.5t122 -24.5t110.5 -25l2 -56q-31 -29 -72 -48t-84 -33.5t-82 -20.5t-63 -6q-29 0 -53.5 7t-47.5 15q-18 4 -35.5 9.5t-37.5 5.5q-10 0 -17.5 -9.5t-11.5 -21.5q-10 -25 -6 -35z" />
<glyph unicode="4" horiz-adv-x="966" d="M221 571l21 -13l55 -32.5t73 -44t76 -47.5q53 -35 91 -60.5t43 -35.5l4 -8q0 2 -1 -13.5t-4.5 -41t-8.5 -57.5t-9 -58q-4 -35 -5 -54.5t-3 -25.5q-2 -29 -4 -48.5t-4 -33.5q0 2 14 2q39 0 84 53t88 126t79 148.5t58 123.5q4 8 7.5 13t5.5 11l51 37h8l10 2q4 0 10.5 1 t10.5 1q27 0 39 -10t22 -21q4 -8 8 -8q25 0 33 27l14 35q16 47 10.5 85t-18.5 76l2 2q-12 45 -21 94.5t17 114.5q23 59 66 112.5t84 98.5q14 16 27.5 29.5t19.5 24.5l-187 100q-66 -20 -120 -44t-105 -77l-39 -20q-16 0 -51 28q-18 12 -40.5 30.5t-46 34t-43 27t-32.5 11.5 q-18 0 -48 -21.5t-58.5 -48.5t-51 -53.5t-24.5 -34.5zM535 664l135 350l20 26l47 31h54l22 -31v-26l-111 -287l-18 -25l-96 -65zM544 -3q-1 -1 1 -1v2zM1274 1176l8 -2h2q-6 2 -4 10q-4 -4 -6 -8z" />
<glyph unicode="5" horiz-adv-x="964" d="M90 188l4 5l-4 6v-11zM94 193q10 -12 25.5 -41t32.5 -52v-4q8 -12 14 -20t8 -13l2 -6q8 -10 26.5 -34.5t41.5 -24.5h8h2q2 0 4 2h-6q31 6 103.5 19.5t155.5 26.5t156.5 25.5t106.5 16.5q18 2 45 8t51.5 13.5t43 15.5t20.5 16l145 375q8 25 -23.5 52.5t-81.5 52t-109.5 41 t-104.5 16.5q-4 0 -10.5 -1t-12.5 -1h-4q-6 -2 -10 -2q-2 0 -10 -4h-4q-16 -4 -46 -14.5t-75 -24.5l-37 8q-16 20 -6 43q2 6 6 14.5t6 10.5l119 288l59 37l350 -86l7 -8q6 -8 22 4q6 4 14.5 8t12.5 8l10 7l4 2q6 -4 15.5 -5t17.5 19q6 20 20 35q-4 33 -19 67.5t-37 68.5 t-46.5 64.5t-44.5 55.5q-12 16 -24.5 32.5t-16.5 26.5h4l-20 29l-5 -12q-35 0 -103.5 -21.5t-151 -57.5t-169 -83t-155.5 -96q-12 -35 -15.5 -54.5t-5.5 -36.5q-2 -10 -4 -21t-6 -26.5t-12 -39t-23 -60.5q-6 -20 -13 -39.5t-15 -40.5q-16 -43 -34 -83t-34 -77 q-12 -27 -22.5 -50t-18.5 -46h41l18 -4q10 -8 28 -13t42 -5q8 0 14.5 2t14.5 2q18 2 35.5 3t38.5 1q16 0 32.5 -1t30.5 -1t26.5 -1t22.5 -1q20 0 37 4l31 -2q2 -2 3 -4t3 -4q23 -12 35 -24.5t2 -41.5l-97 -252l-75 -24l-15 20q-10 23 -30.5 50.5t-67.5 27.5q-20 0 -62 -4 t-88.5 -12.5t-87 -17.5t-55.5 -21zM997 1366l7 -6l10 26l-10 -12q-6 -6 -7 -8zM1014 1386l10 13l-4 -4t-6 -9zM1208 1016q0 -8 1 -13.5t1 -11.5l13 31q-8 0 -15 -6z" />
<glyph unicode="6" horiz-adv-x="995" d="M125 328l233 608q16 41 53.5 86t86.5 90t107.5 86t116.5 73t112.5 50t95.5 18q23 0 58.5 -21.5t76.5 -55t82 -74.5t71.5 -80t47 -71.5t10.5 -49t-37 -16.5q-29 0 -50.5 5t-37.5 11h-2q-23 6 -46.5 14.5t-60.5 8.5t-90 -13.5t-106 -38t-97 -59.5t-61 -80q-18 -45 -9 -78.5 t34.5 -59.5t63.5 -46.5t79 -38.5q37 -18 72 -36.5t59.5 -41t34.5 -49.5t-4 -61q-4 -8 -8 -18.5t-9 -20.5v2l-366 -353q-2 0 -12.5 -4t-20.5 -8h-2q-10 -4 -15 -5t-12 -5h-10q-29 0 -77 14.5t-101 40t-105.5 58t-91 69.5t-58 76t-5.5 74zM479 362l66 -16q4 4 17 17.5t28.5 29 t30 28.5t20.5 17l6 6l26.5 26.5t26.5 33.5q-16 -10 -39.5 0t-45 27.5t-37 34t-15.5 18.5zM635 16v2v-2z" />
<glyph unicode="7" horiz-adv-x="978" d="M379 989l12 31q6 0 6 -6q-10 -10 -18 -25zM393 979q4 10 6 20.5t-2 14.5q31 35 77 72.5t97.5 74.5t103.5 70t93 57q20 12 39.5 24.5t26.5 16.5h-7l52 62q0 -2 -2.5 -14.5t-10.5 -30.5q35 0 86.5 -21.5t106.5 -57.5t105 -82t81 -95q-25 -51 -47 -98.5t-43.5 -96.5 t-44.5 -103.5t-47 -115.5l-145 -377l2 -25q4 -6 9 -27.5t9 -41.5l4 -17q-39 -23 -85 -58.5t-91 -70.5q-47 -39 -85 -66.5t-58 -27.5q-8 0 -15 8l-80 205l-2 2q6 0 10.5 12.5t13.5 23.5t21 11q4 0 6.5 -1t6.5 -1l53 35l281 733l-33 37l-416 -86l-11 -7q-12 -7 -20 3 q-4 4 -8 9t-4 9l-6 7l-4 2q-10 -4 -20.5 -6.5t-2.5 18.5zM942 188l8 7q-6 -18 -7 -20.5t1 5.5q0 4 -1 5t-1 3z" />
<glyph unicode="8" horiz-adv-x="919" d="M140 314.5q3 -35.5 8.5 -75.5t10.5 -76t9 -48v-21l2 8q2 -12 5 -30.5t7 -37t10.5 -31.5t12.5 -13h6q37 10 109.5 25.5t150.5 29.5q74 14 136.5 25.5t88.5 19.5q20 8 50 22.5t60 33t53.5 39t33.5 42.5v2l117 269l-121 164l37 59q33 12 73.5 38.5t78.5 59.5t68 68t40 63 q-2 2 -5 24.5t-7.5 54.5t-7.5 68t-5 66h-4v49q0 2 -2 10.5t-6 22.5l2 2q-4 23 -7 50.5t-14 37.5h-16q-18 -8 -54 -20t-80 -26.5t-93 -31t-99 -30.5q-68 -23 -121 -38t-69 -24q-25 -10 -54.5 -22.5t-57 -29.5t-49 -36.5t-29.5 -42.5l-66 -172l147 -233l-69 -58q-6 8 -14 9 q-18 0 -58.5 -21.5t-81.5 -52.5t-75.5 -67t-47.5 -64q0 -2 -2 -13v-2q-4 -10 -1 -45.5zM211 -10h2h4h-6zM217 -10l6 2q-2 0 -3 -1t-3 -1zM487.5 284.5q1.5 8.5 6.5 20.5q6 20 34 62q2 6 3 7t3.5 4t7.5 11t15 27l74 22l59 -88l-41 -61l-123 -33l-34 10q-6 10 -4.5 18.5z M616 842l15 53l117 98l61 -4q4 -10 2 -33.5t-4 -52.5q-6 -51 0 -119l-74 -45zM1124 1339l4 -2q-2 2 -4 2zM1128 1337h2t0 -2l5 2h-7z" />
<glyph unicode="9" horiz-adv-x="995" d="M133 350.5q6 16.5 37 16.5q25 0 44 -5.5t42 -11.5q23 -10 48.5 -16t60.5 -6q37 0 90 13t107 37.5t98.5 59.5t60.5 80t7 78t-34.5 58.5t-63.5 46t-79 40.5q-37 18 -72 37t-59.5 40.5t-34.5 48t2 59.5q2 6 7 16t9 19l3 4l362 350l8 4h2q16 6 34.5 13t23.5 9h4q31 0 79 -14 t101 -39.5t106.5 -58.5t92 -70t58 -76t5.5 -73l-233 -609q-23 -61 -91.5 -131.5t-154.5 -131t-174 -100.5t-150 -40q-25 0 -60.5 21.5t-76.5 54t-81 73.5t-70.5 80t-47 73t-10.5 50.5zM684 805q-6 -18 2 -33.5t23.5 -29t33 -22.5t25.5 -13q6 -4 8 -5h12l52 37l90 236l-56 24 q-6 -4 -24.5 -20t-38.5 -34.5t-36.5 -35t-22.5 -24.5q-14 -14 -39 -42t-29 -38zM768 1315q-2 0 4 4z" />
<glyph unicode=":" horiz-adv-x="471" d="M59.5 107.5q-6.5 29.5 3.5 60.5q20 49 78 89t119 75q111 -18 145.5 -63.5t0.5 -135.5q-23 -55 -83.5 -95t-123.5 -40q-35 0 -65 15.5t-49 40t-25.5 54zM244 334l35 8q-12 -8 -19 -10q-14 0 -16 2zM371 920.5q-6 29.5 6 60.5q18 49 76.5 89t119.5 75q111 -18 145 -62.5 t-1 -136.5q-20 -55 -82 -95t-125 -40q-35 0 -64.5 15.5t-49 40t-25.5 54zM555 1147l35 8q-4 -4 -8 -6t-9 -4q-14 0 -18 2z" />
<glyph unicode=";" horiz-adv-x="518" d="M-104 -272q12 33 68 72.5t186 99.5l22 59q-18 12 -39.5 31.5t-37 43t-24 52.5t2.5 64q49 74 123.5 112.5t167.5 42.5l84 -20q14 -29 22 -50.5t9 -43t-6 -47t-21 -62.5q-35 -90 -100.5 -156.5t-143.5 -110.5t-161 -65.5t-152 -21.5zM367 910.5q-6 29.5 6 58.5 q18 49 73.5 88t114.5 73q106 -16 139 -61t-2 -133q-10 -29 -30.5 -53.5t-48 -43t-59.5 -28.5t-62 -10q-35 0 -62.5 15t-45 40t-23.5 54.5zM545 1133l35 10q-4 -4 -9.5 -7t-9.5 -6q-12 0 -16 3z" />
<glyph unicode="&#x3c;" horiz-adv-x="665" d="M265 689q1 5 1 3q-6 -16 1 -56t22.5 -94.5t36 -113.5t42 -112.5t40 -94.5t30.5 -55l281 246l-203 241l23 56q16 10 66 43.5t108.5 74.5t115 82t86.5 64q6 20 7 57q0 37 -5.5 76t-12.5 72.5t-15 48.5l-623 -541q-2 -2 -1 3zM432 160h19q-4 0 -13 6zM881 1235l8 -8l8 8h-16 zM915 971q0 2 5 4l-5 -2v-2z" />
<glyph unicode="=" horiz-adv-x="958" d="M227 645q-2 -2 29 -6t81 -10t111.5 -13.5t119 -12.5t105.5 -9t68 -4v-2l-10 -6l10 6q8 4 43 18.5t62 24.5l2 2q18 8 35.5 14t34.5 15l-287 120zM530 973q-2 -2 30 -6t82 -10.5t111.5 -12.5t119 -11t104.5 -9t67 -4q4 0 5 -5q29 16 57.5 26.5t50.5 19.5q20 8 36.5 15 t31.5 13l-289 121zM918 662l38 -15q-8 10 -9 13.5t3 13.5l4 10q-6 -6 -16 -12t-20 -10zM954 684l4 4q1 2 5 4l36 19q-23 0 -29.5 -4.5t-15.5 -22.5zM1225 989l37 -14q-10 10 -11 12q0 4 4 14l5 13q-6 -8 -15.5 -13.5t-19.5 -11.5z" />
<glyph unicode="&#x3e;" horiz-adv-x="665" d="M172 412l387 241l23 56q-10 10 -34 43.5t-51.5 74.5t-53 82t-37.5 64q10 20 38.5 57t63.5 76t68.5 72.5t52.5 48.5l209 -541q-2 -2 1 3t3 3q-6 -16 -45 -56t-95.5 -94.5t-124 -113.5t-130 -112.5t-112.5 -94.5t-73 -55zM248 160q2 0 14 6l4 -6h-18zM403 973h3v-2z M625 1235h16q-2 -2 -5 -3t-7 -5z" />
<glyph unicode="?" horiz-adv-x="897" d="M73 105.5q5 -29.5 21.5 -53t41 -39t54.5 -15.5q55 0 110.5 39t78.5 94q35 92 5 135t-126 60q-55 -35 -107.5 -74t-70.5 -86q-12 -31 -7 -60.5zM242 328q4 -2 16 -2q4 2 16 10zM289 702l78 -172l151 97q-18 0 -6 9t44 26.5t79 40t100 51.5q33 16 69 34.5t67.5 36t57 32.5 t40.5 26l245 168l66 172q16 41 -14.5 75.5t-63.5 51.5q-16 6 -53 21t-78 32q-39 16 -81 33.5t-79 34t-66.5 29.5t-41.5 22h-19q-14 -10 -43.5 -42t-48.5 -53q-10 -14 -15 -20l-5 -6q-4 -4 -9.5 -10.5t-15.5 -16.5q-23 -27 -55.5 -64.5t-64 -72.5t-56.5 -61.5t-33 -32.5 l-2 -4q-10 -29 12.5 -56.5t57.5 -48t72.5 -33t58.5 -12.5q12 0 16 2l33 -53zM674 1004q23 16 47 38.5t45.5 47t40 46t31.5 38.5l69 6l21 -66l-25 -47l-198 -117zM784 1522l7 2h-5zM791 1524q2 2 4 2q-2 0 -4 -2z" />
<glyph unicode="@" horiz-adv-x="1038" d="M98 254q0 -37 36 -73t90.5 -64.5t115.5 -46t111 -17.5q12 0 21 1t20 3l6 4q2 0 3 1t9 6q10 6 49 26.5t86 42.5q45 25 96.5 51.5t96.5 50t77.5 43t42.5 27.5q4 4 8.5 7t8.5 8l4 4q37 31 41 41q4 12 2 22v8q4 23 -8 23h-4q-23 -8 -44.5 -18.5t-39.5 -20.5q-61 -31 -123 -53 h-2q-10 -4 -19 -4h-16q-37 0 -82 16t-85 43t-66.5 59.5t-24.5 65.5l4 18l264 490l70 20q10 -12 43 -30.5t78 -38.5l-4 -56q-35 -31 -62 -60.5t-37 -57.5q-4 -10 -6 -18.5t-2 -18.5v-4q-4 -25 10.5 -44.5t40 -35t57 -23.5t64.5 -8q18 0 39 4q59 18 109.5 57t68.5 87 q4 10 4 18t2 18v2q4 33 8.5 61t14.5 50q12 33 29.5 58.5t31.5 48.5q12 16 24.5 33.5t20.5 37.5q4 10 6.5 18.5t2.5 12.5q-8 8 -7 12q-4 6 -31.5 25.5t-64.5 42.5q-45 29 -84 55.5t-49 42.5l-2 2l-2 27q4 8 10 15t12 13l-114 21l-8 -4q-27 -14 -76.5 -39.5t-108.5 -58.5 q-49 -27 -100 -53.5t-96 -51t-80 -44t-53 -30.5q-18 -12 -43 -28.5t-48.5 -36t-43 -40t-25.5 -38.5q-4 -10 -2 -12l-4 -17zM1036 1401h13l4 4h4q6 0 10 4q-4 -2 -23 -2l7 -2zM1171 1384l39 -6h2q-8 2 -8 8q0 8 4 19q2 4 -4 0t-14 -8z" />
<glyph unicode="A" horiz-adv-x="1083" d="M138 286q12 100 59 226l110 289q6 16 14.5 33.5t16.5 37.5l14 39q33 66 80 112t103.5 81t119 60.5t127.5 49.5q35 14 74 30t82 36q18 10 32.5 16.5t22.5 12.5q23 10 38.5 17t35.5 7q29 0 45 -21.5t35 -47.5q12 -20 25.5 -40t31.5 -32q16 -18 33.5 -28.5t36.5 -20.5 q31 -16 60.5 -36t17.5 -50q-4 -10 -15.5 -17.5t-27.5 -13.5q-16 -8 -32.5 -16.5t-33.5 -22.5l-16 -16q-35 -66 -56.5 -115t-44.5 -111l-100 -262q-4 -8 -11 -35.5t-10.5 -57.5t5 -53.5t37.5 -23.5q16 0 26 4.5t21 10.5l4 2l2 1t8 1q2 0 1 -15.5t-5 -25.5t-8 -12l-2 -3 q-6 -4 -15.5 -7t-17.5 -7l-10 -8q-23 -18 -70 -50t-98 -67q-47 -29 -84 -54.5t-45 -33.5h-9q-18 0 -33.5 14.5t-26.5 36t-19.5 48t-14.5 49.5v2q-10 35 -19 58.5t-36 23.5q-35 0 -82 -34t-104 -79q-27 -20 -53.5 -42t-50 -38t-42 -27.5t-31.5 -11.5q-20 0 -30 15.5t-23 33.5 q-45 72 -45 152q1 17 3 36zM496 356q-14 -31 14 -45l18 -4h15l26 10q8 6 24.5 18.5t34 28t32 31t18.5 27.5l209 543l-4 26q-6 10 -8.5 12.5t-6.5 8.5q-2 2 -4 8t-6 12v2q-6 10 -7 15.5t-11 17.5l-19 6h-12l-49 -29l-35 -61l-152 -395q-20 -53 -39.5 -109.5t-37.5 -122.5z " />
<glyph unicode="B" horiz-adv-x="1021" d="M137 279l2 -3q6 -25 41 -70.5t78 -89.5t84 -79t61 -37l562 229l18 4q-8 2 0 17.5t18 25.5q8 12 14.5 19.5t12.5 17t14.5 21.5t24.5 35l190 497q5 14 5 33q0 14 -3 31q-6 39 -22 76.5t-37.5 65.5t-40.5 28q-29 0 -74 -21.5t-94 -50.5h-2q-33 -16 -62.5 -31.5t-58.5 -27.5 l-41 32l11 31q4 10 8 22.5t8 22.5l27 72q35 92 74.5 147.5t78.5 87t76 45t68 23.5h2q35 10 37 14q10 25 11 37.5t-3 26.5q-23 -4 -31 -3t-29 -3h-2q-92 -12 -178 -26.5t-172 -57.5l-131 -68l-16 -6q-8 -2 -13 -2h-12h-12t-13 2l-12 6q-8 4 -18.5 17.5t-20.5 25.5q0 -6 2 -8 v-129t-14 -109l-309 -804l-27 -31q-12 -6 -39.5 -23.5t-36.5 -27.5zM137 279l2 2zM547 1446q0 -4 5 -12.5t13 -18.5q-2 20 -2 27v16zM582 365l168 436q16 41 61 58.5t74 17.5l26 -35l-209 -543l-75 -27l-41 68z" />
<glyph unicode="C" horiz-adv-x="962" d="M129 334q-8 -23 -8 -48q1 -28 11 -60q20 -58 60.5 -109t92 -85t94.5 -34q4 0 12 1t15 1l51 25.5t89 46t107.5 57.5t110.5 59q49 27 85 44.5t56 27.5q8 6 12.5 8t8.5 4q33 16 45 26.5t22 35.5q4 12 3 21.5t-11 9.5q-20 0 -40.5 -5.5t-41.5 -9.5q-29 -8 -60.5 -15t-60.5 -7 q-31 0 -73.5 11t-79.5 32.5t-57 55.5q-11 19 -10 40q0 18 7 37l183 471l77 18q0 2 0 -12t2.5 -36.5t5.5 -46.5t10 -45.5t19.5 -34.5t30.5 -13q20 0 70.5 12t104.5 31.5t100.5 47.5t58.5 58q-2 -2 0 9q-2 10 -7 47t-11.5 77.5t-10.5 78.5t-4 53q0 2 -3 13t-7 30 q-4 27 -12.5 54t-20.5 27q-4 0 -6 -1t-4 -1h-2q-23 -8 -64 -20t-92 -28.5t-108.5 -34t-108.5 -33t-92 -27.5t-64 -18q-27 -10 -60.5 -24.5t-65 -33t-56 -39t-33.5 -43.5z" />
<glyph unicode="D" horiz-adv-x="958" d="M88 231q-2 -8 37 -44.5t90 -78.5t99 -75t65 -33q14 0 62 16.5t111.5 43t135.5 60.5t133.5 66.5t104.5 63.5t51 49l231 604q8 20 4 52t-16 62t-28.5 54.5t-32.5 32.5l-5 2q-16 12 -62 41t-99.5 60.5t-102.5 59t-69 38.5l-11 8q-6 10 -6 12q0 4 6 21l5 8q12 33 34.5 48 t55.5 34q27 14 50 28.5t25 18.5q-61 0 -121.5 -8.5t-114.5 -33t-98 -69.5t-73 -119q-20 -52 -20 -94q-1 -44 17 -82q16 -37 46.5 -68.5t66.5 -58.5l-47 -69h-190l-209 -547l-27 -31q-10 -6 -25.5 -15t-30.5 -19.5t-27.5 -21t-14.5 -16.5zM549 365l194 503l74 25l47 -66v-26 l-192 -502l-76 -27l-43 68z" />
<glyph unicode="E" horiz-adv-x="995" d="M146 270q14 -70 53 -131t96 -101t121 -40q23 0 75 21.5t118.5 54t138 73.5t133 80t103.5 73t48 50.5t-24 16.5q-29 0 -54.5 -5.5t-48.5 -11.5q-31 -10 -60.5 -16t-64.5 -6q-37 0 -80 13t-77.5 37.5t-50.5 59.5q-8 18 -8 38t8 42q16 45 50.5 78t80 58.5t99.5 46t109 40.5 q49 18 99.5 37t91.5 40.5t72.5 48t44.5 59.5q2 8 5 19t7 20l-96 350l-5 4h-2q-10 6 -23 13t-18 9h-8q-29 0 -88 -14t-131 -39.5t-149.5 -58.5t-145 -70t-116 -76t-62.5 -73l-233 -609q-14 -37 -14 -78q0 -26 6 -53zM625 739l90 236l78 16q0 -4 3 -17t7 -28.5t8 -29t8 -17.5 v-6q6 -16 9 -50t1 -38q-6 -18 -28.5 -33.5t-48 -29t-49 -22.5t-35.5 -13q-6 -4 -9 -5h-12zM1135 1315q2 0 0 4v-4z" />
<glyph unicode="F" horiz-adv-x="808" d="M89 213q1 -12 5 -16l6 -7q14 -23 44 -54.5t61 -62t54.5 -52t25.5 -21.5h53l401 279l9 20q-4 -2 -15.5 -6t-21.5 -8q-25 -10 -48.5 -16.5t-46.5 -6.5h-28q-8 2 -15.5 11.5t-13.5 20.5t-9 22.5t-1 15.5l168 434q2 8 14 20.5t25.5 22.5t28 18.5t24.5 10.5h8q-8 0 1 1t20 3 q20 4 48.5 9t55.5 10t46 8l18 3q-2 -2 -2 -4t6 13q4 12 8 20t8 17q14 39 14 59q0 23 -17 34t-50 14t-84 7l-23 37l27 68l76 24q12 -18 30.5 -21t47.5 -3h14q86 0 117 77q12 34 12 62q0 14 -3 27q-9 38 -44 73l31 60q47 18 66.5 36.5t29.5 40.5q-92 0 -163 -2t-138.5 -15 t-140 -42t-171.5 -80l-53 12q-12 63 -47 64q-6 -16 -8 -49q-1 -16 -1 -33.5t1 -36.5q-2 -43 -5 -88t-24 -94q-16 -45 -43.5 -80t-56.5 -65q-23 -25 -43.5 -49.5t-30.5 -53.5q-10 -27 -7 -40t30 -27l10 -33l-180 -469l-33 -31q-2 0 -13.5 -10t-24.5 -22.5t-24.5 -24 l-13.5 -13.5v-2q-2 -4 -1 -16zM748 299q4 4 2 4z" />
<glyph unicode="G" horiz-adv-x="995" d="M42 -62q19 -38 64.5 -57.5t107.5 -26t122 -6.5q86 0 183 20.5t186.5 63.5t162 111t109.5 164q12 31 16 56.5t2 50t-10 53t-22 65.5l2 21l204 536l21 27q6 2 18.5 13t26.5 25.5t27.5 27t19.5 18.5l2 4q0 6 -2 8h-2l2 2l-8 12q-16 12 -57 45t-86.5 70t-85 69.5t-54.5 45.5 q-6 0 -12 1t-10 1q-16 0 -62.5 -15.5t-105 -39t-123 -51t-118.5 -54.5t-91 -47.5t-39 -28.5l-244 -635q-10 -29 -9 -59.5t12.5 -55t32 -40t48.5 -15.5q45 0 71 9.5t60 25.5q29 14 68 32.5t92 35.5l14 4h33l25 -18q0 -2 3 -19.5t7 -47.5t4 -54v-2q4 -37 12.5 -80t12.5 -66 l-2 -18l-6 -17q-2 -4 -2 -10q0 -4 -3 -8q-23 -55 -62.5 -88t-85.5 -50.5t-93 -22.5t-82 -5l-25 37q16 43 25 85q4 22 4 40t-4 34q-8 31 -35 50.5t-78 19.5q-78 0 -112.5 -34.5t-63.5 -106.5q-14 -37 -14 -65q0 -23 9 -40zM516 545l197 512l67 33l56 -35l8 -33l-168 -436 q-16 -41 -62.5 -59.5t-74.5 -18.5zM1282 1112q6 2 4 8zM1284 1104q0 -4 1 -3t1 5l2 2z" />
<glyph unicode="H" horiz-adv-x="978" d="M176 340q-5 -14 -5 -28q1 -18 9 -36q16 -34 41 -62t54.5 -46t48.5 -18q23 0 70.5 22.5t94.5 44.5v2q39 20 74 35l41 -33q0 -4 -5 -18.5t-9 -30.5t-8 -30.5t-9 -24.5q-25 -63 -51 -104.5t-55 -70t-61.5 -50t-71.5 -42.5q-29 -16 -59.5 -34.5t-67.5 -42.5q6 -4 16.5 -5 t22.5 -1h10q82 0 178 38.5t188.5 101t170 139.5t122.5 153q8 14 27 51t42.5 86t50 105.5t51 109.5t44 98t29.5 70q2 6 8.5 35.5t10.5 66.5v2q8 35 10 61.5t12 55.5v47t-4 80t-14.5 75t-28.5 34l-293 -152l-47 29q6 14 16 45v2q6 20 12.5 37.5t10.5 31.5q25 63 50.5 120 t61 101t87 72.5t127.5 38.5q-2 4 -2 6t-2 4h-60q-10 0 -20.5 1t-20.5 1h-26q-61 0 -108.5 -6t-92.5 -21.5t-91 -43t-108 -70.5h-53q-8 8 -12 16.5t-9 14.5q-8 14 -13 24.5t-7 14.5q-23 -57 -23 -127t11 -129v-17l-291 -757l-37 -35q-20 -6 -26.5 -15.5t-10.5 -21.5z M180 -252q6 6 12.5 11t14.5 14q-4 2 -8 10zM553 1442l2 4q-2 0 -2 -4zM567 412l174 452l23 27l63 41l52 -27l-193 -497l-55 -37l-45 4zM1175 1483q1 -2 1 0v2v4q-2 -4 -1 -6zM1176 1489l4 12h-2v-2h2z" />
<glyph unicode="I" horiz-adv-x="716" d="M205 197q-8 -20 1 -54t27.5 -66t43 -55.5t47.5 -23.5q27 0 87 26.5t121.5 64.5t111.5 78t61 64q14 33 -27 33h-14t-17 -2l-33 29q2 20 15.5 73.5t30 114t34 113.5t25.5 76q27 66 65.5 100.5t75.5 60.5q20 12 34.5 24.5t20.5 29.5l-157 227l33 57q4 2 10 9 q53 33 108.5 70.5t75.5 90.5q10 29 5 58.5t-21.5 53.5t-43 39t-59.5 15q-57 0 -113.5 -39t-78.5 -94q-8 -18 -13.5 -49t-6.5 -61.5t5.5 -56t22.5 -36.5l-14 -57l-326 -223q4 -14 12 -21l4 -6q4 -4 23.5 -13t30.5 -9l24 -37zM334 881l8 6v4q0 -2 -8 -10z" />
<glyph unicode="J" horiz-adv-x="978" d="M111 287q2 0 10 4q-2 6 -1 12t1 12zM111 373l14 -6q10 -4 12 -11q4 12 -3 14.5t-23 2.5zM121 291q4 -35 22.5 -73t43 -75t51 -69.5t47.5 -57.5q12 -16 19 -22t13 -14h-8q2 -49 10.5 -43t16.5 26q35 0 103.5 21.5t150.5 57.5t167 81t154 94q29 100 57.5 193.5t75.5 218.5 l142 370l22 27q10 6 31 27.5t41 40.5q10 10 14 15t11 9l2 4l51 35q-66 0 -84.5 10.5t-26.5 22.5q-29 41 -52.5 78t-16.5 53l18 25q10 6 32.5 23t51.5 40q31 23 57.5 43.5t36.5 28.5l6 16q8 20 10.5 45t-3 46.5t-18.5 36.5t-34 15q-14 0 -39.5 -8t-52 -22.5t-49.5 -31.5 t-31 -38l-4 -8q-4 -8 -6 -36t-3 -59.5t-1 -60.5t2 -37l-25 -45l-241 -178q6 4 2 -10q-4 -12 -4 -23q0 -10 12 -10q4 0 8 1t8 1l25 -37l-281 -727l-59 -35l-350 84q8 20 -6.5 14.5t-30.5 -16.5l-4 -2l-15 -8l-10 -6l-37 -16q-10 -27 -22 -35zM123 315l20 11v2q4 10 1 17 t-7 11q-4 -14 -14 -41z" />
<glyph unicode="K" horiz-adv-x="1003" d="M131 340q4 8 31.5 19.5t56.5 21.5l37 35l291 760v14q-5 44 -5 97q0 18 1 36q2 74 24 127q6 0 11.5 -21.5t15.5 -44.5l57 -4q61 43 108.5 70t91.5 43t90 22.5t108 6.5q4 0 4 -2h8q8 -2 22 -2h31q16 0 27.5 -1t21.5 -1h13q4 0 4 -11q-78 -10 -128.5 -38.5t-86 -71.5 t-61 -98.5t-50.5 -120.5l-23 -62q-4 -10 -6 -18.5t-6 -16.5l-6 -18l45 -31l293 150h2q41 20 92 20q35 0 60.5 -5t29.5 -17l-487 -301l-10 -62q51 -16 126.5 -46t194.5 -83q10 -4 6 -30.5t-18 -63.5q-20 -53 -54 -114.5t-69 -117t-64.5 -97.5t-41.5 -54h-3 q-80 -78 -162.5 -152.5t-166.5 -136t-167 -102.5t-163 -49h-53l315 381l-31 49q-27 -10 -45 -17.5t-34 -13.5q-18 -8 -36 -13t-44 -5q-23 0 -61 18t-71.5 46t-55.5 62q-14 22 -13 41q0 12 4 23zM473 238l49 -29q72 41 110 88t48 78l29 71q23 61 33 128q3 19 3 38 q0 48 -18 95l-78 -23zM1174 1487q0 2 2 6l-2 -4h2v-2q-2 -2 -2 0zM1176 1493l4 12z" />
<glyph unicode="L" horiz-adv-x="714" d="M96 250q0 2 4 4v4l4 6zM100 254q-4 -12 2.5 -26.5t15.5 -28t18.5 -22.5t13.5 -11l10 -8q6 -10 26.5 -34t43 -48.5t42 -46t25.5 -27.5q4 0 19.5 7t25.5 16l6 4l346 188l-6 -12l6 8q2 4 4 9t4 9q8 16 5.5 21.5t-11.5 5.5q-6 0 -16 -1t-23 -3q-14 -2 -27.5 -3t-29.5 -1 l-27 35l418 1085q16 41 42 52.5t57 19.5q23 6 48 18.5t40 50.5q-35 0 -76 -8t-85 -22.5t-89 -30.5t-88 -31q-59 -23 -107.5 -38t-81.5 -15h-10q-2 0 -16 4l-9 4l-61 47v-71v-7q-6 -23 -8 -47t-6 -43q0 -39 -6 -51l-334 -870l-37 -33q-10 -4 -31.5 -19.5t-32.5 -25.5z M526 1446l29 -25v21q2 4 2 6t2 6l-6 -12q-2 0 -15 2z" />
<glyph unicode="M" horiz-adv-x="1601" d="M154 219q0 -10 10 -33.5t20 -35.5q2 -2 2 -3q0 2 2 0q4 -6 12.5 -15t12.5 -26q6 -12 12 -21t15 -19q16 -23 26 -41.5t17 -26.5h2q23 0 51.5 19.5t60.5 45.5l2 3q47 35 97.5 67.5t107.5 32.5q25 0 42.5 -8t28.5 -22.5t18 -31t16 -34.5l2 -2q10 -27 23.5 -48.5t35.5 -21.5 q27 0 69 19.5t85 50t78.5 67.5t50.5 72q10 25 12 46t-8 50l2 21l231 604q27 73 99 73h2q16 0 26 -4t19 -8l22 -37l-284 -745q-10 -27 -3 -62.5t24 -68.5t37.5 -55.5t37.5 -22.5q25 0 75 25.5t102 61.5t95 75t53 63v6q-2 4 -6 13.5t-9 19.5t-10 20.5t-7 16.5l-2 25l245 643 l23 24q6 4 23.5 27.5t23.5 36.5l8 20l-7 17.5t-7 13.5q-10 8 -24.5 33.5t-30.5 58.5q-12 23 -24.5 46.5t-24 42t-18.5 30.5l-7 12q-6 0 -10 2l-45 -33q-35 -25 -76 -54.5t-82 -55t-78 -43t-61 -17.5q-16 0 -19.5 1t-13.5 10l-6 6l-86 186h-4q-10 -2 -30 -13t-45.5 -26.5 t-54 -33t-57.5 -35.5q-59 -35 -101 -64t-67 -29l-22 11l-2 4l-88 184h-33q-74 -51 -113 -77.5t-61.5 -43t-41 -29t-48.5 -36.5q-14 -10 -22.5 -17.5t-15.5 -13.5t-17.5 -14t-26.5 -23l-2 -2q-10 -29 8 -50.5t31 -21.5l22 -34l-246 -643l-14 -21q-6 -4 -15.5 -16.5 t-15.5 -22.5q-10 -12 -15 -20.5t-7 -10.5zM283 -2q-4 0 2 -2q-2 0 -2 2zM590 324l246 643l30 28l82 43l45 -28l-262 -686l-51 -37h-68zM1262 1335l2 -4l4 2q4 2 2 2h-8zM1720 1335h2q-2 0 0 2q-4 2 -2 -2zM1722 1335q5 -4 9 -4q8 4 -9 4zM1884 1075q2 -4 0 2v-2z" />
<glyph unicode="N" d="M133 254l2 8l-2 -6q-4 -12 8.5 -31.5t22.5 -27.5v-2l153 -195h21l35 20q35 21 84 50.5t102 61.5t90 54l37 27l6 14q0 6 -1 24.5t-3 24.5v25l258 672l21 26l47 35l47 4l37 -34l6 -31l-309 -807q-8 -23 2 -52.5t30.5 -56t43 -46t38.5 -19.5q6 0 12.5 2t9.5 4l3 2l336 197 q10 4 17 7t13 7q25 16 36.5 24.5t19.5 30.5q10 29 -9.5 42.5t-46.5 23.5l-12 35l232 606l34 33q12 4 34 23.5t34 35.5q-10 10 -17.5 24.5t-15.5 22.5l-96 98q-4 2 -14.5 17.5t-22.5 36t-24.5 42t-20.5 33.5q-4 4 -2 3t2 1q-23 0 -51.5 -12t-62 -31.5t-69.5 -43t-71 -46.5 q-49 -31 -94 -57.5t-80 -42.5l-45 12q-4 29 -13.5 67t-25.5 71.5t-39.5 57t-56.5 23.5h-10q-43 -16 -93.5 -46.5t-100.5 -65.5t-96 -71t-81 -62q-8 -16 -8 -21q-8 -18 5 -22t27 -6q18 -2 34 -4.5t26 -10.5t12 -21.5t-6 -37.5l-231 -606l-23 -25q-2 -2 -9 -7t-16 -11 q-29 -16 -62.5 -41t-37.5 -29zM135 262l2 1q2 1 2 3zM1622 1065q0 -4 2 -4q-2 0 2 10q-4 -4 -4 -6z" />
<glyph unicode="O" horiz-adv-x="1126" d="M113 287q-8 -20 9 -50t49 -62t75 -63.5t88 -57t86 -41t67 -15.5h5q2 0 18 2q4 2 42 25.5t79 50.5q31 18 56.5 32.5t31.5 18.5l2 2q59 27 106 46.5t86 35.5q86 37 136.5 62.5t87.5 70.5t70.5 124t88.5 220l19 49q8 18 13 37t13 39l50 127q5 45 5 95v17q-1 58 -14.5 110 t-41 92t-72.5 55q-10 -6 -42 -20.5t-69 -30t-69.5 -28.5t-40.5 -16q-25 -8 -61 -17t-81 -19.5t-93 -19.5t-97 -17q-47 -10 -89 -18.5t-74 -13.5t-50.5 -6t-18.5 5l-284 -739l-52 -37q-18 0 -26 -21zM632 366.5q-5 14.5 3 34.5l233 609l72 30q8 -10 17.5 -26.5t14.5 -34.5 t6 -37.5t-5 -32.5l-209 -549l-53 -36q-16 0 -32.5 5t-29 14t-17.5 23.5z" />
<glyph unicode="P" horiz-adv-x="966" d="M144.5 359.5q-1.5 -11.5 9.5 -11.5q2 0 16 10l4 2q18 12 37.5 22.5t48.5 10.5q4 0 8 -1t8 -1l11 -2h8l22 -37q-4 -6 -5 -14t-5 -19q-10 -37 -26.5 -89t-32 -110.5t-27.5 -115.5t-15 -102q-1 -12 -1 -23q0 -30 6 -51q8 -29 33 -29q10 0 18 17q8 12 17.5 27.5t29.5 41.5 q4 6 19.5 35t38.5 66q18 29 37.5 59.5t36 58t29.5 49t19 29.5q16 20 86 55t162 78q55 25 109.5 50.5t99.5 47t74 35t29 17.5l237 618q4 10 4 41t-6 63t-17.5 57.5t-29.5 25.5q-12 0 -41 -13.5t-65.5 -32t-73.5 -39t-64 -34.5q-55 -31 -71 -31l-25 21q-8 63 -33.5 118.5 t-81.5 83.5l11 58l71 53h-20h-37q-94 0 -156.5 -55.5t-101.5 -153.5q-20 -53 -25.5 -95t-5.5 -81v-2q-4 -47 -8 -95t-29 -114q-29 -74 -76 -130t-96 -110q-45 -47 -83 -92t-60 -98l-14 -41q-6 -16 -7.5 -27.5zM700 621l2 22l127 332l17 22l47 37l57 2l23 -35v-26l-156 -404 l-76 -24zM864 1454q6 2 8 8z" />
<glyph unicode="Q" horiz-adv-x="968" d="M192 412q-1 -15 -1 -29q0 -51 19 -89q23 -48 97 -48q23 0 47.5 16.5t53.5 38.5q41 33 84 58.5t94 25.5h4q2 0 5 -1t9 -1l25 -33q-6 -20 -15.5 -67t-19.5 -107.5t-18.5 -125t-9.5 -118.5v-10q0 -46 8 -78q10 -34 32 -34q12 0 39 34.5t60.5 89t70.5 119t70 125t57.5 107.5 t32.5 65q10 25 33.5 77t52.5 117.5t60.5 138.5t59 138.5t49 117.5t32.5 77l39 35q12 4 16 10t8 14l2 6q3 8 3 16q0 25 -27 55q-37 40 -92.5 77t-111.5 61.5t-85 24.5h-2l-117 -64l-8 -2q-49 -23 -92 -39t-78 -30q-88 -37 -142.5 -62.5t-92 -65.5t-70.5 -105.5t-76 -180.5 l-23 -57q-25 -63 -50 -144.5t-32 -152.5zM533.5 544.5q-5.5 14.5 3.5 35.5l170 442l51 37q14 0 30.5 -5t29.5 -14.5t19.5 -24t-1.5 -34.5l-170 -440l-54 -37q-16 0 -32.5 4t-28.5 13t-17.5 23.5z" />
<glyph unicode="R" horiz-adv-x="1091" d="M135 276l8 7q-4 2 2 8q-4 -8 -10 -15zM143 283q2 -18 27 -46t61.5 -60t80.5 -63.5t83 -57t69 -42t36 -16.5h24q6 0 6 2h5q131 78 261 166t265 186l-4 -10l6 10q0 2 3 6t5 9q14 35 -6 34q-20 0 -39.5 -9t-42.5 -21q-29 -16 -59.5 -29.5t-71.5 -13.5h-12q-4 0 -11.5 -1 t-17.5 -1q-18 0 -34.5 3t-29 11t-16.5 23.5t4 37.5l195 506l20 27l45 31l56 -4l61 -201l14 -21h9q2 0 1 1t1 1q14 2 42.5 19.5t59.5 39t57.5 44t32.5 33.5l10 20l9 18q4 10 8 20.5t8 20.5l12 33q45 117 47 199v6q0 78 -53 135l-297 -213l-31 -10h-34l-25 14q-6 14 -9 23.5 t-7 19.5v4q-14 35 -24.5 59.5t-25 43t-35 34t-55.5 31.5q-10 -6 -20 -13t-39 -26l-2 -2q-33 -20 -68.5 -43.5t-68.5 -45t-59.5 -37t-39.5 -21.5q14 10 9.5 7t-18 -11t-29 -18.5t-21.5 -14.5q-29 -18 -45 -29.5t-27 -38.5q-8 -20 10.5 -31.5t41.5 -17.5h2q35 -10 59.5 -28.5 t9.5 -57.5l-182 -473l-21 -26z" />
<glyph unicode="S" horiz-adv-x="919" d="M140 314.5q3 -35.5 8.5 -75.5t10.5 -76t9 -48v-21l2 8q2 -12 5 -30.5t7 -37t10.5 -31.5t12.5 -13h6q29 10 94.5 30.5t143.5 45.5q88 29 166.5 54t113.5 36q20 8 51 23.5t60.5 32.5t53.5 37.5t32 41.5l84 203l-344 383l10 47l69 67h66q2 -8 0 -20.5t2 -24.5v-2 q2 -23 4 -48.5t8 -47t16.5 -35.5t28.5 -14q20 0 68.5 12t98.5 32.5t93.5 48.5t55.5 58q-2 2 -5 24.5t-7.5 54.5t-7.5 68t-5 66h-4v41l-2 14q-2 13 -4 29l-2 2q-2 23 -5 49.5t-14 36.5h-16q-18 -8 -54 -20t-80 -26.5t-93 -31t-99 -30.5q-68 -23 -121 -38t-69 -24 q-25 -10 -54.5 -22.5t-57 -29.5t-49 -36.5t-29.5 -42.5l-66 -172l336 -469l-47 -65l-80 -9l-31 21q-2 10 -6 39q-2 25 -4 52.5t-12 49.5l-25 39q-4 4 -14 4q-18 0 -66.5 -13t-99.5 -33.5t-95 -48.5t-55 -54q0 -2 -2 -13v-2q-4 -10 -1 -45.5zM1124 1339q2 0 2 -2h2h-2 q0 2 -2 2zM1128 1337q4 0 4 -1l-2 -1l5 2h-7z" />
<glyph unicode="T" horiz-adv-x="804" d="M51 227h12t9 4q8 2 16 5.5t21 7.5q-5 10 -5 30zM109 244q10 -49 53 -93t90 -79h2q27 -23 51.5 -43.5t26.5 -24.5q31 8 100.5 41t143 75t135 86t73.5 75q4 10 -4 14t-20 4q-16 0 -38 -4t-40 -8q-12 -2 -21.5 -3t-19.5 -1l-25 36l197 515l59 36q33 -6 60 -6q47 0 85 24.5 t58 78.5q10 25 -2 41t-34.5 26t-50 15.5t-50.5 9.5v4q-6 2 -12 2t-13 2l-14 33l150 387l-29 31q-86 -94 -159 -168t-146.5 -139.5t-156.5 -128t-191 -132.5v2q-4 -4 -5.5 -9t-3.5 -9q-14 -35 3.5 -56.5t46.5 -48.5l8 -28l-180 -469q-4 -12 -18.5 -24.5t-33 -24t-38 -21.5 t-37.5 -18z" />
<glyph unicode="U" d="M152 295v-6q0 -25 15 -57q17 -34 43 -70.5t56.5 -70.5t52.5 -58l3 -2q10 -14 17 -19.5t13 -11.5h4q33 0 73 22.5t85 51.5q57 35 112.5 65.5t114.5 30.5q55 0 83 -29.5t48 -64.5q16 -29 37 -52.5t56 -23.5q31 0 89 24.5t118.5 60.5t108.5 76t60 70q8 20 -4 24.5t-28 4.5 l-36 4t-28 9.5t-12 21.5t8 39l232 606l20 25q47 35 69.5 55t36.5 55l9 25q2 2 -1 -2t-3 -2l-5 4v2q-6 8 -16 18t-29 39q-41 47 -80.5 98.5t-50.5 67.5q-78 -70 -166 -122t-182 -87v-2q-2 -6 -1 -22.5t3 -35t5 -34.5t5 -25v-22l-233 -608q-6 -18 -27.5 -34t-46 -29t-48 -22.5 t-36.5 -13.5q-8 -4 -18 -4l-25 37l17 41q8 18 17 41t20 49l36 94l43 111q29 70 52.5 132t40.5 112v2q12 29 20 52t14 40q13 41 25 103q10 53 10 105v17q-2 60 -23.5 101.5t-70.5 41.5q-4 0 -10 -1t-10 -1h-3q-10 -6 -24 -16t-43 -29l-2 -2q-33 -20 -69 -43.5t-67.5 -45 t-58 -37t-39.5 -21.5q14 10 9 7t-18 -11t-28.5 -18.5t-21.5 -14.5q-29 -18 -44 -29.5t-26 -38.5q-8 -27 4 -26q6 0 16.5 1t20.5 3q14 2 26.5 3t29.5 1l22 -37l-225 -586l-17 -18q-18 -18 -34 -29l-17 -12l-24 -12q-8 -2 -24.5 -6.5t-20.5 -8.5q-2 -4 -1 -7t-3 -13z" />
<glyph unicode="V" horiz-adv-x="1153" d="M127 326v-6q0 -30 37 -80q41 -54 96 -108t108 -93t76 -39q2 0 22.5 9t31.5 16l4 4l174 98q41 23 92 39t106 33h3q51 14 103 30.5t98 40t81 55t51 74.5l244 635q2 6 4 17.5t2 23.5v23q0 10 -2 12l-2 4q-6 20 -22.5 52t-33 61.5t-29.5 51t-15 21.5h-27l-350 -174l-45 4 l-158 248l58 60q20 -6 36 -6q45 0 79 24.5t46 56.5q-76 0 -152.5 -8t-146 -35.5t-127 -83t-94.5 -149.5q-16 -41 -23.5 -71.5t-6.5 -58.5t9.5 -55.5t22.5 -60.5v-22l-219 -570l-20 -26q-8 -6 -19 -11q-8 -4 -23.5 -10t-29.5 -12t-25.5 -10t-13.5 -4zM127 326l2 6zM674 432 l207 537q16 41 62 58t75 17l22 -34l-247 -645l-72 -25l-45 66z" />
<glyph unicode="W" horiz-adv-x="1511" d="M125 233q-6 -16 11.5 -55t43 -81t52 -73.5t38.5 -31.5h2t7 2l12 4t2 2l262 186l20 11q16 4 20.5 5t18.5 1q66 0 105 -37t72 -78q27 -35 56.5 -62.5t70.5 -27.5q14 0 65 21.5t119.5 56.5t146.5 78t144.5 87t114.5 84t59 66l241 627q9 23 9 56q0 11 -1 23q-4 48 -18 94 t-35.5 79t-44.5 33q-29 0 -64.5 -24t-72.5 -52q-47 -35 -91 -63.5t-91 -28.5q-8 0 -11.5 1t-17.5 9l-4 2q-29 31 -44 60.5t-24 52.5h-4q-6 23 -17 35t-50 12q-63 0 -124 -40t-138 -100l-4 -2q-4 -4 -8.5 -7t-8.5 -7l-53 6q-10 51 -47 88t-72 66q-10 8 -20.5 15t-20.5 15 l29 64l141 63q4 20 -10 25.5t-31 5.5h-45q-242 0 -350 -289q-34 -87 -34 -141q0 -52 32 -104v-27l-225 -586l-29 -33q-37 -16 -53.5 -33.5t-30.5 -52.5zM590 311l258 670l53 37l60 -4l20 -37l-244 -637l-35 -33l-71 -28zM901 1460l6 10l-6 -2v-8zM1089.5 347q-4.5 15 6.5 44 l211 547q20 51 63 69.5t72 18.5l22 -37l-245 -643l-52 -37q-14 0 -30.5 2t-29.5 11.5t-17.5 24.5z" />
<glyph unicode="X" horiz-adv-x="1030" d="M-14 -134q6 -80 50 -128.5t118.5 -71t167.5 -22.5q61 0 125.5 9t123 34.5t104.5 71.5t75 120q12 31 12 54q0 55 -76 55q-41 0 -73.5 -18.5t-60.5 -49.5t-49.5 -72t-39.5 -86l-49 -36q-4 0 -21.5 -1t-38.5 -4q-23 -2 -41 -2h-24q-49 0 -98.5 6.5t-84 31t-48.5 70.5 q-6 19 -7 45q0 35 12 81q16 41 36 80t46.5 68.5t61.5 48t82 18.5q45 0 73.5 -11.5t55.5 -25.5l-2 -2q23 -12 42 -21.5t46 -9.5q14 0 54 19.5t92 49.5t108.5 65.5t104.5 70.5t82 62.5t40 42.5l2 8v6v8h-10q-14 0 -31.5 -5t-36.5 -13v-2q-27 -10 -51 -16.5t-55 -6.5 q-14 0 -31.5 1t-31 8t-18.5 23.5t5 45.5l184 481l52 37h36l25 -27q-1 -16 -1 -29q-1 -49 11 -73q14 -30 60 -29q31 0 64.5 14.5t64 38t56.5 54.5t38 65q10 27 16 79q5 45 5 90v16q-1 54 -12 94.5t-38 44.5l-284 -215l-58 2l-10 27q-12 27 -26.5 59.5t-33 60t-42 47 t-54.5 19.5l-14 -2l-367 -281q-6 -14 2 -18h2q8 -2 12.5 -3t8.5 -1q6 0 17.5 1t21.5 3t20 2h23q20 0 35.5 -5t24.5 -17.5t8 -34t-15 -56.5l-170 -444l-24 -27q-123 -78 -208 -166t-132 -211q-40 -101 -40 -175q0 -11 1 -20zM393 1034l6 4v2zM1286 1321h2l2 2q-2 -2 -4 -2z " />
<glyph unicode="Y" horiz-adv-x="901" d="M127 -379q8 6 15.5 11.5t13.5 11.5q-8 0 -9 6zM135 200q6 -36 23.5 -67t43 -50.5t52.5 -19.5q8 4 22.5 13.5t36.5 21.5q27 14 57.5 31.5t58.5 33t48.5 28t30.5 18.5l57 -25l-8 -20q-4 -10 -8 -22.5t-10 -26.5q-4 -14 -8.5 -27.5t-8.5 -24.5l-4 -12q-31 -80 -61.5 -133 t-71.5 -96t-96.5 -84t-132.5 -94q10 -2 28 -2h33q35 0 90 19.5t116.5 51t126 74.5t120 90t97.5 95t58 94l355 919q0 2 -1 1t-1 1q0 16 -1 40t-14 34l-4 8l-63 111l-209 -111l-4 -2l-86 -37l-43 8l-103 191l-2 18q4 12 4 15q0 4 2 8q12 31 43 50t66 36q10 4 17 8t12 4 q2 27 -8.5 33t-34.5 6q-115 0 -193 -80t-123 -197q-25 -66 -34 -119t-15 -106q-10 -59 -20.5 -121.5t-36.5 -130.5q-23 -59 -47.5 -107t-53.5 -95q-25 -45 -47 -89.5t-39 -89.5q-8 -23 -8 -47q0 -12 2 -25zM520 365l195 505l18 23l51 39l62 -6q2 -21 2 -44q0 -18 -1 -36 q-3 -43 -22 -90l-73 -193q-8 -20 -15.5 -34.5t-15.5 -26.5q-8 -16 -12 -27.5t-11 -23.5l-14 -39l-6 -13q-58 -71 -131 -71h-2zM1096 1180l2 2l8 2l-10 -2v-2z" />
<glyph unicode="Z" horiz-adv-x="841" d="M53 96q-4 -28 -4 -53q1 -41 11 -77q16 -58 66 -92t140 -34q104 0 198.5 40t171.5 106.5t135 150.5t93 174q31 77 35 145q3 45 3 87q0 21 -1 41q-1 19 -1 37q0 27 2 53q3 43 20 86q6 16 9 20t15 17l92 63q6 12 0 12t-18 -1t-25 -3q-10 -2 -20 -2h-21l-22 35q4 10 9 20.5 t9 22.5q8 18 15.5 37.5t17.5 42.5q18 51 34.5 107.5t18.5 103.5v8q0 42 -18 71q-20 32 -76 32q-4 0 -9 -1.5t-9 -1.5q-12 -6 -28.5 -14t-43.5 -24q-31 -16 -65.5 -35t-66.5 -35t-56.5 -29.5t-36.5 -19.5q-14 -10 -45 -28.5t-51.5 -31t-24.5 -14.5l-12 -16l6 4q-2 -6 -6 -12 l-5 -7h177q23 0 28.5 -22.5t5.5 -48.5l5 -13l-5 -18l-6 -18q-16 -41 -40.5 -68t-54.5 -43t-62.5 -25.5t-65.5 -17.5q-39 -10 -70.5 -21.5t-42.5 -37.5q-2 -4 -4 -7.5t-2 -7.5q2 0 -2 4l2 -26q-2 -4 -2 -15v-24v-35q0 -16 -4 -27q-8 -20 -36.5 -51t-63.5 -67 q-33 -31 -56.5 -55.5t-23.5 -26.5q-2 -4 -6 -13.5t-8 -17.5q-10 -20 -22.5 -48t-18.5 -44l-17 -39q-31 -78 -41 -152zM221 -53q0 20 15 59l155 404q6 18 25.5 59t47.5 83t64.5 73.5t79.5 31.5l25 -36l-236 -615q-6 -16 -5 -24.5t5 -12.5q4 -6 6.5 -12t-4.5 -18 q-10 -31 -25.5 -36t-54.5 -5q-29 0 -51 2t-34.5 13t-12.5 34z" />
<glyph unicode="[" horiz-adv-x="634" d="M72.5 56.5q23.5 -74.5 74 -137t115 -103.5t119.5 -41q-47 39 -55.5 118.5t10 189.5t59.5 240t94 269q61 162 133 325.5t138 309.5q20 47 47 88t61 76l101 127l-27 18l-4 2l-133 111l-152 -111l-8 -6q-27 -14 -46 -36.5t-30 -41.5l-493 -1255q-27 -68 -3.5 -142.5z M381 -225q37 -31 94 -31h10l-24 41q-4 -6 -17.5 -8t-27.5 -2h-35zM805 1649l2 2h-2v-2zM993 1505l4 -4l68 60l-6 4z" />
<glyph unicode="\" horiz-adv-x="854" d="M385 1100l6 -13q2 -29 13.5 -48t27.5 -35q25 -29 49.5 -68t28.5 -113q2 -18 1 -60t-3 -93.5t-4 -106.5t-2 -100q-2 -33 -3 -57.5t-1 -36.5l-66 -47q-4 2 -14 2h-15h-10q-8 -16 -4 -37q4 -35 41 -87.5t86 -102.5t99.5 -86t78.5 -36q12 0 31.5 20.5t40 51.5t39 65.5 t31.5 65.5q12 27 12 41l-39 737l55 54q6 0 18.5 6t16.5 10l-2 -6q4 8 7 25.5t3 21.5v2q0 8 -11 20.5t-40 40t-79 72.5l-130 117q-12 14 -16 17t-19 18q-147 -117 -219 -260l-2 -4z" />
<glyph unicode="]" horiz-adv-x="544" d="M-223 -256q10 0 18 1t19 3l-2 -4h-35zM-186 -252q6 16 22.5 21.5t28.5 5.5h31q-37 -16 -82 -27zM-104 -225q76 39 146.5 118.5t135 189.5t123.5 240t113 269q61 162 115.5 325.5t101.5 309.5q16 47 20 88t-2 76l-4 127l41 18l4 2l219 113l66 -113l4 -6q16 -14 18 -38 t2 -44l-473 -1251q-18 -45 -60 -94.5t-100.5 -96.5t-124 -89t-130 -74.5t-121 -51t-92.5 -18.5h-2zM586 1563l12 4l12 -64l-12 -4z" />
<glyph unicode="^" horiz-adv-x="1153" d="M90 203q0 10 2 22.5t4 23.5t4 15l244 637q16 43 52 75t82 55.5t99.5 39.5t106.5 33q57 16 106.5 31.5t88.5 35.5l174 103l6 4q6 4 27.5 13t23.5 9q12 0 42 -18t65.5 -48t73.5 -67t69 -72.5t49 -67.5t16 -52l-11 -5t-26.5 -11.5t-30 -12.5t-22.5 -8q-10 -4 -18 -10 l-21 -27l-219 -569v-21q14 -35 22.5 -61.5t9.5 -53t-6 -58.5t-24 -75q-37 -96 -94 -151t-127 -83t-146.5 -36t-152.5 -8q12 33 45 58.5t78 25.5q10 0 18.5 -2t18.5 -4l57 59l-155 248l-46 4l-350 -174h-26q-2 0 -16.5 21.5t-32 50t-33 60.5t-21.5 52l-2 6q-4 2 -4 13z M514 291l23 -37q14 0 33.5 4t39 13.5t36 23.5t24.5 37l204 534v27l-40 68l-74 -27zM1425 969v6h2z" />
<glyph unicode="_" horiz-adv-x="1064" d="M-281 -360l678 155l500 -125q-16 -6 -37.5 -11t-46.5 -13h-2q-35 -10 -70.5 -21.5t-76.5 -25.5l-13 -5q8 4 -8 5q-35 0 -117 3t-185 7t-214 9t-202 9t-149.5 7.5t-56.5 5.5zM897 -330q35 10 62.5 21.5t50.5 23.5l-13 -28q-8 -23 -7 -29t11 -16zM1010 -285q4 16 12 18.5 t29 2.5l-25 -8q-4 -4 -8 -6.5t-8 -6.5z" />
<glyph unicode="`" horiz-adv-x="493" d="M774 2019l8 17q-2 -2 -2 -13zM780 2023l289 148l33 -311q-18 -29 -48 -48.5t-71 -42.5q-14 -8 -30.5 -16t-32.5 -20q-16 8 -38 47t-43.5 85t-38 91t-20.5 67zM909 1726l11 7v-2h2zM1102 1860l2 1t2 3v-4l-2 -2zM1104 1849q-2 2 0 9v-7v-2zM1106 1864q4 10 13 20t38 10z " />
<glyph unicode="a" horiz-adv-x="1083" d="M138 286q12 100 59 226l110 289q6 16 14.5 33.5t16.5 37.5l14 39q33 66 80 112t103.5 81t119 60.5t127.5 49.5q35 14 74 30t82 36q18 10 32.5 16.5t22.5 12.5q23 10 38.5 17t35.5 7q29 0 45 -21.5t35 -47.5q12 -20 25.5 -40t31.5 -32q16 -18 33.5 -28.5t36.5 -20.5 q31 -16 60.5 -36t17.5 -50q-4 -10 -15.5 -17.5t-27.5 -13.5q-16 -8 -32.5 -16.5t-33.5 -22.5l-16 -16q-35 -66 -56.5 -115t-44.5 -111l-100 -262q-4 -8 -11 -35.5t-10.5 -57.5t5 -53.5t37.5 -23.5q16 0 26 4.5t21 10.5l4 2l2 1t8 1q2 0 1 -15.5t-5 -25.5t-8 -12l-2 -3 q-6 -4 -15.5 -7t-17.5 -7l-10 -8q-23 -18 -70 -50t-98 -67q-47 -29 -84 -54.5t-45 -33.5h-9q-18 0 -33.5 14.5t-26.5 36t-19.5 48t-14.5 49.5v2q-10 35 -19 58.5t-36 23.5q-35 0 -82 -34t-104 -79q-27 -20 -53.5 -42t-50 -38t-42 -27.5t-31.5 -11.5q-20 0 -30 15.5t-23 33.5 q-45 72 -45 152q1 17 3 36zM496 356q-14 -31 14 -45l18 -4h15l26 10q8 6 24.5 18.5t34 28t32 31t18.5 27.5l209 543l-4 26q-6 10 -8.5 12.5t-6.5 8.5q-2 2 -4 8t-6 12v2q-6 10 -7 15.5t-11 17.5l-19 6h-12l-49 -29l-35 -61l-152 -395q-20 -53 -39.5 -109.5t-37.5 -122.5z " />
<glyph unicode="b" horiz-adv-x="1021" d="M137 279l2 -3q6 -25 41 -70.5t78 -89.5t84 -79t61 -37l562 229l18 4q-8 2 0 17.5t18 25.5q8 12 14.5 19.5t12.5 17t14.5 21.5t24.5 35l190 497q5 14 5 33q0 14 -3 31q-6 39 -22 76.5t-37.5 65.5t-40.5 28q-29 0 -74 -21.5t-94 -50.5h-2q-33 -16 -62.5 -31.5t-58.5 -27.5 l-41 32l11 31q4 10 8 22.5t8 22.5l27 72q35 92 74.5 147.5t78.5 87t76 45t68 23.5h2q35 10 37 14q10 25 11 37.5t-3 26.5q-23 -4 -31 -3t-29 -3h-2q-92 -12 -178 -26.5t-172 -57.5l-131 -68l-16 -6q-8 -2 -13 -2h-12h-12t-13 2l-12 6q-8 4 -18.5 17.5t-20.5 25.5q0 -6 2 -8 v-129t-14 -109l-309 -804l-27 -31q-12 -6 -39.5 -23.5t-36.5 -27.5zM137 279l2 2zM547 1446q0 -4 5 -12.5t13 -18.5q-2 20 -2 27v16zM582 365l168 436q16 41 61 58.5t74 17.5l26 -35l-209 -543l-75 -27l-41 68z" />
<glyph unicode="c" horiz-adv-x="962" d="M129 334q-8 -23 -8 -48q1 -28 11 -60q20 -58 60.5 -109t92 -85t94.5 -34q4 0 12 1t15 1l51 25.5t89 46t107.5 57.5t110.5 59q49 27 85 44.5t56 27.5q8 6 12.5 8t8.5 4q33 16 45 26.5t22 35.5q4 12 3 21.5t-11 9.5q-20 0 -40.5 -5.5t-41.5 -9.5q-29 -8 -60.5 -15t-60.5 -7 q-31 0 -73.5 11t-79.5 32.5t-57 55.5q-11 19 -10 40q0 18 7 37l183 471l77 18q0 2 0 -12t2.5 -36.5t5.5 -46.5t10 -45.5t19.5 -34.5t30.5 -13q20 0 70.5 12t104.5 31.5t100.5 47.5t58.5 58q-2 -2 0 9q-2 10 -7 47t-11.5 77.5t-10.5 78.5t-4 53q0 2 -3 13t-7 30 q-4 27 -12.5 54t-20.5 27q-4 0 -6 -1t-4 -1h-2q-23 -8 -64 -20t-92 -28.5t-108.5 -34t-108.5 -33t-92 -27.5t-64 -18q-27 -10 -60.5 -24.5t-65 -33t-56 -39t-33.5 -43.5z" />
<glyph unicode="d" horiz-adv-x="958" d="M88 231q-2 -8 37 -44.5t90 -78.5t99 -75t65 -33q14 0 62 16.5t111.5 43t135.5 60.5t133.5 66.5t104.5 63.5t51 49l231 604q8 20 4 52t-16 62t-28.5 54.5t-32.5 32.5l-5 2q-16 12 -62 41t-99.5 60.5t-102.5 59t-69 38.5l-11 8q-6 10 -6 12q0 4 6 21l5 8q12 33 34.5 48 t55.5 34q27 14 50 28.5t25 18.5q-61 0 -121.5 -8.5t-114.5 -33t-98 -69.5t-73 -119q-20 -52 -20 -94q-1 -44 17 -82q16 -37 46.5 -68.5t66.5 -58.5l-47 -69h-190l-209 -547l-27 -31q-10 -6 -25.5 -15t-30.5 -19.5t-27.5 -21t-14.5 -16.5zM549 365l194 503l74 25l47 -66v-26 l-192 -502l-76 -27l-43 68z" />
<glyph unicode="e" horiz-adv-x="995" d="M146 270q14 -70 53 -131t96 -101t121 -40q23 0 75 21.5t118.5 54t138 73.5t133 80t103.5 73t48 50.5t-24 16.5q-29 0 -54.5 -5.5t-48.5 -11.5q-31 -10 -60.5 -16t-64.5 -6q-37 0 -80 13t-77.5 37.5t-50.5 59.5q-8 18 -8 38t8 42q16 45 50.5 78t80 58.5t99.5 46t109 40.5 q49 18 99.5 37t91.5 40.5t72.5 48t44.5 59.5q2 8 5 19t7 20l-96 350l-5 4h-2q-10 6 -23 13t-18 9h-8q-29 0 -88 -14t-131 -39.5t-149.5 -58.5t-145 -70t-116 -76t-62.5 -73l-233 -609q-14 -37 -14 -78q0 -26 6 -53zM625 739l90 236l78 16q0 -4 3 -17t7 -28.5t8 -29t8 -17.5 v-6q6 -16 9 -50t1 -38q-6 -18 -28.5 -33.5t-48 -29t-49 -22.5t-35.5 -13q-6 -4 -9 -5h-12zM1135 1315q2 0 0 4v-4z" />
<glyph unicode="f" horiz-adv-x="808" d="M89 213q1 -12 5 -16l6 -7q14 -23 44 -54.5t61 -62t54.5 -52t25.5 -21.5h53l401 279l9 20q-4 -2 -15.5 -6t-21.5 -8q-25 -10 -48.5 -16.5t-46.5 -6.5h-28q-8 2 -15.5 11.5t-13.5 20.5t-9 22.5t-1 15.5l168 434q2 8 14 20.5t25.5 22.5t28 18.5t24.5 10.5h8q-8 0 1 1t20 3 q20 4 48.5 9t55.5 10t46 8l18 3q-2 -2 -2 -4t6 13q4 12 8 20t8 17q14 39 14 59q0 23 -17 34t-50 14t-84 7l-23 37l27 68l76 24q12 -18 30.5 -21t47.5 -3h14q86 0 117 77q12 34 12 62q0 14 -3 27q-9 38 -44 73l31 60q47 18 66.5 36.5t29.5 40.5q-92 0 -163 -2t-138.5 -15 t-140 -42t-171.5 -80l-53 12q-12 63 -47 64q-6 -16 -8 -49q-1 -17 -1 -34t1 -36q-2 -43 -5 -88t-24 -94q-16 -45 -43.5 -80t-56.5 -65q-23 -25 -43.5 -49.5t-30.5 -53.5q-10 -27 -7 -40t30 -27l10 -33l-180 -469l-33 -31q-2 0 -13.5 -10t-24.5 -22.5t-24.5 -24l-13.5 -13.5 v-2q-2 -4 -1 -16zM748 299q4 4 2 4z" />
<glyph unicode="g" horiz-adv-x="995" d="M42 -62q19 -38 64.5 -57.5t107.5 -26t122 -6.5q86 0 183 20.5t186.5 63.5t162 111t109.5 164q12 31 16 56.5t2 50t-10 53t-22 65.5l2 21l204 536l21 27q6 2 18.5 13t26.5 25.5t27.5 27t19.5 18.5l2 4q0 6 -2 8h-2l2 2l-8 12q-16 12 -57 45t-86.5 70t-85 69.5t-54.5 45.5 q-6 0 -12 1t-10 1q-16 0 -62.5 -15.5t-105 -39t-123 -51t-118.5 -54.5t-91 -47.5t-39 -28.5l-244 -635q-10 -29 -9 -59.5t12.5 -55t32 -40t48.5 -15.5q45 0 71 9.5t60 25.5q29 14 68 32.5t92 35.5l14 4h33l25 -18q0 -2 3 -19.5t7 -47.5t4 -54v-2q4 -37 12.5 -80t12.5 -66 l-2 -18l-6 -17q-2 -4 -2 -10q0 -4 -3 -8q-23 -55 -62.5 -88t-85.5 -50.5t-93 -22.5t-82 -5l-25 37q16 43 25 85q4 22 4 40t-4 34q-8 31 -35 50.5t-78 19.5q-78 0 -112.5 -34.5t-63.5 -106.5q-14 -37 -14 -65q0 -23 9 -40zM516 545l197 512l67 33l56 -35l8 -33l-168 -436 q-16 -41 -62.5 -59.5t-74.5 -18.5zM1282 1112q6 2 4 8zM1284 1104q0 -4 1 -3t1 5l2 2z" />
<glyph unicode="h" horiz-adv-x="978" d="M176 340q-5 -14 -5 -28q1 -18 9 -36q16 -34 41 -62t54.5 -46t48.5 -18q23 0 70.5 22.5t94.5 44.5v2q39 20 74 35l41 -33q0 -4 -5 -18.5t-9 -30.5t-8 -30.5t-9 -24.5q-25 -63 -51 -104.5t-55 -70t-61.5 -50t-71.5 -42.5q-29 -16 -59.5 -34.5t-67.5 -42.5q6 -4 16.5 -5 t22.5 -1h10q82 0 178 38.5t188.5 101t170 139.5t122.5 153q8 14 27 51t42.5 86t50 105.5t51 109.5t44 98t29.5 70q2 6 8.5 35.5t10.5 66.5v2q8 35 10 61.5t12 55.5v47t-4 80t-14.5 75t-28.5 34l-293 -152l-47 29q6 14 16 45v2q6 20 12.5 37.5t10.5 31.5q25 63 50.5 120 t61 101t87 72.5t127.5 38.5q-2 4 -2 6t-2 4h-60q-10 0 -20.5 1t-20.5 1h-26q-61 0 -108.5 -6t-92.5 -21.5t-91 -43t-108 -70.5h-53q-8 8 -12 16.5t-9 14.5q-8 14 -13 24.5t-7 14.5q-23 -57 -23 -127t11 -129v-17l-291 -757l-37 -35q-20 -6 -26.5 -15.5t-10.5 -21.5z M180 -252q6 6 12.5 11t14.5 14q-4 2 -8 10zM553 1442l2 4q-2 0 -2 -4zM567 412l174 452l23 27l63 41l52 -27l-193 -497l-55 -37l-45 4zM1175 1483q1 -2 1 0v2v4q-2 -4 -1 -6zM1176 1489l4 12h-2v-2h2z" />
<glyph unicode="i" horiz-adv-x="716" d="M205 197q-8 -20 1 -54t27.5 -66t43 -55.5t47.5 -23.5q27 0 87 26.5t121.5 64.5t111.5 78t61 64q14 33 -27 33h-14t-17 -2l-33 29q2 20 15.5 73.5t30 114t34 113.5t25.5 76q27 66 65.5 100.5t75.5 60.5q20 12 34.5 24.5t20.5 29.5l-157 227l33 57q4 2 10 9 q53 33 108.5 70.5t75.5 90.5q10 29 5 58.5t-21.5 53.5t-43 39t-59.5 15q-57 0 -113.5 -39t-78.5 -94q-8 -18 -13.5 -49t-6.5 -61.5t5.5 -56t22.5 -36.5l-14 -57l-326 -223q4 -14 12 -21l4 -6q4 -4 23.5 -13t30.5 -9l24 -37zM334 881l8 6v4q0 -2 -8 -10z" />
<glyph unicode="j" horiz-adv-x="978" d="M111 287q2 0 10 4q-2 6 -1 12t1 12zM111 373l14 -6q10 -4 12 -11q4 12 -3 14.5t-23 2.5zM121 291q4 -35 22.5 -73t43 -75t51 -69.5t47.5 -57.5q12 -16 19 -22t13 -14h-8q2 -49 10.5 -43t16.5 26q35 0 103.5 21.5t150.5 57.5t167 81t154 94q29 100 57.5 193.5t75.5 218.5 l142 370l22 27q10 6 31 27.5t41 40.5q10 10 14 15t11 9l2 4l51 35q-66 0 -84.5 10.5t-26.5 22.5q-29 41 -52.5 78t-16.5 53l18 25q10 6 32.5 23t51.5 40q31 23 57.5 43.5t36.5 28.5l6 16q8 20 10.5 45t-3 46.5t-18.5 36.5t-34 15q-14 0 -39.5 -8t-52 -22.5t-49.5 -31.5 t-31 -38l-4 -8q-4 -8 -6 -36t-3 -59.5t-1 -60.5t2 -37l-25 -45l-241 -178q6 4 2 -10q-4 -12 -4 -23q0 -10 12 -10q4 0 8 1t8 1l25 -37l-281 -727l-59 -35l-350 84q8 20 -6.5 14.5t-30.5 -16.5l-4 -2l-15 -8l-10 -6l-37 -16q-10 -27 -22 -35zM123 315l20 11v2q4 10 1 17 t-7 11q-4 -14 -14 -41z" />
<glyph unicode="k" horiz-adv-x="1003" d="M131 340q4 8 31.5 19.5t56.5 21.5l37 35l291 760v14q-5 44 -5 97q0 18 1 36q2 74 24 127q6 0 11.5 -21.5t15.5 -44.5l57 -4q61 43 108.5 70t91.5 43t90 22.5t108 6.5q4 0 4 -2h8q8 -2 22 -2h31q16 0 27.5 -1t21.5 -1h13q4 0 4 -11q-78 -10 -128.5 -38.5t-86 -71.5 t-61 -98.5t-50.5 -120.5l-23 -62q-4 -10 -6 -18.5t-6 -16.5l-6 -18l45 -31l293 150h2q41 20 92 20q35 0 60.5 -5t29.5 -17l-487 -301l-10 -62q51 -16 126.5 -46t194.5 -83q10 -4 6 -30.5t-18 -63.5q-20 -53 -54 -114.5t-69 -117t-64.5 -97.5t-41.5 -54h-3 q-80 -78 -162.5 -152.5t-166.5 -136t-167 -102.5t-163 -49h-16h-23q-10 0 -16 -5l368 369l-26 53q-66 -23 -114 -29.5t-101 -6.5q-23 0 -61 18t-71.5 46t-55.5 62q-14 22 -13 41q0 12 4 23zM199 -238l2 2zM473 238l49 -29q72 41 110 88t48 78l29 71q23 61 33 128q3 19 3 38 q0 48 -18 95l-78 -23zM1174 1487q0 2 2 6l-2 -4h2v-2q-2 -2 -2 0zM1176 1493l4 12z" />
<glyph unicode="l" horiz-adv-x="714" d="M96 250q0 2 4 4v4l4 6zM100 254q-4 -12 2.5 -26.5t15.5 -28t18.5 -22.5t13.5 -11l10 -8q6 -10 26.5 -34t43 -48.5t42 -46t25.5 -27.5q4 0 19.5 7t25.5 16l6 4l346 188l-6 -12l6 8q2 4 4 9t4 9q8 16 5.5 21.5t-11.5 5.5q-6 0 -16 -1t-23 -3q-14 -2 -27.5 -3t-29.5 -1 l-27 35l418 1085q16 41 42 52.5t57 19.5q23 6 48 18.5t40 50.5q-35 0 -76 -8t-85 -22.5t-89 -30.5t-88 -31q-59 -23 -107.5 -38t-81.5 -15h-10q-2 0 -16 4l-9 4l-61 47v-71v-7q-6 -23 -8 -47t-6 -43q0 -39 -6 -51l-334 -870l-37 -33q-10 -4 -31.5 -19.5t-32.5 -25.5z M526 1446l29 -25v21q2 4 2 6t2 6l-6 -12q-2 0 -15 2z" />
<glyph unicode="m" horiz-adv-x="1601" d="M154 219q0 -10 10 -33.5t20 -35.5q2 -2 2 -3q0 2 2 0q4 -6 12.5 -15t12.5 -26q6 -12 12 -21t15 -19q16 -23 26 -41.5t17 -26.5h2q23 0 51.5 19.5t60.5 45.5l2 3q47 35 97.5 67.5t107.5 32.5q25 0 42.5 -8t28.5 -22.5t18 -31t16 -34.5l2 -2q10 -27 23.5 -48.5t35.5 -21.5 q27 0 69 19.5t85 50t78.5 67.5t50.5 72q10 25 12 46t-8 50l2 21l231 604q27 73 99 73h2q16 0 26 -4t19 -8l22 -37l-284 -745q-10 -27 -3 -62.5t24 -68.5t37.5 -55.5t37.5 -22.5q25 0 75 25.5t102 61.5t95 75t53 63v6q-2 4 -6 13.5t-9 19.5t-10 20.5t-7 16.5l-2 25l245 643 l23 24q6 4 23.5 27.5t23.5 36.5l8 20l-7 17.5t-7 13.5q-10 8 -24.5 33.5t-30.5 58.5q-12 23 -24.5 46.5t-24 42t-18.5 30.5l-7 12q-6 0 -10 2l-45 -33q-35 -25 -76 -54.5t-82 -55t-78 -43t-61 -17.5q-16 0 -19.5 1t-13.5 10l-6 6l-86 186h-4q-10 -2 -30 -13t-45.5 -26.5 t-54 -33t-57.5 -35.5q-59 -35 -101 -64t-67 -29l-22 11l-2 4l-88 184h-33q-74 -51 -113 -77.5t-61.5 -43t-41 -29t-48.5 -36.5q-14 -10 -22.5 -17.5t-15.5 -13.5t-17.5 -14t-26.5 -23l-2 -2q-10 -29 8 -50.5t31 -21.5l22 -34l-246 -643l-14 -21q-6 -4 -15.5 -16.5 t-15.5 -22.5q-10 -12 -15 -20.5t-7 -10.5zM283 -2q-4 0 2 -2q-2 0 -2 2zM590 324l246 643l30 28l82 43l45 -28l-262 -686l-51 -37h-68zM1262 1335l2 -4l4 2q4 2 2 2h-8zM1720 1335h2q-2 0 0 2q-4 2 -2 -2zM1722 1335q5 -4 9 -4q8 4 -9 4zM1884 1075q2 -4 0 2v-2z" />
<glyph unicode="n" d="M133 254l2 8l-2 -6q-4 -12 8.5 -31.5t22.5 -27.5v-2l153 -195h21l35 20q35 21 84 50.5t102 61.5t90 54l37 27l6 14q0 6 -1 24.5t-3 24.5v25l258 672l21 26l47 35l47 4l37 -34l6 -31l-309 -807q-8 -23 2 -52.5t30.5 -56t43 -46t38.5 -19.5q6 0 12.5 2t9.5 4l3 2l336 197 q10 4 17 7t13 7q25 16 36.5 24.5t19.5 30.5q10 29 -9.5 42.5t-46.5 23.5l-12 35l232 606l34 33q12 4 34 23.5t34 35.5q-10 10 -17.5 24.5t-15.5 22.5l-96 98q-4 2 -14.5 17.5t-22.5 36t-24.5 42t-20.5 33.5q-4 4 -2 3t2 1q-23 0 -51.5 -12t-62 -31.5t-69.5 -43t-71 -46.5 q-49 -31 -94 -57.5t-80 -42.5l-45 12q-4 29 -13.5 67t-25.5 71.5t-39.5 57t-56.5 23.5h-10q-43 -16 -93.5 -46.5t-100.5 -65.5t-96 -71t-81 -62q-8 -16 -8 -21q-8 -18 5 -22t27 -6q18 -2 34 -4.5t26 -10.5t12 -21.5t-6 -37.5l-231 -606l-23 -25q-2 -2 -9 -7t-16 -11 q-29 -16 -62.5 -41t-37.5 -29zM135 262l2 1q2 1 2 3zM1622 1065q0 -4 2 -4q-2 0 2 10q-4 -4 -4 -6z" />
<glyph unicode="o" horiz-adv-x="1126" d="M113 287q-8 -20 9 -50t49 -62t75 -63.5t88 -57t86 -41t67 -15.5h5q2 0 18 2q4 2 42 25.5t79 50.5q31 18 56.5 32.5t31.5 18.5l2 2q59 27 106 46.5t86 35.5q86 37 136.5 62.5t87.5 70.5t70.5 124t88.5 220l19 49q8 18 13 37t13 39l50 127q5 45 5 95v17q-1 58 -14.5 110 t-41 92t-72.5 55q-10 -6 -42 -20.5t-69 -30t-69.5 -28.5t-40.5 -16q-25 -8 -61 -17t-81 -19.5t-93 -19.5t-97 -17q-47 -10 -89 -18.5t-74 -13.5t-50.5 -6t-18.5 5l-284 -739l-52 -37q-18 0 -26 -21zM632 366.5q-5 14.5 3 34.5l233 609l72 30q8 -10 17.5 -26.5t14.5 -34.5 t6 -37.5t-5 -32.5l-209 -549l-53 -36q-16 0 -32.5 5t-29 14t-17.5 23.5z" />
<glyph unicode="p" horiz-adv-x="966" d="M144.5 359.5q-1.5 -11.5 9.5 -11.5q2 0 16 10l4 2q18 12 37.5 22.5t48.5 10.5q4 0 8 -1t8 -1l11 -2h8l22 -37q-4 -6 -5 -14t-5 -19q-10 -37 -26.5 -89t-32 -110.5t-27.5 -115.5t-15 -102q-1 -12 -1 -23q0 -30 6 -51q8 -29 33 -29q10 0 18 17q8 12 17.5 27.5t29.5 41.5 q4 6 19.5 35t38.5 66q18 29 37.5 59.5t36 58t29.5 49t19 29.5q16 20 86 55t162 78q55 25 109.5 50.5t99.5 47t74 35t29 17.5l237 618q4 10 4 41t-6 63t-17.5 57.5t-29.5 25.5q-12 0 -41 -13.5t-65.5 -32t-73.5 -39t-64 -34.5q-55 -31 -71 -31l-25 21q-8 63 -33.5 118.5 t-81.5 83.5l11 58l71 53h-20h-37q-94 0 -156.5 -55.5t-101.5 -153.5q-20 -53 -25.5 -95t-5.5 -81v-2q-4 -47 -8 -95t-29 -114q-29 -74 -76 -130t-96 -110q-45 -47 -83 -92t-60 -98l-14 -41q-6 -16 -7.5 -27.5zM700 621l2 22l127 332l17 22l47 37l57 2l23 -35v-26l-156 -404 l-76 -24zM864 1454q6 2 8 8z" />
<glyph unicode="q" horiz-adv-x="968" d="M192 412q-1 -15 -1 -29q0 -51 19 -89q23 -48 97 -48q23 0 47.5 16.5t53.5 38.5q41 33 84 58.5t94 25.5h4q2 0 5 -1t9 -1l25 -33q-6 -20 -15.5 -67t-19.5 -107.5t-18.5 -125t-9.5 -118.5v-10q0 -46 8 -78q10 -34 32 -34q12 0 39 34.5t60.5 89t70.5 119t70 125t57.5 107.5 t32.5 65q10 25 33.5 77t52.5 117.5t60.5 138.5t59 138.5t49 117.5t32.5 77l39 35q12 4 16 10t8 14l2 6q3 8 3 16q0 25 -27 55q-37 40 -92.5 77t-111.5 61.5t-85 24.5h-2l-117 -64l-8 -2q-49 -23 -92 -39t-78 -30q-88 -37 -142.5 -62.5t-92 -65.5t-70.5 -105.5t-76 -180.5 l-23 -57q-25 -63 -50 -144.5t-32 -152.5zM533.5 544.5q-5.5 14.5 3.5 35.5l170 442l51 37q14 0 30.5 -5t29.5 -14.5t19.5 -24t-1.5 -34.5l-170 -440l-54 -37q-16 0 -32.5 4t-28.5 13t-17.5 23.5z" />
<glyph unicode="r" horiz-adv-x="1091" d="M135 276l8 7q-4 2 2 8q-4 -8 -10 -15zM143 283q2 -18 27 -46t61.5 -60t80.5 -63.5t83 -57t69 -42t36 -16.5h24q6 0 6 2h5q131 78 261 166t265 186l-4 -10l6 10q0 2 3 6t5 9q14 35 -6 34q-20 0 -39.5 -9t-42.5 -21q-29 -16 -59.5 -29.5t-71.5 -13.5h-12q-4 0 -11.5 -1 t-17.5 -1q-18 0 -34.5 3t-29 11t-16.5 23.5t4 37.5l195 506l20 27l45 31l56 -4l61 -201l14 -21h9q2 0 1 1t1 1q14 2 42.5 19.5t59.5 39t57.5 44t32.5 33.5l10 20l9 18q4 10 8 20.5t8 20.5l12 33q45 117 47 199v6q0 78 -53 135l-297 -213l-31 -10h-34l-25 14q-6 14 -9 23.5 t-7 19.5v4q-14 35 -24.5 59.5t-25 43t-35 34t-55.5 31.5q-10 -6 -20 -13t-39 -26l-2 -2q-33 -20 -68.5 -43.5t-68.5 -45t-59.5 -37t-39.5 -21.5q14 10 9.5 7t-18 -11t-29 -18.5t-21.5 -14.5q-29 -18 -45 -29.5t-27 -38.5q-8 -20 10.5 -31.5t41.5 -17.5h2q35 -10 59.5 -28.5 t9.5 -57.5l-182 -473l-21 -26z" />
<glyph unicode="s" horiz-adv-x="919" d="M140 314.5q3 -35.5 8.5 -75.5t10.5 -76t9 -48v-21l2 8q2 -12 5 -30.5t7 -37t10.5 -31.5t12.5 -13h6q29 10 94.5 30.5t143.5 45.5q88 29 166.5 54t113.5 36q20 8 51 23.5t60.5 32.5t53.5 37.5t32 41.5l84 203l-344 383l10 47l69 67h66q2 -8 0 -20.5t2 -24.5v-2 q2 -23 4 -48.5t8 -47t16.5 -35.5t28.5 -14q20 0 68.5 12t98.5 32.5t93.5 48.5t55.5 58q-2 2 -5 24.5t-7.5 54.5t-7.5 68t-5 66h-4v41l-2 14q-2 13 -4 29l-2 2q-2 23 -5 49.5t-14 36.5h-16q-18 -8 -54 -20t-80 -26.5t-93 -31t-99 -30.5q-68 -23 -121 -38t-69 -24 q-25 -10 -54.5 -22.5t-57 -29.5t-49 -36.5t-29.5 -42.5l-66 -172l336 -469l-47 -65l-80 -9l-31 21q-2 10 -6 39q-2 25 -4 52.5t-12 49.5l-25 39q-4 4 -14 4q-18 0 -66.5 -13t-99.5 -33.5t-95 -48.5t-55 -54q0 -2 -2 -13v-2q-4 -10 -1 -45.5zM1124 1339q2 0 2 -2h2h-2 q0 2 -2 2zM1128 1337q4 0 4 -1l-2 -1l5 2h-7z" />
<glyph unicode="t" horiz-adv-x="804" d="M51 227h12t9 4q8 2 16 5.5t21 7.5q-5 10 -5 30zM109 244q10 -49 53 -93t90 -79h2q27 -23 51.5 -43.5t26.5 -24.5q31 8 100.5 41t143 75t135 86t73.5 75q4 10 -4 14t-20 4q-16 0 -38 -4t-40 -8q-12 -2 -21.5 -3t-19.5 -1l-25 36l197 515l59 36q33 -6 60 -6q47 0 85 24.5 t58 78.5q10 25 -2 41t-34.5 26t-50 15.5t-50.5 9.5v4q-6 2 -12 2t-13 2l-14 33l150 387l-29 31q-86 -94 -159 -168t-146.5 -139.5t-156.5 -128t-191 -132.5v2q-4 -4 -5.5 -9t-3.5 -9q-14 -35 3.5 -56.5t46.5 -48.5l8 -28l-180 -469q-4 -12 -18.5 -24.5t-33 -24t-38 -21.5 t-37.5 -18z" />
<glyph unicode="u" d="M152 295v-6q0 -25 15 -57q17 -34 43 -70.5t56.5 -70.5t52.5 -58l3 -2q10 -14 17 -19.5t13 -11.5h4q33 0 73 22.5t85 51.5q57 35 112.5 65.5t114.5 30.5q55 0 83 -29.5t48 -64.5q16 -29 37 -52.5t56 -23.5q31 0 89 24.5t118.5 60.5t108.5 76t60 70q8 20 -4 24.5t-28 4.5 l-36 4t-28 9.5t-12 21.5t8 39l232 606l20 25q47 35 69.5 55t36.5 55l9 25q2 2 -1 -2t-3 -2l-5 4v2q-6 8 -16 18t-29 39q-41 47 -80.5 98.5t-50.5 67.5q-78 -70 -166 -122t-182 -87v-2q-2 -6 -1 -22.5t3 -35t5 -34.5t5 -25v-22l-233 -608q-6 -18 -27.5 -34t-46 -29t-48 -22.5 t-36.5 -13.5q-8 -4 -18 -4l-25 37l17 41q8 18 17 41t20 49l36 94l43 111q29 70 52.5 132t40.5 112v2q12 29 20 52t14 40q13 41 25 103q10 53 10 105v17q-2 60 -23.5 101.5t-70.5 41.5q-4 0 -10 -1t-10 -1h-3q-10 -6 -24 -16t-43 -29l-2 -2q-33 -20 -69 -43.5t-67.5 -45 t-58 -37t-39.5 -21.5q14 10 9 7t-18 -11t-28.5 -18.5t-21.5 -14.5q-29 -18 -44 -29.5t-26 -38.5q-8 -27 4 -26q6 0 16.5 1t20.5 3q14 2 26.5 3t29.5 1l22 -37l-225 -586l-17 -18q-18 -18 -34 -29l-17 -12l-24 -12q-8 -2 -24.5 -6.5t-20.5 -8.5q-2 -4 -1 -7t-3 -13z" />
<glyph unicode="v" horiz-adv-x="1153" d="M127 326v-6q0 -30 37 -80q41 -54 96 -108t108 -93t76 -39q2 0 22.5 9t31.5 16l4 4l174 98q41 23 92 39t106 33h3q51 14 103 30.5t98 40t81 55t51 74.5l244 635q2 6 4 17.5t2 23.5v23q0 10 -2 12l-2 4q-6 20 -22.5 52t-33 61.5t-29.5 51t-15 21.5h-27l-350 -174l-45 4 l-158 248l58 60q20 -6 36 -6q45 0 79 24.5t46 56.5q-76 0 -152.5 -8t-146 -35.5t-127 -83t-94.5 -149.5q-16 -41 -23.5 -71.5t-6.5 -58.5t9.5 -55.5t22.5 -60.5v-22l-219 -570l-20 -26q-8 -6 -19 -11q-8 -4 -23.5 -10t-29.5 -12t-25.5 -10t-13.5 -4zM127 326l2 6zM674 432 l207 537q16 41 62 58t75 17l22 -34l-247 -645l-72 -25l-45 66z" />
<glyph unicode="w" horiz-adv-x="1511" d="M125 233q-6 -16 11.5 -55t43 -81t52 -73.5t38.5 -31.5h2t7 2l12 4t2 2l262 186l20 11q16 4 20.5 5t18.5 1q66 0 105 -37t72 -78q27 -35 56.5 -62.5t70.5 -27.5q14 0 65 21.5t119.5 56.5t146.5 78t144.5 87t114.5 84t59 66l241 627q9 23 9 56q0 11 -1 23q-4 48 -18 94 t-35.5 79t-44.5 33q-29 0 -64.5 -24t-72.5 -52q-47 -35 -91 -63.5t-91 -28.5q-8 0 -11.5 1t-17.5 9l-4 2q-29 31 -44 60.5t-24 52.5h-4q-6 23 -17 35t-50 12q-63 0 -124 -40t-138 -100l-4 -2q-4 -4 -8.5 -7t-8.5 -7l-53 6q-10 51 -47 88t-72 66q-10 8 -20.5 15t-20.5 15 l29 64l141 63q4 20 -10 25.5t-31 5.5h-45q-242 0 -350 -289q-34 -87 -34 -141q0 -52 32 -104v-27l-225 -586l-29 -33q-37 -16 -53.5 -33.5t-30.5 -52.5zM590 311l258 670l53 37l60 -4l20 -37l-244 -637l-35 -33l-71 -28zM901 1460l6 10l-6 -2v-8zM1089.5 347q-4.5 15 6.5 44 l211 547q20 51 63 69.5t72 18.5l22 -37l-245 -643l-52 -37q-14 0 -30.5 2t-29.5 11.5t-17.5 24.5z" />
<glyph unicode="x" horiz-adv-x="1030" d="M-14 -134q6 -80 50 -128.5t118.5 -71t167.5 -22.5q61 0 125.5 9t123 34.5t104.5 71.5t75 120q12 31 12 54q0 55 -76 55q-41 0 -73.5 -18.5t-60.5 -49.5t-49.5 -72t-39.5 -86l-49 -36q-4 0 -21.5 -1t-38.5 -4q-23 -2 -41 -2h-24q-49 0 -98.5 6.5t-84 31t-48.5 70.5 q-6 19 -7 45q0 35 12 81q16 41 36 80t46.5 68.5t61.5 48t82 18.5q45 0 73.5 -11.5t55.5 -25.5l-2 -2q23 -12 42 -21.5t46 -9.5q14 0 54 19.5t92 49.5t108.5 65.5t104.5 70.5t82 62.5t40 42.5l2 8v6v8h-10q-14 0 -31.5 -5t-36.5 -13v-2q-27 -10 -51 -16.5t-55 -6.5 q-14 0 -31.5 1t-31 8t-18.5 23.5t5 45.5l184 481l52 37h36l25 -27q-1 -16 -1 -29q-1 -49 11 -73q14 -30 60 -29q31 0 64.5 14.5t64 38t56.5 54.5t38 65q10 27 16 79q5 45 5 90v16q-1 54 -12 94.5t-38 44.5l-284 -215l-58 2l-10 27q-12 27 -26.5 59.5t-33 60t-42 47 t-54.5 19.5l-14 -2l-367 -281q-6 -14 2 -18h2q8 -2 12.5 -3t8.5 -1q6 0 17.5 1t21.5 3t20 2h23q20 0 35.5 -5t24.5 -17.5t8 -34t-15 -56.5l-170 -444l-24 -27q-123 -78 -208 -166t-132 -211q-40 -101 -40 -175q0 -11 1 -20zM393 1034l6 4v2zM1286 1321h2l2 2q-2 -2 -4 -2z " />
<glyph unicode="y" horiz-adv-x="901" d="M127 -379q8 6 15.5 11.5t13.5 11.5q-8 0 -9 6zM135 200q6 -36 23.5 -67t43 -50.5t52.5 -19.5q8 4 22.5 13.5t36.5 21.5q27 14 57.5 31.5t58.5 33t48.5 28t30.5 18.5l57 -25l-8 -20q-4 -10 -8 -22.5t-10 -26.5q-4 -14 -8.5 -27.5t-8.5 -24.5l-4 -12q-31 -80 -61.5 -133 t-71.5 -96t-96.5 -84t-132.5 -94q10 -2 28 -2h33q35 0 90 19.5t116.5 51t126 74.5t120 90t97.5 95t58 94l355 919q0 2 -1 1t-1 1q0 16 -1 40t-14 34l-4 8l-63 111l-209 -111l-4 -2l-86 -37l-43 8l-103 191l-2 18q4 12 4 15q0 4 2 8q12 31 43 50t66 36q10 4 17 8t12 4 q2 27 -8.5 33t-34.5 6q-115 0 -193 -80t-123 -197q-25 -66 -34 -119t-15 -106q-10 -59 -20.5 -121.5t-36.5 -130.5q-23 -59 -47.5 -107t-53.5 -95q-25 -45 -47 -89.5t-39 -89.5q-8 -23 -8 -47q0 -12 2 -25zM520 365l195 505l18 23l51 39l62 -6q2 -21 2 -44q0 -18 -1 -36 q-3 -43 -22 -90l-73 -193q-8 -20 -15.5 -34.5t-15.5 -26.5q-8 -16 -12 -27.5t-11 -23.5l-14 -39l-6 -13q-58 -71 -131 -71h-2zM1096 1180l2 2l8 2l-10 -2v-2z" />
<glyph unicode="z" horiz-adv-x="841" d="M53 96q-4 -28 -4 -53q1 -41 11 -77q16 -58 66 -92t140 -34q104 0 198.5 40t171.5 106.5t135 150.5t93 174q31 77 35 145q3 45 3 87q0 21 -1 41q-1 19 -1 37q0 27 2 53q3 43 20 86q6 16 9 20t15 17l92 63q6 12 0 12t-18 -1t-25 -3q-10 -2 -20 -2h-21l-22 35q4 10 9 20.5 t9 22.5q8 18 15.5 37.5t17.5 42.5q18 51 34.5 107.5t18.5 103.5v8q0 42 -18 71q-20 32 -76 32q-4 0 -9 -1.5t-9 -1.5q-12 -6 -28.5 -14t-43.5 -24q-31 -16 -65.5 -35t-66.5 -35t-56.5 -29.5t-36.5 -19.5q-14 -10 -45 -28.5t-51.5 -31t-24.5 -14.5l-12 -16l6 4q-2 -6 -6 -12 l-5 -7h177q23 0 28.5 -22.5t5.5 -48.5l5 -13l-5 -18l-6 -18q-16 -41 -40.5 -68t-54.5 -43t-62.5 -25.5t-65.5 -17.5q-39 -10 -70.5 -21.5t-42.5 -37.5q-2 -4 -4 -7.5t-2 -7.5q2 0 -2 4l2 -26q-2 -4 -2 -15v-24v-35q0 -16 -4 -27q-8 -20 -36.5 -51t-63.5 -67 q-33 -31 -56.5 -55.5t-23.5 -26.5q-2 -4 -6 -13.5t-8 -17.5q-10 -20 -22.5 -48t-18.5 -44l-17 -39q-31 -78 -41 -152zM221 -53q0 20 15 59l155 404q6 18 25.5 59t47.5 83t64.5 73.5t79.5 31.5l25 -36l-236 -615q-6 -16 -5 -24.5t5 -12.5q4 -6 6.5 -12t-4.5 -18 q-10 -31 -25.5 -36t-54.5 -5q-29 0 -51 2t-34.5 13t-12.5 34z" />
<glyph unicode="{" horiz-adv-x="544" d="M-94 20.5q2 -24.5 18 -36.5l2 -9l68 -108l219 113l6 2l39 14l-4 129q-8 35 -4 76t24 92q10 25 17.5 49.5t17.5 48.5q23 59 44.5 117.5t43.5 118.5q53 139 109.5 265t118 228.5t131 177t153.5 113.5h-18q-37 0 -93.5 -18.5t-121 -51t-130 -74.5t-123.5 -90.5t-100 -97.5 t-61 -94l-354 -924q-4 -16 -2 -40.5zM-12 -137h2l6 -2l-2 6zM285 4l34 -51l11 6l-37 51zM909 1411h15q12 0 25.5 -2t15.5 -8l49 43q-29 -4 -54.5 -13.5t-50.5 -19.5z" />
<glyph unicode="|" horiz-adv-x="733" d="M180 56.5q-2 52.5 10 84.5l342 889l-26 37q-6 0 -28.5 8t-20.5 17l-27 26q2 0 19.5 19.5t21.5 29.5q2 8 16.5 22.5t48 40t92 68.5t150.5 111q16 12 28.5 20.5t25 17.5t26.5 19.5t37 26.5q59 -76 97 -162t48 -178l-2 -6q-10 -29 -31.5 -49.5t-43.5 -42.5q-41 -35 -85 -82 t-77 -137q-8 -23 -23.5 -66t-33 -97.5t-35 -113.5t-34 -113.5t-28.5 -96.5t-16 -60l33 -33q10 2 14 2h8q53 0 27 -68q-16 -41 -77 -102t-132.5 -118.5t-139 -98.5t-96.5 -41q-25 0 -44 37t-30.5 87t-13.5 102.5z" />
<glyph unicode="}" horiz-adv-x="544" d="M-49 -45l69 59l7 -6l-70 -59zM47 -4l100 129q72 68 111 168q10 29 22.5 58.5t24.5 58.5q45 118 92 233q51 137 91 260t56.5 223.5t3.5 173t-67 111.5h19q57 0 121.5 -41t114.5 -103.5t74 -138t-3 -143.5l-354 -919q-14 -18 -36 -44t-44 -38l-13 -9l-149 -110l-133 115z M207 -139l4 4l4 -2zM410 1444q41 -8 71 -33h-16q-12 0 -25.5 -1t-15.5 -7z" />
<glyph unicode="~" horiz-adv-x="1163" d="M309 799l8 20q-2 -6 5 -12zM322 807l352 207l106 -166l56 6q12 10 23 20.5t22 20.5q31 31 67.5 64.5t73.5 62.5q29 -2 83 -23.5t112.5 -50t107.5 -57.5t66 -45l-353 -209l-98 137l-53 -6q-20 -16 -51 -37.5t-64 -44.5q-23 -14 -42 -25.5t-40 -27.5q-29 2 -84 23.5 t-112.5 49t-105.5 56.5t-66 45zM680 625l2 2l8 6h2q-8 -4 -12 -8zM1020 1022q4 0 4 2q0 -2 -2 -2h-2zM1391 846l14 10l-6 -20q0 4 -8 10z" />
<glyph unicode="&#xa1;" horiz-adv-x="716" d="M80 236q14 37 63 36h9q6 0 14 -2l59 33q10 20 37 74.5t55.5 115t54 115t34.5 76.5q27 70 15.5 105.5t-28.5 62.5q-10 10 -16 22.5t0 28.5l4 4l334 236l18 53q-16 18 -32.5 36.5t-27.5 41t-14.5 47.5t9.5 55q12 33 39.5 63.5t63.5 55.5t74 39t70 14q59 0 84 -40t2 -99 q-8 -20 -25.5 -51t-41 -62.5t-51 -58.5t-52.5 -39l-28 -55l151 -232q-6 -6 -17 -16t-19 -16q-8 -4 -36 -11.5t-36 -7.5l-53 -37l-238 -620q-8 -23 -43 -57.5t-78 -68.5t-86 -57.5t-65 -23.5q-29 0 -67 27.5t-71.5 66.5t-54 80t-10.5 66zM954 911q0 2 2 3t2 4q-4 -8 3 -13z M961 905l2 -4q-4 2 -2 4z" />
<glyph unicode="&#xa2;" horiz-adv-x="962" d="M166 432q-6 -18 3 -39.5t29.5 -45t49 -45t59.5 -40.5l12 -26q-10 -31 -12 -72t0 -78t9.5 -62.5t17.5 -25.5q12 0 39.5 21.5t62.5 55.5t72 74.5t65 79.5l29 23q39 14 84 30.5l90 33t87 33t73 28.5v2q12 4 21.5 8t17.5 8q4 2 9 3t9 3h2q25 10 32 14.5t11 16.5q4 10 -12 10 q-18 0 -40.5 -4t-49.5 -10q-25 -4 -50.5 -8t-60.5 -4q-23 0 -51.5 3t-58 9t-56 15.5t-45.5 21.5l-6 29q8 33 21.5 71.5t27 76.5t25.5 73t23 61l24 62l78 20q8 -29 24.5 -57.5t57.5 -28.5q23 0 72 7t100 18.5t93 28t48 34.5v-4l2 2q0 8 -8 32.5t-18.5 53.5t-20.5 53.5 t-14 30.5q-8 2 -23 35q-10 16 -21.5 36.5t-23.5 20.5q-2 0 -4 -1t-4 -1h-6q-10 -2 -15.5 -3t-15.5 -3q-25 -4 -39 -6t-22 -4t-14.5 -4t-16.5 -4l-37 20q-6 150 -51 252q-80 -74 -129 -119t-78 -72.5t-41 -41t-14 -21.5l-17 -47l-43 -64q-23 -4 -51 -12t-54 -19.5 t-46.5 -24.5t-24.5 -25z" />
<glyph unicode="&#xa3;" horiz-adv-x="808" d="M25 63q33 0 96 64l61 12q59 -51 110.5 -79.5t109 -42t126 -15.5t160.5 -2q10 23 3 41t-38 37l15 59q59 35 98 73t59 89q31 78 -55 78h-14q-29 0 -49.5 -3t-49.5 -22l-55 25l25 67l51 37q53 2 89 6.5t61.5 15.5t43 32.5t31.5 60.5q2 12 12 37q4 14 3 14v-4q-6 0 -30 4 t-51.5 10.5t-54 11.5t-37.5 7q-16 2 -29.5 28.5t-6.5 43.5l168 436q0 2 11 12t26.5 21.5t29.5 21.5t25 12h28q23 0 41.5 -6t34.5 -16q6 -6 13.5 -9t11.5 -8l8 23l-186 278h-54q-2 0 -43 -21.5t-94 -52t-108.5 -62t-85.5 -52.5l-5 -4q-10 -4 -21 -18.5t-13 -18.5l-2 -2 q0 -4 2 -14.5t5 -21.5t7 -20t6 -9l12 -33l-180 -471l-37 -33q-37 -14 -50 -27.5t-23 -40.5q-10 -29 -9.5 -53t4.5 -49q4 -31 5 -66q0 -35 -17 -79q-18 -49 -49 -95.5t-64 -87.5q-29 -37 -52 -69.5t-29 -49.5zM1098 1210q2 0 0 2v-2z" />
<glyph unicode="&#xa4;" horiz-adv-x="2244" d="M289 743l18 5l160 372zM461 829q-41 -109 37 -127q-39 31 -15 162q4 10 4 15q1 4 5 12q-8 -14 -16.5 -29.5t-14.5 -32.5zM492 891q23 41 52 77t64 70l4 4q53 41 86 57.5t72 16.5q16 0 22.5 1t-8.5 9l4 4q-221 -43 -286 -212zM498 702q9 -8 32 -8q31 0 43 4l2 4 q-6 -2 -18 -2h-25q-27 0 -34 2zM752 774q-2 -45 77 -45h29q8 0 16.5 1t20.5 1q29 0 72 45q-47 -20 -79 -31.5t-54 -11.5q-86 0 -50 121q-10 -18 -17 -37.5t-15 -42.5zM784 854q23 43 43 81t47 71q-14 -16 -28.5 -35t-28.5 -37l-8 -14l-10 -31zM874 1006q86 96 158 96 q68 0 66 -70q10 -8 10 -24v2q22 118 -74 118h-24q-39 -23 -73 -53.5t-63 -68.5zM967 776l1 1t3 1l16 13q43 43 65 78.5t38 78.5l2 8q14 35 16 52q-41 -84 -76 -140.5t-65 -91.5zM1108 1006l6 12q-2 -2 -3 -4t-3 -4v-4zM1112 729l14 4l70 189l-12 -2zM1196 922l64 20 q39 -160 96 -201l143 373h-2l-108 -264l-72 -23l-82 203zM1335 690l51 41q-20 0 -30 10zM1507 760l21 8l125 293zM1653 1061l37 76l-4 -2zM1669 774h19q49 53 80.5 79t78.5 26q53 0 64 -76l51 135l-45 -45h-127l-10 59l141 158l66 -8l-17 -139l33 81q22 115 -21 115 q-20 0 -24 -2q-205 -201 -289 -383zM1903 774l14 -6q-2 8 -2 16q0 10 -4 19zM1962 938l8 8v17zM2021 748l15 6l65 182l-8 -2zM2101 936l66 20q43 -160 96 -194l113 297l-82 -191l-72 -22l-80 201zM2245 713l51 41q-18 0 -33 8zM2363 672l4 -6l3 2zM2376 1059l34 78h-4z M2458 874l12 -2l37 95zM2507 967l88 166l-17 4z" />
<glyph unicode="&#xa5;" horiz-adv-x="1153" d="M119 -379q10 6 17 11.5t14 11.5q-8 0 -9 6zM132 200.5q5 -36.5 21.5 -66.5t42 -50.5t50.5 -20.5q4 4 37.5 22.5t74.5 41.5q27 16 62 36.5t55.5 32t22.5 13.5l55 -25l-8 -20q-4 -10 -8.5 -22.5t-10.5 -26.5q-4 -14 -8 -27.5t-8 -24.5l-4 -12q-31 -80 -61.5 -133t-70.5 -96 t-94.5 -84t-129.5 -94q6 -2 14 -2h16h29q35 0 88 19.5t113.5 51t124 74.5t119 90t96.5 95t57 94l43 110l57 37q39 -6 54 -6h4q0 2 2 2q29 10 49 17t43 18v2q43 12 69 26l-188 72l-12 33l63 166l56 37q49 -6 63 -7q4 0 4 -2q31 12 57.5 22.5t49.5 18.5q18 6 35.5 12.5 t29.5 12.5l-203 78l-14 33l92 237q0 2 -1 1t-1 1q0 16 -1 40t-13 34l-4 8l-60 111l-204 -111l-5 -2l-86 -37l-41 8l-98 191l-2 18q4 12 4 15q0 4 2 8q12 31 43 50t66 36q8 4 15 8t11 4q2 27 -7 33t-36 6q-111 0 -187.5 -80t-121.5 -197q-25 -66 -34 -119t-17 -106 q-8 -59 -19.5 -121.5t-37.5 -130.5q-23 -59 -47.5 -107t-51.5 -95q-27 -45 -49 -89.5t-39 -89.5q-12 -35 -7 -71.5zM512 365l104 268l37 24l-20 21l74 192l16 23l51 39l60 -6q4 -37 0.5 -80t-21.5 -90l-20 -51l-37 -35l-37 -11q4 -2 9 -4t15 -4l17 -35l-21 -53 q-8 -20 -15 -34.5t-15 -26.5q-8 -16 -12.5 -27.5t-10.5 -23.5l-14 -39l-6 -13q-55 -72 -131 -71zM653 657l21 13l28 -6q4 -2 9 -2q4 0 8 -3l-49 -16zM1081 1180l2 2l7 2q-8 -2 -9 -2v-2zM1130 272l33 -12q-14 18 -10 25zM1153 285q6 4 11.5 8t9.5 8l8 6q-23 -14 -29 -22z M1286 637l35 -12q-8 8 -9 10t3 12l6 12q-14 -14 -35 -22z" />
<glyph unicode="&#xa6;" horiz-adv-x="733" d="M180 56.5q-2 52.5 10 84.5l342 889l-26 37q-6 0 -28.5 8t-20.5 17l-27 26q2 0 19.5 19.5t21.5 29.5q2 8 16.5 22.5t48 40t92 68.5t150.5 111q16 12 28.5 20.5t25 17.5t26.5 19.5t37 26.5q59 -76 97 -162t48 -178l-2 -6q-10 -29 -31.5 -49.5t-43.5 -42.5q-41 -35 -85 -82 t-77 -137q-8 -23 -23.5 -66t-33 -97.5t-35 -113.5t-34 -113.5t-28.5 -96.5t-16 -60l33 -33q10 2 14 2h8q53 0 27 -68q-16 -41 -77 -102t-132.5 -118.5t-139 -98.5t-96.5 -41q-25 0 -44 37t-30.5 87t-13.5 102.5z" />
<glyph unicode="&#xa8;" horiz-adv-x="1038" d="M731 1861.5q2 -34.5 15.5 -62t38 -45t55.5 -17.5q27 0 56.5 12t56 32.5t47 49.5t32.5 59q41 104 15.5 155.5t-119.5 72.5q-57 -41 -110.5 -86.5t-76.5 -100.5q-12 -35 -10 -69.5zM913 2120q4 -2 15 -2q4 2 8 5t10 7zM1378.5 1863.5q1.5 -34.5 15 -62t38 -45t55.5 -17.5 q55 0 112.5 45t81.5 108q39 104 13.5 156.5t-119.5 73.5q-55 -39 -109 -86.5t-77 -102.5q-12 -35 -10.5 -69.5zM1561 2126q4 -4 14 -4q4 4 8 7t10 7z" />
<glyph unicode="&#xa9;" horiz-adv-x="1126" d="M113 287q-8 -20 9 -50t49 -62t75 -63.5t88 -57t86 -41t67 -15.5h7q4 0 20 2q-4 -2 7 6t31.5 20.5t45.5 28t45 27.5q25 16 51 30l25 15l2 2q59 27 106 46.5t86 35.5q86 37 136.5 62.5t87.5 70.5t70.5 124t88.5 220l19 49q8 18 13 37t13 39l50 127q6 53 5 111.5 t-13.5 110.5t-38 91t-68.5 54q-8 -6 -45 -21.5t-79 -31t-78 -29t-42 -15.5q-20 -6 -55 -15t-77 -18.5t-90 -18.5t-95 -17q-47 -10 -89 -18.5t-74 -13.5t-50.5 -6t-18.5 5l-284 -739l-52 -37q-18 0 -26 -21zM463 407.5q-12 38.5 0 71.5l137 357q8 23 26.5 41t40 32.5t43 24.5 t38.5 18l8 2q16 4 54 14.5t79 24t78 25.5t53 18l18 4h9q29 0 37 -21.5t14 -41.5h2q0 -2 -2 -3t-17 -1l29 -19l16 -135v-14q0 -2 -4 -12q-10 -27 -44 -50.5t-72.5 -42t-75.5 -28.5t-51 -10q-33 0 -43 16l-43 -113q-4 -8 3 -14t19 -10t25.5 -6.5t23.5 -2.5q18 0 37 7 q14 4 29.5 7t32.5 3q35 0 42 -20.5t-4 -49.5q-12 -33 -24 -42t-41 -25l-6 -4q-4 -4 -6 -5l-6 -4q-8 -4 -23.5 -11t-34.5 -17q-25 -14 -55.5 -30.5t-60 -32t-52 -28t-33.5 -16.5h-2q-16 -6 -20 -7t-19 -1q-27 0 -59.5 22.5t-58 56.5t-37.5 72.5zM813 739q-2 4 2 -6l9 -22.5 t9.5 -22.5t4.5 -6l-2 -4q-14 10 -17.5 27.5t-5.5 33.5z" />
<glyph unicode="&#xaa;" horiz-adv-x="587" d="M431 1090q-5 -48 24 -91l2 -4q6 -16 16 -16q6 0 27.5 16.5t44.5 36.5q16 12 31.5 24.5t29.5 22.5l-16 11l-6 6v26q4 6 2 8.5t0 6.5q4 12 8 23t8 26l105 272l18 31l51 31h8q14 0 23.5 -9.5t13.5 -21.5l2 -2q-2 -4 0 -5l2 -1l4 -8l2 -29l-110 -287q-4 -10 -18.5 -25.5 t-30.5 -29.5q18 -2 25.5 -17.5t13.5 -37.5q8 -20 16 -42t14 -26q8 8 29 21.5t43.5 28.5t45 28.5t34.5 21.5q-20 0 -26.5 14.5t-6.5 32.5q0 20 5 39t7 25l72 188q8 16 16.5 35t18.5 39l20 21q14 10 37 20l2 2h9q-2 8 -16.5 15.5t-26.5 15.5q-8 4 -15.5 7t-17.5 11h-2 q-10 8 -17.5 19.5t-15.5 23.5q-10 12 -17.5 23.5t-17.5 11.5q-4 0 -10 -3l-14 -7q-10 -4 -26.5 -12.5t-12.5 -8.5q-23 -8 -42.5 -16t-35.5 -12q-33 -12 -64.5 -25.5t-61.5 -30t-53.5 -39t-37.5 -53.5l-80 -211q-27 -66 -32 -114zM606 1079l8 -2h7l26 6q4 2 10.5 7.5 t14.5 11.5h-4q-27 0 -62 -23zM741 979h2h-2zM893 1079q27 0 30 4.5t11 8.5h-6q-4 0 -10 -1l-7 -1l2 2q-6 -2 -14 -11q-4 -2 -6 -2zM913 1092q17 16 33 18q-25 -4 -33 -18z" />
<glyph unicode="&#xab;" horiz-adv-x="958" d="M250 426q0 -57 1 -108.5t5 -91.5t8 -56l287 268l-180 193l20 55q16 10 61.5 40t98.5 66.5t106.5 73.5t83.5 60q6 23 4 62.5t-8 83.5t-15 84t-17 61l-437 -525q-6 -20 -10 -61t-6 -94.5t-2 -110.5zM252 160h18q-2 0 -6 10zM698 1233q3 -2 7 -16l16 16h-23zM736 440.5 q-1 -57.5 1 -108.5t5 -91t8 -57l286 267l-178 192l19 57q16 10 61 40t98.5 67t106.5 72.5t84 58.5q6 23 4 63.5t-8 84.5t-15.5 83t-17.5 60l-436 -524q-6 -18 -9.5 -60.5t-5.5 -94.5t-3 -109.5zM737 172h19q-2 0 -6 12zM739 922q0 2 2 3t4 5l-4 -4zM1184 1247q2 -4 6 -18 l16 18h-22zM1225 934l8 8l-6 -4z" />
<glyph unicode="&#xac;" horiz-adv-x="1064" d="M256 711q-2 -2 35 -11.5t97.5 -22.5t135 -29.5t148 -31t139.5 -25.5t107 -16l2 -61l-136 -121l86 -233q12 10 37 36.5t54.5 61.5t60.5 74t59.5 74.5t49 66.5t30.5 49q-16 18 -20 30.5t-8 22.5q-6 6 -7.5 14.5t-5.5 14.5l29 60q27 14 49.5 27.5t40.5 29.5l-416 205z M860 154h14l-4 6zM1161 522q4 -6 10 -10q-2 6 -5 9t-1 5zM1239 721l21 -8q-10 12 -7 18zM1253 731q11 11 17 19q-14 -14 -17 -19z" />
<glyph unicode="&#xad;" horiz-adv-x="622" d="M309 803l8 16q-6 -6 5 -8zM322 811l317 199l192 -213q-23 -29 -50 -50.5t-64 -48.5l-82 -61q-27 4 -75 25.5t-97 49t-89 55.5t-52 44zM631 633l4 4h4q-4 0 -8 -4zM831 797q4 6 7 8q-2 -2 0 -12z" />
<glyph unicode="&#xae;" horiz-adv-x="1126" d="M113 287q-8 -20 9 -50t49 -62t75 -63.5t88 -57t86 -41t67 -15.5h7q4 0 20 2q-4 -2 7 6t31.5 20.5t45.5 28t45 27.5q25 16 51 30l25 15l2 2q59 27 106 46.5t86 35.5q86 37 136.5 62.5t87.5 70.5t70.5 124t88.5 220l19 49q8 18 13 37t13 39l50 127q6 53 5 111.5 t-13.5 110.5t-38 91t-68.5 54q-8 -6 -45 -21.5t-79 -31t-78 -29t-42 -15.5q-20 -6 -55 -15t-77 -18.5t-90 -18.5t-95 -17q-47 -10 -89 -18.5t-74 -13.5t-50.5 -6t-18.5 5l-284 -739l-52 -37q-18 0 -26 -21zM416 465q4 12 7 16.5t17 14.5l78 55l84 215q-10 -10 -10 -4v2 q-12 4 -24.5 8t-20.5 12.5t-10 21.5t6 36q14 35 28.5 47t51.5 35q4 2 11 6t17 8v2q10 6 30.5 19.5t41.5 29.5q29 16 52.5 32.5t31.5 20.5h37q25 -14 39 -25t23 -22.5t16.5 -26t13.5 -34.5l137 102l51 4q47 -47 47 -100q0 -51 -28 -125q-4 -12 -11.5 -28.5t-11.5 -24.5l-2 -6 l-8 -15q-6 -8 -25.5 -25.5t-43 -35.5t-46 -31.5t-32.5 -13.5q-4 -4 -9 -4h-16q-23 0 -27 2t-4 16l-12 17l-8 24l-58 -153h15q8 0 16 4t17 8q16 10 31.5 17t39.5 7q68 0 39 -69q-2 -6 -6 -15l-2 -4l-21 -26q-70 -53 -139 -100.5t-141 -88.5l-25 -6q-4 0 -8 -1t-8 -1h-12 q-6 0 -42 25.5t-75 59.5t-68.5 68t-23.5 50zM817 537h12l-8 -19q6 15 -4 19zM877 729l36 31l-26 -70zM926 926l10 8l4 -6l2 -2h-16z" />
<glyph unicode="&#xaf;" horiz-adv-x="1064" d="M834 2486q-4 -2 52 -5t146 -7t199.5 -9t212 -9.5t186.5 -7.5t123 -3h29q45 14 80.5 25.5t68.5 21.5h2q23 4 45.5 11.5t38.5 11.5l-497 127zM2017 2515l103 -27q-10 8 -9.5 13.5t11.5 31.5q4 10 5 16.5t5 10.5q-23 -10 -51.5 -22.5t-63.5 -22.5zM2132 2560q4 4 9 7t9 7 l25 9q-20 0 -27.5 -3.5t-15.5 -19.5z" />
<glyph unicode="&#xb0;" horiz-adv-x="608" d="M422 1126l57 41l148 383q-4 -12 5 -14t26.5 1t40 8t44.5 11q49 10 96.5 19.5t59.5 15.5q4 0 39 13.5t66 27.5q12 4 13 5t5 3q20 -4 32.5 -23.5t17.5 -45t5 -53.5q0 -29 -2 -54l-22 -63q-4 -10 -7.5 -20.5t-7.5 -18.5l-10 -29q-29 -72 -45 -111.5t-34.5 -61t-42 -34 t-64.5 -28.5h-4q-23 -10 -46.5 -19.5t-52.5 -21.5q-10 -4 -23.5 -12.5t-29.5 -18.5q-10 -6 -21.5 -12t-19.5 -12.5t-11 -9.5t3 -3l-10 -2h-6q-18 0 -52 16.5t-67 38t-55.5 44t-16.5 34.5l4 13q-4 -6 -12 -7zM670 1182q-12 -33 9 -47.5t46 -14.5l55 39l113 291q8 23 -1 51.5 t-28 38.5l-69 -37z" />
<glyph unicode="&#xb1;" horiz-adv-x="794" d="M59 143l408 127l297 -112q-16 -6 -34.5 -12.5t-41.5 -16.5v-2q-23 -8 -47.5 -16.5t-52.5 -20.5l-10 -6l10 8q-20 0 -68.5 3t-108 9.5t-123 12.5t-115.5 11t-84 9t-30 6zM287 762q8 4 26 8zM313 770l383 121l33 24l115 164q4 -12 5 -27.5t3 -35.5h2q0 -37 6 -80l-4 -12 l-9 -22.5t-18 -33.5l13 -41l139 -53q-14 -6 -32.5 -12t-41.5 -14v-3q-23 -8 -47 -18t-55 -20h-2q6 2 2 2h-12q-6 0 -17 2l-55 -29q-18 -29 -38.5 -59.5t-37.5 -59.5q-10 -16 -19.5 -29.5t-19.5 -27.5l-2 213l-18 24q-35 8 -74 14.5t-76 10.5t-69 4q-33 0 -54 -2z M571.5 445.5q12.5 23.5 34.5 60.5l2 -86q-4 2 -24 2q-25 0 -12.5 23.5zM608 387v12v21q10 -2 0 -33zM764 158q10 6 20.5 12t16.5 12l-4 -10q-4 -12 -4 -16q0 -2 10 -11zM801 182q6 16 15 20.5t32 4.5l-39 -19l-3 -3t-5 -3zM814 1112q-1 6 9 29l8 -33l-2 -2h2q-16 0 -17 6z M831 1106h15q10 0 13 2t18 14l-33 -43q0 16 -13 27zM860 936l2 2v-6q-2 0 -2 4zM981 774q25 6 33 14l-2 -4q-4 -6 -3 -8t5 -12z" />
<glyph unicode="&#xb2;" horiz-adv-x="507" d="M410 1042l2 2l41 130l335 194l29 51l-14 33h-68l-11 -12q-11 -13 -22 -21l-2 -4q-16 -18 -32.5 -35.5t-24.5 -17.5q-10 0 -27.5 4t-34 12t-28.5 19.5t-8 23.5l-2 -6q-12 -8 -8 -2t15 18.5t27.5 29t28.5 30.5q10 14 23.5 26.5t17.5 16.5t17.5 16.5t27.5 28.5 q4 6 10.5 14.5t-0.5 12.5h13l27 -12q26 -13 61 -27q35 -16 72.5 -30.5t52.5 -18.5q16 -8 31.5 -21.5t9.5 -30.5l-33 -82l-225 -149l39 -53q-4 -4 -7 -4q8 0 25.5 -5.5t35 -13.5t28 -18.5t8.5 -22.5l-6 -8l-68 -74q-16 -16 -32.5 -33.5t-16.5 -15.5q-1 -4 -15 -14 q-10 -12 -22 -24.5t-8 -14.5h-10q-12 4 -40 11t-63 18q-18 4 -37.5 9t-36 10t-25.5 6t-7 -1q-14 8 -32 22.5t-11 32.5zM528 1053l58 -17l51 17q20 18 43 55q10 16 21.5 31.5t21.5 25.5l-45 47l-141 -96zM645 1534q2 4 2 2v-2h-2zM692 1608q4 0 6 -1t4 -1q-10 0 -10 2z M840 1118q2 6 6 10z" />
<glyph unicode="&#xb3;" horiz-adv-x="528" d="M412 1092q4 0 4 -2h2l2 4l-2 -1t-6 -1zM418 1090l8 -7l2 -6q0 4 0 2t2 -2l6 -4q8 -8 30.5 -28.5t48.5 -43t50.5 -41t34.5 -22.5h-10l12 -4l8 -4l-2 2q0 2 -4 4q20 0 59 16.5t78 41t71 52t40 50.5l145 374q4 16 -14 31t-37 25h-2q-12 6 -43 19.5t-64.5 26.5t-64.5 23.5 t-43 14.5h-8q4 0 -8.5 -11.5t-22.5 -21.5q-41 -37 -35 -37l-8 -10l-12 -12q-8 -12 -16.5 -24.5t-16.5 -22t-12 -15.5t-4 -4q0 -10 12 -18.5t29.5 -13.5t35 -8t27.5 -3q14 0 24.5 10.5t18.5 20.5l4 4l11 10l69 -18l-51 -136l-76 -34l-31 18l-176 -76q14 2 41 3t57.5 0 t59.5 -3t47 -6l2 -61q-20 -18 -46 -30.5t-52.5 -21t-50 -12.5t-37.5 -4q-41 0 -66 12q-6 0 -10 2.5t-10 2.5zM475 1204l8 4z" />
<glyph unicode="&#xb4;" horiz-adv-x="493" d="M690 1894l27 -30q4 10 2 20t-29 10zM711 1849l4 9l-4 -7v-2zM715 1858l2 2v4v-4zM717 1860q-4 -29 11 -48.5t42 -42.5q8 -8 15.5 -16t17.5 -20q23 8 73 46t106 84t106.5 91t72.5 67l-172 150zM795 1731q6 0 16 -7q-4 2 -5 4.5t-3 4.5q-2 -2 -8 -2zM1161 2021l6 -2l9 17 q-4 -4 -6.5 -7.5t-8.5 -7.5z" />
<glyph unicode="&#xb5;" horiz-adv-x="901" d="M20.5 -76q20.5 -74 66.5 -137t107.5 -104t114.5 -41h33q16 0 25 2q-37 53 -59.5 94t-29 84t4 96t41.5 133l4 12q4 10 10 23.5t10 28.5q6 16 13.5 30.5t11.5 24.5q2 6 3 8t5 6l74 25q6 -8 19 -22.5t30.5 -33t36 -36t34.5 -31.5l3 -2q14 -20 14 -18q4 -2 8 -3q29 2 70 22.5 t82 51.5t74.5 67t45.5 68q16 45 25.5 89.5t20.5 89.5q10 47 21 95t34 107q27 68 63.5 130.5t75.5 121.5q35 53 66.5 106.5t56.5 118.5q23 57 31 108.5t-2.5 88.5t-42 58.5t-88.5 21.5q-27 0 -42.5 -6t-35.5 -31q4 -2 10 -7t14 -11q23 -16 38.5 -34t2.5 -48q-2 -4 -3 -7 t-7 -16l-18 -18l-246 -191l-51 -8l-56 37l-4 2l-125 113l-147 -113l-8 -8q-23 -12 -44.5 -37t-33.5 -43l-352 -915q-25 -68 -4.5 -142zM367 -356q4 -6 8 -11.5t8 -11.5v29q0 -6 -16 -6zM430 399l2 13l14 39q6 14 9.5 24t9.5 27q2 12 7 27.5t13 33.5l74 193q18 47 47 90 t64 80l65 6l17 -39l2 -23l-195 -505l-53 -37q-72 0 -76 71zM1053 1368l2 2h-2v-2z" />
<glyph unicode="&#xb6;" horiz-adv-x="2766" d="M258 674l162 -115l6 21l-154 92l9 39zM272 393l285 -76v31l-266 60h-6q-8 0 -11 2zM274 410l9 26l-9 -4q-6 -20 0 -22zM281 711l6 10h-4zM283 436l92 62l-86 -37zM287 721l172 31l4 4l-164 -13zM375 498l84 34l-39 27l-8 -39zM438 885l35 -113l29 39l-51 127l36 68 l181 -19l30 23l-196 16l-51 -45l-13 -84v-12zM463 756l16 2l-6 14zM481 207h4l2 18zM483 174l424 -18v10l-422 41zM487 225l5 8l30 27l-33 -20zM522 260l80 47l-45 10v-30zM680 573l131 277l-14 -4zM698 1010h4l3 2zM705 1012l16 12l35 92zM756 1116l65 125 q-14 -20 -30.5 -51t-34.5 -74zM805 631q-39 -102 72 -103h26l4 9q-10 -4 -28 -5q-66 0 -45 125q4 10 4 13q0 2 2 8l8 22l8 19q-35 -47 -51 -88zM821 1241l10 12l-4 -2zM831 1253l37 13l-4 2h-4q-6 0 -15 -4t-14 -11zM856 719q16 20 33.5 38.5t40.5 39.5l4 2q10 10 20.5 17 l22.5 15q-84 -36 -121 -112zM868 1266l62 -27q-23 14 -37 35zM872 66l9 -19l41 76l-2 4zM881 47l2 -4zM883 43l12 -27l264 56l-260 -43zM907 156l13 -29l20 29h-33zM907 537q4 0 6 2q4 2 -5 -1t-1 -1zM930 1239q43 -41 90 -41zM977 831q45 17 92 25l2 2h-4q-43 0 -90 -27z M1020 1198l10 -4l47 12q102 94 168 148.5t101 66.5l108 -106l37 -2l371 168l22 -33l-20 -31l-9 -35l9 -22l28 -12l392 77l81 -8l-45 -86l4 -16l54 82l-23 45l-469 -72l23 82l-13 31l-34 12l-27 -2l-371 -162l-86 103l-51 -4l-283 -228q-6 -2 -11 -3t-11 -1h-2zM1067 588 q-4 -23 31 -29q-10 8 -17.5 19.5t-5.5 31.5zM1071 858q14 0 17 1t-13 11zM1075 610q66 158 164 226q-61 -31 -129 -123l-8 -13l-10 -26q-16 -43 -17 -64zM1098 559q12 -6 35 -6q10 0 24 2t33 8h-8q-6 0 -12.5 -2t-12.5 -2l-10 -2h-19q-23 0 -30 2zM1159 72l199 30v9z M1190 563q4 2 6 2t4 2q-4 -2 -6 -2zM1200 567q12 4 24.5 9.5t26.5 13.5l15 12q29 33 49.5 62.5t32.5 58.5l2 6q8 20 11 34.5t-7 24.5q0 4 -1 8.5t-1 8.5q0 -16 -6 -35q-86 -176 -146 -203zM1239 836q20 12 47 12q53 0 66 -43q-3 45 -56 51h7l14 35l-49 -37h-2 q-8 -4 -14.5 -9t-12.5 -9zM1333 -2l37 -41l420 190l65 -67l-36 72l-39 10l-410 -195l-16 6l37 97l-27 34l-6 -2l14 -41zM1368 559l21 6l49 140l-17 -5zM1438 705l47 12l-21 55zM1485 717l20 -43q-2 20 -12 45zM1505 674q29 -78 60 -101l28 70l-65 -18zM1548 526l49 37 q-20 0 -32 10zM1593 643l6 2l82 199l-10 4zM1710 586h2l17 41zM1729 627l114 237l-14 -4zM1841 594h6q70 80 133 80q47 0 62 -41l26 69l-30 -26h-107l-8 47q-27 -35 -47.5 -67.5t-34.5 -61.5zM1855 80l17 -33l12 2zM1884 49l12 -10l54 8l250 221l106 -41q-16 10 -31.5 22.5 t-31.5 26.5l-50 -6l-247 -207zM1921 731l2 -8q23 29 51.5 60.5t63.5 66.5h-2zM2030 596l18 -10q0 29 -6 47zM2038 850l59 -8l-4 -70l10 27q15 82 -18 82q-12 0 -17 -2q-10 -10 -16 -16.5t-14 -12.5zM2068 702l23 21l2 49zM2132 575l18 3l52 139l-17 -4zM2202 717l51 14 l-23 57zM2253 731l14 -29q-2 10 -10 31zM2267 702q16 -45 31.5 -72.5t34.5 -41.5l26 69l-61 -18zM2306 227q33 -20 68 -24zM2314 541l49 37q-18 0 -30 10zM2316 1300h17l-9 15zM2333 1300l6 -10h422l2 10h-430zM2359 657l11 5l81 196l-12 6zM2374 203l12 -6l8 6h-10h-10z M2394 203q6 2 14.5 5t14.5 9zM2415 508l14 -8l4 4l-6 14zM2423 217l22 12l103 230l-13 -6l-110 -232q-2 -2 -2 -4zM2497 672l18 -2l63 151zM2548 459l2 2v2zM2550 461l184 -29l57 35v-2q4 4 13 24q27 70 -31 203l-25 -26l48 -158l2 -4q-4 4 -5 2l-6 -17q-16 -43 -37 -45 l-159 41zM2578 821l21 39h-4zM2646 1167l35 -10l18 43zM2673 1135l305 -97q-27 -59 -127 -71l-8 -15l71 21h19l55 55l-4 4q-2 0 -6 4l6 -2l-2 17l-2 -7l2 7l-4 16l-17 16l-280 74zM2699 1200l8 6q-2 -2 -6 -2zM2707 1206q23 7 39 23zM2750 1231l9 6v6q-4 -4 -9 -12z M2759 1243q8 13 14 29l-8 18h-4zM2773 692l4 6h-4v-6zM2777 698l168 17l47 51l-2 16q6 10 16 19l-4 -2l-4 -2l-8 -9l-2 15l-6 16l-152 107l-14 -31q162 -80 170 -109v-4l-45 -59h-141zM2808 942l22 -16l13 26zM2984 1032q6 -2 22 -2l-10 2l-12 2v-2zM3006 801l25 8 q-8 0 -25 -8z" />
<glyph unicode="&#xb7;" horiz-adv-x="471" d="M279 678q4 -35 22 -62.5t47 -45t64 -17.5q31 0 63.5 12.5t62 32.5t52 49t35.5 60q41 104 9 155t-142 74q-63 -41 -122.5 -86t-82.5 -102q-12 -35 -8 -70zM475 938q2 -2 17 -2q12 4 20 12z" />
<glyph unicode="&#xb8;" horiz-adv-x="301" d="M-129 -348q16 27 51 39t76 22q29 8 54.5 13.5t47.5 15.5l33 68q-25 27 -50.5 55.5t-46 52t-33.5 38.5l-13 15q63 0 125.5 -12t105.5 -42t58.5 -79t-11.5 -123q-12 -29 -23.5 -49t-25.5 -37.5t-34.5 -34t-47.5 -38.5l-108 -25q-76 4 -120 33.5t-38 87.5z" />
<glyph unicode="&#xb9;" horiz-adv-x="405" d="M467 1030.5q-2 18.5 2 30.5l143 375l-30 39q-4 0 -11 6l-18 14q14 -8 18 -4q0 -2 15.5 7t54.5 32q27 14 48.5 28.5t72.5 45.5q29 -27 51.5 -55.5t32.5 -63.5q-2 -6 -9.5 -12.5t-15.5 -10.5q-27 -18 -51.5 -41.5t-40.5 -68.5q-4 -12 -16.5 -47t-24.5 -75t-21.5 -75 t-7.5 -45l35 -23h15q4 0 4 -6q-6 -16 -32 -37.5t-58.5 -42t-63.5 -35t-45 -14.5q-10 0 -20.5 12.5t-17.5 30t-9 36zM846 1483v2l2 2v-4h-2z" />
<glyph unicode="&#xba;" horiz-adv-x="608" d="M422 1126l57 41l148 383q-4 -12 5 -14t26.5 1t40 8t44.5 11q49 10 96.5 19.5t59.5 15.5q4 0 39 13.5t66 27.5q12 4 13 5t5 3q20 -4 32.5 -23.5t17.5 -45t5 -53.5q0 -29 -2 -54l-22 -63q-4 -10 -7.5 -20.5t-7.5 -18.5l-10 -29q-29 -72 -45 -111.5t-34.5 -61t-42 -34 t-64.5 -28.5h-4q-23 -10 -46.5 -19.5t-52.5 -21.5q-10 -4 -23.5 -12.5t-29.5 -18.5q-10 -6 -21.5 -12t-19.5 -12.5t-11 -9.5t3 -3l-10 -2h-6q-18 0 -52 16.5t-67 38t-55.5 44t-16.5 34.5l4 13q-4 -6 -12 -7zM670 1182q-12 -33 9 -47.5t46 -14.5l55 39l113 291q8 23 -1 51.5 t-28 38.5l-69 -37z" />
<glyph unicode="&#xbb;" horiz-adv-x="958" d="M186 451l326 192l23 57q-10 10 -33 40t-49.5 67t-50 72.5t-35.5 56.5q12 23 44.5 63.5t71.5 85.5t78 84t64 60l37 -524q0 -2 2 2t2 2q-6 -16 -33 -57.5t-66 -93.5t-84 -110.5t-87 -111.5t-76.5 -94t-51.5 -58zM252 172q2 0 5 4t11 8l2 -12h-18zM365 944l2 -2v-6v-2 q-2 2 -2 10zM625 1229l2 18h22q-8 -2 -24 -18zM662 438l325 193l25 55q-10 10 -33 41t-49.5 67.5t-50 72.5t-35.5 57q10 23 43 63.5t72.5 84.5t78.5 84t64 61l37 -525q-2 -4 1 1t1 1q-6 -18 -34 -59t-65.5 -93.5t-83 -110.5t-87.5 -110.5t-76.5 -93.5t-53.5 -57zM729 160 q2 0 12 10l7 -10h-19zM842 920q2 4 1 6t-1 6v-2q0 -2 1 -3t1 -3zM1100 1233h22q-4 -2 -8 -6t-12 -10z" />
<glyph unicode="&#xbc;" horiz-adv-x="1226" d="M206 44q-3 -30 1 -49.5t16 -19.5q27 0 81 25t113.5 59.5t114 75.5t80.5 74q20 29 23 33q2 2 -6 2h-17q-8 0 -14 -2l-31 43q10 16 43 60t78 100.5t95.5 120t95.5 118.5q41 53 73.5 91t42.5 54l2 2q61 76 122 117t118 72q37 20 68.5 38.5t46.5 35.5q8 27 18 30 q20 117 -22 224q-12 -8 -19.5 -12.5t-13.5 -7.5t-12.5 -6t-18.5 -9q-133 -72 -216 -117t-130 -71.5t-67.5 -40t-26.5 -19.5l-2 -4q-4 -4 -11.5 -15.5t-11.5 -21.5q-2 -6 5 -13t12 -7l14 -52l-590 -735q-12 -14 -22 -43q-12 -31 -20.5 -65.5t-11.5 -64.5zM429 965.5 q1 -17.5 6 -34t12.5 -27.5t17.5 -11q12 0 37.5 13.5t52.5 32.5t48.5 39.5t27.5 35.5q0 6 -2 6h-13l-26 20q-2 10 7 43t21.5 70t23.5 69.5t17 45.5q16 41 37 63.5t41 38.5q6 4 12.5 10t10.5 13q-14 63 -66 110q-43 -29 -60.5 -41t-39.5 -26q-33 -23 -45 -31t-12 -6 q-4 -4 -17 2l15 -12q6 -6 8 -7l22 -36l-133 -351q-4 -12 -3 -29.5zM760 1391h2q0 8 -2 4v-2v-2zM813 1036l4 -10zM817 1026q2 0 2 -2v2h-2zM848 258q4 4 41 -16.5t72 -42.5q29 -14 48 -29.5t21 -26.5q2 -6 -1 -27.5t-7 -43.5q-2 -18 -5 -32.5t-7 -12.5l4 -11v-20 q12 8 27.5 29.5t29.5 48t26.5 54.5t22.5 50q10 20 15 31l51 35h10q2 0 3 1t5 1q16 0 21.5 -3t9.5 -7l2 6q8 18 5 34.5t-9 32.5q-10 25 -13 50.5t11 64.5q14 33 36.5 62.5t45.5 52.5q0 2 2 3t2 3l-72 39q-29 -8 -47 -17.5t-41 -31.5l-51 -17q-12 6 -15.5 8t-9.5 9 q-18 12 -39.5 29.5t-23.5 17.5h-2q-6 0 -16.5 -8.5t-21.5 -18.5t-19.5 -20.5t-8.5 -12.5zM965 301l67 176l25 27l22 14l51 -2l9 -14v-25l-54 -143l-20 -25l-47 -35zM1004 -8q8 -2 6 -21q2 8 3 13.5t1 11.5q-4 -4 -10 -4zM1231 223q0 4 10 4v2l-4 2q0 2 -2 5zM1317 545l22 -8 q-8 4 -9 7t3 17q2 2 -4 -3t-12 -13zM1362 1087l14 37h-6q-4 -10 -5 -19.5t-3 -17.5zM1376 1124q4 2 27 2q10 0 15 -3t9 -7l-34 53zM1427 1116q1 -4 3 -4z" />
<glyph unicode="&#xbd;" horiz-adv-x="1245" d="M206 44q3 30 11 64.5t21 65.5q10 29 22 43l590 735l-14 52q-4 0 -12.5 7t-6.5 13q4 10 12.5 21.5t12.5 15.5l2 4q6 6 26.5 19.5t67.5 40t130 71.5t216 117q10 6 16.5 9t12.5 6t13 7t20 13q47 -106 22 -224q-10 -4 -18 -30q-12 -16 -44 -35t-69 -39q-57 -31 -117.5 -72 t-122.5 -117l-2 -2q-10 -16 -42.5 -54t-73.5 -91q-45 -55 -95.5 -118.5t-95.5 -120t-79 -100.5t-44 -60l33 -43q8 2 31 2q8 0 6 -2q-2 -4 -23 -33q-29 -33 -82 -74t-112.5 -75.5t-113.5 -59.5t-81 -25q-12 0 -16 19.5t-1 49.5zM429 965.5q-1 17.5 3 29.5l133 351l-22 36 q-2 0 -8 7l-15 12q12 -6 17 -2q0 -2 12 6t45 31q23 14 40 26.5t60 40.5q51 -47 66 -110q-4 -6 -10.5 -12.5t-12.5 -10.5q-20 -16 -40.5 -38.5t-37.5 -63.5q-6 -12 -17 -45t-23.5 -70t-21.5 -69.5t-7 -43.5l26 -20h13q2 0 2 -6q-6 -14 -27.5 -35t-48.5 -40t-52.5 -32.5 t-37.5 -13.5q-10 0 -17.5 11t-12.5 27.5t-6 34zM760 1391v2v2q2 4 2 -4h-2zM813 1036q4 -8 2 -10zM815 1026h2v-2v-2q0 2 -2 4zM848 100v2l39 123l301 183l24 47l-8 32h-61l-11 -12q-10 -12 -20 -20v-2q-16 -18 -30.5 -35t-22.5 -17t-23.5 4.5t-30 11.5t-24.5 16t-8 20 l63 77q18 18 27 31q6 2 19.5 15.5t27.5 29.5q6 8 11 16.5t5 10.5q2 0 2 -2h-2q10 -4 33 -15.5t55 -25.5q23 -12 47.5 -23.5t38.5 -15.5q18 -10 36 -23.5t14 -27.5l-31 -80l-203 -137l33 -52l-4 -4q6 0 21.5 -4t29.5 -11t25.5 -16.5t9.5 -21.5l-8 -8q0 -2 -23.5 -28.5 t-44.5 -51.5q-31 -31 -33 -35q2 0 -3 -5l-9 -9l-2 -2q-10 -10 -21.5 -22.5t-7.5 -12.5h-10q-10 4 -33.5 10t-56.5 17q-23 4 -56.5 13t-48.5 13q-12 8 -22 20.5t-4 26.5zM869.5 54q-1.5 1 4.5 -1q4 -2 5 -4h4q-12 4 -13.5 5zM956 111l50 -15l49 19q-4 -4 6 10t18 25v2 q12 16 23.5 34.5t21.5 28.5l-37 47l-126 -90zM1231 174q2 8 12 16zM1362 1087q2 8 2 17q0 10 4 20h8zM1376 1124l17 45l32 -53q-4 4 -9 7t-15 3q-20 0 -25 -2zM1425 1116l2 -4q-2 0 -2 4z" />
<glyph unicode="&#xbe;" horiz-adv-x="1310" d="M294 -4.5q3 -20.5 15 -20.5q27 0 81 25t113.5 59.5t114 75.5t80.5 74q16 20 25 35h-8h-17q-8 0 -16 -2l-31 43q10 16 43 59t78 98.5t95.5 118t93.5 117.5v2q45 53 77.5 93t42.5 56l2 2q61 76 122 117t118 70q35 20 65.5 39.5t49.5 40.5q8 23 16 26q25 119 -24 224 q-57 -31 -90 -50.5t-72 -40.5q-98 -53 -161 -86.5t-99.5 -55t-54 -33t-25.5 -19.5q-4 -6 -13.5 -23.5t-11.5 -21.5q0 -4 8.5 -9t12.5 -5l14 -52l-592 -735q-6 -8 -12 -19.5t-10 -21.5q-12 -31 -19.5 -65.5t-10.5 -64.5t0 -50.5zM389 1032q2 0 3 -1t3 -1v2h-6zM395 1030 q0 -4 6 -8v-6h2h3q8 -4 19 -15.5t28 -27.5q29 -25 59.5 -52.5t40.5 -31.5h-4q2 0 4 -1t6 -1q18 0 52 15.5t70 38t64.5 48t36.5 45.5l136 355q6 14 -11.5 26t-34.5 23h-2q-10 6 -35.5 18t-56 24.5t-58.5 22.5t-40 15h-4q4 -4 -10.5 -14.5t-22.5 -18.5l-25 -25l-10 -10l-5 -7 t-15 -22v-2q-6 -8 -13.5 -17t-13.5 -17.5t-9 -12.5t1 0q-2 -10 8 -18t25.5 -14.5t32 -9.5t24.5 -3q12 0 21.5 9.5t15.5 19.5l6 4l4 4q0 2 4 6l64 -16l-49 -129l-70 -33l-27 18l-161 -73q57 23 107 12.5t81 -19.5l-2 -55q-37 -33 -88 -48t-78 -15q-16 0 -29.5 5t-27.5 9 q-6 0 -10.5 2t-8.5 2zM934 258q4 4 38 -15.5t68 -39.5q29 -16 49.5 -32.5t22.5 -27.5q2 -6 -1 -27.5t-7 -43.5q-4 -20 -6 -32.5t-4 -10.5l4 -13v-18q12 10 27.5 31.5t29.5 48t27.5 54.5t23.5 48q4 10 8.5 16.5t6.5 12.5l51 35h6q2 0 4 1t4 1q16 0 22.5 -3t10.5 -7l2 6 q8 18 5 34.5t-9 32.5q-10 25 -13.5 50.5t11.5 64.5q14 35 36.5 63.5t45.5 51.5l4 6l-70 39q-29 -8 -47 -17.5t-41 -31.5l-53 -17q-10 6 -13 8t-10 9q-18 12 -40.5 29.5t-24.5 17.5h-2q-6 0 -16.5 -8.5t-20.5 -18.5t-18.5 -20.5t-8.5 -14.5zM1049 301l67 174l25 29l26 14 l47 -2l11 -14v-27l-54 -141l-20 -25l-49 -35zM1085 -8q12 -4 11 -21l2 27q-7 -6 -13 -6zM1315 223q0 4 10 4v2l-4 2q0 2 -2 5zM1401 545l20 -8q-12 6 -6 22zM1446 1087l14 37h-6q-4 -10 -5 -19.5t-3 -17.5zM1460 1124q7 2 27 2q10 0 15 -3t9 -7l-34 53zM1511 1116q0 -6 2 -6 z" />
<glyph unicode="&#xbf;" horiz-adv-x="897" d="M112 259q5 -19 18 -35.5t30.5 -29t34.5 -20.5q16 -6 53 -21.5t78 -31.5q39 -16 81 -33.5t78.5 -34t65.5 -30t41 -21.5q4 0 1 -1t-1 -1l22 -10q-6 8 -10 8q10 4 40 36t52 56q10 12 18.5 21.5t10.5 11.5l25 24q25 27 57.5 65t64 74t55 62.5t29.5 30.5l2 6q12 29 -10 56.5 t-58 48t-74 33t-58 12.5q-12 0 -15 -3l-32 54l397 235l-80 172l-151 -96q10 0 -1.5 -9t-39 -24.5t-69.5 -37t-91 -48.5q-33 -16 -70 -34.5t-70.5 -37t-63.5 -36t-46 -29.5l-244 -168l-67 -172q-8 -23 -3 -42zM469 410l25 47l196 116l33 -53q-25 -16 -49.5 -38.5t-46 -47 t-40 -47t-28.5 -37.5l-72 -6zM1011.5 1257.5q28.5 -43.5 127.5 -59.5q53 33 105.5 71t72.5 89q10 31 6 60.5t-20.5 53t-41 39t-55.5 15.5q-55 0 -110.5 -39t-77.5 -94q-35 -92 -6.5 -135.5zM1120 1186l33 10q-10 0 -14 2q-4 -4 -9.5 -7t-9.5 -5z" />
<glyph unicode="&#xc0;" horiz-adv-x="1083" d="M135.5 280.5q-10.5 -98.5 44.5 -184.5q10 -18 21.5 -32.5t31.5 -14.5q12 0 31 10.5t42.5 27.5t50 37.5t53.5 41.5q55 43 102 76.5t82 33.5q27 0 36 -23.5t21 -55.5l-2 -2q6 -25 15.5 -50.5t20.5 -47t26.5 -35t33.5 -13.5h9q8 6 45 30.5t82 53.5q51 35 98 66.5t70 50.5 l10 8q10 4 18 7t15 7l2 2q4 2 6 11q4 10 6 25.5t0 15.5q-6 0 -8 -1l-2 -1l-4 -2q-10 -4 -20.5 -8.5t-27.5 -4.5q-29 0 -37 22.5t-5.5 52.5t9.5 56.5t11 34.5l98 256q23 61 43.5 110.5t55.5 110.5l18 19q16 12 32.5 20t33.5 17q14 6 26 13t17 17q10 31 -19 49.5t-61 34.5 q-16 10 -35 20.5t-35 26.5q-18 12 -31.5 32t-25.5 40q-18 27 -35 48.5t-45 21.5q-20 0 -35.5 -7.5t-38.5 -19.5q-8 -4 -22.5 -10t-32.5 -17q-43 -20 -82 -35.5t-74 -27.5q-63 -25 -125.5 -50.5t-119 -59t-103.5 -80t-80 -109.5l-14 -37q-8 -20 -15.5 -37.5t-15.5 -34.5 l-108 -284q-47 -123 -57.5 -221.5zM494 350q16 63 35.5 117.5t39.5 107.5l150 390l33 61l51 29h12l19 -6q10 -12 11 -17.5t5 -15.5l2 -2q2 -6 5 -12.5t3 -8.5l8 -8t9 -10l2 -29l-203 -530q-4 -12 -18.5 -27.5t-32 -31t-32.5 -27t-24 -17.5l-30 -12h-15l-14 6q-28 12 -16 43z M969 1778l6 4v10zM975 1782q4 -20 18.5 -60.5t32.5 -81.5t37.5 -73.5t36.5 -38.5q12 6 25.5 13t23.5 13q37 23 62.5 40.5t45.5 45.5l-28 273zM1087 1522q12 4 15 4l-2 2q-4 -2 -6.5 -3t-6.5 -3zM1257 1640l3 -8l2 6q0 2 6 9l-8 -5zM1260 1632q-2 -8 2 -12zM1268 1647l39 22 q-12 0 -22.5 -7t-16.5 -15z" />
<glyph unicode="&#xc1;" horiz-adv-x="1083" d="M135.5 280.5q-10.5 -98.5 44.5 -184.5q10 -18 21.5 -32.5t31.5 -14.5q12 0 31 10.5t42.5 27.5t50 37.5t53.5 41.5q55 43 102 76.5t82 33.5q27 0 36 -23.5t21 -55.5l-2 -2q6 -25 15.5 -50.5t20.5 -47t26.5 -35t33.5 -13.5h9q8 6 45 30.5t82 53.5q51 35 98 66.5t70 50.5 l10 8q10 4 18 7t15 7l2 2q4 2 6 11q4 10 6 25.5t0 15.5q-6 0 -8 -1l-2 -1l-4 -2q-10 -4 -20.5 -8.5t-27.5 -4.5q-29 0 -37 22.5t-5.5 52.5t9.5 56.5t11 34.5l98 256q23 61 43.5 110.5t55.5 110.5l18 19q16 12 32.5 20t33.5 17q14 6 26 13t17 17q10 31 -19 49.5t-61 34.5 q-16 10 -35 20.5t-35 26.5q-18 12 -31.5 32t-25.5 40q-18 27 -35 48.5t-45 21.5q-20 0 -35.5 -7.5t-38.5 -19.5q-8 -4 -22.5 -10t-32.5 -17q-43 -20 -82 -35.5t-74 -27.5q-63 -25 -125.5 -50.5t-119 -59t-103.5 -80t-80 -109.5l-14 -37q-8 -20 -15.5 -38t-15.5 -34 l-108 -284q-47 -123 -57.5 -221.5zM494 350q16 63 35.5 117.5t39.5 107.5l150 390l33 61l51 29h12l19 -6q10 -12 11 -17.5t5 -15.5l2 -2q2 -6 5 -12.5t3 -8.5l8 -8t9 -10l2 -29l-203 -530q-4 -12 -18.5 -27.5t-32 -31t-32.5 -27t-24 -17.5l-30 -12h-15l-14 6q-28 12 -16 43z M963 1669l24 -27q4 10 1.5 18.5t-25.5 8.5zM979 1628q2 4 6 8l-4 -4zM985 1636v2l2 4l-2 -4v-2zM985 1638q0 -27 11.5 -43t35.5 -34q6 -6 12.5 -15.5t14.5 -19.5q20 6 65 38.5t96.5 74.5t96.5 82t63 61l-151 131zM1057 1526q2 0 3 -1l1 -1q0 2 -2 2h-2zM1061 1524q0 -2 2 -2 q4 0 4 -4l4 -2q-2 8 -10 8zM1380 1782l4 -4l7 14q-4 -2 -5.5 -4t-5.5 -6z" />
<glyph unicode="&#xc2;" horiz-adv-x="1081" d="M135.5 281.5q-10.5 -99.5 44.5 -185.5q10 -18 21.5 -32.5t31.5 -14.5q12 0 31 10.5t42.5 27.5t50 37.5t51.5 41.5q55 43 102 76.5t82 33.5q27 0 36 -22.5t21 -56.5l-2 -2q6 -23 15.5 -48.5t20.5 -47t26.5 -36t33.5 -14.5h9q10 6 46 31.5t83 54.5q49 33 96 64.5t70 50.5 l10 8q10 4 17 7t16 7l2 2q4 2 8 12.5t5 25t-3 14.5t-6 -1l-2 -1l-4 -2q-10 -4 -20.5 -8.5t-27.5 -4.5q-29 0 -37 23.5t-4.5 52.5t10.5 56.5t9 33.5l98 258q25 61 45.5 110.5t55.5 112.5l16 17q16 12 32.5 20t35.5 19q14 6 25 12t15 16q12 31 -17.5 50.5t-59.5 35.5 q-18 8 -36 18.5t-34 29.5q-18 12 -32.5 31.5t-26.5 39.5q-16 27 -34 47.5t-46 20.5q-18 0 -34.5 -7.5t-39.5 -17.5q-8 -4 -21.5 -11t-31.5 -17q-45 -18 -83 -34t-75 -30q-63 -25 -125.5 -50.5t-118 -59t-102.5 -79.5t-80 -110l-14 -37q-8 -20 -15.5 -38t-13.5 -34l-110 -284 q-47 -123 -57.5 -222.5zM494 352q16 61 35.5 116.5t39.5 109.5l152 391l33 59l47 31h14l16 -8q12 -12 13.5 -17.5t5.5 -13.5l2 -2q4 -6 6 -13.5t4 -9.5q4 -6 5 -8t10 -10l2 -29l-205 -532q-4 -12 -18.5 -27.5t-32 -31t-33 -27t-21.5 -17.5l-30 -10h-13l-16 4q-28 12 -16 45z M575 1569l13 6q-2 4 -4 7t-2 5zM588 1575q12 -14 40.5 -36.5t63.5 -45.5t68 -40t55 -19q31 20 78 57t96 75t89 70.5t57 44.5l59 -2l92 -239l348 192q4 2 -23.5 16.5t-72.5 33t-102.5 40t-109.5 40t-93 29.5t-57 11q-2 0 -1 -1t-1 -1zM807 1427q2 2 12 7h-4z" />
<glyph unicode="&#xc3;" horiz-adv-x="1077" d="M135.5 281.5q-10.5 -99.5 42.5 -185.5q10 -18 22.5 -32.5t32.5 -14.5q12 0 31 10.5t42.5 27.5t49 37.5t52.5 41.5q53 43 100 76.5t82 33.5q27 0 36 -22.5t21 -56.5l-2 -2q6 -23 15.5 -48.5t20.5 -47t26.5 -36t33.5 -14.5h9q8 6 44.5 31.5t82.5 54.5q51 33 97 64.5 t68 50.5l11 8q10 4 18 7t14 7l2 2q4 2 7 11q4 10 6 25.5t0 15.5q-4 0 -7 -1l-3 -1l-5 -2q-10 -4 -20 -8.5t-27 -4.5q-29 0 -36 23.5t-5 52.5t9.5 56.5t9.5 33.5l98 258q25 61 46.5 110.5t56.5 110.5l14 19q16 12 32.5 20t34.5 17q14 8 26.5 14t16.5 16q12 31 -17.5 50.5 t-61.5 35.5q-18 8 -36 18.5t-34 29.5q-18 12 -31.5 30.5t-25.5 40.5q-16 27 -34 47.5t-46 20.5q-18 0 -34.5 -7.5t-39.5 -17.5q-8 -4 -21.5 -11t-31.5 -17q-43 -18 -82 -35t-74 -29q-63 -25 -125.5 -50.5t-119 -59t-102.5 -79.5t-79 -110l-14 -37q-8 -20 -15.5 -38 t-13.5 -34l-110 -284q-47 -123 -57.5 -222.5zM492 352q16 61 35.5 116.5t39.5 109.5l152 391l33 59l47 29h14l16 -6q12 -12 13.5 -17.5t5.5 -13.5l4 -2q4 -18 8 -23q4 -6 5 -8t9 -10l3 -29l-205 -532q-4 -12 -18.5 -27.5t-31 -31t-32 -27t-23.5 -17.5l-30 -10h-13l-16 4 q-28 12 -16 45zM580 1622l12 6q-6 6 -6 12zM592 1628q18 -12 69.5 -36.5t109.5 -49t113.5 -43t84.5 -20.5q23 16 47 30.5t49 30.5q29 16 59 36l31 21l55 5l109 -117l338 178q-18 14 -68.5 38.5t-110 49.5t-115.5 43t-85 21q-37 -27 -70.5 -55.5t-62.5 -51.5 q-10 -10 -18.5 -19.5t-22.5 -19.5l-55 -4l-119 143zM958 1473q4 2 7.5 3t5.5 3h-2l-6 -4zM1276 1815h2q2 0 2 2q0 -2 -4 -2zM1657 1663l6 -8l6 16z" />
<glyph unicode="&#xc4;" horiz-adv-x="1083" d="M135.5 281.5q-10.5 -99.5 44.5 -185.5q10 -18 21.5 -32.5t31.5 -14.5q12 0 31 10.5t42.5 27.5t50 37.5t53.5 41.5q55 43 102 76.5t82 33.5q27 0 36 -22.5t21 -56.5l-2 -2q6 -25 15.5 -50.5t20.5 -47t26.5 -35t33.5 -13.5h9q8 6 45 31.5t82 54.5q51 33 98 64.5t70 50.5 l10 8q10 4 18 7t15 7l2 2q4 2 6 11q4 10 6 25.5t0 15.5q-6 0 -8 -1l-2 -1l-4 -2q-10 -4 -20.5 -8.5t-27.5 -4.5q-29 0 -37 23.5t-4.5 52.5t10.5 56.5t9 33.5l98 258q23 59 44.5 108.5t56.5 112.5l16 17q16 14 32.5 22t33.5 15q14 6 26 12t17 20q10 29 -19 48.5t-59 35.5 q-41 14 -66 39q-18 12 -32.5 34t-28.5 44q-16 29 -35 50.5t-47 21.5q-20 0 -35.5 -7.5t-38.5 -19.5q-8 -4 -22.5 -10t-32.5 -16q-43 -20 -82 -36t-74 -28q-63 -25 -125.5 -50.5t-119 -59t-103.5 -79.5t-80 -110l-14 -39q-8 -18 -15.5 -36t-13.5 -34l-110 -284 q-47 -123 -57.5 -222.5zM494 352q16 61 35.5 116.5t39.5 109.5l150 389l33 59l51 31h12l19 -6q10 -12 11 -18.5t7 -14.5v-2q4 -6 6 -12.5t4 -8.5q4 -6 6 -8t9 -12l4 -27l-205 -532q-4 -12 -18.5 -27.5t-31 -30t-32.5 -27t-25 -18.5l-28 -10h-15l-16 4q-28 12 -16 45z M715 1622.5q4 -29.5 19.5 -53t40 -37.5t52.5 -14q55 0 110.5 38.5t76.5 92.5q35 90 6 134t-125 60q-53 -35 -104.5 -74t-67.5 -86q-12 -31 -8 -60.5zM883 1845q2 -2 12 -2q10 2 18 10zM1261 1625q5 -30 20 -53.5t40 -37.5t55 -14q55 0 109.5 38.5t75.5 92.5q35 90 7 134 t-124 60q-55 -35 -106.5 -73.5t-69.5 -85.5q-12 -31 -7 -61zM1430 1847q4 -2 14 -2q4 2 9 4t9 6z" />
<glyph unicode="&#xc5;" horiz-adv-x="1083" d="M135 280.5q10 98.5 58 221.5l110 286q6 16 13.5 33t15.5 37l14 39q33 63 80 108.5t103.5 79t119 59t125.5 50.5q35 12 74 28.5t82 34.5q18 10 32.5 17.5t22.5 11.5q23 10 38 17.5t36 7.5q29 0 46 -20.5t34 -47.5q12 -20 26.5 -39.5t32.5 -32.5q16 -18 33.5 -28t36.5 -19 q31 -16 59.5 -35.5t18.5 -50.5q-4 -10 -15.5 -16t-27.5 -12q-16 -8 -33 -17.5t-33 -21.5l-16 -17q-35 -63 -56.5 -112t-44.5 -109l-98 -258q-4 -8 -11 -34.5t-9.5 -56.5t6 -52.5t36.5 -22.5q16 0 26.5 4t21.5 9l4 2l2 1q2 1 8 1q2 0 0 -15.5t-6 -25.5q-2 -8 -6 -11l-2 -2 q-6 -4 -14.5 -7t-18.5 -7l-10 -8q-23 -18 -70 -50t-98 -67q-45 -29 -82 -53.5t-45 -30.5h-9q-18 0 -33.5 13.5t-26.5 35t-20.5 47t-15.5 50.5l2 2q-12 33 -21 56t-36 23q-35 0 -82 -33.5t-102 -76.5q-27 -20 -53.5 -41t-50 -38t-42 -27.5t-31.5 -10.5q-20 0 -31.5 14.5 t-21.5 32.5q-55 86 -45 184.5zM494 352q-12 -33 16 -45l16 -4h15l28 10q8 6 23.5 17.5t33 27t32 30.5t18.5 28l205 532l-4 27q-6 8 -8.5 10t-8.5 8q0 6 -8 23v2q-6 8 -7 13t-11 18l-19 8h-12l-51 -31l-33 -59l-150 -389q-20 -53 -39.5 -109t-35.5 -117zM850 1532l6 6 q0 -6 -6 -6zM856 1538l4 4v-2zM860 1540l41 29l103 264l34 -8q35 -8 82 0q43 6 80 11t53 9q4 0 21.5 4t37 8.5t38 9.5t22.5 9q41 -8 54.5 -43t11.5 -66l-15 -41q-4 -6 -4 -12t-4 -12l-8 -23q-16 -43 -27.5 -67.5t-26 -37.5t-35 -20.5t-54.5 -17.5q-20 -6 -43 -13t-47 -16 q6 0 -14.5 -8t-37.5 -14h-2q-16 -10 -30.5 -17.5t-10.5 -7.5l-12 -2h-6q-20 0 -56 9.5t-69 22.5t-56.5 27.5t-19.5 22.5zM1085 1581q-10 -25 10.5 -39t43.5 -14l51 37l78 198q4 10 -6.5 34t-28.5 32l-66 -35z" />
<glyph unicode="&#xc6;" horiz-adv-x="1654" d="M136.5 285.5q-13.5 -101.5 39.5 -189.5q12 -16 22.5 -31.5t30.5 -15.5q10 0 28.5 11.5t42.5 27.5t49.5 37.5t49.5 42.5q55 45 101.5 79t81.5 34q27 0 35 -24t18 -58v-2q6 -25 14 -50.5t18.5 -47t25 -36t32.5 -14.5h10q20 14 51 35.5t76 52.5h49q41 -59 92.5 -98 t106.5 -39q23 0 75 21.5t116.5 54.5t133 73.5t128 79.5t100.5 73t47 50.5t-24 16.5q-27 0 -50.5 -5.5t-48.5 -11.5q-29 -10 -56.5 -16t-62.5 -6t-76.5 13t-74.5 38t-49.5 59.5t2.5 79.5q16 45 50 78t78 58.5t96 46t105 40.5q49 18 97.5 37t89.5 41.5t70.5 49t44.5 61.5 q2 4 3 13t3 18l2 4l-88 352q0 -2 -7.5 3t-13.5 11h-2q-6 4 -10 5t-8 5h-6q-31 0 -87.5 -15t-127 -41.5t-147.5 -61.5t-144 -72l-39 -2q-4 2 -8 6q-10 4 -17.5 9t-15.5 18q-39 33 -62 78q-16 27 -31.5 48t-41.5 21q-20 0 -37 -8t-37 -18q-10 -4 -22.5 -11.5t-32.5 -17.5 q-41 -18 -80 -34.5t-72 -29.5q-61 -25 -123.5 -51t-118 -60t-101.5 -81t-79 -111l-14 -39q-8 -20 -15.5 -37.5t-13.5 -33.5l-110 -289q-47 -123 -60.5 -224.5zM487 356q33 121 76 230l152 395l35 59l47 31h14l16 -6q10 -12 11 -18q0 -6 6 -15l2 -2q8 -16 8 -20q4 -8 5 -10.5 t9 -10.5l2 -28l-206 -539q-4 -12 -18.5 -27.5t-31 -31t-33 -27.5t-24.5 -19l-27 -10h-12l-18 4q-27 12 -13 45zM1321 741l90 236l76 16q0 -4 4 -17t8 -28.5t8 -29t6 -17.5l3 -8q4 -16 6 -46t-2 -40q-6 -18 -28 -33.5t-46.5 -29t-47 -22.5l-32.5 -13t-12 -4h-11zM1821 1319 l2 2z" />
<glyph unicode="&#xc7;" horiz-adv-x="962" d="M124 247q11 -46 38.5 -90t67.5 -81t83 -58l13 -12q12 -43 42.5 -89t61.5 -83l-29 -59q-20 -10 -42.5 -16.5t-45.5 -10.5q-35 -8 -65.5 -19.5t-44.5 -33.5q-6 -49 33.5 -76t111.5 -31l82 19q27 20 46.5 36.5t31.5 32t21.5 33t19.5 41.5q33 84 2 138.5t-96 80.5l20 66 q18 10 40 20.5t44 22.5q49 25 103.5 53.5t102.5 53t87 45t57 30.5q6 4 15 8q35 18 46 27.5t21 34.5q4 12 4 20q0 10 -10 10q-20 0 -41.5 -5t-42.5 -9q-29 -8 -59.5 -15t-59.5 -7q-31 0 -74.5 11t-80.5 32.5t-56.5 54.5t-3.5 76l178 465l80 18q2 -10 3 -21.5t3 -27.5 q0 -20 3.5 -44t9.5 -44.5t18 -33.5t31 -13q20 0 70.5 11t104.5 31.5t100 46t59 56.5q-2 -2 0 10q-4 10 -9.5 45t-10.5 77t-9 79t-4 51q-6 6 -12 39q-4 27 -13.5 55.5t-19.5 28.5q-4 0 -6 -1t-4 -1h-2q-33 -10 -107 -33.5t-156.5 -48t-157.5 -47t-108 -31.5 q-27 -10 -60.5 -24.5t-64 -32.5t-55.5 -38.5t-33 -41.5l-268 -698q-14 -37 -3 -83z" />
<glyph unicode="&#xc8;" horiz-adv-x="995" d="M143.5 266.5q14.5 -69.5 54.5 -129t97 -99.5t121 -40q23 0 75 20.5t118.5 54t137 73.5t131 78t102.5 71t48 49q8 16 -22 16q-29 0 -54.5 -5t-50.5 -11q-29 -10 -57.5 -15t-63.5 -5q-37 0 -80 12t-77.5 36.5t-52 59.5t-1 78t50 75.5t78.5 58.5t99.5 46.5t109.5 38.5 q49 18 98.5 36.5t91.5 40t72.5 47.5t42.5 58q2 6 5.5 18.5t7.5 20.5l-97 344q-2 0 -6 4h-2q-10 4 -23.5 11.5t-17.5 9.5h-8q-29 0 -88 -14.5t-131 -39t-149.5 -57t-144 -69.5t-115 -75t-62.5 -73l-229 -596q-23 -59 -8.5 -128.5zM618 727l91 231l77 17q0 -4 3.5 -17.5 t8.5 -29t9 -27.5t6 -16v-8q2 -6 5 -19.5t4 -28t2 -24.5t1 -12q-6 -18 -28.5 -34t-48 -29t-49 -22.5t-35.5 -13.5q-8 -4 -11 -4h-12zM905 1780l6 4q0 4 -1 7t1 5zM911 1784q4 -20 18.5 -59t34 -79t39 -74t35.5 -42q16 10 28.5 18t25.5 13q35 20 60.5 37.5t41.5 41.5l-29 275z M1030 1526q2 2 10 2q-2 0 -1 1t-1 1zM1126 1298l2 -4q2 0 -2 4zM1194 1640l4 -6l2 6l4 7l-4 -2q0 -2 -3 -3zM1198 1634q0 -6 2 -10zM1204 1647l41 24q-12 0 -23.5 -7t-17.5 -17z" />
<glyph unicode="&#xc9;" horiz-adv-x="995" d="M143.5 266.5q14.5 -69.5 54.5 -129t97 -99.5t121 -40q23 0 75 20.5t118.5 54t137 73.5t131 78t102.5 71t48 49q8 16 -22 16q-29 0 -54.5 -5t-50.5 -11q-29 -10 -57.5 -15t-63.5 -5q-37 0 -80 12t-77.5 36.5t-52 59.5t-1 78t50 75.5t78.5 58.5t99.5 46.5t109.5 38.5 q49 18 98.5 36.5t91.5 40t72.5 47.5t42.5 58q2 6 5.5 18.5t7.5 20.5l-97 344q-2 0 -6 4h-2q-10 4 -23.5 11.5t-17.5 9.5h-8q-29 0 -88 -14.5t-131 -39t-149.5 -57t-144 -68.5t-115 -74t-62.5 -73l-229 -598q-23 -59 -8.5 -128.5zM618 727l91 231l77 17q0 -4 3.5 -17.5 t8.5 -29t9 -28.5t6 -15v-8q2 -6 5 -19.5t4 -28t2 -24.5t1 -12q-6 -16 -35.5 -34t-62.5 -33t-59 -26l-27 -10zM909 1667l27 -27q4 10 0 18.5t-27 8.5zM930 1628q4 4 4 6l-2 -4zM934 1634l2 2v4v-4zM936 1636q-4 -27 9 -43t36 -32q8 -8 13 -17.5t16 -19.5q18 6 63 38.5 t95.5 73.5t96.5 81t66 61l-153 133zM1008 1524q2 0 2 -2q2 2 0 2h-2zM1010 1522q6 -6 6 -4l6 -2q-6 6 -12 6zM1126 1298l2 -4q2 0 -2 4zM1331 1778l6 -2l6 16q-4 -4 -6 -7t-6 -7z" />
<glyph unicode="&#xca;" horiz-adv-x="980" d="M143.5 266.5q14.5 -69.5 53.5 -129t95 -99.5t118 -40q23 0 75 20.5t117.5 54t135 73.5t130 78t101.5 71t47 49q8 18 -23 18q-29 0 -53.5 -5t-48.5 -13q-29 -10 -57.5 -15t-63.5 -5t-78 12t-76.5 36.5t-50 59.5t-0.5 78q16 45 50 78t78 58.5t96.5 46t107.5 38.5 q49 16 98 34.5t90 40t72 48.5t43 59q4 6 6 17.5t6 21.5l-92 344q-6 0 -6 4h-2q-10 4 -22.5 12.5t-16.5 10.5h-6q-29 0 -87 -14.5t-130 -40t-148.5 -58t-143 -68.5t-115 -75t-62.5 -74l-229 -598q-23 -59 -8.5 -128.5zM489 1591l21 6q-12 12 -12 15zM510 1597 q14 -14 45 -36.5t66.5 -44t70.5 -38t58 -18.5q16 12 41.5 30.5t56.5 42t63.5 48.5t63.5 47q35 29 64.5 50.5t43.5 31.5l54 -2l100 -244l334 172q-12 10 -46 28.5t-78 39t-93 42t-95.5 39t-83 29t-55.5 13.5zM616 729l89 232l75 16q0 -4 4 -17.5t8.5 -29t8.5 -28.5t6 -17 l2 -6q2 -6 3 -19.5t3 -28t2 -24.5v-12q-6 -16 -34.5 -34t-60.5 -33t-58 -26l-25 -10zM741 1454q2 2 13 6h-4l-7 -4zM1120 1296q2 0 0 4v-4zM1571 1636l6 -8l8 19z" />
<glyph unicode="&#xcb;" horiz-adv-x="995" d="M143.5 266.5q-14.5 69.5 8.5 128.5l229 598q14 35 62.5 73t116 75t145 69.5t149.5 57t131 39t88 14.5h8q2 -2 15.5 -9t25.5 -12h2q0 -4 4 -4l95 -346q-4 -8 -5 -19t-6 -18q-12 -33 -41.5 -59.5t-71.5 -48t-91.5 -38.5t-98.5 -36q-55 -18 -109.5 -38.5t-99.5 -46 t-79.5 -58.5t-51.5 -78q-16 -43 1.5 -78t52 -59.5t77.5 -36.5t80 -12q35 0 63.5 5t57.5 15q25 6 50.5 12t54.5 6q31 0 22 -18q-6 -16 -48 -48t-102.5 -71t-131 -79t-137 -72.5t-119 -54t-74.5 -21.5q-63 0 -120.5 40t-97.5 99.5t-54.5 129zM618 727l25 -35h12t11 4 q10 4 33.5 13.5t49 22.5t48 28.5t28.5 34.5v12t-2 24.5t-4 27.5t-4 20l-2 6q-4 4 -8 17t-8 28.5t-7.5 29t-3.5 17.5l-77 -16zM641 1629q-4 30 6 59q18 47 70.5 87t107.5 74q94 -18 124 -63t-5 -133q-10 -27 -30.5 -50.5t-46 -42t-54.5 -28.5t-55 -10q-31 0 -56.5 15 t-41 38.5t-19.5 53.5zM811 1851l33 9q-12 -8 -19 -11q-10 0 -14 2zM1128 1296v4q2 -4 0 -4zM1231 1629q-4 30 6 59q18 47 71.5 87t108.5 74q96 -16 124 -60t-7 -136q-23 -53 -77 -92t-109 -39q-31 0 -55.5 15t-41 38.5t-20.5 53.5zM1401 1851l33 9q-12 -8 -17 -11 q-12 0 -16 2z" />
<glyph unicode="&#xcc;" horiz-adv-x="716" d="M205 197l229 598l-24 36q-10 0 -30 9.5t-24 13.5l-4 4q-8 6 -12 23l338 229q6 4 18.5 11t22.5 7q16 0 37 -26l157 -225q-6 -16 -21 -28.5t-34 -25.5q-37 -27 -77 -60.5t-64 -98.5q-8 -20 -23.5 -74.5t-33 -114t-31 -113t-15.5 -71.5l33 -31q10 2 15 2h14q41 0 29 -33 q-6 -16 -32 -39.5t-63 -50t-79 -51.5t-81.5 -45t-73.5 -32.5t-52 -12.5q-23 0 -47.5 23.5t-43 55.5t-27.5 65.5t-1 54.5zM332 874q4 4 5 6.5t3 4.5l-1 -1q-1 -1 1 -3zM711 1628l6 14v-12zM717 1630l266 133l33 -276q-16 -25 -43 -42.5t-64 -33.5q-24 -14 -57 -37 q-16 6 -37.5 40t-41 75t-36 81t-20.5 60zM834 1366q8 6 14 6q-2 -2 -4 -2t-6 -2zM848 1372l4 2h2l-2 -1t-4 -1zM1016 1487l2 1q2 1 4 5l-2 -6l-2 -2zM1018 1479v6l2 -4zM1022 1493q4 10 12 18.5t35 8.5z" />
<glyph unicode="&#xcd;" horiz-adv-x="716" d="M205 197q-8 -20 1 -54t27.5 -66t43 -55.5t47.5 -23.5q18 0 52 12.5t73.5 32.5t81.5 45t79 51.5t62.5 50t32.5 39.5q12 33 -29 33h-14q-4 0 -15 -2l-33 31q2 18 15.5 71.5t31 113t33 113.5t23.5 75q25 66 64.5 99.5t76.5 59.5q18 12 33.5 24.5t21.5 29.5l-157 225 q-18 25 -39 24q-10 0 -21.5 -6t-17.5 -10l-338 -229q4 -16 12 -23l4 -4q4 -4 23.5 -13.5t30.5 -9.5l24 -36zM332 874l8 7q-2 2 -1 3l1 1q-2 -2 -3 -4t-5 -7zM659 1526l27 -27q4 10 1 18.5t-28 8.5zM678 1485q4 4 4 6l-2 -4zM682 1491l2 2l2 6l-2 -6zM684 1493 q0 -23 13.5 -41t37.5 -37q6 -6 14.5 -14t16.5 -19q20 8 67.5 42t98.5 74t97 79t67 59l-162 133zM760 1380q4 0 5 -1t3 -1l-2 4q-2 0 -3 -1t-3 -1zM768 1378q2 -2 4 -2q-2 0 -4 2zM1096 1636l4 -2l6 15q-4 -4 -5 -6.5t-5 -6.5z" />
<glyph unicode="&#xce;" horiz-adv-x="684" d="M199 143q8 -34 25.5 -66t40 -55.5t44.5 -23.5q18 0 50 12.5t71 32.5t80 46t76 51.5t60.5 49t31.5 41.5q12 31 -27 31q-16 0 -26 -2l-33 31q2 18 16.5 71.5t31.5 114t34.5 113.5t25.5 76q25 66 62 99.5t74 59.5q18 12 32.5 24.5t22.5 29.5l-150 225q-14 27 -34 26 q-10 0 -20.5 -6t-16.5 -10l-330 -231q4 -16 12 -23l2 -4q4 -4 23.5 -13t28.5 -9l22 -37l-229 -600q-8 -20 0 -54zM324 1442l14 4l-6 14zM332 877l8 6v4q0 -2 -8 -10zM338 1446q12 -12 37.5 -33.5t55.5 -43t60.5 -38t51.5 -18.5q27 18 71.5 53t91 72t86 69.5t56.5 44.5l57 -4 l84 -229l318 180q2 4 -21.5 17.5t-62.5 33t-87.5 40t-95.5 39t-86 30.5t-59 12q4 0 18 8l-14 -6l-6 -2zM535 1307q2 2 14 6h-6z" />
<glyph unicode="&#xcf;" horiz-adv-x="692" d="M201 142.5q-8 33.5 0 54.5l229 600l-22 37q-10 0 -30 9t-24 13l-2 4q-8 6 -12 23l330 229q8 4 18 11t21 7q16 0 36 -26l150 -225q-8 -16 -21.5 -28.5t-33.5 -27.5q-35 -25 -73 -59.5t-65 -99.5q-8 -23 -24 -76t-33.5 -113.5t-32 -113t-16.5 -72.5l33 -29q10 2 14 2h12 q41 0 29 -31q-10 -27 -59.5 -66.5t-109.5 -76.5t-117.5 -63.5t-84.5 -26.5q-23 0 -46 23.5t-40.5 55.5t-25.5 65.5zM332 877q8 8 8 10v-4zM453 1473.5q-4 29.5 6 58.5q18 47 70.5 87t105.5 75q98 -16 127 -60.5t-6 -134.5q-20 -53 -75.5 -93t-111.5 -40q-31 0 -55.5 15.5 t-40.5 39t-20 53zM623 1696l30 8q-8 -8 -18 -10q-10 0 -12 2zM986 1475.5q-5 29.5 7 60.5q18 47 70.5 86t107.5 74q96 -16 125 -60.5t-6 -134.5q-10 -27 -30.5 -51.5t-46 -42.5t-55.5 -28.5t-56 -10.5q-31 0 -55.5 15.5t-40 39t-20.5 53zM1155 1698l33 8q-12 -8 -17 -10 q-10 0 -16 2z" />
<glyph unicode="&#xd0;" horiz-adv-x="1310" d="M201 582l51 -6q51 -5 122.5 -11t147.5 -13t123 -13l19 -35l-64 -170l-27 -31q-10 -6 -25.5 -15t-30.5 -19.5t-26.5 -20.5t-13.5 -17q-2 -8 36 -44.5t87 -78.5t96 -75t62 -33q12 0 58 16.5t108.5 43t133 60.5t131 66.5t103.5 63.5t51 49l232 604q8 20 4 52t-15.5 62 t-27.5 54.5t-31 32.5l-4 2q-16 12 -60 41t-96.5 60.5t-99.5 59t-67 38.5l-11 8q-6 10 -6 12q0 4 6 21l4 8q10 31 34 46t52 34l3 2q25 14 48 28.5t25 18.5q-59 0 -118.5 -8.5t-111.5 -33t-95 -69.5t-72 -119q-20 -53 -19 -96t16 -80t43 -68.5t64 -58.5l-47 -69h-184l-68 -174 l-59 -35l-90 35zM928 365l194 503l72 25l41 -66l2 -26l-193 -502l-73 -27l-41 68z" />
<glyph unicode="&#xd1;" d="M131 252l1 1q1 1 3 1v2l2 6zM135 254q-4 -10 8.5 -28.5t18.5 -28.5v-9l155 -188h21l35 20q35 21 84 49.5t101 59.5t89 53l39 29l4 12v25q0 18 -4 24v23l256 666l21 24l45 35l47 4l37 -35l8 -28l-305 -797q-8 -23 2 -51.5t30.5 -56t43 -46t38.5 -18.5q6 0 12.5 2t9.5 4 l3 2l334 195q10 4 17 7t13 7q27 14 37.5 22.5t18.5 30.5q10 29 -9.5 42t-46.5 24l-12 34l230 599l34 30q10 4 32 23.5t34 34.5q-18 29 -33 47l-96 98q-4 2 -14.5 16.5t-23.5 35t-25.5 41t-20.5 32.5q-4 4 -1 3t1 1q-20 0 -49 -12.5t-63 -30.5t-69.5 -40.5t-70.5 -45.5 q-49 -31 -94 -57.5t-80 -42.5l-45 12q-6 29 -15.5 65.5t-24.5 70.5t-39 56.5t-56 22.5h-6q-45 -16 -96.5 -45t-101.5 -63.5t-96 -69.5t-81 -64q-4 -4 -5 -9t-3 -9q-8 -18 5 -22.5t27 -6.5q18 -2 35 -4t27 -10t12 -21.5t-6 -35.5l-229 -599l-23 -26q-2 -2 -9 -6t-16 -11 q-25 -16 -57.5 -37.5t-38.5 -27.5zM680 1638l14 7q-10 8 -6 12zM694 1645q16 -12 65.5 -37t108 -49.5t113.5 -43t84 -20.5q25 16 51.5 31.5t54.5 32.5q25 16 47.5 30.5t36.5 24.5l52 2l104 -115l336 176q-18 14 -67.5 39t-108 49.5t-113.5 44t-84 21.5q-35 -25 -68.5 -54.5 t-62.5 -54.5q-8 -8 -20.5 -17t-22.5 -19l-53 -5l-117 144zM1057 1487q2 2 12 8h-4l-6 -4zM1372 1831h2q4 0 8 4q-8 -4 -10 -4zM1616 1049q0 -5 2 -5q-2 0 2 11q-4 -4 -4 -6zM1747 1677q8 -6 8 -8l6 17z" />
<glyph unicode="&#xd2;" horiz-adv-x="1126" d="M111 283q-8 -20 9 -49t50 -61t76 -63.5t88 -56t86 -40t67 -15.5h5q2 0 18 2q2 2 41 25.5t80 48.5q29 18 55.5 32.5t30.5 18.5l4 2q57 27 104 46.5t86 35.5q86 35 136.5 59.5t87 68.5t70.5 122t87 217l19 49q6 18 12 36.5t14 37.5l49 127q6 51 4.5 108.5t-16 108.5t-42 90 t-72.5 53q-10 -6 -42 -19.5t-69 -28.5t-69.5 -27.5t-41.5 -14.5q-23 -10 -59.5 -19.5t-80.5 -18.5t-93 -19.5t-98 -18.5q-45 -8 -87 -16t-75 -13.5t-51.5 -6.5t-18.5 6l-278 -728l-52 -36q-20 0 -24 -19zM630 360.5q-5 14.5 3 34.5l229 598l72 29q8 -8 17.5 -24.5t14.5 -35 t6 -37t-5 -32.5l-207 -539l-51 -35q-16 0 -33 4.5t-29 13.5t-17 23.5zM905 1733l6 4q-4 8 0 12zM911 1737q4 -20 18.5 -59.5t33 -79t38 -73.5t33.5 -42q16 10 28.5 17t27.5 13q35 20 61.5 38t42.5 42l-29 275zM1024 1477q2 0 2 2q0 -2 -2 -2zM1026 1479q2 0 6 1t8 1h-4 q0 2 -2 2zM1194 1585v2v4v-6zM1194 1591l2 2v4q0 -2 -1 -3l-1 -1v-2zM1196 1597l45 27q-25 0 -33 -8t-12 -19z" />
<glyph unicode="&#xd3;" horiz-adv-x="1126" d="M111 283q-8 -20 9 -49t50 -61t76 -63.5t88 -56t86 -40t67 -15.5h7q4 0 20 2q-4 -2 7 6t31.5 20.5t45.5 27t45 26.5q25 16 49 30l25 15l4 2q57 27 104 46.5t86 35.5q86 35 136.5 60.5t87 69.5t70.5 121t87 216l19 49q6 18 12 36.5t14 39.5l49 125q6 51 4.5 109.5 t-14 109.5t-39 89t-69.5 52q-8 -6 -44 -21.5t-78 -30.5t-78 -27.5t-44 -14.5q-41 -14 -130 -33.5t-187 -36.5q-45 -10 -87 -18t-74 -13.5t-51.5 -6.5t-19.5 6l-278 -728l-52 -36q-20 0 -24 -19zM630 360.5q-5 14.5 3 34.5l229 598l72 31q8 -10 17.5 -26.5t14.5 -35t6 -37 t-5 -32.5l-205 -537l-53 -37q-16 0 -33 4.5t-29 13.5t-17 23.5zM940 1591l23 -24q0 10 -6.5 17t-16.5 7zM948 1542q8 6 10 12zM958 1554l7 7v4l-2 2v-6zM965 1561q-4 -29 9 -45.5t36 -38.5q4 -6 11 -12.5t15 -16.5q20 8 65.5 41t95.5 74t94 80.5t63 58.5l-148 131z M1028 1446h4h-4zM1032 1446l4 2q-2 0 -2 -2h-2zM1354 1702l4 -4l6 14z" />
<glyph unicode="&#xd4;" horiz-adv-x="1122" d="M111 283q-8 -20 9 -49t50 -61t76 -63.5t87 -56t85 -40t67 -15.5h9q4 0 16 2q-2 0 10 7t31.5 19.5t44.5 27t45 26.5q25 16 49 30l25 15l4 2q57 27 104 46.5t86 35.5q86 35 136.5 60.5t86 69.5t69.5 121t87 216l19 49q6 18 12 36.5t14 39.5l49 125q6 51 4 109.5t-14 109.5 t-38.5 89t-69.5 52q-6 -6 -42 -21.5t-78 -30.5t-78 -27.5t-44 -14.5q-41 -14 -130 -33.5t-185 -36.5q-45 -10 -87 -18t-74 -13.5t-51.5 -6.5t-19.5 6l-278 -728l-52 -36q-20 0 -24 -19zM604 1610l17 6q-10 10 -9 14zM621 1616q14 -16 44.5 -39t66.5 -44.5t71 -37.5t57 -18 q33 23 84 62.5t109 80.5q45 35 86 64.5t57 41.5l53 -2l103 -243l329 174q-12 10 -45.5 27.5t-76.5 38t-93.5 42t-95.5 39t-82 28.5t-55 13zM628 360.5q-5 14.5 3 34.5l229 598l72 31q8 -10 17 -26.5t14.5 -35t6.5 -37t-5 -32.5l-205 -537l-53 -37q-16 0 -33 4.5t-29 13.5 t-17 23.5zM852 1470q2 2 12 7h-4zM1681 1655l9 -8l6 18z" />
<glyph unicode="&#xd5;" horiz-adv-x="1122" d="M111 283q-8 -20 9 -49t50 -61t76 -63.5t87 -56t85 -40t67 -15.5h9q4 0 18 2q-4 -2 7 6t31.5 20.5t45.5 28t45 27.5q25 14 49 28l25 15l4 2q57 27 104 46.5t86 35.5q86 35 136.5 60.5t86 69.5t69.5 122t87 217l19 49q6 16 12 35.5t14 38.5l49 125q6 51 4 109.5t-14 109.5 t-38.5 89t-69.5 52q-6 -6 -42 -20.5t-78 -29.5t-78 -28.5t-44 -15.5q-41 -14 -130 -33.5t-185 -36.5q-45 -8 -87 -16t-74 -13.5t-51.5 -7.5t-19.5 5l-278 -728l-52 -36q-20 0 -24 -19zM606 1616l12 6q-6 8 -6 12zM618 1622q16 -12 66.5 -36.5t109 -48.5t115 -42t86.5 -20 q29 16 53.5 31.5t51.5 31.5l86 53l51 2l104 -114l340 178q-18 14 -68 38.5t-108.5 49t-115 43t-84.5 20.5q-39 -27 -72 -54.5t-62 -51.5q-10 -10 -19 -19.5t-24 -19.5l-53 -4l-119 143zM628 360.5q-5 14.5 3 34.5l231 600l70 29q10 -8 18 -24.5t13.5 -35t6.5 -38t-3 -31.5 l-207 -539l-53 -37q-16 0 -33 4.5t-29 13.5t-17 23.5zM985 1468l7 3.5t5 3.5h-2zM1303 1808h2l8 4q-12 -4 -10 -4zM1681 1657q9 -6 9 -8l6 16z" />
<glyph unicode="&#xd6;" horiz-adv-x="1126" d="M111 283l10 24q4 18 24 19l52 36l278 728q0 -6 19.5 -4.5t51.5 7t74 13.5t87 16q49 8 98 17.5t93 19.5t81 19.5t59 17.5q10 2 42 15.5t69 28.5t68.5 28.5t42.5 19.5q45 -14 73.5 -53t42 -90t15.5 -109.5t-5 -109.5l-49 -125q-8 -18 -14 -38t-12 -36l-19 -49 q-53 -139 -87 -217t-70.5 -122t-87 -69.5t-136.5 -60.5q-39 -16 -86 -35.5t-104 -46.5l-4 -2q-4 -4 -31 -18.5t-55 -32.5q-41 -25 -80 -48.5t-41 -25.5q-16 -2 -18 -2h-5q-41 0 -108.5 32.5t-131 79t-106.5 94.5t-30 79zM630 360.5q5 -14.5 17 -23.5t28.5 -13.5t33.5 -4.5 l53 37l207 539q4 12 3 31.5t-6 38t-13.5 35t-18.5 24.5l-70 -29l-231 -600q-8 -20 -3 -34.5zM667 1588.5q-5 29.5 7 60.5q18 47 70.5 86t105.5 73q96 -16 122.5 -60t-7.5 -134q-10 -27 -30 -50.5t-44.5 -42t-53 -28.5t-55.5 -10q-31 0 -55.5 14t-39.5 38t-20 53.5zM836 1810 l32 9q-6 -4 -10 -6.5t-8 -4.5q-10 0 -14 2zM1311 1590.5q-4 29.5 8 60.5q18 47 70.5 87t105.5 74q94 -18 123 -63t-6 -133q-23 -53 -77 -92t-110 -39q-31 0 -55 14t-39.5 38t-19.5 53.5zM1481 1815l32 8q-12 -8 -18 -11q-10 0 -14 3z" />
<glyph unicode="&#xd7;" horiz-adv-x="829" d="M268 291l123 145l-33 -16q-4 -10 -23.5 -37t-66.5 -92zM342 410q2 2 7 4t9 6q4 8 -4 0t-12 -10zM391 436q51 29 110.5 60.5t112.5 60.5l54 -14q6 -41 37.5 -69t66.5 -44l-16 145l30 48q63 39 68 43l4 4q23 33 37 50t25 34q16 18 28.5 34.5t22.5 30.5l-254 -119l-43 2 l-150 132q10 -35 20.5 -77t20.5 -85l-10 -37zM440 913l84 -79q-8 47 -14 77.5t-4 36.5q-10 -27 -19.5 -31t-46.5 -4zM772 430l4 -51v2q4 10 11.5 21.5t29.5 15.5q-10 0 -21.5 4t-23.5 8zM971 819l57 29h-8q-10 0 -18.5 2t-8.5 14l-2 -4q-4 -10 -9 -20.5t-11 -20.5zM993 864 l4 13l2 8q-6 -12 -6 -21z" />
<glyph unicode="&#xd8;" horiz-adv-x="1126" d="M113 287q-8 -20 9 -50t49 -62t75 -63.5t88 -57t86 -41t67 -15.5h7q4 0 18 2q-2 0 10.5 7t31.5 19.5t44 28t45 27.5q25 16 51 30l25 15l2 2q59 27 106 46.5t86 35.5q86 37 136.5 62.5t87.5 70.5t70.5 124t88.5 220l19 49q8 18 13 37t13 39l50 127q6 53 5 111.5 t-13.5 110.5t-38 91t-68.5 54q-8 -6 -45 -21.5t-79 -31t-78 -29t-42 -15.5q-20 -6 -55 -15t-77 -18.5t-90 -18.5t-95 -17q-47 -10 -89 -18.5t-74 -13.5t-50.5 -6t-18.5 5l-284 -739l-52 -37q-18 0 -26 -21zM633 363.5q-8 9.5 2 37.5l45 115l20 27l93 67l57 -24l-62 -185 l-51 -39q-4 0 -12 -1t-18.5 -3t-16.5 -3t-22 -1q-27 0 -35 9.5zM766 739l102 271l72 30q18 -18 29.5 -57t7.5 -65v-3l-14 -63l-19 -29l-119 -104z" />
<glyph unicode="&#xd9;" d="M152 291q-4 -29 13 -63.5t44 -69.5t56.5 -68t53.5 -57l3 -2q10 -14 17 -19.5t13 -11.5h4q33 0 73 22.5t83 49.5q57 35 112.5 65.5t114.5 30.5q55 0 83 -29.5t50 -64.5q16 -29 37 -51.5t56 -22.5q31 0 89 24.5t118.5 59.5t108.5 74t60 69q6 18 -6 23.5t-28 5.5l-36 4 t-28 9t-12 21.5t8 39.5l227 594l21 26q47 33 69.5 53.5t34.5 55.5l11 22q0 2 -2.5 -2t-2.5 -2q2 -2 0 -2l-4 6l-2 2q-4 8 -14 19.5t-29 38.5q-20 23 -41.5 48t-40 48t-33 41t-18.5 25q-156 -135 -346 -203l-2 -4q0 -6 1 -22.5t3 -34t5 -34t5 -24.5v-23l-229 -598 q-6 -16 -27.5 -32.5t-46 -28.5t-48 -21.5t-34 -13.5t-20.5 -4l-25 35l17 41q8 18 17 40.5t20 49.5l34 92q10 29 21.5 55.5t21.5 53.5q55 137 90 239l2 2q10 29 18.5 52.5t14.5 37.5q14 41 25.5 102.5t8.5 120t-24.5 99.5t-70.5 41q-4 0 -10.5 -1t-10.5 -1h-2 q-10 -6 -24.5 -15.5t-42.5 -27.5l-2 -2q-31 -20 -67 -43t-68.5 -44.5t-58 -36.5t-38.5 -22q12 10 7 7.5t-17 -11t-27.5 -18.5t-21.5 -14q-29 -16 -44.5 -27.5t-25.5 -38.5t4 -27q6 0 16.5 1t20.5 4q12 2 25.5 3t29.5 1l23 -37l-221 -576l-17 -19q-18 -18 -34 -28l-17 -12 l-24 -10q-6 -2 -23.5 -6.5t-21.5 -8.5q-2 -6 -2 -20zM1096 1763l4 2q0 12 2 15zM1100 1765q4 -20 17 -60t31.5 -81t38 -73.5t34.5 -39.5q16 10 30.5 19.5t28.5 17.5q35 16 59.5 32.5t40.5 43.5l-26 274zM1206 1503l4 2q8 4 9 4q-5 0 -13 -6zM1219 1509q2 0 3 1l1 1h-2z M1380 1624l2 -2v2l2 4q0 -2 -2 -3zM1382 1616v2v4v-6zM1384 1628l46 27q-25 0 -33 -8.5t-13 -18.5z" />
<glyph unicode="&#xda;" d="M152 291q-2 -27 13 -58.5t38.5 -64.5t51.5 -63.5t52 -55.5q20 -20 31.5 -32.5t15.5 -16.5h2q33 0 73 22.5t83 49.5q57 35 112.5 65.5t114.5 30.5q55 0 83 -29.5t50 -64.5q16 -29 37 -51.5t56 -22.5q31 0 89 24.5t118.5 59.5t108.5 74t60 69q6 18 -6 23.5t-28 5.5l-36 4 t-28 9t-12 21.5t8 39.5l227 594l21 26q47 33 69.5 53.5t34.5 55.5l8 16h-2v2q-6 6 -18 19.5t-39 54.5q-20 20 -40.5 45t-38 46.5t-30 36.5t-14.5 21q-76 -61 -163 -113t-185 -89l-2 -4q0 -6 1 -21.5t3 -33t5 -34t5 -24.5v-23l-229 -598q-6 -14 -33.5 -31.5t-59.5 -32.5 t-57 -26l-26 -10l-25 35l17 41q8 18 17 40.5t20 49.5l34 92q10 29 21.5 54.5t21.5 54.5q55 137 90 239l2 2q10 29 18.5 52.5t14.5 37.5q14 41 25.5 102.5t8.5 120t-24.5 99.5t-70.5 41q-4 0 -10.5 -1t-10.5 -1h-2q-14 -8 -33.5 -20.5t-52.5 -34.5q-29 -18 -59.5 -38 t-59 -38.5t-52 -32.5t-38.5 -22q4 2 -3 -2.5t-18 -11.5t-24.5 -15t-19.5 -12q-29 -16 -44.5 -27.5t-25.5 -38.5t4 -27q6 0 16.5 1t20.5 4q12 2 25.5 3t29.5 1l23 -37l-221 -576l-17 -19q-18 -18 -34 -28l-17 -12l-24 -10q-6 -2 -23.5 -7.5t-21.5 -9.5q-2 -4 -2 -18z M1104 1661l20 -25q0 10 -5 17.5t-15 7.5zM1110 1614q12 8 12 10zM1122 1624l6 6v4l-4 2q2 -2 2 -6zM1128 1630q-4 -25 9.5 -42t36.5 -38q12 -16 26 -30q23 8 77 46t110.5 81t98.5 78.5t42 37.5l-164 142zM1194 1518q6 0 12 -7q-4 4 -6 9l-2 -1q-2 -1 -4 -1z" />
<glyph unicode="&#xdb;" d="M152 291q-2 -27 13 -58.5t38.5 -64.5t51.5 -63.5t52 -55.5q20 -20 31.5 -32.5t15.5 -16.5h2q33 0 73 22.5t83 49.5q57 35 112.5 65.5t114.5 30.5q55 0 83 -29.5t50 -64.5q16 -29 37 -51.5t56 -22.5q31 0 89 24.5t118.5 59.5t108.5 74t60 69q8 20 -5 24.5t-29 4.5l-36 4 t-28 9t-12 21.5t8 39.5l229 596l19 26q47 33 69.5 53.5t36.5 55.5l6 16h-2v2q-4 6 -16 20.5t-41 55.5q-20 20 -40.5 45t-38 45.5t-30 35.5t-14.5 22q-74 -61 -162 -113.5t-184 -87.5l-4 -6q0 -6 1 -21.5t3 -33t5 -34t5 -24.5v-22l-229 -599q-6 -16 -33.5 -33.5t-59.5 -32.5 t-57 -26l-26 -10l-23 37l15 39q8 20 17 41.5t20 48.5l36 94q10 27 21.5 53.5t21.5 55.5q27 68 49.5 129t40.5 110v2q10 29 19.5 52.5t13.5 38.5q14 41 25.5 102t8.5 119.5t-24.5 100.5t-70.5 42q-4 0 -9.5 -1t-9.5 -1h-2q-14 -10 -33.5 -22.5t-52.5 -32.5q-31 -18 -61.5 -38 t-58 -38t-51 -33.5t-38.5 -23.5q4 2 -3 -2.5t-19 -11.5t-25.5 -15t-19.5 -12q-29 -16 -43 -27.5t-24.5 -38.5t3.5 -27q6 0 15.5 1.5t19.5 3.5q14 2 26.5 3t28.5 1l23 -37l-221 -578l-17 -17q-18 -18 -32 -28l-19 -14l-24 -10q-6 -2 -23.5 -6.5t-21.5 -8.5v-8q0 -2 -2 -12z M686 1585l19 6q-12 10 -11 15zM705 1591q14 -16 44.5 -38.5t65.5 -44t69 -38t56 -18.5q33 25 86 63.5t107 79.5q47 35 85.5 64t57.5 43l51 -4l100 -242l330 174q-14 10 -47 27.5t-76 38t-92 42t-93 39t-81 29t-55 13.5zM932 1446q2 2 14 6h-6zM1757 1630q6 -6 6 -8l6 18z " />
<glyph unicode="&#xdc;" d="M152 291q2 10 2 12v8q4 4 21.5 8.5t23.5 6.5l24 10l17 12q16 12 34 30l17 17l221 578l-23 37q-16 0 -29.5 -2t-25.5 -4q-10 -2 -20.5 -3.5t-16.5 -1.5t-8 6.5t6 22.5q10 27 24.5 38t43.5 28q6 4 21.5 13t27.5 17.5t17.5 11.5t-7.5 -6q12 6 39 21.5t58.5 36t67.5 43 t67 43.5l2 2q29 20 43 29.5t26 15.5h2q4 0 9.5 1t9.5 1q49 0 70.5 -41t24.5 -99.5t-8 -120t-26 -101.5q-6 -16 -14 -39t-19 -52v-2q-18 -49 -40.5 -110.5t-49.5 -128.5q-10 -29 -21 -55.5t-22 -53.5l-36 -94q-10 -27 -19.5 -48.5t-17.5 -41.5l-17 -41l25 -35q10 0 20.5 4 t34 13.5t48 22.5t46 28.5t27.5 33.5l229 599v22q-2 6 -5 22.5t-5 35t-3 35t1 22.5v2q197 72 350 207q10 -12 27.5 -37t48.5 -64q27 -35 50.5 -65.5t33.5 -42.5l6 -6t6 -7q4 -6 11 -4l-11 -22q-12 -33 -34.5 -54.5t-69.5 -54.5l-19 -24l-229 -596q-10 -25 -8 -39.5t12 -21.5 t27.5 -9t36.5 -4q16 0 29.5 -4t4.5 -25q-12 -31 -60 -69.5t-108.5 -73.5t-119 -59.5t-88.5 -24.5q-35 0 -55.5 22.5t-37.5 51.5q-23 35 -50 64.5t-83 29.5q-59 0 -114.5 -31t-112.5 -65q-43 -27 -83 -49.5t-73 -22.5h-4q-6 6 -13 11t-17 20l-3 2q-25 25 -54 57.5t-56 67.5 t-44 69.5t-13 63.5zM798 1627q-5 30 7 59q18 47 69.5 85.5t104.5 73.5q94 -16 120.5 -59t-7.5 -135q-20 -53 -73.5 -92t-107.5 -39q-29 0 -53 15t-39.5 38.5t-20.5 53.5zM965 1847l32 8q-4 -4 -9 -6t-9 -4q-10 0 -14 2zM1435 1629q-3 30 7 59q18 47 69.5 87t106.5 74 q92 -16 119.5 -61t-6.5 -135q-10 -27 -31 -50.5t-45.5 -42t-53 -28.5t-55.5 -10q-31 0 -54.5 15t-38.5 38.5t-18 53.5zM1602 1851l32 9q-12 -8 -16 -11q-12 0 -16 2z" />
<glyph unicode="&#xdd;" horiz-adv-x="901" d="M127 -377l31 25q-12 0 -8 6zM134 199.5q5 -35.5 22.5 -65.5t43 -50.5t52.5 -20.5q4 4 38 22.5t75 41.5q29 16 63.5 35.5t55 31t24.5 13.5l55 -25l-8 -20q-4 -10 -7 -22.5t-9 -24.5q-4 -16 -8.5 -28.5t-8.5 -23.5l-4 -12q-31 -80 -61.5 -132t-71.5 -95t-95 -83t-132 -93 q9 -2 32 -2h29q35 0 89 18.5t116.5 50t126 73.5t119 89t97.5 95t58 94l351 911q0 2 -1 1t-1 1q2 16 1 39.5t-16 34.5l-4 6l-63 110l-209 -110l-4 -2l-86 -37l-43 8l-103 189l-2 20q4 12 4 14q0 4 2 9q12 31 43 49t66 34q10 4 17 8.5t11 4.5q2 27 -9 33t-36 6 q-57 0 -105 -21.5t-87 -58.5t-68.5 -87t-52.5 -108q-25 -63 -33 -116.5t-16 -106.5q-10 -59 -19.5 -120.5t-35.5 -129.5q-23 -59 -47.5 -106t-51.5 -95q-25 -45 -47 -88t-39 -88q-12 -35 -7 -70.5zM520 360l193 502l18 23l49 39l62 -6q6 -37 2 -80t-23 -90l-73 -191 q-6 -18 -13.5 -32.5t-15.5 -29t-12.5 -25.5t-8.5 -24l-16 -38l-6 -13q-57 -70 -131 -69zM895 1653l25 -29q4 10 1 19.5t-26 9.5zM911 1612q0 2 3.5 3t3.5 3l-7 -4v-2zM918 1618l2 2v4v-4zM920 1620q-2 -23 11 -40t36 -38q6 -6 14 -13t16 -18q23 8 69 42t96 74t94 79t63 57 l-158 129zM989 1509q6 0 8 -1t4 -1l-4 4q-2 0 -3 -1t-5 -1zM1001 1507q1 -2 3 -2q-2 0 -3 2zM1092 1169l4 2l6 3q-8 -2 -8 -3zM1319 1763l6 -4l6 17q-6 -2 -12 -13z" />
<glyph unicode="&#xde;" horiz-adv-x="933" d="M142.5 359.5q0.5 11.5 7.5 27.5l14 41q23 53 60.5 98t82.5 92q49 53 96.5 109.5t75.5 130.5q25 66 29 114t8 95v2q0 39 5 81t26 95q39 98 101.5 153.5t156.5 55.5h39h16l-69 -53l-11 -55q14 -10 22.5 -36t10.5 -61t2 -75v-76q-2 -33 -3 -60.5t-1 -48.5l31 -20q14 0 67 28 q27 14 65 36t74.5 40.5t66.5 31.5t42 13q18 0 29.5 -24.5t17.5 -56t6 -62.5t-4 -41l-239 -623q-2 -4 -30 -18t-71 -34.5t-96 -44.5l-106 -48h-2q-47 -23 -89.5 -42.5t-76 -35.5t-55 -28.5t-27.5 -20.5t-16.5 -23.5t-20.5 -27.5l-2 -2q-20 -29 -40 -58.5t-28 -42.5 q-14 -20 -22.5 -34.5t-18.5 -26.5l-2 -2q-10 -14 -13 -18.5t-9 -4.5q-27 0 -35 29t-4 75t16 104.5t27.5 116.5t32 111.5t26.5 88.5q4 10 4 16t4 12l-22 37h-8l-11 2q-4 0 -8 1t-6 1q-29 0 -48.5 -10t-37.5 -23l-4 -2q-14 -10 -16 -10q-10 0 -9.5 11.5zM618 492l5 -25l39 -72 l75 27l154 401v25l-23 37l-57 -2l-45 -37l-21 -23zM860 1454l8 6q-2 -2 -8 -6z" />
<glyph unicode="&#xdf;" horiz-adv-x="1187" d="M41 -160.5q6 56.5 35 133.5l334 871l-25 37q-4 0 -15.5 8t-11.5 12q10 51 12.5 60.5t4.5 15.5q4 12 18.5 27.5t47 46t90 81t149.5 130.5q16 14 28.5 23t32.5 28h127q43 0 75 2t46 6q-4 4 -3 5t18 1h2q20 -8 54 -25.5t77 -39.5q61 -33 124.5 -65t100.5 -42 q16 -10 36.5 -23.5t36 -30t23.5 -37t0 -42.5l-2 -2l-217 -690q-12 -33 -46 -70t-80 -73.5t-99 -71.5t-104.5 -60.5t-95.5 -41t-73 -15.5h-18q-14 14 -23 31q-18 20 -32.5 41.5t-18.5 31.5q39 23 82 55.5t81 70.5t67.5 77t42.5 72q14 37 7 65.5t-38 42.5l-158 70 q14 14 21.5 22.5t12.5 14.5t11 14t18.5 20.5l20.5 20.5t15.5 16.5t15.5 16.5t20 22l60 -34l65 30l99 258l-19 35q-18 2 -26.5 3t-18.5 3q-8 4 -16 4h-15q-16 0 -35.5 -7t-64.5 -23h-2q-16 -6 -32.5 -13.5t-43.5 -17.5l-22 -14q-35 -41 -85 -111t-89 -172q-8 -23 -23.5 -64.5 t-33 -95t-36 -111t-36 -109.5t-29.5 -94t-19 -60l35 -31h4l-22 -55q-10 -27 -37 -64t-62.5 -76t-74.5 -76.5t-76 -68.5t-66.5 -49.5t-44.5 -18.5q-18 0 -35.5 18.5t-24.5 56.5t-1 94.5zM485 78v4h15q2 0 -15 -4zM639 98q8 2 10 8v-4q-4 -4 -10 -4zM723 -2v-2v2zM723 -4l2 -1 t2 -3z" />
<glyph unicode="&#xe0;" horiz-adv-x="1083" d="M135.5 280.5q-10.5 -98.5 44.5 -184.5q10 -18 21.5 -32.5t31.5 -14.5q12 0 31 10.5t42.5 27.5t50 37.5t53.5 41.5q55 43 102 76.5t82 33.5q27 0 36 -23.5t21 -55.5l-2 -2q6 -25 15.5 -50.5t20.5 -47t26.5 -35t33.5 -13.5h9q8 6 45 30.5t82 53.5q51 35 98 66.5t70 50.5 l10 8q10 4 18 7t15 7l2 2q4 2 6 11q4 10 6 25.5t0 15.5q-6 0 -8 -1l-2 -1l-4 -2q-10 -4 -20.5 -8.5t-27.5 -4.5q-29 0 -37 22.5t-5.5 52.5t9.5 56.5t11 34.5l98 256q23 61 43.5 110.5t55.5 110.5l18 19q16 12 32.5 20t33.5 17q14 6 26 13t17 17q10 31 -19 49.5t-61 34.5 q-16 10 -35 20.5t-35 26.5q-18 12 -31.5 32t-25.5 40q-18 27 -35 48.5t-45 21.5q-20 0 -35.5 -7.5t-38.5 -19.5q-8 -4 -22.5 -10t-32.5 -17q-43 -20 -82 -35.5t-74 -27.5q-63 -25 -125.5 -50.5t-119 -59t-103.5 -80t-80 -109.5l-14 -37q-8 -20 -15.5 -37.5t-15.5 -34.5 l-108 -284q-47 -123 -57.5 -221.5zM494 350q16 63 35.5 117.5t39.5 107.5l150 390l33 61l51 29h12l19 -6q10 -12 11 -17.5t5 -15.5l2 -2q2 -6 5 -12.5t3 -8.5l8 -8t9 -10l2 -29l-203 -530q-4 -12 -18.5 -27.5t-32 -31t-32.5 -27t-24 -17.5l-30 -12h-15l-14 6q-28 12 -16 43z M969 1778l6 4v10zM975 1782q4 -20 18.5 -60.5t32.5 -81.5t37.5 -73.5t36.5 -38.5q12 6 25.5 13t23.5 13q37 23 62.5 40.5t45.5 45.5l-28 273zM1087 1522q12 4 15 4l-2 2q-4 -2 -6.5 -3t-6.5 -3zM1257 1640l3 -8l2 6q0 2 6 9l-8 -5zM1260 1632q-2 -8 2 -12zM1268 1647l39 22 q-12 0 -22.5 -7t-16.5 -15z" />
<glyph unicode="&#xe1;" horiz-adv-x="1083" d="M135.5 280.5q-10.5 -98.5 44.5 -184.5q10 -18 21.5 -32.5t31.5 -14.5q12 0 31 10.5t42.5 27.5t50 37.5t53.5 41.5q55 43 102 76.5t82 33.5q27 0 36 -23.5t21 -55.5l-2 -2q6 -25 15.5 -50.5t20.5 -47t26.5 -35t33.5 -13.5h9q8 6 45 30.5t82 53.5q51 35 98 66.5t70 50.5 l10 8q10 4 18 7t15 7l2 2q4 2 6 11q4 10 6 25.5t0 15.5q-6 0 -8 -1l-2 -1l-4 -2q-10 -4 -20.5 -8.5t-27.5 -4.5q-29 0 -37 22.5t-5.5 52.5t9.5 56.5t11 34.5l98 256q23 61 43.5 110.5t55.5 110.5l18 19q16 12 32.5 20t33.5 17q14 6 26 13t17 17q10 31 -19 49.5t-61 34.5 q-16 10 -35 20.5t-35 26.5q-18 12 -31.5 32t-25.5 40q-18 27 -35 48.5t-45 21.5q-20 0 -35.5 -7.5t-38.5 -19.5q-8 -4 -22.5 -10t-32.5 -17q-43 -20 -82 -35.5t-74 -27.5q-63 -25 -125.5 -50.5t-119 -59t-103.5 -80t-80 -109.5l-14 -37q-8 -20 -15.5 -38t-15.5 -34 l-108 -284q-47 -123 -57.5 -221.5zM494 350q16 63 35.5 117.5t39.5 107.5l150 390l33 61l51 29h12l19 -6q10 -12 11 -17.5t5 -15.5l2 -2q2 -6 5 -12.5t3 -8.5l8 -8t9 -10l2 -29l-203 -530q-4 -12 -18.5 -27.5t-32 -31t-32.5 -27t-24 -17.5l-30 -12h-15l-14 6q-28 12 -16 43z M963 1669l24 -27q4 10 1.5 18.5t-25.5 8.5zM979 1628q2 4 6 8l-4 -4zM985 1636v2l2 4l-2 -4v-2zM985 1638q0 -27 11.5 -43t35.5 -34q6 -6 12.5 -15.5t14.5 -19.5q20 6 65 38.5t96.5 74.5t96.5 82t63 61l-151 131zM1057 1526q2 0 3 -1l1 -1q0 2 -2 2h-2zM1061 1524q0 -2 2 -2 q4 0 4 -4l4 -2q-2 8 -10 8zM1380 1782l4 -4l7 14q-4 -2 -5.5 -4t-5.5 -6z" />
<glyph unicode="&#xe2;" horiz-adv-x="1081" d="M135.5 281.5q-10.5 -99.5 44.5 -185.5q10 -18 21.5 -32.5t31.5 -14.5q12 0 31 10.5t42.5 27.5t50 37.5t51.5 41.5q55 43 102 76.5t82 33.5q27 0 36 -22.5t21 -56.5l-2 -2q6 -23 15.5 -48.5t20.5 -47t26.5 -36t33.5 -14.5h9q10 6 46 31.5t83 54.5q49 33 96 64.5t70 50.5 l10 8q10 4 17 7t16 7l2 2q4 2 8 12.5t5 25t-3 14.5t-6 -1l-2 -1l-4 -2q-10 -4 -20.5 -8.5t-27.5 -4.5q-29 0 -37 23.5t-4.5 52.5t10.5 56.5t9 33.5l98 258q25 61 45.5 110.5t55.5 112.5l16 17q16 12 32.5 20t35.5 19q14 6 25 12t15 16q12 31 -17.5 50.5t-59.5 35.5 q-18 8 -36 18.5t-34 29.5q-18 12 -32.5 31.5t-26.5 39.5q-16 27 -34 47.5t-46 20.5q-18 0 -34.5 -7.5t-39.5 -17.5q-8 -4 -21.5 -11t-31.5 -17q-45 -18 -83 -34t-75 -30q-63 -25 -125.5 -50.5t-118 -59t-102.5 -79.5t-80 -110l-14 -37q-8 -20 -15.5 -38t-13.5 -34l-110 -284 q-47 -123 -57.5 -222.5zM494 352q16 61 35.5 116.5t39.5 109.5l152 391l33 59l47 31h14l16 -8q12 -12 13.5 -17.5t5.5 -13.5l2 -2q4 -6 6 -13.5t4 -9.5q4 -6 5 -8t10 -10l2 -29l-205 -532q-4 -12 -18.5 -27.5t-32 -31t-33 -27t-21.5 -17.5l-30 -10h-13l-16 4q-28 12 -16 45z M575 1569l13 6q-2 4 -4 7t-2 5zM588 1575q12 -14 40.5 -36.5t63.5 -45.5t68 -40t55 -19q31 20 78 57t96 75t89 70.5t57 44.5l59 -2l92 -239l348 192q4 2 -23.5 16.5t-72.5 33t-102.5 40t-109.5 40t-93 29.5t-57 11q-2 0 -1 -1t-1 -1zM807 1427q2 2 12 7h-4z" />
<glyph unicode="&#xe3;" horiz-adv-x="1077" d="M135.5 281.5q-10.5 -99.5 42.5 -185.5q10 -18 22.5 -32.5t32.5 -14.5q12 0 31 10.5t42.5 27.5t49 37.5t52.5 41.5q53 43 100 76.5t82 33.5q27 0 36 -22.5t21 -56.5l-2 -2q6 -23 15.5 -48.5t20.5 -47t26.5 -36t33.5 -14.5h9q8 6 44.5 31.5t82.5 54.5q51 33 97 64.5 t68 50.5l11 8q10 4 18 7t14 7l2 2q4 2 7 11q4 10 6 25.5t0 15.5q-4 0 -7 -1l-3 -1l-5 -2q-10 -4 -20 -8.5t-27 -4.5q-29 0 -36 23.5t-5 52.5t9.5 56.5t9.5 33.5l98 258q25 61 46.5 110.5t56.5 110.5l14 19q16 12 32.5 20t34.5 17q14 8 26.5 14t16.5 16q12 31 -17.5 50.5 t-61.5 35.5q-18 8 -36 18.5t-34 29.5q-18 12 -31.5 30.5t-25.5 40.5q-16 27 -34 47.5t-46 20.5q-18 0 -34.5 -7.5t-39.5 -17.5q-8 -4 -21.5 -11t-31.5 -17q-43 -18 -82 -35t-74 -29q-63 -25 -125.5 -50.5t-119 -59t-102.5 -79.5t-79 -110l-14 -37q-8 -20 -15.5 -38 t-13.5 -34l-110 -284q-47 -123 -57.5 -222.5zM492 352q16 61 35.5 116.5t39.5 109.5l152 391l33 59l47 29h14l16 -6q12 -12 13.5 -17.5t5.5 -13.5l4 -2q4 -18 8 -23q4 -6 5 -8t9 -10l3 -29l-205 -532q-4 -12 -18.5 -27.5t-31 -31t-32 -27t-23.5 -17.5l-30 -10h-13l-16 4 q-28 12 -16 45zM580 1622l12 6q-6 6 -6 12zM592 1628q18 -12 69.5 -36.5t109.5 -49t113.5 -43t84.5 -20.5q23 16 47 30.5t49 30.5q29 16 59 36l31 21l55 5l109 -117l338 178q-18 14 -68.5 38.5t-110 49.5t-115.5 43t-85 21q-37 -27 -70.5 -55.5t-62.5 -51.5 q-10 -10 -18.5 -19.5t-22.5 -19.5l-55 -4l-119 143zM958 1473q4 2 7.5 3t5.5 3h-2l-6 -4zM1276 1815h2q2 0 2 2q0 -2 -4 -2zM1657 1663l6 -8l6 16z" />
<glyph unicode="&#xe4;" horiz-adv-x="1083" d="M135 280.5q10 98.5 58 221.5l110 286q6 16 13.5 34t15.5 36l14 39q33 63 80 109.5t103.5 80t119 59t125.5 50.5q35 12 74 27.5t82 36.5q18 10 32.5 16t22.5 10q23 12 38 19.5t36 7.5q29 0 46 -21.5t34 -48.5q12 -20 26.5 -39.5t32.5 -32.5q16 -16 33.5 -27t36.5 -20 q31 -16 59.5 -35.5t18.5 -48.5q-4 -12 -15.5 -18t-27.5 -12l-33 -16.5t-33 -22.5l-16 -17q-35 -63 -56.5 -112t-44.5 -109l-98 -258q-2 -6 -9 -33.5t-10.5 -56.5t5 -52.5t36.5 -23.5q16 0 26.5 4t21.5 9l4 2l2 1t8 1q2 0 0 -15.5t-6 -25.5q-2 -8 -6 -11l-2 -2 q-6 -4 -14.5 -7t-18.5 -7l-10 -8q-23 -18 -70 -50t-98 -65q-45 -29 -82 -54.5t-45 -31.5h-9q-18 0 -33.5 13.5t-26.5 35t-20.5 47t-15.5 50.5l2 2q-12 35 -21 57t-36 22q-35 0 -82 -33.5t-102 -76.5q-27 -20 -53.5 -41t-50 -38t-42 -27.5t-31.5 -10.5q-20 0 -31.5 14.5 t-21.5 32.5q-55 86 -45 184.5zM494 352q-12 -33 16 -45l16 -4h15l28 10q8 6 23.5 17.5t33 27t32 30.5t18.5 28l205 532l-4 27q-6 10 -8.5 12t-6.5 8q-2 2 -4 8.5t-6 12.5v2q-6 8 -7 14t-11 19l-19 6h-12l-51 -31l-33 -59l-150 -389q-20 -53 -39.5 -109t-35.5 -117zM659 1625 q-5 30 7 61q18 47 69 85.5t107 73.5q94 -16 121.5 -60t-7.5 -134q-20 -53 -74.5 -92t-109.5 -39q-29 0 -53.5 14t-39.5 37.5t-20 53.5zM825 1847l33 8q-12 -8 -16 -10q-12 0 -17 2zM1304 1627q-5 30 7 61q18 47 70.5 85.5t105.5 73.5q94 -16 122.5 -60t-5.5 -134 q-10 -27 -31 -50.5t-45.5 -42t-53 -28.5t-55.5 -10q-31 0 -55.5 14t-39.5 37.5t-20 53.5zM1473 1849l30 9q-4 -4 -8 -6.5t-8 -4.5q-12 0 -14 2z" />
<glyph unicode="&#xe5;" horiz-adv-x="1083" d="M135 280.5q10 98.5 58 221.5l110 286q6 16 13.5 33t15.5 37l14 39q33 63 80 108.5t103.5 79t119 59t125.5 50.5q35 12 74 28.5t82 34.5q18 10 32.5 17.5t22.5 11.5q23 10 38 17.5t36 7.5q29 0 46 -20.5t34 -47.5q12 -20 26.5 -39.5t32.5 -32.5q16 -18 33.5 -28t36.5 -19 q31 -16 59.5 -35.5t18.5 -50.5q-4 -10 -15.5 -16t-27.5 -12q-16 -8 -33 -17.5t-33 -21.5l-16 -17q-35 -63 -56.5 -112t-44.5 -109l-98 -258q-4 -8 -11 -34.5t-9.5 -56.5t6 -52.5t36.5 -22.5q16 0 26.5 4t21.5 9l4 2l2 1q2 1 8 1q2 0 0 -15.5t-6 -25.5q-2 -8 -6 -11l-2 -2 q-6 -4 -14.5 -7t-18.5 -7l-10 -8q-23 -18 -70 -50t-98 -67q-45 -29 -82 -53.5t-45 -30.5h-9q-18 0 -33.5 13.5t-26.5 35t-20.5 47t-15.5 50.5l2 2q-12 33 -21 56t-36 23q-35 0 -82 -33.5t-102 -76.5q-27 -20 -53.5 -41t-50 -38t-42 -27.5t-31.5 -10.5q-20 0 -31.5 14.5 t-21.5 32.5q-55 86 -45 184.5zM494 352q-12 -33 16 -45l16 -4h15l28 10q8 6 23.5 17.5t33 27t32 30.5t18.5 28l205 532l-4 27q-6 8 -8.5 10t-8.5 8q0 6 -8 23v2q-6 8 -7 13t-11 18l-19 8h-12l-51 -31l-33 -59l-150 -389q-20 -53 -39.5 -109t-35.5 -117zM850 1532l6 6 q0 -6 -6 -6zM856 1538l4 4v-2zM860 1540l41 29l103 264l34 -8q35 -8 82 0q43 6 80 11t53 9q4 0 21.5 4t37 8.5t38 9.5t22.5 9q41 -8 54.5 -43t11.5 -66l-15 -41q-4 -6 -4 -12t-4 -12l-8 -23q-16 -43 -27.5 -67.5t-26 -37.5t-35 -20.5t-54.5 -17.5q-20 -6 -43 -13t-47 -16 q6 0 -14.5 -8t-37.5 -14h-2q-16 -10 -30.5 -17.5t-10.5 -7.5l-12 -2h-6q-20 0 -56 9.5t-69 22.5t-56.5 27.5t-19.5 22.5zM1085 1581q-10 -25 10.5 -39t43.5 -14l51 37l78 198q4 10 -6.5 34t-28.5 32l-66 -35z" />
<glyph unicode="&#xe6;" horiz-adv-x="1654" d="M136.5 285.5q-13.5 -101.5 39.5 -189.5q12 -16 22.5 -31.5t30.5 -15.5q10 0 28.5 11.5t42.5 27.5t49.5 37.5t49.5 42.5q55 45 101.5 79t81.5 34q27 0 35 -24t18 -58v-2q6 -25 14 -50.5t18.5 -47t25 -36t32.5 -14.5h10q20 14 51 35.5t76 52.5h49q41 -59 92.5 -98 t106.5 -39q23 0 75 21.5t116.5 54.5t133 73.5t128 79.5t100.5 73t47 50.5t-24 16.5q-27 0 -50.5 -5.5t-48.5 -11.5q-29 -10 -56.5 -16t-62.5 -6t-76.5 13t-74.5 38t-49.5 59.5t2.5 79.5q16 45 50 78t78 58.5t96 46t105 40.5q49 18 97.5 37t89.5 41.5t70.5 49t44.5 61.5 q2 4 3 13t3 18l2 4l-88 352q0 -2 -7.5 3t-13.5 11h-2q-6 4 -10 5t-8 5h-6q-31 0 -87.5 -15t-127 -41.5t-147.5 -61.5t-144 -72l-39 -2q-4 2 -8 6q-10 4 -17.5 9t-15.5 18q-39 33 -62 78q-16 27 -31.5 48t-41.5 21q-20 0 -37 -8t-37 -18q-10 -4 -22.5 -11.5t-32.5 -17.5 q-41 -18 -80 -34.5t-72 -29.5q-61 -25 -123.5 -51t-118 -60t-101.5 -81t-79 -111l-14 -39q-8 -20 -15.5 -37.5t-13.5 -33.5l-110 -289q-47 -123 -60.5 -224.5zM487 356q33 121 76 230l152 395l35 59l47 31h14l16 -6q10 -12 11 -18q0 -6 6 -15l2 -2q8 -16 8 -20q4 -8 5 -10.5 t9 -10.5l2 -28l-206 -539q-4 -12 -18.5 -27.5t-31 -31t-33 -27.5t-24.5 -19l-27 -10h-12l-18 4q-27 12 -13 45zM1321 741l90 236l76 16q0 -4 4 -17t8 -28.5t8 -29t6 -17.5l3 -8q4 -16 6 -46t-2 -40q-6 -18 -28 -33.5t-46.5 -29t-47 -22.5l-32.5 -13t-12 -4h-11zM1821 1319 l2 2z" />
<glyph unicode="&#xe7;" horiz-adv-x="962" d="M124 247q11 -46 38.5 -90t67.5 -81t83 -58l13 -12q12 -43 42.5 -89t61.5 -83l-29 -59q-20 -10 -42.5 -16.5t-45.5 -10.5q-35 -8 -65.5 -19.5t-44.5 -33.5q-6 -49 33.5 -76t111.5 -31l82 19q27 20 46.5 36.5t31.5 32t21.5 33t19.5 41.5q33 84 2 138.5t-96 80.5l20 66 q18 10 40 20.5t44 22.5q49 25 103.5 53.5t102.5 53t87 45t57 30.5q6 4 15 8q35 18 46 27.5t21 34.5q4 12 4 20q0 10 -10 10q-20 0 -41.5 -5t-42.5 -9q-29 -8 -59.5 -15t-59.5 -7q-31 0 -74.5 11t-80.5 32.5t-56.5 54.5t-3.5 76l178 465l80 18q2 -10 3 -21.5t3 -27.5 q0 -20 3.5 -44t9.5 -44.5t18 -33.5t31 -13q20 0 70.5 11t104.5 31.5t100 46t59 56.5q-2 -2 0 10q-4 10 -9.5 45t-10.5 77t-9 79t-4 51q-6 6 -12 39q-4 27 -13.5 55.5t-19.5 28.5q-4 0 -6 -1t-4 -1h-2q-33 -10 -107 -33.5t-156.5 -48t-157.5 -47t-108 -31.5 q-27 -10 -60.5 -24.5t-64 -32.5t-55.5 -38.5t-33 -41.5l-268 -698q-14 -37 -3 -83z" />
<glyph unicode="&#xe8;" horiz-adv-x="995" d="M143.5 266.5q14.5 -69.5 54.5 -129t97 -99.5t121 -40q23 0 75 20.5t118.5 54t137 73.5t131 78t102.5 71t48 49q8 16 -22 16q-29 0 -54.5 -5t-50.5 -11q-29 -10 -57.5 -15t-63.5 -5q-37 0 -80 12t-77.5 36.5t-52 59.5t-1 78t50 75.5t78.5 58.5t99.5 46.5t109.5 38.5 q49 18 98.5 36.5t91.5 40t72.5 47.5t42.5 58q2 6 5.5 18.5t7.5 20.5l-97 344q-2 0 -6 4h-2q-10 4 -23.5 11.5t-17.5 9.5h-8q-29 0 -88 -14.5t-131 -39t-149.5 -57t-144 -69.5t-115 -75t-62.5 -73l-229 -596q-23 -59 -8.5 -128.5zM618 727l91 231l77 17q0 -4 3.5 -17.5 t8.5 -29t9 -27.5t6 -16v-8q2 -6 5 -19.5t4 -28t2 -24.5t1 -12q-6 -18 -28.5 -34t-48 -29t-49 -22.5t-35.5 -13.5q-8 -4 -11 -4h-12zM905 1780l6 4q0 4 -1 7t1 5zM911 1784q4 -20 18.5 -59t34 -79t39 -74t35.5 -42q16 10 28.5 18t25.5 13q35 20 60.5 37.5t41.5 41.5l-29 275z M1030 1526q2 2 10 2q-2 0 -1 1t-1 1zM1126 1298l2 -4q2 0 -2 4zM1194 1640l4 -6l2 6l4 7l-4 -2q0 -2 -3 -3zM1198 1634q0 -6 2 -10zM1204 1647l41 24q-12 0 -23.5 -7t-17.5 -17z" />
<glyph unicode="&#xe9;" horiz-adv-x="995" d="M143.5 266.5q14.5 -69.5 54.5 -129t97 -99.5t121 -40q23 0 75 20.5t118.5 54t137 73.5t131 78t102.5 71t48 49q8 16 -22 16q-29 0 -54.5 -5t-50.5 -11q-29 -10 -57.5 -15t-63.5 -5q-37 0 -80 12t-77.5 36.5t-52 59.5t-1 78t50 75.5t78.5 58.5t99.5 46.5t109.5 38.5 q49 18 98.5 36.5t91.5 40t72.5 47.5t42.5 58q2 6 5.5 18.5t7.5 20.5l-97 344q-2 0 -6 4h-2q-10 4 -23.5 11.5t-17.5 9.5h-8q-29 0 -88 -14.5t-131 -39t-149.5 -57t-144 -68.5t-115 -74t-62.5 -73l-229 -598q-23 -59 -8.5 -128.5zM618 727l91 231l77 17q0 -4 3.5 -17.5 t8.5 -29t9 -28.5t6 -15v-8q2 -6 5 -19.5t4 -28t2 -24.5t1 -12q-6 -16 -35.5 -34t-62.5 -33t-59 -26l-27 -10zM909 1667l27 -27q4 10 0 18.5t-27 8.5zM930 1628q4 4 4 6l-2 -4zM934 1634l2 2v4v-4zM936 1636q-4 -27 9 -43t36 -32q8 -8 13 -17.5t16 -19.5q18 6 63 38.5 t95.5 73.5t96.5 81t66 61l-153 133zM1008 1524q2 0 2 -2q2 2 0 2h-2zM1010 1522q6 -6 6 -4l6 -2q-6 6 -12 6zM1126 1298l2 -4q2 0 -2 4zM1331 1778l6 -2l6 16q-4 -4 -6 -7t-6 -7z" />
<glyph unicode="&#xea;" horiz-adv-x="980" d="M143.5 266.5q14.5 -69.5 53.5 -129t95 -99.5t118 -40q23 0 75 20.5t117.5 54t135 73.5t130 78t101.5 71t47 49q8 18 -23 18q-29 0 -53.5 -5t-48.5 -13q-29 -10 -57.5 -15t-63.5 -5t-78 12t-76.5 36.5t-50 59.5t-0.5 78q16 45 50 78t78 58.5t96.5 46t107.5 38.5 q49 16 98 34.5t90 40t72 48.5t43 59q4 6 6 17.5t6 21.5l-92 344q-6 0 -6 4h-2q-10 4 -22.5 12.5t-16.5 10.5h-6q-29 0 -87 -14.5t-130 -40t-148.5 -58t-143 -68.5t-115 -75t-62.5 -74l-229 -598q-23 -59 -8.5 -128.5zM489 1591l21 6q-12 12 -12 15zM510 1597 q14 -14 45 -36.5t66.5 -44t70.5 -38t58 -18.5q16 12 41.5 30.5t56.5 42t63.5 48.5t63.5 47q35 29 64.5 50.5t43.5 31.5l54 -2l100 -244l334 172q-12 10 -46 28.5t-78 39t-93 42t-95.5 39t-83 29t-55.5 13.5zM616 729l89 232l75 16q0 -4 4 -17.5t8.5 -29t8.5 -28.5t6 -17 l2 -6q2 -6 3 -19.5t3 -28t2 -24.5v-12q-6 -16 -34.5 -34t-60.5 -33t-58 -26l-25 -10zM741 1454q2 2 13 6h-4l-7 -4zM1120 1296q2 0 0 4v-4zM1571 1636l6 -8l8 19z" />
<glyph unicode="&#xeb;" horiz-adv-x="995" d="M143.5 266.5q-14.5 69.5 8.5 128.5l229 598q14 35 62.5 73t116 75t145 69.5t149.5 57t131 39t88 14.5h8q2 -2 15.5 -9t25.5 -12h2q0 -4 4 -4l95 -346q-4 -8 -5 -19t-6 -18q-12 -33 -41.5 -59.5t-71.5 -48t-91.5 -38.5t-98.5 -36q-55 -18 -109.5 -38.5t-99.5 -46 t-79.5 -58.5t-51.5 -78q-16 -43 1.5 -78t52 -59.5t77.5 -36.5t80 -12q35 0 63.5 5t57.5 15q25 6 50.5 12t54.5 6q31 0 22 -18q-6 -16 -48 -48t-102.5 -71t-131 -79t-137 -72.5t-119 -54t-74.5 -21.5q-63 0 -120.5 40t-97.5 99.5t-54.5 129zM618 727l25 -35h12t11 4 q10 4 33.5 13.5t49 22.5t48 28.5t28.5 34.5v12t-2 24.5t-4 27.5t-4 20l-2 6q-4 4 -8 17t-8 28.5t-7.5 29t-3.5 17.5l-77 -16zM641 1629q-4 30 6 59q18 47 70.5 87t107.5 74q94 -18 124 -63t-5 -133q-10 -27 -30.5 -50.5t-46 -42t-54.5 -28.5t-55 -10q-31 0 -56.5 15 t-41 38.5t-19.5 53.5zM811 1851l33 9q-12 -8 -19 -11q-10 0 -14 2zM1128 1296v4q2 -4 0 -4zM1231 1629q-4 30 6 59q18 47 71.5 87t108.5 74q96 -16 124 -60t-7 -136q-23 -53 -77 -92t-109 -39q-31 0 -55.5 15t-41 38.5t-20.5 53.5zM1401 1851l33 9q-12 -8 -17 -11 q-12 0 -16 2z" />
<glyph unicode="&#xec;" horiz-adv-x="716" d="M205 197l229 598l-24 36q-10 0 -30 9.5t-24 13.5l-4 4q-8 6 -12 23l338 229q6 4 18.5 11t22.5 7q16 0 37 -26l157 -225q-6 -16 -21 -28.5t-34 -25.5q-37 -27 -77 -60.5t-64 -98.5q-8 -20 -23.5 -74.5t-33 -114t-31 -113t-15.5 -71.5l33 -31q10 2 15 2h14q41 0 29 -33 q-6 -16 -32 -39.5t-63 -50t-79 -51.5t-81.5 -45t-73.5 -32.5t-52 -12.5q-23 0 -47.5 23.5t-43 55.5t-27.5 65.5t-1 54.5zM332 874q4 4 5 6.5t3 4.5l-1 -1q-1 -1 1 -3zM711 1628l6 14v-12zM717 1630l266 133l33 -276q-16 -25 -43 -42.5t-64 -33.5q-24 -14 -57 -37 q-16 6 -37.5 40t-41 75t-36 81t-20.5 60zM834 1366q8 6 14 6q-2 -2 -4 -2t-6 -2zM848 1372l4 2h2l-2 -1t-4 -1zM1016 1487l2 1q2 1 4 5l-2 -6l-2 -2zM1018 1479v6l2 -4zM1022 1493q4 10 12 18.5t35 8.5z" />
<glyph unicode="&#xed;" horiz-adv-x="716" d="M205 197q-8 -20 1 -54t27.5 -66t43 -55.5t47.5 -23.5q18 0 52 12.5t73.5 32.5t81.5 45t79 51.5t62.5 50t32.5 39.5q12 33 -29 33h-14q-4 0 -15 -2l-33 31q2 18 15.5 71.5t31 113t33 113.5t23.5 75q25 66 64.5 99.5t76.5 59.5q18 12 33.5 24.5t21.5 29.5l-157 225 q-18 25 -39 24q-10 0 -21.5 -6t-17.5 -10l-338 -229q4 -16 12 -23l4 -4q4 -4 23.5 -13.5t30.5 -9.5l24 -36zM332 874l8 7q-2 2 -1 3l1 1q-2 -2 -3 -4t-5 -7zM659 1526l27 -27q4 10 1 18.5t-28 8.5zM678 1485q4 4 4 6l-2 -4zM682 1491l2 2l2 6l-2 -6zM684 1493 q0 -23 13.5 -41t37.5 -37q6 -6 14.5 -14t16.5 -19q20 8 67.5 42t98.5 74t97 79t67 59l-162 133zM760 1380q4 0 5 -1t3 -1l-2 4q-2 0 -3 -1t-3 -1zM768 1378q2 -2 4 -2q-2 0 -4 2zM1096 1636l4 -2l6 15q-4 -4 -5 -6.5t-5 -6.5z" />
<glyph unicode="&#xee;" horiz-adv-x="684" d="M199 143q8 -34 25.5 -66t40 -55.5t44.5 -23.5q18 0 50 12.5t71 32.5t80 46t76 51.5t60.5 49t31.5 41.5q12 31 -27 31q-16 0 -26 -2l-33 31q2 18 16.5 71.5t31.5 114t34.5 113.5t25.5 76q25 66 62 99.5t74 59.5q18 12 32.5 24.5t22.5 29.5l-150 225q-14 27 -34 26 q-10 0 -20.5 -6t-16.5 -10l-330 -231q4 -16 12 -23l2 -4q4 -4 23.5 -13t28.5 -9l22 -37l-229 -600q-8 -20 0 -54zM324 1442l14 4l-6 14zM332 877l8 6v4q0 -2 -8 -10zM338 1446q12 -12 37.5 -33.5t55.5 -43t60.5 -38t51.5 -18.5q27 18 71.5 53t91 72t86 69.5t56.5 44.5l57 -4 l84 -229l318 180q2 4 -21.5 17.5t-62.5 33t-87.5 40t-95.5 39t-86 30.5t-59 12q4 0 18 8l-14 -6l-6 -2zM535 1307q2 2 14 6h-6z" />
<glyph unicode="&#xef;" horiz-adv-x="692" d="M201 142.5q-8 33.5 0 54.5l229 600l-22 37q-10 0 -30 9t-24 13l-2 4q-8 6 -12 23l330 229q8 4 18 11t21 7q16 0 36 -26l150 -225q-8 -16 -21.5 -28.5t-33.5 -27.5q-35 -25 -73 -59.5t-65 -99.5q-8 -23 -24 -76t-33.5 -113.5t-32 -113t-16.5 -72.5l33 -29q10 2 14 2h12 q41 0 29 -31q-10 -27 -59.5 -66.5t-109.5 -76.5t-117.5 -63.5t-84.5 -26.5q-23 0 -46 23.5t-40.5 55.5t-25.5 65.5zM332 877q8 8 8 10v-4zM453 1473.5q-4 29.5 6 58.5q18 47 70.5 87t105.5 75q98 -16 127 -60.5t-6 -134.5q-20 -53 -75.5 -93t-111.5 -40q-31 0 -55.5 15.5 t-40.5 39t-20 53zM623 1696l30 8q-8 -8 -18 -10q-10 0 -12 2zM986 1475.5q-5 29.5 7 60.5q18 47 70.5 86t107.5 74q96 -16 125 -60.5t-6 -134.5q-10 -27 -30.5 -51.5t-46 -42.5t-55.5 -28.5t-56 -10.5q-31 0 -55.5 15.5t-40 39t-20.5 53zM1155 1698l33 8q-12 -8 -17 -10 q-10 0 -16 2z" />
<glyph unicode="&#xf0;" horiz-adv-x="995" d="M176 371l94 -353q2 4 10.5 -2t16.5 -10h2l10 -5t6 -5h9q31 0 90 14.5t131.5 40t151.5 58t145.5 69.5t115 76t62.5 74l233 608q16 41 11.5 89t-23.5 95l12 37q-4 -2 2.5 3t14.5 16q27 29 44 48t32 38l-129 -41l-35 6q-37 51 -86 81.5t-103 30.5q-25 0 -77 -21.5 t-118.5 -55t-138 -74.5t-132 -80t-102.5 -71.5t-48 -49t24 -16.5q27 0 51.5 5t47.5 11h2q29 8 59.5 15.5t65.5 7.5q37 0 66.5 -8.5t58.5 -22.5l2 -53l-92 -95l-15 -12q70 41 112 67.5t60 43.5q43 -43 19 -111q-18 -45 -53 -78.5t-81.5 -59.5t-99.5 -46.5t-108 -38.5 q-49 -18 -99.5 -36.5t-92.5 -41t-72.5 -49.5t-45.5 -61q-2 -4 -3 -13.5t-3 -17.5zM270 16h2l-2 2v-2zM578 530q6 14 35.5 33t62.5 35t60 26l26 11l22 -37l-90 -236h-76l-2 -6t-2 -10v2q-2 8 -5 20.5t-7 27t-8 25.5t-6 17l-2 8q-4 16 -7.5 46t-0.5 38zM1346 1262l45 14h-2 q-4 0 -10.5 6t-10.5 12q-6 -10 -11 -17t-11 -15z" />
<glyph unicode="&#xf1;" d="M131 252l1 1q1 1 3 1v2l2 6zM135 254q-4 -10 8.5 -28.5t18.5 -28.5v-9l155 -188h21l35 20q35 21 84 49.5t101 59.5t89 53l39 29l4 12v25q0 18 -4 24v23l256 666l21 24l45 35l47 4l37 -35l8 -28l-305 -797q-8 -23 2 -51.5t30.5 -56t43 -46t38.5 -18.5q6 0 12.5 2t9.5 4 l3 2l334 195q10 4 17 7t13 7q27 14 37.5 22.5t18.5 30.5q10 29 -9.5 42t-46.5 24l-12 34l230 599l34 30q10 4 32 23.5t34 34.5q-18 29 -33 47l-96 98q-4 2 -14.5 16.5t-23.5 35t-25.5 41t-20.5 32.5q-4 4 -1 3t1 1q-20 0 -49 -12.5t-63 -30.5t-69.5 -40.5t-70.5 -45.5 q-49 -31 -94 -57.5t-80 -42.5l-45 12q-6 29 -15.5 65.5t-24.5 70.5t-39 56.5t-56 22.5h-6q-45 -16 -96.5 -45t-101.5 -63.5t-96 -69.5t-81 -64q-4 -4 -5 -9t-3 -9q-8 -18 5 -22.5t27 -6.5q18 -2 35 -4t27 -10t12 -21.5t-6 -35.5l-229 -599l-23 -26q-2 -2 -9 -6t-16 -11 q-25 -16 -57.5 -37.5t-38.5 -27.5zM680 1638l14 7q-10 8 -6 12zM694 1645q16 -12 65.5 -37t108 -49.5t113.5 -43t84 -20.5q25 16 51.5 31.5t54.5 32.5q25 16 47.5 30.5t36.5 24.5l52 2l104 -115l336 176q-18 14 -67.5 39t-108 49.5t-113.5 44t-84 21.5q-35 -25 -68.5 -54.5 t-62.5 -54.5q-8 -8 -20.5 -17t-22.5 -19l-53 -5l-117 144zM1057 1487q2 2 12 8h-4l-6 -4zM1372 1831h2q4 0 8 4q-8 -4 -10 -4zM1616 1049q0 -5 2 -5q-2 0 2 11q-4 -4 -4 -6zM1747 1677q8 -6 8 -8l6 17z" />
<glyph unicode="&#xf2;" horiz-adv-x="1126" d="M111 283q-8 -20 9 -49t50 -61t76 -63.5t88 -56t86 -40t67 -15.5h5q2 0 18 2q2 2 41 25.5t80 48.5q29 18 55.5 32.5t30.5 18.5l4 2q57 27 104 46.5t86 35.5q86 35 136.5 59.5t87 68.5t70.5 122t87 217l19 49q6 18 12 36.5t14 37.5l49 127q6 51 4.5 108.5t-16 108.5t-42 90 t-72.5 53q-10 -6 -42 -19.5t-69 -28.5t-69.5 -27.5t-41.5 -14.5q-23 -10 -59.5 -19.5t-80.5 -18.5t-93 -19.5t-98 -18.5q-45 -8 -87 -16t-75 -13.5t-51.5 -6.5t-18.5 6l-278 -728l-52 -36q-20 0 -24 -19zM630 360.5q-5 14.5 3 34.5l229 598l72 29q8 -8 17.5 -24.5t14.5 -35 t6 -37t-5 -32.5l-207 -539l-51 -35q-16 0 -33 4.5t-29 13.5t-17 23.5zM905 1733l6 4q-4 8 0 12zM911 1737q4 -20 18.5 -59.5t33 -79t38 -73.5t33.5 -42q16 10 28.5 17t27.5 13q35 20 61.5 38t42.5 42l-29 275zM1024 1477q2 0 2 2q0 -2 -2 -2zM1026 1479q2 0 6 1t8 1h-4 q0 2 -2 2zM1194 1585v2v4v-6zM1194 1591l2 2v4q0 -2 -1 -3l-1 -1v-2zM1196 1597l45 27q-25 0 -33 -8t-12 -19z" />
<glyph unicode="&#xf3;" horiz-adv-x="1126" d="M111 283q-8 -20 9 -49t50 -61t76 -63.5t88 -56t86 -40t67 -15.5h7q4 0 20 2q-4 -2 7 6t31.5 20.5t45.5 27t45 26.5q25 16 49 30l25 15l4 2q57 27 104 46.5t86 35.5q86 35 136.5 60.5t87 69.5t70.5 121t87 216l19 49q6 18 12 36.5t14 39.5l49 125q6 51 4.5 109.5 t-14 109.5t-39 89t-69.5 52q-8 -6 -44 -21.5t-78 -30.5t-78 -27.5t-44 -14.5q-41 -14 -130 -33.5t-187 -36.5q-45 -10 -87 -18t-74 -13.5t-51.5 -6.5t-19.5 6l-278 -728l-52 -36q-20 0 -24 -19zM630 360.5q-5 14.5 3 34.5l229 598l72 31q8 -10 17.5 -26.5t14.5 -35t6 -37 t-5 -32.5l-205 -537l-53 -37q-16 0 -33 4.5t-29 13.5t-17 23.5zM940 1591l23 -24q0 10 -6.5 17t-16.5 7zM948 1542q8 6 10 12zM958 1554l7 7v4l-2 2v-6zM965 1561q-4 -29 9 -45.5t36 -38.5q4 -6 11 -12.5t15 -16.5q20 8 65.5 41t95.5 74t94 80.5t63 58.5l-148 131z M1028 1446h4h-4zM1032 1446l4 2q-2 0 -2 -2h-2zM1354 1702l4 -4l6 14z" />
<glyph unicode="&#xf4;" horiz-adv-x="1122" d="M111 283q-8 -20 9 -49t50 -61t76 -63.5t87 -56t85 -40t67 -15.5h9q4 0 16 2q-2 0 10 7t31.5 19.5t44.5 27t45 26.5q25 16 49 30l25 15l4 2q57 27 104 46.5t86 35.5q86 35 136.5 60.5t86 69.5t69.5 121t87 216l19 49q6 18 12 36.5t14 39.5l49 125q6 51 4 109.5t-14 109.5 t-38.5 89t-69.5 52q-6 -6 -42 -21.5t-78 -30.5t-78 -27.5t-44 -14.5q-41 -14 -130 -33.5t-185 -36.5q-45 -10 -87 -18t-74 -13.5t-51.5 -6.5t-19.5 6l-278 -728l-52 -36q-20 0 -24 -19zM604 1610l17 6q-10 10 -9 14zM621 1616q14 -16 44.5 -39t66.5 -44.5t71 -37.5t57 -18 q33 23 84 62.5t109 80.5q45 35 86 64.5t57 41.5l53 -2l103 -243l329 174q-12 10 -45.5 27.5t-76.5 38t-93.5 42t-95.5 39t-82 28.5t-55 13zM628 360.5q-5 14.5 3 34.5l229 598l72 31q8 -10 17 -26.5t14.5 -35t6.5 -37t-5 -32.5l-205 -537l-53 -37q-16 0 -33 4.5t-29 13.5 t-17 23.5zM852 1470q2 2 12 7h-4zM1681 1655l9 -8l6 18z" />
<glyph unicode="&#xf5;" horiz-adv-x="1122" d="M111 283q-8 -20 9 -49t50 -61t76 -63.5t87 -56t85 -40t67 -15.5h9q4 0 18 2q-4 -2 7 6t31.5 20.5t45.5 28t45 27.5q25 14 49 28l25 15l4 2q57 27 104 46.5t86 35.5q86 35 136.5 60.5t86 69.5t69.5 122t87 217l19 49q6 16 12 35.5t14 38.5l49 125q6 51 4 109.5t-14 109.5 t-38.5 89t-69.5 52q-6 -6 -42 -20.5t-78 -29.5t-78 -28.5t-44 -15.5q-41 -14 -130 -33.5t-185 -36.5q-45 -8 -87 -16t-74 -13.5t-51.5 -7.5t-19.5 5l-278 -728l-52 -36q-20 0 -24 -19zM606 1616l12 6q-6 8 -6 12zM618 1622q16 -12 66.5 -36.5t109 -48.5t115 -42t86.5 -20 q29 16 53.5 31.5t51.5 31.5l86 53l51 2l104 -114l340 178q-18 14 -68 38.5t-108.5 49t-115 43t-84.5 20.5q-39 -27 -72 -54.5t-62 -51.5q-10 -10 -19 -19.5t-24 -19.5l-53 -4l-119 143zM628 360.5q-5 14.5 3 34.5l231 600l70 29q10 -8 18 -24.5t13.5 -35t6.5 -38t-3 -31.5 l-207 -539l-53 -37q-16 0 -33 4.5t-29 13.5t-17 23.5zM985 1468l7 3.5t5 3.5h-2zM1303 1808h2l8 4q-12 -4 -10 -4zM1681 1657q9 -6 9 -8l6 16z" />
<glyph unicode="&#xf6;" horiz-adv-x="1126" d="M111 283l10 24q4 18 24 19l52 36l278 728q0 -6 19.5 -4.5t51.5 7t74 13.5t87 16q49 8 98 17.5t93 19.5t81 19.5t59 17.5q10 2 42 15.5t69 28.5t68.5 28.5t42.5 19.5q45 -14 73.5 -53t42 -90t15.5 -109.5t-5 -109.5l-49 -125q-8 -18 -14 -38t-12 -36l-19 -49 q-53 -139 -87 -217t-70.5 -122t-87 -69.5t-136.5 -60.5q-39 -16 -86 -35.5t-104 -46.5l-4 -2q-4 -4 -31 -18.5t-55 -32.5q-41 -25 -80 -48.5t-41 -25.5q-16 -2 -18 -2h-5q-41 0 -108.5 32.5t-131 79t-106.5 94.5t-30 79zM630 360.5q5 -14.5 17 -23.5t28.5 -13.5t33.5 -4.5 l53 37l207 539q4 12 3 31.5t-6 38t-13.5 35t-18.5 24.5l-70 -29l-231 -600q-8 -20 -3 -34.5zM667 1588.5q-5 29.5 7 60.5q18 47 70.5 86t105.5 73q96 -16 122.5 -60t-7.5 -134q-10 -27 -30 -50.5t-44.5 -42t-53 -28.5t-55.5 -10q-31 0 -55.5 14t-39.5 38t-20 53.5zM836 1810 l32 9q-6 -4 -10 -6.5t-8 -4.5q-10 0 -14 2zM1311 1590.5q-4 29.5 8 60.5q18 47 70.5 87t105.5 74q94 -18 123 -63t-6 -133q-23 -53 -77 -92t-110 -39q-31 0 -55 14t-39.5 38t-19.5 53.5zM1481 1815l32 8q-12 -8 -18 -11q-10 0 -14 3z" />
<glyph unicode="&#xf7;" horiz-adv-x="913" d="M184 543l467 129l359 -113q-16 -8 -36 -13t-44 -14q-25 -10 -51.5 -18t-59.5 -20q-2 0 -4 -1t-8 -1q-23 0 -77 3t-124.5 9t-145.5 12l-137.5 11t-101.5 9.5t-37 6.5zM371 107.5q-4 29.5 6 60.5q20 49 71.5 89t108.5 75q96 -16 125 -61.5t-6 -137.5q-23 -55 -78 -95 t-111 -40q-31 0 -55 15.5t-40.5 40t-20.5 54zM543 334l30 8q-4 -4 -8 -6l-8 -4q-12 0 -14 2zM683 920.5q-5 29.5 7 60.5q18 49 70.5 89t109.5 75q94 -16 123 -61.5t-6 -137.5q-10 -29 -30.5 -53.5t-46 -43t-55.5 -28.5t-56 -10q-31 0 -55.5 15.5t-40 40t-20.5 54zM854 1147 l31 8q-6 -6 -15 -10q-12 0 -16 2zM1010 559q10 4 20 10t19 11l-5 -11q-2 -4 -2 -8q0 -2 2 -14z" />
<glyph unicode="&#xf8;" horiz-adv-x="1126" d="M113 287q-8 -20 9 -50t49 -62t75 -63.5t88 -57t86 -41t67 -15.5h7q4 0 18 2q-2 0 10.5 7t31.5 19.5t44 28t45 27.5q25 16 51 30l25 15l2 2q59 27 106 46.5t86 35.5q86 37 136.5 62.5t87.5 70.5t70.5 124t88.5 220l19 49q8 18 13 37t13 39l50 127q6 53 5 111.5 t-13.5 110.5t-38 91t-68.5 54q-8 -6 -45 -21.5t-79 -31t-78 -29t-42 -15.5q-20 -6 -55 -15t-77 -18.5t-90 -18.5t-95 -17q-47 -10 -89 -18.5t-74 -13.5t-50.5 -6t-18.5 5l-284 -739l-52 -37q-18 0 -26 -21zM633 363.5q-8 9.5 2 37.5l45 115l20 27l93 67l57 -24l-62 -185 l-51 -39q-4 0 -12 -1t-18.5 -3t-16.5 -3t-22 -1q-27 0 -35 9.5zM766 739l102 271l72 30q18 -18 29.5 -57t7.5 -65v-3l-14 -63l-19 -29l-119 -104z" />
<glyph unicode="&#xf9;" d="M152 291q-4 -29 13 -63.5t44 -69.5t56.5 -68t53.5 -57l3 -2q10 -14 17 -19.5t13 -11.5h4q33 0 73 22.5t83 49.5q57 35 112.5 65.5t114.5 30.5q55 0 83 -29.5t50 -64.5q16 -29 37 -51.5t56 -22.5q31 0 89 24.5t118.5 59.5t108.5 74t60 69q6 18 -6 23.5t-28 5.5l-36 4 t-28 9t-12 21.5t8 39.5l227 594l21 26q47 33 69.5 53.5t34.5 55.5l11 22q0 2 -2.5 -2t-2.5 -2q2 -2 0 -2l-4 6l-2 2q-4 8 -14 19.5t-29 38.5q-20 23 -41.5 48t-40 48t-33 41t-18.5 25q-156 -135 -346 -203l-2 -4q0 -6 1 -22.5t3 -34t5 -34t5 -24.5v-23l-229 -598 q-6 -16 -27.5 -32.5t-46 -28.5t-48 -21.5t-34 -13.5t-20.5 -4l-25 35l17 41q8 18 17 40.5t20 49.5l34 92q10 29 21.5 55.5t21.5 53.5q55 137 90 239l2 2q10 29 18.5 52.5t14.5 37.5q14 41 25.5 102.5t8.5 120t-24.5 99.5t-70.5 41q-4 0 -10.5 -1t-10.5 -1h-2 q-10 -6 -24.5 -15.5t-42.5 -27.5l-2 -2q-31 -20 -67 -43t-68.5 -44.5t-58 -36.5t-38.5 -22q12 10 7 7.5t-17 -11t-27.5 -18.5t-21.5 -14q-29 -16 -44.5 -27.5t-25.5 -38.5t4 -27q6 0 16.5 1t20.5 4q12 2 25.5 3t29.5 1l23 -37l-221 -576l-17 -19q-18 -18 -34 -28l-17 -12 l-24 -10q-6 -2 -23.5 -6.5t-21.5 -8.5q-2 -6 -2 -20zM1096 1763l4 2q0 12 2 15zM1100 1765q4 -20 17 -60t31.5 -81t38 -73.5t34.5 -39.5q16 10 30.5 19.5t28.5 17.5q35 16 59.5 32.5t40.5 43.5l-26 274zM1206 1503l4 2q8 4 9 4q-5 0 -13 -6zM1219 1509q2 0 3 1l1 1h-2z M1380 1624l2 -2v2l2 4q0 -2 -2 -3zM1382 1616v2v4v-6zM1384 1628l46 27q-25 0 -33 -8.5t-13 -18.5z" />
<glyph unicode="&#xfa;" d="M152 291q-2 -27 13 -58.5t38.5 -64.5t51.5 -63.5t52 -55.5q20 -20 31.5 -32.5t15.5 -16.5h2q33 0 73 22.5t83 49.5q57 35 112.5 65.5t114.5 30.5q55 0 83 -29.5t50 -64.5q16 -29 37 -51.5t56 -22.5q31 0 89 24.5t118.5 59.5t108.5 74t60 69q6 18 -6 23.5t-28 5.5l-36 4 t-28 9t-12 21.5t8 39.5l227 594l21 26q47 33 69.5 53.5t34.5 55.5l8 16h-2v2q-6 6 -18 19.5t-39 54.5q-20 20 -40.5 45t-38 46.5t-30 36.5t-14.5 21q-76 -61 -163 -113t-185 -89l-2 -4q0 -6 1 -21.5t3 -33t5 -34t5 -24.5v-23l-229 -598q-6 -14 -33.5 -31.5t-59.5 -32.5 t-57 -26l-26 -10l-25 35l17 41q8 18 17 40.5t20 49.5l34 92q10 29 21.5 54.5t21.5 54.5q55 137 90 239l2 2q10 29 18.5 52.5t14.5 37.5q14 41 25.5 102.5t8.5 120t-24.5 99.5t-70.5 41q-4 0 -10.5 -1t-10.5 -1h-2q-14 -8 -33.5 -20.5t-52.5 -34.5q-29 -18 -59.5 -38 t-59 -38.5t-52 -32.5t-38.5 -22q4 2 -3 -2.5t-18 -11.5t-24.5 -15t-19.5 -12q-29 -16 -44.5 -27.5t-25.5 -38.5t4 -27q6 0 16.5 1t20.5 4q12 2 25.5 3t29.5 1l23 -37l-221 -576l-17 -19q-18 -18 -34 -28l-17 -12l-24 -10q-6 -2 -23.5 -7.5t-21.5 -9.5q-2 -4 -2 -18z M1104 1661l20 -25q0 10 -5 17.5t-15 7.5zM1110 1614q12 8 12 10zM1122 1624l6 6v4l-4 2q2 -2 2 -6zM1128 1630q-4 -25 9.5 -42t36.5 -38q12 -16 26 -30q23 8 77 46t110.5 81t98.5 78.5t42 37.5l-164 142zM1194 1518q6 0 12 -7q-4 4 -6 9l-2 -1q-2 -1 -4 -1z" />
<glyph unicode="&#xfb;" d="M152 291q-2 -27 13 -58.5t38.5 -64.5t51.5 -63.5t52 -55.5q20 -20 31.5 -32.5t15.5 -16.5h2q33 0 73 22.5t83 49.5q57 35 112.5 65.5t114.5 30.5q55 0 83 -29.5t50 -64.5q16 -29 37 -51.5t56 -22.5q31 0 89 24.5t118.5 59.5t108.5 74t60 69q8 20 -5 24.5t-29 4.5l-36 4 t-28 9t-12 21.5t8 39.5l229 596l19 26q47 33 69.5 53.5t36.5 55.5l6 16h-2v2q-4 6 -16 20.5t-41 55.5q-20 20 -40.5 45t-38 45.5t-30 35.5t-14.5 22q-74 -61 -162 -113.5t-184 -87.5l-4 -6q0 -6 1 -21.5t3 -33t5 -34t5 -24.5v-22l-229 -599q-6 -16 -33.5 -33.5t-59.5 -32.5 t-57 -26l-26 -10l-23 37l15 39q8 20 17 41.5t20 48.5l36 94q10 27 21.5 53.5t21.5 55.5q27 68 49.5 129t40.5 110v2q10 29 19.5 52.5t13.5 38.5q14 41 25.5 102t8.5 119.5t-24.5 100.5t-70.5 42q-4 0 -9.5 -1t-9.5 -1h-2q-14 -10 -33.5 -22.5t-52.5 -32.5q-31 -18 -61.5 -38 t-58 -38t-51 -33.5t-38.5 -23.5q4 2 -3 -2.5t-19 -11.5t-25.5 -15t-19.5 -12q-29 -16 -43 -27.5t-24.5 -38.5t3.5 -27q6 0 15.5 1.5t19.5 3.5q14 2 26.5 3t28.5 1l23 -37l-221 -578l-17 -17q-18 -18 -32 -28l-19 -14l-24 -10q-6 -2 -23.5 -6.5t-21.5 -8.5v-8q0 -2 -2 -12z M686 1585l19 6q-12 10 -11 15zM705 1591q14 -16 44.5 -38.5t65.5 -44t69 -38t56 -18.5q33 25 86 63.5t107 79.5q47 35 85.5 64t57.5 43l51 -4l100 -242l330 174q-14 10 -47 27.5t-76 38t-92 42t-93 39t-81 29t-55 13.5zM932 1446q2 2 14 6h-6zM1757 1630q6 -6 6 -8l6 18z " />
<glyph unicode="&#xfc;" d="M152 291q2 10 2 12v8q4 4 21.5 8.5t23.5 6.5l24 10l17 12q16 12 34 30l17 17l221 578l-23 37q-16 0 -29.5 -2t-25.5 -4q-10 -2 -20.5 -3.5t-16.5 -1.5t-8 6.5t6 22.5q10 27 24.5 38t43.5 28q6 4 21.5 13t27.5 17.5t17.5 11.5t-7.5 -6q12 6 39 21.5t58.5 36t67.5 43 t67 43.5l2 2q29 20 43 29.5t26 15.5h2q4 0 9.5 1t9.5 1q49 0 70.5 -41t24.5 -99.5t-8 -120t-26 -101.5q-6 -16 -14 -39t-19 -52v-2q-18 -49 -40.5 -110.5t-49.5 -128.5q-10 -29 -21 -55.5t-22 -53.5l-36 -94q-10 -27 -19.5 -48.5t-17.5 -41.5l-17 -41l25 -35q10 0 20.5 4 t34 13.5t48 22.5t46 28.5t27.5 33.5l229 599v22q-2 6 -5 22.5t-5 35t-3 35t1 22.5v2q197 72 350 207q10 -12 27.5 -37t48.5 -64q27 -35 50.5 -65.5t33.5 -42.5l6 -6t6 -7q4 -6 11 -4l-11 -22q-12 -33 -34.5 -54.5t-69.5 -54.5l-19 -24l-229 -596q-10 -25 -8 -39.5t12 -21.5 t27.5 -9t36.5 -4q16 0 29.5 -4t4.5 -25q-12 -31 -60 -69.5t-108.5 -73.5t-119 -59.5t-88.5 -24.5q-35 0 -55.5 22.5t-37.5 51.5q-23 35 -50 64.5t-83 29.5q-59 0 -114.5 -31t-112.5 -65q-43 -27 -83 -49.5t-73 -22.5h-4q-6 6 -13 11t-17 20l-3 2q-25 25 -54 57.5t-56 67.5 t-44 69.5t-13 63.5zM798 1627q-5 30 7 59q18 47 69.5 85.5t104.5 73.5q94 -16 120.5 -59t-7.5 -135q-20 -53 -73.5 -92t-107.5 -39q-29 0 -53 15t-39.5 38.5t-20.5 53.5zM965 1847l32 8q-4 -4 -9 -6t-9 -4q-10 0 -14 2zM1435 1629q-3 30 7 59q18 47 69.5 87t106.5 74 q92 -16 119.5 -61t-6.5 -135q-10 -27 -31 -50.5t-45.5 -42t-53 -28.5t-55.5 -10q-31 0 -54.5 15t-38.5 38.5t-18 53.5zM1602 1851l32 9q-12 -8 -16 -11q-12 0 -16 2z" />
<glyph unicode="&#xfd;" horiz-adv-x="901" d="M127 -377l31 25q-12 0 -8 6zM134 199.5q5 -35.5 22.5 -65.5t43 -50.5t52.5 -20.5q4 4 38 22.5t75 41.5q29 16 63.5 35.5t55 31t24.5 13.5l55 -25l-8 -20q-4 -10 -7 -22.5t-9 -24.5q-4 -16 -8.5 -28.5t-8.5 -23.5l-4 -12q-31 -80 -61.5 -132t-71.5 -95t-95 -83t-132 -93 q9 -2 32 -2h29q35 0 89 18.5t116.5 50t126 73.5t119 89t97.5 95t58 94l351 911q0 2 -1 1t-1 1q2 16 1 39.5t-16 34.5l-4 6l-63 110l-209 -110l-4 -2l-86 -37l-43 8l-103 189l-2 20q4 12 4 14q0 4 2 9q12 31 43 49t66 34q10 4 17 8.5t11 4.5q2 27 -9 33t-36 6 q-57 0 -105 -21.5t-87 -58.5t-68.5 -87t-52.5 -108q-25 -63 -33 -116.5t-16 -106.5q-10 -59 -19.5 -120.5t-35.5 -129.5q-23 -59 -47.5 -106t-51.5 -95q-25 -45 -47 -88t-39 -88q-12 -35 -7 -70.5zM520 360l193 502l18 23l49 39l62 -6q6 -37 2 -80t-23 -90l-73 -191 q-6 -18 -13.5 -32.5t-15.5 -29t-12.5 -25.5t-8.5 -24l-16 -38l-6 -13q-57 -70 -131 -69zM895 1653l25 -29q4 10 1 19.5t-26 9.5zM911 1612q0 2 3.5 3t3.5 3l-7 -4v-2zM918 1618l2 2v4v-4zM920 1620q-2 -23 11 -40t36 -38q6 -6 14 -13t16 -18q23 8 69 42t96 74t94 79t63 57 l-158 129zM989 1509q6 0 8 -1t4 -1l-4 4q-2 0 -3 -1t-5 -1zM1001 1507q1 -2 3 -2q-2 0 -3 2zM1092 1169l4 2l6 3q-8 -2 -8 -3zM1319 1763l6 -4l6 17q-6 -2 -12 -13z" />
<glyph unicode="&#xfe;" horiz-adv-x="933" d="M142.5 359.5q0.5 11.5 7.5 27.5l14 41q23 53 60.5 98t82.5 92q49 53 96.5 109.5t75.5 130.5q25 66 29 114t8 95v2q0 39 5 81t26 95q39 98 101.5 153.5t156.5 55.5h39h16l-69 -53l-11 -55q14 -10 22.5 -36t10.5 -61t2 -75v-76q-2 -33 -3 -60.5t-1 -48.5l31 -20q14 0 67 28 q27 14 65 36t74.5 40.5t66.5 31.5t42 13q18 0 29.5 -24.5t17.5 -56t6 -62.5t-4 -41l-239 -623q-2 -4 -30 -18t-71 -34.5t-96 -44.5l-106 -48h-2q-47 -23 -89.5 -42.5t-76 -35.5t-55 -28.5t-27.5 -20.5t-16.5 -23.5t-20.5 -27.5l-2 -2q-20 -29 -40 -58.5t-28 -42.5 q-14 -20 -22.5 -34.5t-18.5 -26.5l-2 -2q-10 -14 -13 -18.5t-9 -4.5q-27 0 -35 29t-4 75t16 104.5t27.5 116.5t32 111.5t26.5 88.5q4 10 4 16t4 12l-22 37h-8l-11 2q-4 0 -8 1t-6 1q-29 0 -48.5 -10t-37.5 -23l-4 -2q-14 -10 -16 -10q-10 0 -9.5 11.5zM618 492l5 -25l39 -72 l75 27l154 401v25l-23 37l-57 -2l-45 -37l-21 -23zM860 1454l8 6q-2 -2 -8 -6z" />
<glyph unicode="&#xff;" horiz-adv-x="894" d="M125 -377q8 6 15 11.5t18 13.5q-15 0 -11 6zM133 199.5q6 -35.5 23.5 -66.5t43 -50.5t52.5 -19.5q8 4 22.5 12.5t36.5 22.5q27 14 56.5 30.5t57.5 32t49.5 28t31.5 18.5l53 -25l-6 -18q-4 -10 -7 -23.5t-9 -25.5q-4 -16 -8.5 -28.5t-8.5 -23.5l-4 -12q-31 -80 -61.5 -132 t-71.5 -95t-95.5 -83t-129.5 -93q8 -2 26 -2h33q35 0 89 18.5t115.5 50t125 73.5t119 89t97.5 95t58 94l350 911q0 2 -1 1t-1 1v39q0 25 -14 35l-4 6l-64 110l-206 -110l-4 -2l-84 -35l-45 8l-103 189v18q4 12 4 14q0 4 2 9q10 29 41 49t66 37l4 2q16 8 29 12 q-2 25 -11.5 31t-36.5 6q-115 0 -191.5 -80t-121.5 -197q-25 -63 -33 -115.5t-16 -105.5q-8 -59 -18.5 -121.5t-36.5 -130.5q-23 -59 -47.5 -106t-51.5 -95q-25 -45 -48 -88t-40 -88q-12 -35 -6 -70.5zM518 362l193 500l16 25l51 37l60 -6q6 -37 2 -79t-23 -89l-72 -191 q-8 -20 -15 -34.5t-13 -26.5q-8 -16 -12.5 -27.5t-8.5 -24.5l-16 -38l-6 -13q-57 -70 -131 -69zM654.5 1620.5q4.5 -29.5 20 -53t41 -39t56.5 -15.5q57 0 110.5 39t75.5 95q35 90 6.5 133t-126.5 59q-53 -33 -105.5 -73t-70.5 -87q-12 -29 -7.5 -58.5zM791 1358h2q0 2 -2 2 v-2zM823 1841q4 -2 15 -2q4 2 9 5t9 7zM1087 1169l5 2l6 3q-8 -2 -8 -3zM1184 1620.5q4 -29.5 20.5 -53t42 -39t56.5 -15.5q57 0 110 39t76 95q35 88 4 132t-127 60q-53 -33 -104.5 -73t-69.5 -87q-12 -29 -8 -58.5zM1352 1841q4 -2 14 -2q4 4 9 6t9 6z" />
<glyph unicode="&#x152;" horiz-adv-x="1681" d="M129 226.5q18 -58.5 57 -109.5t88.5 -85t90.5 -34q4 0 11 1t13 1l39 19.5t72 38t90 49t96 51.5q47 27 89 48t73 38l45 -8q14 -47 39.5 -89.5t58.5 -75t70 -52t76 -19.5q23 0 75 21.5t116.5 54.5t133 73.5t128 79.5t100.5 73t47 50.5t-25 16.5q-25 0 -47.5 -5.5 t-46.5 -11.5q-29 -10 -58.5 -16t-64.5 -6t-77 13t-74.5 38t-49 59.5t1.5 79.5q16 45 50 78t78 58.5t96.5 46t105.5 40.5q49 18 97.5 37t89 41.5t70.5 49t44 61.5q2 6 4 16t6 19l-88 354q-2 -2 -16 8t-27 14h-6q-33 0 -100.5 -18t-148.5 -50t-164.5 -73t-151.5 -86l-53 8 q-4 35 -8.5 59.5t-4.5 35.5q0 2 -3 12t-7 29q-4 27 -11 55t-18 28q-4 0 -6 -1t-4 -1h-2q-20 -8 -60 -20t-90 -28.5t-104.5 -34t-104.5 -33t-90 -27.5t-61 -18q-25 -10 -57.5 -24.5t-63 -33t-55 -39t-33.5 -43.5l-270 -706q-18 -49 0 -107.5zM555 504l182 471l74 18 q2 -18 6 -49q0 -23 2 -46.5t8.5 -45t17.5 -34.5t29 -13q16 0 51.5 9t84.5 26l37 -35l-166 -430l-35 -33q-16 -8 -39 -11t-51 -3q-29 0 -70 11t-76 32.5t-53 55.5t-2 77zM1352 741l90 234l74 10q0 -4 3 -15.5t6 -25.5t7 -26.5t8 -16.5l2 -6q2 -8 3 -22.5t2 -28t0 -24.5 t-1 -13q-6 -18 -12 -29.5t-21.5 -20.5t-44 -20.5t-82.5 -29.5z" />
<glyph unicode="&#x153;" horiz-adv-x="1681" d="M129 226.5q18 -58.5 57 -109.5t88.5 -85t90.5 -34q4 0 11 1t13 1l39 19.5t72 38t90 49t96 51.5q47 27 89 48t73 38l45 -8q14 -47 39.5 -89.5t58.5 -75t70 -52t76 -19.5q23 0 75 21.5t116.5 54.5t133 73.5t128 79.5t100.5 73t47 50.5t-25 16.5q-25 0 -47.5 -5.5 t-46.5 -11.5q-29 -10 -58.5 -16t-64.5 -6t-77 13t-74.5 38t-49 59.5t1.5 79.5q16 45 50 78t78 58.5t96.5 46t105.5 40.5q49 18 97.5 37t89 41.5t70.5 49t44 61.5q2 6 4 16t6 19l-88 354q-2 -2 -16 8t-27 14h-6q-33 0 -100.5 -18t-148.5 -50t-164.5 -73t-151.5 -86l-53 8 q-4 35 -8.5 59.5t-4.5 35.5q0 2 -3 12t-7 29q-4 27 -11 55t-18 28q-4 0 -6 -1t-4 -1h-2q-20 -8 -60 -20t-90 -28.5t-104.5 -34t-104.5 -33t-90 -27.5t-61 -18q-25 -10 -57.5 -24.5t-63 -33t-55 -39t-33.5 -43.5l-270 -706q-18 -49 0 -107.5zM555 504l182 471l74 18 q2 -18 6 -49q0 -23 2 -46.5t8.5 -45t17.5 -34.5t29 -13q16 0 51.5 9t84.5 26l37 -35l-166 -430l-35 -33q-16 -8 -39 -11t-51 -3q-29 0 -70 11t-76 32.5t-53 55.5t-2 77zM1352 741l90 234l74 10q0 -4 3 -15.5t6 -25.5t7 -26.5t8 -16.5l2 -6q2 -8 3 -22.5t2 -28t0 -24.5 t-1 -13q-6 -18 -12 -29.5t-21.5 -20.5t-44 -20.5t-82.5 -29.5z" />
<glyph unicode="&#x178;" horiz-adv-x="894" d="M125 -377q8 6 15 11.5t18 13.5q-15 0 -11 6zM133 199.5q6 -35.5 23.5 -66.5t43 -50.5t52.5 -19.5q8 4 22.5 12.5t36.5 22.5q27 14 56.5 30.5t57.5 32t49.5 28t31.5 18.5l53 -25l-6 -18q-4 -10 -7 -23.5t-9 -25.5q-4 -16 -8.5 -28.5t-8.5 -23.5l-4 -12q-31 -80 -61.5 -132 t-71.5 -95t-95.5 -83t-129.5 -93q8 -2 26 -2h33q35 0 89 18.5t115.5 50t125 73.5t119 89t97.5 95t58 94l350 911q0 2 -1 1t-1 1v39q0 25 -14 35l-4 6l-64 110l-206 -110l-4 -2l-84 -35l-45 8l-103 189v18q4 12 4 14q0 4 2 9q10 29 41 49t66 37l4 2q16 8 29 12 q-2 25 -11.5 31t-36.5 6q-115 0 -191.5 -80t-121.5 -197q-25 -63 -33 -115.5t-16 -105.5q-8 -59 -18.5 -121.5t-36.5 -130.5q-23 -59 -47.5 -106t-51.5 -95q-25 -45 -48 -88t-40 -88q-12 -35 -6 -70.5zM518 362l193 500l16 25l51 37l60 -6q6 -37 2 -79t-23 -89l-72 -191 q-8 -20 -15 -34.5t-13 -26.5q-8 -16 -12.5 -27.5t-8.5 -24.5l-16 -38l-6 -13q-57 -70 -131 -69zM654.5 1620.5q4.5 -29.5 20 -53t41 -39t56.5 -15.5q57 0 110.5 39t75.5 95q35 90 6.5 133t-126.5 59q-53 -33 -105.5 -73t-70.5 -87q-12 -29 -7.5 -58.5zM791 1358h2q0 2 -2 2 v-2zM823 1841q4 -2 15 -2q4 2 9 5t9 7zM1087 1169l5 2l6 3q-8 -2 -8 -3zM1184 1620.5q4 -29.5 20.5 -53t42 -39t56.5 -15.5q57 0 110 39t76 95q35 88 4 132t-127 60q-53 -33 -104.5 -73t-69.5 -87q-12 -29 -8 -58.5zM1352 1841q4 -2 14 -2q4 4 9 6t9 6z" />
<glyph unicode="&#x2c6;" horiz-adv-x="1163" d="M711 1845l8 25q0 -6 10 -17zM729 1853l625 261q29 -2 94 -29t136 -62.5t132.5 -70.5t79.5 -54l-344 -198l-88 274l-53 6q-16 -14 -55 -46.5t-91 -73.5q-57 -47 -113.5 -93.5t-90.5 -72.5q-23 2 -56 21.5t-67.5 44t-64.5 50t-44 43.5zM952 1688l9 6h4zM1796 1898l14 11 l-8 -19z" />
<glyph unicode="&#x2dc;" horiz-adv-x="1163" d="M737 1913l6 18q0 -4 7 -12zM750 1919l350 209l108 -166l56 4q12 12 23 22.5t22 20.5q31 29 66.5 63.5t72.5 63.5q29 -4 84 -25.5t113.5 -51t107.5 -58.5t66 -45l-353 -207l-102 135l-47 -2q-41 -31 -117 -82q-23 -16 -42 -28.5t-42 -28.5q-29 2 -84 24.5t-112.5 51 t-105.5 56.5t-64 44zM1108 1737l2 2l6 4h4q-10 -4 -12 -6zM1446 2136q2 0 10 4q-4 -4 -8 -4h-2zM1819 1956l14 10l-8 -18q0 2 -6 8z" />
<glyph unicode="&#x2000;" horiz-adv-x="1321" />
<glyph unicode="&#x2001;" horiz-adv-x="2642" />
<glyph unicode="&#x2002;" horiz-adv-x="1321" />
<glyph unicode="&#x2003;" horiz-adv-x="2642" />
<glyph unicode="&#x2004;" horiz-adv-x="880" />
<glyph unicode="&#x2005;" horiz-adv-x="660" />
<glyph unicode="&#x2006;" horiz-adv-x="440" />
<glyph unicode="&#x2007;" horiz-adv-x="440" />
<glyph unicode="&#x2008;" horiz-adv-x="330" />
<glyph unicode="&#x2009;" horiz-adv-x="528" />
<glyph unicode="&#x200a;" horiz-adv-x="146" />
<glyph unicode="&#x2010;" horiz-adv-x="724" d="M309 801l15 6q-8 8 -7 14zM324 807q18 -16 70 -44t112.5 -55.5t118 -49t88.5 -23.5q18 12 34.5 22.5t32.5 20.5q49 33 85 59.5t67 61.5l-236 223zM702 627q8 4 13 8h-2l-6 -6zM932 799l8 -6l-2 2q0 2 4 12l6 14l-8 -12t-8 -10zM948 821l47 27q-25 0 -32 -4t-15 -23z" />
<glyph unicode="&#x2011;" horiz-adv-x="724" d="M309 801l15 6q-8 8 -7 14zM324 807q18 -16 70 -44t112.5 -55.5t118 -49t88.5 -23.5q18 12 34.5 22.5t32.5 20.5q49 33 85 59.5t67 61.5l-236 223zM702 627q8 4 13 8h-2l-6 -6zM932 799l8 -6l-2 2q0 2 4 12l6 14l-8 -12t-8 -10zM948 821l47 27q-25 0 -32 -4t-15 -23z" />
<glyph unicode="&#x2012;" horiz-adv-x="724" d="M309 801l15 6q-8 8 -7 14zM324 807q18 -16 70 -44t112.5 -55.5t118 -49t88.5 -23.5q18 12 34.5 22.5t32.5 20.5q49 33 85 59.5t67 61.5l-236 223zM702 627q8 4 13 8h-2l-6 -6zM932 799l8 -6l-2 2q0 2 4 12l6 14l-8 -12t-8 -10zM948 821l47 27q-25 0 -32 -4t-15 -23z" />
<glyph unicode="&#x2013;" horiz-adv-x="724" d="M309 801l15 6q-8 8 -7 14zM324 807q18 -16 70 -44t112.5 -55.5t118 -49t88.5 -23.5q18 12 34.5 22.5t32.5 20.5q49 33 85 59.5t67 61.5l-236 223zM702 627q8 4 13 8h-2l-6 -6zM932 799l8 -6l-2 2q0 2 4 12l6 14l-8 -12t-8 -10zM948 821l47 27q-25 0 -32 -4t-15 -23z" />
<glyph unicode="&#x2014;" horiz-adv-x="1064" d="M307 793l10 28q-4 -6 19 -16zM336 805l524 219l410 -229q-35 -29 -78 -52.5t-102 -52.5q-27 -12 -54.5 -25.5t-62.5 -29.5h-4q-29 0 -79 9t-112.5 24.5t-131 34t-129 37t-110 36t-71.5 29.5zM1270 795q8 8 12 10q0 -8 6 -17zM1282 805q0 8 29 31l-11 -11q-12 -12 -18 -20 z" />
<glyph unicode="&#x2018;" horiz-adv-x="569" d="M475 1153q0 -88 66 -158l266 49l117 150l-50 203l-65 213l-14 24h-2q-2 0 -5.5 -1t-5.5 -1q-18 -6 -49 -25.5t-63.5 -43t-60 -48t-40.5 -38.5q-8 -16 -9 -19.5t-5 -13.5t-9 -21.5t-9 -21.5l-15 -33q-47 -125 -47 -215z" />
<glyph unicode="&#x2019;" horiz-adv-x="569" d="M549 1430l47 -205l70 -211l12 -23h10q2 0 1 1t1 1q14 2 47 20.5t67 42t61.5 47t33.5 34.5q8 16 10 21t9 22q4 10 10 21t10 22l14 34q47 123 46 213.5t-66 157.5l-266 -49z" />
<glyph unicode="&#x201a;" horiz-adv-x="518" d="M-113 -291q6 18 23.5 36.5t48.5 40t77 48.5t111 57l25 66q-18 14 -38.5 33.5t-36 46t-22.5 57.5t3 66q53 80 128 122t167 46l84 -23q14 -31 21 -53.5t7 -46.5q0 -23 -7 -50.5t-21 -66.5q-37 -96 -104.5 -167t-147.5 -118t-164 -70.5t-154 -23.5z" />
<glyph unicode="&#x201c;" horiz-adv-x="1067" d="M474 1154q-3 -89 56 -157l246 50l115 149l-39 205l-51 209l-19 24q-4 0 -5 -1t-3 -1h-2q-16 -6 -45 -24.5t-59.5 -43t-57 -48t-39.5 -37.5q-8 -16 -9 -20.5t-5 -14.5t-9 -20.5t-9 -20.5l-15 -35q-47 -125 -50 -214zM1024 1161q-2 -88 57 -160l246 50l113 147l-41 205 l-51 209l-17 24q-6 -2 -10 -2q-16 -6 -44 -24.5t-58.5 -43t-57 -48t-39.5 -37.5q-14 -31 -22 -48.5t-13.5 -27.5t-7.5 -17.5t-6 -17.5q-47 -121 -49 -209zM1329 1642l2 -6q2 0 0 1t0 1z" />
<glyph unicode="&#x201d;" horiz-adv-x="1067" d="M555 1436l39 -205l53 -209l15 -29h6q2 0 3 2t3 2q14 2 44 20.5t60.5 43t57 47t32.5 33.5q0 2 2 4t7 12v2q10 23 22 50.5t21 50.5q47 125 49 213t-56 159l-247 -51zM662 993q-8 0 2 -2zM1102 1438l39 -205l53 -209l18 -27h-2q-2 0 -7 -1t-15 -9l24 10l7 2q2 0 1 1t3 1 q12 2 41.5 21.5t61.5 44.5t58.5 48.5t36.5 35.5q8 16 10.5 20.5t6.5 16.5q4 10 9 21.5t9 21.5l12 35q47 121 50.5 210t-56.5 158l-245 -51z" />
<glyph unicode="&#x201e;" horiz-adv-x="960" d="M-113 -291q63 0 140 23.5t152 70.5t138.5 118t100.5 167q14 37 20 64.5t7 50t-4 46t-15 54.5l-76 25q-82 -4 -152.5 -46t-119.5 -122q-10 -35 -6 -66t17 -57.5t31.5 -46t35.5 -33.5l-25 -66q-66 -35 -108.5 -60.5t-70.5 -47t-43 -38.5t-22 -36zM381 -293q63 0 140 23.5 t150.5 70.5t137 118t100.5 167q14 37 21.5 63.5t8.5 50t-5 46t-16 53.5l-74 27q-84 -8 -155 -49t-120 -123q-10 -35 -5 -66t18.5 -56.5t31 -45t33.5 -33.5l-24 -64q-63 -35 -106.5 -60.5t-71 -47t-43 -39.5t-21.5 -35zM424 313q0 -4 1 -5t1 -5l14 -4zM915 311q2 -4 3 -12 l16 -2z" />
<glyph unicode="&#x2022;" horiz-adv-x="1126" d="M113 287l8 24q8 20 26 21l52 37l284 739q0 -6 18.5 -5t50.5 6t74 13t89 19q47 8 95 17t90 18.5t77 18.5t55 15q6 2 42 15.5t78 29t79 30.5t45 22q43 -14 68.5 -53.5t38 -91.5t13.5 -110.5t-5 -111.5l-50 -127q-8 -20 -13 -38.5t-13 -37.5l-19 -49q-55 -141 -88.5 -220 t-70.5 -124t-87.5 -70.5t-136.5 -62.5q-39 -16 -86 -35.5t-106 -46.5l-2 -2l-25 -15q-26 -14 -51 -30q-20 -12 -45 -27.5t-45.5 -28t-31.5 -20.5t-7 -6q-16 -2 -20 -2h-7q-27 0 -66.5 15.5t-84.5 41t-88 57t-76 63.5t-50.5 61.5t-8.5 50.5z" />
<glyph unicode="&#x2026;" horiz-adv-x="1355" d="M64 123q-2 35 10 70q23 55 76 101t108 85q92 -20 117.5 -71.5t-15.5 -155.5q-12 -31 -32.5 -60t-47 -49t-55 -32.5t-55.5 -12.5q-31 0 -54.5 17.5t-36.5 45t-15 62.5zM246 383l30 8q-6 -6 -18 -12q-10 0 -12 4zM487.5 125q-1.5 35 10.5 70q23 57 76 102t110 86 q92 -20 117.5 -71.5t-15.5 -155.5q-12 -33 -33.5 -60.5t-48 -49t-55 -34t-55.5 -12.5q-31 0 -54.5 17.5t-37 45t-15 62.5zM670 385l30 10q-8 -8 -16 -12q-10 0 -14 2zM903 125q-2 35 10 70q23 57 77 102t110 86q92 -20 117.5 -71.5t-15.5 -155.5q-12 -33 -33.5 -60.5 t-48 -49t-55.5 -34t-55 -12.5q-29 0 -52.5 17.5t-38 45t-16.5 62.5zM1085 385l33 10q-4 -4 -9 -7t-9 -5q-10 0 -15 2z" />
<glyph unicode="&#x202f;" horiz-adv-x="528" />
<glyph unicode="&#x2039;" horiz-adv-x="528" d="M256 537q0 -53 2 -110.5t5 -109t8 -91.5t12 -56l305 268l-205 193l20 57q18 8 66.5 39t106 67.5t112.5 72.5t90 59q6 23 3 63.5t-12 84.5t-20.5 83t-19.5 60l-461 -525q-6 -20 -9 -61t-3 -94zM272 160h19q-4 0 -8 10zM719 1235q4 -2 10 -18l14 18h-24zM776 922l8 8l-6 -4 z" />
<glyph unicode="&#x203a;" horiz-adv-x="528" d="M182 438l350 193l25 57q-10 8 -36.5 39t-57.5 67.5t-58.5 72.5t-39.5 57q10 23 44.5 63.5t76.5 85.5t83 84t66 60l61 -525q-2 -2 1 2t3 2q-6 -16 -34.5 -57t-68.5 -93t-87 -110.5t-92 -112t-82 -95.5t-55 -58zM266 160q4 0 15 10l6 -10h-21zM360 930q0 -2 2.5 -3t2.5 -3 v-2q-4 4 -5 10v-2zM635 1217v18h24q-4 -2 -24 -18z" />
<glyph unicode="&#x205f;" horiz-adv-x="660" />
<glyph unicode="&#x20ac;" horiz-adv-x="1394" d="M176 500h2h-2zM178 500q14 2 67.5 -2t120 -11.5t135 -17.5t111.5 -18l19 -37l-31 -80q-18 -49 1.5 -107.5t59 -109.5t90 -85t91.5 -34q4 0 11 1t13 1h-6q18 8 57 28.5t88.5 47t104.5 55.5t104.5 55.5t88 47t57.5 30.5h2q2 0 6 3t6 3l4 4q31 16 42.5 26.5t21.5 33.5 q4 12 4 20q0 10 -10 11q-20 0 -41 -5.5t-39 -9.5q-29 -8 -60.5 -15t-60.5 -7q-31 0 -72 11t-76.5 32.5t-54 55.5t-2.5 77l182 471l74 18q6 -18 6 -49q0 -23 3 -46.5t9.5 -45t17.5 -34.5t30 -13q20 0 69 12t103.5 32.5t98.5 48.5t56 58l2 2q-2 6 -4 22.5t-4 40t-5 50.5t-5 53 q-4 35 -7 56.5t-5 36.5q-10 4 -13 43q-4 27 -12 55t-18 28q-2 0 -5.5 -1t-5.5 -1q-31 -10 -106.5 -34.5t-159.5 -50t-158.5 -49t-107.5 -31.5q-23 -10 -51.5 -23.5t-58 -31t-53 -38t-32.5 -43.5l-43 -114l-63 -33l-53 20l-381 -122q4 2 49 -1.5t106.5 -8.5t129 -13 t114.5 -16l16 -37l-34 -92l-62 -35l-90 35z" />
<glyph unicode="&#x2122;" horiz-adv-x="1249" d="M350 1010l53 49q0 -16 3 -25q-20 -10 -37 -17t-19 -7zM406 1034q23 12 41 24.5t22 24.5l94 246l-2 27l-6 6l-2 6q-20 20 -16 31l2 2q49 33 87 61.5t70.5 58t64.5 62.5t66 74l-65 -168l12 -35q18 -10 25 -10q16 -4 33.5 -10.5t13.5 -14.5q-16 -37 -43 -37q-4 0 -12.5 1 t-16.5 6l-57 -39l-105 -271l23 -39q2 0 4 1t6 1l10 2q4 0 13.5 2.5t19.5 2.5q-12 -14 -37.5 -34t-55.5 -37t-55.5 -30.5t-37.5 -15.5q0 -2 -9.5 7t-19.5 19v3q-23 16 -40 34.5t-27 38.5zM688 1049q0 2 4 6q-2 -4 -3 -5zM827 1657l11 26l4 -8q-6 -6 -15 -18zM866 1026l4 10 v-6q0 -2 -2 -3zM870 1030q4 4 7.5 8t7.5 15l2 2l20 26l129 336l-22 39q-8 0 -13 10q16 16 20.5 18.5t8.5 6.5l4 2q16 12 24.5 18.5t18.5 13.5t28.5 20.5t55.5 39.5h2l37 -78q-10 -27 -3 -33t25.5 0.5t46 22.5t58.5 35q23 14 42.5 27.5t33.5 21.5l35 -74q-8 -20 -4 -23t39 -3 q29 0 68.5 25.5t74.5 49.5l29 23q8 -8 16 -23.5t18 -31.5q6 -16 14.5 -29.5t14.5 -17.5l2 -7l-10 -22l-25 -31l-129 -336v-26l4 -11l4 -6q4 -6 5 -10q0 -2 2 -6q-4 -10 -22.5 -26.5t-41 -31t-44 -24.5t-34.5 -10q-6 0 -14 10t-14.5 23.5t-8.5 29t2 27.5l150 391l-23 37 q2 0 7 -2q-4 4 -10.5 7t-18.5 3q-55 0 -78 -59l-121 -316v-20q6 -18 -4 -41q-6 -14 -20.5 -30.5t-33 -30t-36.5 -21.5t-29 -8q-8 0 -11 9t-7 22q-10 23 -19.5 40t-44.5 17t-65.5 -18.5t-56.5 -41.5q-12 -10 -19.5 -16t-13.5 -10q-4 4 -5 6l-3 6q-4 8 -9.5 14.5t-15.5 18.5 q-6 29 -18 35l-5 8q-2 2 -2 4q0 4 -2 6zM922 930l3 1t5 1q4 -4 6 -5l2 -1q-8 2 -10 3t-6 1zM991 1456q10 6 10 12v-2q-4 -2 -4 -4t-4 -4zM1053 1081l20 -39h35l53 39l135 357l-41 32l-43 -20l-30 -33zM1401 1593l8 -4h6q-6 -6 -12 -8zM1415 1589q6 0 8 2l11 6q-10 -8 -19 -8 zM1634 1597l6 -6l2 -2q-2 0 -8 8zM1642 1589h7q6 0 12 2l-16 -12q-2 2 -3 10z" />
<glyph unicode="&#x25fc;" horiz-adv-x="1320" d="M0 0v1321h1321v-1321h-1321z" />
</font>
</defs>
</svg>
