<?xml version="1.0" standalone="no"?>
<!DOCTYPE svg PUBLIC "-//W3C//DTD SVG 1.1//EN" "http://www.w3.org/Graphics/SVG/1.1/DTD/svg11.dtd" >
<svg xmlns="http://www.w3.org/2000/svg" xmlns:xlink="http://www.w3.org/1999/xlink" version="1.1">
<metadata>
Created by FontForge 20170731 at Sun Aug 16 12:56:31 2015
 By Aleksey,,,
2015 Iconian Fonts - www.iconian.com
</metadata>
<defs>
<font id="GrandNational" horiz-adv-x="800" >
  <font-face 
    font-family="Grand National"
    font-weight="400"
    font-stretch="normal"
    units-per-em="1000"
    panose-1="0 0 0 0 0 0 0 0 0 0"
    ascent="800"
    descent="-200"
    x-height="446"
    cap-height="580"
    bbox="-52 -166 1361 734"
    underline-thickness="50"
    underline-position="-175"
    unicode-range="U+0020-2122"
  />
<missing-glyph horiz-adv-x="500" 
 />
    <glyph glyph-name=".notdef" horiz-adv-x="500" 
 />
    <glyph glyph-name=".null" horiz-adv-x="0" 
 />
    <glyph glyph-name="nonmarkingreturn" horiz-adv-x="500" 
 />
    <glyph glyph-name="space" unicode=" " horiz-adv-x="366" 
 />
    <glyph glyph-name="space" unicode="&#xa0;" horiz-adv-x="366" 
 />
    <glyph glyph-name="FL0021h" unicode="!" horiz-adv-x="294" 
d="M244 164v416h-194v-416h194zM244 114h-194v-114h194v114z" />
    <glyph glyph-name="FL0022h" unicode="&#x22;" horiz-adv-x="422" 
d="M301 395q35 0 53 23.5t18 50.5v111h-135v-185h64zM114 395q35 0 53 23.5t18 50.5v111h-135v-185h64z" />
    <glyph glyph-name="FL0023h" unicode="#" horiz-adv-x="850" 
d="M487 0v118h-125v-118h-200v118h-112v110h112v124h-112v110h112v118h200v-118h125v118h200v-118h113v-110h-113v-124h113v-110h-113v-118h-200zM362 352v-124h125v124h-125z" />
    <glyph glyph-name="FL0024h" unicode="$" 
d="M353 685h93v-105h304v-110h-304v-125h204q19 0 37.5 -10.5t32 -26.5t22 -35.5t8.5 -37.5v-125q0 -18 -8.5 -37.5t-22 -35.5t-32 -26.5t-37.5 -10.5h-204v-108h-93v108h-303v110h303v125h-203q-20 0 -38 10.5t-31.5 26.5t-22 35.5t-8.5 37.5v125q0 18 8.5 37.5t22 35.5
t31.5 26.5t38 10.5h203v105zM550 235h-104v-125h104v125zM250 470v-125h103v125h-103z" />
    <glyph glyph-name="FL0026h" unicode="%" horiz-adv-x="1030" 
d="M361 0h-162l467 580h162zM749 213v-135h112v135h-112zM980 235v-180q0 -9 -4 -18.5t-11 -18t-16 -13.5t-19 -5h-250q-10 0 -19 5t-16 13.5t-11 18t-4 18.5v180q0 9 4 18.5t11 18t16 13.5t19 5h250q10 0 19 -5t16 -13.5t11 -18t4 -18.5zM169 503v-135h112v135h-112z
M400 525v-180q0 -9 -4 -18.5t-11 -18t-16 -13.5t-19 -5h-250q-10 0 -19 5t-16 13.5t-11 18t-4 18.5v180q0 9 4 18.5t11 18t16 13.5t19 5h250q10 0 19 -5t16 -13.5t11 -18t4 -18.5z" />
    <glyph glyph-name="FL002Ah" unicode="&#x26;" horiz-adv-x="838" 
d="M250 110h274v125h-219v110h483v-110h-65v-235h-573q-20 0 -38 10.5t-31.5 26.5t-22 35.5t-8.5 37.5v112q0 7 5.5 16.5t13 19.5t14.5 18.5t11 13.5q-4 4 -11 12.5t-14.5 19t-13 20.5t-5.5 16v112q0 18 8.5 37.5t22 35.5t31.5 26.5t38 10.5h437q19 0 37.5 -10.5t32 -26.5
t22 -35.5t8.5 -37.5v-55h-200v55h-237v-360z" />
    <glyph glyph-name="FL0027h" unicode="'" horiz-adv-x="235" 
d="M114 395q35 0 53 23.5t18 50.5v111h-135v-185h64z" />
    <glyph glyph-name="FL0028h" unicode="(" horiz-adv-x="459" 
d="M409 -110h-259q-20 0 -38 10.5t-31.5 26.5t-22 35.5t-8.5 37.5v579q0 18 8.5 37.5t22 35.5t31.5 26.5t38 10.5h259v-110h-159v-579h159v-110z" />
    <glyph glyph-name="FL0029h" unicode=")" horiz-adv-x="459" 
d="M49 -110h259q19 0 37.5 10.5t32 26.5t22 35.5t8.5 37.5v579q0 18 -8.5 37.5t-22 35.5t-32 26.5t-37.5 10.5h-259v-110h159v-579h-159v-110z" />
    <glyph glyph-name="FL0F98h" unicode="*" horiz-adv-x="274" 
d="M156 469l51 40l-26 31l43 9l-26 58l-37 -16l2 37h-63l4 -37l-35 16l-19 -58l38 -8l-33 -33l54 -39l24 36z" />
    <glyph glyph-name="FL002Bh" unicode="+" horiz-adv-x="520" 
d="M205 500h110v-155h155v-110h-155v-155h-110v155h-155v110h155v155z" />
    <glyph glyph-name="FL002Ch" unicode="," horiz-adv-x="234" 
d="M113 -72q35 0 53 23.5t18 50.5v108h-134v-182h63z" />
    <glyph glyph-name="FL002Dh" unicode="-" horiz-adv-x="440" 
d="M50 235v110h340v-110h-340z" />
    <glyph glyph-name="period" unicode="." horiz-adv-x="234" 
d="M50 0h134v110h-134v-110z" />
    <glyph glyph-name="FL002Fh" unicode="/" horiz-adv-x="517" 
d="M487 580l-233 -580h-224l233 580h224z" />
    <glyph glyph-name="FL0030h" unicode="0" 
d="M750 470v-360q0 -18 -8.5 -37.5t-22 -35.5t-32 -26.5t-37.5 -10.5h-500q-20 0 -38 10.5t-31.5 26.5t-22 35.5t-8.5 37.5v360q0 18 8.5 37.5t22 35.5t31.5 26.5t38 10.5h500q19 0 37.5 -10.5t32 -26.5t22 -35.5t8.5 -37.5zM250 470v-360h300v360h-300z" />
    <glyph glyph-name="one" unicode="1" horiz-adv-x="390" 
d="M140 0h200v580h-290v-110h90v-470z" />
    <glyph glyph-name="FL0032h" unicode="2" 
d="M250 235h400q19 0 37.5 10.5t32 26.5t22 35.5t8.5 37.5v125q0 18 -8.5 37.5t-22 35.5t-32 26.5t-37.5 10.5h-600v-110h500v-125h-400q-20 0 -38 -10.5t-31.5 -26.5t-22 -35.5t-8.5 -37.5v-235h700v110h-500v125z" />
    <glyph glyph-name="FL0033h" unicode="3" horiz-adv-x="731" 
d="M91 345v-110h390v-125h-431v-110h531q19 0 37.5 10.5t32 26.5t22 35.5t8.5 37.5v112q0 7 -5.5 16.5t-13 19.5t-14.5 18.5t-11 13.5q4 4 11 12.5t14.5 19t13 20.5t5.5 16v112q0 18 -8.5 37.5t-22 35.5t-32 26.5t-37.5 10.5h-531v-110h431v-125h-390z" />
    <glyph glyph-name="four" unicode="4" horiz-adv-x="860" 
d="M525 423l-311 -203h311v203zM525 110h-475v157l481 313h194v-360h85v-110h-85v-110h-200v110z" />
    <glyph glyph-name="five" unicode="5" 
d="M550 235h-500v345h673v-110h-473v-125h400q19 0 37.5 -10.5t32 -26.5t22 -35.5t8.5 -37.5v-125q0 -18 -8.5 -37.5t-22 -35.5t-32 -26.5t-37.5 -10.5h-600v110h500v125z" />
    <glyph glyph-name="FL0036h" unicode="6" 
d="M750 235q0 18 -8.5 37.5t-22 35.5t-32 26.5t-37.5 10.5h-345v-110h245v-125h-300v360h487v110h-587q-20 0 -38 -10.5t-31.5 -26.5t-22 -35.5t-8.5 -37.5v-360q0 -18 8.5 -37.5t22 -35.5t31.5 -26.5t38 -10.5h500q19 0 37.5 10.5t32 26.5t22 35.5t8.5 37.5v125z" />
    <glyph glyph-name="seven" unicode="7" horiz-adv-x="697" 
d="M200 0h219l228 484v96h-597v-105h369z" />
    <glyph glyph-name="FL0038h" unicode="8" 
d="M150 580q-20 0 -38 -10.5t-31.5 -26.5t-22 -35.5t-8.5 -37.5v-112q0 -6 5.5 -16t13 -20.5t14.5 -19t11 -12.5q-4 -5 -11 -13.5t-14.5 -18.5t-13 -19.5t-5.5 -16.5v-112q0 -18 8.5 -37.5t22 -35.5t31.5 -26.5t38 -10.5h500q19 0 37.5 10.5t32 26.5t22 35.5t8.5 37.5v112
q0 7 -5.5 16.5t-13 19.5t-14.5 18.5t-11 13.5q4 4 11 12.5t14.5 19t13 20.5t5.5 16v112q0 18 -8.5 37.5t-22 35.5t-32 26.5t-37.5 10.5h-500zM250 110v360h300v-125h-245v-110h245v-125h-300z" />
    <glyph glyph-name="FL0039h" unicode="9" 
d="M50 345q0 -18 8.5 -37.5t22 -35.5t31.5 -26.5t38 -10.5h345v110h-245v125h300v-360h-487v-110h587q19 0 37.5 10.5t32 26.5t22 35.5t8.5 37.5v360q0 18 -8.5 37.5t-22 35.5t-32 26.5t-37.5 10.5h-500q-20 0 -38 -10.5t-31.5 -26.5t-22 -35.5t-8.5 -37.5v-125z" />
    <glyph glyph-name="FL003Ah" unicode=":" horiz-adv-x="234" 
d="M50 268h134v110h-134v-110zM50 0h134v110h-134v-110z" />
    <glyph glyph-name="FL003Bh" unicode=";" horiz-adv-x="234" 
d="M50 268h134v110h-134v-110zM113 -72q35 0 53 23.5t18 50.5v108h-134v-182h63z" />
    <glyph glyph-name="FL003Ch" unicode="&#x3c;" horiz-adv-x="577" 
d="M298 0l-268 269l356 311h161l-309 -270l309 -310h-249z" />
    <glyph glyph-name="FL003Dh" unicode="=" horiz-adv-x="529" 
d="M50 435h429v-110h-429v110zM50 255h429v-110h-429v110z" />
    <glyph glyph-name="FL003Eh" unicode="&#x3e;" horiz-adv-x="576" 
d="M191 0h-161l308 269l-308 311h249l267 -270z" />
    <glyph glyph-name="FL003Fh" unicode="?" horiz-adv-x="768" 
d="M321 235h297q19 0 37.5 10.5t32 26.5t22 35.5t8.5 37.5v125q0 18 -8.5 37.5t-22 35.5t-32 26.5t-37.5 10.5h-568v-110h468v-125h-290q-20 0 -38 -10.5t-31.5 -26.5t-22 -35.5t-8.5 -37.5v-70h193v70zM321 114h-194v-114h194v114z" />
    <glyph glyph-name="FL0040h" unicode="@" horiz-adv-x="1229" 
d="M523 404v-226h111v-110h-216q-19 0 -36 10.5t-30 27t-21 35.5t-8 37v226q0 18 8.5 37.5t22 35.5t31.5 26.5t38 10.5h383q19 0 37.5 -10.5t32 -26.5t22 -35.5t8.5 -37.5v-226h73v401h-729v-579h909v-110h-1009q-20 0 -38 10.5t-31.5 26.5t-22 35.5t-8.5 37.5v579
q0 18 8.5 37.5t22 35.5t31.5 26.5t38 10.5h929q19 0 37.5 -10.5t32 -26.5t22 -35.5t8.5 -37.5v-401q0 -18 -8.5 -37.5t-22 -35.5t-32 -26.5t-37.5 -10.5h-373v336h-183z" />
    <glyph glyph-name="FL005Eh" unicode="A" horiz-adv-x="830" 
d="M592 518l208 -518h-224l-71 170h-181v110h135l-78 187l-10 1q-13 -1 -19 -20l-179 -448h-143l202 508q11 23 24 37t29 22t34.5 10.5t41.5 2.5h102q51 0 82 -12t47 -50z" />
    <glyph glyph-name="FL0062h" unicode="B" 
d="M750 222v-112q0 -18 -8.5 -37.5t-22 -35.5t-32 -26.5t-37.5 -10.5h-600v580h600q19 0 37.5 -10.5t32 -26.5t22 -35.5t8.5 -37.5v-112q0 -6 -5.5 -16t-13 -20.5t-14.5 -19t-11 -12.5q4 -5 11 -13.5t14.5 -18.5t13 -19.5t5.5 -16.5zM305 345h245v125h-300v-360h300v125
h-245v110z" />
    <glyph glyph-name="FL0063h" unicode="C" horiz-adv-x="731" 
d="M681 0h-531q-20 0 -38 10.5t-31.5 26.5t-22 35.5t-8.5 37.5v360q0 18 8.5 37.5t22 35.5t31.5 26.5t38 10.5h531v-110h-431v-360h431v-110z" />
    <glyph glyph-name="FL0064h" unicode="D" 
d="M750 110q0 -18 -8.5 -37.5t-22 -35.5t-32 -26.5t-37.5 -10.5h-345v110h245v360h-300v-470h-200v580h600q19 0 37.5 -10.5t32 -26.5t22 -35.5t8.5 -37.5v-360z" />
    <glyph glyph-name="FL0065h" unicode="E" horiz-adv-x="731" 
d="M681 0h-531q-20 0 -38 10.5t-31.5 26.5t-22 35.5t-8.5 37.5v360q0 18 8.5 37.5t22 35.5t31.5 26.5t38 10.5h531v-110h-431v-125h390v-110h-390v-125h431v-110z" />
    <glyph glyph-name="FL0066h" unicode="F" horiz-adv-x="731" 
d="M250 0h-200v470q0 18 8.5 37.5t22 35.5t31.5 26.5t38 10.5h531v-110h-431v-125h390v-110h-390v-235z" />
    <glyph glyph-name="g" unicode="G" 
d="M750 339v-229q0 -18 -8.5 -37.5t-22 -35.5t-32 -26.5t-37.5 -10.5h-500q-20 0 -38 10.5t-31.5 26.5t-22 35.5t-8.5 37.5v360q0 18 8.5 37.5t22 35.5t31.5 26.5t38 10.5h600v-110h-500v-360h300v229h200z" />
    <glyph glyph-name="FL0068h" unicode="H" 
d="M250 580v-235h299v235h201v-580h-201v235h-299v-235h-200v580h200z" />
    <glyph glyph-name="i" unicode="I" horiz-adv-x="300" 
d="M50 0h200v580h-200v-580z" />
    <glyph glyph-name="j" unicode="J" horiz-adv-x="669" 
d="M619 110q0 -18 -8.5 -37.5t-22 -35.5t-32 -26.5t-37.5 -10.5h-469v110h369v470h200v-470z" />
    <glyph glyph-name="FL006Bh" unicode="K" 
d="M750 0h-200v235h-300v-235h-200v580h200v-234l269 235h231l-269 -236h169q19 0 37.5 -10.5t32 -26.5t22 -35.5t8.5 -37.5v-235z" />
    <glyph glyph-name="FL006Ch" unicode="L" horiz-adv-x="669" 
d="M49 110q0 -18 8.5 -37.5t22 -35.5t31.5 -26.5t38 -10.5h469v110h-369v470h-200v-470z" />
    <glyph glyph-name="FL006Dh" unicode="M" horiz-adv-x="1117" 
d="M1066 580v-580h-200v448l-259 -448h-163l-260 449v-449h-135v580h287l225 -397l230 397h275z" />
    <glyph glyph-name="FL006Eh" unicode="N" horiz-adv-x="810" 
d="M50 580v-580h135v450l291 -450h284v580h-145v-430l-277 430h-288z" />
    <glyph glyph-name="FL006Fh" unicode="O" 
d="M750 470v-360q0 -18 -8.5 -37.5t-22 -35.5t-32 -26.5t-37.5 -10.5h-500q-20 0 -38 10.5t-31.5 26.5t-22 35.5t-8.5 37.5v360q0 18 8.5 37.5t22 35.5t31.5 26.5t38 10.5h500q19 0 37.5 -10.5t32 -26.5t22 -35.5t8.5 -37.5zM250 470v-360h300v360h-300z" />
    <glyph glyph-name="FL00B2h" unicode="P" 
d="M750 345q0 -18 -8.5 -37.5t-22 -35.5t-32 -26.5t-37.5 -10.5h-345v110h245v125h-300v-470h-200v580h600q19 0 37.5 -10.5t32 -26.5t22 -35.5t8.5 -37.5v-125z" />
    <glyph glyph-name="FL0071h" unicode="Q" 
d="M490 -68l-44 68h-296q-20 0 -38 10.5t-31.5 26.5t-22 35.5t-8.5 37.5v360q0 18 8.5 37.5t22 35.5t31.5 26.5t38 10.5h500q19 0 37.5 -10.5t32 -26.5t22 -35.5t8.5 -37.5v-360q0 -18 -8.5 -37.5t-22 -35.5t-32 -26.5t-37.5 -10.5h-70l44 -68h-134zM250 470v-360h125
l-70 108h134l70 -108h41v360h-300z" />
    <glyph glyph-name="FL0072h" unicode="R" 
d="M750 345q0 -18 -8.5 -37.5t-22 -35.5t-32 -26.5t-37.5 -10.5h-90l218 -235h-234l-239 250v95h245v125h-300v-470h-200v580h600q19 0 37.5 -10.5t32 -26.5t22 -35.5t8.5 -37.5v-125z" />
    <glyph glyph-name="FL00B8h" unicode="S" 
d="M550 235h-400q-20 0 -38 10.5t-31.5 26.5t-22 35.5t-8.5 37.5v125q0 18 8.5 37.5t22 35.5t31.5 26.5t38 10.5h600v-110h-500v-125h400q19 0 37.5 -10.5t32 -26.5t22 -35.5t8.5 -37.5v-125q0 -18 -8.5 -37.5t-22 -35.5t-32 -26.5t-37.5 -10.5h-600v110h500v125z" />
    <glyph glyph-name="t" unicode="T" horiz-adv-x="740" 
d="M50 470v110h640v-110h-220v-470h-200v470h-220z" />
    <glyph glyph-name="FL0075h" unicode="U" 
d="M750 580v-470q0 -18 -8.5 -37.5t-22 -35.5t-32 -26.5t-37.5 -10.5h-500q-20 0 -38 10.5t-31.5 26.5t-22 35.5t-8.5 37.5v470h200v-470h300v470h200z" />
    <glyph glyph-name="v" unicode="V" horiz-adv-x="830" 
d="M30 580l208 -518q16 -38 47 -50t82 -12h102q22 0 41 2.5t35 10.5t29 22t24 37l202 508h-143l-179 -448q-6 -19 -19 -20l-10 1l-195 467h-224z" />
    <glyph glyph-name="FL0077h" unicode="W" horiz-adv-x="1292" 
d="M496 580l78 -196l-100 -252q-6 -19 -19 -20l-6 1q-1 0 -3 2.5t-8 16t-18.5 42t-34 80.5t-53.5 131.5t-78 194.5h-224l208 -518q16 -38 47 -50t82 -12h98q22 0 41 2.5t35 10.5t29 22t24 37l53 131l57 -141q16 -38 47 -50t82 -12h98q22 0 41 2.5t35 10.5t29 22t24 37
l202 508h-143l-179 -448q-6 -19 -19 -20l-6 1l-195 467h-224z" />
    <glyph glyph-name="FL00A5h" unicode="X" horiz-adv-x="871" 
d="M189 0h-159l301 269l-301 311h245l188 -193l219 193h159l-302 -270l302 -310h-245l-189 193z" />
    <glyph glyph-name="FL0025h" unicode="Y" horiz-adv-x="872" 
d="M538 270v-270h-196v262l-312 318h245l200 -198l208 198h159z" />
    <glyph glyph-name="z" unicode="Z" horiz-adv-x="750" 
d="M50 0h650v110h-380l370 350v120h-640v-110h380l-380 -360v-110z" />
    <glyph glyph-name="FL005Bh" unicode="[" horiz-adv-x="459" 
d="M409 -110h-359v799h359v-110h-159v-579h159v-110z" />
    <glyph glyph-name="FL005Ch" unicode="\" horiz-adv-x="517" 
d="M30 580l233 -580h224l-233 580h-224z" />
    <glyph glyph-name="FL005Dh" unicode="]" horiz-adv-x="459" 
d="M49 -110h359v799h-359v-110h159v-579h-159v-110z" />
    <glyph glyph-name="a" unicode="^" 
d="M50 470v-470h200v470h300v-125h-245v-110h245v-235h200v470q0 18 -8.5 37.5t-22 35.5t-32 26.5t-37.5 10.5h-500q-20 0 -38 -10.5t-31.5 -26.5t-22 -35.5t-8.5 -37.5z" />
    <glyph glyph-name="FL005Fh" unicode="_" horiz-adv-x="663" 
d="M50 61h563v-73h-563v73z" />
    <glyph glyph-name="FL0060h" unicode="`" horiz-adv-x="263" 
d="M233 579l-49 95h-154l73 -95h130z" />
    <glyph glyph-name="FL0061h" unicode="a" horiz-adv-x="683" 
d="M50 168v-58q0 -18 8.5 -37.5t22 -35.5t31.5 -26.5t38 -10.5h483v336q0 18 -8.5 37.5t-22 35.5t-32 26.5t-37.5 10.5h-470v-110h370v-226h-183v58h128v110h-228q-20 0 -38 -10.5t-31.5 -26.5t-22 -35.5t-8.5 -37.5z" />
    <glyph glyph-name="FL0B3Bh" unicode="b" horiz-adv-x="683" 
d="M633 336q0 18 -8.5 37.5t-22 35.5t-32 26.5t-37.5 10.5h-228v-110h128v-226h-183v470h-200v-580h483q19 0 37.5 10.5t32 26.5t22 35.5t8.5 37.5v226z" />
    <glyph glyph-name="FL0069h" unicode="c" horiz-adv-x="613" 
d="M563 336h-313v-226h313v-110h-413q-20 0 -38 10.5t-31.5 26.5t-22 35.5t-8.5 37.5v226q0 18 8.5 37.5t22 35.5t31.5 26.5t38 10.5h413v-110z" />
    <glyph glyph-name="FL0B45h" unicode="d" horiz-adv-x="683" 
d="M50 336q0 18 8.5 37.5t22 35.5t31.5 26.5t38 10.5h228v-110h-128v-226h183v470h200v-580h-483q-20 0 -38 10.5t-31.5 26.5t-22 35.5t-8.5 37.5v226z" />
    <glyph glyph-name="FL0067h" unicode="e" horiz-adv-x="683" 
d="M633 278q0 -18 -8.5 -37.5t-22 -35.5t-32 -26.5t-37.5 -10.5h-228v110h128v58h-183v-226h370v-110h-470q-20 0 -38 10.5t-31.5 26.5t-22 35.5t-8.5 37.5v226q0 18 8.5 37.5t22 35.5t31.5 26.5t38 10.5h383q19 0 37.5 -10.5t32 -26.5t22 -35.5t8.5 -37.5v-58z" />
    <glyph glyph-name="FL0CF3h" unicode="f" horiz-adv-x="613" 
d="M50 0v404q0 18 8.5 37.5t22 35.5t31.5 26.5t38 10.5h413v-110h-313v-117h272v-110h-272v-177h-200z" />
    <glyph glyph-name="FL0BD3h" unicode="g" horiz-adv-x="683" 
d="M633 -48v494h-483q-20 0 -38 -10.5t-31.5 -26.5t-22 -35.5t-8.5 -37.5v-226q0 -18 8.5 -37.5t22 -35.5t31.5 -26.5t38 -10.5h228v110h-128v226h183v-384h-304v-110h404q19 0 37.5 10.5t32 26.5t22 35.5t8.5 37.5z" />
    <glyph glyph-name="FL0073h" unicode="h" horiz-adv-x="683" 
d="M50 0h200v336h183v-336h200v336q0 18 -8.5 37.5t-22 35.5t-32 26.5t-37.5 10.5h-283v134h-200v-580z" />
    <glyph glyph-name="FL006Ah" unicode="i" horiz-adv-x="300" 
d="M50 445v-445h200v445h-200zM50 484h200v96h-200v-96z" />
    <glyph glyph-name="FL0B4Fh" unicode="j" horiz-adv-x="300" 
d="M250 -49v494h-200v-494h-59v-110h159q19 0 37.5 10.5t32 26.5t22 35.5t8.5 37.5zM50 580v-96h200v96h-200z" />
    <glyph glyph-name="FL0C2Dh" unicode="k" horiz-adv-x="683" 
d="M50 580v-580h200v202h183v-202h200v202q0 18 -8.5 37.5t-22 35.5t-32 26.5t-37.5 10.5h-68l153 134h-218l-150 -132v266h-200z" />
    <glyph glyph-name="FL0070h" unicode="l" horiz-adv-x="300" 
d="M50 0h200v580h-200v-580z" />
    <glyph glyph-name="FL0078h" unicode="m" horiz-adv-x="948" 
d="M698 0v336h-144v-336h-160v336h-144v-336h-200v446h345q8 0 20 -3.5t24 -8.5t21.5 -10t13.5 -9q4 4 14 9t22 10t23.5 8.5t19.5 3.5h245q19 0 37.5 -10.5t32 -26.5t22 -35.5t8.5 -37.5v-336h-200z" />
    <glyph glyph-name="FL007Ch" unicode="n" horiz-adv-x="691" 
d="M641 0h-200v336h-191v-336h-200v446h491q19 0 37.5 -10.5t32 -26.5t22 -35.5t8.5 -37.5v-336z" />
    <glyph glyph-name="FL0074h" unicode="o" horiz-adv-x="683" 
d="M633 336v-226q0 -18 -8.5 -37.5t-22 -35.5t-32 -26.5t-37.5 -10.5h-383q-20 0 -38 10.5t-31.5 26.5t-22 35.5t-8.5 37.5v226q0 18 8.5 37.5t22 35.5t31.5 26.5t38 10.5h383q19 0 37.5 -10.5t32 -26.5t22 -35.5t8.5 -37.5zM250 336v-226h183v226h-183z" />
    <glyph glyph-name="FL0076h" unicode="p" horiz-adv-x="683" 
d="M633 110q0 -18 -8.5 -37.5t-22 -35.5t-32 -26.5t-37.5 -10.5h-228v110h128v226h-183v-473h-200v583h483q19 0 37.5 -10.5t32 -26.5t22 -35.5t8.5 -37.5v-226z" />
    <glyph glyph-name="FL007Ah" unicode="q" horiz-adv-x="683" 
d="M50 110q0 -18 8.5 -37.5t22 -35.5t31.5 -26.5t38 -10.5h228v110h-128v226h183v-473h200v583h-483q-20 0 -38 -10.5t-31.5 -26.5t-22 -35.5t-8.5 -37.5v-226z" />
    <glyph glyph-name="FL007Dh" unicode="r" horiz-adv-x="499" 
d="M50 0h200v336h199v110h-299q-20 0 -38 -10.5t-31.5 -26.5t-22 -35.5t-8.5 -37.5v-336z" />
    <glyph glyph-name="FL0081h" unicode="s" horiz-adv-x="683" 
d="M633 168v-58q0 -18 -8.5 -37.5t-22 -35.5t-32 -26.5t-37.5 -10.5h-483v110h383v58h-283q-20 0 -38 10.5t-31.5 26.5t-22 35.5t-8.5 37.5v58q0 18 8.5 37.5t22 35.5t31.5 26.5t38 10.5h483v-110h-383v-58h283q19 0 37.5 -10.5t32 -26.5t22 -35.5t8.5 -37.5z" />
    <glyph glyph-name="FL007Fh" unicode="t" horiz-adv-x="573" 
d="M523 0h-373q-20 0 -38 10.5t-31.5 26.5t-22 35.5t-8.5 37.5v470h200v-134h273v-110h-273v-226h273v-110z" />
    <glyph glyph-name="FL007Bh" unicode="u" horiz-adv-x="683" 
d="M633 446h-200v-336h-183v336h-200v-336q0 -18 8.5 -37.5t22 -35.5t31.5 -26.5t38 -10.5h383q19 0 37.5 10.5t32 26.5t22 35.5t8.5 37.5v336z" />
    <glyph glyph-name="FL0082h" unicode="v" horiz-adv-x="696" 
d="M197 48l-167 398h224l129 -333q3 3 6 5.5t5 6.5l129 321h143l-162 -391q-19 -35 -46.5 -45t-65.5 -10h-83q-45 0 -70.5 10.5t-41.5 37.5z" />
    <glyph glyph-name="FL0083h" unicode="w" horiz-adv-x="1062" 
d="M464 271l-63 175h217l131 -333q3 3 6 5.5t5 6.5l129 321h143l-162 -391q-19 -35 -46.5 -45t-65.5 -10h-85q-45 0 -71.5 9t-40.5 39l-31 66l-26 -59q-19 -35 -45 -45t-64 -10h-86q-44 0 -68.5 10.5t-43.5 37.5l-167 398h224l132 -335q6 6 11 14z" />
    <glyph glyph-name="FL0085h" unicode="x" horiz-adv-x="744" 
d="M190 0h-160l237 202l-237 244h248l125 -128l152 128h159l-237 -203l237 -243h-248l-125 127z" />
    <glyph glyph-name="FL0080h" unicode="y" horiz-adv-x="683" 
d="M633 -48v494h-200v-336h-183v336h-200v-336q0 -18 8.5 -37.5t22 -35.5t31.5 -26.5t38 -10.5h283v-48h-304v-110h404q19 0 37.5 10.5t32 26.5t22 35.5t8.5 37.5z" />
    <glyph glyph-name="FL0084h" unicode="z" horiz-adv-x="629" 
d="M579 0v110h-278l278 226v110h-529v-110h272l-272 -226v-110h529z" />
    <glyph glyph-name="FL0087h" unicode="{" horiz-adv-x="459" 
d="M409 -55h-259q-20 0 -38 10.5t-31.5 26.5t-22 35.5t-8.5 37.5v469q0 18 8.5 37.5t22 35.5t31.5 26.5t38 10.5h259v-110h-159v-469h159v-110z" />
    <glyph glyph-name="FL007Eh" unicode="|" horiz-adv-x="294" 
d="M50 -158h194v891h-194v-891z" />
    <glyph glyph-name="FL0088h" unicode="}" horiz-adv-x="459" 
d="M49 -55h259q19 0 37.5 10.5t32 26.5t22 35.5t8.5 37.5v469q0 18 -8.5 37.5t-22 35.5t-32 26.5t-37.5 10.5h-259v-110h159v-469h-159v-110z" />
    <glyph glyph-name="FL0089h" unicode="~" horiz-adv-x="527" 
d="M213 308l-40 -73h-143l66 109h174l44 -73l40 73h143l-66 -109h-174z" />
    <glyph glyph-name="FL0086h" horiz-adv-x="258" 
 />
    <glyph glyph-name="FL00A1h" unicode="&#xa1;" horiz-adv-x="294" 
d="M50 417v-417h194v417h-194zM50 466h194v114h-194v-114z" />
    <glyph glyph-name="FL00A2h" unicode="&#xa2;" horiz-adv-x="613" 
d="M357 580h93v-66h113v-110h-113v-226h113v-110h-113v-68h-93v68h-207q-20 0 -38 10.5t-31.5 26.5t-22 35.5t-8.5 37.5v226q0 18 8.5 37.5t22 35.5t31.5 26.5t38 10.5h207v66zM250 404v-226h107v226h-107z" />
    <glyph glyph-name="FL00A3h" unicode="&#xa3;" horiz-adv-x="688" 
d="M50 344h105q-4 7 -4 14v112q0 18 8.5 37.5t22 35.5t31.5 26.5t38 10.5h195v-110h-95v-125h185v-110h-185v-125h287v-110h-588v110h101v112q0 5 3 13h-104v109z" />
    <glyph glyph-name="FL00A4h" unicode="&#xa4;" horiz-adv-x="885" 
d="M643 389v-176l212 -213h-249l-129 129h-138l-148 -129h-161l217 190v170l-217 220h249l129 -130h136l150 130h161l-212 -186v-5zM382 365v-150h126v150h-126z" />
    <glyph glyph-name="FL00A6h" unicode="&#xa5;" horiz-adv-x="890" 
d="M154 333h124l-248 247h249l206 -198l213 198h162l-248 -247h114v-110h-177v-46h177v-110h-177v-67h-200v67h-195v110h195v46h-195v110z" />
    <glyph glyph-name="FL00A7h" unicode="&#xa6;" horiz-adv-x="294" 
d="M50 -158v421h194v-421h-194zM244 312h-194v421h194v-421z" />
    <glyph glyph-name="FL00ACh" unicode="&#xa7;" horiz-adv-x="683" 
d="M633 318v-58q0 -14 -9.5 -28t-17.5 -27q8 -14 17.5 -27.5t9.5 -27.5v-58q0 -18 -8.5 -37.5t-22 -35.5t-32 -26.5t-37.5 -10.5h-463v110h363v58h-283q-20 0 -38 10.5t-31.5 26.5t-22 35.5t-8.5 37.5v58q0 14 9 27.5t17 27.5q-8 13 -17 27t-9 28v58q0 18 8.5 37.5t22 35.5
t31.5 26.5t38 10.5h463v-110h-363v-58h283q19 0 37.5 -10.5t32 -26.5t22 -35.5t8.5 -37.5zM250 321v-64h183v64h-183z" />
    <glyph glyph-name="FL00A8h" unicode="&#xa8;" horiz-adv-x="504" 
d="M50 579h159v95h-159v-95zM295 579h159v95h-159v-95z" />
    <glyph glyph-name="FL00B1h" unicode="&#xa9;" horiz-adv-x="270" 
d="M135 630q-7 0 -42 -11q-19 -9 -32 -31q-5 -11 -8 -21t-3 -22q0 -24 11 -41q6 -11 13 -17t16 -13l3 -2q36 -11 42 -11q1 0 11.5 1.5t30.5 9.5q11 8 18.5 14.5t12.5 17.5q12 21 12 41q0 23 -12 43q-9 20 -32 31q-20 11 -41 11zM135 617q18 0 34 -10q18 -9 27.5 -26t9.5 -36
q0 -18 -10 -34q-11 -18 -26 -26q-17 -9 -35 -9t-31 7l-5 2q-4 2 -10.5 8.5t-14.5 17.5q-10 16 -10 34q0 30 21.5 51t49.5 21zM162 533q-4 -22 -28 -22q-28 0 -28 34q0 36 30 36q16 0 25 -17l13 3q-11 27 -38 27q-21 0 -33 -12.5t-12 -36.5q0 -23 12 -35.5t32 -12.5
q32 0 41 31z" />
    <glyph glyph-name="FL00AAh" unicode="&#xaa;" horiz-adv-x="696" 
d="M284 88v110h81l-52 135q-3 -3 -6 -5.5t-5 -6.5l-129 -321h-143l162 391q19 35 46.5 45t65.5 10h83q45 0 70.5 -10.5t41.5 -37.5l167 -398h-224l-34 88h-124z" />
    <glyph glyph-name="FL00ABh" unicode="&#xab;" horiz-adv-x="347" 
d="M230 290l66 43v155l-95 -68v-260l95 -68v155zM78 290l66 43v155l-95 -68v-260l95 -68v155z" />
    <glyph glyph-name="FL00ADh" unicode="&#xac;" horiz-adv-x="520" 
d="M50 345h420v-265h-110v155h-310v110z" />
    <glyph glyph-name="FL00AEh" unicode="&#xad;" horiz-adv-x="360" 
d="M50 235v110h260v-110h-260z" />
    <glyph glyph-name="FL00A9h" unicode="&#xae;" horiz-adv-x="270" 
d="M135 630q-7 0 -42 -11q-11 -6 -18.5 -14t-13.5 -17q-5 -11 -8 -21t-3 -22q0 -24 11 -41t32 -32q17 -11 42 -11q1 0 13 1.5t29 9.5q22 13 31 32q12 21 12 41q0 23 -12 43q-11 20 -32 31q-20 11 -41 11zM135 617q18 0 34 -10q37 -21 37 -57q0 -21 -10 -40q-5 -8 -12 -14
t-14 -11q-16 -10 -35 -10q3 0 -4.5 2t-26.5 6l-5 2q-16 10 -25 25q-5 17 -7.5 26l-2.5 9q0 30 21.5 51t49.5 21zM98 499h15v39h8q8 0 11 -4q6 -1 17 -21l7 -14h19l-12 18l-10.5 15t-10.5 8q12 1 19 8t7 17q0 6 -5 14l-3 3t-7 5q-6 3 -24 3h-31v-91zM113 549v28h31
q9 -5 9 -13q0 -7 -4.5 -11t-18.5 -4h-17z" />
    <glyph glyph-name="FL00AFh" unicode="&#xaf;" horiz-adv-x="663" 
d="M50 592h563v-73h-563v73z" />
    <glyph glyph-name="FL00B0h" unicode="&#xb0;" horiz-adv-x="259" 
d="M209 580h-159v95h159v-95zM103 615h53v26h-53v-26z" />
    <glyph glyph-name="FL00BEh" unicode="&#xb1;" horiz-adv-x="520" 
d="M205 580h110v-155h155v-110h-155v-155h-110v155h-155v110h155v155zM50 110h420v-110h-420v110z" />
    <glyph glyph-name="FL00B6h" unicode="&#xb2;" horiz-adv-x="450" 
d="M169 444h181q10 0 19 7t16 17t11 21.5t4 20.5v63q0 9 -4 18.5t-11 18t-16 13.5t-19 5h-300v-77h231v-30h-181q-10 0 -19 -5t-16 -13.5t-11 -18t-4 -18.5v-128h350v78h-231v28z" />
    <glyph glyph-name="FL00B3h" unicode="&#xb3;" horiz-adv-x="415" 
d="M70 521v-77h176v-28h-196v-78h265q10 0 19 5t16 13.5t11 18t4 18.5v56q0 7 -9 18t-13 16q4 4 13 16t9 18v56q0 9 -4 18.5t-11 18t-16 13.5t-19 5h-265v-77h196v-30h-176z" />
    <glyph glyph-name="FL00B4h" unicode="&#xb4;" horiz-adv-x="263" 
d="M30 579l49 95h154l-73 -95h-130z" />
    <glyph glyph-name="FL00B5h" unicode="&#xb5;" horiz-adv-x="683" 
d="M433 446h200v-336q0 -18 -8.5 -37.5t-22 -35.5t-32 -26.5t-37.5 -10.5h-283v-137h-200v583h200v-336h183v336z" />
    <glyph glyph-name="FL00BDh" unicode="&#xb6;" horiz-adv-x="742" 
d="M50 345q0 -18 8.5 -37.5t22 -35.5t31.5 -26.5t38 -10.5h57v-385h201v620h84v-620h200v730h-542q-20 0 -38 -10.5t-31.5 -26.5t-22 -35.5t-8.5 -37.5v-125z" />
    <glyph glyph-name="FL00B7h" unicode="&#xb7;" horiz-adv-x="234" 
d="M50 235h134v110h-134v-110z" />
    <glyph glyph-name="FL00B9h" unicode="&#xb8;" horiz-adv-x="216" 
d="M166 -57q0 -18 -8.5 -37.5t-22 -35t-32 -26t-37.5 -10.5h-80v109h65v58h115v-58z" />
    <glyph glyph-name="FL00BCh" unicode="&#xb9;" horiz-adv-x="273" 
d="M223 628v-290h-119v213h-54v77h173z" />
    <glyph glyph-name="FL00BAh" unicode="&#xba;" horiz-adv-x="450" 
d="M169 551v-135h112v135h-112zM400 573v-180q0 -9 -4 -18.5t-11 -18t-16 -13.5t-19 -5h-250q-10 0 -19 5t-16 13.5t-11 18t-4 18.5v180q0 9 4 18.5t11 18t16 13.5t19 5h250q10 0 19 -5t16 -13.5t11 -18t4 -18.5z" />
    <glyph glyph-name="FL00BBh" unicode="&#xbb;" horiz-adv-x="347" 
d="M116 290l-66 43v155l95 -68v-260l-95 -68v155zM268 290l-66 43v155l95 -68v-260l-95 -68v155z" />
    <glyph glyph-name="FL03A7h" unicode="&#xbc;" horiz-adv-x="816" 
d="M212 0h-162l467 580h162zM228 580v-290h-119v213h-54v77h173zM603 188l-83 -54h83v54zM603 55h-217v78l240 157h97v-156h43v-79h-43v-55h-120v55z" />
    <glyph glyph-name="FL037Ah" unicode="&#xbd;" horiz-adv-x="904" 
d="M804 106h-181v-28h231v-78h-350v128q0 9 4 18.5t11 18t16 13.5t19 5h181v30h-231v77h300q10 0 19 -5t16 -13.5t11 -18t4 -18.5v-63q0 -9 -4 -20.5t-11 -21.5t-16 -17t-19 -7zM212 0h-162l467 580h162zM228 580v-290h-119v213h-54v77h173z" />
    <glyph glyph-name="FL03CFh" unicode="&#xbe;" horiz-adv-x="931" 
d="M501 55h217v-55h120v55h43v79h-43v156h-97l-240 -157v-78zM635 134l83 54v-54h-83zM165 0h162l467 580h-162zM70 473v-77h176v-28h-196v-78h265q10 0 19 5t16 13.5t11 18t4 18.5v56q0 7 -9 18t-13 16q4 4 13 16t9 18v56q0 9 -4 18.5t-11 18t-16 13.5t-19 5h-265v-77h196
v-30h-176z" />
    <glyph glyph-name="FL00BFh" unicode="&#xbf;" horiz-adv-x="768" 
d="M447 345h-297q-20 0 -38 -10.5t-31.5 -26.5t-22 -35.5t-8.5 -37.5v-125q0 -18 8.5 -37.5t22 -35.5t31.5 -26.5t38 -10.5h568v110h-468v125h290q19 0 37.5 10.5t32 26.5t22 35.5t8.5 37.5v70h-193v-70zM447 466h194v114h-194v-114z" />
    <glyph glyph-name="FL00C0h" unicode="&#xc0;" 
d="M490 638l-49 95h-154l73 -95h130zM50 470v-470h200v470h300v-125h-245v-110h245v-235h200v470q0 18 -8.5 37.5t-22 35.5t-32 26.5t-37.5 10.5h-500q-20 0 -38 -10.5t-31.5 -26.5t-22 -35.5t-8.5 -37.5z" />
    <glyph glyph-name="FL00C1h" unicode="&#xc1;" 
d="M359 733l-49 -95h130l73 95h-154zM50 470v-470h200v470h300v-125h-245v-110h245v-235h200v470q0 18 -8.5 37.5t-22 35.5t-32 26.5t-37.5 10.5h-500q-20 0 -38 -10.5t-31.5 -26.5t-22 -35.5t-8.5 -37.5z" />
    <glyph glyph-name="FL00C2h" unicode="&#xc2;" 
d="M400 705l43 -66h155l-68 95h-260l-68 -95h155zM50 470v-470h200v470h300v-125h-245v-110h245v-235h200v470q0 18 -8.5 37.5t-22 35.5t-32 26.5t-37.5 10.5h-500q-20 0 -38 -10.5t-31.5 -26.5t-22 -35.5t-8.5 -37.5z" />
    <glyph glyph-name="FL00C3h" unicode="&#xc3;" 
d="M305 639l41 63l45 -63h177l68 95h-145l-41 -63l-45 63h-177l-68 -95h145zM50 470v-470h200v470h300v-125h-245v-110h245v-235h200v470q0 18 -8.5 37.5t-22 35.5t-32 26.5t-37.5 10.5h-500q-20 0 -38 -10.5t-31.5 -26.5t-22 -35.5t-8.5 -37.5z" />
    <glyph glyph-name="FL00C4h" unicode="&#xc4;" 
d="M198 639h159v95h-159v-95zM443 639h159v95h-159v-95zM50 470v-470h200v470h300v-125h-245v-110h245v-235h200v470q0 18 -8.5 37.5t-22 35.5t-32 26.5t-37.5 10.5h-500q-20 0 -38 -10.5t-31.5 -26.5t-22 -35.5t-8.5 -37.5z" />
    <glyph glyph-name="FL00C5h" unicode="&#xc5;" 
d="M50 0v470q0 18 8.5 37.5t22 35.5t31.5 26.5t38 10.5h500q19 0 37.5 -10.5t32 -26.5t22 -35.5t8.5 -37.5v-470h-200v235h-245v110h245v125h-300v-470h-200zM479 639h-159v95h159v-95zM373 674h53v26h-53v-26z" />
    <glyph glyph-name="FL00C6h" unicode="&#xc6;" horiz-adv-x="1231" 
d="M50 0v470q0 18 8.5 37.5t22 35.5t31.5 26.5t38 10.5h1031v-110h-431v-125h390v-110h-390v-125h431v-110h-631v235h-245v110h245v125h-300v-470h-200z" />
    <glyph glyph-name="FL00C7h" unicode="&#xc7;" horiz-adv-x="731" 
d="M474 -57q0 -18 -8.5 -37.5t-22 -35t-32 -26t-37.5 -10.5h-80v109h65v57h-209q-20 0 -38 10.5t-31.5 26.5t-22 35.5t-8.5 37.5v360q0 18 8.5 37.5t22 35.5t31.5 26.5t38 10.5h531v-110h-431v-360h431v-110h-207v-57z" />
    <glyph glyph-name="FL00C8h" unicode="&#xc8;" horiz-adv-x="731" 
d="M150 0h531v110h-431v125h390v110h-390v125h431v110h-531q-20 0 -38 -10.5t-31.5 -26.5t-22 -35.5t-8.5 -37.5v-360q0 -18 8.5 -37.5t22 -35.5t31.5 -26.5t38 -10.5zM475 638l-49 95h-154l73 -95h130z" />
    <glyph glyph-name="FL00C9h" unicode="&#xc9;" horiz-adv-x="731" 
d="M329 733l-49 -95h130l73 95h-154zM150 0h531v110h-431v125h390v110h-390v125h431v110h-531q-20 0 -38 -10.5t-31.5 -26.5t-22 -35.5t-8.5 -37.5v-360q0 -18 8.5 -37.5t22 -35.5t31.5 -26.5t38 -10.5z" />
    <glyph glyph-name="FL00CAh" unicode="&#xca;" horiz-adv-x="731" 
d="M373 705l43 -66h155l-68 95h-260l-68 -95h155zM150 0h531v110h-431v125h390v110h-390v125h431v110h-531q-20 0 -38 -10.5t-31.5 -26.5t-22 -35.5t-8.5 -37.5v-360q0 -18 8.5 -37.5t22 -35.5t31.5 -26.5t38 -10.5z" />
    <glyph glyph-name="FL00CBh" unicode="&#xcb;" horiz-adv-x="731" 
d="M575 639h-159v95h159v-95zM330 639h-159v95h159v-95zM681 0h-531q-20 0 -38 10.5t-31.5 26.5t-22 35.5t-8.5 37.5v360q0 18 8.5 37.5t22 35.5t31.5 26.5t38 10.5h531v-110h-431v-125h390v-110h-390v-125h431v-110z" />
    <glyph glyph-name="FL00CCh" unicode="&#xcc;" horiz-adv-x="300" 
d="M251 638l-49 95h-154l73 -95h130zM50 0h200v580h-200v-580z" />
    <glyph glyph-name="FL00CDh" unicode="&#xcd;" horiz-adv-x="300" 
d="M97 733l-49 -95h130l73 95h-154zM50 0h200v580h-200v-580z" />
    <glyph glyph-name="FL00CEh" unicode="&#xce;" horiz-adv-x="300" 
d="M150 705l43 -66h155l-68 95h-260l-68 -95h155zM50 0h200v580h-200v-580z" />
    <glyph glyph-name="FL00CFh" unicode="&#xcf;" horiz-adv-x="300" 
d="M-52 639h159v95h-159v-95zM193 639h159v95h-159v-95zM50 0h200v580h-200v-580z" />
    <glyph glyph-name="FL00D0h" unicode="&#xd0;" horiz-adv-x="917" 
d="M50 235v110h117v235h600q19 0 37.5 -10.5t32 -26.5t22 -35.5t8.5 -37.5v-360q0 -18 -8.5 -37.5t-22 -35.5t-32 -26.5t-37.5 -10.5h-345v110h245v360h-300v-125h127v-110h-127v-235h-200v235h-117z" />
    <glyph glyph-name="FL00D1h" unicode="&#xd1;" horiz-adv-x="810" 
d="M353 702l-41 -63h-145l68 95h177l45 -63l41 63h145l-68 -95h-177zM50 0v580h288l277 -430v430h145v-580h-284l-291 450v-450h-135z" />
    <glyph glyph-name="FL00D2h" unicode="&#xd2;" 
d="M50 470v-360q0 -18 8.5 -37.5t22 -35.5t31.5 -26.5t38 -10.5h500q19 0 37.5 10.5t32 26.5t22 35.5t8.5 37.5v360q0 18 -8.5 37.5t-22 35.5t-32 26.5t-37.5 10.5h-500q-20 0 -38 -10.5t-31.5 -26.5t-22 -35.5t-8.5 -37.5zM550 470v-360h-300v360h300zM490 638l-49 95h-154
l73 -95h130z" />
    <glyph glyph-name="FL00D3h" unicode="&#xd3;" 
d="M359 733l-49 -95h130l73 95h-154zM250 110v360h300v-360h-300zM750 110v360q0 18 -8.5 37.5t-22 35.5t-32 26.5t-37.5 10.5h-500q-20 0 -38 -10.5t-31.5 -26.5t-22 -35.5t-8.5 -37.5v-360q0 -18 8.5 -37.5t22 -35.5t31.5 -26.5t38 -10.5h500q19 0 37.5 10.5t32 26.5
t22 35.5t8.5 37.5z" />
    <glyph glyph-name="FL00D4h" unicode="&#xd4;" 
d="M400 705l43 -66h155l-68 95h-260l-68 -95h155zM250 110v360h300v-360h-300zM750 110v360q0 18 -8.5 37.5t-22 35.5t-32 26.5t-37.5 10.5h-500q-20 0 -38 -10.5t-31.5 -26.5t-22 -35.5t-8.5 -37.5v-360q0 -18 8.5 -37.5t22 -35.5t31.5 -26.5t38 -10.5h500q19 0 37.5 10.5
t32 26.5t22 35.5t8.5 37.5z" />
    <glyph glyph-name="FL00D5h" unicode="&#xd5;" 
d="M346 702l-41 -63h-145l68 95h177l45 -63l41 63h145l-68 -95h-177zM750 470v-360q0 -18 -8.5 -37.5t-22 -35.5t-32 -26.5t-37.5 -10.5h-500q-20 0 -38 10.5t-31.5 26.5t-22 35.5t-8.5 37.5v360q0 18 8.5 37.5t22 35.5t31.5 26.5t38 10.5h500q19 0 37.5 -10.5t32 -26.5
t22 -35.5t8.5 -37.5zM250 470v-360h300v360h-300z" />
    <glyph glyph-name="FL00D6h" unicode="&#xd6;" 
d="M198 639h159v95h-159v-95zM443 639h159v95h-159v-95zM250 110v360h300v-360h-300zM750 110v360q0 18 -8.5 37.5t-22 35.5t-32 26.5t-37.5 10.5h-500q-20 0 -38 -10.5t-31.5 -26.5t-22 -35.5t-8.5 -37.5v-360q0 -18 8.5 -37.5t22 -35.5t31.5 -26.5t38 -10.5h500
q19 0 37.5 10.5t32 26.5t22 35.5t8.5 37.5z" />
    <glyph glyph-name="FL00D7h" unicode="&#xd7;" horiz-adv-x="474" 
d="M347 477l77 -77l-109 -110l109 -110l-77 -77l-110 109l-110 -109l-77 77l109 110l-109 110l77 77l110 -109z" />
    <glyph glyph-name="FL00D8h" unicode="&#xd8;" 
d="M750 470v-360q0 -18 -8.5 -37.5t-22 -35.5t-32 -26.5t-37.5 -10.5h-500q-20 0 -38 10.5t-31.5 26.5t-22 35.5t-8.5 37.5v360q0 18 8.5 37.5t22 35.5t31.5 26.5t38 10.5h500q19 0 37.5 -10.5t32 -26.5t22 -35.5t8.5 -37.5zM250 470v-275l216 275h-216zM550 110v275
l-216 -275h216z" />
    <glyph glyph-name="FL00D9h" unicode="&#xd9;" 
d="M441 733l49 -95h-130l-73 95h154zM750 580v-470q0 -18 -8.5 -37.5t-22 -35.5t-32 -26.5t-37.5 -10.5h-500q-20 0 -38 10.5t-31.5 26.5t-22 35.5t-8.5 37.5v470h200v-470h300v470h200z" />
    <glyph glyph-name="FL00DAh" unicode="&#xda;" 
d="M310 638l49 95h154l-73 -95h-130zM750 580v-470q0 -18 -8.5 -37.5t-22 -35.5t-32 -26.5t-37.5 -10.5h-500q-20 0 -38 10.5t-31.5 26.5t-22 35.5t-8.5 37.5v470h200v-470h300v470h200z" />
    <glyph glyph-name="FL00DBh" unicode="&#xdb;" 
d="M443 639l-43 66l-43 -66h-155l68 95h260l68 -95h-155zM750 580v-470q0 -18 -8.5 -37.5t-22 -35.5t-32 -26.5t-37.5 -10.5h-500q-20 0 -38 10.5t-31.5 26.5t-22 35.5t-8.5 37.5v470h200v-470h300v470h200z" />
    <glyph glyph-name="FL00DCh" unicode="&#xdc;" 
d="M602 639h-159v95h159v-95zM357 639h-159v95h159v-95zM750 580v-470q0 -18 -8.5 -37.5t-22 -35.5t-32 -26.5t-37.5 -10.5h-500q-20 0 -38 10.5t-31.5 26.5t-22 35.5t-8.5 37.5v470h200v-470h300v470h200z" />
    <glyph glyph-name="FL00DDh" unicode="&#xdd;" horiz-adv-x="890" 
d="M549 0v270l311 310h-162l-213 -198l-206 198h-249l319 -318v-262h200zM437 733l-49 -95h130l73 95h-154z" />
    <glyph glyph-name="FL00DEh" unicode="&#xde;" 
d="M50 0v580h200v-118h400q19 0 37.5 -10.5t32 -26.5t22 -35.5t8.5 -37.5v-125q0 -18 -8.5 -37.5t-22 -35.5t-32 -26.5t-37.5 -10.5h-345v110h245v125h-300v-352h-200z" />
    <glyph glyph-name="FL00DFh" unicode="&#xdf;" 
d="M150 580h500q19 0 37.5 -10.5t32 -26.5t22 -35.5t8.5 -37.5v-112q0 -6 -5.5 -16t-13 -20.5t-14.5 -19t-11 -12.5q4 -5 11 -13.5t14.5 -18.5t13 -19.5t5.5 -16.5v-112q0 -18 -8.5 -37.5t-22 -35.5t-32 -26.5t-37.5 -10.5h-295v110h195v125h-195v110h195v125h-300v-470
h-200v470q0 18 8.5 37.5t22 35.5t31.5 26.5t38 10.5z" />
    <glyph glyph-name="FL00E0h" unicode="&#xe0;" horiz-adv-x="683" 
d="M433 505l-49 95h-154l73 -95h130zM50 168v-58q0 -18 8.5 -37.5t22 -35.5t31.5 -26.5t38 -10.5h483v336q0 18 -8.5 37.5t-22 35.5t-32 26.5t-37.5 10.5h-470v-110h370v-226h-183v58h128v110h-228q-20 0 -38 -10.5t-31.5 -26.5t-22 -35.5t-8.5 -37.5z" />
    <glyph glyph-name="FL00E1h" unicode="&#xe1;" horiz-adv-x="683" 
d="M298 600l-49 -95h130l73 95h-154zM50 168v-58q0 -18 8.5 -37.5t22 -35.5t31.5 -26.5t38 -10.5h483v336q0 18 -8.5 37.5t-22 35.5t-32 26.5t-37.5 10.5h-470v-110h370v-226h-183v58h128v110h-228q-20 0 -38 -10.5t-31.5 -26.5t-22 -35.5t-8.5 -37.5z" />
    <glyph glyph-name="FL00E2h" unicode="&#xe2;" horiz-adv-x="683" 
d="M341 571l43 -66h155l-68 95h-260l-68 -95h155zM50 168v-58q0 -18 8.5 -37.5t22 -35.5t31.5 -26.5t38 -10.5h483v336q0 18 -8.5 37.5t-22 35.5t-32 26.5t-37.5 10.5h-470v-110h370v-226h-183v58h128v110h-228q-20 0 -38 -10.5t-31.5 -26.5t-22 -35.5t-8.5 -37.5z" />
    <glyph glyph-name="FL00E3h" unicode="&#xe3;" horiz-adv-x="683" 
d="M247 505l41 63l45 -63h177l68 95h-145l-41 -63l-45 63h-177l-68 -95h145zM50 168v-58q0 -18 8.5 -37.5t22 -35.5t31.5 -26.5t38 -10.5h483v336q0 18 -8.5 37.5t-22 35.5t-32 26.5t-37.5 10.5h-470v-110h370v-226h-183v58h128v110h-228q-20 0 -38 -10.5t-31.5 -26.5
t-22 -35.5t-8.5 -37.5z" />
    <glyph glyph-name="FL00E4h" unicode="&#xe4;" horiz-adv-x="683" 
d="M139 505h159v95h-159v-95zM384 505h159v95h-159v-95zM50 168v-58q0 -18 8.5 -37.5t22 -35.5t31.5 -26.5t38 -10.5h483v336q0 18 -8.5 37.5t-22 35.5t-32 26.5t-37.5 10.5h-470v-110h370v-226h-183v58h128v110h-228q-20 0 -38 -10.5t-31.5 -26.5t-22 -35.5t-8.5 -37.5z
" />
    <glyph glyph-name="FL00E5h" unicode="&#xe5;" horiz-adv-x="683" 
d="M421 505h-159v95h159v-95zM315 540h53v26h-53v-26zM50 110v58q0 18 8.5 37.5t22 35.5t31.5 26.5t38 10.5h228v-110h-128v-58h183v226h-370v110h470q19 0 37.5 -10.5t32 -26.5t22 -35.5t8.5 -37.5v-336h-483q-20 0 -38 10.5t-31.5 26.5t-22 35.5t-8.5 37.5z" />
    <glyph glyph-name="FL00E6h" unicode="&#xe6;" horiz-adv-x="1066" 
d="M50 168q0 18 8.5 37.5t22 35.5t31.5 26.5t38 10.5h228v-110h-128v-58h183v226h-370v110h853q19 0 37.5 -10.5t32 -26.5t22 -35.5t8.5 -37.5v-58q0 -18 -8.5 -37.5t-22 -35.5t-32 -26.5t-37.5 -10.5h-228v110h128v58h-183v-226h370v-110h-853q-20 0 -38 10.5t-31.5 26.5
t-22 35.5t-8.5 37.5v58z" />
    <glyph glyph-name="FL00E7h" unicode="&#xe7;" horiz-adv-x="613" 
d="M415 -57q0 -18 -8.5 -37.5t-22 -35t-32 -26t-37.5 -10.5h-80v109h65v57h-150q-20 0 -38 10.5t-31.5 26.5t-22 35.5t-8.5 37.5v226q0 18 8.5 37.5t22 35.5t31.5 26.5t38 10.5h413v-110h-313v-226h313v-110h-148v-57z" />
    <glyph glyph-name="FL00E8h" unicode="&#xe8;" horiz-adv-x="683" 
d="M384 600l49 -95h-130l-73 95h154zM633 278q0 -18 -8.5 -37.5t-22 -35.5t-32 -26.5t-37.5 -10.5h-228v110h128v58h-183v-226h370v-110h-470q-20 0 -38 10.5t-31.5 26.5t-22 35.5t-8.5 37.5v226q0 18 8.5 37.5t22 35.5t31.5 26.5t38 10.5h383q19 0 37.5 -10.5t32 -26.5
t22 -35.5t8.5 -37.5v-58z" />
    <glyph glyph-name="FL00E9h" unicode="&#xe9;" horiz-adv-x="683" 
d="M249 505l49 95h154l-73 -95h-130zM633 278q0 -18 -8.5 -37.5t-22 -35.5t-32 -26.5t-37.5 -10.5h-228v110h128v58h-183v-226h370v-110h-470q-20 0 -38 10.5t-31.5 26.5t-22 35.5t-8.5 37.5v226q0 18 8.5 37.5t22 35.5t31.5 26.5t38 10.5h383q19 0 37.5 -10.5t32 -26.5
t22 -35.5t8.5 -37.5v-58z" />
    <glyph glyph-name="FL00EAh" unicode="&#xea;" horiz-adv-x="683" 
d="M384 505l-43 66l-43 -66h-155l68 95h260l68 -95h-155zM633 278q0 -18 -8.5 -37.5t-22 -35.5t-32 -26.5t-37.5 -10.5h-228v110h128v58h-183v-226h370v-110h-470q-20 0 -38 10.5t-31.5 26.5t-22 35.5t-8.5 37.5v226q0 18 8.5 37.5t22 35.5t31.5 26.5t38 10.5h383
q19 0 37.5 -10.5t32 -26.5t22 -35.5t8.5 -37.5v-58z" />
    <glyph glyph-name="FL00EBh" unicode="&#xeb;" horiz-adv-x="683" 
d="M543 505h-159v95h159v-95zM298 505h-159v95h159v-95zM633 278q0 -18 -8.5 -37.5t-22 -35.5t-32 -26.5t-37.5 -10.5h-228v110h128v58h-183v-226h370v-110h-470q-20 0 -38 10.5t-31.5 26.5t-22 35.5t-8.5 37.5v226q0 18 8.5 37.5t22 35.5t31.5 26.5t38 10.5h383
q19 0 37.5 -10.5t32 -26.5t22 -35.5t8.5 -37.5v-58z" />
    <glyph glyph-name="FL00ECh" unicode="&#xec;" horiz-adv-x="300" 
d="M251 505l-49 95h-154l73 -95h130zM50 445v-445h200v445h-200z" />
    <glyph glyph-name="FL00EDh" unicode="&#xed;" horiz-adv-x="300" 
d="M97 600l-49 -95h130l73 95h-154zM50 445v-445h200v445h-200z" />
    <glyph glyph-name="FL00EEh" unicode="&#xee;" horiz-adv-x="300" 
d="M150 571l43 -66h155l-68 95h-260l-68 -95h155zM50 445v-445h200v445h-200z" />
    <glyph glyph-name="FL00EFh" unicode="&#xef;" horiz-adv-x="300" 
d="M-52 485h159v95h-159v-95zM193 485h159v95h-159v-95zM50 445v-445h200v445h-200z" />
    <glyph glyph-name="FL00F0h" unicode="&#xf0;" 
d="M302 650h110v-70h238q19 0 37.5 -10.5t32 -26.5t22 -35.5t8.5 -37.5v-360q0 -18 -8.5 -37.5t-22 -35.5t-32 -26.5t-37.5 -10.5h-500q-20 0 -38 10.5t-31.5 26.5t-22 35.5t-8.5 37.5v125q0 18 8.5 37.5t22 35.5t31.5 26.5t38 10.5h345v-110h-245v-125h300v360h-138v-69
h-110v69h-239v110h239v70z" />
    <glyph glyph-name="FL00F1h" unicode="&#xf1;" horiz-adv-x="691" 
d="M290 568l-41 -63h-145l68 95h177l45 -63l41 63h145l-68 -95h-177zM641 0h-200v336h-191v-336h-200v446h491q19 0 37.5 -10.5t32 -26.5t22 -35.5t8.5 -37.5v-336z" />
    <glyph glyph-name="FL00F2h" unicode="&#xf2;" horiz-adv-x="683" 
d="M433 505l-49 95h-154l73 -95h130zM433 110h-183v226h183v-226zM633 110v226q0 18 -8.5 37.5t-22 35.5t-32 26.5t-37.5 10.5h-383q-20 0 -38 -10.5t-31.5 -26.5t-22 -35.5t-8.5 -37.5v-226q0 -18 8.5 -37.5t22 -35.5t31.5 -26.5t38 -10.5h383q19 0 37.5 10.5t32 26.5
t22 35.5t8.5 37.5z" />
    <glyph glyph-name="FL00F3h" unicode="&#xf3;" horiz-adv-x="683" 
d="M49 336v-226q0 -18 8.5 -37.5t22 -35.5t31.5 -26.5t38 -10.5h383q19 0 37.5 10.5t32 26.5t22 35.5t8.5 37.5v226q0 18 -8.5 37.5t-22 35.5t-32 26.5t-37.5 10.5h-383q-20 0 -38 -10.5t-31.5 -26.5t-22 -35.5t-8.5 -37.5zM432 110h-183v226h183v-226zM298 600l-49 -95h130
l73 95h-154z" />
    <glyph glyph-name="FL00F4h" unicode="&#xf4;" horiz-adv-x="683" 
d="M433 110h-183v226h183v-226zM633 110v226q0 18 -8.5 37.5t-22 35.5t-32 26.5t-37.5 10.5h-383q-20 0 -38 -10.5t-31.5 -26.5t-22 -35.5t-8.5 -37.5v-226q0 -18 8.5 -37.5t22 -35.5t31.5 -26.5t38 -10.5h383q19 0 37.5 10.5t32 26.5t22 35.5t8.5 37.5zM341 571l43 -66h155
l-68 95h-260l-68 -95h155z" />
    <glyph glyph-name="FL00F5h" unicode="&#xf5;" horiz-adv-x="683" 
d="M288 568l-41 -63h-145l68 95h177l45 -63l41 63h145l-68 -95h-177zM633 110q0 -18 -8.5 -37.5t-22 -35.5t-32 -26.5t-37.5 -10.5h-383q-20 0 -38 10.5t-31.5 26.5t-22 35.5t-8.5 37.5v226q0 18 8.5 37.5t22 35.5t31.5 26.5t38 10.5h383q19 0 37.5 -10.5t32 -26.5t22 -35.5
t8.5 -37.5v-226zM433 110v226h-183v-226h183z" />
    <glyph glyph-name="FL00F6h" unicode="&#xf6;" horiz-adv-x="683" 
d="M139 505h159v95h-159v-95zM384 505h159v95h-159v-95zM250 110v226h183v-226h-183zM633 110v226q0 18 -8.5 37.5t-22 35.5t-32 26.5t-37.5 10.5h-383q-20 0 -38 -10.5t-31.5 -26.5t-22 -35.5t-8.5 -37.5v-226q0 -18 8.5 -37.5t22 -35.5t31.5 -26.5t38 -10.5h383
q19 0 37.5 10.5t32 26.5t22 35.5t8.5 37.5z" />
    <glyph glyph-name="FL00F7h" unicode="&#xf7;" horiz-adv-x="535" 
d="M200 380h134v110h-134v-110zM200 90h134v110h-134v-110zM485 345h-435v-110h435v110z" />
    <glyph glyph-name="FL00F8h" unicode="&#xf8;" horiz-adv-x="683" 
d="M633 336v-226q0 -18 -8.5 -37.5t-22 -35.5t-32 -26.5t-37.5 -10.5h-383q-20 0 -38 10.5t-31.5 26.5t-22 35.5t-8.5 37.5v226q0 18 8.5 37.5t22 35.5t31.5 26.5t38 10.5h383q19 0 37.5 -10.5t32 -26.5t22 -35.5t8.5 -37.5zM315 110h118v169zM367 336h-118v-169z" />
    <glyph glyph-name="FL00F9h" unicode="&#xf9;" horiz-adv-x="683" 
d="M433 505l-49 95h-154l73 -95h130zM633 446h-200v-336h-183v336h-200v-336q0 -18 8.5 -37.5t22 -35.5t31.5 -26.5t38 -10.5h383q19 0 37.5 10.5t32 26.5t22 35.5t8.5 37.5v336z" />
    <glyph glyph-name="FL00FAh" unicode="&#xfa;" horiz-adv-x="683" 
d="M298 600l-49 -95h130l73 95h-154zM633 446h-200v-336h-183v336h-200v-336q0 -18 8.5 -37.5t22 -35.5t31.5 -26.5t38 -10.5h383q19 0 37.5 10.5t32 26.5t22 35.5t8.5 37.5v336z" />
    <glyph glyph-name="FL00FBh" unicode="&#xfb;" horiz-adv-x="683" 
d="M341 571l43 -66h155l-68 95h-260l-68 -95h155zM633 446h-200v-336h-183v336h-200v-336q0 -18 8.5 -37.5t22 -35.5t31.5 -26.5t38 -10.5h383q19 0 37.5 10.5t32 26.5t22 35.5t8.5 37.5v336z" />
    <glyph glyph-name="FL00FCh" unicode="&#xfc;" horiz-adv-x="683" 
d="M139 505h159v95h-159v-95zM384 505h159v95h-159v-95zM633 446h-200v-336h-183v336h-200v-336q0 -18 8.5 -37.5t22 -35.5t31.5 -26.5t38 -10.5h383q19 0 37.5 10.5t32 26.5t22 35.5t8.5 37.5v336z" />
    <glyph glyph-name="FL00FDh" unicode="&#xfd;" horiz-adv-x="683" 
d="M633 -48v494h-200v-336h-183v336h-200v-336q0 -18 8.5 -37.5t22 -35.5t31.5 -26.5t38 -10.5h283v-48h-304v-110h404q19 0 37.5 10.5t32 26.5t22 35.5t8.5 37.5zM298 600l-49 -95h130l73 95h-154z" />
    <glyph glyph-name="FL00FEh" unicode="&#xfe;" horiz-adv-x="683" 
d="M633 110q0 -18 -8.5 -37.5t-22 -35.5t-32 -26.5t-37.5 -10.5h-228v110h128v226h-183v-473h-200v717h200v-134h283q19 0 37.5 -10.5t32 -26.5t22 -35.5t8.5 -37.5v-226z" />
    <glyph glyph-name="FL00FFh" unicode="&#xff;" horiz-adv-x="683" 
d="M633 -48v494h-200v-336h-183v336h-200v-336q0 -18 8.5 -37.5t22 -35.5t31.5 -26.5t38 -10.5h283v-48h-304v-110h404q19 0 37.5 10.5t32 26.5t22 35.5t8.5 37.5zM139 505h159v95h-159v-95zM384 505h159v95h-159v-95z" />
    <glyph glyph-name="FL0152h" unicode="&#x152;" horiz-adv-x="1268" 
d="M1218 0h-1068q-20 0 -38 10.5t-31.5 26.5t-22 35.5t-8.5 37.5v360q0 18 8.5 37.5t22 35.5t31.5 26.5t38 10.5h1068v-110h-431v-125h390v-110h-390v-125h431v-110zM587 110v360h-337v-360h337z" />
    <glyph glyph-name="FL0153h" unicode="&#x153;" horiz-adv-x="1098" 
d="M1048 278q0 -18 -8.5 -37.5t-22 -35.5t-32 -26.5t-37.5 -10.5h-228v110h128v58h-183v-226h370v-110h-885q-20 0 -38 10.5t-31.5 26.5t-22 35.5t-8.5 37.5v226q0 18 8.5 37.5t22 35.5t31.5 26.5t38 10.5h798q19 0 37.5 -10.5t32 -26.5t22 -35.5t8.5 -37.5v-58zM465 110
v226h-215v-226h215z" />
    <glyph glyph-name="FL0160h" unicode="&#x160;" 
d="M402 668l-43 66h-155l68 -95h260l68 95h-155zM150 235h400v-125h-500v-110h600q19 0 37.5 10.5t32 26.5t22 35.5t8.5 37.5v125q0 18 -8.5 37.5t-22 35.5t-32 26.5t-37.5 10.5h-400v125h500v110h-600q-20 0 -38 -10.5t-31.5 -26.5t-22 -35.5t-8.5 -37.5v-125
q0 -18 8.5 -37.5t22 -35.5t31.5 -26.5t38 -10.5z" />
    <glyph glyph-name="FL0161h" unicode="&#x161;" horiz-adv-x="683" 
d="M633 110v58q0 18 -8.5 37.5t-22 35.5t-32 26.5t-37.5 10.5h-283v58h383v110h-483q-20 0 -38 -10.5t-31.5 -26.5t-22 -35.5t-8.5 -37.5v-58q0 -18 8.5 -37.5t22 -35.5t31.5 -26.5t38 -10.5h283v-58h-383v-110h483q19 0 37.5 10.5t32 26.5t22 35.5t8.5 37.5zM342 534
l-43 66h-155l68 -95h260l68 95h-155z" />
    <glyph glyph-name="FL0178h" unicode="&#x178;" horiz-adv-x="890" 
d="M656 639h-159v95h159v-95zM411 639h-159v95h159v-95zM549 270v-270h-200v262l-319 318h249l206 -198l213 198h162z" />
    <glyph glyph-name="FL017Dh" unicode="&#x17d;" 
d="M396 668l-43 66h-155l68 -95h260l68 95h-155zM50 0h650v110h-380l370 350v120h-640v-110h380l-380 -360v-110z" />
    <glyph glyph-name="FL017Eh" unicode="&#x17e;" horiz-adv-x="629" 
d="M314 534l-43 66h-155l68 -95h260l68 95h-155zM579 0v110h-278l278 226v110h-529v-110h272l-272 -226v-110h529z" />
    <glyph glyph-name="FL0192h" unicode="&#x192;" horiz-adv-x="613" 
d="M50 -68v404q0 18 8.5 37.5t22 35.5t31.5 26.5t38 10.5h413v-110h-313v-117h272v-110h-272v-177h-200z" />
    <glyph glyph-name="FL02C6h" unicode="&#x2c6;" horiz-adv-x="456" 
d="M228 646l43 -66h155l-68 95h-260l-68 -95h155z" />
    <glyph glyph-name="FL02DCh" unicode="&#x2dc;" horiz-adv-x="536" 
d="M216 642l-41 -63h-145l68 95h177l45 -63l41 63h145l-68 -95h-177z" />
    <glyph glyph-name="FL2013h" unicode="&#x2013;" horiz-adv-x="440" 
d="M50 235v110h340v-110h-340z" />
    <glyph glyph-name="FL2014h" unicode="&#x2014;" horiz-adv-x="535" 
d="M50 345h435v-110h-435v110z" />
    <glyph glyph-name="FL2018h" unicode="&#x2018;" horiz-adv-x="235" 
d="M120 580q-35 0 -53 -23.5t-18 -50.5v-111h135v185h-64z" />
    <glyph glyph-name="FL2019h" unicode="&#x2019;" horiz-adv-x="235" 
d="M114 395q35 0 53 23.5t18 50.5v111h-135v-185h64z" />
    <glyph glyph-name="FL201Ah" unicode="&#x201a;" horiz-adv-x="234" 
d="M113 -72q35 0 53 23.5t18 50.5v108h-134v-182h63z" />
    <glyph glyph-name="FL201Ch" unicode="&#x201c;" horiz-adv-x="422" 
d="M121 580q-35 0 -53 -23.5t-18 -50.5v-111h135v185h-64zM308 580q-35 0 -53 -23.5t-18 -50.5v-111h135v185h-64z" />
    <glyph glyph-name="FL201Dh" unicode="&#x201d;" horiz-adv-x="422" 
d="M301 395q35 0 53 23.5t18 50.5v111h-135v-185h64zM114 395q35 0 53 23.5t18 50.5v111h-135v-185h64z" />
    <glyph glyph-name="FL201Eh" unicode="&#x201e;" horiz-adv-x="420" 
d="M299 -72q35 0 53 23.5t18 50.5v108h-134v-182h63zM113 -72q35 0 53 23.5t18 50.5v108h-134v-182h63z" />
    <glyph glyph-name="FL2020h" unicode="&#x2020;" horiz-adv-x="529" 
d="M164 0v350h-114v110h114v120h200v-120h115v-110h-115v-350h-200z" />
    <glyph glyph-name="FL2021h" unicode="&#x2021;" horiz-adv-x="529" 
d="M164 0v120h-114v110h114v120h-114v110h114v120h200v-120h115v-110h-115v-120h115v-110h-115v-120h-200z" />
    <glyph glyph-name="FL2022h" unicode="&#x2022;" horiz-adv-x="683" 
d="M633 402v-226q0 -18 -8.5 -37.5t-22 -35.5t-32 -26.5t-37.5 -10.5h-383q-20 0 -38 10.5t-31.5 26.5t-22 35.5t-8.5 37.5v226q0 18 8.5 37.5t22 35.5t31.5 26.5t38 10.5h383q19 0 37.5 -10.5t32 -26.5t22 -35.5t8.5 -37.5z" />
    <glyph glyph-name="FL2026h" unicode="&#x2026;" horiz-adv-x="652" 
d="M259 0h134v110h-134v-110zM468 0h134v110h-134v-110zM50 0h134v110h-134v-110z" />
    <glyph glyph-name="FL2030h" unicode="&#x2030;" horiz-adv-x="1411" 
d="M361 0h-162l467 580h162zM749 213v-135h112v135h-112zM980 235v-180q0 -9 -4 -18.5t-11 -18t-16 -13.5t-19 -5h-250q-10 0 -19 5t-16 13.5t-11 18t-4 18.5v180q0 9 4 18.5t11 18t16 13.5t19 5h250q10 0 19 -5t16 -13.5t11 -18t4 -18.5zM169 503v-135h112v135h-112z
M400 525v-180q0 -9 -4 -18.5t-11 -18t-16 -13.5t-19 -5h-250q-10 0 -19 5t-16 13.5t-11 18t-4 18.5v180q0 9 4 18.5t11 18t16 13.5t19 5h250q10 0 19 -5t16 -13.5t11 -18t4 -18.5zM1130 213v-135h112v135h-112zM1361 235v-180q0 -9 -4 -18.5t-11 -18t-16 -13.5t-19 -5h-250
q-10 0 -19 5t-16 13.5t-11 18t-4 18.5v180q0 9 4 18.5t11 18t16 13.5t19 5h250q10 0 19 -5t16 -13.5t11 -18t4 -18.5z" />
    <glyph glyph-name="FL2039h" unicode="&#x2039;" horiz-adv-x="195" 
d="M79 290l66 43v155l-95 -68v-260l95 -68v155z" />
    <glyph glyph-name="FL203Ah" unicode="&#x203a;" horiz-adv-x="195" 
d="M115 290l-66 43v155l95 -68v-260l-95 -68v155z" />
    <glyph glyph-name="FL20ACh" unicode="&#x20ac;" horiz-adv-x="860" 
d="M50 423h138v47q0 18 8.5 37.5t22 35.5t31.5 26.5t38 10.5h522v-110h-422v-47h233v-110h-233v-46h233v-110h-233v-47h422v-110h-522q-20 0 -38 10.5t-31.5 26.5t-22 35.5t-8.5 37.5v47h-138v110h138v46h-138v110z" />
    <glyph glyph-name="FL2122h" unicode="&#x2122;" horiz-adv-x="332" 
d="M170 496v119q1 3 5 3q5 0 5 1v1q5 0 15 -11t15 -24l1 -7q5 -15 8.5 -26.5t5.5 -19.5q4 11 6 19.5t5 22.5q9 28 18.5 37t22.5 9h5v-124h-13v80l-5 9l-29 -81q-2 -6 -3.5 -7t-6.5 -1q-2 0 -4 1t-5 7l-29 79l-4 -7v-80h-13zM91 496v104h-41v20h100v-20h-41v-104h-18z" />
    <glyph glyph-name="FLE003h" horiz-adv-x="940" 
d="M690 0v336h-143v-336h-154v336h-143v-336h-200v446h352q6 0 16 -5.5t20.5 -13t19 -14.5t12.5 -11q4 4 12.5 11t19 14.5t20.5 13t16 5.5h252q19 0 37.5 -10.5t32 -26.5t22 -35.5t8.5 -37.5v-336h-200z" />
    </font>
</defs>
</svg>
