<?xml version="1.0" standalone="no"?>
<!DOCTYPE svg PUBLIC "-//W3C//DTD SVG 1.1//EN" "http://www.w3.org/Graphics/SVG/1.1/DTD/svg11.dtd" >
<svg xmlns="http://www.w3.org/2000/svg" xmlns:xlink="http://www.w3.org/1999/xlink" version="1.1">
<metadata>
Created by FontForge 20170731 at Sat Feb  4 01:37:03 2012
 By Aleksey,,,
Copyright (c) 2011 Natanael Gama (exo@ndiscovered.com), with Reserved Font Name "Exo"
</metadata>
<defs>
<font id="Exo-ExtraBold" horiz-adv-x="552" >
  <font-face 
    font-family="Exo"
    font-weight="800"
    font-stretch="normal"
    units-per-em="1000"
    panose-1="2 0 8 3 0 0 0 0 0 0"
    ascent="800"
    descent="-200"
    x-height="531"
    cap-height="732"
    bbox="-88 -299 1355 1002"
    underline-thickness="50"
    underline-position="-150"
    unicode-range="U+000D-FB06"
  />
<missing-glyph horiz-adv-x="692" 
d="M611 506l-252 -240l252 -241v481zM94 13h507l-253 243zM81 22l256 244l-256 241v-485zM602 518h-511l257 -242zM67 0v531h558v-531h-558z" />
    <glyph glyph-name="fi" unicode="fi" horiz-adv-x="635" 
d="M13 412v102l79 17v35q0 93 61 155q64 65 173 65q48 0 130 -7t110 -19v-96l-188 4h-5q-117 0 -117 -110v-27l342 -10v-521h-164v412h-178v-412h-164v412h-79z" />
    <glyph glyph-name="fl" unicode="fl" horiz-adv-x="723" 
d="M13 412v102l79 17v43q0 120 60 168q54 44 149 44l309 -2v-565q0 -66 18 -85q8 -8 42 -22t40 -14v-98h-125q-49 0 -79 18q-60 36 -60 171v478l-114 1q-41 0 -58.5 -20.5t-17.5 -73.5v-43h110v-119h-110v-412h-164v412h-79z" />
    <glyph glyph-name=".notdef" horiz-adv-x="692" 
d="M611 506l-252 -240l252 -241v481zM94 13h507l-253 243zM81 22l256 244l-256 241v-485zM602 518h-511l257 -242zM67 0v531h558v-531h-558z" />
    <glyph glyph-name=".notdef" horiz-adv-x="692" 
d="M611 506l-252 -240l252 -241v481zM94 13h507l-253 243zM81 22l256 244l-256 241v-485zM602 518h-511l257 -242zM67 0v531h558v-531h-558z" />
    <glyph glyph-name=".null" horiz-adv-x="0" 
 />
    <glyph glyph-name="uni000D" unicode="&#xd;" horiz-adv-x="671" 
 />
    <glyph glyph-name="space" unicode=" " horiz-adv-x="250" 
 />
    <glyph glyph-name="exclam" unicode="!" horiz-adv-x="275" 
d="M61 23v102q0 25 24 25h100q23 0 23 -25v-102q0 -23 -23 -23h-100q-24 0 -24 23zM56 731h161l-18 -535h-128z" />
    <glyph glyph-name="quotedbl" unicode="&#x22;" horiz-adv-x="467" 
d="M57 732h157v-67l-10 -134h-135l-12 134v67zM254 732h157v-67l-10 -134h-136l-11 134v67z" />
    <glyph glyph-name="numbersign" unicode="#" horiz-adv-x="733" 
d="M13 202l17 112h150l19 105h-152l18 112h155l37 201h112l-37 -201h108l36 201h112l-36 -201h169l-16 -112h-171l-18 -106h170l-15 -112h-179l-38 -201h-112l38 201l-109 1l-37 -202h-112l37 202h-146zM292 314l112 -1l18 106h-111z" />
    <glyph glyph-name="dollar" unicode="$" horiz-adv-x="568" 
d="M37 483v62q1 187 199 193v86h95v-87q91 -4 174 -30v-127q-113 9 -178.5 9t-78.5 -1.5t-25 -6.5q-22 -11 -22 -51v-25q0 -33 16 -46.5t55 -13.5h80q118 0 159 -97q21 -47 21 -105v-42q0 -209 -201 -209v-82h-95v83q-58 2 -90.5 8t-85.5 23v127q130 -10 232 -10
q36 0 56 11.5t20 41.5v29q0 38 -23 51q-14 7 -37 7h-78q-51 0 -88.5 16t-57 38.5t-30.5 52.5q-17 45 -17 95z" />
    <glyph glyph-name="percent" unicode="%" horiz-adv-x="964" 
d="M28 482v118q0 66 32 99t105 33h101q71 0 102.5 -33t31.5 -99v-118q0 -67 -31.5 -100t-104.5 -33h-101q-94 0 -121 60q-14 29 -14 73zM138 504q0 -30 13 -37.5t31 -7.5h63q28 0 36.5 10.5t8.5 34.5v73q0 27 -9.5 36t-33.5 9h-63q-25 0 -35.5 -9.5t-10.5 -35.5v-73zM201 0
l450 732h111l-445 -732h-116zM565 135v118q0 67 31.5 100t104.5 33h101q72 0 103.5 -33.5t31.5 -99.5v-118q0 -66 -31.5 -99t-105.5 -33h-101q-72 0 -103 33t-31 99zM675 158q0 -24 9 -34.5t34 -10.5h63q28 0 37 10.5t9 34.5v73q0 26 -10 35.5t-34 9.5h-63q-24 0 -34.5 -9.5
t-10.5 -35.5v-73z" />
    <glyph glyph-name="ampersand" unicode="&#x26;" horiz-adv-x="695" 
d="M338 590q-59 0 -59 -29q0 -22 30 -61l144 -199l125 112l58 -72l-63 -107l-37 -44l144 -190h-192l-67 91l-63 -55q-46 -41 -130 -41q-51 0 -95.5 23.5t-75.5 67.5q-34 51 -34 105q0 104 85 179l64 56l-48 70q-32 44 -32 85.5t14.5 70t42 51t64.5 28.5q44 7 97 7t178 -28
v-120h-150zM209 274q-31 -28 -31 -52.5t20.5 -50t43.5 -25.5q30 0 50 20l40 39l-81 107z" />
    <glyph glyph-name="quotesingle" unicode="'" horiz-adv-x="238" 
d="M37 732h165v-67l-10 -134h-144l-11 134v67z" />
    <glyph glyph-name="parenleft" unicode="(" horiz-adv-x="393" 
d="M69.5 126q-19.5 95 -19.5 195.5t19 191t45 150.5q55 124 99 175l19 22h148q-53 -79 -100 -204q-66 -171 -66 -330q0 -167 66 -342q24 -66 53 -117t38 -64l9 -13h-148q-25 22 -60 75t-59 109.5t-43.5 151.5z" />
    <glyph glyph-name="parenright" unicode=")" horiz-adv-x="393" 
d="M161 150.5q18 88.5 18 172t-17 168t-41 147.5q-51 131 -91 195l-17 27h149q25 -27 59.5 -84t58.5 -114t43.5 -148.5t19.5 -178t-10 -157.5t-26 -123.5t-35 -97.5t-39 -75q-40 -62 -61 -82l-10 -10h-149q23 31 55 92.5t53.5 120.5t39.5 147.5z" />
    <glyph glyph-name="asterisk" unicode="*" horiz-adv-x="423" 
d="M34 566v62l138 22l6 -89zM86 417l25 137l87 -22l-52 -134zM162 721l60 20l64 -124l-83 -33zM184 463l48 75l114 -90l-37 -50zM235 571l119 80l36 -52l-98 -97z" />
    <glyph glyph-name="plus" unicode="+" horiz-adv-x="471" 
d="M28 289v134h140v141h134v-141h142v-134h-142v-141h-134v141h-140z" />
    <glyph glyph-name="comma" unicode="," horiz-adv-x="258" 
d="M57 25v99q0 27 25 27h96q24 0 24 -27v-135q0 -33 -14.5 -53t-34.5 -25q-23 -5 -43.5 -5t-32.5 3l-15 3v54q14 0 21.5 4t8.5 8.5t1 11.5v10h-11q-11 0 -18 6.5t-7 18.5z" />
    <glyph glyph-name="hyphen" unicode="-" horiz-adv-x="354" 
d="M20 223v134h314v-134h-314z" />
    <glyph glyph-name="period" unicode="." horiz-adv-x="260" 
d="M57 23v102q0 25 24 25h98q25 0 25 -25v-102q0 -23 -25 -23h-98q-10 0 -17 6.5t-7 16.5z" />
    <glyph glyph-name="slash" unicode="/" horiz-adv-x="476" 
d="M13 -72l281 842h169l-281 -842h-169z" />
    <glyph glyph-name="zero" unicode="0" horiz-adv-x="626" 
d="M47 184v356q0 92 49.5 142t138.5 50h164q181 0 181 -184v-364q0 -88 -47.5 -136t-134.5 -48h-164q-90 0 -138.5 47.5t-48.5 136.5zM211 215q0 -66 67 -66h72q34 0 50 13.5t16 51.5v304q0 65 -60 65h-83q-62 0 -62 -65v-303z" />
    <glyph glyph-name="one" unicode="1" horiz-adv-x="374" 
d="M321 732v-732h-164v573l-131 -29v106l132 82h163z" />
    <glyph glyph-name="two" unicode="2" horiz-adv-x="585" 
d="M26 592v122q143 28 304 28q110 0 166 -64.5t56 -167.5q0 -44 -20.5 -92.5t-46.5 -84.5t-66 -78q-51 -53 -113 -106h246v-149h-518v143q88 59 209 167q61 54 103 109t42 95.5t-27 59t-91 18.5h-244z" />
    <glyph glyph-name="three" unicode="3" horiz-adv-x="579" 
d="M339 -7h-59h-19t-33.5 0.5t-38 1t-33.5 2t-36 3.5t-31 5q-31 5 -63 16l1 122h238q56 0 73.5 7t22.5 19t5 33v22q0 45 -35 56q-21 7 -60 8l-183 8v132l183 10q55 3 76 14.5t21 47.5v24q0 37 -25 49t-72 12h-251v121q81 29 217 29q51 0 109 -1q84 -2 134 -49.5t50 -130.5
v-46q0 -115 -79 -144q79 -30 79 -152v-36q0 -88 -49.5 -135.5t-141.5 -47.5z" />
    <glyph glyph-name="four" unicode="4" horiz-adv-x="627" 
d="M382 302v153l30 77h134v-230h68v-126l-68 -26v-148h-164v148h-335l-34 74l239 508h178l-192 -430h144z" />
    <glyph glyph-name="five" unicode="5" horiz-adv-x="594" 
d="M227 446q34 24 105 24q24 0 57 -2q84 -5 125.5 -55.5t41.5 -132.5v-99q0 -49 -17.5 -86.5t-46.5 -57.5q-56 -41 -129 -41q-103 0 -160.5 4t-151.5 20v130h274q46 0 58 22q9 17 9 41v51q0 29 -12 46t-46 17h-72q-54 0 -54 -53h-156l22 458h453v-149h-294z" />
    <glyph glyph-name="six" unicode="6" horiz-adv-x="603" 
d="M44 384q0 330 172 350q42 5 88 5q106 0 236 -25v-125h-236q-72 0 -88 -71q-8 -34 -8 -88q61 20 180 20q132 0 163 -87q13 -39 13 -91v-102q0 -171 -183 -171h-141q-38 0 -66 9.5t-53.5 35.5t-41.5 68q-35 92 -35 272zM208 309q0 -85 17.5 -123t70.5 -38h50q30 0 42.5 11
t12.5 44v46q0 35 -10.5 47.5t-40.5 12.5h-142z" />
    <glyph glyph-name="seven" unicode="7" horiz-adv-x="557" 
d="M20 583v149h476l42 -70l-238 -662h-177l213 583h-316z" />
    <glyph glyph-name="eight" unicode="8" horiz-adv-x="621" 
d="M50 173v64q0 44 20 75.5t57 39.5q-51 23 -65 64q-12 34 -12 83v65q0 100 58 139q51 34 133 34h154q89 0 133 -40.5t44 -133.5v-49q0 -28 -10 -55q-18 -54 -65 -61q23 -4 39 -20t23 -39q13 -40 13 -80v-82q0 -124 -78 -159q-39 -18 -100 -18h-153q-162 0 -185 113
q-6 27 -6 60zM214 195q0 -29 14 -41t47 -12h75q32 0 45 13t13 40v57q0 55 -56 55h-80q-41 0 -52 -25q-6 -12 -6 -30v-57zM214 494q0 -32 14.5 -43t43.5 -11h79q35 0 46 13t11 41v40q0 37 -14.5 49.5t-43.5 12.5h-75q-33 0 -47 -11.5t-14 -50.5v-40z" />
    <glyph glyph-name="nine" unicode="9" horiz-adv-x="603" 
d="M298 -5q-117 0 -234 25v124h237q45 0 65 25q22 27 25 54q6 39 6 81q-61 -21 -181 -21q-131 0 -162 87q-14 39 -14 92v101q0 171 184 171h141q38 0 66 -9.5t53.5 -35t41.5 -68.5q35 -92 35 -272q0 -329 -172 -350q-45 -4 -91 -4zM204 484q0 -35 10.5 -47.5t40.5 -12.5h142
q0 81 -12.5 111t-30 40t-46.5 10h-50q-28 0 -38 -8q-16 -13 -16 -47v-46z" />
    <glyph glyph-name="colon" unicode=":" horiz-adv-x="260" 
d="M57 23v102q0 25 24 25h98q25 0 25 -25v-102q0 -23 -25 -23h-98q-10 0 -17 6.5t-7 16.5zM57 404v102q0 25 24 25h98q25 0 25 -25v-102q0 -23 -25 -23h-98q-16 0 -22 14q-2 4 -2 9z" />
    <glyph glyph-name="semicolon" unicode=";" horiz-adv-x="261" 
d="M57 25v99q0 27 25 27h96q24 0 24 -27v-135q0 -33 -14.5 -53t-34.5 -25q-23 -5 -43.5 -5t-32.5 3l-15 3v54q14 0 21.5 4t8.5 8.5t1 11.5v10h-11q-11 0 -18 6.5t-7 18.5zM58 404v102q0 26 24 26h98q25 0 25 -26v-102q0 -22 -25 -22h-98q-17 0 -22 13q-2 4 -2 9z" />
    <glyph glyph-name="less" unicode="&#x3c;" horiz-adv-x="442" 
d="M34 278v148l374 138v-148l-207 -63l207 -73v-148z" />
    <glyph glyph-name="equal" unicode="=" horiz-adv-x="467" 
d="M20 174v134h427v-134h-427zM20 391v134h427v-134h-427z" />
    <glyph glyph-name="greater" unicode="&#x3e;" horiz-adv-x="442" 
d="M34 132v148l207 73l-207 63v148l374 -138v-148z" />
    <glyph glyph-name="question" unicode="?" horiz-adv-x="543" 
d="M13 712q126 28 230 28q25 0 52 -1q55 0 98.5 -17.5t69.5 -45.5q54 -59 54 -137v-63q0 -105 -49 -150.5t-143 -45.5q-14 0 -29 1v-86h-127v207h104q40 2 60.5 19t20.5 57v37q0 39 -24.5 56.5t-75.5 17.5h-241v123zM159 23v102q0 25 24 25h98q25 0 25 -25v-102
q0 -23 -25 -23h-98q-11 0 -17.5 6.5t-6.5 16.5z" />
    <glyph glyph-name="at" unicode="@" horiz-adv-x="877" 
d="M44 15v288q0 84 44 143q51 66 176 66h184q134 0 168 -76q15 -34 15 -86v-350h-103l-21 56l-7 -6.5t-19.5 -16t-29.5 -19.5q-40 -23 -91 -23h-1q-61 0 -94 41.5t-33 97.5v38q0 105 88 132q28 9 64 9h121q1 30 0.5 40t-6.5 20q-10 16 -48 17h-187q-69 0 -86 -43
q-8 -19 -8 -47v-266q0 -61 28.5 -85.5t65.5 -24.5h327q58 0 80.5 27.5t22.5 82.5v437q0 56 -28 87t-75 31h-404v99q46 10 133 18.5t129.5 8.5h48.5h93q91 0 157 -52q33 -28 52.5 -77t19.5 -115v-437q0 -122 -55.5 -180t-166.5 -58h-334q-96 0 -158 53.5t-62 169.5zM407 117
h1.5h0.5q66 0 96 39v64l-101 -9q-20 -2 -29 -10.5t-9 -28.5v-9.5v-10.5q0 -35 41 -35z" />
    <glyph glyph-name="A" unicode="A" horiz-adv-x="700" 
d="M30 0l239 732h190l231 -732h-171l-48 147h-221l-48 -147h-172zM290 289h145l-69 233z" />
    <glyph glyph-name="B" unicode="B" horiz-adv-x="607" 
d="M54 0v732h309q109 0 160.5 -53.5t51.5 -144.5q0 -54 -26.5 -100.5t-76.5 -53.5q71 -12 102 -84q16 -35 16 -77q0 -112 -54 -165.5t-170 -53.5h-312zM218 142h141q67 0 67 85q0 39 -16 64t-51 25h-141v-174zM218 450h134q30 0 46 18.5t16 54t-18 51.5t-44 16h-134v-140z
" />
    <glyph glyph-name="C" unicode="C" horiz-adv-x="569" 
d="M37 368q0 92 11.5 157.5t39.5 115.5q54 99 200 99q89 0 142.5 -7.5t116.5 -28.5v-128l-7 0.5t-19 2t-27.5 3t-35 3.5t-39.5 3q-45 3 -77 3t-46 -1.5t-30 -6t-25 -14t-17.5 -25.5t-13.5 -40q-9 -55 -9 -160t26.5 -153t106.5 -48q93 0 183 6l30 3v-128q-84 -30 -231 -30
h-28q-137 2 -195 99q-56 93 -56 275z" />
    <glyph glyph-name="D" unicode="D" horiz-adv-x="664" 
d="M54 0v732h325q60 0 105 -20.5t72.5 -53.5t44.5 -82q30 -85 30 -213q0 -363 -252 -363h-325zM218 142h146q55 0 79 55t24 157t-13 153t-34 67t-56 16h-146v-448z" />
    <glyph glyph-name="E" unicode="E" horiz-adv-x="567" 
d="M50 152v420q0 108 81 144q38 16 90 16q237 -4 324 -16v-137h-279q-37 0 -46 -18q-6 -14 -6 -38v-83l284 -10v-136l-284 -9v-83q0 -38 21 -46q15 -6 41 -6h269v-136q-72 -10 -289 -16l-25 -1h-19t-28.5 1.5t-44 10.5t-45 25t-31.5 46.5t-13 71.5z" />
    <glyph glyph-name="F" unicode="F" horiz-adv-x="567" 
d="M50 0v569q0 87 50 125t117 38h4q237 -4 324 -16v-137h-279q-37 0 -46 -18q-6 -14 -6 -38v-83l284 -10v-136l-284 -9v-285h-164z" />
    <glyph glyph-name="G" unicode="G" horiz-adv-x="614" 
d="M41.5 249.5q-4.5 51.5 -4.5 121t6 122t21.5 101t42.5 79.5q58 67 165 67t158.5 -6t138.5 -28v-127q-1 0 -9 1t-21.5 3t-31 4t-39.5 4t-45 4q-51 3 -100 3q-75 0 -98.5 -48t-23.5 -182q0 -139 19 -178q16 -32 51 -39q17 -4 44 -4t52.5 11.5t36.5 22.5l10 12v106h-78v103
q52 24 174 24q32 0 68 -2v-424h-116l-46 49q-16 -18 -32 -28q-40 -26 -125 -26q-104 0 -157 67q-26 32 -41 84t-19.5 103.5z" />
    <glyph glyph-name="H" unicode="H" horiz-adv-x="636" 
d="M54 0v732h164v-304h215v304h164v-732h-164v280h-215v-280h-164z" />
    <glyph glyph-name="I" unicode="I" horiz-adv-x="257" 
d="M54 0v732h164v-732h-164z" />
    <glyph glyph-name="J" unicode="J" horiz-adv-x="356" 
d="M263 18q-37 -23 -116 -23t-123 29l1 129q18 -1 33.5 -1t33.5 1t33 11q27 19 27 84v484h164v-567q0 -113 -53 -147z" />
    <glyph glyph-name="K" unicode="K" horiz-adv-x="642" 
d="M54 0v732h156v-298h51l169 298h190l-214 -367l214 -365h-190l-169 292h-50v-292h-157z" />
    <glyph glyph-name="L" unicode="L" horiz-adv-x="533" 
d="M54 148v584h164v-531q0 -38 21 -46q15 -6 41 -6h231v-149h-299q-71 0 -114.5 34.5t-43.5 113.5z" />
    <glyph glyph-name="M" unicode="M" horiz-adv-x="864" 
d="M37 0l71 732h228l95 -460l97 460h227l73 -732h-161l-49 449l-93 -449h-185l-97 449l-44 -449h-162z" />
    <glyph glyph-name="N" unicode="N" horiz-adv-x="677" 
d="M54 0v732h166l254 -429v429h164v-732h-164l-255 422v-422h-165z" />
    <glyph glyph-name="O" unicode="O" horiz-adv-x="669" 
d="M44 366q0 67 8 123.5t21.5 96t35.5 67.5t45 44t56 25q53 15 113.5 15t90 -3t63 -12t56 -25t44.5 -44t35 -67q28 -87 28 -225q0 -167 -47 -257q-24 -48 -77 -78q-54 -30 -174 -30q-122 0 -173 28q-55 29 -78 75q-33 64 -40 132t-7 135zM213 465q-5 -41 -5 -92.5t1.5 -80
t5 -52.5t10.5 -39.5t16.5 -27t24.5 -17.5q29 -11 73 -11t68 8.5t40.5 33t22.5 65.5t6 106t-4.5 104.5t-13 65.5t-25.5 38.5t-37 17t-53.5 4.5t-52.5 -3.5t-37 -16t-26.5 -37.5t-13.5 -66z" />
    <glyph glyph-name="P" unicode="P" horiz-adv-x="610" 
d="M48 0v732h320q115 0 166 -61q47 -56 47 -170q0 -65 -14.5 -112.5t-35 -72.5t-51.5 -39q-40 -17 -88 -17q-35 0 -105.5 9t-74.5 11v-280h-164zM212 402h141q32 0 47.5 22.5t15.5 74.5q-1 91 -63 91h-141v-188z" />
    <glyph glyph-name="Q" unicode="Q" horiz-adv-x="669" 
d="M49 249.5q-5 49.5 -5 116.5t8 123.5t21 96t35 67.5t45 44t56 25q53 15 113.5 15t90.5 -3t63 -12t56 -25t45 -44t34 -67q29 -87 29 -225q0 -200 -61 -279q-40 -52 -100 -69q-81 -24 -202 -15q-72 6 -101 21.5t-50.5 34t-35 46t-25 64t-16.5 86zM213 465q-5 -41 -5 -101
t3.5 -95t11 -61t23.5 -39q30 -24 90 -24t87.5 17t40 63t12.5 116.5t-2.5 106.5t-9.5 61.5t-16.5 40.5t-25.5 24q-27 14 -70.5 14t-62.5 -3.5t-37 -16t-26 -37.5t-13 -66zM463 -75q34 0 81 11v-125q-34 -5 -68.5 -5t-66.5 11t-57 29q-55 40 -58 121h89q15 -42 80 -42z" />
    <glyph glyph-name="R" unicode="R" horiz-adv-x="612" 
d="M48 0v732h323q99 0 155 -53t56 -178q0 -107 -31 -156q-19 -30 -37 -41q-21 -12 -45 -21l133 -283h-186l-109 269l-95 14v-283h-164zM213 409h139q38 0 51 19t13 70t-15 71.5t-49 20.5h-139v-181z" />
    <glyph glyph-name="S" unicode="S" horiz-adv-x="593" 
d="M44 483v62q0 189 198 193q21 1 42 1q158 0 253 -32v-128q-102 10 -173.5 10h-74.5q-45 0 -63 -10t-18 -49v-25q0 -34 11 -44q18 -16 59 -16h106q72 0 113 -35q67 -57 67 -167v-42q0 -141 -89 -186q-47 -23 -114 -23q-118 0 -174.5 6t-119.5 26v128q110 -11 257 -11
q36 0 56 11t20 42v29q0 30 -13 44t-47 14h-103q-68 0 -107 24q-42 25 -58 56q-19 38 -23 61q-5 36 -5 61z" />
    <glyph glyph-name="T" unicode="T" horiz-adv-x="599" 
d="M26 583v149h553v-149h-197v-583h-164v583h-192z" />
    <glyph glyph-name="U" unicode="U" horiz-adv-x="660" 
d="M340 -5h-15q-93 0 -117 8.5t-47 19.5t-36 27t-28.5 41t-23.5 57q-19 76 -19 172v412h164v-412q0 -53 4.5 -85t18.5 -53.5t37 -29.5t62 -8q67 0 91.5 38.5t24.5 137.5v412h165v-412q0 -195 -73 -263q-26 -24 -46.5 -36t-53.5 -18q-44 -8 -108 -8z" />
    <glyph glyph-name="V" unicode="V" horiz-adv-x="691" 
d="M30 732h173l145 -524l154 524h173l-231 -732h-194z" />
    <glyph glyph-name="W" unicode="W" horiz-adv-x="1004" 
d="M30 732h173l144 -521l114 521h174l-45 -172l110 -351l115 523h173l-192 -732h-194l-84 273l-74 -273h-194z" />
    <glyph glyph-name="X" unicode="X" horiz-adv-x="658" 
d="M30 732h182l123 -229l125 229h182l-222 -367l216 -365h-181l-120 224l-121 -224h-181l217 365z" />
    <glyph glyph-name="Y" unicode="Y" horiz-adv-x="666" 
d="M414 0h-164v215l-220 517h178l126 -339l138 339h178l-236 -517v-215z" />
    <glyph glyph-name="Z" unicode="Z" horiz-adv-x="554" 
d="M24 0v149l313 434h-313v149h508v-149l-291 -434h291v-149h-508z" />
    <glyph glyph-name="bracketleft" unicode="[" horiz-adv-x="338" 
d="M57 0v648q0 194 181 194h88v-134h-43q-62 0 -62 -83v-618q0 -83 62 -83h43v-134h-88q-181 0 -181 210z" />
    <glyph glyph-name="backslash" unicode="\" horiz-adv-x="476" 
d="M13 770h169l281 -842h-169z" />
    <glyph glyph-name="bracketright" unicode="]" horiz-adv-x="338" 
d="M13 -76h43q62 0 62 83v618q0 83 -62 83h-43v134h88q181 0 181 -194v-648q0 -210 -181 -210h-88v134z" />
    <glyph glyph-name="asciicircum" unicode="^" horiz-adv-x="381" 
d="M34 531l104 137h116l94 -137h-101l-54 56l-57 -56h-102z" />
    <glyph glyph-name="underscore" unicode="_" horiz-adv-x="674" 
d="M20 -1v134h634v-134h-634z" />
    <glyph glyph-name="grave" unicode="`" horiz-adv-x="243" 
d="M13 672h133l84 -141h-99z" />
    <glyph glyph-name="a" unicode="a" horiz-adv-x="519" 
d="M26 139v46q0 65 39 107.5t115 42.5h109h33q1 21 0 22q0 38 -15 48.5t-61 10.5t-202 -11v99q50 21 104 29q55 8 144.5 8t141.5 -39t52 -138v-364h-130l-34 56q-8 -17 -47 -39.5t-86 -22.5q-82 0 -122.5 45t-40.5 100zM237 120q48 0 85 38v81l-94 -8q-38 -3 -38 -50v-17
q0 -31 16 -38q11 -6 31 -6z" />
    <glyph glyph-name="b" unicode="b" horiz-adv-x="557" 
d="M40 0v785h164v-279q67 33 148 33q73 0 110 -33q38 -34 51 -94q12 -58 12 -149q0 -135 -40.5 -202t-125 -67t-154.5 58l-27 -52h-138zM303 130q45 0 54 70q4 28 4 79.5t-7.5 84.5t-19 42.5t-31.5 9.5q-64 0 -98 -18v-240q32 -28 98 -28z" />
    <glyph glyph-name="c" unicode="c" horiz-adv-x="492" 
d="M284 -6l-68 1h-8q-128 0 -161 139q-13 54 -13 132t12.5 132t36.5 84q45 54 125 54q158 0 251 -34v-98q-80 6 -133 6t-62 -1t-21 -3.5t-17.5 -8t-12 -15.5t-9.5 -26q-6 -40 -6 -91t3.5 -78.5t15.5 -42.5t27.5 -18.5t51.5 -3.5q76 0 147 6l23 2v-99q-44 -27 -88 -31
q-57 -6 -94 -6z" />
    <glyph glyph-name="d" unicode="d" horiz-adv-x="557" 
d="M48.5 425.5q14.5 48.5 33.5 69.5q41 44 123 44t149 -33v279h164v-785h-138l-26 52q-70 -58 -148 -58q-92 0 -132 65t-40 191.5t14.5 175zM205 364q-7 -33 -7 -104t13.5 -100.5t44.5 -29.5q65 0 98 28v240q-35 18 -98 18q-21 0 -32.5 -9.5t-18.5 -42.5z" />
    <glyph glyph-name="e" unicode="e" horiz-adv-x="525" 
d="M314 121q101 0 174 11v-109q-33 -14 -91.5 -20.5t-89.5 -7t-99 -0.5q-98 0 -136 63t-38 210q0 85 11.5 137t41 81t70.5 39t97.5 10t86 -2.5t58 -9.5t45.5 -20t30 -35q24 -39 24 -128q0 -107 -87 -130q-28 -8 -65 -8h-148q0 -52 20.5 -66t58.5 -15h21.5h15.5zM297 313
q24 0 33 17q4 8 4 24.5t-1.5 28t-7.5 19.5q-10 14 -42 14t-45 -2.5t-24 -12.5q-17 -16 -17 -78q0 -5 1 -10h99z" />
    <glyph glyph-name="f" unicode="f" horiz-adv-x="405" 
d="M13 412v102l79 17v99q0 105 71 139q38 17 107 17t122 -24v-96l-86 2h-2q-33 0 -41 -15t-8 -59l1 -9v-54h110v-119h-110v-412h-164v412h-79z" />
    <glyph glyph-name="g" unicode="g" horiz-adv-x="563" 
d="M31 98q0 76 63 98q-21 14 -35 40q-24 45 -24 108q0 189 188 189h327v-93l-51 -18q13 -34 14.5 -56.5t1.5 -50t-8.5 -56t-27.5 -54.5q-42 -56 -152 -56h-111q-31 0 -35.5 -6.5t-4.5 -18.5q0 -20 40 -20h145q79 0 123 -40.5t44 -123.5v-56q0 -69 -40.5 -111.5t-131.5 -42.5
h-150q-75 0 -121.5 39t-46.5 115v61l49 43q-23 11 -39.5 39.5t-16.5 70.5zM203 -93q0 -40 24 -47q11 -4 31 -4h58q34 0 42 15q7 11 7 33v31q0 41 -46 41h-75l-41 2v-71zM202 376q-3 -12 -3 -34.5t5 -37.5q11 -28 49 -28h41q32 0 44.5 15t12.5 51.5t-14 50t-44 13.5h-40
q-23 0 -35.5 -9t-15.5 -21z" />
    <glyph glyph-name="h" unicode="h" 
d="M40 0v782h164v-306q60 49 106 59q24 5 62 5t70 -14.5t48 -42.5q30 -50 30 -135v-348h-164v350q0 35 -12 49.5t-42 14.5q-57 0 -98 -42v-372h-164z" />
    <glyph glyph-name="i" unicode="i" horiz-adv-x="238" 
d="M34 607v101q0 26 24 26h124q23 0 23 -26v-101q0 -23 -23 -23h-124q-11 0 -17.5 6.5t-6.5 16.5zM37 0v531h164v-531h-164z" />
    <glyph glyph-name="j" unicode="j" horiz-adv-x="252" 
d="M40 607v101q0 26 24 26h126q10 0 16 -7.5t6 -18.5v-101q0 -23 -22 -23h-126q-10 0 -17 6.5t-7 16.5zM45 -270v801h164v-535v-50q0 -135 -41 -216h-123z" />
    <glyph glyph-name="k" unicode="k" horiz-adv-x="578" 
d="M40 0v782h164v-425h26l131 174h205l-186 -233l186 -298h-194l-142 238h-26v-238h-164z" />
    <glyph glyph-name="l" unicode="l" horiz-adv-x="318" 
d="M40 189v594h164v-564q0 -51 10.5 -70.5t31.5 -29.5q53 -21 60 -21v-98h-126q-71 0 -105.5 43.5t-34.5 145.5z" />
    <glyph glyph-name="m" unicode="m" horiz-adv-x="867" 
d="M517 376l1 -29v-347h-164v350q0 63 -48 63q-34 0 -57 -9.5t-45 -32.5v-371h-164v531h135l29 -55q65 51 106 59q22 4 51 4q100 0 135 -65q43 30 85.5 47.5t85 17.5t67 -6.5t41.5 -19t28.5 -29.5t18.5 -39q12 -42 12 -99v-346h-164v350q0 63 -47 63q-70 0 -106 -37z" />
    <glyph glyph-name="n" unicode="n" 
d="M40 0v531h135l29 -55q28 22 43 32.5t46.5 21t74 10.5t74.5 -14.5t48 -42.5q30 -50 30 -135v-348h-164v350q0 46 -22 58q-10 6 -36 6q-53 0 -94 -42v-372h-164z" />
    <glyph glyph-name="o" unicode="o" horiz-adv-x="557" 
d="M34 258q0 109 24 169t75.5 84.5t145.5 24.5q138 0 191.5 -60t53.5 -213.5t-52.5 -210.5t-191 -57t-192.5 59.5t-54 203.5zM198 245q0 -49 7.5 -77.5t23 -37t44.5 -8.5t41 2t22.5 8.5t14.5 22.5q9 33 9 89.5t-2 81t-6 43t-14 26.5q-28 22 -90 13q-26 -4 -37 -24t-12 -55
t-1 -84z" />
    <glyph glyph-name="p" unicode="p" horiz-adv-x="557" 
d="M40 -270v801h138l27 -51q69 57 154 57t125.5 -67.5t40.5 -201.5q0 -166 -49 -225q-41 -51 -123 -51t-149 32v-294h-164zM303 115q20 0 32 10q26 22 26 119.5t-14 127t-44 29.5q-66 0 -98 -28v-241q34 -17 98 -17z" />
    <glyph glyph-name="q" unicode="q" horiz-adv-x="555" 
d="M77.5 57q-43.5 67 -43.5 209t50.5 206.5t147.5 64.5q78 0 160.5 -9.5t122.5 -23.5v-774h-164v299q-45 -39 -119 -39q-111 0 -154.5 67zM198 261q0 -25 0.5 -45.5t4 -43.5t11.5 -33q17 -26 58.5 -25.5t78.5 20.5v284h-82q-40 0 -59 -40q-12 -28 -12 -117z" />
    <glyph glyph-name="r" unicode="r" horiz-adv-x="414" 
d="M40 0v531h142l22 -67q25 31 46.5 43.5t33.5 17.5q27 11 60.5 11t49.5 -6v-157q-30 1 -76.5 1t-73 -11t-40.5 -48v-315h-164z" />
    <glyph glyph-name="s" unicode="s" horiz-adv-x="509" 
d="M26 343v46q0 43 13 74.5t44.5 52t96 20.5t110 -1t97.5 -8.5t69 -21.5v-100h-233q-19 0 -26 -5.5t-7 -22.5v-16q0 -17 8 -21.5t25 -4.5h115q51 0 84 -20q60 -35 60 -121v-56q0 -75 -37 -109t-93 -34q-80 0 -127.5 1t-103.5 9t-73 23v99h243q27 0 27 26v16q0 14 -5.5 20.5
t-21.5 6.5h-111q-154 0 -154 147z" />
    <glyph glyph-name="t" unicode="t" horiz-adv-x="383" 
d="M13 413v86l81 33l26 148h138v-148h106v-119h-106v-193q0 -52 10 -72t32 -30q52 -20 58 -20v-98h-134q-41 0 -69 17q-61 39 -61 173v223h-81z" />
    <glyph glyph-name="u" unicode="u" 
d="M34 184v347h164v-351q0 -45 21 -57q10 -5 36 -5q53 0 93 42v371h164v-531h-134l-30 54q-10 -6 -27 -17.5t-27.5 -18t-26.5 -13.5q-30 -14 -77 -14t-79 14.5t-48 42.5q-29 50 -29 136z" />
    <glyph glyph-name="v" unicode="v" horiz-adv-x="575" 
d="M13 531h175l98 -347l102 347h174l-186 -531h-186z" />
    <glyph glyph-name="w" unicode="w" horiz-adv-x="835" 
d="M13 531h175l88 -347l80 347h160l-30 -133l78 -214l84 347h175l-160 -531h-187l-65 168l-51 -168h-188z" />
    <glyph glyph-name="x" unicode="x" horiz-adv-x="590" 
d="M16 0l180 266l-180 265h198l80 -143l82 143h198l-183 -268l175 -263h-190l-81 141l-81 -141h-198z" />
    <glyph glyph-name="y" unicode="y" horiz-adv-x="587" 
d="M14 531h171l78 -356q9 -36 49 -39l90 395h168l-166 -699l-72 -102h-119l68 270q-136 0 -172 144z" />
    <glyph glyph-name="z" unicode="z" horiz-adv-x="480" 
d="M20 397v134h441v-134l-207 -262h207v-134h-426v133l220 263h-235z" />
    <glyph glyph-name="braceleft" unicode="{" horiz-adv-x="321" 
d="M81 446v210q0 88 56.5 137t170.5 49v-134q-36 0 -49.5 -22.5t-13.5 -89.5v-161q0 -91 -100 -101q46 -9 72.5 -34t26.5 -64v-222q0 -51 13.5 -74.5t48.5 -23.5h2v-126q-123 0 -175.5 42.5t-52.5 129.5v259q0 27 -17 40t-42 13h-8v119q31 3 49.5 14t18.5 39z" />
    <glyph glyph-name="bar" unicode="|" horiz-adv-x="248" 
d="M58 -72v842h134v-842h-134z" />
    <glyph glyph-name="braceright" unicode="}" horiz-adv-x="321" 
d="M15 -84q36 0 49.5 23.5t13.5 74.5v222q0 39 26 64t73 34q-100 10 -100 101v161q0 85 -26 103q-13 9 -38 9v134q114 0 171 -49t57 -137v-210q0 -19 10.5 -31t24 -16t32.5 -6v-119h-8q-24 0 -41 -13t-17 -40v-259q0 -87 -52.5 -129.5t-176.5 -42.5v126h2z" />
    <glyph glyph-name="asciitilde" unicode="~" horiz-adv-x="412" 
d="M155 664q23 0 55 -17.5t51 -17.5h4q46 0 89 40l25 -66q-54 -72 -113 -72q-22 0 -58.5 17.5t-59.5 17.5t-41.5 -8t-47.5 -27l-25 61q59 72 121 72z" />
    <glyph glyph-name="exclamdown" unicode="&#xa1;" horiz-adv-x="278" 
d="M65 338v100q0 21 24 23h98q9 -1 16.5 -8.5t7.5 -17.5v-96q-1 -27 -23 -27h-99q-24 0 -24 26zM57 -270l17 534h129l16 -534h-162z" />
    <glyph glyph-name="cent" unicode="&#xa2;" horiz-adv-x="486" 
d="M39 134q-13 54 -13 132.5t13 132.5q33 138 164 138q2 0 3 -1v98h96v-100q86 -8 151 -32v-98q-81 6 -135.5 6t-64.5 -1t-23 -5t-18.5 -13t-11.5 -25q-10 -27 -10 -84.5t3.5 -82.5t9 -41.5t17.5 -23.5q20 -13 62 -13q83 0 154 7l23 2v-100q-59 -34 -160 -36v-89h-96v89
q-131 2 -164 140z" />
    <glyph glyph-name="sterling" unicode="&#xa3;" horiz-adv-x="578" 
d="M34 0v126l64 23v159h-64v82l64 24v61q0 127 45 187q40 53 129 65q37 5 77 5q65 0 163 -12l32 -4v-132h-186q-59 0 -77.5 -15.5t-18.5 -76.5v-78l204 -16v-90h-204v-159h282v-149h-510z" />
    <glyph glyph-name="currency" unicode="&#xa4;" horiz-adv-x="442" 
d="M133 442q40 27 87.5 27t87.5 -26l46 47l54 -49l-49 -51q21 -36 21 -84t-30 -89l48 -45l-50 -56l-54 52q-34 -18 -76 -18t-80 25l-47 -48l-53 52l48 49q-22 40 -22 82.5t20 76.5l-50 47l52 53zM170.5 362q-21.5 -22 -21.5 -44.5t5.5 -36t15.5 -23.5q21 -22 51.5 -22
t52 21.5t21.5 52t-21.5 52.5t-51.5 22t-51.5 -22z" />
    <glyph glyph-name="yen" unicode="&#xa5;" horiz-adv-x="646" 
d="M531 344v-90h-134v-31h134v-89h-134v-134h-164v134h-129v89h129v31h-129v90h83l-174 388h179l126 -328l136 328h179l-187 -388h85z" />
    <glyph glyph-name="brokenbar" unicode="&#xa6;" horiz-adv-x="249" 
d="M58 -72v328h134v-328h-134zM58 429v341h134v-341h-134z" />
    <glyph glyph-name="section" unicode="&#xa7;" horiz-adv-x="537" 
d="M38 330v25v6q0 70 28 96q15 14 38 21q-67 31 -67 112v40q0 74 37.5 114t107.5 40q200 0 282 -19v-115h-230q-33 0 -33 -30v-22q0 -31 35 -31h102q85 0 124.5 -30t39.5 -95v-25q0 -95 -65 -115q40 -6 53 -43q10 -30 10 -61v-50q0 -91 -45 -126q-39 -30 -93 -30
q-218 0 -288 19v115h227q25 0 30.5 8t5.5 19v27q0 16 -8 22t-27 6h-105q-78 0 -118.5 27t-40.5 95zM201 371q0 -23 9.5 -30t31.5 -7h52q28 0 35.5 8t7.5 30v29q0 31 -19 37q-9 2 -24 2h-52q-26 0 -33.5 -9t-7.5 -32v-28z" />
    <glyph glyph-name="dieresis" unicode="&#xa8;" horiz-adv-x="445" 
d="M34 581.5q0 25.5 18 43.5t43.5 18t43.5 -17.5t18 -43.5t-18 -44t-43.5 -18t-43.5 18t-18 43.5zM288 581.5q0 25.5 18.5 43.5t44 18t43.5 -17.5t18 -43.5t-18 -44t-43.5 -18t-44 18t-18.5 43.5z" />
    <glyph glyph-name="copyright" unicode="&#xa9;" horiz-adv-x="796" 
d="M86 619q58 113 216 113h217q59 0 102.5 -20t69.5 -52.5t42 -80.5q27 -83 27 -207t-29 -207q-57 -165 -212 -165h-217q-135 0 -200 103t-65 261t49 255zM138 368q0 -123 41 -198.5t123 -75.5h210q147 0 147 274q0 151 -34 210q-14 25 -41 42.5t-65 17.5h-217
q-72 0 -115 -51q-49 -59 -49 -219zM364 583q113 0 186 -24v-82q-84 12 -156 12q-40 0 -56 -27t-16 -85t8 -84q15 -52 70 -52q70 0 156 16v-82q-60 -28 -185 -28q-83 0 -120 65q-31 52 -31 161q0 210 144 210z" />
    <glyph glyph-name="ordfeminine" unicode="&#xaa;" horiz-adv-x="367" 
d="M20 260v74h328v-74h-328zM32 710q67 28 152.5 28t124 -25.5t38.5 -91.5v-243h-97l-28 43q-5 -14 -31 -30.5t-57 -16.5q-57 0 -85.5 29t-28.5 65v30q0 42 27 69.5t79.5 27.5h74h21.5q2 25 -5 35t-16 12t-34 2t-56 -2t-52.5 -4.5t-26.5 -2.5v75zM168 462q36 0 54 22v49
l-60 -5q-17 -1 -21.5 -9t-4.5 -21v-10q0 -17 8.5 -21.5t23.5 -4.5z" />
    <glyph glyph-name="guillemotleft" unicode="&#xab;" horiz-adv-x="592" 
d="M34 354l206 203l85 -84l-121 -119l123 -122l-83 -86zM265 354l206 203l86 -84l-121 -119l123 -122l-83 -86z" />
    <glyph glyph-name="logicalnot" unicode="&#xac;" horiz-adv-x="482" 
d="M28 234v126h426v-201h-126v75h-300z" />
    <glyph glyph-name="uni00AD" unicode="&#xad;" horiz-adv-x="354" 
d="M20 223v134h314v-134h-314z" />
    <glyph glyph-name="registered" unicode="&#xae;" horiz-adv-x="796" 
d="M86 619q58 113 216 113h217q59 0 102.5 -20t69.5 -52.5t42 -80.5q27 -83 27 -207t-29 -207q-57 -165 -212 -165h-217q-135 0 -200 103t-65 261t49 255zM138 368q0 -123 41 -198.5t123 -75.5h210q147 0 147 274q0 151 -34 210q-14 25 -41 42.5t-65 17.5h-217
q-72 0 -115 -51q-49 -59 -49 -219zM243 153v427h185q134 0 134 -136q0 -60 -18.5 -89.5t-53.5 -40.5l85 -161h-109l-80 155l-42 12v-167h-101zM344 394h60q38 0 47 8.5t9 38.5t-11.5 37.5t-44.5 7.5h-60v-92z" />
    <glyph glyph-name="macron" unicode="&#xaf;" horiz-adv-x="359" 
d="M34 531v85h292v-85h-292z" />
    <glyph glyph-name="degree" unicode="&#xb0;" horiz-adv-x="270" 
d="M34 632q0 28 13.5 51.5t37 37.5t51 14t51 -14t36.5 -37.5t13 -51.5t-13 -51.5t-36.5 -37t-51 -13.5t-51 13.5t-37 37t-13.5 51.5zM95 632q0 -17 12 -28.5t28.5 -11.5t28 11.5t11.5 28.5t-11.5 29t-28 12t-28.5 -12t-12 -29z" />
    <glyph glyph-name="plusminus" unicode="&#xb1;" horiz-adv-x="491" 
d="M38 64v134h416v-134h-416zM38 380v134h140v140h134v-140h142v-134h-142v-142h-134v142h-140z" />
    <glyph glyph-name="twosuperior" unicode="&#xb2;" horiz-adv-x="405" 
d="M21 745q-1 0 -1 27t1 43v23q102 21 205 21q76 0 113.5 -40.5t37.5 -108.5q0 -99 -163 -228h163v-114h-353v109q62 40 118 86q110 90 110 133q0 29 -17 39t-60 10h-154z" />
    <glyph glyph-name="threesuperior" unicode="&#xb3;" horiz-adv-x="409" 
d="M197 363q-118 0 -173 20l1 93l153 1q41 0 54 5.5t13 25.5v9q0 20 -14.5 27.5t-48.5 7.5l-116 6v100l116 8q36 0 50.5 7t14.5 26v8q0 26 -31 31q-13 2 -34 2h-162v93q58 21 188 21q16 0 39 -0.5t47.5 -9t40.5 -24.5q35 -33 35 -88v-29q0 -75 -60 -95q60 -19 60 -100v-22
q0 -59 -34 -91t-100 -32h-39z" />
    <glyph glyph-name="acute" unicode="&#xb4;" horiz-adv-x="243" 
d="M13 531l85 141h132l-118 -141h-99z" />
    <glyph glyph-name="uni00B5" unicode="&#xb5;" horiz-adv-x="586" 
d="M225 180q0 -62 47 -62q35 0 58.5 9.5t45.5 32.5v371h164v-531h-135l-29 54q-5 -3 -24 -15t-27 -16q-42 -24 -84 -24q-8 0 -16 1v-270h-164v801h164v-351z" />
    <glyph glyph-name="paragraph" unicode="&#xb6;" horiz-adv-x="575" 
d="M26 499v93q0 69 43 104.5t113 35.5h381v-114h-47v-618h-112v620h-56v-890h-112v642l-8 -5q-18 -12 -46 -12q-78 0 -117 40.5t-39 103.5zM138 514q0 -32 16 -40q13 -8 36 -8h46v154h-46q-33 0 -42.5 -11.5t-9.5 -42.5v-52z" />
    <glyph glyph-name="periodcentered" unicode="&#xb7;" horiz-adv-x="260" 
d="M57 334v102q0 26 24 26h98q25 0 25 -26v-102q0 -22 -25 -22h-98q-16 0 -22 13q-2 4 -2 9z" />
    <glyph glyph-name="cedilla" unicode="&#xb8;" horiz-adv-x="241" 
d="M104 -37h104q0 -78 -25.5 -110.5t-90.5 -32.5h-58v68l40 15q20 9 25 19.5t5 40.5z" />
    <glyph glyph-name="onesuperior" unicode="&#xb9;" horiz-adv-x="270" 
d="M227 852v-484h-125v375l-91 -18v72l93 55h123z" />
    <glyph glyph-name="ordmasculine" unicode="&#xba;" horiz-adv-x="396" 
d="M59.5 414q-39.5 40 -39.5 141.5t39 141t139 39.5q68 0 106 -17.5t55 -57.5t17 -111q0 -99 -38 -137.5t-138.5 -38.5t-140 40zM34 261v73h328v-73h-328zM154.5 623.5q-9.5 -15.5 -9.5 -70t10.5 -68.5t38.5 -14t37 4q21 9 21 72t-9.5 77.5t-44 14.5t-44 -15.5z" />
    <glyph glyph-name="guillemotright" unicode="&#xbb;" horiz-adv-x="592" 
d="M34 232l123 122l-121 119l85 84l206 -203l-211 -208zM265 232l123 122l-121 119l86 84l206 -203l-211 -208z" />
    <glyph glyph-name="onequarter" unicode="&#xbc;" horiz-adv-x="941" 
d="M227 740v-485h-125v376l-91 -19v72l93 56h123zM159 0l437 760h114l-436 -760h-115zM758 206v96l23 50h102v-146h45v-96l-45 -20v-89h-125v89h-227l-23 55l158 339h130l-124 -278h86z" />
    <glyph glyph-name="onehalf" unicode="&#xbd;" horiz-adv-x="997" 
d="M227 740v-485h-125v376l-91 -19v72l93 56h123zM150 0l437 760h115l-437 -760h-115zM610 377q-1 0 -1 27.5v42.5l1 24q103 20 206 20q78 0 116 -40.5t38 -108.5q0 -98 -166 -228h166v-114h-357v110q63 42 121 90q111 92 111 137q0 23 -17.5 31.5t-61.5 8.5h-156z" />
    <glyph glyph-name="threequarters" unicode="&#xbe;" horiz-adv-x="1054" 
d="M20 721q57 21 155 21q33 0 69 -1q60 0 95 -33t35 -89v-28q0 -75 -59 -95q59 -20 59 -101v-21q0 -80 -60 -109q-31 -15 -75 -15h-23.5h-24t-22 0.5t-23 1t-21 1t-22 1.5t-20 2.5t-21.5 3.5q-24 6 -38 11l1 93h156q41 0 55 6t14 26v9q0 20 -15.5 27t-49.5 8l-119 5v100
l119 8q37 1 51.5 7.5t14.5 25.5v10q0 19 -16.5 25.5t-49.5 6.5h-165v93zM263 0l436 760h115l-437 -760h-114zM852 206v96l21 50h103v-146h44v-96l-44 -20v-88h-124v88h-229l-23 56l158 338h129l-124 -278h89z" />
    <glyph glyph-name="questiondown" unicode="&#xbf;" horiz-adv-x="543" 
d="M530 -117v-49v-61v-13q-97 -22 -150.5 -25t-80 -3t-39 0.5t-13.5 0.5q-55 0 -99 17.5t-70 47.5q-52 59 -52 136v63q0 102 49.5 148.5t143.5 46.5q13 0 27 -1v86h128l1 -207h-55.5h-49.5q-76 -3 -77 -78v-36q0 -35 23.5 -54.5t69.5 -19.5h3zM238 448q0 23 24 24h98
q10 0 17 -6.5t7 -16.5v-101q-1 -25 -24 -26h-98q-24 2 -24 26v100z" />
    <glyph glyph-name="Agrave" unicode="&#xc0;" horiz-adv-x="700" 
d="M197 938h132l85 -141h-99zM30 0l239 732h190l231 -732h-171l-48 147h-221l-48 -147h-172zM290 289h145l-69 233z" />
    <glyph glyph-name="Aacute" unicode="&#xc1;" horiz-adv-x="700" 
d="M315 797l84 141h133l-118 -141h-99zM30 0l239 732h190l231 -732h-171l-48 147h-221l-48 -147h-172zM290 289h145l-69 233z" />
    <glyph glyph-name="Acircumflex" unicode="&#xc2;" horiz-adv-x="700" 
d="M207 797l104 137h116l94 -137h-101l-54 56l-57 -56h-102zM30 0l239 732h190l231 -732h-171l-48 147h-221l-48 -147h-172zM290 289h145l-69 233z" />
    <glyph glyph-name="Atilde" unicode="&#xc3;" horiz-adv-x="700" 
d="M424 894q43 0 88 39l25 -66q-56 -70 -112 -70q-24 0 -60 17.5t-59 17.5t-41.5 -8t-47.5 -27l-26 61q59 71 122 71q24 0 56 -18q33 -17 55 -17zM30 0l239 732h190l231 -732h-171l-48 147h-221l-48 -147h-172zM290 289h145l-69 233z" />
    <glyph glyph-name="Adieresis" unicode="&#xc4;" horiz-adv-x="700" 
d="M175 859.5q0 25.5 18.5 43t44 17.5t43 -17.5t17.5 -43t-17.5 -44t-43 -18.5t-44 18.5t-18.5 44zM430 859.5q0 25.5 18.5 43t44 17.5t43 -17.5t17.5 -43t-17.5 -44t-43 -18.5t-44 18.5t-18.5 44zM30 0l239 732h190l231 -732h-171l-48 147h-221l-48 -147h-172zM290 289h145
l-69 233z" />
    <glyph glyph-name="Aring" unicode="&#xc5;" horiz-adv-x="700" 
d="M276.5 780.5q13.5 -23.5 37 -37t51 -13.5t51 13.5t37 37t13.5 59t-29.5 65.5t-71.5 30t-72 -30t-30 -65.5t13.5 -59zM336.5 859.5q11.5 11.5 28 11.5t27.5 -11t11 -27.5t-11 -27.5t-27.5 -11t-27.5 11q-5 5 -8.5 12t-3.5 19t11.5 23.5zM30 0l239 732h190l231 -732h-171
l-48 147h-221l-48 -147h-172zM290 289h145l-69 233z" />
    <glyph glyph-name="AE" unicode="&#xc6;" horiz-adv-x="966" 
d="M480 721q38 9 62 10.5t42.5 1.5t41.5 -1q222 -4 310 -16v-137h-265q-41 0 -48 -25q-3 -11 -4 -30v-85l269 -11v-135l-269 -9v-83q0 -42 28 -48q13 -3 34 -3h255v-136q-69 -10 -242 -16l-58 -2h-23.5t-38.5 3.5t-53.5 15t-47.5 39t-18 67.5v61h-163l-90 -182h-182l278 565
q63 128 182 156zM455 324v200l-95 -200h95z" />
    <glyph glyph-name="Ccedilla" unicode="&#xc7;" horiz-adv-x="569" 
d="M146 -37h104q0 -78 -25.5 -110.5t-90.5 -32.5h-58v68l40 15q25 11 28 30q2 9 2 30zM37 368q0 92 11.5 157.5t39.5 115.5q54 99 200 99q89 0 142.5 -7.5t116.5 -28.5v-128l-7 0.5t-19 2t-27.5 3t-35 3.5t-39.5 3q-45 3 -77 3t-46 -1.5t-30 -6t-25 -14t-17.5 -25.5
t-13.5 -40q-9 -55 -9 -160t26.5 -153t106.5 -48q93 0 183 6l30 3v-128q-84 -30 -231 -30h-28q-137 2 -195 99q-56 93 -56 275z" />
    <glyph glyph-name="Egrave" unicode="&#xc8;" horiz-adv-x="567" 
d="M160 937h133l84 -141h-99zM50 152v420q0 108 81 144q38 16 90 16q237 -4 324 -16v-137h-279q-37 0 -46 -18q-6 -14 -6 -38v-83l284 -10v-136l-284 -9v-83q0 -38 21 -46q15 -6 41 -6h269v-136q-72 -10 -289 -16l-25 -1h-19t-28.5 1.5t-44 10.5t-45 25t-31.5 46.5t-13 71.5
z" />
    <glyph glyph-name="Eacute" unicode="&#xc9;" horiz-adv-x="567" 
d="M271 796l85 140h132l-118 -140h-99zM50 152v420q0 108 81 144q38 16 90 16q237 -4 324 -16v-137h-279q-37 0 -46 -18q-6 -14 -6 -38v-83l284 -10v-136l-284 -9v-83q0 -38 21 -46q15 -6 41 -6h269v-136q-72 -10 -289 -16l-25 -1h-19t-28.5 1.5t-44 10.5t-45 25t-31.5 46.5
t-13 71.5z" />
    <glyph glyph-name="Ecircumflex" unicode="&#xca;" horiz-adv-x="567" 
d="M161 797l104 137h116l95 -137h-102l-54 56l-57 -56h-102zM50 152v420q0 108 81 144q38 16 90 16q237 -4 324 -16v-137h-279q-37 0 -46 -18q-6 -14 -6 -38v-83l284 -10v-136l-284 -9v-83q0 -38 21 -46q15 -6 41 -6h269v-136q-72 -10 -289 -16l-25 -1h-19t-28.5 1.5
t-44 10.5t-45 25t-31.5 46.5t-13 71.5z" />
    <glyph glyph-name="Edieresis" unicode="&#xcb;" horiz-adv-x="567" 
d="M140 814q-18 18 -18 39.5t8 35.5q18 30 49 30t48.5 -17.5t17.5 -43.5t-18 -44t-43.5 -18t-43.5 18zM377 857.5q0 25.5 18 43.5t43.5 18t43.5 -17.5t18 -43.5t-18 -44t-43 -18t-43.5 18t-18.5 43.5zM50 152v420q0 108 81 144q38 16 90 16q237 -4 324 -16v-137h-279
q-37 0 -46 -18q-6 -14 -6 -38v-83l284 -10v-136l-284 -9v-83q0 -38 21 -46q15 -6 41 -6h269v-136q-72 -10 -289 -16l-25 -1h-19t-28.5 1.5t-44 10.5t-45 25t-31.5 46.5t-13 71.5z" />
    <glyph glyph-name="Igrave" unicode="&#xcc;" horiz-adv-x="257" 
d="M-32 938h133l84 -141h-99zM54 0v732h164v-732h-164z" />
    <glyph glyph-name="Iacute" unicode="&#xcd;" horiz-adv-x="257" 
d="M86 797l85 141h132l-118 -141h-99zM54 0v732h164v-732h-164z" />
    <glyph glyph-name="Icircumflex" unicode="&#xce;" horiz-adv-x="257" 
d="M-22 797l105 137h116l94 -137h-101l-54 56l-58 -56h-102zM54 0v732h164v-732h-164z" />
    <glyph glyph-name="Idieresis" unicode="&#xcf;" horiz-adv-x="257" 
d="M-54 859.5q0 25.5 18.5 43t44 17.5t43.5 -17.5t18 -43t-18 -44t-43.5 -18.5t-44 18.5t-18.5 44zM202 859.5q0 25.5 18 43t43.5 17.5t43.5 -17.5t18 -43t-18 -44t-43.5 -18.5t-43.5 18.5t-18 44zM54 0v732h164v-732h-164z" />
    <glyph glyph-name="Eth" unicode="&#xd0;" horiz-adv-x="664" 
d="M-11 338v70h65v324h325q60 0 105 -20.5t72.5 -53.5t44.5 -82q30 -85 30 -213q0 -363 -252 -363h-325v338h-65zM218 142h146q55 0 78.5 55t23.5 145.5t-7 136t-21 69t-31.5 32.5t-42.5 9h-146v-181h101v-70h-101v-196z" />
    <glyph glyph-name="Ntilde" unicode="&#xd1;" horiz-adv-x="677" 
d="M406 894q43 0 88 39l25 -66q-56 -70 -112 -70q-20 0 -41 9t-39.5 17.5t-40 8.5t-40 -8t-47.5 -27l-26 61q58 71 122 71q24 0 56 -18q33 -17 55 -17zM54 0v732h166l254 -429v429h164v-732h-164l-255 422v-422h-165z" />
    <glyph glyph-name="Ograve" unicode="&#xd2;" horiz-adv-x="669" 
d="M175 938h132l85 -141h-99zM44 366q0 67 8 123.5t21.5 96t35.5 67.5t45 44t56 25q53 15 113.5 15t90 -3t63 -12t56 -25t44.5 -44t35 -67q28 -87 28 -225q0 -167 -47 -257q-24 -48 -77 -78q-54 -30 -174 -30q-122 0 -173 28q-55 29 -78 75q-33 64 -40 132t-7 135zM213 465
q-5 -41 -5 -92.5t1.5 -80t5 -52.5t10.5 -39.5t16.5 -27t24.5 -17.5q29 -11 73 -11t68 8.5t40.5 33t22.5 65.5t6 106t-4.5 104.5t-13 65.5t-25.5 38.5t-37 17t-53.5 4.5t-52.5 -3.5t-37 -16t-26.5 -37.5t-13.5 -66z" />
    <glyph glyph-name="Oacute" unicode="&#xd3;" horiz-adv-x="669" 
d="M293 797l84 141h133l-118 -141h-99zM44 366q0 67 8 123.5t21.5 96t35.5 67.5t45 44t56 25q53 15 113.5 15t90 -3t63 -12t56 -25t44.5 -44t35 -67q28 -87 28 -225q0 -167 -47 -257q-24 -48 -77 -78q-54 -30 -174 -30q-122 0 -173 28q-55 29 -78 75q-33 64 -40 132t-7 135z
M213 465q-5 -41 -5 -92.5t1.5 -80t5 -52.5t10.5 -39.5t16.5 -27t24.5 -17.5q29 -11 73 -11t68 8.5t40.5 33t22.5 65.5t6 106t-4.5 104.5t-13 65.5t-25.5 38.5t-37 17t-53.5 4.5t-52.5 -3.5t-37 -16t-26.5 -37.5t-13.5 -66z" />
    <glyph glyph-name="Ocircumflex" unicode="&#xd4;" horiz-adv-x="669" 
d="M185 797l104 137h116l95 -137h-102l-54 56l-57 -56h-102zM44 366q0 67 8 123.5t21.5 96t35.5 67.5t45 44t56 25q53 15 113.5 15t90 -3t63 -12t56 -25t44.5 -44t35 -67q28 -87 28 -225q0 -167 -47 -257q-24 -48 -77 -78q-54 -30 -174 -30q-122 0 -173 28q-55 29 -78 75
q-33 64 -40 132t-7 135zM213 465q-5 -41 -5 -92.5t1.5 -80t5 -52.5t10.5 -39.5t16.5 -27t24.5 -17.5q29 -11 73 -11t68 8.5t40.5 33t22.5 65.5t6 106t-4.5 104.5t-13 65.5t-25.5 38.5t-37 17t-53.5 4.5t-52.5 -3.5t-37 -16t-26.5 -37.5t-13.5 -66z" />
    <glyph glyph-name="Otilde" unicode="&#xd5;" horiz-adv-x="669" 
d="M402 894q43 0 88 39l25 -66q-56 -70 -112 -70q-24 0 -60 17.5t-59 17.5t-41.5 -8t-47.5 -27l-25 61q58 71 121 71q24 0 56 -18q33 -17 55 -17zM44 366q0 67 8 123.5t21.5 96t35.5 67.5t45 44t56 25q53 15 113.5 15t90 -3t63 -12t56 -25t44.5 -44t35 -67q28 -87 28 -225
q0 -167 -47 -257q-24 -48 -77 -78q-54 -30 -174 -30q-122 0 -173 28q-55 29 -78 75q-33 64 -40 132t-7 135zM213 465q-5 -41 -5 -92.5t1.5 -80t5 -52.5t10.5 -39.5t16.5 -27t24.5 -17.5q29 -11 73 -11t68 8.5t40.5 33t22.5 65.5t6 106t-4.5 104.5t-13 65.5t-25.5 38.5
t-37 17t-53.5 4.5t-52.5 -3.5t-37 -16t-26.5 -37.5t-13.5 -66z" />
    <glyph glyph-name="Odieresis" unicode="&#xd6;" horiz-adv-x="669" 
d="M171.5 815.5q-18.5 18.5 -18.5 39.5t8 35q19 30 49.5 30t48 -17.5t17.5 -43t-17.5 -44t-43 -18.5t-44 18.5zM408 859.5q0 25.5 18.5 43t44 17.5t43.5 -17.5t18 -43t-18 -44t-43.5 -18.5t-44 18.5t-18.5 44zM44 366q0 67 8 123.5t21.5 96t35.5 67.5t45 44t56 25
q53 15 113.5 15t90 -3t63 -12t56 -25t44.5 -44t35 -67q28 -87 28 -225q0 -167 -47 -257q-24 -48 -77 -78q-54 -30 -174 -30q-122 0 -173 28q-55 29 -78 75q-33 64 -40 132t-7 135zM213 465q-5 -41 -5 -92.5t1.5 -80t5 -52.5t10.5 -39.5t16.5 -27t24.5 -17.5q29 -11 73 -11
t68 8.5t40.5 33t22.5 65.5t6 106t-4.5 104.5t-13 65.5t-25.5 38.5t-37 17t-53.5 4.5t-52.5 -3.5t-37 -16t-26.5 -37.5t-13.5 -66z" />
    <glyph glyph-name="multiply" unicode="&#xd7;" horiz-adv-x="463" 
d="M38 256l99 99l-99 100l94 95l100 -100l100 101l95 -95l-100 -101l100 -99l-95 -95l-100 99l-99 -99z" />
    <glyph glyph-name="Oslash" unicode="&#xd8;" horiz-adv-x="680" 
d="M115 653q22 28 45 44t56 25q53 15 133 15q125 0 183 -36l22 31h80l-53 -76q66 -87 66 -295q0 -200 -61 -279q-40 -53 -100 -70q-54 -16 -130 -16t-123.5 8.5t-82.5 33.5l-27 -38h-80l61 88q-53 83 -53 283t64 282zM217.5 439.5q-2.5 -33.5 -2.5 -91.5t8 -93l215 313
q-24 20 -89 20q-73 0 -95 -24q-23 -25 -28.5 -58t-8 -66.5zM248 176q26 -31 90.5 -31t92 17t40 63t12.5 138.5t-13 137.5z" />
    <glyph glyph-name="Ugrave" unicode="&#xd9;" horiz-adv-x="660" 
d="M170 938h132l85 -141h-99zM340 -5h-15q-93 0 -117 8.5t-47 19.5t-36 27t-28.5 41t-23.5 57q-19 76 -19 172v412h164v-412q0 -53 4.5 -85t18.5 -53.5t37 -29.5t62 -8q67 0 91.5 38.5t24.5 137.5v412h165v-412q0 -195 -73 -263q-26 -24 -46.5 -36t-53.5 -18q-44 -8 -108 -8
z" />
    <glyph glyph-name="Uacute" unicode="&#xda;" horiz-adv-x="660" 
d="M288 797l84 141h133l-118 -141h-99zM340 -5h-15q-93 0 -117 8.5t-47 19.5t-36 27t-28.5 41t-23.5 57q-19 76 -19 172v412h164v-412q0 -53 4.5 -85t18.5 -53.5t37 -29.5t62 -8q67 0 91.5 38.5t24.5 137.5v412h165v-412q0 -195 -73 -263q-26 -24 -46.5 -36t-53.5 -18
q-44 -8 -108 -8z" />
    <glyph glyph-name="Ucircumflex" unicode="&#xdb;" horiz-adv-x="660" 
d="M180 797l104 137h116l94 -137h-100l-55 56l-57 -56h-102zM340 -5h-15q-93 0 -117 8.5t-47 19.5t-36 27t-28.5 41t-23.5 57q-19 76 -19 172v412h164v-412q0 -53 4.5 -85t18.5 -53.5t37 -29.5t62 -8q67 0 91.5 38.5t24.5 137.5v412h165v-412q0 -195 -73 -263
q-26 -24 -46.5 -36t-53.5 -18q-44 -8 -108 -8z" />
    <glyph glyph-name="Udieresis" unicode="&#xdc;" horiz-adv-x="660" 
d="M166.5 815.5q-18.5 18.5 -18.5 39.5t8 35q19 30 49.5 30t48.5 -17.5t18 -43t-18 -44t-43.5 -18.5t-44 18.5zM403 859.5q0 25.5 18.5 43t44 17.5t43 -17.5t17.5 -43t-17.5 -44t-43 -18.5t-44 18.5t-18.5 44zM340 -5h-15q-93 0 -117 8.5t-47 19.5t-36 27t-28.5 41t-23.5 57
q-19 76 -19 172v412h164v-412q0 -53 4.5 -85t18.5 -53.5t37 -29.5t62 -8q67 0 91.5 38.5t24.5 137.5v412h165v-412q0 -195 -73 -263q-26 -24 -46.5 -36t-53.5 -18q-44 -8 -108 -8z" />
    <glyph glyph-name="Yacute" unicode="&#xdd;" horiz-adv-x="666" 
d="M290 797l85 141h133l-118 -141h-100zM414 0h-164v215l-220 517h178l126 -339l138 339h178l-236 -517v-215z" />
    <glyph glyph-name="Thorn" unicode="&#xde;" horiz-adv-x="542" 
d="M289.5 148q-26.5 0 -85.5 20v-168h-164v729h164v-141h130q176 -1 176 -213q0 -159 -82 -204q-37 -20 -74.5 -21.5t-64 -1.5zM204 290h70h1q41 0 55.5 15t14.5 54.5t-5 55t-17 22.5q-17 9 -49 9h-70v-156z" />
    <glyph glyph-name="germandbls" unicode="&#xdf;" horiz-adv-x="573" 
d="M40 0v566q0 93 63.5 154.5t182.5 61.5q69 0 120 -17q92 -29 123 -108q12 -31 12 -50t-1.5 -41t-16 -59.5t-32 -59.5t-37.5 -41t-27.5 -31t-7.5 -26t14.5 -26t35.5 -24t41.5 -27t35 -41t14.5 -59v-25q1 -155 -172 -155q-69 0 -140 19v113q65 -6 83.5 -6t28 3t18.5 9
q18 12 18 41v16q0 29 -47 54q-19 10 -39 22t-34 34.5t-14 60t17 63.5t60 64q38 35 38 77.5t-22 58t-66.5 15.5t-64.5 -31t-20 -107v-498h-164z" />
    <glyph glyph-name="agrave" unicode="&#xe0;" horiz-adv-x="519" 
d="M100 742h133l84 -141h-99zM26 139v46q0 65 39 107.5t115 42.5h109h33q1 21 0 22q0 38 -15 48.5t-61 10.5t-202 -11v99q50 21 104 29q55 8 144.5 8t141.5 -39t52 -138v-364h-130l-34 56q-8 -17 -47 -39.5t-86 -22.5q-82 0 -122.5 45t-40.5 100zM237 120q48 0 85 38v81
l-94 -8q-38 -3 -38 -50v-17q0 -31 16 -38q11 -6 31 -6z" />
    <glyph glyph-name="aacute" unicode="&#xe1;" horiz-adv-x="519" 
d="M217 601l84 141h133l-118 -141h-99zM26 139v46q0 65 39 107.5t115 42.5h109h33q1 21 0 22q0 38 -15 48.5t-61 10.5t-202 -11v99q50 21 104 29q55 8 144.5 8t141.5 -39t52 -138v-364h-130l-34 56q-8 -17 -47 -39.5t-86 -22.5q-82 0 -122.5 45t-40.5 100zM237 120
q48 0 85 38v81l-94 -8q-38 -3 -38 -50v-17q0 -31 16 -38q11 -6 31 -6z" />
    <glyph glyph-name="acircumflex" unicode="&#xe2;" horiz-adv-x="519" 
d="M110 601l104 137h116l94 -137h-101l-55 56l-56 -56h-102zM26 139v46q0 65 39 107.5t115 42.5h109h33q1 21 0 22q0 38 -15 48.5t-61 10.5t-202 -11v99q50 21 104 29q55 8 144.5 8t141.5 -39t52 -138v-364h-130l-34 56q-8 -17 -47 -39.5t-86 -22.5q-82 0 -122.5 45
t-40.5 100zM237 120q48 0 85 38v81l-94 -8q-38 -3 -38 -50v-17q0 -31 16 -38q11 -6 31 -6z" />
    <glyph glyph-name="atilde" unicode="&#xe3;" horiz-adv-x="519" 
d="M325 698q44 0 88 39l25 -66q-55 -70 -112 -70q-24 0 -60 17.5t-58.5 17.5t-41.5 -8t-48 -27l-25 61q58 71 121 71q24 0 57 -18q33 -17 54 -17zM26 139v46q0 65 39 107.5t115 42.5h109h33q1 21 0 22q0 38 -15 48.5t-61 10.5t-202 -11v99q50 21 104 29q55 8 144.5 8
t141.5 -39t52 -138v-364h-130l-34 56q-8 -17 -47 -39.5t-86 -22.5q-82 0 -122.5 45t-40.5 100zM237 120q48 0 85 38v81l-94 -8q-38 -3 -38 -50v-17q0 -31 16 -38q11 -6 31 -6z" />
    <glyph glyph-name="adieresis" unicode="&#xe4;" horiz-adv-x="519" 
d="M77 663.5q0 25.5 18.5 43.5t44 18t43.5 -18t18 -43.5t-18 -44t-43.5 -18.5t-44 18.5t-18.5 44zM332 663.5q0 25.5 18.5 43.5t44 18t43.5 -18t18 -43.5t-18 -44t-43.5 -18.5t-44 18.5t-18.5 44zM26 139v46q0 65 39 107.5t115 42.5h109h33q1 21 0 22q0 38 -15 48.5
t-61 10.5t-202 -11v99q50 21 104 29q55 8 144.5 8t141.5 -39t52 -138v-364h-130l-34 56q-8 -17 -47 -39.5t-86 -22.5q-82 0 -122.5 45t-40.5 100zM237 120q48 0 85 38v81l-94 -8q-38 -3 -38 -50v-17q0 -31 16 -38q11 -6 31 -6z" />
    <glyph glyph-name="aring" unicode="&#xe5;" horiz-adv-x="519" 
d="M175 656q-8 19 -8 43.5t13.5 48t37 37t58.5 13.5t64.5 -30t29.5 -65.5t-13.5 -58.5t-37 -36.5t-47.5 -13.5t-43 7.5t-32.5 21.5t-21.5 33zM229 695.5q0 -16.5 11.5 -27.5t28 -11t27.5 11t11 27.5t-11 28t-27.5 11.5t-28 -11.5t-11.5 -28zM26 139v46q0 65 39 107.5
t115 42.5h109h33q1 21 0 22q0 38 -15 48.5t-61 10.5t-202 -11v99q50 21 104 29q55 8 144.5 8t141.5 -39t52 -138v-364h-130l-34 56q-8 -17 -47 -39.5t-86 -22.5q-82 0 -122.5 45t-40.5 100zM237 120q48 0 85 38v81l-94 -8q-38 -3 -38 -50v-17q0 -31 16 -38q11 -6 31 -6z" />
    <glyph glyph-name="ae" unicode="&#xe6;" horiz-adv-x="832" 
d="M26 140v34q0 112 99 141q29 9 80 8.5t84 -0.5t33 1q1 17 1 25.5t-1 8.5q0 39 -15 49.5t-53 10.5t-210 -12v99q49 22 102.5 29.5t133.5 7.5q103 -2 144 -36q30 18 64 24t86 6t86.5 -3.5t64.5 -14.5t47 -32q34 -44 34 -136q0 -74 -40 -103q-38 -27 -112 -27h-149
q0 -59 27 -78.5t90.5 -19.5t92.5 1.5t81 9.5v-109q-33 -13 -91.5 -20t-89.5 -7.5t-91 -0.5t-93.5 17t-56.5 52q-10 -23 -73 -46.5t-114 -23.5q-80 0 -120.5 45t-40.5 100zM237 122q48 0 85 38v69l-94 -8q-38 -3 -38 -50v-9q0 -29 14 -35q10 -5 26 -5h7zM583 418h-7
q-24 0 -34 -1.5t-21 -10.5t-13.5 -26.5t-2.5 -34v-21.5h99q18 0 28 9.5t10 28.5t-1.5 29.5t-8.5 17t-17 8t-32 1.5z" />
    <glyph glyph-name="ccedilla" unicode="&#xe7;" horiz-adv-x="492" 
d="M284 -6l-68 1q-4 0 -8 -1q-128 0 -161 140q-13 54 -13 119.5t5.5 107t17 71t26.5 50t35 32.5q38 22 90 22q157 0 251 -34v-98q-80 6 -134.5 6t-64.5 -1t-23 -5t-18.5 -13t-11.5 -25q-9 -27 -9 -84.5t3 -82.5t8.5 -41.5t17.5 -23.5q20 -13 62 -13q83 0 154 7l23 2v-100
q-44 -26 -88 -30q-57 -6 -94 -6zM222 -38h104q0 -78 -25 -110.5t-91 -32.5h-58v68l41 15q20 9 24.5 19.5t4.5 40.5z" />
    <glyph glyph-name="egrave" unicode="&#xe8;" horiz-adv-x="525" 
d="M103 736h133l84 -140h-99zM314 121q101 0 174 11v-109q-33 -14 -91.5 -20.5t-89.5 -7t-99 -0.5q-98 0 -136 63t-38 210q0 85 11.5 137t41 81t70.5 39t97.5 10t86 -2.5t58 -9.5t45.5 -20t30 -35q24 -39 24 -128q0 -107 -87 -130q-28 -8 -65 -8h-148q0 -52 20.5 -66
t58.5 -15h21.5h15.5zM297 313q24 0 33 17q4 8 4 24.5t-1.5 28t-7.5 19.5q-10 14 -42 14t-45 -2.5t-24 -12.5q-17 -16 -17 -78q0 -5 1 -10h99z" />
    <glyph glyph-name="eacute" unicode="&#xe9;" horiz-adv-x="525" 
d="M219 596l84 140h133l-118 -140h-99zM314 121q101 0 174 11v-109q-33 -14 -91.5 -20.5t-89.5 -7t-99 -0.5q-98 0 -136 63t-38 210q0 85 11.5 137t41 81t70.5 39t97.5 10t86 -2.5t58 -9.5t45.5 -20t30 -35q24 -39 24 -128q0 -107 -87 -130q-28 -8 -65 -8h-148
q0 -52 20.5 -66t58.5 -15h21.5h15.5zM297 313q24 0 33 17q4 8 4 24.5t-1.5 28t-7.5 19.5q-10 14 -42 14t-45 -2.5t-24 -12.5q-17 -16 -17 -78q0 -5 1 -10h99z" />
    <glyph glyph-name="ecircumflex" unicode="&#xea;" horiz-adv-x="525" 
d="M106 596l104 138h116l95 -138h-101l-55 56l-57 -56h-102zM314 121q101 0 174 11v-109q-33 -14 -91.5 -20.5t-89.5 -7t-99 -0.5q-98 0 -136 63t-38 210q0 85 11.5 137t41 81t70.5 39t97.5 10t86 -2.5t58 -9.5t45.5 -20t30 -35q24 -39 24 -128q0 -107 -87 -130
q-28 -8 -65 -8h-148q0 -52 20.5 -66t58.5 -15h21.5h15.5zM297 313q24 0 33 17q4 8 4 24.5t-1.5 28t-7.5 19.5q-10 14 -42 14t-45 -2.5t-24 -12.5q-17 -16 -17 -78q0 -5 1 -10h99z" />
    <glyph glyph-name="edieresis" unicode="&#xeb;" horiz-adv-x="525" 
d="M74 658.5q0 25.5 18 43.5t43.5 18t43.5 -18t18 -43.5t-18 -44t-43.5 -18.5t-43.5 18.5t-18 44zM328 658.5q0 25.5 18.5 43.5t44 18t43.5 -18t18 -43.5t-18 -44t-43.5 -18.5t-44 18.5t-18.5 44zM314 121q101 0 174 11v-109q-33 -14 -91.5 -20.5t-89.5 -7t-99 -0.5
q-98 0 -136 63t-38 210q0 85 11.5 137t41 81t70.5 39t97.5 10t86 -2.5t58 -9.5t45.5 -20t30 -35q24 -39 24 -128q0 -107 -87 -130q-28 -8 -65 -8h-148q0 -52 20.5 -66t58.5 -15h21.5h15.5zM297 313q24 0 33 17q4 8 4 24.5t-1.5 28t-7.5 19.5q-10 14 -42 14t-45 -2.5
t-24 -12.5q-17 -16 -17 -78q0 -5 1 -10h99z" />
    <glyph glyph-name="igrave" unicode="&#xec;" horiz-adv-x="244" 
d="M-45 736h133l84 -140h-99zM40 0v531h164v-531h-164z" />
    <glyph glyph-name="iacute" unicode="&#xed;" horiz-adv-x="244" 
d="M73 596l85 140h132l-118 -140h-99zM40 0v531h164v-531h-164z" />
    <glyph glyph-name="icircumflex" unicode="&#xee;" horiz-adv-x="244" 
d="M-35 596l105 138h116l94 -138h-101l-55 56l-57 -56h-102zM40 0v531h164v-531h-164z" />
    <glyph glyph-name="idieresis" unicode="&#xef;" horiz-adv-x="244" 
d="M-67 658.5q0 25.5 18.5 43.5t44 18t43.5 -18t18 -43.5t-18 -44t-43.5 -18.5t-44 18.5t-18.5 44zM188 658.5q0 25.5 18.5 43.5t44 18t43.5 -18t18 -43.5t-18 -44t-43.5 -18.5t-44 18.5t-18.5 44zM40 0v531h164v-531h-164z" />
    <glyph glyph-name="eth" unicode="&#xf0;" horiz-adv-x="541" 
d="M70.5 64q-44.5 64 -44.5 197.5t46 201.5t144 68h40q60 0 78 -7q-15 52 -52 84l-102 -52l-30 56l59 30q-35 9 -72.5 9t-51.5 -1v133q177 0 273 -61l83 42l31 -57l-59 -29q59 -65 80 -167t21 -247q0 -264 -190 -264h-108q-101 0 -145.5 64zM196 339.5q-6 -25.5 -6 -86.5
t11.5 -81.5t46.5 -20.5h46q37 0 46.5 21.5t9.5 95.5t-9 94t-47 20h-46q-22 0 -34 -8.5t-18 -34z" />
    <glyph glyph-name="ntilde" unicode="&#xf1;" 
d="M340 697q43 0 88 39l25 -66q-56 -70 -112 -70q-24 0 -60 17.5t-59 17.5t-41.5 -8t-47.5 -27l-26 60q59 72 122 72q24 0 56 -18q33 -17 55 -17zM40 0v531h135l29 -55q28 22 43 32.5t46.5 21t74 10.5t74.5 -14.5t48 -42.5q30 -50 30 -135v-348h-164v350q0 46 -22 58
q-10 6 -36 6q-53 0 -94 -42v-372h-164z" />
    <glyph glyph-name="ograve" unicode="&#xf2;" horiz-adv-x="557" 
d="M114 736h132l85 -140h-99zM34 258q0 109 24 169t75.5 84.5t145.5 24.5q138 0 191.5 -60t53.5 -213.5t-52.5 -210.5t-191 -57t-192.5 59.5t-54 203.5zM198 245q0 -49 7.5 -77.5t23 -37t44.5 -8.5t41 2t22.5 8.5t14.5 22.5q9 33 9 89.5t-2 81t-6 43t-14 26.5q-28 22 -90 13
q-26 -4 -37 -24t-12 -55t-1 -84z" />
    <glyph glyph-name="oacute" unicode="&#xf3;" horiz-adv-x="557" 
d="M229 596l85 140h132l-118 -140h-99zM34 258q0 109 24 169t75.5 84.5t145.5 24.5q138 0 191.5 -60t53.5 -213.5t-52.5 -210.5t-191 -57t-192.5 59.5t-54 203.5zM198 245q0 -49 7.5 -77.5t23 -37t44.5 -8.5t41 2t22.5 8.5t14.5 22.5q9 33 9 89.5t-2 81t-6 43t-14 26.5
q-28 22 -90 13q-26 -4 -37 -24t-12 -55t-1 -84z" />
    <glyph glyph-name="ocircumflex" unicode="&#xf4;" horiz-adv-x="557" 
d="M123 596l104 138h116l94 -138h-101l-54 56l-57 -56h-102zM34 258q0 109 24 169t75.5 84.5t145.5 24.5q138 0 191.5 -60t53.5 -213.5t-52.5 -210.5t-191 -57t-192.5 59.5t-54 203.5zM198 245q0 -49 7.5 -77.5t23 -37t44.5 -8.5t41 2t22.5 8.5t14.5 22.5q9 33 9 89.5t-2 81
t-6 43t-14 26.5q-28 22 -90 13q-26 -4 -37 -24t-12 -55t-1 -84z" />
    <glyph glyph-name="otilde" unicode="&#xf5;" horiz-adv-x="557" 
d="M341 693q43 0 88 39l25 -66q-56 -70 -112 -70q-24 0 -60 17.5t-59 17.5t-41.5 -8t-47.5 -27l-26 60q59 72 122 72q24 0 56 -18q33 -17 55 -17zM34 258q0 109 24 169t75.5 84.5t145.5 24.5q138 0 191.5 -60t53.5 -213.5t-52.5 -210.5t-191 -57t-192.5 59.5t-54 203.5z
M198 245q0 -49 7.5 -77.5t23 -37t44.5 -8.5t41 2t22.5 8.5t14.5 22.5q9 33 9 89.5t-2 81t-6 43t-14 26.5q-28 22 -90 13q-26 -4 -37 -24t-12 -55t-1 -84z" />
    <glyph glyph-name="odieresis" unicode="&#xf6;" horiz-adv-x="557" 
d="M108 614.5q-18 18.5 -18 39.5t8 35q18 31 49 31t48.5 -18t17.5 -43.5t-18 -44t-43.5 -18.5t-43.5 18.5zM345 658.5q0 25.5 18 43.5t43.5 18t43.5 -18t18 -43.5t-18 -44t-43 -18.5t-43.5 18.5t-18.5 44zM34 258q0 109 24 169t75.5 84.5t145.5 24.5q138 0 191.5 -60
t53.5 -213.5t-52.5 -210.5t-191 -57t-192.5 59.5t-54 203.5zM198 245q0 -49 7.5 -77.5t23 -37t44.5 -8.5t41 2t22.5 8.5t14.5 22.5q9 33 9 89.5t-2 81t-6 43t-14 26.5q-28 22 -90 13q-26 -4 -37 -24t-12 -55t-1 -84z" />
    <glyph glyph-name="divide" unicode="&#xf7;" horiz-adv-x="491" 
d="M34 286v134h424v-134h-424zM177 148v72q0 24 24 24h82q25 0 25 -24v-72q0 -23 -25 -23h-82q-11 0 -17.5 6.5t-6.5 16.5zM177 480v72q0 24 24 24h82q25 0 25 -24v-72q0 -23 -25 -23h-82q-17 0 -22 14q-2 4 -2 9z" />
    <glyph glyph-name="oslash" unicode="&#xf8;" horiz-adv-x="586" 
d="M90 69q-42 59 -42 178.5t24.5 179.5t76 84.5t149.5 24.5t150 -30l20 25h82l-55 -67q44 -60 44 -207.5t-52.5 -204.5t-192.5 -57q-104 0 -158 32l-22 -27h-80zM213 316q-1 -22 -1 -52t6 -43l135 171q-14 18 -59 18q-38 0 -50.5 -8.5t-17.5 -17.5t-8.5 -27.5t-4.5 -40.5z
M254 126q14 -4 38.5 -4t36.5 2t22.5 8.5t14.5 22.5q9 33 9 87t-6 72l-137 -172q8 -12 22 -16z" />
    <glyph glyph-name="ugrave" unicode="&#xf9;" 
d="M108 736h132l85 -140h-99zM34 184v347h164v-351q0 -45 21 -57q10 -5 36 -5q53 0 93 42v371h164v-531h-134l-30 54q-10 -6 -27 -17.5t-27.5 -18t-26.5 -13.5q-30 -14 -77 -14t-79 14.5t-48 42.5q-29 50 -29 136z" />
    <glyph glyph-name="uacute" unicode="&#xfa;" 
d="M224 596l84 140h132l-118 -140h-98zM34 184v347h164v-351q0 -45 21 -57q10 -5 36 -5q53 0 93 42v371h164v-531h-134l-30 54q-10 -6 -27 -17.5t-27.5 -18t-26.5 -13.5q-30 -14 -77 -14t-79 14.5t-48 42.5q-29 50 -29 136z" />
    <glyph glyph-name="ucircumflex" unicode="&#xfb;" 
d="M116 596l104 138h116l94 -138h-101l-54 56l-57 -56h-102zM34 184v347h164v-351q0 -45 21 -57q10 -5 36 -5q53 0 93 42v371h164v-531h-134l-30 54q-10 -6 -27 -17.5t-27.5 -18t-26.5 -13.5q-30 -14 -77 -14t-79 14.5t-48 42.5q-29 50 -29 136z" />
    <glyph glyph-name="udieresis" unicode="&#xfc;" 
d="M84 658.5q0 25.5 18 43.5t44 18t43.5 -18t17.5 -43.5t-18 -44t-43.5 -18.5t-43.5 18.5t-18 44zM339 658.5q0 25.5 18 43.5t43.5 18t43.5 -18t18 -43.5t-18 -44t-43 -18.5t-43.5 18.5t-18.5 44zM34 184v347h164v-351q0 -45 21 -57q10 -5 36 -5q53 0 93 42v371h164v-531
h-134l-30 54q-10 -6 -27 -17.5t-27.5 -18t-26.5 -13.5q-30 -14 -77 -14t-79 14.5t-48 42.5q-29 50 -29 136z" />
    <glyph glyph-name="yacute" unicode="&#xfd;" horiz-adv-x="587" 
d="M243 596l84 140h133l-118 -140h-99zM14 531h171l78 -356q9 -36 49 -39l90 395h168l-166 -699l-72 -102h-119l68 270q-136 0 -172 144z" />
    <glyph glyph-name="thorn" unicode="&#xfe;" horiz-adv-x="557" 
d="M47 -270v1052h164v-308q71 58 147 58q90 0 131 -67t41 -203q0 -165 -48 -225q-41 -51 -125 -51t-146 36v-292h-164zM359 162q7 33 7 103.5t-14 100.5t-44 30q-64 -1 -97 -29v-241q32 -15 97 -17q20 0 32 10t19 43z" />
    <glyph glyph-name="ydieresis" unicode="&#xff;" horiz-adv-x="587" 
d="M121.5 614.5q-18.5 18.5 -18.5 39.5t8 35q19 31 49.5 31t48 -18t17.5 -43.5t-17.5 -44t-43 -18.5t-44 18.5zM358 658.5q0 25.5 18.5 43.5t44 18t43.5 -18t18 -43.5t-18 -44t-43.5 -18.5t-44 18.5t-18.5 44zM14 531h171l78 -356q9 -36 49 -39l90 395h168l-166 -699
l-72 -102h-119l68 270q-136 0 -172 144z" />
    <glyph glyph-name="Amacron" unicode="&#x100;" horiz-adv-x="700" 
d="M218 797v85h292v-85h-292zM30 0l239 732h190l231 -732h-171l-48 147h-221l-48 -147h-172zM290 289h145l-69 233z" />
    <glyph glyph-name="amacron" unicode="&#x101;" horiz-adv-x="519" 
d="M123 601v85h292v-85h-292zM26 139v46q0 65 39 107.5t115 42.5h109h33q1 21 0 22q0 38 -15 48.5t-61 10.5t-202 -11v99q50 21 104 29q55 8 144.5 8t141.5 -39t52 -138v-364h-130l-34 56q-8 -17 -47 -39.5t-86 -22.5q-82 0 -122.5 45t-40.5 100zM237 120q48 0 85 38v81
l-94 -8q-38 -3 -38 -50v-17q0 -31 16 -38q11 -6 31 -6z" />
    <glyph glyph-name="Abreve" unicode="&#x102;" horiz-adv-x="700" 
d="M249 911h62q0 -24 14 -38t38 -14q54 0 54 52h62q0 -34 -15 -60q-31 -54 -101 -54q-50 0 -82 31.5t-32 82.5zM30 0l239 732h190l231 -732h-171l-48 147h-221l-48 -147h-172zM290 289h145l-69 233z" />
    <glyph glyph-name="abreve" unicode="&#x103;" horiz-adv-x="519" 
d="M154 715h62q0 -24 14 -38t38 -14q54 0 54 52h62q0 -34 -15 -60q-31 -54 -101 -54q-50 0 -82 31.5t-32 82.5zM26 139v46q0 65 39 107.5t115 42.5h109h33q1 21 0 22q0 38 -15 48.5t-61 10.5t-202 -11v99q50 21 104 29q55 8 144.5 8t141.5 -39t52 -138v-364h-130l-34 56
q-8 -17 -47 -39.5t-86 -22.5q-82 0 -122.5 45t-40.5 100zM237 120q48 0 85 38v81l-94 -8q-38 -3 -38 -50v-17q0 -31 16 -38q11 -6 31 -6z" />
    <glyph glyph-name="Aogonek" unicode="&#x104;" horiz-adv-x="700" 
d="M639 1q-44 -32 -44 -61.5t28 -40.5q12 -5 26 -4v-82q-14 -4 -25 -4t-26 1.5t-32 13.5q-54 36 -54 89t65 88h62zM30 0l239 732h190l231 -732h-171l-48 147h-221l-48 -147h-172zM290 289h145l-69 233z" />
    <glyph glyph-name="aogonek" unicode="&#x105;" horiz-adv-x="519" 
d="M455 0q-44 -31 -44 -61t28 -41q13 -5 27 -4v-82q-15 -4 -26 -4t-26 2t-32 13q-54 36 -54 89t66 88h61zM26 139v46q0 65 39 107.5t115 42.5h109h33q1 21 0 22q0 38 -15 48.5t-61 10.5t-202 -11v99q50 21 104 29q55 8 144.5 8t141.5 -39t52 -138v-364h-130l-34 56
q-8 -17 -47 -39.5t-86 -22.5q-82 0 -122.5 45t-40.5 100zM237 120q48 0 85 38v81l-94 -8q-38 -3 -38 -50v-17q0 -31 16 -38q11 -6 31 -6z" />
    <glyph glyph-name="Cacute" unicode="&#x106;" horiz-adv-x="569" 
d="M283 800l85 140h132l-118 -140h-99zM37 368q0 92 11.5 157.5t39.5 115.5q54 99 200 99q89 0 142.5 -7.5t116.5 -28.5v-128l-7 0.5t-19 2t-27.5 3t-35 3.5t-39.5 3q-45 3 -77 3t-46 -1.5t-30 -6t-25 -14t-17.5 -25.5t-13.5 -40q-9 -55 -9 -160t26.5 -153t106.5 -48
q93 0 183 6l30 3v-128q-84 -30 -231 -30h-28q-137 2 -195 99q-56 93 -56 275z" />
    <glyph glyph-name="cacute" unicode="&#x107;" horiz-adv-x="492" 
d="M227 597l85 140h132l-118 -140h-99zM284 -6l-68 1h-8q-128 0 -161 139q-13 54 -13 132t12.5 132t36.5 84q45 54 125 54q158 0 251 -34v-98q-80 6 -133 6t-62 -1t-21 -3.5t-17.5 -8t-12 -15.5t-9.5 -26q-6 -40 -6 -91t3.5 -78.5t15.5 -42.5t27.5 -18.5t51.5 -3.5
q76 0 147 6l23 2v-99q-44 -27 -88 -31q-57 -6 -94 -6z" />
    <glyph glyph-name="Ccircumflex" unicode="&#x108;" horiz-adv-x="569" 
d="M174 800l104 138h116l94 -138h-100l-55 56l-57 -56h-102zM37 368q0 92 11.5 157.5t39.5 115.5q54 99 200 99q89 0 142.5 -7.5t116.5 -28.5v-128l-7 0.5t-19 2t-27.5 3t-35 3.5t-39.5 3q-45 3 -77 3t-46 -1.5t-30 -6t-25 -14t-17.5 -25.5t-13.5 -40q-9 -55 -9 -160
t26.5 -153t106.5 -48q93 0 183 6l30 3v-128q-84 -30 -231 -30h-28q-137 2 -195 99q-56 93 -56 275z" />
    <glyph glyph-name="ccircumflex" unicode="&#x109;" horiz-adv-x="492" 
d="M108 596l104 138h116l94 -138h-101l-54 56l-57 -56h-102zM284 -6l-68 1h-8q-128 0 -161 139q-13 54 -13 132t12.5 132t36.5 84q45 54 125 54q158 0 251 -34v-98q-80 6 -133 6t-62 -1t-21 -3.5t-17.5 -8t-12 -15.5t-9.5 -26q-6 -40 -6 -91t3.5 -78.5t15.5 -42.5
t27.5 -18.5t51.5 -3.5q76 0 147 6l23 2v-99q-44 -27 -88 -31q-57 -6 -94 -6z" />
    <glyph glyph-name="Cdotaccent" unicode="&#x10a;" horiz-adv-x="569" 
d="M264 824v84q0 24 24 24h80q11 0 17.5 -7t6.5 -17v-84q0 -24 -24 -24h-80q-10 0 -17 6.5t-7 17.5zM37 368q0 92 11.5 157.5t39.5 115.5q54 99 200 99q89 0 142.5 -7.5t116.5 -28.5v-128l-7 0.5t-19 2t-27.5 3t-35 3.5t-39.5 3q-45 3 -77 3t-46 -1.5t-30 -6t-25 -14
t-17.5 -25.5t-13.5 -40q-9 -55 -9 -160t26.5 -153t106.5 -48q93 0 183 6l30 3v-128q-84 -30 -231 -30h-28q-137 2 -195 99q-56 93 -56 275z" />
    <glyph glyph-name="cdotaccent" unicode="&#x10b;" horiz-adv-x="492" 
d="M217 620v84q0 25 24 25h80q11 0 17 -7t6 -18v-84q0 -23 -23 -23h-80q-10 0 -17 6.5t-7 16.5zM284 -6l-68 1h-8q-128 0 -161 139q-13 54 -13 132t12.5 132t36.5 84q45 54 125 54q158 0 251 -34v-98q-80 6 -133 6t-62 -1t-21 -3.5t-17.5 -8t-12 -15.5t-9.5 -26
q-6 -40 -6 -91t3.5 -78.5t15.5 -42.5t27.5 -18.5t51.5 -3.5q76 0 147 6l23 2v-99q-44 -27 -88 -31q-57 -6 -94 -6z" />
    <glyph glyph-name="Ccaron" unicode="&#x10c;" horiz-adv-x="569" 
d="M183 938h101l57 -56l55 56h101l-101 -138h-116zM37 368q0 92 11.5 157.5t39.5 115.5q54 99 200 99q89 0 142.5 -7.5t116.5 -28.5v-128l-7 0.5t-19 2t-27.5 3t-35 3.5t-39.5 3q-45 3 -77 3t-46 -1.5t-30 -6t-25 -14t-17.5 -25.5t-13.5 -40q-9 -55 -9 -160t26.5 -153
t106.5 -48q93 0 183 6l30 3v-128q-84 -30 -231 -30h-28q-137 2 -195 99q-56 93 -56 275z" />
    <glyph glyph-name="ccaron" unicode="&#x10d;" horiz-adv-x="492" 
d="M115 734h101l57 -56l54 56h102l-101 -137h-116zM284 -6l-68 1h-8q-128 0 -161 139q-13 54 -13 132t12.5 132t36.5 84q45 54 125 54q158 0 251 -34v-98q-80 6 -133 6t-62 -1t-21 -3.5t-17.5 -8t-12 -15.5t-9.5 -26q-6 -40 -6 -91t3.5 -78.5t15.5 -42.5t27.5 -18.5
t51.5 -3.5q76 0 147 6l23 2v-99q-44 -27 -88 -31q-57 -6 -94 -6z" />
    <glyph glyph-name="Dcaron" unicode="&#x10e;" horiz-adv-x="664" 
d="M161 933h101l57 -56l55 56h101l-101 -137h-116zM54 0v732h325q60 0 105 -20.5t72.5 -53.5t44.5 -82q30 -85 30 -213q0 -363 -252 -363h-325zM218 142h146q55 0 79 55t24 157t-13 153t-34 67t-56 16h-146v-448z" />
    <glyph glyph-name="dcaron" unicode="&#x10f;" horiz-adv-x="627" 
d="M48.5 425.5q14.5 48.5 33.5 69.5q41 44 123 44t149 -33v279h164v-785h-138l-26 52q-69 -58 -154.5 -58t-125.5 65t-40 191.5t14.5 175zM205 364q-7 -33 -7 -104t13.5 -100.5t44.5 -29.5q66 0 98 28v240q-34 18 -98 18q-21 0 -32.5 -9.5t-18.5 -42.5zM674 782v-68
l-10 -134h-84l-10 134v68h104z" />
    <glyph glyph-name="Dcroat" unicode="&#x110;" horiz-adv-x="664" 
d="M-11 338v70h65v324h325q60 0 105 -20.5t72.5 -53.5t44.5 -82q30 -85 30 -213q0 -363 -252 -363h-325v338h-65zM218 142h146q55 0 78.5 55t23.5 145.5t-7 136t-21 69t-31.5 32.5t-42.5 9h-146v-181h101v-70h-101v-196z" />
    <glyph glyph-name="dcroat" unicode="&#x111;" horiz-adv-x="567" 
d="M44 425.5q15 48.5 34 69.5q41 44 122.5 44t149.5 -33v95h-101v69h101v115h164v-115h62v-69h-62v-601h-138l-26 52q-70 -58 -155.5 -58t-125.5 65t-40 191.5t15 175zM200.5 364q-7.5 -33 -7.5 -104t14 -100.5t44 -29.5q67 0 99 28v240q-35 18 -99 18q-20 0 -31.5 -9.5
t-19 -42.5z" />
    <glyph glyph-name="Emacron" unicode="&#x112;" horiz-adv-x="567" 
d="M163 796v86h292v-86h-292zM50 152v420q0 108 81 144q38 16 90 16q237 -4 324 -16v-137h-279q-37 0 -46 -18q-6 -14 -6 -38v-83l284 -10v-136l-284 -9v-83q0 -38 21 -46q15 -6 41 -6h269v-136q-72 -10 -289 -16l-25 -1h-19t-28.5 1.5t-44 10.5t-45 25t-31.5 46.5t-13 71.5
z" />
    <glyph glyph-name="emacron" unicode="&#x113;" horiz-adv-x="525" 
d="M125 596v85h292v-85h-292zM314 121q101 0 174 11v-109q-33 -14 -91.5 -20.5t-89.5 -7t-99 -0.5q-98 0 -136 63t-38 210q0 85 11.5 137t41 81t70.5 39t97.5 10t86 -2.5t58 -9.5t45.5 -20t30 -35q24 -39 24 -128q0 -107 -87 -130q-28 -8 -65 -8h-148q0 -52 20.5 -66
t58.5 -15h21.5h15.5zM297 313q24 0 33 17q4 8 4 24.5t-1.5 28t-7.5 19.5q-10 14 -42 14t-45 -2.5t-24 -12.5q-17 -16 -17 -78q0 -5 1 -10h99z" />
    <glyph glyph-name="Edotaccent" unicode="&#x116;" horiz-adv-x="567" 
d="M263 819v84q0 25 24 25h80q11 0 17 -7t6 -18v-84q0 -23 -23 -23h-80q-11 0 -17.5 6.5t-6.5 16.5zM50 152v420q0 108 81 144q38 16 90 16q237 -4 324 -16v-137h-279q-37 0 -46 -18q-6 -14 -6 -38v-83l284 -10v-136l-284 -9v-83q0 -38 21 -46q15 -6 41 -6h269v-136
q-72 -10 -289 -16l-25 -1h-19t-28.5 1.5t-44 10.5t-45 25t-31.5 46.5t-13 71.5z" />
    <glyph glyph-name="edotaccent" unicode="&#x117;" horiz-adv-x="525" 
d="M207 619v84q0 25 24 25h80q11 0 17 -7t6 -18v-84q0 -23 -23 -23h-80q-10 0 -17 6.5t-7 16.5zM314 121q101 0 174 11v-109q-33 -14 -91.5 -20.5t-89.5 -7t-99 -0.5q-98 0 -136 63t-38 210q0 85 11.5 137t41 81t70.5 39t97.5 10t86 -2.5t58 -9.5t45.5 -20t30 -35
q24 -39 24 -128q0 -107 -87 -130q-28 -8 -65 -8h-148q0 -52 20.5 -66t58.5 -15h21.5h15.5zM297 313q24 0 33 17q4 8 4 24.5t-1.5 28t-7.5 19.5q-10 14 -42 14t-45 -2.5t-24 -12.5q-17 -16 -17 -78q0 -5 1 -10h99z" />
    <glyph glyph-name="Eogonek" unicode="&#x118;" horiz-adv-x="567" 
d="M545 15q-44 -32 -44 -61.5t28 -41.5q13 -5 27 -3v-83q-15 -4 -26 -4t-26 2t-32 13q-54 36 -54 89t66 89h61zM50 152v420q0 108 81 144q38 16 90 16q237 -4 324 -16v-137h-279q-37 0 -46 -18q-6 -14 -6 -38v-83l284 -10v-136l-284 -9v-83q0 -38 21 -46q15 -6 41 -6h269
v-136q-72 -10 -289 -16l-25 -1h-19t-28.5 1.5t-44 10.5t-45 25t-31.5 46.5t-13 71.5z" />
    <glyph glyph-name="eogonek" unicode="&#x119;" horiz-adv-x="525" 
d="M488 23q-43 -32 -43 -61.5t27 -40.5q13 -5 27 -4v-83q-14 -3 -25 -3t-26 1.5t-33 13.5q-54 36 -54 89t66 88h61zM314 121q101 0 174 11v-109q-33 -14 -91.5 -20.5t-89.5 -7t-99 -0.5q-98 0 -136 63t-38 210q0 85 11.5 137t41 81t70.5 39t97.5 10t86 -2.5t58 -9.5
t45.5 -20t30 -35q24 -39 24 -128q0 -107 -87 -130q-28 -8 -65 -8h-148q0 -52 20.5 -66t58.5 -15h21.5h15.5zM297 313q24 0 33 17q4 8 4 24.5t-1.5 28t-7.5 19.5q-10 14 -42 14t-45 -2.5t-24 -12.5q-17 -16 -17 -78q0 -5 1 -10h99z" />
    <glyph glyph-name="Ecaron" unicode="&#x11a;" horiz-adv-x="567" 
d="M164 933h101l57 -56l54 56h102l-101 -137h-116zM50 152v420q0 108 81 144q38 16 90 16q237 -4 324 -16v-137h-279q-37 0 -46 -18q-6 -14 -6 -38v-83l284 -10v-136l-284 -9v-83q0 -38 21 -46q15 -6 41 -6h269v-136q-72 -10 -289 -16l-25 -1h-19t-28.5 1.5t-44 10.5t-45 25
t-31.5 46.5t-13 71.5z" />
    <glyph glyph-name="ecaron" unicode="&#x11b;" horiz-adv-x="525" 
d="M118 732h101l57 -56l55 56h101l-100 -137h-116zM314 121q101 0 174 11v-109q-33 -14 -91.5 -20.5t-89.5 -7t-99 -0.5q-98 0 -136 63t-38 210q0 85 11.5 137t41 81t70.5 39t97.5 10t86 -2.5t58 -9.5t45.5 -20t30 -35q24 -39 24 -128q0 -107 -87 -130q-28 -8 -65 -8h-148
q0 -52 20.5 -66t58.5 -15h21.5h15.5zM297 313q24 0 33 17q4 8 4 24.5t-1.5 28t-7.5 19.5q-10 14 -42 14t-45 -2.5t-24 -12.5q-17 -16 -17 -78q0 -5 1 -10h99z" />
    <glyph glyph-name="Gcircumflex" unicode="&#x11c;" horiz-adv-x="614" 
d="M176 800l104 138h116l94 -138h-101l-54 56l-57 -56h-102zM41.5 249.5q-4.5 51.5 -4.5 121t6 122t21.5 101t42.5 79.5q58 67 165 67t158.5 -6t138.5 -28v-127q-1 0 -9 1t-21.5 3t-31 4t-39.5 4t-45 4q-51 3 -100 3q-75 0 -98.5 -48t-23.5 -182q0 -139 19 -178
q16 -32 51 -39q17 -4 44 -4t52.5 11.5t36.5 22.5l10 12v106h-78v103q52 24 174 24q32 0 68 -2v-424h-116l-46 49q-16 -18 -32 -28q-40 -26 -125 -26q-104 0 -157 67q-26 32 -41 84t-19.5 103.5z" />
    <glyph glyph-name="gcircumflex" unicode="&#x11d;" horiz-adv-x="563" 
d="M122 596l104 138h116l94 -138h-101l-55 56l-56 -56h-102zM31 98q0 76 63 98q-21 14 -35 40q-24 45 -24 108q0 189 188 189h327v-93l-51 -18q13 -34 14.5 -56.5t1.5 -50t-8.5 -56t-27.5 -54.5q-42 -56 -152 -56h-111q-31 0 -35.5 -6.5t-4.5 -18.5q0 -20 40 -20h145
q79 0 123 -40.5t44 -123.5v-56q0 -69 -40.5 -111.5t-131.5 -42.5h-150q-75 0 -121.5 39t-46.5 115v61l49 43q-23 11 -39.5 39.5t-16.5 70.5zM203 -93q0 -40 24 -47q11 -4 31 -4h58q34 0 42 15q7 11 7 33v31q0 41 -46 41h-75l-41 2v-71zM202 376q-3 -12 -3 -34.5t5 -37.5
q11 -28 49 -28h41q32 0 44.5 15t12.5 51.5t-14 50t-44 13.5h-40q-23 0 -35.5 -9t-15.5 -21z" />
    <glyph glyph-name="Gbreve" unicode="&#x11e;" horiz-adv-x="614" 
d="M208 914h62q0 -24 14 -38t38 -14q54 0 54 52h62q0 -34 -15 -60q-31 -54 -101 -54q-50 0 -82 31.5t-32 82.5zM41.5 249.5q-4.5 51.5 -4.5 121t6 122t21.5 101t42.5 79.5q58 67 165 67t158.5 -6t138.5 -28v-127q-1 0 -9 1t-21.5 3t-31 4t-39.5 4t-45 4q-51 3 -100 3
q-75 0 -98.5 -48t-23.5 -182q0 -139 19 -178q16 -32 51 -39q17 -4 44 -4t52.5 11.5t36.5 22.5l10 12v106h-78v103q52 24 174 24q32 0 68 -2v-424h-116l-46 49q-16 -18 -32 -28q-40 -26 -125 -26q-104 0 -157 67q-26 32 -41 84t-19.5 103.5z" />
    <glyph glyph-name="gbreve" unicode="&#x11f;" horiz-adv-x="563" 
d="M165 710h62q0 -24 14 -38t38 -14q54 0 54 52h62q0 -34 -15 -60q-31 -54 -101 -54q-50 0 -82 31.5t-32 82.5zM31 98q0 76 63 98q-21 14 -35 40q-24 45 -24 108q0 189 188 189h327v-93l-51 -18q13 -34 14.5 -56.5t1.5 -50t-8.5 -56t-27.5 -54.5q-42 -56 -152 -56h-111
q-31 0 -35.5 -6.5t-4.5 -18.5q0 -20 40 -20h145q79 0 123 -40.5t44 -123.5v-56q0 -69 -40.5 -111.5t-131.5 -42.5h-150q-75 0 -121.5 39t-46.5 115v61l49 43q-23 11 -39.5 39.5t-16.5 70.5zM203 -93q0 -40 24 -47q11 -4 31 -4h58q34 0 42 15q7 11 7 33v31q0 41 -46 41h-75
l-41 2v-71zM202 376q-3 -12 -3 -34.5t5 -37.5q11 -28 49 -28h41q32 0 44.5 15t12.5 51.5t-14 50t-44 13.5h-40q-23 0 -35.5 -9t-15.5 -21z" />
    <glyph glyph-name="Gdotaccent" unicode="&#x120;" horiz-adv-x="614" 
d="M262 823v84q0 25 24 25h80q11 0 17 -7t6 -18v-84q0 -23 -23 -23h-80q-11 0 -17.5 6.5t-6.5 16.5zM41.5 249.5q-4.5 51.5 -4.5 121t6 122t21.5 101t42.5 79.5q58 67 165 67t158.5 -6t138.5 -28v-127q-1 0 -9 1t-21.5 3t-31 4t-39.5 4t-45 4q-51 3 -100 3q-75 0 -98.5 -48
t-23.5 -182q0 -139 19 -178q16 -32 51 -39q17 -4 44 -4t52.5 11.5t36.5 22.5l10 12v106h-78v103q52 24 174 24q32 0 68 -2v-424h-116l-46 49q-16 -18 -32 -28q-40 -26 -125 -26q-104 0 -157 67q-26 32 -41 84t-19.5 103.5z" />
    <glyph glyph-name="gdotaccent" unicode="&#x121;" horiz-adv-x="563" 
d="M218 620v84q0 25 24 25h80q11 0 17.5 -7t6.5 -18v-84q0 -23 -24 -23h-80q-10 0 -17 6t-7 17zM31 98q0 76 63 98q-21 14 -35 40q-24 45 -24 108q0 189 188 189h327v-93l-51 -18q13 -34 14.5 -56.5t1.5 -50t-8.5 -56t-27.5 -54.5q-42 -56 -152 -56h-111q-31 0 -35.5 -6.5
t-4.5 -18.5q0 -20 40 -20h145q79 0 123 -40.5t44 -123.5v-56q0 -69 -40.5 -111.5t-131.5 -42.5h-150q-75 0 -121.5 39t-46.5 115v61l49 43q-23 11 -39.5 39.5t-16.5 70.5zM203 -93q0 -40 24 -47q11 -4 31 -4h58q34 0 42 15q7 11 7 33v31q0 41 -46 41h-75l-41 2v-71zM202 376
q-3 -12 -3 -34.5t5 -37.5q11 -28 49 -28h41q32 0 44.5 15t12.5 51.5t-14 50t-44 13.5h-40q-23 0 -35.5 -9t-15.5 -21z" />
    <glyph glyph-name="Gcommaaccent" unicode="&#x122;" horiz-adv-x="614" 
d="M245 -191v89q0 24 22 24h87q21 0 21 -24v-121q0 -30 -13 -48t-31 -22q-21 -5 -39 -5t-30 2l-13 3v49q24 0 27 11q1 4 1 11v8h-10q-22 0 -22 23zM41.5 249.5q-4.5 51.5 -4.5 121t6 122t21.5 101t42.5 79.5q58 67 165 67t158.5 -6t138.5 -28v-127q-1 0 -9 1t-21.5 3t-31 4
t-39.5 4t-45 4q-51 3 -100 3q-75 0 -98.5 -48t-23.5 -182q0 -139 19 -178q16 -32 51 -39q17 -4 44 -4t52.5 11.5t36.5 22.5l10 12v106h-78v103q52 24 174 24q32 0 68 -2v-424h-116l-46 49q-16 -18 -32 -28q-40 -26 -125 -26q-104 0 -157 67q-26 32 -41 84t-19.5 103.5z" />
    <glyph glyph-name="gcommaaccent" unicode="&#x123;" horiz-adv-x="563" 
d="M288 814q28 0 49 -6v-49q-23 1 -26 -11q-2 -4 -2 -10v-9h10q23 0 23 -23v-89q0 -24 -23 -24h-86q-22 0 -22 24v122q0 43 25 60q23 15 50 15h2zM31 97q0 84 63 99q-21 14 -35 40q-24 45 -24 108q0 189 188 189h327v-94l-51 -18q13 -33 14.5 -55.5t1.5 -50t-8.5 -56
t-27.5 -54.5q-42 -56 -152 -56h-111h-6t-9.5 -0.5t-11.5 -2.5q-13 -3 -13 -19q0 -10 3.5 -13t4.5 -4t4 -2l4.5 -1.5t5.5 -1t5.5 -1t6.5 -1t6 -0.5l147 -16q79 -8 120 -39q45 -36 45 -131v-33q0 -69 -40.5 -111.5t-131.5 -42.5h-150q-102 0 -145 68q-23 35 -23 86v69l57 41
q-64 32 -64 103zM203 -93q0 -31 12.5 -41t42.5 -10h58q34 0 42 15q7 11 7 32v17q0 34 -51 39l-67 7l-44 5v-64zM199 344q0 -76 54 -76h41q31 0 44 19t13 58.5t-13.5 54t-44.5 14.5h-40q-34 0 -45 -23q-9 -18 -9 -47z" />
    <glyph glyph-name="Hcircumflex" unicode="&#x124;" horiz-adv-x="636" 
d="M168 797l104 137h116l94 -137h-100l-55 56l-57 -56h-102zM54 0v732h164v-304h215v304h164v-732h-164v280h-215v-280h-164z" />
    <glyph glyph-name="hcircumflex" unicode="&#x125;" 
d="M-88 842l104 138h116l94 -138h-101l-55 56l-56 -56h-102zM-17 0v782h163v-306q61 49 107 59q23 5 61 5t70 -14.5t49 -42.5q29 -50 29 -135v-348h-164v350q0 35 -12 49.5t-41 14.5q-58 0 -98 -42v-372h-164z" />
    <glyph glyph-name="Hbar" unicode="&#x126;" horiz-adv-x="697" 
d="M13 516v69h64v147h164v-147h215v147h164v-147h64v-69h-64v-516h-164v280h-215v-280h-164v516h-64zM241 428h215v88h-215v-88z" />
    <glyph glyph-name="hbar" unicode="&#x127;" horiz-adv-x="571" 
d="M-4 602v70h64v110h164v-110h105v-70h-105v-126q8 6 27.5 18.5t29.5 18.5q35 19 58 23t34 4h12h2q92 0 124 -57q28 -49 28 -135v-348h-165v350q0 35 -11.5 49.5t-36.5 14.5q-62 -1 -101 -42v-372h-165v602h-64z" />
    <glyph glyph-name="Itilde" unicode="&#x128;" horiz-adv-x="257" 
d="M196 894q43 0 88 39l24 -66q-55 -70 -111 -70q-24 0 -60 17.5t-59 17.5t-41.5 -8t-48.5 -27l-25 61q58 71 122 71q28 0 47 -12q37 -23 64 -23zM54 0v732h164v-732h-164z" />
    <glyph glyph-name="itilde" unicode="&#x129;" horiz-adv-x="244" 
d="M182 693q44 0 88 39l25 -66q-55 -70 -112 -70q-24 0 -60 17.5t-58.5 17.5t-41.5 -8t-48 -27l-25 60q58 72 122 72q23 0 56 -18q33 -17 54 -17zM40 0v531h164v-531h-164z" />
    <glyph glyph-name="Imacron" unicode="&#x12a;" horiz-adv-x="257" 
d="M-10 797v85h292v-85h-292zM54 0v732h164v-732h-164z" />
    <glyph glyph-name="imacron" unicode="&#x12b;" horiz-adv-x="244" 
d="M-24 596v86h292v-86h-292zM40 0v531h164v-531h-164z" />
    <glyph glyph-name="Iogonek" unicode="&#x12e;" horiz-adv-x="257" 
d="M175 0q-44 -31 -44 -61t27 -41q13 -5 27 -4v-82q-14 -4 -25 -4t-26 2t-33 13q-54 36 -54 89t66 88h62zM54 0v732h164v-732h-164z" />
    <glyph glyph-name="iogonek" unicode="&#x12f;" horiz-adv-x="238" 
d="M154 0q-43 -31 -43 -61t27 -41q13 -5 27 -4v-82q-14 -4 -25.5 -4t-26 2t-32.5 13q-54 36 -54 89t66 88h61zM34 607v101q0 26 24 26h124q23 0 23 -26v-101q0 -23 -23 -23h-124q-11 0 -17.5 6.5t-6.5 16.5zM37 0v531h164v-531h-164z" />
    <glyph glyph-name="Idotaccent" unicode="&#x130;" horiz-adv-x="257" 
d="M72 820v84q0 25 24 25h80q11 0 17 -7t6 -18v-84q0 -23 -23 -23h-80q-10 0 -17 6.5t-7 16.5zM54 0v732h164v-732h-164z" />
    <glyph glyph-name="dotlessi" unicode="&#x131;" horiz-adv-x="244" 
d="M40 0v531h164v-531h-164z" />
    <glyph glyph-name="Jcircumflex" unicode="&#x134;" horiz-adv-x="356" 
d="M77 797l104 137h116l95 -137h-102l-54 56l-57 -56h-102zM263 18q-37 -23 -116 -23t-123 29l1 129q18 -1 33.5 -1t33.5 1t33 11q27 19 27 84v484h164v-567q0 -113 -53 -147z" />
    <glyph glyph-name="jcircumflex" unicode="&#x135;" horiz-adv-x="252" 
d="M-26 595l104 145h115l95 -145h-99l-58 61l-58 -61h-99zM49 -270v801h165v-535v-16q0 -165 -41 -250h-124z" />
    <glyph glyph-name="Kcommaaccent" unicode="&#x136;" horiz-adv-x="642" 
d="M303 -294q-28 1 -49 6v49q19 0 23 5q5 8 5 16v10h-10q-23 0 -23 22v89q0 24 23 24h86q22 0 22 -24v-121q0 -43 -25 -60q-23 -16 -50 -16h-2zM54 0v732h156v-298h51l169 298h190l-214 -367l214 -365h-190l-169 292h-50v-292h-157z" />
    <glyph glyph-name="kcommaaccent" unicode="&#x137;" horiz-adv-x="578" 
d="M216 -186v89q0 24 22 24h87q21 0 21 -24v-121q0 -30 -13 -48t-31 -22q-21 -5 -39 -5t-30 2l-13 3v49q24 0 27 11q1 4 1 10v10h-10q-22 0 -22 22zM40 0v782h164v-425h26l131 174h205l-186 -233l186 -298h-194l-142 238h-26v-238h-164z" />
    <glyph glyph-name="kgreenlandic" unicode="&#x138;" horiz-adv-x="587" 
d="M40 0v531h165v-209h39l135 209h195l-182 -267l161 -264h-189l-124 204h-34l-1 -204h-165z" />
    <glyph glyph-name="Lacute" unicode="&#x139;" horiz-adv-x="533" 
d="M86 797l85 141h132l-118 -141h-99zM54 148v584h164v-531q0 -38 21 -46q15 -6 41 -6h231v-149h-299q-71 0 -114.5 34.5t-43.5 113.5z" />
    <glyph glyph-name="lacute" unicode="&#x13a;" horiz-adv-x="318" 
d="M81 843l84 141h133l-118 -141h-99zM40 189v594h164v-564q0 -51 10.5 -70.5t31.5 -29.5q53 -21 60 -21v-98h-126q-71 0 -105.5 43.5t-34.5 145.5z" />
    <glyph glyph-name="Lcommaaccent" unicode="&#x13b;" horiz-adv-x="533" 
d="M223 -182v89q0 24 23 24h86q22 0 22 -24v-122q0 -29 -13 -47t-32 -23q-20 -5 -38.5 -5t-29.5 3l-13 3v49q23 -1 26 11q1 4 1 10v9h-9q-23 0 -23 23zM54 148v584h164v-531q0 -38 21 -46q15 -6 41 -6h231v-149h-299q-71 0 -114.5 34.5t-43.5 113.5z" />
    <glyph glyph-name="lcommaaccent" unicode="&#x13c;" horiz-adv-x="318" 
d="M108 -183v89q0 24 22 24h86q22 0 22 -24v-121q0 -30 -13 -48t-31 -22q-21 -5 -39.5 -5t-29.5 2l-13 3v49q23 0 27 11q1 4 1 11v8h-10q-22 0 -22 23zM40 189v594h164v-564q0 -51 10.5 -70.5t31.5 -29.5q53 -21 60 -21v-98h-126q-71 0 -105.5 43.5t-34.5 145.5z" />
    <glyph glyph-name="Lcaron" unicode="&#x13d;" horiz-adv-x="533" 
d="M54 148v584h164v-531q0 -38 21 -46q15 -6 41 -6h231v-149h-299q-71 0 -114.5 34.5t-43.5 113.5zM274 772h104v-67l-10 -134h-82l-12 134v67z" />
    <glyph glyph-name="lcaron" unicode="&#x13e;" horiz-adv-x="379" 
d="M40 189v594h164v-564q0 -66 19 -85q8 -8 42 -22t41 -14v-98h-126q-73 0 -106.5 43t-33.5 146zM266 782h104v-67l-10 -134h-84l-10 134v67z" />
    <glyph glyph-name="Lslash" unicode="&#x141;" horiz-adv-x="575" 
d="M96 732h164v-254l103 44v-76l-103 -44v-201q0 -38 21 -46q16 -6 41 -6h232v-149h-299q-71 0 -115 34.5t-44 113.5v184l-76 -32v76l76 32v324z" />
    <glyph glyph-name="lslash" unicode="&#x142;" horiz-adv-x="367" 
d="M84 783h164v-263l106 46l-1 -76l-105 -46v-225q0 -51 10 -70.5t32 -29.5q52 -21 59 -21v-98h-125q-71 0 -105.5 43.5t-34.5 145.5v186l-73 -31v76l73 30v333z" />
    <glyph glyph-name="Nacute" unicode="&#x143;" horiz-adv-x="677" 
d="M299 797l84 141h133l-118 -141h-99zM54 0v732h166l254 -429v429h164v-732h-164l-255 422v-422h-165z" />
    <glyph glyph-name="nacute" unicode="&#x144;" 
d="M230 600l84 140h133l-118 -140h-99zM40 0v531h135l29 -55q28 22 43 32.5t46.5 21t74 10.5t74.5 -14.5t48 -42.5q30 -50 30 -135v-348h-164v350q0 46 -22 58q-10 6 -36 6q-53 0 -94 -42v-372h-164z" />
    <glyph glyph-name="Ncommaaccent" unicode="&#x145;" horiz-adv-x="677" 
d="M330 -294q-28 1 -50 6v49q20 0 23 5q5 8 5 16v10h-10q-22 0 -22 22v89q0 24 22 24h87q21 0 21 -24v-121q0 -43 -25 -60q-23 -16 -50 -16h-1zM54 0v732h166l254 -429v429h164v-732h-164l-255 422v-422h-165z" />
    <glyph glyph-name="ncommaaccent" unicode="&#x146;" 
d="M210 -186v89q0 24 23 24h86q22 0 22 -24v-121q0 -30 -13 -48t-32 -22q-20 -5 -38.5 -5t-29.5 2l-13 3v49q23 0 26 11q1 4 1 10v10h-9q-23 0 -23 22zM40 0v531h135l29 -55q28 22 43 32.5t46.5 21t74 10.5t74.5 -14.5t48 -42.5q30 -50 30 -135v-348h-164v350q0 46 -22 58
q-10 6 -36 6q-53 0 -94 -42v-372h-164z" />
    <glyph glyph-name="Ncaron" unicode="&#x147;" horiz-adv-x="677" 
d="M191 934h101l57 -56l55 56h102l-101 -137h-116zM54 0v732h166l254 -429v429h164v-732h-164l-255 422v-422h-165z" />
    <glyph glyph-name="ncaron" unicode="&#x148;" 
d="M126 738h101l57 -56l54 56h102l-101 -138h-116zM40 0v531h135l29 -55q28 22 43 32.5t46.5 21t74 10.5t74.5 -14.5t48 -42.5q30 -50 30 -135v-348h-164v350q0 46 -22 58q-10 6 -36 6q-53 0 -94 -42v-372h-164z" />
    <glyph glyph-name="Eng" unicode="&#x14a;" horiz-adv-x="677" 
d="M578 -217q-27 -19 -61 -30.5t-65 -11.5t-81 2v117q3 0 16 1t22.5 2.5t24.5 6t22 12.5q18 19 18 56v62l-255 422l-1 -422h-164v732h166l254 -426v426h164v-801q0 -53 -16.5 -91t-43.5 -57z" />
    <glyph glyph-name="eng" unicode="&#x14b;" horiz-adv-x="559" 
d="M40 0v531h135l29 -55q9 6 33.5 22.5t35.5 22.5q38 19 87.5 19t81.5 -14.5t48 -42.5q30 -50 30 -135v-348l-2 -60q0 -47 -16 -85t-38.5 -59.5t-52.5 -36.5q-49 -24 -101 -27l-37 90q55 19 68 43q13 26 15 71v414q0 46 -22 58q-10 6 -36 6q-53 0 -94 -42v-372h-164z" />
    <glyph glyph-name="Omacron" unicode="&#x14c;" horiz-adv-x="669" 
d="M196 797v85h292v-85h-292zM44 366q0 67 8 123.5t21.5 96t35.5 67.5t45 44t56 25q53 15 113.5 15t90 -3t63 -12t56 -25t44.5 -44t35 -67q28 -87 28 -225q0 -167 -47 -257q-24 -48 -77 -78q-54 -30 -174 -30q-122 0 -173 28q-55 29 -78 75q-33 64 -40 132t-7 135zM213 465
q-5 -41 -5 -92.5t1.5 -80t5 -52.5t10.5 -39.5t16.5 -27t24.5 -17.5q29 -11 73 -11t68 8.5t40.5 33t22.5 65.5t6 106t-4.5 104.5t-13 65.5t-25.5 38.5t-37 17t-53.5 4.5t-52.5 -3.5t-37 -16t-26.5 -37.5t-13.5 -66z" />
    <glyph glyph-name="omacron" unicode="&#x14d;" horiz-adv-x="557" 
d="M133 596v86h292v-86h-292zM34 258q0 109 24 169t75.5 84.5t145.5 24.5q138 0 191.5 -60t53.5 -213.5t-52.5 -210.5t-191 -57t-192.5 59.5t-54 203.5zM198 245q0 -49 7.5 -77.5t23 -37t44.5 -8.5t41 2t22.5 8.5t14.5 22.5q9 33 9 89.5t-2 81t-6 43t-14 26.5q-28 22 -90 13
q-26 -4 -37 -24t-12 -55t-1 -84z" />
    <glyph glyph-name="Ohungarumlaut" unicode="&#x150;" horiz-adv-x="669" 
d="M211 797l85 141h132l-118 -141h-99zM374 797l85 141h133l-118 -141h-100zM44 366q0 67 8 123.5t21.5 96t35.5 67.5t45 44t56 25q53 15 113.5 15t90 -3t63 -12t56 -25t44.5 -44t35 -67q28 -87 28 -225q0 -167 -47 -257q-24 -48 -77 -78q-54 -30 -174 -30q-122 0 -173 28
q-55 29 -78 75q-33 64 -40 132t-7 135zM213 465q-5 -41 -5 -92.5t1.5 -80t5 -52.5t10.5 -39.5t16.5 -27t24.5 -17.5q29 -11 73 -11t68 8.5t40.5 33t22.5 65.5t6 106t-4.5 104.5t-13 65.5t-25.5 38.5t-37 17t-53.5 4.5t-52.5 -3.5t-37 -16t-26.5 -37.5t-13.5 -66z" />
    <glyph glyph-name="ohungarumlaut" unicode="&#x151;" horiz-adv-x="557" 
d="M148 596l84 140h132l-118 -140h-98zM311 596l85 140h132l-118 -140h-99zM34 258q0 109 24 169t75.5 84.5t145.5 24.5q138 0 191.5 -60t53.5 -213.5t-52.5 -210.5t-191 -57t-192.5 59.5t-54 203.5zM198 245q0 -49 7.5 -77.5t23 -37t44.5 -8.5t41 2t22.5 8.5t14.5 22.5
q9 33 9 89.5t-2 81t-6 43t-14 26.5q-28 22 -90 13q-26 -4 -37 -24t-12 -55t-1 -84z" />
    <glyph glyph-name="OE" unicode="&#x152;" horiz-adv-x="992" 
d="M222 513q-14 -49 -14 -168t25 -159.5t109 -40.5q54 0 81.5 17t39.5 63t12 122t-4.5 115.5t-12.5 65.5t-25 38.5t-37.5 17t-64.5 4.5t-69.5 -13t-39.5 -62zM44 368q0 77 10 140t30.5 103.5t45 66t61.5 38.5q60 21 151 21q81 0 121.5 -12t63.5 -29q38 36 106 36h13
q222 -4 310 -16v-137h-265q-37 0 -45 -18q-7 -14 -7 -38v-83l269 -10v-136l-269 -9v-83q0 -38 21 -46q16 -6 41 -6h255v-136q-69 -9 -242 -15l-58 -2q-10 -1 -19 -1q-76 0 -115 38q-57 -38 -180 -38q-139 0 -194 39q-54 38 -76 108q-28 84 -28 225z" />
    <glyph glyph-name="oe" unicode="&#x153;" horiz-adv-x="851" 
d="M34 258q0 109 24 169t75.5 84.5t151.5 24.5t151 -36q44 35 156 35q137 0 178 -32q39 -30 49 -88q5 -31 5 -78t-18 -78t-51 -44t-83 -13h-148q-1 -52 22 -66q22 -14 63 -15h52q80 0 153 11v-109q-33 -14 -91.5 -20.5t-89.5 -7t-98.5 -0.5t-102.5 31q-51 -31 -153 -31
q-137 0 -191 59.5t-54 203.5zM198.5 316q-0.5 -22 -0.5 -71t7.5 -77.5t23 -37t41.5 -8.5t38 1.5t21 4.5t14.5 12t9 17.5t4.5 27.5q3 31 3 102.5t-14 97t-67 25.5q-38 0 -50.5 -8.5t-17.5 -17.5t-8.5 -27.5t-4 -40.5zM623 313q24 0 33 17q4 8 4 34.5t-10 39t-41.5 12.5
t-44.5 -3q-32 -6 -38 -44q-3 -15 -3 -31t1 -25h99z" />
    <glyph glyph-name="Racute" unicode="&#x154;" horiz-adv-x="612" 
d="M260 796l84 140h133l-118 -140h-99zM48 0v732h323q99 0 155 -53t56 -178q0 -107 -31 -156q-19 -30 -37 -41q-21 -12 -45 -21l133 -283h-186l-109 269l-95 14v-283h-164zM213 409h139q38 0 51 19t13 70t-15 71.5t-49 20.5h-139v-181z" />
    <glyph glyph-name="racute" unicode="&#x155;" horiz-adv-x="414" 
d="M173 596l84 141h133l-118 -141h-99zM40 0v531h142l22 -67q25 31 46.5 43.5t33.5 17.5q27 11 60.5 11t49.5 -6v-157q-30 1 -76.5 1t-73 -11t-40.5 -48v-315h-164z" />
    <glyph glyph-name="Rcommaaccent" unicode="&#x156;" horiz-adv-x="612" 
d="M233 -181v89q0 25 23 25h86q22 0 22 -25v-121q0 -30 -13 -47.5t-32 -22.5q-20 -5 -38.5 -5t-29.5 2l-13 4v49q23 -1 27 11q1 3 1 10v9h-10q-23 0 -23 22zM48 0v732h323q99 0 155 -53t56 -178q0 -107 -31 -156q-19 -30 -37 -41q-21 -12 -45 -21l133 -283h-186l-109 269
l-95 14v-283h-164zM213 409h139q38 0 51 19t13 70t-15 71.5t-49 20.5h-139v-181z" />
    <glyph glyph-name="rcommaaccent" unicode="&#x157;" horiz-adv-x="414" 
d="M100 -294q-28 1 -49 6v49q23 0 27 11q1 4 1 10v10h-10q-23 0 -23 22v89q0 24 23 24h86q22 0 22 -24v-121q0 -43 -25 -60q-23 -16 -50 -16h-2zM34 0v531h142l22 -67q25 31 60 51.5t74.5 20.5t55.5 -6v-157q-30 1 -76.5 1t-73 -11t-40.5 -48v-315h-164z" />
    <glyph glyph-name="Rcaron" unicode="&#x158;" horiz-adv-x="612" 
d="M154 934h102l56 -56l55 56h102l-101 -137h-116zM48 0v732h323q99 0 155 -53t56 -178q0 -107 -31 -156q-19 -30 -37 -41q-21 -12 -45 -21l133 -283h-186l-109 269l-95 14v-283h-164zM213 409h139q38 0 51 19t13 70t-15 71.5t-49 20.5h-139v-181z" />
    <glyph glyph-name="rcaron" unicode="&#x159;" horiz-adv-x="414" 
d="M60 734h101l57 -56l55 56h101l-100 -138h-116zM40 0v531h142l22 -67q25 31 46.5 43.5t33.5 17.5q27 11 60.5 11t49.5 -6v-157q-30 1 -76.5 1t-73 -11t-40.5 -48v-315h-164z" />
    <glyph glyph-name="Sacute" unicode="&#x15a;" horiz-adv-x="593" 
d="M257 799l85 140h132l-118 -140h-99zM44 483v62q0 189 198 193q21 1 42 1q158 0 253 -32v-128q-102 10 -173.5 10h-74.5q-45 0 -63 -10t-18 -49v-25q0 -34 11 -44q18 -16 59 -16h106q72 0 113 -35q67 -57 67 -167v-42q0 -141 -89 -186q-47 -23 -114 -23q-118 0 -174.5 6
t-119.5 26v128q110 -11 257 -11q36 0 56 11t20 42v29q0 30 -13 44t-47 14h-103q-68 0 -107 24q-42 25 -58 56q-19 38 -23 61q-5 36 -5 61z" />
    <glyph glyph-name="sacute" unicode="&#x15b;" horiz-adv-x="509" 
d="M209 597l85 141h132l-118 -141h-99zM26 343v46q0 43 13 74.5t44.5 52t96 20.5t110 -1t97.5 -8.5t69 -21.5v-100h-233q-19 0 -26 -5.5t-7 -22.5v-16q0 -17 8 -21.5t25 -4.5h115q51 0 84 -20q60 -35 60 -121v-56q0 -75 -37 -109t-93 -34q-80 0 -127.5 1t-103.5 9t-73 23v99
h243q27 0 27 26v16q0 14 -5.5 20.5t-21.5 6.5h-111q-154 0 -154 147z" />
    <glyph glyph-name="Scircumflex" unicode="&#x15c;" horiz-adv-x="593" 
d="M151 799l104 137h116l94 -137h-101l-54 56l-57 -56h-102zM44 483v62q0 189 198 193q21 1 42 1q158 0 253 -32v-128q-102 10 -173.5 10h-74.5q-45 0 -63 -10t-18 -49v-25q0 -34 11 -44q18 -16 59 -16h106q72 0 113 -35q67 -57 67 -167v-42q0 -141 -89 -186
q-47 -23 -114 -23q-118 0 -174.5 6t-119.5 26v128q110 -11 257 -11q36 0 56 11t20 42v29q0 30 -13 44t-47 14h-103q-68 0 -107 24q-42 25 -58 56q-19 38 -23 61q-5 36 -5 61z" />
    <glyph glyph-name="scircumflex" unicode="&#x15d;" horiz-adv-x="509" 
d="M99 596l104 138h116l94 -138h-101l-54 56l-57 -56h-102zM26 343v46q0 43 13 74.5t44.5 52t96 20.5t110 -1t97.5 -8.5t69 -21.5v-100h-233q-19 0 -26 -5.5t-7 -22.5v-16q0 -17 8 -21.5t25 -4.5h115q51 0 84 -20q60 -35 60 -121v-56q0 -75 -37 -109t-93 -34q-80 0 -127.5 1
t-103.5 9t-73 23v99h243q27 0 27 26v16q0 14 -5.5 20.5t-21.5 6.5h-111q-154 0 -154 147z" />
    <glyph glyph-name="Scedilla" unicode="&#x15e;" horiz-adv-x="593" 
d="M266 -44h104q0 -78 -25 -110.5t-91 -32.5h-58v69l41 14q20 9 24.5 19.5t4.5 40.5zM44 483v62q0 189 198 193q21 1 42 1q158 0 253 -32v-128q-102 10 -173.5 10h-74.5q-45 0 -63 -10t-18 -49v-25q0 -34 11 -44q18 -16 59 -16h106q72 0 113 -35q67 -57 67 -167v-42
q0 -141 -89 -186q-47 -23 -114 -23q-118 0 -174.5 6t-119.5 26v128q110 -11 257 -11q36 0 56 11t20 42v29q0 30 -13 44t-47 14h-103q-68 0 -107 24q-42 25 -58 56q-19 38 -23 61q-5 36 -5 61z" />
    <glyph glyph-name="scedilla" unicode="&#x15f;" horiz-adv-x="509" 
d="M128 -38h105q0 -78 -25.5 -110.5t-90.5 -32.5h-59v69l41 14q20 9 24.5 19.5t4.5 40.5zM26 343v46q0 43 13 74.5t44.5 52t96 20.5t110 -1t97.5 -8.5t69 -21.5v-100h-233q-19 0 -26 -5.5t-7 -22.5v-16q0 -17 8 -21.5t25 -4.5h115q51 0 84 -20q60 -35 60 -121v-56
q0 -75 -37 -109t-93 -34q-80 0 -127.5 1t-103.5 9t-73 23v99h243q27 0 27 26v16q0 14 -5.5 20.5t-21.5 6.5h-111q-154 0 -154 147z" />
    <glyph glyph-name="Scaron" unicode="&#x160;" horiz-adv-x="593" 
d="M154 936h101l57 -56l55 56h102l-101 -137h-116zM44 483v62q0 189 198 193q21 1 42 1q158 0 253 -32v-128q-102 10 -173.5 10h-74.5q-45 0 -63 -10t-18 -49v-25q0 -34 11 -44q18 -16 59 -16h106q72 0 113 -35q67 -57 67 -167v-42q0 -141 -89 -186q-47 -23 -114 -23
q-118 0 -174.5 6t-119.5 26v128q110 -11 257 -11q36 0 56 11t20 42v29q0 30 -13 44t-47 14h-103q-68 0 -107 24q-42 25 -58 56q-19 38 -23 61q-5 36 -5 61z" />
    <glyph glyph-name="scaron" unicode="&#x161;" horiz-adv-x="509" 
d="M104 735h101l57 -56l55 56h101l-100 -138h-116zM26 343v46q0 43 13 74.5t44.5 52t96 20.5t110 -1t97.5 -8.5t69 -21.5v-100h-233q-19 0 -26 -5.5t-7 -22.5v-16q0 -17 8 -21.5t25 -4.5h115q51 0 84 -20q60 -35 60 -121v-56q0 -75 -37 -109t-93 -34q-80 0 -127.5 1
t-103.5 9t-73 23v99h243q27 0 27 26v16q0 14 -5.5 20.5t-21.5 6.5h-111q-154 0 -154 147z" />
    <glyph glyph-name="Tcommaaccent" unicode="&#x162;" horiz-adv-x="599" 
d="M135 -40h105q0 -78 -25.5 -111t-90.5 -33h-59v69l41 15q20 9 24.5 19.5t4.5 40.5zM26 583v149h553v-149h-197v-583h-164v583h-192z" />
    <glyph glyph-name="tcommaaccent" unicode="&#x163;" horiz-adv-x="383" 
d="M114 -40h104q0 -79 -25 -111.5t-91 -32.5h-58v68l41 16q20 8 24.5 18.5t4.5 41.5zM13 413v86l81 33l26 148h138v-148h106v-119h-106v-193q0 -52 10 -72t32 -30q52 -20 58 -20v-98h-134q-41 0 -69 17q-61 39 -61 173v223h-81z" />
    <glyph glyph-name="Tcaron" unicode="&#x164;" horiz-adv-x="599" 
d="M143 934h101l57 -56l55 56h102l-102 -137h-116zM26 583v149h553v-149h-197v-583h-164v583h-192z" />
    <glyph glyph-name="tcaron" unicode="&#x165;" horiz-adv-x="430" 
d="M13 413v86l81 33l26 148h138v-148h106v-119h-106v-193q0 -52 10 -72t32 -30q52 -20 58 -20v-98h-134q-41 0 -69 17q-61 39 -61 173v223h-81zM413 801v-67l-11 -134h-82l-11 134l-1 67h105z" />
    <glyph glyph-name="Tbar" unicode="&#x166;" horiz-adv-x="587" 
d="M17 583v149h553v-149h-198v-154h90v-69h-90v-360h-164v360h-90v69h90v154h-191z" />
    <glyph glyph-name="tbar" unicode="&#x167;" horiz-adv-x="377" 
d="M13 413v86l81 33l26 148h138v-148h106v-119h-106v-91h74v-69h-74v-33q0 -69 18 -87q8 -8 41.5 -21.5t38.5 -13.5v-98h-132q-65 0 -97.5 44t-32.5 146v63h-66v69h66v91h-81z" />
    <glyph glyph-name="Utilde" unicode="&#x168;" horiz-adv-x="660" 
d="M397 893q43 0 88 39l25 -66q-56 -70 -112 -70q-24 0 -60 17.5t-59 17.5t-41.5 -8t-47.5 -27l-26 60q59 72 122 72q24 -1 56 -18q33 -17 55 -17zM340 -5h-15q-93 0 -117 8.5t-47 19.5t-36 27t-28.5 41t-23.5 57q-19 76 -19 172v412h164v-412q0 -53 4.5 -85t18.5 -53.5
t37 -29.5t62 -8q67 0 91.5 38.5t24.5 137.5v412h165v-412q0 -195 -73 -263q-26 -24 -46.5 -36t-53.5 -18q-44 -8 -108 -8z" />
    <glyph glyph-name="utilde" unicode="&#x169;" 
d="M333 693q43 0 88 39l25 -66q-56 -70 -112 -70q-24 0 -60 17.5t-59 17.5t-41.5 -8t-47.5 -27l-26 60q59 72 122 72q24 0 56 -18q33 -17 55 -17zM34 184v347h164v-351q0 -45 21 -57q10 -5 36 -5q53 0 93 42v371h164v-531h-134l-30 54q-10 -6 -27 -17.5t-27.5 -18
t-26.5 -13.5q-30 -14 -77 -14t-79 14.5t-48 42.5q-29 50 -29 136z" />
    <glyph glyph-name="Umacron" unicode="&#x16a;" horiz-adv-x="660" 
d="M191 797v85h292v-85h-292zM340 -5h-15q-93 0 -117 8.5t-47 19.5t-36 27t-28.5 41t-23.5 57q-19 76 -19 172v412h164v-412q0 -53 4.5 -85t18.5 -53.5t37 -29.5t62 -8q67 0 91.5 38.5t24.5 137.5v412h165v-412q0 -195 -73 -263q-26 -24 -46.5 -36t-53.5 -18q-44 -8 -108 -8
z" />
    <glyph glyph-name="umacron" unicode="&#x16b;" 
d="M127 596v86h292v-86h-292zM34 184v347h164v-351q0 -45 21 -57q10 -5 36 -5q53 0 93 42v371h164v-531h-134l-30 54q-10 -6 -27 -17.5t-27.5 -18t-26.5 -13.5q-30 -14 -77 -14t-79 14.5t-48 42.5q-29 50 -29 136z" />
    <glyph glyph-name="Ubreve" unicode="&#x16c;" horiz-adv-x="660" 
d="M222 911h62q0 -24 14 -38t38 -14q54 0 54 52h62q0 -34 -15 -60q-31 -54 -101 -54q-50 0 -82 31.5t-32 82.5zM340 -5h-15q-93 0 -117 8.5t-47 19.5t-36 27t-28.5 41t-23.5 57q-19 76 -19 172v412h164v-412q0 -53 4.5 -85t18.5 -53.5t37 -29.5t62 -8q67 0 91.5 38.5
t24.5 137.5v412h165v-412q0 -195 -73 -263q-26 -24 -46.5 -36t-53.5 -18q-44 -8 -108 -8z" />
    <glyph glyph-name="ubreve" unicode="&#x16d;" 
d="M160 710h62q0 -24 14 -38t38 -14q54 0 54 52h62q0 -52 -32.5 -83t-83 -31t-82.5 31.5t-32 82.5zM34 184v347h164v-351q0 -45 21 -57q10 -5 36 -5q53 0 93 42v371h164v-531h-134l-30 54q-10 -6 -27 -17.5t-27.5 -18t-26.5 -13.5q-30 -14 -77 -14t-79 14.5t-48 42.5
q-29 50 -29 136z" />
    <glyph glyph-name="Uring" unicode="&#x16e;" horiz-adv-x="660" 
d="M236 899q0 28 13.5 51.5t37 37.5t58.5 14t64.5 -30t29.5 -65.5t-13.5 -59t-37 -37t-51 -13.5t-51 13.5t-37 37t-13.5 51.5zM309.5 926.5q-11.5 -11.5 -11.5 -25t6 -21.5q11 -19 30.5 -19t30.5 11t11 27t-11 27.5t-27.5 11.5t-28 -11.5zM340 -5h-15q-93 0 -117 8.5
t-47 19.5t-36 27t-28.5 41t-23.5 57q-19 76 -19 172v412h164v-412q0 -53 4.5 -85t18.5 -53.5t37 -29.5t62 -8q67 0 91.5 38.5t24.5 137.5v412h165v-412q0 -195 -73 -263q-26 -24 -46.5 -36t-53.5 -18q-44 -8 -108 -8z" />
    <glyph glyph-name="uring" unicode="&#x16f;" 
d="M180 658q-8 19 -8 43.5t13.5 48t37 37.5t51 14t51 -14t36.5 -37.5t13 -51.5t-13 -51.5t-36.5 -37t-47.5 -13.5t-43 8t-32.5 21.5t-21.5 32.5zM245.5 725.5q-11.5 -11.5 -11.5 -23.5t3 -19t9 -12q11 -11 27.5 -11t27.5 11t11 27t-11 27.5t-27.5 11.5t-28 -11.5zM34 184
v347h164v-351q0 -45 21 -57q10 -5 36 -5q53 0 93 42v371h164v-531h-134l-30 54q-10 -6 -27 -17.5t-27.5 -18t-26.5 -13.5q-30 -14 -77 -14t-79 14.5t-48 42.5q-29 50 -29 136z" />
    <glyph glyph-name="Uhungarumlaut" unicode="&#x170;" horiz-adv-x="660" 
d="M206 797l84 141h133l-118 -141h-99zM370 797l84 141h132l-118 -141h-98zM340 -5h-15q-93 0 -117 8.5t-47 19.5t-36 27t-28.5 41t-23.5 57q-19 76 -19 172v412h164v-412q0 -53 4.5 -85t18.5 -53.5t37 -29.5t62 -8q67 0 91.5 38.5t24.5 137.5v412h165v-412q0 -195 -73 -263
q-26 -24 -46.5 -36t-53.5 -18q-44 -8 -108 -8z" />
    <glyph glyph-name="uhungarumlaut" unicode="&#x171;" 
d="M142 596l84 140h133l-118 -140h-99zM305 596l85 140h132l-118 -140h-99zM34 184v347h164v-351q0 -45 21 -57q10 -5 36 -5q53 0 93 42v371h164v-531h-134l-30 54q-10 -6 -27 -17.5t-27.5 -18t-26.5 -13.5q-30 -14 -77 -14t-79 14.5t-48 42.5q-29 50 -29 136z" />
    <glyph glyph-name="Uogonek" unicode="&#x172;" horiz-adv-x="660" 
d="M371 -1q-44 -32 -44 -61.5t28 -40.5q13 -5 27 -4v-83q-15 -3 -26 -3t-26 1.5t-32 13.5q-54 36 -54 89t66 88h61zM340 -5h-15q-93 0 -117 8.5t-47 19.5t-36 27t-28.5 41t-23.5 57q-19 76 -19 172v412h164v-412q0 -53 4.5 -85t18.5 -53.5t37 -29.5t62 -8q67 0 91.5 38.5
t24.5 137.5v412h165v-412q0 -195 -73 -263q-26 -24 -46.5 -36t-53.5 -18q-44 -8 -108 -8z" />
    <glyph glyph-name="uogonek" unicode="&#x173;" 
d="M479 -2q-44 -32 -44 -61.5t28 -40.5q12 -5 26 -4v-82q-14 -4 -25 -4t-26 1.5t-33 13.5q-54 36 -54 89t66 88h62zM34 184v347h164v-351q0 -45 21 -57q10 -5 36 -5q53 0 93 42v371h164v-531h-134l-30 54q-10 -6 -27 -17.5t-27.5 -18t-26.5 -13.5q-30 -14 -77 -14t-79 14.5
t-48 42.5q-29 50 -29 136z" />
    <glyph glyph-name="Wcircumflex" unicode="&#x174;" horiz-adv-x="1004" 
d="M360 796l104 137h116l95 -137h-101l-55 56l-57 -56h-102zM30 732h173l144 -521l114 521h174l-45 -172l110 -351l115 523h173l-192 -732h-194l-84 273l-74 -273h-194z" />
    <glyph glyph-name="wcircumflex" unicode="&#x175;" horiz-adv-x="835" 
d="M270 595l104 137h116l94 -137h-101l-54 56l-57 -56h-102zM13 531h175l88 -347l80 347h160l-30 -133l78 -214l84 347h175l-160 -531h-187l-65 168l-51 -168h-188z" />
    <glyph glyph-name="Ycircumflex" unicode="&#x176;" horiz-adv-x="666" 
d="M180 796l104 137h116l95 -137h-101l-55 56l-57 -56h-102zM414 0h-164v215l-220 517h178l126 -339l138 339h178l-236 -517v-215z" />
    <glyph glyph-name="ycircumflex" unicode="&#x177;" horiz-adv-x="587" 
d="M135 596l104 138h116l95 -138h-101l-55 56l-57 -56h-102zM14 531h171l78 -356q9 -36 49 -39l90 395h168l-166 -699l-72 -102h-119l68 270q-136 0 -172 144z" />
    <glyph glyph-name="Ydieresis" unicode="&#x178;" horiz-adv-x="666" 
d="M169.5 815.5q-18.5 18.5 -18.5 39.5t8 35q18 30 48.5 30t48.5 -17.5t18 -43t-18 -44t-43 -18.5t-43.5 18.5zM406 859.5q0 25.5 18 43t44 17.5t43.5 -17.5t17.5 -43t-18 -44t-43.5 -18.5t-43.5 18.5t-18 44zM414 0h-164v215l-220 517h178l126 -339l138 339h178l-236 -517
v-215z" />
    <glyph glyph-name="Zacute" unicode="&#x179;" horiz-adv-x="554" 
d="M228 797l85 141h132l-118 -141h-99zM24 0v149l313 434h-313v149h508v-149l-291 -434h291v-149h-508z" />
    <glyph glyph-name="zacute" unicode="&#x17a;" horiz-adv-x="480" 
d="M191 596l85 140h132l-118 -140h-99zM20 397v134h441v-134l-207 -262h207v-134h-426v133l220 263h-235z" />
    <glyph glyph-name="Zdotaccent" unicode="&#x17b;" horiz-adv-x="554" 
d="M214 820v84q0 25 24 25h80q11 0 17 -7t6 -18v-84q0 -23 -23 -23h-80q-10 0 -17 6.5t-7 16.5zM24 0v149l313 434h-313v149h508v-149l-291 -434h291v-149h-508z" />
    <glyph glyph-name="zdotaccent" unicode="&#x17c;" horiz-adv-x="480" 
d="M177 619v84q0 25 24 25h80q11 0 17 -7t6 -18v-84q0 -23 -23 -23h-80q-10 0 -17 6.5t-7 16.5zM20 397v134h441v-134l-207 -262h207v-134h-426v133l220 263h-235z" />
    <glyph glyph-name="Zcaron" unicode="&#x17d;" horiz-adv-x="554" 
d="M120 934h102l56 -56l55 56h102l-101 -137h-116zM24 0v149l313 434h-313v149h508v-149l-291 -434h291v-149h-508z" />
    <glyph glyph-name="zcaron" unicode="&#x17e;" horiz-adv-x="480" 
d="M84 734h101l57 -56l54 56h102l-101 -138h-116zM20 397v134h441v-134l-207 -262h207v-134h-426v133l220 263h-235z" />
    <glyph glyph-name="florin" unicode="&#x192;" horiz-adv-x="593" 
d="M82 -78q67 0 91 119q4 19 9 47l43 279h-81l19 119h81l4 20q28 181 108 254q43 40 99 40q71 0 115 -20l10 -5l-15 -101h-51q-63 0 -87 -96q-8 -29 -15 -72l-3 -20h106l-19 -119h-106l-44 -279q-22 -143 -70 -217.5t-136 -74.5q-61 0 -89.5 9.5t-37.5 15.5l16 101h53z" />
    <glyph glyph-name="circumflex" unicode="&#x2c6;" horiz-adv-x="381" 
d="M34 531l104 137h116l94 -137h-101l-55 56l-56 -56h-102z" />
    <glyph glyph-name="caron" unicode="&#x2c7;" horiz-adv-x="381" 
d="M34 668h101l57 -56l54 56h102l-101 -137h-116z" />
    <glyph glyph-name="breve" unicode="&#x2d8;" horiz-adv-x="296" 
d="M34 644h62q0 -24 13.5 -38t38.5 -14q54 0 54 52h62q0 -34 -16 -60q-30 -54 -100 -54q-50 0 -82 31.5t-32 82.5z" />
    <glyph glyph-name="dotaccent" unicode="&#x2d9;" horiz-adv-x="194" 
d="M34 541v84q0 25 24 25h80q10 0 16 -7t6 -18v-84q0 -23 -22 -23h-80q-11 0 -17.5 6.5t-6.5 16.5z" />
    <glyph glyph-name="ring" unicode="&#x2da;" horiz-adv-x="270" 
d="M34 632q0 28 13.5 51.5t37 37.5t51 14t51 -14t36.5 -37.5t13 -51.5t-13 -51.5t-36.5 -37t-51 -13.5t-51 13.5t-37 37t-13.5 51.5zM96 632q0 -16 11.5 -27t28 -11t27.5 11t11 27t-11 27.5t-27.5 11.5t-28 -11.5t-11.5 -27.5z" />
    <glyph glyph-name="ogonek" unicode="&#x2db;" horiz-adv-x="203" 
d="M160 0q-43 -32 -43 -61.5t27 -40.5q13 -5 27 -4v-82q-14 -4 -25 -4t-26 1.5t-33 13.5q-54 36 -54 89t66 88h61z" />
    <glyph glyph-name="tilde" unicode="&#x2dc;" horiz-adv-x="412" 
d="M266 628q43 0 88 39l25 -66q-56 -70 -112 -70q-24 0 -60 17.5t-59 17.5t-41.5 -8t-47.5 -27l-25 61q58 71 121 71q24 0 56 -18q33 -17 55 -17z" />
    <glyph glyph-name="hungarumlaut" unicode="&#x2dd;" horiz-adv-x="409" 
d="M13 531l85 141h132l-118 -141h-99zM177 531l84 141h133l-118 -141h-99z" />
    <glyph glyph-name="uni0338" unicode="&#x338;" horiz-adv-x="626" 
d="M47 184v356q0 92 49.5 142t138.5 50h164q181 0 181 -184v-364q0 -88 -47.5 -136t-134.5 -48h-164q-90 0 -138.5 47.5t-48.5 136.5zM211 305q0 -40 2 -45l168 318q-10 5 -25 5h-83q-62 0 -62 -65v-213zM278 149h72q34 0 50 13.5t16 51.5v226q0 39 -4 44l-172 -326
q14 -9 38 -9z" />
    <glyph glyph-name="Omega" unicode="&#x3a9;" horiz-adv-x="758" 
d="M152 146q-109 72 -109 230q0 69 9.5 115t34 92t61.5 80t96.5 55t133.5 21t131 -19t94 -51t62 -77q45 -84 45 -202q0 -86 -21.5 -141t-71.5 -105l98 -10v-134h-258v146q56 47 73 107q16 53 16 106.5t-4 79.5t-15 54.5t-28 49.5q-41 47 -119 47q-73 0 -111 -34.5t-50 -81.5
q-12 -45 -12 -111t17 -115.5t75 -101.5v-146h-250v136z" />
    <glyph glyph-name="pi" unicode="&#x3c0;" horiz-adv-x="647" 
d="M13 382v149h573v-149h-77v-186q0 -45 15 -59.5t54 -14.5h56v-96q-46 -31 -131 -31q-158 0 -158 193v194h-97v-382h-164v382h-71z" />
    <glyph glyph-name="uni1E02" unicode="&#x1e02;" horiz-adv-x="607" 
d="M248 819v84q0 25 24 25h80q11 0 17 -7t6 -18v-84q0 -23 -23 -23h-80q-11 0 -17.5 6.5t-6.5 16.5zM54 0v732h309q109 0 160.5 -53.5t51.5 -144.5q0 -54 -26.5 -100.5t-76.5 -53.5q71 -12 102 -84q16 -35 16 -77q0 -112 -54 -165.5t-170 -53.5h-312zM218 142h141
q67 0 67 85q0 39 -16 64t-51 25h-141v-174zM218 450h134q30 0 46 18.5t16 54t-18 51.5t-44 16h-134v-140z" />
    <glyph glyph-name="uni1E03" unicode="&#x1e03;" horiz-adv-x="557" 
d="M52 870v84q0 25 24 25h80q10 0 16 -7t6 -18v-84q0 -23 -22 -23h-80q-11 0 -17.5 6.5t-6.5 16.5zM33 0v785h163v-279q68 33 149 33q73 0 109 -33q38 -34 51 -94q13 -58 13 -149q0 -135 -41 -202t-125.5 -67t-153.5 58l-27 -52h-138zM295 130q46 0 55 70q4 28 4 79.5
t-7.5 84.5t-19 42.5t-32.5 9.5q-63 0 -97 -18v-240q32 -28 97 -28z" />
    <glyph glyph-name="uni1E0A" unicode="&#x1e0a;" horiz-adv-x="664" 
d="M250 821v84q0 25 24 25h80q11 0 17.5 -7t6.5 -18v-84q0 -23 -24 -23h-80q-10 0 -17 6.5t-7 16.5zM54 0v732h325q60 0 105 -20.5t72.5 -53.5t44.5 -82q30 -85 30 -213q0 -363 -252 -363h-325zM218 142h146q55 0 79 55t24 157t-13 153t-34 67t-56 16h-146v-448z" />
    <glyph glyph-name="uni1E0B" unicode="&#x1e0b;" horiz-adv-x="557" 
d="M373 868v84q0 25 24 25h80q11 0 17 -7t6 -18v-84q0 -23 -23 -23h-80q-11 0 -17.5 6.5t-6.5 16.5zM48.5 425.5q14.5 48.5 33.5 69.5q41 44 123 44t149 -33v279h164v-785h-138l-26 52q-70 -58 -148 -58q-92 0 -132 65t-40 191.5t14.5 175zM205 364q-7 -33 -7 -104
t13.5 -100.5t44.5 -29.5q65 0 98 28v240q-35 18 -98 18q-21 0 -32.5 -9.5t-18.5 -42.5z" />
    <glyph glyph-name="uni1E1E" unicode="&#x1e1e;" horiz-adv-x="567" 
d="M250 819v84q0 25 24 25h80q23 0 23 -25v-84q0 -23 -23 -23h-80q-24 0 -24 23zM50 0v569q0 87 50 125t117 38h4q237 -4 324 -16v-137h-279q-37 0 -46 -18q-6 -14 -6 -38v-83l284 -10v-136l-284 -9v-285h-164z" />
    <glyph glyph-name="uni1E1F" unicode="&#x1e1f;" horiz-adv-x="405" 
d="M178 874v84q0 25 24 25h80q10 0 16 -7t6 -18v-84q0 -23 -22 -23h-80q-11 0 -17.5 6.5t-6.5 16.5zM13 412v102l79 17v99q0 105 71 139q38 17 107 17t122 -24v-96l-86 2h-2q-33 0 -41 -15t-8 -59l1 -9v-54h110v-119h-110v-412h-164v412h-79z" />
    <glyph glyph-name="uni1E40" unicode="&#x1e40;" horiz-adv-x="864" 
d="M368 820v84q0 25 24 25h80q11 0 17 -7t6 -18v-84q0 -23 -23 -23h-80q-11 0 -17.5 6.5t-6.5 16.5zM37 0l71 732h228l95 -460l97 460h227l73 -732h-161l-49 449l-93 -449h-185l-97 449l-44 -449h-162z" />
    <glyph glyph-name="uni1E41" unicode="&#x1e41;" horiz-adv-x="867" 
d="M379 622v84q0 25 24 25h80q11 0 17 -7t6 -18v-84q0 -23 -23 -23h-80q-10 0 -17 6.5t-7 16.5zM517 376l1 -29v-347h-164v350q0 63 -48 63q-34 0 -57 -9.5t-45 -32.5v-371h-164v531h135l29 -55q65 51 106 59q22 4 51 4q100 0 135 -65q43 30 85.5 47.5t85 17.5t67 -6.5
t41.5 -19t28.5 -29.5t18.5 -39q12 -42 12 -99v-346h-164v350q0 63 -47 63q-70 0 -106 -37z" />
    <glyph glyph-name="uni1E56" unicode="&#x1e56;" horiz-adv-x="610" 
d="M216 822v84q0 25 24 25h80q10 0 16 -7t6 -18v-84q0 -23 -22 -23h-80q-11 0 -17.5 6t-6.5 17zM48 0v732h320q115 0 166 -61q47 -56 47 -170q0 -65 -14.5 -112.5t-35 -72.5t-51.5 -39q-40 -17 -88 -17q-35 0 -105.5 9t-74.5 11v-280h-164zM212 402h141q32 0 47.5 22.5
t15.5 74.5q-1 91 -63 91h-141v-188z" />
    <glyph glyph-name="uni1E57" unicode="&#x1e57;" horiz-adv-x="557" 
d="M224 623v84q0 25 24 25h80q11 0 17 -7t6 -18v-84q0 -23 -23 -23h-80q-11 0 -17.5 6.5t-6.5 16.5zM40 -270v801h138l27 -51q69 57 154 57t125.5 -67.5t40.5 -201.5q0 -166 -49 -225q-41 -51 -123 -51t-149 32v-294h-164zM303 115q20 0 32 10q26 22 26 119.5t-14 127
t-44 29.5q-66 0 -98 -28v-241q34 -17 98 -17z" />
    <glyph glyph-name="uni1E60" unicode="&#x1e60;" horiz-adv-x="593" 
d="M230 824v84q0 25 24 25h80q10 0 16 -7t6 -18v-84q0 -23 -22 -23h-80q-11 0 -17.5 6.5t-6.5 16.5zM44 483v62q0 189 198 193q21 1 42 1q158 0 253 -32v-128q-102 10 -173.5 10h-74.5q-45 0 -63 -10t-18 -49v-25q0 -34 11 -44q18 -16 59 -16h106q72 0 113 -35
q67 -57 67 -167v-42q0 -141 -89 -186q-47 -23 -114 -23q-118 0 -174.5 6t-119.5 26v128q110 -11 257 -11q36 0 56 11t20 42v29q0 30 -13 44t-47 14h-103q-68 0 -107 24q-42 25 -58 56q-19 38 -23 61q-5 36 -5 61z" />
    <glyph glyph-name="uni1E61" unicode="&#x1e61;" horiz-adv-x="509" 
d="M197 622v84q0 25 24 25h80q11 0 17 -7t6 -18v-84q0 -23 -23 -23h-80q-11 0 -17.5 6.5t-6.5 16.5zM26 343v46q0 43 13 74.5t44.5 52t96 20.5t110 -1t97.5 -8.5t69 -21.5v-100h-233q-19 0 -26 -5.5t-7 -22.5v-16q0 -17 8 -21.5t25 -4.5h115q51 0 84 -20q60 -35 60 -121v-56
q0 -75 -37 -109t-93 -34q-80 0 -127.5 1t-103.5 9t-73 23v99h243q27 0 27 26v16q0 14 -5.5 20.5t-21.5 6.5h-111q-154 0 -154 147z" />
    <glyph glyph-name="uni1E6A" unicode="&#x1e6a;" horiz-adv-x="599" 
d="M237 820v84q0 25 24 25h80q11 0 17 -7t6 -18v-84q0 -23 -23 -23h-80q-11 0 -17.5 6.5t-6.5 16.5zM26 583v149h553v-149h-197v-583h-164v583h-192z" />
    <glyph glyph-name="uni1E6B" unicode="&#x1e6b;" horiz-adv-x="383" 
d="M115 763v84q0 25 24 25h80q11 0 17 -7t6 -18v-84q0 -23 -23 -23h-80q-11 0 -17.5 6.5t-6.5 16.5zM13 413v86l81 33l26 148h138v-148h106v-119h-106v-193q0 -52 10 -72t32 -30q52 -20 58 -20v-98h-134q-41 0 -69 17q-61 39 -61 173v223h-81z" />
    <glyph glyph-name="Wgrave" unicode="&#x1e80;" horiz-adv-x="1004" 
d="M344 936h132l85 -140h-99zM30 732h173l144 -521l114 521h174l-45 -172l110 -351l115 523h173l-192 -732h-194l-84 273l-74 -273h-194z" />
    <glyph glyph-name="wgrave" unicode="&#x1e81;" horiz-adv-x="835" 
d="M253 735h133l84 -140h-99zM13 531h175l88 -347l80 347h160l-30 -133l78 -214l84 347h175l-160 -531h-187l-65 168l-51 -168h-188z" />
    <glyph glyph-name="Wacute" unicode="&#x1e82;" horiz-adv-x="1004" 
d="M462 796l85 140h132l-118 -140h-99zM30 732h173l144 -521l114 521h174l-45 -172l110 -351l115 523h173l-192 -732h-194l-84 273l-74 -273h-194z" />
    <glyph glyph-name="wacute" unicode="&#x1e83;" horiz-adv-x="835" 
d="M371 595l85 140h132l-118 -140h-99zM13 531h175l88 -347l80 347h160l-30 -133l78 -214l84 347h175l-160 -531h-187l-65 168l-51 -168h-188z" />
    <glyph glyph-name="Wdieresis" unicode="&#x1e84;" horiz-adv-x="1004" 
d="M317 857.5q0 25.5 18.5 43.5t44 18t43 -17.5t17.5 -43.5t-17.5 -44t-43 -18t-44 18t-18.5 43.5zM590.5 814q-18.5 18 -18.5 39.5t8 35.5q19 30 49.5 30t48.5 -17.5t18 -43.5t-18 -44t-43.5 -18t-44 18zM30 732h173l144 -521l114 521h174l-45 -172l110 -351l115 523h173
l-192 -732h-194l-84 273l-74 -273h-194z" />
    <glyph glyph-name="wdieresis" unicode="&#x1e85;" horiz-adv-x="835" 
d="M232 657q0 25 18.5 43t44 18t43.5 -18t18 -43.5t-18 -43.5t-43.5 -18t-44 18.5t-18.5 43.5zM506 613.5q-18 18.5 -18 39.5t8 35q18 30 48.5 30t48.5 -18t18 -43.5t-18 -43.5t-43.5 -18t-43.5 18.5zM13 531h175l88 -347l80 347h160l-30 -133l78 -214l84 347h175l-160 -531
h-187l-65 168l-51 -168h-188z" />
    <glyph glyph-name="Ygrave" unicode="&#x1ef2;" horiz-adv-x="666" 
d="M172 938h133l85 -141h-100zM414 0h-164v215l-220 517h178l126 -339l138 339h178l-236 -517v-215z" />
    <glyph glyph-name="ygrave" unicode="&#x1ef3;" horiz-adv-x="587" 
d="M127 736h133l84 -140h-99zM14 531h171l78 -356q9 -36 49 -39l90 395h168l-166 -699l-72 -102h-119l68 270q-136 0 -172 144z" />
    <glyph glyph-name="endash" unicode="&#x2013;" horiz-adv-x="513" 
d="M20 220v135h473v-135h-473z" />
    <glyph glyph-name="emdash" unicode="&#x2014;" horiz-adv-x="736" 
d="M20 222v135h696v-135h-696z" />
    <glyph glyph-name="quoteleft" unicode="&#x2018;" horiz-adv-x="255" 
d="M54 646q0 98 110 98q10 0 17 -2l15 -2v-63h-1q-31 0 -31 -31v-19h12q25 0 25 -25v-100q0 -28 -25 -28h-98q-24 0 -24 28v144z" />
    <glyph glyph-name="quoteright" unicode="&#x2019;" horiz-adv-x="255" 
d="M201 571q0 -98 -110 -98q-10 0 -17 2l-15 2v63h1q31 0 31 32v18h-11q-12 0 -19 6.5t-7 19.5v100q0 28 26 28h97q24 0 24 -28v-145z" />
    <glyph glyph-name="quotesinglbase" unicode="&#x201a;" horiz-adv-x="255" 
d="M201 -19q0 -98 -110 -98q-10 0 -17 2l-15 2v63h1q31 0 31 32v18h-11q-12 0 -19 6.5t-7 19.5v100q0 28 26 28h97q24 0 24 -28v-145z" />
    <glyph glyph-name="quotedblleft" unicode="&#x201c;" horiz-adv-x="428" 
d="M355 626q25 0 25 -26v-100q0 -28 -25 -28h-97q-25 0 -25 28v145q0 97 110 97q10 0 18 -1l14 -3v-62v0q-32 0 -32 -32v-18h12zM49 645q0 97 110 97q10 0 18 -1l14 -3v-62v0q-31 0 -31 -32v-18h11q11 0 18 -6.5t7 -19.5v-100q0 -28 -25 -28h-97q-25 0 -25 28v145z" />
    <glyph glyph-name="quotedblright" unicode="&#x201d;" horiz-adv-x="428" 
d="M74 588q-25 0 -25 26v100q0 28 25 28h98q24 0 24 -28v-144q0 -98 -110 -98q-10 0 -17 1l-15 3v62h1q31 0 31 32v18h-12zM380 570q0 -98 -110 -98q-10 0 -17 1l-15 3v62h1q31 0 31 32v18h-12q-11 0 -18 6.5t-7 19.5v100q0 28 25 28h98q24 0 24 -28v-144z" />
    <glyph glyph-name="quotedblbase" unicode="&#x201e;" horiz-adv-x="428" 
d="M74 0q-25 0 -25 26v100q0 28 25 28h98q24 0 24 -28v-145q0 -98 -110 -98q-10 0 -17 2l-15 2v63h1q31 0 31 32v18h-12zM380 -19q0 -98 -110 -98q-10 0 -17 2l-15 2v63h1q31 0 31 32v18h-12q-11 0 -18 6.5t-7 19.5v100q0 28 25 28h98q24 0 24 -28v-145z" />
    <glyph glyph-name="dagger" unicode="&#x2020;" horiz-adv-x="460" 
d="M13 440v127l133 13l12 190h146l11 -190l132 -13v-127l-132 -14l-13 -498h-145l-11 498z" />
    <glyph glyph-name="daggerdbl" unicode="&#x2021;" horiz-adv-x="473" 
d="M13 136v127l136 17l-3 146l-133 14v127l133 13l12 190h146l11 -190l132 -13v-127l-132 -14l-3 -147l135 -16v-127l-140 -15l-5 -193h-145l-4 192z" />
    <glyph glyph-name="bullet" unicode="&#x2022;" horiz-adv-x="308" 
d="M57 315v132q0 35 33 35h127q35 0 35 -35v-132q0 -32 -35 -32h-127q-15 0 -24 8.5t-9 23.5z" />
    <glyph glyph-name="ellipsis" unicode="&#x2026;" horiz-adv-x="804" 
d="M175 23v102q0 25 24 25h98q25 0 25 -25v-102q0 -23 -25 -23h-98q-10 0 -17 6.5t-7 16.5zM311 23v102q0 25 24 25h98q25 0 25 -25v-102q0 -23 -25 -23h-98q-10 0 -17 6.5t-7 16.5zM447 23v102q0 25 24 25h98q25 0 25 -25v-102q0 -23 -25 -23h-98q-10 0 -17 6.5t-7 16.5z
" />
    <glyph glyph-name="perthousand" unicode="&#x2030;" horiz-adv-x="1378" 
d="M28 482v118q0 66 32 99t105 33h101q71 0 102.5 -33t31.5 -99v-118q0 -67 -31.5 -100t-104.5 -33h-101q-94 0 -121 60q-14 29 -14 73zM138 504q0 -30 13 -37.5t31 -7.5h63q28 0 36.5 10.5t8.5 34.5v73q0 27 -9.5 36t-33.5 9h-63q-25 0 -35.5 -9.5t-10.5 -35.5v-73zM201 0
l450 732h111l-445 -732h-116zM565 135v118q0 67 31.5 100t104.5 33h101q72 0 103.5 -33.5t31.5 -99.5v-118q0 -66 -31.5 -99t-105.5 -33h-101q-72 0 -103 33t-31 99zM675 158q0 -24 9 -34.5t34 -10.5h63q28 0 37 10.5t9 34.5v73q0 26 -10 35.5t-34 9.5h-63q-24 0 -34.5 -9.5
t-10.5 -35.5v-73zM979 135v118q0 52 14.5 76t30.5 35q32 22 92 22h100q72 0 103.5 -33.5t31.5 -99.5v-118q0 -44 -13 -72q-27 -60 -124 -60h-100q-72 0 -103.5 33t-31.5 99zM1089 158q0 -24 9 -34.5t34 -10.5h64q28 0 36.5 10.5t8.5 34.5v73q0 26 -9.5 35.5t-33.5 9.5h-64
q-24 0 -34.5 -9.5t-10.5 -35.5v-73z" />
    <glyph glyph-name="guilsinglleft" unicode="&#x2039;" horiz-adv-x="356" 
d="M34 354l206 203l85 -84l-121 -119l123 -122l-83 -86z" />
    <glyph glyph-name="guilsinglright" unicode="&#x203a;" horiz-adv-x="356" 
d="M34 232l123 122l-121 119l85 84l206 -203l-211 -208z" />
    <glyph glyph-name="fraction" unicode="&#x2044;" horiz-adv-x="354" 
d="M-61 0l362 760h114l-361 -760h-115z" />
    <glyph glyph-name="zerosuperior" unicode="&#x2070;" horiz-adv-x="463" 
d="M40 491v233q0 63 35 95.5t101 32.5h118q130 0 130 -124v-237q0 -61 -34 -92t-96 -31h-119q-135 0 -135 123zM166 520q0 -23 11 -31t32 -8h48q23 0 32.5 7.5t9.5 31.5v179q0 21 -9 30t-29 9h-56q-30 0 -36 -15q-3 -10 -3 -24v-179z" />
    <glyph glyph-name="foursuperior" unicode="&#x2074;" horiz-adv-x="435" 
d="M256 574v96l23 50h102v-146h45v-96l-45 -7v-102h-125v89h-222l-23 54l157 340h126l-128 -278h90z" />
    <glyph glyph-name="fivesuperior" unicode="&#x2075;" horiz-adv-x="415" 
d="M37 480h185q31 0 36 9q6 12 6 25v26q0 17 -7.5 26.5t-29.5 9.5h-51q-32 0 -32 -30h-106l15 306h315v-114h-207l-3 -71q24 18 78 18q16 0 35 -2q59 -4 88.5 -38.5t29.5 -90.5v-64q0 -93 -84 -119q-23 -7 -72 -7q-101 0 -196 17v99z" />
    <glyph glyph-name="sixsuperior" unicode="&#x2076;" horiz-adv-x="438" 
d="M113.5 840q20.5 11 48 15t81 4t151.5 -18v-96h-168q-50 0 -60 -39q-5 -18 -5 -49q42 15 118 15t104 -32t28 -90v-64q0 -118 -131 -118h-102q-34 0 -58 10q-57 25 -74 116q-10 50 -10 121.5t10 118t28.5 71t39 35.5zM161 564q0 -40 11.5 -61t45.5 -21h34q19 0 26.5 6
t7.5 23v23q0 18 -5.5 24t-24.5 6h-95z" />
    <glyph glyph-name="sevensuperior" unicode="&#x2077;" horiz-adv-x="409" 
d="M10 738v114h357l31 -52l-183 -432h-136l157 370h-226z" />
    <glyph glyph-name="eightsuperior" unicode="&#x2078;" horiz-adv-x="463" 
d="M44 482v41q0 29 14.5 50t41.5 26q-35 15 -45.5 38t-10.5 60v43q0 116 136 116h113q84 0 112 -48q15 -25 15 -67v-32q0 -42 -26 -63q-12 -10 -28 -12q54 -10 54 -94v-53q0 -75 -39 -99q-33 -21 -87 -21h-115q-63 0 -92 20q-30 21 -35 41q-8 29 -8 54zM169 504
q0 -16 8 -22.5t28 -6.5h55q20 0 27 7t7 22v29q0 16 -7 23.5t-27 7.5h-55q-21 0 -28.5 -7.5t-7.5 -23.5v-29zM169 696q0 -18 8.5 -24t27.5 -6h54q23 0 29 7.5t6 22.5v19q0 21 -9 27t-27 6h-51q-27 0 -32.5 -9.5t-5.5 -23.5v-19z" />
    <glyph glyph-name="ninesuperior" unicode="&#x2079;" horiz-adv-x="438" 
d="M30 674v65q0 120 131 120h102q34 0 58 -11q57 -25 74 -118q10 -52 10 -125t-10 -120t-29 -72q-32 -44 -86 -51q-31 -5 -85.5 -5t-146.5 18v97h167q50 0 60 41q5 19 5 52q-42 -16 -118 -16t-104 33t-28 92zM155 691q0 -20 6 -26.5t25 -6.5h94q0 44 -11 65.5t-45 21.5h-36
q-18 0 -25.5 -6.5t-7.5 -24.5v-23z" />
    <glyph glyph-name="zeroinferior" unicode="&#x2080;" horiz-adv-x="463" 
d="M40 -76v232q0 63 35 95.5t101 32.5h118q130 0 130 -124v-236q0 -62 -34 -93t-96 -31h-119q-135 0 -135 124zM166 -47q0 -24 11 -31.5t32 -7.5h48q23 0 32.5 7.5t9.5 30.5v180q0 21 -9 29.5t-29 8.5h-56q-30 0 -36 -15q-3 -10 -3 -23v-179z" />
    <glyph glyph-name="oneinferior" unicode="&#x2081;" horiz-adv-x="270" 
d="M227 284v-484h-125v376l-91 -19v73l93 54h123z" />
    <glyph glyph-name="twoinferior" unicode="&#x2082;" horiz-adv-x="409" 
d="M21 178q-1 0 -1 27t1 43v23q103 20 207 20q77 0 115.5 -40t38.5 -109q0 -98 -167 -228h167v-114h-358v109q63 41 121 87q111 89 111 133q0 29 -17 39t-61 10h-157z" />
    <glyph glyph-name="threeinferior" unicode="&#x2083;" horiz-adv-x="414" 
d="M209 -205q-129 0 -185 21l1 93h156q41 0 55 6t14 26v9q0 20 -15.5 27t-49.5 8l-119 5v100l119 8q37 1 51.5 7.5t14.5 25.5v9q0 19 -16.5 26t-49.5 7h-165v92q58 22 190 22q17 0 34 -1q60 0 95 -33t35 -89v-28q0 -75 -59 -95q59 -20 59 -101v-21q0 -90 -76 -115
q-26 -8 -59 -8z" />
    <glyph glyph-name="fourinferior" unicode="&#x2084;" horiz-adv-x="440" 
d="M261 7v95l23 51h102v-146h44v-97l-44 -6v-102h-125v88h-227l-23 55l157 339h130l-124 -277h87z" />
    <glyph glyph-name="fiveinferior" unicode="&#x2085;" horiz-adv-x="418" 
d="M371 284v-114h-209l-4 -70q25 17 79 17q17 0 36 -1q60 -4 89.5 -39t29.5 -91v-64q0 -92 -85 -118q-23 -7 -73 -7q-101 0 -197 17v99h187q31 0 36 9q7 11 7 25v25q0 17 -7.5 26.5t-29.5 9.5h-51q-34 0 -34 -20h-107l15 296h318z" />
    <glyph glyph-name="sixinferior" unicode="&#x2086;" horiz-adv-x="438" 
d="M113.5 272.5q20.5 11.5 49.5 15t83 3.5t148 -17v-96h-168q-50 0 -60 -40q-5 -18 -5 -49q42 16 118 16t104 -32t28 -90v-65q0 -118 -131 -118h-102q-34 0 -58 11q-57 24 -74 115q-10 51 -10 122t10 117.5t28.5 71t39 36zM161 -3q0 -41 11.5 -62t45.5 -21h34q19 0 26.5 6.5
t7.5 22.5v23q0 19 -5.5 25t-24.5 6h-95z" />
    <glyph glyph-name="seveninferior" unicode="&#x2087;" horiz-adv-x="409" 
d="M10 171v113h357l31 -52l-183 -432h-136l157 371h-226z" />
    <glyph glyph-name="eightinferior" unicode="&#x2088;" horiz-adv-x="463" 
d="M44 -44q0 40 24 61q13 11 32 15q-35 15 -45.5 38t-10.5 60v42q0 116 136 116h113q84 0 112 -47q15 -26 15 -67v-32q0 -32 -16.5 -52.5t-37.5 -23.5q42 -7 51 -68q3 -13 3 -26v-52q0 -75 -39 -99q-33 -21 -87 -21h-115q-63 0 -92 20q-30 21 -35 40q-8 29 -8 55v41z
M169 -35v-28q0 -21 15 -26q7 -3 21 -3h55q20 0 27 7t7 22v28q0 16 -7 23.5t-27 7.5h-55q-21 0 -28.5 -7t-7.5 -24zM169 128q0 -17 8.5 -23.5t27.5 -6.5h54q23 0 29 7.5t6 22.5v20q0 20 -9 26t-27 6h-51q-27 0 -32.5 -9t-5.5 -23v-20z" />
    <glyph glyph-name="nineinferior" unicode="&#x2089;" horiz-adv-x="438" 
d="M30 106v66q0 120 131 120h102q34 0 58 -11q57 -25 74 -118q10 -51 10 -117t-7 -107.5t-18 -66.5t-28 -42q-28 -28 -64.5 -33t-89.5 -5t-150 16v96h167q50 0 60 41q5 19 5 52q-42 -15 -118 -15t-104 32.5t-28 91.5zM155 124q0 -21 6 -27.5t25 -6.5h94q0 44 -11 66t-45 22
h-36q-18 0 -25.5 -7t-7.5 -25v-22z" />
    <glyph glyph-name="Euro" unicode="&#x20ac;" horiz-adv-x="620" 
d="M336 740q50 0 131 -9.5t136 -28.5v-118q-141 14 -195.5 14t-75 -2.5t-34 -6.5t-23 -13.5t-14.5 -17t-7 -22.5q-4 -21 -4 -58l234 -8v-76l-234 -6v-56l234 -8v-76q-138 -3 -201 -6l-33 -2q0 -73 41 -94q33 -18 81 -18q87 0 198 18l37 6v-116q-50 -24 -114.5 -33t-120.5 -9
t-75 1.5t-44.5 8t-47.5 16.5t-44.5 29t-38.5 44q-36 57 -36 147l-73 8v76l73 8v56l-73 8v72l73 10q0 83 21 133q25 59 72 90q60 39 157 39z" />
    <glyph glyph-name="afii61289" unicode="&#x2113;" horiz-adv-x="489" 
d="M280 739q70 0 119 -45t49 -134q0 -46 -20.5 -93t-53.5 -85q-62 -71 -133 -118v-29q1 -71 25 -92q24 -22 76 -31q0 -1 32.5 -7t35.5 -6v-98h-44.5h-89.5h-44q-77 0 -116 41t-39 138v18q-10 -8 -33 -20l-24 78q26 22 57 56v260q0 81 52 124t151 43zM308 578q0 16 -12.5 25
t-21.5 9q-33 0 -33 -36v-150q67 81 66 146q1 3 1 6z" />
    <glyph glyph-name="afii61352" unicode="&#x2116;" horiz-adv-x="1122" 
d="M48 0v590q0 47 24 81q47 69 150 69q86 0 137 -54q29 -30 35 -71l99 -458q3 -14 13.5 -11.5t10.5 14.5v406q0 88 46 128t122 40h271q77 -1 108 -41t31 -136t-34 -134.5t-120 -41.5h-36q-93 3 -120 37q-25 32 -30 77.5t-5 89.5h122q0 -75 15 -85q7 -4 24 -4h24q23 0 30.5 9
t7.5 49.5t-8 51t-58.5 11.5t-113.5 1t-87.5 -14t-24.5 -63v-397q0 -44 -24 -78q-49 -71 -153 -71q-83 0 -131 54q-28 32 -35 78l-100 463q-2 7 -8 8.5t-11.5 -3t-5.5 -12.5v-583h-165z" />
    <glyph glyph-name="trademark" unicode="&#x2122;" horiz-adv-x="710" 
d="M13 646v86h289v-86h-93v-263h-101v263h-95zM311 383l42 349h107l48 -194l36 194h110l46 -349h-101l-19 178l-27 -178h-91l-34 177l-15 -177h-102z" />
    <glyph glyph-name="estimated" unicode="&#x212e;" horiz-adv-x="682" 
d="M342 0q-139 0 -220.5 75.5t-81.5 189.5t84 193q44 38 95 56.5t119.5 18.5t117.5 -16t94 -50q86 -67 92 -209h-478h-4h-4q-4 -1 -4 -11v-133q0 -19 34 -44q65 -49 156 -49q55 0 106 23.5t84 60.5h56q-57 -61 -113.5 -83t-132.5 -22zM518 275h8q3 0 3.5 0.5t0.5 6.5v133
q0 32 -63 65.5t-127 33.5q-37 0 -74 -11t-61 -26.5t-38.5 -31t-14.5 -24.5v-137q0 -6 2 -7.5t6 -1.5h358z" />
    <glyph glyph-name="partialdiff" unicode="&#x2202;" horiz-adv-x="630" 
d="M38 227q0 112 62.5 175t167.5 63t142 -57q-2 98 -29.5 140.5t-84.5 42.5t-109 -15.5t-84 -35.5l-23 122q58 39 107.5 58.5t107.5 19.5q142 0 211 -92.5t69 -260.5q0 -174 -64 -280q-69 -112 -221 -112q-147 0 -216 102q-36 54 -36 130zM201 230q0 -42 27.5 -65t61.5 -23
t55.5 17.5t32.5 44.5q19 51 20 92q-39 22 -96 22q-101 0 -101 -88z" />
    <glyph glyph-name="uni2206" unicode="&#x2206;" horiz-adv-x="710" 
d="M13 0l311 732h74l299 -732h-684zM234 142h282l-142 340z" />
    <glyph glyph-name="product" unicode="&#x220f;" horiz-adv-x="653" 
d="M13 583v149h627v-149h-72v-583h-164v583h-156v-583h-164v583h-71z" />
    <glyph glyph-name="summation" unicode="&#x2211;" horiz-adv-x="565" 
d="M26 732h526v-149h-323l212 -313l-212 -318h323v-152h-526v152l214 318l-214 313v149z" />
    <glyph glyph-name="minus" unicode="&#x2212;" horiz-adv-x="456" 
d="M20 289v134h416v-134h-416z" />
    <glyph glyph-name="radical" unicode="&#x221a;" horiz-adv-x="670" 
d="M13 224v149h176l68 -150l222 577h179l-308 -800h-162l-114 224h-61z" />
    <glyph glyph-name="infinity" unicode="&#x221e;" horiz-adv-x="753" 
d="M42 275q-8 30 -8 66t6.5 64.5t23.5 54.5q36 54 138.5 54t171.5 -92q54 92 180 92q99 0 135 -54q31 -47 31 -119q0 -73 -36 -120q-38 -52 -130 -52q-57 0 -100.5 19t-81.5 72q-33 -54 -72.5 -72.5t-92.5 -18.5t-86.5 13.5t-52 38t-26.5 54.5zM152.5 361
q-0.5 -8 -0.5 -19.5t1 -20t5 -17t10 -13.5q14 -11 41 -11q50 0 91 61q-16 26 -41 44t-45.5 18t-31.5 -3.5t-17 -8t-9 -13.5t-3.5 -17zM542 280q59 0 59 61q0 31 -11 46.5t-48 15.5q-52 0 -92 -63q40 -60 92 -60z" />
    <glyph glyph-name="integral" unicode="&#x222b;" horiz-adv-x="442" 
d="M13 -78h53q35 0 50 27q16 28 19 56q4 40 4 83v418q0 181 68 254q37 40 93 40q73 0 118 -20q10 -5 11 -5v-101h-50q-50 0 -64 -51q-12 -43 -12 -117v-418q0 -143 -36.5 -217.5t-126 -74.5t-127.5 25v101z" />
    <glyph glyph-name="approxequal" unicode="&#x2248;" horiz-adv-x="501" 
d="M180 334q30 0 75 -18t76 -18t52.5 8t58.5 30l26 -69q-34 -35 -66.5 -55t-64.5 -20t-79.5 19t-74.5 19t-46 -5.5t-42.5 -16t-40.5 -16.5l-20 72q76 70 146 70zM180 517q30 0 75 -18.5t76 -18.5t52.5 8.5t58.5 30.5l26 -70q-34 -35 -66.5 -54.5t-64.5 -19.5t-79.5 19
t-74.5 19t-46 -6t-42.5 -16.5t-40.5 -15.5l-20 71q76 71 146 71z" />
    <glyph glyph-name="notequal" unicode="&#x2260;" horiz-adv-x="453" 
d="M13 174v136h152l47 80h-199v135h277l36 62h76l-36 -62h74v-135h-152l-47 -80h199v-136h-276l-43 -73h-76l43 73h-75z" />
    <glyph glyph-name="lessequal" unicode="&#x2264;" horiz-adv-x="441" 
d="M34 73v119h374v-119h-374zM34 358v148l374 122v-147l-207 -48l207 -57v-148z" />
    <glyph glyph-name="greaterequal" unicode="&#x2265;" horiz-adv-x="441" 
d="M34 73v119h375v-119h-375zM34 228v148l208 57l-208 48v147l375 -122v-148z" />
    <glyph glyph-name="lozenge" unicode="&#x25ca;" horiz-adv-x="508" 
d="M13 373l207 359h74l201 -359l-201 -373h-74zM170 373l87 -163l83 163l-83 153z" />
    <glyph glyph-name="f_f" unicode="&#xfb00;" horiz-adv-x="800" 
d="M13 412v102l99 17v89q0 57 31 103q36 53 121 53t141 -24v-96l-78 1q-36 0 -44 -21q-7 -17 -7 -56v-49h211v99q0 105 72 139q37 17 106 17t123 -24v-96l-86 2h-3q-33 0 -40.5 -15t-7.5 -59v-9v-54h110v-119h-111v-412h-164v412h-212v-412h-164v412h-97z" />
    <glyph glyph-name="f_f_i" unicode="&#xfb03;" horiz-adv-x="1020" 
d="M13 412v102l99 17v89q0 57 31 103q36 53 121 53t141 -24v-96l-78 1q-23 0 -39 -12q-9 -7 -10 -25.5t-2 -39.5l-1 -49h200v35q0 93 61 155q64 65 172 65q78 0 149.5 -9t90.5 -17v-96l-187 4h-5q-117 0 -117 -110v-27l342 -10v-521h-164v412h-178v-412h-164v412h-200v-412
h-165v412h-97z" />
    <glyph glyph-name="ffl" unicode="&#xfb04;" horiz-adv-x="1110" 
d="M13 412v102l99 17v89q0 57 31 103q36 53 121 53t141 -24v-96l-78 1q-36 0 -44 -21q-7 -17 -7 -56l-1 -49h204v43q0 187 159 208q23 4 50 4l308 -3v-564q0 -53 8.5 -68.5t15.5 -21t39 -18.5t39 -13v-98h-126q-73 0 -106.5 43t-33.5 146v478l-113 1q-41 0 -58.5 -20.5
t-17.5 -73.5v-43h110v-119h-111v-412h-164v412h-203v-412h-165v412h-97z" />
    <glyph glyph-name="s_t" unicode="&#xfb06;" horiz-adv-x="888" 
d="M26 342v46q0 65 36 104t110 39h431l25 148h139v-148h105v-118h-105v-194q0 -69 18 -87q8 -8 41.5 -21t38.5 -13v-99h-132q-65 0 -97.5 44t-32.5 146v215h-380q-19 0 -26 -5.5t-7 -22.5v-16q0 -18 8 -22.5t25 -4.5h115q51 0 84 -19q60 -35 60 -121v-55q0 -75 -37 -109
t-93 -34q-266 0 -304 33v99h243q27 0 27 26v15q0 14 -5.5 20.5t-21.5 6.5h-111q-154 0 -154 147z" />
    <glyph glyph-name="exclamdown.alt" horiz-adv-x="275" 
d="M66 606v102q0 23 22 23h100q11 0 17.5 -6.5t6.5 -16.5v-102q0 -25 -24 -25h-100q-10 0 -16 7t-6 18zM57 0l17 535h128l15 -535h-160z" />
    <glyph glyph-name="zero.oldstyle" horiz-adv-x="626" 
d="M47 184v256q0 93 49.5 142.5t138.5 49.5h164q181 0 181 -184v-264q0 -88 -47.5 -136t-134.5 -48h-164q-90 0 -138.5 47.5t-48.5 136.5zM211 215q0 -66 67 -66h72q34 0 50 13.5t16 51.5v204q0 66 -60 66h-83q-62 0 -62 -66v-203z" />
    <glyph glyph-name="one.oldstyle" horiz-adv-x="371" 
d="M315 632v-632h-164v472l-131 -28v105l132 83h163z" />
    <glyph glyph-name="two.oldstyle" horiz-adv-x="586" 
d="M28 491v123q139 27 288 27h15q114 0 168 -48.5t54 -148.5q0 -41 -19.5 -83.5t-46.5 -74t-63 -61.5q-52 -44 -106 -76h234v-149h-518v143q5 2 26 14t41 23t60 35t66.5 41.5t60 42.5t53.5 45q48 49 48 79.5t-13 44.5t-36.5 18.5t-44.5 4.5h-25h-242z" />
    <glyph glyph-name="three.oldstyle" horiz-adv-x="593" 
d="M352 -102h-58h-20t-33.5 0.5t-37.5 1t-33.5 2t-36 3.5t-31.5 5q-30 5 -62 16v122h238q59 0 80 10t21 49v22q0 38 -21.5 50t-73.5 15l-182 6v134l182 10q56 2 76.5 13.5t20.5 47.5v24q0 37 -25 49t-72 12h-250v121q80 29 216 29q51 0 109 -1q84 -2 134.5 -49.5
t50.5 -130.5v-47q0 -114 -80 -143q80 -30 80 -151v-37q0 -88 -50 -135.5t-142 -47.5z" />
    <glyph glyph-name="four.oldstyle" horiz-adv-x="627" 
d="M382 202v153l30 77h134v-230h68v-126l-68 -26v-148h-164v148h-335l-34 74l239 508h178l-192 -430h144z" />
    <glyph glyph-name="five.oldstyle" horiz-adv-x="606" 
d="M227 346q34 24 105 24q24 0 57 -2q84 -5 125.5 -55.5t41.5 -132.5v-99q0 -49 -17.5 -86.5t-46.5 -57.5q-56 -41 -129 -41q-103 0 -160.5 4t-151.5 20v130h274q46 0 58 22q9 17 9 41v51q0 29 -12 46t-46 17h-72q-54 0 -54 -53h-156l22 458h453v-149h-294z" />
    <glyph glyph-name="six.oldstyle" horiz-adv-x="603" 
d="M44 384q0 330 172 350q42 5 88 5q106 0 236 -25v-125h-236q-72 0 -88 -71q-8 -34 -8 -88q61 20 180 20q132 0 163 -87q13 -39 13 -91v-102q0 -171 -183 -171h-141q-38 0 -66 9.5t-53.5 35.5t-41.5 68q-35 92 -35 272zM208 309q0 -85 17.5 -123t70.5 -38h50q30 0 42.5 11
t12.5 44v46q0 35 -10.5 47.5t-40.5 12.5h-142z" />
    <glyph glyph-name="seven.oldstyle" horiz-adv-x="557" 
d="M20 483v149h476l42 -70l-238 -662h-177l213 583h-316z" />
    <glyph glyph-name="eight.oldstyle" horiz-adv-x="621" 
d="M50 173v64q0 44 20 75.5t57 39.5q-51 23 -65 64q-12 34 -12 83v65q0 100 58 139q51 34 133 34h154q89 0 133 -40.5t44 -133.5v-49q0 -28 -10 -55q-18 -54 -65 -61q23 -4 39 -20t23 -39q13 -40 13 -80v-82q0 -124 -78 -159q-39 -18 -100 -18h-153q-162 0 -185 113
q-6 27 -6 60zM214 195q0 -29 14 -41t47 -12h75q32 0 45 13t13 40v57q0 55 -56 55h-80q-41 0 -52 -25q-6 -12 -6 -30v-57zM214 494q0 -32 14.5 -43t43.5 -11h79q35 0 46 13t11 41v40q0 37 -14.5 49.5t-43.5 12.5h-75q-33 0 -47 -11.5t-14 -50.5v-40z" />
    <glyph glyph-name="nine.oldstyle" horiz-adv-x="603" 
d="M298 -107q-114 0 -234 25v125h237q45 0 65 25q22 26 25 53q6 39 6 81q-61 -21 -181 -21q-59 0 -87 13t-42 26t-22.5 27.5t-14.5 33.5q-10 33 -10 79v101q0 172 184 172h141q100 0 143 -75q53 -93 53 -310q0 -330 -172 -350q-45 -5 -91 -5zM204 383q0 -36 10.5 -48
t40.5 -12h142q0 85 -17.5 123t-71.5 38h-50q-29 0 -41.5 -11t-12.5 -44v-46z" />
    <glyph glyph-name="questiondown.alt" horiz-adv-x="543" 
d="M531 20q-126 -29 -230 -29q-25 0 -52 1q-55 0 -98.5 17.5t-70.5 46.5q-54 59 -54 136v64q0 104 49.5 149.5t143.5 45.5q14 0 29 -1v86h126v-206h-54.5h-49.5q-39 -2 -59.5 -19.5t-20.5 -57.5v-37q0 -38 24 -56t75 -18h242v-122zM239 606v102q0 24 24 24h99
q11 0 17.5 -6.5t6.5 -17.5v-102q0 -24 -24 -24h-99q-24 0 -24 24z" />
    <glyph glyph-name="at.alt" horiz-adv-x="877" 
d="M265 624h183q104 0 145 -42q38 -39 38 -120v-350h-102l-22 57l-7 -6.5t-19.5 -16.5t-29.5 -19q-40 -23 -90 -23l-1 -1q-62 0 -94.5 41.5t-32.5 98.5v38q0 69 39 105t112 36h121q1 30 0.5 39.5t-6.5 20.5q-10 16 -48 16h-186q-70 0 -87 -42q-7 -19 -7 -48v-266
q0 -60 28 -85t66 -25h326q58 0 80.5 27.5t22.5 82.5v438q0 56 -28 86.5t-75 30.5h-404v100q46 9 133 18t129.5 9h48.5h93q119 -1 182 -79q48 -60 48 -165v-438q0 -122 -56 -180t-166 -58h-334q-93 0 -154 50q-67 54 -67 174v288q0 84 45 142q51 66 176 66zM407 230h1.5h1.5
q65 0 95 39v63l-101 -8q-20 -2 -28.5 -11t-8.5 -28q-1 -1 -1 -10t1 -10q0 -35 40 -35z" />
    <glyph glyph-name="g.salt" horiz-adv-x="555" 
d="M34 280q0 262 198 262q78 0 160.5 -10t122.5 -23v-553q0 -110 -55.5 -170t-140.5 -60q-15 0 -30 2l-236 24v109h213q85 0 85 95v84q-45 -38 -119 -38q-111 0 -154.5 67t-43.5 211zM198 275q0 -27 0.5 -47.5t4 -43.5t11.5 -33q17 -25 58.5 -25t78.5 20v276h-82
q-42 0 -57 -35q-13 -28 -13.5 -56.5t-0.5 -55.5z" />
    <glyph glyph-name="ampersand.salt" horiz-adv-x="991" 
d="M30 332v84q0 128 67 172q35 23 80.5 31.5t115.5 9.5h426l18 115h146v-117h95v-110l-95 -19v-268q0 -232 -270 -232h-164q-85 1 -145 38q-66 41 -66 129q-152 0 -192 84q-16 34 -16 83zM194 338q0 -27 10.5 -38.5t33.5 -11.5q0 88 50.5 126t147.5 38h54q107 0 152 -47
q38 -37 38 -109q0 -48 -12 -66.5t-21 -28t-24.5 -15t-27.5 -9t-33 -5.5q-31 -2 -74 -2h-86q0 -28 22 -36q11 -3 28 -4h161q78 0 97 47q9 21 9 55v265h-418q-87 0 -101 -32q-6 -15 -6 -49v-78zM402 286h84q17 0 23.5 4.5t6.5 20.5t-6.5 20.5t-23.5 4.5h-42q-21 0 -29 -5
q-13 -9 -13 -45z" />
    <glyph glyph-name="a.superior" horiz-adv-x="373" 
d="M32 710q63 28 150.5 28t126 -25.5t38.5 -91.5v-243h-97l-28 43q-5 -14 -31 -30.5t-57 -16.5q-67 0 -97 43q-17 23 -17 51v30q0 42 27.5 69.5t76.5 27.5h73.5t24.5 1q1 9 0 10q0 25 -10.5 31.5t-31 6.5t-148.5 -9v75zM168 462q33 0 54 23v49l-60 -6q-26 -2 -26 -30v-10
q0 -21 16 -25q6 -1 16 -1z" />
    <glyph glyph-name="b.superior" horiz-adv-x="404" 
d="M25 378v523h125v-181q51 24 97 24t71.5 -11.5t38.5 -37.5q23 -45 23 -137.5t-29.5 -138t-89.5 -45.5t-110 43l-22 -39h-104zM214 478q22 0 31.5 17.5t9.5 69t-10 68.5t-39 17t-55 -12v-143q24 -17 63 -17z" />
    <glyph glyph-name="c.superior" horiz-adv-x="350" 
d="M196 374l-41 1q-6 0 -9 -1q-59 0 -92.5 40.5t-33.5 140.5t32.5 140.5t93.5 40.5q110 0 176 -26v-75q-52 4 -83 4h-42t-19.5 -1.5t-17.5 -8.5q-14 -13 -14 -61.5t5.5 -66t19 -24t40.5 -6.5q54 0 101 4l16 1v-74q-32 -20 -63 -23q-40 -5 -69 -5z" />
    <glyph glyph-name="d.superior" horiz-adv-x="402" 
d="M49.5 418.5q-29.5 44.5 -29.5 141.5t25.5 140.5t100.5 43.5q54 0 104 -24v182h125v-524h-104l-22 39q-50 -43 -110 -43t-89.5 44.5zM155 633q-9 -17 -9 -60.5t4.5 -62.5t13 -25.5t22.5 -6.5q39 0 63 17v143q-25 12 -63 12q-22 0 -31 -17z" />
    <glyph glyph-name="e.superior" horiz-adv-x="387" 
d="M20 556q0 103 36 140.5t134 37.5q101 0 132 -21q30 -21 38 -60q5 -22 5 -51q0 -50 -28.5 -72t-83.5 -22h-107q0 -25 10 -31.5t81 -6.5t120 5v-79q-53 -22 -207 -22q-93 0 -117 78q-13 39 -13 104zM214 593q26 0 26 18.5t-8 25t-32 6.5t-34 -3q-21 -7 -21 -42q0 -2 1 -5
h68z" />
    <glyph glyph-name="f.superior" horiz-adv-x="308" 
d="M18 643v78l54 3v69q0 56 30 82.5t90 26.5t100 -18v-73l-59 1h-3q-22 0 -27 -9.5t-5 -37.5v-31h74v-91h-75v-265h-125v265h-54z" />
    <glyph glyph-name="g.superior" horiz-adv-x="419" 
d="M26 295v48l44 27q-34 11 -44 37q-5 14 -5 34.5t11 40.5t35 23q-43 23 -43 96.5t36 104t95 30.5h244v-68l-36 -18q10 -13 10 -52t-6 -58t-20 -35q-30 -35 -100 -35h-86h-6t-9.5 -0.5t-9.5 -4t-5 -9t1 -8.5t3 -4.5t3.5 -3t5 -2t5.5 -1t6.5 -0.5h6.5l111 -11q61 -5 86 -32
t25 -86v-8q0 -57 -29.5 -83.5t-91.5 -26.5h-109q-57 0 -92.5 25.5t-35.5 79.5zM150 320q0 -24 15 -30q7 -3 21 -3h44q16 0 23 5t7 22v5q0 14 -8 19.5t-28 7.5l-48 6l-26 2v-34zM151 626q-2 -8 -2 -22t4 -24q7 -19 35 -20h27q22 0 28.5 12t6.5 36q0 38 -36 38h-28
q-28 0 -35 -20z" />
    <glyph glyph-name="h.superior" horiz-adv-x="404" 
d="M25 378v522h125v-206q20 16 29.5 23t33.5 16t52 9q66 0 90 -34t24 -96v-234h-125v226q0 41 -33 41q-42 0 -71 -27v-240h-125z" />
    <glyph glyph-name="i.superior" horiz-adv-x="176" 
d="M23 775v77q0 19 18 19h95q16 0 16 -19v-77q0 -17 -16 -17h-95q-18 0 -18 17zM25 378v356h125v-356h-125z" />
    <glyph glyph-name="j.superior" horiz-adv-x="177" 
d="M24 778v76q0 19 18 19h94q18 0 18 -19v-76q0 -18 -18 -18h-94q-18 0 -18 18zM26 195v537h126v-358v-14q0 -109 -30 -165h-96z" />
    <glyph glyph-name="k.superior" horiz-adv-x="416" 
d="M25 378v521h125v-284h16l91 115h142l-132 -155l131 -197h-134l-96 157h-18v-157h-125z" />
    <glyph glyph-name="l.superior" horiz-adv-x="237" 
d="M25 504v396h125v-368q0 -43 12 -55q5 -6 28.5 -15t28.5 -9v-75h-92q-53 0 -77.5 28.5t-24.5 97.5z" />
    <glyph glyph-name="m.superior" horiz-adv-x="634" 
d="M25 378v353h102l19 -41q21 17 31 24t33 15.5t51 8.5q74 0 99 -50q61 50 130 50t94 -34t25 -95v-231h-125v222q0 41 -33 41q-46 0 -72 -23v-240h-125v222q0 41 -34 41q-42 0 -70 -26v-237h-125z" />
    <glyph glyph-name="n.superior" horiz-adv-x="404" 
d="M25 378v353h101l21 -41q47 39 71 43.5t46 4.5q66 0 90.5 -33.5t24.5 -94.5v-232h-125v224q0 40 -33 40q-42 0 -71 -26v-238h-125z" />
    <glyph glyph-name="o.superior" horiz-adv-x="401" 
d="M20 550q0 103 39.5 144t139 41t139 -41.5t39.5 -140.5t-39 -138.5t-139 -39.5q-129 0 -162 75q-17 37 -17 100zM155.5 621.5q-9.5 -16.5 -9.5 -69t10.5 -66.5t43 -14t42.5 13t10 67.5t-9.5 70t-43.5 15.5t-43.5 -16.5z" />
    <glyph glyph-name="p.superior" horiz-adv-x="403" 
d="M25 192v545h104l21 -39q50 43 110 43q119 0 119 -185q0 -113 -35 -155q-30 -34 -87.5 -34t-106.5 25v-200h-125zM213 460q22 0 31.5 18t9.5 58.5t-2.5 57.5t-7.5 26q-10 16 -30 16q-41 0 -64 -18v-146q26 -12 63 -12z" />
    <glyph glyph-name="q.superior" horiz-adv-x="402" 
d="M20 556q0 184 147 184q58 0 118.5 -7t88.5 -17v-524h-125v203q-33 -30 -79 -30t-74.5 12.5t-44.5 37.5q-31 47 -31 141zM146.5 523.5q0.5 -12.5 3 -27t7.5 -20.5q12 -16 39 -16t53 12v176h-53q-35 0 -44 -31q-6 -23 -6 -52t0.5 -41.5z" />
    <glyph glyph-name="r.superior" horiz-adv-x="304" 
d="M25 378v353h109l12 -50q42 54 96 54q27 0 39 -4v-120q-21 1 -52.5 1t-50 -7t-28.5 -29v-198h-125z" />
    <glyph glyph-name="s.superior" horiz-adv-x="363" 
d="M126 515q-106 0 -106 97v30q0 95 96 95q141 0 205 -25v-76h-163q-12 0 -17 -3.5t-5 -12.5v-9q0 -11 5.5 -13.5t17.5 -2.5h83q51 0 74.5 -23t23.5 -61v-39q0 -36 -14 -59q-24 -40 -76 -40q-188 0 -212 25v76h166q21 0 21 16v8q0 10 -4.5 13.5t-16.5 3.5h-78z" />
    <glyph glyph-name="t.superior" horiz-adv-x="293" 
d="M18 644v66l56 17l20 104h105v-96h72v-91h-72v-116q0 -43 12 -53q5 -5 27.5 -13t26.5 -8v-76h-95q-64 0 -85 51q-11 28 -11 73v142h-56z" />
    <glyph glyph-name="u.superior" horiz-adv-x="403" 
d="M24 501v230h125v-223q0 -40 33 -40q40 0 69 24v239h125v-353h-102l-23 44q-27 -28 -49 -39.5t-64 -11.5q-65 0 -89.5 34.5t-24.5 95.5z" />
    <glyph glyph-name="v.superior" horiz-adv-x="409" 
d="M17 731h120l67 -223l68 223h120l-127 -353h-125z" />
    <glyph glyph-name="w.superior" horiz-adv-x="598" 
d="M17 731h120l67 -223l58 223h112l-26 -89l49 -134l62 223h121l-122 -353h-120l-42 111l-36 -111h-120z" />
    <glyph glyph-name="x.superior" horiz-adv-x="415" 
d="M18 378l123 179l-123 174h134l56 -92l54 92h136l-124 -175l120 -178h-131l-55 97l-56 -97h-134z" />
    <glyph glyph-name="y.superior" horiz-adv-x="434" 
d="M17 732h117l58 -236q6 -26 30 -27l70 263h124l-122 -469l-55 -68h-90l49 180q-88 1 -111 95z" />
    <glyph glyph-name="z.superior" horiz-adv-x="360" 
d="M20 635v96h316v-95l-143 -160h143v-97h-305v96l153 160h-164z" />
    <glyph glyph-name="zero.tnum" horiz-adv-x="611" 
d="M39 184v356q0 92 50 142t139 50h164q140 0 172 -113q9 -32 9 -71v-364q0 -88 -47.5 -136t-133.5 -48h-164q-91 0 -140 47.5t-49 136.5zM203 215q0 -66 68 -66h73q33 0 49 13.5t16 51.5v304q0 65 -59 65h-85q-62 0 -62 -65v-303z" />
    <glyph glyph-name="one.tnum" horiz-adv-x="611" 
d="M430 732v-598h136v-134h-440v134h140v439l-134 -29v105l135 83h163z" />
    <glyph glyph-name="two.tnum" horiz-adv-x="611" 
d="M38 592v122q143 28 304 28q110 0 166 -64.5t56 -167.5q0 -44 -21 -92.5t-46.5 -84.5t-65.5 -78q-51 -53 -114 -106h247v-149h-520v143q73 49 143.5 109t112.5 102t71 84t29 70q0 47 -28 65.5t-92 18.5h-242z" />
    <glyph glyph-name="three.tnum" horiz-adv-x="611" 
d="M362 -7h-58h-19t-33.5 0.5t-38 1t-33.5 2t-36 3.5t-31 5q-31 5 -63 16l1 122h238q59 0 80 10t21 49v22q0 45 -35 56q-21 7 -60 8l-183 8v132l183 10q55 3 76 14.5t21 47.5v24q0 37 -25 49t-72 12h-251v121q81 29 217 29q51 0 107.5 -1t98 -22.5t64.5 -62t23 -95.5v-46
q0 -115 -80 -144q80 -30 80 -152v-36q0 -88 -50 -135.5t-142 -47.5z" />
    <glyph glyph-name="four.tnum" horiz-adv-x="611" 
d="M388 302v153l30 77h134v-230h68v-126l-68 -26v-148h-164v148h-335l-34 74l239 508h178l-192 -430h144z" />
    <glyph glyph-name="five.tnum" horiz-adv-x="611" 
d="M227 446q34 24 108 24q23 0 54 -2q84 -5 125.5 -55.5t41.5 -132.5v-99q0 -49 -17.5 -86.5t-46.5 -57.5q-56 -41 -129 -41q-103 0 -160.5 4t-151.5 20v130h274q46 0 58 22q9 17 9 41v51q0 29 -12 46t-46 17h-72q-54 0 -54 -53h-156l22 458h453v-149h-294z" />
    <glyph glyph-name="six.tnum" horiz-adv-x="611" 
d="M41 384q0 330 172 350q41 5 87 5q106 0 237 -25v-125h-236q-72 0 -88 -71q-8 -34 -8 -88q61 20 180 20q132 0 163 -87q13 -39 13 -91v-102q0 -171 -183 -171h-141q-38 0 -66.5 9.5t-54 35.5t-41.5 68q-34 92 -34 272zM205 309q0 -85 17.5 -123t70.5 -38h50q30 0 42.5 11
t12.5 44v46q0 35 -10.5 47.5t-40.5 12.5h-142z" />
    <glyph glyph-name="seven.tnum" horiz-adv-x="611" 
d="M56 583v149h476l42 -70l-238 -662h-177l213 583h-316z" />
    <glyph glyph-name="eight.tnum" horiz-adv-x="611" 
d="M46 173v64q0 44 19.5 75.5t56.5 39.5q-51 23 -65 64q-11 34 -11 83v65q0 100 57 139q51 34 133 34h154q89 0 133 -40.5t44 -133.5v-49q0 -29 -9 -56q-19 -52 -66 -60q23 -4 39 -20t23 -39q13 -40 13 -80v-82q0 -76 -27 -115t-66 -51q-38 -11 -85 -11h-153
q-161 0 -185 113q-5 27 -5 60zM210 195q0 -29 13.5 -41t46.5 -12h76q31 0 44 13t13 40v57q0 55 -55 55h-80q-42 0 -53 -25q-5 -12 -5 -30v-57zM210 494q0 -32 14.5 -43t43.5 -11h78q35 0 46 13t11 41v40q0 37 -14.5 49.5t-42.5 12.5h-76q-30 0 -42 -8q-18 -13 -18 -54v-40z
" />
    <glyph glyph-name="nine.tnum" horiz-adv-x="611" 
d="M41 462v101q0 171 183 171h141q38 0 66.5 -9.5t54 -35t41.5 -68.5q34 -92 34 -272q0 -329 -172 -350q-44 -5 -92 -5q-107 0 -232 26v124h236q46 0 66 25q21 27 25 54q5 39 5 81q-61 -21 -180 -21q-132 0 -163 87q-13 39 -13 92zM204 484q0 -35 10.5 -47.5t40.5 -12.5h142
q0 81 -12 111t-30 40t-46 10h-50q-29 0 -39 -8q-16 -13 -16 -47v-46z" />
    <glyph glyph-name="zero.tosf" horiz-adv-x="611" 
d="M39 184v256q0 93 50 142.5t139 49.5h164q181 0 181 -184v-264q0 -88 -47.5 -136t-133.5 -48h-164q-91 0 -140 47.5t-49 136.5zM203 215q0 -66 68 -66h73q33 0 49 13.5t16 51.5v204q0 66 -59 66h-85q-62 0 -62 -66v-203z" />
    <glyph glyph-name="one.tosf" horiz-adv-x="611" 
d="M420 632v-498h135v-134h-435v134h136v338l-130 -28v105l132 83h162z" />
    <glyph glyph-name="two.tosf" horiz-adv-x="611" 
d="M38 491v123q139 27 289 27h15q113 0 167.5 -48.5t54.5 -148.5q0 -41 -20 -83.5t-46.5 -74t-62.5 -61.5q-52 -44 -107 -76h234v-149h-518v143q5 3 29.5 16.5t49 27.5t71 41.5t77 50.5t62.5 50q66 55 66 96t-26 53.5t-87 12.5h-6h-242z" />
    <glyph glyph-name="three.tosf" horiz-adv-x="611" 
d="M362 -102h-58h-19h-33.5t-38 1t-33.5 2.5t-36 3.5t-31 5q-31 4 -63 16l1 122h238q59 0 80 10t21 49v21q0 38 -22 50.5t-73 14.5l-183 7v133l183 10q55 3 76 14.5t21 47.5v24q0 37 -25 49t-72 12h-251v121q81 28 217 28q51 0 107.5 -0.5t98 -22t64.5 -62t23 -95.5v-47
q0 -114 -80 -143q80 -30 80 -152v-36q0 -88 -50 -135.5t-142 -47.5z" />
    <glyph glyph-name="four.tosf" horiz-adv-x="611" 
d="M388 202v153l30 77h134v-230h68v-126l-68 -26v-148h-164v148h-335l-34 74l239 508h178l-192 -430h144z" />
    <glyph glyph-name="five.tosf" horiz-adv-x="611" 
d="M227 346q34 24 105 24q24 0 57 -2q84 -5 125.5 -55.5t41.5 -132.5v-99q0 -49 -17.5 -86.5t-46.5 -57.5q-56 -41 -129 -41q-103 0 -160.5 4t-151.5 20v130h274q46 0 58 22q9 17 9 41v51q0 29 -12 46t-46 17h-72q-54 0 -54 -53h-156l22 458h453v-149h-294z" />
    <glyph glyph-name="six.tosf" horiz-adv-x="611" 
d="M41 384q0 330 172 350q41 5 87 5q106 0 237 -25v-125h-236q-72 0 -88 -71q-8 -34 -8 -88q61 20 180 20q132 0 163 -87q13 -39 13 -91v-102q0 -171 -183 -171h-141q-38 0 -66.5 9.5t-54 35.5t-41.5 68q-34 92 -34 272zM205 309q0 -85 17.5 -123t70.5 -38h50q30 0 42.5 11
t12.5 44v46q0 35 -10.5 47.5t-40.5 12.5h-142z" />
    <glyph glyph-name="seven.tosf" horiz-adv-x="611" 
d="M55 483v149h476l42 -70l-238 -662h-177l213 583h-316z" />
    <glyph glyph-name="eight.tosf" horiz-adv-x="611" 
d="M46 173v64q0 44 19.5 75.5t56.5 39.5q-51 23 -65 64q-11 34 -11 83v65q0 100 57 139q51 34 133 34h154q89 0 133 -40.5t44 -133.5v-49q0 -29 -9 -56q-19 -52 -66 -60q23 -4 39 -20t23 -39q13 -40 13 -80v-82q0 -76 -27 -115t-66 -51q-38 -11 -85 -11h-153
q-161 0 -185 113q-5 27 -5 60zM210 195q0 -29 13.5 -41t46.5 -12h76q31 0 44 13t13 40v57q0 55 -55 55h-80q-42 0 -53 -25q-5 -12 -5 -30v-57zM210 494q0 -32 14.5 -43t43.5 -11h78q35 0 46 13t11 41v40q0 37 -14.5 49.5t-42.5 12.5h-76q-30 0 -42 -8q-18 -13 -18 -54v-40z
" />
    <glyph glyph-name="nine.tosf" horiz-adv-x="611" 
d="M298 -107q-114 0 -233 25v125h236q46 0 66 25q21 26 25 53q5 39 5 81q-61 -21 -180 -21q-132 0 -163 88q-13 39 -13 91v101q0 172 183 172h141q100 0 143 -75q53 -93 53 -310q0 -330 -172 -350q-45 -5 -91 -5zM204 383q0 -36 10.5 -48t40.5 -12h142q0 85 -17.5 123
t-70.5 38h-50q-30 0 -42.5 -11t-12.5 -44v-46z" />
    <glyph glyph-name="gbreve.salt" horiz-adv-x="555" 
d="M174 714h62q0 -24 14 -38t38 -14q54 0 54 52h62q0 -34 -15 -60q-31 -54 -101 -54q-50 0 -82 31.5t-32 82.5zM34 280q0 262 198 262q78 0 160.5 -10t122.5 -23v-553q0 -110 -55.5 -170t-140.5 -60q-15 0 -30 2l-236 24v109h213q85 0 85 95v84q-45 -38 -119 -38
q-111 0 -154.5 67t-43.5 211zM198 275q0 -27 0.5 -47.5t4 -43.5t11.5 -33q17 -25 58.5 -25t78.5 20v276h-82q-42 0 -57 -35q-13 -28 -13.5 -56.5t-0.5 -55.5z" />
    <glyph glyph-name="gdotaccent.salt" horiz-adv-x="555" 
d="M224 624v84q0 25 24 25h80q11 0 17 -7t6 -18v-84q0 -23 -23 -23h-80q-10 0 -17 6.5t-7 16.5zM34 280q0 262 198 262q78 0 160.5 -10t122.5 -23v-553q0 -110 -55.5 -170t-140.5 -60q-15 0 -30 2l-236 24v109h213q85 0 85 95v84q-45 -38 -119 -38q-111 0 -154.5 67
t-43.5 211zM198 275q0 -27 0.5 -47.5t4 -43.5t11.5 -33q17 -25 58.5 -25t78.5 20v276h-82q-42 0 -57 -35q-13 -28 -13.5 -56.5t-0.5 -55.5z" />
    <glyph glyph-name="gcircumflex.salt" horiz-adv-x="555" 
d="M131 600l104 138h116l94 -138h-101l-54 56l-57 -56h-102zM34 280q0 262 198 262q78 0 160.5 -10t122.5 -23v-553q0 -110 -55.5 -170t-140.5 -60q-15 0 -30 2l-236 24v109h213q85 0 85 95v84q-45 -38 -119 -38q-111 0 -154.5 67t-43.5 211zM198 275q0 -27 0.5 -47.5
t4 -43.5t11.5 -33q17 -25 58.5 -25t78.5 20v276h-82q-42 0 -57 -35q-13 -28 -13.5 -56.5t-0.5 -55.5z" />
    <glyph glyph-name="c_t" horiz-adv-x="855" 
d="M35.5 144q-9.5 49 -9.5 117t10 117.5t25.5 79t39.5 46.5q42 29 109 29l363 -1l25 147h139v-148h105v-119h-105v-193q0 -69 18 -87q8 -8 41.5 -21t38.5 -13v-99h-132q-65 0 -97.5 44t-32.5 146v223l-281 -1h-12.5t-18 -0.5t-19.5 -3t-18 -8t-13.5 -16.5t-11.5 -28
q-9 -41 -9 -86.5t2 -68.5t7.5 -38.5t11.5 -23.5t19 -13q18 -5 58 -5q80 0 151 6l23 2v-99q-57 -21 -111.5 -28.5t-117.5 -7.5t-87 5.5t-48 22t-38.5 45.5t-24 78z" />
    <glyph glyph-name="t_t" horiz-adv-x="762" 
d="M13 413v86l81 33l26 148h138v-148h221l26 148h138v-148h106v-119h-106v-193q0 -69 19 -87q8 -8 41.5 -21.5t38.5 -13.5v-98h-132q-65 0 -98 44t-33 146v223h-221v-193q0 -69 18 -87q8 -8 41.5 -21.5t38.5 -13.5v-98h-132q-65 0 -97.5 44t-32.5 146v223h-81z" />
    <glyph glyph-name="f_t" horiz-adv-x="758" 
d="M13 412v102l79 17v99q0 105 72 139q37 17 106 17t122 -24v-96l-85 2h-3q-33 0 -40.5 -15t-7.5 -59v-9v-53h220l26 148h138v-148h106v-119h-106v-193q1 -69 19 -87q7 -8 40.5 -21.5t38.5 -13.5v-98h-132q-65 0 -97.5 44t-32.5 146v223h-220v-413h-164v412h-79z" />
    <glyph glyph-name="t_y" horiz-adv-x="967" 
d="M13 413v86l81 33l26 148h138v-148h141q126 0 171 -76q14 -24 22 -57l55 -224q9 -36 49 -39l90 395h169l-165 -699l-73 -102h-121l70 270q-136 0 -173 144l-53 192q-11 45 -31.5 61t-65.5 16h-85v-193q0 -69 18 -87q8 -8 41.5 -21.5t38.5 -13.5v-98h-132q-65 0 -97.5 44
t-32.5 146v223h-81z" />
    <glyph glyph-name="f_y" horiz-adv-x="985" 
d="M13 412v102l79 17v99q0 105 72 139q37 17 103.5 17t124.5 -26v-96l-85 4h-5q-36 0 -43 -26q-3 -13 -3 -57v-54h154h3q116 0 162 -59q22 -29 33 -73l56 -223q10 -37 49 -40l91 395h168l-165 -699l-73 -102h-120l70 270q-137 0 -174 145l-54 191q-11 45 -31.5 60.5
t-64.5 15.5h-3h-101v-412h-164v412h-79z" />
    <glyph glyph-name="gcommaaccent.salt" horiz-adv-x="555" 
d="M299 814q28 0 50 -6v-49q-19 1 -23 -5q-5 -8 -5 -16v-9h10q22 0 22 -23v-89q0 -24 -22 -24h-87q-21 0 -21 24v122q0 43 25 60q23 15 50 15h1zM34 280q0 261 198 261q78 0 160.5 -9.5t122.5 -22.5v-553q0 -110 -55.5 -170t-140.5 -60q-15 0 -30 2l-236 24v109h213
q55 0 75 42q10 21 10 53v84q-45 -38 -119 -38q-111 0 -154.5 67t-43.5 211zM198 275q0 -27 0.5 -47.5t4 -43.5t11.5 -33q17 -26 58.5 -26t78.5 21v276h-82q-42 0 -57 -35q-13 -28 -13.5 -56.5t-0.5 -55.5z" />
    <glyph glyph-name="exclam.smcp" horiz-adv-x="274" 
d="M60 23v102q0 25 24 25h100q11 0 17 -7t6 -18v-102q0 -23 -23 -23h-100q-10 0 -17 6.5t-7 16.5zM56 570h160l-18 -380h-128z" />
    <glyph glyph-name="quotedbl.smcp" horiz-adv-x="467" 
d="M57 588h157v-68l-10 -134h-135l-12 134v68zM254 588h157v-68l-10 -134h-136l-11 134v68z" />
    <glyph glyph-name="numbersign.smcp" horiz-adv-x="626" 
d="M13 142l17 112h120l14 85h-120l17 112h120l22 136h112l-22 -136h85l23 136h112l-23 -136h124l-16 -112h-124l-14 -85h122l-15 -112h-125l-24 -142h-112l24 142h-86l-23 -142h-112l23 142h-119zM262 254h86l13 85h-85z" />
    <glyph glyph-name="dollar.smcp" horiz-adv-x="526" 
d="M54 130l232 -5q26 0 37 17q5 8 5 16v20q0 33 -40 33h-96q-86 0 -122 42t-36 117v36q0 165 165 168v78h97v-82q99 -7 170 -20v-117q-141 7 -226 7q-42 0 -42 -38v-17q0 -33 40 -33h102q152 0 152 -167v-32q0 -118 -77 -147q-42 -15 -112 -15h-7v-76h-97v79q-118 7 -145 21
v115z" />
    <glyph glyph-name="percent.smcp" horiz-adv-x="963" 
d="M19 337v101q0 66 31.5 99t105.5 33h87q71 0 102.5 -33t31.5 -99v-101q0 -44 -13 -72q-27 -60 -123 -60h-87q-72 0 -103.5 33t-31.5 99zM129 360q0 -31 13 -38t30 -7h50q28 0 36.5 10.5t8.5 34.5v55q0 27 -9.5 36t-33.5 9h-50q-24 0 -34.5 -9.5t-10.5 -35.5v-55zM285 0
l280 570h111l-275 -570h-116zM586 134v101q0 66 32 99t105 33h86q72 0 103.5 -33t31.5 -99v-101q0 -66 -31.5 -99t-105.5 -33h-86q-71 0 -103 33.5t-32 98.5zM696 157q0 -24 8.5 -34.5t34.5 -10.5h50q28 0 36.5 10.5t8.5 34.5v55q0 27 -9.5 36t-33.5 9h-50q-25 0 -35 -9
t-10 -36v-55z" />
    <glyph glyph-name="ampersand.smcp" horiz-adv-x="605" 
d="M22 169q0 77 76 143l50 43l-26 34q-27 38 -27 74q0 42 26.5 72t55.5 35t51 5t52 -2q76 -4 136 -23v-114h-107q-32 0 -32 -14q0 -9 10 -22l98 -130l103 78l61 -69l-58 -89l-26 -25l125 -165h-174l-56 71l-42 -39q-43 -38 -125 -38q-36 0 -74 18.5t-66 59.5q-31 46 -31 97z
M174 150q15 -19 30.5 -19t30.5 14l40 36l-48 63l-41 -34q-21 -16 -21 -32.5t9 -27.5z" />
    <glyph glyph-name="quotesingle.smcp" horiz-adv-x="270" 
d="M57 588h157v-68l-10 -134h-136l-11 134v68z" />
    <glyph glyph-name="asterisk.smcp" horiz-adv-x="422" 
d="M34 397v62l138 22l5 -89zM86 248l25 137l87 -22l-52 -134zM162 552l60 20l64 -124l-83 -33zM184 294l48 75l114 -90l-37 -50zM235 402l119 80l36 -52l-98 -97z" />
    <glyph glyph-name="zero.smcp" horiz-adv-x="566" 
d="M47 162v246q0 54 23 91q45 71 149 71h134q44 0 76.5 -12.5t49 -30t26.5 -42.5q15 -36 15 -77v-246q0 -162 -167 -162h-134q-103 0 -148 67q-24 36 -24 95zM211 202q0 -31 12.5 -42t37.5 -11h48q28 0 37.5 13.5t9.5 40.5v158q0 47 -21 56q-10 4 -27 4h-49
q-31 0 -39.5 -14.5t-8.5 -44.5v-160z" />
    <glyph glyph-name="one.smcp" horiz-adv-x="367" 
d="M314 570v-570h-164v412l-124 -29v105l126 82h162z" />
    <glyph glyph-name="two.smcp" horiz-adv-x="519" 
d="M266 577q113 0 166.5 -50.5t53.5 -151.5q0 -88 -60 -150q-48 -49 -101 -76h159v-149h-450v143q7 3 31.5 15t38.5 19t40.5 21t43.5 24.5t40 25t37.5 28t27.5 27.5q27 30 27 64t-19.5 47t-77.5 13h-4h-193v121q18 4 53.5 11.5t50.5 10.5q50 7 136 7z" />
    <glyph glyph-name="three.smcp" horiz-adv-x="505" 
d="M20 428v123q67 23 217 23q34 0 71 -1q69 -2 108.5 -42.5t39.5 -101.5v-27q0 -104 -58 -118q34 -16 46 -46t12 -78v-19q0 -70 -35.5 -106.5t-117.5 -39.5q-38 -1 -72 -1q-142 0 -206 22v124h221q44 0 44 31v10q0 20 -10 26.5t-34 7.5l-173 5v129l173 4q28 1 37 7t9 27v11
q0 17 -10.5 23.5t-34.5 6.5h-227z" />
    <glyph glyph-name="four.smcp" horiz-adv-x="561" 
d="M324 261v105l38 90h126v-195h60v-127l-60 -18v-114h-164v114h-267l-44 82l176 372h173l-142 -309h104z" />
    <glyph glyph-name="five.smcp" horiz-adv-x="527" 
d="M51 146h231q23 0 32.5 7.5t9.5 28.5v20q0 22 -6.5 29.5t-32.5 7.5h-50q-45 0 -45 -37h-138l17 368h393v-149h-254l-6 -83q25 26 71 26h50q87 0 126 -40.5t39 -123.5v-48q0 -86 -51 -121q-45 -31 -114 -32h-23q-162 0 -249 24v123z" />
    <glyph glyph-name="six.smcp" horiz-adv-x="537" 
d="M56 147q-12 61 -12 139t10.5 127t27.5 79t41 50q41 34 97 34h12q166 0 248 -15v-134h-214q-39 0 -50 -26q-8 -21 -8 -52q61 12 154 12q136 0 136 -149v-56q0 -77 -45 -117t-106 -40h-121q-46 0 -77 12t-56 43.5t-37 92.5zM208 238q0 -30 2 -46.5t12.5 -30t31.5 -13.5h48
q18 0 25 7t7 27v27q0 23 -13 27q-6 2 -19 2h-94z" />
    <glyph glyph-name="seven.smcp" horiz-adv-x="477" 
d="M20 421v149h392l46 -70l-183 -500h-176l155 421h-234z" />
    <glyph glyph-name="eight.smcp" horiz-adv-x="557" 
d="M508 390q0 -81 -58 -93q29 -5 43.5 -35.5t14.5 -61.5v-70q0 -87 -67 -116q-31 -14 -72 -14h-178q-64 0 -94 22q-31 22 -38 44q-9 33 -9 64v70q0 42 23 57q17 12 45 21q-24 8 -39 28q-29 34 -29 84v43q0 88 41 117q36 25 107 25h166q71 0 107.5 -30t36.5 -112v-43z
M214 170q0 -23 8 -29t33 -6h53q22 0 29 6.5t7 26.5v27q0 20 -7 27t-27 7h-61q-18 0 -26.5 -6.5t-8.5 -24.5v-28zM214 381q0 -23 10.5 -28.5t23.5 -5.5h64q23 0 27 8q5 11 5 23v30q0 19 -7.5 25.5t-25.5 6.5h-61q-20 0 -28 -5.5t-8 -26.5v-27z" />
    <glyph glyph-name="nine.smcp" horiz-adv-x="537" 
d="M40 362v57q0 53 23 89q42 68 127 68h122q114 0 151 -86q31 -72 31 -215q0 -276 -161 -276h-15q-184 0 -260 15v134h215q39 0 49 26q8 21 8 52q-68 -12 -155 -12q-135 0 -135 148zM204 366q0 -19 6 -23q7 -6 25 -6h95q0 55 -11 73q-12 17 -35 17h-49q-18 0 -24.5 -6.5
t-6.5 -28.5v-26z" />
    <glyph glyph-name="question.smcp" horiz-adv-x="470" 
d="M13 421v133q110 21 204 21q19 0 38 -1q93 0 141 -41t48 -134v-27q0 -82 -51 -123q-37 -30 -91 -30q-21 0 -43 5v-34h-121v144h46.5t50 0.5t35.5 7.5t10 26v16q0 22 -12.5 29.5t-42.5 7.5h-212zM124 23v102q0 25 24 25h98q25 0 25 -25v-102q0 -23 -25 -23h-98
q-24 0 -24 23z" />
    <glyph glyph-name="at.smcp" horiz-adv-x="877" 
d="M44 56v288q0 84 45 142q50 66 175 66h184q104 0 145 -42q38 -39 38 -120v-350h-103l-21 57l-7 -6.5t-19.5 -16.5t-29.5 -19q-40 -23 -91 -23q0 -1 -1 -1q-61 0 -94 41.5t-33 98.5v38q0 69 39.5 105t112.5 36h121q1 30 0 30q0 28 -12 37t-42 9h-187q-69 0 -86 -42
q-8 -19 -8 -48v-266q0 -60 28.5 -85t65.5 -25h327q58 0 80.5 27.5t22.5 82.5v438q0 85 -61 110q-19 7 -42 7h-404v100q46 9 133 18t129.5 9h48.5h93q91 -1 157 -53q33 -27 52.5 -76t19.5 -115v-438q0 -122 -55.5 -180t-166.5 -58h-334q-118 0 -176 74q-44 54 -44 150z
M407 158h1q66 0 97 39v63l-101 -8q-26 -3 -32 -14.5t-6 -18.5v-16v-10q0 -35 41 -35z" />
    <glyph glyph-name="a.smcp" horiz-adv-x="612" 
d="M24 0l188 570h201l177 -570h-171l-32 103h-158l-34 -103h-171zM265 230h89l-42 144z" />
    <glyph glyph-name="b.smcp" horiz-adv-x="549" 
d="M54 0v571h271q95 0 143.5 -37t48.5 -116q0 -87 -52 -116q-15 -9 -33 -11q37 -7 62.5 -39.5t25.5 -89.5q0 -89 -48 -125.5t-147 -36.5h-271zM218 135h92q20 0 32 10t12 42q0 52 -43 52h-66h-27v-104zM218 351h92q25 0 34 10t9 35q0 41 -43 41h-92v-86z" />
    <glyph glyph-name="c.smcp" horiz-adv-x="512" 
d="M37 295q0 141 49.5 212t185 71t218.5 -32v-112q-21 4 -80 11t-95.5 7t-56.5 -7t-31.5 -17.5t-17.5 -32.5q-8 -33 -8 -69v-51.5v-26t1 -28t4 -27t8 -22.5t13 -20t19 -15q20 -13 59 -13q73 0 157 12l28 4v-109q-49 -22 -94.5 -28t-125 -6t-126.5 22t-69.5 66.5t-30 92
t-7.5 118.5z" />
    <glyph glyph-name="d.smcp" horiz-adv-x="586" 
d="M341 0h-10h-277v572h277q148 -2 194 -124q25 -66 25 -165q0 -137 -37 -199q-12 -22 -23.5 -36t-29 -23.5t-30.5 -14.5q-26 -10 -89 -10zM218 142h92q48 0 63 43q13 37 13 87.5t-5 79t-15 45.5q-19 33 -56 33h-92v-288z" />
    <glyph glyph-name="e.smcp" horiz-adv-x="511" 
d="M482 15q-75 -17 -282 -17h-8h-24q-54 1 -84 29.5t-30 85.5v338q0 42 18 69q33 49 116 51q225 -3 294 -16v-125h-232q-21 0 -26.5 -6.5t-5.5 -25.5v-46l226 -8v-121l-226 -7v-44q0 -26 17 -31q7 -1 19 -1h228v-125z" />
    <glyph glyph-name="f.smcp" horiz-adv-x="511" 
d="M54 0v451q0 117 134 120q225 -3 294 -16v-125h-232q-21 0 -26.5 -6.5t-5.5 -25.5v-62l226 -8v-120l-226 -8v-200h-164z" />
    <glyph glyph-name="g.smcp" horiz-adv-x="563" 
d="M37 270v16q0 146 43 217t155 76q25 1 52 1q150 0 227 -26v-114q-104 12 -168 12t-79.5 -2.5t-30.5 -11t-21 -26.5q-14 -40 -14 -124v-16t0.5 -24t2.5 -30t7 -30t13 -23q16 -24 52 -24t59.5 12.5t28.5 32.5v47h-74v87q64 17 170 17q31 0 68 -3v-334h-124l-38 44
q-22 -27 -53 -39t-78 -12t-78.5 13t-51 32t-33.5 49t-21 53q-12 46 -13 80.5t-1 49.5z" />
    <glyph glyph-name="h.smcp" horiz-adv-x="582" 
d="M54 -1v571h164v-220h161v220h164v-571h-164v201h-161v-201h-164z" />
    <glyph glyph-name="i.smcp" horiz-adv-x="257" 
d="M54 0v570h164v-570h-164z" />
    <glyph glyph-name="j.smcp" horiz-adv-x="337" 
d="M236 16q-49 -21 -108.5 -21t-103.5 26l1 129h31t42 6.5t28 21.5t8 47v345h164v-405q0 -119 -62 -149z" />
    <glyph glyph-name="k.smcp" horiz-adv-x="587" 
d="M54 -1v571h156v-224h51l120 224h183l-160 -290l160 -281h-183l-122 213h-49v-213h-156z" />
    <glyph glyph-name="l.smcp" horiz-adv-x="503" 
d="M54 131v439h164v-364q0 -42 19 -50q15 -7 49 -7h195v-149h-296q-58 0 -94.5 33t-36.5 98z" />
    <glyph glyph-name="m.smcp" horiz-adv-x="776" 
d="M37 0l53 571h214l86 -346l84 346h214l52 -571h-161l-33 330l-70 -330h-170l-72 329l-32 -329h-165z" />
    <glyph glyph-name="n.smcp" horiz-adv-x="601" 
d="M54 0v571h161l184 -273v273h163v-571h-160l-184 278v-278h-164z" />
    <glyph glyph-name="o.smcp" horiz-adv-x="594" 
d="M45 173q-8 46 -8 121.5t16.5 134.5t52 90.5t80.5 43.5t97 12t80 -2.5t57 -10t49 -20.5t38 -34.5t28 -51.5q23 -65 23 -153.5t-11 -140t-31.5 -84t-54.5 -51.5q-58 -32 -164 -32q-140 0 -191 49q-47 46 -61 129zM219 170q18 -26 78 -26q39 0 58 10q39 20 39 133
q0 49 -3.5 76t-16.5 41.5t-29 18t-40 3.5t-34.5 -1t-21.5 -4t-17.5 -9t-13 -16.5t-10.5 -25.5q-7 -33 -7 -103.5t18 -96.5z" />
    <glyph glyph-name="p.smcp" horiz-adv-x="530" 
d="M40 0v569h279q86 0 134 -41.5t48 -143.5q0 -52 -11.5 -90t-28 -58.5t-41.5 -31.5q-38 -19 -90 -19q-37 0 -80.5 5.5t-44.5 7.5v-198h-165zM205 304h89q14 0 23 5q20 11 20 63q0 63 -43 63h-89v-131z" />
    <glyph glyph-name="q.smcp" horiz-adv-x="594" 
d="M45 173q-8 46 -8 121.5t16.5 134.5t52 90.5t80.5 43.5t97 12t80 -2.5t57 -10t49 -20.5t38 -34.5t28 -51.5q23 -65 23 -153.5t-11 -140t-31.5 -84t-54.5 -51.5q-58 -32 -164 -32q-140 0 -191 49q-47 46 -61 129zM219 170q18 -26 78 -26q39 0 58 10q39 20 39 133
q0 49 -3.5 76t-16.5 41.5t-29 18t-40 3.5t-34.5 -1t-21.5 -4t-17.5 -9t-13 -16.5t-10.5 -25.5q-7 -33 -7 -103.5t18 -96.5zM426 -75q33 0 80 11v-125q-34 -5 -68 -5t-66.5 11t-57.5 29q-55 40 -58 121h90q14 -42 80 -42z" />
    <glyph glyph-name="r.smcp" horiz-adv-x="551" 
d="M40 0v570h271q139 0 175 -93q15 -38 15 -92q0 -150 -75 -179l102 -206h-174l-80 192q-68 5 -70 8v-200h-164zM204 305h89q22 0 33 14.5t11 52.5q0 64 -44 64h-89v-131z" />
    <glyph glyph-name="s.smcp" horiz-adv-x="541" 
d="M37 366v43q0 164 161 164q56 0 140.5 -5.5t139.5 -18.5v-117q-133 8 -243 8q-34 0 -34 -35v-23q0 -19 7.5 -25t26.5 -6h125q85 0 117 -50q28 -43 28 -113v-40q0 -158 -145 -158q-259 0 -301 25v115q147 -6 249 -6q12 0 20.5 7t12.5 21v28q0 16 -8 22.5t-25 6.5h-118
q-84 0 -118.5 40.5t-34.5 116.5z" />
    <glyph glyph-name="t.smcp" horiz-adv-x="522" 
d="M24 421v149h476v-149h-156v-421h-164v421h-156z" />
    <glyph glyph-name="u.smcp" horiz-adv-x="596" 
d="M53 260v310h165v-310q0 -70 21 -93t66.5 -23t65.5 23.5t20 92.5v310h165v-310q0 -67 -15 -116.5t-37.5 -77.5t-57 -44.5t-66.5 -21.5t-75.5 -5t-76.5 4.5t-68.5 20t-57.5 43.5q-49 64 -49 197z" />
    <glyph glyph-name="v.smcp" horiz-adv-x="614" 
d="M24 570h171l116 -372l109 372h171l-179 -570h-201z" />
    <glyph glyph-name="w.smcp" horiz-adv-x="849" 
d="M24 570h171l90 -373l83 373h170l-40 -148l76 -225l84 373h169l-152 -570h-201l-45 143l-41 -143h-203z" />
    <glyph glyph-name="x.smcp" horiz-adv-x="600" 
d="M24 0l176 283l-173 287h198l76 -160l79 160h198l-176 -289l173 -281h-191l-83 153l-80 -153h-197z" />
    <glyph glyph-name="y.smcp" horiz-adv-x="602" 
d="M385 -1h-164v199l-197 372h178l102 -197l97 197h179l-195 -372v-199z" />
    <glyph glyph-name="z.smcp" horiz-adv-x="502" 
d="M24 0v149l245 272h-245v149h456v-149l-234 -272h234v-149h-456z" />
    <glyph glyph-name="grave.smcp" horiz-adv-x="243" 
d="M13 672h133l84 -141h-99z" />
    <glyph glyph-name="aogonek.smcp" horiz-adv-x="616" 
d="M539 1q-44 -32 -44 -61.5t28 -40.5q12 -5 26 -4v-82q-14 -4 -25 -4t-26 1.5t-32 13.5q-55 36 -55 89t66 88h62zM24 0l188 570h201l177 -570h-171l-32 103h-158l-34 -103h-171zM265 230h89l-42 144z" />
    <glyph glyph-name="rcommaaccent.smcp" horiz-adv-x="551" 
d="M212 -186v89q0 24 22 24h87q21 0 21 -24v-121q0 -30 -13 -48t-31 -22q-21 -5 -39 -5t-30 2l-13 3v49q24 0 27 11q1 4 1 10v10h-10q-22 0 -22 22zM40 0v570h271q139 0 175 -93q15 -38 15 -92q0 -150 -75 -179l102 -206h-174l-80 192q-68 5 -70 8v-200h-164zM204 305h89
q22 0 33 14.5t11 52.5q0 64 -44 64h-89v-131z" />
    <glyph glyph-name="itilde.smcp" horiz-adv-x="257" 
d="M184 727q43 0 88 39l25 -66q-56 -70 -112 -70q-24 0 -60 17.5t-59 17.5t-41.5 -8t-47.5 -27l-25 60q58 72 121 72q24 0 56 -18q33 -17 55 -17zM54 0v570h164v-570h-164z" />
    <glyph glyph-name="lcommaaccent.smcp" horiz-adv-x="503" 
d="M196 -186v89q0 24 23 24h86q22 0 22 -24v-121q0 -30 -13 -48t-32 -22q-20 -5 -38.5 -5t-29.5 2l-13 3v49q23 0 26 11q1 4 1 10v10h-9q-23 0 -23 22zM54 131v439h164v-364q0 -42 19 -50q15 -7 49 -7h195v-149h-296q-58 0 -94.5 33t-36.5 98z" />
    <glyph glyph-name="dieresis.smcp" horiz-adv-x="445" 
d="M34 581.5q0 25.5 18 43.5t39 18t36 -8q30 -18 30 -48.5t-18 -48.5t-43.5 -18t-43.5 18t-18 43.5zM288 581.5q0 25.5 18.5 43.5t44 18t43.5 -18t18 -43.5t-18 -43.5t-43.5 -18t-44 18t-18.5 43.5z" />
    <glyph glyph-name="scaron.smcp" horiz-adv-x="541" 
d="M117 770h101l57 -56l55 56h101l-101 -137h-116zM37 366v43q0 164 161 164q56 0 140.5 -5.5t139.5 -18.5v-117q-133 8 -243 8q-34 0 -34 -35v-23q0 -19 7.5 -25t26.5 -6h125q85 0 117 -50q28 -43 28 -113v-40q0 -158 -145 -158q-259 0 -301 25v115q147 -6 249 -6
q12 0 20.5 7t12.5 21v28q0 16 -8 22.5t-25 6.5h-118q-84 0 -118.5 40.5t-34.5 116.5z" />
    <glyph glyph-name="emacron.smcp" horiz-adv-x="511" 
d="M128 631v86h292v-86h-292zM482 15q-75 -17 -282 -17h-8h-24q-54 1 -84 29.5t-30 85.5v338q0 42 18 69q33 49 116 51q225 -3 294 -16v-125h-232q-21 0 -26.5 -6.5t-5.5 -25.5v-46l226 -8v-121l-226 -7v-44q0 -26 17 -31q7 -1 19 -1h228v-125z" />
    <glyph glyph-name="gcommaaccent.smcp" horiz-adv-x="563" 
d="M37 270v16q0 146 44.5 217t156.5 76q25 1 52 1q147 0 224 -26v-114q-99 13 -164 13t-80.5 -2.5t-31 -11t-22.5 -26.5q-15 -40 -15 -125q0 -58 2 -67t4.5 -23t6.5 -19t10.5 -14t14.5 -13q24 -11 49 -11q64 0 76 41v51h-77v87q63 17 173 17q31 0 68 -3v-334h-16h-92h-16
l-38 42q-21 -27 -44 -36q-37 -13 -93 -13q-192 0 -192 277zM231 -188v90q0 24 22 24h86q22 0 22 -24v-122q0 -29 -13 -47t-31 -23q-21 -5 -39.5 -5t-29.5 3l-13 3v49q23 -1 27 11q1 4 1 10v9h-10q-22 0 -22 22z" />
    <glyph glyph-name="tbar.smcp" horiz-adv-x="502" 
d="M13 421v149h476v-149h-156v-99h90v-69h-90v-253h-164v253h-92v69h92v99h-156z" />
    <glyph glyph-name="zcaron.smcp" horiz-adv-x="502" 
d="M94 768h102l56 -56l55 56h102l-101 -138h-116zM24 0v149l245 272h-245v149h456v-149l-234 -272h234v-149h-456z" />
    <glyph glyph-name="macron.smcp" horiz-adv-x="359" 
d="M34 493v86h292v-86h-292z" />
    <glyph glyph-name="degree.smcp" horiz-adv-x="269" 
d="M34 467q0 43 29.5 73t71.5 30t71.5 -30t29.5 -73t-29.5 -72.5t-71.5 -29.5t-71.5 29.5t-29.5 72.5zM96 467q0 -16 11.5 -27t28 -11t27.5 11t11 27t-11.5 27.5t-27.5 11.5t-27.5 -11.5t-11.5 -27.5z" />
    <glyph glyph-name="acute.smcp" horiz-adv-x="243" 
d="M13 531l85 141h132l-118 -141h-99z" />
    <glyph glyph-name="caron.smcp" horiz-adv-x="381" 
d="M34 676h98l57 -61l59 61h100l-104 -145h-116z" />
    <glyph glyph-name="eng.smcp" horiz-adv-x="601" 
d="M49 0v571h161l184 -273v273h163v-618q0 -97 -54.5 -131.5t-157.5 -34.5q-13 0 -27 1v111q39 0 58 13.5t19 54.5v36l-182 275v-278h-164z" />
    <glyph glyph-name="amacron.smcp" horiz-adv-x="612" 
d="M166 630v86h292v-86h-292zM24 0l188 570h201l177 -570h-171l-32 103h-158l-34 -103h-171zM265 230h89l-42 144z" />
    <glyph glyph-name="aacute.smcp" horiz-adv-x="612" 
d="M263 630l85 140h132l-118 -140h-99zM24 0l188 570h201l177 -570h-171l-32 103h-158l-34 -103h-171zM265 230h89l-42 144z" />
    <glyph glyph-name="acircumflex.smcp" horiz-adv-x="612" 
d="M155 630l105 138h116l94 -138h-101l-55 56l-57 -56h-102zM24 0l188 570h201l177 -570h-171l-32 103h-158l-34 -103h-171zM265 230h89l-42 144z" />
    <glyph glyph-name="atilde.smcp" horiz-adv-x="612" 
d="M372 727q44 0 88 39l25 -66q-55 -70 -112 -70q-24 0 -60 17.5t-58.5 17.5t-41.5 -8t-48 -27l-25 60q58 72 122 72q23 0 56 -18q33 -17 54 -17zM24 0l188 570h201l177 -570h-171l-32 103h-158l-34 -103h-171zM265 230h89l-42 144z" />
    <glyph glyph-name="adieresis.smcp" horiz-adv-x="612" 
d="M123 692.5q0 25.5 18.5 43.5t44 18t43.5 -18t18 -43.5t-18 -44t-43.5 -18.5t-44 18.5t-18.5 44zM378 692.5q0 25.5 18.5 43.5t44 18t43.5 -18t18 -43.5t-18 -44t-43.5 -18.5t-44 18.5t-18.5 44zM24 0l188 570h201l177 -570h-171l-32 103h-158l-34 -103h-171zM265 230h89
l-42 144z" />
    <glyph glyph-name="aring.smcp" horiz-adv-x="612" 
d="M219.5 630q8.5 -19 22 -32.5t32.5 -21.5t43 -8t47 13.5t36.5 37t13.5 59t-29.5 65.5t-64 30t-58 -14t-37.5 -37.5t-14 -48t8.5 -43.5zM285.5 697.5q11.5 11.5 28 11.5t27.5 -11.5t11 -28t-11 -27t-27.5 -10.5t-27.5 10q-6 5 -9 12.5t-3 19.5t11.5 23.5zM24 0l188 570h201
l177 -570h-171l-32 103h-158l-34 -103h-171zM265 230h89l-42 144z" />
    <glyph glyph-name="ae.smcp" horiz-adv-x="813" 
d="M786 14q-75 -17 -249 -17h-4h-59h-3q-46 0 -79.5 25t-33.5 82v24h-112l-54 -128h-176l188 454q27 69 97 94q57 20 132 21q15 1 35 1h25q223 -3 293 -16v-124h-231q-21 0 -26.5 -7t-5.5 -26v-47l224 -8v-120l-224 -8v-44q0 -20 8.5 -25.5t27.5 -5.5l227 -1v-124zM358 240
v156l-67 -156h67z" />
    <glyph glyph-name="iogonek.smcp" horiz-adv-x="257" 
d="M175 2q-43 -32 -43 -61.5t27 -40.5q13 -5 27 -4v-83q-14 -3 -25.5 -3t-26 1.5t-32.5 13.5q-54 36 -54 89t66 88h61zM54 0v570h164v-570h-164z" />
    <glyph glyph-name="ccaron.smcp" horiz-adv-x="512" 
d="M135 780h101l57 -56l55 56h102l-102 -137h-116zM37 295q0 141 49.5 212t185 71t218.5 -32v-112q-21 4 -80 11t-95.5 7t-56.5 -7t-31.5 -17.5t-17.5 -32.5q-8 -33 -8 -69v-51.5v-26t1 -28t4 -27t8 -22.5t13 -20t19 -15q20 -13 59 -13q73 0 157 12l28 4v-109
q-49 -22 -94.5 -28t-125 -6t-126.5 22t-69.5 66.5t-30 92t-7.5 118.5z" />
    <glyph glyph-name="eacute.smcp" horiz-adv-x="511" 
d="M232 631l85 141h132l-118 -141h-99zM482 15q-75 -17 -282 -17h-8h-24q-54 1 -84 29.5t-30 85.5v338q0 42 18 69q33 49 116 51q225 -3 294 -16v-125h-232q-21 0 -26.5 -6.5t-5.5 -25.5v-46l226 -8v-121l-226 -7v-44q0 -26 17 -31q7 -1 19 -1h228v-125z" />
    <glyph glyph-name="eogonek.smcp" horiz-adv-x="511" 
d="M482 15q-44 -32 -44 -61.5t28 -40.5q13 -5 27 -4v-83q-15 -3 -26 -3t-25.5 1.5t-32.5 13.5q-54 36 -54 89t66 88h61zM482 15q-75 -17 -282 -17h-8h-24q-54 1 -84 29.5t-30 85.5v338q0 42 18 69q33 49 116 51q225 -3 294 -16v-125h-232q-21 0 -26.5 -6.5t-5.5 -25.5v-46
l226 -8v-121l-226 -7v-44q0 -26 17 -31q7 -1 19 -1h228v-125z" />
    <glyph glyph-name="edieresis.smcp" horiz-adv-x="511" 
d="M81 693.5q0 25.5 18 43.5t43.5 18t43.5 -18t18 -39t-8 -36q-18 -31 -48 -31t-48.5 18.5t-18.5 44zM336 693.5q0 25.5 18 43.5t44 18t43.5 -18t17.5 -43.5t-18 -44t-43.5 -18.5t-43.5 18.5t-18 44zM482 15q-75 -17 -282 -17h-8h-24q-54 1 -84 29.5t-30 85.5v338
q0 42 18 69q33 49 116 51q225 -3 294 -16v-125h-232q-21 0 -26.5 -6.5t-5.5 -25.5v-46l226 -8v-121l-226 -7v-44q0 -26 17 -31q7 -1 19 -1h228v-125z" />
    <glyph glyph-name="edotaccent.smcp" horiz-adv-x="511" 
d="M220 654v84q0 25 24 25h80q11 0 17 -7t6 -18v-84q0 -23 -23 -23h-80q-11 0 -17.5 6.5t-6.5 16.5zM482 15q-75 -17 -282 -17h-8h-24q-54 1 -84 29.5t-30 85.5v338q0 42 18 69q33 49 116 51q225 -3 294 -16v-125h-232q-21 0 -26.5 -6.5t-5.5 -25.5v-46l226 -8v-121l-226 -7
v-44q0 -26 17 -31q7 -1 19 -1h228v-125z" />
    <glyph glyph-name="iacute.smcp" horiz-adv-x="257" 
d="M77 630l84 140h133l-118 -140h-99zM54 0v570h164v-570h-164z" />
    <glyph glyph-name="icircumflex.smcp" horiz-adv-x="257" 
d="M-31 630l104 138h116l94 -138h-101l-54 56l-57 -56h-102zM54 0v570h164v-570h-164z" />
    <glyph glyph-name="imacron.smcp" horiz-adv-x="257" 
d="M-12 630v86h292v-86h-292zM54 0v570h164v-570h-164z" />
    <glyph glyph-name="dcroat.smcp" horiz-adv-x="602" 
d="M355 0h-10h-274v256h-58v68h58v248h29h246q146 -1 192 -124q24 -66 24 -165q0 -137 -37 -199q-12 -22 -23.5 -36t-29 -23.5t-30.5 -14.5q-26 -10 -87 -10zM236 142h84q48 0 63 43q13 36 13 107q0 138 -74 138h-86v-106h74v-68h-74v-114z" />
    <glyph glyph-name="ncommaaccent.smcp" horiz-adv-x="601" 
d="M235 -186v89q0 24 22 24h86q22 0 22 -24v-121q0 -30 -13 -48t-31 -22q-21 -5 -39.5 -5t-29.5 2l-13 3v49q19 0 23 5q5 8 5 16v10h-10q-22 0 -22 22zM54 0v571h161l184 -273v273h163v-571h-160l-184 278v-278h-164z" />
    <glyph glyph-name="omacron.smcp" horiz-adv-x="594" 
d="M152 638v85h292v-85h-292zM45 173q-8 46 -8 121.5t16.5 134.5t52 90.5t80.5 43.5t97 12t80 -2.5t57 -10t49 -20.5t38 -34.5t28 -51.5q23 -65 23 -153.5t-11 -140t-31.5 -84t-54.5 -51.5q-58 -32 -164 -32q-140 0 -191 49q-47 46 -61 129zM219 170q18 -26 78 -26
q39 0 58 10q39 20 39 133q0 49 -3.5 76t-16.5 41.5t-29 18t-40 3.5t-34.5 -1t-21.5 -4t-17.5 -9t-13 -16.5t-10.5 -25.5q-7 -33 -7 -103.5t18 -96.5z" />
    <glyph glyph-name="kcommaaccent.smcp" horiz-adv-x="587" 
d="M231 -187v89q0 24 23 24h86q22 0 22 -24v-121q0 -30 -13 -48t-32 -22q-20 -5 -38.5 -5t-29.5 2l-13 3v49q23 0 26 11q1 4 1 11v8h-9q-23 0 -23 23zM54 -1v571h156v-224h51l120 224h183l-160 -290l160 -281h-183l-122 213h-49v-213h-156z" />
    <glyph glyph-name="ocircumflex.smcp" horiz-adv-x="594" 
d="M138 634l105 137h116l94 -137h-101l-54 56l-58 -56h-102zM45 173q-8 46 -8 121.5t16.5 134.5t52 90.5t80.5 43.5t97 12t80 -2.5t57 -10t49 -20.5t38 -34.5t28 -51.5q23 -65 23 -153.5t-11 -140t-31.5 -84t-54.5 -51.5q-58 -32 -164 -32q-140 0 -191 49q-47 46 -61 129z
M219 170q18 -26 78 -26q39 0 58 10q39 20 39 133q0 49 -3.5 76t-16.5 41.5t-29 18t-40 3.5t-34.5 -1t-21.5 -4t-17.5 -9t-13 -16.5t-10.5 -25.5q-7 -33 -7 -103.5t18 -96.5z" />
    <glyph glyph-name="otilde.smcp" horiz-adv-x="594" 
d="M361 732q43 0 88 39l25 -66q-56 -70 -112 -70q-20 0 -40.5 9t-39.5 17.5t-40.5 8.5t-40 -8t-47.5 -27l-26 61q59 71 122 71q24 0 56 -18q33 -17 55 -17zM45 173q-8 46 -8 121.5t16.5 134.5t52 90.5t80.5 43.5t97 12t80 -2.5t57 -10t49 -20.5t38 -34.5t28 -51.5
q23 -65 23 -153.5t-11 -140t-31.5 -84t-54.5 -51.5q-58 -32 -164 -32q-140 0 -191 49q-47 46 -61 129zM219 170q18 -26 78 -26q39 0 58 10q39 20 39 133q0 49 -3.5 76t-16.5 41.5t-29 18t-40 3.5t-34.5 -1t-21.5 -4t-17.5 -9t-13 -16.5t-10.5 -25.5q-7 -33 -7 -103.5
t18 -96.5z" />
    <glyph glyph-name="odieresis.smcp" horiz-adv-x="594" 
d="M125.5 653.5q-18.5 18.5 -18.5 39.5t9 35q18 30 48.5 30t48.5 -17.5t18 -43t-18 -44t-43.5 -18.5t-44 18.5zM362 697.5q0 25.5 18.5 43t44 17.5t43.5 -17.5t18 -43t-18 -44t-43.5 -18.5t-44 18.5t-18.5 44zM45 173q-8 46 -8 121.5t16.5 134.5t52 90.5t80.5 43.5t97 12
t80 -2.5t57 -10t49 -20.5t38 -34.5t28 -51.5q23 -65 23 -153.5t-11 -140t-31.5 -84t-54.5 -51.5q-58 -32 -164 -32q-140 0 -191 49q-47 46 -61 129zM219 170q18 -26 78 -26q39 0 58 10q39 20 39 133q0 49 -3.5 76t-16.5 41.5t-29 18t-40 3.5t-34.5 -1t-21.5 -4t-17.5 -9
t-13 -16.5t-10.5 -25.5q-7 -33 -7 -103.5t18 -96.5z" />
    <glyph glyph-name="oslash.smcp" horiz-adv-x="594" 
d="M40 0l48 66q-50 65 -50 214q0 178 68 239q36 32 80.5 44t129 12t134.5 -23l13 19h80l-42 -57q57 -64 57 -227q0 -140 -43 -209q-38 -61 -126 -76q-38 -7 -91 -7q-110 0 -162 29l-18 -24h-78zM207 362.5q-5 -28.5 -5 -71.5t5 -63q9 12 41 54q92 122 104 138q-14 6 -48.5 6
t-49.5 -3.5t-28.5 -17.5t-18.5 -42.5zM387 360l-153 -204q18 -12 60 -12t61 10q39 19 39 133q0 48 -7 73z" />
    <glyph glyph-name="uogonek.smcp" horiz-adv-x="585" 
d="M345 -2q-44 -31 -44 -61t28 -41q12 -5 26 -4v-82q-14 -4 -25 -4t-26 2t-32 13q-55 36 -55 89t66 88h62zM53 260v310h165v-310q0 -70 21 -93t66.5 -23t65.5 23.5t20 92.5v310h165v-310q0 -67 -15 -116.5t-37.5 -77.5t-57 -44.5t-66.5 -21.5t-75.5 -5t-76.5 4.5t-68.5 20
t-57.5 43.5q-49 64 -49 197z" />
    <glyph glyph-name="uacute.smcp" horiz-adv-x="596" 
d="M255 630l85 140h132l-118 -140h-99zM53 260v310h165v-310q0 -70 21 -93t66.5 -23t65.5 23.5t20 92.5v310h165v-310q0 -67 -15 -116.5t-37.5 -77.5t-57 -44.5t-66.5 -21.5t-75.5 -5t-76.5 4.5t-68.5 20t-57.5 43.5q-49 64 -49 197z" />
    <glyph glyph-name="ucircumflex.smcp" horiz-adv-x="596" 
d="M147 630l104 138h116l94 -138h-101l-54 56l-57 -56h-102zM53 260v310h165v-310q0 -70 21 -93t66.5 -23t65.5 23.5t20 92.5v310h165v-310q0 -67 -15 -116.5t-37.5 -77.5t-57 -44.5t-66.5 -21.5t-75.5 -5t-76.5 4.5t-68.5 20t-57.5 43.5q-49 64 -49 197z" />
    <glyph glyph-name="udieresis.smcp" horiz-adv-x="596" 
d="M132.5 648.5q-18.5 18.5 -18.5 39.5t9 35q18 31 48.5 31t48.5 -18t18 -39.5t-8 -35.5q-18 -31 -48.5 -31t-49 18.5zM369 692.5q0 25.5 18.5 43.5t44 18t43.5 -18t18 -43.5t-18 -44t-43.5 -18.5t-44 18.5t-18.5 44zM53 260v310h165v-310q0 -70 21 -93t66.5 -23t65.5 23.5
t20 92.5v310h165v-310q0 -67 -15 -116.5t-37.5 -77.5t-57 -44.5t-66.5 -21.5t-75.5 -5t-76.5 4.5t-68.5 20t-57.5 43.5q-49 64 -49 197z" />
    <glyph glyph-name="utilde.smcp" horiz-adv-x="596" 
d="M364 727q43 0 88 39l25 -66q-56 -70 -112 -70q-20 0 -41 9t-39.5 17.5t-40 8.5t-40 -8t-47.5 -27l-26 60q58 72 122 72q24 0 56 -18q33 -17 55 -17zM53 260v310h165v-310q0 -70 21 -93t66.5 -23t65.5 23.5t20 92.5v310h165v-310q0 -67 -15 -116.5t-37.5 -77.5t-57 -44.5
t-66.5 -21.5t-75.5 -5t-76.5 4.5t-68.5 20t-57.5 43.5q-49 64 -49 197z" />
    <glyph glyph-name="umacron.smcp" horiz-adv-x="596" 
d="M158 630v86h292v-86h-292zM53 260v310h165v-310q0 -70 21 -93t66.5 -23t65.5 23.5t20 92.5v310h165v-310q0 -67 -15 -116.5t-37.5 -77.5t-57 -44.5t-66.5 -21.5t-75.5 -5t-76.5 4.5t-68.5 20t-57.5 43.5q-49 64 -49 197z" />
    <glyph glyph-name="germandbls.smcp" horiz-adv-x="1032" 
d="M25 366v45q0 162 161 162q27 0 112.5 -5t165.5 -19v-117l-15 1q-122 7 -226 7q-34 0 -34 -33v-25q0 -19 7.5 -25t26.5 -6h123q42 0 72 -13q72 -32 72 -150v-40q0 -86 -38 -122t-106 -36q-257 0 -299 25v115l246 -6q20 0 26.5 7t6.5 21v28q0 16 -7.5 22.5t-25.5 6.5h-115
q-43 0 -73 11q-80 29 -80 146zM538 411q0 162 160 162q46 0 133.5 -6.5t144.5 -17.5v-117q-130 8 -240 8q-34 0 -34 -33v-25q0 -19 7.5 -25t26.5 -6h122q85 0 117 -50q28 -43 28 -113v-40q0 -86 -38.5 -122t-106.5 -36q-256 0 -298 25v115q144 -6 246 -6q20 0 26.5 7t6.5 21
v28q0 16 -8 22.5t-25 6.5h-115q-84 0 -118.5 39.5t-34.5 116.5v46z" />
    <glyph glyph-name="agrave.smcp" horiz-adv-x="612" 
d="M141 770h133l84 -140h-99zM24 0l188 570h201l177 -570h-171l-32 103h-158l-34 -103h-171zM265 230h89l-42 144z" />
    <glyph glyph-name="ccedilla.smcp" horiz-adv-x="512" 
d="M244 -33h104q0 -78 -25.5 -110.5t-90.5 -32.5h-58v68l40 15q20 9 25 19.5t5 40.5zM37 295q0 141 49.5 212t185 71t218.5 -32v-112q-21 4 -80 11t-95.5 7t-56.5 -7t-31.5 -17.5t-17.5 -32.5q-8 -33 -8 -69v-51.5v-26t1 -28t4 -27t8 -22.5t13 -20t19 -15q20 -13 59 -13
q73 0 157 12l28 4v-109q-49 -22 -94.5 -28t-125 -6t-126.5 22t-69.5 66.5t-30 92t-7.5 118.5z" />
    <glyph glyph-name="eth.smcp" horiz-adv-x="602" 
d="M355 0h-10h-274v256h-58v68h58v248h29h246q146 -1 192 -124q24 -66 24 -165q0 -137 -37 -199q-12 -22 -23.5 -36t-29 -23.5t-30.5 -14.5q-26 -10 -87 -10zM236 142h84q48 0 63 43q13 36 13 107q0 138 -74 138h-86v-106h74v-68h-74v-114z" />
    <glyph glyph-name="egrave.smcp" horiz-adv-x="511" 
d="M126 772h132l85 -141h-99zM482 15q-75 -17 -282 -17h-8h-24q-54 1 -84 29.5t-30 85.5v338q0 42 18 69q33 49 116 51q225 -3 294 -16v-125h-232q-21 0 -26.5 -6.5t-5.5 -25.5v-46l226 -8v-121l-226 -7v-44q0 -26 17 -31q7 -1 19 -1h228v-125z" />
    <glyph glyph-name="ecircumflex.smcp" horiz-adv-x="511" 
d="M120 631l105 138h116l94 -138h-101l-54 56l-58 -56h-102zM482 15q-75 -17 -282 -17h-8h-24q-54 1 -84 29.5t-30 85.5v338q0 42 18 69q33 49 116 51q225 -3 294 -16v-125h-232q-21 0 -26.5 -6.5t-5.5 -25.5v-46l226 -8v-121l-226 -7v-44q0 -26 17 -31q7 -1 19 -1h228v-125
z" />
    <glyph glyph-name="igrave.smcp" horiz-adv-x="257" 
d="M-41 770h132l85 -140h-99zM54 0v570h164v-570h-164z" />
    <glyph glyph-name="idieresis.smcp" horiz-adv-x="257" 
d="M-63 692.5q0 25.5 18 43.5t43.5 18t43.5 -18t18 -43.5t-18 -44t-43 -18.5t-43.5 18.5t-18.5 44zM210 648.5q-18 18.5 -18 39.5t8 35q18 31 49 31t48.5 -18t17.5 -43.5t-18 -44t-43.5 -18.5t-43.5 18.5zM54 0v570h164v-570h-164z" />
    <glyph glyph-name="ntilde.smcp" horiz-adv-x="601" 
d="M365 728q43 0 88 39l25 -66q-56 -70 -112 -70q-24 0 -60 17.5t-54.5 17.5t-35.5 -5q-23 -7 -58 -30l-26 61q59 71 122 71q24 0 56 -18q33 -17 55 -17zM54 0v571h161l184 -273v273h163v-571h-160l-184 278v-278h-164z" />
    <glyph glyph-name="ograve.smcp" horiz-adv-x="594" 
d="M134 776h132l85 -141h-99zM45 173q-8 46 -8 121.5t16.5 134.5t52 90.5t80.5 43.5t97 12t80 -2.5t57 -10t49 -20.5t38 -34.5t28 -51.5q23 -65 23 -153.5t-11 -140t-31.5 -84t-54.5 -51.5q-58 -32 -164 -32q-140 0 -191 49q-47 46 -61 129zM219 170q18 -26 78 -26
q39 0 58 10q39 20 39 133q0 49 -3.5 76t-16.5 41.5t-29 18t-40 3.5t-34.5 -1t-21.5 -4t-17.5 -9t-13 -16.5t-10.5 -25.5q-7 -33 -7 -103.5t18 -96.5z" />
    <glyph glyph-name="oacute.smcp" horiz-adv-x="594" 
d="M251 635l85 141h132l-118 -141h-99zM45 173q-8 46 -8 121.5t16.5 134.5t52 90.5t80.5 43.5t97 12t80 -2.5t57 -10t49 -20.5t38 -34.5t28 -51.5q23 -65 23 -153.5t-11 -140t-31.5 -84t-54.5 -51.5q-58 -32 -164 -32q-140 0 -191 49q-47 46 -61 129zM219 170q18 -26 78 -26
q39 0 58 10q39 20 39 133q0 49 -3.5 76t-16.5 41.5t-29 18t-40 3.5t-34.5 -1t-21.5 -4t-17.5 -9t-13 -16.5t-10.5 -25.5q-7 -33 -7 -103.5t18 -96.5z" />
    <glyph glyph-name="ugrave.smcp" horiz-adv-x="596" 
d="M140 770h132l84 -140h-98zM53 260v310h165v-310q0 -70 21 -93t66.5 -23t65.5 23.5t20 92.5v310h165v-310q0 -67 -15 -116.5t-37.5 -77.5t-57 -44.5t-66.5 -21.5t-75.5 -5t-76.5 4.5t-68.5 20t-57.5 43.5q-49 64 -49 197z" />
    <glyph glyph-name="yacute.smcp" horiz-adv-x="602" 
d="M249 630l84 140h133l-118 -140h-99zM385 -1h-164v199l-197 372h178l102 -197l97 197h179l-195 -372v-199z" />
    <glyph glyph-name="thorn.smcp" horiz-adv-x="535" 
d="M50 0v569h163v-95h103q93 0 136 -47q40 -44 40 -131q0 -194 -146 -194q-74 0 -133 16v-118h-163zM213 240h72q19 0 27 3q16 8 16 42t-9.5 44t-33.5 11h-72v-100z" />
    <glyph glyph-name="quotesinglbase.smcp" horiz-adv-x="249" 
d="M203 -18q0 -101 -113 -101q-9 0 -17 2l-15 2v64h1q32 0 32 33v18h-12q-12 0 -19 7t-7 20v102q0 28 26 28h99q25 0 25 -28v-147z" />
    <glyph glyph-name="quotedblleft.smcp" horiz-adv-x="433" 
d="M358 462q27 0 27 -26v-102q0 -29 -27 -29h-98q-26 0 -26 29v147q0 99 110 99q17 0 35 -3v-64q-32 1 -32 -33v-18h11zM159 580q17 0 35 -3v-64h-1q-33 0 -33 -33v-18h13q25 0 25 -26v-102q0 -29 -25 -29h-100q-25 0 -25 29v147q0 99 111 99z" />
    <glyph glyph-name="quotedblright.smcp" horiz-adv-x="433" 
d="M198 404q0 -100 -112 -100q-9 0 -17 2l-15 2v64q32 -1 32 32v20h-11q-16 0 -21.5 8.5t-5.5 17.5v102q0 28 27 28h98q25 0 25 -28v-148zM385 404q0 -100 -113 -100q-10 0 -18 2l-15 2v64h1q32 0 32 32v20h-12q-26 0 -26 26v102q0 28 26 28h100q25 0 25 -28v-148z" />
    <glyph glyph-name="quotedblbase.smcp" horiz-adv-x="433" 
d="M75 0q-27 0 -27 27v102q0 28 27 28h98q25 0 25 -28v-147q0 -101 -112 -101q-10 0 -17 2l-15 2v64q32 -1 32 33v18h-11zM385 -18q0 -101 -113 -101q-10 0 -18 2l-15 2v64h1q32 0 32 33v18h-12q-26 0 -26 27v102q0 28 26 28h100q25 0 25 -28v-147z" />
    <glyph glyph-name="exclamdown.smcp" horiz-adv-x="274" 
d="M64 445v102q0 23 23 23h99q11 0 17.5 -6.5t6.5 -16.5v-102q0 -25 -24 -25h-99q-23 0 -23 25zM57 0l16 380h127l16 -380h-159z" />
    <glyph glyph-name="ordmasculine.smcp" horiz-adv-x="417" 
d="M69 260q-39 40 -39 141.5t38.5 141t139.5 39.5q68 0 106 -17.5t55 -57.5t17 -111q0 -99 -38 -137.5t-139 -38.5t-140 40zM44 121v73h328v-73h-328zM164.5 469.5q-9.5 -15.5 -9.5 -70t10.5 -68.5t38.5 -14t37 4q20 9 20 72t-9.5 77.5t-43.5 14.5t-43.5 -15.5z" />
    <glyph glyph-name="ordfeminine.smcp" horiz-adv-x="413" 
d="M43 122v74h350v-74h-350zM42 229l111 341h147l94 -341h-114l-17 63h-83l-18 -63h-120zM202 372h46l-22 90z" />
    <glyph glyph-name="Euro.smcp" horiz-adv-x="520" 
d="M399 195q-172 -4 -170 -6q0 -39 26 -49q21 -8 48 -8t54 1.5t51 3.5q49 4 78 7l12 1v-122q-64 -28 -226 -28q-110 0 -160 50q-20 20 -34 57t-14 87l-53 6v70l53 5v29l-53 6v66l53 7q0 122 79 170q50 29 129 29q34 0 101 -6.5t122 -16.5v-122q-122 11 -176 11t-72 -14.5
t-18 -50.5l170 -6v-68l-170 -5v-29l170 -5v-70z" />
    <glyph glyph-name="lcaron.smcp" horiz-adv-x="494" 
d="M41 131v439h164v-364q0 -41 19 -50q15 -7 49 -7h195v-149h-296q-58 0 -94.5 33t-36.5 98zM255 612h104v-66l-10 -134h-83l-11 134v66z" />
    <glyph glyph-name="sacute.smcp" horiz-adv-x="541" 
d="M222 634l85 141h132l-118 -141h-99zM37 366v43q0 164 161 164q56 0 140.5 -5.5t139.5 -18.5v-117q-133 8 -243 8q-34 0 -34 -35v-23q0 -19 7.5 -25t26.5 -6h125q85 0 117 -50q28 -43 28 -113v-40q0 -158 -145 -158q-259 0 -301 25v115q147 -6 249 -6q12 0 20.5 7t12.5 21
v28q0 16 -8 22.5t-25 6.5h-118q-84 0 -118.5 40.5t-34.5 116.5z" />
    <glyph glyph-name="scedilla.smcp" horiz-adv-x="541" 
d="M127 -38h105q0 -78 -25.5 -110.5t-90.5 -32.5h-59v68l41 15q20 9 24.5 19.5t4.5 40.5zM37 366v43q0 164 161 164q56 0 140.5 -5.5t139.5 -18.5v-117q-133 8 -243 8q-34 0 -34 -35v-23q0 -19 7.5 -25t26.5 -6h125q85 0 117 -50q28 -43 28 -113v-40q0 -158 -145 -158
q-259 0 -301 25v115q147 -6 249 -6q12 0 20.5 7t12.5 21v28q0 16 -8 22.5t-25 6.5h-118q-84 0 -118.5 40.5t-34.5 116.5z" />
    <glyph glyph-name="tcaron.smcp" horiz-adv-x="583" 
d="M156 772h101l57 -56l54 56h102l-101 -138h-116zM71 421v149h476v-149h-156v-421h-164v421h-156z" />
    <glyph glyph-name="zacute.smcp" horiz-adv-x="502" 
d="M203 630l84 140h133l-118 -140h-99zM24 0v149l245 272h-245v149h456v-149l-234 -272h234v-149h-456z" />
    <glyph glyph-name="zdotaccent.smcp" horiz-adv-x="502" 
d="M188 653v84q0 25 24 25h80q11 0 17 -7t6 -18v-84q0 -23 -23 -23h-80q-10 0 -17 6.5t-7 16.5zM24 0v149l245 272h-245v149h456v-149l-234 -272h234v-149h-456z" />
    <glyph glyph-name="racute.smcp" horiz-adv-x="551" 
d="M229 630l85 140h132l-118 -140h-99zM40 0v570h271q139 0 175 -93q15 -38 15 -92q0 -150 -75 -179l102 -206h-174l-80 192q-68 5 -70 8v-200h-164zM204 305h89q22 0 33 14.5t11 52.5q0 64 -44 64h-89v-131z" />
    <glyph glyph-name="abreve.smcp" horiz-adv-x="612" 
d="M198 744h62q0 -24 13.5 -38t38.5 -14q54 0 54 52h62q0 -52 -32.5 -83t-83 -31t-82.5 31.5t-32 82.5zM24 0l188 570h201l177 -570h-171l-32 103h-158l-34 -103h-171zM265 230h89l-42 144z" />
    <glyph glyph-name="lacute.smcp" horiz-adv-x="503" 
d="M80 630l85 140h132l-118 -140h-99zM54 131v439h164v-364q0 -42 19 -50q15 -7 49 -7h195v-149h-296q-58 0 -94.5 33t-36.5 98z" />
    <glyph glyph-name="cacute.smcp" horiz-adv-x="512" 
d="M220 643l84 141h133l-118 -141h-99zM37 295q0 141 49.5 212t185 71t218.5 -32v-112q-21 4 -80 11t-95.5 7t-56.5 -7t-31.5 -17.5t-17.5 -32.5q-8 -33 -8 -69v-51.5v-26t1 -28t4 -27t8 -22.5t13 -20t19 -15q20 -13 59 -13q73 0 157 12l28 4v-109q-49 -22 -94.5 -28
t-125 -6t-126.5 22t-69.5 66.5t-30 92t-7.5 118.5z" />
    <glyph glyph-name="ecaron.smcp" horiz-adv-x="511" 
d="M121 768h101l57 -56l55 56h102l-101 -137h-116zM482 15q-75 -17 -282 -17h-8h-24q-54 1 -84 29.5t-30 85.5v338q0 42 18 69q33 49 116 51q225 -3 294 -16v-125h-232q-21 0 -26.5 -6.5t-5.5 -25.5v-46l226 -8v-121l-226 -7v-44q0 -26 17 -31q7 -1 19 -1h228v-125z" />
    <glyph glyph-name="dcaron.smcp" horiz-adv-x="587" 
d="M154 769h102l56 -56l55 56h102l-101 -138h-116zM363 0h-10h-277v572h277q148 -2 194 -124q25 -66 25 -165q0 -137 -37 -199q-12 -22 -23.5 -36t-29 -23.5t-30.5 -14.5q-26 -10 -89 -10zM240 142h92q48 0 63 43q13 37 13 87.5t-5 79t-15 45.5q-19 33 -56 33h-92v-288z" />
    <glyph glyph-name="nacute.smcp" horiz-adv-x="601" 
d="M262 631l85 141h133l-118 -141h-100zM54 0v571h161l184 -273v273h163v-571h-160l-184 278v-278h-164z" />
    <glyph glyph-name="ncaron.smcp" horiz-adv-x="601" 
d="M151 768h102l56 -56l55 56h102l-101 -137h-116zM54 0v571h161l184 -273v273h163v-571h-160l-184 278v-278h-164z" />
    <glyph glyph-name="ohungarumlaut.smcp" horiz-adv-x="594" 
d="M166 635l85 141h132l-118 -141h-99zM330 635l84 141h133l-118 -141h-99zM45 173q-8 46 -8 121.5t16.5 134.5t52 90.5t80.5 43.5t97 12t80 -2.5t57 -10t49 -20.5t38 -34.5t28 -51.5q23 -65 23 -153.5t-11 -140t-31.5 -84t-54.5 -51.5q-58 -32 -164 -32q-140 0 -191 49
q-47 46 -61 129zM219 170q18 -26 78 -26q39 0 58 10q39 20 39 133q0 49 -3.5 76t-16.5 41.5t-29 18t-40 3.5t-34.5 -1t-21.5 -4t-17.5 -9t-13 -16.5t-10.5 -25.5q-7 -33 -7 -103.5t18 -96.5z" />
    <glyph glyph-name="rcaron.smcp" horiz-adv-x="551" 
d="M113 767h101l57 -56l54 56h102l-101 -137h-116zM40 0v570h271q139 0 175 -93q15 -38 15 -92q0 -150 -75 -179l102 -206h-174l-80 192q-68 5 -70 8v-200h-164zM204 305h89q22 0 33 14.5t11 52.5q0 64 -44 64h-89v-131z" />
    <glyph glyph-name="uring.smcp" horiz-adv-x="596" 
d="M211 685q-8 19 -8 43.5t13.5 48t37 37.5t58.5 14t64.5 -30.5t29.5 -66t-13.5 -58.5t-36.5 -37t-47.5 -14t-43 8t-32.5 22t-22 33zM266 724.5q0 -16.5 11.5 -27.5t27.5 -11t27 11t11 27.5t-11 28t-27 11.5t-27.5 -11.5t-11.5 -28zM53 260v310h165v-310q0 -70 21 -93
t66.5 -23t65.5 23.5t20 92.5v310h165v-310q0 -67 -15 -116.5t-37.5 -77.5t-57 -44.5t-66.5 -21.5t-75.5 -5t-76.5 4.5t-68.5 20t-57.5 43.5q-49 64 -49 197z" />
    <glyph glyph-name="uhungarumlaut.smcp" horiz-adv-x="596" 
d="M172 630l85 140h132l-118 -140h-99zM336 630l84 140h133l-118 -140h-99zM53 260v310h165v-310q0 -70 21 -93t66.5 -23t65.5 23.5t20 92.5v310h165v-310q0 -67 -15 -116.5t-37.5 -77.5t-57 -44.5t-66.5 -21.5t-75.5 -5t-76.5 4.5t-68.5 20t-57.5 43.5q-49 64 -49 197z" />
    <glyph glyph-name="tcommaaccent.smcp" horiz-adv-x="522" 
d="M122 -40h104q0 -78 -25 -110.5t-91 -32.5h-58v69l41 14q20 9 24.5 19.5t4.5 40.5zM24 421v149h476v-149h-156v-421h-164v421h-156z" />
    <glyph glyph-name="lslash.smcp" horiz-adv-x="512" 
d="M72 570h164v-184l88 36v-77l-88 -36v-103q0 -42 20 -50q15 -7 48 -7h196v-149h-296q-59 0 -95.5 33t-36.5 98v111l-59 -24v78l59 24v250z" />
    <glyph glyph-name="questiondown.smcp" horiz-adv-x="492" 
d="M38 174v28q0 82 51 123q37 29 91 29q20 0 43 -4v34h121v-145q-22 1 -47 1t-50 -0.5t-35 -7.5t-10 -26v-16q0 -23 12.5 -30.5t42.5 -7.5h211v-132q-109 -21 -203 -21q-19 0 -38 1q-93 0 -141 41t-48 133zM210 449v102q0 23 26 23h98q10 0 17 -6.5t7 -16.5v-102
q0 -25 -24 -25h-98q-26 0 -26 25z" />
    <glyph glyph-name="oe.smcp" horiz-adv-x="836" 
d="M812 15q-74 -17 -252 -17h-2h-59q-44 1 -69 23q-50 -26 -143 -26q-140 0 -191 49q-48 46 -62 129q-8 46 -8 121.5t17 134.5t52 90.5t80 43.5t130 12t133 -26q30 22 81 22q224 -3 293 -16v-125h-231q-21 0 -26.5 -6.5t-5.5 -25.5v-46l226 -8v-121l-226 -7v-44
q0 -26 17 -31q7 -1 19 -1h227v-125zM208.5 170q18.5 -26 78.5 -26q38 0 57 10q41 20 41 133q0 49 -4 76t-17 41.5t-29 18t-43.5 3.5t-40.5 -2t-26.5 -10t-19.5 -23q-15 -34 -15 -114.5t18.5 -106.5z" />
    <glyph glyph-name="ydieresis.smcp" horiz-adv-x="602" 
d="M130.5 648.5q-18.5 18.5 -18.5 39.5t9 35q18 31 48.5 31t48.5 -18t18 -39.5t-8 -35.5q-18 -31 -48.5 -31t-49 18.5zM368 692.5q0 25.5 18 43.5t43.5 18t43.5 -18t18 -43.5t-18 -44t-43.5 -18.5t-43.5 18.5t-18 44zM385 -1h-164v199l-197 372h178l102 -197l97 197h179
l-195 -372v-199z" />
    <glyph glyph-name="sterling.smcp" horiz-adv-x="513" 
d="M34 0v116l56 20v92h-56v86l56 16v38q0 202 204 203l186 -13v-134h-162q-40 0 -52 -12t-12 -46v-32l164 -15v-93h-164v-86h226v-140h-446z" />
    <glyph glyph-name="yen.smcp" horiz-adv-x="549" 
d="M468 258v-66h-111v-23h111v-65h-111v-104h-164v104h-103v65h103v23h-103v66h75l-152 313h175l85 -208l87 208h176l-153 -313h85z" />
    <glyph glyph-name="perthousand.smcp" horiz-adv-x="1381" 
d="M19 337v101q0 66 31.5 99t105.5 33h87q71 0 102.5 -33t31.5 -99v-101q0 -44 -13 -72q-27 -60 -123 -60h-87q-72 0 -103.5 33t-31.5 99zM129 360q0 -31 13 -38t30 -7h50q28 0 36.5 10.5t8.5 34.5v55q0 27 -9.5 36t-33.5 9h-50q-24 0 -34.5 -9.5t-10.5 -35.5v-55zM285 0
l280 570h111l-275 -570h-116zM586 134v101q0 66 32 99t106 33h86q71 0 102.5 -33t31.5 -99v-101q0 -66 -31.5 -99t-104.5 -33h-86q-95 0 -123 60q-13 29 -13 72zM696 157q0 -24 9 -34.5t35 -10.5h50q27 0 35.5 10.5t8.5 34.5v55q0 27 -9 36t-33 9h-50q-25 0 -35.5 -9
t-10.5 -36v-55zM998 134v101q0 66 31 99t104 33h88q71 0 102.5 -33t31.5 -99v-101q0 -66 -31.5 -99t-104.5 -33h-88q-71 0 -102 33t-31 99zM1107 157q0 -30 16 -39q10 -6 28 -6h49q27 0 36.5 11t9.5 34v55q0 27 -10 36t-34 9h-49q-25 0 -35.5 -9t-10.5 -36v-55z" />
    <glyph glyph-name="circumflex.smcp" horiz-adv-x="381" 
d="M34 531l104 137h116l94 -137h-101l-55 56l-56 -56h-102z" />
    <glyph glyph-name="tilde.smcp" horiz-adv-x="412" 
d="M266 628q43 0 88 39l25 -66q-56 -70 -112 -70q-24 0 -60 17.5t-59 17.5t-41.5 -8t-47.5 -27l-25 61q58 71 121 71q24 0 56 -18q33 -17 55 -17z" />
    <glyph glyph-name="ring.smcp" horiz-adv-x="269" 
d="M34 632q0 43 29.5 73t64.5 30t58 -14t36.5 -37.5t13.5 -59t-29.5 -65t-71.5 -29.5t-71.5 29.5t-29.5 72.5zM96 632q0 -16 11.5 -27t28 -11t27.5 11t11 27t-11.5 27.5t-27.5 11.5t-27.5 -11.5t-11.5 -27.5z" />
    <glyph glyph-name="hbar.smcp" horiz-adv-x="643" 
d="M29 406v66h53v98h164v-98h161v98h164v-98h48v-66h-48v-407h-164v202h-161v-202h-164v407h-53zM246 350h161v56h-161v-56z" />
    <glyph glyph-name="hcircumflex.smcp" horiz-adv-x="582" 
d="M140 630l104 138h116l94 -138h-101l-54 56l-57 -56h-102zM54 -1v571h164v-220h161v220h164v-571h-164v201h-161v-201h-164z" />
    <glyph glyph-name="gbreve.smcp" horiz-adv-x="563" 
d="M190 755h62q0 -24 14 -38t38 -14q54 0 54 52h62q0 -35 -15 -61q-31 -53 -101 -53q-50 0 -82 31.5t-32 82.5zM37 270v16q0 146 43 217t155 76q25 1 52 1q150 0 227 -26v-114q-104 12 -168 12t-79.5 -2.5t-30.5 -11t-21 -26.5q-14 -40 -14 -124v-16t0.5 -24t2.5 -30t7 -30
t13 -23q16 -24 52 -24t59.5 12.5t28.5 32.5v47h-74v87q64 17 170 17q31 0 68 -3v-334h-124l-38 44q-22 -27 -53 -39t-78 -12t-78.5 13t-51 32t-33.5 49t-21 53q-12 46 -13 80.5t-1 49.5z" />
    <glyph glyph-name="jcircumflex.smcp" horiz-adv-x="337" 
d="M55 630l104 138h116l94 -138h-101l-54 56l-57 -56h-102zM236 16q-49 -21 -108.5 -21t-103.5 26l1 129h31t42 6.5t28 21.5t8 47v345h164v-405q0 -119 -62 -149z" />
    <glyph glyph-name="cdotaccent.smcp" horiz-adv-x="512" 
d="M233 666v84q0 25 24 25h80q23 0 23 -25v-84q0 -23 -23 -23h-80q-24 0 -24 23zM37 295q0 141 49.5 212t185 71t218.5 -32v-112q-21 4 -80 11t-95.5 7t-56.5 -7t-31.5 -17.5t-17.5 -32.5q-8 -33 -8 -69v-51.5v-26t1 -28t4 -27t8 -22.5t13 -20t19 -15q20 -13 59 -13
q73 0 157 12l28 4v-109q-49 -22 -94.5 -28t-125 -6t-126.5 22t-69.5 66.5t-30 92t-7.5 118.5z" />
    <glyph glyph-name="ccircumflex.smcp" horiz-adv-x="512" 
d="M131 643l104 137h116l94 -137h-101l-54 56l-57 -56h-102zM37 295q0 141 49.5 212t185 71t218.5 -32v-112q-21 4 -80 11t-95.5 7t-56.5 -7t-31.5 -17.5t-17.5 -32.5q-8 -33 -8 -69v-51.5v-26t1 -28t4 -27t8 -22.5t13 -20t19 -15q20 -13 59 -13q73 0 157 12l28 4v-109
q-49 -22 -94.5 -28t-125 -6t-126.5 22t-69.5 66.5t-30 92t-7.5 118.5z" />
    <glyph glyph-name="gdotaccent.smcp" horiz-adv-x="563" 
d="M231 664v84q0 24 24 24h80q11 0 17 -7t6 -17v-84q0 -24 -23 -24h-80q-10 0 -17 6.5t-7 17.5zM37 270v16q0 146 43 217t155 76q25 1 52 1q150 0 227 -26v-114q-104 12 -168 12t-79.5 -2.5t-30.5 -11t-21 -26.5q-14 -40 -14 -124v-16t0.5 -24t2.5 -30t7 -30t13 -23
q16 -24 52 -24t59.5 12.5t28.5 32.5v47h-74v87q64 17 170 17q31 0 68 -3v-334h-124l-38 44q-22 -27 -53 -39t-78 -12t-78.5 13t-51 32t-33.5 49t-21 53q-12 46 -13 80.5t-1 49.5z" />
    <glyph glyph-name="gcircumflex.smcp" horiz-adv-x="563" 
d="M142 640l104 138h116l94 -138h-101l-55 56l-56 -56h-102zM37 270v16q0 146 43 217t155 76q25 1 52 1q150 0 227 -26v-114q-104 12 -168 12t-79.5 -2.5t-30.5 -11t-21 -26.5q-14 -40 -14 -124v-16t0.5 -24t2.5 -30t7 -30t13 -23q16 -24 52 -24t59.5 12.5t28.5 32.5v47h-74
v87q64 17 170 17q31 0 68 -3v-334h-124l-38 44q-22 -27 -53 -39t-78 -12t-78.5 13t-51 32t-33.5 49t-21 53q-12 46 -13 80.5t-1 49.5z" />
    <glyph glyph-name="ubreve.smcp" horiz-adv-x="596" 
d="M190 744h62q0 -24 13.5 -38t38.5 -14q54 0 54 52h62q0 -52 -32.5 -83t-83 -31t-82.5 31.5t-32 82.5zM53 260v310h165v-310q0 -70 21 -93t66.5 -23t65.5 23.5t20 92.5v310h165v-310q0 -67 -15 -116.5t-37.5 -77.5t-57 -44.5t-66.5 -21.5t-75.5 -5t-76.5 4.5t-68.5 20
t-57.5 43.5q-49 64 -49 197z" />
    <glyph glyph-name="scircumflex.smcp" horiz-adv-x="541" 
d="M111 634l104 138h116l94 -138h-101l-54 56l-57 -56h-102zM37 366v43q0 164 161 164q56 0 140.5 -5.5t139.5 -18.5v-117q-133 8 -243 8q-34 0 -34 -35v-23q0 -19 7.5 -25t26.5 -6h125q85 0 117 -50q28 -43 28 -113v-40q0 -158 -145 -158q-259 0 -301 25v115q147 -6 249 -6
q12 0 20.5 7t12.5 21v28q0 16 -8 22.5t-25 6.5h-118q-84 0 -118.5 40.5t-34.5 116.5z" />
    <glyph glyph-name="Idotaccent.smcp" horiz-adv-x="238" 
d="M37 0v570h164v-570h-164zM57 656v84q0 25 24 25h80q23 0 23 -25v-84q0 -23 -23 -23h-80q-24 0 -24 23z" />
    <glyph glyph-name="periodcentered.smcp" horiz-adv-x="260" 
d="M60 241v102q0 25 24 25h98q25 0 25 -25v-102q0 -23 -25 -23h-98q-11 0 -17.5 6.5t-6.5 16.5z" />
    <glyph glyph-name="bullet.smcp" horiz-adv-x="308" 
d="M57 256v132q0 35 33 35h127q35 0 35 -35v-132q0 -32 -35 -32h-127q-15 0 -24 8.5t-9 23.5z" />
    <glyph glyph-name="quoteleft.smcp" horiz-adv-x="257" 
d="M53 481q0 100 112 100q10 0 18 -2l15 -2v-64v0q-33 0 -33 -33v-18h12q26 0 26 -26v-102q0 -29 -26 -29h-99q-25 0 -25 29v147z" />
    <glyph glyph-name="quoteright.smcp" horiz-adv-x="257" 
d="M203 404q0 -100 -112 -100q-10 0 -18 2l-15 2v64h1q32 0 32 32v20h-12q-12 0 -19 6.5t-7 19.5v102q0 28 26 28h99q25 0 25 -28v-148z" />
    <glyph glyph-name="uni1E03.smcp" horiz-adv-x="549" 
d="M218 654v84q0 25 24 25h80q11 0 17.5 -7t6.5 -18v-84q0 -23 -24 -23h-80q-10 0 -17 6.5t-7 16.5zM54 0v571h271q95 0 143.5 -37t48.5 -116q0 -87 -52 -116q-15 -9 -33 -11q37 -7 62.5 -39.5t25.5 -89.5q0 -89 -48 -125.5t-147 -36.5h-271zM218 135h92q20 0 32 10t12 42
q0 52 -43 52h-66h-27v-104zM218 351h92q25 0 34 10t9 35q0 41 -43 41h-92v-86z" />
    <glyph glyph-name="uni1E0B.smcp" horiz-adv-x="586" 
d="M220 655v84q0 25 24 25h80q10 0 16 -7t6 -18v-84q0 -23 -22 -23h-80q-11 0 -17.5 6.5t-6.5 16.5zM341 0h-10h-277v572h277q148 -2 194 -124q25 -66 25 -165q0 -137 -37 -199q-12 -22 -23.5 -36t-29 -23.5t-30.5 -14.5q-26 -10 -89 -10zM218 142h92q48 0 63 43
q13 37 13 87.5t-5 79t-15 45.5q-19 33 -56 33h-92v-288z" />
    <glyph glyph-name="uni1E1F.smcp" horiz-adv-x="511" 
d="M207 654v84q0 25 24 25h80q11 0 17 -7t6 -18v-84q0 -23 -23 -23h-80q-11 0 -17.5 6.5t-6.5 16.5zM54 0v451q0 117 134 120q225 -3 294 -16v-125h-232q-21 0 -26.5 -6.5t-5.5 -25.5v-62l226 -8v-120l-226 -8v-200h-164z" />
    <glyph glyph-name="uni1E41.smcp" horiz-adv-x="776" 
d="M320 654v84q0 25 24 25h80q11 0 17 -7t6 -18v-84q0 -23 -23 -23h-80q-11 0 -17.5 6.5t-6.5 16.5zM37 0l53 571h214l86 -346l84 346h214l52 -571h-161l-33 330l-70 -330h-170l-72 329l-32 -329h-165z" />
    <glyph glyph-name="wgrave.smcp" horiz-adv-x="849" 
d="M254 771h133l84 -141h-99zM24 570h171l90 -373l83 373h170l-40 -148l76 -225l84 373h169l-152 -570h-201l-45 143l-41 -143h-203z" />
    <glyph glyph-name="uni1E57.smcp" horiz-adv-x="530" 
d="M206 652v84q0 25 24 25h80q11 0 17 -7t6 -18v-84q0 -23 -23 -23h-80q-10 0 -17 6.5t-7 16.5zM40 0v569h279q86 0 134 -41.5t48 -143.5q0 -52 -11.5 -90t-28 -58.5t-41.5 -31.5q-38 -19 -90 -19q-37 0 -80.5 5.5t-44.5 7.5v-198h-165zM205 304h89q14 0 23 5q20 11 20 63
q0 63 -43 63h-89v-131z" />
    <glyph glyph-name="wacute.smcp" horiz-adv-x="849" 
d="M372 630l85 141h132l-118 -141h-99zM24 570h171l90 -373l83 373h170l-40 -148l76 -225l84 373h169l-152 -570h-201l-45 143l-41 -143h-203z" />
    <glyph glyph-name="ygrave.smcp" horiz-adv-x="602" 
d="M128 770h133l85 -140h-100zM385 -1h-164v199l-197 372h178l102 -197l97 197h179l-195 -372v-199z" />
    <glyph glyph-name="wdieresis.smcp" horiz-adv-x="849" 
d="M234 692.5q0 25.5 18 43.5t43.5 18t43.5 -18t18 -43.5t-18 -44t-43.5 -18.5t-43.5 18.5t-18 44zM506.5 648.5q-18.5 18.5 -18.5 39.5t9 35q18 31 48.5 31t48.5 -18t18 -37t-5 -30.5t-13 -19.5q-18 -19 -43.5 -19t-44 18.5zM24 570h171l90 -373l83 373h170l-40 -148
l76 -225l84 373h169l-152 -570h-201l-45 143l-41 -143h-203z" />
    <glyph glyph-name="uni1E61.smcp" horiz-adv-x="541" 
d="M214 656v84q0 25 24 25h80q11 0 17.5 -7t6.5 -18v-84q0 -23 -24 -23h-80q-10 0 -17 6.5t-7 16.5zM37 366v43q0 164 161 164q56 0 140.5 -5.5t139.5 -18.5v-117q-133 8 -243 8q-34 0 -34 -35v-23q0 -19 7.5 -25t26.5 -6h125q85 0 117 -50q28 -43 28 -113v-40
q0 -158 -145 -158q-259 0 -301 25v115q147 -6 249 -6q12 0 20.5 7t12.5 21v28q0 16 -8 22.5t-25 6.5h-118q-84 0 -118.5 40.5t-34.5 116.5z" />
    <glyph glyph-name="wcircumflex.smcp" horiz-adv-x="849" 
d="M277 630l104 138h116l95 -138h-102l-54 56l-57 -56h-102zM24 570h171l90 -373l83 373h170l-40 -148l76 -225l84 373h169l-152 -570h-201l-45 143l-41 -143h-203z" />
    <glyph glyph-name="uni1E6B.smcp" horiz-adv-x="522" 
d="M198 653v84q0 25 24 25h80q11 0 17 -7t6 -18v-84q0 -23 -23 -23h-80q-11 0 -17.5 6.5t-6.5 16.5zM24 421v149h476v-149h-156v-421h-164v421h-156z" />
    <glyph glyph-name="ycircumflex.smcp" horiz-adv-x="602" 
d="M150 630l105 138h116l94 -138h-101l-54 56l-58 -56h-102zM385 -1h-164v199l-197 372h178l102 -197l97 197h179l-195 -372v-199z" />
    <glyph glyph-name="c_k" horiz-adv-x="1089" 
d="M1076 531l-213 -212l213 -319h-191l-141 214q-33 -27 -35 -29v-185h-164v77q-136 -84 -253 -84q-140 0 -194 49q-49 45 -63 124q-9 44 -9 112t13 122.5t38 83.5q45 55 125 55q157 0 251 -34v-99q-81 6 -135.5 6t-64.5 -0.5t-23 -5t-18.5 -13.5t-11.5 -25q-10 -27 -10 -87
t3 -84t13.5 -43.5t30.5 -26.5t55 -7q91 0 253 124v538h164v-400l154 150z" />
    <glyph glyph-name="N.salt" horiz-adv-x="727" 
d="M54 0v590q0 47 24 81q47 69 149 69q86 0 138 -54q28 -30 34 -71l101 -458q2 -14 13 -11.5t11 14.5v572h164v-588q0 -44 -24 -78q-50 -71 -153 -71q-83 0 -131 54q-28 32 -35 78l-101 463q-2 7 -8 8.5t-11.5 -3t-5.5 -12.5v-583h-165z" />
    <glyph glyph-name="M.salt" horiz-adv-x="879" 
d="M364 676q24 -31 26 -72l30 -282q2 -14 15.5 -13t14.5 13l28 285q3 78 86 114q34 15 82 15q67 0 115 -35q42 -29 44 -79l39 -622h-166l-27 535q0 8 -6.5 10.5t-13 -1.5t-6.5 -12l-30 -269q-4 -38 -36.5 -64.5t-66 -31.5t-55.5 -5q-76 0 -114 31.5t-42 72.5l-34 274
q-1 14 -13 9.5t-13 -16.5l-21 -533h-163l32 613q1 39 25 67q46 54 135 54t135 -58z" />
    <glyph glyph-name="uni1E40.salt" horiz-adv-x="879" 
d="M368 821v84q0 25 24 25h80q10 0 16 -7t6 -18v-84q0 -23 -22 -23h-80q-11 0 -17.5 6t-6.5 17zM364 676q24 -31 26 -72l30 -282q2 -14 15.5 -13t14.5 13l28 285q3 78 86 114q34 15 82 15q67 0 115 -35q42 -29 44 -79l39 -622h-166l-27 535q0 8 -6.5 10.5t-13 -1.5t-6.5 -12
l-30 -269q-4 -38 -36.5 -64.5t-66 -31.5t-55.5 -5q-76 0 -114 31.5t-42 72.5l-34 274q-1 14 -13 9.5t-13 -16.5l-21 -533h-163l32 613q1 39 25 67q46 54 135 54t135 -58z" />
    <glyph glyph-name="Ntilde.salt" horiz-adv-x="727" 
d="M440 897q44 0 88 39l25 -66q-55 -70 -112 -70q-19 0 -40 9t-39.5 17.5t-40 8.5t-40.5 -8t-48 -27l-25 60q58 72 122 72q23 0 56 -18q33 -17 54 -17zM54 0v590q0 47 24 81q47 69 149 69q86 0 138 -54q28 -30 34 -71l101 -458q2 -14 13 -11.5t11 14.5v572h164v-588
q0 -44 -24 -78q-50 -71 -153 -71q-83 0 -131 54q-28 32 -35 78l-101 463q-2 7 -8 8.5t-11.5 -3t-5.5 -12.5v-583h-165z" />
    <glyph glyph-name="Nacute.salt" horiz-adv-x="727" 
d="M309 800l84 140h133l-118 -140h-99zM54 0v590q0 47 24 81q47 69 149 69q86 0 138 -54q28 -30 34 -71l101 -458q2 -14 13 -11.5t11 14.5v572h164v-588q0 -44 -24 -78q-50 -71 -153 -71q-83 0 -131 54q-28 32 -35 78l-101 463q-2 7 -8 8.5t-11.5 -3t-5.5 -12.5v-583h-165z
" />
    <glyph glyph-name="Ncaron.salt" horiz-adv-x="727" 
d="M227 938h101l57 -56l55 56h102l-102 -138h-116zM54 0v590q0 47 24 81q47 69 149 69q86 0 138 -54q28 -30 34 -71l101 -458q2 -14 13 -11.5t11 14.5v572h164v-588q0 -44 -24 -78q-50 -71 -153 -71q-83 0 -131 54q-28 32 -35 78l-101 463q-2 7 -8 8.5t-11.5 -3t-5.5 -12.5
v-583h-165z" />
    <glyph glyph-name="Ncommaaccent.salt" horiz-adv-x="727" 
d="M352 -299q-28 0 -50 6v49q24 -1 27 11q1 4 1 10v9h-10q-22 0 -22 22v90q0 24 22 24h87q21 0 21 -24v-122q0 -43 -25 -60q-23 -15 -50 -15h-1zM54 0v590q0 47 24 81q47 69 149 69q86 0 138 -54q28 -30 34 -71l101 -458q2 -14 13 -11.5t11 14.5v572h164v-588q0 -44 -24 -78
q-50 -71 -153 -71q-83 0 -131 54q-28 32 -35 78l-101 463q-2 7 -8 8.5t-11.5 -3t-5.5 -12.5v-583h-165z" />
    <glyph glyph-name="zero.numerator" horiz-adv-x="463" 
d="M40 378v233q0 63 35 95.5t101 32.5h118q130 0 130 -123v-238q0 -61 -34 -92t-96 -31h-119q-135 0 -135 123zM166 408q0 -24 11 -31.5t32 -7.5h48q23 0 32.5 7.5t9.5 30.5v180q0 21 -9 29.5t-29 8.5h-56q-30 0 -36 -15q-3 -10 -3 -23v-179z" />
    <glyph glyph-name="one.numerator" horiz-adv-x="270" 
d="M227 740v-485h-125v376l-91 -19v72l93 56h123z" />
    <glyph glyph-name="two.numerator" horiz-adv-x="409" 
d="M21 632q-1 0 -1 27.5t1 43.5v23q103 20 207 20q77 0 115.5 -40t38.5 -108q0 -99 -167 -229h167v-114h-358v109q63 41 121 87q111 90 111 134q0 28 -17 37.5t-61 9.5h-157z" />
    <glyph glyph-name="three.numerator" horiz-adv-x="414" 
d="M200 250q-120 0 -176 21l1 93h156q41 0 55 6t14 26v9q0 20 -15.5 27t-49.5 8l-119 5v100l119 8q37 1 51.5 7.5t14.5 25.5v10q0 19 -16.5 25.5t-49.5 6.5h-165v93q57 21 155 21q33 0 69 -1q60 0 95 -33t35 -89v-28q0 -75 -59 -95q59 -20 59 -101v-21q0 -80 -60 -109
q-31 -15 -75 -15h-39z" />
    <glyph glyph-name="four.numerator" horiz-adv-x="440" 
d="M261 462v96l23 50h102v-146h44v-97l-44 -6v-102h-125v88h-227l-23 55l157 339h130l-124 -277h87z" />
    <glyph glyph-name="five.numerator" horiz-adv-x="418" 
d="M37 368h187q31 0 36 9q7 11 7 25v25q0 17 -7.5 26.5t-29.5 9.5h-51q-34 0 -34 -37h-107l15 313h318v-114h-209l-4 -70q25 17 79 17q17 0 36 -1q60 -4 89.5 -39t29.5 -91v-64q0 -92 -85 -118q-23 -7 -73 -7q-101 0 -197 17v99z" />
    <glyph glyph-name="six.numerator" horiz-adv-x="438" 
d="M113.5 729q20.5 11 49 15t82.5 4t149 -20v-95h-168q-50 0 -60 -40q-5 -18 -5 -49q42 16 118 16t104 -32t28 -90v-65q0 -118 -131 -118h-102q-34 0 -58 11q-57 24 -74 116q-10 50 -10 121.5t10 118t28.5 71.5t39 36zM161 452q0 -41 11.5 -62t45.5 -21h34q19 0 26.5 6.5
t7.5 22.5v23q0 19 -5.5 25t-24.5 6h-95z" />
    <glyph glyph-name="seven.numerator" horiz-adv-x="409" 
d="M10 626v114h357l32 -52l-184 -433h-136l157 371h-226z" />
    <glyph glyph-name="eight.numerator" horiz-adv-x="463" 
d="M44 370v41q0 29 14 50t42 25q-35 16 -45.5 39t-10.5 60v42q0 116 136 116h113q84 0 112 -47q15 -26 15 -68v-31q0 -32 -16.5 -52.5t-37.5 -23.5q42 -7 51 -68q3 -13 3 -26v-53q0 -74 -39 -98q-33 -21 -87 -21h-115q-63 0 -92 20q-30 21 -35 40q-8 29 -8 55zM169 392
q0 -16 8 -22.5t28 -6.5h55q20 0 27 7t7 22v28q0 16 -7 23.5t-27 7.5h-55q-21 0 -28.5 -7t-7.5 -24v-28zM169 584q0 -18 8.5 -24.5t27.5 -6.5h54q23 0 29 7.5t6 23.5v19q0 20 -9 26.5t-27 6.5h-51q-27 0 -32.5 -9.5t-5.5 -23.5v-19z" />
    <glyph glyph-name="nine.numerator" horiz-adv-x="438" 
d="M30 561v65q0 120 131 120h102q34 0 58 -10q57 -26 74 -119q10 -52 10 -124.5t-10 -119.5t-29 -72q-32 -45 -86 -52q-32 -4 -87 -4t-145 18v96h167q50 0 60 41q5 19 5 52q-42 -15 -118 -15t-104 32.5t-28 91.5zM155 578q0 -20 6 -26.5t25 -6.5h94q0 44 -11 66t-45 22h-36
q-18 0 -25.5 -7t-7.5 -25v-23z" />
    <glyph glyph-name="zero.denominator" horiz-adv-x="463" 
d="M40 124v232q0 63 35 95.5t101 32.5h118q130 0 130 -124v-236q0 -62 -34 -93t-96 -31h-119q-135 0 -135 124zM166 153q0 -24 11 -31.5t32 -7.5h48q23 0 32.5 7.5t9.5 30.5v180q0 21 -9 29.5t-29 8.5h-56q-30 0 -36 -15q-3 -10 -3 -23v-179z" />
    <glyph glyph-name="one.denominator" horiz-adv-x="270" 
d="M227 484v-484h-125v376l-91 -18v72l93 54h123z" />
    <glyph glyph-name="two.denominator" horiz-adv-x="409" 
d="M21 378q-1 0 -1 27t1 43v23q103 20 207 20q52 0 87 -19q67 -37 67 -132.5t-167 -225.5h167v-114h-358v110q63 42 121 90q111 93 111 137q0 24 -17.5 32.5t-60.5 8.5h-157z" />
    <glyph glyph-name="three.denominator" horiz-adv-x="414" 
d="M200 -5q-120 0 -176 21l1 93h156q51 0 60 9t9 23v9q0 20 -15.5 27t-49.5 8l-119 5v100l119 8q37 1 51.5 7.5t14.5 25.5v9q0 19 -16.5 26t-49.5 7h-165v92q58 22 190 22q17 0 34 -1q60 0 95 -33t35 -89v-28q0 -75 -59 -95q59 -20 59 -101v-21q0 -80 -60 -109
q-31 -14 -75 -14z" />
    <glyph glyph-name="four.denominator" horiz-adv-x="440" 
d="M261 207v95l23 51h102v-146h44v-97l-44 -20v-88h-125v88h-227l-23 56l157 338h130l-124 -277h87z" />
    <glyph glyph-name="five.denominator" horiz-adv-x="418" 
d="M37 113h187q31 0 36 8q7 11 7 25v24q0 16 -7.5 25t-29.5 9h-51q-34 0 -34 -24h-107l15 304h318v-114h-209l-4 -74q24 18 78 18q17 0 37 -2q60 -3 89.5 -37.5t29.5 -90.5v-64q0 -62 -39 -92.5t-104 -30.5t-106 2.5t-106 14.5v99z" />
    <glyph glyph-name="six.denominator" horiz-adv-x="438" 
d="M113.5 472.5q20.5 11.5 49 15t83 3.5t148.5 -17v-96h-168q-32 0 -42 -10.5t-14 -17.5t-6 -19q-3 -18 -3 -42q42 16 118 16t104 -32t28 -90v-65q0 -118 -131 -118h-102q-34 0 -58 11q-57 24 -74 115q-10 51 -10 122t10 117.5t28.5 71t39 36zM161 197q0 -41 11.5 -62
t45.5 -21h34q19 0 26.5 6.5t7.5 22.5v23q0 19 -5.5 25t-24.5 6h-95z" />
    <glyph glyph-name="seven.denominator" horiz-adv-x="409" 
d="M10 371v113h357l32 -52l-184 -432h-137l158 371h-226z" />
    <glyph glyph-name="eight.denominator" horiz-adv-x="463" 
d="M44 115v41q0 47 31 67q11 7 25 9q-38 16 -48 43q-8 22 -8 55v42q0 116 136 116h113q84 0 112 -47q15 -26 15 -67v-32q0 -32 -16.5 -52t-37.5 -23q42 -8 51 -68q3 -13 3 -26v-53q0 -75 -39 -99q-33 -21 -87 -21h-115q-99 0 -124 55q-11 25 -11 60zM169 137q0 -16 8 -22.5
t28 -6.5h55q20 0 27 7t7 22v28q0 31 -34 31h-55q-21 0 -28.5 -7t-7.5 -24v-28zM169 328q0 -17 8.5 -23.5t27.5 -6.5h54q23 0 29 7.5t6 22.5v20q0 20 -9 26t-27 6h-51q-27 0 -32.5 -9t-5.5 -23v-20z" />
    <glyph glyph-name="nine.denominator" horiz-adv-x="438" 
d="M30 302v65q0 119 131 119h102q86 0 117 -74q25 -60 25 -178q0 -132 -39 -183q-32 -44 -86 -51q-28 -4 -81 -4t-151 12v96h167q50 0 60 40q5 19 5 50q-40 -15 -99.5 -15t-85.5 9t-40 27q-25 32 -25 87zM155 319q0 -20 6 -26.5t25 -6.5h94q0 43 -11.5 64.5t-44.5 21.5h-36
q-18 0 -25.5 -6.5t-7.5 -23.5v-23z" />
    <glyph glyph-name="c_h" horiz-adv-x="1061" 
d="M387 -10l-138 3h-23.5t-46 6t-57 23.5t-49.5 46.5q-47 66 -47 197q0 156 51 216q45 54 125 54q157 0 251 -34v-98q-81 6 -134 6t-62 -0.5t-21 -3t-17.5 -8.5t-12 -16.5t-9.5 -26.5q-7 -40 -7 -97t11.5 -88.5t31.5 -40.5t74 -9t86 1t70 7t52 19q35 33 35 98v537h163v-306
q22 19 39 31t49.5 22.5t75 10.5t74.5 -14.5t49 -42.5q29 -50 29 -135v-348h-164v350q0 46 -22 58q-10 6 -25 6q-67 0 -104 -42v-141q0 -122 -68 -178q-58 -48 -159 -58q-41 -5 -100 -5z" />
    <glyph glyph-name="m.salt" horiz-adv-x="864" 
d="M40 0v468q71 46 127.5 59t172.5 13q53 0 86.5 -14.5t46.5 -26.5q88 41 203 41q76 0 116 -48t40 -122v-370h-164v340q0 35 -7 47q-13 19 -43 19t-53.5 -5.5t-46.5 -24.5q2 -6 2 -30v-346h-164v340q0 36 -11 51t-40.5 15t-53 -5.5t-47.5 -24.5v-376h-164z" />
    <glyph glyph-name="n.salt" 
d="M40 0v468q70 45 130 58.5t178 13.5q78 0 125 -48.5t47 -121.5v-370h-164v340q0 36 -11 51t-40.5 15t-53 -5.5t-47.5 -24.5v-376h-164z" />
    <glyph glyph-name="ntilde.salt" 
d="M340 697q43 0 88 39l25 -66q-56 -70 -112 -70q-24 0 -60 17.5t-59 17.5t-41.5 -8t-47.5 -27l-26 60q59 72 122 72q24 0 56 -18q33 -17 55 -17zM40 0v468q70 45 130 58.5t178 13.5q78 0 125 -48.5t47 -121.5v-370h-164v340q0 36 -11 51t-40.5 15t-53 -5.5t-47.5 -24.5
v-376h-164z" />
    <glyph glyph-name="ncommaaccent.salt" 
d="M224 -186v89q0 24 22 24h86q22 0 22 -24v-121q0 -30 -13 -48t-31 -22q-21 -5 -39.5 -5t-29.5 2l-13 3v49q23 0 27 11q1 4 1 10v10h-10q-22 0 -22 22zM40 0v468q70 45 130 58.5t178 13.5q78 0 125 -48.5t47 -121.5v-370h-164v340q0 36 -11 51t-40.5 15t-53 -5.5
t-47.5 -24.5v-376h-164z" />
    <glyph glyph-name="ncaron.salt" 
d="M140 738h101l57 -56l55 56h101l-100 -138h-116zM40 0v468q70 45 130 58.5t178 13.5q78 0 125 -48.5t47 -121.5v-370h-164v340q0 36 -11 51t-40.5 15t-53 -5.5t-47.5 -24.5v-376h-164z" />
    <glyph glyph-name="nacute.salt" 
d="M238 600l84 140h133l-118 -140h-99zM40 0v468q70 45 130 58.5t178 13.5q78 0 125 -48.5t47 -121.5v-370h-164v340q0 36 -11 51t-40.5 15t-53 -5.5t-47.5 -24.5v-376h-164z" />
    <glyph glyph-name="uni1E41.salt" horiz-adv-x="864" 
d="M391 623v84q0 25 24 25h80q11 0 17 -7t6 -18v-84q0 -23 -23 -23h-80q-10 0 -17 6.5t-7 16.5zM40 0v468q71 46 127.5 59t172.5 13q53 0 86.5 -14.5t46.5 -26.5q88 41 203 41q76 0 116 -48t40 -122v-370h-164v340q0 35 -7 47q-13 19 -43 19t-53.5 -5.5t-46.5 -24.5
q2 -6 2 -30v-346h-164v340q0 36 -11 51t-40.5 15t-53 -5.5t-47.5 -24.5v-376h-164z" />
    <glyph glyph-name="r.salt" horiz-adv-x="410" 
d="M40 0v476q58 46 144 59q47 8 101.5 8t111.5 -5v-142q-46 8 -96.5 8t-96.5 -20v-384h-164z" />
    <glyph glyph-name="racute.salt" horiz-adv-x="410" 
d="M180 603l84 140h132l-118 -140h-98zM40 0v476q58 46 144 59q47 8 101.5 8t111.5 -5v-142q-46 8 -96.5 8t-96.5 -20v-384h-164z" />
    <glyph glyph-name="rcaron.salt" horiz-adv-x="410" 
d="M84 740h101l57 -56l55 56h101l-100 -137h-116zM40 0v476q58 46 144 59q47 8 101.5 8t111.5 -5v-142q-46 8 -96.5 8t-96.5 -20v-384h-164z" />
    <glyph glyph-name="rcommaaccent.salt" horiz-adv-x="410" 
d="M62 -186v89q0 24 23 24h86q22 0 22 -24v-121q0 -30 -13 -48t-32 -22q-20 -5 -38.5 -5t-29.5 2l-13 3v49q23 0 26 11q1 4 1 10v10h-9q-23 0 -23 22zM34 0v476q58 46 144 59q47 8 101.5 8t111.5 -5v-142q-46 8 -96.5 8t-96.5 -20v-384h-164z" />
    <glyph glyph-name="x.salt" horiz-adv-x="598" 
d="M140 271.5q0 17.5 -20 54.5l-107 205h175l87 -171q12 -18 12 -91.5t-7 -83.5l-92 -185h-175l111 222q16 32 16 49.5zM318 185q-6 10 -6 41q0 119 11 134l87 171h175l-107 -205q-20 -37 -20 -54.5t16 -49.5l111 -222h-175z" />
    <glyph glyph-name="X.salt" horiz-adv-x="672" 
d="M154 305q18 40 18 54t-2 27q-2 20 -26 71l-131 275h171l128 -245q11 -18 11 -114t-6 -106l-125 -267h-179zM355 267q-5 9 -5 48q0 154 10 172l128 245h172l-131 -275q-28 -60 -28 -84t18 -68l141 -305h-179z" />
    <glyph glyph-name="a.salt" horiz-adv-x="533" 
d="M34 146v34q0 61 17 89q18 28 43 38q45 17 106 17h136q0 33 -4 50q-7 34 -48 39q-17 2 -34.5 2h-56t-149.5 -12v97q73 25 120.5 31t94 6h49.5q94 0 139 -47q39 -40 48 -133q5 -39 5 -95v-91q0 -89 -38 -130t-118 -41h-144q-78 0 -122 33t-44 113zM198 161q0 -24 5 -31
q10 -11 36 -11h51q33 0 41 18q5 10 5 28v63l-98 -6q-31 -3 -37 -20q-3 -8 -3 -22v-19z" />
    </font>
</defs>
</svg>
