<?xml version="1.0" standalone="no"?>
<!DOCTYPE svg PUBLIC "-//W3C//DTD SVG 1.1//EN" "http://www.w3.org/Graphics/SVG/1.1/DTD/svg11.dtd" >
<svg xmlns="http://www.w3.org/2000/svg" xmlns:xlink="http://www.w3.org/1999/xlink" version="1.1">
<metadata>
Created by FontForge 20170731 at Tue Jul 16 18:01:11 2013
 By Aleksey,,,
Copyright (c) 2012 Kemie Guaida (www.pixilate.com), with Reserved Font Name "Bellota".  Based on "Snippet" by Gesine Todt. This Font Software is licensed under the SIL Open Font License, Version 1.1. This license is available with a FAQ at: http://scripts.sil.org/OFL
</metadata>
<defs>
<font id="Bellota-Bold" horiz-adv-x="621" >
  <font-face 
    font-family="Bellota"
    font-weight="700"
    font-stretch="normal"
    units-per-em="1000"
    panose-1="2 1 5 3 4 0 0 2 0 4"
    ascent="800"
    descent="-200"
    x-height="506"
    cap-height="686"
    bbox="-104 -304 1248 1132"
    underline-thickness="50"
    underline-position="-200"
    unicode-range="U+0020-1F330"
  />
<missing-glyph horiz-adv-x="500" 
d="M0 0v700h500v-700h-500zM250 395l170 255h-340zM280 350l170 -255v510zM80 50h340l-170 255zM50 605v-510l170 255z" />
    <glyph glyph-name="fi" unicode="fi" horiz-adv-x="529" 
d="M54 -253v712q0 113 34 172q44 76 130 76q85 0 126 -62l-57 -58q-22 46 -69 46q-50 0 -69 -49v-1q-19 -39 -19 -121v-4h261v-369q0 -8 7 -15q7 -8 15 -8q9 0 13 3.5t11 15.5l64 -41q-15 -28 -41 -42h1q-20 -12 -48 -12q-42 0 -70 28q-28 30 -28 71v296h-185v-638h-76z" />
    <glyph glyph-name="fl" unicode="fl" horiz-adv-x="550" 
d="M64 -255v712q0 109 34 172q43 76 141 76q54 0 94 -24.5t55 -66.5q8 -24 10 -53v-471q0 -9 6 -15q8 -8 16 -8q13 0 24 19l64 -41q-15 -28 -41 -42q-24 -12 -47 -12q-42 0 -70 28q-28 30 -28 71v469q-3 72 -81 72q-49 0 -73 -32q-26 -36 -28 -99v-234h144v-73h-144v-448
h-76z" />
    <glyph glyph-name="f_f" unicode="ff" horiz-adv-x="644" 
d="M54 -255v712q0 110 34 172q46 82 142 82q68 0 118 -41q40 32 98 32q32 0 66 -12q42 -16 64 -55.5t22 -88.5q0 -86 -55 -141q-55 -53 -151 -53h-35v-86h144v-73h-144v-448h-76v448h-151v-448h-76zM281 266v191q0 91 22 148q-25 33 -72 33q-56 0 -82 -57q-19 -39 -19 -121
v-194h151zM357 425h35q66 0 99 39q28 32 28 84q0 39 -19.5 59.5t-53.5 20.5q-50 0 -70 -46q-19 -39 -19 -122v-35z" />
    <glyph glyph-name="f_f_i" unicode="ffi" horiz-adv-x="752" 
d="M54 -253v712q0 113 34 172q44 76 141 76q69 0 113 -38q8 8 20 15q32 23 81 23q38 0 73.5 -18t51.5 -44l-59 -58q-5 19 -24.5 32.5t-43.5 13.5q-46 0 -69 -50q-18 -37 -18 -121v-3h260v-370q0 -8 7 -15q7 -8 16 -8q12 0 23 20l64 -42q-15 -28 -41 -42q-22 -12 -46 -12
q-43 0 -71 28q-28 30 -28 71v296h-184v-638h-77v638h-147v-638h-76zM277 458v1q0 49 8 94q1 8 6 28.5t5 22.5q-20 29 -69 29q-55 0 -78 -50q-19 -39 -19 -121v-4h147z" />
    <glyph glyph-name="f_f_l" unicode="ffl" horiz-adv-x="804" 
d="M56 -253v712q0 109 34 172q41 73 131 73q86 0 126 -59l-58 -58q-18 43 -66 43q-53 0 -73 -51q-18 -44 -18 -127v-186h184v201q0 113 32 167q42 68 132 68q67 0 111 -42q38 -40 40 -100v-470q0 -10 6 -16q7 -7 16 -7q11 0 18 9l16 4l54 -35q-14 -28 -42 -43
q-21 -11 -47 -11q-39 0 -69 28q-29 29 -29 71v468q-1 33 -21 51.5t-53 18.5q-43 0 -64.5 -30t-23.5 -80v-252h144v-73h-144v-448h-76v448h-184v-446h-76z" />
    <glyph glyph-name=".notdef" horiz-adv-x="500" 
d="M0 0v700h500v-700h-500zM250 395l170 255h-340zM280 350l170 -255v510zM80 50h340l-170 255zM50 605v-510l170 255z" />
    <glyph glyph-name=".null" horiz-adv-x="0" 
 />
    <glyph glyph-name="nonmarkingreturn" horiz-adv-x="333" 
 />
    <glyph glyph-name="space" unicode=" " horiz-adv-x="312" 
 />
    <glyph glyph-name="exclam" unicode="!" horiz-adv-x="213" 
d="M128 134h-73l-9 572h91zM85 93q21 0 37.5 -16t16.5 -37q0 -20 -16.5 -36t-37.5 -16q-20 0 -36 16t-16 36q0 21 16 37t36 16z" />
    <glyph glyph-name="quotedbl" unicode="&#x22;" horiz-adv-x="335" 
d="M269 478h-72l-11 209h94zM136 477h-73l-11 209h95z" />
    <glyph glyph-name="numbersign" unicode="#" horiz-adv-x="608" 
d="M436 492h111v-73h-111v-167h111v-74h-111v-149h-76v149h-140v-149h-76v149h-113v74h111v167h-111v73h111v149h78v-149h138v149h78v-149zM220 419v-167h138v167h-138z" />
    <glyph glyph-name="dollar" unicode="$" horiz-adv-x="556" 
d="M304 750v-86q51 -7 97 -24q61 -26 96 -54l-44 -65q-39 26 -77 42q-34 16 -72 22v-212q86 -27 126 -58q65 -53 65 -138q0 -87 -63 -137q-48 -39 -128 -47v-61h-79v60q-120 13 -201 79l45 65q82 -54 156 -66v245q-74 24 -109 58q-53 50 -53 126q0 71 47 113q43 40 115 51
v87h79zM225 402v186q-79 -15 -79 -86q0 -40 26 -66q20 -20 53 -34zM304 289v-221q47 6 73 27q35 27 35 79q0 51 -35 77q-23 19 -73 38z" />
    <glyph glyph-name="percent" unicode="%" horiz-adv-x="763" 
d="M171 535q61 0 100 -39.5t39 -103.5q0 -68 -42.5 -104t-99.5 -36q-60 0 -99 39.5t-39 102.5q0 69 42 105t99 36zM301 10h-83l223 509h81zM170 464q-30 0 -47.5 -20t-17.5 -52q0 -31 17.5 -50.5t47.5 -19.5t47.5 19.5t17.5 51.5q0 33 -17.5 52t-47.5 19zM573 297
q61 0 100 -39.5t39 -103.5q0 -68 -42.5 -104t-99.5 -36q-60 0 -99 39.5t-39 102.5q0 69 42 105t99 36zM572 226q-30 0 -47.5 -20t-17.5 -52q0 -31 17.5 -50.5t47.5 -19.5t47.5 19.5t17.5 51.5q0 33 -17.5 52t-47.5 19z" />
    <glyph glyph-name="ampersand" unicode="&#x26;" horiz-adv-x="647" 
d="M540 -8l-87 79q-81 -81 -206 -81q-93 0 -149 50.5t-56 134.5q0 61 29 107.5t72 73.5q-43 58 -43 116q0 79 55 122.5t120 43.5q54 0 96.5 -30.5t52.5 -68.5l-55 -48q-31 70 -97 70q-38 0 -61.5 -21t-23.5 -61q0 -44 39 -89l218 -206q30 62 30 135v50h75v-52
q0 -102 -49 -184l90 -84zM398 121l-200 181q-37 -19 -57 -52t-20 -74q0 -53 34 -82.5t94 -29.5q91 0 149 57z" />
    <glyph glyph-name="quotesingle" unicode="'" horiz-adv-x="217" 
d="M130 477h-73l-11 209h95z" />
    <glyph glyph-name="parenleft" unicode="(" horiz-adv-x="389" 
d="M294 754l36 -62q-97 -49 -161 -168q-59 -111 -59 -228q0 -118 59 -226q62 -115 161 -169l-36 -62q-133 70 -204 202q-62 115 -62 254q0 142 62 259q71 133 204 200z" />
    <glyph glyph-name="parenright" unicode=")" horiz-adv-x="389" 
d="M15 703l36 62q133 -67 204 -200q62 -117 62 -259q0 -139 -62 -254q-71 -132 -204 -202l-36 62q99 54 161 169q59 108 59 226q0 117 -59 228q-64 119 -161 168z" />
    <glyph glyph-name="asterisk" unicode="*" horiz-adv-x="397" 
d="M220 588l98 39l24 -79l-95 -26l61 -75l-67 -47l-56 86l-57 -88l-67 50l62 75l-97 25l26 79l97 -38l-6 107h83z" />
    <glyph glyph-name="plus" unicode="+" horiz-adv-x="449" 
d="M249 332h153v-73h-153v-156h-78v156h-153v73h153v155h78v-155z" />
    <glyph glyph-name="comma" unicode="," horiz-adv-x="216" 
d="M57 61v1q0 18 12.5 30.5t30.5 12.5q19 0 31 -14t12 -29v-20q0 -43 -12 -76q-15 -36 -61 -67l-49 47q23 19 32 42q5 18 5 41q0 19 -1 32z" />
    <glyph glyph-name="hyphen" unicode="-" horiz-adv-x="453" 
d="M367 268h-311v79h311v-79z" />
    <glyph glyph-name="period" unicode="." horiz-adv-x="230" 
d="M101 101q21 0 37.5 -16t16.5 -37q0 -20 -16.5 -36t-37.5 -16q-20 0 -36 16t-16 36q0 21 16 37t36 16z" />
    <glyph glyph-name="slash" unicode="/" horiz-adv-x="362" 
d="M101 -68h-87l219 818h85z" />
    <glyph glyph-name="zero" unicode="0" horiz-adv-x="664" 
d="M318 666q126 0 200 -100.5t74 -240.5t-74.5 -237.5t-199.5 -97.5q-127 0 -201 99.5t-74 238.5t74.5 238.5t200.5 99.5zM319 589q-90 0 -140.5 -76t-50.5 -185t51 -185.5t141 -76.5q91 0 140 77.5t49 185.5q0 110 -50.5 185t-139.5 75z" />
    <glyph glyph-name="one" unicode="1" horiz-adv-x="382" 
d="M296 -1h-82v544q-69 -53 -146 -50l-19 75q38 -8 80 13.5t144 90.5h23v-673z" />
    <glyph glyph-name="two" unicode="2" horiz-adv-x="552" 
d="M112 472l-68 35q53 161 218 161q93 0 145.5 -49.5t52.5 -132.5q0 -42 -12 -76.5t-39 -65t-49.5 -50t-65.5 -51.5t-64 -49q-76 -62 -95 -116h357v-79h-446v25q0 76 44.5 137.5t127.5 123.5q7 6 31.5 23.5t34.5 25.5t29.5 25t28.5 28.5t20.5 28.5t16 34.5t4.5 36.5
q0 49 -33 79t-89 30q-57 0 -96.5 -32.5t-52.5 -91.5z" />
    <glyph glyph-name="three" unicode="3" horiz-adv-x="572" 
d="M125 544l-40 65q52 39 90 52.5t89 13.5q85 0 144 -44.5t59 -114.5q0 -42 -22.5 -81.5t-58.5 -60.5q15 -7 26 -15q40 -25 65 -73t25 -101q0 -91 -69 -144t-165 -53q-148 0 -239 103l48 62q45 -45 84.5 -66t94.5 -21q70 0 115.5 33.5t45.5 93.5t-44 95t-103 37h-118v78h117
q42 0 77 32t35 74q0 40 -34.5 64t-81.5 24q-76 0 -140 -53z" />
    <glyph glyph-name="four" unicode="4" horiz-adv-x="551" 
d="M121 200h210v216h84v-216h81v-78h-81v-125h-84v125h-308v62l202 479h90z" />
    <glyph glyph-name="five" unicode="5" horiz-adv-x="534" 
d="M412 578l-265 -4v-131q48 7 74 7q112 0 181.5 -60.5t69.5 -162.5q0 -101 -66.5 -167t-163.5 -66q-63 0 -119.5 26.5t-78.5 51.5l17 74q56 -41 92 -58t80 -17q76 0 117 45.5t41 117.5q0 76 -47.5 107t-138.5 31q-77 0 -126 -21l-15 11v287l348 7v-78z" />
    <glyph glyph-name="six" unicode="6" horiz-adv-x="584" 
d="M444 652v-75q-115 3 -196 -58q-60 -45 -100 -126l3 -8q62 44 135 44q95 0 163.5 -69.5t68.5 -164.5t-69 -163t-167 -68q-107 0 -176 81t-69 200q0 75 29.5 149.5t82.5 132.5q56 62 132.5 95t162.5 30zM285 355q-67 0 -114.5 -49t-47.5 -112q0 -62 46.5 -109t113.5 -47
q66 0 113.5 46t47.5 112t-47 112.5t-112 46.5z" />
    <glyph glyph-name="seven" unicode="7" horiz-adv-x="502" 
d="M451 635l-251 -636h-87l232 575h-322v77l428 5v-21z" />
    <glyph glyph-name="eight" unicode="8" horiz-adv-x="569" 
d="M268 669q81 0 138 -48.5t57 -118.5q0 -81 -77 -139q113 -57 113 -180q0 -91 -64.5 -145t-163.5 -54q-100 0 -164.5 55t-64.5 146q0 105 105 186q-70 47 -70 127q0 74 55 122.5t136 48.5zM299 396l8 -2q37 28 55 50.5t18 53.5q0 41 -31 67.5t-79 26.5t-78.5 -26.5
t-30.5 -67.5q0 -33 19 -51t55 -30zM240 332l-16 4q-58 -49 -78 -78.5t-20 -69.5q0 -60 38.5 -94t106.5 -34t106.5 34.5t38.5 92.5q0 33 -12.5 57t-40 40.5t-53 26t-70.5 21.5z" />
    <glyph glyph-name="nine" unicode="9" horiz-adv-x="583" 
d="M112 -36v74q112 -3 199 66q66 51 106 141q-76 -58 -153 -58q-90 0 -159 70.5t-69 163.5q0 94 69.5 162.5t168.5 68.5q107 0 174.5 -81.5t67.5 -201.5q0 -78 -29 -151t-79 -128q-119 -132 -296 -126zM270 261q68 0 115 49t47 113t-47.5 109.5t-113.5 45.5
q-65 0 -112.5 -44.5t-47.5 -111.5q0 -66 46 -113.5t113 -47.5z" />
    <glyph glyph-name="colon" unicode=":" horiz-adv-x="239" 
d="M116 494q21 0 37.5 -16t16.5 -37q0 -20 -16.5 -36t-37.5 -16q-20 0 -36 16t-16 36q0 21 16 37t36 16zM116 112q21 0 37.5 -16t16.5 -37q0 -20 -16.5 -36t-37.5 -16q-20 0 -36 16t-16 36q0 21 16 37t36 16z" />
    <glyph glyph-name="semicolon" unicode=";" horiz-adv-x="223" 
d="M116 494q21 0 37.5 -16t16.5 -37q0 -20 -16.5 -36t-37.5 -16q-20 0 -36 16t-16 36q0 21 16 37t36 16zM72 72v1q0 18 12.5 30.5t30.5 12.5q19 0 31 -14t12 -29v-20q0 -43 -12 -76q-15 -36 -61 -67l-49 47q23 19 32 42q5 18 5 41q0 19 -1 32z" />
    <glyph glyph-name="less" unicode="&#x3c;" horiz-adv-x="407" 
d="M332 399l-186 -129l188 -131l-46 -66l-282 195l282 196z" />
    <glyph glyph-name="equal" unicode="=" horiz-adv-x="475" 
d="M420 336h-364v74h364v-74zM420 181h-364v74h364v-74z" />
    <glyph glyph-name="greater" unicode="&#x3e;" horiz-adv-x="407" 
d="M372 268l-281 -196l-45 65l186 129l-188 131l47 67z" />
    <glyph glyph-name="question" unicode="?" horiz-adv-x="479" 
d="M128 554l14 -73q-2 0 -6 -0.5t-10 -0.5q-45 0 -70 25.5t-25 64.5q0 44 34 76t76.5 45.5t83.5 13.5q86 0 143.5 -62t57.5 -148q0 -45 -17 -83q-25 -55 -104 -103q-8 -5 -28 -17t-26 -16t-19 -13.5t-17 -14.5t-10.5 -14t-8.5 -18t-2 -20q0 -21 8 -48l-73 -16q-9 35 -9 63
q0 33 9 58.5t29.5 45t36.5 30t47 28.5q73 41 94 80q17 31 17 63q0 50 -38.5 90t-95.5 40q-40 0 -77 -18t-37 -42q0 -16 23 -16zM183 101q22 0 39.5 -18t17.5 -40q0 -23 -17.5 -40.5t-39.5 -17.5q-23 0 -40.5 17.5t-17.5 40.5t17.5 40.5t40.5 17.5z" />
    <glyph glyph-name="at" unicode="@" horiz-adv-x="712" 
d="M540 59l21 -67q-97 -51 -213 -51q-135 0 -220 79.5t-85 220.5q0 139 83 226t218 87q132 0 215.5 -81t83.5 -206q0 -84 -39 -133.5t-106 -49.5q-69 0 -96 49q-38 -36 -86 -36q-55 0 -94 47.5t-39 113.5q0 71 45 115t101 44q12 0 33 -3l30 -2h55v-212q9 -49 50 -49
q34 0 52.5 32.5t18.5 84.5q0 97 -62 157t-161 60q-105 0 -165.5 -68.5t-60.5 -176.5q0 -107 62 -168t175 -61q117 0 184 48zM375 345h-44q-35 0 -55.5 -24t-20.5 -64q0 -33 14 -60.5t46 -27.5q35 0 55 41l5 13v122z" />
    <glyph glyph-name="A" unicode="A" horiz-adv-x="782" 
d="M726 -1h-87l-92 221h-271l-68 -165q-11 -27 -36.5 -43t-53.5 -16q-38 0 -69 27.5t-32 65.5l77 15q3 -28 24 -28q12 0 17 12l259 600h34zM513 298l-102 243l1 2l-1 -1l-1 1l1 -3l-102 -242h204z" />
    <glyph glyph-name="B" unicode="B" horiz-adv-x="656" 
d="M129 697h216q89 0 148 -52.5t59 -133.5q0 -48 -21.5 -85.5t-57.5 -56.5q109 -57 109 -181q0 -99 -73 -148.5t-194 -49.5q-65 0 -115 5l-62 7v617q-25 -1 -31 -9q-11 -11 -11 -27l-12 -11h-65q0 2 -0.5 6t-0.5 7q0 45 32 77q35 35 79 35zM221 619v-548q95 -5 98 -5
q183 0 183 123q0 63 -43 99t-108 36h-104v77h97q59 0 93 29q34 30 34 81q0 50 -30.5 78t-82.5 30h-137z" />
    <glyph glyph-name="C" unicode="C" horiz-adv-x="748" 
d="M618 178l63 -43q-48 -76 -126 -116.5t-164 -40.5q-146 0 -247.5 106t-101.5 253q0 151 105.5 262.5t249.5 111.5q61 0 123.5 -21.5t91.5 -65.5q21 -34 21 -70q0 -42 -28 -72t-68 -30q-41 0 -70 29l46 59q17 -12 25 -12t13.5 8t5.5 19q0 17 -14 32q-45 48 -145 48
q-115 0 -197.5 -89t-82.5 -209q0 -117 79 -199.5t195 -82.5q71 0 131 32.5t95 90.5z" />
    <glyph glyph-name="D" unicode="D" horiz-adv-x="811" 
d="M129 692h291q148 -14 233.5 -110t85.5 -252q0 -339 -433 -339q-71 0 -111 4l-27 2h-1l-29 4v613q-25 -2 -34 -12q-9 -8 -9 -23l-12 -12h-66q-4 55 33 92q35 33 79 33zM221 614v-543q90 -5 154 -5q129 0 205.5 71.5t76.5 201.5q0 121 -67 195.5t-181 79.5h-188z" />
    <glyph glyph-name="E" unicode="E" horiz-adv-x="659" 
d="M587 609h-375v-208h259v-79h-259v-244h375v-79h-458v609q-15 0 -24 -10q-11 -9 -11 -25q0 -4 2 -12h-78q0 2 -0.5 6t-0.5 7q0 44 32 78q36 34 79 34h459v-77z" />
    <glyph glyph-name="F" unicode="F" horiz-adv-x="620" 
d="M587 608h-375v-208h259v-78h-259v-323h-83v608q-15 0 -24 -10q-11 -9 -11 -25q0 -4 2 -12h-78q0 2 -0.5 6t-0.5 7q0 44 32 78q34 34 79 34h459v-77z" />
    <glyph glyph-name="G" unicode="G" horiz-adv-x="758" 
d="M597 -161v220q-84 -90 -212 -90q-142 0 -242.5 108.5t-100.5 252.5q0 149 105.5 261.5t245.5 112.5q34 0 72 -8t76 -24.5t62.5 -47.5t24.5 -72q0 -44 -28.5 -73.5t-68.5 -29.5q-43 0 -68 27l46 59q16 -11 23 -11q8 0 14 8t6 20q0 36 -52 55.5t-106 19.5
q-112 0 -194 -89.5t-82 -208.5q0 -115 78.5 -199.5t188.5 -84.5q84 0 142 52.5t70 131.5v88h79v-479q0 -46 -32.5 -73.5t-70.5 -27.5q-28 0 -52.5 15.5t-35.5 39.5l65 45q5 -8 6 -9.5t4 -5.5t6 -4.5t8 -0.5q19 0 23 22z" />
    <glyph glyph-name="H" unicode="H" horiz-adv-x="709" 
d="M83 589l-70 47q30 55 90 55q40 0 71.5 -29t31.5 -73v-194h335v291h82v-687h-82v318h-335v-318h-83v590q0 19 -19 19q-12 0 -21 -19z" />
    <glyph glyph-name="I" unicode="I" horiz-adv-x="228" 
d="M138 -1h-82v687h82v-687z" />
    <glyph glyph-name="J" unicode="J" horiz-adv-x="484" 
d="M63 595l-34 69q81 34 117 34q21 0 91 -23q33 -12 48 -12q10 0 29 10h-1q4 2 7 4.5t4 3.5t1 0v-3l12 11h66v-493q0 -82 -48 -141t-141 -59q-49 0 -86.5 18.5t-58 48.5t-29.5 64t-8 70l78 -6q-3 -53 25.5 -85t81.5 -32q57 0 82 36.5t25 88.5v393q-18 -7 -41 -7q-22 0 -48 7
q-16 4 -45 16t-44 12q-14 0 -43.5 -11.5t-39.5 -13.5z" />
    <glyph glyph-name="K" unicode="K" horiz-adv-x="654" 
d="M409 686h100q-87 -163 -109 -202q-32 -56 -52 -84q-24 -35 -46 -54l188 -266q7 -10 18 -10q9 0 15 6t6 16q0 7 -2 12h80q5 -52 -28 -82t-73 -30q-51 0 -80 42l-196 278q-39 -10 -90 -9v-303h-84v686h82v-302h30q35 1 58 12q22 10 41 34q25 31 65 100q20 36 77 156z" />
    <glyph glyph-name="L" unicode="L" horiz-adv-x="527" 
d="M138 78h317v-79h-399v687h82v-608z" />
    <glyph glyph-name="M" unicode="M" horiz-adv-x="1010" 
d="M875 -1l-109 541l2 10l-2 -8l-3 13l3 -13l-197 -543h-73l-195 540l2 12l-2 -10l-3 6l2 -7l-94 -469q-7 -32 -33.5 -55t-60.5 -23q-33 0 -60 21t-35 50l70 29q8 -15 12 -19t13 -4q12 0 17 13l124 603h75l205 -561l1 -1l-1 2l207 560h73l141 -687h-79zM766 542v-2v2z
M301 541v-2v-1v3z" />
    <glyph glyph-name="N" unicode="N" horiz-adv-x="787" 
d="M303 561l331 -397l-11 13v508h81v-686h-35l-461 551l12 -11v-445q0 -45 -34.5 -71.5t-71.5 -26.5t-67 29.5t-30 68.5q0 8 1 12h79q-3 -6 -3 -11q0 -9 7 -15.5t16 -6.5t15 6.5t6 14.5v592h54z" />
    <glyph glyph-name="O" unicode="O" horiz-adv-x="815" 
d="M42 331v19q0 144 102.5 251t247.5 107q144 0 247.5 -107t103.5 -251v-19q0 -147 -101.5 -252.5t-245.5 -105.5q-145 0 -249.5 106.5t-104.5 251.5zM666 331v19q0 117 -81.5 199t-193.5 82q-113 0 -192 -84t-79 -197v-19q0 -116 80.5 -198.5t192.5 -82.5q113 0 193 83
t80 198z" />
    <glyph glyph-name="P" unicode="P" 
d="M128 686h224q92 0 144.5 -61.5t52.5 -155.5q0 -107 -65.5 -163.5t-160.5 -56.5q-37 0 -85 6v76q72 -4 81 -4q150 0 150 141q0 136 -131 141h-116v-610h-83v610q-24 -1 -33 -11q-13 -12 -11 -37h-77q0 2 -0.5 6t-0.5 7q0 44 32 78q36 34 79 34z" />
    <glyph glyph-name="Q" unicode="Q" horiz-adv-x="788" 
d="M169 -152l111 156q-113 32 -175.5 125t-62.5 214q0 152 95.5 252.5t243.5 100.5q150 0 244.5 -101.5t94.5 -252.5q0 -152 -95.5 -252t-243.5 -99h-21l-44 -65l63 -21q53 -19 104 -19q24 0 44 7.5t53 31.5l36 -63q-42 -31 -68.5 -40.5t-58.5 -9.5q-63 0 -129 22l-88 29
l-43 -62zM382 619q-117 0 -187 -77t-70 -198t69.5 -199.5t186.5 -78.5t187.5 78.5t70.5 199.5q0 120 -70.5 197.5t-186.5 77.5z" />
    <glyph glyph-name="R" unicode="R" horiz-adv-x="728" 
d="M598 102l84 -3q5 -45 -26 -77t-74 -32q-48 0 -81 42l-122 159q-28 40 -55 57t-77 20v77h96q60 0 93.5 35t33.5 94t-32.5 97t-83.5 38h-134v-610h-83v610h-7q-14 0 -25 -10.5t-11 -25.5q0 -4 2 -12h-79q-4 52 32 91q33 34 79 34h229q47 0 83 -17q50 -25 80.5 -78.5
t30.5 -116.5q0 -72 -39 -123.5t-99 -65.5l-36 13q10 -3 25 -15l-17 -2l19 1q9 -8 15 -15l147 -190q7 -11 15 -11t15.5 7.5t7.5 16.5q0 6 -6 12zM404 282l-2 1q2 1 5.5 1t5.5 1l9 -3h-18z" />
    <glyph glyph-name="S" unicode="S" horiz-adv-x="572" 
d="M23 157l71 29q24 -63 72.5 -98.5t107.5 -35.5q65 0 107 42t42 101q0 42 -22 66.5t-68 48.5q-14 7 -48.5 23.5t-55 27t-50 30t-46 38.5t-29 47.5t-12.5 60.5q0 73 55.5 122t132.5 49q31 0 63 -10q47 -14 73.5 -46t26.5 -71q0 -40 -28 -68t-69 -28q-7 0 -21 2l6 82
q8 -11 17 -11q17 0 17 24q0 22 -26.5 35.5t-58.5 13.5q-46 0 -79 -27t-33 -65q0 -29 23.5 -55t48.5 -40t71 -35.5t61 -29.5q128 -68 128 -183q0 -89 -65.5 -155t-159.5 -66q-82 0 -154.5 51.5t-97.5 130.5z" />
    <glyph glyph-name="T" unicode="T" horiz-adv-x="637" 
d="M586 608h-231v-609h-83v609h-144q-10 0 -16 -6.5t-6 -14.5q0 -7 6 -11h-84q-5 48 28 81q29 29 69 29h461v-78z" />
    <glyph glyph-name="U" unicode="U" horiz-adv-x="759" 
d="M86 591l-69 47q12 24 39.5 40.5t55.5 16.5q48 0 77 -28.5t29 -78.5v-317q0 -89 49 -146.5t140 -57.5q94 0 141 60.5t47 143.5v416h83v-416q0 -71 -27.5 -132.5t-90.5 -104.5t-152 -43q-127 0 -200 81.5t-73 198.5v317q0 25 -21 25t-28 -22z" />
    <glyph glyph-name="V" unicode="V" horiz-adv-x="690" 
d="M91 585l-76 22q7 38 36.5 61.5t65.5 23.5q30 0 53 -16t32 -40l170 -504l178 555h82l-223 -688h-74l-202 600q-5 12 -18 12q-20 0 -24 -26z" />
    <glyph glyph-name="W" unicode="W" horiz-adv-x="1117" 
d="M1059 687l-224 -688h-74l-179 548l-177 -548h-74l-198 603q-5 15 -20 15q-18 0 -23 -27l-75 22q6 38 35.5 61t63.5 23q32 0 59 -20t35 -49l159 -491l-5 -22l6 19l6 -19l-5 23l177 550h74l168 -523v-74l3 21l7 22l7 -22l-6 26l178 550h82zM798 133l-10 31v27l11 -54z
M368 133l-1 3l1 6l1 -5z" />
    <glyph glyph-name="X" unicode="X" horiz-adv-x="678" 
d="M355 351l161 -271q5 -8 15 -8t17 9.5t5 22.5l79 -4q2 -48 -30 -77.5t-75 -29.5q-33 0 -55.5 19t-42.5 56l-126 217l-169 -286h-96l210 352l-212 335h94l170 -270l169 270h97z" />
    <glyph glyph-name="Y" unicode="Y" horiz-adv-x="643" 
d="M101 585l-84 8q-1 46 31.5 74.5t71.5 28.5q55 0 87 -53l139 -253l165 297h94l-216 -389v-299h-87l3 297l-169 309q-8 10 -19 10q-8 0 -14 -5t-6 -13q0 -4 4 -12z" />
    <glyph glyph-name="Z" unicode="Z" horiz-adv-x="601" 
d="M165 107l16 -3q16 -3 86 -23t102 -20q62 0 115 55l54 -53q-77 -77 -169 -77q-50 0 -134.5 26t-108.5 31l-37 -62l-64 38l353 590h-295v74h426z" />
    <glyph glyph-name="bracketleft" unicode="[" horiz-adv-x="355" 
d="M310 672h-172v-763h172v-78h-254v919h254v-78z" />
    <glyph glyph-name="backslash" unicode="\" horiz-adv-x="362" 
d="M318 -68h-86l-218 818h86z" />
    <glyph glyph-name="bracketright" unicode="]" horiz-adv-x="356" 
d="M270 -169h-254v78h172v763h-172v78h254v-919z" />
    <glyph glyph-name="asciicircum" unicode="^" horiz-adv-x="470" 
d="M416 360l-67 -47l-130 186l-128 -184l-66 45l180 259h31z" />
    <glyph glyph-name="underscore" unicode="_" horiz-adv-x="592" 
d="M506 -130h-450v77h450v-77z" />
    <glyph glyph-name="grave" unicode="`" horiz-adv-x="282" 
d="M235 597l-33 -52l-187 120l49 67z" />
    <glyph glyph-name="a" unicode="a" horiz-adv-x="625" 
d="M519 87l63 -43q-13 -27 -37 -40.5t-49 -13.5q-29 0 -54.5 17t-37.5 44q-49 -61 -142 -61q-103 0 -161 76t-58 184q0 117 67.5 191.5t180.5 74.5q53 0 118 -9h64v-418q0 -10 7 -16.5t15 -6.5q15 0 24 21zM396 193v241q-8 0 -50.5 4t-59.5 4q-78 0 -121 -53t-43 -137
q0 -78 36.5 -133t104.5 -55q85 0 121 73q12 24 12 56z" />
    <glyph glyph-name="b" unicode="b" horiz-adv-x="556" 
d="M132 727v-263q53 52 136 52q96 0 156 -74t60 -189q0 -113 -63 -188t-193 -75q-50 0 -95 6q-52 6 -77 17v714h76zM132 71l41 -4q30 -5 54 -3q96 0 137.5 52t41.5 136q0 89 -40.5 139.5t-100.5 50.5q-45 0 -85 -29q-44 -33 -48 -85v-257z" />
    <glyph glyph-name="c" unicode="c" horiz-adv-x="534" 
d="M431 118l37 -60q-89 -64 -194 -64q-111 0 -171 67.5t-60 180.5q0 118 61 197.5t162 79.5q78 0 135 -47.5t51 -122.5h-79q5 47 -25.5 73.5t-77.5 26.5q-72 0 -110.5 -62.5t-38.5 -145.5t40 -128.5t113 -45.5q64 0 157 51z" />
    <glyph glyph-name="d" unicode="d" horiz-adv-x="625" 
d="M473 728v-639q0 -8 7 -15.5t16 -7.5q13 0 23 21l63 -43q-13 -27 -37 -40.5t-49 -13.5q-29 0 -54.5 17t-37.5 44q-49 -61 -141 -61q-103 0 -161.5 75.5t-58.5 184.5q0 116 67.5 191t180.5 75q37 0 105 -8v220h77zM396 193v240q-60 9 -84 9q-190 0 -190 -185
q0 -84 36.5 -138.5t104.5 -54.5q85 -2 121 73q12 24 12 56z" />
    <glyph glyph-name="e" unicode="e" horiz-adv-x="536" 
d="M431 114l37 -60q-89 -64 -196 -64q-112 0 -170.5 68.5t-58.5 175.5q0 50 13 98.5t39 90.5t71 67.5t102 25.5q77 0 130.5 -44.5t53.5 -116.5q0 -77 -61.5 -119.5t-163.5 -42.5h-101q22 -129 146 -129q66 0 159 50zM122 267h105q148 0 148 88q0 43 -30 66.5t-74 23.5
q-69 0 -107 -56t-42 -122z" />
    <glyph glyph-name="f" unicode="f" horiz-adv-x="417" 
d="M54 -253v751q0 245 167 245q69 0 109.5 -42.5t40.5 -115.5q0 -87 -56.5 -135t-149.5 -48h-35v-135h144v-74h-144v-446h-76zM130 476h35q61 0 94 29.5t33 80.5q0 40 -19 61.5t-54 21.5q-28 0 -46.5 -13t-27 -38.5t-12 -52.5t-3.5 -64v-25z" />
    <glyph glyph-name="g" unicode="g" horiz-adv-x="557" 
d="M473 507v-605q0 -77 -44.5 -126t-113.5 -49q-72 0 -113 51t-41 115q0 61 36 106q-28 10 -53 29q-51 40 -76 106t-25 126q0 102 69 179t178 77q14 0 62 -2l58 -7h63zM317 442h-31q-77 0 -122.5 -57t-45.5 -133q0 -73 39.5 -130.5t100.5 -57.5q26 0 47 10q58 27 83 77
q10 22 10 34v252zM398 -101v152q-4 -4 -13.5 -12t-11.5 -10q-9 -8 -17.5 -13.5t-31 -18.5t-41.5 -24q-48 -29 -48 -80q0 -37 22.5 -64t62.5 -27q37 0 56.5 26.5t21.5 70.5z" />
    <glyph glyph-name="h" unicode="h" horiz-adv-x="605" 
d="M132 730v-276q60 64 152 64q83 0 126 -43.5t43 -123.5v-260q0 -9 7 -15.5t16 -6.5q14 0 22 20l65 -43q-28 -53 -87 -53q-42 0 -70.5 28.5t-28.5 69.5v257q0 97 -100 97q-45 0 -77.5 -21.5t-67.5 -68.5v-353h-76v728h76z" />
    <glyph glyph-name="i" unicode="i" horiz-adv-x="260" 
d="M79 716q21 0 37.5 -16t16.5 -37q0 -20 -16.5 -36t-37.5 -16q-20 0 -36 16t-16 36q0 21 16 37t36 16zM122 508v-419q0 -9 7 -16t15 -7q16 0 22 21l66 -43q-13 -24 -37 -39t-51 -15q-40 0 -69.5 29t-29.5 70v419h77z" />
    <glyph glyph-name="j" unicode="j" horiz-adv-x="267" 
d="M142 716q21 0 37.5 -16t16.5 -37q0 -20 -16.5 -36t-37.5 -16q-20 0 -36 16t-16 36q0 21 16 37t36 16zM186 509v-663q0 -40 -29 -69.5t-70 -29.5q-59 0 -88 54l64 42q11 -19 24 -19q10 0 16 6.5t6 15.5v663h77z" />
    <glyph glyph-name="k" unicode="k" horiz-adv-x="596" 
d="M132 728v-280q56 70 146 70q70 0 115.5 -45t45.5 -115q0 -89 -85 -141l83 -132q4 -6 16 -6q20 0 20 20q0 2 -2 12l79 -4q3 -40 -27 -73.5t-71 -33.5q-23 0 -47 13t-36 34l-90 147h-147v-194h-76v728h76zM135 268h100q43 0 72 12q58 24 58 82q0 37 -24 60.5t-65 23.5
q-46 0 -80.5 -31.5t-50.5 -87.5q-8 -28 -10 -59z" />
    <glyph glyph-name="l" unicode="l" horiz-adv-x="283" 
d="M131 727v-637q0 -10 7 -16.5t16 -6.5q14 0 23 20l64 -42q-12 -24 -37.5 -39t-51.5 -15q-39 0 -68 29.5t-29 69.5v637h76z" />
    <glyph glyph-name="m" unicode="m" horiz-adv-x="899" 
d="M44 469l48 47q42 -27 58 -73q57 73 149 73q96 0 136 -78q59 78 151 78q72 0 116.5 -46t44.5 -118v-264q0 -9 7.5 -16t16.5 -7q10 0 24 19l62 -41q-29 -54 -87 -54q-42 0 -70.5 30t-28.5 69v262q-3 48 -23.5 70t-62.5 22q-83 0 -130 -88v-355h-76v338q0 105 -85 105
q-43 0 -78.5 -24.5t-51.5 -61.5v-357h-76v355q0 77 -44 115z" />
    <glyph glyph-name="n" unicode="n" 
d="M27 469l49 47q43 -25 60 -78q65 78 165 78q76 0 120 -39t48 -114v-277q0 -9 7.5 -16t15.5 -6q12 0 24 18l63 -41q-30 -54 -88 -54q-42 0 -70.5 30t-28.5 69v251q0 55 -23 80t-73 25q-47 0 -80 -22t-68 -68v-353h-77v355q0 78 -44 115z" />
    <glyph glyph-name="o" unicode="o" 
d="M296 516q110 0 181.5 -75t71.5 -189q0 -115 -72 -188.5t-182 -73.5q-111 0 -181.5 74.5t-70.5 186.5q0 113 71 189t182 76zM296 442q-82 0 -128 -53.5t-46 -136.5q0 -85 47 -136.5t127 -51.5q81 0 127.5 53.5t46.5 138.5t-47.5 135.5t-126.5 50.5z" />
    <glyph glyph-name="p" unicode="p" horiz-adv-x="571" 
d="M27 469l49 47q40 -27 56 -68q50 68 148 68q104 0 162 -75.5t58 -184.5q0 -117 -66.5 -191.5t-181.5 -74.5q-44 0 -104 7v-251h-77v608q0 78 -44 115zM148 328v-257q70 -7 99 -7q86 0 130 50t44 136q0 82 -37.5 137t-101.5 55q-51 0 -90.5 -32.5t-43.5 -81.5z" />
    <glyph glyph-name="q" unicode="q" horiz-adv-x="557" 
d="M394 -254v294q-50 -50 -134 -50q-102 0 -160 75.5t-58 186.5q0 118 68 191t195 73q94 0 166 -23v-747h-77zM394 177v257q-45 7 -85 7q-101 0 -144.5 -48t-43.5 -135q0 -86 36 -140t100 -54q53 0 92.5 31.5t44.5 81.5z" />
    <glyph glyph-name="r" unicode="r" horiz-adv-x="373" 
d="M37 469l49 47q41 -27 58 -73q25 35 49 49q37 24 90 24q12 0 68 -10v-75q-39 10 -66 10q-48 0 -75 -23q-30 -22 -52 -64v-355h-77v355q0 78 -44 115z" />
    <glyph glyph-name="s" unicode="s" horiz-adv-x="461" 
d="M30 55l39 60q70 -51 147 -51q45 0 74 18.5t29 57.5q0 27 -14 44t-47 32q-17 8 -50.5 20.5t-55 22.5t-45 26t-35 40t-11.5 57q0 61 45 97.5t109 36.5q35 0 75 -10t62 -27l-16 -73q-57 36 -122 36q-36 0 -55 -15t-19 -40q0 -29 27.5 -48t80.5 -39t78 -35q72 -45 72 -124
q0 -75 -55 -113t-132 -38q-105 0 -181 65z" />
    <glyph glyph-name="t" unicode="t" horiz-adv-x="384" 
d="M130 506h154v-77h-154v-279q0 -44 12.5 -65t44.5 -21q62 0 87 63l60 -44q-48 -93 -147 -93q-69 0 -101 43t-32 117v478h76v-122z" />
    <glyph glyph-name="u" unicode="u" horiz-adv-x="635" 
d="M28 457l42 64q22 -17 32.5 -25.5t27.5 -26.5t24.5 -38t7.5 -43v-218q0 -54 23.5 -79.5t73.5 -25.5q47 0 79 21t69 69v353h76v-420q0 -9 7 -16t16 -7q14 0 23 20l65 -44q-32 -52 -87 -52q-34 0 -60.5 20t-36.5 51q-62 -68 -156 -68q-76 0 -120 38.5t-48 113.5v244
q0 11 -8 23t-16.5 19.5t-20 16t-13.5 10.5z" />
    <glyph glyph-name="v" unicode="v" horiz-adv-x="508" 
d="M27 463l42 64q65 -37 91 -117l92 -280l123 377h78l-166 -508h-71l-135 411v-1q-8 18 -23 34t-31 20z" />
    <glyph glyph-name="w" unicode="w" horiz-adv-x="833" 
d="M27 464l42 65q61 -37 90 -118l92 -278l122 375h71l123 -375l122 375h79l-165 -508h-72l-122 375l-123 -375h-72l-133 410q-8 19 -23 34.5t-31 19.5z" />
    <glyph glyph-name="x" unicode="x" horiz-adv-x="571" 
d="M293 256l115 -186v-1q5 -9 18 -9q9 0 15 6.5t6 13.5q0 8 -6 13l84 -5q2 -44 -27.5 -75.5t-71.5 -31.5q-53 0 -84 47l-99 161l-119 -190h-90l160 255l-162 254h92l119 -190l115 190h91z" />
    <glyph glyph-name="y" unicode="y" horiz-adv-x="567" 
d="M483 508v-610q0 -81 -44.5 -128t-111.5 -47q-71 0 -113 49t-42 114q0 68 35 110q-58 12 -89.5 50.5t-31.5 98.5v243q0 16 -26 42t-32 25l42 66q30 -23 46 -37.5t31 -40.5t15 -55v-218q0 -105 96 -105q44 0 74.5 18.5t62.5 57.5v-1q11 15 12 37v331h76zM363 11l-49 -25
q-36 -19 -51.5 -41t-15.5 -57q0 -40 21 -65t58 -25q38 0 60 26t22 70v148q-26 -21 -45 -31z" />
    <glyph glyph-name="z" unicode="z" horiz-adv-x="545" 
d="M437 478l-258 -377l63 -22q48 -18 103 -18q25 0 44.5 7t54.5 32l35 -63q-65 -50 -132 -50q-61 0 -124 22l-88 28l-43 -62l-60 46l280 411h-239v74h364v-28z" />
    <glyph glyph-name="braceleft" unicode="{" horiz-adv-x="343" 
d="M256 763l21 -67q-63 -10 -99 -33q-13 -9 -20 -21q-6 -14 -6 -34q0 -6 0.5 -12.5t1.5 -15.5t1 -14v1l7 -60q9 -63 9 -119q0 -43 -29 -72q-7 -9 -18 -14q26 -18 38 -44h1q9 -23 9 -49q0 -9 -1.5 -26.5t-1.5 -22.5q-1 -7 -9 -75.5t-8 -91.5q0 -19 6 -31q18 -35 119 -54
l-21 -67q-1 0 -26 5.5t-32.5 7.5t-29 9t-32.5 14t-25 19.5t-24 27.5q-17 28 -17 71q0 44 16 181v-1q0 3 1.5 16.5t1.5 19.5q0 17 -6 24h1q-12 15 -39 23q-18 5 -36 7v75q18 0 35 4q28 7 39 23q6 7 6 26q0 6 -1.5 19.5t-1.5 16.5v-1l-7 57l-6 63q-3 22 -3 52q0 54 17 80
q16 26 43 42q45 25 126 41z" />
    <glyph glyph-name="bar" unicode="|" horiz-adv-x="228" 
d="M138 -68h-82v818h82v-818z" />
    <glyph glyph-name="braceright" unicode="}" horiz-adv-x="342" 
d="M22 685l21 67q81 -16 126 -41q27 -16 43 -42q17 -25 17 -80q0 -29 -3 -52l-6 -63l-7 -57v1q0 -3 -1.5 -16.5t-1.5 -19.5q0 -19 6 -26q11 -16 39 -23q17 -4 35 -4v-75q-18 -2 -36 -7q-27 -8 -39 -23h1q-6 -7 -6 -24q0 -6 1.5 -19.5t1.5 -16.5v1q16 -137 16 -181
q0 -43 -17 -71q-10 -15 -24 -27.5t-25 -19.5t-32.5 -14t-29 -9t-32.5 -7.5t-26 -5.5l-21 67q101 19 119 54q6 12 6 31q0 23 -8 91.5t-9 75.5q0 5 -1.5 22.5t-1.5 26.5q0 27 9 49h1q12 26 38 44q-11 5 -18 14q-29 29 -29 72q0 56 9 119l7 60v-1q0 3 1.5 18.5t1.5 23.5
q0 21 -6 34q-7 12 -20 21q-36 23 -99 33z" />
    <glyph glyph-name="asciitilde" unicode="~" horiz-adv-x="543" 
d="M409 353l48 -58q-53 -48 -113 -53h-15q-35 0 -81.5 16.5t-67.5 16.5q-42 0 -81 -36l-48 58q61 52 128 52q43 0 85.5 -16t62.5 -16q42 0 82 36z" />
    <glyph glyph-name="uni00A0" unicode="&#xa0;" horiz-adv-x="350" 
 />
    <glyph glyph-name="exclamdown" unicode="&#xa1;" horiz-adv-x="251" 
d="M119 413q-20 0 -36 16t-16 37q0 20 16 36t36 16q21 0 37.5 -16t16.5 -36q0 -21 -16.5 -37t-37.5 -16zM80 -200l9 572h73l9 -572h-91z" />
    <glyph glyph-name="cent" unicode="&#xa2;" horiz-adv-x="521" 
d="M290 685v-101q59 -10 102 -47q51 -49 46 -120h-79q3 45 -21 69q-17 17 -48 26v-375q26 3 45.5 9.5t48.5 21.5t33 17l36 -58q-31 -27 -83 -46q-42 -15 -80 -19v-63h-83v66q-89 17 -133 80q-45 67 -45 172t50 176q50 72 128 89v103h83zM207 143v365q-44 -17 -71 -70
q-30 -56 -30 -133q0 -70 33 -113q27 -36 68 -49z" />
    <glyph glyph-name="sterling" unicode="&#xa3;" horiz-adv-x="584" 
d="M129 372v110q0 84 50 133q54 51 156 51q67 0 122 -21v-74q-72 21 -129 21q-59 0 -87 -28q-29 -29 -29 -82v-110h149v-79h-149v-162l-1 -18v-8q93 -32 115 -35q27 -6 46 -6q46 0 102 41l35 -68q-62 -50 -126 -50q-39 0 -70 6q-34 7 -60 16l-62 20q-15 -32 -23 -39l-12 -2
l-60 27q11 19 25 54q8 20 8 62v162h-79v79h79z" />
    <glyph glyph-name="currency" unicode="&#xa4;" horiz-adv-x="711" 
d="M633 537l-101 -102q41 -58 41 -145q0 -49 -12 -85q-9 -28 -30 -59l102 -102l-58 -59l-106 105q-28 -16 -53 -25q-33 -12 -76 -12q-41 0 -76 11q-26 8 -53 25l-104 -104l-58 59l100 100q-42 58 -42 146q0 50 13 86q11 32 30 59l-101 102l58 59l105 -105q26 16 52 25
q33 12 76 12q42 0 77 -12q28 -9 53 -25l105 105zM341 452q-35 0 -62 -11q-28 -12 -47 -32q-20 -22 -30 -51q-10 -30 -10 -68t10 -67q11 -30 31 -51q19 -21 46 -33q26 -11 62 -11q37 0 62 12q25 11 47 33q21 24 30 52q10 30 10 67q0 74 -40 118q-41 42 -109 42z" />
    <glyph glyph-name="yen" unicode="&#xa5;" horiz-adv-x="641" 
d="M397 384h136v-76h-180l-4 -8v-62h185v-75h-185v-164h-82v164h-188v75h186v62l-4 8h-183v76h139l-178 279h95l173 -273l170 273h95z" />
    <glyph glyph-name="brokenbar" unicode="&#xa6;" horiz-adv-x="220" 
d="M137 368h-82v382h82v-382zM137 -68h-82v382h82v-382z" />
    <glyph glyph-name="section" unicode="&#xa7;" horiz-adv-x="429" 
d="M296 677l18 -74q-86 -16 -120 -35q-29 -14 -29 -45q0 -33 43 -67q8 -6 40 -27.5t50 -38.5q52 -46 52 -107q0 -56 -28 -93q-9 -12 -27 -23q26 -37 26 -80q0 -63 -57 -102q-56 -37 -161 -52l-18 74q87 17 120 35q29 14 29 45q0 34 -43 67q-11 8 -42 29t-48 37
q-51 46 -51 110q0 52 27 90q9 11 26 24q-24 35 -24 78q0 66 57 103q59 39 160 52zM163 387q-30 -19 -30 -57q0 -30 34 -59q12 -10 36.5 -25.5t33.5 -22.5q29 18 29 57q0 28 -33 58q-12 9 -35.5 25t-34.5 24z" />
    <glyph glyph-name="dieresis" unicode="&#xa8;" horiz-adv-x="461" 
d="M123 709q21 0 37.5 -16t16.5 -37q0 -20 -16.5 -36t-37.5 -16q-20 0 -36 16t-16 36q0 21 16 37t36 16zM338 709q21 0 37.5 -16t16.5 -37q0 -20 -16.5 -36t-37.5 -16q-20 0 -36 16t-16 36q0 21 16 37t36 16z" />
    <glyph glyph-name="copyright" unicode="&#xa9;" horiz-adv-x="746" 
d="M359 555q135 0 220 -87t85 -219q0 -133 -85 -220q-85 -88 -222 -88q-133 0 -219 86q-85 85 -85 220q0 134 85 221q84 87 221 87zM359 485q-103 0 -167 -65t-64 -171q0 -109 64 -173q64 -66 166 -66t167 67q63 68 63 175q0 106 -63 170q-63 63 -166 63zM452 188l33 -57
q-57 -44 -116 -44q-66 0 -104.5 47t-38.5 115q0 67 36.5 116.5t97.5 49.5q22 0 48.5 -6.5t35.5 -16.5v-51l-17 -10q-36 16 -61 16q-33 0 -49.5 -29.5t-16.5 -67.5q0 -44 21 -69.5t54 -25.5q32 0 77 33z" />
    <glyph glyph-name="ordfeminine" unicode="&#xaa;" horiz-adv-x="426" 
d="M303 454l47 -29q-25 -39 -60 -39q-31 0 -49 23q-28 -23 -67 -23q-58 0 -89.5 47.5t-31.5 101.5q0 45 22.5 79t56.5 50q27 12 53 12q9 0 30.5 -2t27.5 -2h50v-221zM225 603l-15 1q-4 0 -9.5 1t-8.5 1q-31 0 -51 -20t-20 -54q0 -30 14.5 -53.5t37.5 -23.5q31 0 47 35l5 12
v101zM288 450l2 1q-1 0 -2 -1z" />
    <glyph glyph-name="guillemotleft" unicode="&#xab;" horiz-adv-x="626" 
d="M344 439l-209 -184l209 -185l-52 -57l-208 186q-35 30 -35 56q0 23 35 55l208 186zM548 439l-209 -184l209 -185l-52 -57l-208 186q-35 30 -35 56q0 23 35 55l208 186z" />
    <glyph glyph-name="logicalnot" unicode="&#xac;" horiz-adv-x="501" 
d="M418 142h-84v114h-289v79h373v-193z" />
    <glyph glyph-name="softhyphen" unicode="&#xad;" horiz-adv-x="612" 
d="M382 279h-311v79h311v-79z" />
    <glyph glyph-name="registered" unicode="&#xae;" horiz-adv-x="746" 
d="M359 727q134 0 219.5 -87t85.5 -220q0 -135 -87.5 -221t-219.5 -86q-133 0 -218.5 86.5t-85.5 220.5q0 136 86.5 221.5t219.5 85.5zM359 657q-104 0 -167.5 -65.5t-63.5 -171.5q0 -107 63.5 -172.5t166.5 -65.5q105 0 167.5 68t62.5 173q0 106 -63 170t-166 64zM304 593
h1q9 0 27 2.5t31 2.5q53 0 88.5 -31.5t35.5 -79.5q0 -56 -45 -87q16 -13 27 -37l41 -100l-67 -29l-35 94q-19 49 -71 49h-10v-145h-70v261q0 66 1 98zM327 439h45q22 0 34 12.5t12 32.5q0 46 -61 46q-14 0 -30 -3v-88z" />
    <glyph glyph-name="macron" unicode="&#xaf;" horiz-adv-x="459" 
d="M385 608h-340v78h340v-78z" />
    <glyph glyph-name="degree" unicode="&#xb0;" horiz-adv-x="415" 
d="M194 667q61 0 100 -39.5t39 -103.5q0 -68 -42.5 -104t-99.5 -36q-60 0 -99 39.5t-39 102.5q0 69 42 105t99 36zM193 596q-30 0 -47.5 -20t-17.5 -52q0 -31 17.5 -50.5t47.5 -19.5t47.5 19.5t17.5 51.5q0 33 -17.5 52t-47.5 19z" />
    <glyph glyph-name="plusminus" unicode="&#xb1;" horiz-adv-x="507" 
d="M278 332h153v-73h-153v-156h-78v156h-153v73h153v155h78v-155zM431 -1h-384v74h384v-74z" />
    <glyph glyph-name="twosuperior" unicode="&#xb2;" horiz-adv-x="322" 
d="M112 558l-68 33q8 42 38 67.5t72 25.5q43 0 70.5 -26t27.5 -65q0 -20 -5.5 -37t-18 -30.5t-22 -22t-28.5 -21.5t-26 -19l-16 -15h128v-69h-215v29q0 60 75 120q3 2 9 6.5t9 6.5t8.5 6t8 6t6.5 6t6 6.5t5 6.5t4 7t2 7t1 8q0 24 -29 24q-19 0 -31 -12.5t-12 -33.5
q0 -9 1 -14z" />
    <glyph glyph-name="threesuperior" unicode="&#xb3;" horiz-adv-x="333" 
d="M73 659h1q38 25 74 25q38 0 69 -24t31 -59q0 -28 -20 -55q34 -31 34 -77q0 -44 -34.5 -70.5t-78.5 -26.5q-41 0 -72.5 19.5t-47.5 39.5l43 54q19 -20 26 -26.5t19 -12t27 -5.5q46 0 46 32q0 14 -12 23.5t-29 10.5h-65v68h66q8 0 17 8t9 16q0 6 -8 11t-20 5q-23 0 -61 -31
l-34 59z" />
    <glyph glyph-name="acute" unicode="&#xb4;" horiz-adv-x="334" 
d="M264 665l-187 -120l-34 52l171 135z" />
    <glyph glyph-name="uni00B5" unicode="&#xb5;" horiz-adv-x="540" 
d="M436 506v-355q0 -77 43 -116l-48 -47q-30 19 -49 51q-7 16 -11 29q-63 -78 -155 -78q-39 0 -64 7q-14 4 -30 11v-251h-77v749h77v-326h1q-3 -66 21 -93q22 -23 77 -23q43 0 74 24q31 23 64 68v350h77z" />
    <glyph glyph-name="paragraph" unicode="&#xb6;" horiz-adv-x="524" 
d="M440 618v-618h-80v540h-56v-540h-80v243q-113 12 -158 54q-46 46 -46 132q0 105 65 149q61 43 221 43h44z" />
    <glyph glyph-name="periodcentered" unicode="&#xb7;" horiz-adv-x="248" 
d="M109 397q27 0 48 -20.5t21 -48.5t-21 -49t-48 -21q-28 0 -49 21t-21 49t21 48.5t49 20.5z" />
    <glyph glyph-name="cedilla" unicode="&#xb8;" horiz-adv-x="281" 
d="M146 33l-11 -50q32 -8 49.5 -35.5t17.5 -59.5q0 -46 -33 -82t-88 -31v76q8 -2 12 -2q15 0 25 12t10 28q0 28 -35 28h-43l12 116h84z" />
    <glyph glyph-name="onesuperior" unicode="&#xb9;" horiz-adv-x="243" 
d="M195 403h-70v205q-21 -7 -39 -7q-11 0 -16 1l-21 79q20 -13 34 -13q3 0 7 1t7 2t7.5 3.5t8 4t10 6t11 7t13 8.5t14.5 10h34v-307z" />
    <glyph glyph-name="ordmasculine" unicode="&#xba;" horiz-adv-x="429" 
d="M200 701q66 0 107 -43q40 -42 40 -108q0 -64 -40 -108q-42 -45 -106 -45q-67 0 -108 44q-40 43 -40 108q0 67 40 108q42 44 107 44zM200 634q-34 0 -55 -21t-21 -55q0 -47 20 -71q19 -23 54 -23q38 0 58 24q21 26 21 64q0 37 -21 60q-21 22 -56 22z" />
    <glyph glyph-name="guillemotright" unicode="&#xbb;" horiz-adv-x="626" 
d="M100 496l209 -186q35 -29 35 -55q0 -24 -35 -56l-209 -186l-51 57l208 185l-208 184zM304 496l209 -186q35 -33 35 -55q0 -23 -35 -56l-209 -186l-51 57l208 185l-208 184z" />
    <glyph glyph-name="onequarter" unicode="&#xbc;" horiz-adv-x="814" 
d="M192 201h-70v205q-21 -7 -39 -7q-11 0 -16 1l-21 79q20 -13 34 -13q3 0 7 1t7 1.5t7.5 3.5t8 4.5t10 6t11 7t13 8.5t14.5 10h34v-307zM294 -1h-83l223 509h81zM620 133h38v86h71v-86h33v-68h-33v-51h-71v51h-123v47l87 206h76z" />
    <glyph glyph-name="onehalf" unicode="&#xbd;" horiz-adv-x="805" 
d="M192 201h-70v205q-21 -7 -39 -7q-11 0 -16 1l-21 79q20 -13 34 -13q3 0 7 1t7 1.5t7.5 3.5t8 4.5t10 6t11 7t13 8.5t14.5 10h34v-307zM294 -1h-83l223 509h81zM601 190l-68 33q8 42 38 67.5t72 25.5q43 0 70.5 -26t27.5 -65q0 -20 -5.5 -37t-18 -30.5t-22 -22
t-28.5 -21.5t-26 -19l-16 -15h128v-69h-215v29q0 60 75 120q3 2 9 6.5t9 6.5t8.5 6t8 6t6.5 6t6 6.5t5 6.5t4 7t2 7t1 8q0 24 -29 24q-19 0 -31 -12.5t-12 -33.5q0 -9 1 -14z" />
    <glyph glyph-name="threequarters" unicode="&#xbe;" horiz-adv-x="904" 
d="M92 487h1q37 25 74 25q38 0 69 -24t31 -59q0 -28 -20 -55q34 -31 34 -77q0 -44 -34.5 -70.5t-78.5 -26.5q-41 0 -72.5 19.5t-47.5 39.5l43 54q19 -20 26 -26.5t19 -12t27 -5.5q46 0 46 32q0 14 -12 23.5t-29 10.5h-65v68h66q8 0 17 8t9 16q0 6 -8 11t-20 5q-23 0 -61 -31
l-34 59zM384 -1h-83l223 509h81zM710 133h38v86h71v-86h33v-68h-33v-51h-71v51h-123v47l87 206h76z" />
    <glyph glyph-name="questiondown" unicode="&#xbf;" horiz-adv-x="521" 
d="M284 444q-22 0 -39.5 18t-17.5 40q0 23 17.5 40.5t39.5 17.5q23 0 40.5 -17.5t17.5 -40.5q0 -22 -18 -40t-40 -18zM339 -9l-14 73q2 0 6 0.5t10 0.5q45 0 70 -25.5t25 -64.5q0 -44 -34 -76t-76.5 -45.5t-83.5 -13.5q-86 0 -143.5 62t-57.5 148q0 45 17 83q25 55 104 103
q8 5 28 17t26 16t19 13.5t17 14.5t10.5 14t8.5 18t2 20q0 21 -8 48l73 16q9 -34 9 -63q0 -33 -9 -58.5t-29.5 -45t-36.5 -30t-47 -28.5q-73 -41 -94 -80q-17 -31 -17 -63q0 -50 38.5 -90t95.5 -40q40 0 77 18t37 42q0 16 -23 16z" />
    <glyph glyph-name="Agrave" unicode="&#xc0;" horiz-adv-x="782" 
d="M426 726l-187 120l49 67l171 -135zM726 -1h-87l-92 221h-271l-68 -165q-11 -27 -36.5 -43t-53.5 -16q-38 0 -69 27.5t-32 65.5l77 15q3 -28 24 -28q12 0 17 12l259 600h34zM513 298l-102 243l1 2l-1 -1l-1 1l1 -3l-102 -242h204z" />
    <glyph glyph-name="Aacute" unicode="&#xc1;" horiz-adv-x="782" 
d="M403 726l-34 52l171 135l50 -67zM726 -1h-87l-92 221h-271l-68 -165q-11 -27 -36.5 -43t-53.5 -16q-38 0 -69 27.5t-32 65.5l77 15q3 -28 24 -28q12 0 17 12l259 600h34zM513 298l-102 243l1 2l-1 -1l-1 1l1 -3l-102 -242h204z" />
    <glyph glyph-name="Acircumflex" unicode="&#xc2;" horiz-adv-x="782" 
d="M339 767h-96l140 161h58l140 -161h-96l-73 81zM726 -1h-87l-92 221h-271l-68 -165q-11 -27 -36.5 -43t-53.5 -16q-38 0 -69 27.5t-32 65.5l77 15q3 -28 24 -28q12 0 17 12l259 600h34zM513 298l-102 243l1 2l-1 -1l-1 1l1 -3l-102 -242h204z" />
    <glyph glyph-name="Atilde" unicode="&#xc3;" horiz-adv-x="782" 
d="M552 885l48 -58q-26 -21 -36.5 -28.5t-33.5 -15.5t-52 -8q-22 0 -78 16l-55 16q-33 0 -74 -37l-47 58q61 54 120 54q34 0 77 -17t59 -17q28 0 72 37zM726 -1h-87l-92 221h-271l-68 -165q-11 -27 -36.5 -43t-53.5 -16q-38 0 -69 27.5t-32 65.5l77 15q3 -28 24 -28
q12 0 17 12l259 600h34zM513 298l-102 243l1 2l-1 -1l-1 1l1 -3l-102 -242h204z" />
    <glyph glyph-name="Adieresis" unicode="&#xc4;" horiz-adv-x="782" 
d="M303 781q-20 0 -36 16t-16 36q0 21 16 37t36 16q21 0 37.5 -16t16.5 -37q0 -20 -16.5 -36t-37.5 -16zM518 781q-20 0 -36 16t-16 36q0 21 16 37t36 16q21 0 37.5 -16t16.5 -37q0 -20 -16.5 -36t-37.5 -16zM726 -1h-87l-92 221h-271l-68 -165q-11 -27 -36.5 -43t-53.5 -16
q-38 0 -69 27.5t-32 65.5l77 15q3 -28 24 -28q12 0 17 12l259 600h34zM513 298l-102 243l1 2l-1 -1l-1 1l1 -3l-102 -242h204z" />
    <glyph glyph-name="Aring" unicode="&#xc5;" horiz-adv-x="782" 
d="M410 711q-49 0 -78.5 31t-29.5 80t30 80.5t80 31.5q49 0 79 -31t30 -79q0 -50 -31.5 -81.5t-79.5 -31.5zM412 868q-39 0 -39 -46q0 -22 10.5 -34t27.5 -12q18 0 29.5 13.5t11.5 34.5q0 20 -11 32t-29 12zM726 -1h-87l-92 221h-271l-68 -165q-11 -27 -36.5 -43t-53.5 -16
q-38 0 -69 27.5t-32 65.5l77 15q3 -28 24 -28q12 0 17 12l259 600h34zM513 298l-102 243l1 2l-1 -1l-1 1l1 -3l-102 -242h204z" />
    <glyph glyph-name="AE" unicode="&#xc6;" horiz-adv-x="944" 
d="M853 608h-375v-207h307v-79h-307v-244h395v-79h-478v221h-167l-114 -221h-97l361 687h475v-78zM266 298h129v240l12 38z" />
    <glyph glyph-name="Ccedilla" unicode="&#xc7;" horiz-adv-x="748" 
d="M618 178l63 -43q-45 -72 -117 -111.5t-153 -44.5l-3 -16q32 -8 49.5 -35.5t17.5 -59.5q0 -46 -33 -82t-88 -31v76q8 -2 12 -2q15 0 25 12t10 28q0 28 -35 28h-43l9 86q-125 22 -207.5 122.5t-82.5 231.5q0 151 105.5 262.5t249.5 111.5q61 0 123.5 -21.5t91.5 -65.5
q21 -34 21 -70q0 -42 -28 -72t-68 -30q-41 0 -70 29l46 59q17 -12 25 -12t13.5 8t5.5 19q0 17 -14 32q-45 48 -145 48q-115 0 -197.5 -89t-82.5 -209q0 -117 79 -199.5t195 -82.5q71 0 131 32.5t95 90.5z" />
    <glyph glyph-name="Egrave" unicode="&#xc8;" horiz-adv-x="659" 
d="M401 776l-33 -52l-187 120l49 67zM587 609h-375v-208h259v-79h-259v-244h375v-79h-458v609q-15 0 -24 -10q-11 -9 -11 -25q0 -4 2 -12h-78q0 2 -0.5 6t-0.5 7q0 44 32 78q36 34 79 34h459v-77z" />
    <glyph glyph-name="Eacute" unicode="&#xc9;" horiz-adv-x="659" 
d="M532 844l-187 -120l-34 52l171 135zM587 609h-375v-208h259v-79h-259v-244h375v-79h-458v609q-15 0 -24 -10q-11 -9 -11 -25q0 -4 2 -12h-78q0 2 -0.5 6t-0.5 7q0 44 32 78q36 34 79 34h459v-77z" />
    <glyph glyph-name="Ecircumflex" unicode="&#xca;" horiz-adv-x="659" 
d="M523 765h-96l-73 81l-73 -81h-96l140 161h58zM587 609h-375v-208h259v-79h-259v-244h375v-79h-458v609q-15 0 -24 -10q-11 -9 -11 -25q0 -4 2 -12h-78q0 2 -0.5 6t-0.5 7q0 44 32 78q36 34 79 34h459v-77z" />
    <glyph glyph-name="Edieresis" unicode="&#xcb;" horiz-adv-x="659" 
d="M245 884q21 0 37.5 -16t16.5 -37q0 -20 -16.5 -36t-37.5 -16q-20 0 -36 16t-16 36q0 21 16 37t36 16zM460 884q21 0 37.5 -16t16.5 -37q0 -20 -16.5 -36t-37.5 -16q-20 0 -36 16t-16 36q0 21 16 37t36 16zM587 609h-375v-208h259v-79h-259v-244h375v-79h-458v609
q-15 0 -24 -10q-11 -9 -11 -25q0 -4 2 -12h-78q0 2 -0.5 6t-0.5 7q0 44 32 78q36 34 79 34h459v-77z" />
    <glyph glyph-name="Igrave" unicode="&#xcc;" horiz-adv-x="228" 
d="M142 776l-33 -52l-187 120l49 67zM138 -1h-82v687h82v-687z" />
    <glyph glyph-name="Iacute" unicode="&#xcd;" horiz-adv-x="228" 
d="M273 844l-187 -120l-34 52l171 135zM138 -1h-82v687h82v-687z" />
    <glyph glyph-name="Icircumflex" unicode="&#xce;" horiz-adv-x="228" 
d="M264 765h-96l-73 81l-73 -81h-96l140 161h58zM138 -1h-82v687h82v-687z" />
    <glyph glyph-name="Idieresis" unicode="&#xcf;" horiz-adv-x="228" 
d="M-14 884q21 0 37.5 -16t16.5 -37q0 -20 -16.5 -36t-37.5 -16q-20 0 -36 16t-16 36q0 21 16 37t36 16zM201 884q21 0 37.5 -16t16.5 -37q0 -20 -16.5 -36t-37.5 -16q-20 0 -36 16t-16 36q0 21 16 37t36 16zM138 -1h-82v687h82v-687z" />
    <glyph glyph-name="Eth" unicode="&#xd0;" horiz-adv-x="811" 
d="M129 691h291q148 -13 233.5 -109t85.5 -252q0 -339 -433 -339q-71 0 -111 4l-27 2h-1l-29 4v307h-82v79h82v227q-25 -2 -34 -12q-9 -8 -9 -23l-12 -12h-66q-4 55 33 92q35 33 79 32zM221 308v-237q90 -5 154 -5q129 0 205.5 71.5t76.5 201.5q0 121 -67 195.5t-181 79.5
h-188v-227h146v-79h-146z" />
    <glyph glyph-name="Ntilde" unicode="&#xd1;" horiz-adv-x="787" 
d="M562 883l48 -58q-26 -21 -36.5 -28.5t-33.5 -15.5t-52 -8q-22 0 -78 16l-55 16q-33 0 -74 -37l-47 58q61 54 120 54q34 0 77 -17t59 -17q28 0 72 37zM303 561l331 -397l-11 13v508h81v-686h-35l-461 551l12 -11v-445q0 -45 -34.5 -71.5t-71.5 -26.5t-67 29.5t-30 68.5
q0 8 1 12h79q-3 -6 -3 -11q0 -9 7 -15.5t16 -6.5t15 6.5t6 14.5v592h54z" />
    <glyph glyph-name="Ograve" unicode="&#xd2;" horiz-adv-x="815" 
d="M438 776l-33 -52l-187 120l49 67zM42 331v19q0 144 102.5 251t247.5 107q144 0 247.5 -107t103.5 -251v-19q0 -147 -101.5 -252.5t-245.5 -105.5q-145 0 -249.5 106.5t-104.5 251.5zM666 331v19q0 117 -81.5 199t-193.5 82q-113 0 -192 -84t-79 -197v-19
q0 -116 80.5 -198.5t192.5 -82.5q113 0 193 83t80 198z" />
    <glyph glyph-name="Oacute" unicode="&#xd3;" horiz-adv-x="815" 
d="M569 844l-187 -120l-34 52l171 135zM42 331v19q0 144 102.5 251t247.5 107q144 0 247.5 -107t103.5 -251v-19q0 -147 -101.5 -252.5t-245.5 -105.5q-145 0 -249.5 106.5t-104.5 251.5zM666 331v19q0 117 -81.5 199t-193.5 82q-113 0 -192 -84t-79 -197v-19
q0 -116 80.5 -198.5t192.5 -82.5q113 0 193 83t80 198z" />
    <glyph glyph-name="Ocircumflex" unicode="&#xd4;" horiz-adv-x="815" 
d="M560 765h-96l-73 81l-73 -81h-96l140 161h58zM42 331v19q0 144 102.5 251t247.5 107q144 0 247.5 -107t103.5 -251v-19q0 -147 -101.5 -252.5t-245.5 -105.5q-145 0 -249.5 106.5t-104.5 251.5zM666 331v19q0 117 -81.5 199t-193.5 82q-113 0 -192 -84t-79 -197v-19
q0 -116 80.5 -198.5t192.5 -82.5q113 0 193 83t80 198z" />
    <glyph glyph-name="Otilde" unicode="&#xd5;" horiz-adv-x="815" 
d="M531 883l48 -58q-26 -21 -36.5 -28.5t-33.5 -15.5t-52 -8q-22 0 -77 16l-56 16q-33 0 -74 -37l-47 58q61 54 120 54q34 0 77 -17t59 -17q28 0 72 37zM42 331v19q0 144 102.5 251t247.5 107q144 0 247.5 -107t103.5 -251v-19q0 -147 -101.5 -252.5t-245.5 -105.5
q-145 0 -249.5 106.5t-104.5 251.5zM666 331v19q0 117 -81.5 199t-193.5 82q-113 0 -192 -84t-79 -197v-19q0 -116 80.5 -198.5t192.5 -82.5q113 0 193 83t80 198z" />
    <glyph glyph-name="Odieresis" unicode="&#xd6;" horiz-adv-x="815" 
d="M282 884q21 0 37.5 -16t16.5 -37q0 -20 -16.5 -36t-37.5 -16q-20 0 -36 16t-16 36q0 21 16 37t36 16zM497 884q21 0 37.5 -16t16.5 -37q0 -20 -16.5 -36t-37.5 -16q-20 0 -36 16t-16 36q0 21 16 37t36 16zM42 331v19q0 144 102.5 251t247.5 107q144 0 247.5 -107
t103.5 -251v-19q0 -147 -101.5 -252.5t-245.5 -105.5q-145 0 -249.5 106.5t-104.5 251.5zM666 331v19q0 117 -81.5 199t-193.5 82q-113 0 -192 -84t-79 -197v-19q0 -116 80.5 -198.5t192.5 -82.5q113 0 193 83t80 198z" />
    <glyph glyph-name="multiply" unicode="&#xd7;" horiz-adv-x="530" 
d="M446 409l-138 -138l144 -144l-58 -59l-144 145l-145 -146l-56 57l145 144l-138 139l58 58l138 -139l137 139z" />
    <glyph glyph-name="Oslash" unicode="&#xd8;" horiz-adv-x="815" 
d="M642 679l-32 -51q62 -51 97.5 -124t35.5 -154v-19q0 -147 -101.5 -252.5t-245.5 -105.5q-88 0 -167 44l-34 -56l-84 26l50 79q-119 108 -119 265v19q0 144 102.5 251t247.5 107q77 0 149 -35l20 31zM120 350v-19q0 -116 82 -200l298 476q-51 24 -109 24q-113 0 -192 -84
t-79 -197zM666 331v19q0 129 -96 213l-301 -482q59 -31 124 -31q113 0 193 83t80 198z" />
    <glyph glyph-name="Ugrave" unicode="&#xd9;" horiz-adv-x="759" 
d="M453 776l-33 -52l-187 120l49 67zM86 591l-69 47q12 24 39.5 40.5t55.5 16.5q48 0 77 -28.5t29 -78.5v-317q0 -89 49 -146.5t140 -57.5q94 0 141 60.5t47 143.5v416h83v-416q0 -71 -27.5 -132.5t-90.5 -104.5t-152 -43q-127 0 -200 81.5t-73 198.5v317q0 25 -21 25
t-28 -22z" />
    <glyph glyph-name="Uacute" unicode="&#xda;" horiz-adv-x="759" 
d="M584 844l-187 -120l-34 52l171 135zM86 591l-69 47q12 24 39.5 40.5t55.5 16.5q48 0 77 -28.5t29 -78.5v-317q0 -89 49 -146.5t140 -57.5q94 0 141 60.5t47 143.5v416h83v-416q0 -71 -27.5 -132.5t-90.5 -104.5t-152 -43q-127 0 -200 81.5t-73 198.5v317q0 25 -21 25
t-28 -22z" />
    <glyph glyph-name="Ucircumflex" unicode="&#xdb;" horiz-adv-x="759" 
d="M575 765h-96l-73 81l-73 -81h-96l140 161h58zM86 591l-69 47q12 24 39.5 40.5t55.5 16.5q48 0 77 -28.5t29 -78.5v-317q0 -89 49 -146.5t140 -57.5q94 0 141 60.5t47 143.5v416h83v-416q0 -71 -27.5 -132.5t-90.5 -104.5t-152 -43q-127 0 -200 81.5t-73 198.5v317
q0 25 -21 25t-28 -22z" />
    <glyph glyph-name="Udieresis" unicode="&#xdc;" horiz-adv-x="759" 
d="M297 884q21 0 37.5 -16t16.5 -37q0 -20 -16.5 -36t-37.5 -16q-20 0 -36 16t-16 36q0 21 16 37t36 16zM512 884q21 0 37.5 -16t16.5 -37q0 -20 -16.5 -36t-37.5 -16q-20 0 -36 16t-16 36q0 21 16 37t36 16zM86 591l-69 47q12 24 39.5 40.5t55.5 16.5q48 0 77 -28.5
t29 -78.5v-317q0 -89 49 -146.5t140 -57.5q94 0 141 60.5t47 143.5v416h83v-416q0 -71 -27.5 -132.5t-90.5 -104.5t-152 -43q-127 0 -200 81.5t-73 198.5v317q0 25 -21 25t-28 -22z" />
    <glyph glyph-name="Yacute" unicode="&#xdd;" horiz-adv-x="643" 
d="M520 844l-187 -120l-34 52l171 135zM101 585l-84 8q-1 46 31.5 74.5t71.5 28.5q55 0 87 -53l139 -253l165 297h94l-216 -389v-299h-87l3 297l-169 309q-8 10 -19 10q-8 0 -14 -5t-6 -13q0 -4 4 -12z" />
    <glyph glyph-name="Thorn" unicode="&#xde;" horiz-adv-x="549" 
d="M137 569h141q90 -5 143.5 -63.5t53.5 -152.5q0 -109 -69 -165t-177 -56q-30 0 -66 6v77q44 -7 69 -7q74 0 118 37t44 111q0 67 -36 102t-100 35h-121v-494h-82v687h82v-117z" />
    <glyph glyph-name="germandbls" unicode="&#xdf;" horiz-adv-x="532" 
d="M55 -243v733q0 245 169 245q67 0 107.5 -38t40.5 -96q0 -42 -9.5 -65t-23.5 -30.5t-28 -13t-23.5 -20.5t-9.5 -46q0 -28 20 -47.5t55.5 -40t54.5 -39.5q50 -50 50 -135q0 -90 -59.5 -132t-152.5 -42q-26 0 -115 7v-240h-76zM131 493v-423q50 -6 106 -6q79 0 112.5 22.5
t33.5 76.5q0 58 -43 98q-14 13 -42.5 30t-46.5 29.5t-33 39t-15 62.5q0 44 9.5 68t22.5 30.5t26 11t22.5 19.5t9.5 46t-19.5 47.5t-51.5 16.5q-28 0 -47 -13t-28 -38t-12.5 -52t-3.5 -65z" />
    <glyph glyph-name="agrave" unicode="&#xe0;" horiz-adv-x="625" 
d="M328 605l-33 -52l-187 120l49 67zM519 87l63 -43q-13 -27 -37 -40.5t-49 -13.5q-29 0 -54.5 17t-37.5 44q-49 -61 -142 -61q-103 0 -161 76t-58 184q0 117 67.5 191.5t180.5 74.5q53 0 118 -9h64v-418q0 -10 7 -16.5t15 -6.5q15 0 24 21zM396 193v241q-8 0 -50.5 4
t-59.5 4q-78 0 -121 -53t-43 -137q0 -78 36.5 -133t104.5 -55q85 0 121 73q12 24 12 56z" />
    <glyph glyph-name="aacute" unicode="&#xe1;" horiz-adv-x="625" 
d="M459 673l-187 -120l-34 52l171 135zM519 87l63 -43q-13 -27 -37 -40.5t-49 -13.5q-29 0 -54.5 17t-37.5 44q-49 -61 -142 -61q-103 0 -161 76t-58 184q0 117 67.5 191.5t180.5 74.5q53 0 118 -9h64v-418q0 -10 7 -16.5t15 -6.5q15 0 24 21zM396 193v241q-8 0 -50.5 4
t-59.5 4q-78 0 -121 -53t-43 -137q0 -78 36.5 -133t104.5 -55q85 0 121 73q12 24 12 56z" />
    <glyph glyph-name="acircumflex" unicode="&#xe2;" horiz-adv-x="625" 
d="M450 594h-96l-73 81l-73 -81h-96l140 161h58zM519 87l63 -43q-13 -27 -37 -40.5t-49 -13.5q-29 0 -54.5 17t-37.5 44q-49 -61 -142 -61q-103 0 -161 76t-58 184q0 117 67.5 191.5t180.5 74.5q53 0 118 -9h64v-418q0 -10 7 -16.5t15 -6.5q15 0 24 21zM396 193v241
q-8 0 -50.5 4t-59.5 4q-78 0 -121 -53t-43 -137q0 -78 36.5 -133t104.5 -55q85 0 121 73q12 24 12 56z" />
    <glyph glyph-name="atilde" unicode="&#xe3;" horiz-adv-x="625" 
d="M421 712l48 -58q-26 -21 -36.5 -28.5t-33.5 -15.5t-52 -8q-22 0 -77 16l-56 16q-33 0 -74 -37l-47 58q61 54 120 54q34 0 77 -17t59 -17q28 0 72 37zM519 87l63 -43q-13 -27 -37 -40.5t-49 -13.5q-29 0 -54.5 17t-37.5 44q-49 -61 -142 -61q-103 0 -161 76t-58 184
q0 117 67.5 191.5t180.5 74.5q53 0 118 -9h64v-418q0 -10 7 -16.5t15 -6.5q15 0 24 21zM396 193v241q-8 0 -50.5 4t-59.5 4q-78 0 -121 -53t-43 -137q0 -78 36.5 -133t104.5 -55q85 0 121 73q12 24 12 56z" />
    <glyph glyph-name="adieresis" unicode="&#xe4;" horiz-adv-x="625" 
d="M172 713q21 0 37.5 -16t16.5 -37q0 -20 -16.5 -36t-37.5 -16q-20 0 -36 16t-16 36q0 21 16 37t36 16zM387 713q21 0 37.5 -16t16.5 -37q0 -20 -16.5 -36t-37.5 -16q-20 0 -36 16t-16 36q0 21 16 37t36 16zM519 87l63 -43q-13 -27 -37 -40.5t-49 -13.5q-29 0 -54.5 17
t-37.5 44q-49 -61 -142 -61q-103 0 -161 76t-58 184q0 117 67.5 191.5t180.5 74.5q53 0 118 -9h64v-418q0 -10 7 -16.5t15 -6.5q15 0 24 21zM396 193v241q-8 0 -50.5 4t-59.5 4q-78 0 -121 -53t-43 -137q0 -78 36.5 -133t104.5 -55q85 0 121 73q12 24 12 56z" />
    <glyph glyph-name="aring" unicode="&#xe5;" horiz-adv-x="625" 
d="M281 761q49 0 79 -31t30 -79q0 -50 -31.5 -81.5t-79.5 -31.5q-49 0 -78.5 31t-29.5 80t30 80.5t80 31.5zM281 695q-39 0 -39 -46q0 -22 10.5 -34t27.5 -12q18 0 29.5 13.5t11.5 34.5q0 20 -11 32t-29 12zM519 87l63 -43q-13 -27 -37 -40.5t-49 -13.5q-29 0 -54.5 17
t-37.5 44q-49 -61 -142 -61q-103 0 -161 76t-58 184q0 117 67.5 191.5t180.5 74.5q53 0 118 -9h64v-418q0 -10 7 -16.5t15 -6.5q15 0 24 21zM396 193v241q-8 0 -50.5 4t-59.5 4q-78 0 -121 -53t-43 -137q0 -78 36.5 -133t104.5 -55q85 0 121 73q12 24 12 56z" />
    <glyph glyph-name="ae" unicode="&#xe6;" horiz-adv-x="831" 
d="M105 384l-38 60q35 33 85 52q51 20 100 20q65 0 105 -32q28 -25 41 -57q25 35 58 57q45 32 104 32q81 0 133 -43q55 -47 55 -118q0 -45 -20 -76q-35 -58 -123 -78q-48 -8 -82 -8h-101q9 -60 43 -94q37 -35 106 -35q39 0 74 12q40 14 82 38l37 -60q-40 -29 -91 -47
q-48 -17 -103 -17q-76 0 -127 33q-38 25 -60 64q-17 -39 -50 -62q-49 -35 -122 -35q-75 0 -121 37q-48 40 -48 111q0 46 19 76q27 44 83 62t114 18h83v43q0 56 -22 81q-21 24 -64 24q-41 0 -77 -15q-42 -16 -73 -43zM418 267h105q86 0 123 30q24 21 24 58q0 44 -30 67
t-74 23q-67 0 -108 -57q-37 -51 -40 -121zM341 222h-83q-62 0 -97 -16q-40 -19 -40 -70q0 -42 22.5 -57t61.5 -15q63 0 98 31q38 32 38 88v39z" />
    <glyph glyph-name="ccedilla" unicode="&#xe7;" horiz-adv-x="534" 
d="M303 -5l-3 -12q32 -8 49.5 -35.5t17.5 -59.5q0 -46 -33 -82t-88 -31v76q8 -2 12 -2q15 0 25 12t10 28q0 28 -35 28h-43l8 81q-87 15 -133.5 80t-46.5 164q0 118 61 197.5t162 79.5q78 0 135 -47.5t51 -122.5h-79q5 47 -25.5 73.5t-77.5 26.5q-72 0 -110.5 -62.5
t-38.5 -145.5t40 -128.5t113 -45.5q64 0 157 51l37 -60q-75 -55 -165 -63z" />
    <glyph glyph-name="egrave" unicode="&#xe8;" horiz-adv-x="536" 
d="M312 605l-33 -52l-187 120l49 67zM431 114l37 -60q-89 -64 -196 -64q-112 0 -170.5 68.5t-58.5 175.5q0 50 13 98.5t39 90.5t71 67.5t102 25.5q77 0 130.5 -44.5t53.5 -116.5q0 -77 -61.5 -119.5t-163.5 -42.5h-101q22 -129 146 -129q66 0 159 50zM122 267h105
q148 0 148 88q0 43 -30 66.5t-74 23.5q-69 0 -107 -56t-42 -122z" />
    <glyph glyph-name="eacute" unicode="&#xe9;" horiz-adv-x="536" 
d="M443 673l-187 -120l-34 52l171 135zM431 114l37 -60q-89 -64 -196 -64q-112 0 -170.5 68.5t-58.5 175.5q0 50 13 98.5t39 90.5t71 67.5t102 25.5q77 0 130.5 -44.5t53.5 -116.5q0 -77 -61.5 -119.5t-163.5 -42.5h-101q22 -129 146 -129q66 0 159 50zM122 267h105
q148 0 148 88q0 43 -30 66.5t-74 23.5q-69 0 -107 -56t-42 -122z" />
    <glyph glyph-name="ecircumflex" unicode="&#xea;" horiz-adv-x="536" 
d="M434 594h-96l-73 81l-73 -81h-96l140 161h58zM431 114l37 -60q-89 -64 -196 -64q-112 0 -170.5 68.5t-58.5 175.5q0 50 13 98.5t39 90.5t71 67.5t102 25.5q77 0 130.5 -44.5t53.5 -116.5q0 -77 -61.5 -119.5t-163.5 -42.5h-101q22 -129 146 -129q66 0 159 50zM122 267
h105q148 0 148 88q0 43 -30 66.5t-74 23.5q-69 0 -107 -56t-42 -122z" />
    <glyph glyph-name="edieresis" unicode="&#xeb;" horiz-adv-x="536" 
d="M156 713q21 0 37.5 -16t16.5 -37q0 -20 -16.5 -36t-37.5 -16q-20 0 -36 16t-16 36q0 21 16 37t36 16zM371 713q21 0 37.5 -16t16.5 -37q0 -20 -16.5 -36t-37.5 -16q-20 0 -36 16t-16 36q0 21 16 37t36 16zM431 114l37 -60q-89 -64 -196 -64q-112 0 -170.5 68.5
t-58.5 175.5q0 50 13 98.5t39 90.5t71 67.5t102 25.5q77 0 130.5 -44.5t53.5 -116.5q0 -77 -61.5 -119.5t-163.5 -42.5h-101q22 -129 146 -129q66 0 159 50zM122 267h105q148 0 148 88q0 43 -30 66.5t-74 23.5q-69 0 -107 -56t-42 -122z" />
    <glyph glyph-name="igrave" unicode="&#xec;" horiz-adv-x="260" 
d="M131 597l-33 -52l-187 120l49 67zM122 508v-419q0 -9 7 -16t15 -7q16 0 22 21l66 -43q-13 -24 -37 -39t-51 -15q-40 0 -69.5 29t-29.5 70v419h77z" />
    <glyph glyph-name="iacute" unicode="&#xed;" horiz-adv-x="260" 
d="M262 665l-187 -120l-34 52l171 135zM122 508v-419q0 -9 7 -16t15 -7q16 0 22 21l66 -43q-13 -24 -37 -39t-51 -15q-40 0 -69.5 29t-29.5 70v419h77z" />
    <glyph glyph-name="icircumflex" unicode="&#xee;" horiz-adv-x="260" 
d="M253 586h-96l-73 81l-73 -81h-96l140 161h58zM122 508v-419q0 -9 7 -16t15 -7q16 0 22 21l66 -43q-13 -24 -37 -39t-51 -15q-40 0 -69.5 29t-29.5 70v419h77z" />
    <glyph glyph-name="idieresis" unicode="&#xef;" horiz-adv-x="260" 
d="M-25 705q21 0 37.5 -16t16.5 -37q0 -20 -16.5 -36t-37.5 -16q-20 0 -36 16t-16 36q0 21 16 37t36 16zM190 705q21 0 37.5 -16t16.5 -37q0 -20 -16.5 -36t-37.5 -16q-20 0 -36 16t-16 36q0 21 16 37t36 16zM122 508v-419q0 -9 7 -16t15 -7q16 0 22 21l66 -43
q-13 -24 -37 -39t-51 -15q-40 0 -69.5 29t-29.5 70v419h77z" />
    <glyph glyph-name="eth" unicode="&#xf0;" horiz-adv-x="610" 
d="M408 650l96 30l21 -76l-91 -29q56 -168 70 -218.5t14 -97.5q0 -125 -61.5 -197t-170.5 -72q-112 0 -177.5 73.5t-65.5 186.5q0 114 66.5 190t175.5 76q29 0 87 -8l-15 42l-92 -29l-21 76l87 29l-39 101l79 24zM306 441q-93 0 -139 -48.5t-46 -136.5q0 -89 43 -140.5
t121 -51.5q76 0 115 49t39 134q0 71 -40 181q-74 13 -93 13z" />
    <glyph glyph-name="ntilde" unicode="&#xf1;" 
d="M434 712l48 -58q-26 -21 -36.5 -28.5t-33.5 -15.5t-52 -8q-22 0 -78 16l-55 16q-33 0 -74 -37l-47 58q61 54 120 54q34 0 77 -17t59 -17q28 0 72 37zM27 469l49 47q43 -25 60 -78q65 78 165 78q76 0 120 -39t48 -114v-277q0 -9 7.5 -16t15.5 -6q12 0 24 18l63 -41
q-30 -54 -88 -54q-42 0 -70.5 30t-28.5 69v251q0 55 -23 80t-73 25q-47 0 -80 -22t-68 -68v-353h-77v355q0 78 -44 115z" />
    <glyph glyph-name="ograve" unicode="&#xf2;" 
d="M343 605l-33 -52l-187 120l49 67zM296 516q110 0 181.5 -75t71.5 -189q0 -115 -72 -188.5t-182 -73.5q-111 0 -181.5 74.5t-70.5 186.5q0 113 71 189t182 76zM296 442q-82 0 -128 -53.5t-46 -136.5q0 -85 47 -136.5t127 -51.5q81 0 127.5 53.5t46.5 138.5t-47.5 135.5
t-126.5 50.5z" />
    <glyph glyph-name="oacute" unicode="&#xf3;" 
d="M474 673l-187 -120l-34 52l171 135zM296 516q110 0 181.5 -75t71.5 -189q0 -115 -72 -188.5t-182 -73.5q-111 0 -181.5 74.5t-70.5 186.5q0 113 71 189t182 76zM296 442q-82 0 -128 -53.5t-46 -136.5q0 -85 47 -136.5t127 -51.5q81 0 127.5 53.5t46.5 138.5t-47.5 135.5
t-126.5 50.5z" />
    <glyph glyph-name="ocircumflex" unicode="&#xf4;" 
d="M465 594h-96l-73 81l-73 -81h-96l140 161h58zM296 516q110 0 181.5 -75t71.5 -189q0 -115 -72 -188.5t-182 -73.5q-111 0 -181.5 74.5t-70.5 186.5q0 113 71 189t182 76zM296 442q-82 0 -128 -53.5t-46 -136.5q0 -85 47 -136.5t127 -51.5q81 0 127.5 53.5t46.5 138.5
t-47.5 135.5t-126.5 50.5z" />
    <glyph glyph-name="otilde" unicode="&#xf5;" 
d="M436 712l48 -58q-26 -21 -36.5 -28.5t-33.5 -15.5t-52 -8q-22 0 -78 16l-55 16q-33 0 -74 -37l-47 58q61 54 120 54q34 0 77 -17t59 -17q28 0 72 37zM296 516q110 0 181.5 -75t71.5 -189q0 -115 -72 -188.5t-182 -73.5q-111 0 -181.5 74.5t-70.5 186.5q0 113 71 189
t182 76zM296 442q-82 0 -128 -53.5t-46 -136.5q0 -85 47 -136.5t127 -51.5q81 0 127.5 53.5t46.5 138.5t-47.5 135.5t-126.5 50.5z" />
    <glyph glyph-name="odieresis" unicode="&#xf6;" 
d="M187 713q21 0 37.5 -16t16.5 -37q0 -20 -16.5 -36t-37.5 -16q-20 0 -36 16t-16 36q0 21 16 37t36 16zM402 713q21 0 37.5 -16t16.5 -37q0 -20 -16.5 -36t-37.5 -16q-20 0 -36 16t-16 36q0 21 16 37t36 16zM296 516q110 0 181.5 -75t71.5 -189q0 -115 -72 -188.5
t-182 -73.5q-111 0 -181.5 74.5t-70.5 186.5q0 113 71 189t182 76zM296 442q-82 0 -128 -53.5t-46 -136.5q0 -85 47 -136.5t127 -51.5q81 0 127.5 53.5t46.5 138.5t-47.5 135.5t-126.5 50.5z" />
    <glyph glyph-name="divide" unicode="&#xf7;" horiz-adv-x="505" 
d="M252 504q21 0 37.5 -16t16.5 -37q0 -20 -16.5 -36t-37.5 -16q-20 0 -36 16t-16 36q0 21 16 37t36 16zM430 259h-384v73h384v-73zM252 214q21 0 37.5 -16t16.5 -37q0 -20 -16.5 -36t-37.5 -16q-20 0 -36 16t-16 36q0 21 16 37t36 16z" />
    <glyph glyph-name="oslash" unicode="&#xf8;" 
d="M496 489l-27 -39q80 -73 80 -195q0 -124 -77 -195t-178 -71q-57 0 -109 23l-21 -37l-69 41l27 38q-79 70 -79 196q0 113 70.5 189.5t181.5 76.5q61 0 110 -23l23 38zM162 118l204 311q-23 13 -62 13q-83 0 -132.5 -52t-49.5 -141q0 -82 40 -131zM430 387l-202 -313
q30 -11 67 -11q74 0 124.5 52t50.5 145q0 81 -40 127z" />
    <glyph glyph-name="ugrave" unicode="&#xf9;" horiz-adv-x="635" 
d="M319 597l-33 -52l-187 120l49 67zM28 457l42 64q22 -17 32.5 -25.5t27.5 -26.5t24.5 -38t7.5 -43v-218q0 -54 23.5 -79.5t73.5 -25.5q47 0 79 21t69 69v353h76v-420q0 -9 7 -16t16 -7q14 0 23 20l65 -44q-32 -52 -87 -52q-34 0 -60.5 20t-36.5 51q-62 -68 -156 -68
q-76 0 -120 38.5t-48 113.5v244q0 11 -8 23t-16.5 19.5t-20 16t-13.5 10.5z" />
    <glyph glyph-name="uacute" unicode="&#xfa;" horiz-adv-x="635" 
d="M450 665l-187 -120l-34 52l171 135zM28 457l42 64q22 -17 32.5 -25.5t27.5 -26.5t24.5 -38t7.5 -43v-218q0 -54 23.5 -79.5t73.5 -25.5q47 0 79 21t69 69v353h76v-420q0 -9 7 -16t16 -7q14 0 23 20l65 -44q-32 -52 -87 -52q-34 0 -60.5 20t-36.5 51q-62 -68 -156 -68
q-76 0 -120 38.5t-48 113.5v244q0 11 -8 23t-16.5 19.5t-20 16t-13.5 10.5z" />
    <glyph glyph-name="ucircumflex" unicode="&#xfb;" horiz-adv-x="635" 
d="M441 586h-96l-73 81l-73 -81h-96l140 161h58zM28 457l42 64q22 -17 32.5 -25.5t27.5 -26.5t24.5 -38t7.5 -43v-218q0 -54 23.5 -79.5t73.5 -25.5q47 0 79 21t69 69v353h76v-420q0 -9 7 -16t16 -7q14 0 23 20l65 -44q-32 -52 -87 -52q-34 0 -60.5 20t-36.5 51
q-62 -68 -156 -68q-76 0 -120 38.5t-48 113.5v244q0 11 -8 23t-16.5 19.5t-20 16t-13.5 10.5z" />
    <glyph glyph-name="udieresis" unicode="&#xfc;" horiz-adv-x="635" 
d="M163 705q21 0 37.5 -16t16.5 -37q0 -20 -16.5 -36t-37.5 -16q-20 0 -36 16t-16 36q0 21 16 37t36 16zM378 705q21 0 37.5 -16t16.5 -37q0 -20 -16.5 -36t-37.5 -16q-20 0 -36 16t-16 36q0 21 16 37t36 16zM28 457l42 64q22 -17 32.5 -25.5t27.5 -26.5t24.5 -38t7.5 -43
v-218q0 -54 23.5 -79.5t73.5 -25.5q47 0 79 21t69 69v353h76v-420q0 -9 7 -16t16 -7q14 0 23 20l65 -44q-32 -52 -87 -52q-34 0 -60.5 20t-36.5 51q-62 -68 -156 -68q-76 0 -120 38.5t-48 113.5v244q0 11 -8 23t-16.5 19.5t-20 16t-13.5 10.5z" />
    <glyph glyph-name="yacute" unicode="&#xfd;" horiz-adv-x="567" 
d="M275 545l-34 52l171 135l50 -67zM483 508v-610q0 -81 -44.5 -128t-111.5 -47q-71 0 -113 49t-42 114q0 68 35 110q-58 12 -89.5 50.5t-31.5 98.5v243q0 16 -26 42t-32 25l42 66q30 -23 46 -37.5t31 -40.5t15 -55v-218q0 -105 96 -105q44 0 74.5 18.5t62.5 57.5v-1
q11 15 12 37v331h76zM363 11l-49 -25q-36 -19 -51.5 -41t-15.5 -57q0 -40 21 -65t58 -25q38 0 60 26t22 70v148q-26 -21 -45 -31z" />
    <glyph glyph-name="thorn" unicode="&#xfe;" horiz-adv-x="556" 
d="M131 727v-48q0 -121 -3 -217q51 54 137 54q103 0 161 -75.5t58 -184.5q0 -116 -67 -190.5t-182 -74.5q-43 0 -104 7v-240h-76v969h76zM131 330v-258q81 -8 99 -8q87 0 131 50.5t44 135.5q0 81 -37 137t-103 56q-49 0 -88 -31t-46 -82z" />
    <glyph glyph-name="ydieresis" unicode="&#xff;" horiz-adv-x="567" 
d="M175 600q-20 0 -36 16t-16 36q0 21 16 37t36 16q21 0 37.5 -16t16.5 -37q0 -20 -16.5 -36t-37.5 -16zM390 600q-20 0 -36 16t-16 36q0 21 16 37t36 16q21 0 37.5 -16t16.5 -37q0 -20 -16.5 -36t-37.5 -16zM483 508v-610q0 -81 -44.5 -128t-111.5 -47q-71 0 -113 49
t-42 114q0 68 35 110q-58 12 -89.5 50.5t-31.5 98.5v243q0 16 -26 42t-32 25l42 66q30 -23 46 -37.5t31 -40.5t15 -55v-218q0 -105 96 -105q44 0 74.5 18.5t62.5 57.5v-1q11 15 12 37v331h76zM363 11l-49 -25q-36 -19 -51.5 -41t-15.5 -57q0 -40 21 -65t58 -25q38 0 60 26
t22 70v148q-26 -21 -45 -31z" />
    <glyph glyph-name="Amacron" unicode="&#x100;" horiz-adv-x="782" 
d="M582 789h-340v78h340v-78zM726 -1h-87l-92 221h-271l-68 -165q-11 -27 -36.5 -43t-53.5 -16q-38 0 -69 27.5t-32 65.5l77 15q3 -28 24 -28q12 0 17 12l259 600h34zM513 298l-102 243l1 2l-1 -1l-1 1l1 -3l-102 -242h204z" />
    <glyph glyph-name="amacron" unicode="&#x101;" horiz-adv-x="625" 
d="M451 616h-340v78h340v-78zM519 87l63 -43q-13 -27 -37 -40.5t-49 -13.5q-29 0 -54.5 17t-37.5 44q-49 -61 -142 -61q-103 0 -161 76t-58 184q0 117 67.5 191.5t180.5 74.5q53 0 118 -9h64v-418q0 -10 7 -16.5t15 -6.5q15 0 24 21zM396 193v241q-8 0 -50.5 4t-59.5 4
q-78 0 -121 -53t-43 -137q0 -78 36.5 -133t104.5 -55q85 0 121 73q12 24 12 56z" />
    <glyph glyph-name="Abreve" unicode="&#x102;" horiz-adv-x="782" 
d="M478 911h83q1 -74 -39 -115t-110 -41q-73 0 -112.5 43.5t-37.5 112.5h82q0 -81 69 -81q36 0 51.5 20t13.5 61zM726 -1h-87l-92 221h-271l-68 -165q-11 -27 -36.5 -43t-53.5 -16q-38 0 -69 27.5t-32 65.5l77 15q3 -28 24 -28q12 0 17 12l259 600h34zM513 298l-102 243l1 2
l-1 -1l-1 1l1 -3l-102 -242h204z" />
    <glyph glyph-name="abreve" unicode="&#x103;" horiz-adv-x="625" 
d="M347 738h83q1 -74 -39 -115t-110 -41q-73 0 -112.5 43.5t-37.5 112.5h82q0 -81 69 -81q36 0 51.5 20t13.5 61zM519 87l63 -43q-13 -27 -37 -40.5t-49 -13.5q-29 0 -54.5 17t-37.5 44q-49 -61 -142 -61q-103 0 -161 76t-58 184q0 117 67.5 191.5t180.5 74.5q53 0 118 -9
h64v-418q0 -10 7 -16.5t15 -6.5q15 0 24 21zM396 193v241q-8 0 -50.5 4t-59.5 4q-78 0 -121 -53t-43 -137q0 -78 36.5 -133t104.5 -55q85 0 121 73q12 24 12 56z" />
    <glyph glyph-name="Aogonek" unicode="&#x104;" horiz-adv-x="782" 
d="M714 -116l35 -64q-17 -17 -46.5 -27t-55.5 -10q-41 0 -68 28.5t-27 69.5q0 33 18.5 59t64.5 69l-88 211h-271l-68 -165q-11 -27 -36.5 -43t-53.5 -16q-38 0 -69 27.5t-32 65.5l77 15q3 -28 24 -28q12 0 17 12l259 600h34l298 -689h-9q-55 -58 -70.5 -78t-15.5 -37
q0 -27 30 -27q23 0 53 27zM513 298l-102 243l1 2l-1 -1l-1 1l1 -3l-102 -242h204z" />
    <glyph glyph-name="aogonek" unicode="&#x105;" horiz-adv-x="625" 
d="M551 -106l35 -64q-17 -17 -46.5 -27t-55.5 -10q-41 0 -68 28.5t-27 69.5q0 30 15 54t48 56q-32 15 -48 50q-49 -61 -142 -61q-103 0 -161 76t-58 184q0 117 67.5 191.5t180.5 74.5q53 0 118 -9h64v-418q0 -10 7 -16.5t15 -6.5q15 0 24 21l63 -43q-11 -23 -27 -34
q-55 -58 -71 -78.5t-16 -37.5q0 -27 30 -27q23 0 53 27zM396 193v241q-8 0 -50.5 4t-59.5 4q-78 0 -121 -53t-43 -137q0 -78 36.5 -133t104.5 -55q85 0 121 73q12 24 12 56z" />
    <glyph glyph-name="Cacute" unicode="&#x106;" horiz-adv-x="748" 
d="M553 872l-187 -120l-34 52l171 135zM618 178l63 -43q-48 -76 -126 -116.5t-164 -40.5q-146 0 -247.5 106t-101.5 253q0 151 105.5 262.5t249.5 111.5q61 0 123.5 -21.5t91.5 -65.5q21 -34 21 -70q0 -42 -28 -72t-68 -30q-41 0 -70 29l46 59q17 -12 25 -12t13.5 8t5.5 19
q0 17 -14 32q-45 48 -145 48q-115 0 -197.5 -89t-82.5 -209q0 -117 79 -199.5t195 -82.5q71 0 131 32.5t95 90.5z" />
    <glyph glyph-name="cacute" unicode="&#x107;" horiz-adv-x="534" 
d="M443 665l-187 -120l-34 52l171 135zM431 118l37 -60q-89 -64 -194 -64q-111 0 -171 67.5t-60 180.5q0 118 61 197.5t162 79.5q78 0 135 -47.5t51 -122.5h-79q5 47 -25.5 73.5t-77.5 26.5q-72 0 -110.5 -62.5t-38.5 -145.5t40 -128.5t113 -45.5q64 0 157 51z" />
    <glyph glyph-name="Ccircumflex" unicode="&#x108;" horiz-adv-x="748" 
d="M544 793h-96l-73 81l-73 -81h-96l140 161h58zM618 178l63 -43q-48 -76 -126 -116.5t-164 -40.5q-146 0 -247.5 106t-101.5 253q0 151 105.5 262.5t249.5 111.5q61 0 123.5 -21.5t91.5 -65.5q21 -34 21 -70q0 -42 -28 -72t-68 -30q-41 0 -70 29l46 59q17 -12 25 -12
t13.5 8t5.5 19q0 17 -14 32q-45 48 -145 48q-115 0 -197.5 -89t-82.5 -209q0 -117 79 -199.5t195 -82.5q71 0 131 32.5t95 90.5z" />
    <glyph glyph-name="ccircumflex" unicode="&#x109;" horiz-adv-x="534" 
d="M434 586h-96l-73 81l-73 -81h-96l140 161h58zM431 118l37 -60q-89 -64 -194 -64q-111 0 -171 67.5t-60 180.5q0 118 61 197.5t162 79.5q78 0 135 -47.5t51 -122.5h-79q5 47 -25.5 73.5t-77.5 26.5q-72 0 -110.5 -62.5t-38.5 -145.5t40 -128.5t113 -45.5q64 0 157 51z" />
    <glyph glyph-name="Cdotaccent" unicode="&#x10a;" horiz-adv-x="748" 
d="M370 923q21 0 37.5 -16t16.5 -37q0 -20 -16.5 -36t-37.5 -16q-20 0 -36 16t-16 36q0 21 16 37t36 16zM618 178l63 -43q-48 -76 -126 -116.5t-164 -40.5q-146 0 -247.5 106t-101.5 253q0 151 105.5 262.5t249.5 111.5q61 0 123.5 -21.5t91.5 -65.5q21 -34 21 -70
q0 -42 -28 -72t-68 -30q-41 0 -70 29l46 59q17 -12 25 -12t13.5 8t5.5 19q0 17 -14 32q-45 48 -145 48q-115 0 -197.5 -89t-82.5 -209q0 -117 79 -199.5t195 -82.5q71 0 131 32.5t95 90.5z" />
    <glyph glyph-name="cdotaccent" unicode="&#x10b;" horiz-adv-x="534" 
d="M260 716q21 0 37.5 -16t16.5 -37q0 -20 -16.5 -36t-37.5 -16q-20 0 -36 16t-16 36q0 21 16 37t36 16zM431 118l37 -60q-89 -64 -194 -64q-111 0 -171 67.5t-60 180.5q0 118 61 197.5t162 79.5q78 0 135 -47.5t51 -122.5h-79q5 47 -25.5 73.5t-77.5 26.5
q-72 0 -110.5 -62.5t-38.5 -145.5t40 -128.5t113 -45.5q64 0 157 51z" />
    <glyph glyph-name="Ccaron" unicode="&#x10c;" horiz-adv-x="748" 
d="M404 784h-58l-140 161h96l73 -81l73 81h97zM618 178l63 -43q-48 -76 -126 -116.5t-164 -40.5q-146 0 -247.5 106t-101.5 253q0 151 105.5 262.5t249.5 111.5q61 0 123.5 -21.5t91.5 -65.5q21 -34 21 -70q0 -42 -28 -72t-68 -30q-41 0 -70 29l46 59q17 -12 25 -12t13.5 8
t5.5 19q0 17 -14 32q-45 48 -145 48q-115 0 -197.5 -89t-82.5 -209q0 -117 79 -199.5t195 -82.5q71 0 131 32.5t95 90.5z" />
    <glyph glyph-name="ccaron" unicode="&#x10d;" horiz-adv-x="534" 
d="M294 577h-58l-140 161h96l73 -81l73 81h97zM431 118l37 -60q-89 -64 -194 -64q-111 0 -171 67.5t-60 180.5q0 118 61 197.5t162 79.5q78 0 135 -47.5t51 -122.5h-79q5 47 -25.5 73.5t-77.5 26.5q-72 0 -110.5 -62.5t-38.5 -145.5t40 -128.5t113 -45.5q64 0 157 51z" />
    <glyph glyph-name="Dcaron" unicode="&#x10e;" horiz-adv-x="811" 
d="M435 756h-58l-140 161h96l73 -81l73 81h97zM129 692h291q148 -14 233.5 -110t85.5 -252q0 -339 -433 -339q-71 0 -111 4l-27 2h-1l-29 4v613q-25 -2 -34 -12q-9 -8 -9 -23l-12 -12h-66q-4 55 33 92q35 33 79 33zM221 614v-543q90 -5 154 -5q129 0 205.5 71.5t76.5 201.5
q0 121 -67 195.5t-181 79.5h-188z" />
    <glyph glyph-name="dcaron" unicode="&#x10f;" horiz-adv-x="625" 
d="M473 542v-453q0 -8 7 -15.5t16 -7.5q13 0 23 21l63 -43q-13 -27 -37 -40.5t-49 -13.5q-29 0 -54.5 17t-37.5 44q-49 -61 -141 -61q-103 0 -161.5 75.5t-58.5 184.5q0 116 67.5 191t180.5 75q37 0 105 -8v220h77v-173q37 37 37 110v9q0 17 12 31q13 13 31 13t31 -13
q11 -13 11 -31v-9q0 -45 -16 -86q-19 -48 -64 -77zM396 193v240q-60 9 -84 9q-190 0 -190 -185q0 -84 36.5 -138.5t104.5 -54.5q85 -2 121 73q12 24 12 56z" />
    <glyph glyph-name="Dcroat" unicode="&#x110;" horiz-adv-x="811" 
d="M576 787h-340v78h340v-78zM129 692h291q148 -14 233.5 -110t85.5 -252q0 -339 -433 -339q-71 0 -111 4l-27 2h-1l-29 4v613q-25 -2 -34 -12q-9 -8 -9 -23l-12 -12h-66q-4 55 33 92q35 33 79 33zM221 614v-543q90 -5 154 -5q129 0 205.5 71.5t76.5 201.5q0 121 -67 195.5
t-181 79.5h-188z" />
    <glyph glyph-name="dcroat" unicode="&#x111;" horiz-adv-x="625" 
d="M473 619v-530q0 -8 7 -15.5t16 -7.5q13 0 23 21l63 -43q-13 -27 -37 -40.5t-49 -13.5q-29 0 -54.5 17t-37.5 44q-49 -61 -141 -61q-103 0 -161.5 75.5t-58.5 184.5q0 116 67.5 191t180.5 75q37 0 105 -8v111h-139v78h139v31h77v-31h124v-78h-124zM396 193v240
q-60 9 -84 9q-190 0 -190 -185q0 -84 36.5 -138.5t104.5 -54.5q85 -2 121 73q12 24 12 56z" />
    <glyph glyph-name="Emacron" unicode="&#x112;" horiz-adv-x="659" 
d="M524 787h-340v78h340v-78zM587 609h-375v-208h259v-79h-259v-244h375v-79h-458v609q-15 0 -24 -10q-11 -9 -11 -25q0 -4 2 -12h-78q0 2 -0.5 6t-0.5 7q0 44 32 78q36 34 79 34h459v-77z" />
    <glyph glyph-name="emacron" unicode="&#x113;" horiz-adv-x="536" 
d="M435 616h-340v78h340v-78zM431 114l37 -60q-89 -64 -196 -64q-112 0 -170.5 68.5t-58.5 175.5q0 50 13 98.5t39 90.5t71 67.5t102 25.5q77 0 130.5 -44.5t53.5 -116.5q0 -77 -61.5 -119.5t-163.5 -42.5h-101q22 -129 146 -129q66 0 159 50zM122 267h105q148 0 148 88
q0 43 -30 66.5t-74 23.5q-69 0 -107 -56t-42 -122z" />
    <glyph glyph-name="Ebreve" unicode="&#x114;" horiz-adv-x="659" 
d="M420 909h83q1 -74 -39 -115t-110 -41q-73 0 -112.5 43.5t-37.5 112.5h82q0 -81 69 -81q36 0 51.5 20t13.5 61zM587 609h-375v-208h259v-79h-259v-244h375v-79h-458v609q-15 0 -24 -10q-11 -9 -11 -25q0 -4 2 -12h-78q0 2 -0.5 6t-0.5 7q0 44 32 78q36 34 79 34h459v-77z
" />
    <glyph glyph-name="ebreve" unicode="&#x115;" horiz-adv-x="536" 
d="M331 738h83q1 -74 -39 -115t-110 -41q-73 0 -112.5 43.5t-37.5 112.5h82q0 -81 69 -81q36 0 51.5 20t13.5 61zM431 114l37 -60q-89 -64 -196 -64q-112 0 -170.5 68.5t-58.5 175.5q0 50 13 98.5t39 90.5t71 67.5t102 25.5q77 0 130.5 -44.5t53.5 -116.5
q0 -77 -61.5 -119.5t-163.5 -42.5h-101q22 -129 146 -129q66 0 159 50zM122 267h105q148 0 148 88q0 43 -30 66.5t-74 23.5q-69 0 -107 -56t-42 -122z" />
    <glyph glyph-name="Edotaccent" unicode="&#x116;" horiz-adv-x="659" 
d="M349 895q21 0 37.5 -16t16.5 -37q0 -20 -16.5 -36t-37.5 -16q-20 0 -36 16t-16 36q0 21 16 37t36 16zM587 609h-375v-208h259v-79h-259v-244h375v-79h-458v609q-15 0 -24 -10q-11 -9 -11 -25q0 -4 2 -12h-78q0 2 -0.5 6t-0.5 7q0 44 32 78q36 34 79 34h459v-77z" />
    <glyph glyph-name="edotaccent" unicode="&#x117;" horiz-adv-x="536" 
d="M260 724q21 0 37.5 -16t16.5 -37q0 -20 -16.5 -36t-37.5 -16q-20 0 -36 16t-16 36q0 21 16 37t36 16zM431 114l37 -60q-89 -64 -196 -64q-112 0 -170.5 68.5t-58.5 175.5q0 50 13 98.5t39 90.5t71 67.5t102 25.5q77 0 130.5 -44.5t53.5 -116.5q0 -77 -61.5 -119.5
t-163.5 -42.5h-101q22 -129 146 -129q66 0 159 50zM122 267h105q148 0 148 88q0 43 -30 66.5t-74 23.5q-69 0 -107 -56t-42 -122z" />
    <glyph glyph-name="Eogonek" unicode="&#x118;" horiz-adv-x="659" 
d="M581 -118l35 -64q-17 -17 -46.5 -27t-55.5 -10q-41 0 -68 28.5t-27 69.5q0 32 17 57t57 63h-364v609q-15 0 -24 -10q-11 -9 -11 -25q0 -4 2 -12h-78q0 2 -0.5 6t-0.5 7q0 44 32 78q36 34 79 34h459v-77h-375v-208h259v-79h-259v-244h375l-1 -79q-56 -59 -72 -79.5
t-16 -37.5q0 -27 30 -27q23 0 53 27z" />
    <glyph glyph-name="eogonek" unicode="&#x119;" horiz-adv-x="536" 
d="M458 -67l35 -64q-17 -17 -46.5 -27t-55.5 -10q-41 0 -68 28.5t-27 69.5q0 32 21 63q-21 -3 -45 -3q-112 0 -170.5 68.5t-58.5 175.5q0 50 13 98.5t39 90.5t71 67.5t102 25.5q77 0 130.5 -44.5t53.5 -116.5q0 -77 -61.5 -119.5t-163.5 -42.5h-101q22 -129 146 -129
q66 0 159 50l37 -60l-4 -3q-57 -60 -73 -80.5t-16 -37.5q0 -27 30 -27q23 0 53 27zM122 267h105q148 0 148 88q0 43 -30 66.5t-74 23.5q-69 0 -107 -56t-42 -122z" />
    <glyph glyph-name="Ecaron" unicode="&#x11a;" horiz-adv-x="659" 
d="M383 756h-58l-140 161h96l73 -81l73 81h97zM587 609h-375v-208h259v-79h-259v-244h375v-79h-458v609q-15 0 -24 -10q-11 -9 -11 -25q0 -4 2 -12h-78q0 2 -0.5 6t-0.5 7q0 44 32 78q36 34 79 34h459v-77z" />
    <glyph glyph-name="ecaron" unicode="&#x11b;" horiz-adv-x="536" 
d="M294 585h-58l-140 161h96l73 -81l73 81h97zM431 114l37 -60q-89 -64 -196 -64q-112 0 -170.5 68.5t-58.5 175.5q0 50 13 98.5t39 90.5t71 67.5t102 25.5q77 0 130.5 -44.5t53.5 -116.5q0 -77 -61.5 -119.5t-163.5 -42.5h-101q22 -129 146 -129q66 0 159 50zM122 267h105
q148 0 148 88q0 43 -30 66.5t-74 23.5q-69 0 -107 -56t-42 -122z" />
    <glyph glyph-name="Gcircumflex" unicode="&#x11c;" horiz-adv-x="758" 
d="M557 779h-96l-73 81l-73 -81h-96l140 161h58zM597 -161v220q-84 -90 -212 -90q-142 0 -242.5 108.5t-100.5 252.5q0 149 105.5 261.5t245.5 112.5q34 0 72 -8t76 -24.5t62.5 -47.5t24.5 -72q0 -44 -28.5 -73.5t-68.5 -29.5q-43 0 -68 27l46 59q16 -11 23 -11q8 0 14 8
t6 20q0 36 -52 55.5t-106 19.5q-112 0 -194 -89.5t-82 -208.5q0 -115 78.5 -199.5t188.5 -84.5q84 0 142 52.5t70 131.5v88h79v-479q0 -46 -32.5 -73.5t-70.5 -27.5q-28 0 -52.5 15.5t-35.5 39.5l65 45q5 -8 6 -9.5t4 -5.5t6 -4.5t8 -0.5q19 0 23 22z" />
    <glyph glyph-name="gcircumflex" unicode="&#x11d;" horiz-adv-x="557" 
d="M455 595h-96l-73 81l-73 -81h-96l140 161h58zM473 507v-605q0 -77 -44.5 -126t-113.5 -49q-72 0 -113 51t-41 115q0 61 36 106q-28 10 -53 29q-51 40 -76 106t-25 126q0 102 69 179t178 77q14 0 62 -2l58 -7h63zM317 442h-31q-77 0 -122.5 -57t-45.5 -133
q0 -73 39.5 -130.5t100.5 -57.5q26 0 47 10q58 27 83 77q10 22 10 34v252zM398 -101v152q-4 -4 -13.5 -12t-11.5 -10q-9 -8 -17.5 -13.5t-31 -18.5t-41.5 -24q-48 -29 -48 -80q0 -37 22.5 -64t62.5 -27q37 0 56.5 26.5t21.5 70.5z" />
    <glyph glyph-name="Gbreve" unicode="&#x11e;" horiz-adv-x="758" 
d="M454 923h83q1 -74 -39 -115t-110 -41q-73 0 -112.5 43.5t-37.5 112.5h82q0 -81 69 -81q36 0 51.5 20t13.5 61zM597 -161v220q-84 -90 -212 -90q-142 0 -242.5 108.5t-100.5 252.5q0 149 105.5 261.5t245.5 112.5q34 0 72 -8t76 -24.5t62.5 -47.5t24.5 -72
q0 -44 -28.5 -73.5t-68.5 -29.5q-43 0 -68 27l46 59q16 -11 23 -11q8 0 14 8t6 20q0 36 -52 55.5t-106 19.5q-112 0 -194 -89.5t-82 -208.5q0 -115 78.5 -199.5t188.5 -84.5q84 0 142 52.5t70 131.5v88h79v-479q0 -46 -32.5 -73.5t-70.5 -27.5q-28 0 -52.5 15.5t-35.5 39.5
l65 45q5 -8 6 -9.5t4 -5.5t6 -4.5t8 -0.5q19 0 23 22z" />
    <glyph glyph-name="gbreve" unicode="&#x11f;" horiz-adv-x="557" 
d="M352 739h83q1 -74 -39 -115t-110 -41q-73 0 -112.5 43.5t-37.5 112.5h82q0 -81 69 -81q36 0 51.5 20t13.5 61zM473 507v-605q0 -77 -44.5 -126t-113.5 -49q-72 0 -113 51t-41 115q0 61 36 106q-28 10 -53 29q-51 40 -76 106t-25 126q0 102 69 179t178 77q14 0 62 -2
l58 -7h63zM317 442h-31q-77 0 -122.5 -57t-45.5 -133q0 -73 39.5 -130.5t100.5 -57.5q26 0 47 10q58 27 83 77q10 22 10 34v252zM398 -101v152q-4 -4 -13.5 -12t-11.5 -10q-9 -8 -17.5 -13.5t-31 -18.5t-41.5 -24q-48 -29 -48 -80q0 -37 22.5 -64t62.5 -27q37 0 56.5 26.5
t21.5 70.5z" />
    <glyph glyph-name="Gdotaccent" unicode="&#x120;" horiz-adv-x="758" 
d="M383 909q21 0 37.5 -16t16.5 -37q0 -20 -16.5 -36t-37.5 -16q-20 0 -36 16t-16 36q0 21 16 37t36 16zM597 -161v220q-84 -90 -212 -90q-142 0 -242.5 108.5t-100.5 252.5q0 149 105.5 261.5t245.5 112.5q34 0 72 -8t76 -24.5t62.5 -47.5t24.5 -72q0 -44 -28.5 -73.5
t-68.5 -29.5q-43 0 -68 27l46 59q16 -11 23 -11q8 0 14 8t6 20q0 36 -52 55.5t-106 19.5q-112 0 -194 -89.5t-82 -208.5q0 -115 78.5 -199.5t188.5 -84.5q84 0 142 52.5t70 131.5v88h79v-479q0 -46 -32.5 -73.5t-70.5 -27.5q-28 0 -52.5 15.5t-35.5 39.5l65 45q5 -8 6 -9.5
t4 -5.5t6 -4.5t8 -0.5q19 0 23 22z" />
    <glyph glyph-name="gdotaccent" unicode="&#x121;" horiz-adv-x="557" 
d="M281 725q21 0 37.5 -16t16.5 -37q0 -20 -16.5 -36t-37.5 -16q-20 0 -36 16t-16 36q0 21 16 37t36 16zM473 507v-605q0 -77 -44.5 -126t-113.5 -49q-72 0 -113 51t-41 115q0 61 36 106q-28 10 -53 29q-51 40 -76 106t-25 126q0 102 69 179t178 77q14 0 62 -2l58 -7h63z
M317 442h-31q-77 0 -122.5 -57t-45.5 -133q0 -73 39.5 -130.5t100.5 -57.5q26 0 47 10q58 27 83 77q10 22 10 34v252zM398 -101v152q-4 -4 -13.5 -12t-11.5 -10q-9 -8 -17.5 -13.5t-31 -18.5t-41.5 -24q-48 -29 -48 -80q0 -37 22.5 -64t62.5 -27q37 0 56.5 26.5t21.5 70.5z
" />
    <glyph glyph-name="Gcommaaccent" unicode="&#x122;" horiz-adv-x="758" 
d="M597 -161v220q-84 -90 -212 -90q-142 0 -242.5 108.5t-100.5 252.5q0 149 105.5 261.5t245.5 112.5q34 0 72 -8t76 -24.5t62.5 -47.5t24.5 -72q0 -44 -28.5 -73.5t-68.5 -29.5q-43 0 -68 27l46 59q16 -11 23 -11q8 0 14 8t6 20q0 36 -52 55.5t-106 19.5
q-112 0 -194 -89.5t-82 -208.5q0 -115 78.5 -199.5t188.5 -84.5q84 0 142 52.5t70 131.5v88h79v-479q0 -46 -32.5 -73.5t-70.5 -27.5q-28 0 -52.5 15.5t-35.5 39.5l65 45q5 -8 6 -9.5t4 -5.5t6 -4.5t8 -0.5q19 0 23 22zM374 -304h-76l44 224h86z" />
    <glyph glyph-name="gcommaaccent" unicode="&#x123;" horiz-adv-x="557" 
d="M473 507v-605q0 -77 -44.5 -126t-113.5 -49q-72 0 -113 51t-41 115q0 13 1 20l-43 -179h-76l44 224h86l-1 -4q8 23 25 45q-28 10 -53 29q-51 40 -76 106t-25 126q0 102 69 179t178 77q14 0 62 -2l58 -7h63zM398 437l-81 5h-31q-77 0 -122.5 -57t-45.5 -133
q0 -73 39.5 -130.5t100.5 -57.5q26 0 47 10q58 27 83 77q10 22 10 34v252zM398 -101v152q-4 -4 -13.5 -12t-11.5 -10q-9 -8 -17.5 -13.5t-31 -18.5t-41.5 -24q-48 -29 -48 -80q0 -37 22.5 -64t62.5 -27q37 0 56.5 26.5t21.5 70.5z" />
    <glyph glyph-name="Hcircumflex" unicode="&#x124;" horiz-adv-x="709" 
d="M551 765h-96l-73 81l-73 -81h-96l140 161h58zM83 589l-70 47q30 55 90 55q40 0 71.5 -29t31.5 -73v-194h335v291h82v-687h-82v318h-335v-318h-83v590q0 19 -19 19q-12 0 -21 -19z" />
    <glyph glyph-name="hcircumflex" unicode="&#x125;" horiz-adv-x="605" 
d="M472 586h-96l-73 81l-73 -81h-96l140 161h58zM132 730v-276q60 64 152 64q83 0 126 -43.5t43 -123.5v-260q0 -9 7 -15.5t16 -6.5q14 0 22 20l65 -43q-28 -53 -87 -53q-42 0 -70.5 28.5t-28.5 69.5v257q0 97 -100 97q-45 0 -77.5 -21.5t-67.5 -68.5v-353h-76v728h76z" />
    <glyph glyph-name="Hbar" unicode="&#x126;" horiz-adv-x="694" 
d="M623 697v-687h-82v318h-335v-318h-83v475h-36v74h36v41q0 19 -19 19q-12 0 -21 -19l-70 47q30 55 90 55q40 0 71.5 -29t31.5 -73v-41h335v138h82zM541 485h-335v-79h335v79z" />
    <glyph glyph-name="hbar" unicode="&#x127;" horiz-adv-x="605" 
d="M498 89l65 -43q-28 -53 -87 -53q-42 0 -70.5 28.5t-28.5 69.5v257q0 97 -100 97q-45 0 -77.5 -21.5t-67.5 -68.5v-353h-76v618h-52v79h52v31h76v-31h183v-79h-183v-166q60 64 152 64q83 0 126 -43.5t43 -123.5v-260q0 -9 7 -15.5t16 -6.5q14 0 22 20z" />
    <glyph glyph-name="Itilde" unicode="&#x128;" horiz-adv-x="228" 
d="M235 883l48 -58q-26 -21 -36.5 -28.5t-33.5 -15.5t-52 -8q-22 0 -77 16l-56 16q-33 0 -74 -37l-47 58q61 54 120 54q34 0 77 -17t59 -17q28 0 72 37zM138 -1h-82v687h82v-687z" />
    <glyph glyph-name="itilde" unicode="&#x129;" horiz-adv-x="260" 
d="M224 704l48 -58q-26 -21 -36.5 -28.5t-33.5 -15.5t-52 -8q-22 0 -78 16l-55 16q-33 0 -74 -37l-47 58q61 54 120 54q34 0 77 -17t59 -17q28 0 72 37zM122 508v-419q0 -9 7 -16t15 -7q16 0 22 21l66 -43q-13 -24 -37 -39t-51 -15q-40 0 -69.5 29t-29.5 70v419h77z" />
    <glyph glyph-name="Imacron" unicode="&#x12a;" horiz-adv-x="228" 
d="M265 787h-340v78h340v-78zM138 -1h-82v687h82v-687z" />
    <glyph glyph-name="imacron" unicode="&#x12b;" horiz-adv-x="260" 
d="M254 608h-340v78h340v-78zM122 508v-419q0 -9 7 -16t15 -7q16 0 22 21l66 -43q-13 -24 -37 -39t-51 -15q-40 0 -69.5 29t-29.5 70v419h77z" />
    <glyph glyph-name="Ibreve" unicode="&#x12c;" horiz-adv-x="228" 
d="M161 909h83q1 -74 -39 -115t-110 -41q-73 0 -112.5 43.5t-37.5 112.5h82q0 -81 69 -81q36 0 51.5 20t13.5 61zM138 -1h-82v687h82v-687z" />
    <glyph glyph-name="ibreve" unicode="&#x12d;" horiz-adv-x="260" 
d="M150 730h83q1 -74 -39 -115t-110 -41q-73 0 -112.5 43.5t-37.5 112.5h82q0 -81 69 -81q36 0 51.5 20t13.5 61zM122 508v-419q0 -9 7 -16t15 -7q16 0 22 21l66 -43q-13 -24 -37 -39t-51 -15q-40 0 -69.5 29t-29.5 70v419h77z" />
    <glyph glyph-name="Iogonek" unicode="&#x12e;" horiz-adv-x="228" 
d="M133 -116l35 -64q-17 -17 -46.5 -27t-55.5 -10q-41 0 -68 28.5t-27 69.5q0 24 12 46.5t26 37.5t47 46v675h82v-684h1l-1 -1v-2h-2q-55 -58 -70.5 -78t-15.5 -37q0 -27 30 -27q23 0 53 27z" />
    <glyph glyph-name="iogonek" unicode="&#x12f;" horiz-adv-x="260" 
d="M79 611q-20 0 -36 16t-16 36q0 21 16 37t36 16q21 0 37.5 -16t16.5 -37q0 -20 -16.5 -36t-37.5 -16zM166 87l66 -43q-13 -25 -35 -38q-56 -59 -72 -79.5t-16 -37.5q0 -27 30 -27q23 0 53 27l35 -64q-17 -17 -46.5 -27t-55.5 -10q-41 0 -68 28.5t-27 69.5q0 31 16 55.5
t53 59.5q-54 29 -54 88v419h77v-419q0 -9 7 -16t15 -7q16 0 22 21z" />
    <glyph glyph-name="Idotaccent" unicode="&#x130;" horiz-adv-x="228" 
d="M90 895q21 0 37.5 -16t16.5 -37q0 -20 -16.5 -36t-37.5 -16q-20 0 -36 16t-16 36q0 21 16 37t36 16zM138 -1h-82v687h82v-687z" />
    <glyph glyph-name="dotlessi" unicode="&#x131;" horiz-adv-x="260" 
d="M122 508v-419q0 -9 7 -16t15 -7q16 0 22 21l66 -43q-13 -24 -37 -39t-51 -15q-40 0 -69.5 29t-29.5 70v419h77z" />
    <glyph glyph-name="IJ" unicode="&#x132;" horiz-adv-x="712" 
d="M291 595l-34 69q81 34 117 34q21 0 91 -23q33 -12 48 -12q10 0 29 10h-1q4 2 7 4.5t4 3.5t1 0v-3l12 11h66v-493q0 -82 -48 -141t-141 -59q-49 0 -86.5 18.5t-58 48.5t-29.5 64t-8 70l78 -6q-3 -53 25.5 -85t81.5 -32q57 0 82 36.5t25 88.5v393q-18 -7 -41 -7
q-22 0 -48 7q-16 4 -45 16t-44 12q-14 0 -43.5 -11.5t-39.5 -13.5zM138 -1h-82v687h82v-687z" />
    <glyph glyph-name="ij" unicode="&#x133;" horiz-adv-x="467" 
d="M79 716q21 0 37.5 -16t16.5 -37q0 -20 -16.5 -36t-37.5 -16q-20 0 -36 16t-16 36q0 21 16 37t36 16zM342 716q21 0 37.5 -16t16.5 -37q0 -20 -16.5 -36t-37.5 -16q-20 0 -36 16t-16 36q0 21 16 37t36 16zM386 509v-663q0 -40 -29 -69.5t-70 -29.5q-59 0 -88 54l64 42
q11 -19 24 -19q10 0 16 6.5t6 15.5v663h77zM122 508v-419q0 -9 7 -16t15 -7q16 0 22 21l66 -43q-13 -24 -37 -39t-51 -15q-40 0 -69.5 29t-29.5 70v419h77z" />
    <glyph glyph-name="Jcircumflex" unicode="&#x134;" horiz-adv-x="484" 
d="M402 763h-96l-73 81l-73 -81h-96l140 161h58zM63 595l-34 69q81 34 117 34q21 0 91 -23q33 -12 48 -12q10 0 29 10h-1q4 2 7 4.5t4 3.5t1 0v-3l12 11h66v-493q0 -82 -48 -141t-141 -59q-49 0 -86.5 18.5t-58 48.5t-29.5 64t-8 70l78 -6q-3 -53 25.5 -85t81.5 -32
q57 0 82 36.5t25 88.5v393q-18 -7 -41 -7q-22 0 -48 7q-16 4 -45 16t-44 12q-14 0 -43.5 -11.5t-39.5 -13.5z" />
    <glyph glyph-name="jcircumflex" unicode="&#x135;" horiz-adv-x="267" 
d="M316 586h-96l-73 81l-73 -81h-96l140 161h58zM186 509v-663q0 -40 -29 -69.5t-70 -29.5q-59 0 -88 54l64 42q11 -19 24 -19q10 0 16 6.5t6 15.5v663h77z" />
    <glyph glyph-name="Kcommaaccent" unicode="&#x136;" horiz-adv-x="654" 
d="M409 686h100q-87 -163 -109 -202q-32 -56 -52 -84q-24 -35 -46 -54l188 -266q7 -10 18 -10q9 0 15 6t6 16q0 7 -2 12h80q5 -52 -28 -82t-73 -30q-51 0 -80 42l-196 278q-39 -10 -90 -9v-303h-84v686h82v-302h30q35 1 58 12q22 10 41 34q25 31 65 100q20 36 77 156z
M316 -277h-76l44 224h86z" />
    <glyph glyph-name="kcommaaccent" unicode="&#x137;" horiz-adv-x="596" 
d="M132 728v-280q56 70 146 70q70 0 115.5 -45t45.5 -115q0 -89 -85 -141l83 -132q4 -6 16 -6q20 0 20 20q0 2 -2 12l79 -4q3 -40 -27 -73.5t-71 -33.5q-23 0 -47 13t-36 34l-90 147h-147v-194h-76v728h76zM135 268h100q43 0 72 12q58 24 58 82q0 37 -24 60.5t-65 23.5
q-46 0 -80.5 -31.5t-50.5 -87.5q-8 -28 -10 -59zM287 -277h-76l44 224h86z" />
    <glyph glyph-name="kgreenlandic" unicode="&#x138;" horiz-adv-x="544" 
d="M132 518v-69q53 67 144 67q74 0 119.5 -42.5t45.5 -109.5q0 -82 -60 -129q-13 -11 -27 -18l82 -132q8 -6 16 -6q9 0 15 6t6 13l12 12l65 -3q3 -43 -27 -75t-71 -32q-55 0 -83 47l-90 147h-147v-194h-76v518h76zM135 268h100q63 0 97.5 26t34.5 68q0 39 -27 61.5t-66 22.5
q-46 0 -80 -32t-49 -86q-10 -30 -10 -60z" />
    <glyph glyph-name="Lacute" unicode="&#x139;" horiz-adv-x="527" 
d="M441 844l-187 -120l-34 52l171 135zM138 78h317v-79h-399v687h82v-608z" />
    <glyph glyph-name="lacute" unicode="&#x13a;" horiz-adv-x="283" 
d="M273 884l-187 -120l-34 52l171 135zM131 727v-637q0 -10 7 -16.5t16 -6.5q14 0 23 20l64 -42q-12 -24 -37.5 -39t-51.5 -15q-39 0 -68 29.5t-29 69.5v637h76z" />
    <glyph glyph-name="Lcommaaccent" unicode="&#x13b;" horiz-adv-x="527" 
d="M138 78h317v-79h-399v687h82v-608zM252 -277h-76l44 224h86z" />
    <glyph glyph-name="lcommaaccent" unicode="&#x13c;" horiz-adv-x="283" 
d="M131 727v-637q0 -10 7 -16.5t16 -6.5q14 0 23 20l64 -42q-12 -24 -37.5 -39t-51.5 -15q-39 0 -68 29.5t-29 69.5v637h76zM131 -277h-76l44 224h86z" />
    <glyph glyph-name="Lcaron" unicode="&#x13d;" horiz-adv-x="527" 
d="M138 78h317v-79h-399v687h82v-608z" />
    <glyph glyph-name="lcaron" unicode="&#x13e;" horiz-adv-x="283" 
d="M131 727v-637q0 -10 7 -16.5t16 -6.5q14 0 23 20l64 -42q-12 -24 -37.5 -39t-51.5 -15q-39 0 -68 29.5t-29 69.5v637h76z" />
    <glyph glyph-name="Ldot" unicode="&#x13f;" horiz-adv-x="527" 
d="M138 78h317v-79h-399v687h82v-608zM291 408q27 0 48 -20.5t21 -48.5t-21 -49t-48 -21q-28 0 -49 21t-21 49t21 48.5t49 20.5z" />
    <glyph glyph-name="ldot" unicode="&#x140;" horiz-adv-x="283" 
d="M131 727v-637q0 -10 7 -16.5t16 -6.5q14 0 23 20l64 -42q-12 -24 -37.5 -39t-51.5 -15q-39 0 -68 29.5t-29 69.5v637h76zM237 408q27 0 48 -20.5t21 -48.5t-21 -49t-48 -21q-28 0 -49 21t-21 49t21 48.5t49 20.5z" />
    <glyph glyph-name="Lslash" unicode="&#x141;" horiz-adv-x="539" 
d="M499 89v-79h-399v301l-87 -62v90l87 63v295h82v-236l68 49v-91l-68 -49v-281h317z" />
    <glyph glyph-name="lslash" unicode="&#x142;" horiz-adv-x="283" 
d="M177 87l64 -42q-12 -24 -37.5 -39t-51.5 -15q-39 0 -68 29.5t-29 69.5v263l-60 -37v88l60 38v285h76v-238l71 45v-89l-71 -44v-311q0 -10 7 -16.5t16 -6.5q14 0 23 20z" />
    <glyph glyph-name="Nacute" unicode="&#x143;" horiz-adv-x="787" 
d="M600 844l-187 -120l-34 52l171 135zM303 561l331 -397l-11 13v508h81v-686h-35l-461 551l12 -11v-445q0 -45 -34.5 -71.5t-71.5 -26.5t-67 29.5t-30 68.5q0 8 1 12h79q-3 -6 -3 -11q0 -9 7 -15.5t16 -6.5t15 6.5t6 14.5v592h54z" />
    <glyph glyph-name="nacute" unicode="&#x144;" 
d="M472 673l-187 -120l-34 52l171 135zM27 469l49 47q43 -25 60 -78q65 78 165 78q76 0 120 -39t48 -114v-277q0 -9 7.5 -16t15.5 -6q12 0 24 18l63 -41q-30 -54 -88 -54q-42 0 -70.5 30t-28.5 69v251q0 55 -23 80t-73 25q-47 0 -80 -22t-68 -68v-353h-77v355q0 78 -44 115z
" />
    <glyph glyph-name="Ncommaaccent" unicode="&#x145;" horiz-adv-x="787" 
d="M303 561l331 -397l-11 13v508h81v-686h-35l-461 551l12 -11v-445q0 -45 -34.5 -71.5t-71.5 -26.5t-67 29.5t-30 68.5q0 8 1 12h79q-3 -6 -3 -11q0 -9 7 -15.5t16 -6.5t15 6.5t6 14.5v592h54zM412 -277h-76l44 224h86z" />
    <glyph glyph-name="ncommaaccent" unicode="&#x146;" 
d="M27 469l49 47q43 -25 60 -78q65 78 165 78q76 0 120 -39t48 -114v-277q0 -9 7.5 -16t15.5 -6q12 0 24 18l63 -41q-30 -54 -88 -54q-42 0 -70.5 30t-28.5 69v251q0 55 -23 80t-73 25q-47 0 -80 -22t-68 -68v-353h-77v355q0 78 -44 115zM268 -277h-76l44 224h86z" />
    <glyph glyph-name="Ncaron" unicode="&#x147;" horiz-adv-x="787" 
d="M451 756h-58l-140 161h96l73 -81l73 81h97zM303 561l331 -397l-11 13v508h81v-686h-35l-461 551l12 -11v-445q0 -45 -34.5 -71.5t-71.5 -26.5t-67 29.5t-30 68.5q0 8 1 12h79q-3 -6 -3 -11q0 -9 7 -15.5t16 -6.5t15 6.5t6 14.5v592h54z" />
    <glyph glyph-name="ncaron" unicode="&#x148;" 
d="M323 585h-58l-140 161h96l73 -81l73 81h97zM27 469l49 47q43 -25 60 -78q65 78 165 78q76 0 120 -39t48 -114v-277q0 -9 7.5 -16t15.5 -6q12 0 24 18l63 -41q-30 -54 -88 -54q-42 0 -70.5 30t-28.5 69v251q0 55 -23 80t-73 25q-47 0 -80 -22t-68 -68v-353h-77v355
q0 78 -44 115z" />
    <glyph glyph-name="napostrophe" unicode="&#x149;" 
d="M538 602v58q0 17 12 31q13 13 31 13t31 -13q11 -13 11 -31v-58q0 -44 -16 -85q-19 -48 -64 -77l-49 47q44 35 44 115zM42 480l49 47q43 -25 60 -78q65 78 165 78q76 0 120 -39t48 -114v-277q0 -9 7.5 -16t15.5 -6q12 0 24 18l63 -41q-30 -54 -88 -54q-42 0 -70.5 30
t-28.5 69v251q0 55 -23 80t-73 25q-47 0 -80 -22t-68 -68v-353h-77v355q0 78 -44 115z" />
    <glyph glyph-name="Eng" unicode="&#x14a;" horiz-adv-x="612" 
 />
    <glyph glyph-name="eng" unicode="&#x14b;" horiz-adv-x="612" 
 />
    <glyph glyph-name="Omacron" unicode="&#x14c;" horiz-adv-x="815" 
d="M561 787h-340v78h340v-78zM42 331v19q0 144 102.5 251t247.5 107q144 0 247.5 -107t103.5 -251v-19q0 -147 -101.5 -252.5t-245.5 -105.5q-145 0 -249.5 106.5t-104.5 251.5zM666 331v19q0 117 -81.5 199t-193.5 82q-113 0 -192 -84t-79 -197v-19q0 -116 80.5 -198.5
t192.5 -82.5q113 0 193 83t80 198z" />
    <glyph glyph-name="omacron" unicode="&#x14d;" 
d="M466 616h-340v78h340v-78zM296 516q110 0 181.5 -75t71.5 -189q0 -115 -72 -188.5t-182 -73.5q-111 0 -181.5 74.5t-70.5 186.5q0 113 71 189t182 76zM296 442q-82 0 -128 -53.5t-46 -136.5q0 -85 47 -136.5t127 -51.5q81 0 127.5 53.5t46.5 138.5t-47.5 135.5
t-126.5 50.5z" />
    <glyph glyph-name="Obreve" unicode="&#x14e;" horiz-adv-x="815" 
d="M457 909h83q1 -74 -39 -115t-110 -41q-73 0 -112.5 43.5t-37.5 112.5h82q0 -81 69 -81q36 0 51.5 20t13.5 61zM42 331v19q0 144 102.5 251t247.5 107q144 0 247.5 -107t103.5 -251v-19q0 -147 -101.5 -252.5t-245.5 -105.5q-145 0 -249.5 106.5t-104.5 251.5zM666 331v19
q0 117 -81.5 199t-193.5 82q-113 0 -192 -84t-79 -197v-19q0 -116 80.5 -198.5t192.5 -82.5q113 0 193 83t80 198z" />
    <glyph glyph-name="obreve" unicode="&#x14f;" 
d="M362 738h83q1 -74 -39 -115t-110 -41q-73 0 -112.5 43.5t-37.5 112.5h82q0 -81 69 -81q36 0 51.5 20t13.5 61zM296 516q110 0 181.5 -75t71.5 -189q0 -115 -72 -188.5t-182 -73.5q-111 0 -181.5 74.5t-70.5 186.5q0 113 71 189t182 76zM296 442q-82 0 -128 -53.5
t-46 -136.5q0 -85 47 -136.5t127 -51.5q81 0 127.5 53.5t46.5 138.5t-47.5 135.5t-126.5 50.5z" />
    <glyph glyph-name="Ohungarumlaut" unicode="&#x150;" horiz-adv-x="815" 
d="M461 880l-165 -136l-55 51l166 137zM647 880l-167 -136l-55 51l165 137zM42 331v19q0 144 102.5 251t247.5 107q144 0 247.5 -107t103.5 -251v-19q0 -147 -101.5 -252.5t-245.5 -105.5q-145 0 -249.5 106.5t-104.5 251.5zM666 331v19q0 117 -81.5 199t-193.5 82
q-113 0 -192 -84t-79 -197v-19q0 -116 80.5 -198.5t192.5 -82.5q113 0 193 83t80 198z" />
    <glyph glyph-name="ohungarumlaut" unicode="&#x151;" 
d="M366 709l-165 -136l-55 51l166 137zM552 709l-167 -136l-55 51l165 137zM296 516q110 0 181.5 -75t71.5 -189q0 -115 -72 -188.5t-182 -73.5q-111 0 -181.5 74.5t-70.5 186.5q0 113 71 189t182 76zM296 442q-82 0 -128 -53.5t-46 -136.5q0 -85 47 -136.5t127 -51.5
q81 0 127.5 53.5t46.5 138.5t-47.5 135.5t-126.5 50.5z" />
    <glyph glyph-name="OE" unicode="&#x152;" horiz-adv-x="1232" 
d="M1160 89v-79h-477v120q-48 -72 -123.5 -114.5t-163.5 -42.5q-145 0 -249.5 106.5t-104.5 251.5v19q0 144 102.5 251t247.5 107q89 0 166 -43.5t125 -117.5v150h458v-78h-378v-207h281v-79h-281v-244h397zM666 331v19q0 117 -81.5 199t-193.5 82q-113 0 -192 -84t-79 -197
v-19q0 -116 80.5 -198.5t192.5 -82.5q113 0 193 83t80 198z" />
    <glyph glyph-name="oe" unicode="&#x153;" horiz-adv-x="961" 
d="M852 114l37 -59q-86 -65 -194 -65q-141 0 -194 111q-66 -111 -205 -111q-111 0 -182 74t-71 187q0 114 71.5 189.5t182.5 75.5q141 0 208 -119q58 119 185 119q76 0 129.5 -43.5t53.5 -117.5q0 -56 -34 -94t-82.5 -53t-108.5 -15h-100q21 -129 145 -129q68 0 159 50z
M544 267h104q147 0 147 89q0 44 -30 66.5t-72 22.5q-66 0 -106 -53.5t-43 -124.5zM296 442q-80 0 -127 -52t-47 -136t47 -137t126 -53q81 0 128 54t47 138t-47.5 135t-126.5 51z" />
    <glyph glyph-name="Racute" unicode="&#x154;" horiz-adv-x="728" 
d="M315 724l-34 52l171 135l50 -67zM598 102l84 -3q5 -45 -26 -77t-74 -32q-48 0 -81 42l-122 159q-28 40 -55 57t-77 20v77h96q60 0 93.5 35t33.5 94t-32.5 97t-83.5 38h-134v-610h-83v610h-7q-14 0 -25 -10.5t-11 -25.5q0 -4 2 -12h-79q-4 52 32 91q33 34 79 34h229
q47 0 83 -17q50 -25 80.5 -78.5t30.5 -116.5q0 -72 -39 -123.5t-99 -65.5l-36 13q10 -3 25 -15l-17 -2l19 1q9 -8 15 -15l147 -190q7 -11 15 -11t15.5 7.5t7.5 16.5q0 6 -6 12zM404 282l-2 1q2 1 5.5 1t5.5 1l9 -3h-18z" />
    <glyph glyph-name="racute" unicode="&#x155;" horiz-adv-x="373" 
d="M400 666l-187 -120l-34 52l171 135zM37 469l49 47q41 -27 58 -73q25 35 49 49q37 24 90 24q12 0 68 -10v-75q-39 10 -66 10q-48 0 -75 -23q-30 -22 -52 -64v-355h-77v355q0 78 -44 115z" />
    <glyph glyph-name="Rcommaaccent" unicode="&#x156;" horiz-adv-x="728" 
d="M598 102l84 -3q5 -45 -26 -77t-74 -32q-48 0 -81 42l-122 159q-28 40 -55 57t-77 20v77h96q60 0 93.5 35t33.5 94t-32.5 97t-83.5 38h-134v-610h-83v610h-7q-14 0 -25 -10.5t-11 -25.5q0 -4 2 -12h-79q-4 52 32 91q33 34 79 34h229q47 0 83 -17q50 -25 80.5 -78.5
t30.5 -116.5q0 -72 -39 -123.5t-99 -65.5l-36 13q10 -3 25 -15l-17 -2l19 1q9 -8 15 -15l147 -190q7 -11 15 -11t15.5 7.5t7.5 16.5q0 6 -6 12zM404 282l-2 1q2 1 5.5 1t5.5 1l9 -3h-18zM284 -53h86l-54 -224h-76z" />
    <glyph glyph-name="rcommaaccent" unicode="&#x157;" horiz-adv-x="373" 
d="M37 469l49 47q41 -27 58 -73q25 35 49 49q37 24 90 24q12 0 68 -10v-75q-39 10 -66 10q-48 0 -75 -23q-30 -22 -52 -64v-355h-77v355q0 78 -44 115zM108 -277h-76l44 224h86z" />
    <glyph glyph-name="Rcaron" unicode="&#x158;" horiz-adv-x="728" 
d="M295 756l-140 161h96l73 -81l73 81h97l-141 -161h-58zM598 102l84 -3q5 -45 -26 -77t-74 -32q-48 0 -81 42l-122 159q-28 40 -55 57t-77 20v77h96q60 0 93.5 35t33.5 94t-32.5 97t-83.5 38h-134v-610h-83v610h-7q-14 0 -25 -10.5t-11 -25.5q0 -4 2 -12h-79q-4 52 32 91
q33 34 79 34h229q47 0 83 -17q50 -25 80.5 -78.5t30.5 -116.5q0 -72 -39 -123.5t-99 -65.5l-36 13q10 -3 25 -15l-17 -2l19 1q9 -8 15 -15l147 -190q7 -11 15 -11t15.5 7.5t7.5 16.5q0 6 -6 12zM404 282l-2 1q2 1 5.5 1t5.5 1l9 -3h-18z" />
    <glyph glyph-name="rcaron" unicode="&#x159;" horiz-adv-x="373" 
d="M251 578h-58l-140 161h96l73 -81l73 81h97zM37 469l49 47q41 -27 58 -73q25 35 49 49q37 24 90 24q12 0 68 -10v-75q-39 10 -66 10q-48 0 -75 -23q-30 -22 -52 -64v-355h-77v355q0 78 -44 115z" />
    <glyph glyph-name="Sacute" unicode="&#x15a;" horiz-adv-x="572" 
d="M458 865l-187 -120l-34 52l171 135zM23 157l71 29q24 -63 72.5 -98.5t107.5 -35.5q65 0 107 42t42 101q0 42 -22 66.5t-68 48.5q-14 7 -48.5 23.5t-55 27t-50 30t-46 38.5t-29 47.5t-12.5 60.5q0 73 55.5 122t132.5 49q31 0 63 -10q47 -14 73.5 -46t26.5 -71
q0 -40 -28 -68t-69 -28q-7 0 -21 2l6 82q8 -11 17 -11q17 0 17 24q0 22 -26.5 35.5t-58.5 13.5q-46 0 -79 -27t-33 -65q0 -29 23.5 -55t48.5 -40t71 -35.5t61 -29.5q128 -68 128 -183q0 -89 -65.5 -155t-159.5 -66q-82 0 -154.5 51.5t-97.5 130.5z" />
    <glyph glyph-name="sacute" unicode="&#x15b;" horiz-adv-x="461" 
d="M392 673l-187 -120l-34 52l171 135zM30 55l39 60q70 -51 147 -51q45 0 74 18.5t29 57.5q0 27 -14 44t-47 32q-17 8 -50.5 20.5t-55 22.5t-45 26t-35 40t-11.5 57q0 61 45 97.5t109 36.5q35 0 75 -10t62 -27l-16 -73q-57 36 -122 36q-36 0 -55 -15t-19 -40q0 -29 27.5 -48
t80.5 -39t78 -35q72 -45 72 -124q0 -75 -55 -113t-132 -38q-105 0 -181 65z" />
    <glyph glyph-name="Scircumflex" unicode="&#x15c;" horiz-adv-x="572" 
d="M449 786h-96l-73 81l-73 -81h-96l140 161h58zM23 157l71 29q24 -63 72.5 -98.5t107.5 -35.5q65 0 107 42t42 101q0 42 -22 66.5t-68 48.5q-14 7 -48.5 23.5t-55 27t-50 30t-46 38.5t-29 47.5t-12.5 60.5q0 73 55.5 122t132.5 49q31 0 63 -10q47 -14 73.5 -46t26.5 -71
q0 -40 -28 -68t-69 -28q-7 0 -21 2l6 82q8 -11 17 -11q17 0 17 24q0 22 -26.5 35.5t-58.5 13.5q-46 0 -79 -27t-33 -65q0 -29 23.5 -55t48.5 -40t71 -35.5t61 -29.5q128 -68 128 -183q0 -89 -65.5 -155t-159.5 -66q-82 0 -154.5 51.5t-97.5 130.5z" />
    <glyph glyph-name="scircumflex" unicode="&#x15d;" horiz-adv-x="461" 
d="M383 594h-96l-73 81l-73 -81h-96l140 161h58zM30 55l39 60q70 -51 147 -51q45 0 74 18.5t29 57.5q0 27 -14 44t-47 32q-17 8 -50.5 20.5t-55 22.5t-45 26t-35 40t-11.5 57q0 61 45 97.5t109 36.5q35 0 75 -10t62 -27l-16 -73q-57 36 -122 36q-36 0 -55 -15t-19 -40
q0 -29 27.5 -48t80.5 -39t78 -35q72 -45 72 -124q0 -75 -55 -113t-132 -38q-105 0 -181 65z" />
    <glyph glyph-name="Scedilla" unicode="&#x15e;" horiz-adv-x="572" 
d="M325 487l6 82q8 -11 17 -11q17 0 17 24q0 22 -26.5 35.5t-58.5 13.5q-46 0 -79 -27t-33 -65q0 -29 23.5 -55t48.5 -40t71 -35.5t61 -29.5q128 -68 128 -183q0 -75 -49 -136t-124 -79q29 -10 44.5 -36.5t15.5 -56.5q0 -46 -33 -82t-88 -31v76q8 -2 12 -2q15 0 25 12t10 28
q0 28 -35 28h-43l6 60q-73 11 -134.5 60.5t-83.5 119.5l71 29q24 -63 72.5 -98.5t107.5 -35.5q65 0 107 42t42 101q0 42 -22 66.5t-68 48.5q-14 7 -48.5 23.5t-55 27t-50 30t-46 38.5t-29 47.5t-12.5 60.5q0 73 55.5 122t132.5 49q31 0 63 -10q47 -14 73.5 -46t26.5 -71
q0 -40 -28 -68t-69 -28q-7 0 -21 2z" />
    <glyph glyph-name="scedilla" unicode="&#x15f;" horiz-adv-x="461" 
d="M352 479l-16 -73q-57 36 -122 36q-36 0 -55 -15t-19 -40q0 -29 27.5 -48t80.5 -39t78 -35q72 -45 72 -124q0 -61 -37 -97.5t-95 -48.5l-3 -12q32 -8 49.5 -35.5t17.5 -59.5q0 -46 -33 -82t-88 -31v76q8 -2 12 -2q15 0 25 12t10 28q0 28 -35 28h-43l8 74q-90 7 -156 64
l39 60q70 -51 147 -51q45 0 74 18.5t29 57.5q0 27 -14 44t-47 32q-17 8 -50.5 20.5t-55 22.5t-45 26t-35 40t-11.5 57q0 61 45 97.5t109 36.5q35 0 75 -10t62 -27z" />
    <glyph glyph-name="Scaron" unicode="&#x160;" horiz-adv-x="572" 
d="M309 777h-58l-140 161h96l73 -81l73 81h97zM23 157l71 29q24 -63 72.5 -98.5t107.5 -35.5q65 0 107 42t42 101q0 42 -22 66.5t-68 48.5q-14 7 -48.5 23.5t-55 27t-50 30t-46 38.5t-29 47.5t-12.5 60.5q0 73 55.5 122t132.5 49q31 0 63 -10q47 -14 73.5 -46t26.5 -71
q0 -40 -28 -68t-69 -28q-7 0 -21 2l6 82q8 -11 17 -11q17 0 17 24q0 22 -26.5 35.5t-58.5 13.5q-46 0 -79 -27t-33 -65q0 -29 23.5 -55t48.5 -40t71 -35.5t61 -29.5q128 -68 128 -183q0 -89 -65.5 -155t-159.5 -66q-82 0 -154.5 51.5t-97.5 130.5z" />
    <glyph glyph-name="scaron" unicode="&#x161;" horiz-adv-x="461" 
d="M243 585h-58l-140 161h96l73 -81l73 81h97zM30 55l39 60q70 -51 147 -51q45 0 74 18.5t29 57.5q0 27 -14 44t-47 32q-17 8 -50.5 20.5t-55 22.5t-45 26t-35 40t-11.5 57q0 61 45 97.5t109 36.5q35 0 75 -10t62 -27l-16 -73q-57 36 -122 36q-36 0 -55 -15t-19 -40
q0 -29 27.5 -48t80.5 -39t78 -35q72 -45 72 -124q0 -75 -55 -113t-132 -38q-105 0 -181 65z" />
    <glyph glyph-name="Tcedilla" unicode="&#x162;" horiz-adv-x="637" 
d="M355 608v-575h3l-3 -14v-20h-4l-4 -16q32 -8 49.5 -35.5t17.5 -59.5q0 -46 -33 -82t-88 -31v76q8 -2 12 -2q15 0 25 12t10 28q0 28 -35 28h-43l10 97v594h-144q-10 0 -16 -6.5t-6 -14.5q0 -7 6 -11h-84q-5 48 28 81q29 29 69 29h461v-78h-231z" />
    <glyph glyph-name="tcedilla" unicode="&#x163;" horiz-adv-x="384" 
d="M274 127l60 -44q-37 -72 -105 -88l-3 -12q32 -8 49.5 -35.5t17.5 -59.5q0 -46 -33 -82t-88 -31v76q8 -2 12 -2q15 0 25 12t10 28q0 28 -35 28h-43l8 77q-95 22 -95 156v478h76v-122h154v-77h-154v-279q0 -44 12.5 -65t44.5 -21q62 0 87 63z" />
    <glyph glyph-name="Tcaron" unicode="&#x164;" horiz-adv-x="637" 
d="M348 756h-58l-140 161h96l73 -81l73 81h97zM586 608h-231v-609h-83v609h-144q-10 0 -16 -6.5t-6 -14.5q0 -7 6 -11h-84q-5 48 28 81q29 29 69 29h461v-78z" />
    <glyph glyph-name="tcaron" unicode="&#x165;" horiz-adv-x="384" 
d="M287 687v9q0 17 12 31q13 13 31 13t31 -13q11 -13 11 -31v-9q0 -45 -16 -86q-19 -48 -64 -77l-49 47q44 37 44 116zM130 506h154v-77h-154v-279q0 -44 12.5 -65t44.5 -21q62 0 87 63l60 -44q-48 -93 -147 -93q-69 0 -101 43t-32 117v478h76v-122z" />
    <glyph glyph-name="Tbar" unicode="&#x166;" horiz-adv-x="637" 
d="M489 787h-340v78h340v-78zM586 608h-231v-609h-83v609h-144q-10 0 -16 -6.5t-6 -14.5q0 -7 6 -11h-84q-5 48 28 81q29 29 69 29h461v-78z" />
    <glyph glyph-name="tbar" unicode="&#x167;" horiz-adv-x="384" 
d="M130 289v-139q0 -44 12.5 -65t44.5 -21q62 0 87 63l60 -44q-48 -93 -147 -93q-69 0 -101 43t-32 117v139h-49v78h49v261h76v-122h154v-77h-154v-62h215v-78h-215z" />
    <glyph glyph-name="Utilde" unicode="&#x168;" horiz-adv-x="759" 
d="M546 883l48 -58q-26 -21 -36.5 -28.5t-33.5 -15.5t-52 -8q-22 0 -78 16l-55 16q-33 0 -74 -37l-47 58q61 54 120 54q34 0 77 -17t59 -17q28 0 72 37zM86 591l-69 47q12 24 39.5 40.5t55.5 16.5q48 0 77 -28.5t29 -78.5v-317q0 -89 49 -146.5t140 -57.5q94 0 141 60.5
t47 143.5v416h83v-416q0 -71 -27.5 -132.5t-90.5 -104.5t-152 -43q-127 0 -200 81.5t-73 198.5v317q0 25 -21 25t-28 -22z" />
    <glyph glyph-name="utilde" unicode="&#x169;" horiz-adv-x="635" 
d="M412 704l48 -58q-26 -21 -36.5 -28.5t-33.5 -15.5t-52 -8q-22 0 -78 16l-55 16q-33 0 -74 -37l-47 58q61 54 120 54q34 0 77 -17t59 -17q28 0 72 37zM28 457l42 64q22 -17 32.5 -25.5t27.5 -26.5t24.5 -38t7.5 -43v-218q0 -54 23.5 -79.5t73.5 -25.5q47 0 79 21t69 69
v353h76v-420q0 -9 7 -16t16 -7q14 0 23 20l65 -44q-32 -52 -87 -52q-34 0 -60.5 20t-36.5 51q-62 -68 -156 -68q-76 0 -120 38.5t-48 113.5v244q0 11 -8 23t-16.5 19.5t-20 16t-13.5 10.5z" />
    <glyph glyph-name="Umacron" unicode="&#x16a;" horiz-adv-x="759" 
d="M576 787h-340v78h340v-78zM86 591l-69 47q12 24 39.5 40.5t55.5 16.5q48 0 77 -28.5t29 -78.5v-317q0 -89 49 -146.5t140 -57.5q94 0 141 60.5t47 143.5v416h83v-416q0 -71 -27.5 -132.5t-90.5 -104.5t-152 -43q-127 0 -200 81.5t-73 198.5v317q0 25 -21 25t-28 -22z" />
    <glyph glyph-name="umacron" unicode="&#x16b;" horiz-adv-x="635" 
d="M442 608h-340v78h340v-78zM28 457l42 64q22 -17 32.5 -25.5t27.5 -26.5t24.5 -38t7.5 -43v-218q0 -54 23.5 -79.5t73.5 -25.5q47 0 79 21t69 69v353h76v-420q0 -9 7 -16t16 -7q14 0 23 20l65 -44q-32 -52 -87 -52q-34 0 -60.5 20t-36.5 51q-62 -68 -156 -68
q-76 0 -120 38.5t-48 113.5v244q0 11 -8 23t-16.5 19.5t-20 16t-13.5 10.5z" />
    <glyph glyph-name="Ubreve" unicode="&#x16c;" horiz-adv-x="759" 
d="M472 909h83q1 -74 -39 -115t-110 -41q-73 0 -112.5 43.5t-37.5 112.5h82q0 -81 69 -81q36 0 51.5 20t13.5 61zM86 591l-69 47q12 24 39.5 40.5t55.5 16.5q48 0 77 -28.5t29 -78.5v-317q0 -89 49 -146.5t140 -57.5q94 0 141 60.5t47 143.5v416h83v-416q0 -71 -27.5 -132.5
t-90.5 -104.5t-152 -43q-127 0 -200 81.5t-73 198.5v317q0 25 -21 25t-28 -22z" />
    <glyph glyph-name="ubreve" unicode="&#x16d;" horiz-adv-x="635" 
d="M338 730h83q1 -74 -39 -115t-110 -41q-73 0 -112.5 43.5t-37.5 112.5h82q0 -81 69 -81q36 0 51.5 20t13.5 61zM28 457l42 64q22 -17 32.5 -25.5t27.5 -26.5t24.5 -38t7.5 -43v-218q0 -54 23.5 -79.5t73.5 -25.5q47 0 79 21t69 69v353h76v-420q0 -9 7 -16t16 -7
q14 0 23 20l65 -44q-32 -52 -87 -52q-34 0 -60.5 20t-36.5 51q-62 -68 -156 -68q-76 0 -120 38.5t-48 113.5v244q0 11 -8 23t-16.5 19.5t-20 16t-13.5 10.5z" />
    <glyph glyph-name="Uring" unicode="&#x16e;" horiz-adv-x="759" 
d="M406 932q49 0 79 -31t30 -79q0 -50 -31.5 -81.5t-79.5 -31.5q-49 0 -78.5 31t-29.5 80t30 80.5t80 31.5zM406 866q-39 0 -39 -46q0 -22 10.5 -34t27.5 -12q18 0 29.5 13.5t11.5 34.5q0 20 -11 32t-29 12zM86 591l-69 47q12 24 39.5 40.5t55.5 16.5q48 0 77 -28.5
t29 -78.5v-317q0 -89 49 -146.5t140 -57.5q94 0 141 60.5t47 143.5v416h83v-416q0 -71 -27.5 -132.5t-90.5 -104.5t-152 -43q-127 0 -200 81.5t-73 198.5v317q0 25 -21 25t-28 -22z" />
    <glyph glyph-name="uring" unicode="&#x16f;" horiz-adv-x="635" 
d="M272 753q49 0 79 -31t30 -79q0 -50 -31.5 -81.5t-79.5 -31.5q-49 0 -78.5 31t-29.5 80t30 80.5t80 31.5zM272 687q-39 0 -39 -46q0 -22 10.5 -34t27.5 -12q18 0 29.5 13.5t11.5 34.5q0 20 -11 32t-29 12zM28 457l42 64q22 -17 32.5 -25.5t27.5 -26.5t24.5 -38t7.5 -43
v-218q0 -54 23.5 -79.5t73.5 -25.5q47 0 79 21t69 69v353h76v-420q0 -9 7 -16t16 -7q14 0 23 20l65 -44q-32 -52 -87 -52q-34 0 -60.5 20t-36.5 51q-62 -68 -156 -68q-76 0 -120 38.5t-48 113.5v244q0 11 -8 23t-16.5 19.5t-20 16t-13.5 10.5z" />
    <glyph glyph-name="Uhungarumlaut" unicode="&#x170;" horiz-adv-x="759" 
d="M476 880l-165 -136l-55 51l166 137zM662 880l-167 -136l-55 51l165 137zM86 591l-69 47q12 24 39.5 40.5t55.5 16.5q48 0 77 -28.5t29 -78.5v-317q0 -89 49 -146.5t140 -57.5q94 0 141 60.5t47 143.5v416h83v-416q0 -71 -27.5 -132.5t-90.5 -104.5t-152 -43
q-127 0 -200 81.5t-73 198.5v317q0 25 -21 25t-28 -22z" />
    <glyph glyph-name="uhungarumlaut" unicode="&#x171;" horiz-adv-x="635" 
d="M342 701l-165 -136l-55 51l166 137zM528 701l-167 -136l-55 51l165 137zM28 457l42 64q22 -17 32.5 -25.5t27.5 -26.5t24.5 -38t7.5 -43v-218q0 -54 23.5 -79.5t73.5 -25.5q47 0 79 21t69 69v353h76v-420q0 -9 7 -16t16 -7q14 0 23 20l65 -44q-32 -52 -87 -52
q-34 0 -60.5 20t-36.5 51q-62 -68 -156 -68q-76 0 -120 38.5t-48 113.5v244q0 11 -8 23t-16.5 19.5t-20 16t-13.5 10.5z" />
    <glyph glyph-name="Uogonek" unicode="&#x172;" horiz-adv-x="759" 
d="M678 687v-416q0 -66 -26.5 -127t-77.5 -101q-56 -59 -72 -79.5t-16 -37.5q0 -27 30 -27q23 0 53 27l35 -64q-17 -17 -46.5 -27t-55.5 -10q-41 0 -68 28.5t-27 69.5q0 37 26 69l-25 -1q-127 0 -200 81.5t-73 198.5v317q0 25 -21 25t-28 -22l-69 47q12 24 39.5 40.5
t55.5 16.5q48 0 77 -28.5t29 -78.5v-317q0 -89 49 -146.5t140 -57.5q94 0 141 60.5t47 143.5v416h83z" />
    <glyph glyph-name="uogonek" unicode="&#x173;" horiz-adv-x="635" 
d="M566 -104l35 -64q-17 -17 -46.5 -27t-55.5 -10q-41 0 -68 28.5t-27 69.5q0 49 59 106q-39 19 -53 61q-62 -68 -156 -68q-76 0 -120 38.5t-48 113.5v244q0 11 -8 23t-16.5 19.5t-20 16t-13.5 10.5l42 64q22 -17 32.5 -25.5t27.5 -26.5t24.5 -38t7.5 -43v-218
q0 -54 23.5 -79.5t73.5 -25.5q47 0 79 21t69 69v353h76v-420q0 -9 7 -16t16 -7q14 0 23 20l65 -44q-10 -16 -22 -27q-57 -60 -73 -80.5t-16 -37.5q0 -27 30 -27q23 0 53 27z" />
    <glyph glyph-name="Wcircumflex" unicode="&#x174;" horiz-adv-x="1117" 
d="M510 765h-96l140 161h58l140 -161h-96l-73 81zM1059 687l-224 -688h-74l-179 548l-177 -548h-74l-198 603q-5 15 -20 15q-18 0 -23 -27l-75 22q6 38 35.5 61t63.5 23q32 0 59 -20t35 -49l159 -491l-5 -22l6 19l6 -19l-5 23l177 550h74l168 -523v-74l3 21l7 22l7 -22
l-6 26l178 550h82zM798 133l-10 31v27l11 -54zM368 133l-1 3l1 6l1 -5z" />
    <glyph glyph-name="wcircumflex" unicode="&#x175;" horiz-adv-x="833" 
d="M578 586h-96l-73 81l-73 -81h-96l140 161h58zM27 464l42 65q61 -37 90 -118l92 -278l122 375h71l123 -375l122 375h79l-165 -508h-72l-122 375l-123 -375h-72l-133 410q-8 19 -23 34.5t-31 19.5z" />
    <glyph glyph-name="Ycircumflex" unicode="&#x176;" horiz-adv-x="643" 
d="M511 765h-96l-73 81l-73 -81h-96l140 161h58zM101 585l-84 8q-1 46 31.5 74.5t71.5 28.5q55 0 87 -53l139 -253l165 297h94l-216 -389v-299h-87l3 297l-169 309q-8 10 -19 10q-8 0 -14 -5t-6 -13q0 -4 4 -12z" />
    <glyph glyph-name="ycircumflex" unicode="&#x177;" horiz-adv-x="567" 
d="M211 586h-96l140 161h58l140 -161h-96l-73 81zM483 508v-610q0 -81 -44.5 -128t-111.5 -47q-71 0 -113 49t-42 114q0 68 35 110q-58 12 -89.5 50.5t-31.5 98.5v243q0 16 -26 42t-32 25l42 66q30 -23 46 -37.5t31 -40.5t15 -55v-218q0 -105 96 -105q44 0 74.5 18.5
t62.5 57.5v-1q11 15 12 37v331h76zM363 11l-49 -25q-36 -19 -51.5 -41t-15.5 -57q0 -40 21 -65t58 -25q38 0 60 26t22 70v148q-26 -21 -45 -31z" />
    <glyph glyph-name="Ydieresis" unicode="&#x178;" horiz-adv-x="643" 
d="M233 884q21 0 37.5 -16t16.5 -37q0 -20 -16.5 -36t-37.5 -16q-20 0 -36 16t-16 36q0 21 16 37t36 16zM448 884q21 0 37.5 -16t16.5 -37q0 -20 -16.5 -36t-37.5 -16q-20 0 -36 16t-16 36q0 21 16 37t36 16zM101 585l-84 8q-1 46 31.5 74.5t71.5 28.5q55 0 87 -53l139 -253
l165 297h94l-216 -389v-299h-87l3 297l-169 309q-8 10 -19 10q-8 0 -14 -5t-6 -13q0 -4 4 -12z" />
    <glyph glyph-name="Zacute" unicode="&#x179;" horiz-adv-x="601" 
d="M479 843l-187 -120l-34 52l171 135zM165 107l16 -3q16 -3 86 -23t102 -20q62 0 115 55l54 -53q-77 -77 -169 -77q-50 0 -134.5 26t-108.5 31l-37 -62l-64 38l353 590h-295v74h426z" />
    <glyph glyph-name="zacute" unicode="&#x17a;" horiz-adv-x="545" 
d="M451 662l-187 -120l-34 52l171 135zM437 478l-258 -377l63 -22q48 -18 103 -18q25 0 44.5 7t54.5 32l35 -63q-65 -50 -132 -50q-61 0 -124 22l-88 28l-43 -62l-60 46l280 411h-239v74h364v-28z" />
    <glyph glyph-name="Zdotaccent" unicode="&#x17b;" horiz-adv-x="601" 
d="M296 894q21 0 37.5 -16t16.5 -37q0 -20 -16.5 -36t-37.5 -16q-20 0 -36 16t-16 36q0 21 16 37t36 16zM165 107l16 -3q16 -3 86 -23t102 -20q62 0 115 55l54 -53q-77 -77 -169 -77q-50 0 -134.5 26t-108.5 31l-37 -62l-64 38l353 590h-295v74h426z" />
    <glyph glyph-name="zdotaccent" unicode="&#x17c;" horiz-adv-x="545" 
d="M268 713q21 0 37.5 -16t16.5 -37q0 -20 -16.5 -36t-37.5 -16q-20 0 -36 16t-16 36q0 21 16 37t36 16zM437 478l-258 -377l63 -22q48 -18 103 -18q25 0 44.5 7t54.5 32l35 -63q-65 -50 -132 -50q-61 0 -124 22l-88 28l-43 -62l-60 46l280 411h-239v74h364v-28z" />
    <glyph glyph-name="Zcaron" unicode="&#x17d;" horiz-adv-x="601" 
d="M330 755h-58l-140 161h96l73 -81l73 81h97zM165 107l16 -3q16 -3 86 -23t102 -20q62 0 115 55l54 -53q-77 -77 -169 -77q-50 0 -134.5 26t-108.5 31l-37 -62l-64 38l353 590h-295v74h426z" />
    <glyph glyph-name="zcaron" unicode="&#x17e;" horiz-adv-x="545" 
d="M302 574h-58l-140 161h96l73 -81l73 81h97zM437 478l-258 -377l63 -22q48 -18 103 -18q25 0 44.5 7t54.5 32l35 -63q-65 -50 -132 -50q-61 0 -124 22l-88 28l-43 -62l-60 46l280 411h-239v74h364v-28z" />
    <glyph glyph-name="longs" unicode="&#x17f;" horiz-adv-x="417" 
d="M56 -253v712q0 60 6.5 102t24 76t49.5 50.5t81 16.5q90 0 130 -59l-58 -58q-11 25 -27.5 34t-42.5 9q-49 0 -68 -34t-19 -101v-748h-76z" />
    <glyph glyph-name="florin" unicode="&#x192;" horiz-adv-x="511" 
d="M391 682l30 -2q14 -2 18 -3l8 -11l-2 -60q-45 0 -68 2h-48q-31 0 -48 -24q-19 -26 -19 -87v-74h167v-76h-167v-400q0 -51 -9 -86q-11 -37 -30 -59q-21 -22 -48 -31t-61 -9q-28 0 -48 3l-29 6v69l35 -3h42q31 0 49 21q19 27 19 89v400h-110v76h110v48q0 61 7 99
q8 43 24 66q18 27 45 38q24 10 63 10h33z" />
    <glyph glyph-name="Ohorn" unicode="&#x1a0;" horiz-adv-x="815" 
d="M720 627l42 57q66 -31 66 -99q0 -49 -34 -75t-76 -30q25 -64 25 -130v-19q0 -147 -101.5 -252.5t-245.5 -105.5q-145 0 -249.5 106.5t-104.5 251.5v19q0 144 102.5 251t247.5 107q91 0 169 -46t127 -122l4 14q8 -4 19 -4q17 0 30.5 9.5t13.5 26.5q0 8 -3.5 14.5t-7 9.5
t-12 8.5t-12.5 8.5zM666 331v19q0 117 -81.5 199t-193.5 82q-113 0 -192 -84t-79 -197v-19q0 -116 80.5 -198.5t192.5 -82.5q113 0 193 83t80 198z" />
    <glyph glyph-name="ohorn" unicode="&#x1a1;" 
d="M556 445l42 57q66 -31 66 -99q0 -52 -37.5 -78t-80.5 -28q3 -21 3 -45q0 -115 -72 -188.5t-182 -73.5q-111 0 -181.5 74.5t-70.5 186.5q0 113 71 189t182 76q79 0 140 -40.5t90 -108.5l2 5q8 -4 19 -4q17 0 30.5 9.5t13.5 26.5q0 8 -3.5 14.5t-7 9.5t-12 8.5t-12.5 8.5z
M296 64q81 0 127.5 53.5t46.5 138.5t-47.5 135.5t-126.5 50.5q-82 0 -128 -53.5t-46 -136.5q0 -85 47 -136.5t127 -51.5z" />
    <glyph glyph-name="Uhorn" unicode="&#x1af;" horiz-adv-x="759" 
d="M700 633l42 57q66 -31 66 -99q0 -54 -40 -80t-83 -26l-7 1v-215q0 -71 -27.5 -132.5t-90.5 -104.5t-152 -43q-127 0 -200 81.5t-73 198.5v317q0 25 -21 25t-28 -22l-69 47q12 24 39.5 40.5t55.5 16.5q48 0 77 -28.5t29 -78.5v-317q0 -89 49 -146.5t140 -57.5
q94 0 141 60.5t47 143.5v416h83v-129q8 -2 13 -2q17 0 30.5 9.5t13.5 26.5q0 8 -3.5 14.5t-7 9.5t-12 8.5t-12.5 8.5z" />
    <glyph glyph-name="uhorn" unicode="&#x1b0;" horiz-adv-x="635" 
d="M483 304v-216q0 -9 7 -16t16 -7q14 0 23 20l65 -44q-32 -52 -87 -52q-34 0 -60.5 20t-36.5 51q-62 -68 -156 -68q-76 0 -120 38.5t-48 113.5v244q0 11 -8 23t-16.5 19.5t-20 16t-13.5 10.5l42 64q22 -17 32.5 -25.5t27.5 -26.5t24.5 -38t7.5 -43v-218q0 -54 23.5 -79.5
t73.5 -25.5q47 0 79 21t69 69v353h77v-132q8 -2 13 -2q17 0 30.5 9.5t13.5 26.5q0 8 -3.5 14.5t-7 9.5t-12 8.5t-12.5 8.5l42 57q66 -31 66 -99q0 -54 -40 -80t-83 -26z" />
    <glyph glyph-name="clickdental" unicode="&#x1c0;" horiz-adv-x="228" 
d="M153 -57h-82v818h82v-818z" />
    <glyph glyph-name="clicklateral" unicode="&#x1c1;" horiz-adv-x="416" 
d="M153 -57h-82v818h82v-818zM341 -57h-82v818h82v-818z" />
    <glyph glyph-name="DZcaron" unicode="&#x1c4;" horiz-adv-x="1311" 
d="M330 766h-58l-140 161h96l73 -81l73 81h97zM875 129l16 -3q16 -3 86 -23t102 -20q62 0 115 55l54 -53q-77 -77 -169 -77q-50 0 -134.5 26t-108.5 31l-37 -62l-64 38l353 590h-295v74h426zM129 703h291q148 -14 233.5 -110t85.5 -252q0 -339 -433 -339q-71 0 -111 4l-27 2
h-1l-29 4v613q-25 -2 -34 -12q-9 -8 -9 -23l-12 -12h-66q-4 55 33 92q35 33 79 33zM221 625v-543q90 -5 154 -5q129 0 205.5 71.5t76.5 201.5q0 121 -67 195.5t-181 79.5h-188z" />
    <glyph glyph-name="Dzcaron" unicode="&#x1c5;" horiz-adv-x="1263" 
d="M1020 585h-58l-140 161h96l73 -81l73 81h97zM129 692h291q148 -14 233.5 -110t85.5 -252q0 -339 -433 -339q-71 0 -111 4l-27 2h-1l-29 4v613q-25 -2 -34 -12q-9 -8 -9 -23l-12 -12h-66q-4 55 33 92q35 33 79 33zM221 614v-543q90 -5 154 -5q129 0 205.5 71.5t76.5 201.5
q0 121 -67 195.5t-181 79.5h-188zM1155 489l-258 -377l63 -22q48 -18 103 -18q25 0 44.5 7t54.5 32l35 -63q-65 -50 -132 -50q-61 0 -124 22l-88 28l-43 -62l-60 46l280 411h-239v74h364v-28z" />
    <glyph glyph-name="dzcaron" unicode="&#x1c6;" horiz-adv-x="1160" 
d="M917 574h-58l-140 161h96l73 -81l73 81h97zM473 728v-639q0 -8 7 -15.5t16 -7.5q13 0 23 21l63 -43q-13 -27 -37 -40.5t-49 -13.5q-29 0 -54.5 17t-37.5 44q-49 -61 -141 -61q-103 0 -161.5 75.5t-58.5 184.5q0 116 67.5 191t180.5 75q37 0 105 -8v220h77zM1052 478
l-258 -377l63 -22q48 -18 103 -18q25 0 44.5 7t54.5 32l35 -63q-65 -50 -132 -50q-61 0 -124 22l-88 28l-43 -62l-60 46l280 411h-239v74h364v-28zM396 193v240q-60 9 -84 9q-190 0 -190 -185q0 -84 36.5 -138.5t104.5 -54.5q85 -2 121 73q12 24 12 56z" />
    <glyph glyph-name="LJ" unicode="&#x1c7;" horiz-adv-x="981" 
d="M512 606l-34 69q81 34 117 34q21 0 91 -23q33 -12 48 -12q10 0 29 10h-1q4 2 7 4.5t4 3.5t1 0v-3l12 11h66v-493q0 -82 -48 -141t-141 -59q-49 0 -86.5 18.5t-58 48.5t-29.5 64t-8 70l78 -6q-3 -53 25.5 -85t81.5 -32q57 0 82 36.5t25 88.5v393q-18 -7 -41 -7
q-22 0 -48 7q-16 4 -45 16t-44 12q-14 0 -43.5 -11.5t-39.5 -13.5zM138 78h317v-79h-399v687h82v-608z" />
    <glyph glyph-name="Lj" unicode="&#x1c8;" horiz-adv-x="764" 
d="M639 716q21 0 37.5 -16t16.5 -37q0 -20 -16.5 -36t-37.5 -16q-20 0 -36 16t-16 36q0 21 16 37t36 16zM138 78h317v-79h-399v687h82v-608zM683 509v-663q0 -40 -29 -69.5t-70 -29.5q-59 0 -88 54l64 42q11 -19 24 -19q10 0 16 6.5t6 15.5v663h77z" />
    <glyph glyph-name="lj" unicode="&#x1c9;" horiz-adv-x="490" 
d="M131 727v-637q0 -10 7 -16.5t16 -6.5q14 0 23 20l64 -42q-12 -24 -37.5 -39t-51.5 -15q-39 0 -68 29.5t-29 69.5v637h76zM365 716q21 0 37.5 -16t16.5 -37q0 -20 -16.5 -36t-37.5 -16q-20 0 -36 16t-16 36q0 21 16 37t36 16zM409 509v-663q0 -40 -29 -69.5t-70 -29.5
q-59 0 -88 54l64 42q11 -19 24 -19q10 0 16 6.5t6 15.5v663h77z" />
    <glyph glyph-name="NJ" unicode="&#x1ca;" horiz-adv-x="1271" 
d="M850 595l-34 69q81 34 117 34q21 0 91 -23q33 -12 48 -12q10 0 29 10h-1q4 2 7 4.5t4 3.5t1 0v-3l12 11h66v-493q0 -82 -48 -141t-141 -59q-49 0 -86.5 18.5t-58 48.5t-29.5 64t-8 70l78 -6q-3 -53 25.5 -85t81.5 -32q57 0 82 36.5t25 88.5v393q-18 -7 -41 -7
q-22 0 -48 7q-16 4 -45 16t-44 12q-14 0 -43.5 -11.5t-39.5 -13.5zM303 561l331 -397l-11 13v508h81v-686h-35l-461 551l12 -11v-445q0 -45 -34.5 -71.5t-71.5 -26.5t-67 29.5t-30 68.5q0 8 1 12h79q-3 -6 -3 -11q0 -9 7 -15.5t16 -6.5t15 6.5t6 14.5v592h54z" />
    <glyph glyph-name="Nj" unicode="&#x1cb;" horiz-adv-x="1054" 
d="M929 716q21 0 37.5 -16t16.5 -37q0 -20 -16.5 -36t-37.5 -16q-20 0 -36 16t-16 36q0 21 16 37t36 16zM303 561l331 -397l-11 13v508h81v-686h-35l-461 551l12 -11v-445q0 -45 -34.5 -71.5t-71.5 -26.5t-67 29.5t-30 68.5q0 8 1 12h79q-3 -6 -3 -11q0 -9 7 -15.5t16 -6.5
t15 6.5t6 14.5v592h54zM973 509v-663q0 -40 -29 -69.5t-70 -29.5q-59 0 -88 54l64 42q11 -19 24 -19q10 0 16 6.5t6 15.5v663h77z" />
    <glyph glyph-name="nj" unicode="&#x1cc;" horiz-adv-x="828" 
d="M703 716q21 0 37.5 -16t16.5 -37q0 -20 -16.5 -36t-37.5 -16q-20 0 -36 16t-16 36q0 21 16 37t36 16zM27 469l49 47q43 -25 60 -78q65 78 165 78q76 0 120 -39t48 -114v-277q0 -9 7.5 -16t15.5 -6q12 0 24 18l63 -41q-30 -54 -88 -54q-42 0 -70.5 30t-28.5 69v251
q0 55 -23 80t-73 25q-47 0 -80 -22t-68 -68v-353h-77v355q0 78 -44 115zM747 509v-663q0 -40 -29 -69.5t-70 -29.5q-59 0 -88 54l64 42q11 -19 24 -19q10 0 16 6.5t6 15.5v663h77z" />
    <glyph glyph-name="Acaron" unicode="&#x1cd;" horiz-adv-x="782" 
d="M383 758l-140 161h96l73 -81l73 81h97l-141 -161h-58zM726 -1h-87l-92 221h-271l-68 -165q-11 -27 -36.5 -43t-53.5 -16q-38 0 -69 27.5t-32 65.5l77 15q3 -28 24 -28q12 0 17 12l259 600h34zM513 298l-102 243l1 2l-1 -1l-1 1l1 -3l-102 -242h204z" />
    <glyph glyph-name="acaron" unicode="&#x1ce;" horiz-adv-x="625" 
d="M310 585h-58l-140 161h96l73 -81l73 81h97zM519 87l63 -43q-13 -27 -37 -40.5t-49 -13.5q-29 0 -54.5 17t-37.5 44q-49 -61 -142 -61q-103 0 -161 76t-58 184q0 117 67.5 191.5t180.5 74.5q53 0 118 -9h64v-418q0 -10 7 -16.5t15 -6.5q15 0 24 21zM396 193v241
q-8 0 -50.5 4t-59.5 4q-78 0 -121 -53t-43 -137q0 -78 36.5 -133t104.5 -55q85 0 121 73q12 24 12 56z" />
    <glyph glyph-name="Icaron" unicode="&#x1cf;" horiz-adv-x="228" 
d="M124 756h-58l-140 161h96l73 -81l73 81h97zM138 -1h-82v687h82v-687z" />
    <glyph glyph-name="icaron" unicode="&#x1d0;" horiz-adv-x="260" 
d="M113 577h-58l-140 161h96l73 -81l73 81h97zM122 508v-419q0 -9 7 -16t15 -7q16 0 22 21l66 -43q-13 -24 -37 -39t-51 -15q-40 0 -69.5 29t-29.5 70v419h77z" />
    <glyph glyph-name="Ocaron" unicode="&#x1d1;" horiz-adv-x="815" 
d="M420 756h-58l-140 161h96l73 -81l73 81h97zM42 331v19q0 144 102.5 251t247.5 107q144 0 247.5 -107t103.5 -251v-19q0 -147 -101.5 -252.5t-245.5 -105.5q-145 0 -249.5 106.5t-104.5 251.5zM666 331v19q0 117 -81.5 199t-193.5 82q-113 0 -192 -84t-79 -197v-19
q0 -116 80.5 -198.5t192.5 -82.5q113 0 193 83t80 198z" />
    <glyph glyph-name="ocaron" unicode="&#x1d2;" 
d="M325 585h-58l-140 161h96l73 -81l73 81h97zM296 516q110 0 181.5 -75t71.5 -189q0 -115 -72 -188.5t-182 -73.5q-111 0 -181.5 74.5t-70.5 186.5q0 113 71 189t182 76zM296 442q-82 0 -128 -53.5t-46 -136.5q0 -85 47 -136.5t127 -51.5q81 0 127.5 53.5t46.5 138.5
t-47.5 135.5t-126.5 50.5z" />
    <glyph glyph-name="Ucaron" unicode="&#x1d3;" horiz-adv-x="759" 
d="M435 756h-58l-140 161h96l73 -81l73 81h97zM86 591l-69 47q12 24 39.5 40.5t55.5 16.5q48 0 77 -28.5t29 -78.5v-317q0 -89 49 -146.5t140 -57.5q94 0 141 60.5t47 143.5v416h83v-416q0 -71 -27.5 -132.5t-90.5 -104.5t-152 -43q-127 0 -200 81.5t-73 198.5v317
q0 25 -21 25t-28 -22z" />
    <glyph glyph-name="ucaron" unicode="&#x1d4;" horiz-adv-x="635" 
d="M301 577h-58l-140 161h96l73 -81l73 81h97zM28 457l42 64q22 -17 32.5 -25.5t27.5 -26.5t24.5 -38t7.5 -43v-218q0 -54 23.5 -79.5t73.5 -25.5q47 0 79 21t69 69v353h76v-420q0 -9 7 -16t16 -7q14 0 23 20l65 -44q-32 -52 -87 -52q-34 0 -60.5 20t-36.5 51
q-62 -68 -156 -68q-76 0 -120 38.5t-48 113.5v244q0 11 -8 23t-16.5 19.5t-20 16t-13.5 10.5z" />
    <glyph glyph-name="Udieresismacron" unicode="&#x1d5;" horiz-adv-x="755" 
d="M567 952h-340v78h340v-78zM297 884q21 0 37.5 -16t16.5 -37q0 -20 -16.5 -36t-37.5 -16q-20 0 -36 16t-16 36q0 21 16 37t36 16zM512 884q21 0 37.5 -16t16.5 -37q0 -20 -16.5 -36t-37.5 -16q-20 0 -36 16t-16 36q0 21 16 37t36 16zM86 591l-69 47q12 24 39.5 40.5
t55.5 16.5q48 0 77 -28.5t29 -78.5v-317q0 -89 49 -146.5t140 -57.5q94 0 141 60.5t47 143.5v416h83v-416q0 -71 -27.5 -132.5t-90.5 -104.5t-152 -43q-127 0 -200 81.5t-73 198.5v317q0 25 -21 25t-28 -22z" />
    <glyph glyph-name="udieresismacron" unicode="&#x1d6;" horiz-adv-x="635" 
d="M457 787h-340v78h340v-78zM163 705q21 0 37.5 -16t16.5 -37q0 -20 -16.5 -36t-37.5 -16q-20 0 -36 16t-16 36q0 21 16 37t36 16zM378 705q21 0 37.5 -16t16.5 -37q0 -20 -16.5 -36t-37.5 -16q-20 0 -36 16t-16 36q0 21 16 37t36 16zM28 457l42 64q22 -17 32.5 -25.5
t27.5 -26.5t24.5 -38t7.5 -43v-218q0 -54 23.5 -79.5t73.5 -25.5q47 0 79 21t69 69v353h76v-420q0 -9 7 -16t16 -7q14 0 23 20l65 -44q-32 -52 -87 -52q-34 0 -60.5 20t-36.5 51q-62 -68 -156 -68q-76 0 -120 38.5t-48 113.5v244q0 11 -8 23t-16.5 19.5t-20 16t-13.5 10.5z
" />
    <glyph glyph-name="Udieresisacute" unicode="&#x1d7;" horiz-adv-x="755" 
d="M595 1014l-187 -120l-34 52l171 135zM297 884q21 0 37.5 -16t16.5 -37q0 -20 -16.5 -36t-37.5 -16q-20 0 -36 16t-16 36q0 21 16 37t36 16zM512 884q21 0 37.5 -16t16.5 -37q0 -20 -16.5 -36t-37.5 -16q-20 0 -36 16t-16 36q0 21 16 37t36 16zM86 591l-69 47
q12 24 39.5 40.5t55.5 16.5q48 0 77 -28.5t29 -78.5v-317q0 -89 49 -146.5t140 -57.5q94 0 141 60.5t47 143.5v416h83v-416q0 -71 -27.5 -132.5t-90.5 -104.5t-152 -43q-127 0 -200 81.5t-73 198.5v317q0 25 -21 25t-28 -22z" />
    <glyph glyph-name="udieresisacute" unicode="&#x1d8;" horiz-adv-x="635" 
d="M465 906l-187 -120l-34 52l171 135zM163 705q21 0 37.5 -16t16.5 -37q0 -20 -16.5 -36t-37.5 -16q-20 0 -36 16t-16 36q0 21 16 37t36 16zM378 705q21 0 37.5 -16t16.5 -37q0 -20 -16.5 -36t-37.5 -16q-20 0 -36 16t-16 36q0 21 16 37t36 16zM28 457l42 64
q22 -17 32.5 -25.5t27.5 -26.5t24.5 -38t7.5 -43v-218q0 -54 23.5 -79.5t73.5 -25.5q47 0 79 21t69 69v353h76v-420q0 -9 7 -16t16 -7q14 0 23 20l65 -44q-32 -52 -87 -52q-34 0 -60.5 20t-36.5 51q-62 -68 -156 -68q-76 0 -120 38.5t-48 113.5v244q0 11 -8 23t-16.5 19.5
t-20 16t-13.5 10.5z" />
    <glyph glyph-name="Udieresiscaron" unicode="&#x1d9;" horiz-adv-x="755" 
d="M446 907h-58l-140 161h96l73 -81l73 81h97zM297 884q21 0 37.5 -16t16.5 -37q0 -20 -16.5 -36t-37.5 -16q-20 0 -36 16t-16 36q0 21 16 37t36 16zM512 884q21 0 37.5 -16t16.5 -37q0 -20 -16.5 -36t-37.5 -16q-20 0 -36 16t-16 36q0 21 16 37t36 16zM86 591l-69 47
q12 24 39.5 40.5t55.5 16.5q48 0 77 -28.5t29 -78.5v-317q0 -89 49 -146.5t140 -57.5q94 0 141 60.5t47 143.5v416h83v-416q0 -71 -27.5 -132.5t-90.5 -104.5t-152 -43q-127 0 -200 81.5t-73 198.5v317q0 25 -21 25t-28 -22z" />
    <glyph glyph-name="udieresiscaron" unicode="&#x1da;" horiz-adv-x="635" 
d="M316 785h-58l-140 161h96l73 -81l73 81h97zM163 705q21 0 37.5 -16t16.5 -37q0 -20 -16.5 -36t-37.5 -16q-20 0 -36 16t-16 36q0 21 16 37t36 16zM378 705q21 0 37.5 -16t16.5 -37q0 -20 -16.5 -36t-37.5 -16q-20 0 -36 16t-16 36q0 21 16 37t36 16zM28 457l42 64
q22 -17 32.5 -25.5t27.5 -26.5t24.5 -38t7.5 -43v-218q0 -54 23.5 -79.5t73.5 -25.5q47 0 79 21t69 69v353h76v-420q0 -9 7 -16t16 -7q14 0 23 20l65 -44q-32 -52 -87 -52q-34 0 -60.5 20t-36.5 51q-62 -68 -156 -68q-76 0 -120 38.5t-48 113.5v244q0 11 -8 23t-16.5 19.5
t-20 16t-13.5 10.5z" />
    <glyph glyph-name="Udieresisgrave" unicode="&#x1db;" horiz-adv-x="755" 
d="M464 937l-33 -52l-187 120l49 67zM297 884q21 0 37.5 -16t16.5 -37q0 -20 -16.5 -36t-37.5 -16q-20 0 -36 16t-16 36q0 21 16 37t36 16zM512 884q21 0 37.5 -16t16.5 -37q0 -20 -16.5 -36t-37.5 -16q-20 0 -36 16t-16 36q0 21 16 37t36 16zM86 591l-69 47
q12 24 39.5 40.5t55.5 16.5q48 0 77 -28.5t29 -78.5v-317q0 -89 49 -146.5t140 -57.5q94 0 141 60.5t47 143.5v416h83v-416q0 -71 -27.5 -132.5t-90.5 -104.5t-152 -43q-127 0 -200 81.5t-73 198.5v317q0 25 -21 25t-28 -22z" />
    <glyph glyph-name="udieresisgrave" unicode="&#x1dc;" horiz-adv-x="635" 
d="M334 833l-33 -52l-187 120l49 67zM163 705q21 0 37.5 -16t16.5 -37q0 -20 -16.5 -36t-37.5 -16q-20 0 -36 16t-16 36q0 21 16 37t36 16zM378 705q21 0 37.5 -16t16.5 -37q0 -20 -16.5 -36t-37.5 -16q-20 0 -36 16t-16 36q0 21 16 37t36 16zM28 457l42 64
q22 -17 32.5 -25.5t27.5 -26.5t24.5 -38t7.5 -43v-218q0 -54 23.5 -79.5t73.5 -25.5q47 0 79 21t69 69v353h76v-420q0 -9 7 -16t16 -7q14 0 23 20l65 -44q-32 -52 -87 -52q-34 0 -60.5 20t-36.5 51q-62 -68 -156 -68q-76 0 -120 38.5t-48 113.5v244q0 11 -8 23t-16.5 19.5
t-20 16t-13.5 10.5z" />
    <glyph glyph-name="Adieresismacron" unicode="&#x1de;" horiz-adv-x="782" 
d="M597 919h-340v78h340v-78zM303 781q-20 0 -36 16t-16 36q0 21 16 37t36 16q21 0 37.5 -16t16.5 -37q0 -20 -16.5 -36t-37.5 -16zM466 833q0 21 16 37t36 16q21 0 37.5 -16t16.5 -37q0 -20 -16.5 -36t-37.5 -16q-20 0 -36 16t-16 36zM726 -1h-87l-92 221h-271l-68 -165
q-11 -27 -36.5 -43t-53.5 -16q-38 0 -69 27.5t-32 65.5l77 15q3 -28 24 -28q12 0 17 12l259 600h34zM513 298l-102 243l1 2l-1 -1l-1 1l1 -3l-102 -242h204z" />
    <glyph glyph-name="adieresismacron" unicode="&#x1df;" horiz-adv-x="625" 
d="M466 656h-340v78h340v-78zM202 643q21 0 37.5 -16t16.5 -37q0 -20 -16.5 -36t-37.5 -16q-20 0 -36 16t-16 36q0 21 16 37t36 16zM417 643q21 0 37.5 -16t16.5 -37q0 -20 -16.5 -36t-37.5 -16q-20 0 -36 16t-16 36q0 21 16 37t36 16zM519 87l63 -43q-13 -27 -37 -40.5
t-49 -13.5q-29 0 -54.5 17t-37.5 44q-49 -61 -142 -61q-103 0 -161 76t-58 184q0 117 67.5 191.5t180.5 74.5q53 0 118 -9h64v-418q0 -10 7 -16.5t15 -6.5q15 0 24 21zM396 193v241q-8 0 -50.5 4t-59.5 4q-78 0 -121 -53t-43 -137q0 -78 36.5 -133t104.5 -55q85 0 121 73
q12 24 12 56z" />
    <glyph glyph-name="Adotmacron" unicode="&#x1e0;" horiz-adv-x="782" 
d="M603 931h-340v78h340v-78zM355 844q0 21 16 37t36 16q21 0 37.5 -16t16.5 -37q0 -20 -16.5 -36t-37.5 -16q-20 0 -36 16t-16 36zM726 -1h-87l-92 221h-271l-68 -165q-11 -27 -36.5 -43t-53.5 -16q-38 0 -69 27.5t-32 65.5l77 15q3 -28 24 -28q12 0 17 12l259 600h34z
M513 298l-102 243l1 2l-1 -1l-1 1l1 -3l-102 -242h204z" />
    <glyph glyph-name="adotmacron" unicode="&#x1e1;" horiz-adv-x="625" 
d="M446 705h-340v78h340v-78zM268 647q21 0 37.5 -16t16.5 -37q0 -20 -16.5 -36t-37.5 -16q-20 0 -36 16t-16 36q0 21 16 37t36 16zM519 87l63 -43q-13 -27 -37 -40.5t-49 -13.5q-29 0 -54.5 17t-37.5 44q-49 -61 -142 -61q-103 0 -161 76t-58 184q0 117 67.5 191.5
t180.5 74.5q53 0 118 -9h64v-418q0 -10 7 -16.5t15 -6.5q15 0 24 21zM396 193v241q-8 0 -50.5 4t-59.5 4q-78 0 -121 -53t-43 -137q0 -78 36.5 -133t104.5 -55q85 0 121 73q12 24 12 56z" />
    <glyph glyph-name="AEmacron" unicode="&#x1e2;" horiz-adv-x="944" 
d="M636 785h-340v78h340v-78zM853 608h-375v-207h307v-79h-307v-244h395v-79h-478v221h-167l-114 -221h-97l361 687h475v-78zM266 298h129v240l12 38z" />
    <glyph glyph-name="aemacron" unicode="&#x1e3;" horiz-adv-x="831" 
d="M571 610h-340v78h340v-78zM105 384l-38 60q35 33 85 52q51 20 100 20q65 0 105 -32q28 -25 41 -57q25 35 58 57q45 32 104 32q81 0 133 -43q55 -47 55 -118q0 -45 -20 -76q-35 -58 -123 -78q-48 -8 -82 -8h-101q9 -60 43 -94q37 -35 106 -35q39 0 74 12q40 14 82 38
l37 -60q-40 -29 -91 -47q-48 -17 -103 -17q-76 0 -127 33q-38 25 -60 64q-17 -39 -50 -62q-49 -35 -122 -35q-75 0 -121 37q-48 40 -48 111q0 46 19 76q27 44 83 62t114 18h83v43q0 56 -22 81q-21 24 -64 24q-41 0 -77 -15q-42 -16 -73 -43zM418 267h105q86 0 123 30
q24 21 24 58q0 44 -30 67t-74 23q-67 0 -108 -57q-37 -51 -40 -121zM341 222h-83q-62 0 -97 -16q-40 -19 -40 -70q0 -42 22.5 -57t61.5 -15q63 0 98 31q38 32 38 88v39z" />
    <glyph glyph-name="Gcaron" unicode="&#x1e6;" horiz-adv-x="758" 
d="M417 770h-58l-140 161h96l73 -81l73 81h97zM597 -161v220q-84 -90 -212 -90q-142 0 -242.5 108.5t-100.5 252.5q0 149 105.5 261.5t245.5 112.5q34 0 72 -8t76 -24.5t62.5 -47.5t24.5 -72q0 -44 -28.5 -73.5t-68.5 -29.5q-43 0 -68 27l46 59q16 -11 23 -11q8 0 14 8t6 20
q0 36 -52 55.5t-106 19.5q-112 0 -194 -89.5t-82 -208.5q0 -115 78.5 -199.5t188.5 -84.5q84 0 142 52.5t70 131.5v88h79v-479q0 -46 -32.5 -73.5t-70.5 -27.5q-28 0 -52.5 15.5t-35.5 39.5l65 45q5 -8 6 -9.5t4 -5.5t6 -4.5t8 -0.5q19 0 23 22z" />
    <glyph glyph-name="gcaron" unicode="&#x1e7;" horiz-adv-x="557" 
d="M315 586h-58l-140 161h96l73 -81l73 81h97zM473 507v-605q0 -77 -44.5 -126t-113.5 -49q-72 0 -113 51t-41 115q0 61 36 106q-28 10 -53 29q-51 40 -76 106t-25 126q0 102 69 179t178 77q14 0 62 -2l58 -7h63zM317 442h-31q-77 0 -122.5 -57t-45.5 -133
q0 -73 39.5 -130.5t100.5 -57.5q26 0 47 10q58 27 83 77q10 22 10 34v252zM398 -101v152q-4 -4 -13.5 -12t-11.5 -10q-9 -8 -17.5 -13.5t-31 -18.5t-41.5 -24q-48 -29 -48 -80q0 -37 22.5 -64t62.5 -27q37 0 56.5 26.5t21.5 70.5z" />
    <glyph glyph-name="Kcaron" unicode="&#x1e8;" horiz-adv-x="654" 
d="M356 756h-58l-140 161h96l73 -81l73 81h97zM409 686h100q-87 -163 -109 -202q-32 -56 -52 -84q-24 -35 -46 -54l188 -266q7 -10 18 -10q9 0 15 6t6 16q0 7 -2 12h80q5 -52 -28 -82t-73 -30q-51 0 -80 42l-196 278q-39 -10 -90 -9v-303h-84v686h82v-302h30q35 1 58 12
q22 10 41 34q25 31 65 100q20 36 77 156z" />
    <glyph glyph-name="kcaron" unicode="&#x1e9;" horiz-adv-x="596" 
d="M471 111l79 -4q3 -40 -27 -73.5t-71 -33.5q-23 0 -47 13t-36 34l-90 147h-147v-194h-76v728h63l-16 18h96l73 -81l73 81h97l-141 -161h-58l-111 128v-265q56 70 146 70q70 0 115.5 -45t45.5 -115q0 -89 -85 -141l83 -132q4 -6 16 -6q20 0 20 20q0 2 -2 12zM135 268h100
q43 0 72 12q58 24 58 82q0 37 -24 60.5t-65 23.5q-46 0 -80.5 -31.5t-50.5 -87.5q-8 -28 -10 -59z" />
    <glyph glyph-name="Oogonek" unicode="&#x1ea;" horiz-adv-x="815" 
d="M743 350v-19q0 -143 -97 -248q-57 -60 -73 -80.5t-16 -37.5q0 -27 30 -27q23 0 53 27l35 -64q-17 -17 -46.5 -27t-55.5 -10q-41 0 -68 28.5t-27 69.5q0 8 2 22q-42 -11 -84 -11q-145 0 -249.5 106.5t-104.5 251.5v19q0 144 102.5 251t247.5 107q144 0 247.5 -107
t103.5 -251zM666 331v19q0 117 -81.5 199t-193.5 82q-113 0 -192 -84t-79 -197v-19q0 -116 80.5 -198.5t192.5 -82.5q113 0 193 83t80 198z" />
    <glyph glyph-name="oogonek" unicode="&#x1eb;" 
d="M452 41h2q-57 -60 -73 -80.5t-16 -37.5q0 -27 30 -27q23 0 53 27l35 -64q-17 -17 -46.5 -27t-55.5 -10q-41 0 -68 28.5t-27 69.5q0 36 27 71l-18 -1q-111 0 -181.5 74.5t-70.5 186.5q0 113 71 189t182 76q110 0 181.5 -75t71.5 -189q0 -135 -97 -211zM122 252
q0 -85 47 -136.5t127 -51.5q81 0 127.5 53.5t46.5 138.5t-47.5 135.5t-126.5 50.5q-82 0 -128 -53.5t-46 -136.5z" />
    <glyph glyph-name="Oogonekmacron" unicode="&#x1ec;" horiz-adv-x="815" 
d="M561 787h-340v78h340v-78zM743 350v-19q0 -143 -97 -248q-57 -60 -73 -80.5t-16 -37.5q0 -27 30 -27q23 0 53 27l35 -64q-17 -17 -46.5 -27t-55.5 -10q-41 0 -68 28.5t-27 69.5q0 8 2 22q-42 -11 -84 -11q-145 0 -249.5 106.5t-104.5 251.5v19q0 144 102.5 251t247.5 107
q144 0 247.5 -107t103.5 -251zM666 331v19q0 117 -81.5 199t-193.5 82q-113 0 -192 -84t-79 -197v-19q0 -116 80.5 -198.5t192.5 -82.5q113 0 193 83t80 198z" />
    <glyph glyph-name="oogonekmacron" unicode="&#x1ed;" 
d="M466 616h-340v78h340v-78zM452 41h2q-57 -60 -73 -80.5t-16 -37.5q0 -27 30 -27q23 0 53 27l35 -64q-17 -17 -46.5 -27t-55.5 -10q-41 0 -68 28.5t-27 69.5q0 36 27 71l-18 -1q-111 0 -181.5 74.5t-70.5 186.5q0 113 71 189t182 76q110 0 181.5 -75t71.5 -189
q0 -135 -97 -211zM122 252q0 -85 47 -136.5t127 -51.5q81 0 127.5 53.5t46.5 138.5t-47.5 135.5t-126.5 50.5q-82 0 -128 -53.5t-46 -136.5z" />
    <glyph glyph-name="jcaron" unicode="&#x1f0;" horiz-adv-x="267" 
d="M176 577h-58l-140 161h96l73 -81l73 81h97zM186 509v-663q0 -40 -29 -69.5t-70 -29.5q-59 0 -88 54l64 42q11 -19 24 -19q10 0 16 6.5t6 15.5v663h77z" />
    <glyph glyph-name="DZ" unicode="&#x1f1;" horiz-adv-x="1311" 
d="M875 118l16 -3q16 -3 86 -23t102 -20q62 0 115 55l54 -53q-77 -77 -169 -77q-50 0 -134.5 26t-108.5 31l-37 -62l-64 38l353 590h-295v74h426zM129 692h291q148 -14 233.5 -110t85.5 -252q0 -339 -433 -339q-71 0 -111 4l-27 2h-1l-29 4v613q-25 -2 -34 -12q-9 -8 -9 -23
l-12 -12h-66q-4 55 33 92q35 33 79 33zM221 614v-543q90 -5 154 -5q129 0 205.5 71.5t76.5 201.5q0 121 -67 195.5t-181 79.5h-188z" />
    <glyph glyph-name="Dz" unicode="&#x1f2;" horiz-adv-x="1266" 
d="M129 692h291q148 -14 233.5 -110t85.5 -252q0 -339 -433 -339q-71 0 -111 4l-27 2h-1l-29 4v613q-25 -2 -34 -12q-9 -8 -9 -23l-12 -12h-66q-4 55 33 92q35 33 79 33zM221 614v-543q90 -5 154 -5q129 0 205.5 71.5t76.5 201.5q0 121 -67 195.5t-181 79.5h-188zM1158 489
l-258 -377l63 -22q48 -18 103 -18q25 0 44.5 7t54.5 32l35 -63q-65 -50 -132 -50q-61 0 -124 22l-88 28l-43 -62l-60 46l280 411h-239v74h364v-28z" />
    <glyph glyph-name="dz" unicode="&#x1f3;" horiz-adv-x="1160" 
d="M473 728v-639q0 -8 7 -15.5t16 -7.5q13 0 23 21l63 -43q-13 -27 -37 -40.5t-49 -13.5q-29 0 -54.5 17t-37.5 44q-49 -61 -141 -61q-103 0 -161.5 75.5t-58.5 184.5q0 116 67.5 191t180.5 75q37 0 105 -8v220h77zM1052 478l-258 -377l63 -22q48 -18 103 -18q25 0 44.5 7
t54.5 32l35 -63q-65 -50 -132 -50q-61 0 -124 22l-88 28l-43 -62l-60 46l280 411h-239v74h364v-28zM396 193v240q-60 9 -84 9q-190 0 -190 -185q0 -84 36.5 -138.5t104.5 -54.5q85 -2 121 73q12 24 12 56z" />
    <glyph glyph-name="Gacute" unicode="&#x1f4;" horiz-adv-x="758" 
d="M566 858l-187 -120l-34 52l171 135zM597 -161v220q-84 -90 -212 -90q-142 0 -242.5 108.5t-100.5 252.5q0 149 105.5 261.5t245.5 112.5q34 0 72 -8t76 -24.5t62.5 -47.5t24.5 -72q0 -44 -28.5 -73.5t-68.5 -29.5q-43 0 -68 27l46 59q16 -11 23 -11q8 0 14 8t6 20
q0 36 -52 55.5t-106 19.5q-112 0 -194 -89.5t-82 -208.5q0 -115 78.5 -199.5t188.5 -84.5q84 0 142 52.5t70 131.5v88h79v-479q0 -46 -32.5 -73.5t-70.5 -27.5q-28 0 -52.5 15.5t-35.5 39.5l65 45q5 -8 6 -9.5t4 -5.5t6 -4.5t8 -0.5q19 0 23 22z" />
    <glyph glyph-name="gacute" unicode="&#x1f5;" horiz-adv-x="557" 
d="M464 674l-187 -120l-34 52l171 135zM473 507v-605q0 -77 -44.5 -126t-113.5 -49q-72 0 -113 51t-41 115q0 61 36 106q-28 10 -53 29q-51 40 -76 106t-25 126q0 102 69 179t178 77q14 0 62 -2l58 -7h63zM317 442h-31q-77 0 -122.5 -57t-45.5 -133q0 -73 39.5 -130.5
t100.5 -57.5q26 0 47 10q58 27 83 77q10 22 10 34v252zM398 -101v152q-4 -4 -13.5 -12t-11.5 -10q-9 -8 -17.5 -13.5t-31 -18.5t-41.5 -24q-48 -29 -48 -80q0 -37 22.5 -64t62.5 -27q37 0 56.5 26.5t21.5 70.5z" />
    <glyph glyph-name="uni01F8" unicode="&#x1f8;" horiz-adv-x="787" 
d="M469 776l-33 -52l-187 120l49 67zM303 561l331 -397l-11 13v508h81v-686h-35l-461 551l12 -11v-445q0 -45 -34.5 -71.5t-71.5 -26.5t-67 29.5t-30 68.5q0 8 1 12h79q-3 -6 -3 -11q0 -9 7 -15.5t16 -6.5t15 6.5t6 14.5v592h54z" />
    <glyph glyph-name="uni01F9" unicode="&#x1f9;" 
d="M341 605l-33 -52l-187 120l49 67zM27 469l49 47q43 -25 60 -78q65 78 165 78q76 0 120 -39t48 -114v-277q0 -9 7.5 -16t15.5 -6q12 0 24 18l63 -41q-30 -54 -88 -54q-42 0 -70.5 30t-28.5 69v251q0 55 -23 80t-73 25q-47 0 -80 -22t-68 -68v-353h-77v355q0 78 -44 115z
" />
    <glyph glyph-name="Aringacute" unicode="&#x1fa;" horiz-adv-x="782" 
d="M590 846l-71 -46q-7 -40 -37 -64.5t-72 -24.5q-49 0 -78.5 31t-29.5 80t30 80.5t80 31.5q62 0 93 -49l35 28zM383 789l66 52q-8 27 -37 27q-39 0 -39 -46q0 -20 10 -33zM726 -1h-87l-92 221h-271l-68 -165q-11 -27 -36.5 -43t-53.5 -16q-38 0 -69 27.5t-32 65.5l77 15
q3 -28 24 -28q12 0 17 12l259 600h34zM513 298l-102 243l1 2l-1 -1l-1 1l1 -3l-102 -242h204z" />
    <glyph glyph-name="aringacute" unicode="&#x1fb;" horiz-adv-x="625" 
d="M474 888l-187 -120l-34 52l171 135zM281 761q49 0 79 -31t30 -79q0 -50 -31.5 -81.5t-79.5 -31.5q-49 0 -78.5 31t-29.5 80t30 80.5t80 31.5zM281 695q-39 0 -39 -46q0 -22 10.5 -34t27.5 -12q18 0 29.5 13.5t11.5 34.5q0 20 -11 32t-29 12zM519 87l63 -43
q-13 -27 -37 -40.5t-49 -13.5q-29 0 -54.5 17t-37.5 44q-49 -61 -142 -61q-103 0 -161 76t-58 184q0 117 67.5 191.5t180.5 74.5q53 0 118 -9h64v-418q0 -10 7 -16.5t15 -6.5q15 0 24 21zM396 193v241q-8 0 -50.5 4t-59.5 4q-78 0 -121 -53t-43 -137q0 -78 36.5 -133
t104.5 -55q85 0 121 73q12 24 12 56z" />
    <glyph glyph-name="AEacute" unicode="&#x1fc;" horiz-adv-x="944" 
d="M644 842l-187 -120l-34 52l171 135zM853 608h-375v-207h307v-79h-307v-244h395v-79h-478v221h-167l-114 -221h-97l361 687h475v-78zM266 298h129v240l12 38z" />
    <glyph glyph-name="aeacute" unicode="&#x1fd;" horiz-adv-x="831" 
d="M579 667l-187 -120l-34 52l171 135zM105 384l-38 60q35 33 85 52q51 20 100 20q65 0 105 -32q28 -25 41 -57q25 35 58 57q45 32 104 32q81 0 133 -43q55 -47 55 -118q0 -45 -20 -76q-35 -58 -123 -78q-48 -8 -82 -8h-101q9 -60 43 -94q37 -35 106 -35q39 0 74 12
q40 14 82 38l37 -60q-40 -29 -91 -47q-48 -17 -103 -17q-76 0 -127 33q-38 25 -60 64q-17 -39 -50 -62q-49 -35 -122 -35q-75 0 -121 37q-48 40 -48 111q0 46 19 76q27 44 83 62t114 18h83v43q0 56 -22 81q-21 24 -64 24q-41 0 -77 -15q-42 -16 -73 -43zM418 267h105
q86 0 123 30q24 21 24 58q0 44 -30 67t-74 23q-67 0 -108 -57q-37 -51 -40 -121zM341 222h-83q-62 0 -97 -16q-40 -19 -40 -70q0 -42 22.5 -57t61.5 -15q63 0 98 31q38 32 38 88v39z" />
    <glyph glyph-name="Oslashacute" unicode="&#x1fe;" horiz-adv-x="815" 
d="M361 724l-34 52l171 135l50 -67zM642 679l-32 -51q62 -51 97.5 -124t35.5 -154v-19q0 -147 -101.5 -252.5t-245.5 -105.5q-88 0 -167 44l-34 -56l-84 26l50 79q-119 108 -119 265v19q0 144 102.5 251t247.5 107q77 0 149 -35l20 31zM120 350v-19q0 -116 82 -200l298 476
q-51 24 -109 24q-113 0 -192 -84t-79 -197zM666 331v19q0 129 -96 213l-301 -482q59 -31 124 -31q113 0 193 83t80 198z" />
    <glyph glyph-name="oslashacute" unicode="&#x1ff;" 
d="M468 665l-187 -120l-34 52l171 135zM496 489l-27 -39q80 -73 80 -195q0 -124 -77 -195t-178 -71q-57 0 -109 23l-21 -37l-69 41l27 38q-79 70 -79 196q0 113 70.5 189.5t181.5 76.5q61 0 110 -23l23 38zM162 118l204 311q-23 13 -62 13q-83 0 -132.5 -52t-49.5 -141
q0 -82 40 -131zM430 387l-202 -313q30 -11 67 -11q74 0 124.5 52t50.5 145q0 81 -40 127z" />
    <glyph glyph-name="einvertedbreve" unicode="&#x207;" horiz-adv-x="521" 
d="M415 539h-83q2 41 -13.5 61t-51.5 20q-69 0 -69 -81h-82q-2 69 37.5 112.5t112.5 43.5q70 0 110 -41t39 -115zM431 125l37 -60q-89 -64 -196 -64q-112 0 -170.5 68.5t-58.5 175.5q0 50 13 98.5t39 90.5t71 67.5t102 25.5q77 0 130.5 -44.5t53.5 -116.5
q0 -77 -61.5 -119.5t-163.5 -42.5h-101q22 -129 146 -129q66 0 159 50zM122 278h105q148 0 148 88q0 43 -30 66.5t-74 23.5q-69 0 -107 -56t-42 -122z" />
    <glyph glyph-name="iinvertedbreve" unicode="&#x20b;" horiz-adv-x="260" 
d="M248 539h-83q2 41 -13.5 61t-51.5 20q-69 0 -69 -81h-82q-2 69 37.5 112.5t112.5 43.5q70 0 110 -41t39 -115zM137 519v-419q0 -9 7 -16t15 -7q16 0 22 21l66 -43q-13 -24 -37 -39t-51 -15q-41 0 -70 29.5t-29 69.5v419h77z" />
    <glyph glyph-name="oinvertedbreve" unicode="&#x20f;" horiz-adv-x="606" 
d="M446 539h-83q2 41 -13.5 61t-51.5 20q-69 0 -69 -81h-82q-2 69 37.5 112.5t112.5 43.5q70 0 110 -41t39 -115zM296 527q110 0 181.5 -75t71.5 -189q0 -115 -72 -188.5t-182 -73.5q-111 0 -181.5 74.5t-70.5 186.5q0 113 71 189t182 76zM296 453q-82 0 -128 -53.5
t-46 -136.5q0 -85 47 -136.5t127 -51.5q81 0 127.5 53.5t46.5 138.5t-47.5 135.5t-126.5 50.5z" />
    <glyph glyph-name="rinvertedbreve" unicode="&#x213;" horiz-adv-x="373" 
d="M371 565h-83q2 41 -13.5 61t-51.5 20q-69 0 -69 -81h-82q-2 69 37.5 112.5t112.5 43.5q70 0 110 -41t39 -115zM37 469l49 47q41 -27 58 -73q25 35 49 49q37 24 90 24q12 0 68 -10v-75q-39 10 -66 10q-48 0 -75 -23q-30 -22 -52 -64v-355h-77v355q0 78 -44 115z" />
    <glyph glyph-name="uinvertedbreve" unicode="&#x217;" horiz-adv-x="635" 
d="M442 562h-83q2 41 -13.5 61t-51.5 20q-69 0 -69 -81h-82q-2 69 37.5 112.5t112.5 43.5q70 0 110 -41t39 -115zM43 468l42 64q22 -17 32.5 -25.5t27.5 -26.5t24.5 -38t7.5 -43v-218q0 -54 23.5 -79.5t73.5 -25.5q47 0 79 21t69 69v353h76v-420q0 -9 7 -16t16 -7
q14 0 23 20l65 -44q-32 -52 -87 -52q-34 0 -60.5 20t-36.5 51q-62 -68 -156 -68q-76 0 -120 38.5t-48 113.5v244q0 11 -8 23t-16.5 19.5t-20 16t-13.5 10.5z" />
    <glyph glyph-name="Scommaaccent" unicode="&#x218;" horiz-adv-x="572" 
d="M23 157l71 29q24 -63 72.5 -98.5t107.5 -35.5q65 0 107 42t42 101q0 42 -22 66.5t-68 48.5q-14 7 -48.5 23.5t-55 27t-50 30t-46 38.5t-29 47.5t-12.5 60.5q0 73 55.5 122t132.5 49q31 0 63 -10q47 -14 73.5 -46t26.5 -71q0 -40 -28 -68t-69 -28q-7 0 -21 2l6 82
q8 -11 17 -11q17 0 17 24q0 22 -26.5 35.5t-58.5 13.5q-46 0 -79 -27t-33 -65q0 -29 23.5 -55t48.5 -40t71 -35.5t61 -29.5q128 -68 128 -183q0 -89 -65.5 -155t-159.5 -66q-82 0 -154.5 51.5t-97.5 130.5zM276 -277h-76l44 224h86z" />
    <glyph glyph-name="scommaaccent" unicode="&#x219;" horiz-adv-x="461" 
d="M30 55l39 60q70 -51 147 -51q45 0 74 18.5t29 57.5q0 27 -14 44t-47 32q-17 8 -50.5 20.5t-55 22.5t-45 26t-35 40t-11.5 57q0 61 45 97.5t109 36.5q35 0 75 -10t62 -27l-16 -73q-57 36 -122 36q-36 0 -55 -15t-19 -40q0 -29 27.5 -48t80.5 -39t78 -35q72 -45 72 -124
q0 -75 -55 -113t-132 -38q-105 0 -181 65zM219 -277h-76l44 224h86z" />
    <glyph glyph-name="uni021A" unicode="&#x21a;" horiz-adv-x="637" 
d="M586 608h-231v-609h-83v609h-144q-10 0 -16 -6.5t-6 -14.5q0 -7 6 -11h-84q-5 48 28 81q29 29 69 29h461v-78zM303 -277h-76l44 224h86z" />
    <glyph glyph-name="uni021B" unicode="&#x21b;" horiz-adv-x="384" 
d="M130 506h154v-77h-154v-279q0 -44 12.5 -65t44.5 -21q62 0 87 63l60 -44q-48 -93 -147 -93q-69 0 -101 43t-32 117v478h76v-122zM182 -277h-76l44 224h86z" />
    <glyph glyph-name="uni021E" unicode="&#x21e;" horiz-adv-x="709" 
d="M411 756h-58l-140 161h96l73 -81l73 81h97zM83 589l-70 47q30 55 90 55q40 0 71.5 -29t31.5 -73v-194h335v291h82v-687h-82v318h-335v-318h-83v590q0 19 -19 19q-12 0 -21 -19z" />
    <glyph glyph-name="uni021F" unicode="&#x21f;" horiz-adv-x="605" 
d="M332 577h-58l-140 161h96l73 -81l73 81h97zM132 730v-276q60 64 152 64q83 0 126 -43.5t43 -123.5v-260q0 -9 7 -15.5t16 -6.5q14 0 22 20l65 -43q-28 -53 -87 -53q-42 0 -70.5 28.5t-28.5 69.5v257q0 97 -100 97q-45 0 -77.5 -21.5t-67.5 -68.5v-353h-76v728h76z" />
    <glyph glyph-name="Adotaccent" unicode="&#x226;" horiz-adv-x="782" 
d="M407 792q-20 0 -36 16t-16 36q0 21 16 37t36 16q21 0 37.5 -16t16.5 -37q0 -20 -16.5 -36t-37.5 -16zM726 -1h-87l-92 221h-271l-68 -165q-11 -27 -36.5 -43t-53.5 -16q-38 0 -69 27.5t-32 65.5l77 15q3 -28 24 -28q12 0 17 12l259 600h34zM513 298l-102 243l1 2l-1 -1
l-1 1l1 -3l-102 -242h204z" />
    <glyph glyph-name="adotaccent" unicode="&#x227;" horiz-adv-x="625" 
d="M276 724q21 0 37.5 -16t16.5 -37q0 -20 -16.5 -36t-37.5 -16q-20 0 -36 16t-16 36q0 21 16 37t36 16zM519 87l63 -43q-13 -27 -37 -40.5t-49 -13.5q-29 0 -54.5 17t-37.5 44q-49 -61 -142 -61q-103 0 -161 76t-58 184q0 117 67.5 191.5t180.5 74.5q53 0 118 -9h64v-418
q0 -10 7 -16.5t15 -6.5q15 0 24 21zM396 193v241q-8 0 -50.5 4t-59.5 4q-78 0 -121 -53t-43 -137q0 -78 36.5 -133t104.5 -55q85 0 121 73q12 24 12 56z" />
    <glyph glyph-name="uni0228" unicode="&#x228;" horiz-adv-x="659" 
d="M212 609v-208h259v-79h-259v-244h375v-79h-186l-4 -16q32 -8 49.5 -35.5t17.5 -59.5q0 -46 -33 -82t-88 -31v76q8 -2 12 -2q15 0 25 12t10 28q0 28 -35 28h-43l8 82h-191v609q-15 0 -24 -10q-11 -9 -11 -25q0 -4 2 -12h-78q0 2 -0.5 6t-0.5 7q0 44 32 78q36 34 79 34h459
v-77h-375z" />
    <glyph glyph-name="uni0229" unicode="&#x229;" horiz-adv-x="536" 
d="M303 -9l-2 -8q32 -8 49.5 -35.5t17.5 -59.5q0 -46 -33 -82t-88 -31v76q8 -2 12 -2q15 0 25 12t10 28q0 28 -35 28h-43l8 77q-89 14 -135 80t-46 160q0 50 13 98.5t39 90.5t71 67.5t102 25.5q77 0 130.5 -44.5t53.5 -116.5q0 -77 -61.5 -119.5t-163.5 -42.5h-101
q22 -129 146 -129q66 0 159 50l37 -60q-76 -55 -165 -63zM122 267h105q148 0 148 88q0 43 -30 66.5t-74 23.5q-69 0 -107 -56t-42 -122z" />
    <glyph glyph-name="uni022A" unicode="&#x22a;" horiz-adv-x="815" 
d="M556 931h-340v78h340v-78zM282 884q21 0 37.5 -16t16.5 -37q0 -20 -16.5 -36t-37.5 -16q-20 0 -36 16t-16 36q0 21 16 37t36 16zM497 884q21 0 37.5 -16t16.5 -37q0 -20 -16.5 -36t-37.5 -16q-20 0 -36 16t-16 36q0 21 16 37t36 16zM42 331v19q0 144 102.5 251t247.5 107
q144 0 247.5 -107t103.5 -251v-19q0 -147 -101.5 -252.5t-245.5 -105.5q-145 0 -249.5 106.5t-104.5 251.5zM666 331v19q0 117 -81.5 199t-193.5 82q-113 0 -192 -84t-79 -197v-19q0 -116 80.5 -198.5t192.5 -82.5q113 0 193 83t80 198z" />
    <glyph glyph-name="uni022B" unicode="&#x22b;" 
d="M481 784h-340v78h340v-78zM187 713q21 0 37.5 -16t16.5 -37q0 -20 -16.5 -36t-37.5 -16q-20 0 -36 16t-16 36q0 21 16 37t36 16zM402 713q21 0 37.5 -16t16.5 -37q0 -20 -16.5 -36t-37.5 -16q-20 0 -36 16t-16 36q0 21 16 37t36 16zM296 516q110 0 181.5 -75t71.5 -189
q0 -115 -72 -188.5t-182 -73.5q-111 0 -181.5 74.5t-70.5 186.5q0 113 71 189t182 76zM296 442q-82 0 -128 -53.5t-46 -136.5q0 -85 47 -136.5t127 -51.5q81 0 127.5 53.5t46.5 138.5t-47.5 135.5t-126.5 50.5z" />
    <glyph glyph-name="Ymacron" unicode="&#x232;" horiz-adv-x="643" 
d="M512 787h-340v78h340v-78zM101 585l-84 8q-1 46 31.5 74.5t71.5 28.5q55 0 87 -53l139 -253l165 297h94l-216 -389v-299h-87l3 297l-169 309q-8 10 -19 10q-8 0 -14 -5t-6 -13q0 -4 4 -12z" />
    <glyph glyph-name="ymacron" unicode="&#x233;" horiz-adv-x="567" 
d="M454 608h-340v78h340v-78zM483 508v-610q0 -81 -44.5 -128t-111.5 -47q-71 0 -113 49t-42 114q0 68 35 110q-58 12 -89.5 50.5t-31.5 98.5v243q0 16 -26 42t-32 25l42 66q30 -23 46 -37.5t31 -40.5t15 -55v-218q0 -105 96 -105q44 0 74.5 18.5t62.5 57.5v-1q11 15 12 37
v331h76zM363 11l-49 -25q-36 -19 -51.5 -41t-15.5 -57q0 -40 21 -65t58 -25q38 0 60 26t22 70v148q-26 -21 -45 -31z" />
    <glyph glyph-name="dotlessj" unicode="&#x237;" horiz-adv-x="267" 
d="M186 509v-663q0 -40 -29 -69.5t-70 -29.5q-59 0 -88 54l64 42q11 -19 24 -19q10 0 16 6.5t6 15.5v663h77z" />
    <glyph glyph-name="primemod" unicode="&#x2b9;" horiz-adv-x="217" 
d="M145 488h-73l-11 209h95z" />
    <glyph glyph-name="dblprimemod" unicode="&#x2ba;" horiz-adv-x="335" 
d="M284 489h-72l-11 209h94zM151 488h-73l-11 209h95z" />
    <glyph glyph-name="uni02BC" unicode="&#x2bc;" horiz-adv-x="234" 
d="M77 595v58q0 17 12 31q13 13 31 13t31 -13q11 -13 11 -31v-58q0 -44 -16 -85q-19 -48 -64 -77l-49 47q44 35 44 115z" />
    <glyph glyph-name="circumflex" unicode="&#x2c6;" horiz-adv-x="437" 
d="M372 586h-96l-73 81l-73 -81h-96l140 161h58z" />
    <glyph glyph-name="caron" unicode="&#x2c7;" horiz-adv-x="418" 
d="M223 577h-58l-140 161h96l73 -81l73 81h97z" />
    <glyph glyph-name="breve" unicode="&#x2d8;" horiz-adv-x="432" 
d="M268 730h83q1 -74 -39 -115t-110 -41q-73 0 -112.5 43.5t-37.5 112.5h82q0 -81 69 -81q36 0 51.5 20t13.5 61z" />
    <glyph glyph-name="dotaccent" unicode="&#x2d9;" horiz-adv-x="202" 
d="M97 720q21 0 37.5 -16t16.5 -37q0 -20 -16.5 -36t-37.5 -16q-20 0 -36 16t-16 36q0 21 16 37t36 16z" />
    <glyph glyph-name="ring" unicode="&#x2da;" horiz-adv-x="335" 
d="M153 753q49 0 79 -31t30 -79q0 -50 -31.5 -81.5t-79.5 -31.5q-49 0 -78.5 31t-29.5 80t30 80.5t80 31.5zM153 687q-39 0 -39 -46q0 -22 10.5 -34t27.5 -12q18 0 29.5 13.5t11.5 34.5q0 20 -11 32t-29 12z" />
    <glyph glyph-name="ogonek" unicode="&#x2db;" horiz-adv-x="291" 
d="M126 30l83 -9q-57 -60 -73 -80.5t-16 -37.5q0 -27 30 -27q23 0 53 27l35 -64q-17 -17 -46.5 -27t-55.5 -10q-41 0 -68 28.5t-27 69.5q0 24 12 46.5t26 37.5t47 46z" />
    <glyph glyph-name="tilde" unicode="&#x2dc;" horiz-adv-x="517" 
d="M388 704l48 -58q-26 -21 -36.5 -28.5t-33.5 -15.5t-52 -8q-22 0 -78 16l-55 16q-33 0 -74 -37l-47 58q61 54 120 54q34 0 77 -17t59 -17q28 0 72 37z" />
    <glyph glyph-name="hungarumlaut" unicode="&#x2dd;" horiz-adv-x="504" 
d="M255 701l-165 -136l-55 51l166 137zM441 701l-167 -136l-55 51l165 137z" />
    <glyph glyph-name="gravecomb" unicode="&#x300;" horiz-adv-x="0" 
d="M259 646l-29 -69l-225 95l31 75z" />
    <glyph glyph-name="acutecomb" unicode="&#x301;" horiz-adv-x="0" 
d="M288 672l-225 -95l-29 69l223 101z" />
    <glyph glyph-name="circumflexcomb" unicode="&#x302;" horiz-adv-x="0" 
d="M365 577h-97l-73 81l-72 -81h-97l140 161h57z" />
    <glyph glyph-name="tildecomb" unicode="&#x303;" horiz-adv-x="0" 
d="M366 742l48 -58q-26 -21 -36.5 -28.5t-33.5 -15.5t-52 -8q-22 0 -78 16l-55 16q-33 0 -74 -37l-47 58q61 54 120 54q34 0 77 -17t59 -17q28 0 72 37z" />
    <glyph glyph-name="macroncomb" unicode="&#x304;" horiz-adv-x="0" 
d="M342 617h-297v75h297v-75z" />
    <glyph glyph-name="brevecomb" unicode="&#x306;" horiz-adv-x="0" 
d="M278 730h82q2 -70 -42 -113t-117 -43t-117 44.5t-42 111.5h82q-1 -40 19.5 -60.5t57.5 -20.5q40 0 59.5 21.5t17.5 59.5z" />
    <glyph glyph-name="dieresiscomb" unicode="&#x308;" horiz-adv-x="0" 
d="M69 705q20 0 37 -15q15 -17 15 -37t-15 -35t-37 -15q-20 0 -35 15t-15 35t15 37q15 15 35 15zM284 705q21 0 36 -15q15 -17 15 -37t-15 -35q-14 -15 -36 -15q-21 0 -36 15t-15 35t15 37q17 15 36 15z" />
    <glyph glyph-name="ringcomb" unicode="&#x30a;" horiz-adv-x="0" 
d="M168 764q49 0 79 -31t30 -79q0 -50 -31.5 -81.5t-79.5 -31.5q-49 0 -78.5 31t-29.5 80t30 80.5t80 31.5zM168 698q-39 0 -39 -46q0 -22 10.5 -34t27.5 -12q18 0 29.5 13.5t11.5 34.5q0 20 -11 32t-29 12z" />
    <glyph glyph-name="caroncomb" unicode="&#x30c;" horiz-adv-x="0" 
d="M223 577h-58l-140 161h96l73 -81l73 81h97z" />
    <glyph glyph-name="commaaccentcomb" unicode="&#x326;" horiz-adv-x="0" 
d="M99 -277h-76l44 224h86z" />
    <glyph glyph-name="cedillacomb" unicode="&#x327;" horiz-adv-x="0" 
d="M180 44l-11 -50q32 -8 49.5 -35.5t17.5 -59.5q0 -46 -33 -82t-88 -31v76q8 -2 12 -2q15 0 25 12t10 28q0 28 -35 28h-43l12 116h84z" />
    <glyph glyph-name="ogonekcomb" unicode="&#x328;" horiz-adv-x="0" 
d="M141 41l83 -9q-57 -60 -73 -80.5t-16 -37.5q0 -27 30 -27q23 0 53 27l35 -64q-17 -17 -46.5 -27t-55.5 -10q-41 0 -68 28.5t-27 69.5q0 24 12 46.5t26 37.5t47 46z" />
    <glyph glyph-name="gravetonecomb" unicode="&#x340;" horiz-adv-x="0" 
d="M274 657l-29 -69l-225 95l31 75z" />
    <glyph glyph-name="acutetonecomb" unicode="&#x341;" horiz-adv-x="0" 
d="M303 683l-225 -95l-29 69l223 101z" />
    <glyph glyph-name="dialytikatonoscomb" unicode="&#x344;" horiz-adv-x="0" 
d="M411 842l-225 -95l-29 69l223 101zM84 716q20 0 37 -15q15 -17 15 -37t-15 -35t-37 -15q-20 0 -35 15t-15 35t15 37q15 15 35 15zM299 716q21 0 36 -15q15 -17 15 -37t-15 -35q-13 -15 -36 -15q-21 0 -36 15t-15 35t15 37q17 15 36 15z" />
    <glyph glyph-name="numeralsigngreek" unicode="&#x374;" horiz-adv-x="217" 
d="M160 499h-73l-11 209h95z" />
    <glyph glyph-name="questiongreek" unicode="&#x37e;" horiz-adv-x="223" 
d="M131 505q21 0 37.5 -16t16.5 -37q0 -20 -16.5 -36t-37.5 -16q-20 0 -36 16t-16 36q0 21 16 37t36 16zM87 83v1q0 18 12.5 30.5t30.5 12.5q19 0 31 -14t12 -29v-20q0 -43 -12 -76q-15 -36 -61 -67l-49 47q23 19 32 42q5 18 5 41q0 19 -1 32z" />
    <glyph glyph-name="anoteleia" unicode="&#x387;" horiz-adv-x="248" 
d="M124 408q27 0 48 -20.5t21 -48.5t-21 -49t-48 -21q-28 0 -49 21t-21 49t21 48.5t49 20.5z" />
    <glyph glyph-name="Alpha" unicode="&#x391;" horiz-adv-x="782" 
d="M726 -1h-87l-92 221h-271l-68 -165q-11 -27 -36.5 -43t-53.5 -16q-38 0 -69 27.5t-32 65.5l77 15q3 -28 24 -28q12 0 17 12l259 600h34zM513 298l-102 243l1 2l-1 -1l-1 1l1 -3l-102 -242h204z" />
    <glyph glyph-name="Beta" unicode="&#x392;" horiz-adv-x="656" 
d="M129 697h216q89 0 148 -52.5t59 -133.5q0 -48 -21.5 -85.5t-57.5 -56.5q109 -57 109 -181q0 -99 -73 -148.5t-194 -49.5q-65 0 -115 5l-62 7v617q-25 -1 -31 -9q-11 -11 -11 -27l-12 -11h-65q0 2 -0.5 6t-0.5 7q0 45 32 77q35 35 79 35zM221 619v-548q95 -5 98 -5
q183 0 183 123q0 63 -43 99t-108 36h-104v77h97q59 0 93 29q34 30 34 81q0 50 -30.5 78t-82.5 30h-137z" />
    <glyph glyph-name="Delta" unicode="&#x394;" horiz-adv-x="569" 
d="M513 70l3 -60h-458l-3 60l165 611h127zM281 603l-137 -515h279l-137 515h-5z" />
    <glyph glyph-name="Epsilon" unicode="&#x395;" horiz-adv-x="659" 
d="M587 609h-375v-208h259v-79h-259v-244h375v-79h-458v609q-15 0 -24 -10q-11 -9 -11 -25q0 -4 2 -12h-78q0 2 -0.5 6t-0.5 7q0 44 32 78q36 34 79 34h459v-77z" />
    <glyph glyph-name="Zeta" unicode="&#x396;" horiz-adv-x="601" 
d="M165 107l16 -3q16 -3 86 -23t102 -20q62 0 115 55l54 -53q-77 -77 -169 -77q-50 0 -134.5 26t-108.5 31l-37 -62l-64 38l353 590h-295v74h426z" />
    <glyph glyph-name="Eta" unicode="&#x397;" horiz-adv-x="709" 
d="M83 589l-70 47q30 55 90 55q40 0 71.5 -29t31.5 -73v-194h335v291h82v-687h-82v318h-335v-318h-83v590q0 19 -19 19q-12 0 -21 -19z" />
    <glyph glyph-name="Iota" unicode="&#x399;" horiz-adv-x="228" 
d="M138 -1h-82v687h82v-687z" />
    <glyph glyph-name="Kappa" unicode="&#x39a;" horiz-adv-x="654" 
d="M409 686h100q-87 -163 -109 -202q-32 -56 -52 -84q-24 -35 -46 -54l188 -266q7 -10 18 -10q9 0 15 6t6 16q0 7 -2 12h80q5 -52 -28 -82t-73 -30q-51 0 -80 42l-196 278q-39 -10 -90 -9v-303h-84v686h82v-302h30q35 1 58 12q22 10 41 34q25 31 65 100q20 36 77 156z" />
    <glyph glyph-name="Mu" unicode="&#x39c;" horiz-adv-x="1010" 
d="M875 -1l-109 541l2 10l-2 -8l-3 13l3 -13l-197 -543h-73l-195 540l2 12l-2 -10l-3 6l2 -7l-94 -469q-7 -32 -33.5 -55t-60.5 -23q-33 0 -60 21t-35 50l70 29q8 -15 12 -19t13 -4q12 0 17 13l124 603h75l205 -561l1 -1l-1 2l207 560h73l141 -687h-79zM766 542v-2v2z
M301 541v-2v-1v3z" />
    <glyph glyph-name="Nu" unicode="&#x39d;" horiz-adv-x="787" 
d="M303 561l331 -397l-11 13v508h81v-686h-35l-461 551l12 -11v-445q0 -45 -34.5 -71.5t-71.5 -26.5t-67 29.5t-30 68.5q0 8 1 12h79q-3 -6 -3 -11q0 -9 7 -15.5t16 -6.5t15 6.5t6 14.5v592h54z" />
    <glyph glyph-name="Omicron" unicode="&#x39f;" horiz-adv-x="815" 
d="M42 331v19q0 144 102.5 251t247.5 107q144 0 247.5 -107t103.5 -251v-19q0 -147 -101.5 -252.5t-245.5 -105.5q-145 0 -249.5 106.5t-104.5 251.5zM666 331v19q0 117 -81.5 199t-193.5 82q-113 0 -192 -84t-79 -197v-19q0 -116 80.5 -198.5t192.5 -82.5q113 0 193 83
t80 198z" />
    <glyph glyph-name="Rho" unicode="&#x3a1;" 
d="M128 686h224q92 0 144.5 -61.5t52.5 -155.5q0 -107 -65.5 -163.5t-160.5 -56.5q-37 0 -85 6v76q72 -4 81 -4q150 0 150 141q0 136 -131 141h-116v-610h-83v610q-24 -1 -33 -11q-13 -12 -11 -37h-77q0 2 -0.5 6t-0.5 7q0 44 32 78q36 34 79 34z" />
    <glyph glyph-name="Tau" unicode="&#x3a4;" horiz-adv-x="637" 
d="M586 608h-231v-609h-83v609h-144q-10 0 -16 -6.5t-6 -14.5q0 -7 6 -11h-84q-5 48 28 81q29 29 69 29h461v-78z" />
    <glyph glyph-name="Upsilon" unicode="&#x3a5;" horiz-adv-x="643" 
d="M101 585l-84 8q-1 46 31.5 74.5t71.5 28.5q55 0 87 -53l139 -253l165 297h94l-216 -389v-299h-87l3 297l-169 309q-8 10 -19 10q-8 0 -14 -5t-6 -13q0 -4 4 -12z" />
    <glyph glyph-name="Chi" unicode="&#x3a7;" horiz-adv-x="678" 
d="M355 351l161 -271q5 -8 15 -8t17 9.5t5 22.5l79 -4q2 -48 -30 -77.5t-75 -29.5q-33 0 -55.5 19t-42.5 56l-126 217l-169 -286h-96l210 352l-212 335h94l170 -270l169 270h97z" />
    <glyph glyph-name="Omega" unicode="&#x3a9;" horiz-adv-x="596" 
d="M175 75l-18 33q-9 17 -25 53q-19 41 -37 103q-17 54 -17 117q0 73 9 129t34 95q26 40 69 59q45 20 109 20t107 -20q45 -20 69 -59q24 -35 35 -95q9 -56 9 -129q0 -47 -11 -94q-8 -43 -26 -88q-15 -38 -35 -77q-20 -37 -26 -47h118v-73h-211v55l38 72q16 30 34 76
q14 34 26 81q9 42 9 82q0 68 -5 106q-4 42 -20 73q-13 28 -40 41q-25 14 -71 14q-49 0 -74 -14q-25 -12 -40 -41q-14 -30 -18 -73q-5 -50 -5 -106q0 -51 16 -103t36 -100q12 -27 25 -53q12 -23 30 -55v-55h-211v73h117z" />
    <glyph glyph-name="Iotadieresis" unicode="&#x3aa;" horiz-adv-x="228" 
d="M-14 884q21 0 37.5 -16t16.5 -37q0 -20 -16.5 -36t-37.5 -16q-20 0 -36 16t-16 36q0 21 16 37t36 16zM201 884q21 0 37.5 -16t16.5 -37q0 -20 -16.5 -36t-37.5 -16q-20 0 -36 16t-16 36q0 21 16 37t36 16zM138 -1h-82v687h82v-687z" />
    <glyph glyph-name="Upsilondieresis" unicode="&#x3ab;" horiz-adv-x="643" 
d="M233 884q21 0 37.5 -16t16.5 -37q0 -20 -16.5 -36t-37.5 -16q-20 0 -36 16t-16 36q0 21 16 37t36 16zM448 884q21 0 37.5 -16t16.5 -37q0 -20 -16.5 -36t-37.5 -16q-20 0 -36 16t-16 36q0 21 16 37t36 16zM101 585l-84 8q-1 46 31.5 74.5t71.5 28.5q55 0 87 -53l139 -253
l165 297h94l-216 -389v-299h-87l3 297l-169 309q-8 10 -19 10q-8 0 -14 -5t-6 -13q0 -4 4 -12z" />
    <glyph glyph-name="beta" unicode="&#x3b2;" horiz-adv-x="612" 
 />
    <glyph glyph-name="kappa" unicode="&#x3ba;" horiz-adv-x="544" 
d="M132 518v-69q53 67 144 67q74 0 119.5 -42.5t45.5 -109.5q0 -82 -60 -129q-13 -11 -27 -18l82 -132q8 -6 16 -6q9 0 15 6t6 13l12 12l65 -3q3 -43 -27 -75t-71 -32q-55 0 -83 47l-90 147h-147v-194h-76v518h76zM135 268h100q63 0 97.5 26t34.5 68q0 39 -27 61.5t-66 22.5
q-46 0 -80 -32t-49 -86q-10 -30 -10 -60z" />
    <glyph glyph-name="mu" unicode="&#x3bc;" horiz-adv-x="540" 
d="M451 517v-355q0 -77 43 -116l-48 -47q-30 19 -49 51q-7 16 -11 29q-63 -78 -155 -78q-39 0 -64 7q-14 4 -30 11v-251h-77v749h77v-326h1q-3 -66 21 -93q22 -23 77 -23q42 0 74 24q31 23 64 68v350h77z" />
    <glyph glyph-name="omicron" unicode="&#x3bf;" 
d="M296 516q110 0 181.5 -75t71.5 -189q0 -115 -72 -188.5t-182 -73.5q-111 0 -181.5 74.5t-70.5 186.5q0 113 71 189t182 76zM296 442q-82 0 -128 -53.5t-46 -136.5q0 -85 47 -136.5t127 -51.5q81 0 127.5 53.5t46.5 138.5t-47.5 135.5t-126.5 50.5z" />
    <glyph glyph-name="pi" unicode="&#x3c0;" horiz-adv-x="628" 
d="M556 534l-5 -82q-8 -7 -39 -17q-17 -5 -52 -7v-263q0 -24 4 -46q4 -16 12 -24q7 -8 22 -11q21 -3 53 -3l3 -81q-54 -2 -87 7q-30 6 -52 26q-22 22 -29 53q-8 34 -8 79v260h-138l-25 -426h-82l25 425l-38 -3q-33 -4 -36 -5l-44 -10v86q27 6 59 9l49 4l53 3h197q34 0 69 4
q47 5 89 22z" />
    <glyph glyph-name="rho" unicode="&#x3c1;" horiz-adv-x="571" 
d="M27 469l49 47q40 -27 56 -68q50 68 148 68q104 0 162 -75.5t58 -184.5q0 -117 -66.5 -191.5t-181.5 -74.5q-44 0 -104 7v-251h-77v608q0 78 -44 115zM148 328v-257q70 -7 99 -7q86 0 130 50t44 136q0 82 -37.5 137t-101.5 55q-51 0 -90.5 -32.5t-43.5 -81.5z" />
    <glyph glyph-name="chi" unicode="&#x3c7;" horiz-adv-x="571" 
d="M293 256l115 -186v-1q5 -9 18 -9q9 0 15 6.5t6 13.5q0 8 -6 13l84 -5q2 -44 -27.5 -75.5t-71.5 -31.5q-53 0 -84 47l-99 161l-119 -190h-90l160 255l-162 254h92l119 -190l115 190h91z" />
    <glyph glyph-name="UpsilonhookSymbol" unicode="&#x3d2;" horiz-adv-x="643" 
d="M101 585l-84 8q-1 46 31.5 74.5t71.5 28.5q55 0 87 -53l139 -253l165 297h94l-216 -389v-299h-87l3 297l-169 309q-8 10 -19 10q-8 0 -14 -5t-6 -13q0 -4 4 -12z" />
    <glyph glyph-name="UpsilondieresishookSymbol" unicode="&#x3d4;" horiz-adv-x="643" 
d="M233 884q21 0 37.5 -16t16.5 -37q0 -20 -16.5 -36t-37.5 -16q-20 0 -36 16t-16 36q0 21 16 37t36 16zM448 884q21 0 37.5 -16t16.5 -37q0 -20 -16.5 -36t-37.5 -16q-20 0 -36 16t-16 36q0 21 16 37t36 16zM101 585l-84 8q-1 46 31.5 74.5t71.5 28.5q55 0 87 -53l139 -253
l165 297h94l-216 -389v-299h-87l3 297l-169 309q-8 10 -19 10q-8 0 -14 -5t-6 -13q0 -4 4 -12z" />
    <glyph glyph-name="piSymbol" unicode="&#x3d6;" horiz-adv-x="628" 
d="M556 534l-5 -82q-8 -7 -39 -17q-17 -5 -52 -7v-263q0 -24 4 -46q4 -16 12 -24q7 -8 22 -11q21 -3 53 -3l3 -81q-54 -2 -87 7q-30 6 -52 26q-22 22 -29 53q-8 34 -8 79v260h-138l-25 -426h-82l25 425l-38 -3q-33 -4 -36 -5l-44 -10v86q27 6 59 9l49 4l53 3h197q34 0 69 4
q47 5 89 22z" />
    <glyph glyph-name="kappaSymbol" unicode="&#x3f0;" horiz-adv-x="544" 
d="M132 518v-69q53 67 144 67q74 0 119.5 -42.5t45.5 -109.5q0 -82 -60 -129q-13 -11 -27 -18l82 -132q8 -6 16 -6q9 0 15 6t6 13l12 12l65 -3q3 -43 -27 -75t-71 -32q-55 0 -83 47l-90 147h-147v-194h-76v518h76zM135 268h100q63 0 97.5 26t34.5 68q0 39 -27 61.5t-66 22.5
q-46 0 -80 -32t-49 -86q-10 -30 -10 -60z" />
    <glyph glyph-name="rhoSymbol" unicode="&#x3f1;" horiz-adv-x="571" 
d="M27 469l49 47q40 -27 56 -68q50 68 148 68q104 0 162 -75.5t58 -184.5q0 -117 -66.5 -191.5t-181.5 -74.5q-44 0 -104 7v-251h-77v608q0 78 -44 115zM148 328v-257q70 -7 99 -7q86 0 130 50t44 136q0 82 -37.5 137t-101.5 55q-51 0 -90.5 -32.5t-43.5 -81.5z" />
    <glyph glyph-name="uni0589" unicode="&#x589;" horiz-adv-x="239" 
d="M131 505q21 0 37.5 -16t16.5 -37q0 -20 -16.5 -36t-37.5 -16q-20 0 -36 16t-16 36q0 21 16 37t36 16zM131 123q21 0 37.5 -16t16.5 -37q0 -20 -16.5 -36t-37.5 -16q-20 0 -36 16t-16 36q0 21 16 37t36 16z" />
    <glyph glyph-name="Wgrave" unicode="&#x1e80;" horiz-adv-x="1117" 
d="M597 724l-187 120l49 67l171 -135zM1059 687l-224 -688h-74l-179 548l-177 -548h-74l-198 603q-5 15 -20 15q-18 0 -23 -27l-75 22q6 38 35.5 61t63.5 23q32 0 59 -20t35 -49l159 -491l-5 -22l6 19l6 -19l-5 23l177 550h74l168 -523v-74l3 21l7 22l7 -22l-6 26l178 550
h82zM798 133l-10 31v27l11 -54zM368 133l-1 3l1 6l1 -5z" />
    <glyph glyph-name="wgrave" unicode="&#x1e81;" horiz-adv-x="833" 
d="M456 597l-33 -52l-187 120l49 67zM27 464l42 65q61 -37 90 -118l92 -278l122 375h71l123 -375l122 375h79l-165 -508h-72l-122 375l-123 -375h-72l-133 410q-8 19 -23 34.5t-31 19.5z" />
    <glyph glyph-name="Wacute" unicode="&#x1e82;" horiz-adv-x="1117" 
d="M574 724l-34 52l171 135l50 -67zM1059 687l-224 -688h-74l-179 548l-177 -548h-74l-198 603q-5 15 -20 15q-18 0 -23 -27l-75 22q6 38 35.5 61t63.5 23q32 0 59 -20t35 -49l159 -491l-5 -22l6 19l6 -19l-5 23l177 550h74l168 -523v-74l3 21l7 22l7 -22l-6 26l178 550h82z
M798 133l-10 31v27l11 -54zM368 133l-1 3l1 6l1 -5z" />
    <glyph glyph-name="wacute" unicode="&#x1e83;" horiz-adv-x="833" 
d="M587 665l-187 -120l-34 52l171 135zM27 464l42 65q61 -37 90 -118l92 -278l122 375h71l123 -375l122 375h79l-165 -508h-72l-122 375l-123 -375h-72l-133 410q-8 19 -23 34.5t-31 19.5z" />
    <glyph glyph-name="Wdieresis" unicode="&#x1e84;" horiz-adv-x="1117" 
d="M474 779q-20 0 -36 16t-16 36q0 21 16 37t36 16q21 0 37.5 -16t16.5 -37q0 -20 -16.5 -36t-37.5 -16zM689 779q-20 0 -36 16t-16 36q0 21 16 37t36 16q21 0 37.5 -16t16.5 -37q0 -20 -16.5 -36t-37.5 -16zM1059 687l-224 -688h-74l-179 548l-177 -548h-74l-198 603
q-5 15 -20 15q-18 0 -23 -27l-75 22q6 38 35.5 61t63.5 23q32 0 59 -20t35 -49l159 -491l-5 -22l6 19l6 -19l-5 23l177 550h74l168 -523v-74l3 21l7 22l7 -22l-6 26l178 550h82zM798 133l-10 31v27l11 -54zM368 133l-1 3l1 6l1 -5z" />
    <glyph glyph-name="wdieresis" unicode="&#x1e85;" horiz-adv-x="833" 
d="M300 705q21 0 37.5 -16t16.5 -37q0 -20 -16.5 -36t-37.5 -16q-20 0 -36 16t-16 36q0 21 16 37t36 16zM515 705q21 0 37.5 -16t16.5 -37q0 -20 -16.5 -36t-37.5 -16q-20 0 -36 16t-16 36q0 21 16 37t36 16zM27 464l42 65q61 -37 90 -118l92 -278l122 375h71l123 -375
l122 375h79l-165 -508h-72l-122 375l-123 -375h-72l-133 410q-8 19 -23 34.5t-31 19.5z" />
    <glyph glyph-name="Adotbelow" unicode="&#x1ea0;" horiz-adv-x="782" 
d="M726 -1h-87l-92 221h-271l-68 -165q-11 -27 -36.5 -43t-53.5 -16q-38 0 -69 27.5t-32 65.5l77 15q3 -28 24 -28q12 0 17 12l259 600h34zM513 298l-102 243l1 2l-1 -1l-1 1l1 -3l-102 -242h204zM447 -102q15 -14 15 -37q0 -22 -15 -37t-37 -15q-21 0 -36 15q-16 16 -16 37
q0 23 16 37q14 15 36 15q24 0 37 -15z" />
    <glyph glyph-name="adotbelow" unicode="&#x1ea1;" horiz-adv-x="625" 
d="M519 87l63 -43q-13 -27 -37 -40.5t-49 -13.5q-29 0 -54.5 17t-37.5 44q-49 -61 -142 -61q-103 0 -161 76t-58 184q0 117 67.5 191.5t180.5 74.5q53 0 118 -9h64v-418q0 -10 7 -16.5t15 -6.5q15 0 24 21zM396 193v241q-8 0 -50.5 4t-59.5 4q-78 0 -121 -53t-43 -137
q0 -78 36.5 -133t104.5 -55q85 0 121 73q12 24 12 56zM260 -94q24 0 37 -15q15 -13 15 -37q0 -22 -15 -37t-37 -15q-21 0 -36 15q-16 16 -16 37q0 23 16 37q14 15 36 15z" />
    <glyph glyph-name="Acircumflexacute" unicode="&#x1ea4;" horiz-adv-x="782" 
d="M418 939l-34 52l171 135l50 -67zM339 767h-96l140 161h58l140 -161h-96l-73 81zM726 -1h-87l-92 221h-271l-68 -165q-11 -27 -36.5 -43t-53.5 -16q-38 0 -69 27.5t-32 65.5l77 15q3 -28 24 -28q12 0 17 12l259 600h34zM513 298l-102 243l1 2l-1 -1l-1 1l1 -3l-102 -242
h204z" />
    <glyph glyph-name="acircumflexacute" unicode="&#x1ea5;" horiz-adv-x="625" 
d="M474 892l-187 -120l-34 52l171 135zM450 594h-96l-73 81l-73 -81h-96l140 161h58zM519 87l63 -43q-13 -27 -37 -40.5t-49 -13.5q-29 0 -54.5 17t-37.5 44q-49 -61 -142 -61q-103 0 -161 76t-58 184q0 117 67.5 191.5t180.5 74.5q53 0 118 -9h64v-418q0 -10 7 -16.5
t15 -6.5q15 0 24 21zM396 193v241q-8 0 -50.5 4t-59.5 4q-78 0 -121 -53t-43 -137q0 -78 36.5 -133t104.5 -55q85 0 121 73q12 24 12 56z" />
    <glyph glyph-name="Acircumflexgrave" unicode="&#x1ea6;" horiz-adv-x="782" 
d="M441 936l-187 120l49 67l171 -135zM339 767h-96l140 161h58l140 -161h-96l-73 81zM726 -1h-87l-92 221h-271l-68 -165q-11 -27 -36.5 -43t-53.5 -16q-38 0 -69 27.5t-32 65.5l77 15q3 -28 24 -28q12 0 17 12l259 600h34zM513 298l-102 243l1 2l-1 -1l-1 1l1 -3l-102 -242
h204z" />
    <glyph glyph-name="acircumflexgrave" unicode="&#x1ea7;" horiz-adv-x="625" 
d="M343 834l-33 -52l-187 120l49 67zM450 594h-96l-73 81l-73 -81h-96l140 161h58zM519 87l63 -43q-13 -27 -37 -40.5t-49 -13.5q-29 0 -54.5 17t-37.5 44q-49 -61 -142 -61q-103 0 -161 76t-58 184q0 117 67.5 191.5t180.5 74.5q53 0 118 -9h64v-418q0 -10 7 -16.5t15 -6.5
q15 0 24 21zM396 193v241q-8 0 -50.5 4t-59.5 4q-78 0 -121 -53t-43 -137q0 -78 36.5 -133t104.5 -55q85 0 121 73q12 24 12 56z" />
    <glyph glyph-name="Acircumflextilde" unicode="&#x1eaa;" horiz-adv-x="782" 
d="M567 1059l48 -58q-26 -21 -36.5 -28.5t-33.5 -15.5t-52 -8q-22 0 -77 16l-56 16q-33 0 -74 -37l-47 58q61 54 120 54q34 0 77 -17t59 -17q28 0 72 37zM441 928l140 -161h-96l-73 81l-73 -81h-96l140 161h58zM726 -1h-87l-92 221h-271l-68 -165q-11 -27 -36.5 -43
t-53.5 -16q-38 0 -69 27.5t-32 65.5l77 15q3 -28 24 -28q12 0 17 12l259 600h34zM513 298l-102 243l1 2l-1 -1l-1 1l1 -3l-102 -242h204z" />
    <glyph glyph-name="acircumflextilde" unicode="&#x1eab;" horiz-adv-x="625" 
d="M436 897l48 -58q-26 -21 -36.5 -28.5t-33.5 -15.5t-52 -8q-22 0 -78 16l-55 16q-33 0 -74 -37l-47 58q61 54 120 54q34 0 77 -17t59 -17q28 0 72 37zM450 594h-96l-73 81l-73 -81h-96l140 161h58zM519 87l63 -43q-13 -27 -37 -40.5t-49 -13.5q-29 0 -54.5 17t-37.5 44
q-49 -61 -142 -61q-103 0 -161 76t-58 184q0 117 67.5 191.5t180.5 74.5q53 0 118 -9h64v-418q0 -10 7 -16.5t15 -6.5q15 0 24 21zM396 193v241q-8 0 -50.5 4t-59.5 4q-78 0 -121 -53t-43 -137q0 -78 36.5 -133t104.5 -55q85 0 121 73q12 24 12 56z" />
    <glyph glyph-name="Acircumflexdotbelow" unicode="&#x1eac;" horiz-adv-x="782" 
d="M339 767h-96l140 161h58l140 -161h-96l-73 81zM726 -1h-87l-92 221h-271l-68 -165q-11 -27 -36.5 -43t-53.5 -16q-38 0 -69 27.5t-32 65.5l77 15q3 -28 24 -28q12 0 17 12l259 600h34zM513 298l-102 243l1 2l-1 -1l-1 1l1 -3l-102 -242h204zM447 -102q15 -14 15 -37
q0 -22 -15 -37t-37 -15q-21 0 -36 15q-16 16 -16 37q0 23 16 37q14 15 36 15q24 0 37 -15z" />
    <glyph glyph-name="Abreveacute" unicode="&#x1eae;" horiz-adv-x="782" 
d="M418 926l-34 52l171 135l50 -67zM478 911h83q1 -74 -39 -115t-110 -41q-73 0 -112.5 43.5t-37.5 112.5h82q0 -81 69 -81q36 0 51.5 20t13.5 61zM726 -1h-87l-92 221h-271l-68 -165q-11 -27 -36.5 -43t-53.5 -16q-38 0 -69 27.5t-32 65.5l77 15q3 -28 24 -28q12 0 17 12
l259 600h34zM513 298l-102 243l1 2l-1 -1l-1 1l1 -3l-102 -242h204z" />
    <glyph glyph-name="abreveacute" unicode="&#x1eaf;" horiz-adv-x="625" 
d="M474 866l-187 -120l-34 52l171 135zM347 738h83q1 -74 -39 -115t-110 -41q-73 0 -112.5 43.5t-37.5 112.5h82q0 -81 69 -81q36 0 51.5 20t13.5 61zM519 87l63 -43q-13 -27 -37 -40.5t-49 -13.5q-29 0 -54.5 17t-37.5 44q-49 -61 -142 -61q-103 0 -161 76t-58 184
q0 117 67.5 191.5t180.5 74.5q53 0 118 -9h64v-418q0 -10 7 -16.5t15 -6.5q15 0 24 21zM396 193v241q-8 0 -50.5 4t-59.5 4q-78 0 -121 -53t-43 -137q0 -78 36.5 -133t104.5 -55q85 0 121 73q12 24 12 56z" />
    <glyph glyph-name="Abrevegrave" unicode="&#x1eb0;" horiz-adv-x="782" 
d="M441 920l-187 120l49 67l171 -135zM262 911h82q0 -81 69 -81q36 0 51.5 20t13.5 61h83q1 -74 -39 -115t-110 -41q-73 0 -112.5 43.5t-37.5 112.5zM726 -1h-87l-92 221h-271l-68 -165q-11 -27 -36.5 -43t-53.5 -16q-38 0 -69 27.5t-32 65.5l77 15q3 -28 24 -28q12 0 17 12
l259 600h34zM513 298l-102 243l1 2l-1 -1l-1 1l1 -3l-102 -242h204z" />
    <glyph glyph-name="abrevegrave" unicode="&#x1eb1;" horiz-adv-x="625" 
d="M343 793l-33 -52l-187 120l49 67zM347 738h83q1 -74 -39 -115t-110 -41q-73 0 -112.5 43.5t-37.5 112.5h82q0 -81 69 -81q36 0 51.5 20t13.5 61zM519 87l63 -43q-13 -27 -37 -40.5t-49 -13.5q-29 0 -54.5 17t-37.5 44q-49 -61 -142 -61q-103 0 -161 76t-58 184
q0 117 67.5 191.5t180.5 74.5q53 0 118 -9h64v-418q0 -10 7 -16.5t15 -6.5q15 0 24 21zM396 193v241q-8 0 -50.5 4t-59.5 4q-78 0 -121 -53t-43 -137q0 -78 36.5 -133t104.5 -55q85 0 121 73q12 24 12 56z" />
    <glyph glyph-name="Abrevetilde" unicode="&#x1eb4;" horiz-adv-x="782" 
d="M567 1054l48 -58q-26 -21 -36.5 -28.5t-33.5 -15.5t-52 -8q-22 0 -77 16l-56 16q-33 0 -74 -37l-47 58q61 54 120 54q34 0 77 -17t59 -17q28 0 72 37zM262 911h82q0 -81 69 -81q36 0 51.5 20t13.5 61h83q1 -74 -39 -115t-110 -41q-73 0 -112.5 43.5t-37.5 112.5zM726 -1
h-87l-92 221h-271l-68 -165q-11 -27 -36.5 -43t-53.5 -16q-38 0 -69 27.5t-32 65.5l77 15q3 -28 24 -28q12 0 17 12l259 600h34zM513 298l-102 243l1 2l-1 -1l-1 1l1 -3l-102 -242h204z" />
    <glyph glyph-name="abrevetilde" unicode="&#x1eb5;" horiz-adv-x="625" 
d="M425 893l48 -58q-26 -21 -36.5 -28.5t-33.5 -15.5t-52 -8q-22 0 -77 16l-56 16q-33 0 -74 -37l-47 58q61 54 120 54q34 0 77 -17t59 -17q28 0 72 37zM347 738h83q1 -74 -39 -115t-110 -41q-73 0 -112.5 43.5t-37.5 112.5h82q0 -81 69 -81q36 0 51.5 20t13.5 61zM519 87
l63 -43q-13 -27 -37 -40.5t-49 -13.5q-29 0 -54.5 17t-37.5 44q-49 -61 -142 -61q-103 0 -161 76t-58 184q0 117 67.5 191.5t180.5 74.5q53 0 118 -9h64v-418q0 -10 7 -16.5t15 -6.5q15 0 24 21zM396 193v241q-8 0 -50.5 4t-59.5 4q-78 0 -121 -53t-43 -137q0 -78 36.5 -133
t104.5 -55q85 0 121 73q12 24 12 56z" />
    <glyph glyph-name="Abrevedotbelow" unicode="&#x1eb6;" horiz-adv-x="782" 
d="M478 911h83q1 -74 -39 -115t-110 -41q-73 0 -112.5 43.5t-37.5 112.5h82q0 -81 69 -81q36 0 51.5 20t13.5 61zM726 -1h-87l-92 221h-271l-68 -165q-11 -27 -36.5 -43t-53.5 -16q-38 0 -69 27.5t-32 65.5l77 15q3 -28 24 -28q12 0 17 12l259 600h34zM513 298l-102 243l1 2
l-1 -1l-1 1l1 -3l-102 -242h204zM447 -102q15 -14 15 -37q0 -22 -15 -37t-37 -15q-21 0 -36 15q-16 16 -16 37q0 23 16 37q14 15 36 15q24 0 37 -15z" />
    <glyph glyph-name="Edotbelow" unicode="&#x1eb8;" horiz-adv-x="659" 
d="M587 609h-375v-208h259v-79h-259v-244h375v-79h-458v609q-15 0 -24 -10q-11 -9 -11 -25q0 -4 2 -12h-78q0 2 -0.5 6t-0.5 7q0 44 32 78q36 34 79 34h459v-77zM362 -87q24 0 37 -15q15 -14 15 -37q0 -22 -15 -37t-37 -15q-21 0 -36 15q-16 16 -16 37q0 23 16 37
q14 15 36 15z" />
    <glyph glyph-name="edotbelow" unicode="&#x1eb9;" horiz-adv-x="536" 
d="M260 724q21 0 37.5 -16t16.5 -37q0 -20 -16.5 -36t-37.5 -16q-20 0 -36 16t-16 36q0 21 16 37t36 16zM431 114l37 -60q-89 -64 -196 -64q-112 0 -170.5 68.5t-58.5 175.5q0 50 13 98.5t39 90.5t71 67.5t102 25.5q77 0 130.5 -44.5t53.5 -116.5q0 -77 -61.5 -119.5
t-163.5 -42.5h-101q22 -129 146 -129q66 0 159 50zM122 267h105q148 0 148 88q0 43 -30 66.5t-74 23.5q-69 0 -107 -56t-42 -122z" />
    <glyph glyph-name="Etilde" unicode="&#x1ebc;" horiz-adv-x="659" 
d="M494 883l48 -58q-26 -21 -36.5 -28.5t-33.5 -15.5t-52 -8q-22 0 -78 16l-55 16q-33 0 -74 -37l-47 58q61 54 120 54q34 0 77 -17t59 -17q28 0 72 37zM587 609h-375v-208h259v-79h-259v-244h375v-79h-458v609q-15 0 -24 -10q-11 -9 -11 -25q0 -4 2 -12h-78q0 2 -0.5 6
t-0.5 7q0 44 32 78q36 34 79 34h459v-77z" />
    <glyph glyph-name="etilde" unicode="&#x1ebd;" horiz-adv-x="536" 
d="M405 712l48 -58q-26 -21 -36.5 -28.5t-33.5 -15.5t-52 -8q-22 0 -77 16l-56 16q-33 0 -74 -37l-47 58q61 54 120 54q34 0 77 -17t59 -17q28 0 72 37zM431 114l37 -60q-89 -64 -196 -64q-112 0 -170.5 68.5t-58.5 175.5q0 50 13 98.5t39 90.5t71 67.5t102 25.5
q77 0 130.5 -44.5t53.5 -116.5q0 -77 -61.5 -119.5t-163.5 -42.5h-101q22 -129 146 -129q66 0 159 50zM122 267h105q148 0 148 88q0 43 -30 66.5t-74 23.5q-69 0 -107 -56t-42 -122z" />
    <glyph glyph-name="Ecircumflexacute" unicode="&#x1ebe;" horiz-adv-x="659" 
d="M547 1060l-187 -120l-34 52l171 135zM537 776h-96l-73 81l-73 -81h-96l140 161h58zM587 609h-375v-208h259v-79h-259v-244h375v-79h-458v609q-15 0 -24 -10q-11 -9 -11 -25q0 -4 2 -12h-78q0 2 -0.5 6t-0.5 7q0 44 32 78q36 34 79 34h459v-77z" />
    <glyph glyph-name="ecircumflexacute" unicode="&#x1ebf;" horiz-adv-x="536" 
d="M458 903l-187 -120l-34 52l171 135zM434 594h-96l-73 81l-73 -81h-96l140 161h58zM431 114l37 -60q-89 -64 -196 -64q-112 0 -170.5 68.5t-58.5 175.5q0 50 13 98.5t39 90.5t71 67.5t102 25.5q77 0 130.5 -44.5t53.5 -116.5q0 -77 -61.5 -119.5t-163.5 -42.5h-101
q22 -129 146 -129q66 0 159 50zM122 267h105q148 0 148 88q0 43 -30 66.5t-74 23.5q-69 0 -107 -56t-42 -122z" />
    <glyph glyph-name="Ecircumflexgrave" unicode="&#x1ec0;" horiz-adv-x="659" 
d="M416 987l-33 -52l-187 120l49 67zM523 765h-96l-73 81l-73 -81h-96l140 161h58zM587 609h-375v-208h259v-79h-259v-244h375v-79h-458v609q-15 0 -24 -10q-11 -9 -11 -25q0 -4 2 -12h-78q0 2 -0.5 6t-0.5 7q0 44 32 78q36 34 79 34h459v-77z" />
    <glyph glyph-name="ecircumflexgrave" unicode="&#x1ec1;" horiz-adv-x="536" 
d="M328 834l-33 -52l-187 120l49 67zM434 594h-96l-73 81l-73 -81h-96l140 161h58zM431 114l37 -60q-89 -64 -196 -64q-112 0 -170.5 68.5t-58.5 175.5q0 50 13 98.5t39 90.5t71 67.5t102 25.5q77 0 130.5 -44.5t53.5 -116.5q0 -77 -61.5 -119.5t-163.5 -42.5h-101
q22 -129 146 -129q66 0 159 50zM122 267h105q148 0 148 88q0 43 -30 66.5t-74 23.5q-69 0 -107 -56t-42 -122z" />
    <glyph glyph-name="Ecircumflextilde" unicode="&#x1ec4;" horiz-adv-x="659" 
d="M509 1070l48 -58q-26 -21 -36.5 -28.5t-33.5 -15.5t-52 -8q-22 0 -77 16l-56 16q-33 0 -74 -37l-47 58q61 54 120 54q34 0 77 -17t59 -17q28 0 72 37zM523 765h-96l-73 81l-73 -81h-96l140 161h58zM587 609h-375v-208h259v-79h-259v-244h375v-79h-458v609q-15 0 -24 -10
q-11 -9 -11 -25q0 -4 2 -12h-78q0 2 -0.5 6t-0.5 7q0 44 32 78q36 34 79 34h459v-77z" />
    <glyph glyph-name="ecircumflextilde" unicode="&#x1ec5;" horiz-adv-x="536" 
d="M420 897l48 -58q-26 -21 -36.5 -28.5t-33.5 -15.5t-52 -8q-22 0 -78 16l-55 16q-33 0 -74 -37l-47 58q61 54 120 54q34 0 77 -17t59 -17q28 0 72 37zM434 594h-96l-73 81l-73 -81h-96l140 161h58zM431 114l37 -60q-89 -64 -196 -64q-112 0 -170.5 68.5t-58.5 175.5
q0 50 13 98.5t39 90.5t71 67.5t102 25.5q77 0 130.5 -44.5t53.5 -116.5q0 -77 -61.5 -119.5t-163.5 -42.5h-101q22 -129 146 -129q66 0 159 50zM122 267h105q148 0 148 88q0 43 -30 66.5t-74 23.5q-69 0 -107 -56t-42 -122z" />
    <glyph glyph-name="Ecircumflexdotbelow" unicode="&#x1ec6;" horiz-adv-x="659" 
d="M523 765h-96l-73 81l-73 -81h-96l140 161h58zM587 609h-375v-208h259v-79h-259v-244h375v-79h-458v609q-15 0 -24 -10q-11 -9 -11 -25q0 -4 2 -12h-78q0 2 -0.5 6t-0.5 7q0 44 32 78q36 34 79 34h459v-77zM362 -87q24 0 37 -15q15 -14 15 -37q0 -22 -15 -37t-37 -15
q-21 0 -36 15q-16 16 -16 37q0 23 16 37q14 15 36 15z" />
    <glyph glyph-name="Idotbelow" unicode="&#x1eca;" horiz-adv-x="228" 
d="M138 -1h-82v687h82v-687zM95 -88q24 0 37 -15q15 -13 15 -37q0 -22 -15 -37t-37 -15q-21 0 -36 15q-16 16 -16 37q0 23 16 37q13 15 36 15z" />
    <glyph glyph-name="idotbelow" unicode="&#x1ecb;" horiz-adv-x="260" 
d="M79 716q21 0 37.5 -16t16.5 -37q0 -20 -16.5 -36t-37.5 -16q-20 0 -36 16t-16 36q0 21 16 37t36 16zM122 508v-419q0 -9 7 -16t15 -7q16 0 22 21l66 -43q-13 -24 -37 -39t-51 -15q-40 0 -69.5 29t-29.5 70v419h77zM85 -87q24 0 37 -15q15 -14 15 -37q0 -22 -15 -37
t-37 -15q-21 0 -36 15q-16 16 -16 37q0 23 16 37q14 15 36 15z" />
    <glyph glyph-name="Odotbelow" unicode="&#x1ecc;" horiz-adv-x="815" 
d="M42 331v19q0 144 102.5 251t247.5 107q144 0 247.5 -107t103.5 -251v-19q0 -147 -101.5 -252.5t-245.5 -105.5q-145 0 -249.5 106.5t-104.5 251.5zM666 331v19q0 117 -81.5 199t-193.5 82q-113 0 -192 -84t-79 -197v-19q0 -116 80.5 -198.5t192.5 -82.5q113 0 193 83
t80 198zM393 -113q23 0 37 -15q15 -14 15 -37q0 -22 -15 -37t-37 -15q-21 0 -36 15q-16 16 -16 37q0 23 16 37q14 15 36 15z" />
    <glyph glyph-name="odotbelow" unicode="&#x1ecd;" 
d="M296 516q110 0 181.5 -75t71.5 -189q0 -115 -72 -188.5t-182 -73.5q-111 0 -181.5 74.5t-70.5 186.5q0 113 71 189t182 76zM296 442q-82 0 -128 -53.5t-46 -136.5q0 -85 47 -136.5t127 -51.5q81 0 127.5 53.5t46.5 138.5t-47.5 135.5t-126.5 50.5zM293 -85q23 0 37 -15
q15 -14 15 -37q0 -22 -15 -37t-37 -15q-21 0 -36 15q-16 16 -16 37q0 23 16 37q13 15 36 15z" />
    <glyph glyph-name="Ocircumflexacute" unicode="&#x1ed0;" horiz-adv-x="815" 
d="M585 1065l-187 -120l-34 52l171 135zM560 765h-96l-73 81l-73 -81h-96l140 161h58zM42 331v19q0 144 102.5 251t247.5 107q144 0 247.5 -107t103.5 -251v-19q0 -147 -101.5 -252.5t-245.5 -105.5q-145 0 -249.5 106.5t-104.5 251.5zM666 331v19q0 117 -81.5 199
t-193.5 82q-113 0 -192 -84t-79 -197v-19q0 -116 80.5 -198.5t192.5 -82.5q113 0 193 83t80 198z" />
    <glyph glyph-name="ocircumflexacute" unicode="&#x1ed1;" 
d="M489 900l-187 -120l-34 52l171 135zM465 594h-96l-73 81l-73 -81h-96l140 161h58zM296 516q110 0 181.5 -75t71.5 -189q0 -115 -72 -188.5t-182 -73.5q-111 0 -181.5 74.5t-70.5 186.5q0 113 71 189t182 76zM296 442q-82 0 -128 -53.5t-46 -136.5q0 -85 47 -136.5
t127 -51.5q81 0 127.5 53.5t46.5 138.5t-47.5 135.5t-126.5 50.5z" />
    <glyph glyph-name="Ocircumflexgrave" unicode="&#x1ed2;" horiz-adv-x="815" 
d="M454 996l-33 -52l-187 120l49 67zM560 765h-96l-73 81l-73 -81h-96l140 161h58zM42 331v19q0 144 102.5 251t247.5 107q144 0 247.5 -107t103.5 -251v-19q0 -147 -101.5 -252.5t-245.5 -105.5q-145 0 -249.5 106.5t-104.5 251.5zM666 331v19q0 117 -81.5 199t-193.5 82
q-113 0 -192 -84t-79 -197v-19q0 -116 80.5 -198.5t192.5 -82.5q113 0 193 83t80 198z" />
    <glyph glyph-name="ocircumflexgrave" unicode="&#x1ed3;" 
d="M359 831l-33 -52l-187 120l49 67zM465 594h-96l-73 81l-73 -81h-96l140 161h58zM296 516q110 0 181.5 -75t71.5 -189q0 -115 -72 -188.5t-182 -73.5q-111 0 -181.5 74.5t-70.5 186.5q0 113 71 189t182 76zM296 442q-82 0 -128 -53.5t-46 -136.5q0 -85 47 -136.5
t127 -51.5q81 0 127.5 53.5t46.5 138.5t-47.5 135.5t-126.5 50.5z" />
    <glyph glyph-name="Ocircumflextilde" unicode="&#x1ed6;" horiz-adv-x="815" 
d="M547 1061l48 -58q-26 -21 -36.5 -28.5t-33.5 -15.5t-52 -8q-22 0 -77 16l-56 16q-33 0 -74 -37l-47 58q61 54 120 54q34 0 77 -17t59 -17q28 0 72 37zM560 765h-96l-73 81l-73 -81h-96l140 161h58zM42 331v19q0 144 102.5 251t247.5 107q144 0 247.5 -107t103.5 -251v-19
q0 -147 -101.5 -252.5t-245.5 -105.5q-145 0 -249.5 106.5t-104.5 251.5zM666 331v19q0 117 -81.5 199t-193.5 82q-113 0 -192 -84t-79 -197v-19q0 -116 80.5 -198.5t192.5 -82.5q113 0 193 83t80 198z" />
    <glyph glyph-name="ocircumflextilde" unicode="&#x1ed7;" 
d="M452 897l48 -58q-26 -21 -36.5 -28.5t-33.5 -15.5t-52 -8q-22 0 -78 16l-55 16q-33 0 -74 -37l-47 58q61 54 120 54q34 0 77 -17t59 -17q28 0 72 37zM465 594h-96l-73 81l-73 -81h-96l140 161h58zM296 516q110 0 181.5 -75t71.5 -189q0 -115 -72 -188.5t-182 -73.5
q-111 0 -181.5 74.5t-70.5 186.5q0 113 71 189t182 76zM296 442q-82 0 -128 -53.5t-46 -136.5q0 -85 47 -136.5t127 -51.5q81 0 127.5 53.5t46.5 138.5t-47.5 135.5t-126.5 50.5z" />
    <glyph glyph-name="Ocircumflexdotbelow" unicode="&#x1ed8;" horiz-adv-x="815" 
d="M560 765h-96l-73 81l-73 -81h-96l140 161h58zM42 331v19q0 144 102.5 251t247.5 107q144 0 247.5 -107t103.5 -251v-19q0 -147 -101.5 -252.5t-245.5 -105.5q-145 0 -249.5 106.5t-104.5 251.5zM666 331v19q0 117 -81.5 199t-193.5 82q-113 0 -192 -84t-79 -197v-19
q0 -116 80.5 -198.5t192.5 -82.5q113 0 193 83t80 198zM393 -113q23 0 37 -15q15 -14 15 -37q0 -22 -15 -37t-37 -15q-21 0 -36 15q-16 16 -16 37q0 23 16 37q14 15 36 15z" />
    <glyph glyph-name="Udotbelow" unicode="&#x1ee4;" horiz-adv-x="759" 
d="M86 591l-69 47q12 24 39.5 40.5t55.5 16.5q48 0 77 -28.5t29 -78.5v-317q0 -89 49 -146.5t140 -57.5q94 0 141 60.5t47 143.5v416h83v-416q0 -71 -27.5 -132.5t-90.5 -104.5t-152 -43q-127 0 -200 81.5t-73 198.5v317q0 25 -21 25t-28 -22zM406 -96q24 0 37 -15
q15 -14 15 -37q0 -22 -15 -37t-37 -15q-21 0 -36 15q-16 16 -16 37q0 23 16 37q13 15 36 15z" />
    <glyph glyph-name="udotbelow" unicode="&#x1ee5;" horiz-adv-x="635" 
d="M28 457l42 64q22 -17 32.5 -25.5t27.5 -26.5t24.5 -38t7.5 -43v-218q0 -54 23.5 -79.5t73.5 -25.5q47 0 79 21t69 69v353h76v-420q0 -9 7 -16t16 -7q14 0 23 20l65 -44q-32 -52 -87 -52q-34 0 -60.5 20t-36.5 51q-62 -68 -156 -68q-76 0 -120 38.5t-48 113.5v244
q0 11 -8 23t-16.5 19.5t-20 16t-13.5 10.5zM261 -95q23 0 37 -15q15 -14 15 -37q0 -22 -15 -37t-37 -15q-21 0 -36 15q-16 16 -16 37q0 23 16 37q13 15 36 15z" />
    <glyph glyph-name="Ygrave" unicode="&#x1ef2;" horiz-adv-x="643" 
d="M389 776l-33 -52l-187 120l49 67zM101 585l-84 8q-1 46 31.5 74.5t71.5 28.5q55 0 87 -53l139 -253l165 297h94l-216 -389v-299h-87l3 297l-169 309q-8 10 -19 10q-8 0 -14 -5t-6 -13q0 -4 4 -12z" />
    <glyph glyph-name="ygrave" unicode="&#x1ef3;" horiz-adv-x="567" 
d="M298 545l-187 120l49 67l171 -135zM483 508v-610q0 -81 -44.5 -128t-111.5 -47q-71 0 -113 49t-42 114q0 68 35 110q-58 12 -89.5 50.5t-31.5 98.5v243q0 16 -26 42t-32 25l42 66q30 -23 46 -37.5t31 -40.5t15 -55v-218q0 -105 96 -105q44 0 74.5 18.5t62.5 57.5v-1
q11 15 12 37v331h76zM363 11l-49 -25q-36 -19 -51.5 -41t-15.5 -57q0 -40 21 -65t58 -25q38 0 60 26t22 70v148q-26 -21 -45 -31z" />
    <glyph glyph-name="Ydotbelow" unicode="&#x1ef4;" horiz-adv-x="643" 
d="M101 585l-84 8q-1 46 31.5 74.5t71.5 28.5q55 0 87 -53l139 -253l165 297h94l-216 -389v-299h-87l3 297l-169 309q-8 10 -19 10q-8 0 -14 -5t-6 -13q0 -4 4 -12zM341 -86q23 0 37 -15q15 -13 15 -37q0 -22 -15 -37t-37 -15q-21 0 -36 15q-16 16 -16 37q0 23 16 37
q13 15 36 15z" />
    <glyph glyph-name="ydotbelow" unicode="&#x1ef5;" horiz-adv-x="567" 
d="M406 508h77v-610q0 -81 -44.5 -128t-111.5 -47q-71 0 -113 49t-42 114q0 68 35 110q-58 12 -89.5 50.5t-31.5 98.5v243q0 16 -26 42t-32 25l42 66q30 -23 46 -37.5t31 -40.5t15 -55v-218q0 -105 96 -105q44 0 74.5 18.5t62.5 57.5v-1q11 16 11 37v331zM363 11l-49 -25
q-36 -19 -51.5 -41t-15.5 -57q0 -40 21 -65t58 -25q38 0 60 26t22 70v148q-26 -21 -45 -31zM578 -71q15 -14 15 -37q0 -22 -15 -37t-37 -15q-21 0 -36 15q-16 16 -16 37q0 23 16 37q13 15 36 15t37 -15z" />
    <glyph glyph-name="Ytilde" unicode="&#x1ef8;" horiz-adv-x="643" 
d="M482 883l48 -58q-26 -21 -36.5 -28.5t-33.5 -15.5t-52 -8q-22 0 -78 16l-55 16q-33 0 -74 -37l-47 58q61 54 120 54q34 0 77 -17t59 -17q28 0 72 37zM101 585l-84 8q-1 46 31.5 74.5t71.5 28.5q55 0 87 -53l139 -253l165 297h94l-216 -389v-299h-87l3 297l-169 309
q-8 10 -19 10q-8 0 -14 -5t-6 -13q0 -4 4 -12z" />
    <glyph glyph-name="ytilde" unicode="&#x1ef9;" horiz-adv-x="567" 
d="M424 704l48 -58q-26 -21 -36.5 -28.5t-33.5 -15.5t-52 -8q-22 0 -78 16l-55 16q-33 0 -74 -37l-47 58q61 54 120 54q34 0 77 -17t59 -17q28 0 72 37zM483 508v-610q0 -81 -44.5 -128t-111.5 -47q-71 0 -113 49t-42 114q0 68 35 110q-58 12 -89.5 50.5t-31.5 98.5v243
q0 16 -26 42t-32 25l42 66q30 -23 46 -37.5t31 -40.5t15 -55v-218q0 -105 96 -105q44 0 74.5 18.5t62.5 57.5v-1q11 15 12 37v331h76zM363 11l-49 -25q-36 -19 -51.5 -41t-15.5 -57q0 -40 21 -65t58 -25q38 0 60 26t22 70v148q-26 -21 -45 -31z" />
    <glyph glyph-name="endash" unicode="&#x2013;" horiz-adv-x="557" 
d="M483 268h-438v79h438v-79z" />
    <glyph glyph-name="emdash" unicode="&#x2014;" horiz-adv-x="712" 
d="M638 268h-593v79h593v-79z" />
    <glyph glyph-name="quoteleft" unicode="&#x2018;" horiz-adv-x="234" 
d="M123 710l49 -47q-44 -37 -44 -115v-10q0 -17 -12 -31q-13 -13 -31 -13t-31 13q-12 14 -12 31v10q0 40 16 85q20 49 65 77z" />
    <glyph glyph-name="quoteright" unicode="&#x2019;" horiz-adv-x="234" 
d="M77 644v9q0 17 12 31q13 13 31 13t31 -13q11 -13 11 -31v-9q0 -45 -16 -86q-19 -48 -64 -77l-49 47q44 37 44 116z" />
    <glyph glyph-name="quotesinglbase" unicode="&#x201a;" horiz-adv-x="234" 
d="M77 52v10q0 18 12 30q13 13 31 13t31 -13q11 -11 11 -30v-10q0 -45 -16 -86q-20 -49 -64 -76l-49 47q44 35 44 115z" />
    <glyph glyph-name="quotedblleft" unicode="&#x201c;" horiz-adv-x="361" 
d="M125 710l49 -47q-45 -37 -45 -115v-10q0 -18 -11 -31q-13 -13 -31 -13t-31 13q-12 14 -12 31v10q0 40 16 85q18 47 65 77zM246 710l49 -47q-44 -37 -44 -115v-10q0 -17 -12 -31q-13 -13 -31 -13t-31 13q-12 14 -12 31v10q0 42 17 85q19 48 64 77z" />
    <glyph glyph-name="quotedblright" unicode="&#x201d;" horiz-adv-x="361" 
d="M81 644v9q0 19 12 31q11 13 31 13q19 0 30 -13q12 -12 12 -31v-9q0 -45 -16 -86q-18 -47 -65 -77l-48 47q44 37 44 116zM202 644v9q0 17 12 31q13 13 31 13t31 -13q12 -14 12 -31v-9q0 -43 -17 -86q-19 -48 -64 -77l-49 47q44 37 44 116z" />
    <glyph glyph-name="quotedblbase" unicode="&#x201e;" horiz-adv-x="361" 
d="M81 52v10q0 20 12 30q11 13 31 13q19 0 30 -13q12 -11 12 -30v-10q0 -45 -16 -86q-19 -49 -65 -76l-48 47q44 35 44 115zM202 52v10q0 18 12 30q13 13 31 13t31 -13q12 -12 12 -30v-10q0 -43 -17 -86q-20 -49 -64 -76l-49 47q44 35 44 115z" />
    <glyph glyph-name="dagger" unicode="&#x2020;" horiz-adv-x="518" 
d="M285 506h168v-81h-168v-500h-81v500h-169v81h169v188h81v-188z" />
    <glyph glyph-name="daggerdbl" unicode="&#x2021;" horiz-adv-x="518" 
d="M285 506h168v-81h-168v-233h168v-79h-168v-188h-81v188h-169v79h169v233h-169v81h169v188h81v-188z" />
    <glyph glyph-name="bullet" unicode="&#x2022;" horiz-adv-x="303" 
d="M138 410q38 0 66 -28t28 -66q0 -39 -28 -67t-66 -28t-66.5 28t-28.5 67q0 38 28.5 66t66.5 28z" />
    <glyph glyph-name="ellipsis" unicode="&#x2026;" horiz-adv-x="544" 
d="M116 112q21 0 37.5 -16t16.5 -37q0 -20 -16.5 -36t-37.5 -16q-20 0 -36 16t-16 36q0 21 16 37t36 16zM271 112q21 0 37.5 -16t16.5 -37q0 -20 -16.5 -36t-37.5 -16q-20 0 -36 16t-16 36q0 21 16 37t36 16zM426 112q21 0 37.5 -16t16.5 -37q0 -20 -16.5 -36t-37.5 -16
q-20 0 -36 16t-16 36q0 21 16 37t36 16z" />
    <glyph glyph-name="perthousand" unicode="&#x2030;" horiz-adv-x="1063" 
d="M291 10h-83l223 509h81zM171 517q61 0 100 -39.5t39 -103.5q0 -68 -42.5 -104t-99.5 -36q-60 0 -99 39.5t-39 102.5q0 69 42 105t99 36zM170 446q-30 0 -47.5 -20t-17.5 -52q0 -31 17.5 -50.5t47.5 -19.5t47.5 19.5t17.5 51.5q0 33 -17.5 52t-47.5 19zM596 297
q61 0 100 -39.5t39 -103.5q0 -68 -42.5 -104t-99.5 -36q-60 0 -99 39.5t-39 102.5q0 69 42 105t99 36zM887 297q61 0 100 -39.5t39 -103.5q0 -68 -42.5 -104t-99.5 -36q-60 0 -99 39.5t-39 102.5q0 69 42 105t99 36zM595 226q-30 0 -47.5 -20t-17.5 -52q0 -31 17.5 -50.5
t47.5 -19.5t47.5 19.5t17.5 51.5q0 33 -17.5 52t-47.5 19zM886 226q-30 0 -47.5 -20t-17.5 -52q0 -31 17.5 -50.5t47.5 -19.5t47.5 19.5t17.5 51.5q0 33 -17.5 52t-47.5 19z" />
    <glyph glyph-name="guilsinglleft" unicode="&#x2039;" horiz-adv-x="398" 
d="M330 439l-208 -184l208 -185l-51 -57l-208 186q-36 31 -36 56q0 23 35 55l209 186z" />
    <glyph glyph-name="guilsinglright" unicode="&#x203a;" horiz-adv-x="398" 
d="M90 496l208 -186q19 -19 25 -27q10 -13 10 -28q0 -24 -35 -56l-208 -186l-52 57l209 185l-209 184z" />
    <glyph glyph-name="uni203D" unicode="&#x203d;" horiz-adv-x="479" 
d="M117 539l-31 -54q-28 8 -41.5 32.5t-13.5 51.5q0 63 63 102q56 34 123 34q87 0 147 -57q62 -56 62 -150q0 -92 -64 -148q-15 -14 -33 -26t-44.5 -27.5t-35.5 -21.5q-33 -21 -44 -37t-11 -44q0 -11 3.5 -27.5t3.5 -18.5l-72 -16q-7 14 -7 63l-7 301h85l-2 -168l-12 -6
q56 27 110 70q56 42 56 107q0 59 -40 95q-39 36 -95 36q-40 0 -76 -19t-36 -39q0 -12 8 -18zM189 116q21 0 37.5 -16t16.5 -37q0 -20 -16.5 -36t-37.5 -16q-20 0 -36 16t-16 36q0 21 16 37t36 16z" />
    <glyph glyph-name="fraction" unicode="&#x2044;" horiz-adv-x="240" 
d="M51 -1h-83l223 509h81z" />
    <glyph glyph-name="uni20A8" unicode="&#x20a8;" horiz-adv-x="705" 
d="M596 102h77q1 -5 1 -15q0 -38 -29 -67.5t-69 -29.5q-49 0 -82 42l-123 159q-25 34 -51 54q-26 19 -81 23v77h96q57 0 92 33q23 25 30 53h-292v79h294q-8 33 -28 57q-33 39 -86 43h-171q-10 0 -16 -6.5t-6 -15.5q0 -15 19 -24l-43 -65q-53 31 -53 88q0 41 28.5 69.5
t67.5 29.5h489v-76h-157l-9 10q24 -28 37 -68q7 -24 10 -42h131v-79h-132q-11 -54 -42 -90q-39 -47 -103 -58q3 -2 6.5 -6t5.5 -5l24 -29l1 -1l126 -165q6 -9 16 -9q7 0 14 4q8 5 8 30z" />
    <glyph glyph-name="Euro" unicode="&#x20ac;" horiz-adv-x="612" 
d="M63 410h64q6 51 23 98q38 102 132 140q48 19 117 19q39 0 114 -19v-79q-60 21 -120 21q-48 0 -79 -13q-64 -24 -89 -97q-10 -27 -16 -70h241l-13 -74h-232v-33h227l-11 -74h-208q14 -75 55 -117q46 -46 125 -46q43 0 73.5 11.5t71.5 38.5l36 -63q-76 -63 -181 -63
q-119 0 -187 69q-59 59 -76 170h-83l16 74h60v33h-76z" />
    <glyph glyph-name="trademark" unicode="&#x2122;" horiz-adv-x="630" 
d="M263 570h-80v-250h-63v250h-82v57h225v-57zM560 319h-62v174l-58 -164h-57l-55 160v-170h-62v308h76l70 -202l73 202h75v-308z" />
    <glyph glyph-name="Ohm" unicode="&#x2126;" horiz-adv-x="596" 
d="M160 64l-18 33q-9 17 -25 53q-19 41 -37 103q-17 54 -17 117q0 74 9 129q9 56 34 95q26 40 69 59q45 20 109 20t107 -20q45 -20 69 -59q24 -35 35 -95q9 -55 9 -129q0 -47 -11 -94q-8 -43 -26 -88q-15 -38 -35 -77q-20 -37 -26 -47h118v-73h-211v55l38 72q16 30 34 76
q14 34 26 81q9 42 9 82q0 69 -5 106q-4 42 -20 73q-13 28 -40 41q-25 14 -71 14q-49 0 -74 -14q-25 -13 -40 -41q-14 -30 -18 -73q-5 -50 -5 -106q0 -51 16 -103t36 -100q12 -27 25 -53q12 -23 30 -55v-55h-211v73h117z" />
    <glyph glyph-name="oneeighth" unicode="&#x215b;" horiz-adv-x="807" 
d="M67 400l-21 79q20 -13 34 -13q3 0 7 1t7 1.5t7.5 3.5t8 4.5t10 6t11 7t13 8.5t14.5 10h34v-307h-70v205q-21 -7 -39 -7q-11 0 -16 1zM434 508h81l-221 -509h-83zM728 181q35 -30 35 -75q0 -43 -32.5 -70.5t-77.5 -27.5t-77.5 28t-32.5 71q0 44 33 75q-20 23 -20 50
q0 37 29 62.5t67 25.5q37 0 67 -25.5t30 -60.5q0 -28 -21 -53zM643 218l21 -6q14 9 14 20q0 20 -26 20q-10 0 -17.5 -6t-7.5 -14q0 -7 2 -8.5t14 -5.5zM653 76q39 0 39 32q0 16 -12 24t-41 15q-25 -20 -25 -39q0 -32 39 -32z" />
    <glyph glyph-name="threeeighths" unicode="&#x215c;" horiz-adv-x="897" 
d="M92 487h1q37 25 74 25q38 0 69 -24t31 -59q0 -28 -20 -55q34 -31 34 -77q0 -44 -34.5 -70.5t-78.5 -26.5q-41 0 -72.5 19.5t-47.5 39.5l43 54q19 -20 26 -26.5t19 -12t27 -5.5q46 0 46 32q0 14 -12 23.5t-29 10.5h-65v68h66q8 0 17 8t9 16q0 6 -8 11t-20 5q-23 0 -61 -31
l-34 59zM524 508h81l-221 -509h-83zM818 181q35 -30 35 -75q0 -43 -32.5 -70.5t-77.5 -27.5t-77.5 28t-32.5 71q0 44 33 75q-20 23 -20 50q0 37 29 62.5t67 25.5q37 0 67 -25.5t30 -60.5q0 -28 -21 -53zM733 218l21 -6q14 9 14 20q0 20 -26 20q-10 0 -17.5 -6t-7.5 -14
q0 -7 2 -8.5t14 -5.5zM743 76q39 0 39 32q0 16 -12 24t-41 15q-25 -20 -25 -39q0 -32 39 -32z" />
    <glyph glyph-name="fiveeighths" unicode="&#x215d;" horiz-adv-x="877" 
d="M131 427h11q50 0 84.5 -30t34.5 -76q0 -47 -33 -80t-77 -33q-34 0 -64.5 17t-34.5 29v6l14 59q8 -6 20 -14t16.5 -11.5t11.5 -8t11.5 -6t10 -2.5t11.5 -1q21 0 33 13t12 33q0 37 -57 37q-37 0 -54 -13l-20 21v141l176 3v-69l-106 -2v-13zM504 508h81l-221 -509h-83z
M798 181q35 -30 35 -75q0 -43 -32.5 -70.5t-77.5 -27.5t-77.5 28t-32.5 71q0 44 33 75q-20 23 -20 50q0 37 29 62.5t67 25.5q37 0 67 -25.5t30 -60.5q0 -28 -21 -53zM713 218l21 -6q14 9 14 20q0 20 -26 20q-10 0 -17.5 -6t-7.5 -14q0 -7 2 -8.5t14 -5.5zM723 76q39 0 39 32
q0 16 -12 24t-41 15q-25 -20 -25 -39q0 -32 39 -32z" />
    <glyph glyph-name="partialdiff" unicode="&#x2202;" horiz-adv-x="577" 
d="M130 567l-9 78q78 28 154 28q55 0 97 -18q43 -16 74 -57q29 -39 44 -102q15 -61 15 -151q0 -174 -68 -263q-68 -91 -185 -91q-103 0 -157 56t-54 151q0 50 17 92q33 83 116 113q43 16 90 16q85 0 157 -50q-1 56 -9 97q-9 46 -28 76q-17 27 -44 40q-27 12 -65 12
q-77 0 -145 -27zM401 199q12 45 16 85q-15 12 -25 18q-60 41 -124 41q-66 0 -104 -39t-38 -106q0 -66 32 -97q34 -32 96 -32q38 0 66 16q54 30 81 114z" />
    <glyph glyph-name="increment" unicode="&#x2206;" horiz-adv-x="569" 
d="M498 59l3 -60h-458l-3 60l165 611h127zM266 592l-137 -515h279l-137 515h-5z" />
    <glyph glyph-name="product" unicode="&#x220f;" horiz-adv-x="602" 
d="M531 581h-67v-676h-82v676h-191v-676h-82v676h-67v82h489v-82z" />
    <glyph glyph-name="summation" unicode="&#x2211;" horiz-adv-x="528" 
d="M462 581h-328l-1 -8l194 -288l-194 -291v-7h329v-82h-417v103l180 277l-180 274v102h417v-80z" />
    <glyph glyph-name="minus" unicode="&#x2212;" horiz-adv-x="474" 
d="M400 257h-355v78h355v-78z" />
    <glyph glyph-name="divisionslash" unicode="&#x2215;" horiz-adv-x="441" 
d="M121 -45h-91l261 692h91z" />
    <glyph glyph-name="radical" unicode="&#x221a;" horiz-adv-x="617" 
d="M372 -93h-133l-109 385l-77 -26l-24 74l158 50l113 -405h6l159 848h85z" />
    <glyph glyph-name="infinity" unicode="&#x221e;" horiz-adv-x="617" 
d="M416 472q65 0 97 -49q31 -48 31 -129q0 -80 -31 -128q-32 -49 -99 -49q-51 0 -82 29q-19 19 -37 55l-6.5 -13t-6.5 -12q-13 -22 -27 -35t-36 -19q-20 -5 -45 -5q-32 0 -52 7t-27.5 15.5t-19.5 26.5q-31 46 -31 128q0 83 31 129q31 49 97 49q54 0 83 -31q21 -21 38 -56
q19 36 39 56q31 31 84 31zM258 294l-15 36q-7 18 -17 33q-9 13 -22 22q-11 7 -29 7q-27 0 -38 -21q-12 -24 -12 -77q0 -48 13 -75q11 -24 37 -24q16 0 29 8q12 9 22 23q11 18 17 33zM329 294l15 -35q7 -18 17 -34q8 -13 21 -22q13 -8 31 -8q26 0 37 22q13 25 13 77
q0 54 -13 77q-10 21 -37 21q-19 0 -31 -7q-13 -10 -21 -22q-9 -11 -17 -33z" />
    <glyph glyph-name="integral" unicode="&#x222b;" horiz-adv-x="467" 
d="M401 851v-75l-44 2l-23 2l-20 1q-25 0 -36 -5q-14 -6 -20 -15q-7 -10 -10 -28q-3 -19 -3 -45l29 -748q0 -37 -5 -72q-4 -32 -22 -56q-16 -22 -45 -33q-26 -10 -72 -10h-22l-27 4l-45 5v75l44 -4l44 -2q43 0 55 21q14 22 14 72l-29 747q0 39 5 74q6 35 22 55q16 22 45 33
q30 11 72 11h7q9 0 15 -1z" />
    <glyph glyph-name="approxequal" unicode="&#x2248;" horiz-adv-x="529" 
d="M424 442l48 -58q-53 -48 -113 -53h-15q-35 0 -81.5 16.5t-67.5 16.5q-42 0 -81 -36l-48 58q61 52 128 52q43 0 85.5 -16t62.5 -16q42 0 82 36zM424 267l48 -58q-53 -48 -113 -53h-15q-35 0 -81.5 16.5t-67.5 16.5q-42 0 -81 -36l-48 58q61 52 128 52q43 0 85.5 -16
t62.5 -16q42 0 82 36z" />
    <glyph glyph-name="notequal" unicode="&#x2260;" horiz-adv-x="527" 
d="M412 538l-57 -127h105v-82h-140l-41 -92h181v-80h-216l-72 -163l-69 31l59 132h-126v80h161l41 92h-202v82h237l70 157z" />
    <glyph glyph-name="lessequal" unicode="&#x2264;" horiz-adv-x="467" 
d="M395 472l-261 -111l261 -119v-90l-357 165v85l357 158v-88zM395 47h-357v81h357v-81z" />
    <glyph glyph-name="greaterequal" unicode="&#x2265;" horiz-adv-x="470" 
d="M403 402v-85l-360 -165v90l264 119l-264 111v88zM403 47h-360v81h360v-81z" />
    <glyph glyph-name="lozenge" unicode="&#x25ca;" horiz-adv-x="549" 
d="M482 332l-181 -333h-74l-189 333l187 331h73zM126 332l136 -242l132 242l-132 240z" />
    <glyph glyph-name="uni2766" unicode="&#x2766;" horiz-adv-x="581" 
d="M337 663v-36q77 -8 131 -64q28 -31 44 -67t16 -72q0 -23 -9 -52q-6 -19 -19 -36v-120q0 -62 -55 -109q-20 -16 -88 -48l-33 -15q-11 -24 -34 -24q-11 0 -21 7t-14 17q-8 4 -11 5q-81 36 -110 58q-55 45 -55 109v120q-28 36 -28 84q0 83 63 146q62 62 150 62h-2v34
q0 23 -22 23q-15 0 -25 -22l-63 40q11 26 35 41t53 15q40 0 68.5 -28t28.5 -68zM277 545l14 -14l13 14l-8 9h-12zM381 537l16 -10l5 4l-13 14zM179 531l4 -3q15 9 17 10l-8 6zM222 489l13 -13l13 13l-13 13zM333 489l13 -13l13 13l-13 13zM126 478l9 -14q2 7 8 19l-6 6z
M457 476l-13 13l-8 -8q7 -14 8 -17zM167 434l13 -13l13 13l-13 13zM277 434l14 -13l13 13l-13 13zM402 447l-13 -13l13 -13l12 13zM457 391l-7 7q-4 -10 -9 -16l3 -4zM137 378l2 3q-6 7 -9 15l-6 -5zM222 378l13 -13l13 13l-13 13zM333 378l13 -13l13 13l-13 13zM426 216v73
q-11 -2 -27 -2h-219q-14 0 -26 3v-74q0 -30 27 -51q14 -11 93 -47l16 -8l15 8q77 35 93 47q19 14 23.5 24.5t4.5 26.5z" />
    <glyph glyph-name="u1F330" unicode="&#x1f330;" horiz-adv-x="581" 
d="M322 652v-36q77 -8 131 -64q28 -31 44 -67t16 -72q0 -23 -9 -52q-6 -19 -19 -36v-120q0 -62 -55 -109q-20 -16 -88 -48l-33 -15q-11 -24 -34 -24q-11 0 -21 7t-14 17q-8 4 -11 5q-81 36 -110 58q-55 45 -55 109v120q-28 36 -28 84q0 83 63 146q62 62 150 62h-2v34
q0 23 -22 23q-15 0 -25 -22l-63 40q11 26 35 41t53 15q40 0 68.5 -28t28.5 -68zM262 534l14 -14l13 14l-8 9h-12zM366 526l16 -10l5 4l-13 14zM164 520l4 -3q15 9 17 10l-8 6zM207 478l13 -13l13 13l-13 13zM318 478l13 -13l13 13l-13 13zM111 467l9 -14q2 7 8 19l-6 6z
M442 465l-13 13l-8 -8q7 -14 8 -17zM152 423l13 -13l13 13l-13 13zM262 423l14 -13l13 13l-13 13zM387 436l-13 -13l13 -13l12 13zM442 380l-7 7q-3 -11 -9 -16l3 -4zM122 367l2 3q-6 8 -9 15l-6 -5zM207 367l13 -13l13 13l-13 13zM318 367l13 -13l13 13l-13 13zM411 205v73
q-11 -2 -27 -2h-219q-14 0 -26 3v-74q0 -30 27 -51q14 -11 93 -47l16 -8l15 8q77 35 93 47q13 10 19.5 19t7.5 15t1 17z" />
    <glyph glyph-name="A.ss02" horiz-adv-x="743" 
d="M687 -1h-87l-94 221h-271l-92 -221h-87l298 706h33zM473 298l-89 210q-8 16 -14 36q-9 -28 -13 -36l-89 -210h205z" />
    <glyph glyph-name="Aacute.ss02" horiz-adv-x="743" 
d="M539 862l-187 -120l-34 52l171 135zM687 -1h-87l-94 221h-271l-92 -221h-87l298 706h33zM473 298l-89 210q-8 16 -14 36q-9 -28 -13 -36l-89 -210h205z" />
    <glyph glyph-name="Adieresis.ss02" horiz-adv-x="743" 
d="M252 902q21 0 37.5 -16t16.5 -37q0 -20 -16.5 -36t-37.5 -16q-20 0 -36 16t-16 36q0 21 16 37t36 16zM467 902q21 0 37.5 -16t16.5 -37q0 -20 -16.5 -36t-37.5 -16q-20 0 -36 16t-16 36q0 21 16 37t36 16zM687 -1h-87l-94 221h-271l-92 -221h-87l298 706h33zM473 298
l-89 210q-8 16 -14 36q-9 -28 -13 -36l-89 -210h205z" />
    <glyph glyph-name="Aring.ss02" horiz-adv-x="743" 
d="M361 950q49 0 79 -31t30 -79q0 -50 -31.5 -81.5t-79.5 -31.5q-49 0 -78.5 31t-29.5 80t30 80.5t80 31.5zM361 884q-39 0 -39 -46q0 -22 10.5 -34t27.5 -12q18 0 29.5 13.5t11.5 34.5q0 20 -11 32t-29 12zM687 -1h-87l-94 221h-271l-92 -221h-87l298 706h33zM473 298
l-89 210q-8 16 -14 36q-9 -28 -13 -36l-89 -210h205z" />
    <glyph glyph-name="B.ss01" horiz-adv-x="656" 
d="M129 697h216q45 0 83 -13q65 -23 94.5 -72t29.5 -102q0 -96 -79 -141q1 0 2 -1l-1 1q108 -59 108 -182q0 -197 -280 -197q-19 0 -101 5h-1l-62 7v595h83v-526l51 -3q40 -2 50 -2q180 0 180 125q0 63 -43.5 98t-107.5 35h-104v77h97q58 0 92.5 28.5t34.5 83.5q0 49 -30 76
t-83 30h-227q-14 0 -24.5 -11t-10.5 -26q0 -22 26 -35l-40 -66q-30 13 -47 41t-17 60q0 47 33 81t78 34z" />
    <glyph glyph-name="B.ss02" horiz-adv-x="574" 
d="M392 368v1q50 -27 79 -74t29 -104q0 -63 -36 -114.5t-102 -72.5q-43 -14 -117 -14q-82 0 -128 5l-61 7v695h206q46 0 84 -13q57 -21 90.5 -67.5t33.5 -106.5q0 -97 -80 -141q2 0 2 -1zM138 619v-218h123q57 0 92 29t35 84q0 97 -113 105h-137zM138 71l52 -3q46 -2 65 -2
q78 0 121 32t43 93q0 59 -39.5 96t-111.5 37h-130v-253z" />
    <glyph glyph-name="C.ss02" horiz-adv-x="736" 
d="M618 178l63 -43q-48 -76 -126 -116.5t-164 -40.5q-146 0 -247.5 106t-101.5 253q0 151 105.5 262.5t247.5 111.5q38 0 74.5 -8t76 -26.5t63.5 -58.5t24 -95h-75q1 34 -16.5 58t-46 35t-54 15t-51.5 4q-109 0 -190.5 -91.5t-81.5 -209.5q0 -114 79 -196.5t195 -82.5
q71 0 131 32.5t95 90.5z" />
    <glyph glyph-name="D.ss01" horiz-adv-x="811" 
d="M129 692h291q143 -10 231 -108t88 -242q0 -153 -98 -252.5t-251 -99.5h-50q-64 0 -145 5l-27 2h-1l-29 4v580h83v-510q105 -5 131 -5q155 0 230 71t75 200q0 127 -67.5 198.5t-180.5 78.5h-282q-14 -2 -23 -12t-9 -23q0 -23 28 -36l-41 -66q-30 13 -47.5 41t-17.5 62
q0 51 37 81.5t75 30.5z" />
    <glyph glyph-name="D.ss02" horiz-adv-x="728" 
d="M56 691h282q143 -9 230.5 -106.5t87.5 -242.5q0 -155 -98 -253.5t-250 -98.5h-50q-65 0 -146 5l-26 2h-1l-29 4v690zM138 614v-543q88 -5 138 -5q149 0 224 72.5t75 200.5q0 123 -66 196t-182 79h-189z" />
    <glyph glyph-name="E.ss01" horiz-adv-x="659" 
d="M587 609h-458q-14 0 -24 -10.5t-10 -26.5q0 -26 27 -35l-41 -67q-30 14 -47 41.5t-17 60.5q0 51 36 82.5t75 31.5h459v-77zM212 401h259v-79h-259v-244h375v-79h-458v579h83v-177z" />
    <glyph glyph-name="E.ss02" horiz-adv-x="604" 
d="M514 608h-378v-207h281v-79h-281v-244h397v-79h-477v687h458v-78z" />
    <glyph glyph-name="Eacute.ss02" horiz-adv-x="589" 
d="M454 855l-187 -120l-34 52l171 135zM514 619h-378v-207h281v-79h-281v-244h397v-79h-477v687h458v-78z" />
    <glyph glyph-name="F.ss01" horiz-adv-x="648" 
d="M586 608h-458q-14 0 -24 -10.5t-10 -26.5q0 -26 27 -35l-40 -67q-30 13 -47.5 41.5t-17.5 59.5q0 48 32 82q33 33 80 33h458v-77zM211 400h259v-78h-259v-323h-83v578h83v-177z" />
    <glyph glyph-name="F.ss02" horiz-adv-x="547" 
d="M514 608h-376v-215h308v-78h-308v-316h-82v687h458v-78z" />
    <glyph glyph-name="G.ss02" horiz-adv-x="748" 
d="M676 365v-106q0 -126 -87 -208t-206 -82q-139 0 -240 108.5t-101 254.5q0 150 105.5 261t250.5 111q91 0 163.5 -45t66.5 -121h-77q1 4 1 12q0 36 -50 56.5t-106 20.5q-113 0 -195.5 -88t-82.5 -208q0 -118 80 -202t189 -84q82 0 146 59.5t64 143.5v39h-236v78h315z" />
    <glyph glyph-name="H.ss02" horiz-adv-x="641" 
d="M555 -1h-82v318h-335v-318h-82v687h82v-291h335v291h82v-687z" />
    <glyph glyph-name="K.ss02" horiz-adv-x="644" 
d="M409 686h98q-21 -36 -58 -108.5t-49 -94.5q-21 -38 -51 -83q-28 -37 -47 -54l188 -266q7 -10 18 -10q10 0 22 15l57 -54q-32 -39 -79 -39q-53 0 -82 42l-197 278q-39 -10 -79 -10h-10v-302h-84v686h82v-302h30q37 2 58 11t40 34q23 27 66 101q19 35 77 156z" />
    <glyph glyph-name="M.ss02" horiz-adv-x="820" 
d="M724 -1h-82v453q0 32 3 70q-51 -66 -125.5 -154.5t-121.5 -138.5q-85 101 -178 215q-13 17 -45 61q3 -28 3 -53v-453h-82v696h35l272 -347l286 347h35v-696z" />
    <glyph glyph-name="N.ss02" horiz-adv-x="749" 
d="M663 687v-688h-42l-104 99l-299 347q-26 30 -39 48l-13 19v-8q2 -38 2 -52v-453h-82v697h35l451 -537l13 -15q0 1 -5 2v541h83z" />
    <glyph glyph-name="P.ss01" 
d="M128 686h224q91 0 144 -61.5t53 -153.5q0 -105 -68 -164.5t-178 -59.5q-35 0 -65 7v76q44 -7 69 -7q79 0 120.5 39t41.5 109q0 64 -35 100t-96 38h-208q-14 0 -24.5 -11t-10.5 -26q0 -23 26 -36l-40 -66q-30 14 -47 42.5t-17 59.5q0 45 33.5 79.5t77.5 34.5zM222 -1h-83
v578h83v-578z" />
    <glyph glyph-name="P.ss02" horiz-adv-x="539" 
d="M56 686h213q89 0 143.5 -61.5t54.5 -157.5q0 -103 -67 -162t-198 -59q-8 0 -31 0.5t-33 0.5v-248h-82v687zM138 609v-281q7 0 35 -1.5t41 -1.5q85 0 129 37t44 108q0 66 -35.5 102.5t-95.5 36.5h-118z" />
    <glyph glyph-name="R.ss01" horiz-adv-x="728" 
d="M602 102l80 -3q5 -42 -23.5 -75.5t-75.5 -33.5q-49 0 -82 42l-122 159q-28 40 -55 57t-77 20v77h96q58 0 92.5 34.5t34.5 93.5q0 58 -32 97t-84 39h-224q-14 0 -24.5 -10.5t-10.5 -26.5q0 -24 27 -35l-41 -67q-29 13 -46.5 41.5t-17.5 60.5q0 46 33.5 80t77.5 34h229
q86 0 140 -62.5t54 -148.5q0 -77 -44.5 -132t-119.5 -62l18 1q10 -10 14 -15l147 -190q7 -11 17 -11q8 0 14.5 6.5t6.5 17.5q0 4 -2 12zM137 587h83v-588h-83v588z" />
    <glyph glyph-name="R.ss02" horiz-adv-x="625" 
d="M530 69l37 -54q-25 -25 -65 -25q-49 0 -82 42l-122 159q-31 41 -58 58.5t-75 18.5v77h96q61 0 94 35.5t33 93.5t-31.5 96.5t-84.5 38.5h-134v-610h-82v687h220q88 0 141 -62.5t53 -148.5q0 -68 -35.5 -120.5t-98.5 -68.5l-41 13q12 -5 27 -16l-18 -2l20 1q9 -8 14 -14
l146 -191q6 -9 17 -9q8 0 12 4zM324 282l-2 1q2 1 7 2t7 1l11 -3z" />
    <glyph glyph-name="S.ss02" horiz-adv-x="572" 
d="M23 157l71 29q23 -63 72 -98.5t106 -35.5q46 0 84.5 22t56.5 64q10 26 10 55q0 42 -21.5 68t-68.5 49q-54 26 -82 40.5t-64 37.5t-53 42.5t-29.5 46.5t-12.5 59q0 75 56 123.5t134 48.5q65 0 113 -36.5t48 -90.5q0 -11 -1 -17l-78 5q2 8 2 11q0 23 -26.5 37t-59.5 14
q-46 0 -79 -27t-33 -65q0 -19 10 -36.5t24 -30t37 -26.5t42.5 -23t47 -22t43.5 -22q128 -69 128 -187q0 -47 -15 -83q-24 -58 -85.5 -96t-127.5 -38q-79 0 -152 52t-97 130z" />
    <glyph glyph-name="T.ss01" horiz-adv-x="637" 
d="M586 608h-231v-609h-83v609h-144q-10 0 -16 -6.5t-6 -15.5q0 -10 9 -17l4 -16l-38 -55q-53 29 -53 89q0 44 31.5 71.5t65.5 27.5h461v-78z" />
    <glyph glyph-name="T.ss02" horiz-adv-x="630" 
d="M588 608h-232v-609h-82v609h-232v78h546v-78z" />
    <glyph glyph-name="uni021A.001" horiz-adv-x="637" 
d="M586 608h-231v-609h-83v609h-144q-10 0 -16 -6.5t-6 -14.5q0 -7 6 -11h-84q-5 48 28 81q29 29 69 29h461v-78zM303 -277h-76l44 224h86z" />
    <glyph glyph-name="U.ss02" horiz-adv-x="670" 
d="M598 686v-416q0 -126 -76.5 -203t-196.5 -77q-121 0 -195 79.5t-74 200.5v416h82v-416q0 -93 52 -148.5t137 -55.5q86 0 137.5 56t51.5 148v416h82z" />
    <glyph glyph-name="Uacute.ss02" horiz-adv-x="670" 
d="M510 844l-187 -120l-34 52l171 135zM598 686v-416q0 -126 -76.5 -203t-196.5 -77q-121 0 -195 79.5t-74 200.5v416h82v-416q0 -93 52 -148.5t137 -55.5q86 0 137.5 56t51.5 148v416h82z" />
    <glyph glyph-name="V.ss02" horiz-adv-x="620" 
d="M30 613v78q2 0 6 0.5t6 0.5q37 0 62.5 -22.5t33.5 -48.5l163 -489l178 555h83l-224 -688h-73l-203 600q0 2 -1 3.5t-2 2.5l-2 2t-3 1.5t-3.5 1t-4.5 1t-4.5 1t-5.5 1t-6 0.5z" />
    <glyph glyph-name="W.ss02" horiz-adv-x="1049" 
d="M991 687l-224 -688h-74l-178 548l-178 -548h-74l-198 603q-5 15 -20 15q-2 0 -5.5 -0.5t-6.5 -0.5v79q4 1 12 1q29 0 59 -19q25 -16 37 -50l158 -490l-5 -23l6 19l6 -19l-5 23l177 550h74l168 -523v-75l3 22l7 22l7 -22l-6 26l178 550h82zM730 133l-10 31v27l11 -54z
M300 133l-1 4l1 5l1 -5z" />
    <glyph glyph-name="X.ss02" horiz-adv-x="612" 
d="M355 351l161 -271q5 -8 21 -8q2 0 6.5 0.5t7.5 0.5v-80q-49 -3 -72.5 14t-49.5 61l-126 217l-169 -286h-96l210 352l-212 335h94l170 -270l169 270h97z" />
    <glyph glyph-name="Y.ss02" horiz-adv-x="569" 
d="M28 615v80q71 6 105 -52l139 -253l165 297h94l-215 -389v-299h-88l3 297l-169 309v-1q-4 8 -10.5 10t-23.5 1z" />
    <glyph glyph-name="Z.ss02" horiz-adv-x="568" 
d="M485 659l-339 -581h359v-79h-480v28l339 581h-320v78h441v-27z" />
    <glyph glyph-name="a.ss02" horiz-adv-x="503" 
d="M106 384l-38 60q78 72 189 72q80 0 121 -44t41 -124v-197q0 -78 42 -116l-48 -47q-37 24 -54 66q-48 -64 -143 -64q-79 0 -126 45t-47 118q0 49 21 83t56.5 50t68.5 22t70 6h83v23q0 54 -20 79.5t-66 25.5q-79 0 -150 -58zM342 241h-83q-68 0 -102.5 -16.5t-34.5 -70.5
q0 -90 95 -90q58 0 91.5 34t33.5 85v58z" />
    <glyph glyph-name="aacute.ss02" horiz-adv-x="503" 
d="M431 682l-187 -120l-34 52l171 135zM106 384l-38 60q78 72 189 72q80 0 121 -44t41 -124v-197q0 -78 42 -116l-48 -47q-37 24 -54 66q-48 -64 -143 -64q-79 0 -126 45t-47 118q0 49 21 83t56.5 50t68.5 22t70 6h83v23q0 54 -20 79.5t-66 25.5q-79 0 -150 -58zM342 241
h-83q-68 0 -102.5 -16.5t-34.5 -70.5q0 -90 95 -90q58 0 91.5 34t33.5 85v58z" />
    <glyph glyph-name="adieresis.ss02" horiz-adv-x="503" 
d="M144 722q21 0 37.5 -16t16.5 -37q0 -20 -16.5 -36t-37.5 -16q-20 0 -36 16t-16 36q0 21 16 37t36 16zM359 722q21 0 37.5 -16t16.5 -37q0 -20 -16.5 -36t-37.5 -16q-20 0 -36 16t-16 36q0 21 16 37t36 16zM106 384l-38 60q78 72 189 72q80 0 121 -44t41 -124v-197
q0 -78 42 -116l-48 -47q-37 24 -54 66q-48 -64 -143 -64q-79 0 -126 45t-47 118q0 49 21 83t56.5 50t68.5 22t70 6h83v23q0 54 -20 79.5t-66 25.5q-79 0 -150 -58zM342 241h-83q-68 0 -102.5 -16.5t-34.5 -70.5q0 -90 95 -90q58 0 91.5 34t33.5 85v58z" />
    <glyph glyph-name="aring.ss02" horiz-adv-x="503" 
d="M253 770q49 0 79 -31t30 -79q0 -50 -31.5 -81.5t-79.5 -31.5q-49 0 -78.5 31t-29.5 80t30 80.5t80 31.5zM253 704q-39 0 -39 -46q0 -22 10.5 -34t27.5 -12q18 0 29.5 13.5t11.5 34.5q0 20 -11 32t-29 12zM106 384l-38 60q78 72 189 72q80 0 121 -44t41 -124v-197
q0 -78 42 -116l-48 -47q-37 24 -54 66q-48 -64 -143 -64q-79 0 -126 45t-47 118q0 49 21 83t56.5 50t68.5 22t70 6h83v23q0 54 -20 79.5t-66 25.5q-79 0 -150 -58zM342 241h-83q-68 0 -102.5 -16.5t-34.5 -70.5q0 -90 95 -90q58 0 91.5 34t33.5 85v58z" />
    </font>
</defs>
</svg>
