<?xml version="1.0" standalone="no"?>
<!DOCTYPE svg PUBLIC "-//W3C//DTD SVG 1.1//EN" "http://www.w3.org/Graphics/SVG/1.1/DTD/svg11.dtd" >
<svg xmlns="http://www.w3.org/2000/svg" xmlns:xlink="http://www.w3.org/1999/xlink" version="1.1">
<metadata>
Created by FontForge 20170731 at Wed Nov 17 07:19:44 2004
 By Aleksey,,,
4.1 (c)1986-92 by Richard A. Ware. All Rights Reserved.
</metadata>
<defs>
<font id="GatsbyFLF-Bold" horiz-adv-x="440" >
  <font-face 
    font-family="GatsbyFLF"
    font-weight="700"
    font-stretch="normal"
    units-per-em="1000"
    panose-1="2 0 8 6 6 0 0 2 0 3"
    ascent="800"
    descent="-200"
    x-height="325"
    cap-height="595"
    bbox="-18 -329 857 755"
    underline-thickness="40"
    underline-position="-190"
    unicode-range="U+0005-E00A"
  />
<missing-glyph horiz-adv-x="500" 
 />
    <glyph glyph-name=".notdef" horiz-adv-x="500" 
 />
    <glyph glyph-name=".null" horiz-adv-x="0" 
 />
    <glyph glyph-name="nonmarkingreturn" unicode="&#xe002;" horiz-adv-x="0" 
 />
    <glyph glyph-name="breve" horiz-adv-x="285" 
d="M68 417l-12 -16q18 -16 41 -24t47 -8q52 0 91 33l-11 15q-40 -26 -80 -26q-41 0 -76 26z" />
    <glyph glyph-name="dotaccent" horiz-adv-x="145" 
d="M97 390q0 11 -6 21t-19 10q-12 0 -18.5 -9.5t-6.5 -21.5q0 -11 6 -21t19 -10q12 0 18.5 9.5t6.5 21.5z" />
    <glyph glyph-name="ring" horiz-adv-x="205" 
d="M104 383q-14 0 -24.5 10t-10.5 24t10.5 24.5t24.5 10.5t24.5 -10.5t10.5 -24.5t-10.5 -24t-24.5 -10zM153 417q0 20 -14.5 34.5t-34.5 14.5t-34.5 -14.5t-14.5 -34.5t14.5 -34.5t34.5 -14.5t34.5 14.5t14.5 34.5z" />
    <glyph glyph-name="hungarumlaut" unicode="&#xa;" horiz-adv-x="209" 
d="M89 522l-51 -124l18 -8l65 118zM159 522l-51 -124l18 -8l65 118z" />
    <glyph glyph-name="ogonek" horiz-adv-x="155" 
d="M94 12h-45q-2 -9 -3 -21t-1 -26q0 -29 8 -63t31 -63l39 22q-20 24 -26.5 51t-6.5 53q0 13 1 25t3 22z" />
    <glyph glyph-name="caron" horiz-adv-x="290" 
d="M144 401l-85 44l-15 -24l100 -50l100 50l-16 24z" />
    <glyph glyph-name="dotlessi" unicode="&#xd;" horiz-adv-x="175" 
d="M67 0h45v325h-45v-325z" />
    <glyph glyph-name="fraction" 
d="M-10 -70l35 -2l430 700l-35 2z" />
    <glyph glyph-name="fi" horiz-adv-x="290" 
d="M246 445q0 11 -6 21t-19 10q-12 0 -18.5 -9.5t-6.5 -21.5q0 -11 6 -21t19 -10q12 0 18.5 9.5t6.5 21.5zM122 0v280h77v-280h45v325h-122v204q0 29 11.5 42t40.5 13v45q-49 0 -73 -26.5t-24 -67.5v-210h-25v-45h25v-280h45z" />
    <glyph glyph-name="fl" horiz-adv-x="276" 
d="M232 0v629h-78q-51 0 -75 -28.5t-24 -70.5v-205h-25v-45h25v-280h45v280h87v-280h45zM100 529q0 55 52 55h35v-259h-87v204z" />
    <glyph glyph-name="Lslash" horiz-adv-x="301" 
d="M49 281l-39 -39v-65l39 39v-216h224v50h-174v209l50 50v65l-50 -50v271h-50v-314z" />
    <glyph glyph-name="lslash" horiz-adv-x="165" 
d="M60 289l-47 -47v-65l47 47v-224h45v262l47 47v65l-47 -47v302h-45v-340z" />
    <glyph glyph-name="Zcaron" horiz-adv-x="335" 
d="M318 595h-284v-50h209l-238 -545h304v50h-229zM276 675l-16 24l-84 -44l-85 44l-15 -24l100 -50z" />
    <glyph glyph-name="zcaron" horiz-adv-x="307" 
d="M40 325v-40h161l-176 -285h257v40h-181l178 285h-239zM159 401l-85 44l-15 -24l100 -50l100 50l-16 24z" />
    <glyph glyph-name="space" unicode=" " horiz-adv-x="280" 
 />
    <glyph glyph-name="exclam" unicode="!" horiz-adv-x="117" 
d="M36 90h45v505h-45v-505zM83 30q0 11 -6 22t-19 11q-12 0 -18.5 -10.5t-6.5 -22.5q0 -11 6 -22t19 -11q12 0 18.5 10.5t6.5 22.5z" />
    <glyph glyph-name="quotedbl" unicode="&#x22;" horiz-adv-x="174" 
d="M74 609h-35v-122h35v122zM138 609h-35v-122h35v122z" />
    <glyph glyph-name="numbersign" unicode="#" horiz-adv-x="310" 
d="M151 454l15 62h-35l-14 -62h-66l-8 -35h65l-7 -31h-60l-8 -35h60l-14 -62h34l15 62h42l-14 -62h34l15 62h63l8 35h-63l7 31h61l8 35h-60l14 62h-35l-14 -62h-43zM136 388l7 31h43l-8 -31h-42z" />
    <glyph glyph-name="dollar" unicode="$" horiz-adv-x="390" 
d="M335 505q-14 40 -40 61.5t-63 30.5v35h-20v-34q-5 1 -11 1h-11h-9v33h-20v-36q-19 -4 -37 -12.5t-32 -23.5t-22.5 -36.5t-8.5 -49.5v-2q0 -29 10.5 -50.5t25.5 -37.5t32 -26.5t32 -16.5v-302q-38 5 -62.5 33.5t-29.5 64.5l-44 -11q3 -23 13 -45t27.5 -40t41.5 -30.5
t54 -16.5v-47h20v44q4 -1 8 -1h8h8t7 1v-44h20v45q27 3 52 16t44 35t30 53t11 70q0 42 -13.5 74t-33.5 55t-44 38t-46 25v194q25 -5 38.5 -23t22.5 -44zM194 556q8 0 18 -2v-187q-6 2 -11.5 4.5t-19.5 7.5v176q3 0 6 0.5t7 0.5zM106 472q0 40 17 57t38 22v-165
q-23 11 -39 32t-16 54zM199 34q-5 0 -9 0.5t-9 1.5v297q8 -2 16.5 -6.5t14.5 -6.5v-285q-3 0 -6 -0.5t-7 -0.5zM324 166q0 -53 -24.5 -87t-67.5 -42v274q9 -3 24.5 -13t30.5 -28t26 -44t11 -60z" />
    <glyph glyph-name="percent" unicode="%" horiz-adv-x="582" 
d="M99 140l31 -29l377 377l-30 29zM314 453q0 30 -11.5 56.5t-31.5 46.5t-46.5 31.5t-56.5 11.5t-56.5 -11.5t-46.5 -31.5t-31.5 -46.5t-11.5 -56.5t11.5 -56.5t31.5 -46t46.5 -31t56.5 -11.5t56.5 11.5t46.5 31t31.5 46t11.5 56.5zM168 346q-22 0 -41.5 8.5t-34 22.5
t-23 33.5t-8.5 41.5t8.5 41.5t23 34t34 23t41.5 8.5t41.5 -8.5t34 -23t23 -34t8.5 -41.5t-8.5 -41.5t-23 -33.5t-34 -22.5t-41.5 -8.5zM560 145q0 30 -11.5 56.5t-31.5 46.5t-46.5 31.5t-56.5 11.5t-56.5 -11.5t-46.5 -31.5t-31.5 -46.5t-11.5 -56.5t11.5 -56.5t31.5 -46
t46.5 -31t56.5 -11.5t56.5 11.5t46.5 31t31.5 46t11.5 56.5zM414 38q-22 0 -41.5 8.5t-34 22.5t-23 33.5t-8.5 41.5t8.5 41.5t23 34t34 23t41.5 8.5t41.5 -8.5t34 -23t23 -34t8.5 -41.5t-8.5 -41.5t-23 -33.5t-34 -22.5t-41.5 -8.5z" />
    <glyph glyph-name="ampersand" unicode="&#x26;" horiz-adv-x="476" 
d="M252 236l19 -41l97 44q5 -12 8.5 -25.5t3.5 -29.5q0 -29 -11.5 -55t-31 -45.5t-46.5 -31.5t-58 -12q-33 0 -59.5 11.5t-45.5 31t-29 45.5t-10 56q0 61 37 103t106 47q44 3 44 33t-44 37q-42 8 -58 27t-16 51t22 53.5t53 21.5q26 0 40.5 -11.5t24.5 -31.5l39 23
q-11 24 -37.5 43.5t-66.5 19.5q-27 0 -49.5 -10.5t-38 -27t-24 -37.5t-8.5 -43q0 -37 18 -66.5t61 -43.5v-1q-38 -8 -65.5 -26.5t-46 -43.5t-27.5 -55t-9 -60q0 -45 15 -80.5t41 -60t60 -37.5t73 -13q51 0 87 18t59 45.5t33.5 61t10.5 64.5q0 23 -4 41t-11 32l72 32l-22 39z
" />
    <glyph glyph-name="quotesingle" unicode="'" horiz-adv-x="110" 
d="M74 609h-35v-122h35v122z" />
    <glyph glyph-name="parenleft" unicode="(" horiz-adv-x="280" 
d="M22 273q0 -60 11.5 -117.5t38 -107t68.5 -89t104 -62.5l16 37q-53 23 -89.5 59t-59.5 80.5t-33.5 95.5t-10.5 104q0 58 12.5 111t37.5 96.5t61 76t83 50.5l-16 37q-53 -18 -94.5 -53.5t-70 -84.5t-43.5 -108t-15 -125z" />
    <glyph glyph-name="parenright" unicode=")" horiz-adv-x="280" 
d="M259 267q0 60 -11.5 117.5t-38 107t-69 89t-103.5 62.5l-16 -37q53 -23 89.5 -59t59.5 -80.5t33.5 -95.5t10.5 -104q0 -58 -12.5 -111t-37.5 -96.5t-61 -76t-83 -50.5l16 -37q53 18 94.5 53.5t70 84.5t43.5 108t15 125z" />
    <glyph glyph-name="asterisk" unicode="*" horiz-adv-x="225" 
d="M34 557q0 -7 9 -13.5t21 -12t24.5 -10t20.5 -7.5q-7 -3 -19.5 -7.5t-25 -10t-21.5 -12t-9 -13.5t10 -7q6 0 15 5t19 12t19.5 14.5t15.5 12.5q-3 -14 -6 -30.5t-3 -29.5q0 -12 3 -19.5t9 -7.5t9 7.5t3 19.5q0 14 -3 30t-6 30q6 -5 15.5 -12.5t19 -14.5t19 -12t15.5 -5
q10 0 10 7t-9 13.5t-21 12t-25 10t-20 7.5q7 3 20 7.5t25 10t21 12t9 13.5t-10 7q-6 0 -15 -5t-19 -11.5t-19 -14t-16 -13.5q4 17 6.5 31.5t2.5 28.5q0 12 -3 19.5t-9 7.5t-9 -7.5t-3 -19.5q0 -14 2.5 -28.5t6.5 -31.5q-8 6 -17 14t-19 14.5t-18.5 11t-14.5 4.5
q-10 0 -10 -7z" />
    <glyph glyph-name="plus" unicode="+" horiz-adv-x="314" 
d="M139 345v-100h-100v-35h100v-100h35v100h100v35h-100v100h-35z" />
    <glyph glyph-name="comma" unicode="," horiz-adv-x="90" 
d="M83 27l-26 13l-55 -110l27 -14z" />
    <glyph glyph-name="hyphen" unicode="-" horiz-adv-x="316" 
d="M281 210v35h-242v-35h242z" />
    <glyph glyph-name="period" unicode="." horiz-adv-x="103" 
d="M77 30q0 11 -6 21t-19 10q-12 0 -18.5 -9.5t-6.5 -21.5q0 -11 6 -21t19 -10q12 0 18.5 9.5t6.5 21.5z" />
    <glyph glyph-name="slash" unicode="/" horiz-adv-x="170" 
d="M-10 -70h40l175 700h-40z" />
    <glyph glyph-name="zero" unicode="0" horiz-adv-x="666" 
d="M649 298q0 64 -24 120t-66 98t-98 66t-120 24t-120 -24t-98 -66t-66 -98t-24 -120t24 -120t66 -98t98 -66t120 -24t120 24t98 66t66 98t24 120zM81 298q0 53 20.5 100t55.5 82t82 55.5t100 20.5t100 -20.5t82 -55.5t55.5 -82t20.5 -100t-20.5 -100t-55.5 -82t-82 -55.5
t-100 -20.5t-100 20.5t-82 55.5t-55.5 82t-20.5 100z" />
    <glyph glyph-name="one" unicode="1" horiz-adv-x="222" 
d="M138 0h50v596l-172 -172l32 -32l90 90v-482z" />
    <glyph glyph-name="two" unicode="2" horiz-adv-x="360" 
d="M29 507l40 -29q6 9 15.5 21t23.5 22t33 17t45 7q50 0 73 -29.5t23 -70.5q0 -26 -9 -54.5t-26 -53.5l-228 -337h310v50h-213l176 265q20 29 31 62t11 68q0 29 -9 56t-27.5 48t-46.5 33.5t-67 12.5q-35 0 -62 -10t-45.5 -24.5t-30.5 -29.5t-17 -24z" />
    <glyph glyph-name="three" unicode="3" horiz-adv-x="345" 
d="M300 595h-260v-50h137l-93 -92q40 -2 76 -18.5t62.5 -44t42 -63.5t15.5 -77q0 -45 -19 -83t-52 -65t-78 -42t-97 -15l1 -45q66 0 120.5 18.5t93 51.5t60 79t21.5 101q0 83 -38.5 138t-110.5 87z" />
    <glyph glyph-name="four" unicode="4" horiz-adv-x="380" 
d="M260 225h-161l196 370h-50l-230 -420h245v-175h50v175h50v50h-50v160h-50v-160z" />
    <glyph glyph-name="five" unicode="5" horiz-adv-x="340" 
d="M250 545v50h-198l-22 -143q56 0 102 -12t79 -37t51 -63t18 -90q0 -47 -19 -84.5t-52 -64.5t-77.5 -41.5t-96.5 -14.5v-45q63 0 117 18t93.5 50.5t62 78.5t22.5 103q0 63 -22 108t-57 74t-79 43t-88 14l10 56h156z" />
    <glyph glyph-name="six" unicode="6" horiz-adv-x="510" 
d="M59 238q0 41 16 77t43 63t63 42.5t77 15.5t77 -15.5t63 -42.5t43 -63t16 -77t-15.5 -77.5t-42 -63.5t-63 -42.5t-78.5 -15.5t-78.5 15.5t-63.5 42.5t-42 63.5t-15 77.5zM299 556l-18 42q-58 -19 -107 -54.5t-84.5 -82.5t-55.5 -104t-20 -119q0 -50 18.5 -94.5t51.5 -77.5
t77.5 -52.5t96.5 -19.5q53 0 98 19t77.5 52t50.5 77.5t18 95.5q0 50 -18.5 94.5t-51.5 77.5t-77.5 52t-96.5 19q-41 0 -68.5 -8.5t-47.5 -23.5q26 34 63 62t94 45z" />
    <glyph glyph-name="seven" unicode="7" horiz-adv-x="335" 
d="M325 595h-310v-45h235l-215 -550h55z" />
    <glyph glyph-name="eight" unicode="8" horiz-adv-x="412" 
d="M396 186q0 29 -9 58t-28 54.5t-47 44.5t-66 28q42 17 60 47.5t18 62.5q0 23 -8 44.5t-23.5 38t-37.5 26.5t-49 10t-49 -10t-37.5 -26.5t-23.5 -38t-8 -44.5q0 -41 20 -67t57 -43q-38 -8 -66 -27t-46.5 -44t-27.5 -54.5t-9 -59.5q0 -37 12 -71.5t36 -61t59.5 -42.5
t82.5 -16t82.5 16t59.5 42.5t36 61t12 71.5zM129 481q0 29 19 52.5t57 23.5t56.5 -23.5t19.5 -52.5q0 -29 -19 -52.5t-57 -23.5t-56.5 23.5t-19.5 52.5zM352 186q0 -27 -9 -53.5t-27.5 -47t-46 -33t-63.5 -12.5q-37 0 -64.5 12.5t-45.5 33t-27 47t-9 53.5t9 53.5t27.5 47
t46 33t63.5 12.5q37 0 64.5 -12.5t45.5 -33t27 -47t9 -53.5z" />
    <glyph glyph-name="nine" unicode="9" horiz-adv-x="402" 
d="M173 0q39 31 78 74t70.5 93.5t51.5 108t20 118.5q0 40 -15 74.5t-41.5 60t-62 40.5t-76.5 15q-39 0 -74 -15t-60.5 -41t-40.5 -60.5t-15 -73.5q0 -40 15 -74.5t41 -60t60.5 -40t73.5 -14.5q35 0 64.5 10.5t48.5 30.5q-22 -51 -64 -105.5t-105 -107.5zM200 250
q-32 0 -59 11.5t-46 31t-29.5 46t-10.5 56.5t11.5 56.5t31 46.5t46 31.5t56.5 11.5t56.5 -11.5t46 -31.5t31 -46.5t11.5 -56.5t-11.5 -56.5t-31 -46t-46 -31t-56.5 -11.5z" />
    <glyph glyph-name="colon" unicode=":" horiz-adv-x="100" 
d="M77 290q0 11 -6 21t-19 10q-12 0 -18.5 -9.5t-6.5 -21.5q0 -11 6 -21t19 -10q12 0 18.5 9.5t6.5 21.5zM77 30q0 11 -6 21t-19 10q-12 0 -18.5 -9.5t-6.5 -21.5q0 -11 6 -21t19 -10q12 0 18.5 9.5t6.5 21.5z" />
    <glyph glyph-name="semicolon" unicode=";" horiz-adv-x="102" 
d="M77 290q0 11 -6 21t-19 10q-12 0 -18.5 -9.5t-6.5 -21.5q0 -11 6 -21t19 -10q12 0 18.5 9.5t6.5 21.5zM83 27l-26 13l-55 -110l26 -13z" />
    <glyph glyph-name="less" unicode="&#x3c;" horiz-adv-x="155" 
d="M56 225l75 150h-35l-75 -150l75 -150h35z" />
    <glyph glyph-name="equal" unicode="=" horiz-adv-x="315" 
d="M269 145v35h-210v-35h210zM269 280v35h-210v-35h210z" />
    <glyph glyph-name="greater" unicode="&#x3e;" horiz-adv-x="155" 
d="M133 225l-75 150h-35l75 -150l-75 -150h35z" />
    <glyph glyph-name="question" unicode="?" horiz-adv-x="268" 
d="M83 30q0 11 -6 22t-19 11q-12 0 -18.5 -10.5t-6.5 -22.5q0 -11 6 -22t19 -11q12 0 18.5 10.5t6.5 22.5zM201 365q0 -29 -10 -58.5t-30 -55t-51 -45t-74 -29.5v-87h45v54q43 12 74.5 33.5t52.5 50.5t31 64t10 73q0 37 -12 74.5t-37.5 69.5t-64.5 55t-92 32v-45
q38 -8 67.5 -25.5t49.5 -42.5t30.5 -55.5t10.5 -62.5z" />
    <glyph glyph-name="at" unicode="@" horiz-adv-x="390" 
d="M129 338q0 28 16.5 46.5t46.5 18.5q29 0 42 -19t13 -43q0 -25 -16.5 -43t-46.5 -18q-29 0 -42 17.5t-13 40.5zM63 346q0 25 8.5 48.5t25.5 42.5t42.5 30.5t60.5 11.5q24 0 47 -8t42 -24.5t30.5 -42.5t11.5 -61q0 -23 -9 -41t-32 -18q-16 0 -18.5 10.5t-2.5 27.5l8 94h-20
l-3 -34q-6 13 -20 25t-42 12q-38 0 -59.5 -24.5t-21.5 -56.5q0 -30 18 -52.5t55 -22.5q32 0 46.5 12.5t19.5 22.5q1 -14 8.5 -24t27.5 -10q35 0 50 22.5t15 56.5q0 40 -13 69t-34.5 48.5t-48.5 29t-55 9.5q-39 0 -68 -13t-48.5 -34.5t-29.5 -49t-10 -56.5t9 -57t28 -49.5
t47 -34.5t67 -13q35 0 62 11t40 24l-12 15q-11 -11 -36.5 -20.5t-52.5 -9.5q-33 0 -58 11.5t-41.5 30t-25 42.5t-8.5 50z" />
    <glyph glyph-name="A" unicode="A" 
d="M69 0l32 96h247l32 -96h54l-209 619l-160 -473h-44l-6 -50h32l-32 -96h54zM225 462l106 -316h-213z" />
    <glyph glyph-name="B" unicode="B" horiz-adv-x="342" 
d="M130 433q10 2 21 7.5t20.5 14.5t16 21.5t6.5 30.5q0 46 -41.5 67t-117.5 21v-597q61 0 114 14t91.5 42.5t60.5 72.5t22 105q0 47 -16 82t-43 59.5t-62 39t-72 20.5zM85 53v338q40 -1 74.5 -11.5t59.5 -31t39.5 -49.5t14.5 -67q0 -48 -16.5 -81.5t-43 -54.5t-60 -31.5
t-68.5 -11.5zM85 460v90q20 0 39.5 -9t19.5 -35q0 -22 -19 -34t-40 -12z" />
    <glyph glyph-name="C" unicode="C" horiz-adv-x="294" 
d="M269 49q-44 8 -78.5 32t-58.5 58t-36.5 75t-12.5 83t12.5 83t36.5 75t58.5 58t78.5 32v50q-57 -10 -101 -38.5t-74 -69t-45.5 -90t-15.5 -100.5t15.5 -100.5t45.5 -90t74 -69t101 -38.5v50z" />
    <glyph glyph-name="D" unicode="D" horiz-adv-x="403" 
d="M34 596v-596q73 3 136.5 23.5t110.5 57t74 90t27 124.5q0 70 -26 126t-72 95t-110 59.5t-140 20.5zM332 295q0 -57 -20 -100t-54.5 -73t-79.5 -47.5t-94 -24.5v496q49 -6 94 -24t79 -49.5t54.5 -76t20.5 -101.5z" />
    <glyph glyph-name="E" unicode="E" horiz-adv-x="305" 
d="M269 487h-168v58h168v50h-218v-108h-19v-50h19v-227q0 -58 17 -98.5t47 -66t69.5 -37.5t84.5 -12v48q-80 0 -124 40t-44 130v223h168v50z" />
    <glyph glyph-name="F" unicode="F" horiz-adv-x="284" 
d="M257 487h-146v58h146v50h-196v-108h-19v-50h19v-437h50v437h146v50z" />
    <glyph glyph-name="G" unicode="G" horiz-adv-x="351" 
d="M171 425h88v-366q-32 4 -64.5 22.5t-58 49.5t-41.5 74.5t-16 96.5q0 64 18 111.5t49.5 79t73.5 48t89 18.5v45q-49 -2 -98.5 -20t-90 -54.5t-66 -92.5t-25.5 -135q0 -76 23 -130.5t62 -90.5t89.5 -55.5t105.5 -25.5v475h-138v-50z" />
    <glyph glyph-name="H" unicode="H" horiz-adv-x="475" 
d="M109 487v108h-50v-108h-19v-50h19v-437h50v437h270v-437h50v595h-50v-108h-270z" />
    <glyph glyph-name="I" unicode="I" horiz-adv-x="168" 
d="M61 0h50v595h-50v-595z" />
    <glyph glyph-name="J" unicode="J" horiz-adv-x="305" 
d="M23 -4q52 3 97.5 17t79 40.5t52.5 66.5t19 96v379h-50v-375q0 -45 -15 -76.5t-41.5 -52.5t-62.5 -32t-79 -13v-50z" />
    <glyph glyph-name="K" unicode="K" horiz-adv-x="396" 
d="M99 498v97h-50v-595h50v441l52 36l177 -477h55l-190 507l126 88h-81z" />
    <glyph glyph-name="L" unicode="L" horiz-adv-x="301" 
d="M99 50v545h-50v-595h224v50h-174z" />
    <glyph glyph-name="M" unicode="M" horiz-adv-x="561" 
d="M168 601l-154 -601h52l126 494l87 -100l87 101l128 -495h51l-154 601l-112 -129z" />
    <glyph glyph-name="N" unicode="N" horiz-adv-x="462" 
d="M43 0h50v535q29 0 65 -10t74 -27t75.5 -39t70.5 -47v-412h50v595h-50v-119q-35 25 -76.5 47t-85.5 38t-88.5 25t-84.5 9v-595z" />
    <glyph glyph-name="O" unicode="O" horiz-adv-x="678" 
d="M649 298q0 64 -24 120t-66 98t-98 66t-120 24t-120 -24t-98 -66t-66 -98t-24 -120t24 -120t66 -98t98 -66t120 -24t120 24t98 66t66 98t24 120zM81 298q0 53 20.5 100t55.5 82t82 55.5t100 20.5t100 -20.5t82 -55.5t55.5 -82t20.5 -100t-20.5 -100t-55.5 -82t-82 -55.5
t-100 -20.5t-100 20.5t-82 55.5t-55.5 82t-20.5 100z" />
    <glyph glyph-name="P" unicode="P" horiz-adv-x="315" 
d="M41 0h50v184q42 4 79.5 20t65.5 42t44 62.5t16 81.5q0 51 -18.5 89.5t-52.5 64.5t-80.5 39t-103.5 13v-596zM246 390q0 -72 -44 -111t-111 -46v314q32 -3 60 -14.5t49 -31t33.5 -47.5t12.5 -64z" />
    <glyph glyph-name="Q" unicode="Q" horiz-adv-x="678" 
d="M341 -10q38 0 72.5 8.5t66.5 24.5l95 -133l40 31l-92 128q57 43 91.5 107.5t34.5 141.5q0 64 -24 120t-66 98t-98 66t-120 24t-120 -24t-98 -66t-66 -98t-24 -120t24 -120t66 -98t98 -66t120 -24zM597 298q0 -64 -28 -118t-76 -89l-100 140l-40 -31l97 -135
q-53 -25 -111 -25q-53 0 -100 20.5t-82 55.5t-55.5 82t-20.5 100t20.5 100t55.5 82t82 55.5t100 20.5t100 -20.5t82 -55.5t55.5 -82t20.5 -100z" />
    <glyph glyph-name="R" unicode="R" horiz-adv-x="318" 
d="M246 390q0 -72 -44 -111t-111 -46v314q32 -3 60 -14.5t49 -31t33.5 -47.5t12.5 -64zM278 48q-52 24 -89.5 59.5t-51.5 87.5q31 7 59.5 22t50.5 38t34.5 56.5t12.5 78.5q0 51 -18.5 89t-52 63.5t-80 38.5t-103.5 15v-596h52v182q19 -66 66.5 -112t119.5 -76v54z" />
    <glyph glyph-name="S" unicode="S" horiz-adv-x="282" 
d="M177 332q-19 14 -34.5 26.5t-26 25.5t-16 27.5t-5.5 32.5q0 56 27 80t75 29v50q-68 -5 -110 -43.5t-42 -115.5q0 -27 8 -48t21 -37.5t29.5 -30.5t33.5 -26q35 -25 54.5 -53.5t19.5 -71.5q0 -30 -13 -53.5t-36 -40.5t-55 -27.5t-70 -14.5v-51q42 4 82.5 16.5t72 35
t50.5 56t19 79.5q0 54 -23 90t-61 65z" />
    <glyph glyph-name="T" unicode="T" horiz-adv-x="340" 
d="M300 595h-260v-50h105v-545h50v545h105v50z" />
    <glyph glyph-name="U" unicode="U" horiz-adv-x="371" 
d="M99 595h-50v-456q0 -71 37 -108.5t105 -37.5t105 37.5t37 108.5v456h-50v-456q0 -96 -92 -96t-92 96v456z" />
    <glyph glyph-name="V" unicode="V" horiz-adv-x="320" 
d="M164 186l-99 409h-51l150 -621l150 621h-51z" />
    <glyph glyph-name="W" unicode="W" horiz-adv-x="560" 
d="M166 173l-101 422h-51l148 -621l121 440l121 -440l148 621h-51l-101 -423l-117 421z" />
    <glyph glyph-name="X" unicode="X" horiz-adv-x="369" 
d="M188 383l-93 212h-55l116 -259l-149 -336h55l120 275l123 -275h54l-143 322l120 273h-54z" />
    <glyph glyph-name="Y" unicode="Y" horiz-adv-x="375" 
d="M190 474l-114 121h-68l157 -168v-427h50v427l157 168h-69z" />
    <glyph glyph-name="Z" unicode="Z" horiz-adv-x="335" 
d="M318 595h-284v-50h209l-238 -545h304v50h-229z" />
    <glyph glyph-name="bracketleft" unicode="[" horiz-adv-x="125" 
d="M113 -60h-40v654h40v35h-80v-724h80v35z" />
    <glyph glyph-name="backslash" unicode="\" horiz-adv-x="215" 
d="M40 628h-40l175 -700h40z" />
    <glyph glyph-name="bracketright" unicode="]" horiz-adv-x="125" 
d="M22 594h40v-654h-40v-35h80v724h-80v-35z" />
    <glyph glyph-name="asciicircum" unicode="^" horiz-adv-x="250" 
d="M126 521l88 -88l14 15l-102 102l-102 -102l14 -15z" />
    <glyph glyph-name="underscore" unicode="_" horiz-adv-x="298" 
d="M0 -18v-20h308v20h-308z" />
    <glyph glyph-name="grave" unicode="`" horiz-adv-x="200" 
d="M48 455l101 -89l14 14l-90 99z" />
    <glyph glyph-name="a" unicode="a" horiz-adv-x="342" 
d="M81 298l27 -36q14 11 29.5 18t41.5 7q35 0 56.5 -19.5t21.5 -47.5v-16q-12 20 -38 32.5t-62 12.5q-31 0 -55.5 -11t-42 -29t-26.5 -41t-9 -47t8.5 -46.5t25 -40.5t41.5 -29t58 -11q43 0 66.5 13.5t33.5 27.5v-35h45v221q0 48 -32 79.5t-91 31.5q-37 0 -60.5 -10
t-37.5 -24zM71 121q0 16 5.5 31t16.5 27t27 19t38 7t38 -7t27 -19t16.5 -27t5.5 -31t-5.5 -31t-16.5 -27t-27 -19t-38 -7t-38 7.5t-27 19.5t-16.5 27t-5.5 30z" />
    <glyph glyph-name="b" unicode="b" horiz-adv-x="420" 
d="M231 332q-42 0 -78 -19t-59 -51v367h-45v-629h45v64q23 -32 59 -51t78 -19q35 0 65.5 13.5t53.5 36.5t36.5 53.5t13.5 65.5t-13.5 65.5t-36.5 53.5t-53.5 36.5t-65.5 13.5zM107 163q0 25 10 48t26.5 39.5t39 26.5t48.5 10q25 0 48 -10t39.5 -26.5t26.5 -39.5t10 -48
q0 -26 -10 -48.5t-26.5 -39t-39.5 -26.5t-48 -10q-26 0 -48.5 10t-39 26.5t-26.5 39t-10 48.5z" />
    <glyph glyph-name="c" unicode="c" horiz-adv-x="197" 
d="M165 286v47q-31 -9 -55 -25.5t-40.5 -39t-25.5 -49.5t-9 -56t7.5 -56t23.5 -49t40.5 -38t58.5 -23v46q-43 14 -63.5 48t-20.5 72t21 72t63 51z" />
    <glyph glyph-name="d" unicode="d" horiz-adv-x="424" 
d="M192 -6q43 0 79 19.5t59 52.5v-66h45v629h-45v-369q-23 33 -59 52.5t-79 19.5q-35 0 -65.5 -13.5t-53.5 -36.5t-36.5 -53.5t-13.5 -65.5t13.5 -65.5t36.5 -53.5t53.5 -36.5t65.5 -13.5zM68 163q0 25 10 48t26.5 39.5t39 26.5t48.5 10q25 0 48 -10t39.5 -26.5t26.5 -39.5
t10 -48q0 -26 -10 -48.5t-26.5 -39t-39.5 -26.5t-48 -10q-26 0 -48.5 10t-39 26.5t-26.5 39t-10 48.5z" />
    <glyph glyph-name="e" unicode="e" horiz-adv-x="331" 
d="M24 160q0 -30 8.5 -57.5t26.5 -50t45.5 -38t64.5 -20.5v46q-30 5 -53.5 24t-37.5 50l242 166q-21 23 -52.5 37.5t-74.5 14.5q-42 0 -73.5 -14.5t-53 -38.5t-32 -55t-10.5 -64zM240 279l-170 -117q0 29 10.5 52.5t28 39.5t39.5 24.5t45 8.5q21 0 47 -8z" />
    <glyph glyph-name="f" unicode="f" horiz-adv-x="220" 
d="M51 280h25v-280h45v280h85v45h-85v194q0 33 13.5 49t43.5 16v45q-57 0 -79.5 -29.5t-22.5 -76.5v-198h-25v-45z" />
    <glyph glyph-name="g" unicode="g" horiz-adv-x="370" 
d="M343 285v40h-161q-37 0 -65 -13t-46.5 -34t-27.5 -47.5t-9 -53.5q0 -25 7.5 -49t22.5 -43.5t38 -33t54 -17.5q-32 -3 -58.5 -17.5t-47.5 -37.5l30 -27q16 15 37.5 28t58.5 13q31 0 55 -10.5t39.5 -28t23.5 -40.5t8 -48q0 -24 -8.5 -47t-25 -41t-41 -29t-57.5 -11
q-40 0 -68.5 21.5t-39.5 48.5l-38 -24q14 -38 53.5 -65.5t92.5 -27.5q44 0 77.5 15t56 39.5t34 56t11.5 64.5q0 28 -9 55.5t-27.5 50.5t-47 39.5t-67.5 22.5q32 3 56 16.5t39.5 33.5t23.5 44t8 49q0 32 -12 63t-35 45h65zM178 280q25 0 44.5 -9t32.5 -23.5t19.5 -33
t6.5 -37.5t-6.5 -37.5t-19.5 -33t-32.5 -23.5t-44.5 -9q-26 0 -45 9t-32 23.5t-19.5 33t-6.5 37.5t6.5 37.5t19.5 33t32 23.5t45 9z" />
    <glyph glyph-name="h" unicode="h" horiz-adv-x="385" 
d="M199 332q-46 0 -73.5 -14t-38.5 -34v345h-45v-629h45v191q0 16 7 33t21 31t35 23t49 9q51 0 79.5 -25.5t28.5 -62.5v-199h45v203q0 59 -42.5 94t-110.5 35z" />
    <glyph glyph-name="i" unicode="i" horiz-adv-x="175" 
d="M112 0v325h-45v-325h45zM114 407q0 11 -6 21t-19 10q-12 0 -18.5 -9.5t-6.5 -21.5q0 -11 6 -21t19 -10q12 0 18.5 9.5t6.5 21.5z" />
    <glyph glyph-name="j" unicode="j" horiz-adv-x="155" 
d="M-18 -329q67 0 97 29.5t30 83.5v541h-45v-530q0 -42 -18.5 -60.5t-63.5 -18.5v-45zM111 407q0 11 -6 21t-19 10q-12 0 -18.5 -9.5t-6.5 -21.5q0 -11 6 -21t19 -10q12 0 18.5 9.5t6.5 21.5z" />
    <glyph glyph-name="k" unicode="k" horiz-adv-x="290" 
d="M209 325l-119 -119v423h-45v-629h45v78q19 -26 47.5 -50.5t64.5 -45t78.5 -35.5t89.5 -22v45q-49 7 -91 25t-76.5 42t-61.5 52.5t-47 56.5l179 179h-64z" />
    <glyph glyph-name="l" unicode="l" horiz-adv-x="165" 
d="M60 0h45v629h-45v-629z" />
    <glyph glyph-name="m" unicode="m" horiz-adv-x="589" 
d="M556 200q0 27 -7.5 51t-24 42t-43 28.5t-65.5 10.5q-51 0 -79 -17t-41 -41q-11 23 -39.5 40.5t-79.5 17.5q-44 0 -65.5 -15t-29.5 -29v37h-45v-325h45v189q0 41 25 69.5t70 28.5q28 0 46.5 -8t29.5 -22t16 -32t5 -37v-188h45v188q0 48 23 73.5t74 25.5t73 -24t22 -75
v-188h45v200z" />
    <glyph glyph-name="n" unicode="n" horiz-adv-x="376" 
d="M193 332q-51 0 -76.5 -14.5t-35.5 -30.5v38h-45v-325h45v193q0 15 5.5 31.5t19 30.5t34.5 23t53 9q56 0 82 -24.5t26 -63.5v-199h45v211q0 52 -39 86.5t-114 34.5z" />
    <glyph glyph-name="o" unicode="o" horiz-adv-x="388" 
d="M72 163q0 25 10 48t26.5 39.5t39 26.5t48.5 10q25 0 48 -10t39.5 -26.5t26.5 -39.5t10 -48q0 -26 -10 -48.5t-26.5 -39t-39.5 -26.5t-48 -10q-26 0 -48.5 10t-39 26.5t-26.5 39t-10 48.5zM365 163q0 35 -13.5 65.5t-36.5 53.5t-53.5 36.5t-65.5 13.5t-65.5 -13.5
t-53.5 -36.5t-36.5 -53.5t-13.5 -65.5t13.5 -65.5t36.5 -53.5t53.5 -36.5t65.5 -13.5t65.5 13.5t53.5 36.5t36.5 53.5t13.5 65.5z" />
    <glyph glyph-name="p" unicode="p" horiz-adv-x="425" 
d="M233 332q-42 0 -78 -19t-59 -51v63h-45v-634h45v373q23 -32 59 -51t78 -19q35 0 65.5 13.5t53.5 36.5t36.5 53.5t13.5 65.5t-13.5 65.5t-36.5 53.5t-53.5 36.5t-65.5 13.5zM109 163q0 25 10 48t26.5 39.5t39 26.5t48.5 10q25 0 48 -10t39.5 -26.5t26.5 -39.5t10 -48
q0 -26 -10 -48.5t-26.5 -39t-39.5 -26.5t-48 -10q-26 0 -48.5 10t-39 26.5t-26.5 39t-10 48.5z" />
    <glyph glyph-name="q" unicode="q" horiz-adv-x="425" 
d="M333 325v-63q-23 32 -59 51t-78 19q-35 0 -65.5 -13.5t-53.5 -36.5t-36.5 -53.5t-13.5 -65.5t13.5 -65.5t36.5 -53.5t53.5 -36.5t65.5 -13.5q42 0 78 19t59 51v-373h45v634h-45zM72 163q0 25 10 48t26.5 39.5t39 26.5t48.5 10q25 0 48 -10t39.5 -26.5t26.5 -39.5t10 -48
q0 -26 -10 -48.5t-26.5 -39t-39.5 -26.5t-48 -10q-26 0 -48.5 10t-39 26.5t-26.5 39t-10 48.5z" />
    <glyph glyph-name="r" unicode="r" horiz-adv-x="235" 
d="M206 282v45q-48 0 -76 -19.5t-41 -43.5v61h-45v-325h45v171q0 22 8 42t23.5 35.5t37 24.5t48.5 9z" />
    <glyph glyph-name="s" unicode="s" horiz-adv-x="208" 
d="M130 187q-17 15 -31.5 29t-14.5 31q0 20 13.5 27.5t37.5 12.5v45q-40 -4 -68 -23t-28 -62q0 -30 17 -50t36 -37q17 -16 31 -31t14 -36q0 -15 -9 -26t-23.5 -17.5t-32.5 -10t-37 -3.5v-45q30 0 57 6.5t47 19t31.5 31.5t11.5 45q0 32 -16 54t-36 40z" />
    <glyph glyph-name="t" unicode="t" horiz-adv-x="212" 
d="M107 447h-45v-122h-25v-45h25v-184q0 -50 24.5 -75t87.5 -25v45q-38 0 -52.5 13t-14.5 39v187h87v45h-87v122z" />
    <glyph glyph-name="u" unicode="u" horiz-adv-x="372" 
d="M37 325v-204q0 -27 9 -50.5t27 -41.5t46.5 -28t67.5 -10t67.5 10.5t46.5 28t27 41t9 50.5v204h-45v-188q0 -54 -27.5 -77.5t-77.5 -23.5t-77.5 23.5t-27.5 77.5v188h-45z" />
    <glyph glyph-name="v" unicode="v" horiz-adv-x="279" 
d="M58 325h-47l129 -345l130 345h-48l-82 -219z" />
    <glyph glyph-name="w" unicode="w" horiz-adv-x="442" 
d="M144 -19l80 211l79 -212l130 345h-47l-83 -219l-79 212l-80 -212l-82 219h-47z" />
    <glyph glyph-name="x" unicode="x" horiz-adv-x="336" 
d="M172 209l-88 116h-56l114 -152l-130 -173h56l102 136l102 -136h56l-130 173l115 152h-54z" />
    <glyph glyph-name="y" unicode="y" horiz-adv-x="286" 
d="M70 325h-47l105 -280l-132 -353h47l238 633h-47l-82 -217z" />
    <glyph glyph-name="z" unicode="z" horiz-adv-x="307" 
d="M40 325v-40h161l-176 -285h257v40h-181l178 285h-239z" />
    <glyph glyph-name="braceleft" unicode="{" horiz-adv-x="195" 
d="M17 278q9 -3 19.5 -8.5t20 -14t15.5 -20t6 -25.5v-204q0 -54 26.5 -83t80.5 -29v42q-38 0 -52.5 20.5t-14.5 58.5v201q0 26 -12.5 40t-28.5 22q16 8 28.5 22t12.5 38v185q0 42 13 63.5t54 21.5v35q-57 0 -82 -30.5t-25 -81.5v-189q0 -13 -6 -23.5t-15.5 -18.5t-20 -13.5
t-19.5 -8.5z" />
    <glyph glyph-name="bar" unicode="|" horiz-adv-x="115" 
d="M40 -75h36v695h-36v-695z" />
    <glyph glyph-name="braceright" unicode="}" horiz-adv-x="210" 
d="M130 6v204q0 14 6 25.5t15.5 20t20 14t19.5 8.5q-9 3 -19.5 8.5t-20 13.5t-15.5 18.5t-6 23.5v189q0 51 -25 81.5t-82 30.5v-35q41 0 54 -21.5t13 -63.5v-185q0 -24 12.5 -38t28.5 -22q-16 -8 -28.5 -22t-12.5 -40v-201q0 -38 -14.5 -58.5t-52.5 -20.5v-42q54 0 80.5 29
t26.5 83z" />
    <glyph glyph-name="asciitilde" unicode="~" horiz-adv-x="265" 
d="M39 263h30q1 11 11 14.5t21 3.5q12 0 19.5 -3t15.5 -7q7 -3 16 -6t24 -3q23 0 39 11.5t19 34.5h-30q-1 -7 -7.5 -12.5t-20.5 -5.5q-12 0 -20 3t-16 7l-16 6t-22 3q-26 0 -43.5 -13t-19.5 -33z" />
    <glyph glyph-name="exclamdown" unicode="&#xa1;" horiz-adv-x="155" 
d="M99 375h-45v-505h45v505zM52 435q0 -11 6 -22t19 -11q12 0 18.5 10.5t6.5 22.5q0 11 -6 22t-19 11q-12 0 -18.5 -10.5t-6.5 -22.5z" />
    <glyph glyph-name="cent" unicode="&#xa2;" horiz-adv-x="396" 
d="M25 302q0 -36 10.5 -71t31.5 -63t53.5 -46t76.5 -21v-56h45v56q39 1 70 14t48 27v51q-18 -14 -47 -30t-71 -17v311q38 -2 68.5 -16.5t51.5 -31.5v49q-18 15 -51.5 28.5t-68.5 15.5v48h-45v-48q-43 -2 -75 -19t-53.5 -44.5t-32.5 -63t-11 -73.5zM75 302q0 28 7.5 55.5
t22.5 49t38 35t54 15.5v-311q-31 2 -54 16t-38 35.5t-22.5 49t-7.5 55.5z" />
    <glyph glyph-name="sterling" unicode="&#xa3;" horiz-adv-x="279" 
d="M213 178h-123v41h123v45h-123v147q0 79 40 111t128 32v45q-114 0 -166 -48.5t-52 -139.5v-147h-19v-45h19v-41h-19v-45h19v-133h218v50h-168v83h123v45z" />
    <glyph glyph-name="yen" unicode="&#xa5;" horiz-adv-x="372" 
d="M187 475l-112 120h-70l157 -168v-17h-75v-30h75v-27h-75v-30h75v-323h50v323h75v30h-75v27h75v30h-75v17l157 168h-70z" />
    <glyph glyph-name="brokenbar" unicode="&#xa6;" horiz-adv-x="133" 
d="M89 327h-35v-327h35v327zM54 436h35v319h-35v-319z" />
    <glyph glyph-name="section" unicode="&#xa7;" horiz-adv-x="200" 
d="M45 -76q18 7 39.5 16.5t40 25t30.5 37t12 52.5q0 18 -4 31t-11 23t-15 18t-15 17q7 7 17 16t18.5 22t14.5 31.5t6 44.5q0 32 -17.5 55t-35.5 41q-20 20 -35 39t-15 42q0 37 27.5 58t69.5 35l-15 38q-23 -7 -44.5 -18.5t-39 -27.5t-28 -37t-10.5 -48q0 -31 15 -51t33 -40
q-26 -22 -42.5 -47t-16.5 -60q0 -34 15.5 -55.5t36.5 -43.5q20 -21 35.5 -40.5t15.5 -42.5t-9.5 -37.5t-23.5 -25t-31.5 -17.5t-33.5 -13zM138 254q0 -31 -13 -49t-29 -33q-12 14 -22 26.5t-10 35.5q0 29 12.5 48t30.5 35q13 -14 22 -28t9 -35z" />
    <glyph glyph-name="dieresis" unicode="&#xa8;" horiz-adv-x="260" 
d="M96 407q0 11 -6 21t-19 10q-12 0 -18.5 -9.5t-6.5 -21.5q0 -11 6 -21t19 -10q12 0 18.5 9.5t6.5 21.5zM216 407q0 11 -6 21t-19 10q-12 0 -18.5 -9.5t-6.5 -21.5q0 -11 6 -21t19 -10q12 0 18.5 9.5t6.5 21.5z" />
    <glyph glyph-name="copyright" unicode="&#xa9;" horiz-adv-x="380" 
d="M126 315q0 28 19.5 50t57.5 22q25 0 41 -8.5t28 -20.5v17q-11 11 -28.5 19t-40.5 8t-40 -7.5t-28.5 -19.5t-17 -27.5t-5.5 -31.5t5.5 -31.5t17 -27.5t28.5 -19t40 -7q25 0 42 7.5t27 18.5v19q-12 -14 -28 -23t-41 -9q-38 0 -57.5 22.5t-19.5 48.5zM33 324q0 -37 12.5 -67
t34.5 -51.5t53 -33.5t67 -12t67 13t53 35t34.5 51.5t12.5 63.5q0 36 -12.5 66t-34.5 51.5t-53 33.5t-67 12t-67 -12t-53 -33t-34.5 -51t-12.5 -66zM45 323q0 33 12 60.5t33 47.5t49 31t61 11t61 -11t49 -31t33 -47.5t12 -60.5t-12 -60.5t-33 -47.5t-49 -31t-61 -11t-61 11
t-49 31t-33 47.5t-12 60.5z" />
    <glyph glyph-name="ordfeminine" unicode="&#xaa;" horiz-adv-x="219" 
d="M25 293v-27h174v27h-174zM63 505l14 -20q8 6 17 10t23 4q19 0 30.5 -11t11.5 -26v-9q-6 11 -20.5 18t-34.5 7q-34 0 -53.5 -22t-19.5 -49q0 -26 18 -48t55 -22q24 0 37 7t18 15v-19h25v122q0 27 -17.5 44.5t-49.5 17.5q-20 0 -33 -5.5t-21 -13.5zM57 407q0 17 12 31.5
t36 14.5t35.5 -14.5t12.5 -31.5q0 -17 -12 -32t-36 -15t-36 15t-12 32z" />
    <glyph glyph-name="guillemotleft" unicode="&#xab;" horiz-adv-x="234" 
d="M59 185l75 150h-35l-75 -150l75 -150h35zM144 185l75 150h-35l-75 -150l75 -150h35z" />
    <glyph glyph-name="registered" unicode="&#xae;" horiz-adv-x="355" 
d="M43 485q0 -30 10.5 -55t28.5 -43t43.5 -28t55.5 -10t55.5 10.5t43.5 29t28.5 43t10.5 52.5q0 30 -10.5 55t-28.5 42.5t-43.5 27.5t-55.5 10t-55.5 -10t-43.5 -27.5t-28.5 -42t-10.5 -54.5zM53 484q0 27 10 49.5t27 39t40.5 26t50.5 9.5t50.5 -9.5t40.5 -26t27 -39
t10 -49.5t-10 -50t-27 -39.5t-40.5 -25.5t-50.5 -9t-50.5 9t-40.5 25.5t-27 39.5t-10 50zM231 518q0 16 -10.5 27.5t-28.5 11.5h-56v-145h10v68h10l63 -68h13l-63 68h23q18 0 28.5 11.5t10.5 26.5zM220 518q0 -11 -7 -19t-21 -8h-46v56h46q13 0 20.5 -8.5t7.5 -20.5z" />
    <glyph glyph-name="macron" unicode="&#xaf;" horiz-adv-x="265" 
d="M42 378v-26h189v26h-189z" />
    <glyph glyph-name="degree" unicode="&#xb0;" horiz-adv-x="208" 
d="M104 489q-14 0 -24.5 10t-10.5 24t10.5 24.5t24.5 10.5t24.5 -10.5t10.5 -24.5t-10.5 -24t-24.5 -10zM153 523q0 20 -14.5 34.5t-34.5 14.5t-34.5 -14.5t-14.5 -34.5t14.5 -34.5t34.5 -14.5t34.5 14.5t14.5 34.5z" />
    <glyph glyph-name="twosuperior" unicode="&#xb2;" horiz-adv-x="222" 
d="M47 557l18 -13q5 8 17 19t35 11t33 -13t10 -32q0 -11 -3.5 -24t-11.5 -24l-103 -152h140v23h-96l79 119q19 27 19 58q0 26 -16.5 47t-51.5 21q-16 0 -28 -4.5t-20 -11t-13.5 -13.5t-7.5 -11z" />
    <glyph glyph-name="threesuperior" unicode="&#xb3;" horiz-adv-x="222" 
d="M179 595h-116v-23h61l-42 -41q37 -2 62.5 -28t25.5 -63q0 -42 -31.5 -67t-78.5 -25v-21q60 0 96.5 31.5t36.5 81.5q0 37 -17.5 62t-49.5 39z" />
    <glyph glyph-name="acute" unicode="&#xb4;" horiz-adv-x="215" 
d="M142 479l-90 -99l14 -14l101 89z" />
    <glyph glyph-name="paragraph" unicode="&#xb6;" horiz-adv-x="408" 
d="M322 -100h50v695h-50v-695zM17 391q0 -50 16 -87.5t44 -63t65.5 -39.5t79.5 -17v-284h50v695q-54 0 -100.5 -11.5t-81 -36t-54 -63.5t-19.5 -93zM67 391q0 42 14.5 71t37 47t50 26.5t53.5 9.5v-312q-32 2 -60 13.5t-49 31.5t-33.5 48.5t-12.5 64.5z" />
    <glyph glyph-name="periodcentered" unicode="&#xb7;" horiz-adv-x="138" 
d="M101 287q0 11 -6 21t-19 10q-12 0 -18.5 -9.5t-6.5 -21.5q0 -11 6 -21t19 -10q12 0 18.5 9.5t6.5 21.5z" />
    <glyph glyph-name="periodcentered" unicode="&#x2219;" horiz-adv-x="138" 
d="M101 287q0 11 -6 21t-19 10q-12 0 -18.5 -9.5t-6.5 -21.5q0 -11 6 -21t19 -10q12 0 18.5 9.5t6.5 21.5z" />
    <glyph glyph-name="cedilla" unicode="&#xb8;" horiz-adv-x="185" 
d="M127 -35q0 14 -1 26t-3 21h-45q2 -10 3 -22t1 -25q0 -26 -6.5 -53t-26.5 -51l39 -22q23 29 31 63t8 63z" />
    <glyph glyph-name="onesuperior" unicode="&#xb9;" horiz-adv-x="222" 
d="M128 333h22v268l-77 -77l14 -14l41 40v-217z" />
    <glyph glyph-name="ordmasculine" unicode="&#xba;" horiz-adv-x="248" 
d="M25 292v-29h200v29h-200zM219 434q0 19 -7.5 36t-20 29.5t-29.5 20t-36 7.5t-36 -7.5t-29.5 -20t-20 -29.5t-7.5 -36t7.5 -36t20 -29.5t29.5 -20t36 -7.5t36 7.5t29.5 20t20 29.5t7.5 36zM58 434q0 28 19.5 48t48.5 20q28 0 48 -20t20 -48q0 -29 -20 -49t-48 -20
q-29 0 -48.5 20t-19.5 49z" />
    <glyph glyph-name="guillemotright" unicode="&#xbb;" horiz-adv-x="235" 
d="M141 185l-75 150h-35l75 -150l-75 -150h35zM226 185l-75 150h-35l75 -150l-75 -150h35z" />
    <glyph glyph-name="onequarter" unicode="&#xbc;" horiz-adv-x="222" 
d="M128 333h22v268l-77 -77l14 -14l41 40v-217zM193 289v22h-154v-22h154zM146 101h-73l88 166h-22l-104 -189h111v-78h22v78h23v23h-23v72h-22v-72z" />
    <glyph glyph-name="onehalf" unicode="&#xbd;" horiz-adv-x="222" 
d="M128 333h22v268l-77 -77l14 -14l41 40v-217zM193 289v22h-154v-22h154zM52 228l18 -13q5 8 17 19t35 11t33 -13t10 -32q0 -11 -3.5 -24t-11.5 -24l-103 -152h140v23h-96l79 119q19 27 19 58q0 26 -16.5 47t-51.5 21q-16 0 -28 -4.5t-20 -11t-13.5 -13.5t-7.5 -11z" />
    <glyph glyph-name="threequarters" unicode="&#xbe;" horiz-adv-x="222" 
d="M193 289v22h-154v-22h154zM146 101h-73l88 166h-22l-104 -189h111v-78h22v78h23v23h-23v72h-22v-72zM179 595h-116v-23h61l-42 -41q37 -2 62.5 -28t25.5 -63q0 -42 -31.5 -67t-78.5 -25v-21q60 0 96.5 31.5t36.5 81.5q0 37 -17.5 62t-49.5 39z" />
    <glyph glyph-name="questiondown" unicode="&#xbf;" horiz-adv-x="268" 
d="M188 439q0 -11 6 -22t19 -11q12 0 18.5 10.5t6.5 22.5q0 11 -6 22t-19 11q-12 0 -18.5 -10.5t-6.5 -22.5zM70 104q0 29 9.5 58.5t30 55t51.5 45t74 29.5v87h-45v-54q-43 -12 -74.5 -33.5t-52.5 -50.5t-31 -64t-10 -73q0 -37 12 -74.5t37.5 -69.5t64.5 -55t92 -32v45
q-38 7 -67.5 25t-49.5 43t-30.5 55.5t-10.5 62.5z" />
    <glyph glyph-name="Agrave" unicode="&#xc0;" 
d="M155 703l81 -71l12 11l-73 80zM69 0l32 96h247l32 -96h54l-209 619l-160 -473h-44l-6 -50h32l-32 -96h54zM225 462l106 -316h-213z" />
    <glyph glyph-name="Aacute" unicode="&#xc1;" 
d="M261 723l-73 -80l12 -11l81 71zM69 0l32 96h247l32 -96h54l-209 619l-160 -473h-44l-6 -50h32l-32 -96h54zM225 462l106 -316h-213z" />
    <glyph glyph-name="Acircumflex" unicode="&#xc2;" 
d="M326 649l-100 50l-100 -50l15 -24l85 44l84 -44zM69 0l32 96h247l32 -96h54l-209 619l-160 -473h-44l-6 -50h32l-32 -96h54zM225 462l106 -316h-213z" />
    <glyph glyph-name="Atilde" unicode="&#xc3;" 
d="M133 632h30q1 11 11 14.5t21 3.5q12 0 19.5 -3t15.5 -7q7 -3 16 -6t24 -3q23 0 39 11.5t19 34.5h-30q-1 -7 -7.5 -12.5t-20.5 -5.5q-12 0 -20 3t-16 7l-16 6t-22 3q-26 0 -43.5 -13t-19.5 -33zM69 0l32 96h247l32 -96h54l-209 619l-160 -473h-44l-6 -50h32l-32 -96h54z
M225 462l106 -316h-213z" />
    <glyph glyph-name="Adieresis" unicode="&#xc4;" 
d="M310 657q0 11 -6 21t-19 10q-12 0 -18.5 -9.5t-6.5 -21.5q0 -11 6 -21t19 -10q12 0 18.5 9.5t6.5 21.5zM190 657q0 11 -6 21t-19 10q-12 0 -18.5 -9.5t-6.5 -21.5q0 -11 6 -21t19 -10q12 0 18.5 9.5t6.5 21.5zM69 0l32 96h247l32 -96h54l-209 619l-160 -473h-44l-6 -50
h32l-32 -96h54zM225 462l106 -316h-213z" />
    <glyph glyph-name="Aring" unicode="&#xc5;" 
d="M225 641q-11 0 -19.5 8t-8.5 19t8.5 19.5t19.5 8.5t19.5 -8.5t8.5 -19.5t-8.5 -19t-19.5 -8zM264 668q0 17 -11 28t-28 11t-28 -11t-11 -28t11 -28t28 -11t28 11t11 28zM69 0l32 96h247l32 -96h54l-209 619l-160 -473h-44l-6 -50h32l-32 -96h54zM225 462l106 -316h-213z
" />
    <glyph glyph-name="AE" unicode="&#xc6;" horiz-adv-x="575" 
d="M13 0h51l217 437h54v-249q0 -88 56.5 -140t161.5 -52v45q-37 0 -68 10t-53 28.5t-34.5 45.5t-12.5 61v251h168v50h-168v58h168v50h-246zM335 487h-30l30 60v-60z" />
    <glyph glyph-name="Ccedilla" unicode="&#xc7;" horiz-adv-x="294" 
d="M33 297q0 -39 9 -77t26 -72t43 -63t59 -49q0 -10 -2 -27.5t-7.5 -38.5t-15 -43.5t-23.5 -43.5l40 -27q15 19 24.5 40t15 42t8 40.5t4.5 35.5q25 -10 55 -15v50q-44 8 -78.5 32t-58.5 58t-36.5 75t-12.5 83t12.5 83t36.5 75t58.5 58t78.5 32v50q-57 -10 -101 -38.5
t-74 -69t-45.5 -90t-15.5 -100.5z" />
    <glyph glyph-name="Egrave" unicode="&#xc8;" horiz-adv-x="305" 
d="M89 703l81 -71l12 11l-73 80zM269 487h-168v58h168v50h-218v-108h-19v-50h19v-227q0 -58 17 -98.5t47 -66t69.5 -37.5t84.5 -12v48q-80 0 -124 40t-44 130v223h168v50z" />
    <glyph glyph-name="Eacute" unicode="&#xc9;" horiz-adv-x="305" 
d="M207 723l-73 -80l12 -11l81 71zM269 487h-168v58h168v50h-218v-108h-19v-50h19v-227q0 -58 17 -98.5t47 -66t69.5 -37.5t84.5 -12v48q-80 0 -124 40t-44 130v223h168v50z" />
    <glyph glyph-name="Ecircumflex" unicode="&#xca;" horiz-adv-x="305" 
d="M269 487h-168v58h168v50h-218v-108h-19v-50h19v-227q0 -58 17 -98.5t47 -66t69.5 -37.5t84.5 -12v48q-80 0 -124 40t-44 130v223h168v50zM260 649l-100 50l-100 -50l15 -24l85 44l84 -44z" />
    <glyph glyph-name="Edieresis" unicode="&#xcb;" horiz-adv-x="305" 
d="M128 657q0 11 -6 21t-19 10q-12 0 -18.5 -9.5t-6.5 -21.5q0 -11 6 -21t19 -10q12 0 18.5 9.5t6.5 21.5zM248 657q0 11 -6 21t-19 10q-12 0 -18.5 -9.5t-6.5 -21.5q0 -11 6 -21t19 -10q12 0 18.5 9.5t6.5 21.5zM269 487h-168v58h168v50h-218v-108h-19v-50h19v-227
q0 -58 17 -98.5t47 -66t69.5 -37.5t84.5 -12v48q-80 0 -124 40t-44 130v223h168v50z" />
    <glyph glyph-name="Igrave" unicode="&#xcc;" horiz-adv-x="168" 
d="M9 703l81 -71l12 11l-73 80zM61 0h50v595h-50v-595z" />
    <glyph glyph-name="Iacute" unicode="&#xcd;" horiz-adv-x="168" 
d="M149 723l-73 -80l12 -11l81 71zM61 0h50v595h-50v-595z" />
    <glyph glyph-name="Icircumflex" unicode="&#xce;" horiz-adv-x="168" 
d="M61 0h50v595h-50v-595zM185 649l-100 50l-100 -50l15 -24l85 44l84 -44z" />
    <glyph glyph-name="Idieresis" unicode="&#xcf;" horiz-adv-x="168" 
d="M49 657q0 11 -6 21t-19 10q-12 0 -18.5 -9.5t-6.5 -21.5q0 -11 6 -21t19 -10q12 0 18.5 9.5t6.5 21.5zM169 657q0 11 -6 21t-19 10q-12 0 -18.5 -9.5t-6.5 -21.5q0 -11 6 -21t19 -10q12 0 18.5 9.5t6.5 21.5zM61 0h50v595h-50v-595z" />
    <glyph glyph-name="Eth" unicode="&#xd0;" horiz-adv-x="403" 
d="M84 316v230q49 -6 94 -24t79 -49.5t54.5 -76t20.5 -101.5t-20 -100t-54.5 -73t-79.5 -47.5t-94 -24.5v216h106v50h-106zM34 266v-266q73 3 136.5 23.5t110.5 57t74 90t27 124.5q0 70 -26 126t-72 95t-110 59.5t-140 20.5v-280h-30v-50h30z" />
    <glyph glyph-name="Ntilde" unicode="&#xd1;" horiz-adv-x="462" 
d="M142 632h30q1 11 11 14.5t21 3.5q12 0 19.5 -3t15.5 -7q7 -3 16 -6t24 -3q23 0 39 11.5t19 34.5h-30q-1 -7 -7.5 -12.5t-20.5 -5.5q-12 0 -20 3t-16 7l-16 6t-22 3q-26 0 -43.5 -13t-19.5 -33zM43 0h50v535q29 0 65 -10t74 -27t75.5 -39t70.5 -47v-412h50v595h-50v-119
q-35 25 -76.5 47t-85.5 38t-88.5 25t-84.5 9v-595z" />
    <glyph glyph-name="Ograve" unicode="&#xd2;" horiz-adv-x="678" 
d="M257 703l81 -71l12 11l-73 80zM649 298q0 64 -24 120t-66 98t-98 66t-120 24t-120 -24t-98 -66t-66 -98t-24 -120t24 -120t66 -98t98 -66t120 -24t120 24t98 66t66 98t24 120zM81 298q0 53 20.5 100t55.5 82t82 55.5t100 20.5t100 -20.5t82 -55.5t55.5 -82t20.5 -100
t-20.5 -100t-55.5 -82t-82 -55.5t-100 -20.5t-100 20.5t-82 55.5t-55.5 82t-20.5 100z" />
    <glyph glyph-name="Oacute" unicode="&#xd3;" horiz-adv-x="678" 
d="M365 723l-73 -80l12 -11l81 71zM649 298q0 64 -24 120t-66 98t-98 66t-120 24t-120 -24t-98 -66t-66 -98t-24 -120t24 -120t66 -98t98 -66t120 -24t120 24t98 66t66 98t24 120zM81 298q0 53 20.5 100t55.5 82t82 55.5t100 20.5t100 -20.5t82 -55.5t55.5 -82t20.5 -100
t-20.5 -100t-55.5 -82t-82 -55.5t-100 -20.5t-100 20.5t-82 55.5t-55.5 82t-20.5 100z" />
    <glyph glyph-name="Ocircumflex" unicode="&#xd4;" horiz-adv-x="678" 
d="M649 298q0 64 -24 120t-66 98t-98 66t-120 24t-120 -24t-98 -66t-66 -98t-24 -120t24 -120t66 -98t98 -66t120 -24t120 24t98 66t66 98t24 120zM81 298q0 53 20.5 100t55.5 82t82 55.5t100 20.5t100 -20.5t82 -55.5t55.5 -82t20.5 -100t-20.5 -100t-55.5 -82t-82 -55.5
t-100 -20.5t-100 20.5t-82 55.5t-55.5 82t-20.5 100zM436 649l-100 50l-100 -50l15 -24l85 44l84 -44z" />
    <glyph glyph-name="Otilde" unicode="&#xd5;" horiz-adv-x="678" 
d="M232 632h30q0 9 11 13.5t22 4.5t18 -3t14.5 -6.5t17 -6.5t24.5 -3q23 0 40.5 12t17.5 34h-30q0 -7 -7 -12.5t-21 -5.5q-12 0 -20 3t-15.5 6.5t-16.5 6.5t-22 3t-24.5 -4t-20 -10.5t-13.5 -14.5t-5 -17zM649 298q0 64 -24 120t-66 98t-98 66t-120 24t-120 -24t-98 -66
t-66 -98t-24 -120t24 -120t66 -98t98 -66t120 -24t120 24t98 66t66 98t24 120zM81 298q0 53 20.5 100t55.5 82t82 55.5t100 20.5t100 -20.5t82 -55.5t55.5 -82t20.5 -100t-20.5 -100t-55.5 -82t-82 -55.5t-100 -20.5t-100 20.5t-82 55.5t-55.5 82t-20.5 100z" />
    <glyph glyph-name="Odieresis" unicode="&#xd6;" horiz-adv-x="678" 
d="M423 657q0 11 -6 21t-19 10q-12 0 -18.5 -9.5t-6.5 -21.5q0 -11 6 -21t19 -10q12 0 18.5 9.5t6.5 21.5zM303 657q0 11 -6 21t-19 10q-12 0 -18.5 -9.5t-6.5 -21.5q0 -11 6 -21t19 -10q12 0 18.5 9.5t6.5 21.5zM649 298q0 64 -24 120t-66 98t-98 66t-120 24t-120 -24
t-98 -66t-66 -98t-24 -120t24 -120t66 -98t98 -66t120 -24t120 24t98 66t66 98t24 120zM81 298q0 53 20.5 100t55.5 82t82 55.5t100 20.5t100 -20.5t82 -55.5t55.5 -82t20.5 -100t-20.5 -100t-55.5 -82t-82 -55.5t-100 -20.5t-100 20.5t-82 55.5t-55.5 82t-20.5 100z" />
    <glyph glyph-name="multiply" unicode="&#xd7;" horiz-adv-x="361" 
d="M67 413l-33 -22l123 -183l-125 -185l33 -23l117 173l117 -173l34 21l-126 188l123 183l-34 21l-114 -171z" />
    <glyph glyph-name="Oslash" unicode="&#xd8;" horiz-adv-x="678" 
d="M450 632l-16 -40q-47 14 -93 14q-64 0 -120 -24t-98 -66t-66 -98t-24 -120q0 -45 12.5 -87t35 -77.5t53.5 -63.5t69 -47l-20 -49l46 -18l19 48q47 -14 93 -14q64 0 120 24t98 66t66 98t24 120q0 45 -12.5 87t-35 77.5t-54 64t-68.5 46.5l17 41zM267 50l193 475
q62 -33 99.5 -93.5t37.5 -133.5q0 -53 -20.5 -100t-55.5 -82t-82 -55.5t-100 -20.5q-39 0 -72 10zM339 556q38 0 76 -11l-194 -476q-31 16 -57 40t-44.5 53.5t-28.5 64t-10 71.5q0 53 20.5 100t55.5 82t82 55.5t100 20.5z" />
    <glyph glyph-name="Ugrave" unicode="&#xd9;" horiz-adv-x="371" 
d="M115 703l81 -71l12 11l-73 80zM99 595h-50v-456q0 -71 37 -108.5t105 -37.5t105 37.5t37 108.5v456h-50v-456q0 -96 -92 -96t-92 96v456z" />
    <glyph glyph-name="Uacute" unicode="&#xda;" horiz-adv-x="371" 
d="M251 723l-73 -80l12 -11l81 71zM99 595h-50v-456q0 -71 37 -108.5t105 -37.5t105 37.5t37 108.5v456h-50v-456q0 -96 -92 -96t-92 96v456z" />
    <glyph glyph-name="Ucircumflex" unicode="&#xdb;" horiz-adv-x="371" 
d="M99 595h-50v-456q0 -71 37 -108.5t105 -37.5t105 37.5t37 108.5v456h-50v-456q0 -96 -92 -96t-92 96v456zM282 649l-100 50l-100 -50l15 -24l85 44l84 -44z" />
    <glyph glyph-name="Udieresis" unicode="&#xdc;" horiz-adv-x="371" 
d="M154 657q0 11 -6 21t-19 10q-12 0 -18.5 -9.5t-6.5 -21.5q0 -11 6 -21t19 -10q12 0 18.5 9.5t6.5 21.5zM274 657q0 11 -6 21t-19 10q-12 0 -18.5 -9.5t-6.5 -21.5q0 -11 6 -21t19 -10q12 0 18.5 9.5t6.5 21.5zM99 595h-50v-456q0 -71 37 -108.5t105 -37.5t105 37.5
t37 108.5v456h-50v-456q0 -96 -92 -96t-92 96v456z" />
    <glyph glyph-name="Yacute" unicode="&#xdd;" horiz-adv-x="375" 
d="M190 474l-114 121h-68l157 -168v-427h50v427l157 168h-69zM252 723l-73 -80l12 -11l81 71z" />
    <glyph glyph-name="Thorn" unicode="&#xde;" horiz-adv-x="315" 
d="M41 0h50v104q42 4 79.5 20t65.5 42t44 62.5t16 81.5t-14.5 80.5t-41.5 61t-65 41t-84 20.5v83h-50v-596zM246 310q0 -72 -44 -111t-111 -46v314q32 -3 60 -14.5t49 -31t33.5 -47.5t12.5 -64z" />
    <glyph glyph-name="germandbls" unicode="&#xdf;" horiz-adv-x="390" 
d="M190 600q-65 0 -98.5 -40t-33.5 -104v-131h-25v-45h25v-280h45v455q0 49 21 74.5t66 25.5q52 0 76 -28.5t24 -76.5q0 -19 -5.5 -38.5t-20 -35.5t-39 -26t-62.5 -10v-41q45 0 75.5 -11t49.5 -29t27 -41t8 -48t-10 -47.5t-30 -40t-49 -27.5t-67 -10v-45q38 0 74 9.5
t64.5 30t45.5 52.5t17 78q0 37 -10.5 64t-27 45.5t-37 28.5t-40.5 14q32 11 57 41.5t25 88.5q0 31 -10 58t-29 47t-45.5 31.5t-60.5 11.5z" />
    <glyph glyph-name="agrave" unicode="&#xe0;" horiz-adv-x="342" 
d="M112 469l101 -89l14 14l-90 99zM81 298l27 -36q14 11 29.5 18t41.5 7q35 0 56.5 -19.5t21.5 -47.5v-16q-12 20 -38 32.5t-62 12.5q-31 0 -55.5 -11t-42 -29t-26.5 -41t-9 -47t8.5 -46.5t25 -40.5t41.5 -29t58 -11q43 0 66.5 13.5t33.5 27.5v-35h45v221q0 48 -32 79.5
t-91 31.5q-37 0 -60.5 -10t-37.5 -24zM71 121q0 16 5.5 31t16.5 27t27 19t38 7t38 -7t27 -19t16.5 -27t5.5 -31t-5.5 -31t-16.5 -27t-27 -19t-38 -7t-38 7.5t-27 19.5t-16.5 27t-5.5 30z" />
    <glyph glyph-name="aacute" unicode="&#xe1;" horiz-adv-x="342" 
d="M252 479l-90 -99l14 -14l101 89zM81 298l27 -36q14 11 29.5 18t41.5 7q35 0 56.5 -19.5t21.5 -47.5v-16q-12 20 -38 32.5t-62 12.5q-31 0 -55.5 -11t-42 -29t-26.5 -41t-9 -47t8.5 -46.5t25 -40.5t41.5 -29t58 -11q43 0 66.5 13.5t33.5 27.5v-35h45v221q0 48 -32 79.5
t-91 31.5q-37 0 -60.5 -10t-37.5 -24zM71 121q0 16 5.5 31t16.5 27t27 19t38 7t38 -7t27 -19t16.5 -27t5.5 -31t-5.5 -31t-16.5 -27t-27 -19t-38 -7t-38 7.5t-27 19.5t-16.5 27t-5.5 30z" />
    <glyph glyph-name="acircumflex" unicode="&#xe2;" horiz-adv-x="342" 
d="M198 419l85 -45l15 24l-100 50l-97 -49l13 -21zM81 298l27 -36q14 11 29.5 18t41.5 7q35 0 56.5 -19.5t21.5 -47.5v-16q-12 20 -38 32.5t-62 12.5q-31 0 -55.5 -11t-42 -29t-26.5 -41t-9 -47t8.5 -46.5t25 -40.5t41.5 -29t58 -11q43 0 66.5 13.5t33.5 27.5v-35h45v221
q0 48 -32 79.5t-91 31.5q-37 0 -60.5 -10t-37.5 -24zM71 121q0 16 5.5 31t16.5 27t27 19t38 7t38 -7t27 -19t16.5 -27t5.5 -31t-5.5 -31t-16.5 -27t-27 -19t-38 -7t-38 7.5t-27 19.5t-16.5 27t-5.5 30z" />
    <glyph glyph-name="atilde" unicode="&#xe3;" horiz-adv-x="342" 
d="M94 388h30q1 11 11 14.5t21 3.5q12 0 19.5 -3t15.5 -7q7 -3 16 -6t24 -3q23 0 39 11.5t19 34.5h-30q-1 -7 -7.5 -12.5t-20.5 -5.5q-12 0 -20 3t-16 7l-16 6t-22 3q-26 0 -43.5 -13t-19.5 -33zM81 298l27 -36q14 11 29.5 18t41.5 7q35 0 56.5 -19.5t21.5 -47.5v-16
q-12 20 -38 32.5t-62 12.5q-31 0 -55.5 -11t-42 -29t-26.5 -41t-9 -47t8.5 -46.5t25 -40.5t41.5 -29t58 -11q43 0 66.5 13.5t33.5 27.5v-35h45v221q0 48 -32 79.5t-91 31.5q-37 0 -60.5 -10t-37.5 -24zM71 121q0 16 5.5 31t16.5 27t27 19t38 7t38 -7t27 -19t16.5 -27
t5.5 -31t-5.5 -31t-16.5 -27t-27 -19t-38 -7t-38 7.5t-27 19.5t-16.5 27t-5.5 30z" />
    <glyph glyph-name="adieresis" unicode="&#xe4;" horiz-adv-x="342" 
d="M276 407q0 11 -6 21t-19 10q-12 0 -18.5 -9.5t-6.5 -21.5q0 -11 6 -21t19 -10q12 0 18.5 9.5t6.5 21.5zM156 407q0 11 -6 21t-19 10q-12 0 -18.5 -9.5t-6.5 -21.5q0 -11 6 -21t19 -10q12 0 18.5 9.5t6.5 21.5zM81 298l27 -36q14 11 29.5 18t41.5 7q35 0 56.5 -19.5
t21.5 -47.5v-16q-12 20 -38 32.5t-62 12.5q-31 0 -55.5 -11t-42 -29t-26.5 -41t-9 -47t8.5 -46.5t25 -40.5t41.5 -29t58 -11q43 0 66.5 13.5t33.5 27.5v-35h45v221q0 48 -32 79.5t-91 31.5q-37 0 -60.5 -10t-37.5 -24zM71 121q0 16 5.5 31t16.5 27t27 19t38 7t38 -7t27 -19
t16.5 -27t5.5 -31t-5.5 -31t-16.5 -27t-27 -19t-38 -7t-38 7.5t-27 19.5t-16.5 27t-5.5 30z" />
    <glyph glyph-name="aring" unicode="&#xe5;" horiz-adv-x="342" 
d="M198 383q-14 0 -24.5 10t-10.5 24t10.5 24.5t24.5 10.5t24.5 -10.5t10.5 -24.5t-10.5 -24t-24.5 -10zM247 417q0 20 -14.5 34.5t-34.5 14.5t-34.5 -14.5t-14.5 -34.5t14.5 -34.5t34.5 -14.5t34.5 14.5t14.5 34.5zM81 298l27 -36q14 11 29.5 18t41.5 7q35 0 56.5 -19.5
t21.5 -47.5v-16q-12 20 -38 32.5t-62 12.5q-31 0 -55.5 -11t-42 -29t-26.5 -41t-9 -47t8.5 -46.5t25 -40.5t41.5 -29t58 -11q43 0 66.5 13.5t33.5 27.5v-35h45v221q0 48 -32 79.5t-91 31.5q-37 0 -60.5 -10t-37.5 -24zM71 121q0 16 5.5 31t16.5 27t27 19t38 7t38 -7t27 -19
t16.5 -27t5.5 -31t-5.5 -31t-16.5 -27t-27 -19t-38 -7t-38 7.5t-27 19.5t-16.5 27t-5.5 30z" />
    <glyph glyph-name="ae" unicode="&#xe6;" horiz-adv-x="567" 
d="M431 332q-48 0 -81.5 -17.5t-53.5 -46.5q-11 32 -41 52t-76 20q-37 0 -60.5 -10t-37.5 -24l27 -36q14 11 29.5 18t41.5 7q35 0 56.5 -19.5t21.5 -47.5v-24q-12 20 -38 32.5t-62 12.5q-31 0 -55.5 -11t-42 -29t-26.5 -41t-9 -47t8.5 -46.5t25 -40.5t41.5 -29t58 -11
q43 0 66.5 13.5t33.5 27.5v-35h45v47q18 -20 44 -34t61 -19v46q-30 5 -53.5 24t-37.5 50l242 166q-21 23 -52.5 37.5t-74.5 14.5zM71 121q0 16 5.5 31t16.5 27t27 19t38 7t38 -7t27 -19t16.5 -27t5.5 -31t-5.5 -31t-16.5 -27t-27 -19t-38 -7t-38 7.5t-27 19.5t-16.5 27
t-5.5 30zM478 279l-170 -117q0 29 10.5 52.5t28 39.5t39.5 24.5t45 8.5q21 0 47 -8z" />
    <glyph glyph-name="ccedilla" unicode="&#xe7;" horiz-adv-x="197" 
d="M35 163q0 -39 14 -74t44 -59q2 -8 2 -30q0 -21 -5.5 -48.5t-22.5 -53.5l30 -18q21 25 27 55t6 51v14q0 5 -1 8q8 -3 17 -6t19 -5v46q-43 14 -63.5 48t-20.5 72t21 71.5t63 46.5v47q-32 -6 -56 -21.5t-40.5 -38t-25 -49.5t-8.5 -56z" />
    <glyph glyph-name="egrave" unicode="&#xe8;" horiz-adv-x="331" 
d="M104 469l101 -89l14 14l-90 99zM24 160q0 -30 8.5 -57.5t26.5 -50t45.5 -38t64.5 -20.5v46q-30 5 -53.5 24t-37.5 50l242 166q-21 23 -52.5 37.5t-74.5 14.5q-42 0 -73.5 -14.5t-53 -38.5t-32 -55t-10.5 -64zM240 279l-170 -117q0 29 10.5 52.5t28 39.5t39.5 24.5t45 8.5
q21 0 47 -8z" />
    <glyph glyph-name="eacute" unicode="&#xe9;" horiz-adv-x="331" 
d="M250 479l-90 -99l14 -14l101 89zM24 160q0 -30 8.5 -57.5t26.5 -50t45.5 -38t64.5 -20.5v46q-30 5 -53.5 24t-37.5 50l242 166q-21 23 -52.5 37.5t-74.5 14.5q-42 0 -73.5 -14.5t-53 -38.5t-32 -55t-10.5 -64zM240 279l-170 -117q0 29 10.5 52.5t28 39.5t39.5 24.5
t45 8.5q21 0 47 -8z" />
    <glyph glyph-name="ecircumflex" unicode="&#xea;" horiz-adv-x="331" 
d="M184 419l85 -45l15 24l-100 50l-97 -49l13 -21zM24 160q0 -30 8.5 -57.5t26.5 -50t45.5 -38t64.5 -20.5v46q-30 5 -53.5 24t-37.5 50l242 166q-21 23 -52.5 37.5t-74.5 14.5q-42 0 -73.5 -14.5t-53 -38.5t-32 -55t-10.5 -64zM240 279l-170 -117q0 29 10.5 52.5t28 39.5
t39.5 24.5t45 8.5q21 0 47 -8z" />
    <glyph glyph-name="edieresis" unicode="&#xeb;" horiz-adv-x="331" 
d="M278 407q0 11 -6 21t-19 10q-12 0 -18.5 -9.5t-6.5 -21.5q0 -11 6 -21t19 -10q12 0 18.5 9.5t6.5 21.5zM158 407q0 11 -6 21t-19 10q-12 0 -18.5 -9.5t-6.5 -21.5q0 -11 6 -21t19 -10q12 0 18.5 9.5t6.5 21.5zM24 160q0 -30 8.5 -57.5t26.5 -50t45.5 -38t64.5 -20.5v46
q-30 5 -53.5 24t-37.5 50l242 166q-21 23 -52.5 37.5t-74.5 14.5q-42 0 -73.5 -14.5t-53 -38.5t-32 -55t-10.5 -64zM240 279l-170 -117q0 29 10.5 52.5t28 39.5t39.5 24.5t45 8.5q21 0 47 -8z" />
    <glyph glyph-name="igrave" unicode="&#xec;" horiz-adv-x="175" 
d="M-12 469l101 -89l14 14l-90 99zM67 0h45v325h-45v-325z" />
    <glyph glyph-name="iacute" unicode="&#xed;" horiz-adv-x="175" 
d="M164 479l-90 -99l14 -14l101 89zM67 0h45v325h-45v-325z" />
    <glyph glyph-name="icircumflex" unicode="&#xee;" horiz-adv-x="175" 
d="M82 419l85 -45l15 24l-100 50l-97 -49l13 -21zM67 0h45v325h-45v-325z" />
    <glyph glyph-name="idieresis" unicode="&#xef;" horiz-adv-x="175" 
d="M168 407q0 11 -6 21t-19 10q-12 0 -18.5 -9.5t-6.5 -21.5q0 -11 6 -21t19 -10q12 0 18.5 9.5t6.5 21.5zM48 407q0 11 -6 21t-19 10q-12 0 -18.5 -9.5t-6.5 -21.5q0 -11 6 -21t19 -10q12 0 18.5 9.5t6.5 21.5zM67 0h45v325h-45v-325z" />
    <glyph glyph-name="eth" unicode="&#xf0;" horiz-adv-x="388" 
d="M320 163q0 -26 -10 -48.5t-26.5 -39t-39.5 -26.5t-48 -10q-26 0 -48.5 10t-39 26.5t-26.5 39t-10 48.5q0 25 10 48t26.5 39.5t39 26.5t48.5 10q25 0 48 -10t39.5 -26.5t26.5 -39.5t10 -48zM223 484q19 -20 36 -45t29.5 -51.5t19.5 -53.5t7 -51q-23 23 -53.5 36t-65.5 13
t-65.5 -13.5t-53.5 -36.5t-36.5 -53.5t-13.5 -65.5t13.5 -65.5t36.5 -53.5t53.5 -36.5t65.5 -13.5t66 14.5t54.5 38.5t37 56t13.5 67q0 78 -8 132.5t-23 93.5t-35.5 67t-45.5 53l58 58l-31 31l-62 -61q-34 23 -69.5 40.5t-80.5 17.5v-45q35 0 62.5 -14t54.5 -32l-60 -60
l31 -31z" />
    <glyph glyph-name="ntilde" unicode="&#xf1;" horiz-adv-x="376" 
d="M92 388h30q1 11 11 14.5t21 3.5q12 0 19.5 -3t15.5 -7q7 -3 16 -6t24 -3q23 0 39 11.5t19 34.5h-30q-1 -7 -7.5 -12.5t-20.5 -5.5q-12 0 -20 3t-16 7l-16 6t-22 3q-26 0 -43.5 -13t-19.5 -33zM193 332q-51 0 -76.5 -14.5t-35.5 -30.5v38h-45v-325h45v193q0 15 5.5 31.5
t19 30.5t34.5 23t53 9q56 0 82 -24.5t26 -63.5v-199h45v211q0 52 -39 86.5t-114 34.5z" />
    <glyph glyph-name="ograve" unicode="&#xf2;" horiz-adv-x="388" 
d="M110 469l101 -89l14 14l-90 99zM72 163q0 25 10 48t26.5 39.5t39 26.5t48.5 10q25 0 48 -10t39.5 -26.5t26.5 -39.5t10 -48q0 -26 -10 -48.5t-26.5 -39t-39.5 -26.5t-48 -10q-26 0 -48.5 10t-39 26.5t-26.5 39t-10 48.5zM365 163q0 35 -13.5 65.5t-36.5 53.5t-53.5 36.5
t-65.5 13.5t-65.5 -13.5t-53.5 -36.5t-36.5 -53.5t-13.5 -65.5t13.5 -65.5t36.5 -53.5t53.5 -36.5t65.5 -13.5t65.5 13.5t53.5 36.5t36.5 53.5t13.5 65.5z" />
    <glyph glyph-name="oacute" unicode="&#xf3;" horiz-adv-x="388" 
d="M284 479l-90 -99l14 -14l101 89zM72 163q0 25 10 48t26.5 39.5t39 26.5t48.5 10q25 0 48 -10t39.5 -26.5t26.5 -39.5t10 -48q0 -26 -10 -48.5t-26.5 -39t-39.5 -26.5t-48 -10q-26 0 -48.5 10t-39 26.5t-26.5 39t-10 48.5zM365 163q0 35 -13.5 65.5t-36.5 53.5t-53.5 36.5
t-65.5 13.5t-65.5 -13.5t-53.5 -36.5t-36.5 -53.5t-13.5 -65.5t13.5 -65.5t36.5 -53.5t53.5 -36.5t65.5 -13.5t65.5 13.5t53.5 36.5t36.5 53.5t13.5 65.5z" />
    <glyph glyph-name="ocircumflex" unicode="&#xf4;" horiz-adv-x="388" 
d="M200 419l85 -45l15 24l-100 50l-97 -49l13 -21zM72 163q0 25 10 48t26.5 39.5t39 26.5t48.5 10q25 0 48 -10t39.5 -26.5t26.5 -39.5t10 -48q0 -26 -10 -48.5t-26.5 -39t-39.5 -26.5t-48 -10q-26 0 -48.5 10t-39 26.5t-26.5 39t-10 48.5zM365 163q0 35 -13.5 65.5
t-36.5 53.5t-53.5 36.5t-65.5 13.5t-65.5 -13.5t-53.5 -36.5t-36.5 -53.5t-13.5 -65.5t13.5 -65.5t36.5 -53.5t53.5 -36.5t65.5 -13.5t65.5 13.5t53.5 36.5t36.5 53.5t13.5 65.5z" />
    <glyph glyph-name="otilde" unicode="&#xf5;" horiz-adv-x="388" 
d="M103 388h30q1 11 11 14.5t21 3.5q12 0 19.5 -3t15.5 -7q7 -3 16 -6t24 -3q23 0 39 11.5t19 34.5h-30q-1 -7 -7.5 -12.5t-20.5 -5.5q-12 0 -20 3t-16 7l-16 6t-22 3q-26 0 -43.5 -13t-19.5 -33zM72 163q0 25 10 48t26.5 39.5t39 26.5t48.5 10q25 0 48 -10t39.5 -26.5
t26.5 -39.5t10 -48q0 -26 -10 -48.5t-26.5 -39t-39.5 -26.5t-48 -10q-26 0 -48.5 10t-39 26.5t-26.5 39t-10 48.5zM365 163q0 35 -13.5 65.5t-36.5 53.5t-53.5 36.5t-65.5 13.5t-65.5 -13.5t-53.5 -36.5t-36.5 -53.5t-13.5 -65.5t13.5 -65.5t36.5 -53.5t53.5 -36.5
t65.5 -13.5t65.5 13.5t53.5 36.5t36.5 53.5t13.5 65.5z" />
    <glyph glyph-name="odieresis" unicode="&#xf6;" horiz-adv-x="388" 
d="M289 407q0 11 -6 21t-19 10q-12 0 -18.5 -9.5t-6.5 -21.5q0 -11 6 -21t19 -10q12 0 18.5 9.5t6.5 21.5zM169 407q0 11 -6 21t-19 10q-12 0 -18.5 -9.5t-6.5 -21.5q0 -11 6 -21t19 -10q12 0 18.5 9.5t6.5 21.5zM72 163q0 25 10 48t26.5 39.5t39 26.5t48.5 10q25 0 48 -10
t39.5 -26.5t26.5 -39.5t10 -48q0 -26 -10 -48.5t-26.5 -39t-39.5 -26.5t-48 -10q-26 0 -48.5 10t-39 26.5t-26.5 39t-10 48.5zM365 163q0 35 -13.5 65.5t-36.5 53.5t-53.5 36.5t-65.5 13.5t-65.5 -13.5t-53.5 -36.5t-36.5 -53.5t-13.5 -65.5t13.5 -65.5t36.5 -53.5
t53.5 -36.5t65.5 -13.5t65.5 13.5t53.5 36.5t36.5 53.5t13.5 65.5z" />
    <glyph glyph-name="divide" unicode="&#xf7;" horiz-adv-x="345" 
d="M291 210v35h-242v-35h242zM197 112q0 11 -6 21t-19 10q-12 0 -18.5 -9.5t-6.5 -21.5q0 -11 6 -21t19 -10q12 0 18.5 9.5t6.5 21.5zM197 345q0 11 -6 21t-19 10q-12 0 -18.5 -9.5t-6.5 -21.5q0 -11 6 -21t19 -10q12 0 18.5 9.5t6.5 21.5z" />
    <glyph glyph-name="oslash" unicode="&#xf8;" horiz-adv-x="388" 
d="M27 163q0 -48 24 -87t63 -61l-14 -33l38 -15l14 33q21 -6 44 -6q35 0 65.5 13.5t53.5 36.5t36.5 53.5t13.5 65.5q0 48 -23.5 86.5t-62.5 60.5l12 29l-38 15l-11 -28q-23 6 -46 6q-35 0 -65.5 -13.5t-53.5 -36.5t-36.5 -53.5t-13.5 -65.5zM196 39q-14 0 -27 3l93 226
q26 -17 42 -44.5t16 -60.5q0 -26 -10 -48.5t-26.5 -39t-39.5 -26.5t-48 -10zM224 284l-93 -226q-26 17 -42.5 44.5t-16.5 60.5q0 25 10 48t26.5 39.5t39 26.5t48.5 10q14 0 28 -3z" />
    <glyph glyph-name="ugrave" unicode="&#xf9;" horiz-adv-x="372" 
d="M80 469l101 -89l14 14l-90 99zM37 325v-204q0 -27 9 -50.5t27 -41.5t46.5 -28t67.5 -10t67.5 10.5t46.5 28t27 41t9 50.5v204h-45v-188q0 -54 -27.5 -77.5t-77.5 -23.5t-77.5 23.5t-27.5 77.5v188h-45z" />
    <glyph glyph-name="uacute" unicode="&#xfa;" horiz-adv-x="372" 
d="M268 479l-90 -99l14 -14l101 89zM37 325v-204q0 -27 9 -50.5t27 -41.5t46.5 -28t67.5 -10t67.5 10.5t46.5 28t27 41t9 50.5v204h-45v-188q0 -54 -27.5 -77.5t-77.5 -23.5t-77.5 23.5t-27.5 77.5v188h-45z" />
    <glyph glyph-name="ucircumflex" unicode="&#xfb;" horiz-adv-x="372" 
d="M187 419l85 -45l15 24l-100 50l-97 -49l13 -21zM37 325v-204q0 -27 9 -50.5t27 -41.5t46.5 -28t67.5 -10t67.5 10.5t46.5 28t27 41t9 50.5v204h-45v-188q0 -54 -27.5 -77.5t-77.5 -23.5t-77.5 23.5t-27.5 77.5v188h-45z" />
    <glyph glyph-name="udieresis" unicode="&#xfc;" horiz-adv-x="372" 
d="M268 407q0 11 -6 21t-19 10q-12 0 -18.5 -9.5t-6.5 -21.5q0 -11 6 -21t19 -10q12 0 18.5 9.5t6.5 21.5zM148 407q0 11 -6 21t-19 10q-12 0 -18.5 -9.5t-6.5 -21.5q0 -11 6 -21t19 -10q12 0 18.5 9.5t6.5 21.5zM37 325v-204q0 -27 9 -50.5t27 -41.5t46.5 -28t67.5 -10
t67.5 10.5t46.5 28t27 41t9 50.5v204h-45v-188q0 -54 -27.5 -77.5t-77.5 -23.5t-77.5 23.5t-27.5 77.5v188h-45z" />
    <glyph glyph-name="yacute" unicode="&#xfd;" horiz-adv-x="286" 
d="M70 325h-47l105 -280l-132 -353h47l238 633h-47l-82 -217zM222 479l-90 -99l14 -14l101 89z" />
    <glyph glyph-name="thorn" unicode="&#xfe;" horiz-adv-x="425" 
d="M233 332q-42 0 -78 -19t-59 -51v367h-45v-938h45v373q23 -32 59 -51t78 -19q35 0 65.5 13.5t53.5 36.5t36.5 53.5t13.5 65.5t-13.5 65.5t-36.5 53.5t-53.5 36.5t-65.5 13.5zM109 163q0 25 10 48t26.5 39.5t39 26.5t48.5 10q25 0 48 -10t39.5 -26.5t26.5 -39.5t10 -48
q0 -26 -10 -48.5t-26.5 -39t-39.5 -26.5t-48 -10q-26 0 -48.5 10t-39 26.5t-26.5 39t-10 48.5z" />
    <glyph glyph-name="ydieresis" unicode="&#xff;" horiz-adv-x="286" 
d="M240 407q0 11 -6 21t-19 10q-12 0 -18.5 -9.5t-6.5 -21.5q0 -11 6 -21t19 -10q12 0 18.5 9.5t6.5 21.5zM120 407q0 11 -6 21t-19 10q-12 0 -18.5 -9.5t-6.5 -21.5q0 -11 6 -21t19 -10q12 0 18.5 9.5t6.5 21.5zM70 325h-47l105 -280l-132 -353h47l238 633h-47l-82 -217z
" />
    <glyph glyph-name="OE" unicode="&#x152;" horiz-adv-x="888" 
d="M639 220v-10q0 -58 17 -98.5t47 -66t69.5 -37.5t84.5 -12v48q-80 0 -124 40t-44 130v223h168v50h-168v58h168v50h-218v-108h-19v-50h19v-61q-13 49 -41 91.5t-67 73t-87.5 48t-102.5 17.5q-64 0 -120 -24t-98 -66t-66 -98t-24 -120t24 -120t66 -98t98 -66t120 -24
q54 0 102.5 17.5t87.5 48t67 72.5t41 92zM81 298q0 53 20.5 100t55.5 82t82 55.5t100 20.5t100 -20.5t82 -55.5t55.5 -82t20.5 -100t-20.5 -100t-55.5 -82t-82 -55.5t-100 -20.5t-100 20.5t-82 55.5t-55.5 82t-20.5 100z" />
    <glyph glyph-name="oe" unicode="&#x153;" horiz-adv-x="610" 
d="M72 163q0 25 10 48t26.5 39.5t39 26.5t48.5 10q25 0 48 -10t39.5 -26.5t26.5 -39.5t10 -48q0 -26 -10 -48.5t-26.5 -39t-39.5 -26.5t-48 -10q-26 0 -48.5 10t-39 26.5t-26.5 39t-10 48.5zM196 -6q46 0 84 22.5t61 59.5q17 -32 48 -54t77 -28v46q-30 5 -53.5 24t-37.5 50
l242 166q-21 23 -52.5 37.5t-74.5 14.5q-55 0 -91.5 -23.5t-56.5 -60.5q-23 38 -61 61t-85 23q-35 0 -65.5 -13.5t-53.5 -36.5t-36.5 -53.5t-13.5 -65.5t13.5 -65.5t36.5 -53.5t53.5 -36.5t65.5 -13.5zM537 279l-170 -117q0 29 10.5 52.5t28 39.5t39.5 24.5t45 8.5
q21 0 47 -8z" />
    <glyph glyph-name="Scaron" unicode="&#x160;" horiz-adv-x="282" 
d="M251 675l-16 24l-84 -44l-85 44l-15 -24l100 -50zM177 332q-19 14 -34.5 26.5t-26 25.5t-16 27.5t-5.5 32.5q0 56 27 80t75 29v50q-68 -5 -110 -43.5t-42 -115.5q0 -27 8 -48t21 -37.5t29.5 -30.5t33.5 -26q35 -25 54.5 -53.5t19.5 -71.5q0 -30 -13 -53.5t-36 -40.5
t-55 -27.5t-70 -14.5v-51q42 4 82.5 16.5t72 35t50.5 56t19 79.5q0 54 -23 90t-61 65z" />
    <glyph glyph-name="scaron" unicode="&#x161;" horiz-adv-x="208" 
d="M130 187q-17 15 -31.5 29t-14.5 31q0 20 13.5 27.5t37.5 12.5v45q-40 -4 -68 -23t-28 -62q0 -30 17 -50t36 -37q17 -16 31 -31t14 -36q0 -15 -9 -26t-23.5 -17.5t-32.5 -10t-37 -3.5v-45q30 0 57 6.5t47 19t31.5 31.5t11.5 45q0 32 -16 54t-36 40zM108 401l-85 44
l-15 -24l100 -50l100 50l-16 24z" />
    <glyph glyph-name="Ydieresis" unicode="&#x178;" horiz-adv-x="375" 
d="M154 657q0 11 -6 21t-19 10q-12 0 -18.5 -9.5t-6.5 -21.5q0 -11 6 -21t19 -10q12 0 18.5 9.5t6.5 21.5zM274 657q0 11 -6 21t-19 10q-12 0 -18.5 -9.5t-6.5 -21.5q0 -11 6 -21t19 -10q12 0 18.5 9.5t6.5 21.5zM190 474l-114 121h-68l157 -168v-427h50v427l157 168h-69z
" />
    <glyph glyph-name="florin" unicode="&#x192;" horiz-adv-x="534" 
d="M478 415h-416v-415h416v415z" />
    <glyph glyph-name="circumflex" unicode="&#x2c6;" horiz-adv-x="280" 
d="M144 419l85 -45l15 24l-100 50l-97 -49l13 -21z" />
    <glyph glyph-name="tilde" unicode="&#x2dc;" horiz-adv-x="300" 
d="M59 388h30q1 11 11 14.5t21 3.5q12 0 19.5 -3t15.5 -7q7 -3 16 -6t24 -3q23 0 39 11.5t19 34.5h-30q-1 -7 -7.5 -12.5t-20.5 -5.5q-12 0 -20 3t-16 7l-16 6t-22 3q-26 0 -43.5 -13t-19.5 -33z" />
    <glyph glyph-name="endash" unicode="&#x2013;" horiz-adv-x="370" 
d="M341 210v35h-302v-35h302z" />
    <glyph glyph-name="emdash" unicode="&#x2014;" horiz-adv-x="595" 
d="M546 210v36h-482v-36h482z" />
    <glyph glyph-name="quoteleft" unicode="&#x2018;" horiz-adv-x="118" 
d="M37 615l-19 -10l60 -110l19 10z" />
    <glyph glyph-name="quoteright" unicode="&#x2019;" horiz-adv-x="118" 
d="M98 605l-19 10l-60 -110l19 -10z" />
    <glyph glyph-name="quotesinglbase" unicode="&#x201a;" horiz-adv-x="120" 
d="M19 -1l20 -9l59 110l-19 10z" />
    <glyph glyph-name="quotedblleft" unicode="&#x201c;" horiz-adv-x="182" 
d="M100 615l-19 -10l60 -110l19 10zM34 615l-19 -10l60 -110l19 10z" />
    <glyph glyph-name="quotedblright" unicode="&#x201d;" horiz-adv-x="182" 
d="M98 605l-19 10l-60 -110l19 -10zM164 605l-19 10l-60 -110l19 -10z" />
    <glyph glyph-name="quotedblbase" unicode="&#x201e;" horiz-adv-x="185" 
d="M19 -1l20 -9l59 110l-19 10zM85 -1l20 -9l59 110l-19 10z" />
    <glyph glyph-name="dagger" unicode="&#x2020;" horiz-adv-x="164" 
d="M94 623h-15v-92h-45v-15h45v-353h15v353h45v15h-45v92z" />
    <glyph glyph-name="daggerdbl" unicode="&#x2021;" horiz-adv-x="160" 
d="M39 502h40v-115h-40v-15h40v-289h15v289h40v15h-40v115h40v15h-40v106h-15v-106h-40v-15z" />
    <glyph glyph-name="bullet" unicode="&#x2022;" horiz-adv-x="290" 
d="M146 111q27 0 47.5 9.5t34 25.5t20.5 35.5t7 40.5t-7 41t-20.5 35.5t-34 25t-47.5 9.5t-47.5 -9.5t-34 -25.5t-20.5 -35.5t-7 -40.5t7 -41t20.5 -35.5t34 -25t47.5 -9.5z" />
    <glyph glyph-name="ellipsis" unicode="&#x2026;" horiz-adv-x="365" 
d="M91 30q0 11 -6 21t-19 10q-12 0 -18.5 -9.5t-6.5 -21.5q0 -11 6 -21t19 -10q12 0 18.5 9.5t6.5 21.5zM212 30q0 11 -6 21t-19 10q-12 0 -18.5 -9.5t-6.5 -21.5q0 -11 6 -21t19 -10q12 0 18.5 9.5t6.5 21.5zM333 30q0 11 -6 21t-19 10q-12 0 -18.5 -9.5t-6.5 -21.5
q0 -11 6 -21t19 -10q12 0 18.5 9.5t6.5 21.5z" />
    <glyph glyph-name="perthousand" unicode="&#x2030;" horiz-adv-x="305" 
d="M294 390q0 51 -18.5 89t-52 63.5t-80 38.5t-103.5 15v-596h52v166q12 -44 29.5 -81.5t44 -70t62.5 -60.5t86 -53v54q-80 42 -121.5 105.5t-60.5 134.5q33 7 62.5 22t51.5 38t35 56.5t13 78.5zM246 390q0 -72 -44 -111t-111 -46v314q32 -3 60 -14.5t49 -31t33.5 -47.5
t12.5 -64z" />
    <glyph glyph-name="guilsinglleft" unicode="&#x2039;" horiz-adv-x="160" 
d="M59 185l75 150h-35l-75 -150l75 -150h35z" />
    <glyph glyph-name="guilsinglright" unicode="&#x203a;" horiz-adv-x="155" 
d="M136 185l-75 150h-35l75 -150l-75 -150h35z" />
    <glyph glyph-name="trademark" unicode="&#x2122;" horiz-adv-x="330" 
d="M145 602h-107v-6h50v-151h7v151h50v6zM175 604l-35 -158h7l29 135l49 -143l49 143l28 -135h7l-33 158l-51 -145z" />
    <glyph glyph-name="NUL" unicode="&#xe000;" horiz-adv-x="0" 
 />
    <glyph glyph-name="HT" unicode="&#xe001;" horiz-adv-x="0" 
 />
    <glyph glyph-name="minus" unicode="&#xe003;" horiz-adv-x="464" 
d="M407 285h-350v-41h350v41z" />
    <glyph glyph-name="notequal" unicode="&#xe004;" horiz-adv-x="315" 
d="M269 180h-106l38 100h68v35h-54l18 47h-38l-18 -47h-118v-35h104l-38 -100h-66v-35h52l-18 -47h38l18 47h120v35z" />
    <glyph glyph-name="integral" unicode="&#xe005;" horiz-adv-x="585" 
d="M554 518h-518v-518h518v518zM544 10h-498v498h498v-498z" />
    <glyph glyph-name="radical" unicode="&#xe006;" horiz-adv-x="387" 
d="M55 234l-27 -44q12 -17 21.5 -41t17 -52.5t13 -58.5t10.5 -58q24 82 62 165t80 156.5t83 133.5t73 97l-26 49q-34 -36 -70.5 -90t-71.5 -120t-67 -140.5t-56 -152.5q-5 36 -11 75.5t-31 80.5z" />
    <glyph glyph-name="approxequal" unicode="&#xe007;" horiz-adv-x="776" 
d="M332 246v113h111v-113h-111zM297 392h-79q-57 0 -87 28t-30 69q0 42 28.5 70t73.5 28t69.5 -35t24.5 -93v-67zM572 587q45 0 73.5 -28t28.5 -70q0 -41 -30 -69t-87 -28h-79v67q0 58 24.5 93t69.5 35zM549 245h-71v114h71q75 0 115.5 36.5t40.5 93.5q0 27 -9.5 50t-27 40
t-42 27t-54.5 10q-61 0 -95 -40t-34 -112v-72h-111v72q0 72 -34 112t-95 40q-30 0 -54.5 -10t-42 -27t-27 -40t-9.5 -50q0 -57 40.5 -93.5t115.5 -36.5h71v-114h-71q-75 0 -115.5 -36.5t-40.5 -93.5q0 -27 9.5 -50t27 -40t42 -27t54.5 -10q61 0 95 40t34 112v72h111v-72
q0 -72 34 -112t95 -40q30 0 54.5 10t42 27t27 40t9.5 50q0 57 -40.5 93.5t-115.5 36.5zM478 212h79q57 0 87 -28t30 -69q0 -42 -28.5 -70t-73.5 -28t-69.5 35t-24.5 93v67zM203 17q-45 0 -73.5 28t-28.5 70q0 41 30 69t87 28h79v-67q0 -58 -24.5 -93t-69.5 -35z" />
    <glyph glyph-name="nonbreakingspace" unicode="&#xe008;" horiz-adv-x="330" 
 />
    <glyph glyph-name="lozenge" unicode="&#xe009;" horiz-adv-x="470" 
d="M235 430l-200 -200l200 -200l200 200zM397 230l-162 -162l-162 162l162 162z" />
    <glyph glyph-name="apple" unicode="&#xe00a;" horiz-adv-x="664" 
d="M232 423q-35 0 -63.5 -11.5t-48.5 -32.5t-30.5 -49.5t-10.5 -62.5q0 -56 21.5 -106.5t51.5 -88t62 -59.5t52 -22q32 0 53 25q5 7 13.5 10t17.5 3q20 0 32 -13q11 -14 26 -20t32 -6q31 0 56.5 17t45 41.5t34 52t22.5 47.5q-32 9 -57 38t-25 75q0 41 19 65t45 44
q-3 12 -13.5 21.5t-26 17t-33.5 11.5t-35 4q-42 0 -67 -20q-16 -13 -28.5 -17.5t-24.5 -4.5t-21.5 5.5t-26.5 16.5q-14 10 -33 14.5t-39 4.5zM438 534q-17 0 -34 -10t-31.5 -25.5t-23.5 -34.5t-9 -37q0 -5 2 -9.5t8 -4.5q19 0 36.5 12t31 29.5t21 37.5t7.5 35q0 7 -8 7z" />
    </font>
</defs>
</svg>
