<?xml version="1.0" standalone="no"?>
<!DOCTYPE svg PUBLIC "-//W3C//DTD SVG 1.1//EN" "http://www.w3.org/Graphics/SVG/1.1/DTD/svg11.dtd" >
<svg xmlns="http://www.w3.org/2000/svg" xmlns:xlink="http://www.w3.org/1999/xlink" version="1.1">
<metadata>
Created by FontForge 20170731 at Fri Dec 13 16:40:20 2013
 By Aleksey,,,
2013 Iconian Font - www.iconian.com
</metadata>
<defs>
<font id="FederalEscort3DItalic" horiz-adv-x="826" >
  <font-face 
    font-family="Federal Escort 3D Italic"
    font-weight="400"
    font-style="italic"
    font-stretch="normal"
    units-per-em="1000"
    panose-1="0 0 0 0 0 0 0 0 0 0"
    ascent="800"
    descent="-200"
    x-height="573"
    cap-height="573"
    bbox="-98 -228 1781 806"
    underline-thickness="50"
    underline-position="-175"
    unicode-range="U+0020-2122"
  />
<missing-glyph horiz-adv-x="500" 
 />
    <glyph glyph-name=".notdef" horiz-adv-x="500" 
 />
    <glyph glyph-name=".null" horiz-adv-x="0" 
 />
    <glyph glyph-name="nonmarkingreturn" horiz-adv-x="500" 
 />
    <glyph glyph-name="space" unicode=" " horiz-adv-x="384" 
 />
    <glyph glyph-name="space" unicode="&#xa0;" horiz-adv-x="384" 
 />
    <glyph glyph-name="FL0021h" unicode="!" horiz-adv-x="380" 
d="M432 315l-51 -88h-235l6 88l80 246h280zM102 92q6 19 21 36t35.5 29.5t44 19.5t47.5 7t43 -7t31 -19.5t15.5 -29.5t-2.5 -36q-6 -20 -21 -36.5t-35 -29t-43.5 -19.5t-47.5 -7t-43 7t-31 19.5t-16 29t2 36.5zM528 573h-304l-85 -261l-6 -97h5l26 -42q-26 -14 -46 -35
t-28 -46q-8 -26 -1.5 -46.5t23.5 -34.5l21 -32q12 -17 35 -27.5t53 -10.5q26 0 51.5 8t47 21.5t37.5 32t23 39.5q11 38 -7 63l-21 32q-7 18 -18 31h85l55 95l84 257l-32 47z" />
    <glyph glyph-name="FL0022h" unicode="&#x22;" horiz-adv-x="544" 
d="M190 469q7 22 22.5 40.5t35.5 32.5t44 22t49 8q34 0 56 -15.5t29 -40.5l12 -19q21 33 58.5 54.5t79.5 21.5q34 0 56 -15t29 -40l22 -32q19 -28 6 -66l-32 -101q-7 -21 -22 -39.5t-35 -32t-43 -21t-46 -7.5q-26 0 -45 9t-30 25l-22 32h-1q-4 4 -6 5q-9 -16 -23.5 -29
t-32 -22.5t-37 -15t-38.5 -5.5q-26 0 -45 9t-30 25l-21 31q-19 14 -25 36t3 49zM170 368q-13 -38 9 -64.5t66 -26.5q21 0 42.5 7t39.5 19.5t32 29t20 35.5l32 101q6 19 3.5 35.5t-12.5 29t-27 19.5t-38 7q-22 0 -43.5 -7t-39.5 -19.5t-32 -29t-20 -35.5zM405 369
q-13 -38 9 -64.5t66 -26.5q21 0 42.5 7t39.5 19.5t32 29t20 35.5l33 101q6 19 3 35.5t-13 29t-27 19.5t-38 7q-22 0 -43.5 -7t-39.5 -19.5t-31.5 -29t-19.5 -35.5z" />
    <glyph glyph-name="FL0023h" unicode="#" horiz-adv-x="879" 
d="M976 453l-46 -143h-67l-19 -59h67l-47 -143h-67l-35 -108h-280l35 108h-85l-35 -108h-280l35 108h-67l47 143h67l19 59h-67l46 143h67l35 108h280l-35 -108h85l35 108h280l-35 -108h67zM564 251l19 59h-85l-19 -59h85zM960 573h-304l-35 -108h-14l18 55l-32 47l2 6h-304
l-35 -108h-67l-54 -167h6l23 -35h-41l-54 -167h6l32 -47h14l-20 -61h6l32 -47h298l35 108h14l-20 -61h6l32 -47h298l35 108h67l52 161l-27 41h41l52 161l-32 47l2 6h-20l18 55l-32 47z" />
    <glyph glyph-name="FL0024h" unicode="$" horiz-adv-x="808" 
d="M737 643l-2 -6l32 -47l-14 -43h194l-2 -6l32 -47l-54 -165h-88q6 -7 10.5 -15t8.5 -16l21 -32q19 -27 9 -61l-28 -85q-8 -26 -28.5 -52.5t-47.5 -48t-58.5 -35.5t-61.5 -14h-96l-29 -89h-242l-31 47h-6l13 42h-188l-31 47h-6l55 171h109q-2 2 -4 5.5t-4 6.5l-16 24
q-23 20 -35 51t-2 62l20 61q9 28 30 55t48 48t58 33.5t62 12.5h93l31 96h248zM497 631l-31 -96h-105q-28 0 -57 -11.5t-53.5 -31t-43.5 -44t-28 -50.5l-20 -61q-7 -23 -1.5 -45.5t19 -40.5t32.5 -29.5t39 -11.5h297l-4 -12q-2 -8 -10 -15t-18 -7h-406l-48 -147h241l-28 -89
h224l28 89h105q28 0 57.5 13t55 33.5t44.5 45.5t27 49l28 85q7 21 0 39t-21.5 31t-34.5 20.5t-40 7.5h-300l4 13q2 8 10 15t18 7h406l48 147h-241l31 96h-224z" />
    <glyph glyph-name="FL0025h" unicode="%" horiz-adv-x="977" 
d="M950 280q28 0 40.5 -22.5t4.5 -48.5l-48 -148q-4 -12 -13.5 -23t-21.5 -19.5t-25 -13.5t-25 -5h-233q-22 0 -37.5 18.5t-7.5 42.5l47 146l-255 -207h-284l345 280h-231q-22 0 -37.5 18.5t-7.5 42.5l48 148q4 13 13.5 25.5t22.5 22.5t27.5 16.5t28.5 6.5h226
q28 0 40.5 -22.5t4.5 -48.5l-44 -136l256 208h283l-346 -281h229zM761 111q-2 -6 3 -6h31q5 0 8 6l17 53q1 2 0.5 5t-3.5 3h-31q-5 -2 -8 -8zM338 391q-2 -6 3 -6h31q5 0 8 6l17 53q1 2 0.5 5t-3.5 3h-31q-5 -2 -8 -8zM954 292h-111l282 228l-32 48l6 5h-316l-170 -138l2 4
q5 15 3 30t-10 27l-24 34q-5 18 -18.5 30t-34.5 12h-226q-17 0 -34 -7.5t-32 -19.5t-26 -26.5t-16 -29.5l-48 -148q-6 -19 -0.5 -35t18.5 -26l25 -35q16 -24 45 -24h111l-288 -233h10l32 -47h309l165 133l-4 -13q-6 -19 0 -34.5t18 -26.5l25 -35q16 -24 45 -24h233
q13 0 28 5.5t29 15.5t24.5 22.5t15.5 26.5l48 148q5 15 3 30t-10 27l-24 34q-5 18 -18.5 30t-34.5 12z" />
    <glyph glyph-name="FL0026h" unicode="&#x26;" horiz-adv-x="886" 
d="M819 144q-10 -30 -26.5 -56.5t-37.5 -46t-45.5 -30.5t-51.5 -11h-457q-42 0 -66 16t-33.5 41t-7.5 55t11 58q11 32 29.5 63t49.5 52q-8 9 -12 21t-4 26q0 15 2.5 30t7.5 29q9 27 28.5 57t46.5 55t60.5 41.5t70.5 16.5h481l-47 -147h-323q-19 0 -30.5 -10t-16.5 -24
q-5 -17 0.5 -23.5t26.5 -6.5h475l-46 -142h-64zM383 181q-5 -14 0 -24t24 -10h111q9 0 19 11t15 26l9 27h-132q-21 0 -31 -7t-15 -23zM911 520l-32 47l2 6h-493q-40 0 -76 -17.5t-65.5 -44.5t-50.5 -59t-30 -61q-9 -27 -10 -55.5t12 -50.5q-30 -25 -47 -54.5t-28 -60.5
q-7 -21 -10 -43.5t-1 -43.5t10 -39.5t24 -31.5l19 -29q13 -19 36.5 -30.5t60.5 -11.5h457q29 0 56 12t49.5 32.5t39.5 48.5t28 60l17 55h64l52 160l-31 47l2 6h-106zM204 235l5 -7q-2 2 -2.5 3.5t-2.5 3.5z" />
    <glyph glyph-name="FL0027h" unicode="'" horiz-adv-x="319" 
d="M203 470q6 19 20 35.5t32.5 29t41 19.5t45.5 7q45 0 68.5 -26.5t11.5 -64.5l-33 -101q-6 -19 -20.5 -35.5t-33 -29t-41 -19.5t-44.5 -7q-23 0 -40.5 7t-28.5 19.5t-14 29t3 35.5zM191 470l-33 -101q-9 -27 -2.5 -49t26.5 -36l20 -29q11 -17 31 -26.5t48 -9.5q24 0 48 7.5
t44.5 21t36 32t22.5 39.5l32 101q7 19 4.5 35t-11.5 29l-21 30q-6 26 -30 42.5t-60 16.5q-26 0 -50.5 -8t-45.5 -22t-36.5 -32.5t-22.5 -40.5z" />
    <glyph glyph-name="FL0028h" unicode="(" horiz-adv-x="470" 
d="M636 627l-2 -6l32 -47l-54 -165h-77q-5 0 -11 -7.5t-8 -13.5l-92 -283h35l-2 -6l32 -47l-54 -165h-242q-26 0 -48 13t-36 33l-19 28q-22 19 -31.5 47.5t1.5 60.5l131 403q9 28 30 55.5t48.5 49.5t59.5 36t63 14h244zM388 615q-28 0 -57.5 -12.5t-55 -33t-44.5 -46
t-28 -51.5l-131 -403q-8 -24 -3 -46t18 -39t32.5 -27.5t42.5 -10.5h233l48 147h-62q-8 0 -12 6.5t0 16.5l104 322q3 8 12 19t19 11h68l48 147h-232z" />
    <glyph glyph-name="FL0029h" unicode=")" horiz-adv-x="470" 
d="M242 627h244q38 0 63 -20t36 -50l18 -27q15 -22 19 -50.5t-6 -57.5l-131 -403q-8 -26 -28.5 -49.5t-46.5 -42t-54.5 -29.5t-52.5 -11h-242l-31 47h-6l55 171h74q8 0 12 11l95 293h-36l-32 47h-6zM202 468h68q10 0 12 -11t-1 -19l-104 -322q-4 -10 -12 -16.5t-16 -6.5h-62
l-48 -147h233q22 0 49 10.5t51 27.5t43 39t27 46l131 403q9 26 6 51.5t-15 46t-33 33t-49 12.5h-232z" />
    <glyph glyph-name="asterisk" unicode="*" horiz-adv-x="328" 
d="M193 441l-14 16l27 19l-15 22l-8 2l81 123l29 -21l8 38h133l-3 -6l17 -23l17 7v-10l30 -44l4 -114l-52 -10l22 -33l-128 -79l-21 31l-27 -32l-76 80zM314 391l107 66l-29 38l64 12l-3 95l-57 -24l21 50h-107l-11 -50l-34 26l-63 -96l47 -13l-51 -37l63 -67l43 53z" />
    <glyph glyph-name="FL002Bh" unicode="+" horiz-adv-x="435" 
d="M499 351l-46 -143h-96l-32 -97h-143l32 97h-96l46 143h96l31 95h143l-31 -95h96zM450 458h-167l-31 -95h-96l-54 -167h6l31 -47h43l-16 -50h6l32 -47h161l31 97h96l53 161l-32 47l2 6h-49l14 42l-32 47z" />
    <glyph glyph-name="FL002Ch" unicode="," horiz-adv-x="335" 
d="M80 92q6 19 21 36t35.5 29.5t44 19.5t47.5 7t43 -7t31 -19.5t15.5 -29.5t-2.5 -36l-34 -103q-6 -20 -20.5 -36.5t-34.5 -29t-43.5 -19.5t-47.5 -7q-48 0 -74.5 26.5t-14.5 65.5zM68 92l-34 -103q-8 -25 -1.5 -46t23.5 -35l22 -32q11 -17 34 -27.5t53 -10.5q26 0 51.5 8
t47 21.5t37.5 32t23 39.5l34 103q11 38 -7 63l-21 32q-8 26 -34 42.5t-64 16.5q-27 0 -53 -8t-48.5 -22t-39 -33t-23.5 -41z" />
    <glyph glyph-name="FL002Dh" unicode="-" horiz-adv-x="435" 
d="M499 351l-46 -143h-335l46 143h335zM156 363l-54 -167h6l31 -47h353l53 161l-32 47l2 6h-359z" />
    <glyph glyph-name="FL002Eh" unicode="." horiz-adv-x="335" 
d="M68 92q7 22 23.5 41t39 33t48.5 22t53 8q38 0 64 -16.5t34 -42.5l21 -32q18 -25 7 -63q-7 -21 -23 -39.5t-37.5 -32t-47 -21.5t-51.5 -8q-30 0 -53 10.5t-35 27.5l-21 32q-17 14 -23.5 34.5t1.5 46.5zM80 92q-6 -20 -2 -36.5t16 -29t31 -19.5t43 -7t47.5 7t43.5 19.5
t35 29t21 36.5q6 19 2.5 36t-15.5 29.5t-31 19.5t-43 7t-47.5 -7t-44 -19.5t-35.5 -29.5t-21 -36z" />
    <glyph glyph-name="FL002Fh" unicode="/" horiz-adv-x="867" 
d="M37 0l647 561h328l-647 -561h-328zM49 -59h352l667 579l-32 48l5 5h-359l-674 -585h9z" />
    <glyph glyph-name="FL0030h" unicode="0" horiz-adv-x="807" 
d="M802 561q28 0 49 -12.5t33 -33t14.5 -46t-5.5 -51.5l-96 -295q-8 -24 -27 -46t-43 -39t-50.5 -27.5t-49.5 -10.5h-447q-23 0 -42.5 10.5t-33 27.5t-18 39t3.5 46l96 295q8 26 27 51.5t44.5 46t54.5 33t57 12.5h433zM384 170q-1 -5 0.5 -14t14.5 -9h105q6 0 15 8.5
t14 14.5l69 212q3 8 1.5 20t-12.5 12h-107q-11 -2 -19.5 -13t-11.5 -19zM806 573h-433q-31 0 -62.5 -14t-59 -36t-48 -49.5t-29.5 -55.5l-96 -295q-11 -32 -1.5 -60.5t31.5 -48.5l19 -27q14 -20 36 -33t48 -13h447q24 0 52.5 11t54.5 29.5t46.5 42t28.5 49.5l96 295
q9 29 5 57.5t-18 50.5l-19 27q-11 30 -35.5 50t-62.5 20zM496 332q2 6 8 13.5t12 9.5h65l-58 -181q-4 -5 -8.5 -10t-6.5 -5h-68z" />
    <glyph glyph-name="FL0031h" unicode="1" horiz-adv-x="492" 
d="M638 567l32 -47l-188 -579h-298l-32 47h-6l119 367h-59l-31 47h-6l55 171h416zM624 561h-392l-47 -147h112l-135 -414h280z" />
    <glyph glyph-name="FL0032h" unicode="2" horiz-adv-x="808" 
d="M910 287q-6 -20 -21.5 -39.5t-36 -36.5t-43 -31t-43.5 -21h56l-2 -6l31 -47l-53 -165h-726l-32 47h-6l87 267q5 17 17.5 32.5t29 28t36 23t38.5 16.5h-35l-31 47h-6l55 171h582q38 0 64 -20t37 -51l19 -26q14 -20 17.5 -46.5t-5.5 -55.5zM758 0l48 147h-427l20 63h297
q19 0 45.5 11.5t52 29.5t46 40.5t27.5 45.5l29 87q8 26 5 50.5t-15.5 44t-33.5 31t-49 11.5h-570l-47 -147h406q10 0 11.5 -11t-0.5 -19l-10 -31h-300q-20 0 -45 -7.5t-48 -20.5t-41.5 -31t-25.5 -39l-83 -255h708z" />
    <glyph glyph-name="FL0033h" unicode="3" horiz-adv-x="765" 
d="M518 350q21 0 30.5 6.5t14.5 23.5q5 14 0.5 24t-23.5 10h-355l47 147h513q37 0 59.5 -16.5t33.5 -41.5t11.5 -55t-8.5 -57q-9 -28 -28 -58.5t-46 -47.5q17 -21 15.5 -52t-12.5 -63q-9 -28 -26.5 -58t-43 -55t-60 -41t-76.5 -16h-514l48 147h356q19 0 30 10t16 24
q5 16 0 23t-26 7h-355l45 139h354zM72 -59h523q45 0 81 17t63 43t45.5 57.5t28.5 61.5q11 32 12.5 61.5t-12.5 52.5q25 20 43.5 49.5t27.5 57.5q11 33 9 70t-21 65l-19 26q-11 30 -36 50.5t-68 20.5h-525l-55 -171h6l27 -40h-46l-53 -163h6l27 -40h-46l-56 -171h6z" />
    <glyph glyph-name="FL0034h" unicode="4" horiz-adv-x="966" 
d="M98 184l372 336v-1q8 7 20 16.5t25.5 17.5t27 14t24.5 6h424l-2 -6l32 -47l-92 -284h76l-2 -6l31 -47l-52 -161h-123l-26 -81h-297l-32 47h-6l11 34h-411l-32 47h-6zM598 333q5 5 7.5 7t7.5 2q2 -2 6 -4t4 -3l-36 -111h-104zM76 81h464l-26 -81h279l26 81h123l47 143
h-123l109 337h-412q-10 0 -24 -6.5t-27.5 -15.5t-25 -18t-17.5 -15l-361 -326z" />
    <glyph glyph-name="FL0035h" unicode="5" horiz-adv-x="808" 
d="M804 141q-8 -24 -27 -49t-44.5 -45.5t-55 -33.5t-57.5 -13h-570l48 147h406q10 0 19 11t12 19l10 33h-297q-20 0 -39 11.5t-32.5 29.5t-19 40.5t1.5 45.5l73 224h707l-47 -147h-427l-20 -61h300q20 0 40 -7.5t34.5 -20.5t21.5 -31t0 -39zM931 355l54 165l-32 47l2 6h-731
l-77 -236q-10 -31 2 -62t35 -51l16 -24q18 -29 46 -41h-156l-56 -171h6l32 -47h579q30 0 61 14t58 35.5t47.5 48t29.5 52.5l37 114q10 34 -9 61l-21 32q-6 19 -22 33.5t-36 23.5h135z" />
    <glyph glyph-name="FL0036h" unicode="6" 
d="M888 272q1 0 -1 2zM397 170q3 0 1 2zM823 355q17 -10 29.5 -24t17.5 -31l21 -30q10 -14 13 -31t-3 -36l-42 -130q-8 -26 -28.5 -49.5t-46.5 -42t-54.5 -29.5t-52.5 -11h-466q-26 0 -47.5 13t-35.5 33l-20 29q-21 20 -30.5 48.5t0.5 58.5l96 295q9 28 29.5 55.5t48 49.5
t59 36t62.5 14h598l-2 -6l32 -47l-54 -165h-124zM858 253q7 21 0.5 40.5t-21 34t-34.5 23t-40 8.5h-316l7 23h-2l3 2q2 8 11.5 19t19.5 11h422l47 147h-586q-28 0 -57 -12.5t-54.5 -33t-44.5 -46t-27 -51.5l-96 -295q-8 -23 -3 -45t18 -39t32.5 -28t42.5 -11h466
q23 0 49.5 10.5t50.5 27.5t43 39t27 46zM399 147q-11 0 -11.5 8.5t-2.5 14.5l14 41h167l-14 -41q-5 -6 -13 -14.5t-16 -8.5h-124z" />
    <glyph glyph-name="FL0037h" unicode="7" horiz-adv-x="855" 
d="M612 414h-427l47 147h755l-47 -147l-478 -414h-328zM105 -12h9l32 -47h352l483 419l52 160l-32 47l2 6h-779l-55 -171h6l31 -47h321z" />
    <glyph glyph-name="FL0038h" unicode="8" horiz-adv-x="809" 
d="M790 561q37 0 59.5 -16.5t33.5 -41.5t11.5 -55t-8.5 -57q-9 -28 -28 -58.5t-46 -47.5q17 -21 15.5 -52t-12.5 -63q-9 -28 -26.5 -58t-43 -55t-60 -41t-76.5 -16h-409q-42 0 -66 16t-33.5 41t-7.5 55t11 58q11 32 29.5 63t49.5 52q-8 9 -12 21t-4 26q0 15 2.5 30t7.5 29
q9 27 28.5 57t46.5 55t60.5 41.5t70.5 16.5h407zM382 181q-5 -14 0 -24t24 -10h98q31 4 41 34q5 14 1 21t-21 9h-103q-18 -2 -26.5 -9t-13.5 -21zM563 350q21 0 30.5 6.5t14.5 23.5q5 14 0.5 24t-23.5 10h-97q-17 -2 -26.5 -11.5t-14.5 -22.5q-5 -17 0.5 -23.5t26.5 -6.5h89
zM794 573h-407q-40 0 -76 -17.5t-65.5 -44.5t-50.5 -59t-30 -61q-9 -27 -10 -55.5t12 -50.5q-30 -25 -47 -54.5t-28 -60.5q-7 -21 -10 -43.5t-1 -43.5t10 -39.5t24 -31.5l19 -29q13 -19 36.5 -30.5t60.5 -11.5h409q45 0 81 17t63 43t45.5 57.5t28.5 61.5q11 32 12.5 61.5
t-12.5 52.5q25 20 43.5 49.5t27.5 57.5q11 33 9 70t-21 65l-19 26q-11 30 -36 50.5t-68 20.5zM208 228q-2 2 -2.5 3.5t-2.5 3.5z" />
    <glyph glyph-name="FL0039h" unicode="9" 
d="M180 438q9 26 29.5 50.5t47 43t55.5 30t54 11.5h466q32 0 58 -20t37 -50l21 -29q12 -18 16.5 -40.5t-3.5 -45.5l-96 -295q-9 -27 -29.5 -54.5t-47.5 -49t-57.5 -35t-60.5 -13.5h-595l-32 47h-6l56 171h126q-21 11 -34 32l-20 29q-18 17 -26.5 39.5t-0.5 48.5zM150 308
q-7 -21 -0.5 -40.5t21.5 -34t35 -23t40 -8.5h316l-8 -23h2l-2 -2q-3 -8 -12 -19t-19 -11h-422l-48 -147h586q28 0 57 12.5t54 33t44.5 46t27.5 51.5l96 295q7 22 2.5 44.5t-17.5 39.5t-33 28t-42 11h-466q-23 0 -49.5 -10.5t-50.5 -27.5t-43 -39t-27 -46zM610 414
q11 0 11.5 -8.5t1.5 -14.5l-13 -41h-167l13 41q5 6 13.5 14.5t16.5 8.5h124z" />
    <glyph glyph-name="FL003Ah" unicode=":" horiz-adv-x="335" 
d="M142 323q7 22 23.5 41t39 33t48.5 22t53 8q38 0 64 -16.5t34 -42.5l21 -32q19 -27 7 -63q-12 -37 -48.5 -64t-79.5 -35q19 -16 26 -37l20 -31h-1l2 -1q18 -25 7 -63q-7 -21 -23 -39.5t-37.5 -32t-47 -21.5t-51.5 -8q-30 0 -53 10.5t-35 27.5l-21 32q-17 14 -23.5 34.5
t1.5 46.5q6 19 19 35.5t30.5 29.5t38.5 22.5t44 13.5q-5 3 -8.5 7.5t-6.5 9.5l-21 32q-17 14 -23.5 34.5t1.5 46.5zM154 323q-6 -20 -2 -36.5t16 -29t31 -19.5t43 -7t47.5 7t43.5 19.5t35 29t21 36.5q6 19 2.5 36t-15.5 29.5t-31 19.5t-43 7t-47.5 -7t-44 -19.5t-35.5 -29.5
t-21 -36zM80 92q-6 -20 -2 -36.5t16 -29t31 -19.5t43 -7t47.5 7t43.5 19.5t35 29t21 36.5q6 19 2.5 36t-15.5 29.5t-31 19.5t-43 7t-47.5 -7t-44 -19.5t-35.5 -29.5t-21 -36z" />
    <glyph glyph-name="FL003Bh" unicode=";" horiz-adv-x="335" 
d="M142 323q7 22 23.5 41t39 33t48.5 22t53 8q38 0 64 -16.5t34 -42.5l20 -31h-1l2 -1q19 -27 7 -63q-12 -37 -48.5 -64t-79.5 -35q19 -16 26 -37l20 -31h-1l2 -1q18 -25 7 -63l-34 -103q-7 -21 -23 -39.5t-37.5 -32t-47 -21.5t-51.5 -8q-30 0 -53 10.5t-34 27.5l-22 32
q-17 14 -23.5 35t1.5 46l34 103q6 19 19 35.5t30.5 29.5t38.5 22.5t44 13.5q-5 3 -8.5 7.5t-6.5 9.5l-21 32q-17 14 -23.5 34.5t1.5 46.5zM46 -11q-12 -39 14.5 -65.5t74.5 -26.5q24 0 47.5 7t43.5 19.5t34.5 29t20.5 36.5l34 103q6 19 2.5 36t-15.5 29.5t-31 19.5t-43 7
t-47.5 -7t-44 -19.5t-35.5 -29.5t-21 -36zM154 323q-6 -20 -2 -36.5t16 -29t31 -19.5t43 -7t47.5 7t43.5 19.5t35 29t21 36.5q6 19 2.5 36t-15.5 29.5t-31 19.5t-43 7t-47.5 -7t-44 -19.5t-35.5 -29.5t-21 -36z" />
    <glyph glyph-name="FL003Ch" unicode="&#x3c;" horiz-adv-x="635" 
d="M264 -12h-4l-148 293l337 292h359l-5 -5l32 -48l-333 -289l146 -290h-352zM598 0l-142 281l323 280h-328l-323 -280l142 -281h328z" />
    <glyph glyph-name="FL003Dh" unicode="=" horiz-adv-x="476" 
d="M508 251l-47 -143h-376l47 143h376zM573 453l-46 -143h-376l46 143h376zM189 465l-54 -167h6l23 -35h-41l-54 -167h6l32 -47h394l52 161l-27 41h41l52 161l-32 47l2 6h-400z" />
    <glyph glyph-name="FL003Eh" unicode="&#x3e;" horiz-adv-x="635" 
d="M36 0l324 281l-141 280h328l141 -280l-324 -281h-328zM48 -59h352l334 290l-145 289l-21 29l-11 24h-359l146 -292l-337 -293h9z" />
    <glyph glyph-name="FL003Fh" unicode="?" horiz-adv-x="808" 
d="M241 255q7 21 25.5 39t41.5 31t48 20.5t45 7.5h192l10 31q2 8 0.5 19t-11.5 11h-406l47 147h570q28 0 49 -11.5t33.5 -31t15.5 -44t-5 -50.5l-29 -87q-7 -23 -27 -45t-45 -39t-51.5 -28t-45.5 -11h-470zM188 92q6 19 21 36t35.5 29.5t44 19.5t47.5 7t43 -7t31 -19.5
t15.5 -29.5t-2.5 -36q-6 -20 -21 -36.5t-35 -29t-43.5 -19.5t-47.5 -7t-43 7t-31 19.5t-16 29t2 36.5zM229 255l-17 -53h6l22 -35q-48 -28 -64 -75q-8 -26 -1.5 -46.5t23.5 -34.5l21 -32q12 -17 35 -27.5t53 -10.5q26 0 51.5 8t47 21.5t37.5 32t23 39.5q11 38 -7 63l-2 1h1
l-20 31l-9 18h299q21 0 49 11.5t55 30.5t48.5 42.5t29.5 47.5l29 87q9 29 5.5 55.5t-17.5 46.5l-19 26q-11 31 -37 51t-64 20h-582l-55 -171h6l31 -47h143q-19 -6 -38.5 -16.5t-36 -23t-29 -28t-17.5 -32.5z" />
    <glyph glyph-name="FL0040h" unicode="@" horiz-adv-x="1077" 
d="M428 141q-3 1 -4 4l-13 -40h41v1zM838 409q4 -9 7 -18l20 -28l15 46h-42zM77 -39q-22 19 -31.5 47.5t1.5 60.5l131 403q9 28 30 55.5t48.5 49.5t59.5 36t63 14h727q38 0 63 -20t36 -50l18 -27q15 -22 19 -50.5t-6 -57.5l-67 -208q-9 -26 -29.5 -49.5t-46.5 -42t-54 -29.5
t-52 -11h-212l20 -30l-54 -165h-561q-26 0 -48 13t-36 33zM616 305q2 6 8 8h31q3 0 3.5 -3t-0.5 -5l-17 -53q-3 -6 -8 -6h-31q-5 0 -3 6zM562 421q-14 0 -28.5 -6.5t-27.5 -16.5t-22.5 -22.5t-13.5 -25.5l-48 -148q-8 -24 7.5 -42.5t37.5 -18.5h489q22 0 48.5 10.5t51 27.5
t43.5 39t27 46l67 208q9 26 6 51.5t-15 46t-33 33t-49 12.5h-727q-28 0 -57.5 -12.5t-55 -33t-44.5 -46t-28 -51.5l-131 -403q-8 -24 -3 -46t18 -39t32.5 -27.5t42.5 -10.5h552l48 147h-381q-8 0 -12 6.5t0 16.5l104 322q3 8 12 19t19 11h399q10 0 12 -11t-1 -19l-41 -128
q-3 -10 -11.5 -16.5t-16.5 -6.5h-20l21 63q8 26 -4.5 48.5t-40.5 22.5h-226z" />
    <glyph glyph-name="FL0041h" unicode="A" 
d="M516 355q-5 0 -9.5 -5t-8.5 -10l-8 -27h96l13 42h-83zM40 -12h-6l146 449q9 26 30 50.5t47.5 43.5t55.5 30.5t53 11.5h466q32 0 58 -20t38 -49l19 -29q13 -19 17.5 -42t-3.5 -46l-145 -446h-298l-32 47h-6l36 111h-96l-51 -158h-297zM918 437q7 22 2.5 44.5t-17.5 40
t-32.5 28.5t-42.5 11h-466q-23 0 -49.5 -10.5t-50.5 -28t-43.5 -39.5t-26.5 -46l-142 -437h279l51 158h167l-51 -158h280zM456 392q5 6 13.5 14t16.5 8h124q12 0 12 -9q0 -8 1 -14l-29 -90h-167l29 90v1z" />
    <glyph glyph-name="FL0042h" unicode="B" 
d="M40 -12h-6l190 585h586q43 0 68 -20.5t36 -50.5l16 -22l3 -4q19 -28 21 -65t-9 -70q-9 -28 -27.5 -57.5t-43.5 -49.5q14 -23 12.5 -52.5t-12.5 -61.5q-10 -30 -28.5 -61.5t-45.5 -57.5t-63 -43t-81 -17h-584zM625 0q42 0 76.5 16t60 41t43 55t26.5 58q11 32 12.5 63
t-15.5 52q27 17 46 47.5t28 58.5q9 27 8.5 57t-11.5 55t-33.5 41.5t-59.5 16.5h-574l-182 -561h575zM535 211q21 0 26 -7t0 -23q-5 -14 -16 -24t-30 -10h-138l21 64h137zM464 414h137q19 0 23.5 -10t-0.5 -24q-5 -17 -14.5 -23.5t-30.5 -6.5h-136z" />
    <glyph glyph-name="FL0043h" unicode="C" horiz-adv-x="743" 
d="M891 573l-2 -6l32 -47l-54 -165h-351q-5 0 -10.5 -7.5t-7.5 -13.5l-57 -175h310l-2 -6l31 -47l-53 -165h-516q-26 0 -48 13t-36 33l-19 27q-22 20 -31.5 48.5t1.5 60.5l96 295q9 28 29.5 55.5t48 49.5t59 36t62.5 14h518zM369 561q-28 0 -57 -12.5t-54.5 -33t-44.5 -46
t-27 -51.5l-96 -295q-8 -24 -3.5 -46t18 -39t33 -27.5t42.5 -10.5h507l48 147h-336q-8 0 -12 6.5t-2 16.5l70 214q2 8 11.5 19t19.5 11h342l47 147h-506z" />
    <glyph glyph-name="FL0044h" unicode="D" horiz-adv-x="819" 
d="M442 162h44q16 0 27.5 8t19.5 20t13.5 26.5t10.5 28.5l22 68q2 7 4 15l4 16h-86zM40 -12h-6l190 585h621q26 0 44.5 -18t28.5 -44l18 -26q14 -22 19 -50t-3 -54l-105 -321q-6 -20 -22 -41t-37 -38t-43.5 -28.5t-41.5 -11.5h-631zM672 0q18 0 38.5 10.5t39.5 26.5t34 35.5
t21 37.5l104 321q7 20 4.5 43t-11.5 42.5t-25 32t-36 12.5h-609l-182 -561h622zM578 403q14 0 19.5 -9t5.5 -23q0 -13 -4 -29t-8 -29l-22 -68q-5 -15 -11.5 -32t-16.5 -31t-24 -23t-35 -9h-103l82 253h117z" />
    <glyph glyph-name="FL0045h" unicode="E" horiz-adv-x="743" 
d="M891 573l-2 -6l32 -47l-54 -165h-45l31 -45l-53 -161h-43l29 -43l-53 -165h-522q-26 0 -48 13t-36 33l-19 27q-22 20 -31.5 48.5t1.5 60.5l96 295q9 28 29.5 55.5t48 49.5t59 36t62.5 14h518zM369 561q-28 0 -57 -12.5t-54.5 -33t-44.5 -46t-27 -51.5l-96 -295
q-8 -24 -3.5 -46t18 -39t33 -27.5t42.5 -10.5h513l48 147h-342q-2 0 -7 8.5t-7 14.5q1 1 1 3t1 4q0 4 3 7q2 3 6.5 7l9 8t8.5 6.5t5 2.5h342l46 143h-335q-13 0 -18 10t-1 21q3 8 13 20t20 12h342l47 147h-506z" />
    <glyph glyph-name="FL0046h" unicode="F" horiz-adv-x="743" 
d="M891 573l-2 -6l32 -47l-54 -165h-45l31 -45l-53 -161h-351q-1 0 -7 -6.5t-10 -11.5l-62 -190h-298l-32 47h-6l140 430q9 28 29.5 55.5t48 49.5t59 36t62.5 14h518zM369 561q-28 0 -57 -12.5t-54.5 -33t-44.5 -46t-27 -51.5l-136 -418h280l60 184q2 3 6.5 7l9 8t8.5 6.5
t5 2.5h342l46 143h-335q-13 0 -18 10t-1 21q3 8 13 20t20 12h342l47 147h-506z" />
    <glyph glyph-name="FL00B9h" unicode="G" 
d="M441 159h86q2 0 6 4.5t8 9.5l59 182h-84q-5 0 -10.5 -7t-7.5 -14zM891 573l-2 -6l32 -47l-41 -126h36l-2 -6l32 -47l-87 -268q-8 -26 -28.5 -49.5t-46.5 -42t-54.5 -29.5t-52.5 -11h-466q-26 0 -47.5 13t-35.5 33l-20 29q-21 20 -30.5 48.5t0.5 58.5l96 295
q9 28 29.5 55.5t48 49.5t59 36t62.5 14h518zM369 561q-28 0 -57 -12.5t-54.5 -33t-44.5 -46t-27 -51.5l-96 -295q-8 -23 -3 -45t18 -39t32.5 -28t42.5 -11h466q23 0 49.5 10.5t50.5 27.5t43 39t27 46l84 259h-279l-69 -213q-5 -6 -13 -14t-16 -8h-124q-11 0 -11.5 8.5
t-2.5 14.5l69 212h-2l3 2q2 8 11.5 19t19.5 11h342l47 147h-506z" />
    <glyph glyph-name="FL0048h" unicode="H" horiz-adv-x="796" 
d="M526 567l32 -47l-51 -157h64l68 210h305l-2 -6l32 -47l-188 -579h-299l-32 47h-6l52 161h-64l-67 -208h-298l-32 47h-6l190 585h304zM579 351h-135l68 210h-280l-182 -561h280l68 208h135l-68 -208h281l182 561h-281z" />
    <glyph glyph-name="FL0049h" unicode="I" horiz-adv-x="764" 
d="M289 147l87 267h-190l47 147h663l-47 -147h-193l-87 -267h192l-48 -147h-663l48 147h191zM90 159l-56 -171h6l32 -47h681l53 165l-31 47l2 6h-145l63 196h193l54 165l-32 47l2 6h-687l-55 -171h6l31 -47h137l-63 -196h-191z" />
    <glyph glyph-name="FL004Ah" unicode="J" 
d="M385 170q2 -6 2.5 -14.5t11.5 -8.5h124q8 0 16 8.5t13 14.5l127 391h279l-142 -438q-8 -24 -27 -46t-43 -39t-50.5 -27.5t-49.5 -10.5h-466q-23 0 -42.5 11t-32.5 28t-18 39t3 45l49 150h280zM435 285h-304l-53 -162q-10 -30 -0.5 -58.5t30.5 -48.5l20 -29
q14 -20 35.5 -33t47.5 -13h466q24 0 52.5 11t54.5 29.5t46.5 42t28.5 49.5l145 447l-32 47l2 6h-303l-129 -399q-4 -5 -8.5 -10t-6.5 -5h-86l23 73l-31 47z" />
    <glyph glyph-name="FL004Bh" unicode="K" horiz-adv-x="791" 
d="M675 251q-5 -14 -5.5 -28t2.5 -28q33 -35 77 -35h56l-2 -6l32 -47l-54 -166h-241q-32 0 -55 20t-39 44l-13 18l-14 16t-12 17l-37 -115h-298l-32 47h-6l190 585h304l-2 -6l32 -47l-9 -28q10 9 27.5 22t39 25t47 21.5t51.5 12.5h225l-2 -6l32 -47l-54 -166h-104
q-12 0 -33 -10t-42 -25.5t-38.5 -33.5t-22.5 -34zM400 97q7 -14 17.5 -31t24 -31.5t30.5 -24.5t37 -10h232l48 148h-44q-25 0 -49.5 13t-41.5 34.5t-24 49t2 56.5q6 18 24.5 37.5t41.5 36t45.5 27.5t36.5 11h95l48 148h-212q-30 -3 -57.5 -15t-50 -26t-37.5 -27t-20 -18v-2
q-32 -23 -53.5 -53.5t-45.5 -60.5l65 202h-280l-182 -561h280l53 164z" />
    <glyph glyph-name="FL004Ch" unicode="L" horiz-adv-x="743" 
d="M224 573h304l-2 -6l32 -47l-117 -361h316l-2 -6l31 -47l-53 -165h-537q-47 0 -69 33l-22 30q-25 19 -30.5 55.5t9.5 82.5zM96 142q-10 -30 -10 -56q0 -25 8.5 -44.5t26.5 -30.5t44 -11h528l48 147h-325q-20 2 -26.5 9.5t0.5 27.5l122 377h-280z" />
    <glyph glyph-name="FL004Dh" unicode="M" horiz-adv-x="1149" 
d="M39 -12h-6l146 450q9 26 29.5 50.5t47 43t55.5 30t54 11.5h789q32 0 58 -20t37 -50l21 -29q12 -18 16.5 -40.5t-3.5 -45.5l-145 -447h-298l-32 47h-6l119 367h-22q-3 0 -8 -5t-8 -9l-130 -400h-299l-32 47h-6l119 367h-20q-4 0 -9 -5.5t-9 -10.5l-129 -398h-297zM1098 0
l142 438q7 22 2.5 44.5t-17.5 39.5t-33 28t-42 11h-789q-23 0 -49.5 -10.5t-50.5 -27.5t-43 -39t-27 -46l-142 -438h279l127 391q5 6 13.5 14.5t16.5 8.5h62q11 0 11.5 -8.5t0.5 -14.5l-127 -391h281l128 393l1 2q5 5 12.5 12t14.5 7h63q11 0 11.5 -8.5t1.5 -14.5l-127 -391
h280z" />
    <glyph glyph-name="FL004Eh" unicode="N" 
d="M623 391q-1 6 -1.5 14.5t-11.5 8.5h-146l-135 -414h-279l182 561h596q22 0 42 -11t33 -28t17.5 -39.5t-2.5 -44.5l-142 -438h-280zM72 -59h297l134 414h96l-119 -367h6l32 -47h298l145 447q8 23 3.5 45.5t-16.5 40.5l-21 29q-11 30 -37 50t-58 20h-608l-190 -585h6z" />
    <glyph glyph-name="FL004Fh" unicode="O" 
d="M821 561q28 0 49 -12.5t33 -33t14.5 -46t-5.5 -51.5l-96 -295q-8 -24 -27 -46t-43 -39t-50.5 -27.5t-49.5 -10.5h-466q-23 0 -42.5 10.5t-33 27.5t-18 39t3.5 46l96 295q8 26 27 51.5t44.5 46t54.5 33t57 12.5h452zM384 170q-1 -5 0.5 -14t14.5 -9h124q6 0 15 8.5
t14 14.5l69 212q3 8 1.5 20t-12.5 12h-126q-11 -2 -19.5 -13t-11.5 -19zM825 573h-452q-31 0 -62.5 -14t-59 -36t-48 -49.5t-29.5 -55.5l-96 -295q-11 -32 -1.5 -60.5t31.5 -48.5l19 -27q14 -20 36 -33t48 -13h466q24 0 52.5 11t54.5 29.5t46.5 42t28.5 49.5l96 295
q9 29 5 57.5t-18 50.5l-19 27q-11 30 -35.5 50t-62.5 20zM496 332q2 6 8 13.5t12 9.5h84l-58 -181q-4 -5 -8.5 -10t-6.5 -5h-87z" />
    <glyph glyph-name="FL0050h" unicode="P" 
d="M610 386l0.5 0.5t-0.5 0.5l-9 15zM491 316h73q12 0 24 13t17 26h-102zM40 -12h-6l190 585h587q42 0 65.5 -18.5t33.5 -46.5l18 -26l-2 3l4 -5q11 -17 16 -37.5t5 -43.5q0 -22 -3.5 -43.5t-9.5 -39.5q-13 -39 -34 -78t-49.5 -70t-65.5 -50.5t-81 -19.5h-288l-51 -157h-297
zM329 0l51 157h297q42 0 76.5 18.5t62 48t47.5 67t32 75.5q9 27 12 61t-5 63.5t-30.5 50t-64.5 20.5h-575l-182 -561h279zM602 414q9 0 14 -6t6.5 -14.5t0 -17.5t-3.5 -16q-3 -8 -8.5 -18t-13.5 -18.5t-17.5 -14t-19.5 -5.5h-132l36 110h138z" />
    <glyph glyph-name="FL0051h" unicode="Q" horiz-adv-x="828" 
d="M177 0q-21 1 -40 12t-31.5 28t-17 38.5t3.5 44.5l96 295q8 26 27 51.5t44.5 46t54.5 33t57 12.5h452q28 0 48.5 -12.5t33 -33t15 -46t-5.5 -51.5l-96 -295q-8 -24 -27 -46t-43.5 -39t-51 -27.5t-48.5 -10.5h-96l-35 -40q-17 -19 -40.5 -38.5t-49 -35t-52 -25.5t-50.5 -10
h-390l48 149h194zM593 291l13 42l8 23l4 13q3 11 5 13q3 8 1.5 19t-10.5 13h-126q-11 0 -20.5 -12t-12.5 -20l-69 -212q2 -6 6 -14.5t6 -8.5h127q11 0 17 8.5t11 14.5l18 56zM-81 -161h6l31 -47h399q25 0 53 10.5t55 27t51.5 36.5t42.5 40l31 35h91q24 0 52.5 11t54.5 29.5
t46.5 42t28.5 49.5l96 295q9 29 5 57.5t-18 50.5l-19 27q-11 30 -36 50t-62 20h-452q-31 0 -62.5 -14t-59 -36t-48 -49.5t-29.5 -55.5l-96 -295q-10 -31 -0.5 -59t30.5 -48l3 -4h-138zM498 332q2 6 7.5 14.5t12.5 8.5h83l-59 -182q-3 -3 -2 -3q-7 -11 -11 -11h-87z" />
    <glyph glyph-name="FL0052h" unicode="R" horiz-adv-x="849" 
d="M762 214l-1 -1zM491 316h73q12 0 24 13t17 26h-102zM40 -12h-6l190 585h597q47 0 71 -17.5t32 -43.5l21 -30q18 -27 15.5 -65.5t-14.5 -75.5q-8 -25 -22.5 -54t-33.5 -54.5t-42 -43t-49 -18.5l-2 -4q-1 -4 -2 -4l98 -222h-368l-32 47h-4l-46 107q-6 3 -14 3h-2
q-6 -2 -6 -1l-1 1l-51 -157h-297zM329 0l49 150q0 1 5.5 3t12.5 4h2q17 0 29 -10t19 -24l52 -123h346l-91 209q-1 1 2 8q1 7 9 13q24 0 46 16t40 40.5t31.5 52.5t21.5 52q9 28 13 58t-3.5 55t-30 41t-65.5 16h-585l-182 -561h279zM602 414q9 0 14 -5.5t6.5 -14t0 -17.5
t-3.5 -16q-3 -8 -8.5 -18t-13.5 -18.5t-17.5 -14.5t-19.5 -6h-132l36 110h138z" />
    <glyph glyph-name="FL005Ah" unicode="S" horiz-adv-x="808" 
d="M804 141q-8 -24 -27 -49t-44.5 -45.5t-55 -33.5t-57.5 -13h-570l48 147h406q10 0 19 11t12 19l10 33h-297q-20 0 -39 11.5t-32.5 29.5t-19 40.5t1.5 45.5l29 87q8 26 27 50.5t43.5 44t53.5 31t57 11.5h570l-47 -147h-406q-10 0 -19.5 -11t-11.5 -19l-10 -31h300
q20 0 40 -7.5t34.5 -20.5t21.5 -31t0 -39zM931 355l54 165l-32 47l2 6h-582q-31 0 -62 -12.5t-58 -33.5t-47.5 -48t-29.5 -55l-29 -87q-10 -31 2 -62t35 -51l16 -24q18 -29 46 -41h-156l-56 -171h6l32 -47h579q30 0 61 14t58 35.5t47.5 48t29.5 52.5l37 114q10 34 -9 61
l-21 32q-6 19 -22 33.5t-36 23.5h135z" />
    <glyph glyph-name="FL0055h" unicode="T" horiz-adv-x="789" 
d="M224 573h713l-2 -6l32 -47l-54 -165h-206l-134 -414h-298l-32 47h-6l119 367h-150l-31 47h-6zM185 414h203l-135 -414h280l135 414h206l47 147h-689z" />
    <glyph glyph-name="FL0056h" unicode="U" 
d="M385 170q2 -6 2.5 -14.5t11.5 -8.5h146l134 414h279l-182 -561h-596q-23 0 -42.5 11t-32.5 28t-18 39t3 45l142 438h280zM528 573h-304l-146 -450q-10 -30 -0.5 -58.5t30.5 -48.5l20 -29q14 -20 35.5 -33t47.5 -13h605l188 579l-32 47l2 6h-303l-134 -414h-96l117 361
l-32 47z" />
    <glyph glyph-name="FL0057h" unicode="V" horiz-adv-x="964" 
d="M556 54q-6 -5 -17.5 -14.5t-25 -18.5t-27.5 -15.5t-24 -6.5h-412l182 561h279l-109 -335q0 -1 4 -3t6 -4q5 0 8.5 3.5t9.5 8.5l351 331h328zM1137 573h-357l-297 -280l74 226l-32 47l2 6h-303l-190 -585h6l32 -47h421q12 0 26.5 7t29 16.5t27 19t18.5 15.5l1 1l569 521
l-32 48z" />
    <glyph glyph-name="FL0059h" unicode="W" horiz-adv-x="1149" 
d="M910 282l90 279h280l-182 -561h-360q-15 0 -32.5 23t-33.5 52.5t-27.5 57t-14.5 36.5v3h-3q-3 -4 -18 -18.5t-36 -33.5t-46.5 -40t-49 -39t-44 -29.5t-31.5 -11.5h-353l182 561h280l-90 -279l322 279h22zM774 573h-33l-232 -202l48 149l-32 47l2 6h-304l-190 -585h6
l32 -47h362q15 0 43 17.5t59.5 42t61.5 51t48 44.5q13 -26 28.5 -51.5t31.5 -41.5l14 -19q13 -19 26 -31t24 -12h369l188 579l-32 47l2 6h-304l-82 -254l-104 201l-19 27z" />
    <glyph glyph-name="FL0058h" unicode="X" horiz-adv-x="791" 
d="M98 149h89q9 0 32.5 12t50.5 31t51.5 40.5t35.5 41.5q-11 29 -23 58t-32 56q-7 9 -19 14t-24 7.5t-22 3t-13 0.5h-40l48 148h233q27 0 44 -11.5t27.5 -27.5t16.5 -32.5t12 -26.5q1 0 12.5 12.5t31.5 29t46 33t56 23.5h212l-48 -148h-123q-8 0 -25.5 -11.5t-36.5 -28
t-35 -34t-20 -29.5q-8 -24 -1 -52.5t23 -53t39.5 -40.5t48.5 -16h44l-48 -148h-232q-20 0 -37 10t-30.5 24.5t-24 31.5t-17.5 31q-3 6 -5 9q-28 -29 -53.5 -47.5t-48.5 -31.5q-30 -17 -59 -22t-58 -5h-126zM34 -12h6l32 -47h135q31 0 60.5 5t61.5 24q22 12 44.5 27.5
t47.5 39.5q3 -4 9 -10l16 -22q16 -24 39 -44t55 -20h241l54 166l-32 47l2 6h-56q-19 0 -37 10t-32 26q-12 33 -3 64q4 11 18.5 27t31.5 31t33 25.5t23 10.5h132l54 166l-32 47l2 6h-227q-23 -6 -43.5 -16t-38 -22t-32.5 -25t-25 -23l-12 19q-6 12 -13.5 23.5t-18 21.5
t-25.5 16t-35 6h-245l-56 -172h6l32 -47h49q4 0 23.5 -2t36.5 -11q6 -13 11.5 -25.5t10.5 -25.5v1q0 -1 1 -3l4 -12q-1 -1 1 -3q-12 -18 -34.5 -38t-46 -36.5t-43.5 -27t-28 -10.5h-101z" />
    <glyph glyph-name="FL007Ch" unicode="Y" horiz-adv-x="813" 
d="M581 362q1 0 4.5 3.5t5.5 7.5l65 200h305l-2 -6l32 -47l-138 -426q-11 -32 -28.5 -60t-40.5 -48.5t-49.5 -32.5t-54.5 -12h-603l-32 47h-6l56 171h138q-24 12 -38 35l-20 29q-21 20 -30.5 48.5t0.5 58.5l79 243h304l-2 -6l32 -47l-51 -158h74zM603 372q-5 -6 -12.5 -14
t-13.5 -8h-112q-11 0 -11.5 9.5t-1.5 14.5l60 187h-280l-75 -231q-7 -23 -2.5 -45t17.5 -39t32.5 -28t42.5 -11h302l-7 -23q-7 -20 -17 -27.5t-31 -9.5h-391l-48 -147h594q26 0 50.5 11t45.5 30.5t38 46t27 56.5l135 417h-281z" />
    <glyph glyph-name="FL007Bh" unicode="Z" horiz-adv-x="972" 
d="M810 124l-2 3zM986 160l-2 -6l32 -47l-54 -166h-373q-33 0 -60.5 17.5t-44.5 43.5l-18 25q-34 34 -42 78l-52 228v-1q-2 5 -4 10.5t-4 12.5h-158l-31 47h-6l55 171h368q18 0 35 -8.5t31 -21.5t25.5 -29.5t18.5 -31.5l14 -21q10 -14 16 -28.5t8 -26.5l53 -230v-7t2 -8
q1 -1 5 -1h186zM796 148q-9 0 -17 8.5t-14 20t-9.5 23.5t-4.5 19l-54 233q-3 15 -12.5 34t-24 35.5t-33 28t-39.5 11.5h-356l-47 -147h151q9 0 16.5 -7t13.5 -17.5t10 -21.5t6 -19l55 -239q4 -20 14.5 -39.5t26 -35.5t36 -25.5t44.5 -9.5h364l48 148h-174z" />
    <glyph glyph-name="FL005Bh" unicode="[" horiz-adv-x="470" 
d="M572 468h-89l-122 -375h82l-48 -147h-363l218 669h370zM636 627h-394l-225 -693h6l31 -47h381l54 165l-32 47l2 6h-35l99 304h89l54 165l-32 47z" />
    <glyph glyph-name="FL005Ch" unicode="\" horiz-adv-x="867" 
d="M495 -12h-4l-294 585h359l12 -23l20 -30l291 -579h-352zM829 0l-283 561h-328l283 -561h328z" />
    <glyph glyph-name="FL005Dh" unicode="]" horiz-adv-x="470" 
d="M242 627h394l-2 -6l32 -47l-224 -687h-381l-31 47h-6l55 171h82l99 304h-36l-32 47h-6zM202 468h89l-122 -375h-82l-48 -147h363l218 669h-370z" />
    <glyph glyph-name="FL005Eh" unicode="^" horiz-adv-x="965" 
d="M715 508l17 -23l2 -4l2 -4l4 -6h-1q0 -4 3 -7l3 -3l232 -521h-351l-32 47h-4l-115 280l-106 -326h-297l-32 47h-6l190 585h425q11 0 20.5 -5.5t17 -14t13.5 -18t11 -17.5h-1q0 -2 2 -2l2 -3zM702 506q-3 5 -8.5 14.5t-12.5 18.5t-16 15.5t-20 6.5h-413l-182 -561h279
l109 335q0 1 5.5 3t9.5 4q5 0 6 -2t3 -7l137 -334h329z" />
    <glyph glyph-name="FL005Fh" unicode="_" horiz-adv-x="629" 
d="M643 159l-2 -6l31 -47l-53 -165h-547l-32 47h-6l56 171h553zM98 147l-48 -147h529l48 147h-529z" />
    <glyph glyph-name="FL0061h" unicode="`" horiz-adv-x="1501" 
d="M935 567l32 -47l-54 -165h-206l-101 -313l515 472q6 6 19 16t28 20t30.5 17t27.5 7h424l-2 -6l31 -47l-188 -579h-297l-32 47h-6l75 229l-294 -277h-350l-10 14l-4 -14h-298l-32 47h-6l119 367h-150l-31 47h-6l55 171h713zM902 0l355 334l7 7t7 2q2 -2 6 -4t4 -3
l-109 -335h279l183 561h-412q-10 0 -24 -6.5t-27.5 -15.5t-25 -18t-17.5 -15l-554 -507h328zM921 561h-689l-47 -147h203l-135 -414h280l135 414h206z" />
    <glyph glyph-name="a" unicode="a" horiz-adv-x="964" 
d="M18 -13h-9l575 526q6 6 18.5 16t27.5 20t30.5 17t27.5 7h424l-2 -6l32 -47l-188 -579h-297l-32 47h-6l75 229l-294 -277h-350zM365 -1l354 334q5 5 7.5 7t7.5 2q2 -2 6 -4t4 -3l-109 -335h279l182 561h-412q-10 0 -24 -6.5t-27.5 -15.5t-25 -18t-17.5 -15l-553 -507h328z
" />
    <glyph glyph-name="FL0062h" unicode="b" 
d="M40 -12h-6l190 585h586q43 0 68 -20.5t36 -50.5l16 -22l3 -4q19 -28 21 -65t-9 -70q-9 -28 -27.5 -57.5t-43.5 -49.5q14 -23 12.5 -52.5t-12.5 -61.5q-10 -30 -28.5 -61.5t-45.5 -57.5t-63 -43t-81 -17h-584zM625 0q42 0 76.5 16t60 41t43 55t26.5 58q11 32 12.5 63
t-15.5 52q27 17 46 47.5t28 58.5q9 27 8.5 57t-11.5 55t-33.5 41.5t-59.5 16.5h-574l-182 -561h575zM535 211q21 0 26 -7t0 -23q-5 -14 -16 -24t-30 -10h-138l21 64h137zM464 414h137q19 0 23.5 -10t-0.5 -24q-5 -17 -14.5 -23.5t-30.5 -6.5h-136z" />
    <glyph glyph-name="FL0063h" unicode="c" horiz-adv-x="743" 
d="M828 414h-342q-10 0 -19.5 -11t-11.5 -19l-70 -214q-2 -10 2 -16.5t12 -6.5h336l-48 -147h-507q-23 0 -42.5 10.5t-33 27.5t-18 39t3.5 46l96 295q8 26 27 51.5t44.5 46t54.5 33t57 12.5h506zM891 573h-518q-31 0 -62.5 -14t-59 -36t-48 -49.5t-29.5 -55.5l-96 -295
q-11 -32 -1.5 -60.5t31.5 -48.5l19 -27q14 -20 36 -33t48 -13h516l53 165l-31 47l2 6h-310l57 175q2 6 7.5 13.5t10.5 7.5h351l54 165l-32 47z" />
    <glyph glyph-name="d" unicode="d" horiz-adv-x="819" 
d="M442 162h44q16 0 27.5 8t19.5 20t13.5 26.5t10.5 28.5l22 68q2 7 4 15l4 16h-86zM40 -12h-6l190 585h621q26 0 44.5 -18t28.5 -44l18 -26q14 -22 19 -50t-3 -54l-105 -321q-6 -20 -22 -41t-37 -38t-43.5 -28.5t-41.5 -11.5h-631zM672 0q18 0 38.5 10.5t39.5 26.5t34 35.5
t21 37.5l104 321q7 20 4.5 43t-11.5 42.5t-25 32t-36 12.5h-609l-182 -561h622zM578 403q14 0 19.5 -9t5.5 -23q0 -13 -4 -29t-8 -29l-22 -68q-5 -15 -11.5 -32t-16.5 -31t-24 -23t-35 -9h-103l82 253h117z" />
    <glyph glyph-name="E" unicode="e" horiz-adv-x="743" 
d="M828 414h-342q-10 0 -20 -12t-13 -20q-4 -11 1 -21t18 -10h335l-46 -143h-342q-1 0 -5 -2.5t-8.5 -6.5l-9 -8t-6.5 -7q-3 -3 -3 -7q-1 -2 -1 -4t-1 -3q2 -6 7 -14.5t7 -8.5h342l-48 -147h-513q-23 0 -42.5 10.5t-33 27.5t-18 39t3.5 46l96 295q8 26 27 51.5t44.5 46
t54.5 33t57 12.5h506zM891 573h-518q-31 0 -62.5 -14t-59 -36t-48 -49.5t-29.5 -55.5l-96 -295q-11 -32 -1.5 -60.5t31.5 -48.5l19 -27q14 -20 36 -33t48 -13h522l53 165l-29 43h43l53 161l-31 45h45l54 165l-32 47z" />
    <glyph glyph-name="FL0066h" unicode="f" horiz-adv-x="743" 
d="M828 414h-342q-10 0 -20 -12t-13 -20q-4 -11 1 -21t18 -10h335l-46 -143h-342q-1 0 -5 -2.5t-8.5 -6.5l-9 -8t-6.5 -7l-60 -184h-280l136 418q8 26 27 51.5t44.5 46t54.5 33t57 12.5h506zM891 573h-518q-31 0 -62.5 -14t-59 -36t-48 -49.5t-29.5 -55.5l-140 -430h6
l32 -47h298l62 190q4 5 10 11.5t7 6.5h351l53 161l-31 45h45l54 165l-32 47z" />
    <glyph glyph-name="FL0067h" unicode="g" 
d="M441 159h31l-21 31zM823 355q17 -10 29.5 -24t17.5 -31l21 -30q10 -14 13 -31t-3 -36l-42 -130q-8 -26 -28.5 -49.5t-46.5 -42t-54.5 -29.5t-52.5 -11h-466q-26 0 -47.5 13t-35.5 33l-20 29q-21 20 -30.5 48.5t0.5 58.5l96 295q9 28 29.5 55.5t48 49.5t59 36t62.5 14h598
l-2 -6l32 -47l-54 -165h-124zM858 253q7 21 0.5 40.5t-21 34t-34.5 23t-40 8.5h-260l-48 -148h111l-14 -41q-5 -6 -13 -14.5t-16 -8.5h-124q-11 0 -11.5 8.5t-2.5 14.5l69 212h-2l3 2q2 8 11.5 19t19.5 11h422l47 147h-586q-28 0 -57 -12.5t-54.5 -33t-44.5 -46t-27 -51.5
l-96 -295q-8 -23 -3 -45t18 -39t32.5 -28t42.5 -11h466q23 0 49.5 10.5t50.5 27.5t43 39t27 46z" />
    <glyph glyph-name="FL0068h" unicode="h" horiz-adv-x="796" 
d="M526 567l32 -47l-51 -157h64l68 210h305l-2 -6l32 -47l-188 -579h-299l-32 47h-6l52 161h-64l-67 -208h-298l-32 47h-6l190 585h304zM579 351h-135l68 210h-280l-182 -561h280l68 208h135l-68 -208h281l182 561h-281z" />
    <glyph glyph-name="FL0069h" unicode="i" horiz-adv-x="380" 
d="M224 573h304l-2 -6l32 -47l-188 -579h-298l-32 47h-6zM50 0h280l182 561h-280z" />
    <glyph glyph-name="FL006Ah" unicode="j" horiz-adv-x="743" 
d="M740 144q-10 -30 -26.5 -56.5t-37.5 -46t-45.5 -30.5t-51.5 -11h-529l48 147h325q22 2 32.5 9.5t17.5 27.5l122 377h280zM72 -59h538q29 0 56 12t49.5 32.5t39.5 48.5t28 60l138 426l-32 47l2 6h-304l-126 -389q-5 -14 -12.5 -19t-22.5 -6h-336l-56 -171h6z" />
    <glyph glyph-name="FL006Bh" unicode="k" horiz-adv-x="791" 
d="M675 251q-5 -14 -5.5 -28t2.5 -28q33 -35 77 -35h56l-2 -6l32 -47l-54 -166h-241q-32 0 -55 20t-39 44l-13 18l-14 16t-12 17l-37 -115h-298l-32 47h-6l190 585h304l-2 -6l32 -47l-9 -28q10 9 27.5 22t39 25t47 21.5t51.5 12.5h225l-2 -6l32 -47l-54 -166h-104
q-12 0 -33 -10t-42 -25.5t-38.5 -33.5t-22.5 -34zM400 97q7 -14 17.5 -31t24 -31.5t30.5 -24.5t37 -10h232l48 148h-44q-25 0 -49.5 13t-41.5 34.5t-24 49t2 56.5q6 18 24.5 37.5t41.5 36t45.5 27.5t36.5 11h95l48 148h-212q-30 -3 -57.5 -15t-50 -26t-37.5 -27t-20 -18v-2
q-32 -23 -53.5 -53.5t-45.5 -60.5l65 202h-280l-182 -561h280l53 164z" />
    <glyph glyph-name="l" unicode="l" horiz-adv-x="743" 
d="M512 561l-122 -377q-7 -20 -0.5 -27.5t26.5 -9.5h325l-48 -147h-528q-26 0 -44 11t-26.5 30.5t-8.5 44.5q0 26 10 56l136 419h280zM224 573l-140 -431q-15 -46 -9.5 -82.5t30.5 -55.5l22 -30q22 -33 69 -33h537l53 165l-31 47l2 6h-316l117 361l-32 47l2 6h-304z" />
    <glyph glyph-name="FL006Dh" unicode="m" horiz-adv-x="1149" 
d="M678 479q9 -15 18.5 -32t17.5 -34q21 20 52.5 47.5t63.5 52.5t59.5 42.5t42.5 17.5h365l-2 -6l32 -47l-188 -579h-298l-32 47h-6l49 151l-229 -198h-31l-32 47h-4l-105 202l-81 -249h-298l-32 47h-6l190 585h372q9 0 19 -7.5t20 -20t19.5 -28.5t18.5 -32zM910 279
l-91 -279h280l182 561h-353q-11 0 -31.5 -11.5t-44 -29.5t-49 -39t-47 -40t-36.5 -33.5t-18 -18.5h-2q1 1 -1 3q-3 9 -14.5 36.5t-27 57t-33 52.5t-32.5 23h-360l-182 -561h280l91 279l144 -279h22z" />
    <glyph glyph-name="FL0071h" unicode="n" horiz-adv-x="959" 
d="M580 573q16 0 31 -9.5t28 -23.5t23.5 -30t16.5 -30l10 -15q19 -28 25 -50l18 -68l73 226h302l-2 -6l32 -47l-188 -579h-331q-30 0 -51.5 15t-35.5 37l-15 20q-18 17 -30.5 40t-19.5 44l-23 69l-73 -225h-298l-32 47h-6l190 585h356zM720 275l-50 185q-3 13 -12.5 30.5
t-22 33t-28 26.5t-31.5 11h-344l-182 -561h280l91 279l58 -175q6 -17 15.5 -35.5t22 -33.5t30 -25t40.5 -10h322l182 561h-278z" />
    <glyph glyph-name="FL006Fh" unicode="o" 
d="M440 159h87q2 0 6.5 5t8.5 10l58 181h-84q-6 -2 -12 -9.5t-8 -13.5zM825 573q38 0 62.5 -20t35.5 -50l19 -27q14 -22 18 -50.5t-5 -57.5l-96 -295q-8 -26 -28.5 -49.5t-46.5 -42t-54.5 -29.5t-52.5 -11h-466q-26 0 -48 13t-36 33l-19 27q-22 20 -31.5 48.5t1.5 60.5
l96 295q9 28 29.5 55.5t48 49.5t59 36t62.5 14h452zM453 382q3 8 11.5 19t19.5 13h126q11 0 12.5 -12t-1.5 -20l-69 -212q-5 -6 -14 -14.5t-15 -8.5h-124q-13 0 -14.5 9t-0.5 14zM369 561q-28 0 -57 -12.5t-54.5 -33t-44.5 -46t-27 -51.5l-96 -295q-8 -24 -3.5 -46t18 -39
t33 -27.5t42.5 -10.5h466q23 0 49.5 10.5t50.5 27.5t43 39t27 46l96 295q8 26 5.5 51.5t-14.5 46t-33 33t-49 12.5h-452z" />
    <glyph glyph-name="FL0070h" unicode="p" 
d="M560 304q10 0 19.5 5.5t17.5 14t13.5 18.5t8.5 18q2 7 3.5 16t0 17.5t-6.5 14.5t-14 6h-138l-36 -110h132zM807 561q42 0 64.5 -20.5t30.5 -50t5 -63.5t-12 -61q-12 -38 -32 -75.5t-47.5 -67t-62 -48t-76.5 -18.5h-297l-51 -157h-279l182 561h575zM224 573l-190 -585h6
l32 -47h297l51 157h288q44 0 81 19.5t65.5 50.5t49.5 70t34 78q6 18 9.5 39.5t3.5 43.5q0 23 -5 43.5t-16 37.5l-20 28q-10 28 -33.5 46.5t-65.5 18.5h-587zM503 355h102q-5 -13 -17 -26t-24 -13h-73zM610 386l-9 16l9 -15q1 0 0.5 -0.5z" />
    <glyph glyph-name="FL0072h" unicode="q" 
d="M385 170q2 -6 2.5 -14.5t11.5 -8.5h127q2 0 11.5 8.5t14.5 14.5l69 212q3 8 1.5 20t-12.5 12h-126q-11 -2 -19.5 -13t-11.5 -19q1 -1 -3 -13l-4 -13l-8 -23l-13 -42l-22 -65zM797 -149h-390q-24 0 -44 10t-36 25.5t-27 35t-15 38.5l-9 40h-96q-23 0 -42.5 10.5t-33 27.5
t-18 39t3.5 46l96 295q8 26 27 51.5t44.5 46t54.5 33t57 12.5h452q28 0 49 -12.5t33 -33t14.5 -46t-5.5 -51.5l-96 -295q-8 -23 -26 -44.5t-41.5 -38.5t-49.5 -28t-48 -12h194zM861 12h-43q30 29 41 61l96 295q9 29 5 57.5t-18 50.5l-19 27q-11 30 -35.5 50t-62.5 20h-452
q-31 0 -62.5 -14t-59 -36t-48 -49.5t-29.5 -55.5l-96 -295q-11 -32 -1.5 -60.5t31.5 -48.5l19 -27q14 -20 36 -33t48 -13h65q6 -17 17.5 -34.5t25.5 -31.5l15 -21q17 -26 43.5 -44t59.5 -18h399l55 167l-32 47zM493 319q3 9 3 14q2 6 8 13t12 9h84l-58 -181q-4 -5 -8.5 -10
t-3.5 -5h-89zM397 170l1 2q2 -2 -1 -2z" />
    <glyph glyph-name="r" unicode="r" horiz-adv-x="849" 
d="M762 214l-1 -1zM491 316h73q12 0 24 13t17 26h-102zM40 -12h-6l190 585h597q47 0 71 -17.5t32 -43.5l21 -30q18 -27 15.5 -65.5t-14.5 -75.5q-8 -25 -22.5 -54t-33.5 -54.5t-42 -43t-49 -18.5l-2 -4q-1 -4 -2 -4l98 -222h-368l-32 47h-4l-46 107q-6 3 -14 3h-2
q-6 -2 -6 -1l-1 1l-51 -157h-297zM329 0l49 150q0 1 5.5 3t12.5 4h2q17 0 29 -10t19 -24l52 -123h346l-91 209q-1 1 2 8q1 7 9 13q24 0 46 16t40 40.5t31.5 52.5t21.5 52q9 28 13 58t-3.5 55t-30 41t-65.5 16h-585l-182 -561h279zM602 414q9 0 14 -5.5t6.5 -14t0 -17.5
t-3.5 -16q-3 -8 -8.5 -18t-13.5 -18.5t-17.5 -14.5t-19.5 -6h-132l36 110h138z" />
    <glyph glyph-name="s" unicode="s" horiz-adv-x="940" 
d="M40 -12h-6l56 172h159q7 0 17 6.5t21 16.5t21.5 20.5t17.5 18.5l206 235q9 10 32 29t51.5 38.5t58 34t51.5 14.5h363l-2 -6l32 -47l-54 -165h-155q-8 0 -19.5 -7t-23.5 -16.5t-22 -20.5t-16 -18l-208 -237q-18 -20 -41.5 -40.5t-50.5 -37t-55 -27t-55 -10.5h-346zM387 0
q25 0 52 10t52.5 26t48.5 35.5t40 38.5l209 239q6 8 17 19t24.5 21.5t26.5 17.5t22 7h146l47 147h-351q-21 0 -48.5 -13.5t-53.5 -31.5t-47.5 -36.5t-29.5 -27.5l-208 -237l-19.5 -19.5t-24 -22t-24.5 -18t-21 -7.5h-147l-48 -148h337z" />
    <glyph glyph-name="FL0074h" unicode="t" horiz-adv-x="789" 
d="M874 414h-206l-135 -414h-280l135 414h-203l47 147h689zM937 573h-713l-55 -171h6l31 -47h150l-119 -367h6l32 -47h298l134 414h206l54 165l-32 47z" />
    <glyph glyph-name="FL0075h" unicode="u" 
d="M385 170q2 -6 2.5 -14.5t11.5 -8.5h124q8 0 16 8t13 14l127 392h279l-142 -438q-8 -24 -27 -46t-43 -39t-50.5 -27.5t-49.5 -10.5h-466q-23 0 -42.5 11t-32.5 28t-18 39t3 45l142 438h280zM528 573h-304l-146 -450q-10 -30 -0.5 -58.5t30.5 -48.5l20 -29q14 -20 35.5 -33
t47.5 -13h466q24 0 52.5 11t54.5 29.5t46.5 42t28.5 49.5l145 447l-32 47l2 6h-303l-130 -400q-4 -5 -8 -9.5t-6 -4.5h-86l117 361l-32 47z" />
    <glyph glyph-name="FL0076h" unicode="v" horiz-adv-x="964" 
d="M547 561l137 -331q2 -5 3.5 -8.5t6.5 -3.5q4 2 9 4t5 3l109 335h279l-182 -561h-412q-11 0 -20.5 6.5t-17 15.5t-13 18.5t-7.5 14.5l-225 507h328zM199 573l233 -527q3 -8 11 -21t20 -24l18 -25q9 -13 22 -24.5t30 -11.5h421l188 579l-32 47l2 6h-303l-107 -329l-114 277
l-26 37l-6 16h-357z" />
    <glyph glyph-name="FL0077h" unicode="w" horiz-adv-x="1149" 
d="M782 159q-2 -2 1 -2zM528 573l-2 -6l32 -47l-117 -361h25q1 0 4.5 3.5t5.5 6.5l3 2l130 402h305l-2 -6l32 -47l-117 -361h23q2 0 6.5 5t8.5 10l129 399h303l-2 -6l32 -47l-145 -447q-8 -26 -28.5 -49.5t-46.5 -42t-54.5 -29.5t-52.5 -11h-789q-26 0 -47.5 13t-35.5 33
l-20 29q-21 20 -30.5 48.5t0.5 58.5l146 450h304zM232 561l-142 -438q-8 -23 -3 -45t18 -39t32.5 -28t42.5 -11h789q23 0 49.5 10.5t50.5 27.5t43 39t27 46l142 438h-279l-127 -391q-5 -6 -13 -14.5t-16 -8.5h-62q-11 0 -11.5 8.5t-1.5 14.5l127 391h-281l-127 -393l-2 -2
l-12 -12t-14 -7h-63q-11 0 -11.5 8.5t-2.5 14.5l127 391h-280z" />
    <glyph glyph-name="x" unicode="x" horiz-adv-x="791" 
d="M677 260q-9 -31 3 -64q14 -16 32 -26t37 -10h56l-2 -6l32 -47l-54 -166h-241q-32 0 -55 20t-39 44l-16 22q-6 6 -9 10q-25 -24 -47.5 -39.5t-44.5 -27.5q-32 -19 -61.5 -24t-60.5 -5h-135l-32 47h-6l56 173h101q8 0 28 10.5t43.5 27t46 36.5t34.5 38q-2 2 -1 3l-4 12
q-1 2 -1 3v-1q-5 13 -10.5 25.5t-11.5 25.5q-17 9 -36.5 11t-23.5 2h-49l-32 47h-6l56 172h245q20 0 35 -6t25.5 -16t18 -21.5t13.5 -23.5l12 -19q10 10 25 23t32.5 25t38 22t43.5 16h227l-2 -6l32 -47l-54 -166h-132q-7 0 -23 -10.5t-33 -25.5t-31.5 -31t-18.5 -27zM176 0
q29 0 58 5t59 22q23 13 48.5 31.5t53.5 47.5q2 -3 5 -9q7 -14 17.5 -31t24 -31.5t30.5 -24.5t37 -10h232l48 148h-44q-25 0 -48.5 16t-39.5 40.5t-23 53t1 52.5q4 12 20 29.5t35 34t36.5 28t25.5 11.5h123l48 148h-212q-30 -7 -56 -23.5t-46 -33t-31.5 -29t-12.5 -12.5
q-6 10 -12 26.5t-16.5 32.5t-27.5 27.5t-44 11.5h-233l-48 -148h40q3 0 13 -0.5t22 -3t24 -7.5t19 -14q20 -27 32 -56t23 -58q-11 -20 -35.5 -41.5t-51.5 -40.5t-50.5 -31t-32.5 -12h-89l-48 -149h126z" />
    <glyph glyph-name="FL0079h" unicode="y" horiz-adv-x="791" 
d="M773 413q-10 -4 -31.5 -15.5t-44 -27t-41 -33.5t-24.5 -35l-98 -302h-280l92 284q1 17 -3 30t-10.5 24.5t-15 21t-16.5 20.5q-9 12 -21 18.5t-23.5 9.5t-20.5 4t-12 1h-40l48 148h226q27 0 44 -12t27.5 -28.5t17 -33.5t13.5 -27q1 0 12.5 13t31 30t45 33.5t55.5 24.5h219
l-48 -148h-102zM206 354h49q2 0 9.5 -0.5t17.5 -3.5t20.5 -8.5t19.5 -14.5q11 -20 11 -47l-95 -292h6l32 -47h298l101 311q5 15 22 31t37.5 30t40.5 25t31 16h109l54 166l-32 47l2 6h-234q-23 -6 -44 -17.5t-38.5 -24t-32 -25.5t-23.5 -23l-12 19q-6 12 -13.5 25t-18 23
t-25.5 16.5t-36 6.5h-238l-56 -172h6z" />
    <glyph glyph-name="FL007Dh" unicode="z" horiz-adv-x="939" 
d="M554 0q-24 0 -44.5 10t-36.5 26t-26.5 35.5t-14.5 38.5l-55 239q-2 8 -6 19t-10 21.5t-13.5 17.5t-17.5 7h-145l47 147h351q21 0 39.5 -13.5t33 -31.5t24 -36.5t12.5 -27.5l53 -233q2 -7 5.5 -19t9 -23.5t13.5 -20t18 -8.5h146l-48 -148h-335zM789 174l-2 1l-52 228
q-2 8 -9.5 23t-18.5 32l-13 18q-8 15 -18.5 32t-24.5 31.5t-30 24t-34 9.5h-363l-55 -171h6l31 -47h153q2 -7 4 -12.5t4 -10.5v1l52 -228q4 -20 15 -41t28 -38l17 -23q17 -26 44.5 -44t61.5 -18h344l54 166l-32 47l2 6h-158h-4q-2 10 -2 14zM378 343v1q1 0 0 -1z" />
    <glyph glyph-name="FL0060h" unicode="{" horiz-adv-x="1527" 
d="M710 160h126q7 0 17 6.5t21 16.5t21.5 20.5t17.5 18.5l116 133h-120q-8 0 -19.5 -7t-23.5 -16.5t-22 -20.5t-16 -18zM1084 417l35 40q9 10 32 29t51.5 38.5t58 34t51.5 14.5h363l-2 -6l32 -47l-54 -165h-155q-8 0 -19.5 -7t-23.5 -16.5t-22 -20.5t-16 -18l-208 -237
q-18 -20 -41.5 -40.5t-50.5 -37t-55 -27t-55 -10.5h-346l-32 47h-6l36 109l-37 -41q-18 -20 -41.5 -40.5t-50.5 -37t-55 -27t-55 -10.5h-346l-32 47h-6l56 172h159q7 0 17 6.5t21 16.5t21.5 20.5t17.5 18.5l206 235q9 10 32 29t51.5 38.5t58 34t51.5 14.5h363l-2 -6l32 -47z
M974 0q25 0 52 10t52.5 26t48.5 35.5t40 38.5l209 239q6 8 17 19t24.5 21.5t26.5 17.5t22 7h146l47 147h-351q-21 0 -48.5 -13.5t-53.5 -31.5t-47.5 -36.5t-29.5 -27.5l-208 -237l-19.5 -19.5t-24 -22t-24.5 -18t-21 -7.5h-147l-48 -148h337zM387 0q25 0 52 10t52.5 26
t48.5 35.5t40 38.5l209 239q6 8 17 19t24.5 21.5t26.5 17.5t22 7h146l47 147h-351q-21 0 -48.5 -13.5t-53.5 -31.5t-47.5 -36.5t-29.5 -27.5l-208 -237l-19.5 -19.5t-24 -22t-24.5 -18t-21 -7.5h-147l-48 -148h337z" />
    <glyph glyph-name="FL007Eh" unicode="|" horiz-adv-x="380" 
d="M275 -169h-280l292 899h280zM583 742h-304l-300 -923h6l32 -47h298l298 917l-32 47z" />
    <glyph glyph-name="FL0083h" unicode="}" horiz-adv-x="1577" 
d="M1082 408l115 106q6 6 19 16t28 20t30.5 17t27.5 7h424l-2 -6l31 -47l-188 -579h-297l-32 47h-6l75 229l-294 -277h-350l-32 47h-9l401 367h-114q-8 0 -19.5 -7t-23.5 -16.5t-22 -20.5t-16 -18l-208 -237q-18 -20 -41.5 -40.5t-50.5 -37t-55 -27t-55 -10.5h-346l-32 47
h-6l56 172h159q7 0 17 6.5t21 16.5t21.5 20.5t17.5 18.5l206 235q9 10 32 29t51.5 38.5t58 34t51.5 14.5h363l-2 -6l32 -47zM978 0l355 334l7 7t7 2q2 -2 6 -4t4 -3l-109 -335h279l183 561h-412q-10 0 -24 -6.5t-27.5 -15.5t-25 -18t-17.5 -15l-554 -507h328zM387 0
q25 0 52 10t52.5 26t48.5 35.5t40 38.5l209 239q6 8 17 19t24.5 21.5t26.5 17.5t22 7h146l47 147h-351q-21 0 -48.5 -13.5t-53.5 -31.5t-47.5 -36.5t-29.5 -27.5l-208 -237l-19.5 -19.5t-24 -22t-24.5 -18t-21 -7.5h-147l-48 -148h337z" />
    <glyph glyph-name="FL0082h" unicode="~" horiz-adv-x="1506" 
d="M935 567l32 -47l-54 -165h-206l-134 -414h-298l-32 47h-6l119 367h-150l-31 47h-6l55 171h713zM606 -12h-6l56 172h159q6 0 16 6.5t20.5 15.5t20.5 19.5t18 18.5l2 2l206 235q9 10 32 29t51.5 38.5t58 34t51.5 14.5h363l-2 -6l32 -47l-54 -165h-155q-8 0 -19.5 -7
t-23.5 -16.5t-22 -20.5t-16 -18l-208 -237q-18 -20 -41.5 -40.5t-50.5 -37t-55 -27t-55 -10.5h-346zM953 0q25 0 52 10t52.5 26t48.5 35.5t40 38.5l209 239q6 8 17 19t24.5 21.5t26.5 17.5t22 7h146l47 147h-351q-21 0 -48.5 -13.5t-53.5 -31.5t-47.5 -36.5t-29.5 -27.5
l-208 -237l-19.5 -19.5t-24 -22t-24.5 -18t-21 -7.5h-147l-48 -148h337zM921 561h-689l-47 -147h203l-135 -414h280l135 414h206z" />
    <glyph glyph-name="FL007Fh" horiz-adv-x="236" 
 />
    <glyph glyph-name="FL20ACh" horiz-adv-x="847" 
d="M159 371h118l15 47q9 28 29.5 55.5t48 49.5t59 36t62.5 14h504l-2 -6l32 -47l-54 -165h-205l25 -37l-26 -82h-14l9 -14l-20 -63h115l-2 -6l31 -47l-53 -165h-502q-26 0 -48 13t-36 33l-19 27q-22 20 -31.5 48.5t1.5 60.5l5 17h-65l-31 47h-6l28 88h14l-5 8h-6zM146 295
h118l-11 -32h-118l-20 -64h118l-25 -76q-8 -24 -3.5 -46t18 -39t33 -27.5t42.5 -10.5h493l48 147h-322q-8 0 -12 6.5t-2 16.5l10 29h181l20 64h-181l11 32h181l21 64h-181l8 25q2 8 11.5 19t19.5 11h328l47 147h-492q-28 0 -57 -12.5t-54.5 -33t-44.5 -46t-27 -51.5l-19 -59
h-118z" />
    <glyph glyph-name="FL20ACh" unicode="&#x20ac;" horiz-adv-x="847" 
d="M159 371h118l15 47q9 28 29.5 55.5t48 49.5t59 36t62.5 14h504l-2 -6l32 -47l-54 -165h-205l25 -37l-26 -82h-14l9 -14l-20 -63h115l-2 -6l31 -47l-53 -165h-502q-26 0 -48 13t-36 33l-19 27q-22 20 -31.5 48.5t1.5 60.5l5 17h-65l-31 47h-6l28 88h14l-5 8h-6zM146 295
h118l-11 -32h-118l-20 -64h118l-25 -76q-8 -24 -3.5 -46t18 -39t33 -27.5t42.5 -10.5h493l48 147h-322q-8 0 -12 6.5t-2 16.5l10 29h181l20 64h-181l11 32h181l21 64h-181l8 25q2 8 11.5 19t19.5 11h328l47 147h-492q-28 0 -57 -12.5t-54.5 -33t-44.5 -46t-27 -51.5l-19 -59
h-118z" />
    <glyph glyph-name="FL017Fh" horiz-adv-x="1527" 
d="M553 0q-24 0 -44.5 10t-36 26t-26 35.5t-14.5 38.5l-55 239q0 8 -4 19t-10.5 21.5t-14.5 17.5t-17 7h-146l47 147h351q21 0 39.5 -13.5t33.5 -31.5t24.5 -36.5t11.5 -27.5l54 -237q2 -8 6 -19.5t10 -22t13 -18t16 -7.5h147l-48 -148h-337zM1140 0q-24 0 -44.5 10t-36 26
t-26 35.5t-14.5 38.5l-55 239q0 8 -4 19t-10.5 21.5t-14.5 17.5t-17 7h-146l47 147h351q21 0 39.5 -13.5t33.5 -31.5t24.5 -36.5t11.5 -27.5l54 -237q2 -8 6 -19.5t10 -22t13 -18t16 -7.5h147l-48 -148h-337zM1376 170v1l-54 235q-5 16 -24 48l-12 15q-5 13 -16 31t-26 34
t-33 27.5t-37 11.5h-363l-55 -171h6l31 -47h155h1q2 -4 2 -8q0 -3 1 -5l54 -237q4 -20 15 -41t28 -38l17 -23q17 -26 44.5 -44t60.5 -18h346l54 166l-32 47l2 6h-159h-3q-1 3 -2 5.5t-1 4.5zM789 170v1l-54 235q-5 16 -24 48l-12 15q-5 13 -16 31t-26 34t-33 27.5t-37 11.5
h-363l-55 -171h6l31 -47h155h1q2 -4 2 -8q0 -3 1 -5l54 -237q4 -20 15 -41t28 -38l17 -23q17 -26 44.5 -44t60.5 -18h346l54 166l-32 47l2 6h-159h-3q-1 3 -2 5.5t-1 4.5zM969 341l-1 1q1 0 1 -1zM382 341l-1 1q1 0 1 -1z" />
    <glyph glyph-name="FL017Fh" unicode="&#x17d;" horiz-adv-x="1527" 
d="M553 0q-24 0 -44.5 10t-36 26t-26 35.5t-14.5 38.5l-55 239q0 8 -4 19t-10.5 21.5t-14.5 17.5t-17 7h-146l47 147h351q21 0 39.5 -13.5t33.5 -31.5t24.5 -36.5t11.5 -27.5l54 -237q2 -8 6 -19.5t10 -22t13 -18t16 -7.5h147l-48 -148h-337zM1140 0q-24 0 -44.5 10t-36 26
t-26 35.5t-14.5 38.5l-55 239q0 8 -4 19t-10.5 21.5t-14.5 17.5t-17 7h-146l47 147h351q21 0 39.5 -13.5t33.5 -31.5t24.5 -36.5t11.5 -27.5l54 -237q2 -8 6 -19.5t10 -22t13 -18t16 -7.5h147l-48 -148h-337zM1376 170v1l-54 235q-5 16 -24 48l-12 15q-5 13 -16 31t-26 34
t-33 27.5t-37 11.5h-363l-55 -171h6l31 -47h155h1q2 -4 2 -8q0 -3 1 -5l54 -237q4 -20 15 -41t28 -38l17 -23q17 -26 44.5 -44t60.5 -18h346l54 166l-32 47l2 6h-159h-3q-1 3 -2 5.5t-1 4.5zM789 170v1l-54 235q-5 16 -24 48l-12 15q-5 13 -16 31t-26 34t-33 27.5t-37 11.5
h-363l-55 -171h6l31 -47h155h1q2 -4 2 -8q0 -3 1 -5l54 -237q4 -20 15 -41t28 -38l17 -23q17 -26 44.5 -44t60.5 -18h346l54 166l-32 47l2 6h-159h-3q-1 3 -2 5.5t-1 4.5zM969 341l-1 1q1 0 1 -1zM382 341l-1 1q1 0 1 -1z" />
    <glyph glyph-name="FL017Eh" horiz-adv-x="940" 
d="M705 728l66 64h169l-180 -166h-177l-73 166h169zM553 0q-24 0 -44.5 10t-36 26t-26 35.5t-14.5 38.5l-55 239q0 8 -4 19t-10.5 21.5t-14.5 17.5t-17 7h-146l47 147h351q21 0 40 -13.5t34 -31.5t24 -36t11 -28l54 -237q2 -8 6 -19.5t10 -22t13 -18t16 -7.5h147l-48 -148
h-337zM688 804h-198l85 -190h4l29 -45q-5 2 -10.5 3t-10.5 1h-363l-55 -171h6l31 -47h155h1q2 -4 2 -8q0 -3 1 -5l54 -237q4 -20 15 -41t28 -38l17 -23q17 -26 44.5 -44t60.5 -18h346l54 166l-32 47l2 6h-159h-3q-1 3 -2 5.5t-1 4.5v1l-54 235q-2 8 -8 22t-17 29l-7 9
q2 -2 3 -2l-8 11q-5 11 -13 24.5t-18.5 26t-23.5 24t-28 17.5h180l200 184l-32 48l5 5h-198l-53 -50l-23 35zM382 341l-1 1q1 0 1 -1z" />
    <glyph glyph-name="FL017Eh" unicode="&#x17e;" horiz-adv-x="940" 
d="M705 728l66 64h169l-180 -166h-177l-73 166h169zM553 0q-24 0 -44.5 10t-36 26t-26 35.5t-14.5 38.5l-55 239q0 8 -4 19t-10.5 21.5t-14.5 17.5t-17 7h-146l47 147h351q21 0 40 -13.5t34 -31.5t24 -36t11 -28l54 -237q2 -8 6 -19.5t10 -22t13 -18t16 -7.5h147l-48 -148
h-337zM688 804h-198l85 -190h4l29 -45q-5 2 -10.5 3t-10.5 1h-363l-55 -171h6l31 -47h155h1q2 -4 2 -8q0 -3 1 -5l54 -237q4 -20 15 -41t28 -38l17 -23q17 -26 44.5 -44t60.5 -18h346l54 166l-32 47l2 6h-159h-3q-1 3 -2 5.5t-1 4.5v1l-54 235q-2 8 -8 22t-17 29l-7 9
q2 -2 3 -2l-8 11q-5 11 -13 24.5t-18.5 26t-23.5 24t-28 17.5h180l200 184l-32 48l5 5h-198l-53 -50l-23 35zM382 341l-1 1q1 0 1 -1z" />
    <glyph glyph-name="FL00A1h" unicode="&#xa1;" horiz-adv-x="380" 
d="M236 387q-18 14 -24.5 35t1.5 47q7 22 23.5 41t38.5 33t48 22t53 8q38 0 64.5 -16t33.5 -42l22 -32h-1l2 -1q8 -13 10 -29t-4 -34q-8 -25 -28 -45.5t-47 -34.5l1 -1l31 -45l-7 -95l-83 -257h-298l-32 47h-6l85 261l57 97h88q-6 6 -7 10zM460 469q6 19 2 36t-16 29.5
t-31 19.5t-43 7t-47.5 -7t-43.5 -19.5t-35 -29.5t-21 -36q-6 -20 -2.5 -36.5t15.5 -29t31 -19.5t43 -7t47.5 7t44 19.5t35.5 29t21 36.5zM410 246l7 88h-235l-52 -88l-80 -246h280z" />
    <glyph glyph-name="FL00A2h" unicode="&#xa2;" horiz-adv-x="808" 
d="M767 29h-188l-28 -89h-224l28 89h-158q-28 0 -49 13t-33 33.5t-15 45.5t5 49l74 228q9 26 28 50.5t43.5 44t53.5 31t57 11.5h157l31 96h224l-31 -96h189l-48 -147h-406q-9 0 -16.5 -6t-9.5 -14l-56 -170q4 -1 4.5 -4.5t1 -7.5t2 -7t6.5 -3h406zM831 188h-380l42 130
q4 11 15 11h415l54 165l-32 47l2 6h-142l14 43l-32 47l2 6h-248l-31 -96h-145q-31 0 -62 -12.5t-58 -33.5t-48 -48t-30 -55l-74 -228q-11 -35 -2 -70.5t35 -58.5l19 -27q13 -20 33.5 -32t49.5 -12h96l-13 -42h6l31 -47h242l29 89h188l54 165l-32 47z" />
    <glyph glyph-name="FL00A3h" unicode="&#xa3;" horiz-adv-x="757" 
d="M156 363h102q2 8 4 14.5t4 13.5q9 29 30 61t50.5 59t65.5 44.5t76 17.5h231l-2 -6l32 -47l-51 -158h31l-2 -6l31 -47l-48 -150h61l-2 -6l31 -47l-53 -165h-675l-32 47h-6l56 171h43l-25 37h-6zM118 208h103q-5 -10 -9 -19.5t-7 -18.5l-4 -12q-3 -10 -2 -11h-101l-48 -147
h657l48 147h-248q-19 0 -24 10t0 24q5 16 15 23t31 7h139l45 139h-138q-21 0 -26.5 6.5t-0.5 23.5q5 14 16.5 24t30.5 10h61l47 147h-219q-37 0 -70.5 -16.5t-60.5 -41.5t-46.5 -55t-28.5 -57q-3 -10 -5.5 -20t-3.5 -20h-105z" />
    <glyph glyph-name="FL00BDh" unicode="&#xa4;" horiz-adv-x="867" 
d="M512 369q-19 0 -37 -14t-23 -30l-27 -82q-5 -14 5.5 -26t25.5 -12h94q16 0 33 12t22 26l27 82q5 16 -4 30t-27 14h-89zM359 281l-141 280h328l42 -82l94 82h328l-323 -280l142 -281h-328l-42 83l-96 -83h-328zM6 -12h9l32 -47h352l80 70l12 -23h4l32 -47h352l-146 290
l333 289l-32 48l5 5h-359l-83 -72l-9 19l-20 30l-12 23h-359l146 -292zM494 275q5 13 19.5 24t29.5 11h72l-22 -67q-3 -10 -15.5 -18t-23.5 -8h-78z" />
    <glyph glyph-name="FL00A5h" unicode="&#xa5;" horiz-adv-x="791" 
d="M189 301h143q-3 8 -6 15.5t-7 14.5q-9 8 -19.5 12.5t-19.5 7t-16 3t-9 0.5h-49l-32 47h-6l56 172h238q21 0 36 -6.5t25.5 -16.5t18 -23t13.5 -25l12 -19q9 10 23.5 23t32 25.5t38.5 24t44 17.5h234l-2 -6l32 -47l-54 -166h-109q-14 -6 -40 -20.5t-49 -32.5h75l-2 -6
l32 -47l-27 -82h-47l-1 -2l32 -47l-27 -82h-148l-30 -94h-298l-32 47h-6l15 47h-98l-31 47h-6l28 88h49l-29 43h-6zM176 225h151l-22 -67h-151l-20 -64h151l-31 -94h280l31 94h148l20 64h-148l22 67h148l21 64h-148l4 13q6 17 24.5 35t41 33.5t44 27t31.5 15.5h102l48 148
h-219q-30 -8 -55.5 -24.5t-45 -33.5t-31 -30t-12.5 -13q-7 10 -13.5 27t-17 33.5t-27.5 28.5t-44 12h-226l-48 -148h40q3 0 12 -1t20.5 -4t23.5 -9.5t21 -18.5q16 -20 30 -39.5t15 -51.5h-149z" />
    <glyph glyph-name="FL00B8h" unicode="&#xa6;" horiz-adv-x="380" 
d="M292 -118h-280l261 803h280zM568 697h-304l-268 -827h6l31 -47h298l267 821l-31 47z" />
    <glyph glyph-name="FL00A7h" unicode="&#xa7;" horiz-adv-x="867" 
d="M512 369q-19 0 -37 -14t-23 -30l-27 -82q-5 -14 5.5 -26t25.5 -12h94q16 0 33 12t22 26l27 82q5 16 -4 30t-27 14h-89zM682 561h328l-647 -561h-328zM6 -12h9l32 -47h352l667 579l-32 48l5 5h-359zM494 275q5 13 19.5 24t29.5 11h72l-22 -67q-3 -10 -15.5 -18t-23.5 -8
h-78z" />
    <glyph glyph-name="FL00A8h" unicode="&#xa8;" horiz-adv-x="522" 
d="M409 479l12 -20q0 1 -1 1v0zM190 482q6 19 20 36t32.5 30t41 20t46.5 7q33 0 54.5 -14t26.5 -37l20 -29q17 35 54 57.5t81 22.5q33 0 54.5 -14t26.5 -37l24 -33q8 -12 9.5 -27t-4.5 -32q-6 -20 -20 -36.5t-32 -28.5t-40 -19t-44 -7q-25 0 -43.5 8.5t-28.5 22.5l-23 33
l-12 12q-17 -34 -52.5 -55t-76.5 -21q-25 0 -43.5 8.5t-28.5 22.5l-23 33q-17 13 -22 32.5t3 44.5zM634 482q11 34 -9.5 57.5t-62.5 23.5q-21 0 -41 -6.5t-36.5 -17.5t-29 -25.5t-17.5 -31.5q-12 -35 8.5 -58.5t62.5 -23.5q21 0 40.5 6t36.5 17t29.5 26t18.5 33zM202 482
q-12 -35 8.5 -58.5t62.5 -23.5q21 0 40.5 6t36.5 17t29.5 26t18.5 33q11 34 -9.5 57.5t-62.5 23.5q-21 0 -41 -6.5t-36.5 -17.5t-29 -25.5t-17.5 -31.5z" />
    <glyph glyph-name="copyright" unicode="&#xa9;" horiz-adv-x="312" 
d="M408 538v10l-7 2zM364 641q33 0 54 -15q21 -14 30 -37l1 2q0 -2 0.5 -4t0.5 -4l22 -30q2 -5 4.5 -11t4.5 -12l1 -1q8 -28 -4 -61q-11 -34 -35 -59h-1q-24 -28 -59 -45q-16 -4 -28.5 -7t-20.5 -5l-13 -3q-34 0 -61 18q-9 7 -14 15l-22 31q-10 9 -16.5 19t-9.5 26l-1 -1
q-7 26 4 61q6 17 15 31.5t21 29.5q27 30 63 47q33 15 64 15zM355 501q-16 -28 -46 -28q-37 0 -23 45q8 23 22.5 35t32.5 12q22 0 25 -23l18 4q2 35 -38 35q-27 0 -48 -16t-32 -47q-10 -30 1 -46.5t37 -16.5q20 0 38 11t29 30zM355 611q25 0 41 -12q19 -12 24 -34
q5 -24 -4 -47q-8 -24 -26 -45q-24 -24 -45 -34q-27 -12 -50 -12q-24 0 -42 12q-20 16 -23 34q-5 24 2 45q10 26 28 47q20 23 46 34.5t49 11.5zM360 629q-27 0 -58 -14q-34 -15 -55 -41q-12 -14 -20.5 -27.5t-13.5 -28.5q-9 -29 -2 -54q4 -14 10.5 -24t16.5 -18
q22 -14 51 -14q1 0 15.5 3.5l43.5 10.5q17 8 30.5 18t24.5 24q23 26 32 54q10 29 4 56t-29 41q-22 14 -50 14z" />
    <glyph glyph-name="FL00AAh" unicode="&#xaa;" horiz-adv-x="463" 
d="M403 425h-68l-25 -76h-147l70 215q4 12 14 24t22.5 21t26.5 14.5t26 5.5h226q25 0 40.5 -20.5t7.5 -44.5l-70 -215h-148zM380 547q-4 0 -7 -6l-12 -37h68l13 40q0 3 -2 3h-60zM185 290h165l15 47h3l32 -47h166l73 224q5 13 2.5 25t-9.5 23l-23 32q-5 20 -21 33.5
t-36 13.5h-226q-14 0 -30.5 -6.5t-31.5 -17t-26.5 -24.5t-16.5 -29l-74 -227h6z" />
    <glyph glyph-name="FL00ABh" unicode="&#xab;" horiz-adv-x="602" 
d="M376 211l-134 -101l-114 169l223 168l68 -101l-88 -67zM634 211l-134 -101l-114 169l223 168l68 -101l-88 -67zM693 346l-79 117l-174 -131l-7 12l2 2l-79 117l-244 -184l125 -185l2 2l33 -48l149 113l-32 48l3 2l-14 19l16 12l101 -148l2 2l33 -48l149 113l-32 48l3 2
l-14 19l87 66l-32 48z" />
    <glyph glyph-name="FL00ACh" unicode="&#xac;" horiz-adv-x="435" 
d="M421 111h-143l32 97h-192l46 143h335zM515 363h-359l-54 -167h6l31 -47h139l-16 -50h6l32 -47h161l84 258l-32 47z" />
    <glyph glyph-name="FL00ADh" unicode="&#xad;" horiz-adv-x="395" 
d="M459 351l-46 -143h-295l46 143h295zM156 363l-54 -167h6l31 -47h313l53 161l-32 47l2 6h-319z" />
    <glyph glyph-name="registered" unicode="&#xae;" horiz-adv-x="312" 
d="M364 641q33 0 54 -15q21 -14 30 -37l1 2q0 -2 0.5 -4t0.5 -4l22 -30q2 -5 4.5 -11t4.5 -12l1 -1q8 -28 -4 -61q-11 -34 -35 -59h-1q-24 -28 -59 -45q-16 -4 -28.5 -7t-20.5 -5l-13 -3q-34 0 -61 18q-9 7 -14 15l-22 31q-10 9 -16.5 19t-9.5 26l-1 -1q-7 26 4 61
q6 17 15 31.5t21 29.5q27 30 63 47q33 15 64 15zM309 560h21q19 0 20 -1q10 -5 5 -17q-2 -8 -10 -13t-25 -5h-23zM276 458l16 50h11q11 0 14 -4q6 -4 12 -28l4 -18h24l-8 23q-4 13 -7 19.5t-11 10.5q16 1 28 10.5t17 22.5q3 10 0 18q-2 6 -11 11q-5 4 -30 4h-40l-38 -119h19
zM355 611q25 0 41 -12q19 -12 24 -34q5 -24 -4 -47q-8 -24 -26 -45q-24 -24 -45 -34q-27 -12 -50 -12q-24 0 -42 12q-20 16 -23 34q-5 24 2 45q10 26 28 47q20 23 46 34.5t49 11.5zM360 629q-27 0 -58 -14q-34 -15 -55 -41q-12 -14 -20.5 -27.5t-13.5 -28.5q-9 -29 -2 -54
q4 -14 10.5 -24t16.5 -18q22 -14 51 -14q1 0 15.5 3.5l43.5 10.5q17 8 30.5 18t24.5 24q23 26 32 54q10 29 4 56t-29 41q-22 14 -50 14z" />
    <glyph glyph-name="FL00B3h" unicode="&#xaf;" horiz-adv-x="629" 
d="M777 572l-2 -6l32 -47l-54 -165h-547l-32 47h-6l56 171h553zM232 560l-48 -147h529l48 147h-529z" />
    <glyph glyph-name="FL00B1h" unicode="&#xb0;" horiz-adv-x="286" 
d="M264 480q-3 -9 5 -15.5t22 -6.5t26 6.5t15 15.5t-5 15t-22 6t-26 -6t-15 -15zM201 480q6 17 18 31.5t28.5 25.5t36.5 17.5t41 6.5q42 0 62.5 -23.5t9.5 -57.5q-6 -18 -18.5 -33t-29 -26t-36.5 -17t-41 -6q-42 0 -62 23.5t-9 58.5zM189 480q-8 -25 -3 -44.5t22 -32.5
l23 -33q10 -14 28.5 -22.5t43.5 -8.5q22 0 44 7t40.5 19t32.5 28.5t20 36.5q11 34 -6 59l-23 33q-5 23 -27 37t-55 14q-24 0 -46.5 -7t-41 -20t-32.5 -30t-20 -36z" />
    <glyph glyph-name="FL00B2h" unicode="&#xb1;" horiz-adv-x="435" 
d="M386 0h-335l46 143h335zM521 419l-46 -143h-96l-32 -97h-143l32 97h-96l46 143h96l31 95h143l-31 -95h96zM448 155h-50l21 62h96l52 161l-32 47l2 6h-49l14 42l-32 47l2 6h-167l-31 -95h-96l-54 -167h6l32 -47h43l-17 -50h6l8 -12h-113l-54 -167h6l32 -47h353l52 161
l-32 47z" />
    <glyph glyph-name="FL00B6h" unicode="&#xb2;" horiz-adv-x="454" 
d="M153 337h-6l46 140q9 25 35 42l-9 16h-6l34 106h293q24 0 39.5 -12.5t20.5 -32.5l22 -33q8 -11 9.5 -25.5t-3.5 -29.5l-14 -42q-4 -14 -15.5 -26.5t-26.5 -23.5l18 -26l-33 -100h-372zM517 349l27 82h-206l6 19h137q10 0 24 6t27.5 15t24.5 21t15 24l13 42q9 27 -5.5 49
t-43.5 22h-281l-26 -82h202q2 0 2 -3t-1 -5l-3 -10h-140q-11 0 -24 -4t-25 -10.5t-21.5 -16t-13.5 -21.5l-42 -128h354z" />
    <glyph glyph-name="FL00BCh" unicode="&#xb3;" horiz-adv-x="433" 
d="M398 528q12 0 14 9q4 10 -7 10h-177l26 82h253q19 0 31.5 -8.5t18 -21t5.5 -28.5q0 -15 -4 -29q-5 -14 -13.5 -28t-19.5 -23q8 -11 6.5 -26t-6.5 -29q-5 -15 -14 -30t-22.5 -28t-32 -21t-40.5 -8h-253l27 82h177q12 0 15 10q3 9 -9 9h-177l26 78h176zM147 337h6l32 -47
h262q25 0 45 9t35 23t25 31t15 33q5 14 6.5 28t-4.5 27q12 11 19.5 24t12.5 27q6 18 5 37.5t-12 34.5l-22 32q-5 19 -20 32t-41 13h-265z" />
    <glyph glyph-name="FL00B4h" unicode="&#xb4;" horiz-adv-x="867" 
d="M479 11l-80 -70h-352l-32 47h-9l337 293l-146 292h359l12 -23l20 -30l9 -19l83 72h359l-5 -5l32 -48l-333 -289l146 -290h-352l-32 47h-4zM459 83l42 -83h328l-142 281l323 280h-328l-94 -82l-42 82h-328l141 -280l-324 -281h328z" />
    <glyph glyph-name="FL00B5h" unicode="&#xb5;" horiz-adv-x="813" 
d="M451 372q0 -6 3 -14t9 -8h112q11 0 17.5 9.5t11.5 14.5l60 187h280l-75 -231q-7 -23 -26 -45t-43.5 -39t-51.5 -28t-49 -11h-302l-7 -23q-7 -20 -1.5 -27.5t25.5 -9.5h391l-48 -147h-594q-26 0 -43.5 11t-26 30.5t-8 46t10.5 56.5l135 417h281zM528 573h-305l-139 -429
q-16 -48 -10.5 -84.5t31.5 -55.5l21 -30q22 -33 68 -33h603l53 165l-31 47l2 6h-40q21 8 41.5 21t38.5 29t31.5 34.5t19.5 36.5l78 240l-32 47l2 6h-304l-64 -197l-2 -4q-3 -4 -5.5 -7t-5.5 -3h-72l51 158l-32 47z" />
    <glyph glyph-name="FL007Ah" unicode="&#xb6;" horiz-adv-x="1003" 
d="M393 342q0 1 -1 1zM1017 160l-2 -6l32 -47l-54 -166h-399q-33 0 -60.5 18t-44.5 44l-17 23q-17 17 -28 38t-15 41l-52 239q-1 2 -1.5 5t-2.5 6h-167l-31 47h-6l55 171h375q18 0 35 -8.5t31 -22t25 -29.5t17 -32l14 -19q10 -14 16.5 -29t8.5 -27l54 -231l2 -1
q-1 -3 0.5 -6.5t2.5 -7.5h2h210zM803 148q-9 0 -16.5 8.5t-13.5 20t-9.5 23.5t-5.5 19l-55 233q-3 15 -12.5 34t-23.5 35.5t-32.5 28t-39.5 11.5h-363l-47 -147h158q9 0 16.5 -7t13.5 -17.5t10 -21.5t6 -19l53 -239q4 -19 14.5 -38.5t26 -35.5t36 -26t44.5 -10h390l48 148
h-198z" />
    <glyph glyph-name="FL00B7h" unicode="&#xb7;" horiz-adv-x="335" 
d="M133 295q7 22 23.5 41t39 33t48.5 22t53 8q38 0 64 -16.5t33 -42.5l22 -32q18 -25 7 -63q-7 -21 -23 -39.5t-37.5 -32t-47 -21.5t-51.5 -8q-30 0 -53 10.5t-35 27.5l-21 32q-17 14 -23.5 34.5t1.5 46.5zM145 295q-6 -20 -2 -36.5t16 -29t31 -19.5t43 -7t47.5 7t43.5 19.5
t35 29t21 36.5q6 19 2.5 36t-15.5 29.5t-31 19.5t-43 7t-47.5 -7t-44 -19.5t-35.5 -29.5t-21 -36z" />
    <glyph glyph-name="FL00BAh" unicode="&#xb8;" horiz-adv-x="235" 
d="M199 6l32 -47l-57 -175h-234l-32 47h-6l45 139h83l14 42h157zM185 0h-133l-14 -42h-83l-37 -115h216z" />
    <glyph glyph-name="FL00BEh" unicode="&#xb9;" horiz-adv-x="296" 
d="M464 634l32 -47l-97 -298h-161l-32 47h-6l49 151l-31 47h-6l34 106h220zM450 628h-196l-27 -82h53l-64 -198h143z" />
    <glyph glyph-name="FL00B0h" unicode="&#xba;" horiz-adv-x="463" 
d="M553 641q21 0 35 -12t19 -30l24 -34q8 -12 9.5 -27t-3.5 -30l-48 -148q-5 -14 -15.5 -26.5t-24.5 -22.5t-29 -15.5t-28 -5.5h-233q-29 0 -45 24l-25 35q-12 10 -18 26t0 35l48 148q5 15 16 29.5t26 26.5t32 19.5t34 7.5h226zM323 629q-14 0 -28.5 -6.5t-27.5 -16.5
t-22.5 -22.5t-13.5 -25.5l-48 -148q-4 -12 -1.5 -23t9.5 -19.5t16.5 -13.5t20.5 -5h233q12 0 25 5t25 13.5t21.5 19.5t13.5 23l48 148q8 26 -4.5 48.5t-40.5 22.5h-226zM378 513q2 6 7 8h31q3 0 4 -3t0 -5l-18 -53q-3 -6 -7 -6h-31q-6 0 -4 6z" />
    <glyph glyph-name="FL00BBh" unicode="&#xbb;" horiz-adv-x="602" 
d="M179 279l-46 67l155 117l126 -184l-3 -2l7 -12l19 14l-46 67l155 117l126 -184l-3 -2l32 -48l-239 -181l-33 48l-2 -2l-55 81l-168 -127l-33 48l-2 -2l-79 117zM364 211l68 -101l224 169l-115 168l-134 -101l46 -67zM106 211l68 -101l224 169l-115 168l-134 -101l46 -67z
" />
    <glyph glyph-name="FL0763h" unicode="&#xbc;" horiz-adv-x="945" 
d="M669 251q3 3 9 8t13.5 9.5t15 8t13.5 3.5h206l-52 -161h60l-27 -81h-60l-12 -38h-148l12 38h-225l19 57l176 157v-1zM726 119l14 44l-47 -44h33zM383 281h-110l65 198h-53l26 82h196l-79 -244l301 244h283l-691 -561h-284zM5 -12h10l32 -47h309l104 85h4l32 -47h187
l26 -38h166l12 38h60l32 99l-31 47l2 6h-13l35 108l-32 47l2 6h-154l282 228l-32 48l6 5h-316l-214 -174l39 121l-32 47l2 6h-220l-34 -106h6l31 -47l-49 -151h6l31 -47z" />
    <glyph glyph-name="FL0740h" unicode="&#xbd;" horiz-adv-x="948" 
d="M788 292h133q24 0 39.5 -12.5t19.5 -32.5l23 -33q16 -23 6 -55l-14 -42q-5 -14 -16.5 -26.5t-25.5 -23.5l17 -26l-32 -100h-372l-32 47h-6l41 125l-213 -172h-309l-32 47h-10l289 234l-31 47h-6l49 151l-31 47h-6l34 106h220l-2 -6l32 -47l-39 -121l214 174h316l-6 -5
l32 -48zM625 247l-16 -49h202q2 0 2.5 -3t-0.5 -5l-4 -10h-140q-11 0 -24 -4t-25 -10.5t-21 -16t-13 -21.5l-42 -128h354l27 82h-206l6 19h137q10 0 24 6t27.5 15t24 21t14.5 24l14 42q9 27 -5.5 49t-43.5 22h-251l346 281h-283l-301 -244l79 244h-196l-26 -82h53l-65 -198
h110l-346 -281h284z" />
    <glyph glyph-name="FL077Ch" unicode="&#xbe;" horiz-adv-x="982" 
d="M489 573q26 0 41 -13t20 -32l22 -32q11 -15 12 -34.5t-5 -37.5l-1 -2l187 151h316l-6 -5l32 -48l-282 -228h154l-2 -6l32 -47l-35 -108h13l-2 -6l31 -47l-32 -99h-60l-12 -38h-166l-26 38h-187l-32 47h-4l-104 -85h-309l-32 47h-10l289 234h-168l-32 47h-6l99 304h265z
M777 163l-14 -44h-33zM530 95l-19 -57h225l-12 -38h148l12 38h60l27 81h-60l52 161h-206q-6 0 -13.5 -3.5t-15 -8t-13.5 -9.5t-9 -8v1zM199 460l-25 -78h177q12 0 9 -9q-3 -10 -15 -10h-177l-27 -82h253q5 0 13 1.5t20 3.5l-353 -286h284l691 561h-283l-280 -227
q5 8 9.5 16.5t7.5 17.5q5 14 6 29t-7 26q12 9 20.5 23t13.5 28q4 14 4 29q0 16 -5.5 28.5t-18 21t-31.5 8.5h-253l-26 -82h177q11 0 7 -10q-3 -9 -15 -9h-176z" />
    <glyph glyph-name="FL00BFh" unicode="&#xbf;" horiz-adv-x="808" 
d="M597 359l-19 28q-18 14 -24.5 35t1.5 47q7 22 23.5 41t38.5 33t48 22t53 8q38 0 64.5 -16t33.5 -42l23 -33q8 -13 10 -29t-4 -34q-15 -46 -64 -74l27 -39l-16 -50q-11 -33 -45.5 -59t-71.5 -38h146l-2 -6l31 -47l-53 -165h-579q-29 0 -51.5 11.5t-35.5 31.5l-20 29
q-25 21 -32.5 54t4.5 70l28 87q8 24 30 48.5t49.5 43.5t56.5 31t50 12h300zM802 469q6 19 2 36t-16 29.5t-31 19.5t-43 7t-47.5 -7t-43.5 -19.5t-35 -29.5t-21 -36q-6 -20 -2.5 -36.5t15.5 -29t31 -19.5t43 -7t47.5 7t44 19.5t35.5 29t21 36.5zM293 347q-20 0 -46 -11
t-51.5 -28t-45.5 -39.5t-27 -44.5l-28 -87q-9 -26 -6 -50.5t15.5 -44t33.5 -31t49 -11.5h570l48 147h-406q-10 0 -12 11t1 19l10 31h192q20 0 44.5 7.5t48 20.5t41.5 31t25 39l14 41h-470z" />
    <glyph glyph-name="FL00C0h" unicode="&#xc0;" 
d="M516 355q-5 0 -9.5 -5t-8.5 -10l-8 -27h96l13 42h-83zM703 772l24 -35q1 -1 3 -5l20 -49l2 -3q5 -10 7 -18t-2 -20l-4 -11q-5 -14 -10 -23t-21 -21q-14 -9 -25 -14h135q32 0 58 -20t38 -49l19 -29q13 -19 17.5 -42t-3.5 -46l-145 -446h-298l-32 47h-6l36 111h-96
l-51 -158h-297l-32 47h-6l146 449q9 26 30 50.5t47.5 43.5t55.5 30.5t53 11.5h265q-5 3 -9 10l-23 35q-5 2 -8.5 6.5t-6.5 9.5l-29 55l-1 2q-4 8 -5.5 13.5t3.5 19.5q13 38 53 68v-1q16 11 27.5 13t25.5 2q30 0 41 -22zM918 437q7 22 2.5 44.5t-17.5 40t-32.5 28.5t-42.5 11
h-466q-23 0 -49.5 -10.5t-50.5 -28t-43.5 -39.5t-26.5 -46l-142 -437h279l51 158h167l-51 -158h280zM456 392q5 6 13.5 14t16.5 8h124q12 0 12 -9q0 -8 1 -14l-29 -90h-167l29 90v1zM687 777q-8 17 -33 17q-13 0 -24 -2.5t-26 -13.5q-16 -11 -25.5 -25t-14.5 -29
q-4 -11 -2 -17.5t7 -14.5l27 -50q9 -18 34 -18t54 20q13 10 17.5 18t8.5 19l4 11q3 10 1.5 17t-6.5 15z" />
    <glyph glyph-name="FL00C1h" unicode="&#xc1;" 
d="M516 355q-5 0 -9.5 -5t-8.5 -10l-8 -27h96l13 42h-83zM550 692q4 12 13.5 22t24.5 24l49 46q23 22 55 22q14 0 24 -2t19 -13v1q4 -6 6.5 -11.5t4.5 -11.5l25 -36q15 -24 4 -59q-5 -13 -9 -18.5t-12 -12.5l-9 -7h1l-60 -50q-11 -9 -19 -13h165q32 0 58 -20t38 -49l19 -29
q13 -19 17.5 -42t-3.5 -46l-145 -446h-298l-32 47h-6l36 111h-96l-51 -158h-297l-32 47h-6l146 449q9 26 30 50.5t47.5 43.5t55.5 30.5t53 11.5h234q-7 3 -14 14l-26 36q-4 3 -11 12q-8 13 -8 22q0 10 5 24zM918 437q7 22 2.5 44.5t-17.5 40t-32.5 28.5t-42.5 11h-466
q-23 0 -49.5 -10.5t-50.5 -28t-43.5 -39.5t-26.5 -46l-142 -437h279l51 158h167l-51 -158h280zM456 392q5 6 13.5 14t16.5 8h124q12 0 12 -9q0 -8 1 -14l-29 -90h-167l29 90v1zM587 724q-9 -8 -15.5 -15t-9.5 -17l-4 -11q-4 -11 -4.5 -19t6.5 -18q17 -20 42 -20t46 18l59 50
q9 8 15 14.5t10 17.5q5 15 4.5 29t-8.5 25t-17.5 13.5t-22.5 2.5q-25 0 -45 -17z" />
    <glyph glyph-name="FL00C2h" unicode="&#xc2;" 
d="M611 573h74l-27 41h-4zM516 355q-5 0 -9.5 -5t-8.5 -10l-8 -27h96l13 42h-83zM865 567q22 -8 38 -25t25 -38l19 -29q13 -19 17.5 -42t-3.5 -46l-145 -446h-298l-32 47h-6l36 111h-96l-51 -158h-297l-32 47h-6l146 449q9 26 30 50.5t47.5 43.5t55.5 30.5t53 11.5h44
l-27 41h-9l207 190h187l8 -17l24 -36l80 -184h-15zM918 437q7 22 2.5 44.5t-17.5 40t-32.5 28.5t-42.5 11h-466q-23 0 -49.5 -10.5t-50.5 -28t-43.5 -39.5t-26.5 -46l-142 -437h279l51 158h167l-51 -158h280zM456 392q5 6 13.5 14t16.5 8h124q12 0 12 -9q0 -8 1 -14l-29 -90
h-167l29 90v1zM637 690l25 -64h169l-72 166h-177l-181 -166h169z" />
    <glyph glyph-name="FL00C3h" unicode="&#xc3;" 
d="M577 573h74l-27 41h-4zM516 355q-5 0 -9.5 -5t-8.5 -10l-8 -27h96l13 42h-83zM943 799l32 -48l-195 -178h52q32 0 58 -20t38 -49l19 -29q13 -19 17.5 -42t-3.5 -46l-145 -446h-298l-32 47h-6l36 111h-96l-51 -158h-297l-32 47h-6l146 449q9 26 30 50.5t47.5 43.5
t55.5 30.5t53 11.5h10l-27 41h-9l207 190h121l7 -16l23 -34l52 50h198zM918 437q7 22 2.5 44.5t-17.5 40t-32.5 28.5t-42.5 11h-466q-23 0 -49.5 -10.5t-50.5 -28t-43.5 -39.5t-26.5 -46l-142 -437h279l51 158h167l-51 -158h280zM456 392q5 6 13.5 14t16.5 8h124q12 0 12 -9
q0 -8 1 -14l-29 -90h-167l29 90v1zM920 792h-169l-65 -63l-27 63h-111l-181 -166h169l66 63l26 -63h111z" />
    <glyph glyph-name="FL00C4h" unicode="&#xc4;" 
d="M516 355q-5 0 -9.5 -5t-8.5 -10l-8 -27h96l13 42h-83zM670 632l-11 12q-13 -26 -38 -44.5t-54 -26.5h162q-24 8 -35 26zM415 709q6 19 20 36t33 30t41.5 20t46.5 7q33 0 54.5 -14t26.5 -37l20 -29q17 35 54 57.5t81 22.5q33 0 54.5 -14t26.5 -37l23 -33q17 -25 6 -59
q-10 -31 -37 -54t-61 -32h28q32 0 58 -20t38 -49l19 -29q13 -19 17.5 -42t-3.5 -46l-145 -446h-298l-32 47h-6l36 111h-96l-51 -158h-297l-32 47h-6l146 449q9 26 30 50.5t47.5 43.5t55.5 30.5t53 11.5h127q-24 8 -35 26l-24 33q-16 13 -21.5 32.5t2.5 44.5zM918 437
q7 22 2.5 44.5t-17.5 40t-32.5 28.5t-42.5 11h-466q-23 0 -49.5 -10.5t-50.5 -28t-43.5 -39.5t-26.5 -46l-142 -437h279l51 158h167l-51 -158h280zM456 392q5 6 13.5 14t16.5 8h124q12 0 12 -9q0 -8 1 -14l-29 -90h-167l29 90v1zM859 709q11 34 -9 57.5t-62 23.5
q-21 0 -41 -6.5t-37 -17.5t-29 -25.5t-18 -31.5q-11 -35 9.5 -58.5t62.5 -23.5q21 0 40.5 6t36.5 17t29 26t18 33zM427 709q-11 -35 9.5 -58.5t62.5 -23.5q21 0 40.5 6t36.5 17t29 26t18 33q11 34 -9 57.5t-62 23.5q-21 0 -41 -6.5t-37 -17.5t-29 -25.5t-18 -31.5z" />
    <glyph glyph-name="FL00C5h" unicode="&#xc5;" 
d="M516 355q-5 0 -9.5 -5t-8.5 -10l-8 -27h96l13 42h-83zM534 709q6 19 20 36t33 30t41.5 20t46.5 7q33 0 54.5 -14t26.5 -37l23 -33q17 -25 6 -59q-10 -31 -37 -54t-61 -32h145q32 0 58 -20t38 -49l19 -29q13 -19 17.5 -42t-3.5 -46l-145 -446h-298l-32 47h-6l36 111h-96
l-51 -158h-297l-32 47h-6l146 449q9 26 30 50.5t47.5 43.5t55.5 30.5t53 11.5h246q-24 8 -35 26l-24 33q-16 13 -21.5 32.5t2.5 44.5zM918 437q7 22 2.5 44.5t-17.5 40t-32.5 28.5t-42.5 11h-466q-23 0 -49.5 -10.5t-50.5 -28t-43.5 -39.5t-26.5 -46l-142 -437h279l51 158
h167l-51 -158h280zM456 392q5 6 13.5 14t16.5 8h124q12 0 12 -9q0 -8 1 -14l-29 -90h-167l29 90v1zM546 709q-11 -35 9.5 -58.5t62.5 -23.5q21 0 40.5 6t36.5 17t29 26t18 33q11 34 -9 57.5t-62 23.5q-21 0 -41 -6.5t-37 -17.5t-29 -25.5t-18 -31.5zM609 709q3 9 15 15t26 6
t22 -6t5 -15t-15 -15.5t-26 -6.5t-22 6.5t-5 15.5z" />
    <glyph glyph-name="FL00C6h" unicode="&#xc6;" horiz-adv-x="1415" 
d="M594 301l29 90q-1 6 -1 14q0 9 -12 9h-124q-8 0 -16.5 -8t-13.5 -14l-29 -91h167zM496 0l51 158h-167l-51 -158h-279l142 437q7 24 26.5 46t43.5 39.5t50.5 28t49.5 10.5h466q29 0 52 -17t34 -42q27 26 60.5 42.5t66.5 16.5h506l-47 -147h-342q-10 0 -20 -12t-13 -20
q-4 -11 1 -21t18 -10h335l-46 -143h-342q-1 0 -5 -2.5t-8.5 -6.5l-9 -8t-6.5 -7q-3 -3 -3 -7q-1 -2 -1 -4t-1 -3q2 -6 7 -14.5t7 -8.5h342l-48 -147h-513q-42 0 -67 28l-9 -28h-280zM72 -59h297l51 158h96l-36 -111h6l32 -47h298l6 19q25 -19 61 -19h522l53 165l-29 43h43
l53 161l-31 45h45l54 165l-32 47l2 6h-518q-32 0 -64.5 -14.5t-61.5 -38.5q-14 23 -36.5 38t-50.5 15h-466q-24 0 -53 -11.5t-55.5 -30.5t-47.5 -43.5t-30 -50.5l-146 -449h6zM516 355h83l-13 -42h-96l8 27q4 5 8.5 10t9.5 5z" />
    <glyph glyph-name="FL00C7h" unicode="&#xc7;" horiz-adv-x="743" 
d="M441 159h310l-2 -6l31 -47l-53 -165h-197l-51 -157h-234l-32 47h-6l36 110h-32q-26 0 -48 13t-36 33l-19 27q-22 20 -31.5 48.5t1.5 60.5l96 295q9 28 29.5 55.5t48 49.5t59 36t62.5 14h518l-2 -6l32 -47l-54 -165h-351q-5 0 -10.5 -7.5t-7.5 -13.5zM490 0h197l48 147
h-336q-8 0 -12 6.5t-2 16.5l70 214q2 8 11.5 19t19.5 11h342l47 147h-506q-28 0 -57 -12.5t-54.5 -33t-44.5 -46t-27 -51.5l-96 -295q-8 -24 -3.5 -46t18 -39t33 -27.5t42.5 -10.5h177l-14 -42h-83l-37 -115h216z" />
    <glyph glyph-name="FL00C8h" unicode="&#xc8;" horiz-adv-x="743" 
d="M433 110q0 -3 2 -3zM588 573q-5 3 -9 10l-23 35q-5 2 -8.5 6.5t-6.5 9.5l-29 55l-1 2q-4 8 -5.5 13.5t3.5 19.5q13 38 53 68v-1q16 11 27.5 13t25.5 2q30 0 41 -22l4 -12l24 -35q1 -1 3 -5l20 -49l2 -3q5 -10 7 -18t-2 -20l-4 -11q-5 -14 -10 -23t-21 -21q-14 -9 -25 -14
h237l-2 -6l32 -47l-54 -165h-45l31 -45l-53 -161h-43l29 -43l-53 -165h-522q-26 0 -48 13t-36 33l-19 27q-22 20 -31.5 48.5t1.5 60.5l96 295q9 28 29.5 55.5t48 49.5t59 36t62.5 14h215zM644 777q-8 17 -33 17q-13 0 -24 -2.5t-26 -13.5q-16 -11 -25.5 -25t-14.5 -29
q-4 -11 -2 -17.5t7 -14.5l27 -50q9 -18 34 -18t54 20q13 10 17.5 18t8.5 19l4 11q3 10 1.5 17t-6.5 15zM369 561q-28 0 -57 -12.5t-54.5 -33t-44.5 -46t-27 -51.5l-96 -295q-8 -24 -3.5 -46t18 -39t33 -27.5t42.5 -10.5h513l48 147h-342q-2 0 -7 8.5t-7 14.5q1 1 1 3t1 4
q0 4 3 7q2 3 6.5 7l9 8t8.5 6.5t5 2.5h342l46 143h-335q-13 0 -18 10t-1 21q3 8 13 20t20 12h342l47 147h-506z" />
    <glyph glyph-name="FL00C9h" unicode="&#xc9;" horiz-adv-x="743" 
d="M433 110q0 -3 2 -3zM592 573q-7 3 -14 14l-26 36q-4 3 -11 12q-8 13 -8 22q0 10 5 24l4 11q4 12 13.5 22t24.5 24l49 46q23 22 55 22q14 0 24 -2t19 -13v1q4 -6 6.5 -11.5t4.5 -11.5l25 -36q15 -24 4 -59q-5 -13 -9 -18.5t-12 -12.5l-9 -7h1l-60 -50q-11 -9 -19 -13h232
l-2 -6l32 -47l-54 -165h-45l31 -45l-53 -161h-43l29 -43l-53 -165h-522q-26 0 -48 13t-36 33l-19 27q-22 20 -31.5 48.5t1.5 60.5l96 295q9 28 29.5 55.5t48 49.5t59 36t62.5 14h219zM579 724q-9 -8 -15.5 -15t-9.5 -17l-4 -11q-4 -11 -4.5 -19t6.5 -18q17 -20 42 -20t46 18
l59 50q9 8 15 14.5t10 17.5q5 15 4.5 29t-8.5 25t-17.5 13.5t-22.5 2.5q-25 0 -45 -17zM369 561q-28 0 -57 -12.5t-54.5 -33t-44.5 -46t-27 -51.5l-96 -295q-8 -24 -3.5 -46t18 -39t33 -27.5t42.5 -10.5h513l48 147h-342q-2 0 -7 8.5t-7 14.5q1 1 1 3t1 4q0 4 3 7q2 3 6.5 7
l9 8t8.5 6.5t5 2.5h342l46 143h-335q-13 0 -18 10t-1 21q3 8 13 20t20 12h342l47 147h-506z" />
    <glyph glyph-name="FL00CAh" unicode="&#xca;" horiz-adv-x="743" 
d="M433 110q0 -3 2 -3zM573 573h74l-27 41h-4zM108 14q-22 20 -31.5 48.5t1.5 60.5l96 295q9 27 29.5 54.5t47.5 50t58.5 36.5t62.5 14l-27 41h-9l207 190h187l8 -17l24 -36l76 -178h53l-2 -6l32 -47l-54 -165h-45l31 -45l-53 -161h-43l29 -43l-53 -165h-522q-26 0 -48 13
t-36 33zM599 690l25 -64h169l-72 166h-177l-181 -166h169zM369 561q-28 0 -57 -12.5t-54.5 -33t-44.5 -46t-27 -51.5l-96 -295q-8 -24 -3.5 -46t18 -39t33 -27.5t42.5 -10.5h513l48 147h-342q-2 0 -7 8.5t-7 14.5q1 1 1 3t1 4q0 4 3 7q2 3 6.5 7l9 8t8.5 6.5t5 2.5h342
l46 143h-335q-13 0 -18 10t-1 21q3 8 13 20t20 12h342l47 147h-506z" />
    <glyph glyph-name="FL00CBh" unicode="&#xcb;" horiz-adv-x="743" 
d="M632 632l-11 12q-13 -26 -38 -44.5t-54 -26.5h162q-24 8 -35 26zM455 573q-24 8 -35 26l-24 33q-16 13 -21.5 32.5t2.5 44.5q6 19 20 36t33 30t41.5 20t46.5 7q33 0 54.5 -14t26.5 -37l20 -29q17 35 54 57.5t81 22.5q33 0 54.5 -14t26.5 -37l23 -33q17 -25 6 -59
q-10 -31 -37 -54t-61 -32h125l-2 -6l32 -47l-54 -165h-45l31 -45l-53 -161h-43l29 -43l-53 -165h-522q-26 0 -48 13t-36 33l-19 27q-22 20 -31.5 48.5t1.5 60.5l96 295q9 28 29.5 55.5t48 49.5t59 36t62.5 14h82zM821 709q11 34 -9 57.5t-62 23.5q-21 0 -41 -6.5t-37 -17.5
t-29 -25.5t-18 -31.5q-11 -35 9.5 -58.5t62.5 -23.5q21 0 40.5 6t36.5 17t29 26t18 33zM389 709q-11 -35 9.5 -58.5t62.5 -23.5q21 0 40.5 6t36.5 17t29 26t18 33q11 34 -9 57.5t-62 23.5q-21 0 -41 -6.5t-37 -17.5t-29 -25.5t-18 -31.5zM369 561q-28 0 -57 -12.5t-54.5 -33
t-44.5 -46t-27 -51.5l-96 -295q-8 -24 -3.5 -46t18 -39t33 -27.5t42.5 -10.5h513l48 147h-342q-2 0 -7 8.5t-7 14.5q1 1 1 3t1 4q0 4 3 7q2 3 6.5 7l9 8t8.5 6.5t5 2.5h342l46 143h-335q-13 0 -18 10t-1 21q3 8 13 20t20 12h342l47 147h-506z" />
    <glyph glyph-name="FL00D0h" unicode="&#xd0;" horiz-adv-x="880" 
d="M293 561h609q20 0 36 -12.5t25 -32t11.5 -42.5t-4.5 -43l-104 -321q-6 -18 -21 -37.5t-34 -35.5t-39.5 -26.5t-38.5 -10.5h-622l68 208h-61l46 143h61zM543 150q21 0 35 9t24 23t16.5 31t11.5 32l22 68q4 13 8 29t4 29q0 14 -5.5 23t-19.5 9h-117l-17 -52h55l-46 -143
h-55l-19 -58h103zM102 196h6l31 -47h8l-52 -161h6l32 -47h631q19 0 41.5 11.5t43.5 28.5t37 38t22 41l105 321q8 26 3 54t-19 50l-18 26q-10 26 -28.5 44t-44.5 18h-621l-68 -210h-61zM606 310l-23 34h65l-4 -16t-4 -15l-22 -68q-8 -25 -21 -50.5t-39 -31.5z" />
    <glyph glyph-name="FL00D1h" unicode="&#xd1;" 
d="M739 626h-111l-26 63l-66 -63h-169l181 166h111l27 -63l65 63h169zM623 391q-1 6 -1.5 14.5t-11.5 8.5h-146l-135 -414h-279l182 561h596q22 0 42 -11t33 -28t17.5 -39.5t-2.5 -44.5l-142 -438h-280zM948 804h-198l-52 -50l-23 34l-7 16h-121l-207 -190h9l27 -41h-152
l-190 -585h6l32 -47h297l134 414h96l-119 -367h6l32 -47h298l145 447q8 23 3.5 45.5t-16.5 40.5l-21 29q-11 30 -37 50t-58 20h-52l195 178l-32 48zM620 614h4l27 -41h-74z" />
    <glyph glyph-name="FL00D2h" unicode="&#xd2;" 
d="M440 159h87q2 0 6.5 5t8.5 10l58 181h-84q-6 -2 -12 -9.5t-8 -13.5zM631 573q-5 3 -9 10l-23 35q-5 2 -8.5 6.5t-6.5 9.5l-29 55l-1 2q-4 8 -5.5 13.5t3.5 19.5q13 38 53 68v-1q16 11 27.5 13t25.5 2q30 0 41 -22l4 -12l24 -35q1 -1 3 -5l20 -49l2 -3q5 -10 7 -18t-2 -20
l-4 -11q-5 -14 -10 -23t-21 -21q-14 -9 -25 -14h128q38 0 62.5 -20t35.5 -50l19 -27q14 -22 18 -50.5t-5 -57.5l-96 -295q-8 -26 -28.5 -49.5t-46.5 -42t-54.5 -29.5t-52.5 -11h-466q-26 0 -48 13t-36 33l-19 27q-22 20 -31.5 48.5t1.5 60.5l96 295q9 28 29.5 55.5t48 49.5
t59 36t62.5 14h258zM687 777q-8 17 -33 17q-13 0 -24 -2.5t-26 -13.5q-16 -11 -25.5 -25t-14.5 -29q-4 -11 -2 -17.5t7 -14.5l27 -50q9 -18 34 -18t54 20q13 10 17.5 18t8.5 19l4 11q3 10 1.5 17t-6.5 15zM453 382q3 8 11.5 19t19.5 13h126q11 0 12.5 -12t-1.5 -20l-69 -212
q-5 -6 -14 -14.5t-15 -8.5h-124q-13 0 -14.5 9t-0.5 14zM369 561q-28 0 -57 -12.5t-54.5 -33t-44.5 -46t-27 -51.5l-96 -295q-8 -24 -3.5 -46t18 -39t33 -27.5t42.5 -10.5h466q23 0 49.5 10.5t50.5 27.5t43 39t27 46l96 295q8 26 5.5 51.5t-14.5 46t-33 33t-49 12.5h-452z
" />
    <glyph glyph-name="FL00D3h" unicode="&#xd3;" 
d="M440 159h87q2 0 6.5 5t8.5 10l58 181h-84q-6 -2 -12 -9.5t-8 -13.5zM600 573q-7 3 -14 14l-26 36q-4 3 -11 12q-8 13 -8 22q0 10 5 24l4 11q4 12 13.5 22t24.5 24l49 46q23 22 55 22q14 0 24 -2t19 -13v1q4 -6 6.5 -11.5t4.5 -11.5l25 -36q15 -24 4 -59q-5 -13 -9 -18.5
t-12 -12.5l-9 -7h1l-60 -50q-11 -9 -19 -13h158q38 0 62.5 -20t35.5 -50l19 -27q14 -22 18 -50.5t-5 -57.5l-96 -295q-8 -26 -28.5 -49.5t-46.5 -42t-54.5 -29.5t-52.5 -11h-466q-26 0 -48 13t-36 33l-19 27q-22 20 -31.5 48.5t1.5 60.5l96 295q9 28 29.5 55.5t48 49.5
t59 36t62.5 14h227zM587 724q-9 -8 -15.5 -15t-9.5 -17l-4 -11q-4 -11 -4.5 -19t6.5 -18q17 -20 42 -20t46 18l59 50q9 8 15 14.5t10 17.5q5 15 4.5 29t-8.5 25t-17.5 13.5t-22.5 2.5q-25 0 -45 -17zM453 382q3 8 11.5 19t19.5 13h126q11 0 12.5 -12t-1.5 -20l-69 -212
q-5 -6 -14 -14.5t-15 -8.5h-124q-13 0 -14.5 9t-0.5 14zM369 561q-28 0 -57 -12.5t-54.5 -33t-44.5 -46t-27 -51.5l-96 -295q-8 -24 -3.5 -46t18 -39t33 -27.5t42.5 -10.5h466q23 0 49.5 10.5t50.5 27.5t43 39t27 46l96 295q8 26 5.5 51.5t-14.5 46t-33 33t-49 12.5h-452z
" />
    <glyph glyph-name="FL00D4h" unicode="&#xd4;" 
d="M611 573h74l-27 41h-4zM440 159h87q2 0 6.5 5t8.5 10l58 181h-84q-6 -2 -12 -9.5t-8 -13.5zM410 573l-27 41h-9l207 190h187l8 -17l24 -36l80 -184h-19q23 -8 38.5 -25t23.5 -39l19 -27q14 -22 18 -50.5t-5 -57.5l-96 -295q-8 -26 -28.5 -49.5t-46.5 -42t-54.5 -29.5
t-52.5 -11h-466q-26 0 -48 13t-36 33l-19 27q-22 20 -31.5 48.5t1.5 60.5l96 295q9 28 29.5 55.5t48 49.5t59 36t62.5 14h37zM637 690l25 -64h169l-72 166h-177l-181 -166h169zM453 382q3 8 11.5 19t19.5 13h126q11 0 12.5 -12t-1.5 -20l-69 -212q-5 -6 -14 -14.5t-15 -8.5
h-124q-13 0 -14.5 9t-0.5 14zM369 561q-28 0 -57 -12.5t-54.5 -33t-44.5 -46t-27 -51.5l-96 -295q-8 -24 -3.5 -46t18 -39t33 -27.5t42.5 -10.5h466q23 0 49.5 10.5t50.5 27.5t43 39t27 46l96 295q8 26 5.5 51.5t-14.5 46t-33 33t-49 12.5h-452z" />
    <glyph glyph-name="FL00D5h" unicode="&#xd5;" 
d="M821 561q28 0 49 -12.5t33 -33t14.5 -46t-5.5 -51.5l-96 -295q-8 -24 -27 -46t-43 -39t-50.5 -27.5t-49.5 -10.5h-466q-23 0 -42.5 10.5t-33 27.5t-18 39t3.5 46l96 295q8 26 27 51.5t44.5 46t54.5 33t57 12.5h452zM739 626h-111l-26 63l-66 -63h-169l181 166h111l27 -63
l65 63h169zM384 170q-1 -5 0.5 -14t14.5 -9h124q6 0 15 8.5t14 14.5l69 212q3 8 1.5 20t-12.5 12h-126q-11 -2 -19.5 -13t-11.5 -19zM825 573h-45l195 178l-32 48l5 5h-198l-52 -50l-23 34l-7 16h-121l-207 -190h9l27 -41h-3q-31 0 -62.5 -14t-59 -36t-48 -49.5t-29.5 -55.5
l-96 -295q-11 -32 -1.5 -60.5t31.5 -48.5l19 -27q14 -20 36 -33t48 -13h466q24 0 52.5 11t54.5 29.5t46.5 42t28.5 49.5l96 295q9 29 5 57.5t-18 50.5l-19 27q-11 30 -35.5 50t-62.5 20zM496 332q2 6 8 13.5t12 9.5h84l-58 -181q-4 -5 -8.5 -10t-6.5 -5h-87zM620 614h4
l27 -41h-74z" />
    <glyph glyph-name="FL00D6h" unicode="&#xd6;" 
d="M670 632l-11 12q-13 -26 -38 -44.5t-54 -26.5h162q-24 8 -35 26zM440 159h87q2 0 6.5 5t8.5 10l58 181h-84q-6 -2 -12 -9.5t-8 -13.5zM493 573q-24 8 -35 26l-24 33q-16 13 -21.5 32.5t2.5 44.5q6 19 20 36t33 30t41.5 20t46.5 7q33 0 54.5 -14t26.5 -37l20 -29
q17 35 54 57.5t81 22.5q33 0 54.5 -14t26.5 -37l23 -33q17 -25 6 -59q-10 -31 -37 -54t-61 -32h21q38 0 62.5 -20t35.5 -50l19 -27q14 -22 18 -50.5t-5 -57.5l-96 -295q-8 -26 -28.5 -49.5t-46.5 -42t-54.5 -29.5t-52.5 -11h-466q-26 0 -48 13t-36 33l-19 27
q-22 20 -31.5 48.5t1.5 60.5l96 295q9 28 29.5 55.5t48 49.5t59 36t62.5 14h120zM859 709q11 34 -9 57.5t-62 23.5q-21 0 -41 -6.5t-37 -17.5t-29 -25.5t-18 -31.5q-11 -35 9.5 -58.5t62.5 -23.5q21 0 40.5 6t36.5 17t29 26t18 33zM427 709q-11 -35 9.5 -58.5t62.5 -23.5
q21 0 40.5 6t36.5 17t29 26t18 33q11 34 -9 57.5t-62 23.5q-21 0 -41 -6.5t-37 -17.5t-29 -25.5t-18 -31.5zM453 382q3 8 11.5 19t19.5 13h126q11 0 12.5 -12t-1.5 -20l-69 -212q-5 -6 -14 -14.5t-15 -8.5h-124q-13 0 -14.5 9t-0.5 14zM369 561q-28 0 -57 -12.5t-54.5 -33
t-44.5 -46t-27 -51.5l-96 -295q-8 -24 -3.5 -46t18 -39t33 -27.5t42.5 -10.5h466q23 0 49.5 10.5t50.5 27.5t43 39t27 46l96 295q8 26 5.5 51.5t-14.5 46t-33 33t-49 12.5h-452z" />
    <glyph glyph-name="FL00D7h" unicode="&#xd7;" horiz-adv-x="438" 
d="M457 211l-134 -101l-46 68l-91 -69l-68 101l91 69l-46 68l135 101l44 -68l90 67l68 -101l-88 -67zM516 346l-79 117l-89 -67l-45 68l-156 -117l46 -68l-91 -69l79 -117l3 2l32 -48l88 67l14 -20l2 2l33 -48l149 113l-32 48l3 2l-14 19l87 66l-32 48z" />
    <glyph glyph-name="FL00D8h" unicode="&#xd8;" 
d="M825 573q38 0 62.5 -20t35.5 -50l19 -27q14 -22 18 -50.5t-5 -57.5l-96 -295q-8 -26 -28.5 -49.5t-46.5 -42t-54.5 -29.5t-52.5 -11h-466q-26 0 -48 13t-36 33l-19 27q-22 20 -31.5 48.5t1.5 60.5l96 295q9 28 29.5 55.5t48 49.5t59 36t62.5 14h452zM425 296l28 86
q3 8 11.5 19t19.5 13h99zM552 170q-5 -6 -14 -14.5t-15 -8.5h-102l162 117zM369 561q-28 0 -57 -12.5t-54.5 -33t-44.5 -46t-27 -51.5l-96 -295q-8 -24 -3.5 -46t18 -39t33 -27.5t42.5 -10.5h466q23 0 49.5 10.5t50.5 27.5t43 39t27 46l96 295q8 26 5.5 51.5t-14.5 46
t-33 33t-49 12.5h-452z" />
    <glyph glyph-name="FL00D9h" unicode="&#xd9;" 
d="M385 170q2 -6 2.5 -14.5t11.5 -8.5h146l134 414h279l-182 -561h-596q-23 0 -42.5 11t-32.5 28t-18 39t3 45l142 438h280zM709 724q5 -8 6.5 -15t-1.5 -17l-4 -11q-4 -11 -8.5 -19t-17.5 -18q-29 -20 -54 -20t-34 18l-27 50q-5 8 -7 14.5t2 17.5q5 15 14.5 29t25.5 25
q15 11 26 13.5t24 2.5q25 0 33 -17zM528 573h-304l-146 -450q-10 -30 -0.5 -58.5t30.5 -48.5l20 -29q14 -20 35.5 -33t47.5 -13h605l188 579l-32 47l2 6h-277q11 5 25 14q16 12 21 21t10 23l4 11q4 12 2 20t-7 18l-2 3l-20 49q-2 4 -3 5l-24 35l-4 12q-11 22 -41 22
q-14 0 -25.5 -2t-27.5 -13v1q-40 -30 -53 -68q-5 -14 -3.5 -19.5t5.5 -13.5l1 -2l29 -55q3 -5 6.5 -9.5t8.5 -6.5l23 -35q12 -18 39 -18h8l-132 -406h-96l117 361l-32 47z" />
    <glyph glyph-name="FL00DAh" unicode="&#xda;" 
d="M385 170q2 -6 2.5 -14.5t11.5 -8.5h146l134 414h279l-182 -561h-596q-23 0 -42.5 11t-32.5 28t-18 39t3 45l142 438h280zM643 777q20 17 45 17q13 0 22.5 -2.5t17.5 -13.5t8.5 -25t-4.5 -29q-4 -11 -10 -17.5t-15 -14.5l-59 -50q-21 -18 -46 -18t-42 20q-7 10 -6.5 18
t4.5 19l4 11q3 10 9.5 17t15.5 15zM528 573h-304l-146 -450q-10 -30 -0.5 -58.5t30.5 -48.5l20 -29q14 -20 35.5 -33t47.5 -13h605l188 579l-32 47l2 6h-303l-134 -414h-96l117 361l-32 47zM550 692l-4 -11q-5 -14 -5 -24q0 -9 8 -22q7 -9 11 -12l26 -36q17 -22 47 -22
q29 0 53 21l60 50h-1l9 7q8 7 12 12.5t9 18.5q11 35 -4 59l-25 36q-2 6 -4.5 11.5t-6.5 11.5v-1q-9 11 -19 13t-24 2q-32 0 -56 -22l-1 -2l-47 -44q-15 -14 -24.5 -24t-13.5 -22z" />
    <glyph glyph-name="FL00DBh" unicode="&#xdb;" 
d="M385 170q2 -6 2.5 -14.5t11.5 -8.5h146l134 414h279l-182 -561h-596q-23 0 -42.5 11t-32.5 28t-18 39t3 45l142 438h280zM582 792h177l72 -166h-169l-25 64l-67 -64h-169zM374 614h9l27 -41h-186l-146 -450q-10 -30 -0.5 -58.5t30.5 -48.5l20 -29q14 -20 35.5 -33
t47.5 -13h605l188 579l-32 47l2 6h-98l-76 178l-24 36l-8 17h-187zM558 520l-32 47h79l49 47h4l27 -41h-14l-134 -414h-96z" />
    <glyph glyph-name="FL00DCh" unicode="&#xdc;" 
d="M385 170q2 -6 2.5 -14.5t11.5 -8.5h146l134 414h279l-182 -561h-596q-23 0 -42.5 11t-32.5 28t-18 39t3 45l142 438h280zM427 709q6 17 18 31.5t29 25.5t37 17.5t41 6.5q42 0 62 -23.5t9 -57.5q-6 -18 -18 -33t-29 -26t-36.5 -17t-40.5 -6q-42 0 -62.5 23.5t-9.5 58.5z
M859 709q-6 -18 -18 -33t-29 -26t-36.5 -17t-40.5 -6q-42 0 -62.5 23.5t-9.5 58.5q6 17 18 31.5t29 25.5t37 17.5t41 6.5q42 0 62 -23.5t9 -57.5zM415 709q-8 -25 -2.5 -44.5t21.5 -32.5l24 -33q11 -18 35 -26h-269l-146 -450q-10 -30 -0.5 -58.5t30.5 -48.5l20 -29
q14 -20 35.5 -33t47.5 -13h605l188 579l-32 47l2 6h-170q34 9 61 32t37 54q11 34 -6 59l-23 33q-5 23 -26.5 37t-54.5 14q-44 0 -81 -22.5t-54 -57.5l-20 29q-5 23 -26.5 37t-54.5 14q-24 0 -46.5 -7t-41.5 -20t-33 -30t-20 -36zM558 520l-32 47l1 1h3q41 0 76.5 21t52.5 55
l11 -12l24 -33q11 -18 35 -26h-58l-134 -414h-96z" />
    <glyph glyph-name="FL00DDh" unicode="&#xdd;" horiz-adv-x="813" 
d="M631 777q20 17 45 17q13 0 22.5 -2.5t17.5 -13.5t8.5 -25t-4.5 -29q-4 -11 -10 -17.5t-15 -14.5l-59 -50q-21 -18 -46 -18t-42 20q-7 10 -6.5 18t4.5 19l4 11q3 10 9.5 17t15.5 15zM810 144q-10 -30 -27 -56.5t-38 -46t-45.5 -30.5t-50.5 -11h-594l48 147h391
q21 2 31 9.5t17 27.5l7 23h-302q-23 0 -42.5 11t-32.5 28t-17.5 39t2.5 45l75 231h280l-60 -187q1 -5 1.5 -14.5t11.5 -9.5h112q6 0 13.5 8t12.5 14l61 189h281zM961 573h-305l-65 -200q-2 -4 -5.5 -7.5t-4.5 -3.5h-74l51 158l-32 47l2 6h-304l-79 -243q-10 -30 -0.5 -58.5
t30.5 -48.5l20 -29q14 -23 38 -35h-138l-56 -171h6l32 -47h603q28 0 54.5 12t49.5 32.5t40.5 48.5t28.5 60l138 426l-32 47zM538 692l-4 -11q-5 -14 -5 -24q0 -9 8 -22q7 -9 11 -12l26 -36q17 -22 47 -22q29 0 53 21l60 50h-1l9 7q8 7 12 12.5t9 18.5q11 35 -4 59l-25 36
q-2 6 -4.5 11.5t-6.5 11.5v-1q-9 11 -19 13t-24 2q-32 0 -56 -22l-1 -2l-47 -44q-15 -14 -24.5 -24t-13.5 -22z" />
    <glyph glyph-name="FL00DEh" unicode="&#xde;" 
d="M586 310v0q0 1 -1 1l-9 15zM467 240h72q12 0 24 13t18 26h-101zM224 573h304l-2 -6l32 -47l-8 -23h236q42 0 65.5 -18.5t33.5 -46.5l18 -26l-2 3l4 -5q11 -17 16 -37.5t5 -43.5q0 -22 -3.5 -43.5t-9.5 -39.5q-13 -39 -34 -78t-49.5 -70t-65.5 -50.5t-81 -19.5h-287
l-26 -81h-298l-32 47h-6zM577 338q9 0 14 -6t6.5 -14.5t0 -17.5t-3.5 -16q-3 -8 -8.5 -18t-13.5 -18.5t-17.5 -14t-19.5 -5.5h-131l36 110h137zM50 0h280l26 81h296q42 0 76.5 18.5t62 48t47.5 67t32 75.5q9 27 12.5 61t-4.5 63.5t-30.5 50t-64.5 20.5h-295l24 76h-280z" />
    <glyph glyph-name="FL00DFh" unicode="&#xdf;" horiz-adv-x="765" 
d="M441 159h17h4l-14 22zM-5 -150h-6l235 723h525q43 0 68 -20.5t36 -50.5l16 -22l3 -4q19 -28 21 -65t-9 -70q-9 -28 -27.5 -57.5t-43.5 -49.5q14 -23 12.5 -52.5t-12.5 -61.5q-10 -30 -28.5 -61.5t-45.5 -57.5t-63 -43t-81 -17h-196l-20 29l-54 -167h-298zM491 350
l-45 -139h28q21 0 26 -7t0 -23q-5 -14 -16 -24t-30 -10h-29l-48 -147h187q42 0 76.5 16t60 41t43 55t26.5 58q11 32 12.5 63t-15.5 52q27 17 46 47.5t28 58.5q9 27 8.5 57t-11.5 55t-33.5 41.5t-59.5 16.5h-513l-227 -699h280l180 552h75q19 0 23.5 -10t-0.5 -24
q-5 -17 -14.5 -23.5t-30.5 -6.5h-27z" />
    <glyph glyph-name="FL00E0h" unicode="&#xe0;" horiz-adv-x="964" 
d="M944 772l24 -35q1 -1 3 -5l20 -49l2 -3q5 -10 7 -18t-2 -20l-4 -11q-5 -14 -10 -23t-21 -21q-14 -9 -25 -14h174l-2 -6l32 -47l-188 -579h-297l-32 47h-6l75 229l-294 -277h-350l-32 47h-9l575 526q6 6 18.5 16t27.5 20t30.5 17t27.5 7h184q-5 3 -9 10l-23 35
q-5 2 -8.5 6.5t-6.5 9.5l-29 55l-1 2q-4 8 -5.5 13.5t3.5 19.5q13 38 53 68v-1q16 11 27.5 13t25.5 2q30 0 41 -22zM928 777q-8 17 -33 17q-13 0 -24 -2.5t-26 -13.5q-16 -11 -25.5 -25t-14.5 -29q-4 -11 -2 -17.5t7 -14.5l27 -50q9 -18 34 -18t54 20q13 10 17.5 18t8.5 19
l4 11q3 10 1.5 17t-6.5 15zM365 -1l354 334q5 5 7.5 7t7.5 2q2 -2 6 -4t4 -3l-109 -335h279l182 561h-412q-10 0 -24 -6.5t-27.5 -15.5t-25 -18t-17.5 -15l-553 -507h328z" />
    <glyph glyph-name="FL00E1h" unicode="&#xe1;" horiz-adv-x="964" 
d="M812 692q4 12 13.5 22t24.5 24l49 46q23 22 55 22q14 0 24 -2t19 -13v1q4 -6 6.5 -11.5t4.5 -11.5l25 -36q15 -24 4 -59q-5 -13 -9 -18.5t-12 -12.5l-9 -7h1l-60 -50q-11 -9 -19 -13h183l-2 -6l32 -47l-188 -579h-297l-32 47h-6l75 229l-294 -277h-350l-32 47h-9l575 526
q6 6 18.5 16t27.5 20t30.5 17t27.5 7h174q-7 3 -14 14l-26 36q-4 3 -11 12q-8 13 -8 22q0 10 5 24zM849 724q-9 -8 -15.5 -15t-9.5 -17l-4 -11q-4 -11 -4.5 -19t6.5 -18q17 -20 42 -20t46 18l59 50q9 8 15 14.5t10 17.5q5 15 4.5 29t-8.5 25t-17.5 13.5t-22.5 2.5
q-25 0 -45 -17zM365 -1l354 334q5 5 7.5 7t7.5 2q2 -2 6 -4t4 -3l-109 -335h279l182 561h-412q-10 0 -24 -6.5t-27.5 -15.5t-25 -18t-17.5 -15l-553 -507h328z" />
    <glyph glyph-name="FL00E2h" unicode="&#xe2;" horiz-adv-x="964" 
d="M866 573h74l-27 41h-4zM18 -13h-9l575 526q5 5 14 12.5t20.5 16t24.5 15.5t25 12l-30 45h-9l207 190h187l8 -17l24 -36l80 -184h-25l32 -47l-188 -579h-297l-32 47h-6l75 229l-294 -277h-350zM892 690l25 -64h169l-72 166h-177l-181 -166h169zM365 -1l354 334q5 5 7.5 7
t7.5 2q2 -2 6 -4t4 -3l-109 -335h279l182 561h-412q-10 0 -24 -6.5t-27.5 -15.5t-25 -18t-17.5 -15l-553 -507h328z" />
    <glyph glyph-name="FL00E3h" unicode="&#xe3;" horiz-adv-x="964" 
d="M964 626h-111l-26 63l-66 -63h-169l181 166h111l27 -63l65 63h169zM590 506q6 6 17.5 15t25 18t27.5 15.5t24 6.5h412l-182 -561h-279l109 335q0 1 -4 3t-6 4q-5 0 -7.5 -2t-7.5 -7l-354 -334h-328zM1173 804h-198l-52 -50l-23 34l-7 16h-121l-207 -190h9l31 -47h58
q-23 -10 -46.5 -27.5t-32.5 -26.5l-575 -526h9l32 -47h350l294 277l-75 -229h6l32 -47h297l188 579l-32 47l2 6h-107l195 178l-32 48zM845 614h4l27 -41h-74z" />
    <glyph glyph-name="FL00E4h" unicode="&#xe4;" horiz-adv-x="964" 
d="M939 632l-11 12q-13 -26 -38 -44.5t-54 -26.5h162q-24 8 -35 26zM684 709q6 19 20 36t33 30t41.5 20t46.5 7q33 0 54.5 -14t26.5 -37l20 -29q17 35 54 57.5t81 22.5q33 0 54.5 -14t26.5 -37l23 -33q17 -25 6 -59q-10 -31 -37 -54t-61 -32h39l-2 -6l32 -47l-188 -579h-297
l-32 47h-6l75 229l-294 -277h-350l-32 47h-9l575 526q6 6 18.5 16t27.5 20t30.5 17t27.5 7h74q-24 8 -35 26l-24 33q-16 13 -21.5 32.5t2.5 44.5zM1128 709q11 34 -9 57.5t-62 23.5q-21 0 -41 -6.5t-37 -17.5t-29 -25.5t-18 -31.5q-11 -35 9.5 -58.5t62.5 -23.5q21 0 40.5 6
t36.5 17t29 26t18 33zM696 709q-11 -35 9.5 -58.5t62.5 -23.5q21 0 40.5 6t36.5 17t29 26t18 33q11 34 -9 57.5t-62 23.5q-21 0 -41 -6.5t-37 -17.5t-29 -25.5t-18 -31.5zM365 -1l354 334q5 5 7.5 7t7.5 2q2 -2 6 -4t4 -3l-109 -335h279l182 561h-412q-10 0 -24 -6.5
t-27.5 -15.5t-25 -18t-17.5 -15l-553 -507h328z" />
    <glyph glyph-name="FL00E5h" unicode="&#xe5;" horiz-adv-x="964" 
d="M867 709q-3 -9 5 -15.5t22 -6.5t26 6.5t15 15.5t-5 15t-22 6t-26 -6t-15 -15zM804 709q6 17 18 31.5t29 25.5t37 17.5t41 6.5q42 0 62 -23.5t9 -57.5q-6 -18 -18 -33t-29 -26t-36.5 -17t-40.5 -6q-42 0 -62.5 23.5t-9.5 58.5zM590 506q6 6 17.5 15t25 18t27.5 15.5
t24 6.5h412l-182 -561h-279l109 335q0 1 -4 3t-6 4q-5 0 -7.5 -2t-7.5 -7l-354 -334h-328zM792 709q-8 -25 -2.5 -44.5t21.5 -32.5l24 -33q11 -18 35 -26h-182q-12 0 -27.5 -7t-30.5 -17t-27.5 -20t-18.5 -16l-575 -526h9l32 -47h350l294 277l-75 -229h6l32 -47h297l188 579
l-32 47l2 6h-167q34 9 61 32t37 54q11 34 -6 59l-23 33q-5 23 -26.5 37t-54.5 14q-24 0 -46.5 -7t-41.5 -20t-33 -30t-20 -36z" />
    <glyph glyph-name="FL00E6h" unicode="&#xe6;" horiz-adv-x="1331" 
d="M1021 110q0 -3 2 -3zM18 -13h-9l575 526q6 6 18.5 16t27.5 20t30.5 17t27.5 7h791l-2 -6l32 -47l-54 -165h-45l31 -45l-53 -161h-43l29 -43l-53 -165h-664l-32 47h-6l75 229l-294 -277h-350zM365 -1l354 334q5 5 7.5 7t7.5 2q2 -2 6 -4t4 -3l-109 -335h646l48 147h-342
q-2 0 -7 8.5t-7 14.5q1 1 1 3t1 4q0 4 3 7q2 3 6.5 7l9 8t8.5 6.5t5 2.5h342l46 143h-335q-13 0 -18 10t-1 21q3 8 13 20t20 12h342l47 147h-779q-10 0 -24 -6.5t-27.5 -15.5t-25 -18t-17.5 -15l-553 -507h328z" />
    <glyph glyph-name="FL00E7h" unicode="&#xe7;" horiz-adv-x="743" 
d="M441 159h310l-2 -6l31 -47l-53 -165h-197l-51 -157h-234l-32 47h-6l36 110h-32q-26 0 -48 13t-36 33l-19 27q-22 20 -31.5 48.5t1.5 60.5l96 295q9 28 29.5 55.5t48 49.5t59 36t62.5 14h518l-2 -6l32 -47l-54 -165h-351q-5 0 -10.5 -7.5t-7.5 -13.5zM490 0h197l48 147
h-336q-8 0 -12 6.5t-2 16.5l70 214q2 8 11.5 19t19.5 11h342l47 147h-506q-28 0 -57 -12.5t-54.5 -33t-44.5 -46t-27 -51.5l-96 -295q-8 -24 -3.5 -46t18 -39t33 -27.5t42.5 -10.5h177l-14 -42h-83l-37 -115h216z" />
    <glyph glyph-name="FL00E8h" unicode="&#xe8;" horiz-adv-x="743" 
d="M433 110q0 -3 2 -3zM588 573q-5 3 -9 10l-23 35q-5 2 -8.5 6.5t-6.5 9.5l-29 55l-1 2q-4 8 -5.5 13.5t3.5 19.5q13 38 53 68v-1q16 11 27.5 13t25.5 2q30 0 41 -22l4 -12l24 -35q1 -1 3 -5l20 -49l2 -3q5 -10 7 -18t-2 -20l-4 -11q-5 -14 -10 -23t-21 -21q-14 -9 -25 -14
h237l-2 -6l32 -47l-54 -165h-45l31 -45l-53 -161h-43l29 -43l-53 -165h-522q-26 0 -48 13t-36 33l-19 27q-22 20 -31.5 48.5t1.5 60.5l96 295q9 28 29.5 55.5t48 49.5t59 36t62.5 14h215zM644 777q-8 17 -33 17q-13 0 -24 -2.5t-26 -13.5q-16 -11 -25.5 -25t-14.5 -29
q-4 -11 -2 -17.5t7 -14.5l27 -50q9 -18 34 -18t54 20q13 10 17.5 18t8.5 19l4 11q3 10 1.5 17t-6.5 15zM369 561q-28 0 -57 -12.5t-54.5 -33t-44.5 -46t-27 -51.5l-96 -295q-8 -24 -3.5 -46t18 -39t33 -27.5t42.5 -10.5h513l48 147h-342q-2 0 -7 8.5t-7 14.5q1 1 1 3t1 4
q0 4 3 7q2 3 6.5 7l9 8t8.5 6.5t5 2.5h342l46 143h-335q-13 0 -18 10t-1 21q3 8 13 20t20 12h342l47 147h-506z" />
    <glyph glyph-name="FL00E9h" unicode="&#xe9;" horiz-adv-x="743" 
d="M433 110q0 -3 2 -3zM592 573q-7 3 -14 14l-26 36q-4 3 -11 12q-8 13 -8 22q0 10 5 24l4 11q4 12 13.5 22t24.5 24l49 46q23 22 55 22q14 0 24 -2t19 -13v1q4 -6 6.5 -11.5t4.5 -11.5l25 -36q15 -24 4 -59q-5 -13 -9 -18.5t-12 -12.5l-9 -7h1l-60 -50q-11 -9 -19 -13h232
l-2 -6l32 -47l-54 -165h-45l31 -45l-53 -161h-43l29 -43l-53 -165h-522q-26 0 -48 13t-36 33l-19 27q-22 20 -31.5 48.5t1.5 60.5l96 295q9 28 29.5 55.5t48 49.5t59 36t62.5 14h219zM579 724q-9 -8 -15.5 -15t-9.5 -17l-4 -11q-4 -11 -4.5 -19t6.5 -18q17 -20 42 -20t46 18
l59 50q9 8 15 14.5t10 17.5q5 15 4.5 29t-8.5 25t-17.5 13.5t-22.5 2.5q-25 0 -45 -17zM369 561q-28 0 -57 -12.5t-54.5 -33t-44.5 -46t-27 -51.5l-96 -295q-8 -24 -3.5 -46t18 -39t33 -27.5t42.5 -10.5h513l48 147h-342q-2 0 -7 8.5t-7 14.5q1 1 1 3t1 4q0 4 3 7q2 3 6.5 7
l9 8t8.5 6.5t5 2.5h342l46 143h-335q-13 0 -18 10t-1 21q3 8 13 20t20 12h342l47 147h-506z" />
    <glyph glyph-name="FL00EAh" unicode="&#xea;" horiz-adv-x="743" 
d="M433 110q0 -3 2 -3zM573 573h74l-27 41h-4zM108 14q-22 20 -31.5 48.5t1.5 60.5l96 295q9 27 29.5 54.5t47.5 50t58.5 36.5t62.5 14l-27 41h-9l207 190h187l8 -17l24 -36l76 -178h53l-2 -6l32 -47l-54 -165h-45l31 -45l-53 -161h-43l29 -43l-53 -165h-522q-26 0 -48 13
t-36 33zM599 690l25 -64h169l-72 166h-177l-181 -166h169zM369 561q-28 0 -57 -12.5t-54.5 -33t-44.5 -46t-27 -51.5l-96 -295q-8 -24 -3.5 -46t18 -39t33 -27.5t42.5 -10.5h513l48 147h-342q-2 0 -7 8.5t-7 14.5q1 1 1 3t1 4q0 4 3 7q2 3 6.5 7l9 8t8.5 6.5t5 2.5h342
l46 143h-335q-13 0 -18 10t-1 21q3 8 13 20t20 12h342l47 147h-506z" />
    <glyph glyph-name="FL00EBh" unicode="&#xeb;" horiz-adv-x="743" 
d="M632 632l-11 12q-13 -26 -38 -44.5t-54 -26.5h162q-24 8 -35 26zM455 573q-24 8 -35 26l-24 33q-16 13 -21.5 32.5t2.5 44.5q6 19 20 36t33 30t41.5 20t46.5 7q33 0 54.5 -14t26.5 -37l20 -29q17 35 54 57.5t81 22.5q33 0 54.5 -14t26.5 -37l23 -33q17 -25 6 -59
q-10 -31 -37 -54t-61 -32h125l-2 -6l32 -47l-54 -165h-45l31 -45l-53 -161h-43l29 -43l-53 -165h-522q-26 0 -48 13t-36 33l-19 27q-22 20 -31.5 48.5t1.5 60.5l96 295q9 28 29.5 55.5t48 49.5t59 36t62.5 14h82zM821 709q11 34 -9 57.5t-62 23.5q-21 0 -41 -6.5t-37 -17.5
t-29 -25.5t-18 -31.5q-11 -35 9.5 -58.5t62.5 -23.5q21 0 40.5 6t36.5 17t29 26t18 33zM389 709q-11 -35 9.5 -58.5t62.5 -23.5q21 0 40.5 6t36.5 17t29 26t18 33q11 34 -9 57.5t-62 23.5q-21 0 -41 -6.5t-37 -17.5t-29 -25.5t-18 -31.5zM369 561q-28 0 -57 -12.5t-54.5 -33
t-44.5 -46t-27 -51.5l-96 -295q-8 -24 -3.5 -46t18 -39t33 -27.5t42.5 -10.5h513l48 147h-342q-2 0 -7 8.5t-7 14.5q1 1 1 3t1 4q0 4 3 7q2 3 6.5 7l9 8t8.5 6.5t5 2.5h342l46 143h-335q-13 0 -18 10t-1 21q3 8 13 20t20 12h342l47 147h-506z" />
    <glyph glyph-name="FL00ECh" unicode="&#xec;" horiz-adv-x="380" 
d="M481 772l24 -35q1 -1 3 -5l20 -49l2 -3q5 -10 7 -18t-2 -20l-4 -11q-5 -14 -10 -23t-21 -21q-14 -9 -25 -14h53l-2 -6l32 -47l-188 -579h-298l-32 47h-6l190 585h185q-5 3 -9 10l-23 35q-5 2 -8.5 6.5t-6.5 9.5l-29 55l-1 2q-4 8 -5.5 13.5t3.5 19.5q13 38 53 68v-1
q16 11 27.5 13t25.5 2q30 0 41 -22zM50 0h280l182 561h-280zM465 777q-8 17 -33 17q-13 0 -24 -2.5t-26 -13.5q-16 -11 -25.5 -25t-14.5 -29q-4 -11 -2 -17.5t7 -14.5l27 -50q9 -18 34 -18t54 20q13 10 17.5 18t8.5 19l4 11q3 10 1.5 17t-6.5 15z" />
    <glyph glyph-name="FL00EDh" unicode="&#xed;" horiz-adv-x="380" 
d="M224 573h152q-7 3 -14 14l-25 36q-4 2 -6.5 5t-5.5 7q-8 13 -8 22q0 10 5 24l4 11q4 12 13.5 22t24.5 24l49 46q23 22 55 22q14 0 24 -2t19 -13v1q4 -6 6.5 -11.5t4.5 -11.5l25 -36q15 -24 4 -59q-5 -13 -9 -18.5t-12 -12.5l-9 -7h1l-60 -50q-11 -9 -19 -13h85l-2 -6
l32 -47l-188 -579h-298l-32 47h-6zM363 724q-9 -8 -15.5 -15t-9.5 -17l-4 -11q-4 -11 -4.5 -19t6.5 -18q17 -20 42 -20t46 18l59 50q9 8 15 14.5t10 17.5q5 15 4.5 29t-8.5 25t-17.5 13.5t-22.5 2.5q-25 0 -45 -17zM50 0h280l182 561h-280z" />
    <glyph glyph-name="FL00EEh" unicode="&#xee;" horiz-adv-x="380" 
d="M386 573h74l-27 41h-4zM222 567h-33l-31 47h-9l207 190h187l8 -17l24 -36l80 -184h-129l32 -47l-188 -579h-298l-32 47h-6zM412 690l25 -64h169l-72 166h-177l-181 -166h169zM50 0h280l182 561h-280z" />
    <glyph glyph-name="FL00EFh" unicode="&#xef;" horiz-adv-x="380" 
d="M412 706l13 -20q0 1 -1 1v0zM448 632l-11 12q-13 -26 -38 -44.5t-54 -26.5h162q-24 8 -35 26zM224 573h47q-24 8 -35 26l-23 33q-16 13 -22 32.5t2 44.5q6 19 20 36t33 30t41.5 20t46.5 7q33 0 54.5 -14t26.5 -37l20 -29q17 35 54 57.5t81 22.5q33 0 54.5 -14t26.5 -37
l23 -33q17 -25 6 -59q-6 -20 -20 -36.5t-32 -28.5t-40 -19t-44 -7h-17l-1 -2l32 -46l-188 -579h-298l-32 47h-6zM637 709q11 34 -9 57.5t-62 23.5q-21 0 -41 -6.5t-37 -17.5t-29 -25.5t-18 -31.5q-11 -35 9.5 -58.5t62.5 -23.5q21 0 40.5 6t36.5 17t29 26t18 33zM205 709
q-11 -35 9.5 -58.5t62.5 -23.5q21 0 40.5 6t36.5 17t29 26t18 33q11 34 -9 57.5t-62 23.5q-21 0 -41 -6.5t-37 -17.5t-29 -25.5t-18 -31.5zM50 0h280l182 561h-280z" />
    <glyph glyph-name="FL0047h" unicode="&#xf0;" 
d="M132 253q7 21 26 40.5t43 34t50 23t46 8.5h316l7 23h2l-1 2q2 8 0.5 19t-11.5 11h-422l47 147h586q28 0 48.5 -12.5t33 -33t15 -46t-5.5 -51.5l-96 -295q-8 -23 -27 -45t-43 -39t-51 -28t-49 -11h-466q-23 0 -43 10.5t-33 27.5t-17.5 39t3.5 46zM523 147q11 0 17 8.5
t11 14.5l14 41h-167l-14 -41q2 -6 4.5 -14.5t10.5 -8.5h124zM120 253l-42 -130q-11 -32 -2 -60t30 -48l20 -29q14 -20 36.5 -32.5t48.5 -12.5h466q24 0 52.5 11.5t54.5 30.5t46.5 42.5t28.5 47.5l96 295q9 29 5 57.5t-18 50.5l-19 27q-11 30 -36 50t-62 20h-598l-55 -171h6
l31 -47h23q-36 -16 -68.5 -43t-43.5 -59z" />
    <glyph glyph-name="FL00F1h" unicode="&#xf1;" horiz-adv-x="988" 
d="M832 626h-111l-26 63l-66 -63h-169l181 166h111l27 -63l65 63h169zM938 0h-340q-23 0 -40 10t-29.5 25t-21.5 33.5t-15 35.5l-71 175l-91 -279h-280l182 561h365q16 0 31 -11t27 -26.5t20.5 -33t11.5 -30.5l59 -185l93 286h281zM1136 573h-263l195 178l-32 48l5 5h-198
l-52 -50l-23 34l-7 16h-121l-207 -190h9l27 -41h-245l-190 -585h6l32 -47h298l77 238l34 -82q7 -21 18.5 -43.5t28.5 -39.5l17 -25q14 -20 34.5 -34t49.5 -14h349l188 579l-32 47zM664 567l49 47h4l31 -47h81l-74 -229l-24 77q-3 11 -10 26.5t-18 29.5l-7 11
q-10 22 -28.5 48t-42.5 37h39z" />
    <glyph glyph-name="FL00F2h" unicode="&#xf2;" 
d="M440 159h87q2 0 6.5 5t8.5 10l58 181h-84q-6 -2 -12 -9.5t-8 -13.5zM631 573q-5 3 -9 10l-23 35q-5 2 -8.5 6.5t-6.5 9.5l-29 55l-1 2q-4 8 -5.5 13.5t3.5 19.5q13 38 53 68v-1q16 11 27.5 13t25.5 2q30 0 41 -22l4 -12l24 -35q1 -1 3 -5l20 -49l2 -3q5 -10 7 -18t-2 -20
l-4 -11q-5 -14 -10 -23t-21 -21q-14 -9 -25 -14h128q38 0 62.5 -20t35.5 -50l19 -27q14 -22 18 -50.5t-5 -57.5l-96 -295q-8 -26 -28.5 -49.5t-46.5 -42t-54.5 -29.5t-52.5 -11h-466q-26 0 -48 13t-36 33l-19 27q-22 20 -31.5 48.5t1.5 60.5l96 295q9 28 29.5 55.5t48 49.5
t59 36t62.5 14h258zM687 777q-8 17 -33 17q-13 0 -24 -2.5t-26 -13.5q-16 -11 -25.5 -25t-14.5 -29q-4 -11 -2 -17.5t7 -14.5l27 -50q9 -18 34 -18t54 20q13 10 17.5 18t8.5 19l4 11q3 10 1.5 17t-6.5 15zM453 382q3 8 11.5 19t19.5 13h126q11 0 12.5 -12t-1.5 -20l-69 -212
q-5 -6 -14 -14.5t-15 -8.5h-124q-13 0 -14.5 9t-0.5 14zM369 561q-28 0 -57 -12.5t-54.5 -33t-44.5 -46t-27 -51.5l-96 -295q-8 -24 -3.5 -46t18 -39t33 -27.5t42.5 -10.5h466q23 0 49.5 10.5t50.5 27.5t43 39t27 46l96 295q8 26 5.5 51.5t-14.5 46t-33 33t-49 12.5h-452z
" />
    <glyph glyph-name="FL00F3h" unicode="&#xf3;" 
d="M440 159h87q2 0 6.5 5t8.5 10l58 181h-84q-6 -2 -12 -9.5t-8 -13.5zM600 573q-7 3 -14 14l-26 36q-4 3 -11 12q-8 13 -8 22q0 10 5 24l4 11q4 12 13.5 22t24.5 24l49 46q23 22 55 22q14 0 24 -2t19 -13v1q4 -6 6.5 -11.5t4.5 -11.5l25 -36q15 -24 4 -59q-5 -13 -9 -18.5
t-12 -12.5l-9 -7h1l-60 -50q-11 -9 -19 -13h158q38 0 62.5 -20t35.5 -50l19 -27q14 -22 18 -50.5t-5 -57.5l-96 -295q-8 -26 -28.5 -49.5t-46.5 -42t-54.5 -29.5t-52.5 -11h-466q-26 0 -48 13t-36 33l-19 27q-22 20 -31.5 48.5t1.5 60.5l96 295q9 28 29.5 55.5t48 49.5
t59 36t62.5 14h227zM587 724q-9 -8 -15.5 -15t-9.5 -17l-4 -11q-4 -11 -4.5 -19t6.5 -18q17 -20 42 -20t46 18l59 50q9 8 15 14.5t10 17.5q5 15 4.5 29t-8.5 25t-17.5 13.5t-22.5 2.5q-25 0 -45 -17zM453 382q3 8 11.5 19t19.5 13h126q11 0 12.5 -12t-1.5 -20l-69 -212
q-5 -6 -14 -14.5t-15 -8.5h-124q-13 0 -14.5 9t-0.5 14zM369 561q-28 0 -57 -12.5t-54.5 -33t-44.5 -46t-27 -51.5l-96 -295q-8 -24 -3.5 -46t18 -39t33 -27.5t42.5 -10.5h466q23 0 49.5 10.5t50.5 27.5t43 39t27 46l96 295q8 26 5.5 51.5t-14.5 46t-33 33t-49 12.5h-452z
" />
    <glyph glyph-name="FL00F4h" unicode="&#xf4;" 
d="M611 573h74l-27 41h-4zM440 159h87q2 0 6.5 5t8.5 10l58 181h-84q-6 -2 -12 -9.5t-8 -13.5zM410 573l-27 41h-9l207 190h187l8 -17l24 -36l80 -184h-19q23 -8 38.5 -25t23.5 -39l19 -27q14 -22 18 -50.5t-5 -57.5l-96 -295q-8 -26 -28.5 -49.5t-46.5 -42t-54.5 -29.5
t-52.5 -11h-466q-26 0 -48 13t-36 33l-19 27q-22 20 -31.5 48.5t1.5 60.5l96 295q9 28 29.5 55.5t48 49.5t59 36t62.5 14h37zM637 690l25 -64h169l-72 166h-177l-181 -166h169zM453 382q3 8 11.5 19t19.5 13h126q11 0 12.5 -12t-1.5 -20l-69 -212q-5 -6 -14 -14.5t-15 -8.5
h-124q-13 0 -14.5 9t-0.5 14zM369 561q-28 0 -57 -12.5t-54.5 -33t-44.5 -46t-27 -51.5l-96 -295q-8 -24 -3.5 -46t18 -39t33 -27.5t42.5 -10.5h466q23 0 49.5 10.5t50.5 27.5t43 39t27 46l96 295q8 26 5.5 51.5t-14.5 46t-33 33t-49 12.5h-452z" />
    <glyph glyph-name="FL00F5h" unicode="&#xf5;" 
d="M821 561q28 0 49 -12.5t33 -33t14.5 -46t-5.5 -51.5l-96 -295q-8 -24 -27 -46t-43 -39t-50.5 -27.5t-49.5 -10.5h-466q-23 0 -42.5 10.5t-33 27.5t-18 39t3.5 46l96 295q8 26 27 51.5t44.5 46t54.5 33t57 12.5h452zM739 626h-111l-26 63l-66 -63h-169l181 166h111l27 -63
l65 63h169zM384 170q-1 -5 0.5 -14t14.5 -9h124q6 0 15 8.5t14 14.5l69 212q3 8 1.5 20t-12.5 12h-126q-11 -2 -19.5 -13t-11.5 -19zM825 573h-45l195 178l-32 48l5 5h-198l-52 -50l-23 34l-7 16h-121l-207 -190h9l27 -41h-3q-31 0 -62.5 -14t-59 -36t-48 -49.5t-29.5 -55.5
l-96 -295q-11 -32 -1.5 -60.5t31.5 -48.5l19 -27q14 -20 36 -33t48 -13h466q24 0 52.5 11t54.5 29.5t46.5 42t28.5 49.5l96 295q9 29 5 57.5t-18 50.5l-19 27q-11 30 -35.5 50t-62.5 20zM496 332q2 6 8 13.5t12 9.5h84l-58 -181q-4 -5 -8.5 -10t-6.5 -5h-87zM620 614h4
l27 -41h-74z" />
    <glyph glyph-name="FL00F6h" unicode="&#xf6;" 
d="M670 632l-11 12q-13 -26 -38 -44.5t-54 -26.5h162q-24 8 -35 26zM440 159h87q2 0 6.5 5t8.5 10l58 181h-84q-6 -2 -12 -9.5t-8 -13.5zM493 573q-24 8 -35 26l-24 33q-16 13 -21.5 32.5t2.5 44.5q6 19 20 36t33 30t41.5 20t46.5 7q33 0 54.5 -14t26.5 -37l20 -29
q17 35 54 57.5t81 22.5q33 0 54.5 -14t26.5 -37l23 -33q17 -25 6 -59q-10 -31 -37 -54t-61 -32h21q38 0 62.5 -20t35.5 -50l19 -27q14 -22 18 -50.5t-5 -57.5l-96 -295q-8 -26 -28.5 -49.5t-46.5 -42t-54.5 -29.5t-52.5 -11h-466q-26 0 -48 13t-36 33l-19 27
q-22 20 -31.5 48.5t1.5 60.5l96 295q9 28 29.5 55.5t48 49.5t59 36t62.5 14h120zM859 709q11 34 -9 57.5t-62 23.5q-21 0 -41 -6.5t-37 -17.5t-29 -25.5t-18 -31.5q-11 -35 9.5 -58.5t62.5 -23.5q21 0 40.5 6t36.5 17t29 26t18 33zM427 709q-11 -35 9.5 -58.5t62.5 -23.5
q21 0 40.5 6t36.5 17t29 26t18 33q11 34 -9 57.5t-62 23.5q-21 0 -41 -6.5t-37 -17.5t-29 -25.5t-18 -31.5zM453 382q3 8 11.5 19t19.5 13h126q11 0 12.5 -12t-1.5 -20l-69 -212q-5 -6 -14 -14.5t-15 -8.5h-124q-13 0 -14.5 9t-0.5 14zM369 561q-28 0 -57 -12.5t-54.5 -33
t-44.5 -46t-27 -51.5l-96 -295q-8 -24 -3.5 -46t18 -39t33 -27.5t42.5 -10.5h466q23 0 49.5 10.5t50.5 27.5t43 39t27 46l96 295q8 26 5.5 51.5t-14.5 46t-33 33t-49 12.5h-452z" />
    <glyph glyph-name="FL00F7h" unicode="&#xf7;" horiz-adv-x="497" 
d="M310 463q6 18 18 33.5t28 27t35 18t38 6.5q26 0 43 -12.5t22 -32.5l24 -34q15 -23 5 -56q-5 -14 -14 -27t-20 -23h88l-2 -6l32 -47l-53 -161h-178l1 -6l24 -34q15 -23 5 -56q-6 -17 -17.5 -32.5t-27 -26.5t-34 -17.5t-36.5 -6.5q-37 0 -55 26l-24 33q-16 11 -21.5 30.5
t2.5 43.5q9 26 29 46h-83l-31 47h-6l54 167h192l-19 26q-16 11 -21.5 30.5t2.5 43.5zM205 103q-10 -31 6 -52.5t49 -21.5q16 0 32.5 6t30.5 16t24.5 23.5t15.5 28.5q11 31 -5.5 52t-49.5 21t-62.5 -21t-40.5 -52zM322 463q-10 -31 6 -52.5t49 -21.5q16 0 32.5 6t30.5 16
t24.5 23.5t15.5 28.5q11 31 -5.5 52t-49.5 21t-62.5 -21t-40.5 -52zM515 208l46 143h-397l-46 -143h397z" />
    <glyph glyph-name="FL00F8h" unicode="&#xf8;" 
d="M825 573q38 0 62.5 -20t35.5 -50l19 -27q14 -22 18 -50.5t-5 -57.5l-96 -295q-8 -26 -28.5 -49.5t-46.5 -42t-54.5 -29.5t-52.5 -11h-466q-26 0 -48 13t-36 33l-19 27q-22 20 -31.5 48.5t1.5 60.5l96 295q9 28 29.5 55.5t48 49.5t59 36t62.5 14h452zM425 296l28 86
q3 8 11.5 19t19.5 13h99zM552 170q-5 -6 -14 -14.5t-15 -8.5h-102l162 117zM369 561q-28 0 -57 -12.5t-54.5 -33t-44.5 -46t-27 -51.5l-96 -295q-8 -24 -3.5 -46t18 -39t33 -27.5t42.5 -10.5h466q23 0 49.5 10.5t50.5 27.5t43 39t27 46l96 295q8 26 5.5 51.5t-14.5 46
t-33 33t-49 12.5h-452z" />
    <glyph glyph-name="FL00F9h" unicode="&#xf9;" 
d="M703 772l24 -35q1 -1 3 -5l20 -49l2 -3q5 -10 7 -18t-2 -20l-4 -11q-5 -14 -10 -23t-21 -21q-14 -9 -25 -14h277l-2 -6l32 -47l-145 -447q-8 -24 -28.5 -47.5t-46.5 -42.5t-54.5 -30.5t-52.5 -11.5h-466q-26 0 -48.5 12.5t-36.5 32.5l-20 29q-21 20 -30 48t2 60l146 450
h303l-2 -6l32 -47l-117 -361h87q4 0 11 11q-1 0 2 3l128 392h-7q-27 0 -39 18l-23 35q-5 2 -8.5 6.5t-6.5 9.5l-29 55l-1 2q-4 8 -5.5 13.5t3.5 19.5q13 38 53 68v-1q16 11 27.5 13t25.5 2q30 0 41 -22zM551 170q-5 -6 -11 -14.5t-17 -8.5h-124q-8 0 -10.5 8.5t-4.5 14.5
l127 391h-279l-142 -438q-8 -24 -3.5 -46t17.5 -39t33 -27.5t43 -10.5h466q22 0 49 11t51 28t43 39t27 45l142 438h-280zM687 777q-8 17 -33 17q-13 0 -24 -2.5t-26 -13.5q-16 -11 -25.5 -25t-14.5 -29q-4 -11 -2 -17.5t7 -14.5l27 -50q9 -18 34 -18t54 20q13 10 17.5 18
t8.5 19l4 11q3 10 1.5 17t-6.5 15z" />
    <glyph glyph-name="FL00FAh" unicode="&#xfa;" 
d="M550 692q4 12 13.5 22t24.5 24l49 46q23 22 55 22q14 0 24 -2t19 -13v1q4 -6 6.5 -11.5t4.5 -11.5l25 -36q15 -24 4 -59q-5 -13 -9 -18.5t-12 -12.5l-9 -7h1l-60 -50q-24 -21 -53 -21q-30 0 -47 22l-26 36q-4 3 -11 12q-8 13 -8 22q0 10 5 24zM528 573l-2 -6l32 -47
l-117 -361h86q2 0 6.5 5t8.5 10l129 399h303l-2 -6l32 -47l-145 -447q-8 -26 -28.5 -49.5t-46.5 -42t-54.5 -29.5t-52.5 -11h-466q-26 0 -47.5 13t-35.5 33l-20 29q-21 20 -30.5 48.5t0.5 58.5l146 450h304zM587 724q-9 -8 -15.5 -15t-9.5 -17l-4 -11q-4 -11 -4.5 -19
t6.5 -18q17 -20 42 -20t46 18l59 50q9 8 15 14.5t10 17.5q5 15 4.5 29t-8.5 25t-17.5 13.5t-22.5 2.5q-25 0 -45 -17zM232 561l-142 -438q-8 -23 -3 -45t18 -39t32.5 -28t42.5 -11h466q23 0 49.5 10.5t50.5 27.5t43 39t27 46l142 438h-279l-127 -391q-5 -6 -13 -14.5
t-16 -8.5h-124q-11 0 -11.5 8.5t-2.5 14.5l127 391h-280z" />
    <glyph glyph-name="FL00FBh" unicode="&#xfb;" 
d="M441 159h86q2 0 6.5 5t8.5 10l129 399h14l-27 41h-4l-49 -47h-79l32 -47zM410 573l-27 41h-9l207 190h187l8 -17l24 -36l76 -178h98l-2 -6l32 -47l-145 -447q-8 -26 -28.5 -49.5t-46.5 -42t-54.5 -29.5t-52.5 -11h-466q-26 0 -47.5 13t-35.5 33l-20 29q-21 20 -30.5 48.5
t0.5 58.5l146 450h186zM637 690l25 -64h169l-72 166h-177l-181 -166h169zM232 561l-142 -438q-8 -23 -3 -45t18 -39t32.5 -28t42.5 -11h466q23 0 49.5 10.5t50.5 27.5t43 39t27 46l142 438h-279l-127 -391q-5 -6 -13 -14.5t-16 -8.5h-124q-11 0 -11.5 8.5t-2.5 14.5l127 391
h-280z" />
    <glyph glyph-name="FL00FCh" unicode="&#xfc;" 
d="M441 159h86q2 0 6.5 5t8.5 10l129 399h58q-24 8 -35 26l-24 33l-11 12q-17 -34 -52.5 -55t-76.5 -21h-3l-1 -1l32 -47zM493 573q-24 8 -35 26l-24 33q-16 13 -21.5 32.5t2.5 44.5q6 19 20 36t33 30t41.5 20t46.5 7q33 0 54.5 -14t26.5 -37l20 -29q17 35 54 57.5t81 22.5
q33 0 54.5 -14t26.5 -37l23 -33q17 -25 6 -59q-10 -31 -37 -54t-61 -32h170l-2 -6l32 -47l-145 -447q-8 -26 -28.5 -49.5t-46.5 -42t-54.5 -29.5t-52.5 -11h-466q-26 0 -47.5 13t-35.5 33l-20 29q-21 20 -30.5 48.5t0.5 58.5l146 450h269zM859 709q11 34 -9 57.5t-62 23.5
q-21 0 -41 -6.5t-37 -17.5t-29 -25.5t-18 -31.5q-11 -35 9.5 -58.5t62.5 -23.5q21 0 40.5 6t36.5 17t29 26t18 33zM427 709q-11 -35 9.5 -58.5t62.5 -23.5q21 0 40.5 6t36.5 17t29 26t18 33q11 34 -9 57.5t-62 23.5q-21 0 -41 -6.5t-37 -17.5t-29 -25.5t-18 -31.5zM232 561
l-142 -438q-8 -23 -3 -45t18 -39t32.5 -28t42.5 -11h466q23 0 49.5 10.5t50.5 27.5t43 39t27 46l142 438h-279l-127 -391q-5 -6 -13 -14.5t-16 -8.5h-124q-11 0 -11.5 8.5t-2.5 14.5l127 391h-280z" />
    <glyph glyph-name="FL00FDh" unicode="&#xfd;" horiz-adv-x="791" 
d="M547 692q4 12 13.5 22t24.5 24l49 46q23 22 55 22q14 0 24 -2t19 -13v1q4 -6 6.5 -11.5t4.5 -11.5l25 -36q15 -24 4 -59q-5 -13 -9 -18.5t-12 -12.5l-9 -7h1l-60 -50q-24 -21 -53 -21q-30 0 -47 22l-26 36q-4 3 -11 12q-8 13 -8 22q0 10 5 24zM939 573l-2 -6l32 -47
l-54 -166h-109q-11 -5 -31 -16t-40.5 -25t-37.5 -30t-22 -31l-101 -311h-298l-32 47h-6l95 292q0 27 -11 47q-9 9 -19.5 14.5t-20.5 8.5t-17.5 3.5t-9.5 0.5h-49l-32 47h-6l56 172h238q21 0 36 -6.5t25.5 -16.5t18 -23t13.5 -25l12 -19q9 10 23.5 23t32 25.5t38.5 24
t44 17.5h234zM584 724q-9 -8 -15.5 -15t-9.5 -17l-4 -11q-4 -11 -4.5 -19t6.5 -18q17 -20 42 -20t46 18l59 50q9 8 15 14.5t10 17.5q5 15 4.5 29t-8.5 25t-17.5 13.5t-22.5 2.5q-25 0 -45 -17zM704 561q-30 -8 -55.5 -24.5t-45 -33.5t-31 -30t-12.5 -13q-7 10 -13.5 27
t-17 33.5t-27.5 28.5t-44 12h-226l-48 -148h40q3 0 12 -1t20.5 -4t23.5 -9.5t21 -18.5q8 -11 16.5 -20.5t15 -21t10.5 -24.5t3 -30l-92 -284h280l98 302q6 17 24.5 35t41 33.5t44 27t31.5 15.5h102l48 148h-219z" />
    <glyph glyph-name="FL00FEh" unicode="&#xfe;" 
d="M586 310v0q0 1 -1 1l-9 15zM467 240h72q12 0 24 13t18 26h-101zM224 573h304l-2 -6l32 -47l-8 -23h236q42 0 65.5 -18.5t33.5 -46.5l18 -26l-2 3l4 -5q11 -17 16 -37.5t5 -43.5q0 -22 -3.5 -43.5t-9.5 -39.5q-13 -39 -34 -78t-49.5 -70t-65.5 -50.5t-81 -19.5h-287
l-26 -81h-298l-32 47h-6zM577 338q9 0 14 -6t6.5 -14.5t0 -17.5t-3.5 -16q-3 -8 -8.5 -18t-13.5 -18.5t-17.5 -14t-19.5 -5.5h-131l36 110h137zM50 0h280l26 81h296q42 0 76.5 18.5t62 48t47.5 67t32 75.5q9 27 12.5 61t-4.5 63.5t-30.5 50t-64.5 20.5h-295l24 76h-280z" />
    <glyph glyph-name="FL00FFh" unicode="&#xff;" horiz-adv-x="791" 
d="M707 573q-24 8 -35 26l-24 33l-11 12q-17 -34 -52.5 -55t-76.5 -21h-9t-8 1q26 -8 40.5 -27.5t23.5 -39.5l12 -19q9 10 23.5 23t32 25.5t38.5 24t44 17.5h2zM393 709q6 19 20 36t33 30t41.5 20t46.5 7q33 0 54.5 -14t26.5 -37l20 -29q17 35 54 57.5t81 22.5
q33 0 54.5 -14t26.5 -37l23 -33q17 -25 6 -59q-10 -31 -37 -54t-61 -32h157l-2 -6l32 -47l-54 -166h-109q-11 -5 -31 -16t-40.5 -25t-37.5 -30t-22 -31l-101 -311h-298l-32 47h-6l95 292q0 27 -11 47q-9 9 -19.5 14.5t-20.5 8.5t-17.5 3.5t-9.5 0.5h-49l-32 47h-6l56 172
h238q4 0 7.5 -0.5t6.5 -0.5q-14 4 -24.5 10.5t-15.5 16.5l-24 33q-16 13 -21.5 32.5t2.5 44.5zM837 709q11 34 -9 57.5t-62 23.5q-21 0 -41 -6.5t-37 -17.5t-29 -25.5t-18 -31.5q-11 -35 9.5 -58.5t62.5 -23.5q21 0 40.5 6t36.5 17t29 26t18 33zM405 709q-11 -35 9.5 -58.5
t62.5 -23.5q21 0 40.5 6t36.5 17t29 26t18 33q11 34 -9 57.5t-62 23.5q-21 0 -41 -6.5t-37 -17.5t-29 -25.5t-18 -31.5zM704 561q-30 -8 -55.5 -24.5t-45 -33.5t-31 -30t-12.5 -13q-7 10 -13.5 27t-17 33.5t-27.5 28.5t-44 12h-226l-48 -148h40q3 0 12 -1t20.5 -4t23.5 -9.5
t21 -18.5q8 -11 16.5 -20.5t15 -21t10.5 -24.5t3 -30l-92 -284h280l98 302q6 17 24.5 35t41 33.5t44 27t31.5 15.5h102l48 148h-219z" />
    <glyph glyph-name="FL0152h" unicode="&#x152;" horiz-adv-x="1251" 
d="M441 159h157l63 196h-145q-5 0 -10.5 -7.5t-7.5 -13.5zM1399 573l-2 -6l32 -47l-54 -165h-45l31 -45l-53 -161h-43l29 -43l-53 -165h-1030q-26 0 -48 13t-36 33l-19 27q-22 20 -31.5 48.5t1.5 60.5l96 295q9 28 29.5 55.5t48 49.5t59 36t62.5 14h1026zM606 147h-207
q-8 0 -12 6.5t-2 16.5l70 214q2 8 11.5 19t19.5 11h207zM369 561q-28 0 -57 -12.5t-54.5 -33t-44.5 -46t-27 -51.5l-96 -295q-8 -24 -3.5 -46t18 -39t33 -27.5t42.5 -10.5h1021l48 147h-342q-2 0 -7 8.5t-7 14.5q1 1 1 3t1 4q0 4 3 7q2 3 6.5 7l9 8t8.5 6.5t5 2.5h342
l46 143h-335q-13 0 -18 10t-1 21q3 8 13 20t20 12h342l47 147h-1014z" />
    <glyph glyph-name="FL0153h" unicode="&#x153;" horiz-adv-x="1251" 
d="M441 159h157l63 196h-145q-5 0 -10.5 -7.5t-7.5 -13.5zM1399 573l-2 -6l32 -47l-54 -165h-45l31 -45l-53 -161h-43l29 -43l-53 -165h-1030q-26 0 -48 13t-36 33l-19 27q-22 20 -31.5 48.5t1.5 60.5l96 295q9 28 29.5 55.5t48 49.5t59 36t62.5 14h1026zM606 147h-207
q-8 0 -12 6.5t-2 16.5l70 214q2 8 11.5 19t19.5 11h207zM369 561q-28 0 -57 -12.5t-54.5 -33t-44.5 -46t-27 -51.5l-96 -295q-8 -24 -3.5 -46t18 -39t33 -27.5t42.5 -10.5h1021l48 147h-342q-2 0 -7 8.5t-7 14.5q1 1 1 3t1 4q0 4 3 7q2 3 6.5 7l9 8t8.5 6.5t5 2.5h342
l46 143h-335q-13 0 -18 10t-1 21q3 8 13 20t20 12h342l47 147h-1014z" />
    <glyph glyph-name="FL0160h" unicode="&#x160;" horiz-adv-x="808" 
d="M626 804l6 -15l23 -35l53 50h198l-5 -5l32 -48l-195 -178h217l-2 -6l32 -47l-54 -165h-135q20 -9 36 -23.5t22 -33.5l21 -32q19 -27 9 -61l-37 -114q-9 -26 -29.5 -52.5t-47.5 -48t-58 -35.5t-61 -14h-579l-32 47h-6l56 171h156q-28 12 -46 41l-16 24q-23 20 -35 51
t-2 62l29 87q9 28 29.5 55t47.5 48t58 33.5t62 12.5h170l-27 41h-4l-84 190h198zM643 728l-26 64h-169l72 -166h177l181 166h-169zM841 255q7 21 0 39t-21.5 31t-34.5 20.5t-40 7.5h-300l10 31q2 8 11.5 19t19.5 11h406l47 147h-570q-28 0 -57 -11.5t-53.5 -31t-43.5 -44
t-27 -50.5l-29 -87q-7 -23 -1.5 -45.5t19 -40.5t32.5 -29.5t39 -11.5h297l-10 -33q-3 -8 -12 -19t-19 -11h-406l-48 -147h570q28 0 57.5 13t55 33.5t44.5 45.5t27 49z" />
    <glyph glyph-name="FL0161h" unicode="&#x161;" horiz-adv-x="940" 
d="M692 804l6 -15l23 -35l53 50h198l-5 -5l32 -48l-195 -178h284l-2 -6l32 -47l-54 -165h-155q-8 0 -19.5 -7t-23.5 -16.5t-22 -20.5t-16 -18l-208 -238q-18 -20 -42 -40t-51 -36.5t-55 -27t-54 -10.5h-346l-32 47h-6l56 172h159q7 0 17 6.5t21 16.5t21.5 20.5t17.5 18.5
l206 235q7 9 24.5 24t40 31.5t48 31.5t48.5 23h-80l-31 47h-4l-84 190h198zM709 728l-26 64h-169l72 -166h177l181 166h-169zM387 0q24 0 51 10t52.5 26t49 35.5t40.5 38.5l209 239q6 8 17 19t24.5 21.5t26.5 17.5t22 7h146l47 147h-351q-21 0 -49 -13.5t-54 -31.5t-47 -36
t-29 -28l-208 -237l-19.5 -19.5t-24 -22t-24.5 -18t-21 -7.5h-147l-48 -148h337z" />
    <glyph glyph-name="FL0178h" unicode="&#x178;" horiz-adv-x="813" 
d="M581 362q1 0 4.5 3.5t5.5 7.5l65 200h64q-24 8 -35 26l-24 33l-11 12q-17 -32 -51 -53t-72 -23l-1 -1l32 -47l-51 -158h74zM406 709q6 19 20 36t33 30t41.5 20t46.5 7q33 0 54.5 -14t26.5 -37l20 -29q17 35 54 57.5t81 22.5q33 0 54.5 -14t26.5 -37l23 -33q17 -25 6 -59
q-10 -31 -37 -54t-61 -32h166l-2 -6l32 -47l-138 -426q-11 -32 -28.5 -60t-40.5 -48.5t-49.5 -32.5t-54.5 -12h-603l-32 47h-6l56 171h138q-24 12 -38 35l-20 29q-21 20 -30.5 48.5t0.5 58.5l79 243h260q-24 8 -35 26l-24 33q-16 13 -21.5 32.5t2.5 44.5zM850 709
q11 34 -9 57.5t-62 23.5q-21 0 -41 -6.5t-37 -17.5t-29 -25.5t-18 -31.5q-11 -35 9.5 -58.5t62.5 -23.5q21 0 40.5 6t36.5 17t29 26t18 33zM418 709q-11 -35 9.5 -58.5t62.5 -23.5q21 0 40.5 6t36.5 17t29 26t18 33q11 34 -9 57.5t-62 23.5q-21 0 -41 -6.5t-37 -17.5
t-29 -25.5t-18 -31.5zM603 372q-5 -6 -12.5 -14t-13.5 -8h-112q-11 0 -11.5 9.5t-1.5 14.5l60 187h-280l-75 -231q-7 -23 -2.5 -45t17.5 -39t32.5 -28t42.5 -11h302l-7 -23q-7 -20 -17 -27.5t-31 -9.5h-391l-48 -147h594q26 0 50.5 11t45.5 30.5t38 46t27 56.5l135 417h-281
z" />
    <glyph glyph-name="FL00AFh" unicode="&#x192;" 
d="M468 389q4 2 1 2zM116 10q-26 23 -35 59t3 74l96 295q8 24 29 48.5t47.5 43.5t56 31t53.5 12h466q33 0 60 -19.5t38 -49.5l19 -29q27 -38 12 -87l-42 -130q-11 -32 -42.5 -58t-67.5 -41h28l-2 -6l31 -47l-53 -165h-595q-29 0 -49.5 12t-34.5 32zM610 414q8 0 10.5 -8.5
t3.5 -14.5l-13 -41h-167l13 41q5 6 11.5 14.5t17.5 8.5h124zM918 438q8 24 3.5 46t-17.5 39t-33 27.5t-43 10.5h-466q-23 0 -49.5 -11t-50.5 -28t-43.5 -39.5t-26.5 -44.5l-96 -295q-8 -26 -5.5 -51.5t14.5 -46t33 -33t49 -12.5h586l48 147h-422q-10 0 -12 11t1 19l-2 2h2
l8 23h316q20 0 45.5 8.5t49.5 23t43 34t26 40.5z" />
    <glyph glyph-name="FL02C6h" unicode="&#x2c6;" horiz-adv-x="504" 
d="M146 382h-9l208 190h187l7 -17l25 -36l80 -184h-191l-32 47h-4l-48 -47h-191zM401 458l25 -64h169l-72 166h-177l-181 -166h169z" />
    <glyph glyph-name="FL02DCh" unicode="&#x2dc;" horiz-adv-x="573" 
d="M537 395h-111l-26 63l-66 -63h-169l181 166h111l27 -63l65 63h169zM746 573h-198l-52 -50l-23 34l-7 16h-121l-208 -190h9l32 -47h191l48 47h4l32 -47h119l201 184l-32 48z" />
    <glyph glyph-name="FL2013h" unicode="&#x2013;" horiz-adv-x="435" 
d="M499 351l-46 -143h-335l46 143h335zM156 363l-54 -167h6l31 -47h353l53 161l-32 47l2 6h-359z" />
    <glyph glyph-name="FL2014h" unicode="&#x2014;" horiz-adv-x="497" 
d="M561 351l-46 -143h-397l46 143h397zM156 363l-54 -167h6l31 -47h415l53 161l-32 47l2 6h-421z" />
    <glyph glyph-name="FL2018h" unicode="&#x2018;" horiz-adv-x="319" 
d="M191 470q7 22 22.5 40.5t36.5 32.5t45.5 22t50.5 8q36 0 60 -16.5t30 -42.5l21 -30q9 -13 11.5 -29t-4.5 -35l-32 -101q-7 -21 -22.5 -39.5t-36 -32t-44.5 -21t-48 -7.5q-28 0 -48 9.5t-31 26.5l-20 29q-20 14 -26.5 36t2.5 49zM170 369q-6 -19 -3 -35.5t14 -29
t28.5 -19.5t40.5 -7q22 0 44.5 7t41 19.5t33 29t20.5 35.5l33 101q12 38 -11.5 64.5t-68.5 26.5q-23 0 -45.5 -7t-41 -19.5t-32.5 -29t-20 -35.5z" />
    <glyph glyph-name="FL2019h" unicode="&#x2019;" horiz-adv-x="319" 
d="M191 470q7 22 22.5 40.5t36.5 32.5t45.5 22t50.5 8q36 0 60 -16.5t30 -42.5l21 -30q9 -13 11.5 -29t-4.5 -35l-32 -101q-7 -21 -22.5 -39.5t-36 -32t-44.5 -21t-48 -7.5q-28 0 -48 9.5t-31 26.5l-20 29q-20 14 -26.5 36t2.5 49zM170 369q-6 -19 -3 -35.5t14 -29
t28.5 -19.5t40.5 -7q22 0 44.5 7t41 19.5t33 29t20.5 35.5l33 101q12 38 -11.5 64.5t-68.5 26.5q-23 0 -45.5 -7t-41 -19.5t-32.5 -29t-20 -35.5z" />
    <glyph glyph-name="FL201Ah" unicode="&#x201a;" horiz-adv-x="335" 
d="M68 92q7 22 23.5 41t39 33t48.5 22t53 8q38 0 64 -16.5t34 -42.5l20 -31h-1l2 -1q18 -25 7 -63l-34 -103q-7 -21 -23 -39.5t-37.5 -32t-47 -21.5t-51.5 -8q-30 0 -53 10.5t-34 27.5l-22 32q-17 14 -23.5 35t1.5 46zM46 -11q-12 -39 14.5 -65.5t74.5 -26.5q24 0 47.5 7
t43.5 19.5t34.5 29t20.5 36.5l34 103q6 19 2.5 36t-15.5 29.5t-31 19.5t-43 7t-47.5 -7t-44 -19.5t-35.5 -29.5t-21 -36z" />
    <glyph glyph-name="FL201Ch" unicode="&#x201c;" horiz-adv-x="544" 
d="M190 469q7 22 22.5 40.5t35.5 32.5t44 22t49 8q34 0 56 -15.5t29 -40.5l12 -19q21 33 58.5 54.5t79.5 21.5q34 0 56 -15t29 -40l22 -32q19 -28 6 -66l-32 -101q-7 -21 -22 -39.5t-35 -32t-43 -21t-46 -7.5q-26 0 -45 9t-30 25l-22 32h-1q-4 4 -6 5q-9 -16 -23.5 -29
t-32 -22.5t-37 -15t-38.5 -5.5q-26 0 -45 9t-30 25l-21 31q-19 14 -25 36t3 49zM170 368q-13 -38 9 -64.5t66 -26.5q21 0 42.5 7t39.5 19.5t32 29t20 35.5l32 101q6 19 3.5 35.5t-12.5 29t-27 19.5t-38 7q-22 0 -43.5 -7t-39.5 -19.5t-32 -29t-20 -35.5zM405 369
q-13 -38 9 -64.5t66 -26.5q21 0 42.5 7t39.5 19.5t32 29t20 35.5l33 101q6 19 3 35.5t-13 29t-27 19.5t-38 7q-22 0 -43.5 -7t-39.5 -19.5t-31.5 -29t-19.5 -35.5z" />
    <glyph glyph-name="FL201Dh" unicode="&#x201d;" horiz-adv-x="544" 
d="M190 469q7 22 22.5 40.5t35.5 32.5t44 22t49 8q34 0 56 -15.5t29 -40.5l12 -19q21 33 58.5 54.5t79.5 21.5q34 0 56 -15t29 -40l22 -32q19 -28 6 -66l-32 -101q-7 -21 -22 -39.5t-35 -32t-43 -21t-46 -7.5q-26 0 -45 9t-30 25l-22 32h-1q-4 4 -6 5q-9 -16 -23.5 -29
t-32 -22.5t-37 -15t-38.5 -5.5q-26 0 -45 9t-30 25l-21 31q-19 14 -25 36t3 49zM170 368q-13 -38 9 -64.5t66 -26.5q21 0 42.5 7t39.5 19.5t32 29t20 35.5l32 101q6 19 3.5 35.5t-12.5 29t-27 19.5t-38 7q-22 0 -43.5 -7t-39.5 -19.5t-32 -29t-20 -35.5zM405 369
q-13 -38 9 -64.5t66 -26.5q21 0 42.5 7t39.5 19.5t32 29t20 35.5l33 101q6 19 3 35.5t-13 29t-27 19.5t-38 7q-22 0 -43.5 -7t-39.5 -19.5t-31.5 -29t-19.5 -35.5z" />
    <glyph glyph-name="FL201Eh" unicode="&#x201e;" horiz-adv-x="598" 
d="M68 92q7 22 23.5 41t39 33t48.5 22t53 8q38 0 64 -16.5t34 -42.5l12 -20q22 35 64.5 57t88.5 22q38 0 64 -16.5t34 -42.5l21 -32q18 -25 7 -63l-34 -103q-7 -21 -23 -39.5t-37.5 -32t-47 -21.5t-51.5 -8q-30 0 -53 10.5t-34 27.5l-22 32l-7 6q-21 -33 -62 -54.5
t-85 -21.5q-30 0 -53 10.5t-34 27.5l-22 32q-17 14 -23.5 35t1.5 46zM46 -11q-12 -39 14.5 -65.5t74.5 -26.5q24 0 47.5 7t43.5 19.5t34.5 29t20.5 36.5l34 103q6 19 2.5 36t-15.5 29.5t-31 19.5t-43 7t-47.5 -7t-44 -19.5t-35.5 -29.5t-21 -36zM309 -11q-12 -39 14.5 -65.5
t74.5 -26.5q24 0 47.5 7t43.5 19.5t34.5 29t20.5 36.5l34 103q6 19 2.5 36t-15.5 29.5t-31 19.5t-43 7t-47.5 -7t-44 -19.5t-35.5 -29.5t-21 -36z" />
    <glyph glyph-name="FL2020h" unicode="&#x2020;" horiz-adv-x="478" 
d="M577 573l-2 -6l32 -47l-18 -55h2l-2 -6l32 -47l-52 -161h-49l-101 -310h-298l-32 47h-6l87 267l-29 43h-6l54 167h49l35 108h304zM281 561l-35 -108h-49l-46 -143h49l-101 -310h280l101 310h49l46 143h-49l35 108h-280z" />
    <glyph glyph-name="FL2021h" unicode="&#x2021;" horiz-adv-x="478" 
d="M577 573l-2 -6l32 -47l-18 -55h2l-2 -6l32 -47l-52 -161h-41l27 -41l-52 -161h-49l-35 -108h-298l-32 47h-6l21 65l-29 43h-6l54 167h41l-23 35h-6l54 167h49l35 108h304zM281 561l-35 -108h-49l-46 -143h49l-19 -59h-49l-47 -143h49l-35 -108h280l35 108h49l47 143h-49
l19 59h49l46 143h-49l35 108h-280z" />
    <glyph glyph-name="FL2022h" unicode="&#x2022;" 
d="M825 573q38 0 62.5 -20t35.5 -50l19 -27q14 -22 18 -50.5t-5 -57.5l-96 -295q-8 -26 -28.5 -49.5t-46.5 -42t-54.5 -29.5t-52.5 -11h-466q-26 0 -48 13t-36 33l-19 27q-22 20 -31.5 48.5t1.5 60.5l96 295q9 28 29.5 55.5t48 49.5t59 36t62.5 14h452zM369 561
q-28 0 -57 -12.5t-54.5 -33t-44.5 -46t-27 -51.5l-96 -295q-8 -24 -3.5 -46t18 -39t33 -27.5t42.5 -10.5h466q23 0 49.5 10.5t50.5 27.5t43 39t27 46l96 295q8 26 5.5 51.5t-14.5 46t-33 33t-49 12.5h-452z" />
    <glyph glyph-name="FL2026h" unicode="&#x2026;" horiz-adv-x="857" 
d="M68 92q7 22 23.5 41t39 33t48.5 22t53 8q39 0 65 -16.5t32 -43.5l12 -18q11 17 27.5 31t37 24.5t42.5 16.5t45 6q39 0 65 -16.5t32 -43.5l12 -18q11 17 27.5 31t37 24.5t42.5 16.5t45 6q38 0 64 -16.5t34 -42.5l21 -32q18 -25 7 -63q-7 -21 -23 -39.5t-37.5 -32
t-47 -21.5t-51.5 -8q-30 0 -53 10.5t-35 27.5l-23 33q-1 2 -2 2t-3 2q-10 -16 -26 -30t-35.5 -24t-41 -15.5t-42.5 -5.5q-30 0 -53 10.5t-35 27.5l-23 33q-1 2 -2 2t-3 2q-10 -16 -26 -30t-35.5 -24t-41 -15.5t-42.5 -5.5q-30 0 -53 10.5t-35 27.5l-21 32q-17 14 -23.5 34.5
t1.5 46.5zM80 92q-6 -20 -2 -36.5t16 -29t31 -19.5t43 -7t47.5 7t43.5 19.5t35 29t21 36.5q6 19 2.5 36t-15.5 29.5t-31 19.5t-43 7t-47.5 -7t-44 -19.5t-35.5 -29.5t-21 -36zM341 92q-6 -20 -2 -36.5t16 -29t31 -19.5t43 -7t47.5 7t43.5 19.5t35 29t21 36.5q6 19 2.5 36
t-15.5 29.5t-31 19.5t-43 7t-47.5 -7t-44 -19.5t-35.5 -29.5t-21 -36zM602 92q-6 -20 -2 -36.5t16 -29t31 -19.5t43 -7t47.5 7t43.5 19.5t35 29t21 36.5q6 19 2.5 36t-15.5 29.5t-31 19.5t-43 7t-47.5 -7t-44 -19.5t-35.5 -29.5t-21 -36z" />
    <glyph glyph-name="FL2030h" unicode="&#x2030;" horiz-adv-x="1357" 
d="M1141 111q-2 -6 3 -6h31q5 0 8 6l17 53q1 2 0.5 5t-3.5 3h-31q-5 -2 -8 -8zM1330 280q28 0 40.5 -22.5t4.5 -48.5l-48 -148q-4 -12 -13.5 -23t-21.5 -19.5t-25 -13.5t-25 -5h-233q-22 0 -37.5 18.5t-7.5 42.5l48 148q4 13 13.5 25.5t22.5 22.5t27.5 16.5t28.5 6.5h226z
M950 280q28 0 40.5 -22.5t4.5 -48.5l-48 -148q-4 -12 -13.5 -23t-21.5 -19.5t-25 -13.5t-25 -5h-233q-22 0 -37.5 18.5t-7.5 42.5l47 146l-255 -207h-284l345 280h-231q-22 0 -37.5 18.5t-7.5 42.5l48 148q4 13 13.5 25.5t22.5 22.5t27.5 16.5t28.5 6.5h226q28 0 40.5 -22.5
t4.5 -48.5l-44 -136l256 208h283l-346 -281h229zM761 111q-2 -6 3 -6h31q5 0 8 6l17 53q1 2 0.5 5t-3.5 3h-31q-5 -2 -8 -8zM338 391q-2 -6 3 -6h31q5 0 8 6l17 53q1 2 0.5 5t-3.5 3h-31q-5 -2 -8 -8zM1334 292h-226q-26 0 -51 -16t-42 -38l-7 11q-5 18 -19 30.5t-35 12.5
h-111l282 228l-32 48l6 5h-316l-170 -138l2 4q5 15 3 30t-10 27l-24 34q-5 18 -18.5 30t-34.5 12h-226q-17 0 -34 -7.5t-32 -19.5t-26 -26.5t-16 -29.5l-48 -148q-6 -19 -0.5 -35t18.5 -26l25 -35q16 -24 45 -24h111l-288 -233h10l32 -47h309l165 133l-4 -13q-6 -19 0 -34.5
t18 -26.5l25 -35q16 -24 45 -24h233q21 0 45.5 14t39.5 35l17 -25q16 -24 45 -24h233q13 0 28 5.5t29 15.5t24.5 22.5t15.5 26.5l48 148q5 15 3 30t-10 27l-24 34q-5 18 -18.5 30t-34.5 12z" />
    <glyph glyph-name="FL2039h" unicode="&#x2039;" horiz-adv-x="344" 
d="M376 211l-134 -101l-114 169l223 168l68 -101l-88 -67zM435 346l-79 117l-244 -184l125 -185l2 2l33 -48l149 113l-32 48l3 2l-14 19l87 66l-32 48z" />
    <glyph glyph-name="FL203Ah" unicode="&#x203a;" horiz-adv-x="344" 
d="M179 279l-46 67l155 117l126 -184l-3 -2l32 -48l-239 -181l-33 48l-2 -2l-79 117zM106 211l68 -101l224 169l-115 168l-134 -101l46 -67z" />
    <glyph glyph-name="FL2122h" unicode="&#x2122;" horiz-adv-x="1603" 
d="M610 386l0.5 0.5t-0.5 0.5l-9 15zM491 316h73q12 0 24 13t17 26h-102zM938 316q-14 -42 -36.5 -83t-54.5 -73h65q7 0 17 6.5t21 16.5t21.5 20.5t17.5 18.5l206 235q9 10 32 29t51.5 38.5t58 34t51.5 14.5h363l-2 -6l32 -47l-54 -165h-155q-8 0 -19.5 -7t-23.5 -16.5
t-22 -20.5t-16 -18l-208 -237q-18 -20 -41.5 -40.5t-50.5 -37t-55 -27t-55 -10.5h-346l-32 47h-6l36 111q-6 -1 -12 -1h-13h-288l-51 -157h-297l-32 47h-6l190 585h587q42 0 65.5 -18.5t33.5 -46.5l20 -28q11 -17 16 -37.5t5 -43.5q0 -22 -3.5 -43.5t-9.5 -39.5zM1050 0
q25 0 52 10t52.5 26t48.5 35.5t40 38.5l209 239q6 8 17 19t24.5 21.5t26.5 17.5t22 7h146l47 147h-351q-21 0 -48.5 -13.5t-53.5 -31.5t-47.5 -36.5t-29.5 -27.5l-208 -237l-19.5 -19.5t-24 -22t-24.5 -18t-21 -7.5h-147l-48 -148h337zM329 0l51 157h297q42 0 76.5 18.5
t62 48t47.5 67t32 75.5q9 27 12 61t-5 63.5t-30.5 50t-64.5 20.5h-575l-182 -561h279zM602 414q9 0 14 -6t6.5 -14.5t0 -17.5t-3.5 -16q-3 -8 -8.5 -18t-13.5 -18.5t-17.5 -14t-19.5 -5.5h-132l36 110h138z" />
    <glyph glyph-name="FL017Dh" horiz-adv-x="894" 
d="M867 0v148h-147q-9 0 -18.5 7.5t-18.5 18t-17 22t-13 19.5l-131 237q-5 10 -20 28t-35.5 36t-44 31.5t-44.5 13.5h-351v-147h146q9 0 19.5 -7t20.5 -17.5t17.5 -21.5t10.5 -19l132 -239q10 -19 27 -38.5t38 -35.5t44.5 -26t47.5 -10h337zM399 792h-169l127 -166h177
l126 166h-169l-46 -64z" />
    </font>
</defs>
</svg>
