<?xml version="1.0" standalone="no"?>
<!DOCTYPE svg PUBLIC "-//W3C//DTD SVG 1.1//EN" "http://www.w3.org/Graphics/SVG/1.1/DTD/svg11.dtd" >
<svg xmlns="http://www.w3.org/2000/svg" xmlns:xlink="http://www.w3.org/1999/xlink" version="1.1">
<metadata></metadata>
<defs>
<font id="eternal_knight_condensedCn" horiz-adv-x="1132" >
<font-face units-per-em="2048" ascent="1638" descent="-410" />
<missing-glyph horiz-adv-x="577" />
<glyph horiz-adv-x="0" />
<glyph unicode="&#xd;" horiz-adv-x="798" />
<glyph unicode=" "  horiz-adv-x="577" />
<glyph unicode="&#x09;" horiz-adv-x="577" />
<glyph unicode="&#xa0;" horiz-adv-x="577" />
<glyph unicode="!" horiz-adv-x="544" d="M43 1290h459q-4 -16 -15.5 -37.5t-23.5 -42t-21.5 -38t-9.5 -25.5v-604l-55 -142h-221l-43 142v604q-25 49 -39.5 76.5t-20.5 41t-8 17.5t-2 8zM156 0v254h219v-254h-219z" />
<glyph unicode="&#x22;" horiz-adv-x="589" d="M51 823h76l147 215v254h-223v-469zM315 821h76l148 215v254h-224v-469z" />
<glyph unicode="#" horiz-adv-x="1130" d="M51 598h113v-475q0 -4 -6 -19.5t-11 -21.5l-49 -82h385v598h166v-598h383l-49 82q-4 6 -9 21.5t-5 19.5v475h110v123h-110v100h110v123h-110v203q4 6 13 22.5t18.5 36t17.5 37t12 25.5l2 2q4 16 4 20h-387v-346h-166v346h-389q0 -4 2 -10t2 -10l2 -2q2 -8 11.5 -25.5 t19.5 -37t19.5 -36t13.5 -22.5v-203h-113v-123h113v-100h-113v-123zM483 721v100h166v-100h-166z" />
<glyph unicode="$" horiz-adv-x="948" d="M45 899q0 -10 1 -21.5t15 -29.5q16 -18 48 -56l72 -85.5t84 -98.5t84 -97t72 -82t48 -52q27 -47 27 -105q0 -47 -19.5 -87t-66.5 -58q-10 -6 -24.5 -13.5t-29 -12.5t-26.5 -8l-11 -3l-10 10l-145 363l-14 12q-6 -31 -15.5 -103.5t-17.5 -154.5t-16.5 -155.5t-10.5 -104.5 q0 -8 -1 -25.5t-1 -23.5h31l319 139v-295h76v328l272 119q53 23 86 54.5t33 80.5q0 16 -2 34.5t-14 34.5l-451 519q-12 18 -14 37.5t-2 35.5q0 53 32.5 94t100.5 62h14q12 0 15 -14l188 -326l14 -10l60 555v37l-60 -23l-272 -141v307h-76v-346l-260 -135q-49 -27 -91 -60.5 t-42 -87.5v-8z" />
<glyph unicode="%" horiz-adv-x="1138" d="M51 0h316l-88 80l763 1171q4 10 15.5 16.5t29.5 16.5v8h-321l100 -80l-768 -1169q-6 -10 -17 -20.5t-30 -14.5v-8zM68 776q0 -39 8 -63.5t20.5 -39t24.5 -20.5t20 -6h283q8 0 20.5 6t24.5 20.5t20.5 39t8.5 63.5v385q0 39 -8.5 64.5t-20.5 40t-24.5 20.5t-20.5 6h-283 q-8 0 -20 -6t-24.5 -20.5t-20.5 -40t-8 -64.5v-385zM219 778v381q8 51 19.5 63.5t19.5 14.5h49q8 -4 19.5 -16.5t19.5 -61.5v-381q-8 -49 -19.5 -61t-19.5 -15h-49q-8 2 -19.5 14.5t-19.5 61.5zM637 129q0 -39 9 -63.5t21.5 -39t25 -20.5t20.5 -6h280q8 0 20.5 6t25 20.5 t21.5 39t9 63.5v385q0 39 -9 64.5t-21.5 40t-25 20.5t-20.5 6h-280q-8 0 -20.5 -6t-25 -20.5t-21.5 -40t-9 -64.5v-385zM788 131v381q10 51 20.5 63.5t20.5 14.5h48q10 -4 20 -16.5t21 -61.5v-381q-10 -49 -20.5 -61.5t-20.5 -14.5h-48q-10 2 -20 14.5t-21 61.5z" />
<glyph unicode="&#x26;" horiz-adv-x="1267" d="M43 664v32q0 80 39 101.5t94 21.5h109v21q-8 14 -28.5 52t-44.5 80t-43 80t-28 54q-14 25 -16 35t-2 37q0 31 16.5 69.5t48.5 44.5h775v-192l-103 106h-465l236 -387l592 2l-80 -123h-86v-34q0 -14 -10.5 -57.5t-26.5 -100.5t-33.5 -119.5t-34 -114t-26.5 -86.5l-11 -34 q-14 -23 -33.5 -49.5t-42 -49t-48 -38t-52.5 -15.5h-247q-27 0 -54.5 17.5t-53.5 42t-47.5 53t-35.5 51.5q-8 12 -40 67.5t-69.5 123t-74.5 135t-56 104.5q-14 23 -16 37t-2 33zM332 696l282 -510l152 510h-434z" />
<glyph unicode="'" horiz-adv-x="325" d="M51 821h76l147 215v254h-223v-469z" />
<glyph unicode="(" horiz-adv-x="712" d="M51 260q0 -78 17.5 -128t42 -79.5t49 -41t39.5 -11.5h471l-113 123h-147q-16 10 -30.5 42t-25.5 99v762q6 49 17.5 79t23 45t22.5 21.5t17 8.5h125l107 110h-467q-14 0 -39 -11t-49.5 -41t-42 -80t-17.5 -128v-770z" />
<glyph unicode=")" horiz-adv-x="714" d="M43 0l113 123h147q16 10 30.5 42t24.5 99v762q-6 49 -17 79t-22.5 45t-22.5 21.5t-17 8.5h-125l-107 110h465q14 0 40 -11t50.5 -41t42 -80t17.5 -128v-770q0 -78 -17.5 -128t-42 -79.5t-50.5 -41t-40 -11.5h-469z" />
<glyph unicode="*" horiz-adv-x="378" d="M43 1147l90 -14l-76 -68l95 -100l38 100l41 -100l88 98l-73 70l90 12l-33 135l-82 -63l29 118h-123l27 -118l-82 61z" />
<glyph unicode="+" horiz-adv-x="454" d="M51 707h127v-164h96v164h129v122h-129v164h-96v-164h-127v-122z" />
<glyph unicode="," horiz-adv-x="325" d="M51 -215h76l147 215v254h-223v-469z" />
<glyph unicode="-" horiz-adv-x="446" d="M51 707v122h352l-79 -122h-273z" />
<glyph unicode="." horiz-adv-x="325" d="M51 0v254h223v-254h-223z" />
<glyph unicode="/" horiz-adv-x="1126" d="M43 0v8q39 10 47 35l768 1169l-100 78h325l-4 -6q-14 -10 -26.5 -16.5t-18.5 -16.5l-772 -1171l96 -80h-315z" />
<glyph unicode="0" horiz-adv-x="972" d="M55 260q0 -78 17.5 -128t42 -79.5t49 -41t39.5 -11.5h563q14 0 39.5 11.5t50.5 41t42 79.5t17 128v770q0 78 -17 128t-42 80t-50.5 41t-39.5 11h-563q-14 0 -39 -11t-49.5 -41t-42 -80t-17.5 -128v-770zM358 264v762q6 49 16.5 79t22 45t22.5 21.5t19 8.5h94 q8 -2 20.5 -8.5t25 -21.5t21.5 -45t13 -79v-762q-8 -49 -18 -78.5t-21.5 -45t-21.5 -21.5t-19 -8h-94q-8 2 -19 8t-22.5 21.5t-21.5 45t-17 78.5z" />
<glyph unicode="1" horiz-adv-x="540" d="M43 1290q0 -4 2 -10t2 -10l2 -2q2 -8 11.5 -25.5t19.5 -37t19.5 -36t13.5 -22.5v-1024q0 -4 -6.5 -19.5t-10.5 -21.5l-49 -82h451l-49 82q-4 6 -10.5 21.5t-6.5 19.5v1167h-389z" />
<glyph unicode="2" horiz-adv-x="948" d="M43 1290l4 -35l109 -477l12 13l156 372q10 14 31.5 21.5t43.5 9.5h39q10 0 18.5 -1t18.5 -3q23 -16 28 -26.5t9 -16.5l2 -4l2 -35q0 -10 -1 -20.5t-11 -20.5l-438 -922q-10 -20 -11 -43l2 -28q4 -45 20.5 -59.5t49.5 -14.5h752l26 150l-241 -62h-105q-47 0 -63.5 26.5 t-20.5 67.5l-2 27q0 20 4 39.5t15 40.5q14 20 41.5 74.5t61.5 125t70.5 150.5t69.5 150.5t59.5 125t39.5 74.5l2 35q0 43 -6.5 90t-24 86t-49 64.5t-80.5 25.5h-633z" />
<glyph unicode="3" horiz-adv-x="985" d="M43 1290h752q16 0 28.5 -12t21.5 -29.5t13 -38t4 -34.5q0 -27 -2 -37.5t-14 -34.5q-8 -16 -28.5 -54t-44 -80t-44 -79t-29.5 -51v-21h109q55 0 94 -21.5t39 -101.5v-32q0 -18 -2 -33t-14 -37q-18 -37 -56.5 -104.5t-76 -135t-69.5 -123t-38 -67.5q-14 -23 -36.5 -51.5 t-48.5 -53t-53.5 -42t-53.5 -17.5h-410v123h250l319 573h-407q10 16 35.5 53t58.5 84.5t68.5 98.5t64.5 95t48.5 76t19.5 42v20h-416z" />
<glyph unicode="4" horiz-adv-x="1146" d="M43 377h535v-377h385l-50 82q-4 6 -10 21.5t-6 19.5v254h127l80 123h-207v649q6 8 17.5 26.5t21.5 40t19.5 42t11.5 32.5h-389zM410 500l168 288v-288h-168z" />
<glyph unicode="5" horiz-adv-x="929" d="M43 45q0 -14 18 -39l27 -6h641q4 0 14 12q57 25 78 85.5t21 131.5l-2 35q-10 20 -36 77.5t-59.5 132.5t-72.5 159t-74 159.5t-63.5 132t-42.5 76.5q-10 20 -14.5 40t-4.5 40l2 27q4 41 22.5 67.5t65.5 26.5h217l99 -104v192h-773q-33 0 -39 -14t-10 -59l-2 -29 q0 -23 11 -43l438 -922q10 -10 11 -20t1 -21l-2 -35l-2 -4q-4 -6 -7 -13t-18 -19h-161q-18 18 -34 42.5t-26 43.5l-147 342l-13 12q-4 -29 -13 -100.5t-19.5 -151.5t-19.5 -151.5t-11 -102.5z" />
<glyph unicode="6" horiz-adv-x="954" d="M51 260q0 -78 17.5 -128t42 -79.5t49 -41t39.5 -11.5h596q47 0 77.5 49t30.5 113v575q0 39 -21.5 59.5t-49 30t-53 11.5t-34.5 2h-391v186q10 68 24.5 99.5t31.5 41.5h305l110 -123v246h-626q-14 0 -39 -11t-49.5 -41t-42 -80t-17.5 -128v-770zM354 264v432h181 q8 -4 20 -5t22.5 -4t17.5 -11t7 -27v-538h-168q-6 2 -17 8t-22.5 21.5t-23 45t-17.5 78.5z" />
<glyph unicode="7" horiz-adv-x="944" d="M43 1290h762q53 0 71.5 -15t22.5 -65l-2 -4l3 -15t1 -3q0 -18 -12 -39q-10 -23 -42 -102.5t-76 -189t-93 -239t-94 -249t-80 -219t-49 -150.5h-371l420 1067q10 10 11 20.5t1 20.5l-2 35q-4 29 -22.5 40t-53.5 11h-26q-23 0 -50.5 -7t-37.5 -24l-156 -372l-12 -13 l-109 477z" />
<glyph unicode="8" horiz-adv-x="1230" d="M43 664q0 -18 2 -33t16 -37q18 -37 55.5 -104.5l75 -135t69.5 -123t40 -67.5q14 -23 35.5 -51.5t47.5 -53t53.5 -42t54.5 -17.5h247q27 0 54.5 17.5t53 42t48.5 53t37 51.5q6 12 37.5 67.5t69.5 123l76 135t56 104.5q12 23 14.5 37t2.5 33v32q0 39 -10.5 63.5t-29 38 t-42 17.5t-49.5 4h-109v21q8 14 28.5 52t43 80t43 80t29.5 54q12 25 14 35t2 37q0 14 -4 34.5t-13.5 38t-21.5 29.5t-29 12h-852q-16 0 -28.5 -12t-20.5 -29.5t-12 -38t-4 -34.5q0 -27 2 -37.5t16 -34.5q8 -16 27.5 -54t43.5 -80t44 -80t29 -52v-21h-109q-55 0 -94 -21.5 t-39 -101.5v-32zM332 696h567l-285 -510zM444 1147v20h344v-20q0 -6 -15 -33t-40.5 -64.5t-56.5 -83.5l-62 -92q-31 43 -60.5 89.5t-54 85t-40 65.5t-15.5 33z" />
<glyph unicode="9" horiz-adv-x="954" d="M51 553q0 -39 21.5 -59.5t49.5 -29.5t53.5 -11t33.5 -2h391v-187q-10 -68 -24.5 -99.5t-28.5 -41.5h-305l-113 123v-246h627q14 0 38.5 11.5t49 41t42 79.5t17.5 128v770q0 78 -17.5 128t-42 80t-49 41t-38.5 11h-594q-47 0 -79 -49t-32 -113v-575zM352 641v539h168 q8 -2 19.5 -8.5t22.5 -21.5t21.5 -45t16.5 -79v-432h-178q-10 4 -22.5 5t-22.5 4t-17.5 11.5t-7.5 26.5z" />
<glyph unicode=":" horiz-adv-x="325" d="M51 0v254h223v-254h-223zM51 573v254h223v-254h-223z" />
<glyph unicode=";" horiz-adv-x="325" d="M51 -215h76l147 215v254h-223v-469zM51 573h223v254h-223v-254z" />
<glyph unicode="&#x3c;" horiz-adv-x="737" d="M43 559l428 653l-98 80h321v-8q-20 -10 -30.5 -16.5t-16.5 -16.5l-342 -518l387 -733h-499l32 20q2 2 12.5 10.5t20.5 17.5t19.5 16.5t11.5 9.5l1 3t1 5q0 4 -1 7l-1 3z" />
<glyph unicode="=" horiz-adv-x="485" d="M51 596v123h391l-80 -123h-311zM51 819v123h391l-80 -123h-311z" />
<glyph unicode="&#x3e;" horiz-adv-x="735" d="M43 0v8q39 10 47 35l340 516l-385 733h500l-33 -20q-4 -4 -13.5 -12.5t-20.5 -16.5t-20 -16t-12 -10v-9v-10l246 -465l-434 -655l100 -78h-315z" />
<glyph unicode="?" horiz-adv-x="888" d="M43 1356v37l59 -23l609 -315q49 -27 91 -60.5t42 -87.5v-8q0 -10 -1 -21.5t-16 -29.5q-20 -23 -67 -63t-104.5 -87t-119 -99t-111.5 -100t-83 -89t-33 -66l-237 59q31 63 76 128t96 129.5t104 130t101 131.5q14 18 16 37.5t2 35.5q0 53 -33 94t-100 62h-17q-10 0 -12 -14 l-188 -326l-15 -10zM70 0v254h225v-254h-225z" />
<glyph unicode="@" horiz-adv-x="1347" d="M51 260q0 -78 17.5 -128t42 -79.5t49 -41t39.5 -11.5h739l-113 123h-415q-14 10 -28.5 42t-25.5 99v762q6 49 17.5 79t23 45t22.5 21.5t17 8.5h475q8 -2 19.5 -8.5t23 -21.5t21.5 -45t16 -79v-416q-10 -68 -24.5 -99.5t-28.5 -41.5h-47v391q0 39 -8.5 64.5t-20.5 40 t-24.5 20.5t-20.5 6h-282q-8 0 -20.5 -6t-25 -20.5t-20.5 -40t-8 -64.5v-385q0 -39 8 -63.5t20.5 -39t24.5 -20.5t21 -6h612q14 0 39.5 11.5t50.5 41t42 79.5t17 128v424q0 78 -17 128t-42 80t-50.5 41t-39.5 11h-948q-14 0 -39 -11t-49.5 -41t-42 -80t-17.5 -128v-770z M610 502v332q8 51 19.5 63t19.5 14h49q8 -4 19.5 -16t19.5 -61v-332q-8 -49 -19 -61.5t-20 -14.5h-49q-8 2 -19.5 14.5t-19.5 61.5z" />
<glyph unicode="A" horiz-adv-x="1140" d="M43 0l10 14q10 10 24.5 29.5t20.5 38.5l70 240l-2 16q0 18 -6 31.5t-13.5 26t-15.5 24.5t-12 29q-4 8 -5 19l-1 11h100l190 668l-100 143h393l402 -1290h-506l35 43q2 4 11 18.5t20.5 32t20.5 32.5t11 19q0 2 1 9.5t1 11.5t-1 11t-1 9l-51 181h-324l-24 -21l-55 -211 l100 -135h-293zM328 489h272l-117 412l-16 41l-3 2t-7 2q-2 0 -1 -1l3 -3z" />
<glyph unicode="B" horiz-adv-x="1128" d="M43 1290h895q14 0 27.5 -12t21.5 -28.5t13.5 -37t5.5 -34.5q0 -27 -2.5 -37.5t-16.5 -34.5q-8 -16 -27.5 -54t-43 -80t-44 -80t-28.5 -52v-21h108q27 0 50.5 -4t42 -17.5t29.5 -38t11 -63.5v-32q0 -18 -2 -33t-16 -37q-18 -37 -56 -104.5l-76 -135t-69.5 -123 t-38.5 -67.5q-14 -23 -35.5 -51.5t-47 -53t-54 -42t-55.5 -17.5h-494v1126q0 4 -6 19.5t-10 21.5zM461 123h14l320 573h-334v-573zM461 778q16 18 53 75.5t75 120t66.5 114t28.5 59.5v20h-223v-389z" />
<glyph unicode="C" horiz-adv-x="933" d="M43 664q0 -18 2 -33t16 -37q18 -37 55.5 -104.5l75 -135t69.5 -123t40 -67.5q14 -23 35.5 -51.5t47.5 -53t53.5 -42t54.5 -17.5h356v246l-111 -123h-86q-98 135 -178 274.5t-141 298.5q16 111 47 225.5t76 245.5l18 2h143q16 -20 28.5 -38.5t23.5 -36.5l147 -342l12 -13 q4 29 13.5 100.5t19.5 151.5t19.5 151.5t11.5 102.5q0 4 -5 17.5t-16 23.5l-26 4h-629q-8 -2 -23.5 -39t-35 -93t-39 -123.5t-37 -133t-27.5 -121t-10 -84.5v-32z" />
<glyph unicode="D" horiz-adv-x="1122" d="M43 1292l76 -125q4 -6 10 -21.5t6 -19.5v-1126h494q27 0 54.5 17.5t53 42t48 53t36.5 51.5q6 12 38 67.5t70 123t75.5 135t56.5 104.5q12 23 14 37t2 33v32q0 29 -8 85.5t-20.5 123t-28.5 135t-31.5 125t-29 92t-21.5 35.5h-895zM455 123v1044h223q45 -131 69.5 -245.5 t40.5 -225.5l-319 -573h-14z" />
<glyph unicode="E" horiz-adv-x="909" d="M43 1290h799v-192l-80 82h-303v-351h350l-80 -122h-270v-584h286l113 123v-246h-803q0 16 4 20l64 103q4 6 10 21.5t6 19.5v940q0 4 -6 18.5t-10 22.5z" />
<glyph unicode="F" horiz-adv-x="892" d="M43 1290l104 -186v-934l-100 -170h404v707h278l80 122h-350v349h303l80 -82v194h-799z" />
<glyph unicode="G" horiz-adv-x="1028" d="M43 664q0 -18 2 -33t16 -37q18 -37 55.5 -104.5l75 -135t69.5 -123t40 -67.5l13.5 -22.5t17.5 -24.5l2 -2q33 -41 75 -78t83 -37h143q88 111 168 272.5t162 348.5l20 47h-444q29 -35 55.5 -53.5t30.5 -22.5l14 -12q14 -13 16 -15q0 -4 -1 -7l-1 -3l-125 -236 q-23 37 -50 85.5t-55 98.5t-52.5 100t-40.5 93q16 111 47 223.5t76 243.5l18 2h143q16 -20 28.5 -38.5t23.5 -36.5l147 -338l12 -13q4 29 13.5 99.5t19.5 150.5t19.5 150.5t11.5 101.5q0 4 -4 16.5t-13 22.5l-20 10h-633q-8 -2 -24.5 -39t-36 -92t-41 -123.5t-37.5 -134 t-27.5 -121t-11.5 -84.5v-32z" />
<glyph unicode="H" horiz-adv-x="1034" d="M43 1290h389v-461h170v461h389q0 -4 -2 -10t-4 -10l-2 -2q-2 -8 -10 -25.5t-18.5 -37t-19.5 -36t-13 -22.5v-1024q0 -4 6 -19.5t10 -21.5l47 -82h-383v707h-170v-707h-385l49 82q4 6 10.5 21.5t6.5 19.5v1024q-4 6 -13.5 22.5t-19.5 36t-19.5 37t-11.5 25.5l-2 2 q0 4 -2 10t-2 10z" />
<glyph unicode="I" horiz-adv-x="544" d="M43 1290q0 -4 2 -10t2 -10l2 -2q2 -8 11.5 -25.5t19.5 -37t19.5 -36t13.5 -22.5v-1024q0 -4 -6.5 -19.5t-10.5 -21.5l-49 -82h451l-49 82q-4 6 -10.5 21.5t-6.5 19.5v1024q4 6 13.5 22.5t18.5 36t18.5 37t13.5 25.5l2 2q0 4 2 10t2 10h-459z" />
<glyph unicode="J" horiz-adv-x="940" d="M43 45q2 31 11 102.5t19.5 151.5t19.5 151.5t13 100.5l13 -12l147 -342q10 -18 25.5 -43t34.5 -43h168q6 2 17 8t22.5 21.5t22.5 45t17 78.5v903h-176l-110 -123v246h590v-1030q0 -78 -17.5 -128t-42 -79.5t-49.5 -41t-39 -11.5h-641l-27 6q-18 25 -18 39z" />
<glyph unicode="K" horiz-adv-x="1142" d="M43 1290h403v-491q41 74 75 136t62.5 120.5t54.5 116t48 118.5h356l-213 -450h2q8 0 37 -3t62 -14.5t58.5 -32t25.5 -53.5v-594l86 -143h-389v696h-273v-696h-391q18 37 39 72.5t41 70.5v985q0 4 -5 19.5t-9 21.5l-66 101q0 4 -2 10t-2 10z" />
<glyph unicode="L" horiz-adv-x="892" d="M43 1290l80 -123v-1044l-64 -123h783v225l-80 -102h-328v1044q27 41 41 64.5t21.5 36t9.5 16.5t2 6h-465z" />
<glyph unicode="M" horiz-adv-x="1716" d="M39 0l10 20q18 16 27.5 28.5t13.5 33.5l303 1065l-96 143h393l170 -553l117 410l-94 143h391l399 -1290h-506l35 41q2 4 11.5 19.5t20.5 32t21.5 31.5t12.5 19v21q0 4 -1 11t-1 9l-209 717l-15 41l-3 2t-7 2q-2 0 -4 -2l-2 -2l-108 -391l169 -551h-503l34 41 q2 4 11.5 18.5t21 32t20.5 32.5t11 19q0 2 1 9.5t1 11.5t-2 11t-2 9l-207 717l-16 41l-3 2q-3 2 -8 2l-6 -4l-217 -784l105 -158h-289z" />
<glyph unicode="N" horiz-adv-x="1056" d="M43 1290q4 -16 14.5 -38.5t21.5 -44t20.5 -38t13.5 -22.5v-1024q0 -4 -6.5 -19.5t-10.5 -21.5l-49 -82h385v707l377 -707h199l-64 123v1024q29 47 44.5 84t25.5 59h-389v-461l-250 461h-332z" />
<glyph unicode="O" horiz-adv-x="1128" d="M43 664q0 -18 2 -33t16 -37q18 -37 55.5 -104.5l75 -135t69.5 -123t40 -67.5q14 -23 35.5 -51.5t47.5 -53t53.5 -42t54.5 -17.5h143q27 0 55.5 17.5t54 42t47 53t35.5 51.5q6 12 38 67.5t70 123l76 135t56 104.5q14 23 16 37t2 33v32q0 29 -8 85.5t-21.5 122t-30.5 134 t-32.5 125t-30 92t-22.5 35.5h-752q-8 0 -22 -35.5t-29.5 -92t-33 -125t-31 -134t-21.5 -122t-8 -85.5v-32zM332 696q16 111 41.5 226.5t70.5 246.5h240q45 -131 69.5 -246.5t41.5 -226.5l-232 -446z" />
<glyph unicode="P" horiz-adv-x="1024" d="M43 1290h903q16 0 25.5 -28.5t9.5 -51.5l-2 -12q-6 -27 -23.5 -76t-41 -105t-53.5 -115.5t-59.5 -106.5t-59 -78t-54.5 -31h-264v-686h-379l47 82q4 6 10.5 21.5t6.5 19.5l12 33v972q-4 6 -15.5 23.5t-23.5 41.5t-23.5 49.5t-15.5 47.5zM434 799q31 20 62.5 61t61.5 94.5 t55.5 113.5t43.5 120h-223v-389z" />
<glyph unicode="Q" horiz-adv-x="1128" d="M43 664q0 -18 2 -33t16 -37q18 -37 55.5 -104.5l75 -135t69.5 -123t40 -67.5q14 -23 35.5 -51.5t47.5 -53t53.5 -42t54.5 -17.5h591l-59 59l-137 207q20 37 47 84t52.5 93t47 86t33.5 65q14 23 16 37t2 33v32q0 29 -8 85.5t-21.5 122t-30.5 134t-32.5 125t-30 92 t-22.5 35.5h-752q-8 0 -22 -35.5t-29.5 -92t-33 -125t-31 -134t-21.5 -122t-8 -85.5v-32zM332 696q16 111 42.5 226.5t71.5 246.5h240q43 -131 67.5 -246.5t41.5 -226.5l-86 -157l-80 116l100 80h-321v-8q18 -10 29.5 -16.5t17.5 -16.5l176 -280l-68 -140z" />
<glyph unicode="R" horiz-adv-x="1142" d="M43 1290h915q8 0 15.5 -11t10.5 -25.5t5 -30t2 -23.5q0 -27 -2 -37t-14 -35q-8 -16 -27.5 -54t-43 -81t-44 -81t-29.5 -52v-20q8 0 37 -3t62 -14.5t58.5 -32t25.5 -53.5v-594l86 -143h-389v696h-273v-696h-391q18 37 39 72.5t41 70.5v985q0 4 -5 19.5t-9 21.5l-66 101 q0 4 -2 10t-2 10zM446 799l33 41q12 18 40 68t58.5 105.5t57.5 105.5t37 71h-226v-391z" />
<glyph unicode="S" horiz-adv-x="942" d="M43 883v14q2 41 41 80t86 67q74 43 155 87.5t161.5 86.5t156.5 76.5t137 59.5l58 12l4 -27l-62 -544l-14 10l-184 313q-4 6 -5.5 10.5t-7.5 4.5h-16q-68 -20 -100.5 -60.5t-32.5 -93.5v-23q0 -23 12 -43l453 -507q14 -16 16 -34t2 -34q0 -49 -33.5 -75.5t-87.5 -53.5 q-172 -86 -333.5 -159t-335.5 -130h-31q0 6 1 23.5t3 23.5q2 31 9 103.5t16.5 152.5t17.5 151.5t12 100.5l15 -12l139 -342l10 -10l11 3q12 3 27 8t30.5 11t23.5 12q92 33 92 131q0 57 -26 103q-14 16 -46 53t-72 82t-84 96.5t-85 96.5t-73.5 81.5t-49.5 53.5q-10 25 -10 41 z" />
<glyph unicode="T" horiz-adv-x="901" d="M51 1100v190h799v-190l-80 80h-149v-1074q6 -16 12 -24l47 -82h-442l49 82q4 6 9 21.5t5 19.5v1057h-170z" />
<glyph unicode="U" horiz-adv-x="1028" d="M43 1290h389v-1026q10 -66 25.5 -96.5t30 -42.5t24.5 -14t10 -9h68v1188h391q-18 -37 -38.5 -71.5t-41.5 -69.5v-985q0 -4 6 -19.5t11 -21.5l63 -103q4 -16 4 -20h-706q-16 0 -41 11.5t-49.5 41t-42 79.5t-17.5 128v889z" />
<glyph unicode="V" d="M43 1290h506l-35 -43q-4 -4 -13 -18.5t-19.5 -30.5t-19.5 -31.5t-11 -19.5q0 -2 -1 -9.5t-1 -11.5t1 -11t1 -9l206 -717l17 -41l3 -2t7 -2q2 0 4 2l2 2l215 787l-100 155h285l-13 -24q-8 -4 -19 -20.5t-16 -37.5l-305 -1065l97 -143h-394z" />
<glyph unicode="W" horiz-adv-x="1396" d="M43 0q2 12 10 31.5t19.5 40t22.5 40t18 29.5v1026q0 4 -6.5 19.5t-10.5 21.5l-49 82h367v-751l284 751l285 -751v751h365l-48 -82q-4 -6 -10 -21.5t-6 -19.5v-1026q4 -10 15.5 -28.5t22.5 -39t20.5 -41t11.5 -32.5h-389l-269 750l-264 -750h-389z" />
<glyph unicode="X" horiz-adv-x="1142" d="M43 0l86 143v594q0 33 25.5 53.5t58.5 32t62.5 14.5t37.5 3h2l-213 450h355q23 -66 52.5 -132t61.5 -122q29 53 61 121t54 133h356l-213 -450h2q8 0 37 -3t62 -14.5t58.5 -32t25.5 -53.5v-594l86 -143h-389v696h-279v-696h-389z" />
<glyph unicode="Y" horiz-adv-x="1122" d="M43 1290l352 -665v-502q0 -4 -6 -19.5t-10 -21.5l-49 -82h368v741l334 508q6 10 16.5 16.5t28.5 16.5v8h-319l98 -80l-229 -352l-181 338l-1 3t-1 7q0 2 1 5l1 3q2 2 11.5 10.5t19.5 16.5t19.5 16.5t13.5 12.5l33 20h-500z" />
<glyph unicode="Z" horiz-adv-x="940" d="M41 336v4q0 16 2 34.5t16 33.5l447 505q10 12 12 24.5t2 25.5v18q0 53 -32.5 95t-100.5 61h-18q-10 0 -13 -13l-180 -315l-12 -12l-66 571l80 -10l682 -365q27 -12 32 -27.5t5 -68.5v-8q0 -10 -2 -20.5t-14 -24.5l-404 -463q-31 -53 -31 -105q0 -94 95 -131 q8 -8 22.5 -14t28.5 -10t26 -6l11 -2l14 6l135 346l13 8q4 -27 12 -98.5t17 -153.5t17.5 -155.5t12.5 -104.5q2 -4 3 -22.5t1 -24.5h-31q-193 76 -377 163t-380 179q-18 8 -21.5 20.5t-3.5 59.5z" />
<glyph unicode="[" horiz-adv-x="712" d="M51 0h619l-113 123h-201v1057h203l107 110h-615v-1290z" />
<glyph unicode="\" horiz-adv-x="1126" d="M43 1290l4 -6q14 -10 26.5 -16.5t18.5 -16.5l772 -1171l-96 -80h315v8q-35 10 -49 35l-766 1169l99 78h-324z" />
<glyph unicode="]" horiz-adv-x="714" d="M43 0l113 123h200v1057h-202l-107 110h615v-1290h-619z" />
<glyph unicode="^" d="M43 0v16q20 0 31.5 22.5t15.5 43.5l305 1065l-96 143h393l398 -1290h-506l34 43q2 4 11.5 18.5t21 32t20.5 31.5t11 18q0 2 1 9.5t1 11.5t-1 11t-1 9l-207 717l-16 41l-3 2t-7 2q-2 0 -5 -2l-2 -2l-215 -786l101 -156h-285z" />
<glyph unicode="_" horiz-adv-x="595" d="M51 0v123h502l-80 -123h-422z" />
<glyph unicode="`" horiz-adv-x="423" d="M43 1290l115 -254h223l-98 254h-240z" />
<glyph unicode="a" horiz-adv-x="1140" d="M43 0h293l-100 135l55 211l24 21h324l51 -181q0 -2 1 -9t1 -11t-1 -11.5t-1 -9.5q-2 -4 -11 -19t-20.5 -32.5t-20.5 -32t-11 -18.5l-35 -43h506l-402 1290h-393l100 -143l-190 -668h-100l1 -11t5 -19q4 -16 12 -28.5t15.5 -25t13.5 -26t6 -31.5l2 -16l-70 -240 q-6 -18 -20.5 -37.5t-24.5 -30.5zM328 489l131 453l-2 2q-2 2 0 2q4 0 7 -2l3 -2l16 -41l117 -412h-272z" />
<glyph unicode="b" horiz-adv-x="1128" d="M43 1290h895q14 0 27.5 -12t21.5 -28.5t13.5 -37t5.5 -34.5q0 -27 -2.5 -37.5t-16.5 -34.5q-8 -16 -27.5 -54t-43 -80t-44 -80t-28.5 -52v-21h108q27 0 50.5 -4t42 -17.5t29.5 -38t11 -63.5v-32q0 -18 -2 -33t-16 -37q-18 -37 -56 -104.5l-76 -135t-69.5 -123 t-38.5 -67.5q-14 -23 -35.5 -51.5t-47 -53t-54 -42t-55.5 -17.5h-494v1126q0 4 -6 19.5t-10 21.5zM461 123h14l320 573h-334v-573zM461 778q14 12 36.5 44t47 72t49 83t45 80t33 61.5t12.5 28.5v20h-223v-389z" />
<glyph unicode="c" horiz-adv-x="933" d="M57 260v770q0 78 17.5 128t42 80t49 41t41.5 11h639l26 -6q18 -25 19 -39q-2 -31 -11.5 -102.5t-19.5 -151.5t-19.5 -151.5t-13.5 -100.5l-12 13l-147 342q-10 18 -25.5 42.5t-34.5 43.5h-168q-6 -2 -17 -8.5t-22.5 -21.5t-22.5 -45t-18 -79v-762q10 -68 24.5 -99.5 t31.5 -41.5h305l110 123v-246h-624q-16 0 -41 11.5t-49.5 41t-42 79.5t-17.5 128z" />
<glyph unicode="d" horiz-adv-x="1138" d="M43 1290l80 -123q4 -6 10 -21.5t6 -19.5v-1126h496q27 0 54.5 17.5t53 42t47 53t35.5 51.5q8 12 40 67.5t70 123t75 135t55 104.5q14 23 16 37t2 33v626h-1040zM459 123v1044h336v-471l-320 -573h-16z" />
<glyph unicode="e" horiz-adv-x="909" d="M43 1290l80 -145q4 -8 10 -22.5t6 -18.5v-940q0 -4 -6 -19.5t-10 -21.5l-64 -103q-4 -4 -4 -20h803v246l-113 -123h-286v584h270l80 122h-350v351h303l80 -82v192h-799z" />
<glyph unicode="f" horiz-adv-x="892" d="M43 1292h799v-194l-80 82h-303v-351h350l-80 -122h-278v-707h-304v1106z" />
<glyph unicode="g" horiz-adv-x="958" d="M57 260v770q0 78 17.5 128t42 80t49 41t41.5 11h624v-246l-110 123h-305q-16 -10 -30.5 -41.5t-25.5 -99.5v-762q6 -49 17.5 -78.5t23 -45t22.5 -21.5t17 -8h168v585h-139v144h283q8 0 34.5 -2t54 -11.5t49 -30t21.5 -59.5v-575q0 -63 -31.5 -112.5t-78.5 -49.5h-594 q-16 0 -41 11.5t-49.5 41t-42 79.5t-17.5 128z" />
<glyph unicode="h" horiz-adv-x="1034" d="M43 1290q0 -4 2 -10t2 -10l2 -2q2 -8 11.5 -25.5t19.5 -37t19.5 -36t13.5 -22.5v-1024q0 -4 -6.5 -19.5t-10.5 -21.5l-49 -82h381v707h178v-707h379l-47 82q-4 6 -10 21.5t-6 19.5v1024q4 6 13 22.5t19.5 36t18.5 37t10 25.5l2 2q2 4 4 10t2 10h-385v-461h-178v461h-385z " />
<glyph unicode="i" horiz-adv-x="471" d="M43 1290h375v-1290h-371l49 82q4 6 10.5 21.5t6.5 19.5v1024q-4 6 -13.5 22.5t-19.5 36t-19.5 37t-11.5 25.5l-2 2q0 4 -2 10t-2 10z" />
<glyph unicode="j" horiz-adv-x="878" d="M43 -72h33l676 256q12 4 25.5 21.5t24.5 41t18 50.5t7 49v944h-389q0 -4 2 -8t8.5 -17.5t20.5 -40t39 -75.5v-834q-4 -31 -9 -54t-18.5 -43.5t-37 -37t-60.5 -33.5q-12 -8 -38 -14t-45 -9t-21 -3l-15 10l-141 338l-12 12q-4 -29 -13.5 -100.5t-19.5 -151t-19.5 -151.5 t-11.5 -103q-2 -6 -3 -23.5t-1 -23.5z" />
<glyph unicode="k" horiz-adv-x="1128" d="M43 1290q0 -4 2 -10t2 -10l2 -2q2 -8 11.5 -25.5t19.5 -37t19.5 -36t13.5 -22.5v-1024q0 -4 -6.5 -19.5t-10.5 -21.5l-49 -82h385v571l252 -479l1 -3t1 -7q0 -2 -1 -5l-1 -3q-2 -2 -11 -9.5t-19.5 -16.5t-20.5 -17t-12 -11l-27 -20h491l-434 791l299 460q6 10 16.5 15.5 t30.5 15.5v8h-321l98 -78l-342 -518v596h-389z" />
<glyph unicode="l" horiz-adv-x="892" d="M43 1290l80 -123v-1044l-64 -123h783v225l-80 -102h-328v1167h-391z" />
<glyph unicode="m" horiz-adv-x="1396" d="M43 1290q2 -12 10 -31.5t19.5 -40t22.5 -40t18 -29.5v-1026q0 -4 -6.5 -19.5t-10.5 -21.5l-49 -82h367v752l284 -752l285 752v-752h365l-48 82q-4 6 -10 21.5t-6 19.5v1026q6 8 17.5 26.5t21.5 40t19.5 42t11.5 32.5h-389l-269 -749l-264 749h-389z" />
<glyph unicode="n" horiz-adv-x="1058" d="M43 1290q4 -16 14.5 -38.5t21.5 -44t20.5 -38t13.5 -22.5v-1024q0 -4 -6.5 -19.5t-10.5 -21.5l-49 -82h381v707l516 -779v1219q4 6 14.5 22.5t21.5 38t22.5 44t17.5 38.5h-395v-481l-328 481h-254z" />
<glyph unicode="o" horiz-adv-x="997" d="M55 260v770q0 78 17.5 128t42 80t49 41t39.5 11h592q14 0 39.5 -11t50 -41t42 -80t17.5 -128v-770q0 -78 -17.5 -128t-42 -79.5t-50 -41t-39.5 -11.5h-592q-14 0 -39 11.5t-49.5 41t-42 79.5t-17.5 128zM358 264q6 -49 16.5 -78.5t22 -45t22.5 -21.5t19 -8h123 q8 2 18.5 8t21.5 21.5t21.5 45t18.5 78.5v762q-4 49 -14.5 78t-22.5 45t-24.5 22.5t-18.5 8.5h-123q-8 -2 -19 -8.5t-22.5 -21.5t-22 -45t-16.5 -79v-762z" />
<glyph unicode="p" horiz-adv-x="1024" d="M43 1290h903q16 0 25.5 -28.5t9.5 -51.5l-2 -12q-6 -27 -23.5 -76t-41 -105t-53.5 -115.5t-59.5 -106.5t-59 -78t-54.5 -31h-258v-686h-309v1128q-4 6 -15.5 23.5t-23.5 41.5t-23.5 49.5t-15.5 47.5zM434 799q20 14 50 55t62 95.5t61.5 116.5t49.5 122h-223v-389z" />
<glyph unicode="q" horiz-adv-x="974" d="M59 260q0 -78 17.5 -128t42 -79.5t49.5 -41t39 -11.5h432l51 -80h307l-108 168q35 63 35 172v770q0 78 -17.5 128t-42 80t-50.5 41t-40 11h-567q-14 0 -39 -11t-49.5 -41t-42 -80t-17.5 -128v-770zM362 446v580q6 49 17.5 79t24 46t23.5 21.5t19 7.5h95q8 -2 18 -7.5 t20.5 -21.5t21.5 -46t20 -79v-580h-259zM365 264v154l198 -305h-117q-6 0 -20 8t-27.5 26.5t-23.5 47t-10 69.5z" />
<glyph unicode="r" horiz-adv-x="1142" d="M43 1290h915q8 0 15.5 -11t10.5 -25.5t5 -30t2 -23.5q0 -12 -2 -20.5t-4 -14.5t-5 -14t-5 -23q-4 -16 -23.5 -55t-43 -81t-45 -80t-32.5 -52v-20q8 0 37 -3t62 -14.5t58.5 -32t25.5 -53.5v-594l86 -143h-389v696h-273v-696h-391q18 37 39 72.5t41 70.5v985q0 4 -5 19.5 t-9 21.5l-66 101q0 4 -2 10t-2 10zM446 799q59 76 113.5 171t112.5 220h-226v-391z" />
<glyph unicode="s" horiz-adv-x="929" d="M43 14q14 -14 31 -14h698q27 0 46.5 15.5t31.5 40t18 54t6 58.5q0 23 -10 43l-426 856q-6 16 -9 26.5t-3 30.5l2 19q4 29 22.5 38t53.5 11h24q10 0 36 -4t42 -25l156 -372l12 -13l109 477l4 35h-697q-39 0 -75.5 -49t-40.5 -162q0 -6 2 -8q8 -20 36.5 -81.5t67.5 -142.5 t83 -171t85 -170t72 -139.5t43 -77.5q20 -43 20 -74l-2 -33q-4 -41 -23.5 -70.5t-66.5 -29.5h-31q-23 0 -46 3l-23 3l-10 10l-115 394l-10 12q-8 -25 -23.5 -87.5t-33 -133t-31 -135t-17.5 -91.5q-2 -4 -5 -20.5t-3 -22.5z" />
<glyph unicode="t" horiz-adv-x="901" d="M51 1100l80 80h170v-1057q0 -4 -5 -19.5t-9 -21.5l-49 -82h383v1180h149l80 -80v190h-799v-190z" />
<glyph unicode="u" horiz-adv-x="1028" d="M43 1290h389v-1026q6 -49 17.5 -78.5t22.5 -45t22.5 -21.5t17.5 -8h4q8 2 18.5 8t21.5 21.5t21.5 45t18.5 78.5v1026h389l-86 -141v-889q0 -78 -17.5 -128t-42 -79.5t-49 -41t-38.5 -11.5h-473q-16 0 -41 11.5t-49.5 41t-42 79.5t-17.5 128v889z" />
<glyph unicode="v" d="M43 1290h506l-35 -43q-4 -4 -13 -18.5t-19.5 -30.5t-19.5 -31.5t-11 -19.5q0 -2 -1 -9.5t-1 -11.5t1 -11t1 -9l206 -717l17 -41l3 -2t7 -2q2 0 4 2l2 2l215 787l-100 155h285l-23 -37q-4 -4 -12 -14t-13 -31l-305 -1065l97 -143h-394z" />
<glyph unicode="w" horiz-adv-x="1716" d="M43 1290h506l-37 -41q-4 -4 -13.5 -18t-19.5 -31.5t-19 -33t-11 -19.5q0 -2 -1.5 -9.5t-1.5 -11.5t2.5 -11t2.5 -9l206 -717l17 -41l3 -2t7 -2q2 0 4 2l2 2l107 391l-168 551h504l-35 -41q-4 -4 -13.5 -18t-19.5 -31.5t-19.5 -33t-11.5 -19.5q0 -2 -1 -9.5t-1 -11.5 t1 -11t1 -9l209 -717l17 -41l2 -2q2 -2 6 -2q2 0 4 2l2 2l215 787l-100 155h284l-2 -16q-14 -12 -27.5 -28.5t-19.5 -37.5l-301 -1065l86 -143h-383l-172 553l-117 -410l86 -143h-383z" />
<glyph unicode="x" horiz-adv-x="1122" d="M43 0v8q10 12 31.5 26.5t23.5 14.5l332 510l-385 733h500l-33 -20q-4 -4 -13.5 -12.5t-20.5 -16.5t-20 -16t-12 -10v-9v-10l181 -340l227 338l-96 96h321v-8q-14 -8 -21 -13t-10.5 -8t-5.5 -5.5t-8 -6.5l-10 -10l-332 -508l385 -733h-499l14 14q2 2 15.5 11.5t27.5 19.5 t26.5 18.5t14.5 10.5l1 3t1 5q0 4 -1 7l-1 3l-180 344l-232 -348l94 -88h-315z" />
<glyph unicode="y" horiz-adv-x="1122" d="M43 1290h500l-35 -26q-8 -8 -31.5 -25.5t-30.5 -24.5l-1 -3t-1 -5q0 -4 1 -7l1 -3l181 -338l227 344l-96 88h319l-6 -12q-16 -16 -27.5 -21.5t-17.5 -15.5l-328 -500v-741h-303v625z" />
<glyph unicode="z" horiz-adv-x="954" d="M43 1290l4 -35l109 -477l12 13l156 372q10 16 37.5 23.5t50.5 7.5h26q35 0 53.5 -11.5t22.5 -39.5l2 -35q0 -10 -1 -20.5t-11 -20.5l-438 -922q-10 -20 -11 -43l2 -28q4 -45 20.5 -59.5t49.5 -14.5h752l32 14q0 6 -3 22.5t-5 20.5q-4 27 -18.5 91.5t-31.5 135t-32.5 133 t-21.5 87.5l-11 -12l-114 -394l-10 -10l-24 -3t-46 -3q-20 0 -23 2h-8q-47 0 -65.5 28.5t-22.5 69.5l-2 27q0 20 4 39.5t15 40.5q14 20 45.5 85.5t72.5 153.5t86 188.5t85 189.5t69 155.5t39 87.5q12 20 12 39q0 -2 -1 3l-3 15l2 4q-4 49 -22.5 64.5t-71.5 15.5h-762z" />
<glyph unicode="{" horiz-adv-x="882" d="M43 827h180v203q0 78 17.5 128t42 80t49 41t41.5 11h465l-107 -110h-125q-6 -2 -17 -8.5t-22.5 -21.5t-23 -45t-17.5 -79v-762q10 -68 25.5 -99.5t30.5 -41.5h147l109 -123h-465q-16 0 -41 11.5t-49.5 41t-42 79.5t-17.5 128v445h-100z" />
<glyph unicode="|" horiz-adv-x="483" d="M51 0h385l-47 82q-4 6 -10 21.5t-6 19.5v1026q4 6 13 22.5t18.5 36t17.5 37t12 25.5l2 2q4 16 4 20h-389v-1292z" />
<glyph unicode="}" horiz-adv-x="882" d="M43 0h467q14 0 38.5 11.5t49.5 41t42 79.5t17 128v445h101l80 122h-181v203q0 78 -17 128t-42 80t-49.5 41t-38.5 11h-467l107 -110h124q8 -2 19.5 -8.5t23 -21.5t21.5 -45t16 -79v-762q-10 -68 -24.5 -99.5t-28.5 -41.5h-149z" />
<glyph unicode="~" horiz-adv-x="704" d="M51 643h170l39 129l41 -129h274l78 252h-170l-37 -129l-45 129h-274z" />
<glyph horiz-adv-x="278" />
<glyph unicode="&#xa1;" horiz-adv-x="544" d="M43 0h459q0 2 -2 6t-8.5 17.5t-20.5 42t-39 77.5v605l-43 141h-221l-55 -141v-605q0 -8 -9.5 -25.5t-21.5 -38t-23.5 -42t-15.5 -37.5zM170 1036h219v254h-219v-254z" />
<glyph unicode="&#xa2;" horiz-adv-x="927" d="M51 260v770q0 78 17.5 128t42 80t49 41t39.5 11h327v246h78v-246h236l26 -6q18 -25 19 -39q-2 -31 -11.5 -102.5t-19.5 -151.5t-19.5 -151.5t-13.5 -100.5l-12 13l-147 342q-10 16 -24.5 40.5t-33.5 43.5v-1055h111l110 123v-246h-221v-248h-78v248h-327q-14 0 -39 11.5 t-49.5 41t-42 79.5t-17.5 128zM354 264q10 -68 24.5 -99.5t31.5 -41.5h116v1057h-92q-6 -2 -17 -8.5t-22.5 -21.5t-23 -45t-17.5 -79v-762z" />
<glyph unicode="&#xa3;" horiz-adv-x="1011" d="M49 0h918v123h-252l-320 573h408q-10 16 -36 53t-58.5 84.5t-68.5 98.5t-64.5 95t-48 77t-19.5 41v20h84l80 125h-418q-16 0 -28.5 -12t-20.5 -29.5t-13.5 -38t-5.5 -34.5q0 -27 2 -37.5t17 -34.5q8 -16 28.5 -54t43 -80t43 -79t28.5 -51v-21h-299v-123h57v-32 q0 -18 2.5 -33t16.5 -37q18 -37 55 -104.5t75 -135t69.5 -123t40.5 -67.5q4 -10 11 -20.5t15 -20.5h-342v-123z" />
<glyph unicode="&#xa4;" horiz-adv-x="1122" d="M43 0v8q39 10 47 35l168 256v23v565l-213 405h500l-33 -20q-4 -4 -13.5 -12.5t-20.5 -16.5t-20 -16t-12 -10v-9v-10l46 -86h284l15 -2l67 102l-100 80h321v-8q-18 -10 -28.5 -16t-16.5 -17l-160 -241q13 -43 13 -92v-556l190 -362h-499l34 20q2 2 12.5 10.5t20.5 17.5 t19.5 16.5t11.5 9.5l1 3t1 5q0 4 -1 7l-1 3l-33 62h-276q-8 0 -20.5 4t-24.5 14l-64 -94l100 -78h-315zM477 348q12 -72 29.5 -92t30.5 -20h69q10 0 27.5 20t30.5 92v565q-10 72 -29 92.5t-29 24.5h-69h-2q-10 -4 -29 -25.5t-29 -91.5v-565z" />
<glyph unicode="&#xa5;" horiz-adv-x="1122" d="M43 1290h500l-33 -20q-4 -4 -13.5 -12.5t-19.5 -16.5t-19 -16t-12 -11l-1 -3t-1 -5q0 -4 1 -7l1 -3l181 -338l229 352l-98 80h319v-8q-18 -10 -28.5 -16t-16.5 -17l-334 -508v-112h260l-79 -121h-181v-102h260l-79 -121h-181v-285h-303v285h-225v121h225v102h-225v121 h221z" />
<glyph unicode="&#xa6;" horiz-adv-x="421" d="M51 0v1290h320v-1290h-320z" />
<glyph unicode="&#xa7;" horiz-adv-x="1122" d="M43 0h500l-33 20q-4 2 -13.5 10.5t-19.5 16.5t-19 16.5t-12 10.5l-1 3t-1 5q0 4 1 7l1 3l31 62h277q23 0 47 18l61 127q2 2 2 23v565l213 405h-499l32 -20q2 -4 11.5 -12.5t19.5 -17.5t20.5 -16t12.5 -9l1 -3q1 -4 1 -6q0 -4 -1 -7l-1 -3l-45 -86h-285l-14 -2l-82 -100 q-12 -43 -12 -92v-556zM457 348v565q12 72 29.5 92.5t27.5 24.5h70h2q10 -4 28.5 -25.5t28.5 -91.5v-565q-12 -72 -29.5 -92t-29.5 -20h-70q-10 2 -26.5 21t-30.5 91z" />
<glyph unicode="&#xa8;" horiz-adv-x="657" d="M51 1036v254h223v-254h-223zM383 1036v254h223v-254h-223z" />
<glyph unicode="&#xa9;" horiz-adv-x="378" d="M51 1149q0 -51 19 -94q20 -43 51 -66q27 -27 69 -26q43 0 70 26q29 20 51 66q18 43 19 94q0 49 -19 90q-16 41 -53 68q-35 24 -68 24q-35 0 -67 -24q-33 -20 -51 -68q-12 -25 -16.5 -48.5t-4.5 -41.5zM76 1149q0 29 9 57.5t25.5 51t36.5 35t43 10.5q23 0 58 -23 q25 -18 43 -55q16 -39 16 -76q0 -39 -16 -78q-31 -76 -101 -76q-49 0 -81.5 44t-32.5 110zM119 1149q0 -106 71 -107q55 0 68 68l-22 8q-6 -47 -46 -47q-45 0 -45 76q0 78 48 78q25 0 43 -39l20 8q-12 55 -63 55q-35 0 -54.5 -23.5t-19.5 -76.5z" />
<glyph unicode="&#xaa;" horiz-adv-x="1067" d="M51 260q0 -78 17.5 -128t42 -79.5t49 -41t39.5 -11.5h475q86 111 167 272.5t163 348.5l20 47h-444q35 -45 62.5 -62.5t51.5 -40.5l2 -4q0 -4 -1 -5l-1 -1l-227 -428h-57q-16 8 -30.5 39t-25.5 98v762q6 49 17.5 79t23 45t22.5 21.5t17 8.5h168q18 -18 33.5 -43t26.5 -43 l147 -342l12 -13q4 29 13.5 100.5t19.5 151.5t19.5 151.5t11.5 102.5q0 14 -19 39l-26 6h-641q-14 0 -39 -11t-49.5 -41t-42 -80t-17.5 -128v-770z" />
<glyph unicode="&#xab;" horiz-adv-x="538" d="M51 530l199 -124v286l-100 74l100 65v287l-199 -127v-461zM289 532l198 -124v286l-100 74l100 66v286l-198 -127v-461z" />
<glyph unicode="&#xac;" horiz-adv-x="454" d="M51 707v122h352v-286h-96v164h-256z" />
<glyph unicode="&#xad;" horiz-adv-x="397" d="M51 707h223l80 122h-303v-122z" />
<glyph unicode="&#xae;" horiz-adv-x="972" d="M43 14q0 6 3 22.5t5 20.5q4 27 17.5 91.5t31 135t33 133t23.5 87.5l10 -12l115 -394l10 -10l23 -3q24 -3 46 -3q20 0 23 2h8q47 0 66.5 28.5t23.5 69.5l2 27q0 41 -20 80q-14 20 -44 85.5t-69 153.5t-81 188.5t-79.5 189.5t-66.5 155.5t-39 87.5q-12 20 -12 39q0 -2 1 3 l3 15l-2 4q4 49 49 64.5t98 15.5h709l-4 -35l-109 -477l-12 13l-156 372q-4 16 -14 17l-8 6h-9q-25 4 -45 6t-38 2q-35 0 -53.5 -11.5t-22.5 -39.5l-2 -35q0 -10 1 -20.5t11 -20.5l420 -922q10 -20 10 -43l-2 -28q-4 -45 -38 -59.5t-87 -14.5h-696z" />
<glyph unicode="&#xaf;" horiz-adv-x="595" d="M51 1167h422l80 123h-502v-123z" />
<glyph unicode="&#xb0;" horiz-adv-x="325" d="M51 1036v254h223v-254h-223z" />
<glyph unicode="&#xb1;" horiz-adv-x="454" d="M51 342v123h352v-123h-352zM51 707v122h127v164h96v-164h129v-122h-129v-164h-96v164h-127z" />
<glyph unicode="&#xb2;" horiz-adv-x="518" d="M43 1335h315q25 0 41.5 -12t24.5 -32.5t11 -44t3 -44.5v-18q-8 -16 -30.5 -67.5t-49 -110t-52 -108.5t-38.5 -64q-10 -20 -10 -39v-15q4 -20 13.5 -34.5t31.5 -14.5h16q10 0 23 1l12 1l121 31l-14 -74h-375q-18 0 -25.5 7.5t-9.5 29.5l-2 14q0 10 6 21l219 461q4 8 5 20 v19v2q-2 8 -21 20q0 2 -16 2h-21q-29 0 -37 -14l-80 -187l-6 -6l-53 238z" />
<glyph unicode="&#xb3;" horiz-adv-x="538" d="M43 1335h377q16 0 25.5 -20.5t9.5 -36.5v-10q0 -10 -11 -27q-4 -8 -14 -27.5t-21.5 -40t-21.5 -39t-14 -24.5v-10h53q29 0 48.5 -10.5t19.5 -51.5v-16v-8q0 -10 -11 -27q-10 -18 -28.5 -52t-37 -67.5t-33.5 -61.5t-19 -34q-16 -23 -42 -52.5t-55 -29.5h-205v62h125 l160 286h-203q6 12 30 46t50.5 72t47 68.5t20.5 37.5v10h-209z" />
<glyph unicode="&#xb4;" horiz-adv-x="423" d="M43 1036h223l115 254h-240z" />
<glyph unicode="&#xb5;" horiz-adv-x="1062" d="M51 260v770q0 78 17.5 128t42 80t49 41t39.5 11h565q14 0 38.5 -11t49.5 -41t42 -80t17 -128v-276q35 -10 66 -31t31 -57v-594l86 -144h-389v72h-506q-14 0 -39 11.5t-49.5 41t-42 79.5t-17.5 128zM354 264q6 -49 17.5 -78.5t23 -45t22.5 -21.5t17 -8h94q8 2 18.5 8 t22 21.5t21.5 45t18 78.5v762q-8 49 -18 79t-21.5 45t-21.5 21.5t-19 8.5h-94q-6 -2 -17 -8.5t-22.5 -21.5t-23 -45t-17.5 -79v-762z" />
<glyph unicode="&#xb6;" horiz-adv-x="178" d="M51 -248v1784h76v-1784h-76z" />
<glyph unicode="&#xb7;" horiz-adv-x="325" d="M51 573h223v254h-223v-254z" />
<glyph unicode="&#xb8;" horiz-adv-x="1056" d="M43 1290h254l328 -461v461h389q0 -4 -2 -10t-4 -10l-2 -2q-4 -8 -12.5 -25.5t-17.5 -37t-18.5 -36t-13.5 -22.5v-1147l-512 707v-707h-385l49 82q4 6 10.5 21.5t6.5 19.5v1024q-4 6 -13.5 22.5t-19.5 36t-19.5 37t-11.5 25.5l-2 2q0 4 -2 10t-2 10z" />
<glyph unicode="&#xb9;" horiz-adv-x="313" d="M43 1335h195v-583q0 -4 3 -10.5t5 -10.5l24 -41h-223l23 41q2 4 5 10.5t3 10.5v512q-4 4 -14.5 25.5t-16.5 31.5v4q-4 4 -4 10z" />
<glyph unicode="&#xba;" horiz-adv-x="534" d="M51 819v385q0 39 8.5 64.5t20.5 40t24.5 20.5t22.5 6h281q8 0 20 -6t24.5 -20.5t21.5 -40t9 -64.5v-385q0 -39 -9 -63.5t-21.5 -39t-24.5 -20.5t-20 -6h-281q-10 0 -22.5 6t-24.5 20.5t-20.5 39t-8.5 63.5zM203 821q10 -49 20 -61t21 -15h47q8 2 19.5 14.5t19.5 61.5v381 q-8 49 -19.5 61.5t-19.5 16.5h-47q-10 -2 -20.5 -14.5t-20.5 -63.5v-381z" />
<glyph unicode="&#xbb;" horiz-adv-x="538" d="M49 408v286l101 74l-101 66v286l199 -127v-461zM287 406v286l102 74l-102 65v287l198 -127v-461z" />
<glyph unicode="&#xbc;" horiz-adv-x="1128" d="M43 0h315l-88 80l764 1171q6 10 16.5 16.5t28.5 16.5v8h-321l100 -80l-768 -1169q-8 -25 -47 -35v-8zM190 1292q0 -4 1.5 -6t1.5 -4l2 -4q4 -10 15 -31.5t15 -25.5v-512q0 -4 -3 -10.5t-5 -10.5l-24 -41h225l-25 41q-2 4 -5 10.5t-3 10.5v583h-195zM553 188h268v-188h193 l-25 41q-8 8 -8 20v127h61l41 62h-102v323q4 10 18.5 35t14.5 37h-193zM737 250l84 143v-143h-84z" />
<glyph unicode="&#xbd;" horiz-adv-x="1179" d="M43 0v8q39 10 47 35l768 1169l-100 80h321v-8q-18 -10 -28.5 -16t-16.5 -17l-764 -1171l88 -80h-315zM190 1292h195v-583q0 -4 3 -10.5t5 -10.5l25 -41h-225l24 41q2 4 5 10.5t3 10.5v512q-4 4 -15 25.5t-15 31.5l-2 4q0 2 -1.5 4t-1.5 6zM705 645h315q25 0 41 -12 t24.5 -32.5t11.5 -44.5t3 -44v-18q-8 -16 -30.5 -67.5t-49.5 -110t-52.5 -108.5t-37.5 -65q-10 -20 -10 -39v-14q4 -20 13 -34.5t32 -14.5h16q10 0 23 1l12 1l121 31l-15 -74h-374q-18 0 -25.5 7t-9.5 30l-2 14q0 4 4 21l221 460q4 8 4 21v18v2q-2 8 -20 21q-2 2 -17 2h-20 q-29 0 -37 -14l-80 -187l-6 -6l-53 238z" />
<glyph unicode="&#xbe;" horiz-adv-x="1128" d="M43 0v8q39 10 47 35l768 1169l-100 80h321v-8q-18 -10 -28.5 -16t-16.5 -17l-764 -1171l88 -80h-315zM80 1294h377q16 0 24 -20.5t8 -36.5v-10q0 -12 -8 -27q-4 -8 -14 -27.5t-21.5 -40t-21.5 -39t-14 -24.5v-10h53q29 0 48 -10.5t19 -51.5v-16v-8q0 -10 -10 -27 q-10 -18 -28.5 -52t-38 -67.5t-35 -61.5t-17.5 -34q-16 -23 -41.5 -52.5t-54.5 -29.5h-205v62h125l160 286h-203q6 12 30 46t50.5 72t47 68.5t20.5 37.5v10h-209zM553 188l268 457h193q0 -12 -14.5 -36.5t-18.5 -35.5v-323h102l-41 -62h-61v-127q0 -12 8 -20l25 -41h-193 v188h-268zM737 250h84v143z" />
<glyph unicode="&#xbf;" horiz-adv-x="888" d="M45 385q0 -53 42 -87t91 -60l608 -316l60 -22v37l-60 555l-14 -11l-188 -325q-2 -14 -15 -15h-14q-68 20 -100.5 61.5t-32.5 94.5q0 16 2 35.5t14 38.5q49 63 102.5 128.5t103.5 131t95 130.5t78 128l-239 59q0 -25 -33 -65.5t-83 -89t-111.5 -100.5t-119 -100 t-103.5 -87t-67 -62q-14 -18 -15 -29.5t-1 -21.5v-8zM594 1038h223v254h-223v-254z" />
<glyph unicode="&#xc0;" d="M43 0v16l2 2q10 10 25.5 27.5t19.5 36.5l70 240l-2 16q0 18 -6.5 31.5t-13.5 26t-15 24.5t-12 29q-4 8 -5 19l-2 11h101l190 668l-100 143h393l402 -1290h-506l34 43q2 4 11.5 18.5t21 32t20.5 32.5t11 19q0 2 1 9.5t1 11.5t-1 11t-1 9l-51 181h-322l-26 -21l-56 -211 l101 -135h-285zM319 489h273l-117 412l-16 41l-3 2t-7 2q-2 0 -1 -1l3 -3zM352 1686h240l100 -254h-223z" />
<glyph unicode="&#xc1;" d="M43 0v16l2 2q10 10 25.5 27.5t19.5 36.5l70 240l-2 16q0 18 -6.5 31.5t-13.5 26t-15 24.5t-12 29q-4 8 -5 19l-2 11h101l190 668l-100 143h393l402 -1290h-506l34 43q2 4 11.5 18.5t21 32t20.5 32.5t11 19q0 2 1 9.5t1 11.5t-1 11t-1 9l-51 181h-322l-26 -21l-56 -211 l101 -135h-285zM319 489h273l-117 412l-16 41l-3 2t-7 2q-2 0 -1 -1l3 -3zM393 1434l99 254h239l-115 -254h-223z" />
<glyph unicode="&#xc2;" d="M43 0v16l2 2q10 10 25.5 27.5t19.5 36.5l70 240l-2 16q0 18 -6.5 31.5t-13.5 26t-15 24.5t-12 29q-4 8 -5 19l-2 11h101l190 668l-100 143h393l402 -1290h-506l34 43q2 4 11.5 18.5t21 32t20.5 32.5t11 19q0 2 1 9.5t1 11.5t-1 11t-1 9l-51 181h-322l-26 -21l-56 -211 l101 -135h-285zM266 1434l101 254h358l98 -254h-225l-57 129l-52 -129h-223zM319 489h273l-117 412l-16 41l-3 2t-7 2q-2 0 -1 -1l3 -3z" />
<glyph unicode="&#xc3;" d="M43 0v16l2 2q10 10 25.5 27.5t19.5 36.5l70 240l-2 16q0 18 -6.5 31.5t-13.5 26t-15 24.5t-12 29q-4 8 -5 19l-2 11h101l190 668l-100 143h393l402 -1290h-506l34 43q2 4 11.5 18.5t21 32t20.5 32.5t11 19q0 2 1 9.5t1 11.5t-1 11t-1 9l-51 181h-322l-26 -21l-56 -211 l101 -135h-285zM242 1432l73 251h277l43 -129l37 129h172l-78 -251h-274l-41 129l-39 -129h-170zM319 489h273l-117 412l-16 41l-3 2t-7 2q-2 0 -1 -1l3 -3z" />
<glyph unicode="&#xc4;" d="M43 0v16l2 2q10 10 25.5 27.5t19.5 36.5l70 240l-2 16q0 18 -6.5 31.5t-13.5 26t-15 24.5t-12 29q-4 8 -5 19l-2 11h101l190 668l-100 143h393l402 -1290h-506l34 43q2 4 11.5 18.5t21 32t20.5 32.5t11 19q0 2 1 9.5t1 11.5t-1 11t-1 9l-51 181h-322l-26 -21l-56 -211 l101 -135h-285zM260 1434v254h223v-254h-223zM319 489h273l-117 412l-16 41l-3 2t-7 2q-2 0 -1 -1l3 -3zM592 1434v254h225v-254h-225z" />
<glyph unicode="&#xc5;" d="M43 0v16l2 2q10 10 25.5 27.5t19.5 36.5l70 240l-2 16q0 18 -6.5 31.5t-13.5 26t-15 24.5t-12 29q-4 8 -5 19l-2 11h101l190 668l-100 143h393l402 -1290h-506l34 43q2 4 11.5 18.5t21 32t20.5 32.5t11 19q0 2 1 9.5t1 11.5t-1 11t-1 9l-51 181h-322l-26 -21l-56 -211 l101 -135h-285zM319 489h273l-117 412l-16 41l-3 2t-7 2q-2 0 -1 -1l3 -3zM428 1434v254h223v-254h-223z" />
<glyph unicode="&#xc6;" horiz-adv-x="1695" d="M43 0v16q10 10 26.5 27.5t20.5 38.5l70 240l-2 16q0 18 -6.5 31.5t-13.5 26t-15 24.5t-12 29q-4 8 -5 19l-2 11h101l190 668l-100 143h393l238 -762v576q0 4 -6.5 18.5t-10.5 22.5l-80 145h799v-192l-80 82h-303v-351h350l-79 -122h-271v-584h287l113 123v-246h-1061 l34 43q2 4 11.5 18.5t21 32t20.5 32.5t11 19q0 2 1 9.5t1 11.5t-1 11t-1 9l-51 181h-322l-26 -21l-56 -211l101 -135h-285zM319 489h273l-117 412l-16 41l-3 2t-7 2q-2 0 -1 -1l3 -3z" />
<glyph unicode="&#xc7;" horiz-adv-x="927" d="M51 260q0 -78 17.5 -128t42 -79.5t49 -41t39.5 -11.5h270v-123h-127v-123h223v246h260v246l-110 -123h-305q-16 10 -30.5 42t-25.5 99v762q6 49 17.5 79t23 45t22.5 21.5t17 8.5h168q18 -18 33.5 -43t26.5 -43l147 -342l12 -13q4 29 13.5 100.5t19.5 151.5t19.5 151.5 t11.5 102.5q0 14 -19 39l-26 6h-641q-14 0 -39 -11t-49.5 -41t-42 -80t-17.5 -128v-770z" />
<glyph unicode="&#xc8;" horiz-adv-x="909" d="M43 1290h799v-192l-80 82h-303v-351h350l-80 -122h-270v-584h286l113 123v-246h-803q0 16 4 20l64 103q4 6 10 21.5t6 19.5v940q0 4 -6 18.5t-10 22.5zM262 1686h240l98 -254h-223z" />
<glyph unicode="&#xc9;" horiz-adv-x="909" d="M43 1290h799v-192l-80 82h-303v-351h350l-80 -122h-270v-584h286l113 123v-246h-803q0 16 4 20l64 103q4 6 10 21.5t6 19.5v940q0 4 -6 18.5t-10 22.5zM293 1432l98 254h240l-115 -254h-223z" />
<glyph unicode="&#xca;" horiz-adv-x="909" d="M43 1290h799v-192l-80 82h-303v-351h350l-80 -122h-270v-584h286l113 123v-246h-803q0 16 4 20l64 103q4 6 10 21.5t6 19.5v940q0 4 -6 18.5t-10 22.5zM176 1434l98 254h361l96 -254h-223l-57 129l-52 -129h-223z" />
<glyph unicode="&#xcb;" horiz-adv-x="909" d="M43 1290h799v-192l-80 82h-303v-351h350l-80 -122h-270v-584h286l113 123v-246h-803q0 16 4 20l64 103q4 6 10 21.5t6 19.5v940q0 4 -6 18.5t-10 22.5zM176 1434v254h223v-254h-223zM508 1434v254h223v-254h-223z" />
<glyph unicode="&#xcc;" horiz-adv-x="544" d="M41 1290h459q0 -4 -4 -20l-2 -2q-4 -8 -12.5 -25.5t-17.5 -37t-18.5 -36t-13.5 -22.5v-1024q0 -4 5 -19.5t9 -21.5l50 -82h-449l47 82q4 6 10.5 21.5t6.5 19.5v1024q-4 6 -13.5 22.5t-19.5 36t-19.5 37t-11.5 25.5v2q-2 4 -4 10t-2 10zM90 1688h240l100 -254h-223z" />
<glyph unicode="&#xcd;" horiz-adv-x="544" d="M43 1290h459q0 -4 -2 -10t-2 -10l-2 -2q-4 -8 -13.5 -25.5t-18.5 -37t-18.5 -36t-13.5 -22.5v-1024q0 -4 6 -19.5t11 -21.5l49 -82h-451l49 82q4 6 10.5 21.5t6.5 19.5v1024q-4 6 -13.5 22.5t-19.5 36t-19.5 37t-11.5 25.5l-2 2q0 4 -2 10t-2 10zM113 1434l100 254h240 l-115 -254h-225z" />
<glyph unicode="&#xce;" horiz-adv-x="544" d="M-8 1432l98 254h361l98 -254h-225l-58 129l-51 -129h-223zM43 1290h459q0 -4 -2 -10t-2 -10l-2 -2q-4 -8 -13.5 -25.5t-18.5 -37t-18.5 -36t-13.5 -22.5v-1024q0 -4 6 -19.5t11 -21.5l49 -82h-451l49 82q4 6 10.5 21.5t6.5 19.5v1024q-4 6 -13.5 22.5t-19.5 36t-19.5 37 t-11.5 25.5l-2 2q0 4 -2 10t-2 10z" />
<glyph unicode="&#xcf;" horiz-adv-x="544" d="M-6 1432v254h223v-254h-223zM43 1290h459q0 -4 -2 -10t-2 -10l-2 -2q-4 -8 -13.5 -25.5t-18.5 -37t-18.5 -36t-13.5 -22.5v-1024q0 -4 6 -19.5t11 -21.5l49 -82h-451l49 82q4 6 10.5 21.5t6.5 19.5v1024q-4 6 -13.5 22.5t-19.5 36t-19.5 37t-11.5 25.5l-2 2q0 4 -2 10 t-2 10zM326 1432v254h223v-254h-223z" />
<glyph unicode="&#xd0;" horiz-adv-x="1142" d="M51 705v124h96v297q0 4 -6 19.5t-10 21.5l-80 123h1041v-626q0 -18 -2.5 -33t-16.5 -37q-18 -37 -55 -104.5t-75 -135t-69.5 -123t-39.5 -67.5q-14 -23 -36 -51.5t-47.5 -53t-53 -42t-54.5 -17.5h-496v705h-96zM467 123h16l320 573v471h-336v-338h190l-79 -124h-111v-582 z" />
<glyph unicode="&#xd1;" horiz-adv-x="1056" d="M43 1290h332l250 -461v461h389q-10 -23 -25.5 -59.5t-44.5 -83.5v-1024l64 -123h-199l-377 707v-707h-385l49 82q4 6 10.5 21.5t6.5 19.5v1024q-4 6 -13.5 22.5t-20.5 38t-21.5 44t-14.5 38.5zM233 1434l76 252h275l45 -130l35 130h172l-78 -252h-275l-41 129l-39 -129 h-170z" />
<glyph unicode="&#xd2;" horiz-adv-x="962" d="M49 260v770q0 78 17.5 128t42 80t49 41t41.5 11h563q14 0 39.5 -11t50.5 -41t42 -80t17 -128v-770q0 -78 -17 -128t-42 -79.5t-50.5 -41t-39.5 -11.5h-563q-16 0 -41 11.5t-49.5 41t-42 79.5t-17.5 128zM293 1686h239l99 -254h-223zM352 264q8 -49 19.5 -78.5t21.5 -46 t20.5 -21.5t18.5 -7h94q8 2 19.5 8t23 21.5t21.5 45t16 78.5v762q-6 49 -16 79t-21.5 45t-22.5 21.5t-20 8.5h-94q-8 -2 -18.5 -7.5t-20.5 -21.5t-21.5 -46t-19.5 -79v-762z" />
<glyph unicode="&#xd3;" horiz-adv-x="962" d="M51 260v770q0 78 17.5 128t42 80t49 41t39.5 11h565q14 0 38.5 -11t49.5 -41t42 -80t17 -128v-770q0 -78 -17 -128t-42 -79.5t-49.5 -41t-38.5 -11.5h-565q-14 0 -39 11.5t-49.5 41t-42 79.5t-17.5 128zM330 1432l100 254h240l-115 -254h-225zM354 264q6 -49 17.5 -78.5 t23 -45t22.5 -21.5t17 -8h94q8 2 18.5 8t22 21.5t21.5 45t18 78.5v762q-8 49 -18 79t-21.5 45t-21.5 21.5t-19 8.5h-94q-6 -2 -17 -8.5t-22.5 -21.5t-23 -45t-17.5 -79v-762z" />
<glyph unicode="&#xd4;" horiz-adv-x="962" d="M51 260v770q0 78 17.5 128t42 80t49 41t39.5 11h565q14 0 38.5 -11t49.5 -41t42 -80t17 -128v-770q0 -78 -17 -128t-42 -79.5t-49.5 -41t-38.5 -11.5h-565q-14 0 -39 11.5t-49.5 41t-42 79.5t-17.5 128zM209 1434l100 254h359l98 -254h-225l-58 129l-51 -129h-223z M354 264q6 -49 17.5 -78.5t23 -45t22.5 -21.5t17 -8h94q8 2 18.5 8t22 21.5t21.5 45t18 78.5v762q-8 49 -18 79t-21.5 45t-21.5 21.5t-19 8.5h-94q-6 -2 -17 -8.5t-22.5 -21.5t-23 -45t-17.5 -79v-762z" />
<glyph unicode="&#xd5;" horiz-adv-x="962" d="M51 260v770q0 78 17.5 128t42 80t49 41t39.5 11h565q14 0 38.5 -11t49.5 -41t42 -80t17 -128v-770q0 -78 -17 -128t-42 -79.5t-49.5 -41t-38.5 -11.5h-565q-14 0 -39 11.5t-49.5 41t-42 79.5t-17.5 128zM184 1436l76 252h275l45 -129l36 129h172l-79 -252h-273l-41 129 l-39 -129h-172zM354 264q6 -49 17.5 -78.5t23 -45t22.5 -21.5t17 -8h94q8 2 18.5 8t22 21.5t21.5 45t18 78.5v762q-8 49 -18 79t-21.5 45t-21.5 21.5t-19 8.5h-94q-6 -2 -17 -8.5t-22.5 -21.5t-23 -45t-17.5 -79v-762z" />
<glyph unicode="&#xd6;" horiz-adv-x="962" d="M51 260v770q0 78 17.5 128t42 80t49 41t39.5 11h565q14 0 38.5 -11t49.5 -41t42 -80t17 -128v-770q0 -78 -17 -128t-42 -79.5t-49.5 -41t-38.5 -11.5h-565q-14 0 -39 11.5t-49.5 41t-42 79.5t-17.5 128zM207 1432v254h225v-254h-225zM354 264q6 -49 17.5 -78.5t23 -45 t22.5 -21.5t17 -8h94q8 2 18.5 8t22 21.5t21.5 45t18 78.5v762q-8 49 -18 79t-21.5 45t-21.5 21.5t-19 8.5h-94q-6 -2 -17 -8.5t-22.5 -21.5t-23 -45t-17.5 -79v-762zM541 1432v254h223v-254h-223z" />
<glyph unicode="&#xd7;" horiz-adv-x="417" d="M51 651l90 117l-90 117l68 86l90 -117l92 117l66 -86l-91 -117l91 -117l-66 -86l-92 117l-90 -117z" />
<glyph unicode="&#xd8;" horiz-adv-x="962" d="M51 260q0 -78 17.5 -128t42 -79.5t49 -41t39.5 -11.5h565q14 0 38.5 11.5t49.5 41t42 79.5t17 128v770q0 78 -17 128t-42 80t-49.5 41t-38.5 11h-565q-14 0 -39 -11t-49.5 -41t-42 -80t-17.5 -128v-770zM354 264v92l254 416v-508q-8 -49 -18 -78.5t-21.5 -45t-22 -21.5 t-18.5 -8h-94q-6 2 -17 8t-22.5 21.5t-23 45t-17.5 78.5zM354 539v487q6 49 17.5 79t23 45t22.5 21.5t17 8.5h94q8 -2 18.5 -8.5t22 -21.5t21.5 -45t18 -79v-86z" />
<glyph unicode="&#xd9;" horiz-adv-x="1028" d="M43 1290h389v-1026q8 -49 19.5 -78.5t21.5 -46t20.5 -21.5t18.5 -7h4q6 2 17.5 8t22.5 21.5t22.5 45t17.5 78.5v1026h389l-86 -141v-889q0 -78 -17.5 -128t-42 -79.5t-49 -41t-38.5 -11.5h-473q-16 0 -41 11.5t-49.5 41t-42 79.5t-17.5 128v889zM330 1688h239l101 -254 h-224z" />
<glyph unicode="&#xda;" horiz-adv-x="1028" d="M43 1290h389v-1026q6 -49 17.5 -78.5t22.5 -45t22.5 -21.5t17.5 -8h4q8 2 18.5 8t21.5 21.5t21.5 45t18.5 78.5v1026h389l-86 -141v-889q0 -78 -17.5 -128t-42 -79.5t-49 -41t-38.5 -11.5h-473q-16 0 -41 11.5t-49.5 41t-42 79.5t-17.5 128v889zM358 1434l101 254h239 l-114 -254h-226z" />
<glyph unicode="&#xdb;" horiz-adv-x="1028" d="M43 1290h389v-1026q6 -49 17.5 -78.5t22.5 -45t22.5 -21.5t17.5 -8h4q8 2 18.5 8t21.5 21.5t21.5 45t18.5 78.5v1026h389l-86 -141v-889q0 -78 -17.5 -128t-42 -79.5t-49 -41t-38.5 -11.5h-473q-16 0 -41 11.5t-49.5 41t-42 79.5t-17.5 128v889zM236 1434l100 254h358 l99 -254h-224l-57 129l-51 -129h-225z" />
<glyph unicode="&#xdc;" horiz-adv-x="1028" d="M43 1290h389v-1026q6 -49 17.5 -78.5t22.5 -45t22.5 -21.5t17.5 -8h4q8 2 18.5 8t21.5 21.5t21.5 45t18.5 78.5v1026h389l-86 -141v-889q0 -78 -17.5 -128t-42 -79.5t-49 -41t-38.5 -11.5h-473q-16 0 -41 11.5t-49.5 41t-42 79.5t-17.5 128v889zM236 1434v254h225v-254 h-225zM569 1434v254h224v-254h-224z" />
<glyph unicode="&#xdd;" horiz-adv-x="1122" d="M43 1290h500l-33 -20q-4 -4 -13.5 -12.5t-19.5 -16.5t-19 -16t-12 -11l-1 -3t-1 -5q0 -4 1 -7l1 -3l181 -338l229 352l-98 80h319v-8q-18 -10 -28.5 -16t-16.5 -17l-334 -508v-741h-368l49 82q4 6 10 21.5t6 19.5v502zM428 1434l98 254h240l-115 -254h-223z" />
<glyph unicode="&#xde;" horiz-adv-x="1013" d="M43 1290h371v-307h520q18 0 26.5 -28.5t8.5 -51.5v-12q-6 -27 -23.5 -76t-42 -105.5t-53.5 -115.5t-58.5 -106.5t-59.5 -78t-54 -30.5h-264v-379h-367l49 82q4 4 8.5 14t8.5 19v1032q-4 6 -13.5 22.5t-19.5 36t-19.5 37t-11.5 25.5l-2 2q0 4 -2 10t-2 10zM422 492 q20 14 50 54t62.5 95t62.5 117.5t50 122.5h-225v-389z" />
<glyph unicode="&#xdf;" horiz-adv-x="1202" d="M-10 -248h383v1356l86 57h299v-20q0 -8 -19.5 -41t-48 -77t-64.5 -95t-69 -98.5t-58.5 -84t-35.5 -53.5h407l-319 -573h-86v-123h246q27 0 54.5 17.5t53 42t48 53t36.5 51.5q6 12 38 67.5t70 123t75.5 135t56.5 104.5q12 23 14 37t2 33v32q0 39 -10 63.5t-28.5 38 t-42 17.5t-50.5 4h-110v21q8 14 28.5 51t44 79t44 79.5t28.5 54.5q12 25 14 35t2 37q0 14 -4 34.5t-13 38t-21.5 29.5t-26.5 12h-754l-207 -143v-1272q0 -4 -6 -19.5t-10 -21.5z" />
<glyph unicode="&#xe0;" d="M43 0v16l2 2q10 10 25.5 27.5t19.5 36.5l70 240l-2 16q0 18 -6.5 31.5t-13.5 26t-15 24.5t-12 29q-4 8 -5 19l-2 11h101l190 668l-100 143h393l402 -1290h-506l34 43q2 4 11.5 18.5t21 32t20.5 32.5t11 19q0 2 1 9.5t1 11.5t-1 11t-1 9l-51 181h-322l-26 -21l-56 -211 l101 -135h-285zM319 489h273l-117 412l-16 41l-3 2t-7 2q-2 0 -1 -1l3 -3zM352 1686h240l100 -254h-223z" />
<glyph unicode="&#xe1;" d="M43 0v16l2 2q10 10 25.5 27.5t19.5 36.5l70 240l-2 16q0 18 -6.5 31.5t-13.5 26t-15 24.5t-12 29q-4 8 -5 19l-2 11h101l190 668l-100 143h393l402 -1290h-506l34 43q2 4 11.5 18.5t21 32t20.5 32.5t11 19q0 2 1 9.5t1 11.5t-1 11t-1 9l-51 181h-322l-26 -21l-56 -211 l101 -135h-285zM319 489h273l-117 412l-16 41l-3 2t-7 2q-2 0 -1 -1l3 -3zM393 1434l99 254h239l-115 -254h-223z" />
<glyph unicode="&#xe2;" d="M43 0v16l2 2q10 10 25.5 27.5t19.5 36.5l70 240l-2 16q0 18 -6.5 31.5t-13.5 26t-15 24.5t-12 29q-4 8 -5 19l-2 11h101l190 668l-100 143h393l402 -1290h-506l34 43q2 4 11.5 18.5t21 32t20.5 32.5t11 19q0 2 1 9.5t1 11.5t-1 11t-1 9l-51 181h-322l-26 -21l-56 -211 l101 -135h-285zM266 1434l101 254h358l98 -254h-225l-57 129l-52 -129h-223zM319 489h273l-117 412l-16 41l-3 2t-7 2q-2 0 -1 -1l3 -3z" />
<glyph unicode="&#xe3;" d="M43 0v16l2 2q10 10 25.5 27.5t19.5 36.5l70 240l-2 16q0 18 -6.5 31.5t-13.5 26t-15 24.5t-12 29q-4 8 -5 19l-2 11h101l190 668l-100 143h393l402 -1290h-506l34 43q2 4 11.5 18.5t21 32t20.5 32.5t11 19q0 2 1 9.5t1 11.5t-1 11t-1 9l-51 181h-322l-26 -21l-56 -211 l101 -135h-285zM242 1432l73 251h277l43 -129l37 129h172l-78 -251h-274l-41 129l-39 -129h-170zM319 489h273l-117 412l-16 41l-3 2t-7 2q-2 0 -1 -1l3 -3z" />
<glyph unicode="&#xe4;" d="M43 0v16l2 2q10 10 25.5 27.5t19.5 36.5l70 240l-2 16q0 18 -6.5 31.5t-13.5 26t-15 24.5t-12 29q-4 8 -5 19l-2 11h101l190 668l-100 143h393l402 -1290h-506l34 43q2 4 11.5 18.5t21 32t20.5 32.5t11 19q0 2 1 9.5t1 11.5t-1 11t-1 9l-51 181h-322l-26 -21l-56 -211 l101 -135h-285zM260 1434v254h223v-254h-223zM319 489h273l-117 412l-16 41l-3 2t-7 2q-2 0 -1 -1l3 -3zM592 1434v254h225v-254h-225z" />
<glyph unicode="&#xe5;" d="M43 0v16l2 2q10 10 25.5 27.5t19.5 36.5l70 240l-2 16q0 18 -6.5 31.5t-13.5 26t-15 24.5t-12 29q-4 8 -5 19l-2 11h101l190 668l-100 143h393l402 -1290h-506l34 43q2 4 11.5 18.5t21 32t20.5 32.5t11 19q0 2 1 9.5t1 11.5t-1 11t-1 9l-51 181h-322l-26 -21l-56 -211 l101 -135h-285zM319 489h273l-117 412l-16 41l-3 2t-7 2q-2 0 -1 -1l3 -3zM428 1434v254h223v-254h-223z" />
<glyph unicode="&#xe6;" horiz-adv-x="1695" d="M43 0v16q10 10 26.5 27.5t20.5 38.5l70 240l-2 16q0 18 -6.5 31.5t-13.5 26t-15 24.5t-12 29q-4 8 -5 19l-2 11h101l190 668l-100 143h393l238 -762v576q0 4 -6.5 18.5t-10.5 22.5l-80 145h799v-192l-80 82h-303v-351h350l-79 -122h-271v-584h287l113 123v-246h-1061 l34 43q2 4 11.5 18.5t21 32t20.5 32.5t11 19q0 2 1 9.5t1 11.5t-1 11t-1 9l-51 181h-322l-26 -21l-56 -211l101 -135h-285zM319 489h273l-117 412l-16 41l-3 2t-7 2q-2 0 -1 -1l3 -3z" />
<glyph unicode="&#xe7;" horiz-adv-x="933" d="M43 664q0 -18 2 -33t16 -37q18 -37 55.5 -104.5l75 -135t69.5 -123t40 -67.5q14 -23 35.5 -51.5t47.5 -53t53.5 -42t54.5 -17.5h2v-117h-127v-123h223v240h258v246l-111 -123h-86q-98 135 -178 274.5t-141 298.5q16 111 47 225.5t76 245.5l18 2h143q16 -20 28.5 -38.5 t23.5 -36.5l147 -342l12 -13q4 29 13.5 100.5t19.5 151.5t19.5 151.5t11.5 102.5q0 4 -5 17.5t-16 23.5l-26 4h-629q-8 -2 -23.5 -39t-35 -93t-39 -123.5t-37 -133t-27.5 -121t-10 -84.5v-32z" />
<glyph unicode="&#xe8;" horiz-adv-x="909" d="M43 1290h799v-192l-80 82h-303v-351h350l-80 -122h-270v-584h286l113 123v-246h-803q0 16 4 20l64 103q4 6 10 21.5t6 19.5v940q0 4 -6 18.5t-10 22.5zM262 1686h240l98 -254h-223z" />
<glyph unicode="&#xe9;" horiz-adv-x="909" d="M43 1290h799v-192l-80 82h-303v-351h350l-80 -122h-270v-584h286l113 123v-246h-803q0 16 4 20l64 103q4 6 10 21.5t6 19.5v940q0 4 -6 18.5t-10 22.5zM293 1432l98 254h240l-115 -254h-223z" />
<glyph unicode="&#xea;" horiz-adv-x="909" d="M43 1290h799v-192l-80 82h-303v-351h350l-80 -122h-270v-584h286l113 123v-246h-803q0 16 4 20l64 103q4 6 10 21.5t6 19.5v940q0 4 -6 18.5t-10 22.5zM176 1434l98 254h361l96 -254h-223l-57 129l-52 -129h-223z" />
<glyph unicode="&#xeb;" horiz-adv-x="909" d="M43 1290h799v-192l-80 82h-303v-351h350l-80 -122h-270v-584h286l113 123v-246h-803q0 16 4 20l64 103q4 6 10 21.5t6 19.5v940q0 4 -6 18.5t-10 22.5zM176 1434v254h223v-254h-223zM508 1434v254h223v-254h-223z" />
<glyph unicode="&#xec;" horiz-adv-x="489" d="M-14 1434v254h223v-254h-223zM51 1290h387v-1290h-383l49 82q4 6 9.5 21.5t5.5 19.5v1024q-4 6 -13.5 22.5t-19.5 36t-18.5 37t-10.5 25.5l-2 2q0 4 -2 10t-2 10zM317 1434v254h224v-254h-224z" />
<glyph unicode="&#xed;" horiz-adv-x="489" d="M51 1290h387v-1290h-383l49 82q4 6 9.5 21.5t5.5 19.5v1024q-4 6 -13.5 22.5t-19.5 36t-18.5 37t-10.5 25.5l-2 2q0 4 -2 10t-2 10zM113 1434l100 254h240l-115 -254h-225z" />
<glyph unicode="&#xee;" horiz-adv-x="489" d="M-12 1432l98 254h360l97 -254h-224l-57 129l-51 -129h-223zM51 1290h387v-1290h-383l49 82q4 6 9.5 21.5t5.5 19.5v1024q-4 6 -13.5 22.5t-19.5 36t-18.5 37t-10.5 25.5l-2 2q0 4 -2 10t-2 10z" />
<glyph unicode="&#xef;" horiz-adv-x="489" d="M-14 1434v254h223v-254h-223zM51 1290h387v-1290h-383l49 82q4 6 9.5 21.5t5.5 19.5v1024q-4 6 -13.5 22.5t-19.5 36t-18.5 37t-10.5 25.5l-2 2q0 4 -2 10t-2 10zM317 1434v254h224v-254h-224z" />
<glyph unicode="&#xf0;" horiz-adv-x="1028" d="M43 668l20 -47q82 -186 163 -348t167 -273h144q41 0 83 37t74 78l2 2q10 12 18.5 24.5t14.5 22.5q6 12 38 67.5t69.5 123t75.5 135t57 104.5q12 23 14 37t2 33v32q0 29 -11 84.5t-27.5 121t-37 134t-41 123.5t-36 92t-23.5 39h-633l-20 -6q-10 -10 -14.5 -22.5 t-4.5 -16.5q2 -31 11.5 -102.5t19.5 -151.5t19.5 -151.5t13.5 -100.5l14 13l145 342q10 20 23.5 38.5t28.5 36.5h143l20 -2q45 -131 75 -245.5t46 -225.5l-10 -28h-643zM379 547h250q-35 -61 -69 -120.5t-62 -107.5z" />
<glyph unicode="&#xf1;" horiz-adv-x="1060" d="M43 1290h254l328 -481v481h393q0 -4 -4 -10t-6 -10l-2 -2q-4 -8 -12.5 -25.5t-17.5 -37t-18.5 -36t-13.5 -22.5v-1219l-512 779v-707h-385l49 82q4 6 10.5 21.5t6.5 19.5v1024q-4 6 -13.5 22.5t-20.5 38t-21.5 44t-14.5 38.5zM233 1434l76 252h275l45 -130l35 130h172 l-78 -252h-275l-41 129l-39 -129h-170z" />
<glyph unicode="&#xf2;" horiz-adv-x="1128" d="M43 664v32q0 29 8 85.5t21.5 122t31 134t33 125t29.5 92t22 35.5h752q8 0 22.5 -35.5t30 -92t32.5 -125t30.5 -134t21.5 -122t8 -85.5v-32q0 -18 -2 -33t-16 -37q-18 -37 -56 -104.5l-76 -135t-69.5 -123t-38.5 -67.5q-14 -23 -35.5 -51.5t-47 -53t-54 -42t-55.5 -17.5 h-143q-27 0 -54.5 17.5t-53.5 42t-47.5 53t-35.5 51.5q-8 12 -40 67.5t-69.5 123t-74.5 135t-56 104.5q-14 23 -16 37t-2 33zM332 696l231 -415l232 415q-16 111 -41 226.5t-70 246.5h-240q-45 -131 -70.5 -246.5t-41.5 -226.5zM375 1686h239l101 -254h-226z" />
<glyph unicode="&#xf3;" horiz-adv-x="1128" d="M43 664v32q0 29 8 85.5t21.5 122t31 134t33 125t29.5 92t22 35.5h752q8 0 22.5 -35.5t30 -92t32.5 -125t30.5 -134t21.5 -122t8 -85.5v-32q0 -18 -2 -33t-16 -37q-18 -37 -56 -104.5l-76 -135t-69.5 -123t-38.5 -67.5q-14 -23 -35.5 -51.5t-47 -53t-54 -42t-55.5 -17.5 h-143q-27 0 -54.5 17.5t-53.5 42t-47.5 53t-35.5 51.5q-8 12 -40 67.5t-69.5 123t-74.5 135t-56 104.5q-14 23 -16 37t-2 33zM332 696l231 -415l232 415q-16 111 -41 226.5t-70 246.5h-240q-45 -131 -70.5 -246.5t-41.5 -226.5zM414 1432l98 254h240l-115 -254h-223z" />
<glyph unicode="&#xf4;" horiz-adv-x="1128" d="M43 664v32q0 29 8 85.5t21.5 122t31 134t33 125t29.5 92t22 35.5h752q8 0 22.5 -35.5t30 -92t32.5 -125t30.5 -134t21.5 -122t8 -85.5v-32q0 -18 -2 -33t-16 -37q-18 -37 -56 -104.5l-76 -135t-69.5 -123t-38.5 -67.5q-14 -23 -35.5 -51.5t-47 -53t-54 -42t-55.5 -17.5 h-143q-27 0 -54.5 17.5t-53.5 42t-47.5 53t-35.5 51.5q-8 12 -40 67.5t-69.5 123t-74.5 135t-56 104.5q-14 23 -16 37t-2 33zM289 1434l100 254h359l98 -254h-225l-58 129l-51 -129h-223zM332 696l231 -415l232 415q-16 111 -41 226.5t-70 246.5h-240q-45 -131 -70.5 -246.5 t-41.5 -226.5z" />
<glyph unicode="&#xf5;" horiz-adv-x="1128" d="M43 664v32q0 29 8 85.5t21.5 122t31 134t33 125t29.5 92t22 35.5h752q8 0 22.5 -35.5t30 -92t32.5 -125t30.5 -134t21.5 -122t8 -85.5v-32q0 -18 -2 -33t-16 -37q-18 -37 -56 -104.5l-76 -135t-69.5 -123t-38.5 -67.5q-14 -23 -35.5 -51.5t-47 -53t-54 -42t-55.5 -17.5 h-143q-27 0 -54.5 17.5t-53.5 42t-47.5 53t-35.5 51.5q-8 12 -40 67.5t-69.5 123t-74.5 135t-56 104.5q-14 23 -16 37t-2 33zM276 1434l76 252h275l45 -130l37 130h170l-78 -252h-275l-41 129l-39 -129h-170zM332 696l231 -415l232 415q-16 111 -41 226.5t-70 246.5h-240 q-45 -131 -70.5 -246.5t-41.5 -226.5z" />
<glyph unicode="&#xf6;" horiz-adv-x="1128" d="M43 664v32q0 29 8 85.5t21.5 122t31 134t33 125t29.5 92t22 35.5h752q8 0 22.5 -35.5t30 -92t32.5 -125t30.5 -134t21.5 -122t8 -85.5v-32q0 -18 -2 -33t-16 -37q-18 -37 -56 -104.5l-76 -135t-69.5 -123t-38.5 -67.5q-14 -23 -35.5 -51.5t-47 -53t-54 -42t-55.5 -17.5 h-143q-27 0 -54.5 17.5t-53.5 42t-47.5 53t-35.5 51.5q-8 12 -40 67.5t-69.5 123t-74.5 135t-56 104.5q-14 23 -16 37t-2 33zM289 1432v254h223v-254h-223zM332 696l231 -415l232 415q-16 111 -41 226.5t-70 246.5h-240q-45 -131 -70.5 -246.5t-41.5 -226.5zM621 1432v254 h225v-254h-225z" />
<glyph unicode="&#xf7;" horiz-adv-x="602" d="M43 707v122h516l-80 -122h-436zM182 899v254h224v-254h-224zM184 383v254h224v-254h-224z" />
<glyph unicode="&#xf8;" horiz-adv-x="1128" d="M43 664q0 -18 2 -33t16 -37q18 -37 55.5 -104.5l75 -135t69.5 -123t40 -67.5q14 -23 35.5 -51.5t47.5 -53t53.5 -42t54.5 -17.5h143q27 0 55.5 17.5t54 42t47 53t35.5 51.5q6 12 38 67.5t70 123l76 135t56 104.5q14 23 16 37t2 33v32q0 29 -8 85.5t-21.5 122t-30.5 134 t-32.5 125t-30 92t-22.5 35.5h-752q-8 0 -22 -35.5t-29.5 -92t-33 -125t-31 -134t-21.5 -122t-8 -85.5v-32zM332 696q16 111 41.5 226.5t70.5 246.5h240q4 -16 9 -31.5t9 -31.5l-315 -508zM449 487l294 476q18 -72 30 -136.5t22 -130.5l-232 -415z" />
<glyph unicode="&#xf9;" horiz-adv-x="1028" d="M43 1290h389v-1026q8 -49 19.5 -78.5t21.5 -46t20.5 -21.5t18.5 -7h4q6 2 17.5 8t22.5 21.5t22.5 45t17.5 78.5v1026h389l-86 -141v-889q0 -78 -17.5 -128t-42 -79.5t-49 -41t-38.5 -11.5h-473q-16 0 -41 11.5t-49.5 41t-42 79.5t-17.5 128v889zM330 1688h239l101 -254 h-224z" />
<glyph unicode="&#xfa;" horiz-adv-x="1028" d="M43 1290h389v-1026q6 -49 17.5 -78.5t22.5 -45t22.5 -21.5t17.5 -8h4q8 2 18.5 8t21.5 21.5t21.5 45t18.5 78.5v1026h389l-86 -141v-889q0 -78 -17.5 -128t-42 -79.5t-49 -41t-38.5 -11.5h-473q-16 0 -41 11.5t-49.5 41t-42 79.5t-17.5 128v889zM358 1434l101 254h239 l-114 -254h-226z" />
<glyph unicode="&#xfb;" horiz-adv-x="1028" d="M43 1290h389v-1026q6 -49 17.5 -78.5t22.5 -45t22.5 -21.5t17.5 -8h4q8 2 18.5 8t21.5 21.5t21.5 45t18.5 78.5v1026h389l-86 -141v-889q0 -78 -17.5 -128t-42 -79.5t-49 -41t-38.5 -11.5h-473q-16 0 -41 11.5t-49.5 41t-42 79.5t-17.5 128v889zM236 1434l100 254h358 l99 -254h-224l-57 129l-51 -129h-225z" />
<glyph unicode="&#xfc;" horiz-adv-x="1028" d="M43 1290h389v-1026q6 -49 17.5 -78.5t22.5 -45t22.5 -21.5t17.5 -8h4q8 2 18.5 8t21.5 21.5t21.5 45t18.5 78.5v1026h389l-86 -141v-889q0 -78 -17.5 -128t-42 -79.5t-49 -41t-38.5 -11.5h-473q-16 0 -41 11.5t-49.5 41t-42 79.5t-17.5 128v889zM236 1434v254h225v-254 h-225zM569 1434v254h224v-254h-224z" />
<glyph unicode="&#xfd;" horiz-adv-x="1122" d="M43 1290h500l-33 -20q-4 -4 -13.5 -12.5t-19.5 -16.5t-19 -16t-12 -11l-1 -3t-1 -5q0 -4 1 -7l1 -3l181 -338l229 352l-98 80h319v-8q-18 -10 -28.5 -16t-16.5 -17l-334 -508v-741h-303v625zM428 1434l98 254h240l-115 -254h-223z" />
<glyph unicode="&#xfe;" horiz-adv-x="1013" d="M43 1290h371v-307h520q18 0 26.5 -28.5t8.5 -51.5v-12q-6 -27 -23.5 -76t-42 -105.5t-53.5 -115.5t-58.5 -106.5t-59.5 -78t-54 -30.5h-264v-379h-301v1147q-4 6 -13.5 22.5t-19.5 36t-19.5 37t-11.5 25.5l-2 2q0 4 -2 10t-2 10zM422 492q20 14 50 55t62.5 96t62.5 117.5 t50 122.5h-225v-391z" />
<glyph unicode="&#xff;" horiz-adv-x="1122" d="M43 1290h500l-33 -20q-4 -4 -13.5 -12.5t-19.5 -16.5t-19 -16t-12 -11l-1 -3t-1 -5q0 -4 1 -7l1 -3l181 -338l229 352l-98 80h319v-8q-18 -10 -28.5 -16t-16.5 -17l-334 -508v-741h-303v625zM279 1434v254h225v-254h-225zM612 1434v254h224v-254h-224z" />
<glyph unicode="&#x152;" horiz-adv-x="1431" d="M51 260v770q0 78 17.5 128t42 80t49 41t39.5 11h1165v-192l-80 82h-303v-351h352l-80 -122h-272v-584h287l112 123v-246h-1181q-14 0 -39 11.5t-49.5 41t-42 79.5t-17.5 128zM354 264q10 -68 24.5 -99.5t31.5 -41.5h235q4 6 10.5 21.5t6.5 19.5v930q-10 18 -25.5 42.5 t-34.5 43.5h-168q-6 -2 -17 -8.5t-22.5 -21.5t-23 -45t-17.5 -79v-762z" />
<glyph unicode="&#x153;" horiz-adv-x="1591" d="M43 664v32q0 29 10 84.5t27.5 121t37 133t39 123.5t35 93t23.5 39h1309v-192l-80 82h-303v-351h352l-80 -122h-272v-584h286l113 123v-246h-1048q-27 0 -54.5 17.5t-53.5 42t-47.5 53t-35.5 51.5q-8 12 -40 67.5t-69.5 123t-74.5 135t-56 104.5q-14 23 -16 37t-2 33z M332 696q61 -160 141 -299t178 -274h86l84 92v530l-6 7l-147 342q-10 18 -22.5 36.5t-29.5 38.5h-143l-18 -2q-45 -131 -76 -245.5t-47 -225.5z" />
<glyph unicode="&#x178;" horiz-adv-x="1122" d="M43 1290h500l-33 -20q-4 -4 -13.5 -12.5t-19.5 -16.5t-19 -16t-12 -11l-1 -3t-1 -5q0 -4 1 -7l1 -3l181 -338l229 352l-98 80h319v-8q-18 -10 -28.5 -16t-16.5 -17l-334 -508v-741h-368l49 82q4 6 10 21.5t6 19.5v502zM279 1434v254h225v-254h-225zM612 1434v254h224 v-254h-224z" />
<glyph unicode="&#x2c6;" horiz-adv-x="643" d="M43 1036l98 254h361l96 -254h-223l-58 129l-51 -129h-223z" />
<glyph unicode="&#x2dc;" horiz-adv-x="688" d="M43 1038l76 252h274l45 -129l37 129h170l-78 -252h-272l-43 129l-37 -129h-172z" />
<glyph unicode="&#x2000;" horiz-adv-x="909" />
<glyph unicode="&#x2001;" horiz-adv-x="1819" />
<glyph unicode="&#x2002;" horiz-adv-x="909" />
<glyph unicode="&#x2003;" horiz-adv-x="1819" />
<glyph unicode="&#x2004;" horiz-adv-x="606" />
<glyph unicode="&#x2005;" horiz-adv-x="454" />
<glyph unicode="&#x2006;" horiz-adv-x="303" />
<glyph unicode="&#x2007;" horiz-adv-x="303" />
<glyph unicode="&#x2008;" horiz-adv-x="227" />
<glyph unicode="&#x2009;" horiz-adv-x="363" />
<glyph unicode="&#x200a;" horiz-adv-x="101" />
<glyph unicode="&#x2010;" horiz-adv-x="446" d="M51 707v122h352l-79 -122h-273z" />
<glyph unicode="&#x2011;" horiz-adv-x="446" d="M51 707v122h352l-79 -122h-273z" />
<glyph unicode="&#x2012;" horiz-adv-x="446" d="M51 707v122h352l-79 -122h-273z" />
<glyph unicode="&#x2013;" horiz-adv-x="438" d="M43 707h272l80 122h-352v-122z" />
<glyph unicode="&#x2014;" horiz-adv-x="602" d="M43 707h436l80 122h-516v-122z" />
<glyph unicode="&#x2018;" horiz-adv-x="325" d="M51 819v254l148 215h75v-469h-223z" />
<glyph unicode="&#x2019;" horiz-adv-x="325" d="M51 821v469h223v-254l-147 -215h-76z" />
<glyph unicode="&#x201a;" horiz-adv-x="325" d="M51 -215v469h223v-254l-147 -215h-76z" />
<glyph unicode="&#x201c;" horiz-adv-x="589" d="M49 823v254l148 215h75v-469h-223zM313 821v254l148 215h76v-469h-224z" />
<glyph unicode="&#x201d;" horiz-adv-x="589" d="M51 823v469h223v-254l-147 -215h-76zM315 821v469h224v-254l-148 -215h-76z" />
<glyph unicode="&#x201e;" horiz-adv-x="589" d="M51 -213v469h223v-254l-147 -215h-76zM315 -215v469h224v-254l-148 -215h-76z" />
<glyph unicode="&#x2022;" horiz-adv-x="548" d="M43 696l231 -415l232 415q-16 111 -41 226.5t-70 246.5h-239q-45 -131 -71 -246.5t-42 -226.5z" />
<glyph unicode="&#x2026;" horiz-adv-x="933" d="M51 0h223v254h-223v-254zM354 0h224v254h-224v-254zM657 0h226v254h-226v-254z" />
<glyph unicode="&#x202f;" horiz-adv-x="363" />
<glyph unicode="&#x2039;" horiz-adv-x="301" d="M51 532l199 -124v286l-100 74l100 66v286l-199 -127v-461z" />
<glyph unicode="&#x203a;" horiz-adv-x="301" d="M51 408v286l101 74l-101 66v286l199 -127v-461z" />
<glyph unicode="&#x205f;" horiz-adv-x="454" />
<glyph unicode="&#x20ac;" horiz-adv-x="1073" d="M51 598v123h146v100h-146v123h146v86q0 78 17 128t42 80t49.5 41t38.5 11h641l27 -6q18 -25 18 -39q-2 -31 -11 -102.5t-19.5 -151.5t-19.5 -151.5t-13 -100.5l-13 13l-147 342q-10 18 -25.5 42.5t-33.5 43.5h-168q-6 -2 -17.5 -8.5t-23 -21.5t-22.5 -45t-17 -79v-82h205 l-80 -123h-125v-100h205l-80 -123h-125v-334q10 -68 24.5 -99.5t30.5 -41.5h305l111 123v-246h-627q-14 0 -38.5 11.5t-49.5 41t-42 79.5t-17 128v338h-146z" />
<glyph unicode="&#x2122;" horiz-adv-x="843" d="M43 1163q0 70 37 116t80 81l536 426l52 33v-25v-25l-52 -753l-12 16l-166 443q-10 14 -14 16h-6h-6q-57 -25 -87 -82t-30 -131q0 -23 1 -49.5t13 -48.5l397 -705q10 -20 12.5 -43.5t2.5 -46.5q0 -70 -29 -114t-76 -74l-587 -394h-29q0 10 1 33t3 33q2 27 5 82t8 124.5 t9.5 146.5t9.5 146.5t10 123.5t9 81l12 -16l127 -491l13 -17q2 2 15 9.5t32.5 19.5t30.5 20q49 35 69.5 81t20.5 118q0 29 -1 44t-4.5 28.5t-11.5 29t-22 43.5q-12 25 -40 75t-64 113.5t-74.5 133.5t-74.5 132t-64.5 112.5t-41.5 72.5q-10 23 -12 40.5t-2 41.5z" />
<glyph unicode="&#x25fc;" horiz-adv-x="1290" d="M0 0v1290h1290v-1290h-1290z" />
</font>
</defs>
</svg>
