<?xml version="1.0" standalone="no"?>
<!DOCTYPE svg PUBLIC "-//W3C//DTD SVG 1.1//EN" "http://www.w3.org/Graphics/SVG/1.1/DTD/svg11.dtd" >
<svg xmlns="http://www.w3.org/2000/svg" xmlns:xlink="http://www.w3.org/1999/xlink" version="1.1">
<metadata>
Created by FontForge 20170731 at Fri Dec 13 16:42:12 2013
 By Aleksey,,,
2013 Iconian Font - www.iconian.com
</metadata>
<defs>
<font id="FederalEscortOutline" horiz-adv-x="753" >
  <font-face 
    font-family="Federal Escort Outline"
    font-weight="400"
    font-stretch="normal"
    units-per-em="1000"
    panose-1="0 0 0 0 0 0 0 0 0 0"
    ascent="800"
    descent="-200"
    x-height="561"
    cap-height="561"
    bbox="-57 -162 1537 794"
    underline-thickness="50"
    underline-position="-175"
    unicode-range="U+0020-2122"
  />
<missing-glyph horiz-adv-x="500" 
 />
    <glyph glyph-name=".notdef" horiz-adv-x="500" 
 />
    <glyph glyph-name=".null" horiz-adv-x="0" 
 />
    <glyph glyph-name="nonmarkingreturn" horiz-adv-x="500" 
 />
    <glyph glyph-name="space" unicode=" " horiz-adv-x="384" 
 />
    <glyph glyph-name="space" unicode="&#xa0;" horiz-adv-x="384" 
 />
    <glyph glyph-name="FL0021h" unicode="!" horiz-adv-x="305" 
d="M311 561h-280v-249l24 -101h232l24 101v249zM292 313l-20 -81h-202l-19 81v227h241v-227zM50 106q0 -23 9.5 -42t26 -33.5t38.5 -22.5t47 -8t46.5 8t38 22.5t26 33.5t9.5 42q0 22 -9.5 41t-26 33t-38 22t-46.5 8t-47 -8t-38.5 -22t-26 -33t-9.5 -41zM70 106q0 17 8 32
t22 26.5t32 18t39 6.5q20 0 38.5 -6.5t32.5 -18t22 -26.5t8 -32q0 -18 -8 -33.5t-22 -27t-32.5 -18t-38.5 -6.5q-21 0 -39 6.5t-32 18t-22 27t-8 33.5z" />
    <glyph glyph-name="FL0022h" unicode="&#x22;" horiz-adv-x="470" 
d="M267 340q0 -33 28 -56t67 -23q19 0 36 6t30 17t20.5 25t7.5 31v88q0 16 -7.5 30t-20.5 24.5t-30 16.5t-36 6q-20 0 -37 -6t-30 -16.5t-20.5 -24.5t-7.5 -30v-88zM53 339q0 -33 27.5 -56t66.5 -23q19 0 36.5 6t30.5 17t20.5 25t7.5 31v88q0 16 -7.5 30t-20.5 24.5
t-30.5 16.5t-36.5 6q-39 0 -66.5 -22.5t-27.5 -54.5v-88zM33 427q0 21 9 38.5t24 30.5t36 20.5t45 7.5q36 0 65.5 -17.5t42.5 -45.5q11 29 40 46.5t67 17.5q24 0 44.5 -7.5t36.5 -20.5t25 -30.5t9 -38.5v-88q0 -21 -9 -38.5t-25 -31t-36.5 -21t-44.5 -7.5q-37 0 -66 17
t-41 45q-13 -28 -42 -45.5t-66 -17.5q-24 0 -45 7.5t-36 21t-24 31t-9 38.5v88z" />
    <glyph glyph-name="FL0023h" unicode="#" horiz-adv-x="806" 
d="M749 561h-306v-101h-40v101h-306v-101h-63v-172h63v-15h-63v-172h63v-101h306v101h40v-101h306v101h64v172h-64v15h64v172h-64v101zM728 252h64v-131h-64v-100h-264v100h-82v-100h-264v100h-63v131h63v57h-63v131h63v100h264v-100h82v100h264v-100h64v-131h-64v-57z
M464 252v57h-82v-57h82zM403 288h40v-15h-40v15z" />
    <glyph glyph-name="FL0024h" unicode="$" horiz-adv-x="735" 
d="M316 365q0 8 5.5 15t15.5 7h383v136h-228v90h-210v-90h-100q-26 0 -49 -11t-40.5 -29t-28 -41t-10.5 -47v-58q0 -21 12 -42t30.5 -38.5t40 -28t39.5 -10.5h281v-12q0 -8 -5 -15t-15 -7h-383v-136h227v-84h210v84h100q26 0 49.5 12t41 31.5t28 42.5t10.5 46v80
q0 19 -11.5 36t-29.5 29.5t-39 19.5t-40 7h-284v13zM513 634v-90h227v-178h-100q19 -6 37 -16.5t32 -24t23 -30t9 -35.5v-80q0 -26 -12 -53t-32.5 -49t-47.5 -36.5t-58 -14.5h-79v-84h-251v84h-228v178h107q-19 7 -38 21.5t-34.5 32.5t-25 38t-9.5 40v58q0 28 12 55t32 48
t47.5 33.5t57.5 12.5h79v90h252z" />
    <glyph glyph-name="FL0025h" unicode="%" horiz-adv-x="904" 
d="M826 300h-172l242 261h-325l-151 -162v75q0 15 -6.5 30.5t-18 28t-27 20t-33.5 7.5h-215q-18 0 -33.5 -7.5t-27 -20t-18.5 -28t-7 -30.5v-137q0 -15 7.5 -29t19.5 -24.5t26.5 -17t28.5 -6.5h174l-242 -260h326l150 160v-83q0 -15 8 -29t20 -24.5t26.5 -17t28.5 -6.5h221
q15 0 30 6.5t26.5 17t19 24.5t7.5 29v137q0 15 -7 30.5t-18.5 28t-27 20t-32.5 7.5zM826 279q13 0 24.5 -6t20.5 -15t14 -20.5t5 -23.5v-137q0 -22 -19.5 -39t-42.5 -17h-221q-11 0 -22 4.5t-20 12.5t-14.5 18t-5.5 21v138l-181 -194h-267l242 260h-223q-11 0 -21.5 4.5
t-19.5 12.5t-14.5 18t-5.5 21v137q0 12 5 23.5t14 21t21 15t25 5.5h215q13 0 24.5 -5.5t20.5 -15t14 -21t5 -23.5v-129l183 195h265l-242 -261h221zM696 123q0 -6 6 -6h30q5 0 7 6v49q0 2 -1.5 5t-5.5 3h-30q-6 -2 -6 -8v-49zM207 384q0 -7 6 -7h28q6 0 7 7v48q0 2 -1.5 5.5
t-5.5 3.5h-28q-6 -2 -6 -9v-48z" />
    <glyph glyph-name="FL0026h" unicode="&#x26;" horiz-adv-x="813" 
d="M759 153v40h61v172h-471q-15 0 -15 8q0 12 14 12h326v176h-476q-40 0 -70.5 -17.5t-51.5 -43.5t-31.5 -57.5t-10.5 -58.5q0 -26 6.5 -53t23.5 -47q-18 -23 -24 -50.5t-6 -56.5t8 -60t27 -57t50.5 -43t77.5 -17h433q31 0 55 12t40.5 32.5t25 48.5t8.5 60zM738 153
q0 -28 -7.5 -52t-21 -42t-34 -28t-45.5 -10h-433q-40 0 -67 14.5t-43.5 37.5t-24 50.5t-7.5 53.5q0 29 8 58.5t32 49.5q-22 17 -30.5 45t-8.5 54q0 25 9 52.5t27 50.5t44.5 38t61.5 15h455v-134h-305q-19 0 -27 -9.5t-8 -23.5q0 -17 7.5 -23t28.5 -6h450v-130h-61v-61z
M312 188q0 -14 8 -23.5t27 -9.5h105q10 0 16 10.5t6 24.5v27h-126q-21 0 -28.5 -7t-7.5 -22zM333 188q0 8 15 8h105v-6q0 -5 -0.5 -9.5l-0.5 -4.5h-105q-14 0 -14 12z" />
    <glyph glyph-name="FL0027h" unicode="'" horiz-adv-x="244" 
d="M30 427v-87q0 -42 31.5 -70t78.5 -28q22 0 42 7.5t35 21t23.5 31t8.5 38.5v87q0 21 -8.5 39t-23.5 31t-35 20.5t-42 7.5q-23 0 -43 -7.5t-35 -20.5t-23.5 -31t-8.5 -39zM49 427q0 33 26.5 55.5t64.5 22.5q37 0 63.5 -22.5t26.5 -55.5v-87q0 -33 -26.5 -56t-63.5 -23
q-38 0 -64.5 23t-26.5 56v87z" />
    <glyph glyph-name="FL0028h" unicode="(" horiz-adv-x="396" 
d="M175 597q-25 0 -47.5 -12t-39 -30.5t-26.5 -42.5t-10 -48v-379q0 -22 10.5 -42.5t27 -36.5t37 -26t40.5 -10h209v137h-55q-19 0 -19 22v303q0 8 5 18.5t15 10.5h60v136h-207zM402 618v-177h-80v-314h74v-178h-229q-23 0 -47 11.5t-43.5 30.5t-32 43.5t-12.5 50.5v379
q0 28 11.5 55.5t31 49.5t45.5 35.5t55 13.5h227z" />
    <glyph glyph-name="FL0029h" unicode=")" horiz-adv-x="396" 
d="M52 597v-136h59q10 0 15 -10.5t5 -18.5v-303q0 -22 -19 -22h-54v-137h209q20 0 40.5 10t37 26t27 36.5t10.5 42.5v379q0 24 -10 48t-27 42.5t-39 30.5t-47 12h-207zM32 618h227q29 0 55 -13.5t45.5 -35.5t31 -49.5t11.5 -55.5v-379q0 -26 -12.5 -50.5t-32 -43.5
t-43.5 -30.5t-47 -11.5h-229v178h73v314h-79v177z" />
    <glyph glyph-name="asterisk" unicode="*" horiz-adv-x="257" 
d="M167 352l71 54l-36 32l51 10l-28 79l-41 -20l4 43h-90l4 -43l-36 22l-27 -80l44 -11l-33 -31l71 -55l22 45zM143 354l-16 -33l-107 85l24 23l-29 7l41 122l23 -14l-2 25h131l-3 -30l32 15l43 -120l-37 -7l26 -22l-108 -84z" />
    <glyph glyph-name="FL002Bh" unicode="+" horiz-adv-x="361" 
d="M281 433h-164v-84h-85v-164h85v-87h164v87h86v164h-86v84zM261 118h-125v87h-84v124h84v85h125v-85h86v-124h-86v-87z" />
    <glyph glyph-name="FL002Ch" unicode="," horiz-adv-x="260" 
d="M31 98v-89q0 -21 9 -39t25 -31t37.5 -20.5t46.5 -7.5q24 0 45.5 7.5t37 20.5t25 31t9.5 39v89q0 21 -9.5 39.5t-25 32t-37 21t-45.5 7.5q-25 0 -46.5 -7.5t-37.5 -21t-25 -32t-9 -39.5zM50 98q0 34 29 57t70 23q19 0 37 -6t31.5 -17t21.5 -25.5t8 -31.5v-89
q0 -17 -8 -31.5t-21.5 -25.5t-31.5 -17t-37 -6q-41 0 -70 23t-29 57v89z" />
    <glyph glyph-name="FL002Dh" unicode="-" horiz-adv-x="361" 
d="M32 304v-143h335v143h-335zM52 286h295v-108h-295v108z" />
    <glyph glyph-name="FL002Eh" unicode="." horiz-adv-x="260" 
d="M50 92q0 -32 29 -53t70 -21q19 0 37 5.5t31.5 15.5t21.5 23.5t8 29.5t-8 29.5t-21.5 23.5t-31.5 15.5t-37 5.5q-41 0 -70 -21t-29 -53zM31 92q0 19 9 36t25 29.5t37.5 19.5t46.5 7q24 0 45.5 -7t37 -19.5t25 -29.5t9.5 -36q0 -20 -9.5 -36.5t-25 -29t-37 -19.5t-45.5 -7
q-25 0 -46.5 7t-37.5 19.5t-25 29t-9 36.5z" />
    <glyph glyph-name="FL002Fh" unicode="/" horiz-adv-x="795" 
d="M362 0l475 561h-364l-475 -561h364zM484 540h307l-440 -519h-308z" />
    <glyph glyph-name="FL0030h" unicode="0" horiz-adv-x="734" 
d="M591 561h-409q-30 0 -57.5 -13.5t-47.5 -35t-32 -49t-12 -54.5v-275q0 -26 13 -50t34 -43t46.5 -30t49.5 -11h421q25 0 50.5 11t46 30t33.5 43t13 50v275q0 27 -12 54.5t-32 49t-47 35t-58 13.5zM591 540q26 0 49.5 -11.5t41 -30.5t27.5 -42t10 -47v-275q0 -21 -11 -41.5
t-28.5 -36.5t-39 -25.5t-43.5 -9.5h-421q-21 0 -42.5 9.5t-39.5 25.5t-29 36.5t-11 41.5v275q0 24 10.5 47t28 42t40.5 30.5t49 11.5h409zM315 177q1 -5 5.5 -13.5t16.5 -8.5h100q6 0 12.5 8.5t8.5 13.5v198q0 8 -5 19.5t-16 11.5h-102q-10 -2 -15 -12.5t-5 -18.5v-198z
M336 178v197q0 8 2 10h99v-203q0 -2 -1 -3t-1 -2v1q-1 -1 -1 -2v0h-97q-1 0 -1 2z" />
    <glyph glyph-name="FL0031h" unicode="1" horiz-adv-x="418" 
d="M153 21h251v519h-352v-134h101v-385zM424 0h-291v385h-101v176h392v-561z" />
    <glyph glyph-name="FL0032h" unicode="2" horiz-adv-x="735" 
d="M54 21h666v134h-403v61h281q19 0 40.5 10.5t39.5 27t30 37.5t12 42v81q0 24 -10.5 46.5t-28 40t-40.5 28.5t-49 11h-537v-134h383q10 0 15 -10.5t5 -18.5v-30h-284q-19 0 -40 -7t-39 -19t-29.5 -28.5t-11.5 -35.5v-236zM33 0v257q0 24 14 44t35 35t46 23.5t46 8.5h264v17
h-404v176h558q30 0 57.5 -12.5t47.5 -33t32 -47t12 -54.5v-81q0 -24 -14.5 -48.5t-36 -44.5t-46.5 -32.5t-46 -12.5h-260v-19h403v-176h-708z" />
    <glyph glyph-name="FL0033h" unicode="3" horiz-adv-x="692" 
d="M386 365h-353v-169h354q14 0 14 -8q0 -12 -13 -12h-355v-176h503q46 0 77 17t50 43t27 57t8 60t-6.5 56.5t-24.5 50.5q17 20 23.5 47t6.5 53q0 27 -10.5 58.5t-31 57.5t-50.5 43.5t-70 17.5h-502v-176h354q13 0 13 -12q0 -8 -14 -8zM386 344q20 0 27.5 6t7.5 23
q0 14 -7.5 23.5t-26.5 9.5h-333v134h481q34 0 60.5 -15t44.5 -38t27 -50.5t9 -52.5q0 -26 -8.5 -54t-29.5 -45q23 -20 31 -49.5t8 -58.5q0 -26 -7 -53.5t-23.5 -50.5t-43.5 -37.5t-67 -14.5h-482v134h334q19 0 26.5 9.5t7.5 23.5q0 15 -7.5 22t-27.5 7h-333v127h332z" />
    <glyph glyph-name="FL0034h" unicode="4" horiz-adv-x="893" 
d="M476 247v52l-40 -52h40zM472 331q3 5 5 6.5t8 1.5q2 -1 3.5 -2t3.5 -2q2 -2 3.5 -2.5t1.5 -1.5v-104h-102zM55 186v-90h442v-75h264v75h118v131h-118v313h-392q-9 0 -20 -6t-21.5 -14.5t-18.5 -17t-11 -13.5zM34 194l245 307l1 1q5 6 14.5 16t22 19.5t26 16.5t26.5 7h413
v-314h118v-171h-118v-76h-306v76h-442v118z" />
    <glyph glyph-name="FL0035h" unicode="5" horiz-adv-x="735" 
d="M741 150v107q0 24 -14 44t-35 35t-45.5 23.5t-46.5 8.5h-263v17h403v176h-707v-228q0 -24 14.5 -48.5t36 -44.5t46.5 -32.5t46 -12.5h261v-19h-404v-176h558q31 0 58 14t47.5 36t32.5 48.5t12 51.5zM720 150q0 -22 -10.5 -45t-28 -41.5t-41 -30.5t-49.5 -12h-537v134h383
q10 0 15 10.5t5 18.5v32h-281q-18 0 -39.5 10.5t-40 27t-30.5 37.5t-12 42v207h666v-134h-404v-59h284q19 0 40 -7t39 -19t29.5 -28.5t11.5 -35.5v-107z" />
    <glyph glyph-name="FL0036h" unicode="6" 
d="M339 179q0 -1 0.5 -1.5t0.5 -1.5h112q0 -1 2 3q0 2 2 4v13h-118v-16zM338 155q-9 0 -13 5t-6 11q-1 2 -1 3t-1 3v40h160v-40q0 -2 -2 -4v1q-3 -5 -7.5 -12t-12.5 -7h-117zM738 255q0 19 -12 37t-30 31.5t-39.5 21.5t-40.5 8h-299v21h-4l4 4v-1q0 8 5 18.5t16 10.5h398
v134h-553q-26 0 -49.5 -11.5t-41 -30.5t-28 -42t-10.5 -47v-275q0 -21 11 -41.5t29 -36t40 -25.5t43 -10h439q22 0 43.5 9.5t39 25.5t28.5 36.5t11 41.5v121zM759 134q0 -26 -13 -50t-33.5 -43t-46 -30t-50.5 -11h-439q-25 0 -50.5 12t-46.5 31t-34 43t-13 48v275
q0 27 12 54.5t32.5 49t47.5 35t58 13.5h574v-176h-419v-12h278q22 0 47 -9.5t46.5 -25.5t35.5 -37.5t14 -45.5v-121z" />
    <glyph glyph-name="FL0037h" unicode="7" horiz-adv-x="782" 
d="M90 0h363l335 398v163h-755v-176h381zM461 406h-407v134h713v-134l-324 -385h-308z" />
    <glyph glyph-name="FL0038h" unicode="8" horiz-adv-x="736" 
d="M580 561h-385q-39 0 -69.5 -17.5t-51 -43.5t-31 -57.5t-10.5 -58.5q0 -26 6.5 -53t23.5 -47q-18 -23 -24.5 -50.5t-6.5 -56.5t8.5 -60t27.5 -57t50 -43t76 -17h387q46 0 77 17t50 43t27 57t8 60t-6.5 56.5t-24.5 50.5q17 20 24 47t7 53q0 27 -10.5 58.5t-31 57.5
t-51 43.5t-70.5 17.5zM580 540q34 0 60.5 -15t44.5 -38t27.5 -50.5t9.5 -52.5q0 -26 -9 -54.5t-30 -44.5q23 -20 31.5 -49.5t8.5 -58.5q0 -26 -7.5 -53.5t-24 -50.5t-43.5 -37.5t-67 -14.5h-387q-39 0 -66 14.5t-43.5 37.5t-24 50.5t-7.5 53.5q0 29 8.5 58.5t31.5 49.5
q-21 16 -30 44.5t-9 54.5q0 25 9.5 52.5t27.5 50.5t44 38t60 15h385zM310 188q0 -14 7.5 -23.5t26.5 -9.5h93q29 4 29 33q0 14 -6 20.5t-23 8.5h-98q-17 -2 -23 -8.5t-6 -20.5zM430 344q21 0 28 6t7 23q0 14 -7.5 23.5t-26.5 9.5h-92q-16 -2 -22 -11t-6 -22q0 -17 7 -23
t28 -6h84zM331 188q0 7 11 8h92q11 -1 11 -8q0 -12 -11 -12h-90q-13 0 -13 12zM430 365h-84q-14 0 -14 8q0 4 1.5 7.5t6.5 4.5h91q13 0 13 -12q0 -8 -14 -8z" />
    <glyph glyph-name="FL0039h" unicode="9" 
d="M455 379q-1 0 -1 2q-1 1 -1 4h-114q0 -1 -0.5 -1.5t-0.5 -1.5t-0.5 -1.5t-0.5 -1.5v-14h118v14zM455 406q9 0 13 -6t6 -11q1 -2 1 -3l1 -2v-40h-160v40q0 2 2 4v-1q3 5 7.5 12t12.5 7h117zM54 306q0 -20 12 -37.5t30 -31t39.5 -21.5t41.5 -8h299v-21h4l-4 -4
q-1 -8 -6 -18t-15 -10h-398v-134h553q26 0 49 11.5t40.5 30.5t28 42t10.5 47v275q0 21 -11 41.5t-28.5 36t-39.5 25.5t-43 10h-439q-22 0 -44 -9.5t-39.5 -25.5t-28.5 -36.5t-11 -41.5v-121zM33 427q0 26 13 50t34 43t46.5 30t50.5 11h439q25 0 50.5 -12t46 -31t33.5 -43
t13 -48v-275q0 -27 -12 -54.5t-32 -49t-47.5 -35t-57.5 -13.5h-574v176h418q1 1 1 2v10h-278q-22 0 -47.5 9.5t-47 25.5t-35.5 37.5t-14 45.5v121z" />
    <glyph glyph-name="FL003Ah" unicode=":" horiz-adv-x="260" 
d="M50 103q0 -35 29 -59t70 -24q19 0 37 6.5t31.5 17.5t21.5 26.5t8 32.5t-8 32t-21.5 26t-31.5 17.5t-37 6.5q-41 0 -70 -23.5t-29 -58.5zM49 312q0 -35 29 -58.5t70 -23.5q40 0 69 23.5t29 58.5t-29 59t-69 24q-41 0 -70 -24t-29 -59zM31 103q0 22 9.5 40.5t25.5 32
t37.5 21.5t45.5 8t45.5 -8t37 -21.5t25 -32t9.5 -40.5t-9.5 -40.5t-25 -32.5t-37 -22t-45.5 -8t-45.5 8t-37.5 22t-25.5 32.5t-9.5 40.5zM30 312q0 22 9.5 40.5t25.5 32.5t37.5 22t45.5 8t45.5 -8t37 -22t25 -32.5t9.5 -40.5t-9.5 -40.5t-25 -32t-37 -21.5t-45.5 -8t-45.5 8
t-37.5 21.5t-25.5 32t-9.5 40.5z" />
    <glyph glyph-name="FL003Bh" unicode=";" horiz-adv-x="260" 
d="M49 318q0 -18 8 -33t21.5 -26.5t31.5 -18t38 -6.5t37.5 6.5t31 18t21.5 26.5t8 33t-8 33.5t-21.5 26.5t-31 17.5t-37.5 6.5t-38 -6.5t-31.5 -17.5t-21.5 -26.5t-8 -33.5zM30 318q0 22 9.5 41.5t25.5 33t37.5 21.5t45.5 8t45.5 -8t37 -21.5t25 -33t9.5 -41.5t-9.5 -41
t-25 -33.5t-37 -22.5t-45.5 -8t-45.5 8t-37.5 22.5t-25.5 33.5t-9.5 41zM50 9q0 -18 8 -33t21.5 -26.5t31.5 -18t38 -6.5q19 0 37 6.5t31.5 18t21.5 26.5t8 33v96q0 17 -8 32t-21.5 26.5t-31.5 18t-37 6.5q-41 0 -70 -24t-29 -59v-96zM31 105q0 22 9.5 41t25.5 33t37.5 22
t45.5 8t45.5 -8t37 -22t25 -33t9.5 -41v-96q0 -22 -9.5 -41t-25 -33.5t-37 -22.5t-45.5 -8t-45.5 8t-37.5 22.5t-25.5 33.5t-9.5 41v96z" />
    <glyph glyph-name="FL003Ch" unicode="&#x3c;" horiz-adv-x="563" 
d="M344 281l214 259h-301l-214 -259l215 -260h301zM248 0l-234 281l233 280h356l-231 -280l232 -281h-356z" />
    <glyph glyph-name="FL003Dh" unicode="=" horiz-adv-x="402" 
d="M32 441v-165h376v165h-376zM32 261v-165h376v165h-376zM52 242h336v-126h-336v126zM52 422h336v-126h-336v126z" />
    <glyph glyph-name="FL003Eh" unicode="&#x3e;" horiz-adv-x="563" 
d="M354 0l234 281l-233 280h-357l232 -280l-233 -281h357zM258 281l-215 259h302l214 -259l-215 -260h-302z" />
    <glyph glyph-name="FL003Fh" unicode="?" horiz-adv-x="735" 
d="M136 257v-58h70q-32 -14 -51 -38.5t-19 -54.5q0 -23 10 -42t28 -33.5t41.5 -22.5t50.5 -8t51 8t41.5 22.5t28 33.5t10.5 42q0 29 -20 54t-53 39h274q21 0 46 12t46.5 31t36 43t14.5 48v81q0 28 -12 54.5t-32 47t-47.5 33t-57.5 12.5h-558v-176h403v-17h-161
q-22 0 -46.5 -8.5t-45.5 -23.5t-34.5 -35t-13.5 -44zM157 257q0 19 11.5 35.5t29 28.5t38.5 19t40 7h182v30q0 8 -5 18.5t-15 10.5h-383v134h537q26 0 49 -11t40.5 -28.5t28 -40t10.5 -46.5v-81q0 -21 -12 -41.5t-30 -36.5t-39.5 -26t-40.5 -10h-441v38zM157 106
q0 17 8.5 32t23.5 26.5t35 18t42 6.5t42 -6.5t35 -18t24 -26.5t9 -32q0 -18 -9 -33.5t-24 -27t-35 -18t-42 -6.5t-42 6.5t-35 18t-23.5 27t-8.5 33.5z" />
    <glyph glyph-name="FL0040h" unicode="@" horiz-adv-x="1005" 
d="M501 307q0 6 6 8h30q4 0 5.5 -3t1.5 -5v-50q-1 -7 -7 -7h-30q-6 0 -6 7v50zM631 436q30 0 53.5 -21.5t30.5 -48.5v75h-384v-69q8 26 31 45t52 19h217zM414 415q-13 0 -25 -6t-21 -15t-14.5 -21t-5.5 -24v-140q0 -11 5.5 -21t14.5 -17.5t20 -12t22 -4.5h469q22 0 44 9.5
t40 25.5t29 36.5t11 42.5v196q0 24 -10.5 48t-28.5 42.5t-42 30.5t-51 12h-697q-27 0 -50.5 -12t-41.5 -30.5t-28.5 -42.5t-10.5 -48v-379q0 -22 11 -42.5t29 -36.5t40 -26t44 -10h528v137h-365q-20 0 -20 22v303q0 8 5 18.5t16 10.5h384q10 0 15.5 -10.5t5.5 -18.5v-121
q0 -10 -6 -16t-14 -6h-21v60q0 12 -5 24t-14 21t-20.5 15t-24.5 6h-217zM410 133q-24 0 -47 16t-32 38v-60h386v-178h-550q-25 0 -51 11.5t-47 30.5t-34.5 43.5t-13.5 50.5v379q0 28 12 55.5t33 49.5t49 35.5t59 13.5h697q31 0 59 -13.5t49 -35.5t33 -49.5t12 -55.5v-196
q0 -26 -13.5 -50.5t-34.5 -43.5t-46.5 -30t-50.5 -11h-469z" />
    <glyph glyph-name="FL0041h" unicode="A" 
d="M454 382q-2 2 -2 3h-114l-1 -5v-61h118v61q-1 0 -1 2zM316 385v1q1 0 1 1q3 5 8 12t13 7h117q9 0 13 -5t6 -11q1 -2 1 -3t1 -3v-85h-160v86zM476 21h262v405q0 21 -11 41.5t-28.5 36.5t-39 26t-43.5 10h-439q-21 0 -43 -10t-40 -26t-29 -36.5t-11 -41.5v-405h262v146h160
v-146zM759 0h-304v146h-118v-146h-304v426q0 26 13 50.5t34 43t46.5 30t50.5 11.5h439q25 0 50.5 -12t46 -31t33.5 -43.5t13 -48.5v-426z" />
    <glyph glyph-name="FL0042h" unicode="B" 
d="M337 385v-20h109q14 0 14 8q0 12 -13 12h-110zM337 196v-20h111q13 0 13 12q0 8 -14 8h-110zM316 406h131q18 0 26 -9.5t8 -23.5q0 -17 -7.5 -23t-27.5 -6h-130v62zM447 217q20 0 27.5 -7t7.5 -22q0 -14 -8 -23.5t-26 -9.5h-132v62h131zM596 21q40 0 67 14.5t43.5 37.5
t24 50.5t7.5 53.5q0 29 -8 58.5t-31 49.5q21 16 30 44.5t9 54.5q0 25 -9.5 52.5t-27.5 50.5t-45 38t-61 15h-541v-519h542zM33 0v561h562q40 0 70.5 -17.5t51 -43.5t31 -57.5t10.5 -58.5q0 -26 -6.5 -53t-23.5 -47q18 -23 24.5 -50.5t6.5 -56.5t-8 -60t-27 -57t-50.5 -43
t-77.5 -17h-563z" />
    <glyph glyph-name="FL0043h" unicode="C" horiz-adv-x="670" 
d="M181 540q-26 0 -49 -11.5t-40.5 -30.5t-27.5 -42t-10 -47v-275q0 -21 11 -41.5t28.5 -36.5t38.5 -25.5t42 -9.5h476v134h-315q-18 0 -20 22v200q0 8 5 18.5t15 10.5h320v134h-474zM676 561v-176h-340v-209h335v-176h-497q-24 0 -49 11t-45.5 30t-33.5 43t-13 50v275
q0 27 11.5 54.5t32 49t47.5 35t57 13.5h495z" />
    <glyph glyph-name="FL0044h" unicode="D" horiz-adv-x="746" 
d="M338 375v-197h77q12 0 18.5 6.5t10 16.5t4 22.5t0.5 23.5v64q0 10 -0.5 21t-2.5 20.5t-6 16t-11 6.5h-90zM428 396q14 0 22 -8.5t12.5 -21.5t5.5 -28t1 -27v-64q0 -14 -1 -30t-6 -29t-16 -21.5t-31 -8.5h-98v238h111zM54 540v-519h587q16 0 32.5 9.5t29 24.5t20.5 32.5
t8 34.5v299q0 18 -9 39t-23.5 39t-33 29.5t-37.5 11.5h-574zM33 0v561h595q23 0 45 -14t39.5 -35t28.5 -45.5t11 -45.5v-299q0 -20 -10 -41.5t-25.5 -39.5t-35.5 -29.5t-40 -11.5h-608z" />
    <glyph glyph-name="FL0045h" unicode="E" horiz-adv-x="670" 
d="M181 540q-26 0 -49 -11.5t-40.5 -30.5t-27.5 -42t-10 -47v-275q0 -21 11 -41.5t28.5 -36.5t38.5 -25.5t42 -9.5h481v134h-320q-1 0 -3.5 2.5l-6 6t-6.5 7t-4 6.5v2q0 1 -0.5 2t-0.5 3t0.5 2.5t0.5 1.5v2q2 6 10 15t10 9h320v131h-313q-13 0 -20.5 9.5t-7.5 20.5
q0 8 5.5 19.5t15.5 11.5h320v134h-474zM676 561v-176h-340q-1 -5 -1 -6v-4t2 -6t5 -3h334v-173h-340v-5q0 -2 -1 -4q1 -3 1 -8h340v-176h-502q-24 0 -49 11t-45.5 30t-33.5 43t-13 50v275q0 27 11.5 54.5t32 49t47.5 35t57 13.5h495z" />
    <glyph glyph-name="FL0046h" unicode="F" horiz-adv-x="670" 
d="M181 540q-26 0 -49 -11.5t-40.5 -30.5t-27.5 -42t-10 -47v-388h261v169q2 6 10 15t10 9h320v131h-313q-13 0 -20.5 9.5t-7.5 20.5q0 8 5.5 19.5t15.5 11.5h320v134h-474zM676 561v-176h-340q-1 -5 -1 -6v-4t2 -6t5 -3h334v-173h-340v-193h-303v409q0 27 11.5 54.5t32 49
t47.5 35t57 13.5h495z" />
    <glyph glyph-name="FL00B9h" unicode="G" 
d="M339 180q0 -1 0.5 -2t0.5 -2h113q1 1 1 2t2 3v204h-118v-204q0 -1 1 -1zM183 540q-26 0 -49.5 -11.5t-41 -30.5t-28 -42t-10.5 -47v-275q0 -21 11 -41.5t29 -36t40 -25.5t43 -10h439q22 0 43.5 9.5t39 25.5t28.5 36.5t11 41.5v240h-261v-198q0 -1 -1 -1v-1q-3 -5 -8 -12
t-13 -7h-117q-9 0 -13 5t-6 11q-1 2 -1 3t-1 3v197h-4l4 4q0 8 5 18t16 10h322v134h-477zM681 561v-166h78v-261q0 -26 -13 -50t-33.5 -43t-46 -30t-50.5 -11h-439q-25 0 -50.5 12t-46.5 31t-34 43t-13 48v275q0 27 12 54.5t32.5 49t47.5 35t58 13.5h498z" />
    <glyph glyph-name="FL0048h" unicode="H" horiz-adv-x="723" 
d="M446 21h262v519h-262v-195h-130v195h-262v-519h262v193h130v-193zM337 366h88v195h304v-561h-304v193h-88v-193h-304v561h304v-195z" />
    <glyph glyph-name="FL0049h" unicode="I" horiz-adv-x="691" 
d="M33 176v-176h663v176h-181v209h182v176h-663v-176h178v-209h-179zM233 155v251h-178v134h621v-134h-181v-251h180v-134h-621v134h179z" />
    <glyph glyph-name="FL004Ah" unicode="J" 
d="M338 293h-305v-159q0 -24 13 -48t34 -43t46.5 -31t50.5 -12h439q25 0 50.5 11t46 30t33.5 43t13 50v427h-303v-378q-2 -2 -2 -4q-2 -4 -2 -3h-112q0 1 -0.5 2t-0.5 2q-1 0 -1 1v112zM317 177q1 -2 1 -3t1 -3q2 -6 6 -11t13 -5h117q8 0 12.5 7t7.5 12v-1q2 2 2 4v363h261
v-406q0 -21 -11 -41.5t-28.5 -36.5t-39 -25.5t-43.5 -9.5h-439q-21 0 -43 10t-40 25.5t-29 36t-11 41.5v138h263v-95z" />
    <glyph glyph-name="FL004Bh" unicode="K" horiz-adv-x="718" 
d="M354 111q11 -13 26.5 -28.5t32.5 -29t36 -23t37 -9.5h217v135h-40q-24 0 -51 12t-50 32.5t-38 46.5t-15 53q0 16 12 34.5t28.5 34.5t34.5 26t31 10h88v135h-198q-27 -3 -49.5 -14t-39 -24t-26.5 -25.5t-13 -16.5v-2q-18 -16 -28 -35t-18 -39q-3 -8 -6 -15t-7 -15h-2v186
h-262v-519h262v151h2l36 -62v1zM337 0h-304v561h304v-117q4 7 9 13t11 12q5 7 17.5 21t31.5 29t43.5 27t53.5 15h221v-176h-109q-11 0 -25.5 -8t-28 -21t-23 -28t-9.5 -28q0 -23 13 -45.5t33 -40t43.5 -28t44.5 -10.5h61v-176h-238q-22 0 -43.5 10t-41 25t-36 32t-28.5 31
v-98z" />
    <glyph glyph-name="FL004Ch" unicode="L" horiz-adv-x="670" 
d="M54 151q0 -27 7.5 -50.5t21.5 -41.5t34 -28t44 -10h494v134h-304q-20 2 -28 8.5t-8 26.5v350h-261v-389zM33 561h303v-371q0 -14 17 -14h323v-176h-515q-29 0 -53 12t-40.5 32t-25.5 47.5t-9 59.5v410z" />
    <glyph glyph-name="FL004Dh" unicode="M" horiz-adv-x="1076" 
d="M793 21h268v406q0 21 -11.5 41.5t-29.5 36t-40 25.5t-44 10h-758q-22 0 -44 -9.5t-40 -25.5t-29 -36.5t-11 -41.5v-406h266v363v1q1 0 1 1q3 5 8 12.5t13 7.5h60q9 0 13 -6.5t6 -11.5v-2q0 -1 1 -1v-364h269v366l1 1v-1q3 5 8 12t12 7h61q9 0 13 -6t6 -11q0 -3 1 -5v-363
zM773 0v379q-1 0 -1 2q-1 1 -1 4h-58v-2q0 -1 -1 -1v-1v-381h-311v380q-1 1 -1 5h-57q0 -1 -0.5 -1.5t-0.5 -1.5t-0.5 -1.5t-0.5 -1.5v-379h-308v427q0 26 13 50t34 43t47 30t51 11h758q25 0 51 -12t47 -31t34.5 -43t13.5 -48v-427h-309z" />
    <glyph glyph-name="FL004Eh" unicode="N" 
d="M759 0v427q0 24 -13 48t-33.5 43t-46 31t-50.5 12h-583v-561h304v385h116q0 -3 1 -4q0 -2 1 -2v-379h304zM476 384l-1 2q0 1 -1 3q-2 5 -6 11t-13 6h-139v-385h-262v519h562q21 0 43 -10t39.5 -25.5t28.5 -36t11 -41.5v-406h-262v363z" />
    <glyph glyph-name="FL004Fh" unicode="O" 
d="M610 561h-427q-31 0 -58 -13.5t-47.5 -35t-32.5 -49t-12 -54.5v-275q0 -26 13 -50t34 -43t46.5 -30t50.5 -11h439q25 0 50.5 11t46 30t33.5 43t13 50v275q0 27 -12 54.5t-32 49t-47 35t-58 13.5zM610 540q26 0 49.5 -11.5t41 -30.5t27.5 -42t10 -47v-275q0 -21 -11 -41.5
t-28.5 -36.5t-39 -25.5t-43.5 -9.5h-439q-21 0 -43 9.5t-40 25.5t-29 36.5t-11 41.5v275q0 24 10.5 47t28 42t41 30.5t49.5 11.5h427zM316 177q1 -5 5.5 -13.5t16.5 -8.5h117q6 0 12.5 8.5t9.5 13.5v198q0 8 -5.5 19.5t-16.5 11.5h-119q-11 -2 -15.5 -12.5t-4.5 -18.5v-198z
M337 178v197q0 8 2 10h116l0.5 -3.5t0.5 -6.5v-192q-2 -2 -2 -4q-2 -4 -2 -3h-114q-1 0 -1 2z" />
    <glyph glyph-name="FL0050h" unicode="P" 
d="M337 385v-63h105q8 0 13.5 11.5t5.5 21.5q0 8 -3 19t-10 11h-111zM448 406q9 0 15.5 -5.5t10.5 -13.5t6 -17t2 -15q0 -8 -2.5 -17.5t-7.5 -17.5t-12.5 -13.5t-17.5 -5.5h-126v105h132zM54 540v-519h262v145h281q39 0 66 17t43.5 44.5t24 62.5t7.5 70q0 25 -7.5 56.5
t-24 59t-43.5 46t-67 18.5h-542zM33 0v561h563q46 0 77.5 -21t50.5 -52t27 -66t8 -62q0 -39 -8.5 -77t-27.5 -68.5t-50 -49.5t-76 -19h-260v-146h-304z" />
    <glyph glyph-name="FL0051h" unicode="Q" horiz-adv-x="758" 
d="M-30 -141h390q25 0 50 10t47 26.5t40 36.5t30 40l15 28h79q25 0 50.5 11.5t46.5 30.5t34 43.5t13 50.5v279q0 28 -12 55.5t-32.5 49.5t-48 35.5t-58.5 13.5h-428q-31 0 -58.5 -13.5t-48 -35.5t-32.5 -49.5t-12 -55.5v-279q0 -27 13.5 -52t35.5 -44h-114v-181zM175 19v2
q-21 1 -42 11.5t-38 26.5t-27.5 36t-10.5 41v279q0 24 10.5 48t28 43t41 30.5t49.5 11.5h428q26 0 49.5 -11.5t41.5 -30.5t28.5 -43t10.5 -48v-279q0 -22 -11 -42.5t-29 -36.5t-40 -26t-43 -10h-90l-22 -39v1q-11 -18 -27 -36.5t-36 -33t-42 -24t-44 -9.5h-369v139h184z
M480 180v188q0 11 1 12q0 8 -5 19t-15 13h-120q-11 0 -16.5 -11.5t-5.5 -19.5v-201q3 -5 10 -13.5t9 -8.5h121q8 0 12.5 5.5t6.5 12.5zM459 368v-183q-1 -1 -1 -3v1q-1 -1 -1 -5h-118q1 1 1 4v199v6t1 4h116q1 -2 3 -8q-1 -2 -1 -6v-9z" />
    <glyph glyph-name="FL0052h" unicode="R" horiz-adv-x="778" 
d="M338 385v-63h106q8 0 13.5 12t5.5 22q0 8 -3 18.5t-10 10.5h-112zM450 406q9 0 15.5 -5.5t10.5 -13t6 -16.5t2 -15q0 -8 -2.5 -17.5t-7.5 -17.5t-12.5 -14t-17.5 -6h-127v105h133zM55 540v-519h262v138q0 3 7 4l9 3h2q17 0 32 -9t26 -22l87 -114h325l-150 192q-1 1 -1 8
q0 10 5 13q23 0 39 15t25.5 37.5t14 48.5t4.5 49q0 26 -5.5 53.5t-20.5 50.5t-40.5 37.5t-65.5 14.5h-555zM34 0v561h576q46 0 76 -17t47 -43t23.5 -57t6.5 -60q0 -23 -4.5 -50t-14.5 -51t-26 -42.5t-39 -24.5l170 -216h-380l-94 122q-8 8 -17.5 15t-19.5 9v-146h-304z" />
    <glyph glyph-name="FL005Ah" unicode="S" horiz-adv-x="735" 
d="M741 150v107q0 24 -14 44t-35 35t-45.5 23.5t-46.5 8.5h-263v17h403v176h-558q-30 0 -57.5 -12.5t-47.5 -33t-32 -47t-12 -54.5v-81q0 -24 14.5 -48.5t36 -44.5t46.5 -32.5t46 -12.5h261v-19h-404v-176h558q31 0 58 14t47.5 36t32.5 48.5t12 51.5zM720 150
q0 -22 -10.5 -45t-28 -41.5t-41 -30.5t-49.5 -12h-537v134h383q10 0 15 10.5t5 18.5v32h-281q-18 0 -39.5 10.5t-40 27t-30.5 37.5t-12 42v81q0 24 10.5 46.5t28 40t40.5 28.5t49 11h538v-134h-383q-10 0 -15.5 -10.5t-5.5 -18.5v-30h284q19 0 40 -7t39 -19t29.5 -28.5
t11.5 -35.5v-107z" />
    <glyph glyph-name="FL0055h" unicode="T" horiz-adv-x="716" 
d="M508 406h193v134h-647v-134h191v-385h263v385zM33 561h689v-176h-194v-385h-304v385h-191v176z" />
    <glyph glyph-name="FL0056h" unicode="U" 
d="M338 561h-305v-427q0 -24 13 -48t34 -43t46.5 -31t50.5 -12h582v561h-303v-385h-116q0 1 -0.5 2t-0.5 2q-1 0 -1 1v380zM317 177q1 -2 1 -3t1 -3q2 -6 6 -11t13 -5h139v385h261v-519h-561q-21 0 -43 10t-40 25.5t-29 36t-11 41.5v406h263v-363z" />
    <glyph glyph-name="FL0057h" unicode="V" horiz-adv-x="892" 
d="M536 58l397 503h-366l-227 -301v300h-306v-561h413q13 0 27 7t26 17t21.5 19.5t14.5 15.5zM519 71q-4 -5 -12 -13.5t-18 -17t-21 -14.5t-21 -6h-392v519h264v-310q0 -2 5 -4q2 -1 3.5 -2t3.5 -2q5 0 7.5 2t4.5 5q1 1 1.5 2t1.5 2l233 308h309z" />
    <glyph glyph-name="FL0059h" unicode="W" horiz-adv-x="1076" 
d="M576 561h-40l-194 -225v225h-309v-561h359q15 0 37.5 16t45.5 39t45 47.5t36 41.5q13 -17 34 -41.5t43.5 -47t44.5 -39t38 -16.5h366v561h-309v-226zM793 279v261h268v-519h-345q-14 0 -38 21.5t-48.5 48.5t-44 52.5t-25.5 33.5q-1 1 -1 3h-4q-2 -4 -12 -17t-24 -31
t-32 -37.5t-35 -36t-33 -27t-27 -10.5h-338v519h267v-261l225 261h20z" />
    <glyph glyph-name="FL0058h" unicode="X" horiz-adv-x="718" 
d="M33 0h139q31 0 59.5 5.5t54.5 23.5q15 9 30.5 22.5t30.5 33.5q12 -14 28 -29t34 -27.5t37.5 -20.5t39.5 -8h238v176h-61q-21 0 -44.5 13t-43.5 33t-33 43t-13 43q0 9 7 22t17 25.5t20 21t15 8.5h136v176h-220q-42 -11 -68 -34.5t-40 -42.5q-9 12 -20.5 25.5t-26.5 25
t-33.5 19t-42.5 7.5h-240v-176h58q3 0 11 -0.5t18 -2.5t20.5 -5.5t18.5 -10.5q20 -19 36 -40t31 -41v1q1 -2 3 -4h-1q2 -4 4 -7t4 -5q-7 -16 -20.5 -32.5t-29 -30t-29 -22t-20.5 -8.5h-104v-177zM137 157q9 0 27.5 11.5t38 29t35.5 38.5t21 39l-6 9q-18 26 -36.5 50.5
t-43.5 47.5q-9 8 -22 12.5t-25.5 7t-22 3t-12.5 0.5h-37v135h219q21 0 37.5 -7.5t29.5 -18.5t23.5 -24t18.5 -24q4 -5 8 -9.5t7 -8.5q3 3 5 6q4 6 12.5 18.5t21.5 25.5t30.5 25t38.5 17h198v-135h-115q-7 0 -20.5 -11t-26.5 -26.5t-22.5 -32t-9.5 -27.5q0 -23 15 -49.5
t38 -49.5t50 -38t51 -15h40v-135h-217q-18 0 -37 9.5t-36 23t-32.5 29t-26.5 28.5l-1 1q0 1 -1 2v-1q-2 4 -6 8q-17 -29 -36.5 -46t-37.5 -29q-23 -17 -48.5 -21t-51.5 -4h-118v136h83z" />
    <glyph glyph-name="FL007Ch" unicode="Y" horiz-adv-x="740" 
d="M619 21q24 0 43.5 10t33.5 28t21.5 42t7.5 52v387h-263v-174q-2 -6 -7.5 -14t-11.5 -8h-106q-8 0 -12 5.5t-6 12.5l-3 6v172h-262v-213q0 -21 11 -41.5t29 -36.5t39.5 -26t42.5 -10h286v-23q0 -20 -7.5 -26.5t-27.5 -8.5h-368v-134h560zM746 561v-408q0 -32 -9 -60
t-25.5 -48.5t-40 -32.5t-52.5 -12h-581v176h388q15 0 15 14v2h-265q-24 0 -49.5 12t-46.5 31t-34 43t-13 49v234h304v-188l2 -3q0 -1 0.5 -2t0.5 -2v-1h101v196h305z" />
    <glyph glyph-name="FL007Bh" unicode="Z" horiz-adv-x="899" 
d="M389 122q10 -18 26 -36.5t36 -32.5t42.5 -23t45.5 -9h346v135h-166q-9 0 -19 8t-19.5 19t-16.5 22t-10 18l-124 217q-8 14 -22.5 31.5t-33.5 32.5t-40 25.5t-41 10.5h-338v-134h143q9 0 19 -7t18.5 -16.5t15.5 -20.5t12 -18zM906 176v-176h-367q-26 0 -51 10t-47.5 26
t-41 36.5t-29.5 40.5l-125 220l-1 2q-5 6 -11 15t-12 16.5t-12.5 13t-10.5 5.5h-164v176h359q23 0 47 -12t45.5 -29t38.5 -37t25 -35h-1l124 -217q3 -5 8.5 -14.5t12 -18.5t13.5 -15.5t13 -6.5h187z" />
    <glyph glyph-name="FL005Bh" unicode="[" horiz-adv-x="396" 
d="M402 618h-370v-669h364v178h-74v314h80v177zM302 107h74v-137h-324v627h330v-136h-80v-354z" />
    <glyph glyph-name="FL005Ch" unicode="\" horiz-adv-x="795" 
d="M483 21h307l-439 519h-309zM472 0l-475 561h364l475 -561h-364z" />
    <glyph glyph-name="FL005Dh" unicode="]" horiz-adv-x="396" 
d="M58 107v-137h324v627h-330v-136h79v-354h-73zM32 618h370v-669h-364v178h73v314h-79v177z" />
    <glyph glyph-name="FL005Eh" unicode="^" horiz-adv-x="893" 
d="M509 499q-12 12 -28 26.5t-33 14.5h-393v-519h264v310q1 3 5 4q1 1 4 2.5l3 1.5q7 0 9 -1.5t5 -6.5l234 -311h310l-370 469zM934 -1h-367l-227 301v-300h-306v561h414q11 0 22.5 -5t21.5 -12t19 -15.5t15 -15.5q2 -2 3 -3.5t3 -3.5l4 -4z" />
    <glyph glyph-name="FL005Fh" unicode="_" horiz-adv-x="556" 
d="M53 18h488v111h-488v-111zM562 147v-147h-529v147h529z" />
    <glyph glyph-name="FL0061h" unicode="`" horiz-adv-x="1428" 
d="M522 406h200v134h-666v-134h197v-385h269v385zM565 21h316l238 310v-1q4 6 6 8t7 2q2 -1 3.5 -2t3.5 -2q5 -5 5 -4v-310h270v519h-399q-9 0 -20.5 -6t-22 -14.5t-18.5 -17t-12 -13.5zM744 385h-200v-357l380 474l1 1q4 6 14 16t22.5 19.5t26.5 16.5t27 7h420v-561h-312
v299l-230 -300h-661v385h-198v176h710v-176z" />
    <glyph glyph-name="a" unicode="a" horiz-adv-x="892" 
d="M43 20h310l235 311q3 5 5 6.5t8 1.5q2 -1 3.5 -2t3.5 -2q5 -5 5 -4v-310h264v519h-392q-9 0 -20 -6t-21.5 -14.5t-18.5 -17t-12 -13.5zM-1 -1l396 502q4 6 14 16t22.5 20t26.5 17t27 7h413v-561h-306v299l-227 -300h-366z" />
    <glyph glyph-name="FL0062h" unicode="b" 
d="M337 385v-20h109q14 0 14 8q0 12 -13 12h-110zM337 196v-20h111q13 0 13 12q0 8 -14 8h-110zM316 406h131q18 0 26 -9.5t8 -23.5q0 -17 -7.5 -23t-27.5 -6h-130v62zM447 217q20 0 27.5 -7t7.5 -22q0 -14 -8 -23.5t-26 -9.5h-132v62h131zM596 21q40 0 67 14.5t43.5 37.5
t24 50.5t7.5 53.5q0 29 -8 58.5t-31 49.5q21 16 30 44.5t9 54.5q0 25 -9.5 52.5t-27.5 50.5t-45 38t-61 15h-541v-519h542zM33 0v561h562q40 0 70.5 -17.5t51 -43.5t31 -57.5t10.5 -58.5q0 -26 -6.5 -53t-23.5 -47q18 -23 24.5 -50.5t6.5 -56.5t-8 -60t-27 -57t-50.5 -43
t-77.5 -17h-563z" />
    <glyph glyph-name="FL0063h" unicode="c" horiz-adv-x="670" 
d="M676 561h-495q-30 0 -57 -13.5t-47.5 -35t-32 -49t-11.5 -54.5v-275q0 -26 13 -50t33.5 -43t45.5 -30t49 -11h497v176h-335v209h340v176zM315 377v-200q2 -22 20 -22h315v-134h-476q-21 0 -42 9.5t-38.5 25.5t-28.5 36.5t-11 41.5v275q0 24 10 47t27.5 42t40.5 30.5
t49 11.5h474v-134h-320q-10 0 -15 -10.5t-5 -18.5z" />
    <glyph glyph-name="d" unicode="d" horiz-adv-x="746" 
d="M338 375v-197h77q12 0 18.5 6.5t10 16.5t4 22.5t0.5 23.5v64q0 10 -0.5 21t-2.5 20.5t-6 16t-11 6.5h-90zM428 396q14 0 22 -8.5t12.5 -21.5t5.5 -28t1 -27v-64q0 -14 -1 -30t-6 -29t-16 -21.5t-31 -8.5h-98v238h111zM54 540v-519h587q16 0 32.5 9.5t29 24.5t20.5 32.5
t8 34.5v299q0 18 -9 39t-23.5 39t-33 29.5t-37.5 11.5h-574zM33 0v561h595q23 0 45 -14t39.5 -35t28.5 -45.5t11 -45.5v-299q0 -20 -10 -41.5t-25.5 -39.5t-35.5 -29.5t-40 -11.5h-608z" />
    <glyph glyph-name="E" unicode="e" horiz-adv-x="670" 
d="M676 561h-495q-30 0 -57 -13.5t-47.5 -35t-32 -49t-11.5 -54.5v-275q0 -26 13 -50t33.5 -43t45.5 -30t49 -11h502v176h-340q0 5 -1 8q1 2 1 4v5h340v173h-334q-3 0 -5 3t-2 6v4t1 6h340v176zM314 375q0 -11 7.5 -20.5t20.5 -9.5h313v-131h-320q-2 0 -10 -9t-10 -15v-2
q0 -1 -0.5 -1.5t-0.5 -2.5t0.5 -3t0.5 -2v-2q1 -3 4 -6.5t6.5 -7l6 -6t3.5 -2.5h320v-134h-481q-21 0 -42 9.5t-38.5 25.5t-28.5 36.5t-11 41.5v275q0 24 10 47t27.5 42t40.5 30.5t49 11.5h474v-134h-320q-10 0 -15.5 -11.5t-5.5 -19.5z" />
    <glyph glyph-name="FL0066h" unicode="f" horiz-adv-x="670" 
d="M676 561h-495q-30 0 -57 -13.5t-47.5 -35t-32 -49t-11.5 -54.5v-409h303v193h340v173h-334q-3 0 -5 3t-2 6v4t1 6h340v176zM314 375q0 -11 7.5 -20.5t20.5 -9.5h313v-131h-320q-2 0 -10 -9t-10 -15v-169h-261v388q0 24 10 47t27.5 42t40.5 30.5t49 11.5h474v-134h-320
q-10 0 -15.5 -11.5t-5.5 -19.5z" />
    <glyph glyph-name="FL0067h" unicode="g" 
d="M738 255q0 19 -12 37t-30 31.5t-39.5 21.5t-40.5 8h-244v-136h105v-40q0 -2 -2 -4v1q-3 -5 -7.5 -12t-12.5 -7h-117q-9 0 -13 5t-6 11q-1 2 -1 3t-1 3v197h-4l4 4q0 8 5 18t16 10h398v134h-553q-26 0 -49.5 -11.5t-41 -30.5t-28 -42t-10.5 -47v-275q0 -21 11 -41.5
t29 -36t40 -25.5t43 -10h439q22 0 43.5 9.5t39 25.5t28.5 36.5t11 41.5v121zM759 134q0 -26 -13 -50t-33.5 -43t-46 -30t-50.5 -11h-439q-25 0 -50.5 12t-46.5 31t-34 43t-13 48v275q0 27 12 54.5t32.5 49t47.5 35t58 13.5h574v-176h-419v-204q0 -1 1 -1q0 -1 0.5 -2t0.5 -2
h112q0 -1 2 3q0 2 2 4v13h-105v177h265q22 0 47 -9.5t46.5 -25.5t35.5 -37.5t14 -45.5v-121z" />
    <glyph glyph-name="FL0068h" unicode="h" horiz-adv-x="723" 
d="M446 21h262v519h-262v-195h-130v195h-262v-519h262v193h130v-193zM337 366h88v195h304v-561h-304v193h-88v-193h-304v561h304v-195z" />
    <glyph glyph-name="FL0069h" unicode="i" horiz-adv-x="305" 
d="M51 21h241v519h-241v-519zM31 561h280v-561h-280v561z" />
    <glyph glyph-name="FL006Ah" unicode="j" horiz-adv-x="670" 
d="M676 153v408h-302v-371q0 -14 -16 -14h-325v-176h516q30 0 54 12t40 32.5t24.5 48.5t8.5 60zM655 153q0 -28 -7 -52t-20.5 -42t-33.5 -28t-45 -10h-495v134h304q20 2 28.5 8.5t8.5 26.5v350h260v-387z" />
    <glyph glyph-name="FL006Bh" unicode="k" horiz-adv-x="718" 
d="M354 111q11 -13 26.5 -28.5t32.5 -29t36 -23t37 -9.5h217v135h-40q-24 0 -51 12t-50 32.5t-38 46.5t-15 53q0 16 12 34.5t28.5 34.5t34.5 26t31 10h88v135h-198q-27 -3 -49.5 -14t-39 -24t-26.5 -25.5t-13 -16.5v-2q-18 -16 -28 -35t-18 -39q-3 -8 -6 -15t-7 -15h-2v186
h-262v-519h262v151h2l36 -62v1zM337 0h-304v561h304v-117q4 7 9 13t11 12q5 7 17.5 21t31.5 29t43.5 27t53.5 15h221v-176h-109q-11 0 -25.5 -8t-28 -21t-23 -28t-9.5 -28q0 -23 13 -45.5t33 -40t43.5 -28t44.5 -10.5h61v-176h-238q-22 0 -43.5 10t-41 25t-36 32t-28.5 31
v-98z" />
    <glyph glyph-name="l" unicode="l" horiz-adv-x="670" 
d="M33 561v-410q0 -32 9 -59.5t25.5 -47.5t40.5 -32t53 -12h515v176h-323q-17 0 -17 14v371h-303zM351 155h304v-134h-494q-24 0 -44 10t-34 28t-21.5 41.5t-7.5 50.5v389h261v-350q0 -20 8 -26.5t28 -8.5z" />
    <glyph glyph-name="FL006Dh" unicode="m" horiz-adv-x="1076" 
d="M794 282v-261h268v519h-338q-11 0 -27 -10.5t-33.5 -27t-35 -36t-32 -37.5t-24.5 -31t-12 -17h-3q0 1 -2 3q-4 5 -14 19t-24.5 31.5t-31 36t-32.5 34t-30 25.5t-23 10h-345v-519h267v261l228 -261h19zM774 0v224l-194 -224h-40l-197 224v-224h-309v561h366
q15 0 36.5 -16.5t44 -39.5t43.5 -47.5t35 -41.5q13 18 35 42.5t45.5 47.5t46 39t38.5 16h359v-561h-309z" />
    <glyph glyph-name="FL0071h" unicode="n" horiz-adv-x="886" 
d="M431 118q12 -16 26.5 -33t31.5 -31.5t36.5 -23.5t40.5 -9h306v519h-263v-269l-107 175q-8 12 -22 28.5t-31 31t-35 24.5t-33 10h-326v-519h264v262zM381 561q18 0 39 -11t40.5 -27.5t35.5 -34.5t24 -31l68 -110v214h305v-561h-327q-26 0 -48.5 10t-41.5 25.5t-35 34
t-28 35.5l-73 107v-212h-306v561h347z" />
    <glyph glyph-name="FL006Fh" unicode="o" 
d="M337 178q0 -2 1 -2h114q0 -1 2 3q0 2 2 4v192q0 3 -0.5 6.5l-0.5 3.5h-116q-2 -2 -2 -10v-197zM316 375q0 8 4.5 18.5t15.5 12.5h119q11 0 16.5 -11.5t5.5 -19.5v-198q-3 -5 -9.5 -13.5t-12.5 -8.5h-117q-12 0 -16.5 8.5t-5.5 13.5v198zM183 540q-26 0 -49.5 -11.5
t-41 -30.5t-28 -42t-10.5 -47v-275q0 -21 11 -41.5t29 -36.5t40 -25.5t43 -9.5h439q22 0 43.5 9.5t39 25.5t28.5 36.5t11 41.5v275q0 24 -10 47t-27.5 42t-41 30.5t-49.5 11.5h-427zM610 561q31 0 58 -13.5t47 -35t32 -49t12 -54.5v-275q0 -26 -13 -50t-33.5 -43t-46 -30
t-50.5 -11h-439q-25 0 -50.5 11t-46.5 30t-34 43t-13 50v275q0 27 12 54.5t32.5 49t47.5 35t58 13.5h427z" />
    <glyph glyph-name="FL0070h" unicode="p" 
d="M33 561v-561h304v146h260q45 0 76 19t50 49.5t27.5 68.5t8.5 77q0 27 -8 62t-27 66t-50.5 52t-77.5 21h-563zM596 540q40 0 67 -18.5t43.5 -46t24 -59t7.5 -56.5q0 -35 -7.5 -70t-24 -62.5t-43.5 -44.5t-66 -17h-281v-145h-262v519h542zM442 301q10 0 17.5 5.5t12.5 13.5
t7.5 17.5t2.5 17.5q0 6 -2 15t-6 17t-10.5 13.5t-15.5 5.5h-132v-105h126zM448 385q7 0 10 -11t3 -19q0 -10 -5.5 -21.5t-13.5 -11.5h-105v63h111z" />
    <glyph glyph-name="FL0072h" unicode="q" horiz-adv-x="756" 
d="M829 40h-116q22 19 36 44t14 52v279q0 28 -12 55.5t-32.5 49.5t-48 35.5t-58.5 13.5h-428q-31 0 -58.5 -13.5t-47.5 -35.5t-32 -49.5t-12 -55.5v-279q0 -26 13 -50.5t34 -43.5t46.5 -30.5t49.5 -11.5h77l17 -28v1q11 -20 29 -40t40.5 -36.5t47.5 -27t50 -10.5h391v181z
M290 -18l-22 39h-91q-21 0 -43 10t-39.5 26t-28.5 36.5t-11 42.5v279q0 24 10.5 48t28 43t41 30.5t49.5 11.5h428q27 0 50.5 -11.5t41 -30.5t28 -43t10.5 -48v-279q0 -21 -10.5 -41t-27.5 -36t-38 -26.5t-42 -11.5v-2h184v-139h-370q-23 0 -45 9t-41.5 24t-35.5 33t-26 36z
M318 180l2 -4q2 -7 6.5 -12.5t12.5 -5.5h121q2 0 9 8.5t10 13.5v201q0 8 -5 19.5t-17 11.5h-120q-10 -2 -15 -13t-5 -19q1 -1 1 -12v-188zM339 368v9t-1 6q0 5 3 8h116l0.5 -4t0.5 -6v-198q-1 -1 -1 -4v-1h-116v1q0 1 -0.5 2t-0.5 2q-1 0 -1 1v184z" />
    <glyph glyph-name="r" unicode="r" horiz-adv-x="778" 
d="M338 385v-63h106q8 0 13.5 12t5.5 22q0 8 -3 18.5t-10 10.5h-112zM450 406q9 0 15.5 -5.5t10.5 -13t6 -16.5t2 -15q0 -8 -2.5 -17.5t-7.5 -17.5t-12.5 -14t-17.5 -6h-127v105h133zM55 540v-519h262v138q0 3 7 4l9 3h2q17 0 32 -9t26 -22l87 -114h325l-150 192q-1 1 -1 8
q0 10 5 13q23 0 39 15t25.5 37.5t14 48.5t4.5 49q0 26 -5.5 53.5t-20.5 50.5t-40.5 37.5t-65.5 14.5h-555zM34 0v561h576q46 0 76 -17t47 -43t23.5 -57t6.5 -60q0 -23 -4.5 -50t-14.5 -51t-26 -42.5t-39 -24.5l170 -216h-380l-94 122q-8 8 -17.5 15t-19.5 9v-146h-304z" />
    <glyph glyph-name="s" unicode="s" horiz-adv-x="867" 
d="M55 156v-135h319q24 0 46.5 9.5t42 24t35 32.5t25.5 35l125 222q3 7 10.5 18t17 20.5t19.5 16.5t19 7h139v134h-334q-19 0 -41 -12.5t-41.5 -29t-34 -33t-19.5 -25.5l-125 -222q-5 -8 -12 -18.5t-16 -20t-18.5 -16.5t-17.5 -7h-139zM34 0v176h160q4 0 10 5.5t12 13.5
t12 17t11 16h-1l126 221q5 9 21.5 28t38.5 37.5t47 32.5t48 14h355v-176h-160q-5 0 -12 -5.5t-14 -13.5t-12.5 -17t-8.5 -15l-126 -221q-11 -20 -28 -40t-39 -36.5t-47.5 -26.5t-52.5 -10h-340z" />
    <glyph glyph-name="FL0074h" unicode="t" horiz-adv-x="716" 
d="M722 561h-689v-176h191v-385h304v385h194v176zM508 21h-263v385h-191v134h647v-134h-193v-385z" />
    <glyph glyph-name="FL0075h" unicode="u" 
d="M338 561h-305v-427q0 -24 13 -48t34 -43t46.5 -31t50.5 -12h439q25 0 50.5 11t46 30t33.5 43t13 50v427h-303v-380q-2 -2 -2 -3t-1 -2h-113q0 1 -0.5 2t-0.5 2q-1 0 -1 1v380zM317 177q1 -2 1 -3t1 -3q2 -6 6 -11t13 -5h117q8 0 13 7t8 12v1q1 0 1 1v364h261v-406
q0 -21 -11 -41.5t-28.5 -36.5t-39 -25.5t-43.5 -9.5h-439q-21 0 -43 10t-40 25.5t-29 36t-11 41.5v406h263v-363z" />
    <glyph glyph-name="FL0076h" unicode="v" horiz-adv-x="892" 
d="M-1 561l397 -503q5 -6 14.5 -15.5t21.5 -19.5t25.5 -17t27.5 -7h413v561h-306v-300l-227 301h-366zM586 232q1 -1 1.5 -2t1.5 -2q2 -3 4.5 -5t7.5 -2q2 1 3.5 2t3.5 2q5 2 5 4v310h264v-519h-392q-10 0 -21 6t-21 14.5t-18 17t-12 13.5l-370 469h310z" />
    <glyph glyph-name="FL0077h" unicode="w" horiz-adv-x="1076" 
d="M324 172l-1 2q0 1 -1 3v363h-267v-406q0 -21 11.5 -41.5t29.5 -36t40 -25.5t43 -10h758q22 0 44.5 9.5t40.5 25.5t29 36.5t11 41.5v406h-267v-363q0 -1 -1 -1v-1q-2 -5 -7 -12.5t-13 -7.5h-60q-9 0 -13 6t-6 11q-1 0 -1 3v365h-269v-366l-1 -1v1q-3 -5 -8.5 -12t-11.5 -7
h-61q-9 0 -13 6t-6 11zM343 561v-380q0 -1 1 -1q0 -1 0.5 -2t0.5 -2h57l2 3v382h311v-381v-4h56q0 -1 2 3q0 2 2 4v378h308v-427q0 -26 -13.5 -50t-34.5 -43t-47 -30t-51 -11h-758q-25 0 -50.5 12t-46.5 31t-34.5 43t-13.5 48v427h309z" />
    <glyph glyph-name="x" unicode="x" horiz-adv-x="718" 
d="M172 21q26 0 51.5 4t48.5 21q18 12 37.5 29t36.5 46q4 -4 6 -8v1q1 -1 1 -2l1 -1q11 -13 26.5 -28.5t32.5 -29t36 -23t37 -9.5h217v135h-40q-24 0 -51 15t-50 38t-38 49.5t-15 49.5q0 11 9.5 27.5t22.5 32t26.5 26.5t20.5 11h115v135h-198q-21 -5 -38.5 -17t-30.5 -25
t-21.5 -25.5t-12.5 -18.5q-2 -3 -5 -6q-3 4 -7 8.5t-8 9.5q-8 11 -18.5 24t-23.5 24t-29.5 18.5t-37.5 7.5h-219v-135h37q3 0 12.5 -0.5t22 -3t25.5 -7t22 -12.5q25 -23 43.5 -47.5t36.5 -50.5l6 -9q-5 -18 -21 -39t-35.5 -38.5t-38 -29t-27.5 -11.5h-83v-136h118zM33 0v177
h104q7 0 20.5 8.5t29 22t29 30t20.5 32.5q-2 2 -4 5t-4 7h1q-2 2 -3 4v-1q-15 20 -31 41t-36 40q-8 7 -18.5 10.5t-20.5 5.5t-18 2.5t-11 0.5h-58v176h240q24 0 42.5 -7.5t33.5 -19t26.5 -25t20.5 -25.5q14 19 40 42.5t68 34.5h220v-176h-136q-5 0 -15 -8.5t-20 -21
t-17 -25.5t-7 -22q0 -20 13 -43t33 -43t43.5 -33t44.5 -13h61v-176h-238q-20 0 -39.5 8t-37.5 20.5t-34 27.5t-28 29q-15 -20 -30.5 -33.5t-30.5 -22.5q-26 -18 -54.5 -23.5t-59.5 -5.5h-139z" />
    <glyph glyph-name="FL0079h" unicode="y" horiz-adv-x="718" 
d="M724 385v176h-228q-41 -12 -66.5 -37t-38.5 -45v2q-10 13 -22 27t-27 26t-34 19.5t-42 7.5h-233v-176h58q5 0 27 -4t42 -22l11 -11q17 -15 32.5 -30.5t21.5 -34.5v-283h304v301q0 12 9.5 24.5t23 24t27.5 21t23 14.5h112zM608 405q-9 -4 -25.5 -14.5t-33 -25t-28.5 -31.5
t-12 -33v-280h-263v263q-9 29 -25 46.5t-36 34.5q-4 3 -10 9q-12 11 -25.5 17t-25.5 9t-21 4t-12 1h-37v135h212q19 0 35 -7t29 -17.5t23.5 -23t19.5 -23.5q10 -14 21 -24l4 6q4 6 12 18.5t20.5 26t29.5 26t38 18.5h205v-135h-95z" />
    <glyph glyph-name="FL007Dh" unicode="z" horiz-adv-x="866" 
d="M873 0v176h-160q-5 0 -12 6.5t-14 15.5t-13 18.5t-9 15.5l-127 226q-6 9 -21.5 26t-36 34t-44.5 30t-48 13h-354v-176h158q4 0 10.5 -5.5t13 -13t12.5 -16.5t11 -15l1 -2l125 -220q11 -20 29 -40t40.5 -36t48 -26.5t51.5 -10.5h339zM534 21q-23 0 -45.5 9t-42.5 23.5
t-36 32.5t-26 36l-126 222q-5 7 -12 18t-16 20.5t-19 16.5t-19 7h-137v134h333q20 0 41.5 -12.5t40.5 -29.5t33.5 -33.5t20.5 -25.5v1l122 -218q4 -7 11 -18t16 -21.5t19.5 -18.5t20.5 -8h139v-135h-318z" />
    <glyph glyph-name="FL0060h" unicode="{" horiz-adv-x="1454" 
d="M626 156v-135h326q24 0 47 9.5t42.5 24t35 32.5t26.5 36l129 222v-1q3 7 10 18t17 20.5t20.5 16.5t19.5 7h141v134h-341q-19 0 -41 -12.5t-42 -29.5t-35 -33.5t-20 -25.5v1l-127 -222q-5 -8 -12.5 -18.5t-16.5 -20t-18.5 -16.5t-18.5 -7h-142zM56 156v-135h325
q24 0 47 9.5t43 24t35.5 32.5t26.5 36l129 222v-1q3 7 10 18t17 20.5t20.5 16.5t19.5 7h141v134h-341q-20 0 -42 -12.5t-42 -29.5t-35 -33.5t-20 -25.5v1l-126 -222q-5 -8 -12.5 -18.5t-16.5 -20t-18.5 -16.5t-18.5 -7h-142zM34 0v176h164q5 0 11.5 5.5t13 13.5t12 17
t9.5 16h-1l128 222v-1q5 9 22 28t39.5 37.5t48 32.5t48.5 14h362v-176h-162q-6 0 -13 -6t-14.5 -14.5t-13 -17.5t-8.5 -16l-128 -219v1q-11 -20 -28.5 -40t-40 -36t-48.5 -26.5t-54 -10.5h-347zM604 0v176h164q5 0 11.5 5.5t13 13.5t12 17t9.5 16h-1l129 222v-1q5 9 22 28
t39.5 37.5t47.5 32.5t48 14h362v-176h-162q-6 0 -13 -6t-14.5 -14.5t-13 -17.5t-8.5 -16l-128 -219v1q-11 -20 -28.5 -40t-39.5 -36t-48 -26.5t-54 -10.5h-348z" />
    <glyph glyph-name="FL007Eh" unicode="|" horiz-adv-x="305" 
d="M311 737h-280v-899h280v899zM51 716h241v-857h-241v857z" />
    <glyph glyph-name="FL0083h" unicode="}" horiz-adv-x="1504" 
d="M56 156v-135h326q24 0 46.5 9.5t42.5 24t36 32.5t27 36v-1l128 222q3 7 10.5 18t17.5 20.5t20 16.5t19 7h142v134h-341q-20 0 -42.5 -12.5t-42 -29t-34.5 -33t-20 -25.5l-127 -222q-5 -8 -12.5 -18.5t-16.5 -20t-18.5 -16.5t-18.5 -7h-142zM34 0v177h164q4 0 10.5 5.5
t13.5 13.5t13 17t10 16l127 220q5 9 21.5 28t39 37.5t48 32.5t49.5 14h362v-176h-163q-5 0 -12.5 -6t-14.5 -14.5t-12.5 -17.5t-8.5 -16l-129 -219v1q-11 -20 -28.5 -40t-39.5 -36t-48 -26.5t-54 -10.5h-348zM640 21h316l239 310v-1q4 6 6 8t7 2q2 -2 6 -4l6 -3v-311h270
v519h-399q-10 0 -21 -6t-21.5 -14.5t-19 -17t-11.5 -13.5zM595 0l404 502q4 6 14.5 16t23 20t27 17t27.5 7h420v-561h-312v299l-231 -300h-373z" />
    <glyph glyph-name="FL0082h" unicode="~" horiz-adv-x="1433" 
d="M522 406h201v134h-667v-134h197v-385h269v385zM605 156v-135h327q24 0 46.5 9.5t42 24t35.5 32.5t26 36l129 222v-1q3 7 10 18t17 20.5t20.5 16.5t19.5 7h141v134h-341q-19 0 -41 -12.5t-42 -29.5t-35 -33.5t-20 -25.5v1l-127 -222q-5 -8 -12.5 -18.5t-16.5 -20
t-18.5 -16.5t-18.5 -7h-142zM744 385h-200v-385h-312v385h-198v176h710v-176zM584 0v176h163q4 0 10.5 5.5t13 13.5t12.5 17t11 16h-1l128 221q5 9 22 28t39.5 37.5t47.5 32.5t48 14h362v-176h-162q-6 0 -13 -6t-14.5 -14.5t-13 -17.5t-8.5 -16l-128 -219v1
q-11 -20 -28.5 -40t-39 -36t-47.5 -26.5t-54 -10.5h-348z" />
    <glyph glyph-name="FL007Fh" horiz-adv-x="236" 
 />
    <glyph glyph-name="FL20ACh" horiz-adv-x="774" 
d="M54 353v-58h112v-32h-112v-58h112v-71q0 -21 11 -41.5t28.5 -36.5t39.5 -25.5t43 -9.5h466v134h-304q-19 0 -21 22v28h171v58h-171v32h171v58h-171v24q0 8 5.5 18.5t15.5 10.5h309v134h-465q-26 0 -49.5 -11.5t-41 -30.5t-27.5 -42t-10 -47v-56h-112zM33 373h112v36
q0 27 11.5 54.5t32 49t47.5 35t58 13.5h486v-176h-330v-12h171v-188h-171v-9h325v-176h-487q-25 0 -50.5 11t-46 30t-33.5 43t-13 50v51h-112v188z" />
    <glyph glyph-name="FL20ACh" unicode="&#x20ac;" horiz-adv-x="774" 
d="M54 353v-58h112v-32h-112v-58h112v-71q0 -21 11 -41.5t28.5 -36.5t39.5 -25.5t43 -9.5h466v134h-304q-19 0 -21 22v28h171v58h-171v32h171v58h-171v24q0 8 5.5 18.5t15.5 10.5h309v134h-465q-26 0 -49.5 -11.5t-41 -30.5t-27.5 -42t-10 -47v-56h-112zM33 373h112v36
q0 27 11.5 54.5t32 49t47.5 35t58 13.5h486v-176h-330v-12h171v-188h-171v-9h325v-176h-487q-25 0 -50.5 11t-46 30t-33.5 43t-13 50v51h-112v188z" />
    <glyph glyph-name="FL017Fh" horiz-adv-x="1454" 
d="M1461 0v176h-163q-5 0 -11.5 5.5t-13 13.5t-12.5 17t-10 16h1l-129 222q-6 9 -22.5 27.5t-39 37t-47.5 32.5t-48 14h-362v-176h163q5 0 12.5 -6t14.5 -14.5t12.5 -17.5t8.5 -16l130 -222v1q11 -19 29.5 -38.5t41 -35.5t47.5 -26t50 -10h348zM891 0v176h-163
q-5 0 -11.5 5.5t-13 13.5t-12.5 17t-10 16h1l-129 222q-6 9 -22.5 27.5t-39 37t-48 32.5t-48.5 14h-361v-176h163q5 0 12.5 -6t14.5 -14.5t12.5 -17.5t8.5 -16l129 -222v1q11 -19 29.5 -38.5t41 -35.5t47.5 -26t51 -10h348zM543 21q-23 0 -45.5 9t-43 23.5t-37 32.5
t-26.5 36l-127 222q-3 7 -10.5 18t-17.5 20.5t-20 16.5t-19 7h-141v134h339q20 0 42.5 -12.5t42 -29t34.5 -33t20 -25.5l128 -222q4 -8 11.5 -18.5t16.5 -20t19 -16.5t19 -7h142v-135h-327zM1113 21q-22 0 -45 9t-43 23.5t-36.5 32.5t-26.5 36l-128 222q-3 7 -10.5 18
t-17.5 20.5t-20 16.5t-19 7h-141v134h340q20 0 42 -12.5t42 -29t34.5 -33t19.5 -25.5l128 -222q4 -8 11.5 -18.5t16.5 -20t19 -16.5t19 -7h142v-135h-327z" />
    <glyph glyph-name="FL017Fh" unicode="&#x17d;" horiz-adv-x="1454" 
d="M1461 0v176h-163q-5 0 -11.5 5.5t-13 13.5t-12.5 17t-10 16h1l-129 222q-6 9 -22.5 27.5t-39 37t-47.5 32.5t-48 14h-362v-176h163q5 0 12.5 -6t14.5 -14.5t12.5 -17.5t8.5 -16l130 -222v1q11 -19 29.5 -38.5t41 -35.5t47.5 -26t50 -10h348zM891 0v176h-163
q-5 0 -11.5 5.5t-13 13.5t-12.5 17t-10 16h1l-129 222q-6 9 -22.5 27.5t-39 37t-48 32.5t-48.5 14h-361v-176h163q5 0 12.5 -6t14.5 -14.5t12.5 -17.5t8.5 -16l129 -222v1q11 -19 29.5 -38.5t41 -35.5t47.5 -26t51 -10h348zM543 21q-23 0 -45.5 9t-43 23.5t-37 32.5
t-26.5 36l-127 222q-3 7 -10.5 18t-17.5 20.5t-20 16.5t-19 7h-141v134h339q20 0 42.5 -12.5t42 -29t34.5 -33t20 -25.5l128 -222q4 -8 11.5 -18.5t16.5 -20t19 -16.5t19 -7h142v-135h-327zM1113 21q-22 0 -45 9t-43 23.5t-36.5 32.5t-26.5 36l-128 222q-3 7 -10.5 18
t-17.5 20.5t-20 16.5t-19 7h-141v134h340q20 0 42 -12.5t42 -29t34.5 -33t19.5 -25.5l128 -222q4 -8 11.5 -18.5t16.5 -20t19 -16.5t19 -7h142v-135h-327z" />
    <glyph glyph-name="FL017Eh" horiz-adv-x="867" 
d="M874 0v181h-161q-5 0 -11 5.5t-12.5 13t-12.5 16.5t-10 16h1l-125 227h-1q-5 10 -21 29.5t-38 38t-47 32.5t-48 14h-354v-180h159q6 0 12.5 -5.5t13.5 -14t12 -17.5t8 -15l126 -226q11 -20 29 -40.5t40 -37t47.5 -27t51.5 -10.5h341zM533 21q-23 0 -45 9.5t-42 24.5
t-36 33.5t-26 36.5l-126 226q-3 7 -10.5 18t-16.5 21t-19 17t-19 7h-138v138h333q20 0 42 -12.5t41.5 -29.5t33.5 -34.5t19 -26.5l124 -226q5 -8 12.5 -19t16.5 -20.5t18 -16.5t18 -7h140v-139h-320zM418 792h-212l151 -198h190l150 198h-212l-33 -47zM452 709l45 62h156
l-117 -156h-167l-121 156h159z" />
    <glyph glyph-name="FL017Eh" unicode="&#x17e;" horiz-adv-x="867" 
d="M874 0v181h-161q-5 0 -11 5.5t-12.5 13t-12.5 16.5t-10 16h1l-125 227h-1q-5 10 -21 29.5t-38 38t-47 32.5t-48 14h-354v-180h159q6 0 12.5 -5.5t13.5 -14t12 -17.5t8 -15l126 -226q11 -20 29 -40.5t40 -37t47.5 -27t51.5 -10.5h341zM533 21q-23 0 -45 9.5t-42 24.5
t-36 33.5t-26 36.5l-126 226q-3 7 -10.5 18t-16.5 21t-19 17t-19 7h-138v138h333q20 0 42 -12.5t41.5 -29.5t33.5 -34.5t19 -26.5l124 -226q5 -8 12.5 -19t16.5 -20.5t18 -16.5t18 -7h140v-139h-320zM418 792h-212l151 -198h190l150 198h-212l-33 -47zM452 709l45 62h156
l-117 -156h-167l-121 156h159z" />
    <glyph glyph-name="FL00A1h" unicode="&#xa1;" horiz-adv-x="305" 
d="M272 455q0 18 -8 33.5t-22 27t-32.5 18t-38.5 6.5q-21 0 -39 -6.5t-31.5 -18t-21.5 -27t-8 -33.5q0 -35 29 -59t71 -24q20 0 38.5 6.5t32.5 17.5t22 26.5t8 32.5zM292 455q0 -22 -9.5 -41t-26 -33t-38.5 -22t-47 -8t-46.5 8t-38 22t-26 33t-9.5 41t9.5 41.5t26 34
t38 22.5t46.5 8t47 -8t38.5 -22.5t26 -34t9.5 -41.5zM51 21h241v227l-20 81h-201l-20 -81v-227zM311 0h-280v249l25 101h232l23 -101v-249z" />
    <glyph glyph-name="FL00A2h" unicode="&#xa2;" horiz-adv-x="735" 
d="M741 205h-397v2q-2 2 -5 7t-1 3v149h402v178h-178v90h-251v-90h-129q-30 0 -57.5 -12.5t-47.5 -33.5t-32 -48t-12 -55v-215q0 -26 12 -53t32.5 -49t48 -36.5t57.5 -14.5h130v-84h250v84h178v178zM543 -36h-210v84h-150q-26 0 -49.5 12t-41 31.5t-28 42.5t-10.5 46v215
q0 24 10.5 47t28 41t40.5 29t49 11h150v90h209v-90h179v-136h-383q-9 0 -14.5 -6t-5.5 -14v-162q4 -1 5.5 -4t3.5 -6q2 -5 4 -8t8 -3h382v-136h-177v-84z" />
    <glyph glyph-name="FL00A3h" unicode="&#xa3;" horiz-adv-x="684" 
d="M54 345v-131h97q-3 -18 -3 -37v-11q0 -8 3 -11h-97v-134h615v134h-231q-19 0 -26.5 9.5t-7.5 23.5q0 15 7 22t28 7h129v127h-128q-21 0 -28 6t-7 23q0 14 7.5 23.5t26.5 9.5h56v134h-205q-35 0 -61 -15t-44 -38t-27 -50.5t-9 -52.5q0 -10 1 -20t3 -19h-99zM33 366h96
q-1 5 -1 9v9q0 27 10.5 58.5t31 57.5t50.5 43.5t70 17.5h225v-176h-76q-14 0 -14 -12q0 -8 15 -8h148v-169h-149q-14 0 -14 -8q0 -12 13 -12h252v-176h-657v176h95v17h-95v173z" />
    <glyph glyph-name="FL00BDh" unicode="&#xa4;" horiz-adv-x="795" 
d="M-4 0h364l56 66l56 -66h364l-237 281l236 280h-364l-55 -65l-55 65h-364l236 -280zM262 281l-220 259h309l65 -77l66 77h307l-219 -259l220 -260h-307l-67 78l-66 -78h-309zM378 364q-19 0 -32 -13.5t-13 -28.5v-77q0 -13 14 -24.5t28 -11.5h90q15 0 28.5 11.5t13.5 24.5
v77q0 15 -13 28.5t-31 13.5h-85zM378 343h85q8 0 15.5 -6.5t7.5 -14.5v-77q0 -6 -6.5 -10.5t-14.5 -4.5h-90q-8 0 -14.5 4.5t-6.5 10.5v77q0 8 7.5 14.5t16.5 6.5z" />
    <glyph glyph-name="FL00A5h" unicode="&#xa5;" horiz-adv-x="718" 
d="M104 287v-57h142v-65h-142v-57h142v-87h263v87h139v57h-139v65h139v57h-139v14q0 16 12 33t28.5 31.5t33 25t25.5 14.5h95v135h-205q-21 -6 -38 -18.5t-29.5 -26t-20.5 -26t-12 -18.5l-4 -6q-11 10 -21 24q-9 11 -19.5 23.5t-23.5 23t-29 17.5t-35 7h-212v-135h37
q3 0 12 -1t21 -4t25.5 -9t25.5 -17q2 -3 5.5 -5.5t6.5 -5.5q17 -15 32 -31t25 -45h-140zM83 308h125q-7 9 -14.5 17t-15.5 16l-4 4q-3 2 -7 6l-6 6q-11 10 -22 15.5t-21 8.5t-17 3.5t-10 0.5h-58v176h233q23 0 42 -7.5t34 -19.5t27 -26t22 -27v-2q13 20 38.5 45t66.5 37h228
v-176h-112q-8 -5 -21 -13t-26 -18.5t-23 -22.5t-13 -23h140v-99h-140v-23h140v-98h-140v-88h-304v88h-142v98h142v23h-142v99z" />
    <glyph glyph-name="FL00B8h" unicode="&#xa6;" horiz-adv-x="305" 
d="M311 691h-280v-803h280v803zM51 670h241v-761h-241v761z" />
    <glyph glyph-name="FL00A7h" unicode="&#xa7;" horiz-adv-x="795" 
d="M-4 0h364l475 561h-364zM482 540h307l-439 -519h-309zM378 364q-19 0 -32 -13.5t-13 -28.5v-77q0 -13 14 -24.5t28 -11.5h90q15 0 28.5 11.5t13.5 24.5v77q0 15 -13 28.5t-31 13.5h-85zM378 343h85q8 0 15.5 -6.5t7.5 -14.5v-77q0 -6 -6.5 -10.5t-14.5 -4.5h-90
q-8 0 -14.5 4.5t-6.5 10.5v77q0 8 7.5 14.5t16.5 6.5z" />
    <glyph glyph-name="FL00A8h" unicode="&#xa8;" horiz-adv-x="449" 
d="M48 399q0 -27 26 -45.5t62 -18.5q37 0 63 18.5t26 45.5q0 26 -25.5 44.5t-63.5 18.5q-37 0 -62.5 -18.5t-25.5 -44.5zM440 399q0 26 -25.5 44.5t-63.5 18.5q-37 0 -62.5 -18.5t-25.5 -44.5q0 -27 26 -45.5t62 -18.5q37 0 63 18.5t26 45.5zM28 399q0 35 31 58t77 23
q43 0 73 -20.5t35 -50.5q5 30 34.5 50.5t72.5 20.5q47 0 78 -23t31 -58t-31.5 -58.5t-77.5 -23.5q-42 0 -72 19.5t-35 49.5q-6 -30 -36 -49.5t-72 -19.5q-46 0 -77 23.5t-31 58.5z" />
    <glyph glyph-name="copyright" unicode="&#xa9;" horiz-adv-x="238" 
d="M196 457q0 1 -0.5 2t-0.5 3l-26 -7l27 -7v9zM136 432q12 0 18 24q-8 18 -16 18q-15 0 -15 -21t13 -21zM137 400q17 0 28 9t16 24l-13 4q-8 -24 -32 -24q-32 0 -32 40t34 40q19 0 28 -19l12 2q-9 28 -40 28q-22 0 -35.5 -13t-13.5 -38t13.5 -39t34.5 -14zM137 531
q11 0 20.5 -2t17.5 -8h-1q12 -5 19 -13t12 -16v1q10 -17 10 -40q0 -22 -12 -44q-10 -15 -28 -23q-19 -11 -38 -11q-20 0 -40 11q-19 10 -29 28q-9 19 -9 39q0 21 9 39q11 20 30 29.5t39 9.5zM137 545q-12 0 -23.5 -3.5t-22.5 -8.5q-24 -14 -33 -34q-13 -24 -13 -46
q0 -26 13 -46q5 -11 13.5 -18.5t20.5 -15.5h-1q11 -5 22.5 -8.5t23.5 -3.5q1 0 4 1q5 2 15.5 4.5t26.5 6.5h-1q12 8 20.5 15.5t14.5 18.5q12 21 12 46q0 26 -12 46q-11 20 -35 34q-10 5 -21.5 8.5t-23.5 3.5zM137 563q14 0 27 -3.5t26 -9.5q15 -8 26 -19.5t19 -24.5h-1
q14 -25 14 -53q0 -29 -15 -54h1q-8 -15 -18 -25t-24 -18q-10 -2 -20 -4.5t-16 -4.5q-4 -2 -8 -2l-10 -3q-16 0 -30.5 4t-28.5 11q-21 12 -38 40q-15 27 -15 56q0 15 4 28t11 26q7 14 17 24.5t26 18.5q28 13 53 13z" />
    <glyph glyph-name="FL00AAh" unicode="&#xaa;" horiz-adv-x="389" 
d="M225 303h170v205q0 14 -7 27.5t-18.5 24t-26 17t-29.5 6.5h-203q-14 0 -28 -6t-25 -16.5t-18.5 -24t-7.5 -28.5v-205h169v66h24v-66zM245 388h-64v-65h-129v185q0 21 19 38.5t40 17.5h203q11 0 22 -5t19.5 -12.5t14 -18t5.5 -20.5v-185h-130v65zM187 494q-4 0 -6 -5v-34
h64v35q0 4 -4 4h-54zM201 476h24v-1h-24v1z" />
    <glyph glyph-name="FL00ABh" unicode="&#xab;" horiz-adv-x="530" 
d="M557 326l-122 116l-120 -114l-119 114l-184 -176l184 -177l120 115l119 -115l122 117l-62 60zM281 266l154 148l92 -88l-62 -60l62 -60l-92 -88zM42 266l154 148l92 -88l-62 -60l62 -60l-92 -88z" />
    <glyph glyph-name="FL00ACh" unicode="&#xac;" horiz-adv-x="361" 
d="M367 334h-335v-157h170v-83h165v240zM222 195h-170v120h295v-202h-125v82z" />
    <glyph glyph-name="FL00ADh" unicode="&#xad;" horiz-adv-x="321" 
d="M31 304v-143h295v143h-295zM51 286h256v-108h-256v108z" />
    <glyph glyph-name="registered" unicode="&#xae;" horiz-adv-x="238" 
d="M77 453q0 -10 2 -15v30q-2 -4 -2 -8v-7zM137 409q-1 2 -2 3t-2 3v-1q-2 0 -2 2v-23h6h8zM191 475q0 -21 -16 -34q1 -2 4 -5l4 -4l5 -9q8 13 8 30q0 13 -6 27q1 -2 1 -5zM112 489h18q17 0 18 -2q10 -3 10 -14q0 -8 -5 -12t-21 -4h-20v32zM98 501v-98h14v42h10q8 0 14 -3
q4 -3 17 -25v1l9 -15h15l-9 17q-8 12 -12 17.5t-11 8.5v2q13 0 20 8t7 19q0 3 -1 7t-3 7l-5 5t-8 4q-6 3 -25 3h-32zM137 531q11 0 20.5 -2t17.5 -8h-1q12 -5 19 -13t12 -16v1q10 -17 10 -40q0 -22 -12 -44q-10 -15 -28 -23q-19 -11 -38 -11q-20 0 -40 11q-19 10 -29 28
q-9 19 -9 39q0 21 9 39q11 20 30 29.5t39 9.5zM137 545q-12 0 -23.5 -3.5t-22.5 -8.5q-24 -14 -33 -34q-13 -24 -13 -46q0 -26 13 -46q5 -11 13.5 -18.5t20.5 -15.5h-1q11 -5 22.5 -8.5t23.5 -3.5q1 0 4 1q5 2 15.5 4.5t26.5 6.5h-1q12 8 20.5 15.5t14.5 18.5q12 21 12 46
q0 26 -12 46q-11 20 -35 34q-10 5 -21.5 8.5t-23.5 3.5zM137 563q14 0 27 -3.5t26 -9.5q15 -8 26 -19.5t19 -24.5h-1q14 -25 14 -53q0 -29 -15 -54h1q-8 -15 -18 -25t-24 -18q-10 -2 -20 -4.5t-16 -4.5q-4 -2 -8 -2l-10 -3q-16 0 -30.5 4t-28.5 11q-21 12 -38 40
q-15 27 -15 56q0 15 4 28t11 26q7 14 17 24.5t26 18.5q28 13 53 13z" />
    <glyph glyph-name="FL00B3h" unicode="&#xaf;" horiz-adv-x="556" 
d="M53 337h488v113h-488v-113zM562 468v-147h-529v147h529z" />
    <glyph glyph-name="FL00B1h" unicode="&#xb0;" horiz-adv-x="212" 
d="M26 397q0 -35 28 -58t70 -23t70 23t28 58t-28 58.5t-70 23.5q-43 0 -70.5 -23.5t-27.5 -58.5zM44 397q0 27 22.5 45.5t57.5 18.5q33 0 56 -18.5t23 -45.5q0 -26 -23.5 -44.5t-55.5 -18.5q-34 0 -57 18.5t-23 44.5zM94 397q0 -8 8 -13t21 -5t21 5t8 13t-8 13t-21 5t-21 -5
t-8 -13z" />
    <glyph glyph-name="FL00B2h" unicode="&#xb1;" horiz-adv-x="361" 
d="M368 171h-87v84h86v171h-86v88h-164v-88h-85v-171h85v-84h-84v-171h335v171zM261 186h-125v90h-84v129h84v88h125v-88h86v-129h-86v-90zM53 150h295v-129h-295v129z" />
    <glyph glyph-name="FL00B6h" unicode="&#xb2;" horiz-adv-x="380" 
d="M52 323h314v69h-184v18h123q9 0 19.5 5t20 13t15.5 18t6 21v36q0 23 -19 42t-45 19h-249v-70h179q5 0 5 -7v-10h-127q-19 0 -38.5 -12t-19.5 -32v-110zM32 303v130q0 13 5.5 23.5t14.5 19.5h-19v107h269q17 0 32.5 -6.5t27 -18t18 -26t6.5 -29.5v-36q0 -16 -9.5 -30.5
t-22.5 -25.5h32v-108h-354z" />
    <glyph glyph-name="FL00BCh" unicode="&#xb3;" horiz-adv-x="359" 
d="M32 303h243q25 0 42.5 9t28 22.5t15 30t4.5 32.5q0 12 -2.5 24t-9.5 24q11 20 11 45q0 15 -5.5 31t-17 30t-28 23t-38.5 9h-243v-280zM207 476q11 0 11 9t-10 9h-156v70h223q17 0 30 -7t21.5 -18t13 -24t4.5 -25t-3.5 -24t-12.5 -21q11 -11 14 -23.5t3 -24.5
q0 -13 -3.5 -26t-12 -23.5t-22 -17.5t-32.5 -7h-223v69h156q11 0 11 9t-11 9h-156v66h155z" />
    <glyph glyph-name="FL00B4h" unicode="&#xb4;" horiz-adv-x="795" 
d="M416 99l67 -78h307l-220 260l219 259h-307l-66 -77l-65 77h-309l220 -259l-221 -260h309zM416 66l-56 -66h-364l237 281l-236 280h364l55 -65l55 65h364l-236 -280l237 -281h-364z" />
    <glyph glyph-name="FL00B5h" unicode="&#xb5;" horiz-adv-x="740" 
d="M337 561h-305v-408q0 -32 9 -60t26 -48.5t40.5 -32.5t52.5 -12h581v176h-388q-16 0 -16 14v2h265q25 0 50.5 12t46 31t33.5 43t13 49v234h-304v-189l-1 -3v1q-1 -1 -1 -5h-102v5v191zM316 366q2 -6 7.5 -14t11.5 -8h107q9 0 12.5 6.5t5.5 12.5q1 1 1.5 2.5l0.5 1.5v173
h263v-213q0 -21 -11 -41.5t-29 -36.5t-40 -26t-43 -10h-286v-23q0 -20 8 -26.5t28 -8.5h368v-134h-560q-24 0 -43.5 10t-34 28t-22 42t-7.5 52v387h263v-174z" />
    <glyph glyph-name="FL007Ah" unicode="&#xb6;" horiz-adv-x="930" 
d="M395 122q10 -18 26 -36t36 -32.5t42.5 -23.5t44.5 -9h372v135h-189q-9 0 -19 8t-19 19t-16 22t-11 18v-1l-126 217q-8 14 -22.5 31.5t-33 33t-39.5 26t-41 10.5h-345v-134h150q9 0 18.5 -7t18.5 -16.5t16.5 -20.5t11.5 -18zM937 176v-176h-393q-26 0 -51.5 10.5
t-47.5 26.5t-40 36t-29 40l-125 222q-3 6 -9 15t-12.5 16.5t-13 13t-11.5 5.5h-171v176h366q23 0 47.5 -12t45.5 -29t38 -37t25 -35h-1l125 -216v1q3 -6 9 -15.5t12.5 -18.5t13.5 -16t12 -7h210z" />
    <glyph glyph-name="FL00B7h" unicode="&#xb7;" horiz-adv-x="260" 
d="M49 257q0 -31 29 -52.5t70 -21.5q19 0 37 6t31.5 16t21.5 23.5t8 28.5t-8 28.5t-21.5 23.5t-31.5 15.5t-37 5.5q-41 0 -70 -21t-29 -52zM30 257q0 19 9.5 36t25.5 29.5t37.5 19.5t45.5 7t45.5 -7t37 -19.5t25 -29.5t9.5 -36q0 -20 -9.5 -36.5t-25 -29t-37 -19.5t-45.5 -7
t-45.5 7t-37.5 19.5t-25.5 29t-9.5 36.5z" />
    <glyph glyph-name="FL00BAh" unicode="&#xb8;" horiz-adv-x="173" 
d="M-19 -18v-88h179v122h-109v-34h-70zM178 -123h-216v123h70v34h146v-157z" />
    <glyph glyph-name="FL00BEh" unicode="&#xb9;" horiz-adv-x="221" 
d="M92 322h115v241h-158v-70h43v-171zM226 302h-153v173h-43v107h196v-280z" />
    <glyph glyph-name="FL00B0h" unicode="&#xba;" horiz-adv-x="389" 
d="M194 464q0 6 6 8h27q4 0 5.5 -3t1.5 -5v-46q-2 -6 -7 -6h-27q-6 0 -6 6v46zM112 564q-12 0 -22.5 -5.5t-19 -14t-13.5 -19.5t-5 -22v-129q0 -20 18.5 -35.5t38.5 -15.5h208q21 0 39.5 15.5t18.5 35.5v129q0 22 -18 41.5t-42 19.5h-203zM315 583q16 0 31 -7t25.5 -18.5
t17 -26t6.5 -28.5v-129q0 -14 -7 -27t-18 -22.5t-25 -15.5t-28 -6h-208q-13 0 -26.5 6t-25 15.5t-18.5 22.5t-7 27v129q0 14 6.5 28.5t17.5 26t25.5 18.5t30.5 7h203z" />
    <glyph glyph-name="FL00BBh" unicode="&#xbb;" horiz-adv-x="530" 
d="M281 206l92 -88l154 148l-154 148l-92 -88l63 -60zM42 206l92 -88l154 148l-154 148l-92 -88l63 -60zM75 266l-63 60l122 116l119 -114l120 114l184 -176l-184 -177l-120 115l-119 -115l-122 117z" />
    <glyph glyph-name="FL0763h" unicode="&#xbc;" horiz-adv-x="873" 
d="M-5 0h326l105 112v-77h215v-35h181v35h57v114h-57v151h-216q-4 0 -6 -1l243 262h-325l-182 -196v196h-227v-116h51v-184h78zM287 282h-106v184h-51v74h185v-228l214 228h265l-483 -519h-267zM565 249q4 6 17 18t24 12h195v-149h57v-74h-57v-35h-139v35h-215v51l118 143
v-1zM662 130v45l-35 -45h35z" />
    <glyph glyph-name="FL0740h" unicode="&#xbd;" horiz-adv-x="876" 
d="M527 252v-48h191q3 0 4 -3t1 -5v-10h-134q-11 0 -22 -3.5t-20 -10t-15 -15t-6 -18.5v-118h335v74h-196v20h131q10 0 21 5t21 13.5t16.5 19.5t6.5 22v39q0 24 -20 44.5t-48 20.5h-242l243 261h-265l-214 -228v228h-185v-74h51v-184h106l-243 -261h267zM505 139q0 14 6 25
t16 20h-21v14l-185 -198h-326l243 261h-78v184h-51v116h227v-196l182 196h325l-243 -261h193q18 0 34.5 -7.5t28.5 -19.5t19 -27.5t7 -31.5v-39q0 -17 -10 -32.5t-24 -26.5h34v-116h-377v139z" />
    <glyph glyph-name="FL077Ch" unicode="&#xbe;" horiz-adv-x="909" 
d="M698 175v-45h-35zM642 279q-11 0 -24 -12t-17 -18v1l-118 -143v-51h215v-35h139v35h58v74h-58v149h-195zM55 446v-70h168q12 0 12 -9q0 -10 -12 -10h-168v-75h240q7 0 21 3q0 -1 3.5 0t5.5 2l1 -2l-246 -264h266l484 519h-265l-198 -211l-2 1q5 18 5 32q0 13 -3 27
t-15 25q10 8 13.5 20.5t3.5 25.5t-4.5 27t-14 26t-23.5 19.5t-32 7.5h-240v-74h168q11 0 11 -11q0 -9 -12 -9h-167zM295 561q24 0 42 -9.5t30 -24.5t18 -33t6 -34q0 -12 -3 -24t-9 -22q8 -14 11 -28l164 175h325l-242 -262q2 1 5 1h216v-151h58v-114h-58v-35h-182v35h-214
v77l-105 -112h-326l243 261h-240v300h261z" />
    <glyph glyph-name="FL00BFh" unicode="&#xbf;" horiz-adv-x="735" 
d="M618 455q0 18 -9 33.5t-24 27t-34.5 18t-41.5 6.5q-23 0 -43 -6.5t-35 -18t-23.5 -27t-8.5 -33.5q0 -17 8.5 -32.5t23.5 -26.5t35 -17.5t43 -6.5q22 0 41.5 6.5t34.5 17.5t24 26.5t9 32.5zM499 214q18 0 39 7t39 19t29.5 28.5t11.5 35.5v38h-442q-18 0 -39.5 -10t-40 -26
t-30.5 -36.5t-12 -41.5v-81q0 -24 10.5 -46.5t28 -40t40.5 -28.5t49 -11h537v134h-382q-10 0 -15.5 10.5t-5.5 18.5v30h183zM449 362q-32 13 -51.5 38t-19.5 55q0 22 10.5 41.5t28 34t41.5 22.5t51 8q26 0 49.5 -8t41.5 -22.5t28.5 -34t10.5 -41.5q0 -29 -20 -54.5
t-52 -38.5h72v-58q0 -24 -14 -44t-35 -35t-45.5 -23.5t-45.5 -8.5h-162v-17h403v-176h-558q-30 0 -57.5 12.5t-47.5 33t-32 47t-12 54.5v81q0 24 14.5 48t36 43t46.5 31t46 12h273z" />
    <glyph glyph-name="FL00C0h" unicode="&#xc0;" 
d="M454 389q-1 1 -1 4h-114q-1 -2 -1 -3t-1 -3v-61h118v61q-1 0 -1 2zM416 757q-13 16 -36 16q-11 0 -20.5 -2t-20.5 -13t-16 -24t-5 -27q0 -9 3.5 -14t8.5 -12q1 -1 1 -2l1 -1l41 -48q14 -17 37 -17q22 0 44 19q10 10 11.5 17t1.5 17v11q0 8 -3.5 14.5t-10.5 14.5zM316 392
q3 6 8.5 14t13.5 8h117q10 0 13.5 -5.5t5.5 -11.5q1 -2 1 -3t1 -3v-86h-160v87zM470 720q8 -11 13 -20t5 -23v-11q0 -15 -2.5 -25.5t-16.5 -24.5q-28 -23 -59 -23q-34 0 -53 23l-41 47l-3 3q-8 10 -12 17.5t-4 23.5q0 41 28 69v-1q14 14 26 16.5t29 2.5q32 0 53 -24zM476 21
h262v414q0 21 -11 42t-28.5 37.5t-39 27t-43.5 10.5h-439q-21 0 -43 -10t-40 -26.5t-29 -37.5t-11 -43v-414h262v150h160v-150zM759 0h-304v150h-118v-150h-304v435q0 27 13 51.5t34 44t46.5 31t50.5 11.5h439q25 0 50.5 -12t46 -31.5t33.5 -44.5t13 -50v-435z" />
    <glyph glyph-name="FL00C1h" unicode="&#xc1;" 
d="M454 389q-1 1 -1 4h-114q-1 -2 -1 -3t-1 -3v-61h118v61q-1 0 -1 2zM340 706q-7 -8 -11 -14.5t-4 -14.5v-11q0 -10 2 -17t12 -17q22 -19 44 -19q23 0 37 17l41 48l1 1q0 1 1 2q5 7 8.5 12t3.5 14q0 14 -5 27t-16 24t-20.5 13t-20.5 2q-23 0 -36 -16zM316 392q3 6 8.5 14
t13.5 8h117q10 0 13.5 -5.5t5.5 -11.5q1 -2 1 -3t1 -3v-86h-160v87zM359 770q10 11 23 17.5t31 6.5q15 0 27.5 -2.5t26.5 -16.5v1q29 -28 29 -69q0 -16 -4 -23.5t-12 -17.5l-3 -3l-41 -47q-19 -23 -53 -23q-32 0 -60 23q-14 14 -16.5 24t-2.5 26v11q0 14 5 23t13 20zM476 21
h262v414q0 21 -11 42t-28.5 37.5t-39 27t-43.5 10.5h-439q-21 0 -43 -10t-40 -26.5t-29 -37.5t-11 -43v-414h262v150h160v-150zM759 0h-304v150h-118v-150h-304v435q0 27 13 51.5t34 44t46.5 31t50.5 11.5h439q25 0 50.5 -12t46 -31.5t33.5 -44.5t13 -50v-435z" />
    <glyph glyph-name="FL00C2h" unicode="&#xc2;" 
d="M454 389q-1 1 -1 4h-114q-1 -2 -1 -3t-1 -3v-61h118v61q-1 0 -1 2zM316 392q3 6 8.5 14t13.5 8h117q10 0 13.5 -5.5t5.5 -11.5q1 -2 1 -3t1 -3v-86h-160v87zM396 677l45 -62h155l-116 156h-166l-119 -156h157zM396 639l-33 -45h-210l150 198h188l149 -198h-210zM476 21
h262v414q0 21 -11 42t-28.5 37.5t-39 27t-43.5 10.5h-439q-21 0 -43 -10t-40 -26.5t-29 -37.5t-11 -43v-414h262v150h160v-150zM759 0h-304v150h-118v-150h-304v435q0 27 13 51.5t34 44t46.5 31t50.5 11.5h439q25 0 50.5 -12t46 -31.5t33.5 -44.5t13 -50v-435z" />
    <glyph glyph-name="FL00C3h" unicode="&#xc3;" 
d="M454 389q-1 1 -1 4h-114q-1 -2 -1 -3t-1 -3v-61h118v61q-1 0 -1 2zM316 392q3 6 8.5 14t13.5 8h117q10 0 13.5 -5.5t5.5 -11.5q1 -2 1 -3t1 -3v-86h-160v87zM629 771h-155l-43 -61l-46 61h-103l-119 -156h157l43 61l46 -61h103zM523 594h-126l-34 45l-32 -45h-210
l149 198h126l34 -46l33 46h210zM476 21h262v414q0 21 -11 42t-28.5 37.5t-39 27t-43.5 10.5h-439q-21 0 -43 -10t-40 -26.5t-29 -37.5t-11 -43v-414h262v150h160v-150zM759 0h-304v150h-118v-150h-304v435q0 27 13 51.5t34 44t46.5 31t50.5 11.5h439q25 0 50.5 -12t46 -31.5
t33.5 -44.5t13 -50v-435z" />
    <glyph glyph-name="FL00C4h" unicode="&#xc4;" 
d="M454 389q-1 1 -1 4h-114q-1 -2 -1 -3t-1 -3v-61h118v61q-1 0 -1 2zM316 392q3 6 8.5 14t13.5 8h117q10 0 13.5 -5.5t5.5 -11.5q1 -2 1 -3t1 -3v-86h-160v87zM193 693q0 -33 26.5 -55t65.5 -22q38 0 64.5 22t26.5 55q0 32 -26 54t-65 22t-65.5 -22t-26.5 -54zM599 693
q0 16 -7 29.5t-19.5 24t-29 16.5t-35.5 6q-39 0 -65.5 -22t-26.5 -54q0 -33 27 -55t65 -22t64.5 22t26.5 55zM173 693q0 41 31.5 69t80.5 28q45 0 75.5 -24.5t35.5 -60.5q5 36 36 60.5t76 24.5q24 0 44.5 -7.5t35.5 -20.5t23.5 -31t8.5 -38q0 -21 -8.5 -39t-23.5 -31
t-35.5 -20.5t-44.5 -7.5q-43 0 -74.5 22.5t-37.5 58.5q-7 -36 -38 -58.5t-73 -22.5q-48 0 -80 28t-32 70zM476 21h262v414q0 21 -11 42t-28.5 37.5t-39 27t-43.5 10.5h-439q-21 0 -43 -10t-40 -26.5t-29 -37.5t-11 -43v-414h262v150h160v-150zM759 0h-304v150h-118v-150
h-304v435q0 26 13 51t34 44.5t46.5 31t50.5 11.5h439q25 0 50.5 -12t46 -31.5t33.5 -44.5t13 -50v-435z" />
    <glyph glyph-name="FL00C5h" unicode="&#xc5;" 
d="M384 693q0 -1 3 -1h9q13 0 13 1h-25zM363 693q0 9 9.5 15t23.5 6t24 -6t10 -15q0 -10 -10 -16t-24 -6t-23.5 6t-9.5 16zM454 389q-1 1 -1 4h-114q-1 -2 -1 -3t-1 -3v-61h118v61q-1 0 -1 2zM316 392q3 6 8.5 14t13.5 8h117q10 0 13.5 -5.5t5.5 -11.5q1 -2 1 -3t1 -3v-86
h-160v87zM305 693q0 -33 27 -55t65 -22q39 0 65.5 22t26.5 55q0 32 -26.5 54t-65.5 22t-65.5 -22t-26.5 -54zM285 693q0 20 8.5 38t23.5 31t35.5 20.5t44.5 7.5q49 0 81 -28t32 -69q0 -42 -32.5 -70t-80.5 -28q-24 0 -44.5 7.5t-35.5 20.5t-23.5 31t-8.5 39zM476 21h262v414
q0 21 -11 42t-28.5 37.5t-39 27t-43.5 10.5h-439q-21 0 -43 -10t-40 -26.5t-29 -37.5t-11 -43v-414h262v150h160v-150zM759 0h-304v150h-118v-150h-304v435q0 26 13 51t34 44.5t46.5 31t50.5 11.5h439q25 0 50.5 -12t46 -31.5t33.5 -44.5t13 -50v-435z" />
    <glyph glyph-name="FL00C6h" unicode="&#xc6;" horiz-adv-x="1342" 
d="M779 0v10q25 -10 53 -10h517v176h-351q0 1 -0.5 1.5t-0.5 2.5q0 1 -0.5 2t-0.5 2t0.5 1.5t0.5 1.5q1 2 1 6h351v173h-345q-3 0 -5.5 3t-2.5 6v6q0 4 1 4h352v176h-510q-32 0 -59 -12.5t-47 -32.5q-20 19 -47 32t-54 13h-451q-25 0 -51 -11.5t-47.5 -30t-35 -43
t-13.5 -50.5v-426h311v146h121v-146h313zM487 167h-163v-146h-268v405q0 21 11 41.5t29 36.5t40.5 26t44.5 10h451q29 0 56.5 -16.5t45.5 -39.5q19 26 46 41t59 15h489v-134h-331q-10 0 -16 -11.5t-6 -19.5q0 -11 8 -20.5t21 -9.5h324v-131h-331q-2 0 -10 -9t-11 -15v-2
q0 -1 -0.5 -1.5t-0.5 -2.5t0.5 -3t0.5 -2v-2q3 -5 11 -13.5t10 -8.5h331v-134h-496q-41 0 -75 28v-28h-270v146zM487 299v85q-1 2 -1 3t-1 3q-2 6 -6 11t-13 5h-120q-8 0 -13.5 -8t-8.5 -13v-86h163zM465 382q0 -2 1 -2v-61h-121v61l1 5h117q0 -1 2 -3z" />
    <glyph glyph-name="FL00C7h" unicode="&#xc7;" horiz-adv-x="670" 
d="M264 -21v-107h201v149h185v137h-315q-8 0 -13.5 6.5t-6.5 15.5v203q0 8 5 18.5t15 10.5h320v136h-474q-26 0 -49 -11.5t-40.5 -30.5t-27.5 -43t-10 -48v-279q0 -22 11 -42.5t28.5 -36.5t38.5 -26t42 -10h168v-42h-78zM486 0v-149h-243v149h-69q-24 0 -49 11.5t-45.5 30.5
t-33.5 43.5t-13 50.5v279q0 28 11.5 55.5t32 49.5t47.5 35.5t57 13.5h495v-178h-340v-212h335v-179h-185z" />
    <glyph glyph-name="FL00C8h" unicode="&#xc8;" horiz-adv-x="670" 
d="M373 757q-13 16 -36 16q-11 0 -20.5 -2t-20.5 -13t-16 -24t-5 -27q0 -9 3.5 -14t8.5 -12q1 -1 1 -2l1 -1l41 -48q14 -17 37 -17q22 0 44 19q9 10 11 17t2 17v11q0 8 -4 14.5t-10 14.5zM427 720q1 -1 1.5 -2t1.5 -2q7 -10 11 -18.5t4 -20.5v-11q0 -15 -3 -25.5t-17 -24.5
q-28 -23 -58 -23q-34 0 -53 23l-41 47l-3 3q-8 10 -12 17.5t-4 23.5q0 41 29 69v-1q14 14 26 16.5t28 2.5q33 0 52 -24zM181 552q-26 0 -49 -12t-40.5 -31t-27.5 -43t-10 -49v-280q0 -22 11 -43t28.5 -37t38.5 -26t42 -10h481v138h-320q-2 0 -10 8.5t-10 14.5v2q0 1 -0.5 2
t-0.5 3q0 1 0.5 2t0.5 2v2q1 3 4 6.5t6.5 7.5t6 6.5t3.5 2.5h320v134h-313q-13 0 -20.5 9.5t-7.5 21.5q0 8 5.5 19.5t15.5 11.5h320v138h-474zM676 573v-180h-340q-1 -5 -1 -6v-4q0 -10 7 -10h334v-175h-340v-1v-4t-1 -4q1 -2 1 -5v-4h340v-180h-502q-24 0 -49 11.5
t-45.5 30.5t-33.5 44t-13 51v280q0 28 11.5 56t32 50t47.5 36t57 14h495z" />
    <glyph glyph-name="FL00C9h" unicode="&#xc9;" horiz-adv-x="670" 
d="M330 706q-7 -8 -10.5 -14.5t-3.5 -14.5v-11q0 -10 2 -17t11 -17q22 -19 44 -19t37 17l40 48q7 8 10.5 13.5t3.5 15.5q0 14 -4.5 27t-15.5 24t-21 13t-21 2q-22 0 -35 -16zM350 770q19 24 52 24q16 0 28.5 -2.5t26.5 -16.5v1q28 -28 28 -69q0 -16 -4 -23.5t-12 -17.5
l-3 -3l-40 -47q-19 -23 -53 -23q-31 0 -59 23q-14 14 -16.5 24t-2.5 26v11q0 14 4.5 23t13.5 20zM181 552q-26 0 -49 -12t-40.5 -31t-27.5 -43t-10 -49v-280q0 -22 11 -43t28.5 -37t38.5 -26t42 -10h481v138h-320q-2 0 -10 8.5t-10 14.5v2q0 1 -0.5 2t-0.5 3q0 1 0.5 2
t0.5 2v2q1 3 4 6.5t6.5 7.5t6 6.5t3.5 2.5h320v134h-313q-13 0 -20.5 9.5t-7.5 21.5q0 8 5.5 19.5t15.5 11.5h320v138h-474zM676 573v-180h-340q-1 -5 -1 -6v-4q0 -10 7 -10h334v-175h-340v-1v-4t-1 -4q1 -2 1 -5v-4h340v-180h-502q-24 0 -49 11.5t-45.5 30.5t-33.5 44
t-13 51v280q0 28 11.5 56t32 50t47.5 36t57 14h495z" />
    <glyph glyph-name="FL00CAh" unicode="&#xca;" horiz-adv-x="670" 
d="M358 677l44 -62h154l-115 156h-165l-117 -156h155zM358 639l-33 -45h-209l149 198h187l147 -198h-208zM181 552q-26 0 -49 -12t-40.5 -31t-27.5 -43t-10 -49v-280q0 -22 11 -43t28.5 -37t38.5 -26t42 -10h481v138h-320q-2 0 -10 8.5t-10 14.5v2q0 1 -0.5 2t-0.5 3
q0 1 0.5 2t0.5 2v2q1 3 4 6.5t6.5 7.5t6 6.5t3.5 2.5h320v134h-313q-13 0 -20.5 9.5t-7.5 21.5q0 8 5.5 19.5t15.5 11.5h320v138h-474zM676 573v-180h-340q-1 -5 -1 -7v-3q0 -10 7 -10h334v-175h-340v-1v-4t-1 -4q1 -2 1 -5v-4h340v-180h-502q-24 0 -49 11.5t-45.5 30.5
t-33.5 44t-13 51v280q0 28 11.5 56t32 50t47.5 36t57 14h495z" />
    <glyph glyph-name="FL00CBh" unicode="&#xcb;" horiz-adv-x="670" 
d="M157 693q0 -33 26 -55t64 -22t64.5 22t26.5 55q0 32 -26 54t-65 22t-64.5 -22t-25.5 -54zM559 693q0 32 -26 54t-64 22q-39 0 -65 -22t-26 -54q0 -33 26.5 -55t64.5 -22t64 22t26 55zM136 693q0 20 8.5 38t23 31t35 20.5t44.5 7.5q44 0 74 -24t36 -60q5 36 36 60t76 24
q48 0 79.5 -28t31.5 -69q0 -21 -8.5 -39t-23.5 -31t-35.5 -20.5t-43.5 -7.5q-43 0 -75 23t-37 60q-6 -37 -36.5 -60t-73.5 -23q-24 0 -44 7.5t-35 20.5t-23.5 31t-8.5 39zM181 552q-26 0 -49 -12t-40.5 -31t-27.5 -43t-10 -49v-280q0 -22 11 -43t28.5 -37t38.5 -26t42 -10
h481v138h-320q-2 0 -10 8.5t-10 14.5v2q0 1 -0.5 2t-0.5 3q0 1 0.5 2t0.5 2v2q1 3 4 6.5t6.5 7.5t6 6.5t3.5 2.5h320v134h-313q-13 0 -20.5 9.5t-7.5 21.5q0 8 5.5 19.5t15.5 11.5h320v138h-474zM676 573v-180h-340q-1 -5 -1 -7v-3q0 -10 7 -10h334v-176h-340v-4t-1 -4
q1 -2 1 -5v-4h340v-180h-502q-24 0 -49 11.5t-45.5 30.5t-33.5 44t-13 51v280q0 28 11.5 56t32 50t47.5 36t57 14h495z" />
    <glyph glyph-name="FL00D0h" unicode="&#xd0;" horiz-adv-x="807" 
d="M34 193h58v-193h609q20 0 40.5 11.5t36.5 29.5t26 39.5t10 41.5v299q0 21 -11 45.5t-28.5 45.5t-40 35t-45.5 14h-597v-195h-58v-173zM689 540q19 0 37.5 -11.5t33.5 -29.5t24 -39t9 -39v-299q0 -17 -8 -34.5t-21 -32.5t-29.5 -24.5t-33.5 -9.5h-588v193h-58v131h58v195
h576zM475 158q20 0 31 8.5t16 21.5t6 29t1 30v64q0 12 -1 27t-5.5 28t-12.5 21.5t-22 8.5h-112v-51h52v-131h-52v-56h99zM475 178h-78v15h52v173h-52v9h91q7 0 11 -6.5t6 -16t2.5 -20.5t0.5 -21v-64q0 -11 -0.5 -23.5t-4 -22.5t-10 -16.5t-18.5 -6.5z" />
    <glyph glyph-name="FL00D1h" unicode="&#xd1;" 
d="M759 0v436q0 25 -13 49.5t-33.5 44t-46 31.5t-50.5 12h-583v-573h304v393h116q0 -4 1 -5q0 -2 1 -2v-386h304zM476 391l-1 2q0 1 -1 3q-2 7 -6.5 12.5t-12.5 5.5h-139v-393h-262v531h562q21 0 43 -10t39.5 -26.5t28.5 -37.5t11 -42v-415h-262v370zM673 792h-210l-33 -46
l-34 46h-126l-149 -198h210l32 45l34 -45h126zM512 615h-103l-46 61l-43 -61h-157l119 156h103l46 -61l43 61h155z" />
    <glyph glyph-name="FL00D2h" unicode="&#xd2;" 
d="M416 757q-13 16 -36 16q-11 0 -20.5 -2t-20.5 -13t-16 -24t-5 -27q0 -9 3.5 -14t8.5 -12q1 -1 1 -2l1 -1l41 -48q14 -17 37 -17q22 0 44 19q10 10 11.5 17t1.5 17v11q0 8 -3.5 14.5t-10.5 14.5zM337 183q0 -3 1 -3h115q0 -1 1 2t2 5v196q0 3 -0.5 6.5l-0.5 3.5h-115
q-3 -3 -3 -10v-200zM469 721l1 -1q8 -11 13 -20t5 -23v-11q0 -15 -2.5 -25.5t-16.5 -24.5q-28 -23 -59 -23q-34 0 -53 23l-41 47l-3 3q-8 10 -12 17.5t-4 23.5q0 41 28 69v-1q14 14 26 16.5t29 2.5q32 0 53 -24zM316 383q0 8 4.5 18.5t15.5 12.5h119q11 0 16.5 -11.5
t5.5 -19.5v-201q-3 -6 -9.5 -14.5t-12.5 -8.5h-117q-13 0 -17 9t-5 14v201zM183 552q-26 0 -49.5 -12t-41 -31t-28 -43t-10.5 -49v-280q0 -22 11 -43t29 -37t40 -26t43 -10h439q22 0 43.5 10t39 26t28.5 37t11 43v280q0 25 -10 49t-27.5 43t-41 31t-49.5 12h-427zM610 573
q31 0 58 -14t47 -36t32 -50t12 -56v-280q0 -26 -13 -51t-33.5 -44t-46 -30.5t-50.5 -11.5h-439q-25 0 -50.5 11.5t-46.5 30.5t-34 44t-13 51v280q0 28 12 56t32.5 50t47.5 36t58 14h427z" />
    <glyph glyph-name="FL00D3h" unicode="&#xd3;" 
d="M340 706q-7 -8 -11 -14.5t-4 -14.5v-11q0 -10 2 -17t12 -17q22 -19 44 -19q23 0 37 17l41 48l1 1q0 1 1 2q5 7 8.5 12t3.5 14q0 14 -5 27t-16 24t-20.5 13t-20.5 2q-23 0 -36 -16zM337 183q0 -3 1 -3h115q1 0 3 7v196q0 3 -0.5 6.5l-0.5 3.5h-115q-3 -3 -3 -10v-200z
M359 770q10 11 23 17.5t31 6.5q15 0 27.5 -2.5t26.5 -16.5v1q29 -28 29 -69q0 -16 -4 -23.5t-12 -17.5l-3 -3l-41 -47q-19 -23 -53 -23q-32 0 -60 23q-14 14 -16.5 24t-2.5 26v11q0 14 5 23t13 20zM316 383q0 8 4.5 18.5t15.5 12.5h119q11 0 16.5 -11.5t5.5 -19.5v-201
q-3 -6 -9.5 -14.5t-12.5 -8.5h-117q-13 0 -17 9t-5 14v201zM183 552q-26 0 -49.5 -12t-41 -31t-28 -43t-10.5 -49v-280q0 -22 11 -43t29 -37t40 -26t43 -10h439q22 0 43.5 10t39 26t28.5 37t11 43v280q0 25 -10 49t-27.5 43t-41 31t-49.5 12h-427zM610 573q31 0 58 -14
t47 -36t32 -50t12 -56v-280q0 -26 -13 -51t-33.5 -44t-46 -30.5t-50.5 -11.5h-439q-25 0 -50.5 11.5t-46.5 30.5t-34 44t-13 51v280q0 28 12 56t32.5 50t47.5 36t58 14h427z" />
    <glyph glyph-name="FL00D4h" unicode="&#xd4;" 
d="M337 183q0 -3 1 -3h114q1 1 1.5 3t2.5 4v196q0 2 -0.5 6l-0.5 4h-115q-3 -3 -3 -10v-200zM316 383q0 8 4.5 18.5t15.5 12.5h119q11 0 16.5 -11.5t5.5 -19.5v-201q-3 -6 -9.5 -14.5t-12.5 -8.5h-117q-13 0 -17 9t-5 14v201zM396 677l45 -62h155l-116 156h-166l-119 -156
h157zM396 639l-33 -45h-210l150 198h188l149 -198h-210zM183 552q-26 0 -49.5 -12t-41 -31t-28 -43t-10.5 -49v-280q0 -22 11 -43t29 -37t40 -26t43 -10h439q22 0 43.5 10t39 26t28.5 37t11 43v280q0 25 -10 49t-27.5 43t-41 31t-49.5 12h-427zM610 573q31 0 58 -14t47 -36
t32 -50t12 -56v-280q0 -26 -13 -51t-33.5 -44t-46 -30.5t-50.5 -11.5h-439q-25 0 -50.5 11.5t-46.5 30.5t-34 44t-13 51v280q0 28 12 56t32.5 50t47.5 36t58 14h427z" />
    <glyph glyph-name="FL00D5h" unicode="&#xd5;" 
d="M610 573h-427q-31 0 -58 -14t-47.5 -36t-32.5 -50t-12 -56v-280q0 -26 13 -51t34 -44t46.5 -30.5t50.5 -11.5h439q25 0 50.5 11.5t46 30.5t33.5 44t13 51v280q0 28 -12 56t-32 50t-47 36t-58 14zM610 552q26 0 49.5 -12t41 -31t27.5 -43t10 -49v-280q0 -22 -11 -43
t-28.5 -37t-39 -26t-43.5 -10h-439q-21 0 -43 10t-40 26t-29 37t-11 43v280q0 25 10.5 49t28 43t41 31t49.5 12h427zM673 792h-210l-33 -46l-34 46h-126l-149 -198h210l32 45l34 -45h126zM512 615h-103l-46 61l-43 -61h-157l119 156h103l46 -61l43 61h155zM316 182
q1 -5 5 -14t17 -9h117q6 0 12.5 8.5t9.5 14.5v201q0 8 -5.5 19.5t-16.5 11.5h-119q-11 -2 -15.5 -12.5t-4.5 -18.5v-201zM337 183v200q0 7 3 10h115l0.5 -4t0.5 -6v-196q-2 -7 -3 -7h-115q-1 0 -1 3z" />
    <glyph glyph-name="FL00D6h" unicode="&#xd6;" 
d="M193 693q0 -33 26.5 -55t65.5 -22q38 0 64.5 22t26.5 55q0 32 -26 54t-65 22t-65.5 -22t-26.5 -54zM599 693q0 16 -7 29.5t-19.5 24t-29 16.5t-35.5 6q-39 0 -65.5 -22t-26.5 -54q0 -33 27 -55t65 -22t64.5 22t26.5 55zM337 185q0 -5 1 -5h114q1 1 1.5 3t2.5 4v196
q0 2 -0.5 6l-0.5 4h-115q-3 -3 -3 -10v-198zM316 383q0 8 4.5 18.5t15.5 12.5h119q11 0 16.5 -11.5t5.5 -19.5v-201q-3 -6 -9.5 -14.5t-12.5 -8.5h-117q-13 0 -17 9t-5 14v201zM173 693q0 41 31.5 69t80.5 28q43 0 74 -23.5t37 -58.5q6 35 36.5 58.5t75.5 23.5
q24 0 44.5 -7.5t35.5 -20.5t23.5 -31t8.5 -38q0 -21 -8.5 -39t-23.5 -31t-35.5 -20.5t-44.5 -7.5q-43 0 -74.5 22.5t-37.5 58.5q-7 -36 -38 -58.5t-73 -22.5q-48 0 -80 28t-32 70zM183 552q-26 0 -49.5 -12t-41 -31t-28 -43t-10.5 -49v-280q0 -22 11 -43t29 -37t40 -26
t43 -10h439q22 0 43.5 10t39 26t28.5 37t11 43v280q0 25 -10 49t-27.5 43t-41 31t-49.5 12h-427zM610 573q31 0 58 -14t47 -36t32 -50t12 -56v-280q0 -26 -13 -51t-33.5 -44t-46 -30.5t-50.5 -11.5h-439q-25 0 -50.5 11.5t-46.5 30.5t-34 44t-13 51v280q0 28 12 56t32.5 50
t47.5 36t58 14h427z" />
    <glyph glyph-name="FL00D7h" unicode="&#xd7;" horiz-adv-x="364" 
d="M378 326l-116 117l-61 -59l-60 60l-117 -117l60 -61l-60 -60l116 -118l61 62l61 -61l116 118l-60 59zM140 117l-87 89l60 60l-60 61l88 89l60 -61l61 60l87 -89l-60 -60l60 -59l-87 -89l-61 61z" />
    <glyph glyph-name="FL00D8h" unicode="&#xd8;" 
d="M337 342l44 43h-42q-2 -2 -2 -10v-33zM455 180v1q1 0 1 1v36l-46 -42h43zM316 292v83q0 8 4.5 18.5t15.5 12.5h97zM477 177q-3 -5 -9.5 -13.5t-12.5 -8.5h-99l121 113v-91zM183 540q-26 0 -49.5 -11.5t-41 -30.5t-28 -42t-10.5 -47v-275q0 -21 11 -41.5t29 -36.5
t40 -25.5t43 -9.5h439q22 0 43.5 9.5t39 25.5t28.5 36.5t11 41.5v275q0 24 -10 47t-27.5 42t-41 30.5t-49.5 11.5h-427zM610 561q31 0 58 -13.5t47 -35t32 -49t12 -54.5v-275q0 -26 -13 -50t-33.5 -43t-46 -30t-50.5 -11h-439q-25 0 -50.5 11t-46.5 30t-34 43t-13 50v275
q0 27 12 54.5t32.5 49t47.5 35t58 13.5h427z" />
    <glyph glyph-name="FL00D9h" unicode="&#xd9;" 
d="M338 573h-305v-436q0 -25 13 -49.5t34 -44t46.5 -31.5t50.5 -12h582v573h-303v-393h-116v1q0 1 -0.5 2t-0.5 2q-1 0 -1 1v387zM317 182q1 -2 1 -3t1 -3q2 -7 5.5 -12t13.5 -5h139v393h261v-531h-561q-21 0 -43 10t-40 26.5t-29 37.5t-11 42v415h263v-370zM470 720l-37 50
q-21 24 -53 24q-17 0 -29 -2.5t-26 -16.5v1q-28 -28 -28 -69q0 -16 4 -23.5t12 -17.5l3 -3l41 -47q19 -23 53 -23q31 0 59 23q14 14 16.5 24.5t2.5 25.5v11q0 14 -5 23t-13 20zM453 706q7 -8 10.5 -14.5t3.5 -14.5v-11q0 -10 -1.5 -17t-11.5 -17q-22 -19 -44 -19
q-23 0 -37 17l-41 48l-1 1q0 1 -1 2q-5 7 -8.5 12t-3.5 14q0 14 5 27t16 24t20.5 13t20.5 2q23 0 36 -16z" />
    <glyph glyph-name="FL00DAh" unicode="&#xda;" 
d="M338 573h-305v-436q0 -25 13 -49.5t34 -44t46.5 -31.5t50.5 -12h582v573h-303v-393h-116v1q0 1 -0.5 2t-0.5 2q-1 0 -1 1v387zM317 182q1 -2 1 -3t1 -3q2 -7 5.5 -12t13.5 -5h139v393h261v-531h-561q-21 0 -43 10t-40 26.5t-29 37.5t-11 42v415h263v-370zM359 770
l-36 -49q-8 -11 -13.5 -20.5t-5.5 -23.5v-11q0 -16 2.5 -26t16.5 -24q28 -23 60 -23q34 0 53 23l41 47l3 3q8 10 12 17.5t4 23.5q0 41 -29 69v-1q-14 14 -26.5 16.5t-27.5 2.5q-32 0 -53 -23zM377 757q13 16 36 16q11 0 20.5 -2t20.5 -13t16 -24t5 -27q0 -9 -3.5 -14
t-8.5 -12q-1 -1 -1 -2l-1 -1l-41 -48q-14 -17 -37 -17q-22 0 -44 19q-10 10 -12 17t-2 17v11q0 8 4 14.5t11 14.5z" />
    <glyph glyph-name="FL00DBh" unicode="&#xdb;" 
d="M338 573h-305v-436q0 -25 13 -49.5t34 -44t46.5 -31.5t50.5 -12h582v573h-303v-393h-116v1q0 1 -0.5 2t-0.5 2q-1 0 -1 1v387zM317 182q1 -2 1 -3t1 -3q2 -7 5.5 -12t13.5 -5h139v393h261v-531h-561q-21 0 -43 10t-40 26.5t-29 37.5t-11 42v415h263v-370zM153 594h210
l33 45l34 -45h210l-149 198h-188zM314 771h166l116 -156h-155l-45 62l-44 -62h-157z" />
    <glyph glyph-name="FL00DCh" unicode="&#xdc;" 
d="M338 573h-305v-436q0 -25 13 -49.5t34 -44t46.5 -31.5t50.5 -12h582v573h-303v-393h-116v1q0 1 -0.5 2t-0.5 2q-1 0 -1 1v387zM317 182q1 -2 1 -3t1 -3q2 -7 5.5 -12t13.5 -5h139v393h261v-531h-561q-21 0 -43 10t-40 26.5t-29 37.5t-11 42v415h263v-370zM173 693
q0 -42 32 -70t80 -28q42 0 73 22.5t38 58.5q6 -36 37.5 -58.5t74.5 -22.5q24 0 44.5 7.5t35.5 20.5t23.5 31t8.5 39q0 20 -8.5 38t-23.5 31t-35.5 20.5t-44.5 7.5q-45 0 -75.5 -23.5t-36.5 -58.5q-6 35 -37 58.5t-74 23.5q-49 0 -80.5 -28t-31.5 -69zM599 693
q0 -33 -26.5 -55t-64.5 -22t-65 22t-27 55q0 32 26.5 54t65.5 22q19 0 35.5 -6t29 -16.5t19.5 -24t7 -29.5zM193 693q0 32 26.5 54t65.5 22t65 -22t26 -54q0 -33 -26.5 -55t-64.5 -22q-39 0 -65.5 22t-26.5 55z" />
    <glyph glyph-name="FL00DDh" unicode="&#xdd;" horiz-adv-x="740" 
d="M746 573h-305v-201h-101v1q0 1 -0.5 1.5t-0.5 1.5l-2 4v193h-304v-240q0 -25 13 -49t34 -43.5t46.5 -31.5t49.5 -12h265v-2q0 -14 -15 -15h-388v-180h581q29 0 52.5 12t40 33.5t25.5 50t9 61.5v416zM725 157q0 -29 -7.5 -53.5t-21.5 -43t-33.5 -29t-43.5 -10.5h-560v138
h368q20 2 27.5 9t7.5 27v22h-286q-21 0 -42.5 10t-39.5 26.5t-29 37.5t-11 42v219h262v-177l3 -6q2 -7 6 -12.5t12 -5.5h106q7 0 12 8.5t7 13.5v179h263v-395zM348 770l-37 -50q-9 -11 -13.5 -20t-4.5 -23v-11q0 -16 2.5 -26t16.5 -24q28 -23 59 -23q34 0 54 23l40 47l3 3
q8 10 12 17.5t4 23.5q0 41 -28 69v-1q-14 14 -26.5 16.5t-28.5 2.5q-32 0 -52 -23zM365 757q13 16 36 16q11 0 20.5 -2t20.5 -13q12 -11 16.5 -24t4.5 -27q0 -10 -3.5 -15.5t-10.5 -13.5l-41 -48q-14 -17 -37 -17q-22 0 -44 19q-9 10 -11 17t-2 17v11q0 8 3.5 14.5
t10.5 14.5z" />
    <glyph glyph-name="FL00DEh" unicode="&#xde;" 
d="M338 315v-64h104q8 0 13.5 11.5t5.5 21.5q0 8 -3 19.5t-10 11.5h-110zM448 335q9 0 15.5 -5.5t10.5 -13.5t6 -17t2 -15q0 -8 -2.5 -17.5t-7.5 -17.5t-12.5 -13.5t-17.5 -5.5h-125v105h131zM317 469v71h-263v-519h263v75h280q39 0 66 17t43.5 44.5t24 62t7.5 69.5
q0 25 -7.5 56.5t-24 59t-43.5 46t-67 18.5h-279zM33 561h305v-71h258q46 0 77.5 -21t50.5 -52t27 -65.5t8 -62.5q0 -39 -8.5 -77t-27.5 -68t-50 -49t-76 -19h-259v-76h-305v561z" />
    <glyph glyph-name="FL00DFh" unicode="&#xdf;" horiz-adv-x="692" 
d="M362 349v-130h25q20 0 27.5 -6.5t7.5 -22.5q0 -14 -7.5 -23t-26.5 -9h-26v-137h174q40 0 67 15t43.5 38t23.5 51.5t7 54.5q0 29 -8 58.5t-31 49.5q21 17 29.5 46t8.5 55q0 25 -9 53.5t-27 51.5t-44.5 38.5t-60.5 15.5h-481v-658h261v522h72q19 0 26.5 -10t7.5 -24
q0 -17 -7.5 -23t-27.5 -6h-24zM386 370q14 0 14 8q0 13 -13 13h-51v-522h-303v699h502q40 0 70 -17.5t50.5 -44t31 -58t10.5 -59.5q0 -26 -6.5 -53.5t-23.5 -47.5q18 -23 24.5 -51t6.5 -57q0 -30 -8 -61.5t-27 -58t-50 -43.5t-77 -17h-195v178h47q7 0 10 3.5t3 8.5
q0 9 -14 9h-46v171h45z" />
    <glyph glyph-name="FL00E0h" unicode="&#xe0;" horiz-adv-x="892" 
d="M651 757q-14 16 -37 16q-11 0 -21 -2t-21 -13t-16 -24t-5 -27q0 -9 3.5 -14t8.5 -12q1 -1 1 -2l1 -1l42 -48q14 -17 37 -17q22 0 44 19q9 10 11 17t2 17v11q0 8 -4 14.5t-10 14.5zM703 721l1 -1q8 -11 13 -20t5 -23v-11q0 -15 -3 -25.5t-17 -24.5q-14 -11 -27.5 -17
t-30.5 -6q-34 0 -54 23l-41 48l-3 2q-8 10 -12 17.5t-4 23.5q0 41 29 69v-1q14 14 26 16.5t29 2.5q32 0 53 -24zM43 20h310l235 317v-1q4 6 6 8t7 2q2 -1 3.5 -2t3.5 -2q5 -5 5 -4v-317h264v531h-392q-9 0 -20 -6t-21.5 -14.5t-18.5 -17.5t-12 -14zM-1 -1l396 513l1 1
q5 6 14.5 16.5t22 20t26 16.5t26.5 7h413v-573h-306v305l-227 -306h-366z" />
    <glyph glyph-name="FL00E1h" unicode="&#xe1;" horiz-adv-x="892" 
d="M593 706q-6 -8 -10 -14.5t-4 -14.5v-11q0 -10 2 -17t11 -17q24 -19 45 -19q23 0 37 17l41 48l1 1q0 1 1 2q5 7 8.5 12t3.5 14q0 14 -5 27t-16 24t-20.5 13t-20.5 2q-23 0 -36 -16zM613 770q10 11 23 17.5t31 6.5q15 0 27.5 -2.5t26.5 -16.5v1q29 -28 29 -69
q0 -16 -4 -23.5t-12 -17.5l-3 -2l-41 -48q-19 -23 -53 -23q-32 0 -60 23q-14 14 -16.5 24t-2.5 26v11q0 14 4.5 23t13.5 20zM43 20h310l235 317v-1q4 6 6 8t7 2q2 -1 3.5 -2t3.5 -2q5 -5 5 -4v-317h264v531h-392q-9 0 -20 -6t-21.5 -14.5t-18.5 -17.5t-12 -14zM-1 -1
l396 513l1 1q5 6 14.5 16.5t22 20t26 16.5t26.5 7h413v-573h-306v305l-227 -306h-366z" />
    <glyph glyph-name="FL00E2h" unicode="&#xe2;" horiz-adv-x="892" 
d="M644 677l44 -62h157l-118 156h-166l-121 -156h159zM644 640l-34 -45h-213l152 197h190l151 -197h-213zM43 20h310l235 317v-1q4 6 6 8t7 2q2 -1 3.5 -2t3.5 -2q5 -5 5 -4v-317h264v531h-392q-9 0 -20 -6t-21.5 -14.5t-18.5 -17.5t-12 -14zM-1 -1l396 513l1 1
q5 6 14.5 16.5t22 20t26 16.5t26.5 7h413v-573h-306v305l-227 -306h-366z" />
    <glyph glyph-name="FL00E3h" unicode="&#xe3;" horiz-adv-x="892" 
d="M395 512l-396 -513h366l227 306v-305h306v573h-413q-13 0 -26.5 -7t-26 -16.5t-22 -20t-14.5 -16.5zM413 500q4 5 12 14t18.5 17.5t21.5 14.5t20 6h392v-531h-264v317q0 -1 -5 4q-2 1 -3.5 2t-3.5 2q-5 0 -7 -2t-6 -8v1l-235 -317h-310zM895 792h-214l-32 -46l-34 46
h-127l-152 -197h213l33 44l34 -44h126zM731 615h-103l-46 61l-44 -61h-159l120 156h105l46 -61l43 61h157z" />
    <glyph glyph-name="FL00E4h" unicode="&#xe4;" horiz-adv-x="892" 
d="M452 693q0 -33 27 -55t65 -22q39 0 66 22t27 55q0 32 -26.5 54t-66.5 22q-39 0 -65.5 -22t-26.5 -54zM862 693q0 32 -26.5 54t-66.5 22q-39 0 -65.5 -22t-26.5 -54q0 -33 27 -55t65 -22q39 0 66 22t27 55zM431 693q0 41 32 69t81 28q45 0 75.5 -24t36.5 -60q5 36 36.5 60
t76.5 24q49 0 81.5 -28t32.5 -69q0 -21 -9 -39t-24 -31t-36 -20.5t-45 -7.5q-44 0 -75.5 23t-37.5 60q-6 -37 -36.5 -60t-75.5 -23q-48 0 -80.5 28t-32.5 70zM43 20h310l235 317v-1q4 6 6 8t7 2q2 -1 3.5 -2t3.5 -2q5 -5 5 -4v-317h264v531h-392q-9 0 -20 -6t-21.5 -14.5
t-18.5 -17.5t-12 -14zM-1 -1l396 513l1 1q5 6 14.5 16.5t22 20t26 16.5t26.5 7h413v-573h-306v305l-227 -306h-366z" />
    <glyph glyph-name="FL00E5h" unicode="&#xe5;" horiz-adv-x="892" 
d="M395 512l-396 -513h366l227 306v-305h306v573h-413q-13 0 -26.5 -7t-26 -16.5t-22 -20t-14.5 -16.5zM413 500q4 5 12 14t18.5 17.5t21.5 14.5t20 6h392v-531h-264v317q0 -1 -5 4q-2 1 -3.5 2t-3.5 2q-5 0 -7 -2t-6 -8v1l-235 -317h-310zM534 693q0 -21 9 -39t24 -31
t36 -20.5t45 -7.5t44.5 7.5t35.5 20.5t24 31t9 39q0 20 -8.5 38t-24 31t-36 20.5t-44.5 7.5q-49 0 -81.5 -28t-32.5 -69zM555 693q0 32 26.5 54t66.5 22q19 0 35.5 -6t29 -16.5t19.5 -24t7 -29.5q0 -33 -26.5 -55t-64.5 -22q-39 0 -66 22t-27 55zM613 693q0 -10 10 -16
t24 -6t23 6t9 16q0 9 -9 15t-23 6t-24 -6t-10 -15zM634 693h25q0 -1 -4 -1h-8q-13 0 -13 1z" />
    <glyph glyph-name="FL00E6h" unicode="&#xe6;" horiz-adv-x="1259" 
d="M44 20h314l238 311q3 5 5 6.5t9 1.5q5 -5 6 -5l5 -3v-310h623v134h-329q-2 0 -10.5 8.5t-11.5 13.5v2q0 1 -0.5 2t-0.5 3q0 3 1 6q3 6 11.5 15t10.5 9h329v131h-322q-14 0 -22 9.5t-8 20.5q0 8 6 19.5t17 11.5h329v134h-753q-9 0 -20.5 -6t-21.5 -14.5t-18.5 -17
t-11.5 -13.5zM-1 -1l401 502l1 1q5 6 14.5 16t22 19.5t26.5 16.5t27 7h774v-176h-350q-1 0 -1 -4v-6t2.5 -6t5.5 -3h343v-173h-349q0 -4 -1 -6q0 -1 -0.5 -1.5t-0.5 -1.5t0.5 -2t0.5 -2q0 -2 0.5 -2.5t0.5 -1.5h349v-176h-665v299l-231 -300h-370z" />
    <glyph glyph-name="FL00E7h" unicode="&#xe7;" horiz-adv-x="670" 
d="M264 -21v-107h201v149h185v137h-315q-8 0 -13.5 6.5t-6.5 15.5v203q0 8 5 18.5t15 10.5h320v136h-474q-26 0 -49 -11.5t-40.5 -30.5t-27.5 -43t-10 -48v-279q0 -22 11 -42.5t28.5 -36.5t38.5 -26t42 -10h168v-42h-78zM486 0v-149h-243v149h-69q-24 0 -49 11.5t-45.5 30.5
t-33.5 43.5t-13 50.5v279q0 28 11.5 55.5t32 49.5t47.5 35.5t57 13.5h495v-178h-340v-212h335v-179h-185z" />
    <glyph glyph-name="FL00E8h" unicode="&#xe8;" horiz-adv-x="670" 
d="M373 757q-13 16 -36 16q-11 0 -20.5 -2t-20.5 -13t-16 -24t-5 -27q0 -9 3.5 -14t8.5 -12q1 -1 1 -2l1 -1l41 -48q14 -17 37 -17q22 0 44 19q9 10 11 17t2 17v11q0 8 -4 14.5t-10 14.5zM427 720q1 -1 1.5 -2t1.5 -2q7 -10 11 -18.5t4 -20.5v-11q0 -15 -3 -25.5t-17 -24.5
q-28 -23 -58 -23q-34 0 -53 23l-41 47l-3 3q-8 10 -12 17.5t-4 23.5q0 41 29 69v-1q14 14 26 16.5t28 2.5q33 0 52 -24zM181 552q-26 0 -49 -12t-40.5 -31t-27.5 -43t-10 -49v-280q0 -22 11 -43t28.5 -37t38.5 -26t42 -10h481v138h-320q-2 0 -10 8.5t-10 14.5v2q0 1 -0.5 2
t-0.5 3q0 1 0.5 2t0.5 2v2q1 3 4 6.5t6.5 7.5t6 6.5t3.5 2.5h320v134h-313q-13 0 -20.5 9.5t-7.5 21.5q0 8 5.5 19.5t15.5 11.5h320v138h-474zM676 573v-180h-340q-1 -5 -1 -6v-4q0 -10 7 -10h334v-175h-340v-1v-4t-1 -4q1 -2 1 -5v-4h340v-180h-502q-24 0 -49 11.5
t-45.5 30.5t-33.5 44t-13 51v280q0 28 11.5 56t32 50t47.5 36t57 14h495z" />
    <glyph glyph-name="FL00E9h" unicode="&#xe9;" horiz-adv-x="670" 
d="M330 706q-7 -8 -10.5 -14.5t-3.5 -14.5v-11q0 -10 2 -17t11 -17q22 -19 44 -19t37 17l40 48q7 8 10.5 13.5t3.5 15.5q0 14 -4.5 27t-15.5 24t-21 13t-21 2q-22 0 -35 -16zM350 770q19 24 52 24q16 0 28.5 -2.5t26.5 -16.5v1q28 -28 28 -69q0 -16 -4 -23.5t-12 -17.5
l-3 -3l-40 -47q-19 -23 -53 -23q-31 0 -59 23q-14 14 -16.5 24t-2.5 26v11q0 14 4.5 23t13.5 20zM181 552q-26 0 -49 -12t-40.5 -31t-27.5 -43t-10 -49v-280q0 -22 11 -43t28.5 -37t38.5 -26t42 -10h481v138h-320q-2 0 -10 8.5t-10 14.5v2q0 1 -0.5 2t-0.5 3q0 1 0.5 2
t0.5 2v2q1 3 4 6.5t6.5 7.5t6 6.5t3.5 2.5h320v134h-313q-13 0 -20.5 9.5t-7.5 21.5q0 8 5.5 19.5t15.5 11.5h320v138h-474zM676 573v-180h-340q-1 -5 -1 -6v-4q0 -10 7 -10h334v-175h-340v-1v-4t-1 -4q1 -2 1 -5v-4h340v-180h-502q-24 0 -49 11.5t-45.5 30.5t-33.5 44
t-13 51v280q0 28 11.5 56t32 50t47.5 36t57 14h495z" />
    <glyph glyph-name="FL00EAh" unicode="&#xea;" horiz-adv-x="670" 
d="M358 677l44 -62h154l-115 156h-165l-117 -156h155zM358 639l-33 -45h-209l149 198h187l147 -198h-208zM181 552q-26 0 -49 -12t-40.5 -31t-27.5 -43t-10 -49v-280q0 -22 11 -43t28.5 -37t38.5 -26t42 -10h481v138h-320q-2 0 -10 8.5t-10 14.5v2q0 1 -0.5 2t-0.5 3
q0 1 0.5 2t0.5 2v2q1 3 4 6.5t6.5 7.5t6 6.5t3.5 2.5h320v134h-313q-13 0 -20.5 9.5t-7.5 21.5q0 8 5.5 19.5t15.5 11.5h320v138h-474zM676 573v-180h-340q-1 -5 -1 -7v-3q0 -10 7 -10h334v-175h-340v-1v-4t-1 -4q1 -2 1 -5v-4h340v-180h-502q-24 0 -49 11.5t-45.5 30.5
t-33.5 44t-13 51v280q0 28 11.5 56t32 50t47.5 36t57 14h495z" />
    <glyph glyph-name="FL00EBh" unicode="&#xeb;" horiz-adv-x="670" 
d="M157 693q0 -33 26 -55t64 -22t64.5 22t26.5 55q0 32 -26 54t-65 22t-64.5 -22t-25.5 -54zM559 693q0 32 -26 54t-64 22q-39 0 -65 -22t-26 -54q0 -33 26.5 -55t64.5 -22t64 22t26 55zM136 693q0 20 8.5 38t23 31t35 20.5t44.5 7.5q44 0 74 -24t36 -60q5 36 36 60t76 24
q48 0 79.5 -28t31.5 -69q0 -21 -8.5 -39t-23.5 -31t-35.5 -20.5t-43.5 -7.5q-43 0 -75 23t-37 60q-6 -37 -36.5 -60t-73.5 -23q-24 0 -44 7.5t-35 20.5t-23.5 31t-8.5 39zM181 552q-26 0 -49 -12t-40.5 -31t-27.5 -43t-10 -49v-280q0 -22 11 -43t28.5 -37t38.5 -26t42 -10
h481v138h-320q-2 0 -10 8.5t-10 14.5v2q0 1 -0.5 2t-0.5 3q0 1 0.5 2t0.5 2v2q1 3 4 6.5t6.5 7.5t6 6.5t3.5 2.5h320v134h-313q-13 0 -20.5 9.5t-7.5 21.5q0 8 5.5 19.5t15.5 11.5h320v138h-474zM676 573v-180h-340q-1 -5 -1 -7v-3q0 -10 7 -10h334v-176h-340v-4t-1 -4
q1 -2 1 -5v-4h340v-180h-502q-24 0 -49 11.5t-45.5 30.5t-33.5 44t-13 51v280q0 28 11.5 56t32 50t47.5 36t57 14h495z" />
    <glyph glyph-name="FL00ECh" unicode="&#xec;" horiz-adv-x="305" 
d="M190 757q-13 16 -33 16q-11 0 -19.5 -2t-18.5 -13q-11 -11 -15 -24t-4 -27q0 -10 3.5 -15.5t9.5 -13.5l37 -48q14 -17 34 -17q21 0 40 19q9 10 11 17t2 17v11q0 8 -4 14.5t-10 14.5zM237 723v1q8 -13 13.5 -23t5.5 -24v-11q0 -15 -3 -25.5t-15 -24.5q-13 -11 -25.5 -17
t-28.5 -6q-32 0 -49 23l-37 47l-3 3q-8 10 -11.5 17.5t-3.5 23.5q0 20 6.5 37.5t20.5 31.5v-1q13 14 24.5 16.5t25.5 2.5q30 0 48 -24zM51 21h241v531h-241v-531zM31 573h280v-573h-280v573z" />
    <glyph glyph-name="FL00EDh" unicode="&#xed;" horiz-adv-x="305" 
d="M118 706q-6 -8 -9.5 -14.5t-3.5 -14.5v-11q0 -10 2 -17t10 -17q21 -19 41 -19t34 17l37 48q6 8 9.5 13.5t3.5 15.5q0 14 -4 27t-15 24q-10 11 -18.5 13t-19.5 2q-20 0 -33 -16zM136 770q18 24 49 24q14 0 25 -2.5t25 -16.5v1q14 -15 20 -32.5t6 -36.5q0 -16 -3.5 -23.5
t-11.5 -17.5l-2 -3l-37 -47q-17 -23 -49 -23q-30 0 -55 23q-13 14 -15.5 24t-2.5 26v11q0 14 4.5 23t12.5 20zM51 21h241v531h-241v-531zM31 573h280v-573h-280v573z" />
    <glyph glyph-name="FL00EEh" unicode="&#xee;" horiz-adv-x="320" 
d="M177 677l43 -62h150l-113 156h-159l-114 -156h150zM177 639l-32 -45h-202l144 198h182l142 -198h-202zM53 21h253v531h-253v-531zM32 573h294v-573h-294v573z" />
    <glyph glyph-name="FL00EFh" unicode="&#xef;" horiz-adv-x="320" 
d="M376 693q0 32 -25.5 54t-62.5 22q-38 0 -63.5 -22t-25.5 -54q0 -33 25.5 -55t63.5 -22q36 0 62 22t26 55zM-16 693q0 -33 25.5 -55t63.5 -22q36 0 62 22t26 55q0 32 -25.5 54t-62.5 22q-38 0 -63.5 -22t-25.5 -54zM-36 693q0 41 30.5 69t78.5 28q42 0 72 -24.5t35 -60.5
q5 36 34 60.5t74 24.5q46 0 77 -28t31 -69q0 -21 -8.5 -39t-23 -31t-34.5 -20.5t-42 -7.5q-43 0 -73.5 23t-35.5 60q-6 -37 -35.5 -60t-70.5 -23q-23 0 -43 7.5t-34.5 20.5t-23 31t-8.5 39zM53 21h253v531h-253v-531zM32 573h294v-573h-294v573z" />
    <glyph glyph-name="FL0047h" unicode="&#xf0;" 
d="M33 255v-121q0 -26 13 -50t34 -43t46.5 -30t50.5 -11h439q25 0 50.5 12t46 31t33.5 43t13 48v275q0 27 -12 54.5t-32 49t-47.5 35t-57.5 13.5h-574v-176h419v-12h-278q-22 0 -47.5 -9.5t-47 -25.5t-35.5 -37.5t-14 -45.5zM54 255q0 19 12 37t30 31.5t39.5 21.5t41.5 8
h299v21h4l-4 4q-1 8 -6 18t-15 10h-398v134h553q26 0 49 -11.5t40.5 -30.5t28 -42t10.5 -47v-275q0 -21 -11 -41.5t-28.5 -36t-39.5 -25.5t-43 -10h-439q-22 0 -44 9.5t-39.5 25.5t-28.5 36.5t-11 41.5v121zM455 155q9 0 13 6t6 11l1 2q0 1 1 3v40h-160v-40q0 -2 2 -4v1
q3 -5 7.5 -12t12.5 -7h117zM337 182v14h118v-14q-1 -1 -1 -3q-2 -4 -2 -3h-112l-1 1q0 1 -1 2t-1 3z" />
    <glyph glyph-name="FL00F1h" unicode="&#xf1;" horiz-adv-x="915" 
d="M922 573h-308v-223l-79 121v-1q-9 14 -24 32t-33 33.5t-38 26.5t-38 11h-368v-573h307v223l86 -116q12 -17 27.5 -36t34 -35t40.5 -26t48 -10h345v573zM444 120l-124 169v-268h-265v531h347q15 0 32.5 -10.5t34 -25.5t29.5 -31.5t21 -28.5l116 -179v275h266v-531h-324
q-22 0 -41 9.5t-35.5 24t-30.5 32t-26 33.5zM769 792h-213l-33 -46l-34 46h-127l-151 -198h212l33 45l34 -45h127zM606 615h-104l-46 61l-44 -61h-159l120 156h105l46 -61l44 61h156z" />
    <glyph glyph-name="FL00F2h" unicode="&#xf2;" 
d="M416 757q-13 16 -36 16q-11 0 -20.5 -2t-20.5 -13t-16 -24t-5 -27q0 -9 3.5 -14t8.5 -12q1 -1 1 -2l1 -1l41 -48q14 -17 37 -17q22 0 44 19q10 10 11.5 17t1.5 17v11q0 8 -3.5 14.5t-10.5 14.5zM337 183q0 -3 1 -3h115q0 -1 1 2t2 5v196q0 3 -0.5 6.5l-0.5 3.5h-115
q-3 -3 -3 -10v-200zM469 721l1 -1q8 -11 13 -20t5 -23v-11q0 -15 -2.5 -25.5t-16.5 -24.5q-28 -23 -59 -23q-34 0 -53 23l-41 47l-3 3q-8 10 -12 17.5t-4 23.5q0 41 28 69v-1q14 14 26 16.5t29 2.5q32 0 53 -24zM316 383q0 8 4.5 18.5t15.5 12.5h119q11 0 16.5 -11.5
t5.5 -19.5v-201q-3 -6 -9.5 -14.5t-12.5 -8.5h-117q-13 0 -17 9t-5 14v201zM183 552q-26 0 -49.5 -12t-41 -31t-28 -43t-10.5 -49v-280q0 -22 11 -43t29 -37t40 -26t43 -10h439q22 0 43.5 10t39 26t28.5 37t11 43v280q0 25 -10 49t-27.5 43t-41 31t-49.5 12h-427zM610 573
q31 0 58 -14t47 -36t32 -50t12 -56v-280q0 -26 -13 -51t-33.5 -44t-46 -30.5t-50.5 -11.5h-439q-25 0 -50.5 11.5t-46.5 30.5t-34 44t-13 51v280q0 28 12 56t32.5 50t47.5 36t58 14h427z" />
    <glyph glyph-name="FL00F3h" unicode="&#xf3;" 
d="M340 706q-7 -8 -11 -14.5t-4 -14.5v-11q0 -10 2 -17t12 -17q22 -19 44 -19q23 0 37 17l41 48l1 1q0 1 1 2q5 7 8.5 12t3.5 14q0 14 -5 27t-16 24t-20.5 13t-20.5 2q-23 0 -36 -16zM337 183q0 -3 1 -3h115q1 0 3 7v196q0 3 -0.5 6.5l-0.5 3.5h-115q-3 -3 -3 -10v-200z
M359 770q10 11 23 17.5t31 6.5q15 0 27.5 -2.5t26.5 -16.5v1q29 -28 29 -69q0 -16 -4 -23.5t-12 -17.5l-3 -3l-41 -47q-19 -23 -53 -23q-32 0 -60 23q-14 14 -16.5 24t-2.5 26v11q0 14 5 23t13 20zM316 383q0 8 4.5 18.5t15.5 12.5h119q11 0 16.5 -11.5t5.5 -19.5v-201
q-3 -6 -9.5 -14.5t-12.5 -8.5h-117q-13 0 -17 9t-5 14v201zM183 552q-26 0 -49.5 -12t-41 -31t-28 -43t-10.5 -49v-280q0 -22 11 -43t29 -37t40 -26t43 -10h439q22 0 43.5 10t39 26t28.5 37t11 43v280q0 25 -10 49t-27.5 43t-41 31t-49.5 12h-427zM610 573q31 0 58 -14
t47 -36t32 -50t12 -56v-280q0 -26 -13 -51t-33.5 -44t-46 -30.5t-50.5 -11.5h-439q-25 0 -50.5 11.5t-46.5 30.5t-34 44t-13 51v280q0 28 12 56t32.5 50t47.5 36t58 14h427z" />
    <glyph glyph-name="FL00F4h" unicode="&#xf4;" 
d="M337 183q0 -3 1 -3h114q1 1 1.5 3t2.5 4v196q0 2 -0.5 6l-0.5 4h-115q-3 -3 -3 -10v-200zM316 383q0 8 4.5 18.5t15.5 12.5h119q11 0 16.5 -11.5t5.5 -19.5v-201q-3 -6 -9.5 -14.5t-12.5 -8.5h-117q-13 0 -17 9t-5 14v201zM396 677l45 -62h155l-116 156h-166l-119 -156
h157zM396 639l-33 -45h-210l150 198h188l149 -198h-210zM183 552q-26 0 -49.5 -12t-41 -31t-28 -43t-10.5 -49v-280q0 -22 11 -43t29 -37t40 -26t43 -10h439q22 0 43.5 10t39 26t28.5 37t11 43v280q0 25 -10 49t-27.5 43t-41 31t-49.5 12h-427zM610 573q31 0 58 -14t47 -36
t32 -50t12 -56v-280q0 -26 -13 -51t-33.5 -44t-46 -30.5t-50.5 -11.5h-439q-25 0 -50.5 11.5t-46.5 30.5t-34 44t-13 51v280q0 28 12 56t32.5 50t47.5 36t58 14h427z" />
    <glyph glyph-name="FL00F5h" unicode="&#xf5;" 
d="M610 573h-427q-31 0 -58 -14t-47.5 -36t-32.5 -50t-12 -56v-280q0 -26 13 -51t34 -44t46.5 -30.5t50.5 -11.5h439q25 0 50.5 11.5t46 30.5t33.5 44t13 51v280q0 28 -12 56t-32 50t-47 36t-58 14zM610 552q26 0 49.5 -12t41 -31t27.5 -43t10 -49v-280q0 -22 -11 -43
t-28.5 -37t-39 -26t-43.5 -10h-439q-21 0 -43 10t-40 26t-29 37t-11 43v280q0 25 10.5 49t28 43t41 31t49.5 12h427zM673 792h-210l-33 -46l-34 46h-126l-149 -198h210l32 45l34 -45h126zM512 615h-103l-46 61l-43 -61h-157l119 156h103l46 -61l43 61h155zM316 182
q1 -5 5 -14t17 -9h117q6 0 12.5 8.5t9.5 14.5v201q0 8 -5.5 19.5t-16.5 11.5h-119q-11 -2 -15.5 -12.5t-4.5 -18.5v-201zM337 183v200q0 7 3 10h115l0.5 -4t0.5 -6v-196q-2 -7 -3 -7h-115q-1 0 -1 3z" />
    <glyph glyph-name="FL00F6h" unicode="&#xf6;" 
d="M193 693q0 -33 26.5 -55t65.5 -22q38 0 64.5 22t26.5 55q0 32 -26 54t-65 22t-65.5 -22t-26.5 -54zM599 693q0 16 -7 29.5t-19.5 24t-29 16.5t-35.5 6q-39 0 -65.5 -22t-26.5 -54q0 -33 27 -55t65 -22t64.5 22t26.5 55zM337 185q0 -5 1 -5h114q1 1 1.5 3t2.5 4v196
q0 2 -0.5 6l-0.5 4h-115q-3 -3 -3 -10v-198zM316 383q0 8 4.5 18.5t15.5 12.5h119q11 0 16.5 -11.5t5.5 -19.5v-201q-3 -6 -9.5 -14.5t-12.5 -8.5h-117q-13 0 -17 9t-5 14v201zM173 693q0 41 31.5 69t80.5 28q43 0 74 -23.5t37 -58.5q6 35 36.5 58.5t75.5 23.5
q24 0 44.5 -7.5t35.5 -20.5t23.5 -31t8.5 -38q0 -21 -8.5 -39t-23.5 -31t-35.5 -20.5t-44.5 -7.5q-43 0 -74.5 22.5t-37.5 58.5q-7 -36 -38 -58.5t-73 -22.5q-48 0 -80 28t-32 70zM183 552q-26 0 -49.5 -12t-41 -31t-28 -43t-10.5 -49v-280q0 -22 11 -43t29 -37t40 -26
t43 -10h439q22 0 43.5 10t39 26t28.5 37t11 43v280q0 25 -10 49t-27.5 43t-41 31t-49.5 12h-427zM610 573q31 0 58 -14t47 -36t32 -50t12 -56v-280q0 -26 -13 -51t-33.5 -44t-46 -30.5t-50.5 -11.5h-439q-25 0 -50.5 11.5t-46.5 30.5t-34 44t-13 51v280q0 28 12 56t32.5 50
t47.5 36t58 14h427z" />
    <glyph glyph-name="FL00F7h" unicode="&#xf7;" horiz-adv-x="423" 
d="M162 447q0 -28 21 -47.5t50 -19.5t49.5 19.5t20.5 47.5t-20.5 47t-49.5 19t-50 -19t-21 -47zM162 115q0 -28 21 -48t50 -20t49.5 20t20.5 48q0 27 -20.5 46.5t-49.5 19.5t-50 -19.5t-21 -46.5zM52 212h357v131h-357v-131zM274 192q22 -11 35.5 -31.5t13.5 -45.5
q0 -18 -7 -34t-19 -28t-28.5 -19t-35.5 -7t-35.5 7t-29 19t-19.5 28t-7 34q0 25 13.5 45.5t35.5 31.5h-159v171h173q-28 8 -45.5 30.5t-17.5 53.5q0 18 7 34t19.5 28t29 18.5t35.5 6.5q38 0 64 -25t26 -62q0 -31 -17.5 -53.5t-46.5 -30.5h170v-171h-155z" />
    <glyph glyph-name="FL00F8h" unicode="&#xf8;" 
d="M337 342l44 43h-42q-2 -2 -2 -10v-33zM455 180v1q1 0 1 1v36l-46 -42h43zM316 292v83q0 8 4.5 18.5t15.5 12.5h97zM477 177q-3 -5 -9.5 -13.5t-12.5 -8.5h-99l121 113v-91zM183 540q-26 0 -49.5 -11.5t-41 -30.5t-28 -42t-10.5 -47v-275q0 -21 11 -41.5t29 -36.5
t40 -25.5t43 -9.5h439q22 0 43.5 9.5t39 25.5t28.5 36.5t11 41.5v275q0 24 -10 47t-27.5 42t-41 30.5t-49.5 11.5h-427zM610 561q31 0 58 -13.5t47 -35t32 -49t12 -54.5v-275q0 -26 -13 -50t-33.5 -43t-46 -30t-50.5 -11h-439q-25 0 -50.5 11t-46.5 30t-34 43t-13 50v275
q0 27 12 54.5t32.5 49t47.5 35t58 13.5h427z" />
    <glyph glyph-name="FL00F9h" unicode="&#xf9;" 
d="M416 757q-13 16 -36 16q-11 0 -20.5 -2t-20.5 -13t-16 -24t-5 -27q0 -9 3.5 -14t8.5 -12q1 -1 1 -2l1 -1l41 -48q14 -17 37 -17q22 0 44 19q10 10 11.5 17t1.5 17v11q0 8 -3.5 14.5t-10.5 14.5zM469 721l1 -1q8 -11 13 -20t5 -23v-11q0 -15 -2.5 -25.5t-16.5 -24.5
q-28 -23 -59 -23q-34 0 -53 23l-41 47l-3 3q-8 10 -12 17.5t-4 23.5q0 41 28 69v-1q14 14 26 16.5t29 2.5q32 0 53 -24zM476 182q-1 -2 -1 -3l-1 -2q-2 -7 -6.5 -12.5t-12.5 -5.5h-117q-8 0 -13 7.5t-8 13.5q0 1 -1 1v1v370h-262v-415q0 -22 11 -43t28.5 -37t39.5 -26
t44 -10h439q21 0 43 10t39.5 26.5t28.5 37.5t11 42v415h-262v-370zM338 183q0 -1 0.5 -1.5t0.5 -1.5h114q0 4 1 5q0 1 1 2v386h304v-436q0 -25 -13 -49.5t-33.5 -44t-46 -31.5t-50.5 -12h-439q-25 0 -50.5 11.5t-46.5 30.5t-34 44t-13 51v436h304v-386q0 -2 0.5 -2.5
t0.5 -1.5z" />
    <glyph glyph-name="FL00FAh" unicode="&#xfa;" 
d="M340 706q-7 -8 -11 -14.5t-4 -14.5v-11q0 -10 2 -17t12 -17q22 -19 44 -19q23 0 37 17l41 48l1 1q0 1 1 2q5 7 8.5 12t3.5 14q0 14 -5 27t-16 24t-20.5 13t-20.5 2q-23 0 -36 -16zM359 770q10 11 23 17.5t31 6.5q15 0 27.5 -2.5t26.5 -16.5v1q29 -28 29 -69
q0 -16 -4 -23.5t-12 -17.5l-3 -3l-41 -47q-19 -23 -53 -23q-32 0 -60 23q-14 14 -16.5 24t-2.5 26v11q0 14 5 23t13 20zM319 176q-1 2 -1 3t-1 3v370h-263v-415q0 -21 11 -42t29 -37.5t40 -26.5t43 -10h439q22 0 43.5 10t39 26t28.5 37t11 43v415h-261v-370q0 -1 -1 -1v-1
q-3 -6 -8 -13.5t-13 -7.5h-117q-10 0 -13.5 5t-5.5 12zM338 573v-387q0 -1 1 -1q0 -1 0.5 -2t0.5 -2v-1h112q1 1 1.5 3t2.5 4v386h303v-436q0 -26 -13 -51t-33.5 -44t-46 -30.5t-50.5 -11.5h-439q-25 0 -50.5 12t-46.5 31.5t-34 44t-13 49.5v436h305z" />
    <glyph glyph-name="FL00FBh" unicode="&#xfb;" 
d="M396 677l45 -62h155l-116 156h-166l-119 -156h157zM396 639l-33 -45h-210l150 198h188l149 -198h-210zM319 176q-1 2 -1 3t-1 3v370h-263v-415q0 -21 11 -42t29 -37.5t40 -26.5t43 -10h439q22 0 43.5 10t39 26t28.5 37t11 43v415h-261v-370q0 -1 -1 -1v-1q-3 -6 -8 -13.5
t-13 -7.5h-117q-10 0 -13.5 5t-5.5 12zM338 573v-387q0 -1 1 -1q0 -1 0.5 -2t0.5 -2v-1h112q1 1 1.5 3t2.5 4v386h303v-436q0 -26 -13 -51t-33.5 -44t-46 -30.5t-50.5 -11.5h-439q-25 0 -50.5 12t-46.5 31.5t-34 44t-13 49.5v436h305z" />
    <glyph glyph-name="FL00FCh" unicode="&#xfc;" 
d="M193 693q0 -33 26.5 -55t65.5 -22q38 0 64.5 22t26.5 55q0 32 -26 54t-65 22t-65.5 -22t-26.5 -54zM599 693q0 16 -7 29.5t-19.5 24t-29 16.5t-35.5 6q-39 0 -65.5 -22t-26.5 -54q0 -33 27 -55t65 -22t64.5 22t26.5 55zM173 693q0 41 31.5 69t80.5 28q43 0 74 -23.5
t37 -58.5q6 35 36.5 58.5t75.5 23.5q24 0 44.5 -7.5t35.5 -20.5t23.5 -31t8.5 -38q0 -21 -8.5 -39t-23.5 -31t-35.5 -20.5t-44.5 -7.5q-43 0 -74.5 22.5t-37.5 58.5q-7 -36 -38 -58.5t-73 -22.5q-48 0 -80 28t-32 70zM319 176q-1 2 -1 3t-1 3v370h-263v-415q0 -21 11 -42
t29 -37.5t40 -26.5t43 -10h439q22 0 43.5 10t39 26t28.5 37t11 43v415h-261v-370q0 -1 -1 -1v-1q-3 -6 -8 -13.5t-13 -7.5h-117q-10 0 -13.5 5t-5.5 12zM338 573v-387q0 -1 1 -1q0 -1 0.5 -2t0.5 -2v-1h113q1 0 3 7v386h303v-436q0 -26 -13 -51t-33.5 -44t-46 -30.5
t-50.5 -11.5h-439q-25 0 -50.5 12t-46.5 31.5t-34 44t-13 49.5v436h305z" />
    <glyph glyph-name="FL00FDh" unicode="&#xfd;" horiz-adv-x="718" 
d="M336 706q-7 -8 -10.5 -14.5t-3.5 -14.5v-11q0 -10 2 -17t11 -17q22 -19 44 -19q23 0 37 17l41 48l1 1q0 1 1 2q5 7 8.5 12t3.5 14q0 14 -5 27t-16 24t-20.5 13t-20.5 2q-23 0 -36 -16zM356 770q19 24 53 24q15 0 27.5 -2.5t26.5 -16.5v1q29 -28 29 -69q0 -16 -4 -23.5
t-12 -17.5l-3 -3l-41 -47q-19 -23 -53 -23q-31 0 -59 23q-14 14 -16.5 24t-2.5 26v11q0 14 4.5 23t13.5 20zM509 307q0 16 12 33t28.5 32t33 26t25.5 15h95v139h-205q-21 -6 -37.5 -19t-29.5 -26.5t-21 -26.5t-12 -19l-4 -6q-5 5 -10 11t-10 13q-9 12 -19.5 24.5t-24 23.5
t-29.5 18t-35 7h-212v-139h37q3 0 12 -1t21 -4t25.5 -9t25.5 -17q2 -2 4.5 -5t5.5 -5q20 -17 36.5 -35.5t24.5 -47.5v-268h263v286zM724 573v-181h-112q-9 -5 -23 -14t-27.5 -21t-23 -25t-9.5 -25v-307h-304v288q-5 20 -20.5 35.5t-33.5 31.5l-10 11q-10 9 -21.5 14t-21 8
t-17 3.5t-10.5 0.5h-58v181h233q23 0 41.5 -8t33.5 -20t27.5 -26.5t22.5 -27.5v-2q6 10 15.5 22t22.5 24t29.5 22t37.5 16h228z" />
    <glyph glyph-name="FL00FEh" unicode="&#xfe;" 
d="M338 315v-64h104q8 0 13.5 11.5t5.5 21.5q0 8 -3 19.5t-10 11.5h-110zM448 335q9 0 15.5 -5.5t10.5 -13.5t6 -17t2 -15q0 -8 -2.5 -17.5t-7.5 -17.5t-12.5 -13.5t-17.5 -5.5h-125v105h131zM317 469v71h-263v-519h263v75h280q39 0 66 17t43.5 44.5t24 62t7.5 69.5
q0 25 -7.5 56.5t-24 59t-43.5 46t-67 18.5h-279zM33 561h305v-71h258q46 0 77.5 -21t50.5 -52t27 -65.5t8 -62.5q0 -39 -8.5 -77t-27.5 -68t-50 -49t-76 -19h-259v-76h-305v561z" />
    <glyph glyph-name="FL00FFh" unicode="&#xff;" horiz-adv-x="718" 
d="M577 693q0 16 -7 29.5t-19.5 24t-29 16.5t-35.5 6q-39 0 -65 -22t-26 -54q0 -33 26.5 -55t64.5 -22t64.5 22t26.5 55zM172 693q0 -33 26.5 -55t64.5 -22t65 22t27 55q0 32 -26.5 54t-65.5 22t-65 -22t-26 -54zM152 693q0 20 8.5 38t23 31t35 20.5t44.5 7.5
q44 0 75.5 -24.5t36.5 -60.5q5 36 35.5 60.5t75.5 24.5q24 0 44.5 -7.5t35.5 -20.5t23.5 -31t8.5 -38q0 -21 -8.5 -39t-23.5 -31t-35.5 -20.5t-44.5 -7.5q-44 0 -75.5 23t-36.5 60q-6 -37 -36.5 -60t-74.5 -23q-24 0 -44 7.5t-35 20.5t-23.5 31t-8.5 39zM509 306
q0 16 12 33.5t28.5 32.5t33 26t25.5 15h95v139h-205q-21 -6 -37.5 -19t-29.5 -26.5t-21 -26.5t-12 -19l-4 -6q-5 5 -10 11t-10 13q-9 12 -19.5 24.5t-24 23.5t-29.5 18t-35 7h-212v-139h37q3 0 12 -1t21 -4t25.5 -9t25.5 -17q2 -2 4.5 -5t5.5 -5q20 -17 36.5 -35.5
t24.5 -47.5v-268h263v285zM724 573v-181h-112q-9 -5 -23 -14.5t-27.5 -21.5t-23 -25t-9.5 -25v-306h-304v288q-5 20 -20.5 35.5t-33.5 31.5l-10 10q-10 9 -21.5 14.5t-21 8.5t-17 3.5t-10.5 0.5h-58v181h233q23 0 42 -8t34 -20t27 -26.5t22 -27.5v-2q6 10 15.5 22t22.5 24
t29.5 22t37.5 16h228z" />
    <glyph glyph-name="FL0152h" unicode="&#x152;" horiz-adv-x="1178" 
d="M524 176v209h-180v-209h180zM545 155h-201q-19 0 -21 22v200q0 8 5.5 18.5t15.5 10.5h201v-251zM813 375q0 8 6 19.5t16 11.5h329v134h-977q-27 0 -51 -11.5t-42 -30.5t-28.5 -42t-10.5 -47v-275q0 -21 11.5 -41.5t29.5 -36.5t40 -25.5t44 -9.5h984v134h-329
q-2 0 -10 8.5t-11 13.5v2q0 1 -0.5 2t-0.5 3t0.5 2.5t0.5 1.5v2q3 6 11 15t10 9h329v131h-322q-14 0 -21.5 9.5t-7.5 20.5zM1185 561v-176h-350q-1 0 -1 -4v-6t2.5 -6t5.5 -3h343v-173h-349q0 -4 -1 -6q0 -1 -0.5 -1.5t-0.5 -1.5t0.5 -2t0.5 -2q0 -2 0.5 -2.5t0.5 -1.5h349
v-176h-1005q-25 0 -51 11t-47 30t-34.5 43t-13.5 50v275q0 27 12 54.5t33 49t48.5 35t59.5 13.5h998z" />
    <glyph glyph-name="FL0153h" unicode="&#x153;" horiz-adv-x="1178" 
d="M524 176v209h-180v-209h180zM545 155h-201q-19 0 -21 22v200q0 8 5.5 18.5t15.5 10.5h201v-251zM813 375q0 8 6 19.5t16 11.5h329v134h-977q-27 0 -51 -11.5t-42 -30.5t-28.5 -42t-10.5 -47v-275q0 -21 11.5 -41.5t29.5 -36.5t40 -25.5t44 -9.5h984v134h-329
q-2 0 -10 8.5t-11 13.5v2q0 1 -0.5 2t-0.5 3t0.5 2.5t0.5 1.5v2q3 6 11 15t10 9h329v131h-322q-14 0 -21.5 9.5t-7.5 20.5zM1185 561v-176h-350q-1 0 -1 -4v-6t2.5 -6t5.5 -3h343v-173h-349q0 -4 -1 -6q0 -1 -0.5 -1.5t-0.5 -1.5t0.5 -2t0.5 -2q0 -2 0.5 -2.5t0.5 -1.5h349
v-176h-1005q-25 0 -51 11t-47 30t-34.5 43t-13.5 50v275q0 27 12 54.5t33 49t48.5 35t59.5 13.5h998z" />
    <glyph glyph-name="FL0160h" unicode="&#x160;" horiz-adv-x="735" 
d="M389 709l-44 62h-157l118 -156h166l117 156h-155zM356 792l33 -47l33 47h211l-150 -198h-188l-149 198h210zM720 262q0 19 -11.5 36t-29.5 29.5t-39 19.5t-40 7h-284v31q0 8 5.5 18.5t15.5 10.5h383v138h-538q-26 0 -49 -11t-40.5 -29.5t-28 -41.5t-10.5 -47v-83
q0 -21 12 -42.5t30.5 -39t40 -28t39.5 -10.5h281v-31q0 -8 -5 -19t-15 -11h-383v-138h537q26 0 49.5 12t41 31.5t28 43t10.5 46.5v108zM741 154q0 -26 -12 -53t-32.5 -49.5t-47.5 -37t-58 -14.5h-558v180h404v19h-261q-21 0 -46 12.5t-46.5 33t-36 45.5t-14.5 50v83
q0 28 12 55t32 48t47.5 34t57.5 13h558v-180h-403v-18h263q22 0 46.5 -8.5t45.5 -23.5t35 -36t14 -45v-108z" />
    <glyph glyph-name="FL0161h" unicode="&#x161;" horiz-adv-x="867" 
d="M456 709l-45 62h-159l120 -156h167l118 156h-157zM422 792l34 -47l33 47h212l-151 -198h-190l-150 198h212zM55 160v-139h319q23 0 45.5 9.5t42 24.5t35.5 33.5t26 36.5l125 226q3 7 10.5 18t16.5 21t19.5 17t19.5 7h139v138h-334q-20 0 -42 -12.5t-41.5 -29.5t-34 -34.5
t-18.5 -26.5l-125 -225q-5 -8 -12 -19t-16 -21t-18.5 -17t-17.5 -7h-139zM34 0v181h160q4 0 10 5.5t12 13t12 16.5t11 16h-1l126 227q6 10 22 29.5t38 38t47 32.5t48 14h355v-180h-160q-6 0 -13 -5.5t-13.5 -14t-12 -17.5t-8.5 -15l-126 -226q-11 -20 -28.5 -40t-39.5 -37
t-47 -27.5t-52 -10.5h-340z" />
    <glyph glyph-name="FL0178h" unicode="&#x178;" horiz-adv-x="740" 
d="M590 693q0 16 -7 29.5t-19.5 24t-29 16.5t-35.5 6q-39 0 -65.5 -22t-26.5 -54q0 -33 27 -55t65 -22t64.5 22t26.5 55zM184 693q0 -33 27 -55t65 -22t65 22t27 55q0 32 -26.5 54t-65.5 22t-65.5 -22t-26.5 -54zM164 693q0 41 31.5 69t80.5 28q44 0 74.5 -24t36.5 -60
q5 36 36 60t76 24q24 0 44.5 -7.5t35.5 -20.5t23.5 -31t8.5 -38q0 -21 -8.5 -39t-23.5 -31t-35.5 -20.5t-44.5 -7.5q-44 0 -75.5 23t-36.5 60q-6 -37 -37 -60t-74 -23q-48 0 -80 28t-32 70zM619 21q24 0 43.5 10.5t33.5 29t21.5 43t7.5 53.5v395h-263v-179q-2 -6 -7.5 -14
t-11.5 -8h-106q-8 0 -12 5.5t-6 12.5l-3 6v177h-262v-219q0 -21 11 -42t29 -37.5t39.5 -26.5t42.5 -10h286v-22q0 -20 -7.5 -27t-27.5 -9h-368v-138h560zM340 372h101v201h305v-416q0 -33 -9 -61.5t-25.5 -50t-40 -33.5t-52.5 -12h-581v180h388q15 1 15 15v2h-265
q-24 0 -49.5 12t-46.5 31.5t-34 43.5t-13 49v240h304v-193l2 -4q0 -1 0.5 -1.5t0.5 -1.5v-1z" />
    <glyph glyph-name="FL00AFh" unicode="&#x192;" 
d="M338 365h118v13q-3 3 -3 7h-113v-1q0 -2 -1 -3l-1 -1v-15zM455 406q8 0 12.5 -7t7.5 -12v1q2 -2 2 -4v-40h-160v40q1 2 1 3t1 3q2 6 6 11t13 5h117zM738 427q0 21 -11 41.5t-28.5 36.5t-39 25.5t-43.5 9.5h-439q-21 0 -43 -10t-40 -25.5t-29 -36t-11 -41.5v-275
q0 -24 10.5 -47t28 -42t41 -30.5t49.5 -11.5h553v134h-398q-11 0 -16 10t-5 18l-4 4h4v21h299q19 0 40.5 8t39.5 21.5t30 31t12 37.5v121zM759 306q0 -24 -14 -45.5t-35.5 -37.5t-46.5 -25.5t-47 -9.5h-278v-12h419v-176h-574q-31 0 -58 13.5t-47.5 35t-32.5 49t-12 54.5
v275q0 24 13 48t34 43t46.5 31t50.5 12h439q25 0 50.5 -11t46 -30t33.5 -43t13 -50v-121z" />
    <glyph glyph-name="FL02C6h" unicode="&#x2c6;" horiz-adv-x="433" 
d="M236 383l43 -51h149l-112 129h-160l-114 -129h150zM236 352l-32 -39h-204l145 166h182l144 -166h-204z" />
    <glyph glyph-name="FL02DCh" unicode="&#x2dc;" horiz-adv-x="501" 
d="M540 480h-205l-33 -37l-32 37h-123l-147 -166h206l31 39l34 -39h123zM383 332h-101l-45 51l-42 -51h-152l115 130h101l44 -51l43 51h151z" />
    <glyph glyph-name="FL2013h" unicode="&#x2013;" horiz-adv-x="361" 
d="M32 304v-143h335v143h-335zM52 286h295v-108h-295v108z" />
    <glyph glyph-name="FL2014h" unicode="&#x2014;" horiz-adv-x="423" 
d="M32 304v-143h397v143h-397zM52 286h357v-108h-357v108z" />
    <glyph glyph-name="FL2018h" unicode="&#x2018;" horiz-adv-x="244" 
d="M49 340q0 -33 26.5 -56t64.5 -23q37 0 63.5 23t26.5 56v87q0 33 -26.5 55.5t-63.5 22.5q-38 0 -64.5 -22.5t-26.5 -55.5v-87zM30 427q0 21 8.5 39t23.5 31t35 20.5t43 7.5q22 0 42 -7.5t35 -20.5t23.5 -31t8.5 -39v-87q0 -21 -8.5 -38.5t-23.5 -31t-35 -21t-42 -7.5
q-47 0 -78.5 28t-31.5 70v87z" />
    <glyph glyph-name="FL2019h" unicode="&#x2019;" horiz-adv-x="244" 
d="M49 340q0 -33 26.5 -56t64.5 -23q37 0 63.5 23t26.5 56v87q0 33 -26.5 55.5t-63.5 22.5q-38 0 -64.5 -22.5t-26.5 -55.5v-87zM30 427q0 21 8.5 39t23.5 31t35 20.5t43 7.5q22 0 42 -7.5t35 -20.5t23.5 -31t8.5 -39v-87q0 -21 -8.5 -38.5t-23.5 -31t-35 -21t-42 -7.5
q-47 0 -78.5 28t-31.5 70v87z" />
    <glyph glyph-name="FL201Ah" unicode="&#x201a;" horiz-adv-x="260" 
d="M50 9q0 -34 29 -57t70 -23q19 0 37 6t31.5 17t21.5 25.5t8 31.5v89q0 17 -8 31.5t-21.5 25.5t-31.5 17t-37 6q-41 0 -70 -23t-29 -57v-89zM31 98q0 21 9 39.5t25 32t37.5 21t46.5 7.5q24 0 45.5 -7.5t37 -21t25 -32t9.5 -39.5v-89q0 -21 -9.5 -39t-25 -31t-37 -20.5
t-45.5 -7.5q-25 0 -46.5 7.5t-37.5 20.5t-25 31t-9 39v89z" />
    <glyph glyph-name="FL201Ch" unicode="&#x201c;" horiz-adv-x="470" 
d="M267 340q0 -33 28 -56t67 -23q19 0 36 6t30 17t20.5 25t7.5 31v88q0 16 -7.5 30t-20.5 24.5t-30 16.5t-36 6q-20 0 -37 -6t-30 -16.5t-20.5 -24.5t-7.5 -30v-88zM53 339q0 -33 27.5 -56t66.5 -23q19 0 36.5 6t30.5 17t20.5 25t7.5 31v88q0 16 -7.5 30t-20.5 24.5
t-30.5 16.5t-36.5 6q-39 0 -66.5 -22.5t-27.5 -54.5v-88zM33 427q0 21 9 38.5t24 30.5t36 20.5t45 7.5q36 0 65.5 -17.5t42.5 -45.5q11 29 40 46.5t67 17.5q24 0 44.5 -7.5t36.5 -20.5t25 -30.5t9 -38.5v-88q0 -21 -9 -38.5t-25 -31t-36.5 -21t-44.5 -7.5q-37 0 -66 17
t-41 45q-13 -28 -42 -45.5t-66 -17.5q-24 0 -45 7.5t-36 21t-24 31t-9 38.5v88z" />
    <glyph glyph-name="FL201Dh" unicode="&#x201d;" horiz-adv-x="470" 
d="M267 340q0 -33 28 -56t67 -23q19 0 36 6t30 17t20.5 25t7.5 31v88q0 16 -7.5 30t-20.5 24.5t-30 16.5t-36 6q-20 0 -37 -6t-30 -16.5t-20.5 -24.5t-7.5 -30v-88zM53 339q0 -33 27.5 -56t66.5 -23q19 0 36.5 6t30.5 17t20.5 25t7.5 31v88q0 16 -7.5 30t-20.5 24.5
t-30.5 16.5t-36.5 6q-39 0 -66.5 -22.5t-27.5 -54.5v-88zM33 427q0 21 9 38.5t24 30.5t36 20.5t45 7.5q36 0 65.5 -17.5t42.5 -45.5q11 29 40 46.5t67 17.5q24 0 44.5 -7.5t36.5 -20.5t25 -30.5t9 -38.5v-88q0 -21 -9 -38.5t-25 -31t-36.5 -21t-44.5 -7.5q-37 0 -66 17
t-41 45q-13 -28 -42 -45.5t-66 -17.5q-24 0 -45 7.5t-36 21t-24 31t-9 38.5v88z" />
    <glyph glyph-name="FL201Eh" unicode="&#x201e;" horiz-adv-x="525" 
d="M296 9q0 -17 8.5 -31.5t23.5 -25.5t34.5 -17t40.5 -6q22 0 41.5 6t34 17t23 25.5t8.5 31.5v89q0 17 -8.5 31.5t-23 25.5t-34 17t-41.5 6q-21 0 -40.5 -6t-34.5 -17t-23.5 -25.5t-8.5 -31.5v-89zM53 9q0 -17 8.5 -31.5t23.5 -25.5t34.5 -17t41.5 -6t41.5 6t34 17t23 25.5
t8.5 31.5v89q0 17 -8.5 31.5t-23 25.5t-34 17t-41.5 6t-41.5 -6t-34.5 -17t-23.5 -25.5t-8.5 -31.5v-89zM33 98q0 21 10 39.5t27.5 32t41 21t49.5 7.5q42 0 75 -19t46 -50q13 31 46 50t75 19q26 0 49.5 -7.5t41 -21t27.5 -32t10 -39.5v-89q0 -21 -10 -39t-27.5 -31
t-41 -20.5t-49.5 -7.5q-42 0 -75 19t-46 48q-13 -29 -46 -48t-75 -19q-26 0 -49.5 7.5t-41 20.5t-27.5 31t-10 39v89z" />
    <glyph glyph-name="FL2020h" unicode="&#x2020;" horiz-adv-x="404" 
d="M346 309h44v131h-44v100h-249v-100h-45v-131h45v-288h249v288zM366 561v-101h44v-172h-44v-288h-290v288h-44v172h44v101h290z" />
    <glyph glyph-name="FL2021h" unicode="&#x2021;" horiz-adv-x="404" 
d="M346 309h44v131h-44v100h-249v-100h-45v-131h45v-57h-45v-131h45v-100h249v100h44v131h-44v57zM366 561v-101h44v-172h-44v-15h44v-172h-44v-101h-290v101h-44v172h44v15h-44v172h44v101h290z" />
    <glyph glyph-name="FL2022h" unicode="&#x2022;" 
d="M183 540q-26 0 -49.5 -11.5t-41 -30.5t-28 -42t-10.5 -47v-275q0 -21 11 -41.5t29 -36.5t40 -25.5t43 -9.5h439q22 0 43.5 9.5t39 25.5t28.5 36.5t11 41.5v275q0 24 -10 47t-27.5 42t-41 30.5t-49.5 11.5h-427zM610 561q31 0 58 -13.5t47 -35t32 -49t12 -54.5v-275
q0 -26 -13 -50t-33.5 -43t-46 -30t-50.5 -11h-439q-25 0 -50.5 11t-46.5 30t-34 43t-13 50v275q0 27 12 54.5t32.5 49t47.5 35t58 13.5h427z" />
    <glyph glyph-name="FL2026h" unicode="&#x2026;" horiz-adv-x="784" 
d="M549 92q0 -16 9 -29.5t24 -23.5t35 -15.5t42 -5.5t42 5.5t35 15.5t24 23.5t9 29.5t-9 29.5t-24 23.5t-35 15.5t-42 5.5t-42 -5.5t-35 -15.5t-24 -23.5t-9 -29.5zM301 92q0 -16 9 -29.5t24.5 -23.5t35.5 -15.5t42 -5.5t42.5 5.5t35.5 15.5t24 23.5t9 29.5t-9 29.5
t-24 23.5t-35.5 15.5t-42.5 5.5t-42 -5.5t-35.5 -15.5t-24.5 -23.5t-9 -29.5zM54 92q0 -16 9 -29.5t24.5 -23.5t35.5 -15.5t43 -5.5q22 0 41.5 5.5t34.5 15.5t24 23.5t9 29.5t-9 29.5t-24 23.5t-34.5 15.5t-41.5 5.5q-23 0 -43 -5.5t-35.5 -15.5t-24.5 -23.5t-9 -29.5z
M33 92q0 19 10.5 36t28.5 29.5t42.5 19.5t51.5 7q42 0 74.5 -16.5t47.5 -43.5q14 27 48 43.5t76 16.5t75.5 -16.5t48.5 -43.5q14 27 47.5 43.5t75.5 16.5q27 0 51 -7t42 -19.5t28 -29.5t10 -36q0 -20 -10 -36.5t-28 -29t-42 -19.5t-51 -7q-42 0 -75.5 16.5t-47.5 43.5
q-15 -27 -48.5 -43.5t-75.5 -16.5t-76 16.5t-48 43.5q-15 -27 -47.5 -43.5t-74.5 -16.5q-27 0 -51.5 7t-42.5 19.5t-28.5 29t-10.5 36.5z" />
    <glyph glyph-name="FL2030h" unicode="&#x2030;" horiz-adv-x="1284" 
d="M1205 300h-219q-25 0 -44.5 -13t-31.5 -32q-11 18 -30 31.5t-42 13.5h-176l247 261h-330l-153 -162v75q0 15 -7 30.5t-18.5 28t-27.5 20t-34 7.5h-218q-18 0 -33.5 -7.5t-27.5 -20t-19 -28t-7 -30.5v-137q0 -15 8 -29t20 -24.5t26.5 -17t28.5 -6.5h178l-246 -260h330
l152 160v-83q0 -15 8 -29t20 -24.5t27 -17t29 -6.5h225q21 0 40.5 11t31.5 28q12 -17 31 -28t39 -11h226q15 0 29.5 6.5t26.5 17t19.5 24.5t7.5 29v137q0 15 -7 30.5t-18.5 28t-27 20t-33.5 7.5zM838 279q13 0 24.5 -6t20.5 -15t14 -20.5t5 -23.5v-137q0 -22 -19.5 -39
t-42.5 -17h-225q-22 0 -42 17t-20 39v138l-185 -194h-270l245 260h-226q-11 0 -22 4.5t-20 12.5t-14.5 18t-5.5 21v137q0 12 5.5 23.5t14.5 21t21 15t25 5.5h218q13 0 25 -5.5t21 -15t14 -21t5 -23.5v-129l185 195h271l-247 -261h225zM1205 279q13 0 25 -6t21 -15t14 -20.5
t5 -23.5v-137q0 -22 -19.5 -39t-42.5 -17h-226q-11 0 -21.5 4.5t-19.5 12.5t-14.5 18t-5.5 21v137q0 12 5 23.5t14 20.5t21 15t25 6h219zM209 384q0 -7 6 -7h30q6 0 7 7v48q0 2 -1.5 5.5t-5.5 3.5h-30q-6 -2 -6 -9v-48zM1074 123q0 -6 6 -6h30q5 0 7 6v49q0 2 -1.5 5t-5.5 3
h-30q-6 -2 -6 -8v-49zM707 123q0 -6 5 -6h31q4 0 6 6v49q0 2 -1.5 5t-4.5 3h-31q-5 -3 -5 -8v-49z" />
    <glyph glyph-name="FL2039h" unicode="&#x2039;" horiz-adv-x="273" 
d="M298 326l-114 116l-172 -176l172 -177l114 117l-59 60zM40 266l144 148l85 -88l-57 -60l57 -60l-85 -88z" />
    <glyph glyph-name="FL203Ah" unicode="&#x203a;" horiz-adv-x="273" 
d="M40 206l85 -88l144 148l-144 148l-85 -88l58 -60zM70 266l-58 60l113 116l173 -176l-173 -177l-113 117z" />
    <glyph glyph-name="FL2122h" unicode="&#x2122;" horiz-adv-x="1530" 
d="M347 385v-63h107q9 0 14.5 11.5t5.5 21.5q0 8 -3 19t-11 11h-113zM460 406q9 0 16 -5.5t11 -13.5t6 -17t2 -15q0 -8 -3 -17.5t-8 -17.5t-12.5 -13.5t-17.5 -5.5h-129v105h135zM701 156v-135h327q24 0 46.5 9.5t42 24t35.5 32.5t27 36v-1l128 222q3 7 10.5 18t17.5 20.5
t20.5 16.5t19.5 7h141v134h-341q-20 0 -42 -12.5t-41.5 -29t-34.5 -33t-20 -25.5l-128 -222q-5 -8 -12.5 -18.5t-16.5 -20t-18.5 -16.5t-18.5 -7h-142zM56 540v-519h269v145h290q40 0 67.5 17t45 44.5t25 62.5t7.5 70q0 25 -7.5 56.5t-24.5 59t-45 46t-69 18.5h-558zM34 0
v561h580q47 0 79 -21t51.5 -52t28 -66t8.5 -62q0 -54 -16.5 -104t-54.5 -80h133q5 0 11.5 5.5t13 13.5t12 17t9.5 16h-1l129 222q6 9 22.5 27.5t39 37t48 32.5t48.5 14h362v-176h-162q-6 0 -13 -6t-14.5 -14.5t-13 -17.5t-8.5 -16l-129 -219v1q-11 -20 -28.5 -40t-39 -36
t-47.5 -26.5t-54 -10.5h-349v157q-28 -11 -64 -11h-268v-146h-313z" />
    <glyph glyph-name="FL017Dh" horiz-adv-x="894" 
d="M867 0v148h-147q-9 0 -18.5 7.5t-18.5 18t-17 22t-13 19.5l-131 237q-5 10 -20 28t-35.5 36t-44 31.5t-44.5 13.5h-351v-147h146q9 0 19.5 -7t20.5 -17.5t17.5 -21.5t10.5 -19l132 -239q10 -19 27 -38.5t38 -35.5t44.5 -26t47.5 -10h337zM399 792h-169l127 -166h177
l126 166h-169l-46 -64z" />
    </font>
</defs>
</svg>
