<?xml version="1.0" standalone="no"?>
<!DOCTYPE svg PUBLIC "-//W3C//DTD SVG 1.1//EN" "http://www.w3.org/Graphics/SVG/1.1/DTD/svg11.dtd" >
<svg xmlns="http://www.w3.org/2000/svg" xmlns:xlink="http://www.w3.org/1999/xlink" version="1.1">
<metadata>
Created by FontForge 20170731 at Wed May  8 09:13:53 2002
 By Aleksey,,,
Copyright 2002, \251 m klein fonteria. All rights reserved.
</metadata>
<defs>
<font id="CuxhavenTimes" horiz-adv-x="429" >
  <font-face 
    font-family="CuxhavenTimes"
    font-weight="500"
    font-stretch="normal"
    units-per-em="1000"
    panose-1="2 0 6 3 2 0 0 2 0 4"
    ascent="800"
    descent="-200"
    x-height="508"
    cap-height="722"
    bbox="-61 -205.6 948 841"
    underline-thickness="50"
    underline-position="-175"
    unicode-range="U+0005-2122"
  />
<missing-glyph horiz-adv-x="272" 
 />
    <glyph glyph-name=".notdef" horiz-adv-x="272" 
 />
    <glyph glyph-name=".null" horiz-adv-x="0" 
 />
    <glyph glyph-name="nonmarkingreturn" horiz-adv-x="333" 
 />
    <glyph glyph-name="breve" 
d="M411 278q0 44 -17 83t-46 68t-68 46t-83 17t-83 -17t-68 -46t-46 -68t-17 -83t17 -83t46 -68t68 -46t83 -17t83 17t68 46t46 68t17 83zM268 251q0 -11 -6.5 -25t-17 -26.5t-23 -21t-24.5 -8.5q-11 0 -21.5 7.5t-18.5 18.5t-13 23t-5 22q0 15 9.5 23.5t20.5 16.5
q-26 16 -26 44q0 11 6.5 24.5t16 25t21.5 19t24 7.5q9 0 18.5 -7t17 -17t12.5 -21t5 -20q0 -14 -8.5 -21t-19.5 -13q12 -8 22 -21.5t10 -29.5zM250 341q0 8 -3 17.5t-8 18t-12.5 14.5t-16.5 6q-16 0 -32.5 -15t-16.5 -31q0 -10 8.5 -17t19.5 -12t23 -9t20 -8q8 2 13 15.5
t5 20.5zM250 225q0 12 -8.5 19.5t-20.5 13.5t-25 10t-21 9q-11 -11 -14.5 -18.5t-3.5 -24.5q0 -9 3 -19.5t8 -19t13 -14.5t19 -6q8 0 16.5 5t16 12.5t12.5 16t5 16.5z" />
    <glyph glyph-name="dotaccent" 
d="M411 278q0 44 -17 83t-46 68t-68 46t-83 17t-83 -17t-68 -46t-46 -68t-17 -83t17 -83t46 -68t68 -46t83 -17t83 17t68 46t46 68t17 83zM266 281q0 -16 -6 -35.5t-17.5 -37t-26.5 -29t-33 -11.5q-6 0 -13 5t-13 12.5t-9.5 16t-3.5 14.5q0 8 5.5 10t11.5 2q8 0 15.5 -7
t7.5 -16q0 -6 -5 -11t-12 -5q-3 0 -6 1.5t-6 3.5q5 -7 12 -14.5t16 -7.5q15 0 22.5 10t11 24.5t4 29.5t0.5 25q-8 -10 -15.5 -16t-21.5 -6q-11 0 -20 6t-16 15t-10.5 20t-3.5 21q0 13 6 29t16 29.5t23 22.5t27 9t25.5 -13t19 -31t11.5 -36.5t4 -29.5zM221 348v11t-1.5 13
t-5 10.5t-10.5 4.5q-11 0 -17 -11.5t-9 -26.5t-3.5 -30t-0.5 -22q0 -5 0.5 -13.5t2 -17t5.5 -15t11 -6.5q14 0 20 12.5t8 29.5t1 34.5t-1 26.5z" />
    <glyph glyph-name="ring" horiz-adv-x="1022" 
 />
    <glyph glyph-name="hungarumlaut" unicode="&#xa;" horiz-adv-x="1022" 
 />
    <glyph glyph-name="ogonek" horiz-adv-x="1022" 
 />
    <glyph glyph-name="caron" horiz-adv-x="1022" 
 />
    <glyph glyph-name="dotlessi" unicode="&#xd;" 
d="M411 278q0 44 -17 83t-46 68t-68 46t-83 17t-83 -17t-68 -46t-46 -68t-17 -83t17 -83t46 -68t68 -46t83 -17t83 17t68 46t46 68t17 83zM271 258q0 -15 -7 -30.5t-18.5 -28.5t-26.5 -21.5t-30 -8.5q-8 0 -16.5 6.5t-15.5 16.5t-11.5 20t-4.5 18q0 9 8 16t17 7q10 0 19 -7
t9 -18q0 -8 -6 -13t-14 -5q-11 0 -15.5 9.5t-6.5 17.5q-6 -5 -6 -13q0 -7 3.5 -15.5t9.5 -16t13.5 -12.5t15.5 -5q12 0 20 8.5t12.5 20.5t6.5 25t2 22t-1 20.5t-4.5 22t-10.5 17.5t-18 7q-13 0 -20 -5t-10.5 -12t-5.5 -15t-6 -13l-3 -1l-4 6q1 5 3 8.5t4 7.5q0 7 2 19t4 25
t3 24.5t0 16.5q20 -2 46 -3.5t46 0.5h1q2 0 3 0.5t3 0.5q-8 -20 -17.5 -25.5t-31.5 -5.5q-14 0 -24.5 5.5t-20.5 13.5q-2 -16 -4.5 -32.5t-4.5 -32.5q9 11 22 18.5t27 7.5q12 0 23.5 -6.5t20.5 -16.5t14.5 -22t5.5 -23z" />
    <glyph glyph-name="fraction" horiz-adv-x="320" 
d="M289 629l-15 21q-37 -69 -69 -140.5t-63.5 -143t-63.5 -143t-69 -140.5q4 -6 7.5 -12t8.5 -11q38 69 71 140t64 143t62.5 144t66.5 142z" />
    <glyph glyph-name="fi" horiz-adv-x="483" 
d="M372 576q0 9 -4 19.5t-11 20t-16 16t-19 6.5q-14 0 -26 -11t-12 -26q0 -23 15.5 -39t38.5 -16q13 0 23.5 8t10.5 22zM452 132l-6 3q-8 -8 -15 -16.5t-14 -17.5q-13 9 -17 23.5t-4 29.5q0 20 1 40.5t1 41.5q0 34 -2 68t-2 68q0 22 10 42t30 31l-9 9q-8 -6 -15.5 -13.5
t-16.5 -13.5q-6 19 -17 38t-25 33q-6 7 -10.5 14t-9.5 15q-14 -17 -31 -31t-34.5 -26.5t-35 -26t-32.5 -28.5q2 -2 4 -4.5t4 -4.5q9 9 19.5 16.5t20.5 15.5q7 -5 12 -11.5t11 -11.5q6 -14 9.5 -38.5t4.5 -51.5t1 -53v-43q0 -30 -2 -60.5t-2 -61.5q0 -20 4.5 -33.5t12 -24.5
t18 -21.5l22.5 -22.5q5 7 10 13.5t11 11.5v1q1 4 14 16.5t28.5 28t30.5 31t21 25.5zM315 685l-11 8q-5 -7 -12.5 -12.5t-16.5 -5.5q-8 5 -15 10.5t-9 15.5q-26 -30 -57.5 -52.5t-61 -46t-52.5 -53.5t-30 -76q-9 -2 -18 -4.5t-17 -5.5q-2 -9 -3 -18t-3 -18q9 2 18.5 3.5
t18.5 4.5q-4 -39 -5.5 -78t-1.5 -78q0 -95 5.5 -189t7.5 -189l9 -10q1 18 0 41.5t2.5 44t15.5 34.5t39 14q8 0 16 -0.5t16 -1.5q2 32 3 63t1 63q0 75 -1.5 150.5t3.5 150.5q31 3 64 3q3 14 4 28.5t4 28.5q-18 -3 -35.5 -5.5t-35.5 -6.5q5 30 9.5 60t10.5 60q9 -5 20 -8.5
t22 -3.5q16 0 30.5 7.5t26.5 19t22 25.5t17 27z" />
    <glyph glyph-name="fl" horiz-adv-x="527" 
d="M496 586q0 10 -7 24t-16.5 28.5t-20.5 26t-19 17.5q-7 5 -14.5 6.5t-15.5 1.5q-28 0 -49.5 -18.5t-35.5 -45t-21.5 -56.5t-7.5 -53q0 -15 0.5 -48.5t0.5 -75.5v-88t-1 -86t-3 -69t-5 -37t-10 -17t-15.5 -18t-17.5 -16.5t-16 -13.5l8 -9q16 9 28 22t26 25q6 -14 12 -28.5
t17 -25.5q4 -4 12 -9.5t10 -9.5q5 -4 9 -7.5t8 -8.5q27 35 64.5 62t69.5 59l-7 7q-8 -8 -15.5 -16.5t-16.5 -15.5q-21 9 -30 30t-9 43q0 26 1 51t1 51q0 78 -2.5 156t-2.5 156q0 9 -0.5 22.5t1 27t5.5 24.5t13 16h8q16 -7 21 -19q-13 4 -19 -5t-6 -20q0 -9 4 -19t10.5 -18.5
t15 -14t17.5 -5.5q8 0 14.5 4.5t6.5 12.5zM333 688l-9 6q-7 -7 -16 -14.5t-20 -7.5q-17 0 -19.5 11.5t-4.5 24.5q-41 -29 -83.5 -59t-78.5 -65q-23 -22 -32.5 -51t-17.5 -58q-9 -2 -17.5 -4t-17.5 -4q-1 -8 -4 -16t-3 -16v-5q9 2 18.5 3t18.5 4q-6 -75 -6 -151
q0 -96 6 -190.5t11 -189.5l11 -10q-2 18 -3 40.5t2.5 43t15.5 34t38 13.5q8 0 15 -1l14 -2q2 32 3 64t1 64q0 75 -2 149t2 149q17 1 32.5 2t32.5 1q6 28 9 57q-17 -4 -35 -7t-35 -7q3 32 8 62.5t10 61.5q7 -9 17 -15.5t22 -6.5q18 0 34.5 9.5t31.5 23t27.5 29t23.5 28.5z
" />
    <glyph glyph-name="space" unicode=" " horiz-adv-x="222" 
 />
    <glyph glyph-name="exclam" unicode="!" horiz-adv-x="159" 
d="M128 543q0 10 -3 30t-7.5 42t-10 41t-9.5 27q-4 7 -11.5 12.5t-15.5 6.5q-19 -7 -30.5 -29.5t-18 -50t-9 -55t-2.5 -44.5q0 -45 6 -90.5t14 -91t16.5 -90.5t14.5 -90l10 -1l3 1q5 23 8 45.5t7 45.5q11 70 24.5 145t13.5 146zM133 55q-2 9 -7.5 20.5t-13 21t-17 16
t-20.5 6.5q-10 0 -22 -6t-22.5 -15t-18 -20t-7.5 -21q0 -9 5 -20t13.5 -21t18.5 -16.5t20 -6.5q12 0 23.5 5.5t21.5 14.5t17 20t9 22z" />
    <glyph glyph-name="quotedbl" unicode="&#x22;" horiz-adv-x="295" 
d="M263 646q0 15 -0.5 23t-2 14.5t-6 13.5t-11.5 19q-5 2 -8.5 5t-7.5 6q-3 1 -10 1q-15 0 -21 -14t-6 -26q0 -38 8.5 -75.5t8.5 -75.5q0 -20 -4 -39.5t-12 -37.5l17 5q30 38 42.5 85.5t12.5 95.5zM53 463q7 29 9.5 58.5t5.5 58.5t8.5 58t17.5 57q4 10 4 17q0 12 -8 17
q-2 0 -4.5 0.5t-4.5 0.5q-18 0 -31.5 -10t-22.5 -24.5t-13.5 -32t-4.5 -32.5q0 -21 4 -41.5t9.5 -40.5t10.5 -40t7 -41z" />
    <glyph glyph-name="numbersign" unicode="#" horiz-adv-x="606" 
d="M575 401q-1 12 -3 24t-2 24q-38 5 -76 9t-76 6q6 51 13.5 101.5t15.5 101.5q-11 2 -21.5 5.5t-21.5 5.5q-14 -53 -25.5 -105t-19.5 -106q-26 2 -52.5 1t-52.5 0q22 110 65 217h-8q-11 1 -23 -0.5t-23 -2.5q-22 -53 -40 -106t-30 -109q-42 -1 -82.5 -6t-82.5 -7
q-2 -13 -2 -26q0 -12 -2 -25q40 2 79 3.5t79 2.5q-5 -25 -6.5 -49.5t-4.5 -49.5q-42 2 -82 3t-82 4q1 -10 2.5 -19.5t0.5 -19.5v-6q38 -5 77 -9t78 -6q-6 -56 -15 -110.5t-17 -109.5q10 -4 20 -6.5t21 -4.5q15 57 28.5 114t22.5 115q27 -2 53.5 -1.5t53.5 1.5
q-8 -62 -28.5 -120.5t-43.5 -116.5q14 0 26.5 0.5t26.5 1.5q27 57 48 115.5t32 120.5q42 1 82.5 3.5t81.5 7.5q1 9 2 17.5t0 17.5v13q-40 -3 -79 -3.5t-79 -1.5q2 25 4 49t4 49q42 -1 82 -3t82 -4zM352 410q-3 -25 -5 -50t-5 -50h-108q3 25 4.5 49.5t5.5 49.5q23 -1 46 0.5
t46 0.5h16z" />
    <glyph glyph-name="dollar" unicode="$" horiz-adv-x="203" 
d="M-61 -142q37 15 57 29.5t29 27.5t11 25t4.5 22t8.5 17.5t23 12.5q8 2 14 2t11 1t10.5 3.5t11.5 10.5l5 -1q3 42 4 82t1 82q0 109 -1.5 216.5t9.5 216.5q15 -22 38 -31.5t49 -9.5q8 0 17.5 2t17.5 6t13.5 10.5t5.5 15.5q0 6 -3.5 12t-6.5 11q0 -7 -3 -11l-10 -2
q-13 12 -21 18.5t-13 13t-7.5 17t-4.5 29.5q-13 -15 -29 -26.5t-33 -22t-33.5 -21.5t-29.5 -26q-25 -26 -43 -62.5t-23 -72.5q-1 -8 -1 -17q0 -8 -4 -16q-4 -60 -5.5 -120.5t-1.5 -121.5q0 -63 2 -125t5 -125z" />
    <glyph glyph-name="percent" unicode="%" horiz-adv-x="735" 
d="M496 25q11 0 23.5 5.5t24.5 13.5t23 17t19 16q37 32 69 71.5t44 88.5q4 16 4 36q0 22 -8.5 51t-24.5 54t-37.5 42.5t-47.5 17.5q-27 0 -47.5 -18t-35 -47t-23.5 -64.5t-14.5 -70.5t-7.5 -66t-2 -50q0 -11 1 -27t4.5 -32t12 -27t23.5 -11zM588 426q16 0 24.5 -13.5t12 -32
t3.5 -37.5v-30q0 -57 -12 -104.5t-36 -98.5q-5 -11 -12 -23t-16 -23t-20.5 -19t-24.5 -9l-5 4l-2 5q-1 10 3.5 18t5.5 17q26 56 38 116t12 122q0 15 -1 30.5t-1 30.5q0 16 5.5 31.5t25.5 15.5zM200 665q7 -2 10.5 -4.5t3.5 -10.5q0 -6 -3.5 -13t-5.5 -13
q-22 -56 -35.5 -114.5t-13.5 -118.5q0 -17 1.5 -35t1.5 -35q0 -7 -1.5 -15.5t-5 -16t-9.5 -12.5t-15 -5q-12 0 -20.5 10.5t-13.5 19.5q-2 19 -4 37t-2 37q0 28 6 72.5t19.5 89t35 80.5t51.5 47zM258 604q-1 9 -3 21.5t-6.5 24t-12.5 19t-21 7.5q-4 0 -10 -2q-33 -11 -68 -38
t-63 -62.5t-46 -75.5t-18 -76q0 -24 8.5 -52t24.5 -52.5t38.5 -41t49.5 -16.5q26 0 45.5 18t33.5 47t24 65t15.5 71t7.5 65.5t2 49.5q22 -14 46.5 -20t49.5 -6q52 0 97 21q-36 -66 -67.5 -134.5l-63 -137t-65 -136t-74.5 -130.5l14 -13q54 75 95 156.5t79 165t76.5 166.5
t87.5 161q-4 3 -7.5 6t-7.5 7q-30 -45 -57 -93q-48 -20 -98 -20q-29 0 -56 8.5t-50 26.5z" />
    <glyph glyph-name="ampersand" unicode="&#x26;" horiz-adv-x="599" 
d="M568 434q0 14 -8 28.5t-20.5 26.5t-27.5 19.5t-29 7.5q-35 0 -56 -24t-32.5 -57.5t-17 -69.5t-9.5 -61q-21 38 -45 76.5t-38 80.5q20 16 38.5 33t32.5 36.5t22.5 42t8.5 50.5q0 17 -4 34t-12 30.5t-22 22t-33 8.5q-36 0 -72 -22.5t-64.5 -56.5t-46 -74t-17.5 -74
q0 -29 9 -57.5t21 -54.5q-20 -18 -43.5 -37.5t-44 -41t-34.5 -46.5t-14 -54q0 -22 12.5 -52.5t32.5 -58t45.5 -47t51.5 -19.5q21 0 40.5 7.5t38 19.5t34.5 26.5t30 28.5q9 -12 18 -26.5t19.5 -26.5t24 -20t31.5 -8q21 0 47.5 16t51 39.5t44 49t28.5 43.5l-10 -3
q-7 -14 -17 -28.5t-24 -23.5h-5q-14 -2 -22.5 7t-15.5 20q-22 35 -43 69.5t-43 69.5q4 21 7 51.5t9.5 61t18.5 55.5t35 35l8 -3q-22 -19 -22 -48t22 -49t50 -20q20 0 35 12t25 28q-2 7 -0.5 14t1.5 14zM356 637q0 -51 -17.5 -92t-59.5 -73q-11 32 -22.5 64.5t-11.5 67.5
q0 14 4.5 32t13 33.5t21.5 26.5t30 11q13 0 21 -7.5t12.5 -18t6.5 -23t2 -21.5zM289 118q-7 -13 -24 -25t-32 -12q-6 0 -14.5 4.5t-17 11t-15.5 13t-11 11.5q-12 13 -22.5 32t-18.5 40t-12.5 42.5t-4.5 39.5q0 25 8.5 48t26.5 40q29 -64 66 -123.5t71 -121.5z" />
    <glyph glyph-name="quotesingle" unicode="'" horiz-adv-x="116" 
d="M85 680q0 11 -4.5 24t-8.5 23q-3 3 -9.5 8t-11.5 5q-10 0 -18 -7t-13 -17.5t-8 -22t-3 -19.5q0 -56 9.5 -110t13.5 -110l10 -2q2 0 4 0.5t4 0.5q6 22 12 52t11 61.5t8.5 61t3.5 52.5z" />
    <glyph glyph-name="parenleft" unicode="(" horiz-adv-x="292" 
d="M261 608l-1 11q-8 14 -22 23.5t-30 9.5q-18 0 -35.5 -10.5t-33 -25.5t-29 -31.5t-22.5 -29.5q-18 -26 -32.5 -59t-25 -68t-15.5 -70.5t-5 -67.5v-12q2 -87 24 -169t70 -155q14 -23 36.5 -44t51.5 -21q16 0 26 6.5t21 17.5l5 13q-14 -15 -34 -15q-22 0 -35.5 17.5
t-21.5 42t-12 50t-5 41.5q-5 56 -8.5 111t-3.5 112q0 17 0.5 48.5t3.5 69.5t9.5 77.5t17.5 71.5t29 52.5t43 20.5q11 0 19 -5t15 -12z" />
    <glyph glyph-name="parenright" unicode=")" horiz-adv-x="296" 
d="M264 245v14q-2 87 -25 170t-70 157q-14 22 -36.5 42t-51.5 20q-27 0 -47 -23l-5 -12q7 8 16.5 11.5t19.5 3.5q23 0 37 -20q12 -18 20.5 -46.5t13.5 -63.5t8 -73t4 -74.5t1 -68.5v-54q0 -17 -1 -47t-4 -65t-10 -71t-19 -65.5t-29.5 -48t-43.5 -18.5q-2 0 -4.5 0.5
t-4.5 0.5q-7 5 -13 9t-11 11l1 -11q8 -16 23 -25.5t33 -9.5q16 0 33.5 10.5t34 26t30 32.5t21.5 29q38 58 59.5 124t19.5 135z" />
    <glyph glyph-name="asterisk" unicode="*" horiz-adv-x="335" 
d="M304 492q-2 15 -14 23.5t-26 8.5q-5 0 -18 3t-27.5 7t-28.5 7.5t-21 5.5q23 8 49.5 14.5t50.5 9.5q11 2 18.5 4.5t14.5 11.5q0 3 1 5.5t1 5.5q0 14 -11 25t-23 16q-11 0 -26.5 -10.5t-31.5 -24.5t-30.5 -28t-22.5 -22q2 5 9 24t14.5 40t13.5 38.5t6 18.5q0 12 -9.5 21.5
t-21.5 9.5q-15 0 -26.5 -10t-17.5 -23q0 -30 9 -61t15 -60q-17 17 -34 34.5t-32 37.5q-5 7 -12 12.5t-16 5.5q-15 0 -31 -14.5t-16 -30.5q0 -14 13 -19.5t24 -6.5q25 -2 51.5 -10t49.5 -16q-26 -6 -51 -13t-51 -10q-12 -2 -24.5 -10t-12.5 -22q0 -16 15.5 -25t27.5 -13
q4 2 7.5 4t8.5 4q22 17 43 35.5t41 38.5q-2 -8 -8.5 -26t-13.5 -37t-12 -35t-5 -21q0 -12 8 -21t21 -9q7 0 15.5 4t16 10.5t12 14.5t4.5 15q0 12 -3 26t-7 29t-8.5 29.5t-8.5 25.5q17 -17 34 -33.5t32 -34.5q12 -15 32 -18q15 3 26.5 14t16.5 25z" />
    <glyph glyph-name="plus" unicode="+" horiz-adv-x="472" 
d="M440 265v7q1 11 -0.5 22.5t-1.5 22.5q-45 1 -90.5 3t-90.5 2v12q-1 41 4 81t14 79q-9 1 -18 1.5t-18 0.5h-9t-8 -1q-14 -42 -22.5 -85.5t-8.5 -88.5q-91 0 -181 -3l-1 -20q0 -17 3 -33q91 -6 183 -6v-22q1 -76 -20 -153q5 -1 11 -1h11h15q8 0 16 1q18 42 25.5 86.5
t7.5 89.5q45 0 89.5 0.5t89.5 4.5z" />
    <glyph glyph-name="comma" unicode="," horiz-adv-x="146" 
d="M114 32q0 10 -3 27t-9 33t-15.5 28t-22.5 12q-11 0 -20.5 -8t-17 -20t-12 -24.5t-4.5 -21.5q0 -12 4 -23.5t9 -23.5t9 -24.5t4 -25.5q0 -20 -5 -44t-22 -38q2 -3 2.5 -6.5t2.5 -5.5q13 0 23 8t18 16q27 29 43 65t16 76z" />
    <glyph glyph-name="hyphen" unicode="-" horiz-adv-x="286" 
d="M255 365q-5 2 -10 5q-11 -8 -24 -8q-20 0 -41 2.5t-42 2.5q-26 0 -54.5 -11t-44.5 -33q-8 -12 -18 -23t-12 -26q2 -2 5 -3t5 -3q10 7 22 7q17 0 33.5 -2.5t33.5 -2.5q25 0 49.5 4.5t44.5 15t34.5 29t18.5 46.5z" />
    <glyph glyph-name="period" unicode="." horiz-adv-x="168" 
d="M137 55q-2 9 -7.5 20.5t-13 21t-17 16t-20.5 6.5q-10 0 -22 -6t-22.5 -15t-18 -20t-7.5 -21q0 -9 5 -20t13.5 -21t18.5 -16.5t20 -6.5q12 0 23.5 5.5t21.5 14.5t17 20t9 22z" />
    <glyph glyph-name="slash" unicode="/" horiz-adv-x="430" 
d="M399 634l-15 21q-52 -70 -97.5 -144.5t-89.5 -149.5t-90 -149.5t-98 -144.5q4 -7 7.5 -11.5t8.5 -10.5q53 70 99.5 144t91 149t89 149.5t94.5 146.5z" />
    <glyph glyph-name="zero" unicode="0" horiz-adv-x="468" 
d="M436 250q0 37 -13 85.5t-38 91.5t-60 73t-79 30q-42 0 -84.5 -24t-76 -61t-54.5 -81.5t-21 -85.5q0 -36 13.5 -84t38.5 -90.5t60 -72.5t77 -30t84.5 23.5t76.5 60t55 80.5t21 85zM299 392q0 -42 1 -84.5t1 -84.5q0 -23 -3 -58t-13 -67.5t-29.5 -56t-51.5 -23.5
q-16 0 -26.5 8t-16.5 20t-8.5 26.5t-2.5 26.5q0 51 -1.5 101.5t-1.5 101.5q0 22 2.5 58t12 70t28.5 59t51 25q22 0 34 -13.5t17 -32.5t6 -40t1 -36z" />
    <glyph glyph-name="one" unicode="1" horiz-adv-x="273" 
d="M242 68q-12 -9 -24 -17t-26 -14q14 54 18 109t4 111q0 54 -2 106t-2 106v27q0 14 1 28q-55 -28 -104.5 -63.5t-97.5 -73.5q2 -2 4 -8q15 14 32.5 25.5t34.5 22.5q-5 -36 -6.5 -72.5t-1.5 -73.5q0 -44 1 -87.5t1 -88.5v-34t-1 -34q-14 4 -26 13t-23 18l2 -8l-1 -2
q20 -22 47 -32.5t56 -10.5q30 0 59 10.5t52 31.5q1 3 1.5 5.5t1.5 5.5z" />
    <glyph glyph-name="two" unicode="2" horiz-adv-x="447" 
d="M414 219q-2 0 -6.5 0.5t-6.5 -1.5q3 -15 -2 -32.5t-15 -31.5t-24.5 -23.5t-30.5 -9.5q-15 0 -29.5 9.5t-32.5 21.5t-42 21.5t-58 9.5q-42 0 -80 -15t-64 -48q6 18 16.5 40.5t25.5 35.5q20 17 51.5 27.5t67.5 18.5t72.5 16.5t65.5 22t47.5 34.5t18.5 54q0 31 -16 60
t-40.5 51t-55.5 35t-61 13h-5q-48 -1 -90 -23.5t-74 -56.5q-14 -14 -25 -32t-11 -38q0 -13 6 -24t15.5 -19.5t22 -13t24.5 -4.5q15 0 30.5 7t27.5 18t19.5 26t7.5 30q0 19 -12.5 35t-32.5 16q-15 0 -30.5 -7.5t-28 -19.5t-20 -27t-6.5 -30v-5l-5 7q-2 5 -3 9t-1 9
q0 20 15 39.5t36 35t45 25t42 9.5q22 0 38 -8t26.5 -22t16.5 -32t8 -37v-1q0 -35 -18 -58t-45 -40.5t-58 -33.5t-58 -36t-45 -48.5t-18 -71.5q0 -11 1 -23t2 -23q3 -2 6 -3.5t6 -2.5q-1 11 0 21.5t4.5 19t12 13.5t22.5 5q25 0 42 -17t33.5 -37.5t36 -37.5t49.5 -17
q2 0 4.5 -0.5t4.5 0.5q31 7 63.5 28t58.5 49.5t43 62t17 66.5q0 6 -1 9z" />
    <glyph glyph-name="three" unicode="3" horiz-adv-x="440" 
d="M176 -143q35 0 76 22t75.5 55t57.5 73t23 76q0 22 -8.5 41.5t-22 36.5t-30.5 31t-35 25q-14 8 -29.5 13.5t-30.5 10.5q19 7 41 17t41 23.5t32 31.5t13 43q0 29 -13 59.5t-34.5 55.5t-49.5 41t-58 15h-6q-27 -1 -49.5 -9.5t-41.5 -22.5t-36 -32.5t-33 -37.5
q-11 -12 -22 -34t-11 -38q0 -23 20 -38t41 -15q23 0 48 11.5t37 31.5q1 2 2.5 5.5t3.5 4.5q1 7 3.5 13.5t2.5 13.5q0 18 -13.5 33t-32.5 15q-14 0 -28.5 -8t-26.5 -20t-20 -26.5t-8 -27.5q0 -11 1 -16q-3 3 -6 5.5t-5 6.5l-5 6l-3 7l4 9l-1 7q6 22 22.5 46t38.5 44.5t47 34
t49 13.5q22 0 35.5 -12.5t21 -31t10 -39.5t2.5 -37q0 -45 -11 -73t-28 -44.5t-37.5 -25t-39.5 -15t-34 -14.5t-21 -23q2 -3 7 -6.5t9 -3.5q3 0 13.5 5.5t23 12.5t23 13.5t13.5 9.5q27 0 45 -15.5t28 -38.5t14 -49t4 -47q0 -29 -5.5 -63.5t-19 -65.5t-37 -51.5t-59.5 -20.5
q-24 0 -46.5 16t-40.5 40t-30.5 50.5t-16.5 47.5v4q-1 13 6.5 23.5t15.5 19.5v-6q1 -4 0 -7.5t-1 -7.5q0 -12 6 -25t16 -24.5t22 -19t24 -7.5q9 0 19 4t18.5 10.5t13.5 15.5t5 19l3 5q-2 33 -28.5 54t-58.5 21q-12 0 -24.5 -5t-23 -13t-17 -19.5t-6.5 -24.5q0 -30 14.5 -63
t38 -61t53.5 -46t61 -18z" />
    <glyph glyph-name="four" unicode="4" horiz-adv-x="480" 
d="M449 54q-26 -8 -52 -12.5t-52 -7.5q3 35 4 69.5t1 69.5q0 60 -1.5 119t-1.5 119q0 29 0.5 58t2.5 58q-30 -60 -64.5 -118.5t-72.5 -115.5q-1 -11 -1 -22v-21q0 -41 2 -81.5t2 -81.5q0 -15 -0.5 -30t-1.5 -30q-47 1 -93 6t-91 17q28 23 48.5 52t37 60.5t30 64.5t26.5 66
q25 62 49.5 123t52.5 121q-20 -2 -34 -8.5t-25 -16.5t-21 -22.5t-21 -26.5q5 17 1 32t-5 31l-15 -4q8 -30 8 -59q0 -35 -10 -84.5t-26 -101t-35.5 -98.5t-37.5 -76q-9 -14 -20.5 -27.5t-23.5 -25.5q1 -3 1 -9q0 -5 -1 -7q49 -18 100 -25.5t103 -8.5q-3 -39 -7 -77.5
t-12 -76.5h11q26 -1 51.5 2.5t50.5 10.5q14 37 22.5 74.5t15.5 75.5q26 5 50.5 10.5t49.5 13.5q2 5 2.5 10.5t2.5 10.5z" />
    <glyph glyph-name="five" unicode="5" horiz-adv-x="433" 
d="M156 -145q46 0 90.5 25.5t79.5 65.5t56 88t21 92q0 34 -17 70.5t-44.5 66.5t-62.5 49.5t-70 19.5q-45 0 -83.5 -22.5t-64.5 -57.5q2 23 6 44.5t7 44.5q3 28 6 55t7 55q30 -26 62.5 -42t74.5 -16q16 0 35.5 2t38.5 7.5t35 15t26 24.5q6 9 8 21t7 23l-9 -1q-5 -3 -11 -3
l-2 1q-7 -1 -13 -1h-13q-25 0 -49.5 2.5t-49.5 2.5q-38 1 -77 1q-38 0 -76 5q4 -15 0.5 -49.5t-9.5 -74.5t-12.5 -77.5t-8.5 -57.5q-5 -9 -12 -23t-7 -24q0 -5 3.5 -10.5t7.5 -7.5l8 3q11 17 13 33.5t10 33.5q6 14 18.5 26.5t28 21.5t32 14.5t31.5 5.5q32 0 51.5 -23t30 -55
t14 -66t3.5 -57q0 -27 -5.5 -67t-19 -77t-37 -63.5t-59.5 -26.5q-21 0 -39 9.5t-33 24t-27 32.5t-19 36q-3 7 -8 24t-5 24q0 23 18 41q2 -14 7 -28.5t13 -27t20 -20.5t29 -8q22 0 41 17.5t19 39.5q0 16 -8 29.5t-20.5 23.5t-27.5 15t-30 5q-14 0 -27.5 -5.5t-24 -15t-17 -22
t-6.5 -27.5q0 -22 13.5 -53.5t35 -60.5t47.5 -49.5t50 -20.5z" />
    <glyph glyph-name="six" unicode="6" horiz-adv-x="445" 
d="M200 1q39 0 77.5 29t68.5 71t48.5 88.5t18.5 81.5q0 36 -9 71t-32 64q-9 11 -21 23t-26.5 22t-30 16.5t-30.5 6.5q-39 0 -66 -16.5t-50 -48.5q0 20 0.5 49t3.5 60.5t9.5 62.5t19 55.5t32.5 40t50 15.5q26 0 48.5 -20.5t34.5 -42.5q-7 5 -16.5 9t-18.5 4
q-20 0 -33.5 -14.5t-13.5 -34.5q0 -29 21 -50.5t51 -21.5q17 0 31 11.5t14 29.5q0 21 -11 45.5t-28.5 45.5t-39.5 35.5t-44 14.5q-26 0 -49.5 -9.5t-43.5 -25t-37.5 -34.5t-32.5 -38q-39 -52 -62.5 -113.5t-23.5 -127.5q0 -25 5.5 -60.5t16 -75t26 -78.5t37 -70t48 -50.5
t58.5 -19.5zM235 456q22 0 33.5 -19.5t16.5 -46t5.5 -53.5t0.5 -41q0 -15 -0.5 -42t-3 -58.5t-8 -64t-16 -59t-25.5 -43.5t-38 -17q-20 0 -30.5 13t-15 31t-4.5 37v34q0 25 1.5 49.5t1.5 50.5q0 28 -1.5 55.5t-1.5 56.5q0 20 4 39.5t16 36.5q9 13 28.5 27t36.5 14z" />
    <glyph glyph-name="seven" unicode="7" horiz-adv-x="408" 
d="M375 464l-7 7q-2 -11 -2 -22q0 -10 -8 -18l-11 -3q-18 1 -35.5 16t-36 33t-39.5 32.5t-47 14.5q-28 0 -59.5 -22t-58.5 -54t-44.5 -67t-17.5 -62l10 1l1 1q0 15 6.5 33.5t18.5 35t27.5 28t32.5 11.5q16 0 29 -9.5t28.5 -21.5t37.5 -21.5t55 -9.5q10 0 25.5 2.5t31 8
t28.5 13t19 17.5l4 2q-5 -39 -27 -80.5t-50 -83t-57.5 -81t-49.5 -74.5q-9 -15 -18.5 -34.5t-17.5 -40.5t-13 -41.5t-5 -37.5q0 -13 4 -29t11.5 -29.5t19 -23t27.5 -9.5q14 0 27.5 8t25 20t19.5 26t11 27q6 25 8 51.5t5 52.5q5 51 13.5 100.5t21.5 99.5q6 24 16 48.5
t19.5 49.5t16.5 50t7 49q0 9 -0.5 18t-1.5 18z" />
    <glyph glyph-name="eight" unicode="8" horiz-adv-x="430" 
d="M179 7q37 0 76.5 25t71 61.5t52 79.5t20.5 79q0 23 -8.5 45t-22 42t-30.5 37t-35 30q16 9 31 18.5t27 21.5t19 27.5t7 36.5q0 2 0.5 4t-0.5 4q-6 26 -17 53t-27 51t-37 43.5t-47 29.5q-5 2 -16.5 5.5t-16.5 3.5q-35 0 -71.5 -23t-66.5 -57.5t-49 -74.5t-19 -73
q0 -46 20.5 -78.5t58.5 -56.5q-17 -11 -33 -23t-29 -26t-20.5 -31.5t-7.5 -39.5q0 -29 15 -66t39 -70t54.5 -55.5t61.5 -22.5zM222 692q29 0 51.5 -17.5t38 -43t23.5 -55t8 -53.5q0 -56 -40 -99l-6 -6t-7 -4q-22 11 -43 21t-44 19q-19 7 -41.5 13.5t-41.5 16t-32 25.5
t-13 43q0 24 14 49t36 45t47.5 33t49.5 13zM343 172q0 -24 -14.5 -51t-37 -49.5t-49 -37t-50.5 -14.5q-32 0 -56 18t-40.5 44.5t-24.5 58t-8 58.5q0 28 6.5 58t25.5 52q5 6 11.5 10t11.5 10q19 -11 39.5 -20t40.5 -17q21 -8 46.5 -17t47 -22t36.5 -32.5t15 -48.5z" />
    <glyph glyph-name="nine" unicode="9" horiz-adv-x="442" 
d="M410 193q0 23 -5.5 56.5t-16 70.5t-26.5 73.5t-36.5 66t-45.5 48t-54 18.5q-43 0 -82 -28t-69 -69.5t-47.5 -89t-17.5 -86.5q0 -31 11.5 -63.5t32 -59.5t48.5 -44.5t62 -17.5q23 0 50 12t42 29q5 6 9 12.5t9 12.5q0 -19 -0.5 -46.5t-3.5 -57.5t-9.5 -60t-19.5 -53.5
t-32.5 -38t-47.5 -14.5q-15 0 -27.5 6t-23 16t-20 21.5t-16.5 22.5q9 -5 17 -10t19 -5q19 0 34.5 15.5t15.5 34.5q0 28 -22.5 48t-50.5 20q-18 0 -32.5 -8.5t-14.5 -30.5q0 -17 11 -41t28 -46.5t37.5 -38t39.5 -15.5q35 0 64.5 14t55 36.5t46.5 50t38 54.5q24 38 37 89.5
t13 95.5zM273 396q0 -25 -1 -49.5t-1 -49.5q0 -20 -0.5 -39.5t0.5 -39.5q2 -35 -4.5 -62.5t-35.5 -50.5q-8 -7 -20.5 -13t-23.5 -6q-8 0 -18.5 4.5t-15.5 11.5q-7 10 -11.5 29t-6.5 39.5t-3 40.5t-1 33q0 18 2 51.5t6.5 69.5t10.5 67.5t15 45.5q8 13 24 25t32 12
q21 0 31.5 -13.5t15 -32t5 -39t0.5 -34.5z" />
    <glyph glyph-name="colon" unicode=":" horiz-adv-x="159" 
d="M133 425q-2 9 -7.5 20.5t-13 21t-17 16t-20.5 6.5q-10 0 -22 -6t-22.5 -15t-18 -20t-7.5 -21q0 -9 5 -20t13.5 -21t18.5 -16.5t20 -6.5q12 0 23.5 5.5t21.5 14.5t17 20t9 22zM133 55q0 11 -4.5 22.5t-12.5 20.5t-18.5 15t-22.5 6q-13 0 -25.5 -5.5t-22.5 -14.5t-16 -21.5
t-6 -25.5q0 -9 5.5 -19t14 -19t18.5 -15t19 -6q12 0 24.5 5t23 13.5t17 19.5t6.5 24z" />
    <glyph glyph-name="semicolon" unicode=";" horiz-adv-x="155" 
d="M133 425q-2 9 -7.5 20.5t-13 21t-17 16t-20.5 6.5q-10 0 -22 -6t-22.5 -15t-18 -20t-7.5 -21q0 -9 5 -20t13.5 -21t18.5 -16.5t20 -6.5q12 0 23.5 5.5t21.5 14.5t17 20t9 22zM119 63q0 32 -13.5 52.5t-48.5 20.5q-18 0 -33 -12.5t-15 -31.5q0 -16 4.5 -31.5t10.5 -31
t10.5 -31t4.5 -31.5q0 -20 -10 -42l-8 -7l-10 5q4 -10 6 -20.5t16 -10.5q18 0 34 21t27.5 49.5t18 57t6.5 43.5z" />
    <glyph glyph-name="less" unicode="&#x3c;" horiz-adv-x="516" 
d="M485 529l-9 45q-63 -9 -122.5 -28.5t-117 -45.5t-113.5 -55t-112 -57q-1 -5 -1 -10v-9q0 -22 3 -44q51 -27 101 -56t100.5 -56t103.5 -49.5t110 -35.5l34 47q-53 14 -102.5 35.5t-97.5 46t-95.5 49.5t-96.5 48l100 52t101.5 49.5t104.5 42.5t109 31z" />
    <glyph glyph-name="equal" unicode="=" horiz-adv-x="507" 
d="M476 339q-3 12 -11 21.5t-13 20.5q-45 11 -91 15.5t-93 4.5q-51 0 -101.5 -5t-101.5 -13q-31 -19 -53 -45q121 9 243 9q55 0 110 -2t111 -6zM476 242q-60 -5 -119 -7.5t-119 -2.5q-115 0 -229 9q7 -21 20 -42q46 -11 92.5 -15.5t94.5 -4.5q52 0 104 5t103 13
q15 9 28.5 20t24.5 25z" />
    <glyph glyph-name="greater" unicode="&#x3e;" horiz-adv-x="516" 
d="M484 323q0 3 0.5 6t0.5 6q0 12 -1.5 24t-1.5 24q-51 26 -100.5 56t-100 57.5t-103.5 49.5t-110 32q-8 -11 -15.5 -22t-12.5 -23q51 -15 100 -36t96 -45t94 -50t94 -50l-100 -52t-101.5 -49t-105 -41.5t-108.5 -30.5l7 -45q64 8 124 27.5t118 45.5t114 56z" />
    <glyph glyph-name="question" unicode="?" horiz-adv-x="359" 
d="M328 504q0 8 -1 11q-6 29 -18.5 61.5t-32.5 60t-47.5 45.5t-61.5 18q-24 0 -52 -18.5t-51 -45t-38.5 -56.5t-15.5 -54q0 -32 18.5 -45.5t47.5 -13.5q12 0 25.5 7t24 18.5t17.5 24.5t7 25q0 16 -11.5 29.5t-28.5 13.5q-15 0 -25 -10.5t-19 -20.5l9 -1q8 6 15 13t18 7
t20 -10t9 -22t-6 -23t-16 -20t-21.5 -14.5t-23.5 -5.5q-22 0 -36.5 16.5t-14.5 37.5q0 17 11 41t28.5 46.5t37.5 38.5t38 16q22 0 37 -11.5t24.5 -28.5t13.5 -37t4 -38q0 -44 -16.5 -81.5t-36.5 -73.5t-36.5 -73.5t-16.5 -80.5q0 -25 10.5 -47t24.5 -42l10 8q-22 25 -22 57
q0 28 14.5 51t36.5 42.5t48 38.5t48 40.5t36.5 47t14.5 58.5zM144 4q13 0 25.5 6.5t22.5 16.5t16 22.5t6 25.5q0 23 -18.5 35t-38.5 12q-27 0 -46 -14t-19 -43q0 -9 4.5 -20t11.5 -20t16.5 -15t19.5 -6z" />
    <glyph glyph-name="at" unicode="@" horiz-adv-x="491" 
d="M461 299q0 44 -17 83t-46 68t-68 46t-83 17t-83 -17t-68 -46t-46 -68t-17 -83t17 -83t46 -68t68 -46t83 -17t83 17t68 46t46 68t17 83zM439 299q0 -40 -15 -75t-41 -61t-61 -41t-75 -15t-75 15t-61 41t-41 61t-15 75t15 75t41 61t61 41t75 15t75 -15t61 -41t41 -61
t15 -75zM371 235l-5 2q-5 -6 -9 -11t-7 -11q-7 2 -9.5 8.5t-2.5 12.5q0 14 1.5 27.5t1.5 27.5q0 24 -2 48.5t-2 48.5q0 4 2 6q2 6 7 10.5t10 9.5l-3 6h-1q-5 -3 -10 -8l-10 -10q-11 27 -28.5 42t-40.5 32q-17 -23 -42.5 -38.5t-49.5 -33t-40 -40t-13 -58.5q0 -2 -0.5 -4
t-0.5 -4q0 -12 2 -28t6 -31.5t10.5 -30t14.5 -23.5q9 -10 16 -19.5t12 -22.5q20 17 42 30.5t41 31.5q-2 -15 6.5 -32.5t14.5 -31.5q10 11 22.5 22t25 22.5t23.5 23.5t18 26zM261 214q-8 -6 -15 -12.5t-15 -11.5q-11 8 -20.5 18.5t-11.5 24.5q-3 46 -3 95q0 23 1.5 45.5
t6.5 44.5q23 -14 40 -32t17 -47q0 -19 0.5 -38t0.5 -38v-25q0 -12 -1 -24z" />
    <glyph glyph-name="A" unicode="A" horiz-adv-x="793" 
d="M787 177l-8 4h-2q-9 -16 -21.5 -28t-24.5 -26q-14 9 -25 22t-13 30q-1 2 -0.5 4.5t-0.5 4.5q0 2 -0.5 4.5t-0.5 4.5q0 1 0.5 1.5t0.5 1.5q3 67 -1.5 133t-9.5 132q-3 35 -14 68.5t-31 62.5q-9 13 -19.5 23.5t-20.5 21.5q-40 33 -89.5 44.5t-100.5 12.5q-12 0 -24.5 -1
l-25 -2t-25 0.5t-24.5 6.5q-6 7 -4 21l4 9q2 2 2 4t2 4l1 2q-29 -23 -40 -59q-8 -21 -2.5 -44.5t25.5 -36.5q17 -15 38.5 -21t43.5 -8h26q-32 -16 -62.5 -33t-56.5 -42q-12 -12 -20.5 -27t-8.5 -32q-5 -48 -3.5 -97t4.5 -97q-1 -13 -3 -25t-10 -23q-14 -10 -34 -10
q-12 -1 -23.5 -4t-23.5 -6q-17 -4 -34.5 -7.5t-33.5 -11.5q-17 -6 -33.5 -17t-29 -25.5t-19 -32.5t-1.5 -37q4 -10 5.5 -20.5t7.5 -19.5q8 -14 16.5 -27.5t19.5 -24.5q24 -32 56 -58t71 -37q45 -13 89.5 1.5t79.5 42.5q24 19 44 42.5t32 52.5q-3 1 -5.5 2t-5.5 1h-1
q-9 -16 -18.5 -31t-23.5 -28q-30 -26 -69 -39t-79 -7q-8 2 -14 1.5t-14 1.5q-47 7 -88 31t-70 62q-8 10 -12.5 21t-9.5 22q-2 22 13 37q19 14 41.5 16t45.5 -1q40 -5 79.5 -19t63.5 -48q7 -10 7.5 -21t2.5 -22q5 8 10.5 15t10.5 15q17 20 36.5 35t42.5 27q21 11 42 21.5
t41 23.5q8 6 15.5 12.5t15.5 13.5q4 48 2.5 94.5t-4.5 94.5q17 1 33 0t33 -1q3 -50 4 -99.5t-4 -99.5q0 -14 1 -27.5t9 -24.5q16 -21 35 -41q2 -7 5.5 -12.5t5.5 -12.5q14 9 27 19.5t26 22.5q57 45 104 98q5 7 10.5 13t10.5 13zM551 418q-17 2 -32.5 1.5t-32.5 1.5
q-2 35 0.5 69t4.5 69q17 -5 32.5 -14t22.5 -26q3 -9 4 -18.5t1 -19.5q0 -16 0.5 -31.5t-0.5 -31.5zM478 563q-5 -52 -5 -104q0 -51 1.5 -103t3 -103.5t-0.5 -103.5q-14 -17 -32 -27.5t-36 -20.5q-20 23 -44.5 40t-51.5 30q-10 2 -18.5 7t-19.5 7q32 14 63.5 29t55.5 41
q8 13 9.5 27.5t1.5 28.5q-2 55 -1.5 110t5.5 110q2 13 10.5 23.5t20.5 15.5q10 0 19 -3t19 -4zM443 385v30l-18 -18v-30z" />
    <glyph glyph-name="B" unicode="B" horiz-adv-x="768" 
d="M737 227q0 33 -15.5 60t-39.5 48t-52.5 37t-55.5 26q19 5 39.5 13t37 20t27 29.5t10.5 40.5q0 30 -13.5 55t-31 48t-34 44.5t-23.5 43.5q-9 -15 -28.5 -28t-42 -27t-44 -30.5t-34.5 -39.5q-11 25 -24 48.5t-30.5 41.5t-41 28.5t-54.5 10.5q-33 0 -69 -13t-69 -28.5
t-60 -28.5t-43 -13q-1 0 -5 1.5t-5 1.5q0 19 9 26.5t21 19.5l5 2l-4 4q-8 -6 -18 -15t-18.5 -19.5t-14.5 -21.5t-6 -22q0 -14 7 -23t18 -14.5t23.5 -7.5t23.5 -2q35 0 68.5 6t68.5 6q74 0 103 -69q10 -24 11 -42.5t1 -44.5q0 -28 -7 -56.5t-22 -51.5t-38.5 -37.5
t-56.5 -14.5q-29 0 -50.5 12t-39.5 34q23 -10 44 -10q17 0 31.5 8t25 21t16.5 29.5t6 32.5q0 29 -21.5 51t-50.5 22q-17 0 -34 -6t-31 -17.5t-22.5 -27t-8.5 -33.5q0 -28 11.5 -51.5t31 -41t44.5 -27.5t52 -10q23 0 46.5 7t46 18.5t42 27t34.5 32.5q31 36 47 80.5t16 92.5
v41q0 5 -1.5 10.5t-1.5 10.5q15 39 51 62q-4 -44 -7 -86.5t-2 -86.5v-17q-5 -1 -9.5 -3.5t-8.5 -5.5l-2 -8q2 -9 5.5 -14t14.5 -5q2 -38 3 -76t1 -76q0 -54 -4 -107.5t-16 -106.5q-16 0 -27.5 13.5t-21.5 32t-18 37.5t-17 30q-28 35 -62 53t-79 18q-30 0 -67.5 -8.5
t-70.5 -26.5t-55.5 -45t-22.5 -63q0 -37 22 -72.5t55 -64t71.5 -46.5t72.5 -19h15q30 -1 63.5 7.5t65.5 24.5t60 37t48 44l-6 7q-45 -48 -98.5 -67t-118.5 -19q-28 0 -55.5 3.5t-53 12t-48.5 23.5t-41 38q-14 17 -26.5 40t-12.5 46q0 35 25.5 58t59.5 23q23 0 40 -10
t33.5 -25.5t34.5 -33t42 -33t56.5 -25.5t77.5 -10q34 0 67 6.5t63 20.5q27 12 61 33t64 48t51 59t21 65zM608 472q0 -26 -15.5 -42.5t-38.5 -25.5q-14 2 -28.5 5t-28.5 5v17q-1 44 2 86.5t5 86.5q12 -10 29.5 -25.5t34 -34t28.5 -37.5t12 -35zM597 226q0 -30 -5 -64
t-17.5 -64.5t-35 -53t-57.5 -29.5q12 54 16.5 108t4.5 109q0 38 -1 75t-3 75q13 2 25.5 5t25.5 4q12 -9 21 -30.5t14.5 -46.5t8.5 -49t3 -39zM540 238v53l-18 -18v-53z" />
    <glyph glyph-name="C" unicode="C" horiz-adv-x="646" 
d="M615 171l-7 4q-20 -23 -43.5 -42.5t-50.5 -33.5q-12 -7 -25.5 -10t-26.5 -8q5 36 7 72.5t2 73.5q0 61 -3 121.5t-3 122.5q0 19 0.5 38t1.5 38q10 -1 20 0t20 1q21 8 44 21t33 36q2 4 3 8t3 8l-9 8q-5 -10 -11.5 -18t-18.5 -8q-28 0 -49 14t-38 34q-11 12 -13 26t-2 29
q-16 -16 -32.5 -27t-33 -20.5t-33 -18.5t-34.5 -21q-21 -14 -40.5 -33t-34.5 -41.5t-24 -47.5t-9 -51q0 -50 22 -86.5t49 -65t49 -52.5t22 -49q0 -6 -5 -19t-7 -19q-26 13 -54.5 22.5t-58.5 9.5q-4 0 -7 -0.5t-7 -0.5q-16 18 -28.5 42.5t-21 50.5t-13 53.5t-4.5 51.5
q0 42 14.5 86t41 82.5t62.5 66.5t79 38q0 2 -0.5 4.5t-0.5 4.5q-17 -4 -34.5 -7.5t-34.5 -11.5q-47 -23 -93.5 -56.5t-83.5 -75.5t-60.5 -91.5t-23.5 -105.5q0 -50 18.5 -94.5t42.5 -86.5q-20 -17 -29 -33.5t-9 -42.5q0 -27 17.5 -62t44 -66.5t59 -55t62.5 -27.5
q7 -1 13.5 -1.5t13.5 -0.5q46 0 87.5 19t74.5 49q11 11 22.5 21t19.5 23l-5 4q-42 -39 -83 -61.5t-100 -22.5q-57 0 -106.5 28t-79.5 77q-9 15 -18.5 36t-9.5 39q0 20 11 37t24 31q14 -14 24.5 -29.5t25.5 -28.5q39 -33 87 -55.5t100 -22.5q48 0 90 14.5t79.5 39t69.5 57
t59 68.5zM455 548q-3 -41 -3 -82q0 -63 3.5 -125.5t3.5 -125.5q0 -35 -1.5 -68.5t-6.5 -67.5q-10 -2 -22 -2.5t-22 -0.5q-53 0 -103.5 28t-83.5 68h5q31 1 53 -14t39 -39q42 38 73 88t31 108q0 45 -19 80t-41.5 65t-41.5 57t-19 55q0 10 12 24.5t19 20.5q19 -17 38 -33.5
t43 -24.5q11 -4 21.5 -5.5t21.5 -5.5zM430 462v50l-18 -18v-50z" />
    <glyph glyph-name="D" unicode="D" horiz-adv-x="675" 
d="M644 358q0 35 -11 75.5t-31 81t-47.5 78t-60.5 66.5t-70 46t-77 17q-32 0 -68 -8t-65 -23l-30 -15t-41.5 -19.5t-41.5 -16.5t-30 -6l-5 9l-1 10q0 3 4 7t6 8l-8 -3q-11 -14 -18.5 -27t-7.5 -31q0 -5 2 -11.5t5 -10.5q4 -4 14 -7.5t22 -6t23 -4t17 -1.5q46 0 92.5 9
t91.5 17q-24 -11 -48.5 -30t-44.5 -43.5t-33 -52t-13 -55.5q0 -23 8 -43t19.5 -38.5t24.5 -36t23 -36.5q0 -8 2.5 -15.5t2.5 -14.5q0 -23 -13 -44q-29 0 -67.5 -4.5t-74 -17.5t-60 -37t-24.5 -63q0 -14 6 -29.5t15 -30.5t19 -29t18 -24q27 -33 63.5 -58.5t80.5 -30.5
q5 -1 11 -1h11q31 0 60.5 9.5t56 24.5t51 35t45.5 41q5 11 13.5 18t14.5 16l-8 5q-5 -10 -11.5 -17t-14.5 -15q-39 -39 -89.5 -61.5t-106.5 -22.5q-50 0 -97 19t-81 57q-15 17 -30 41.5t-15 48.5q0 14 7 24t18 16t23.5 9t24.5 3t24 -3q28 -6 57 -12.5t55 -18.5t46.5 -31.5
t31.5 -49.5q24 26 51.5 48t58.5 39q43 24 84 49t72 56.5t50 73t19 98.5zM424 564q14 -14 28 -27t25 -29q30 -43 41 -98.5t11 -106.5q0 -60 -14.5 -103.5t-60.5 -83.5l-16 10t-14 12q2 21 2 41v42q0 62 -2.5 123t-2.5 123q0 49 3 97zM414 569q-3 -31 -4 -61.5t-1 -62.5
q0 -58 2 -115.5t2 -115.5v-34t-1 -34q-37 17 -76.5 25.5t-80.5 10.5q5 7 11 12t11 12q17 21 31 35t24.5 29t16 34t5.5 49t-9.5 53.5t-21.5 45t-21.5 41.5t-9.5 42q0 21 15 38.5t38 17.5q18 0 35.5 -6.5t33.5 -15.5zM456 358v53l-18 -18v-53z" />
    <glyph glyph-name="E" unicode="E" horiz-adv-x="642" 
d="M497 204v53l-18 -18v-53zM611 164l-8 4q-31 -32 -63.5 -54t-76.5 -33q5 37 6.5 73.5t1.5 73.5v34q0 18 -1 35q24 -11 46 -11q13 0 26 6t23 16t16 22.5t6 26.5q0 17 -7.5 34t-20 31.5t-29 23.5t-33.5 9h-30v46v22q0 12 1 23q16 1 34 5t34.5 11t30 18t21.5 27l-5 9v1
q-5 -7 -14.5 -9t-17.5 -2q-35 0 -65 22t-38 57l1 17q-24 -21 -51 -37.5t-55 -32.5q-14 -8 -26 -14t-23 -17q-36 -34 -61.5 -73.5t-25.5 -92.5q0 -47 22 -82.5t48 -64t48 -52t22 -47.5q0 -10 -4.5 -20.5t-11.5 -18.5q-26 19 -56 27.5t-62 7.5h-7q-15 26 -26.5 48t-19.5 44
t-12.5 46t-4.5 55q0 44 14.5 89t41 84t63 67.5t81.5 39.5l-1 8q-55 -2 -103 -30.5t-87 -63.5q-27 -24 -52.5 -52t-45 -59t-31.5 -65.5t-13 -72.5v-9q-1 -48 15.5 -91.5t42.5 -82.5q-17 -12 -26.5 -31.5t-9.5 -39.5q0 -24 15.5 -55.5t38.5 -61.5t49.5 -54t47.5 -33
q27 -12 58 -12q45 0 84.5 21t73.5 47q14 11 26 23.5t26 23.5l-6 6q-36 -37 -84.5 -64t-102.5 -27q-38 0 -73.5 13.5t-65 37t-49.5 56t-26 70.5q-1 3 -1 10q0 19 9 33.5t23 26.5q25 -29 49.5 -53.5t52.5 -43t60.5 -29t73.5 -10.5q46 0 88.5 13.5t80.5 36.5t71 54t60 66z
M456 547q-1 -24 -1 -48v-48q-22 -9 -37 -26.5t-24 -38.5q-9 17 -24 40t-29.5 47t-25 46.5t-10.5 40.5q0 17 6.5 28.5t15.5 24.5q17 -18 30.5 -28.5t28 -17t31 -11t39.5 -9.5zM493 433q-23 -4 -39.5 -23t-16.5 -42q0 -18 3.5 -31.5t15.5 -27.5q3 -47 3 -92q0 -34 -1.5 -68
t-5.5 -68q-10 -2 -20 -3t-21 -1q-60 0 -108.5 25.5t-86.5 70.5q35 0 55.5 -13t37.5 -43q24 18 44 36.5t34.5 39.5t23 46t8.5 58q0 16 -3.5 31t-3.5 31q0 13 4 27.5t12 26.5t19.5 19.5t27.5 7.5q5 0 9.5 -2.5t8.5 -4.5z" />
    <glyph glyph-name="F" unicode="F" horiz-adv-x="688" 
d="M624 238v56l-18 -18v-56zM656 364q0 23 -13 43t-32 32q-6 4 -13 6t-14 5q1 17 -1 35t-3 35q18 7 34 17t16 33q0 17 -7 32.5t-18.5 29t-25.5 23.5t-29 16v-8q3 -2 6 -3t7 -3q6 -2 14.5 -8.5t16 -14.5t12.5 -17t5 -16q0 -13 -9 -18.5t-20 -5.5q-5 0 -9.5 1.5t-9.5 3.5
q-23 10 -42 21t-37 29q-32 33 -73.5 56t-89.5 23q-41 0 -87.5 -16t-88.5 -43t-75 -62.5t-48 -74.5q-4 -9 -4 -21q0 -20 10 -34.5t25 -24t33.5 -14t35.5 -4.5q52 0 90.5 22.5t77.5 52.5h1q2 2 6 4t6 4l-8 8v1q-16 -15 -37 -26t-43.5 -18.5t-46 -11t-45.5 -3.5q-26 0 -50.5 8
t-38.5 32q-1 4 -1 8v8q0 20 15 42.5t36.5 42.5t45.5 34.5t42 18.5q8 2 16 3.5t16 1.5q26 0 43.5 -7t32.5 -18t29 -23.5t33 -24.5q23 -14 46.5 -25.5t48.5 -20.5q-22 -16 -42.5 -32t-36.5 -35.5t-26 -43t-10 -53.5q0 -33 17.5 -63.5t39 -58t39 -51t17.5 -42.5
q0 -11 -10 -22.5t-19 -16.5q-31 44 -83.5 63t-104.5 19q-24 0 -59.5 -7.5t-68.5 -22.5t-57 -37.5t-24 -52.5q0 -32 22.5 -67.5t56 -65.5t72 -50t69.5 -20q67 0 118.5 32t95.5 79q-2 1 -4.5 2t-3.5 3q-11 -9 -19 -19t-20 -18q-35 -24 -69 -35t-76 -11q-35 0 -72.5 10.5
t-70 30.5t-56.5 48.5t-32 65.5q-1 3 -1 8q0 23 19.5 34t39.5 11q23 0 55 -8.5t61 -24t50 -37.5t23 -50q15 25 34 41.5t41 29.5t45 24t46 25q38 24 65 63.5t27 85.5q0 17 -4.5 32t-10 29t-10 26t-4.5 23q0 10 4 21.5t11 21t17 15.5t21 6q6 0 12 -0.5t11 -2.5l-10 -1
q-18 -5 -30 -20.5t-12 -34.5q0 -31 16 -50t45 -27q1 -14 1.5 -28t0.5 -28q0 -104 -27 -204q2 1 6 1.5t6 0.5q14 50 21 101t7 103q0 13 -0.5 26t-1.5 26q26 5 44 21.5t18 45.5zM573 452q-23 3 -44 -6t-32 -30q-5 -11 -7.5 -21t-7.5 -21q-7 8 -16.5 21t-18.5 27.5t-15 28.5
t-6 25q0 14 8 27.5t19 21.5q18 -2 35.5 -5t35.5 -3q11 0 22.5 0.5t22.5 0.5q2 -17 2.5 -33t1.5 -33z" />
    <glyph glyph-name="G" unicode="G" horiz-adv-x="718" 
d="M686 272q0 37 -15 79t-41 78t-61.5 59.5t-75.5 23.5q-32 0 -61 -19.5t-41 -49.5q-13 12 -26 25t-23.5 28t-17 31.5t-6.5 35.5q0 14 8 29t17 26q27 -25 60 -39t71 -14q47 0 81 18.5t61 56.5q-2 2 -5 4.5t-5 4.5q-4 -8 -12 -12.5t-17 -4.5q-38 0 -68.5 23t-43.5 58
q-35 -30 -74 -54t-73 -51t-59 -62.5t-31 -89.5q-1 -5 -1 -9v-9q0 -42 18.5 -80t41.5 -71q16 -22 37.5 -40t35.5 -42q5 -8 6 -17.5t1 -18.5q0 -19 -8.5 -33t-22.5 -26q-48 41 -116 41q-5 0 -11 -0.5t-11 -1.5q-10 20 -17.5 47t-12.5 55.5t-7.5 56t-2.5 49.5q0 43 8 85
t25.5 80.5t44 71.5t63.5 57q13 9 28 14.5t29 10.5l-2 9h1q-56 -16 -117 -50t-111.5 -81.5t-83.5 -105t-33 -120.5q0 -32 8.5 -61t22.5 -56.5t31.5 -52.5t36.5 -49q-13 -12 -24 -25t-11 -32q0 -36 19.5 -71.5t50.5 -64.5t68 -47t72 -18q34 0 69 11.5t66.5 30.5t59 44.5
t47.5 52.5q-1 1 -3.5 2t-3.5 2q-45 -48 -101 -76.5t-122 -28.5q-54 0 -104.5 24t-80.5 71q-9 14 -17 30.5t-8 34.5q0 15 11 28t22 22q51 -54 106 -79.5t130 -25.5q54 0 112 21.5t107 59t80.5 88t31.5 109.5zM471 493q15 3 25.5 -11t18 -37.5t12.5 -52.5t7.5 -56.5t3.5 -49.5
t1 -31q0 -50 -12 -99t-46 -87q-23 -26 -56 -44t-69 -18q-30 0 -53.5 11t-42 29t-32.5 41.5t-25 47.5h9q29 0 56.5 -19t35.5 -48q26 19 54 40t51 45.5t38 54t15 65.5q0 47 -14.5 85.5t-47.5 71.5q10 28 26.5 42.5t44.5 19.5zM487 405v60l-18 -18v-60z" />
    <glyph glyph-name="H" unicode="H" horiz-adv-x="789" 
d="M758 246q0 46 -19 84.5t-45 74.5q-7 10 -17.5 23t-21.5 27.5t-20 28t-13 23.5t-6 22t-4 23q-15 -27 -29.5 -40t-31 -20t-35.5 -12.5t-42 -17.5q-20 -11 -39 -22t-36 -26q-13 12 -26 25.5t-23.5 29t-17.5 32.5t-7 36q0 21 9.5 36t25.5 29q26 -20 53.5 -34t61.5 -14
q30 0 51.5 6t39.5 17.5t34.5 28t34.5 36.5l-4 4t-3 5q-7 -9 -21.5 -14.5t-25.5 -5.5t-25 3t-27.5 8.5t-24 14t-15.5 20.5q-2 5 -3 11t-3 11q-13 -11 -25 -22t-26 -20q-35 -23 -72 -45t-67 -49.5t-49 -63.5t-19 -85q0 -45 18.5 -75.5t44 -55.5t51 -49t39.5 -55q3 -6 4.5 -13
t3.5 -14q-2 -5 -2.5 -10t-2.5 -10t-4 -8t-4 -8q-38 30 -84 50t-96 20q-27 0 -59 -7.5t-59.5 -22.5t-46 -39t-18.5 -57q0 -21 14.5 -48t35 -52.5t43.5 -47t40 -32.5q21 -14 47 -21.5t50 -7.5q31 0 62.5 8.5t60.5 24t54.5 36.5t44.5 45l-6 5q-23 -21 -45.5 -37t-46.5 -27.5
t-51 -17.5t-59 -6q-38 0 -75 11.5t-68 32.5t-54.5 51t-34.5 67q-1 3 -1.5 5.5t-0.5 5.5q0 15 7 24t17.5 14t23 7t24.5 2q24 0 51.5 -8.5t51.5 -23.5t42.5 -36t25.5 -45q16 25 37 46t42.5 39.5l43 37t38 40.5t26.5 48t10 60q0 39 -16 74.5t-39 66.5q19 19 42 32t47 24
q-2 -15 -2 -30v-30q0 -51 3.5 -100t3.5 -99q0 -9 -0.5 -17.5t-0.5 -16.5l-10 -4l-10 -4q-19 -16 -38.5 -34t-19.5 -47q0 -17 8 -31.5t21 -24.5t29 -15.5t32 -5.5q40 0 84 23t80.5 59t60 80t23.5 86zM668 157v-8t-1 -9q-2 -19 -15 -41t-31.5 -41t-40.5 -31.5t-41 -12.5
q-5 0 -10.5 0.5t-10.5 0.5q10 7 22.5 16.5t22.5 21t17 25t7 27.5q0 36 -22.5 50t-54.5 14q3 63 -1.5 124.5t-3.5 124.5v13q34 -54 71 -103q14 -19 30 -38.5t30 -41t23 -44t9 -47.5zM537 244v80l-18 -18v-80z" />
    <glyph glyph-name="I" unicode="I" horiz-adv-x="584" 
d="M498 607q0 15 -4.5 25t-11 17.5t-14 14.5t-13.5 16l-3 -7v-1q13 -8 19 -16.5t11 -22.5q0 -8 -4.5 -14t-12.5 -6q-5 0 -16 6t-14 10q-14 8 -23.5 19.5t-20.5 22.5q-22 22 -50 36.5t-60 14.5q-27 0 -62.5 -16t-67.5 -41t-54 -56t-22 -61q0 -22 12 -37t30 -24.5t38.5 -13.5
t38.5 -4q39 0 75.5 15t68.5 38q-2 2 -4 4.5t-4 4.5q-31 -21 -68 -25.5t-73 -4.5q-14 0 -31.5 1.5t-33 7t-26.5 16t-11 28.5q0 15 7.5 30.5t19.5 27.5t27 19.5t30 7.5q19 0 41 -13.5t47.5 -29t56 -29t66.5 -13.5q13 0 32.5 2t38 7.5t32 16t13.5 27.5zM379 214v113l-18 -18
v-113zM552 290q0 36 -13 66.5t-29 57.5t-29 51.5t-13 50.5q0 14 6.5 27t20.5 18q-27 -3 -50 -16.5t-39.5 -34t-26 -46t-9.5 -52.5q0 -34 13.5 -65t30 -60t30 -57t13.5 -55q0 -16 -8 -29.5t-18 -24.5q-38 41 -90.5 64t-109.5 23q-26 0 -64 -8.5t-73 -25.5t-60 -42t-25 -58
q0 -23 13 -49t26 -46q13 -21 29 -42t35 -38.5t41.5 -29.5t49.5 -15q5 -1 9 -1h9q39 0 71 13.5t60 35t52.5 47t50.5 49.5l-6 5q-24 -24 -47.5 -43.5t-49.5 -33.5t-55.5 -22t-64.5 -8q-46 0 -90 20.5t-74 55.5q-16 19 -32 45t-16 52q0 12 6.5 20.5t16 13.5t21 7t21.5 2
q24 0 58.5 -9t67.5 -24.5t58 -38t29 -49.5q17 20 35 39t39 36q28 22 60 44t58.5 48t44 58t17.5 74z" />
    <glyph glyph-name="J" unicode="J" horiz-adv-x="582" 
d="M356 271v170l-18 -18v-170zM551 297q0 33 -13 61.5t-29 54.5t-29 51.5t-13 51.5q0 31 28 44q-14 -2 -24.5 -4t-22.5 -10q-33 -20 -55 -53.5t-22 -73.5q0 -39 13.5 -72t30 -62.5t30.5 -57t14 -54.5q0 -15 -8 -28t-18 -24q-23 21 -49.5 39.5t-55.5 29.5q0 62 -2.5 123.5
t-2.5 123.5q0 32 1 62.5t4 61.5q30 -8 59 -8q13 0 32 2t36.5 8t30 16.5t12.5 27.5q0 25 -15 40.5t-29 32.5l-3 -8v-1q12 -12 19.5 -18.5t12.5 -23.5q0 -2 -0.5 -6t-2.5 -6l-6 -4q-2 0 -3 -0.5t-3 -0.5q-18 0 -35 17t-38 37t-49 37t-67 17q-28 0 -63 -16t-66 -41t-52.5 -55.5
t-21.5 -59.5q0 -21 10.5 -36t27 -25t36 -15t37.5 -5q32 0 65.5 10.5t61.5 27.5q0 -17 -1.5 -33.5t-0.5 -33.5v-11q-14 1 -27 0t-27 0h-15q0 -20 -2 -40.5t-1 -40.5v-16h11q15 -1 30.5 0.5t30.5 0.5q-1 -29 1.5 -58.5t1.5 -58.5v-20q-20 5 -40 9t-41 4q-57 0 -101 -16.5
t-88 -52.5q-16 -13 -26 -27t-10 -36q0 -19 8 -40t20 -41t25.5 -39t25.5 -33q22 -26 50.5 -46t63.5 -24q5 -1 9 -1h9q35 0 68 13.5t63 34.5t56.5 47t49.5 51l-6 4q-42 -46 -98 -76.5t-119 -30.5q-59 0 -111 30t-81 81q-8 13 -14 27.5t-6 29.5q0 26 21 38t44 12q19 0 42 -5.5
t46.5 -14t44.5 -19.5t38 -21q17 -11 27 -27.5t14 -35.5q19 29 45 51.5t54 42.5t55.5 40t49 44.5t35 55.5t13.5 74zM319 565q-2 -11 -2.5 -21.5t-0.5 -21.5q-29 -15 -61.5 -19t-64.5 -4q-14 0 -31.5 1.5t-34 6.5t-27.5 16t-11 29q0 15 7 30.5t19 27.5t27 20t30 8t28.5 -5.5
t26 -13.5t24.5 -17t24 -16q11 -7 23 -11.5t24 -9.5z" />
    <glyph glyph-name="K" unicode="K" horiz-adv-x="806" 
d="M531 291l-19 -18l-4 -83l19 18zM775 171l-8 5q-8 -11 -19.5 -20t-21.5 -20q-7 3 -12.5 8.5t-3.5 13.5q-3 9 -1 19t-1 19q2 21 -9 39.5t-28.5 33t-38.5 24t-39 13.5q-8 2 -16.5 3.5t-16.5 3.5q15 5 33.5 12t35.5 17t30.5 22.5t19.5 29.5q2 8 5 17t3 17q0 22 -8 41.5
t-19.5 37.5t-24 35.5t-22.5 35.5q-32 -27 -64.5 -44.5t-67.5 -38.5q-21 -13 -40.5 -27t-40.5 -26q-12 13 -25 27.5t-23 30.5t-16.5 33t-6.5 36t8 32.5t22 25.5q26 -21 61 -32.5t69 -11.5q54 0 95.5 24.5t73.5 66.5l-8 7v1q-10 -12 -24.5 -17t-29.5 -5q-14 0 -30.5 5
t-31.5 14t-25 21.5t-10 28.5v13q-29 -31 -61.5 -51.5t-65 -42t-64 -49t-56.5 -71.5q-11 -20 -18.5 -41.5t-7.5 -44.5q0 -35 11.5 -64.5t28 -54.5t36.5 -46.5t36.5 -40t28 -34.5t11.5 -31q0 -6 -3.5 -15t-6.5 -14q-38 29 -84 45.5t-94 16.5q-25 0 -56.5 -7t-59 -21.5
t-46.5 -36.5t-19 -53q0 -27 19.5 -61t48 -65t62 -54t60.5 -28q18 -3 37 -3q31 0 61 9t58 23.5t53.5 33t49.5 37.5l-9 7q-19 -18 -43.5 -32.5t-51.5 -25t-54.5 -16t-53.5 -5.5q-67 0 -116.5 31.5t-85.5 85.5q-9 13 -17 28.5t-8 32.5q0 12 6 20t15 13t19.5 7t20.5 2
q26 0 55.5 -10t55 -28t43 -42.5t20.5 -52.5q20 43 54 75t67 63t57 67t24 89q0 39 -13.5 74t-34.5 67q20 14 39 27.5t39 26.5v-26q1 -33 0.5 -66.5t1.5 -67.5l-17 -7l-1 -10q1 -2 2 -6t1 -5l8 -8l7 -1q1 -15 1 -31v-30q0 -49 -3.5 -97.5t-14.5 -96.5h12q10 50 15 99t5 100
q0 15 -0.5 29.5t-1.5 29.5q9 2 18 5t18 5q15 -8 23.5 -24.5t8.5 -33.5q0 -30 -6 -60t-6 -60t6 -45t14.5 -24t17.5 -16t16 -22q24 23 46.5 47.5t48.5 46.5q18 15 36.5 30t32.5 34zM593 364q0 -11 -6 -19t-15 -13.5t-19 -9t-18 -5.5q-8 2 -17.5 2.5t-17.5 3.5q-1 29 -2 58.5
t-1 58.5v24q0 13 1 25q7 -8 23 -25.5t32 -36.5t28 -36.5t12 -26.5z" />
    <glyph glyph-name="L" unicode="L" horiz-adv-x="699" 
d="M590 244v171l-18 -18v-171zM668 192l-7 3q-15 -35 -46 -65t-68 -39q5 36 6.5 72.5t1.5 73.5q0 78 -4.5 155t-5.5 155q29 9 53.5 24.5t37.5 44.5q-1 2 -2 5t-3 4q-12 -13 -29 -13q-18 0 -36.5 6.5t-33.5 18.5t-24.5 28.5t-9.5 36.5q-9 -17 -30 -32t-48 -31t-56 -34
t-53.5 -40.5t-40 -51.5t-15.5 -66q0 -46 25 -83.5t55.5 -68.5t55.5 -56.5t25 -47.5q0 -14 -10.5 -24t-22.5 -15q-38 19 -79 29.5t-83 10.5q-25 0 -61 -6.5t-69.5 -20.5t-57.5 -36.5t-24 -54.5q0 -28 19.5 -61.5t48 -64.5t60.5 -55.5t56 -34.5q26 -11 57 -11q57 0 103 27
t87 63q7 6 12 13.5t13 12.5l-8 5q-37 -41 -88 -63.5t-106 -22.5q-33 0 -64.5 9.5t-60 27t-52.5 40.5t-42 50q-6 9 -15 24.5t-9 26.5q0 61 60 61q33 0 69 -19.5t75.5 -43.5t84 -43.5t94.5 -19.5q40 0 81 17t77 45t64.5 63.5t42.5 71.5zM536 89h-5q-9 0 -28.5 6.5t-40 15.5
t-39 19t-25.5 16q38 27 63 64.5t25 85.5t-20.5 84t-45 66.5t-45 57.5t-20.5 56q0 18 8.5 29.5t22.5 21.5q7 -15 17 -32q26 -20 50.5 -28.5t57.5 -7.5h24q-1 -79 4 -157.5t5 -157.5q0 -35 -1.5 -69.5t-6.5 -69.5z" />
    <glyph glyph-name="M" unicode="M" horiz-adv-x="979" 
d="M948 148l-4 6q-16 -11 -34 -27q-7 7 -11 13t-7 15q-2 6 -5 27t-6 50.5t-5.5 63t-4.5 65.5t-3.5 58.5t-1.5 40.5v30t4 28t13 23t26 15l-6 8l1 1q-44 -9 -75 -36t-51 -64t-29 -79.5t-9 -81.5q0 -11 0.5 -21t1.5 -21q2 -27 2 -61q0 -33 4 -66.5t13.5 -64t29.5 -50.5
q16 12 30.5 26.5t30.5 26.5q25 19 49 37t47 38zM691 308v157l-18 -18v-157zM898 625l-6 6l-7 -16q-3 -2 -7 -3.5t-7 -1.5h-5q-14 8 -27 20t-26 23.5t-28 19.5t-33 8q-35 0 -59 -23t-41 -51q-3 15 -9.5 29t-13 27.5t-12.5 26.5t-8 25q-20 -17 -41 -31t-43 -28t-44 -29.5
t-44 -34.5q-18 46 -46.5 74.5t-81.5 28.5q-30 0 -63 -11t-64 -23.5t-58 -23.5t-45 -11q-8 0 -12 2v5q-2 14 4 17.5t11 13.5l-3 1q-10 -8 -22 -19t-22.5 -23t-17.5 -25.5t-7 -26.5q0 -22 16.5 -33t36.5 -11q18 0 38 5t40.5 11t42 11t43.5 5h19t19 -3q15 -6 25 -18t16 -27
t8.5 -31t2.5 -31q0 -21 -3 -48t-9.5 -53.5t-17.5 -50t-27 -38.5q-9 -8 -24.5 -12t-27.5 -4q-30 0 -52 14t-43 33q8 0 15.5 -1.5t15.5 -1.5q16 0 29.5 6.5t23.5 17.5t16 25t6 29q0 25 -18 46.5t-44 21.5q-17 0 -33 -6t-28 -17t-19.5 -26t-7.5 -33q0 -28 13 -50.5t33.5 -38.5
t46.5 -24.5t52 -8.5q7 0 17 1.5t20.5 4.5t20.5 6.5t17 6.5q36 19 64.5 51.5t48 71.5t29.5 81.5t10 81.5q0 11 -0.5 21t-1.5 21q14 12 27 23.5t27 23.5q18 -12 24 -33t6 -41q0 -11 -2.5 -24t-4.5 -24q-2 -26 -3 -51.5t-1 -51.5q0 -51 2 -101.5t2 -101.5q0 -15 -1.5 -30.5
t-6 -29.5t-13.5 -25.5t-24 -18.5q42 -12 64.5 -34.5t21.5 -67.5v-7q9 18 24 36.5t33.5 34.5t39 28t40.5 17q-13 4 -20 13.5t-10.5 21t-4 24t-0.5 23.5q0 72 -3 144t-3 145q0 23 1 45t1 45q0 9 2 19.5t6.5 19.5t11.5 15.5t18 6.5q12 0 25.5 -10t28.5 -22t32.5 -22t38.5 -10
q32 0 53 19t27 50zM483 -27l-8 7h-1q-45 -42 -97 -63.5t-114 -21.5q-56 0 -107.5 24t-82.5 72q-7 10 -12.5 25t-5.5 27q0 15 8 25.5t20.5 17t26.5 9.5t26 3q25 0 52.5 -6t50.5 -18.5t39 -33t18 -49.5q28 38 66.5 63.5t75.5 53.5q11 8 22.5 17t22.5 17l-4 9q-13 -8 -25 -16
t-26 -16q-38 31 -83 51t-94 20q-30 0 -66.5 -9t-68 -26.5t-52.5 -44.5t-21 -63q0 -22 11 -43t24 -38q34 -44 76.5 -73.5t101.5 -29.5q33 0 63.5 9.5t59 25.5t54.5 35.5t50 39.5z" />
    <glyph glyph-name="N" unicode="N" horiz-adv-x="810" 
d="M779 160l-5 6q-11 -9 -20.5 -20.5t-22.5 -18.5q-6 6 -16 15t-13 17q-8 19 -9.5 42.5t-1.5 43.5q0 33 -4.5 66.5t-5.5 66.5q-1 22 -1.5 43.5t-0.5 43.5v30t2.5 33t9 30t20.5 21q-2 2 -4 5t-4 5q-45 -25 -75 -46.5t-49 -48t-27 -63.5t-8 -93q0 -24 2 -48t2 -47
q0 -25 0.5 -48t4 -45.5t11 -44t21.5 -43.5q5 -7 13 -19t8 -20l6 -9q19 21 40.5 38.5t43.5 34.5t43.5 34.5t39.5 38.5zM527 311v134l-18 -18v-134zM713 657l-7 7v1q-5 -6 -7 -13.5t-7 -13.5q-18 5 -33 16t-29.5 22.5t-31.5 20t-39 8.5q-45 0 -76.5 -26t-55.5 -61
q-17 39 -52 67.5t-79 28.5q-33 0 -69 -11.5t-68.5 -25t-58.5 -25t-38 -11.5q-6 0 -13 5q-1 12 11.5 23t20.5 19l-3 3q-9 -8 -21 -19t-22.5 -23.5t-17.5 -26t-7 -26.5t7 -21t17.5 -12.5t22.5 -6t22 -1.5q32 0 63.5 8.5t63.5 8.5q59 0 86.5 -37.5t27.5 -92.5q0 -32 -5.5 -64
t-22.5 -60q-17 -26 -44.5 -45.5t-59.5 -19.5q-11 0 -23.5 5t-23.5 12.5t-21 16.5t-16 18q12 -8 26 -14.5t29 -6.5q18 0 32.5 8.5t25 22t16.5 30t6 33.5q0 15 -6 28.5t-15.5 24t-23 17t-28.5 6.5q-21 0 -38 -8.5t-29.5 -22.5t-19 -32t-6.5 -38q0 -26 11.5 -47t30 -36.5
t42 -24t47.5 -8.5q55 0 99 26.5t74.5 68.5t46.5 93.5t16 101.5q0 35 -8 75q8 12 17 22t26 10q5 0 10.5 -3t10.5 -5q-8 -57 -10.5 -114t-2.5 -114q0 -55 1 -109.5t1 -109.5v-19q-8 -11 -19 -18.5t-20 -17.5q-41 32 -84 53t-97 21q-29 0 -67 -9.5t-72 -27.5t-57.5 -45
t-23.5 -62q0 -32 19 -66t48 -62t63.5 -46t66.5 -18q29 0 59.5 8.5t59.5 22.5t55 32t47 38l-4 6q-42 -32 -91.5 -50.5t-103.5 -18.5q-26 0 -53 5t-51.5 15.5t-45.5 26.5t-36 39q-8 14 -15 29t-7 31q0 18 6.5 29t18 18t25.5 9.5t29 2.5q18 0 42.5 -6t48 -16.5t43.5 -25
t30 -30.5q3 -5 4 -12t4 -12q14 14 28.5 28t31.5 25q34 23 69 45t61 54v35q1 56 -0.5 110.5t-1.5 109.5q0 53 2 105t9 104q12 -9 24 -17.5t24 -15.5t25.5 -11.5t30.5 -4.5q16 0 33.5 7.5t32.5 19.5t25 27.5t12 32.5z" />
    <glyph glyph-name="O" unicode="O" horiz-adv-x="707" 
d="M675 331q0 35 -10 75.5t-28 81.5t-44 79t-57 67t-67.5 46.5t-76.5 17.5q-35 0 -68 -8.5t-65 -21.5q-11 -5 -22.5 -10.5t-24.5 -5.5q-4 0 -8 1t-6 6l1 9q3 7 9 11t11 9l-5 4v1q-14 -11 -28.5 -29t-14.5 -36q0 -24 13.5 -32.5t30.5 -16.5q2 -2 4.5 -3.5t4.5 -2.5
q-23 -14 -47 -26t-45 -29q-24 -18 -46 -40t-39 -47t-27 -53.5t-10 -59.5q0 -37 10.5 -69t28 -61t40 -55.5t45.5 -51.5q-10 -13 -17.5 -27.5t-7.5 -31.5q0 -20 8 -40t17 -36q27 -48 67 -73t96 -25q33 0 67 12t64.5 31.5t57 44.5t45.5 52l-9 4q-43 -57 -104.5 -82t-130.5 -25
q-52 0 -94 26t-65 73q0 9 -3.5 17.5t-3.5 17.5q0 14 7 27.5t15 24.5q41 -31 91 -54.5t103 -23.5q41 0 80 12.5t74 33.5t65.5 49t55.5 59q32 39 47.5 86.5t15.5 97.5zM297 564q41 0 80 -2.5t76 -23.5q34 -19 60 -50t43.5 -68.5t26.5 -77.5t9 -77q0 -45 -18 -91t-49 -83
t-73.5 -60.5t-90.5 -23.5q-35 0 -62.5 12.5t-52.5 35.5q-11 10 -18.5 21t-15.5 23q10 1 19 1.5t19 0.5q23 0 43.5 -10t34.5 -27l-11 -11l8 -9q23 18 49 43.5t48 55t36.5 61.5t14.5 62q0 44 -17.5 75t-38.5 57t-38.5 51.5t-17.5 57.5q0 8 5 20.5t9 19.5v1
q-22 -10 -42.5 -27.5t-36 -40t-24.5 -47.5t-9 -49q0 -39 16.5 -74.5t38.5 -66.5q12 -17 28.5 -31.5t26.5 -31.5q3 -5 5 -14.5t2 -15.5q0 -14 -6 -25t-13 -22q-20 8 -41 13.5t-43 5.5q-39 0 -75 -9q-22 48 -41 98t-19 104q0 76 19.5 137t73.5 118q15 -4 30.5 -5t31.5 -1z
M245 308v113l-18 -18v-113z" />
    <glyph glyph-name="P" unicode="P" horiz-adv-x="733" 
d="M473 224v83l-18 -18v-83zM701 467q0 36 -16 65.5t-36 57t-39 56t-25 62.5q-7 -17 -27 -31.5t-45 -28t-49.5 -26t-39.5 -26.5q-8 27 -21 50t-31.5 40t-42.5 27t-54 10q-23 0 -50.5 -8t-55.5 -19.5t-55 -24t-48 -22.5q-6 0 -11.5 -1.5t-11.5 -1.5q-2 0 -4 1l-4 2l-1 5
q1 8 8 12.5t7 6.5t-2 2q-8 0 -14.5 -7.5t-11.5 -17.5t-8 -21t-3 -17q0 -14 8 -23.5t19.5 -15t24.5 -7.5t24 -2q34 0 65 10.5t64 10.5q30 0 50 -14t32.5 -36t18 -48.5t5.5 -50.5q0 -32 -9.5 -62t-27.5 -53.5t-44.5 -37.5t-60.5 -14q-18 0 -36 10t-26 27l-3 3q8 -2 20 -5.5
t20 -3.5q13 0 24.5 6.5t19.5 17t13 23t5 24.5q0 29 -19 52.5t-49 23.5q-15 0 -28.5 -7t-24.5 -18.5t-17.5 -26t-6.5 -28.5q0 -26 13 -48t33 -38t45.5 -25t49.5 -9q48 0 89 24t71 62t46.5 84.5t16.5 91.5q0 17 -1.5 35t-3.5 35q27 32 65 50q-3 -49 -4 -97t-1 -97
q-15 -4 -24 -17t-9 -28q0 -19 9.5 -37.5t25.5 -29.5q1 -25 3 -49.5t2 -50.5q0 -24 -3 -46q-32 17 -66.5 27t-71.5 10q-34 0 -79.5 -11t-87 -33t-70 -54t-28.5 -74q0 -36 18.5 -68.5t47.5 -57.5t64.5 -39.5t69.5 -14.5q40 0 77 13.5t70 35.5t62 49.5t54 56.5l-6 2v1
q-91 -111 -232 -111q-36 0 -72 5.5t-68 21.5q-13 6 -25.5 17t-22.5 24.5t-16.5 28.5t-6.5 30q0 20 10 35t26 24.5t35 14.5t36 5q32 0 71.5 -10t68.5 -24q25 -11 40 -33.5t17 -50.5q28 42 64 75t76 62q17 13 32.5 28t32.5 29l-8 8q-17 -14 -33 -29t-34 -27q-7 8 -15 13
t-16 13q1 36 1 72q0 37 -3 73q11 -2 22 -4.5t22 -2.5q31 0 58.5 13.5t48 36t32.5 51.5t12 59zM629 416q0 -26 -15 -52t-38 -38q-6 -3 -13.5 -4.5t-14.5 -3.5q-12 1 -21.5 7t-20.5 11q10 4 19.5 7t16 7.5t11 12.5t4.5 22l1 2q-2 24 -18 34.5t-36 15.5q1 27 0 54.5t-1 54.5
q0 14 0.5 29t1.5 29q11 -20 31.5 -43.5t41 -48t36 -49.5t15.5 -47z" />
    <glyph glyph-name="Q" unicode="Q" horiz-adv-x="702" 
d="M670 326q0 36 -9.5 78t-27 83t-42.5 79t-56.5 66.5t-68.5 46t-79 17.5q-25 0 -49 -5t-47 -12q-9 -3 -19 -7.5t-21 -9t-21 -8t-19 -3.5q-7 0 -9.5 4.5t-2.5 10.5q0 4 4.5 9t6.5 8l6 4l-4 5h-1q-14 -14 -27.5 -31t-13.5 -38q0 -11 5.5 -18.5t13.5 -13t17 -10l17 -8.5
q-38 -20 -76 -45t-68.5 -56t-49.5 -69t-19 -86q0 -38 10.5 -69.5t27.5 -59.5t39 -54t45 -53q-10 -14 -17 -30.5t-7 -34.5q0 -6 3 -16t7 -20.5t8.5 -20t7.5 -15.5q22 -42 65.5 -68t90.5 -26q37 0 70 11t62.5 29.5t55.5 43t49 51.5q42 17 70 46t51 67h-8q-8 -11 -21.5 -25
t-30.5 -14q-11 0 -19.5 9t-15.5 17q25 29 46.5 54.5t37.5 53t24.5 59.5t8.5 74zM316 561q38 0 65.5 -2t62.5 -19q34 -17 60.5 -47.5t45.5 -68t29 -78t10 -76.5q0 -46 -12 -90.5t-44 -79.5q-12 5 -24.5 8.5t-25.5 3.5q-28 0 -55.5 -15.5t-47.5 -33.5q-9 -9 -16 -20t-15 -21
l10 -5q10 8 19 16.5t23 8.5q11 0 19.5 -5.5t15.5 -13.5q-19 -5 -38 -10.5t-39 -5.5q-53 0 -87 26t-62 67h32q17 0 32.5 -3.5t29.5 -11.5t24 -22l-12 -11l8 -8q22 17 47.5 42t47.5 54t36.5 60t14.5 60q0 46 -17.5 78.5t-39 59.5t-39 52.5t-17.5 56.5q0 9 6 20t9 19
q-51 -29 -81 -71.5t-30 -103.5q0 -15 5.5 -34.5t14.5 -38.5t20.5 -35.5t22.5 -26.5v-1q7 -9 17 -19t18 -20.5t14 -22t6 -24.5q0 -11 -6.5 -24.5t-12.5 -21.5q-17 7 -39.5 12.5t-41.5 5.5t-38.5 -2.5t-37.5 -7.5q-7 15 -15.5 29t-13.5 30q-14 40 -22.5 81.5t-8.5 83.5
q0 38 5 69t16 58t28.5 52.5t41.5 54.5q20 -2 41 -5t41 -3zM513 -18q-11 -11 -19.5 -20.5t-21.5 -17.5q-43 -28 -85.5 -43.5t-94.5 -15.5q-31 0 -59.5 9t-52 26t-39.5 41.5t-22 56.5q4 17 8 29t18 24q42 -35 90.5 -56t103.5 -21q26 0 52.5 4.5t49.5 15.5q11 -16 28.5 -24.5
t37.5 -7.5h6zM242 328v90l-18 -18v-90z" />
    <glyph glyph-name="R" unicode="R" horiz-adv-x="814" 
d="M466 224v117l-18 -18v-117zM783 147l-6 5q-9 -7 -17.5 -14t-16.5 -15q-20 10 -24 29t-4 39q0 38 -8 67t-24.5 51t-41.5 39t-60 31q21 8 40.5 20t35 27.5t24.5 36t9 44.5q0 15 -5 32.5t-12.5 35t-17 33.5t-17.5 29t-8.5 22t-4.5 23q-8 -4 -14.5 -8.5t-14.5 -8.5
q-20 -11 -40 -18t-39 -19q-41 -24 -75 -57q-11 28 -22.5 51.5t-28.5 41t-40.5 27.5t-57.5 10q-33 0 -62.5 -10t-58.5 -23t-58 -25.5t-60 -17.5q-6 7 -4 15v5l12 12l-4 1h-1q-6 -5 -14.5 -13.5t-16 -19t-12.5 -21t-5 -18.5q0 -14 8 -23.5t20 -15.5t26 -8.5t25 -2.5
q31 0 61 7.5t62 7.5q31 0 53.5 -10t36.5 -27.5t21 -42t7 -53.5q0 -32 -6.5 -63.5t-22 -56.5t-40.5 -40.5t-62 -15.5q-28 0 -51 16.5t-37 39.5q14 -10 30 -18.5t34 -8.5t32.5 8t25.5 21t17 29t6 33q0 31 -22.5 55t-54.5 24q-28 0 -54.5 -19.5t-36.5 -45.5q0 -2 -1.5 -6.5
t-3 -10t-3 -10t-1.5 -5.5q0 -26 12.5 -47.5t32 -37t43.5 -24t48 -8.5q48 0 90.5 23.5t74.5 61t51 84t19 91.5q0 17 -1.5 33.5t-2.5 33.5q21 27 50 47q-6 -51 -8.5 -102.5t-3.5 -102.5l-10 -3q-2 -2 -6 -5.5t-5 -6.5l3 -10q2 -2 9 -5t10 -2q0 -45 2.5 -88.5t2.5 -88.5v-22
t-1 -22q-11 -9 -21.5 -17.5t-20.5 -17.5q-30 41 -78.5 61t-98.5 20q-31 0 -70 -9.5t-73.5 -29t-58.5 -48t-24 -65.5q0 -38 18.5 -73t47.5 -62t66 -43.5t73 -16.5q33 0 66 9.5t63.5 26t57.5 38t48 45.5l-7 6q-36 -46 -91.5 -68t-112.5 -22q-38 0 -79 10t-72 32
q-11 7 -22.5 19t-21 26t-16 28.5t-6.5 28.5q0 11 1 21t7 18q15 20 37 28.5t46 8.5q25 0 52 -8.5t51 -23t44 -34.5t31 -43q18 24 40 42.5t45 35.5t46 33.5t44 37.5q2 17 2 34v36q0 39 -1.5 78t-3.5 78q11 2 20.5 3.5t20.5 1.5q28 -18 34 -46t6 -59q0 -29 -2.5 -57t-2.5 -56
q0 -35 7.5 -58t29.5 -50q5 -6 10.5 -13t8.5 -15q11 8 19 17.5t18 18.5q16 16 36 29t38 27q12 9 22.5 19.5zM613 430q-5 -15 -22 -31t-33 -16q-14 0 -30.5 4.5t-30.5 6.5v23q-1 48 3 95.5t7 95.5l36 -48q13 -18 25 -31.5t21 -27.5t15 -30.5t9 -40.5z" />
    <glyph glyph-name="S" unicode="S" horiz-adv-x="708" 
d="M677 229q0 34 -15.5 65t-40.5 54t-57 36.5t-65 13.5q-22 0 -43 -5.5t-41 -13.5q2 48 3 94.5t6 94.5q18 -6 34.5 -10.5t36.5 -4.5q18 0 37.5 4t37 12.5t31.5 22t20 32.5l-7 7q-2 -11 -12 -17t-21 -6q-14 0 -29.5 9t-26.5 17q-16 11 -25 30t-11 37q-9 -11 -20.5 -22.5
t-25.5 -17.5q-35 -16 -75 -26t-79 -23t-73 -33t-58 -55q-11 -16 -18.5 -34t-7.5 -38q0 -26 12.5 -46.5t32.5 -34.5t44.5 -21t47.5 -7q70 0 134 19q1 -50 3 -99t2 -100q0 -36 -2 -72.5t-9 -72.5q-6 10 -9.5 17.5t-5.5 14t-3.5 15t-3.5 20.5q-6 30 -22.5 53.5t-40 39.5
t-52 24.5t-57.5 8.5q-28 0 -62 -8.5t-63 -25t-49 -42t-20 -58.5q0 -12 4 -25.5t10 -27t13 -26.5t13 -22q14 -21 30.5 -41.5t35.5 -37.5t41.5 -29.5t48.5 -17.5q16 -3 33 -3q45 0 82.5 17t73.5 42q13 9 24 19.5t23 20.5l-7 5q-11 -13 -24 -20q-20 -12 -36.5 -21t-33 -15
t-35 -9t-43.5 -3q-78 0 -137.5 34.5t-94.5 106.5q-5 9 -7.5 23.5t-2.5 25.5q0 15 5.5 28.5t15 24.5t23 17.5t28.5 6.5q21 0 37.5 -11.5t32.5 -28.5t34 -37.5t42 -37.5t55.5 -28.5t75.5 -11.5q43 0 97 17.5t100.5 49t78.5 74.5t32 93zM411 575q-4 -50 -5.5 -99.5t-2.5 -99.5
q-8 0 -15.5 -2t-15.5 -2q-21 0 -37 9.5t-27 24.5t-16.5 34t-5.5 37q0 16 3.5 34.5t10 37t16 34.5t22.5 27q5 5 11 7t11 7q12 -13 24 -26.5t27 -22.5zM535 188q0 -24 -7 -54.5t-21 -57.5t-35.5 -45.5t-51.5 -18.5h-7q-3 0 -6 2q8 41 10.5 82t2.5 83q0 47 -2 93.5t-3 93.5
q7 2 14 3t13 4q27 -8 45 -28.5t28.5 -47t15 -55.5t4.5 -54zM453 161v163l-18 -18v-163z" />
    <glyph glyph-name="T" unicode="T" horiz-adv-x="685" 
d="M654 193l-6 5q-9 -11 -17.5 -22.5t-19.5 -21.5q-34 -29 -75 -43.5t-86 -14.5q-28 0 -49.5 3.5t-41 10.5t-38 18t-40.5 27q25 0 51 -6.5t39 -30.5q22 20 44.5 39.5t39.5 41t28 48t11 59.5q0 36 -15 61t-33.5 44.5t-33.5 37t-15 39.5q0 14 10.5 25.5t22.5 17.5
q9 -4 21.5 -7t26.5 -5.5t27.5 -3.5t23.5 -1q14 0 30 3t29.5 10.5t22 19.5t8.5 30q0 16 -7.5 31t-16.5 28l-4 -4q4 -5 6.5 -11t5.5 -12q0 -2 -1 -7t-1 -6q-6 -5 -16 -5q-22 0 -50 17.5t-62.5 38.5t-75.5 38.5t-90 17.5q-39 0 -83 -14t-85 -38t-74.5 -56t-50.5 -68
q-5 -10 -5 -18q0 -20 17.5 -32.5t35.5 -12.5q13 0 28.5 4.5t30.5 12t28 17.5t21 20q6 8 12 17.5t11 18.5l-8 1h-1q-5 -12 -19 -24t-32 -21.5t-36 -15.5t-30 -6q-14 0 -29 7.5t-15 23.5q0 21 18 41t43.5 35.5t52.5 25t45 9.5q39 0 68.5 -12.5t62.5 -31.5q-42 -26 -86.5 -56.5
t-81 -69t-60 -84.5t-23.5 -101q0 -21 6.5 -43.5t16.5 -45t22.5 -43t24.5 -36.5q-16 -15 -28.5 -34t-12.5 -42q0 -36 19 -71t49 -62t67 -43.5t72 -16.5q33 0 63.5 10t59 26t54 37t47.5 43q7 7 13 14t14 14l-7 3h-1q-48 -51 -103.5 -82t-127.5 -31q-56 0 -99.5 20t-78.5 65
q-12 16 -19.5 33t-7.5 38q0 20 11.5 36.5t25.5 29.5q24 -21 47 -39t47 -31.5t51.5 -21t61.5 -7.5q46 0 91.5 16t85.5 43.5t73 63.5t55 75zM413 537q-18 -11 -38.5 -26t-37.5 -33.5t-28 -40t-11 -45.5q0 -36 17.5 -66.5t38 -56t38 -46t17.5 -36.5q0 -8 -7 -19.5t-14 -16.5
q-16 12 -36 16.5t-40 4.5q-11 0 -20.5 -1.5t-20.5 -3.5q-32 41 -49 80.5t-17 93.5q0 75 28.5 135.5t90.5 102.5l44 -22t45 -20zM279 321v117l-18 -18v-117z" />
    <glyph glyph-name="U" unicode="U" horiz-adv-x="805" 
d="M517 244v144l-18 -18v-144zM223 226q10 0 18 2.5t18 5.5q36 10 68.5 35.5t57 58.5t40 71t16.5 74v15q1 34 -8.5 70.5t-29 66.5t-49 49.5t-68.5 19.5q-34 0 -69 -11.5t-66 -25t-55.5 -25t-36.5 -11.5q-8 0 -15 3q0 11 3.5 20t14.5 14l-4 1l-1 1q-15 -12 -31.5 -32.5
t-16.5 -40.5q0 -15 6.5 -25t16.5 -16t22.5 -8.5t25.5 -2.5q19 0 37 3.5t34.5 8t32.5 8t30 3.5q28 0 48 -11.5t32.5 -30.5t18 -43.5t5.5 -49.5q0 -29 -5.5 -60.5t-19 -58t-36.5 -44t-59 -17.5q-25 0 -47.5 10.5t-35.5 32.5q9 -3 19 -4t20 -1q17 0 30.5 8t23 20t14.5 27.5
t5 30.5q0 29 -21 48t-49 19q-18 0 -34 -8t-27.5 -21.5t-18 -30t-6.5 -34.5q0 -28 14.5 -49.5t37 -35.5t49.5 -21.5t51 -7.5zM774 161l-6 3l-1 2q-11 -13 -22.5 -24t-22.5 -23q-13 2 -22 10.5t-14.5 20t-8 24.5t-2.5 24v16q0 63 -3 125t-7 125q-2 29 -5 59.5t-3 59.5
q0 8 1 18t4 19t9 15.5t17 6.5q-2 3 -3 5.5t-1 6.5q-58 -8 -88 -29.5t-43 -54.5t-14.5 -74.5t-1.5 -87.5q0 -52 1.5 -103.5t3.5 -103.5q-13 -11 -24 -24t-24 -24q0 63 -1 124.5t-1 124.5q0 70 3.5 139.5t14.5 138.5l-10 2q-13 -79 -17 -158.5t-4 -160.5q0 -56 1 -110.5
t1 -110.5q-9 -8 -18 -15t-19 -14q-45 31 -93.5 50.5t-105.5 19.5q-30 0 -66 -8.5t-67.5 -26t-52.5 -44t-21 -62.5q0 -20 8 -41.5t20.5 -41.5t27.5 -38t30 -31q22 -19 56 -30t63 -11q32 0 61 8.5t56 23t51.5 32.5t48.5 37l-4 8q-17 -17 -40 -31.5t-48.5 -25t-52 -16
t-50.5 -5.5q-17 0 -37.5 3t-41 8.5t-39 13.5t-31.5 19q-11 9 -23 21.5t-22 27t-16.5 29.5t-6.5 30q0 17 8 28.5t20 19t27 11t29 3.5q26 0 53.5 -7t53 -20t46 -31.5t32.5 -42.5q18 23 40 42.5t47 35.5q38 24 72.5 52.5t66.5 60.5q2 -32 3.5 -55t8 -42.5t21 -37t43.5 -37.5
q38 39 77.5 74.5t77.5 74.5z" />
    <glyph glyph-name="V" unicode="V" horiz-adv-x="769" 
d="M537 214v134l-18 -18v-134zM737 289q0 34 -16.5 62t-36 53.5t-36 49.5t-16.5 50q0 23 13 39.5t36 19.5l-4 9h-1q-17 0 -37 -10q-47 -23 -71.5 -64t-24.5 -93q0 -38 14.5 -66t32.5 -51.5t32.5 -45.5t14.5 -47q0 -21 -17 -40.5t-34 -28.5q-20 14 -40 26t-42 21
q1 67 -1 133.5t-2 133.5q0 85 6 169q13 -7 21.5 -14.5t17.5 -14t21.5 -11t33.5 -4.5q31 0 55 14.5t32 44.5l-8 7q0 -1 -1 -3.5t-1 -3.5q-6 -6 -15 -6q-12 0 -23 11.5t-24.5 25t-31.5 25t-43 11.5q-18 0 -34.5 -9t-30 -22.5t-25 -29.5t-19.5 -30q-22 50 -56 79t-91 29
q-32 0 -65 -13t-63 -28.5t-56.5 -28.5t-45.5 -13q-5 0 -11 2q-2 4 -2 12q0 6 1 9l12 13h-6q-8 -8 -14.5 -16.5t-14.5 -16.5q-3 -9 -7 -17.5t-4 -18.5q0 -12 8.5 -20.5t21 -14t26 -7.5t22.5 -2q35 0 69 9t69 9q28 0 47 -12t30.5 -31.5t16 -43.5t4.5 -48q0 -19 -2.5 -43
t-9.5 -48t-18 -44.5t-28 -32.5q-11 -8 -31.5 -12.5t-34.5 -4.5q-54 0 -84 45q-5 8 -6.5 16t-5.5 16q14 -14 27.5 -24t34.5 -10q14 0 27 7.5t22.5 19t15.5 25.5t6 28q0 30 -21 51.5t-51 21.5q-17 0 -32.5 -8t-27.5 -21t-19 -29.5t-7 -32.5q0 -27 12.5 -50t32.5 -39.5t45 -26
t50 -9.5q57 0 99.5 26.5t70.5 68.5t42 93.5t14 101.5q0 17 -1.5 33.5t-6.5 33.5q5 7 9.5 13.5t9.5 12.5q9 2 17.5 4t17.5 1h6q-4 -41 -5 -81t-1 -81q0 -69 2 -137t2 -137q-30 11 -61 18t-63 7t-79.5 -10t-92 -30.5t-76 -51t-31.5 -71.5q0 -25 10.5 -47.5t24.5 -42.5
q30 -44 76 -70t99 -26q30 0 60 10t58.5 25t54.5 33.5t49 35.5q19 14 35.5 31t33.5 33l-8 5q-54 -57 -116.5 -94t-144.5 -37q-33 0 -64 4t-58 14.5t-49.5 30t-39.5 51.5q-4 6 -6.5 16t-2.5 18q0 23 12.5 38t31 24t40.5 12.5t40 3.5q13 0 34.5 -3.5t45.5 -10.5t48.5 -16.5
t44.5 -21.5t33.5 -26.5t14.5 -30.5q49 53 110 96q24 17 55 36.5t58.5 43t46.5 51.5t19 63z" />
    <glyph glyph-name="W" unicode="W" horiz-adv-x="932" 
d="M652 342v113l-18 -18v-113zM823 637l-7 7q-8 -24 -34 -24q-18 0 -35.5 13.5t-38 30t-46.5 30t-60 13.5q-27 0 -53 -9.5t-49.5 -25t-43.5 -36t-35 -41.5q-8 14 -13 28t-13 28l-4 8q-12 12 -22 20.5t-20.5 14.5t-23 8.5t-30.5 2.5q-30 0 -68.5 -12.5t-74.5 -27.5t-64 -27.5
t-38 -12.5q-5 0 -5 7q0 5 3 8q5 4 15.5 15.5t10.5 16.5l-1 1q0 2 -2 2q-5 0 -15.5 -12t-20.5 -27.5t-17.5 -30.5t-7.5 -21q0 -12 6.5 -20t16.5 -12.5t21.5 -6t20.5 -1.5q33 0 65.5 10.5t65.5 10.5q25 0 44 -12.5t31.5 -31.5t19 -42t6.5 -45q0 -31 -6.5 -63.5t-21.5 -59
t-40 -43.5t-61 -17q-12 0 -26 3t-26.5 9t-22 15.5t-13.5 22.5q11 -7 21 -12.5t24 -5.5q18 0 32 7.5t23.5 20t14 28t4.5 31.5q0 24 -17 43.5t-42 19.5q-37 0 -64 -26t-27 -63q0 -26 13.5 -47t34 -35.5t45.5 -22t48 -7.5q52 0 94 28.5t71.5 72t45.5 95t16 98.5q0 25 -3 51
q17 24 35 43.5t50 22.5q20 2 39.5 -11.5t41 -30.5t46.5 -31.5t57 -14.5q43 0 79.5 19t50.5 63zM900 285q0 39 -18.5 71t-40 60t-40 52.5t-18.5 48.5q0 16 8.5 33.5t24.5 22.5l-4 7q-24 -12 -45.5 -26.5t-38 -33t-26 -41.5t-9.5 -53q0 -38 18.5 -70t40 -60.5t40 -54.5
t18.5 -51q0 -16 -7.5 -29t-19.5 -23.5t-25.5 -19t-25.5 -14.5q-10 7 -22 16t-23.5 19t-21 20.5t-15.5 20.5q-9 16 -15 48t-10 68.5t-5.5 70.5t-1.5 54q0 11 1.5 30.5t4.5 40t7 38.5t9 27q-46 -12 -77.5 -30t-51 -44.5t-28 -62.5t-8.5 -83q0 -38 6 -76.5t8 -76.5
q-14 -17 -28.5 -33.5t-33.5 -28.5q-6 5 -11.5 10t-11.5 10q-15 12 -34 21t-40 14.5t-42 8t-40 2.5q-29 0 -65.5 -8t-69 -25t-55 -43t-22.5 -62q0 -35 20 -69t50.5 -61t67.5 -43.5t70 -16.5q34 0 68 11.5t65 30t59 41.5t51 46l-6 6h-1q-46 -44 -93.5 -69.5t-113.5 -25.5
q-32 0 -68.5 7t-69 23t-56.5 41.5t-30 61.5q0 2 -0.5 4t-0.5 4q0 16 8.5 28t21 19.5t27.5 11.5t29 4q23 0 49.5 -8t50 -23t40.5 -35.5t20 -45.5q20 24 41.5 47t47.5 40q30 20 58 39.5t51 48.5q13 -24 22.5 -49.5t28.5 -46.5q14 -15 31.5 -31.5t22.5 -36.5q23 19 46 36t49 31
q31 18 67.5 38t67.5 45t52 57t21 75z" />
    <glyph glyph-name="X" unicode="X" horiz-adv-x="740" 
d="M354 449v113l-18 -18v-113zM709 219l-9 5q-8 -18 -17.5 -31t-21 -24t-24.5 -21t-26 -23q-43 12 -63 28t-27 37.5t-7 48.5q0 28 -4 64q32 -2 58 9t45 30.5t31.5 46t17.5 55.5q-3 2 -11 6q-4 -11 -16 -23q-12 -5 -24.5 -7t-25.5 -2q-20 0 -39 2.5t-39 2.5v12q0 37 3 74.5
t20 71.5q8 -11 24.5 -21t29.5 -10q22 0 38.5 7.5t29 19.5t22 28t18.5 33l-8 8q-7 -11 -23 -11q-27 0 -45 20.5t-24 44.5q-10 -23 -25 -43.5t-31 -40.5q-8 -9 -13 -20t-11 -21q-3 66 -38.5 106.5t-104.5 40.5q-31 0 -63 -11t-61 -19q-7 -2 -19 -6.5t-25 -9t-24 -8t-17 -3.5
q-5 0 -12 2t-7 10t8.5 15.5t13.5 12.5q-2 4 -4 5q-18 -18 -34.5 -39t-16.5 -48q0 -16 9 -26t22.5 -15.5t28.5 -7.5t27 -2q36 0 67.5 10.5t60.5 10.5q15 0 25 -6.5t16 -17t8 -23.5t2 -26q0 -7 -0.5 -13t-1.5 -13q-2 -17 -2 -33q0 -15 -1 -32q-42 -2 -71 -16t-48.5 -37.5
t-31.5 -55.5t-19 -70q3 -1 6 -1q4 0 7 -2q2 7 3.5 12.5t6.5 11.5q17 20 39 27.5t48 7.5q15 0 30.5 -0.5t30.5 -1.5q1 -16 2 -31t1 -31q0 -28 -9 -53t-26 -47q-35 29 -74 44.5t-84 15.5q-26 0 -56 -7t-55.5 -22t-42 -38t-16.5 -54q0 -25 11 -45t25 -40q13 -20 28.5 -39
t33 -35t38 -28t44.5 -18q16 -4 36 -4q29 0 57.5 8.5t54.5 23.5t49 34.5t41 41.5l-10 6q-11 -11 -21.5 -22t-23.5 -19q-11 -8 -26 -15t-31.5 -12.5t-32.5 -9t-29 -3.5q-27 0 -54.5 6.5t-53 18t-48 28t-38.5 37.5q-13 16 -26.5 39.5t-13.5 43.5t16.5 29.5t33.5 9.5q16 0 37 -7
t41.5 -18t38 -24.5t26.5 -26.5q5 -7 8.5 -16t8.5 -17q12 24 30.5 43t38 36.5t39 36t33.5 40.5q5 -14 7 -26.5t10 -26.5q11 -21 25.5 -40t34.5 -33q5 -4 13.5 -8t17.5 -8.5t16 -9t10 -10.5q16 21 33 41t37 37q16 14 36 30t39 33.5t35 36.5t24 39z" />
    <glyph glyph-name="Y" unicode="Y" horiz-adv-x="734" 
d="M511 385v216l-19 -18v-216zM669 634l-9 6l-4 -15l-17 -5q-16 8 -28.5 21t-25.5 25t-27.5 21t-34.5 9q-24 0 -42 -11t-30.5 -28t-20.5 -38t-12 -41q-2 14 -9.5 30t-13.5 29q-8 17 -23 31.5t-33.5 24.5t-39 15.5t-38.5 5.5q-30 0 -61.5 -12t-60.5 -27t-55 -27t-44 -12
q-1 2 -2 5t-1 5q0 12 9 23l-6 -2v-1q-11 -14 -21 -30.5t-10 -35.5q0 -13 6.5 -21.5t16 -14t21 -7.5t22.5 -2q35 0 68 9.5t68 9.5q24 0 43 -12t32.5 -30.5t21 -41t7.5 -44.5q0 -28 -7.5 -61t-23 -61t-40.5 -46.5t-59 -18.5q-19 0 -36.5 7.5t-28.5 23.5h5q7 1 13 0t13 0
q33 3 48.5 26.5t15.5 54.5q0 27 -19 48t-47 21q-17 0 -32 -7.5t-26.5 -19.5t-18.5 -27.5t-7 -31.5q0 -24 13 -44t32.5 -35t43 -23.5t44.5 -8.5q50 0 91 23t70.5 59.5t47 82.5t20.5 92q1 17 1 33q0 17 2 34q1 7 2.5 17t5.5 19.5t10 16.5t15 7q12 0 24 -10t26 -22.5
t32.5 -22.5t43.5 -10q34 0 56 18.5t24 53.5zM343 -138q35 0 75.5 15t80.5 41t76.5 60.5t65 73t45.5 78.5t17 77q0 41 -14 78.5t-31 73t-31 69.5t-14 67q0 29 13 42.5t36 27.5l-7 8q-29 -11 -53.5 -30.5t-43 -44t-29 -54t-10.5 -60.5q0 -38 8.5 -80t21.5 -79
q9 -26 17.5 -52.5t8.5 -55.5q0 -40 -24.5 -80t-61 -72.5t-80.5 -52.5t-83 -20q-51 0 -83 28.5t-46 75.5l-10 -3q5 -13 9 -28t12 -26q22 -33 58 -55t77 -22zM481 604l-9 1h-1q-4 -38 -5 -76.5t-1 -76.5q0 -54 1 -106.5t1 -106.5v-41t-1 -41q-8 -8 -17.5 -14.5t-17.5 -14.5
q-41 37 -81 49t-94 12q-29 0 -68.5 -8.5t-75.5 -26t-61 -44.5t-25 -64q0 -18 9.5 -39t24.5 -38t34 -28.5t39 -11.5v8v2q-18 2 -35.5 11t-30.5 23t-21 32t-8 37q0 17 7.5 28.5t19 18t25.5 9.5t28 3q20 0 43 -4.5t45.5 -13t42 -20.5t33.5 -27q8 -9 10 -18t5 -20q22 31 44.5 50
t45.5 34t46 30.5t46 39.5q1 19 1 38v38q0 62 -2 123t-2 122q0 33 1.5 66t3.5 65z" />
    <glyph glyph-name="Z" unicode="Z" horiz-adv-x="690" 
d="M365 -5q35 0 69.5 7t66.5 21q27 12 54.5 32.5t50.5 46t37.5 55t14.5 61.5q0 31 -13 58.5t-34 49.5t-47.5 37.5t-54.5 24.5q37 17 60 42t23 69q0 38 -16 74.5t-43 65t-62.5 46t-74.5 17.5q-27 0 -53.5 -5t-52.5 -12q-7 -2 -20.5 -6t-28 -8.5t-27 -8t-17.5 -3.5
q-7 0 -14.5 3.5t-7.5 11.5t7 17.5t13 14.5l-3 5v1q-8 -6 -17 -16t-16.5 -21t-12.5 -23t-5 -22q0 -24 13 -39.5t32.5 -23.5t41.5 -11t41 -3q26 0 51.5 5t51.5 5q9 0 17.5 -0.5t16.5 -0.5q-3 -41 -3.5 -80.5t-2.5 -80.5q-35 2 -58.5 12t-48.5 36q-2 11 -8 19q-9 0 -18 -7
l-4 -10q0 -13 9 -22t22 -15t27 -10.5t24 -8.5q-33 -11 -60 -28.5t-50 -43.5l-2 -10q1 -2 2 -6.5t3 -6.5l9 -5q2 1 5 -0.5t5 -1.5h3q17 41 57 64.5t84 23.5v-32q1 -84 -2 -166.5t-7 -166.5l-32 59q-29 53 -80.5 84.5t-111.5 31.5q-25 0 -52.5 -6t-51 -19t-39 -34t-15.5 -50
q0 -21 7 -36t17 -32q15 -27 36 -55.5t46.5 -51.5t56 -37.5t64.5 -14.5q36 0 67 10t58 27t52 39t49 45l-6 5q-24 -22 -46 -38.5t-45.5 -27.5t-50 -16.5t-60.5 -5.5q-133 0 -206 113q-9 14 -19 34.5t-10 37.5q0 15 6.5 26t17 18t23.5 10.5t26 3.5q22 -8 33.5 -16t19.5 -17
t16.5 -19.5t24.5 -23.5q40 -34 82.5 -49.5t95.5 -15.5zM512 471q0 -22 -7 -36t-19 -22t-28 -10.5t-35 -2.5h-9q1 41 2 80.5t4 80.5q17 -1 33.5 -8.5t29.5 -19.5t21 -28t8 -34zM513 226q0 -22 -3 -53.5t-11.5 -62t-23.5 -56.5t-38 -36q-2 0 -5.5 -1t-5.5 -1h-23q5 77 8 153.5
t3 153.5v29t-1 29h7q11 1 28 -4.5t25 -13.5q10 -9 17.5 -26.5t12.5 -37.5t7.5 -40t2.5 -33zM451 361l-19 -18l-8 -163l19 18z" />
    <glyph glyph-name="bracketleft" unicode="[" horiz-adv-x="209" 
d="M178 647q0 1 -1 5.5t-1 5.5v6q-7 17 -23 17q-9 0 -17.5 1.5t-16.5 1.5q-13 0 -26.5 -6t-25.5 -15.5t-21 -22t-12 -24.5q-8 -27 -12.5 -71.5t-7 -92.5t-3.5 -94t-1 -76q0 -89 3.5 -177.5t8.5 -177.5q10 -23 18.5 -38.5t20 -26t28 -15t43.5 -4.5q21 0 28 11t9 29
q-5 -13 -16 -13q-8 0 -14.5 2t-13.5 2t-13 -2t-13 -2q-19 0 -35 10.5t-25 26.5q0 95 -2.5 189.5t-2.5 189.5q0 87 4 173t15 172q10 11 23 22t30 11q7 0 13 -1.5t13 -1.5q15 0 26.5 1t19.5 -15z" />
    <glyph glyph-name="backslash" unicode="\" horiz-adv-x="430" 
d="M399 67q-53 70 -98.5 144.5t-89.5 149.5t-89.5 149.5t-97.5 144.5l-15 -21q49 -72 94 -146.5t89.5 -149.5t91 -149t99.5 -144q5 6 8.5 10.5t7.5 11.5z" />
    <glyph glyph-name="bracketright" unicode="]" horiz-adv-x="211" 
d="M167 612q-10 22 -18.5 37t-19.5 24t-27 12.5t-42 3.5q-40 0 -40 -38q5 12 17 12q7 0 13.5 -1.5t13.5 -1.5q8 0 13.5 2t13.5 2q18 0 34 -10.5t25 -25.5q1 -98 3.5 -195t2.5 -195q0 -85 -3.5 -168t-14.5 -167q-11 -12 -25 -22t-31 -10q-9 0 -17.5 3t-19.5 3q-13 0 -22 1.5
t-14 16.5l1 -16q4 -9 8 -13.5t9.5 -6t12 -2t14.5 -2.5q4 -1 7.5 -2.5t7.5 -1.5q13 0 27 6t26 15.5t21 21.5t13 25q7 25 11.5 67.5t7.5 89t4 90t1 71.5q0 94 -4.5 187.5t-8.5 187.5z" />
    <glyph glyph-name="asciicircum" unicode="^" horiz-adv-x="371" 
d="M335 386q5 22 5 39q0 37 -14 70.5t-32 66l-36 65t-25 68.5q-9 1 -18.5 1.5t-18.5 0.5h-9q-3 0 -8 -1q-60 -66 -100.5 -144t-69.5 -162q25 -11 51 -18q35 63 64.5 126.5t65.5 125.5q11 -28 26.5 -55.5t29 -55.5t23 -57.5t9.5 -60.5q0 -7 -0.5 -13t-1.5 -13l30 6t29 11z
" />
    <glyph glyph-name="underscore" unicode="_" horiz-adv-x="545" 
d="M514 -182q-4 4 -4 10q0 3 1 6t1 7q0 5 -7 7q-12 3 -41.5 4t-63.5 1h-64h-46q-27 0 -65.5 0.5t-78.5 -1t-76.5 -6.5t-60.5 -15q5 -5 5 -11t-0.5 -11t5.5 -9q54 -3 107.5 -4t107.5 -1q24 0 63.5 -0.5t81 1.5t79 6.5t56.5 15.5z" />
    <glyph glyph-name="a" unicode="a" 
d="M398 152l-8 3q-6 -8 -12.5 -16t-11.5 -17q-11 4 -14.5 13t-3.5 20q0 20 2.5 41t2.5 42q0 38 -3.5 75t-3.5 74q0 4 3 9q3 10 10.5 17t15.5 14l-4 9l-1 1q-9 -5 -16.5 -12.5t-14.5 -15.5q-18 41 -45 64t-61 49q-17 -24 -41 -42t-49.5 -34.5t-50.5 -33.5t-44.5 -38
t-30 -48.5t-6.5 -64.5q-1 -4 -1 -12q0 -19 3 -43t9 -48t15.5 -45.5t22.5 -36.5q14 -15 24.5 -30t18.5 -35q31 26 64.5 47t62.5 48q-1 -10 2.5 -23t8.5 -26.5t11 -26t10 -22.5q14 15 34 34l40 38t37 38t25 34zM229 121l-22 -20t-23 -18q-17 11 -32 27.5t-17 38.5q-3 36 -4 73
t-1 73q0 35 2.5 69.5t9.5 69.5q17 -11 33 -23t28 -26.5t19 -32t7 -39.5q0 -29 1.5 -58.5t1.5 -59.5q0 -37 -3 -74z" />
    <glyph glyph-name="b" unicode="b" horiz-adv-x="391" 
d="M360 325q0 41 -6.5 67t-19 46.5t-30.5 41t-40 50.5q-16 -20 -33 -33.5t-33.5 -24.5t-31.5 -22t-28 -26q1 54 2.5 110t10.5 110q1 7 5 16.5t10 17.5t14 13.5t17 5.5q7 0 13 -2.5t12 -5.5q-6 -2 -13.5 -6.5t-15 -10.5t-12.5 -13t-5 -14q0 -20 16 -34.5t36 -14.5q10 0 20 4
t17 12q1 4 3.5 10.5t2.5 10.5q0 15 -6.5 28.5t-17.5 24t-25 17t-29 6.5q-43 0 -71 -23t-52 -55q-18 -24 -28 -54.5t-14.5 -63.5t-5.5 -66t-1 -62q0 -60 5 -118.5t5 -117.5q0 -6 -2.5 -12t-4.5 -11q-3 -3 -6.5 -5.5t-8.5 -3.5q2 -2 4.5 -5t3.5 -5q9 1 15 7t10 14
q15 -26 25 -42t21 -28.5t26 -24t41 -27.5q25 24 58 49t63.5 53.5t52.5 60.5t25 69q2 22 4 43.5t2 43.5zM187 448q19 -16 31 -29.5t18.5 -28.5t8.5 -33t2 -42q0 -57 -4 -113.5t-14 -113.5q-38 15 -64.5 41t-26.5 71l-1 161q0 26 12.5 51t37.5 36z" />
    <glyph glyph-name="c" unicode="c" horiz-adv-x="318" 
d="M304 466l-6 5h-1q1 -4 1.5 -7t0.5 -7l-5 -5q-14 -2 -23 4t-15 15.5t-8.5 21t-3.5 22.5q-32 -27 -69 -48.5t-69.5 -47t-54 -59.5t-21.5 -85q0 -11 1 -21t1 -21q0 -48 18 -93t47 -83q11 -14 19.5 -26t15.5 -28q15 19 34 34t39.5 28.5t40.5 28t36 33.5q5 5 8.5 11t8.5 11
l-6 4q-14 -17 -30.5 -31t-33.5 -28q-35 25 -52 46.5t-23 45t-5.5 51.5t0.5 67q0 32 1.5 64t6.5 64q15 -19 32 -32t43 -13q11 0 24 3.5t24.5 10.5t19.5 17t8 23q0 6 -1 12.5t-3 12.5z" />
    <glyph glyph-name="d" unicode="d" horiz-adv-x="378" 
d="M346 345q0 72 -33 129.5t-90 99.5q-24 18 -49.5 31t-53.5 24q-8 3 -15.5 8.5t-7.5 14.5q0 14 13 29.5t24 23.5l-1 7q-15 -8 -32 -25t-31.5 -38t-24.5 -42.5t-10 -38.5t8.5 -28.5t21 -19.5t27 -13.5t27.5 -11.5q-22 -13 -42 -29t-35 -35.5t-24 -42.5t-9 -50q0 -11 1 -24.5
t2 -28.5t2.5 -29t2.5 -25q5 -41 24 -80.5t42 -71.5q13 -18 27 -33.5t24 -35.5q32 32 68.5 55.5t68.5 55.5q27 27 42 51.5t22.5 51t9 56t1.5 65.5zM235 342q0 -16 2 -31.5t2 -31.5q0 -46 -6.5 -91.5t-11.5 -91.5q-15 11 -31.5 24t-30 28t-22.5 32t-9 38q0 42 -1.5 84t-1.5 84
v62q0 11 3.5 20t5.5 20l8 -5h1q18 -6 35 -22t29.5 -36.5t20 -42.5t7.5 -40z" />
    <glyph glyph-name="e" unicode="e" horiz-adv-x="309" 
d="M278 365q0 34 -15.5 63.5t-32.5 56.5q-5 8 -7.5 16t-8.5 14q-29 -20 -64.5 -42t-66.5 -48.5t-52 -59t-21 -74.5q0 -23 -0.5 -46.5t1.5 -46.5q1 -20 8.5 -42.5t18.5 -45t24 -42.5t27 -34q7 -7 13 -15t11 -16q11 9 22 16.5t22 15.5q34 23 61 49.5t54 56.5l-6 4
q-14 -15 -28.5 -31t-31.5 -28q-26 14 -48.5 36.5t-27.5 52.5q21 14 46.5 35t48 46.5t38 53t15.5 55.5zM132 444q13 -10 26 -27t23.5 -36.5t16.5 -40t6 -37.5q0 -38 -23.5 -66.5t-53.5 -47.5q1 37 -1 74t-2 74q0 27 1.5 54t6.5 53z" />
    <glyph glyph-name="f" unicode="f" horiz-adv-x="258" 
d="M298 607q-2 4 -4 7.5t-5 5.5l-1 -5l-2 -2h-5q-3 0 -9 2q-18 17 -26.5 31.5t-16.5 37.5q-12 -13 -27 -22.5t-30 -17.5q-55 -30 -84.5 -68t-40.5 -100q-9 -2 -17.5 -5.5t-16.5 -7.5q-2 -9 -1 -18.5t-3 -18.5q10 2 19 5l18 6q-2 -38 -2.5 -76.5t-0.5 -77.5q0 -99 3 -197
t5 -198q2 -3 5 -6.5t7 -5.5v29q0 25 0.5 45.5t8 35.5t24 23t47.5 7l13 -1q4 42 5 83t1 83q0 69 -1.5 136t0.5 135h11q13 1 26 -1l26 -4q1 14 2 26.5t3 26.5q-7 1 -14 1h-14h-21q-9 0 -19 -1q1 29 3.5 58.5t4.5 58.5q1 -11 9 -19.5t19 -14.5t23 -9t21 -3q8 0 18 1t18.5 5
t14 10.5t4.5 17.5z" />
    <glyph glyph-name="g" unicode="g" horiz-adv-x="398" 
d="M367 420l-5 10q-24 -10 -32 -34q-18 30 -40 54.5t-49 47.5l-14 10t-14 11q-7 -23 -37 -45t-64.5 -49t-64 -63t-34.5 -87q-2 -19 -3 -37.5t-1 -38.5q0 -45 3.5 -70t13.5 -43t27 -36.5t43 -51.5q10 13 19 21t18 14t20 10.5t25 12.5q14 7 26 17.5t25 19.5q0 -20 1.5 -40.5
t6.5 -40.5q4 -16 9.5 -30.5t5.5 -31.5q0 -14 -6.5 -28t-17 -26.5t-23.5 -22t-25 -13.5q-7 -2 -15.5 -2.5t-15.5 -0.5t-21.5 8t-19.5 13q18 5 29 17t11 32q0 13 -6.5 24.5t-16 20.5t-22 14t-24.5 5q-13 0 -24 -8t-11 -22v-4q5 -22 16 -42.5t26.5 -36.5t36 -26t44.5 -10
q38 0 68.5 18.5t56.5 44.5q10 10 21.5 23.5t21.5 28.5t16.5 31.5t6.5 31.5q0 17 -5.5 33t-5.5 33q0 12 0.5 24t0.5 24q0 57 -4 114t-4 115q0 22 13 45zM229 113q-11 -13 -24.5 -23t-27.5 -19q-23 16 -34.5 31.5t-16.5 32.5t-5.5 37t-0.5 46q0 52 4.5 103.5t12.5 102.5
q6 -2 18 -9t25.5 -15.5t24.5 -16.5t14 -12q2 -3 4 -10.5t3.5 -16t2 -16t0.5 -11.5q0 -16 -1 -31.5t-1 -31.5q0 -32 1 -63.5t1 -63.5v-14z" />
    <glyph glyph-name="h" unicode="h" horiz-adv-x="413" 
d="M382 250q0 53 -2.5 86t-12 59t-28.5 53t-51 68q-14 -16 -30.5 -27t-34 -21t-34.5 -20t-32 -24q1 20 1.5 58.5t4 79t11 75.5t21.5 49q5 5 13 7.5t16 2.5q16 0 26 -14q-20 0 -33 -12.5t-13 -32.5q0 -18 17 -31t34 -13q14 0 25 8.5t11 23.5t-6 30t-16.5 27t-24.5 19t-30 7
q-32 0 -59 -19t-47 -42q-17 -19 -29 -39.5t-17 -45.5q-13 -60 -17 -120t-4 -120q0 -43 2.5 -85t2.5 -85q0 -15 -10.5 -27.5t-26.5 -11.5q32 -17 56 -39.5t34 -58.5q1 -3 3 -6t1 -6q9 24 20 37t25 20.5t31.5 11t38.5 8.5q-22 5 -40.5 19.5t-18.5 40.5q0 61 -2 121t-1 120v24
q11 13 23.5 22t26.5 17q35 -19 48 -47.5t14 -66.5q1 -35 1.5 -69.5t0.5 -69.5t-1 -71.5t-6.5 -72t-16.5 -69.5t-31 -64q-14 -20 -32.5 -33.5t-43.5 -13.5q-19 0 -35 11l-2 -10q15 -5 22.5 -9.5t26.5 -4.5q38 0 72 23t62 57t48 72.5t31 69.5q14 39 16 85.5t2 88.5z" />
    <glyph glyph-name="i" unicode="i" horiz-adv-x="284" 
d="M208 607q0 8 -4 20t-11 22.5t-16 18t-18 7.5q-10 0 -21 -5.5t-20 -14.5t-15 -19.5t-6 -20.5q0 -29 18.5 -39t44.5 -10q17 0 32.5 11t15.5 30zM253 148l-6 2q-16 -23 -31 -43q-11 8 -14.5 20t-3.5 25q0 38 3 76t3 76q0 16 -1 35t0.5 37.5t7 35.5t18.5 29q9 7 16 16l-7 9
q-8 -8 -17 -15.5t-17 -15.5q-9 23 -20 42.5t-28 37.5q-8 8 -15 20q-14 -18 -31 -32.5t-34 -28.5q-19 -16 -35 -34t-32 -37l6 -6q8 9 16 18.5t17 17.5q14 -9 20.5 -24.5t7.5 -31.5q3 -93 3 -186q0 -15 -0.5 -34.5t1 -38.5t6.5 -37t16 -30t21.5 -22t18.5 -24q10 15 21 30
t23 28q20 20 35 41t32 44z" />
    <glyph glyph-name="j" unicode="j" horiz-adv-x="278" 
d="M196 605q0 9 -4 21t-10.5 23.5t-16 19.5t-19.5 8q-11 0 -21.5 -6.5t-19 -16.5t-14 -22t-5.5 -22q0 -11 6.5 -19t16.5 -12.5t20.5 -6.5t19.5 -2q16 0 31.5 8.5t15.5 26.5zM247 432l-6 12q-10 -4 -20 -8.5t-18 -11.5q-10 32 -26.5 56.5t-36.5 50.5q-15 -18 -32.5 -33.5
t-34.5 -31.5t-34 -32.5t-30 -35.5l7 -6q6 11 15 19t17 18q19 -8 24 -27t5 -36q0 -67 1.5 -133.5t1.5 -133.5q0 -24 -1.5 -51t6.5 -50q7 -18 13 -31t6 -33q0 -15 -9.5 -32t-27.5 -17q-12 0 -21 10.5t-15 19.5l-1 -8q13 -19 24 -33.5t37 -14.5q21 0 42 15t38 36.5t27.5 46
t10.5 43.5q0 9 -2.5 17t-3.5 16q-2 11 -2 22v22q0 34 2.5 67.5t2.5 67.5q0 42 -1.5 83.5t-1.5 83.5q0 21 12 34.5t32 18.5z" />
    <glyph glyph-name="k" unicode="k" horiz-adv-x="435" 
d="M404 144l-4 3q-6 -7 -12.5 -14t-13.5 -13q-9 6 -9 20q0 8 2 16l4 16t1.5 16.5t1.5 16.5q-5 19 -15.5 32t-25.5 22t-32.5 14.5t-34.5 9.5q22 10 41 21t33 26t22 34t8 46q0 18 -9.5 37t-20.5 32q-11 12 -18 25t-15 27q-17 -19 -37 -31t-41 -24t-42 -25.5t-40 -35.5v38
q0 27 1.5 59t5.5 65.5t12.5 61t22 45.5t34.5 18q6 0 11 -3t10 -5q-9 -5 -16 -9t-13 -8.5t-10.5 -11.5t-7.5 -17q-3 -9 1 -18t11 -15.5t16 -11t17 -4.5q19 0 35.5 12t16.5 33q0 33 -23 52.5t-55 19.5q-38 0 -72.5 -22.5t-57.5 -50.5q-18 -22 -28.5 -55.5t-16 -70.5t-7 -73
t-1.5 -63q0 -54 5 -108t5 -108q0 -34 -34 -32q29 -20 53.5 -47t32.5 -62q10 16 19.5 26t20.5 16.5t24.5 9.5t32.5 6q-23 10 -35 25t-12 41q0 23 2 44.5t2 44.5v17q0 9 -1 17q4 0 16 -0.5t25 -1t24 -1.5t14 -2q4 -2 10 -7.5t8 -6.5q9 -11 12 -23.5t3 -25.5q0 -17 -3.5 -34
t-3.5 -34q0 -11 -1.5 -21t-1.5 -21q0 -23 10 -42.5t33 -27.5q25 33 55.5 61t55.5 60zM202 445q29 -8 48.5 -35t19.5 -56t-17.5 -50t-47.5 -21h-21h-18t-18 1v23v39q0 21 4.5 40t16 34.5t33.5 24.5z" />
    <glyph glyph-name="l" unicode="l" horiz-adv-x="265" 
d="M269 604q0 12 -7 28.5t-17.5 33t-23.5 30t-24 17.5q-5 2 -10.5 2.5t-10.5 0.5q-19 0 -36.5 -8t-32 -21t-25.5 -29.5t-17 -32.5q-8 -21 -13 -48.5t-8 -56t-4.5 -57t-1.5 -50.5q0 -65 4.5 -128.5t4.5 -128.5q0 -20 -8.5 -30t-29.5 -12l7 -12h4q8 -1 16 4t14 10
q7 -22 13 -35.5t13 -24.5t16 -22.5t23 -28.5q23 27 51 49t54 46q7 7 11 15t10 15l-5 3q-9 -9 -17 -18t-16 -19q-19 8 -28 26.5t-9 38.5q0 27 1.5 54.5t1.5 55.5q0 63 -2 125t-2 125q0 58 3 117q1 16 4.5 32t18.5 25q3 1 5.5 1.5t5.5 0.5q6 0 13 -7.5t12 -12.5q-11 4 -23 -3
t-12 -20t5 -25.5t13.5 -22.5t20 -16t25.5 -6q7 0 10 7.5t3 12.5z" />
    <glyph glyph-name="m" unicode="m" horiz-adv-x="652" 
d="M621 129l-4 5q-11 -8 -21.5 -16t-21.5 -16q-6 10 -6 22q0 5 1 9t3 9q8 21 11 45t3 47q0 36 -5.5 71.5t-5.5 71.5q0 15 8 27.5t20 20.5l-8 9q-8 -5 -14.5 -12.5t-12.5 -15.5q-8 14 -17 27.5t-18 26.5q-8 11 -16 20.5t-14 20.5q-3 -7 -7 -13t-9 -11l-5 -3
q-26 -16 -52.5 -28.5t-52.5 -28.5q-4 28 -16 52t-23 50q-20 -20 -42.5 -34.5t-45 -27l-45 -25t-42.5 -29.5q-1 4 -1 12q0 11 1 23t-5 23q-2 11 -4.5 19.5t-2.5 19.5q-35 -26 -70.5 -51t-71.5 -49l2 -5v-1q8 5 16 10.5t16 10.5q4 -9 4 -21q0 -14 -5 -29q-7 -21 -9.5 -42.5
t-2.5 -43.5q0 -26 4 -53t4 -53q0 -17 -5 -33t-22 -24q15 -4 28 -13.5t24 -22.5t19 -27.5t12 -28.5q11 31 34 48.5t57 17.5q16 0 31.5 -4t28 -12.5t20.5 -22t8 -31.5v-11q0 -5 1 -10q9 14 23.5 29t31.5 28t35.5 22t35.5 11q-20 10 -26 19t-6 31q0 16 2.5 31.5t2.5 31.5
q0 31 -2.5 61.5t-2.5 61.5q0 19 1.5 35.5t6.5 34.5q10 14 25 21t31 12q12 -5 20 -15.5t12 -23.5q-2 -16 -0.5 -37.5t3 -44.5t3.5 -45.5t2 -40.5q0 -27 -3 -53.5t-11 -52.5q-3 -11 -5 -21.5t-2 -21.5q0 -5 0.5 -10.5t1.5 -10.5l9 -16v-9q0 -3 1 -8q38 31 79.5 55t78.5 56z
M246 176q0 -13 -2.5 -28t-9 -27.5t-17 -21t-26.5 -8.5q-6 0 -9 1.5t-8 3.5l-2 4q-14 8 -18.5 22.5t-4.5 28.5q0 35 -3 70.5t-3 70.5q0 30 3 50t12 34.5t25 26t43 25.5q7 -5 14 -11q5 -20 5 -36q0 -19 -3.5 -37t-3.5 -38q0 -32 4 -64.5t4 -65.5z" />
    <glyph glyph-name="n" unicode="n" horiz-adv-x="481" 
d="M450 143q-1 3 -6 5q-9 -10 -19 -19.5t-19 -19.5q-8 8 -11 17.5t-3 19.5q0 22 4 44t4 45q0 7 -0.5 28t-1.5 45t-2.5 44t-2.5 24q4 19 13.5 33.5t23.5 28.5l-8 9q-8 -7 -14 -15.5t-15 -13.5q-3 10 -9.5 23t-14.5 26.5t-16.5 26t-15.5 20.5q-8 -7 -15.5 -14t-15.5 -13
q-32 -23 -66.5 -41t-66.5 -40q2 25 0.5 37.5t-6 21t-10.5 18t-12 28.5q-23 -24 -48 -42.5t-51 -38.5q-10 -8 -18 -15.5t-19 -14.5l2 -6h1q8 5 15.5 11t14.5 13q5 -9 7.5 -19.5t2.5 -21.5q0 -20 -4.5 -43.5t-4.5 -48.5q0 -32 3 -64.5t3 -65.5q0 -16 -8.5 -31.5t-27.5 -16.5
q31 -14 56 -38t31 -59q17 28 43 47t59 24l-9 5h-1q-16 11 -21.5 23t-5.5 31q0 40 -2 79t-2 79q0 37 2.5 56.5t11 32t25 23t45.5 28.5q20 -17 27.5 -34.5t7.5 -44.5q0 -35 1 -69.5t1 -69.5t-4 -67t-9 -66q5 -24 16 -39t19 -36q36 33 74 63.5t72 67.5z" />
    <glyph glyph-name="o" unicode="o" horiz-adv-x="386" 
d="M142 1q22 21 46 34t49 29q20 13 40.5 28.5t37 34t27.5 40.5t12 48q1 9 1 18v18q0 29 -2 54.5t-9 48.5t-19 45t-32 45q-17 20 -33 36t-29 39q-14 -12 -25 -23.5t-28 -19.5q-22 -11 -49 -27t-51 -35.5t-42 -42.5t-22 -50q-1 -5 -2.5 -10.5t-1.5 -10.5q0 -42 1.5 -75.5
t10 -63t26.5 -57t51 -57.5q12 -11 22.5 -21.5t20.5 -24.5zM132 435q37 -20 59 -38.5t33 -41t14 -51.5t3 -70q0 -39 -3 -78t-10 -78q-41 25 -62.5 43.5t-31 40t-11 50.5t-1.5 74q0 38 2 75t8 74z" />
    <glyph glyph-name="p" unicode="p" horiz-adv-x="437" 
d="M406 199q0 35 -4.5 73.5t-9.5 73.5q-3 22 -11 42t-19 39q-11 18 -21 35.5t-20 35.5q-17 -20 -39.5 -30.5t-44.5 -24.5q-11 -7 -20 -14.5t-20 -13.5q-3 26 -15.5 49.5t-28.5 44.5q-20 -23 -42 -44t-45 -41q-11 -10 -20.5 -21t-20.5 -20q5 -3 6 -4q9 8 16 17t15 17
q16 -7 17.5 -25t1.5 -32q0 -11 -3 -24t-4 -24q-3 -26 -4 -51.5t-1 -51.5v-40q0 -19 1 -39q-8 -5 -17.5 -13.5t-18 -18t-15 -20t-7.5 -20.5q-1 -6 -1 -11t-2 -11l12 -5q-1 12 9 24.5t23 12.5q5 0 9 -0.5t9 -0.5q2 -53 2 -105v-105q26 13 50.5 26.5t48.5 28.5q5 32 11.5 63
t6.5 63q11 -8 18.5 -18t15.5 -21q21 31 52.5 50t60 37.5t49 44.5t20.5 72zM294 78q-19 24 -45.5 40.5t-55.5 24.5q-2 30 -3 60t-1 59q0 26 2.5 51t2.5 51q0 29 15.5 43.5t38.5 27.5q43 -34 43 -91q0 -55 2 -109t2 -109v-24t-1 -24z" />
    <glyph glyph-name="q" unicode="q" horiz-adv-x="411" 
d="M380 401l-7 8v3q-11 -4 -19 -13t-15 -18q-9 28 -20.5 46t-25.5 33t-30 28.5t-35 32.5q-12 -15 -27 -27t-31.5 -23t-33 -21.5t-31.5 -22.5q-29 -24 -47.5 -48.5t-29 -51.5t-14.5 -58t-4 -67q0 -31 5 -65t20 -62q8 -14 18.5 -25.5t21.5 -23.5q7 -8 13 -14t11 -16
q15 15 34 28t38 25t35.5 23t26.5 22q-1 -68 -7 -134.5t-19 -132.5q29 32 61 61.5t64 58.5q12 48 16 96.5t4 97.5q0 50 -3 99t-3 99q0 17 7.5 36.5t26.5 25.5zM232 321q0 -45 0.5 -89.5t0.5 -89.5q0 -25 -18 -42t-38 -28q-21 19 -31 35t-14.5 32.5t-4.5 35.5v46q0 56 5 110.5
t14 109.5q18 -12 33.5 -23.5t27.5 -25t18.5 -30.5t6.5 -41z" />
    <glyph glyph-name="r" unicode="r" horiz-adv-x="354" 
d="M252 382q31 0 50.5 20.5t19.5 51.5q0 9 -3 18q-2 4 -9 8q2 -6 -0.5 -12.5t-7.5 -10.5q-2 0 -4.5 -0.5t-4.5 -0.5q-8 0 -15 5.5t-12 13.5t-8 17t-3 16q-14 -20 -31 -38t-34 -35q-6 25 -20.5 46.5t-31.5 39.5q-6 -9 -22.5 -25t-37 -34.5t-40 -36.5t-29.5 -29q1 -2 2 -3.5
t2 -3.5q10 9 19 19t19 19q11 -10 14 -23.5t3 -27.5q0 -39 -1 -78t-1 -78q0 -13 1.5 -26.5t-0.5 -25.5q-2 -19 -9.5 -23.5t-7.5 -8.5q0 -3 7.5 -15.5t17 -27t18.5 -26.5t11 -15q7 -10 16 -17t16 -17q3 -5 5 -9t6 -8q14 16 27 29.5t30 26.5q29 22 56 45t50 51q-2 2 -5 3t-5 3
q-14 -17 -27.5 -33t-32.5 -26q-20 11 -34.5 31.5t-14.5 43.5q0 41 -1 80.5t-1 79.5q0 18 0.5 35.5t1.5 34.5q14 -8 29 -15.5t32 -7.5z" />
    <glyph glyph-name="s" unicode="s" horiz-adv-x="391" 
d="M166 275q-11 2 -17 9t-8.5 16t-3 19t-0.5 19q0 26 3.5 51.5t7.5 51.5q14 -20 35 -32.5t47 -12.5q8 0 15 1t14 3q-11 -12 -20 -26t-17.5 -28t-17.5 -27.5t-21 -25.5l-9 -9t-8 -9zM148 241q12 8 23.5 16t23.5 16q23 -4 36 -19.5t13 -38.5q0 -32 -4 -65t-12 -64l-3 7
q-19 20 -42.5 28.5t-50.5 8.5q-14 0 -28 -1.5t-28 -6.5q32 63 72 119zM20 58l1 -1q4 10 13 14.5t19 4.5q30 0 52 -22t33 -47q25 25 62.5 45t73 42.5t60.5 52t25 74.5q0 17 -7 35.5t-19 34t-28 25.5t-34 10q-14 0 -26.5 -5t-24 -12.5t-23 -16t-22.5 -15.5q6 8 12.5 14.5
l13.5 13.5q11 10 19.5 22.5t16 25.5t15.5 26t18 25q14 5 27 14.5t21 23.5q5 9 5 18q0 10 2 20q-4 3 -8 5q-2 -13 -6 -19t-16 -11q-18 2 -27 8t-13 14.5t-6.5 18.5t-7.5 21q-26 -20 -65 -40t-76 -44t-63.5 -53.5t-26.5 -68.5q0 -17 6.5 -32.5t18 -28t26.5 -20t32 -7.5
q21 0 39 9q-20 -28 -37.5 -57t-32.5 -59q-17 -8 -32 -20.5t-17 -31.5q-16 -20 -26.5 -45.5t-25.5 -47.5q16 15 23.5 24t12.5 17.5t9.5 18.5t13.5 27z" />
    <glyph glyph-name="t" unicode="t" horiz-adv-x="282" 
d="M251 152h-7q-9 -11 -16.5 -22t-17.5 -21q-17 5 -25 21t-8 33q0 33 2 66.5t2 67.5q0 44 -0.5 87t-1.5 87q16 -1 31 -4t30 -7v8q1 7 0 14t0 14q-15 5 -29.5 9.5t-30.5 6.5v14v33t2 40.5t6.5 39t13.5 28.5l6 2l7 -1l15 -9q-1 6 -3.5 11.5t-4.5 10.5q-14 9 -30 9q-7 0 -10 -1
q-27 -7 -49.5 -26.5t-38.5 -45.5t-25 -55t-10 -55q-12 -3 -24 -7t-24 -9q0 -8 -0.5 -17t-1.5 -17q12 2 23.5 5.5t23.5 4.5q-3 -72 -0.5 -142.5t2.5 -142.5v-22t-2.5 -23.5t-9.5 -19t-21 -8.5l-4 2q2 -10 5 -14q2 0 4 -0.5t4 -0.5q14 0 26 12q7 -21 15 -34t15.5 -23
t15.5 -20.5t17 -26.5q15 19 32 36.5l34 35t33 36t29 40.5z" />
    <glyph glyph-name="u" unicode="u" horiz-adv-x="479" 
d="M448 142l-6 4q-8 -8 -16 -16.5t-18 -15.5q-8 6 -10.5 14.5t-2.5 17.5q0 23 3 47.5t3 48.5q0 37 -3 73.5t-3 72.5q0 18 10.5 32.5t24.5 25.5l-6 7q-20 -13 -31 -30q-7 21 -21 36.5t-23 35.5q-2 5 -4 8.5t-4 8.5q-28 -25 -58.5 -42.5t-59.5 -40.5l6 -8v-1q8 6 16.5 11
t16.5 10l13 -13q4 -8 6 -31.5t3 -51t0.5 -53t-0.5 -36.5v-63t-6.5 -41t-24 -32t-52.5 -34q-17 7 -23.5 19t-8.5 29q-3 40 -3.5 80.5t-0.5 80.5q0 26 1.5 51.5t5.5 51.5q3 16 3 33q0 10 -5 23t-10.5 25t-10 21t-4.5 10q-20 -18 -40.5 -34t-42.5 -31q-14 -10 -26.5 -21.5
t-26.5 -21.5l3 -6q8 7 15.5 13t15.5 12q4 -2 6.5 -4t5.5 -4h1q1 -3 1 -7v-6q0 -27 -5.5 -57t-5.5 -62q0 -36 3.5 -71.5t3.5 -71.5q0 -5 -1 -9.5t-1 -9.5q-8 -9 -15 -18.5t-18 -14.5l8 -8q8 5 16.5 10.5t14.5 13.5q11 -26 26.5 -49t32.5 -45q26 27 54.5 42.5t58.5 35.5
q11 7 21 15t21 14q-1 -16 0.5 -33t10.5 -31q4 -6 9.5 -10t7.5 -11q6 -6 9 -14q13 15 30.5 28.5t32.5 26.5q21 17 39.5 34t37.5 37z" />
    <glyph glyph-name="v" unicode="v" horiz-adv-x="406" 
d="M375 256q0 7 -0.5 14t-1.5 14q-5 47 -9 74.5t-12 49t-24.5 43.5t-46.5 60q-11 -12 -27 -22.5t-33.5 -21t-35 -22t-30.5 -24.5v7q-1 20 -1.5 40.5t-17.5 34.5l-9 3q-4 4 -10 7q-22 -23 -45.5 -44.5t-48.5 -41.5q11 -5 15 -14t4 -20q0 -27 -5.5 -53.5t-5.5 -54.5
q0 -30 3 -59.5t3 -59.5q0 -18 -7.5 -34.5t-20.5 -28.5q2 -2 4.5 -5t3.5 -5q8 7 15.5 14.5t12.5 18.5q6 -22 18 -38t26 -29.5t29 -26.5t28 -29q17 16 34.5 30.5t37.5 26.5q31 19 59.5 36t50 39t34.5 50.5t13 70.5zM215 451q13 -8 26 -24t16 -30q3 -15 4.5 -35.5t1.5 -42.5
t-0.5 -43t-0.5 -37q0 -37 -2 -73.5t-10 -72.5q-11 4 -24.5 11t-26.5 15.5t-24 18t-17 20.5q-4 8 -6 22.5t-2 22.5q0 28 -1.5 55t-1.5 55q0 27 1.5 46.5t8.5 34.5t20.5 28.5t37.5 28.5z" />
    <glyph glyph-name="w" unicode="w" horiz-adv-x="636" 
d="M605 243q0 45 -10 93.5t-35 86.5q-13 20 -27.5 36.5t-28.5 36.5q-8 -9 -21.5 -18t-29 -18.5t-31 -19.5t-27.5 -22q-5 32 -19 56.5t-34 50.5q-30 -25 -63 -43.5t-65 -41.5q-11 -8 -20 -16t-20 -15q1 7 1.5 14t0.5 14q0 19 -4 37t-15 34q-35 -30 -75 -53.5t-73 -54.5l3 -5
q10 7 19.5 13.5t18.5 14.5q6 -4 8 -10t2 -13q0 -10 -3 -19q-13 -45 -13 -93q0 -33 3.5 -65.5t3.5 -64.5q0 -12 -4.5 -23.5t-14.5 -19.5q-4 -1 -8 -1.5t-8 -2.5q23 -8 43.5 -22.5t32.5 -35.5q5 -10 9 -20t9 -20q2 6 5 11.5t5 11.5l5 7v3q17 19 40.5 30.5t49.5 13.5
q-25 8 -38 19.5t-13 39.5q0 40 -2.5 79t-2.5 79q0 30 3.5 49.5t12.5 34.5t25.5 27.5t42.5 27.5q15 -5 21 -19t6 -28q0 -19 -2.5 -37t-2.5 -37q0 -32 2 -63t2 -63q0 -14 -1.5 -28.5t-1.5 -29.5q0 -24 5 -40.5t15 -29.5t23.5 -24t31.5 -23q2 -2 5 -9.5t5 -9.5q21 18 43.5 34
t46.5 30q26 15 55 31t53 36t40 46t16 61zM438 435q25 -14 35.5 -34t12.5 -48q2 -29 4.5 -59t2.5 -59q0 -36 -6.5 -71.5t-22.5 -67.5q-14 10 -26 19t-21 19.5t-14.5 24t-5.5 31.5q0 39 -3 78t-3 77q0 11 1 28t6 26v1q6 13 17.5 20t22.5 15z" />
    <glyph glyph-name="x" unicode="x" horiz-adv-x="409" 
d="M377 463l-8 5l-2 -9q-7 -4 -16 -4q-7 0 -14.5 5.5t-13.5 13.5t-10 17t-4 15l-2 4q-5 -14 -13 -26t-16 -23t-16 -23t-14 -25q-12 29 -26.5 47t-38.5 38q-3 8 -10.5 11t-12.5 9q-28 -38 -66 -67t-72 -61l5 -7q12 12 24 23t26 22q18 -8 28 -21t14.5 -28.5t5.5 -33.5t1 -34
q-30 -4 -52 -23t-22 -52v-16h10l1 -1q3 10 9 21q8 3 15.5 4t15.5 1q6 0 12 -0.5t12 -0.5q1 -12 1 -24v-24q0 -16 -1 -35.5t-9 -33.5q-11 2 -21 5t-21 3q-9 0 -21 -3.5t-22 -10t-17 -16t-7 -20.5t2 -16.5t10 -12.5q-1 4 -1 11l3 5l7 1q2 -1 5 -2t5 0q16 -8 27 -21.5t19 -28.5
q9 30 26 56t25 55q11 -28 24.5 -48.5t34.5 -42.5q9 -10 18.5 -17t18.5 -18q34 36 71.5 68.5t67.5 72.5l-5 5q-13 -13 -24 -26.5t-25 -24.5q-29 18 -44 42t-15 59q0 8 1 16t1 17q0 7 -1 11q70 19 70 91l-10 1h-1q-1 -7 -5 -16l-8 -7q-10 -2 -17.5 -4t-18.5 -2h-10
q0 12 -0.5 23.5t-0.5 22.5q0 17 2 30.5t6 29.5q7 -6 19 -13.5t22 -7.5q13 0 26 4t23 12t16 19.5t5 25.5z" />
    <glyph glyph-name="y" unicode="y" horiz-adv-x="433" 
d="M127 -148q26 2 52.5 8.5t49.5 20.5q28 17 58 43t54.5 57.5t41 66t18.5 69.5q0 9 0.5 18t0.5 19q0 26 -1 62.5t-5 74.5t-11 72.5t-19 57.5q-9 17 -21 35t-23 35v3q-11 -15 -27.5 -26.5t-35 -21.5t-37 -19.5t-33.5 -21.5q-1 21 -4.5 34t-9.5 23.5t-14.5 20.5t-19.5 25
q-32 -35 -67.5 -66t-64.5 -69l5 -3q8 12 18 21.5t21 19.5q11 -8 14.5 -12t3.5 -18v-13q-4 -42 -9.5 -80.5t-5.5 -80.5q0 -17 1.5 -33t1.5 -33q0 -29 -11.5 -38t-35.5 -15q35 -11 67 -33q21 -14 28 -30t19 -36q7 25 19.5 41t30 25.5t38 14.5t43.5 9q-30 7 -52.5 22.5
t-22.5 50.5q0 25 -0.5 49t-0.5 49v67q0 36 8 67q11 15 26 25.5t32 18.5q23 -16 32 -44t9 -54q0 -48 1.5 -94t1.5 -94q0 -46 -4 -93.5t-20 -87t-49.5 -66.5t-91.5 -32v-9z" />
    <glyph glyph-name="z" unicode="z" horiz-adv-x="280" 
d="M101 -155q20 0 39 13t35.5 33.5t30 46t23 52t15 50.5t5.5 41q0 38 -14.5 71t-34.5 64q7 9 13 19t9 21l-8 5q-5 -10 -11 -19.5t-14 -17.5q-19 15 -41.5 22.5t-46.5 8.5q16 14 35 27.5t35 29t26.5 34.5t10.5 43q0 20 -7 36.5t-17.5 31.5t-23.5 28.5t-24 28.5
q-14 -26 -36 -44.5t-42 -39.5q-14 -15 -25 -31t-24 -33l4 -5q9 11 17.5 21.5t16.5 21.5q29 -3 51 -26.5t22 -53.5q0 -18 -12.5 -35t-29 -33t-33.5 -30t-26 -27q1 -2 2 -5t3 -4l22 20t23 19l9 -4q2 0 5 -1.5l5 -2.5q11 -11 17.5 -24t11.5 -27q-18 -16 -36.5 -33.5t-33.5 -38
t-24.5 -43t-9.5 -48.5q0 -17 5.5 -44.5t17 -53.5t28 -45t37.5 -19zM128 19q0 -35 -2.5 -68t-8.5 -67q-2 -10 -8.5 -18t-17.5 -8q-16 0 -25 17.5t-13 41t-5 46.5t-1 34q0 27 3.5 49t12 40.5t22.5 35t35 34.5q5 -34 6.5 -68t1.5 -69z" />
    <glyph glyph-name="braceleft" unicode="{" 
d="M411 278q0 44 -17 83t-46 68t-68 46t-83 17t-83 -17t-68 -46t-46 -68t-17 -83t17 -83t46 -68t68 -46t83 -17t83 17t68 46t46 68t17 83zM263 270q0 -14 -7 -28.5t-18 -26.5t-25 -19.5t-28 -7.5t-25.5 10t-19.5 24.5t-12.5 30.5t-4.5 28q0 13 7 27.5t18.5 26.5t25 20
t27.5 8t25.5 -10t19.5 -24t12.5 -30.5t4.5 -28.5zM219 261q0 7 0.5 23t-0.5 32.5t-5.5 29t-14.5 12.5q-11 0 -17 -8.5t-9 -19.5t-4 -23t-1 -19v-18t0.5 -27t1.5 -25.5t3 -14.5q5 -9 14 -9q10 0 16.5 7.5t10 18.5t4.5 22t1 19z" />
    <glyph glyph-name="bar" unicode="|" 
d="M411 278q0 44 -17 83t-46 68t-68 46t-83 17t-83 -17t-68 -46t-46 -68t-17 -83t17 -83t46 -68t68 -46t83 -17t83 17t68 46t46 68t17 83zM234 210l-1 -3q-16 -14 -37 -14q-20 0 -34 14l1 1l-1 2q4 -3 7.5 -5.5t8.5 -4.5q1 20 0.5 40.5t-0.5 40.5v24t2 24q-5 -4 -11 -7.5
t-11 -8.5q0 2 -1 3q16 12 32.5 24t34.5 21q-1 -23 0 -44.5t1 -43.5q0 -19 -1.5 -37t-6.5 -36q5 2 9 4.5t8 5.5z" />
    <glyph glyph-name="braceright" unicode="}" 
d="M411 278q0 44 -17 83t-46 68t-68 46t-83 17t-83 -17t-68 -46t-46 -68t-17 -83t17 -83t46 -68t68 -46t83 -17t83 17t68 46t46 68t17 83zM270 258q0 -10 -6 -22t-15.5 -22.5t-21 -17.5t-21.5 -7q-9 0 -15.5 5.5t-12 12.5t-11 12.5t-13.5 5.5q-10 0 -12 -5.5t-1 -13.5
q-2 0 -4 2q-1 5 -1 15q0 21 13 32.5t28.5 20t27.5 17.5t11 26q-2 12 -8.5 22t-21.5 10q-5 0 -13 -3t-15.5 -8.5t-13 -12t-3.5 -12.5l1 -6l2 -2q0 11 8.5 20t20.5 9q6 0 9.5 -6t3.5 -11q0 -10 -9 -18t-19 -8q-8 0 -15 5.5t-7 14.5q0 10 7.5 18.5t18 15.5t22 11t20.5 4
q20 0 38.5 -16t18.5 -36q0 -21 -16 -27.5t-36.5 -10.5t-40.5 -12t-28 -32q8 11 21.5 16t26.5 5q11 0 19 -3.5t14 -7t11 -7t10 -3.5q11 0 18 11t5 21q2 2 4 0z" />
    <glyph glyph-name="asciitilde" unicode="~" horiz-adv-x="520" 
d="M489 303q-13 9 -25 19t-25 19q-7 -7 -17.5 -15.5t-22 -15.5t-23.5 -12t-22 -5q-26 0 -48.5 8.5t-43 19t-39 19.5t-34.5 9q-7 0 -15 -2t-15 -4q-40 -8 -79.5 -19.5t-70.5 -39.5q13 -10 26 -19t26 -19q17 17 39 31.5t48 14.5q20 0 43.5 -9t45.5 -19.5t39 -19t25 -8.5
q21 0 47 5.5t52 14.5t50 21t39 26z" />
    <glyph glyph-name="exclamdown" unicode="&#xa1;" 
d="M411 278q0 44 -17 83t-46 68t-68 46t-83 17t-83 -17t-68 -46t-46 -68t-17 -83t17 -83t46 -68t68 -46t83 -17t83 17t68 46t46 68t17 83zM389 278q0 -40 -15 -75t-41 -61t-61 -41t-75 -15t-75 15t-61 41t-41 61t-15 75t15 75t41 61t61 41t75 15t75 -15t61 -41t41 -61
t15 -75zM188 329v37l-6 -6v-37zM305 253l-3 1q-5 -10 -13 -18t-17 -14q-14 4 -20.5 9t-9 12t-2.5 16t-1 21q22 -2 34.5 12.5t15.5 34.5l-3 2q-2 -5 -6 -8q-8 -3 -16 -3q-7 0 -13 1t-13 1v4q0 12 1 24.5t7 23.5q2 -4 7.5 -7t10.5 -3q14 0 22 9t13 20l-2 3q-3 -4 -8 -4
q-9 0 -15 6.5t-8 14.5q-5 -11 -12.5 -20.5t-13.5 -20.5q-2 22 -13 35.5t-34 13.5q-9 0 -18 -3t-18 -6.5t-17.5 -6.5t-15.5 -3q-2 0 -4.5 0.5t-2.5 3.5q0 2 3 4.5t5 4.5l-2 2q-6 -6 -11 -13.5t-5 -15.5q0 -11 10 -14t18 -3q11 0 21 3.5t21 3.5t14 -8t3 -16t-0.5 -15t-0.5 -15
q-28 -2 -39.5 -18t-16.5 -41q1 0 2 -0.5t2 -0.5q4 11 13 15t20 4h19q0 -5 0.5 -10.5t0.5 -10.5q0 -18 -12 -33q-23 20 -50 20q-9 0 -19 -2t-19 -7t-14.5 -12.5t-5.5 -18.5t7 -23t18 -22.5t23 -17t23 -6.5q20 0 37.5 11t29.5 25l-3 2q-11 -11 -24 -19t-30 -8q-11 0 -24.5 4.5
t-25.5 12t-20 18t-8 22.5q0 7 5.5 10t11.5 3q17 0 31 -11t22 -25q8 16 22.5 26.5t23.5 24.5q6 -20 11.5 -27.5t10.5 -10.5t10.5 -5t12.5 -10q6 9 16 17.5t20 17.5t18.5 18t12.5 19z" />
    <glyph glyph-name="cent" unicode="&#xa2;" horiz-adv-x="1022" 
 />
    <glyph glyph-name="sterling" unicode="&#xa3;" horiz-adv-x="512" 
d="M481 620l-1 11q-44 29 -96 46q0 25 1 49t1 49q-5 2 -10 5q-1 -25 -2 -49.5t-3 -49.5q-21 6 -44.5 9.5t-45.5 3.5q-63 0 -113 -32t-85 -81.5t-54 -109t-19 -115.5q0 -57 15 -118t46.5 -112t80 -83.5t114.5 -32.5q23 0 43.5 3t42.5 5q-6 -33 -12.5 -66.5t-16.5 -65.5l12 5
q9 32 15 65t14 65q29 6 56 17t53 25q0 1 1 4t1 4v2q-26 -13 -52.5 -23.5t-55.5 -15.5q11 64 15 128t4 129q0 71 -2.5 141.5t-2.5 142.5q0 23 0.5 45t1.5 45q26 -8 50.5 -19.5t47.5 -25.5zM371 669q-2 -32 -2.5 -62.5t-0.5 -62.5q0 -66 1.5 -130.5t1.5 -130.5
q0 -64 -3 -126.5t-14 -125.5q-15 -3 -32 -3q-5 0 -14 0.5t-14 2.5q-13 5 -22 18t-15 29t-8.5 32.5t-3.5 28.5q-4 60 -7 118t-3 118v46t2.5 62.5t8.5 67.5t17 61t28 44.5t43 17.5q10 0 19 -1.5t18 -3.5z" />
    <glyph glyph-name="currency" unicode="&#xa4;" horiz-adv-x="568" 
d="M481 608q1 8 -4 16t-13 14t-17 10t-16 4q-24 0 -51 -13.5t-54.5 -36t-54 -50.5t-49.5 -56.5t-41.5 -55t-29.5 -45.5q-22 -2 -38 -4.5t-29 -8.5t-25.5 -16.5t-26.5 -27.5q23 2 46.5 3.5t46.5 2.5q-6 -13 -10.5 -27.5t-4.5 -29.5q0 -24 10 -52q-23 1 -45.5 2.5t-45.5 3.5
q7 -21 20 -42q23 -5 44.5 -10t44.5 -7q9 -21 23.5 -51t34 -62.5t43 -64.5t48.5 -57.5t51.5 -41.5t53.5 -16q16 0 32.5 10t19.5 27q-14 -15 -34 -15q-19 0 -37.5 16t-35.5 41t-32 55.5t-27.5 60.5t-21.5 55.5t-13 39.5q13 0 39 1.5t54 3.5t52.5 5.5t34.5 7.5q13 5 29 19.5
t24 25.5q-60 -5 -119 -7.5t-119 -2.5h-9q-2 9 -3.5 18.5t-1.5 19.5q0 17 6.5 38.5t12.5 38.5h12q55 0 110 -2t111 -6q-4 12 -11.5 21.5t-12.5 20.5q-45 11 -89.5 15.5t-89.5 4.5h-9q10 22 29.5 59.5t44.5 74t54 63.5t57 27q8 0 17 -6t15 -11z" />
    <glyph glyph-name="yen" unicode="&#xa5;" 
d="M411 278q0 44 -17 83t-46 68t-68 46t-83 17t-83 -17t-68 -46t-46 -68t-17 -83t17 -83t46 -68t68 -46t83 -17t83 17t68 46t46 68t17 83zM389 278q0 -40 -15 -75t-41 -61t-61 -41t-75 -15t-75 15t-61 41t-41 61t-15 75t15 75t41 61t61 41t75 15t75 -15t61 -41t41 -61
t15 -75zM216 281v56l-7 -6v-56zM280 290q0 10 -4.5 19.5t-9.5 18.5t-9.5 17t-4.5 17q0 10 9 14q-18 -3 -29.5 -16t-11.5 -32q0 -12 4.5 -22.5t10 -20t10 -18.5t4.5 -18t-8 -17q-17 15 -35 22q0 21 -1 41.5t-1 40.5q0 11 0.5 20.5t1.5 20.5q10 -3 20 -3q4 0 10 0.5t12 2.5
t10 5.5t4 8.5q0 9 -4.5 14t-9.5 11l-1 -3q4 -4 6 -6.5t4 -7.5q0 -3 -1 -4l-2 -1h-2q-6 0 -11.5 5.5t-12.5 12t-16 12t-21 5.5q-9 0 -21 -5t-22.5 -13.5t-17.5 -18.5t-7 -20q0 -14 12.5 -20t24.5 -6q11 0 21.5 3.5t20.5 8.5q0 -6 -0.5 -12.5t-0.5 -12.5l-18 -1l-5 1
q0 -7 -0.5 -13.5t-0.5 -13.5v-5l2 -1q5 0 11 0.5t11 0.5q0 -10 0.5 -19.5t0.5 -19.5v-6q-7 2 -13.5 3t-13.5 1q-8 0 -20.5 -3t-24.5 -8t-20.5 -13.5t-8.5 -18.5q0 -11 6.5 -24.5t16.5 -24.5t22.5 -18.5t23.5 -7.5q24 0 44 16t35 33l-2 1q-14 -15 -32.5 -25t-39.5 -10
q-11 0 -23 4t-22.5 11.5t-17.5 18t-7 22.5q0 8 7.5 12t14.5 4q8 0 19.5 -3t22 -8.5t18.5 -13t10 -16.5q9 14 23 24t27.5 20.5t23 23.5t9.5 34zM203 378q-1 -5 -1 -14q-9 -5 -19.5 -6.5t-21.5 -1.5q-9 0 -22 3t-13 15q0 10 8.5 19t19.5 9t24.5 -9.5t24.5 -14.5z" />
    <glyph glyph-name="section" unicode="&#xa7;" horiz-adv-x="474" 
d="M443 319q0 27 -19 54.5t-46 51.5t-56.5 43t-51.5 31l-46 24t-43 29q-20 18 -20 43q0 16 10.5 32t26.5 28.5t34 20t33 7.5q29 0 49 -16t32 -40q-19 2 -36.5 -9t-17.5 -32q0 -29 22.5 -50t50.5 -21q39 0 39 39q0 14 -9 33.5t-22.5 38.5t-29 34.5t-27.5 22.5q-23 13 -49 13
q-33 0 -67.5 -17.5t-63 -45t-46.5 -61.5t-18 -67q0 -20 9.5 -38t24.5 -32q-17 -12 -34 -28.5t-31 -35.5t-22.5 -40t-8.5 -43q0 -37 22.5 -68t57 -57.5t74.5 -48.5t75 -41t59.5 -36t26.5 -33q0 -2 0.5 -4t0.5 -4q0 -20 -12.5 -38.5t-31.5 -32.5t-40.5 -22.5t-40.5 -8.5
q-40 0 -64 18.5t-46 47.5q12 -5 22 -5q25 0 36.5 14t11.5 37q0 14 -7 26.5t-18.5 21.5t-25 14t-26.5 5q-19 0 -30 -9t-11 -29q0 -14 6 -29t14.5 -30t19 -28.5t19.5 -23.5q18 -20 43.5 -32.5t52.5 -12.5q29 0 55 10t49 26.5t42.5 37.5t35.5 43q13 17 20.5 36.5t16.5 38.5v8
q0 21 -4 34t-12.5 22t-20.5 16.5t-27 18.5q35 27 62.5 64.5t27.5 84.5zM384 244q0 -13 -7 -24t-16 -20t-16.5 -14.5t-8.5 -7.5q-13 6 -35.5 17t-50 24.5t-56.5 29t-53.5 30.5t-41.5 29.5t-21 26.5q-2 5 -2 10t-2 10l1 3q3 15 6 24t7.5 15.5t12 12.5t19.5 15
q49 -32 100.5 -59.5t103.5 -54.5q9 -5 19.5 -11.5t19.5 -15t15 -19t6 -21.5z" />
    <glyph glyph-name="dieresis" unicode="&#xa8;" 
d="M411 278q0 44 -17 83t-46 68t-68 46t-83 17t-83 -17t-68 -46t-46 -68t-17 -83t17 -83t46 -68t68 -46t83 -17t83 17t68 46t46 68t17 83zM389 278q0 -40 -15 -75t-41 -61t-61 -41t-75 -15t-75 15t-61 41t-41 61t-15 75t15 75t41 61t61 41t75 15t75 -15t61 -41t41 -61
t15 -75zM311 293q0 17 -8 38t-21.5 39t-30.5 30.5t-36 12.5q-14 0 -28 -4.5t-26 -10t-22.5 -10t-16.5 -4.5l-2 3v3q0 2 3 5l-2 -1q-9 -11 -9 -19q0 -9 10 -11.5t17 -2.5q16 0 31 3.5t30 5.5q-15 -8 -30.5 -24.5t-15.5 -34.5q0 -16 9 -27.5t16 -24.5q0 -2 1 -4.5t1 -4.5
q0 -8 -5 -15q-9 0 -22 -1.5t-24.5 -6t-19.5 -12t-8 -20.5q0 -11 7.5 -23t18.5 -22t24 -16t24 -6q20 0 38 11t32 25q2 4 4.5 6t4.5 5l-2 2q-4 -9 -13 -16t-19.5 -12t-21.5 -7.5t-20 -2.5q-11 0 -23.5 4t-23.5 11t-18.5 17t-7.5 22q0 9 8 13.5t16 4.5q18 0 40.5 -10t29.5 -28
q15 15 34 26t36.5 23t29 28t11.5 43zM238 361q21 -21 28 -39t7 -47q0 -20 -5 -34t-20 -28q-2 2 -5 3.5t-5 3.5q2 27 0.5 54.5t-1.5 54.5q0 8 0.5 16t0.5 16zM235 362q-3 -35 -1 -69.5t0 -69.5q-24 10 -51 12q5 8 10.5 13t10.5 10.5t8 12.5t3 20q0 19 -10 32.5t-10 27.5
q0 19 19 19q5 0 10.5 -2.5t10.5 -5.5zM249 293v17l-6 -6v-17z" />
    <glyph glyph-name="copyright" unicode="&#xa9;" 
d="M411 278q0 44 -17 83t-46 68t-68 46t-83 17t-83 -17t-68 -46t-46 -68t-17 -83t17 -83t46 -68t68 -46t83 -17t83 17t68 46t46 68t17 83zM389 278q0 -40 -15 -75t-41 -61t-61 -41t-75 -15t-75 15t-61 41t-41 61t-15 75t15 75t41 61t61 41t75 15t75 -15t61 -41t41 -61
t15 -75zM302 243l-2 1q-11 -13 -22 -19t-26 -12q3 24 3 48q0 26 -2 53t0 53q4 -1 7 -0.5t7 0.5q10 4 16.5 8.5t10.5 15.5l-3 3l-4 -6t-6 -3q-14 0 -24 10t-9 24q-11 -11 -24.5 -18.5t-26 -16t-21 -20.5t-8.5 -31q0 -17 7.5 -28.5t16 -21t16 -17.5t7.5 -16q0 -2 -1.5 -6
t-2.5 -7q-9 5 -18 8t-19 3h-5q-11 12 -16.5 30.5t-5.5 34.5q0 28 18 55.5t47 34.5v3q-19 -4 -38.5 -15t-35 -26t-25.5 -34t-10 -39q0 -17 6 -32t14 -29q-7 -5 -10 -10.5t-3 -14.5q0 -11 6.5 -23t17 -22.5t23 -17.5t23.5 -7q18 0 37.5 11t29.5 26l-2 1q-14 -13 -27 -20
t-33 -7q-11 0 -23.5 4.5t-23 12.5t-17.5 18.5t-7 22.5q0 8 3.5 13t8.5 10q17 -19 34 -31.5t46 -12.5q30 0 54.5 18t41.5 41zM250 367q-2 -28 -0.5 -55t1.5 -55q0 -23 -3 -45q-4 0 -7.5 -0.5t-6.5 -0.5q-18 0 -34.5 9.5t-27.5 22.5h2q10 0 17.5 -5t12.5 -12q14 12 24 28
t10 36q0 15 -6.5 26.5t-14 21.5t-13.5 19t-6 18q0 3 4.5 8t6.5 7q6 -6 10.5 -9t8.5 -5.5t9 -4t13 -4.5zM241 339v16l-6 -6v-16z" />
    <glyph glyph-name="ordfeminine" unicode="&#xaa;" 
d="M411 278q0 44 -17 83t-46 68t-68 46t-83 17t-83 -17t-68 -46t-46 -68t-17 -83t17 -83t46 -68t68 -46t83 -17t83 17t68 46t46 68t17 83zM389 278q0 -40 -15 -75t-41 -61t-61 -41t-75 -15t-75 15t-61 41t-41 61t-15 75t15 75t41 61t61 41t75 15t75 -15t61 -41t41 -61
t15 -75zM309 290q0 18 -7 39.5t-19.5 40t-29.5 31t-38 12.5q-16 0 -31 -7.5t-27 -7.5q-4 0 -4 5q0 2 2 4t4 3l-2 1q-4 -4 -9 -9.5t-5 -11.5q0 -8 6 -11.5t12 -6.5q-25 -14 -47.5 -33.5t-22.5 -50.5q0 -26 12.5 -43.5t27.5 -34.5q-3 -5 -5.5 -10.5t-2.5 -11.5q0 -10 5.5 -20
t14.5 -17.5t19.5 -12.5t20.5 -5q25 0 44 13.5t34 31.5q14 6 23 15t17 22h-2q-3 -4 -8 -8t-10 -4q-4 0 -6.5 3t-4.5 5q17 19 28 35.5t11 43.5zM192 368q42 0 66 -27t24 -69q0 -15 -4 -30t-15 -26q-4 2 -7.5 3t-8.5 1q-16 0 -25.5 -9.5t-18.5 -20.5l3 -1q3 2 6 5t8 3
q6 0 11 -7q-5 -2 -11.5 -3.5t-12.5 -1.5q-18 0 -29 8.5t-21 22.5q11 0 21 -1.5t18 -10.5l-4 -4l2 -3q7 6 15.5 14t16 17.5t12.5 20t5 19.5q0 15 -6 26t-13 20t-13 17.5t-6 18.5q0 4 2 7t3 6q-17 -10 -26.5 -24t-9.5 -34q0 -10 6 -23.5t14 -20.5v-1q5 -6 12 -12.5t7 -15.5
q0 -4 -2.5 -8t-4.5 -7q-5 2 -12.5 4t-13.5 2q-14 0 -26 -3q-8 18 -13.5 35t-5.5 38q0 25 7 42t23 36q7 -1 13.5 -2t13.5 -1zM257 177q-15 -15 -33 -23.5t-40 -8.5q-21 0 -37 11.5t-20 32.5q1 4 2.5 9.5t5.5 7.5q14 -11 30 -18t33 -7q9 0 18 1t17 6q7 -11 22 -11h2zM167 291
v30l-6 -6v-30z" />
    <glyph glyph-name="guillemotleft" unicode="&#xab;" horiz-adv-x="376" 
d="M344 402l-9 5q-12 -27 -31.5 -48.5t-42.5 -39t-47.5 -33.5t-47.5 -33q17 -10 42 -24t47.5 -31t38.5 -37.5t16 -43.5q0 -5 -2 -15q2 1 6 1.5t6 2.5q13 22 13 50q0 26 -10 51.5t-26 46.5q20 32 34 67.5t13 73.5v7zM232 432q-2 0 -5 0.5t-5 0.5h-4q-44 -57 -98 -98t-111 -83
q23 -14 51.5 -32.5t54.5 -40t45 -47t23 -54.5q3 -1 9 -1q5 0 7 1q1 5 1 8v9q0 44 -19.5 83.5t-44.5 74.5q55 84 96 179z" />
    <glyph glyph-name="logicalnot" unicode="&#xac;" 
d="M411 278q0 44 -17 83t-46 68t-68 46t-83 17t-83 -17t-68 -46t-46 -68t-17 -83t17 -83t46 -68t68 -46t83 -17t83 17t68 46t46 68t17 83zM389 278q0 -40 -15 -75t-41 -61t-61 -41t-75 -15t-75 15t-61 41t-41 61t-15 75t15 75t41 61t61 41t75 15t75 -15t61 -41t41 -61
t15 -75zM257 300v71l-6 -6v-71zM310 382l-3 2l-2 -5l-5 -1q-11 5 -18 15t-21 10q-15 0 -23.5 -13t-10.5 -26q-3 18 -18 31.5t-34 13.5q-10 0 -19 -4t-18 -8.5t-18 -8.5t-18 -5l-1 5l3 6l-2 -1q-4 -5 -7 -10.5t-3 -11.5q0 -8 7 -11.5t15 -3.5q11 0 22 3t22 3q17 0 26 -14
t9 -28q0 -9 -2.5 -20t-8 -20.5t-13.5 -15.5t-19 -6q-14 0 -22 11h2q14 0 22 5.5t8 20.5q0 9 -6 16t-15 7q-11 0 -20 -8t-9 -19q0 -17 14.5 -27.5t29.5 -10.5q32 0 47.5 18.5t22 41.5t8.5 43t7 23q1 0 2 0.5t2 0.5q3 0 6.5 -3.5t8.5 -7.5t11 -7.5t14 -3.5q25 0 27 24z
M202 127q18 0 38.5 11t38.5 27.5t30 37t12 38.5q0 13 -4.5 26t-10.5 24.5t-10.5 22.5t-4.5 21q0 11 4 15t12 9l-2 3q-19 -8 -32 -25t-13 -37q0 -23 9.5 -44.5t9.5 -43.5q0 -14 -8 -27t-20.5 -24t-27 -17.5t-27.5 -6.5q-17 0 -27 9.5t-15 25.5l-3 -1q5 -18 18 -31t33 -13z
M248 372l-3 1h-1q-1 -13 -1.5 -25.5t-0.5 -25.5q0 -24 1 -48.5t0 -48.5q-3 -3 -6 -5t-6 -5q-13 12 -26 16t-30 4q-10 0 -23.5 -2.5t-25.5 -8.5t-20.5 -14.5t-8.5 -20.5q0 -13 11 -26t25 -13v2v1q-13 2 -22.5 12t-9.5 23q0 10 8.5 14t16.5 4q18 0 37 -7.5t24 -26.5
q12 18 29 27t31 24v25q1 32 -0.5 62.5t1.5 61.5z" />
    <glyph glyph-name="registered" unicode="&#xae;" 
d="M411 278q0 44 -17 83t-46 68t-68 46t-83 17t-83 -17t-68 -46t-46 -68t-17 -83t17 -83t46 -68t68 -46t83 -17t83 17t68 46t46 68t17 83zM389 278q0 -40 -15 -75t-41 -61t-61 -41t-75 -15t-75 15t-61 41t-41 61t-15 75t15 75t41 61t61 41t75 15t75 -15t61 -41t41 -61
t15 -75zM230 256v38l-6 -6v-38zM335 230l-2 2q-8 -6 -11 -10q-7 4 -8.5 10t-1.5 13q0 25 -10.5 39t-33.5 23q14 5 25 15.5t11 26.5q0 15 -9 29.5t-12 28.5q-17 -8 -32 -16t-29 -21q-7 19 -16.5 31t-32.5 12q-22 0 -40 -11t-39 -14l-1 7l4 4h-2q-4 -3 -10 -11t-6 -13
q0 -9 9.5 -12.5t16.5 -3.5q11 0 20.5 2.5t20.5 2.5q20 0 29.5 -12t9.5 -32t-9.5 -39t-33.5 -19q-9 0 -16.5 5t-12.5 13l10 -6t11 -3q12 0 19.5 10t7.5 21q0 10 -7.5 17.5t-17.5 7.5q-12 0 -23 -9.5t-11 -22.5q0 -17 14.5 -27.5t30.5 -10.5t30 8t24.5 20t17 27.5t6.5 30.5
q0 5 -1 10.5t-1 11.5q8 10 17 15q-2 -17 -3 -33.5t-1 -33.5l-4 -1q-3 -3 -3 -4l1 -4q2 -2 6 -2q0 -14 1 -29t1 -29l-1 -15q-3 -3 -6.5 -5.5t-6.5 -5.5q-11 13 -26.5 19.5t-32.5 6.5q-10 0 -23 -3t-24 -9.5t-19 -16t-8 -21.5t6 -23.5t15.5 -20.5t21.5 -14.5t24 -5.5
q22 0 43 11.5t35 27.5l-3 2q-11 -15 -29.5 -22.5t-37.5 -7.5q-10 0 -22.5 3t-23.5 9t-18.5 15t-7.5 21q0 13 8.5 19t20.5 6q18 0 35 -10t25 -26q12 16 28 25.5t30 23.5q0 6 0.5 11.5t0.5 11.5q0 13 -0.5 25.5t-1.5 26.5q4 0 7 0.5t7 0.5q9 -5 11 -14.5t2 -19.5
q0 -21 -2 -38.5t12 -34.5q2 -2 3.5 -4.5t3.5 -4.5q11 8 26 21t25 22zM279 324q-2 -5 -8 -10.5t-11 -5.5t-10 1.5t-10 2.5v8q0 16 1 31.5t3 31.5q10 -14 21.5 -28t13.5 -31z" />
    <glyph glyph-name="macron" unicode="&#xaf;" horiz-adv-x="380" 
d="M349 409l-18 20t-16 21q-33 -30 -68 -58t-67 -58q-57 52 -101 118q-13 -11 -25.5 -20.5t-25.5 -20.5q23 -33 50.5 -63t56.5 -58q-29 -32 -61 -60t-65 -56q19 -20 33 -42q35 29 70 57t70 58q27 -28 54.5 -56t44.5 -63q14 11 28 21.5t27 22.5q-26 31 -53.5 61t-57.5 57
q29 32 60.5 61t63.5 58z" />
    <glyph glyph-name="degree" unicode="&#xb0;" horiz-adv-x="329" 
d="M297 597q0 22 -11.5 47.5t-30 47t-42 35.5t-46.5 14q-26 0 -52 -12t-48.5 -31.5t-38 -44.5t-19.5 -51q4 -21 15.5 -45.5t28.5 -46t39 -35.5t46 -14q22 0 49.5 12.5t52 32.5t41 44t16.5 47zM240 600q0 -18 -7.5 -33.5t-20 -27t-29 -18t-33.5 -6.5q-16 0 -31.5 7t-27.5 19
t-19.5 27.5t-7.5 31.5q0 18 7.5 33.5t20.5 27.5t29.5 19t33.5 7q16 0 31.5 -7.5t27.5 -19.5t19 -28t7 -32z" />
    <glyph glyph-name="plusminus" unicode="&#xb1;" 
d="M411 278q0 44 -17 83t-46 68t-68 46t-83 17t-83 -17t-68 -46t-46 -68t-17 -83t17 -83t46 -68t68 -46t83 -17t83 17t68 46t46 68t17 83zM389 278q0 -40 -15 -75t-41 -61t-61 -41t-75 -15t-75 15t-61 41t-41 61t-15 75t15 75t41 61t61 41t75 15t75 -15t61 -41t41 -61
t15 -75zM310 279q0 12 -5 26t-13.5 25.5t-20.5 19.5t-25 8q-11 0 -20 -6t-14 -17q-8 8 -16 18t-8 22q0 5 2.5 10t5.5 8q9 -8 20 -12.5t23 -4.5q29 0 47 24l-3 3q-3 -5 -10 -5q-12 0 -22 7.5t-14 19.5q-12 -10 -25.5 -18.5t-25.5 -18.5t-20 -22.5t-8 -31.5q0 -17 7 -29.5
t16 -23t16 -19t7 -17.5q0 -11 -10 -19q-16 13 -38 13q-5 0 -8 -1q-6 14 -9.5 34t-3.5 35q0 35 16 64t50 41l-1 3q-18 -5 -38 -16t-37 -26.5t-28 -34.5t-11 -40t10 -39t23 -34l-8 -8t-4 -11q0 -12 6.5 -23.5t17 -21t22.5 -15.5t24 -6q23 0 44.5 14t35.5 32q-1 0 -1.5 0.5
t-1.5 0.5q-14 -16 -32.5 -25t-40.5 -9q-10 0 -22 4t-22.5 10.5t-17.5 16t-7 21.5q0 5 3 9.5t7 7.5q17 -18 35.5 -26.5t42.5 -8.5q18 0 37.5 7t35.5 19.5t26.5 29.5t10.5 36zM239 352q7 1 11.5 -9t6.5 -24t3 -27.5t1 -17.5q0 -14 -3.5 -28.5t-10.5 -26.5t-18.5 -19.5
t-27.5 -7.5q-20 0 -31.5 13t-19.5 29h3q10 0 19 -6t11 -16q17 12 35 28t18 40q0 31 -21 52q7 16 24 20zM244 323v20l-6 -6v-20z" />
    <glyph glyph-name="twosuperior" unicode="&#xb2;" horiz-adv-x="1022" 
 />
    <glyph glyph-name="threesuperior" unicode="&#xb3;" horiz-adv-x="1022" 
 />
    <glyph glyph-name="acute" unicode="&#xb4;" 
d="M411 278q0 44 -17 83t-46 68t-68 46t-83 17t-83 -17t-68 -46t-46 -68t-17 -83t17 -83t46 -68t68 -46t83 -17t83 17t68 46t46 68t17 83zM389 278q0 -40 -15 -75t-41 -61t-61 -41t-75 -15t-75 15t-61 41t-41 61t-15 75t15 75t41 61t61 41t75 15t75 -15t61 -41t41 -61
t15 -75zM325 259q0 11 -5 20t-13 15.5t-17.5 12t-18.5 8.5q13 3 25.5 11t12.5 23q0 10 -4.5 18t-10 15.5t-11 14.5t-8.5 15q-3 -5 -9.5 -9t-14 -8.5t-14.5 -10.5t-11 -13q-8 17 -18.5 30t-31.5 13q-11 0 -21 -3.5t-19.5 -8.5t-19 -9.5t-19.5 -6.5l-4 1q1 7 4 9t6 6l2 1l-1 1
q-5 -4 -12 -11t-7 -14q0 -10 8 -13t16 -3q11 0 22.5 2t22.5 2q23 0 30.5 -16t7.5 -35t-9.5 -36t-31.5 -17q-20 0 -30 15q7 -3 15 -3q11 0 18.5 9t7.5 20q0 9 -6.5 17t-16.5 8q-13 0 -23 -8t-10 -22q0 -17 14.5 -29t31.5 -12q16 0 30.5 7.5t24.5 19.5t16 27.5t6 30.5v10
q0 6 -1 11q4 12 17 20q-2 -14 -3 -28.5t0 -28.5v-5l-6 -3l-1 -3v-3l7 -3q0 -13 0.5 -25.5t0.5 -25.5q0 -17 -1 -35t-6 -35q-8 0 -12.5 9.5t-11 21t-18 21t-32.5 9.5q-9 0 -21.5 -3t-23.5 -8.5t-18.5 -14.5t-7.5 -21q0 -13 7.5 -25t19 -21.5t25.5 -15t26 -5.5q20 0 42.5 11
t35.5 26l-2 2q-28 -28 -72 -28q-11 0 -24.5 3t-25.5 9.5t-20 16.5t-8 25q0 12 9 19t20 7q10 0 18 -7t17 -15.5t22.5 -15.5t35.5 -7q14 0 32.5 6t35.5 16.5t28.5 24.5t11.5 30zM282 340q0 -9 -5 -14.5t-13 -8.5l-18 4v5q-1 14 0 28.5t2 28.5q8 -6 21 -19t13 -24zM279 257
q0 -20 -8 -42t-30 -26q7 32 7 72q0 12 -0.5 24t-1.5 25q5 1 8.5 2t8.5 1q8 -7 12 -26t4 -30zM260 263v17l-6 -6v-17z" />
    <glyph glyph-name="mu" unicode="&#xb5;" 
d="M411 278q0 44 -17 83t-46 68t-68 46t-83 17t-83 -17t-68 -46t-46 -68t-17 -83t17 -83t46 -68t68 -46t83 -17t83 17t68 46t46 68t17 83zM389 278q0 -40 -15 -75t-41 -61t-61 -41t-75 -15t-75 15t-61 41t-41 61t-15 75t15 75t41 61t61 41t75 15t75 -15t61 -41t41 -61
t15 -75zM228 274l-6 -6l-1 -28l6 6zM309 234l-3 2q-3 -4 -6.5 -7t-6.5 -6q-6 2 -6 7q-1 3 0 6t0 6q1 10 -4 16.5t-13 11t-16.5 7t-15.5 4.5q14 5 28 13t14 25q0 14 -9 26t-16 23q-15 -12 -34 -23t-36 -21q-8 8 -15.5 18.5t-7.5 22.5q0 11 9 20q18 -15 43 -15q17 0 31 8
t25 22l-3 2v1q-6 -7 -17 -7q-9 0 -20.5 5.5t-11.5 16.5v5q-11 -12 -26.5 -21.5t-29.5 -20.5t-24 -24.5t-10 -33.5q0 -17 8 -30.5t17 -24t17 -19t8 -15.5q0 -5 -4 -9q-13 9 -27.5 14.5t-30.5 5.5q-8 0 -18.5 -2.5t-19.5 -7t-15.5 -12t-6.5 -17.5q0 -11 7.5 -23.5t18.5 -23
t24.5 -17t24.5 -6.5q21 0 39 10.5t34 23.5l-3 3q-13 -12 -31.5 -19t-35.5 -7q-11 0 -24 4.5t-24 13t-19 19t-8 22.5q0 8 7 10.5t13 2.5q18 0 37 -12.5t21 -31.5q6 14 17 24.5l22 21t19 22t8 28.5q0 14 -4 25.5t-11 22.5q6 5 12.5 9t12.5 9q1 -14 0.5 -26.5t0.5 -26.5l-6 -2
v-4q0 -1 0.5 -1.5t0.5 -1.5l3 -3h2v-20q1 -33 -6 -64h4q4 16 6 32t1 33l-1 20l12 3q11 -6 11 -19q0 -10 -2 -19.5t-2 -20.5q0 -9 1.5 -13.5t4 -7.5t6 -5.5t6.5 -8.5q11 11 28 26t26 26zM249 298q0 -8 -7 -11t-12 -5q-3 1 -6 1t-6 1q0 8 -0.5 15.5t-0.5 15.5v14v10
q3 -3 8 -8.5t10.5 -11.5t9.5 -12t4 -9z" />
    <glyph glyph-name="paragraph" unicode="&#xb6;" horiz-adv-x="512" 
d="M481 620l-1 11q-44 29 -96 46q0 25 1 49t1 49q-5 2 -10 5q-1 -25 -2 -49.5t-3 -49.5q-21 6 -44.5 9.5t-45.5 3.5q-63 0 -113 -32t-85 -81.5t-54 -109t-19 -115.5q0 -57 15 -118t46.5 -112t80 -83.5t114.5 -32.5q23 0 43.5 3t42.5 5q-6 -33 -12.5 -66.5t-16.5 -65.5l12 5
q9 32 15 65t14 65q29 6 56 17t53 25q0 1 1 4t1 4v2q-26 -13 -52.5 -23.5t-55.5 -15.5q11 64 15 128t4 129q0 71 -2.5 141.5t-2.5 142.5q0 23 0.5 45t1.5 45q26 -8 50.5 -19.5t47.5 -25.5zM371 669q-2 -32 -2.5 -62.5t-0.5 -62.5q0 -66 1.5 -130.5t1.5 -130.5
q0 -64 -3 -126.5t-14 -125.5q-15 -3 -32 -3q-5 0 -14 0.5t-14 2.5q-13 5 -22 18t-15 29t-8.5 32.5t-3.5 28.5q-4 60 -7 118t-3 118v46t2.5 62.5t8.5 67.5t17 61t28 44.5t43 17.5q10 0 19 -1.5t18 -3.5zM419 639l-18 -18v-565l18 18v565z" />
    <glyph glyph-name="periodcentered" unicode="&#xb7;" horiz-adv-x="158" 
d="M127 289q0 9 -5 18.5t-12.5 17.5t-17 13.5t-18.5 5.5q-10 0 -21.5 -4.5t-21 -12.5t-16 -18t-6.5 -21q0 -8 5 -17.5t13 -17.5t17.5 -13.5t17.5 -5.5q10 0 21.5 4.5t21 12t16 17.5t6.5 21z" />
    <glyph glyph-name="periodcentered" unicode="&#x2219;" horiz-adv-x="158" 
d="M127 289q0 9 -5 18.5t-12.5 17.5t-17 13.5t-18.5 5.5q-10 0 -21.5 -4.5t-21 -12.5t-16 -18t-6.5 -21q0 -8 5 -17.5t13 -17.5t17.5 -13.5t17.5 -5.5q10 0 21.5 4.5t21 12t16 17.5t6.5 21z" />
    <glyph glyph-name="cedilla" unicode="&#xb8;" horiz-adv-x="1022" 
 />
    <glyph glyph-name="onesuperior" unicode="&#xb9;" horiz-adv-x="1022" 
 />
    <glyph glyph-name="ordmasculine" unicode="&#xba;" 
d="M411 278q0 44 -17 83t-46 68t-68 46t-83 17t-83 -17t-68 -46t-46 -68t-17 -83t17 -83t46 -68t68 -46t83 -17t83 17t68 46t46 68t17 83zM389 278q0 -40 -15 -75t-41 -61t-61 -41t-75 -15t-75 15t-61 41t-41 61t-15 75t15 75t41 61t61 41t75 15t75 -15t61 -41t41 -61
t15 -75zM294 260q0 23 -18.5 39.5t-40.5 16.5q-8 0 -14.5 -2t-13.5 -4q1 15 1 30q0 16 2 32q13 -5 23 -5q12 0 25 5.5t17 18.5l-2 2q-2 -8 -11 -8q-11 0 -20 10t-10 21q-10 -12 -30 -18.5t-39.5 -13t-34 -17.5t-14.5 -33q0 -17 14.5 -26.5t30.5 -9.5q23 0 44 6q0 -17 1 -33
t1 -33q0 -12 -1 -24t-3 -23q-6 12 -9.5 23t-9 20t-16 14.5t-29.5 5.5q-9 0 -20.5 -3t-21 -8.5t-16 -13.5t-6.5 -19q0 -12 7 -25.5t18.5 -24.5t25 -18.5t25.5 -7.5q21 0 36 10t31 23l-3 1q-10 -11 -26 -16.5t-30 -5.5q-13 0 -27 4t-26 12.5t-19.5 20t-7.5 26.5q0 9 6.5 17
t16.5 8t18 -8t17 -17.5t22 -17.5t35 -8q14 0 32 6t33.5 16t26 24t10.5 31zM206 374q-3 -33 -3 -65q-2 0 -5 -1t-5 -1q-14 0 -21.5 11.5t-7.5 23.5q0 18 6.5 28t18.5 21q4 -5 8 -9.5t9 -7.5zM247 247q0 -8 -2.5 -18t-7 -19t-11.5 -15.5t-16 -6.5q-2 0 -3 0.5t-3 0.5
q2 12 3.5 24t1.5 24v13q0 14 -1 27.5t-1 27.5q2 1 4 1q3 0 5 2q18 -6 24.5 -25t6.5 -36zM220 238v53l-6 -6v-53z" />
    <glyph glyph-name="guillemotright" unicode="&#xbb;" horiz-adv-x="377" 
d="M346 258q-29 17 -56 34t-49.5 37t-40.5 45.5t-29 59.5q-3 0 -6.5 -0.5t-6.5 -0.5v-10q-2 -46 16 -88.5t46 -77.5q-27 -44 -52 -88.5t-46 -91.5l14 -1q42 56 97.5 99.5t112.5 82.5zM189 257q-17 9 -41 23.5t-47 32.5t-39 38.5t-16 42.5v8t1 8q-2 -1 -6.5 -2t-6.5 -3
q-3 -3 -5 -9.5t-3.5 -14t-2.5 -15t-1 -11.5q0 -27 10 -52t26 -46q-18 -31 -33.5 -64t-15.5 -70q0 -3 0.5 -6.5t0.5 -6.5q3 -2 5.5 -2.5t4.5 -3.5q3 7 5 14t7 14q14 20 33 36.5t40 31.5t43 28.5t41 28.5z" />
    <glyph glyph-name="onequarter" unicode="&#xbc;" horiz-adv-x="1022" 
 />
    <glyph glyph-name="onehalf" unicode="&#xbd;" horiz-adv-x="1022" 
 />
    <glyph glyph-name="threequarters" unicode="&#xbe;" horiz-adv-x="1022" 
 />
    <glyph glyph-name="questiondown" unicode="&#xbf;" 
d="M411 278q0 44 -17 83t-46 68t-68 46t-83 17t-83 -17t-68 -46t-46 -68t-17 -83t17 -83t46 -68t68 -46t83 -17t83 17t68 46t46 68t17 83zM389 278q0 -40 -15 -75t-41 -61t-61 -41t-75 -15t-75 15t-61 41t-41 61t-15 75t15 75t41 61t61 41t75 15t75 -15t61 -41t41 -61
t15 -75zM277 283v37l-6 -6v-37zM333 380l-2 2l-2 -4q-4 -4 -9 -4q-6 0 -12 4.5t-12.5 10t-15 10t-19.5 4.5q-18 0 -34 -11.5t-26 -25.5q-4 7 -7 14t-7 12t-10.5 8t-17.5 3t-22.5 -4t-23 -9t-21 -9t-15.5 -4l1 4q2 2 4 5.5t4 5.5q0 1 -1 1q-2 0 -5.5 -4t-6.5 -9.5t-5.5 -11
t-2.5 -7.5q0 -7 8 -9t13 -2q11 0 22 3t22 3q17 0 25 -14.5t8 -28.5q0 -10 -2 -20.5t-7 -19.5t-13 -14.5t-20 -5.5q-20 0 -29 16q8 -6 14 -6q12 0 18.5 8.5t6.5 19.5q0 8 -5.5 15t-14.5 7q-12 0 -21 -9t-9 -21q0 -17 15.5 -26.5t30.5 -9.5q18 0 32 9t23.5 23.5t15 31.5
t5.5 33q0 4 -0.5 8t-0.5 8q5 8 11 14.5t17 7.5q7 1 13 -3.5t13 -10t15 -10.5t19 -5q14 0 26.5 6.5t16.5 20.5zM359 264q0 13 -6 23.5t-13.5 19.5t-13.5 17.5t-6 16.5q0 7 3 10.5t8 7.5l-1 2q-16 -8 -27.5 -19t-11.5 -31q0 -12 6 -23t13 -20.5t13 -18t6 -16.5q0 -11 -9 -17.5
t-17 -11.5q-28 19 -32.5 42.5t-4.5 55.5q0 10 1 27t6 25q-30 -8 -42.5 -25t-12.5 -48q0 -13 2 -25t3 -25q-5 -6 -9.5 -11.5t-10.5 -9.5q-9 11 -26 16.5t-31 5.5q-10 0 -22.5 -2.5t-23.5 -8t-18.5 -14t-7.5 -20.5t6.5 -23t16.5 -20t22 -14.5t23 -5.5q23 0 44 13.5t37 28.5
l-2 2h-1q-15 -14 -30.5 -22.5t-37.5 -8.5q-9 0 -22 2.5t-24.5 8t-19.5 14.5t-8 21q0 11 9 16t18 5q8 0 17 -2.5t17 -7.5t13.5 -11.5t6.5 -15.5q15 19 33.5 30t31.5 28q8 -14 13.5 -23.5t16.5 -21.5q2 -2 3 -4t2 -5q12 10 29 19t32.5 20t27 24t11.5 30z" />
    <glyph glyph-name="Agrave" unicode="&#xc0;" 
d="M411 278q0 44 -17 83t-46 68t-68 46t-83 17t-83 -17t-68 -46t-46 -68t-17 -83t17 -83t46 -68t68 -46t83 -17t83 17t68 46t46 68t17 83zM389 278q0 -40 -15 -75t-41 -61t-61 -41t-75 -15t-75 15t-61 41t-41 61t-15 75t15 75t41 61t61 41t75 15t75 -15t61 -41t41 -61
t15 -75zM195 171q12 0 25 7.5t24.5 18.5t19 24t7.5 25q0 21 -17 33.5t-34 18.5q12 5 26.5 13t14.5 25q0 9 -4 19.5t-11 18.5t-16.5 13.5t-19.5 5.5q-9 0 -20.5 -5.5t-21 -14t-16.5 -19t-7 -19.5q0 -8 6 -12.5t14 -4.5t12 2t6.5 4.5t5 5.5t6.5 5q0 2 1 4.5t1 4.5
q0 5 -4.5 10.5t-10.5 5.5q-8 0 -18 -8.5t-10 -16.5l1 -7q-6 4 -7 8l2 3l-1 2q5 15 20.5 30.5t32.5 15.5q7 0 11 -4.5t6.5 -10.5t3.5 -13t1 -12q0 -23 -8 -33t-17.5 -14.5t-19 -7t-12.5 -9.5l6 -4q2 1 12 6.5t12 7.5q9 0 15 -5t9 -12.5t4.5 -16.5t1.5 -16q0 -9 -2 -20.5
t-6.5 -21.5t-12 -17t-19.5 -7q-8 0 -15.5 5.5t-14 14t-10.5 17.5t-4 16q0 4 2.5 7.5t4.5 5.5q-1 -8 4.5 -20t16.5 -12q6 0 13 4.5t6 12.5l1 1q0 11 -8.5 18t-19.5 7q-8 0 -16 -6t-8 -15q0 -10 5 -21t12.5 -20t17.5 -15t21 -6z" />
    <glyph glyph-name="Aacute" unicode="&#xc1;" horiz-adv-x="447" 
d="M342 575q0 9 -4.5 19.5t-12 20t-16.5 15.5t-19 6q-13 0 -26.5 -11.5t-13.5 -25.5q0 -11 4.5 -18t6.5 -17q6 -7 21.5 -14t24.5 -7q11 0 23 10t12 22zM416 130l-4 2t-3 3q-7 -8 -14.5 -15.5t-14.5 -15.5q-4 2 -8 5t-7 6q-5 14 -6.5 28t-1.5 28q0 17 1 33t1 33q0 36 -2.5 72
t-2.5 71q0 20 12.5 37.5t29.5 28.5q-2 2 -4 5t-4 5q-8 -7 -16.5 -13.5t-15.5 -14.5q-2 13 -10 26t-17.5 25l-19 24t-15.5 23q-18 -14 -36.5 -27t-36.5 -26.5t-35 -28.5t-31 -33q2 -2 4.5 -4t4.5 -4q9 8 17 17.5t18 17.5q6 -4 12.5 -9.5t11.5 -10.5q8 -10 12 -36.5t5.5 -57
t1.5 -59.5v-43q0 -26 -2 -52.5t-2 -52.5q0 -36 9.5 -55.5t20.5 -30.5t21 -17t12 -13q7 13 21.5 29.5t31 34t33.5 34t29 31.5zM287 686l-13 9q-10 -16 -23 -24l-9 -2h-1q-14 6 -15.5 14.5t-1.5 22.5q-19 -23 -42 -42.5t-47 -36.5q-48 -34 -73.5 -72t-37 -80.5t-13.5 -90.5
t-2 -102q0 -89 6.5 -177.5t12.5 -177.5q2 -4 4.5 -7.5t6.5 -5.5v5q0 14 -1.5 27.5t-1.5 27.5q0 24 7.5 40.5t36.5 16.5q9 0 20.5 -2t20.5 -4q2 35 3 70.5t1 70.5q0 56 -1 112.5t0.5 113t6.5 112.5t16 112q5 -5 14.5 -9.5t15.5 -4.5q12 0 26 6t27 15t24 19.5t18 20.5
q4 6 7 12t8 11z" />
    <glyph glyph-name="Acircumflex" unicode="&#xc2;" horiz-adv-x="1000" 
d="M507 619l-6 -6l-4 -3l-16 -15q-22 -22 -40 -43q-19 -3 -38.5 -1.5t-38 6t-36.5 10.5t-34 11q47 21 103.5 30.5t109.5 10.5zM490 236q48 15 89 36q-27 -39 -46.5 -81.5t-39.5 -88.5q-10 28 -7 63.5t4 70.5zM596 281q17 10 31.5 20.5t26.5 22.5l12 11l16 15q22 22 39 42.5
t28 47.5q10 25 14.5 57.5t6.5 67.5t2 70q0 36 2 66q-29 -8 -60.5 -13.5t-63.5 -12t-62 -15.5t-55 -23q-33 0 -67 -3t-67 -10t-63.5 -17t-54.5 -25l-18 -17q18 -5 38.5 -12t41 -13t41 -8.5t38.5 1.5l9 8q-11 -13 -23.5 -26t-27.5 -28l-4 -3q-38 -37 -60 -76t-42 -84
q-17 -36 -33 -69.5t-32 -68.5q-24 -4 -49.5 -6t-53.5 -2l-19 -18q32 0 60.5 2.5t54.5 6.5q-12 -26 -23 -55t-21 -61l21 20q16 53 37 99q34 5 66 12.5t67 15.5q29 6 61 13.5t65 17.5l-3 -3q0 -18 -2 -38.5t-2 -41.5t3 -41t12 -36l16 16q22 49 43 96t54 98zM611 304l-8 -8
q-56 -30 -121.5 -48.5t-118.5 -29.5q-37 -8 -71 -15.5t-69 -13.5q17 37 34.5 72.5t34.5 74.5q20 46 42.5 84.5t60.5 75.5l3 3q28 27 47 50.5t46 48.5q23 22 55.5 34.5t68 20.5t72.5 14t69 14q-2 -29 -2 -63t-2 -68t-6.5 -65.5t-14.5 -56.5q-11 -26 -26 -45t-35 -38l-2 -3
q-14 -12 -29 -23t-32 -20zM572 598l-17 -16q9 -7 19.5 -17.5t14.5 -12.5l17 16q-6 4 -16.5 14.5t-17.5 15.5z" />
    <glyph glyph-name="Atilde" unicode="&#xc3;" 
d="M411 278q0 44 -17 83t-46 68t-68 46t-83 17t-83 -17t-68 -46t-46 -68t-17 -83t17 -83t46 -68t68 -46t83 -17t83 17t68 46t46 68t17 83zM389 278q0 -40 -15 -75t-41 -61t-61 -41t-75 -15t-75 15t-61 41t-41 61t-15 75t15 75t41 61t61 41t75 15t75 -15t61 -41t41 -61
t15 -75zM262 236q-19 -5 -35 -6q4 41 1.5 81t0.5 81q-10 -20 -21.5 -39t-23.5 -38l-1 -14q0 -19 1.5 -37t-0.5 -37q-15 1 -30.5 2.5t-30.5 5.5q13 11 24.5 31t21.5 43.5t18.5 46.5t16.5 40q-14 -2 -20 -9t-13 -16q1 6 0 11l-2 10l-5 -1q3 -11 3 -20q0 -14 -4 -33.5t-11 -39
t-16.5 -36.5t-19.5 -27v-5q17 -6 33.5 -8.5t33.5 -3.5q-1 -13 -2 -25.5t-4 -25.5h3q16 0 34 5q8 22 13 49q8 2 16.5 4t16.5 4l1 3q0 3 1 4z" />
    <glyph glyph-name="Adieresis" unicode="&#xc4;" horiz-adv-x="812" 
d="M629 756q0 10 -4.5 21t-12 20.5t-17.5 15.5t-20 6q-15 0 -27.5 -13t-12.5 -27q0 -23 15 -42.5t40 -19.5q16 0 27.5 11t11.5 28zM419 737q23 0 42.5 15t19.5 40q0 18 -12 32.5t-32 14.5q-11 0 -22 -5t-21 -13t-16 -18.5t-6 -21.5q0 -20 13.5 -32t33.5 -12zM781 185l-7 4
h-2q-11 -15 -22.5 -28.5t-24.5 -26.5q-20 13 -29 27.5t-9 38.5q0 21 2 42t2 42q0 48 -3.5 94t-5.5 93q-3 63 -28 107.5t-65.5 73t-93.5 42t-111 13.5q-14 0 -28 -1.5t-28 -1.5q-25 0 -42 8q-8 8 -8 16q0 6 3 13t7 12v1q-17 -16 -29 -36.5t-12 -44.5q0 -29 14.5 -48t36.5 -30
t48 -15t49 -4q-23 -11 -48.5 -24t-47 -30.5t-35.5 -39.5t-14 -52q0 -46 3 -92t3 -92q0 -9 -3.5 -25.5t-10.5 -22.5q-5 -5 -15.5 -7.5t-22.5 -4t-23.5 -3t-18.5 -2.5q-20 -4 -46.5 -11.5t-50 -20t-40 -31t-16.5 -44.5q0 -30 17.5 -64t43.5 -64t57.5 -52.5t59.5 -30.5
q10 -3 20 -4t21 -1q32 0 62.5 11t57 30.5t47 45t32.5 54.5q-2 1 -5.5 2.5t-4.5 1.5h-1q-23 -49 -66 -78t-97 -29q-14 0 -25 2.5t-24 4.5l-2 -1q-47 10 -87.5 35t-69.5 64q-5 7 -14 21.5t-9 22.5q0 28 22.5 39.5t47.5 11.5q18 0 43.5 -5t51 -14.5t46.5 -23t31 -30.5
q5 -8 7 -21.5t2 -22.5q4 8 9.5 15.5t10.5 14.5q16 24 42 40t53.5 29.5t53.5 28t43 34.5q2 32 4 62.5t2 62.5q0 15 -0.5 30t-1.5 30h66q1 -16 1.5 -32t0.5 -33q0 -32 -2 -65t-6 -65q0 -3 -0.5 -6t-0.5 -7q0 -15 6.5 -27.5t15.5 -25t19 -24.5t16 -25q22 21 46 40t47 39
t44.5 42t38.5 48zM550 419q-17 1 -32.5 1.5t-32.5 0.5q0 17 -0.5 34.5t-0.5 35.5v22q0 13 0.5 26t1.5 26q27 -8 41 -21.5t19 -31t5 -38.5t-1 -45v-10zM473 149q-14 -16 -31.5 -27t-36.5 -20q-26 32 -59.5 51t-71.5 32q12 4 29.5 11.5t34.5 17t32.5 19.5t23.5 21
q7 8 9.5 25.5t2.5 28.5q0 34 -2.5 67.5t-2.5 67.5q0 46 3 91q1 15 8.5 24.5t20.5 17.5q10 -2 19.5 -4t19.5 -4q-5 -81 -0.5 -162t4.5 -162q0 -47 -3 -95z" />
    <glyph glyph-name="Aring" unicode="&#xc5;" 
d="M411 278q0 44 -17 83t-46 68t-68 46t-83 17t-83 -17t-68 -46t-46 -68t-17 -83t17 -83t46 -68t68 -46t83 -17t83 17t68 46t46 68t17 83zM271 246q0 -12 -7.5 -25t-19 -24t-24.5 -18.5t-25 -7.5q-11 0 -21 6t-17.5 15t-12.5 20t-5 21q0 9 8 15t16 6q11 0 19.5 -7t8.5 -18
l-1 -1q1 -8 -6 -12.5t-13 -4.5q-11 0 -16.5 12t-4.5 20q-2 -2 -4.5 -5.5t-2.5 -7.5q0 -7 4 -16t10.5 -17.5t14 -14t15.5 -5.5q12 0 19.5 7t12 17t6.5 21.5t2 20.5q0 7 -1.5 16t-4.5 16.5t-9 12.5t-15 5q-2 -2 -12 -7.5t-12 -6.5l-6 4q3 7 12.5 9.5t19 7t17.5 14.5t8 33
q0 5 -1 12t-3.5 13t-6.5 10.5t-11 4.5q-17 0 -32.5 -15.5t-20.5 -30.5l1 -2l-2 -3q1 -4 7 -8l-1 7q0 8 10 16.5t18 8.5q6 0 10.5 -5.5t4.5 -10.5q0 -2 -1 -4.5t-1 -4.5q-4 -2 -6.5 -5t-5 -5.5t-6.5 -4.5t-12 -2t-14 4.5t-6 12.5q0 9 7 19.5t16.5 19t21 14t20.5 5.5
q10 0 19.5 -5.5t16.5 -13.5t11 -18.5t4 -19.5q0 -17 -14.5 -25t-26.5 -13q17 -6 34 -18.5t17 -33.5z" />
    <glyph glyph-name="AE" unicode="&#xc6;" 
d="M411 278q0 44 -17 83t-46 68t-68 46t-83 17t-83 -17t-68 -46t-46 -68t-17 -83t17 -83t46 -68t68 -46t83 -17t83 17t68 46t46 68t17 83zM389 278q0 -40 -15 -75t-41 -61t-61 -41t-75 -15t-75 15t-61 41t-41 61t-15 75t15 75t41 61t61 41t75 15t75 -15t61 -41t41 -61
t15 -75zM299 264v18l-6 -6v-18zM310 305q0 11 -7.5 17.5t-16.5 10.5q0 6 -0.5 12t-0.5 12q6 2 11 5t5 11q0 11 -8.5 20t-17.5 13v-2q5 -3 12.5 -8t7.5 -13t-10 -8t-18.5 7t-18.5 15.5t-21.5 15.5t-27.5 7q-12 0 -29 -6t-32.5 -16.5t-27 -23.5t-11.5 -26q0 -14 11.5 -20
t22.5 -6q17 0 30 7.5t26 17.5q1 1 2 1.5t2 1.5l-3 3q-11 -10 -26.5 -15t-29.5 -5q-8 0 -16.5 3t-13.5 11v5q0 8 5.5 16.5t14.5 15t18.5 11t17.5 4.5t17.5 -5t19.5 -11.5t20.5 -13t19.5 -9.5q-14 -11 -26 -22.5t-12 -31.5q0 -11 6 -21l-2 -3q-10 -5 -20 -5q-9 0 -18 3.5
t-14 11.5l-16 -15q15 -18 36 -18q14 0 21 5.5t16 14.5l7.5 -10t9.5 -12t8.5 -12t3.5 -10t-3.5 -7.5t-6.5 -5.5q-10 14 -27 20.5t-34 6.5q-8 0 -20 -2.5t-23 -7.5t-19 -12t-8 -17q0 -11 7.5 -23t18.5 -22t23.5 -16.5t23.5 -6.5q22 0 39 11t31 26l-1 0.5t-1 1.5
q-16 -14 -27.5 -21t-33.5 -7q-10 0 -23 4t-25 10.5t-20.5 16.5t-8.5 22q0 8 6 12t14 4q7 0 17.5 -2.5t20.5 -8t17 -13t7 -16.5q9 14 23 22t28 16.5t24 20t10 32.5q0 10 -4.5 18t-4.5 16q0 7 4.5 14.5t12.5 7.5q2 0 4 -0.5t4 -0.5q-7 0 -12 -6t-5 -13q0 -20 20 -25v-19
q0 -17 -1.5 -33.5t-6.5 -33.5q1 0 1.5 0.5t2.5 -0.5q5 17 7.5 34t1.5 34l-1 17q9 2 15 7t6 15zM282 334q-16 2 -20.5 -6.5t-9.5 -19.5q-5 5 -11.5 16t-6.5 18q0 11 9 16q5 0 10 -1t10 -1h6h12q1 -5 1 -11v-11z" />
    <glyph glyph-name="Ccedilla" unicode="&#xc7;" 
d="M411 278q0 44 -17 83t-46 68t-68 46t-83 17t-83 -17t-68 -46t-46 -68t-17 -83t17 -83t46 -68t68 -46t83 -17t83 17t68 46t46 68t17 83zM262 236q-1 -1 -1 -4l-1 -3q-8 -2 -16.5 -4t-16.5 -4q-5 -27 -13 -49q-18 -5 -34 -5h-3q3 13 4 25.5t2 25.5q-17 1 -33.5 3.5
t-33.5 8.5v5q10 10 19.5 27t16.5 36.5t11 39t4 33.5q0 9 -3 20l5 1l2 -10t0 -11q7 9 13 16t20 9q-8 -17 -16.5 -40t-18.5 -46.5t-21.5 -43.5t-24.5 -31q15 -4 30.5 -5.5t30.5 -2.5q2 19 0.5 37t-1.5 37l1 14q12 19 23.5 38t21.5 39q-3 -41 -0.5 -81t-1.5 -81q16 1 35 6z" />
    <glyph glyph-name="Egrave" unicode="&#xc8;" horiz-adv-x="419" 
d="M227 -116q0 18 25 47t55 66t55 79t25 84q0 23 -9.5 43t-25.5 34.5t-37 22.5t-43 8h-9q-3 0 -8 -1q12 9 29.5 21t34 26.5t28.5 30.5t12 32q0 17 -8.5 33t-19.5 31t-21.5 30.5t-15.5 31.5q-12 -17 -28 -30t-33.5 -24.5l-35 -23t-32.5 -25.5q1 86 9 173q1 17 4.5 37.5
t11.5 38t21.5 29.5t35.5 12q-1 5 -3 10l-4 10q-34 -5 -65 -27.5t-55.5 -54t-40.5 -68t-19 -67.5q-11 -4 -22 -7.5t-22 -8.5q-2 -8 -4 -16.5t-3 -17.5q12 4 23.5 7.5t23.5 6.5q-5 -34 -6.5 -68t-1.5 -69q0 -42 1.5 -83.5t1.5 -83.5q0 -23 -7.5 -42t-32.5 -27q1 -1 4 -5.5
l3 -4.5q6 0 19.5 9.5t18.5 14.5q11 -30 32 -53t41 -48q14 18 31 30t34 22.5t33.5 22t30.5 28.5l-9 9q-8 -6 -16 -13t-16 -13q-17 12 -26.5 24t-14.5 25.5t-6.5 29.5t-1.5 35q10 10 14.5 15t9 9t10.5 8l18 12q2 0 4.5 1t4.5 1q6 0 12.5 -2.5t11.5 -4.5q20 -20 26 -41t6 -48
q0 -40 -16 -76t-34.5 -68t-34.5 -59.5t-16 -48.5q0 -17 11.5 -33.5t30.5 -16.5q12 0 23.5 7t20.5 17t15 22t8 23q-3 -2 -11 -6q-6 -19 -20 -37q-6 -3 -10.5 -5t-11.5 -2q-5 4 -9 9t-4 11zM277 336q0 -17 -7 -29.5t-18 -22t-24 -18t-25 -16.5q-9 -6 -18 -14t-17 -16
q-2 33 -3.5 66.5t-0.5 66.5v21q10 12 20 22.5t24 18.5q21 -15 38.5 -30t29.5 -39q0 -2 0.5 -5t0.5 -5z" />
    <glyph glyph-name="Eacute" unicode="&#xc9;" 
d="M411 278q0 44 -17 83t-46 68t-68 46t-83 17t-83 -17t-68 -46t-46 -68t-17 -83t17 -83t46 -68t68 -46t83 -17t83 17t68 46t46 68t17 83zM389 278q0 -40 -15 -75t-41 -61t-61 -41t-75 -15t-75 15t-61 41t-41 61t-15 75t15 75t41 61t61 41t75 15t75 -15t61 -41t41 -61
t15 -75zM212 342q0 4 -1 12.5t-3 17t-5.5 15.5t-8.5 7q-6 -2 -10 -9.5t-6.5 -16.5t-3 -18t-0.5 -15q0 -30 6.5 -60t10.5 -59h3h1q7 29 12 63t5 63zM214 181q-2 6 -6.5 13.5t-12.5 7.5q-7 0 -15 -6.5t-8 -13.5q0 -6 6 -13.5t13 -7.5q8 0 14.5 6t8.5 14z" />
    <glyph glyph-name="Ecircumflex" unicode="&#xca;" horiz-adv-x="1000" 
d="M728 358l-6 6l-3 4l-15 16q-22 22 -43 40q-3 19 -1.5 38.5t6 38t10.5 36.5t11 34q21 -47 30.5 -103.5t10.5 -109.5zM345 375q15 -48 36 -89q-39 27 -81.5 46.5t-88.5 39.5q28 10 63.5 7t70.5 -4zM390 269q10 -17 20.5 -31.5t22.5 -26.5l11 -12l15 -16q22 -22 42.5 -39
t47.5 -28q25 -10 57.5 -14.5t67.5 -6.5t70.5 -2.5t65.5 -1.5q-8 28 -13.5 60t-12 64t-15.5 62t-23 55q0 33 -3 67t-10 67t-17 63.5t-25 54.5l-17 18q-5 -18 -12 -38.5t-13 -41t-8.5 -41t1.5 -38.5l8 -9q-26 22 -54 51l-3 4q-37 38 -76 60t-84 42q-36 17 -69.5 33t-68.5 32
q-4 24 -6 49.5t-2 53.5l-18 19q0 -32 2.5 -60.5t6.5 -54.5q-26 12 -55 23t-61 21l20 -21q53 -16 99 -37q5 -34 12.5 -66t15.5 -67q6 -29 13.5 -61t17.5 -65l-3 3q-18 0 -38.5 2t-41.5 2t-41 -3t-36 -12l16 -16q49 -22 96 -43t98 -54zM413 254l-8 8q-30 56 -48.5 121.5
t-29.5 118.5q-8 37 -15.5 71t-13.5 69q37 -17 72.5 -34.5t74.5 -34.5q46 -20 84.5 -42.5t75.5 -60.5l3 -3q13 -14 26 -25.5t25 -22t24 -21.5t24 -24q22 -23 34.5 -55.5t20.5 -68t14 -72.5t14 -69q-29 1 -63 1.5t-68 2.5t-65.5 6.5t-56.5 14.5q-26 11 -45 26t-38 35l-3 2
q-12 14 -23 29t-20 32zM707 293l-16 17q-7 -9 -17.5 -19.5t-12.5 -14.5l16 -17q4 6 14.5 16.5t15.5 17.5z" />
    <glyph glyph-name="Edieresis" unicode="&#xcb;" horiz-adv-x="623" 
d="M592 145l-5 3q-9 -7 -16.5 -15t-15.5 -15q-2 8 -2 13q0 19 7 34.5t7 35.5q0 21 -9 35t-23 23t-31.5 14.5t-34.5 9.5q18 9 35.5 20.5t31 26t22 33t8.5 40.5t-7 38t-17 29t-21 26t-19 31q-5 -10 -16.5 -19t-25.5 -17t-28 -15l-24 -12q-15 -8 -27 -19l-24 -22q-1 9 -1 18v19
q0 45 4.5 87.5t9.5 86.5q1 7 3 15.5t5.5 17t9 15t12.5 9.5q11 4 20 5q2 1 9.5 -3t10.5 -6q-17 -5 -29.5 -17t-12.5 -31t14.5 -32.5t33.5 -13.5q17 0 29 12t12 29t-8.5 32t-22 25.5t-29.5 16.5t-32 6t-36.5 -5.5t-34.5 -13.5q-32 -18 -49 -43.5t-25.5 -55.5t-11.5 -63t-6 -65
q-2 0 -5 -0.5t-5 -0.5t-5 1.5t-5 0.5q-17 8 -25 23.5t-11 32.5q-15 -21 -33.5 -39.5t-38.5 -34.5q-17 -14 -34 -26.5t-30.5 -27t-21.5 -33t-8 -43.5q0 -29 3 -60.5t11 -62.5t21 -59.5t33 -50.5q11 -12 21.5 -25t18.5 -27q5 11 6 20q11 16 25 24.5t34 8.5q38 0 60 -21.5
t26 -58.5q14 18 38.5 39t47.5 28q10 3 19 5t19 6q-26 0 -36.5 13t-10.5 37q0 25 6.5 58t5.5 65v9h41q26 0 42 -12.5t16 -41.5q0 -17 -3.5 -34.5t-7.5 -34t-7.5 -32t-3.5 -28.5q0 -20 5.5 -28t18.5 -22q2 -1 3.5 -1.5t3.5 -1.5q16 14 31.5 28.5t32.5 27.5t31.5 27.5
t30.5 28.5zM406 444q7 -5 14 -8.5t13 -8.5q16 -14 26.5 -35t10.5 -42q0 -28 -20 -47t-47 -19h-44q-1 23 -2 46.5t-1 46.5q0 26 15.5 40.5t34.5 26.5zM233 248q0 -12 -0.5 -36t-4.5 -48t-13.5 -42t-27.5 -18q-25 0 -38 20.5t-19.5 48t-7.5 56.5t-2 46q-2 25 -2 49v50v24
q0 13 2 25q8 -14 22.5 -25t31.5 -11q13 0 22 5.5t15.5 14.5t11 19.5t8.5 20.5q-3 -50 -0.5 -99.5t2.5 -99.5z" />
    <glyph glyph-name="Igrave" unicode="&#xcc;" horiz-adv-x="471" 
d="M440 132l-6 6q-8 -9 -16 -18.5t-19 -16.5q-13 5 -20 16.5t-12 24.5q1 6 0.5 11.5t-0.5 11.5q0 20 2 40.5t2 40.5q0 54 -4 106t-4 106q15 -3 30 -5.5t29 -7.5q-2 8 -2 16q0 9 -1 17q-14 5 -28 9l-28 8q1 24 1.5 48.5t3.5 48.5q6 9 14 17q6 0 12 -0.5t11 -2.5
q-2 5 -3.5 11.5t-4.5 9.5q-9 2 -17 5t-18 3q-32 0 -58 -20t-40 -47q-8 -14 -9.5 -28t-3.5 -30q-14 2 -28 1t-28 -1q-2 -11 -2.5 -20.5t-1.5 -20.5h12q11 -1 22.5 0t22.5 0q-2 -20 -2 -41v-40q0 -43 1 -85.5t1 -85.5q0 -26 -1 -50.5t-7 -46.5t-20 -40.5t-40 -33.5l9 -9
q15 8 27.5 20t24.5 24q12 -22 18.5 -31.5t12.5 -15.5t13 -12.5t20 -22.5q13 19 30.5 35t36.5 31t36.5 30.5t31.5 34.5zM306 688l-7 9q-6 -6 -15 -13t-19 -7q-11 0 -18 12t-7 21l1 3q-17 -15 -37.5 -29t-41.5 -28t-40.5 -28.5t-34.5 -30.5q-29 -33 -45 -68.5t-23.5 -74
t-8.5 -78.5t-1 -81q0 -88 7 -174t15 -173l10 -11q0 14 -2.5 28t-2.5 28q0 18 7.5 30t27.5 12q12 0 23.5 -3t22.5 -5q2 35 3 69.5t1 69.5q0 58 -1 116t0.5 116t6.5 116t18 115q14 -5 27.5 -10.5t27.5 -5.5q35 0 63.5 22t42.5 53z" />
    <glyph glyph-name="Iacute" unicode="&#xcd;" horiz-adv-x="515" 
d="M484 604q-5 6 -11 11l2 -7q-2 -6 -6 -10q-1 0 -2 -0.5t-2 -0.5q-3 0 -7 2t-6 1q-10 7 -15.5 13.5t-9 13.5t-6 15.5t-5.5 20.5q-20 -21 -40.5 -31t-40.5 -17.5t-38.5 -18t-33.5 -31.5q-16 -22 -23 -54t-9.5 -67.5t-2 -70t0.5 -61.5q0 -117 -0.5 -233t-21.5 -231h7t6 -1
q7 35 9.5 65.5t12.5 53t33 36.5t72 17q5 46 7 92t2 92q0 64 -2 127t-2 127q0 35 1 70t4 70q9 -20 29 -34.5t43 -14.5q16 0 31 8t21 23q2 6 1.5 12.5t1.5 12.5zM317 675q-3 2 -6.5 2.5t-6.5 1.5q-6 -18 -22 -31q-10 -4 -17 -4q-2 0 -4.5 0.5t-4.5 0.5l-7 4h-3q-11 6 -13 17.5
t-2 22.5q-14 -16 -28 -31.5t-31 -29.5q-29 -23 -59 -44.5t-51 -53.5q-18 -27 -28.5 -58t-15.5 -63.5t-6.5 -66t-1.5 -64.5q0 -89 10.5 -176.5t21.5 -175.5l9 -9q-3 16 -5.5 34.5t-2.5 34.5q0 23 9.5 35.5t32.5 12.5q11 0 21.5 -2.5t21.5 -4.5q0 71 -3 141.5t-3 141.5
t6 141.5t23 139.5q5 -12 16.5 -18.5t24.5 -6.5q15 0 31.5 6.5t31 17t27 23t20.5 25.5q5 9 7.5 18.5t7.5 18.5z" />
    <glyph glyph-name="Icircumflex" unicode="&#xce;" horiz-adv-x="504" 
d="M473 610q-6 15 -15 30t-20.5 28t-26 21t-32.5 8q-16 0 -31.5 -7.5t-29 -19.5t-23.5 -26.5t-15 -28.5q-13 -35 -15 -73.5t-2 -75.5q0 -50 2.5 -98.5t2.5 -98.5q0 -30 -1 -63t-7 -62q-1 -5 -2.5 -9t-1.5 -9q-14 -14 -26.5 -22t-30.5 -16q-23 13 -34 37t-11 50
q0 63 -1.5 124.5t-1.5 124.5q0 11 0.5 36t3 56t7 64t12.5 60.5t19.5 45t28.5 17.5h10q6 0 11 -1q-15 -6 -29.5 -18.5t-14.5 -30.5q0 -11 10 -21t21 -10q53 0 56 52q-7 23 -20.5 33.5t-37.5 10.5q-25 0 -50 -12.5t-43 -27.5q-32 -27 -52 -60t-31.5 -69.5t-15.5 -76t-4 -78.5
q0 -58 7 -114.5t7 -113.5q0 -5 -1.5 -9.5t-0.5 -8.5q-13 -24 -35 -34l9 -10q9 4 16.5 10.5t15.5 11.5q9 -32 27 -56t36 -50q19 20 35.5 29.5t33 16t34 13.5t38.5 23l10 -28t13 -27q9 -7 15.5 -16t12.5 -19q11 11 21.5 23t23.5 23q24 20 49.5 39.5t45.5 45.5l-5 4v1
q-9 -8 -17.5 -16.5t-18.5 -16.5q-10 8 -18.5 19t-8.5 25q0 7 1 14.5t2 14.5q2 34 4 67t2 67q0 62 -2.5 123.5t-2.5 123.5q0 9 -0.5 25.5t0.5 33.5t5.5 31t13.5 18q10 -2 16 -2q3 -3 6.5 -6t6.5 -6q-11 0 -18 -9t-7 -20q0 -22 19.5 -35t38.5 -13q6 5 7.5 11t3.5 13z" />
    <glyph glyph-name="Idieresis" unicode="&#xcf;" horiz-adv-x="534" 
d="M502 610l-8 9q-1 -3 -1 -10q-2 -1 -5 -1q-2 0 -4 -2q-20 5 -30.5 24t-16.5 37q-21 -19 -49 -28t-53 -23q-32 -17 -50 -50.5t-19 -69.5q-28 1 -55 -0.5t-55 -4.5q4 29 8 57.5t10 57.5q7 -14 16 -20t25 -6q17 0 37 9t38 23.5t30.5 32.5t14.5 35l-7 4h-3q-3 -8 -9.5 -13.5
t-13.5 -10.5l-8 -2t-8 -1q-5 0 -10 1t-10 3q-13 13 -15 35q-26 -28 -57.5 -51.5t-61 -48t-52 -54.5t-31.5 -71q-8 -2 -16.5 -4t-16.5 -4q-1 -9 -3 -18l-4 -18q9 2 17.5 3t17.5 3q-5 -38 -6.5 -77t-1.5 -78q0 -94 8.5 -187t19.5 -187q3 -2 6.5 -4t5.5 -5v6q2 16 -1.5 32.5
t-3.5 33.5q0 28 11.5 44t41.5 16q7 0 13.5 -1t13.5 -3q1 13 1 25v27q0 62 -3 123.5t-3 123.5q0 63 6 125q29 3 57 3.5t57 0.5q-3 -76 -1.5 -152t1 -151.5t-5.5 -151t-19 -150.5h17q4 12 5 24.5t3 24.5q4 27 10.5 48.5t18.5 38t31.5 26.5t49.5 13q8 45 10.5 90t2.5 90
q0 55 -2.5 110t-1.5 110v25q15 -2 29.5 -4t29.5 -4q2 13 2 26t2 26q-16 2 -32 2t-32 2v21q-1 23 0 45t2 45q8 -20 25 -33.5t40 -13.5q21 0 36.5 12t14.5 35v5z" />
    <glyph glyph-name="Ntilde" unicode="&#xd1;" 
d="M411 278q0 44 -17 83t-46 68t-68 46t-83 17t-83 -17t-68 -46t-46 -68t-17 -83t17 -83t46 -68t68 -46t83 -17t83 17t68 46t46 68t17 83zM389 278q0 -40 -15 -75t-41 -61t-61 -41t-75 -15t-75 15t-61 41t-41 61t-15 75t15 75t41 61t61 41t75 15t75 -15t61 -41t41 -61
t15 -75zM252 332q0 10 -4.5 21t-11.5 21t-17 16.5t-20 6.5q-8 0 -17.5 -6t-17 -15t-12.5 -19t-5 -18q0 -19 22 -19q8 0 16 8.5t8 16.5q0 5 -4 9.5t-9 4.5t-8.5 -3.5l-6.5 -6.5l3 -1q3 2 5.5 4.5t5.5 2.5q10 0 10 -10q0 -8 -7 -14.5t-15 -6.5q-7 0 -12 5t-5 12q0 5 3.5 13
t9 15.5t12 13t12.5 5.5q14 0 20.5 -12t6.5 -24q0 -16 -5.5 -28.5t-12 -24.5t-12 -24t-5.5 -27q0 -8 3 -15.5t8 -13.5l4 3q-8 8 -8 18q0 14 10.5 24t22.5 20t22.5 21t10.5 27zM191 167q9 0 16 8t7 16t-6 11.5t-13 3.5q-8 0 -14.5 -4.5t-6.5 -13.5q0 -7 5 -14t12 -7z" />
    <glyph glyph-name="Ograve" unicode="&#xd2;" horiz-adv-x="496" 
d="M465 153q-5 3 -6 4q-8 -10 -18.5 -17.5t-18.5 -17.5q-9 5 -16.5 15.5t-7.5 21.5q0 8 0.5 17t1.5 17q5 32 8 62t3 62q0 37 -2 74l-4 74q14 -2 28.5 -3.5t28.5 -3.5v7q1 7 0 14t-3 15q-14 3 -27.5 5.5t-27.5 4.5q-1 25 -1.5 49t-0.5 49q0 7 0.5 16.5t3 17.5t8 14t14.5 6
q3 0 9 -2q-1 5 -2 9.5t-3 9.5q-5 1 -8.5 1.5t-8.5 0.5q-32 0 -55 -15.5t-38.5 -39t-24 -52t-10.5 -54.5h-57t-57 -2q2 24 5 53t11 56t24 48.5t43 30.5l-4 14q-33 -9 -65.5 -30.5t-59 -50.5t-44.5 -63t-22 -68q-11 -2 -22.5 -5t-22.5 -5q-2 -8 -3.5 -17t-3.5 -17
q12 0 23.5 2.5t23.5 2.5q-2 -21 -3 -42.5t-1 -43.5q0 -53 4 -105.5t4 -105.5q0 -17 -8 -32t-25 -20l6 -9l3 -2q8 5 14 9.5t14 9.5q9 -20 18.5 -35.5t22.5 -32.5q6 -8 9 -17t10 -17q7 7 14.5 15t15.5 13q15 9 26.5 15t21.5 12t20.5 14.5t23.5 23.5q-2 2 -4.5 3.5t-4.5 2.5
q-8 -6 -15.5 -12t-15.5 -13q-11 11 -21 23.5t-14 29.5t-5.5 45t-1.5 58t0.5 59t0.5 49q0 57 3 114q19 1 37 1.5t37 0.5h23t23 -1q0 -44 1.5 -87.5t1.5 -87.5q0 -22 -0.5 -58t-6.5 -73t-19 -67.5t-37 -40.5l6 -9q12 8 21.5 17.5t19.5 20.5q4 -12 11 -22t14.5 -19t14 -16
t8.5 -13q12 12 23 24.5t24 23.5q23 21 49.5 41t45.5 46z" />
    <glyph glyph-name="Oacute" unicode="&#xd3;" horiz-adv-x="606" 
d="M570 338q0 29 -8.5 52t-22 42.5t-30 38.5t-32.5 40q-10 -16 -24.5 -27.5t-31 -20.5t-33.5 -18t-31 -21q1 27 1 62q0 36 2 72.5t9 69.5t22 56q9 4 23 4q8 -3 13.5 -7.5t12.5 -8.5q-20 0 -31.5 -8.5t-11.5 -31.5q0 -18 15.5 -34t33.5 -16q11 0 21 9.5t10 20.5q0 18 -7 35
t-19 29.5t-28.5 20t-34.5 7.5q-25 0 -48 -10t-43 -25q-21 -17 -33 -41t-17.5 -51t-7.5 -55t-4 -53q-26 -2 -37.5 15t-11.5 41q-22 -38 -52.5 -60.5t-58 -45t-46.5 -53.5t-19 -85q0 -50 3.5 -84.5t15 -63t32 -56t54.5 -63.5q7 29 30.5 46.5t52.5 17.5q40 0 63.5 -25.5
t32.5 -60.5q12 24 23 38.5t24 24t29.5 16.5t40.5 15q-24 8 -38.5 21.5t-14.5 40.5q0 14 1 28.5t1 28.5q0 42 -2.5 84t-2.5 84l1 32q11 10 23 20t26 15q9 -8 18 -15t17 -16q11 -12 16.5 -35t8 -49t2.5 -52v-41q0 -39 -2 -80t-9.5 -81t-22 -77.5t-39.5 -68.5q-20 -25 -46 -43
t-58 -18h-9t-9 1l-2 -11q8 1 14.5 0t14.5 -1q36 0 75 23t74.5 57t63 72t39.5 68q14 35 19.5 76t5.5 78q0 28 -3 55.5t-3 55.5zM235 184q0 -11 -1.5 -26.5t-6 -30t-13 -24.5t-23.5 -10q-18 0 -31 11t-21 27.5t-12 34.5t-4 33q0 32 -2 63.5t-2 63.5q0 26 1.5 50.5t3.5 49.5
q7 -11 20 -23t27 -12q27 0 40 15t22 38q-3 -44 -3 -89q0 -43 2.5 -85.5t2.5 -85.5z" />
    <glyph glyph-name="Ocircumflex" unicode="&#xd4;" horiz-adv-x="483" 
d="M372 576q0 9 -4 19.5t-11 20t-16 16t-19 6.5q-14 0 -26 -11t-12 -26q0 -23 15.5 -39t38.5 -16q13 0 23.5 8t10.5 22zM452 132l-6 3q-8 -8 -15 -16.5t-14 -17.5q-13 9 -17 23.5t-4 29.5q0 20 1 40.5t1 41.5q0 34 -2 68t-2 68q0 22 10 42t30 31l-9 9q-8 -6 -15.5 -13.5
t-16.5 -13.5q-6 19 -17 38t-25 33q-6 7 -10.5 14t-9.5 15q-14 -17 -31 -31t-34.5 -26.5t-35 -26t-32.5 -28.5q2 -2 4 -4.5t4 -4.5q9 9 19.5 16.5t20.5 15.5q7 -5 12 -11.5t11 -11.5q6 -14 9.5 -38.5t4.5 -51.5t1 -53v-43q0 -30 -2 -60.5t-2 -61.5q0 -20 4.5 -33.5t12 -24.5
t18 -21.5l22.5 -22.5q5 7 10 13.5t11 11.5v1q1 4 14 16.5t28.5 28t30.5 31t21 25.5zM315 685l-11 8q-5 -7 -12.5 -12.5t-16.5 -5.5q-8 5 -15 10.5t-9 15.5q-26 -30 -57.5 -52.5t-61 -46t-52.5 -53.5t-30 -76q-9 -2 -18 -4.5t-17 -5.5q-2 -9 -3 -18t-3 -18q9 2 18.5 3.5
t18.5 4.5q-4 -39 -5.5 -78t-1.5 -78q0 -95 5.5 -189t7.5 -189l9 -10q1 18 0 41.5t2.5 44t15.5 34.5t39 14q8 0 16 -0.5t16 -1.5q2 32 3 63t1 63q0 75 -1.5 150.5t3.5 150.5q31 3 64 3q3 14 4 28.5t4 28.5q-18 -3 -35.5 -5.5t-35.5 -6.5q5 30 9.5 60t10.5 60q9 -5 20 -8.5
t22 -3.5q16 0 30.5 7.5t26.5 19t22 25.5t17 27z" />
    <glyph glyph-name="Otilde" unicode="&#xd5;" 
d="M411 278q0 44 -17 83t-46 68t-68 46t-83 17t-83 -17t-68 -46t-46 -68t-17 -83t17 -83t46 -68t68 -46t83 -17t83 17t68 46t46 68t17 83zM389 278q0 -40 -15 -75t-41 -61t-61 -41t-75 -15t-75 15t-61 41t-41 61t-15 75t15 75t41 61t61 41t75 15t75 -15t61 -41t41 -61
t15 -75zM189 169q15 0 30 8.5t26.5 21.5t18.5 28.5t7 30.5q0 11 -5.5 23t-14.5 22t-20.5 16.5t-23.5 6.5q-14 0 -27 -7.5t-22 -18.5q2 16 4.5 32.5t4.5 32.5q10 -8 20.5 -13.5t24.5 -5.5q22 0 31.5 5.5t17.5 25.5q-2 0 -3 -0.5t-3 -0.5h-1q-20 -2 -46 -0.5t-46 3.5
q1 -5 0 -16.5t-3 -24.5t-4 -25t-2 -19q-2 -4 -4 -7.5t-3 -8.5l4 -6l3 1q4 5 6 13t5.5 15t10.5 12t20 5q11 0 18 -7t10.5 -17.5t4.5 -22t1 -20.5t-2 -22t-6.5 -25t-12.5 -20.5t-20 -8.5q-8 0 -15.5 5t-13.5 12.5t-9.5 16t-3.5 15.5q0 8 6 13q2 -8 6.5 -17.5t15.5 -9.5
q8 0 14 5t6 13q0 11 -9 18t-19 7q-9 0 -17 -7t-8 -16q0 -8 4.5 -18t11.5 -20t15.5 -16.5t16.5 -6.5z" />
    <glyph glyph-name="Odieresis" unicode="&#xd6;" horiz-adv-x="709" 
d="M517 772q0 10 -4 21t-10.5 20.5t-16 15.5t-20.5 6q-16 0 -33 -13.5t-17 -30.5q0 -25 16 -42.5t42 -17.5q16 0 29.5 12t13.5 29zM295 738q12 0 23.5 5.5t21 14.5t15.5 20.5t6 23.5q0 16 -11.5 27.5t-27.5 11.5q-11 0 -23.5 -6.5t-23 -16t-17.5 -21.5t-7 -24t7 -24
q5 -4 10.5 -6.5t11.5 -4.5h15zM677 350q0 57 -23.5 120t-64 116.5t-95 88.5t-117.5 35q-76 0 -145 -29q-8 -4 -23.5 -9.5t-24.5 -5.5q-8 0 -13 4t-5 12v2l8 12t10 10q-2 2 -3 2.5t-3 2.5q-14 -10 -25.5 -28t-11.5 -35q0 -20 12.5 -35t29.5 -23q6 -1 11.5 -4.5t10.5 -5.5
q-22 -14 -45 -26t-43 -28q-22 -17 -41.5 -37.5t-34.5 -44t-23.5 -50.5t-8.5 -55q0 -35 10.5 -69t27.5 -66t39 -61t45 -54q-8 -13 -15 -26.5t-7 -29.5q0 -34 16 -66.5t42 -57.5t58.5 -40.5t66.5 -15.5q36 0 69.5 11.5t63 31t55 45t45.5 53.5l-9 4q-87 -109 -228 -109
q-26 0 -50.5 7t-45.5 20.5t-38 33t-26 44.5q-2 6 -5 14.5t-3 15.5q0 35 24 55q39 -35 90.5 -59t104.5 -24q41 0 82 15t79 40.5t70 60t56 74t37.5 81.5t13.5 83zM593 280q0 -46 -18.5 -94t-50.5 -87t-75 -64t-92 -25q-53 0 -86 26t-61 67q5 1 10 1h11q26 0 52.5 -7.5
t41.5 -30.5l-12 -9l9 -9q25 20 51.5 45t49 54t37 61t14.5 66q0 32 -13 59t-33 50q-2 2 -3.5 4.5t-2.5 4.5q-11 12 -23 25.5t-22 28.5t-17 31t-7 34q0 8 5 21t7 21q-23 -10 -42 -28.5t-33 -41.5t-22 -48.5t-8 -49.5q0 -38 19.5 -75t40.5 -68q11 -17 26.5 -30.5t24.5 -30.5
q4 -8 5 -14.5t1 -14.5q0 -13 -6 -24.5t-13 -21.5q-22 8 -44.5 13.5t-45.5 5.5q-17 0 -33.5 -2.5t-33.5 -6.5q-27 61 -43 124t-16 130q0 57 20 110.5t57 96.5q27 -8 55 -8t56 -1q30 -2 60 -6.5t57 -18.5q35 -18 62 -47t46 -64.5t28.5 -74.5t9.5 -77z" />
    <glyph glyph-name="Oslash" unicode="&#xd8;" horiz-adv-x="405" 
d="M374 292q0 13 -7 34t-18 42.5t-24 39.5t-25 24l-1 3q8 10 11.5 21t11.5 21q-8 7 -15 14t-15 14q-8 -11 -14.5 -22.5t-13.5 -22.5l-28 10t-29 5q-32 0 -66.5 -16t-63.5 -41.5t-48 -57.5t-19 -65q0 -20 6.5 -41t17.5 -40.5t25.5 -36t29.5 -28.5q-8 -16 -17.5 -30.5
t-17.5 -30.5q6 -9 15 -15.5t15 -15.5q11 17 21.5 34t20.5 35q14 -5 28.5 -8.5t30.5 -3.5q35 0 69 14.5t60.5 38.5t43 56.5t16.5 68.5zM279 401q22 -26 37.5 -51.5t15.5 -61.5q0 -27 -12 -51t-32 -42t-45.5 -28t-51.5 -10q-10 0 -20 1t-19 5q19 28 35 58t30.5 60.5t29.5 60.5
t32 59zM242 425q-40 -57 -70 -118.5t-62 -121.5q-23 17 -41 49t-18 61q0 27 13.5 52t34.5 44t47.5 30.5t52.5 11.5q22 0 43 -8z" />
    <glyph glyph-name="Ugrave" unicode="&#xd9;" horiz-adv-x="391" 
d="M138 7q25 25 62.5 45t73 42.5t60.5 52t25 74.5q0 17 -7 35.5t-19 34t-28 25.5t-34 10q-16 0 -29 -5.5t-24.5 -14t-23 -17.5t-24.5 -15q-26 5 -29.5 23.5t-3.5 40.5q0 26 3.5 51.5t7.5 51.5q14 -20 35 -32.5t46 -12.5t50.5 11.5t38.5 34.5q5 9 5 18q0 10 2 20q-4 3 -8 5
q-2 -13 -6 -19t-16 -11q-18 2 -27 8t-13 14.5t-6.5 18.5t-7.5 21q-26 -20 -65 -40t-76 -44t-63.5 -53.5t-26.5 -68.5q0 -17 6.5 -32.5t18 -28t26.5 -20t32 -7.5q31 0 54.5 17.5t47.5 32.5q23 -4 36 -19.5t13 -39.5q0 -32 -4 -64.5t-12 -63.5l-3 7q-19 20 -42.5 28.5
t-50.5 8.5q-15 0 -34.5 -3.5t-37.5 -11.5t-31.5 -20.5t-15.5 -30.5l8 -7q4 10 13 14.5t19 4.5q30 0 52 -22t33 -47z" />
    <glyph glyph-name="Uacute" unicode="&#xda;" horiz-adv-x="498" 
d="M467 130q-4 4 -7 5q-8 -9 -16.5 -17t-16.5 -17q-9 10 -15 16.5t-10 13t-5.5 15t-1.5 22.5q0 19 1 37.5t1 37.5q0 54 -2.5 108.5t-3.5 108.5q15 -2 29.5 -6t28.5 -8q0 8 -1 16.5t-2 16.5l-28 10t-28 8q2 8 1 15.5t-1 15.5v20q0 12 1 23t4 21t10 18q2 0 3.5 0.5t3.5 0.5
q11 0 19 -8q-1 6 -2 11.5t-3 11.5q-19 10 -42 10q-27 0 -46.5 -10.5t-32 -27.5t-19.5 -39t-8 -46q-11 2 -21 2h-20q-19 0 -37.5 -1t-37.5 -2q0 32 7.5 64t13.5 63q13 -10 28 -16.5t32 -6.5q19 0 34 6.5t27 17t22 24.5l20 28q-2 2 -3.5 4.5t-3.5 3.5q-7 -10 -17.5 -17
t-22.5 -7l-10 2q-7 10 -9.5 16t-6.5 17q-32 -21 -68 -42t-67.5 -46t-55 -57t-29.5 -74q-9 -3 -18.5 -5.5t-18.5 -6.5q0 -8 -3.5 -16.5t-3.5 -16.5q11 2 20.5 4.5t20.5 4.5q-4 -42 -5.5 -84.5t-1.5 -85.5q0 -97 5 -193t6 -193q2 -2 5 -4.5t5 -4.5q0 12 -0.5 31t2 38t8 35
t17.5 23q5 3 17 4.5t18 1.5q14 0 26 -3q3 31 4 61.5t1 61.5q0 50 -1.5 99.5t-1.5 99.5q0 33 1 65.5t4 64.5q19 1 37 2t37 1q11 0 21.5 -0.5t21.5 -1.5q-2 -63 0.5 -126.5t2.5 -126.5v-59q0 -22 -6 -39t-20 -33.5t-41 -41.5l8 -9q14 11 26.5 22.5t25.5 22.5
q10 -25 25.5 -39.5t32.5 -32.5l2 -6l3 -3q13 14 26 27.5t28 25.5q20 17 41 35t37 39z" />
    <glyph glyph-name="Ucircumflex" unicode="&#xdb;" horiz-adv-x="391" 
d="M166 275q-11 2 -17 9t-8.5 16t-3 19t-0.5 19q0 26 3.5 51.5t7.5 51.5q14 -20 35 -32.5t47 -12.5q8 0 15 1t14 3q-11 -12 -20 -26t-17.5 -28t-17.5 -27.5t-21 -25.5l-9 -9t-8 -9zM148 241q12 8 23.5 16t23.5 16q23 -4 36 -19.5t13 -38.5q0 -32 -4 -65t-12 -64l-3 7
q-19 20 -42.5 28.5t-50.5 8.5q-14 0 -28 -1.5t-28 -6.5q32 63 72 119zM175 277q6 8 12.5 14.5l13.5 13.5q11 10 19.5 22.5t16 25.5t15.5 26t18 25q14 5 27 14.5t21 23.5q5 9 5 18q0 10 2 20q-4 3 -8 5q-2 -13 -6 -19t-16 -11q-18 2 -27 8t-13 14.5t-6.5 18.5t-7.5 21
q-26 -20 -65 -40t-76 -44t-63.5 -53.5t-26.5 -68.5q0 -17 6.5 -32.5t18 -28t26.5 -20t32 -7.5q21 0 39 9q-20 -28 -37.5 -57t-32.5 -59q-17 -8 -32 -20.5t-17 -31.5l8 -7q4 10 13 14.5t19 4.5q30 0 52 -22t33 -47q25 25 63 45t73 42.5t60 52t25 74.5q0 17 -7 35.5t-19 34
t-28 25.5t-34 10q-14 0 -26.5 -5t-24 -12.5t-23 -16t-22.5 -15.5z" />
    <glyph glyph-name="Udieresis" unicode="&#xdc;" horiz-adv-x="835" 
d="M650 755q0 10 -4 21.5t-11 21.5t-16.5 16t-21.5 6q-17 0 -28.5 -13t-11.5 -29q0 -21 15.5 -39.5t37.5 -18.5q14 0 27 9.5t13 25.5zM447 738q22 0 39.5 16t17.5 38q0 20 -13 34t-33 14q-12 0 -23.5 -5t-20.5 -13t-14.5 -18.5t-5.5 -22.5q0 -20 17.5 -31.5t35.5 -11.5z
M804 171q-5 3 -6 4q-11 -13 -23 -24.5t-23 -24.5q-27 5 -35 29t-8 47t2 47t2 47q0 81 -9 160.5t-9 160.5q0 17 8.5 29.5t26.5 14.5l-4 9v1h-1q-74 -11 -113.5 -50t-39.5 -115q0 -60 3.5 -120t3.5 -120q0 -16 -0.5 -32t-1.5 -32q-13 -12 -26 -23.5t-25 -24.5q2 32 3 64.5
t1 65.5q0 64 -2 128t-2 129q0 76 6 151l-10 2h-1q-4 -40 -5.5 -79t-1.5 -79q0 -62 2 -123.5t2 -123.5q0 -37 -1 -73.5t-5 -72.5q-8 -8 -17 -15l-18 -14q-45 32 -95 50t-107 18q-30 0 -65 -8t-65 -25.5t-50 -43.5t-20 -62q0 -20 8 -40.5t20.5 -40t28 -36t29.5 -29.5
q22 -19 53.5 -31.5t60.5 -12.5q62 0 118 29t99 72l-6 6q-12 -8 -22.5 -17.5t-23.5 -17.5q-31 -19 -66.5 -30.5t-71.5 -11.5q-33 0 -69.5 10t-68 29t-53.5 47t-25 64l-1 7q-1 16 7 27t21 18t28.5 9.5t28.5 2.5q18 0 39.5 -5.5t43 -15t40.5 -21.5t32 -24q8 -8 13 -18t12 -19
q17 24 39.5 43t47.5 35q38 25 72 53.5t68 58.5q0 -30 1 -53.5t8 -42.5t21.5 -36t41.5 -35q37 42 78 77t77 77zM475 476q0 40 -13.5 81.5t-38.5 74.5t-60.5 54t-79.5 21q-35 0 -68.5 -10.5t-63 -23.5t-54 -23.5t-40.5 -10.5q-8 0 -14.5 3.5t-6.5 13.5t5 15t12 10l-7 2
q-15 -11 -25.5 -30t-10.5 -37q0 -20 9 -34t23 -22t31 -11.5t34 -3.5q33 0 64.5 9.5t63.5 9.5q36 0 58.5 -17t35.5 -43.5t17.5 -58t4.5 -59.5q0 -26 -6 -51.5t-18.5 -46t-33.5 -33.5t-51 -13q-24 0 -48.5 10.5t-37.5 32.5q8 -2 17 -4t17 -2q33 0 54 23t21 55q0 15 -6.5 29
t-17.5 25t-25 17.5t-29 6.5q-16 0 -30.5 -7.5t-25 -19.5t-16.5 -27t-6 -30q0 -28 14 -51t36 -39t48.5 -25t51.5 -9q45 0 84.5 23.5t69 59.5t46 80t16.5 86z" />
    <glyph glyph-name="germandbls" unicode="&#xdf;" horiz-adv-x="380" 
d="M181 -124q0 21 26 47.5t57.5 59t57.5 72t26 86.5q0 28 -12.5 47.5t-31.5 33.5t-43 22.5t-46 13.5q18 10 36.5 22t33.5 26.5t24.5 33t9.5 41.5q0 24 -9.5 41t-21.5 31.5t-23 27t-13 27.5q-5 -11 -13.5 -18.5t-18.5 -14t-20 -12.5t-19 -13q-15 -13 -30.5 -26t-28.5 -29
q0 15 1.5 48t4.5 69.5t7 67.5t9 42q5 -18 20.5 -31t35.5 -13q16 0 32 4t29 12.5t22 21.5t11 31l-7 6v2q-3 -15 -18 -22q-26 4 -39.5 19.5t-16.5 41.5q-11 -17 -27 -31t-33 -26q-22 -15 -43 -32.5t-38.5 -38t-30.5 -44t-19 -50.5q-10 -46 -11.5 -96.5t-1.5 -98.5
q0 -89 7 -176.5t15 -175.5l6 -10l1 -1q-1 9 -1.5 27.5t2.5 37t10.5 32.5t22.5 14q7 0 13 -1t13 -1q5 -2 11 -4.5t11 -4.5q1 29 1.5 59t0.5 59q0 19 1.5 34.5t7 28t16.5 22.5t30 19q18 -2 30 -12t18.5 -25t9 -32t2.5 -32q0 -46 -14.5 -76.5t-32 -54.5t-32 -46.5t-14.5 -52.5
q0 -18 7 -35t21 -29q1 0 4.5 -1.5t4.5 -1.5q34 0 53.5 23t27.5 54l-9 -4l-1 -1q-1 -6 -5.5 -15.5t-10.5 -18.5t-13.5 -15.5t-14.5 -6.5q-9 0 -18 5.5t-9 16.5zM231 334q0 -18 -6.5 -30.5t-16 -22.5t-22 -18t-24.5 -18q-10 -8 -19 -16.5t-20 -16.5q0 26 -2 52.5t-2 52.5
q0 32 7 57t36 43q10 -6 22.5 -14.5t22.5 -19t17 -23t7 -26.5z" />
    <glyph glyph-name="agrave" unicode="&#xe0;" 
d="M411 278q0 44 -17 83t-46 68t-68 46t-83 17t-83 -17t-68 -46t-46 -68t-17 -83t17 -83t46 -68t68 -46t83 -17t83 17t68 46t46 68t17 83zM389 278q0 -40 -15 -75t-41 -61t-61 -41t-75 -15t-75 15t-61 41t-41 61t-15 75t15 75t41 61t61 41t75 15t75 -15t61 -41t41 -61
t15 -75zM244 183q10 0 21.5 9.5t22 22.5t17.5 27t7 23q0 8 -3 17.5t-8.5 18t-12.5 14t-16 5.5q-13 0 -21.5 -13t-13 -30t-6 -35t-1.5 -27v-9q0 -5 1.5 -10.5t4.5 -9t8 -3.5zM283 243q-1 -5 -4.5 -14.5t-8 -18.5t-10.5 -16t-13 -7l-2 1v2q0 3 1 6t1 6q12 24 15 50
q5 -2 10.5 -4.5t10.5 -4.5zM280 269l-18 -17q1 5 1 14t0.5 19t1 18t2.5 11l7 2q10 -2 11.5 -14t1.5 -20v-7l-1 -9zM165 375q-1 5 -3.5 14t-10.5 9q-11 0 -23 -9t-22 -22t-16.5 -27.5t-6.5 -24.5q0 -8 2.5 -17t7.5 -17.5t12 -14t16 -5.5q13 0 22 12.5t13.5 29.5t6.5 34.5
t2 27.5q13 -8 32 -8q18 0 32 7q-24 -44 -43 -90t-46 -88l4 -4q18 25 31.5 52t26 54.5t25.5 54.5t29 53q-2 1 -5 4q-5 -8 -9.5 -15t-9.5 -15q-14 -7 -32 -7q-10 0 -19 2.5t-16 9.5zM129 346l-16 -15q4 -7 13 -12l6 5q0 -4 0.5 -14t0 -20t-2.5 -17.5t-8 -7.5q-4 0 -6.5 3.5
t-4.5 6.5q-3 12 -3 24q0 9 2 24t6.5 29.5t12 26.5t17.5 16q1 -1 2 -1.5t2 -2.5v-1q0 -1 -2 -8t-4.5 -15l-5 -16t-3.5 -11q-4 1 -6 6zM100 202l-17 -17q3 -14 11 -23.5t19 -15t24.5 -7.5t25.5 -2q17 0 33 2.5t32 5.5l21 19q-19 -3 -37.5 -6t-37.5 -3q-27 0 -47.5 8.5
t-26.5 38.5z" />
    <glyph glyph-name="aacute" unicode="&#xe1;" 
d="M411 278q0 44 -17 83t-46 68t-68 46t-83 17t-83 -17t-68 -46t-46 -68t-17 -83t17 -83t46 -68t68 -46t83 -17t83 17t68 46t46 68t17 83zM389 278q0 -40 -15 -75t-41 -61t-61 -41t-75 -15t-75 15t-61 41t-41 61t-15 75t15 75t41 61t61 41t75 15t75 -15t61 -41t41 -61
t15 -75zM244 183q10 0 21.5 9.5t22 22.5t17.5 27t7 23q0 8 -3 17.5t-8.5 18t-12.5 14t-16 5.5q-13 0 -21.5 -13t-13 -30t-6 -35t-1.5 -27v-9q0 -5 1.5 -10.5t4.5 -9t8 -3.5zM274 316q11 -2 12 -15.5t1 -21.5t-2.5 -23t-7.5 -30.5t-12.5 -27t-17.5 -11.5l-2 1v2q0 3 1 6t1 6
q9 18 13 38t4 40q0 8 -1 18t4 16zM150 391q0 -1 -3 -11t-6.5 -23.5t-6.5 -28t-3 -24.5q0 -3 0.5 -9.5t0.5 -13.5q0 -6 -2 -11t-8 -5q-4 0 -6.5 3.5t-4.5 6.5q-3 12 -3 24q0 9 2 24t6.5 29.5t12 26.5t17.5 16q1 -1 2 -1.5t2 -2.5zM165 375q-1 5 -3.5 14t-10.5 9q-11 0 -23 -9
t-22 -22t-16.5 -27.5t-6.5 -24.5q0 -8 2.5 -17t7.5 -17.5t12 -14t16 -5.5q13 0 22 12.5t13.5 29.5t6.5 34.5t2 27.5q13 -8 32 -8q18 0 32 7q-24 -44 -43 -90t-46 -88l4 -4q18 25 31.5 52t26 54.5t25.5 54.5t29 53q-2 1 -5 4q-5 -8 -9.5 -15t-9.5 -15q-14 -7 -32 -7
q-10 0 -19 2.5t-16 9.5z" />
    <glyph glyph-name="acircumflex" unicode="&#xe2;" 
d="M411 278q0 44 -17 83t-46 68t-68 46t-83 17t-83 -17t-68 -46t-46 -68t-17 -83t17 -83t46 -68t68 -46t83 -17t83 17t68 46t46 68t17 83zM389 278q0 -40 -15 -75t-41 -61t-61 -41t-75 -15t-75 15t-61 41t-41 61t-15 75t15 75t41 61t61 41t75 15t75 -15t61 -41t41 -61
t15 -75zM247 368q0 6 -5 13.5t-11 7.5q-5 0 -9 -3.5t-4 -8.5q0 -8 5 -13.5t13 -5.5q4 0 7.5 2.5t3.5 7.5zM274 222l-2 1q-7 -7 -10 -11q-3 2 -5 14t-2.5 27t-0.5 28v20q0 16 14 24l-3 3q-3 -2 -5.5 -4.5t-5.5 -4.5q-2 9 -8.5 17t-11.5 16q-10 -11 -22 -18.5t-22 -18.5l2 -3
q3 3 6.5 5.5t7.5 5.5q2 -2 3.5 -4t3.5 -4q4 -9 4.5 -24.5t0.5 -26.5v-19q0 -13 -1 -21t0 -14.5t5 -13t14 -16.5q4 6 7 8q-1 1 -0.5 1.5l0.5 0.5q6 9 15.5 15.5t15.5 16.5zM228 404l-3 3q-6 -6 -10 -6l-3 2q-4 4 -5 7q-8 -10 -18.5 -17.5t-20.5 -15.5t-17.5 -18t-9.5 -25
q-3 0 -6 -1l-6 -2q-1 -3 -1 -6t-1 -6q3 1 6.5 1.5t6.5 1.5q-3 -26 -3 -52q0 -31 2 -62t3 -62l3 -4q0 6 -0.5 14t0.5 15t5 11.5t13 4.5l11 -1q1 11 1 21v21q0 25 -0.5 49.5t1.5 49.5q5 0 10.5 0.5t10.5 0.5q1 5 1 9q0 5 2 10q-6 -2 -12 -2.5t-12 -1.5q2 10 3.5 19.5t3.5 19.5
q8 -4 14 -4q11 0 18.5 9t12.5 17z" />
    <glyph glyph-name="atilde" unicode="&#xe3;" 
d="M411 278q0 44 -17 83t-46 68t-68 46t-83 17t-83 -17t-68 -46t-46 -68t-17 -83t17 -83t46 -68t68 -46t83 -17t83 17t68 46t46 68t17 83zM389 278q0 -40 -15 -75t-41 -61t-61 -41t-75 -15t-75 15t-61 41t-41 61t-15 75t15 75t41 61t61 41t75 15t75 -15t61 -41t41 -61
t15 -75zM283 365q0 10 -10.5 22.5t-20.5 12.5q-22 0 -29.5 -25t-8.5 -57.5t0.5 -63.5t-2.5 -44q-2 -5 -8.5 -12t-11.5 -10l3 -3q5 3 9 7l9 9q3 -8 5 -11.5t4 -6t5 -5t8 -7.5q9 12 21.5 20.5t23.5 19.5l-3 3q-6 -8 -10 -11q-8 3 -10.5 10.5t-2.5 14.5q1 31 0 61.5t-1 60.5v25
q0 5 0.5 10.5t5.5 7.5h3q4 -1 7 -6q-5 2 -7 -1.5t-2 -6.5q0 -5 5 -12t11 -7q7 0 7 5zM229 399l-3 2q-2 -2 -5 -4.5t-7 -2.5q-5 0 -6 4l-2 8q-25 -17 -43.5 -31.5t-26.5 -45.5q-3 -1 -5.5 -1.5t-5.5 -1.5l-2 -6t-1 -6q4 1 7 1t6 2q-4 -45 -1.5 -88t4.5 -88l4 -3
q0 6 -0.5 13.5t0.5 14t5 11t13 4.5q6 0 9 -1q1 8 1 15v15v27q0 21 -0.5 42t0.5 42q5 0 11 0.5t11 0.5q1 5 1.5 9.5t1.5 9.5l-23 -5q1 11 2.5 20.5t3.5 20.5q3 -7 12 -7q13 0 22.5 10.5t16.5 18.5z" />
    <glyph glyph-name="adieresis" unicode="&#xe4;" horiz-adv-x="423" 
d="M330 583q0 10 -4 21t-10.5 20.5t-16 16t-20.5 6.5q-20 0 -34.5 -14t-14.5 -34q0 -23 17 -38t39 -15q15 0 29.5 10t14.5 27zM107 542q12 0 25.5 5.5t25 14.5t19 20.5t7.5 23.5q0 13 -8 25t-22 12q-12 0 -24.5 -8.5t-23.5 -20.5t-18 -26t-7 -25q0 -12 7.5 -16.5t18.5 -4.5z
M392 166q-2 0 -3 0.5t-3 0.5h-2q-10 -17 -23 -35q-8 5 -13.5 13.5t-5.5 18.5q0 3 2 9q6 27 7 57.5t1 58.5q0 24 -1.5 48t-1.5 47q0 18 11.5 32.5t24.5 25.5l-9 9q-11 -6 -19 -15t-16 -19q-7 21 -20.5 37.5t-31 30t-36 25.5t-34.5 24q-16 -24 -38 -41.5t-45.5 -33t-46 -31
t-40.5 -34t-29 -42.5t-11 -57q0 -7 0.5 -13.5t1.5 -13.5q-2 -7 -1 -12.5t1 -12.5q0 -21 4.5 -44t12.5 -46t19 -44.5t23 -38.5q9 -13 19 -25.5t14 -28.5q11 9 21 17.5t22 16.5q20 13 41 27.5t38 31.5q0 -26 13 -49.5t24 -46.5q14 16 27.5 32.5t29.5 31.5q21 20 40 41.5
t33 47.5zM130 437q26 -20 45.5 -33.5t32 -29t18.5 -37.5t6 -59q0 -38 -2 -76.5t-6 -76.5q-9 -12 -21.5 -19.5t-22.5 -18.5q-16 12 -25.5 22t-15 21t-7 24.5t-1.5 33.5q0 48 -1.5 95t-1.5 95v30t2 29z" />
    <glyph glyph-name="aring" unicode="&#xe5;" 
d="M411 278q0 44 -17 83t-46 68t-68 46t-83 17t-83 -17t-68 -46t-46 -68t-17 -83t17 -83t46 -68t68 -46t83 -17t83 17t68 46t46 68t17 83zM389 278q0 -40 -15 -75t-41 -61t-61 -41t-75 -15t-75 15t-61 41t-41 61t-15 75t15 75t41 61t61 41t75 15t75 -15t61 -41t41 -61
t15 -75zM290 315q0 14 -8.5 24.5t-23.5 10.5q-16 0 -30 -8t-29 -11q2 9 7 18l10 18t9 17.5t4 17.5q0 10 -6 18.5t-17 8.5q-14 0 -24.5 -11t-10.5 -25q0 -17 9.5 -31t11.5 -31q-3 1 -6.5 2t-6.5 2q-7 5 -22.5 11t-23.5 6q-13 0 -22.5 -11t-9.5 -23q0 -24 23 -24q7 0 15.5 4
t17.5 9.5l18 11t17 7.5q-1 -23 -4 -46.5t-10 -46.5q-5 -16 -11 -31t-6 -32q0 -11 5 -21.5t18 -10.5q18 0 28 16.5t10 32.5q0 30 -10 60.5t-13 61.5q-1 5 -1 8v9q6 -3 15.5 -8.5t19.5 -10.5t19 -9t15 -4q10 0 16.5 5t6.5 16z" />
    <glyph glyph-name="ae" unicode="&#xe6;" 
d="M411 278q0 44 -17 83t-46 68t-68 46t-83 17t-83 -17t-68 -46t-46 -68t-17 -83t17 -83t46 -68t68 -46t83 -17t83 17t68 46t46 68t17 83zM389 278q0 -40 -15 -75t-41 -61t-61 -41t-75 -15t-75 15t-61 41t-41 61t-15 75t15 75t41 61t61 41t75 15t75 -15t61 -41t41 -61
t15 -75zM246 262v48l-6 -6v-48zM149 256q14 0 27 8.5t23 21.5t16 28.5t6 28.5q0 11 -3 23t-9.5 22t-16 16.5t-22.5 6.5q-11 0 -22.5 -4t-22 -8.5t-18.5 -8t-12 -3.5h-5q0 8 6 12h-2q-5 -4 -10 -10.5t-5 -13.5q0 -10 7.5 -13.5t15.5 -3.5q11 0 22 4t22 4q19 0 27 -14t8 -31
q0 -9 -2 -19.5t-6.5 -19.5t-12 -14.5t-19.5 -5.5q-8 0 -15.5 3t-11.5 11q13 -5 25 2.5t12 21.5q0 11 -6.5 18t-17.5 7t-19.5 -9.5t-8.5 -20.5q0 -19 16.5 -29t33.5 -10zM331 235l-2 1l-15 -15q-8 2 -12 10t-4 16q0 32 -3 63.5t-3 63.5q0 7 1.5 12t9.5 7l-2 4
q-19 -2 -28.5 -9.5t-14 -18t-5 -24.5t-0.5 -29q0 -17 0.5 -34t1.5 -34q-5 -4 -8.5 -8t-7.5 -8q0 20 -0.5 41t-0.5 41q0 23 1 46t5 46l-3 1q-4 -23 -5.5 -46t-1.5 -46v-31v-56l-12 -9q-15 10 -31 16.5t-34 6.5q-11 0 -23 -3t-22 -8.5t-17 -14.5t-7 -21t6.5 -23.5t16.5 -20
t22 -14t23 -5.5q21 0 38.5 10t32.5 23l-1 3q-11 -11 -28.5 -18.5t-34.5 -7.5q-10 0 -22.5 3.5t-23.5 10t-18.5 16t-7.5 21.5q0 11 10 15.5t18 4.5q17 0 35 -9t26 -25q15 19 36.5 32.5t38.5 30.5q1 -11 1.5 -18.5t2.5 -13.5t7 -12t14 -12q12 13 25.5 24.5t25.5 24.5z" />
    <glyph glyph-name="ccedilla" unicode="&#xe7;" 
d="M411 278q0 44 -17 83t-46 68t-68 46t-83 17t-83 -17t-68 -46t-46 -68t-17 -83t17 -83t46 -68t68 -46t83 -17t83 17t68 46t46 68t17 83zM389 278q0 -40 -15 -75t-41 -61t-61 -41t-75 -15t-75 15t-61 41t-41 61t-15 75t15 75t41 61t61 41t75 15t75 -15t61 -41t41 -61
t15 -75zM290 315q0 14 -8.5 24.5t-23.5 10.5q-16 0 -30 -8t-29 -11q2 9 7 18l10 18t9 17.5t4 17.5q0 10 -6 18.5t-17 8.5q-14 0 -24.5 -11t-10.5 -25q0 -17 9.5 -31t11.5 -31q-3 1 -6.5 2t-6.5 2q-7 5 -22.5 11t-23.5 6q-13 0 -22.5 -11t-9.5 -23q0 -24 23 -24q7 0 15.5 4
t17.5 9.5l18 11t17 7.5q-1 -23 -4 -46.5t-10 -46.5q-5 -16 -11 -31t-6 -32q0 -11 5 -21.5t18 -10.5q18 0 28 16.5t10 32.5q0 30 -10 60.5t-13 61.5q-1 5 -1 8v9q6 -3 15.5 -8.5t19.5 -10.5t19 -9t15 -4q10 0 16.5 5t6.5 16zM119 281q0 -11 11 -11t11 11t-11 11t-11 -11z
M229 283q0 -11 11 -11t11 11t-11 11t-11 -11zM167 117q0 -11 11 -11t11 11t-11 11t-11 -11z" />
    <glyph glyph-name="egrave" unicode="&#xe8;" 
d="M411 278q0 44 -17 83t-46 68t-68 46t-83 17t-83 -17t-68 -46t-46 -68t-17 -83t17 -83t46 -68t68 -46t83 -17t83 17t68 46t46 68t17 83zM225 88q-7 -1 -14 -1.5t-14 -0.5q-40 0 -75 15t-61 41t-41 61t-15 75t15 75t41 61t61 41t75 15q23 0 46 -6v-15q0 -6 -1 -14
q-10 2 -20.5 4t-21.5 2q-29 0 -52.5 -15t-40 -38t-25 -50.5t-8.5 -53.5t7 -54.5t21.5 -52t37 -39t53.5 -15.5q11 0 20 1.5t20 2.5q-2 -10 -4 -19.5t-4 -19.5zM293 406l-1 6q-10 7 -21.5 12t-22.5 9v30q31 -9 57 -26.5t44.5 -42t29 -54.5t10.5 -62q0 -35 -12 -66.5t-33 -57
t-50.5 -42.5t-63.5 -23q2 10 4 19.5t4 19.5q26 6 51 20l1 4q-24 -12 -50 -18q5 30 7 60t2 60q0 32 -1.5 65t-1.5 66q0 11 0.5 21t0.5 21q12 -3 23.5 -8.5t22.5 -12.5zM242 429q-3 -45 -1.5 -89.5t1.5 -89.5q0 -29 -1.5 -58.5t-6.5 -58.5q-10 -2 -15 -2q-7 0 -13 2
q-12 4 -17.5 25.5t-8 47.5t-2.5 51v36q0 12 0.5 35t5 46.5t14 40.5t27.5 17q4 0 8 -1t9 -2z" />
    <glyph glyph-name="eacute" unicode="&#xe9;" 
d="M301 440q28 -19 48.5 -46t30.5 -59l-48 4t-49 3q4 25 8.5 49t9.5 49zM14 337q20 60 70 96.5t113 36.5q37 0 73 -14q-8 -28 -16 -55.5t-13 -56.5q-19 1 -37.5 0.5t-37.5 0.5q17 65 47 124h-6q-8 1 -16.5 0t-16.5 -1q-15 -30 -28 -61t-22 -63q-28 0 -55 -2.5t-55 -4.5z
M6 257q-1 5 -1 10v11q0 8 0.5 15t1.5 14q28 2 55 2.5t54 1.5q-3 -14 -4 -28.5t-3 -28.5q-26 1 -51.5 1.5t-51.5 1.5zM86 121q-28 20 -47.5 48t-27.5 61q23 -2 46.5 -4t46.5 -2q-3 -26 -8 -51.5t-10 -51.5zM82 98l-1 -1h2q29 -16 55 -24.5t59 -8.5q44 0 83 17t68 46t46 68
t17 83t-17 83t-46 68t-68 46t-83 17t-83 -17t-68 -46t-46 -68t-17 -83q0 -55 26 -103t73 -77zM173 88q-15 2 -29.5 6t-28.5 10q10 29 18 58.5t14 59.5q20 -1 38.5 -0.5t37.5 0.5q-6 -35 -20 -68.5t-30 -65.5zM383 229q-8 -32 -26 -58.5t-42.5 -45.5t-54.5 -29.5t-63 -9.5
h-13l26 1q19 32 34 66t23 70l58 2t58 4zM387 307q1 -8 1.5 -14.5t0.5 -14.5q0 -21 -4 -37q1 7 0 16q-28 -2 -56 -2t-56 -1q2 14 3 28l2 28q28 0 55 -1zM236 311q-2 -14 -3.5 -28.5t-3.5 -28.5h-77q2 14 3.5 28.5t3.5 28.5q17 -1 33 0t33 0h11z" />
    <glyph glyph-name="ecircumflex" unicode="&#xea;" horiz-adv-x="453" 
d="M421 343v16q-2 75 -27.5 145t-64.5 133q-16 26 -37 47.5t-54 21.5q-24 0 -47.5 -14t-45 -34.5t-39 -44t-29.5 -41.5q-29 -45 -48.5 -96t-19.5 -105q0 -22 6 -57.5t17 -76.5t27 -82.5t36.5 -75t44.5 -54.5t51 -21q19 0 36 7t32 18t28.5 24.5t24.5 27.5q46 56 78.5 122.5
t30.5 139.5zM290 607q0 -30 -2 -59.5t-2 -59.5q0 -46 1.5 -91.5t1.5 -90.5v-44q0 -27 -2.5 -59.5t-8 -65.5t-15.5 -60.5t-26 -44.5t-39 -17q-17 0 -26.5 9t-14 22.5t-6 29t-1.5 27.5q0 27 2 54t2 54q0 51 -1.5 101.5t-1.5 101.5q0 15 0.5 42t2.5 58.5t7 63.5t15 58
t25.5 42.5t37.5 16.5q16 0 26.5 -9t15.5 -22.5t7 -29t2 -27.5z" />
    <glyph glyph-name="edieresis" unicode="&#xeb;" horiz-adv-x="273" 
d="M242 88q-23 -28 -54 -44q15 73 20 146.5t5 147.5q0 67 -2 134t-2 134v50t2 50q-36 -35 -72.5 -69.5t-72.5 -69.5q-14 -14 -28 -29t-29 -29l3 -6h1q17 15 33 32t35 31q-5 -45 -6 -89t-1 -89q0 -57 1 -112t1 -111q0 -61 -3 -122q-15 8 -26.5 20.5t-22.5 25.5l1 -7l-1 -2
q15 -29 44 -44.5t61 -15.5q16 0 34 4.5t34 13t28 21t17 29.5z" />
    <glyph glyph-name="igrave" unicode="&#xec;" horiz-adv-x="443" 
d="M177 2q39 0 80.5 22.5t76 57t56.5 76t22 80.5q0 46 -28 83t-65 60q-15 9 -31.5 15t-33.5 11q20 7 42.5 17t42 24.5t32 33t12.5 44.5q0 28 -13 59.5t-34.5 57t-49.5 42t-58 15.5h-5q-53 -2 -97.5 -34.5t-72.5 -75.5q-9 -14 -16 -29.5t-7 -32.5q0 -26 16 -38t40 -12t47 9
t40 28q5 14 9 20t4 23q0 18 -14 32t-32 14q-14 0 -28.5 -8t-26.5 -20.5t-19.5 -28t-7.5 -29.5q0 -3 0.5 -6.5t0.5 -7.5q-17 12 -17 33q0 20 16 45.5t39.5 48t50 37.5t47.5 15q23 0 37.5 -11.5t22.5 -28.5t10.5 -37.5t2.5 -38.5q0 -34 -3.5 -57t-13.5 -41t-28 -32.5
t-46 -32.5q-9 -2 -21.5 -5.5t-25 -9t-22 -13t-12.5 -16.5q5 -8 13 -11q21 7 39.5 19.5t37.5 24.5q11 -2 26 -7t23 -13q12 -12 20 -28.5t12.5 -35.5t6.5 -38t2 -35q0 -27 -5 -64.5t-18.5 -71t-36.5 -57t-60 -23.5q-24 0 -48 16.5t-42.5 40.5t-30.5 51.5t-12 49.5q0 12 5.5 23
t13.5 19q0 -5 -1 -10.5t-1 -10.5q0 -8 3.5 -18t9.5 -20t13.5 -18t14.5 -12q4 -2 7.5 -3.5t7.5 -3.5q3 1 6.5 0t7.5 -1q26 0 42 16.5t16 42.5q0 15 -8 27.5t-21 22t-28 14.5t-28 5t-26.5 -5t-24 -14t-17 -21t-6.5 -26q0 -29 15 -61t39 -59t54 -45t60 -18z" />
    <glyph glyph-name="iacute" unicode="&#xed;" horiz-adv-x="430" 
d="M399 231l-11 -3q-2 -14 -8 -31.5t-15.5 -33t-23 -26.5t-29.5 -11q-12 0 -25 8.5t-29.5 19t-38 19t-48.5 8.5q-35 0 -67.5 -13.5t-59.5 -35.5q3 7 3.5 14t5.5 14l14 22t18 18q12 15 28 26.5t33.5 20.5t36 16.5t35.5 16.5q30 15 60.5 33.5t55.5 42.5t41 54t16 67
q0 32 -14 72.5t-38 75.5t-56 58.5t-68 22.5h-7q-29 -1 -52 -10.5t-43.5 -25t-38 -35.5t-33.5 -41q-5 -7 -11 -16.5t-10.5 -20t-7.5 -20.5t-3 -19q0 -31 24 -46.5t52 -15.5q13 0 27.5 7t27 18t20.5 24.5t8 27.5q0 23 -11 40t-37 17q-14 0 -28 -7.5t-25.5 -19.5t-19 -26.5
t-7.5 -28.5t5 -23q-14 8 -18.5 16t-4.5 25q0 24 15.5 51t39 50.5t50.5 39t51 15.5q25 0 41 -14.5t25 -35.5t12.5 -45.5t3.5 -43.5q0 -52 -17.5 -93.5t-43.5 -77t-56.5 -67t-56.5 -64t-43.5 -67.5t-17.5 -77q0 -6 0.5 -12t1.5 -12l7 -7q-3 20 4 37t30 17q3 0 5.5 -0.5
t5.5 -1.5q26 -9 40 -27.5t26 -37t28.5 -32t46.5 -13.5q2 0 4 -0.5t4 0.5q33 8 63 31.5t53 55t38 67.5t17 69z" />
    <glyph glyph-name="icircumflex" unicode="&#xee;" horiz-adv-x="479" 
d="M448 217q-26 -8 -52 -13.5t-53 -8.5q5 42 6 82.5t1 82.5q0 58 -1.5 115t-1.5 115q0 56 3 112q-26 -60 -63.5 -120t-72.5 -115v-29q-1 -41 0.5 -80.5t1.5 -80.5q0 -23 -0.5 -44.5t-2.5 -44.5q-47 1 -93 6t-91 19q17 23 36 43.5t33 45.5q27 49 48.5 100.5t41.5 104
t41.5 104t47.5 101.5q-23 -2 -42.5 -12.5t-34.5 -27.5q-7 -8 -11 -16.5t-11 -15.5q0 16 -2 31t-4 31l-12 -3q3 -14 4 -29t1 -29t-1 -28t-4 -28q-10 -50 -22 -99.5t-29.5 -96.5t-41.5 -91.5t-58 -83.5l2 -16q48 -19 99 -27.5t103 -8.5q-2 -33 -6 -66t-12 -65q-14 2 -27.5 3
t-27.5 4q0 -2 -1 -4.5t-1 -4.5v-2q38 -8 73 -8q79 0 151 35q1 2 2 6t3 6q-14 -6 -27.5 -11.5t-27.5 -10.5q10 31 16.5 62.5t13.5 63.5q26 4 51.5 10t49.5 16z" />
    <glyph glyph-name="idieresis" unicode="&#xef;" horiz-adv-x="431" 
d="M154 4q46 0 90 26.5t78.5 67t55.5 89t21 93.5q0 39 -15.5 78.5t-42 72t-62.5 52.5t-78 20q-43 0 -80 -23.5t-63 -56.5l14 104t16 103q24 -24 56.5 -41t67.5 -17q23 0 50 3t51 13t40.5 28t18.5 48q-9 -1 -17.5 -2.5t-16.5 -1.5q-26 0 -51 2t-51 4q-62 3 -124 3h-42
q3 -7 3.5 -13t0.5 -14q0 -23 -4.5 -62.5t-11.5 -82t-15.5 -80.5t-17.5 -59q0 -7 1 -10l8 -5l10 4q3 3 6 11.5t5.5 18l5 19t4.5 15.5q5 12 17 24t27 22.5t30.5 17t28.5 6.5q33 0 54 -22t33 -53.5t17 -66t5 -59.5q0 -19 -2 -45t-7 -55t-13.5 -57.5t-22.5 -51t-33 -36.5
t-44 -14q-23 0 -40.5 9.5t-32 24.5t-25.5 33.5t-20 36.5q-2 4 -4.5 11t-4.5 14.5t-3.5 15t-1.5 11.5q0 12 4.5 24t14.5 20q1 -14 6 -29t13.5 -28t20.5 -21t29 -8q21 0 39 18t18 40q0 14 -6.5 27t-17 23.5t-24 16.5t-27.5 6q-33 0 -58.5 -16t-25.5 -53q0 -6 2 -14
q5 -24 14.5 -49.5t23.5 -48.5t32.5 -41.5t42.5 -29.5q4 -2 15 -6t15 -4z" />
    <glyph glyph-name="ntilde" unicode="&#xf1;" horiz-adv-x="445" 
d="M200 1q39 0 77.5 29t68.5 71t48.5 88.5t18.5 81.5q0 36 -9 71t-32 64q-9 11 -21 23t-26.5 22t-30 16.5t-30.5 6.5q-40 0 -66.5 -16.5t-49.5 -48.5q0 20 0.5 49t3.5 60.5t9.5 62.5t19 55.5t32.5 40t50 15.5q26 0 48.5 -20.5t34.5 -42.5q-9 5 -16 9t-18 4q-24 0 -34 -14
t-14 -34q-3 -14 3 -27.5t17 -23.5t25 -16t27 -6q17 0 31 11.5t14 29.5q0 21 -11 45.5t-28.5 45.5t-39.5 35.5t-44 14.5q-26 0 -49.5 -9.5t-43.5 -25t-37.5 -34.5t-32.5 -38q-39 -52 -62.5 -113.5t-23.5 -127.5q0 -25 5.5 -60.5t16 -75t26 -78.5t37 -70t48 -50.5t58.5 -19.5z
M235 456q22 0 33.5 -19.5t16.5 -46t5.5 -53.5t0.5 -41q0 -15 -0.5 -41.5t-3 -58t-8 -64.5t-16 -59.5t-25.5 -43.5t-38 -17q-18 0 -28.5 10.5t-15 25.5t-5.5 32t-1 30q0 32 1.5 64t1.5 64q0 26 -1.5 51t-1.5 51q0 20 4 39t16 36q10 13 29 27t36 14z" />
    <glyph glyph-name="ograve" unicode="&#xf2;" horiz-adv-x="441" 
d="M189 2q37 0 76 25t71.5 62.5t53 81t20.5 79.5q0 37 -17.5 66t-39.5 56q-10 12 -22.5 19t-21.5 18q29 18 52.5 46t23.5 65q0 27 -13.5 59.5t-35.5 60.5t-50 47t-57 19q-38 0 -76 -22.5t-69 -57t-50 -75t-19 -77.5q0 -32 14 -63.5t36 -54.5q6 -6 12.5 -11t11.5 -12
q-14 -11 -28 -23t-25 -26t-18.5 -30t-7.5 -35q0 -30 16 -67.5t41.5 -70.5t57.5 -56t64 -23zM216 694q33 0 56.5 -16.5t39.5 -41.5t23.5 -55t7.5 -58t-12.5 -59t-36.5 -47q-19 8 -37 16t-38 13q-19 5 -47 11t-53.5 16t-43.5 27t-18 44q0 25 16 51.5t39.5 48.5t51.5 36t52 14z
M359 174q0 -26 -16 -54t-40.5 -51.5t-53.5 -39t-54 -15.5q-33 0 -58 20t-41.5 50t-24.5 64t-8 61q0 20 2 34.5t7 27.5t13.5 25t21.5 27q23 -8 45 -16.5t45 -15.5q22 -6 50 -14t53 -21t42 -32.5t17 -49.5z" />
    <glyph glyph-name="oacute" unicode="&#xf3;" horiz-adv-x="407" 
d="M374 642l-4 6l-2 1q-1 -15 -6 -29t-22 -14q-13 0 -28 15l-33.5 33.5t-41 33.5t-49.5 15q-28 0 -59.5 -22t-58 -54t-44 -67.5t-17.5 -61.5h6t6 2q-3 25 10 48.5t29 41.5q11 5 21 12.5t23 7.5q15 0 27.5 -10t28 -22t38 -22t58.5 -10q32 0 58 11.5t49 31.5q-2 -28 -21 -61
t-45.5 -70.5t-57 -78.5t-57 -85t-43.5 -91t-17 -96q0 -13 3.5 -31t10.5 -34.5t18.5 -28t28.5 -11.5q22 0 39 15.5t28 32.5q10 15 16 33t8.5 37.5t3.5 39t3 37.5q5 57 12 116t25 113q8 24 18 46.5t19 45t15 46t6 49.5q0 8 -0.5 15t-1.5 14z" />
    <glyph glyph-name="ocircumflex" unicode="&#xf4;" horiz-adv-x="449" 
d="M417 353q0 22 -5.5 57t-16 74.5t-26 79t-36 71t-46 51.5t-54.5 20q-45 0 -85.5 -29t-71 -72t-49 -92t-18.5 -89q0 -31 12 -65t33 -62.5t50 -47t64 -18.5q32 0 62 19.5t47 46.5v-17q0 -29 -2 -73.5t-13.5 -87.5t-34.5 -73.5t-65 -30.5q-14 0 -26.5 6t-24 16t-20 21.5
t-14.5 22.5q10 -6 17 -10t19 -4q20 0 34.5 14.5t14.5 34.5q0 30 -23 50t-52 20q-15 0 -29.5 -9.5t-14.5 -26.5q0 -21 10.5 -46.5t27.5 -47.5t39 -37t45 -15q27 0 50.5 10t44.5 25.5t39 35t33 39.5q41 51 63 112.5t22 126.5zM276 598q0 -38 -1.5 -76t-1.5 -76q0 -18 1.5 -39
t0.5 -42t-5.5 -40.5t-16.5 -34.5q-10 -12 -28.5 -26.5t-35.5 -14.5q-21 0 -32 17.5t-16.5 41.5t-6 48.5t-0.5 38.5q0 15 0.5 43.5t2.5 61.5t7.5 68t16 63t26 46t39.5 18q19 0 29 -10t14.5 -25t5.5 -32t1 -30z" />
    <glyph glyph-name="otilde" unicode="&#xf5;" 
d="M411 278q0 44 -17 83t-46 68t-68 46t-83 17t-83 -17t-68 -46t-46 -68t-17 -83t17 -83t46 -68t68 -46t83 -17t83 17t68 46t46 68t17 83zM389 278q0 -40 -15 -75t-41 -61t-61 -41t-75 -15t-75 15t-61 41t-41 61t-15 75t15 75t41 61t61 41t75 15t75 -15t61 -41t41 -61
t15 -75zM291 302q0 9 -9 18t-18 9q-12 0 -19 -7.5t-11 -18.5t-6 -22.5t-3 -20.5q-7 12 -14.5 24.5t-12.5 26.5q12 11 22.5 23t10.5 30q0 11 -4.5 21.5t-18.5 10.5q-12 0 -24 -7.5t-21 -18.5t-15 -24t-6 -25q0 -10 3 -19t7 -18q-13 -11 -29 -25t-16 -33q0 -8 4 -18t11 -19
t15 -15.5t17 -6.5q14 0 26 9t21 18q6 -8 12.5 -17.5t18.5 -9.5q7 0 15.5 5.5t17 13t14.5 16t9 14.5l-3 -1q-2 -4 -5.5 -9.5t-8.5 -7.5h-2q-4 0 -10 7t-12 16t-11 18.5t-7 13.5q1 7 2 17t3 20t6 18.5t12 11.5l2 -1q-7 -7 -7 -16q0 -10 7.5 -16.5t16.5 -6.5q6 0 11 4t9 9
q-1 2 -0.5 4.5t0.5 4.5zM221 370q0 -17 -5.5 -30.5t-19.5 -24.5q-4 11 -7.5 21.5t-3.5 22.5q0 9 5.5 21.5t16.5 12.5q8 0 11 -8.5t3 -14.5zM199 198q-6 -10 -18 -12q-9 2 -16 9t-12 17t-8 20t-3 18q0 17 12 29q10 -21 22 -41t23 -40z" />
    <glyph glyph-name="odieresis" unicode="&#xf6;" horiz-adv-x="388" 
d="M314 567q0 9 -4.5 22t-12 25t-17.5 20.5t-20 8.5q-19 0 -29.5 -14t-10.5 -31q0 -11 5.5 -21t14 -18.5t19 -13.5t21.5 -5t22.5 7t11.5 20zM110 545q10 0 21.5 6.5t21 16t16 21t6.5 21.5q0 13 -9 24t-23 11q-11 0 -22 -7t-21 -17.5t-17.5 -22t-11.5 -20.5v-6
q0 -10 2.5 -15.5t10.5 -10.5q2 0 3 -0.5t3 -0.5h20zM357 305q0 44 -15 82t-46 69q-19 19 -38.5 36t-33.5 40v1q-27 -32 -64 -52.5t-70.5 -42.5t-57 -52.5t-23.5 -82.5q0 -9 1 -27.5t3 -38.5t4 -37.5t5 -24.5q25 -69 78 -123q22 -23 42 -48q19 23 44.5 35t48.5 29
q19 14 38.5 31t36.5 37t28.5 42.5t13.5 47.5q2 20 3.5 39.5t1.5 39.5zM242 280q0 -50 -4 -99.5t-12 -98.5q-16 8 -34 20.5t-33 28.5t-25 34t-10 38q0 45 -1 88t-1 88q0 16 0.5 31.5t1.5 31.5q27 -17 48.5 -31t37 -31.5t24 -41t8.5 -58.5z" />
    <glyph glyph-name="divide" unicode="&#xf7;" 
d="M411 278q0 44 -17 83t-46 68t-68 46t-83 17t-83 -17t-68 -46t-46 -68t-17 -83t17 -83t46 -68t68 -46t83 -17t83 17t68 46t46 68t17 83zM389 278q0 -40 -15 -75t-41 -61t-61 -41t-75 -15t-75 15t-61 41t-41 61t-15 75t15 75t41 61t61 41t75 15t75 -15t61 -41t41 -61
t15 -75zM197 170q12 0 24.5 8.5t23 21t17 26.5t6.5 25q0 16 -10 29.5t-22 21.5q11 6 19.5 13t8.5 21q0 9 -5 20t-12.5 21t-17 17t-18.5 7q-12 0 -24 -7.5t-21.5 -19t-16 -25t-6.5 -24.5q0 -28 26 -44q-11 -8 -20.5 -16.5t-9.5 -23.5q0 -10 5 -22t13 -23t18.5 -18.5
t21.5 -7.5zM210 397q9 0 16.5 -6t12.5 -14.5t8 -18t3 -17.5q0 -7 -5 -20.5t-13 -15.5q-8 4 -20 8t-23 9t-19.5 12t-8.5 17q0 16 16.5 31t32.5 15zM250 225q0 -8 -5 -16.5t-12.5 -16t-16 -12.5t-16.5 -5q-11 0 -19 6t-13 14.5t-8 19t-3 19.5q0 17 3.5 24.5t14.5 18.5
q8 -5 21 -9t25 -10t20.5 -13.5t8.5 -19.5z" />
    <glyph glyph-name="oslash" unicode="&#xf8;" 
d="M411 278q0 44 -17 83t-46 68t-68 46t-83 17t-83 -17t-68 -46t-46 -68t-17 -83t17 -83t46 -68t68 -46t83 -17t83 17t68 46t46 68t17 83zM389 278q0 -40 -15 -75t-41 -61t-61 -41t-75 -15t-75 15t-61 41t-41 61t-15 75t15 75t41 61t61 41t75 15t75 -15t61 -41t41 -61
t15 -75zM258 239v44l-6 -6v-44zM324 264q0 11 -5.5 20t-12 17.5t-12 16.5t-5.5 17q0 16 16 19l-1 3q-10 0 -18 -5.5t-14 -13.5t-9 -17.5t-3 -18.5q0 -13 5 -22t10.5 -17t10.5 -15t5 -15t-5.5 -14t-11.5 -9q-7 5 -13 8.5t-14 6.5q0 23 -0.5 44.5t-0.5 43.5v28t2 28
q9 -5 14 -9.5t17 -4.5q10 0 18 4.5t11 14.5l-3 3q0 -1 -0.5 -1.5t-0.5 -1.5q-2 -2 -4 -2q-4 0 -8 3.5t-8.5 8t-10.5 8.5t-14 4q-12 0 -21.5 -10t-14.5 -20q-8 18 -19.5 27t-31.5 9q-9 0 -19.5 -4t-20.5 -9.5t-18.5 -9.5t-14.5 -4h-4v3v4l4 4h-2q-3 -2 -5.5 -5t-4.5 -5l-2 -6
t-1 -6q0 -8 9 -11.5t16 -3.5q12 0 23.5 3t22.5 3q19 0 25.5 -14t6.5 -30q0 -11 -1.5 -22t-6 -20t-12.5 -14.5t-21 -5.5q-15 0 -20.5 7t-10.5 19q9 -11 20 -11q10 0 16.5 8.5t6.5 17.5q0 10 -6.5 17t-16.5 7q-11 0 -20 -9.5t-9 -20.5q0 -18 15 -29.5t32 -11.5q19 0 33 9
t23 22.5t13.5 30.5t4.5 34q0 5 -0.5 11t-2.5 11q4 6 7 8q6 2 11 2h2q-1 -14 -1.5 -27t-0.5 -26q0 -23 1 -45.5t1 -45.5q-22 8 -43 8q-11 0 -26.5 -3.5t-29.5 -10t-24 -17t-10 -24.5q0 -11 6.5 -22t16.5 -19.5t21.5 -13.5t22.5 -5q29 0 53.5 18.5t44.5 37.5l-3 1
q-17 -19 -38 -31t-48 -12q-10 0 -22.5 2t-23.5 7t-18.5 13.5t-7.5 21.5q0 16 14 21t26 5q7 0 19 -2.5t24 -7.5t21 -11.5t9 -14.5q9 10 25.5 21.5t32 23.5t27 24.5t11.5 26.5z" />
    <glyph glyph-name="ugrave" unicode="&#xf9;" 
d="M411 278q0 44 -17 83t-46 68t-68 46t-83 17t-83 -17t-68 -46t-46 -68t-17 -83t17 -83t46 -68t68 -46t83 -17t83 17t68 46t46 68t17 83zM389 278q0 -40 -15 -75t-41 -61t-61 -41t-75 -15t-75 15t-61 41t-41 61t-15 75t15 75t41 61t61 41t75 15t75 -15t61 -41t41 -61
t15 -75z" />
    <glyph glyph-name="uacute" unicode="&#xfa;" 
d="M411 278q0 44 -17 83t-46 68t-68 46t-83 17t-83 -17t-68 -46t-46 -68t-17 -83t17 -83t46 -68t68 -46t83 -17t83 17t68 46t46 68t17 83zM389 278q0 -40 -15 -75t-41 -61t-61 -41t-75 -15t-75 15t-61 41t-41 61t-15 75t15 75t41 61t61 41t75 15t75 -15t61 -41t41 -61
t15 -75z" />
    <glyph glyph-name="ucircumflex" unicode="&#xfb;" 
d="M411 278q0 44 -17 83t-46 68t-68 46t-83 17t-83 -17t-68 -46t-46 -68t-17 -83t17 -83t46 -68t68 -46t83 -17t83 17t68 46t46 68t17 83zM389 278q0 -40 -15 -75t-41 -61t-61 -41t-75 -15t-75 15t-61 41t-41 61t-15 75t15 75t41 61t61 41t75 15t75 -15t61 -41t41 -61
t15 -75z" />
    <glyph glyph-name="udieresis" unicode="&#xfc;" horiz-adv-x="492" 
d="M379 587q0 10 -4.5 21t-11.5 20t-17 15t-20 6q-16 0 -33 -14t-17 -31q0 -26 15 -42t42 -16q16 0 31 12t15 29zM166 547q12 0 23.5 6.5t20.5 16.5t15 22t6 23q0 13 -9.5 22.5t-22.5 9.5q-11 0 -24 -6.5t-24 -17t-18.5 -23t-7.5 -24.5q0 -20 12.5 -24.5t28.5 -4.5zM461 465
l-7 9q-23 -16 -39 -39q-8 26 -28 46.5t-35 43.5q-12 -15 -27 -26.5t-31 -22t-32 -21.5t-29 -24l7 -7v-1q8 7 16 12.5t16 11.5q4 -4 8 -7t7 -7q6 -7 9 -28t4.5 -45.5t1.5 -47.5v-33q0 -29 -1 -57t-6 -57q-2 -15 -10 -26t-19 -20t-23.5 -16.5t-24.5 -13.5q-22 9 -28 27.5
t-6 39.5q0 18 1.5 36.5t1.5 36.5q0 40 -1.5 79t-1.5 79q0 24 -1.5 43t-14.5 42q-3 5 -8.5 11.5t-11 14t-10 14t-4.5 11.5l-3 2q-17 -20 -36.5 -36t-38.5 -33q-11 -11 -24 -20t-23 -21l4 -9q8 6 14.5 12.5l13.5 13.5q4 -3 8 -5.5t8 -6.5q2 -5 4 -25t3.5 -48t3.5 -59.5
t3 -60.5t1.5 -50.5t0.5 -29.5q0 -5 -0.5 -9.5t-1.5 -9.5q-6 -10 -14.5 -17.5t-18.5 -12.5l8 -9q8 5 16.5 9.5t14.5 12.5q7 -26 24 -52t34 -46q16 16 35 29t38.5 24.5t39 23.5t37.5 27q2 -17 2 -32q0 -14 11 -29q7 -9 14.5 -16.5t13.5 -17.5q15 18 32 33.5t34.5 31t34 31.5
t30.5 36l-6 3l-30 -33q-8 5 -10.5 12.5t-2.5 15.5q0 15 3 30q5 28 7.5 54t2.5 54q0 27 -1.5 53.5t-1.5 52.5q0 22 12.5 40t30.5 29z" />
    <glyph glyph-name="ydieresis" unicode="&#xff;" horiz-adv-x="240" 
d="M194 402l-9 5q-12 -27 -31.5 -48.5t-42.5 -39t-47.5 -33.5t-47.5 -33q17 -10 42 -24t47.5 -31t38.5 -37.5t16 -43.5q0 -5 -2 -15q2 1 6 1.5t6 2.5q13 22 13 50q0 26 -10 51.5t-26 46.5q20 32 34 67.5t13 73.5v7z" />
    <glyph glyph-name="OE" unicode="&#x152;" 
d="M411 278q0 44 -17 83t-46 68t-68 46t-83 17t-83 -17t-68 -46t-46 -68t-17 -83t17 -83t46 -68t68 -46t83 -17t83 17t68 46t46 68t17 83zM389 278q0 -40 -15 -75t-41 -61t-61 -41t-75 -15t-75 15t-61 41t-41 61t-15 75t15 75t41 61t61 41t75 15t75 -15t61 -41t41 -61
t15 -75zM188 166q13 0 25.5 9.5t22.5 23.5t16 29t6 27q0 10 -3.5 21.5t-9.5 21.5t-15 17t-21 7q-23 0 -38 -21q0 10 0.5 26t3.5 31t11 25.5t23 10.5q8 0 15.5 -7t11.5 -14l-7 4q-2 0 -2.5 0.5t-2.5 0.5q-6 0 -10.5 -5t-4.5 -11q0 -10 7 -17t17 -7q5 0 10 3.5t5 9.5
t-3.5 14.5t-9.5 15.5t-13 12t-14 5q-18 0 -33 -12t-26.5 -30t-17.5 -38t-6 -35q0 -12 4 -32t12 -39t19.5 -32.5t27.5 -13.5zM199 316q7 0 11 -6.5t6 -15t2 -17.5v-14q0 -8 -0.5 -23t-3.5 -31t-9 -27.5t-17 -11.5q-7 0 -10.5 4t-5 10t-1.5 12v12q0 10 -1 28t1 36t8 31t20 13z
" />
    <glyph glyph-name="oe" unicode="&#x153;" 
d="M411 278q0 44 -17 83t-46 68t-68 46t-83 17t-83 -17t-68 -46t-46 -68t-17 -83t17 -83t46 -68t68 -46t83 -17t83 17t68 46t46 68t17 83zM389 278q0 -40 -15 -75t-41 -61t-61 -41t-75 -15t-75 15t-61 41t-41 61t-15 75t15 75t41 61t61 41t75 15t75 -15t61 -41t41 -61
t15 -75zM252 367l-2 2q0 -3 -0.5 -7t-2.5 -6l-4 -1q-6 0 -11.5 5t-11.5 11t-13 11t-16 5q-10 0 -20 -7.5t-18.5 -18t-14 -22t-6.5 -20.5h3v1q0 10 8.5 22.5t19.5 12.5q5 0 9.5 -3t9.5 -7t12.5 -7t18.5 -3q7 0 18.5 3.5t15.5 9.5l1 1q-3 -20 -15.5 -39t-26.5 -38t-25 -38.5
t-11 -40.5q0 -9 4.5 -19.5t15.5 -10.5q10 0 18 9t10 18q6 24 7.5 49.5t8.5 50.5q4 16 12 32.5t7 32.5z" />
    <glyph glyph-name="Ydieresis" unicode="&#x178;" horiz-adv-x="252" 
d="M189 257q-17 9 -41 23.5t-47 32.5t-39 38.5t-16 42.5v8t1 8q-2 -1 -6.5 -2t-6.5 -3q-3 -3 -5 -9.5t-3.5 -14t-2.5 -15t-1 -11.5q0 -27 10 -52t26 -46q-18 -31 -33.5 -64t-15.5 -70q0 -3 0.5 -6.5t0.5 -6.5q3 -2 5.5 -2.5t4.5 -3.5q3 7 5 14t7 14q14 20 33 36.5t40 31.5
t43 28.5t41 28.5z" />
    <glyph glyph-name="florin" unicode="&#x192;" 
d="M411 278q0 44 -17 83t-46 68t-68 46t-83 17t-83 -17t-68 -46t-46 -68t-17 -83t17 -83t46 -68t68 -46t83 -17t83 17t68 46t46 68t17 83zM389 278q0 -40 -15 -75t-41 -61t-61 -41t-75 -15t-75 15t-61 41t-41 61t-15 75t15 75t41 61t61 41t75 15t75 -15t61 -41t41 -61
t15 -75zM263 270q0 12 -4.5 28.5t-12.5 30.5t-19.5 24t-25.5 10t-27.5 -8t-25 -20t-18.5 -26.5t-7 -27.5q0 -12 4.5 -28t12.5 -30.5t19.5 -24.5t25.5 -10t28 7.5t25 19.5t18 26.5t7 28.5zM199 358q10 0 14.5 -12.5t5.5 -29t0.5 -32.5t-0.5 -23q0 -8 -1 -19t-4.5 -22
t-10 -18.5t-16.5 -7.5q-9 0 -14 9q-2 3 -3 14.5t-1.5 25.5t-0.5 27v18q0 7 1 19t4 23t9 19.5t17 8.5z" />
    <glyph glyph-name="circumflex" unicode="&#x2c6;" 
d="M411 278q0 44 -17 83t-46 68t-68 46t-83 17t-83 -17t-68 -46t-46 -68t-17 -83t17 -83t46 -68t68 -46t83 -17t83 17t68 46t46 68t17 83zM258 255q0 -12 -6 -27t-16 -29t-22.5 -23.5t-25.5 -9.5q-16 0 -27.5 13.5t-19.5 32.5t-12 39t-4 32q0 15 6 35t17.5 38t26.5 30t33 12
q7 0 14 -5t13 -12t9.5 -15.5t3.5 -14.5t-5 -9.5t-10 -3.5q-10 0 -17 7t-7 17q0 6 4.5 11t10.5 5q2 0 2.5 -0.5t2.5 -0.5l7 -4q-4 7 -11.5 14t-15.5 7q-15 0 -23 -10.5t-11 -25.5t-3.5 -31t-0.5 -26q15 21 38 21q12 0 21 -7t15 -17t9.5 -21.5t3.5 -21.5zM218 263v14t-2 17.5
t-6 15t-11 6.5q-14 0 -20 -13t-8 -31t-1 -36t1 -28v-12q0 -6 1.5 -12t5 -10t10.5 -4q11 0 17 11.5t9 27.5t3.5 31t0.5 23z" />
    <glyph glyph-name="tilde" unicode="&#x2dc;" 
d="M411 278q0 44 -17 83t-46 68t-68 46t-83 17t-83 -17t-68 -46t-46 -68t-17 -83t17 -83t46 -68t68 -46t83 -17t83 17t68 46t46 68t17 83zM253 355q1 -16 -7 -32.5t-12 -32.5q-7 -25 -8.5 -50.5t-7.5 -49.5q-2 -9 -10 -18t-18 -9q-11 0 -15.5 10.5t-4.5 19.5q0 21 11 40.5
t25 38.5t26.5 38t15.5 39l-1 -1q-4 -6 -15.5 -9.5t-18.5 -3.5q-11 0 -18.5 3t-12.5 7t-9.5 7t-9.5 3q-11 0 -19.5 -12.5t-8.5 -22.5v-1h-3q1 9 6.5 20.5t14 22t18.5 18t20 7.5q9 0 16 -5t13 -11t11.5 -11t11.5 -5l4 1q2 2 2.5 6t0.5 7l2 -2z" />
    <glyph glyph-name="endash" unicode="&#x2013;" horiz-adv-x="458" 
d="M426 343l-11 5l-2 -5l-5 -3q-5 0 -10.5 -0.5t-10.5 -0.5q-39 0 -78.5 3t-79.5 3q-30 0 -68.5 -1t-72 -10.5t-56.5 -32t-22 -65.5v-4l11 -4q4 4 7 6q4 1 7 1q4 0 8 1q3 -1 17.5 -1.5t36 -1.5t46 -1.5t46.5 -1t39 -0.5h23q27 0 58 2.5t57.5 12.5t43.5 30t16 56v12z" />
    <glyph glyph-name="emdash" unicode="&#x2014;" horiz-adv-x="529" 
d="M498 285q-8 8 -16 16.5t-18 14.5q-49 3 -98 4t-98 1h-61t-72 -1.5t-70.5 -6t-55.5 -14.5q8 -8 14 -17t17 -14q50 -3 99 -4t99 -1h60q36 0 73 1.5t71 6t56 14.5z" />
    <glyph glyph-name="quoteleft" unicode="&#x2018;" horiz-adv-x="147" 
d="M115 693q-2 3 -3 6.5t-3 6.5q-23 -6 -41.5 -25t-31.5 -44t-20 -52t-7 -48q0 -10 3 -26t9.5 -31.5t16 -26.5t22.5 -11q10 0 20 8.5t17 20t11.5 24.5t4.5 22q0 12 -4 24t-8.5 23.5t-8.5 23.5t-4 26q0 20 5 42.5t22 36.5z" />
    <glyph glyph-name="quoteright" unicode="&#x2019;" horiz-adv-x="147" 
d="M115 611q0 10 -3 26t-9.5 31.5t-16 26.5t-22.5 11q-11 0 -20.5 -8.5t-16.5 -20t-11.5 -24.5t-4.5 -22q0 -12 4 -24t8.5 -23.5t8.5 -24t4 -25.5q0 -20 -5 -42.5t-22 -36.5q2 -3 3 -6.5t3 -6.5q23 6 41.5 25t31.5 44t20 52t7 48z" />
    <glyph glyph-name="quotesinglbase" unicode="&#x201a;" horiz-adv-x="203" 
d="M278 598q0 6 -3.5 12t-6.5 11q-2 -8 -3 -11l-10 -2q-13 12 -21 18t-13 13t-7.5 17t-4.5 30q-13 -15 -29 -26.5t-33 -22t-33.5 -21.5t-29.5 -26q-26 -27 -43.5 -62.5t-22.5 -72.5q-2 -8 -1.5 -16.5t-3.5 -16.5q-2 -35 -3 -69.5t-1 -69.5q0 -90 4.5 -178.5t9.5 -177.5
q3 -7 10 -15v10q1 12 -0.5 24t-1.5 24q0 22 8 37.5t34 15.5q11 0 25.5 -1t25.5 -4q3 41 4 81t1 81q0 107 -1.5 213t9.5 212q15 -22 38 -31.5t49 -9.5q7 0 16.5 2t18 6t14 10.5t5.5 15.5z" />
    <glyph glyph-name="quotedblleft" unicode="&#x201c;" horiz-adv-x="276" 
d="M244 663l-6 9q-27 -16 -45 -39t-29.5 -50.5t-16.5 -57.5t-5 -60q0 -18 5 -32.5t28 -14.5q10 0 22.5 8t22.5 19.5t17 24.5t7 23q0 8 -1.5 16.5t-2.5 16.5q-8 12 -12 32t-4 35q0 18 4.5 36.5t15.5 33.5zM131 690l-4 6v3q-21 -16 -42.5 -35.5t-38 -42t-27 -48t-10.5 -53.5
t15.5 -58.5t41.5 -43.5h4q12 0 21.5 6.5t16 16.5t10 22t3.5 23q0 15 -6 29t-13.5 28t-13.5 28t-6 29q0 27 14.5 50t34.5 40z" />
    <glyph glyph-name="quotedblright" unicode="&#x201d;" horiz-adv-x="276" 
d="M245 597q0 28 -15.5 58.5t-41.5 43.5h-4q-12 0 -21.5 -6.5t-16 -16.5t-10 -22t-3.5 -22q0 -15 6 -29.5t13.5 -28t13.5 -28t6 -29.5q0 -27 -14.5 -50t-34.5 -40l4 -6v-3q21 16 42.5 35.5t38 42t27 48t10.5 53.5zM16 445q27 16 45 39.5t29.5 50.5t16.5 57t5 60
q0 18 -5 32.5t-28 14.5q-11 0 -23 -8t-22 -19.5t-17 -24.5t-7 -23q0 -8 1.5 -16.5t2.5 -16.5q8 -12 12 -32t4 -35q0 -18 -4.5 -36.5t-15.5 -33.5z" />
    <glyph glyph-name="quotedblbase" unicode="&#x201e;" horiz-adv-x="276" 
d="M245 15q0 14 -4.5 29.5t-12 30.5t-18 27t-23.5 18q-14 0 -24 -6t-17 -16t-10.5 -22t-3.5 -24q0 -16 6.5 -30t14 -28t14 -28t6.5 -30q0 -10 -4.5 -24t-11.5 -27.5t-16.5 -24.5t-18.5 -15l5 -7v-1q19 15 40 34.5t38.5 43t28.5 49t11 51.5zM17 -137q53 36 73.5 91.5
t20.5 117.5q0 17 -5 32.5t-27 15.5q-11 0 -23 -8.5t-22.5 -20.5t-17 -25.5t-6.5 -23.5q0 -26 10 -50t10 -51q0 -18 -4.5 -36t-15.5 -32q1 -2 3 -5.5t4 -4.5z" />
    <glyph glyph-name="dagger" unicode="&#x2020;" horiz-adv-x="613" 
d="M582 350q0 21 -7 40t-19.5 33.5t-30 23.5t-39.5 9q-24 0 -46.5 -7t-45 -17t-44.5 -19.5t-45 -14.5q5 23 12.5 42t19.5 39q9 14 19.5 30.5t19 33.5t14.5 35t6 35q0 15 -5 29.5t-14 26t-22 19t-29 7.5q-21 0 -40.5 -9t-33.5 -24.5t-22.5 -35t-8.5 -40.5q0 -24 8.5 -47
t19.5 -46.5t21.5 -47t14.5 -48.5q-9 3 -20 7t-20 5q-10 7 -28.5 15.5t-39 16.5t-40 13.5t-31.5 5.5q-20 0 -37.5 -9.5t-30.5 -24.5t-20.5 -34t-7.5 -38q0 -32 18 -50t50 -18q22 0 47.5 12.5t53 29t55 32.5t52.5 23q-3 -72 -13.5 -143t-30.5 -140q-7 -23 -16 -46.5t-17 -47
t-13.5 -47.5t-5.5 -49q0 -17 4 -34t12.5 -31.5t22 -23.5t33.5 -9q27 0 48 14.5t36 36t22.5 47.5t7.5 50q0 17 -2 32.5t-5 31.5q-8 41 -17.5 78t-18.5 73.5t-16.5 74t-11.5 81.5q-2 13 -1.5 25.5t-0.5 25.5q11 -5 22.5 -8.5t22.5 -9.5q16 -9 36.5 -22.5t42.5 -26.5t43.5 -22
t40.5 -9q32 0 51.5 17t19.5 49z" />
    <glyph glyph-name="daggerdbl" unicode="&#x2021;" horiz-adv-x="1022" 
 />
    <glyph glyph-name="bullet" unicode="&#x2022;" horiz-adv-x="159" 
d="M133 364q-2 9 -7.5 20.5t-13 21t-17 16t-20.5 6.5q-10 0 -22 -6t-22.5 -15t-18 -20t-7.5 -21q0 -9 5 -20t13.5 -21t18.5 -16.5t20 -6.5q12 0 23.5 5.5t21.5 14.5t17 20t9 22z" />
    <glyph glyph-name="ellipsis" unicode="&#x2026;" horiz-adv-x="866" 
d="M733 55q0 11 -4.5 22.5t-12.5 20.5t-18.5 15t-22.5 6q-13 0 -25.5 -5.5t-22.5 -14.5t-16 -21.5t-6 -25.5q0 -9 5.5 -19t14 -19t18.5 -15t19 -6q12 0 24.5 5t23 13.5t17 19.5t6.5 24zM433 55q0 11 -4.5 22.5t-12.5 20.5t-18.5 15t-22.5 6q-13 0 -25.5 -5.5t-22.5 -14.5
t-16 -21.5t-6 -25.5q0 -9 5.5 -19t14 -19t18.5 -15t19 -6q12 0 24.5 5t23 13.5t17 19.5t6.5 24zM133 55q0 11 -4.5 22.5t-12.5 20.5t-18.5 15t-22.5 6q-13 0 -25.5 -5.5t-22.5 -14.5t-16 -21.5t-6 -25.5q0 -9 5.5 -19t14 -19t18.5 -15t19 -6q12 0 24.5 5t23 13.5t17 19.5
t6.5 24z" />
    <glyph glyph-name="perthousand" unicode="&#x2030;" horiz-adv-x="920" 
d="M396 25q11 0 23.5 5.5t24.5 13.5t23 17t19 16q37 32 69 71.5t44 88.5q4 16 4 36q0 22 -8.5 51t-24.5 54t-37.5 42.5t-47.5 17.5q-27 0 -47.5 -18t-35 -47t-23.5 -64.5t-14.5 -70.5t-7.5 -66t-2 -50q0 -11 1 -27t4.5 -32t12 -27t23.5 -11zM488 426q16 0 24.5 -13.5t12 -32
t3.5 -37.5v-30q0 -57 -12 -104.5t-36 -98.5q-5 -11 -12 -23t-16 -23t-20.5 -19t-24.5 -9l-5 4l-2 5q-1 10 3.5 18t5.5 17q26 56 38 116t12 122q0 15 -1 30.5t-1 30.5q0 16 5.5 31.5t25.5 15.5zM200 665q7 -2 10.5 -4.5t3.5 -10.5q0 -6 -3.5 -13t-5.5 -13
q-22 -56 -35.5 -114.5t-13.5 -118.5q0 -17 1.5 -35t1.5 -35q0 -7 -1.5 -15.5t-5 -16t-9.5 -12.5t-15 -5q-12 0 -20.5 10.5t-13.5 19.5q-2 19 -4 37t-2 37q0 28 6 72.5t19.5 89t35 80.5t51.5 47zM253 628q-2 7 -4.5 15.5t-6 16t-10 12t-17.5 4.5q-4 0 -10 -2q-33 -11 -68 -38
t-63 -62.5t-46 -75.5t-18 -76q0 -24 8.5 -52t24.5 -52.5t38.5 -41t49.5 -16.5q26 0 45.5 18t33.5 46.5t23.5 63.5t15 69.5t8 65t2.5 49.5v13q0 7 -1 14q22 -11 48 -17t51 -6q17 0 32 3.5t27 16.5q-39 -69 -72 -140.5t-66 -143.5t-68 -142.5t-78 -136.5l14 -13
q54 75 95 156.5t79 165t76.5 166.5t87.5 161q-4 3 -7.5 6t-7.5 7q-12 -18 -23 -36.5t-23 -36.5q-3 -5 -10 -8t-15 -5t-15.5 -2.5t-12.5 -0.5q-28 0 -61.5 9t-55.5 26zM666 25q11 0 23.5 5.5t24.5 13.5t23 17t19 16q37 32 69 71.5t44 88.5q4 16 4 36q0 22 -8.5 51t-24.5 54
t-37.5 42.5t-47.5 17.5q-27 0 -47.5 -18t-35 -47t-23.5 -64.5t-14.5 -70.5t-7.5 -66t-2 -50q0 -11 1 -27t4.5 -32t12 -27t23.5 -11zM758 426q16 0 24.5 -13.5t12 -32t3.5 -37.5v-30q0 -57 -12 -104.5t-36 -98.5q-5 -11 -12 -23t-16 -23t-20.5 -19t-24.5 -9l-5 4l-2 5
q-1 10 3.5 18t5.5 17q26 56 38 116t12 122q0 15 -1 30.5t-1 30.5q0 16 5.5 31.5t25.5 15.5z" />
    <glyph glyph-name="guilsinglleft" unicode="&#x2039;" horiz-adv-x="277" 
d="M232 432q-2 0 -5 0.5t-5 0.5h-4q-44 -57 -98 -98t-111 -83q23 -14 51.5 -32.5t54.5 -40t45 -47t23 -54.5q3 -1 9 -1q5 0 7 1q1 5 1 8v9q0 44 -19.5 83.5t-44.5 74.5q55 84 96 179z" />
    <glyph glyph-name="guilsinglright" unicode="&#x203a;" horiz-adv-x="278" 
d="M240 258q-29 17 -56 34t-49.5 37t-40.5 45.5t-29 59.5q-3 0 -6.5 -0.5t-6.5 -0.5v-10q-2 -46 16 -88.5t46 -77.5q-27 -44 -52 -88.5t-46 -91.5l14 -1q42 56 97.5 99.5t112.5 82.5z" />
    <glyph glyph-name="trademark" unicode="&#x2122;" 
d="M411 278q0 44 -17 83t-46 68t-68 46t-83 17t-83 -17t-68 -46t-46 -68t-17 -83t17 -83t46 -68t68 -46t83 -17t83 17t68 46t46 68t17 83zM389 278q0 -40 -15 -75t-41 -61t-61 -41t-75 -15t-75 15t-61 41t-41 61t-15 75t15 75t41 61t61 41t75 15t75 -15t61 -41t41 -61
t15 -75zM327 240l-3 1q-3 -5 -7 -9t-8 -9q-8 5 -10 10t-4 13q1 2 1 8v9q0 27 -1.5 54t-10.5 48t-28 34t-55 13q-8 0 -16 -1.5t-16 2.5q-2 1 -2 5q0 2 1 4l2 4q-6 -5 -10 -12.5t-4 -15.5q0 -17 15 -22.5t29 -5.5q-15 -7 -24.5 -12.5t-15 -12t-8 -17t-2.5 -28.5q0 -4 0.5 -12
t0.5 -17q0 -8 -0.5 -15t-2.5 -10q-3 -2 -15.5 -4t-26.5 -6t-25 -12t-11 -22q0 -11 7 -23.5t18 -22.5t23.5 -16.5t23.5 -6.5q21 0 40.5 14.5t27.5 33.5l-4 1q-9 -17 -21.5 -26.5t-32.5 -9.5q-9 0 -22 3.5t-25.5 10t-21 15.5t-8.5 20q0 9 8 12.5t16 3.5q19 0 37.5 -8t21.5 -29
q6 10 14.5 17t18.5 12.5t19.5 11t18.5 13.5q0 5 0.5 11t0.5 12q0 10 -0.5 19.5t-1.5 19.5h4h18q1 -10 1 -19v-19q0 -11 -1 -18t-0.5 -13t3.5 -12.5t12 -15.5q0 -2 1 -4l2 -4q17 10 32 25t27 30zM249 319q-5 1 -11 1h-10v8q-1 9 0 18.5t1 19.5q17 -5 18.5 -13t1.5 -23v-7v-4z
M225 367q-3 -29 -1 -58.5t1 -58.5v-19q-5 -6 -11 -9.5t-12 -6.5q-7 8 -20 16.5t-24 10.5q14 6 28.5 14t14.5 26q0 7 -0.5 20.5t0 27.5t3 25t9.5 14q4 0 12 -2zM214 308v10l-7 -6v-9z" />
    </font>
</defs>
</svg>
