<?xml version="1.0" standalone="no"?>
<!DOCTYPE svg PUBLIC "-//W3C//DTD SVG 1.1//EN" "http://www.w3.org/Graphics/SVG/1.1/DTD/svg11.dtd" >
<svg xmlns="http://www.w3.org/2000/svg" xmlns:xlink="http://www.w3.org/1999/xlink" version="1.1">
<metadata>
Created by FontForge 20170731 at Thu Sep 21 13:15:34 2000
 By Aleksey,,,
(c) 2000 Levi
</metadata>
<defs>
<font id="CelticGaramondthe2nd" horiz-adv-x="500" >
  <font-face 
    font-family="Celtic Garamond the 2nd"
    font-weight="400"
    font-stretch="normal"
    units-per-em="1000"
    panose-1="0 0 4 0 0 0 0 0 0 0"
    ascent="800"
    descent="-200"
    x-height="501"
    cap-height="800"
    bbox="-33 -296 1301 969"
    underline-thickness="20"
    underline-position="-163"
    unicode-range="U+0020-007A"
  />
<missing-glyph 
d="M63 0v800h375v-800h-375zM125 63h250v675h-250v-675z" />
    <glyph glyph-name=".notdef" 
d="M63 0v800h375v-800h-375zM125 63h250v675h-250v-675z" />
    <glyph glyph-name=".null" horiz-adv-x="0" 
 />
    <glyph glyph-name="nonmarkingreturn" 
 />
    <glyph glyph-name="space" unicode=" " 
 />
    <glyph glyph-name="exclam" unicode="!" horiz-adv-x="320" 
d="M343 776q-69 -3 -90 -28q-17 -21 -25 -97l-53 -474h-43l-29 518q-3 51 -36 67q-18 9 -79 14v24q111 -4 177 -5q53 -1 178 5v-24zM236 18l-82 -76q-9 -9 -9 0l-87 76q-7 7 0 15l82 86h14l82 -86q7 -8 0 -15z" />
    <glyph glyph-name="quotedbl" unicode="&#x22;" horiz-adv-x="532" 
d="M445 773q13 -16 13 -57q0 -90 -46 -169l-29 10q8 33 8 53q0 22 -11 37q-4 5 -30 30l-82 76q-6 7 0 20l82 81h9zM213 773q13 -16 13 -57q0 -90 -47 -169l-28 10q7 33 7 53q0 22 -11 37q-3 5 -30 30l-81 76q-7 7 0 20l81 81h10z" />
    <glyph glyph-name="numbersign" unicode="#" horiz-adv-x="709" 
d="M710 487h-149l-26 -159h139v-77h-154l-46 -251h-82l46 251h-190l-46 -251h-82l46 251h-149v77h165l30 159h-153v77h164l41 236h82l-41 -236h184l41 236h82l-41 -236h139v-77zM479 487h-190l-25 -159h184z" />
    <glyph glyph-name="dollar" unicode="$" horiz-adv-x="433" 
d="M450 274q0 -80 -70 -134q-61 -48 -146 -58q0 -82 -24 -82q-10 0 -16.5 21t-4.5 57q-73 6 -152 42q-106 49 -41 101q19 15 35 15q21 0 45 -30.5t47 -59.5q30 -31 66 -31v278q-108 40 -159 119t-14 142q40 71 173 83q0 63 24 63t21 -59q50 -7 105 -25q86 -29 86 -65
q0 -18 -24 -37q-18 -16 -34 -16q-21 0 -59 52t-74 54v-233q110 -44 143 -66q73 -51 73 -131zM189 487v213q-46 -9 -71 -36t-25 -61q0 -79 96 -116zM234 119q60 11 92 43q30 29 30 69q0 42 -32 81.5t-90 63.5v0v-257z" />
    <glyph glyph-name="percent" unicode="%" horiz-adv-x="787" 
d="M602 393q76 0 119 -61q39 -55 39 -136q0 -85 -42 -146q-47 -67 -125 -67q-77 0 -123 62q-41 56 -41 138q0 83 43 142q49 66 130 68zM654 785q-122 -202 -245 -404q-251 -400 -297 -400q-10 0 -10 19q0 45 503 800q8 16 26 16q26 0 26 -20q0 -5 -3 -11zM186 800
q75 0 119 -61q39 -54 39 -135q0 -86 -43 -146q-47 -68 -125 -68q-77 0 -122 63q-41 56 -41 137q0 84 43 143q48 65 130 67zM598 22q35 0 57 54q19 49 19 118q0 67 -18 112q-21 51 -58 52v0q-38 0 -61 -55q-22 -51 -22 -121q0 -67 20 -111q23 -49 63 -49zM181 429q35 0 57 55
q20 49 20 118q0 66 -19 111q-21 51 -58 53v0q-36 0 -58 -56q-21 -51 -21 -121q0 -66 19 -110q22 -50 60 -50z" />
    <glyph glyph-name="ampersand" unicode="&#x26;" horiz-adv-x="994" 
d="M1049 16q0 -29 -192 -29q-91 0 -162 8q-75 8 -75 21q0 26 46 27h9q24 0 24 8q0 17 -91 95q-141 -162 -320 -162q-117 0 -202 69t-85 160q0 75 64 138q73 71 215 112q-89 96 -89 178q0 79 78 129q72 46 167 46q82 0 135 -36q60 -41 60 -114q0 -71 -70 -123
q-43 -32 -134 -69q74 -73 209 -198q31 31 74 92q56 81 56 118q0 23 -22 28q-67 14 -67 38q0 14 33 14q10 0 23 -1q-2 0 52 2.5t94 2.5q130 0 130 -28q0 -23 -50 -23q-75 -10 -160 -115q-59 -84 -117 -167q65 -61 131 -122q78 -63 157 -70q79 0 79 -29zM399 508
q121 60 121 148q0 69 -64 103q-66 34 -125 -14q-32 -27 -32 -67q0 -36 26 -81q19 -33 48 -65q26 -28 26 -24zM569 186q-155 129 -260 243v0q-173 -58 -173 -181q0 -73 63.5 -131t148.5 -58q125 0 221 127z" />
    <glyph glyph-name="quotesingle" unicode="'" horiz-adv-x="300" 
d="M213 773q13 -16 13 -57q0 -90 -47 -169l-28 10q7 33 7 53q0 22 -11 37q-3 5 -30 30l-81 76q-7 7 0 20l81 81h10z" />
    <glyph glyph-name="parenleft" unicode="(" horiz-adv-x="303" 
d="M268 -17q-13 0 -55 29q-90 63 -140.5 164t-50.5 214q0 118 56 222.5t153 170.5q25 17 40 17q9 0 9 -7q0 -11 -23 -32q-76 -68 -117 -164.5t-41 -202.5q0 -228 165 -378q18 -16 18 -25q0 -8 -14 -8z" />
    <glyph glyph-name="parenright" unicode=")" horiz-adv-x="346" 
d="M294 390q0 -113 -50.5 -214t-140.5 -164q-42 -29 -55 -29q-14 0 -14 8q0 9 17 25q166 150 166 378q0 106 -41 202.5t-117 164.5q-23 21 -23 32q0 7 9 7q15 0 39 -17q98 -66 154 -170.5t56 -222.5z" />
    <glyph glyph-name="asterisk" unicode="*" horiz-adv-x="504" 
d="M528 441q0 -39 -96 -54q-72 -9 -143 -18q45 -34 90 -67q63 -50 63 -82q0 -17 -15 -30t-31 -13q-36 0 -80 74q-31 52 -61 103q-29 -51 -58 -103q-46 -72 -83 -72q-16 0 -30.5 11.5t-14.5 27.5q0 31 64 85q45 35 89 71l-140 16q-100 17 -100 56q0 38 41 38q36 0 115 -34
q95 -42 98 -43q-1 12 -16 71q-13 55 -13 84q0 61 53 61q46 0 46 -57q0 -30 -15 -88q-16 -63 -17 -76q49 22 97 45q77 33 115 33q42 0 42 -39z" />
    <glyph glyph-name="plus" unicode="+" horiz-adv-x="366" 
d="M392 309h-180v-180h-46v180h-180v46h180v180h46v-180h180v-46z" />
    <glyph glyph-name="comma" unicode="," horiz-adv-x="316" 
d="M217 38q12 -16 12 -57q0 -90 -46 -169l-29 10q8 33 8 53q0 22 -11 37q-4 5 -30 30l-82 76q-6 7 0 20l82 81h9z" />
    <glyph glyph-name="hyphen" unicode="-" horiz-adv-x="391" 
d="M394 309h-406v46h406v-46z" />
    <glyph glyph-name="hyphen" unicode="&#x2010;" horiz-adv-x="391" 
d="M394 309h-406v46h406v-46z" />
    <glyph glyph-name="period" unicode="." horiz-adv-x="310" 
d="M219 18l-81 -76q-10 -9 -10 0l-86 76q-7 7 0 15l81 86h15l81 -86q7 -8 0 -15z" />
    <glyph glyph-name="slash" unicode="/" horiz-adv-x="657" 
d="M606 785q-122 -202 -245 -404q-251 -400 -297 -400q-10 0 -10 19q0 45 503 800q8 16 27 16q25 0 25 -20q0 -5 -3 -11z" />
    <glyph glyph-name="zero" unicode="0" horiz-adv-x="700" 
d="M646 400q0 -165 -73 -281q-87 -136 -243 -136q-85 0 -163 48q-73 45 -109 144q-30 81 -30 182q0 168 75 279q86 128 246 128q153 0 230 -110q67 -95 67 -254zM517 381q0 130 -29 213q-44 127 -148 127q-81 0 -134 -87q-48 -77 -48 -268q0 -245 105 -316q35 -24 72 -24
q103 0 150 134q32 92 32 221z" />
    <glyph glyph-name="one" unicode="1" horiz-adv-x="402" 
d="M430 43l-14 -43q-86 11 -163 11q-76 0 -163 -11l-9 43q31 4 63 8q46 8 52 26q13 38 13 231q0 129 -6 245.5t-12 112.5q-3 -3 -115 -48l-53 29q86 44 259 134q18 9 28 9q16 0 16 -23q0 11 -6 -53q-16 -181 -16 -349q0 -183 21 -293q4 -11 25 -17q15 -5 43 -8q36 -4 37 -4z
" />
    <glyph glyph-name="two" unicode="2" horiz-adv-x="656" 
d="M595 201q0 -169 -20 -201h-536l-14 38q88 76 177 151q115 101 175 181q79 106 79 195q0 57 -48 88q-40 27 -101 27q-80 0 -118 -29q-27 -21 -64 -91l-48 -9q0 94 91 158q82 57 178 57q92 0 156 -40q78 -48 78 -137q0 -119 -182 -292q-134 -128 -249 -211h345q43 0 61 51
q11 29 11 64h29z" />
    <glyph glyph-name="three" unicode="3" horiz-adv-x="587" 
d="M603 266q0 -139 -132 -217q-110 -66 -256 -66q-72 0 -138 17q-97 26 -97 79q0 23 19 35.5t43 12.5q31 0 56.5 -25.5l49.5 -49.5q35 -26 86 -26q96 0 164 53q75 58 75 153q0 73 -52 114q-47 36 -121 36q-28 0 -57 -6l-24 -5l-14 34l29 19q57 26 100 68q53 52 53 104
q0 43 -38 67q-33 19 -82 19q-60 0 -95 -26q-29 -22 -48 -69l-48 -10q0 85 89 138q75 44 165 44q68 0 114 -26q58 -32 58 -94q0 -88 -134 -177q100 -8 160 -50q75 -51 75 -146z" />
    <glyph glyph-name="four" unicode="4" horiz-adv-x="663" 
d="M622 230h-139v-158q0 -18 43 -23l62 -6l-10 -43q-86 7 -153 7t-153 -7l-10 43l43 5q32 3 49 8q23 8 23 21v153h-345l-14 24l431 517l34 -14v-446h139v-81zM377 311v293l-244 -293h244z" />
    <glyph glyph-name="five" unicode="5" horiz-adv-x="552" 
d="M572 270q0 -137 -117 -217q-103 -70 -247 -70q-71 0 -131 14q-89 22 -89 67q0 24 19 36t43 12q42 0 64.5 -32.5t39.5 -43.5q24 -15 64 -15q97 0 164 58q71 61 71 158q0 84 -64 129q-55 39 -142 39q-84 0 -163 -44l-39 20l56 366h379q19 -19 19 -187h-24q0 31 -10 61
q-18 49 -57 49h-249l-22 -208q79 24 138 24q118 0 199 -49q98 -58 98 -167z" />
    <glyph glyph-name="six" unicode="6" horiz-adv-x="585" 
d="M612 251q0 -119 -84 -195q-80 -73 -199 -73q-139 0 -225 85t-86 222q0 168 117 300q108 120 276 174l24 -34q-134 -52 -215 -182q-77 -125 -77 -273q0 -101 41 -170q50 -84 145 -84q82 0 125 58q38 52 38 134q0 88 -39 139q-43 57 -128 57q-53 0 -82 -28l-14 38
q60 53 153 53q99 0 164.5 -61t65.5 -160z" />
    <glyph glyph-name="seven" unicode="7" horiz-adv-x="486" 
d="M521 747l-364 -694q-38 -72 -68 -72q-20 0 -20 28q0 23 16 53l321 599l-325 -5q-39 -1 -58 -48q-7 -28 -14 -57h-24q0 164 19 196h517z" />
    <glyph glyph-name="eight" unicode="8" horiz-adv-x="599" 
d="M582 213q0 -110 -95 -174q-83 -56 -197 -56q-113 0 -193 43q-99 54 -99 158q0 141 187 206q-149 67 -149 173q0 99 93 154q77 47 185 47q92 0 155 -35q80 -43 80 -128q0 -118 -158 -177q191 -71 191 -211zM453 596q0 61 -48 97q-43 33 -105 33q-60 0 -106 -32
q-52 -36 -52 -93q0 -98 196 -158v0q115 49 115 153zM472 184q0 71 -85 120q-22 12 -149 62v0q-61 -19 -99 -63q-40 -49 -40 -114q0 -79 55 -123q51 -40 131 -40q78 0 130 40q57 43 57 118z" />
    <glyph glyph-name="nine" unicode="9" horiz-adv-x="666" 
d="M636 456q0 -191 -123 -324q-114 -123 -307 -168l-43 33q164 43 257 161.5t93 288.5q0 109 -39 184q-50 95 -150 95q-87 0 -138 -66q-47 -59 -47 -147q0 -82 45 -136q49 -58 131 -58q63 0 94 24v-52q-53 -34 -142 -34q-105 0 -173 64t-68 168q0 124 89 202q84 73 209 73
q145 0 228.5 -82.5t83.5 -225.5z" />
    <glyph glyph-name="colon" unicode=":" horiz-adv-x="266" 
d="M214 282l-81 -77q-10 -9 -10 0l-86 77q-7 6 0 14l81 86h15l81 -86q7 -8 0 -14zM214 18l-81 -76q-10 -9 -10 0l-86 76q-7 7 0 15l81 86h15l81 -86q7 -8 0 -15z" />
    <glyph glyph-name="semicolon" unicode=";" horiz-adv-x="258" 
d="M212 282l-81 -77q-10 -9 -10 0l-86 77q-7 6 0 14l81 86h15l81 -86q7 -8 0 -14zM212 38q13 -16 13 -57q0 -90 -46 -169l-29 10q8 33 8 53q0 22 -12 37q-3 5 -30 30l-81 76q-7 7 0 20l81 81h10z" />
    <glyph glyph-name="equal" unicode="=" horiz-adv-x="376" 
d="M392 309h-406v46h406v-46zM392 217h-406v46h406v-46z" />
    <glyph glyph-name="question" unicode="?" horiz-adv-x="398" 
d="M425 680q0 -56 -66.5 -129.5t-148.5 -114.5l5 -259h-34l-53 269l29 19q57 26 100 68q53 52 53 104q0 43 -38 67q-33 19 -81 19q-61 0 -96 -26q-28 -22 -48 -69l-48 -10q0 85 89 138q76 44 165 44q68 0 115 -26q57 -32 57 -94zM282 18l-81 -76q-10 -9 -10 0l-86 76
q-8 7 0 15l81 86h15l81 -86q7 -8 0 -15z" />
    <glyph glyph-name="at" unicode="@" horiz-adv-x="992" 
d="M924 209q-70 -105 -184 -159q-104 -50 -229 -50q-192 0 -334 104q-151 111 -151 275q0 86 45 177q63 125 175 188q99 57 224 57q180 0 327.5 -104t147.5 -238q0 -121 -135 -221q-26 -19 -90 -45q-78 -32 -125 -32q-53 0 -53 43q0 63 15 110q12 35 18 35v0q0 -7 -29 -37
q-41 -43 -113 -93q-79 -56 -128 -56q-62 0 -62 79q0 67 45 151q48 90 122 147q86 66 183 66q29 0 58 -6q11 32 30 32q4 0 17 -1t24 -1t11 -20q0 -29 -48.5 -172.5t-48.5 -192.5q0 -44 30 -44q22 0 60 23q153 91 153 224q0 118 -113 211q-116 93 -268 93q-145 0 -268 -92
q-142 -107 -142 -248q0 -145 134.5 -260t303.5 -115q199 0 333 172h65zM572 566q-85 0 -172 -119q-80 -108 -80 -181q0 -33 24 -33q69 0 171 113q102 110 102 179q0 39 -45 41z" />
    <glyph glyph-name="A" unicode="A" horiz-adv-x="950" 
d="M911 0q-106 10 -168 10q-53 0 -169 -10v29q88 5 88 48q0 20 -16 53l-62 178h-304l-53 -139q-18 -47 -18 -75q0 -65 119 -65v-29q-135 10 -168 10q-39 0 -145 -10v29q60 0 94 36q25 27 51 94l212 559q-16 46 -106 53v29q72 -10 197 -10q145 0 193 10v-29q-95 0 -111 -63
l236 -592q19 -47 50 -66q27 -17 80 -21v-29zM560 357l-140 347l-125 -347h265z" />
    <glyph glyph-name="B" unicode="B" horiz-adv-x="683" 
d="M708 217q0 -217 -371 -217q-67 0 -115 5q-145 0 -222 -5v29q66 0 87 13q29 18 29 78v569q0 54 -35 70q-15 7 -81 12v29q91 -12 198 -5q62 4 109 4q320 0 320 -182q0 -76 -70 -126q-56 -40 -143 -57q119 -9 196 -54q98 -58 98 -163zM492 612q0 149 -203 149h-43v-318h38
q208 0 208 169zM573 212q0 198 -274 198h-53v-232q0 -78 14 -102q21 -37 97 -37q94 0 149 38q67 48 67 135z" />
    <glyph glyph-name="C" unicode="C" horiz-adv-x="830" 
d="M835 208l-34 -166q-139 -58 -302 -58q-201 0 -341 105q-155 115 -155 309q0 192 162 311q147 107 349 107q141 0 302 -58q8 -82 14 -166h-29q-50 185 -277 185q-159 0 -267 -95q-113 -99 -113 -255q0 -164 111 -282q113 -122 278 -122q101 0 172 48q78 52 96 147z" />
    <glyph glyph-name="D" unicode="D" horiz-adv-x="931" 
d="M893 405q0 -215 -184 -320q-148 -85 -379 -85q-25 0 -75.5 2.5t-74.5 2.5q-32 0 -93.5 -2.5t-89.5 -2.5v29q65 0 87 14q29 15 29 77v569q0 52 -35 68q-18 9 -81 14v29q36 -5 207 -5q27 0 59.5 2.5t41.5 2.5q233 0 388 -80q200 -103 200 -315zM754 390q0 187 -138 285
q-121 86 -315 86h-63v-573q0 -84 23 -115q28 -34 107 -34q170 0 274 89q112 95 112 262z" />
    <glyph glyph-name="E" unicode="E" horiz-adv-x="703" 
d="M700 173q-51 -79 -58 -173q-60 0 -155 2.5t-130 2.5l-149 5q-103 3 -241 -5v29q63 0 85 13q31 19 31 78v555q0 58 -33 77q-23 14 -83 14v29q138 -8 241 -5h149q35 0 130 2.5t155 2.5q7 -97 58 -169l-34 -9q-37 86 -108 117q-54 22 -162 22q-102 0 -130 -10
q-58 -22 -58 -105v-203h164l34 34q3 4 4 4q2 -1 5 -4l53 -53q4 -4 4 -5q-1 -1 -4 -5l-53 -53h-9l-34 34h-164v-241q0 -82 58 -102q24 -9 130 -9q111 0 162 21q71 30 108 119z" />
    <glyph glyph-name="F" unicode="F" horiz-adv-x="684" 
d="M709 622l-34 -5q-37 86 -108 117q-54 23 -162 23q-95 0 -117 -6q-60 -17 -66 -86v-226h159l34 33q4 5 9 0l53 -53q4 -3 4 -5l-4 -4l-53 -53q-5 -5 -9 0l-29 29h-164v-208q0 -85 14 -111q21 -38 97 -38v-29q-26 0 -80.5 5t-83.5 5q-31 0 -95 -5t-98 -5v29q62 0 84 13
q32 19 32 78v555q0 58 -33 77q-23 14 -83 14v29q89 -10 246 -5h144q87 3 285 10q14 -98 58 -178z" />
    <glyph glyph-name="G" unicode="G" horiz-adv-x="888" 
d="M952 315q-71 0 -94 -25.5t-23 -96.5v-102l24 -19v-25q-189 -63 -360 -63q-208 0 -342 101q-149 112 -149 313q0 192 159 311q144 107 342 107q134 0 331 -58l19 -161h-29q-20 97 -114 145q-77 40 -187 40q-165 0 -270 -104t-105 -271q0 -161 107.5 -272.5t267.5 -111.5
q107 0 180 44v170q0 51 -35 66q-15 7 -82 12v29q85 -3 143 -7q49 -3 37 -3q6 0 55 3q65 4 125 7v-29z" />
    <glyph glyph-name="H" unicode="H" horiz-adv-x="1058" 
d="M1006 0q-26 0 -79.5 5t-80.5 5q-31 0 -95 -5t-99 -5v29q61 0 84 14q33 20 33 78v267h-534v-223q0 -78 16 -103q22 -33 96 -33l5 -29q-27 0 -82.5 5t-82.5 5q-32 0 -97 -5t-97 -5v29q60 0 82 14q30 20 30 78v572q0 52 -33 69q-17 9 -79 14v24q80 -3 139 -7q49 -3 40 -3
q29 0 90 5t90 5v-24q-72 -4 -94.5 -28.5t-22.5 -97.5v-209h534v252q0 55 -33 71q-15 7 -84 12v24q33 0 92 -5t88 -5t87 5t87 5v-24q-67 -4 -89 -31t-22 -95v-529q0 -57 30 -77q23 -15 81 -15v-29z" />
    <glyph glyph-name="I" unicode="I" horiz-adv-x="435" 
d="M384 0q-26 0 -80.5 5t-84.5 5q-31 0 -95 -5t-99 -5v29q60 0 84 14q32 20 32 78v572q0 52 -34 69q-19 9 -82 14v24q113 -5 179 -5q58 -1 180 5v-24q-70 -4 -93.5 -29t-23.5 -97v-485q0 -79 19 -104q22 -32 98 -32v-29z" />
    <glyph glyph-name="J" unicode="J" horiz-adv-x="344" 
d="M369 776q-78 -4 -102 -27.5t-24 -98.5v-451q0 -344 -272 -344v29q75 0 115 83q30 64 30 145v581q0 54 -39 71q-16 6 -87 12v24q37 0 107 -5t107 -5q26 0 82 5t83 5v-24z" />
    <glyph glyph-name="K" unicode="K" horiz-adv-x="873" 
d="M868 0q-55 7 -109 7t-105 -7l-417 398l315 290q42 38 42 56q0 24 -76 32v24q127 -10 151 -10t150 10v-24q-104 -8 -199 -92l-266 -238l334 -320q102 -97 180 -97v-29zM349 0q-27 0 -82.5 5t-82.5 5q-31 0 -95 -5t-99 -5v29q60 0 84 14q32 20 32 78v572q0 52 -34 69
q-19 9 -82 14v24q37 0 106 -5t102 -5q28 0 77.5 5t73.5 5v-24q-72 -4 -94.5 -28.5t-22.5 -97.5v-529q0 -58 33 -78q23 -14 84 -14v-29z" />
    <glyph glyph-name="L" unicode="L" horiz-adv-x="723" 
d="M724 178l-49 -178l-419 10q-29 0 -260 -10l-5 34q78 0 101.5 23.5t23.5 96.5v540q0 51 -34 68q-19 9 -81 14v24q33 0 103 -5t104 -5q24 0 74.5 5t74.5 5v-24q-71 -4 -93 -28t-22 -97v-482q0 -76 45 -102q34 -19 118 -19q127 0 173 16q83 28 112 124z" />
    <glyph glyph-name="M" unicode="M" horiz-adv-x="1295" 
d="M1249 0q-34 0 -99 5t-99 5q-37 0 -105.5 -5t-101.5 -5v29q85 0 110 28.5t25 120.5v550l-304 -101v-463q0 -75 20 -102q24 -33 96 -33v-29q-26 0 -80 5t-84 5q-31 0 -94.5 -5t-98.5 -5v29q60 0 84 14q32 19 32 77v511l-289 97v-550q0 -89 25 -119t110 -30v-29
q-33 0 -102 5t-105 5q-31 0 -97.5 -5t-100.5 -5v29q145 0 145 188v434q0 67 -17 91q-20 29 -85 29v29q136 -8 155 -5q48 0 67 5l362 -125l356 125q19 -5 77 -5q19 -3 154 5v-29q-65 0 -84 -26q-17 -22 -17 -94v-434q0 -188 145 -188v-29z" />
    <glyph glyph-name="N" unicode="N" horiz-adv-x="1014" 
d="M968 0q-31 0 -97 5t-101 5q-34 0 -103.5 -5t-103.5 -5v29q90 0 114 31q21 26 21 118v550l-458 -159v-391q0 -91 27 -120t113 -29v-29q-33 0 -102 5t-105 5q-31 0 -97.5 -5t-100.5 -5v29q145 0 145 188v434q0 70 -17 92q-20 28 -85 28v29l222 -5v-159l453 164
q12 0 38.5 -2.5t38.5 -2.5q18 -3 159 5v-29q-66 0 -86 -24.5t-20 -95.5v-434q0 -188 145 -188v-29z" />
    <glyph glyph-name="O" unicode="O" horiz-adv-x="987" 
d="M955 422q9 -190 -135 -318q-135 -120 -322 -120v0q-189 -4 -328 109q-149 121 -149 309q0 182 143 300q132 110 314 114q181 4 320 -102q148 -114 157 -292zM760 607q-42 74 -129 118q-82 42 -172 42q-134 0 -220 -102q-82 -97 -82 -233q0 -160 101 -279
q106 -125 264 -125q146 0 230 103q76 93 76 234q0 131 -68 242zM551 393l-53 -54h-10l-54 54q-1 2 -3 5q0 1 3 4l54 54q4 4 5 4q1 -1 5 -4l53 -54q4 -3 4 -4q-1 -2 -4 -5z" />
    <glyph glyph-name="P" unicode="P" horiz-adv-x="592" 
d="M628 582q0 -115 -98 -178q-83 -55 -203 -55h-107v-184q0 -78 21 -104q25 -32 101 -32l-5 -29q-26 0 -80.5 5t-84.5 5q-31 0 -95 -5t-99 -5v29q60 0 84 14q32 20 32 78v572q0 52 -34 69q-19 9 -82 14v24q25 0 72 -2.5t69 -2.5q29 0 87 2.5t87 2.5q134 0 220 -42
q115 -56 115 -176zM492 572q0 97 -67 148q-60 46 -161 46h-44v-383h88q86 0 135 50.5t49 138.5z" />
    <glyph glyph-name="Q" unicode="Q" horiz-adv-x="984" 
d="M1011 -7l-171 -138l-19 14q8 41 -67 109l-57 53q-99 -46 -209 -48q-185 -3 -322 107q-148 118 -148 302q0 176 142 292q131 108 309 111q177 4 313 -99q145 -111 153 -285q5 -116 -52 -212q-53 -88 -148 -145l24 -28q68 -65 120 -65q46 0 113 51zM745 591
q-45 73 -130 116q-81 41 -169 41q-128 0 -211 -100q-79 -95 -79 -228q0 -156 97 -272q103 -122 254 -122q93 0 157 43l-52 52q-67 67 -120 67q-45 0 -113 -48l-19 19l171 138l19 -19q-7 -36 62 -105l85 -85q111 90 111 267q0 129 -63 236z" />
    <glyph glyph-name="R" unicode="R" horiz-adv-x="888" 
d="M850 0q-106 10 -91 10q-4 0 -36 -3q-43 -4 -80 -7q-99 84 -299 376q-22 0 -61.5 2.5t-58.5 2.5v-217q0 -76 18 -102q23 -33 98 -33v-29q-27 0 -82.5 5t-81.5 5q-32 0 -97 -5t-96 -5v29q60 0 83 14q33 19 33 77v569q0 52 -35 68q-18 9 -81 14v29q50 -12 198 -5q106 5 96 5
q376 0 376 -202q0 -139 -183 -198q67 -92 164 -217q133 -154 216 -154v-29zM523 588q0 173 -236 173q-39 0 -63 -4v-333q39 -10 67 -10q95 0 158 40q74 47 74 134z" />
    <glyph glyph-name="S" unicode="S" horiz-adv-x="556" 
d="M528 222q0 -114 -103 -181q-88 -57 -208 -57q-112 0 -200 44l-29 170h34q52 -170 204 -170q75 0 125 37q55 41 55 114q0 59 -74 116q-36 27 -125 73t-130 86q-60 60 -60 138q0 112 88 172q77 52 194 52q59 0 161 -15l19 -146h-29q-22 127 -165 127q-63 0 -110 -35
q-51 -39 -51 -101q0 -73 69 -126q32 -25 136 -74q93 -44 135 -83q64 -59 64 -141z" />
    <glyph glyph-name="T" unicode="T" horiz-adv-x="881" 
d="M866 588h-28q-15 98 -56 133.5t-142 35.5h-149v-584q0 -86 19 -112q25 -32 111 -32l-5 -29l-198 10q-31 1 -89 -4q-64 -6 -89 -6v29q67 0 90 11q35 19 35 80v637h-135q-101 0 -142 -35.5t-55 -133.5h-34l29 241h29q22 -29 135 -29h173v63q0 48 -34 64q-18 8 -81 13v29
l178 -10q-7 0 178 10v-29q-68 0 -91.5 -25.5t-23.5 -95.5v-19h188q113 0 134 29h25z" />
    <glyph glyph-name="U" unicode="U" horiz-adv-x="830" 
d="M880 775q-71 0 -94 -33q-17 -25 -17 -98v-336q0 -325 -340 -325q-345 0 -345 325v336q0 74 -15 98q-21 33 -92 33v24q29 0 85 -2.5t85 -2.5t85 2.5t85 2.5v-24q-69 0 -92 -42q-15 -29 -15 -104v-272q0 -330 219 -330q213 0 213 330v272q0 78 -12 104q-21 42 -90 42v24
q27 0 84 -2.5t86 -2.5q30 0 85.5 2.5t84.5 2.5v-24z" />
    <glyph glyph-name="V" unicode="V" horiz-adv-x="978" 
d="M929 776q-49 0 -90 -58q-20 -28 -53 -99l-281 -619h-47l-295 643q-59 126 -153 133v24q155 -6 205 -5q24 0 143 5v-24q-45 -3 -63 -10q-21 -10 -21 -31q0 -17 12 -45l234 -533l195 443q38 86 38 113q0 57 -100 63v24q38 -5 172 -5q52 0 104 5v-24z" />
    <glyph glyph-name="W" unicode="W" horiz-adv-x="1350" 
d="M1301 776q-49 0 -89 -59q-13 -20 -49 -98l-286 -619h-47l-162 357l-162 -357h-48l-295 643q-58 126 -153 133v24q155 -6 205 -5q24 0 143 5v-24q-45 -3 -62 -10q-22 -10 -22 -31q0 -17 13 -45l233 -533l124 286v62q0 48 -34 65q-23 11 -80 11v29l176 -10q-7 0 176 10v-29
q-67 0 -90.5 -25t-23.5 -94v-19l123 -286l196 443q38 86 38 113q0 57 -100 63v24q38 -5 171 -5q53 0 105 5v-24z" />
    <glyph glyph-name="X" unicode="X" horiz-adv-x="1012" 
d="M975 0l-141 5l-194 -5v29q67 0 67 27q0 18 -28 51l-213 242l-185 -218q-38 -46 -38 -68q0 -34 92 -34v-29q-83 5 -175 5q-121 0 -145 -5v29q110 8 179 87l243 277l-272 315q-45 52 -140 68v24q155 -10 169 -10q-10 0 194 10v-24q-83 -4 -83 -34q0 -21 44 -73l165 -194
l141 160q63 72 63 98q0 34 -78 43v24q81 -5 136 -10q-12 0 37 3q58 4 142 7v-24q-116 -8 -213 -117l-194 -218l238 -281q55 -66 82 -88q53 -43 107 -43v-29z" />
    <glyph glyph-name="Y" unicode="Y" horiz-adv-x="840" 
d="M900 776q-58 -7 -141 -107l-218 -262v-228q0 -91 16 -115q23 -35 110 -35v-29q-116 10 -179 10q-34 0 -102 -5t-102 -5v29q79 0 102.5 19t23.5 93v252l-257 300q-70 83 -145 83v24l155 -10q37 -2 194 10v-24q-74 0 -74 -28q0 -18 30 -55l194 -237l189 213q36 41 36 66
q0 41 -94 41v24q22 0 65.5 -2.5t65.5 -2.5t65.5 2.5t65.5 2.5v-24z" />
    <glyph glyph-name="Z" unicode="Z" horiz-adv-x="863" 
d="M862 801l-651 -757h316q120 0 176 25q75 33 115 130l29 -10l-58 -189h-777l660 758h-374q-93 0 -136 -22q-55 -28 -82 -109h-29l38 189h34q7 -12 42 -15h56h641z" />
    <glyph glyph-name="backslash" unicode="\" horiz-adv-x="664" 
d="M623 0q0 -19 -10 -19q-47 0 -298 400q-122 202 -245 404q-2 6 -2 11q0 20 25 20q18 0 26 -16q504 -755 504 -800z" />
    <glyph glyph-name="a" unicode="a" horiz-adv-x="714" 
d="M691 26l-5 -29q-24 0 -71.5 5t-71.5 5q-40 0 -109.5 -12t-101.5 -12v0q-124 0 -210 71q-92 76 -92 197q0 118 67.5 183.5t186.5 65.5q35 0 110.5 -9.5t114.5 -9.5q32 0 90.5 5t86.5 5v-24q-54 0 -76 -14q-30 -19 -29 -72l5 -264q1 -49 20 -69q23 -22 85 -22zM471 165v201
q0 47 -46 76q-41 25 -93 25q-89 0 -143 -60t-54 -151t51 -158q54 -72 136 -72q70 0 110 41q39 38 39 98z" />
    <glyph glyph-name="b" unicode="b" horiz-adv-x="623" 
d="M644 264q0 -133 -82.5 -207t-217.5 -74q-34 0 -92 12t-89 12q-28 0 -86 -5t-90 -5v24q54 0 75 12q30 17 30 69v603q0 44 -31 59q-17 7 -74 12v24q102 -4 162 -5q50 -1 162 5v-24q-64 -3 -84.5 -26t-20.5 -88v-222q79 57 191 57q106 0 176.5 -64t70.5 -169zM525 235
q0 89 -46 151q-50 68 -135 68q-86 0 -138 -66v-234q4 -67 34 -98q34 -35 109 -35q84 0 133 66q43 60 43 148z" />
    <glyph glyph-name="c" unicode="c" horiz-adv-x="563" 
d="M533 122q0 -14 -9 -101q-129 -39 -192 -38q-129 3 -217 68q-99 73 -99 195q0 119 99 191q89 65 217 68q63 1 192 -38q9 -86 9 -101h-14q-24 58 -69 81q-40 20 -113 20q-94 0 -152.5 -60.5t-58.5 -160.5q0 -103 58.5 -164t152.5 -61q73 0 113 20q45 23 69 81h14z" />
    <glyph glyph-name="d" unicode="d" horiz-adv-x="611" 
d="M640 -3q-31 0 -89.5 5t-86.5 5q-30 0 -88.5 -12t-92.5 -12q-134 0 -213 73q-82 75 -82 208q0 105 70 170q67 63 173 63q112 0 190 -57v222q0 65 -20.5 88t-83.5 26v24q112 -6 161 -5q27 0 162 5v-24q-57 -5 -73 -12q-31 -15 -31 -59v-603q0 -52 30 -69q21 -12 74 -12v-24
zM421 154v0v234q-52 66 -138 66q-84 0 -135 -68q-46 -62 -46 -151q0 -88 44 -148q48 -66 132 -66q143 0 143 133z" />
    <glyph glyph-name="e" unicode="e" horiz-adv-x="576" 
d="M539 122q0 -14 -9 -101q-129 -39 -192 -38q-129 3 -217 68q-99 73 -99 195q0 119 99 191q89 65 217 68q63 1 192 -38q9 -86 9 -101h-14q-24 58 -69 81q-39 20 -108 20q-90 0 -149.5 -55.5t-66.5 -145.5h192l29 28h9l43 -48q5 0 0 -4l-43 -48h-9l-24 29h-192
q4 -93 62 -147.5t149 -54.5q69 0 108 20q45 23 69 81h14z" />
    <glyph glyph-name="f" unicode="f" horiz-adv-x="401" 
d="M402 366l-43 -48h-10l-24 29h-115v-251q0 -47 33 -61q12 -5 73 -11v-24q-32 0 -92 5t-91 5q-25 0 -73 -5t-72 -5v24q66 4 88.5 25.5t22.5 85.5v361q0 304 236 304l-5 -29q-62 0 -94 -70q-26 -55 -26 -128v-183h111l28 29h10l43 -48q4 0 4 -2q-1 -3 -4 -3z" />
    <glyph glyph-name="g" unicode="g" horiz-adv-x="694" 
d="M687 471q-56 0 -77 -13q-29 -19 -29 -73v-362q0 -318 -251 -318l5 29q65 0 101 75q29 59 29 132v77q-76 -33 -139 -33q-123 0 -210 71q-94 77 -94 198q0 116 69.5 183.5t185.5 67.5q39 0 116 -9.5t116 -9.5q28 0 87 4.5t91 4.5v-24zM465 168v202q0 47 -45 74
q-39 22 -90 22q-92 0 -147 -57.5t-55 -149.5t51 -159q55 -72 142 -72q67 0 105.5 38.5t38.5 101.5z" />
    <glyph glyph-name="h" unicode="h" horiz-adv-x="713" 
d="M747 0q-27 0 -76.5 5t-72.5 5q-32 0 -91 -5t-87 -5v29q54 0 74 12q27 17 27 70v135q0 89 -47 152q-51 69 -136 69q-73 0 -140 -67v0v-246q0 -71 17 -95q22 -30 94 -30l-5 -29q-24 0 -73 5t-77 5t-86 -5t-87 -5v29q55 0 74 12q27 17 27 70v593q0 47 -31 61q-12 6 -70 11
v24q106 -5 164 -5q72 0 164 5v-24q-69 -4 -90 -25t-21 -86v-217q76 63 193 63q107 0 178.5 -65t71.5 -171v-121q0 -71 17 -95q21 -30 89 -30v-29z" />
    <glyph glyph-name="i" unicode="i" horiz-adv-x="379" 
d="M274 700l-82 -77h-10l-82 77q-7 7 0 14l82 82q0 4 5 4t5 -4l82 -82q7 -7 0 -14zM351 0q-27 0 -76.5 5t-72.5 5q-32 0 -91.5 -5t-87.5 -5v29q56 0 77 12q29 17 29 70v294q0 49 -31 64q-19 9 -75 9v29q99 -5 164 -10q-5 0 164 10v-29q-64 0 -85 -22.5t-21 -88.5v-213
q0 -73 17 -97q21 -28 89 -28v0v-29z" />
    <glyph glyph-name="j" unicode="j" horiz-adv-x="340" 
d="M263 700l-82 -77h-10l-82 77q-7 7 0 14l82 82q0 4 5 4t5 -4l82 -82q8 -7 0 -14zM331 480q-65 0 -85.5 -20.5t-20.5 -85.5v-366q0 -304 -236 -304v29q65 0 99 72q26 55 26 126v481q0 46 -33 59q-21 9 -78 9v24q32 0 94.5 -5t93.5 -5q25 0 72 5t68 5v-24z" />
    <glyph glyph-name="k" unicode="k" horiz-adv-x="678" 
d="M727 0q-51 7 -98 7q-48 0 -95 -7l-337 366l183 121q40 26 40 46q0 27 -69 31v24q106 -10 130 -10t140 10v-24q-41 0 -87.5 -30t-91.5 -62l-125 -86l246 -270q79 -87 164 -87v-29zM303 0q-27 0 -76.5 5t-73.5 5q-32 0 -91 -5t-87 -5v29q56 0 77 12q29 17 29 70v593
q0 47 -31 61q-13 6 -75 11v24q98 -4 164 -10q-5 1 164 10v-24q-66 -4 -86 -25t-20 -86v-511q0 -71 17 -95q21 -30 89 -30v-29z" />
    <glyph glyph-name="l" unicode="l" horiz-adv-x="309" 
d="M331 0q-236 0 -236 304v366q0 65 -20.5 85.5t-85.5 20.5v24q21 0 68 -5t72 -5q31 0 93.5 5t94.5 5v-24q-57 0 -77 -9q-34 -13 -34 -59v-481q0 -71 26 -126q35 -72 99 -72v-29z" />
    <glyph glyph-name="m" unicode="m" horiz-adv-x="974" 
d="M950 5q-63 0 -187 14q-67 8 -67 153v269l-163 -91v-187q0 -75 17 -99q22 -30 93 -30v-29q-26 0 -76.5 7t-76.5 7q-32 0 -91.5 -7t-90.5 -7v29q55 0 76 13q29 18 29 73v230l-158 91v-269q0 -145 -67 -153q-125 -14 -187 -14v29q139 0 139 172v163q0 63 -16 84
q-20 26 -85 26v24q45 0 94 -2.5t55 -2.5q24 5 62 5l225 -125l225 125q39 0 63 -5q6 0 53.5 2.5t89.5 2.5v-24q-61 0 -81 -28q-14 -21 -14 -82v-163q0 -172 139 -172v-29z" />
    <glyph glyph-name="n" unicode="n" horiz-adv-x="715" 
d="M691 5q-62 0 -187 14q-67 8 -67 153v269l-216 -120v-163q0 -73 17 -96q21 -28 89 -28v-29q-24 0 -74.5 4.5t-74.5 4.5q-28 0 -88 -4.5t-89 -4.5v29q58 0 78 12q27 16 27 69v292q0 48 -31 63q-19 9 -74 9v29q62 -10 139 -12q68 -2 81 2v-115l221 120q38 0 62 -5
q6 0 54 2.5t90 2.5v-24q-62 0 -81 -28q-15 -21 -15 -82v-163q0 -172 139 -172v-29z" />
    <glyph glyph-name="o" unicode="o" horiz-adv-x="620" 
d="M575 256q5 -118 -83 -197q-83 -74 -200 -76t-204 70q-93 76 -93 193q0 114 87 188q82 69 196 71t199 -64q93 -72 98 -185zM436 371q-25 43 -71.5 69.5t-96.5 26.5q-73 0 -120.5 -60t-47.5 -142q0 -97 56 -168q59 -76 146 -76q82 0 129 61q42 56 42 141q0 80 -37 148z" />
    <glyph glyph-name="p" unicode="p" horiz-adv-x="655" 
d="M654 254q0 -121 -95 -198q-88 -71 -213 -71q-59 0 -135 33v-173q0 -66 20.5 -88.5t85.5 -22.5v-29q-169 9 -164 10q-27 -3 -164 -10v29q55 0 75 9q31 15 31 63v579q0 54 -29 73q-21 13 -77 13v24q29 0 89 -4.5t89 -4.5q39 0 116 9.5t116 9.5q116 0 185.5 -67.5
t69.5 -183.5zM548 259q0 92 -55 149.5t-147 57.5q-53 0 -91 -22q-44 -27 -44 -74v-202q0 -63 38.5 -101.5t105.5 -38.5q87 0 142 72q51 67 51 159z" />
    <glyph glyph-name="q" unicode="q" horiz-adv-x="689" 
d="M682 -295q-98 4 -164 10q5 -1 -163 -10v29q67 0 88.5 22.5t21.5 88.5v173q-76 -33 -139 -33q-125 0 -212 71q-92 77 -92 198q0 116 68 183.5t187 67.5q36 0 112 -9.5t115 -9.5q32 0 91 4.5t87 4.5v-24q-54 0 -76 -14q-30 -19 -30 -72v-579q0 -48 32 -63q19 -9 74 -9v-29z
M465 168v202q0 47 -46 74q-40 22 -93 22q-93 0 -145.5 -57t-52.5 -150q0 -91 51 -159q54 -72 137 -72q71 0 110 38.5t39 101.5z" />
    <glyph glyph-name="r" unicode="r" horiz-adv-x="363" 
d="M338 484q-64 0 -98 -71q-27 -56 -27 -126v-186q0 -48 33 -61q13 -6 73 -11v-24q-28 0 -89.5 4.5t-92.5 4.5q-24 0 -72 -4.5t-72 -4.5v24q66 3 88 24.5t22 85.5v273q0 48 -33 63q-21 9 -77 9v24q31 0 88.5 -5t88.5 -5v-57q54 67 168 67v-24z" />
    <glyph glyph-name="s" unicode="s" horiz-adv-x="416" 
d="M385 122q0 -67 -63 -105q-55 -33 -137 -33q-89 0 -145 37q-2 31 -9 101h19q21 -47 71 -77q46 -28 93 -28q85 0 85 81q0 49 -72 75q-121 43 -134 51q-72 45 -72 142q0 67 58 104q51 33 127 33q83 0 136 -36q10 -77 10 -101h-15q-21 47 -65.5 76t-87.5 29q-77 0 -77 -81
q0 -65 72 -97l134 -52q72 -39 72 -119z" />
    <glyph glyph-name="t" unicode="t" horiz-adv-x="603" 
d="M577 312h-24q-14 90 -53 122t-130 32h-10v-384q0 -70 26 -126q33 -72 95 -72l5 -29q-236 0 -236 304v307h-20q-92 0 -130 -33t-53 -121h-24l24 222h24q22 -29 121 -29h58v165q0 64 -22.5 85t-88.5 21v24q24 0 72 -5t72 -5q29 0 90 5t93 5v-24q-53 0 -73 -9
q-33 -14 -33 -59v-203h49q98 0 120 29h24z" />
    <glyph glyph-name="u" unicode="u" horiz-adv-x="767" 
d="M748 477q-69 0 -90 -31q-17 -24 -17 -97v-127q0 -239 -274 -239t-274 239v127q0 73 -17 97q-21 31 -90 31v24q81 -11 162 -11q82 0 170 11v-24q-56 0 -78 -14q-29 -19 -29 -74v-137q0 -86 39 -151q45 -74 117 -74t114 74q38 64 38 151v137q0 54 -28 73q-21 15 -75 15v24
q84 -11 166 -11t166 11v-24z" />
    <glyph glyph-name="v" unicode="v" horiz-adv-x="657" 
d="M650 479q-46 0 -85 -54q-17 -26 -49 -94l-148 -326h-43l-163 349q-55 118 -144 125v24q199 -9 192 -10q21 3 134 10v-24q-43 -3 -59 -10q-20 -8 -20 -28q0 -16 12 -43l105 -240l144 331q7 0 49 5q54 7 75 9v-24z" />
    <glyph glyph-name="w" unicode="w" horiz-adv-x="926" 
d="M919 479q-47 0 -85 -54q-18 -26 -50 -94l-148 -326h-43l-115 244l-110 -244h-48l-158 349q-53 117 -144 125v24l192 -10q-7 0 31 3q44 4 103 7v-24q-44 -3 -61 -10q-20 -9 -20 -31q0 -15 9 -40l110 -240l144 331q7 0 48 5q49 7 76 9v-24q-57 0 -105 -86l105 -235l144 331
q11 0 52 5q53 7 73 9v-24z" />
    <glyph glyph-name="x" unicode="x" horiz-adv-x="786" 
d="M779 5q-51 7 -98 7t-94 -7l-182 196l-192 -196q-46 7 -96 7t-100 -7v29q81 0 163 81l153 153l-120 125q-85 89 -177 96v24q115 -10 139 -10q19 0 134 10v-24q-65 -4 -65 -25q0 -16 36 -57l87 -96l100 101q37 36 37 52q0 21 -65 25v28q86 -14 182 -14q24 0 139 10v-24
q-86 -7 -168 -96l-115 -125l148 -153q79 -81 154 -81v-29z" />
    <glyph glyph-name="y" unicode="y" horiz-adv-x="764" 
d="M742 481q-72 0 -94 -30q-18 -24 -17 -95l5 -347q4 -304 -241 -304l4 29q65 0 97 72q24 53 24 126v96q-61 -34 -154 -34q-270 0 -270 236v126q0 71 -18 95q-22 30 -93 30l5 24q79 -11 159 -11q81 0 164 11v-24q-54 0 -75 -15q-26 -18 -26 -72v-140q0 -80 38 -144
q43 -72 111 -72q71 0 115 72q39 64 39 144v140q0 54 -27 72q-21 15 -74 15v24q79 -11 161 -11t162 11z" />
    <glyph glyph-name="z" unicode="z" horiz-adv-x="688" 
d="M661 169l-55 -169h-578l434 463h-225q-85 0 -123 -18q-50 -24 -71 -96h-30l35 169h30q6 -12 37 -15h52h484l-429 -463h150q106 0 157 23q67 30 102 116z" />
    </font>
</defs>
</svg>
