<?xml version="1.0" standalone="no"?>
<!DOCTYPE svg PUBLIC "-//W3C//DTD SVG 1.1//EN" "http://www.w3.org/Graphics/SVG/1.1/DTD/svg11.dtd" >
<svg xmlns="http://www.w3.org/2000/svg" xmlns:xlink="http://www.w3.org/1999/xlink" version="1.1">
<metadata>
Created by FontForge 20170731 at Fri Dec 13 16:55:47 2013
 By Aleksey,,,
2013 Iconian Font - www.iconian.com
</metadata>
<defs>
<font id="FederalEscortLaser" horiz-adv-x="786" >
  <font-face 
    font-family="Federal Escort Laser"
    font-weight="400"
    font-stretch="normal"
    units-per-em="1000"
    panose-1="0 0 0 0 0 0 0 0 0 0"
    ascent="800"
    descent="-200"
    x-height="561"
    cap-height="561"
    bbox="-51 -169 1533 794"
    underline-thickness="50"
    underline-position="-175"
    unicode-range="U+0020-2122"
  />
<missing-glyph horiz-adv-x="500" 
 />
    <glyph glyph-name=".notdef" horiz-adv-x="500" 
 />
    <glyph glyph-name=".null" horiz-adv-x="0" 
 />
    <glyph glyph-name="nonmarkingreturn" horiz-adv-x="500" 
 />
    <glyph glyph-name="space" unicode=" " horiz-adv-x="384" 
 />
    <glyph glyph-name="space" unicode="&#xa0;" horiz-adv-x="384" 
 />
    <glyph glyph-name="FL0021h" unicode="!" horiz-adv-x="340" 
d="M310 561h-280v-147h280v147zM52 92q0 -20 9.5 -36.5t25.5 -29t37.5 -19.5t45.5 -7t45.5 7t37 19.5t25 29t9.5 36.5q0 19 -9.5 36t-25 29.5t-37 19.5t-45.5 7t-45.5 -7t-37.5 -19.5t-25.5 -29.5t-9.5 -36zM52 227h235l23 88v36h-280v-36z" />
    <glyph glyph-name="FL0022h" unicode="&#x22;" horiz-adv-x="504" 
d="M265 414h209v56q0 19 -8 35.5t-22.5 29t-33.5 19.5t-40 7q-22 0 -41 -7t-33.5 -19.5t-22.5 -29t-8 -35.5v-56zM30 414h209v55q0 19 -8 35.5t-22.5 29t-33.5 19.5t-40 7q-22 0 -41 -7t-33.5 -19.5t-22.5 -29t-8 -35.5v-55zM237 351h-205q7 -32 35.5 -53t67.5 -21
q38 0 66.5 21t35.5 53zM472 351h-205q7 -32 35.5 -52.5t67.5 -20.5q38 0 66 20.5t36 52.5z" />
    <glyph glyph-name="FL0023h" unicode="#" horiz-adv-x="839" 
d="M97 310v-59h-67v-143h67v-108h280v108h85v-108h280v108h67v143h-67v59h67v41h-779v-41h67zM742 453v108h-280v-108h-85v108h-280v-108h-67v-39h779v39h-67zM377 251v59h85v-59h-85z" />
    <glyph glyph-name="FL0024h" unicode="$" horiz-adv-x="768" 
d="M632 351h-602v-14q0 -23 13 -45.5t32.5 -40.5t42 -29.5t42.5 -11.5h297v-12q0 -8 -5.5 -15t-15.5 -7h-406v-147h241v-89h224v89h105q28 0 53 13t44 33.5t30 45.5t11 49v85q0 18 -9.5 34t-25 28.5t-34.5 21.5t-37 12zM496 631h-224v-96h-105q-26 0 -49.5 -10t-41.5 -27
t-30 -38.5t-15 -45.5h706v121h-241v96z" />
    <glyph glyph-name="FL0025h" unicode="%" horiz-adv-x="937" 
d="M839 280h-229l64 71h-644v-10q0 -12 6 -23t15.5 -19.5t21 -13.5t22.5 -5h231l-254 -280h284l188 207v-146q0 -12 6 -23t15.5 -19.5t21 -13.5t22.5 -5h233q12 0 23.5 5t20.5 13.5t15 19.5t6 23v148q0 13 -5.5 25.5t-14.5 22.5t-21.5 16.5t-26.5 6.5zM191 444q0 6 5 8h31
q3 0 4.5 -3t1.5 -5v-30h160v75q0 13 -5.5 25.5t-14.5 22.5t-21.5 16.5t-26.5 6.5h-226q-14 0 -26.5 -6.5t-22 -16.5t-15 -22.5t-5.5 -25.5v-75h161v30zM865 561h-283l-134 -147h283zM705 111v53q0 6 5 8h31q3 0 4.5 -3t1.5 -5v-53q-2 -6 -6 -6h-31q-5 0 -5 6z" />
    <glyph glyph-name="FL0026h" unicode="&#x26;" horiz-adv-x="846" 
d="M752 144v64h64v142h-475q-12 0 -16 1h-290q4 -20 13 -37.5t23 -28.5q-24 -21 -32.5 -52t-8.5 -63q0 -28 7.5 -58t25.5 -55t47 -41t71 -16h457q27 0 48 11t36 30.5t22.5 46t7.5 56.5zM340 414h323v147h-481q-33 0 -59 -13.5t-45 -34.5t-30.5 -47.5t-15.5 -51.5h302h6z
M304 181q0 16 7.5 23t28.5 7h132v-27q0 -15 -6.5 -26t-15.5 -11h-111q-19 0 -27 10t-8 24z" />
    <glyph glyph-name="FL0027h" unicode="'" horiz-adv-x="279" 
d="M30 470v-56h219v56q0 19 -8.5 35.5t-23.5 29t-35 19.5t-42 7q-23 0 -43 -7t-35 -19.5t-23.5 -29t-8.5 -35.5zM140 278q39 0 69 20.5t38 52.5h-215q8 -32 37.5 -52.5t70.5 -20.5z" />
    <glyph glyph-name="FL0028h" unicode="(" horiz-adv-x="430" 
d="M311 116v235h-281v-282q0 -24 12 -46t30.5 -39t41.5 -27.5t46 -10.5h233v147h-62q-8 0 -14 6.5t-6 16.5zM168 615q-28 0 -53 -12.5t-44 -33t-30 -46t-11 -51.5v-58h281v24q0 8 5.5 19t15.5 11h68v147h-232z" />
    <glyph glyph-name="FL0029h" unicode=")" horiz-adv-x="430" 
d="M400 69v282h-281v-235q0 -10 -6 -16.5t-14 -6.5h-62v-147h233q22 0 45.5 10.5t42 27.5t30.5 39t12 46zM30 615v-147h68q10 0 15.5 -11t5.5 -19v-24h281v58q0 26 -11 51.5t-30 46t-44 33t-53 12.5h-232z" />
    <glyph glyph-name="asterisk" unicode="*" horiz-adv-x="288" 
d="M140 444l15 -30h42l56 43l-42 38l60 12l-34 95l-49 -24l5 50h-107l5 -50l-42 26l-32 -96l51 -13l-39 -37l56 -44h40z" />
    <glyph glyph-name="FL002Bh" unicode="+" horiz-adv-x="395" 
d="M30 208h96v-97h143v97h96v143h-335v-143zM269 446h-143v-32h143v32z" />
    <glyph glyph-name="FL002Ch" unicode="," horiz-adv-x="295" 
d="M30 92v-103q0 -20 9.5 -36.5t25.5 -29t37.5 -19.5t45.5 -7t45.5 7t37 19.5t25 29t9.5 36.5v103q0 19 -9.5 36t-25 29.5t-37 19.5t-45.5 7t-45.5 -7t-37.5 -19.5t-25.5 -29.5t-9.5 -36z" />
    <glyph glyph-name="FL002Dh" unicode="-" horiz-adv-x="395" 
d="M30 351v-143h335v143h-335z" />
    <glyph glyph-name="FL002Eh" unicode="." horiz-adv-x="295" 
d="M30 92q0 -20 9.5 -36.5t25.5 -29t37.5 -19.5t45.5 -7t45.5 7t37 19.5t25 29t9.5 36.5q0 19 -9.5 36t-25 29.5t-37 19.5t-45.5 7t-45.5 -7t-37.5 -19.5t-25.5 -29.5t-9.5 -36z" />
    <glyph glyph-name="FL002Fh" unicode="/" horiz-adv-x="827" 
d="M345 0l291 351h-328l-291 -351h328zM810 561h-328l-122 -147h328z" />
    <glyph glyph-name="FL0030h" unicode="0" horiz-adv-x="767" 
d="M309 170v181h-279v-228q0 -24 12 -46t30.5 -39t41.5 -27.5t46 -10.5h447q23 0 46 10.5t42 27.5t30.5 39t11.5 46v228h-279v-181q-3 -6 -9.5 -14.5t-12.5 -8.5h-105q-13 0 -17 9t-5 14zM600 561h-433q-28 0 -53 -12.5t-43.5 -33t-29.5 -46t-11 -51.5v-4h707v4
q0 26 -11 51.5t-29.5 46t-43.5 33t-53 12.5z" />
    <glyph glyph-name="FL0031h" unicode="1" horiz-adv-x="452" 
d="M422 0v351h-280v-351h280zM30 414h392v147h-392v-147z" />
    <glyph glyph-name="FL0032h" unicode="2" horiz-adv-x="768" 
d="M30 0h708v147h-427v63h297q19 0 42 11.5t42.5 29.5t32.5 40.5t13 45.5v14h-602q-19 -3 -38 -12t-34 -21.5t-24.5 -28.5t-9.5 -34v-255zM31 414h707v10q0 26 -11 50.5t-30 44t-43.5 31t-52.5 11.5h-570v-147z" />
    <glyph glyph-name="FL0033h" unicode="3" horiz-adv-x="725" 
d="M384 350h-354v-139h355q21 0 28.5 -7t7.5 -23q0 -14 -8 -24t-27 -10h-356v-147h514q42 0 71 16t47 41t25.5 55t7.5 58q0 32 -8.5 63t-32.5 52q14 11 22.5 28.5t13.5 37.5h-290q-5 -1 -16 -1zM543 561h-513v-147h355h5h302q-3 25 -14.5 51.5t-30.5 47.5t-45 34.5t-59 13.5
z" />
    <glyph glyph-name="FL0034h" unicode="4" horiz-adv-x="926" 
d="M30 180v-99h464v-81h279v81h123v143h-123v127h-609zM213 414h560v147h-412q-10 0 -22 -6.5t-22.5 -15.5t-19 -18t-12.5 -15zM390 224l80 109q3 5 5 7t7 2q3 -2 7.5 -4t4.5 -3v-111h-104z" />
    <glyph glyph-name="FL0035h" unicode="5" horiz-adv-x="768" 
d="M738 141v114q0 18 -9.5 34t-25 28.5t-34.5 21.5t-37 12h-602v-14q0 -23 13 -45.5t32.5 -40.5t42 -29.5t42.5 -11.5h297v-33q0 -8 -5.5 -19t-15.5 -11h-406v-147h570q28 0 53 13t44 33.5t30 45.5t11 49zM737 414v147h-707v-147h707z" />
    <glyph glyph-name="FL0036h" unicode="6" 
d="M756 253q0 16 -7.5 31t-20 28t-28.5 23t-33 16h-637v-228q0 -23 12 -45t30.5 -39t41.5 -28t46 -11h466q23 0 46 10.5t42 27.5t30.5 39t11.5 46v130zM30 414h299h2h422v147h-586q-28 0 -53 -12.5t-43.5 -33t-29.5 -46t-11 -51.5v-4zM331 147q-11 0 -14.5 8.5t-6.5 14.5v41
h167v-41q-3 -6 -8.5 -14.5t-13.5 -8.5h-124z" />
    <glyph glyph-name="FL0037h" unicode="7" horiz-adv-x="815" 
d="M114 0h328l291 351h-328zM785 561h-755v-147h755v147z" />
    <glyph glyph-name="FL0038h" unicode="8" horiz-adv-x="769" 
d="M429 350h-89q-12 0 -16 1h-290q4 -20 13 -37.5t23 -28.5q-24 -21 -32.5 -52t-8.5 -63q0 -28 7.5 -58t25.5 -55t47 -41t71 -16h409q42 0 71 16t47 41t25.5 55t7.5 58q0 32 -8.5 63t-32.5 52q14 11 22.5 28.5t13.5 37.5h-290q-5 -1 -16 -1zM588 561h-407q-33 0 -59 -13.5
t-45 -34.5t-30.5 -47.5t-15.5 -51.5h300h2h404q-3 25 -14.5 51.5t-30.5 47.5t-45 34.5t-59 13.5zM303 181q0 14 6.5 21t23.5 9h103q17 -2 23.5 -9t6.5 -21q0 -30 -30 -34h-98q-19 0 -27 10t-8 24z" />
    <glyph glyph-name="FL0039h" unicode="9" 
d="M30 308q0 -21 12.5 -40.5t32 -34t42.5 -23t43 -8.5h316v-23h2l-2 -2q0 -8 -5.5 -19t-15.5 -11h-422v-147h586q28 0 52.5 12.5t43.5 33t30 46t11 51.5v208h-280v-1h-167v1h-279v-43zM756 414v24q0 22 -12 44.5t-30.5 39.5t-42 28t-45.5 11h-466q-23 0 -46 -10.5t-42 -27.5
t-30.5 -39t-11.5 -46v-24h299h2h425z" />
    <glyph glyph-name="FL003Ah" unicode=":" horiz-adv-x="295" 
d="M30 92q0 -20 9.5 -36.5t25.5 -29t37.5 -19.5t45.5 -7t45.5 7t37 19.5t25 29t9.5 36.5q0 19 -9.5 36t-25 29.5t-37 19.5t-45.5 7t-45.5 -7t-37.5 -19.5t-25.5 -29.5t-9.5 -36zM29 323q0 -20 9.5 -36.5t25.5 -29t37.5 -19.5t45.5 -7t45.5 7t37 19.5t25 29t9.5 36.5
q0 14 -6 28h-224q-5 -15 -5 -28zM128 414h38q-5 1 -10 1h-9h-10q-4 0 -9 -1z" />
    <glyph glyph-name="FL003Bh" unicode=";" horiz-adv-x="295" 
d="M30 -11q0 -20 9.5 -36.5t25.5 -29t37.5 -19.5t45.5 -7t45.5 7t37 19.5t25 29t9.5 36.5v103q0 19 -9.5 36t-25 29.5t-37 19.5t-45.5 7t-45.5 -7t-37.5 -19.5t-25.5 -29.5t-9.5 -36v-103zM29 323q0 -20 9.5 -36.5t25.5 -29t37.5 -19.5t45.5 -7t45.5 7t37 19.5t25 29
t9.5 36.5q0 14 -6 28h-224q-5 -15 -5 -28zM128 414h38q-5 1 -10 1h-9h-10q-4 0 -9 -1z" />
    <glyph glyph-name="FL003Ch" unicode="&#x3c;" horiz-adv-x="595" 
d="M250 0h328l-233 281l58 70h-328l-58 -70zM127 414h328l122 147h-328z" />
    <glyph glyph-name="FL003Dh" unicode="=" horiz-adv-x="436" 
d="M30 251v-143h376v143h-376zM406 310v41h-376v-41h376zM30 453v-39h376v39h-376z" />
    <glyph glyph-name="FL003Eh" unicode="&#x3e;" horiz-adv-x="595" 
d="M344 0l233 281l-58 70h-328l58 -70l-233 -281h328zM17 561l122 -147h328l-122 147h-328z" />
    <glyph glyph-name="FL003Fh" unicode="?" horiz-adv-x="768" 
d="M738 424q0 26 -11 50.5t-30 44t-43.5 31t-52.5 11.5h-570v-147h707v10zM138 255v-41h470q19 0 42 11t42.5 28t32.5 39t13 45v14h-494q-19 -3 -38 -12t-34 -21.5t-24.5 -28.5t-9.5 -34zM138 92q0 -20 9.5 -36.5t25.5 -29t37.5 -19.5t45.5 -7t45.5 7t37 19.5t25 29
t9.5 36.5q0 19 -9.5 36t-25 29.5t-37 19.5t-45.5 7t-45.5 -7t-37.5 -19.5t-25.5 -29.5t-9.5 -36z" />
    <glyph glyph-name="FL0040h" unicode="@" horiz-adv-x="1037" 
d="M298 116v235h-281v-282q0 -24 12 -46t30.5 -39t41.5 -27.5t46 -10.5h552v147h-381q-8 0 -14 6.5t-6 16.5zM739 414h281v58q0 26 -11 51.5t-30 46t-44 33t-53 12.5h-727q-28 0 -53 -12.5t-44 -33t-30 -46t-11 -51.5v-58h281v24q0 8 5.5 19t15.5 11h399q10 0 15.5 -11
t5.5 -19v-24zM699 350v1h-363v-1v-148q0 -12 6 -23t15.5 -19.5t21 -13.5t22.5 -5h489q22 0 45.5 10.5t42 27.5t30.5 39t12 46v87h-281v-41q0 -10 -6 -16.5t-14 -6.5h-20v63zM497 305q0 6 5 8h31q3 0 4.5 -3t1.5 -5v-53q-2 -6 -6 -6h-31q-5 0 -5 6v53zM405 421q-14 0 -28 -7
h281q-14 7 -27 7h-226z" />
    <glyph glyph-name="FL0041h" unicode="A" 
d="M756 0v351h-280v-50h-167v50h-279v-351h279v158h167v-158h280zM756 414v23q0 22 -11.5 44.5t-30.5 40t-42 28.5t-46 11h-466q-23 0 -46 -10.5t-41.5 -28t-30.5 -39.5t-12 -46v-23h299h2h425z" />
    <glyph glyph-name="FL0042h" unicode="B" 
d="M309 350v1h-279v-351h575q42 0 71 16t47 41t25.5 55t7.5 58q0 32 -8.5 63t-32.5 52q14 11 22.5 28.5t13.5 37.5h-290q-5 -1 -16 -1h-136zM451 414h302q-3 25 -14.5 51.5t-30.5 47.5t-45 34.5t-59 13.5h-574v-147h416h5zM446 211q21 0 28.5 -7t7.5 -23q0 -14 -8 -24
t-27 -10h-138v64h137z" />
    <glyph glyph-name="FL0043h" unicode="C" horiz-adv-x="703" 
d="M310 170v181h-280v-228q0 -24 12 -46t30.5 -39t41.5 -27.5t46 -10.5h507v147h-336q-8 0 -14 6.5t-7 16.5zM167 561q-28 0 -53 -12.5t-43.5 -33t-29.5 -46t-11 -51.5v-4h299h2h342v147h-506z" />
    <glyph glyph-name="FL0044h" unicode="D" horiz-adv-x="779" 
d="M30 0h622q18 0 35 10.5t31 26.5t22.5 35.5t8.5 37.5v241h-283q3 -20 3 -38v-68q0 -15 -1 -32t-6.5 -31t-16.5 -23t-32 -9h-103v201h-280v-351zM30 414h719v17q0 20 -9.5 43t-25 42.5t-35.5 32t-40 12.5h-609v-147z" />
    <glyph glyph-name="FL0045h" unicode="E" horiz-adv-x="703" 
d="M673 351h-643v-228q0 -24 12 -46t30.5 -39t41.5 -27.5t46 -10.5h513v147h-342q-2 0 -10 8.5t-11 14.5q0 1 -0.5 3t-0.5 4t0.5 4t0.5 3q3 6 11 15t10 9h342v143zM167 561q-28 0 -53 -12.5t-43.5 -33t-29.5 -46t-11 -51.5v-4h643v147h-506z" />
    <glyph glyph-name="FL0046h" unicode="F" horiz-adv-x="703" 
d="M673 351h-643v-351h280v184q3 6 11 15t10 9h342v143zM167 561q-28 0 -53 -12.5t-43.5 -33t-29.5 -46t-11 -51.5v-4h643v147h-506z" />
    <glyph glyph-name="FL00B9h" unicode="G" 
d="M310 170v181h-280v-228q0 -23 12 -45t30.5 -39t41.5 -28t46 -11h466q23 0 46 10.5t42 27.5t30.5 39t11.5 46v228h-279v-182q-3 -6 -8.5 -14t-13.5 -8h-124q-11 0 -14.5 8.5t-6.5 14.5zM167 561q-28 0 -53 -12.5t-43.5 -33t-29.5 -46t-11 -51.5v-4h299h2h342v147h-506z
" />
    <glyph glyph-name="FL0048h" unicode="H" horiz-adv-x="756" 
d="M726 0v351h-696v-351h280v208h135v-208h281zM445 561v-147h281v147h-281zM30 414h280v147h-280v-147z" />
    <glyph glyph-name="FL0049h" unicode="I" horiz-adv-x="724" 
d="M30 147v-147h663v147h-192v204h-280v-204h-191zM694 414v147h-663v-147h663z" />
    <glyph glyph-name="FL004Ah" unicode="J" 
d="M310 170v103h-280v-150q0 -23 12 -45t30.5 -39t41.5 -28t46 -11h466q23 0 46 10.5t42 27.5t30.5 39t11.5 46v228h-279v-181q-3 -6 -8.5 -14.5t-13.5 -8.5h-124q-11 0 -14.5 8.5t-6.5 14.5zM756 561h-279v-147h279v147z" />
    <glyph glyph-name="FL004Bh" unicode="K" horiz-adv-x="751" 
d="M348 97q12 -14 28 -31t34.5 -31.5t38.5 -24.5t40 -10h232v148h-44q-25 0 -53.5 13t-53 34.5t-40.5 49t-16 56.5q0 23 21 50h-505v-351h280v164zM333 414h388v147h-212q-29 -3 -53 -15t-41.5 -26t-28.5 -27t-14 -18v-2q-14 -13 -23 -28t-16 -31zM30 414h280v147h-280v-147
z" />
    <glyph glyph-name="FL004Ch" unicode="L" horiz-adv-x="703" 
d="M30 142q0 -30 8 -55.5t23 -45t36.5 -30.5t47.5 -11h528v147h-325q-21 2 -29.5 9.5t-8.5 27.5v167h-280v-209zM30 414h280v147h-280v-147z" />
    <glyph glyph-name="FL004Dh" unicode="M" horiz-adv-x="1109" 
d="M1078 414v24q0 22 -12 44.5t-30.5 39.5t-42 28t-45.5 11h-789q-23 0 -46 -10.5t-42 -27.5t-30.5 -39t-11.5 -46v-24h299h2h62h2h318h2h364zM693 0v351h-281v-351h281zM798 0h280v351h-280v-351zM308 0v351h-279v-351h279z" />
    <glyph glyph-name="FL004Eh" unicode="N" 
d="M756 438q0 22 -12 44.5t-30.5 39.5t-42 28t-45.5 11h-596v-147h425h2h299v24zM756 0v351h-280v-351h280zM309 0v351h-279v-351h279z" />
    <glyph glyph-name="FL004Fh" unicode="O" 
d="M309 170v181h-279v-228q0 -24 12 -46t30.5 -39t41.5 -27.5t46 -10.5h466q23 0 46 10.5t42 27.5t30.5 39t11.5 46v228h-279v-181q-3 -6 -9.5 -14.5t-12.5 -8.5h-124q-13 0 -17 9t-5 14zM619 561h-452q-28 0 -53 -12.5t-43.5 -33t-29.5 -46t-11 -51.5v-4h726v4
q0 26 -11 51.5t-29.5 46t-43.5 33t-53 12.5z" />
    <glyph glyph-name="FL0050h" unicode="P" 
d="M30 0h279v157h297q39 0 67 16.5t46 44t26.5 62.5t10.5 71h-275q-2 -16 -12.5 -31.5t-27.5 -15.5h-132v47h-279v-351zM449 414h302q-5 25 -16 51.5t-28.5 47.5t-42.5 34.5t-59 13.5h-575v-147h417h2z" />
    <glyph glyph-name="FL0051h" unicode="Q" horiz-adv-x="788" 
d="M157 0h-194v-149h390q24 0 47 10t44 25.5t38 35t28 38.5l22 40h96q22 0 45.5 10.5t42 27.5t30.5 39t12 46v228h-280v-181q-3 -6 -6.5 -14.5t-14.5 -8.5h-127q-2 0 -9 8.5t-10 14.5v181h-279v-228q0 -23 11.5 -44.5t29.5 -38.5t40 -28t44 -12zM333 414h425v4
q0 26 -11 51.5t-30 46t-43.5 33t-52.5 12.5h-452q-28 0 -53 -12.5t-43.5 -33t-29.5 -46t-11 -51.5v-4h299h2z" />
    <glyph glyph-name="FL0052h" unicode="R" horiz-adv-x="809" 
d="M30 0h279v150q0 1 5 3t11 4h2q17 0 32.5 -10t26.5 -24l92 -123h346l-159 209q-1 1 -1 8q0 8 5 13q19 0 33.5 10.5t25 28t16.5 39t9 43.5h-272q-3 -16 -13 -31.5t-27 -15.5h-132v47h-279v-351zM30 414h417h3h305q-2 26 -9.5 52.5t-23.5 47.5t-42 34t-65 13h-585v-147z" />
    <glyph glyph-name="FL005Ah" unicode="S" horiz-adv-x="768" 
d="M738 141v114q0 18 -9.5 34t-25 28.5t-34.5 21.5t-37 12h-602v-14q0 -23 13 -45.5t32.5 -40.5t42 -29.5t42.5 -11.5h297v-33q0 -8 -5.5 -19t-15.5 -11h-406v-147h570q28 0 53 13t44 33.5t30 45.5t11 49zM331 414h406v147h-570q-28 0 -53 -11.5t-43.5 -31t-29.5 -44
t-11 -50.5v-10h299h2z" />
    <glyph glyph-name="FL0055h" unicode="T" horiz-adv-x="749" 
d="M30 561v-147h689v147h-689zM513 0v351h-280v-351h280z" />
    <glyph glyph-name="FL0056h" unicode="U" 
d="M310 170v181h-280v-228q0 -23 12 -45t30.5 -39t41.5 -28t46 -11h596v351h-279v-204h-146q-11 0 -14.5 8.5t-6.5 14.5zM310 561h-280v-147h280v147zM756 561h-279v-147h279v147z" />
    <glyph glyph-name="FL0057h" unicode="V" horiz-adv-x="924" 
d="M518 54l228 297h-322l-89 -121q-4 -5 -6.5 -8.5t-7.5 -3.5q-3 2 -7.5 4t-4.5 3v126h-279v-352h412q10 0 22 6.5t22.5 15.5t19 18.5t12.5 14.5zM907 561h-328l-109 -147h324zM309 560h-279v-146h279v146z" />
    <glyph glyph-name="FL0059h" unicode="W" horiz-adv-x="1109" 
d="M382 0q17 0 44.5 24.5t54 55.5t47 58.5t23.5 33.5h3q0 -2 1 -3q6 -9 26.5 -36.5t46 -57t50.5 -52.5t40 -23h360v351h-280v-69l-58 69h-374l-57 -69v69h-280v-351h353zM1078 561h-280v-147h280v147zM309 561h-280v-147h280v147zM563 561h-22l-122 -147h268z" />
    <glyph glyph-name="FL0058h" unicode="X" horiz-adv-x="751" 
d="M30 0h126q29 0 56.5 5t51.5 22q19 13 38.5 31.5t38.5 47.5q2 -2 3.5 -4t3.5 -5q12 -14 28 -31t34.5 -31.5t38.5 -24.5t40 -10h232v148h-44q-25 0 -53.5 16t-53 40.5t-40.5 53t-16 52.5q0 8 4.5 19t12.5 22h-340q16 -19 29.5 -38t27.5 -39q-5 -20 -22 -41.5t-38 -40.5
t-40.5 -31t-28.5 -12h-89v-149zM721 561h-212q-27 -7 -48 -23.5t-35.5 -33t-22 -29t-8.5 -12.5q-9 10 -20.5 26.5t-27 32.5t-36.5 27.5t-48 11.5h-233v-147h691v147z" />
    <glyph glyph-name="FL007Ch" unicode="Y" horiz-adv-x="773" 
d="M743 144v207h-296q-2 -1 -4 -1h-112q-5 0 -6 1h-295v-21q0 -23 12 -45t30.5 -39t41.5 -28t46 -11h302v-23q0 -20 -8 -27.5t-28 -9.5h-391v-147h594q26 0 47 11t36 30.5t23 46t8 56.5zM462 561v-147h281v147h-281zM30 414h280v147h-280v-147z" />
    <glyph glyph-name="FL007Bh" unicode="Z" horiz-adv-x="932" 
d="M902 148h-174q-9 0 -19.5 8.5t-20.5 20t-17.5 23.5t-10.5 19l-74 132h-338q0 -2 1 -2l132 -239q10 -20 27 -39.5t38 -35.5t44.5 -25.5t47.5 -9.5h364v148zM183 414h368l-21 38q-8 15 -23.5 34t-35.5 35.5t-42 28t-43 11.5h-356v-147h151h2z" />
    <glyph glyph-name="FL005Bh" unicode="[" horiz-adv-x="430" 
d="M393 -54v147h-82v258h-281v-405h363zM400 615h-370v-201h281v54h89v147z" />
    <glyph glyph-name="FL005Ch" unicode="\" horiz-adv-x="827" 
d="M481 0h328l-291 351h-328zM16 561l122 -147h328l-122 147h-328z" />
    <glyph glyph-name="FL005Dh" unicode="]" horiz-adv-x="430" 
d="M400 -54v405h-281v-258h-82v-147h363zM30 615v-147h89v-54h281v201h-370z" />
    <glyph glyph-name="FL005Eh" unicode="^" horiz-adv-x="925" 
d="M637 351h-607v-351h279v335q0 1 5 3t8 4q5 0 7 -2t5 -7l245 -334h329zM518 506q-5 5 -13.5 14.5t-18.5 18.5t-21 15.5t-22 6.5h-413v-147h559z" />
    <glyph glyph-name="FL005Fh" unicode="_" horiz-adv-x="589" 
d="M559 147h-529v-147h529v147z" />
    <glyph glyph-name="FL0061h" unicode="`" horiz-adv-x="1461" 
d="M554 0h328l246 334q3 5 5 7t7 2q3 -2 7.5 -4t4.5 -3v-335h279v350h-608zM719 414v147h-689v-147h689zM513 0v351h-280v-351h280zM872 414h559v148h-412q-10 0 -22 -6.5t-22.5 -15.5t-19 -18t-12.5 -15z" />
    <glyph glyph-name="a" unicode="a" horiz-adv-x="924" 
d="M17 -1h328l246 334q3 5 5 7t7 2q3 -2 7.5 -4t4.5 -3v-335h279v351h-607zM335 414h559v147h-412q-10 0 -22 -6.5t-22.5 -15.5t-19 -18t-12.5 -15z" />
    <glyph glyph-name="FL0062h" unicode="b" 
d="M309 350v1h-279v-351h575q42 0 71 16t47 41t25.5 55t7.5 58q0 32 -8.5 63t-32.5 52q14 11 22.5 28.5t13.5 37.5h-290q-5 -1 -16 -1h-136zM451 414h302q-3 25 -14.5 51.5t-30.5 47.5t-45 34.5t-59 13.5h-574v-147h416h5zM446 211q21 0 28.5 -7t7.5 -23q0 -14 -8 -24
t-27 -10h-138v64h137z" />
    <glyph glyph-name="FL0063h" unicode="c" horiz-adv-x="703" 
d="M160 0h507v147h-336q-8 0 -14 6.5t-7 16.5v181h-280v-228q0 -24 12 -46t30.5 -39t41.5 -27.5t46 -10.5zM673 561h-506q-28 0 -53 -12.5t-43.5 -33t-29.5 -46t-11 -51.5v-4h299h2h342v147z" />
    <glyph glyph-name="d" unicode="d" horiz-adv-x="779" 
d="M30 0h622q18 0 35 10.5t31 26.5t22.5 35.5t8.5 37.5v241h-283q3 -20 3 -38v-68q0 -15 -1 -32t-6.5 -31t-16.5 -23t-32 -9h-103v201h-280v-351zM30 414h719v17q0 20 -9.5 43t-25 42.5t-35.5 32t-40 12.5h-609v-147z" />
    <glyph glyph-name="E" unicode="e" horiz-adv-x="703" 
d="M160 0h513v147h-342q-2 0 -10 8.5t-11 14.5q0 1 -0.5 3t-0.5 4t0.5 4t0.5 3q3 6 11 15t10 9h342v143h-643v-228q0 -24 12 -46t30.5 -39t41.5 -27.5t46 -10.5zM673 561h-506q-28 0 -53 -12.5t-43.5 -33t-29.5 -46t-11 -51.5v-4h643v147z" />
    <glyph glyph-name="FL0066h" unicode="f" horiz-adv-x="703" 
d="M310 0v184q3 6 11 15t10 9h342v143h-335h-3h-305v-351h280zM673 561h-506q-28 0 -53 -12.5t-43.5 -33t-29.5 -46t-11 -51.5v-4h299h2h342v147z" />
    <glyph glyph-name="FL0067h" unicode="g" 
d="M756 253q0 16 -7.5 31t-20 28t-28.5 23t-33 16h-301v-140h111v-41q-3 -6 -8.5 -14.5t-13.5 -8.5h-124q-11 0 -14.5 8.5t-6.5 14.5v181h-280v-228q0 -23 12 -45t30.5 -39t41.5 -28t46 -11h466q23 0 46 10.5t42 27.5t30.5 39t11.5 46v130zM30 414h299h2h422v147h-586
q-28 0 -53 -12.5t-43.5 -33t-29.5 -46t-11 -51.5v-4z" />
    <glyph glyph-name="FL0068h" unicode="h" horiz-adv-x="756" 
d="M726 0v351h-696v-351h280v208h135v-208h281zM445 561v-147h281v147h-281zM30 414h280v147h-280v-147z" />
    <glyph glyph-name="FL0069h" unicode="i" horiz-adv-x="340" 
d="M310 0v351h-280v-351h280zM30 561v-147h280v147h-280z" />
    <glyph glyph-name="FL006Ah" unicode="j" horiz-adv-x="703" 
d="M673 144v207h-280v-167q0 -20 -8.5 -27.5t-29.5 -9.5h-325v-147h529q27 0 48 11t36 30.5t22.5 46t7.5 56.5zM673 561h-280v-147h280v147z" />
    <glyph glyph-name="FL006Bh" unicode="k" horiz-adv-x="751" 
d="M348 97q12 -14 28 -31t34.5 -31.5t38.5 -24.5t40 -10h232v148h-44q-25 0 -53.5 13t-53 34.5t-40.5 49t-16 56.5q0 23 21 50h-505v-351h280v164zM333 414h388v147h-212q-29 -3 -53 -15t-41.5 -26t-28.5 -27t-14 -18v-2q-14 -13 -23 -28t-16 -31zM30 414h280v147h-280v-147
z" />
    <glyph glyph-name="l" unicode="l" horiz-adv-x="703" 
d="M145 0h528v147h-325q-21 2 -29.5 9.5t-8.5 27.5v167h-280v-209q0 -30 8 -55.5t23 -45t36.5 -30.5t47.5 -11zM30 561v-147h280v147h-280z" />
    <glyph glyph-name="FL006Dh" unicode="m" horiz-adv-x="1109" 
d="M567 0l232 279v-279h280v351h-1049v-351h280v279l235 -279h22zM30 414h506q-13 18 -33 43t-41 48.5t-40.5 39.5t-31.5 16h-360v-147zM573 414h506v147h-353q-14 0 -34.5 -16t-42.5 -39.5t-42.5 -48.5t-33.5 -43z" />
    <glyph glyph-name="FL0071h" unicode="n" horiz-adv-x="919" 
d="M889 0v351h-278v-76l-45 76h-536v-351h280v279l115 -175q12 -17 27 -35.5t33 -33.5t38.5 -25t43.5 -10h322zM30 414h498l-27 46q-8 13 -22.5 30.5t-32.5 33t-37 26.5t-35 11h-344v-147zM611 561v-147h278v147h-278z" />
    <glyph glyph-name="FL006Fh" unicode="o" 
d="M756 123v228h-279v-181q-3 -6 -9.5 -14.5t-12.5 -8.5h-124q-13 0 -17 9t-5 14v181h-279v-228q0 -24 12 -46t30.5 -39t41.5 -27.5t46 -10.5h466q23 0 46 10.5t42 27.5t30.5 39t11.5 46zM167 561q-28 0 -53 -12.5t-43.5 -33t-29.5 -46t-11 -51.5v-4h726v4q0 26 -11 51.5
t-29.5 46t-43.5 33t-53 12.5h-452z" />
    <glyph glyph-name="FL0070h" unicode="p" 
d="M309 304v47h-279v-351h279v157h297q39 0 67 16.5t46 44t26.5 62.5t10.5 71h-275q-2 -16 -12.5 -31.5t-27.5 -15.5h-132zM30 561v-147h417h2h302q-5 25 -16 51.5t-28.5 47.5t-42.5 34.5t-59 13.5h-575z" />
    <glyph glyph-name="FL0072h" unicode="q" 
d="M310 170v181h-280v-228q0 -24 12 -46t30.5 -39t41.5 -27.5t46 -10.5h96l22 -40q11 -19 28 -38.5t38 -35t44 -25.5t47 -10h390v149h-194q22 1 44 12t40 28t29.5 38.5t11.5 44.5v228h-279v-181q-3 -6 -10 -14.5t-9 -8.5h-127q-11 0 -14.5 8.5t-6.5 14.5zM756 418
q0 26 -11 51.5t-29.5 46t-43.5 33t-53 12.5h-452q-28 0 -53 -12.5t-43.5 -33t-29.5 -46t-11 -51.5v-4h425h2h299v4z" />
    <glyph glyph-name="r" unicode="r" horiz-adv-x="809" 
d="M30 0h279v150q0 1 5 3t11 4h2q17 0 32.5 -10t26.5 -24l92 -123h346l-159 209q-1 1 -1 8q0 8 5 13q19 0 33.5 10.5t25 28t16.5 39t9 43.5h-272q-3 -16 -13 -31.5t-27 -15.5h-132v47h-279v-351zM30 414h417h3h305q-2 26 -9.5 52.5t-23.5 47.5t-42 34t-65 13h-585v-147z" />
    <glyph glyph-name="s" unicode="s" horiz-adv-x="900" 
d="M30 0h337q25 0 48.5 10t44 26t37 35.5t27.5 38.5l132 239v2h-337l-75 -136q-5 -8 -13 -19.5t-17 -22t-18.5 -18t-18.5 -7.5h-147v-148zM354 414h516v147h-351q-21 0 -44 -13.5t-43.5 -31.5t-36 -36.5t-20.5 -27.5z" />
    <glyph glyph-name="FL0074h" unicode="t" horiz-adv-x="749" 
d="M719 561h-689v-147h689v147zM513 0v351h-280v-351h280z" />
    <glyph glyph-name="FL0075h" unicode="u" 
d="M310 170v181h-280v-228q0 -23 12 -45t30.5 -39t41.5 -28t46 -11h466q23 0 46 10.5t42 27.5t30.5 39t11.5 46v228h-279v-182q-3 -6 -8.5 -14t-13.5 -8h-124q-11 0 -14.5 8.5t-6.5 14.5zM310 561h-280v-147h280v147zM756 561h-279v-147h279v147z" />
    <glyph glyph-name="FL0076h" unicode="v" horiz-adv-x="924" 
d="M406 54q4 -5 12.5 -14.5t19 -18.5t22 -15.5t22.5 -6.5h412v352h-279v-126q0 -1 -4.5 -3t-7.5 -4q-5 0 -7.5 3.5t-6.5 8.5l-89 121h-322zM17 561l113 -147h323l-108 147h-328zM894 560h-279v-146h279v146z" />
    <glyph glyph-name="FL0077h" unicode="w" horiz-adv-x="1109" 
d="M310 170v181h-280v-228q0 -23 12 -45t30.5 -39t41.5 -28t46 -11h789q23 0 46 10.5t42 27.5t30.5 39t11.5 46v228h-279v-181q-3 -6 -8.5 -14.5t-13.5 -8.5h-62q-11 0 -14.5 8.5t-5.5 14.5v181h-281v-183l-1 -2q-3 -5 -8 -12t-12 -7h-63q-11 0 -14.5 8.5t-6.5 14.5z
M415 414h281v147h-281v-147zM310 561h-280v-147h280v147zM800 414h279v147h-279v-147z" />
    <glyph glyph-name="x" unicode="x" horiz-adv-x="751" 
d="M156 0q29 0 56.5 5t51.5 22q19 13 38.5 31.5t38.5 47.5q2 -2 3.5 -4t3.5 -5q12 -14 28 -31t34.5 -31.5t38.5 -24.5t40 -10h232v148h-44q-25 0 -53.5 16t-53 40.5t-40.5 53t-16 52.5q0 8 4.5 19t12.5 22h-340q16 -19 29.5 -38t27.5 -39q-5 -20 -22 -41.5t-38 -40.5
t-40.5 -31t-28.5 -12h-89v-149h126zM30 414h691v147h-212q-27 -7 -48 -23.5t-35.5 -33t-22 -29t-8.5 -12.5q-9 10 -20.5 26.5t-27 32.5t-36.5 27.5t-48 11.5h-233v-147z" />
    <glyph glyph-name="FL0079h" unicode="y" horiz-adv-x="751" 
d="M234 284v-284h280v302q0 12 6.5 24.5t17.5 24.5h-348q14 -14 25.5 -29.5t18.5 -37.5zM721 561h-219q-27 -8 -47.5 -24.5t-34 -33.5t-21 -30t-8.5 -13q-10 10 -22 27t-28 33.5t-37 28.5t-48 12h-226v-147h691v147z" />
    <glyph glyph-name="FL007Dh" unicode="z" horiz-adv-x="899" 
d="M869 0v148h-146q-10 0 -20.5 8.5t-20 20t-17 23.5t-11.5 19l-73 132h-338q0 -2 1 -2l132 -239q10 -19 27 -38.5t38 -35.5t45 -26t48 -10h335zM381 561h-351v-147h145h2h369l-21 38q-6 9 -21.5 27.5t-35.5 36.5t-43 31.5t-44 13.5z" />
    <glyph glyph-name="FL0060h" unicode="{" horiz-adv-x="1487" 
d="M30 0h337q25 0 48.5 10t44 26t37 35.5t27.5 38.5l132 239v2h-337l-75 -136q-5 -8 -13 -19.5t-17 -22t-18.5 -18t-18.5 -7.5h-147v-148zM617 0h337q25 0 48.5 10t44 26t37 35.5t27.5 38.5l132 239v2h-337l-75 -136q-5 -8 -13 -19.5t-17 -22t-18.5 -18t-18.5 -7.5h-147
v-148zM354 414h516v147h-351q-21 0 -44 -13.5t-43.5 -31.5t-36 -36.5t-20.5 -27.5zM941 414h516v147h-351q-21 0 -44 -13.5t-43.5 -31.5t-36 -36.5t-20.5 -27.5z" />
    <glyph glyph-name="FL007Eh" unicode="|" horiz-adv-x="340" 
d="M310 -169v520h-280v-520h280zM310 730h-280v-316h280v316z" />
    <glyph glyph-name="FL0083h" unicode="}" horiz-adv-x="1537" 
d="M630 0h328l246 334q3 5 5 7t7 2q3 -2 7.5 -4t4.5 -3v-335h279v350h-608zM30 0h337q25 0 48.5 10t44 26t37 35.5t27.5 38.5l132 239v2h-337l-75 -136q-5 -8 -13 -19.5t-17 -22t-18.5 -18t-18.5 -7.5h-147v-148zM948 414h559v148h-412q-10 0 -22 -6.5t-22.5 -15.5t-19 -18
t-12.5 -15zM354 414h368h2h146v147h-351q-21 0 -44 -13.5t-43.5 -31.5t-36 -36.5t-20.5 -27.5z" />
    <glyph glyph-name="FL0082h" unicode="~" horiz-adv-x="1466" 
d="M596 0h337q25 0 48.5 10t44 26t37 35.5t27.5 38.5l132 239v2h-337l-75 -136q-5 -8 -13 -19.5t-17 -22t-18.5 -18t-18.5 -7.5h-147v-148zM719 414v147h-689v-147h689zM513 0v351h-280v-351h280zM920 414h368h2h146v147h-351q-21 0 -44 -13.5t-43.5 -31.5t-36 -36.5
t-20.5 -27.5z" />
    <glyph glyph-name="FL007Fh" horiz-adv-x="236" 
 />
    <glyph glyph-name="FL20ACh" horiz-adv-x="807" 
d="M609 295v56h-579v-56h118v-32h-118v-64h118v-76q0 -24 12 -46t30.5 -39t41.5 -27.5t46 -10.5h493v147h-322q-8 0 -14 6.5t-7 16.5v29h181v64h-181v32h181zM148 414h299h2h328v147h-492q-28 0 -53 -12.5t-43.5 -33t-29.5 -46t-11 -51.5v-4z" />
    <glyph glyph-name="FL20ACh" unicode="&#x20ac;" horiz-adv-x="807" 
d="M609 295v56h-579v-56h118v-32h-118v-64h118v-76q0 -24 12 -46t30.5 -39t41.5 -27.5t46 -10.5h493v147h-322q-8 0 -14 6.5t-7 16.5v29h181v64h-181v32h181zM148 414h299h2h328v147h-492q-28 0 -53 -12.5t-43.5 -33t-29.5 -46t-11 -51.5v-4z" />
    <glyph glyph-name="FL017Fh" horiz-adv-x="1487" 
d="M1457 0v148h-147q-9 0 -18.5 7.5t-18.5 18t-17 22t-13 19.5l-75 136h-338q1 -1 1 -2v0l132 -239q10 -19 27 -38.5t38 -35.5t44.5 -26t47.5 -10h337zM870 0v148h-147q-9 0 -18.5 7.5t-18.5 18t-17 22t-13 19.5l-75 136h-338q1 -1 1 -2v0l132 -239q10 -19 27 -38.5
t38 -35.5t44.5 -26t47.5 -10h337zM968 561h-351v-147h516l-21 38q-5 9 -20.5 27.5t-36 36.5t-43.5 31.5t-44 13.5zM381 561h-351v-147h146h2h368l-21 38q-5 9 -20.5 27.5t-36 36.5t-43.5 31.5t-44 13.5z" />
    <glyph glyph-name="FL017Fh" unicode="&#x17d;" horiz-adv-x="1487" 
d="M1457 0v148h-147q-9 0 -18.5 7.5t-18.5 18t-17 22t-13 19.5l-75 136h-338q1 -1 1 -2v0l132 -239q10 -19 27 -38.5t38 -35.5t44.5 -26t47.5 -10h337zM870 0v148h-147q-9 0 -18.5 7.5t-18.5 18t-17 22t-13 19.5l-75 136h-338q1 -1 1 -2v0l132 -239q10 -19 27 -38.5
t38 -35.5t44.5 -26t47.5 -10h337zM968 561h-351v-147h516l-21 38q-5 9 -20.5 27.5t-36 36.5t-43.5 31.5t-44 13.5zM381 561h-351v-147h146h2h368l-21 38q-5 9 -20.5 27.5t-36 36.5t-43.5 31.5t-44 13.5z" />
    <glyph glyph-name="FL017Eh" horiz-adv-x="900" 
d="M870 0v148h-147q-9 0 -18.5 7.5t-18.5 18t-17 22t-13 19.5l-75 136h-338q1 -1 1 -2v0l132 -239q10 -19 27 -38.5t38 -35.5t44.5 -26t47.5 -10h337zM381 561h-351v-147h146h2h368l-21 38q-5 10 -20 28t-35.5 36t-44 31.5t-44.5 13.5zM402 792h-169l127 -166h177l126 166
h-169l-46 -64z" />
    <glyph glyph-name="FL017Eh" unicode="&#x17e;" horiz-adv-x="900" 
d="M870 0v148h-147q-9 0 -18.5 7.5t-18.5 18t-17 22t-13 19.5l-75 136h-338q1 -1 1 -2v0l132 -239q10 -19 27 -38.5t38 -35.5t44.5 -26t47.5 -10h337zM381 561h-351v-147h146h2h368l-21 38q-5 10 -20 28t-35.5 36t-44 31.5t-44.5 13.5zM402 792h-169l127 -166h177l126 166
h-169l-46 -64z" />
    <glyph glyph-name="FL00A1h" unicode="&#xa1;" horiz-adv-x="340" 
d="M310 0v246l-22 88h-235l-23 -88v-246h280zM288 469q0 19 -9.5 36t-25.5 29.5t-37.5 19.5t-45.5 7t-45.5 -7t-37 -19.5t-25 -29.5t-9.5 -36q0 -32 23 -55h189q11 11 17 25t6 30z" />
    <glyph glyph-name="FL00A2h" unicode="&#xa2;" horiz-adv-x="768" 
d="M738 176h-406q-5 0 -7.5 3t-4 7t-3.5 7.5t-6 4.5v153h-281v-181q0 -24 11 -49t30 -45.5t44 -33.5t53 -13h158v-89h224v89h188v147zM737 535h-189v96h-224v-96h-157q-26 0 -49.5 -10t-41.5 -27t-30 -38.5t-15 -45.5h706v121z" />
    <glyph glyph-name="FL00A3h" unicode="&#xa3;" horiz-adv-x="717" 
d="M30 351v-143h103q-3 -20 -3 -38v-12q0 -10 1 -11h-101v-147h657v147h-248q-19 0 -27 10t-8 24q0 16 7.5 23t28.5 7h139v139h-138q-12 0 -16 1h-395zM132 414h369v147h-219q-33 0 -59 -13.5t-45 -34.5t-30.5 -47.5t-15.5 -51.5z" />
    <glyph glyph-name="FL00BDh" unicode="&#xa4;" horiz-adv-x="827" 
d="M15 0h328l69 83l69 -83h328l-233 281l58 70h-138q10 -13 10 -26v-82q0 -14 -13.5 -26t-29.5 -12h-94q-15 0 -29 12t-14 26v82q0 13 10 26h-146l58 -70zM808 561h-328l-68 -82l-68 82h-328l122 -147h548z" />
    <glyph glyph-name="FL00A5h" unicode="&#xa5;" horiz-adv-x="751" 
d="M83 289v-64h151v-67h-151v-64h151v-94h280v94h148v64h-148v67h148v64h-148v13q0 12 6.5 24.5t17.5 24.5h-348q13 -13 23.5 -27.5t18.5 -34.5h-149zM30 414h691v147h-219q-27 -8 -47.5 -24.5t-34 -33.5t-21 -30t-8.5 -13q-10 10 -22 27t-28 33.5t-37 28.5t-48 12h-226
v-147z" />
    <glyph glyph-name="FL00B8h" unicode="&#xa6;" horiz-adv-x="340" 
d="M310 -118v469h-280v-469h280zM310 685h-280v-271h280v271z" />
    <glyph glyph-name="FL00A7h" unicode="&#xa7;" horiz-adv-x="827" 
d="M15 0h328l291 351h-138q10 -13 10 -26v-82q0 -14 -13.5 -26t-29.5 -12h-94q-15 0 -29 12t-14 26v82q0 13 10 26h-30zM808 561h-328l-122 -147h328z" />
    <glyph glyph-name="FL00A8h" unicode="&#xa8;" horiz-adv-x="482" 
d="M457 482q0 34 -28 57.5t-70 23.5t-70 -23.5t-28 -57.5q0 -22 11 -39.5t31 -28.5h112q19 11 30.5 28.5t11.5 39.5zM25 482q0 -22 11 -39.5t31 -28.5h112q19 11 30.5 28.5t11.5 39.5q0 34 -28 57.5t-70 23.5t-70 -23.5t-28 -57.5z" />
    <glyph glyph-name="copyright" unicode="&#xa9;" horiz-adv-x="272" 
d="M136 629q-28 0 -54 -14q-28 -15 -42 -41q-7 -14 -11 -27.5t-4 -28.5q0 -29 15 -54q8 -14 18 -24t23 -18q5 -2 9 -4t9 -4h60q7 2 14.5 3.5t17.5 4.5q14 8 24 18t17 24q15 25 15 54q0 30 -15 56q-14 26 -42 41q-26 14 -54 14zM136 611q11 0 22.5 -2.5t22.5 -9.5
q13 -7 21.5 -15.5t13.5 -18.5q12 -23 12 -47q0 -23 -12 -45q-15 -24 -34 -34q-23 -12 -46 -12q-24 0 -46 12q-24 15 -34 34q-12 22 -12 45q0 24 12 47q13 23 35 34.5t45 11.5zM172 501q-7 -28 -37 -28q-37 0 -37 45q0 23 10.5 35t28.5 12q22 0 33 -23l17 4q-11 35 -50 35
q-27 0 -43 -16t-16 -47q0 -30 16 -46.5t42 -16.5q20 0 34.5 11t19.5 30z" />
    <glyph glyph-name="FL00AAh" unicode="&#xaa;" horiz-adv-x="423" 
d="M393 564q0 12 -6 23.5t-16 21t-22.5 15t-24.5 5.5h-226q-12 0 -24 -5.5t-22 -14.5t-16 -21t-6 -24v-150h147v11h68v-11h148v150zM182 547h60q3 0 3 -3v-40h-68v37q1 6 5 6zM245 349h148v2h-148v-2zM177 349v2h-147v-2h147z" />
    <glyph glyph-name="FL00ABh" unicode="&#xab;" horiz-adv-x="562" 
d="M478 279l67 67l-5 5h-193l-72 -72l169 -169l101 101zM220 279l67 67l-5 5h-193l-72 -72l169 -169l101 101zM153 414h66l-33 33zM411 414h66l-33 33z" />
    <glyph glyph-name="FL00ACh" unicode="&#xac;" horiz-adv-x="395" 
d="M365 351h-335v-143h192v-97h143v240z" />
    <glyph glyph-name="FL00ADh" unicode="&#xad;" horiz-adv-x="355" 
d="M30 351v-143h295v143h-295z" />
    <glyph glyph-name="registered" unicode="&#xae;" horiz-adv-x="272" 
d="M136 629q-28 0 -54 -14q-28 -15 -42 -41q-7 -14 -11 -27.5t-4 -28.5q0 -29 15 -54q8 -14 18 -24t23 -18q5 -2 9 -4t9 -4h60q7 2 14.5 3.5t17.5 4.5q14 8 24 18t17 24q15 25 15 54q0 30 -15 56q-14 26 -42 41q-26 14 -54 14zM136 611q11 0 22.5 -2.5t22.5 -9.5
q13 -7 21.5 -15.5t13.5 -18.5q12 -23 12 -47q0 -23 -12 -45q-15 -24 -34 -34q-23 -12 -46 -12q-24 0 -46 12q-24 15 -34 34q-12 22 -12 45q0 24 12 47q13 23 35 34.5t45 11.5zM88 458h19v50h11q11 0 15 -4q7 -4 21 -28l10 -18h24l-15 23q-8 13 -13.5 19.5t-14.5 10.5
q16 1 25 10.5t9 22.5q0 10 -6 18q-3 6 -14 11q-7 4 -31 4h-40v-119zM107 524v36h21q19 0 20 -1q11 -5 11 -17q0 -8 -6 -13t-23 -5h-23z" />
    <glyph glyph-name="FL00B3h" unicode="&#xaf;" horiz-adv-x="589" 
d="M559 560h-529v-146h529v146z" />
    <glyph glyph-name="FL00B1h" unicode="&#xb0;" horiz-adv-x="246" 
d="M25 480q0 -21 10.5 -38t27.5 -28h119q18 11 28.5 28t10.5 38q0 34 -28 57.5t-70 23.5t-70 -23.5t-28 -57.5zM88 480q0 9 10 15t24 6t24 -6t10 -15t-10 -15.5t-24 -6.5t-24 6.5t-10 15.5z" />
    <glyph glyph-name="FL00B2h" unicode="&#xb1;" horiz-adv-x="395" 
d="M366 143h-335v-143h335v143zM126 276v-97h143v97h96v75h-335v-75h96zM269 419v95h-143v-95h-96v-5h335v5h-96z" />
    <glyph glyph-name="FL00B6h" unicode="&#xb2;" horiz-adv-x="414" 
d="M30 414h354v17h-206v19h137q10 0 22 6t22.5 15t17.5 21t7 24v42q0 13 -6 26t-15.5 23t-22.5 16t-28 6h-281v-82h202q2 0 3 -3t1 -5v-10h-140q-11 0 -23 -4t-21.5 -10.5t-16 -16t-6.5 -21.5v-63zM30 349h354v2h-354v-2z" />
    <glyph glyph-name="FL00BCh" unicode="&#xb3;" horiz-adv-x="393" 
d="M206 528h-176v-78h177q12 0 12 -9q0 -10 -12 -10h-177v-17h331q1 5 1.5 11t0.5 11q0 14 -3.5 29t-14.5 26q9 9 13 23t4 28t-5 29.5t-15 28t-25 21t-34 8.5h-253v-82h177q11 0 11 -10q0 -9 -12 -9zM283 349h10t10 2h-273v-2h253z" />
    <glyph glyph-name="FL00B4h" unicode="&#xb4;" horiz-adv-x="827" 
d="M343 0l69 83l69 -83h328l-233 281l58 70h-444l58 -70l-233 -281h328zM16 561l122 -147h548l122 147h-328l-68 -82l-68 82h-328z" />
    <glyph glyph-name="FL00B5h" unicode="&#xb5;" horiz-adv-x="773" 
d="M143 0h594v147h-391q-20 2 -28 9.5t-8 27.5v23h302q22 0 45.5 11t42 28t30.5 39t12 45v21h-295q-2 -1 -6 -1h-112q-3 0 -4 1h-296v-207q0 -30 8 -56.5t23 -46t36 -30.5t47 -11zM310 561h-281v-147h281v147zM742 561h-280v-147h280v147z" />
    <glyph glyph-name="FL007Ah" unicode="&#xb6;" horiz-adv-x="963" 
d="M933 148h-198q-9 0 -19.5 8.5t-20 20t-17 23.5t-11.5 19l-74 132h-338q0 -2 1 -2l130 -239q10 -19 27 -38.5t38 -35.5t44.5 -26t47.5 -10h390v148zM189 414h368l-21 38q-8 15 -23.5 34t-35 35.5t-41.5 28t-43 11.5h-363v-147h158h1z" />
    <glyph glyph-name="FL00B7h" unicode="&#xb7;" horiz-adv-x="295" 
d="M29 295q0 -20 9.5 -36.5t25.5 -29t37.5 -19.5t45.5 -7t45.5 7t37 19.5t25 29t9.5 36.5q0 30 -24 56h-187q-24 -26 -24 -56z" />
    <glyph glyph-name="FL00BAh" unicode="&#xb8;" horiz-adv-x="195" 
d="M165 -157v157h-133v-42h-83v-115h216z" />
    <glyph glyph-name="FL00BEh" unicode="&#xb9;" horiz-adv-x="256" 
d="M83 414h143v214h-196v-82h53v-132zM226 348v3h-143v-3h143z" />
    <glyph glyph-name="FL00B0h" unicode="&#xba;" horiz-adv-x="423" 
d="M99 629q-14 0 -26.5 -6.5t-22 -16.5t-15 -22.5t-5.5 -25.5v-144h363v144q0 13 -5.5 25.5t-14.5 22.5t-21.5 16.5t-26.5 6.5h-226zM191 513q0 6 5 8h31q3 0 4.5 -3t1.5 -5v-53q-2 -6 -6 -6h-31q-5 0 -5 6v53zM342 351h-261q4 -1 7 -1.5t7 -0.5h233q4 0 14 2z" />
    <glyph glyph-name="FL00BBh" unicode="&#xbb;" horiz-adv-x="562" 
d="M84 279l-67 -68l101 -101l169 169l-73 72h-192l-5 -5zM342 279l-67 -68l101 -101l169 169l-73 72h-192l-5 -5zM85 414h66l-33 33zM343 414h66l-33 33z" />
    <glyph glyph-name="FL0763h" unicode="&#xbc;" horiz-adv-x="905" 
d="M17 0h284l318 351h-283l-31 -34v34h-143v-70h110zM567 252l-125 -157v-57h225v-38h148v38h60v81h-60v161h-206q-12 0 -25 -11.5t-17 -17.5v1zM810 561h-283l-134 -147h283zM305 561h-196v-82h53v-65h143v147zM634 119l33 44v-44h-33z" />
    <glyph glyph-name="FL0740h" unicode="&#xbd;" horiz-adv-x="908" 
d="M301 0l224 247v-49h202q2 0 3 -3t1 -5v-10h-140q-11 0 -23 -4t-21.5 -10.5t-16 -16t-6.5 -21.5v-128h354v82h-206v19h137q10 0 22 6t22.5 15t17.5 21t7 24v42q0 13 -6 26t-15.5 23t-22.5 16t-28 6h-251l64 71h-283l-31 -34v34h-143v-70h110l-255 -281h284zM393 414h283
l134 147h-283zM162 414h143v147h-196v-82h53v-65z" />
    <glyph glyph-name="FL077Ch" unicode="&#xbe;" horiz-adv-x="942" 
d="M361 351h-331v-70h253q5 0 12.5 1.5t18.5 3.5l-260 -286h284l318 351h-284l-15 -17q2 4 2.5 8t1.5 9zM604 252l-125 -157v-57h225v-38h148v38h60v81h-60v161h-206q-12 0 -25 -11.5t-17 -17.5v1zM206 460h-176v-46h322q-4 6 -7 9q9 9 13 23t4 28t-5 29.5t-15 28t-25 21
t-34 8.5h-253v-82h177q11 0 11 -10q0 -9 -12 -9zM430 414h283l134 147h-283zM671 119l33 44v-44h-33z" />
    <glyph glyph-name="FL00BFh" unicode="&#xbf;" horiz-adv-x="768" 
d="M630 347h-470q-20 0 -42.5 -11t-42 -28t-32.5 -39.5t-13 -44.5v-87q0 -26 11 -50.5t29.5 -44t43.5 -31t53 -11.5h570v147h-406q-10 0 -15.5 11t-5.5 19v31h192q20 0 42.5 7.5t41.5 20.5t31.5 31t12.5 39v41zM630 469q0 19 -9.5 36t-25.5 29.5t-37.5 19.5t-45.5 7
t-45.5 -7t-37 -19.5t-25 -29.5t-9.5 -36q0 -32 23 -55h189q11 11 17 25t6 30z" />
    <glyph glyph-name="FL00C0h" unicode="&#xc0;" 
d="M756 0v351h-280v-50h-167v50h-279v-351h279v158h167v-158h280zM331 414h425v23q0 22 -11.5 44.5t-30.5 40t-42 28.5t-46 11h-466q-23 0 -46 -10.5t-41.5 -28t-30.5 -39.5t-12 -46v-23h299h2zM415 777q-14 17 -39 17q-13 0 -23.5 -2.5t-21.5 -13.5q-12 -11 -17 -25t-5 -29
q0 -11 4 -17.5t11 -14.5l43 -50q15 -18 40 -18t48 20q10 10 12 18t2 19v11q0 10 -4 17t-11 15z" />
    <glyph glyph-name="FL00C1h" unicode="&#xc1;" 
d="M756 0v351h-280v-50h-167v50h-279v-351h279v158h167v-158h280zM457 414h299v23q0 22 -11.5 44.5t-30.5 40t-42 28.5t-46 11h-466q-23 0 -46 -10.5t-41.5 -28t-30.5 -39.5t-12 -46v-23h425h2zM332 724q-7 -8 -11 -15t-4 -17v-11q0 -11 2 -19t12 -18q23 -20 48 -20t40 18
l43 50q7 8 11 14.5t4 17.5q0 15 -5 29t-17 25q-11 11 -21.5 13.5t-23.5 2.5q-25 0 -39 -17z" />
    <glyph glyph-name="FL00C2h" unicode="&#xc2;" 
d="M756 0v351h-280v-50h-167v50h-279v-351h279v158h167v-158h280zM331 414h425v23q0 22 -11.5 44.5t-30.5 40t-42 28.5t-46 11h-466q-23 0 -46 -10.5t-41.5 -28t-30.5 -39.5t-12 -46v-23h299h2zM347 626l46 64l46 -64h169l-126 166h-177l-127 -166h169z" />
    <glyph glyph-name="FL00C3h" unicode="&#xc3;" 
d="M756 0v351h-280v-50h-167v50h-279v-351h279v158h167v-158h280zM756 414v23q0 22 -11.5 44.5t-30.5 40t-42 28.5t-46 11h-466q-23 0 -46 -10.5t-41.5 -28t-30.5 -39.5t-12 -46v-23h726zM516 626l127 166h-169l-45 -63l-47 63h-111l-127 -166h169l45 63l47 -63h111z" />
    <glyph glyph-name="FL00C4h" unicode="&#xc4;" 
d="M756 0v351h-280v-50h-167v50h-279v-351h279v158h167v-158h280zM756 414v23q0 22 -11.5 44.5t-30.5 40t-42 28.5t-46 11h-466q-23 0 -46 -10.5t-41.5 -28t-30.5 -39.5t-12 -46v-23h726zM609 709q0 34 -28 57.5t-70 23.5t-70 -23.5t-28 -57.5q0 -35 28.5 -58.5t69.5 -23.5
t69.5 23.5t28.5 58.5zM177 709q0 -35 28.5 -58.5t69.5 -23.5t69.5 23.5t28.5 58.5q0 34 -28 57.5t-70 23.5t-70 -23.5t-28 -57.5z" />
    <glyph glyph-name="FL00C5h" unicode="&#xc5;" 
d="M756 0v351h-280v-50h-167v50h-279v-351h279v158h167v-158h280zM457 414h299v23q0 22 -11.5 44.5t-30.5 40t-42 28.5t-46 11h-466q-23 0 -46 -10.5t-41.5 -28t-30.5 -39.5t-12 -46v-23h299h2h124h2zM296 709q0 -35 28.5 -58.5t69.5 -23.5t69.5 23.5t28.5 58.5
q0 34 -28 57.5t-70 23.5t-70 -23.5t-28 -57.5zM359 709q0 9 10 15t24 6t24 -6t10 -15t-10 -15.5t-24 -6.5t-24 6.5t-10 15.5z" />
    <glyph glyph-name="FL00C6h" unicode="&#xc6;" horiz-adv-x="1375" 
d="M309 301v50h-279v-351h279v158h167v-158h280v28q34 -28 76 -28h513v147h-342q-2 0 -10 8.5t-11 14.5q0 1 -0.5 3t-0.5 4t0.5 4t0.5 3q3 6 11 15t10 9h342v143h-869v-50h-167zM1003 414h342v147h-506q-33 0 -61 -16.5t-47 -42.5q-19 25 -47.5 42t-57.5 17h-466
q-23 0 -46 -10.5t-41.5 -28t-30.5 -39.5t-12 -46v-23h299h2h124h2h544h2z" />
    <glyph glyph-name="FL00C7h" unicode="&#xc7;" horiz-adv-x="703" 
d="M470 -157v157h197v147h-336q-8 0 -14 6.5t-7 16.5v181h-280v-228q0 -24 12 -46t30.5 -39t41.5 -27.5t46 -10.5h177v-42h-83v-115h216zM30 414h643v147h-506q-28 0 -53 -12.5t-43.5 -33t-29.5 -46t-11 -51.5v-4z" />
    <glyph glyph-name="FL00C8h" unicode="&#xc8;" horiz-adv-x="703" 
d="M673 351h-643v-228q0 -24 12 -46t30.5 -39t41.5 -27.5t46 -10.5h513v147h-342q-2 0 -10 8.5t-11 14.5q0 1 -0.5 3t-0.5 4t0.5 4t0.5 3q3 6 11 15t10 9h342v143zM167 561q-28 0 -53 -12.5t-43.5 -33t-29.5 -46t-11 -51.5v-4h299h2h342v147h-506zM372 777q-14 17 -39 17
q-13 0 -23.5 -2.5t-21.5 -13.5q-12 -11 -17 -25t-5 -29q0 -11 4 -17.5t11 -14.5l43 -50q15 -18 40 -18t48 20q10 10 12 18t2 19v11q0 10 -4 17t-11 15z" />
    <glyph glyph-name="FL00C9h" unicode="&#xc9;" horiz-adv-x="703" 
d="M335 351h-305v-228q0 -24 12 -46t30.5 -39t41.5 -27.5t46 -10.5h513v147h-342q-2 0 -10 8.5t-11 14.5q0 1 -0.5 3t-0.5 4t0.5 4t0.5 3q3 6 11 15t10 9h342v143h-335h-3zM167 561q-28 0 -53 -12.5t-43.5 -33t-29.5 -46t-11 -51.5v-4h643v147h-506zM324 724q-7 -8 -11 -15
t-4 -17v-11q0 -11 2 -19t12 -18q23 -20 48 -20t40 18l43 50q7 8 11 14.5t4 17.5q0 15 -5 29t-17 25q-11 11 -21.5 13.5t-23.5 2.5q-25 0 -39 -17z" />
    <glyph glyph-name="FL00CAh" unicode="&#xca;" horiz-adv-x="703" 
d="M335 351h-305v-228q0 -24 12 -46t30.5 -39t41.5 -27.5t46 -10.5h513v147h-342q-2 0 -10 8.5t-11 14.5q0 1 -0.5 3t-0.5 4t0.5 4t0.5 3q3 6 11 15t10 9h342v143h-335h-3zM167 561q-28 0 -53 -12.5t-43.5 -33t-29.5 -46t-11 -51.5v-4h299h2h342v147h-506zM309 626l46 64
l46 -64h169l-126 166h-177l-127 -166h169z" />
    <glyph glyph-name="FL00CBh" unicode="&#xcb;" horiz-adv-x="703" 
d="M673 351h-643v-228q0 -24 12 -46t30.5 -39t41.5 -27.5t46 -10.5h513v147h-342q-2 0 -10 8.5t-11 14.5q0 1 -0.5 3t-0.5 4t0.5 4t0.5 3q3 6 11 15t10 9h342v143zM167 561q-28 0 -53 -12.5t-43.5 -33t-29.5 -46t-11 -51.5v-4h299h2h342v147h-506zM571 709q0 34 -28 57.5
t-70 23.5t-70 -23.5t-28 -57.5q0 -35 28.5 -58.5t69.5 -23.5t69.5 23.5t28.5 58.5zM139 709q0 -35 28.5 -58.5t69.5 -23.5t69.5 23.5t28.5 58.5q0 34 -28 57.5t-70 23.5t-70 -23.5t-28 -57.5z" />
    <glyph glyph-name="FL00CCh" unicode="&#xcc;" horiz-adv-x="724" 
d="M694 0v147h-191v204h-280v-204h-192v-147h663zM693 414v147h-663v-147h663zM383 777q-14 17 -39 17q-13 0 -23.5 -2.5t-21.5 -13.5q-12 -11 -17 -25t-5 -29q0 -11 4 -17.5t11 -14.5l43 -50q15 -18 40 -18t48 20q10 10 12 18t2 19v11q0 10 -4 17t-11 15z" />
    <glyph glyph-name="FL00CDh" unicode="&#xcd;" horiz-adv-x="724" 
d="M30 147v-147h663v147h-192v204h-280v-204h-191zM694 414v147h-663v-147h663zM302 724q-7 -8 -11 -15t-4 -17v-11q0 -11 2 -19t12 -18q23 -20 48 -20t40 18l43 50q7 8 11 14.5t4 17.5q0 15 -5 29t-17 25q-11 11 -21.5 13.5t-23.5 2.5q-25 0 -39 -17z" />
    <glyph glyph-name="FL00CEh" unicode="&#xce;" horiz-adv-x="724" 
d="M30 147v-147h663v147h-192v204h-280v-204h-191zM694 561h-663v-147h663v147zM312 626l46 64l46 -64h169l-126 166h-177l-127 -166h169z" />
    <glyph glyph-name="FL00CFh" unicode="&#xcf;" horiz-adv-x="724" 
d="M30 147v-147h663v147h-192v204h-280v-204h-191zM694 414v147h-663v-147h663zM141 709q0 -35 28.5 -58.5t69.5 -23.5t69.5 23.5t28.5 58.5q0 34 -28 57.5t-70 23.5t-70 -23.5t-28 -57.5zM573 709q0 34 -28 57.5t-70 23.5t-70 -23.5t-28 -57.5q0 -35 28.5 -58.5t69.5 -23.5
t69.5 23.5t28.5 58.5z" />
    <glyph glyph-name="FL00D0h" unicode="&#xd0;" horiz-adv-x="840" 
d="M474 150h-103v58h55v143h-396v-143h61v-208h622q18 0 35 10.5t31 26.5t22.5 35.5t8.5 37.5v241h-283q3 -20 3 -38v-68q0 -15 -1 -32t-6.5 -31t-16.5 -23t-32 -9zM810 431q0 20 -9.5 43t-25 42.5t-35.5 32t-40 12.5h-609v-147h719v17z" />
    <glyph glyph-name="FL00D1h" unicode="&#xd1;" 
d="M756 438q0 22 -12 44.5t-30.5 39.5t-42 28t-45.5 11h-596v-147h425h2h299v24zM756 0v351h-280v-351h280zM309 0v351h-279v-351h279zM643 792h-169l-45 -63l-47 63h-111l-127 -166h169l45 63l47 -63h111z" />
    <glyph glyph-name="FL00D2h" unicode="&#xd2;" 
d="M756 123v228h-279v-181q-3 -6 -9.5 -14.5t-12.5 -8.5h-124q-13 0 -17 9t-5 14v181h-279v-228q0 -24 12 -46t30.5 -39t41.5 -27.5t46 -10.5h466q23 0 46 10.5t42 27.5t30.5 39t11.5 46zM167 561q-28 0 -53 -12.5t-43.5 -33t-29.5 -46t-11 -51.5v-4h726v4q0 26 -11 51.5
t-29.5 46t-43.5 33t-53 12.5h-452zM415 777q-14 17 -39 17q-13 0 -23.5 -2.5t-21.5 -13.5q-12 -11 -17 -25t-5 -29q0 -11 4 -17.5t11 -14.5l43 -50q15 -18 40 -18t48 20q10 10 12 18t2 19v11q0 10 -4 17t-11 15z" />
    <glyph glyph-name="FL00D3h" unicode="&#xd3;" 
d="M756 123v228h-279v-181q-3 -6 -9.5 -14.5t-12.5 -8.5h-124q-13 0 -17 9t-5 14v181h-279v-228q0 -24 12 -46t30.5 -39t41.5 -27.5t46 -10.5h466q23 0 46 10.5t42 27.5t30.5 39t11.5 46zM167 561q-28 0 -53 -12.5t-43.5 -33t-29.5 -46t-11 -51.5v-4h726v4q0 26 -11 51.5
t-29.5 46t-43.5 33t-53 12.5h-452zM332 724q-7 -8 -11 -15t-4 -17v-11q0 -11 2 -19t12 -18q23 -20 48 -20t40 18l43 50q7 8 11 14.5t4 17.5q0 15 -5 29t-17 25q-11 11 -21.5 13.5t-23.5 2.5q-25 0 -39 -17z" />
    <glyph glyph-name="FL00D4h" unicode="&#xd4;" 
d="M756 123v228h-279v-181q-3 -6 -9.5 -14.5t-12.5 -8.5h-124q-13 0 -17 9t-5 14v181h-279v-228q0 -24 12 -46t30.5 -39t41.5 -27.5t46 -10.5h466q23 0 46 10.5t42 27.5t30.5 39t11.5 46zM167 561q-28 0 -53 -12.5t-43.5 -33t-29.5 -46t-11 -51.5v-4h425h2h299v4
q0 26 -11 51.5t-29.5 46t-43.5 33t-53 12.5h-452zM347 626l46 64l46 -64h169l-126 166h-177l-127 -166h169z" />
    <glyph glyph-name="FL00D5h" unicode="&#xd5;" 
d="M309 170v181h-279v-228q0 -24 12 -46t30.5 -39t41.5 -27.5t46 -10.5h466q23 0 46 10.5t42 27.5t30.5 39t11.5 46v228h-279v-181q-3 -6 -9.5 -14.5t-12.5 -8.5h-124q-13 0 -17 9t-5 14zM619 561h-452q-28 0 -53 -12.5t-43.5 -33t-29.5 -46t-11 -51.5v-4h726v4
q0 26 -11 51.5t-29.5 46t-43.5 33t-53 12.5zM643 792h-169l-45 -63l-47 63h-111l-127 -166h169l45 63l47 -63h111z" />
    <glyph glyph-name="FL00D6h" unicode="&#xd6;" 
d="M756 123v228h-279v-181q-3 -6 -9.5 -14.5t-12.5 -8.5h-124q-13 0 -17 9t-5 14v181h-279v-228q0 -24 12 -46t30.5 -39t41.5 -27.5t46 -10.5h466q23 0 46 10.5t42 27.5t30.5 39t11.5 46zM167 561q-28 0 -53 -12.5t-43.5 -33t-29.5 -46t-11 -51.5v-4h425h2h299v4
q0 26 -11 51.5t-29.5 46t-43.5 33t-53 12.5h-452zM177 709q0 -35 28.5 -58.5t69.5 -23.5t69.5 23.5t28.5 58.5q0 34 -28 57.5t-70 23.5t-70 -23.5t-28 -57.5zM609 709q0 34 -28 57.5t-70 23.5t-70 -23.5t-28 -57.5q0 -35 28.5 -58.5t69.5 -23.5t69.5 23.5t28.5 58.5z" />
    <glyph glyph-name="FL00D7h" unicode="&#xd7;" horiz-adv-x="398" 
d="M301 279l67 67l-5 5h-329l-4 -4l68 -68l-68 -69l101 -101l68 69l68 -68l101 101zM97 414h68l-33 34zM233 414h67l-33 33z" />
    <glyph glyph-name="FL00D8h" unicode="&#xd8;" 
d="M756 123v228h-392l-55 -55v55h-279v-228q0 -24 12 -46t30.5 -39t41.5 -27.5t46 -10.5h466q23 0 46 10.5t42 27.5t30.5 39t11.5 46zM619 561h-452q-28 0 -53 -12.5t-43.5 -33t-29.5 -46t-11 -51.5v-4h726v4q0 26 -11 51.5t-29.5 46t-43.5 33t-53 12.5zM477 264v-94
q-3 -6 -9.5 -14.5t-12.5 -8.5h-102z" />
    <glyph glyph-name="FL00D9h" unicode="&#xd9;" 
d="M310 170v181h-280v-228q0 -23 12 -45t30.5 -39t41.5 -28t46 -11h596v351h-279v-204h-146q-11 0 -14.5 8.5t-6.5 14.5zM310 561h-280v-147h280v147zM756 561h-279v-147h279v147zM454 724l-39 53q-14 17 -39 17q-13 0 -23.5 -2.5t-21.5 -13.5q-12 -11 -17 -25t-5 -29
q0 -11 4 -17.5t11 -14.5l43 -50q15 -18 40 -18t48 20q10 10 12 18t2 19v11q0 10 -4 17t-11 15z" />
    <glyph glyph-name="FL00DAh" unicode="&#xda;" 
d="M310 170v181h-280v-228q0 -23 12 -45t30.5 -39t41.5 -28t46 -11h596v351h-279v-204h-146q-11 0 -14.5 8.5t-6.5 14.5zM310 561h-280v-147h280v147zM756 561h-279v-147h279v147zM371 777l-39 -53q-7 -8 -11 -15t-4 -17v-11q0 -11 2 -19t12 -18q23 -20 48 -20t40 18l43 50
q7 8 11 14.5t4 17.5q0 15 -5 29t-17 25q-11 11 -21.5 13.5t-23.5 2.5q-25 0 -39 -17z" />
    <glyph glyph-name="FL00DBh" unicode="&#xdb;" 
d="M310 170v181h-280v-228q0 -23 12 -45t30.5 -39t41.5 -28t46 -11h596v351h-279v-204h-146q-11 0 -14.5 8.5t-6.5 14.5zM178 626h169l46 64l46 -64h169l-126 166h-177zM310 561h-280v-147h280v147zM756 561h-279v-147h279v147z" />
    <glyph glyph-name="FL00DCh" unicode="&#xdc;" 
d="M310 170v181h-280v-228q0 -23 12 -45t30.5 -39t41.5 -28t46 -11h596v351h-279v-204h-146q-11 0 -14.5 8.5t-6.5 14.5zM310 561h-280v-147h280v147zM756 561h-279v-147h279v147zM177 709q0 -35 28.5 -58.5t69.5 -23.5t69.5 23.5t28.5 58.5q0 34 -28 57.5t-70 23.5
t-70 -23.5t-28 -57.5zM609 709q0 34 -28 57.5t-70 23.5t-70 -23.5t-28 -57.5q0 -35 28.5 -58.5t69.5 -23.5t69.5 23.5t28.5 58.5z" />
    <glyph glyph-name="FL00DDh" unicode="&#xdd;" horiz-adv-x="773" 
d="M443 350h-112q-5 0 -6 1h-295v-21q0 -23 12 -45t30.5 -39t41.5 -28t46 -11h302v-23q0 -20 -8 -27.5t-28 -9.5h-391v-147h594q26 0 47 11t36 30.5t23 46t8 56.5v207h-296q-2 -1 -4 -1zM743 561h-281v-147h281v147zM310 561h-280v-147h280v147zM359 777l-39 -53
q-7 -8 -11 -15t-4 -17v-11q0 -11 2 -19t12 -18q23 -20 48 -20t40 18l43 50q7 8 11 14.5t4 17.5q0 15 -5 29t-17 25q-11 11 -21.5 13.5t-23.5 2.5q-25 0 -39 -17z" />
    <glyph glyph-name="FL00DEh" unicode="&#xde;" 
d="M748 351h-718v-351h280v81h296q42 0 70.5 18.5t46 48t25.5 67t8 75.5q0 14 -1.5 29t-6.5 32zM30 561v-147h693q-17 30 -46 50.5t-72 20.5h-295v76h-280zM447 338q9 0 16 -6t11 -14.5t6 -17.5t2 -16q0 -8 -3 -18t-8 -18.5t-12.5 -14t-17.5 -5.5h-131v110h137z" />
    <glyph glyph-name="FL00DFh" unicode="&#xdf;" horiz-adv-x="725" 
d="M310 -138v489h-280v-489h280zM384 350h-27v-139h28q21 0 28.5 -7t7.5 -23q0 -14 -8 -24t-27 -10h-29v-147h187q42 0 71 16t47 41t25.5 55t7.5 58q0 32 -8.5 63t-32.5 52q14 11 22.5 28.5t13.5 37.5h-290q-5 -1 -16 -1zM390 414h302q-3 25 -14.5 51.5t-30.5 47.5t-45 34.5
t-59 13.5h-513v-147h355h5z" />
    <glyph glyph-name="FL00E0h" unicode="&#xe0;" horiz-adv-x="924" 
d="M17 -1h328l246 334q3 5 5 7t7 2q3 -2 7.5 -4t4.5 -3v-335h279v351h-607zM335 414h559v147h-412q-10 0 -22 -6.5t-22.5 -15.5t-19 -18t-12.5 -15zM656 777q-14 17 -39 17q-13 0 -23.5 -2.5t-21.5 -13.5q-12 -11 -17 -25t-5 -29q0 -11 4 -17.5t11 -14.5l43 -50
q15 -18 40 -18t48 20q10 10 12 18t2 19v11q0 10 -4 17t-11 15z" />
    <glyph glyph-name="FL00E1h" unicode="&#xe1;" horiz-adv-x="924" 
d="M17 -1h328l246 334q3 5 5 7t7 2q3 -2 7.5 -4t4.5 -3v-335h279v351h-607zM335 414h559v147h-412q-10 0 -22 -6.5t-22.5 -15.5t-19 -18t-12.5 -15zM594 724q-7 -8 -11 -15t-4 -17v-11q0 -11 2 -19t12 -18q23 -20 48 -20t40 18l43 50q7 8 11 14.5t4 17.5q0 15 -5 29t-17 25
q-11 11 -21.5 13.5t-23.5 2.5q-25 0 -39 -17z" />
    <glyph glyph-name="FL00E2h" unicode="&#xe2;" horiz-adv-x="924" 
d="M17 -1h328l246 334q3 5 5 7t7 2q3 -2 7.5 -4t4.5 -3v-335h279v351h-607zM335 414h559v147h-412q-10 0 -22 -6.5t-22.5 -15.5t-19 -18t-12.5 -15zM602 626l46 64l46 -64h169l-126 166h-177l-127 -166h169z" />
    <glyph glyph-name="FL00E3h" unicode="&#xe3;" horiz-adv-x="924" 
d="M345 -1l246 334q3 5 5 7t7 2q3 -2 7.5 -4t4.5 -3v-335h279v351h-607l-270 -352h328zM406 506l-71 -92h559v147h-412q-10 0 -22 -6.5t-22.5 -15.5t-19 -18t-12.5 -15zM868 792h-169l-45 -63l-47 63h-111l-127 -166h169l45 63l47 -63h111z" />
    <glyph glyph-name="FL00E4h" unicode="&#xe4;" horiz-adv-x="924" 
d="M17 -1h328l246 334q3 5 5 7t7 2q3 -2 7.5 -4t4.5 -3v-335h279v351h-607zM335 414h559v147h-412q-10 0 -22 -6.5t-22.5 -15.5t-19 -18t-12.5 -15zM878 709q0 34 -28 57.5t-70 23.5t-70 -23.5t-28 -57.5q0 -35 28.5 -58.5t69.5 -23.5t69.5 23.5t28.5 58.5zM446 709
q0 -35 28.5 -58.5t69.5 -23.5t69.5 23.5t28.5 58.5q0 34 -28 57.5t-70 23.5t-70 -23.5t-28 -57.5z" />
    <glyph glyph-name="FL00E5h" unicode="&#xe5;" horiz-adv-x="924" 
d="M345 -1l246 334q3 5 5 7t7 2q3 -2 7.5 -4t4.5 -3v-335h279v351h-607l-270 -352h328zM406 506l-71 -92h559v147h-412q-10 0 -22 -6.5t-22.5 -15.5t-19 -18t-12.5 -15zM554 709q0 -35 28.5 -58.5t69.5 -23.5t69.5 23.5t28.5 58.5q0 34 -28 57.5t-70 23.5t-70 -23.5
t-28 -57.5zM617 709q0 9 10 15t24 6t24 -6t10 -15t-10 -15.5t-24 -6.5t-24 6.5t-10 15.5z" />
    <glyph glyph-name="FL00E6h" unicode="&#xe6;" horiz-adv-x="1291" 
d="M17 -1h328l246 334q3 5 5 7t7 2q3 -2 7.5 -4t4.5 -3v-335h646v147h-342q-2 0 -10 8.5t-11 14.5q0 1 -0.5 3t-0.5 4t0.5 4t0.5 3q3 6 11 15t10 9h342v143h-335h-3h-636zM335 414h926v147h-779q-10 0 -22 -6.5t-22.5 -15.5t-19 -18t-12.5 -15z" />
    <glyph glyph-name="FL00E7h" unicode="&#xe7;" horiz-adv-x="703" 
d="M470 -157v157h197v147h-336q-8 0 -14 6.5t-7 16.5v181h-280v-228q0 -24 12 -46t30.5 -39t41.5 -27.5t46 -10.5h177v-42h-83v-115h216zM30 414h643v147h-506q-28 0 -53 -12.5t-43.5 -33t-29.5 -46t-11 -51.5v-4z" />
    <glyph glyph-name="FL00E8h" unicode="&#xe8;" horiz-adv-x="703" 
d="M673 351h-643v-228q0 -24 12 -46t30.5 -39t41.5 -27.5t46 -10.5h513v147h-342q-2 0 -10 8.5t-11 14.5q0 1 -0.5 3t-0.5 4t0.5 4t0.5 3q3 6 11 15t10 9h342v143zM167 561q-28 0 -53 -12.5t-43.5 -33t-29.5 -46t-11 -51.5v-4h299h2h342v147h-506zM372 777q-14 17 -39 17
q-13 0 -23.5 -2.5t-21.5 -13.5q-12 -11 -17 -25t-5 -29q0 -11 4 -17.5t11 -14.5l43 -50q15 -18 40 -18t48 20q10 10 12 18t2 19v11q0 10 -4 17t-11 15z" />
    <glyph glyph-name="FL00E9h" unicode="&#xe9;" horiz-adv-x="703" 
d="M335 351h-305v-228q0 -24 12 -46t30.5 -39t41.5 -27.5t46 -10.5h513v147h-342q-2 0 -10 8.5t-11 14.5q0 1 -0.5 3t-0.5 4t0.5 4t0.5 3q3 6 11 15t10 9h342v143h-335h-3zM167 561q-28 0 -53 -12.5t-43.5 -33t-29.5 -46t-11 -51.5v-4h643v147h-506zM324 724q-7 -8 -11 -15
t-4 -17v-11q0 -11 2 -19t12 -18q23 -20 48 -20t40 18l43 50q7 8 11 14.5t4 17.5q0 15 -5 29t-17 25q-11 11 -21.5 13.5t-23.5 2.5q-25 0 -39 -17z" />
    <glyph glyph-name="FL00EAh" unicode="&#xea;" horiz-adv-x="703" 
d="M335 351h-305v-228q0 -24 12 -46t30.5 -39t41.5 -27.5t46 -10.5h513v147h-342q-2 0 -10 8.5t-11 14.5q0 1 -0.5 3t-0.5 4t0.5 4t0.5 3q3 6 11 15t10 9h342v143h-335h-3zM167 561q-28 0 -53 -12.5t-43.5 -33t-29.5 -46t-11 -51.5v-4h299h2h342v147h-506zM309 626l46 64
l46 -64h169l-126 166h-177l-127 -166h169z" />
    <glyph glyph-name="FL00EBh" unicode="&#xeb;" horiz-adv-x="703" 
d="M673 351h-643v-228q0 -24 12 -46t30.5 -39t41.5 -27.5t46 -10.5h513v147h-342q-2 0 -10 8.5t-11 14.5q0 1 -0.5 3t-0.5 4t0.5 4t0.5 3q3 6 11 15t10 9h342v143zM167 561q-28 0 -53 -12.5t-43.5 -33t-29.5 -46t-11 -51.5v-4h299h2h342v147h-506zM571 709q0 34 -28 57.5
t-70 23.5t-70 -23.5t-28 -57.5q0 -35 28.5 -58.5t69.5 -23.5t69.5 23.5t28.5 58.5zM139 709q0 -35 28.5 -58.5t69.5 -23.5t69.5 23.5t28.5 58.5q0 34 -28 57.5t-70 23.5t-70 -23.5t-28 -57.5z" />
    <glyph glyph-name="FL00ECh" unicode="&#xec;" horiz-adv-x="340" 
d="M310 0v351h-280v-351h280zM30 561v-147h280v147h-280zM193 777q-14 17 -39 17q-13 0 -23.5 -2.5t-21.5 -13.5q-12 -11 -17 -25t-5 -29q0 -11 4 -17.5t11 -14.5l43 -50q15 -18 40 -18t48 20q10 10 12 18t2 19v11q0 10 -4 17t-11 15z" />
    <glyph glyph-name="FL00EDh" unicode="&#xed;" horiz-adv-x="340" 
d="M310 0v351h-280v-351h280zM30 561v-147h280v147h-280zM108 724q-7 -8 -11 -15t-4 -17v-11q0 -11 2 -19t12 -18q23 -20 48 -20t40 18l43 50q7 8 11 14.5t4 17.5q0 15 -5 29t-17 25q-11 11 -21.5 13.5t-23.5 2.5q-25 0 -39 -17z" />
    <glyph glyph-name="FL00EEh" unicode="&#xee;" horiz-adv-x="340" 
d="M310 0v351h-280v-351h280zM122 626l46 64l46 -64h169l-126 166h-177l-127 -166h169zM30 561v-147h280v147h-280z" />
    <glyph glyph-name="FL00EFh" unicode="&#xef;" horiz-adv-x="340" 
d="M310 0v351h-280v-351h280zM30 561v-147h280v147h-280zM387 709q0 34 -28 57.5t-70 23.5t-70 -23.5t-28 -57.5q0 -35 28.5 -58.5t69.5 -23.5t69.5 23.5t28.5 58.5zM-45 709q0 -35 28.5 -58.5t69.5 -23.5t69.5 23.5t28.5 58.5q0 34 -28 57.5t-70 23.5t-70 -23.5t-28 -57.5z
" />
    <glyph glyph-name="FL0047h" unicode="&#xf0;" 
d="M30 253v-130q0 -24 11.5 -46t30.5 -39t42 -27.5t46 -10.5h466q22 0 45.5 11t42 28t30.5 39t12 45v228h-638q-17 -6 -32.5 -16t-28 -23t-20 -28t-7.5 -31zM756 418q0 26 -11 51.5t-30 46t-43.5 33t-52.5 12.5h-586v-147h723v4zM455 147h-124q-8 0 -13.5 8.5t-8.5 14.5v41
h167v-41q-3 -6 -6.5 -14.5t-14.5 -8.5z" />
    <glyph glyph-name="FL00F1h" unicode="&#xf1;" horiz-adv-x="948" 
d="M588 351h-558v-351h280v279l128 -175q12 -17 26.5 -35.5t32 -33.5t38 -25t43.5 -10h340v351h-281v-76zM395 561h-365v-147h517l-29 46q-8 13 -22 30.5t-31 33t-35.5 26.5t-34.5 11zM736 792h-169l-45 -63l-47 63h-111l-127 -166h169l45 63l47 -63h111zM918 561h-281v-147
h281v147z" />
    <glyph glyph-name="FL00F2h" unicode="&#xf2;" 
d="M756 123v228h-279v-181q-3 -6 -9.5 -14.5t-12.5 -8.5h-124q-13 0 -17 9t-5 14v181h-279v-228q0 -24 12 -46t30.5 -39t41.5 -27.5t46 -10.5h466q23 0 46 10.5t42 27.5t30.5 39t11.5 46zM167 561q-28 0 -53 -12.5t-43.5 -33t-29.5 -46t-11 -51.5v-4h726v4q0 26 -11 51.5
t-29.5 46t-43.5 33t-53 12.5h-452zM415 777q-14 17 -39 17q-13 0 -23.5 -2.5t-21.5 -13.5q-12 -11 -17 -25t-5 -29q0 -11 4 -17.5t11 -14.5l43 -50q15 -18 40 -18t48 20q10 10 12 18t2 19v11q0 10 -4 17t-11 15z" />
    <glyph glyph-name="FL00F3h" unicode="&#xf3;" 
d="M756 123v228h-279v-181q-3 -6 -9.5 -14.5t-12.5 -8.5h-124q-13 0 -17 9t-5 14v181h-279v-228q0 -24 12 -46t30.5 -39t41.5 -27.5t46 -10.5h466q23 0 46 10.5t42 27.5t30.5 39t11.5 46zM167 561q-28 0 -53 -12.5t-43.5 -33t-29.5 -46t-11 -51.5v-4h726v4q0 26 -11 51.5
t-29.5 46t-43.5 33t-53 12.5h-452zM332 724q-7 -8 -11 -15t-4 -17v-11q0 -11 2 -19t12 -18q23 -20 48 -20t40 18l43 50q7 8 11 14.5t4 17.5q0 15 -5 29t-17 25q-11 11 -21.5 13.5t-23.5 2.5q-25 0 -39 -17z" />
    <glyph glyph-name="FL00F4h" unicode="&#xf4;" 
d="M756 123v228h-279v-181q-3 -6 -9.5 -14.5t-12.5 -8.5h-124q-13 0 -17 9t-5 14v181h-279v-228q0 -24 12 -46t30.5 -39t41.5 -27.5t46 -10.5h466q23 0 46 10.5t42 27.5t30.5 39t11.5 46zM167 561q-28 0 -53 -12.5t-43.5 -33t-29.5 -46t-11 -51.5v-4h425h2h299v4
q0 26 -11 51.5t-29.5 46t-43.5 33t-53 12.5h-452zM347 626l46 64l46 -64h169l-126 166h-177l-127 -166h169z" />
    <glyph glyph-name="FL00F5h" unicode="&#xf5;" 
d="M309 170v181h-279v-228q0 -24 12 -46t30.5 -39t41.5 -27.5t46 -10.5h466q23 0 46 10.5t42 27.5t30.5 39t11.5 46v228h-279v-181q-3 -6 -9.5 -14.5t-12.5 -8.5h-124q-13 0 -17 9t-5 14zM619 561h-452q-28 0 -53 -12.5t-43.5 -33t-29.5 -46t-11 -51.5v-4h726v4
q0 26 -11 51.5t-29.5 46t-43.5 33t-53 12.5zM643 792h-169l-45 -63l-47 63h-111l-127 -166h169l45 63l47 -63h111z" />
    <glyph glyph-name="FL00F6h" unicode="&#xf6;" 
d="M756 123v228h-279v-181q-3 -6 -9.5 -14.5t-12.5 -8.5h-124q-13 0 -17 9t-5 14v181h-279v-228q0 -24 12 -46t30.5 -39t41.5 -27.5t46 -10.5h466q23 0 46 10.5t42 27.5t30.5 39t11.5 46zM167 561q-28 0 -53 -12.5t-43.5 -33t-29.5 -46t-11 -51.5v-4h425h2h299v4
q0 26 -11 51.5t-29.5 46t-43.5 33t-53 12.5h-452zM177 709q0 -35 28.5 -58.5t69.5 -23.5t69.5 23.5t28.5 58.5q0 34 -28 57.5t-70 23.5t-70 -23.5t-28 -57.5zM609 709q0 34 -28 57.5t-70 23.5t-70 -23.5t-28 -57.5q0 -35 28.5 -58.5t69.5 -23.5t69.5 23.5t28.5 58.5z" />
    <glyph glyph-name="FL00F7h" unicode="&#xf7;" horiz-adv-x="457" 
d="M30 208h397v143h-397v-143zM152 103q0 -31 23 -52.5t56 -21.5t56 21.5t23 52.5t-23 52t-56 21t-56 -21t-23 -52zM152 463q0 -28 19 -49h119q9 10 14.5 22.5t5.5 26.5q0 31 -23 52t-56 21t-56 -21t-23 -52z" />
    <glyph glyph-name="FL00F8h" unicode="&#xf8;" 
d="M756 123v228h-392l-55 -55v55h-279v-228q0 -24 12 -46t30.5 -39t41.5 -27.5t46 -10.5h466q23 0 46 10.5t42 27.5t30.5 39t11.5 46zM619 561h-452q-28 0 -53 -12.5t-43.5 -33t-29.5 -46t-11 -51.5v-4h726v4q0 26 -11 51.5t-29.5 46t-43.5 33t-53 12.5zM477 264v-94
q-3 -6 -9.5 -14.5t-12.5 -8.5h-102z" />
    <glyph glyph-name="FL00F9h" unicode="&#xf9;" 
d="M476 170q-3 -6 -6.5 -14.5t-14.5 -8.5h-124q-8 0 -13.5 8.5t-8.5 14.5v181h-279v-228q0 -24 11.5 -46t30.5 -39t42 -27.5t46 -10.5h466q22 0 45.5 11t42 28t30.5 39t12 45v228h-280v-181zM476 414h280v147h-280v-147zM30 414h279v147h-279v-147zM415 777q-14 17 -39 17
q-13 0 -23.5 -2.5t-21.5 -13.5q-12 -11 -17 -25t-5 -29q0 -11 4 -17.5t11 -14.5l43 -50q15 -18 40 -18t48 20q10 10 12 18t2 19v11q0 10 -4 17t-11 15z" />
    <glyph glyph-name="FL00FAh" unicode="&#xfa;" 
d="M310 170v181h-280v-228q0 -23 12 -45t30.5 -39t41.5 -28t46 -11h466q23 0 46 10.5t42 27.5t30.5 39t11.5 46v228h-279v-181q-3 -6 -8.5 -14.5t-13.5 -8.5h-124q-11 0 -14.5 8.5t-6.5 14.5zM310 561h-280v-147h280v147zM477 414h279v147h-279v-147zM332 724q-7 -8 -11 -15
t-4 -17v-11q0 -11 2 -19t12 -18q23 -20 48 -20t40 18l43 50q7 8 11 14.5t4 17.5q0 15 -5 29t-17 25q-11 11 -21.5 13.5t-23.5 2.5q-25 0 -39 -17z" />
    <glyph glyph-name="FL00FBh" unicode="&#xfb;" 
d="M310 170v181h-280v-228q0 -23 12 -45t30.5 -39t41.5 -28t46 -11h466q23 0 46 10.5t42 27.5t30.5 39t11.5 46v228h-279v-181q-3 -6 -8.5 -14.5t-13.5 -8.5h-124q-11 0 -14.5 8.5t-6.5 14.5zM347 626l46 64l46 -64h169l-126 166h-177l-127 -166h169zM310 561h-280v-147h280
v147zM477 414h279v147h-279v-147z" />
    <glyph glyph-name="FL00FCh" unicode="&#xfc;" 
d="M310 170v181h-280v-228q0 -23 12 -45t30.5 -39t41.5 -28t46 -11h466q23 0 46 10.5t42 27.5t30.5 39t11.5 46v228h-279v-181q-3 -6 -8.5 -14.5t-13.5 -8.5h-124q-11 0 -14.5 8.5t-6.5 14.5zM310 561h-280v-147h280v147zM477 414h279v147h-279v-147zM177 709
q0 -35 28.5 -58.5t69.5 -23.5t69.5 23.5t28.5 58.5q0 34 -28 57.5t-70 23.5t-70 -23.5t-28 -57.5zM609 709q0 34 -28 57.5t-70 23.5t-70 -23.5t-28 -57.5q0 -35 28.5 -58.5t69.5 -23.5t69.5 23.5t28.5 58.5z" />
    <glyph glyph-name="FL00FDh" unicode="&#xfd;" horiz-adv-x="751" 
d="M538 351h-348q14 -14 25.5 -29.5t18.5 -37.5v-284h280v302q0 12 6.5 24.5t17.5 24.5zM721 561h-219q-27 -8 -47.5 -24.5t-34 -33.5t-21 -30t-8.5 -13q-10 10 -22 27t-28 33.5t-37 28.5t-48 12h-226v-147h691v147zM329 724q-7 -8 -11 -15t-4 -17v-11q0 -11 2 -19t12 -18
q23 -20 48 -20t40 18l43 50q7 8 11 14.5t4 17.5q0 15 -5 29t-17 25q-11 11 -21.5 13.5t-23.5 2.5q-25 0 -39 -17z" />
    <glyph glyph-name="FL00FEh" unicode="&#xfe;" 
d="M748 351h-718v-351h280v81h296q42 0 70.5 18.5t46 48t25.5 67t8 75.5q0 14 -1.5 29t-6.5 32zM30 561v-147h693q-17 30 -46 50.5t-72 20.5h-295v76h-280zM447 338q9 0 16 -6t11 -14.5t6 -17.5t2 -16q0 -8 -3 -18t-8 -18.5t-12.5 -14t-17.5 -5.5h-131v110h137z" />
    <glyph glyph-name="FL00FFh" unicode="&#xff;" horiz-adv-x="751" 
d="M538 351h-348q14 -14 25.5 -29.5t18.5 -37.5v-284h280v302q0 12 6.5 24.5t17.5 24.5zM721 561h-219q-27 -8 -47.5 -24.5t-34 -33.5t-21 -30t-8.5 -13q-10 10 -22 27t-28 33.5t-37 28.5t-48 12h-226v-147h691v147zM155 709q0 -35 28.5 -58.5t69.5 -23.5t69.5 23.5
t28.5 58.5q0 34 -28 57.5t-70 23.5t-70 -23.5t-28 -57.5zM587 709q0 34 -28 57.5t-70 23.5t-70 -23.5t-28 -57.5q0 -35 28.5 -58.5t69.5 -23.5t69.5 23.5t28.5 58.5z" />
    <glyph glyph-name="FL0152h" unicode="&#x152;" horiz-adv-x="1211" 
d="M843 351h-305v-204h-207q-8 0 -14 6.5t-7 16.5v181h-280v-228q0 -24 12 -46t30.5 -39t41.5 -27.5t46 -10.5h1021v147h-342q-2 0 -10 8.5t-11 14.5q0 1 -0.5 3t-0.5 4t0.5 4t0.5 3q3 6 11 15t10 9h342v143h-335h-3zM1181 561h-1014q-28 0 -53 -12.5t-43.5 -33t-29.5 -46
t-11 -51.5v-4h1151v147z" />
    <glyph glyph-name="FL0153h" unicode="&#x153;" horiz-adv-x="1211" 
d="M843 351h-305v-204h-207q-8 0 -14 6.5t-7 16.5v181h-280v-228q0 -24 12 -46t30.5 -39t41.5 -27.5t46 -10.5h1021v147h-342q-2 0 -10 8.5t-11 14.5q0 1 -0.5 3t-0.5 4t0.5 4t0.5 3q3 6 11 15t10 9h342v143h-335h-3zM1181 561h-1014q-28 0 -53 -12.5t-43.5 -33t-29.5 -46
t-11 -51.5v-4h1151v147z" />
    <glyph glyph-name="FL0160h" unicode="&#x160;" horiz-adv-x="768" 
d="M738 255q0 18 -9.5 34t-25 28.5t-34.5 21.5t-37 12h-602v-14q0 -23 13 -45.5t32.5 -40.5t42 -29.5t42.5 -11.5h297v-33q0 -8 -5.5 -19t-15.5 -11h-406v-147h570q28 0 53 13t44 33.5t30 45.5t11 49v114zM30 414h707v147h-570q-28 0 -53 -11.5t-43.5 -31t-29.5 -44
t-11 -50.5v-10zM432 792l-46 -64l-46 64h-169l126 -166h177l127 166h-169z" />
    <glyph glyph-name="FL0161h" unicode="&#x161;" horiz-adv-x="900" 
d="M30 0h337q24 0 47.5 10t44.5 26t37.5 35.5t27.5 38.5l132 239v2h-337l-75 -136q-5 -8 -13 -19.5t-17 -22t-18.5 -18t-18.5 -7.5h-147v-148zM354 414h516v147h-351q-21 0 -44.5 -13.5t-44 -31.5t-35.5 -36t-20 -28zM498 792l-46 -64l-46 64h-169l126 -166h177l127 166
h-169z" />
    <glyph glyph-name="FL0178h" unicode="&#x178;" horiz-adv-x="773" 
d="M743 144v207h-296q-2 -1 -4 -1h-112q-5 0 -6 1h-295v-21q0 -23 12 -45t30.5 -39t41.5 -28t46 -11h302v-23q0 -20 -8 -27.5t-28 -9.5h-391v-147h594q26 0 47 11t36 30.5t23 46t8 56.5zM462 561v-147h281v147h-281zM30 414h280v147h-280v-147zM168 709q0 -35 28.5 -58.5
t69.5 -23.5t69.5 23.5t28.5 58.5q0 34 -28 57.5t-70 23.5t-70 -23.5t-28 -57.5zM600 709q0 34 -28 57.5t-70 23.5t-70 -23.5t-28 -57.5q0 -35 28.5 -58.5t69.5 -23.5t69.5 23.5t28.5 58.5z" />
    <glyph glyph-name="FL00AFh" unicode="&#x192;" 
d="M756 308v43h-279v-1h-167v1h-280v-208q0 -26 11 -51.5t29.5 -46t43.5 -33t53 -12.5h586v147h-422q-10 0 -15.5 11t-5.5 19l-2 2h2v23h316q20 0 43 8.5t42.5 23t32 34t12.5 40.5zM331 414h124h2h299v24q0 24 -11.5 46t-30.5 39t-42 27.5t-46 10.5h-466q-23 0 -46 -11
t-41.5 -28t-30.5 -39.5t-12 -44.5v-24h298h3z" />
    <glyph glyph-name="FL02C6h" unicode="&#x2c6;" horiz-adv-x="464" 
d="M32 414h168l32 44l31 -44h169l-111 146h-177z" />
    <glyph glyph-name="FL02DCh" unicode="&#x2dc;" horiz-adv-x="533" 
d="M516 561h-169l-45 -63l-47 63h-111l-113 -147h168l32 44l33 -44h139z" />
    <glyph glyph-name="FL2013h" unicode="&#x2013;" horiz-adv-x="395" 
d="M30 351v-143h335v143h-335z" />
    <glyph glyph-name="FL2014h" unicode="&#x2014;" horiz-adv-x="457" 
d="M30 351v-143h397v143h-397z" />
    <glyph glyph-name="FL2018h" unicode="&#x2018;" horiz-adv-x="279" 
d="M30 414h219v56q0 19 -8.5 35.5t-23.5 29t-35 19.5t-42 7q-23 0 -43 -7t-35 -19.5t-23.5 -29t-8.5 -35.5v-56zM247 351h-215q8 -32 37.5 -52.5t70.5 -20.5q39 0 69 20.5t38 52.5z" />
    <glyph glyph-name="FL2019h" unicode="&#x2019;" horiz-adv-x="279" 
d="M30 414h219v56q0 19 -8.5 35.5t-23.5 29t-35 19.5t-42 7q-23 0 -43 -7t-35 -19.5t-23.5 -29t-8.5 -35.5v-56zM247 351h-215q8 -32 37.5 -52.5t70.5 -20.5q39 0 69 20.5t38 52.5z" />
    <glyph glyph-name="FL201Ah" unicode="&#x201a;" horiz-adv-x="295" 
d="M30 -11q0 -20 9.5 -36.5t25.5 -29t37.5 -19.5t45.5 -7t45.5 7t37 19.5t25 29t9.5 36.5v103q0 19 -9.5 36t-25 29.5t-37 19.5t-45.5 7t-45.5 -7t-37.5 -19.5t-25.5 -29.5t-9.5 -36v-103z" />
    <glyph glyph-name="FL201Ch" unicode="&#x201c;" horiz-adv-x="504" 
d="M265 414h209v56q0 19 -8 35.5t-22.5 29t-33.5 19.5t-40 7q-22 0 -41 -7t-33.5 -19.5t-22.5 -29t-8 -35.5v-56zM30 414h209v55q0 19 -8 35.5t-22.5 29t-33.5 19.5t-40 7q-22 0 -41 -7t-33.5 -19.5t-22.5 -29t-8 -35.5v-55zM237 351h-205q7 -32 35.5 -53t67.5 -21
q38 0 66.5 21t35.5 53zM472 351h-205q7 -32 35.5 -52.5t67.5 -20.5q38 0 66 20.5t36 52.5z" />
    <glyph glyph-name="FL201Dh" unicode="&#x201d;" horiz-adv-x="504" 
d="M265 414h209v56q0 19 -8 35.5t-22.5 29t-33.5 19.5t-40 7q-22 0 -41 -7t-33.5 -19.5t-22.5 -29t-8 -35.5v-56zM30 414h209v55q0 19 -8 35.5t-22.5 29t-33.5 19.5t-40 7q-22 0 -41 -7t-33.5 -19.5t-22.5 -29t-8 -35.5v-55zM237 351h-205q7 -32 35.5 -53t67.5 -21
q38 0 66.5 21t35.5 53zM472 351h-205q7 -32 35.5 -52.5t67.5 -20.5q38 0 66 20.5t36 52.5z" />
    <glyph glyph-name="FL201Eh" unicode="&#x201e;" horiz-adv-x="558" 
d="M293 -11q0 -20 9.5 -36.5t25.5 -29t37.5 -19.5t45.5 -7t45.5 7t37 19.5t25 29t9.5 36.5v103q0 19 -9.5 36t-25 29.5t-37 19.5t-45.5 7t-45.5 -7t-37.5 -19.5t-25.5 -29.5t-9.5 -36v-103zM30 -11q0 -20 9.5 -36.5t25.5 -29t37.5 -19.5t45.5 -7t45.5 7t37 19.5t25 29
t9.5 36.5v103q0 19 -9.5 36t-25 29.5t-37 19.5t-45.5 7t-45.5 -7t-37.5 -19.5t-25.5 -29.5t-9.5 -36v-103z" />
    <glyph glyph-name="FL2020h" unicode="&#x2020;" horiz-adv-x="438" 
d="M408 310v41h-378v-41h49v-310h280v310h49zM359 561h-280v-108h-49v-39h378v39h-49v108z" />
    <glyph glyph-name="FL2021h" unicode="&#x2021;" horiz-adv-x="438" 
d="M408 310v41h-378v-41h49v-59h-49v-143h49v-108h280v108h49v143h-49v59h49zM359 561h-280v-108h-49v-39h378v39h-49v108z" />
    <glyph glyph-name="FL2022h" unicode="&#x2022;" 
d="M756 123v228h-726v-228q0 -24 12 -46t30.5 -39t41.5 -27.5t46 -10.5h466q23 0 46 10.5t42 27.5t30.5 39t11.5 46zM619 561h-452q-28 0 -53 -12.5t-43.5 -33t-29.5 -46t-11 -51.5v-4h726v4q0 26 -11 51.5t-29.5 46t-43.5 33t-53 12.5z" />
    <glyph glyph-name="FL2026h" unicode="&#x2026;" horiz-adv-x="817" 
d="M291 92q0 -20 9.5 -36.5t25.5 -29t37.5 -19.5t45.5 -7t45.5 7t37 19.5t25 29t9.5 36.5q0 19 -9.5 36t-25 29.5t-37 19.5t-45.5 7t-45.5 -7t-37.5 -19.5t-25.5 -29.5t-9.5 -36zM30 92q0 -20 9.5 -36.5t25.5 -29t37.5 -19.5t45.5 -7t45.5 7t37 19.5t25 29t9.5 36.5
q0 19 -9.5 36t-25 29.5t-37 19.5t-45.5 7t-45.5 -7t-37.5 -19.5t-25.5 -29.5t-9.5 -36zM552 92q0 -20 9.5 -36.5t25.5 -29t37.5 -19.5t45.5 -7t45.5 7t37 19.5t25 29t9.5 36.5q0 19 -9.5 36t-25 29.5t-37 19.5t-45.5 7t-45.5 -7t-37.5 -19.5t-25.5 -29.5t-9.5 -36z" />
    <glyph glyph-name="FL2030h" unicode="&#x2030;" horiz-adv-x="1317" 
d="M839 280h-229l64 71h-644v-10q0 -12 6 -23t15.5 -19.5t21 -13.5t22.5 -5h231l-254 -280h284l188 207v-146q0 -12 6 -23t15.5 -19.5t21 -13.5t22.5 -5h233q12 0 23.5 5t20.5 13.5t15 19.5t6 23v148q0 13 -5.5 25.5t-14.5 22.5t-21.5 16.5t-26.5 6.5zM1219 280h-226
q-14 0 -26.5 -6.5t-22 -16.5t-15 -22.5t-5.5 -25.5v-148q0 -12 6 -23t15.5 -19.5t21 -13.5t22.5 -5h233q12 0 23.5 5t20.5 13.5t15 19.5t6 23v148q0 13 -5.5 25.5t-14.5 22.5t-21.5 16.5t-26.5 6.5zM191 444q0 6 5 8h31q3 0 4.5 -3t1.5 -5v-30h160v75q0 13 -5.5 25.5
t-14.5 22.5t-21.5 16.5t-26.5 6.5h-226q-14 0 -26.5 -6.5t-22 -16.5t-15 -22.5t-5.5 -25.5v-75h161v30zM865 561h-283l-134 -147h283zM1085 111v53q0 6 5 8h31q3 0 4.5 -3t1.5 -5v-53q-2 -6 -6 -6h-31q-5 0 -5 6zM705 111v53q0 6 5 8h31q3 0 4.5 -3t1.5 -5v-53q-2 -6 -6 -6
h-31q-5 0 -5 6z" />
    <glyph glyph-name="FL2039h" unicode="&#x2039;" horiz-adv-x="304" 
d="M220 279l67 67l-5 5h-193l-72 -72l169 -169l101 101zM153 414h66l-33 33z" />
    <glyph glyph-name="FL203Ah" unicode="&#x203a;" horiz-adv-x="304" 
d="M84 279l-67 -68l101 -101l169 169l-73 72h-192l-5 -5zM85 414h66l-33 33z" />
    <glyph glyph-name="FL2122h" unicode="&#x2122;" horiz-adv-x="1563" 
d="M30 0h279v157h297q39 0 67 16.5t46 44t26.5 62.5t10.5 71h-275q-2 -16 -12.5 -31.5t-27.5 -15.5h-132v47h-279v-351zM693 0h337q25 0 48.5 10t44 26t37 35.5t27.5 38.5l132 239v2h-337l-75 -136q-5 -8 -13 -19.5t-17 -22t-18.5 -18t-18.5 -7.5h-147v-148zM449 414h302
q-5 25 -16 51.5t-28.5 47.5t-42.5 34.5t-59 13.5h-575v-147h417h2zM1017 414h368h2h146v147h-351q-21 0 -44 -13.5t-43.5 -31.5t-36 -36.5t-20.5 -27.5z" />
    <glyph glyph-name="FL017Dh" horiz-adv-x="894" 
d="M867 0v148h-147q-9 0 -18.5 7.5t-18.5 18t-17 22t-13 19.5l-131 237q-5 10 -20 28t-35.5 36t-44 31.5t-44.5 13.5h-351v-147h146q9 0 19.5 -7t20.5 -17.5t17.5 -21.5t10.5 -19l132 -239q10 -19 27 -38.5t38 -35.5t44.5 -26t47.5 -10h337zM399 792h-169l127 -166h177
l126 166h-169l-46 -64z" />
    </font>
</defs>
</svg>
