<?xml version="1.0" standalone="no"?>
<!DOCTYPE svg PUBLIC "-//W3C//DTD SVG 1.1//EN" "http://www.w3.org/Graphics/SVG/1.1/DTD/svg11.dtd" >
<svg xmlns="http://www.w3.org/2000/svg" xmlns:xlink="http://www.w3.org/1999/xlink" version="1.1">
<metadata>
Created by FontForge 20170731 at Fri Dec 13 16:58:38 2013
 By Aleksey,,,
2013 Iconian Font - www.iconian.com
</metadata>
<defs>
<font id="FederalEscortBullet" horiz-adv-x="796" >
  <font-face 
    font-family="Federal Escort Bullet"
    font-weight="400"
    font-stretch="normal"
    units-per-em="1000"
    panose-1="0 0 0 0 0 0 0 0 0 0"
    ascent="800"
    descent="-200"
    x-height="572"
    cap-height="572"
    bbox="-64 -202 1571 805"
    underline-thickness="50"
    underline-position="-175"
    unicode-range="U+0020-2122"
  />
<missing-glyph horiz-adv-x="500" 
 />
    <glyph glyph-name=".notdef" horiz-adv-x="500" 
 />
    <glyph glyph-name=".null" horiz-adv-x="0" 
 />
    <glyph glyph-name="nonmarkingreturn" horiz-adv-x="500" 
 />
    <glyph glyph-name="space" unicode=" " horiz-adv-x="384" 
 />
    <glyph glyph-name="space" unicode="&#xa0;" horiz-adv-x="384" 
 />
    <glyph glyph-name="FL0021h" unicode="!" horiz-adv-x="350" 
d="M326 572v-6l22 -22v-163h-296l-22 22h-6v169h302zM46 92q0 40 31.5 68.5t78.5 33.5h-81l-22 22h-6l-23 96v50h302v-6l22 -22v-46l-25 -94h-129q32 -4 57.5 -19.5t39.5 -39.5l7 -6q27 -27 27 -62q0 -21 -10 -39.5t-27 -32t-40 -21t-48 -7.5q-29 0 -55.5 10.5t-43.5 27.5
l-6 5q-23 14 -36 35t-13 47zM292 227l23 88v36h-280v-36l22 -88h235zM57 92q0 -20 9.5 -36.5t25.5 -29t37.5 -19.5t45.5 -7t45.5 7t37 19.5t25 29t9.5 36.5q0 19 -9.5 36t-25 29.5t-37 19.5t-45.5 7t-45.5 -7t-37.5 -19.5t-25.5 -29.5t-9.5 -36zM35 561v-147h280v147h-280z
" />
    <glyph glyph-name="FL0022h" unicode="&#x22;" horiz-adv-x="514" 
d="M492 362q-1 -2 -1 -3t-1 -3l23 -22q-11 -39 -41 -64t-72 -25q-50 0 -83 33l-10 10q-10 7 -18.5 15t-14.5 19q-11 -35 -41 -56.5t-68 -21.5q-25 0 -46 9t-37 25l-8 8q-40 26 -51 76h233q-1 -2 -1 -3t-1 -3l7 -7q-2 8 -3 13h234zM30 403h-6v66q0 21 9 40t24.5 32.5t37 21.5
t45.5 8q33 0 60 -15t42 -40l7 -7q4 -4 7 -8t6 -9q8 35 39.5 57.5t73.5 22.5q33 0 60 -15t42 -40l7 -7q13 -13 20.5 -29.5t7.5 -35.5v-64h-225l-10 10v-10h-225zM272 351q7 -32 35.5 -52.5t67.5 -20.5q38 0 66 20.5t36 52.5h-205zM37 351q7 -32 35.5 -53t67.5 -21
q38 0 66.5 21t35.5 53h-205zM244 414v55q0 19 -8 35.5t-22.5 29t-33.5 19.5t-40 7q-22 0 -41 -7t-33.5 -19.5t-22.5 -29t-8 -35.5v-55h209zM479 414v56q0 19 -8 35.5t-22.5 29t-33.5 19.5t-40 7q-22 0 -41 -7t-33.5 -19.5t-22.5 -29t-8 -35.5v-56h209z" />
    <glyph glyph-name="FL0023h" unicode="#" horiz-adv-x="849" 
d="M415 262h41v15h-41v-15zM758 566l22 -22v-80h45v-6l22 -22v-55h-795l-22 22h-6v61h67v108h302v-6l22 -22v-80h41v108h302v-6zM24 262h67v15h-39l-22 22h-6v63h801v-6l22 -22v-57h-67v-15h45v-6l22 -22v-159h-67v-108h-296l-22 22h-6v86h-41v-108h-296l-22 22h-6v86h-39
l-22 22h-6v165zM382 310h85v-59h-85v59zM747 561h-280v-108h-85v108h-280v-108h-67v-39h779v39h-67v108zM102 251h-67v-143h67v-108h280v108h85v-108h280v108h67v143h-67v59h67v41h-779v-41h67v-59z" />
    <glyph glyph-name="FL0024h" unicode="$" horiz-adv-x="778" 
d="M512 642v-6l22 -22v-68h219v-6l22 -22v-137h-723l-22 22h-6q3 28 16.5 53.5t33.5 45.5t45 32t53 12h94v96h246zM638 362q28 -5 56.5 -22t45.5 -42l7 -7q29 -27 29 -61v-85q0 -26 -11.5 -52t-31.5 -48t-46.5 -35.5t-56.5 -13.5h-97v-89h-240l-22 22h-6v67h-213l-22 22h-6
v169h125q-14 6 -27.5 16t-25.5 22l-2 1q-29 20 -49.5 50.5t-20.5 60.5v25h614zM277 631v-96h-105q-26 0 -49.5 -10t-41.5 -27t-30 -38.5t-15 -45.5h706v121h-241v96h-224zM35 351v-14q0 -23 13 -45.5t32.5 -40.5t42 -29.5t42.5 -11.5h297v-12q0 -8 -5.5 -15t-15.5 -7h-406
v-147h241v-89h224v89h105q28 0 53 13t44 33.5t30 45.5t11 49v85q0 18 -9.5 34t-25 28.5t-34.5 21.5t-37 12h-602z" />
    <glyph glyph-name="FL0025h" unicode="%" horiz-adv-x="947" 
d="M895 572l-5 -5l23 -23l-149 -163h-304l-22 22h-7v-22h-176l-22 22h-4v-22h-177l-22 22h-6v86q0 15 6.5 29.5t17.5 26t25.5 19t30.5 7.5h226q21 0 38.5 -12.5t28.5 -30.5l9 -8q11 -11 18 -26t7 -30v-58l152 166h312zM699 357l23 -23l-40 -43h162q21 0 38.5 -12.5
t28.5 -30.5l9 -8q11 -11 18 -26t7 -30v-148q0 -14 -6.5 -26t-17 -22t-23.5 -15.5t-26 -5.5h-233q-14 0 -27.5 6.5t-24.5 17.5l-9 8q-17 10 -28.5 26.5t-11.5 35.5v69l-149 -163h-305l-22 22h-10l235 258h-162q-14 0 -27.5 6.5t-24.5 17.5l-9 8q-17 10 -28.5 26.5t-11.5 35.5
v21h680zM710 164q0 6 5 8h31q3 0 4.5 -3t1.5 -5v-53q-2 -6 -6 -6h-31q-5 0 -5 6v53zM587 561l-134 -147h283l134 147h-283zM196 444q0 6 5 8h31q3 0 4.5 -3t1.5 -5v-30h160v75q0 13 -5.5 25.5t-14.5 22.5t-21.5 16.5t-26.5 6.5h-226q-14 0 -26.5 -6.5t-22 -16.5t-15 -22.5
t-5.5 -25.5v-75h161v30zM615 280l64 71h-644v-10q0 -12 6 -23t15.5 -19.5t21 -13.5t22.5 -5h231l-254 -280h284l188 207v-146q0 -12 6 -23t15.5 -19.5t21 -13.5t22.5 -5h233q12 0 23.5 5t20.5 13.5t15 19.5t6 23v148q0 13 -5.5 25.5t-14.5 22.5t-21.5 16.5t-26.5 6.5h-229z
" />
    <glyph glyph-name="FL0026h" unicode="&#x26;" horiz-adv-x="856" 
d="M370 178q-16 0 -22 -5t-6 -15h2h111q4 0 6.5 6t3.5 14h-95zM31 403h-6q4 29 17 59t33.5 54.5t48.5 40t63 15.5h492v-6l22 -22v-163h-648zM98 12q-20 13 -34 31.5t-23 39.5t-13 43.5t-4 43.5q0 30 7.5 60t29.5 54q-27 30 -35 78h308q3 -1 12 -1h486v-6l22 -22v-158h-64
v-56q0 -32 -8 -60t-24 -48.5t-38.5 -32t-51.5 -11.5h-457q-37 0 -63.5 11.5t-45.5 30.5zM309 181q0 16 7.5 23t28.5 7h132v-27q0 -15 -6.5 -26t-15.5 -11h-111q-19 0 -27 10t-8 24zM668 414v147h-481q-33 0 -59 -13.5t-45 -34.5t-30.5 -47.5t-15.5 -51.5h302h6h323zM757 208
h64v142h-475q-13 0 -16 1h-290q4 -20 13 -37.5t23 -28.5q-24 -21 -32.5 -52t-8.5 -63q0 -28 7.5 -58t25.5 -55t47 -41t71 -16h457q27 0 48 11t36 30.5t22.5 46t7.5 56.5v64z" />
    <glyph glyph-name="FL0027h" unicode="'" horiz-adv-x="289" 
d="M73 289q-39 27 -51 73h245q-1 -2 -1 -3t-1 -3l23 -22q-11 -39 -43.5 -64t-74.5 -25q-26 0 -48.5 9t-39.5 26zM24 470q0 21 9.5 40t26 32.5t38.5 21.5t47 8q35 0 63.5 -15.5t43.5 -40.5l7 -7q13 -13 20.5 -29.5t7.5 -34.5v-64h-235l-22 22h-6v67zM145 278q39 0 69 20.5
t38 52.5h-215q8 -32 37 -52.5t71 -20.5zM35 414h219v56q0 19 -8.5 35.5t-23.5 29t-35 19.5t-42 7q-23 0 -43 -7t-35 -19.5t-23.5 -29t-8.5 -35.5v-56z" />
    <glyph glyph-name="FL0028h" unicode="(" horiz-adv-x="440" 
d="M416 626v-6l22 -22v-163h-76q-6 0 -9.5 -8t-3.5 -14v-32h-297l-22 22h-6v69q0 28 12 55.5t32 49.5t47.5 35.5t57.5 13.5h243zM327 356l22 -22v-230h60v-6l22 -22v-163h-241q-26 0 -52 12.5t-46 32.5l-4 4q-27 19 -45.5 47t-18.5 60v293h303v-6zM173 615q-28 0 -53 -12.5
t-44 -33t-30 -46t-11 -51.5v-58h281v24q0 8 5.5 19t15.5 11h68v147h-232zM316 351h-281v-282q0 -24 12 -46t30.5 -39t41.5 -27.5t46 -10.5h233v147h-62q-8 0 -14 6.5t-6 16.5v235z" />
    <glyph glyph-name="FL0029h" unicode=")" horiz-adv-x="440" 
d="M24 626h243q38 0 70 -20.5t52 -50.5l1 -1q22 -22 35 -50t13 -57v-66h-297l-22 22h-6v32h-61l-22 22h-6v169zM416 356l22 -22v-290q0 -25 -12.5 -48.5t-32.5 -42t-44.5 -29.5t-48.5 -11h-241l-22 22h-6v169h73q4 0 6.5 3.5t2.5 8.5v246h303v-6zM35 468h68q10 0 15.5 -11
t5.5 -19v-24h281v58q0 26 -11 51.5t-30 46t-44 33t-53 12.5h-232v-147zM405 351h-281v-235q0 -10 -6 -16.5t-14 -6.5h-62v-147h233q22 0 45.5 10.5t42 27.5t30.5 39t12 46v282z" />
    <glyph glyph-name="asterisk" unicode="*" horiz-adv-x="298" 
d="M264 466l10 -9l-2 -2l23 -23l-66 -51h-49l-14 13l-6 -13h-47l-66 52l-10 9l-19 16l19 18l-1 1l-21 21l-8 2l40 121l36 -22l-4 40h131l-1 -6l23 -22l-1 -3l18 9l3 -10l20 -19l40 -112zM160 414h42l56 43l-42 38l60 12l-34 95l-49 -24l5 50h-107l5 -50l-42 26l-32 -96
l51 -13l-39 -37l56 -44h40l15 30z" />
    <glyph glyph-name="FL002Bh" unicode="+" horiz-adv-x="405" 
d="M285 457v-6l22 -22v-48h-159l-22 22h-6v54h165zM30 197h-6v165h357v-6l22 -22v-159h-96v-97h-159l-22 22h-6v75h-68zM131 446v-32h143v32h-143zM131 208v-97h143v97h96v143h-335v-143h96z" />
    <glyph glyph-name="FL002Ch" unicode="," horiz-adv-x="305" 
d="M24 92q0 22 10.5 41t28 32.5t41 21.5t49.5 8q38 0 69.5 -16.5t46.5 -43.5l7 -6q27 -27 27 -62v-103q0 -21 -10 -39.5t-27 -32t-40 -21t-48 -7.5q-29 0 -55.5 10.5t-43.5 27.5l-6 6q-23 14 -36 34.5t-13 46.5v103zM35 -11q0 -20 9.5 -36.5t25.5 -29t37.5 -19.5t45.5 -7
t45.5 7t37 19.5t25 29t9.5 36.5v103q0 19 -9.5 36t-25 29.5t-37 19.5t-45.5 7t-45.5 -7t-37.5 -19.5t-25.5 -29.5t-9.5 -36v-103z" />
    <glyph glyph-name="FL002Dh" unicode="-" horiz-adv-x="405" 
d="M24 362h357v-6l22 -22v-159h-351l-22 22h-6v165zM35 208h335v143h-335v-143z" />
    <glyph glyph-name="FL002Eh" unicode="." horiz-adv-x="305" 
d="M24 92q0 22 10.5 41t28 32.5t41 21.5t49.5 8q38 0 69.5 -16.5t46.5 -43.5l7 -6q27 -27 27 -62q0 -21 -10 -39.5t-27 -32t-40 -21t-48 -7.5q-29 0 -55.5 10.5t-43.5 27.5l-6 5q-23 14 -36 35t-13 47zM35 92q0 -20 9.5 -36.5t25.5 -29t37.5 -19.5t45.5 -7t45.5 7t37 19.5
t25 29t9.5 36.5q0 19 -9.5 36t-25 29.5t-37 19.5t-45.5 7t-45.5 -7t-37.5 -19.5t-25.5 -29.5t-9.5 -36z" />
    <glyph glyph-name="FL002Fh" unicode="/" horiz-adv-x="837" 
d="M838 572l-4 -5l23 -23l-135 -163h-349l-22 22h-9l140 169h356zM660 357l23 -23l-304 -367h-349l-22 22h-9l309 373h356zM487 561l-122 -147h328l122 147h-328zM641 351h-328l-291 -351h328z" />
    <glyph glyph-name="FL0030h" unicode="0" horiz-adv-x="777" 
d="M605 572q36 0 67 -18.5t51 -47.5l5 -5q22 -22 34.5 -50.5t12.5 -57.5v-12h-723l-22 22h-6v15q0 28 11.5 55.5t32 49.5t47.5 35.5t57 13.5h433zM325 356l22 -22v-176h94q2 0 5.5 5t5.5 10v189h301v-6l22 -22v-236q0 -25 -12.5 -48.5t-32 -42t-44.5 -29.5t-49 -11h-447
q-26 0 -52 12.5t-46 32.5l-4 3q-27 20 -45.5 48t-18.5 60v239h301v-6zM172 561q-28 0 -53 -12.5t-43.5 -33t-29.5 -46t-11 -51.5v-4h707v4q0 26 -11 51.5t-29.5 46t-43.5 33t-53 12.5h-433zM314 351h-279v-228q0 -24 12 -46t30.5 -39t41.5 -27.5t46 -10.5h447q23 0 46 10.5
t42 27.5t30.5 39t11.5 46v228h-279v-181q-3 -6 -9.5 -14.5t-12.5 -8.5h-105q-13 0 -17 9t-5 14v181z" />
    <glyph glyph-name="FL0031h" unicode="1" horiz-adv-x="462" 
d="M30 403h-6v169h414v-6l22 -22v-163h-408zM438 356l22 -22v-367h-296l-22 22h-6v373h302v-6zM427 414v147h-392v-147h392zM427 351h-280v-351h280v351z" />
    <glyph glyph-name="FL0032h" unicode="2" horiz-adv-x="778" 
d="M31 403h-6v169h581q38 0 70.5 -19.5t52.5 -50.5l3 -2q20 -20 32 -46.5t12 -54.5v-18h-723zM349 158h405v-6l22 -22v-163h-724l-22 22h-6v266q0 20 10.5 38t27 32t37 24t41.5 13h614v-6l22 -22v-22q0 -24 -14 -48t-34.5 -43.5t-44.5 -31.5t-45 -12h-289v-19zM743 414v10
q0 26 -11 50.5t-30 44t-43.5 31t-52.5 11.5h-570v-147h707zM743 0v147h-427v63h297q19 0 42 11.5t42.5 29.5t32.5 40.5t13 45.5v14h-602q-19 -3 -38 -12t-34 -21.5t-24.5 -28.5t-9.5 -34v-255h708z" />
    <glyph glyph-name="FL0033h" unicode="3" horiz-adv-x="735" 
d="M548 572q38 0 68.5 -18.5t51.5 -47.5l6 -5q24 -24 38.5 -56t18.5 -64h-679l-22 22h-6v169h524zM389 361h6q4 0 6 1h309q-1 -2 -1 -3t-1 -3l23 -22q-6 -23 -14.5 -42t-21.5 -33q22 -23 30 -52.5t8 -61.5q0 -30 -8 -61.5t-27 -57.5t-49 -42.5t-75 -16.5h-522l-22 22h-6v169
h367q22 0 24 20h-363l-22 22h-6v161h365zM35 561v-147h355h5h302q-3 25 -14.5 51.5t-30.5 47.5t-45 34.5t-59 13.5h-513zM35 350v-139h355q21 0 28.5 -7t7.5 -23q0 -14 -8 -24t-27 -10h-356v-147h514q42 0 71 16t47 41t25.5 55t7.5 58q0 32 -8.5 63t-32.5 52
q14 11 22.5 28.5t13.5 37.5h-290q-3 -1 -16 -1h-354z" />
    <glyph glyph-name="FL0034h" unicode="4" horiz-adv-x="936" 
d="M488 235v43l-32 -43h32zM205 403h-9l85 109l1 1q4 6 13.5 16t21.5 19.5t24.5 16.5t24.5 7h423v-6l22 -22v-163h-584zM24 183l140 179h625v-6l22 -22v-99h101v-6l22 -22v-159h-123v-81h-295l-22 22h-6v59h-436l-22 22h-6v113zM475 333q3 5 5 7t7 2q3 -2 7.5 -4t4.5 -3
v-111h-104zM778 414v147h-412q-10 0 -22 -6.5t-22.5 -15.5t-19 -18t-12.5 -15l-72 -92h560zM35 81h464v-81h279v81h123v143h-123v127h-609l-134 -171v-99z" />
    <glyph glyph-name="FL0035h" unicode="5" horiz-adv-x="778" 
d="M753 566l22 -22v-163h-723l-22 22h-6v169h729v-6zM94 226q-29 20 -49.5 50.5t-20.5 60.5v25h614q28 -5 56.5 -22t45.5 -42l7 -7q29 -27 29 -61v-114q0 -26 -11.5 -52t-31.5 -48t-46.5 -35.5t-56.5 -13.5h-578l-22 22h-6v169h417q5 0 7.5 7t2.5 12h-261q-22 0 -47.5 13.5
t-46.5 34.5zM742 561h-707v-147h707v147zM743 255q0 18 -9.5 34t-25 28.5t-34.5 21.5t-37 12h-602v-14q0 -23 13 -45.5t32.5 -40.5t42 -29.5t42.5 -11.5h297v-33q0 -8 -5.5 -19t-15.5 -11h-406v-147h570q28 0 53 13t44 33.5t30 45.5t11 49v114z" />
    <glyph glyph-name="FL0036h" unicode="6" 
d="M326 170q2 0 0 2v-2zM348 158h112q2 0 5.5 5t5.5 10v5h-123v-20zM24 418q0 28 11.5 55.5t32 49.5t47.5 35.5t57 13.5h597v-6l22 -22v-163h-739l-22 22h-6v15zM91 15q-29 20 -48 48.5t-19 59.5v239h652q23 -9 44.5 -24.5t35.5 -35.5l7 -7q14 -14 22.5 -31t8.5 -36v-130
q0 -25 -12.5 -48.5t-32 -42t-44.5 -29.5t-49 -11h-466q-26 0 -51.5 13t-45.5 33zM336 147q-11 0 -14.5 8.5t-6.5 14.5v41h167v-41q-3 -6 -8.5 -14.5t-13.5 -8.5h-124zM334 414h2h422v147h-586q-28 0 -53 -12.5t-43.5 -33t-29.5 -46t-11 -51.5v-4h299zM761 253q0 16 -7.5 31
t-20 28t-28.5 23t-33 16h-637v-228q0 -23 12 -45t30.5 -39t41.5 -28t46 -11h466q23 0 46 10.5t42 27.5t30.5 39t11.5 46v130z" />
    <glyph glyph-name="FL0037h" unicode="7" horiz-adv-x="825" 
d="M801 572v-6l22 -22v-163h-771l-22 22h-6v169h777zM105 -11h-9l309 373h356l-4 -5l23 -23l-304 -367h-349zM35 561v-147h755v147h-755zM447 0l291 351h-328l-291 -351h328z" />
    <glyph glyph-name="FL0038h" unicode="8" horiz-adv-x="779" 
d="M363 178q-22 -3 -22 -20h2h97q18 3 20 20h-97zM593 572q38 0 68.5 -18.5t51.5 -47.5l6 -5q24 -24 38.5 -56t18.5 -64h-724l-22 22h-6q4 29 17 59t33.5 54.5t48.5 40t63 15.5h407zM434 361h6q4 0 6 1h309q-1 -2 -1 -3t-1 -3l23 -22q-6 -23 -14.5 -42t-21.5 -33
q22 -23 30 -52.5t8 -61.5q0 -30 -8 -61.5t-27 -57.5t-49 -42.5t-75 -16.5h-409q-37 0 -63.5 11.5t-45.5 30.5l-4 3q-20 13 -34 31.5t-23 39.5t-13 43.5t-4 43.5q0 30 7.5 60t29.5 54q-27 30 -35 78h308q3 -1 12 -1h89zM308 181q0 14 6.5 21t23.5 9h103q17 -2 23.5 -9
t6.5 -21q0 -30 -30 -34h-98q-19 0 -27 10t-8 24zM186 561q-33 0 -59 -13.5t-45 -34.5t-30.5 -47.5t-15.5 -51.5h300h2h404q-3 25 -14.5 51.5t-30.5 47.5t-45 34.5t-59 13.5h-407zM345 350q-13 0 -16 1h-290q4 -20 13 -37.5t23 -28.5q-24 -21 -32.5 -52t-8.5 -63
q0 -28 7.5 -58t25.5 -55t47 -41t71 -16h409q42 0 71 16t47 41t25.5 55t7.5 58q0 32 -8.5 63t-32.5 52q14 11 22.5 28.5t13.5 37.5h-290q-3 -1 -16 -1h-89z" />
    <glyph glyph-name="FL0039h" unicode="9" 
d="M30 403h-6v35q0 26 12.5 50t33 43t45.5 30t50 11h466q33 0 66.5 -21t53.5 -51l2 -2q18 -18 29.5 -40t11.5 -45v-32h-742zM24 362h301v-1h145v1h302v-6l22 -22v-216q0 -27 -11.5 -54t-31.5 -48.5t-46.5 -35t-55.5 -13.5h-594l-22 22h-6v169h433q4 0 8 11h-278
q-26 0 -55.5 13t-51.5 35l-5 4q-23 17 -38.5 39t-15.5 48v54zM761 438q0 22 -12 44.5t-30.5 39.5t-42 28t-45.5 11h-466q-23 0 -46 -10.5t-42 -27.5t-30.5 -39t-11.5 -46v-24h299h2h425v24zM35 308q0 -21 12.5 -40.5t32 -34t42.5 -23t43 -8.5h316v-23h2l-2 -2q0 -8 -5.5 -19
t-15.5 -11h-422v-147h586q28 0 52.5 12.5t43.5 33t30 46t11 51.5v208h-280v-1h-167v1h-279v-43z" />
    <glyph glyph-name="FL003Ah" unicode=":" horiz-adv-x="305" 
d="M133 403h-6l-2 20q7 2 10.5 2.5t6.5 0.5h19q3 0 7 -0.5t11 -2.5l-1 -5l23 -22l-2 -15h-44zM23 323q0 13 8 39h239q1 -2 2 -4.5t2 -4.5l19 -19q9 -20 9 -36q0 -21 -10 -39.5t-27 -32t-40 -21t-48 -7.5q-29 0 -55.5 10.5t-43.5 27.5l-6 5q-23 14 -36 35t-13 47zM24 92
q0 22 10.5 41t28 32.5t41 21.5t49.5 8q38 0 69.5 -16.5t46.5 -43.5l7 -6q27 -27 27 -62q0 -21 -10 -39.5t-27 -32t-40 -21t-48 -7.5q-29 0 -55.5 10.5t-43.5 27.5l-6 5q-23 14 -36 35t-13 47zM171 414q-3 1 -10 1h-9h-10q-6 0 -9 -1h38zM34 323q0 -20 9.5 -36.5t25.5 -29
t37.5 -19.5t45.5 -7t45.5 7t37 19.5t25 29t9.5 36.5q0 14 -6 28h-224q-5 -17 -5 -28zM35 92q0 -20 9.5 -36.5t25.5 -29t37.5 -19.5t45.5 -7t45.5 7t37 19.5t25 29t9.5 36.5q0 19 -9.5 36t-25 29.5t-37 19.5t-45.5 7t-45.5 -7t-37.5 -19.5t-25.5 -29.5t-9.5 -36z" />
    <glyph glyph-name="FL003Bh" unicode=";" horiz-adv-x="305" 
d="M133 403h-6l-2 20q7 2 10.5 2.5t6.5 0.5h19q3 0 7 -0.5t11 -2.5l-1 -5l23 -22l-2 -15h-44zM23 323q0 13 8 39h239q1 -2 2 -4.5t2 -4.5l19 -19q9 -20 9 -36q0 -21 -10 -39.5t-27 -32t-40 -21t-48 -7.5q-29 0 -55.5 10.5t-43.5 27.5l-6 5q-23 14 -36 35t-13 47zM24 92
q0 22 10.5 41t28 32.5t41 21.5t49.5 8q38 0 69.5 -16.5t46.5 -43.5l7 -6q27 -27 27 -62v-103q0 -21 -10 -39.5t-27 -32t-40 -21t-48 -7.5q-29 0 -55.5 10.5t-43.5 27.5l-6 6q-23 14 -36 34.5t-13 46.5v103zM171 414q-3 1 -10 1h-9h-10q-6 0 -9 -1h38zM34 323
q0 -20 9.5 -36.5t25.5 -29t37.5 -19.5t45.5 -7t45.5 7t37 19.5t25 29t9.5 36.5q0 14 -6 28h-224q-5 -17 -5 -28zM35 -11q0 -20 9.5 -36.5t25.5 -29t37.5 -19.5t45.5 -7t45.5 7t37 19.5t25 29t9.5 36.5v103q0 19 -9.5 36t-25 29.5t-37 19.5t-45.5 7t-45.5 -7t-37.5 -19.5
t-25.5 -29.5t-9.5 -36v-103z" />
    <glyph glyph-name="FL003Ch" unicode="&#x3c;" horiz-adv-x="605" 
d="M118 403h-9l140 169h356l-4 -5l23 -23l-135 -163h-349zM254 -11h-4l-242 292l67 81h356l-4 -5l23 -23l-65 -78l240 -289h-349zM460 414l122 147h-328l-122 -147h328zM583 0l-233 281l58 70h-328l-58 -70l233 -281h328z" />
    <glyph glyph-name="FL003Dh" unicode="=" horiz-adv-x="446" 
d="M24 464h398v-6l22 -22v-55h-392l-22 22h-6v61zM422 356l22 -22v-57h-392l-22 22h-6v63h398v-6zM24 262h398v-6l22 -22v-159h-392l-22 22h-6v165zM35 414h376v39h-376v-39zM411 351h-376v-41h376v41zM35 108h376v143h-376v-143z" />
    <glyph glyph-name="FL003Eh" unicode="&#x3e;" horiz-adv-x="605" 
d="M-1 572h356l19 -24l5 -4l135 -163h-349l-22 22h-4zM7 -11h-9l242 292l-67 81h356l19 -23l5 -5l64 -78l-239 -289h-349zM144 414h328l-122 147h-328zM582 281l-58 70h-328l58 -70l-233 -281h328z" />
    <glyph glyph-name="FL003Fh" unicode="?" horiz-adv-x="778" 
d="M31 403h-6v169h581q38 0 70.5 -19.5t52.5 -50.5l3 -2q20 -20 32 -46.5t12 -54.5v-18h-723zM132 255q0 20 10.5 38t27 32t37 24t41.5 13h506v-6l22 -22v-22q0 -24 -14 -47.5t-34.5 -42t-44.5 -30t-45 -11.5h-312q35 -18 51 -46l7 -6q27 -27 27 -62q0 -21 -10 -39.5
t-27 -32t-40 -21t-48 -7.5q-29 0 -55.5 10.5t-43.5 27.5l-6 5q-23 14 -36 35t-13 47q0 29 17.5 52t45.5 37h-35l-22 22h-6v52zM143 92q0 -20 9.5 -36.5t25.5 -29t37.5 -19.5t45.5 -7t45.5 7t37 19.5t25 29t9.5 36.5q0 19 -9.5 36t-25 29.5t-37 19.5t-45.5 7t-45.5 -7
t-37.5 -19.5t-25.5 -29.5t-9.5 -36zM143 214h470q19 0 42 11t42.5 28t32.5 39t13 45v14h-494q-19 -3 -38 -12t-34 -21.5t-24.5 -28.5t-9.5 -34v-41zM743 424q0 26 -11 50.5t-30 44t-43.5 31t-52.5 11.5h-570v-147h707v10z" />
    <glyph glyph-name="FL0040h" unicode="@" horiz-adv-x="1047" 
d="M636 432q19 0 38 -11l-1 -5l22 -22l-3 -13h-289l-22 22h-6l-4 18q19 11 39 11h226zM17 403h-6v69q0 28 12 55.5t32 49.5t47.5 35.5t57.5 13.5h727q38 0 70 -20.5t52 -50.5l1 -1q22 -22 35 -50t13 -57v-66h-297l-22 22h-6v32h-384q-6 0 -9.5 -8t-3.5 -14v-32h-297z
M715 356l18 -18v24h303v-6l22 -22v-95q0 -25 -12.5 -48.5t-32.5 -42t-44.5 -29.5t-48.5 -11h-489q-14 0 -27.5 6.5t-24.5 17.5l-9 8q-23 13 -34 36v-72h379v-6l22 -22v-163h-560q-26 0 -52 12.5t-46 32.5l-4 4q-27 19 -45.5 47t-18.5 60v293h303v-6l16 -16v22h385v-6z
M410 421q-15 0 -28 -7h281q-13 7 -27 7h-226zM502 305q0 6 5 8h31q3 0 4.5 -3t1.5 -5v-53q-2 -6 -6 -6h-31q-5 0 -5 6v53zM704 351h-363v-1v-148q0 -12 6 -23t15.5 -19.5t21 -13.5t22.5 -5h489q22 0 45.5 10.5t42 27.5t30.5 39t12 46v87h-281v-41q0 -10 -6 -16.5t-14 -6.5
h-20v63v1zM1025 414v58q0 26 -11 51.5t-30 46t-44 33t-53 12.5h-727q-28 0 -53 -12.5t-44 -33t-30 -46t-11 -51.5v-58h281v24q0 8 5.5 19t15.5 11h399q10 0 15.5 -11t5.5 -19v-24h281zM303 351h-281v-282q0 -24 12 -46t30.5 -39t41.5 -27.5t46 -10.5h552v147h-381
q-8 0 -14 6.5t-6 16.5v235z" />
    <glyph glyph-name="FL0041h" unicode="A" 
d="M30 403h-6v34q0 26 13 50.5t33 43t45.5 30t49.5 11.5h466q33 0 66 -20.5t53 -50.5l2 -2q19 -19 30.5 -41.5t11.5 -45.5v-31h-742zM772 356l22 -22v-367h-296l-22 22h-6v136h-123v-158h-295l-22 22h-6v373h301v-6l22 -22v-22h123v50h302v-6zM761 437q0 22 -11.5 44.5
t-30.5 40t-42 28.5t-46 11h-466q-23 0 -46 -10.5t-41.5 -28t-30.5 -39.5t-12 -46v-23h299h2h425v23zM761 351h-280v-50h-167v50h-279v-351h279v158h167v-158h280v351z" />
    <glyph glyph-name="FL0042h" unicode="B" 
d="M347 158h105q22 0 24 20h-129v-20zM30 403h-6v169h585q38 0 68.5 -18.5t51.5 -47.5l6 -5q24 -24 38.5 -56t18.5 -64h-740zM325 361h125h6q4 0 6 1h309q-1 -2 -1 -3t-1 -3l23 -22q-6 -23 -14.5 -42t-21.5 -33q22 -23 30 -52.5t8 -61.5q0 -30 -8 -61.5t-27 -57.5t-49 -42.5
t-75 -16.5h-583l-22 22h-6v373h301v-1zM451 211q21 0 28.5 -7t7.5 -23q0 -14 -8 -24t-27 -10h-138v64h137zM758 414q-3 25 -14.5 51.5t-30.5 47.5t-45 34.5t-59 13.5h-574v-147h416h5h302zM314 351h-279v-351h575q42 0 71 16t47 41t25.5 55t7.5 58q0 32 -8.5 63t-32.5 52
q14 11 22.5 28.5t13.5 37.5h-290q-3 -1 -16 -1h-136v1z" />
    <glyph glyph-name="FL0043h" unicode="C" horiz-adv-x="713" 
d="M689 572v-6l22 -22v-163h-659l-22 22h-6v15q0 28 11.5 55.5t32 49.5t47.5 35.5t57 13.5h517zM326 356l22 -22v-176h335v-6l22 -22v-163h-515q-26 0 -52 12.5t-46 32.5l-4 3q-27 20 -45.5 48t-18.5 60v239h302v-6zM172 561q-28 0 -53 -12.5t-43.5 -33t-29.5 -46t-11 -51.5
v-4h299h2h342v147h-506zM315 351h-280v-228q0 -24 12 -46t30.5 -39t41.5 -27.5t46 -10.5h507v147h-336q-8 0 -14 6.5t-7 16.5v181z" />
    <glyph glyph-name="FL0044h" unicode="D" horiz-adv-x="789" 
d="M30 403h-6v169h620q24 0 48 -17t41 -41l5 -4q22 -22 35.5 -50.5t13.5 -53.5v-25h-735zM348 161h70q16 0 25.5 8t13.5 20t5 27t1 29v68q0 9 -1 21t-4 28h307v-6l22 -22v-249q0 -19 -9 -40t-24 -38t-34 -28.5t-38 -11.5h-630l-22 22h-6v373h302v-6l22 -22v-173zM754 414v17
q0 20 -9.5 43t-25 42.5t-35.5 32t-40 12.5h-609v-147h719zM657 0q18 0 35 10.5t31 26.5t22.5 35.5t8.5 37.5v241h-283q3 -20 3 -38v-68q0 -15 -1 -32t-6.5 -31t-16.5 -23t-32 -9h-103v201h-280v-351h622z" />
    <glyph glyph-name="FL0045h" unicode="E" horiz-adv-x="713" 
d="M689 572v-6l22 -22v-163h-659l-22 22h-6v15q0 28 11.5 55.5t32 49.5t47.5 35.5t57 13.5h517zM689 362v-6l22 -22v-159h-350l-22 22l21 -22q-1 -1 -5 -6.5t-7 -10.5h341v-6l22 -22v-163h-521q-26 0 -52 12.5t-46 32.5l-4 3q-27 20 -45.5 48t-18.5 60v239h665zM172 561
q-28 0 -53 -12.5t-43.5 -33t-29.5 -46t-11 -51.5v-4h643v147h-506zM35 351v-228q0 -24 12 -46t30.5 -39t41.5 -27.5t46 -10.5h513v147h-342q-2 0 -10 8.5t-11 14.5q0 1 -0.5 3t-0.5 4t0.5 4t0.5 3q3 6 11 15t10 9h342v143h-643z" />
    <glyph glyph-name="FL0046h" unicode="F" horiz-adv-x="713" 
d="M689 572v-6l22 -22v-163h-659l-22 22h-6v15q0 28 11.5 55.5t32 49.5t47.5 35.5t57 13.5h517zM689 362v-6l22 -22v-159h-350l-22 22l21 -22q-1 -1 -5.5 -7t-6.5 -11v-190h-296l-22 22h-6v373h665zM172 561q-28 0 -53 -12.5t-43.5 -33t-29.5 -46t-11 -51.5v-4h643v147h-506
zM35 351v-351h280v184q3 6 11 15t10 9h342v143h-643z" />
    <glyph glyph-name="FL00B9h" unicode="G" 
d="M689 572v-6l22 -22v-163h-659l-22 22h-6v15q0 28 11.5 55.5t32 49.5t47.5 35.5t57 13.5h517zM326 356l22 -22v-176h112q2 0 5.5 4.5t5.5 9.5v190h301v-6l22 -22v-236q0 -25 -12.5 -48.5t-32 -42t-44.5 -29.5t-49 -11h-466q-26 0 -51.5 13t-45.5 33l-2 2q-29 20 -48 48.5
t-19 59.5v239h302v-6zM172 561q-28 0 -53 -12.5t-43.5 -33t-29.5 -46t-11 -51.5v-4h299h2h342v147h-506zM315 351h-280v-228q0 -23 12 -45t30.5 -39t41.5 -28t46 -11h466q23 0 46 10.5t42 27.5t30.5 39t11.5 46v228h-279v-182q-3 -6 -8.5 -14t-13.5 -8h-124q-11 0 -14.5 8.5
t-6.5 14.5v181z" />
    <glyph glyph-name="FL0048h" unicode="H" horiz-adv-x="766" 
d="M30 403h-6v169h302v-6l22 -22v-163h-296zM439 572h303v-6l22 -22v-163h-297l-22 22h-6v169zM742 356l22 -22v-367h-297l-22 22h-6v186h-91v-208h-296l-22 22h-6v373h718v-6zM315 414v147h-280v-147h280zM450 414h281v147h-281v-147zM731 351h-696v-351h280v208h135v-208
h281v351z" />
    <glyph glyph-name="FL0049h" unicode="I" horiz-adv-x="734" 
d="M710 566l22 -22v-163h-679l-22 22h-6v169h685v-6zM24 158h191v204h302v-6l22 -22v-176h170v-6l22 -22v-163h-679l-22 22h-6v169zM699 561h-663v-147h663v147zM35 0h663v147h-192v204h-280v-204h-191v-147z" />
    <glyph glyph-name="FL004Ah" unicode="J" 
d="M772 572v-6l22 -22v-163h-295l-22 22h-6v169h301zM326 278l22 -22v-98h112q2 0 5.5 5t5.5 10v189h301v-6l22 -22v-236q0 -25 -12.5 -48.5t-32 -42t-44.5 -29.5t-49 -11h-466q-26 0 -51.5 13t-45.5 33l-2 2q-29 20 -48 48.5t-19 59.5v161h302v-6zM482 561v-147h279v147
h-279zM315 273h-280v-150q0 -23 12 -45t30.5 -39t41.5 -28t46 -11h466q23 0 46 10.5t42 27.5t30.5 39t11.5 46v228h-279v-181q-3 -6 -8.5 -14.5t-13.5 -8.5h-124q-11 0 -14.5 8.5t-6.5 14.5v103z" />
    <glyph glyph-name="FL004Bh" unicode="K" horiz-adv-x="761" 
d="M380 55q6 -6 10 -9zM30 403h-6v169h302v-6l22 -22v-88q7 10 18 21v2q3 5 15 19t31 29t44.5 28t56.5 17h224v-6l22 -22v-163h-408l-3 3v-3h-296zM519 -33q-29 0 -57.5 18t-51.5 41q-18 14 -34 30.5t-28 30.5v-120h-296l-22 22h-6v373h538q-2 -2 -2.5 -3t-1.5 -2l23 -23
q-29 -38 -29 -58q0 -32 19 -62q24 -25 54 -40t57 -15h55v-6l22 -22v-164h-240zM315 414v147h-280v-147h280zM726 414v147h-212q-29 -3 -53 -15t-41.5 -26t-28.5 -27t-14 -18v-2q-14 -13 -23 -28t-16 -31h388zM353 97q12 -14 28 -31t34.5 -31.5t38.5 -24.5t40 -10h232v148
h-44q-25 0 -53.5 13t-53 34.5t-40.5 49t-16 56.5q0 23 21 50h-505v-351h280v164z" />
    <glyph glyph-name="FL004Ch" unicode="L" horiz-adv-x="713" 
d="M30 403h-6v169h302v-6l22 -22v-163h-296zM24 362h302v-6l22 -22v-176h5h336v-6l22 -22v-163h-536q-47 0 -80 33l-6 6q-31 19 -48 55t-17 81v220zM315 414v147h-280v-147h280zM35 142q0 -30 8 -55.5t23 -45t36.5 -30.5t47.5 -11h528v147h-325q-21 2 -29.5 9.5t-8.5 27.5
v167h-280v-209z" />
    <glyph glyph-name="FL004Dh" unicode="M" horiz-adv-x="1119" 
d="M324 356l22 -22v-367h-295l-22 22h-6v373h301v-6zM798 -11h-6v373h302v-6l22 -22v-367h-296zM709 356l22 -22v-367h-297l-22 22h-6v373h303v-6zM29 403h-6v35q0 26 12.5 50t33 43t45.5 30t50 11h789q33 0 66.5 -21t53.5 -51l2 -2q18 -18 29.5 -40t11.5 -45v-32h-1065z
M313 351h-279v-351h279v351zM1083 0v351h-280v-351h280zM698 351h-281v-351h281v351zM1083 438q0 22 -12 44.5t-30.5 39.5t-42 28t-45.5 11h-789q-23 0 -46 -10.5t-42 -27.5t-30.5 -39t-11.5 -46v-24h299h2h62h2h318h2h364v24z" />
    <glyph glyph-name="FL004Eh" unicode="N" horiz-adv-x="929" 
d="M605 572h300v-6l22 -22v-163h-294l-22 22h-6v169zM30 403h-6v169h355q16 0 34 -9.5t35.5 -23.5t33 -30.5t26.5 -30.5q10 -11 17.5 -21t12.5 -18l34 -58h-520zM905 356l22 -22v-367h-330q-28 0 -52 13t-44 32q-26 17 -46 40t-35 45l-72 110v-240h-296l-22 22h-6v373h554
l7 -12l16 -16l4 -7v35h300v-6zM616 414h278v147h-278v-147zM533 414l-27 46q-8 13 -22.5 30.5t-32.5 33t-37 26.5t-35 11h-344v-147h498zM894 351h-278v-76l-45 76h-536v-351h280v279l115 -175q12 -17 27 -35.5t33 -33.5t38.5 -25t43.5 -10h322v351z" />
    <glyph glyph-name="FL004Fh" unicode="O" 
d="M624 572q36 0 67 -18.5t51 -47.5l5 -5q22 -22 34.5 -50.5t12.5 -57.5v-12h-742l-22 22h-6v15q0 28 11.5 55.5t32 49.5t47.5 35.5t57 13.5h452zM325 356l22 -22v-176h113q2 0 5.5 5t5.5 10v189h301v-6l22 -22v-236q0 -25 -12.5 -48.5t-32 -42t-44.5 -29.5t-49 -11h-466
q-26 0 -52 12.5t-46 32.5l-4 3q-27 20 -45.5 48t-18.5 60v239h301v-6zM172 561q-28 0 -53 -12.5t-43.5 -33t-29.5 -46t-11 -51.5v-4h726v4q0 26 -11 51.5t-29.5 46t-43.5 33t-53 12.5h-452zM314 351h-279v-228q0 -24 12 -46t30.5 -39t41.5 -27.5t46 -10.5h466q23 0 46 10.5
t42 27.5t30.5 39t11.5 46v228h-279v-181q-3 -6 -9.5 -14.5t-12.5 -8.5h-124q-13 0 -17 9t-5 14v181z" />
    <glyph glyph-name="FL0050h" unicode="P" 
d="M30 403h-6v169h586q39 0 67.5 -18t48.5 -45l2 -3q0 1 -1 1v0l4 -3q24 -25 38.5 -58t21.5 -65h-739zM347 315h99q12 0 20 15.5t10 31.5h296q0 -2 -0.5 -3t-0.5 -3l23 -22q-2 -39 -11.5 -77t-28 -67.5t-47.5 -47.5t-71 -18h-289v-157h-295l-22 22h-6v373h301v-6l22 -22v-19
zM756 414q-5 25 -16 51.5t-28.5 47.5t-42.5 34.5t-59 13.5h-575v-147h417h2h302zM314 0v157h297q40 0 67.5 16.5t45.5 44t26.5 62.5t10.5 71h-275q-2 -16 -12.5 -31.5t-27.5 -15.5h-132v47h-279v-351h279z" />
    <glyph glyph-name="FL0051h" unicode="Q" horiz-adv-x="798" 
d="M32 403h-6v15q0 28 11.5 55.5t32 49.5t47.5 35.5t57 13.5h452q36 0 67 -19.5t52 -48.5l4 -4q22 -22 34.5 -50t12.5 -57v-12h-742zM95 11v1l-5 5q-28 19 -46 47.5t-18 58.5v239h301v-6l22 -22v-176h113q3 0 5 3.5t4 8.5q-2 0 1 3v189h302v-6l22 -22v-236
q0 -25 -12.5 -48.5t-32.5 -42t-44.5 -29.5t-48.5 -11h-91l-20 -36q-11 -20 -29 -40t-39.5 -36.5t-46 -26.5t-49.5 -10h-398l-22 22h-6v171h138zM763 414v4q0 26 -11 51.5t-30 46t-43.5 33t-52.5 12.5h-452q-28 0 -53 -12.5t-43.5 -33t-29.5 -46t-11 -51.5v-4h299h2h425z
M-32 0v-149h390q24 0 47 10t44 25.5t38 35t28 38.5l22 40h96q22 0 45.5 10.5t42 27.5t30.5 39t12 46v228h-280v-181q-3 -6 -6.5 -14.5t-14.5 -8.5h-127q-2 0 -9 8.5t-10 14.5v181h-279v-228q0 -23 11.5 -44.5t29.5 -38.5t40 -28t44 -12h-194z" />
    <glyph glyph-name="FL0052h" unicode="R" horiz-adv-x="819" 
d="M24 572h596q43 0 72 -16t46 -41l8 -8q24 -24 34.5 -57.5t13.5 -68.5h-742l-22 22h-6v169zM347 315h99q12 0 19.5 15.5t10.5 31.5h294q0 -4 -1 -6l23 -22q-3 -24 -10 -48t-17.5 -43t-26 -32t-35.5 -14q-1 -2 -1 -5q0 -2 -1 -2l-3 3l172 -226h-366l-22 22h-4l-95 127h-1v1
q-7 3 -13 5t-12 2h-2q-6 -2 -7 -1l-1 1v-157h-295l-22 22h-6v373h301v-6l22 -22v-19zM452 414h3h305q-2 26 -9.5 52.5t-23.5 47.5t-42 34t-65 13h-585v-147h417zM314 0v150q0 1 5 3t11 4h2q17 0 32.5 -10t26.5 -24l92 -123h346l-159 209q-1 1 -1 8q0 8 5 13q19 0 33.5 10.5
t25 28t16.5 39t9 43.5h-272q-3 -16 -13 -31.5t-27 -15.5h-132v47h-279v-351h279z" />
    <glyph glyph-name="FL005Ah" unicode="S" horiz-adv-x="778" 
d="M30 403h-6v21q0 28 11.5 54.5t32 47.5t47.5 33.5t57 12.5h581v-6l22 -22v-163h-723zM94 226q-29 20 -49.5 50.5t-20.5 60.5v25h614q28 -5 56.5 -22t45.5 -42l7 -7q29 -27 29 -61v-114q0 -26 -11.5 -52t-31.5 -48t-46.5 -35.5t-56.5 -13.5h-578l-22 22h-6v169h417
q5 0 7.5 7t2.5 12h-261q-22 0 -47.5 13.5t-46.5 34.5zM742 414v147h-570q-28 0 -53 -11.5t-43.5 -31t-29.5 -44t-11 -50.5v-10h299h2h406zM743 255q0 18 -9.5 34t-25 28.5t-34.5 21.5t-37 12h-602v-14q0 -23 13 -45.5t32.5 -40.5t42 -29.5t42.5 -11.5h297v-33q0 -8 -5.5 -19
t-15.5 -11h-406v-147h570q28 0 53 13t44 33.5t30 45.5t11 49v114z" />
    <glyph glyph-name="FL0055h" unicode="T" horiz-adv-x="759" 
d="M529 356l22 -22v-367h-296l-22 22h-6v373h302v-6zM24 572h711v-6l22 -22v-163h-705l-22 22h-6v169zM518 351h-280v-351h280v351zM35 414h689v147h-689v-147z" />
    <glyph glyph-name="FL0056h" unicode="U" 
d="M772 572v-6l22 -22v-163h-295l-22 22h-6v169h301zM326 572v-6l22 -22v-163h-296l-22 22h-6v169h302zM326 356l22 -22v-176h123v204h301v-6l22 -22v-367h-604q-26 0 -51.5 13t-45.5 33l-2 2q-29 20 -48 48.5t-19 59.5v239h302v-6zM482 561v-147h279v147h-279zM35 561v-147
h280v147h-280zM315 351h-280v-228q0 -23 12 -45t30.5 -39t41.5 -28t46 -11h596v351h-279v-204h-146q-11 0 -14.5 8.5t-6.5 14.5v181z" />
    <glyph glyph-name="FL0057h" unicode="V" horiz-adv-x="934" 
d="M325 571v-6l22 -22v-162h-295l-22 22h-6v168h301zM934 572l-4 -5l23 -23l-125 -163h-344l-22 22h-9l126 169h355zM769 357l23 -23l-238 -310q-5 -6 -14 -15.5t-20 -19t-23.5 -16.5t-24.5 -7h-420l-22 22h-6v374h301v-6l22 -22v-77l77 105h349zM35 560v-146h279v146h-279z
M584 561l-109 -147h324l113 147h-328zM751 351h-322l-89 -121q-4 -5 -6.5 -8.5t-7.5 -3.5q-3 2 -7.5 4t-4.5 3v126h-279v-352h412q10 0 22 6.5t22.5 15.5t19 18.5t12.5 14.5z" />
    <glyph glyph-name="FL0059h" unicode="W" horiz-adv-x="1119" 
d="M669 24q1 -2 2 -2.5t2 -1.5zM678 15q4 -4 6 -5zM659 35q-1 0 -2 1l12 -12zM572 572l22 -26l2 -2l138 -163h-302l-22 22h-9l140 169h31zM1094 572v-6l22 -22v-163h-296l-22 22h-6v169h302zM325 572v-6l22 -22v-163h-296l-22 22h-6v169h302zM748 -33q-11 0 -25.5 10
t-31.5 25q-14 10 -29.5 24.5t-30.5 31.5t-29 34.5l-26 32.5q-12 -17 -33.5 -44t-45.5 -52.5t-47 -43.5t-38 -18h-361l-22 22h-6v373h302v-6l19 -21l22 27h383l21 -26l3 -2l19 -23v51h302v-6l22 -22v-367h-368zM546 561l-122 -147h268l-124 147h-22zM34 561v-147h280v147
h-280zM803 561v-147h280v147h-280zM387 0q17 0 44.5 24.5t54 55.5t47 58.5t23.5 33.5h3q0 -2 1 -3q6 -9 26.5 -36.5t46 -57t50.5 -52.5t40 -23h360v351h-280v-69l-58 69h-374l-57 -69v69h-280v-351h353z" />
    <glyph glyph-name="FL0058h" unicode="X" horiz-adv-x="761" 
d="M383 53l3 -3zM380 56l3 -3l-2 3h-1zM395 41l-9 9zM395 41l-9 9zM737 572v-6l22 -22v-163h-707l-22 22h-6v169h244q21 0 38 -6.5t31 -16.5t25.5 -22t20.5 -24q5 -5 8.5 -10t7.5 -10q6 10 16 22.5t24 25.5t32 24t40 17h226zM519 -33q-27 0 -52 15.5t-48 35.5
q-14 10 -26.5 21.5t-23.5 23.5q-18 -25 -36 -41t-35 -27q-26 -18 -54 -23t-58 -5h-134l-22 22h-6v171h100q8 0 25 10.5t35 27t34 36.5t22 38q0 1 -2 3q1 0 -2 3q-6 9 -14.5 20.5t-17.5 23t-17 22t-14 18.5h385q-2 -2 -2.5 -3t-1.5 -2l23 -23q-25 -34 -25 -49
q0 -17 7.5 -35.5t20.5 -36.5q23 -23 50.5 -38.5t51.5 -15.5h55v-6l22 -22v-164h-240zM514 561q-27 -7 -48 -23.5t-35.5 -33t-22 -29t-8.5 -12.5q-9 10 -20.5 26.5t-27 32.5t-36.5 27.5t-48 11.5h-233v-147h691v147h-212zM161 0q29 0 56.5 5t51.5 22q19 13 38.5 31.5
t38.5 47.5q2 -2 3.5 -4t3.5 -5q12 -14 28 -31t34.5 -31.5t38.5 -24.5t40 -10h232v148h-44q-25 0 -53.5 16t-53 40.5t-40.5 53t-16 52.5q0 18 17 41h-340q16 -19 29.5 -38t27.5 -39q-5 -20 -22 -41.5t-38 -40.5t-40.5 -31t-28.5 -12h-89v-149h126z" />
    <glyph glyph-name="FL007Ch" unicode="Y" horiz-adv-x="783" 
d="M30 403h-6v169h302v-6l22 -22v-163h-296zM456 572h303v-6l22 -22v-163h-297l-22 22h-6v169zM759 356l22 -22v-215q0 -32 -8.5 -60t-24.5 -48.5t-38.5 -32t-50.5 -11.5h-602l-22 22h-6v169h402q21 1 24 16h-265q-26 0 -51.5 13t-45.5 33l-2 2q-29 20 -48 48.5t-19 59.5v32
h311l1 -1h110l1 1h312v-6zM315 414v147h-280v-147h280zM467 414h281v147h-281v-147zM748 351h-296q-1 -1 -4 -1h-112q-5 0 -6 1h-295v-21q0 -23 12 -45t30.5 -39t41.5 -28t46 -11h302v-23q0 -20 -8 -27.5t-28 -9.5h-391v-147h594q26 0 47 11t36 30.5t23 46t8 56.5v207z" />
    <glyph glyph-name="FL007Bh" unicode="Z" horiz-adv-x="942" 
d="M30 403h-6v169h367q19 0 39 -9t39 -22.5t35 -30t28 -32.5q11 -13 20.5 -24.5t14.5 -22.5l28 -50h-543zM918 159v-6l22 -22v-164h-372q-32 0 -63 16.5t-57 39.5q-23 17 -42 38.5t-30 43.5l-132 238l-5 10l3 -2q-1 2 -0.5 5t0.5 6h356l6 -12l17 -16l74 -133q3 -11 16 -30
q14 -12 22 -12h185zM556 414l-21 38q-8 15 -23.5 34t-35.5 35.5t-42 28t-43 11.5h-356v-147h151h2h368zM733 148q-9 0 -19.5 8.5t-20.5 20t-17.5 23.5t-10.5 19l-74 132h-338q0 -2 1 -2l132 -239q10 -20 27 -39.5t38 -35.5t44.5 -25.5t47.5 -9.5h364v148h-174z" />
    <glyph glyph-name="FL005Bh" unicode="[" horiz-adv-x="440" 
d="M416 626v-6l22 -22v-163h-89v-54h-297l-22 22h-6v223h392zM409 98l22 -22v-163h-379l-22 22h-6v427h303v-6l22 -22v-230h60v-6zM35 615v-201h281v54h89v147h-370zM398 93h-82v258h-281v-405h363v147z" />
    <glyph glyph-name="FL005Ch" unicode="\" horiz-adv-x="837" 
d="M-2 572h356l19 -24l5 -4l135 -163h-349l-22 22h-4zM485 -11h-4l-309 373h356l19 -24l5 -4l304 -367h-349zM143 414h328l-122 147h-328zM814 0l-291 351h-328l291 -351h328z" />
    <glyph glyph-name="FL005Dh" unicode="]" horiz-adv-x="440" 
d="M24 626h392v-6l22 -22v-217h-297l-22 22h-6v32h-61l-22 22h-6v169zM416 356l22 -22v-421h-379l-22 22h-6v169h82v258h303v-6zM35 468h89v-54h281v201h-370v-147zM405 351h-281v-258h-82v-147h363v405z" />
    <glyph glyph-name="FL005Eh" unicode="^" horiz-adv-x="935" 
d="M540 501l6 -5q2 -2 2.5 -3l1.5 -3h1l84 -109h-583l-22 22h-6v169h424q19 0 37.5 -15.5t32.5 -29.5v1q2 -2 4.5 -5t3.5 -4l2 -2zM647 362l13 -18l11 -10l283 -368h-349l-22 22h-4l-232 316v-337h-295l-22 22h-6v373h623zM523 506q-5 5 -13.5 14.5t-18.5 18.5t-21 15.5
t-22 6.5h-413v-147h559zM35 351v-351h279v335q0 1 5 3t8 4q5 0 7 -2t5 -7l245 -334h329l-271 352h-607z" />
    <glyph glyph-name="FL005Fh" unicode="_" horiz-adv-x="599" 
d="M575 158v-6l22 -22v-163h-545l-22 22h-6v169h551zM35 147v-147h529v147h-529z" />
    <glyph glyph-name="FL0061h" unicode="`" horiz-adv-x="1471" 
d="M864 403h-9l84 110l1 1q4 6 13.5 16t21.5 19.5t24.5 16.5t24.5 7h423v-6l22 -22v-164h-583zM735 566l22 -22v-163h-705l-22 22h-6v169h711v-6zM529 356l22 -22v-327l272 355h624v-6l22 -22v-366h-295l-22 22h-6v290l-230 -313h-348l-17 17v-17h-296l-22 22h-6v373h302v-6
zM1436 414v148h-412q-10 0 -22 -6.5t-22.5 -15.5t-19 -18t-12.5 -15l-71 -93h559zM518 351h-280v-351h280v351zM724 561h-689v-147h689v147zM887 0l246 334q3 5 5 7t7 2q3 -2 7.5 -4t4.5 -3v-335h279v350h-608l-269 -351h328z" />
    <glyph glyph-name="a" unicode="a" horiz-adv-x="934" 
d="M327 403h-9l84 109l1 1q4 6 13.5 16t21.5 19.5t24.5 16.5t24.5 7h423v-6l22 -22v-163h-583zM9 -12h-9l287 374h623v-6l22 -22v-367h-295l-22 22h-6v290l-230 -313h-348zM899 414v147h-412q-10 0 -22 -6.5t-22.5 -15.5t-19 -18t-12.5 -15l-71 -92h559zM350 -1l246 334
q3 5 5 7t7 2q3 -2 7.5 -4t4.5 -3v-335h279v351h-607l-270 -352h328z" />
    <glyph glyph-name="FL0062h" unicode="b" 
d="M347 158h105q22 0 24 20h-129v-20zM30 403h-6v169h585q38 0 68.5 -18.5t51.5 -47.5l6 -5q24 -24 38.5 -56t18.5 -64h-740zM325 361h125h6q4 0 6 1h309q-1 -2 -1 -3t-1 -3l23 -22q-6 -23 -14.5 -42t-21.5 -33q22 -23 30 -52.5t8 -61.5q0 -30 -8 -61.5t-27 -57.5t-49 -42.5
t-75 -16.5h-583l-22 22h-6v373h301v-1zM451 211q21 0 28.5 -7t7.5 -23q0 -14 -8 -24t-27 -10h-138v64h137zM758 414q-3 25 -14.5 51.5t-30.5 47.5t-45 34.5t-59 13.5h-574v-147h416h5h302zM314 351h-279v-351h575q42 0 71 16t47 41t25.5 55t7.5 58q0 32 -8.5 63t-32.5 52
q14 11 22.5 28.5t13.5 37.5h-290q-3 -1 -16 -1h-136v1z" />
    <glyph glyph-name="FL0063h" unicode="c" horiz-adv-x="713" 
d="M689 572v-6l22 -22v-163h-659l-22 22h-6v15q0 28 11.5 55.5t32 49.5t47.5 35.5t57 13.5h517zM348 158h335v-6l22 -22v-163h-515q-26 0 -52 12.5t-46 32.5l-4 3q-27 20 -45.5 48t-18.5 60v239h302v-6l22 -22v-176zM172 561q-28 0 -53 -12.5t-43.5 -33t-29.5 -46t-11 -51.5
v-4h299h2h342v147h-506zM672 0v147h-336q-8 0 -14 6.5t-7 16.5v181h-280v-228q0 -24 12 -46t30.5 -39t41.5 -27.5t46 -10.5h507z" />
    <glyph glyph-name="d" unicode="d" horiz-adv-x="789" 
d="M30 403h-6v169h620q24 0 48 -17t41 -41l5 -4q22 -22 35.5 -50.5t13.5 -53.5v-25h-735zM348 161h70q16 0 25.5 8t13.5 20t5 27t1 29v68q0 9 -1 21t-4 28h307v-6l22 -22v-249q0 -19 -9 -40t-24 -38t-34 -28.5t-38 -11.5h-630l-22 22h-6v373h302v-6l22 -22v-173zM754 414v17
q0 20 -9.5 43t-25 42.5t-35.5 32t-40 12.5h-609v-147h719zM657 0q18 0 35 10.5t31 26.5t22.5 35.5t8.5 37.5v241h-283q3 -20 3 -38v-68q0 -15 -1 -32t-6.5 -31t-16.5 -23t-32 -9h-103v201h-280v-351h622z" />
    <glyph glyph-name="E" unicode="e" horiz-adv-x="713" 
d="M689 572v-6l22 -22v-163h-659l-22 22h-6v15q0 28 11.5 55.5t32 49.5t47.5 35.5t57 13.5h517zM361 175q-1 0 -5.5 -6t-7.5 -11h341v-6l22 -22v-163h-521q-26 0 -52 12.5t-46 32.5l-4 3q-27 20 -45.5 48t-18.5 60v239h665v-6l22 -22v-159h-350zM172 561q-28 0 -53 -12.5
t-43.5 -33t-29.5 -46t-11 -51.5v-4h643v147h-506zM678 0v147h-342q-2 0 -10 8.5t-11 14.5q0 1 -0.5 3t-0.5 4t0.5 4t0.5 3q3 6 11 15t10 9h342v143h-643v-228q0 -24 12 -46t30.5 -39t41.5 -27.5t46 -10.5h513z" />
    <glyph glyph-name="FL0066h" unicode="f" horiz-adv-x="713" 
d="M689 572v-6l22 -22v-163h-659l-22 22h-6v15q0 28 11.5 55.5t32 49.5t47.5 35.5t57 13.5h517zM30 -11h-6v373h665v-6l22 -22v-159h-351q-1 -1 -5.5 -7t-6.5 -11v-190h-296zM172 561q-28 0 -53 -12.5t-43.5 -33t-29.5 -46t-11 -51.5v-4h299h2h342v147h-506zM315 184
q3 6 11 15t10 9h342v143h-335h-3h-305v-351h280v184z" />
    <glyph glyph-name="FL0067h" unicode="g" 
d="M24 418q0 28 11.5 55.5t32 49.5t47.5 35.5t57 13.5h597v-6l22 -22v-163h-739l-22 22h-6v15zM366 200h-6v162h316q23 -9 44.5 -24.5t35.5 -35.5l7 -7q14 -14 22.5 -31t8.5 -36v-130q0 -25 -12.5 -48.5t-32 -42t-44.5 -29.5t-49 -11h-466q-26 0 -51.5 13t-45.5 33l-2 2
q-29 20 -48 48.5t-19 59.5v239h302v-6l22 -22v-176h112q2 0 5.5 5t5.5 10v5h-83zM334 414h2h422v147h-586q-28 0 -53 -12.5t-43.5 -33t-29.5 -46t-11 -51.5v-4h299zM761 253q0 16 -7.5 31t-20 28t-28.5 23t-33 16h-301v-140h111v-41q-3 -6 -8.5 -14.5t-13.5 -8.5h-124
q-11 0 -14.5 8.5t-6.5 14.5v181h-280v-228q0 -23 12 -45t30.5 -39t41.5 -28t46 -11h466q23 0 46 10.5t42 27.5t30.5 39t11.5 46v130z" />
    <glyph glyph-name="FL0068h" unicode="h" horiz-adv-x="766" 
d="M30 403h-6v169h302v-6l22 -22v-163h-296zM439 572h303v-6l22 -22v-163h-297l-22 22h-6v169zM742 356l22 -22v-367h-297l-22 22h-6v186h-91v-208h-296l-22 22h-6v373h718v-6zM315 414v147h-280v-147h280zM450 414h281v147h-281v-147zM731 351h-696v-351h280v208h135v-208
h281v351z" />
    <glyph glyph-name="FL0069h" unicode="i" horiz-adv-x="350" 
d="M24 572h302v-6l22 -22v-163h-296l-22 22h-6v169zM326 356l22 -22v-367h-296l-22 22h-6v373h302v-6zM35 414h280v147h-280v-147zM315 351h-280v-351h280v351z" />
    <glyph glyph-name="FL006Ah" unicode="j" horiz-adv-x="713" 
d="M689 572v-6l22 -22v-163h-296l-22 22h-6v169h302zM689 356l22 -22v-215q0 -32 -8 -60t-24 -48.5t-38.5 -32t-51.5 -11.5h-537l-22 22h-6v169h335q16 1 22 6.5t6 19.5v178h302v-6zM398 561v-147h280v147h-280zM678 351h-280v-167q0 -20 -8.5 -27.5t-29.5 -9.5h-325v-147
h529q27 0 48 11t36 30.5t22.5 46t7.5 56.5v207z" />
    <glyph glyph-name="FL006Bh" unicode="k" horiz-adv-x="761" 
d="M380 55q6 -6 10 -9zM30 403h-6v169h302v-6l22 -22v-88q7 10 18 21v2q3 5 15 19t31 29t44.5 28t56.5 17h224v-6l22 -22v-163h-408l-3 3v-3h-296zM519 -33q-29 0 -57.5 18t-51.5 41q-18 14 -34 30.5t-28 30.5v-120h-296l-22 22h-6v373h538q-2 -2 -2.5 -3t-1.5 -2l23 -23
q-29 -38 -29 -58q0 -32 19 -62q24 -25 54 -40t57 -15h55v-6l22 -22v-164h-240zM315 414v147h-280v-147h280zM726 414v147h-212q-29 -3 -53 -15t-41.5 -26t-28.5 -27t-14 -18v-2q-14 -13 -23 -28t-16 -31h388zM353 97q12 -14 28 -31t34.5 -31.5t38.5 -24.5t40 -10h232v148
h-44q-25 0 -53.5 13t-53 34.5t-40.5 49t-16 56.5q0 23 21 50h-505v-351h280v164z" />
    <glyph glyph-name="l" unicode="l" horiz-adv-x="713" 
d="M24 572h302v-6l22 -22v-163h-296l-22 22h-6v169zM348 158h5h336v-6l22 -22v-163h-536q-47 0 -80 33l-6 6q-31 19 -48 55t-17 81v220h302v-6l22 -22v-176zM35 414h280v147h-280v-147zM678 0v147h-325q-21 2 -29.5 9.5t-8.5 27.5v167h-280v-209q0 -30 8 -55.5t23 -45
t36.5 -30.5t47.5 -11h528z" />
    <glyph glyph-name="FL006Dh" unicode="m" horiz-adv-x="1119" 
d="M566 403h-2q5 -6 9 -11.5t8 -10.5h-529l-22 22h-6v169h371q8 0 20 -8t26.5 -21t29.5 -29.5t30 -34.5q16 -17 31 -35.5t28 -35.5q16 21 39 49t47.5 53.5t47 43.5t37.5 18h364v-6l22 -22v-163h-529zM30 -11h-6v373h1071v-6l22 -22v-367h-296l-22 22h-6v209l-192 -231h-29
l-22 22h-4l-198 235v-257h-296zM1084 414v147h-353q-14 0 -34.5 -16t-42.5 -39.5t-42.5 -48.5t-33.5 -43h506zM541 414q-13 18 -33 43t-41 48.5t-40.5 39.5t-31.5 16h-360v-147h506zM804 279v-279h280v351h-1049v-351h280v279l235 -279h22z" />
    <glyph glyph-name="FL0071h" unicode="n" horiz-adv-x="929" 
d="M605 572h300v-6l22 -22v-163h-294l-22 22h-6v169zM30 403h-6v169h355q16 0 34 -9.5t35.5 -23.5t33 -30.5t26.5 -30.5q10 -11 17.5 -21t12.5 -18l34 -58h-520zM905 356l22 -22v-367h-330q-28 0 -52 13t-44 32q-26 17 -46 40t-35 45l-72 110v-240h-296l-22 22h-6v373h554
l7 -12l16 -16l4 -7v35h300v-6zM616 414h278v147h-278v-147zM533 414l-27 46q-8 13 -22.5 30.5t-32.5 33t-37 26.5t-35 11h-344v-147h498zM894 351h-278v-76l-45 76h-536v-351h280v279l115 -175q12 -17 27 -35.5t33 -33.5t38.5 -25t43.5 -10h322v351z" />
    <glyph glyph-name="FL006Fh" unicode="o" 
d="M624 572q36 0 67 -18.5t51 -47.5l5 -5q22 -22 34.5 -50.5t12.5 -57.5v-12h-742l-22 22h-6v15q0 28 11.5 55.5t32 49.5t47.5 35.5t57 13.5h452zM772 356l22 -22v-236q0 -25 -12.5 -48.5t-32 -42t-44.5 -29.5t-49 -11h-466q-26 0 -52 12.5t-46 32.5l-4 3q-27 20 -45.5 48
t-18.5 60v239h301v-6l22 -22v-176h113q2 0 5.5 5t5.5 10v189h301v-6zM172 561q-28 0 -53 -12.5t-43.5 -33t-29.5 -46t-11 -51.5v-4h726v4q0 26 -11 51.5t-29.5 46t-43.5 33t-53 12.5h-452zM761 351h-279v-181q-3 -6 -9.5 -14.5t-12.5 -8.5h-124q-13 0 -17 9t-5 14v181h-279
v-228q0 -24 12 -46t30.5 -39t41.5 -27.5t46 -10.5h466q23 0 46 10.5t42 27.5t30.5 39t11.5 46v228z" />
    <glyph glyph-name="FL0070h" unicode="p" 
d="M24 572h586q39 0 67.5 -18t48.5 -45l5 -5q24 -25 38.5 -58t21.5 -65h-739l-22 22h-6v169zM325 356l22 -22v-19h99q12 0 20 15.5t10 31.5h296q0 -2 -0.5 -3t-0.5 -3l23 -22q-2 -39 -11.5 -77t-28 -67.5t-47.5 -47.5t-71 -18h-289v-157h-295l-22 22h-6v373h301v-6zM35 414
h417h2h302q-5 25 -16 51.5t-28.5 47.5t-42.5 34.5t-59 13.5h-575v-147zM314 351h-279v-351h279v157h297q40 0 67.5 16.5t45.5 44t26.5 62.5t10.5 71h-275q-2 -16 -12.5 -31.5t-27.5 -15.5h-132v47z" />
    <glyph glyph-name="FL0072h" unicode="q" 
d="M30 403h-6v15q0 28 11.5 55.5t32 49.5t47.5 35.5t57 13.5h452q36 0 67 -18.5t51 -47.5l5 -5q22 -22 34.5 -50.5t12.5 -57.5v-12h-742zM326 356l22 -22v-176h115q-1 0 2 5.5t6 10.5v188h301v-6l22 -22v-236q0 -24 -11.5 -47t-30.5 -40h89v-6l22 -22v-165h-398
q-32 0 -64 17t-58 42q-23 17 -41 37.5t-29 40.5l-7 12h-76q-26 0 -52 12.5t-46 32.5l-4 3q-27 20 -45.5 48t-18.5 60v239h302v-6zM761 418q0 26 -11 51.5t-29.5 46t-43.5 33t-53 12.5h-452q-28 0 -53 -12.5t-43.5 -33t-29.5 -46t-11 -51.5v-4h425h2h299v4zM315 351h-280
v-228q0 -24 12 -46t30.5 -39t41.5 -27.5t46 -10.5h96l22 -40q11 -19 28 -38.5t38 -35t44 -25.5t47 -10h390v149h-194q22 1 44 12t40 28t29.5 38.5t11.5 44.5v228h-279v-181q-3 -6 -10 -14.5t-9 -8.5h-127q-11 0 -14.5 8.5t-6.5 14.5v181z" />
    <glyph glyph-name="r" unicode="r" horiz-adv-x="819" 
d="M24 572h596q43 0 72 -16t46 -41l8 -8q24 -24 34.5 -57.5t13.5 -68.5h-742l-22 22h-6v169zM347 315h99q12 0 19.5 15.5t10.5 31.5h294q0 -4 -1 -6l23 -22q-3 -24 -10 -48t-17.5 -43t-26 -32t-35.5 -14q-1 -2 -1 -5q0 -2 -1 -2l-3 3l172 -226h-366l-22 22h-4l-95 127h-1v1
q-7 3 -13 5t-12 2h-2q-6 -2 -7 -1l-1 1v-157h-295l-22 22h-6v373h301v-6l22 -22v-19zM452 414h3h305q-2 26 -9.5 52.5t-23.5 47.5t-42 34t-65 13h-585v-147h417zM314 0v150q0 1 5 3t11 4h2q17 0 32.5 -10t26.5 -24l92 -123h346l-159 209q-1 1 -1 8q0 8 5 13q19 0 33.5 10.5
t25 28t16.5 39t9 43.5h-272q-3 -16 -13 -31.5t-27 -15.5h-132v47h-279v-351h279z" />
    <glyph glyph-name="s" unicode="s" horiz-adv-x="910" 
d="M348 403h-8l30 54q5 10 21.5 29t38.5 38t47 33.5t47 14.5h362v-6l22 -22v-163h-538zM30 -11h-6v170h158q7 0 15 6.5t16 16.5t14.5 20t11.5 18l78 142h355v-6l22 -22v-12l-133 -241q-11 -20 -28 -40t-38.5 -36.5t-46 -27t-51.5 -10.5h-345zM875 414v147h-351
q-21 0 -44 -13.5t-43.5 -31.5t-36 -36.5t-20.5 -27.5l-21 -38h516zM372 0q25 0 48.5 10t44 26t37 35.5t27.5 38.5l132 239v2h-337l-75 -136q-5 -8 -13 -19.5t-17 -22t-18.5 -18t-18.5 -7.5h-147v-148h337z" />
    <glyph glyph-name="FL0074h" unicode="t" horiz-adv-x="759" 
d="M529 356l22 -22v-367h-296l-22 22h-6v373h302v-6zM735 572v-6l22 -22v-163h-705l-22 22h-6v169h711zM518 351h-280v-351h280v351zM35 561v-147h689v147h-689z" />
    <glyph glyph-name="FL0075h" unicode="u" 
d="M772 572v-6l22 -22v-163h-295l-22 22h-6v169h301zM326 572v-6l22 -22v-163h-296l-22 22h-6v169h302zM326 356l22 -22v-176h112q2 0 5.5 4.5t5.5 9.5v190h301v-6l22 -22v-236q0 -25 -12.5 -48.5t-32 -42t-44.5 -29.5t-49 -11h-466q-26 0 -51.5 13t-45.5 33l-2 2
q-29 20 -48 48.5t-19 59.5v239h302v-6zM482 561v-147h279v147h-279zM35 561v-147h280v147h-280zM315 351h-280v-228q0 -23 12 -45t30.5 -39t41.5 -28t46 -11h466q23 0 46 10.5t42 27.5t30.5 39t11.5 46v228h-279v-182q-3 -6 -8.5 -14t-13.5 -8h-124q-11 0 -14.5 8.5
t-6.5 14.5v181z" />
    <glyph glyph-name="FL0076h" unicode="v" horiz-adv-x="934" 
d="M910 571v-6l22 -22v-162h-295l-22 22h-6v168h301zM0 572h355l11 -16l13 -12l120 -163h-343l-22 22h-4zM161 362h349l11 -15l13 -13l75 -103v131h301v-6l22 -22v-368h-420q-16 0 -32.5 11.5t-29.5 23.5q-16 11 -29 24.5t-18 21.5zM620 560v-146h279v146h-279zM135 414h323
l-108 147h-328zM411 54q4 -5 12.5 -14.5t19 -18.5t22 -15.5t22.5 -6.5h412v352h-279v-126q0 -1 -4.5 -3t-7.5 -4q-5 0 -7.5 3.5t-6.5 8.5l-89 121h-322z" />
    <glyph glyph-name="FL0077h" unicode="w" horiz-adv-x="1119" 
d="M800 403h-6v169h301v-6l22 -22v-163h-295zM326 572v-6l22 -22v-163h-296l-22 22h-6v169h302zM415 403h-6v169h303v-6l22 -22v-163h-297zM326 356l22 -22v-176h51q2 0 5 4.5t5 8.5v191h303v-6l22 -22v-176h49q2 0 5.5 5t5.5 10v189h301v-6l22 -22v-236q0 -25 -12.5 -48.5
t-32 -42t-44.5 -29.5t-49 -11h-789q-26 0 -51.5 13t-45.5 33l-2 2q-29 20 -48 48.5t-19 59.5v239h302v-6zM1084 414v147h-279v-147h279zM35 561v-147h280v147h-280zM701 414v147h-281v-147h281zM315 351h-280v-228q0 -23 12 -45t30.5 -39t41.5 -28t46 -11h789q23 0 46 10.5
t42 27.5t30.5 39t11.5 46v228h-279v-181q-3 -6 -8.5 -14.5t-13.5 -8.5h-62q-11 0 -14.5 8.5t-5.5 14.5v181h-281v-183l-1 -2q-3 -5 -8 -12t-12 -7h-63q-11 0 -14.5 8.5t-6.5 14.5v181z" />
    <glyph glyph-name="x" unicode="x" horiz-adv-x="761" 
d="M383 53l3 -3zM380 56l3 -3l-2 3h-1zM395 41l-9 9zM383 503q5 -5 8.5 -10t7.5 -10q6 10 16 22.5t24 25.5t32 24t40 17h226v-6l22 -22v-163h-707l-22 22h-6v169h244q21 0 38 -6.5t31 -16.5t25.5 -22t20.5 -24zM519 -33q-27 0 -52 15.5t-48 35.5q-14 10 -26.5 21.5
t-23.5 23.5q-18 -25 -36 -41t-35 -27q-26 -18 -54 -23t-58 -5h-134l-22 22h-6v171h100q8 0 25 10.5t35 27t34 36.5t22 38q0 1 -2 3q1 0 -2 3q-6 9 -14.5 20.5t-17.5 23t-17 22t-14 18.5h385q-2 -2 -2.5 -3t-1.5 -2l23 -23q-25 -34 -25 -49q0 -17 7.5 -35.5t20.5 -36.5
q23 -23 50.5 -38.5t51.5 -15.5h55v-6l22 -22v-164h-240zM726 414v147h-212q-27 -7 -48 -23.5t-35.5 -33t-22 -29t-8.5 -12.5q-9 10 -20.5 26.5t-27 32.5t-36.5 27.5t-48 11.5h-233v-147h691zM161 0q29 0 56.5 5t51.5 22q19 13 38.5 31.5t38.5 47.5q2 -2 3.5 -4t3.5 -5
q12 -14 28 -31t34.5 -31.5t38.5 -24.5t40 -10h232v148h-44q-25 0 -53.5 16t-53 40.5t-40.5 53t-16 52.5q0 18 17 41h-340q16 -19 29.5 -38t27.5 -39q-5 -20 -22 -41.5t-38 -40.5t-40.5 -31t-28.5 -12h-89v-149h126z" />
    <glyph glyph-name="FL0079h" unicode="y" horiz-adv-x="761" 
d="M228 280q-7 21 -23 41t-37 41h400q-2 -2 -3 -2.5t-2 -2.5l23 -23q-16 -17 -25 -31.5t-9 -25.5v-310h-296l-22 22h-6v291zM737 572v-6l22 -22v-163h-707l-22 22h-6v169h237q38 0 65.5 -22.5t48.5 -47.5q5 -6 9.5 -12t9.5 -11q6 9 16 22.5t23.5 27t31 25.5t39.5 18h233z
M507 561q-27 -8 -47.5 -24.5t-34 -33.5t-21 -30t-8.5 -13q-10 10 -22 27t-28 33.5t-37 28.5t-48 12h-226v-147h691v147h-219zM239 0h280v302q0 23 24 49h-348q14 -14 25.5 -29.5t18.5 -37.5v-284z" />
    <glyph glyph-name="FL007Dh" unicode="z" horiz-adv-x="909" 
d="M386 572q20 0 41 -11.5t40.5 -27.5t36 -34t27.5 -31q11 -12 18.5 -22t12.5 -15l28 -50h-538l-22 22h-6v169h362zM885 153l22 -22v-164h-343q-33 0 -65.5 17.5t-57.5 41.5q-23 17 -41 37.5t-29 41.5l-132 238l-5 10l3 -2q-1 2 -0.5 5t0.5 6h356l6 -11l17 -17l75 -136
q2 -5 6.5 -12.5t9.5 -15.5q11 -11 21 -11h157v-6zM35 561v-147h145h2h369l-21 38q-6 9 -21.5 27.5t-35.5 36.5t-43 31.5t-44 13.5h-351zM874 148h-146q-10 0 -20.5 8.5t-20 20t-17 23.5t-11.5 19l-73 132h-338q0 -2 1 -2l132 -239q10 -19 27 -38.5t38 -35.5t45 -26t48 -10
h335v148z" />
    <glyph glyph-name="FL0060h" unicode="{" horiz-adv-x="1497" 
d="M348 403h-8l30 54q5 10 21.5 29t38.5 38t47 33.5t47 14.5h362v-6l22 -22v-163h-538zM935 403h-8l30 54q5 10 21.5 29t38.5 38t47 33.5t47 14.5h362v-6l22 -22v-163h-538zM30 -11h-6v170h158q7 0 15 6.5t16 16.5t14.5 20t11.5 18l78 142h355v-6l22 -22v-12l-133 -241
q-11 -20 -28 -40t-38.5 -36.5t-46 -27t-51.5 -10.5h-345zM617 -11h-6v170h158q7 0 15 6.5t16 16.5t14.5 20t11.5 18l78 142h355v-6l22 -22v-12l-133 -241q-11 -20 -28 -40t-38.5 -36.5t-46 -27t-51.5 -10.5h-345zM1462 414v147h-351q-21 0 -44 -13.5t-43.5 -31.5t-36 -36.5
t-20.5 -27.5l-21 -38h516zM875 414v147h-351q-21 0 -44 -13.5t-43.5 -31.5t-36 -36.5t-20.5 -27.5l-21 -38h516zM959 0q25 0 48.5 10t44 26t37 35.5t27.5 38.5l132 239v2h-337l-75 -136q-5 -8 -13 -19.5t-17 -22t-18.5 -18t-18.5 -7.5h-147v-148h337zM372 0q25 0 48.5 10
t44 26t37 35.5t27.5 38.5l132 239v2h-337l-75 -136q-5 -8 -13 -19.5t-17 -22t-18.5 -18t-18.5 -7.5h-147v-148h337z" />
    <glyph glyph-name="FL007Eh" unicode="|" horiz-adv-x="350" 
d="M326 741v-6l22 -22v-332h-296l-22 22h-6v338h302zM326 356l22 -22v-536h-296l-22 22h-6v542h302v-6zM35 730v-316h280v316h-280zM315 351h-280v-520h280v520z" />
    <glyph glyph-name="FL0083h" unicode="}" horiz-adv-x="1547" 
d="M370 457q5 10 21.5 29t38.5 38t47 33.5t47 14.5h362v-6l22 -22v-163h-538l-22 22h-8zM940 403h-9l84 110q4 6 13.5 16t21.5 20t25 17t25 7h423v-6l22 -22v-164h-583zM30 -11h-6v170h158q7 0 15 6.5t16 16.5t14.5 20t11.5 18l78 142h355v-6l22 -22v-12l-133 -241
q-11 -20 -28 -40t-38.5 -36.5t-46 -27t-51.5 -10.5h-345zM622 -11h-9l286 373h624v-6l22 -22v-366h-295l-22 22h-6v290l-230 -313h-348zM727 414h2h146v147h-351q-21 0 -44 -13.5t-43.5 -31.5t-36 -36.5t-20.5 -27.5l-21 -38h368zM1512 414v148h-412q-10 0 -22 -6.5
t-22.5 -15.5t-19 -18t-12.5 -15l-71 -93h559zM372 0q25 0 48.5 10t44 26t37 35.5t27.5 38.5l132 239v2h-337l-75 -136q-5 -8 -13 -19.5t-17 -22t-18.5 -18t-18.5 -7.5h-147v-148h337zM963 0l246 334q3 5 5 7t7 2q3 -2 7.5 -4t4.5 -3v-335h279v350h-608l-269 -351h328z" />
    <glyph glyph-name="FL0082h" unicode="~" horiz-adv-x="1476" 
d="M936 457q5 10 21.5 29t38.5 38t47 33.5t47 14.5h362v-6l22 -22v-163h-538l-22 22h-8zM529 356l22 -22v-367h-296l-22 22h-6v373h302v-6zM735 566l22 -22v-163h-705l-22 22h-6v169h711v-6zM596 -11h-6v170h158q7 0 15 6.5t16 16.5t14.5 20t11.5 18l78 142h355v-6l22 -22
v-12l-133 -241q-11 -20 -28 -40t-38.5 -36.5t-46 -27t-51.5 -10.5h-345zM1293 414h2h146v147h-351q-21 0 -44 -13.5t-43.5 -31.5t-36 -36.5t-20.5 -27.5l-21 -38h368zM518 351h-280v-351h280v351zM724 561h-689v-147h689v147zM938 0q25 0 48.5 10t44 26t37 35.5t27.5 38.5
l132 239v2h-337l-75 -136q-5 -8 -13 -19.5t-17 -22t-18.5 -18t-18.5 -7.5h-147v-148h337z" />
    <glyph glyph-name="FL007Fh" horiz-adv-x="236" 
 />
    <glyph glyph-name="FL20ACh" horiz-adv-x="817" 
d="M142 418q0 28 11.5 55.5t32 49.5t47.5 35.5t57 13.5h503v-6l22 -22v-163h-645l-22 22h-6v15zM625 356l22 -22v-72h-16l16 -16v-80h-181v-8h321v-6l22 -22v-163h-501q-26 0 -52 12.5t-46 32.5l-4 3q-27 20 -45.5 48t-18.5 60v43h-90l-22 22h-6v86h16l-10 10h-6v78h601v-6z
M452 414h2h328v147h-492q-28 0 -53 -12.5t-43.5 -33t-29.5 -46t-11 -51.5v-4h299zM614 351h-579v-56h118v-32h-118v-64h118v-76q0 -24 12 -46t30.5 -39t41.5 -27.5t46 -10.5h493v147h-322q-8 0 -14 6.5t-7 16.5v29h181v64h-181v32h181v56z" />
    <glyph glyph-name="FL20ACh" unicode="&#x20ac;" horiz-adv-x="817" 
d="M142 418q0 28 11.5 55.5t32 49.5t47.5 35.5t57 13.5h503v-6l22 -22v-163h-645l-22 22h-6v15zM625 356l22 -22v-72h-16l16 -16v-80h-181v-8h321v-6l22 -22v-163h-501q-26 0 -52 12.5t-46 32.5l-4 3q-27 20 -45.5 48t-18.5 60v43h-90l-22 22h-6v86h16l-10 10h-6v78h601v-6z
M452 414h2h328v147h-492q-28 0 -53 -12.5t-43.5 -33t-29.5 -46t-11 -51.5v-4h299zM614 351h-579v-56h118v-32h-118v-64h118v-76q0 -24 12 -46t30.5 -39t41.5 -27.5t46 -10.5h493v147h-322q-8 0 -14 6.5t-7 16.5v29h181v64h-181v32h181v56z" />
    <glyph glyph-name="FL017Fh" horiz-adv-x="1497" 
d="M1097 491l4 -4zM1096 491q-1 2 -3 3zM973 572q19 0 40 -10.5t40.5 -26t36.5 -33t27 -30.5q11 -13 19.5 -24t12.5 -17l28 -50h-538l-22 22h-6v169h362zM386 572q19 0 40 -10.5t40.5 -26t36.5 -33t27 -30.5q11 -13 19.5 -24t12.5 -17l28 -50h-538l-22 22h-6v169h362z
M1473 153l22 -22v-164h-345q-32 0 -64 17t-58 42q-23 17 -41 37.5t-29 41.5l-132 239q-6 4 -18 18h372l6 -11l17 -17l77 -140q4 -10 14 -23q12 -12 21 -12h158v-6zM886 153l22 -22v-164h-345q-32 0 -64 17t-58 42q-23 17 -41 37.5t-29 41.5l-132 239q-6 4 -18 18h372l6 -11
l17 -17l77 -140q5 -11 13 -23q14 -12 22 -12h158v-6zM35 561v-147h146h2h368l-21 38q-5 9 -20.5 27.5t-36 36.5t-43.5 31.5t-44 13.5h-351zM622 561v-147h516l-21 38q-5 9 -20.5 27.5t-36 36.5t-43.5 31.5t-44 13.5h-351zM875 148h-147q-9 0 -18.5 7.5t-18.5 18t-17 22
t-13 19.5l-75 136h-338q1 -1 1 -2l132 -239q10 -19 27 -38.5t38 -35.5t44.5 -26t47.5 -10h337v148zM1462 148h-147q-9 0 -18.5 7.5t-18.5 18t-17 22t-13 19.5l-75 136h-338q1 -1 1 -2l132 -239q10 -19 27 -38.5t38 -35.5t44.5 -26t47.5 -10h337v148z" />
    <glyph glyph-name="FL017Fh" unicode="&#x17d;" horiz-adv-x="1497" 
d="M1097 491l4 -4zM1096 491q-1 2 -3 3zM973 572q19 0 40 -10.5t40.5 -26t36.5 -33t27 -30.5q11 -13 19.5 -24t12.5 -17l28 -50h-538l-22 22h-6v169h362zM386 572q19 0 40 -10.5t40.5 -26t36.5 -33t27 -30.5q11 -13 19.5 -24t12.5 -17l28 -50h-538l-22 22h-6v169h362z
M1473 153l22 -22v-164h-345q-32 0 -64 17t-58 42q-23 17 -41 37.5t-29 41.5l-132 239q-6 4 -18 18h372l6 -11l17 -17l77 -140q4 -10 14 -23q12 -12 21 -12h158v-6zM886 153l22 -22v-164h-345q-32 0 -64 17t-58 42q-23 17 -41 37.5t-29 41.5l-132 239q-6 4 -18 18h372l6 -11
l17 -17l77 -140q5 -11 13 -23q14 -12 22 -12h158v-6zM35 561v-147h146h2h368l-21 38q-5 9 -20.5 27.5t-36 36.5t-43.5 31.5t-44 13.5h-351zM622 561v-147h516l-21 38q-5 9 -20.5 27.5t-36 36.5t-43.5 31.5t-44 13.5h-351zM875 148h-147q-9 0 -18.5 7.5t-18.5 18t-17 22
t-13 19.5l-75 136h-338q1 -1 1 -2l132 -239q10 -19 27 -38.5t38 -35.5t44.5 -26t47.5 -10h337v148zM1462 148h-147q-9 0 -18.5 7.5t-18.5 18t-17 22t-13 19.5l-75 136h-338q1 -1 1 -2l132 -239q10 -19 27 -38.5t38 -35.5t44.5 -26t47.5 -10h337v148z" />
    <glyph glyph-name="FL017Eh" horiz-adv-x="910" 
d="M412 803l10 -15l14 -13l18 -27l40 55h196l-4 -5l23 -23l-138 -182h-185l-22 22h-4l-144 188h196zM386 572q20 0 41.5 -11t41.5 -27t36.5 -33.5t25.5 -30.5q23 -24 31 -39l28 -50h-538l-22 22h-6v169h362zM886 153l22 -22v-164h-345q-32 0 -64 17t-58 42q-23 17 -41 37.5
t-29 41.5l-132 239q-6 4 -18 18h372l6 -11l17 -17l77 -140q4 -10 14 -23q12 -12 21 -12h158v-6zM238 792l127 -166h177l126 166h-169l-46 -64l-46 64h-169zM35 561v-147h146h2h368l-21 38q-5 10 -20 28t-35.5 36t-44 31.5t-44.5 13.5h-351zM875 148h-147q-9 0 -18.5 7.5
t-18.5 18t-17 22t-13 19.5l-75 136h-338q1 -1 1 -2l132 -239q10 -19 27 -38.5t38 -35.5t44.5 -26t47.5 -10h337v148z" />
    <glyph glyph-name="FL017Eh" unicode="&#x17e;" horiz-adv-x="910" 
d="M412 803l10 -15l14 -13l18 -27l40 55h196l-4 -5l23 -23l-138 -182h-185l-22 22h-4l-144 188h196zM386 572q20 0 41.5 -11t41.5 -27t36.5 -33.5t25.5 -30.5q23 -24 31 -39l28 -50h-538l-22 22h-6v169h362zM886 153l22 -22v-164h-345q-32 0 -64 17t-58 42q-23 17 -41 37.5
t-29 41.5l-132 239q-6 4 -18 18h372l6 -11l17 -17l77 -140q4 -10 14 -23q12 -12 21 -12h158v-6zM238 792l127 -166h177l126 166h-169l-46 -64l-46 64h-169zM35 561v-147h146h2h368l-21 38q-5 10 -20 28t-35.5 36t-44 31.5t-44.5 13.5h-351zM875 148h-147q-9 0 -18.5 7.5
t-18.5 18t-17 22t-13 19.5l-75 136h-338q1 -1 1 -2l132 -239q10 -19 27 -38.5t38 -35.5t44.5 -26t47.5 -10h337v148z" />
    <glyph glyph-name="FL00A1h" unicode="&#xa1;" horiz-adv-x="350" 
d="M80 403h-4q-29 29 -29 66q0 22 10 41t27.5 32.5t41 21.5t49.5 8q38 0 69.5 -16.5t47.5 -42.5l7 -7q27 -27 27 -62q0 -36 -27 -63h-197zM30 -11h-6v260l26 96h251l2 -7l21 -21l24 -94v-256h-296zM293 469q0 19 -9.5 36t-25.5 29.5t-37.5 19.5t-45.5 7t-45.5 -7t-37 -19.5
t-25 -29.5t-9.5 -36q0 -32 23 -55h189q23 23 23 55zM315 246l-22 88h-235l-23 -88v-246h280v246z" />
    <glyph glyph-name="FL00A2h" unicode="&#xa2;" horiz-adv-x="778" 
d="M564 636l22 -22v-68h167v-6l22 -22v-137h-723l-22 22h-6q3 28 16.5 53.5t33.5 45.5t45 32t53 12h146v96h246v-6zM96 43q-32 23 -52 57.5t-20 69.5v192h303v-6l22 -22v-147h405v-6l22 -22v-163h-188v-89h-240l-22 22h-6v67h-122q-28 0 -53 12t-45 32zM553 535v96h-224v-96
h-157q-26 0 -49.5 -10t-41.5 -27t-30 -38.5t-15 -45.5h706v121h-189zM337 176q-5 0 -7.5 3t-4 7t-3.5 7.5t-6 4.5v153h-281v-181q0 -24 11 -49t30 -45.5t44 -33.5t53 -13h158v-89h224v89h188v147h-406z" />
    <glyph glyph-name="FL00A3h" unicode="&#xa3;" horiz-adv-x="727" 
d="M131 403h-6q4 29 17 59t33.5 54.5t48.5 40t63 15.5h230v-6l22 -22v-163h-386zM24 362h410q3 -1 12 -1h149v-6l22 -22v-155h-147q-16 0 -22 -5t-6 -15h2h259v-6l22 -22v-163h-673l-22 22h-6v169h100v12v5h-72l-22 22h-6v165zM506 414v147h-219q-33 0 -59 -13.5t-45 -34.5
t-30.5 -47.5t-15.5 -51.5h369zM35 208h103q-3 -20 -3 -38v-12q0 -10 1 -11h-101v-147h657v147h-248q-19 0 -27 10t-8 24q0 16 7.5 23t28.5 7h139v139h-138q-13 0 -16 1h-395v-143z" />
    <glyph glyph-name="FL00BDh" unicode="&#xa4;" horiz-adv-x="837" 
d="M836 572l-4 -5l23 -23l-135 -163h-556l-22 22h-4l-140 169h356l18 -22l6 -6l39 -49l63 77h356zM364 217q3 -1 10 -1h94q12 0 22 8t10 19v82q0 10 -21 37h183l-4 -5l23 -23l-65 -78l240 -289h-349l-22 22h-4l-43 51l-61 -73h-349l-22 22h-9l242 292l-67 81h191
q-2 -2 -2.5 -3t-1.5 -2l23 -23q-18 -22 -18 -34v-83zM485 561l-68 -82l-68 82h-328l122 -147h548l122 147h-328zM348 0l69 83l69 -83h328l-233 281l58 70h-138q10 -13 10 -26v-82q0 -14 -13.5 -26t-29.5 -12h-94q-15 0 -29 12t-14 26v82q0 13 10 26h-146l58 -70l-233 -281
h328z" />
    <glyph glyph-name="FL00A5h" unicode="&#xa5;" horiz-adv-x="761" 
d="M375 502q5 -6 9.5 -12t9.5 -11q6 9 16 22.5t23.5 27t31 25.5t39.5 18h233v-6l22 -22v-163h-707l-22 22h-6v169h237q38 0 65.5 -22.5t48.5 -47.5zM77 300h142q-10 15 -22.5 30t-28.5 32h400q-2 -2 -3 -2.5t-2 -2.5l23 -23q-9 -10 -16 -18t-12 -16h120v-6l22 -22v-80h-148
v-23h126v-6l22 -22v-80h-148v-94h-296l-22 22h-6v72h-123l-22 22h-6v86h151v23h-123l-22 22h-6v86zM726 414v147h-219q-27 -8 -47.5 -24.5t-34 -33.5t-21 -30t-8.5 -13q-10 10 -22 27t-28 33.5t-37 28.5t-48 12h-226v-147h691zM88 225h151v-67h-151v-64h151v-94h280v94h148
v64h-148v67h148v64h-148v13q0 23 24 49h-348q13 -13 23.5 -27.5t18.5 -34.5h-149v-64z" />
    <glyph glyph-name="FL00B8h" unicode="&#xa6;" horiz-adv-x="350" 
d="M326 696v-6l22 -22v-287h-296l-22 22h-6v293h302zM326 356l22 -22v-485h-296l-22 22h-6v491h302v-6zM35 685v-271h280v271h-280zM315 351h-280v-469h280v469z" />
    <glyph glyph-name="FL00A7h" unicode="&#xa7;" horiz-adv-x="837" 
d="M836 572l-4 -5l23 -23l-135 -163h-349l-22 22h-9l140 169h356zM364 217q3 -1 10 -1h94q12 0 22 8t10 19v82q0 10 -21 37h183l-4 -5l23 -23l-304 -367h-349l-22 22h-9l309 373h57q-2 -2 -2.5 -3t-1.5 -2l23 -23q-18 -22 -18 -34v-83zM485 561l-122 -147h328l122 147h-328z
M348 0l291 351h-138q10 -13 10 -26v-82q0 -14 -13.5 -26t-29.5 -12h-94q-15 0 -29 12t-14 26v82q0 13 10 26h-30l-291 -351h328z" />
    <glyph glyph-name="FL00A8h" unicode="&#xa8;" horiz-adv-x="492" 
d="M19 482q0 19 8 36t22.5 29.5t34.5 19.5t44 7q34 0 59.5 -14.5t38.5 -37.5l8 -7q7 -8 12.5 -16t8.5 -17q0 19 8 36t22.5 29.5t34.5 19.5t44 7q34 0 59.5 -14.5t38.5 -37.5l8 -7q25 -25 25 -58q0 -24 -13 -43.5t-35 -32.5h-116q-14 7 -24 18l-7 6q-32 21 -41 51
q-1 -24 -14 -43t-34 -32h-116q-14 7 -24 18l-7 6q-45 28 -45 77zM30 482q0 -45 42 -68h112q19 11 30.5 28.5t11.5 39.5q0 34 -28 57.5t-70 23.5t-70 -23.5t-28 -57.5zM462 482q0 34 -28 57.5t-70 23.5t-70 -23.5t-28 -57.5q0 -45 42 -68h112q19 11 30.5 28.5t11.5 39.5z" />
    <glyph glyph-name="copyright" unicode="&#xa9;" horiz-adv-x="282" 
d="M85 470q1 -8 6 -15q6 -4 10 -6h-1q4 -2 7.5 -4t7.5 -3l-9 9q-6 4 -11.5 8.5t-9.5 10.5zM206 567q-11 6 -22 9q7 -7 11 -15l14 -13q3 -4 6.5 -8t5.5 -9q-4 16 -10 29q-1 2 -2 3.5t-3 3.5zM209 504q-1 -2 -1 -3l-1 -2l9 -9q4 12 6 23l-26 -5l-23 22l-4 -1q-1 1 -1 3h-1
q-31 0 -31 -39q0 -3 -0.5 -5t0.5 -4h4q22 0 29 31zM141 640q32 0 59 -15q30 -17 45 -43l6 -5q10 -11 18 -24q16 -26 16 -60q0 -32 -16 -58h-1q-8 -16 -18.5 -26.5t-25.5 -19.5q-2 -1 -8 -2t-11 -2q-4 -1 -7.5 -2t-6.5 -2h-64q-3 1 -5.5 2t-4.5 2q-4 1 -10 5q-7 5 -13.5 9.5
t-11.5 9.5l-5 4q-13 9 -23.5 19.5t-18.5 26.5v-1q-16 26 -16 60q0 17 4 31t12 29q16 31 47 47q27 15 59 15zM177 501q-7 -28 -37 -28q-37 0 -37 45q0 23 10.5 35t28.5 12q22 0 33 -23l17 4q-11 35 -50 35q-27 0 -43 -16t-16 -47q0 -30 16 -46.5t42 -16.5q20 0 34.5 11
t19.5 30zM141 611q11 0 22.5 -2.5t22.5 -9.5q13 -7 21.5 -15.5t13.5 -18.5q12 -23 12 -47q0 -23 -12 -45q-15 -24 -34 -34q-23 -12 -46 -12q-24 0 -46 12q-24 15 -34 34q-12 22 -12 45q0 24 12 47q13 23 35 34.5t45 11.5zM141 629q-28 0 -54 -14q-28 -15 -42 -41
q-7 -14 -11 -27.5t-4 -28.5q0 -29 15 -54q8 -14 18 -24t23 -18q5 -2 9 -4t9 -4h60q7 2 14.5 3.5t17.5 4.5q14 8 24 18t17 24q15 25 15 54q0 30 -15 56q-14 26 -42 41q-26 14 -54 14z" />
    <glyph glyph-name="FL00AAh" unicode="&#xaa;" horiz-adv-x="433" 
d="M193 356l22 -22v-18h-163l-22 22h-6v24h169v-6zM245 338h-6v24h170v-6l22 -22v-18h-164zM30 403h-6v161q0 15 7 28.5t18.5 24t25.5 17t28 6.5h226q20 0 40 -13t31 -32l7 -7h-1l2 -1q10 -10 16.5 -22.5t6.5 -25.5v-158h-164l-11 11h-41v-11h-163zM182 351h-147v-2h147v2z
M398 349v2h-148v-2h148zM247 547q3 0 3 -3v-40h-68v37q1 6 5 6h60zM398 564q0 12 -6 23.5t-16 21t-22.5 15t-24.5 5.5h-226q-12 0 -24 -5.5t-22 -14.5t-16 -21t-6 -24v-150h147v11h68v-11h148v150z" />
    <glyph glyph-name="FL00ABh" unicode="&#xab;" horiz-adv-x="572" 
d="M247 403l22 -22h-106l-22 22h-10l60 60l60 -60h-4zM505 403l22 -22h-106l-22 22h-10l60 60l60 -60h-4zM564 344l23 -23l-65 -65l44 -45l-2 -2l23 -23l-113 -113l-23 23l-2 -2l-174 173l-11 -11l44 -45l-2 -2l23 -23l-113 -113l-23 23l-2 -2l-185 185l83 83h203l16 -16
l-3 -3l12 -11l30 30h203l16 -16zM482 414l-33 33l-33 -33h66zM224 414l-33 33l-33 -33h66zM292 346l-5 5h-193l-72 -72l169 -169l101 101l-67 68zM550 346l-5 5h-193l-72 -72l169 -169l101 101l-67 68z" />
    <glyph glyph-name="FL00ACh" unicode="&#xac;" horiz-adv-x="405" 
d="M381 362v-6l22 -22v-256h-159l-22 22h-6v75h-164l-22 22h-6v165h357zM35 351v-143h192v-97h143v240h-335z" />
    <glyph glyph-name="FL00ADh" unicode="&#xad;" horiz-adv-x="365" 
d="M24 362h317v-6l22 -22v-159h-311l-22 22h-6v165zM35 208h295v143h-295v-143z" />
    <glyph glyph-name="registered" unicode="&#xae;" horiz-adv-x="282" 
d="M145 438q11 0 24 5l-3 4h-4l-13 24q-2 2 -2 4h-2v-37zM206 567q-12 7 -27 10q3 -2 5 -5t4 -5l3 -6l15 -15q3 -3 4 -5q7 -11 7 -22q0 -26 -24 -37q6 -7 11 -14q2 2 3.5 5t3.5 6v-1q11 22 11 40q0 20 -11 42q-2 2 -2.5 3.5t-2.5 3.5zM141 640q32 0 59 -15q30 -17 45 -43
l2 -2l4 -3q10 -11 18 -24q16 -26 16 -60q0 -32 -16 -58h-1q-8 -16 -18.5 -26.5t-25.5 -19.5q-2 -1 -8 -2t-11 -2q-4 -1 -7.5 -2t-6.5 -2h-64q-3 1 -5.5 2t-4.5 2q-4 1 -10 5q-7 5 -13.5 9.5t-11.5 9.5l-5 4q-13 9 -23.5 19.5t-18.5 26.5v-1q-16 26 -16 60q0 17 4 31t12 29
q16 31 47 47q27 15 59 15zM112 560h21q19 0 20 -1q11 -5 11 -17q0 -8 -6 -13t-23 -5h-23v36zM112 458v50h11q11 0 15 -4q8 -5 21 -28l10 -18h24l-15 23q-8 13 -13.5 19.5t-14.5 10.5q16 1 25 10.5t9 22.5q0 10 -6 18q-3 6 -14 11q-7 4 -31 4h-40v-119h19zM141 611
q11 0 22.5 -2.5t22.5 -9.5q13 -7 21.5 -15.5t13.5 -18.5q12 -23 12 -47q0 -23 -12 -45q-15 -24 -34 -34q-23 -12 -46 -12q-24 0 -46 12q-24 15 -34 34q-12 22 -12 45q0 24 12 47q13 23 35 34.5t45 11.5zM141 629q-28 0 -54 -14q-28 -15 -42 -41q-7 -14 -11 -27.5t-4 -28.5
q0 -29 15 -54q8 -14 18 -24t23 -18q5 -2 9 -4t9 -4h60q7 2 14.5 3.5t17.5 4.5q14 8 24 18t17 24q15 25 15 54q0 30 -15 56q-14 26 -42 41q-26 14 -54 14z" />
    <glyph glyph-name="FL00B3h" unicode="&#xaf;" horiz-adv-x="599" 
d="M575 571v-6l22 -22v-162h-545l-22 22h-6v168h551zM35 560v-146h529v146h-529z" />
    <glyph glyph-name="FL00B1h" unicode="&#xb0;" horiz-adv-x="256" 
d="M19 480q0 19 8 36t22.5 29.5t34.5 19.5t44 7q34 0 59.5 -14.5t38.5 -37.5l8 -7q25 -25 25 -58q0 -23 -12 -42t-33 -32h-123q-11 7 -19 16l-6 6h-1q-21 14 -33.5 33.5t-12.5 43.5zM93 480q0 9 10 15t24 6t24 -6t10 -15t-10 -15.5t-24 -6.5t-24 6.5t-10 15.5zM30 480
q0 -21 10.5 -38t27.5 -28h119q18 11 28.5 28t10.5 38q0 34 -28 57.5t-70 23.5t-70 -23.5t-28 -57.5z" />
    <glyph glyph-name="FL00B2h" unicode="&#xb1;" horiz-adv-x="405" 
d="M285 519l22 -22v-67h74v-6l22 -22v-21h-351l-22 22h-6v27h96v95h165v-6zM120 243h-68l-22 22h-6v97h357v-6l22 -22v-91h-96v-89h75v-6l22 -22v-159h-351l-22 22h-6v165h115l-14 14h-6v75zM274 514h-143v-95h-96v-5h335v5h-96v95zM131 179h143v97h96v75h-335v-75h96v-97z
M36 143v-143h335v143h-335z" />
    <glyph glyph-name="FL00B6h" unicode="&#xb2;" horiz-adv-x="424" 
d="M393 592q1 0 1 -1zM30 338h-6v24h376v-6l22 -22v-18h-370zM422 491q0 -14 -7.5 -26.5t-18.5 -22.5h4v-6l22 -22v-33h-370l-22 22h-6v74q0 25 23 43l-16 16h-6v104h292q23 0 42.5 -12.5t30.5 -32.5l4 -4l4 -3q24 -24 24 -55v-42zM389 349v2h-354v-2h354zM389 414v17h-206
v19h137q10 0 22 6t22.5 15t17.5 21t7 24v42q0 13 -6 26t-15.5 23t-22.5 16t-28 6h-281v-82h202q2 0 3 -3t1 -5v-10h-140q-11 0 -23 -4t-21.5 -10.5t-16 -16t-6.5 -21.5v-63h354z" />
    <glyph glyph-name="FL00BCh" unicode="&#xb3;" horiz-adv-x="403" 
d="M30 338h-6v24h290v-7l22 -21l2 -15q-8 -3 -15 -3h-271zM288 640q26 0 45 -13t30 -32l7 -7q15 -15 22.5 -34.5t7.5 -36.5q0 -14 -3.5 -27.5t-10.5 -23.5q9 -12 12 -26.5t3 -28.5q0 -6 -1 -14l-2 -16h-346l-22 22h-6v237h264zM298 349q4 0 10 2h-273v-2h253h10zM35 528v-78
h177q12 0 12 -9q0 -10 -12 -10h-177v-17h331q1 5 1.5 11t0.5 11q0 14 -3.5 29t-14.5 26q9 9 13 23t4 28t-5 29.5t-15 28t-25 21t-34 8.5h-253v-82h177q11 0 11 -10q0 -9 -12 -9h-176z" />
    <glyph glyph-name="FL00B4h" unicode="&#xb4;" horiz-adv-x="837" 
d="M-2 572h356l18 -22l6 -6l39 -49l63 77h356l-4 -5l23 -23l-135 -163h-556l-22 22h-4zM438 40l-61 -73h-349l-22 22h-9l242 292l-67 81h490l-4 -5l23 -23l-65 -78l240 -289h-349l-22 22h-4zM143 414h548l122 147h-328l-68 -82l-68 82h-328zM417 83l69 -83h328l-233 281
l58 70h-444l58 -70l-233 -281h328z" />
    <glyph glyph-name="FL00B5h" unicode="&#xb5;" horiz-adv-x="783" 
d="M758 572v-6l22 -22v-163h-296l-22 22h-6v169h302zM326 572v-6l22 -22v-163h-297l-22 22h-6v169h303zM348 158h3h402v-6l22 -22v-163h-602q-47 0 -79 32l-7 7q-30 19 -47 55t-17 83v218h314v-1h109l1 1h311v-6l22 -22v-29q0 -24 -12.5 -47.5t-32.5 -42t-44.5 -30
t-48.5 -11.5h-294v-16zM467 561v-147h280v147h-280zM34 561v-147h281v147h-281zM742 0v147h-391q-20 2 -28 9.5t-8 27.5v23h302q22 0 45.5 11t42 28t30.5 39t12 45v21h-295q-1 -1 -6 -1h-112q-3 0 -4 1h-296v-207q0 -30 8 -56.5t23 -46t36 -30.5t47 -11h594z" />
    <glyph glyph-name="FL007Ah" unicode="&#xb6;" horiz-adv-x="973" 
d="M30 403h-6v169h374q18 0 37.5 -8.5t37.5 -21.5t34 -29t28 -32q13 -13 23 -26t15 -24l28 -50h-549zM949 159v-6l22 -22v-164h-398q-32 0 -64 17t-58 42q-23 17 -41 37.5t-29 41.5l-135 248l3 -2q-1 2 -0.5 5t0.5 6h356l6 -12l17 -16l76 -136q2 -5 6.5 -12.5t9.5 -15.5
q11 -11 20 -11h209zM562 414l-21 38q-8 15 -23.5 34t-35 35.5t-41.5 28t-43 11.5h-363v-147h158h1h368zM740 148q-9 0 -19.5 8.5t-20 20t-17 23.5t-11.5 19l-74 132h-338q0 -2 1 -2l130 -239q10 -19 27 -38.5t38 -35.5t44.5 -26t47.5 -10h390v148h-198z" />
    <glyph glyph-name="FL00B7h" unicode="&#xb7;" horiz-adv-x="305" 
d="M23 295q0 16 7 33t24 34h195q5 -5 9 -10.5t7 -10.5l8 -7q29 -30 29 -64q0 -21 -10 -39.5t-27 -32t-40 -21t-48 -7.5q-29 0 -55.5 10.5t-43.5 27.5l-6 5q-23 14 -36 35t-13 47zM34 295q0 -20 9.5 -36.5t25.5 -29t37.5 -19.5t45.5 -7t45.5 7t37 19.5t25 29t9.5 36.5
q0 30 -24 56h-187q-24 -26 -24 -56z" />
    <glyph glyph-name="FL00BAh" unicode="&#xb8;" horiz-adv-x="205" 
d="M181 5l22 -22v-173h-232l-22 22h-6v137h83v42h155v-6zM170 0h-133v-42h-83v-115h216v157z" />
    <glyph glyph-name="FL00BEh" unicode="&#xb9;" horiz-adv-x="266" 
d="M242 356l22 -22v-19h-159l-22 22h-6v25h165v-6zM30 535h-6v104h218v-6l22 -22v-230h-159l-22 22h-6v110h-25zM231 351h-143v-3h143v3zM231 414v214h-196v-82h53v-132h143z" />
    <glyph glyph-name="FL00B0h" unicode="&#xba;" horiz-adv-x="433" 
d="M350 362v-6l22 -22v-16q-3 0 -5 -1h1q-3 -1 -10 -1h-233q-5 0 -8 0.5t-6 1.5l-21 20q-2 1 -3 1t-3 1h-1v22h267zM330 640q21 0 38.5 -12.5t28.5 -30.5l9 -8q11 -11 18 -26t7 -30v-152h-379l-22 22h-6v155q0 15 6.5 29.5t17.5 26t25.5 19t30.5 7.5h226zM86 351
q4 -1 7 -1.5t7 -0.5h233q2 0 5.5 0.5t8.5 1.5h-261zM196 513q0 6 5 8h31q3 0 4.5 -3t1.5 -5v-53q-2 -6 -6 -6h-31q-5 0 -5 6v53zM104 629q-14 0 -26.5 -6.5t-22 -16.5t-15 -22.5t-5.5 -25.5v-144h363v144q0 13 -5.5 25.5t-14.5 22.5t-21.5 16.5t-26.5 6.5h-226z" />
    <glyph glyph-name="FL00BBh" unicode="&#xbb;" horiz-adv-x="572" 
d="M179 403l22 -22h-106l-22 22h-10l60 60l60 -60h-4zM437 403l22 -22h-106l-22 22h-10l60 60l60 -60h-4zM73 279l-67 67l16 16h202l84 -83l-2 -2l11 -12l14 14l-67 67l16 16h202l84 -83l-2 -2l23 -23l-181 -181l-23 23l-2 -2l-106 106l-127 -127l-23 23l-2 -2l-117 117z
M414 414l-33 33l-33 -33h66zM156 414l-33 33l-33 -33h66zM280 211l101 -101l169 169l-73 72h-192l-5 -5l67 -67zM22 211l101 -101l169 169l-73 72h-192l-5 -5l67 -67z" />
    <glyph glyph-name="FL0763h" unicode="&#xbc;" horiz-adv-x="915" 
d="M321 572v-6l22 -22v-163h-159l-22 22h-6v43h-25l-22 22h-6v104h218zM840 572l-5 -5l23 -23l-149 -163h-304l-22 22h-10l155 169h312zM853 130h38v-6l22 -22v-97h-60v-38h-164l-22 22h-6v16h-197l-22 22h-6v51l-102 -111h-305l-22 22h-10l236 259h-49l-22 22h-6v92h165v-6
l5 -6l11 12h312l-5 -5l23 -23l-40 -43h204v-6l22 -22v-133zM672 163v-44h-33zM114 561v-82h53v-65h143v147h-196zM532 561l-134 -147h283l134 147h-283zM447 95v-57h225v-38h148v38h60v81h-60v161h-206q-12 0 -25 -11.5t-17 -17.5v1zM306 0l318 351h-283l-31 -34v34h-143
v-70h110l-255 -281h284z" />
    <glyph glyph-name="FL0740h" unicode="&#xbd;" horiz-adv-x="918" 
d="M887 243q1 0 1 -1zM109 468h-6v104h218v-6l22 -22v-163h-159l-22 22h-6v43h-25zM383 403h-10l155 169h312l-5 -5l23 -23l-149 -163h-304zM518 128q0 25 23 43l-12 11l-195 -215h-305l-22 22h-10l236 259h-49l-22 22h-6v92h165v-7l5 -5l11 12h312l-5 -5l23 -23l-40 -43
h184q23 0 42.5 -12.5t30.5 -32.5l4 -4l4 -3q24 -24 24 -55v-42q0 -14 -7.5 -26.5t-18.5 -22.5h4v-6l22 -22v-98h-370l-22 22h-6v139zM310 414v147h-196v-82h53v-65h143zM681 414l134 147h-283l-134 -147h283zM530 247v-49h202q2 0 3 -3t1 -5v-10h-140q-11 0 -23 -4
t-21.5 -10.5t-16 -16t-6.5 -21.5v-128h354v82h-206v19h137q10 0 22 6t22.5 15t17.5 21t7 24v42q0 13 -6 26t-15.5 23t-22.5 16t-28 6h-251l64 71h-283l-31 -34v34h-143v-70h110l-255 -281h284z" />
    <glyph glyph-name="FL077Ch" unicode="&#xbe;" horiz-adv-x="952" 
d="M420 403h-10l155 169h312l-5 -5l23 -23l-149 -163h-304zM30 403h-6v169h264q26 0 45 -13t30 -32l7 -7q15 -15 22.5 -34.5t7.5 -36.5q0 -14 -3.5 -27.5t-10.5 -23.5q1 -1 8 -8.5t8 -8.5h-350zM686 362l-5 -5l23 -23l-40 -43h204v-6l22 -22v-133h38v-6l22 -22v-97h-60v-38
h-164l-22 22h-6v16h-197l-22 22h-6v51l-102 -111h-305l-22 22h-10l236 259h-218l-22 22h-6v92h662zM709 163v-44h-33zM718 414l134 147h-283l-134 -147h283zM35 460v-46h322q-2 3 -3.5 5t-3.5 4q9 9 13 23t4 28t-5 29.5t-15 28t-25 21t-34 8.5h-253v-82h177q11 0 11 -10
q0 -9 -12 -9h-176zM484 95v-57h225v-38h148v38h60v81h-60v161h-206q-12 0 -25 -11.5t-17 -17.5v1zM35 351v-70h253q5 0 12.5 1.5t18.5 3.5l-260 -286h284l318 351h-284l-15 -17q2 4 2.5 8t1.5 9h-331z" />
    <glyph glyph-name="FL00BFh" unicode="&#xbf;" horiz-adv-x="778" 
d="M422 403h-4q-29 29 -29 66q0 22 10 41t27.5 32.5t41 21.5t49.5 8q38 0 69.5 -16.5t47.5 -42.5l7 -7q27 -27 27 -62q0 -36 -27 -63h-197zM646 358v-6l22 -22v-49q0 -23 -13.5 -42.5t-33.5 -33.5t-44 -22t-45 -8h-184v-17h405v-6l22 -22v-163h-578q-29 0 -55 12t-46 32
l-2 2q-32 20 -51 53.5t-19 70.5v87q0 24 14 48t35.5 43t46 31t45.5 12h481zM635 469q0 19 -9.5 36t-25.5 29.5t-37.5 19.5t-45.5 7t-45.5 -7t-37 -19.5t-25 -29.5t-9.5 -36q0 -32 23 -55h189q23 23 23 55zM165 347q-20 0 -42.5 -11t-42 -28t-32.5 -39.5t-13 -44.5v-87
q0 -26 11 -50.5t29.5 -44t43.5 -31t53 -11.5h570v147h-406q-10 0 -15.5 11t-5.5 19v31h192q20 0 42.5 7.5t41.5 20.5t31.5 31t12.5 39v41h-470z" />
    <glyph glyph-name="FL00C0h" unicode="&#xc0;" 
d="M436 772l11 -10q3 -3 4 -5l39 -53q8 -10 12.5 -18t4.5 -19v-11q0 -13 -2.5 -22t-14.5 -21q-25 -22 -53 -22q-26 0 -42 16l-13 13q-11 4 -18 15l-41 47q-10 12 -15 20.5t-5 21.5q0 16 4.5 30t16.5 27h-1q17 17 30 20.5t28 3.5q32 0 47 -21zM30 403h-6v34q0 26 13 50.5
t33 43t45.5 30t49.5 11.5h466q33 0 66 -20.5t53 -50.5l2 -2q19 -19 30.5 -41.5t11.5 -45.5v-31h-742zM772 356l22 -22v-367h-296l-22 22h-6v136h-123v-158h-295l-22 22h-6v373h301v-6l22 -22v-22h123v50h302v-6zM420 777q-14 17 -39 17q-13 0 -23.5 -2.5t-21.5 -13.5
q-12 -11 -17 -25t-5 -29q0 -11 4 -17.5t11 -14.5l43 -50q15 -18 40 -18t48 20q10 10 12 18t2 19v11q0 10 -4 17t-11 15zM761 414v23q0 22 -11.5 44.5t-30.5 40t-42 28.5t-46 11h-466q-23 0 -46 -10.5t-41.5 -28t-30.5 -39.5t-12 -46v-23h299h2h425zM761 351h-280v-50h-167
v50h-279v-351h279v158h167v-158h280v351z" />
    <glyph glyph-name="FL00C1h" unicode="&#xc1;" 
d="M368 784q15 21 47 21q15 0 28 -3.5t30 -20.5h-1l9 -12l10 -10h-1q14 -13 19.5 -28t5.5 -32q0 -11 -4.5 -19.5t-12.5 -18.5l-2 -2h-1l-40 -47q-18 -21 -46 -21q-29 0 -54 22l-12 11q-8 4 -15 12q-12 12 -14.5 21.5t-2.5 23.5v11q0 12 5 20t13 19zM30 403h-6v34
q0 26 13 50.5t33 43t45.5 30t49.5 11.5h466q33 0 66 -20.5t53 -50.5l2 -2q19 -19 30.5 -41.5t11.5 -45.5v-31h-742zM772 356l22 -22v-367h-296l-22 22h-6v136h-123v-158h-295l-22 22h-6v373h301v-6l22 -22v-22h123v50h302v-6zM337 724q-7 -8 -11 -15t-4 -17v-11q0 -11 2 -19
t12 -18q23 -20 48 -20t40 18l43 50q7 8 11 14.5t4 17.5q0 15 -5 29t-17 25q-11 11 -21.5 13.5t-23.5 2.5q-25 0 -39 -17zM761 414v23q0 22 -11.5 44.5t-30.5 40t-42 28.5t-46 11h-466q-23 0 -46 -10.5t-41.5 -28t-30.5 -39.5t-12 -46v-23h425h2h299zM761 351h-280v-50h-167
v50h-279v-351h279v158h167v-158h280v351z" />
    <glyph glyph-name="FL00C2h" unicode="&#xc2;" 
d="M417 644l-36 -51h-189l-22 22h-9l144 188h187l12 -17l12 -11l138 -182h-189l-22 22h-4zM30 403h-6v34q0 26 13 50.5t33 43t45.5 30t49.5 11.5h466q33 0 66 -20.5t53 -50.5l2 -2q19 -19 30.5 -41.5t11.5 -45.5v-31h-742zM772 356l22 -22v-367h-296l-22 22h-6v136h-123
v-158h-295l-22 22h-6v373h301v-6l22 -22v-22h123v50h302v-6zM398 690l46 -64h169l-126 166h-177l-127 -166h169zM761 414v23q0 22 -11.5 44.5t-30.5 40t-42 28.5t-46 11h-466q-23 0 -46 -10.5t-41.5 -28t-30.5 -39.5t-12 -46v-23h299h2h425zM761 351h-280v-50h-167v50h-279
v-351h279v158h167v-158h280v351z" />
    <glyph glyph-name="FL00C3h" unicode="&#xc3;" 
d="M666 798l23 -23l-139 -182h-119l-22 22h-4l-22 28l-35 -50h-190l-22 22h-9l144 188h121l11 -16l13 -12l18 -26l39 54h197zM30 403h-6v34q0 26 13 50.5t33 43t45.5 30t49.5 11.5h466q33 0 66 -20.5t53 -50.5l2 -2q19 -19 30.5 -41.5t11.5 -45.5v-31h-742zM772 356l22 -22
v-367h-296l-22 22h-6v136h-123v-158h-295l-22 22h-6v373h301v-6l22 -22v-22h123v50h302v-6zM648 792h-169l-45 -63l-47 63h-111l-127 -166h169l45 63l47 -63h111zM761 437q0 22 -11.5 44.5t-30.5 40t-42 28.5t-46 11h-466q-23 0 -46 -10.5t-41.5 -28t-30.5 -39.5t-12 -46
v-23h726v23zM761 351h-280v-50h-167v50h-279v-351h279v158h167v-158h280v351z" />
    <glyph glyph-name="FL00C4h" unicode="&#xc4;" 
d="M171 709q0 19 8 36t22.5 29.5t34.5 19.5t44 7q34 0 59.5 -14.5t38.5 -37.5l8 -7q7 -8 12.5 -16t8.5 -17q0 19 8 36t22.5 29.5t34.5 19.5t44 7q34 0 59.5 -14.5t38.5 -37.5l8 -7q25 -25 25 -58q0 -20 -8.5 -36.5t-22.5 -28.5t-33.5 -18.5t-41.5 -6.5q-25 0 -46 8.5
t-35 22.5l-7 7q-31 17 -42 50q-1 -38 -31.5 -63t-74.5 -25q-25 0 -46 8.5t-35 22.5l-7 7q-21 12 -33.5 32t-12.5 45zM30 403h-6v34q0 26 13 50.5t33 43t45.5 30t49.5 11.5h466q33 0 66 -20.5t53 -50.5l2 -2q19 -19 30.5 -41.5t11.5 -45.5v-31h-742zM772 356l22 -22v-367
h-296l-22 22h-6v136h-123v-158h-295l-22 22h-6v373h301v-6l22 -22v-22h123v50h302v-6zM182 709q0 -35 28.5 -58.5t69.5 -23.5t69.5 23.5t28.5 58.5q0 34 -28 57.5t-70 23.5t-70 -23.5t-28 -57.5zM614 709q0 34 -28 57.5t-70 23.5t-70 -23.5t-28 -57.5q0 -35 28.5 -58.5
t69.5 -23.5t69.5 23.5t28.5 58.5zM761 437q0 22 -11.5 44.5t-30.5 40t-42 28.5t-46 11h-466q-23 0 -46 -10.5t-41.5 -28t-30.5 -39.5t-12 -46v-23h726v23zM761 351h-280v-50h-167v50h-279v-351h279v158h167v-158h280v351z" />
    <glyph glyph-name="FL00C5h" unicode="&#xc5;" 
d="M290 709q0 19 8 36t22.5 29.5t34.5 19.5t44 7q34 0 59.5 -14.5t38.5 -37.5l8 -7q25 -25 25 -58q0 -20 -8.5 -36.5t-22.5 -28.5t-33.5 -18.5t-41.5 -6.5q-25 0 -46 8.5t-35 22.5l-7 7q-21 12 -33.5 32t-12.5 45zM30 403h-6v34q0 26 13 50.5t33 43t45.5 30t49.5 11.5h466
q33 0 66 -20.5t53 -50.5l2 -2q19 -19 30.5 -41.5t11.5 -45.5v-31h-742zM772 356l22 -22v-367h-296l-22 22h-6v136h-123v-158h-295l-22 22h-6v373h301v-6l22 -22v-22h123v50h302v-6zM364 709q0 9 10 15t24 6t24 -6t10 -15t-10 -15.5t-24 -6.5t-24 6.5t-10 15.5zM301 709
q0 -35 28.5 -58.5t69.5 -23.5t69.5 23.5t28.5 58.5q0 34 -28 57.5t-70 23.5t-70 -23.5t-28 -57.5zM761 414v23q0 22 -11.5 44.5t-30.5 40t-42 28.5t-46 11h-466q-23 0 -46 -10.5t-41.5 -28t-30.5 -39.5t-12 -46v-23h299h2h124h2h299zM761 351h-280v-50h-167v50h-279v-351
h279v158h167v-158h280v351z" />
    <glyph glyph-name="FL00C6h" unicode="&#xc6;" horiz-adv-x="1385" 
d="M30 403h-6v34q0 26 13 50.5t33 43t45.5 30t49.5 11.5h466q28 0 55 -15t49 -38q21 24 49 38.5t60 14.5h517v-6l22 -22v-163h-1331zM325 356l22 -22v-22h123v50h891v-6l22 -22v-159h-350l-22 22l21 -22q-1 -1 -5 -6.5t-7 -10.5h341v-6l22 -22v-163h-521q-37 0 -68 20v-20
h-296l-22 22h-6v136h-123v-158h-295l-22 22h-6v373h301v-6zM1350 414v147h-506q-33 0 -61 -16.5t-47 -42.5q-19 25 -47.5 42t-57.5 17h-466q-23 0 -46 -10.5t-41.5 -28t-30.5 -39.5t-12 -46v-23h299h2h124h2h544h2h342zM314 351h-279v-351h279v158h167v-158h280v28
q34 -28 76 -28h513v147h-342q-2 0 -10 8.5t-11 14.5q0 1 -0.5 3t-0.5 4t0.5 4t0.5 3q3 6 11 15t10 9h342v143h-869v-50h-167v50z" />
    <glyph glyph-name="FL00C7h" unicode="&#xc7;" horiz-adv-x="713" 
d="M30 403h-6v15q0 28 11.5 55.5t32 49.5t47.5 35.5t57 13.5h517v-6l22 -22v-163h-659zM348 158h335v-6l22 -22v-163h-197v-157h-232l-22 22h-6v135h-58q-26 0 -52 12.5t-46 32.5l-4 3q-27 20 -45.5 48t-18.5 60v239h302v-6l22 -22v-176zM678 414v147h-506q-28 0 -53 -12.5
t-43.5 -33t-29.5 -46t-11 -51.5v-4h643zM475 0h197v147h-336q-8 0 -14 6.5t-7 16.5v181h-280v-228q0 -24 12 -46t30.5 -39t41.5 -27.5t46 -10.5h177v-42h-83v-115h216v157z" />
    <glyph glyph-name="FL00C8h" unicode="&#xc8;" horiz-adv-x="713" 
d="M395 770l7 -7q0 1 -1 1v1l3 -3q3 -3 4 -5l39 -53q8 -10 12.5 -18t4.5 -19v-11q0 -13 -2.5 -22t-14.5 -21q-25 -22 -53 -22q-26 0 -42 16l-13 13q-11 4 -18 15l-41 47q-10 12 -15 20.5t-5 21.5q0 16 4.5 30t16.5 27h-1q17 17 30 20.5t28 3.5q32 0 47 -21zM689 572v-6
l22 -22v-163h-659l-22 22h-6v15q0 28 11.5 55.5t32 49.5t47.5 35.5t57 13.5h517zM689 362v-6l22 -22v-159h-351q-1 -1 -5 -6.5t-7 -10.5h341v-6l22 -22v-163h-521q-26 0 -52 12.5t-46 32.5l-4 3q-27 20 -45.5 48t-18.5 60v239h665zM377 777q-14 17 -39 17q-13 0 -23.5 -2.5
t-21.5 -13.5q-12 -11 -17 -25t-5 -29q0 -11 4 -17.5t11 -14.5l43 -50q15 -18 40 -18t48 20q10 10 12 18t2 19v11q0 10 -4 17t-11 15zM172 561q-28 0 -53 -12.5t-43.5 -33t-29.5 -46t-11 -51.5v-4h299h2h342v147h-506zM35 351v-228q0 -24 12 -46t30.5 -39t41.5 -27.5
t46 -10.5h513v147h-342q-2 0 -10 8.5t-11 14.5q0 1 -0.5 3t-0.5 4t0.5 4t0.5 3q3 6 11 15t10 9h342v143h-643z" />
    <glyph glyph-name="FL00C9h" unicode="&#xc9;" horiz-adv-x="713" 
d="M360 784q15 21 47 21q15 0 28 -3.5t30 -20.5h-1l9 -12l10 -10h-1q14 -13 19.5 -28t5.5 -32q0 -12 -5 -20.5t-14 -19.5h-1l-40 -47q-18 -21 -46 -21q-29 0 -54 22l-12 11q-8 4 -15 12q-12 12 -14.5 21.5t-2.5 23.5v11q0 12 5 20t13 19zM689 572v-6l22 -22v-163h-659
l-22 22h-6v15q0 28 11.5 55.5t32 49.5t47.5 35.5t57 13.5h517zM689 362v-6l22 -22v-159h-351q-1 -1 -5 -6.5t-7 -10.5h341v-6l22 -22v-163h-521q-26 0 -52 12.5t-46 32.5l-4 3q-27 20 -45.5 48t-18.5 60v239h665zM329 724q-7 -8 -11 -15t-4 -17v-11q0 -11 2 -19t12 -18
q23 -20 48 -20t40 18l43 50q7 8 11 14.5t4 17.5q0 15 -5 29t-17 25q-11 11 -21.5 13.5t-23.5 2.5q-25 0 -39 -17zM172 561q-28 0 -53 -12.5t-43.5 -33t-29.5 -46t-11 -51.5v-4h643v147h-506zM35 351v-228q0 -24 12 -46t30.5 -39t41.5 -27.5t46 -10.5h513v147h-342
q-2 0 -10 8.5t-11 14.5q0 1 -0.5 3t-0.5 4t0.5 4t0.5 3q3 6 11 15t10 9h342v143h-335h-3h-305z" />
    <glyph glyph-name="FL00CAh" unicode="&#xca;" horiz-adv-x="713" 
d="M379 644l-36 -51h-189l-22 22h-9l144 188h187l12 -17l12 -11l138 -182h-189l-22 22h-4zM689 572v-6l22 -22v-163h-659l-22 22h-6v15q0 28 11.5 55.5t32 49.5t47.5 35.5t57 13.5h517zM689 362v-6l22 -22v-159h-350l-22 22l21 -22q-1 -1 -5 -6.5t-7 -10.5h341v-6l22 -22
v-163h-521q-26 0 -52 12.5t-46 32.5l-4 3q-27 20 -45.5 48t-18.5 60v239h665zM360 690l46 -64h169l-126 166h-177l-127 -166h169zM172 561q-28 0 -53 -12.5t-43.5 -33t-29.5 -46t-11 -51.5v-4h299h2h342v147h-506zM35 351v-228q0 -24 12 -46t30.5 -39t41.5 -27.5t46 -10.5
h513v147h-342q-2 0 -10 8.5t-11 14.5q0 1 -0.5 3t-0.5 4t0.5 4t0.5 3q3 6 11 15t10 9h342v143h-335h-3h-305z" />
    <glyph glyph-name="FL00CBh" unicode="&#xcb;" horiz-adv-x="713" 
d="M133 709q0 19 8 36t22.5 29.5t34.5 19.5t44 7q34 0 59.5 -14.5t38.5 -37.5l8 -7q7 -8 12.5 -16t8.5 -17q0 19 8 36t22.5 29.5t34.5 19.5t44 7q34 0 59.5 -14.5t38.5 -37.5l8 -7q25 -25 25 -58q0 -20 -8.5 -36.5t-22.5 -28.5t-33.5 -18.5t-41.5 -6.5q-25 0 -46 8.5
t-35 22.5l-7 7q-31 17 -42 50q-1 -38 -31.5 -63t-74.5 -25q-25 0 -46 8.5t-35 22.5l-7 7q-21 12 -33.5 32t-12.5 45zM689 572v-6l22 -22v-163h-659l-22 22h-6v15q0 28 11.5 55.5t32 49.5t47.5 35.5t57 13.5h517zM689 362v-6l22 -22v-159h-350q-1 0 -5.5 -6t-7.5 -11h341v-6
l22 -22v-163h-521q-26 0 -52 12.5t-46 32.5l-4 3q-27 20 -45.5 48t-18.5 60v239h665zM144 709q0 -35 28.5 -58.5t69.5 -23.5t69.5 23.5t28.5 58.5q0 34 -28 57.5t-70 23.5t-70 -23.5t-28 -57.5zM576 709q0 34 -28 57.5t-70 23.5t-70 -23.5t-28 -57.5q0 -35 28.5 -58.5
t69.5 -23.5t69.5 23.5t28.5 58.5zM172 561q-28 0 -53 -12.5t-43.5 -33t-29.5 -46t-11 -51.5v-4h299h2h342v147h-506zM35 351v-228q0 -24 12 -46t30.5 -39t41.5 -27.5t46 -10.5h513v147h-342q-2 0 -10 8.5t-11 14.5q0 1 -0.5 3t-0.5 4t0.5 4t0.5 3q3 6 11 15t10 9h342v143
h-643z" />
    <glyph glyph-name="FL00CCh" unicode="&#xcc;" horiz-adv-x="734" 
d="M404 772l11 -10q3 -3 4 -5l39 -53q8 -10 12.5 -18t4.5 -19v-11q0 -13 -2.5 -22t-14.5 -21q-25 -22 -53 -22q-26 0 -42 16l-13 13q-11 4 -18 15l-41 47q-10 12 -15 20.5t-5 21.5q0 16 4.5 30t16.5 27h-1q17 17 30 20.5t28 3.5q32 0 47 -21zM709 566l22 -22v-163h-679
l-22 22h-6v169h685v-6zM710 152l22 -22v-163h-679l-22 22h-6v169h192v204h302v-6l22 -22v-176h169v-6zM388 777q-14 17 -39 17q-13 0 -23.5 -2.5t-21.5 -13.5q-12 -11 -17 -25t-5 -29q0 -11 4 -17.5t11 -14.5l43 -50q15 -18 40 -18t48 20q10 10 12 18t2 19v11q0 10 -4 17
t-11 15zM698 561h-663v-147h663v147zM699 147h-191v204h-280v-204h-192v-147h663v147z" />
    <glyph glyph-name="FL00CDh" unicode="&#xcd;" horiz-adv-x="734" 
d="M338 784q15 21 47 21q15 0 28 -3.5t30 -20.5h-1l9 -12l10 -10h-1q14 -13 19.5 -28t5.5 -32q0 -11 -4.5 -19.5t-12.5 -18.5l-2 -2h-1l-40 -47q-18 -21 -46 -21q-29 0 -54 22l-12 11q-8 4 -15 12q-12 12 -14.5 21.5t-2.5 23.5v11q0 12 5 20t13 19zM710 566l22 -22v-163
h-679l-22 22h-6v169h685v-6zM24 158h191v204h302v-6l22 -22v-176h170v-6l22 -22v-163h-679l-22 22h-6v169zM307 724q-7 -8 -11 -15t-4 -17v-11q0 -11 2 -19t12 -18q23 -20 48 -20t40 18l43 50q7 8 11 14.5t4 17.5q0 15 -5 29t-17 25q-11 11 -21.5 13.5t-23.5 2.5
q-25 0 -39 -17zM699 561h-663v-147h663v147zM35 0h663v147h-192v204h-280v-204h-191v-147z" />
    <glyph glyph-name="FL00CEh" unicode="&#xce;" horiz-adv-x="734" 
d="M382 644l-36 -51h-189l-22 22h-9l144 188h187l12 -17l12 -11l138 -182h-189l-22 22h-4zM710 572v-6l22 -22v-163h-679l-22 22h-6v169h685zM24 158h191v204h302v-6l22 -22v-176h170v-6l22 -22v-163h-679l-22 22h-6v169zM363 690l46 -64h169l-126 166h-177l-127 -166h169z
M36 561v-147h663v147h-663zM35 0h663v147h-192v204h-280v-204h-191v-147z" />
    <glyph glyph-name="FL00CFh" unicode="&#xcf;" horiz-adv-x="734" 
d="M135 709q0 19 8 36t22.5 29.5t34.5 19.5t44 7q34 0 59.5 -14.5t38.5 -37.5l8 -7q7 -8 12.5 -16t8.5 -17q0 19 8 36t22.5 29.5t34.5 19.5t44 7q34 0 59.5 -14.5t38.5 -37.5l8 -7q25 -25 25 -58q0 -20 -8.5 -36.5t-22.5 -28.5t-33.5 -18.5t-41.5 -6.5q-25 0 -46 8.5
t-35 22.5l-7 7q-31 17 -42 50q-1 -38 -31.5 -63t-74.5 -25q-25 0 -46 8.5t-35 22.5l-7 7q-21 12 -33.5 32t-12.5 45zM710 566l22 -22v-163h-679l-22 22h-6v169h685v-6zM24 158h191v204h302v-6l22 -22v-176h170v-6l22 -22v-163h-679l-22 22h-6v169zM578 709q0 34 -28 57.5
t-70 23.5t-70 -23.5t-28 -57.5q0 -35 28.5 -58.5t69.5 -23.5t69.5 23.5t28.5 58.5zM146 709q0 -35 28.5 -58.5t69.5 -23.5t69.5 23.5t28.5 58.5q0 34 -28 57.5t-70 23.5t-70 -23.5t-28 -57.5zM699 561h-663v-147h663v147zM35 0h663v147h-192v204h-280v-204h-191v-147z" />
    <glyph glyph-name="FL00D0h" unicode="&#xd0;" horiz-adv-x="850" 
d="M91 403h-6v169h620q24 0 48 -17t41 -41l5 -4q22 -22 35.5 -50.5t13.5 -53.5v-25h-735zM30 197h-6v165h418v-6l22 -22v-159h-55v-14h70q16 0 25.5 8t13.5 20t5 27t1 29v68q0 9 -1 21t-4 28h307v-6l22 -22v-249q0 -19 -9 -40t-24 -38t-34 -28.5t-38 -11.5h-630l-22 22h-6
v186h-33zM815 431q0 20 -9.5 43t-25 42.5t-35.5 32t-40 12.5h-609v-147h719v17zM376 150v58h55v143h-396v-143h61v-208h622q18 0 35 10.5t31 26.5t22.5 35.5t8.5 37.5v241h-283q3 -20 3 -38v-68q0 -15 -1 -32t-6.5 -31t-16.5 -23t-32 -9h-103z" />
    <glyph glyph-name="FL00D1h" unicode="&#xd1;" 
d="M670 803l-4 -5l23 -23l-139 -182h-119l-22 22h-4l-22 28l-35 -50h-190l-22 22h-9l144 188h121l11 -16l13 -12l18 -26l39 54h197zM325 356l22 -22v-367h-295l-22 22h-6v373h301v-6zM772 356l22 -22v-367h-296l-22 22h-6v373h302v-6zM30 403h-6v169h607q33 0 66.5 -21
t53.5 -51l2 -2q18 -18 29.5 -40t11.5 -45v-32h-742zM479 792l-45 -63l-47 63h-111l-127 -166h169l45 63l47 -63h111l127 166h-169zM314 351h-279v-351h279v351zM761 351h-280v-351h280v351zM761 438q0 22 -12 44.5t-30.5 39.5t-42 28t-45.5 11h-596v-147h425h2h299v24z" />
    <glyph glyph-name="FL00D2h" unicode="&#xd2;" 
d="M436 772l11 -10q3 -3 4 -5l39 -53q8 -10 12.5 -18t4.5 -19v-11q0 -13 -2.5 -22t-14.5 -21q-25 -22 -53 -22q-26 0 -42 16l-13 13q-11 4 -18 15l-41 47q-10 12 -15 20.5t-5 21.5q0 16 4.5 30t16.5 27h-1q17 17 30 20.5t28 3.5q32 0 47 -21zM624 572q36 0 67 -18.5
t51 -47.5l5 -5q22 -22 34.5 -50.5t12.5 -57.5v-12h-742l-22 22h-6v15q0 28 11.5 55.5t32 49.5t47.5 35.5t57 13.5h452zM772 356l22 -22v-236q0 -25 -12.5 -48.5t-32 -42t-44.5 -29.5t-49 -11h-466q-26 0 -52 12.5t-46 32.5l-4 3q-27 20 -45.5 48t-18.5 60v239h301v-6l22 -22
v-176h113q2 0 5.5 5t5.5 10v189h301v-6zM420 777q-14 17 -39 17q-13 0 -23.5 -2.5t-21.5 -13.5q-12 -11 -17 -25t-5 -29q0 -11 4 -17.5t11 -14.5l43 -50q15 -18 40 -18t48 20q10 10 12 18t2 19v11q0 10 -4 17t-11 15zM172 561q-28 0 -53 -12.5t-43.5 -33t-29.5 -46
t-11 -51.5v-4h726v4q0 26 -11 51.5t-29.5 46t-43.5 33t-53 12.5h-452zM761 351h-279v-181q-3 -6 -9.5 -14.5t-12.5 -8.5h-124q-13 0 -17 9t-5 14v181h-279v-228q0 -24 12 -46t30.5 -39t41.5 -27.5t46 -10.5h466q23 0 46 10.5t42 27.5t30.5 39t11.5 46v228z" />
    <glyph glyph-name="FL00D3h" unicode="&#xd3;" 
d="M368 784q15 21 47 21q15 0 28 -3.5t30 -20.5h-1l9 -12l10 -10h-1q14 -13 19.5 -28t5.5 -32q0 -11 -4.5 -19.5t-12.5 -18.5l-2 -2h-1l-40 -47q-18 -21 -46 -21q-29 0 -54 22l-12 11q-8 4 -15 12q-12 12 -14.5 21.5t-2.5 23.5v11q0 12 5 20t13 19zM624 572q36 0 67 -18.5
t51 -47.5l5 -5q22 -22 34.5 -50.5t12.5 -57.5v-12h-742l-22 22h-6v15q0 28 11.5 55.5t32 49.5t47.5 35.5t57 13.5h452zM772 356l22 -22v-236q0 -25 -12.5 -48.5t-32 -42t-44.5 -29.5t-49 -11h-466q-26 0 -52 12.5t-46 32.5l-4 3q-27 20 -45.5 48t-18.5 60v239h301v-6l22 -22
v-176h113q2 0 5.5 5t5.5 10v189h301v-6zM337 724q-7 -8 -11 -15t-4 -17v-11q0 -11 2 -19t12 -18q23 -20 48 -20t40 18l43 50q7 8 11 14.5t4 17.5q0 15 -5 29t-17 25q-11 11 -21.5 13.5t-23.5 2.5q-25 0 -39 -17zM172 561q-28 0 -53 -12.5t-43.5 -33t-29.5 -46t-11 -51.5v-4
h726v4q0 26 -11 51.5t-29.5 46t-43.5 33t-53 12.5h-452zM761 351h-279v-181q-3 -6 -9.5 -14.5t-12.5 -8.5h-124q-13 0 -17 9t-5 14v181h-279v-228q0 -24 12 -46t30.5 -39t41.5 -27.5t46 -10.5h466q23 0 46 10.5t42 27.5t30.5 39t11.5 46v228z" />
    <glyph glyph-name="FL00D4h" unicode="&#xd4;" 
d="M417 644l-36 -51h-189l-22 22h-9l144 188h187l12 -17l12 -11l138 -182h-189l-22 22h-4zM624 572q36 0 67 -18.5t51 -47.5l5 -5q22 -22 34.5 -50.5t12.5 -57.5v-12h-742l-22 22h-6v15q0 28 11.5 55.5t32 49.5t47.5 35.5t57 13.5h452zM772 356l22 -22v-236
q0 -25 -12.5 -48.5t-32 -42t-44.5 -29.5t-49 -11h-466q-26 0 -52 12.5t-46 32.5l-4 3q-27 20 -45.5 48t-18.5 60v239h301v-6l22 -22v-176h113q2 0 5.5 5t5.5 10v189h301v-6zM398 690l46 -64h169l-126 166h-177l-127 -166h169zM172 561q-28 0 -53 -12.5t-43.5 -33t-29.5 -46
t-11 -51.5v-4h425h2h299v4q0 26 -11 51.5t-29.5 46t-43.5 33t-53 12.5h-452zM761 351h-279v-181q-3 -6 -9.5 -14.5t-12.5 -8.5h-124q-13 0 -17 9t-5 14v181h-279v-228q0 -24 12 -46t30.5 -39t41.5 -27.5t46 -10.5h466q23 0 46 10.5t42 27.5t30.5 39t11.5 46v228z" />
    <glyph glyph-name="FL00D5h" unicode="&#xd5;" 
d="M670 803l-4 -5l23 -23l-139 -182h-119l-22 22h-4l-22 28l-35 -50h-190l-22 22h-9l144 188h121l11 -16l13 -12l18 -26l39 54h197zM624 572q36 0 67 -18.5t51 -47.5l5 -5q22 -22 34.5 -50.5t12.5 -57.5v-12h-742l-22 22h-6v15q0 28 11.5 55.5t32 49.5t47.5 35.5t57 13.5
h452zM325 356l22 -22v-176h113q2 0 5.5 5t5.5 10v189h301v-6l22 -22v-236q0 -25 -12.5 -48.5t-32 -42t-44.5 -29.5t-49 -11h-466q-26 0 -52 12.5t-46 32.5l-4 3q-27 20 -45.5 48t-18.5 60v239h301v-6zM479 792l-45 -63l-47 63h-111l-127 -166h169l45 63l47 -63h111l127 166
h-169zM172 561q-28 0 -53 -12.5t-43.5 -33t-29.5 -46t-11 -51.5v-4h726v4q0 26 -11 51.5t-29.5 46t-43.5 33t-53 12.5h-452zM314 351h-279v-228q0 -24 12 -46t30.5 -39t41.5 -27.5t46 -10.5h466q23 0 46 10.5t42 27.5t30.5 39t11.5 46v228h-279v-181q-3 -6 -9.5 -14.5
t-12.5 -8.5h-124q-13 0 -17 9t-5 14v181z" />
    <glyph glyph-name="FL00D6h" unicode="&#xd6;" 
d="M171 709q0 19 8 36t22.5 29.5t34.5 19.5t44 7q34 0 59.5 -14.5t38.5 -37.5l8 -7q7 -8 12.5 -16t8.5 -17q0 19 8 36t22.5 29.5t34.5 19.5t44 7q34 0 59.5 -14.5t38.5 -37.5l8 -7q25 -25 25 -58q0 -20 -8.5 -36.5t-22.5 -28.5t-33.5 -18.5t-41.5 -6.5q-25 0 -46 8.5
t-35 22.5l-7 7q-31 17 -42 50q-1 -38 -31.5 -63t-74.5 -25q-25 0 -46 8.5t-35 22.5l-7 7q-21 12 -33.5 32t-12.5 45zM624 572q36 0 67 -18.5t51 -47.5l5 -5q22 -22 34.5 -50.5t12.5 -57.5v-12h-742l-22 22h-6v15q0 28 11.5 55.5t32 49.5t47.5 35.5t57 13.5h452zM772 356
l22 -22v-236q0 -25 -12.5 -48.5t-32 -42t-44.5 -29.5t-49 -11h-466q-26 0 -52 12.5t-46 32.5l-4 3q-27 20 -45.5 48t-18.5 60v239h301v-6l22 -22v-176h113q2 0 5.5 5t5.5 10v189h301v-6zM614 709q0 34 -28 57.5t-70 23.5t-70 -23.5t-28 -57.5q0 -35 28.5 -58.5t69.5 -23.5
t69.5 23.5t28.5 58.5zM182 709q0 -35 28.5 -58.5t69.5 -23.5t69.5 23.5t28.5 58.5q0 34 -28 57.5t-70 23.5t-70 -23.5t-28 -57.5zM172 561q-28 0 -53 -12.5t-43.5 -33t-29.5 -46t-11 -51.5v-4h425h2h299v4q0 26 -11 51.5t-29.5 46t-43.5 33t-53 12.5h-452zM761 351h-279
v-181q-3 -6 -9.5 -14.5t-12.5 -8.5h-124q-13 0 -17 9t-5 14v181h-279v-228q0 -24 12 -46t30.5 -39t41.5 -27.5t46 -10.5h466q23 0 46 10.5t42 27.5t30.5 39t11.5 46v228z" />
    <glyph glyph-name="FL00D7h" unicode="&#xd7;" horiz-adv-x="408" 
d="M328 403l22 -22h-107l-22 22h-10l61 60l60 -60h-4zM193 403l22 -22h-108l-22 22h-10l62 61l60 -61h-4zM387 344l23 -23l-65 -65l44 -45l-2 -2l23 -23l-113 -113l-23 23l-2 -2l-45 45l-66 -67l-23 23l-2 -2l-117 117l68 69l-68 68l15 15h339l16 -16zM305 414l-33 33
l-34 -33h67zM170 414l-33 34l-35 -34h68zM373 346l-5 5h-329l-4 -4l68 -68l-68 -69l101 -101l68 69l68 -68l101 101l-67 68z" />
    <glyph glyph-name="FL00D8h" unicode="&#xd8;" 
d="M460 158q2 0 5.5 5t5.5 10v21l-39 -36h28zM624 572q36 0 67 -18.5t51 -47.5l5 -5q22 -22 34.5 -50.5t12.5 -57.5v-12h-742l-22 22h-6v15q0 28 11.5 55.5t32 49.5t47.5 35.5t57 13.5h452zM772 356l22 -22v-236q0 -25 -12.5 -48.5t-32 -42t-44.5 -29.5t-49 -11h-466
q-26 0 -52 12.5t-46 32.5l-4 3q-27 20 -45.5 48t-18.5 60v239h301v-6l16 -17l23 23h408v-6zM482 170q-3 -6 -9.5 -14.5t-12.5 -8.5h-102l124 117v-94zM172 561q-28 0 -53 -12.5t-43.5 -33t-29.5 -46t-11 -51.5v-4h726v4q0 26 -11 51.5t-29.5 46t-43.5 33t-53 12.5h-452z
M761 351h-392l-55 -55v55h-279v-228q0 -24 12 -46t30.5 -39t41.5 -27.5t46 -10.5h466q23 0 46 10.5t42 27.5t30.5 39t11.5 46v228z" />
    <glyph glyph-name="FL00D9h" unicode="&#xd9;" 
d="M436 772l11 -10q3 -3 4 -5l39 -53q8 -10 12.5 -18t4.5 -19v-11q0 -13 -2.5 -22t-14.5 -21q-25 -22 -53 -22q-26 0 -42 16l-13 13q-11 4 -18 15l-41 47q-10 12 -15 20.5t-5 21.5q0 16 4.5 30t16.5 27h-1q17 17 30 20.5t28 3.5q32 0 47 -21zM772 572v-6l22 -22v-163h-295
l-22 22h-6v169h301zM326 572v-6l22 -22v-163h-296l-22 22h-6v169h302zM326 356l22 -22v-176h123v204h301v-6l22 -22v-367h-604q-26 0 -51.5 13t-45.5 33l-2 2q-29 20 -48 48.5t-19 59.5v239h302v-6zM420 777q-14 17 -39 17q-13 0 -23.5 -2.5t-21.5 -13.5q-12 -11 -17 -25
t-5 -29q0 -11 4 -17.5t11 -14.5l43 -50q15 -18 40 -18t48 20q10 10 12 18t2 19v11q0 10 -4 17t-11 15zM482 561v-147h279v147h-279zM35 561v-147h280v147h-280zM315 351h-280v-228q0 -23 12 -45t30.5 -39t41.5 -28t46 -11h596v351h-279v-204h-146q-11 0 -14.5 8.5t-6.5 14.5
v181z" />
    <glyph glyph-name="FL00DAh" unicode="&#xda;" 
d="M368 784q15 21 47 21q15 0 28 -3.5t30 -20.5h-1l9 -12l10 -10h-1q14 -13 19.5 -28t5.5 -32q0 -12 -5 -20.5t-14 -19.5h-1l-40 -47q-18 -21 -46 -21q-29 0 -54 22l-12 11q-8 4 -15 12q-12 12 -14.5 21.5t-2.5 23.5v11q0 12 5 20t13 19zM772 572v-6l22 -22v-163h-295
l-22 22h-6v169h301zM326 572v-6l22 -22v-163h-296l-22 22h-6v169h302zM326 356l22 -22v-176h123v204h301v-6l22 -22v-367h-604q-26 0 -51.5 13t-45.5 33l-2 2q-29 20 -48 48.5t-19 59.5v239h302v-6zM337 724q-7 -8 -11 -15t-4 -17v-11q0 -11 2 -19t12 -18q23 -20 48 -20
t40 18l43 50q7 8 11 14.5t4 17.5q0 15 -5 29t-17 25q-11 11 -21.5 13.5t-23.5 2.5q-25 0 -39 -17zM482 561v-147h279v147h-279zM35 561v-147h280v147h-280zM315 351h-280v-228q0 -23 12 -45t30.5 -39t41.5 -28t46 -11h596v351h-279v-204h-146q-11 0 -14.5 8.5t-6.5 14.5v181
z" />
    <glyph glyph-name="FL00DBh" unicode="&#xdb;" 
d="M772 572v-6l22 -22v-163h-295l-22 22h-6v169h301zM326 572v-6l22 -22v-163h-296l-22 22h-6v169h302zM170 615h-9l144 188h187l12 -17l12 -11l138 -182h-189l-22 22h-4l-22 29l-36 -51h-189zM326 356l22 -22v-176h123v204h301v-6l22 -22v-367h-604q-26 0 -51.5 13
t-45.5 33l-2 2q-29 20 -48 48.5t-19 59.5v239h302v-6zM482 561v-147h279v147h-279zM35 561v-147h280v147h-280zM352 626l46 64l46 -64h169l-126 166h-177l-127 -166h169zM315 351h-280v-228q0 -23 12 -45t30.5 -39t41.5 -28t46 -11h596v351h-279v-204h-146q-11 0 -14.5 8.5
t-6.5 14.5v181z" />
    <glyph glyph-name="FL00DCh" unicode="&#xdc;" 
d="M772 572v-6l22 -22v-163h-295l-22 22h-6v169h301zM326 572v-6l22 -22v-163h-296l-22 22h-6v169h302zM171 709q0 19 8 36t22.5 29.5t34.5 19.5t44 7q34 0 59.5 -14.5t38.5 -37.5l8 -7q7 -8 12.5 -16t8.5 -17q0 19 8 36t22.5 29.5t34.5 19.5t44 7q34 0 59.5 -14.5
t38.5 -37.5l8 -7q25 -25 25 -58q0 -20 -8.5 -36.5t-22.5 -28.5t-33.5 -18.5t-41.5 -6.5q-25 0 -46 8.5t-35 22.5l-7 7q-31 17 -42 50q-1 -38 -31.5 -63t-74.5 -25q-25 0 -46 8.5t-35 22.5l-7 7q-21 12 -33.5 32t-12.5 45zM326 356l22 -22v-176h123v204h301v-6l22 -22v-367
h-604q-26 0 -51.5 13t-45.5 33l-2 2q-29 20 -48 48.5t-19 59.5v239h302v-6zM614 709q0 34 -28 57.5t-70 23.5t-70 -23.5t-28 -57.5q0 -35 28.5 -58.5t69.5 -23.5t69.5 23.5t28.5 58.5zM182 709q0 -35 28.5 -58.5t69.5 -23.5t69.5 23.5t28.5 58.5q0 34 -28 57.5t-70 23.5
t-70 -23.5t-28 -57.5zM482 561v-147h279v147h-279zM35 561v-147h280v147h-280zM315 351h-280v-228q0 -23 12 -45t30.5 -39t41.5 -28t46 -11h596v351h-279v-204h-146q-11 0 -14.5 8.5t-6.5 14.5v181z" />
    <glyph glyph-name="FL00DDh" unicode="&#xdd;" horiz-adv-x="783" 
d="M356 784q15 21 47 21q15 0 28 -3.5t30 -20.5h-1l9 -12l10 -10h-1q14 -13 19.5 -28t5.5 -32q0 -11 -4.5 -19.5t-12.5 -18.5l-2 -2h-1l-40 -47q-18 -21 -46 -21q-29 0 -54 22l-12 11q-8 4 -15 12q-12 12 -14.5 21.5t-2.5 23.5v11q0 12 5 20t13 19zM326 572v-6l22 -22v-163
h-296l-22 22h-6v169h302zM759 572v-6l22 -22v-163h-297l-22 22h-6v169h303zM446 361l1 1h312v-6l22 -22v-215q0 -32 -8.5 -60t-24.5 -48.5t-38.5 -32t-50.5 -11.5h-602l-22 22h-6v169h401q22 1 25 16h-265q-26 0 -51.5 13t-45.5 33l-2 2q-29 20 -48 48.5t-19 59.5v32h311
l1 -1h110zM325 724q-7 -8 -11 -15t-4 -17v-11q0 -11 2 -19t12 -18q23 -20 48 -20t40 18l43 50q7 8 11 14.5t4 17.5q0 15 -5 29t-17 25q-11 11 -21.5 13.5t-23.5 2.5q-25 0 -39 -17zM35 561v-147h280v147h-280zM467 561v-147h281v147h-281zM336 350q-5 0 -6 1h-295v-21
q0 -23 12 -45t30.5 -39t41.5 -28t46 -11h302v-23q0 -20 -8 -27.5t-28 -9.5h-391v-147h594q26 0 47 11t36 30.5t23 46t8 56.5v207h-296q-1 -1 -4 -1h-112z" />
    <glyph glyph-name="FL00DEh" unicode="&#xde;" 
d="M348 239h98q14 0 22 15.5t8 29.5q0 10 -4 21h-124v-66zM24 572h302v-6l22 -22v-48h262q37 0 65.5 -17.5t50.5 -45.5l8 -7q10 -10 18 -21.5t15 -23.5h-715l-22 22h-6v169zM761 362q2 -6 2 -8l21 -20q7 -22 8.5 -38t1.5 -31q0 -39 -8 -78t-27 -70t-49 -50t-74 -19h-288v-81
h-296l-22 22h-6v373h737zM452 338q9 0 16 -6t11 -14.5t6 -17.5t2 -16q0 -8 -3 -18t-8 -18.5t-12.5 -14t-17.5 -5.5h-131v110h137zM35 414h693q-17 30 -46 50.5t-72 20.5h-295v76h-280v-147zM35 351v-351h280v81h296q42 0 70.5 18.5t46 48t25.5 67t8 75.5q0 14 -1.5 29
t-6.5 32h-718z" />
    <glyph glyph-name="FL00DFh" unicode="&#xdf;" horiz-adv-x="735" 
d="M30 403h-6v169h524q38 0 68.5 -18.5t51.5 -47.5l6 -5q24 -24 38.5 -56t18.5 -64h-679zM389 361h6q4 0 6 1h309q-1 -2 -1 -3t-1 -3l23 -22q-6 -23 -14.5 -42t-21.5 -33q22 -23 30 -52.5t8 -61.5q0 -30 -8 -61.5t-27 -57.5t-49 -42.5t-75 -16.5h-195l-22 22h-6v169h40
q22 0 24 20h-36l-22 22h-6v161h38zM326 356l22 -22v-505h-296l-22 22h-6v511h302v-6zM697 414q-3 25 -14.5 51.5t-30.5 47.5t-45 34.5t-59 13.5h-513v-147h355h5h302zM362 350v-139h28q21 0 28.5 -7t7.5 -23q0 -14 -8 -24t-27 -10h-29v-147h187q42 0 71 16t47 41t25.5 55
t7.5 58q0 32 -8.5 63t-32.5 52q14 11 22.5 28.5t13.5 37.5h-290q-3 -1 -16 -1h-27zM315 351h-280v-489h280v489z" />
    <glyph glyph-name="FL00E0h" unicode="&#xe0;" horiz-adv-x="934" 
d="M679 770l7 -7q0 1 -1 1v1l3 -3q3 -3 4 -5l39 -53q8 -10 12.5 -18t4.5 -19v-11q0 -13 -2.5 -22t-14.5 -21q-25 -22 -53 -22q-26 0 -42 16l-13 13q-11 4 -18 15l-41 47q-10 12 -15 20.5t-5 21.5q0 16 4.5 30t16.5 27h-1q17 17 30 20.5t28 3.5q32 0 47 -21zM327 403h-9
l84 109l1 1q4 6 13.5 16t21.5 19.5t24.5 16.5t24.5 7h423v-6l22 -22v-163h-583zM9 -12h-9l287 374h623v-6l22 -22v-367h-295l-22 22h-6v290l-230 -313h-348zM661 777q-14 17 -39 17q-13 0 -23.5 -2.5t-21.5 -13.5q-12 -11 -17 -25t-5 -29q0 -11 4 -17.5t11 -14.5l43 -50
q15 -18 40 -18t48 20q10 10 12 18t2 19v11q0 10 -4 17t-11 15zM899 414v147h-412q-10 0 -22 -6.5t-22.5 -15.5t-19 -18t-12.5 -15l-71 -92h559zM350 -1l246 334q3 5 5 7t7 2q3 -2 7.5 -4t4.5 -3v-335h279v351h-607l-270 -352h328z" />
    <glyph glyph-name="FL00E1h" unicode="&#xe1;" horiz-adv-x="934" 
d="M630 784q15 21 47 21q15 0 28 -3.5t30 -20.5h-1l9 -12l10 -10q-1 1 -2 1l-1 1l3 -2h-1q14 -13 19.5 -28t5.5 -32q0 -11 -4.5 -19.5t-12.5 -18.5l-2 -2h-1l-40 -47q-18 -21 -46 -21q-29 0 -54 22l-12 11q-8 4 -15 12q-12 12 -14.5 21.5t-2.5 23.5v11q0 12 5 20t13 19z
M327 403h-9l84 109l1 1q4 6 13.5 16t21.5 19.5t24.5 16.5t24.5 7h423v-6l22 -22v-163h-583zM9 -12h-9l287 374h623v-6l22 -22v-367h-295l-22 22h-6v290l-230 -313h-348zM599 724q-7 -8 -11 -15t-4 -17v-11q0 -11 2 -19t12 -18q23 -20 48 -20t40 18l43 50q7 8 11 14.5t4 17.5
q0 15 -5 29t-17 25q-11 11 -21.5 13.5t-23.5 2.5q-25 0 -39 -17zM899 414v147h-412q-10 0 -22 -6.5t-22.5 -15.5t-19 -18t-12.5 -15l-71 -92h559zM350 -1l246 334q3 5 5 7t7 2q3 -2 7.5 -4t4.5 -3v-335h279v351h-607l-270 -352h328z" />
    <glyph glyph-name="FL00E2h" unicode="&#xe2;" horiz-adv-x="934" 
d="M672 644l-36 -51h-189l-22 22h-9l144 188h187l12 -17l12 -11l138 -182h-189l-22 22h-4zM327 403h-9l84 109l1 1q4 6 13.5 16t21.5 19.5t24.5 16.5t24.5 7h423v-6l22 -22v-163h-583zM9 -12h-9l287 374h623v-6l22 -22v-367h-295l-22 22h-6v290l-230 -313h-348zM653 690
l46 -64h169l-126 166h-177l-127 -166h169zM899 414v147h-412q-10 0 -22 -6.5t-22.5 -15.5t-19 -18t-12.5 -15l-71 -92h559zM350 -1l246 334q3 5 5 7t7 2q3 -2 7.5 -4t4.5 -3v-335h279v351h-607l-270 -352h328z" />
    <glyph glyph-name="FL00E3h" unicode="&#xe3;" horiz-adv-x="934" 
d="M895 803l-4 -5l23 -23l-139 -182h-119l-22 22h-4l-22 28l-35 -50h-190l-22 22h-9l144 188h121l11 -16l13 -12l18 -26l39 54h197zM402 512l1 1q4 6 13.5 16t21.5 19.5t24.5 16.5t24.5 7h423v-6l22 -22v-163h-583l-22 22h-9zM9 -12h-9l287 374h623v-6l22 -22v-367h-295
l-22 22h-6v290l-230 -313h-348zM704 792l-45 -63l-47 63h-111l-127 -166h169l45 63l47 -63h111l127 166h-169zM340 414h559v147h-412q-10 0 -22 -6.5t-22.5 -15.5t-19 -18t-12.5 -15zM596 333q3 5 5 7t7 2q3 -2 7.5 -4t4.5 -3v-335h279v351h-607l-270 -352h328z" />
    <glyph glyph-name="FL00E4h" unicode="&#xe4;" horiz-adv-x="934" 
d="M440 709q0 19 8 36t22.5 29.5t34.5 19.5t44 7q34 0 59.5 -14.5t38.5 -37.5l8 -7q7 -8 12.5 -16t8.5 -17q0 19 8 36t22.5 29.5t34.5 19.5t44 7q34 0 59.5 -14.5t38.5 -37.5l8 -7q25 -25 25 -58q0 -20 -8.5 -36.5t-22.5 -28.5t-33.5 -18.5t-41.5 -6.5q-25 0 -46 8.5
t-35 22.5l-7 7q-31 17 -42 50q-1 -38 -31.5 -63t-74.5 -25q-25 0 -46 8.5t-35 22.5l-7 7q-21 12 -33.5 32t-12.5 45zM327 403h-9l84 109l1 1q4 6 13.5 16t21.5 19.5t24.5 16.5t24.5 7h423v-6l22 -22v-163h-583zM9 -12h-9l287 374h623v-6l22 -22v-367h-295l-22 22h-6v290
l-230 -313h-348zM451 709q0 -35 28.5 -58.5t69.5 -23.5t69.5 23.5t28.5 58.5q0 34 -28 57.5t-70 23.5t-70 -23.5t-28 -57.5zM883 709q0 34 -28 57.5t-70 23.5t-70 -23.5t-28 -57.5q0 -35 28.5 -58.5t69.5 -23.5t69.5 23.5t28.5 58.5zM899 414v147h-412q-10 0 -22 -6.5
t-22.5 -15.5t-19 -18t-12.5 -15l-71 -92h559zM350 -1l246 334q3 5 5 7t7 2q3 -2 7.5 -4t4.5 -3v-335h279v351h-607l-270 -352h328z" />
    <glyph glyph-name="FL00E5h" unicode="&#xe5;" horiz-adv-x="934" 
d="M548 709q0 19 8 36t22.5 29.5t34.5 19.5t44 7q34 0 59.5 -14.5t38.5 -37.5l8 -7q25 -25 25 -58q0 -20 -8.5 -36.5t-22.5 -28.5t-33.5 -18.5t-41.5 -6.5q-25 0 -46 8.5t-35 22.5l-7 7q-21 12 -33.5 32t-12.5 45zM402 512l1 1q4 6 13.5 16t21.5 19.5t24.5 16.5t24.5 7h423
v-6l22 -22v-163h-583l-22 22h-9zM9 -12h-9l287 374h623v-6l22 -22v-367h-295l-22 22h-6v290l-230 -313h-348zM622 709q0 9 10 15t24 6t24 -6t10 -15t-10 -15.5t-24 -6.5t-24 6.5t-10 15.5zM559 709q0 -35 28.5 -58.5t69.5 -23.5t69.5 23.5t28.5 58.5q0 34 -28 57.5t-70 23.5
t-70 -23.5t-28 -57.5zM340 414h559v147h-412q-10 0 -22 -6.5t-22.5 -15.5t-19 -18t-12.5 -15zM596 333q3 5 5 7t7 2q3 -2 7.5 -4t4.5 -3v-335h279v351h-607l-270 -352h328z" />
    <glyph glyph-name="FL00E6h" unicode="&#xe6;" horiz-adv-x="1301" 
d="M327 403h-9l84 109l1 1q4 6 13.5 16t21.5 19.5t24.5 16.5t24.5 7h790v-6l22 -22v-163h-950zM948 175q-1 -1 -5 -6.5t-7 -10.5h341v-6l22 -22v-163h-662l-22 22h-6v290l-230 -313h-348l-22 22h-9l287 374h990v-6l22 -22v-159h-351zM1266 414v147h-779q-10 0 -22 -6.5
t-22.5 -15.5t-19 -18t-12.5 -15l-71 -92h926zM350 -1l246 334q3 5 5 7t7 2q3 -2 7.5 -4t4.5 -3v-335h646v147h-342q-2 0 -10 8.5t-11 14.5q0 1 -0.5 3t-0.5 4t0.5 4t0.5 3q3 6 11 15t10 9h342v143h-335h-3h-636l-270 -352h328z" />
    <glyph glyph-name="FL00E7h" unicode="&#xe7;" horiz-adv-x="713" 
d="M30 403h-6v15q0 28 11.5 55.5t32 49.5t47.5 35.5t57 13.5h517v-6l22 -22v-163h-659zM348 158h335v-6l22 -22v-163h-197v-157h-232l-22 22h-6v135h-58q-26 0 -52 12.5t-46 32.5l-4 3q-27 20 -45.5 48t-18.5 60v239h302v-6l22 -22v-176zM678 414v147h-506q-28 0 -53 -12.5
t-43.5 -33t-29.5 -46t-11 -51.5v-4h643zM475 0h197v147h-336q-8 0 -14 6.5t-7 16.5v181h-280v-228q0 -24 12 -46t30.5 -39t41.5 -27.5t46 -10.5h177v-42h-83v-115h216v157z" />
    <glyph glyph-name="FL00E8h" unicode="&#xe8;" horiz-adv-x="713" 
d="M395 770l7 -7q0 1 -1 1v1l3 -3q3 -3 4 -5l39 -53q8 -10 12.5 -18t4.5 -19v-11q0 -13 -2.5 -22t-14.5 -21q-25 -22 -53 -22q-26 0 -42 16l-13 13q-11 4 -18 15l-41 47q-10 12 -15 20.5t-5 21.5q0 16 4.5 30t16.5 27h-1q17 17 30 20.5t28 3.5q32 0 47 -21zM689 572v-6
l22 -22v-163h-659l-22 22h-6v15q0 28 11.5 55.5t32 49.5t47.5 35.5t57 13.5h517zM689 362v-6l22 -22v-159h-351q-1 -1 -5 -6.5t-7 -10.5h341v-6l22 -22v-163h-521q-26 0 -52 12.5t-46 32.5l-4 3q-27 20 -45.5 48t-18.5 60v239h665zM377 777q-14 17 -39 17q-13 0 -23.5 -2.5
t-21.5 -13.5q-12 -11 -17 -25t-5 -29q0 -11 4 -17.5t11 -14.5l43 -50q15 -18 40 -18t48 20q10 10 12 18t2 19v11q0 10 -4 17t-11 15zM172 561q-28 0 -53 -12.5t-43.5 -33t-29.5 -46t-11 -51.5v-4h299h2h342v147h-506zM35 351v-228q0 -24 12 -46t30.5 -39t41.5 -27.5
t46 -10.5h513v147h-342q-2 0 -10 8.5t-11 14.5q0 1 -0.5 3t-0.5 4t0.5 4t0.5 3q3 6 11 15t10 9h342v143h-643z" />
    <glyph glyph-name="FL00E9h" unicode="&#xe9;" horiz-adv-x="713" 
d="M360 784q15 21 47 21q15 0 28 -3.5t30 -20.5h-1l9 -12l10 -10h-1q14 -13 19.5 -28t5.5 -32q0 -12 -5 -20.5t-14 -19.5h-1l-40 -47q-18 -21 -46 -21q-29 0 -54 22l-12 11q-8 4 -15 12q-12 12 -14.5 21.5t-2.5 23.5v11q0 12 5 20t13 19zM689 572v-6l22 -22v-163h-659
l-22 22h-6v15q0 28 11.5 55.5t32 49.5t47.5 35.5t57 13.5h517zM689 362v-6l22 -22v-159h-351q-1 -1 -5 -6.5t-7 -10.5h341v-6l22 -22v-163h-521q-26 0 -52 12.5t-46 32.5l-4 3q-27 20 -45.5 48t-18.5 60v239h665zM329 724q-7 -8 -11 -15t-4 -17v-11q0 -11 2 -19t12 -18
q23 -20 48 -20t40 18l43 50q7 8 11 14.5t4 17.5q0 15 -5 29t-17 25q-11 11 -21.5 13.5t-23.5 2.5q-25 0 -39 -17zM172 561q-28 0 -53 -12.5t-43.5 -33t-29.5 -46t-11 -51.5v-4h643v147h-506zM35 351v-228q0 -24 12 -46t30.5 -39t41.5 -27.5t46 -10.5h513v147h-342
q-2 0 -10 8.5t-11 14.5q0 1 -0.5 3t-0.5 4t0.5 4t0.5 3q3 6 11 15t10 9h342v143h-335h-3h-305z" />
    <glyph glyph-name="FL00EAh" unicode="&#xea;" horiz-adv-x="713" 
d="M379 644l-36 -51h-189l-22 22h-9l144 188h187l12 -17l12 -11l138 -182h-189l-22 22h-4zM689 572v-6l22 -22v-163h-659l-22 22h-6v15q0 28 11.5 55.5t32 49.5t47.5 35.5t57 13.5h517zM689 362v-6l22 -22v-159h-350l-22 22l21 -22q-1 -1 -5 -6.5t-7 -10.5h341v-6l22 -22
v-163h-521q-26 0 -52 12.5t-46 32.5l-4 3q-27 20 -45.5 48t-18.5 60v239h665zM360 690l46 -64h169l-126 166h-177l-127 -166h169zM172 561q-28 0 -53 -12.5t-43.5 -33t-29.5 -46t-11 -51.5v-4h299h2h342v147h-506zM35 351v-228q0 -24 12 -46t30.5 -39t41.5 -27.5t46 -10.5
h513v147h-342q-2 0 -10 8.5t-11 14.5q0 1 -0.5 3t-0.5 4t0.5 4t0.5 3q3 6 11 15t10 9h342v143h-335h-3h-305z" />
    <glyph glyph-name="FL00EBh" unicode="&#xeb;" horiz-adv-x="713" 
d="M133 709q0 19 8 36t22.5 29.5t34.5 19.5t44 7q34 0 59.5 -14.5t38.5 -37.5l8 -7q7 -8 12.5 -16t8.5 -17q0 19 8 36t22.5 29.5t34.5 19.5t44 7q34 0 59.5 -14.5t38.5 -37.5l8 -7q25 -25 25 -58q0 -20 -8.5 -36.5t-22.5 -28.5t-33.5 -18.5t-41.5 -6.5q-25 0 -46 8.5
t-35 22.5l-7 7q-31 17 -42 50q-1 -38 -31.5 -63t-74.5 -25q-25 0 -46 8.5t-35 22.5l-7 7q-21 12 -33.5 32t-12.5 45zM689 572v-6l22 -22v-163h-659l-22 22h-6v15q0 28 11.5 55.5t32 49.5t47.5 35.5t57 13.5h517zM689 362v-6l22 -22v-159h-350q-1 0 -5.5 -6t-7.5 -11h341v-6
l22 -22v-163h-521q-26 0 -52 12.5t-46 32.5l-4 3q-27 20 -45.5 48t-18.5 60v239h665zM144 709q0 -35 28.5 -58.5t69.5 -23.5t69.5 23.5t28.5 58.5q0 34 -28 57.5t-70 23.5t-70 -23.5t-28 -57.5zM576 709q0 34 -28 57.5t-70 23.5t-70 -23.5t-28 -57.5q0 -35 28.5 -58.5
t69.5 -23.5t69.5 23.5t28.5 58.5zM172 561q-28 0 -53 -12.5t-43.5 -33t-29.5 -46t-11 -51.5v-4h299h2h342v147h-506zM35 351v-228q0 -24 12 -46t30.5 -39t41.5 -27.5t46 -10.5h513v147h-342q-2 0 -10 8.5t-11 14.5q0 1 -0.5 3t-0.5 4t0.5 4t0.5 3q3 6 11 15t10 9h342v143
h-643z" />
    <glyph glyph-name="FL00ECh" unicode="&#xec;" horiz-adv-x="350" 
d="M214 772l11 -10h-1q0 1 -1 1l2 -1q3 -3 4 -5l39 -53q8 -10 12.5 -18t4.5 -19v-11q0 -13 -2.5 -22t-14.5 -21q-25 -22 -53 -22q-26 0 -42 16l-13 13q-11 4 -18 15l-41 47q-10 12 -15 20.5t-5 21.5q0 16 4.5 30t16.5 27h-1q17 17 30 20.5t28 3.5q32 0 47 -21zM24 572h302
v-6l22 -22v-163h-296l-22 22h-6v169zM326 356l22 -22v-367h-296l-22 22h-6v373h302v-6zM198 777q-14 17 -39 17q-13 0 -23.5 -2.5t-21.5 -13.5q-12 -11 -17 -25t-5 -29q0 -11 4 -17.5t11 -14.5l43 -50q15 -18 40 -18t48 20q10 10 12 18t2 19v11q0 10 -4 17t-11 15zM35 414
h280v147h-280v-147zM315 351h-280v-351h280v351z" />
    <glyph glyph-name="FL00EDh" unicode="&#xed;" horiz-adv-x="350" 
d="M144 784q15 21 47 21q15 0 28 -3.5t30 -20.5h-1l9 -12l10 -10h-1q14 -13 19.5 -28t5.5 -32q0 -12 -5 -20.5t-14 -19.5h-1l-40 -47q-18 -21 -46 -21q-29 0 -54 22l-12 11q-8 4 -15 12q-12 12 -14.5 21.5t-2.5 23.5v11q0 12 5 20t13 19zM24 572h302v-6l22 -22v-163h-296
l-22 22h-6v169zM326 356l22 -22v-367h-296l-22 22h-6v373h302v-6zM113 724q-7 -8 -11 -15t-4 -17v-11q0 -11 2 -19t12 -18q23 -20 48 -20t40 18l43 50q7 8 11 14.5t4 17.5q0 15 -5 29t-17 25q-11 11 -21.5 13.5t-23.5 2.5q-25 0 -39 -17zM35 414h280v147h-280v-147zM315 351
h-280v-351h280v351z" />
    <glyph glyph-name="FL00EEh" unicode="&#xee;" horiz-adv-x="350" 
d="M24 572h302v-6l22 -22v-163h-296l-22 22h-6v169zM192 644l-36 -51h-189l-22 22h-9l144 188h187l12 -17l12 -11l138 -182h-189l-22 22h-4zM326 356l22 -22v-367h-296l-22 22h-6v373h302v-6zM35 414h280v147h-280v-147zM173 690l46 -64h169l-126 166h-177l-127 -166h169z
M315 351h-280v-351h280v351z" />
    <glyph glyph-name="FL00EFh" unicode="&#xef;" horiz-adv-x="350" 
d="M24 572h302v-6l22 -22v-163h-296l-22 22h-6v169zM-51 709q0 19 8 36t22.5 29.5t34.5 19.5t44 7q34 0 59.5 -14.5t38.5 -37.5l8 -7q7 -8 12.5 -16t8.5 -17q0 19 8 36t22.5 29.5t34.5 19.5t44 7q34 0 59.5 -14.5t38.5 -37.5l8 -7q25 -25 25 -58q0 -20 -8.5 -36.5
t-22.5 -28.5t-33.5 -18.5t-41.5 -6.5q-25 0 -46 8.5t-35 22.5l-7 7q-31 17 -42 50q-1 -38 -31.5 -63t-74.5 -25q-25 0 -46 8.5t-35 22.5l-7 7q-21 12 -33.5 32t-12.5 45zM326 356l22 -22v-367h-296l-22 22h-6v373h302v-6zM-40 709q0 -35 28.5 -58.5t69.5 -23.5t69.5 23.5
t28.5 58.5q0 34 -28 57.5t-70 23.5t-70 -23.5t-28 -57.5zM392 709q0 34 -28 57.5t-70 23.5t-70 -23.5t-28 -57.5q0 -35 28.5 -58.5t69.5 -23.5t69.5 23.5t28.5 58.5zM35 414h280v147h-280v-147zM315 351h-280v-351h280v351z" />
    <glyph glyph-name="FL0047h" unicode="&#xf0;" 
d="M347 158h113q3 0 5 3.5t4 8.5q-2 0 1 3v5h-123v-20zM33 403h-6v169h597q36 0 67 -19.5t52 -48.5l4 -4q22 -22 34.5 -50t12.5 -57v-12h-739zM24 253q0 18 8 35t21.5 31t30.5 25.5t35 17.5h653v-6l22 -22v-236q0 -24 -12.5 -47.5t-32.5 -42t-44.5 -30t-48.5 -11.5h-466
q-26 0 -52 12.5t-46 32.5l-3 2q-28 19 -46.5 48t-18.5 61v130zM336 147q-8 0 -13.5 8.5t-8.5 14.5v41h167v-41q-3 -6 -6.5 -14.5t-14.5 -8.5h-124zM761 418q0 26 -11 51.5t-30 46t-43.5 33t-52.5 12.5h-586v-147h723v4zM35 123q0 -24 11.5 -46t30.5 -39t42 -27.5t46 -10.5
h466q22 0 45.5 11t42 28t30.5 39t12 45v228h-638q-17 -6 -32.5 -16t-28 -23t-20 -28t-7.5 -31v-130z" />
    <glyph glyph-name="FL00F1h" unicode="&#xf1;" horiz-adv-x="958" 
d="M934 572v-6l22 -22v-163h-297l-22 22h-6v169h303zM763 803l-4 -5l23 -23l-139 -182h-119l-22 22h-4l-22 28l-35 -50h-190l-22 22h-9l144 188h121l11 -16l13 -12l18 -26l39 54h197zM400 572q15 0 32 -8.5t33 -21t30 -28t25 -29.5q11 -13 20 -25t15 -21l37 -58h-540l-22 22
h-6v169h376zM599 362l9 -14l14 -14l9 -14v42h303v-6l22 -22v-367h-348q-29 0 -54 13.5t-45 33.5q-24 17 -43.5 41t-35.5 47h1l-83 114v-249h-296l-22 22h-6v373h575zM642 561v-147h281v147h-281zM572 792l-45 -63l-47 63h-111l-127 -166h169l45 63l47 -63h111l127 166h-169z
M35 561v-147h517l-29 46q-8 13 -22 30.5t-31 33t-35.5 26.5t-34.5 11h-365zM35 351v-351h280v279l128 -175q12 -17 26.5 -35.5t32 -33.5t38 -25t43.5 -10h340v351h-281v-76l-49 76h-558z" />
    <glyph glyph-name="FL00F2h" unicode="&#xf2;" 
d="M436 772l11 -10q3 -3 4 -5l39 -53q8 -10 12.5 -18t4.5 -19v-11q0 -13 -2.5 -22t-14.5 -21q-25 -22 -53 -22q-26 0 -42 16l-13 13q-11 4 -18 15l-41 47q-10 12 -15 20.5t-5 21.5q0 16 4.5 30t16.5 27h-1q17 17 30 20.5t28 3.5q32 0 47 -21zM624 572q36 0 67 -18.5
t51 -47.5l5 -5q22 -22 34.5 -50.5t12.5 -57.5v-12h-742l-22 22h-6v15q0 28 11.5 55.5t32 49.5t47.5 35.5t57 13.5h452zM772 356l22 -22v-236q0 -25 -12.5 -48.5t-32 -42t-44.5 -29.5t-49 -11h-466q-26 0 -52 12.5t-46 32.5l-4 3q-27 20 -45.5 48t-18.5 60v239h301v-6l22 -22
v-176h113q2 0 5.5 5t5.5 10v189h301v-6zM420 777q-14 17 -39 17q-13 0 -23.5 -2.5t-21.5 -13.5q-12 -11 -17 -25t-5 -29q0 -11 4 -17.5t11 -14.5l43 -50q15 -18 40 -18t48 20q10 10 12 18t2 19v11q0 10 -4 17t-11 15zM172 561q-28 0 -53 -12.5t-43.5 -33t-29.5 -46
t-11 -51.5v-4h726v4q0 26 -11 51.5t-29.5 46t-43.5 33t-53 12.5h-452zM761 351h-279v-181q-3 -6 -9.5 -14.5t-12.5 -8.5h-124q-13 0 -17 9t-5 14v181h-279v-228q0 -24 12 -46t30.5 -39t41.5 -27.5t46 -10.5h466q23 0 46 10.5t42 27.5t30.5 39t11.5 46v228z" />
    <glyph glyph-name="FL00F3h" unicode="&#xf3;" 
d="M368 784q15 21 47 21q15 0 28 -3.5t30 -20.5h-1l9 -12l10 -10h-1q14 -13 19.5 -28t5.5 -32q0 -11 -4.5 -19.5t-12.5 -18.5l-2 -2h-1l-40 -47q-18 -21 -46 -21q-29 0 -54 22l-12 11q-8 4 -15 12q-12 12 -14.5 21.5t-2.5 23.5v11q0 12 5 20t13 19zM624 572q36 0 67 -18.5
t51 -47.5l5 -5q22 -22 34.5 -50.5t12.5 -57.5v-12h-742l-22 22h-6v15q0 28 11.5 55.5t32 49.5t47.5 35.5t57 13.5h452zM772 356l22 -22v-236q0 -25 -12.5 -48.5t-32 -42t-44.5 -29.5t-49 -11h-466q-26 0 -52 12.5t-46 32.5l-4 3q-27 20 -45.5 48t-18.5 60v239h301v-6l22 -22
v-176h113q2 0 5.5 5t5.5 10v189h301v-6zM337 724q-7 -8 -11 -15t-4 -17v-11q0 -11 2 -19t12 -18q23 -20 48 -20t40 18l43 50q7 8 11 14.5t4 17.5q0 15 -5 29t-17 25q-11 11 -21.5 13.5t-23.5 2.5q-25 0 -39 -17zM172 561q-28 0 -53 -12.5t-43.5 -33t-29.5 -46t-11 -51.5v-4
h726v4q0 26 -11 51.5t-29.5 46t-43.5 33t-53 12.5h-452zM761 351h-279v-181q-3 -6 -9.5 -14.5t-12.5 -8.5h-124q-13 0 -17 9t-5 14v181h-279v-228q0 -24 12 -46t30.5 -39t41.5 -27.5t46 -10.5h466q23 0 46 10.5t42 27.5t30.5 39t11.5 46v228z" />
    <glyph glyph-name="FL00F4h" unicode="&#xf4;" 
d="M417 644l-36 -51h-189l-22 22h-9l144 188h187l12 -17l12 -11l138 -182h-189l-22 22h-4zM624 572q36 0 67 -18.5t51 -47.5l5 -5q22 -22 34.5 -50.5t12.5 -57.5v-12h-742l-22 22h-6v15q0 28 11.5 55.5t32 49.5t47.5 35.5t57 13.5h452zM772 356l22 -22v-236
q0 -25 -12.5 -48.5t-32 -42t-44.5 -29.5t-49 -11h-466q-26 0 -52 12.5t-46 32.5l-4 3q-27 20 -45.5 48t-18.5 60v239h301v-6l22 -22v-176h113q2 0 5.5 5t5.5 10v189h301v-6zM398 690l46 -64h169l-126 166h-177l-127 -166h169zM172 561q-28 0 -53 -12.5t-43.5 -33t-29.5 -46
t-11 -51.5v-4h425h2h299v4q0 26 -11 51.5t-29.5 46t-43.5 33t-53 12.5h-452zM761 351h-279v-181q-3 -6 -9.5 -14.5t-12.5 -8.5h-124q-13 0 -17 9t-5 14v181h-279v-228q0 -24 12 -46t30.5 -39t41.5 -27.5t46 -10.5h466q23 0 46 10.5t42 27.5t30.5 39t11.5 46v228z" />
    <glyph glyph-name="FL00F5h" unicode="&#xf5;" 
d="M670 803l-4 -5l23 -23l-139 -182h-119l-22 22h-4l-22 28l-35 -50h-190l-22 22h-9l144 188h121l11 -16l13 -12l18 -26l39 54h197zM624 572q36 0 67 -18.5t51 -47.5l5 -5q22 -22 34.5 -50.5t12.5 -57.5v-12h-742l-22 22h-6v15q0 28 11.5 55.5t32 49.5t47.5 35.5t57 13.5
h452zM325 356l22 -22v-176h113q2 0 5.5 5t5.5 10v189h301v-6l22 -22v-236q0 -25 -12.5 -48.5t-32 -42t-44.5 -29.5t-49 -11h-466q-26 0 -52 12.5t-46 32.5l-4 3q-27 20 -45.5 48t-18.5 60v239h301v-6zM479 792l-45 -63l-47 63h-111l-127 -166h169l45 63l47 -63h111l127 166
h-169zM172 561q-28 0 -53 -12.5t-43.5 -33t-29.5 -46t-11 -51.5v-4h726v4q0 26 -11 51.5t-29.5 46t-43.5 33t-53 12.5h-452zM314 351h-279v-228q0 -24 12 -46t30.5 -39t41.5 -27.5t46 -10.5h466q23 0 46 10.5t42 27.5t30.5 39t11.5 46v228h-279v-181q-3 -6 -9.5 -14.5
t-12.5 -8.5h-124q-13 0 -17 9t-5 14v181z" />
    <glyph glyph-name="FL00F6h" unicode="&#xf6;" 
d="M171 709q0 19 8 36t22.5 29.5t34.5 19.5t44 7q34 0 59.5 -14.5t38.5 -37.5l8 -7q7 -8 12.5 -16t8.5 -17q0 19 8 36t22.5 29.5t34.5 19.5t44 7q34 0 59.5 -14.5t38.5 -37.5l8 -7q25 -25 25 -58q0 -20 -8.5 -36.5t-22.5 -28.5t-33.5 -18.5t-41.5 -6.5q-25 0 -46 8.5
t-35 22.5l-7 7q-31 17 -42 50q-1 -38 -31.5 -63t-74.5 -25q-25 0 -46 8.5t-35 22.5l-7 7q-21 12 -33.5 32t-12.5 45zM624 572q36 0 67 -18.5t51 -47.5l5 -5q22 -22 34.5 -50.5t12.5 -57.5v-12h-742l-22 22h-6v15q0 28 11.5 55.5t32 49.5t47.5 35.5t57 13.5h452zM772 356
l22 -22v-236q0 -25 -12.5 -48.5t-32 -42t-44.5 -29.5t-49 -11h-466q-26 0 -52 12.5t-46 32.5l-4 3q-27 20 -45.5 48t-18.5 60v239h301v-6l22 -22v-176h113q2 0 5.5 5t5.5 10v189h301v-6zM614 709q0 34 -28 57.5t-70 23.5t-70 -23.5t-28 -57.5q0 -35 28.5 -58.5t69.5 -23.5
t69.5 23.5t28.5 58.5zM182 709q0 -35 28.5 -58.5t69.5 -23.5t69.5 23.5t28.5 58.5q0 34 -28 57.5t-70 23.5t-70 -23.5t-28 -57.5zM172 561q-28 0 -53 -12.5t-43.5 -33t-29.5 -46t-11 -51.5v-4h425h2h299v4q0 26 -11 51.5t-29.5 46t-43.5 33t-53 12.5h-452zM761 351h-279
v-181q-3 -6 -9.5 -14.5t-12.5 -8.5h-124q-13 0 -17 9t-5 14v181h-279v-228q0 -24 12 -46t30.5 -39t41.5 -27.5t46 -10.5h466q23 0 46 10.5t42 27.5t30.5 39t11.5 46v228z" />
    <glyph glyph-name="FL00F7h" unicode="&#xf7;" horiz-adv-x="467" 
d="M146 463q0 18 7 33t19 26.5t28.5 18t35.5 6.5q26 0 47.5 -12.5t32.5 -32.5l9 -9q23 -21 23 -55q0 -16 -7 -30.5t-18 -26.5h-125l-22 22h-4q-14 15 -20 30t-6 30zM146 103q0 23 11.5 42t31.5 30h-137l-22 22h-6v165h419v-6l22 -22v-159h-183q22 -13 34 -33l9 -9
q23 -21 23 -55t-25.5 -58t-61.5 -24q-38 0 -64 26l-9 8q-19 11 -30.5 30.5t-11.5 42.5zM157 463q0 -29 19 -49h119q9 10 14.5 22.5t5.5 26.5q0 31 -23 52t-56 21t-56 -21t-23 -52zM157 103q0 -31 23 -52.5t56 -21.5t56 21.5t23 52.5t-23 52t-56 21t-56 -21t-23 -52zM432 208
v143h-397v-143h397z" />
    <glyph glyph-name="FL00F8h" unicode="&#xf8;" 
d="M460 158q2 0 5.5 5t5.5 10v21l-39 -36h28zM624 572q36 0 67 -18.5t51 -47.5l5 -5q22 -22 34.5 -50.5t12.5 -57.5v-12h-742l-22 22h-6v15q0 28 11.5 55.5t32 49.5t47.5 35.5t57 13.5h452zM772 356l22 -22v-236q0 -25 -12.5 -48.5t-32 -42t-44.5 -29.5t-49 -11h-466
q-26 0 -52 12.5t-46 32.5l-4 3q-27 20 -45.5 48t-18.5 60v239h301v-6l16 -17l23 23h408v-6zM482 170q-3 -6 -9.5 -14.5t-12.5 -8.5h-102l124 117v-94zM172 561q-28 0 -53 -12.5t-43.5 -33t-29.5 -46t-11 -51.5v-4h726v4q0 26 -11 51.5t-29.5 46t-43.5 33t-53 12.5h-452z
M761 351h-392l-55 -55v55h-279v-228q0 -24 12 -46t30.5 -39t41.5 -27.5t46 -10.5h466q23 0 46 10.5t42 27.5t30.5 39t11.5 46v228z" />
    <glyph glyph-name="FL00F9h" unicode="&#xf9;" 
d="M438 770l7 -7q0 1 -1 1v1l3 -3q3 -3 4 -5l39 -53q8 -10 12.5 -18t4.5 -19v-11q0 -13 -2.5 -22t-14.5 -21q-25 -22 -53 -22q-26 0 -42 16l-13 13q-11 4 -18 15l-41 47q-10 12 -15 20.5t-5 21.5q0 16 4.5 30t16.5 27h-1q17 17 30 20.5t28 3.5q32 0 47 -21zM30 403h-6v169
h301v-6l22 -22v-163h-295zM476 403h-6v169h302v-6l22 -22v-163h-296zM469 170q-2 0 1 3v189h302v-6l22 -22v-236q0 -24 -12.5 -47.5t-32.5 -42t-44.5 -30t-48.5 -11.5h-466q-26 0 -52 12.5t-46 32.5l-3 2q-28 19 -46.5 48t-18.5 61v239h301v-6l22 -22v-176h113q3 0 5 3.5
t4 8.5zM420 777q-14 17 -39 17q-13 0 -23.5 -2.5t-21.5 -13.5q-12 -11 -17 -25t-5 -29q0 -11 4 -17.5t11 -14.5l43 -50q15 -18 40 -18t48 20q10 10 12 18t2 19v11q0 10 -4 17t-11 15zM314 414v147h-279v-147h279zM761 414v147h-280v-147h280zM481 170q-3 -6 -6.5 -14.5
t-14.5 -8.5h-124q-8 0 -13.5 8.5t-8.5 14.5v181h-279v-228q0 -24 11.5 -46t30.5 -39t42 -27.5t46 -10.5h466q22 0 45.5 11t42 28t30.5 39t12 45v228h-280v-181z" />
    <glyph glyph-name="FL00FAh" unicode="&#xfa;" 
d="M368 784q15 21 47 21q15 0 28 -3.5t30 -20.5h-1l9 -12l10 -10h-1q14 -13 19.5 -28t5.5 -32q0 -11 -4.5 -19.5t-12.5 -18.5l-2 -2h-1l-40 -47q-18 -21 -46 -21q-29 0 -54 22l-12 11q-8 4 -15 12q-12 12 -14.5 21.5t-2.5 23.5v11q0 12 5 20t13 19zM477 403h-6v169h301v-6
l22 -22v-163h-295zM326 572v-6l22 -22v-163h-296l-22 22h-6v169h302zM326 356l22 -22v-176h112q2 0 5.5 5t5.5 10v189h301v-6l22 -22v-236q0 -25 -12.5 -48.5t-32 -42t-44.5 -29.5t-49 -11h-466q-26 0 -51.5 13t-45.5 33l-2 2q-29 20 -48 48.5t-19 59.5v239h302v-6zM337 724
q-7 -8 -11 -15t-4 -17v-11q0 -11 2 -19t12 -18q23 -20 48 -20t40 18l43 50q7 8 11 14.5t4 17.5q0 15 -5 29t-17 25q-11 11 -21.5 13.5t-23.5 2.5q-25 0 -39 -17zM761 414v147h-279v-147h279zM35 561v-147h280v147h-280zM315 351h-280v-228q0 -23 12 -45t30.5 -39t41.5 -28
t46 -11h466q23 0 46 10.5t42 27.5t30.5 39t11.5 46v228h-279v-181q-3 -6 -8.5 -14.5t-13.5 -8.5h-124q-11 0 -14.5 8.5t-6.5 14.5v181z" />
    <glyph glyph-name="FL00FBh" unicode="&#xfb;" 
d="M477 403h-6v169h301v-6l22 -22v-163h-295zM326 572v-6l22 -22v-163h-296l-22 22h-6v169h302zM417 644l-36 -51h-189l-22 22h-9l144 188h187l12 -17l12 -11l138 -182h-189l-22 22h-4zM326 356l22 -22v-176h112q2 0 5.5 5t5.5 10v189h301v-6l22 -22v-236q0 -25 -12.5 -48.5
t-32 -42t-44.5 -29.5t-49 -11h-466q-26 0 -51.5 13t-45.5 33l-2 2q-29 20 -48 48.5t-19 59.5v239h302v-6zM761 414v147h-279v-147h279zM35 561v-147h280v147h-280zM398 690l46 -64h169l-126 166h-177l-127 -166h169zM315 351h-280v-228q0 -23 12 -45t30.5 -39t41.5 -28
t46 -11h466q23 0 46 10.5t42 27.5t30.5 39t11.5 46v228h-279v-181q-3 -6 -8.5 -14.5t-13.5 -8.5h-124q-11 0 -14.5 8.5t-6.5 14.5v181z" />
    <glyph glyph-name="FL00FCh" unicode="&#xfc;" 
d="M477 403h-6v169h301v-6l22 -22v-163h-295zM326 572v-6l22 -22v-163h-296l-22 22h-6v169h302zM171 709q0 19 8 36t22.5 29.5t34.5 19.5t44 7q34 0 59.5 -14.5t38.5 -37.5l8 -7q7 -8 12.5 -16t8.5 -17q0 19 8 36t22.5 29.5t34.5 19.5t44 7q34 0 59.5 -14.5t38.5 -37.5l8 -7
q25 -25 25 -58q0 -20 -8.5 -36.5t-22.5 -28.5t-33.5 -18.5t-41.5 -6.5q-25 0 -46 8.5t-35 22.5l-7 7q-31 17 -42 50q-1 -38 -31.5 -63t-74.5 -25q-25 0 -46 8.5t-35 22.5l-7 7q-21 12 -33.5 32t-12.5 45zM326 356l22 -22v-176h112q2 0 5.5 5t5.5 10v189h301v-6l22 -22v-236
q0 -25 -12.5 -48.5t-32 -42t-44.5 -29.5t-49 -11h-466q-26 0 -51.5 13t-45.5 33l-2 2q-29 20 -48 48.5t-19 59.5v239h302v-6zM614 709q0 34 -28 57.5t-70 23.5t-70 -23.5t-28 -57.5q0 -35 28.5 -58.5t69.5 -23.5t69.5 23.5t28.5 58.5zM182 709q0 -35 28.5 -58.5t69.5 -23.5
t69.5 23.5t28.5 58.5q0 34 -28 57.5t-70 23.5t-70 -23.5t-28 -57.5zM761 414v147h-279v-147h279zM35 561v-147h280v147h-280zM315 351h-280v-228q0 -23 12 -45t30.5 -39t41.5 -28t46 -11h466q23 0 46 10.5t42 27.5t30.5 39t11.5 46v228h-279v-181q-3 -6 -8.5 -14.5
t-13.5 -8.5h-124q-11 0 -14.5 8.5t-6.5 14.5v181z" />
    <glyph glyph-name="FL00FDh" unicode="&#xfd;" horiz-adv-x="761" 
d="M365 784q15 21 47 21q15 0 28 -3.5t30 -20.5h-1l9 -12l10 -10h-1q14 -13 19.5 -28t5.5 -32q0 -12 -5 -20.5t-14 -19.5h-1l-40 -47q-18 -21 -46 -21q-29 0 -54 22l-12 11q-8 4 -15 12q-12 12 -14.5 21.5t-2.5 23.5v11q0 12 5 20t13 19zM568 362q-2 -2 -3 -2.5t-2 -2.5
l23 -23q-16 -17 -25 -31.5t-9 -25.5v-310h-296l-22 22h-6v291q-7 21 -23 41t-37 41h400zM737 572v-6l22 -22v-163h-707l-22 22h-6v169h237q38 0 65.5 -22.5t48.5 -47.5q5 -6 9.5 -12t9.5 -11q6 9 16 22.5t23.5 27t31 25.5t39.5 18h233zM334 724q-7 -8 -11 -15t-4 -17v-11
q0 -11 2 -19t12 -18q23 -20 48 -20t40 18l43 50q7 8 11 14.5t4 17.5q0 15 -5 29t-17 25q-11 11 -21.5 13.5t-23.5 2.5q-25 0 -39 -17zM507 561q-27 -8 -47.5 -24.5t-34 -33.5t-21 -30t-8.5 -13q-10 10 -22 27t-28 33.5t-37 28.5t-48 12h-226v-147h691v147h-219zM195 351
q14 -14 25.5 -29.5t18.5 -37.5v-284h280v302q0 23 24 49h-348z" />
    <glyph glyph-name="FL00FEh" unicode="&#xfe;" 
d="M348 239h98q14 0 22 15.5t8 29.5q0 10 -4 21h-124v-66zM24 572h302v-6l22 -22v-48h262q37 0 65.5 -17.5t50.5 -45.5l8 -7q10 -10 18 -21.5t15 -23.5h-715l-22 22h-6v169zM761 362q2 -6 2 -8l21 -20q7 -22 8.5 -38t1.5 -31q0 -39 -8 -78t-27 -70t-49 -50t-74 -19h-288v-81
h-296l-22 22h-6v373h737zM452 338q9 0 16 -6t11 -14.5t6 -17.5t2 -16q0 -8 -3 -18t-8 -18.5t-12.5 -14t-17.5 -5.5h-131v110h137zM35 414h693q-17 30 -46 50.5t-72 20.5h-295v76h-280v-147zM35 351v-351h280v81h296q42 0 70.5 18.5t46 48t25.5 67t8 75.5q0 14 -1.5 29
t-6.5 32h-718z" />
    <glyph glyph-name="FL00FFh" unicode="&#xff;" horiz-adv-x="761" 
d="M149 709q0 19 8 36t22.5 29.5t34.5 19.5t44 7q34 0 59.5 -14.5t38.5 -37.5l8 -7q7 -8 12.5 -16t8.5 -17q0 19 8 36t22.5 29.5t34.5 19.5t44 7q34 0 59.5 -14.5t38.5 -37.5l8 -7q25 -25 25 -58q0 -20 -8.5 -36.5t-22.5 -28.5t-33.5 -18.5t-41.5 -6.5q-25 0 -46 8.5
t-35 22.5l-7 7q-31 17 -42 50q-1 -38 -31.5 -63t-74.5 -25q-25 0 -46 8.5t-35 22.5l-7 7q-21 12 -33.5 32t-12.5 45zM568 362q-2 -2 -3 -2.5t-2 -2.5l23 -23q-16 -17 -25 -31.5t-9 -25.5v-310h-296l-22 22h-6v291q-7 21 -23 41t-37 41h400zM737 572v-6l22 -22v-163h-707
l-22 22h-6v169h237q38 0 65.5 -22.5t48.5 -47.5q5 -6 9.5 -12t9.5 -11q6 9 16 22.5t23.5 27t31 25.5t39.5 18h233zM592 709q0 34 -28 57.5t-70 23.5t-70 -23.5t-28 -57.5q0 -35 28.5 -58.5t69.5 -23.5t69.5 23.5t28.5 58.5zM160 709q0 -35 28.5 -58.5t69.5 -23.5t69.5 23.5
t28.5 58.5q0 34 -28 57.5t-70 23.5t-70 -23.5t-28 -57.5zM507 561q-27 -8 -47.5 -24.5t-34 -33.5t-21 -30t-8.5 -13q-10 10 -22 27t-28 33.5t-37 28.5t-48 12h-226v-147h691v147h-219zM195 351q14 -14 25.5 -29.5t18.5 -37.5v-284h280v302q0 23 24 49h-348z" />
    <glyph glyph-name="FL0152h" unicode="&#x152;" horiz-adv-x="1221" 
d="M1197 572v-6l22 -22v-163h-1167l-22 22h-6v15q0 28 11.5 55.5t32 49.5t47.5 35.5t57 13.5h1025zM1197 362v-6l22 -22v-159h-350l-22 22l21 -22q-1 -1 -5 -6.5t-7 -10.5h341v-6l22 -22v-163h-1029q-26 0 -52 12.5t-46 32.5l-4 3q-27 20 -45.5 48t-18.5 60v239h302v-6
l22 -22v-176h184v204h665zM172 561q-28 0 -53 -12.5t-43.5 -33t-29.5 -46t-11 -51.5v-4h1151v147h-1014zM543 351v-204h-207q-8 0 -14 6.5t-7 16.5v181h-280v-228q0 -24 12 -46t30.5 -39t41.5 -27.5t46 -10.5h1021v147h-342q-2 0 -10 8.5t-11 14.5q0 1 -0.5 3t-0.5 4t0.5 4
t0.5 3q3 6 11 15t10 9h342v143h-335h-3h-305z" />
    <glyph glyph-name="FL0153h" unicode="&#x153;" horiz-adv-x="1221" 
d="M1197 572v-6l22 -22v-163h-1167l-22 22h-6v15q0 28 11.5 55.5t32 49.5t47.5 35.5t57 13.5h1025zM1197 362v-6l22 -22v-159h-350l-22 22l21 -22q-1 -1 -5 -6.5t-7 -10.5h341v-6l22 -22v-163h-1029q-26 0 -52 12.5t-46 32.5l-4 3q-27 20 -45.5 48t-18.5 60v239h302v-6
l22 -22v-176h184v204h665zM172 561q-28 0 -53 -12.5t-43.5 -33t-29.5 -46t-11 -51.5v-4h1151v147h-1014zM543 351v-204h-207q-8 0 -14 6.5t-7 16.5v181h-280v-228q0 -24 12 -46t30.5 -39t41.5 -27.5t46 -10.5h1021v147h-342q-2 0 -10 8.5t-11 14.5q0 1 -0.5 3t-0.5 4t0.5 4
t0.5 3q3 6 11 15t10 9h342v143h-335h-3h-305z" />
    <glyph glyph-name="FL0160h" unicode="&#x160;" horiz-adv-x="778" 
d="M350 803l10 -15l14 -13l18 -27l40 55h196l-4 -5l23 -23l-139 -182h-185l-22 22h-4l-143 188h196zM30 403h-6v21q0 28 11.5 54.5t32 47.5t47.5 33.5t57 12.5h581v-6l22 -22v-163h-723zM94 226q-29 20 -49.5 50.5t-20.5 60.5v25h614q28 -5 56.5 -22t45.5 -42l7 -7
q29 -27 29 -61v-114q0 -26 -11.5 -52t-31.5 -48t-46.5 -35.5t-56.5 -13.5h-578l-22 22h-6v169h417q5 0 7.5 7t2.5 12h-261q-22 0 -47.5 13.5t-46.5 34.5zM391 728l-46 64h-169l126 -166h177l127 166h-169zM742 414v147h-570q-28 0 -53 -11.5t-43.5 -31t-29.5 -44t-11 -50.5
v-10h707zM743 255q0 18 -9.5 34t-25 28.5t-34.5 21.5t-37 12h-602v-14q0 -23 13 -45.5t32.5 -40.5t42 -29.5t42.5 -11.5h297v-33q0 -8 -5.5 -19t-15.5 -11h-406v-147h570q28 0 53 13t44 33.5t30 45.5t11 49v114z" />
    <glyph glyph-name="FL0161h" unicode="&#x161;" horiz-adv-x="910" 
d="M416 803l10 -15l14 -13l18 -27l40 55h196l-4 -5l23 -23l-139 -182h-185l-22 22h-4l-143 188h196zM348 403h-8l30 54q5 10 21 29.5t38 38.5t47 33t48 14h362v-6l22 -22v-163h-538zM30 -11h-6v170h158q7 0 15 6.5t16 16.5t14.5 20t11.5 18l78 142h355v-6l22 -22v-12
l-133 -241q-11 -20 -28.5 -40t-39 -36.5t-46.5 -27t-50 -10.5h-345zM457 728l-46 64h-169l126 -166h177l127 166h-169zM875 414v147h-351q-21 0 -44.5 -13.5t-44 -31.5t-35.5 -36t-20 -28l-21 -38h516zM372 0q24 0 47.5 10t44.5 26t37.5 35.5t27.5 38.5l132 239v2h-337
l-75 -136q-5 -8 -13 -19.5t-17 -22t-18.5 -18t-18.5 -7.5h-147v-148h337z" />
    <glyph glyph-name="FL0178h" unicode="&#x178;" horiz-adv-x="783" 
d="M30 403h-6v169h302v-6l22 -22v-163h-296zM456 572h303v-6l22 -22v-163h-297l-22 22h-6v169zM162 709q0 19 8 36t22.5 29.5t34.5 19.5t44 7q34 0 59.5 -14.5t38.5 -37.5l8 -7q7 -8 12.5 -16t8.5 -17q0 19 8 36t22.5 29.5t34.5 19.5t44 7q34 0 59.5 -14.5t38.5 -37.5l8 -7
q25 -25 25 -58q0 -20 -8.5 -36.5t-22.5 -28.5t-33.5 -18.5t-41.5 -6.5q-25 0 -46 8.5t-35 22.5l-7 7q-31 17 -42 50q-1 -38 -31.5 -63t-74.5 -25q-25 0 -46 8.5t-35 22.5l-7 7q-21 12 -33.5 32t-12.5 45zM759 356l22 -22v-215q0 -32 -8.5 -60t-24.5 -48.5t-38.5 -32
t-50.5 -11.5h-602l-22 22h-6v169h401q22 1 25 16h-265q-26 0 -51.5 13t-45.5 33l-2 2q-29 20 -48 48.5t-19 59.5v32h311l1 -1h110l1 1h312v-6zM605 709q0 34 -28 57.5t-70 23.5t-70 -23.5t-28 -57.5q0 -35 28.5 -58.5t69.5 -23.5t69.5 23.5t28.5 58.5zM173 709
q0 -35 28.5 -58.5t69.5 -23.5t69.5 23.5t28.5 58.5q0 34 -28 57.5t-70 23.5t-70 -23.5t-28 -57.5zM315 414v147h-280v-147h280zM467 414h281v147h-281v-147zM748 351h-296q-1 -1 -4 -1h-112q-5 0 -6 1h-295v-21q0 -23 12 -45t30.5 -39t41.5 -28t46 -11h302v-23
q0 -20 -8 -27.5t-28 -9.5h-391v-147h594q26 0 47 11t36 30.5t23 46t8 56.5v207z" />
    <glyph glyph-name="FL00AFh" unicode="&#x192;" 
d="M24 438q0 24 13 48t33 43t45.5 31t49.5 12h466q33 0 66.5 -20t53.5 -50l3 -3q18 -18 29 -40t11 -46v-32h-742l-22 22h-6v35zM772 356l22 -22v-51q0 -23 -13.5 -43.5t-34 -36.5t-45 -25t-45.5 -9h-308v-11h421v-6l22 -22v-163h-594q-28 0 -53 11.5t-45 31.5l-5 4
q-32 23 -51 58t-19 71v219h302v-1h145v1h301v-6zM460 414h2h299v24q0 24 -11.5 46t-30.5 39t-42 27.5t-46 10.5h-466q-23 0 -46 -11t-41.5 -28t-30.5 -39.5t-12 -44.5v-24h298h3h124zM761 351h-279v-1h-167v1h-280v-208q0 -26 11 -51.5t29.5 -46t43.5 -33t53 -12.5h586v147
h-422q-10 0 -15.5 11t-5.5 19l-2 2h2v23h316q20 0 43 8.5t42.5 23t32 34t12.5 40.5v43z" />
    <glyph glyph-name="FL02C6h" unicode="&#x2c6;" horiz-adv-x="474" 
d="M24 403h-9l129 168h187l13 -17l11 -11l123 -162h-190l-22 22h-4l-6 8l-22 -30h-188zM205 414l32 44l31 -44h169l-111 146h-177l-112 -146h168z" />
    <glyph glyph-name="FL02DCh" unicode="&#x2dc;" horiz-adv-x="543" 
d="M543 572l-4 -5l23 -23l-125 -163h-147l-22 22h-4l-8 10l-23 -32h-188l-22 22h-9l130 169h121l11 -16l13 -12l18 -26l39 54h197zM352 561l-45 -63l-47 63h-111l-113 -147h168l32 44l33 -44h139l113 147h-169z" />
    <glyph glyph-name="FL2013h" unicode="&#x2013;" horiz-adv-x="405" 
d="M24 362h357v-6l22 -22v-159h-351l-22 22h-6v165zM35 208h335v143h-335v-143z" />
    <glyph glyph-name="FL2014h" unicode="&#x2014;" horiz-adv-x="467" 
d="M24 362h419v-6l22 -22v-159h-413l-22 22h-6v165zM35 208h397v143h-397v-143z" />
    <glyph glyph-name="FL2018h" unicode="&#x2018;" horiz-adv-x="289" 
d="M267 362q-1 -2 -1 -3t-1 -3l23 -22q-11 -39 -43.5 -64t-74.5 -25q-26 0 -48.5 9t-39.5 26l-9 9q-39 27 -51 73h245zM30 403h-6v67q0 21 9.5 40t26 32.5t38.5 21.5t47 8q35 0 63.5 -15.5t43.5 -40.5l7 -7q13 -13 20.5 -29.5t7.5 -34.5v-64h-235zM37 351q8 -32 37 -52.5
t71 -20.5q39 0 69 20.5t38 52.5h-215zM254 414v56q0 19 -8.5 35.5t-23.5 29t-35 19.5t-42 7q-23 0 -43 -7t-35 -19.5t-23.5 -29t-8.5 -35.5v-56h219z" />
    <glyph glyph-name="FL2019h" unicode="&#x2019;" horiz-adv-x="289" 
d="M267 362q-1 -2 -1 -3t-1 -3l23 -22q-11 -39 -43.5 -64t-74.5 -25q-26 0 -48.5 9t-39.5 26l-9 9q-39 27 -51 73h245zM30 403h-6v67q0 21 9.5 40t26 32.5t38.5 21.5t47 8q35 0 63.5 -15.5t43.5 -40.5l7 -7q13 -13 20.5 -29.5t7.5 -34.5v-64h-235zM37 351q8 -32 37 -52.5
t71 -20.5q39 0 69 20.5t38 52.5h-215zM254 414v56q0 19 -8.5 35.5t-23.5 29t-35 19.5t-42 7q-23 0 -43 -7t-35 -19.5t-23.5 -29t-8.5 -35.5v-56h219z" />
    <glyph glyph-name="FL201Ah" unicode="&#x201a;" horiz-adv-x="305" 
d="M24 92q0 22 10.5 41t28 32.5t41 21.5t49.5 8q38 0 69.5 -16.5t46.5 -43.5l7 -6q27 -27 27 -62v-103q0 -21 -10 -39.5t-27 -32t-40 -21t-48 -7.5q-29 0 -55.5 10.5t-43.5 27.5l-6 6q-23 14 -36 34.5t-13 46.5v103zM35 -11q0 -20 9.5 -36.5t25.5 -29t37.5 -19.5t45.5 -7
t45.5 7t37 19.5t25 29t9.5 36.5v103q0 19 -9.5 36t-25 29.5t-37 19.5t-45.5 7t-45.5 -7t-37.5 -19.5t-25.5 -29.5t-9.5 -36v-103z" />
    <glyph glyph-name="FL201Ch" unicode="&#x201c;" horiz-adv-x="514" 
d="M492 362q-1 -2 -1 -3t-1 -3l23 -22q-11 -39 -41 -64t-72 -25q-50 0 -83 33l-10 10q-10 7 -18.5 15t-14.5 19q-11 -35 -41 -56.5t-68 -21.5q-25 0 -46 9t-37 25l-8 8q-40 26 -51 76h233q-1 -2 -1 -3t-1 -3l7 -7q-2 8 -3 13h234zM30 403h-6v66q0 21 9 40t24.5 32.5t37 21.5
t45.5 8q33 0 60 -15t42 -40l7 -7q4 -4 7 -8t6 -9q8 35 39.5 57.5t73.5 22.5q33 0 60 -15t42 -40l7 -7q13 -13 20.5 -29.5t7.5 -35.5v-64h-225l-10 10v-10h-225zM272 351q7 -32 35.5 -52.5t67.5 -20.5q38 0 66 20.5t36 52.5h-205zM37 351q7 -32 35.5 -53t67.5 -21
q38 0 66.5 21t35.5 53h-205zM244 414v55q0 19 -8 35.5t-22.5 29t-33.5 19.5t-40 7q-22 0 -41 -7t-33.5 -19.5t-22.5 -29t-8 -35.5v-55h209zM479 414v56q0 19 -8 35.5t-22.5 29t-33.5 19.5t-40 7q-22 0 -41 -7t-33.5 -19.5t-22.5 -29t-8 -35.5v-56h209z" />
    <glyph glyph-name="FL201Dh" unicode="&#x201d;" horiz-adv-x="514" 
d="M492 362q-1 -2 -1 -3t-1 -3l23 -22q-11 -39 -41 -64t-72 -25q-50 0 -83 33l-10 10q-10 7 -18.5 15t-14.5 19q-11 -35 -41 -56.5t-68 -21.5q-25 0 -46 9t-37 25l-8 8q-40 26 -51 76h233q-1 -2 -1 -3t-1 -3l7 -7q-2 8 -3 13h234zM30 403h-6v66q0 21 9 40t24.5 32.5t37 21.5
t45.5 8q33 0 60 -15t42 -40l7 -7q4 -4 7 -8t6 -9q8 35 39.5 57.5t73.5 22.5q33 0 60 -15t42 -40l7 -7q13 -13 20.5 -29.5t7.5 -35.5v-64h-225l-10 10v-10h-225zM272 351q7 -32 35.5 -52.5t67.5 -20.5q38 0 66 20.5t36 52.5h-205zM37 351q7 -32 35.5 -53t67.5 -21
q38 0 66.5 21t35.5 53h-205zM244 414v55q0 19 -8 35.5t-22.5 29t-33.5 19.5t-40 7q-22 0 -41 -7t-33.5 -19.5t-22.5 -29t-8 -35.5v-55h209zM479 414v56q0 19 -8 35.5t-22.5 29t-33.5 19.5t-40 7q-22 0 -41 -7t-33.5 -19.5t-22.5 -29t-8 -35.5v-56h209z" />
    <glyph glyph-name="FL201Eh" unicode="&#x201e;" horiz-adv-x="568" 
d="M24 92q0 22 10.5 41t28 32.5t41 21.5t49.5 8q38 0 69.5 -16.5t46.5 -43.5l7 -6q4 -4 7 -8t6 -9q9 37 44.5 60t82.5 23q38 0 69.5 -16.5t46.5 -43.5l6 -5h-1l2 -1q27 -27 27 -62v-103q0 -21 -10 -39.5t-27 -32t-40 -21t-48 -7.5q-29 0 -55.5 10.5t-43.5 27.5l-6 6
q-23 14 -36 36q-9 -35 -43 -57.5t-79 -22.5q-29 0 -55.5 10.5t-43.5 27.5l-6 6q-23 14 -36 34.5t-13 46.5v103zM35 -11q0 -20 9.5 -36.5t25.5 -29t37.5 -19.5t45.5 -7t45.5 7t37 19.5t25 29t9.5 36.5v103q0 19 -9.5 36t-25 29.5t-37 19.5t-45.5 7t-45.5 -7t-37.5 -19.5
t-25.5 -29.5t-9.5 -36v-103zM298 -11q0 -20 9.5 -36.5t25.5 -29t37.5 -19.5t45.5 -7t45.5 7t37 19.5t25 29t9.5 36.5v103q0 19 -9.5 36t-25 29.5t-37 19.5t-45.5 7t-45.5 -7t-37.5 -19.5t-25.5 -29.5t-9.5 -36v-103z" />
    <glyph glyph-name="FL2020h" unicode="&#x2020;" horiz-adv-x="448" 
d="M375 572v-6l22 -22v-80h27v-6l22 -22v-55h-394l-22 22h-6v61h49v108h302zM424 356l22 -22v-57h-49v-310h-296l-22 22h-6v288h-21l-22 22h-6v63h400v-6zM84 561v-108h-49v-39h378v39h-49v108h-280zM413 351h-378v-41h49v-310h280v310h49v41z" />
    <glyph glyph-name="FL2021h" unicode="&#x2021;" horiz-adv-x="448" 
d="M375 572v-6l22 -22v-80h27v-6l22 -22v-55h-394l-22 22h-6v61h49v108h302zM424 356l22 -22v-57h-49v-15h27v-6l22 -22v-159h-49v-108h-296l-22 22h-6v86h-21l-22 22h-6v165h49v15h-21l-22 22h-6v63h400v-6zM84 561v-108h-49v-39h378v39h-49v108h-280zM413 351h-378v-41h49
v-59h-49v-143h49v-108h280v108h49v143h-49v59h49v41z" />
    <glyph glyph-name="FL2022h" unicode="&#x2022;" 
d="M624 572q36 0 67 -18.5t51 -47.5l5 -5q22 -22 34.5 -50.5t12.5 -57.5v-12h-742l-22 22h-6v15q0 28 11.5 55.5t32 49.5t47.5 35.5t57 13.5h452zM772 356l22 -22v-236q0 -25 -12.5 -48.5t-32 -42t-44.5 -29.5t-49 -11h-466q-26 0 -52 12.5t-46 32.5l-4 3q-27 20 -45.5 48
t-18.5 60v239h748v-6zM172 561q-28 0 -53 -12.5t-43.5 -33t-29.5 -46t-11 -51.5v-4h726v4q0 26 -11 51.5t-29.5 46t-43.5 33t-53 12.5h-452zM761 351h-726v-228q0 -24 12 -46t30.5 -39t41.5 -27.5t46 -10.5h466q23 0 46 10.5t42 27.5t30.5 39t11.5 46v228z" />
    <glyph glyph-name="FL2026h" unicode="&#x2026;" horiz-adv-x="827" 
d="M24 92q0 22 10.5 41t28 32.5t41 21.5t49.5 8q38 0 69.5 -16.5t46.5 -43.5l7 -6l12 -15q10 36 45 58.5t81 22.5q38 0 69.5 -16.5t46.5 -43.5l7 -6l12 -15q10 36 45 58.5t81 22.5q38 0 69.5 -16.5t46.5 -43.5l6 -5h-1l2 -1q27 -27 27 -62q0 -21 -10 -39.5t-27 -32t-40 -21
t-48 -7.5q-29 0 -55.5 10.5t-43.5 27.5l-6 5q-23 15 -34 33q-11 -34 -44.5 -55t-77.5 -21q-29 0 -55.5 10.5t-43.5 27.5l-6 5q-23 15 -34 33q-11 -34 -44.5 -55t-77.5 -21q-29 0 -55.5 10.5t-43.5 27.5l-6 5q-23 14 -36 35t-13 47zM557 92q0 -20 9.5 -36.5t25.5 -29
t37.5 -19.5t45.5 -7t45.5 7t37 19.5t25 29t9.5 36.5q0 19 -9.5 36t-25 29.5t-37 19.5t-45.5 7t-45.5 -7t-37.5 -19.5t-25.5 -29.5t-9.5 -36zM35 92q0 -20 9.5 -36.5t25.5 -29t37.5 -19.5t45.5 -7t45.5 7t37 19.5t25 29t9.5 36.5q0 19 -9.5 36t-25 29.5t-37 19.5t-45.5 7
t-45.5 -7t-37.5 -19.5t-25.5 -29.5t-9.5 -36zM296 92q0 -20 9.5 -36.5t25.5 -29t37.5 -19.5t45.5 -7t45.5 7t37 19.5t25 29t9.5 36.5q0 19 -9.5 36t-25 29.5t-37 19.5t-45.5 7t-45.5 -7t-37.5 -19.5t-25.5 -29.5t-9.5 -36z" />
    <glyph glyph-name="FL2030h" unicode="&#x2030;" horiz-adv-x="1327" 
d="M895 572l-5 -5l23 -23l-149 -163h-304l-22 22h-7v-22h-176l-22 22h-4v-22h-177l-22 22h-6v86q0 15 6.5 29.5t17.5 26t25.5 19t30.5 7.5h226q21 0 38.5 -12.5t28.5 -30.5l9 -8q11 -11 18 -26t7 -30v-58l152 166h312zM1224 291q21 0 38.5 -12.5t28.5 -30.5l9 -8
q11 -11 18 -26t7 -30v-148q0 -14 -6.5 -26t-17 -22t-23.5 -15.5t-26 -5.5h-233q-14 0 -27.5 6.5t-24.5 17.5l-9 9q-10 5 -18 13q-8 -19 -28 -32.5t-40 -13.5h-233q-14 0 -27.5 6.5t-24.5 17.5l-9 8q-17 10 -28.5 26.5t-11.5 35.5v69l-149 -163h-305l-22 22h-10l235 258h-162
q-14 0 -27.5 6.5t-24.5 17.5l-9 8q-17 10 -28.5 26.5t-11.5 35.5v21h680l-5 -5l23 -23l-40 -43h162q21 0 38.5 -12.5t28.5 -30.5l9 -8l3 -4q9 23 29.5 39t45.5 16h226zM710 164q0 6 5 8h31q3 0 4.5 -3t1.5 -5v-53q-2 -6 -6 -6h-31q-5 0 -5 6v53zM1090 164q0 6 5 8h31
q3 0 4.5 -3t1.5 -5v-53q-2 -6 -6 -6h-31q-5 0 -5 6v53zM587 561l-134 -147h283l134 147h-283zM196 444q0 6 5 8h31q3 0 4.5 -3t1.5 -5v-30h160v75q0 13 -5.5 25.5t-14.5 22.5t-21.5 16.5t-26.5 6.5h-226q-14 0 -26.5 -6.5t-22 -16.5t-15 -22.5t-5.5 -25.5v-75h161v30z
M998 280q-14 0 -26.5 -6.5t-22 -16.5t-15 -22.5t-5.5 -25.5v-148q0 -12 6 -23t15.5 -19.5t21 -13.5t22.5 -5h233q12 0 23.5 5t20.5 13.5t15 19.5t6 23v148q0 13 -5.5 25.5t-14.5 22.5t-21.5 16.5t-26.5 6.5h-226zM615 280l64 71h-644v-10q0 -12 6 -23t15.5 -19.5t21 -13.5
t22.5 -5h231l-254 -280h284l188 207v-146q0 -12 6 -23t15.5 -19.5t21 -13.5t22.5 -5h233q12 0 23.5 5t20.5 13.5t15 19.5t6 23v148q0 13 -5.5 25.5t-14.5 22.5t-21.5 16.5t-26.5 6.5h-229z" />
    <glyph glyph-name="FL2039h" unicode="&#x2039;" horiz-adv-x="314" 
d="M247 403l22 -22h-106l-22 22h-10l60 60l60 -60h-4zM306 344l23 -23l-65 -65l44 -45l-2 -2l23 -23l-113 -113l-23 23l-2 -2l-185 185l83 83h203l16 -16zM224 414l-33 33l-33 -33h66zM292 346l-5 5h-193l-72 -72l169 -169l101 101l-67 68z" />
    <glyph glyph-name="FL203Ah" unicode="&#x203a;" horiz-adv-x="314" 
d="M179 403l22 -22h-106l-22 22h-10l60 60l60 -60h-4zM73 279l-67 67l16 16h202l84 -83l-2 -2l23 -23l-181 -181l-23 23l-2 -2l-117 117zM156 414l-33 33l-33 -33h66zM22 211l101 -101l169 169l-73 72h-192l-5 -5l67 -67z" />
    <glyph glyph-name="FL2122h" unicode="&#x2122;" horiz-adv-x="1573" 
d="M1033 457q5 10 21.5 29t38.5 38t47 33.5t47 14.5h362v-6l22 -22v-163h-538l-22 22h-8zM30 403h-6v169h586q39 0 67.5 -18t48.5 -45l5 -5q24 -25 38.5 -58t21.5 -65h-739zM794 334q-3 -52 -18 -99t-47 -76h116q7 0 15 6.5t16 16.5t14.5 20t11.5 18l78 142h355v-6l22 -22
v-12l-133 -241q-11 -20 -28 -40t-38.5 -36.5t-46 -27t-51.5 -10.5h-345l-22 22h-6v143q-11 -5 -24 -6.5t-27 -1.5h-289v-157h-295l-22 22h-6v373h301v-6l22 -22v-19h99q12 0 20 15.5t10 31.5h296q0 -2 -0.5 -3t-0.5 -3zM1390 414h2h146v147h-351q-21 0 -44 -13.5
t-43.5 -31.5t-36 -36.5t-20.5 -27.5l-21 -38h368zM756 414q-5 25 -16 51.5t-28.5 47.5t-42.5 34.5t-59 13.5h-575v-147h417h2h302zM1035 0q25 0 48.5 10t44 26t37 35.5t27.5 38.5l132 239v2h-337l-75 -136q-5 -8 -13 -19.5t-17 -22t-18.5 -18t-18.5 -7.5h-147v-148h337z
M314 0v157h297q40 0 67.5 16.5t45.5 44t26.5 62.5t10.5 71h-275q-2 -16 -12.5 -31.5t-27.5 -15.5h-132v47h-279v-351h279z" />
    <glyph glyph-name="FL017Dh" horiz-adv-x="894" 
d="M867 0h-337q-24 0 -47.5 10t-44.5 26t-38 35.5t-27 38.5l-132 239q-3 8 -10.5 19t-17.5 21.5t-20.5 17.5t-19.5 7h-146v147h351q21 0 44.5 -13.5t44 -31.5t35.5 -36t20 -28l131 -237q5 -8 13 -19.5t17 -22t18.5 -18t18.5 -7.5h147v-148zM399 792l46 -64l46 64h169
l-126 -166h-177l-127 166h169z" />
    </font>
</defs>
</svg>
