<?xml version="1.0" standalone="no"?>
<!DOCTYPE svg PUBLIC "-//W3C//DTD SVG 1.1//EN" "http://www.w3.org/Graphics/SVG/1.1/DTD/svg11.dtd" >
<svg xmlns="http://www.w3.org/2000/svg" xmlns:xlink="http://www.w3.org/1999/xlink" version="1.1">
<metadata>
Created by FontForge 20170731 at Wed Mar 18 14:43:15 2015
 By Aleksey,,,
2015 Iconian Fonts - www.iconian.com
</metadata>
<defs>
<font id="FutureForcesLaserItalic" horiz-adv-x="634" >
  <font-face 
    font-family="Future Forces Laser Italic"
    font-weight="400"
    font-style="italic"
    font-stretch="normal"
    units-per-em="1000"
    panose-1="0 0 0 0 0 0 0 0 0 0"
    ascent="800"
    descent="-200"
    x-height="407"
    cap-height="407"
    bbox="-81 -147 1155 547"
    underline-thickness="50"
    underline-position="-175"
    unicode-range="U+0020-2122"
  />
<missing-glyph horiz-adv-x="500" 
 />
    <glyph glyph-name=".notdef" horiz-adv-x="500" 
 />
    <glyph glyph-name=".null" horiz-adv-x="0" 
 />
    <glyph glyph-name="nonmarkingreturn" horiz-adv-x="500" 
 />
    <glyph glyph-name="FL0020h" unicode=" " horiz-adv-x="384" 
 />
    <glyph glyph-name="FL0021h" unicode="!" horiz-adv-x="205" 
d="M174 407h121l-36 -111h-121zM163 0h-121l36 111h121zM211 148h-121l36 110h121z" />
    <glyph glyph-name="FL0022h" unicode="&#x22;" horiz-adv-x="351" 
d="M405 296h-113l36 111h113zM251 296h-113l36 111h113zM192 246h-70l4 12h80zM346 246h-70l4 12h80z" />
    <glyph glyph-name="FL0023h" unicode="#" horiz-adv-x="685" 
d="M228 228h-112l10 30h601l-10 -30h-112l-16 -50h112l-36 -110h-112l-22 -68h-121l22 68h-135l-22 -68h-121l22 68h-112l36 110h112zM753 338l-14 -42h-601l14 42h112l22 69h121l-22 -69h135l22 69h121l-22 -69h112zM484 228h-135l-16 -50h135z" />
    <glyph glyph-name="FL0024h" unicode="$" 
d="M239 -58l19 58h-216l36 111h216l12 37h-169q-20 0 -28.5 14.5t-5.5 24.5l23 71h519q8 -2 14.5 -16t3.5 -22l-60 -185q-4 -11 -18.5 -23t-25.5 -12h-182l-19 -58h-119zM724 407l-36 -111h-550l24 72q7 16 21 26t31 13h176l18 55h119l-18 -55h215zM507 111l12 37h-94
l-12 -37h94z" />
    <glyph glyph-name="FL0025h" unicode="%" horiz-adv-x="697" 
d="M652 -9q-2 -6 -8.5 -11t-12.5 -5h-244q-5 0 -8.5 5.5t-1.5 10.5l48 147l-117 -138h-130l190 225h-238q-5 0 -8.5 5.5t-1.5 10.5l6 17h400l-65 -77h237q5 0 9 -5t2 -11zM452 415l-39 -119h-275l39 119q2 6 9 11t11 5h244q5 0 9 -5t2 -11zM652 407l-94 -111h-130l94 111
h130zM590 50l18 56h-114l-18 -56h114zM333 300l19 56h-114l-19 -56h114z" />
    <glyph glyph-name="FL0026h" unicode="&#x26;" 
d="M199 111h429l-36 -111h-198l-19 -58h-119l19 58h-199q-11 0 -15 8.5t-3.5 21.5t4 27t7.5 25l9 30q7 22 13.5 36t13 23.5t14 16.5t17.5 15q-7 14 -10 24.5t2 30.5h521l-36 -110h-402zM724 407l-36 -111h-550l10 29q3 11 9 25t13.5 27t17 21.5t20.5 8.5h199l18 55h119
l-18 -55h198z" />
    <glyph glyph-name="FL0027h" unicode="'" horiz-adv-x="205" 
d="M259 296h-121l36 111h121zM197 246h-75l4 12h86z" />
    <glyph glyph-name="FL0028h" unicode="(" horiz-adv-x="344" 
d="M288 -43h-229q-11 0 -17 11.5t-4 20.5l88 269h121l-62 -190h139zM138 296l39 121q2 6 7.5 11.5t11.5 10t12.5 7.5t10.5 3h229l-36 -111h-139l-14 -42h-121z" />
    <glyph glyph-name="FL0029h" unicode=")" horiz-adv-x="344" 
d="M28 -43l36 111h139l62 190h121l-88 -269q-3 -9 -16.5 -20.5t-24.5 -11.5h-229zM437 417l-39 -121h-121l14 42h-139l36 111h229q8 0 15.5 -10.5t4.5 -21.5z" />
    <glyph glyph-name="asterisk" unicode="*" horiz-adv-x="210" 
d="M224 319l-6 27l-20 -27l-47 41l39 21l-32 7l37 56l24 -14l4 31h63l-18 -31l39 15l-3 -57l-36 -7l23 -21z" />
    <glyph glyph-name="FL002Bh" unicode="+" horiz-adv-x="464" 
d="M90 148l36 110h380l-36 -110h-135l-31 -97h-110l31 97h-135zM292 355h110l-19 -59h-110z" />
    <glyph glyph-name="FL002Ch" unicode="," horiz-adv-x="205" 
d="M163 0l-62 -50h-75l52 161h121z" />
    <glyph glyph-name="FL002Dh" unicode="-" horiz-adv-x="388" 
d="M90 148l36 110h304l-36 -110h-304z" />
    <glyph glyph-name="FL002Eh" unicode="." horiz-adv-x="205" 
d="M163 0h-121l36 111h121z" />
    <glyph glyph-name="FL002Fh" unicode="/" horiz-adv-x="392" 
d="M157 0h-132l217 258h132zM367 407h132l-94 -111h-132z" />
    <glyph glyph-name="FL0031h" unicode="0" 
d="M602 32q-3 -11 -16.5 -21.5t-24.5 -10.5h-488q-11 0 -17 11.5t-4 20.5l74 226h121l-48 -147h42l124 147h129l-124 -147h137l48 147h121zM688 296h-550l26 79q5 11 19 21.5t22 10.5h488q8 0 16.5 -10.5t4.5 -21.5z" />
    <glyph glyph-name="FL0034h" unicode="1" horiz-adv-x="247" 
d="M205 0h-121l84 258h121zM174 407h163l-36 -111h-163z" />
    <glyph glyph-name="FL0032h" unicode="2" 
d="M628 111l-36 -111h-517q-11 0 -18.5 12t-3.5 23l60 185q1 4 6.5 10t12 12t13.5 10.5t12 5.5h519l-23 -71q-2 -5 -7.5 -11.5t-14 -12.5t-18.5 -10.5t-20 -4.5h-382l-12 -37h429zM688 296h-550l36 111h510q15 -3 22.5 -13t5.5 -26z" />
    <glyph glyph-name="FL0033h" unicode="3" 
d="M78 111h429l12 37h-402l36 110h521q-10 -20 -19 -30.5t-25 -24.5l7.5 -15t3.5 -17q0 -9 -3 -23t-10 -36l-9 -30q-4 -11 -9.5 -25t-13.5 -27t-17.5 -21.5t-20.5 -8.5h-516zM698 325l-10 -29h-550l36 111h516q11 0 15 -8.5t3.5 -21.5t-4 -27t-6.5 -25z" />
    <glyph glyph-name="FL0037h" unicode="4" 
d="M126 258h550l-84 -258h-121l48 148h-429zM174 407h121l-36 -111h-121zM567 296l36 111h121l-36 -111h-121z" />
    <glyph glyph-name="FL0035h" unicode="5" 
d="M78 111h429l12 37h-429l36 110h519q8 -2 14.5 -16t3.5 -22l-60 -185q-4 -11 -18.5 -23t-25.5 -12h-517zM688 296h-550l36 111h550z" />
    <glyph glyph-name="FL0036h" unicode="6" 
d="M75 0q-8 0 -17.5 9t-5.5 23l74 226h519q8 -2 14.5 -16t3.5 -22l-60 -187q-4 -11 -18.5 -21.5t-24.5 -11.5h-485zM724 407l-36 -111h-550l26 79q5 11 18.5 21.5t24.5 10.5h517zM198 109h308l13 39h-308z" />
    <glyph glyph-name="FL003Bh" unicode="7" 
d="M174 407h550l-33 -101l-12 -10h-541zM316 0h-160l311 258h165z" />
    <glyph glyph-name="FL0038h" unicode="8" horiz-adv-x="646" 
d="M135 203q-8 13 -10 24t2 31h559q-9 -20 -18.5 -31t-24.5 -24q4 -8 7 -15t3.5 -16.5t-3 -23.5t-10.5 -36l-9 -30q-4 -11 -10 -25t-14.5 -27t-18 -21.5t-20.5 -8.5h-490q-11 0 -15 8.5t-4 21.5t3 27t7 25l9 30q7 22 13.5 36t13 23.5t13.5 16.5t17 15zM148 325q3 11 9 25
t14.5 27t18 21.5t20.5 8.5h490q11 0 15 -8.5t4 -21.5t-3 -27t-6 -25l-10 -29h-562zM199 111h320l12 37h-320z" />
    <glyph glyph-name="FL0039h" unicode="9" 
d="M123 149q-5 0 -9 4.5t-7 10.5t-4.5 12.5t0.5 10.5l23 71h550l-74 -226q-2 -5 -7 -10.5t-11 -10.5t-12.5 -8t-10.5 -3h-519l36 111h429l12 38h-396zM568 297h-308l-1 -1h-121l26 78q3 11 18 21.5t25 11.5h485q11 0 18 -11t4 -22l-26 -78h-121z" />
    <glyph glyph-name="FL003Ah" unicode=":" horiz-adv-x="205" 
d="M163 0h-121l36 111h121zM138 296l18 55h121l-18 -55h-121zM241 240h-121l6 18h121z" />
    <glyph glyph-name="FL003Ch" unicode=";" horiz-adv-x="205" 
d="M163 0l-62 -50h-75l52 161h121zM138 296l18 55h121l-18 -55h-121zM241 240h-121l6 18h121z" />
    <glyph glyph-name="FL003Dh" unicode="&#x3c;" horiz-adv-x="411" 
d="M247 203l139 -203h-156l-139 203l73 55h156zM363 407h155l-148 -111h-155z" />
    <glyph glyph-name="FL003Fh" unicode="=" horiz-adv-x="464" 
d="M100 178h380l-36 -110h-380zM152 338h380l-14 -42h-380zM496 228h-380l10 30h380z" />
    <glyph glyph-name="FL003Eh" unicode="&#x3e;" horiz-adv-x="411" 
d="M296 203l-38 55h156l38 -55l-271 -203h-156zM312 407l76 -111h-156l-75 111h155z" />
    <glyph glyph-name="FL0040h" unicode="?" 
d="M138 296l36 111h510q15 -3 22.5 -13t5.5 -26l-24 -72h-550zM204 220q1 4 6.5 10t12 12t13.5 10.5t12 5.5h428l-23 -71q-2 -5 -7.5 -11.5t-14 -12.5t-18.5 -10.5t-20 -4.5h-412zM254 0h-121l36 111h121z" />
    <glyph glyph-name="FL004Ah" unicode="@" horiz-adv-x="731" 
d="M59 -43q-11 0 -17 11.5t-4 20.5l88 269h118l-63 -193h529l-35 -108h-616zM824 417l-39 -121h-118l15 45h-411l-15 -45h-118l39 121q2 6 7.5 11.5t11.5 10t12.5 7.5t10.5 3h585q8 0 15.5 -10.5t4.5 -21.5zM258 101q-5 0 -8.5 5.5t-1.5 10.5l46 141h311l-26 -80h50l26 80
h118l-41 -125q-4 -9 -17 -20.5t-24 -11.5h-433zM350 178h146l16 51h-146zM604 306q9 0 11 -10h-308q4 4 9 7t8 3h280z" />
    <glyph glyph-name="FL0060h" unicode="A" horiz-adv-x="614" 
d="M457 0l-16 72h-223l-61 -72h-132l222 258h131l-65 -76h106l-16 76h132l54 -258h-132zM279 296l96 111h128l23 -111h-247z" />
    <glyph glyph-name="FL0042h" unicode="B" horiz-adv-x="646" 
d="M42 0l84 258h560q-9 -20 -18 -30.5t-25 -24.5q4 -8 7 -14.5t3.5 -16t-2.5 -23.5t-10 -36l-10 -31q-4 -11 -10 -25t-14.5 -27t-18 -21.5t-20.5 -8.5h-526zM138 296l36 111h526q11 0 15 -8.5t4 -21.5t-3 -27t-6 -25l-10 -29h-562zM199 111h320l12 37h-320z" />
    <glyph glyph-name="FL0043h" unicode="C" 
d="M628 111l-36 -111h-519q-11 0 -17 11.5t-4 20.5l74 226h121l-48 -147h429zM138 296l26 79q5 11 19 21.5t22 10.5h519l-36 -111h-550z" />
    <glyph glyph-name="FL0044h" unicode="D" 
d="M606 43q-2 -6 -9 -13t-16 -14t-17.5 -11.5t-14.5 -4.5h-507l84 258h121l-48 -147h308l48 147h121zM138 296l36 111h507q4 0 10 -4.5t11 -11.5t7.5 -14t0.5 -13l-22 -68h-550z" />
    <glyph glyph-name="FL0045h" unicode="E" 
d="M607 149h-396l-12 -38h429l-36 -111h-519q-8 0 -16 11t-5 21l74 226h550l-23 -71q-2 -4 -7.5 -10.5t-12.5 -12.5t-14.5 -10.5t-11.5 -4.5zM260 297l-1 -1h-121l26 78q3 11 17 22t25 11h485q10 -1 18 -11.5t5 -21.5l-26 -78h-121l1 1h-308z" />
    <glyph glyph-name="FL0046h" unicode="F" 
d="M163 0h-121l84 258h121l-12 -37h402l-36 -110h-402zM174 407h550l-36 -111h-550z" />
    <glyph glyph-name="FL0047h" unicode="G" 
d="M198 109h308l13 39h-172l36 110h262q8 -2 14.5 -16t3.5 -22l-60 -187q-4 -11 -18.5 -21.5t-24.5 -11.5h-485q-8 0 -17.5 9t-5.5 23l74 226h121zM138 296l26 79q5 11 18.5 21.5t24.5 10.5h517l-36 -111h-550z" />
    <glyph glyph-name="FL0048h" unicode="H" 
d="M126 258h550l-84 -258h-121l48 148h-308l-48 -148h-121zM174 407h121l-36 -111h-121zM567 296l36 111h121l-36 -111h-121z" />
    <glyph glyph-name="FL0049h" unicode="I" 
d="M628 111l-36 -111h-550l36 111h214l48 147h121l-48 -147h215zM688 296h-550l36 111h550z" />
    <glyph glyph-name="FL0051h" unicode="J" 
d="M52 32l39 118h121l-13 -39h308l48 147h121l-74 -226q-4 -9 -17 -20.5t-24 -11.5h-488q-11 0 -17.5 10.5t-3.5 21.5zM724 407l-36 -111h-429l36 111h429z" />
    <glyph glyph-name="FL007Ch" unicode="K" horiz-adv-x="646" 
d="M163 0h-121l84 258h492q14 -2 24.5 -10t14.5 -24.5t0.5 -42.5t-15.5 -65l-38 -116h-121l48 148h-320zM737 407l-89 -111h-136l94 111h131zM174 407h121l-36 -111h-121z" />
    <glyph glyph-name="FL004Ch" unicode="L" 
d="M628 111l-36 -111h-516q-13 0 -20 11t-3 22l73 225h121l-48 -147h429zM138 296l36 111h121l-36 -111h-121z" />
    <glyph glyph-name="FL004Dh" unicode="M" horiz-adv-x="751" 
d="M442 0h-134l-51 258h130l26 -141l118 141h130zM709 0h-122l84 258h122zM163 0h-121l84 258h121zM138 296l36 111h186l20 -111h-242zM562 296l93 111h186l-36 -111h-243z" />
    <glyph glyph-name="FL004Eh" unicode="N" horiz-adv-x="649" 
d="M434 258l101 -104l34 104h122l-84 -258h-114l-248 253l-82 -253h-121l84 258h308zM174 407h116l107 -111h-259zM581 296l36 111h122l-36 -111h-122z" />
    <glyph glyph-name="FL004Fh" unicode="O" 
d="M602 32q-3 -11 -16.5 -21.5t-24.5 -10.5h-488q-11 0 -17 11.5t-4 20.5l74 226h121l-48 -147h308l48 147h121zM138 296l26 79q5 11 19 21.5t22 10.5h488q8 0 16.5 -10.5t4.5 -21.5l-26 -79h-550z" />
    <glyph glyph-name="FL0050h" unicode="P" horiz-adv-x="646" 
d="M42 0l84 258h121l-12 -37h320l12 37h120q-29 -72 -60.5 -109.5t-59.5 -37.5h-368l-36 -111h-121zM138 296l36 111h526q11 0 15 -8.5t4 -21.5t-3 -27t-6 -25l-10 -29h-562z" />
    <glyph glyph-name="FL0071h" unicode="Q" 
d="M386 165h139l30 93h121l-73 -225l35 -92h-148l-31 59h-386q-11 0 -17 11.5t-4 20.5l74 226h121l-48 -147h209zM714 375l-26 -79h-550l26 79q5 11 19 21.5t22 10.5h488q8 0 16.5 -10.5t4.5 -21.5z" />
    <glyph glyph-name="FL0053h" unicode="R" horiz-adv-x="646" 
d="M520 111h-321l-36 -111h-121l84 258h121l-12 -37h320l12 37h118q-25 -51 -51 -77q3 -4 4.5 -14t2 -21.5t0 -22t-1.5 -15.5l-35 -108h-120zM138 296l36 111h526q11 0 15 -8.5t4 -21.5t-3 -27t-6 -25l-10 -29h-562z" />
    <glyph glyph-name="FL0056h" unicode="S" 
d="M78 111h429l12 37h-382q-20 0 -28.5 14.5t-5.5 24.5l23 71h517q4 0 8.5 -4.5t7.5 -10.5t4 -12.5t0 -10.5l-60 -185q-4 -11 -18.5 -23t-25.5 -12h-517zM688 296h-550l24 72q7 16 21 26t31 13h510z" />
    <glyph glyph-name="FL0055h" unicode="T" 
d="M724 407l-36 -111h-550l36 111h550zM377 0h-121l84 258h121z" />
    <glyph glyph-name="FL0057h" unicode="U" 
d="M602 32q-3 -11 -16.5 -21.5t-24.5 -10.5h-488q-11 0 -17 11.5t-4 20.5l74 226h121l-48 -147h308l48 147h121zM138 296l36 111h121l-36 -111h-121zM567 296l36 111h121l-36 -111h-121z" />
    <glyph glyph-name="FL0059h" unicode="V" horiz-adv-x="614" 
d="M348 126l113 132h132l-222 -258h-128l-54 258h131zM157 407h132l23 -111h-132zM494 296l95 111h132l-96 -111h-131z" />
    <glyph glyph-name="FL0B39h" unicode="W" horiz-adv-x="884" 
d="M620 126l112 132h131l-222 -258h-125l-30 135l-115 -135h-126l-56 258h130l27 -132l112 132h134zM764 296l94 111h133l-96 -111h-131zM429 407h131l23 -111h-132zM157 407h131l23 -111h-130z" />
    <glyph glyph-name="FL0058h" unicode="X" horiz-adv-x="614" 
d="M188 203l-8 55h422l-44 -55l31 -203h-131l-30 148h-146l-126 -148h-131zM288 407l22 -111h-136l-17 111h131zM721 407l-89 -111h-136l94 111h131z" />
    <glyph glyph-name="FL0079h" unicode="Y" 
d="M42 0l36 111h429l12 37h-394q-9 3 -17.5 12t-6.5 23l25 75h550l-73 -223q-4 -11 -18.5 -23t-25.5 -12h-517zM138 296l36 111h121l-36 -111h-121zM567 296l36 111h121l-36 -111h-121z" />
    <glyph glyph-name="FL005Ah" unicode="Z" 
d="M628 112l-36 -112h-550l32 97l310 161h209l-284 -146h319zM667 296h-529l36 111h550l-32 -98z" />
    <glyph glyph-name="FL005Ch" unicode="[" horiz-adv-x="344" 
d="M288 -43h-260l98 301h121l-62 -190h139zM138 296l50 153h260l-36 -111h-139l-14 -42h-121z" />
    <glyph glyph-name="FL005Eh" unicode="\" horiz-adv-x="392" 
d="M235 0l-49 258h132l49 -258h-132zM289 407l21 -111h-132l-21 111h132z" />
    <glyph glyph-name="FL005Dh" unicode="]" horiz-adv-x="344" 
d="M28 -43l36 111h139l62 190h121l-98 -301h-260zM448 449l-50 -153h-121l14 42h-139l36 111h260z" />
    <glyph glyph-name="FL0041h" unicode="^" 
d="M602 32q-5 -14 -20 -23t-23 -9h-485q-10 1 -17.5 11.5t-3.5 21.5l60 187q1 4 6.5 10t12 12t13.5 10.5t12 5.5h519zM138 296l36 111h517q11 0 18.5 -10.5t4.5 -21.5l-26 -79h-550zM506 109l13 39h-308l-13 -39h308z" />
    <glyph glyph-name="FL005Fh" unicode="_" horiz-adv-x="580" 
d="M574 111l-36 -111h-496l36 111h496z" />
    <glyph glyph-name="FL0061h" unicode="`" horiz-adv-x="221" 
d="M311 358h-106l-29 103h114z" />
    <glyph glyph-name="FL0065h" unicode="a" 
d="M235 221h308l12 37h121l-84 -258h-121l36 111h-308l-36 -111h-121l84 258h121zM714 375l-26 -79h-550l26 79q4 9 17 20.5t24 11.5h488q11 0 18 -10.5t3 -21.5z" />
    <glyph glyph-name="FL0062h" unicode="b" horiz-adv-x="646" 
d="M42 0l84 258h560q-9 -20 -18 -30.5t-25 -24.5q4 -8 7 -14.5t3.5 -16t-2.5 -23.5t-10 -36l-10 -31q-4 -11 -10 -25t-14.5 -27t-18 -21.5t-20.5 -8.5h-526zM138 296l36 111h526q11 0 15 -8.5t4 -21.5t-3 -27t-6 -25l-10 -29h-562zM199 111h320l12 37h-320z" />
    <glyph glyph-name="FL0063h" unicode="c" 
d="M602 32q-3 -11 -16.5 -21.5t-24.5 -10.5h-488q-11 0 -17 11.5t-4 20.5l74 226h121l-48 -147h429zM138 296l26 79q5 11 19 21.5t22 10.5h488q8 0 16.5 -10.5t4.5 -21.5l-26 -79h-550z" />
    <glyph glyph-name="FL0064h" unicode="d" 
d="M606 43q-2 -6 -9 -13t-16 -14t-17.5 -11.5t-14.5 -4.5h-507l84 258h121l-48 -147h308l48 147h121zM138 296l36 111h507q4 0 10 -4.5t11 -11.5t7.5 -14t0.5 -13l-22 -68h-550z" />
    <glyph glyph-name="e" unicode="e" 
d="M592 0h-550l84 258h523l-36 -110h-402l-12 -37h429zM174 407h550l-36 -111h-550z" />
    <glyph glyph-name="FL0066h" unicode="f" 
d="M163 0h-121l84 258h523l-36 -110h-402zM174 407h550l-36 -111h-550z" />
    <glyph glyph-name="FL0067h" unicode="g" 
d="M198 109h308l13 39h-172l36 110h262q8 -2 14.5 -16t3.5 -22l-60 -187q-4 -11 -18.5 -21.5t-24.5 -11.5h-485q-8 0 -17.5 9t-5.5 23l74 226h121zM138 296l26 79q5 11 18.5 21.5t24.5 10.5h517l-36 -111h-550z" />
    <glyph glyph-name="FL0068h" unicode="h" 
d="M126 258h550l-84 -258h-121l48 148h-308l-48 -148h-121zM174 407h121l-36 -111h-121zM567 296l36 111h121l-36 -111h-121z" />
    <glyph glyph-name="FL0069h" unicode="i" horiz-adv-x="206" 
d="M164 0h-122l84 258h122zM174 407h122l-36 -111h-122z" />
    <glyph glyph-name="FL006Ah" unicode="j" 
d="M52 32l39 118h121l-13 -39h308l48 147h121l-74 -226q-4 -9 -17 -20.5t-24 -11.5h-488q-11 0 -17.5 10.5t-3.5 21.5zM724 407l-36 -111h-121l36 111h121z" />
    <glyph glyph-name="FL004Bh" unicode="k" horiz-adv-x="630" 
d="M163 0h-121l84 258h492l-44 -55l31 -203h-131l-30 148h-233zM737 407l-89 -111h-136l94 111h131zM295 407l-36 -111h-121l36 111h121z" />
    <glyph glyph-name="FL006Ch" unicode="l" 
d="M628 111l-36 -111h-550l84 258h121l-48 -147h429zM138 296l36 111h121l-36 -111h-121z" />
    <glyph glyph-name="FL006Eh" unicode="m" horiz-adv-x="750" 
d="M442 0h-134l-51 258h131l25 -140l117 140h131zM163 0h-121l84 258h121zM708 0h-121l84 258h121zM138 296l36 111h186l20 -111h-242zM562 296l93 111h185l-36 -111h-242z" />
    <glyph glyph-name="FL00B2h" unicode="n" horiz-adv-x="649" 
d="M434 258l101 -104l34 104h122l-84 -258h-114l-248 253l-82 -253h-121l84 258h308zM174 407h116l107 -111h-259zM581 296l36 111h122l-36 -111h-122z" />
    <glyph glyph-name="FL006Fh" unicode="o" 
d="M602 32q-3 -11 -16.5 -21.5t-24.5 -10.5h-488q-11 0 -17 11.5t-4 20.5l74 226h121l-48 -147h308l48 147h121zM138 296l26 79q5 11 19 21.5t22 10.5h488q8 0 16.5 -10.5t4.5 -21.5l-26 -79h-550z" />
    <glyph glyph-name="FL0073h" unicode="p" horiz-adv-x="646" 
d="M42 0l84 258h121l-12 -37h320l12 37h120q-27 -72 -57.5 -109.5t-62.5 -37.5h-368l-36 -111h-121zM138 296l36 111h526q11 0 15 -8.5t4 -21.5t-3 -27t-6 -25l-10 -29h-562z" />
    <glyph glyph-name="FL0072h" unicode="q" 
d="M490 -59l-31 59h-386q-11 0 -17 11.5t-4 20.5l74 226h121l-48 -147h308l48 147h121l-73 -225l35 -92h-148zM138 296l26 79q5 11 19 21.5t22 10.5h488q8 0 16.5 -10.5t4.5 -21.5l-26 -79h-550z" />
    <glyph glyph-name="FL007Bh" unicode="r" horiz-adv-x="646" 
d="M42 0l84 258h121l-12 -37h320l12 37h120q-29 -72 -58.5 -106t-59.5 -36l35 -116h-130l-46 111h-229l-36 -111h-121zM138 296l36 111h526q11 0 15 -8.5t4 -21.5t-3 -27t-6 -25l-10 -29h-562z" />
    <glyph glyph-name="s" unicode="s" 
d="M78 111h429l12 37h-382q-20 0 -28.5 14.5t-5.5 24.5l23 71h517q4 0 8.5 -4.5t7.5 -10.5t4 -12.5t0 -10.5l-60 -185q-4 -11 -18.5 -23t-25.5 -12h-517zM688 296h-550l24 72q7 16 21 26t31 13h510z" />
    <glyph glyph-name="t" unicode="t" 
d="M724 407l-36 -111h-550l36 111h550zM377 0h-121l84 258h121z" />
    <glyph glyph-name="FL0075h" unicode="u" 
d="M602 32q-3 -11 -16.5 -21.5t-24.5 -10.5h-488q-11 0 -17 11.5t-4 20.5l74 226h121l-48 -147h308l48 147h121zM138 296l36 111h121l-36 -111h-121zM567 296l36 111h121l-36 -111h-121z" />
    <glyph glyph-name="FL0076h" unicode="v" horiz-adv-x="614" 
d="M348 126l113 132h132l-222 -258h-128l-54 258h131zM157 407h132l23 -111h-132zM494 296l95 111h132l-96 -111h-131z" />
    <glyph glyph-name="FL0077h" unicode="w" horiz-adv-x="779" 
d="M73 0q-9 0 -16.5 10.5t-4.5 21.5l74 226h121l-48 -147h166l48 147h121l-48 -147h166l48 147h121l-74 -226q-4 -12 -17 -22t-24 -10h-633zM869 407l-36 -111h-121l36 111h121zM295 407l-36 -111h-121l36 111h121zM582 407l-36 -111h-121l36 111h121z" />
    <glyph glyph-name="FL0078h" unicode="x" horiz-adv-x="616" 
d="M294 203l-37 55h269l-73 -55l138 -203h-157l-86 124l-166 -124h-157zM157 407h156l77 -111h-159zM567 407h156l-147 -111h-158z" />
    <glyph glyph-name="FL022Bh" unicode="y" 
d="M235 222h308l12 36h121l-38 -115q-3 -11 -16.5 -21.5t-24.5 -10.5h-184l-36 -111h-121l36 111h-183q-11 0 -17 11.5t-4 20.5l38 115h121zM724 407l-36 -111h-121l36 111h121zM295 407l-36 -111h-121l36 111h121z" />
    <glyph glyph-name="FL007Ah" unicode="z" 
d="M628 112l-36 -112h-550l32 97l310 161h209l-284 -146h319zM667 296h-529l36 111h550l-32 -98z" />
    <glyph glyph-name="FL0080h" unicode="{" horiz-adv-x="426" 
d="M90 148l36 110h203l-62 -190h139l-36 -111h-229q-11 0 -17 11.5t-4 20.5l52 159h-82zM355 338l-14 -42h-121l39 121q2 6 7.5 11.5t11.5 10t12.5 7.5t10.5 3h229l-36 -111h-139z" />
    <glyph glyph-name="FL007Eh" unicode="|" horiz-adv-x="205" 
d="M24 -55l102 313h121l-102 -313h-121zM138 296l54 165h121l-54 -165h-121z" />
    <glyph glyph-name="FL0081h" unicode="}" horiz-adv-x="426" 
d="M432 148h-82l-52 -159q-3 -9 -16.5 -20.5t-24.5 -11.5h-229l36 111h139l62 190h203zM277 296l14 42h-139l36 111h229q8 0 15.5 -10.5t4.5 -21.5l-39 -121h-121z" />
    <glyph glyph-name="FL0082h" unicode="~" horiz-adv-x="449" 
d="M406 147h-149l-15 59l-51 -59h-117l100 111h150l15 -58l51 58h116z" />
    <glyph glyph-name="FL007Fh" horiz-adv-x="252" 
 />
    <glyph glyph-name="space" unicode="&#xa0;" horiz-adv-x="378" 
 />
    <glyph glyph-name="FL00A1h" unicode="&#xa1;" horiz-adv-x="205" 
d="M162 0h-121l84 258h121zM173 407h121l-36 -111h-121z" />
    <glyph glyph-name="FL00A2h" unicode="&#xa2;" 
d="M239 -58l19 58h-185q-11 0 -17 11.5t-4 20.5l74 226h121l-48 -147h95l48 147h119l-48 -147h94l13 39h121l-39 -118q-3 -11 -16.5 -21.5t-24.5 -10.5h-184l-19 -58h-119zM138 296l26 79q5 11 19 21.5t22 10.5h185l18 55h119l-18 -55h184q8 0 16.5 -10.5t4.5 -21.5l-26 -79
h-550z" />
    <glyph glyph-name="FL00A3h" unicode="&#xa3;" horiz-adv-x="672" 
d="M126 258h436l-36 -110h-227l-12 -37h379l-36 -111h-588l36 110h88l9 30q3 7 4 8h-89zM427 296h-201l10 29q3 11 9 25t13.5 27t17 21.5t20.5 8.5h167z" />
    <glyph glyph-name="FL00A4h" unicode="&#xa4;" horiz-adv-x="649" 
d="M41 0l193 145l37 113h275l-38 -115l99 -143h-157l-69 101h-48l-135 -101h-157zM583 407h156l-147 -111h-344l-75 111h156l69 -100h52zM324 176h114l18 56h-114z" />
    <glyph glyph-name="FL00A5h" unicode="&#xa5;" 
d="M123 104h167l14 43h-183q-11 0 -17 11.5t-4 20.5l26 79h550l-26 -79q-4 -11 -17 -21.5t-24 -10.5h-184l-14 -43h166l-25 -75h-166l-13 -41h166l-25 -76h-166l-19 -59h-121l19 59h-167l25 76h167l13 41h-167zM724 407l-36 -111h-121l36 111h121zM295 407l-36 -111h-121
l36 111h121z" />
    <glyph glyph-name="FL00A6h" unicode="&#xa6;" horiz-adv-x="205" 
d="M24 -55l76 233h121l-76 -233h-121zM313 461l-54 -165h-121l54 165h121zM237 228h-121l10 30h121z" />
    <glyph glyph-name="FL00A7h" unicode="&#xa7;" 
d="M60 54h429l12 37h-382q-20 0 -29 14.5t-6 24.5l42 128h550l-91 -280q-4 -11 -19 -23t-26 -12h-517zM693 312l-5 -16h-550l53 164q8 16 22 26t31 13h510l-36 -111h-429l-12 -38h396q4 0 8.5 -4.5t7.5 -10.5t4 -12.5t0 -10.5zM241 239l-12 -36h308l12 36h-308z" />
    <glyph glyph-name="FL00A8h" unicode="&#xa8;" horiz-adv-x="374" 
d="M334 358l34 103h114l-34 -103h-114zM306 461l-34 -103h-114l34 103h114z" />
    <glyph glyph-name="FL00A9h" unicode="&#xa9;" horiz-adv-x="267" 
d="M291 482q2 0 11.5 -1.5t27.5 -9.5q11 -9 16 -17t7 -18q6 -23 -1 -45q-3 -10 -10.5 -21t-18.5 -24q-13 -14 -38.5 -29.5t-52.5 -15.5q-11 0 -22 3.5t-20 8.5q-9 9 -13.5 15t-9.5 18q-6 22 2 45q6 18 19 34.5t30 29t36 20t37 7.5zM286 468q-43 0 -78 -38q-15 -15 -23 -39
q-6 -20 -2 -36q3 -17 18 -29q8 -6 18.5 -8t15.5 -2h2q19 0 40 10q20 10 37.5 29t22.5 36l1 4q4 13 2 26.5t-8.5 23.5t-18 16.5t-24.5 6.5h-3zM286 378l12 -5q-19 -34 -54 -34q-47 0 -31 52t65 52q33 0 32 -28l-16 -4q-3 19 -20 19q-33 0 -45 -39q-12 -36 19 -36q23 0 38 23z
" />
    <glyph glyph-name="FL00AAh" unicode="&#xaa;" 
d="M592 0h-518q-10 1 -17.5 11.5t-3.5 21.5l60 187q1 4 7 10.5t13 12.5t14 10.5t12 4.5h517zM138 296l36 111h517q11 0 18.5 -10.5t4.5 -21.5l-26 -79h-550zM506 109l13 39h-308l-13 -39h308z" />
    <glyph glyph-name="FL00ABh" unicode="&#xab;" horiz-adv-x="506" 
d="M229 203l32 -203h-131l-37 203l46 55h134zM447 203l32 -203h-131l-37 203l46 55h134zM262 407h131l-90 -111h-133zM480 407h131l-90 -111h-133z" />
    <glyph glyph-name="FL00ACh" unicode="&#xac;" horiz-adv-x="464" 
d="M126 258h380l-67 -207h-110l31 97h-270z" />
    <glyph glyph-name="FL00B1h" unicode="&#xad;" horiz-adv-x="319" 
d="M90 148l36 110h235l-36 -110h-235z" />
    <glyph glyph-name="FL00AEh" unicode="&#xae;" horiz-adv-x="267" 
d="M291 482q24 0 38 -13q18 -10 24 -33.5t-1 -44.5q-3 -10 -11 -21.5t-19 -24.5q-8 -10 -20 -18t-24.5 -14t-24.5 -9t-19 -3h-2q-51 0 -66 44q-4 21 3 46q6 19 19.5 36t30 29t35 19t35.5 7h2zM286 467q-43 0 -79 -38q-17 -20 -23 -38v-1q-2 -3 -3 -12.5t1 -23.5
q-2 -4 3 -10.5t13.5 -12.5t18 -10.5t17.5 -4.5h3q18 0 40 10.5t36 27.5q11 14 17.5 25.5l6.5 11.5v3q9 28 -6 50.5t-42 22.5h-3zM205 341l32 98h32q21 0 24 -5q3 -2 5 -3.5t4 -3.5q3 -9 1 -14q-8 -26 -38 -28q7 -4 8.5 -8.5t6.5 -16.5l6 -19h-20l-2 16q-7 19 -11 21
q-3 4 -10 4h-10l-13 -41h-15zM237 394h19q14 0 20.5 4.5t9.5 12.5q2 9 -6 14h-33z" />
    <glyph glyph-name="FL00AFh" unicode="&#xaf;" horiz-adv-x="580" 
d="M670 407l-36 -111h-496l36 111h496z" />
    <glyph glyph-name="FL00B3h" unicode="&#xb0;" horiz-adv-x="198" 
d="M273 359h-114l33 103h114zM209 395h36l10 31h-36z" />
    <glyph glyph-name="FL00B5h" unicode="&#xb1;" horiz-adv-x="464" 
d="M75 102h380l-33 -102h-380zM249 222h-135l12 36h380l-12 -36h-135l-27 -83h-110zM309 407h110l-27 -83h135l-9 -28h-380l9 28h135z" />
    <glyph glyph-name="FL00B6h" unicode="&#xb2;" horiz-adv-x="359" 
d="M420 318l-7 -22h-275l24 73q2 4 9.5 11.5t12.5 7.5h178l3 10h-194l21 63h255q15 -3 14 -19l-31 -94q-2 -5 -10.5 -12t-19.5 -7h-171l-4 -11h195zM400 255h-259q-4 0 -7 3h267z" />
    <glyph glyph-name="FL00BCh" unicode="&#xb3;" horiz-adv-x="359" 
d="M461 442l-48 -146h-275l7 22h194l4 11h-171l19 59h171l3 10h-194l21 63h255q15 -3 14 -19zM125 255l1 3h266q-5 -3 -8 -3h-259z" />
    <glyph glyph-name="FL00B4h" unicode="&#xb4;" horiz-adv-x="223" 
d="M143 358l89 103h114l-97 -103h-106z" />
    <glyph glyph-name="FL0030h" unicode="&#xb5;" 
d="M592 0h-550l84 258h121l-48 -147h308l48 147h121zM138 296l36 111h550l-36 -111h-550z" />
    <glyph glyph-name="mu" unicode="&#xb6;" horiz-adv-x="906" 
d="M949 214l-3 -1l-18 -22h-50l19 -40v-8l-1 -4q-5 -15 -24 -22l-52 12l-27 -62q-9 -12 -25 -12q-14 0 -23.5 4.5t-22.5 13.5l-7 2l-72 -56l-29 -5l-26 30l-123 -51l-16 6l9 30l-147 -20l-14 10l15 25l-142 12l6 19l23 17l-86 16q-18 0 -10 21l43 26l-53 27l1 25l66 9
l-19 39l1 3h18l-2 -11l24 -46l-73 -4l81 -46l-72 -27l128 -29l-55 -28l154 -6l-29 -35l149 23l11 -20l-13 -20l131 52l40 -32l78 63l65 -21l29 73l71 -11q2 5 3 5.5l1 0.5q5 14 -28 62l74 6l-2 9l-74 42h54q-9 -3 -18 -3q65 -27 62 -41zM223 296q21 56 45 56h3l56 -19
q31 27 49.5 40.5t38.5 20.5l41 -30l118 47l14 -17l-7 -15v-6l121 21l39 -4l-15 -31h133l8 -12q-9 -28 -31 -28l82 -23h-56l-70 15l55 32h-151l23 36l-153 -20l6 31l-11 4l-117 -47l-34 32l-79 -60q-5 -4 -17 -4q-20 0 -48 22l-19 -41h-24zM445 214q-29 -65 -59 -65
q-5 -1 -8.5 -1.5t-8.5 -0.5q-28 0 -29 15q18 59 62 82h12q34 0 31 -30zM656 154l-12 2q-3 22 -18 22q-10 0 -31 -22h-21q21 45 70 91q3 4 16 4q16 0 18 -30zM512 149q-23 0 -45 45l-14 -43l-18 -4l30 93l39 -58l24 62l14 -4zM749 153q-25 0 -44 46l-15 -45l-18 -2l30 92
l36 -61l25 65l15 -4zM359 247l-8 -23q-2 2 -3.5 2.5l-1.5 0.5h-5q-12 0 -31 -13q-19 -16 -27 -38q-6 -18 15 -18q5 0 10 0.5t10 1.5l-4 -15q-10 -2 -13.5 -3.5t-8.5 -1.5q-28 0 -25 42q-1 0 1 5l2 7q14 42 89 53zM420 200l4 11q-6 12 -17 12q-16 0 -37 -29l-2 -7
q-7 -22 9 -22q12 0 28 8q8 8 10 13t5 14zM594 248l-36 -90l-26 -6l41 92zM275 244l-35 -89l-23 -8l41 95zM830 244l-33 -68l-16 2l27 70zM652 199l-3 30l-28 -30h31zM790 147l-20 -14l-8 11l15 10z" />
    <glyph glyph-name="FL00B7h" unicode="&#xb7;" horiz-adv-x="205" 
d="M211 147h-121l36 111h121z" />
    <glyph glyph-name="FL00B8h" unicode="&#xb8;" horiz-adv-x="181" 
d="M42 2h98l-48 -148h-173l31 98h75z" />
    <glyph glyph-name="FL00B9h" unicode="&#xb9;" horiz-adv-x="189" 
d="M297 461l-54 -165h-81l29 90h-24l25 75h105zM230 255h-81l1 3h81z" />
    <glyph glyph-name="FL00BAh" unicode="&#xba;" horiz-adv-x="359" 
d="M462 445l-49 -149h-275l49 149q2 6 9 11t11 5h244q5 0 9 -5t2 -11zM229 330h114l18 56h-114zM140 255q-6 0 -7 3h260q-5 -3 -9 -3h-244z" />
    <glyph glyph-name="FL00BBh" unicode="&#xbb;" horiz-adv-x="506" 
d="M409 203l-9 55h135l10 -55l-169 -203h-131zM191 203l-9 55h135l10 -55l-169 -203h-131zM508 407l20 -111h-134l-17 111h131zM290 407l20 -111h-134l-17 111h131z" />
    <glyph glyph-name="FL00BEh" unicode="&#xbc;" horiz-adv-x="869" 
d="M909 207l-74 -6q33 -48 28 -62l-1 -0.5t-3 -5.5l-71 11l-29 -73l-65 21l-78 -63l-40 32l-131 -52l13 20l-11 20l-149 -23l29 35l-154 6l55 28l-128 29l72 27l-81 46l73 4l-24 46l2 11h691l74 -42zM829 343l-55 -32l70 -15h-615l19 41q28 -22 48 -22q12 0 17 4l79 60
l34 -32l117 47l11 -4l-6 -31l153 20l-23 -36h151zM427 214q3 30 -31 30h-12q-44 -23 -62 -82q1 -15 29 -15q5 0 8.5 0.5t8.5 1.5q30 0 59 65zM638 154l22 67q-2 30 -18 30q-13 0 -16 -4q-49 -46 -70 -91h21q21 22 31 22q15 0 18 -22zM494 149l30 91l-14 4l-24 -62l-39 58
l-30 -93l18 4l14 43q22 -45 45 -45zM731 153l29 91l-15 4l-25 -65l-36 61l-30 -92l18 2l15 45q19 -46 44 -46zM341 247q-75 -11 -89 -53l-2 -7q-2 -5 -1 -5q-3 -42 25 -42q5 0 8.5 1.5t13.5 3.5l4 15q-5 -1 -10 -1.5t-10 -0.5q-21 0 -15 18q8 22 27 38q19 13 31 13h5
l1.5 -0.5t3.5 -2.5zM402 200q-3 -9 -5 -14t-10 -13q-16 -8 -28 -8q-16 0 -9 22l2 7q21 29 37 29q11 0 17 -12zM576 248l-21 -4l-41 -92l26 6zM257 244l-17 -2l-41 -95l23 8zM812 244l-22 4l-27 -70l16 -2zM634 199h-31l28 30zM772 147l-13 7l-15 -10l8 -11z" />
    <glyph glyph-name="FL00BDh" unicode="&#xbd;" horiz-adv-x="562" 
d="M232 225h-68l11 33h81l-3 -8l7 8h130l-65 -77h234q15 -3 14 -19l-31 -94q-2 -5 -10.5 -12t-19.5 -7h-171l-4 -11h195l-20 -63h-259q-5 0 -9 6t-2 11l32 97q2 4 9.5 11.5t12.5 7.5h178l3 10h-194l7 22l-118 -140h-130zM516 407l-94 -111h-130l94 111h130zM312 431
l-44 -135h-81l20 60h-24l24 75h105z" />
    <glyph glyph-name="FL0FEDh" unicode="&#xbe;" horiz-adv-x="666" 
d="M318 214q-29 -65 -59 -65q-5 -1 -8.5 -1.5t-8.5 -0.5q-28 0 -29 15q18 59 62 82h12q34 0 31 -30zM529 154l-12 2q-3 22 -18 22q-10 0 -31 -22h-21q21 45 70 91q3 4 16 4q16 0 18 -30zM385 149q-23 0 -45 45l-14 -43l-18 -4l30 93l39 -58l24 62l14 -4zM622 153
q-25 0 -44 46l-15 -45l-18 -2l30 92l36 -61l25 65l15 -4zM232 247l-8 -23q-2 2 -3.5 2.5l-1.5 0.5h-5q-12 0 -31 -13q-19 -16 -27 -38q-6 -18 15 -18q5 0 10 0.5t10 1.5l-4 -15q-10 -2 -13.5 -3.5t-8.5 -1.5q-28 0 -25 42q-1 0 1 5l2 7q14 42 89 53zM293 200l4 11
q-6 12 -17 12q-16 0 -37 -29l-2 -7q-7 -22 9 -22q12 0 28 8q8 8 10 13t5 14zM467 248l-36 -90l-26 -6l41 92zM148 244l-35 -89l-23 -8l41 95zM703 244l-33 -68l-16 2l27 70zM525 199l-3 30l-28 -30h31zM663 147l-20 -14l-8 11l15 10z" />
    <glyph glyph-name="FL00BFh" unicode="&#xbf;" 
d="M562 187q-2 -4 -7.5 -10.5t-12.5 -12.5t-14.5 -10.5t-11.5 -4.5h-305l-12 -38h429l-36 -111h-510q-15 3 -22.5 13t-4.5 26l58 181q3 8 17 21t33 17h422zM512 407h121l-36 -111h-121z" />
    <glyph glyph-name="FL00C0h" unicode="&#xc0;" 
d="M602 32q-5 -14 -20 -23t-23 -9h-485q-10 1 -17.5 11.5t-3.5 21.5l60 187q1 4 6.5 10t12 12t13.5 10.5t12 5.5h519zM138 296l36 111h517q11 0 18.5 -10.5t4.5 -21.5l-26 -79h-550zM506 109l13 39h-308l-13 -39h308zM527 444h-106l-29 103h114z" />
    <glyph glyph-name="FL00C1h" unicode="&#xc1;" 
d="M602 32q-5 -14 -20 -23t-23 -9h-485q-10 1 -17.5 11.5t-3.5 21.5l60 187q1 4 6.5 10t12 12t13.5 10.5t12 5.5h519zM138 296l36 111h517q11 0 18.5 -10.5t4.5 -21.5l-26 -79h-550zM506 109l13 39h-308l-13 -39h308zM484 547h114l-97 -103h-106z" />
    <glyph glyph-name="FL00C2h" unicode="&#xc2;" 
d="M602 32q-5 -14 -20 -23t-23 -9h-485q-10 1 -17.5 11.5t-3.5 21.5l60 187q1 4 6.5 10t12 12t13.5 10.5t12 5.5h519zM138 296l36 111h517q11 0 18.5 -10.5t4.5 -21.5l-26 -79h-550zM316 444l97 103h164l29 -103h-113l-14 56l-50 -56h-113zM506 109l13 39h-308l-13 -39h308z
" />
    <glyph glyph-name="FL00C3h" unicode="&#xc3;" 
d="M602 32q-5 -14 -20 -23t-23 -9h-485q-10 1 -17.5 11.5t-3.5 21.5l60 187q1 4 7 10.5t13 12.5t14 10.5t12 4.5h517zM138 296l36 111h517q11 0 18.5 -10.5t4.5 -21.5l-26 -79h-550zM592 444h-144l-15 54l-49 -54h-113l97 103h144l15 -54l49 54h113zM506 109l13 39h-308
l-13 -39h308z" />
    <glyph glyph-name="FL00C4h" unicode="&#xc4;" 
d="M602 32q-5 -14 -20 -23t-23 -9h-485q-10 1 -17.5 11.5t-3.5 21.5l60 187q1 4 7 10.5t13 12.5t14 10.5t12 4.5h517zM138 296l36 111h517q11 0 18.5 -10.5t4.5 -21.5l-26 -79h-550zM506 109l13 39h-308l-13 -39h308zM526 547h114l-34 -103h-114zM430 444h-114l34 103h114z
" />
    <glyph glyph-name="FL00C5h" unicode="&#xc5;" 
d="M602 32q-5 -14 -20 -23t-23 -9h-485q-10 1 -17.5 11.5t-3.5 21.5l60 187q1 4 7 10.5t13 12.5t14 10.5t12 4.5h517zM138 296l36 111h517q11 0 18.5 -10.5t4.5 -21.5l-26 -79h-550zM506 109l13 39h-308l-13 -39h308zM517 444h-114l34 103h114zM454 480h36l10 31h-36z" />
    <glyph glyph-name="FL00C6h" unicode="&#xc6;" horiz-adv-x="1066" 
d="M113 220q1 4 7 10.5t13 12.5t14 10.5t12 4.5h949l-23 -71q-2 -4 -7.5 -10.5t-12.5 -12.5t-14.5 -10.5t-11.5 -4.5h-396l-12 -38h429l-36 -111h-950q-10 1 -17.5 11.5t-3.5 21.5zM692 297l-1 -1h-553l36 111h949q10 -1 18 -11.5t5 -21.5l-26 -78h-121l1 1h-308zM506 109
l13 39h-308l-13 -39h308z" />
    <glyph glyph-name="FL00C7h" unicode="&#xc7;" 
d="M641 150l-39 -118q-3 -11 -16.5 -21.5t-24.5 -10.5h-173l-47 -146h-173l31 98h75l16 48h-217q-11 0 -17 11.5t-4 20.5l74 226h121l-48 -147h308l13 39h121zM688 296h-550l26 79q5 11 19 21.5t22 10.5h488q8 0 16.5 -10.5t4.5 -21.5z" />
    <glyph glyph-name="FL00C8h" unicode="&#xc8;" 
d="M607 149h-396l-12 -38h429l-36 -111h-519q-8 0 -16 11t-5 21l74 226h550l-23 -71q-2 -4 -7.5 -10.5t-12.5 -12.5t-14.5 -10.5t-11.5 -4.5zM260 297l-1 -1h-121l26 78q3 11 17 22t25 11h485q10 -1 18 -11.5t5 -21.5l-26 -78h-121l1 1h-308zM527 444h-106l-29 103h114z" />
    <glyph glyph-name="FL00C9h" unicode="&#xc9;" 
d="M607 149h-396l-12 -38h429l-36 -111h-519q-8 0 -16 11t-5 21l74 226h550l-23 -71q-2 -4 -7.5 -10.5t-12.5 -12.5t-14.5 -10.5t-11.5 -4.5zM260 297l-1 -1h-121l26 78q3 11 17 22t25 11h485q10 -1 18 -11.5t5 -21.5l-26 -78h-121l1 1h-308zM484 547h114l-97 -103h-106z
" />
    <glyph glyph-name="FL00CAh" unicode="&#xca;" 
d="M607 149h-396l-12 -38h429l-36 -111h-519q-8 0 -16 11t-5 21l74 226h550l-23 -71q-2 -4 -7.5 -10.5t-12.5 -12.5t-14.5 -10.5t-11.5 -4.5zM260 297l-1 -1h-121l26 78q3 11 17 22t25 11h485q10 -1 18 -11.5t5 -21.5l-26 -78h-121l1 1h-308zM316 444l97 103h164l29 -103
h-113l-14 56l-50 -56h-113z" />
    <glyph glyph-name="FL00CBh" unicode="&#xcb;" 
d="M607 149h-396l-12 -38h429l-36 -111h-519q-8 0 -16 11t-5 21l74 226h550l-23 -71q-2 -4 -7.5 -10.5t-12.5 -12.5t-14.5 -10.5t-11.5 -4.5zM260 297l-1 -1h-121l26 78q3 11 17 22t25 11h485q10 -1 18 -11.5t5 -21.5l-26 -78h-121l1 1h-308zM526 547h114l-34 -103h-114z
M430 444h-114l34 103h114z" />
    <glyph glyph-name="FL00CCh" unicode="&#xcc;" 
d="M628 111l-36 -111h-550l36 111h214l48 147h121l-48 -147h215zM688 296h-550l36 111h550zM506 547l21 -103h-106l-29 103h114z" />
    <glyph glyph-name="FL00CDh" unicode="&#xcd;" 
d="M628 111l-36 -111h-550l36 111h214l48 147h121l-48 -147h215zM724 407l-36 -111h-550l36 111h550zM395 444l89 103h114l-97 -103h-106z" />
    <glyph glyph-name="FL00CEh" unicode="&#xce;" 
d="M628 111l-36 -111h-550l36 111h214l48 147h121l-48 -147h215zM724 407l-36 -111h-550l36 111h550zM429 444h-113l97 103h164l29 -103h-113l-14 56z" />
    <glyph glyph-name="FL00CFh" unicode="&#xcf;" 
d="M628 111l-36 -111h-550l36 111h214l48 147h121l-48 -147h215zM688 296h-550l36 111h550zM464 547l-34 -103h-114l34 103h114zM492 444l34 103h114l-34 -103h-114z" />
    <glyph glyph-name="FL00D0h" unicode="&#xd0;" horiz-adv-x="728" 
d="M293 111h308l48 147h121l-70 -216q-2 -6 -9 -13t-15.5 -13.5t-17 -11t-14.5 -4.5h-508l48 148h-94l36 110h380l-36 -110h-165zM805 365l-23 -69h-550l36 111h508q4 0 9.5 -4.5t10.5 -11t7.5 -13.5t1.5 -13z" />
    <glyph glyph-name="FL00D1h" unicode="&#xd1;" horiz-adv-x="649" 
d="M435 258l100 -104l34 104h122l-84 -258h-118l-244 253l-82 -253h-121l84 258h309zM600 444h-144l-15 54l-49 -54h-113l97 103h144l15 -54l49 54h113zM174 407h119l106 -111h-261zM581 296l36 111h122l-36 -111h-122z" />
    <glyph glyph-name="FL00F3h" unicode="&#xd2;" 
d="M602 32q-3 -11 -16.5 -21.5t-24.5 -10.5h-488q-11 0 -17 11.5t-4 20.5l74 226h121l-48 -147h308l48 147h121zM138 296l26 79q5 11 19 21.5t22 10.5h488q8 0 16.5 -10.5t4.5 -21.5l-26 -79h-550zM527 444h-106l-29 103h114z" />
    <glyph glyph-name="FL00F2h" unicode="&#xd3;" 
d="M602 32q-3 -11 -16.5 -21.5t-24.5 -10.5h-488q-11 0 -17 11.5t-4 20.5l74 226h121l-48 -147h308l48 147h121zM138 296l26 79q5 11 19 21.5t22 10.5h488q8 0 16.5 -10.5t4.5 -21.5l-26 -79h-550zM484 547h114l-97 -103h-106z" />
    <glyph glyph-name="FL00D4h" unicode="&#xd4;" 
d="M602 32q-3 -11 -16.5 -21.5t-24.5 -10.5h-488q-11 0 -17 11.5t-4 20.5l74 226h121l-48 -147h308l48 147h121zM688 296h-550l26 79q5 11 19 21.5t22 10.5h488q8 0 16.5 -10.5t4.5 -21.5zM316 444l97 103h164l29 -103h-113l-14 56l-50 -56h-113z" />
    <glyph glyph-name="FL00D5h" unicode="&#xd5;" 
d="M602 32q-3 -11 -16.5 -21.5t-24.5 -10.5h-488q-11 0 -17 11.5t-4 20.5l74 226h121l-48 -147h308l48 147h121zM138 296l26 79q5 11 19 21.5t22 10.5h488q8 0 16.5 -10.5t4.5 -21.5l-26 -79h-550zM592 444h-144l-15 54l-49 -54h-113l97 103h144l15 -54l49 54h113z" />
    <glyph glyph-name="FL00D6h" unicode="&#xd6;" 
d="M602 32q-3 -11 -16.5 -21.5t-24.5 -10.5h-488q-11 0 -17 11.5t-4 20.5l74 226h121l-48 -147h308l48 147h121zM138 296l26 79q5 11 19 21.5t22 10.5h488q8 0 16.5 -10.5t4.5 -21.5l-26 -79h-550zM430 444h-114l34 103h114zM526 547h114l-34 -103h-114z" />
    <glyph glyph-name="FL00D7h" unicode="&#xd7;" horiz-adv-x="346" 
d="M161 203l-36 55h264l-72 -55l46 -69l-102 -77l-47 68l-91 -68l-52 77zM355 349l36 -53h-107zM147 296l70 53l37 -53h-107z" />
    <glyph glyph-name="FL00D8h" unicode="&#xd8;" 
d="M602 32q-3 -11 -16.5 -21.5t-24.5 -10.5h-488q-11 0 -17 11.5t-4 20.5l74 226h121l-48 -147h42l124 147h129l-124 -147h137l48 147h121zM688 296h-550l26 79q5 11 19 21.5t22 10.5h488q8 0 16.5 -10.5t4.5 -21.5z" />
    <glyph glyph-name="FL00D9h" unicode="&#xd9;" 
d="M602 32q-3 -11 -16.5 -21.5t-24.5 -10.5h-488q-11 0 -17 11.5t-4 20.5l74 226h121l-48 -147h308l48 147h121zM567 296l36 111h121l-36 -111h-121zM138 296l36 111h121l-36 -111h-121zM527 444h-106l-29 103h114z" />
    <glyph glyph-name="FL00DAh" unicode="&#xda;" 
d="M602 32q-3 -11 -16.5 -21.5t-24.5 -10.5h-488q-11 0 -17 11.5t-4 20.5l74 226h121l-48 -147h308l48 147h121zM567 296l36 111h121l-36 -111h-121zM138 296l36 111h121l-36 -111h-121zM484 547h114l-97 -103h-106z" />
    <glyph glyph-name="FL00DBh" unicode="&#xdb;" 
d="M602 32q-3 -11 -16.5 -21.5t-24.5 -10.5h-488q-11 0 -17 11.5t-4 20.5l74 226h121l-48 -147h308l48 147h121zM316 444l97 103h164l29 -103h-113l-14 56l-50 -56h-113zM567 296l36 111h121l-36 -111h-121zM138 296l36 111h121l-36 -111h-121z" />
    <glyph glyph-name="FL00DCh" unicode="&#xdc;" 
d="M602 32q-3 -11 -16.5 -21.5t-24.5 -10.5h-488q-11 0 -17 11.5t-4 20.5l74 226h121l-48 -147h308l48 147h121zM138 296l36 111h121l-36 -111h-121zM567 296l36 111h121l-36 -111h-121zM526 547h114l-34 -103h-114zM430 444h-114l34 103h114z" />
    <glyph glyph-name="FL00DDh" unicode="&#xdd;" 
d="M42 0l36 111h429l12 37h-394q-9 3 -17.5 12t-6.5 23l25 75h550l-73 -223q-4 -11 -18.5 -23t-25.5 -12h-517zM138 296l36 111h121l-36 -111h-121zM567 296l36 111h121l-36 -111h-121zM484 547h114l-97 -103h-106z" />
    <glyph glyph-name="FL00DEh" unicode="&#xde;" horiz-adv-x="646" 
d="M163 0h-121l84 258h562l-7 -20q-29 -88 -65 -135t-67 -47h-368zM174 407h121l-18 -56h405q16 0 18 -17.5t-2 -37.5h-560zM241 240l-24 -74h320l24 74h-320z" />
    <glyph glyph-name="FL00DFh" unicode="&#xdf;" 
d="M275 148l36 110h363q-10 -20 -19 -30.5t-25 -24.5l7.5 -15t3.5 -17q0 -9 -3 -23t-10 -36l-9 -30q-4 -11 -9.5 -25t-13.5 -27t-17.5 -21.5t-20.5 -8.5h-331l36 111h244l12 37h-244zM698 325l-10 -29h-550l26 79q5 11 19 21.5t22 10.5h485q11 0 15 -8.5t3.5 -21.5t-4 -27
t-6.5 -25zM-3 -139l129 397h121l-129 -397h-121z" />
    <glyph glyph-name="FL00E0h" unicode="&#xe0;" 
d="M235 221h308l12 37h121l-84 -258h-121l36 111h-308l-36 -111h-121l84 258h121zM714 375l-26 -79h-550l26 79q4 9 17 20.5t24 11.5h488q11 0 18 -10.5t3 -21.5zM527 444h-106l-29 103h114z" />
    <glyph glyph-name="FL00E1h" unicode="&#xe1;" 
d="M235 221h308l12 37h121l-84 -258h-121l36 111h-308l-36 -111h-121l84 258h121zM714 375l-26 -79h-550l26 79q4 9 17 20.5t24 11.5h488q11 0 18 -10.5t3 -21.5zM484 547h114l-97 -103h-106z" />
    <glyph glyph-name="FL00E2h" unicode="&#xe2;" 
d="M235 221h308l12 37h121l-84 -258h-121l36 111h-308l-36 -111h-121l84 258h121zM714 375l-26 -79h-550l26 79q4 9 17 20.5t24 11.5h488q11 0 18 -10.5t3 -21.5zM316 444l97 103h164l29 -103h-113l-14 56l-50 -56h-113z" />
    <glyph glyph-name="FL00E3h" unicode="&#xe3;" 
d="M235 221h308l12 37h121l-84 -258h-121l36 111h-308l-36 -111h-121l84 258h121zM714 375l-26 -79h-550l26 79q4 9 17 20.5t24 11.5h488q11 0 18 -10.5t3 -21.5zM592 444h-144l-15 54l-49 -54h-113l97 103h144l15 -54l49 54h113z" />
    <glyph glyph-name="FL00E4h" unicode="&#xe4;" 
d="M235 221h308l12 37h121l-84 -258h-121l36 111h-308l-36 -111h-121l84 258h121zM714 375l-26 -79h-550l26 79q4 9 17 20.5t24 11.5h488q11 0 18 -10.5t3 -21.5zM526 547h114l-34 -103h-114zM430 444h-114l34 103h114z" />
    <glyph glyph-name="FL00E5h" unicode="&#xe5;" 
d="M592 0h-121l36 111h-308l-36 -111h-121l84 258h121l-12 -37h308l12 37h121zM138 296l26 79q4 9 17 20.5t24 11.5h488q11 0 18 -10.5t3 -21.5l-26 -79h-550zM519 444h-114l34 103h114zM456 480h36l10 31h-36z" />
    <glyph glyph-name="FL00E6h" unicode="&#xe6;" horiz-adv-x="1064" 
d="M235 221h308l12 37h524l-36 -110h-402l-12 -37h429l-36 -111h-551l36 111h-308l-36 -111h-121l84 258h121zM1154 407l-36 -111h-980l26 79q4 9 17 20.5t24 11.5h949z" />
    <glyph glyph-name="FL00E7h" unicode="&#xe7;" 
d="M641 150l-39 -118q-3 -11 -16.5 -21.5t-24.5 -10.5h-173l-47 -146h-173l31 98h75l16 48h-217q-11 0 -17 11.5t-4 20.5l74 226h121l-48 -147h308l13 39h121zM688 296h-550l26 79q5 11 19 21.5t22 10.5h488q8 0 16.5 -10.5t4.5 -21.5z" />
    <glyph glyph-name="FL00E8h" unicode="&#xe8;" 
d="M592 0h-550l84 258h523l-36 -110h-402l-12 -37h429zM174 407h550l-36 -111h-550zM506 547l21 -103h-106l-29 103h114z" />
    <glyph glyph-name="FL00E9h" unicode="&#xe9;" 
d="M592 0h-550l84 258h523l-36 -110h-402l-12 -37h429zM174 407h550l-36 -111h-550zM395 444l89 103h114l-97 -103h-106z" />
    <glyph glyph-name="FL00EAh" unicode="&#xea;" 
d="M592 0h-550l84 258h523l-36 -110h-402l-12 -37h429zM174 407h550l-36 -111h-550zM429 444h-113l97 103h164l29 -103h-113l-14 56z" />
    <glyph glyph-name="FL00EBh" unicode="&#xeb;" 
d="M592 0h-550l84 258h523l-36 -110h-402l-12 -37h429zM174 407h550l-36 -111h-550zM464 547l-34 -103h-114l34 103h114zM492 444l34 103h114l-34 -103h-114z" />
    <glyph glyph-name="FL00EDh" unicode="&#xec;" horiz-adv-x="206" 
d="M164 0h-122l84 258h122zM138 296l36 111h122l-36 -111h-122zM331 444h-106l-29 103h114z" />
    <glyph glyph-name="FL00ECh" unicode="&#xed;" horiz-adv-x="206" 
d="M164 0h-122l84 258h122zM174 407h122l-36 -111h-122zM252 547h114l-97 -103h-106z" />
    <glyph glyph-name="FL00EEh" unicode="&#xee;" horiz-adv-x="206" 
d="M42 0l84 258h122l-84 -258h-122zM216 444h-113l97 103h164l29 -103h-113l-14 56zM296 407l-36 -111h-122l36 111h122z" />
    <glyph glyph-name="FL00EFh" unicode="&#xef;" horiz-adv-x="206" 
d="M42 0l84 258h122l-84 -258h-122zM296 407l-36 -111h-122l36 111h122zM251 547l-34 -103h-114l34 103h114zM279 444l34 103h114l-34 -103h-114z" />
    <glyph glyph-name="FL00F0h" unicode="&#xf0;" 
d="M113 220q1 4 6.5 10t12 12t13.5 10.5t12 5.5h519l-74 -226q-5 -14 -20 -23t-23 -9h-485q-10 1 -17.5 11.5t-3.5 21.5zM520 462l-18 -55h189q11 0 18.5 -10.5t4.5 -21.5l-26 -79h-550l36 111h209l18 55h119zM198 109h308l13 39h-308z" />
    <glyph glyph-name="FL00F1h" unicode="&#xf1;" horiz-adv-x="649" 
d="M435 258l100 -104l34 104h122l-84 -258h-118l-244 253l-82 -253h-121l84 258h309zM600 444h-144l-15 54l-49 -54h-113l97 103h144l15 -54l49 54h113zM174 407h119l106 -111h-261zM581 296l36 111h122l-36 -111h-122z" />
    <glyph glyph-name="FL00F5h" unicode="&#xf2;" 
d="M602 32q-3 -11 -16.5 -21.5t-24.5 -10.5h-488q-11 0 -17 11.5t-4 20.5l74 226h121l-48 -147h308l48 147h121zM138 296l26 79q5 11 19 21.5t22 10.5h488q8 0 16.5 -10.5t4.5 -21.5l-26 -79h-550zM527 444h-106l-29 103h114z" />
    <glyph glyph-name="FL00F7h" unicode="&#xf3;" 
d="M602 32q-3 -11 -16.5 -21.5t-24.5 -10.5h-488q-11 0 -17 11.5t-4 20.5l74 226h121l-48 -147h308l48 147h121zM138 296l26 79q5 11 19 21.5t22 10.5h488q8 0 16.5 -10.5t4.5 -21.5l-26 -79h-550zM484 547h114l-97 -103h-106z" />
    <glyph glyph-name="FL00F4h" unicode="&#xf4;" 
d="M602 32q-3 -11 -16.5 -21.5t-24.5 -10.5h-488q-11 0 -17 11.5t-4 20.5l74 226h121l-48 -147h308l48 147h121zM688 296h-550l26 79q5 11 19 21.5t22 10.5h488q8 0 16.5 -10.5t4.5 -21.5zM316 444l97 103h164l29 -103h-113l-14 56l-50 -56h-113z" />
    <glyph glyph-name="FL00F8h" unicode="&#xf5;" 
d="M602 32q-3 -11 -16.5 -21.5t-24.5 -10.5h-488q-11 0 -17 11.5t-4 20.5l74 226h121l-48 -147h308l48 147h121zM138 296l26 79q5 11 19 21.5t22 10.5h488q8 0 16.5 -10.5t4.5 -21.5l-26 -79h-550zM592 444h-144l-15 54l-49 -54h-113l97 103h144l15 -54l49 54h113z" />
    <glyph glyph-name="FL00F6h" unicode="&#xf6;" 
d="M602 32q-3 -11 -16.5 -21.5t-24.5 -10.5h-488q-11 0 -17 11.5t-4 20.5l74 226h121l-48 -147h308l48 147h121zM138 296l26 79q5 11 19 21.5t22 10.5h488q8 0 16.5 -10.5t4.5 -21.5l-26 -79h-550zM430 444h-114l34 103h114zM526 547h114l-34 -103h-114z" />
    <glyph glyph-name="FL0101h" unicode="&#xf7;" horiz-adv-x="474" 
d="M516 258l-36 -110h-390l36 110h390zM218 116h114l-34 -103h-114zM276 296l32 97h114l-32 -97h-114z" />
    <glyph glyph-name="FL00FEh" unicode="&#xf8;" 
d="M199 111h137l-29 147h129l29 -147h42l48 147h121l-74 -226q-4 -9 -17 -20.5t-24 -11.5h-488q-11 0 -17.5 10.5t-3.5 21.5l74 226h121zM138 296l26 79q2 6 7 11.5t11 10t12.5 7.5t10.5 3h488q8 0 16 -10.5t5 -21.5l-26 -79h-550z" />
    <glyph glyph-name="FL00F9h" unicode="&#xf9;" 
d="M602 32q-3 -11 -16.5 -21.5t-24.5 -10.5h-488q-11 0 -17 11.5t-4 20.5l74 226h121l-48 -147h308l48 147h121zM567 296l36 111h121l-36 -111h-121zM138 296l36 111h121l-36 -111h-121zM527 444h-106l-29 103h114z" />
    <glyph glyph-name="FL00FAh" unicode="&#xfa;" 
d="M602 32q-3 -11 -16.5 -21.5t-24.5 -10.5h-488q-11 0 -17 11.5t-4 20.5l74 226h121l-48 -147h308l48 147h121zM567 296l36 111h121l-36 -111h-121zM138 296l36 111h121l-36 -111h-121zM484 547h114l-97 -103h-106z" />
    <glyph glyph-name="FL00FBh" unicode="&#xfb;" 
d="M602 32q-3 -11 -16.5 -21.5t-24.5 -10.5h-488q-11 0 -17 11.5t-4 20.5l74 226h121l-48 -147h308l48 147h121zM316 444l97 103h164l29 -103h-113l-14 56l-50 -56h-113zM567 296l36 111h121l-36 -111h-121zM138 296l36 111h121l-36 -111h-121z" />
    <glyph glyph-name="FL00FCh" unicode="&#xfc;" 
d="M602 32q-3 -11 -16.5 -21.5t-24.5 -10.5h-488q-11 0 -17 11.5t-4 20.5l74 226h121l-48 -147h308l48 147h121zM138 296l36 111h121l-36 -111h-121zM567 296l36 111h121l-36 -111h-121zM526 547h114l-34 -103h-114zM430 444h-114l34 103h114z" />
    <glyph glyph-name="FL00FDh" unicode="&#xfd;" 
d="M235 222h308l12 36h121l-38 -115q-3 -11 -16.5 -21.5t-24.5 -10.5h-184l-36 -111h-121l36 111h-183q-11 0 -17 11.5t-4 20.5l38 115h121zM295 407l-36 -111h-121l36 111h121zM724 407l-36 -111h-121l36 111h121zM395 444l89 103h114l-97 -103h-106z" />
    <glyph glyph-name="FL0100h" unicode="&#xfe;" horiz-adv-x="646" 
d="M163 0h-121l84 258h562l-7 -20q-29 -88 -65 -135t-67 -47h-368zM174 407h121l-18 -56h405q16 0 18 -17.5t-2 -37.5h-560zM241 240l-24 -74h320l24 74h-320z" />
    <glyph glyph-name="FL00FFh" unicode="&#xff;" 
d="M235 222h308l12 36h121l-38 -115q-3 -11 -16.5 -21.5t-24.5 -10.5h-184l-36 -111h-121l36 111h-183q-11 0 -17 11.5t-4 20.5l38 115h121zM724 407l-36 -111h-121l36 111h121zM295 407l-36 -111h-121l36 111h121zM464 547l-34 -103h-114l34 103h114zM492 444l34 103h114
l-34 -103h-114z" />
    <glyph glyph-name="FL0153h" unicode="&#x152;" horiz-adv-x="1065" 
d="M507 111l48 147h525l-36 -110h-402l-12 -37h429l-36 -111h-950q-11 0 -17 11.5t-4 20.5l74 226h121l-48 -147h308zM1155 407l-36 -111h-981l26 79q5 11 19 21.5t22 10.5h950z" />
    <glyph glyph-name="FL0152h" unicode="&#x153;" horiz-adv-x="1065" 
d="M507 111l48 147h525l-36 -110h-402l-12 -37h429l-36 -111h-950q-11 0 -17 11.5t-4 20.5l74 226h121l-48 -147h308zM1155 407l-36 -111h-981l26 79q5 11 19 21.5t22 10.5h950z" />
    <glyph glyph-name="FL0160h" unicode="&#x160;" 
d="M507 111l12 37h-382q-20 0 -28.5 14.5t-5.5 24.5l23 71h517q4 0 8.5 -4.5t7.5 -10.5t4 -12.5t0 -10.5l-60 -185q-4 -11 -18.5 -23t-25.5 -12h-517l36 111h429zM138 296l24 72q7 16 21 26t31 13h510l-36 -111h-550zM640 547l-97 -103h-164l-29 103h113l14 -56l50 56h113z
" />
    <glyph glyph-name="FL0161h" unicode="&#x161;" 
d="M507 111l12 37h-382q-20 0 -28.5 14.5t-5.5 24.5l23 71h517q4 0 8.5 -4.5t7.5 -10.5t4 -12.5t0 -10.5l-60 -185q-4 -11 -18.5 -23t-25.5 -12h-517l36 111h429zM138 296l24 72q7 16 21 26t31 13h510l-36 -111h-550zM640 547l-97 -103h-164l-29 103h113l14 -56l50 56h113z
" />
    <glyph glyph-name="FL0178h" unicode="&#x178;" 
d="M42 0l36 111h429l12 37h-394q-9 3 -17.5 12t-6.5 23l25 75h550l-73 -223q-4 -11 -18.5 -23t-25.5 -12h-517zM138 296l36 111h121l-36 -111h-121zM567 296l36 111h121l-36 -111h-121zM526 547h114l-34 -103h-114zM430 444h-114l34 103h114z" />
    <glyph glyph-name="FL017Dh" unicode="&#x17d;" 
d="M628 112l-36 -112h-550l32 98l310 160h210l-285 -146h319zM138 296l36 111h550l-32 -99l-24 -12h-530zM640 547l-97 -103h-164l-29 103h113l14 -56l50 56h113z" />
    <glyph glyph-name="FL017Eh" unicode="&#x17e;" 
d="M628 112l-36 -112h-550l32 98l310 160h210l-285 -146h319zM138 296l36 111h550l-32 -99l-24 -12h-530zM640 547l-97 -103h-164l-29 103h113l14 -56l50 56h113z" />
    <glyph glyph-name="k" unicode="&#x192;" horiz-adv-x="685" 
d="M163 0h-121l84 258h314l-131 -56l349 -202h-219l-237 121zM790 407l-261 -111h-232l273 111h220zM174 407h121l-36 -111h-121z" />
    <glyph glyph-name="FL02C6h" unicode="&#x2c6;" horiz-adv-x="344" 
d="M256 358h-113l97 103h164l29 -103h-113l-13 56z" />
    <glyph glyph-name="FL02DCh" unicode="&#x2dc;" horiz-adv-x="438" 
d="M465 359h-144l-16 54l-48 -54h-113l96 103h144l16 -54l48 54h113z" />
    <glyph glyph-name="FL2013h" unicode="&#x2013;" horiz-adv-x="388" 
d="M90 148l36 110h304l-36 -110h-304z" />
    <glyph glyph-name="FL2014h" unicode="&#x2014;" horiz-adv-x="464" 
d="M126 258h380l-36 -110h-380z" />
    <glyph glyph-name="FL2018h" unicode="&#x2018;" horiz-adv-x="205" 
d="M157 357l62 50h75l-36 -111h-121zM242 246h-121l4 12h121z" />
    <glyph glyph-name="FL2019h" unicode="&#x2019;" horiz-adv-x="205" 
d="M259 296h-121l36 111h121zM197 246h-75l4 12h86z" />
    <glyph glyph-name="FL201Ah" unicode="&#x201a;" horiz-adv-x="205" 
d="M163 0l-62 -50h-75l52 161h121z" />
    <glyph glyph-name="FL201Ch" unicode="&#x201c;" horiz-adv-x="352" 
d="M158 357l59 50h70l-36 -111h-113zM313 357l59 50h70l-36 -111h-113zM235 246h-113l4 12h113zM390 246h-113l4 12h113z" />
    <glyph glyph-name="FL201Dh" unicode="&#x201d;" horiz-adv-x="352" 
d="M406 296h-113l36 111h113zM251 296h-113l36 111h113zM192 246h-70l4 12h80zM347 246h-70l4 12h80z" />
    <glyph glyph-name="FL201Eh" unicode="&#x201e;" horiz-adv-x="355" 
d="M313 0l-62 -50h-75l52 161h121zM163 0l-62 -50h-75l52 161h121z" />
    <glyph glyph-name="FL2020h" unicode="&#x2020;" horiz-adv-x="467" 
d="M247 228h-131l10 30h383l-10 -30h-131l-74 -228h-121zM535 338l-14 -42h-383l14 42h131l22 69h121l-22 -69h131z" />
    <glyph glyph-name="FL2021h" unicode="&#x2021;" horiz-adv-x="467" 
d="M247 228h-131l10 30h383l-10 -30h-131l-16 -50h131l-36 -110h-131l-22 -68h-121l22 68h-131l36 110h131zM535 338l-14 -42h-383l14 42h131l22 69h121l-22 -69h131z" />
    <glyph glyph-name="FL2022h" unicode="&#x2022;" 
d="M602 32q-3 -11 -16.5 -21.5t-24.5 -10.5h-488q-11 0 -17 11.5t-4 20.5l74 226h550zM138 296l26 79q5 11 19 21.5t22 10.5h488q8 0 16.5 -10.5t4.5 -21.5l-26 -79h-550z" />
    <glyph glyph-name="FL2026h" unicode="&#x2026;" horiz-adv-x="591" 
d="M356 0h-121l36 111h121zM163 0h-121l36 111h121zM549 0h-121l36 111h121z" />
    <glyph glyph-name="FL00B0h" unicode="&#x2030;" horiz-adv-x="989" 
d="M652 -9q-2 -6 -8.5 -11t-12.5 -5h-244q-5 0 -8.5 5.5t-1.5 10.5l48 147l-117 -138h-130l190 225h-238q-5 0 -8.5 5.5t-1.5 10.5l6 17h400l-65 -77h237q5 0 9 -5t2 -11zM1001 165l-57 -174q-2 -6 -8.5 -11t-12.5 -5h-244q-5 0 -8.5 5.5t-1.5 10.5l57 174q2 6 9 11t11 5
h244q5 0 9 -5t2 -11zM452 415l-39 -119h-275l39 119q2 6 9 11t11 5h244q5 0 9 -5t2 -11zM652 407l-94 -111h-130l94 111h130zM590 50l18 56h-114l-18 -56h114zM768 50h114l18 56h-114zM333 300l19 56h-114l-19 -56h114z" />
    <glyph glyph-name="FL2039h" unicode="&#x2039;" horiz-adv-x="288" 
d="M229 203l32 -203h-131l-37 203l46 55h134zM262 407h131l-90 -111h-133z" />
    <glyph glyph-name="FL203Ah" unicode="&#x203a;" horiz-adv-x="288" 
d="M191 203l-9 55h135l10 -55l-169 -203h-131zM290 407l20 -111h-134l-17 111h131z" />
    <glyph glyph-name="FL20ACh" unicode="&#x20ac;" horiz-adv-x="738" 
d="M216 216h-104l14 42h445l-14 -42h-220l-7 -23h220l-20 -60h-220l-7 -23h308l13 40h121l-39 -118q-3 -11 -16.5 -21.5t-24.5 -10.5h-488q-11 0 -17 11.5t-4 20.5l33 101h-104l20 60h104zM364 297l-1 -1h-121l26 79q5 11 19 21.5t22 10.5h488q8 0 16.5 -10.5t4.5 -21.5
l-26 -79h-121l1 1h-308z" />
    <glyph glyph-name="FL2122h" unicode="&#x2122;" horiz-adv-x="345" 
d="M332 478q1 0 3 0.5t4 0.5q6 0 6 2l-2 1l0.5 0.5t2.5 0.5q4 0 12 -12.5t8 -25.5l-1 -58q9 11 14.5 19.5t12.5 21.5q1 4 3 5q15 16 24 26t14.5 15t10 6.5t11.5 1.5h5l-44 -134h-14l28 87l-1 10q-22 -34 -35.5 -53.5t-21.5 -29t-11.5 -12t-5.5 -2.5h-4q-2 0 -3.5 1t-1.5 7
l-4 86l-10 -7l-28 -87h-14zM238 461h-46l7 21h113l-7 -21h-46l-37 -113h-21z" />
    <glyph glyph-name="FL005Bh" horiz-adv-x="779" 
d="M73 0q-9 0 -20 10.5t-11 21.5v375h121v-296h166v296h121v-296h166v296h121v-375q0 -12 -10 -22t-21 -10h-633z" />
    <glyph glyph-name="FLE003h" horiz-adv-x="618" 
d="M309 281l-150 -281h-132l218 407h128l218 -407h-132z" />
    </font>
</defs>
</svg>
