<?xml version="1.0" standalone="no"?>
<!DOCTYPE svg PUBLIC "-//W3C//DTD SVG 1.1//EN" "http://www.w3.org/Graphics/SVG/1.1/DTD/svg11.dtd" >
<svg xmlns="http://www.w3.org/2000/svg" xmlns:xlink="http://www.w3.org/1999/xlink" version="1.1">
<metadata>
Created by FontForge 20170731 at Wed Feb 11 02:23:15 2015
 By Aleksey,,,
Copyright (c) 2015 by dcoxy Medina Gregory. All rights reserved. 
You need my agreement for every diffusions, reproduction and commercial use. 
Thank you to contact me before: dcoxymg@gmail.com
</metadata>
<defs>
<font id="BriocheauPotiron" horiz-adv-x="297" >
  <font-face 
    font-family="Brioche au Potiron"
    font-weight="400"
    font-stretch="normal"
    units-per-em="1000"
    panose-1="2 0 0 0 0 0 0 0 0 0"
    ascent="800"
    descent="-200"
    x-height="337"
    cap-height="631"
    bbox="-95 -250.958 718 750"
    underline-thickness="50"
    underline-position="-150"
    unicode-range="U+0020-2212"
  />
<missing-glyph horiz-adv-x="131" 
 />
    <glyph glyph-name=".notdef" horiz-adv-x="131" 
 />
    <glyph glyph-name=".null" horiz-adv-x="0" 
 />
    <glyph glyph-name="nonmarkingreturn" horiz-adv-x="131" 
 />
    <glyph glyph-name="space" unicode=" " horiz-adv-x="131" 
 />
    <glyph glyph-name="space" unicode="&#xa0;" horiz-adv-x="131" 
 />
    <glyph glyph-name="exclam" unicode="!" horiz-adv-x="176" 
d="M62 80q-13 0 -13 13v589q0 13 13 13q14 0 14 -13v-589q0 -13 -14 -13zM62 40q10 0 15 -6.5t5 -14t-5 -13.5t-15 -6t-15 6t-5 13.5t5 14t15 6.5z" />
    <glyph glyph-name="numbersign" unicode="#" horiz-adv-x="362" 
d="M248 562q-3 -21 -6.5 -44t-6.5 -44h49q13 0 13 -13q0 -14 -13 -14h-53q-2 -15 -4 -25t-2 -13q-2 -12 -14 -12l-2 1q-13 2 -11 15q1 2 2 11.5t3 22.5h-74q-5 -28 -5 -33q-2 -12 -13 -12q-2 0 -2 1q-14 2 -12 15q2 6 5 29h-37q-14 0 -14 14q0 13 14 13h41q3 20 6.5 43
t6.5 45h-44q-14 0 -14 13q0 14 14 14h49q5 38 7 45q2 14 15 12q13 -4 11 -16q0 -2 -2 -13t-4 -28h74q2 16 4 27t2 13q2 14 16 12q13 -4 11 -16q-1 -2 -2.5 -12t-3.5 -24h42q13 0 13 -14q0 -13 -13 -13h-46zM207 474q4 21 7.5 44t6.5 44h-74q-4 -21 -7.5 -44t-6.5 -44h74z
" />
    <glyph glyph-name="dollar" unicode="$" horiz-adv-x="344" 
d="M279 199q6 0 10 -4t4 -9q0 -44 -9.5 -77.5t-26 -56.5t-37.5 -35.5t-44 -15.5q-4 -2 -7 -2t-7 2q-23 1 -43.5 11t-36.5 28t-25.5 43.5t-9.5 57.5q0 14 13 14q14 0 14 -14q0 -51 25 -79.5t56 -33.5v144h-95q-5 0 -9 4t-4 10q0 138 9 233t24 156q16 60 36 90t50 32
q31 -2 52 -30.5t38 -73.5q17 -47 27 -107.5t10 -130.5q0 -13 -14 -13q-13 0 -13 13q0 68 -9.5 126.5t-25.5 101.5q-11 32 -24.5 52.5t-24.5 28.5v-465h40h57zM155 199v468q-11 -7 -24.5 -30t-24.5 -69q-14 -57 -22.5 -147t-9.5 -222h81zM182 29q30 6 55 39.5t29 103.5h-44
h-40v-143z" />
    <glyph glyph-name="percent" unicode="%" horiz-adv-x="296" 
d="M183 327q5 -2 7.5 -7.5t0.5 -10.5q0 -2 -8.5 -24t-20 -55t-25.5 -71t-25.5 -71t-20 -55.5t-8.5 -23.5q-3 -9 -13 -9q-3 0 -5 1q-5 2 -7.5 7t-0.5 10q1 2 9 24l20 55t26 71t25.5 71t19.5 55.5t9 24.5q5 11 17 8zM195 140q27 0 40.5 -17.5t13.5 -38.5t-13.5 -38.5
t-40.5 -17.5t-41 17.5t-14 38.5t14 38.5t41 17.5zM195 63q10 0 15 6.5t5 14.5t-5 14.5t-15 6.5q-11 0 -16 -6.5t-5 -14.5t5 -14.5t16 -6.5zM54 301q27 0 41 -17.5t14 -39t-14 -39t-41 -17.5t-40.5 17.5t-13.5 39t13.5 39t40.5 17.5zM54 223q10 0 15.5 6.5t5.5 15t-5.5 15
t-15.5 6.5t-15 -6.5t-5 -15t5 -15t15 -6.5z" />
    <glyph glyph-name="ampersand" unicode="&#x26;" horiz-adv-x="511" 
d="M389 199q-1 0 -1 -1q-1 0 -2 -0.5t-2 -0.5q11 -24 15 -57.5t-8 -64.5t-44.5 -53t-95.5 -22q-104 0 -156 32t-53 80q1 41 36.5 75t96.5 48q-27 11 -50 30t-40 48t-26 69t-9 94v3q0 49 13.5 89t34.5 68.5t47 44t52 16.5q50 -2 83.5 -60.5t34.5 -179.5q0 -14 -13 -14
q-14 0 -14 14q0 58 -8.5 99t-22.5 67t-29.5 37.5t-30.5 9.5q-20 -2 -41 -15t-38 -37t-28.5 -59t-12.5 -81v-2q0 -59 11.5 -99t31 -66.5t45 -40.5t54.5 -20q9 -2 13.5 -7.5t4.5 -11.5t-4 -11t-11 -5q-34 -2 -60.5 -11.5t-46.5 -22.5q-23 -15 -34.5 -33.5t-11.5 -35.5
q0 -15 9 -29.5t31 -27.5q22 -12 56.5 -20t85.5 -8q55 0 81.5 21t33.5 49t1 56t-15 41q-9 0 -9 -1q-1 0 -1 -1v-3q-4 -16 -19 -13q-7 1 -11 6.5t-2 12.5q2 19 19 28q17 6 30 4t15 1q1 0 3 7q2 16 18 14t14 -18q-2 -11 -7 -19.5t-13 -12.5z" />
    <glyph glyph-name="quotesingle" unicode="'" horiz-adv-x="135" 
d="M53 582q0 7 4.5 10t9.5 3t9.5 -3t4.5 -10q2 -34 -13 -67.5t-41 -54.5q-5 -4 -11 -3t-9.5 4.5t-4 9t4.5 9.5q23 18 35 45.5t11 56.5z" />
    <glyph glyph-name="parenleft" unicode="(" horiz-adv-x="164" 
d="M114 631q10 -7 3 -18q-22 -31 -38.5 -71.5t-27.5 -86t-16.5 -94.5t-5.5 -98q0 -48 5.5 -94t15.5 -85.5t25 -71.5t35 -53q4 -4 4 -9.5t-4 -9.5q-5 -3 -10 -3q-6 0 -10 4q-23 24 -39 59t-27 77t-16.5 89t-5.5 97t5.5 101t17 98t29 89.5t41.5 76.5q3 5 8.5 6t10.5 -3z" />
    <glyph glyph-name="parenright" unicode=")" horiz-adv-x="169" 
d="M9 631q5 4 10.5 3t8.5 -6q24 -34 41.5 -76.5t29 -89.5t17 -98t5.5 -101t-5.5 -97t-16.5 -89t-27.5 -77t-38.5 -59q-4 -4 -10 -4t-10 3q-4 4 -4 9.5t4 9.5q19 21 34.5 53t25.5 71.5t15.5 85.5t5.5 94q0 49 -5.5 98t-16.5 94.5t-27.5 86t-38.5 71.5q-7 11 3 18z" />
    <glyph glyph-name="asterisk" unicode="*" horiz-adv-x="299" 
d="M232 557q14 0 14 -13q0 -14 -14 -14h-81q19 -24 33 -42t17 -22q9 -10 -2 -19q-5 -3 -8 -3q-6 0 -11 5q-2 4 -14.5 19.5t-29.5 36.5v-71q0 -13 -13 -13q-14 0 -14 13v72q-17 -21 -30.5 -36.5t-15.5 -18.5q-5 -5 -10 -5t-9 3q-9 8 -2 19q3 3 17.5 21t34.5 41h-81
q-13 0 -13 14q0 13 13 13h82q-19 24 -33.5 42.5t-16.5 21.5q-4 5 -3.5 10.5t5.5 8.5q10 9 19 -2q2 -3 14 -18.5t29 -37.5v71q0 13 14 13q13 0 13 -13v-72q18 21 31 36.5t16 18.5q9 11 19 2q9 -9 1 -19q-2 -4 -17 -21.5t-34 -40.5h80v0z" />
    <glyph glyph-name="plus" unicode="+" horiz-adv-x="235" 
d="M169 104q13 0 13 -13t-13 -13h-64v-65q0 -5 -4.5 -9t-9.5 -4q-13 0 -13 13v65h-65q-13 0 -13 13t13 13h65v65q0 13 13 13t13 -13v-65h65v0z" />
    <glyph glyph-name="comma" unicode="," horiz-adv-x="99" 
d="M28 49q17 -1 19 -19.5t-4 -40t-16.5 -39.5t-17.5 -18q-8 0 -9 18.5t3 40.5t10.5 40t14.5 18z" />
    <glyph glyph-name="hyphen" unicode="-" horiz-adv-x="239" 
d="M169 157q13 0 13 -14q0 -13 -13 -13h-156q-13 0 -13 13q0 14 13 14h156v0z" />
    <glyph glyph-name="period" unicode="." horiz-adv-x="89" 
d="M20 40q10 0 14.5 -6.5t4.5 -14t-4.5 -13.5t-14.5 -6t-15 6t-5 13.5t5 14t15 6.5z" />
    <glyph glyph-name="slash" unicode="/" horiz-adv-x="262" 
d="M194 665q14 -3 10 -16q-1 -3 -8.5 -33t-20 -76.5t-28 -105.5t-32 -120.5t-32 -120.5t-27.5 -105.5t-19.5 -76t-8.5 -32.5q-3 -10 -13 -10q-3 0 -4 1q-5 1 -8 6t-1 10q1 3 8.5 32.5t19.5 76t27.5 105.5t32 120t32 120t28 106t20 76.5t8.5 32.5q3 14 16 10z" />
    <glyph glyph-name="zero" unicode="0" horiz-adv-x="295" 
d="M211 605q16 -45 25.5 -109t9.5 -150v-4q-1 -78 -11.5 -140t-27.5 -106t-40.5 -69.5t-52.5 -26.5q-27 1 -47.5 23.5t-34.5 64.5q-15 42 -23.5 105t-8.5 151q0 87 9.5 151t25.5 109q16 44 37.5 68.5t50.5 25.5q29 -1 50 -25.5t38 -67.5zM114 27q11 -1 27 12.5t30 42.5
q-2 9 -10 39t-19 72.5t-24 93t-26 100t-24.5 93t-19.5 73.5q-10 -39 -15.5 -91t-5.5 -118q0 -86 8 -147.5t22 -99.5q14 -40 29.5 -55.5t27.5 -14.5zM219 346q0 85 -9.5 146.5t-24.5 102.5q-14 42 -31.5 59.5t-30.5 16.5q-12 1 -29 -15t-31 -54q2 -7 9.5 -37.5t19 -74
t25.5 -95.5t27 -103t24.5 -95.5t19.5 -73.5q14 41 22.5 95.5t8.5 123.5v4z" />
    <glyph glyph-name="one" unicode="1" horiz-adv-x="295" 
d="M232 27q14 0 14 -14q0 -13 -14 -13h-109h-110q-13 0 -13 13q0 14 13 14h96v565q-11 -35 -24 -76t-25 -77.5t-21 -65t-12 -38.5q-2 -9 -13 -9h-3q-6 2 -9 7t-1 10q3 10 11.5 37t20 62t24 74t24 73.5t19.5 60.5t10 36v1q1 1 1 1.5t1 1.5v1q2 2 4 3q3 3 7 3q2 0 4 -1l4 -2
q2 -2 3 -4q1 -1 1 -2t1 -2v-2v-1v-656h96v0z" />
    <glyph glyph-name="two" unicode="2" horiz-adv-x="295" 
d="M234 27q5 0 9 -4.5t4 -9.5q0 -13 -14 -13h-62h-156q-14 0 -14 13q0 5 4 9.5t9 4.5q30 1 66.5 33.5t67.5 93.5q31 60 51 142t20 179v3q0 47 -10 83t-24 61q-15 25 -32.5 36.5t-34.5 11.5q-15 0 -30.5 -10.5t-29.5 -36.5t-22.5 -67t-8.5 -100q0 -13 -14 -13q-13 0 -13 13
q1 121 34.5 180t83.5 61q26 -1 49 -16.5t40.5 -44t28 -69t10.5 -89.5v-3q0 -100 -21 -185t-53 -148q-39 -76 -89 -115h88h63v0z" />
    <glyph glyph-name="three" unicode="3" horiz-adv-x="298" 
d="M246 476q0 -54 -10.5 -94t-29 -69t-43 -48t-51.5 -30q62 -14 97 -48t36 -75q-1 -48 -52.5 -80t-156.5 -32h-22q-13 2 -13 14q0 6 4.5 9.5t9.5 3.5h21q51 0 86 8t57 20q22 13 30.5 27.5t8.5 29.5q1 17 -11 35.5t-35 33.5q-23 16 -57 26t-79 10q-2 0 -3.5 -0.5t-3.5 -0.5
h-14q-5 0 -9.5 3.5t-4.5 9.5q0 12 13 14q36 2 72 11.5t65.5 34.5t48 69.5t19.5 117.5v2q0 48 -10 84t-25 60q-15 25 -32 37t-34 11q-15 0 -30.5 -10.5t-29.5 -36.5t-22.5 -67t-8.5 -99q0 -14 -14 -14q-13 0 -13 14q1 121 34.5 179.5t83.5 60.5q26 -1 49 -16.5t40.5 -44
t28 -68.5t10.5 -89v-3v0z" />
    <glyph glyph-name="four" unicode="4" horiz-adv-x="296" 
d="M234 199q13 0 13 -13q0 -14 -13 -14h-28v-159q0 -13 -13 -13q-14 0 -14 13v159h-164q-6 0 -11 5q-3 7 -2 12q2 10 14.5 44.5t30 81.5t37.5 102.5t39 107.5t34.5 95t22.5 67q3 12 15 10q11 -2 11 -14v-207v-277h28zM179 199v277v125q-17 -48 -39 -107.5t-43 -117
t-38.5 -105.5t-25.5 -72h146z" />
    <glyph glyph-name="five" unicode="5" 
d="M27 353q53 -2 94 -17.5t68.5 -40t42 -55.5t14.5 -64q0 -34 -15.5 -65.5t-45 -56t-72.5 -39.5t-100 -15q-13 0 -13 13q0 14 13 14q53 0 92 13.5t64 34.5t37.5 47.5t12.5 53.5q0 40 -20 69t-51.5 48t-70 28t-77.5 9v199v155q0 6 4 9q3 4 9 4h219q14 0 14 -13q0 -14 -14 -14
h-205v-317v0z" />
    <glyph glyph-name="six" unicode="6" horiz-adv-x="296" 
d="M126 440q25 0 47 -14.5t38.5 -44t26 -74t9.5 -104.5v-18q-1 -45 -11 -79.5t-27 -58t-39 -35.5t-46 -12q-25 0 -47.5 12.5t-39.5 36.5t-27 58t-10 78v2q1 86 6 174.5t25 162.5q10 36 25.5 67.5t38 54.5t52.5 36t69 13h9.5t9.5 -1q12 -2 12 -15q-2 -12 -15 -12q-4 1 -8 1
h-8q-66 -1 -102.5 -41.5t-56.5 -110.5q-9 -30 -14.5 -64t-8.5 -71q17 28 41 43.5t51 15.5zM220 203q0 59 -9 99.5t-23 65.5t-30 35t-32 11q-16 0 -32.5 -9.5t-30.5 -28.5t-24 -47t-11 -63v-1q-1 -20 -1 -39.5v-39.5v-1q0 -41 9 -70.5t23 -49t31 -29t34 -9.5q16 0 32.5 8.5
t30.5 28t23 49.5t10 73v17z" />
    <glyph glyph-name="seven" unicode="7" horiz-adv-x="284" 
d="M243 682q0 -5 -5 -35.5t-12.5 -77t-17 -105t-19.5 -119.5t-20 -120t-17.5 -105.5t-12 -76t-4.5 -30.5q0 -13 -13 -13t-13 13q0 4 4.5 34.5t12 77t17.5 105t20 120.5q8 51 16.5 101.5t15 93.5t12 75.5t7.5 48.5h-201q-13 0 -13 14q0 13 13 13h216h1q13 0 13 -13v-1z" />
    <glyph glyph-name="eight" unicode="8" 
d="M142 257q19 -16 37 -30.5t33 -30t24 -33t10 -39.5v-2q-1 -30 -11.5 -53t-27.5 -38t-38.5 -23t-43.5 -8h-1q-23 0 -45 8t-39.5 23.5t-28.5 38t-11 52.5q1 21 10 38.5t23.5 33t32.5 31t36 32.5q-20 18 -38 40t-32.5 50t-23 61.5t-8.5 75.5q0 50 10 89.5t27 66.5t39.5 41.5
t48.5 15.5q25 0 47 -14t38.5 -41t26 -66t9.5 -90q0 -41 -9 -74.5t-23.5 -61.5t-33.5 -51t-38 -42zM27 484q0 -39 8 -69.5t21 -56t30 -45.5t36 -38q19 18 36.5 39.5t31 47t21.5 56t8 68.5q0 49 -9 84t-23 57q-14 23 -30 33t-32 10q-17 0 -34 -10.5t-31 -33.5t-23.5 -58.5
t-9.5 -83.5zM219 124q1 14 -6.5 27t-21 27t-31.5 29t-38 32q-20 -18 -37.5 -33.5t-30.5 -29.5t-20.5 -27.5t-6.5 -26.5q0 -24 8 -41.5t21.5 -29.5t31 -18t36.5 -6q18 0 35 6t30 17.5t21 29.5t9 42v2z" />
    <glyph glyph-name="nine" unicode="9" horiz-adv-x="300" 
d="M123 694q25 0 47.5 -13t40 -37t27.5 -58t10 -77v-2q-1 -87 -6 -175t-25 -162q-10 -36 -25.5 -67.5t-38 -54.5t-52.5 -36t-68 -13h-1h-19q-12 2 -12 15q1 5 5 9t10 3h16q65 0 102 40.5t57 110.5q9 31 14.5 65t8.5 70q-17 -27 -41 -42.5t-51 -16.5q-25 1 -47 15.5t-38.5 44
t-26 74t-9.5 104.5v17q2 91 38 138t84 48zM220 428q1 20 1 39.5v39.5v2q0 40 -9 70t-23 49.5t-31.5 29t-34.5 9.5q-16 0 -32.5 -9t-30 -28t-22.5 -49.5t-10 -72.5v-17q0 -59 9 -99.5t23 -65.5q14 -26 30 -36t32 -10t32.5 9.5t30.5 28.5t23.5 46.5t11.5 62.5v1z" />
    <glyph glyph-name="colon" unicode=":" horiz-adv-x="89" 
d="M19 40q10 0 15 -6.5t5 -14t-5 -13.5t-15 -6t-15 6t-5 13.5t5 14t15 6.5zM19 91q-10 0 -15 6t-5 13.5t5 14t15 6.5t15 -6.5t5 -14t-5 -13.5t-15 -6z" />
    <glyph glyph-name="semicolon" unicode=";" horiz-adv-x="102" 
d="M28 41q17 -1 19 -19.5t-4 -40t-16.5 -39.5t-17.5 -18q-8 0 -9 18.5t3 40.5t10.5 40t14.5 18zM28 92q-10 0 -15 6t-5 13.5t5 14t15 6.5t14.5 -6.5t4.5 -14t-4.5 -13.5t-14.5 -6z" />
    <glyph glyph-name="less" unicode="&#x3c;" horiz-adv-x="302" 
d="M253 -43q3 -5 2.5 -10.5t-5.5 -8.5q-6 -2 -8 -2q-8 0 -11 6q-8 11 -25 35.5t-39 56t-47 67t-47.5 68.5t-41 59t-27.5 40q-5 8 0 15q7 11 22 34t35 53.5t43 65.5t45.5 69.5t43 65.5t35.5 54q7 11 18 4q5 -3 6 -8.5t-2 -10.5l-52.5 -80t-64 -97.5t-60.5 -92.5t-42 -64
q11 -16 30 -43t41.5 -59t46 -66t44.5 -64t37 -53.5t23 -33.5z" />
    <glyph glyph-name="equal" unicode="=" horiz-adv-x="235" 
d="M13 108q-13 0 -13 13q0 14 13 14h156q13 0 13 -14q0 -13 -13 -13h-156zM169 27q13 0 13 -14q0 -13 -13 -13h-156q-13 0 -13 13q0 14 13 14h156z" />
    <glyph glyph-name="greater" unicode="&#x3e;" horiz-adv-x="304" 
d="M5 -43q7 10 23 33.5t37 53.5t44.5 64t46 66t41 59t30.5 43q-14 21 -42 64t-60.5 92.5t-64 97.5l-52.5 80q-3 5 -2 10.5t6 8.5q11 7 18 -4q15 -23 35.5 -54t43 -65.5t45.5 -69.5t43 -65.5t35 -53.5t22 -34q5 -7 0 -15q-10 -14 -28 -40t-40.5 -59t-47.5 -68.5t-47 -67
t-39 -56t-25 -35.5q-3 -6 -11 -6q-2 0 -8 2q-5 3 -5.5 8.5t2.5 10.5z" />
    <glyph glyph-name="question" unicode="?" horiz-adv-x="345" 
d="M173 696q24 0 46.5 -12t39 -35t26.5 -56t10 -74q0 -69 -7.5 -115.5t-25.5 -77.5q-16 -29 -42 -43.5t-60 -17.5v-39v-133q0 -13 -14 -13q-13 0 -13 13v133v52q0 13 13 13q35 2 57 12.5t36 35.5t21.5 69t7.5 111q0 38 -8.5 66.5t-22.5 47t-31 27.5t-33 9q-17 0 -34 -9.5
t-31 -30t-23 -53.5t-9 -79q0 -14 -14 -14q-13 0 -13 14q0 49 10 86t27 62t39.5 38t47.5 13zM146 40q10 0 14.5 -6.5t4.5 -14t-4.5 -13.5t-14.5 -6t-15 6t-5 13.5t5 14t15 6.5z" />
    <glyph glyph-name="at" unicode="@" horiz-adv-x="581" 
d="M363 339q5 0 9.5 -4t4.5 -9v-313q0 -5 -4.5 -9t-9.5 -4q-13 0 -13 13v26q-17 -18 -40.5 -28.5t-49.5 -10.5h-1q-24 0 -47.5 10t-41.5 33q-18 22 -29 55.5t-11 80.5v7q1 38 12.5 67t30 48.5t41.5 29t47 9.5q53 0 89 -44v30q0 13 13 13zM350 219q-3 48 -29.5 71t-59.5 23
q-18 0 -36.5 -7.5t-33 -23t-24 -39.5t-10.5 -57v-7q0 -44 9.5 -73t24 -46.5t33 -25t36.5 -7.5q17 0 33 6t28.5 16.5t20 24.5t7.5 31l1 2v112zM448 392q38 -38 60 -93.5t22 -129.5v-7q-1 -66 -24.5 -116.5t-61 -85t-85.5 -52t-97 -17.5h-1q-49 0 -95.5 17t-83.5 51.5
t-59.5 86t-22.5 120.5v4q0 73 22.5 128t60.5 93t85.5 56.5t97.5 18.5t97 -18.5t85 -55.5zM503 169q0 69 -20.5 119.5t-53.5 84t-75.5 50t-87.5 16.5t-87.5 -16.5t-76.5 -50t-54.5 -84t-20.5 -118.5v-2v-1q1 -64 21 -110.5t52.5 -77.5t74.5 -46t86 -15q45 0 88 15.5t77 46.5
t55 76.5t22 106.5v6z" />
    <glyph glyph-name="A" unicode="A" horiz-adv-x="291" 
d="M125 620q6 -32 16.5 -88.5t23 -124.5t25.5 -140.5t24.5 -136.5t20 -112t12.5 -67q2 -14 -11 -16h-3q-11 0 -13 11q-3 18 -10.5 60.5t-17.5 100.5h-142q-8 -55 -14 -97l-9 -63q-2 -14 -15 -12q-14 2 -12 15q3 24 10.5 74t17 113.5t20 134.5t20.5 137.5t18 122t13 87.5
q2 12 13 12t13 -11zM187 134q-9 49 -18.5 102.5l-19 107t-19 103t-16.5 89.5q-6 -40 -13.5 -89.5t-15.5 -103l-16 -107t-15 -102.5h133z" />
    <glyph glyph-name="B" unicode="B" horiz-adv-x="285" 
d="M246 23q0 -34 -23.5 -52t-53.5 -26q-15 -4 -28.5 -6t-31 -2.5t-40 -1t-55.5 -1.5q-13 0 -13 13v38.5t-0.5 78t-0.5 104v117v116.5v103v76.5v36.5q0 13 13 13h2q31 0 70.5 -14t75 -44t60.5 -76.5t25 -111.5q0 -52 -14.5 -93t-36 -72.5t-48 -53.5t-51.5 -35
q18 -2 35.5 -5.5t33.5 -8.5q33 -10 57.5 -32t23.5 -60v-1zM27 134q7 0 19 4t27 11t31.5 17.5t31.5 24.5q33 31 58 78t25 115q0 55 -20 95t-49.5 67t-62.5 40.5t-60 16.5v-469zM162 -29q28 8 42.5 19.5t14.5 31.5v2q0 26 -16.5 41t-45.5 26q-29 9 -63.5 12t-66.5 4v-89t1 -57
h15q28 0 60.5 1.5t58.5 8.5z" />
    <glyph glyph-name="C" unicode="C" horiz-adv-x="296" 
d="M232 133q14 0 14 -14q0 -36 -9.5 -69t-26 -58.5t-38.5 -41t-47 -16.5q-27 0 -50 20t-39 62q-17 41 -26.5 104.5t-9.5 157.5q0 92 11 158t29 109t42.5 63.5t52.5 22.5q24 -1 44 -15t35 -38.5t23.5 -57.5t8.5 -72q0 -13 -14 -13q-13 0 -13 13q0 36 -7.5 65.5t-20.5 49.5
q-12 21 -27 31t-29 10q-16 0 -34.5 -15.5t-35.5 -54.5q-17 -38 -27.5 -101t-10.5 -155t9.5 -153.5t24.5 -98.5q15 -38 32 -51.5t32 -13.5t32 11.5t31 33.5q14 23 22.5 52t8.5 61q0 14 13 14z" />
    <glyph glyph-name="D" unicode="D" horiz-adv-x="287" 
d="M162 567q35 -37 59.5 -98t24.5 -155q0 -65 -7 -116t-19.5 -90t-29 -67.5t-34.5 -47.5q-18 -20 -37 -31.5t-36.5 -17.5t-32 -8t-24.5 -2q-7 0 -10.5 0.5t-4.5 0.5q-11 2 -11 13v669q0 13 12 13h4q30 0 70 -13.5t76 -49.5zM27 -39q10 1 28.5 4t39.5 14t43 33.5t40 61.5
t29 97.5t12 142.5q0 85 -20.5 139.5t-49.5 87t-62 46t-60 16.5v-642z" />
    <glyph glyph-name="E" unicode="E" horiz-adv-x="289" 
d="M232 -39q14 0 14 -13q0 -14 -13 -14h-220q-6 0 -9 4q-4 3 -4 9v670q0 6 4 9q3 4 9 4h219q14 0 14 -13q0 -14 -14 -14h-205v-470h139q13 0 13 -14q0 -13 -13 -13h-139v-145h205v0z" />
    <glyph glyph-name="F" unicode="F" horiz-adv-x="225" 
d="M232 630q14 0 14 -13q0 -14 -14 -14h-205v-470h138q14 0 14 -14q0 -13 -14 -13h-138v-159q0 -13 -14 -13q-13 0 -13 13v670q0 6 4 9q3 4 9 4h219v0z" />
    <glyph glyph-name="G" unicode="G" horiz-adv-x="285" 
d="M232 133q6 0 10 -4t4 -9q0 -36 -9.5 -69t-26 -58.5t-38.5 -41.5t-47 -17q-27 0 -50 20t-39 61q-17 42 -26.5 105.5t-9.5 156.5t11 159t29 109t42.5 63.5t52.5 21.5q24 -1 44 -15t35 -38t23.5 -57t8.5 -72q0 -5 -4 -9.5t-10 -4.5q-5 0 -9 4.5t-4 9.5q0 36 -7.5 65.5
t-20.5 49.5q-12 20 -27 30t-29 10q-16 0 -34.5 -15t-35.5 -54t-27.5 -102t-10.5 -155q0 -91 9.5 -152.5t24.5 -99.5q15 -37 32 -50.5t32 -13.5t31.5 11.5t30.5 34.5q13 20 21 45t10 54h-105q-14 0 -14 13q0 14 14 14h119v0z" />
    <glyph glyph-name="H" unicode="H" horiz-adv-x="296" 
d="M246 -53q0 -13 -14 -13q-13 0 -13 13v159h-192v-159q0 -13 -14 -13q-13 0 -13 13v670q0 14 13 14q14 0 14 -14v-484h192v484q0 14 13 14q14 0 14 -14v-498v-172z" />
    <glyph glyph-name="I" unicode="I" horiz-adv-x="287" 
d="M232 -39q14 0 14 -14q0 -13 -14 -13h-109h-110q-13 0 -13 13q0 14 13 14h96v642h-96q-13 0 -13 14q0 13 13 13h109l1 1l1 -1h108q14 0 14 -13q0 -14 -14 -14h-96v-642h96v0z" />
    <glyph glyph-name="J" unicode="J" horiz-adv-x="296" 
d="M246 424v-306q-1 -87 -33.5 -135.5t-80.5 -49.5q-27 1 -51 17t-42 47t-28.5 77t-10.5 107v1q0 6 4 10t10 3q13 0 13 -14q0 -59 10 -101.5t26 -68.5q16 -27 34 -39t35 -12q15 0 30 9.5t27.5 29t21 49.5t8.5 71v305v179h-152q-13 0 -13 13q0 14 13 14h75q29 0 56 -0.5
t35 -0.5q13 0 13 -13v-192z" />
    <glyph glyph-name="K" unicode="K" horiz-adv-x="283" 
d="M109 131q70 -9 102 -42q23 -26 28.5 -61t6.5 -80q0 -14 -14 -14q-13 0 -13 14q0 44 -5.5 74.5t-22.5 47.5q-17 18 -53 28.5t-105 10.5q-2 0 -3 -0.5t-3 -0.5v-159q0 -14 -13 -14q-14 0 -14 13v178v493q0 13 14 13q13 0 13 -13v-483q67 3 105.5 49.5t58.5 119.5
q10 36 15.5 76.5t8.5 81t3.5 80.5t0.5 75q0 14 14 14q13 0 13 -14q0 -35 -0.5 -75t-3.5 -82t-9 -83.5t-16 -79.5q-14 -54 -40 -98t-68 -69z" />
    <glyph glyph-name="L" unicode="L" horiz-adv-x="285" 
d="M232 -39q14 0 14 -13q0 -14 -13 -14h-220q-6 0 -9 4q-4 3 -4 9v671q0 13 13 13q14 0 14 -13v-657h205v0z" />
    <glyph glyph-name="M" unicode="M" horiz-adv-x="296" 
d="M246 -53q0 -13 -14 -13q-13 0 -13 13v543q-8 -35 -16.5 -75l-17 -80t-16.5 -77.5t-14.5 -67t-10.5 -49.5l-5 -25q-3 -10 -14 -10q-10 0 -13 10q-1 5 -5.5 25t-11 50.5t-15.5 68.5t-18 79t-18 81.5t-17 75.5v-549q0 -13 -14 -13q-13 0 -13 13v670q0 11 12 13q5 1 9 -2
t6 -8q1 -4 6.5 -28.5t14 -62.5t19 -84.5t21 -94t20.5 -91.5t17 -77q7 32 16 74.5t19 88.5l20 92t18.5 84t14 64.5t7.5 34.5q1 5 5 8t9 2q12 -2 12 -13v-670z" />
    <glyph glyph-name="N" unicode="N" horiz-adv-x="296" 
d="M246 -54q0 -11 -12 -13h-2q-10 0 -12 9q-3 7 -14.5 41.5t-28 85.5t-37 112.5t-41 124.5t-39.5 121t-33 102v-583q0 -13 -14 -13q-13 0 -13 13v670q0 11 12 13q5 1 9 -2t6 -8q0 -3 10.5 -36t27 -83.5t37.5 -114t42 -127.5t40.5 -124t34.5 -104v586q0 13 13 13q14 0 14 -13
v-670z" />
    <glyph glyph-name="O" unicode="O" horiz-adv-x="288" 
d="M211 538q16 -45 25.5 -109t9.5 -150q0 -35 -2.5 -70t-8 -68t-12.5 -61.5t-16 -50.5q-17 -44 -40.5 -69.5t-52.5 -26.5q-27 1 -47.5 23.5t-34.5 64.5q-15 42 -23.5 105t-8.5 151q0 87 9.5 151t25.5 109q16 44 37.5 68.5t50.5 25.5q29 -1 50 -25.5t38 -67.5zM182 39
q16 41 26.5 100.5t10.5 135.5v4q0 85 -9.5 146.5t-24.5 102.5q-14 42 -31.5 59.5t-30.5 16.5q-13 1 -30.5 -16.5t-32.5 -59.5q-14 -41 -23.5 -103.5t-9.5 -147.5q0 -86 8 -147.5t22 -99.5q14 -40 29.5 -55.5t27.5 -14.5q14 -1 33 18t35 61z" />
    <glyph glyph-name="P" unicode="P" horiz-adv-x="279" 
d="M15 629q31 0 70.5 -15.5t75 -47.5t60 -80t24.5 -113v-2q0 -72 -20 -123t-51.5 -83t-69.5 -46.5t-73 -14.5h-4v-157q0 -14 -13 -14q-14 0 -14 13v670q0 13 13 13h2zM31 131q30 0 63 12t60.5 40t45.5 74t18 114v2q0 59 -21.5 101.5t-53.5 71.5q-29 26 -60 39.5t-56 16.5
v-471h4z" />
    <glyph glyph-name="Q" unicode="Q" horiz-adv-x="285" 
d="M211 537q16 -44 25.5 -108t9.5 -150v-4q-1 -78 -11.5 -140t-27.5 -107q-2 -5 -4 -8.5t-4 -8.5q16 -22 27 -37.5t16 -21.5q7 -11 -3 -18q-3 -3 -8 -3q-6 0 -11 5q-4 5 -13 18t-22 31q-14 -24 -32 -37.5t-39 -14.5q-27 1 -47.5 23.5t-34.5 64.5q-15 42 -23.5 105t-8.5 151
q0 87 9.5 151t25.5 109q16 44 37.5 68.5t50.5 25.5q29 -1 50 -25.5t38 -68.5zM114 -40q11 -1 25.5 11t28.5 38q-17 22 -35.5 48.5t-37.5 52.5t-36 50t-30 42q3 -57 10 -100t18 -72q14 -40 29.5 -55.5t27.5 -14.5zM219 279q0 85 -9.5 146.5t-24.5 102.5q-14 42 -31.5 59.5
t-30.5 16.5q-13 1 -30.5 -16.5t-32.5 -59.5q-14 -42 -23.5 -104t-9.5 -147v-26q8 -12 25.5 -36t39 -54t45 -62.5t44.5 -61.5l1 1q16 42 26.5 101t10.5 136v4z" />
    <glyph glyph-name="R" unicode="R" horiz-adv-x="279" 
d="M217 83q20 -26 24.5 -60t4.5 -76q0 -13 -14 -13q-13 0 -13 13q0 42 -5 71.5t-19 48.5t-42.5 29.5t-83.5 11.5q-9 0 -18 -0.5t-20 -1.5h-4v-159q0 -13 -14 -13q-13 0 -13 13v670q0 13 13 13h2q31 0 70.5 -14t75 -44t60.5 -77t25 -112q0 -50 -13.5 -89.5t-34 -70.5
t-45.5 -53.5t-50 -36.5q42 -3 69.5 -15.5t44.5 -34.5zM31 133q16 2 46 16.5t59 41.5q33 30 58 77t25 115q0 55 -20 95.5t-49.5 67t-62.5 40.5t-60 17v-470h4z" />
    <glyph glyph-name="S" unicode="S" horiz-adv-x="287" 
d="M232 132q4 0 10 -4q4 -6 4 -10q0 -47 -10.5 -81.5t-28.5 -57.5t-41 -34.5t-47 -11.5q-23 0 -44.5 10t-38 28.5t-26.5 44.5t-10 58q0 13 13 13q14 0 14 -13q0 -28 8 -49.5t21 -35.5t29.5 -21.5t33.5 -7.5t34 7.5t31 25t23.5 45t11.5 67.5h-206q-6 0 -9 4q-4 3 -4 9
q0 138 9 233.5t24 155.5q16 60 36 90.5t50 32.5q31 -2 52 -31t38 -74q17 -46 27 -107t10 -130q0 -14 -14 -14q-13 0 -13 14q0 68 -9.5 126.5t-25.5 101.5q-15 44 -34 66.5t-31 20.5q-10 1 -28 -21.5t-32 -80.5q-14 -57 -22.5 -147.5t-9.5 -221.5h205v0z" />
    <glyph glyph-name="T" unicode="T" horiz-adv-x="186" 
d="M232 630q14 0 14 -13q0 -14 -14 -14h-96v-656q0 -13 -13 -13q-14 0 -14 13v656h-96q-13 0 -13 14q0 13 13 13h109h1h1h108v0z" />
    <glyph glyph-name="U" unicode="U" horiz-adv-x="279" 
d="M232 630q14 0 14 -13q0 -252 -20.5 -409.5t-50.5 -223.5q-11 -22 -23 -35.5t-30 -14.5q-17 1 -29 14.5t-23 34.5q-19 43 -36 128q-15 84 -24.5 208t-9.5 291v7q0 13 14 13q13 0 13 -13v-7q0 -249 20 -402.5t48 -212.5q8 -20 16.5 -27.5t10.5 -6.5q3 -1 11 6.5t17 27.5
q20 40 35 122q15 84 24.5 208t9.5 292q0 13 13 13z" />
    <glyph glyph-name="V" unicode="V" horiz-adv-x="250" 
d="M235 630q14 -2 12 -15q-4 -24 -11 -74t-16.5 -113.5t-20 -135t-20.5 -138t-18 -122t-13 -87.5q-2 -11 -13 -11t-14 11q-6 32 -16.5 88.5t-22.5 124.5t-25 140.5t-24.5 136.5t-20.5 112t-12 67q-2 12 11 16q12 2 16 -11q3 -16 9.5 -53.5t15.5 -88t19.5 -110.5t21.5 -120
t21.5 -117t18.5 -102q6 45 14.5 100.5t17 114t17.5 117.5t16.5 109.5t13 89.5t8.5 59q2 14 15 12z" />
    <glyph glyph-name="W" unicode="W" horiz-adv-x="316" 
d="M297 630q14 -2 12 -15q-3 -22 -9.5 -71t-15.5 -112.5t-19.5 -135t-20 -139t-17.5 -123.5t-12 -88q-2 -12 -14 -12q-11 0 -13 12q-8 65 -16.5 139.5t-16.5 138.5q-8 -64 -17 -138.5t-17 -139.5q-2 -12 -13 -12q-12 0 -14 12q-4 32 -12 88t-17.5 123.5t-20 139t-19.5 135
t-15.5 112.5t-9.5 71q-2 13 12 15q13 2 15 -12q2 -18 7 -53.5t11.5 -83t14.5 -103t16 -112.5t15.5 -112t14.5 -101q5 39 10 78.5t9.5 75.5t8.5 67t7 54q3 14 13 15.5t14 -15.5q3 -23 7 -54t8.5 -67t9.5 -75.5t10 -78.5q6 46 14 101t16 112t16 112.5t14.5 103t11.5 83t7 53.5
q2 14 15 12z" />
    <glyph glyph-name="X" unicode="X" horiz-adv-x="287" 
d="M137 284q20 -61 39 -119t34 -104.5t24.5 -76t10.5 -32.5q4 -12 -9 -16q-1 -1 -4 -1q-10 0 -13 10q-1 3 -9 28.5t-21.5 66t-30.5 92.5t-35 108q-18 -56 -35 -108t-30.5 -92.5l-22 -66l-9.5 -28.5q-2 -10 -13 -10q-2 0 -3 1q-14 4 -9 16q1 3 10.5 32.5t24.5 76t34 104.5
t39 119q-20 59 -38.5 116t-33.5 103t-25 76t-11 35q-2 5 0.5 10t7.5 7q13 4 17 -9q1 -5 10 -31t22 -66.5t30 -91.5t35 -106q18 55 34.5 106t30 91.5t22 66.5t10.5 31q4 13 16 9q6 -2 8.5 -7t0.5 -10t-11.5 -35t-24.5 -76t-34 -103t-38 -116z" />
    <glyph glyph-name="Y" unicode="Y" horiz-adv-x="268" 
d="M232 630q14 0 14 -14q-2 -127 -11.5 -220.5t-25.5 -157.5q-14 -55 -30.5 -88t-41.5 -42v-33.5v-49t-0.5 -47.5t-0.5 -31q0 -13 -13 -13h-1q-13 0 -13 14q0 8 0.5 30t0.5 47.5v48.5v33q-26 8 -43 42t-32 91q-15 64 -24.5 157.5t-10.5 218.5q0 14 13 14q14 0 14 -14
q1 -124 10.5 -216t24.5 -154q14 -63 33 -90t28 -25q8 -2 27 24.5t33 89.5q15 61 24.5 153.5t11.5 218.5q0 13 13 13z" />
    <glyph glyph-name="Z" unicode="Z" horiz-adv-x="291" 
d="M232 -39q14 0 14 -14q0 -13 -14 -13h-219q-7 0 -10 6q-5 5 -2 12q1 4 9.5 29.5t21.5 65.5t30 91.5t35 106.5t36 110.5t34 103.5t28 86t19 58h-201q-13 0 -13 14q0 13 13 13h219q8 0 11 -5q4 -5 2 -12q-2 -5 -10.5 -31.5t-22 -67.5t-30 -92.5t-34.5 -106t-36 -109.5
t-33.5 -103t-28 -85.5t-18.5 -56.5h200v0z" />
    <glyph glyph-name="bracketleft" unicode="[" horiz-adv-x="167" 
d="M101 -39q14 0 14 -14q0 -13 -14 -13h-87q-6 0 -10 4t-4 9v670q0 4 4 10q6 4 10 4q13 0 28.5 -0.5t30.5 -0.5q8 0 15 0.5t13 0.5q5 0 9.5 -4t4.5 -9q0 -14 -13 -14q-7 0 -14 -0.5t-15 -0.5q-11 0 -23 0.5t-23 0.5v-643h74v0z" />
    <glyph glyph-name="backslash" unicode="\" horiz-adv-x="269" 
d="M17 665q13 4 16 -10q1 -3 8.5 -32.5t20 -76.5t28 -106t32 -120t32 -120t27.5 -105.5t19.5 -76t8.5 -32.5q2 -5 -1 -10t-8 -6q-1 -1 -4 -1q-10 0 -13 10q-1 3 -8.5 32.5t-19.5 76t-27.5 105.5t-32 120.5t-32 120.5t-28 105.5t-20 76.5t-8.5 33q-4 13 10 16z" />
    <glyph glyph-name="bracketright" unicode="]" horiz-adv-x="165" 
d="M13 -39h74v643q-11 0 -23 -0.5t-23 -0.5q-8 0 -15 0.5t-14 0.5q-13 0 -13 14q0 5 4.5 9t9.5 4q6 0 13 -0.5t15 -0.5q15 0 30.5 0.5t28.5 0.5q4 0 10 -4q4 -6 4 -10v-670q0 -5 -4 -9t-10 -4h-87q-14 0 -14 13q0 14 14 14z" />
    <glyph glyph-name="grave" unicode="`" horiz-adv-x="262" 
d="M160 387q13 2 15 -11q2 -14 -11 -16q-4 -1 -14 -1q-15 0 -31.5 5t-28.5 19q-3 5 -2.5 10.5t5.5 8.5q5 4 10 3t9 -5q4 -6 15.5 -10t22.5 -4q7 0 10 1z" />
    <glyph glyph-name="a" unicode="a" 
d="M247 13q0 -13 -13 -13q-14 0 -14 13v26q-17 -18 -40.5 -28.5t-49.5 -10.5q-24 0 -47.5 10t-41.5 33q-19 22 -29.5 55.5t-10.5 81.5v7q0 37 11.5 66t30 48.5t41.5 29t47 9.5q26 0 49.5 -11.5t39.5 -33.5v31q0 14 14 14q13 0 13 -14v-313zM130 27q33 0 60 20.5t30 50.5v121
q-2 48 -29 71t-60 23q-18 0 -36 -7t-32.5 -22.5t-24 -39.5t-10.5 -58v-6q0 -44 9.5 -73t24 -47t32.5 -25.5t36 -7.5z" />
    <glyph glyph-name="b" unicode="b" horiz-adv-x="296" 
d="M246 180q0 -48 -10.5 -81.5t-29.5 -55.5q-18 -23 -41.5 -33t-47.5 -10q-26 0 -49.5 10.5t-40.5 28.5v-26q0 -13 -14 -13q-13 0 -13 13v562q0 14 13 14q14 0 14 -14v-282q17 23 41 35t50 12q24 0 46.5 -9.5t40.5 -29t29.5 -48.5t11.5 -67v-6zM117 27q18 0 36.5 7.5
t32.5 25.5t23.5 47t9.5 73v6q-1 34 -10 58t-23.5 39.5t-32 22.5t-35.5 7q-17 0 -32.5 -6t-28.5 -18.5t-21 -31.5t-9 -44v-118q4 -29 30.5 -48.5t59.5 -19.5z" />
    <glyph glyph-name="c" unicode="c" horiz-adv-x="299" 
d="M128 313q-18 0 -36 -7.5t-32 -23t-23 -39.5t-10 -57v-7q0 -44 9.5 -73t24 -46.5t32.5 -25t36 -7.5t34 6t28.5 16.5t20 24.5t7.5 31l1 4q4 13 16 9q10 -3 10 -13q0 -23 -10 -42.5t-26.5 -33.5t-37.5 -21.5t-43 -7.5q-24 0 -47.5 10t-41.5 32q-19 23 -29.5 56.5t-10.5 80.5
v7q0 38 11.5 66.5t29.5 48t40.5 29.5t46.5 10q22 0 43.5 -9t38.5 -26t27 -42t10 -57q0 -13 -14 -13q-13 0 -13 13q-1 55 -29 80.5t-63 26.5z" />
    <glyph glyph-name="d" unicode="d" horiz-adv-x="296" 
d="M233 589q13 0 13 -14v-562q0 -13 -13 -13q-14 0 -14 13v29q-17 -20 -40.5 -31t-49.5 -11q-24 0 -47.5 10t-41.5 33q-19 22 -29.5 55.5t-10.5 81.5v7q0 37 11.5 66t29.5 48.5t40.5 29t46.5 9.5q26 0 50 -12.5t41 -35.5v283q0 14 14 14zM129 27q33 0 60 21.5t30 51.5v120
q-5 46 -32.5 69.5t-58.5 23.5q-18 0 -36 -7t-32 -22.5t-23 -39.5t-10 -58v-6q0 -44 9.5 -73t24 -47t32.5 -25.5t36 -7.5z" />
    <glyph glyph-name="e" unicode="e" 
d="M232 119q14 0 14 -14q0 -23 -10 -42.5t-26.5 -33.5t-37.5 -21.5t-43 -7.5q-24 0 -47.5 10t-41.5 32q-19 23 -29.5 56.5t-10.5 80.5v7q0 38 11.5 66.5t29.5 48t41 29.5t47 10q22 0 43.5 -9t38 -25.5t26.5 -41.5t10 -56q0 -11 -8 -14q-19 -9 -47 -22.5t-57.5 -28t-55 -27
t-39.5 -19.5q14 -39 38.5 -54.5t50.5 -15.5q18 0 34 6t28.5 16.5t20 24.5t7.5 31q0 14 13 14zM27 179q0 -16 1.5 -29.5t3.5 -25.5q15 7 39 18.5t50.5 24.5l53 26t45.5 22q-1 25 -9 43t-20.5 30t-28.5 18.5t-33 6.5q-18 0 -36 -7.5t-32.5 -23t-23.5 -39.5t-10 -57v-7z" />
    <glyph glyph-name="f" unicode="f" horiz-adv-x="262" 
d="M122 604q24 0 46.5 -12t40 -35.5t27.5 -57.5t10 -78q0 -13 -13 -13q-14 0 -14 13q0 41 -9 71t-23 49t-31 27.5t-34 8.5t-33.5 -8.5t-30.5 -27t-22.5 -47t-8.5 -67.5v-2v-109v-114h173q14 0 14 -13q0 -14 -14 -14h-173v-162q0 -13 -14 -13q-13 0 -13 13v303v109v2
q0 42 10 75t26.5 55.5t39 34.5t46.5 12z" />
    <glyph glyph-name="g" unicode="g" horiz-adv-x="296" 
d="M233 339q13 0 13 -13v-349q0 -26 -9.5 -45.5t-26.5 -32.5q-17 -12 -37.5 -18t-41.5 -6q-23 0 -46 6.5t-42 20t-31 33.5t-12 46q0 13 14 13q13 0 13 -13q0 -35 32 -57q14 -11 33 -16.5t39 -5.5q36 1 62 18.5t26 56.5v61q-17 -18 -40.5 -28t-49.5 -10q-24 0 -47.5 10
t-41.5 32q-19 23 -29.5 56.5t-10.5 80.5v7q0 38 11.5 66.5t29.5 48t40.5 29.5t46.5 10q26 0 50 -12.5t41 -35.5v34q0 13 14 13zM129 27q32 0 58.5 17.5t31.5 45.5v122q-1 25 -9 44t-20.5 31.5t-28.5 19t-33 6.5q-18 0 -36 -7.5t-32 -23t-23 -39.5t-10 -57v-7q0 -44 9.5 -73
t24 -46.5t32.5 -25t36 -7.5z" />
    <glyph glyph-name="h" unicode="h" 
d="M246 184q1 -21 1 -41v-38q0 -36 -0.5 -60.5t-0.5 -30.5q0 -14 -13 -14q-14 0 -14 14q0 7 0.5 31.5t0.5 59.5v37.5t-1 41.5q-1 34 -9.5 58.5t-21.5 40t-29.5 22.5t-33.5 7q-34 0 -64 -28t-34 -87v-184q0 -13 -14 -13q-13 0 -13 13v562q0 14 13 14q14 0 14 -14v-293
q17 27 43 42t55 15q23 0 45 -10t39 -29.5t27 -48.5t10 -67z" />
    <glyph glyph-name="i" unicode="i" horiz-adv-x="77" 
d="M13 340q6 0 10 -4.5t4 -9.5v-313q0 -13 -14 -13q-13 0 -13 13v313q0 5 4 9.5t9 4.5zM13 359q-13 0 -13 14v16q0 13 13 13q14 0 14 -13v-16q0 -14 -14 -14z" />
    <glyph glyph-name="j" unicode="j" horiz-adv-x="77" 
d="M14 337q13 0 13 -13v-339q0 -26 -10 -45.5t-27 -32.5q-31 -23 -72 -23q-7 0 -10 4t-3 9t4 9.5t11 4.5q34 2 57 19.5t23 54.5v339q0 13 14 13zM27 387q0 -2 0.5 -8t-0.5 -8q0 -13 -13 -13q-14 0 -14 13v16q0 14 14 14q13 0 13 -14z" />
    <glyph glyph-name="k" unicode="k" 
d="M239 26q11 -6 6 -19q-5 -7 -12 -7q-2 0 -6 2q-8 4 -32.5 16.5t-55 28t-61.5 31l-51 25.5v-90q0 -13 -14 -13q-13 0 -13 13v562q0 14 13 14q14 0 14 -14v-293q17 28 44.5 43.5t63.5 13.5q52 -3 84 -41t32 -114q0 -2 -2 -15.5t-15 -30.5q-12 -17 -40.5 -30.5t-73.5 -13.5
h-8t-9 1q21 -11 43 -22t40.5 -20.5t32.5 -16.5zM27 135q29 -8 52 -11t41 -3q30 0 49 6.5t30.5 14.5t16.5 17.5t7 15.5q0 2 0.5 3.5t0.5 3.5v2q-1 34 -8.5 58t-20 39t-28.5 22t-32 9q-17 1 -35.5 -6t-34 -23t-26.5 -39.5t-12 -53.5v-55z" />
    <glyph glyph-name="l" unicode="l" horiz-adv-x="77" 
d="M0 12v562q0 14 13 14q14 0 14 -14v-562q0 -13 -14 -13q-13 0 -13 13z" />
    <glyph glyph-name="m" unicode="m" horiz-adv-x="409" 
d="M359 106v-90q0 -14 -13 -14q-14 0 -14 14v90v79q0 35 -6.5 59.5t-16 40.5t-21.5 23t-23 7q-12 0 -24.5 -7.5t-23 -23.5t-17.5 -40.5t-7 -57.5v-173q0 -13 -14 -13q-13 0 -13 13v173q-1 35 -7.5 59.5t-16.5 40t-22 22.5t-22 7q-11 0 -23.5 -7.5t-23 -22.5t-17.5 -38.5
t-7 -56.5v-175q0 -13 -14 -13q-13 0 -13 13v313q0 13 13 13q14 0 14 -13v-33q27 45 71 47q26 -1 48 -20.5t34 -55.5q13 35 35.5 55t49.5 21q39 -1 66.5 -41.5t27.5 -115.5v-79z" />
    <glyph glyph-name="n" unicode="n" horiz-adv-x="298" 
d="M247 106v-91q0 -14 -13 -14q-14 0 -14 14v91v78q-1 34 -9.5 58.5t-21.5 40t-30 23t-34 7.5t-34.5 -7.5t-31 -22.5t-22.5 -38t-10 -54v-178q0 -13 -14 -13q-13 0 -13 13v313q0 14 13 14q14 0 14 -14v-44q17 28 43 43t55 15q23 0 45 -10t39 -29.5t27.5 -48.5t10.5 -67v-79z
" />
    <glyph glyph-name="o" unicode="o" horiz-adv-x="298" 
d="M122 340q24 0 47 -12.5t40 -36t27.5 -57t10.5 -76.5q0 -38 -10.5 -67.5t-27.5 -49.5t-39 -30.5t-46 -10.5t-46 10.5t-39.5 30.5t-28 49.5t-10.5 67.5q0 44 10 78t26.5 57t39 35t46.5 12zM124 27q18 0 35 7.5t30.5 23.5t22 40.5t8.5 59.5q0 40 -9 69.5t-23 48.5t-31.5 28
t-34.5 9t-34 -9t-30.5 -27.5t-22 -48t-8.5 -70.5q0 -34 9 -59t22.5 -41t30.5 -23.5t35 -7.5z" />
    <glyph glyph-name="p" unicode="p" horiz-adv-x="296" 
d="M246 179q0 -48 -10.5 -81.5t-29.5 -55.5q-18 -22 -41.5 -32t-47.5 -10q-26 0 -49.5 10.5t-40.5 29.5v-143q0 -13 -14 -13q-13 0 -13 13v428q0 14 13 14q14 0 14 -14v-30q17 22 40 33.5t49 11.5q24 0 47 -10t41.5 -29.5t30 -48t11.5 -66.5v-7zM117 26q18 0 36 7.5
t32.5 25.5t24 47t9.5 73v6q-1 34 -10 58t-23.5 39.5t-33 23t-36.5 7.5q-33 -1 -59.5 -23.5t-29.5 -70.5v-123q3 -14 11 -27t20.5 -22.5t27.5 -15t31 -5.5z" />
    <glyph glyph-name="q" unicode="q" horiz-adv-x="296" 
d="M246 -103q0 -13 -13 -13q-14 0 -14 13v142q-17 -18 -40.5 -28.5t-49.5 -10.5q-24 0 -47.5 10t-41.5 32q-19 23 -29.5 56.5t-10.5 80.5v7q0 38 11.5 66.5t30 48t41.5 29.5t47 10q55 0 89 -45v31q0 13 14 13q13 0 13 -13v-429zM129 27q32 0 58.5 19t31.5 48v124
q-2 48 -29 71t-60 24q-18 0 -36.5 -7.5t-33 -23t-23.5 -39.5t-10 -57v-7q0 -44 9.5 -73t24 -46.5t32.5 -25t36 -7.5z" />
    <glyph glyph-name="r" unicode="r" horiz-adv-x="298" 
d="M125 340q23 0 45 -10t39 -29.5t27.5 -48.5t10.5 -67q0 -14 -13 -14h-1q-13 0 -13 13q-1 34 -9.5 58.5t-21.5 40t-30 23t-34 7.5t-34 -7.5t-30.5 -22.5t-23 -37t-10.5 -52v-181q0 -13 -14 -13q-13 0 -13 13v313q0 14 13 14q14 0 14 -14v-44q17 28 43 43t55 15z" />
    <glyph glyph-name="s" unicode="s" horiz-adv-x="296" 
d="M242 167q4 -4 4 -10q0 -40 -10.5 -69.5t-28.5 -49.5t-41 -29t-46 -9t-44.5 8t-38 23t-27 36.5t-10.5 48.5v3q0 6 4.5 9.5t9.5 3.5q13 -2 13 -15v-1q0 -21 8 -37.5t20.5 -28t29.5 -17.5t35 -6q17 0 34 6.5t30.5 20t23 36t11.5 54.5q-11 0 -27 -0.5t-35 -0.5h-39.5h-39.5
h-41t-24 1q-13 0 -13 13q0 45 11 79.5t29 57.5t41 34.5t48 11.5q23 0 44 -9.5t37.5 -28t26 -45t9.5 -59.5q0 -13 -14 -13q-13 0 -13 13q-1 59 -28.5 87t-61.5 28q-17 0 -34.5 -8t-31.5 -25t-24 -44t-12 -66h51h154q7 0 10 -3z" />
    <glyph glyph-name="t" unicode="t" horiz-adv-x="77" 
d="M118 488q5 0 9.5 -4t4.5 -9q0 -6 -4.5 -10t-9.5 -4h-91v-448q0 -13 -13 -13q-14 0 -14 13v448h-27q-5 0 -13.5 4t-8.5 10q0 5 8.5 9t13.5 4h27v87h1q0 14 13 14t13 -14v-87h91v0z" />
    <glyph glyph-name="u" unicode="u" 
d="M234 340q13 0 13 -14v-312q0 -14 -13 -14q-5 0 -9.5 4t-4.5 10v44q-17 -28 -43 -43t-55 -15h-1q-23 0 -44.5 10t-38.5 30t-27.5 48.5t-10.5 66.5v79v91q0 6 4.5 10t9.5 4q13 0 13 -14v-91v-79q1 -34 9.5 -58.5t22 -40t30 -22.5t33.5 -7t34.5 7t31.5 22t23 37.5t9 54.5
v178q0 6 4.5 10t9.5 4z" />
    <glyph glyph-name="v" unicode="v" horiz-adv-x="277" 
d="M228 338q5 -2 7.5 -7t0.5 -10q-4 -11 -13.5 -36.5t-21.5 -58.5t-25.5 -69t-25 -67t-19.5 -53.5t-10 -27.5q-4 -9 -13 -9q-10 0 -12 9q-2 5 -10 28.5t-19 55.5t-23.5 69t-23.5 70t-19 58t-10 33q-2 13 10 16q5 2 10 -1t6 -9q2 -9 13 -42l25 -75t29 -85.5l25 -72.5
q7 19 16.5 44.5t19.5 53.5t20.5 56t19.5 52.5t16 42.5t10 27q2 5 7 7.5t10 0.5z" />
    <glyph glyph-name="w" unicode="w" horiz-adv-x="374" 
d="M324 339q13 -4 9 -17q-3 -11 -10.5 -37t-16 -58.5t-18.5 -68t-18.5 -66.5t-14.5 -53.5t-7 -28.5q-3 -10 -12 -10h-1q-10 0 -13 8t-10 25.5t-15.5 38.5t-17.5 42.5t-16 39.5q-9 -19 -20 -41l-21.5 -43l-19 -38l-12.5 -25q-4 -7 -12 -7h-1q-10 2 -12 10q-2 7 -7 30.5
t-12.5 55t-15.5 68t-15.5 69t-13 57t-7.5 33.5q-1 5 2 10t8 6q13 3 17 -10q2 -11 9.5 -44t17 -75t19 -85t16.5 -72q8 16 17.5 35.5t19 38.5t17.5 36t14 29q5 11 13 10t13 -10q4 -9 10.5 -25.5t14 -35.5t15.5 -39t15 -37q8 29 19 70t22.5 82t20.5 74.5t13 47.5q2 6 7 9t10 1z
" />
    <glyph glyph-name="x" unicode="x" horiz-adv-x="288" 
d="M140 170q18 -26 35 -50.5t31.5 -44.5t24.5 -34.5t13 -19.5q7 -11 -3 -19q-6 -2 -8 -2q-7 0 -11 6q-3 5 -12.5 18.5t-23 32t-30 42t-33.5 47.5q-17 -24 -33.5 -47.5t-30 -42t-23 -32t-12.5 -18.5q-3 -6 -11 -6q-4 0 -7 3q-5 3 -6 8.5t2 10.5q4 5 14 19t24 34t31.5 44.5
t35.5 50.5q-18 25 -34.5 49t-31 44t-24.5 35l-14 21q-8 11 4 18q11 7 18 -3q4 -6 13.5 -20t22.5 -32.5t29 -41.5t33 -47q17 24 33.5 47t30 42t23 32.5t13.5 19.5q8 11 19 2q10 -7 3 -18q-5 -6 -15 -20.5t-24.5 -34.5t-31 -44t-34.5 -49z" />
    <glyph glyph-name="y" unicode="y" horiz-adv-x="296" 
d="M233 340q13 0 13 -14v-348q0 -26 -9.5 -45.5t-26.5 -32.5t-37.5 -18.5t-41.5 -5.5q-23 0 -46 6.5t-42 20t-31 33.5t-12 46q0 13 13 13q14 0 14 -13q0 -36 32 -58q14 -10 33 -15.5t39 -5.5q36 1 62 18.5t26 56.5v77q-17 -26 -42.5 -40.5t-53.5 -14.5h-1q-23 0 -45 10
t-39 30t-27 48.5t-10 66.5q0 22 -0.5 42t-0.5 37q0 36 0.5 60.5t0.5 30.5q0 14 13 14q14 0 14 -14q0 -7 -0.5 -31t-0.5 -60q0 -17 0.5 -37t0.5 -41q1 -35 9.5 -59t21.5 -39.5t30 -23t34 -7.5t33.5 7t30 22t22 37t10.5 52v181q0 14 14 14z" />
    <glyph glyph-name="z" unicode="z" horiz-adv-x="298" 
d="M235 339q12 -1 14.5 -10t0.5 -12q-5 -7 -19 -26.5t-33 -46t-40.5 -57.5t-42.5 -61t-39.5 -56t-30.5 -43h187q13 0 13 -14q0 -13 -13 -13h-213q-9 0 -12 7q-4 7 1 14q4 6 17.5 25t32 45.5t40.5 57.5t43.5 61.5t40 57t31.5 44.5h-199q-6 -1 -10 3t-4 10q0 13 13 13
q1 0 16 0.5t38 0.5h49.5h51h43h24.5z" />
    <glyph glyph-name="braceleft" unicode="{" horiz-adv-x="150" 
d="M88 -40q13 0 13 -14q0 -13 -13 -13h-1q-21 0 -37 10.5t-27 27.5t-16.5 39.5t-5.5 47.5q0 35 11 73.5t37 76.5q15 22 13 35q0 8 -6 14t-26 10q-2 -1 -5 -1h-1q-12 0 -14 12q0 1 1 2q0 1 -1 2q2 13 15 13q2 -1 4 -1q20 3 26.5 9.5t6.5 14.5q2 13 -13 35q-26 37 -37 75.5
t-11 73.5q0 25 5.5 47.5t16.5 40t27 28t37 10.5h2q5 0 9 -4.5t3 -9.5q0 -13 -14 -13q-25 0 -41 -26q-8 -13 -13 -31.5t-5 -41.5q0 -31 10 -65.5t33 -68.5q18 -27 18 -50q1 -23 -20 -38q21 -15 20 -37q0 -25 -18 -50q-23 -34 -33 -69t-10 -66q0 -22 5 -40.5t13 -31.5
q16 -26 41 -26h1v0z" />
    <glyph glyph-name="bar" unicode="|" horiz-adv-x="78" 
d="M27 -7q0 -5 -4 -9.5t-10 -4.5q-5 0 -9 4.5t-4 9.5v670q0 13 13 13q14 0 14 -13v-670z" />
    <glyph glyph-name="braceright" unicode="}" horiz-adv-x="152" 
d="M15 -37h1q25 0 41 26q8 13 13 31.5t5 40.5q0 31 -10 66t-33 69q-18 25 -18 50q-1 22 20 37q-21 15 -20 38q0 23 18 50q23 34 33 68.5t10 65.5q0 23 -5 41.5t-13 31.5q-16 26 -41 26q-14 0 -14 13q-1 5 3 9.5t9 4.5h2q21 0 37 -10.5t27 -28t16.5 -40t5.5 -47.5
q0 -35 -11 -73.5t-37 -75.5q-15 -22 -13 -35q0 -8 6.5 -14.5t26.5 -9.5q2 0 4 1q13 0 15 -13q-1 -1 -1 -2q1 -1 1 -2q-2 -12 -14 -12h-1q-3 0 -5 1q-20 -4 -26 -10t-6 -14q-2 -13 13 -35q26 -38 37 -76.5t11 -73.5q0 -25 -5.5 -47.5t-16.5 -39.5t-27 -27.5t-37 -10.5h-1
q-13 0 -13 13q0 14 13 14z" />
    <glyph glyph-name="exclamdown" unicode="&#xa1;" horiz-adv-x="176" 
d="M62 364.005q-13 0 -13 -12.999v-588.964q0 -13 13 -13q14 0 14 13v588.964q0 12.999 -14 12.999zM62 404.002q10 0 15 6.5t5 13.999q0 7.5 -5 13.499q-5 6 -15 6t-15 -6q-5 -5.99902 -5 -13.499q0 -7.49902 5 -13.999t15 -6.5z" />
    <glyph glyph-name="cent" unicode="&#xa2;" horiz-adv-x="300" 
d="M236 292q10 -3 10 -14q0 -23 -10 -42.5t-26.5 -33t-37.5 -21t-43 -7.5q-19 0 -38 6q-9 -38 -15 -61.5t-7 -25.5q-2 -10 -13 -10q-2 0 -3 1q-13 4 -10 16q1 2 7 27.5t17 64.5q-8 5 -14.5 10.5t-12.5 13.5q-19 23 -29.5 56.5t-10.5 80.5v7q0 38 11.5 66.5t29.5 48
t40.5 29.5t46.5 10q5 0 10 -0.5t10 -1.5q11 43 17.5 70.5t7.5 30.5q4 12 17 9q5 -1 8 -6t1 -10q-1 -2 -8 -30l-18 -72q32 -14 53 -45t21 -79q0 -13 -14 -13q-5 -1 -9 3t-4 10q-1 38 -16 62t-37 35q-8 -31 -17 -66t-18 -70.5t-18 -70t-16 -64.5q17 -5 31 -5q18 0 34 6
t28.5 16.5t20 24.5t7.5 30v1q0 2 1 4q4 13 16 9zM27 353q1 -54 14 -85t33 -48q7 30 15.5 64t17.5 68.5t17.5 68.5t16.5 64q-8 2 -13 2q-18 0 -36 -7.5t-32 -23t-23 -39.5t-10 -57v-7z" />
    <glyph glyph-name="currency" unicode="&#xa4;" horiz-adv-x="169" 
d="M119 247q4 -4 4 -9.5t-4 -9.5q-3 -4 -9 -4t-10 4l-14 14q-12 -7 -25 -7q-8 0 -13.5 2t-10.5 4q-5 -5 -9 -8.5t-5 -4.5q-3 -4 -9 -4t-10 4q-9 9 0 19l14 14q-10 25 1 48q-5 5 -9.5 9t-5.5 5q-8 10 0 20q4 4 9.5 4t9.5 -4l5.5 -5.5l9.5 -9.5q12 5 23 5q13 0 24 -6
q5 5 9.5 10t5.5 6q9 9 19 0q4 -4 4 -9.5t-4 -9.5l-16 -16q5 -11 5.5 -23t-4.5 -23zM61 300q-8 0 -11.5 -5t-3.5 -11t3.5 -11t11.5 -5q7 0 11 5t4 11t-4 11t-11 5z" />
    <glyph glyph-name="section" unicode="&#xa7;" horiz-adv-x="132" 
d="M77 341q-2 -18 -17 -27q6 -7 9.5 -15t1.5 -16q-2 -14 -13 -24.5t-28 -8.5q-9 1 -21 8q-11 7 -4 18q7 12 18 5q5 -4 10 -4q10 0 12 9q0 3 -2.5 7.5t-10.5 9.5q-9 5 -17 13q-3 2 -5 5q-11 15 -10 30q1 8 6 14.5t13 10.5q-14 16 -13 33q2 14 13.5 22t25.5 6q10 0 24 -9
q12 -7 4 -18q-3 -5 -8 -6t-10 2q-4 2 -7.5 3t-5.5 2q-6 0 -7.5 -1.5t-1.5 -3.5q-1 -2 2.5 -8t15.5 -13q14 -8 21 -20t5 -24zM39 335q10 0 12 9q0 1 -0.5 1.5t-0.5 1.5h-1q-4 3 -7.5 4t-5.5 2q-6 0 -7 -1.5t-2 -3.5q0 -5 5 -10q3 -3 7 -3z" />
    <glyph glyph-name="dieresis" unicode="&#xa8;" horiz-adv-x="267" 
d="M142 376q0 9 6 14t13.5 5t13.5 -5t6 -14t-6 -13.5t-13.5 -4.5t-13.5 4.5t-6 13.5zM88 376q0 9 6 14t13 5t13 -5t6 -14t-6 -13.5t-13 -4.5t-13 4.5t-6 13.5z" />
    <glyph glyph-name="copyright" unicode="&#xa9;" horiz-adv-x="833" 
d="M662 229q-11 5 -21 -3q0 11 10 16t18 -1q-4 1 -10 -0.5t-8 -4.5q7 2 11 -7zM551 277q-8 8 -8 18.5t7 18.5q-3 2 -4.5 9t3.5 8q17 2 34 0t23 -15q-2 0 -8 2l3 -3q6 -9 5 -20t-11 -19q9 0 16 7q-2 -7 -12 -11q-11 -5 -24.5 -5t-23.5 10zM560 316q-8 -6 -11 -15.5t5 -18.5
q10 -12 21.5 -10.5t18.5 9.5t7 19t-14 19q-14 1 -27 -3zM540 246l-5.5 -5.5t-8.5 -3.5q-8 -1 -10.5 3.5t-4.5 4.5q-4 0 -7.5 -3t-8.5 -1q-6 3 -4.5 10.5t2.5 7.5q1 -5 0.5 -8.5t3.5 -6.5q5 -1 7.5 2t9.5 3q3 -11 12 -8.5t13 10.5q2 -2 5.5 -3t6.5 2t0 11q8 -5 3 -13
q-3 -3 -7.5 -3.5t-6.5 1.5zM529 270q-8 11 -9 30.5t-2 37.5v6t1 4q1 -7 1 -14.5t1 -15.5q1 -14 2.5 -25.5t5.5 -22.5zM485 312q8 -8 6.5 -21t-9.5 -21q-8 -9 -22 -15t-25 -4q8 2 15 4t12 7q-15 -2 -26 7t-7 26q5 16 23 23q-8 0 -15.5 -1t-13.5 -1q4 8 19 12.5t27 4.5
q4 -1 9.5 -2.5t7.5 -3.5t1.5 -7.5t-2.5 -7.5zM457 266q10 0 17.5 5.5t10.5 13t1.5 15t-8.5 11.5q-4 2 -5 2q-2 1 -8 1q-9 0 -17 -4.5t-11 -11.5q-6 -15 1.5 -23t18.5 -9zM353 192q-3 7 0.5 12t9.5 6.5t12 -0.5t8 -9q-6 -2 -11.5 -4.5t-5.5 -14.5q-4 6 0 12.5t8 8.5
q-5 7 -13.5 2.5t-7.5 -13.5zM714 363q4 -5 4 -11.5t-2 -13t-5 -12t-6 -8.5q-5 -6 -12.5 -12t-15.5 -11t-18.5 -11.5t-22.5 -12.5q1 -2 1 -6q9 6 18.5 5t17.5 -8q9 -10 9 -22t-6 -21.5t-16 -14t-22 0.5q-3 -12 -11 -22t-19.5 -17.5t-25 -12.5t-25.5 -7q-20 -5 -41.5 -6
t-41.5 0q-28 2 -47 12.5t-30 27.5q-5 -8 -11.5 -12.5t-16.5 -6.5q-18 -3 -26.5 8t-9 25.5t7.5 26.5t24 11q-1 5 -1.5 10t-2.5 10q-16 5 -30.5 11t-27.5 14q-12 10 -11 23q1 8 7 12.5t13 4t12.5 -5.5t6.5 -15q-1 -5 -3.5 -2.5l-6.5 6.5t-9 6t-9 -3q-5 -5 -1 -11t12 -11
q18 -11 42 -18q-2 4 -2 6q8 2 8 8.5t-6 11.5q-5 4 -11.5 6t-8.5 7t1 9t6.5 7.5t6 8t-0.5 9.5t-8 8t-10.5 6t-10 7t-7.5 10q-2 9 2 15.5t10 14.5q7 10 3.5 17t-11.5 12.5t-17.5 10t-14.5 9.5q-16 17 -17 39t8 39q3 6 9.5 12t12.5 13t8 14t-4 13q-4 6 -12 5
q-15 -3 -27.5 -13.5t-26.5 -18.5q-21 -14 -44 -14.5t-43 4.5q-15 5 -32 16.5t-21 31.5q-5 21 1 45t27 41q10 8 21 14t21 11q11 6 23.5 13.5t15.5 27.5v7v4q4 -4 11.5 -15.5t3.5 -21.5q-2 -5 -10 -11t-15 -11q-10 -7 -22 -14.5t-22.5 -16t-16.5 -18.5t-4 -23q1 -9 6.5 -14
t12.5 -6.5t15 -1t14 1.5q20 4 34 15.5t25 25t21 28t22 25.5q11 9 23.5 18t26.5 12q15 4 33 3.5t35 -6.5t31.5 -18t23.5 -32q11 -21 1.5 -42t-26.5 -43q-6 -8 -11 -13.5t-2 -14.5q2 -8 9 -12t12 -5q26 -5 56 11q17 9 36.5 21t36.5 9q9 -2 20.5 -7t22 -13t18.5 -18.5t10 -21.5
q4 -23 -2 -43.5t-6 -39.5q0 -5 3.5 -10t7 -10.5t6.5 -11t3 -10.5q0 -6 -7 -11t-6 -11q1 -5 4 -9t5 -8q2 -7 -5.5 -15t-5.5 -12q5 -9 10.5 -14t0.5 -14q-6 -8 -8 -22q32 18 49 30.5t22 32.5q1 4 0 8t-3 6q-3 2 -6.5 0.5t-5.5 -5.5l-2.5 -7.5t-3.5 -4.5q-5 0 -3.5 8.5
t3.5 11.5q5 10 14 10t14 -7zM624 453q2 11 6.5 26t-0.5 27q-4 11 -13.5 16t-18.5 2t-19 -11.5t-14 -15.5q-20 -29 -36 -58t-18 -58q10 10 22 25t24.5 28.5t24.5 22.5t21 8q12 -2 21 -12zM307 705q-17 -12 -31 -25.5t-23 -29.5q12 10 25.5 20.5t28 17.5t28.5 8.5t28 -6.5
q9 -5 20.5 -16.5t10.5 -38.5q-1 -13 -8 -24.5t-16.5 -22t-20 -21t-17.5 -22.5q-2 -3 -5 -9.5t-3 -11.5q-1 -8 2 -18.5t8 -15.5q3 -4 9.5 -7t11.5 -4q12 -2 27 0t29 4q8 2 18.5 2.5t17.5 -1.5q14 -4 24.5 -14t17 -23.5t11 -29t6.5 -30.5q4 17 11.5 34t16 31.5t15 25t9.5 14.5
q6 10 15 19t19 13.5t19.5 3t17.5 -13.5q-1 8 -2.5 15t-6.5 12q-7 9 -21 17.5t-26 13.5q-21 7 -47 -8q-20 -12 -42.5 -22.5t-45.5 -8.5q-8 1 -18.5 7t-13.5 19q-2 8 5 16t12 14q11 14 21 31.5t8 32.5q-2 17 -12.5 29.5t-24.5 20.5t-29.5 12t-27.5 4q-13 0 -26 -3t-25 -11z
M343 350q0 20 15 39t35 28q7 3 12.5 5t14.5 1q21 -3 41 -8.5t40 -22.5q-3 23 -10.5 44t-27.5 36q-16 12 -33.5 9.5t-36.5 -4.5q-24 -3 -43 0q-14 4 -22 18t-7 28q1 13 9 25t19 23t21.5 22.5t15.5 22.5q8 19 3 35.5t-10 21.5q-11 11 -24 17.5t-27 2.5q-10 -2 -22.5 -9
t-25 -16t-23 -18.5t-16.5 -16.5q-14 -16 -33 -28t-38 -14q-6 -1 -15.5 -1t-14.5 3q-8 5 -12.5 13t-5.5 15q0 16 8.5 27.5t21.5 21t28 18t26 18.5q8 8 10.5 14.5t-7.5 18.5q1 -14 -7.5 -23.5t-22 -17t-28.5 -15.5t-27 -19q-21 -20 -23 -46q-2 -16 2 -33t21 -28q22 -14 52 -16
t54 13q8 4 18 11.5t20.5 13.5t20 7.5t16.5 -5.5q7 -8 6.5 -15.5t-5.5 -14.5t-11.5 -13.5t-10.5 -12.5q-9 -14 -9.5 -36t16.5 -39q4 -4 11.5 -8t15 -8.5t13 -10.5t5.5 -15q0 -5 -3 -9.5t-7 -9t-6.5 -9t-1.5 -9.5q2 -8 10.5 -13t14.5 -8zM364 261q6 -2 11.5 -3t11.5 -3
q1 24 7 47.5t21 45.5q-17 17 -18 36t10 34q-23 -5 -39.5 -23t-20.5 -36q-2 -7 0.5 -10.5t5.5 -8.5q5 -8 2 -14.5t-8 -11.5t-5 -7.5t3 -4.5t7.5 -4t7.5 -5q13 -11 6 -24q-1 -3 -4 -3q2 -4 2 -5zM386 246q-5 1 -9 2t-9 2q2 -7 3 -14t3 -14q4 -6 12 -6v30zM615 180q5 5 11 13
t6 18q0 5 -2 10l-4 10q-2 8 -3 11l-2 10l-2 10q-16 -9 -32 -16.5t-30 -14.5q-6 -3 -8 -0.5t4 6.5l32 16t33 17q0 6 -0.5 11.5t-1.5 11.5v9.5t-1 9.5q0 4 -0.5 9t-1.5 10q0 5 -1 10t-3 10q-3 8 -9.5 12.5t-11.5 9.5q7 4 9 10.5t0.5 14t-5 15.5t-6.5 15q-14 -8 -26 -16.5
t-26 -19.5q-5 -4 -10.5 -8t-8.5 -7q-5 -3 -11 3q-12 15 -32 23.5t-36 12.5q-14 3 -19 1.5t-10 -10.5q-7 -14 -2 -29t16 -30q-16 -21 -21 -45t-7 -50q3 -1 5.5 -1t5.5 -1q20 -5 48 -8.5t54 -8.5q8 -2 8.5 -4.5t-5.5 -3.5q-28 4 -57.5 8t-58.5 10q0 -2 -0.5 -4t-0.5 -4
q0 -5 0.5 -15t-2.5 -12t-10.5 1.5t-9.5 6.5t-3 9q-9 0 -14.5 -4.5t-8 -12t-2 -15.5t4.5 -14q5 -8 15 -9.5t17 3.5q4 2 8.5 6.5t8.5 11.5q1 2 3 -2.5t4 -6.5q12 -14 29 -22.5t41 -10.5q39 -3 77.5 3.5t64.5 26.5zM639 260q1 -3 2.5 -6t0.5 -5q-2 -3 -6 -4.5t-7 -3.5
q1 -8 4 -14t4 -13q11 -6 20.5 -1.5t14 13t3.5 18.5t-10 16q-15 6 -26 0zM637 253q-5 7 -6 15q-4 -2 -6 -4l3 -17q2 2 4.5 3t4.5 3zM633 295q2 4 4 7t2 6q2 7 -2.5 9.5t-7.5 7.5q-4 6 -1 11t8 12q5 8 -1 13t-6 13q-1 7 6 12.5t7 11.5q-2 8 -9 16.5t-10 17.5q-1 4 0 8t0 7
q-2 8 -11 11.5t-15 2.5q-8 -1 -18 -9.5t-20.5 -20t-20 -23.5t-15.5 -19q12 11 22.5 19.5t23.5 16.5q8 5 17 10.5t14 0.5q-1 -1 -3 -2q-4 -2 -4 -4q8 -14 10 -29t-6 -28q19 -15 20.5 -34t3.5 -37q1 -8 1.5 -15t1.5 -14q4 2 6 4q0 9 3 18zM469 295q7 0 5 -7q0 -7 -6 -5
q-6 0 -6 6t7 6zM474 291q0 -2 -2 -2t-2 2t2 2t2 -2zM577 288q-6 0 -6 7q2 7 7 5q6 0 6 -6q-2 -6 -7 -6zM580 299q-2 0 -2 -2t2 -2t2 2t-2 2zM547 223q1 -3 -3 -2.5t-9 -0.5q-5 -2 -8 -3.5t-4 0.5q0 7 11 9q11 4 13 -3zM537 217q10 3 13 0q0 -2 -3.5 -1.5t-8.5 -1.5
q-12 -2 -12 -3q-2 4 11 6zM403 137q2 0 2 -1q1 -1 1 -3v-34q0 -3 -1 -3q-1 -1 -2 -1q-2 0 -3 1t-1 3v1l-3 -3q-1 -1 -1.5 -1t-1.5 -1h-4q-4 0 -5 1q-2 1 -4 3q-1 2 -1.5 2.5t-1.5 2.5q0 2 -0.5 3t-0.5 3q0 6 4 12q4 4 9 4q2 0 6 -2q1 0 4 -3v11q0 3 1 4t3 1zM398 105
q0 1 0.5 2t0.5 3t-0.5 3t-0.5 2q-1 2 -3 4q-1 1 -4 1q-2 0 -4 -1q-2 -2 -2 -4q-1 -1 -1 -5t1 -5q1 -3 3 -3q1 -1 3 -1q3 0 4 1q1 0 3 3zM438 107q2 0 2 -1q1 0 1 -2t-1 -3q0 -1 -2 -3q-4 -2 -5 -2q-2 -1 -6 -1q-7 0 -11 4q-4 6 -4 11q0 4 2 8q1 2 2 3l3 3q2 1 4 1.5t5 0.5
q2 0 2.5 -0.5t2.5 -0.5l4 -2l3 -3q0 -1 0.5 -1.5t0.5 -1.5t-0.5 -1.5t-0.5 -1.5q-1 0 -1.5 -0.5t-1.5 -0.5l-1 1l-2 2l-3 3q-1 0 -1.5 0.5t-2.5 0.5q-4 0 -5 -3q-2 -4 -2 -7v-4q1 -1 1 -1.5t1 -1.5l2 -2q1 0 1.5 -0.5t2.5 -0.5q1 0 1.5 0.5t1.5 0.5q3 1 3 4l2 2h2zM472 121
q1 -1 3 -5q1 -2 1 -6t-1 -6q-2 -4 -3 -5q-3 -3 -5 -3q-2 -1 -6 -1t-6 1q-4 2 -5 3t-3 5q-1 2 -1 6q0 5 1 6q2 4 3 5q1 3 5 3q4 2 6 2t6 -2q3 0 5 -3zM467 103q2 4 2 7q0 5 -2 7q-3 3 -6 3t-4 -1q-2 -2 -3 -4v-5v-5q1 -2 3 -4q1 0 1.5 -0.5t2.5 -0.5q3 0 6 3zM503 101l2 -2
v-1q0 -2 -1 -2q-1 -1 -2 -1h-3q0 1 -2 3l-5 8l-6 -8q-1 -1 -1 -1.5t-1 -1.5h-2q-2 0 -3 1l-1 2q1 0 1 1t1 2l7 10l-6 8q-2 2 -2 4l1 2q1 0 1.5 0.5t1.5 0.5l2 -1q0 1 2 -3l5 -6l5 6q0 1 2 3l2 1q1 0 2 -1t1 -2v-2q0 -1 -0.5 -1t-0.5 -1l-6 -8zM534 125q1 0 1 -0.5t1 -0.5v-2
v-1q-1 -1 -1 -2l-10 -26l-1.5 -3t-0.5 -3q-2 -2 -4 -3q-1 0 -2 -0.5t-3 -0.5t-3 0.5t-2 0.5q-2 2 -2 3t1 2h2h1h2q1 0 2 1l1 1t2 3v1l-9 24q-1 1 -1 3q0 1 1 2l1 1l2 1q1 0 2 -1t1 -1.5t1 -1.5l6 -19l6 17l2 4l1 1l2 1zM541 103q3 0 3 -1q2 -2 2 -3t-2 -3q0 -1 -3 -1
q-2 0 -3 1q0 1 -0.5 1.5t-0.5 1.5t0.5 1.5t0.5 1.5q1 1 3 1zM578 107q2 0 3 -1l1 -2q0 -1 -0.5 -1.5t-0.5 -1.5l-3 -3q-2 -2 -4 -2q-2 -1 -6 -1q-8 0 -11 4q-4 4 -4 11q0 6 2 8q1 2 2 3l3 3q4 2 8 2q2 0 3 -0.5t2 -0.5q4 -2 5 -2q2 -2 2 -3q1 -1 1 -3t-1 -3l-2 -1
q-1 0 -1 0.5t-1 0.5l-1 2l-3 3q-1 0 -1.5 0.5t-2.5 0.5q-4 0 -5 -3q-3 -3 -3 -7q0 -1 0.5 -2t0.5 -2t2 -3q0 -2 2 -2q1 0 1.5 -0.5t1.5 -0.5q2 0 2.5 0.5t1.5 0.5q2 2 3 4q0 1 0.5 1t0.5 1h2zM613 121q1 -1 3 -5q0 -2 0.5 -3t0.5 -3t-0.5 -3t-0.5 -3q-2 -4 -3 -5
q-2 -1 -2.5 -2t-2.5 -1q-2 -1 -6 -1q-5 0 -7 1t-4 3q-2 1 -4 5q0 2 -0.5 3t-0.5 3t0.5 3.5t0.5 2.5q2 4 4 5q1 3 4 3q4 2 7 2q2 0 6 -2q2 0 5 -3zM607 103q2 4 2 7q0 5 -2 7q-2 3 -5 3t-4 -1t-3 -4q-1 -1 -1 -5t1 -5q2 -3 3 -4q1 0 1.5 -0.5t2.5 -0.5q3 0 5 3zM661 124
q2 -1 4 -3q1 -2 1 -7v-15q0 -1 -0.5 -1.5t-0.5 -1.5q-1 -1 -3 -1t-3 1t-1 3v13v4q0 1 -0.5 1.5t-0.5 1.5q-1 0 -1.5 0.5t-1.5 0.5t-1.5 -0.5t-1.5 -0.5q-2 -2 -2 -3q-1 -1 -1 -6v-11q0 -2 -1 -3t-3 -1t-3 1q0 1 -0.5 1.5t-0.5 1.5v13v4q0 2 -1 3q-1 0 -1.5 0.5t-1.5 0.5
q-4 0 -5 -3q0 -2 -0.5 -3.5t-0.5 -3.5v-11q0 -2 -1 -3t-3 -1t-3 1q0 1 -0.5 1.5t-0.5 1.5v22v2l1 1q2 2 3 2t2 -1q2 -2 2 -3v-1q1 3 4 3q2 2 5 2q1 0 5 -2l3 -3q3 3 4 3q4 2 5 2q3 0 5 -2z" />
    <glyph glyph-name="guillemotleft" unicode="&#xab;" horiz-adv-x="180" 
d="M33 174q12 -11 22.5 -21.5t13.5 -12.5q11 -9 2 -19q-5 -5 -10 -5t-9 4q-5 4 -19.5 17.5t-28.5 26.5q-4 4 -4 9q0 7 4 10q11 11 24 23.5t23 23.5q9 9 19 1q4 -4 4.5 -9.5t-3.5 -9.5zM82 174q12 -11 23 -21.5t13 -12.5q5 -3 5.5 -8.5t-3.5 -10.5q-3 -5 -10 -5q-5 0 -9 4
q-5 4 -19.5 17.5t-28.5 26.5q-4 4 -4 9q0 6 4 10q11 11 24 23.5t23 23.5q4 4 9.5 4.5t9.5 -3.5t4.5 -9.5t-3.5 -9.5q-17 -19 -38 -38z" />
    <glyph glyph-name="degree" unicode="&#xb0;" horiz-adv-x="120" 
d="M35 595q17 0 25.5 -11.5t8.5 -25t-8.5 -24.5t-25.5 -11q-18 0 -26.5 11t-8.5 24.5t8.5 25t26.5 11.5zM35 547q6 0 9 4t3 8.5t-3 8.5t-9 4t-9.5 -4t-3.5 -8.5t3.5 -8.5t9.5 -4z" />
    <glyph glyph-name="acute" unicode="&#xb4;" horiz-adv-x="253" 
d="M102 387q3 -1 10 -1q11 0 22.5 4t15.5 10q4 4 9 5t10 -3q5 -3 5.5 -8.5t-2.5 -10.5q-12 -14 -28.5 -19t-31.5 -5q-10 0 -14 1q-13 2 -11 16q2 13 15 11z" />
    <glyph glyph-name="paragraph" unicode="&#xb6;" horiz-adv-x="201" 
d="M136 529q13 -4 9 -17q-8 -27 -31 -30v-469q0 -13 -13 -13q-14 0 -14 13v471q-8 3 -15.5 6t-14.5 5v-1v-481q0 -13 -14 -13q-13 0 -13 13v479q-1 -2 -2 -3.5t-2 -3.5q-5 -8 -13 -8q-3 0 -5 1q-12 5 -7 18q6 15 17.5 22.5t23.5 6.5q10 0 20 -3t18.5 -6.5t15 -6t11.5 -1.5
q5 0 6.5 1t5.5 11q4 13 17 9z" />
    <glyph glyph-name="guillemotright" unicode="&#xbb;" horiz-adv-x="182" 
d="M92 174l-38 38q-4 4 -3.5 9.5t4.5 9.5q10 8 19 -1q10 -11 23 -23.5t24 -23.5q4 -3 4 -10q0 -5 -4 -9q-14 -13 -28.5 -26.5t-19.5 -17.5q-4 -4 -9 -4t-10 5q-9 10 2 19q3 2 13.5 12.5t22.5 21.5zM43 174q-21 19 -38 38q-4 4 -3.5 9.5t4.5 9.5t9.5 3.5t9.5 -4.5
q10 -11 23 -23.5t24 -23.5q4 -4 4 -10q0 -5 -4 -9q-14 -13 -28.5 -26.5t-19.5 -17.5q-4 -4 -9 -4q-7 0 -10 5q-4 5 -3.5 10.5t5.5 8.5q2 2 13 12.5t23 21.5z" />
    <glyph glyph-name="questiondown" unicode="&#xbf;" horiz-adv-x="345" 
d="M171.011 -233.957q-23.999 0 -46.4971 11.999q-22.499 11.999 -38.998 34.998q-16.499 22.998 -26.498 55.9961q-10 32.998 -10 73.9951q0 68.9961 7.5 115.493t25.498 77.4951q15.999 28.999 41.998 43.498q25.998 14.499 59.9961 17.499v38.9971v132.992
q0 12.999 13.999 12.999q12.999 0 12.999 -12.999v-132.992v-51.9971q0 -12.999 -12.999 -12.999q-34.998 -2 -56.9961 -12.499q-21.999 -10.499 -35.998 -35.498q-13.999 -24.998 -21.499 -68.9951q-7.49902 -43.998 -7.49902 -110.994q0 -37.9971 8.49902 -66.4951
q8.5 -28.499 22.499 -46.9971q13.999 -18.499 30.998 -27.499q16.999 -8.99902 32.998 -8.99902q16.999 0 33.998 9.49902q16.999 9.5 30.998 29.998q13.999 20.499 22.998 53.4971q9 32.998 9 78.9951q0 13.999 13.999 13.999q12.999 0 12.999 -13.999
q0 -48.9971 -9.99902 -85.9951q-10 -36.9971 -26.999 -61.9961q-16.999 -24.998 -39.4971 -37.9971q-22.499 -12.999 -47.4971 -12.999zM198.009 422.002q-9.99902 0 -14.499 6.5t-4.5 13.999q0 7.5 4.5 13.499q4.5 6 14.499 6t14.999 -6q5 -5.99902 5 -13.499
q0 -7.49902 -5 -13.999t-14.999 -6.5z" />
    <glyph glyph-name="Agrave" unicode="&#xc0;" horiz-adv-x="291" 
d="M125 620q6 -32 16.5 -88.5t23 -124.5t25.5 -140.5t24.5 -136.5t20 -112t12.5 -67q2 -14 -11 -16h-3q-11 0 -13 11q-3 18 -10.5 60.5t-17.5 100.5h-142q-8 -55 -14 -97l-9 -63q-2 -14 -15 -12q-14 2 -12 15q3 24 10.5 74t17 113.5t20 134.5t20.5 137.5t18 122t13 87.5
q2 12 13 12t13 -11zM187 134q-9 49 -18.5 102.5l-19 107t-19 103t-16.5 89.5q-6 -40 -13.5 -89.5t-15.5 -103l-16 -107t-15 -102.5h133zM141 679q13 2 15 -11q2 -14 -11 -16q-4 -1 -14 -1q-15 0 -31.5 5t-28.5 19q-3 5 -2.5 10.5t5.5 8.5q5 4 10 3t9 -5q4 -6 15.5 -10
t22.5 -4q7 0 10 1z" />
    <glyph glyph-name="Aacute" unicode="&#xc1;" horiz-adv-x="291" 
d="M125 620q6 -32 16.5 -88.5t23 -124.5t25.5 -140.5t24.5 -136.5t20 -112t12.5 -67q2 -14 -11 -16h-3q-11 0 -13 11q-3 18 -10.5 60.5t-17.5 100.5h-142q-8 -55 -14 -97l-9 -63q-2 -14 -15 -12q-14 2 -12 15q3 24 10.5 74t17 113.5t20 134.5t20.5 137.5t18 122t13 87.5
q2 12 13 12t13 -11zM187 134q-9 49 -18.5 102.5l-19 107t-19 103t-16.5 89.5q-6 -40 -13.5 -89.5t-15.5 -103l-16 -107t-15 -102.5h133zM84 679q3 -1 10 -1q11 0 22.5 4t15.5 10q4 4 9 5t10 -3q5 -3 5.5 -8.5t-2.5 -10.5q-12 -14 -28.5 -19t-31.5 -5q-10 0 -14 1
q-13 2 -11 16q2 13 15 11z" />
    <glyph glyph-name="Acircumflex" unicode="&#xc2;" horiz-adv-x="291" 
d="M125 620q6 -32 16.5 -88.5t23 -124.5t25.5 -140.5t24.5 -136.5t20 -112t12.5 -67q2 -14 -11 -16h-3q-11 0 -13 11q-3 18 -10.5 60.5t-17.5 100.5h-142q-8 -55 -14 -97l-9 -63q-2 -14 -15 -12q-14 2 -12 15q3 24 10.5 74t17 113.5t20 134.5t20.5 137.5t18 122t13 87.5
q2 12 13 12t13 -11zM187 134q-9 49 -18.5 102.5l-19 107t-19 103t-16.5 89.5q-6 -40 -13.5 -89.5t-15.5 -103l-16 -107t-15 -102.5h133zM150 674q9 -11 -1 -19q-3 -4 -9 -4q-5 0 -10 5q-6 7 -10.5 12t-6.5 7q-1 0 -1 -1q-6 -5 -18 -18q-9 -9 -19 0q-4 4 -4 9.5t4 9.5
q13 11 18.5 19t19.5 10q14 -2 19.5 -10t17.5 -20z" />
    <glyph glyph-name="Atilde" unicode="&#xc3;" horiz-adv-x="291" 
d="M125 620q6 -32 16.5 -88.5t23 -124.5t25.5 -140.5t24.5 -136.5t20 -112t12.5 -67q2 -14 -11 -16h-3q-11 0 -13 11q-3 18 -10.5 60.5t-17.5 100.5h-142q-8 -55 -14 -97l-9 -63q-2 -14 -15 -12q-14 2 -12 15q3 24 10.5 74t17 113.5t20 134.5t20.5 137.5t18 122t13 87.5
q2 12 13 12t13 -11zM187 134q-9 49 -18.5 102.5l-19 107t-19 103t-16.5 89.5q-6 -40 -13.5 -89.5t-15.5 -103l-16 -107t-15 -102.5h133zM155 673q7 -12 -4 -19q-5 -3 -10.5 -2t-8.5 6q-1 1 -1 2l-1 1q-2 2 -11 -3.5t-25 -6.5q-16 2 -26 18q-5 12 5 19q12 5 19 -5
q2 -4 2.5 -4.5t1.5 -0.5q2 -2 11.5 3.5t24.5 6.5q7 0 13 -4.5t10 -10.5z" />
    <glyph glyph-name="Adieresis" unicode="&#xc4;" horiz-adv-x="291" 
d="M125 620q6 -32 16.5 -88.5t23 -124.5t25.5 -140.5t24.5 -136.5t20 -112t12.5 -67q2 -14 -11 -16h-3q-11 0 -13 11q-3 18 -10.5 60.5t-17.5 100.5h-142q-8 -55 -14 -97l-9 -63q-2 -14 -15 -12q-14 2 -12 15q3 24 10.5 74t17 113.5t20 134.5t20.5 137.5t18 122t13 87.5
q2 12 13 12t13 -11zM187 134q-9 49 -18.5 102.5l-19 107t-19 103t-16.5 89.5q-6 -40 -13.5 -89.5t-15.5 -103l-16 -107t-15 -102.5h133zM121 668q0 9 6 14t13.5 5t13.5 -5t6 -14t-6 -13.5t-13.5 -4.5t-13.5 4.5t-6 13.5zM67 668q0 9 6 14t13 5t13 -5t6 -14t-6 -13.5
t-13 -4.5t-13 4.5t-6 13.5z" />
    <glyph glyph-name="Aring" unicode="&#xc5;" horiz-adv-x="291" 
d="M125 620q6 -32 16.5 -88.5t23 -124.5t25.5 -140.5t24.5 -136.5t20 -112t12.5 -67q2 -14 -11 -16h-3q-11 0 -13 11q-3 18 -10.5 60.5t-17.5 100.5h-142q-8 -55 -14 -97l-9 -63q-2 -14 -15 -12q-14 2 -12 15q3 24 10.5 74t17 113.5t20 134.5t20.5 137.5t18 122t13 87.5
q2 12 13 12t13 -11zM187 134q-9 49 -18.5 102.5l-19 107t-19 103t-16.5 89.5q-6 -40 -13.5 -89.5t-15.5 -103l-16 -107t-15 -102.5h133zM112 723q18 0 26.5 -11.5t8.5 -25t-8.5 -24.5t-26.5 -11q-17 0 -26 11t-9 24.5t9 25t26 11.5zM112 669q9 0 13.5 6t4.5 12.5t-4.5 12.5
t-13.5 6t-13 -6t-4 -12.5t4 -12.5t13 -6z" />
    <glyph glyph-name="AE" unicode="&#xc6;" horiz-adv-x="507" 
d="M452 -39q13 0 13 -14q0 -13 -13 -13h-17t-36.5 -0.5t-47 -0.5h-49h-41.5t-25 1q-6 0 -10 6t-6.5 13.5t-3.5 15.5t-2 13q-5 23 -10 54.5t-12 68.5h-142q-8 -54 -14 -96.5t-9 -63.5q-2 -13 -15 -11q-14 2 -12 15q3 23 10.5 73t17 113.5t20 135t20.5 138t18 122t13 87.5
q2 12 13 12t13 -11q7 -33 18 -94t24.5 -133t27 -148t24.5 -140v513q0 5 4 9t10 4h219q13 0 13 -13q0 -14 -13 -14h-206v-471h139q13 0 13 -13q0 -14 -13 -14h-139v-144h206zM187 132q-9 49 -18.5 103t-19 107.5t-19 103t-16.5 89.5q-6 -41 -13.5 -90.5t-15.5 -102.5
t-16 -107t-15 -103h133z" />
    <glyph glyph-name="Ccedilla" unicode="&#xc7;" horiz-adv-x="296" 
d="M231 131q14 0 14 -13q0 -35 -9 -66.5t-24.5 -57t-36 -42t-44.5 -19.5q0 -4 -2 -10q9 -5 12.5 -15t1.5 -19q-3 -12 -13 -19q-11 -7 -25 -4h-1q-10 2 -8 11q0 5 3 8t8 2h2q7 -1 9 1t4 6q2 11 -7 12q-5 2 -7 5q-2 2 -2 8q1 3 1.5 6.5t2.5 8.5q-23 5 -42 25t-33 55
q-17 42 -26.5 105t-9.5 157q0 93 11 159t29 108.5t42.5 63t52.5 22.5q24 -1 44 -15t35 -38t23.5 -57t8.5 -72q0 -14 -14 -14q-13 0 -13 14q0 36 -8 65.5t-20 49.5q-25 40 -56 40q-16 0 -34.5 -15t-35.5 -54t-27.5 -102t-10.5 -155q0 -91 9.5 -153t24.5 -99q15 -38 32 -51.5
t32 -13.5t31.5 11.5t30.5 34.5q14 22 23 51.5t9 61.5q0 13 13 13z" />
    <glyph glyph-name="Egrave" unicode="&#xc8;" horiz-adv-x="289" 
d="M232 -39q14 0 14 -13q0 -14 -13 -14h-220q-6 0 -9 4q-4 3 -4 9v670q0 6 4 9q3 4 9 4h219q14 0 14 -13q0 -14 -14 -14h-205v-470h139q13 0 13 -14q0 -13 -13 -13h-139v-145h205v0zM151 679q13 2 15 -11q2 -14 -11 -16q-4 -1 -14 -1q-15 0 -31.5 5t-28.5 19q-3 5 -2.5 10.5
t5.5 8.5q5 4 10 3t9 -5q4 -6 15.5 -10t22.5 -4q7 0 10 1z" />
    <glyph glyph-name="Eacute" unicode="&#xc9;" horiz-adv-x="289" 
d="M232 -39q14 0 14 -13q0 -14 -13 -14h-220q-6 0 -9 4q-4 3 -4 9v670q0 6 4 9q3 4 9 4h219q14 0 14 -13q0 -14 -14 -14h-205v-470h139q13 0 13 -14q0 -13 -13 -13h-139v-145h205v0zM92 679q3 -1 10 -1q11 0 22.5 4t15.5 10q4 4 9 5t10 -3q5 -3 5.5 -8.5t-2.5 -10.5
q-12 -14 -28.5 -19t-31.5 -5q-10 0 -14 1q-13 2 -11 16q2 13 15 11z" />
    <glyph glyph-name="Ecircumflex" unicode="&#xca;" horiz-adv-x="289" 
d="M232 -39q14 0 14 -13q0 -14 -13 -14h-220q-6 0 -9 4q-4 3 -4 9v670q0 6 4 9q3 4 9 4h219q14 0 14 -13q0 -14 -14 -14h-205v-470h139q13 0 13 -14q0 -13 -13 -13h-139v-145h205v0zM158 674q9 -11 -1 -19q-3 -4 -9 -4q-5 0 -10 5q-6 7 -10.5 12t-6.5 7q-1 0 -1 -1
q-6 -5 -18 -18q-9 -9 -19 0q-4 4 -4 9.5t4 9.5q13 11 18.5 19t19.5 10q14 -2 19.5 -10t17.5 -20z" />
    <glyph glyph-name="Edieresis" unicode="&#xcb;" horiz-adv-x="289" 
d="M232 -39q14 0 14 -13q0 -14 -13 -14h-220q-6 0 -9 4q-4 3 -4 9v670q0 6 4 9q3 4 9 4h219q14 0 14 -13q0 -14 -14 -14h-205v-470h139q13 0 13 -14q0 -13 -13 -13h-139v-145h205v0zM128 668q0 9 6 14t13.5 5t13.5 -5t6 -14t-6 -13.5t-13.5 -4.5t-13.5 4.5t-6 13.5zM74 668
q0 9 6 14t13 5t13 -5t6 -14t-6 -13.5t-13 -4.5t-13 4.5t-6 13.5z" />
    <glyph glyph-name="Igrave" unicode="&#xcc;" horiz-adv-x="287" 
d="M232 -39q14 0 14 -14q0 -13 -14 -13h-109h-110q-13 0 -13 13q0 14 13 14h96v642h-96q-13 0 -13 14q0 13 13 13h109l1 1l1 -1h108q14 0 14 -13q0 -14 -14 -14h-96v-642h96v0zM152 679q13 2 15 -11q2 -14 -11 -16q-4 -1 -14 -1q-15 0 -31.5 5t-28.5 19q-3 5 -2.5 10.5
t5.5 8.5q5 4 10 3t9 -5q4 -6 15.5 -10t22.5 -4q7 0 10 1z" />
    <glyph glyph-name="Iacute" unicode="&#xcd;" horiz-adv-x="287" 
d="M232 -39q14 0 14 -14q0 -13 -14 -13h-109h-110q-13 0 -13 13q0 14 13 14h96v642h-96q-13 0 -13 14q0 13 13 13h109l1 1l1 -1h108q14 0 14 -13q0 -14 -14 -14h-96v-642h96v0zM94 679q3 -1 10 -1q11 0 22.5 4t15.5 10q4 4 9 5t10 -3q5 -3 5.5 -8.5t-2.5 -10.5
q-12 -14 -28.5 -19t-31.5 -5q-10 0 -14 1q-13 2 -11 16q2 13 15 11z" />
    <glyph glyph-name="Icircumflex" unicode="&#xce;" horiz-adv-x="287" 
d="M232 -39q14 0 14 -14q0 -13 -14 -13h-109h-110q-13 0 -13 13q0 14 13 14h96v642h-96q-13 0 -13 14q0 13 13 13h109l1 1l1 -1h108q14 0 14 -13q0 -14 -14 -14h-96v-642h96v0zM161 674q9 -11 -1 -19q-3 -4 -9 -4q-5 0 -10 5q-6 7 -10.5 12t-6.5 7q-1 0 -1 -1q-6 -5 -18 -18
q-9 -9 -19 0q-4 4 -4 9.5t4 9.5q13 11 18.5 19t19.5 10q14 -2 19.5 -10t17.5 -20z" />
    <glyph glyph-name="Idieresis" unicode="&#xcf;" horiz-adv-x="287" 
d="M232 -39q14 0 14 -14q0 -13 -14 -13h-109h-110q-13 0 -13 13q0 14 13 14h96v642h-96q-13 0 -13 14q0 13 13 13h109l1 1l1 -1h108q14 0 14 -13q0 -14 -14 -14h-96v-642h96v0zM131 668q0 9 6 14t13.5 5t13.5 -5t6 -14t-6 -13.5t-13.5 -4.5t-13.5 4.5t-6 13.5zM77 668
q0 9 6 14t13 5t13 -5t6 -14t-6 -13.5t-13 -4.5t-13 4.5t-6 13.5z" />
    <glyph glyph-name="Eth" unicode="&#xd0;" horiz-adv-x="287" 
d="M162 567q35 -37 59.5 -98t24.5 -155q0 -65 -7 -116t-19.5 -90t-29 -67.5t-34.5 -47.5q-18 -20 -37 -31.5t-36.5 -17.5t-32 -8t-24.5 -2q-7 0 -10.5 0.5t-4.5 0.5q-11 2 -11 13v305h-38q-13 0 -13 13q0 14 13 14h38v337q0 13 12 13h4q30 0 70 -13.5t76 -49.5zM27 -39
q10 1 28.5 4t39.5 14t43 33.5t40 61.5t29 97.5t12 142.5q0 85 -20.5 139.5t-49.5 87t-62 46t-60 16.5v-323h91q13 0 13 -14q0 -13 -13 -13h-91v-292z" />
    <glyph glyph-name="Ntilde" unicode="&#xd1;" horiz-adv-x="296" 
d="M246 -54q0 -11 -12 -13h-2q-10 0 -12 9q-3 7 -14.5 41.5t-28 85.5t-37 112.5t-41 124.5t-39.5 121t-33 102v-583q0 -13 -14 -13q-13 0 -13 13v670q0 11 12 13q5 1 9 -2t6 -8q0 -3 10.5 -36t27 -83.5t37.5 -114t42 -127.5t40.5 -124t34.5 -104v586q0 13 13 13q14 0 14 -13
v-670zM169 673q7 -12 -4 -19q-5 -3 -10.5 -2t-8.5 6q-1 1 -1 2l-1 1q-2 2 -11 -3.5t-25 -6.5q-16 2 -26 18q-5 12 5 19q12 5 19 -5q2 -4 2.5 -4.5t1.5 -0.5q2 -2 11.5 3.5t24.5 6.5q7 0 13 -4.5t10 -10.5z" />
    <glyph glyph-name="Ograve" unicode="&#xd2;" horiz-adv-x="288" 
d="M211 538q16 -45 25.5 -109t9.5 -150q0 -35 -2.5 -70t-8 -68t-12.5 -61.5t-16 -50.5q-17 -44 -40.5 -69.5t-52.5 -26.5q-27 1 -47.5 23.5t-34.5 64.5q-15 42 -23.5 105t-8.5 151q0 87 9.5 151t25.5 109q16 44 37.5 68.5t50.5 25.5q29 -1 50 -25.5t38 -67.5zM182 39
q16 41 26.5 100.5t10.5 135.5v4q0 85 -9.5 146.5t-24.5 102.5q-14 42 -31.5 59.5t-30.5 16.5q-13 1 -30.5 -16.5t-32.5 -59.5q-14 -41 -23.5 -103.5t-9.5 -147.5q0 -86 8 -147.5t22 -99.5q14 -40 29.5 -55.5t27.5 -14.5q14 -1 33 18t35 61zM153 679q13 2 15 -11
q2 -14 -11 -16q-4 -1 -14 -1q-15 0 -31.5 5t-28.5 19q-3 5 -2.5 10.5t5.5 8.5q5 4 10 3t9 -5q4 -6 15.5 -10t22.5 -4q7 0 10 1z" />
    <glyph glyph-name="Oacute" unicode="&#xd3;" horiz-adv-x="288" 
d="M211 538q16 -45 25.5 -109t9.5 -150q0 -35 -2.5 -70t-8 -68t-12.5 -61.5t-16 -50.5q-17 -44 -40.5 -69.5t-52.5 -26.5q-27 1 -47.5 23.5t-34.5 64.5q-15 42 -23.5 105t-8.5 151q0 87 9.5 151t25.5 109q16 44 37.5 68.5t50.5 25.5q29 -1 50 -25.5t38 -67.5zM182 39
q16 41 26.5 100.5t10.5 135.5v4q0 85 -9.5 146.5t-24.5 102.5q-14 42 -31.5 59.5t-30.5 16.5q-13 1 -30.5 -16.5t-32.5 -59.5q-14 -41 -23.5 -103.5t-9.5 -147.5q0 -86 8 -147.5t22 -99.5q14 -40 29.5 -55.5t27.5 -14.5q14 -1 33 18t35 61zM94 679q3 -1 10 -1q11 0 22.5 4
t15.5 10q4 4 9 5t10 -3q5 -3 5.5 -8.5t-2.5 -10.5q-12 -14 -28.5 -19t-31.5 -5q-10 0 -14 1q-13 2 -11 16q2 13 15 11z" />
    <glyph glyph-name="Ocircumflex" unicode="&#xd4;" horiz-adv-x="288" 
d="M211 538q16 -45 25.5 -109t9.5 -150q0 -35 -2.5 -70t-8 -68t-12.5 -61.5t-16 -50.5q-17 -44 -40.5 -69.5t-52.5 -26.5q-27 1 -47.5 23.5t-34.5 64.5q-15 42 -23.5 105t-8.5 151q0 87 9.5 151t25.5 109q16 44 37.5 68.5t50.5 25.5q29 -1 50 -25.5t38 -67.5zM182 39
q16 41 26.5 100.5t10.5 135.5v4q0 85 -9.5 146.5t-24.5 102.5q-14 42 -31.5 59.5t-30.5 16.5q-13 1 -30.5 -16.5t-32.5 -59.5q-14 -41 -23.5 -103.5t-9.5 -147.5q0 -86 8 -147.5t22 -99.5q14 -40 29.5 -55.5t27.5 -14.5q14 -1 33 18t35 61zM161 674q9 -11 -1 -19
q-3 -4 -9 -4q-5 0 -10 5q-6 7 -10.5 12t-6.5 7q-1 0 -1 -1q-6 -5 -18 -18q-9 -9 -19 0q-4 4 -4 9.5t4 9.5q13 11 18.5 19t19.5 10q14 -2 19.5 -10t17.5 -20z" />
    <glyph glyph-name="Otilde" unicode="&#xd5;" horiz-adv-x="288" 
d="M211 538q16 -45 25.5 -109t9.5 -150q0 -35 -2.5 -70t-8 -68t-12.5 -61.5t-16 -50.5q-17 -44 -40.5 -69.5t-52.5 -26.5q-27 1 -47.5 23.5t-34.5 64.5q-15 42 -23.5 105t-8.5 151q0 87 9.5 151t25.5 109q16 44 37.5 68.5t50.5 25.5q29 -1 50 -25.5t38 -67.5zM182 39
q16 41 26.5 100.5t10.5 135.5v4q0 85 -9.5 146.5t-24.5 102.5q-14 42 -31.5 59.5t-30.5 16.5q-13 1 -30.5 -16.5t-32.5 -59.5q-14 -41 -23.5 -103.5t-9.5 -147.5q0 -86 8 -147.5t22 -99.5q14 -40 29.5 -55.5t27.5 -14.5q14 -1 33 18t35 61zM166 673q7 -12 -4 -19
q-5 -3 -10.5 -2t-8.5 6q-1 1 -1 2l-1 1q-2 2 -11 -3.5t-25 -6.5q-16 2 -26 18q-5 12 5 19q12 5 19 -5q2 -4 2.5 -4.5t1.5 -0.5q2 -2 11.5 3.5t24.5 6.5q7 0 13 -4.5t10 -10.5z" />
    <glyph glyph-name="Odieresis" unicode="&#xd6;" horiz-adv-x="288" 
d="M211 538q16 -45 25.5 -109t9.5 -150q0 -35 -2.5 -70t-8 -68t-12.5 -61.5t-16 -50.5q-17 -44 -40.5 -69.5t-52.5 -26.5q-27 1 -47.5 23.5t-34.5 64.5q-15 42 -23.5 105t-8.5 151q0 87 9.5 151t25.5 109q16 44 37.5 68.5t50.5 25.5q29 -1 50 -25.5t38 -67.5zM182 39
q16 41 26.5 100.5t10.5 135.5v4q0 85 -9.5 146.5t-24.5 102.5q-14 42 -31.5 59.5t-30.5 16.5q-13 1 -30.5 -16.5t-32.5 -59.5q-14 -41 -23.5 -103.5t-9.5 -147.5q0 -86 8 -147.5t22 -99.5q14 -40 29.5 -55.5t27.5 -14.5q14 -1 33 18t35 61zM132 668q0 9 6 14t13.5 5t13.5 -5
t6 -14t-6 -13.5t-13.5 -4.5t-13.5 4.5t-6 13.5zM78 668q0 9 6 14t13 5t13 -5t6 -14t-6 -13.5t-13 -4.5t-13 4.5t-6 13.5z" />
    <glyph glyph-name="multiply" unicode="&#xd7;" horiz-adv-x="199" 
d="M148 23q4 -4 4 -9.5t-4 -9.5t-10 -4t-9 4q-3 2 -18 17.5t-35 35.5l-53 -53q-4 -4 -10 -4q-5 0 -9 4t-4 9.5t4 9.5l53 53l-53 53q-4 4 -4 9.5t4 9.5t9.5 4t9.5 -4l53 -53q19 20 34.5 35t18.5 18q4 4 9.5 4t9.5 -4t4 -9.5t-4 -9.5l-53 -53q20 -20 35 -35.5t18 -17.5z" />
    <glyph glyph-name="Oslash" unicode="&#xd8;" horiz-adv-x="288" 
d="M231 625q14 -3 10 -16q-1 -3 -7.5 -28t-16.5 -63q13 -44 21 -103.5t8 -136.5q0 -35 -2.5 -70t-8 -68t-12.5 -61.5t-16 -50.5q-17 -44 -40.5 -69.5t-52.5 -26.5q-25 0 -46 21q-3 -12 -3 -14q-3 -10 -13 -10q-3 0 -4 1q-5 1 -8 6t-1 10q0 2 2.5 11t6.5 25q-9 16 -16 38
q-15 42 -23.5 105t-8.5 151q0 87 9.5 151t25.5 109q16 44 37.5 68.5t50.5 25.5q24 -1 43 -19t34 -50q6 23 10 37.5t5 16.5q3 14 16 10zM27 276q0 -86 8 -147.5t22 -99.5q0 -2 2 -6q12 45 28.5 109t34.5 132.5t35.5 134.5t31.5 117q-1 3 -2 5.5t-2 5.5q-14 42 -31.5 59.5
t-30.5 16.5q-13 1 -30.5 -16.5t-32.5 -59.5q-14 -41 -23.5 -103.5t-9.5 -147.5zM182 38q16 41 26.5 100.5t10.5 135.5v4q0 56 -4 102t-12 83q-15 -58 -33.5 -126.5t-35.5 -134.5t-32.5 -123.5t-24.5 -93.5q18 -28 37 -26q14 -1 33 18t35 61z" />
    <glyph glyph-name="Ugrave" unicode="&#xd9;" horiz-adv-x="279" 
d="M232 630q14 0 14 -13q0 -252 -20.5 -409.5t-50.5 -223.5q-11 -22 -23 -35.5t-30 -14.5q-17 1 -29 14.5t-23 34.5q-19 43 -36 128q-15 84 -24.5 208t-9.5 291v7q0 13 14 13q13 0 13 -13v-7q0 -249 20 -402.5t48 -212.5q8 -20 16.5 -27.5t10.5 -6.5q3 -1 11 6.5t17 27.5
q20 40 35 122q15 84 24.5 208t9.5 292q0 13 13 13zM149 679q13 2 15 -11q2 -14 -11 -16q-4 -1 -14 -1q-15 0 -31.5 5t-28.5 19q-3 5 -2.5 10.5t5.5 8.5q5 4 10 3t9 -5q4 -6 15.5 -10t22.5 -4q7 0 10 1z" />
    <glyph glyph-name="Uacute" unicode="&#xda;" horiz-adv-x="279" 
d="M232 630q14 0 14 -13q0 -252 -20.5 -409.5t-50.5 -223.5q-11 -22 -23 -35.5t-30 -14.5q-17 1 -29 14.5t-23 34.5q-19 43 -36 128q-15 84 -24.5 208t-9.5 291v7q0 13 14 13q13 0 13 -13v-7q0 -249 20 -402.5t48 -212.5q8 -20 16.5 -27.5t10.5 -6.5q3 -1 11 6.5t17 27.5
q20 40 35 122q15 84 24.5 208t9.5 292q0 13 13 13zM91 679q3 -1 10 -1q11 0 22.5 4t15.5 10q4 4 9 5t10 -3q5 -3 5.5 -8.5t-2.5 -10.5q-12 -14 -28.5 -19t-31.5 -5q-10 0 -14 1q-13 2 -11 16q2 13 15 11z" />
    <glyph glyph-name="Ucircumflex" unicode="&#xdb;" horiz-adv-x="279" 
d="M232 630q14 0 14 -13q0 -252 -20.5 -409.5t-50.5 -223.5q-11 -22 -23 -35.5t-30 -14.5q-17 1 -29 14.5t-23 34.5q-19 43 -36 128q-15 84 -24.5 208t-9.5 291v7q0 13 14 13q13 0 13 -13v-7q0 -249 20 -402.5t48 -212.5q8 -20 16.5 -27.5t10.5 -6.5q3 -1 11 6.5t17 27.5
q20 40 35 122q15 84 24.5 208t9.5 292q0 13 13 13zM158 674q9 -11 -1 -19q-3 -4 -9 -4q-5 0 -10 5q-6 7 -10.5 12t-6.5 7q-1 0 -1 -1q-6 -5 -18 -18q-9 -9 -19 0q-4 4 -4 9.5t4 9.5q13 11 18.5 19t19.5 10q14 -2 19.5 -10t17.5 -20z" />
    <glyph glyph-name="Udieresis" unicode="&#xdc;" horiz-adv-x="279" 
d="M232 630q14 0 14 -13q0 -252 -20.5 -409.5t-50.5 -223.5q-11 -22 -23 -35.5t-30 -14.5q-17 1 -29 14.5t-23 34.5q-19 43 -36 128q-15 84 -24.5 208t-9.5 291v7q0 13 14 13q13 0 13 -13v-7q0 -249 20 -402.5t48 -212.5q8 -20 16.5 -27.5t10.5 -6.5q3 -1 11 6.5t17 27.5
q20 40 35 122q15 84 24.5 208t9.5 292q0 13 13 13zM130 668q0 9 6 14t13.5 5t13.5 -5t6 -14t-6 -13.5t-13.5 -4.5t-13.5 4.5t-6 13.5zM76 668q0 9 6 14t13 5t13 -5t6 -14t-6 -13.5t-13 -4.5t-13 4.5t-6 13.5z" />
    <glyph glyph-name="Yacute" unicode="&#xdd;" horiz-adv-x="268" 
d="M232 630q14 0 14 -14q-2 -127 -11.5 -220.5t-25.5 -157.5q-14 -55 -30.5 -88t-41.5 -42v-33.5v-49t-0.5 -47.5t-0.5 -31q0 -13 -13 -13h-1q-13 0 -13 14q0 8 0.5 30t0.5 47.5v48.5v33q-26 8 -43 42t-32 91q-15 64 -24.5 157.5t-10.5 218.5q0 14 13 14q14 0 14 -14
q1 -124 10.5 -216t24.5 -154q14 -63 33 -90t28 -25q8 -2 27 24.5t33 89.5q15 61 24.5 153.5t11.5 218.5q0 13 13 13zM92 679q3 -1 10 -1q11 0 22.5 4t15.5 10q4 4 9 5t10 -3q5 -3 5.5 -8.5t-2.5 -10.5q-12 -14 -28.5 -19t-31.5 -5q-10 0 -14 1q-13 2 -11 16q2 13 15 11z" />
    <glyph glyph-name="agrave" unicode="&#xe0;" 
d="M247 13q0 -13 -13 -13q-14 0 -14 13v26q-17 -18 -40.5 -28.5t-49.5 -10.5q-24 0 -47.5 10t-41.5 33q-19 22 -29.5 55.5t-10.5 81.5v7q0 37 11.5 66t30 48.5t41.5 29t47 9.5q26 0 49.5 -11.5t39.5 -33.5v31q0 14 14 14q13 0 13 -14v-313zM130 27q33 0 60 20.5t30 50.5v121
q-2 48 -29 71t-60 23q-18 0 -36 -7t-32.5 -22.5t-24 -39.5t-10.5 -58v-6q0 -44 9.5 -73t24 -47t32.5 -25.5t36 -7.5zM158 387q13 2 15 -11q2 -14 -11 -16q-4 -1 -14 -1q-15 0 -31.5 5t-28.5 19q-3 5 -2.5 10.5t5.5 8.5q5 4 10 3t9 -5q4 -6 15.5 -10t22.5 -4q7 0 10 1z" />
    <glyph glyph-name="aacute" unicode="&#xe1;" 
d="M247 13q0 -13 -13 -13q-14 0 -14 13v26q-17 -18 -40.5 -28.5t-49.5 -10.5q-24 0 -47.5 10t-41.5 33q-19 22 -29.5 55.5t-10.5 81.5v7q0 37 11.5 66t30 48.5t41.5 29t47 9.5q26 0 49.5 -11.5t39.5 -33.5v31q0 14 14 14q13 0 13 -14v-313zM130 27q33 0 60 20.5t30 50.5v121
q-2 48 -29 71t-60 23q-18 0 -36 -7t-32.5 -22.5t-24 -39.5t-10.5 -58v-6q0 -44 9.5 -73t24 -47t32.5 -25.5t36 -7.5zM102 387q3 -1 10 -1q11 0 22.5 4t15.5 10q4 4 9 5t10 -3q5 -3 5.5 -8.5t-2.5 -10.5q-12 -14 -28.5 -19t-31.5 -5q-10 0 -14 1q-13 2 -11 16q2 13 15 11z
" />
    <glyph glyph-name="acircumflex" unicode="&#xe2;" 
d="M247 13q0 -13 -13 -13q-14 0 -14 13v26q-17 -18 -40.5 -28.5t-49.5 -10.5q-24 0 -47.5 10t-41.5 33q-19 22 -29.5 55.5t-10.5 81.5v7q0 37 11.5 66t30 48.5t41.5 29t47 9.5q26 0 49.5 -11.5t39.5 -33.5v31q0 14 14 14q13 0 13 -14v-313zM130 27q33 0 60 20.5t30 50.5v121
q-2 48 -29 71t-60 23q-18 0 -36 -7t-32.5 -22.5t-24 -39.5t-10.5 -58v-6q0 -44 9.5 -73t24 -47t32.5 -25.5t36 -7.5zM169 382q9 -11 -1 -19q-3 -4 -9 -4q-5 0 -10 5q-6 7 -10.5 12t-6.5 7q-1 0 -1 -1q-6 -5 -18 -18q-9 -9 -19 0q-4 4 -4 9.5t4 9.5q13 11 18.5 19t19.5 10
q14 -2 19.5 -10t17.5 -20z" />
    <glyph glyph-name="atilde" unicode="&#xe3;" 
d="M247 13q0 -13 -13 -13q-14 0 -14 13v26q-17 -18 -40.5 -28.5t-49.5 -10.5q-24 0 -47.5 10t-41.5 33q-19 22 -29.5 55.5t-10.5 81.5v7q0 37 11.5 66t30 48.5t41.5 29t47 9.5q26 0 49.5 -11.5t39.5 -33.5v31q0 14 14 14q13 0 13 -14v-313zM130 27q33 0 60 20.5t30 50.5v121
q-2 48 -29 71t-60 23q-18 0 -36 -7t-32.5 -22.5t-24 -39.5t-10.5 -58v-6q0 -44 9.5 -73t24 -47t32.5 -25.5t36 -7.5zM175 381q7 -12 -4 -19q-5 -3 -10.5 -2t-8.5 6q-1 1 -1 2l-1 1q-2 2 -11 -3.5t-25 -6.5q-16 2 -26 18q-5 12 5 19q12 5 19 -5q2 -4 2.5 -4.5t1.5 -0.5
q2 -2 11.5 3.5t24.5 6.5q7 0 13 -4.5t10 -10.5z" />
    <glyph glyph-name="adieresis" unicode="&#xe4;" 
d="M247 13q0 -13 -13 -13q-14 0 -14 13v26q-17 -18 -40.5 -28.5t-49.5 -10.5q-24 0 -47.5 10t-41.5 33q-19 22 -29.5 55.5t-10.5 81.5v7q0 37 11.5 66t30 48.5t41.5 29t47 9.5q26 0 49.5 -11.5t39.5 -33.5v31q0 14 14 14q13 0 13 -14v-313zM130 27q33 0 60 20.5t30 50.5v121
q-2 48 -29 71t-60 23q-18 0 -36 -7t-32.5 -22.5t-24 -39.5t-10.5 -58v-6q0 -44 9.5 -73t24 -47t32.5 -25.5t36 -7.5zM140 376q0 9 6 14t13.5 5t13.5 -5t6 -14t-6 -13.5t-13.5 -4.5t-13.5 4.5t-6 13.5zM86 376q0 9 6 14t13 5t13 -5t6 -14t-6 -13.5t-13 -4.5t-13 4.5t-6 13.5z
" />
    <glyph glyph-name="aring" unicode="&#xe5;" 
d="M247 13q0 -13 -13 -13q-14 0 -14 13v26q-17 -18 -40.5 -28.5t-49.5 -10.5q-24 0 -47.5 10t-41.5 33q-19 22 -29.5 55.5t-10.5 81.5v7q0 37 11.5 66t30 48.5t41.5 29t47 9.5q26 0 49.5 -11.5t39.5 -33.5v31q0 14 14 14q13 0 13 -14v-313zM130 27q33 0 60 20.5t30 50.5v121
q-2 48 -29 71t-60 23q-18 0 -36 -7t-32.5 -22.5t-24 -39.5t-10.5 -58v-6q0 -44 9.5 -73t24 -47t32.5 -25.5t36 -7.5zM131 431q18 0 26.5 -11.5t8.5 -25t-8.5 -24.5t-26.5 -11q-17 0 -26 11t-9 24.5t9 25t26 11.5zM131 377q9 0 13.5 6t4.5 12.5t-4.5 12.5t-13.5 6t-13 -6
t-4 -12.5t4 -12.5t13 -6z" />
    <glyph glyph-name="ae" unicode="&#xe6;" horiz-adv-x="515" 
d="M451 119q14 0 14 -13v-1q0 -23 -10 -42.5t-26.5 -33.5t-37.5 -21.5t-43 -7.5q-24 0 -47.5 10t-42.5 33q-3 4 -6 8.5t-6 9.5v-48q0 -13 -13 -13q-14 0 -14 13v26q-17 -18 -40.5 -28.5t-49.5 -10.5q-24 0 -47.5 10t-41.5 33q-19 22 -29.5 55.5t-10.5 81.5v7q0 37 11.5 66
t30 48.5t41.5 29t47 9.5q26 0 49.5 -11.5t39.5 -33.5v31q0 14 14 14q13 0 13 -14v-42q18 29 45 43t57 13q22 0 43.5 -9t37.5 -25.5t26 -41t10 -55.5q1 -10 -7 -15q-19 -9 -47 -22.5t-57.5 -27.5t-55.5 -26.5t-40 -19.5q14 -39 39 -54.5t51 -16.5q18 0 34 6t28.5 16.5t20 25
t7.5 30.5v1q0 13 13 13zM219 219q-2 48 -29 71t-60 23q-18 0 -36.5 -7t-33 -22.5t-23.5 -39.5t-10 -58v-6q0 -44 9.5 -73t24 -47t32.5 -25.5t36 -7.5q33 0 60 20.5t30 50.5v121zM246 170q1 -13 2 -24.5t3 -21.5q15 7 39 18.5t50.5 24.5t52.5 26t45 22q-2 50 -29.5 74
t-60.5 24q-18 0 -35.5 -7t-32 -22t-24 -38t-10.5 -55v-21z" />
    <glyph glyph-name="ccedilla" unicode="&#xe7;" horiz-adv-x="298" 
d="M128 310q-18 0 -36 -7t-32 -22.5t-23 -39.5t-10 -58v-6q0 -44 9.5 -73t24 -46.5t32.5 -25t36 -7.5t34 6t28.5 16.5t20 24.5t7.5 30v1q0 2 1 4q4 13 16 9q10 -3 10 -14q0 -22 -9 -40t-24 -31.5t-34 -22t-40 -10.5q-1 -3 -1.5 -7t-1.5 -7q10 -6 13.5 -16.5t1.5 -20.5
q-2 -6 -5 -11.5t-9 -9.5q-5 -5 -12.5 -6t-15.5 1h-1q-11 2 -9 12q0 13 13 11h2q8 -2 10 0.5t4 7.5q2 10 -8 13q-5 1 -8 5q-2 6 -1 10t1.5 8.5t2.5 10.5q-20 2 -40 12t-35 29q-19 23 -29.5 56t-10.5 81v7q0 37 11.5 66t29.5 48.5t40.5 29t46.5 9.5q22 0 43.5 -8.5t38.5 -25.5
t27 -42t10 -57q0 -5 -4 -9.5t-10 -4.5q-13 0 -13 14q-1 54 -29 80t-63 26z" />
    <glyph glyph-name="egrave" unicode="&#xe8;" 
d="M232 119q14 0 14 -14q0 -23 -10 -42.5t-26.5 -33.5t-37.5 -21.5t-43 -7.5q-24 0 -47.5 10t-41.5 32q-19 23 -29.5 56.5t-10.5 80.5v7q0 38 11.5 66.5t29.5 48t41 29.5t47 10q22 0 43.5 -9t38 -25.5t26.5 -41.5t10 -56q0 -11 -8 -14q-19 -9 -47 -22.5t-57.5 -28t-55 -27
t-39.5 -19.5q14 -39 38.5 -54.5t50.5 -15.5q18 0 34 6t28.5 16.5t20 24.5t7.5 31q0 14 13 14zM27 179q0 -16 1.5 -29.5t3.5 -25.5q15 7 39 18.5t50.5 24.5l53 26t45.5 22q-1 25 -9 43t-20.5 30t-28.5 18.5t-33 6.5q-18 0 -36 -7.5t-32.5 -23t-23.5 -39.5t-10 -57v-7z
M156 387q13 2 15 -11q2 -14 -11 -16q-4 -1 -14 -1q-15 0 -31.5 5t-28.5 19q-3 5 -2.5 10.5t5.5 8.5q5 4 10 3t9 -5q4 -6 15.5 -10t22.5 -4q7 0 10 1z" />
    <glyph glyph-name="eacute" unicode="&#xe9;" 
d="M232 119q14 0 14 -14q0 -23 -10 -42.5t-26.5 -33.5t-37.5 -21.5t-43 -7.5q-24 0 -47.5 10t-41.5 32q-19 23 -29.5 56.5t-10.5 80.5v7q0 38 11.5 66.5t29.5 48t41 29.5t47 10q22 0 43.5 -9t38 -25.5t26.5 -41.5t10 -56q0 -11 -8 -14q-19 -9 -47 -22.5t-57.5 -28t-55 -27
t-39.5 -19.5q14 -39 38.5 -54.5t50.5 -15.5q18 0 34 6t28.5 16.5t20 24.5t7.5 31q0 14 13 14zM27 179q0 -16 1.5 -29.5t3.5 -25.5q15 7 39 18.5t50.5 24.5l53 26t45.5 22q-1 25 -9 43t-20.5 30t-28.5 18.5t-33 6.5q-18 0 -36 -7.5t-32.5 -23t-23.5 -39.5t-10 -57v-7z
M100 387q3 -1 10 -1q11 0 22.5 4t15.5 10q4 4 9 5t10 -3q5 -3 5.5 -8.5t-2.5 -10.5q-12 -14 -28.5 -19t-31.5 -5q-10 0 -14 1q-13 2 -11 16q2 13 15 11z" />
    <glyph glyph-name="ecircumflex" unicode="&#xea;" 
d="M232 119q14 0 14 -14q0 -23 -10 -42.5t-26.5 -33.5t-37.5 -21.5t-43 -7.5q-24 0 -47.5 10t-41.5 32q-19 23 -29.5 56.5t-10.5 80.5v7q0 38 11.5 66.5t29.5 48t41 29.5t47 10q22 0 43.5 -9t38 -25.5t26.5 -41.5t10 -56q0 -11 -8 -14q-19 -9 -47 -22.5t-57.5 -28t-55 -27
t-39.5 -19.5q14 -39 38.5 -54.5t50.5 -15.5q18 0 34 6t28.5 16.5t20 24.5t7.5 31q0 14 13 14zM27 179q0 -16 1.5 -29.5t3.5 -25.5q15 7 39 18.5t50.5 24.5l53 26t45.5 22q-1 25 -9 43t-20.5 30t-28.5 18.5t-33 6.5q-18 0 -36 -7.5t-32.5 -23t-23.5 -39.5t-10 -57v-7z
M168 382q9 -11 -1 -19q-3 -4 -9 -4q-5 0 -10 5q-6 7 -10.5 12t-6.5 7q-1 0 -1 -1q-6 -5 -18 -18q-9 -9 -19 0q-4 4 -4 9.5t4 9.5q13 11 18.5 19t19.5 10q14 -2 19.5 -10t17.5 -20z" />
    <glyph glyph-name="edieresis" unicode="&#xeb;" 
d="M232 119q14 0 14 -14q0 -23 -10 -42.5t-26.5 -33.5t-37.5 -21.5t-43 -7.5q-24 0 -47.5 10t-41.5 32q-19 23 -29.5 56.5t-10.5 80.5v7q0 38 11.5 66.5t29.5 48t41 29.5t47 10q22 0 43.5 -9t38 -25.5t26.5 -41.5t10 -56q0 -11 -8 -14q-19 -9 -47 -22.5t-57.5 -28t-55 -27
t-39.5 -19.5q14 -39 38.5 -54.5t50.5 -15.5q18 0 34 6t28.5 16.5t20 24.5t7.5 31q0 14 13 14zM27 179q0 -16 1.5 -29.5t3.5 -25.5q15 7 39 18.5t50.5 24.5l53 26t45.5 22q-1 25 -9 43t-20.5 30t-28.5 18.5t-33 6.5q-18 0 -36 -7.5t-32.5 -23t-23.5 -39.5t-10 -57v-7z
M137 376q0 9 6 14t13.5 5t13.5 -5t6 -14t-6 -13.5t-13.5 -4.5t-13.5 4.5t-6 13.5zM83 376q0 9 6 14t13 5t13 -5t6 -14t-6 -13.5t-13 -4.5t-13 4.5t-6 13.5z" />
    <glyph glyph-name="igrave" unicode="&#xec;" horiz-adv-x="77" 
d="M13 340q6 0 10 -4.5t4 -9.5v-313q0 -13 -14 -13q-13 0 -13 13v313q0 5 4 9.5t9 4.5zM43 387q13 2 15 -11q2 -14 -11 -16q-4 -1 -14 -1q-15 0 -31.5 5t-28.5 19q-3 5 -2.5 10.5t5.5 8.5q5 4 10 3t9 -5q4 -6 15.5 -10t22.5 -4q7 0 10 1z" />
    <glyph glyph-name="iacute" unicode="&#xed;" horiz-adv-x="77" 
d="M13 340q-5 0 -9 -4.5t-4 -9.5v-313q0 -13 13 -13q14 0 14 13v313q0 5 -4 9.5t-10 4.5zM-15 387q3 -1 10 -1q11 0 22.5 4t15.5 10q4 4 9 5t10 -3q5 -3 5.5 -8.5t-2.5 -10.5q-12 -14 -28.5 -19t-31.5 -5q-10 0 -14 1q-13 2 -11 16q2 13 15 11z" />
    <glyph glyph-name="icircumflex" unicode="&#xee;" horiz-adv-x="77" 
d="M13 340q6 0 10 -4.5t4 -9.5v-313q0 -13 -14 -13q-13 0 -13 13v313q0 5 4 9.5t9 4.5zM52 382q9 -11 -1 -19q-3 -4 -9 -4q-5 0 -10 5q-6 7 -10.5 12t-6.5 7q-1 0 -1 -1q-6 -5 -18 -18q-9 -9 -19 0q-4 4 -4 9.5t4 9.5q13 11 18.5 19t19.5 10q14 -2 19.5 -10t17.5 -20z" />
    <glyph glyph-name="idieresis" unicode="&#xef;" horiz-adv-x="77" 
d="M13 340q6 0 10 -4.5t4 -9.5v-313q0 -13 -14 -13q-13 0 -13 13v313q0 5 4 9.5t9 4.5zM21 376q0 9 6 14t13.5 5t13.5 -5t6 -14t-6 -13.5t-13.5 -4.5t-13.5 4.5t-6 13.5zM-33 376q0 9 6 14t13 5t13 -5t6 -14t-6 -13.5t-13 -4.5t-13 4.5t-6 13.5z" />
    <glyph glyph-name="ntilde" unicode="&#xf1;" horiz-adv-x="298" 
d="M247 106v-91q0 -14 -13 -14q-14 0 -14 14v91v78q-1 34 -9.5 58.5t-21.5 40t-30 23t-34 7.5t-34.5 -7.5t-31 -22.5t-22.5 -38t-10 -54v-178q0 -13 -14 -13q-13 0 -13 13v313q0 14 13 14q14 0 14 -14v-44q17 28 43 43t55 15q23 0 45 -10t39 -29.5t27.5 -48.5t10.5 -67v-79z
M172 381q7 -12 -4 -19q-5 -3 -10.5 -2t-8.5 6q-1 1 -1 2l-1 1q-2 2 -11 -3.5t-25 -6.5q-16 2 -26 18q-5 12 5 19q12 5 19 -5q2 -4 2.5 -4.5t1.5 -0.5q2 -2 11.5 3.5t24.5 6.5q7 0 13 -4.5t10 -10.5z" />
    <glyph glyph-name="ograve" unicode="&#xf2;" horiz-adv-x="298" 
d="M122 340q24 0 47 -12.5t40 -36t27.5 -57t10.5 -76.5q0 -38 -10.5 -67.5t-27.5 -49.5t-39 -30.5t-46 -10.5t-46 10.5t-39.5 30.5t-28 49.5t-10.5 67.5q0 44 10 78t26.5 57t39 35t46.5 12zM124 27q18 0 35 7.5t30.5 23.5t22 40.5t8.5 59.5q0 40 -9 69.5t-23 48.5t-31.5 28
t-34.5 9t-34 -9t-30.5 -27.5t-22 -48t-8.5 -70.5q0 -34 9 -59t22.5 -41t30.5 -23.5t35 -7.5zM155 387q13 2 15 -11q2 -14 -11 -16q-4 -1 -14 -1q-15 0 -31.5 5t-28.5 19q-3 5 -2.5 10.5t5.5 8.5q5 4 10 3t9 -5q4 -6 15.5 -10t22.5 -4q7 0 10 1z" />
    <glyph glyph-name="oacute" unicode="&#xf3;" horiz-adv-x="298" 
d="M122 340q24 0 47 -12.5t40 -36t27.5 -57t10.5 -76.5q0 -38 -10.5 -67.5t-27.5 -49.5t-39 -30.5t-46 -10.5t-46 10.5t-39.5 30.5t-28 49.5t-10.5 67.5q0 44 10 78t26.5 57t39 35t46.5 12zM124 27q18 0 35 7.5t30.5 23.5t22 40.5t8.5 59.5q0 40 -9 69.5t-23 48.5t-31.5 28
t-34.5 9t-34 -9t-30.5 -27.5t-22 -48t-8.5 -70.5q0 -34 9 -59t22.5 -41t30.5 -23.5t35 -7.5zM95 387q3 -1 10 -1q11 0 22.5 4t15.5 10q4 4 9 5t10 -3q5 -3 5.5 -8.5t-2.5 -10.5q-12 -14 -28.5 -19t-31.5 -5q-10 0 -14 1q-13 2 -11 16q2 13 15 11z" />
    <glyph glyph-name="ocircumflex" unicode="&#xf4;" horiz-adv-x="298" 
d="M122 340q24 0 47 -12.5t40 -36t27.5 -57t10.5 -76.5q0 -38 -10.5 -67.5t-27.5 -49.5t-39 -30.5t-46 -10.5t-46 10.5t-39.5 30.5t-28 49.5t-10.5 67.5q0 44 10 78t26.5 57t39 35t46.5 12zM124 27q18 0 35 7.5t30.5 23.5t22 40.5t8.5 59.5q0 40 -9 69.5t-23 48.5t-31.5 28
t-34.5 9t-34 -9t-30.5 -27.5t-22 -48t-8.5 -70.5q0 -34 9 -59t22.5 -41t30.5 -23.5t35 -7.5zM164 382q9 -11 -1 -19q-3 -4 -9 -4q-5 0 -10 5q-6 7 -10.5 12t-6.5 7q-1 0 -1 -1q-6 -5 -18 -18q-9 -9 -19 0q-4 4 -4 9.5t4 9.5q13 11 18.5 19t19.5 10q14 -2 19.5 -10t17.5 -20z
" />
    <glyph glyph-name="otilde" unicode="&#xf5;" horiz-adv-x="298" 
d="M122 340q24 0 47 -12.5t40 -36t27.5 -57t10.5 -76.5q0 -38 -10.5 -67.5t-27.5 -49.5t-39 -30.5t-46 -10.5t-46 10.5t-39.5 30.5t-28 49.5t-10.5 67.5q0 44 10 78t26.5 57t39 35t46.5 12zM124 27q18 0 35 7.5t30.5 23.5t22 40.5t8.5 59.5q0 40 -9 69.5t-23 48.5t-31.5 28
t-34.5 9t-34 -9t-30.5 -27.5t-22 -48t-8.5 -70.5q0 -34 9 -59t22.5 -41t30.5 -23.5t35 -7.5zM166 381q7 -12 -4 -19q-5 -3 -10.5 -2t-8.5 6q-1 1 -1 2l-1 1q-2 2 -11 -3.5t-25 -6.5q-16 2 -26 18q-5 12 5 19q12 5 19 -5q2 -4 2.5 -4.5t1.5 -0.5q2 -2 11.5 3.5t24.5 6.5
q7 0 13 -4.5t10 -10.5z" />
    <glyph glyph-name="odieresis" unicode="&#xf6;" horiz-adv-x="298" 
d="M122 340q24 0 47 -12.5t40 -36t27.5 -57t10.5 -76.5q0 -38 -10.5 -67.5t-27.5 -49.5t-39 -30.5t-46 -10.5t-46 10.5t-39.5 30.5t-28 49.5t-10.5 67.5q0 44 10 78t26.5 57t39 35t46.5 12zM124 27q18 0 35 7.5t30.5 23.5t22 40.5t8.5 59.5q0 40 -9 69.5t-23 48.5t-31.5 28
t-34.5 9t-34 -9t-30.5 -27.5t-22 -48t-8.5 -70.5q0 -34 9 -59t22.5 -41t30.5 -23.5t35 -7.5zM131 376q0 9 6 14t13.5 5t13.5 -5t6 -14t-6 -13.5t-13.5 -4.5t-13.5 4.5t-6 13.5zM77 376q0 9 6 14t13 5t13 -5t6 -14t-6 -13.5t-13 -4.5t-13 4.5t-6 13.5z" />
    <glyph glyph-name="divide" unicode="&#xf7;" horiz-adv-x="237" 
d="M166 79q14 0 14 -13q0 -14 -14 -14h-155q-13 0 -13 14q0 13 13 13h155zM89 40q10 0 14.5 -6.5t4.5 -14t-4.5 -13.5t-14.5 -6t-15 6t-5 13.5t5 14t15 6.5zM89 91q-10 0 -15 6t-5 13.5t5 14t15 6.5t14.5 -6.5t4.5 -14t-4.5 -13.5t-14.5 -6z" />
    <glyph glyph-name="oslash" unicode="&#xf8;" horiz-adv-x="296" 
d="M225 361q14 -2 10 -9q-1 -2 -8.5 -17.5t-19.5 -40.5q18 -23 29 -57t11 -79q0 -38 -10.5 -67.5t-27.5 -49.5t-39 -30.5t-46 -10.5q-30 0 -55 15q-8 -16 -13.5 -27.5t-5.5 -13.5q-3 -5 -14 -5h-4q-14 2 -10 9l8 16t18 37q-22 20 -35 51.5t-13 75.5t10 78t26.5 57t39 35
t46.5 12q35 -2 66 -26q8 17 13.5 28.5t6.5 13.5q4 8 17 5zM27 158q0 -36 9.5 -61t23.5 -41q13 26 28.5 56.5t31 61.5t30 61t26.5 54q-26 24 -54 24q-17 0 -34 -9t-30.5 -27.5t-22 -48t-8.5 -70.5zM124 27q18 0 35 7.5t30.5 23.5t22 40.5t8.5 59.5q0 36 -7.5 63t-19.5 46
q-13 -26 -27.5 -56t-29.5 -60.5t-29 -59t-26 -52.5q21 -12 43 -12z" />
    <glyph glyph-name="ugrave" unicode="&#xf9;" 
d="M234 340q13 0 13 -14v-312q0 -14 -13 -14q-5 0 -9.5 4t-4.5 10v44q-17 -28 -43 -43t-55 -15h-1q-23 0 -44.5 10t-38.5 30t-27.5 48.5t-10.5 66.5v79v91q0 6 4.5 10t9.5 4q13 0 13 -14v-91v-79q1 -34 9.5 -58.5t22 -40t30 -22.5t33.5 -7t34.5 7t31.5 22t23 37.5t9 54.5
v178q0 6 4.5 10t9.5 4zM152 387q13 2 15 -11q2 -14 -11 -16q-4 -1 -14 -1q-15 0 -31.5 5t-28.5 19q-3 5 -2.5 10.5t5.5 8.5q5 4 10 3t9 -5q4 -6 15.5 -10t22.5 -4q7 0 10 1z" />
    <glyph glyph-name="uacute" unicode="&#xfa;" 
d="M234 340q13 0 13 -14v-312q0 -14 -13 -14q-5 0 -9.5 4t-4.5 10v44q-17 -28 -43 -43t-55 -15h-1q-23 0 -44.5 10t-38.5 30t-27.5 48.5t-10.5 66.5v79v91q0 6 4.5 10t9.5 4q13 0 13 -14v-91v-79q1 -34 9.5 -58.5t22 -40t30 -22.5t33.5 -7t34.5 7t31.5 22t23 37.5t9 54.5
v178q0 6 4.5 10t9.5 4zM91 387q3 -1 10 -1q11 0 22.5 4t15.5 10q4 4 9 5t10 -3q5 -3 5.5 -8.5t-2.5 -10.5q-12 -14 -28.5 -19t-31.5 -5q-10 0 -14 1q-13 2 -11 16q2 13 15 11z" />
    <glyph glyph-name="ucircumflex" unicode="&#xfb;" 
d="M234 340q13 0 13 -14v-312q0 -14 -13 -14q-5 0 -9.5 4t-4.5 10v44q-17 -28 -43 -43t-55 -15h-1q-23 0 -44.5 10t-38.5 30t-27.5 48.5t-10.5 66.5v79v91q0 6 4.5 10t9.5 4q13 0 13 -14v-91v-79q1 -34 9.5 -58.5t22 -40t30 -22.5t33.5 -7t34.5 7t31.5 22t23 37.5t9 54.5
v178q0 6 4.5 10t9.5 4zM160 382q9 -11 -1 -19q-3 -4 -9 -4q-5 0 -10 5q-6 7 -10.5 12t-6.5 7q-1 0 -1 -1q-6 -5 -18 -18q-9 -9 -19 0q-4 4 -4 9.5t4 9.5q13 11 18.5 19t19.5 10q14 -2 19.5 -10t17.5 -20z" />
    <glyph glyph-name="udieresis" unicode="&#xfc;" 
d="M234 340q13 0 13 -14v-312q0 -14 -13 -14q-5 0 -9.5 4t-4.5 10v44q-17 -28 -43 -43t-55 -15h-1q-23 0 -44.5 10t-38.5 30t-27.5 48.5t-10.5 66.5v79v91q0 6 4.5 10t9.5 4q13 0 13 -14v-91v-79q1 -34 9.5 -58.5t22 -40t30 -22.5t33.5 -7t34.5 7t31.5 22t23 37.5t9 54.5
v178q0 6 4.5 10t9.5 4zM131 376q0 9 6 14t13.5 5t13.5 -5t6 -14t-6 -13.5t-13.5 -4.5t-13.5 4.5t-6 13.5zM77 376q0 9 6 14t13 5t13 -5t6 -14t-6 -13.5t-13 -4.5t-13 4.5t-6 13.5z" />
    <glyph glyph-name="yacute" unicode="&#xfd;" horiz-adv-x="296" 
d="M233 340q13 0 13 -14v-348q0 -26 -9.5 -45.5t-26.5 -32.5t-37.5 -18.5t-41.5 -5.5q-23 0 -46 6.5t-42 20t-31 33.5t-12 46q0 13 13 13q14 0 14 -13q0 -36 32 -58q14 -10 33 -15.5t39 -5.5q36 1 62 18.5t26 56.5v77q-17 -26 -42.5 -40.5t-53.5 -14.5h-1q-23 0 -45 10
t-39 30t-27 48.5t-10 66.5q0 22 -0.5 42t-0.5 37q0 36 0.5 60.5t0.5 30.5q0 14 13 14q14 0 14 -14q0 -7 -0.5 -31t-0.5 -60q0 -17 0.5 -37t0.5 -41q1 -35 9.5 -59t21.5 -39.5t30 -23t34 -7.5t33.5 7t30 22t22 37t10.5 52v181q0 14 14 14zM93 387q3 -1 10 -1q11 0 22.5 4
t15.5 10q4 4 9 5t10 -3q5 -3 5.5 -8.5t-2.5 -10.5q-12 -14 -28.5 -19t-31.5 -5q-10 0 -14 1q-13 2 -11 16q2 13 15 11z" />
    <glyph glyph-name="ydieresis" unicode="&#xff;" horiz-adv-x="296" 
d="M233 340q13 0 13 -14v-348q0 -26 -9.5 -45.5t-26.5 -32.5t-37.5 -18.5t-41.5 -5.5q-23 0 -46 6.5t-42 20t-31 33.5t-12 46q0 13 13 13q14 0 14 -13q0 -36 32 -58q14 -10 33 -15.5t39 -5.5q36 1 62 18.5t26 56.5v77q-17 -26 -42.5 -40.5t-53.5 -14.5h-1q-23 0 -45 10
t-39 30t-27 48.5t-10 66.5q0 22 -0.5 42t-0.5 37q0 36 0.5 60.5t0.5 30.5q0 14 13 14q14 0 14 -14q0 -7 -0.5 -31t-0.5 -60q0 -17 0.5 -37t0.5 -41q1 -35 9.5 -59t21.5 -39.5t30 -23t34 -7.5t33.5 7t30 22t22 37t10.5 52v181q0 14 14 14zM132 376q0 9 6 14t13.5 5t13.5 -5
t6 -14t-6 -13.5t-13.5 -4.5t-13.5 4.5t-6 13.5zM78 376q0 9 6 14t13 5t13 -5t6 -14t-6 -13.5t-13 -4.5t-13 4.5t-6 13.5z" />
    <glyph glyph-name="OE" unicode="&#x152;" horiz-adv-x="511" 
d="M454 -39q5 0 9.5 -4t4.5 -9q0 -14 -14 -14h-219q-6 0 -9 4q-4 3 -4 9v128q-4 -13 -7.5 -24.5t-7.5 -21.5q-17 -44 -40.5 -69.5t-52.5 -26.5q-27 1 -47.5 23.5t-34.5 64.5q-15 42 -23.5 105t-8.5 151q0 87 9.5 151t25.5 109q16 44 37.5 68.5t50.5 25.5q29 -1 50 -25.5
t38 -67.5q3 -9 5.5 -18t5.5 -19v116q0 6 4 9q3 4 9 4h219q14 0 14 -13q0 -14 -14 -14h-205v-470h139q13 0 13 -14q0 -13 -13 -13h-139v-145h205zM219 279q0 85 -9.5 146.5t-24.5 102.5q-14 42 -31.5 59.5t-30.5 16.5q-13 1 -30.5 -16.5t-32.5 -59.5q-14 -41 -23.5 -103.5
t-9.5 -147.5q0 -86 8 -147.5t22 -99.5q14 -40 29.5 -55.5t27.5 -14.5q14 -1 33 18t35 61q16 41 26.5 100.5t10.5 135.5v4z" />
    <glyph glyph-name="oe" unicode="&#x153;" horiz-adv-x="517" 
d="M453 119q13 0 13 -14q0 -23 -10 -42.5t-26.5 -33.5t-37 -21.5t-42.5 -7.5q-24 0 -47.5 10t-42.5 32q-14 19 -25 46q-15 -43 -45.5 -65t-65.5 -22q-24 0 -46.5 10.5t-39.5 30.5t-27.5 49.5t-10.5 67.5q0 44 10 77.5t26.5 57t39 35.5t46.5 12q34 -1 63.5 -24t46.5 -67
q16 45 48.5 67.5t69.5 22.5q22 0 43.5 -9t37.5 -25.5t26 -41.5t10 -56q2 -11 -7 -14q-19 -9 -47 -22.5t-57.5 -28t-55.5 -27t-40 -19.5q14 -39 39 -54.5t51 -15.5q35 0 62 22.5t28 55.5q0 14 13 14zM124 28q18 0 35 7.5t30.5 23.5t22 40.5t8.5 59.5q0 40 -9 69.5t-23 48.5
t-31.5 28t-34.5 9t-34 -9t-30.5 -27.5t-22 -48t-8.5 -70.5q0 -34 8.5 -59t22.5 -41t31 -23.5t35 -7.5zM247 179q1 -31 6 -55q15 7 38.5 18.5t50.5 24.5t53 26t45 22q-1 25 -9 43t-20.5 30t-28.5 18.5t-32 6.5q-18 0 -36 -7.5t-32.5 -23t-23.5 -39.5t-10 -57q-1 -2 -1 -7z
" />
    <glyph glyph-name="Ydieresis" unicode="&#x178;" horiz-adv-x="268" 
d="M232 630q14 0 14 -14q-2 -127 -11.5 -220.5t-25.5 -157.5q-14 -55 -30.5 -88t-41.5 -42v-33.5v-49t-0.5 -47.5t-0.5 -31q0 -13 -13 -13h-1q-13 0 -13 14q0 8 0.5 30t0.5 47.5v48.5v33q-26 8 -43 42t-32 91q-15 64 -24.5 157.5t-10.5 218.5q0 14 13 14q14 0 14 -14
q1 -124 10.5 -216t24.5 -154q14 -63 33 -90t28 -25q8 -2 27 24.5t33 89.5q15 61 24.5 153.5t11.5 218.5q0 13 13 13zM128 668q0 9 6 14t13.5 5t13.5 -5t6 -14t-6 -13.5t-13.5 -4.5t-13.5 4.5t-6 13.5zM74 668q0 9 6 14t13 5t13 -5t6 -14t-6 -13.5t-13 -4.5t-13 4.5t-6 13.5z
" />
    <glyph glyph-name="circumflex" unicode="&#x2c6;" horiz-adv-x="269" 
d="M173 382q9 -11 -1 -19q-3 -4 -9 -4q-5 0 -10 5q-6 7 -10.5 12t-6.5 7q-1 0 -1 -1q-6 -5 -18 -18q-9 -9 -19 0q-4 4 -4 9.5t4 9.5q13 11 18.5 19t19.5 10q14 -2 19.5 -10t17.5 -20z" />
    <glyph glyph-name="ring" unicode="&#x2da;" horiz-adv-x="267" 
d="M134 431q18 0 26.5 -11.5t8.5 -25t-8.5 -24.5t-26.5 -11q-17 0 -26 11t-9 24.5t9 25t26 11.5zM134 377q9 0 13.5 6t4.5 12.5t-4.5 12.5t-13.5 6t-13 -6t-4 -12.5t4 -12.5t13 -6z" />
    <glyph glyph-name="tilde" unicode="&#x2dc;" horiz-adv-x="264" 
d="M175 381q7 -12 -4 -19q-5 -3 -10.5 -2t-8.5 6q-1 1 -1 2l-1 1q-2 2 -11 -3.5t-25 -6.5q-16 2 -26 18q-5 12 5 19q12 5 19 -5q2 -4 2.5 -4.5t1.5 -0.5q2 -2 11.5 3.5t24.5 6.5q7 0 13 -4.5t10 -10.5z" />
    <glyph glyph-name="quoteright" unicode="&#x2019;" horiz-adv-x="135" 
d="M53 582q0 7 4.5 10t9.5 3t9.5 -3t4.5 -10q2 -34 -13 -67.5t-41 -54.5q-5 -4 -11 -3t-9.5 4.5t-4 9t4.5 9.5q23 18 35 45.5t11 56.5z" />
    <glyph glyph-name="bullet" unicode="&#x2022;" horiz-adv-x="199" 
d="M54 329q27 0 41 -17.5t14 -38.5t-14 -38.5t-41 -17.5t-40.5 17.5t-13.5 38.5t13.5 38.5t40.5 17.5z" />
    <glyph glyph-name="perthousand" unicode="&#x2030;" horiz-adv-x="429" 
d="M183 326q11 -5 8 -17q-1 -2 -9 -24.5t-20 -55.5t-26 -71t-25.5 -71t-20 -55.5t-8.5 -23.5q-4 -9 -13 -9q-3 0 -4 1q-5 2 -7.5 7t-0.5 10q0 1 8.5 23.5t20 55.5t25.5 71t25.5 71t19.5 55.5t9 24.5q5 12 18 8zM194 139q27 0 40.5 -17.5t13.5 -38.5t-13.5 -38.5t-40.5 -17.5
t-40.5 17.5t-13.5 38.5t13.5 38.5t40.5 17.5zM194 62q10 0 15 6.5t5 14.5t-5 14.5t-15 6.5q-11 0 -16 -6.5t-5 -14.5t5 -14.5t16 -6.5zM317 139q27 0 41 -17.5t14 -38.5t-14 -38.5t-41 -17.5t-40.5 17.5t-13.5 38.5t13.5 38.5t40.5 17.5zM317 62q10 0 15.5 6.5t5.5 14.5
t-5.5 14.5t-15.5 6.5t-15 -6.5t-5 -14.5t5 -14.5t15 -6.5zM54 300q27 0 40.5 -17.5t13.5 -38.5t-13.5 -38.5t-40.5 -17.5t-41 17.5t-14 38.5t14 38.5t41 17.5zM54 222q10 0 15 6.5t5 15t-5 15t-15 6.5q-11 0 -16 -6.5t-5 -15t5 -15t16 -6.5z" />
    <glyph glyph-name="guilsinglleft" unicode="&#x2039;" horiz-adv-x="133" 
d="M33 174q12 -11 22.5 -21.5t13.5 -12.5q11 -9 2 -19q-5 -5 -10 -5t-9 4q-5 4 -19.5 17.5t-28.5 26.5q-4 4 -4 9q0 7 4 10q11 11 24 23.5t23 23.5q9 9 19 1q4 -4 4.5 -9.5t-3.5 -9.5l-38 -38v0z" />
    <glyph glyph-name="guilsinglright" unicode="&#x203a;" horiz-adv-x="131" 
d="M43 174l-38 38q-4 4 -3.5 9.5t4.5 9.5q10 8 19 -1q10 -11 23 -23.5t24 -23.5q4 -3 4 -10q0 -5 -4 -9q-14 -13 -28.5 -26.5t-19.5 -17.5q-4 -4 -9 -4t-10 5q-9 10 2 19q3 2 13.5 12.5t22.5 21.5z" />
    <glyph glyph-name="Euro" unicode="&#x20ac;" horiz-adv-x="349" 
d="M279 199q13 0 13 -14q0 -36 -9.5 -69t-26 -58.5t-38.5 -41t-47 -16.5q-48 0 -79.5 60t-42.5 192q-8 0 -15 1.5t-7 12.5q0 13 14 13h-8h15q-1 16 -1.5 32t-0.5 33q0 4 0.5 8t0.5 8h-26.5t-14 1t-5.5 4t-1 8q0 6 1 8.5t5.5 4t14 1.5h26.5q3 81 14.5 139t29.5 95.5
t41.5 55.5t49.5 20q24 -1 44 -15t34.5 -38.5t23 -57.5t8.5 -72q0 -13 -13 -13q-14 0 -14 13q0 37 -8 66t-20 49t-26.5 30.5t-28.5 10.5q-15 0 -33 -14.5t-34 -47.5t-27.5 -87t-13.5 -134q29 0 45 0.5t24 -0.5t10 -4t2 -10q0 -6 -1.5 -9t-9.5 -4t-24.5 -0.5t-45.5 0.5
q0 -4 -0.5 -8t-0.5 -8q0 -17 0.5 -33.5t1.5 -31.5h44t24 -0.5t10 -3.5t2 -9q0 -7 -2 -10t-9.5 -4t-23.5 -0.5t-44 0.5q6 -67 16.5 -110.5t24 -69t27.5 -35.5t27 -10q16 0 33 12.5t30.5 34t22 50.5t8.5 61q0 14 14 14z" />
    <glyph glyph-name="trademark" unicode="&#x2122;" horiz-adv-x="436" 
d="M219 691q7 0 7 -7t-7 -7h-48v-325q0 -7 -7 -7q-6 0 -6 7v325h-48q-7 0 -7 7t7 7h54h1h54zM349 352q0 -7 -7 -7q-6 0 -6 7v269q-6 -26 -12.5 -57t-12.5 -58t-10 -46.5t-5 -23.5q-2 -5 -7 -5q-4 0 -6 5q-1 3 -5.5 23t-11 48t-13.5 59.5t-13 57.5v-272q0 -7 -7 -7q-6 0 -6 7
v332q0 5 6 7q5 0 7 -5q1 -3 6.5 -28.5t13.5 -59.5t16 -70t13 -60q5 24 12.5 58.5t15 68t13 59.5t6.5 32q2 5 7 5q6 -2 6 -7v-332z" />
    <glyph glyph-name="minus" unicode="&#x2212;" horiz-adv-x="243" 
d="M169 157q13 0 13 -14q0 -13 -13 -13h-156q-13 0 -13 13q0 14 13 14h156v0z" />
    </font>
</defs>
</svg>
