<?xml version="1.0" standalone="no"?>
<!DOCTYPE svg PUBLIC "-//W3C//DTD SVG 1.1//EN" "http://www.w3.org/Graphics/SVG/1.1/DTD/svg11.dtd" >
<svg xmlns="http://www.w3.org/2000/svg" xmlns:xlink="http://www.w3.org/1999/xlink" version="1.1">
<metadata>
Created by FontForge 20170731 at Thu Jun  9 18:47:31 2011
 By Aleksey,,,
2011 Iconian Fonts - www.iconian.com
</metadata>
<defs>
<font id="FederalServiceAcademyItalic" horiz-adv-x="703" >
  <font-face 
    font-family="Federal Service Academy Italic"
    font-weight="400"
    font-style="italic"
    font-stretch="normal"
    units-per-em="1000"
    panose-1="0 0 0 0 0 0 0 0 0 0"
    ascent="800"
    descent="-200"
    x-height="596"
    cap-height="596"
    bbox="-13 -150 1251 874"
    underline-thickness="50"
    underline-position="-175"
    slope="-12"
    unicode-range="U+0020-2122"
  />
<missing-glyph horiz-adv-x="10" 
 />
    <glyph glyph-name=".notdef" horiz-adv-x="10" 
 />
    <glyph glyph-name=".null" horiz-adv-x="0" 
 />
    <glyph glyph-name="nonmarkingreturn" horiz-adv-x="10" 
 />
    <glyph glyph-name="space" unicode=" " horiz-adv-x="350" 
 />
    <glyph glyph-name="space" unicode="&#xa0;" horiz-adv-x="350" 
 />
    <glyph glyph-name="FL0021h" unicode="!" horiz-adv-x="198" 
d="M270 551h-89l-77 -363h89zM83 95q-5 -23 5 -38.5t30 -15.5t36 15.5t21 38.5t-4.5 38.5t-29.5 15.5t-36.5 -15.5t-21.5 -38.5zM62 95q9 40 37 64h-21l89 421h129l-89 -421h-21q8 -12 11 -28.5t-2 -35.5q-8 -35 -31.5 -59t-51.5 -24q-29 0 -43.5 24t-6.5 59zM53 95
q-8 -40 7.5 -68t48.5 -28q16 0 31.5 7.5t28 20.5t22 30.5t13.5 37.5q6 28 0 51h10l95 447h-148l-95 -447h9q-16 -24 -22 -51z" />
    <glyph glyph-name="FL0022h" unicode="&#x22;" horiz-adv-x="402" 
d="M311 332q-5 -19 9 -32.5t39 -13.5q26 0 45.5 13t23.5 32l18 85q5 19 -9.5 32t-40.5 13q-25 0 -44 -13t-24 -32zM151 331q-4 -19 10 -32t40 -13t45.5 13t23.5 32l18 84q5 19 -9.5 32t-40.5 13t-45 -13t-24 -32zM143 415q7 29 35.5 49t64.5 20q27 0 46 -11.5t24 -30.5
q14 19 37 31t51 12q37 0 57.5 -20t13.5 -49l-18 -85q-6 -29 -34.5 -49t-65.5 -20q-27 0 -45.5 11.5t-23.5 30.5q-14 -19 -38 -31t-52 -12q-36 0 -56 20.5t-14 49.5zM113 331q-7 -33 15.5 -56.5t64.5 -23.5q26 0 48 9t39 24q10 -15 28 -24t43 -9q21 0 40.5 6.5t35 17t26 25
t13.5 31.5l18 85q7 33 -16 56.5t-65 23.5q-25 0 -47 -9t-39 -24q-11 14 -29 23t-43 9q-42 0 -74 -23.5t-40 -56.5z" />
    <glyph glyph-name="FL0023h" unicode="#" horiz-adv-x="697" 
d="M164 346h105l-23 -106h-105l-23 -107h105l-19 -91h125l19 91h103l-19 -91h125l19 92h104l23 106h-104l23 107h104l22 106h-104l22 101h-125l-22 -101h-103l22 101h-125l-22 -101h-105zM497 346l-23 -106h-103l23 106h103zM407 270h43l10 47h-43zM164 483h105l21 100h184
l-21 -100h43l21 100h185l-21 -100h104l-35 -165h-104l-11 -48h104l-35 -165h-104l-19 -92h-185l19 91h-43l-19 -91h-184l19 91h-105l35 166h105l10 47h-105zM113 304h105l-5 -21h-105l-41 -192h105l-19 -91h210l19 91h17l-19 -91h211l20 92h104l40 191h-104l5 22h104l40 191
h-104l22 100h-211l-22 -100h-17l22 100h-210l-22 -100h-105zM428 304h17l-5 -21h-17z" />
    <glyph glyph-name="FL0024h" unicode="$" 
d="M425 -67l23 111q113 5 181.5 75t94.5 190l12 58h-219l21 100h219l24 111h-219l23 109h-124l-23 -109q-117 -5 -186 -74t-95 -191l-12 -56h225l-22 -102h-225l-24 -111h225l-23 -111h124zM413 463l-20 -96h-97q20 46 49.5 68t67.5 28zM585 257q-18 -46 -46 -68.5
t-66 -29.5l21 98h91zM512 202q6 5 12.5 11t13.5 14h-21zM374 421q-8 -5 -15 -10t-13 -13h24zM264 -98l24 111h-224l36 172h224l9 42h-224l19 86q26 128 97 204t189 89l23 111h184l-23 -109h219l-36 -172h-219l-8 -38h219l-19 -89q-27 -128 -97 -203.5t-185 -89.5l-24 -114
h-184zM458 -111l25 115q115 17 185.5 96t98.5 209l21 102h-219l3 12h219l42 199h-219l23 109h-210l-24 -114q-118 -16 -189.5 -94.5t-98.5 -209.5l-22 -100h224l-3 -14h-224l-42 -199h224l-24 -111h210z" />
    <glyph glyph-name="FL0025h" unicode="%" horiz-adv-x="804" 
d="M274 42l555 512h-123l-559 -512h127zM459 383l18 85q10 43 -15.5 64t-108.5 21q-81 0 -117 -22.5t-45 -64.5l-18 -84q-4 -20 -0.5 -36t17.5 -27t39.5 -17t65.5 -6q83 0 119 21.5t45 65.5zM339 487q22 0 35 -3t19 -8t6.5 -11.5t-0.5 -14.5l-10 -46q-5 -23 -20.5 -32
t-59.5 -9q-39 0 -50.5 11t-8.5 28l11 48q4 17 21.5 27t56.5 10zM785 129l18 85q10 43 -15.5 64t-107.5 21q-41 0 -69.5 -6t-47.5 -17t-30 -27t-15 -37l-18 -84q-4 -20 -0.5 -36t17 -27t39 -17t65.5 -6q84 0 119.5 21.5t44.5 65.5zM666 233q22 0 34.5 -3t18.5 -8t6.5 -12
t-0.5 -14l-10 -46q-5 -23 -20 -32t-60 -9q-39 0 -50 11t-8 28l11 48q4 17 21.5 27t56.5 10zM332 458q-23 0 -31 -2t-9 -6l-11 -48q-1 -5 6 -7.5t28 -2.5q26 0 34 2.5t10 9.5l10 46q1 3 -5.5 5.5t-31.5 2.5zM659 204q-23 0 -31.5 -2t-9.5 -6l-11 -48q-1 -5 6 -7.5t28 -2.5
q26 0 34 2.5t10 9.5l10 46q1 3 -5 5.5t-31 2.5zM76 13l282 258q-16 -2 -33 -3t-36 -1q-49 0 -80 8t-47.5 22.5t-20.5 36t2 48.5l18 84q6 28 19.5 49.5t36.5 36.5t58 22.5t84 7.5q50 0 82 -7t48.5 -21t20 -35.5t-2.5 -50.5l-15 -74l206 189h202l-282 -260q15 2 31.5 3.5
t36.5 1.5q50 0 81.5 -7t48 -21t20 -35.5t-2.5 -50.5l-18 -85q-6 -29 -19 -51t-36.5 -36.5t-58.5 -21.5t-86 -7q-49 0 -80 8t-47.5 22.5t-20.5 36t2 48.5l16 72l-202 -187h-207zM286 0l178 165l-8 -37q-6 -30 -2.5 -54t21.5 -40.5t51 -25t86 -8.5q54 0 92.5 8t64 24t39.5 40
t21 57l18 85q7 32 3.5 56t-21.5 39.5t-52.5 23.5t-88.5 8h-19q-8 0 -16 -1l278 256h-235l-184 -168l8 40q7 32 3.5 56t-21.5 39.5t-52.5 23.5t-88.5 8q-53 0 -90.5 -8.5t-62.5 -25t-39.5 -40.5t-20.5 -55l-18 -84q-6 -30 -2.5 -54t21 -40.5t51 -25t86.5 -8.5h19t18 1
l-279 -255h242zM330 445q14 0 18.5 1t5.5 3l-9 -45q-1 1 -7 1h-20q-13 0 -17.5 -0.5t-6.5 -2.5l10 47q1 -4 26 -4zM657 191q14 0 18.5 1t5.5 3l-9 -45q-1 1 -7 1h-21q-13 0 -17.5 -1t-6.5 -2l10 47q1 -4 27 -4z" />
    <glyph glyph-name="FL0026h" unicode="&#x26;" horiz-adv-x="812" 
d="M775 42l23 107h-130q25 40 42 94h108l22 106h-178q13 99 -26.5 153t-128.5 54h-104q-99 0 -160.5 -68.5t-86.5 -187.5q-13 -60 -12.5 -108t16.5 -81.5t50 -51t88 -17.5h477zM538 352h-243q4 21 13.5 39t25.5 31.5t39.5 21.5t57.5 8q39 0 62 -7.5t34.5 -20.5t13 -31.5
t-2.5 -40.5zM585 243q-23 -95 -136 -95h-95q-103 0 -82 95h313zM425 423q-37 0 -58 -11.5t-32 -30.5h174q-3 19 -21.5 30.5t-62.5 11.5zM456 177q61 0 86 37h-243q6 -37 62 -37h95zM292 13q-63 0 -102 19.5t-58 56.5t-19.5 90.5t13.5 120.5q28 133 98.5 209t184.5 76h104
q96 0 141.5 -53.5t40.5 -153.5h181l-35 -164h-111q-8 -20 -15 -36h119l-35 -165h-507zM810 0l41 191h-116l4 10h114l40 190h-184q3 100 -45.5 153.5t-147.5 53.5h-104q-121 0 -195.5 -79.5t-103.5 -218.5q-15 -70 -14 -125.5t21 -94.5t61.5 -59.5t107.5 -20.5h521zM458 190
h-95q-28 0 -39 11h187q-21 -11 -53 -11zM422 410q26 0 41 -4t23 -12h-123q10 8 24 12t35 4z" />
    <glyph glyph-name="FL0027h" unicode="'" horiz-adv-x="198" 
d="M134 332q-5 -19 5.5 -32.5t30.5 -13.5t35.5 13t19.5 32l18 84q5 19 -5.5 32t-30.5 13t-35.5 -13t-20.5 -32zM130 415q7 29 30 49t52 20q28 0 43 -20t8 -49l-18 -84q-6 -29 -29 -49t-51 -20q-29 0 -44 20.5t-8 49.5zM104 332q-8 -33 8.5 -57t49.5 -24q16 0 31 6.5t27.5 17
t21.5 25t12 31.5l18 84q8 33 -9 56.5t-49 23.5q-33 0 -59 -23.5t-34 -56.5z" />
    <glyph glyph-name="FL0028h" unicode="(" horiz-adv-x="390" 
d="M339 -17l23 107h-52q-25 0 -40 15.5t-22 39t-7 51.5t5 54l23 109q5 22 15.5 50t27 52.5t39.5 41t53 16.5h52l23 105h-96q-44 0 -81.5 -26.5t-67.5 -70.5t-52.5 -101t-35.5 -118q-13 -62 -16.5 -120.5t7.5 -104t38.5 -73t76.5 -27.5h87zM246 -47q-56 0 -88.5 30
t-45.5 79.5t-10 113.5t17 132q14 67 39.5 129.5t60 110.5t77.5 77t93 29h122l-35 -165h-78q-22 0 -39.5 -13.5t-30 -33.5t-21 -42.5t-12.5 -40.5l-23 -109q-5 -21 -5 -44q0 -22 5 -41.5t16 -32t29 -12.5h79l-36 -167h-114zM368 -60l41 193h-90q-15 0 -24 11.5t-12.5 28.5
t-3 38t4.5 39l23 109q4 16 11 36.5t18 38.5t26 30t33 12h90l41 191h-134q-53 0 -98.5 -30t-81.5 -80t-62.5 -115t-41.5 -134q-15 -71 -18 -137t11 -117.5t48 -82.5t94 -31h125z" />
    <glyph glyph-name="FL0029h" unicode=")" horiz-adv-x="390" 
d="M31 -60l41 193h90q16 0 30 11.5t25 28.5t19 38t12 39l23 109q4 16 5.5 36.5t-2 38.5t-13.5 30t-28 12h-90l41 191h134q53 0 85.5 -30t47.5 -80t13.5 -115t-16.5 -134q-15 -71 -40 -137t-61 -117.5t-83 -82.5t-107 -31h-126zM160 -47q56 0 101 30t79 79.5t58 113.5t38 132
q14 67 15.5 129.5t-12 110.5t-44 77t-80.5 29h-122l-35 -165h78q22 0 33.5 -13.5t16 -33.5t3 -42.5t-5.5 -40.5l-23 -109q-5 -21 -14 -43.5t-22 -42t-29 -32t-35 -12.5h-78l-36 -167h114zM78 -17l23 107h52q25 0 47 15.5t39.5 39t29.5 51.5t17 54l23 109q5 22 6 50t-5 52.5
t-22 41t-46 16.5h-52l23 105h96q43 0 69 -26.5t37.5 -70.5t9.5 -101t-15 -118q-13 -62 -34.5 -120.5t-51.5 -104t-69.5 -73t-88.5 -27.5h-88z" />
    <glyph glyph-name="FL002Ah" unicode="*" horiz-adv-x="318" 
d="M357 495l75 -91l-47 -27l35 -26l-113 -112l-8 9h-139l-12 -9l-66 112l41 24l-30 25l120 95l1 3h3l3 3l3 -3h124l4 3l4 -3h3zM344 487h-121l-2 -6l-4 5l-106 -84l33 -27l-47 -27l56 -92l22 16l-3 -13h122l2 10l12 -14l95 94l-37 28l48 28l-66 81l-6 -5zM341 451l35 -42
l-55 -32l45 -34l-52 -51l-31 35l-10 -44h-70l10 45l-49 -36l-31 51l55 32l-37 29l59 47l25 -28l8 40h70l-8 -41z" />
    <glyph glyph-name="FL002Bh" unicode="+" horiz-adv-x="496" 
d="M317 466l-28 -132h-133l-21 -101h133l-29 -133h101l29 133h132l21 101h-132l28 132h-101zM452 494l-28 -132h132l-33 -157h-132l-29 -133h-157l29 133h-133l33 157h133l28 132h157zM286 506l-29 -132h-133l-38 -181h133l-28 -133h181l28 133h132l38 181h-132l29 132h-181
z" />
    <glyph glyph-name="FL002Ch" unicode="," horiz-adv-x="198" 
d="M62 -4q-4 -19 6.5 -32t30.5 -13t35.5 13t19.5 32l18 84q4 19 -6 32t-30 13t-36 -13t-20 -32zM59 80q6 29 29.5 49t52.5 20q28 0 42.5 -20t8.5 -49l-18 -84q-6 -29 -29.5 -49t-51.5 -20q-29 0 -43.5 20t-8.5 49zM32 -4q-7 -33 9.5 -56.5t49.5 -23.5q32 0 58.5 23t33.5 57
l18 84q7 33 -9.5 56.5t-48.5 23.5q-33 0 -59.5 -23.5t-33.5 -56.5z" />
    <glyph glyph-name="FL002Dh" unicode="-" horiz-adv-x="428" 
d="M117 158h300l14 69h-300zM108 246h354l-22 -107h-354zM72 131h378l26 124h-378z" />
    <glyph glyph-name="FL002Eh" unicode="." horiz-adv-x="198" 
d="M76 63q-3 -15 8 -25t31 -10t35 10t18 25q4 15 -7 25t-31 10t-35 -10t-19 -25zM55 63q5 23 27.5 39t51.5 16q28 0 43.5 -16t10.5 -39t-27 -39t-50 -16q-29 0 -45 16t-11 39zM46 63q-5 -26 12.5 -44.5t50.5 -18.5q32 0 57.5 18.5t30.5 44.5q6 26 -11.5 44.5t-49.5 18.5
q-33 0 -58.5 -18.5t-31.5 -44.5z" />
    <glyph glyph-name="FL002Fh" unicode="/" horiz-adv-x="387" 
d="M201 42l260 512h-112l-259 -512h111zM47 13l289 570h167l-288 -570h-168zM220 0l302 596h-192l-302 -596h192z" />
    <glyph glyph-name="FL0030h" unicode="0" horiz-adv-x="701" 
d="M467 42q109 0 168 68t85 190q26 120 -6 187t-129 67h-187q-98 0 -158 -67t-86 -187q-13 -61 -12.5 -109t17 -81t50.5 -50.5t89 -17.5h169zM605 350l-22 -106q-21 -98 -134 -98h-96q-106 0 -85 98l22 106q5 22 14.5 40.5t25 32t39 21.5t56.5 8h89q33 0 53 -8t30 -21.5
t11.5 -32t-3.5 -40.5zM372 295q-5 -23 9.5 -38.5t43.5 -15.5q28 0 50.5 15.5t27.5 38.5t-11 39t-44 16q-29 0 -50 -16t-26 -39zM342 295q8 35 40 59.5t73 24.5q20 0 36 -6.5t26.5 -18t14.5 -26.5t0 -33q-8 -35 -40 -59t-73 -24t-63 24t-14 59zM576 350q7 31 -6 52t-62 21
h-89q-50 0 -71.5 -20.5t-28.5 -52.5l-22 -106q-15 -69 62 -69h96q84 0 99 69zM292 13q-63 0 -102.5 19.5t-58.5 56.5t-19.5 90t13.5 121q28 133 97 208t182 75h187q112 0 149.5 -75t9.5 -208q-14 -68 -37.5 -121t-58.5 -90t-82.5 -56.5t-110.5 -19.5h-169zM458 0
q66 0 116.5 20.5t87.5 59t61.5 94t39.5 126.5q29 139 -11 217.5t-158 78.5h-187q-119 0 -192.5 -78.5t-102.5 -217.5q-15 -71 -14.5 -126.5t21 -94t62 -59t108.5 -20.5h169zM562 350l-22 -106q-12 -56 -82 -56h-96q-64 0 -52 56l22 106q6 26 24 43t60 17h89q41 0 52 -17.5
t5 -42.5zM329 295q-9 -40 15.5 -68t71.5 -28q23 0 44.5 7.5t38.5 20.5t29 30.5t17 37.5q8 41 -17 69t-71 28q-23 0 -44.5 -7.5t-38.5 -20.5t-29 -31t-16 -38z" />
    <glyph glyph-name="FL0031h" unicode="1" horiz-adv-x="263" 
d="M189 555l-22 -102h49l-87 -411h99l109 512zM366 583l-121 -570h-145l87 410h-49l34 161zM165 597l-40 -186h49l-87 -411h166l127 596z" />
    <glyph glyph-name="FL0032h" unicode="2" 
d="M304 202l-2 -10h440l-41 -192h-653l83 392h408q-22 13 -63 13h-342l41 191h373q142 0 194 -78.5t23 -217.5l-21 -98h-440zM734 215l18 85q28 133 -21.5 208t-185.5 75h-360l-35 -165h329q34 0 57.5 -8.5t33.5 -30.5h-428l-78 -366h627l35 166h-440l8 36h440zM690 149
l-23 -107h-568l65 308h440q1 56 -31.5 76.5t-87.5 20.5h-300l23 107h331q121 0 165 -67t18 -187l-12 -56h-440l-20 -95h440z" />
    <glyph glyph-name="FL0062h" unicode="3" horiz-adv-x="640" 
d="M47 0l40 188h313q35 0 55 14h-365l40 190h369q-6 8 -18.5 13t-33.5 5h-313l40 186h361q117 0 156 -78.5t10 -217.5q-15 -71 -39.5 -126.5t-60.5 -94t-85.5 -59t-115.5 -20.5h-353zM403 13q62 0 109 19.5t81.5 56.5t57.5 90t37 121q28 133 -8.5 208t-147.5 75h-348
l-34 -160h300q36 0 51.5 -12t17.5 -32h-378l-35 -164h377q-22 -40 -86 -40h-300l-34 -162h340zM98 42l22 104h271q112 0 133 98h-383l22 106h383q5 22 3.5 40.5t-11 32t-29.5 21.5t-53 8h-271l22 102h319q48 0 79.5 -17.5t47.5 -50t17.5 -79.5t-11.5 -107
q-13 -61 -33.5 -109t-50.5 -81t-71 -50.5t-95 -17.5h-311z" />
    <glyph glyph-name="FL0034h" unicode="4" horiz-adv-x="641" 
d="M605 42l109 512h-119l-44 -204h-264l44 204h-124l-66 -309h388l-43 -203h119zM451 13l43 203h-388l78 367h182l-43 -204h206l43 204h177l-121 -570h-177zM638 0l127 596h-203l-44 -204h-180l44 204h-208l-84 -393h388l-43 -203h203z" />
    <glyph glyph-name="FL0035h" unicode="5" 
d="M753 447l23 107h-568l-66 -308h440q-23 -56 -64 -76.5t-96 -20.5h-300l-23 -107h331q121 0 193 67t98 187l12 56h-440l20 95h440zM337 417l-8 -36h440l-18 -85q-29 -133 -110 -208t-217 -75h-360l35 165h329q34 0 61 8t46 31h-428l78 366h627l-35 -166h-440zM787 404
l41 192h-653l-84 -392h408q-14 -8 -31 -10.5t-37 -2.5h-342l-41 -191h373q142 0 228 78.5t115 217.5l21 98h-440l2 10h440z" />
    <glyph glyph-name="FL0036h" unicode="6" 
d="M453 447h300l23 107h-330q-119 0 -190 -62t-97 -169l-17 -77h2q-6 -48 -1 -86t23 -64.5t50.5 -40t81.5 -13.5h132q121 0 193 67t98 187l12 56h-440q23 55 64 75t96 20zM582 246q-23 -56 -64 -76.5t-96 -20.5h-85l-1 -2q-39 10 -58.5 31.5t-9.5 65.5l-1 2h315zM428 178
q34 0 61 8t46 31h-239q7 -28 43 -39h89zM447 418q-32 0 -59 -8t-46 -29h427l-18 -85q-29 -133 -110 -208t-217 -75h-132q-105 0 -147 53t-34 151h-4l23 106q29 120 108.5 190t213.5 70h360l-35 -165h-330zM444 405h343l41 191h-373q-139 0 -223.5 -73.5t-114.5 -199.5
l-26 -119h6q-2 -49 7 -87t32 -64t61 -39.5t92 -13.5h132q142 0 228 78.5t115 217.5l21 98h-404q13 6 29 8.5t34 2.5zM431 191h-86q-17 5 -25 13h179q-14 -8 -31 -10.5t-37 -2.5z" />
    <glyph glyph-name="FL0037h" unicode="7" horiz-adv-x="634" 
d="M685 452l22 102h-500l-22 -102h337l-424 -410h166zM272 13h-242l424 410h-304l34 160h558l-30 -142zM724 436l34 160h-584l-40 -186h290l-424 -410h275z" />
    <glyph glyph-name="FL0038h" unicode="8" horiz-adv-x="701" 
d="M467 42q109 0 168 68t85 190q26 120 -6 187t-129 67h-187q-98 0 -158 -67t-86 -187q-13 -61 -12.5 -109t17 -81t50.5 -50.5t89 -17.5h169zM605 350h-315q5 22 14.5 40.5t25 32t39 21.5t56.5 8h89q33 0 53 -8t30 -21.5t11.5 -32t-3.5 -40.5zM449 146h-96q-106 0 -85 97
h315q-23 -97 -134 -97zM455 175q62 0 85 39h-246q7 -39 65 -39h96zM419 423q-38 0 -58.5 -12t-30.5 -32h248q-2 20 -17.5 32t-52.5 12h-89zM292 13q-63 0 -102.5 19.5t-58.5 56.5t-19.5 90t13.5 121q28 133 97 208t182 75h187q112 0 149.5 -75t9.5 -208q-14 -68 -37.5 -121
t-58.5 -90t-82.5 -56.5t-110.5 -19.5h-169zM458 0q66 0 116.5 20.5t87.5 59t61.5 94t39.5 126.5q29 139 -11 217.5t-158 78.5h-187q-119 0 -192.5 -78.5t-102.5 -217.5q-15 -71 -14.5 -126.5t21 -94t62 -59t108.5 -20.5h169zM416 410h89q21 0 33.5 -5t19.5 -13h-203
q10 8 24.5 13t36.5 5zM458 188h-96q-31 0 -43 13h192q-20 -13 -53 -13z" />
    <glyph glyph-name="FL0039h" unicode="9" 
d="M422 149h-169l-23 -107h199q118 0 188.5 61.5t97.5 169.5l16 77h-1q12 97 -22 150.5t-131 53.5h-132q-121 0 -193 -67t-98 -187l-12 -56h440q-25 -56 -65.5 -75.5t-94.5 -19.5zM291 350q22 56 64 76.5t97 20.5h86v2q40 -10 59 -31t10 -66v-2h-316zM446 418
q-33 0 -60.5 -8.5t-46.5 -30.5h238q-2 14 -13.5 24t-28.5 15h-89zM428 178q32 0 58 7.5t46 29.5h-426l18 85q28 133 109.5 208t217.5 75h132q104 0 145 -53.5t35 -150.5h5l-23 -107q-31 -120 -110.5 -189.5t-211.5 -69.5h-229l35 165h199zM431 191h-212l-41 -191h242
q139 0 222.5 72.5t115.5 199.5l25 120h-7q3 49 -6.5 87t-32 64t-60 39.5t-91.5 13.5h-132q-143 0 -228.5 -78.5t-114.5 -217.5l-21 -98h403q-14 -7 -29.5 -9t-32.5 -2zM443 405h86q8 -2 14 -5t10 -8h-179q14 8 31.5 10.5t37.5 2.5z" />
    <glyph glyph-name="FL003Ah" unicode=":" horiz-adv-x="198" 
d="M82 88q-5 -21 5 -35.5t30 -14.5t36 14.5t21 35.5q4 20 -6 34.5t-30 14.5t-36 -14.5t-20 -34.5zM120 270q-4 -20 6 -34.5t30 -14.5t36 14.5t20 34.5q5 21 -5 35.5t-30 14.5t-36 -14.5t-21 -35.5zM99 270q7 32 31 54t53 22q28 0 42 -22t7 -54t-30.5 -54t-51.5 -22
q-29 0 -43.5 22t-7.5 54zM61 88q7 32 30.5 54t52.5 22q28 0 42.5 -22t7.5 -54t-30.5 -54t-51.5 -22q-29 0 -43.5 22t-7.5 54zM52 88q-8 -37 8 -62.5t49 -25.5q32 0 59 25.5t35 62.5t-8.5 62.5t-48.5 25.5q-33 0 -59.5 -25.5t-34.5 -62.5zM90 270q-8 -37 8.5 -62.5
t49.5 -25.5q16 0 31 7t27.5 19t21.5 28t13 34q8 37 -8 62.5t-48 25.5q-33 0 -60 -25.5t-35 -62.5z" />
    <glyph glyph-name="FL003Bh" unicode=";" horiz-adv-x="198" 
d="M124 285q-5 -22 5 -37t30 -15t36 15t21 37t-5 37.5t-30 15.5t-36 -15.5t-21 -37.5zM62 -4q-5 -22 5 -37.5t30 -15.5t36 15t21 37l21 98q5 22 -5 37t-30 15t-36 -15t-21 -37zM103 285q7 34 31 57.5t53 23.5q28 0 42 -23.5t7 -57.5q-8 -34 -31.5 -57t-51.5 -23
q-29 0 -43.5 23t-6.5 57zM62 93q7 34 31 57t53 23q28 0 42 -23t7 -57l-21 -98q-8 -34 -31.5 -57t-51.5 -23q-29 0 -43 23.5t-7 57.5zM32 -4q-8 -39 7.5 -66.5t48.5 -27.5q16 0 31.5 7.5t28 20t22 29.5t13.5 36l21 98q8 38 -7.5 65.5t-47.5 27.5q-17 0 -32.5 -7.5t-28 -20
t-22 -29.5t-13.5 -36zM94 285q-8 -38 7.5 -65.5t48.5 -27.5q16 0 31.5 7.5t28 20t22 29.5t13.5 36q8 39 -8 66t-48 27q-33 0 -60 -27t-35 -66z" />
    <glyph glyph-name="FL003Ch" unicode="&#x3c;" horiz-adv-x="418" 
d="M145 297l119 -255h119l-119 255l228 259h-120zM364 585h186l-254 -288l134 -284h-185l-133 285zM97 297l139 -297h214l-138 296l265 302h-216z" />
    <glyph glyph-name="FL003Dh" unicode="=" horiz-adv-x="428" 
d="M151 321h300l21 98h-300zM110 125h300l20 98h-300zM109 250h354l-32 -152h-354zM151 446h354l-33 -152h-354zM104 283h378l37 175h-378zM62 86h378l38 176h-378z" />
    <glyph glyph-name="FL003Eh" unicode="&#x3e;" horiz-adv-x="418" 
d="M484 297l-265 -297h-214l264 296l-137 302h216zM339 585h-186l131 -288l-253 -284h185l253 285zM436 297l-227 -255h-119l227 255l-118 259h120z" />
    <glyph glyph-name="FL003Fh" unicode="?" horiz-adv-x="705" 
d="M271 242h440l12 56q26 120 -18 187t-165 67h-331l-22 -106h300q55 0 87.5 -21t31.5 -77h-440l-34 -160h129zM110 95q-5 -23 10.5 -38.5t44.5 -15.5q28 0 50 15.5t27 38.5t-10.5 38.5t-43.5 15.5q-29 0 -51 -15.5t-27 -38.5zM81 95q10 40 46 64h-30l46 218h428
q-11 22 -34 30.5t-57 8.5h-329l35 165h360q136 0 185.5 -75t21.5 -208l-18 -85h-440l-10 -54h-33q12 -12 18 -28.5t1 -35.5q-8 -35 -39.5 -59t-72.5 -24t-63.5 24t-14.5 59zM68 95q-8 -40 16.5 -68t71.5 -28q23 0 44 7.5t38.5 20.5t29.5 30.5t16 37.5q6 27 -5 51h16l12 54
h439l20 98q30 139 -22.5 217.5t-194.5 78.5h-373l-40 -190h342q40 0 63 -14h-408l-52 -244h13q-20 -23 -26 -51z" />
    <glyph glyph-name="FL0EEEh" unicode="@" horiz-adv-x="873" 
d="M528 354q-17 0 -23 -3.5t-8 -11.5l-15 -69q-2 -14 0.5 -20.5t20.5 -6.5q25 0 32.5 9t12.5 33l4 30q4 17 2 28t-26 11zM925 302q-20 -44 -39.5 -77.5t-45.5 -57t-62 -37.5t-87 -19l-37 -171h-373q-69 0 -109 31t-58 82.5t-16.5 117.5t16.5 136q15 69 43.5 134t68.5 115
t91 80t111 30h347q52 0 90 -21t59.5 -58.5t26 -89.5t-8.5 -115zM913 306l16 76q13 60 8.5 109.5t-25 85.5t-56 56t-84.5 20h-347q-57 0 -105.5 -29t-86.5 -77t-65 -110.5t-41 -129.5q-14 -68 -15.5 -131.5t15 -113t54.5 -79.5t103 -30h359l36 168h-39l4 1q63 1 105 12.5
t71.5 34t50.5 56.5t42 81zM531 367q17 0 25 -4t11 -11t1.5 -16.5t-3.5 -19.5l-3 -30q-3 -16 -6.5 -27t-10 -17.5t-17 -9t-28.5 -2.5q-28 0 -32 10t0 30l15 69q3 14 12.5 21t35.5 7zM723 330q13 60 8 99.5t-43 59.5q29 -1 42.5 -14.5t18 -33t1.5 -41.5t-7 -41l-12 -58
q-5 -10 -7.5 -13t-10.5 -4l3 1h-2zM338 120q-22 1 -31.5 13.5t-11 32t2 42t7.5 42.5l2 9q-8 -48 -3.5 -83.5t34.5 -55.5zM329 364q5 23 11 43.5t16 36.5t24 27t35 15q-36 -17 -55.5 -48.5t-30.5 -73.5zM693 330l-16 -81l36 6q12 3 18.5 5t11 5.5t8.5 10.5t10 19l13 64
q5 23 8 51t-3.5 52t-26 40.5t-59.5 16.5h-246q-40 0 -66 -13t-42 -34.5t-25.5 -50.5t-16.5 -62l-23 -109q-5 -26 -9.5 -54t-0.5 -51.5t20 -39t52 -15.5h8q7 0 9 1h289l-23 -108h-329q-56 0 -88.5 27.5t-46.5 72.5t-12 103.5t15 120.5q13 61 37 118t57 101t74.5 70.5
t91.5 26.5h347q42 0 72.5 -18t47.5 -50t20.5 -76t-7.5 -97l-16 -74q-17 -39 -35 -68t-43.5 -48t-62.5 -29t-92 -11l-60 -12q-45 -17 -118 -17q-54 0 -83.5 10.5t-42 30.5t-12 48.5t6.5 64.5l11 54q8 36 19.5 64t33 47.5t56.5 29.5t90 10t87.5 -9.5t47.5 -28t15.5 -47
t-7.5 -67.5zM537 397q-44 0 -61 -14.5t-23 -43.5l-15 -69q-3 -17 -4 -30t4 -22t18 -13.5t38 -4.5q30 0 47 4.5t26.5 14.5t14.5 27t10 43l4 30q3 16 5 30t-3 24.5t-19 17t-42 6.5z" />
    <glyph glyph-name="FL0041h" unicode="A" horiz-adv-x="678" 
d="M522 42h120l64 302q8 38 2 75.5t-25 67.5t-49.5 48.5t-70.5 18.5h-355l-109 -512h124l19 90h299zM487 452q30 0 49 -9.5t30 -24.5t15.5 -33t4.5 -35l-24 -117h-297l46 219h176zM334 423l-34 -161h239l18 84q-1 13 -5 26.5t-12.5 24.5t-22.5 18.5t-36 7.5h-147zM506 103
h-241l-19 -90h-182l121 570h384q46 0 81.5 -21t57.5 -55t29.5 -77t-1.5 -86l-70 -331h-179zM471 0h205l73 344q10 45 2 90t-31.5 81t-61 58.5t-86.5 22.5h-397l-127 -596h208l19 90h215zM478 410q18 0 30 -6t19.5 -16t11 -21.5t4.5 -23.5l-15 -68h-213l29 135h134z" />
    <glyph glyph-name="FL0042h" unicode="B" 
d="M343 405l-3 -13h199q-22 13 -63 13h-133zM428 180q58 0 86 25h-213l-6 -25h133zM765 300q-18 -84 -50.5 -141t-76.5 -92.5t-98 -51t-114 -15.5h-378l127 596h373q142 0 194 -78.5t23 -217.5zM752 300q28 133 -21.5 208t-185.5 75h-360l-121 -570h365q57 0 108.5 15
t93.5 48.5t73 88.5t48 135zM425 167h-147l11 51h251q-17 -29 -44 -40t-71 -11zM479 418q34 0 57.5 -8.5t33.5 -30.5h-246l8 39h147zM722 300q-15 -72 -43 -121.5t-65 -79.5t-82.5 -43.5t-96.5 -13.5h-336l109 512h331q121 0 165 -67t18 -187zM267 247l-24 -109h176
q34 0 60.5 5.5t46 18t33.5 33.5t25 52h-317zM604 350q1 56 -31.5 76.5t-87.5 20.5h-176l-21 -97h316z" />
    <glyph glyph-name="FL0043h" unicode="C" horiz-adv-x="640" 
d="M604 42l22 104h-271q-111 0 -90 98l22 106q5 22 14 40.5t25 32t39 21.5t55 8h271l22 102h-319q-97 0 -156 -67t-85 -187q-13 -61 -13 -109t16.5 -81t50 -50.5t87.5 -17.5h310zM288 13q-62 0 -101 19.5t-57.5 56.5t-19 90t13.5 121q28 133 97 208t179 75h348l-34 -160
h-300q-48 0 -69.5 -20.5t-28.5 -52.5l-22 -106q-15 -69 67 -69h300l-34 -162h-339zM637 0l40 188h-313q-69 0 -57 56l22 106q6 26 23.5 43t58.5 17h313l40 186h-361q-117 0 -190 -78.5t-102 -217.5q-15 -71 -14.5 -126.5t20.5 -94t61 -59t107 -20.5h352z" />
    <glyph glyph-name="FL0044h" unicode="D" 
d="M722 300q26 120 -18 187t-165 67h-331l-109 -512h336q51 0 96.5 13.5t82.5 43.5t65 79.5t43 121.5zM599 300q-10 -48 -24.5 -79.5t-35.5 -49.5t-50.5 -25.5t-69.5 -7.5h-176l66 309h176q33 0 58 -6.5t41 -23t20 -45t-5 -72.5zM569 300q7 35 4 58t-15 36.5t-32.5 18.5
t-46.5 5h-147l-54 -251h147q32 0 55.5 6t40 21t28 41t20.5 65zM752 300q-17 -80 -48 -135t-73 -88.5t-93.5 -48.5t-108.5 -15h-365l121 570h360q136 0 185.5 -75t21.5 -208zM765 300q29 139 -23 217.5t-194 78.5h-373l-127 -596h378q60 0 114 15.5t98 51t76.5 92.5t50.5 141
zM556 300q-8 -36 -18 -59t-25 -36.5t-36 -19t-49 -5.5h-133l48 225h133q23 0 41 -4.5t29 -16.5t14 -32.5t-4 -51.5z" />
    <glyph glyph-name="FL0045h" unicode="E" horiz-adv-x="640" 
d="M637 0h-352q-66 0 -107 20.5t-61 59t-20.5 94t14.5 126.5q29 139 102 217.5t190 78.5h361l-40 -186h-313q-21 0 -35 -5t-25 -13h369l-40 -188h-367q15 -16 51 -16h313zM661 175h-300q-63 0 -69 42h378l35 162h-379q11 20 31 32t57 12h300l34 160h-348q-110 0 -179 -75
t-97 -208q-14 -68 -13.5 -121t19 -90t57.5 -56.5t101 -19.5h339zM604 42h-310q-54 0 -87.5 17.5t-50 50.5t-16.5 81t13 109q26 120 85 187t156 67h319l-22 -102h-271q-32 0 -55 -8t-39 -21.5t-25 -32t-14 -40.5h382l-22 -104h-382q-22 -100 90 -100h271z" />
    <glyph glyph-name="FL0046h" unicode="F" horiz-adv-x="640" 
d="M299 205l-44 -205h-208l64 300q29 139 102 217.5t190 78.5h361l-40 -186h-313q-21 0 -35 -5t-25 -13h369l-39 -187h-382zM670 218l35 161h-379q11 20 31 32t57 12h300l34 160h-348q-110 0 -179 -75t-97 -208l-61 -287h182l43 205h382zM222 42h-124l55 258q26 120 85 187
t156 67h319l-22 -102h-271q-32 0 -55 -8t-39 -21.5t-25 -32t-14 -40.5h382l-21 -103h-382z" />
    <glyph glyph-name="FL0047h" unicode="G" 
d="M321 300q-8 -36 -7.5 -59t9.5 -36.5t27 -19t46 -5.5h134l5 21h-109l40 191h318l-83 -392h-378q-60 0 -107.5 15.5t-76.5 51t-37 92.5t10 141q29 139 114.5 217.5t228.5 78.5h372l-41 -191h-342q-46 0 -77.5 -21t-45.5 -84zM307 300q7 35 20.5 58t31.5 36.5t40 18.5t48 5
h329l35 165h-359q-136 0 -217.5 -75t-109.5 -208q-17 -80 -9.5 -135t35.5 -88.5t73 -48.5t102 -15h365l78 366h-292l-36 -165h109l-10 -47h-147q-32 0 -53 6t-31 21t-10.5 41t8.5 65zM478 243l22 107h232l-65 -308h-335q-51 0 -91 13.5t-64.5 43.5t-31 79.5t8.5 121.5
q26 120 98.5 187t193.5 67h329l-23 -107h-299q-33 0 -60.5 -6.5t-50 -23t-39 -45t-25.5 -72.5q-10 -48 -9.5 -79.5t13.5 -49.5t38.5 -25.5t66.5 -7.5h177l23 105h-109z" />
    <glyph glyph-name="FL0048h" unicode="H" horiz-adv-x="698" 
d="M662 42l109 512h-121l-44 -204h-317l44 204h-125l-109 -512h125l43 202h317l-43 -202h121zM506 13l43 202h-258l-43 -202h-184l121 570h184l-43 -204h258l43 204h180l-121 -570h-180zM696 0l127 596h-206l-44 -204h-232l44 204h-210l-127 -596h210l43 202h232l-43 -202
h206z" />
    <glyph glyph-name="FL0049h" unicode="I" horiz-adv-x="634" 
d="M620 144h-193l65 308h193l22 102h-500l-22 -102h188l-65 -308h-188l-22 -102h500zM621 13h-558l34 160h187l53 250h-187l34 160h558l-34 -160h-192l-53 -250h192zM671 186h-193l47 224h193l40 186h-584l-40 -186h188l-47 -224h-188l-40 -186h584z" />
    <glyph glyph-name="FL004Ah" unicode="J" horiz-adv-x="640" 
d="M47 0l40 188h313q70 0 82 56l75 353h207l-63 -297q-15 -71 -39.5 -126.5t-60.5 -94t-85.5 -59t-115.5 -20.5h-353zM403 13q62 0 109 19.5t81.5 56.5t57.5 90t37 121l60 284h-182l-72 -340q-15 -69 -97 -69h-300l-34 -162h340zM98 42l22 104h271q112 0 133 98l66 311h123
l-54 -255q-13 -61 -33.5 -109t-50.5 -81t-71 -50.5t-95 -17.5h-311z" />
    <glyph glyph-name="FL004Bh" unicode="K" horiz-adv-x="678" 
d="M333 554h-125l-109 -512h125l43 202l239 -202h156l-278 260l388 253h-157l-326 -205zM332 407l279 177h255l-434 -283l310 -288h-252l-205 173l-37 -173h-184l121 570h184zM385 596h-210l-127 -596h210l34 161l190 -161h295l-324 301l454 296h-296l-261 -165z" />
    <glyph glyph-name="FL004Ch" unicode="L" horiz-adv-x="640" 
d="M604 42l22 104h-271q-111 0 -90 98l66 311h-124l-54 -255q-13 -61 -13 -109t16.5 -81t50 -50.5t87.5 -17.5h310zM288 13q-62 0 -101 19.5t-57.5 56.5t-19 90t13.5 121l60 284h182l-72 -340q-15 -69 67 -69h300l-34 -162h-339zM637 0l40 188h-313q-69 0 -57 56l75 353
h-208l-63 -297q-15 -71 -14.5 -126.5t20.5 -94t61 -59t107 -20.5h352z" />
    <glyph glyph-name="FL004Dh" unicode="M" horiz-adv-x="909" 
d="M421 43h131l87 410h33q47 0 76.5 -7.5t45 -20.5t19.5 -31t-1 -40l-66 -312h124l72 338q9 41 2 73.5t-35 55t-80.5 34t-134.5 11.5h-197q-82 0 -139.5 -11.5t-95.5 -34t-58.5 -55t-29.5 -73.5l-72 -338h125l66 312q5 22 16.5 40t32.5 31t53.5 20.5t79.5 7.5h33zM471 423
h-2q-38 0 -64.5 -5t-43 -14t-25.5 -22t-12 -28l-72 -341h-186l78 367q10 48 33 85.5t65 64t106 40t155 13.5h197q91 0 148.5 -13.5t88.5 -40t38.5 -64t-2.5 -85.5l-78 -367h-186l72 341q3 15 0 28t-16 22t-37 14t-62 5h-3l-87 -409h-192zM368 1h219l87 410q61 -2 80 -17.5
t14 -39.5l-75 -354h212l81 380q11 51 3.5 91t-39.5 68t-92 42.5t-155 14.5h-197q-95 0 -161.5 -14.5t-110.5 -42.5t-68.5 -68t-35.5 -91l-81 -380h213l75 354q5 24 30.5 39.5t87.5 17.5z" />
    <glyph glyph-name="FL004Eh" unicode="N" horiz-adv-x="698" 
d="M662 42l64 302q8 38 3 74t-26 69q-19 34 -50 50.5t-71 16.5h-374l-109 -512h125l87 410h195q38 0 59.5 -10.5t31.5 -28t9.5 -40t-5.5 -47.5l-60 -284h121zM506 13l66 313q4 19 4 36q0 18 -7 31.5t-23.5 21.5t-45.5 8h-165l-87 -410h-184l121 570h403q47 0 83 -19.5
t59 -59.5v2q23 -37 29 -77.5t-3 -84.5l-70 -331h-180zM696 0l73 344q10 46 3.5 88.5t-32.5 81.5l2 -1q-23 42 -61.5 62.5t-89.5 20.5h-416l-127 -596h210l87 410h152q25 0 39 -7t20.5 -18.5t6.5 -27.5q0 -15 -4 -31l-69 -326h206z" />
    <glyph glyph-name="FL004Fh" unicode="O" horiz-adv-x="701" 
d="M467 42q109 0 168 68t85 190q26 120 -6 187t-129 67h-187q-98 0 -158 -67t-86 -187q-13 -61 -12.5 -109t17 -81t50.5 -50.5t89 -17.5h169zM605 350l-22 -106q-21 -98 -134 -98h-96q-106 0 -85 98l22 106q5 22 14.5 40.5t25 32t39 21.5t56.5 8h89q33 0 53 -8t30 -21.5
t11.5 -32t-3.5 -40.5zM576 350q7 31 -6 52t-62 21h-89q-50 0 -71.5 -20.5t-28.5 -52.5l-22 -106q-15 -69 62 -69h96q84 0 99 69zM292 13q-63 0 -102.5 19.5t-58.5 56.5t-19.5 90t13.5 121q28 133 97 208t182 75h187q112 0 149.5 -75t9.5 -208q-14 -68 -37.5 -121t-58.5 -90
t-82.5 -56.5t-110.5 -19.5h-169zM458 0q66 0 116.5 20.5t87.5 59t61.5 94t39.5 126.5q29 139 -11 217.5t-158 78.5h-187q-119 0 -192.5 -78.5t-102.5 -217.5q-15 -71 -14.5 -126.5t21 -94t62 -59t108.5 -20.5h169zM562 350l-22 -106q-12 -56 -82 -56h-96q-64 0 -52 56
l22 106q6 26 24 43t60 17h89q41 0 52 -17.5t5 -42.5z" />
    <glyph glyph-name="FL0DB9h" unicode="P" horiz-adv-x="679" 
d="M224 42l19 90h231q39 0 77.5 16.5t71.5 50.5q35 33 55.5 69t28.5 75h-2l1 1q8 38 3.5 73t-25.5 68q-19 35 -50.5 52t-70.5 17h-355l-109 -512h125zM442 234h-177l46 218h176q33 0 53.5 -9.5t31 -25t13.5 -35t0 -40.5q-9 -27 -20.5 -47.5t-28 -34t-39.5 -20t-55 -6.5z
M448 264q47 0 70.5 19t35.5 58q2 15 0 29.5t-10 26.5t-23.5 19t-39.5 7h-147l-34 -159h148zM64 13l121 570h384q46 0 82.5 -20t59.5 -61l-1 2q20 -29 26 -62t3 -70h4q-2 -8 -3.5 -15t-3.5 -15l-3 -11h-1q-28 -92 -91 -151l2 2q-40 -40 -84 -59.5t-91 -19.5h-202l-19 -90
h-183zM257 0l19 90h189q50 0 97 20.5t89 62.5l-1 -1q59 58 90 150l5 3q2 5 2.5 10.5t1.5 10.5q2 10 5 19.5t5 19.5h-6q2 35 -5.5 67t-25.5 61l1 -2q-23 43 -62.5 64t-88.5 21h-397l-127 -596h209zM451 277h-135l28 133h134q21 0 34 -6t20 -15.5t9 -21.5t1 -24
q-11 -34 -31 -50t-60 -16z" />
    <glyph glyph-name="FL0051h" unicode="Q" horiz-adv-x="701" 
d="M467 43h18l36 -67l103 43l-31 57q50 32 80.5 89.5t47.5 139.5q26 121 -5.5 189.5t-128.5 68.5h-187q-98 0 -158.5 -68.5t-86.5 -189.5q-13 -62 -13 -111q0 -48 16.5 -81.5t50.5 -51.5t89 -18h169zM376 255l54 -107h-77q-105 0 -84 100l22 107q5 22 14.5 41.5t25.5 33
t39.5 21.5t56.5 8h89q33 0 53 -8t30 -21.5t11 -33t-4 -41.5l-22 -107q-11 -49 -42 -73l-67 127zM492 340l58 -110q2 5 2.5 9t2.5 9l22 107q8 32 -5.5 53t-62.5 21h-89q-50 0 -71 -21t-29 -53l-22 -107q-15 -70 62 -70h19l-45 87zM292 13q-63 0 -102.5 20t-58.5 57.5
t-19.5 91.5t14.5 123q14 67 38.5 120.5t59.5 90.5t80.5 57t101.5 20h187q56 0 93 -20t56 -57t21 -90.5t-12 -120.5q-17 -78 -45.5 -136.5t-74.5 -96.5l36 -64l-163 -69l-39 74h-173zM496 -78l190 81l-37 68q43 40 70.5 98.5t44.5 135.5q30 141 -10 221t-158 80h-187
q-119 0 -192.5 -80t-103.5 -221q-15 -72 -14.5 -128.5t20.5 -96t61.5 -60t108.5 -20.5h166zM315 270l18 85q6 26 24 43.5t60 17.5h89q41 0 52 -17.5t5 -43.5l-18 -87l-46 89zM315 270l41 -79q-57 3 -45 57z" />
    <glyph glyph-name="FL0054h" unicode="R" horiz-adv-x="679" 
d="M224 42l19 90h181l49 -90h135l-59 106q20 8 38 20.5t36 29.5q36 34 56 70t28 75h-2l1 1q17 79 -22 143q-20 34 -51 50.5t-70 16.5h-355l-109 -512h125zM442 234h-177l46 218h176q33 0 53 -9.5t30 -25.5t11.5 -36t-1.5 -41q-8 -27 -18.5 -47t-26.5 -33t-38.5 -19.5
t-54.5 -6.5zM448 264q47 0 68 18.5t34 57.5q2 15 0.5 30t-9 27t-22 19t-38.5 7h-147l-34 -159h148zM64 13l121 570h384q47 0 82.5 -19.5t58.5 -59.5v2q35 -57 29 -134h4q-2 -8 -3.5 -15t-3.5 -15l-3 -11h-1q-13 -45 -35 -83t-55 -69q-12 -11 -25 -21.5t-25 -18.5l69 -126
h-209l-48 90h-138l-19 -90h-183zM257 0l19 90h118l49 -90h241l-75 137q21 15 40 34q32 30 54.5 68t38.5 84l3 2q2 5 2.5 10.5t1.5 10.5q2 10 5 19.5t5 19.5h-6q1 36 -7 68.5t-25 60.5l1 -1q-23 42 -61.5 62.5t-88.5 20.5h-397l-127 -596h209zM451 277h-135l28 133h134
q20 0 32.5 -6t18.5 -16t7.5 -22t0.5 -25q-11 -33 -29 -48.5t-57 -15.5z" />
    <glyph glyph-name="FL0073h" unicode="S" 
d="M444 405q-18 0 -34 -2.5t-29 -8.5h404l-21 -98q-29 -139 -115 -217.5t-228 -78.5h-373l41 191h342q20 0 38 3.5t33 12.5h-410l20 93q29 139 114.5 217.5t228.5 78.5h373l-41 -191h-343zM777 418l35 165h-360q-136 0 -217.5 -75t-109.5 -208l-17 -80h428
q-20 -23 -47 -32.5t-61 -9.5h-329l-35 -165h360q136 0 217 75t110 208l18 85h-427q19 21 46 29t59 8h330zM453 447q-55 0 -96 -20t-64 -75h440l-12 -56q-26 -120 -98 -187t-193 -67h-331l23 107h300q55 0 96.5 21.5t64.5 78.5h-440l11 51q26 120 98.5 187t193.5 67h330
l-23 -107h-300z" />
    <glyph glyph-name="T" unicode="T" horiz-adv-x="634" 
d="M685 452l22 102h-500l-22 -102h188l-87 -410h119l87 410h193zM516 423l-87 -410h-179l87 410h-187l34 160h558l-34 -160h-192zM718 410l40 186h-584l-40 -186h188l-87 -410h203l87 410h193z" />
    <glyph glyph-name="FL0055h" unicode="U" horiz-adv-x="698" 
d="M175 596h206l-70 -326q-3 -17 -3 -32t6.5 -26.5t20.5 -18.5t39 -7h152l87 410h210l-127 -596h-416q-51 0 -89.5 20.5t-62.5 62.5l1 -1q-25 39 -31 81.5t4 88.5zM115 252q-20 -89 26 -162v2q22 -40 58 -59.5t84 -19.5h403l121 570h-184l-87 -410h-165q-29 0 -45.5 8
t-24 21.5t-7.5 30.5q0 18 4 37l67 313h-180zM208 554h121l-61 -284q-5 -25 -5 -48q0 -22 10 -39.5t32 -28t60 -10.5h194l87 410h125l-109 -512h-373q-40 0 -71 16.5t-51 50.5q-40 65 -23 143z" />
    <glyph glyph-name="FL0056h" unicode="V" horiz-adv-x="711" 
d="M209 556l93 -514h181l301 514h-131l-238 -410l-75 410h-131zM366 585l66 -356l206 356h195l-335 -572h-222l-105 572h195zM155 598l108 -598h240l351 598h-222l-194 -333l-59 333h-224z" />
    <glyph glyph-name="FL0057h" unicode="W" horiz-adv-x="906" 
d="M175 596h212l-70 -326q-3 -16 -3.5 -31t7 -27t26 -19t52.5 -7h16q-1 32 6 66l73 344h213l-70 -326q-3 -17 -5 -32t1.5 -26.5t15 -18.5t34.5 -7h42l87 410h218l-127 -596h-616q-52 0 -92 20.5t-65 62.5l1 -1q-26 39 -32.5 81.5t3.5 88.5zM115 252q-20 -89 28 -162v2
q23 -40 60.5 -59.5t86.5 -19.5h602l121 570h-190l-87 -410h-56q-28 0 -41.5 8t-18.5 21.5t-3 31t6 36.5l67 313h-186l-70 -331q-5 -20 -6 -40t2 -39h-34q-39 0 -59.5 8.5t-29 22t-8 31t4.5 35.5l67 313h-186zM210 554h124l-61 -284q-5 -24 -5.5 -46.5t10 -40t37 -28.5
t75.5 -11h82q-19 52 -7 108l64 302h125l-61 -284q-5 -25 -8 -47.5t4 -40t26.5 -28t58.5 -10.5h86l87 410h130l-109 -512h-572q-42 0 -74 16.5t-52 50.5q-41 64 -24 143z" />
    <glyph glyph-name="FL0058h" unicode="X" horiz-adv-x="641" 
d="M207 555l136 -258l-242 -255h128l160 168l87 -168h129l-134 255l243 259h-129l-159 -171l-89 170h-130zM357 584l78 -149l140 150h202l-271 -288l151 -284h-201l-78 148l-140 -148h-201l270 284l-151 287h201zM133 597l157 -300l-281 -297h232l133 139l73 -139h232
l-155 296l282 302h-235l-131 -142l-74 141h-233z" />
    <glyph glyph-name="FL0059h" unicode="Y" 
d="M775 554h-127l-43 -201h-240q-61 14 -58 71l28 131h-127l-12 -55q-13 -60 -12 -107.5t18 -80t51 -49.5t88 -17l1 1h241q-23 -57 -64.5 -77.5t-96.5 -20.5h-173l-23 -107h204q121 0 193 67t98 187zM751 296q-29 -133 -110 -208t-217 -75h-233l35 165h202q34 0 61 8t46 31
h-171v-1q-70 0 -114.5 19t-68 55.5t-26 89.5t11.5 120l18 84h186l-33 -155q-3 -38 34 -47h209l43 201h187zM827 596h-213l-43 -201h-192q-14 3 -21.5 11t-6.5 20l36 171h-212l-21 -97q-14 -65 -11.5 -117.5t23.5 -90t62.5 -60t105.5 -27.5l-2 -1h12h30h125q-14 -8 -31 -10.5
t-37 -2.5h-215l-41 -191h246q142 0 228 78.5t115 217.5zM351 431l-1 -3z" />
    <glyph glyph-name="FL005Ah" unicode="Z" horiz-adv-x="634" 
d="M685 452l22 102h-500l-22 -102h337l-402 -308l-22 -102h500l22 102h-337zM364 173h291l-34 -160h-558l30 144l347 266h-290l34 160h558l-31 -144zM723 434l35 162h-584l-40 -186h271l-324 -248l-34 -162h584l40 186h-271z" />
    <glyph glyph-name="FL005Bh" unicode="[" horiz-adv-x="390" 
d="M339 -17l23 107h-150l92 430h153l22 104h-265l-137 -642zM44 -48l149 702h318l-35 -164h-152l-78 -370h150l-36 -167zM368 -60l41 193h-150l73 344h153l41 190h-341l-155 -728z" />
    <glyph glyph-name="FL005Ch" unicode="\" horiz-adv-x="387" 
d="M203 0l-48 596h192l48 -596h-192zM382 13l-46 570h-168l47 -570h167zM240 42l-41 512h111l42 -512h-112z" />
    <glyph glyph-name="FL005Dh" unicode="]" horiz-adv-x="390" 
d="M31 -60l41 193h150l73 344h-152l41 190h341l-155 -728zM361 -48l149 702h-317l-35 -164h152l-78 -370h-150l-36 -167zM78 -17l23 107h150l92 430h-152l22 104h265l-137 -642z" />
    <glyph glyph-name="FL005Eh" unicode="^" horiz-adv-x="357" 
d="M377 300l-56 122h-73l-105 -122h76l56 69l28 -69h74zM282 278l-18 43l-35 -43h-136l144 166h103l76 -166h-134zM433 268l-83 186h-117l-161 -186h162l26 33l14 -33h159z" />
    <glyph glyph-name="FL005Fh" unicode="_" horiz-adv-x="455" 
d="M78 62l-14 -68h365l14 68h-365zM475 81l-22 -106h-421l22 106h421zM44 90l-26 -123h446l26 123h-446z" />
    <glyph glyph-name="FL0060h" unicode="`" horiz-adv-x="224" 
d="M230 404q-3 6 -8.5 14t-13.5 8q-13 0 -29 -11q-11 -8 -19.5 -14.5t-10.5 -16.5q-3 -13 1 -21l33 -50q6 -13 21 -13q13 0 28 11q9 8 14 14t7 17q2 14 -2 23zM271 378q4 -8 5 -16.5t-1 -19.5q-4 -16 -11 -26.5t-22 -21.5q-19 -16 -43 -16q-25 0 -35 21l-33 49
q-5 8 -5.5 16.5t1.5 19.5q3 17 13.5 27t24.5 19q1 0 5 4l-2 -2q23 17 44 17q14 0 23.5 -11.5t14.5 -19.5zM259 424q-5 9 -16 22t-28 13q-26 0 -50 -19q-17 -11 -30.5 -23.5t-17.5 -32.5q-6 -26 5 -42l32 -51v4q10 -27 43 -27q13 0 25 4t26 15q16 13 24 25t12 30q5 23 -5 45z
" />
    <glyph glyph-name="FL0061h" unicode="a" horiz-adv-x="678" 
d="M219 42l19 90h299l-19 -90h124l109 512h-354q-41 0 -79.5 -18.5t-70 -48.5t-54 -67.5t-30.5 -75.5l-64 -302h120zM428 452h177l-46 -219h-298l24 117q8 17 20 35t29.5 33t40.5 24.5t53 9.5zM422 423q-22 0 -39.5 -7.5t-30.5 -18.5t-22.5 -24.5t-15.5 -26.5l-18 -84h239
l34 161h-147zM64 13l70 331q9 43 35 86t62 77t80.5 55t91.5 21h384l-121 -570h-183l19 90h-240l-19 -90h-179zM253 0l19 90h214l-19 -90h209l127 596h-397q-50 0 -97 -22.5t-85.5 -58.5t-65.5 -81t-37 -90l-73 -344h205zM419 410h134l-29 -135h-213l15 68q5 12 13.5 23.5
t19.5 21.5t26 16t34 6z" />
    <glyph glyph-name="FL0063h" unicode="b" 
d="M343 405l-3 -13h199q-22 13 -63 13h-133zM428 180q58 0 86 25h-213l-6 -25h133zM765 300q-18 -84 -50.5 -141t-76.5 -92.5t-98 -51t-114 -15.5h-378l127 596h373q142 0 194 -78.5t23 -217.5zM752 300q28 133 -21.5 208t-185.5 75h-360l-121 -570h365q57 0 108.5 15
t93.5 48.5t73 88.5t48 135zM425 167h-147l11 51h251q-17 -29 -44 -40t-71 -11zM479 418q34 0 57.5 -8.5t33.5 -30.5h-246l8 39h147zM722 300q-15 -72 -43 -121.5t-65 -79.5t-82.5 -43.5t-96.5 -13.5h-336l109 512h331q121 0 165 -67t18 -187zM267 247l-24 -109h176
q34 0 60.5 5.5t46 18t33.5 33.5t25 52h-317zM604 350q1 56 -31.5 76.5t-87.5 20.5h-176l-21 -97h316z" />
    <glyph glyph-name="c" unicode="c" horiz-adv-x="640" 
d="M604 42l22 104h-271q-111 0 -90 98l22 106q5 22 14 40.5t25 32t39 21.5t55 8h271l22 102h-319q-97 0 -156 -67t-85 -187q-13 -61 -13 -109t16.5 -81t50 -50.5t87.5 -17.5h310zM288 13q-62 0 -101 19.5t-57.5 56.5t-19 90t13.5 121q28 133 97 208t179 75h348l-34 -160
h-300q-48 0 -69.5 -20.5t-28.5 -52.5l-22 -106q-15 -69 67 -69h300l-34 -162h-339zM637 0l40 188h-313q-69 0 -57 56l22 106q6 26 23.5 43t58.5 17h313l40 186h-361q-117 0 -190 -78.5t-102 -217.5q-15 -71 -14.5 -126.5t20.5 -94t61 -59t107 -20.5h352z" />
    <glyph glyph-name="d" unicode="d" 
d="M722 300q26 120 -18 187t-165 67h-331l-109 -512h336q51 0 96.5 13.5t82.5 43.5t65 79.5t43 121.5zM599 300q-10 -48 -24.5 -79.5t-35.5 -49.5t-50.5 -25.5t-69.5 -7.5h-176l66 309h176q33 0 58 -6.5t41 -23t20 -45t-5 -72.5zM569 300q7 35 4 58t-15 36.5t-32.5 18.5
t-46.5 5h-147l-54 -251h147q32 0 55.5 6t40 21t28 41t20.5 65zM752 300q-17 -80 -48 -135t-73 -88.5t-93.5 -48.5t-108.5 -15h-365l121 570h360q136 0 185.5 -75t21.5 -208zM765 300q29 139 -23 217.5t-194 78.5h-373l-127 -596h378q60 0 114 15.5t98 51t76.5 92.5t50.5 141
zM556 300q-8 -36 -18 -59t-25 -36.5t-36 -19t-49 -5.5h-133l48 225h133q23 0 41 -4.5t29 -16.5t14 -32.5t-4 -51.5z" />
    <glyph glyph-name="e" unicode="e" horiz-adv-x="640" 
d="M637 0h-352q-66 0 -107 20.5t-61 59t-20.5 94t14.5 126.5q29 139 102 217.5t190 78.5h361l-40 -186h-313q-20 0 -34 -5t-25 -13h294l-39 -186h-294q12 -18 51 -18h313zM661 175h-300q-62 0 -68 44h305l34 161h-306q11 19 31.5 31t56.5 12h300l34 160h-348
q-110 0 -179 -75t-97 -208q-14 -68 -13.5 -121t19 -90t57.5 -56.5t101 -19.5h339zM604 42h-310q-54 0 -87.5 17.5t-50 50.5t-16.5 81t13 109q26 120 85 187t156 67h319l-22 -102h-271q-32 0 -55 -8t-39 -21.5t-25 -32t-14 -40.5h308l-21 -102h-308q-11 -49 10.5 -75.5
t78.5 -26.5h271z" />
    <glyph glyph-name="FL0066h" unicode="f" horiz-adv-x="640" 
d="M299 205l-44 -205h-208l64 300q29 139 102 217.5t190 78.5h361l-40 -186h-313q-20 0 -34 -5t-25 -13h294l-39 -187h-308zM597 218l35 162h-306q11 19 31.5 31t56.5 12h300l34 160h-348q-110 0 -179 -75t-97 -208l-61 -287h182l43 205h309zM222 42h-124l55 258
q26 120 85 187t156 67h319l-22 -102h-271q-32 0 -55 -8t-39 -21.5t-25 -32t-14 -40.5h308l-21 -103h-308z" />
    <glyph glyph-name="FL0067h" unicode="g" 
d="M278 300q9 44 25.5 72.5t39 45t50 23t60.5 6.5h299l23 107h-329q-121 0 -193.5 -67t-98.5 -187q-15 -72 -8.5 -121.5t31 -79.5t64.5 -43.5t91 -13.5h335l65 308h-123l-45 -212h-177q-41 0 -66.5 7.5t-38.5 25.5t-13.5 49.5t9.5 79.5zM307 300q-9 -39 -8.5 -65t10.5 -41
t31 -21t53 -6h147l46 212h183l-78 -366h-365q-57 0 -102 15t-73 48.5t-35.5 88.5t9.5 135q28 133 109.5 208t217.5 75h359l-35 -165h-329q-26 0 -48 -5t-40 -18.5t-31.5 -36.5t-20.5 -58zM321 300q14 63 45.5 84t77.5 21h342l41 191h-372q-143 0 -228.5 -78.5t-114.5 -217.5
q-18 -84 -10 -141t37 -92.5t76.5 -51t107.5 -15.5h378l83 392h-209l-45 -212h-134q-28 0 -46 5.5t-27 19t-9.5 36.5t7.5 59z" />
    <glyph glyph-name="FL0068h" unicode="h" horiz-adv-x="698" 
d="M662 42l109 512h-121l-44 -204h-317l44 204h-125l-109 -512h125l43 202h317l-43 -202h121zM506 13l43 202h-258l-43 -202h-184l121 570h184l-43 -204h258l43 204h180l-121 -570h-180zM696 0l127 596h-206l-44 -204h-232l44 204h-210l-127 -596h210l43 202h232l-43 -202
h206z" />
    <glyph glyph-name="i" unicode="i" horiz-adv-x="287" 
d="M242 42l109 512h-148l-109 -512h148zM68 13l121 570h188l-121 -570h-188zM262 0l127 596h-206l-127 -596h206z" />
    <glyph glyph-name="FL006Ah" unicode="j" horiz-adv-x="640" 
d="M47 0l40 188h313q70 0 82 56l75 353h207l-63 -297q-15 -71 -39.5 -126.5t-60.5 -94t-85.5 -59t-115.5 -20.5h-353zM403 13q62 0 109 19.5t81.5 56.5t57.5 90t37 121l60 284h-182l-72 -340q-15 -69 -97 -69h-300l-34 -162h340zM98 42l22 104h271q112 0 133 98l66 311h123
l-54 -255q-13 -61 -33.5 -109t-50.5 -81t-71 -50.5t-95 -17.5h-311z" />
    <glyph glyph-name="FL006Bh" unicode="k" horiz-adv-x="678" 
d="M333 554h-125l-109 -512h125l43 201h147l118 -201h130l-136 255l246 258h-131l-202 -205h-150zM326 379h105l201 205h204l-274 -287l153 -284h-204l-118 201h-103l-42 -201h-184l121 570h184zM385 596h-210l-127 -596h210l43 201h84l118 -201h235l-159 296l286 301h-237
l-202 -205h-85z" />
    <glyph glyph-name="FL006Ch" unicode="l" horiz-adv-x="640" 
d="M604 42l22 104h-271q-111 0 -90 98l66 311h-124l-54 -255q-13 -61 -13 -109t16.5 -81t50 -50.5t87.5 -17.5h310zM288 13q-62 0 -101 19.5t-57.5 56.5t-19 90t13.5 121l60 284h182l-72 -340q-15 -69 67 -69h300l-34 -162h-339zM637 0l40 188h-313q-69 0 -57 56l75 353
h-208l-63 -297q-15 -71 -14.5 -126.5t20.5 -94t61 -59t107 -20.5h352z" />
    <glyph glyph-name="FL006Dh" unicode="m" horiz-adv-x="906" 
d="M903 0h-212l69 326q3 16 3.5 31t-7 27t-25.5 19.5t-52 7.5h-16q0 -17 -1 -33.5t-5 -33.5l-73 -344h-213l69 326q4 16 5.5 31.5t-2 27t-15 18.5t-33.5 7h-42l-87 -410h-218l127 596h616q52 0 92 -20.5t65 -62.5l-2 1q26 -39 33 -81.5t-3 -88.5zM963 344q9 44 2.5 84.5
t-30.5 77.5v-2q-23 40 -61 59.5t-86 19.5h-602l-121 -570h190l87 410h56q27 0 40.5 -8t18.5 -21.5t3 -31t-6 -36.5l-66 -313h186l70 331q9 41 5 79h33q39 0 59.5 -8.5t28.5 -22t7.5 -31t-4.5 -35.5l-66 -313h186zM868 42h-124l60 284q5 24 6 46.5t-9.5 40.5t-37 29t-75.5 11
h-79q11 -26 10.5 -53.5t-6.5 -55.5l-64 -302h-125l60 284q5 25 7.5 47.5t-4.5 40t-26.5 28t-56.5 10.5h-86l-87 -410h-130l109 512h572q42 0 74 -16.5t52 -50.5q41 -64 24 -143z" />
    <glyph glyph-name="n" unicode="n" horiz-adv-x="678" 
d="M642 42l64 302q17 79 -22 143q-20 34 -51 50.5t-70 16.5h-355l-109 -512h125l87 410h176q38 0 59.5 -10.5t31 -28t9.5 -40.5q0 -22 -5 -47l-60 -284h120zM487 13l66 313q4 19 4 36q0 18 -7 31.5t-23.5 21.5t-45.5 8h-147l-87 -410h-183l121 570h384q47 0 82.5 -19.5
t58.5 -59.5v2q23 -37 29 -77.5t-3 -84.5l-70 -331h-179zM676 0l73 344q20 94 -28 170l1 -1q-23 42 -61.5 62.5t-88.5 20.5h-397l-127 -596h209l87 410h134q25 0 39 -7t20.5 -18.5t6.5 -27.5q0 -15 -4 -31l-69 -326h205z" />
    <glyph glyph-name="FL006Fh" unicode="o" horiz-adv-x="698" 
d="M460 412q-66 0 -95.5 -13t-34.5 -37l-26 -120q-5 -26 15.5 -41t86.5 -15q37 0 61 3t38.5 10t21.5 18.5t11 29.5l24 115q2 10 0.5 19.5t-12 16t-32 10.5t-58.5 4zM741 217q-12 -55 -36.5 -95.5t-68.5 -67.5t-110 -40.5t-160 -13.5q-92 0 -150 14.5t-88.5 42t-38 67
t3.5 90.5l36 169q11 51 36 91t68.5 67.5t108.5 42t157 14.5q94 0 153 -13t90.5 -39.5t38.5 -66t-4 -93.5zM764 386q11 51 4 88t-37.5 62t-87.5 37t-147 12q-88 0 -150.5 -13.5t-104 -39t-65.5 -63.5t-34 -86l-36 -169q-10 -47 -3 -84.5t37 -63.5t85.5 -39.5t143.5 -13.5
q90 0 153.5 12.5t105.5 38t65.5 64t34.5 89.5zM462 425q41 0 65 -5t35.5 -13.5t13.5 -20t-1 -24.5l-24 -115q-5 -21 -13 -35t-24 -23t-42.5 -12.5t-68.5 -3.5q-37 0 -60.5 5t-36 14t-15.5 21.5t0 28.5l26 120q6 29 39 46t106 17zM698 217q-9 -44 -30 -77t-59 -54.5
t-95 -32.5t-139 -11q-79 0 -129.5 11.5t-78 34t-34 54t1.5 72.5l36 169q9 41 30 73.5t59 54.5t94 33.5t136 11.5q81 0 133 -10.5t79.5 -31.5t34 -53t-2.5 -75zM469 455q-89 0 -131 -25t-51 -68l-26 -120q-5 -23 -1 -41t19 -31t43.5 -20t73.5 -7q51 0 84 5t53 17t31 32t17 50
l24 115q4 19 2.5 36t-15.5 29.5t-43 20t-80 7.5z" />
    <glyph glyph-name="FL0070h" unicode="p" horiz-adv-x="679" 
d="M224 42l19 90h231q39 0 77.5 16.5t71.5 50.5q35 33 55.5 69t28.5 75h-2l1 1q8 38 3.5 73t-25.5 68q-19 35 -50.5 52t-70.5 17h-355l-109 -512h125zM442 234h-177l46 218h176q33 0 53.5 -9.5t31 -25t13.5 -35t0 -40.5q-9 -27 -20.5 -47.5t-28 -34t-39.5 -20t-55 -6.5z
M448 264q47 0 70.5 19t35.5 58q2 15 0 29.5t-10 26.5t-23.5 19t-39.5 7h-147l-34 -159h148zM64 13l121 570h384q46 0 82.5 -20t59.5 -61l-1 2q20 -29 26 -62t3 -70h4q-2 -8 -3.5 -15t-3.5 -15l-3 -11h-1q-28 -92 -91 -151l2 2q-40 -40 -84 -59.5t-91 -19.5h-202l-19 -90
h-183zM257 0l19 90h189q50 0 97 20.5t89 62.5l-1 -1q59 58 90 150l5 3q2 5 2.5 10.5t1.5 10.5q2 10 5 19.5t5 19.5h-6q2 35 -5.5 67t-25.5 61l1 -2q-23 43 -62.5 64t-88.5 21h-397l-127 -596h209zM451 277h-135l28 133h134q21 0 34 -6t20 -15.5t9 -21.5t1 -24
q-11 -34 -31 -50t-60 -16z" />
    <glyph glyph-name="FL0071h" unicode="q" horiz-adv-x="698" 
d="M305 245q-5 -20 5 -34t45 -20l-44 84zM316 297h211l15 -30l21 99q2 11 0.5 20.5t-12 16.5t-32 11t-58.5 4q-66 0 -95.5 -13.5t-34.5 -38.5zM742 219q-11 -48 -33 -86t-60 -66l63 -118h-229l-30 54q-39 -3 -87 -3q-92 0 -150 14.5t-88.5 42.5t-37.5 68.5t4 91.5l36 171
q11 52 36 92.5t69 68.5t109 42.5t157 14.5q94 0 153 -13t90.5 -40t38.5 -67.5t-5 -94.5zM765 391q11 51 4 89t-37 63t-87 37.5t-147 12.5q-88 0 -150.5 -13.5t-104.5 -40t-66 -64.5t-34 -87l-36 -171q-10 -48 -3.5 -86t36.5 -64t85.5 -40t143.5 -14q26 0 49 1t44 3l30 -55
h197l-57 107q40 26 63 63t34 87zM292 245l26 121q6 30 39.5 47.5t106.5 17.5q41 0 65 -5t35 -14t13 -21t-1 -25l-25 -116q-2 -6 -2.5 -11t-1.5 -10l-29 55h-195l55 -108q-29 1 -47.5 6.5t-28 14.5t-11.5 21t1 27zM699 219q-11 -50 -36 -85t-72 -57l46 -86h-124l-31 57
q-24 -3 -50.5 -4t-56.5 -1q-79 0 -129.5 11.5t-77.5 34t-34 55t2 73.5l36 171q9 42 30.5 74.5t59 55t94 34t136.5 11.5q81 0 133 -10.5t79.5 -32t33.5 -54t-3 -75.5zM375 254h122l44 -82q16 13 25 31t15 47l25 116q4 20 2.5 37t-15.5 30t-43 20t-80 7q-89 0 -131 -24.5
t-51 -69.5l-26 -121q-5 -23 -1.5 -41.5t18.5 -31.5t44 -20t74 -7h17q11 0 16 1z" />
    <glyph glyph-name="FL0072h" unicode="r" horiz-adv-x="679" 
d="M224 42l19 90h181l49 -90h135l-59 106q20 8 38 20.5t36 29.5q36 34 56 70t28 75h-2l1 1q17 79 -22 143q-20 34 -51 50.5t-70 16.5h-355l-109 -512h125zM442 234h-177l46 218h176q33 0 53 -9.5t30 -25.5t11.5 -36t-1.5 -41q-8 -27 -18.5 -47t-26.5 -33t-38.5 -19.5
t-54.5 -6.5zM448 264q47 0 68 18.5t34 57.5q2 15 0.5 30t-9 27t-22 19t-38.5 7h-147l-34 -159h148zM64 13l121 570h384q47 0 82.5 -19.5t58.5 -59.5v2q35 -57 29 -134h4q-2 -8 -3.5 -15t-3.5 -15l-3 -11h-1q-13 -45 -35 -83t-55 -69q-12 -11 -25 -21.5t-25 -18.5l69 -126
h-209l-48 90h-138l-19 -90h-183zM257 0l19 90h118l49 -90h241l-75 137q21 15 40 34q32 30 54.5 68t38.5 84l3 2q2 5 2.5 10.5t1.5 10.5q2 10 5 19.5t5 19.5h-6q1 36 -7 68.5t-25 60.5l1 -1q-23 42 -61.5 62.5t-88.5 20.5h-397l-127 -596h209zM451 277h-135l28 133h134
q20 0 32.5 -6t18.5 -16t7.5 -22t0.5 -25q-11 -33 -29 -48.5t-57 -15.5z" />
    <glyph glyph-name="FL0053h" unicode="s" 
d="M444 405q-18 0 -34 -2.5t-29 -8.5h404l-21 -98q-29 -139 -115 -217.5t-228 -78.5h-372l41 191h341q20 0 38 3.5t33 12.5h-410l20 93q29 139 114.5 217.5t228.5 78.5h242l-41 -191h-212zM646 418l35 165h-229q-136 0 -217.5 -75t-109.5 -208l-17 -80h428
q-20 -23 -47 -32.5t-61 -9.5h-328l-35 -165h359q136 0 217 75t110 208l18 85h-427q19 21 46 29t59 8h199zM453 447q-55 0 -96 -20t-64 -75h440l-12 -56q-26 -120 -98 -187t-193 -67h-330l23 107h299q55 0 96.5 21.5t64.5 78.5h-440l11 51q26 120 98.5 187t193.5 67h200
l-23 -107h-170z" />
    <glyph glyph-name="t" unicode="t" horiz-adv-x="634" 
d="M685 452l22 102h-500l-22 -102h188l-87 -410h119l87 410h193zM516 423l-87 -410h-179l87 410h-187l34 160h558l-34 -160h-192zM718 410l40 186h-584l-40 -186h188l-87 -410h203l87 410h193z" />
    <glyph glyph-name="u" unicode="u" horiz-adv-x="698" 
d="M823 596l-81 -380q-12 -54 -36.5 -94.5t-68.5 -67.5t-110 -40.5t-160 -13.5q-92 0 -150 14.5t-89 42.5t-38 68t4 91l81 380h206l-76 -354q-3 -13 0.5 -23.5t14.5 -18t32 -11.5t54 -4q37 0 61.5 3t39 10t21.5 19t10 29l75 350h210zM623 583l-72 -337q-4 -21 -12 -35
t-24 -22.5t-42.5 -12t-68.5 -3.5q-37 0 -60.5 5t-36 14t-15.5 21.5t0 28.5l73 341h-180l-78 -367q-10 -48 -3.5 -85.5t36.5 -64t86 -40t144 -13.5q90 0 153.5 12.5t105.5 38t65.5 63.5t34.5 89l78 367h-184zM771 554l-72 -338q-9 -44 -30 -76.5t-59 -54t-95 -32.5t-139 -11
q-80 0 -130.5 11.5t-77.5 34t-34 55t2 73.5l72 338h121l-67 -312q-5 -23 -1 -41t19 -31t43.5 -20t73.5 -7q51 0 83.5 5t53 17t30.5 32t16 49l66 308h125z" />
    <glyph glyph-name="FL0076h" unicode="v" horiz-adv-x="668" 
d="M762 556h-132l-245 -410l-68 410h-131l88 -514h181zM470 13h-223l-98 572h195l59 -356l212 356h195zM832 598h-223l-199 -333l-54 333h-223l102 -598h241z" />
    <glyph glyph-name="FL0077h" unicode="w" horiz-adv-x="909" 
d="M313 242q-2 -12 1 -22t13.5 -17.5t30 -12t49.5 -5.5l87 410h219l-87 -410q62 2 87.5 17.5t30.5 39.5l76 354h212l-81 -380q-11 -51 -35.5 -91t-68 -68t-110 -42.5t-161.5 -14.5h-197q-95 0 -155.5 14.5t-92.5 42.5t-39.5 68t3.5 91l81 380h213zM300 242l73 341h-186
l-78 -367q-10 -48 -3 -85.5t38 -64t89 -40t149 -13.5h197q91 0 154.5 13.5t105.5 40t65.5 64t33.5 85.5l78 367h-186l-73 -341q-3 -15 -11.5 -28t-25.5 -22t-43 -14t-64 -5h-3l87 409h-192l-87 -409h-2q-38 0 -62 5t-37 14t-16.5 22t-0.5 28zM530 553h131l-88 -410h33
q47 0 79.5 7.5t54 20.5t32.5 31t16 40l67 312h124l-72 -338q-9 -41 -29.5 -73.5t-58 -55t-95 -34t-139.5 -11.5h-197q-82 0 -134.5 11.5t-81 34t-35.5 55t2 73.5l72 338h125l-67 -312q-5 -22 -1 -40t19.5 -31t45 -20.5t76.5 -7.5h33z" />
    <glyph glyph-name="FL0078h" unicode="x" horiz-adv-x="598" 
d="M186 555l135 -258l-242 -255h129l160 168l87 -168h129l-134 255l243 259h-130l-158 -171l-90 170h-129zM336 584l78 -149l140 150h201l-270 -288l150 -284h-201l-77 148l-140 -148h-201l269 284l-151 287h202zM112 597l157 -300l-282 -297h233l133 139l72 -139h233
l-156 296l283 302h-235l-131 -142l-74 141h-233z" />
    <glyph glyph-name="FL0079h" unicode="y" 
d="M827 596l-63 -300q-29 -139 -115 -217.5t-228 -78.5h-246l41 191h215q20 0 37 2.5t31 10.5h-178q-66 2 -106.5 20t-60 51t-20 80.5t12.5 110.5l28 131h212l-37 -173q-2 -13 4 -20t23 -9h194l43 201h213zM624 583l-43 -201h-208q-42 4 -36 42l34 160h-186l-25 -118
q-13 -60 -12.5 -105.5t18.5 -77t56.5 -48t101.5 -18.5h211q-19 -23 -46 -31t-61 -8h-202l-35 -165h233q136 0 217 75t110 208l60 287h-187zM775 554l-54 -258q-26 -120 -98 -187t-193 -67h-204l23 107h173q55 0 96.5 20.5t64.5 77.5h-251q-55 1 -88.5 16t-49.5 42.5
t-16 67.5t11 93l19 89h127l-28 -131q-6 -31 8 -49.5t50 -21.5h240l43 201h127z" />
    <glyph glyph-name="FL007Ah" unicode="z" horiz-adv-x="634" 
d="M685 452l22 102h-500l-22 -102h337l-402 -308l-22 -102h500l22 102h-337zM364 173h291l-34 -160h-558l30 144l347 266h-290l34 160h558l-31 -144zM723 434l35 162h-584l-40 -186h271l-324 -248l-34 -162h584l40 186h-271z" />
    <glyph glyph-name="FL007Bh" unicode="{" horiz-adv-x="367" 
d="M332 42l22 104h-34q-99 0 -78 98l22 106q5 22 13.5 40.5t23 32t35 21.5t49.5 8h34l22 102h-77q-86 0 -140.5 -67t-80.5 -187q-13 -61 -14 -109t12.5 -81t43.5 -50.5t78 -17.5h69zM257 13q-56 0 -90 19.5t-49.5 56.5t-14.5 90t15 121q28 133 91 208t161 75h103l-34 -160
h-60q-43 0 -62.5 -20.5t-26.5 -52.5l-22 -106q-15 -69 58 -69h60l-34 -162h-95zM360 0l40 188h-71q-62 0 -50 56l22 106q6 26 22.5 43t52.5 17h71l40 186h-114q-104 0 -171 -78.5t-96 -217.5q-15 -71 -15.5 -126.5t16 -94t52.5 -59t95 -20.5h106z" />
    <glyph glyph-name="FL007Ch" unicode="|" horiz-adv-x="191" 
d="M133 -66l160 754h-85l-160 -754h85zM21 -97l174 815h125l-174 -815h-125zM153 -110l179 842h-143l-179 -842h143z" />
    <glyph glyph-name="FL007Dh" unicode="}" horiz-adv-x="367" 
d="M42 0l40 188h71q62 0 74 56l22 106q6 26 -3.5 43t-45.5 17h-71l40 186h114q104 0 137 -78.5t4 -217.5q-15 -71 -38 -126.5t-56.5 -94t-78.5 -59t-103 -20.5h-106zM151 13q55 0 98 19.5t74.5 56.5t53.5 90t36 121q28 133 -3.5 208t-129.5 75h-102l-34 -160h59
q43 0 54 -20.5t4 -52.5l-22 -106q-15 -69 -89 -69h-59l-34 -162h94zM88 42l22 104h34q100 0 121 98l22 106q5 22 4 40.5t-9.5 32t-26 21.5t-46.5 8h-34l22 102h77q43 0 70.5 -17.5t41.5 -50t14 -79.5t-13 -107q-13 -61 -32.5 -109t-47.5 -81t-65 -50.5t-85 -17.5h-69z" />
    <glyph glyph-name="FL007Eh" unicode="~" horiz-adv-x="422" 
d="M206 274l-107 -108h81l56 58l34 -59h79l107 108h-81l-56 -58l-35 59h-78zM305 296l21 -40l38 39h146l-150 -151h-109l-24 38l-36 -38h-145l150 152h109zM190 305l-168 -170h174l28 30l18 -31h122l170 170h-175l-29 -29l-16 30h-124z" />
    <glyph glyph-name="FL007Fh" horiz-adv-x="4" 
 />
    <glyph glyph-name="FL00A1h" unicode="&#xa1;" horiz-adv-x="198" 
d="M73 41h89l77 363h-89zM260 497q5 23 -4.5 38.5t-29.5 15.5t-36.5 -15.5t-21.5 -38.5t5 -38.5t30 -15.5t36 15.5t21 38.5zM281 497q-5 -20 -14.5 -36.5t-22.5 -27.5h21l-89 -421h-129l89 421h21q-18 23 -9 64q7 35 31 59t53 24q28 0 42 -24t7 -59zM290 497q8 40 -7.5 68
t-47.5 28q-33 0 -60.5 -28t-35.5 -68q-6 -29 0 -51h-9l-95 -447h148l95 447h-10q16 25 22 51z" />
    <glyph glyph-name="FL00A2h" unicode="&#xa2;" horiz-adv-x="641" 
d="M458 42l10 46h147l22 104h-147l46 218h146l22 102h-146l9 42h-124l-9 -42h-49q-48 0 -86.5 -15t-67 -41.5t-48 -63.5t-28.5 -80v-3q-13 -60 -9.5 -102.5t22.5 -68.5t53.5 -38t83.5 -12h39l-10 -46h124zM275 289l7 32q8 39 38.5 64t90.5 25h1l-46 -218q-110 0 -91 97z
M304 289q-11 -56 39 -66l33 155q-29 -5 -44.5 -20t-20.5 -37zM299 13l9 45h-10q-56 0 -95.5 13.5t-61.5 43.5t-26 77.5t11 116.5v3q11 50 33 92t55 72.5t77.5 47.5t99.5 17h20l9 42h182l-9 -42h146l-34 -161h-146l-34 -159h147l-35 -163h-147l-9 -45h-182zM491 0l10 46h147
l40 188h-147l28 134h146l40 186h-146l9 42h-208l-9 -42h-7q-59 0 -106 -18t-82 -50.5t-58.5 -77t-34.5 -96.5v-3q-15 -72 -11 -122t27 -81.5t64 -45.5t100 -14l-10 -46h208zM317 289l7 32q3 13 11 23t25 17l-26 -120q-13 7 -16.5 19t-0.5 29z" />
    <glyph glyph-name="FL00A3h" unicode="&#xa3;" horiz-adv-x="678" 
d="M127 0l42 198h-79l41 191h85q38 99 103.5 153t165.5 54h166l-40 -185h-117q-22 0 -36.5 -5.5t-25.5 -13.5h175l-41 -194h-188l-2 -9h340l-40 -189h-549zM666 13l34 163h-339l8 35h187l36 168h-184q11 19 31.5 31.5t57.5 12.5h104l34 160h-153q-97 0 -160 -53.5
t-98 -153.5h-83l-35 -165h79l-42 -198h523zM141 240l23 107h81q29 98 86 152.5t145 54.5h124l-22 -101h-75q-33 0 -56.5 -8t-39 -22t-25 -33t-14.5 -40h188l-23 -110h-188l-20 -93h339l-22 -105h-463l42 198h-80z" />
    <glyph glyph-name="FL00A4h" unicode="&#xa4;" horiz-adv-x="598" 
d="M531 239l22 106q4 17 4 32q0 16 -5 29l141 150h-130l-102 -109h-89l-57 108h-129l80 -154q-9 -12 -14.5 -26t-9.5 -30l-22 -106q-7 -29 -2 -50l-139 -147h129l94 99h101l52 -99h129l-76 144q15 19 23 53zM457 315l-10 -45q-9 -42 -58 -42h-42q-47 0 -38 42l10 45
q4 19 17 31t42 12h39q29 0 36.5 -12t3.5 -31zM428 315q2 6 -1.5 10t-15.5 4h-39q-12 0 -17 -4t-7 -10l-10 -45q-3 -13 16 -13h42q19 0 22 13zM561 239q-3 -14 -8 -26.5t-11 -23.5l93 -176h-201l-51 99h-73l-93 -99h-201l171 180q-2 21 4 46l22 106q3 14 7.5 27t12.5 26
l-99 186h202l56 -108h60l102 109h201l-170 -181q5 -31 -2 -59zM573 239l22 106q3 14 4.5 28t-0.5 27l186 198h-235l-102 -109h-46l-57 108h-233l105 -201q-6 -12 -10 -24.5t-7 -26.5l-22 -106q-3 -12 -4 -23t-1 -20l-185 -196h232l93 99h61l51 -99h233l-101 192q5 11 9 23
t7 24zM415 315l-10 -45h-54l10 45q0 1 8 1h39q7 0 7 -1z" />
    <glyph glyph-name="FL00A5h" unicode="&#xa5;" horiz-adv-x="598" 
d="M193 369h38l-119 228h233l74 -141l131 142h235l-216 -229h32l-69 -326h-98l-9 -43h-207l9 43h-103zM140 56h103l-9 -43h182l9 43h97l64 301h-43l213 228h-202l-140 -150l-78 149h-202l120 -227h-50zM204 221l23 106h79l-120 228h129l90 -170l158 171h130l-214 -229h72
l-23 -106h-98l-6 -29h98l-23 -107h-98l-9 -43h-123l9 43h-103l23 107h103l6 29h-103z" />
    <glyph glyph-name="FLE004h" unicode="&#xa6;" horiz-adv-x="699" 
d="M315 282h231l14 68q4 17 2 29t-13.5 19t-34.5 10t-60 3q-32 0 -54.5 -4t-36.5 -11t-21.5 -17.5t-10.5 -22.5zM697 0h-211l19 91h-231l-19 -91h-207l81 380q11 51 35 91t66.5 68t107 42.5t156.5 14.5q94 0 154.5 -13.5t93 -40.5t40.5 -67.5t-4 -94.5zM765 380
q11 51 3.5 89t-39 63.5t-90 38t-148.5 12.5q-88 0 -150 -13.5t-102.5 -40t-63.5 -64t-33 -85.5l-78 -367h181l19 91h257l-19 -91h185zM318 356q6 31 36 49t103 18q42 0 67 -3.5t37.5 -12t14 -22.5t-2.5 -35l-17 -81h-257zM663 42h-126l19 91h-316l-19 -91h-122l72 338
q9 41 29 73.5t57 55t92.5 34t135.5 11.5q82 0 135 -11t81.5 -32.5t35.5 -54.5t-2 -76zM263 240h316l23 110q6 29 4.5 49t-16.5 32t-45.5 17t-81.5 5q-45 0 -76 -7t-51.5 -19.5t-32 -30.5t-15.5 -40z" />
    <glyph glyph-name="FL00B0h" unicode="&#xa7;" 
d="M444 405q-18 0 -34 -2.5t-29 -8.5h404l-21 -98q-29 -139 -115 -217.5t-228 -78.5h-244l41 191h213q20 0 37 2.5t31 10.5h-408l21 96q29 139 114.5 217.5t228.5 78.5h242l-41 -191h-212zM646 418l35 165h-229q-136 0 -217.5 -75t-109.5 -208l-18 -83h428q-19 -23 -46 -31
t-61 -8h-200l-35 -165h231q136 0 217 75t110 208l18 85h-427q19 21 46 29t59 8h199zM453 447q-55 0 -96 -20t-64 -75h440l-12 -56q-26 -120 -98 -187t-193 -67h-202l23 107h171q55 0 96 20.5t64 76.5h-440l12 54q26 120 98.5 187t193.5 67h200l-23 -107h-170z" />
    <glyph glyph-name="FL00A8h" unicode="&#xa8;" horiz-adv-x="401" 
d="M309 327q-4 -15 10.5 -25.5t39.5 -10.5q26 0 45 10.5t23 25.5q3 14 -12 24.5t-41 10.5q-25 0 -43.5 -10.5t-21.5 -24.5zM151 327q-4 -15 10.5 -25.5t40.5 -10.5t44.5 10.5t22.5 25.5q3 14 -11.5 24.5t-40.5 10.5t-44.5 -10.5t-21.5 -24.5zM125 327q5 23 32.5 38.5
t63.5 15.5q27 0 46 -9t26 -23q13 14 35.5 23t49.5 9q37 0 58.5 -15.5t16.5 -38.5t-33 -39t-65 -16q-27 0 -45.5 9t-25.5 24q-13 -15 -36 -24t-50 -9q-36 0 -57 16t-16 39zM113 327q-6 -26 17.5 -44.5t65.5 -18.5q25 0 46.5 7t36.5 18q22 -25 74 -25q42 0 74 18.5t38 44.5
q5 26 -19 44.5t-66 18.5q-25 0 -47 -7t-38 -19q-21 26 -72 26q-21 0 -40 -5t-33.5 -13.5t-24 -20t-12.5 -24.5z" />
    <glyph glyph-name="FL00A9h" unicode="&#xa9;" horiz-adv-x="372" 
d="M400 337l15 74q8 38 -14 56.5t-94 18.5q-71 0 -101.5 -20t-38.5 -56l-16 -74q-4 -18 -1 -32t15 -23.5t34 -14.5t57 -5q73 0 104.5 18.5t39.5 57.5zM299 445q24 0 38 -3.5t21 -9.5t7.5 -14t-1.5 -17l-11 -54q-6 -28 -23 -38t-65 -10q-44 0 -56.5 12t-7.5 35l11 55
q5 21 24.5 32.5t62.5 11.5zM320 320l4 21h-58q-24 0 -19 21l4 21q2 9 8.5 15t20.5 6h58l4 21h-69q-20 0 -33 -14t-18 -38q-5 -25 1.5 -39t30.5 -14h66zM274 367h56l2 11h-56zM426 337q-6 -26 -17.5 -45t-32 -32t-51 -19t-74.5 -6q-42 0 -69 7t-41.5 20t-17.5 31.5t2 42.5
l16 74q5 24 16.5 43t32 31.5t50.5 19.5t73 7t71 -6t42.5 -18.5t17.5 -31.5t-3 -44zM437 337l15 74q6 28 3 49.5t-18.5 35t-45 20.5t-76.5 7q-92 0 -133.5 -30t-52.5 -83l-16 -74q-6 -27 -2.5 -47.5t19 -35t44.5 -22t75 -7.5q47 0 80 7t54.5 21t34.5 35t19 50z" />
    <glyph glyph-name="FLE003h" unicode="&#xaa;" horiz-adv-x="678" 
d="M419 410q-21 0 -36.5 -5t-26.5 -13h193l4 18h-134zM466 0l43 202h-213l-43 -202h-205l73 344q10 45 37 90t65.5 81t85.5 58.5t97 22.5h397l-127 -596h-210zM666 13l121 570h-384q-47 0 -91.5 -21t-80.5 -55t-62 -77t-35 -86l-70 -331h179l43 202h239l-43 -202h184z
M422 423h147l-9 -44h-232q13 19 35.5 31.5t58.5 12.5zM219 42h-120l64 302q8 38 30.5 75.5t54 67.5t70 48.5t79.5 18.5h354l-109 -512h-124l43 202h-299zM428 452q-33 0 -57 -8t-41.5 -22t-28 -32.5t-16.5 -39.5h298l22 102h-177z" />
    <glyph glyph-name="FL00ABh" unicode="&#xab;" horiz-adv-x="473" 
d="M315 377l-168 -81l-16 -74l134 -79l17 76l-77 43l94 41zM507 377l-168 -81l-16 -74l134 -79l17 76l-76 43l93 41zM299 241l9 40l-44 -20zM516 288l-60 -27l49 -27l-29 -135l-171 101l-22 -101l-183 108l22 103l229 111l-21 -103l214 103zM561 441l-215 -103l22 103
l-257 -124l-24 -117l204 -120l21 100l172 -100l34 161l-37 20l46 20zM289 261l3 1l-1 -2z" />
    <glyph glyph-name="FL00ADh" unicode="&#xac;" horiz-adv-x="498" 
d="M149 303l-19 -92h267l-26 -120h101l45 212h-368zM551 328l-56 -263h-157l26 121h-267l30 142h424zM117 339l-35 -164h267l-26 -121h181l61 285h-448z" />
    <glyph glyph-name="FL00AEh" unicode="&#xad;" horiz-adv-x="346" 
d="M112 158h224l14 69h-224zM105 246h274l-22 -107h-274zM69 131h297l26 124h-297z" />
    <glyph glyph-name="FL00B8h" unicode="&#xae;" horiz-adv-x="372" 
d="M400 337l15 74q8 38 -14 56.5t-94 18.5q-71 0 -101.5 -20t-38.5 -56l-16 -74q-4 -18 -1 -32t15 -23.5t34 -14.5t57 -5q73 0 104.5 18.5t39.5 57.5zM299 445q24 0 38 -3.5t21 -9.5t7.5 -14t-1.5 -17l-11 -54q-6 -28 -23 -38t-65 -10q-44 0 -56.5 12t-7.5 35l11 55
q5 21 24.5 32.5t62.5 11.5zM212 325h27l12 58q2 9 8.5 15t20.5 6h58l4 21h-69q-20 0 -33 -14t-18 -38zM270 325q32 0 42.5 4.5t13.5 17.5l6 31h-56l-11 -53h5zM426 337q-6 -26 -17.5 -45t-32 -32t-51 -19t-74.5 -6q-42 0 -69 7t-41.5 20t-17.5 31.5t2 42.5l16 74
q5 24 16.5 43t32 31.5t50.5 19.5t73 7t71 -6t42.5 -18.5t17.5 -31.5t-3 -44zM437 337l15 74q6 28 3 49.5t-18.5 35t-45 20.5t-76.5 7q-92 0 -133.5 -30t-52.5 -83l-16 -74q-6 -27 -2.5 -47.5t19 -35t44.5 -22t75 -7.5q47 0 80 7t54.5 21t34.5 35t19 50zM278 336l7 31h34
l-4 -20q-2 -5 -9 -8t-28 -3z" />
    <glyph glyph-name="FL00AFh" unicode="&#xaf;" horiz-adv-x="455" 
d="M149 395l-15 -69h365l15 69h-365zM546 414l-23 -107h-421l23 107h421zM115 422l-26 -123h446l26 123h-446z" />
    <glyph glyph-name="FL0040h" unicode="&#xb0;" horiz-adv-x="640" 
d="M207 554l-22 -104h271q112 0 91 -98l-66 -311h123l54 255q13 61 13 109t-16 81t-49.5 50.5t-87.5 17.5h-311zM524 583q62 0 100.5 -19.5t57 -56.5t19 -90.5t-13.5 -120.5l-60 -284h-182l72 340q15 69 -68 69h-300l35 162h340zM174 596l-40 -188h313q70 0 58 -56l-75 -353
h207l63 297q15 70 14.5 126t-20.5 94.5t-60.5 59t-106.5 20.5h-353z" />
    <glyph glyph-name="FL00B1h" unicode="&#xb1;" horiz-adv-x="496" 
d="M314 457l-16 -79h-133l-22 -103h132l-16 -78h102l16 78h132l22 103h-134l17 79h-100zM483 144h-366l-22 -103h366zM483 13h-422l34 159h131l15 74h-132l34 160h132l16 79h157l-17 -79h134l-34 -160h-132l-15 -74h133zM531 185h-133l11 49h132l39 185h-133l17 79h-182
l-16 -79h-132l-39 -185h131l-11 -49h-130l-39 -185h446z" />
    <glyph glyph-name="FL00B2h" unicode="&#xb2;" horiz-adv-x="375" 
d="M416 224h-326l63 298h184q72 0 98.5 -39.5t11.5 -108.5zM436 374q14 64 -10.5 100.5t-90.5 36.5h-172l-59 -275h303zM396 308l-10 -47h-251l29 135h194q1 25 -13.5 34t-39.5 9h-132l10 46h146q54 0 73 -29.5t8 -81.5l-5 -25h-195l-9 -41h195z" />
    <glyph glyph-name="FL00B3h" unicode="&#xb3;" horiz-adv-x="344" 
d="M89 224l63 298h177q62 0 81.5 -39.5t4.5 -108.5q-15 -72 -50 -111t-103 -39h-173zM264 236q62 0 94 36t46 102q14 64 -4 100.5t-73 36.5h-165l-59 -275h161zM133 261l10 45h119q48 0 57 43h-167l10 47h167q5 20 -2 32t-36 12h-119l9 45h140q42 0 55.5 -29.5t2.5 -81.5
q-11 -54 -36.5 -83.5t-73.5 -29.5h-136z" />
    <glyph glyph-name="FL00B4h" unicode="&#xb4;" horiz-adv-x="224" 
d="M168 424q9 9 26 22t34 13q23 0 42 -19q12 -11 19.5 -23.5t3.5 -32.5q-6 -24 -22 -42l-55 -51l3 4q-23 -27 -55 -27q-14 0 -24.5 4t-19.5 15q-11 12 -14 24t2 31q4 21 24 45zM135 378q-13 -15 -17 -36q-4 -16 -1 -26.5t11 -21.5q15 -16 38 -16q25 0 45 21l53 49
q8 8 13 16.5t7 19.5q3 17 -3.5 27t-16.5 19l-4 4l2 -2q-15 17 -37 17q-15 0 -29 -11.5t-22 -19.5zM189 404q6 6 15 14t17 8q14 0 23 -11q8 -8 14 -14.5t4 -16.5q-3 -12 -12 -21l-53 -50q-11 -13 -26 -13q-16 0 -24 11q-6 8 -7.5 14t0.5 17q1 12 11 23z" />
    <glyph glyph-name="FL00B5h" unicode="&#xb5;" 
d="M579 429l2 2zM175 596h213l-43 -201h192q28 6 42 31l36 171h212l-21 -97q-14 -65 -38.5 -117.5t-61 -90t-87.5 -60t-117 -27.5v-1h-13h-30h-125q11 -8 27.5 -10.5t36.5 -2.5h216l-41 -191h-246q-71 0 -119.5 20t-75 58.5t-32 93.5t9.5 124zM123 296q-29 -133 21 -208
t186 -75h233l35 165h-203q-33 0 -57 8t-34 31h172v-1h13t13 1h3q124 8 192.5 82t95.5 201l18 84h-186l-33 -155q-15 -39 -55 -47h-208l43 201h-187zM208 554h128l-43 -201h240q66 13 87 71l28 131h127l-12 -55q-13 -60 -33.5 -107.5t-51 -80t-72 -49.5t-95.5 -17l1 1h-242
q-2 -57 31 -77.5t88 -20.5h173l-23 -107h-203q-121 0 -165 67t-18 187z" />
    <glyph glyph-name="FL00B6h" unicode="&#xb6;" horiz-adv-x="679" 
d="M416 453h189l-87 -411h124l109 512h-354q-40 0 -78.5 -16.5t-70.5 -50.5q-36 -33 -56.5 -69t-28.5 -74l1 -1h-2q-8 -39 -3 -75t25 -70q11 -17 24.5 -29.5t27.5 -20.5l-22 -106h115zM482 13l87 410h-129l-87 -410h-174l25 118q-14 9 -25 20.5t-22 27.5q-19 31 -25 69
t-1 83l3 11q1 8 2 15t3 15h3q13 38 34 71.5t53 62.5l-2 -2q39 40 83.5 59.5t92.5 19.5h384l-121 -570h-184zM676 0l127 596h-397q-51 0 -98 -20.5t-89 -62.5l2 1q-30 -28 -51.5 -60.5t-35.5 -68.5h-5q-2 -11 -4 -20.5t-3 -18.5l-5 -21l2 -2q-5 -46 1 -84.5t25 -67.5
q9 -15 20.5 -26.5t23.5 -21.5l-26 -123h200l87 411h103l-87 -411h210z" />
    <glyph glyph-name="FL00B7h" unicode="&#xb7;" horiz-adv-x="198" 
d="M104 193q-3 -14 8 -24.5t31 -10.5t35 10.5t18 24.5q3 15 -7.5 25.5t-30.5 10.5t-35.5 -10.5t-18.5 -25.5zM83 193q5 23 27.5 39t51.5 16q28 0 43.5 -16t10.5 -39t-27 -38.5t-50 -15.5q-29 0 -45 15.5t-11 38.5zM74 193q-5 -26 12.5 -44.5t50.5 -18.5q32 0 57.5 18.5
t30.5 44.5t-12.5 44.5t-49.5 18.5q-33 0 -58.5 -18.5t-30.5 -44.5z" />
    <glyph glyph-name="FL00ACh" unicode="&#xb8;" 
d="M133 405l41 191h373q142 0 194 -78.5t23 -217.5l-21 -96h-409q11 -8 27.5 -10.5t36.5 -2.5h343l-41 -191h-373q-71 0 -119.5 20t-75 58.5t-32 93.5t9.5 124l21 98h403q-21 11 -58 11h-343zM479 418q32 0 54.5 -8t32.5 -29h-425l-18 -85q-29 -133 21 -208t186 -75h360
l35 165h-330q-33 0 -57 8t-34 31h429l18 83q28 133 -21.5 208t-185.5 75h-360l-35 -165h330zM485 447h-300l23 107h330q121 0 165 -67t18 -187l-12 -54h-440q-1 -28 7.5 -46.5t24.5 -30t38.5 -16t49.5 -4.5h300l-23 -107h-330q-121 0 -165 67t-18 187l12 56h440
q-2 55 -33.5 75t-86.5 20z" />
    <glyph glyph-name="FL00B9h" unicode="&#xb9;" horiz-adv-x="153" 
d="M157 485l-9 -45h19l-39 -180h37l48 225h-56zM236 510l-58 -275h-73l38 180h-18l20 95h91zM140 521l-25 -118h18l-39 -180h89l64 298h-107z" />
    <glyph glyph-name="FL00BAh" unicode="&#xba;" horiz-adv-x="372" 
d="M399 336l16 74q8 38 -14 56.5t-94 18.5q-71 0 -101.5 -20t-38.5 -56l-16 -74q-4 -18 -1 -31.5t15 -23.5t34 -15t57 -5q36 0 61.5 4.5t42.5 14t26 24t13 33.5zM298 441q22 0 35 -3t19 -8.5t7 -13t-1 -16.5l-11 -51q-3 -12 -7 -21t-13 -14t-23.5 -7.5t-37.5 -2.5
q-40 0 -52 11.5t-7 31.5l11 53q4 19 22.5 30t57.5 11zM292 415q-25 0 -35.5 -4t-12.5 -11l-11 -53q-2 -8 5.5 -12.5t32.5 -4.5q29 0 38.5 4t11.5 15l11 51q2 6 -4.5 10.5t-35.5 4.5zM425 336q-5 -26 -16.5 -45t-32 -32t-51 -19t-74.5 -6q-42 0 -69 7t-41.5 20t-17.5 31.5
t2 42.5l16 74q5 24 16.5 43t32 32t50.5 20t73 7t71 -6t42.5 -19t17.5 -32t-3 -44zM436 336l16 74q6 28 3 49.5t-18.5 35t-45 20.5t-76.5 7q-92 0 -133.5 -29.5t-52.5 -83.5l-16 -74q-6 -27 -2.5 -47.5t18.5 -35t44 -22t75 -7.5q47 0 80 7t55 21t34.5 35t18.5 50zM290 404
q21 0 26 -1t5 -3l-11 -51q-1 -5 -8 -6.5t-29 -1.5q-18 0 -24 1.5t-5 4.5l11 53q0 4 35 4z" />
    <glyph glyph-name="FL00BBh" unicode="&#xbb;" horiz-adv-x="473" 
d="M331 262l-1 -2l3 1zM139 441l170 -103l22 103l204 -124l-24 -117l-257 -120l21 100l-213 -100l34 161l44 20l-35 20zM118 288l47 -27l-58 -27l-29 -135l214 101l-22 -101l229 108l22 103l-183 111l-21 -103l-171 103zM358 261l-44 -20l9 40zM357 377l134 -81l-16 -74
l-168 -79l17 76l94 43l-77 41zM164 377l134 -81l-16 -74l-168 -79l17 76l95 43l-78 41z" />
    <glyph glyph-name="FL0050h" unicode="&#xbc;" horiz-adv-x="678" 
d="M267 244h418l21 100q7 38 1 75.5t-24.5 67.5t-49 48.5t-70.5 18.5h-355l-109 -512h125zM487 452q33 0 53.5 -8t32 -22t14 -32.5t-0.5 -39.5h-297l22 102h176zM334 423l-9 -44h231q-5 19 -22 31.5t-53 12.5h-147zM290 215l-43 -202h-183l121 570h384q46 0 81 -21t57 -55
t29.5 -77t-0.5 -86l-27 -129h-419zM719 202l30 142q9 45 1 90t-31 81t-60.5 58.5t-86.5 22.5h-397l-127 -596h209l43 202h419zM478 410q40 0 55 -18h-193l4 18h134z" />
    <glyph glyph-name="FL00BDh" unicode="&#xbd;" horiz-adv-x="803" 
d="M807 42l11 53h-223l10 48h223l6 28q13 60 -9.5 93.5t-83.5 33.5h-168l-11 -53h152q29 0 46 -10t16 -39h-224l-33 -154h288zM274 42l555 512h-123l-559 -512h127zM303 554l-11 -51h36l-44 -205h74l55 256h-110zM449 583l-60 -282l309 282h201l-276 -256h125
q77 0 104.5 -41.5t11.5 -114.5l-33 -158h-348l49 230l-250 -230h-207l279 256h-106l44 205h-36l23 109h170zM268 596l-29 -135h37l-44 -205h91l-279 -256h242l225 209l-44 -209h375l36 171q17 79 -13.5 124t-114.5 45h-97l278 256h-236l-285 -261l56 261h-198z" />
    <glyph glyph-name="FL0052h" unicode="&#xbe;" horiz-adv-x="678" 
d="M685 244l21 100q8 38 2 75.5t-25 67.5t-49.5 48.5t-70.5 18.5h-355l-109 -512h125l43 202h115l106 -202h139l-108 202h166zM487 452q33 0 53.5 -8t32 -22t14 -32.5t-0.5 -39.5h-297l22 102h176zM334 423l-9 -44h231q-5 19 -22 31.5t-53 12.5h-147zM571 215l108 -202h-211
l-106 202h-72l-43 -202h-183l121 570h384q46 0 81.5 -21t57.5 -55t29.5 -77t-1.5 -86l-27 -129h-138zM719 202l30 142q10 45 2 90t-31.5 81t-61 58.5t-86.5 22.5h-397l-127 -596h209l43 202h51l107 -202h244l-108 202h125zM478 410q40 0 55 -18h-193l4 18h134z" />
    <glyph glyph-name="FL00BFh" unicode="&#xbf;" horiz-adv-x="705" 
d="M604 350h-440l-12 -56q-25 -119 19 -186.5t165 -67.5h331l22 107h-300q-28 0 -50.5 4.5t-38 16t-24 30t-7.5 47.5h441l34 159h-127zM765 497q5 23 -10 38.5t-44 15.5q-28 0 -50 -15.5t-27 -38.5t10.5 -38.5t43.5 -15.5q29 0 50.5 15.5t26.5 38.5zM795 497
q-5 -20 -17.5 -36t-29.5 -27h31l-46 -218h-429q9 -23 33 -31.5t58 -8.5h329l-35 -165h-360q-68 0 -114 19.5t-71.5 56t-30.5 89t9 118.5l19 85h440l13 55h29q-13 11 -18.5 27t-0.5 36q7 35 39.5 59t73.5 24t63 -24t15 -59zM808 497q8 40 -16.5 68t-71.5 28q-23 0 -44.5 -7.5
t-39 -20.5t-29.5 -30.5t-16 -37.5q-6 -28 5 -51h-12l-13 -54h-441l-21 -98q-15 -69 -9.5 -124t32.5 -93.5t75.5 -58.5t119.5 -20h373l40 191h-342q-20 0 -36.5 3t-27.5 11h409l52 243h-14q10 11 17 24t10 27z" />
    <glyph glyph-name="FL00C0h" unicode="&#xc0;" horiz-adv-x="678" 
d="M561 798q-5 8 -12.5 19t-17.5 11q-20 0 -39 -15q-14 -12 -26.5 -20.5t-14.5 -22.5q-4 -16 3 -28l43 -68q10 -18 28 -18q19 0 38 15q12 10 18.5 19t9.5 23q3 18 -2 31zM219 44l45 211h299l-45 -211h124l114 536h-354q-41 0 -79.5 -19.5t-70.5 -51t-54.5 -70.5t-30.5 -79
l-68 -316h120zM433 473h177l-23 -107h-298q6 22 17 41.5t28 34t41.5 23t57.5 8.5zM426 442q-36 0 -58.5 -13t-36.5 -33h232l10 46h-147zM617 762q10 -21 4 -49q-5 -22 -14.5 -36t-28.5 -29q-16 -13 -30 -17.5t-29 -4.5q-33 0 -49 28l-44 68q-6 11 -6.5 22.5t2.5 25.5
q4 20 15.5 32t25.5 22l15 12q15 11 30.5 17t29.5 6q20 0 32 -15.5t17 -27.5l1 1zM64 13l74 347q9 45 35 89.5t63 80.5t81.5 58t91.5 22h384l-127 -597h-184l45 212h-239l-45 -212h-179zM253 0l45 211h213l-45 -211h210l133 624h-245q5 2 10 5.5t11 8.5q21 18 32.5 34.5
t16.5 40.5q6 30 -7 62l-27 50v-1q-3 6 -8.5 14.5t-13 16t-17 12.5t-21.5 5q-33 0 -75 -31l-8 -6q-16 -12 -29.5 -26.5t-18.5 -38.5q-8 -34 6 -57l44 -68l-2 4q7 -16 19 -25h-64q-50 0 -97 -23.5t-86 -61t-66.5 -84.5t-37.5 -95l-77 -360h205zM423 429h134l-4 -19h-193
q11 9 26.5 14t36.5 5z" />
    <glyph glyph-name="FL00C1h" unicode="&#xc1;" horiz-adv-x="678" 
d="M489 743q-11 -13 -15 -31q-2 -14 0 -23t10 -19q12 -15 31 -15q21 0 36 18l73 68q11 13 14 28q3 14 -5.5 22.5t-16.5 20.5q-14 15 -33 15q-10 0 -22.5 -11t-20.5 -19zM219 44l45 211h299l-45 -211h124l114 536h-354q-41 0 -79.5 -19.5t-70.5 -51t-54.5 -70.5t-30.5 -79
l-68 -316h120zM433 473h177l-23 -107h-298q6 22 17 41.5t28 34t41.5 23t57.5 8.5zM426 442q-36 0 -58.5 -13t-36.5 -33h232l10 46h-147zM521 816v-1q11 12 29.5 27.5t38.5 15.5q27 0 50 -23l9 -12q11 -11 17.5 -22.5t1.5 -31.5q-5 -28 -25 -48l-72 -68q-28 -28 -61 -28
q-15 0 -27 4.5t-22 17.5q-13 15 -17 29t1 36q3 14 9.5 26t15.5 23zM64 13l74 347q9 45 35 89.5t63 80.5t81.5 58t91.5 22h384l-127 -597h-184l45 212h-239l-45 -212h-179zM253 0l45 211h213l-45 -211h210l133 624h-256q12 7 28 24l-4 -4l73 68q24 24 30 57q5 24 -2.5 38.5
t-18.5 26.5l-4 6q-29 31 -63 31q-12 0 -23.5 -5t-22 -12.5t-19.5 -16t-15 -14.5v1l-47 -50q-27 -33 -34 -62q-5 -25 -1.5 -41.5t17.5 -33.5q7 -9 15 -13h-50q-50 0 -97 -23.5t-86 -61t-66.5 -84.5t-37.5 -95l-77 -360h205zM423 429h134l-4 -19h-193q11 9 26.5 14t36.5 5z
" />
    <glyph glyph-name="FL00C2h" unicode="&#xc2;" horiz-adv-x="678" 
d="M657 654l-56 167h-84l-126 -167h86l69 94l27 -94h84zM219 44l45 211h299l-45 -211h124l114 535h-354q-41 0 -79.5 -19.5t-70.5 -51t-54.5 -70.5t-31.5 -79l-67 -315h120zM432 472h177l-22 -106h-298q6 22 16.5 41t28 33.5t41.5 23t57 8.5zM426 442q-36 0 -58.5 -13
t-36.5 -33h232l10 46h-147zM548 623l-17 60l-43 -60h-155l172 229h118l77 -229h-152zM64 13l73 346q10 45 36 90t63 81t81.5 58t91.5 22h384l-127 -597h-184l45 212h-239l-45 -212h-179zM253 0l45 211h213l-45 -211h210l132 623h-93l-81 242h-133l-192 -255h29
q-39 -14 -74 -40.5t-63.5 -60.5t-48.5 -72.5t-28 -77.5l-76 -359h205zM423 428h134l-4 -18h-193q23 18 63 18zM534 623h-32l23 32z" />
    <glyph glyph-name="FL00C3h" unicode="&#xc3;" horiz-adv-x="678" 
d="M472 798l-121 -145h86l62 78l35 -79h84l120 145h-86l-63 -79l-33 80h-84zM219 44l45 210h299l-45 -210h124l114 534h-354q-41 0 -79.5 -19.5t-70.5 -51t-54.5 -70.5t-31.5 -79l-67 -314h120zM432 471h177l-22 -106h-298q6 22 16.5 41t28 33.5t41.5 23t57 8.5zM426 441
q-36 0 -58.5 -13t-36.5 -33h232l10 46h-147zM577 829l23 -54l42 53h157l-171 -206h-116l-24 52l-41 -51h-157l171 206h116zM64 13l73 345q10 45 36 89.5t62.5 80.5t81 58t91.5 22h384l-126 -595h-184l45 211h-239l-45 -211h-179zM253 0l45 210h213l-45 -210h210l132 622
h-167l184 219h-188l-33 -40l-16 41h-130l-194 -233h75q-39 -14 -74.5 -40.5t-64 -60t-48.5 -72.5t-28 -78l-76 -358h205zM423 427h134l-4 -19h-193q22 19 63 19zM496 622h-35l23 27z" />
    <glyph glyph-name="FL00C4h" unicode="&#xc4;" horiz-adv-x="678" 
d="M536 694q-5 -23 10 -39.5t43 -16.5t50.5 16.5t27.5 39.5t-11 39.5t-44 16.5t-49.5 -16.5t-26.5 -39.5zM363 694q-5 -23 9.5 -39.5t42.5 -16.5q29 0 51 16.5t27 39.5t-10.5 39.5t-44.5 16.5q-28 0 -49 -16.5t-26 -39.5zM219 44l45 209h299l-45 -209h124l113 530h-354
q-41 0 -79.5 -19.5t-70.5 -50.5t-54.5 -70t-30.5 -78l-67 -312h120zM431 468h177l-22 -106h-298q6 22 16.5 41t28 33.5t41.5 23t57 8.5zM425 438q-36 0 -58.5 -12.5t-35.5 -32.5h232l9 45h-147zM333 694q8 36 40 61.5t72 25.5q30 0 50 -14.5t27 -37.5q15 23 41 37.5t56 14.5
q20 0 36 -7t26.5 -18.5t14.5 -27.5t0 -34t-15 -33.5t-26 -27.5t-34 -18.5t-39 -6.5q-30 0 -50 14t-25 38q-17 -24 -43 -38t-56 -14q-40 0 -61.5 25t-13.5 61zM64 13l73 343q9 45 35 89t62.5 79.5t81 57.5t91.5 22h384l-125 -591h-184l44 210h-239l-44 -210h-179zM320 694
q-6 -27 2 -49t28 -36q-41 -12 -78 -37.5t-67 -60t-51 -75t-30 -80.5l-76 -356h205l44 209h213l-44 -209h210l131 618h-153q44 28 55 76q8 42 -16 71t-71 29q-27 0 -52 -11t-43 -29q-11 18 -31 29t-48 11q-23 0 -44.5 -8t-38.5 -21.5t-29 -31.5t-16 -39zM422 425h134l-4 -19
h-193q11 8 26.5 13.5t36.5 5.5zM514 618h-34q11 6 21 17q4 -10 13 -17z" />
    <glyph glyph-name="FL00C5h" unicode="&#xc5;" horiz-adv-x="678" 
d="M449 693q-5 -23 10 -39.5t43 -16.5t50.5 16.5t27.5 39.5t-10.5 39.5t-43.5 16.5t-50 -16.5t-27 -39.5zM219 44l45 209h299l-45 -209h124l113 530h-354q-41 0 -79.5 -19.5t-70.5 -50.5t-54.5 -70t-30.5 -78l-67 -312h120zM431 468h177l-22 -106h-298q6 22 16.5 41t28 33.5
t41.5 23t57 8.5zM425 438q-36 0 -58.5 -13t-36.5 -33h232l10 46h-147zM419 693q4 18 15 34t26 27.5t34 18.5t39 7q40 0 62 -25.5t14 -61.5t-40.5 -61t-72.5 -25q-20 0 -36 6.5t-26.5 18.5t-14.5 27.5t0 33.5zM64 13l73 343q9 45 35 89t62.5 79.5t81 57.5t91.5 22h384
l-125 -591h-184l44 210h-239l-44 -210h-179zM253 0l44 209h213l-44 -209h210l131 618h-238q20 13 34 32.5t19 42.5q9 42 -15.5 71t-70.5 29q-23 0 -44.5 -8t-39 -21.5t-29.5 -31.5t-16 -39q-5 -23 0.5 -42.5t19.5 -32.5h-17q-50 0 -97 -23t-86 -60.5t-66 -84.5t-37 -94
l-76 -356h205zM422 425h134l-4 -19h-193q11 8 26.5 13.5t36.5 5.5z" />
    <glyph glyph-name="FL00C6h" unicode="&#xc6;" horiz-adv-x="1125" 
d="M232 42l19 90h317l-19 -90h539l22 104h-289q-119 0 -98 98h330l22 106h-330q5 22 14.5 40.5t26 32t41 21.5t59.5 8h289l22 102h-784q-43 0 -83.5 -18.5t-73.5 -48.5t-56.5 -67.5t-31.5 -75.5l-64 -302h128zM448 452h187l-46 -219h-315l24 117q6 21 17 39.5t29 32.5
t43.5 22t60.5 8zM442 423q-53 0 -79 -22.5t-34 -53.5l-18 -85h253l34 161h-156zM67 13l70 331q9 43 36 86t65 77t84.5 55t96.5 21h816l-34 -160h-321q-38 0 -60 -12t-33 -31h326l-35 -165h-325q7 -40 74 -40h321l-34 -162h-602l19 90h-255l-19 -90h-190zM268 0l19 90h227
l-19 -90h629l40 188h-334q-38 0 -52 14h311l40 190h-315q11 8 26 13t37 5h334l40 186h-829q-53 0 -102.5 -22.5t-90 -58.5t-68.5 -81t-38 -90l-73 -344h218zM439 410h142l-29 -135h-226l16 71q8 26 29.5 45t67.5 19z" />
    <glyph glyph-name="FL00C7h" unicode="&#xc7;" horiz-adv-x="640" 
d="M197 -106h70q89 0 142.5 33.5t82.5 115.5h112l23 108h-271q-111 0 -89 101l23 109q4 22 13.5 41.5t25 33.5t39 22t55.5 8h271l23 106h-319q-96 0 -156.5 -70t-86.5 -193q-14 -62 -14 -112q0 -49 16 -83.5t49.5 -52.5t87.5 -18h78q-6 -15 -14.5 -23.5t-20.5 -12.5
t-27.5 -5t-35.5 -1h-54zM197 29q-65 27 -79.5 99t8.5 181q29 137 98.5 215t179.5 78h348l-35 -166h-300q-48 0 -69.5 -21.5t-28.5 -53.5l-23 -109q-15 -71 66 -71h300l-35 -168h-117q-35 -81 -94.5 -115.5t-154.5 -34.5h-99zM146 -150h112q98 0 159 34.5t99 115.5h121
l41 194h-313q-70 0 -56 58l23 109q5 26 23 44t59 18h313l41 192h-361q-117 0 -190.5 -81t-103.5 -225q-24 -111 -10 -185.5t79 -103.5z" />
    <glyph glyph-name="FL00C8h" unicode="&#xc8;" horiz-adv-x="640" 
d="M604 44l24 109h-271q-111 0 -90 102h381l24 113h-381q5 22 14.5 41t25 33.5t39 22.5t55.5 8h271l22 107h-319q-48 0 -87 -18t-69.5 -52.5t-52 -84t-34.5 -111.5q-14 -63 -14 -114q0 -50 15.5 -84.5t49 -53t87.5 -18.5h310zM549 798q-5 8 -12.5 19t-17.5 11q-19 0 -38 -15
q-14 -12 -26.5 -20.5t-14.5 -22.5q-4 -16 3 -28l42 -68q10 -18 28 -18q19 0 38 15q12 10 18.5 19t9.5 23q3 17 -3 31zM604 762q10 -21 4 -49q-5 -22 -14 -36t-28 -29q-16 -13 -30 -17.5t-29 -4.5q-32 0 -48 28l-44 68q-6 11 -6.5 22.5t2.5 25.5q4 20 15.5 32t25.5 22l15 12
q14 11 29.5 17t29.5 6q20 0 32 -15.5t17 -27.5l1 1zM288 13q-62 0 -100.5 20.5t-57 59.5t-18.5 94q0 56 15 127q29 139 99 217.5t180 78.5h348l-36 -168h-300q-36 0 -56.5 -12t-30.5 -32h377l-37 -173h-377q6 -42 69 -42h300l-36 -170h-339zM587 825v-1q-3 6 -8 14.5
t-12.5 16t-17 12.5t-21.5 5q-32 0 -74 -31l-8 -6q-16 -12 -29.5 -26.5t-18.5 -38.5q-8 -34 6 -57l43 -68l-1 4q4 -8 8 -14t11 -11h-56q-59 0 -106.5 -21t-84 -61t-63 -97.5t-41.5 -130.5q-16 -74 -15.5 -132t20 -98.5t60 -62t106.5 -21.5h352l42 197h-313q-35 0 -48 14h363
l43 201h-367q20 17 58 17h313l42 195h-219q5 2 10 5.5t11 8.5q22 18 33 34.5t16 40.5q6 30 -7 62z" />
    <glyph glyph-name="FL00C9h" unicode="&#xc9;" horiz-adv-x="640" 
d="M604 44l24 109h-271q-111 0 -90 102h383l24 114h-383q5 22 14.5 41t25 33t39 22t55.5 8h271l22 107h-319q-48 0 -87 -18t-69.5 -52.5t-52 -84t-34.5 -111.5q-14 -63 -14 -114q0 -50 15.5 -84.5t49 -53t87.5 -18.5h310zM493 745q-11 -14 -14 -31q-3 -14 -0.5 -23t10.5 -19
q11 -15 31 -15q19 0 35 18l72 68q12 12 15 28q3 14 -6 22.5t-17 20.5q-14 15 -32 15q-10 0 -22 -11t-20 -19zM526 818v-1q11 12 29.5 27.5t38.5 15.5q28 0 49 -23l8 -12q10 -11 17 -22.5t3 -31.5q-3 -14 -9 -25.5t-17 -22.5l-72 -68q-28 -28 -60 -28q-15 0 -27 4.5t-22 17.5
q-13 15 -16 29t2 36q6 27 23 49zM288 13q-62 0 -100.5 20.5t-57 59.5t-18.5 94q0 56 15 127q29 139 99 217.5t180 78.5h348l-36 -168h-300q-35 0 -55.5 -12t-31.5 -31h379l-37 -174h-379q6 -42 69 -42h300l-36 -170h-339zM470 776q-28 -33 -33 -62q-5 -25 -1.5 -41.5
t17.5 -33.5q4 -5 7 -8.5t8 -6.5h-59q-59 0 -106.5 -21t-84 -61t-63 -97.5t-41.5 -130.5q-16 -74 -15.5 -132t20 -98.5t60 -62t106.5 -21.5h352l42 197h-313q-35 0 -48 14h365l43 202h-368q19 16 57 16h313l42 195h-217q17 9 31 26l-4 -4l74 68q22 24 30 57q5 24 -2.5 38.5
t-18.5 26.5l-5 6q-29 31 -61 31q-12 0 -23.5 -5t-22.5 -12.5t-20 -16t-15 -14.5l1 1z" />
    <glyph glyph-name="FL00CAh" unicode="&#xca;" horiz-adv-x="640" 
d="M604 44l24 109h-271q-111 0 -90 102h382l24 112h-382q5 22 14 41.5t25 33.5t39 22t55 8h271l23 107h-319q-96 0 -156.5 -70.5t-86.5 -195.5q-14 -63 -14 -113t15.5 -84.5t49 -53t87.5 -18.5h310zM638 653l-57 167h-83l-124 -167h86l68 94l27 -94h83zM530 622l-17 60
l-43 -60h-154l172 229h117l76 -229h-151zM288 13q-62 0 -100.5 20.5t-57 59.5t-18.5 94q0 56 15 126q29 139 99 218t180 79h348l-36 -168h-300q-36 0 -56.5 -12t-30.5 -32h378l-37 -173h-378q6 -42 69 -42h300l-36 -170h-339zM637 0l42 197h-313q-35 0 -48 14h364l42 200
h-368q22 17 59 17h313l41 195h-74l-80 241h-132l-191 -255h27q-78 -28 -129.5 -104t-75.5 -192q-16 -74 -15.5 -132t20 -98t60 -61.5t106.5 -21.5h352zM515 623h-31l23 31z" />
    <glyph glyph-name="FL00CBh" unicode="&#xcb;" horiz-adv-x="640" 
d="M604 44l23 107h-271q-112 0 -89 102h383l23 109h-383q5 23 14 42.5t25 33.5t39 22t55 8h271l23 106h-319q-96 0 -156.5 -70t-86.5 -193q-14 -63 -14 -113q0 -49 16 -83.5t49.5 -52.5t87.5 -18h310zM544 693q-5 -23 10 -39.5t42 -16.5q28 0 50.5 16.5t27.5 39.5
t-10.5 39.5t-43.5 16.5q-27 0 -49 -16.5t-27 -39.5zM372 693q-5 -23 9.5 -39.5t42.5 -16.5t50 16.5t27 39.5t-10 39.5t-43 16.5t-49.5 -16.5t-26.5 -39.5zM343 693q4 18 14.5 34t25.5 27.5t33.5 18.5t38.5 7q30 0 49.5 -14.5t26.5 -37.5q14 23 40.5 37.5t55.5 14.5
q41 0 62.5 -25.5t13.5 -61.5t-40 -61t-73 -25q-29 0 -49 14t-25 38q-17 -24 -42.5 -38t-55.5 -14q-40 0 -61.5 25t-13.5 61zM288 13q-62 0 -100.5 20.5t-57 59t-19 93.5t14.5 125q29 137 98.5 215t179.5 78h348l-35 -166h-300q-37 0 -57.5 -12.5t-31.5 -33.5h380l-36 -169
h-379q6 -41 70 -41h300l-36 -169h-339zM330 693q-5 -25 1.5 -46t23.5 -35q-95 -17 -155 -95t-87 -206q-15 -73 -15 -131t20 -98t60.5 -61t106.5 -21h352l41 195h-313q-35 0 -48 14h365l42 197h-370q11 8 25 13.5t35 5.5h313l41 193h-105q20 13 34 32.5t19 42.5
q9 42 -15.5 71t-70.5 29q-27 0 -52 -11t-43 -29q-11 18 -30.5 29t-46.5 11q-23 0 -44 -8t-38.5 -21.5t-29.5 -31.5t-16 -39zM522 618h-32q12 7 20 16q4 -10 12 -16z" />
    <glyph glyph-name="FL00CCh" unicode="&#xcc;" horiz-adv-x="634" 
d="M88 195h193l50 234h-193l42 195h266q-15 8 -23 27l3 -4l-45 68q-12 26 -5 57q5 24 19 38.5t30 26.5l7 6q40 31 74 31q12 0 21.5 -5t17 -12.5t13 -16t8.5 -14.5v1l25 -50q13 -32 7 -62q-5 -25 -16 -41t-32 -34q-6 -5 -12.5 -9t-12.5 -7h239l-42 -195h-187l-50 -234h187
l-41 -195h-584zM63 13h558l36 169h-187l55 260h187l36 169h-558l-36 -169h193l-55 -260h-193zM553 819v-1q-6 12 -18 27.5t-32 15.5q-14 0 -29 -6t-30 -17q-4 -3 -7 -6t-7 -6q-14 -10 -25.5 -22t-16.5 -32q-6 -27 6 -48l42 -68q17 -28 48 -28q15 0 29.5 4.5t29.5 17.5
q19 15 28 29t14 36q6 27 -3 49zM121 151h193l69 322h-193l22 107h500l-22 -107h-187l-69 -322h187l-23 -107h-500zM555 746q2 -8 2.5 -15t-1.5 -16q-3 -14 -9 -23t-19 -19q-18 -15 -37 -15q-21 0 -28 18l-43 68q-6 12 -3 28q3 14 15.5 22.5t25.5 20.5q19 15 38 15
q10 0 18 -11t12 -19z" />
    <glyph glyph-name="FL00CDh" unicode="&#xcd;" horiz-adv-x="634" 
d="M621 151h-193l69 322h193l22 107h-500l-22 -107h188l-69 -322h-188l-23 -107h500zM442 746q-7 -8 -10.5 -15t-5.5 -16q-3 -14 -0.5 -23t10.5 -19q12 -15 31 -15t36 18l71 68q12 12 15 28q3 14 -6 22.5t-17 20.5q-14 15 -32 15q-10 0 -22 -11t-20 -19zM473 819v-1
q11 12 29.5 27.5t38.5 15.5q28 0 49 -23l9 -12q10 -11 17 -22.5t2 -31.5q-3 -14 -9 -25.5t-17 -22.5l-72 -68q-26 -28 -60 -28q-15 0 -26.5 4.5t-22.5 17.5q-12 15 -15.5 29t1.5 36q6 28 24 49zM621 13h-558l36 169h187l55 260h-187l36 169h558l-36 -169h-192l-55 -260h192z
M417 777q-28 -33 -33 -62q-5 -25 -1.5 -41.5t17.5 -33.5q5 -5 8.5 -9t8.5 -7h-237l-42 -195h188l-50 -234h-188l-41 -195h584l41 195h-193l50 234h193l42 195h-265q17 9 32 27l-3 -4l73 68q13 13 19.5 26.5t10.5 30.5q5 24 -2.5 38.5t-18.5 26.5l-5 6q-29 31 -61 31
q-12 0 -23.5 -5t-22 -12.5t-19 -16l-14.5 -14.5v1z" />
    <glyph glyph-name="FL00EEh" unicode="&#xce;" horiz-adv-x="634" 
d="M621 151h-193l69 322h193l22 106h-500l-22 -106h188l-69 -322h-188l-23 -107h500zM608 656l-55 167h-83l-125 -167h85l68 94l27 -94h83zM501 625l-17 60l-43 -60h-153l171 229h117l76 -229h-151zM621 13h-558l35 168h187l56 261h-187l36 168h558l-36 -168h-192l-56 -261
h192zM672 195h-193l50 234h193l42 195h-97l-81 243h-132l-181 -243h-93l-42 -195h188l-50 -234h-188l-41 -195h584zM488 624h-33l23 33z" />
    <glyph glyph-name="FL00CFh" unicode="&#xcf;" horiz-adv-x="634" 
d="M621 150h-193l67 318h193l23 106h-500l-23 -106h188l-67 -318h-188l-23 -106h500zM507 695q-5 -23 9.5 -39.5t42.5 -16.5t50 16.5t27 39.5t-10 39.5t-43 16.5t-49.5 -16.5t-26.5 -39.5zM335 695q-5 -23 9.5 -39.5t42.5 -16.5t50 16.5t27 39.5t-10 39.5t-43 16.5
t-49.5 -16.5t-26.5 -39.5zM306 695q8 36 39.5 61.5t71.5 25.5q29 0 49.5 -14.5t25.5 -37.5q16 23 42 37.5t55 14.5q40 0 61.5 -25.5t14.5 -61.5q-8 -36 -40.5 -61t-72.5 -25q-29 0 -49 14t-26 38q-15 -24 -41.5 -38t-55.5 -14q-40 0 -61 25t-13 61zM621 13h-558l35 167h187
l55 258h-187l35 166h558l-35 -166h-192l-55 -258h192zM293 695q-11 -48 21 -77h-136l-41 -193h188l-49 -232h-188l-41 -193h584l41 193h-193l49 232h193l41 193h-140q21 14 36 34t20 43q8 42 -16 71t-70 29q-27 0 -52 -11t-43 -29q-10 18 -30 29t-47 11q-23 0 -44 -8
t-38 -21.5t-29 -31.5t-16 -39zM486 618h-36q5 4 11 8.5t11 9.5q5 -9 14 -18z" />
    <glyph glyph-name="FL00AAh" unicode="&#xd0;" horiz-adv-x="679" 
d="M308 252q-3 -26 10 -46t54 -20h134l28 133h-135q-40 0 -60 -16t-31 -51zM199 423q42 42 89 62.5t98 20.5h188l19 90h210l-127 -596h-397q-50 0 -89.5 21t-62.5 64l2 -2q-19 29 -26.5 60.5t-5.5 67.5h-5q2 10 4 19.5t5 18.5l5 22l2 2q16 46 38.5 84t54.5 67zM207 414l1 2
q-63 -63 -91 -151l-2 -12q-2 -7 -3.5 -14t-3.5 -15h2q-7 -74 30 -132l-1 2q23 -41 59.5 -61t83.5 -20h384l121 570h-184l-19 -90h-201q-48 0 -92.5 -19.5t-83.5 -59.5zM295 254q13 40 36 59t71 19h148l-34 -159h-147q-25 0 -40 7t-23.5 18t-10.5 26t0 30zM627 554h124
l-109 -512h-354q-40 0 -71.5 17t-49.5 52q-21 33 -26 68t3 73l1 1h-2q17 80 84 144q33 34 71.5 50.5t78.5 16.5h231zM408 362q-63 0 -94.5 -26.5t-48.5 -81.5q-3 -21 -0.5 -40.5t13.5 -35t31.5 -25t53.5 -9.5h177l46 218h-178z" />
    <glyph glyph-name="FL00D1h" unicode="&#xd1;" horiz-adv-x="698" 
d="M662 44l67 314q19 83 -22 150q-18 35 -49 52.5t-71 17.5h-374l-114 -534h125l91 427h195q38 0 59.5 -11t31 -29t9.5 -42q0 -23 -6 -49l-63 -296h121zM458 797l-120 -145h87l62 78l34 -79h84l122 145h-87l-64 -79l-33 80h-85zM565 828l23 -54l42 53h158l-172 -206h-117
l-23 53l-42 -52h-157l172 206h116zM506 13l69 327q4 20 4.5 38t-6.5 32t-23.5 22.5t-45.5 8.5h-165l-91 -428h-184l126 595h403q47 0 83 -20t59 -62l-1 2q45 -76 25 -170l-73 -345h-180zM446 841l-185 -219h-81l-132 -622h210l91 427h152q25 0 39 -7t20 -19t6 -28t-4 -33
l-72 -340h206l76 358q21 99 -27 178l2 -1q-39 72 -118 84l185 221h-189l-33 -40l-16 41h-130zM483 622h-34l22 26z" />
    <glyph glyph-name="FL00D2h" unicode="&#xd2;" horiz-adv-x="697" 
d="M563 798q-5 8 -13 19t-18 11q-18 0 -39 -15q-13 -12 -26 -20.5t-15 -22.5q-4 -16 3 -28l43 -68q10 -18 28 -18q20 0 39 15q12 10 18.5 19t9.5 23q2 9 1.5 16t-4.5 15zM700 227l37 173q10 45 3 78.5t-35.5 56t-81 34t-134.5 11.5q-79 0 -134.5 -12.5t-92.5 -36t-58 -57.5
t-30 -77l-36 -173q-9 -42 -3 -75.5t33 -57t77.5 -35.5t129.5 -12q82 0 139 11.5t95.5 34t59.5 57t31 80.5zM467 474q51 0 81.5 -5.5t45.5 -18t16.5 -33t-4.5 -51.5l-23 -108q-7 -31 -17.5 -51.5t-31 -33t-53 -18t-83.5 -5.5q-45 0 -73.5 7.5t-43.5 21t-18.5 32.5t1.5 43
l26 121q4 22 16 40.5t33 31.5t52.5 20t75.5 7zM619 762q9 -23 4 -49q-5 -22 -14.5 -36t-28.5 -29q-16 -13 -30.5 -17.5t-29.5 -4.5q-32 0 -48 28l-45 68q-6 11 -6.5 22.5t2.5 25.5q4 20 15.5 32t25.5 22q5 3 8 6t7 6q15 11 30.5 17t29.5 6q20 0 32.5 -15.5t17.5 -27.5l1 1z
M460 443q-71 0 -102.5 -18.5t-37.5 -49.5l-26 -121q-4 -17 -1 -30.5t15 -23t35.5 -14.5t60.5 -5q42 0 68.5 4t43 13t24.5 23.5t13 36.5l23 108q4 22 2.5 36.5t-14 23.5t-37.5 13t-67 4zM730 227q-11 -54 -35 -94t-66.5 -66.5t-106 -40t-153.5 -13.5q-88 0 -143.5 14.5
t-85 41.5t-36 66t4.5 89l36 173q11 50 34 89.5t64.5 67t103 42t149.5 14.5q90 0 148 -13t89 -39.5t38 -66t-4 -91.5zM743 227l37 173q11 51 6 90.5t-30.5 67t-73 43.5t-121.5 21q13 6 26 16q21 18 32.5 34.5t16.5 40.5q6 30 -7 62l-28 50v-1q-3 6 -8.5 14.5t-13 16t-17 12.5
t-21.5 5q-33 0 -75 -31l-8 -6q-16 -12 -29.5 -26.5t-18.5 -38.5q-8 -34 6 -57l44 -68l-2 4q8 -17 20 -25q-86 -2 -147 -18.5t-101.5 -45.5t-63.5 -70t-34 -93l-36 -173q-11 -53 -4.5 -94.5t37 -70.5t88 -44t149.5 -15q94 0 160 14t110.5 42.5t69.5 71t37 99.5zM457 430
q38 0 60.5 -3.5t34 -11t13.5 -19.5t-2 -30l-23 -108q-4 -18 -11.5 -30.5t-22 -20t-38.5 -10.5t-61 -3q-66 0 -86 16.5t-14 43.5l26 121q5 25 32.5 40t91.5 15z" />
    <glyph glyph-name="FL00D3h" unicode="&#xd3;" horiz-adv-x="697" 
d="M469 744q-6 -8 -9.5 -15t-5.5 -16q-3 -14 -1 -23t11 -19q12 -15 31 -15q20 0 36 18l73 68q11 12 15 28q2 14 -6.5 22.5t-16.5 20.5q-14 15 -33 15q-10 0 -22 -11t-20 -19zM700 227l37 173q10 45 3 78.5t-35.5 56t-81 34t-134.5 11.5q-79 0 -134.5 -12.5t-92.5 -36
t-58 -57.5t-30 -77l-36 -173q-9 -42 -3 -75.5t33 -57t77.5 -35.5t129.5 -12q82 0 139 11.5t95.5 34t59.5 57t31 80.5zM467 474q51 0 81.5 -5.5t45.5 -18t16.5 -33t-4.5 -51.5l-23 -108q-7 -31 -17.5 -51.5t-31 -33t-53 -18t-83.5 -5.5q-45 0 -73.5 7.5t-43.5 21t-18.5 32.5
t1.5 43l26 121q4 22 16 40.5t33 31.5t52.5 20t75.5 7zM501 817l-1 -1q12 12 31 27.5t39 15.5q29 0 50 -23l8 -12q11 -11 18 -22.5t3 -31.5q-6 -27 -27 -48l-72 -68q-28 -28 -61 -28q-15 0 -27 4.5t-23 17.5q-12 15 -15.5 29t1.5 36q6 28 24 49zM460 443q-71 0 -102.5 -18.5
t-37.5 -49.5l-26 -121q-4 -17 -1 -30.5t15 -23t35.5 -14.5t60.5 -5q42 0 68.5 4t43 13t24.5 23.5t13 36.5l23 108q4 22 2.5 36.5t-14 23.5t-37.5 13t-67 4zM730 227q-11 -54 -35 -94t-66.5 -66.5t-106 -40t-153.5 -13.5q-88 0 -143.5 14.5t-85 41.5t-36 66t4.5 89l36 173
q11 50 34 89.5t64.5 67t103 42t149.5 14.5q90 0 148 -13t89 -39.5t38 -66t-4 -91.5zM743 227l37 173q11 54 5 94.5t-35 68.5t-82.5 43t-137.5 17q18 10 31 26l-4 -4l74 68q24 25 31 57q5 24 -3.5 38.5t-19.5 26.5l-4 6q-29 31 -63 31q-12 0 -23.5 -5t-22 -12.5t-19.5 -16
t-15 -14.5v1l-47 -50q-28 -33 -33 -62q-5 -25 -2 -41.5t18 -33.5q4 -5 7.5 -8.5t8.5 -7.5q-77 -5 -131 -22t-91 -45.5t-58.5 -68.5t-31.5 -89l-36 -173q-11 -53 -4.5 -94.5t37 -70.5t88 -44t149.5 -15q94 0 160 14t110.5 42.5t69.5 71t37 99.5zM457 430q38 0 60.5 -3.5
t34 -11t13.5 -19.5t-2 -30l-23 -108q-4 -18 -11.5 -30.5t-22 -20t-38.5 -10.5t-61 -3q-66 0 -86 16.5t-14 43.5l26 121q5 25 32.5 40t91.5 15z" />
    <glyph glyph-name="FL00D4h" unicode="&#xd4;" horiz-adv-x="697" 
d="M642 656l-57 167h-84l-127 -167h87l69 94l28 -94h84zM700 226l37 174q9 45 2.5 78.5t-35 56t-81 33.5t-134.5 11q-79 0 -134.5 -12.5t-92.5 -35.5t-58 -57t-30 -77l-36 -173q-9 -42 -3 -75.5t33 -57t77.5 -35.5t129.5 -12q82 0 139 11.5t95.5 34t59.5 56.5t31 80z
M467 473q51 0 81.5 -5.5t45.5 -18t16.5 -33t-4.5 -50.5l-23 -108q-7 -31 -17.5 -51.5t-31 -33t-53 -18t-83.5 -5.5q-45 0 -74 7t-44 20.5t-18 32.5t2 43l26 122q4 22 16 40.5t33 31t52.5 19.5t75.5 7zM533 625l-17 60l-43 -60h-156l173 229h118l78 -229h-153zM460 443
q-71 0 -102.5 -18.5t-37.5 -49.5l-26 -122q-4 -17 -1 -30t15 -22.5t35.5 -14.5t60.5 -5q42 0 68.5 3.5t43 12.5t24.5 24t13 37l23 108q4 22 2.5 36.5t-14 23.5t-37.5 13t-67 4zM730 226q-11 -53 -35 -93t-66.5 -66.5t-106 -40t-153.5 -13.5q-88 0 -143.5 14.5t-85 41.5
t-36 66t4.5 89l36 173q11 50 34 89.5t64.5 67t103 42t149.5 14.5q90 0 148 -13t89 -39.5t38 -66t-4 -91.5zM743 226l37 174q18 86 -11.5 139t-126.5 73h64l-88 255h-134l-192 -255h68q-54 -11 -93 -30t-66 -46t-43.5 -62t-25.5 -77l-36 -173q-11 -53 -4.5 -94.5t37 -70.5
t88 -44t149.5 -15q94 0 160 14t110.5 42.5t69.5 70.5t37 99zM457 429q38 0 60.5 -3t34 -10.5t13.5 -19.5t-2 -30l-23 -108q-4 -18 -11.5 -30.5t-22 -20t-38.5 -10.5t-61 -3q-66 0 -86 16t-14 43l26 122q5 25 32.5 39.5t91.5 14.5zM499 624h-13l24 33l10 -33h-21z" />
    <glyph glyph-name="FL00D5h" unicode="&#xd5;" horiz-adv-x="697" 
d="M458 799l-121 -145h87l63 78l34 -79h84l122 145h-87l-64 -79l-33 80h-85zM700 226l37 173q9 45 2.5 78.5t-35 56t-81 33.5t-134.5 11q-79 0 -134.5 -12.5t-92.5 -35.5t-58 -57t-30 -77l-37 -173q-9 -42 -2.5 -75.5t33.5 -56.5t77.5 -35t129.5 -12q82 0 139 11.5t95.5 34
t59.5 56.5t31 80zM466 472q51 0 82 -5.5t46 -18t16.5 -33t-4.5 -50.5l-23 -108q-7 -30 -17.5 -50.5t-31 -33t-53 -18t-83.5 -5.5q-45 0 -74 7t-44 20.5t-18 32.5t2 43l25 121q5 22 16.5 40.5t32.5 31t52.5 19.5t75.5 7zM460 442q-71 0 -102.5 -18.5t-38.5 -49.5l-25 -121
q-4 -17 -1 -30t15 -23t35.5 -15t60.5 -5q42 0 68.5 4t43 13t24.5 23.5t13 36.5l23 108q4 22 2.5 36.5t-14 23.5t-37.5 13t-67 4zM564 830l23 -54l42 53h158l-172 -206h-117l-23 52l-41 -51h-157l171 206h116zM730 226q-11 -54 -35 -94t-66.5 -66.5t-106 -39.5t-153.5 -13
q-88 0 -143.5 14t-85 41t-36.5 66t4 89l37 173q10 50 33.5 89.5t64.5 66.5t102.5 41.5t149.5 14.5q90 0 148 -13t89 -39.5t38.5 -65.5t-3.5 -91zM743 226l37 173q9 45 6 81t-21 62.5t-53 44.5t-89 27l190 228h-188l-34 -40l-16 41h-130l-194 -233h109q-54 -11 -93 -30
t-66 -46t-43.5 -61.5t-25.5 -76.5l-37 -173q-11 -53 -4.5 -94.5t37 -70t88.5 -43.5t150 -15q94 0 160 14t110.5 42t69.5 70.5t37 99.5zM457 428q38 0 60.5 -3t34 -10.5t13.5 -19.5t-2 -30l-23 -108q-4 -18 -11.5 -30t-22 -19.5t-38.5 -10.5t-61 -3q-66 0 -86 16t-14 43
l25 121q6 25 33.5 39.5t91.5 14.5zM446 620l25 30l12 -28q-10 0 -19 -0.5t-18 -1.5z" />
    <glyph glyph-name="FL00D6h" unicode="&#xd6;" horiz-adv-x="697" 
d="M538 694q-5 -23 10 -39.5t43 -16.5t50.5 16.5t27.5 39.5t-11 39.5t-44 16.5t-49.5 -16.5t-26.5 -39.5zM363 694q-5 -23 10 -39.5t44 -16.5q28 0 50.5 16.5t27.5 39.5t-11 39.5t-44 16.5q-29 0 -50.5 -16.5t-26.5 -39.5zM700 224l36 172q9 44 2.5 77.5t-35 56t-81 33.5
t-134.5 11q-79 0 -134.5 -12.5t-92.5 -35.5t-57.5 -56.5t-29.5 -76.5l-37 -171q-9 -42 -2.5 -75.5t33.5 -56t77.5 -34.5t129.5 -12q82 0 139 11t95.5 33.5t59.5 56.5t31 79zM466 469q51 0 81.5 -5.5t45.5 -18t16.5 -33t-4.5 -50.5l-23 -107q-6 -30 -16.5 -50.5t-31 -33
t-53 -17.5t-83.5 -5q-45 0 -74 7t-44 20.5t-18.5 32.5t1.5 42l26 120q5 22 16.5 40.5t32.5 31t52.5 19.5t75.5 7zM334 694q8 36 40 61.5t73 25.5q29 0 49 -14.5t27 -37.5q15 23 41.5 37.5t56.5 14.5q20 0 36 -7t26.5 -18.5t15 -27.5t0.5 -34t-15 -33.5t-26.5 -27.5
t-34.5 -18.5t-39 -6.5q-30 0 -50.5 14t-25.5 38q-17 -24 -43 -38t-55 -14q-41 0 -62.5 25t-13.5 61zM459 439q-71 0 -102 -18.5t-38 -49.5l-26 -120q-3 -17 0 -30t15 -22.5t35.5 -14.5t60.5 -5q42 0 68.5 4t42.5 13t24 23.5t13 35.5l23 107q4 22 2.5 36.5t-14 23.5t-37.5 13
t-67 4zM730 224q-11 -53 -35 -92.5t-66.5 -66t-106 -39.5t-153.5 -13q-88 0 -143.5 14t-85 41t-36.5 66t4 88l37 171q10 50 33 89t64 66t102.5 41.5t149.5 14.5q90 0 148 -13t89.5 -39t38.5 -65t-4 -91zM321 694q-7 -29 3.5 -52.5t33.5 -36.5q-53 -10 -92 -29t-66 -45.5
t-43 -61t-25 -76.5l-37 -171q-11 -53 -4.5 -94t37 -69.5t88.5 -43.5t150 -15q94 0 160 14t110.5 42t69.5 70t37 98l36 172q19 86 -12 138.5t-130 72.5q28 13 48 35.5t27 51.5q8 42 -16.5 71t-71.5 29q-27 0 -52.5 -11t-43.5 -29q-11 18 -31 29t-47 11q-23 0 -44.5 -8
t-39 -21.5t-29.5 -31.5t-16 -39zM456 425q38 0 60.5 -3t34 -10.5t13.5 -19.5t-2 -30l-23 -107q-4 -18 -11 -30t-21.5 -19.5t-38.5 -10.5t-61 -3q-33 0 -54 4t-32 12t-14.5 18.5t-0.5 24.5l26 120q5 25 32.5 39.5t91.5 14.5zM516 618h-19h-15q11 6 20 17q6 -11 14 -17z" />
    <glyph glyph-name="FL00D7h" unicode="&#xd7;" horiz-adv-x="452" 
d="M161 450l96 -185l-174 -183h92l114 120l63 -120h92l-95 183l174 185h-92l-115 -123l-63 123h-92zM273 478l53 -103l96 103h161l-200 -213l110 -211h-161l-53 101l-96 -101h-161l200 211l-110 213h161zM89 490l118 -225l-210 -223h190l88 93l49 -93h191l-117 222l213 226
h-193l-88 -94l-48 94h-193z" />
    <glyph glyph-name="FL00D8h" unicode="&#xd8;" horiz-adv-x="697" 
d="M463 42q109 0 168 68t85 190q26 120 -6 187t-129 67h-183q-98 0 -158 -67t-86 -187q-13 -61 -13 -109t16.5 -81t50.5 -50.5t89 -17.5h166zM267 244l22 106q5 22 14.5 40.5t25.5 32t39 21.5t56 8h36l-159 -297q-49 20 -34 89zM601 350l-22 -106q-21 -98 -134 -98h-28
l156 293q24 -13 29.5 -36t-1.5 -53zM572 350q4 17 1 33l-110 -208q73 6 87 69zM297 244q-6 -25 0 -40l117 219q-48 -2 -68 -22t-27 -51zM291 13q-63 0 -102 19.5t-58 56.5t-19.5 90t13.5 121q28 133 97 208t182 75h183q112 0 149.5 -75t9.5 -208q-14 -68 -37.5 -121
t-58.5 -90t-82.5 -56.5t-110.5 -19.5h-166zM454 0q66 0 116.5 20.5t87.5 59t61.5 94t39.5 126.5q29 139 -11 217.5t-158 78.5h-183q-119 0 -192.5 -78.5t-102.5 -217.5q-15 -71 -14.5 -126.5t21 -94t62 -59t107.5 -20.5h166zM332 350q5 21 18 37t42 21l-78 -146zM487 192
l64 120l-14 -68q-9 -41 -50 -52z" />
    <glyph glyph-name="FL00D9h" unicode="&#xd9;" horiz-adv-x="698" 
d="M699 216l77 365h-125l-70 -333q-7 -31 -17.5 -51.5t-30.5 -33t-52.5 -18t-83.5 -5.5q-45 0 -74 7t-44 20.5t-18 32.5t2 43l71 338h-121l-77 -365q-9 -43 -3 -77t33 -57.5t77.5 -36t130.5 -12.5q82 0 139 11.5t95.5 34.5t59.5 57t31 80zM563 799q-5 8 -13 19t-18 11
q-19 0 -38 -15q-13 -12 -26 -20.5t-16 -22.5q-3 -16 3 -28l43 -68q9 -18 29 -18q19 0 38 15q13 10 19 19t9 23q3 18 -2 31zM619 763q9 -23 4 -49q-5 -22 -14.5 -36t-28.5 -29q-16 -13 -30.5 -17.5t-29.5 -4.5q-33 0 -48 28l-44 68q-11 20 -5 48q5 20 16.5 32t24.5 22
q5 3 8 6t7 6q31 23 60 23q20 0 32.5 -15.5t18.5 -27.5v1zM729 216q-11 -54 -35 -94t-66.5 -66.5t-106 -39.5t-153.5 -13q-88 0 -144 14.5t-85.5 42t-36 67t4.5 89.5l84 395h180l-78 -368q-4 -17 -1 -30t15 -23t35.5 -15t60.5 -5q42 0 68.5 4t43 13t24.5 24t13 37l77 363h184
zM742 216l87 409h-210l-80 -377q-4 -18 -11.5 -30.5t-22 -20t-38.5 -10.5t-61 -3q-66 0 -86 16t-14 43l81 382h-206l-87 -409q-11 -54 -4.5 -96t37 -71t88.5 -44.5t150 -15.5q94 0 160 14t110.5 42.5t69.5 71t37 99.5zM602 826l-1 -1q-3 7 -8 15t-12.5 15.5t-17 12.5
t-21.5 5q-34 0 -75 -30l-8 -7q-17 -12 -30.5 -26.5t-18.5 -38.5q-8 -34 6 -57l44 -69l-1 5q15 -37 58 -37q18 0 35 5.5t35 20.5q21 18 32.5 34t16.5 41q6 30 -7 62z" />
    <glyph glyph-name="FL00DAh" unicode="&#xda;" horiz-adv-x="698" 
d="M699 216l77 365h-125l-70 -333q-7 -31 -17.5 -51.5t-30.5 -33t-52.5 -18t-83.5 -5.5q-45 0 -74 7t-44 20.5t-18 32.5t2 43l71 338h-121l-77 -365q-9 -43 -3 -77t33 -57.5t77.5 -36t130.5 -12.5q82 0 139 11.5t95.5 34.5t59.5 57t31 80zM469 745q-6 -8 -9.5 -15t-5.5 -16
q-3 -14 -0.5 -23t10.5 -19q12 -15 32 -15t35 18l73 68q12 11 15 28q3 14 -6 22.5t-17 20.5q-14 15 -33 15q-10 0 -22 -11t-20 -19zM501 818v-1l13.5 13.5t16.5 14t19 11t20 4.5q30 0 50 -23l8 -12q11 -11 18 -22.5t3 -31.5q-6 -28 -26 -48l-73 -68q-27 -28 -61 -28
q-15 0 -27 4.5t-23 17.5q-12 15 -15.5 29t1.5 36q6 28 24 49zM729 216q-11 -54 -35 -94t-66.5 -66.5t-106 -39.5t-153.5 -13q-88 0 -144 14.5t-85.5 42t-36 67t4.5 89.5l84 395h180l-78 -368q-4 -17 -1 -30t15 -23t35.5 -15t60.5 -5q42 0 68.5 4t43 13t24.5 24t13 37l77 363
h184zM742 216l87 409h-210l-80 -377q-4 -18 -11.5 -30.5t-22 -20t-38.5 -10.5t-61 -3q-66 0 -86 16t-14 43l81 382h-206l-87 -409q-11 -54 -4.5 -96t37 -71t88.5 -44.5t150 -15.5q94 0 160 14t110.5 42.5t69.5 71t37 99.5zM445 776q-28 -33 -33 -62q-5 -25 -1.5 -41.5
t17.5 -33.5q12 -15 26 -20.5t32 -5.5q43 0 75 37l-4 -5l74 69q13 13 20 26.5t11 30.5q5 24 -3 38.5t-19 26.5l-5 7q-30 30 -62 30q-12 0 -23.5 -5t-22.5 -12.5t-20 -15.5t-15 -15l1 1z" />
    <glyph glyph-name="FL00DBh" unicode="&#xdb;" horiz-adv-x="698" 
d="M699 216l77 364h-125l-70 -333q-7 -30 -17.5 -51t-30.5 -33.5t-52.5 -18t-83.5 -5.5q-45 0 -74 7.5t-44 21t-18 32.5t2 43l71 337h-121l-77 -364q-9 -43 -3 -77t33 -57.5t77.5 -36t130.5 -12.5q82 0 139 11.5t95.5 34.5t59.5 57t31 80zM643 657l-58 167h-84l-126 -167h87
l69 94l28 -94h84zM533 626l-17 60l-43 -60h-156l173 229h118l78 -229h-153zM729 216q-11 -54 -35 -94t-66.5 -66.5t-106 -39.5t-153.5 -13q-88 0 -144 14.5t-85.5 42t-36 67t4.5 89.5l84 395h180l-78 -368q-4 -17 -1 -30t15 -23t35.5 -15t60.5 -5q42 0 68.5 4t43 13
t24.5 23.5t13 36.5l77 364h184zM742 216l87 408h-127l-84 244h-133l-183 -244h-121l-87 -408q-11 -54 -4.5 -96t37 -71t88.5 -44.5t150 -15.5q94 0 160 14t110.5 42.5t69.5 71t37 99.5zM406 184q-66 0 -86 16t-14 43l78 370h93l33 45l13 -45h93l-77 -366q-4 -18 -11.5 -30
t-22 -19.5t-38.5 -10.5t-61 -3z" />
    <glyph glyph-name="FL00DCh" unicode="&#xdc;" horiz-adv-x="698" 
d="M698 214l77 361h-125l-70 -330q-6 -30 -16.5 -50.5t-31 -33t-53 -18t-83.5 -5.5q-45 0 -73.5 7t-43.5 20.5t-18.5 32.5t1.5 43l71 334h-121l-77 -361q-9 -43 -2.5 -76.5t33.5 -57t77.5 -35.5t130.5 -12q82 0 139 11.5t95 34t59.5 56.5t30.5 79zM538 695q-5 -23 10 -39.5
t43 -16.5q29 0 51 16.5t27 39.5q5 24 -10 40.5t-44 16.5q-28 0 -50 -16.5t-27 -40.5zM363 695q-5 -23 10 -39.5t44 -16.5q28 0 50.5 16.5t27.5 39.5q5 24 -10.5 40.5t-43.5 16.5q-29 0 -51 -16.5t-27 -40.5zM334 695q8 37 40 62t73 25q30 0 50.5 -14.5t25.5 -37.5
q16 23 42 37.5t56 14.5q41 0 63.5 -25t14.5 -62q-8 -36 -41 -61t-74 -25q-30 0 -50 14t-26 38q-15 -24 -41.5 -38t-56.5 -14q-20 0 -36 6.5t-26 18.5t-14 27.5t0 33.5zM728 214q-11 -53 -35 -93t-66 -66t-105.5 -39t-153.5 -13q-88 0 -144 14.5t-85.5 41.5t-36.5 66t4 89
l84 391h180l-78 -364q-3 -17 0 -30t15 -22.5t35.5 -14.5t60.5 -5q42 0 68.5 3.5t42.5 12.5t24 23.5t13 36.5l77 360h184zM321 695q-11 -47 21 -76h-162l-87 -405q-11 -53 -4.5 -95t37.5 -71t89 -44t150 -15q94 0 160 14t110 42t69 70t37 99l87 405h-170q20 14 34.5 33.5
t19.5 42.5q9 42 -16 71t-72 29q-27 0 -52 -11t-44 -29q-11 18 -31 29t-47 11q-23 0 -44.5 -8t-39 -21.5t-29.5 -31.5t-16 -39zM406 182q-33 0 -54 4t-32 12t-14.5 18.5t-0.5 24.5l76 357q6 -2 12 -2h15q27 0 51.5 11t42.5 29q11 -19 32 -29.5t48 -10.5q8 0 15.5 0.5
t15.5 2.5l-75 -354q-4 -18 -11 -30t-21.5 -19.5t-38.5 -10.5t-61 -3z" />
    <glyph glyph-name="FL00DDh" unicode="&#xdd;" 
d="M780 580h-127l-45 -211h-240q-60 14 -57 75l29 137h-127l-12 -58q-14 -63 -13.5 -112.5t17.5 -83.5t51 -52t88 -18v1h241q-23 -59 -65 -80.5t-97 -21.5h-173l-24 -112h204q121 0 194.5 70.5t99.5 195.5zM488 744q-11 -14 -14 -31q-3 -14 -1 -23t11 -19q11 -15 31 -15
t36 18l73 68q11 12 15 28q2 14 -7 22.5t-16 20.5q-15 15 -33 15q-10 0 -22.5 -11t-20.5 -19zM521 817l-1 -1q6 6 14 13.5t17 14t19 11t20 4.5q27 0 50 -23l8 -12q11 -11 17.5 -22.5t2.5 -31.5q-6 -28 -26 -48l-73 -68q-28 -28 -60 -28q-15 0 -27.5 4.5t-22.5 17.5
q-13 15 -16.5 29t1.5 36q5 26 24 49zM754 310q-29 -139 -111.5 -218t-218.5 -79h-233l37 173h202q34 0 61 9t46 32h-171q-70 0 -114.5 20t-67 58t-25 93t12.5 125l19 88h186l-35 -162q-3 -40 34 -49h209l45 210h187zM833 624h-213l-45 -210h-192q-29 7 -28 32l38 179h-212
l-22 -102q-15 -68 -13 -123t23 -94t62 -62.5t105 -28.5l-2 -1h12q7 -1 14 -1h16v1h125q-14 -8 -31 -11t-37 -3h-215l-43 -200h246q142 0 228.5 82t117.5 228zM464 775q-28 -33 -33 -62q-5 -25 -1.5 -41.5t17.5 -33.5q11 -15 25.5 -20.5t33.5 -5.5q43 0 75 37l-4 -4l74 68
q22 24 30 57q5 24 -3 38.5t-19 26.5l-4 6q-29 31 -63 31q-12 0 -23.5 -5t-22 -12.5t-20 -16t-15.5 -14.5v1zM355 451l-1 -3z" />
    <glyph glyph-name="FL00DEh" unicode="&#xde;" horiz-adv-x="678" 
d="M664 146l21 100q8 38 2 75.5t-25 67.5t-49.5 48.5t-70.5 18.5h-230l21 98h-125l-109 -512h125l22 104h418zM466 354q33 0 53.5 -8t32 -22t14.5 -32.5t0 -39.5h-297l21 102h176zM313 325l-9 -44h231q-5 20 -22 32t-53 12h-147zM269 117l-22 -104h-183l121 570h183l-21 -98
h201q46 0 81.5 -21t57.5 -55t29.5 -77t-1.5 -86l-27 -129h-419zM698 104l30 142q10 46 2 91t-31.5 81t-61 58t-86.5 22h-188l21 98h-209l-127 -596h209l22 104h419zM457 312q40 0 55 -18h-193l4 18h134z" />
    <glyph glyph-name="FL00DFh" unicode="&#xdf;" horiz-adv-x="640" 
d="M198 -65l112 528h148q33 0 53 -8t29.5 -22t11 -33.5t-3.5 -41.5h-182l-23 -108h182q-21 -100 -133 -100h-70l-23 -107h110q54 0 95 18t71.5 52t51 83t33.5 111q13 61 12 109.5t-16.5 82t-47 51.5t-79.5 18h-319l-135 -633h123zM40 -95l147 693h348q111 0 147 -77.5
t7 -213.5q-15 -69 -38 -123.5t-57.5 -92.5t-81.5 -58t-109 -20h-139l35 167h99q64 0 86 40h-176l35 168h177q-2 20 -17 32.5t-51 12.5h-119l-112 -528h-181zM231 -108l23 108h146q66 0 115.5 21t86 60.5t61 96.5t39.5 129q15 71 13.5 127.5t-21.5 95.5t-59 60t-97 21h-361
l-153 -719h207zM449 420q21 0 33.5 -5t18.5 -14h-162l4 19h106zM401 193h-106l3 14h158q-20 -14 -55 -14z" />
    <glyph glyph-name="FL00E0h" unicode="&#xe0;" horiz-adv-x="678" 
d="M219 44l20 94h299l-20 -94h124l114 536h-354q-41 0 -79.5 -19.5t-70.5 -51t-54.5 -70.5t-30.5 -79l-68 -316h120zM433 473h177l-49 -229h-298l26 122q6 22 17 41.5t28 34t41.5 23t57.5 8.5zM561 798q-5 8 -12.5 19t-17.5 11q-20 0 -39 -15q-14 -12 -26.5 -20.5
t-14.5 -22.5q-4 -16 3 -28l43 -68q10 -18 28 -18q19 0 38 15q12 10 18.5 19t9.5 23q3 18 -2 31zM617 762q10 -21 4 -49q-5 -22 -14.5 -36t-28.5 -29q-16 -13 -30 -17.5t-29 -4.5q-33 0 -49 28l-44 68q-6 11 -6.5 22.5t2.5 25.5q4 20 15.5 32t25.5 22l15 12q15 11 30.5 17
t29.5 6q20 0 32 -15.5t17 -27.5l1 1zM426 442q-50 0 -74.5 -23.5t-34.5 -55.5l-19 -89h239l36 168h-147zM64 13l74 347q9 45 35 89.5t63 80.5t81.5 58t91.5 22h384l-127 -597h-183l20 95h-240l-20 -95h-179zM600 825v-1q-3 6 -8.5 14.5t-13 16t-17 12.5t-21.5 5
q-33 0 -75 -31l-8 -6q-16 -12 -29.5 -26.5t-18.5 -38.5q-8 -34 6 -57l44 -68l-2 4q7 -16 19 -25h-64q-50 0 -97 -23.5t-86 -61t-66.5 -84.5t-37.5 -95l-77 -360h205l20 94h214l-20 -94h209l133 624h-245q5 2 10 5.5t11 8.5q21 18 32.5 34.5t16.5 40.5q6 30 -7 62zM423 429
h134l-30 -141h-213l16 74q8 27 29 47t64 20z" />
    <glyph glyph-name="FL00E1h" unicode="&#xe1;" horiz-adv-x="678" 
d="M219 44l20 94h299l-20 -94h124l114 536h-354q-41 0 -79.5 -19.5t-70.5 -51t-54.5 -70.5t-30.5 -79l-68 -316h120zM433 473h177l-49 -229h-298l26 122q6 22 17 41.5t28 34t41.5 23t57.5 8.5zM489 743q-11 -13 -15 -31q-2 -14 0 -23t10 -19q12 -15 31 -15q21 0 36 18l73 68
q11 13 14 28q3 14 -5.5 22.5t-16.5 20.5q-14 15 -33 15q-10 0 -22.5 -11t-20.5 -19zM521 816v-1q11 12 29.5 27.5t38.5 15.5q27 0 50 -23l9 -12q11 -11 17.5 -22.5t1.5 -31.5q-5 -28 -25 -48l-72 -68q-28 -28 -61 -28q-15 0 -27 4.5t-22 17.5q-13 15 -17 29t1 36
q3 14 9.5 26t15.5 23zM426 442q-50 0 -74.5 -23.5t-34.5 -55.5l-19 -89h239l36 168h-147zM64 13l74 347q9 45 35 89.5t63 80.5t81.5 58t91.5 22h384l-127 -597h-183l20 95h-240l-20 -95h-179zM465 774q-27 -33 -34 -62q-5 -25 -1.5 -41.5t17.5 -33.5q7 -9 15 -13h-50
q-50 0 -97 -23.5t-86 -61t-66.5 -84.5t-37.5 -95l-77 -360h205l20 94h214l-20 -94h209l133 624h-256q12 7 28 24l-4 -4l73 68q24 24 30 57q5 24 -2.5 38.5t-18.5 26.5l-4 6q-29 31 -63 31q-12 0 -23.5 -5t-22 -12.5t-19.5 -16t-15 -14.5v1zM423 429h134l-30 -141h-213l16 74
q8 27 29 47t64 20z" />
    <glyph glyph-name="FL00E2h" unicode="&#xe2;" horiz-adv-x="678" 
d="M219 44l20 94h299l-20 -94h124l114 535h-354q-41 0 -79.5 -19.5t-70.5 -51t-54.5 -70.5t-31.5 -79l-67 -315h120zM432 472h177l-48 -229h-298l26 123q6 22 16.5 41t28 33.5t41.5 23t57 8.5zM657 654l-56 167h-84l-126 -167h86l69 94l27 -94h84zM426 442
q-50 0 -74.5 -23.5t-34.5 -55.5l-19 -89h239l36 168h-147zM548 623l-17 60l-43 -60h-155l172 229h118l77 -229h-152zM64 13l73 346q10 45 36 90t63 81t81.5 58t91.5 22h384l-127 -597h-183l20 95h-240l-20 -95h-179zM253 0l20 94h214l-20 -94h209l132 623h-93l-81 242h-133
l-192 -255h29q-39 -14 -74 -40.5t-63.5 -60.5t-48.5 -72.5t-28 -77.5l-76 -359h205zM423 428h134l-30 -141h-213l16 75q8 27 29 46.5t64 19.5zM534 623h-32l23 32z" />
    <glyph glyph-name="FL00E3h" unicode="&#xe3;" horiz-adv-x="678" 
d="M219 44l20 94h299l-20 -94h124l114 534h-354q-41 0 -79.5 -19.5t-70.5 -51t-54.5 -70.5t-31.5 -79l-67 -314h120zM432 471h177l-48 -228h-298l26 122q6 22 16.5 41t28 33.5t41.5 23t57 8.5zM472 798l-121 -145h86l62 78l35 -79h84l120 145h-86l-63 -79l-33 80h-84z
M426 441q-50 0 -74.5 -23.5t-34.5 -55.5l-19 -89h239l36 168h-147zM577 829l23 -54l42 53h157l-171 -206h-116l-24 52l-41 -51h-157l171 206h116zM64 13l73 345q10 45 36 89.5t62.5 80.5t81 58t91.5 22h384l-126 -595h-183l20 94h-240l-20 -94h-179zM458 842l-194 -233h75
q-39 -14 -74.5 -40.5t-64 -60t-48.5 -72.5t-28 -78l-76 -358h205l20 94h214l-20 -94h209l132 622h-167l184 219h-188l-33 -40l-16 41h-130zM423 427h134l-30 -140h-213l16 74q8 27 29 46.5t64 19.5zM496 622h-35l23 27z" />
    <glyph glyph-name="FL00E4h" unicode="&#xe4;" horiz-adv-x="678" 
d="M219 44l20 93h299l-20 -93h124l113 530h-354q-41 0 -79.5 -19.5t-70.5 -50.5t-54.5 -70t-30.5 -78l-67 -312h120zM431 468h177l-48 -227h-298l26 121q6 22 16.5 41t28 33.5t41.5 23t57 8.5zM536 694q-5 -23 10 -39.5t43 -16.5t50.5 16.5t27.5 39.5t-11 39.5t-44 16.5
t-49.5 -16.5t-26.5 -39.5zM363 694q-5 -23 9.5 -39.5t42.5 -16.5q29 0 51 16.5t27 39.5t-10.5 39.5t-44.5 16.5q-28 0 -49 -16.5t-26 -39.5zM425 438q-50 0 -74.5 -23.5t-33.5 -54.5l-19 -89h239l35 167h-147zM333 694q8 36 40 61.5t72 25.5q30 0 50 -14.5t27 -37.5
q15 23 41 37.5t56 14.5q20 0 36 -7t26.5 -18.5t14.5 -27.5t0 -34t-15 -33.5t-26 -27.5t-34 -18.5t-39 -6.5q-30 0 -50 14t-25 38q-17 -24 -43 -38t-56 -14q-40 0 -61.5 25t-13.5 61zM64 13l73 343q9 45 35 89t62.5 79.5t81 57.5t91.5 22h384l-125 -591h-183l20 94h-240
l-20 -94h-179zM320 694q-6 -27 2 -49t28 -36q-41 -12 -78 -37.5t-67 -60t-51 -75t-30 -80.5l-76 -356h205l20 93h214l-20 -93h209l131 618h-153q44 28 55 76q8 42 -16 71t-71 29q-27 0 -52 -11t-43 -29q-11 18 -31 29t-48 11q-23 0 -44.5 -8t-38.5 -21.5t-29 -31.5t-16 -39z
M422 425h134l-29 -140h-213l15 74q8 26 29 46t64 20zM514 618h-34q11 6 21 17q4 -10 13 -17z" />
    <glyph glyph-name="FL00E5h" unicode="&#xe5;" horiz-adv-x="678" 
d="M219 44l20 93h299l-20 -93h124l113 530h-354q-41 0 -79.5 -19.5t-70.5 -50.5t-54.5 -70t-30.5 -78l-67 -312h120zM431 468h177l-48 -227h-298l26 121q6 22 16.5 41t28 33.5t41.5 23t57 8.5zM449 693q-5 -23 10 -39.5t43 -16.5t50.5 16.5t27.5 39.5t-10.5 39.5t-43.5 16.5
t-50 -16.5t-27 -39.5zM419 693q4 18 15 34t26 27.5t34 18.5t39 7q40 0 62 -25.5t14 -61.5t-40.5 -61t-72.5 -25q-20 0 -36 6.5t-26.5 18.5t-14.5 27.5t0 33.5zM425 438q-50 0 -74.5 -23.5t-33.5 -54.5l-19 -89h239l35 167h-147zM64 13l73 343q9 45 35 89t62.5 79.5t81 57.5
t91.5 22h384l-125 -591h-183l20 94h-240l-20 -94h-179zM407 693q-5 -23 0.5 -42.5t19.5 -32.5h-17q-50 0 -97 -23t-86 -60.5t-66 -84.5t-37 -94l-76 -356h205l20 93h214l-20 -93h209l131 618h-238q20 13 34 32.5t19 42.5q9 42 -15.5 71t-70.5 29q-23 0 -44.5 -8t-39 -21.5
t-29.5 -31.5t-16 -39zM422 425h134l-29 -140h-213l15 74q8 26 29 46t64 20z" />
    <glyph glyph-name="FL00E6h" unicode="&#xe6;" horiz-adv-x="1125" 
d="M232 42l19 90h317l-19 -90h539l22 104h-289q-119 0 -98 98h330l22 106h-330q5 22 14.5 40.5t26 32t41 21.5t59.5 8h289l22 102h-784q-43 0 -83.5 -18.5t-73.5 -48.5t-56.5 -67.5t-31.5 -75.5l-64 -302h128zM448 452h187l-46 -219h-315l24 117q6 21 17 39.5t29 32.5
t43.5 22t60.5 8zM442 423q-53 0 -79 -22.5t-34 -53.5l-18 -85h253l34 161h-156zM67 13l70 331q9 43 36 86t65 77t84.5 55t96.5 21h816l-34 -160h-321q-38 0 -60 -12t-33 -31h326l-35 -165h-325q7 -40 74 -40h321l-34 -162h-602l19 90h-255l-19 -90h-190zM268 0l19 90h227
l-19 -90h629l40 188h-334q-38 0 -52 14h311l40 190h-315q11 8 26 13t37 5h334l40 186h-829q-53 0 -102.5 -22.5t-90 -58.5t-68.5 -81t-38 -90l-73 -344h218zM439 410h142l-29 -135h-226l16 71q8 26 29.5 45t67.5 19z" />
    <glyph glyph-name="FL00E7h" unicode="&#xe7;" horiz-adv-x="640" 
d="M197 -106h70q89 0 142.5 33.5t82.5 115.5h112l23 108h-271q-111 0 -89 101l23 109q4 22 13.5 41.5t25 33.5t39 22t55.5 8h271l23 106h-319q-96 0 -156.5 -70t-86.5 -193q-14 -62 -14 -112q0 -49 16 -83.5t49.5 -52.5t87.5 -18h78q-6 -15 -14.5 -23.5t-20.5 -12.5
t-27.5 -5t-35.5 -1h-54zM197 29q-65 27 -79.5 99t8.5 181q29 137 98.5 215t179.5 78h348l-35 -166h-300q-48 0 -69.5 -21.5t-28.5 -53.5l-23 -109q-15 -71 66 -71h300l-35 -168h-117q-35 -81 -94.5 -115.5t-154.5 -34.5h-99zM146 -150h112q98 0 159 34.5t99 115.5h121
l41 194h-313q-70 0 -56 58l23 109q5 26 23 44t59 18h313l41 192h-361q-117 0 -190.5 -81t-103.5 -225q-24 -111 -10 -185.5t79 -103.5z" />
    <glyph glyph-name="FL00E8h" unicode="&#xe8;" horiz-adv-x="640" 
d="M604 44l24 109h-271q-111 0 -90 102h308l24 112h-308q5 22 14.5 41.5t25 34t39 22.5t55.5 8h271l22 107h-319q-48 0 -87 -18t-69.5 -52.5t-52 -84t-34.5 -111.5q-14 -63 -14 -114q0 -50 15.5 -84.5t49 -53t87.5 -18.5h310zM549 798q-5 8 -12.5 19t-17.5 11q-19 0 -38 -15
q-14 -12 -26.5 -20.5t-14.5 -22.5q-4 -16 3 -28l42 -68q10 -18 28 -18q19 0 38 15q12 10 18.5 19t9.5 23q3 17 -3 31zM604 762q10 -21 4 -49q-5 -22 -14 -36t-28 -29q-16 -13 -30 -17.5t-29 -4.5q-32 0 -48 28l-44 68q-6 11 -6.5 22.5t2.5 25.5q4 20 15.5 32t25.5 22l15 12
q14 11 29.5 17t29.5 6q20 0 32 -15.5t17 -27.5l1 1zM288 13q-62 0 -100.5 20.5t-57 59.5t-18.5 94q0 56 15 127q29 139 99 217.5t180 78.5h348l-36 -168h-300q-36 0 -57 -12.5t-32 -32.5h306l-36 -172h-305q6 -42 69 -42h300l-36 -170h-339zM587 825v-1q-3 6 -8 14.5
t-12.5 16t-17 12.5t-21.5 5q-32 0 -74 -31l-8 -6q-16 -12 -29.5 -26.5t-18.5 -38.5q-8 -34 6 -57l43 -68l-1 4q4 -8 8 -14t11 -11h-56q-59 0 -106.5 -21t-84 -61t-63 -97.5t-41.5 -130.5q-16 -74 -15.5 -132t20 -98.5t60 -62t106.5 -21.5h352l42 197h-313q-35 0 -48 14h290
l42 200h-294q11 8 25 13t34 5h313l42 195h-219q5 2 10 5.5t11 8.5q22 18 33 34.5t16 40.5q6 30 -7 62z" />
    <glyph glyph-name="FL00E9h" unicode="&#xe9;" horiz-adv-x="640" 
d="M604 44l24 109h-271q-111 0 -90 102h308l24 112h-308q5 22 14.5 41.5t25 34t39 22.5t55.5 8h271l22 107h-319q-48 0 -87 -18t-69.5 -52.5t-52 -84t-34.5 -111.5q-14 -63 -14 -114q0 -50 15.5 -84.5t49 -53t87.5 -18.5h310zM493 745q-11 -14 -14 -31q-3 -14 -0.5 -23
t10.5 -19q11 -15 31 -15q19 0 35 18l72 68q12 12 15 28q3 14 -6 22.5t-17 20.5q-14 15 -32 15q-10 0 -22.5 -11t-19.5 -19zM526 818v-1q11 12 29.5 27.5t38.5 15.5q28 0 49 -23l8 -12q10 -11 17 -22.5t3 -31.5q-3 -14 -9 -25.5t-17 -22.5l-72 -68q-28 -28 -60 -28
q-15 0 -27 4.5t-22 17.5q-13 15 -16 29t2 36q6 27 23 49zM288 13q-62 0 -100.5 20.5t-57 59.5t-18.5 94q0 56 15 127q29 139 99 217.5t180 78.5h348l-36 -168h-300q-36 0 -57 -12.5t-32 -32.5h306l-36 -172h-305q6 -42 69 -42h300l-36 -170h-339zM469 776
q-14 -17 -21.5 -31.5t-10.5 -30.5q-5 -25 -2 -41.5t17 -33.5q8 -10 16 -15h-59q-59 0 -106.5 -21t-84 -61t-63 -97.5t-41.5 -130.5q-16 -74 -15.5 -132t20 -98.5t60 -62t106.5 -21.5h352l42 197h-313q-35 0 -48 14h290l42 200h-294q11 8 25 13t34 5h313l42 195h-217
q17 9 31 26l-4 -4l74 68q22 24 30 57q5 24 -2.5 38.5t-18.5 26.5l-5 6q-29 31 -61 31q-12 0 -23.5 -5t-22.5 -12.5t-20 -16t-15 -14.5l1 1z" />
    <glyph glyph-name="FL00EAh" unicode="&#xea;" horiz-adv-x="640" 
d="M604 44l24 109h-271q-111 0 -90 102h308l24 111h-308q5 23 14 42.5t25 33.5t39 22t55 8h271l23 107h-319q-96 0 -156.5 -70.5t-86.5 -195.5q-14 -63 -14 -113t15.5 -84.5t49 -53t87.5 -18.5h310zM638 653l-57 167h-83l-124 -167h86l68 94l27 -94h83zM530 622l-17 60
l-43 -60h-154l172 229h117l76 -229h-151zM288 13q-62 0 -100.5 20.5t-57 59.5t-18.5 94q0 56 15 126q29 139 99 218t180 79h348l-36 -168h-300q-36 0 -57 -12.5t-32 -32.5h306l-36 -172h-305q6 -42 69 -42h300l-36 -170h-339zM637 0l42 197h-313q-35 0 -48 14h290l42 199
h-294q21 18 59 18h313l41 195h-74l-80 241h-132l-191 -255h27q-78 -28 -129.5 -104t-75.5 -192q-16 -74 -15.5 -132t20 -98t60 -61.5t106.5 -21.5h352zM515 623h-31l23 31z" />
    <glyph glyph-name="FL00EBh" unicode="&#xeb;" horiz-adv-x="640" 
d="M604 44l23 107h-271q-112 0 -89 102h308l23 110h-308q5 22 14 41.5t25 33.5t39 22t55 8h271l23 106h-319q-96 0 -156.5 -70t-86.5 -193q-14 -63 -14 -113q0 -49 16 -83.5t49.5 -52.5t87.5 -18h310zM544 693q-5 -23 9.5 -39.5t42.5 -16.5t50.5 16.5t27.5 39.5t-10.5 39.5
t-43.5 16.5t-49.5 -16.5t-26.5 -39.5zM372 693q-5 -23 9.5 -39.5t42.5 -16.5t50 16.5t27 39.5t-10 39.5t-43 16.5t-49.5 -16.5t-26.5 -39.5zM343 693q4 18 14.5 34t25.5 27.5t33.5 18.5t38.5 7q29 0 49 -14.5t27 -37.5q14 23 40.5 37.5t55.5 14.5q41 0 62.5 -25.5
t13.5 -61.5t-40 -61t-73 -25q-29 0 -49 14t-25 38q-17 -24 -43 -38t-55 -14q-40 0 -61.5 25t-13.5 61zM288 13q-62 0 -100.5 20.5t-57 59t-19 93.5t14.5 125q29 137 98.5 215t179.5 78h348l-35 -166h-300q-36 0 -56.5 -12.5t-31.5 -32.5h306l-37 -170h-305q6 -41 70 -41h300
l-36 -169h-339zM330 693q-5 -25 1.5 -46t23.5 -35q-95 -17 -155 -95t-87 -206q-15 -73 -15 -131t20 -98t60.5 -61t106.5 -21h352l41 195h-313q-35 0 -48 14h290l43 198h-294q10 8 24 13t34 5h313l41 193h-105q20 13 34 32.5t19 42.5q9 42 -15.5 71t-70.5 29q-27 0 -52 -11
t-43 -29q-11 18 -30.5 29t-46.5 11q-23 0 -44 -8t-38.5 -21.5t-29.5 -31.5t-16 -39zM522 618h-32q9 5 20 16q4 -10 12 -16z" />
    <glyph glyph-name="FL00ECh" unicode="&#xec;" horiz-adv-x="208" 
d="M37 0l133 624h67q-11 9 -15 27l1 -4l-29 68q-9 26 -2 57q5 24 16.5 38.5t24.5 26.5l5 6q33 31 58 31q9 0 15.5 -5t12 -12.5t9 -16t5.5 -14.5v1l16 -50q5 -17 5 -32q0 -14 -3 -30q-5 -25 -14 -41t-26 -34q-5 -5 -9.5 -9t-9.5 -7h29l-133 -624h-156zM186 13l127 598h-136
l-127 -598h136zM328 819v-1q-4 12 -12.5 27.5t-22.5 15.5q-20 0 -46 -23q-3 -3 -5.5 -6t-5.5 -6q-11 -10 -20 -22t-14 -32q-6 -28 1 -48l28 -68q12 -28 35 -28q11 0 22.5 4.5t22.5 17.5q15 15 23 29t13 36q3 14 2.5 26t-3.5 23zM78 44l114 536h92l-114 -536h-92zM325 746
q2 -8 2 -15t-2 -16q-3 -14 -8 -23t-15 -19q-15 -15 -29 -15q-16 0 -20 18l-29 68q-3 12 0 28q3 14 12.5 22.5t20.5 20.5q15 15 29 15q7 0 12.5 -11t8.5 -19z" />
    <glyph glyph-name="FL00EDh" unicode="&#xed;" horiz-adv-x="203" 
d="M168 44l114 536h-92l-114 -536h92zM221 746q-6 -8 -9 -15t-5 -16q-3 -14 -1.5 -23t6.5 -19q10 -15 23 -15q14 0 28 18l57 68q9 12 12 28q3 14 -3 22.5t-11 20.5q-11 15 -24 15q-7 0 -17 -11t-16 -19zM248 819v-1q8 12 23.5 27.5t29.5 15.5q20 0 36 -23l6 -12
q7 -11 11.5 -22.5t-0.5 -31.5q-3 -14 -8 -25.5t-13 -22.5l-58 -68q-22 -28 -47 -28q-11 0 -19.5 4.5t-15.5 17.5q-9 15 -11 29t3 36q5 26 21 49zM48 13l127 598h136l-127 -598h-136zM204 777q-12 -17 -18.5 -31.5t-9.5 -30.5q-5 -25 -3.5 -41.5t11.5 -33.5q3 -5 5.5 -9
t6.5 -7h-28l-133 -624h156l133 624h-67q14 10 26 27l-2 -4l57 68q11 13 16.5 26.5t9.5 30.5q5 24 0 38.5t-13 26.5l-3 6q-20 31 -44 31q-9 0 -18 -5t-17 -12.5t-15.5 -16t-11.5 -14.5v1z" />
    <glyph glyph-name="FL00F7h" unicode="&#xee;" horiz-adv-x="233" 
d="M197 44l114 535h-109l-114 -535h109zM389 653l-47 167h-73l-114 -167h76l62 94l22 -94h74zM292 622l-13 60l-40 -60h-136l158 229h103l62 -229h-134zM56 13l127 597h161l-127 -597h-161zM225 0l129 609h88l-68 255h-117l-176 -255h90l-129 -609h183zM279 623h-27l21 31z
" />
    <glyph glyph-name="FL00EFh" unicode="&#xef;" horiz-adv-x="239" 
d="M203 44l113 530h-113l-113 -530h113zM305 689q-5 -23 8.5 -39.5t38.5 -16.5q26 0 46 16.5t25 39.5q5 24 -8.5 40t-39.5 16q-25 0 -45 -16t-25 -40zM148 689q-5 -23 8.5 -39.5t38.5 -16.5q26 0 46 16.5t25 39.5q5 24 -8.5 40t-39.5 16q-25 0 -45 -16t-25 -40zM332 604
q-22 3 -36 17t-18 34q-13 -20 -33.5 -34t-43.5 -17h131zM58 13l125 590q-34 2 -51.5 26.5t-10.5 59.5q4 18 14 34t24 27.5t31 18.5t35 7q27 0 45 -14.5t23 -37.5q14 23 38 37.5t51 14.5q37 0 56.5 -25.5t11.5 -61.5q-8 -35 -36.5 -59.5t-64.5 -26.5l-125 -590h-166zM232 0
l126 591q37 5 66 32.5t37 65.5q9 42 -12.5 71t-63.5 29q-24 0 -47.5 -11t-40.5 -29q-9 18 -26.5 29t-42.5 11q-21 0 -40.5 -8t-35.5 -21.5t-27.5 -31.5t-15.5 -39q-8 -37 9 -64.5t51 -33.5l-126 -591h189zM281 617h-22q3 3 7 6t7 7q2 -5 8 -13z" />
    <glyph glyph-name="FL00F0h" unicode="&#xf0;" 
d="M484 191q18 5 29 13h-179q11 -8 27.5 -10.5t36.5 -2.5h86zM133 405l41 191h373q69 0 117 -19t75 -54.5t34 -86t-4 -113.5l-26 -119h-7q-36 -98 -102.5 -151t-174.5 -53h-132q-71 0 -119.5 20t-75 58.5t-32 93.5t9.5 124l21 98h403q-21 11 -58 11h-343zM479 418
q32 0 54.5 -8t32.5 -29h-425l-18 -85q-29 -133 21 -208t186 -75h132q104 0 167.5 53t98.5 151h5l23 106q11 60 4 108t-33 82t-71.5 52t-111.5 18h-360l-35 -165h330zM484 178h-89q-33 0 -57 8t-34 31h238q-8 -15 -23.5 -24.5t-34.5 -14.5zM485 447h-300l23 107h330
q59 0 99.5 -16t63.5 -46t29 -73t-4 -96l-17 -77h-1q-29 -97 -86 -150.5t-154 -53.5h-132q-121 0 -165 67t-18 187l12 56h440q-2 55 -33.5 75t-86.5 20zM269 246q-1 -28 7.5 -46.5t24.5 -30t38.5 -16t49.5 -4.5h86l-1 -2q44 10 72 31t38 66l1 2h-316z" />
    <glyph glyph-name="FL00F1h" unicode="&#xf1;" horiz-adv-x="698" 
d="M662 44l67 314q19 83 -22 150q-18 35 -49 52.5t-71 17.5h-374l-114 -534h125l91 427h195q38 0 59.5 -11t31 -29t9.5 -42q0 -23 -6 -49l-63 -296h121zM458 797l-120 -145h87l62 78l34 -79h84l122 145h-87l-64 -79l-33 80h-85zM565 828l23 -54l42 53h158l-172 -206h-117
l-23 53l-42 -52h-157l172 206h116zM506 13l69 327q4 20 4.5 38t-6.5 32t-23.5 22.5t-45.5 8.5h-165l-91 -428h-184l126 595h403q47 0 83 -20t59 -62l-1 2q45 -76 25 -170l-73 -345h-180zM446 841l-185 -219h-81l-132 -622h210l91 427h152q25 0 39 -7t20 -19t6 -28t-4 -33
l-72 -340h206l76 358q21 99 -27 178l2 -1q-39 72 -118 84l185 221h-189l-33 -40l-16 41h-130zM483 622h-34l22 26z" />
    <glyph glyph-name="FL00F2h" unicode="&#xf2;" horiz-adv-x="697" 
d="M563 798q-5 8 -13 19t-18 11q-18 0 -39 -15q-13 -12 -26 -20.5t-15 -22.5q-4 -16 3 -28l43 -68q10 -18 28 -18q20 0 39 15q12 10 18.5 19t9.5 23q2 9 1.5 16t-4.5 15zM700 227l37 173q10 45 3 78.5t-35.5 56t-81 34t-134.5 11.5q-79 0 -134.5 -12.5t-92.5 -36t-58 -57.5
t-30 -77l-36 -173q-9 -42 -3 -75.5t33 -57t77.5 -35.5t129.5 -12q82 0 139 11.5t95.5 34t59.5 57t31 80.5zM467 474q51 0 81.5 -5.5t45.5 -18t16.5 -33t-4.5 -51.5l-23 -108q-7 -31 -17.5 -51.5t-31 -33t-53 -18t-83.5 -5.5q-45 0 -73.5 7.5t-43.5 21t-18.5 32.5t1.5 43
l26 121q4 22 16 40.5t33 31.5t52.5 20t75.5 7zM619 762q9 -23 4 -49q-5 -22 -14.5 -36t-28.5 -29q-16 -13 -30.5 -17.5t-29.5 -4.5q-32 0 -48 28l-45 68q-6 11 -6.5 22.5t2.5 25.5q4 20 15.5 32t25.5 22q5 3 8 6t7 6q15 11 30.5 17t29.5 6q20 0 32.5 -15.5t17.5 -27.5l1 1z
M460 443q-71 0 -102.5 -18.5t-37.5 -49.5l-26 -121q-4 -17 -1 -30.5t15 -23t35.5 -14.5t60.5 -5q42 0 68.5 4t43 13t24.5 23.5t13 36.5l23 108q4 22 2.5 36.5t-14 23.5t-37.5 13t-67 4zM730 227q-11 -54 -35 -94t-66.5 -66.5t-106 -40t-153.5 -13.5q-88 0 -143.5 14.5
t-85 41.5t-36 66t4.5 89l36 173q11 50 34 89.5t64.5 67t103 42t149.5 14.5q90 0 148 -13t89 -39.5t38 -66t-4 -91.5zM743 227l37 173q11 51 6 90.5t-30.5 67t-73 43.5t-121.5 21q13 6 26 16q21 18 32.5 34.5t16.5 40.5q6 30 -7 62l-28 50v-1q-3 6 -8.5 14.5t-13 16t-17 12.5
t-21.5 5q-33 0 -75 -31l-8 -6q-16 -12 -29.5 -26.5t-18.5 -38.5q-8 -34 6 -57l44 -68l-2 4q8 -17 20 -25q-86 -2 -147 -18.5t-101.5 -45.5t-63.5 -70t-34 -93l-36 -173q-11 -53 -4.5 -94.5t37 -70.5t88 -44t149.5 -15q94 0 160 14t110.5 42.5t69.5 71t37 99.5zM457 430
q38 0 60.5 -3.5t34 -11t13.5 -19.5t-2 -30l-23 -108q-4 -18 -11.5 -30.5t-22 -20t-38.5 -10.5t-61 -3q-66 0 -86 16.5t-14 43.5l26 121q5 25 32.5 40t91.5 15z" />
    <glyph glyph-name="FL00F3h" unicode="&#xf3;" horiz-adv-x="697" 
d="M469 744q-6 -8 -9.5 -15t-5.5 -16q-3 -14 -1 -23t11 -19q12 -15 31 -15q20 0 36 18l73 68q11 12 15 28q2 14 -6.5 22.5t-16.5 20.5q-14 15 -33 15q-10 0 -22 -11t-20 -19zM700 227l37 173q10 45 3 78.5t-35.5 56t-81 34t-134.5 11.5q-79 0 -134.5 -12.5t-92.5 -36
t-58 -57.5t-30 -77l-36 -173q-9 -42 -3 -75.5t33 -57t77.5 -35.5t129.5 -12q82 0 139 11.5t95.5 34t59.5 57t31 80.5zM467 474q51 0 81.5 -5.5t45.5 -18t16.5 -33t-4.5 -51.5l-23 -108q-7 -31 -17.5 -51.5t-31 -33t-53 -18t-83.5 -5.5q-45 0 -73.5 7.5t-43.5 21t-18.5 32.5
t1.5 43l26 121q4 22 16 40.5t33 31.5t52.5 20t75.5 7zM501 817l-1 -1q12 12 31 27.5t39 15.5q29 0 50 -23l8 -12q11 -11 18 -22.5t3 -31.5q-6 -27 -27 -48l-72 -68q-28 -28 -61 -28q-15 0 -27 4.5t-23 17.5q-12 15 -15.5 29t1.5 36q6 28 24 49zM460 443q-71 0 -102.5 -18.5
t-37.5 -49.5l-26 -121q-4 -17 -1 -30.5t15 -23t35.5 -14.5t60.5 -5q42 0 68.5 4t43 13t24.5 23.5t13 36.5l23 108q4 22 2.5 36.5t-14 23.5t-37.5 13t-67 4zM730 227q-11 -54 -35 -94t-66.5 -66.5t-106 -40t-153.5 -13.5q-88 0 -143.5 14.5t-85 41.5t-36 66t4.5 89l36 173
q11 50 34 89.5t64.5 67t103 42t149.5 14.5q90 0 148 -13t89 -39.5t38 -66t-4 -91.5zM743 227l37 173q11 54 5 94.5t-35 68.5t-82.5 43t-137.5 17q18 10 31 26l-4 -4l74 68q24 25 31 57q5 24 -3.5 38.5t-19.5 26.5l-4 6q-29 31 -63 31q-12 0 -23.5 -5t-22 -12.5t-19.5 -16
t-15 -14.5v1l-47 -50q-28 -33 -33 -62q-5 -25 -2 -41.5t18 -33.5q4 -5 7.5 -8.5t8.5 -7.5q-77 -5 -131 -22t-91 -45.5t-58.5 -68.5t-31.5 -89l-36 -173q-11 -53 -4.5 -94.5t37 -70.5t88 -44t149.5 -15q94 0 160 14t110.5 42.5t69.5 71t37 99.5zM457 430q38 0 60.5 -3.5
t34 -11t13.5 -19.5t-2 -30l-23 -108q-4 -18 -11.5 -30.5t-22 -20t-38.5 -10.5t-61 -3q-66 0 -86 16.5t-14 43.5l26 121q5 25 32.5 40t91.5 15z" />
    <glyph glyph-name="FL00F4h" unicode="&#xf4;" horiz-adv-x="697" 
d="M642 656l-57 167h-84l-127 -167h87l69 94l28 -94h84zM700 226l37 174q9 45 2.5 78.5t-35 56t-81 33.5t-134.5 11q-79 0 -134.5 -12.5t-92.5 -35.5t-58 -57t-30 -77l-36 -173q-9 -42 -3 -75.5t33 -57t77.5 -35.5t129.5 -12q82 0 139 11.5t95.5 34t59.5 56.5t31 80z
M467 473q51 0 81.5 -5.5t45.5 -18t16.5 -33t-4.5 -50.5l-23 -108q-7 -31 -17.5 -51.5t-31 -33t-53 -18t-83.5 -5.5q-45 0 -74 7t-44 20.5t-18 32.5t2 43l26 122q4 22 16 40.5t33 31t52.5 19.5t75.5 7zM533 625l-17 60l-43 -60h-156l173 229h118l78 -229h-153zM460 443
q-71 0 -102.5 -18.5t-37.5 -49.5l-26 -122q-4 -17 -1 -30t15 -22.5t35.5 -14.5t60.5 -5q42 0 68.5 3.5t43 12.5t24.5 24t13 37l23 108q4 22 2.5 36.5t-14 23.5t-37.5 13t-67 4zM730 226q-11 -53 -35 -93t-66.5 -66.5t-106 -40t-153.5 -13.5q-88 0 -143.5 14.5t-85 41.5
t-36 66t4.5 89l36 173q11 50 34 89.5t64.5 67t103 42t149.5 14.5q90 0 148 -13t89 -39.5t38 -66t-4 -91.5zM743 226l37 174q18 86 -11.5 139t-126.5 73h64l-88 255h-134l-192 -255h68q-54 -11 -93 -30t-66 -46t-43.5 -62t-25.5 -77l-36 -173q-11 -53 -4.5 -94.5t37 -70.5
t88 -44t149.5 -15q94 0 160 14t110.5 42.5t69.5 70.5t37 99zM457 429q38 0 60.5 -3t34 -10.5t13.5 -19.5t-2 -30l-23 -108q-4 -18 -11.5 -30.5t-22 -20t-38.5 -10.5t-61 -3q-66 0 -86 16t-14 43l26 122q5 25 32.5 39.5t91.5 14.5zM499 624h-13l24 33l10 -33h-21z" />
    <glyph glyph-name="FL00F5h" unicode="&#xf5;" horiz-adv-x="697" 
d="M458 799l-121 -145h87l63 78l34 -79h84l122 145h-87l-64 -79l-33 80h-85zM700 226l37 173q9 45 2.5 78.5t-35 56t-81 33.5t-134.5 11q-79 0 -134.5 -12.5t-92.5 -35.5t-58 -57t-30 -77l-37 -173q-9 -42 -2.5 -75.5t33.5 -56.5t77.5 -35t129.5 -12q82 0 139 11.5t95.5 34
t59.5 56.5t31 80zM466 472q51 0 82 -5.5t46 -18t16.5 -33t-4.5 -50.5l-23 -108q-7 -30 -17.5 -50.5t-31 -33t-53 -18t-83.5 -5.5q-45 0 -74 7t-44 20.5t-18 32.5t2 43l25 121q5 22 16.5 40.5t32.5 31t52.5 19.5t75.5 7zM460 442q-71 0 -102.5 -18.5t-38.5 -49.5l-25 -121
q-4 -17 -1 -30t15 -23t35.5 -15t60.5 -5q42 0 68.5 4t43 13t24.5 23.5t13 36.5l23 108q4 22 2.5 36.5t-14 23.5t-37.5 13t-67 4zM564 830l23 -54l42 53h158l-172 -206h-117l-23 52l-41 -51h-157l171 206h116zM730 226q-11 -54 -35 -94t-66.5 -66.5t-106 -39.5t-153.5 -13
q-88 0 -143.5 14t-85 41t-36.5 66t4 89l37 173q10 50 33.5 89.5t64.5 66.5t102.5 41.5t149.5 14.5q90 0 148 -13t89 -39.5t38.5 -65.5t-3.5 -91zM743 226l37 173q9 45 6 81t-21 62.5t-53 44.5t-89 27l190 228h-188l-34 -40l-16 41h-130l-194 -233h109q-54 -11 -93 -30
t-66 -46t-43.5 -61.5t-25.5 -76.5l-37 -173q-11 -53 -4.5 -94.5t37 -70t88.5 -43.5t150 -15q94 0 160 14t110.5 42t69.5 70.5t37 99.5zM457 428q38 0 60.5 -3t34 -10.5t13.5 -19.5t-2 -30l-23 -108q-4 -18 -11.5 -30t-22 -19.5t-38.5 -10.5t-61 -3q-66 0 -86 16t-14 43
l25 121q6 25 33.5 39.5t91.5 14.5zM446 620l25 30l12 -28q-10 0 -19 -0.5t-18 -1.5z" />
    <glyph glyph-name="FL00F6h" unicode="&#xf6;" horiz-adv-x="697" 
d="M538 694q-5 -23 10 -39.5t43 -16.5t50.5 16.5t27.5 39.5t-11 39.5t-44 16.5t-49.5 -16.5t-26.5 -39.5zM363 694q-5 -23 10 -39.5t44 -16.5q28 0 50.5 16.5t27.5 39.5t-11 39.5t-44 16.5q-29 0 -50.5 -16.5t-26.5 -39.5zM700 224l36 172q9 44 2.5 77.5t-35 56t-81 33.5
t-134.5 11q-79 0 -134.5 -12.5t-92.5 -35.5t-57.5 -56.5t-29.5 -76.5l-37 -171q-9 -42 -2.5 -75.5t33.5 -56t77.5 -34.5t129.5 -12q82 0 139 11t95.5 33.5t59.5 56.5t31 79zM466 469q51 0 81.5 -5.5t45.5 -18t16.5 -33t-4.5 -50.5l-23 -107q-6 -30 -16.5 -50.5t-31 -33
t-53 -17.5t-83.5 -5q-45 0 -74 7t-44 20.5t-18.5 32.5t1.5 42l26 120q5 22 16.5 40.5t32.5 31t52.5 19.5t75.5 7zM334 694q8 36 40 61.5t73 25.5q29 0 49 -14.5t27 -37.5q15 23 41.5 37.5t56.5 14.5q20 0 36 -7t26.5 -18.5t15 -27.5t0.5 -34t-15 -33.5t-26.5 -27.5
t-34.5 -18.5t-39 -6.5q-30 0 -50.5 14t-25.5 38q-17 -24 -43 -38t-55 -14q-41 0 -62.5 25t-13.5 61zM459 439q-71 0 -102 -18.5t-38 -49.5l-26 -120q-3 -17 0 -30t15 -22.5t35.5 -14.5t60.5 -5q42 0 68.5 4t42.5 13t24 23.5t13 35.5l23 107q4 22 2.5 36.5t-14 23.5t-37.5 13
t-67 4zM730 224q-11 -53 -35 -92.5t-66.5 -66t-106 -39.5t-153.5 -13q-88 0 -143.5 14t-85 41t-36.5 66t4 88l37 171q10 50 33 89t64 66t102.5 41.5t149.5 14.5q90 0 148 -13t89.5 -39t38.5 -65t-4 -91zM321 694q-7 -29 3.5 -52.5t33.5 -36.5q-53 -10 -92 -29t-66 -45.5
t-43 -61t-25 -76.5l-37 -171q-11 -53 -4.5 -94t37 -69.5t88.5 -43.5t150 -15q94 0 160 14t110.5 42t69.5 70t37 98l36 172q19 86 -12 138.5t-130 72.5q28 13 48 35.5t27 51.5q8 42 -16.5 71t-71.5 29q-27 0 -52.5 -11t-43.5 -29q-11 18 -31 29t-47 11q-23 0 -44.5 -8
t-39 -21.5t-29.5 -31.5t-16 -39zM456 425q38 0 60.5 -3t34 -10.5t13.5 -19.5t-2 -30l-23 -107q-4 -18 -11 -30t-21.5 -19.5t-38.5 -10.5t-61 -3q-33 0 -54 4t-32 12t-14.5 18.5t-0.5 24.5l26 120q5 25 32.5 39.5t91.5 14.5zM516 618h-19h-15q11 6 20 17q6 -11 14 -17z" />
    <glyph glyph-name="FL0100h" unicode="&#xf7;" horiz-adv-x="496" 
d="M156 333l-21 -100h366l21 100h-366zM243 153q-5 -21 9.5 -36t40.5 -15q27 0 48 15t26 36q5 22 -10 37t-42 15q-26 0 -46.5 -15t-25.5 -37zM298 414q-5 -22 9.5 -37t40.5 -15q27 0 48 15t26 37q5 21 -10 36t-42 15q-26 0 -46.5 -15t-25.5 -36zM215 153q6 31 32 52h-146
l33 156h146q-16 21 -10 53q7 33 37.5 56t68.5 23t59.5 -23t14.5 -56q-3 -16 -12 -29t-22 -24h140l-33 -156h-139q17 -23 11 -52q-4 -17 -14 -31t-24.5 -25t-32.5 -17t-37 -6t-34 6t-24.5 17t-13.5 25t0 31zM203 153q-8 -38 14.5 -65t66.5 -27q22 0 42.5 7t37 19.5t28 29.5
t15.5 36q3 19 -2 40h127l38 181h-128q16 19 20 40q8 38 -15.5 64.5t-68.5 26.5q-22 0 -42 -7t-36 -19.5t-27 -29t-15 -35.5q-5 -23 1 -40h-135l-38 -181h134q-14 -21 -17 -40z" />
    <glyph glyph-name="FL00F8h" unicode="&#xf8;" horiz-adv-x="697" 
d="M463 42q109 0 168 68t85 190q26 120 -6 187t-129 67h-183q-98 0 -158 -67t-86 -187q-13 -61 -13 -109t16.5 -81t50.5 -50.5t89 -17.5h166zM267 244l22 106q5 22 14.5 40.5t25.5 32t39 21.5t56 8h36l-159 -297q-49 20 -34 89zM601 350l-22 -106q-21 -98 -134 -98h-28
l156 293q24 -13 29.5 -36t-1.5 -53zM572 350q4 17 1 33l-110 -208q73 6 87 69zM297 244q-6 -25 0 -40l117 219q-48 -2 -68 -22t-27 -51zM291 13q-63 0 -102 19.5t-58 56.5t-19.5 90t13.5 121q28 133 97 208t182 75h183q112 0 149.5 -75t9.5 -208q-14 -68 -37.5 -121
t-58.5 -90t-82.5 -56.5t-110.5 -19.5h-166zM454 0q66 0 116.5 20.5t87.5 59t61.5 94t39.5 126.5q29 139 -11 217.5t-158 78.5h-183q-119 0 -192.5 -78.5t-102.5 -217.5q-15 -71 -14.5 -126.5t21 -94t62 -59t107.5 -20.5h166zM332 350q5 21 18 37t42 21l-78 -146zM487 192
l64 120l-14 -68q-9 -41 -50 -52z" />
    <glyph glyph-name="FL00F9h" unicode="&#xf9;" horiz-adv-x="698" 
d="M699 216l77 365h-125l-70 -333q-7 -31 -17.5 -51.5t-30.5 -33t-52.5 -18t-83.5 -5.5q-45 0 -74 7t-44 20.5t-18 32.5t2 43l71 338h-121l-77 -365q-9 -43 -3 -77t33 -57.5t77.5 -36t130.5 -12.5q82 0 139 11.5t95.5 34.5t59.5 57t31 80zM563 799q-5 8 -13 19t-18 11
q-19 0 -38 -15q-13 -12 -26 -20.5t-16 -22.5q-3 -16 3 -28l43 -68q9 -18 29 -18q19 0 38 15q13 10 19 19t9 23q3 18 -2 31zM619 763q9 -23 4 -49q-5 -22 -14.5 -36t-28.5 -29q-16 -13 -30.5 -17.5t-29.5 -4.5q-33 0 -48 28l-44 68q-11 20 -5 48q5 20 16.5 32t24.5 22
q5 3 8 6t7 6q31 23 60 23q20 0 32.5 -15.5t18.5 -27.5v1zM729 216q-11 -54 -35 -94t-66.5 -66.5t-106 -39.5t-153.5 -13q-88 0 -144 14.5t-85.5 42t-36 67t4.5 89.5l84 395h180l-78 -368q-4 -17 -1 -30t15 -23t35.5 -15t60.5 -5q42 0 68.5 4t43 13t24.5 24t13 37l77 363h184
zM742 216l87 409h-210l-80 -377q-4 -18 -11.5 -30.5t-22 -20t-38.5 -10.5t-61 -3q-66 0 -86 16t-14 43l81 382h-206l-87 -409q-11 -54 -4.5 -96t37 -71t88.5 -44.5t150 -15.5q94 0 160 14t110.5 42.5t69.5 71t37 99.5zM602 826l-1 -1q-3 7 -8 15t-12.5 15.5t-17 12.5
t-21.5 5q-34 0 -75 -30l-8 -7q-17 -12 -30.5 -26.5t-18.5 -38.5q-8 -34 6 -57l44 -69l-1 5q15 -37 58 -37q18 0 35 5.5t35 20.5q21 18 32.5 34t16.5 41q6 30 -7 62z" />
    <glyph glyph-name="FL00FAh" unicode="&#xfa;" horiz-adv-x="698" 
d="M699 216l77 365h-125l-70 -333q-7 -31 -17.5 -51.5t-30.5 -33t-52.5 -18t-83.5 -5.5q-45 0 -74 7t-44 20.5t-18 32.5t2 43l71 338h-121l-77 -365q-9 -43 -3 -77t33 -57.5t77.5 -36t130.5 -12.5q82 0 139 11.5t95.5 34.5t59.5 57t31 80zM469 745q-6 -8 -9.5 -15t-5.5 -16
q-3 -14 -0.5 -23t10.5 -19q12 -15 32 -15t35 18l73 68q12 11 15 28q3 14 -6 22.5t-17 20.5q-14 15 -33 15q-10 0 -22 -11t-20 -19zM501 818v-1l13.5 13.5t16.5 14t19 11t20 4.5q30 0 50 -23l8 -12q11 -11 18 -22.5t3 -31.5q-6 -28 -26 -48l-73 -68q-27 -28 -61 -28
q-15 0 -27 4.5t-23 17.5q-12 15 -15.5 29t1.5 36q6 28 24 49zM729 216q-11 -54 -35 -94t-66.5 -66.5t-106 -39.5t-153.5 -13q-88 0 -144 14.5t-85.5 42t-36 67t4.5 89.5l84 395h180l-78 -368q-4 -17 -1 -30t15 -23t35.5 -15t60.5 -5q42 0 68.5 4t43 13t24.5 24t13 37l77 363
h184zM742 216l87 409h-210l-80 -377q-4 -18 -11.5 -30.5t-22 -20t-38.5 -10.5t-61 -3q-66 0 -86 16t-14 43l81 382h-206l-87 -409q-11 -54 -4.5 -96t37 -71t88.5 -44.5t150 -15.5q94 0 160 14t110.5 42.5t69.5 71t37 99.5zM445 776q-28 -33 -33 -62q-5 -25 -1.5 -41.5
t17.5 -33.5q12 -15 26 -20.5t32 -5.5q43 0 75 37l-4 -5l74 69q13 13 20 26.5t11 30.5q5 24 -3 38.5t-19 26.5l-5 7q-30 30 -62 30q-12 0 -23.5 -5t-22.5 -12.5t-20 -15.5t-15 -15l1 1z" />
    <glyph glyph-name="FL00FBh" unicode="&#xfb;" horiz-adv-x="698" 
d="M699 216l77 364h-125l-70 -333q-7 -30 -17.5 -51t-30.5 -33.5t-52.5 -18t-83.5 -5.5q-45 0 -74 7.5t-44 21t-18 32.5t2 43l71 337h-121l-77 -364q-9 -43 -3 -77t33 -57.5t77.5 -36t130.5 -12.5q82 0 139 11.5t95.5 34.5t59.5 57t31 80zM643 657l-58 167h-84l-126 -167h87
l69 94l28 -94h84zM533 626l-17 60l-43 -60h-156l173 229h118l78 -229h-153zM729 216q-11 -54 -35 -94t-66.5 -66.5t-106 -39.5t-153.5 -13q-88 0 -144 14.5t-85.5 42t-36 67t4.5 89.5l84 395h180l-78 -368q-4 -17 -1 -30t15 -23t35.5 -15t60.5 -5q42 0 68.5 4t43 13
t24.5 23.5t13 36.5l77 364h184zM742 216l87 408h-127l-84 244h-133l-183 -244h-121l-87 -408q-11 -54 -4.5 -96t37 -71t88.5 -44.5t150 -15.5q94 0 160 14t110.5 42.5t69.5 71t37 99.5zM406 184q-66 0 -86 16t-14 43l78 370h93l33 45l13 -45h93l-77 -366q-4 -18 -11.5 -30
t-22 -19.5t-38.5 -10.5t-61 -3z" />
    <glyph glyph-name="FL00FCh" unicode="&#xfc;" horiz-adv-x="698" 
d="M698 214l77 361h-125l-70 -330q-6 -30 -16.5 -50.5t-31 -33t-53 -18t-83.5 -5.5q-45 0 -73.5 7t-43.5 20.5t-18.5 32.5t1.5 43l71 334h-121l-77 -361q-9 -43 -2.5 -76.5t33.5 -57t77.5 -35.5t130.5 -12q82 0 139 11.5t95 34t59.5 56.5t30.5 79zM538 695q-5 -23 10 -39.5
t43 -16.5q29 0 51 16.5t27 39.5q5 24 -10 40.5t-44 16.5q-28 0 -50 -16.5t-27 -40.5zM363 695q-5 -23 10 -39.5t44 -16.5q28 0 50.5 16.5t27.5 39.5q5 24 -10.5 40.5t-43.5 16.5q-29 0 -51 -16.5t-27 -40.5zM334 695q8 37 40 62t73 25q30 0 50.5 -14.5t25.5 -37.5
q16 23 42 37.5t56 14.5q41 0 63.5 -25t14.5 -62q-8 -36 -41 -61t-74 -25q-30 0 -50 14t-26 38q-15 -24 -41.5 -38t-56.5 -14q-20 0 -36 6.5t-26 18.5t-14 27.5t0 33.5zM728 214q-11 -53 -35 -93t-66 -66t-105.5 -39t-153.5 -13q-88 0 -144 14.5t-85.5 41.5t-36.5 66t4 89
l84 391h180l-78 -364q-3 -17 0 -30t15 -22.5t35.5 -14.5t60.5 -5q42 0 68.5 3.5t42.5 12.5t24 23.5t13 36.5l77 360h184zM321 695q-11 -47 21 -76h-162l-87 -405q-11 -53 -4.5 -95t37.5 -71t89 -44t150 -15q94 0 160 14t110 42t69 70t37 99l87 405h-170q20 14 34.5 33.5
t19.5 42.5q9 42 -16 71t-72 29q-27 0 -52 -11t-44 -29q-11 18 -31 29t-47 11q-23 0 -44.5 -8t-39 -21.5t-29.5 -31.5t-16 -39zM406 182q-33 0 -54 4t-32 12t-14.5 18.5t-0.5 24.5l76 357q6 -2 12 -2h15q27 0 51.5 11t42.5 29q11 -19 32 -29.5t48 -10.5q8 0 15.5 0.5
t15.5 2.5l-75 -354q-4 -18 -11 -30t-21.5 -19.5t-38.5 -10.5t-61 -3z" />
    <glyph glyph-name="FL00FDh" unicode="&#xfd;" 
d="M780 580h-127l-45 -211h-240q-60 14 -57 75l29 137h-127l-12 -58q-14 -63 -13.5 -112.5t17.5 -83.5t51 -52t88 -18v1h241q-23 -59 -65 -80.5t-97 -21.5h-173l-24 -112h204q121 0 194.5 70.5t99.5 195.5zM488 744q-11 -14 -14 -31q-3 -14 -1 -23t11 -19q11 -15 31 -15
t36 18l73 68q11 12 15 28q2 14 -7 22.5t-16 20.5q-15 15 -33 15q-10 0 -22.5 -11t-20.5 -19zM521 817l-1 -1q6 6 14 13.5t17 14t19 11t20 4.5q27 0 50 -23l8 -12q11 -11 17.5 -22.5t2.5 -31.5q-6 -28 -26 -48l-73 -68q-28 -28 -60 -28q-15 0 -27.5 4.5t-22.5 17.5
q-13 15 -16.5 29t1.5 36q5 26 24 49zM754 310q-29 -139 -111.5 -218t-218.5 -79h-233l37 173h202q34 0 61 9t46 32h-171q-70 0 -114.5 20t-67 58t-25 93t12.5 125l19 88h186l-35 -162q-3 -40 34 -49h209l45 210h187zM833 624h-213l-45 -210h-192q-29 7 -28 32l38 179h-212
l-22 -102q-15 -68 -13 -123t23 -94t62 -62.5t105 -28.5l-2 -1h12q7 -1 14 -1h16v1h125q-14 -8 -31 -11t-37 -3h-215l-43 -200h246q142 0 228.5 82t117.5 228zM464 775q-28 -33 -33 -62q-5 -25 -1.5 -41.5t17.5 -33.5q11 -15 25.5 -20.5t33.5 -5.5q43 0 75 37l-4 -4l74 68
q22 24 30 57q5 24 -3 38.5t-19 26.5l-4 6q-29 31 -63 31q-12 0 -23.5 -5t-22 -12.5t-20 -16t-15.5 -14.5v1zM355 451l-1 -3z" />
    <glyph glyph-name="FL00FEh" unicode="&#xfe;" horiz-adv-x="678" 
d="M664 146l21 100q8 38 2 75.5t-25 67.5t-49.5 48.5t-70.5 18.5h-230l21 98h-125l-109 -512h125l22 104h418zM466 354q33 0 53.5 -8t32 -22t14.5 -32.5t0 -39.5h-297l21 102h176zM313 325l-9 -44h231q-5 20 -22 32t-53 12h-147zM269 117l-22 -104h-183l121 570h183l-21 -98
h201q46 0 81.5 -21t57.5 -55t29.5 -77t-1.5 -86l-27 -129h-419zM698 104l30 142q10 46 2 91t-31.5 81t-61 58t-86.5 22h-188l21 98h-209l-127 -596h209l22 104h419zM457 312q40 0 55 -18h-193l4 18h134z" />
    <glyph glyph-name="FL00FFh" unicode="&#xff;" 
d="M779 574h-127l-44 -208h-240q-62 14 -57 74l28 135h-127l-12 -57q-13 -62 -12.5 -111t17 -83t50.5 -51.5t88 -17.5h241q-23 -59 -64.5 -80t-96.5 -21h-173l-24 -110h204q121 0 194 69t99 194zM538 694q-5 -23 10 -39.5t44 -16.5q28 0 50.5 16.5t27.5 39.5t-11 39.5
t-44 16.5q-29 0 -50.5 -16.5t-26.5 -39.5zM364 694q-5 -23 9.5 -39.5t43.5 -16.5q28 0 50.5 16.5t27.5 39.5t-11 39.5t-44 16.5q-29 0 -50 -16.5t-26 -39.5zM334 694q8 36 40 61.5t73 25.5q30 0 50 -14.5t27 -37.5q15 23 41.5 37.5t56.5 14.5q20 0 36 -7t26.5 -18.5
t14.5 -27.5t0 -34t-15 -33.5t-26 -27.5t-34 -18.5t-39 -6.5q-30 0 -50.5 14t-25.5 38q-17 -24 -43 -38t-56 -14q-41 0 -62.5 25t-13.5 61zM753 307q-15 -69 -42.5 -123.5t-68.5 -92.5t-95.5 -58t-122.5 -20h-233l36 171h202q34 0 61 9t47 32h-171v-1q-70 0 -114.5 20
t-67.5 57.5t-25.5 92.5t12.5 124l19 87h186l-35 -161q-3 -39 34 -48h209l44 208h187zM321 694q-5 -23 0.5 -42.5t20.5 -32.5h-162l-22 -101q-14 -68 -12.5 -122t22.5 -93t62 -62t105 -28l-1 -1h12q7 -1 14 -1h16v1h125q-14 -8 -31.5 -11t-37.5 -3h-215l-42 -198h246
q142 0 228 81.5t117 225.5l65 311h-174q44 28 55 76q4 21 -0.5 39t-16 31.5t-29.5 21.5t-41 8q-28 0 -53 -11t-43 -29q-11 18 -31.5 29t-47.5 11q-23 0 -44.5 -8t-39 -21.5t-29.5 -31.5t-16 -39zM354 442l33 154q5 -1 9 -1h11q27 0 52.5 11t43.5 29q22 -40 79 -40
q8 0 15.5 0.5t16.5 2.5l-40 -189h-192q-29 8 -28 33zM354 447l-1 -4z" />
    <glyph glyph-name="FL0152h" unicode="&#x152;" horiz-adv-x="1089" 
d="M1052 42l22 104h-288q-119 0 -98 98h329l22 106h-329q5 22 14.5 40.5t26 32t41 21.5t59.5 8h288l22 102h-749q-103 0 -165 -67t-88 -187q-13 -61 -12.5 -109t18.5 -81t54 -50.5t93 -17.5h740zM568 300q-10 -47 -12 -85.5t5 -68.5h-185q-118 0 -97 98l22 106
q5 22 14.5 40.5t26 32t40.5 21.5t59 8h187q-41 -62 -60 -152zM537 300q8 35 18 65t24 58h-144q-51 0 -73.5 -20.5t-29.5 -52.5l-22 -106q-15 -69 72 -69h142q-2 27 1.5 58t11.5 67zM306 13q-66 0 -107.5 19.5t-62 56.5t-21.5 90t13 121q28 133 100 208t190 75h781l-34 -160
h-320q-38 0 -60 -12t-33 -31h325l-35 -165h-324q7 -40 74 -40h320l-34 -162h-772zM1088 0l40 188h-333q-38 0 -52 14h310l40 190h-314q11 8 26 13t37 5h333l40 186h-794q-125 0 -201.5 -78.5t-105.5 -217.5q-15 -71 -13.5 -126.5t23 -94t65.5 -59t114 -20.5h785zM524 300
q-7 -32 -11 -59.5t-3 -52.5h-125q-74 0 -62 56l22 106q6 26 25 43t62 17h126q-11 -25 -19.5 -52.5t-14.5 -57.5z" />
    <glyph glyph-name="FL0153h" unicode="&#x153;" horiz-adv-x="1089" 
d="M1052 42l22 104h-288q-119 0 -98 98h329l22 106h-329q5 22 14.5 40.5t26 32t41 21.5t59.5 8h288l22 102h-749q-103 0 -165 -67t-88 -187q-13 -61 -12.5 -109t18.5 -81t54 -50.5t93 -17.5h740zM568 300q-10 -47 -12 -85.5t5 -68.5h-185q-118 0 -97 98l22 106
q5 22 14.5 40.5t26 32t40.5 21.5t59 8h187q-41 -62 -60 -152zM537 300q8 35 18 65t24 58h-144q-51 0 -73.5 -20.5t-29.5 -52.5l-22 -106q-15 -69 72 -69h142q-2 27 1.5 58t11.5 67zM306 13q-66 0 -107.5 19.5t-62 56.5t-21.5 90t13 121q28 133 100 208t190 75h781l-34 -160
h-320q-38 0 -60 -12t-33 -31h325l-35 -165h-324q7 -40 74 -40h320l-34 -162h-772zM1088 0l40 188h-333q-38 0 -52 14h310l40 190h-314q11 8 26 13t37 5h333l40 186h-794q-125 0 -201.5 -78.5t-105.5 -217.5q-15 -71 -13.5 -126.5t23 -94t65.5 -59t114 -20.5h785zM524 300
q-7 -32 -11 -59.5t-3 -52.5h-125q-74 0 -62 56l22 106q6 26 25 43t62 17h126q-11 -25 -19.5 -52.5t-14.5 -57.5z" />
    <glyph glyph-name="FL0160h" unicode="&#x160;" 
d="M457 468h300l24 111h-330q-121 0 -194.5 -70t-99.5 -196l-12 -55h440q-23 -59 -65 -81t-97 -22h-300l-24 -111h331q121 0 194.5 70.5t99.5 195.5l12 58h-440q24 58 65 79t96 21zM418 821l55 -166h84l127 166h-87l-69 -93l-27 92zM526 851l17 -58l42 59h156l-172 -228
h-119l-78 228zM451 437q-32 0 -59 -8t-46 -30h427l-19 -89q-29 -139 -111.5 -218t-218.5 -79h-360l37 173h329q34 0 61 9t46 32h-428l19 86q15 70 42.5 125t69 93t96 58.5t122.5 20.5h360l-37 -173h-330zM353 866l81 -244q-131 -8 -210.5 -88.5t-108.5 -220.5l-22 -99h408
q-14 -8 -31.5 -11.5t-37.5 -3.5h-342l-42 -199h373q142 0 228.5 82t117.5 228l22 102h-404q25 12 63 12h343l42 199h-251l184 242h-186l-31 -43l-12 42z" />
    <glyph glyph-name="FL0162h" unicode="&#x161;" 
d="M448 424q-38 0 -63 -12h404l-22 -102q-31 -146 -117.5 -228t-228.5 -82h-372l42 199h341q20 0 37.5 3.5t31.5 11.5h-408l22 99q29 140 108.5 220.5t210.5 88.5l-81 244l184 -2l12 -42l31 43h186l-184 -242h120l-42 -199h-212zM650 437l37 173h-229q-68 0 -122.5 -20.5
t-96 -58.5t-69 -93t-42.5 -125l-19 -86h428q-19 -23 -46 -32t-61 -9h-328l-37 -173h359q136 0 218.5 79t111.5 218l19 89h-427q19 22 46 30t59 8h199zM450 624h119l172 228h-156l-42 -59l-17 58l-154 1zM457 468q-55 0 -96 -21t-65 -79h440l-12 -58q-26 -125 -99.5 -195.5
t-194.5 -70.5h-330l24 111h299q55 0 97 22t65 81h-440l12 55q26 126 99.5 196t194.5 70h200l-24 -111h-170zM418 821l83 -1l27 -92l69 93h87l-127 -166h-84z" />
    <glyph glyph-name="FL0178h" unicode="&#x178;" 
d="M779 574h-127l-44 -208h-240q-62 14 -57 74l28 135h-127l-12 -57q-13 -62 -12.5 -111t17 -83t50.5 -51.5t88 -17.5h241q-23 -59 -64.5 -80t-96.5 -21h-173l-24 -110h204q121 0 194 69t99 194zM538 694q-5 -23 10 -39.5t44 -16.5q28 0 50.5 16.5t27.5 39.5t-11 39.5
t-44 16.5q-29 0 -50.5 -16.5t-26.5 -39.5zM364 694q-5 -23 9.5 -39.5t43.5 -16.5q28 0 50.5 16.5t27.5 39.5t-11 39.5t-44 16.5q-29 0 -50 -16.5t-26 -39.5zM334 694q8 36 40 61.5t73 25.5q30 0 50 -14.5t27 -37.5q15 23 41.5 37.5t56.5 14.5q20 0 36 -7t26.5 -18.5
t14.5 -27.5t0 -34t-15 -33.5t-26 -27.5t-34 -18.5t-39 -6.5q-30 0 -50.5 14t-25.5 38q-17 -24 -43 -38t-56 -14q-41 0 -62.5 25t-13.5 61zM753 307q-15 -69 -42.5 -123.5t-68.5 -92.5t-95.5 -58t-122.5 -20h-233l36 171h202q34 0 61 9t47 32h-171v-1q-70 0 -114.5 20
t-67.5 57.5t-25.5 92.5t12.5 124l19 87h186l-35 -161q-3 -39 34 -48h209l44 208h187zM321 694q-5 -23 0.5 -42.5t20.5 -32.5h-162l-22 -101q-14 -68 -12.5 -122t22.5 -93t62 -62t105 -28l-1 -1h12q7 -1 14 -1h16v1h125q-14 -8 -31.5 -11t-37.5 -3h-215l-42 -198h246
q142 0 228 81.5t117 225.5l65 311h-174q44 28 55 76q4 21 -0.5 39t-16 31.5t-29.5 21.5t-41 8q-28 0 -53 -11t-43 -29q-11 18 -31.5 29t-47.5 11q-23 0 -44.5 -8t-39 -21.5t-29.5 -31.5t-16 -39zM354 442l33 154q5 -1 9 -1h11q27 0 52.5 11t43.5 29q22 -40 79 -40
q8 0 15.5 0.5t16.5 2.5l-40 -189h-192q-29 8 -28 33zM354 447l-1 -4z" />
    <glyph glyph-name="FL017Dh" unicode="&#x17d;" horiz-adv-x="634" 
d="M689 472l23 107h-500l-23 -107h337l-405 -321l-23 -107h500l23 107h-337zM381 821l54 -166h83l125 166h-85l-68 -93l-27 92zM488 851l17 -58l42 59h153l-171 -228h-117l-75 228zM365 181h291l-35 -168h-558l32 151l349 278h-290l36 168h558l-32 -151zM318 866l79 -243
h-218l-41 -195h271l-326 -258l-36 -170h584l41 195h-271l327 259l35 169h-220l181 242h-182l-31 -43l-12 42z" />
    <glyph glyph-name="FL0161h" unicode="&#x17e;" horiz-adv-x="634" 
d="M689 472l23 107h-500l-23 -107h337l-405 -321l-23 -107h500l23 107h-337zM381 821l54 -166h83l125 166h-85l-68 -93l-27 92zM488 851l17 -58l42 59h153l-171 -228h-117l-75 228zM365 181h291l-35 -168h-558l32 151l349 278h-290l36 168h558l-32 -151zM318 866l79 -243
h-218l-41 -195h271l-326 -258l-36 -170h584l41 195h-271l327 259l35 169h-220l181 242h-182l-31 -43l-12 42z" />
    <glyph glyph-name="FL0192h" unicode="&#x192;" horiz-adv-x="640" 
d="M764 596l-40 -188h-313q-69 0 -81 -56l-75 -353h-208l63 297q15 70 39.5 126t61 94.5t86 59t115.5 20.5h352zM409 583q-62 0 -109.5 -19.5t-82 -56.5t-57.5 -90.5t-37 -120.5l-60 -284h182l72 340q15 69 96 69h300l35 162h-339zM713 554l-22 -104h-271q-111 0 -132 -98
l-66 -311h-124l54 255q13 61 33.5 109t51 81t71.5 50.5t95 17.5h310z" />
    <glyph glyph-name="FL02C6h" unicode="&#x2c6;" horiz-adv-x="357" 
d="M377 300l-56 122h-73l-105 -122h76l56 69l28 -69h74zM282 278l-18 43l-35 -43h-136l144 166h103l76 -166h-134zM433 268l-83 186h-117l-161 -186h162l26 33l14 -33h159z" />
    <glyph glyph-name="FL02DCh" unicode="&#x2dc;" horiz-adv-x="422" 
d="M235 409l-107 -108h81l56 59l34 -59h79l107 108h-81l-57 -59l-34 59h-78zM334 431l21 -39l37 38h146l-150 -151h-109l-23 39l-36 -38h-145l150 151h109zM219 441l-169 -171h174l29 30l18 -30h122l170 170h-175l-29 -29l-16 30h-124z" />
    <glyph glyph-name="FL2013h" unicode="&#x2013;" horiz-adv-x="428" 
d="M117 158h300l14 69h-300zM108 246h354l-22 -107h-354zM72 131h378l26 124h-378z" />
    <glyph glyph-name="FL2014h" unicode="&#x2014;" horiz-adv-x="496" 
d="M133 227l-14 -69h366l14 69h-366zM531 245l-22 -106h-422l22 106h422zM99 254l-26 -123h446l26 123h-446z" />
    <glyph glyph-name="FL2018h" unicode="&#x2018;" horiz-adv-x="198" 
d="M134 332q-5 -19 5.5 -32.5t30.5 -13.5t35.5 13t19.5 32l18 84q5 19 -5.5 32t-30.5 13t-35.5 -13t-20.5 -32zM130 415q7 29 30 49t52 20q28 0 43 -20t8 -49l-18 -84q-6 -29 -29 -49t-51 -20q-29 0 -44 20.5t-8 49.5zM104 332q-8 -33 8.5 -57t49.5 -24q16 0 31 6.5t27.5 17
t21.5 25t12 31.5l18 84q8 33 -9 56.5t-49 23.5q-33 0 -59 -23.5t-34 -56.5z" />
    <glyph glyph-name="FL2019h" unicode="&#x2019;" horiz-adv-x="198" 
d="M134 332q-5 -19 5.5 -32.5t30.5 -13.5t35.5 13t19.5 32l18 84q5 19 -5.5 32t-30.5 13t-35.5 -13t-20.5 -32zM130 415q7 29 30 49t52 20q28 0 43 -20t8 -49l-18 -84q-6 -29 -29 -49t-51 -20q-29 0 -44 20.5t-8 49.5zM104 332q-8 -33 8.5 -57t49.5 -24q16 0 31 6.5t27.5 17
t21.5 25t12 31.5l18 84q8 33 -9 56.5t-49 23.5q-33 0 -59 -23.5t-34 -56.5z" />
    <glyph glyph-name="FL201Ah" unicode="&#x201a;" horiz-adv-x="198" 
d="M62 -4q-4 -19 6.5 -32t30.5 -13t35.5 13t19.5 32l18 84q4 19 -6 32t-30 13t-36 -13t-20 -32zM59 80q6 29 29.5 49t52.5 20q28 0 42.5 -20t8.5 -49l-18 -84q-6 -29 -29.5 -49t-51.5 -20q-29 0 -43.5 20t-8.5 49zM32 -4q-7 -33 9.5 -56.5t49.5 -23.5q32 0 58.5 23t33.5 57
l18 84q7 33 -9.5 56.5t-48.5 23.5q-33 0 -59.5 -23.5t-33.5 -56.5z" />
    <glyph glyph-name="FL201Ch" unicode="&#x201c;" horiz-adv-x="402" 
d="M311 332q-5 -19 9 -32.5t39 -13.5q26 0 45.5 13t23.5 32l18 85q5 19 -9.5 32t-40.5 13q-25 0 -44 -13t-24 -32zM151 331q-4 -19 10 -32t40 -13t45.5 13t23.5 32l18 84q5 19 -9.5 32t-40.5 13t-45 -13t-24 -32zM143 415q7 29 35.5 49t64.5 20q27 0 46 -11.5t24 -30.5
q14 19 37 31t51 12q37 0 57.5 -20t13.5 -49l-18 -85q-6 -29 -34.5 -49t-65.5 -20q-27 0 -45.5 11.5t-23.5 30.5q-14 -19 -38 -31t-52 -12q-36 0 -56 20.5t-14 49.5zM113 331q-7 -33 15.5 -56.5t64.5 -23.5q26 0 48 9t39 24q10 -15 28 -24t43 -9q21 0 40.5 6.5t35 17t26 25
t13.5 31.5l18 85q7 33 -16 56.5t-65 23.5q-25 0 -47 -9t-39 -24q-11 14 -29 23t-43 9q-42 0 -74 -23.5t-40 -56.5z" />
    <glyph glyph-name="FL201Dh" unicode="&#x201d;" horiz-adv-x="402" 
d="M311 332q-5 -19 9 -32.5t39 -13.5q26 0 45.5 13t23.5 32l18 85q5 19 -9.5 32t-40.5 13q-25 0 -44 -13t-24 -32zM151 331q-4 -19 10 -32t40 -13t45.5 13t23.5 32l18 84q5 19 -9.5 32t-40.5 13t-45 -13t-24 -32zM143 415q7 29 35.5 49t64.5 20q27 0 46 -11.5t24 -30.5
q14 19 37 31t51 12q37 0 57.5 -20t13.5 -49l-18 -85q-6 -29 -34.5 -49t-65.5 -20q-27 0 -45.5 11.5t-23.5 30.5q-14 -19 -38 -31t-52 -12q-36 0 -56 20.5t-14 49.5zM113 331q-7 -33 15.5 -56.5t64.5 -23.5q26 0 48 9t39 24q10 -15 28 -24t43 -9q21 0 40.5 6.5t35 17t26 25
t13.5 31.5l18 85q7 33 -16 56.5t-65 23.5q-25 0 -47 -9t-39 -24q-11 14 -29 23t-43 9q-42 0 -74 -23.5t-40 -56.5z" />
    <glyph glyph-name="FL201Eh" unicode="&#x201e;" horiz-adv-x="402" 
d="M239 -4q-4 -19 10 -32t39 -13q26 0 45.5 13t23.5 32l18 84q4 19 -10 32t-40 13q-25 0 -44.5 -13t-23.5 -32zM80 -3q-4 -19 10 -32.5t40 -13.5t45.5 13t23.5 32l18 85q5 19 -9.5 32t-40.5 13t-45 -13t-24 -32zM72 81q6 29 35 49t65 20q27 0 46 -12t24 -31q14 19 37 30.5
t51 11.5q37 0 57 -20t14 -49l-18 -84q-6 -29 -35 -49.5t-66 -20.5q-28 0 -46 12t-24 31q-13 -19 -37 -30.5t-51 -11.5q-36 0 -56 20.5t-14 49.5zM42 -3q-7 -33 16 -57t64 -24q25 0 47 9t39 24q10 -15 28.5 -24t43.5 -9q21 0 40.5 6t35 17t26 25.5t13.5 31.5l18 84
q7 33 -16 56.5t-65 23.5q-25 0 -47.5 -9t-38.5 -23q-10 15 -28.5 24t-43.5 9q-42 0 -74 -23.5t-40 -56.5z" />
    <glyph glyph-name="FL2020h" unicode="&#x2020;" horiz-adv-x="435" 
d="M157 346h96l-65 -304h115l65 305h96l22 106h-96l22 101h-115l-22 -101h-96zM159 483h96l21 100h169l-21 -100h96l-35 -165h-96l-65 -305h-169l64 304h-96zM109 304h96l-65 -304h193l65 305h96l40 191h-96l22 100h-193l-22 -100h-96z" />
    <glyph glyph-name="FL2021h" unicode="&#x2021;" horiz-adv-x="435" 
d="M157 346h96l-23 -106h-96l-23 -107h96l-19 -91h115l19 92h96l23 106h-96l23 107h96l22 106h-96l22 101h-115l-22 -101h-96zM159 483h96l21 100h169l-21 -100h96l-35 -165h-96l-11 -48h96l-35 -165h-96l-19 -92h-169l19 91h-96l35 166h96l10 47h-96zM109 304h96l-5 -21
h-96l-41 -192h96l-19 -91h193l20 92h96l40 191h-96l5 22h96l40 191h-96l22 100h-193l-22 -100h-96z" />
    <glyph glyph-name="FL2022h" unicode="&#x2022;" horiz-adv-x="412" 
d="M453 223q-27 -128 -168 -128h-86q-136 0 -109 128l21 96q6 28 18 52t32 42t49 28t70 10h81q41 0 66 -10t37.5 -28t14 -42t-4.5 -52zM462 319q5 25 3.5 47t-13 38.5t-34.5 25.5t-60 9h-81q-38 0 -64.5 -9t-44.5 -25.5t-29 -38.5t-16 -47l-21 -96q-24 -116 100 -116h86
q129 0 153 116zM436 319l-21 -96q-18 -90 -122 -90h-86q-96 0 -78 90l21 96q8 40 35.5 66.5t86.5 26.5h81q30 0 48.5 -7t27.5 -19.5t10 -29.5t-3 -37z" />
    <glyph glyph-name="FL2026h" unicode="&#x2026;" horiz-adv-x="643" 
d="M443 63q-3 -15 13 -25t44 -10q27 0 47.5 10t23.5 25q4 15 -12.5 25t-43.5 10q-28 0 -48 -10t-24 -25zM272 63q-3 -15 13 -25t44 -10q27 0 47.5 10t23.5 25q4 15 -12.5 25t-43.5 10q-28 0 -48 -10t-24 -25zM101 63q-3 -15 13.5 -25t43.5 -10q28 0 48.5 10t23.5 25
q4 15 -12.5 25t-44.5 10q-27 0 -47.5 -10t-24.5 -25zM72 63q5 23 35 39t70 16q29 0 50 -9.5t29 -23.5q13 14 38 23.5t54 9.5t50 -9.5t29 -23.5q13 14 37.5 23.5t54.5 9.5q39 0 62.5 -16t18.5 -39t-35 -39t-69 -16q-30 0 -50.5 9.5t-27.5 23.5q-14 -14 -39 -23.5t-54 -9.5
t-50 9.5t-28 23.5q-14 -14 -39 -23.5t-54 -9.5q-40 0 -63.5 16t-18.5 39zM60 63q-5 -26 21 -44.5t71 -18.5q27 0 50 7t40 18q12 -11 33 -18t48 -7q26 0 49.5 7t40.5 18q11 -11 32.5 -18t48.5 -7q22 0 42.5 5t36.5 13.5t26.5 20t13.5 24.5q6 26 -20.5 44.5t-71.5 18.5
q-27 0 -51 -7t-41 -18q-11 11 -32 18t-47 7q-27 0 -51 -7t-41 -18q-11 11 -31.5 18t-47.5 7q-45 0 -79 -18.5t-40 -44.5z" />
    <glyph glyph-name="FL2030h" unicode="&#x2030;" horiz-adv-x="1154" 
d="M285 42l571 512h-127l-577 -512h133zM473 383l18 85q10 43 -16.5 64t-112.5 21q-42 0 -72 -6t-49.5 -17t-30.5 -27t-15 -37l-18 -84q-4 -20 -0.5 -36t18 -27t41 -17t68.5 -6q43 0 73 5.5t50 16.5t30.5 27t15.5 38zM348 487q23 0 36.5 -3t19.5 -8t6.5 -11.5t-0.5 -14.5
l-10 -46q-3 -11 -7.5 -19t-13.5 -13t-23.5 -7t-37.5 -2q-41 0 -52.5 11t-8.5 28l11 48q4 17 21.5 27t58.5 10zM814 129l18 85q10 43 -16.5 64t-112.5 21q-42 0 -72 -6t-50 -17t-31 -27t-15 -37l-18 -84q-4 -20 -0.5 -36t18 -27t41.5 -17t69 -6q86 0 123 21.5t46 65.5z
M689 233q23 0 36.5 -3t19.5 -8t6.5 -12t-0.5 -14l-10 -46q-3 -12 -7.5 -19.5t-13.5 -12.5t-23.5 -7t-37.5 -2q-41 0 -52.5 11t-8.5 28l11 48q4 17 21.5 27t58.5 10zM1136 129l18 85q10 43 -17 64t-112 21q-42 0 -72 -6t-50 -17t-31 -27t-15 -37l-18 -84q-4 -20 -0.5 -36
t18 -27t41 -17t68.5 -6q87 0 124 21.5t46 65.5zM1011 233q23 0 36 -3t19 -8t6.5 -12t-0.5 -14l-10 -46q-5 -23 -20.5 -32t-61.5 -9q-41 0 -52.5 11t-8.5 28l11 48q4 17 21.5 27t59.5 10zM341 458q-23 0 -32 -2t-10 -6l-11 -48q-1 -5 6 -7.5t30 -2.5q26 0 34.5 2.5t10.5 9.5
l10 46q1 3 -5.5 5.5t-32.5 2.5zM1004 204q-24 0 -33 -2t-10 -6l-11 -48q-1 -5 6.5 -7.5t29.5 -2.5q27 0 35 2.5t10 9.5l10 46q1 3 -5 5.5t-32 2.5zM682 204q-23 0 -32 -2t-10 -6l-11 -48q-1 -5 6 -7.5t30 -2.5q26 0 34.5 2.5t10.5 9.5l10 46q1 3 -5.5 5.5t-32.5 2.5zM78 13
l291 258q-16 -2 -33.5 -3t-37.5 -1q-51 0 -83 8t-49.5 22.5t-22 36t1.5 48.5l18 84q6 28 19.5 49.5t37.5 36.5t60.5 22.5t87.5 7.5q52 0 85 -7t50.5 -21t21 -35.5t-2.5 -50.5l-15 -74l213 189h209l-290 -260q16 2 33 3.5t37 1.5q68 0 104 -11.5t48 -36.5q23 23 63.5 35.5
t106.5 12.5q52 0 85 -7t50.5 -21t21 -35.5t-2.5 -50.5l-18 -85q-6 -29 -19.5 -51t-37.5 -36.5t-61 -21.5t-89 -7q-65 0 -100 12.5t-47 35.5q-23 -24 -64.5 -36t-109.5 -12q-51 0 -83 8t-49.5 22.5t-22 36t1.5 48.5l16 72l-209 -187h-215zM297 0l183 165l-8 -37
q-6 -30 -2 -54t23 -40.5t53.5 -25t89.5 -8.5q63 0 105 10t68 30q17 -19 52.5 -29.5t95.5 -10.5q56 0 95.5 8t66 24t41 40t21.5 57l18 85q7 32 3 56t-23 39.5t-54.5 23.5t-91.5 8q-60 0 -100.5 -10.5t-66.5 -29.5q-17 20 -54.5 30t-100.5 10h-19t-17 -1l287 256h-244
l-190 -168l8 40q7 32 3 56t-22.5 39.5t-54.5 23.5t-92 8q-55 0 -94 -8.5t-65 -25t-40.5 -40.5t-20.5 -55l-18 -84q-6 -30 -2 -54t22.5 -40.5t53 -25t89.5 -8.5h19q10 0 19 1l-287 -255h251zM1002 191q14 0 19 1t5 3l-9 -45q0 1 -5 1h-23q-13 0 -18 -1t-7 -2l10 47
q1 -4 28 -4zM339 445q15 0 19.5 1t5.5 3l-9 -45q-1 1 -7 1h-21q-14 0 -18.5 -0.5t-6.5 -2.5l10 47q1 -4 27 -4zM680 191q14 0 19 1t6 3l-9 -45q-1 1 -7 1h-21q-14 0 -18.5 -1t-6.5 -2l10 47q1 -4 27 -4z" />
    <glyph glyph-name="FL2039h" unicode="&#x2039;" horiz-adv-x="234" 
d="M270 377l-139 -81l-16 -74l105 -79l17 76l-60 43l77 41zM273 288l-49 -27l38 -27l-29 -135l-143 108l22 103l189 111zM316 441l-213 -124l-24 -117l160 -120l34 161l-29 20l38 20z" />
    <glyph glyph-name="FL203Ah" unicode="&#x203a;" horiz-adv-x="234" 
d="M130 441l159 -124l-24 -117l-212 -120l34 161l37 20l-28 20zM107 288l37 -27l-48 -27l-29 -135l189 108l22 103l-143 111zM148 377l105 -81l-16 -74l-139 -79l17 76l78 43l-61 41z" />
    <glyph glyph-name="FL20ACh" unicode="&#x20ac;" horiz-adv-x="682" 
d="M157 314h95l-6 -28h-95l-23 -107h108q4 -67 40.5 -102t115.5 -35h254l22 104h-215q-67 0 -86 33h204l23 107h-223l6 28h223l22 107h-201q17 15 40 23t57 8h215l22 102h-263q-70 0 -120 -34t-83 -99h-110zM157 450h117q38 65 93 99t131 34h293l-34 -160h-104l-53 -248h104
l-34 -162h-284q-85 0 -127.5 35t-50.5 102h-115zM77 137h119q11 -67 55.5 -102t131.5 -35h297l40 188h-104l47 222h104l40 186h-306q-79 0 -136.5 -34t-97.5 -99h-121z" />
    <glyph glyph-name="FL04E5h" unicode="&#x2122;" horiz-adv-x="1125" 
d="M406 231l-0.5 0.5t0.5 1.5v-2zM265 204q7 3 21 12q3 9 9 18q-3 -2 -10 -7t-11.5 -11t-8.5 -12zM1187 322l-61 -149l39 -16l-124 -81l-54 52q-17 6 -34 15l-3 -17l-59 -6l-3 -18l-36 13l-19 -2l1 9l-38 14q-3 7 -3 13q-3 -4 -8 -9t-10 -12h-86l-33 -8l-2 -5h-16l-51 -12
l5 20q-9 2 -18.5 5t-18.5 8l-3 -15l-119 -15l2 18q-20 -9 -44 -9h-3q-6 -1 -11 -1.5t-14 -0.5q-32 0 -50 7q-18 -7 -30.5 -10.5t-21 -5t-14.5 -2t-12 -0.5q-46 0 -68 25l-118 -33l74 226l126 26l-12 -40q59 25 158 38l-8 -20q17 10 39 10h7q24 0 42 -6l11 58l84 -95l15 57
l74 -22l2 3l125 17l-9 -32q4 4 8 7.5t8 7.5q29 14 56 14q17 0 26 -4l11 54l85 -97l17 57l68 -21l4 17zM1070 334l-5 -17l-67 21l-21 -70l-83 95l-8 -42q-14 11 -39 11q-23 0 -45 -11q-14 -13 -27 -26t-24 -27l18 64l-97 -13l-3 -8l-74 22l-18 -69l-82 93l-9 -47
q-23 13 -55 13h-7q-18 0 -31 -8q-8 -4 -14.5 -8t-14.5 -9l13 34q-104 -14 -158 -44l12 44l-97 -20l-66 -202l105 29q20 -26 64 -26q11 0 24 2t44 14l1 9q18 -14 59 -14q12 0 15.5 0.5t7.5 0.5q4 1 6 1q34 0 60 22l-6 -31l92 13l5 26q27 -21 63 -27l-3 -10l31 7h7v2l43 10h82
q28 31 30 31q1 0 10 -24l42 -16v-4h10l18 -5l1 8l59 7l5 26q27 -18 55 -25l46 -46l97 64l-32 13l63 147zM253 190q-5 0 -5 3q4 22 28 41q14 11 22 11q1 0 4.5 -1t8.5 -5q-3 -7 -6.5 -14t-6.5 -15q-18 -11 -28.5 -15.5t-16.5 -4.5zM419 229q-3 -11 -12 -23q-17 -6 -22 -6
q2 0 5 10l1 5q16 24 25 24q2 0 3 -5l-1 3q2 -4 1 -8zM1132 296l-43 -104l-26 2l29 109zM1085 147l-32 -22l-18 18l26 13zM1015 155q-41 0 -89 71l-15 -70l-25 -2l27 142l78 -89l27 96l27 -7zM853 156l-17 7q-12 31 -33 31q-23 0 -48 -31h-35q22 72 98 140q13 5 23 5
q33 0 34 -46zM729 303l-38 -139l-42 -10l48 145zM617 151q-44 0 -89 69l-15 -69l-28 -4l28 143l79 -90l26 99l29 -9zM486 249q-37 -98 -87 -98q-8 -1 -14.5 -2t-14.5 -1q-46 0 -52 25q20 92 91 123q2 2 9 2h7q57 0 61 -49zM333 301l-12 -34q-8 3 -18 3q-23 0 -47 -21
q-33 -25 -39 -56q-6 -28 31 -28q27 0 33 3l-5 -25q-11 -4 -18.5 -4.5t-15.5 -0.5q-51 0 -51 62v10t2 9q13 65 140 82zM191 299l-38 -140l-41 -12l47 146zM839 226l-11 46l-43 -46h54zM450 229q1 10 0 18q-9 17 -29 17q-29 0 -61 -44l-2 -10q-8 -35 20 -35q20 0 49 14
q11 11 16 20.5t7 19.5z" />
    <glyph glyph-name="FL06D9h" horiz-adv-x="873" 
d="M448 134h90l7 33h-90zM925 302q-37 -84 -93 -134.5t-144 -66.5l-34 -161h-373q-69 0 -109 31t-58 82.5t-16.5 117.5t16.5 136q15 69 43.5 134t68.5 115t91 80t111 30h347q52 0 90 -21t59.5 -58.5t26 -89.5t-8.5 -115zM913 306l16 76q13 60 8.5 109.5t-25 85.5t-56 56
t-84.5 20h-347q-57 0 -105.5 -29t-86.5 -77t-65 -110.5t-41 -129.5q-14 -68 -15.5 -131.5t15 -113t54.5 -79.5t103 -30h359l34 160q87 12 143.5 61t92.5 132zM445 181h117l-12 -60h-117zM441 489h15q-39 -17 -71.5 -45.5t-52.5 -67.5q6 24 13.5 44.5t19.5 36t30.5 24
t45.5 8.5zM545 360h56l-3 -14h-109q8 10 21.5 11.5t34.5 2.5zM422 211l-15 -71h-105l37 173q8 38 28.5 68.5t49 52.5t63.5 33.5t71 11.5h201l-47 -221q46 19 64 71l14 68q5 24 7 46t-6.5 39t-29.5 27t-61 10h-246q-40 0 -66 -13t-42 -34.5t-25.5 -50.5t-16.5 -62l-23 -109
q-5 -26 -9.5 -54t-0.5 -51.5t20 -39t52 -15.5h8h4q3 0 5 1h289l-23 -108h-329q-56 0 -88.5 27.5t-46.5 72.5t-12 103.5t15 120.5q13 61 37 118t57 101t74.5 70.5t91.5 26.5h347q42 0 72.5 -18t47.5 -50t20.5 -76t-7.5 -97l-16 -74q-35 -79 -88.5 -122.5t-138.5 -46.5l-1 1
h-70l15 71h-177zM637 390h-86q-24 -1 -41 -2.5t-29 -8.5t-21 -21.5t-16 -41.5h177z" />
    <glyph glyph-name="FL0064h" horiz-adv-x="679" 
d="M333 554h-125l-109 -512h355q39 0 78 17t73 52q35 33 54.5 68t27.5 73l-1 1h2q8 39 3 75t-26 69q-19 34 -50 50.5t-70 16.5h-231zM469 362q64 0 84 -26.5t13 -81.5q-6 -21 -17 -40.5t-28 -35t-41.5 -25t-57.5 -9.5h-176l46 218h177zM315 332l-34 -159h147q24 0 42.5 7
t31 18t21 26t13.5 30q5 40 -10.5 59t-62.5 19h-148zM349 493h202q47 0 82.5 -19.5t58.5 -59.5l-1 2q38 -59 27 -151h1l-2 -12l-2 -14t-3 -15h-4q-13 -38 -33 -70.5t-52 -61.5l1 2q-39 -41 -84.5 -61t-91.5 -20h-384l121 570h183zM384 596h-209l-127 -596h397q49 0 97 21
t90 64l-1 -2q30 29 50.5 60.5t34.5 67.5h6q2 10 3 19.5t3 18.5q2 5 3 10.5t3 11.5l-4 2q4 46 -2.5 84t-24.5 67l1 -1q-23 42 -61.5 62.5t-88.5 20.5h-189zM460 319q40 0 53.5 -16t9.5 -51q-9 -26 -30 -46t-62 -20h-134l28 133h135z" />
    <glyph glyph-name="FLE005h" horiz-adv-x="679" 
d="M308 252q-3 -26 10 -46t54 -20h134l28 133h-135q-40 0 -60 -16t-31 -51zM199 423q42 42 89 62.5t98 20.5h188l19 90h210l-127 -596h-397q-50 0 -89.5 21t-62.5 64l2 -2q-19 29 -26.5 60.5t-5.5 67.5h-5q2 10 4 19.5t5 18.5l5 22l2 2q16 46 38.5 84t54.5 67zM207 414l1 2
q-63 -63 -91 -151l-2 -12q-2 -7 -3.5 -14t-3.5 -15h2q-7 -74 30 -132l-1 2q23 -41 59.5 -61t83.5 -20h384l121 570h-184l-19 -90h-201q-48 0 -92.5 -19.5t-83.5 -59.5zM295 254q13 40 36 59t71 19h148l-34 -159h-147q-25 0 -40 7t-23.5 18t-10.5 26t0 30zM627 554h124
l-109 -512h-354q-40 0 -71.5 17t-49.5 52q-21 33 -26 68t3 73l1 1h-2q17 80 84 144q33 34 71.5 50.5t78.5 16.5h231zM408 362q-63 0 -94.5 -26.5t-48.5 -81.5q-3 -21 -0.5 -40.5t13.5 -35t31.5 -25t53.5 -9.5h177l46 218h-178z" />
  </font>
</defs>
</svg>
