<?xml version="1.0" standalone="no"?>
<!DOCTYPE svg PUBLIC "-//W3C//DTD SVG 1.1//EN" "http://www.w3.org/Graphics/SVG/1.1/DTD/svg11.dtd" >
<svg xmlns="http://www.w3.org/2000/svg" xmlns:xlink="http://www.w3.org/1999/xlink" version="1.1">
<metadata>
Created by FontForge 20170731 at Thu Feb  7 04:34:04 2013
 By Aleksey,,,
Vanessa Bays @ ByTheButterfly.com
</metadata>
<defs>
<font id="CutiePatootie" horiz-adv-x="400" >
  <font-face 
    font-family="Cutie Patootie"
    font-weight="500"
    font-stretch="normal"
    units-per-em="1000"
    panose-1="2 0 6 3 0 0 0 0 0 0"
    ascent="800"
    descent="-200"
    x-height="492"
    cap-height="706"
    bbox="-156.789 -239 871.621 869.5"
    underline-thickness="50"
    underline-position="-200"
    unicode-range="U+0020-F8FF"
  />
<missing-glyph horiz-adv-x="364" 
d="M66 33h199v600h-199v-600zM33 0v666h265v-666h-265z" />
    <glyph glyph-name=".notdef" horiz-adv-x="364" 
d="M66 33h199v600h-199v-600zM33 0v666h265v-666h-265z" />
    <glyph glyph-name=".null" horiz-adv-x="0" 
 />
    <glyph glyph-name="nonmarkingreturn" horiz-adv-x="333" 
 />
    <glyph glyph-name="space" unicode=" " horiz-adv-x="300" 
 />
    <glyph glyph-name="exclam" unicode="!" horiz-adv-x="134" 
d="M101 701q6 -29 9.5 -60.5t6 -56t2.5 -62t0.5 -57t-1.5 -62t-2.5 -56.5t-4.5 -62t-4.5 -56t-5.5 -60.5t-5 -55.5q-1 -13 -11 -21.5t-22 -7.5t-20 12t-7 24q1 11 4 36q11 121 15.5 187t3 165.5t-15.5 179.5q-3 13 4 24.5t19 14t22.5 -5t12.5 -20.5zM100 30q0 -12 -9 -21
t-21 -9t-21 9t-9 21t9 21t21 9t21 -9t9 -21z" />
    <glyph glyph-name="quotedbl" unicode="&#x22;" horiz-adv-x="222" 
d="M84 665q-1 -33 1 -90q3 -85 3 -93q0 -12 -9 -21t-21 -9t-21 9t-9 21q0 24 -3 91q-2 59 -1 94q0 12 9.5 20.5t21.5 8.5t20.5 -9.5t8.5 -21.5zM165 665q0 -56 11 -198q1 -12 -7 -21.5t-20.5 -10.5t-22 7t-10.5 21q-11 144 -11 202q0 12 9 21t21 9t21 -9t9 -21z" />
    <glyph glyph-name="numbersign" unicode="#" horiz-adv-x="587" 
d="M319 249q0 14 1.5 62t2.5 74q-34 -7 -64 -12q-2 -79 -7 -137q38 8 67 13zM317 188l-72 -15l-14 -95l-9 -56q-1 -2 -1 -4q-1 -5 -4 -9q-5 -11 -18 -14q-11 -3 -19.5 1.5t-11.5 8t-4 6.5q-3 6 -3 12v5q1 7 3 28q1 6 5 12l3 19l11 72l-106 -21q-12 -2 -22 5t-12.5 19.5
t4.5 22.5t20 13q48 8 124 24q5 62 8 142q-60 -7 -115 -8q-12 0 -21 8.5t-9 21t8.5 21.5t21.5 9q55 1 117 9q4 139 5 167q1 13 10 21t21.5 7.5t20.5 -9.5t8 -21q-2 -36 -5 -155q30 5 63 12q2 78 2 141q0 12 9 21t21 9t21 -9t9 -21q0 -58 -1 -128l143 33q13 3 23.5 -3.5
t13 -19t-4 -23t-18.5 -12.5l-159 -37q0 -10 -4 -138q87 15 166 19q13 1 22 -7.5t10 -21t-7.5 -21.5t-20.5 -10q-82 -5 -171 -20q-3 -106 -3 -183q0 -12 -9 -21t-21 -9t-21 9t-9 21q0 74 2 172z" />
    <glyph glyph-name="dollar" unicode="$" horiz-adv-x="337" 
d="M159 420q-1 72 -6 142q-29 -35 -26 -75q2 -29 32 -67zM215 244q-4 -87 -14 -177q26 25 30 81q4 52 -16 96zM267 450q-1 5 -7 38q-4 22 -8 37q-10 36 -27 48q-6 5 -13 7q9 -112 7 -230q37 -45 57 -94t15 -112q-4 -59 -30.5 -99.5t-67.5 -49.5q-5 -39 -11 -78
q-2 -13 -12 -20.5t-22.5 -5.5t-20 12t-5.5 22q6 38 11 76q-39 15 -65.5 59.5t-34.5 107.5q-1 13 6.5 22.5t20 11t22 -6t11.5 -19.5q10 -79 48 -110q15 135 18 263q-2 1 -19 20.5t-21 24.5l-18 23q-13 17 -17.5 28t-10 27t-6.5 31q-2 34 12 69t38 59q14 13 30 22q-2 22 -5 44
q-1 13 6.5 22.5t20 11t22 -6t11.5 -19.5l4 -41q28 -4 55 -23q34 -24 49 -81q4 -16 9 -42q5 -28 6 -34q3 -13 -3.5 -23.5t-19 -13t-23 4t-12.5 18.5z" />
    <glyph glyph-name="percent" unicode="%" horiz-adv-x="500" 
d="M39 53q16 51 67 141q127 224 327 478q8 9 20.5 10.5t22 -6t11 -20t-5.5 -22.5q-199 -251 -323 -470q-47 -84 -61 -129q-4 -12 -15 -17.5t-23 -2t-17.5 14.5t-2.5 23zM176 572q0 -12 -9 -21t-21 -9t-21 9t-9 21t9 21t21 9t21 -9t9 -21zM320 69q0 -12 -9 -21t-21 -9t-21 9
t-9 21t9 21t21 9t21 -9t9 -21z" />
    <glyph glyph-name="ampersand" unicode="&#x26;" horiz-adv-x="565" 
d="M272 275q144 24 256 52q12 3 22.5 -3t13.5 -18.5t-3 -23t-19 -13.5q-49 -13 -103 -24q-47 -87 -127 -160q-113 -101 -202 -76q-51 15 -60 69q-7 37 9 89q12 41 32 81q21 40 37 61q3 3 11 12q-17 -5 -31 -4q-38 0 -55 27q-18 31 0 95q16 54 50 110q38 61 83 96
q57 44 113 34q48 -9 64 -56q7 -18 11 -64q1 -12 -7 -21.5t-20.5 -10.5t-22 7t-10.5 21q-3 37 -7 48q-5 14 -18 16q-30 6 -66 -22q-37 -28 -69 -80q-30 -49 -43 -95q-9 -31 -7 -45h4q12 -1 33 7q16 6 41 17q31 14 32 15q2 1 8.5 5t13.5 7q12 7 21 8q19 2 30 -12q9 -13 5 -30
l-6 -11q0 -1 -1 -1v-1h-1v-1h-1l-3 -4l-12 -11l-36 -36q-52 -52 -56 -58q-13 -15 -31 -50.5t-28 -70.5q-12 -39 -8 -62q3 -17 17 -21q58 -17 146 63q48 43 86 99l-76 -14q-12 -2 -22.5 5.5t-12.5 19.5t5.5 22.5t19.5 12.5z" />
    <glyph glyph-name="quotesingle" unicode="'" horiz-adv-x="100" 
d="M82 714q0 -13 -0.5 -54.5t-2 -71t-5.5 -57.5q-2 -12 -12 -19.5t-22 -6t-19.5 11.5t-6.5 22q4 26 5.5 53t2 67t0.5 57q0 12 9 20.5t21.5 8.5t21 -9t8.5 -22z" />
    <glyph glyph-name="parenleft" unicode="(" horiz-adv-x="200" 
d="M174 713q-33 -62 -55.5 -156t-29.5 -197q-7 -106 4 -199.5t40 -154.5q5 -11 1 -23t-15 -17t-23 -1t-17 15q-33 72 -45 172q-13 99 -5 212q8 110 31 208q24 99 62 169q6 11 17.5 14.5t22.5 -2.5t14.5 -17.5t-2.5 -22.5z" />
    <glyph glyph-name="parenright" unicode=")" horiz-adv-x="172" 
d="M23 9q33 61 54.5 155t28.5 198q6 106 -6 200t-41 154q-5 11 -1 23t15 17t23 1t17 -15q34 -69 46 -170q13 -100 6 -213q-7 -111 -30 -209q-23 -101 -60 -169q-6 -11 -17.5 -14.5t-22.5 2.5t-14.5 17.5t2.5 22.5z" />
    <glyph glyph-name="asterisk" unicode="*" horiz-adv-x="372" 
d="M272 518l81 -64q10 -8 11.5 -20.5t-6 -22t-20 -11t-21.5 5.5l-69 55v-90q0 -12 -9 -21t-21 -9t-21 9t-9 21v97q-61 -35 -108 -53q-12 -4 -23.5 1t-15.5 16.5t1 23t16 15.5q46 18 108 54l-85 64q-10 7 -12 19.5t5.5 22.5t20 12t22.5 -6l71 -53q0 41 1 77q0 12 9 20.5
t21.5 8.5t21 -9t8.5 -22q-1 -39 -1 -86q41 25 72 40q11 5 22.5 1.5t17 -15t2 -23t-15.5 -17.5q-31 -15 -74 -41z" />
    <glyph glyph-name="plus" unicode="+" horiz-adv-x="300" 
d="M145 329q-35 -1 -72 -1q-12 0 -21 9t-9 21t9 21t21 9q38 0 73 1q0 9 1.5 38.5t1.5 45.5q0 12 9 20.5t21.5 8.5t21 -9t8.5 -22q0 -12 -0.5 -25.5t-1.5 -29t-1 -24.5q38 3 75 7q12 1 21.5 -6.5t11 -20t-6 -22t-20.5 -11.5q-41 -4 -82 -7q-1 -51 3 -93q1 -13 -7 -22.5
t-20.5 -10.5t-22 7t-10.5 20q-4 45 -3 96z" />
    <glyph glyph-name="comma" unicode="," horiz-adv-x="137" 
d="M138 68q-3 -64 -25 -98q-16 -24 -70 -65q-10 -7 -22 -5.5t-19.5 11.5t-6 22t11.5 20q45 35 56 50q13 21 15 67q1 13 10 21t21.5 7.5t20.5 -9.5t8 -21z" />
    <glyph glyph-name="hyphen" unicode="-" horiz-adv-x="300" 
d="M45 343q21 0 41.5 1t44.5 4t39 4.5t45.5 6t42.5 6.5q12 1 22 -6.5t11.5 -19.5t-6 -22t-19.5 -12q-11 -1 -42 -5.5t-46.5 -6.5t-41 -5t-47.5 -4t-44 -1q-12 0 -21 9t-9 21t9 21t21 9z" />
    <glyph glyph-name="period" unicode="." horiz-adv-x="97" 
d="M98 35q0 -12 -9 -21t-21 -9t-21 9t-9 21t9 21t21 9t21 -9t9 -21z" />
    <glyph glyph-name="slash" unicode="/" horiz-adv-x="434" 
d="M19 17q59 134 177 342q151 266 184 333q6 11 18 14.5t23 -2t14.5 -17.5t-1.5 -23q-39 -75 -186 -335q-116 -205 -175 -336q-5 -12 -16.5 -16t-23 1t-15.5 16.5t1 22.5z" />
    <glyph glyph-name="zero" unicode="0" horiz-adv-x="416" 
d="M232 637q-37 -7 -70 -70q-41 -78 -56 -193q-15 -118 6 -211q22 -95 73 -120q59 -29 104 20q42 44 61 123q10 43 10 106.5t-11 132.5q-28 152 -96 200q-9 7 -21 12zM264 688q14 -7 23 -13q89 -63 121 -240q13 -72 12.5 -142.5t-12.5 -120.5q-23 -94 -75 -150
q-22 -24 -47 -37q-26 -13 -59 -13t-68 17q-78 38 -105 161q-24 102 -7 232q16 128 62 213q30 58 69 83q-1 9 3 16q6 12 17.5 15.5t22.5 -1.5q4 -2 22 -10q13 0 21 -10z" />
    <glyph glyph-name="one" unicode="1" horiz-adv-x="131" 
d="M110 684q0 -112 1.5 -336.5t1.5 -336.5q0 -12 -9 -21t-21 -9t-21 9t-9 21q0 112 -1.5 336.5t-1.5 336.5q0 12 9 21t21 9t21 -9t9 -21z" />
    <glyph glyph-name="two" unicode="2" horiz-adv-x="459" 
d="M74 560q53 72 99 104q43 31 88.5 37t82.5 -16t50 -67t-1 -100q-7 -29 -20 -60.5t-24.5 -55t-32.5 -57.5l-33 -51l-37 -52q-25 -36 -31 -46l-36 -52l-6 -10l10 2q81 15 133.5 3t119.5 -56q10 -7 12.5 -19t-4.5 -22.5t-19 -13t-23 4.5q-57 38 -98.5 47.5t-108.5 -2.5
q-52 -11 -68 -23q-6 -4 -19 -19q-17 -19 -30 -27q-1 -1 -3 -2t-8.5 -2.5t-11.5 0.5q-17 4 -22 20q-2 7 -1 14l4 10q1 2 3 5q3 5 10 15l39 54q38 52 44 59q1 2 2 2l31 46l33 47l36 52q10 15 30 47.5t30.5 53.5t22.5 49t18 53q8 46 1.5 69t-24.5 33q-13 11 -43 7.5t-62 -25.5
q-38 -27 -85 -92q-7 -10 -19.5 -12t-22.5 5.5t-12 20t6 22.5z" />
    <glyph glyph-name="three" unicode="3" horiz-adv-x="434" 
d="M116 685l98 7q70 5 78 5q1 0 4 1q9 2 12 2q30 4 44 -18q11 -17 3 -42q-5 -14 -16 -33q-16 -29 -50 -73l-42 -54q32 -4 57 -13q116 -40 123 -190q4 -79 -36 -147q-39 -69 -102 -103q-43 -23 -88.5 -24.5t-90.5 24t-78 78.5q-6 11 -3 23t13.5 18.5t22.5 3.5t19 -13
q23 -39 54.5 -57.5t61.5 -17t61 17.5q48 26 78.5 79.5t27.5 115.5q-5 109 -82 136q-23 7 -61 10q-20 2 -26 3q-8 1 -13 3q-13 5 -20 15q-5 9 -4 20q1 3 2 7l2 4q1 2 2 3t2 3l5 6l17 21l51 64q30 41 45 67q-3 0 -69 -5l-98 -7q-12 -1 -21.5 7t-10.5 20.5t7 22t21 10.5z" />
    <glyph glyph-name="four" unicode="4" horiz-adv-x="500" 
d="M275 271q-2 177 -7 286q-20 -46 -83 -173q-27 -56 -70 -120q0 -1 -1 -3l14 2q78 7 82 7q28 1 65 1zM311 731q12 -12 8 -28l-1 -5q14 -157 17 -429q90 -1 144 12q12 3 22.5 -3.5t13.5 -18.5t-3.5 -22.5t-18.5 -13.5q-59 -15 -157 -14q1 -123 2 -186q0 -13 -8.5 -22t-21 -9
t-21.5 8.5t-9 20.5q-1 65 -2 189q-40 1 -64 0q-2 0 -79 -7q-33 -3 -50 -5q-12 0 -17 -1h-6h-4h-1h-2q-4 0 -11 4q-16 9 -15 28q0 5 2 11q1 5 5 11q4 8 13 20l13 19l4 6h1q40 62 66 114q2 3 18 35l18 39l16 34q14 28 18 38l16 35q10 24 16 39l12 35q7 20 12 38l-1 9
q-1 12 7 22t20 11q18 2 28 -14z" />
    <glyph glyph-name="five" unicode="5" 
d="M362 650q-22 -6 -43.5 -9.5t-47 -5.5t-39 -2.5t-46 -1t-40.5 -0.5q-5 0 -13 1h-1q-1 -1 -1 -3q-3 -13 -4 -36q0 -14 -1 -58q38 46 89.5 59t95.5 -25q32 -28 56 -83q20 -44 30 -94q11 -50 10 -82q-2 -81 -30 -149q-15 -36 -43.5 -77t-62.5 -67q-44 -35 -87 -35
q-52 1 -91 52q-51 67 -28 184q2 12 12.5 19t22.5 4.5t19 -13t4 -22.5q-17 -90 18 -136q21 -27 44 -28q22 0 49 22q27 21 51 55t36 64q24 60 26 129q1 25 -8.5 68.5t-26.5 81.5q-18 42 -40 62q-20 17 -42 12l-17 -6q-9 -3 -17 -10t-12.5 -10.5t-12.5 -15.5l-12 -15
q-3 -4 -13 -19.5t-13 -20.5v-1q-1 -1 -2 -4l-3 -11q-4 -12 -10 -19q-14 -17 -36 -14q-12 2 -20 13l-4 8q-1 4 -1 7v7v12q1 13 3 35q1 10 2.5 23.5t2.5 21t1 9.5q0 4 0.5 29t0.5 41q2 28 5 45q6 31 22 42q14 11 35 9q3 0 11 -1h4q11 0 42.5 0.5t44 1t36 2t42 5t37.5 8.5
q12 3 23 -3t14 -18t-3 -23t-18 -14z" />
    <glyph glyph-name="six" unicode="6" horiz-adv-x="359" 
d="M171 61q23 -9 44 -2q33 10 59 55.5t34 103t-5 93.5q-16 44 -37 42q-24 -2 -51 -42q-57 -88 -44 -250zM299 498q-21 89 -48 127q-15 23 -27 21q-15 -3 -37 -35q-24 -35 -45 -94q-46 -129 -48 -262q-2 -78 15 -127q2 134 56 215q43 66 96 70q34 2 59 -19.5t39 -62.5
q18 -52 8 -121q-10 -70 -41 -126q-38 -64 -92 -82q-65 -22 -132 30q-72 56 -68 224q3 144 51 281q24 67 53 108q35 52 75 59q50 10 88 -45q31 -46 56 -147q3 -12 -3.5 -22.5t-18.5 -13.5t-22.5 3.5t-13.5 18.5z" />
    <glyph glyph-name="seven" unicode="7" horiz-adv-x="366" 
d="M118 384q33 -8 65 -8q25 83 58 161q16 36 49 97q-12 -2 -21 -3q-22 -2 -49 -2.5t-45 0t-49.5 2t-43.5 1.5t-20.5 9t-8.5 21.5t9 21t22 8.5q14 0 45 -1.5t47.5 -2t41.5 -0.5q24 1 45 3q11 1 50 9q16 3 24 3q8 1 15 -1q19 -5 24 -22q7 -25 -14 -49l-6 -7l-4 -3l-2 -1l-1 -2
q-38 -70 -52 -105q-27 -62 -49 -128q28 6 67 20q11 4 22.5 -1t15.5 -16.5t-1 -23t-17 -15.5q-61 -23 -107 -29q-45 -159 -53 -304q-1 -12 -10 -20.5t-21.5 -7.5t-21 10t-7.5 22q8 142 50 297q-29 1 -61 9q-12 3 -18.5 13.5t-3.5 22.5t13.5 18.5t22.5 3.5z" />
    <glyph glyph-name="eight" unicode="8" horiz-adv-x="413" 
d="M223 434q4 0 9 3q24 11 39 48q17 37 11 80.5t-33 66.5q-27 19 -48 8q-24 -12 -39 -50q-16 -39 -10.5 -81t31.5 -62q10 -8 18 -11q12 3 22 -2zM211 373q-44 -29 -76.5 -89t-37.5 -120q-4 -63 26 -94q35 -36 117 -23q58 9 86 49t25.5 97t-34.5 106.5t-83 68.5q-5 2 -9 5
h-14zM147 399q-32 25 -45.5 64t-11.5 77t16 72q23 59 68 82q54 27 110 -14h1l1 -1q32 -26 46 -66t11.5 -78.5t-16.5 -72.5q-14 -33 -36 -55q54 -33 86 -91q31 -57 34 -120q4 -76 -37 -136q-41 -59 -124 -73q-113 -17 -170 40q-49 51 -43 141q5 62 35 125.5t75 105.5z" />
    <glyph glyph-name="nine" unicode="9" horiz-adv-x="387" 
d="M243 640q-4 2 -9 4q-33 11 -64 -18q-33 -31 -52 -93q-20 -60 -15 -114q4 -49 26 -63q25 -15 46 2q26 20 47 75q20 49 28.5 104.5t3.5 77.5q0 1 -11 25zM123 194q0 -23 11 -55t28 -54q16 -22 32 -26t36 13q32 26 56 112q26 88 30 190q3 79 -9 142q-10 -57 -29 -105
q-28 -70 -66 -100q-54 -44 -115 -5q-47 29 -54 108q-6 65 17 137q25 77 69 119q57 53 125 30q70 -24 101 -127q25 -84 21 -201q-5 -110 -32 -205q-30 -103 -76 -141q-43 -36 -88 -25q-37 9 -66 48q-23 30 -36.5 70.5t-14.5 72.5q0 13 8.5 22t21 9t21.5 -8.5t9 -20.5z" />
    <glyph glyph-name="colon" unicode=":" horiz-adv-x="100" 
d="M89 430q0 -12 -9 -21t-21 -9t-21 9t-9 21t9 21t21 9t21 -9t9 -21zM83 115q0 -12 -9 -21t-21 -9t-21 9t-9 21t9 21t21 9t21 -9t9 -21z" />
    <glyph glyph-name="semicolon" unicode=";" horiz-adv-x="100" 
d="M78 46q-4 -42 -18 -73t-41 -66q-8 -10 -20.5 -11.5t-22 6t-11 20t5.5 21.5q24 30 34 53t13 56q1 12 10.5 20t22 7t20.5 -10.5t7 -22.5zM96 432q0 -12 -9 -21t-21 -9t-21 9t-9 21t9 21t21 9t21 -9t9 -21z" />
    <glyph glyph-name="less" unicode="&#x3c;" horiz-adv-x="369" 
d="M320 414q-35 -26 -147 -95l-60 -38q29 -13 83 -30q72 -23 151 -43q12 -3 18.5 -13.5t3.5 -22.5t-13.5 -18.5t-22.5 -3.5q-74 17 -155 43q-57 19 -90 33q-21 10 -34 18q-22 15 -24 35q0 6 1.5 11.5t2.5 7.5l2 2q2 3 4 5q2 1 4 3t7 5l22 14l69 43q109 68 144 92q10 8 22 6
t19.5 -12.5t5.5 -22.5t-13 -19z" />
    <glyph glyph-name="equal" unicode="=" horiz-adv-x="344" 
d="M82 423q70 -4 227 6q12 1 21.5 -7.5t10.5 -20.5t-7.5 -21.5t-20.5 -10.5q-161 -10 -235 -6q-12 1 -20.5 10t-7.5 21.5t10 21t22 7.5zM82 321q113 0 225 11q12 1 22 -7t11 -20t-7 -22t-20 -11q-115 -11 -231 -11q-12 0 -21 9t-9 21t9 21t21 9z" />
    <glyph glyph-name="greater" unicode="&#x3e;" horiz-adv-x="372" 
d="M67 452l61 -30q46 -22 76 -35t60 -22q31 -10 68 -18q14 -3 18 -4q9 -3 15 -9q14 -15 7 -34q-2 -6 -8 -11q-2 -2 -4 -5q-4 -3 -10 -7q-8 -6 -30 -20l-87 -56q-147 -92 -148 -93q-10 -7 -22.5 -4.5t-19.5 12.5t-4.5 22.5t12.5 19.5q3 1 150 94l74 47l-29 8q-32 11 -64.5 25
t-81 37.5t-59.5 28.5t-15 16.5t1 23t16.5 15.5t23.5 -1z" />
    <glyph glyph-name="question" unicode="?" horiz-adv-x="344" 
d="M26 546q24 56 76 96q51 41 106 52q63 13 102 -20q44 -36 35 -114q-2 -16 -6.5 -32t-8.5 -28.5t-12 -28.5l-14 -25q-4 -9 -16 -26l-15 -22q-4 -6 -17.5 -23.5t-15.5 -20.5q-40 -54 -60 -98t-20 -101q0 -12 -9 -21t-21 -9t-21 9t-9 21q0 70 24 123t67 111l15 20l15 20
l13 18q10 14 13 20t10.5 18t10.5 20l7 19q4 12 6.5 22t3.5 22q6 44 -13 60q-17 14 -52 7q-41 -8 -81 -39t-57 -74q-5 -11 -16.5 -15.5t-23 0t-16 16t-0.5 23.5zM159 37q0 -12 -9 -21t-21 -9t-21 9t-9 21t9 21t21 9t21 -9t9 -21z" />
    <glyph glyph-name="at" unicode="@" horiz-adv-x="706" 
d="M437 247q-15 -31 -32 -53q-29 -37 -62 -47q-44 -13 -85 19q-51 41 -47 132q3 74 40 146q39 78 92 97q35 12 66 -6q30 -17 51 -60q6 -11 1 -23q16 -6 20 -24q2 -9 0 -22l-2 -12l-1.5 -7.5t-0.5 -3.5q1 -32 1 -41q1 -35 4 -42q17 -60 46 -88q10 -10 17 -9q11 1 27 26
q34 53 37 116.5t-21 121.5t-67.5 104.5t-95 68t-110 11t-110.5 -58.5q-78 -74 -95 -180q-17 -107 5 -198.5t95 -144.5q49 -35 116 -43.5t132 10.5q66 18 116 60t70 99q4 12 15 17t23 1t17 -15t1 -23q-25 -73 -86 -124t-140 -73q-73 -23 -155.5 -12.5t-144.5 55.5
q-47 34 -77.5 83.5t-41.5 101.5t-13 109t8 107q21 126 115 214q49 46 105 65t108.5 11t99.5 -33t86 -66q51 -54 79.5 -122.5t25 -147.5t-46.5 -146q-31 -48 -69 -54q-36 -5 -67 26q-28 27 -49 78zM406 449q-13 26 -27 34q-7 4 -16 1q-30 -10 -59 -67q-31 -60 -33 -122
q-3 -60 25 -81q16 -13 30 -9q15 4 31 26q33 42 47 101q3 13 8 51v3l-1 4v11q-2 22 7 35q-8 4 -12 13z" />
    <glyph glyph-name="A" unicode="A" horiz-adv-x="440" 
d="M227 656l-1 2q0 -1 1 -2zM145 257q83 8 169 41q-45 208 -51 233q-13 54 -18 71l-20 -70q-68 -229 -80 -275zM130 196q-24 -102 -35 -187q-2 -12 -11.5 -19.5t-22 -6t-20 11t-6.5 22.5q11 82 33 179q-11 2 -18 10.5t-6 19.5q1 13 10 21.5t21 7.5h8q14 55 84 293l22 74
q9 29 15 46q4 11 7 18q2 4 4 7q5 9 13 13q24 14 44 -9q6 -8 12 -21q8 -17 17 -49q7 -25 20 -82l49 -226q20 0 28 -18q5 -11 1 -22.5t-16 -16.5q31 -140 63 -237q3 -12 -2.5 -23t-17.5 -14.5t-23 2t-15 17.5q-31 95 -61 231q-101 -36 -197 -42z" />
    <glyph glyph-name="B" unicode="B" 
d="M130 655q4 -133 5 -305l43 38q13 12 35.5 35t34.5 43.5t17 41.5q15 69 -47 111q-35 24 -88 36zM135 46q65 0 112 17q75 26 88 88q5 28 -10.5 55.5t-46.5 48.5q-67 43 -138 14q-1 -2 -5 -5v-218zM80 722q102 -6 172 -53q43 -30 63.5 -74t7.5 -101q-16 -71 -108 -154
q49 -4 95 -35q44 -28 69 -71.5t14 -94.5q-19 -95 -126 -133q-75 -26 -176 -19q-12 1 -20.5 10.5t-7.5 21.5q1 14 12 22v88v120q-2 1 -4 3q-12 9 -13.5 23t8.5 26q4 4 9 8q-1 201 -5 348v6q-10 3 -16.5 11.5t-5.5 19.5q1 12 10 20.5t22 7.5z" />
    <glyph glyph-name="C" unicode="C" horiz-adv-x="356" 
d="M285 451q-5 103 -34 162q-21 43 -44.5 44t-48.5 -40q-34 -58 -47 -165q-24 -196 31 -325q14 -33 29 -52t23 -22.5t15 -2.5q14 3 31 25.5t30 66.5q8 23 16 63l16 67q3 12 13.5 18.5t22.5 3.5t18.5 -13.5t3.5 -22.5l-15 -66q-9 -42 -17 -68q-37 -120 -108 -133
q-41 -8 -75 23t-59 89q-61 144 -35 357q15 119 55 187q43 73 103 70q59 -2 96 -78q35 -70 40 -186q1 -12 -7.5 -21t-21 -10t-21.5 7.5t-10 21.5z" />
    <glyph glyph-name="D" unicode="D" 
d="M127 83q90 103 150 194t77 177q25 129 -76 168q-71 27 -160 -1q0 -47 3.5 -134t4.5 -126q1 -46 0.5 -139t0.5 -139zM112 682q102 28 188 -5q66 -25 98 -85q32 -61 14 -150q-9 -48 -34 -102.5t-50 -95.5t-69 -96.5t-68 -82.5l-68 -77q-8 -9 -20.5 -10t-21.5 8q-4 3 -6 7
q-6 7 -6 17q-3 66 -2.5 175t-0.5 176q-1 39 -4 117.5t-4 117.5q-22 -5 -33 15q-6 10 -2.5 22t14.5 18q10 6 21 11v3q0 12 9 20.5t22 8.5q14 0 23 -12z" />
    <glyph glyph-name="E" unicode="E" horiz-adv-x="369" 
d="M52 643q-1 8 -1 15q-1 13 7.5 22t21 10t21.5 -7.5t10 -20.5v-4l78 20q81 20 134 29q13 2 23 -5.5t12 -20t-5.5 -22.5t-19.5 -12q-51 -9 -130 -28l-89 -22q3 -91 1 -228q106 30 174 34q12 1 21.5 -7.5t10.5 -20.5t-7.5 -21.5t-20.5 -10.5q-64 -4 -179 -37q-2 -167 -1 -248
q116 29 219 44q12 1 22 -6.5t11.5 -19.5t-6 -22t-19.5 -12q-108 -15 -235 -47q-8 -9 -20 -9t-21 8q-10 6 -13 17.5t3 21.5q-3 89 0 281l-2 6q-3 12 3 22q2 155 -1 246q-15 6 -18 22q-3 10 2 19.5t14 13.5z" />
    <glyph glyph-name="F" unicode="F" horiz-adv-x="328" 
d="M52 643q-1 8 -1 15q-1 13 7.5 22t21 10t21.5 -7.5t10 -20.5v-4l78 20q81 20 134 29q13 2 23 -5.5t12 -20t-5.5 -22.5t-19.5 -12q-51 -9 -130 -28l-89 -22q3 -91 1 -228q106 30 174 34q12 1 21.5 -7.5t10.5 -20.5t-7.5 -21.5t-20.5 -10.5q-64 -4 -179 -37q-3 -194 0 -289
q0 -13 -8.5 -22t-21 -9t-21.5 8.5t-9 20.5q-3 95 0 299l-2 6q-3 12 3 22q2 155 -1 246q-15 6 -18 22q-3 10 2 19.5t14 13.5z" />
    <glyph glyph-name="G" unicode="G" horiz-adv-x="497" 
d="M241 304q33 4 67 10t84 16.5t66 13.5q12 3 22.5 -4t13 -19t-4.5 -22.5t-19 -12.5l-81 -17q7 -52 26 -133q30 -122 37 -161q2 -12 -5 -22t-19.5 -12.5t-22.5 4.5t-13 20q-6 36 -35 157l-3 14l-3 -13q-12 -47 -25 -76q-19 -42 -46 -58q-34 -20 -69 -10q-27 8 -52 33
q-30 33 -54 90q-68 164 -24 396q7 39 28 88q21 50 49 83q41 48 85 43q51 -5 89 -77q6 -12 10.5 -24.5t7.5 -28.5l5 -26q2 -10 3.5 -29t2 -24.5t1.5 -27t1 -22.5q1 -12 -7.5 -21t-21 -10t-21.5 7.5t-10 21.5q0 3 -0.5 18.5t-1 19.5t-1.5 17.5t-1.5 19.5t-2 17.5t-2.5 18.5
l-4 15q-2 9 -5 16t-7 14q-22 44 -40 46q-14 1 -34 -23q-22 -26 -40 -69q-19 -43 -25 -75q-40 -212 22 -362q19 -46 42 -70q13 -14 24 -17t23 4q10 6 21 30.5t21 65.5q7 27 16 74q5 32 8 43q-37 -6 -69 -10q-12 -1 -21.5 6.5t-11 20t6 22t20.5 11.5z" />
    <glyph glyph-name="H" unicode="H" horiz-adv-x="453" 
d="M127 681q0 -33 4 -87q6 -70 7 -90q4 -89 5 -160q93 30 171 45q-8 243 -8 305q0 12 9 21t21 9t21 -9t9 -21q0 -66 8 -294q25 4 50 7q12 1 21.5 -6.5t11 -20t-6 -22t-20.5 -11.5q-27 -3 -55 -7q6 -185 -5 -318q-1 -13 -10.5 -21t-22 -7t-20.5 10.5t-7 21.5q10 123 6 303
q-77 -17 -172 -48q-1 -154 -17 -281q-2 -12 -11.5 -19.5t-22 -6t-20 11t-6.5 22.5q15 115 16 253l-36 -12q-12 -4 -23 1t-15 17t1 23t17 15l56 20q0 78 -5 177q-1 19 -6 88q-5 56 -5 91q0 12 9 21t21 9t21 -9t9 -21z" />
    <glyph glyph-name="I" unicode="I" horiz-adv-x="312" 
d="M44 675q41 -2 86 5q9 8 21 8q7 0 13 -3q39 7 85 21q12 3 22.5 -3t14 -18t-2.5 -22.5t-18 -14.5q-45 -13 -84 -21q1 -94 12 -284q11 -191 12 -280q14 0 41 -0.5t40 -0.5q12 0 21 -9t9 -21t-9 -21t-21 -9q-14 0 -44.5 0.5t-45.5 0.5q-9 -9 -21 -9t-20 8q-49 -2 -87 -9
q-12 -3 -22.5 4t-13 19t4.5 22.5t19 12.5q39 8 89 10q-1 70 -12 278q-10 185 -12 279q-41 -4 -79 -3q-13 0 -21 9.5t-8 22t9.5 20.5t21.5 8z" />
    <glyph glyph-name="J" unicode="J" horiz-adv-x="359" 
d="M152 688q39 -1 82 4q7 9 18 11q13 3 23 -4q37 7 82 20q12 3 22.5 -3t14 -18t-2.5 -22.5t-18 -14.5q-42 -12 -79 -20q28 -183 5 -450q-5 -54 -20 -104q-25 -82 -71 -99q-62 -23 -105 35q-28 38 -45 114q-23 105 -21 216q0 12 9 20.5t21.5 8.5t21 -9t8.5 -22
q-2 -103 20 -201q14 -63 34 -91q16 -22 37 -15q18 7 34 61q13 43 17 92q22 261 -4 435q-44 -5 -85 -4q-13 0 -21 9.5t-8 22t9.5 20.5t21.5 8z" />
    <glyph glyph-name="K" unicode="K" horiz-adv-x="462" 
d="M346 602q-18 -34 -43 -71t-43 -61l-51 -64l-45 -59l-25 -35l-10 -14l28 -21l106 -77q150 -107 174 -119q11 -6 14.5 -18t-2 -23t-17.5 -14.5t-23 1.5q-27 14 -181 124l-107 78l-12 9q-5 -116 -20 -228q-2 -12 -12 -19.5t-22 -6t-19.5 11.5t-6.5 22q44 327 8 655
q-1 12 6.5 21.5t20 11t22 -6t11.5 -20.5q16 -148 16 -300l3 4l47 61l49 62q17 23 40.5 57.5t39.5 66.5q6 11 18 14.5t23 -2t14.5 -17.5t-1.5 -23z" />
    <glyph glyph-name="L" unicode="L" horiz-adv-x="365" 
d="M111 683q7 -122 4 -334t-2 -291q116 29 219 44q12 1 22 -6.5t11.5 -19.5t-6 -22t-19.5 -12q-109 -15 -237 -48q-8 -7 -18 -7q-9 0 -16 4q-14 6 -18 20q-3 12 3 22q-2 74 1 317q3 209 -4 329q-1 13 7.5 22t21 10t21.5 -7.5t10 -20.5z" />
    <glyph glyph-name="M" unicode="M" horiz-adv-x="543" 
d="M49 18l-5 130q-4 103 -5.5 168.5t-1.5 130.5q0 12 -1 44t-1 58.5t3 48.5v5v13q1 12 6 21q6 11 18 15q12 5 24 0q5 -2 9 -5.5t5 -6.5l2 -2q1 -2 2 -5q0 -2 1 -4q1 -4 2 -10q2 -8 5 -25q9 -43 10 -49q23 -96 48 -157q39 -92 84 -115q2 -1 3 -2q8 13 19 38q14 34 33 91
l31 98q18 58 21 66q10 31 29 83l13 33l4 10l1 3v2q1 0 1 1q1 1 1 3q2 2 4 5q5 4 11 7q20 8 34 -9q5 -6 8 -16q1 -4 1 -11q2 -9 3 -26q2 -27 3 -73q1 -22 2 -49.5t1.5 -44t0.5 -20.5q8 -101 13.5 -159t18.5 -142.5t31 -153.5q3 -13 -3 -23.5t-18.5 -13.5t-23 3t-13.5 18
q-20 77 -33 161q-13 87 -18.5 145.5t-13.5 160.5q0 2 -3 81q-1 -5 -19 -63l-30 -95q-20 -59 -35 -95q-21 -50 -38 -65q-16 -15 -41 -10q-11 2 -24 8q-66 32 -113 146q-9 21 -18 46q1 -47 12 -391q0 -12 -8.5 -21.5t-20.5 -9.5t-21.5 8.5t-9.5 20.5z" />
    <glyph glyph-name="N" unicode="N" horiz-adv-x="462" 
d="M60 13q-6 81 -12 229.5t-9 199.5q0 2 -1.5 16.5t-3.5 37t-3 41.5q-3 39 -4 61v22q1 7 2 11q1 6 4 10q9 16 27 15q10 0 18 -7q2 -2 5 -4q1 -2 3 -5t5 -8q4 -8 10 -22l29 -64l42 -95q1 -4 11 -23l27 -50l77 -139l50 -91q0 8 1 82q3 236 56 472q2 13 12.5 19.5t23 4t19 -13
t3.5 -22.5q-51 -232 -54 -460q-1 -81 1 -120q1 -22 6 -63q1 -13 1 -20q-1 -13 -10 -21q-14 -15 -34 -7q-4 2 -7 4t-4 3l-1 2q-1 1 -2.5 3t-3.5 5l-8 13l-26 45l-76 136l-77 140l-27 50l-14 27l-19 46q2 -25 2 -27q3 -52 9 -200t12 -229q1 -12 -7 -21.5t-20.5 -10.5t-22 7
t-10.5 21z" />
    <glyph glyph-name="O" unicode="O" 
d="M221 637q-36 -7 -69 -68q-41 -76 -56 -188q-15 -115 6 -206q21 -92 73 -117q58 -28 104 19q42 43 61 120q10 42 10 104t-11 129q-28 149 -96 195q-9 6 -22 12zM255 687q13 -6 22 -12q88 -60 121 -234q12 -71 12 -140t-12 -118q-23 -93 -76 -148q-76 -78 -173 -31
q-78 38 -105 158q-24 99 -7 227q16 125 62 209q31 55 69 81q0 7 3 14q5 11 17 15t23 -1q4 -2 20 -9h2q13 0 22 -11z" />
    <glyph glyph-name="P" unicode="P" horiz-adv-x="431" 
d="M91 381q-2 -142 -14 -361q-1 -12 -10 -20.5t-21.5 -7.5t-21 10t-7.5 22q22 399 10 638q-1 12 7.5 21t21 10t21.5 -7.5t10 -21.5l2 -55q64 56 125 87q139 70 218 -5q25 -24 33 -59t-3 -66q-33 -99 -177 -148q-81 -27 -194 -37zM92 441q101 10 174 34q116 39 138 109
q13 38 -14 63q-48 47 -149 -5q-80 -41 -150 -113q1 -43 1 -88z" />
    <glyph glyph-name="Q" unicode="Q" horiz-adv-x="434" 
d="M333 129q16 32 25 67q10 42 10 104t-11 129q-28 149 -96 195q-9 6 -22 12q-36 -7 -69 -68q-41 -76 -56 -188q-15 -115 6 -206q21 -92 73 -117q58 -28 104 19q-22 32 -39 60q-6 10 -3 22t13.5 18.5t22.5 3.5t19 -14q10 -17 23 -37zM331 26q-73 -67 -164 -23
q-78 38 -105 158q-24 99 -7 227q16 125 62 209q31 55 69 81q0 7 3 14q5 11 17 15t23 -1q4 -2 20 -9h2q13 0 22 -11q13 -6 22 -12q88 -60 121 -234q12 -71 12 -140t-12 -118q-15 -60 -45 -108l40 -58q7 -11 4.5 -23t-13 -19t-22.5 -4.5t-19 12.5z" />
    <glyph glyph-name="R" unicode="R" horiz-adv-x="428" 
d="M155 319q113 -135 265 -266q9 -8 10 -20.5t-7 -22t-20.5 -10.5t-22.5 7q-150 131 -264 266q-2 -37 -5 -79l-8 -92q-5 -44 -7 -76q-1 -13 -10.5 -21t-22 -7t-20.5 10.5t-7 21.5l9 102q7 80 9 111t5.5 99t3 109.5t-3.5 97.5q-4 51 -12 105q-2 13 5.5 23t20 12t22.5 -5.5
t12 -19.5q9 -64 13 -133q37 71 100 121q32 26 71 36q67 18 94 -30q27 -47 -9 -114q-25 -46 -83 -105q-60 -61 -138 -120zM135 379q67 53 116 102q51 52 72 92q20 37 10 55q-4 8 -26 2q-27 -7 -49 -24q-101 -81 -123 -227z" />
    <glyph glyph-name="S" unicode="S" horiz-adv-x="290" 
d="M238 481q-6 14 -15.5 42.5t-13.5 38.5q-16 42 -34 63q-17 18 -29 21q-6 1 -10 -2q-8 -6 -12.5 -21.5t-2.5 -36.5q2 -22 7 -44t14.5 -49t15.5 -42l21 -50l19 -47q30 -74 45 -136q14 -63 6 -130q-3 -26 -17.5 -50t-36.5 -37q-24 -16 -54 -12q-31 4 -55 29q-39 40 -51 147
q-2 23 -3.5 50.5t-2 54.5t-1.5 38q-1 13 7.5 22t21 10t21.5 -7.5t10 -20.5q0 -1 2 -55t5 -86q9 -86 33 -111q18 -18 35 -8q23 14 26 44q7 56 -5.5 111t-41.5 125q-4 9 -19 44l-20 52q-7 17 -17.5 46.5t-16 54.5t-8.5 51q-3 32 6.5 62.5t31.5 48.5q27 21 60 13q31 -7 60 -39
q27 -29 47 -82q3 -10 12.5 -37t15.5 -41q4 -12 -0.5 -23.5t-16 -16t-23 0t-16.5 15.5z" />
    <glyph glyph-name="T" unicode="T" horiz-adv-x="350" 
d="M12 669q136 2 340 42q12 3 22.5 -4t13 -19t-4.5 -22.5t-19 -12.5q-97 -20 -168 -30q1 -96 12 -290q12 -212 12 -315q0 -12 -9 -21t-21 -9t-21 9t-9 21q0 103 -12 311q-11 191 -12 287q-64 -6 -124 -7q-12 0 -21 8.5t-9 21t8.5 21.5t21.5 9z" />
    <glyph glyph-name="U" unicode="U" horiz-adv-x="387" 
d="M107 675q-8 -52 -10 -143q-2 -95 6 -210q11 -120 35 -193q25 -76 59 -87q23 -8 45 20q18 25 35 72q29 84 43 263t1 275q-1 12 6.5 22t19.5 11.5t22 -6t12 -19.5q13 -103 -2 -288q-14 -185 -46 -278q-19 -57 -44 -89q-47 -61 -110 -41q-63 21 -98 126q-27 81 -38 206
q-8 118 -6 216.5t10 152.5q2 12 12 19.5t22.5 5.5t20 -12t5.5 -23z" />
    <glyph glyph-name="V" unicode="V" horiz-adv-x="362" 
d="M97 665q40 -143 99 -463q0 -3 6 -43l22 103q15 77 47 220l45 205q2 12 12.5 19t22.5 4.5t19 -13t4 -22.5l-45 -205l-47 -220q-32 -157 -38 -197q-1 -3 -1 -9v-18q0 -15 -5 -24q-7 -15 -22 -18q-15 -4 -28 5q-10 7 -17 24q-3 9 -7 23q-6 22 -12 58l-9 58q-6 35 -7 40
q-57 316 -97 457q-3 12 3 23t18 14t23 -3t14 -18z" />
    <glyph glyph-name="W" unicode="W" horiz-adv-x="572" 
d="M90 674q16 -61 27.5 -133t21 -157.5t17.5 -130.5q1 -11 16 -92l11 44q19 75 30 111q8 25 15 39q5 10 10 16q10 13 24 16q17 2 31 -11q6 -5 13 -15q10 -14 22 -40q20 -40 50 -114l26 -68l3 24q16 131 44 249q29 124 75 286q4 12 14.5 18t22.5 2.5t18 -14t3 -22.5
q-46 -161 -75 -283q-27 -118 -42 -244q-9 -76 -10 -83q-4 -22 -7 -35q-3 -9 -6 -15q-9 -18 -27 -20q-8 -1 -14 1.5t-8.5 5t-2.5 3.5l-4 4l-2 4q0 1 -1 4l-5 11l-14 38l-44 112q-29 71 -48 110l-3 6l-1 -4q-11 -34 -29 -106q-25 -100 -29 -113q-7 -26 -12 -41q-8 -23 -16 -32
q-12 -12 -28 -8q-10 2 -17 10q-4 4 -5 9l-2 6q-1 3 -2 9q-1 9 -3 25l-2 16q-1 9 -2 14l-1 6q-4 28 -13 79.5t-13 71.5q-8 50 -17.5 134.5t-20 153t-26.5 127.5q-3 12 3 23t18 14t23 -3t14 -18zM256 327l-3 5q-3 -4 3 -5z" />
    <glyph glyph-name="X" unicode="X" 
d="M232 320q-84 -202 -144 -311q-6 -11 -18 -14.5t-22.5 2.5t-14 18t2.5 22l23 45l22 42q9 19 22 46l18 43l20 47l19 43l20 47l19 46l-125 285q-4 12 0.5 23.5t16 16t23 0t16.5 -15.5l102 -234q21 47 63 135l49 100q5 11 17 15t23 -1t15 -17t-1 -23l-43 -88l-50 -107
l-41 -89q99 -227 150 -374q4 -12 -1 -23t-17 -15t-23 1t-15 17q-46 133 -126 318z" />
    <glyph glyph-name="Y" unicode="Y" horiz-adv-x="344" 
d="M363 681q-11 -34 -34.5 -100.5t-40.5 -119t-30 -101.5q-5 -18 -9.5 -36.5t-8.5 -41t-7 -37t-7 -41.5l-6 -38q-2 -9 -6.5 -41.5t-5.5 -37.5t-6 -42.5t-5 -38.5q-2 -12 -12 -19.5t-22 -6t-19.5 11.5t-6.5 22q25 184 40 258q-5 50 -22 105.5t-33 92.5l-46 104q-30 65 -44 98
q-4 12 0.5 23.5t16 16t23 0t16.5 -15.5q12 -30 39 -87.5t47.5 -106.5t34.5 -94q12 43 29 92l36 108l33 91q3 12 14.5 17.5t23 2t17 -15t1.5 -22.5z" />
    <glyph glyph-name="Z" unicode="Z" horiz-adv-x="477" 
d="M142 705q134 -16 308 7q12 1 22 -6.5t12 -19.5q1 -11 -4.5 -20t-16.5 -12q-66 -104 -146 -251q47 -2 87 -7q12 -2 19.5 -12t6 -22t-11.5 -19.5t-22 -6.5q-49 7 -111 8q-31 -57 -91 -160l-82 -138q167 15 304 -6q12 -2 19.5 -12t5.5 -22.5t-12 -20t-23 -5.5
q-162 25 -355 -2q-12 -1 -22 6.5t-12 19.5q-1 11 5 20.5t17 12.5q29 54 89.5 155.5t87.5 150.5q-14 0 -42 -1t-32 -1q-13 0 -22 8.5t-9 21t8.5 21.5t20.5 9q91 3 109 3q76 142 138 240q-138 -13 -253 1q-12 2 -19.5 11.5t-6 22t11 20t22.5 6.5z" />
    <glyph glyph-name="bracketleft" unicode="[" horiz-adv-x="262" 
d="M229 692q-6 0 -40 -2q-32 -2 -54 -4q-34 -3 -51 -6q-2 0 -5 -1v-5v-58q1 -64 5 -176l4 -124q3 -67 5 -111t2 -54v-16q0 -13 0.5 -35t0.5 -39q0 -35 1 -55v-5h2q18 -2 49 -1q20 1 53 3t39 2q12 0 21 -9t9 -21t-9 -21t-21 -9q-6 0 -38 -2t-52 -3q-34 -1 -56 1q-14 1 -23 4
q-18 4 -27 16q-2 3 -3.5 6.5t-1.5 4.5l-1 2v4q-1 3 -1 7v20q-1 20 -1 56q0 17 -0.5 38.5t-0.5 34.5v15q0 10 -2 54t-5 111l-4 124q-4 113 -5 177v60q0 12 1 19q0 5 1 8q1 9 5 15q8 11 25 17q9 3 23 5q19 4 56 7q23 2 54 4q32 1 37 2q13 1 22.5 -6.5t11 -20t-6 -22
t-19.5 -11.5z" />
    <glyph glyph-name="backslash" unicode="\" horiz-adv-x="462" 
d="M388 -6q-82 120 -195 333q-143 268 -182 334q-6 11 -3 23t14 18t23 3t18 -14q39 -67 183 -336q111 -208 192 -327q7 -10 4.5 -22.5t-12.5 -19.5t-22.5 -4.5t-19.5 12.5z" />
    <glyph glyph-name="bracketright" unicode="]" horiz-adv-x="256" 
d="M57 3q8 1 39 2l55 3q33 3 51 6q3 0 5 1v5q1 20 0 58q-1 65 -4 176l-5 122l-4 113q-1 44 -1 54v17v33v40v55v5h-3q-18 2 -49 1l-53 -2q-33 -2 -39 -2q-12 0 -21 9t-9 21t9 21t21 9q6 0 37 2l53 2q35 1 56 -1q14 -1 24 -4q17 -5 26 -16l6 -12v-5q1 -3 1 -7q0 -7 1 -20v-56
v-39v-32v-17q0 -11 1 -55l4 -112l5 -122q4 -113 4 -177q1 -39 0 -60q0 -12 -1 -20q0 -4 -1 -8q-1 -8 -5 -14q-8 -11 -25 -17q-9 -3 -23 -5q-21 -4 -56 -6q-21 -2 -57 -4q-29 -1 -34 -2q-13 -1 -22.5 6.5t-11 20t6 22t19.5 11.5z" />
    <glyph glyph-name="asciicircum" unicode="^" horiz-adv-x="331" 
d="M32 584l85 105q18 20 29 30q18 15 37 15q20 0 38 -16q9 -8 24 -29l17 -23l24 -36l27 -37q7 -10 5.5 -22t-11.5 -19.5t-22 -6t-20 11.5l-27 37l-26 36l-16 24q-8 12 -13 17q-7 -6 -20 -21l-85 -104q-8 -10 -20.5 -11t-22 7t-10.5 20.5t7 21.5z" />
    <glyph glyph-name="underscore" unicode="_" 
d="M33 -85l109 17q75 13 132 21t109 13q13 1 22.5 -7t10.5 -20.5t-7 -22t-20 -10.5q-53 -5 -109 -13t-130.5 -20.5t-108.5 -17.5q-12 -2 -22 5.5t-12 20t5.5 22.5t20.5 12z" />
    <glyph glyph-name="grave" unicode="`" horiz-adv-x="200" 
d="M75 774q20 -24 59 -76q37 -48 58 -71q8 -10 7 -22t-10.5 -20.5t-21.5 -7.5t-21 10q-22 25 -59 75q-39 50 -58 72q-8 10 -7 22.5t10.5 20.5t22 7t20.5 -10z" />
    <glyph glyph-name="a" unicode="a" horiz-adv-x="434" 
d="M311 331l-6 -7q-17 -18 -55 -54l-51 -48q-62 -61 -82 -99q-22 -41 -3 -65q4 -5 19 -9q24 -6 51 16q27 23 55 72q47 82 68 174q4 16 4 20zM104 424q11 10 50 29q37 19 75 31q51 17 83 11q25 -4 40 -21q15 -19 14 -47q0 -5 -1 -10q3 -2 5 -5q4 -4 6 -10q1 -3 2 -8
q1 -6 2 -16q1 -14 2 -40q0 -13 0.5 -28t1 -24.5t0.5 -10.5q13 -158 52 -246q4 -11 -0.5 -23t-15.5 -16.5t-23 0t-17 15.5q-33 78 -48 189q-19 -47 -41 -87q-33 -59 -69 -89q-50 -40 -103 -27q-36 9 -53 31q-42 55 -2 129q25 46 93 114l50 47l55 54q43 45 44 63v6q-2 1 -4 1
q-18 3 -55 -9q-22 -7 -47 -19q-25 -11 -39.5 -19t-18.5 -11q-9 -8 -21.5 -7t-20.5 10.5t-7 22t11 20.5z" />
    <glyph glyph-name="b" unicode="b" horiz-adv-x="387" 
d="M101 45q92 41 159 117q85 96 70 190q-6 42 -39 52q-18 6 -42 -13q-27 -20 -57 -66q-25 -39 -45 -82q-20 -44 -28 -71q-11 -35 -12 -42t-4 -46q0 -5 -1 -27q-1 -9 -1 -11v-1zM95 651q11 -139 9 -360q18 37 38 67q35 54 70 81q50 38 97 23q35 -12 55 -39t26 -61
q19 -122 -85 -240q-42 -48 -98 -86q-55 -37 -109 -56q-12 -4 -23 1t-15 17q-4 10 0 20q-11 5 -16 15q-1 3 -2 7l-1 7v2q0 52 2 185t1 228q-1 88 -9 185q-1 12 7 21.5t20.5 10.5t22 -7t10.5 -21z" />
    <glyph glyph-name="c" unicode="c" horiz-adv-x="334" 
d="M275 350q-39 77 -75 90q-23 7 -47 -19q-29 -32 -47.5 -93t-16.5 -118q2 -46 11 -80.5t22.5 -51.5t27 -25t25.5 -7q33 2 66.5 48.5t46.5 137.5q2 13 12 20t22.5 5.5t19.5 -11.5t6 -22q-15 -104 -61 -169t-108 -69q-65 -4 -106 58t-44 164q-2 67 19 140q22 71 60 113
q51 56 111 36q59 -20 110 -119q5 -11 1.5 -23t-14.5 -17.5t-23 -2t-18 14.5z" />
    <glyph glyph-name="d" unicode="d" horiz-adv-x="397" 
d="M316 48l-5 13q-3 8 -20 60q-2 8 -13 47t-23.5 76.5t-26.5 69.5q-26 57 -52 83q-24 23 -49 15q-27 -8 -35 -56q-8 -43 1 -92q17 -86 77 -142.5t146 -73.5zM389 656q6 -88 5 -235q-1 -189 0 -232q0 -2 0.5 -15t1 -33.5t0.5 -37.5q1 -35 2 -55v-19q-1 -4 -1 -7v-4l-2 -6
q-1 -4 -4 -7q-2 -3 -5 -5q-9 -18 -29 -17q-120 7 -209 79q-90 71 -113 190q-12 60 -2 115q15 83 76 103q58 18 109 -30q35 -34 65 -102q24 -55 51 -148q-1 42 0 231q1 145 -5 231q-1 12 7 21.5t20.5 10.5t22 -7t10.5 -21z" />
    <glyph glyph-name="e" unicode="e" horiz-adv-x="356" 
d="M126 336q9 -6 34 -2q29 6 57 23q29 19 38.5 37.5t1.5 33.5q-3 6 -13 9q-42 13 -81 -34q-21 -26 -37 -67zM76 372q18 41 41 69q63 79 145 54q34 -11 49 -39q23 -44 1 -84t-63 -65q-38 -24 -79 -32q-36 -6 -63 3q-1 -6 -3 -13q-18 -86 -2 -154q14 -61 50 -68q55 -10 106 68
q12 17 33 74q4 12 15.5 17t23 1t16.5 -15.5t1 -22.5q-2 -5 -6 -17t-7 -18l-6 -16q-4 -10 -9 -19t-11 -18q-73 -110 -166 -92q-76 13 -99 113q-18 79 3 179q6 29 15 56q-5 10 -1.5 21t12.5 17q2 1 4 1z" />
    <glyph glyph-name="f" unicode="f" horiz-adv-x="328" 
d="M288 491q4 43 -3.5 89t-26.5 70q-13 17 -37 12t-33 -28q-5 -15 -7.5 -34.5t-3 -54t-0.5 -42.5q-2 -49 -3 -106q42 2 72 1q12 0 20.5 -9.5t8.5 -21.5t-9.5 -20.5t-21.5 -8.5q-30 1 -70 -1q1 -28 1 -75q3 -169 1 -244q0 -12 -9 -20.5t-21.5 -8.5t-21 9t-8.5 22q2 73 0 241
q-1 44 -1 74q-40 -2 -66 -2q-12 0 -21 9t-9 21t9 21t21 9q26 0 65 2q1 60 3 110q0 7 0.5 31t1.5 40.5t4 39.5t9 38q8 24 28.5 41.5t45 25t52 -0.5t46.5 -32q30 -37 39.5 -94t4.5 -109q-1 -12 -10.5 -20t-22 -7t-20.5 10.5t-7 22.5z" />
    <glyph glyph-name="g" unicode="g" horiz-adv-x="337" 
d="M273 438q-3 0 -4 1h-6q-60 -19 -117 -106q-52 -79 -67 -155q-8 -43 -2.5 -77.5t23.5 -35.5q20 -2 41 21q22 24 44 73q16 37 33 93q4 11 9 28l8 28q4 11 7 19q25 72 28 82q1 1 1 3.5t0.5 8.5t0.5 11q1 4 1 6zM283 258l-8 -24q-18 -59 -35 -99q-26 -58 -55 -89
q-40 -45 -89 -41q-37 3 -55.5 28t-23.5 58q-7 45 4 99q16 86 75 176q69 105 149 131q15 4 35 1q0 -1 11 -3q5 -1 7 -1q11 -1 18.5 -8.5t8.5 -18.5q4 -3 7 -7q5 -6 7 -14q1 -4 2 -9q1 -8 2 -20v-49q0 -15 -0.5 -33.5t-0.5 -30.5v-16q0 -5 1.5 -41t1.5 -64.5t-0.5 -69t-4 -80
t-9.5 -72.5q-21 -109 -74 -141q-70 -41 -170 51q-9 8 -10 20.5t7.5 21.5t21 10t21.5 -8q68 -62 100 -43q29 17 45 100q17 93 11 286zM282 420q-7 -4 1 -6q-1 4 -1 6z" />
    <glyph glyph-name="h" unicode="h" 
d="M55 98q-4 26 -4 37q-6 143 -33 558q-1 12 7.5 21.5t20.5 10.5t21.5 -7.5t10.5 -20.5l25 -386q10 26 21 48q31 63 64 93q50 45 103 20q46 -22 70 -93q17 -51 22 -131q7 -121 -10 -235q-2 -12 -12 -19.5t-22.5 -5.5t-20 12t-5.5 23q17 107 10 221q-4 73 -19 117
q-15 46 -39 57q-16 8 -37 -11q-25 -22 -50 -73q-21 -44 -36.5 -93.5t-19.5 -73.5q-6 -33 -7 -67q1 -13 2 -23q5 -46 -2 -72q-1 -5 -3 -8q-13 -23 -37 -13q-6 2 -10.5 6.5t-5.5 6.5l-1 3l-2 6q0 3 -1 8q0 6 -1 17q-1 25 0 48q0 11 1 19z" />
    <glyph glyph-name="i" unicode="i" horiz-adv-x="100" 
d="M88 461q1 -64 -0.5 -225.5t1.5 -225.5q0 -14 -8.5 -23t-21 -9t-21.5 8.5t-9 21.5q-3 65 -1.5 226.5t0.5 226.5q0 13 8.5 22t21 9t21.5 -8.5t9 -22.5zM89 573q0 -12 -9 -21t-21 -9t-21 9t-9 21t9 21t21 9t21 -9t9 -21z" />
    <glyph glyph-name="j" unicode="j" horiz-adv-x="244" 
d="M85 114q0 -109 8 -156t22 -65q9 -12 24 -6q18 7 25 31q7 19 9.5 43.5t2.5 43t-1 50.5t-1 48q0 69 -3 194t-4 162q0 12 8.5 21t21 9t21.5 -8.5t9 -21.5q1 -36 4 -161.5t3 -194.5q0 -11 1 -44.5t1 -54.5t-3.5 -51t-10.5 -53q-7 -22 -23 -41t-38 -28q-57 -23 -93 25
q-23 31 -34 91q-9 53 -9 167q0 12 9 21t21 9t21 -9t9 -21zM235 565q0 -12 -9 -21t-21 -9t-21 9t-9 21t9 21t21 9t21 -9t9 -21z" />
    <glyph glyph-name="k" unicode="k" horiz-adv-x="428" 
d="M313 396l-24 -26l-43 -48l-46 -51q-41 -45 -63 -72q-11 -14 -17 -23q7 -5 19 -10q31 -14 88 -30q49 -13 94 -22q48 -9 63 -9q12 0 20.5 -9.5t8.5 -21.5t-9.5 -20.5t-21.5 -8.5q-19 1 -70 10.5t-101 22.5q-61 17 -97 34q-6 2 -11 5q-5 -51 -11 -96q-2 -13 -12 -20
t-22.5 -5.5t-19.5 11.5t-6 22q6 42 10.5 85.5t6.5 94.5t3 88t0.5 98t-1 89t-2.5 96.5t-2 87.5q0 13 8.5 22t21 9t21.5 -8.5t9 -20.5q7 -311 4 -409l44 50l46 51l43 47q17 19 23 25q8 10 20.5 11t22 -7t10.5 -20.5t-7 -21.5z" />
    <glyph glyph-name="l" unicode="l" horiz-adv-x="128" 
d="M99 665q-3 -63 -3.5 -125.5t2 -142t4 -119t7 -142t6.5 -125.5q1 -12 -7.5 -21t-21 -10t-21.5 7.5t-10 21.5q-1 15 -6.5 124t-7 145.5t-4 119.5t-2 145t3.5 124q1 13 10 21.5t21.5 7.5t21 -10t7.5 -21z" />
    <glyph glyph-name="m" unicode="m" horiz-adv-x="631" 
d="M267 425q-4 -3 -8 -8q-15 -19 -28 -45q-61 -123 -89 -225q-3 -11 -10 -61q-6 -46 -19 -72q-3 -5 -6 -9q-8 -10 -21 -12q-19 -3 -30 14q-3 5 -5 12q-2 9 -2 28q0 5 1 31v23q-4 69 -5 99q-6 171 -18 272q-1 12 6.5 21.5t20 11t22 -6t11.5 -20.5q12 -108 17 -250
q27 78 73 170q17 33 36 57q18 21 35 29q31 16 57 -4q11 -9 17 -30q4 -13 8 -33q6 -32 12 -86l1 -15q23 54 55 98q26 35 51 53q25 16 48 16q31 0 52 -28q8 -11 14 -35q5 -18 9 -46q8 -45 16 -124q4 -34 9 -86l9 -84q3 -34 6 -49q2 -13 -5.5 -23t-20 -12t-22.5 5.5t-12 19.5
q-2 16 -6 50l-8 86q-6 52 -9 86q-8 74 -16 121q-4 27 -8 42l-4 13l-4 4q-5 0 -14 -6q-17 -12 -37 -39q-33 -46 -55.5 -105t-27.5 -117q-2 -15 0 -50q2 -38 0 -57q0 -2 -1 -4q0 -3 -1 -5q-1 -3 -3 -6q-5 -8 -14 -12q-16 -7 -30 4q-5 4 -8 10q-2 3 -2 7q-1 2 -1 4q-1 3 -1 10
q0 3 -2 33q-3 61 -6 91q0 4 -4 56t-8 87q-5 52 -11 82q-2 11 -4 19z" />
    <glyph glyph-name="n" unicode="n" 
d="M93 208q29 71 60 132q28 54 52 89q33 46 62 58q35 14 64 -8q21 -16 34 -51q20 -50 27 -147q10 -128 1 -266q-1 -12 -10 -20.5t-21.5 -7.5t-21 10t-7.5 22q9 137 -1 257q-6 88 -23 130q-7 19 -15 25q-1 1 -5 0q-12 -5 -35 -37q-22 -31 -48 -82q-40 -79 -69 -155
q-4 -12 -15 -51l-15 -55v-2q0 -1 -0.5 -5t-1.5 -9q-1 -13 -5 -20q-8 -13 -22 -16q-13 -3 -26 5q-7 5 -11 13q-1 3 -1.5 6t-1.5 7q-1 5 -1 13q-1 14 -2 36q-1 24 -1 56q-3 218 -16 329q-1 13 6.5 22.5t20 11t22 -6t11.5 -19.5q12 -105 15 -264z" />
    <glyph glyph-name="o" unicode="o" horiz-adv-x="337" 
d="M166 489q10 11 25 9q2 -1 6 -1h10q19 -1 31 -7q47 -25 72 -104q21 -68 21 -151q0 -86 -24 -149q-30 -78 -89 -95q-47 -13 -85 0.5t-62 48.5q-40 59 -38 161q2 95 37 176q37 86 96 112zM194 436q-40 -14 -69 -83q-30 -71 -32 -153q-1 -83 28 -126q27 -40 81 -25
q30 8 49 58q20 53 20 128q0 74 -18 132q-18 56 -43 69q0 1 -5 1h-7q-2 -1 -4 -1z" />
    <glyph glyph-name="p" unicode="p" horiz-adv-x="365" 
d="M86 0q-1 -96 -1 -145q0 -12 -9 -21t-21 -9t-21 9t-9 21q0 50 0.5 150.5t0.5 160.5t-1.5 145.5t-5.5 157.5q-1 13 7.5 22t21 10t21.5 -7.5t10 -20.5q4 -71 6 -153q20 39 40 68q85 124 179 97q40 -12 62 -54q30 -55 -3 -130q-24 -56 -85 -124q-67 -75 -192 -177zM86 78
q92 77 147 139q53 60 75 108t6 78q-11 19 -28 24q-51 16 -112 -73q-13 -19 -27 -44.5t-22 -41.5l-20 -44q-13 -27 -16 -33q-1 -3 -3 -5v-108z" />
    <glyph glyph-name="q" unicode="q" horiz-adv-x="387" 
d="M325 417l-1 13q-64 -23 -118.5 -80t-92.5 -130q-21 -39 -26 -76q-5 -39 15 -48q18 -8 48 18q32 29 72 96q31 52 64 123zM382 484q11 -220 11 -633q0 -12 -9 -21t-21 -9t-21 9t-9 21q0 280 -4 433q-29 -61 -55 -104q-44 -75 -84 -110q-59 -53 -114 -28q-60 27 -48 110
q6 47 31 96q45 86 113 153.5t152 91.5q7 19 27 20q12 1 21 -7.5t10 -21.5z" />
    <glyph glyph-name="r" unicode="r" horiz-adv-x="269" 
d="M82 295q54 134 151 206q10 7 22.5 5.5t19.5 -11.5t5.5 -22.5t-11.5 -19.5q-78 -58 -122 -158t-54 -216q-1 -6 0 -24q1 -22 -1 -35q-1 -4 -1.5 -6.5t-1.5 -4.5q-3 -7 -8 -12q-11 -9 -25 -7q-12 1 -20 11q-4 6 -5 12q-1 3 -1 7q-1 7 0 27v64q0 7 -0.5 20t-0.5 20
q0 11 -5.5 119t-5.5 163q0 12 9 21t21 9t21 -9t9 -21q0 -55 4 -138z" />
    <glyph glyph-name="s" unicode="s" horiz-adv-x="300" 
d="M254 347q-26 43 -36 57q-23 29 -38 33q-26 6 -41 -5t-14 -35q0 -12 18 -40q1 -2 48 -67q23 -32 37 -54.5t29 -57t19 -64.5q4 -37 -9 -68.5t-40 -49.5q-29 -17 -63 -13.5t-67 27.5q-20 15 -36.5 38.5t-22.5 37.5q-5 13 -16 43q-4 11 1 22.5t16.5 15.5t23 -1t15.5 -17
q14 -37 25 -57t30 -34q36 -26 62 -10t21 60q-6 53 -74 146q-41 58 -49 71q-27 41 -28 70q-2 55 38 85q38 28 91 15q36 -9 71 -55q13 -16 41 -63q6 -10 3 -22t-13.5 -18.5t-22.5 -3.5t-19 14z" />
    <glyph glyph-name="t" unicode="t" horiz-adv-x="331" 
d="M45 527q32 -5 70 -4q5 124 5 146q0 12 9 21t21 9t21 -9t9 -21q0 -22 -5 -142q1 0 86 10q12 1 21.5 -6.5t11 -19.5t-6 -21.5t-20.5 -11.5q-88 -10 -94 -10q-3 -76 -3 -133q0 -128 5 -187q8 -81 24 -101q7 -8 12 -10q4 -1 11 3q14 7 26 38q11 31 16 83q9 81 1 163
q-1 13 7 22t20.5 10t22 -7t10.5 -19q8 -89 -1 -175q-6 -58 -20 -97q-19 -53 -54 -71q-30 -15 -57 -6q-23 7 -42 31q-26 32 -35 131q-6 64 -6 192q0 56 3 129q-42 -1 -76 4q-13 2 -20 12t-5.5 22t11.5 19t22 6z" />
    <glyph glyph-name="u" unicode="u" horiz-adv-x="290" 
d="M99 468q0 -4 -0.5 -41.5t-0.5 -64.5t2 -70t5 -78q9 -84 27 -130q17 -43 38 -44q13 -1 27 37q16 43 24 126q4 35 6 76.5t2.5 69t0.5 59.5v39q0 12 9 20.5t21.5 8.5t21 -9t8.5 -22v-39q0 -33 -0.5 -61.5t-2.5 -70.5t-6 -77q-9 -89 -28 -141q-29 -79 -85 -76q-60 3 -91 81
q-22 55 -31 147q-4 37 -6 81.5t-2 72.5t0.5 65.5t0.5 40.5q0 12 9 21t21 9t21 -9t9 -21z" />
    <glyph glyph-name="v" unicode="v" horiz-adv-x="328" 
d="M61 478q21 -45 37 -92q16 -49 34.5 -113.5t27.5 -90.5l11 -38q2 10 4 16q47 191 111 306q6 10 18 13.5t22.5 -2.5t14 -18t-2.5 -23q-60 -107 -105 -290q-4 -15 -17 -83q-5 -28 -8 -40q-2 -9 -3 -14q-1 -4 -2 -7l-4 -6q-6 -10 -17 -13q-15 -4 -27 6q-4 3 -6 7q-2 2 -3 4
q0 2 -1 3v1v2l-1 3l-3 11l-9 39q-16 62 -30 105l-27 93q-18 63 -33.5 109t-34.5 86q-5 11 -1 23t15 17t23 1t17 -15z" />
    <glyph glyph-name="w" unicode="w" horiz-adv-x="456" 
d="M223 234q-21 -59 -49 -161l-7 -29q-5 -17 -5 -18q-3 -11 -5 -16.5t-4 -9.5q-4 -6 -9 -10q-16 -11 -33 -1q-7 4 -12 12q-1 2 -2 4.5t-2 6.5q-1 5 -2 13q-3 12 -6 34l-10 66q-31 206 -62 333q-3 12 3.5 22.5t18.5 13.5t22.5 -3.5t13.5 -18.5q31 -125 60 -315q26 107 45 127
v6v5q1 12 5 20q6 11 18 16q11 5 24 0q15 -5 29 -27q9 -13 19 -35q16 -36 40 -96l12 -31l3 28q4 29 5 34q23 116 79 265q4 11 15.5 16t23 1t16.5 -15.5t1 -23.5q-55 -146 -77 -255q0 -2 -3 -29l-7 -58q-5 -36 -9 -56q-2 -13 -4 -20q-1 -6 -3 -10t-5 -8q-9 -11 -23 -11
q-13 0 -22 9q-3 2 -5 5q-1 3 -3 6t-4 10q-3 6 -12 31l-34 91q-20 51 -34 82z" />
    <glyph glyph-name="x" unicode="x" horiz-adv-x="341" 
d="M192 174q-52 -102 -99 -171q-7 -10 -19.5 -12.5t-22.5 4.5t-12.5 19.5t4.5 22.5q53 76 117 208q-46 98 -110 208q-6 11 -3 23t14 18t23 3t18 -14q51 -88 91 -169q53 109 85 166q6 10 18 13.5t22.5 -2.5t14 -18t-2.5 -23q-29 -54 -103 -206q54 -119 86 -227q3 -11 -3 -22
t-17.5 -14.5t-22.5 2.5t-15 18q-24 83 -63 173z" />
    <glyph glyph-name="y" unicode="y" horiz-adv-x="300" 
d="M98 463q-5 -160 0 -233q6 -81 22 -124q13 -39 28 -39q16 0 31 20q16 23 27 69q11 45 22 153q7 72 7 104q-1 27 -1 46q0 4 1 8q0 3 1 6q2 5 7 10q13 13 30 7q11 -3 17 -13q1 -2 2 -5q1 -2 2 -5v-3v-1v-1v-12q1 -20 1 -30v-14l5 -96q4 -74 5 -121q5 -192 -25 -266
q-18 -43 -50 -72.5t-72 -39.5q-41 -10 -82.5 4t-74.5 51q-9 9 -8 21.5t10 21t21.5 7.5t20.5 -10q45 -50 99 -37q25 6 47 26q21 20 33 50q18 45 21 139q-8 -17 -17 -31q-32 -47 -80 -46q-57 1 -85 79q-18 51 -25 140q-5 76 0 239q0 12 9.5 20.5t21.5 8.5t20.5 -9.5t8.5 -21.5
z" />
    <glyph glyph-name="z" unicode="z" horiz-adv-x="365" 
d="M68 486q94 6 119 6q43 1 70 0q17 -2 28 -4q21 -5 30 -18q7 -11 6 -26q-1 -8 -4 -17q-4 -14 -15 -36q-17 -35 -50 -91l-22 -37q41 2 73 3q13 0 22 -8.5t9 -21t-8.5 -21.5t-20.5 -9q-46 -1 -114 -6l-29 -45l-49 -78l-8 -13q37 5 78 6t95.5 -0.5t72.5 -1.5q12 0 21 -9t9 -21
t-9 -21t-21 -9q-20 0 -82.5 2t-101.5 0t-76 -9q-1 -1 -2 -1.5t-4.5 -2t-9.5 -3.5q-32 -12 -51 9q-8 9 -7 22q0 3 1 6l2 6q1 3 3 7q4 5 10 16l29 48l50 79l4 7q-17 -1 -31 -2q-12 -1 -21.5 7.5t-10.5 20.5t7.5 21.5t20.5 10.5q21 1 75 5l45 73q31 54 47 87q4 8 7 15h-2
q-24 1 -65 0q-23 0 -116 -6q-13 -1 -22 7.5t-10 21t7.5 21.5t20.5 10z" />
    <glyph glyph-name="braceleft" unicode="{" horiz-adv-x="328" 
d="M297 689q-66 4 -109.5 -34t-34.5 -98q1 -7 3 -15l5 -18q3 -11 6 -19q11 -43 3 -72q-9 -36 -53 -82q50 -26 52 -90q1 -21 -6 -54q-7 -31 -7 -42q-4 -83 25 -116q30 -34 105 -29q12 1 21.5 -7.5t10.5 -20.5t-7.5 -21.5t-20.5 -10.5q-105 -7 -154 50q-45 51 -40 157
q1 15 8 52q5 26 5 40q-1 29 -20 39l-10 5q-11 4 -13 5q-27 12 -29 37t25 41q8 5 10 6h1q34 35 39 55q4 15 -4 43q-14 56 -15 59q-7 48 9 88t47 64.5t71 37t81 10.5q12 -1 20.5 -10t7.5 -21.5t-10 -21t-22 -7.5z" />
    <glyph glyph-name="bar" unicode="|" horiz-adv-x="702" 
d="M376 311q41 98 83 160q42 60 83 77q61 25 109 -34q15 -21 12 -57q-3 -27 -15 -64q-22 -65 -68 -152q-44 -82 -86 -140q-22 -30 -40 -48q-24 -25 -45 -26q-23 -1 -49 13q-7 3 -18 10q-11 8 -13 9q-28 17 -83 65q-53 48 -99 100q-57 66 -77 115q-31 75 20 112q38 28 100 1
q42 -19 98 -62q43 -34 88 -79z" />
    <glyph glyph-name="braceright" unicode="}" horiz-adv-x="331" 
d="M56 27q65 -6 110 31t38 96q-1 7 -2.5 15t-4.5 19q-3 10 -5 20q-10 43 -2 72q10 35 55 80q-50 26 -50 92q0 20 8 54q7 30 8 41q5 83 -22 117q-29 36 -103 31q-12 -1 -21.5 7.5t-10.5 20.5t7.5 21.5t20.5 10.5q106 7 154 -53q42 -53 35 -159q-1 -17 -10 -52q-6 -26 -6 -39
q0 -30 18 -39q4 -2 10 -4q10 -4 13 -6q28 -13 29 -39q1 -25 -25 -40q-9 -5 -11 -5q-35 -35 -41 -55q-4 -15 2 -43q13 -56 14 -59q5 -48 -12 -88t-49 -63.5t-72 -35.5t-81 -8q-12 1 -20 10.5t-7 22t10.5 20.5t22.5 7z" />
    <glyph glyph-name="asciitilde" unicode="~" horiz-adv-x="384" 
d="M41 576q51 39 94 40q34 0 69 -25l17 -13l14 -10q5 -4 11 -8t10.5 -5t10 -1t11.5 2q5 1 27 17l33 26q9 7 21.5 5.5t20 -11t6 -22t-11.5 -20.5l-34 -26q-29 -22 -44 -27q-13 -4 -25.5 -4.5t-23.5 2.5t-20.5 7t-18.5 10l-15 11q-7 4 -14 10t-10 8q-19 14 -33 14
q-23 0 -57 -28q-10 -7 -22.5 -5.5t-20 11t-6 22t10.5 20.5z" />
    <glyph glyph-name="exclamdown" unicode="&#xa1;" horiz-adv-x="100" 
d="M49 21q-7 32 -11.5 64.5t-7 70t-4.5 64.5t-1.5 70.5t0.5 64t2.5 70.5t3 64t4 69t3.5 64q1 13 10.5 22.5t21.5 8.5t20.5 -11.5t7.5 -23.5q-1 -11 -3.5 -58.5t-3.5 -61.5t-3 -57t-2.5 -61t-1 -57t0.5 -60.5t2 -56t4 -60.5l7 -55q4 -30 9 -57q3 -13 -4 -25t-19 -14.5
t-22.5 5t-12.5 21.5zM100 700q0 -12 -9 -21t-21 -9t-21 9t-9 21t9 21t21 9t21 -9t9 -21z" />
    <glyph glyph-name="cent" unicode="&#xa2;" horiz-adv-x="331" 
d="M131 111q4 232 5 249q-5 -10 -10 -22q-24 -61 -22.5 -123.5t24.5 -100.5zM196 467q10 -1 20 -5q37 -15 58.5 -58.5t23.5 -100.5q0 -13 -8.5 -22t-21 -9t-21.5 8.5t-9 20.5q-1 43 -14 70t-28 34q0 -19 -6 -315q38 13 85 69q8 10 20.5 11t22 -7t10.5 -20.5t-7 -21.5
q-68 -82 -132 -93v-70q0 -12 -9 -21t-21 -9t-21 9t-9 21q0 36 1 77q-31 14 -52 47q-33 52 -35 130.5t27 149.5q27 62 66 89q-1 48 -2 91q0 12 8.5 21.5t20.5 9.5t21.5 -8.5t9.5 -20.5z" />
    <glyph glyph-name="sterling" unicode="&#xa3;" horiz-adv-x="456" 
d="M32 373q44 10 84 5q2 28 3 48q15 168 54 223q25 37 61 55q36 17 73 11q39 -6 65.5 -35t34.5 -75q2 -12 -5.5 -22.5t-19.5 -12.5t-22.5 5.5t-12.5 19.5q-9 55 -49 61q-18 3 -38.5 -7t-38.5 -34q-29 -42 -42 -194q-2 -20 -4 -58l20 -7q21 -7 34.5 -10t36 0.5t49.5 16.5
q11 5 23 1t17 -15t1 -23t-15 -17q-35 -17 -67 -21.5t-52.5 -1t-46.5 12.5l-5 2q-6 -78 -16 -117q-1 -3 -7 -30t-10 -42q30 7 55 3q35 -6 77 -26q50 -24 53 -25q21 -7 37 -2q23 8 52 40q8 9 20.5 10t21.5 -7.5t10 -21t-8 -21.5q-39 -45 -78 -57q-35 -11 -74 3q-9 3 -60 27
q-34 16 -61 20q-30 5 -59 -11l-1 -1q-1 -2 -3 -5.5t-3 -4.5q-7 -11 -14 -17q-10 -6 -21 -6q-13 -1 -23 8q-18 15 -12 38q2 9 10 20q2 3 4 5.5t3 3.5l2 2l1 1v1q5 11 9.5 25.5t6.5 25.5l8 29q4 19 6 29q9 37 15 120q-30 5 -65 -3q-12 -3 -23 3.5t-13.5 18.5t4 23t18.5 13z
" />
    <glyph glyph-name="currency" unicode="&#xa4;" horiz-adv-x="472" 
d="M125 504q44 39 102 38q9 7 20 6q63 -4 108 -36q22 27 54 62q8 9 20.5 10t21.5 -7.5t10 -21t-8 -21.5l-56 -65q41 -60 32 -137q-7 -55 -38 -99l69 -67q9 -9 9 -21.5t-8.5 -21.5t-21 -9t-21.5 8l-69 67q-60 -46 -144 -36q-38 5 -68 22l-12 -10q-6 -5 -8 -6.5t-5 -4t-5 -4.5
l-5 -5q-3 -3 -10 -9.5t-14 -14.5q-9 -8 -21.5 -8t-21 9t-8.5 21.5t9 21.5q36 34 56 51q-48 64 -34 155q6 46 29 86l-61 62q-8 9 -8 21.5t9 21t21.5 8.5t21.5 -9zM243 480q-48 8 -83 -26t-43.5 -92t16.5 -100.5t80 -48.5q65 -8 107 29.5t49 96.5q7 53 -19.5 94.5t-84.5 51.5
q-10 -7 -22 -5z" />
    <glyph glyph-name="yen" unicode="&#xa5;" horiz-adv-x="531" 
d="M322 459q-63 -11 -124 -27q17 -47 34 -85l13 -37l8 2q16 31 22 46q23 53 47 101zM98 706q26 -60 67 -182l13 -35q88 22 178 36q50 96 107 180q7 10 19.5 12.5t22.5 -4.5t12.5 -19.5t-4.5 -22.5q-44 -64 -83 -135q23 3 46 5q12 1 22 -7t11 -20t-7 -22t-20 -11
q-44 -4 -87 -10q-33 -65 -64 -137l-5 -11q31 5 160 22q12 1 22 -6.5t11.5 -19.5t-6 -22t-19.5 -12q-152 -19 -201 -27q-10 -20 -17 -32l-9 -14q-2 -81 -10 -195q-1 -12 -10.5 -20.5t-21.5 -7.5t-20.5 10.5t-7.5 21.5q8 119 11 202l-2 7l-3 10q-72 -15 -131 -36q-12 -4 -23 1
t-15 17t1 23t17 15q61 22 134 38q-6 16 -10 25q-17 40 -37 94q-42 -12 -85 -26q-11 -4 -22.5 1.5t-15 17t2 23t17.5 14.5q41 14 83 26l-10 32q-41 119 -67 177q-4 11 0.5 23t15.5 16.5t23 0t17 -15.5z" />
    <glyph glyph-name="brokenbar" unicode="&#xa6;" horiz-adv-x="128" 
d="M106 699q9 -119 -8 -309q-1 -12 -10.5 -20t-22 -7t-20.5 10.5t-7 22.5q17 179 8 299q-1 12 7 21.5t20.5 10.5t22 -7t10.5 -21zM102 206q23 -161 0 -338q-2 -12 -12 -19.5t-22 -6t-19.5 11.5t-6.5 22q23 168 0 322q-1 12 6 22t19.5 11.5t22.5 -5.5t12 -20z" />
    <glyph glyph-name="section" unicode="&#xa7;" horiz-adv-x="328" 
d="M255 548q11 59 -4 86q-9 16 -27 17q-23 0 -47 -18.5t-31 -46.5q-6 -21 -4.5 -33t12.5 -28q6 -9 60 -69q57 -63 85 -103q47 -67 40 -109q-8 -46 -65 -59q58 -66 53 -126q-4 -56 -50 -75q-34 -14 -82 1q-41 12 -79.5 40t-57.5 60q-6 10 -3 22t13.5 18.5t22.5 3.5t19 -14
q12 -21 41.5 -42t60.5 -31q28 -8 43 -2q11 4 12 23q2 29 -20.5 60t-69.5 73q-72 64 -80 73q-44 45 -53 84q-10 40 2 72.5t41 48.5q11 6 23 9l-6 8q-19 29 -22 55t6 56q12 46 52.5 77.5t84.5 31.5q53 -1 79 -48q25 -46 11 -125q-3 -13 -13 -20t-22.5 -4.5t-19.5 12.5t-5 22z
M174 408q-32 27 -58 13q-24 -13 -14 -54q6 -23 39 -56q10 -11 76 -70l2 -2q5 2 10 2q50 0 51 13q3 18 -30 65q-23 33 -70 85z" />
    <glyph glyph-name="dieresis" unicode="&#xa8;" horiz-adv-x="200" 
d="M73 658q0 -12 -9 -21t-21 -9t-21 9t-9 21t9 21t21 9t21 -9t9 -21zM203 652q0 -12 -9 -21t-21 -9t-21 9t-9 21t9 21t21 9t21 -9t9 -21z" />
    <glyph glyph-name="copyright" unicode="&#xa9;" 
d="M221 637q-36 -7 -69 -68q-41 -76 -56 -188q-15 -115 6 -206q21 -92 73 -117q58 -28 104 19q42 43 61 120q10 42 10 104t-11 129q-28 149 -96 195q-9 6 -22 12zM255 687q13 -6 22 -12q88 -60 121 -234q12 -71 12 -140t-12 -118q-23 -93 -76 -148q-76 -78 -173 -31
q-78 38 -105 158q-24 99 -7 227q16 125 62 209q31 55 69 81q0 7 3 14q5 11 17 15t23 -1q4 -2 20 -9h2q13 0 22 -11zM258 393q-2 24 -10.5 34.5t-16.5 11.5q-9 2 -21.5 -7t-23.5 -32q-12 -26 -12.5 -71.5t11.5 -81.5q12 -31 27 -36q19 -5 55 27q9 9 21.5 8t21 -10t7.5 -21.5
t-10 -20.5q-60 -55 -111 -41q-45 13 -67 73q-17 46 -16 104t19 96q17 37 46 57t61 16q34 -5 54.5 -32.5t24.5 -67.5q1 -13 -7 -22.5t-20.5 -10.5t-22 7t-10.5 20z" />
    <glyph glyph-name="ordfeminine" unicode="&#xaa;" horiz-adv-x="300" 
d="M196 487q4 23 16 70q-48 -6 -81.5 -29.5t-45.5 -49t-11 -48.5q1 -15 6 -21q4 -5 11 -4q40 1 105 82zM57 663q59 50 121 57q42 4 68 -9q29 -14 38 -46q9 -34 -11 -112q-21 -82 -21 -106q-2 -40 23 -52q12 -6 15.5 -17.5t-2 -23t-17 -15t-22.5 1.5q-39 19 -51 59
q-57 -53 -104 -55q-37 -2 -59 24q-19 23 -21 58q-2 30 11 62t38 60.5t67.5 47.5t94.5 21q3 21 1 31q-2 6 -6 9q-11 5 -36 2q-43 -4 -87 -43q-10 -8 -22.5 -7t-20.5 10.5t-7 22t10 20.5z" />
    <glyph glyph-name="guillemotleft" unicode="&#xab;" horiz-adv-x="409" 
d="M250 414l-86 -82l-50 -51l-15 -18l-1 -2l9 -15q15 -23 57 -58q59 -49 72 -64q9 -9 8 -21.5t-10 -21t-21.5 -7.5t-20.5 10q-12 13 -66 58q-49 40 -69 72q-23 35 -19 59q2 11 13 26q6 8 19 22q21 23 52 54l88 83q9 9 21.5 8t21 -10t7.5 -21.5t-10 -20.5zM398 428
q-12 -17 -84 -97l-48 -53l-11 -12q3 -5 8 -11q13 -17 40 -42q15 -14 33 -29l32 -26l19 -14q9 -8 10 -20.5t-7 -22t-20.5 -10.5t-22.5 7q-3 3 -18 15l-33 27q-18 15 -33 29q-31 28 -48 50q-27 34 -21 61l4 10q1 1 1.5 2.5t1.5 2.5l5 6l16 17l47 53q70 77 79 91
q7 10 19.5 12.5t22.5 -4.5t12.5 -19.5t-4.5 -22.5z" />
    <glyph glyph-name="logicalnot" unicode="&#xac;" horiz-adv-x="362" 
d="M53 360q90 5 206 27l3 1q1 1 5 2l8 4q29 11 48 -4q10 -7 16 -21q4 -9 7 -22q5 -20 10 -50q7 -44 10 -85q1 -12 -7 -21.5t-20.5 -10.5t-22 7t-10.5 21q-3 38 -9 80q-4 27 -9 43l-1 3q-10 -4 -16 -5q-120 -24 -216 -29q-12 -1 -21 7.5t-10 21t7.5 21.5t21.5 10z" />
    <glyph glyph-name="registered" unicode="&#xae;" 
d="M221 637q-36 -7 -69 -68q-41 -76 -56 -188q-15 -115 6 -206q21 -92 73 -117q58 -28 104 19q42 43 61 120q10 42 10 104t-11 129q-28 149 -96 195q-9 6 -22 12zM255 687q13 -6 22 -12q88 -60 121 -234q12 -71 12 -140t-12 -118q-23 -93 -76 -148q-76 -78 -173 -31
q-78 38 -105 158q-24 99 -7 227q16 125 62 209q31 55 69 81q0 7 3 14q5 11 17 15t23 -1q4 -2 20 -9h2q13 0 22 -11zM202 341q33 15 50 32q16 16 8 32q-4 9 -9 10q-6 2 -18 -1q-16 -5 -38 -19q-5 -25 -6 -54h4q9 1 9 0zM142 431q43 32 74 41q29 8 53 1q30 -10 45 -42
q26 -54 -19 -100q-26 -26 -71 -46q-2 0 -3 -1q8 -13 22 -29q27 -31 58 -59q9 -8 10 -20.5t-7.5 -21.5t-21 -10t-21.5 8q-34 30 -63 64l-8 9q2 -49 3 -66q0 -12 -8.5 -21.5t-20.5 -9.5t-21.5 8.5t-9.5 20.5q-1 16 -2.5 54.5t-2.5 61.5t0 57t5 62q-6 9 -3.5 21t12.5 18z" />
    <glyph glyph-name="macron" unicode="&#xaf;" horiz-adv-x="428" 
d="M73 702q38 0 81.5 2.5t74 5.5t81.5 8l77 9q12 1 22 -7t11 -20t-7 -22t-20 -11q-28 -2 -78 -8q-53 -6 -84 -9t-75.5 -5.5t-82.5 -2.5q-12 0 -21 9t-9 21t9 21t21 9z" />
    <glyph glyph-name="degree" unicode="&#xb0;" horiz-adv-x="284" 
d="M181 657h-3l-5 1q-21 -8 -42.5 -39.5t-31.5 -72.5q-10 -43 -2.5 -68.5t28.5 -33.5q33 -12 58 8q26 20 37 63q11 44 0.5 84t-39.5 58zM228 697q28 -22 42.5 -57.5t14.5 -70t-7 -69.5q-16 -63 -58 -96q-51 -39 -115 -16q-27 10 -44 29.5t-22.5 44.5t-4.5 50q1 24 7 49
q12 51 42 95t70 58q14 5 32 3q1 0 11 -1q4 -1 6 -1q19 -1 26 -18z" />
    <glyph glyph-name="plusminus" unicode="&#xb1;" horiz-adv-x="499" 
d="M224 521q-2 -52 3 -97l94 24q12 3 23 -3t14 -18t-3 -23t-18 -14l-99 -25q13 -53 40 -104q6 -11 2.5 -23t-14.5 -17.5t-23 -2t-17 14.5q-31 58 -47 118l-110 -28q-12 -3 -22.5 3.5t-13.5 18.5t3.5 22.5t18.5 13.5l113 29q-7 52 -4 113q1 13 10 21.5t21.5 7.5t21 -10
t7.5 -21zM89 159q43 5 96.5 15t79.5 16l101 22q76 17 84 19q13 3 23.5 -3.5t13 -19t-4 -23t-18.5 -12.5l-70 -16q-52 -12 -78 -17l-70 -15q-42 -9 -78.5 -15t-70.5 -11q-12 -1 -22 6.5t-11.5 19.5t6 22t19.5 12z" />
    <glyph glyph-name="uni00B2" unicode="&#xb2;" horiz-adv-x="344" 
d="M85 625q15 13 48 33q33 19 65 31q45 17 76 9q48 -11 52 -67q5 -73 -64 -164q-22 -29 -57 -67q-46 -51 -49 -55l-8 -8l5 1q58 10 180 10q12 0 21 -9t9 -21t-9 -21t-21 -9q-117 0 -170 -10q-7 -1 -17 -3l-22 -5q-12 -2 -19 -3q-17 -4 -26 -5q-7 -1 -11 -1q-4 -1 -7 0
q-4 0 -7 1q-10 4 -16 12q-7 10 -5 22q1 4 3 8l2 4q1 2 3 3q0 1 2 3l6 6l19 19q30 31 42 46q4 4 51 56q36 40 53 63q55 73 52 123q-1 12 -6 13q-13 3 -42 -7q-26 -10 -54 -27t-39 -27q-10 -8 -22 -7t-20.5 10.5t-7.5 21.5t10 21z" />
    <glyph glyph-name="uni00B3" unicode="&#xb3;" horiz-adv-x="359" 
d="M80 629q14 13 42 33q28 19 56 31q39 17 67 14q22 -3 36 -17t19 -38q8 -47 -32 -96q-9 -11 -21 -23q44 -9 71 -42q51 -62 27 -115q-18 -42 -81 -66q-47 -18 -108 -24q-62 -6 -92 0q-12 2 -19.5 12.5t-5.5 22.5t12.5 19.5t22.5 5.5q28 -5 79 0t89 20q40 15 48.5 34
t-18.5 53q-21 25 -65 24q-15 -1 -33 -5q-3 0 -7 -1t-5 -1q-4 -1 -7 -1h-7q-12 1 -20 10q-9 11 -9 25q1 14 11 24q7 6 21 11q2 1 7 2.5t7 2.5q3 1 3 2q38 30 54 49q22 26 18 47q-1 6 -2 5q-12 2 -36 -9q-22 -10 -46 -26.5t-34 -26.5q-9 -8 -21.5 -8t-21 9t-8.5 21.5t9 21.5z
" />
    <glyph glyph-name="acute" unicode="&#xb4;" horiz-adv-x="187" 
d="M189 736l-48 -61q-34 -43 -52 -68q-7 -10 -19.5 -12t-22.5 5.5t-12 20t6 22.5l53 67q34 44 47 62q8 10 20 11.5t22 -6t11.5 -19.5t-5.5 -22z" />
    <glyph glyph-name="uni00B5" unicode="&#xb5;" 
d="M338 81q4 -8 8 -14l4 -9q2 -2 2.5 -3.5t1.5 -2.5l7 -7l18 -22q8 -9 7 -21.5t-10.5 -20.5t-22 -7t-20.5 11l-18 20l-9 12q-3 4 -7 10q-61 -63 -135 -36q-35 13 -63 44q-1 -43 -1 -86q0 -12 -9 -21t-21 -9t-21 9t-9 21q0 229 28 548q1 12 10.5 20t22 7t20.5 -10.5t7 -22.5
q-17 -187 -24 -343q2 -3 3 -7q12 -35 33 -60t45 -34q49 -18 91 47q26 41 32 171q4 106 -5 194q-1 12 7 22t20 11t22 -7t11 -20q9 -93 5 -202q-6 -122 -31 -181q1 0 1 -1z" />
    <glyph glyph-name="paragraph" unicode="&#xb6;" horiz-adv-x="462" 
d="M243 656q-2 1 -5 1q-39 7 -72 -8.5t-52 -53.5q-31 -63 5 -153q17 -42 44 -74t58 -47q14 -6 27 -10q0 16 -1 32q0 40 -2 147.5t-2 165.5zM353 576q-17 32 -50 54q0 -50 2 -146.5t2 -139.5q1 -23 1 -44q19 -2 50 -2q0 16 -1 33q0 43 -1.5 124.5t-2.5 120.5zM364 658
q8 7 19 7q12 0 21 -9t9 -21v-45l2 -3q5 -13 -1 -26q0 -33 1.5 -110t1.5 -119q2 -182 -10 -306q-1 -12 -11 -20t-22 -7t-20 11t-7 22q9 91 11 206q-31 0 -51 2q-1 -118 -10 -212q-1 -12 -11 -20t-22 -7t-20 11t-7 22q9 95 11 215q-26 6 -51 18q-44 20 -79 61t-55 92t-22 102
t19 99q29 58 80 81q51 24 108 14q66 -11 116 -58z" />
    <glyph glyph-name="periodcentered" unicode="&#xb7;" horiz-adv-x="136" 
d="M89 404q0 -12 -9 -21t-21 -9t-21 9t-9 21t9 21t21 9t21 -9t9 -21z" />
    <glyph glyph-name="cedilla" unicode="&#xb8;" horiz-adv-x="136" 
d="M91 32q-13 -47 -35 -77t-63 -56q-10 -7 -22 -4.5t-19 13t-4.5 22.5t13.5 19q31 21 46.5 42t25.5 57q4 12 14.5 18t22.5 2.5t18 -14t3 -22.5z" />
    <glyph glyph-name="uni00B9" unicode="&#xb9;" horiz-adv-x="100" 
d="M92 678q2 -45 4.5 -95.5t5.5 -110.5l6 -95q1 -13 -7.5 -22t-21 -10t-21.5 7.5t-10 20.5l-6 96q-3 61 -5.5 111.5t-4.5 95.5q0 12 8 21t20.5 9.5t21.5 -7.5t10 -21z" />
    <glyph glyph-name="ordmasculine" unicode="&#xba;" horiz-adv-x="293" 
d="M148 640q-9 -7 -17 -16q-16 -21 -27.5 -64.5t-8.5 -84.5q2 -42 20 -62q17 -19 51 -14q44 6 58 79q6 36 2 68.5t-16 50.5q-9 16 -22 24t-40 19zM197 684q43 -20 65 -55q18 -30 24 -75q5 -45 -3 -87q-9 -48 -35 -85q-27 -36 -74 -43q-66 -9 -105 35q-30 35 -34 97
q-4 51 10.5 105.5t39.5 85.5q6 8 12.5 14.5t15 12t13.5 7.5l14 8l13 7q10 6 22 2.5t18 -14.5q4 -7 4 -15z" />
    <glyph glyph-name="guillemotright" unicode="&#xbb;" horiz-adv-x="459" 
d="M138 467q13 -28 70 -85l41 -43q23 -26 29 -44q12 -32 -20 -76q-21 -28 -61 -65q-19 -18 -43 -38l-46 -38l-28 -21q-9 -8 -21.5 -7t-20.5 10.5t-7 22t11 20.5l26 21l46 36l43 38q36 33 52 56q3 4 5.5 8t3.5 6.5t2 4t1 2.5v1q-3 7 -17 23q-9 10 -39 41q-64 66 -81 101
q-5 11 -1 23t15 17t23 1t17 -15zM265 492q59 -43 106 -91q34 -35 51 -63q25 -44 11 -76q-2 -5 -7 -10l-7 -8l-20 -22l-59 -63q-97 -103 -98 -105q-8 -9 -20.5 -10t-22 7t-10.5 20.5t7 22.5q8 8 100 106l59 63l19 21l3 4q0 7 -7 20q-13 21 -42 51q-43 44 -99 85
q-10 7 -12 19.5t5.5 22.5t20 12t22.5 -6z" />
    <glyph glyph-name="onequarter" unicode="&#xbc;" horiz-adv-x="490" 
d="M351 202l-2 21q-5 54 -6 66q-28 -44 -64 -88q21 -1 52 0q9 1 20 1zM374 434q7 0 13 -3q11 -5 15 -17t-1 -23l-4 -9q1 -31 12 -153l2 -23q25 1 41 3q13 1 22.5 -7t10.5 -20.5t-7 -22t-20 -10.5q-16 -1 -43 -3q4 -55 4 -99q0 -12 -9 -21t-21 -9t-21 9t-9 21q0 43 -4 95h-22
q-48 -2 -77 0q-18 1 -29 3q-8 2 -14 5q-13 6 -19 18q-11 28 16 50q4 3 6.5 4.5t3.5 2t2 1.5q71 86 114 170v8q0 13 8.5 22t20.5 9q5 0 9 -1zM130 634q5 -37 9 -77.5t9 -93.5l6 -78q1 -13 -7 -22.5t-20.5 -10.5t-22 7t-10.5 20l-6 77q-4 52 -8 92.5t-10 77.5q-1 12 6 22
t19.5 11.5t22.5 -5.5t12 -20zM388 673q-22 -50 -63 -128q-50 -93 -65 -123l-192 -410q-5 -11 -17 -15t-23 1t-15 17t1 23l192 410q4 7 66 126q40 76 62 123q5 12 16.5 16t23 -1t15.5 -16.5t-1 -22.5z" />
    <glyph glyph-name="onehalf" unicode="&#xbd;" horiz-adv-x="534" 
d="M174 634q5 -37 9 -77.5t9 -93.5l6 -78q1 -13 -7 -22.5t-20.5 -10.5t-22 7t-10.5 20l-6 77q-4 52 -8 92.5t-10 77.5q-1 12 6 22t19.5 11.5t22.5 -5.5t12 -20zM432 673q-22 -50 -63 -128q-50 -93 -65 -123l-192 -410q-5 -11 -17 -15t-23 1t-15 17t1 23l192 410q4 7 66 126
q40 76 62 123q5 12 16.5 16t23 -1t15.5 -16.5t-1 -22.5zM296 303q22 20 52 37t58 20q43 5 64 -26q20 -29 11 -83q-7 -39 -45 -92q-5 -7 -47 -61q53 1 119 -32q12 -6 15.5 -17.5t-2 -23t-17 -15t-22.5 1.5q-35 17 -61.5 23t-55.5 0l-17 -12q-31 -21 -57 -6q-16 9 -15 28
q0 5 2 10q2 4 4 7q2 2 5 6l13 16q23 25 32 38q6 7 25.5 32t29.5 39q30 42 34 68q6 30 0 39l-9 1q-15 -2 -36.5 -14t-37.5 -28q-9 -8 -21.5 -8t-21 9t-8.5 21.5t9 21.5z" />
    <glyph glyph-name="threequarters" unicode="&#xbe;" horiz-adv-x="634" 
d="M492 202l-2 21q-5 54 -6 66q-28 -44 -64 -88q21 -1 52 0q9 1 20 1zM515 434q7 0 13 -3q11 -5 15 -17t-1 -23l-4 -9q1 -31 12 -153l2 -23q25 1 41 3q13 1 22.5 -7t10.5 -20.5t-7 -22t-20 -10.5q-16 -1 -43 -3q4 -55 4 -99q0 -12 -9 -21t-21 -9t-21 9t-9 21q0 43 -4 95h-22
q-48 -2 -77 0q-18 1 -29 3q-8 2 -14 5q-13 6 -19 18q-11 28 16 50q4 3 6.5 4.5t3.5 2t2 1.5q71 86 114 170v8q0 13 8.5 22t20.5 9q5 0 9 -1zM529 673q-22 -50 -63 -128q-50 -93 -65 -123l-192 -410q-5 -11 -17 -15t-23 1t-15 17t1 23l192 410q4 7 66 126q40 76 62 123
q5 12 16.5 16t23 -1t15.5 -16.5t-1 -22.5zM93 634q15 11 46 26t61 23q41 12 70 5q45 -10 54 -56q8 -48 -36 -93q18 -7 33 -22q25 -27 18 -62q-15 -76 -107 -112q-56 -22 -140 -29q-12 -1 -21.5 7t-10.5 20.5t7 22t21 10.5q76 6 122 24q62 25 71 69q0 4 -4 8q-14 15 -43 7
q-7 -2 -19.5 -6t-17.5 -6q-28 -8 -48 -6q-4 1 -7 1q-13 4 -19 15q-11 20 5 36q3 4 8 6.5t17 6.5q24 8 26 9q41 21 63 40q26 24 22 44q-1 6 -7 8q-14 3 -41 -5q-25 -6 -51 -18.5t-36 -20.5t-22.5 -6t-20 12t-5.5 22.5t12 19.5z" />
    <glyph glyph-name="questiondown" unicode="&#xbf;" horiz-adv-x="362" 
d="M355 163q-20 -56 -69.5 -99t-103.5 -58q-64 -17 -104 13q-47 35 -41 114q1 18 4.5 35t11 35t11.5 29t17 31l16 25l18 28q15 23 17 25q37 55 55.5 101t16.5 105q0 13 8.5 22t21 9t21.5 -8.5t9 -20.5q2 -72 -20 -126.5t-62 -114.5q-3 -4 -16 -23t-15.5 -23.5t-12.5 -20.5
t-13 -22l-10 -20q-7 -14 -9.5 -23.5t-5 -22t-3.5 -24.5q-4 -47 16 -61q18 -13 53 -4q41 11 79.5 44.5t53.5 74.5q4 12 15 17t23 1t17 -15t1 -23zM271 674q0 -12 -9 -21t-21 -9t-21 9t-9 21t9 21t21 9t21 -9t9 -21z" />
    <glyph glyph-name="Agrave" unicode="&#xc0;" horiz-adv-x="459" 
d="M255 656l-1 2q0 -1 1 -2zM173 257q83 8 169 41q-45 208 -51 233q-13 54 -18 71l-20 -70q-68 -229 -80 -275zM158 196q-24 -102 -35 -187q-2 -12 -11.5 -19.5t-22 -6t-20 11t-6.5 22.5q11 82 33 179q-11 2 -18 10.5t-6 19.5q1 13 10 21.5t21 7.5h8q14 55 84 293l22 74
q9 29 15 46q4 11 7 18q2 4 4 7q5 9 13 13q24 14 44 -9q6 -8 12 -21q8 -17 17 -49q7 -25 20 -82l49 -226q20 0 28 -18q5 -11 1 -22.5t-16 -16.5q31 -140 63 -237q3 -12 -2.5 -23t-17.5 -14.5t-23 2t-15 17.5q-31 95 -61 231q-101 -36 -197 -42zM226 817l103 -58
q11 -6 14.5 -17.5t-2.5 -22.5t-17.5 -14.5t-22.5 2.5l-105 58q-11 6 -14 18t3 23t18 14t23 -3z" />
    <glyph glyph-name="Aacute" unicode="&#xc1;" horiz-adv-x="500" 
d="M255 656l-1 2q0 -1 1 -2zM173 257q83 8 169 41q-45 208 -51 233q-13 54 -18 71l-20 -70q-68 -229 -80 -275zM158 196q-24 -102 -35 -187q-2 -12 -11.5 -19.5t-22 -6t-20 11t-6.5 22.5q11 82 33 179q-11 2 -18 10.5t-6 19.5q1 13 10 21.5t21 7.5h8q14 55 84 293l22 74
q9 29 15 46q4 11 7 18q2 4 4 7q5 9 13 13q24 14 44 -9q6 -8 12 -21q8 -17 17 -49q7 -25 20 -82l49 -226q20 0 28 -18q5 -11 1 -22.5t-16 -16.5q31 -140 63 -237q3 -12 -2.5 -23t-17.5 -14.5t-23 2t-15 17.5q-31 95 -61 231q-101 -36 -197 -42zM194 760l27 14q13 6 28 16
t23.5 15t28 18.5t25.5 18.5q10 7 22.5 4.5t19.5 -12.5t4.5 -22.5t-12.5 -19.5l-25 -18l-29 -19l-25 -17q-17 -10 -31.5 -17.5t-29.5 -14.5q-12 -5 -23.5 -1t-16.5 15.5t-1 23t15 16.5z" />
    <glyph glyph-name="Acircumflex" unicode="&#xc2;" horiz-adv-x="468" 
d="M255 656l-1 2q0 -1 1 -2zM173 257q83 8 169 41q-45 208 -51 233q-13 54 -18 71l-20 -70q-68 -229 -80 -275zM158 196q-24 -102 -35 -187q-2 -12 -11.5 -19.5t-22 -6t-20 11t-6.5 22.5q11 82 33 179q-11 2 -18 10.5t-6 19.5q1 13 10 21.5t21 7.5h8q14 55 84 293l22 74
q9 29 15 46q4 11 7 18q2 4 4 7q5 9 13 13q24 14 44 -9q6 -8 12 -21q8 -17 17 -49q7 -25 20 -82l49 -226q20 0 28 -18q5 -11 1 -22.5t-16 -16.5q31 -140 63 -237q3 -12 -2.5 -23t-17.5 -14.5t-23 2t-15 17.5q-31 95 -61 231q-101 -36 -197 -42zM157 732q35 55 57 77
q33 34 66 28q29 -5 56 -43q17 -24 48 -83q5 -11 1.5 -23t-14.5 -17.5t-23 -2t-18 14.5q-28 56 -43 76q-11 16 -17 19q-4 -2 -13 -11q-18 -18 -50 -67q-7 -11 -19 -13.5t-22.5 4.5t-13 19t4.5 22z" />
    <glyph glyph-name="Atilde" unicode="&#xc3;" horiz-adv-x="500" 
d="M255 656l-1 2q0 -1 1 -2zM173 257q83 8 169 41q-45 208 -51 233q-13 54 -18 71l-20 -70q-68 -229 -80 -275zM158 196q-24 -102 -35 -187q-2 -12 -11.5 -19.5t-22 -6t-20 11t-6.5 22.5q11 82 33 179q-11 2 -18 10.5t-6 19.5q1 13 10 21.5t21 7.5h8q14 55 84 293l22 74
q9 29 15 46q4 11 7 18q2 4 4 7q5 9 13 13q24 14 44 -9q6 -8 12 -21q8 -17 17 -49q7 -25 20 -82l49 -226q20 0 28 -18q5 -11 1 -22.5t-16 -16.5q31 -140 63 -237q3 -12 -2.5 -23t-17.5 -14.5t-23 2t-15 17.5q-31 95 -61 231q-101 -36 -197 -42zM161 744q26 49 59 60
q26 8 61 -7q2 -1 10.5 -4.5t10 -4t8 -3t8.5 -2.5h7q5 0 8 1t7 3t8 5q11 8 23 6t19.5 -12.5t5.5 -22.5t-12 -19q-12 -9 -23.5 -14t-23 -6t-19.5 -1t-19.5 3.5t-15.5 4.5t-15 6l-11 5q-14 6 -18 5q-10 -3 -24 -31q-6 -11 -18 -14.5t-23 2t-14.5 17.5t1.5 23z" />
    <glyph glyph-name="Adieresis" unicode="&#xc4;" horiz-adv-x="462" 
d="M255 656l-1 2q0 -1 1 -2zM173 257q83 8 169 41q-45 208 -51 233q-13 54 -18 71l-20 -70q-68 -229 -80 -275zM158 196q-24 -102 -35 -187q-2 -12 -11.5 -19.5t-22 -6t-20 11t-6.5 22.5q11 82 33 179q-11 2 -18 10.5t-6 19.5q1 13 10 21.5t21 7.5h8q14 55 84 293l22 74
q9 29 15 46q4 11 7 18q2 4 4 7q5 9 13 13q24 14 44 -9q6 -8 12 -21q8 -17 17 -49q7 -25 20 -82l49 -226q20 0 28 -18q5 -11 1 -22.5t-16 -16.5q31 -140 63 -237q3 -12 -2.5 -23t-17.5 -14.5t-23 2t-15 17.5q-31 95 -61 231q-101 -36 -197 -42zM256 766q0 -12 -9 -21t-21 -9
t-21 9t-9 21t9 21t21 9t21 -9t9 -21zM337 761q0 -12 -9 -21t-21 -9t-21 9t-9 21t9 21t21 9t21 -9t9 -21z" />
    <glyph glyph-name="Aring" unicode="&#xc5;" horiz-adv-x="464" 
d="M173 257q83 8 169 41q-45 208 -51 233q-13 54 -18 71l-20 -70q-68 -229 -80 -275zM158 196q-24 -102 -35 -187q-2 -12 -11.5 -19.5t-22 -6t-20 11t-6.5 22.5q11 82 33 179q-11 2 -18 10.5t-6 19.5q1 13 10 21.5t21 7.5h8q14 55 84 293l22 74q6 21 12 37q-48 17 -66 50
q-19 36 0 77q16 34 52 57t77 26q65 4 97 -24q33 -30 20 -77q-9 -30 -35 -56.5t-60 -39.5q7 -16 15 -45q7 -24 20 -82l49 -226q20 0 28 -18q5 -11 1 -22.5t-16 -16.5q31 -140 63 -237q3 -12 -2.5 -23t-17.5 -14.5t-23 2t-15 17.5q-31 95 -61 231q-101 -36 -197 -42zM275 723
q27 5 49 23.5t27 37.5q3 11 -2 16q-13 12 -53 9q-26 -2 -48 -16t-31 -32q-6 -14 -1 -23q8 -15 39 -24q1 -1 2 -1q7 8 18 10z" />
    <glyph glyph-name="AE" unicode="&#xc6;" horiz-adv-x="700" 
d="M255 656l-1 2q0 -1 1 -2zM173 257q83 8 169 41q-45 208 -51 233q-13 54 -18 71l-20 -70q-68 -229 -80 -275zM280 715q33 0 69.5 5.5t60 10.5t71.5 17q12 3 22.5 -3.5t13.5 -18.5t-3.5 -22.5t-18.5 -13.5q-116 -29 -176 -34q5 -12 10 -29q7 -23 20 -82l49 -226h5
q30 6 59 16t77 30l63 26q12 4 23 -0.5t15.5 -16.5t0 -23t-16.5 -16q-16 -6 -49 -20l-54 -23q-21 -8 -52 -17.5t-57 -15.5q29 -130 58 -222q74 12 187 12q12 0 21 -9t9 -21t-9 -21t-21 -9q-120 0 -197 -14q-11 -2 -20.5 3t-13.5 15q-7 5 -10 14q-31 95 -61 231
q-101 -36 -197 -42q-24 -102 -35 -187q-2 -12 -11.5 -19.5t-22 -6t-20 11t-6.5 22.5q11 82 33 179q-11 2 -18 10.5t-6 19.5q1 13 10 21.5t21 7.5h8q14 55 84 293l22 74q9 29 15 46q4 11 7 18q2 4 4 7q5 9 13 13q3 2 6 3q8 6 18 6z" />
    <glyph glyph-name="Ccedilla" unicode="&#xc7;" horiz-adv-x="369" 
d="M285 451q-5 103 -34 162q-21 43 -44.5 44t-48.5 -40q-34 -58 -47 -165q-24 -196 31 -325q14 -33 29 -52t23 -22.5t15 -2.5q14 3 31 25.5t30 66.5q8 23 16 63l16 67q3 12 13.5 18.5t22.5 3.5t18.5 -13.5t3.5 -22.5l-15 -66q-9 -42 -17 -68q-27 -86 -73 -118q16 -15 26 -29
q29 -43 14 -81q-13 -29 -52 -46q-50 -21 -118 -20q-12 0 -20.5 9t-8.5 21.5t9 21t22 8.5q54 -1 92 15q17 8 20 15t-8 23q-6 9 -21 22q-22 20 -30 29q-55 18 -94 109q-61 144 -35 357q15 119 55 187q43 73 103 70q59 -2 96 -78q35 -70 40 -186q1 -12 -7.5 -21t-21 -10
t-21.5 7.5t-10 21.5z" />
    <glyph glyph-name="Egrave" unicode="&#xc8;" horiz-adv-x="365" 
d="M52 643q-1 8 -1 15q-1 13 7.5 22t21 10t21.5 -7.5t10 -20.5v-4l78 20q81 20 134 29q13 2 23 -5.5t12 -20t-5.5 -22.5t-19.5 -12q-51 -9 -130 -28l-89 -22q3 -91 1 -228q106 30 174 34q12 1 21.5 -7.5t10.5 -20.5t-7.5 -21.5t-20.5 -10.5q-64 -4 -179 -37q-2 -167 -1 -248
q116 29 219 44q12 1 22 -6.5t11.5 -19.5t-6 -22t-19.5 -12q-108 -15 -235 -47q-8 -9 -20 -9t-21 8q-10 6 -13 17.5t3 21.5q-3 89 0 281l-2 6q-3 12 3 22q2 155 -1 246q-15 6 -18 22q-3 10 2 19.5t14 13.5zM117 810q3 -1 118 -50q11 -5 15.5 -16.5t0 -23t-16 -16t-23.5 -0.5
q-113 49 -116 50q-11 4 -16 15.5t-1 23t15.5 16.5t23.5 1z" />
    <glyph glyph-name="Eacute" unicode="&#xc9;" horiz-adv-x="372" 
d="M52 643q-1 8 -1 15q-1 13 7.5 22t21 10t21.5 -7.5t10 -20.5v-4l78 20q81 20 134 29q13 2 23 -5.5t12 -20t-5.5 -22.5t-19.5 -12q-51 -9 -130 -28l-89 -22q3 -91 1 -228q106 30 174 34q12 1 21.5 -7.5t10.5 -20.5t-7.5 -21.5t-20.5 -10.5q-64 -4 -179 -37q-2 -167 -1 -248
q116 29 219 44q12 1 22 -6.5t11.5 -19.5t-6 -22t-19.5 -12q-108 -15 -235 -47q-8 -9 -20 -9t-21 8q-10 6 -13 17.5t3 21.5q-3 89 0 281l-2 6q-3 12 3 22q2 155 -1 246q-15 6 -18 22q-3 10 2 19.5t14 13.5zM126 757q50 19 91 56q9 9 21.5 8t21 -10t7.5 -21.5t-10 -20.5
q-49 -45 -109 -68q-12 -4 -23 1t-15.5 16.5t0.5 22.5t16 16z" />
    <glyph glyph-name="Ecircumflex" unicode="&#xca;" horiz-adv-x="365" 
d="M52 643q-1 8 -1 15q-1 13 7.5 22t21 10t21.5 -7.5t10 -20.5v-4l78 20q81 20 134 29q13 2 23 -5.5t12 -20t-5.5 -22.5t-19.5 -12q-51 -9 -130 -28l-89 -22q3 -91 1 -228q106 30 174 34q12 1 21.5 -7.5t10.5 -20.5t-7.5 -21.5t-20.5 -10.5q-64 -4 -179 -37q-2 -167 -1 -248
q116 29 219 44q12 1 22 -6.5t11.5 -19.5t-6 -22t-19.5 -12q-108 -15 -235 -47q-8 -9 -20 -9t-21 8q-10 6 -13 17.5t3 21.5q-3 89 0 281l-2 6q-3 12 3 22q2 155 -1 246q-15 6 -18 22q-3 10 2 19.5t14 13.5zM81 746q10 12 51 67q25 34 46 42q29 9 64 -16q19 -14 71 -63
q10 -9 10 -21t-8.5 -21.5t-20.5 -9.5t-21 8q-50 47 -66 58q-7 5 -11 7q-5 -5 -16 -20q-42 -56 -53 -69q-8 -10 -20 -11t-22 7t-11 20t7 22z" />
    <glyph glyph-name="Edieresis" unicode="&#xcb;" horiz-adv-x="365" 
d="M52 643q-1 8 -1 15q-1 13 7.5 22t21 10t21.5 -7.5t10 -20.5v-4l78 20q81 20 134 29q13 2 23 -5.5t12 -20t-5.5 -22.5t-19.5 -12q-51 -9 -130 -28l-89 -22q3 -91 1 -228q106 30 174 34q12 1 21.5 -7.5t10.5 -20.5t-7.5 -21.5t-20.5 -10.5q-64 -4 -179 -37q-2 -167 -1 -248
q116 29 219 44q12 1 22 -6.5t11.5 -19.5t-6 -22t-19.5 -12q-108 -15 -235 -47q-8 -9 -20 -9t-21 8q-10 6 -13 17.5t3 21.5q-3 89 0 281l-2 6q-3 12 3 22q2 155 -1 246q-15 6 -18 22q-3 10 2 19.5t14 13.5zM181 761q0 -12 -9 -21t-21 -9t-21 9t-9 21t9 21t21 9t21 -9t9 -21z
M278 761q0 -12 -9 -21t-21 -9t-21 9t-9 21t9 21t21 9t21 -9t9 -21z" />
    <glyph glyph-name="Igrave" unicode="&#xcc;" horiz-adv-x="369" 
d="M66 675q41 -2 86 5q9 8 21 8q7 0 13 -3q39 7 85 21q12 3 22.5 -3t14 -18t-2.5 -22.5t-18 -14.5q-45 -13 -84 -21q1 -94 12 -284q11 -191 12 -280q14 0 41 -0.5t40 -0.5q12 0 21 -9t9 -21t-9 -21t-21 -9q-14 0 -44.5 0.5t-45.5 0.5q-9 -9 -21 -9t-20 8q-49 -2 -87 -9
q-12 -3 -22.5 4t-13 19t4.5 22.5t19 12.5q39 8 89 10q-1 70 -12 278q-10 185 -12 279q-41 -4 -79 -3q-13 0 -21 9.5t-8 22t9.5 20.5t21.5 8zM126 830q70 -40 104 -53q11 -4 16 -15.5t1 -23t-15.5 -16.5t-23.5 -1q-38 14 -112 57q-11 6 -14 18t3 23t18 14t23 -3z" />
    <glyph glyph-name="Iacute" unicode="&#xcd;" horiz-adv-x="312" 
d="M47 675q41 -2 86 5q9 8 21 8q7 0 13 -3q39 7 85 21q12 3 22.5 -3t14 -18t-2.5 -22.5t-18 -14.5q-45 -13 -84 -21q1 -94 12 -284q11 -191 12 -280q14 0 41 -0.5t40 -0.5q12 0 21 -9t9 -21t-9 -21t-21 -9q-14 0 -44.5 0.5t-45.5 0.5q-9 -9 -21 -9t-20 8q-49 -2 -87 -9
q-12 -3 -22.5 4t-13 19t4.5 22.5t19 12.5q39 8 89 10q-1 70 -12 278q-10 185 -12 279q-41 -4 -79 -3q-13 0 -21 9.5t-8 22t9.5 20.5t21.5 8zM65 764q19 17 57 46l51 38q10 8 22.5 6.5t20 -11t6 -22t-10.5 -19.5l-51 -39q-37 -28 -57 -45q-9 -8 -21.5 -7t-20.5 10.5t-7 22
t11 20.5z" />
    <glyph glyph-name="Icircumflex" unicode="&#xce;" horiz-adv-x="334" 
d="M59 675q41 -2 86 5q9 8 21 8q7 0 13 -3q39 7 85 21q12 3 22.5 -3t14 -18t-2.5 -22.5t-18 -14.5q-45 -13 -84 -21q1 -94 12 -284q11 -191 12 -280q14 0 41 -0.5t40 -0.5q12 0 21 -9t9 -21t-9 -21t-21 -9q-14 0 -44.5 0.5t-45.5 0.5q-9 -9 -21 -9t-20 8q-49 -2 -87 -9
q-12 -3 -22.5 4t-13 19t4.5 22.5t19 12.5q39 8 89 10q-1 70 -12 278q-10 185 -12 279q-41 -4 -79 -3q-13 0 -21 9.5t-8 22t9.5 20.5t21.5 8zM52 761q35 52 45 65q26 31 52 34q27 3 59 -21q15 -12 63 -56q9 -8 10 -20.5t-7.5 -21.5t-21 -10t-21.5 8q-46 42 -59 52
q-11 8 -16 9q-4 -2 -12 -12t-42 -61q-7 -10 -19 -12.5t-22.5 4.5t-13 19t4.5 23z" />
    <glyph glyph-name="Idieresis" unicode="&#xcf;" horiz-adv-x="328" 
d="M56 675q41 -2 86 5q9 8 21 8q7 0 13 -3q39 7 85 21q12 3 22.5 -3t14 -18t-2.5 -22.5t-18 -14.5q-45 -13 -84 -21q1 -94 12 -284q11 -191 12 -280q14 0 41 -0.5t40 -0.5q12 0 21 -9t9 -21t-9 -21t-21 -9q-14 0 -44.5 0.5t-45.5 0.5q-9 -9 -21 -9t-20 8q-49 -2 -87 -9
q-12 -3 -22.5 4t-13 19t4.5 22.5t19 12.5q39 8 89 10q-1 70 -12 278q-10 185 -12 279q-41 -4 -79 -3q-13 0 -21 9.5t-8 22t9.5 20.5t21.5 8zM146 768q0 -12 -9 -21t-21 -9t-21 9t-9 21t9 21t21 9t21 -9t9 -21zM230 767q0 -12 -9 -21t-21 -9t-21 9t-9 21t9 21t21 9t21 -9
t9 -21z" />
    <glyph glyph-name="Eth" unicode="&#xd0;" horiz-adv-x="437" 
d="M162 83q90 103 150 194t77 177q25 129 -76 168q-71 27 -160 -1q0 -24 6 -197h43q12 0 21 -9t9 -21t-9 -21t-21 -9h-41v-3q1 -46 0.5 -139t0.5 -139zM147 682q102 28 188 -5q66 -25 98 -85q32 -61 14 -150q-9 -48 -34 -102.5t-50 -95.5t-69 -96.5t-68 -82.5l-68 -77
q-8 -9 -20.5 -10t-21.5 8q-4 3 -6 7q-6 7 -6 17q-3 66 -2.5 175t-0.5 176v1q-31 -1 -59 -4q-13 -1 -22.5 7t-10.5 20.5t7 22t20 10.5q30 3 63 4q-6 170 -6 174q-22 -5 -33 15q-6 10 -2.5 22t14.5 18q10 6 21 11v3q0 12 9 20.5t22 8.5q14 0 23 -12z" />
    <glyph glyph-name="Ntilde" unicode="&#xd1;" horiz-adv-x="450" 
d="M60 13q-6 81 -12 229.5t-9 199.5q0 2 -1.5 16.5t-3.5 37t-3 41.5q-3 39 -4 61v22q1 7 2 11q1 6 4 10q9 16 27 15q10 0 18 -7q2 -2 5 -4q1 -2 3 -5t5 -8q4 -8 10 -22l29 -64l42 -95q1 -4 11 -23l27 -50l77 -139l50 -91q0 8 1 82q3 236 56 472q2 13 12.5 19.5t23 4t19 -13
t3.5 -22.5q-51 -232 -54 -460q-1 -81 1 -120q1 -22 6 -63q1 -13 1 -20q-1 -13 -10 -21q-14 -15 -34 -7q-4 2 -7 4t-4 3l-1 2q-1 1 -2.5 3t-3.5 5l-8 13l-26 45l-76 136l-77 140l-27 50l-14 27l-19 46q2 -25 2 -27q3 -52 9 -200t12 -229q1 -12 -7 -21.5t-20.5 -10.5t-22 7
t-10.5 21zM106 715q36 61 73 73q31 11 68 -13q30 -18 37 -20q15 -4 37 13q10 7 22 5.5t19.5 -11.5t6 -22t-11.5 -20q-44 -34 -87 -24q-17 4 -55 28q-13 9 -18 7q-14 -5 -39 -46q-7 -11 -19 -14t-22.5 3.5t-13.5 18.5t3 22z" />
    <glyph glyph-name="Ograve" unicode="&#xd2;" 
d="M221 637q-36 -7 -69 -68q-41 -76 -56 -188q-15 -115 6 -206q21 -92 73 -117q58 -28 104 19q42 43 61 120q10 42 10 104t-11 129q-28 149 -96 195q-9 6 -22 12zM255 687q13 -6 22 -12q88 -60 121 -234q12 -71 12 -140t-12 -118q-23 -93 -76 -148q-76 -78 -173 -31
q-78 38 -105 158q-24 99 -7 227q16 125 62 209q31 55 69 81q0 7 3 14q5 11 17 15t23 -1q4 -2 20 -9h2q13 0 22 -11zM150 824q27 -10 63 -27l59 -29q11 -5 15 -16.5t-1 -23t-16.5 -15.5t-23.5 1l-59 29q-34 16 -57 25q-12 4 -17 15.5t-1 23t15.5 16.5t22.5 1z" />
    <glyph glyph-name="Oacute" unicode="&#xd3;" 
d="M221 637q-36 -7 -69 -68q-41 -76 -56 -188q-15 -115 6 -206q21 -92 73 -117q58 -28 104 19q42 43 61 120q10 42 10 104t-11 129q-28 149 -96 195q-9 6 -22 12zM255 687q13 -6 22 -12q88 -60 121 -234q12 -71 12 -140t-12 -118q-23 -93 -76 -148q-76 -78 -173 -31
q-78 38 -105 158q-24 99 -7 227q16 125 62 209q31 55 69 81q0 7 3 14q5 11 17 15t23 -1q4 -2 20 -9h2q13 0 22 -11zM130 762q69 34 125 74q11 8 23 6t19.5 -12.5t5.5 -22.5t-12 -19q-61 -44 -135 -80q-11 -5 -22.5 -1t-17 15t-1.5 22.5t15 17.5z" />
    <glyph glyph-name="Ocircumflex" unicode="&#xd4;" 
d="M221 637q-36 -7 -69 -68q-41 -76 -56 -188q-15 -115 6 -206q21 -92 73 -117q58 -28 104 19q42 43 61 120q10 42 10 104t-11 129q-28 149 -96 195q-9 6 -22 12zM255 687q13 -6 22 -12q88 -60 121 -234q12 -71 12 -140t-12 -118q-23 -93 -76 -148q-76 -78 -173 -31
q-78 38 -105 158q-24 99 -7 227q16 125 62 209q31 55 69 81q0 7 3 14q5 11 17 15t23 -1q4 -2 20 -9h2q13 0 22 -11zM104 746q44 55 67 75q36 31 68 23q26 -7 55 -43q8 -10 27 -36l29 -39q7 -10 5.5 -22t-11.5 -19.5t-22 -6t-20 11.5l-29 38q-18 25 -26 35q-16 20 -22 22
q-5 -1 -15 -9q-18 -16 -60 -68q-7 -9 -19.5 -10.5t-22 6t-11 20t6.5 22.5z" />
    <glyph glyph-name="Otilde" unicode="&#xd5;" 
d="M221 637q-36 -7 -69 -68q-41 -76 -56 -188q-15 -115 6 -206q21 -92 73 -117q58 -28 104 19q42 43 61 120q10 42 10 104t-11 129q-28 149 -96 195q-9 6 -22 12zM255 687q13 -6 22 -12q88 -60 121 -234q12 -71 12 -140t-12 -118q-23 -93 -76 -148q-76 -78 -173 -31
q-78 38 -105 158q-24 99 -7 227q16 125 62 209q31 55 69 81q0 7 3 14q5 11 17 15t23 -1q4 -2 20 -9h2q13 0 22 -11zM96 785q45 30 84 30q26 0 59 -16q23 -12 31 -12q13 -2 32 12q11 8 23 6t19.5 -12.5t5.5 -22.5t-12 -19q-38 -28 -74 -24q-18 2 -51 18q-20 10 -33 10
q-21 0 -50 -20q-11 -7 -23 -4.5t-19 13t-4.5 22.5t12.5 19z" />
    <glyph glyph-name="Odieresis" unicode="&#xd6;" 
d="M221 637q-36 -7 -69 -68q-41 -76 -56 -188q-15 -115 6 -206q21 -92 73 -117q58 -28 104 19q42 43 61 120q10 42 10 104t-11 129q-28 149 -96 195q-9 6 -22 12zM255 687q13 -6 22 -12q88 -60 121 -234q12 -71 12 -140t-12 -118q-23 -93 -76 -148q-76 -78 -173 -31
q-78 38 -105 158q-24 99 -7 227q16 125 62 209q31 55 69 81q0 7 3 14q5 11 17 15t23 -1q4 -2 20 -9h2q13 0 22 -11zM179 780q0 -12 -9 -21t-21 -9t-21 9t-9 21t9 21t21 9t21 -9t9 -21zM275 779q0 -12 -9 -21t-21 -9t-21 9t-9 21t9 21t21 9t21 -9t9 -21z" />
    <glyph glyph-name="multiply" unicode="&#xd7;" horiz-adv-x="331" 
d="M154 330q-55 57 -84 93q-7 10 -5.5 22.5t11 20t22 6t20.5 -10.5q27 -35 76 -86l69 79q8 9 20.5 10t21.5 -7.5t10 -21t-8 -21.5l-72 -83q59 -62 91 -108q8 -10 6 -22t-12.5 -19.5t-22.5 -5.5t-19 13q-30 41 -83 97q-54 -58 -105 -95q-10 -7 -22.5 -5.5t-19.5 11.5
t-5.5 22.5t11.5 19.5q48 36 100 91z" />
    <glyph glyph-name="Oslash" unicode="&#xd8;" 
d="M342 411q-121 -154 -234 -259q23 -72 67 -94q58 -28 104 19q42 43 61 120q22 88 2 214zM325 487q-30 103 -82 138q-9 6 -22 12q-36 -7 -69 -68q-41 -76 -56 -188q-11 -85 -2 -159q109 106 228 261q2 2 3 4zM255 687q13 -6 22 -12q88 -60 121 -234q12 -71 12 -140
t-12 -118q-23 -93 -76 -148q-76 -78 -173 -31q-78 38 -105 158q-24 99 -7 227q16 125 62 209q31 55 69 81q0 7 3 14q5 11 17 15t23 -1q4 -2 20 -9h2q13 0 22 -11z" />
    <glyph glyph-name="Ugrave" unicode="&#xd9;" horiz-adv-x="381" 
d="M107 675q-8 -52 -10 -143q-2 -95 6 -210q11 -120 35 -193q25 -76 59 -87q23 -8 45 20q18 25 35 72q29 84 43 263t1 275q-1 12 6.5 22t19.5 11.5t22 -6t12 -19.5q13 -103 -2 -288q-14 -185 -46 -278q-19 -57 -44 -89q-47 -61 -110 -41q-63 21 -98 126q-27 81 -38 206
q-8 118 -6 216.5t10 152.5q2 12 12 19.5t22.5 5.5t20 -12t5.5 -23zM156 808q95 -76 128 -98q10 -7 12.5 -19.5t-4.5 -22.5t-19.5 -12.5t-22.5 4.5q-38 26 -132 102q-9 7 -10.5 19.5t6 22t20 11t22.5 -6.5z" />
    <glyph glyph-name="Uacute" unicode="&#xda;" horiz-adv-x="396" 
d="M107 675q-8 -52 -10 -143q-2 -95 6 -210q11 -120 35 -193q25 -76 59 -87q23 -8 45 20q18 25 35 72q29 84 43 263t1 275q-1 12 6.5 22t19.5 11.5t22 -6t12 -19.5q13 -103 -2 -288q-14 -185 -46 -278q-19 -57 -44 -89q-47 -61 -110 -41q-63 21 -98 126q-27 81 -38 206
q-8 118 -6 216.5t10 152.5q2 12 12 19.5t22.5 5.5t20 -12t5.5 -23zM152 717l57 56q34 33 52 55q8 10 20.5 11t22 -7t10.5 -20.5t-7 -21.5q-22 -26 -56 -60l-57 -55q-9 -9 -21 -9t-21 9t-9 21t9 21z" />
    <glyph glyph-name="Ucircumflex" unicode="&#xdb;" horiz-adv-x="384" 
d="M110 675q-8 -52 -10 -143q-2 -95 6 -210q11 -120 35 -193q25 -76 59 -87q23 -8 45 20q18 25 35 72q29 84 43 263t1 275q-1 12 6.5 22t19.5 11.5t22 -6t12 -19.5q13 -103 -2 -288q-14 -185 -46 -278q-19 -57 -44 -89q-47 -61 -110 -41q-63 21 -98 126q-27 81 -38 206
q-8 118 -6 216.5t10 152.5q2 12 12 19.5t22.5 5.5t20 -12t5.5 -23zM116 748q46 60 46 61q26 30 50 31q24 0 51 -28q7 -7 24 -26l27 -31q9 -9 8 -21.5t-10 -21t-21.5 -7.5t-20.5 10l-26 29q-17 19 -24 26q-3 4 -6 6q-3 -2 -6 -5q-5 -6 -11 -14.5t-16 -21.5l-17 -23
q-8 -10 -20 -11.5t-22 6t-11.5 19.5t5.5 22z" />
    <glyph glyph-name="Udieresis" unicode="&#xdc;" horiz-adv-x="406" 
d="M117 675q-8 -52 -10 -143q-2 -95 6 -210q11 -120 35 -193q25 -76 59 -87q23 -8 45 20q18 25 35 72q29 84 43 263t1 275q-1 12 6.5 22t19.5 11.5t22 -6t12 -19.5q13 -103 -2 -288q-14 -185 -46 -278q-19 -57 -44 -89q-47 -61 -110 -41q-63 21 -98 126q-27 81 -38 206
q-8 118 -6 216.5t10 152.5q2 12 12 19.5t22.5 5.5t20 -12t5.5 -23zM202 754q0 -12 -9 -21t-21 -9t-21 9t-9 21t9 21t21 9t21 -9t9 -21zM298 754q0 -12 -9 -21t-21 -9t-21 9t-9 21t9 21t21 9t21 -9t9 -21z" />
    <glyph glyph-name="Yacute" unicode="&#xdd;" horiz-adv-x="362" 
d="M363 681q-11 -34 -34.5 -100.5t-40.5 -119t-30 -101.5q-5 -18 -9.5 -36.5t-8.5 -41t-7 -37t-7 -41.5l-6 -38q-2 -9 -6.5 -41.5t-5.5 -37.5t-6 -42.5t-5 -38.5q-2 -12 -12 -19.5t-22 -6t-19.5 11.5t-6.5 22q25 184 40 258q-5 50 -22 105.5t-33 92.5l-46 104q-30 65 -44 98
q-4 12 0.5 23.5t16 16t23 0t16.5 -15.5q12 -30 39 -87.5t47.5 -106.5t34.5 -94q12 43 29 92l36 108l33 91q3 12 14.5 17.5t23 2t17 -15t1.5 -22.5zM130 746q20 19 95 81q9 8 21.5 7t20.5 -10.5t7 -22t-11 -20.5q-73 -61 -93 -79q-9 -9 -21.5 -8t-21 10t-7.5 21.5t10 20.5z
" />
    <glyph glyph-name="Thorn" unicode="&#xde;" horiz-adv-x="359" 
d="M79 408q2 -110 2 -266q80 62 127 107q99 95 108 160q11 77 -34.5 105t-110.5 -14q-50 -32 -92 -92zM81 66v-158q0 -12 -9 -21t-21 -9t-21 9t-9 21v148v168q0 47 -1 141t-3.5 168t-6.5 148q-1 13 7.5 22t21 10t21.5 -7.5t10 -20.5q5 -87 7 -184q27 27 62 49q45 29 91 33
t83 -18q37 -23 53.5 -66t9.5 -98q-12 -85 -127 -195q-46 -45 -168 -140z" />
    <glyph glyph-name="germandbls" unicode="&#xdf;" horiz-adv-x="431" 
d="M56 21q7 98 3 159q-1 20 -11.5 110.5t-9.5 151.5q2 60 19 118q9 31 28.5 63.5t45.5 54.5q33 28 69 33q42 5 81 -25q65 -49 52 -140q-9 -67 -54 -130q-2 -2 -4 -5q74 -1 122 -54q51 -56 52 -146q1 -77 -39 -133t-98 -77q-60 -23 -106 1q-53 27 -53 98q0 12 9 21t21 9
t21 -9t9 -21q0 -34 21 -45q22 -11 57 2q41 15 70 55.5t28 98.5q-1 66 -37 106t-98 33l-2 -1q-4 -2 -12 -5q-31 -14 -52 4q-22 20 -6 48q4 8 16 21q29 30 33 35q36 50 43 102q7 56 -29 84q-20 15 -38 13t-37 -18q-39 -34 -55 -89q-16 -53 -17 -106t9 -138t12 -116
q4 -65 -3 -167q-1 -12 -10.5 -20.5t-21.5 -7.5t-20.5 10.5t-7.5 21.5z" />
    <glyph glyph-name="agrave" unicode="&#xe0;" horiz-adv-x="445" 
d="M311 331l-6 -7q-17 -18 -55 -54l-51 -48q-62 -61 -82 -99q-22 -41 -3 -65q4 -5 19 -9q24 -6 51 16q27 23 55 72q47 82 68 174q4 16 4 20zM104 424q11 10 50 29q37 19 75 31q51 17 83 11q25 -4 40 -21q15 -19 14 -47q0 -5 -1 -10q3 -2 5 -5q4 -4 6 -10q1 -3 2 -8
q1 -6 2 -16q1 -14 2 -40q0 -13 0.5 -28t1 -24.5t0.5 -10.5q13 -158 52 -246q4 -11 -0.5 -23t-15.5 -16.5t-23 0t-17 15.5q-33 78 -48 189q-19 -47 -41 -87q-33 -59 -69 -89q-50 -40 -103 -27q-36 9 -53 31q-42 55 -2 129q25 46 93 114l50 47l55 54q43 45 44 63v6q-2 1 -4 1
q-18 3 -55 -9q-22 -7 -47 -19q-25 -11 -39.5 -19t-18.5 -11q-9 -8 -21.5 -7t-20.5 10.5t-7 22t11 20.5zM198 688q99 -80 143 -108q11 -7 13.5 -19t-4.5 -22.5t-19 -13t-22 4.5q-52 34 -149 112q-10 7 -11 19.5t6.5 22.5t20 11t22.5 -7z" />
    <glyph glyph-name="aacute" unicode="&#xe1;" horiz-adv-x="445" 
d="M311 331l-6 -7q-17 -18 -55 -54l-51 -48q-62 -61 -82 -99q-22 -41 -3 -65q4 -5 19 -9q24 -6 51 16q27 23 55 72q47 82 68 174q4 16 4 20zM104 424q11 10 50 29q37 19 75 31q51 17 83 11q25 -4 40 -21q15 -19 14 -47q0 -5 -1 -10q3 -2 5 -5q4 -4 6 -10q1 -3 2 -8
q1 -6 2 -16q1 -14 2 -40q0 -13 0.5 -28t1 -24.5t0.5 -10.5q13 -158 52 -246q4 -11 -0.5 -23t-15.5 -16.5t-23 0t-17 15.5q-33 78 -48 189q-19 -47 -41 -87q-33 -59 -69 -89q-50 -40 -103 -27q-36 9 -53 31q-42 55 -2 129q25 46 93 114l50 47l55 54q43 45 44 63v6q-2 1 -4 1
q-18 3 -55 -9q-22 -7 -47 -19q-25 -11 -39.5 -19t-18.5 -11q-9 -8 -21.5 -7t-20.5 10.5t-7 22t11 20.5zM163 558q56 37 134 114q9 8 21.5 8t21 -9t8.5 -21.5t-9 -21.5q-82 -79 -142 -120q-10 -7 -22.5 -4.5t-19.5 12.5t-4.5 22.5t12.5 19.5z" />
    <glyph glyph-name="acircumflex" unicode="&#xe2;" horiz-adv-x="445" 
d="M311 331l-6 -7q-17 -18 -55 -54l-51 -48q-62 -61 -82 -99q-22 -41 -3 -65q4 -5 19 -9q24 -6 51 16q27 23 55 72q47 82 68 174q4 16 4 20zM104 424q11 10 50 29q37 19 75 31q51 17 83 11q25 -4 40 -21q15 -19 14 -47q0 -5 -1 -10q3 -2 5 -5q4 -4 6 -10q1 -3 2 -8
q1 -6 2 -16q1 -14 2 -40q0 -13 0.5 -28t1 -24.5t0.5 -10.5q13 -158 52 -246q4 -11 -0.5 -23t-15.5 -16.5t-23 0t-17 15.5q-33 78 -48 189q-19 -47 -41 -87q-33 -59 -69 -89q-50 -40 -103 -27q-36 9 -53 31q-42 55 -2 129q25 46 93 114l50 47l55 54q43 45 44 63v6q-2 1 -4 1
q-18 3 -55 -9q-22 -7 -47 -19q-25 -11 -39.5 -19t-18.5 -11q-9 -8 -21.5 -7t-20.5 10.5t-7 22t11 20.5zM135 572q20 21 63 71q13 16 21 23q15 13 30 16q28 5 58 -31q8 -8 27.5 -34t31.5 -40q7 -10 5.5 -22.5t-11 -20t-22 -6t-20.5 10.5l-30 40l-26 34q-3 3 -6 5
q-4 -4 -12 -14q-44 -52 -65 -74q-9 -9 -21.5 -9t-21.5 8.5t-9 21t8 21.5z" />
    <glyph glyph-name="atilde" unicode="&#xe3;" horiz-adv-x="445" 
d="M311 331l-6 -7q-17 -18 -55 -54l-51 -48q-62 -61 -82 -99q-22 -41 -3 -65q4 -5 19 -9q24 -6 51 16q27 23 55 72q47 82 68 174q4 16 4 20zM104 424q11 10 50 29q37 19 75 31q51 17 83 11q25 -4 40 -21q15 -19 14 -47q0 -5 -1 -10q3 -2 5 -5q4 -4 6 -10q1 -3 2 -8
q1 -6 2 -16q1 -14 2 -40q0 -13 0.5 -28t1 -24.5t0.5 -10.5q13 -158 52 -246q4 -11 -0.5 -23t-15.5 -16.5t-23 0t-17 15.5q-33 78 -48 189q-19 -47 -41 -87q-33 -59 -69 -89q-50 -40 -103 -27q-36 9 -53 31q-42 55 -2 129q25 46 93 114l50 47l55 54q43 45 44 63v6q-2 1 -4 1
q-18 3 -55 -9q-22 -7 -47 -19q-25 -11 -39.5 -19t-18.5 -11q-9 -8 -21.5 -7t-20.5 10.5t-7 22t11 20.5zM134 580q36 68 80 70q28 2 67 -31q23 -19 30 -20q1 0 3 0.5t10 8t17 21.5q6 11 18 13.5t22.5 -4t13.5 -18.5t-4 -23q-38 -62 -85 -58q-26 2 -64 35q-20 17 -25 16
q-12 -5 -29 -38q-6 -11 -18 -14.5t-23 2t-14.5 17.5t1.5 23z" />
    <glyph glyph-name="adieresis" unicode="&#xe4;" horiz-adv-x="445" 
d="M311 331l-6 -7q-17 -18 -55 -54l-51 -48q-62 -61 -82 -99q-22 -41 -3 -65q4 -5 19 -9q24 -6 51 16q27 23 55 72q47 82 68 174q4 16 4 20zM104 424q11 10 50 29q37 19 75 31q51 17 83 11q25 -4 40 -21q15 -19 14 -47q0 -5 -1 -10q3 -2 5 -5q4 -4 6 -10q1 -3 2 -8
q1 -6 2 -16q1 -14 2 -40q0 -13 0.5 -28t1 -24.5t0.5 -10.5q13 -158 52 -246q4 -11 -0.5 -23t-15.5 -16.5t-23 0t-17 15.5q-33 78 -48 189q-19 -47 -41 -87q-33 -59 -69 -89q-50 -40 -103 -27q-36 9 -53 31q-42 55 -2 129q25 46 93 114l50 47l55 54q43 45 44 63v6q-2 1 -4 1
q-18 3 -55 -9q-22 -7 -47 -19q-25 -11 -39.5 -19t-18.5 -11q-9 -8 -21.5 -7t-20.5 10.5t-7 22t11 20.5zM240 571q0 -12 -9 -21t-21 -9t-21 9t-9 21t9 21t21 9t21 -9t9 -21zM355 572q0 -12 -9 -21t-21 -9t-21 9t-9 21t9 21t21 9t21 -9t9 -21z" />
    <glyph glyph-name="aring" unicode="&#xe5;" horiz-adv-x="445" 
d="M311 331l-6 -7q-17 -18 -55 -54l-51 -48q-62 -61 -82 -99q-22 -41 -3 -65q4 -5 19 -9q24 -6 51 16q27 23 55 72q47 82 68 174q4 16 4 20zM266 585q10 7 17 14q26 29 9.5 53.5t-53.5 12.5q-29 -9 -44 -33t-13 -46q2 -14 12 -18q18 -7 56 13q7 5 16 4zM233 510
q-33 -8 -59 2q-45 16 -51 67q-6 43 21 85t77 59q38 11 70.5 1t50.5 -38q19 -27 15.5 -62.5t-30.5 -64.5q-6 -7 -12.5 -12.5t-14.5 -10.5l-14 -9l-14 -9l-12 -6q-13 -7 -27 -2zM104 424q11 10 50 29q37 19 75 31q51 17 83 11q25 -4 40 -21q15 -19 14 -47q0 -5 -1 -10
q3 -2 5 -5q4 -4 6 -10q1 -3 2 -8q1 -6 2 -16q1 -14 2 -40q0 -13 0.5 -28t1 -24.5t0.5 -10.5q13 -158 52 -246q4 -11 -0.5 -23t-15.5 -16.5t-23 0t-17 15.5q-33 78 -48 189q-19 -47 -41 -87q-33 -59 -69 -89q-50 -40 -103 -27q-36 9 -53 31q-42 55 -2 129q25 46 93 114l50 47
l55 54q43 45 44 63v6q-2 1 -4 1q-18 3 -55 -9q-22 -7 -47 -19q-25 -11 -39.5 -19t-18.5 -11q-9 -8 -21.5 -7t-20.5 10.5t-7 22t11 20.5z" />
    <glyph glyph-name="ae" unicode="&#xe6;" horiz-adv-x="656" 
d="M311 331l-6 -7q-17 -18 -55 -54l-51 -48q-62 -61 -82 -99q-22 -41 -3 -65q4 -5 19 -9q24 -6 51 16q27 23 55 72q47 82 68 174q4 16 4 20zM389 230q51 12 101 62q58 59 62 108q3 34 -23 50q-12 7 -29 8t-37 -4t-42.5 -23t-41.5 -46q1 -4 1 -7q1 -14 2 -40q0 -13 0.5 -28
t1 -24.5t0.5 -10.5q2 -24 5 -45zM104 424q11 10 50 29q37 19 75 31q51 17 83 11q25 -4 40 -21q6 -8 9 -16q46 47 102 58t97 -15q27 -16 41 -44t11 -62q-6 -71 -80 -145q-64 -64 -133 -79q8 -35 20 -69q15 -31 35 -43q19 -13 43 -7q26 7 52 32.5t42 62.5q5 11 16.5 15.5t23 0
t16 -16t0.5 -23.5q-21 -48 -57.5 -83.5t-78.5 -45.5q-49 -12 -90 14q-25 16 -44 47q-5 4 -8 11l-5 14q-4 8 -7 17q-2 3 -2 7q-14 43 -22 92q-19 -49 -42 -89q-33 -59 -69 -89q-50 -40 -103 -27q-36 9 -53 31q-42 55 -2 129q25 46 93 114l50 47l55 54q43 45 44 63v6
q-2 1 -4 1q-18 3 -55 -9q-22 -7 -47 -19q-25 -11 -39.5 -19t-18.5 -11q-9 -8 -21.5 -7t-20.5 10.5t-7 22t11 20.5z" />
    <glyph glyph-name="ccedilla" unicode="&#xe7;" horiz-adv-x="341" 
d="M282 350q-39 77 -75 90q-23 7 -47 -19q-29 -32 -47.5 -93t-16.5 -118q2 -46 11 -80.5t22.5 -51.5t27 -25t25.5 -7q33 2 66.5 48.5t46.5 137.5q2 13 12 20t22.5 5.5t19.5 -11.5t6 -22q-15 -101 -58.5 -165t-102.5 -72q-14 -31 -30 -52.5t-43 -44.5q-9 -8 -21.5 -7
t-20.5 10.5t-7 22t11 20.5q33 28 49 61q-42 20 -67.5 76t-28.5 135q-2 67 19 140q22 71 60 113q51 56 111 36q59 -20 110 -119q5 -11 1.5 -23t-14.5 -17.5t-23 -2t-18 14.5z" />
    <glyph glyph-name="egrave" unicode="&#xe8;" horiz-adv-x="359" 
d="M129 336q9 -6 34 -2q29 6 57 23q29 19 38.5 37.5t1.5 33.5q-3 6 -13 9q-42 13 -81 -34q-21 -26 -37 -67zM79 372q18 41 41 69q63 79 145 54q34 -11 49 -39q23 -44 1 -84t-63 -65q-38 -24 -79 -32q-36 -6 -63 3q-1 -6 -3 -13q-18 -86 -2 -154q14 -61 50 -68q55 -10 106 68
q12 17 33 74q4 12 15.5 17t23 1t16.5 -15.5t1 -22.5q-2 -5 -6 -17t-7 -18l-6 -16q-4 -10 -9 -19t-11 -18q-73 -110 -166 -92q-76 13 -99 113q-18 79 3 179q6 29 15 56q-5 10 -1.5 21t12.5 17q2 1 4 1zM151 649q14 -12 29 -23.5t39 -27.5l33 -24q10 -7 12 -19.5t-5.5 -22.5
t-20 -12t-22.5 6q-6 5 -31 22t-42 30t-32 27q-9 8 -10 20.5t7.5 21.5t21 10t21.5 -8z" />
    <glyph glyph-name="eacute" unicode="&#xe9;" horiz-adv-x="331" 
d="M129 336q9 -6 34 -2q29 6 57 23q29 19 38.5 37.5t1.5 33.5q-3 6 -13 9q-42 13 -81 -34q-21 -26 -37 -67zM79 372q18 41 41 69q63 79 145 54q34 -11 49 -39q23 -44 1 -84t-63 -65q-38 -24 -79 -32q-36 -6 -63 3q-1 -6 -3 -13q-18 -86 -2 -154q14 -61 50 -68q55 -10 106 68
q12 17 33 74q4 12 15.5 17t23 1t16.5 -15.5t1 -22.5q-2 -5 -6 -17t-7 -18l-6 -16q-4 -10 -9 -19t-11 -18q-73 -110 -166 -92q-76 13 -99 113q-18 79 3 179q6 29 15 56q-5 10 -1.5 21t12.5 17q2 1 4 1zM133 571l14 11q7 5 15 12l13 12l14 13l14 13l14 14q11 12 13 15
q9 9 21.5 9t21.5 -8.5t9 -21t-8 -21.5l-13 -14q-11 -11 -15.5 -15t-14 -13.5t-15.5 -14.5l-15 -14q-8 -8 -16.5 -14.5t-17.5 -12.5q-10 -7 -22.5 -4.5t-19.5 12.5t-4.5 22.5t12.5 19.5z" />
    <glyph glyph-name="ecircumflex" unicode="&#xea;" horiz-adv-x="359" 
d="M129 336q9 -6 34 -2q29 6 57 23q29 19 38.5 37.5t1.5 33.5q-3 6 -13 9q-42 13 -81 -34q-21 -26 -37 -67zM79 372q18 41 41 69q63 79 145 54q34 -11 49 -39q23 -44 1 -84t-63 -65q-38 -24 -79 -32q-36 -6 -63 3q-1 -6 -3 -13q-18 -86 -2 -154q14 -61 51 -68q54 -10 105 68
q12 17 33 74q4 12 15.5 17t23 1t16.5 -15.5t1 -22.5q-2 -5 -6 -17t-7 -18l-6 -16q-4 -10 -9 -19t-11 -18q-73 -110 -166 -92q-76 13 -99 113q-18 79 3 179q6 29 15 56q-5 10 -1.5 21t12.5 17q2 1 4 1zM112 571q27 27 58 70q14 20 20 27q13 15 26 21q36 16 68 -30
q16 -24 56 -103q5 -11 1.5 -22.5t-15 -17t-23 -2t-17.5 15.5q-39 78 -51 95l-1 1q-4 -4 -15 -20q-34 -47 -63 -77q-9 -9 -21.5 -9t-21.5 8.5t-9 21t8 21.5z" />
    <glyph glyph-name="edieresis" unicode="&#xeb;" horiz-adv-x="328" 
d="M126 336q9 -6 34 -2q29 6 57 23q29 19 38.5 37.5t1.5 33.5q-3 6 -13 9q-42 13 -81 -34q-21 -26 -37 -67zM76 372q18 41 41 69q63 79 145 54q34 -11 49 -39q23 -44 1 -84t-63 -65q-38 -24 -79 -32q-36 -6 -63 3q-1 -6 -3 -13q-18 -86 -2 -154q14 -61 50 -68q55 -10 106 68
q12 17 33 74q4 12 15.5 17t23 1t16.5 -15.5t1 -22.5q-2 -5 -6 -17t-7 -18l-6 -16q-4 -10 -9 -19t-11 -18q-73 -110 -166 -92q-76 13 -99 113q-18 79 3 179q6 29 15 56q-5 10 -1.5 21t12.5 17q2 1 4 1zM204 596q0 -12 -9 -21t-21 -9t-21 9t-9 21t9 21t21 9t21 -9t9 -21z
M302 592q0 -12 -9 -21t-21 -9t-21 9t-9 21t9 21t21 9t21 -9t9 -21z" />
    <glyph glyph-name="igrave" unicode="&#xec;" horiz-adv-x="131" 
d="M30 646q34 -30 83 -86q8 -10 7 -22.5t-10.5 -20.5t-22 -7t-20.5 10q-46 54 -77 82q-9 8 -10 20.5t7.5 21.5t21 10t21.5 -8zM88 462q1 -63 -0.5 -220t1.5 -220q0 -13 -8.5 -22t-21 -9t-21.5 8.5t-9 20.5q-3 64 -1.5 221t0.5 221q0 12 8.5 21t21 9t21.5 -8.5t9 -21.5z" />
    <glyph glyph-name="iacute" unicode="&#xed;" horiz-adv-x="128" 
d="M8 561q42 70 76 119q8 10 20 12.5t22 -5t12.5 -19.5t-4.5 -22q-36 -52 -74 -115q-7 -11 -19 -14t-22.5 3.5t-13.5 18.5t3 22zM90 462q1 -63 -0.5 -220t1.5 -220q0 -13 -8.5 -22t-21 -9t-21.5 8.5t-9 20.5q-3 64 -1.5 221t0.5 221q0 12 8.5 21t21 9t21.5 -8.5t9 -21.5z
" />
    <glyph glyph-name="icircumflex" unicode="&#xee;" horiz-adv-x="144" 
d="M-23 572q51 71 54 74q13 16 22 23q18 12 37 9q15 -3 29 -17q8 -9 19 -25l49 -76q7 -10 4.5 -22.5t-12.5 -19.5t-22.5 -4.5t-19.5 12.5l-49 77q-4 6 -7 9l-3 -3q-2 -3 -53 -73q-7 -10 -19.5 -12t-22.5 5.5t-12 20t6 22.5zM89 462q1 -63 -0.5 -220t1.5 -220q0 -13 -8.5 -22
t-21 -9t-21.5 8.5t-9 20.5q-3 64 -1.5 221t0.5 221q0 12 8.5 21t21 9t21.5 -8.5t9 -21.5z" />
    <glyph glyph-name="idieresis" unicode="&#xef;" horiz-adv-x="128" 
d="M87 462q1 -63 -0.5 -220t1.5 -220q0 -13 -8.5 -22t-21 -9t-21.5 8.5t-9 20.5q-3 64 -1.5 221t0.5 221q0 12 8.5 21t21 9t21.5 -8.5t9 -21.5zM59 582q0 -12 -9 -21t-21 -9t-21 9t-9 21t9 21t21 9t21 -9t9 -21zM133 582q0 -12 -9 -21t-21 -9t-21 9t-9 21t9 21t21 9t21 -9
t9 -21z" />
    <glyph glyph-name="eth" unicode="&#xf0;" horiz-adv-x="331" 
d="M217 320l-17 -23q-61 -89 -65 -147q-3 -41 14 -72q15 -27 44 -20q37 9 49 60q21 93 -25 202zM149 433q-32 -30 -58 -57q-9 -10 -21 -10t-21.5 8.5t-9.5 20.5t8 21q28 30 62 62q-34 35 -72 60q-10 7 -12.5 19t4.5 22.5t19 13t23 -4.5q43 -29 83 -70l71 60q9 8 21.5 7
t20.5 -10.5t7 -22t-11 -20.5l-69 -59q17 -22 32 -45l42 46q8 10 20.5 10t22 -8t9.5 -20.5t-8 -21.5q-30 -32 -54 -61q72 -142 42 -269q-20 -86 -93 -104q-37 -9 -65.5 5.5t-44.5 43.5q-26 46 -22 105q6 75 76 177l35 48q-16 28 -37 54z" />
    <glyph glyph-name="ntilde" unicode="&#xf1;" 
d="M93 208q29 71 60 132q28 54 52 89q33 46 62 58q35 14 64 -8q21 -16 34 -51q20 -50 27 -147q10 -128 1 -266q-1 -12 -10 -20.5t-21.5 -7.5t-21 10t-7.5 22q9 137 -1 257q-6 88 -23 130q-7 19 -15 25q-1 1 -5 0q-12 -5 -35 -37q-22 -31 -48 -82q-40 -79 -69 -155
q-4 -12 -15 -51l-15 -55v-2q0 -1 -0.5 -5t-1.5 -9q-1 -13 -5 -20q-8 -13 -22 -16q-13 -3 -26 5q-7 5 -11 13q-1 3 -1.5 6t-1.5 7q-1 5 -1 13q-1 14 -2 36q-1 24 -1 56q-3 218 -16 329q-1 13 6.5 22.5t20 11t22 -6t11.5 -19.5q12 -105 15 -264zM91 589q57 62 106 64
q32 1 73 -28q22 -15 30 -13q20 3 55 52q7 10 19 12t22.5 -5.5t12.5 -19.5t-6 -23q-49 -68 -94 -76q-30 -5 -73 24q-25 17 -37 17q-24 -1 -64 -44q-8 -10 -20.5 -10t-22 8t-9.5 20.5t8 21.5z" />
    <glyph glyph-name="ograve" unicode="&#xf2;" horiz-adv-x="337" 
d="M163 489q10 11 25 9q2 -1 6 -1h10q19 -1 31 -7q47 -25 72 -104q21 -68 21 -151q0 -86 -24 -149q-30 -78 -89 -95q-47 -13 -85 0.5t-62 48.5q-40 59 -38 161q2 95 37 176q37 86 96 112zM191 436q-40 -14 -69 -83q-30 -71 -32 -153q-1 -83 28 -126q27 -40 81 -25
q30 8 49 58q20 53 20 128q0 74 -18 132q-18 56 -43 69q0 1 -5 1h-7q-2 -1 -4 -1zM131 671l35 -25l36 -25q12 -9 31 -21l36 -22q11 -6 14.5 -17.5t-2.5 -22.5t-17.5 -14.5t-22.5 2.5q-19 10 -39.5 23t-33.5 23l-38 26l-33 23q-10 8 -12.5 20t5 22t19.5 12.5t22 -4.5z" />
    <glyph glyph-name="oacute" unicode="&#xf3;" horiz-adv-x="334" 
d="M163 489q10 11 25 9q2 -1 6 -1h10q19 -1 31 -7q47 -25 72 -104q21 -68 21 -151q0 -86 -24 -149q-30 -78 -89 -95q-47 -13 -85 0.5t-62 48.5q-40 59 -38 161q2 95 37 176q37 86 96 112zM191 436q-40 -14 -69 -83q-30 -71 -32 -153q-1 -83 28 -126q27 -40 81 -25
q30 8 49 58q20 53 20 128q0 74 -18 132q-18 56 -43 69q0 1 -5 1h-7q-2 -1 -4 -1zM107 544q53 64 110 143q7 10 19.5 12t22.5 -5.5t12 -20t-6 -22.5q-58 -80 -112 -145q-8 -10 -20.5 -11t-22 7t-10.5 20.5t7 21.5z" />
    <glyph glyph-name="ocircumflex" unicode="&#xf4;" horiz-adv-x="337" 
d="M163 489q10 11 25 9q2 -1 6 -1h10q19 -1 31 -7q47 -25 72 -104q21 -68 21 -151q0 -86 -24 -149q-30 -78 -89 -95q-47 -13 -85 0.5t-62 48.5q-40 59 -38 161q2 95 37 176q37 86 96 112zM191 436q-40 -14 -69 -83q-30 -71 -32 -153q-1 -83 28 -126q27 -40 81 -25
q30 8 49 58q20 53 20 128q0 74 -18 132q-18 56 -43 69q0 1 -5 1h-7q-2 -1 -4 -1zM59 553q20 26 75 104q14 21 23 29q18 19 39 16q18 -2 33 -22q7 -8 20 -30q37 -62 67 -103q8 -10 6 -22.5t-12 -20t-22.5 -5.5t-19.5 12q-32 44 -71 108l-7 13l-7 -9q-55 -79 -76 -106
q-8 -10 -20.5 -11.5t-22 6t-11 20t5.5 21.5z" />
    <glyph glyph-name="otilde" unicode="&#xf5;" horiz-adv-x="334" 
d="M163 489q10 11 25 9q2 -1 6 -1h10q19 -1 31 -7q47 -25 72 -104q21 -68 21 -151q0 -86 -24 -149q-30 -78 -89 -95q-47 -13 -85 0.5t-62 48.5q-40 59 -38 161q2 95 37 176q37 86 96 112zM191 436q-40 -14 -69 -83q-30 -71 -32 -153q-1 -83 28 -126q27 -40 81 -25
q30 8 49 58q20 53 20 128q0 74 -18 132q-18 56 -43 69q0 1 -5 1h-7q-2 -1 -4 -1zM68 560q36 69 68 86q21 11 43 5q15 -5 29 -19q8 -7 18 -22q10 -13 14 -17q2 -3 4 -5l2 2q6 5 14 14l25 33q8 9 20.5 10.5t22 -6t11 -20t-5.5 -22.5q-24 -29 -27 -34q-11 -12 -19 -19
q-13 -12 -24 -16q-37 -13 -68 23l-17 21q-8 11 -12 16q-2 1 -3 2q-16 -10 -41 -60q-6 -11 -18 -14.5t-23 2t-14.5 17.5t1.5 23z" />
    <glyph glyph-name="odieresis" unicode="&#xf6;" horiz-adv-x="331" 
d="M163 489q10 11 25 9q2 -1 6 -1h10q19 -1 31 -7q47 -25 72 -104q21 -68 21 -151q0 -86 -24 -149q-30 -78 -89 -95q-47 -13 -85 0.5t-62 48.5q-40 59 -38 161q2 95 37 176q37 86 96 112zM191 436q-40 -14 -69 -83q-30 -71 -32 -153q-1 -83 28 -126q27 -40 81 -25
q30 8 49 58q20 53 20 128q0 74 -18 132q-18 56 -43 69q0 1 -5 1h-7q-2 -1 -4 -1zM163 574q0 -12 -9 -21t-21 -9t-21 9t-9 21t9 21t21 9t21 -9t9 -21zM255 574q0 -12 -9 -21t-21 -9t-21 9t-9 21t9 21t21 9t21 -9t9 -21z" />
    <glyph glyph-name="divide" unicode="&#xf7;" horiz-adv-x="328" 
d="M56 343q49 0 138.5 14t114.5 17q12 1 22 -6.5t11 -20t-6.5 -22.5t-20.5 -11t-110.5 -16t-148.5 -15q-12 0 -21 9t-9 21t9 21t21 9zM220 460q0 -12 -9 -21t-21 -9t-21 9t-9 21t9 21t21 9t21 -9t9 -21zM204 172q0 -12 -9 -21t-21 -9t-21 9t-9 21t9 21t21 9t21 -9t9 -21z
" />
    <glyph glyph-name="oslash" unicode="&#xf8;" horiz-adv-x="328" 
d="M264 302q-100 -118 -158 -206q5 -12 12 -22q27 -40 81 -25q30 8 49 58q20 53 20 128q0 34 -4 67zM163 489q10 11 25 9q2 -1 6 -1h10q19 -1 31 -7q47 -25 72 -104q21 -68 21 -151q0 -86 -24 -149q-30 -78 -89 -95q-47 -13 -85 0.5t-62 48.5q-40 59 -38 161q2 95 37 176
q37 86 96 112zM191 436q-40 -14 -69 -83q-30 -71 -32 -153v-21q57 79 153 191q2 2 5 4q-18 50 -41 62q0 1 -5 1h-7q-2 -1 -4 -1z" />
    <glyph glyph-name="ugrave" unicode="&#xf9;" horiz-adv-x="293" 
d="M99 468q0 -4 -0.5 -41.5t-0.5 -64.5t2 -70t5 -78q9 -84 27 -130q17 -43 38 -44q13 -1 27 37q16 43 24 126q4 35 6 76.5t2.5 69t0.5 59.5v39q0 12 9 20.5t21.5 8.5t21 -9t8.5 -22v-39q0 -33 -0.5 -61.5t-2.5 -70.5t-6 -77q-9 -89 -28 -141q-29 -79 -85 -76q-60 3 -91 81
q-22 55 -31 147q-4 37 -6 81.5t-2 72.5t0.5 65.5t0.5 40.5q0 12 9 21t21 9t21 -9t9 -21zM140 602q7 -9 14.5 -17.5t8.5 -9.5l5 -5q5 -5 6.5 -6t10.5 -9t19 -16q9 -8 10 -20.5t-7 -22t-20.5 -10.5t-22.5 7q-9 9 -19 17.5t-11.5 9.5t-7.5 6l-6 7q-1 1 -9.5 11t-16.5 18
q-8 10 -7 22t10.5 20.5t21.5 7.5t21 -10z" />
    <glyph glyph-name="uacute" unicode="&#xfa;" horiz-adv-x="293" 
d="M99 468q0 -4 -0.5 -41.5t-0.5 -64.5t2 -70t5 -78q9 -84 27 -130q17 -43 38 -44q13 -1 27 37q16 43 24 126q4 35 6 76.5t2.5 69t0.5 59.5v39q0 12 9 20.5t21.5 8.5t21 -9t8.5 -22v-39q0 -33 -0.5 -61.5t-2.5 -70.5t-6 -77q-9 -89 -28 -141q-29 -79 -85 -76q-60 3 -91 81
q-22 55 -31 147q-4 37 -6 81.5t-2 72.5t0.5 65.5t0.5 40.5q0 12 9 21t21 9t21 -9t9 -21zM117 500q58 83 80 109q8 10 20.5 11t22 -7t10.5 -20.5t-7 -21.5q-16 -19 -76 -105q-7 -10 -19.5 -12.5t-22.5 4.5t-12.5 19.5t4.5 22.5z" />
    <glyph glyph-name="ucircumflex" unicode="&#xfb;" horiz-adv-x="290" 
d="M99 468q0 -4 -0.5 -41.5t-0.5 -64.5t2 -70t5 -78q9 -84 27 -130q17 -43 38 -44q13 -1 27 37q16 43 24 126q4 35 6 76.5t2.5 69t0.5 59.5v39q0 12 9 20.5t21.5 8.5t21 -9t8.5 -22v-39q0 -33 -0.5 -61.5t-2.5 -70.5t-6 -77q-9 -89 -28 -141q-29 -79 -85 -76q-60 3 -91 81
q-22 55 -31 147q-4 37 -6 81.5t-2 72.5t0.5 65.5t0.5 40.5q0 12 9 21t21 9t21 -9t9 -21zM67 566l41 58l26 36q6 8 9 13q3 3 5 4.5t4 3.5q6 5 14 7q15 2 31 -8q8 -5 17 -15q14 -14 31 -39q31 -45 44 -74q5 -11 1 -22.5t-15.5 -16.5t-23 -1t-16.5 16q-11 24 -39 64l-19 25
l-20 -27l-40 -58q-7 -10 -19 -12.5t-22.5 4.5t-13 19t4.5 23z" />
    <glyph glyph-name="udieresis" unicode="&#xfc;" horiz-adv-x="287" 
d="M99 468q0 -4 -0.5 -41.5t-0.5 -64.5t2 -70t5 -78q9 -84 27 -130q17 -43 38 -44q13 -1 27 37q16 43 24 126q4 35 6 76.5t2.5 69t0.5 59.5v39q0 12 9 20.5t21.5 8.5t21 -9t8.5 -22v-39q0 -33 -0.5 -61.5t-2.5 -70.5t-6 -77q-9 -89 -28 -141q-29 -79 -85 -76q-60 3 -91 81
q-22 55 -31 147q-4 37 -6 81.5t-2 72.5t0.5 65.5t0.5 40.5q0 12 9 21t21 9t21 -9t9 -21zM134 561q0 -12 -9 -21t-21 -9t-21 9t-9 21t9 21t21 9t21 -9t9 -21zM231 563q0 -12 -9 -21t-21 -9t-21 9t-9 21t9 21t21 9t21 -9t9 -21z" />
    <glyph glyph-name="yacute" unicode="&#xfd;" horiz-adv-x="300" 
d="M98 463q-5 -160 0 -233q6 -81 22 -124q13 -39 28 -39q16 0 31 20q16 23 27 69q11 45 22 153q7 72 7 104q-1 27 -1 46q0 4 1 8q0 3 1 6q2 5 7 10q13 13 30 7q11 -3 17 -13q1 -2 2 -5q1 -2 2 -5v-3v-1v-1v-12q1 -20 1 -30v-14l5 -96q4 -74 5 -121q5 -192 -25 -266
q-18 -43 -50 -72.5t-72 -39.5q-41 -10 -82.5 4t-74.5 51q-9 9 -8 21.5t10 21t21.5 7.5t20.5 -10q45 -50 99 -37q25 6 47 26q21 20 33 50q18 45 21 139q-8 -17 -17 -31q-32 -47 -80 -46q-57 1 -85 79q-18 51 -25 140q-5 76 0 239q0 12 9.5 20.5t21.5 8.5t20.5 -9.5t8.5 -21.5
zM120 545q40 40 79 89q7 9 19.5 10.5t22 -6t11 -20t-6.5 -22.5q-41 -51 -83 -93q-9 -9 -21 -9t-21 9t-9 21t9 21z" />
    <glyph glyph-name="thorn" unicode="&#xfe;" horiz-adv-x="300" 
d="M85 81q51 0 81 18q47 28 72.5 85t20.5 119t-42 102q-17 18 -34 18q-16 0 -34 -15q-19 -15 -33.5 -38.5t-20.5 -45.5q-1 -4 -7 -111q-3 -41 -3 -132zM95 702q10 -113 5 -257q6 5 11 10q35 28 72 28q43 0 78 -38q50 -54 57.5 -134.5t-26.5 -153.5t-96 -110
q-44 -26 -112 -26q-2 -81 -10 -139q-2 -12 -12 -19.5t-22 -6t-19.5 11.5t-6.5 22q8 57 10 161q2 130 4 166l6 104q0 5 1 11q13 227 0 364q-1 13 7 22.5t20.5 10.5t22 -7t10.5 -20z" />
    <glyph glyph-name="ydieresis" unicode="&#xff;" horiz-adv-x="300" 
d="M98 463q-5 -160 0 -233q6 -81 22 -124q13 -39 28 -39q16 0 31 20q16 23 27 69q11 45 22 153q7 72 7 104q-1 27 -1 46q0 4 1 8q0 3 1 6q2 5 7 10q13 13 30 7q11 -3 17 -13q1 -2 2 -5q1 -2 2 -5v-3v-1v-1v-12q1 -20 1 -30v-14l5 -96q4 -74 5 -121q5 -192 -25 -266
q-18 -43 -50 -72.5t-72 -39.5q-41 -10 -82.5 4t-74.5 51q-9 9 -8 21.5t10 21t21.5 7.5t20.5 -10q45 -50 99 -37q25 6 47 26q21 20 33 50q18 45 21 139q-8 -17 -17 -31q-32 -47 -80 -46q-57 1 -85 79q-18 51 -25 140q-5 76 0 239q0 12 9.5 20.5t21.5 8.5t20.5 -9.5t8.5 -21.5
zM170 560q0 -12 -9 -21t-21 -9t-21 9t-9 21t9 21t21 9t21 -9t9 -21zM245 565q0 -12 -9 -21t-21 -9t-21 9t-9 21t9 21t21 9t21 -9t9 -21z" />
    <glyph glyph-name="OE" unicode="&#x152;" horiz-adv-x="600" 
d="M221 637q-36 -7 -69 -68q-41 -76 -56 -188q-15 -115 6 -206q21 -92 73 -117q58 -28 104 19q42 43 61 120q10 42 10 104t-11 129q-28 149 -96 195q-9 6 -22 12zM242 712q47 0 143 5q115 6 146 6q12 0 21 -9t9 -21t-9 -21t-21 -9q-48 0 -143 -5q-56 -4 -85 -5
q68 -67 95 -212l6 -39q97 10 138 10q12 0 21 -9t9 -21t-9 -21t-21 -9q-39 0 -133 -10q5 -93 -11 -159q-19 -79 -62 -132q43 0 124.5 2t117.5 2q12 0 21 -9t9 -21t-9 -21t-21 -9q-21 0 -153 -3t-153 1q-5 0 -9 2q-55 -20 -114 9q-78 38 -105 158q-24 99 -7 227q16 125 62 209
q31 55 69 81q0 7 3 14q5 11 17 15t23 -1q3 -2 9 -4q9 9 22 9z" />
    <glyph glyph-name="oe" unicode="&#x153;" horiz-adv-x="600" 
d="M328 232q101 -7 146 49q19 24 25 55.5t-2 57.5q-7 26 -21.5 38.5t-30.5 10.5q-23 -3 -55 -32.5t-67 -95.5q5 -39 5 -80v-3zM275 34q-25 -33 -60 -43q-47 -13 -85 0.5t-62 48.5q-40 59 -38 161q2 95 37 176q37 86 96 112q10 11 25 9q2 -1 6 -1h10q19 -1 31 -7
q43 -23 68 -92q66 97 135 104q44 6 74.5 -22t42.5 -70q12 -37 3.5 -84t-37.5 -83q-65 -79 -197 -71q-5 -43 -17 -78q45 -76 122 -63q38 6 73.5 32t58.5 65q7 11 19 14t22.5 -3.5t13.5 -18.5t-3 -22q-30 -50 -76 -84t-98 -42q-99 -17 -164 62zM191 436q-40 -14 -69 -83
q-30 -71 -32 -153q-1 -83 28 -126q27 -40 81 -25q30 8 49 58q20 53 20 128q0 74 -18 132q-18 56 -43 69q0 1 -5 1h-7q-2 -1 -4 -1z" />
    <glyph glyph-name="quoteleft" unicode="&#x2018;" horiz-adv-x="200" 
d="M159 710q-40 -14 -61 -54t-31 -104q-2 -12 -12.5 -19.5t-22.5 -5.5t-19.5 12.5t-5.5 22.5q6 33 13.5 59.5t21.5 57.5t39 53.5t60 33.5q11 4 22.5 -1.5t15 -17t-2 -23t-17.5 -14.5z" />
    <glyph glyph-name="quoteright" unicode="&#x2019;" horiz-adv-x="162" 
d="M162 734q3 -60 -15.5 -105t-60.5 -90q-9 -9 -21.5 -9t-21.5 8.5t-9 21t8 21.5q35 36 48.5 69.5t11.5 81.5q-1 12 7.5 21t21 10t21.5 -7.5t10 -21.5z" />
    <glyph glyph-name="quotedblleft" unicode="&#x201c;" horiz-adv-x="244" 
d="M146 712q-63 -54 -70 -151q-1 -13 -10.5 -21t-22 -7t-20.5 10.5t-7 21.5q10 123 90 193q10 8 22 7t20.5 -10.5t7.5 -21.5t-10 -21zM238 691q-78 -72 -87 -180q-1 -13 -10.5 -21t-22 -7t-20.5 10.5t-7 21.5q11 132 107 220q9 9 21.5 8t21 -10t7.5 -21.5t-10 -20.5z" />
    <glyph glyph-name="quotedblright" unicode="&#x201d;" horiz-adv-x="259" 
d="M181 736q0 -63 -27.5 -109.5t-78.5 -92.5q-10 -8 -22 -7t-20.5 10.5t-7.5 21.5t10 21q45 39 65.5 74t20.5 82q0 12 9 21t21 9t21 -9t9 -21zM260 724q0 -68 -24 -119.5t-73 -108.5q-8 -9 -20.5 -10t-22 7t-10.5 20.5t7 22.5q44 50 63.5 92t19.5 96q0 12 9 21t21 9t21 -9
t9 -21z" />
    <glyph glyph-name="perthousand" unicode="&#x2030;" horiz-adv-x="531" 
d="M39 53q16 51 67 141q127 224 327 478q8 9 20.5 10.5t22 -6t11 -20t-5.5 -22.5q-199 -251 -323 -470q-47 -84 -61 -129q-4 -12 -15 -17.5t-23 -2t-17.5 14.5t-2.5 23zM176 572q0 -12 -9 -21t-21 -9t-21 9t-9 21t9 21t21 9t21 -9t9 -21zM320 69q0 -12 -9 -21t-21 -9t-21 9
t-9 21t9 21t21 9t21 -9t9 -21zM411 58q0 -12 -9 -21t-21 -9t-21 9t-9 21t9 21t21 9t21 -9t9 -21z" />
    <glyph glyph-name="Euro" unicode="&#x20ac;" horiz-adv-x="500" 
d="M94 291q37 -1 72 1q0 47 5 94q-47 -3 -90 -3q-12 0 -21 9t-9 21t9 21t21 9q48 0 101 4q19 93 63 172q34 63 72 84q43 24 83 -3q56 -39 75 -157q2 -13 -5.5 -23t-20 -12t-22.5 5.5t-12 19.5q-6 44 -20 75.5t-29 41.5q-10 7 -20 1q-23 -13 -49 -60q-34 -64 -53 -138
q35 3 77 9q12 1 22 -6.5t11.5 -19.5t-6 -22t-19.5 -12q-54 -7 -96 -11q-7 -47 -7 -94q41 5 82 14q13 3 23.5 -3.5t13 -19t-4 -23t-18.5 -12.5q-46 -11 -93 -16q0 -3 1 -7q9 -81 37 -128q22 -36 46 -38q24 -1 48 32q33 45 48 134q3 13 13 20t22.5 4.5t19.5 -12.5t5 -22
q-19 -103 -59 -159q-44 -60 -101 -57q-55 4 -93 66q-36 59 -46 154q0 4 -1 8q-37 -2 -77 -1q-12 0 -20.5 9t-8.5 21.5t9 21t22 8.5z" />
    <glyph glyph-name="trademark" unicode="&#x2122;" horiz-adv-x="714" 
d="M187 599q1 -49 12 -128q16 -108 19 -133q1 -12 -7 -22t-20 -11t-22 7t-11 20q-2 24 -18 131q-11 75 -13 118l-79 -36q-11 -5 -22.5 -1t-16.5 15.5t-1 23t16 16.5l68 31q47 23 83 38l69 29q12 4 23 -1t15.5 -16.5t-0.5 -22.5t-16 -16q-36 -14 -80 -34q1 -3 1 -8zM306 325
q3 25 3.5 55t-0.5 52t-3 59t-3 57q-1 25 -2 41l-1 22l-1 4q-3 11 -3 12q-3 12 -1 21q2 11 10.5 19t20.5 9q29 2 43 -28q3 -4 4 -7.5t1 -4.5l2 -2q0 -1 1 -2q37 -53 61 -92q28 105 54 152l3 6l6 12q7 10 15 16q21 13 40 -2q7 -6 13 -16q3 -6 5 -14q5 -14 11 -36q8 -34 20 -99
q31 -156 34 -165q4 -14 13 -36q1 -1 7.5 -16t9.5 -23q4 -11 -0.5 -22.5t-16 -16t-23 0t-16.5 16.5l-9 21q-6 15 -7 17q-10 24 -16 41q-4 12 -34 172q-11 53 -18 83q-13 -33 -36 -116q-1 -3 -1 -6.5t-0.5 -10.5t-0.5 -14q-3 -38 -29 -52q-2 -1 -5 -2q-13 -6 -25 1
q-10 5 -14 16q-1 2 -1 5h-1v1q0 2 -4 10q-13 27 -47 80v-2q-1 -2 -1 -5q0 -8 2.5 -50t3 -60t0 -50.5t-3.5 -58.5q-2 -12 -11.5 -19.5t-22 -6t-20 11t-6.5 22.5z" />
    <glyph glyph-name="uni3000" unicode="&#x3000;" horiz-adv-x="1000" 
 />
    <glyph glyph-name="uniF8FF" unicode="&#xf8ff;" horiz-adv-x="914" 
d="M64 68q30 46 24 89q-1 11 -10 15q-12 6 -36 3q-23 -2 -48 -10.5t-37 -16.5l-2 -2q22 -38 66 -98l4 -5q26 19 38 25h1zM269 14q-22 22 -66 24q-50 2 -99 -18q-15 -20 -35 -38l7 -10q47 21 112 33q38 6 81 9zM287 -45q-47 -2 -89 -9q-51 -10 -88 -25q5 -10 2 -21t-13 -17
q-10 -7 -22 -4.5t-19 12.5q-19 -16 -26 -35q-5 -15 -3 -20q6 -15 45 -15q49 0 106 26q60 28 89 67q15 21 18 41zM756 413q-17 -61 1 -115q8 -23 14 -28q22 -15 30 -12q12 5 10 29q-3 37 -32 88q-10 20 -23 38zM675 489q-3 -2 -6 -11q-6 -21 -4 -58q2 -49 14 -99l14 -14
q-16 74 17 160q-25 23 -35 22zM349 261q5 0 10 -2q6 -3 11 -8q9 -7 19 -26q9 -16 17 -34q8 -8 15 -14q23 -19 40 -28v1q2 13 0 34q-4 40 -15 64q0 2 -7 15q-26 33 -31 49q-2 4 -3 7q-2 9 1 18q7 21 29 21q10 0 18 -6q4 -3 8 -8q5 -6 15 -24l13 -24q25 -31 51 -56
q32 -31 53 -41q4 -2 7 -3q10 22 -2 67q-4 17 -33 92q-9 23 -22 45l-6 10q-1 2 -2 3q0 1 -1 2q-2 5 -2 8q-4 16 10 27q7 6 15.5 7t12.5 -1l5 -2l8 -6l2 -2l3 -4l17 -24q-2 47 7 77q15 50 57 54q31 3 68 -26q14 26 52 87q6 10 18 13t22.5 -3.5t13.5 -18.5t-4 -23
q-41 -67 -57 -100q27 -32 50 -74q34 -63 39 -111q3 -30 -8.5 -55.5t-41.5 -35.5q-16 -6 -33 -3q15 -19 26 -35q12 -18 18 -31q11 -24 2 -42q-12 -26 -42 -20q-12 2 -27 12q-24 16 -50 46q-28 34 -51 75q-4 -27 -17 -47q-27 -39 -81 -12q-20 10 -44 31q1 -19 -1 -34
q-4 -31 -22 -46q-14 -13 -36 -10q-13 2 -29 9q-8 4 -16 10q-4 -13 -9 -23q-26 -47 -78 -43q-3 0 -5 1q7 -11 12 -23q55 -1 96 -7q12 -2 19.5 -12.5t5.5 -22.5t-12.5 -19.5t-22.5 -5.5q-32 6 -77 7q-3 -41 -30 -78q-38 -52 -112 -86q-69 -32 -131 -32q-80 0 -101 53
q-10 26 3 62q12 34 43 61q-3 -2 -6 -3q-22 -9 -39 8q-16 15 -9 38q3 10 12 20l2 4l-6 8q-39 54 -61 88q-6 -9 -13 -21q-6 -11 -18 -14.5t-22.5 2.5t-14 18t2.5 22q19 36 40 59q4 9 14 14q1 1 3 2q9 8 19 14q19 14 51 25t63 14q40 4 67 -9q38 -18 44 -61q4 -36 -6 -72
q33 6 64 5q22 -1 41 -6q-5 8 -9 17q-22 50 -14 107q4 28 15 47q16 27 42 31q27 5 54 -18q7 -7 14 -15zM-9 635q19 -26 60 -88q36 -56 58 -85l49 -60l8 -10v3q-3 24 -3 28q-1 47 6.5 102.5t14.5 82.5l23 95q3 12 13.5 18.5t22.5 3.5t18.5 -13.5t3.5 -22.5q-19 -76 -23 -94
q-6 -27 -13 -77t-6 -93q0 -2 2 -23q3 -29 5 -46q2 -28 2 -45q0 -11 -1 -18t-3 -12q-6 -15 -22 -19q-21 -5 -36 12q-6 6 -9 18q-4 11 -3 11q-15 24 -46 60q-39 47 -51 63q-21 28 -60 88l-58 87q-8 10 -6 22t12.5 19.5t22.5 5.5t19 -13zM324 190q-16 29 -29 41q-2 1 -3 2
l-1 -1q-5 -9 -8 -25q-6 -40 10 -74q14 -32 42 -34q14 -1 21 11q9 17 3 36q-1 4 -4 11q-9 9 -17 18l-1 2q-9 4 -13 13zM359 391q0 -12 -9 -21t-21 -9t-21 9t-9 21t9 21t21 9t21 -9t9 -21z" />
    </font>
</defs>
</svg>
