<?xml version="1.0" standalone="no"?>
<!DOCTYPE svg PUBLIC "-//W3C//DTD SVG 1.1//EN" "http://www.w3.org/Graphics/SVG/1.1/DTD/svg11.dtd" >
<svg xmlns="http://www.w3.org/2000/svg" xmlns:xlink="http://www.w3.org/1999/xlink" version="1.1">
<metadata>
Created by FontForge 20170731 at Wed Apr 24 15:17:42 2002
 By Aleksey,,,
Copyright (c) Typographer Mediengestaltung, 2002. All rights reserved. Halbfette Ballade geschaffen von Paul Renner, 1937. Digitized and hinted by Dieter Steffmann, Kreuztal
</metadata>
<defs>
<font id="BalladeContour" horiz-adv-x="501" >
  <font-face 
    font-family="Ballade Contour"
    font-weight="400"
    font-stretch="normal"
    units-per-em="1000"
    panose-1="2 0 5 5 0 0 0 2 0 4"
    ascent="800"
    descent="-200"
    x-height="551"
    cap-height="772"
    bbox="-209 -230 1439 953"
    underline-thickness="50"
    underline-position="-175"
    unicode-range="U+0020-F002"
  />
<missing-glyph horiz-adv-x="17" 
 />
    <glyph glyph-name=".notdef" horiz-adv-x="17" 
 />
    <glyph glyph-name=".null" horiz-adv-x="0" 
 />
    <glyph glyph-name="nonmarkingreturn" horiz-adv-x="356" 
 />
    <glyph glyph-name="space" unicode=" " horiz-adv-x="356" 
 />
    <glyph glyph-name="space" unicode="&#xa0;" horiz-adv-x="356" 
 />
    <glyph glyph-name="exclam" unicode="!" horiz-adv-x="174" 
d="M196 640q0 -103 -30 -274l-5 -29v1l-4 -32q-3 -26 -5.5 -43.5t-4.5 -26.5q-8 -33 -19 -50q16 -8 30 -22l-1 1q30 -27 30 -61q0 -28 -33 -62h1l-38 -42q-42 0 -75 48q-12 16 -17 29t-5 24q0 28 31 59q8 8 15 14t14 10l-4 3q-29 113 -42.5 226.5t-13.5 229.5q0 40 31 80v-1
q25 34 65 34q34 0 56 -44q11 -23 17.5 -41t6.5 -31zM187 640q0 25 -22 68q-20 39 -49 39q-35 0 -58 -31q-30 -37 -30 -73q0 -231 54 -450l16 -12q-9 -1 -19.5 -8.5t-23.5 -20.5q-27 -30 -27 -51q0 -9 4 -20.5t15 -25.5q32 -46 65 -46l37 40q30 33 30 55q0 30 -27 54
q-10 10 -20.5 16t-21.5 7q20 11 29 57q2 5 4 23t6 47l4 32v-1l5 29q15 86 22 153.5t7 118.5zM179 640q0 -100 -29 -271l-5 -28l-4 -32q-7 -57 -10 -69q-10 -49 -27 -51l-14 10q-54 215 -54 444q0 30 28 66q21 28 52 28q25 0 42 -34q21 -42 21 -63zM171 104q0 -18 -28 -48
l-34 -37q-26 0 -55 42q-18 25 -18 40q0 18 25.5 45t41.5 27q21 0 44.5 -22.5t23.5 -46.5z" />
    <glyph glyph-name="quotedbl" unicode="&#x22;" horiz-adv-x="354" 
d="M349 629q0 -100 -47 -244h-45q-51 135 -51 220v6q0 5 1 9v91h142v-82zM181 629q0 -100 -47 -244h-46q-50 136 -50 220v6q0 5 1 9v91h142v-82zM340 702h-124v-83q-1 -4 -1 -8v-6q0 -85 48 -211h34q21 66 32 124.5t11 110.5v73zM172 702h-124v-83q-1 -4 -1 -8v-6
q0 -82 48 -211h33q44 134 44 235v73zM331 629q0 -99 -41 -226h-21q-45 120 -45 202q0 4 1 12v12v64h106v-64zM163 629q0 -99 -42 -226h-21q-44 120 -44 202q0 4 1 12v12v64h106v-64z" />
    <glyph glyph-name="numbersign" unicode="#" horiz-adv-x="628" 
d="M257 305h125l22 104h-127zM630 180h-148l-38 -180h-124l38 180h-127l-36 -180h-126l38 180h-77v124h102l22 105h-124v123h148l39 182h125l-39 -182h124l39 182h126l-39 -182h77v-123h-102l-21 -105h123v-124zM621 295h-126l25 124h101v104h-80l39 182h-106l-39 -182h-144
l40 182h-105l-39 -182h-148v-104h126l-25 -124h-101v-106h79l-37 -180h106l36 180h146l-38 -180h105l38 180h147v106zM270 419h145l-25 -124h-145zM611 199h-144l-39 -180h-85l39 180h-166l-37 -180h-86l37 180h-81v86h99l29 143h-128v85h145l39 182h86l-40 -182h164l39 182
h86l-38 -182h81v-85h-98l-29 -143h127v-86zM427 428h-165l-29 -142h165z" />
    <glyph glyph-name="dollar" unicode="$" horiz-adv-x="474" 
d="M363 249q0 30 -12 59t-33 47v-193l17 -6q13 23 20.5 46t7.5 47zM142 535q0 -64 61 -117v157l-49 14q-7 -14 -9.5 -27.5t-2.5 -26.5zM495 306q0 -154 -177 -283v-54h-115v55l-210 61l85 144l125 -36v111l-82 -43q-60 63 -82 99q-16 26 -23.5 55t-7.5 61q0 145 121 212v-1
q33 19 74 27v44h115v-47q27 -8 62 -20.5t79 -31.5l-60 -141l-81 24v-78l91 49q42 -48 64 -99.5t22 -107.5zM486 306q0 108 -79 196l-98 -53v104l84 -24l54 125q-42 18 -76 30.5t-62 17.5v46h-96v-42q-23 -4 -43 -10t-37 -16q-115 -66 -115 -204q0 -64 28 -111q10 -17 29 -40
t48 -53l90 47v-138l-132 38l-75 -129l207 -60v-52h96v50q177 129 177 278zM133 535q0 16 4 32t12 33l64 -18v-183q-80 60 -80 136zM372 249q0 -57 -33 -103l-30 9v216h1q29 -17 45.5 -50.5t16.5 -71.5zM476 306q0 -147 -176 -274v-44h-78v50l-202 58l66 111l136 -39v167
l-97 -51q-51 52 -70 85q-28 48 -28 107q0 132 111 195q35 20 84 27v41h78v-44q59 -12 135 -46l-47 -108l-88 25v-133l105 56q71 -80 71 -183zM222 390v199l-78 23q-20 -40 -20 -77q0 -84 90 -149zM381 249q0 41 -18.5 78.5t-51.5 55.5l-11 -6v-229l43 -14q38 53 38 115z" />
    <glyph glyph-name="percent" unicode="%" horiz-adv-x="700" 
d="M585 175q0 80 -36 103h-21q-2 -8 -2 -23v-37q0 -99 50 -99q9 0 11 1h-1q-1 0 -1 55zM211 465q0 81 -37 103h-20q-2 -8 -2 -23v-37q0 -99 50 -99q9 0 11 1h-1q-1 0 -1 55zM190 -37h-116l450 724h116zM696 219q0 -44 -22 -97q-21 -50 -55 -80l2 1l-20 -23v1
q-18 -19 -43 -19q-147 0 -147 171q0 69 31 124.5t93 103.5q92 0 131 -53q30 -44 30 -129zM321 509q0 -46 -21 -97q-21 -50 -55 -80l2 1l-21 -23v1q-16 -19 -42 -19q-147 0 -147 171q0 134 124 228q92 0 130 -53q30 -40 30 -129zM312 509q0 83 -28 123q-18 24 -47 37t-72 13
q-119 -89 -119 -219q0 -162 138 -162q20 0 35 16l20 22q30 27 52 77q21 49 21 93zM686 219q0 83 -28 123q-18 24 -47 36.5t-72 12.5q-119 -87 -119 -218q0 -162 138 -162q22 0 35 16l21 22q29 27 52 77q11 25 15.5 48.5t4.5 44.5zM622 678h-92l-438 -705h93zM221 465
q0 -61 -6 -64h1q-2 -1 -14 -1q-60 0 -60 108q0 27 1 44.5t3 24.5h31q44 -26 44 -112zM595 175q0 -61 -6 -64h1q-2 -1 -14 -1q-59 0 -59 108q0 55 3 69h32q43 -26 43 -112zM677 219q0 -42 -20 -89t-50 -74l-21 -23q-11 -12 -28 -12q-128 0 -128 152q0 126 112 209
q76 0 109 -45q26 -38 26 -118zM303 509q0 -42 -20 -89t-50 -74l-21 -23q-11 -12 -28 -12q-128 0 -128 152q0 126 112 209q76 0 108 -45q27 -38 27 -118zM604 175q0 96 -50 122h-39q-8 -11 -8 -79q0 -118 69 -118q13 0 17 2q11 4 11 73zM230 465q0 96 -50 122h-40
q-7 -11 -7 -79q0 -117 69 -117q13 0 17 1q11 4 11 73zM180 -18h-72l427 686h71z" />
    <glyph glyph-name="ampersand" unicode="&#x26;" horiz-adv-x="681" 
d="M313 614q-9 0 -14.5 -6t-5.5 -15q0 -1 11 -21l38 -63q14 19 14 39t-17 44q-13 22 -26 22zM192 279l62 -108l44 34l-55 111zM569 208q-39 0 -76 31l-10 -9q10 -18 17 -30t15 -18q24 -25 59 -25q13 0 37 11l-1 -1q13 7 24 7q41 0 41 -44q0 -33 -25 -67q-20 -26 -52 -45
q-39 -22 -80 -22q-87 0 -148 79q-6 8 -13 19t-15 25l-180 -141l-162 278l199 146l-69 122q-7 14 -11 25.5t-4 22.5q0 18 7 32.5t20 27.5q2 2 12.5 9t28.5 20l211 98q108 -57 108 -170q0 -69 -58 -123q-14 -14 -57 -45l53 -104l111 87q63 -54 78 -54q2 0 7 1q3 0 10.5 0.5
t9.5 0.5l20 -13q14 -20 14 -34q0 -39 -46 -69q-40 -28 -75 -28zM569 218q31 0 71 26h-1q41 26 41 61q0 7 -3 13.5t-8 15.5l-15 8q-2 0 -8 -0.5t-8 -0.5q-5 -1 -9 -1q-19 0 -78 52l-115 -91l-61 123q24 18 39.5 29.5t23.5 19.5q54 51 54 116q0 108 -98 159l-200 -93
q-19 -12 -31.5 -20t-15.5 -10q-22 -23 -22 -53q0 -19 14 -43l72 -131l-199 -145l152 -261l181 141q9 -17 17 -30t16 -22q56 -75 140 -75q20 0 39 4.5t36 15.5q30 16 49 42q24 30 24 62q0 34 -32 34q-11 0 -19 -4h1q-26 -13 -42 -13q-38 0 -66 28q-7 7 -16 21.5t-21 36.5
l22 17q35 -32 76 -32zM247 330l63 -128l-58 -44l-72 123zM313 624q17 0 34 -27q19 -30 19 -49q0 -31 -25 -54l-44 73l-10.5 18t-3.5 8q0 13 9 22t21 9zM569 227q-40 0 -75 36l-35 -27q26 -51 43 -68q29 -30 72 -30q19 0 46 13q7 4 14 4q23 0 23 -25q0 -27 -22 -56
q-19 -25 -46 -40q-33 -19 -71 -19q-79 0 -133 72q-15 19 -36 61l-182 -141l-142 243l199 146l-77 137q-13 24 -13 39q0 27 19 45q6 5 43 28l197 93q90 -48 90 -149q0 -61 -51 -109q-16 -14 -68 -52l70 -141l117 92q56 -48 78 -48q4 0 11 1t11 1l11 -7q9 -12 9 -21
q0 -28 -36.5 -53t-65.5 -25zM313 633q-16 0 -27.5 -12t-11.5 -28q0 -7 14 -30l50 -83q37 28 37 68q0 25 -19.5 55t-42.5 30zM250 344l-83 -60l82 -140l73 56z" />
    <glyph glyph-name="quotesingle" unicode="'" horiz-adv-x="159" 
d="M153 629q0 -103 -40 -244h-39q-20 68 -31 123t-11 97v6q0 5 1 9v91h120v-82zM146 702h-105v-83q-1 -4 -1 -8v-6q0 -41 10 -93.5t30 -117.5h29q18 66 27.5 124.5t9.5 110.5v73zM138 629q0 -99 -35 -226h-18q-38 120 -38 202q0 4 1 12v12v64h90v-64z" />
    <glyph glyph-name="parenleft" unicode="(" horiz-adv-x="294" 
d="M285 -181q-126 89 -193 209q-68 125 -68 267q0 278 267 485l34 -65q-157 -127 -157 -408q0 -282 159 -432zM314 -125q-155 147 -155 432q0 286 155 411l-26 49q-255 -197 -255 -472q0 -141 67 -262q62 -113 183 -201zM281 -155q-111 78 -174 192q-66 121 -66 258
q0 269 244 457l17 -31q-151 -122 -151 -414t151 -434z" />
    <glyph glyph-name="parenright" unicode=")" horiz-adv-x="294" 
d="M181 -74q-46 -54 -124 -107l-42 56q159 150 159 432q0 280 -156 408l34 65q266 -206 266 -485q0 -209 -137 -369zM174 -67q135 156 135 362q0 275 -254 472l-26 -49q77 -63 115 -164.5t38 -246.5q0 -286 -155 -432l31 -43q36 25 65 50t51 51zM167 -60q-44 -52 -106 -95
l-21 28q151 142 151 434t-150 414l16 31q243 -188 243 -457q0 -201 -133 -355z" />
    <glyph glyph-name="asterisk" unicode="*" horiz-adv-x="469" 
d="M464 469l-102 -48q-14 17 -35.5 34.5t-50.5 35.5q2 -12 5 -21.5t5 -15.5q5 -17 13.5 -34t19.5 -34l-79 -79l-76 79q14 23 24 49.5t18 57.5q-26 -14 -48 -32.5t-40 -39.5l-101 48l53 100q39 -13 75 -13q16 0 39 3q-11 9 -20.5 16.5t-17.5 14.5q-8 6 -23 13t-35 17l15 109
l112 -20q1 -48 25 -108q25 58 26 108l111 20l17 -110q-21 -8 -37 -15.5t-24 -13.5q-10 -7 -18.5 -15t-18.5 -16q24 -3 43 -3q38 0 72 14zM407 559q-14 -7 -31 -9.5t-37 -2.5q-13 0 -29 1.5t-35 3.5q14 14 26.5 24.5t26.5 20.5q18 14 56 28l-15 93l-93 -16q-1 -29 -10 -59.5
t-26 -63.5q-33 69 -34 123l-94 16l-14 -93q41 -19 53 -27q11 -8 24.5 -20t29.5 -26q-17 -3 -32 -4t-28 -1q-38 0 -70 11l-45 -84l86 -41q36 42 95 73q3 2 9 4q-13 -75 -44 -124l64 -66l67 66q-8 14 -16 30t-15 35q-4 12 -12 58q36 -22 61 -40.5t39 -35.5l88 41zM439 478
l-72 -34q-27 34 -116 84q9 -56 17 -80q12 -37 28 -60l-56 -55l-53 55q31 50 45 140q-5 -3 -26 -14q-60 -32 -92 -70l-71 34l37 69q28 -9 65 -9q34 0 80 9q-43 40 -68 58q-16 11 -49 26l11 76l78 -13q2 -51 43 -136q43 78 45 136l77 13l11 -76q-32 -12 -51 -27
q-32 -23 -66 -57q51 -9 83 -9q42 0 64 9z" />
    <glyph glyph-name="plus" unicode="+" horiz-adv-x="623" 
d="M601 264h-211v-209h-121v209h-209v121h209v211h121v-211h211v-121zM591 376h-210v211h-103v-211h-209v-103h209v-209h103v209h210v103zM582 282h-210v-208h-84v208h-210v85h210v210h84v-210h210v-85z" />
    <glyph glyph-name="comma" unicode="," horiz-adv-x="188" 
d="M178 142q0 -24 -19 -106q-5 -24 -12.5 -48.5t-15.5 -50.5q-31 -53 -76 -53l-12 1l-17 14v24h31l-15 17q-5 0 -6 18t4 54v-1q0 5 2.5 26t7.5 59q13 47 66 71q26 13 32 13q30 0 30 -38zM170 142q0 29 -22 29q-7 0 -29 -12q-53 -24 -61 -59q-5 -40 -7.5 -61.5t-2.5 -27.5
q-12 -80 -6 -80l7 -8h-15v-20l11 -10h10q42 0 69 49q9 26 16 50t12 47q18 79 18 103zM162 142q0 -21 -18 -101q-9 -44 -28 -97q-25 -43 -60 -43l-8 1l-6 5v16q0 -8 14 87q0 1 10 85q8 34 56 57q21 10 26 10q14 0 14 -20z" />
    <glyph glyph-name="hyphen" unicode="-" horiz-adv-x="229" 
d="M235 279q0 -34 -33 -59q-32 -23 -70 -23q-86 0 -107 21v19q0 30 46 72h141q23 0 23 -30zM227 279q0 22 -15 22h-137q-41 -35 -41 -64v-15q18 -18 98 -18q36 0 65 21h-1q31 22 31 54zM218 279q0 -28 -27 -48t-59 -20q-77 0 -90 14v12q0 25 36 57h134q6 0 6 -15z" />
    <glyph glyph-name="hyphen" unicode="&#x2010;" horiz-adv-x="229" 
d="M235 279q0 -34 -33 -59q-32 -23 -70 -23q-86 0 -107 21v19q0 30 46 72h141q23 0 23 -30zM227 279q0 22 -15 22h-137q-41 -35 -41 -64v-15q18 -18 98 -18q36 0 65 21h-1q31 22 31 54zM218 279q0 -28 -27 -48t-59 -20q-77 0 -90 14v12q0 25 36 57h134q6 0 6 -15z" />
    <glyph glyph-name="period" unicode="." horiz-adv-x="201" 
d="M201 88q0 -24 -33 -53h1l-38 -35q-39 0 -74 41q-22 26 -22 44q0 22 31 50q32 27 52 27q28 0 54 -23v1q29 -24 29 -52zM193 88q0 25 -26 45q-24 21 -49 21q-19 0 -47 -26q-27 -24 -27 -43q0 -16 19 -38q31 -39 64 -39l37 34q29 26 29 46zM185 88q0 -15 -27 -41l-34 -31
q-26 0 -55 35q-17 22 -17 34q0 15 25 38t41 23q21 0 44 -19t23 -39z" />
    <glyph glyph-name="slash" unicode="/" horiz-adv-x="522" 
d="M114 -36h-114l443 724h116zM541 679h-92l-431 -706h91zM104 -17h-71l421 686h71z" />
    <glyph glyph-name="zero" unicode="0" horiz-adv-x="511" 
d="M351 319q0 172 -72 223v-1l-17 11h-72q-6 -11 -8 -48t-2 -101q0 -225 126 -225q26 0 28 2q17 7 17 139zM512 405q0 -82 -40 -180q-20 -51 -45 -88t-55 -63l-38 -45q-28 -29 -64 -29q-261 0 -261 313q0 64 15.5 123.5t44.5 116.5q29 54 70.5 100t95.5 88q161 0 225 -97
q27 -39 39.5 -99t12.5 -140zM503 405q0 158 -50 234q-63 93 -214 93q-52 -41 -92 -85.5t-69 -98.5q-59 -108 -59 -235q0 -304 251 -304q31 0 58 27l39 45l-2 -1q58 51 99 149q39 93 39 176zM360 319q0 -138 -21 -147q-8 -3 -33 -3q-136 0 -136 234q0 137 14 159h78
q4 0 21 -13q77 -54 77 -230zM494 405q0 -81 -38 -173q-39 -94 -97 -145l-38 -44q-24 -24 -51 -24q-242 0 -242 294q0 122 58 231q56 103 156 178q144 0 204 -88q48 -73 48 -229zM370 319q0 181 -81 238q-20 14 -27 14h-80q-21 -15 -21 -168q0 -244 145 -244q28 0 37 4
q27 12 27 156z" />
    <glyph glyph-name="one" unicode="1" horiz-adv-x="309" 
d="M296 71q-18 -19 -86 -36q-5 -2 -17.5 -6t-32.5 -14q-38 -16 -60 -16l-23 8l-12 23q2 25 19 57h-1q13 25 15 37q6 63 9.5 162t3.5 238q0 10 -0.5 17t-0.5 12q-3 -2 -6.5 -3.5t-6.5 -3.5q-11 -9 -21.5 -13.5t-18.5 -5.5l-22 12q-26 34 -26 73l1 12q4 13 101 51q45 19 74 34
t43 28l21 2l29 -14l5 -30q0 -15 -1 -32t-3 -40q-2 -22 -3.5 -38t-1.5 -25l-4 -421l2 -5q27 -27 27 -45zM290 90q0 15 -27 38l-2 8l4 424q0 10 1.5 26t3.5 38q2 23 3 39.5t1 30.5l-4 25l-23 11l-14 -1q-15 -13 -44.5 -28.5t-75.5 -34.5h1q-92 -38 -96 -46v-9q0 -36 22 -64
l19 -9q6 1 15 4.5t18 10.5q14 11 21 11h3q4 -8 4 -40q0 -139 -3.5 -238.5t-10.5 -162.5q-1 -6 -4 -16t-11 -24q-14 -27 -16 -52l8 -18l16 -4q10 0 24 3.5t33 12.5l32.5 13t19.5 7q67 16 80 31zM281 92l-2 -12q-10 -12 -72 -26q-13 -3 -54 -21q-35 -15 -51 -15l-12 4l-7 12
q2 16 16 44t16 44q13 125 13 402q0 39 -6 47l-8 4q-9 -1 -27 -14t-27 -14l-14 8q-20 25 -20 55l1 9q2 2 90 38q92 38 119 62l10 1l16 -8l3 -20q0 -23 -4 -66.5t-4 -65.5l-5 -424l5 -14q24 -21 24 -30z" />
    <glyph glyph-name="two" unicode="2" horiz-adv-x="462" 
d="M475 181q0 -14 -50 -92q-23 -39 -38.5 -60.5t-19.5 -24.5l-22 -4q-15 0 -36.5 1.5t-47.5 5.5q-26 3 -45 5t-31 2h-53q-10 0 -91 -15l-25 16l-7 28q0 15 66 102q171 232 171 341q0 26 -13.5 42.5t-37.5 16.5q-22 0 -52 -9q-7 -2 -14 -3.5t-12 -2.5h1q-14 -5 -23.5 -7.5
t-14.5 -3.5l-30 14l-5 30q0 31 33 88q35 59 65 70q20 -7 30.5 -9.5t11.5 -2.5q56 0 94 -5t61 -15q79 -35 79 -144q0 -76 -53 -164q-12 -20 -36.5 -53t-61.5 -80q-34 -41 -42 -58q32 -2 58 -3.5t47 -1.5h47l23 19q17 13 42 16l28 -13zM462 201l-21 9q-20 -2 -35 -14l-26 -21
h-49q-23 0 -52.5 2t-65.5 5v1q3 16 49 72q34 44 57.5 76.5t37.5 55.5q53 88 53 158q0 103 -74 135q-41 19 -151 19q1 0 -39 12q-26 -8 -60 -65q-32 -52 -32 -81l4 -25l23 -11q11 2 34 9h-1q6 2 12.5 3.5t13.5 3.5q33 9 55 9q29 0 44.5 -19t15.5 -49q0 -113 -173 -347
q-64 -87 -64 -97l5 -19l20 -14q82 15 89 15h53q13 0 32 -2t45 -6t47 -5.5t35 -1.5l18 3q3 2 17.5 23t37.5 60q24 40 36.5 60.5t12.5 24.5zM457 178q0 -4 -46.5 -78.5t-51.5 -77.5l-16 -3q-27 0 -79 7t-79 7h-53q-11 0 -88 -14l-13 8l-3 17q0 6 61 90q175 236 175 352
q0 34 -18.5 56t-50.5 22q-25 0 -58 -10q-46 -13 -55 -15l-16 8l-2 19q0 22 30.5 75t50.5 60q38 -11 40 -11q106 0 147 -18q69 -30 69 -127q0 -68 -51 -154q-25 -41 -96 -130q-50 -64 -50 -81l3 -7q75 -7 124 -7h53l28 23q13 11 28 12l14 -7z" />
    <glyph glyph-name="three" unicode="3" horiz-adv-x="444" 
d="M435 246q0 -77 -81 -164q-80 -85 -155 -85h-69q-32 0 -72 23l1 -1q-50 26 -50 65q0 12 69 153l31 14l21 -2l14 -18q0 -73 92 -73q14 0 36 5q8 2 14 4t9 4l2 5q0 52 -22 80q-16 20 -62 51h-76q-15 22 -15 34v2q1 7 4 14.5t7 16.5q22 16 64 36q20 8 33 15.5t21 14.5
q22 18 22 44q0 30 -28 49q-14 8 -30 12t-36 4q-8 0 -19 -2.5t-27 -7.5h1q-36 -11 -54 -11q-38 0 -38 40q0 27 30 86q32 60 62 74l39 -11q113 0 145 -9q94 -24 94 -125q0 -26 -2 -45.5t-7 -33.5q-6 -17 -26 -46q-8 -9 -12 -16.5t-7 -12.5l48 -38q29 -29 29 -67v-78zM426 324
q0 34 -30 63l-47 36l-2 6q5 9 22 35q22 31 26 44h-1q9 27 9 75q0 93 -88 117q-14 3 -49 5t-92 2l-38 12q-25 -12 -56 -70q-29 -54 -29 -81q0 -30 29 -30q9 0 22 2.5t30 7.5q31 10 47 10q39 0 71 -18q32 -19 32 -56q0 -30 -24 -51q-17 -16 -57 -32q-22 -10 -37 -18.5
t-24 -14.5q-8 -17 -9 -24v-3q0 -9 11 -24h76q48 -33 64 -55q24 -31 24 -86v2l-3 -13q-6 -5 -29 -10q-23 -6 -38 -6q-101 0 -101 80l-9 12l-15 1l-27 -13q-66 -135 -66 -145q0 -31 44 -57q34 -20 68 -20h69q72 0 148 82q39 42 59 80.5t20 76.5v78zM417 246q0 -70 -75.5 -150
t-142.5 -80h-69q-29 0 -63 20q-40 22 -40 48q0 7 64 139l21 9l9 -1l5 -6q0 -86 110 -86q16 0 40 6q28 7 36 15l3 16q0 57 -25 91q-18 24 -71 59h-73q-6 10 -6 15q1 5 7 20q17 13 58 31.5t58 33.5q29 24 29 58q0 42 -38 65q-31 19 -75 19q-16 0 -49.5 -10.5t-49.5 -10.5
q-20 0 -20 21q0 23 28.5 77t47.5 63l35 -10q114 0 143 -8q80 -22 80 -107q0 -47 -8 -72q-5 -14 -24 -41t-25 -41l6 -12l47 -38q27 -25 27 -55v-78z" />
    <glyph glyph-name="four" unicode="4" horiz-adv-x="490" 
d="M220 454v15t-1 22q-5 -11 -10.5 -23.5t-12.5 -28.5h1q-16 -40 -24.5 -64t-9.5 -32h57q-6 2 -3 17q2 12 2.5 21t0.5 17v56zM512 332q0 -19 -30 -77v1q-30 -58 -42 -67q-15 -12 -46 -12h-11q-6 -30 -6 -37q0 -2 14 -19v1q24 -26 24 -43v-12q-4 -11 -28 -19.5t-72 -22.5
q-44 -13 -71 -19t-38 -6l-26 27q0 24 16 62q15 36 15 56l-1 44q-9 -1 -20.5 -1.5t-28.5 -2.5q-20 -2 -34.5 -3t-25.5 -1q-93 0 -93 46q0 25 42 81l-1 -2q15 25 45 119q15 45 24.5 77.5t13.5 52.5v-1q2 23 11 69q12 61 40 69q4 0 21.5 4t47.5 10q37 6 61 20q21 12 46 12
l30 -12l6 -28q0 -31 -6 -82q-2 -26 -3.5 -45t-1.5 -30v-198h41q12 11 27 17t35 7l23 -12zM500 349l-15 9q-19 -1 -32 -7.5t-24 -16.5h-54v4v203q0 12 1.5 31t3.5 45q3 26 4 45.5t1 33.5l-4 23l-22 10q-25 0 -41 -11q-13 -7 -28.5 -12.5t-35.5 -9.5q-30 -5 -47 -8.5t-21 -4.5
q-24 -6 -34 -62q-5 -23 -7 -40.5t-4 -28.5v1q-9 -45 -37 -131q-30 -91 -47 -120v1q-39 -53 -39 -76q0 -36 83 -36q20 0 59 3q18 2 32 3t23 1l5 -4v-49q0 -23 -14 -60q-17 -40 -17 -55l20 -21q21 0 104 24q45 13 67.5 21t25.5 16v9q0 12 -22 37q-16 19 -16 24q0 7 6 45v1l1 1
h19q26 0 41 9q12 10 38 64q16 28 23 46t7 24zM230 398q0 -18 -4 -38l-4 -26h-70q2 0 2 7q0 9 8.5 34.5t25.5 67.5q24 58 37 83q0 -2 0.5 -4t0.5 -4q0 -5 0.5 -9t0.5 -8q3 -32 3 -47v-56zM494 329q0 -10 -28.5 -64t-36.5 -61q-16 -11 -57 -7l-6 -6q-7 -41 -7 -51
q0 -9 19 -30.5t19 -30.5v-9q-2 -4 -86 -27.5t-98 -23.5l-15 15q0 9 16 47.5t16 63.5l-1 52l-10 11q-20 0 -59.5 -4t-58.5 -4q-74 0 -74 27q0 19 38 70q17 28 47.5 122t37.5 132q3 23 11 68q10 51 27 54q7 2 68 14q40 7 66 23q17 9 35 9l15 -7l4 -18q0 -25 -5 -76.5t-5 -76.5
v-203q0 -11 6 -14h61q20 22 49 24l10 -6zM239 398v56q0 16 -2.5 48t-2.5 48h-5q-13 -15 -48.5 -102.5t-35.5 -106.5q0 -17 7 -17h70q8 0 13 34q4 22 4 40z" />
    <glyph glyph-name="five" unicode="5" horiz-adv-x="441" 
d="M440 689q-25 -115 -72 -142q-32 -17 -112 -17h-27l-50 1q-1 -5 -1 -11v-15v-11q8 0 16.5 0.5t21.5 2.5q17 2 30 3t23 1q72 0 119 -66q42 -59 42 -132q0 -52 -41 -154q-44 -107 -86 -131q-30 -18 -79 -18h-84q-29 0 -76 28q-55 33 -55 66q0 26 31 82q16 29 31.5 46.5
t30.5 21.5q19 -3 42 -29q11 -13 20.5 -21t15.5 -13q28 -17 55 -17q34 0 54 10q25 12 25 31q0 49 -27 80t-75 31q-16 0 -40.5 -10t-58.5 -29q-28 0 -48 24v18q0 14 4.5 63.5t15.5 137.5q10 85 16 130t8 50l26 17q24 0 63 -12q16 -4 28.5 -6.5t20.5 -2.5q12 0 30 4t43 12
q53 19 83 19l28 -13zM424 711l-22 11q-26 0 -79 -19v1q-53 -18 -76 -18q-13 0 -51 11q-33 10 -58 10l-21 -14q-4 -11 -23 -174q-10 -88 -15 -137t-5 -63v-17q13 -16 36 -16q69 39 102 39q51 0 81 -33t30 -87q0 -27 -29 -39q-23 -11 -59 -11q-35 0 -60 18q-12 8 -39 36
q-20 24 -35 25q-23 -6 -53 -62q-16 -27 -23 -46t-7 -32q0 -27 51 -58q43 -27 71 -27h84q48 0 74 17q20 11 40 42t43 85q20 49 30 86.5t10 63.5q0 71 -40 126q-44 62 -112 62q-10 0 -22.5 -1t-29.5 -3q-33 -3 -49 -3v14v7q0 27 6 36l56 -2h26q80 0 107 17q44 27 68 130z
M422 687q-22 -99 -63 -123q-32 -18 -129 -15l-60 2q-13 -12 -11 -53l1 -19l7 -4q17 0 51 3.5t51 3.5q63 0 104 -58q39 -53 39 -121q0 -50 -40 -147q-42 -101 -78 -122q-27 -15 -70 -15h-84q-25 0 -67 26q-46 26 -46 49q0 21 29 73.5t46 57.5q9 -2 28 -23q25 -27 40 -37
q30 -20 65 -20q36 0 62 12q35 16 35 48q0 58 -32.5 94t-87.5 36q-36 0 -105 -39q-14 0 -24 11v12q0 25 20 199q20 166 21 169l16 11q18 0 53.5 -10.5t53.5 -10.5q27 0 79 17.5t74 17.5l16 -8z" />
    <glyph glyph-name="six" unicode="6" horiz-adv-x="461" 
d="M344 228q0 94 -94 130l-5 2h-55q-9 0 -29 -22q-19 -24 -19 -34q0 -49 43 -89q43 -37 93 -37q38 0 52 9h-1q15 10 15 41zM454 330q0 -118 -51 -212q-64 -118 -176 -118q-119 0 -175 101q-43 81 -43 203q0 60 12.5 118t35.5 115q53 123 143 187q22 14 41 14q29 0 79 -48
q23 -22 37.5 -41t21.5 -38l-8 -29q-18 -2 -33 -5.5t-32 -8.5q-54 -13 -92 -41q-12 -8 -21 -16.5t-14 -18.5q23 14 45 22t44 8q79 0 133 -55q53 -53 53 -137zM445 330q0 78 -50 130q-51 52 -127 52q-54 0 -107 -43q4 36 48 67q18 13 42 23t53 18q19 5 34 8.5t26 5.5l6 19
q-12 29 -56 72q-49 47 -73 47q-17 0 -36 -14q-45 -32 -80 -77t-60 -105q-47 -112 -47 -229q0 -123 42 -198q53 -97 167 -97q106 0 168 113q50 92 50 208zM353 228q0 -38 -18 -50v1q-18 -10 -57 -10q-56 0 -99 40h1q-47 41 -47 95q0 15 21 39q23 26 36 26h56q2 0 6 -2
q101 -39 101 -139zM436 330q0 -113 -49 -203q-59 -108 -160 -108q-109 0 -159 92q-40 73 -40 193q0 116 45 225q50 118 137 179q17 11 31 11q20 0 66 -44q43 -41 53 -65l-3 -10q-18 -3 -55 -14q-60 -16 -98 -42q-54 -37 -54 -89q0 -2 3 -4q62 52 115 52q72 0 120 -49
t48 -124zM362 228q0 108 -106 148q-7 2 -10 2h-56q-18 0 -42 -28t-24 -46q0 -59 49 -103q47 -42 105 -42q43 0 61 12q23 15 23 57z" />
    <glyph glyph-name="seven" unicode="7" horiz-adv-x="411" 
d="M458 689q-10 -40 -48 -105q-42 -70 -51 -94q-44 -117 -44 -151q0 -23 -6 -63v1q-2 -20 -3 -35t-1 -23q0 -14 6 -53q4 -20 6 -35t2 -26q0 -27 -60 -72q-27 -18 -48 -28.5t-37 -11.5l-22 12q-10 15 -15.5 38t-5.5 56q0 72 26.5 166.5t79.5 212.5q8 17 15 32.5t13 28.5
l-34 3h-24h-17q-65 0 -72 -22q0 -2 -1 -7.5t-3 -11.5q-3 -8 -4.5 -13.5t-3.5 -11.5l-29 -13q-10 0 -21.5 4.5t-21.5 12t-17.5 16.5t-8.5 20q4 32 46 114q23 45 40 69t28 27h-1q4 1 8 1.5t9 0.5q11 0 28 -2.5t40 -9.5l-1 1q40 -10 59 -10q11 0 30.5 2.5t45.5 7.5q50 10 83 10
l28 -7zM444 713l-19 5q-16 0 -36.5 -3t-46.5 -8t-45.5 -7.5t-32.5 -2.5q-9 0 -24.5 2.5t-36.5 7.5q-44 12 -65 12q-5 0 -9 -0.5t-7 -3.5q-10 -6 -25 -28.5t-35 -60.5q-21 -42 -32 -68.5t-13 -41.5q3 -17 22 -30t36 -14l24 12q3 9 4.5 14.5l1.5 5.5q2 6 2.5 11.5t1.5 7.5
q11 29 81 29h18q6 -1 12 -1h12l34 -3h14q-7 -12 -15.5 -31t-19.5 -43q-53 -117 -78.5 -210.5t-25.5 -164.5q0 -63 15 -87l19 -9q26 1 79 39q55 39 55 63q0 11 -1.5 25t-5.5 34q-6 39 -6 55q0 9 1 24t3 35q6 39 6 61q0 36 44 154q10 27 51 97q40 65 48 99zM440 689
q-7 -30 -46 -94q-42 -71 -52 -98q-45 -120 -45 -158q0 -20 -5 -60t-5 -60q0 -19 6.5 -57t6.5 -57t-51 -55.5t-72 -37.5l-14 8q-13 18 -13 79q0 140 103 371q37 82 37 77q0 6 -3 11h-21q17 0 -58 3q-95 5 -107 -36q-2 -6 -10 -35l-18 -8q-13 1 -29 11.5t-17 23.5q2 24 44 105
t58 86q1 1 9 1q21 0 63 -10.5t63 -10.5q27 0 79.5 10t78.5 10l14 -3z" />
    <glyph glyph-name="eight" unicode="8" horiz-adv-x="450" 
d="M273 528q0 38 -27 62t-64 24q-27 0 -27 1v-42q0 -22 38 -61q40 -40 59 -40q8 0 14 18q5 10 6 19t1 19zM314 183q0 39 -51 75q-2 2 -14.5 9.5t-30.5 20.5l-5 3h-26q-9 -10 -15 -17t-8 -11v1q-6 -12 -6 -43q0 -7 6.5 -16t20.5 -19q29 -21 45 -21l53 -1h3q28 0 28 19z
M436 240q0 -83 -73 -162t-152 -79q-74 0 -129 29q-73 41 -73 119q0 39 21.5 83t66.5 93q8 10 13 15.5t8 8.5q-20 21 -34 37.5t-22 27.5v-1q-43 55 -43 98q0 91 61 146h-1q16 15 126 82h64q55 0 102 -37q55 -40 55 -99q0 -45 -37 -104q-8 -10 -21.5 -28t-36.5 -44
q6 -13 33 -30q20 -14 31.5 -24.5t16.5 -18.5q24 -38 24 -112zM427 240q0 71 -23 106q-10 16 -45 40q-30 21 -39 39v2q24 27 38.5 45.5t21.5 29.5q37 57 37 99q0 53 -51 91q-47 36 -97 36h-62q-51 -31 -81 -51t-41 -30q-57 -54 -57 -138q0 -37 41 -92q17 -24 62 -69l-27 -30
q-86 -97 -86 -171q0 -72 68 -110q50 -28 125 -28t146 75q70 78 70 156zM323 183q0 -28 -37 -28h-3l-53 1q-23 0 -51 22q-30 24 -30 43q0 17 2 28.5t4 18.5q2 4 9 12.5t19 20.5h34l5 -4q19 -13 31 -21t15 -9q55 -40 55 -84zM283 528q0 -20 -9 -41q-8 -24 -22 -24
q-23 0 -65 43q-42 42 -42 67v43q0 7 37 7q42 0 71.5 -26.5t29.5 -68.5zM418 240q0 -76 -67.5 -149t-139.5 -73q-71 0 -120 28q-64 34 -64 101q0 73 84 164q29 32 29 37v4q-45 47 -63 71q-40 51 -40 86q0 81 54 131q20 18 118 78h60q48 0 91 -33q48 -35 48 -84q0 -40 -35 -94
q-14 -20 -61 -76l-1 -7q9 -21 43.5 -45.5t42.5 -37.5q21 -33 21 -101zM292 528q0 46 -32.5 75.5t-77.5 29.5q-46 0 -46 -17v-43q0 -29 44.5 -74.5t71.5 -45.5q19 0 31 30q9 23 9 45zM332 183q0 50 -59 91q-2 2 -54 36h-40q-26 -27 -32 -39q-7 -15 -7 -50q0 -25 34 -50
q31 -25 56 -25l53 -1q49 -1 49 38z" />
    <glyph glyph-name="nine" unicode="9" horiz-adv-x="473" 
d="M291 435q0 46 -41 91q-39 44 -82 44q-23 0 -31.5 -9.5t-8.5 -33.5q0 -35 30 -79q29 -43 60 -43h23q18 0 34 10q16 8 16 20zM454 411q0 -137 -66 -260q-79 -151 -212 -151q-88 0 -156 73l-4 24q0 16 32 72q14 25 23 40.5t13 20.5l33 13l28 -11l40 -81l-1 2q17 -25 64 -25
q18 0 36 68q8 28 11 51.5t3 43.5l-24 -17q-38 -29 -61 -29h-73q-62 0 -101 79q-30 60 -30 122q0 78 63 182q69 118 145 118q118 0 184 -117q53 -91 53 -218zM445 411q0 122 -51 214q-65 112 -177 112q-70 0 -138 -113q-61 -104 -61 -178q0 -61 29 -119q38 -73 93 -73h73
q19 0 56 28l37 27l1 -9v-8q0 -20 -3.5 -44.5t-11.5 -53.5q-21 -75 -44 -75q-51 0 -72 29l1 -1l-38 77l-22 8l-27 -11q-10 -12 -35 -57q-30 -53 -30 -65l3 -21q64 -69 148 -69q125 0 205 147q64 118 64 255zM300 435q0 -17 -20 -28t-39 -11h-23q-34 0 -68 46q-31 46 -31 85
q0 30 10.5 41.5t38.5 11.5q46 0 90 -48q42 -47 42 -97zM436 411q0 -133 -63 -251q-77 -141 -197 -141q-81 0 -138 63l-4 19q0 7 29 58q27 47 32 55l22 8l15 -6l37 -74q22 -33 79 -33q31 0 53 82q17 65 16 109l-1 22l-3 4l-50 -37q-35 -25 -50 -25h-73q-51 0 -85 68
q-27 56 -27 114q0 73 59 173q65 108 130 108q108 0 168 -107q51 -89 51 -209zM309 435q0 55 -44.5 104.5t-96.5 49.5q-33 0 -45.5 -13.5t-12.5 -48.5q0 -44 33 -90q35 -51 75 -51h23q23 0 43 13q25 14 25 36z" />
    <glyph glyph-name="colon" unicode=":" horiz-adv-x="201" 
d="M201 431q0 -28 -33 -62h1l-38 -40q-40 0 -74 47q-22 29 -22 51q0 26 31 57q30 32 52 32q28 0 54 -27v1q29 -27 29 -59zM201 102q0 -28 -33 -61h1l-38 -41q-39 0 -74 47q-22 31 -22 51q0 27 31 58t52 31q28 0 54 -26q29 -26 29 -59zM193 102q0 29 -26 52q-24 24 -49 24
q-20 0 -47 -30q-27 -27 -27 -50q0 -8 4 -19t15 -25q31 -45 64 -45l37 39q29 32 29 54zM193 431q0 29 -26 52q-26 24 -49 24q-20 0 -47 -30q-27 -27 -27 -50q0 -8 4 -19.5t15 -25.5q32 -44 64 -44l37 39q29 30 29 54zM185 431q0 -18 -27 -48l-34 -36q-26 0 -55 41
q-17 25 -17 39q0 18 25 44t41 26q21 0 44 -21.5t23 -44.5zM185 102q0 -18 -27 -47l-34 -36q-26 0 -55 40q-17 25 -17 39q0 18 25 44.5t41 26.5q21 0 44 -22t23 -45z" />
    <glyph glyph-name="semicolon" unicode=";" horiz-adv-x="203" 
d="M204 437q0 -28 -34 -62h1l-38 -42q-41 0 -75 48q-12 16 -17 29t-5 23q0 27 31 59q32 32 53 32q27 0 55 -28l-1 1q30 -28 30 -60zM184 152q0 -24 -20 -113l-12 -55q-5 -19 -9.5 -32t-8.5 -22q-32 -54 -78 -54l-12 2l-17 14v26h32l-16 18q-5 0 -6 19t5 58v-1q0 5 2.5 27
t6.5 64q14 50 68 76q28 13 34 13q31 0 31 -40zM175 152q0 31 -22 31q-8 0 -31 -13q-54 -26 -62 -64q-5 -45 -7.5 -68t-2.5 -28v2q-12 -85 -7 -85l8 -9h-16v-22l11 -10l11 -1q42 0 69 51q6 10 10 22t8 28l13 54q18 84 18 112zM196 437q0 29 -27 53q-24 24 -49 24
q-20 0 -48 -30q-28 -29 -28 -51q0 -18 20 -45q31 -45 65 -45l37 39q30 33 30 55zM188 437q0 -18 -28 -48l-34 -37q-26 0 -56 42q-18 25 -18 39q0 18 26 45t42 27q20 0 44 -22t24 -46zM167 152q0 -25 -19 -109l-12 -54q-7 -32 -16 -48q-26 -46 -62 -46h-8l-7 6v17q0 -8 15 92
q0 1 10 92q9 36 58 60q22 11 27 11q14 0 14 -21z" />
    <glyph glyph-name="less" unicode="&#x3c;" horiz-adv-x="831" 
d="M560 516q6 7 15 18t20 27l15 5q-2 7 -4.5 15t-4.5 18l-8 7l-28 3q-2 0 -3 -19q-1 -8 -1.5 -21.5t-0.5 -33.5v-19zM468 18l-6 -2t-7 -2q15 -6 24 -6q110 0 143 89q21 57 21 197q0 107 -52 107q-38 0 -38 -92q0 -241 -17 -266q-8 -6 -25 -11.5t-43 -13.5zM381 409
q-1 3 -1 7q0 5 -1 10q-4 -5 -8 -11.5t-8 -13.5q-36 -57 -69 -57q-23 0 -34 29q-4 10 -8 16.5t-6 9.5q-11 11 -31 11q2 -1 -1 -14q-6 -20 -6 -32v-68q0 -70 14 -93q17 -29 75 -29q10 0 38 11l-1 -1q12 5 22 8t18 5q3 15 3 73v20q0 12 1 26v-1q0 5 0.5 11t0.5 11q0 6 0.5 11
t0.5 10q1 16 1 27v20v4zM826 333q0 -89 -12 -140q-16 -72 -67 -127q-5 -5 -24.5 -24t-52.5 -51q-7 -6 -13.5 -13t-14.5 -15q-23 -23 -42 -39.5t-33 -27.5q-53 -41 -98 -41h-14q-57 51 -81 130q-2 4 -2 8v5q0 14 5 20q-8 16 -9 60l-2 -2q-8 -13 -14 -22t-9 -14v-4
q-37 -32 -107 -32q-200 0 -200 241q0 63 4 101.5t11 55.5q6 14 29.5 38t66.5 59q87 75 110 75q40 0 81 -23q12 -8 22 -13t18 -10q5 32 22 68t48 77q78 102 155 102q53 0 95 -18q59 -26 62 -85q-10 -26 -46 -70q-9 -11 -17 -19.5t-16 -16.5q71 -12 108 -62q37 -53 37 -171z
M817 333q0 113 -36 166q-35 52 -120 61q10 8 21.5 20t24.5 29q32 38 44 66q-3 49 -57 73q-41 18 -91 18q-74 0 -147 -99q-66 -87 -70 -152q-8 3 -21 10t-32 18t-37.5 16t-38.5 5q-22 0 -105 -71h1q-42 -35 -64.5 -59t-28.5 -35q-8 -15 -11 -53.5t-3 -100.5q0 -232 190 -232
q34 0 57.5 7t39.5 21q0 3 2 5q4 5 9.5 14t13.5 21q7 13 12 20t7 9q0 -82 9 -93l3 -1q-7 -4 -7 -18q0 -5 2 -10h-1q24 -77 74 -123h12q40 0 93 39q11 9 29 25.5t44 40.5l15 15l14 14q66 63 77 74q49 54 64 122q12 48 12 138zM390 405v-20q0 -11 -1 -27q0 -5 -0.5 -10
t-0.5 -11q0 -5 -0.5 -11t-0.5 -11q-1 -14 -1 -25v-20q0 -34 -1 -54.5t-4 -26.5q-8 -1 -18.5 -4.5t-24.5 -9.5q-14 -5 -24 -7.5t-17 -2.5q-64 0 -83 33q-7 14 -11 38.5t-4 59.5v68q0 15 6 35q5 21 10 21q26 0 38 -15q5 -4 15 -28q10 -23 26 -23q26 0 60 52q10 17 18 29.5
t15 19.5q1 -33 3 -45v-5zM466 27q47 12 63 23q14 18 14 259q0 101 48 101q62 0 62 -116q0 -72 -5.5 -121.5t-16.5 -78.5q-36 -96 -152 -96q-6 0 -13.5 3t-19.5 8l-10 4l-10 4q8 2 18 4t22 6zM551 494q-1 7 -1 17v24q0 20 0.5 34t1.5 22q3 28 13 28h2l31 -5l9 -8
q9 -33 16 -45l-23 -9q-33 -46 -49 -58zM807 333q0 -88 -11 -136q-16 -68 -62 -117q-12 -13 -106 -103q-50 -48 -72 -65q-49 -38 -87 -38h-7q-47 42 -70 116q-6 21 15 21q13 0 36 -11.5t36 -11.5q122 0 161 102q22 59 22 204q0 126 -71 126q-57 0 -57 -111q0 -237 -11 -252
q-11 -7 -59.5 -20.5t-60.5 -13.5l-12 3q-5 5 -5 91q-1 4 -7 4q-7 0 -29 -35q-24 -38 -26 -41q-24 -22 -88 -22q-181 0 -181 222q0 121 14 150q9 21 90 90.5t98 69.5q36 0 71 -20q49 -28 63 -33q3 -1 5 4q0 66 68 155q71 95 139 95q50 0 87 -16q49 -21 51 -64
q-8 -21 -41.5 -61.5t-51.5 -52.5l-18 4q-3 3 -13 45l-15 13l-34 5q-21 3 -25 -37q-2 -15 -2 -57q0 -40 3 -53l3 -1q17 6 59 63l20 8q107 0 148 -58q33 -49 33 -161zM400 405q0 -3 -4 69l-1 1q-14 -8 -49 -64q-29 -48 -52 -48q-9 0 -17 17q-10 24 -17 32q-15 17 -45 17
q-11 0 -19 -27q-7 -23 -7 -38v-68q0 -75 17 -102q21 -39 91 -39q16 0 45 12t44 13q10 10 10 90q0 23 2 67.5t2 67.5z" />
    <glyph glyph-name="equal" unicode="=" horiz-adv-x="636" 
d="M629 122h-585v115h585v-115zM629 250h-585v116h585v-116zM620 357h-567v-98h567v98zM620 229h-567v-98h567v98zM610 267h-547v82h547v-82zM610 139h-547v81h547v-81z" />
    <glyph glyph-name="greater" unicode="&#x3e;" horiz-adv-x="795" 
d="M373 185v0q1 0 1 1zM600 371q0 2 -8 6q-15 9 -22 9q-9 0 -15 -13q-10 -17 -10 -34v-14t1 -11q6 5 12 11l14 14q28 29 28 32zM376 367q1 9 1 15v10v27q-10 -15 -19 -30q-40 -58 -82 -58l-18 11q-4 21 -15 36t-28 18l-3 -2l-7 -35v-129q0 -32 23 -49q24 -18 59 -18
q9 0 21 1.5t28 6.5q26 6 34 12q0 40 1.5 66.5t6.5 40.5l-4 -6v12v17q0 10 1 20v5q0 8 0.5 15.5t0.5 13.5zM818 135q0 -20 -43 -78q-20 -28 -35.5 -44.5t-25.5 -22.5q-58 0 -84 13q-41 21 -41 80v13t1 16q0 8 0.5 15t0.5 12q0 48 -18 64h-26q-11 -12 -11 -53q0 -13 3 -46v1
q3 -32 3 -57l-23 -31q-21 -8 -43.5 -12t-45.5 -4q-20 0 -36.5 2.5t-30.5 6.5l-11 29q-5 -8 -9.5 -15.5t-9.5 -16.5q-46 -17 -57 -17h-83q-159 0 -159 299q0 80 69 163q63 77 142 102l-2 -1q4 2 8 2.5t9 0.5q49 0 115 -41q0 2 -0.5 3.5t-0.5 3.5v11q0 17 8 33q32 34 68 73
t76 84l-2 -2q2 3 7.5 9t14.5 17q25 18 55 18q26 0 51.5 -2.5t51.5 -9.5h-1q84 -18 84 -65q0 -55 -101 -146l-19 -3l-27 20q-4 44 -46 44q-11 0 -28 -5l-10 -13l-3 -28v-54q5 6 8.5 11t7.5 10q25 28 56 28q28 0 78 -42q38 -33 65 -66q-5 -19 -26 -46.5t-59 -65.5
q15 -10 33 -23q38 -38 38 -119v-16q0 -6 1 -10l36 6l23 -13zM806 151l-17 10l-38 -8l-4 2q-3 9 -3 35q0 79 -33 111q-27 19 -42 30q80 79 88 109q-32 39 -60 63q-44 39 -72 39q-25 0 -53 -29q-7 -9 -13 -17t-14 -16l-2 4v74l3 31l14 18q9 2 17 3.5t17 1.5q49 0 56 -47
l19 -16l13 2q95 85 95 137q0 39 -76 57q-50 11 -100 11q-26 0 -49 -16q-8 -8 -12 -13.5t-7 -10.5l1 1q-41 -45 -77 -84t-68 -74q-6 -10 -6 -26v-10q3 -26 3 -29v-16l-7 23q-70 46 -119 46q-9 0 -13 -2l1 1q-76 -24 -139 -101q-65 -77 -65 -156q0 -289 149 -289h83q3 0 16 4
t36 12q15 26 26 43t17 25q-4 -12 -10 -37l11 -31q16 -6 58 -6t85 16l18 25q0 10 -1 23t-3 29q-3 33 -3 47q0 48 17 63h32q25 -16 25 -74q0 -5 -0.5 -12.5t-0.5 -15.5q-1 -8 -1 -16v-12q0 -53 36 -72q22 -11 78 -11q8 5 22 20t34 43t30.5 45.5t10.5 25.5zM385 366
q0 -6 -0.5 -13t-0.5 -15v-5q-1 -10 -1 -20v-17v-12l3 4q-6 -20 -6 -109q-10 -9 -41 -16q-33 -10 -52 -10q-38 0 -64 20q-28 22 -28 57v128l10 41l7 7q22 -2 37 -18.5t18 -39.5l12 -8q35 0 71 54q14 20 23 37.5t13 32.5v-72v-11q0 -6 -1 -15zM610 371q0 -4 -32 -38
q-12 -13 -21.5 -22.5t-16.5 -14.5q-4 12 -4 43q0 20 11 39q10 18 23 18q8 0 27 -11q13 -9 13 -14zM799 132q0 -11 -39 -63.5t-51 -58.5q-51 0 -71 10q-30 16 -30 63q0 9 1 27.5t1 28.5q0 65 -32 84h-38q-23 -18 -23 -73q0 -16 3 -48t3 -48l-15 -21q-36 -13 -78 -13
q-37 0 -51 5l-8 21q10 37 11 39q0 13 -6 15q-13 -6 -55 -77q-37 -13 -45 -13h-83q-140 0 -140 279q0 75 64 150q60 73 134 97q3 1 9 1q46 0 111 -42l8 -21q-6 -31 -36 -75q-35 -49 -61 -49l-6 4q-4 26 -22 44t-45 18l-13 -11l-10 -45v-130q0 -41 31 -65q28 -21 70 -21
q20 0 55 9q39 11 47 22q0 107 4 109q-1 20 1 54q2 40 2 54v102q0 4 -3 30q-2 18 4 29q64 69 143 157q6 9 18 22q20 14 43 14q50 0 98 -11q69 -16 69 -47q0 -47 -90 -128l-6 -1l-14 11q-6 52 -64 52q-18 0 -39 -8l-17 -22l-4 -33v-78l10 -17q18 21 35 43q25 26 46 26
q23 0 66 -38q31 -27 56 -57q-7 -25 -93 -109q18 -11 51 -35q30 -31 30 -104q0 -34 4 -42l12 -4l36 6l10 -5zM619 371q0 12 -18 23t-31 11q-19 0 -31.5 -22.5t-12.5 -43.5q0 -40 11 -55h3q15 11 45 42q34 35 34 45z" />
    <glyph glyph-name="question" unicode="?" horiz-adv-x="294" 
d="M284 104q0 -26 -36 -62l-41 -42q-45 0 -82 48q-24 30 -24 53q0 26 34 59l3 2q-35 3 -59 47v-1q-22 35 -22 70q0 40 32 81q8 10 18.5 24t23.5 31l12 16t14 17q17 25 26.5 47.5t9.5 44.5t-16 38.5t-37 18.5h-2q-22 0 -60 -32l1 2q1 1 -4.5 -4t-9.5 -8q-3 -2 -10.5 -8.5
t-16 -14.5t-17 -15.5t-12.5 -11.5l-5 213q40 39 126 39q74 0 126 -40q63 -48 63 -125q0 -48 -24 -88v-1q-5 -8 -11.5 -19t-14.5 -23v1q-8 -12 -16 -25.5t-18 -29.5q-34 -53 -34 -94q0 -9 85 -22q-32 -62 -71 -85q-5 -3 -10.5 -6t-11.5 -7q14 -2 41 -27q-2 3 4 -2.5t10 -7.5
q3 -3 6 -5.5t6 -5.5q24 -21 24 -40zM288 508q22 37 22 83q0 73 -59 118q-26 18 -56 28t-65 10q-83 0 -118 -34l6 -189q4 4 10 9.5l12 11t11 10t8 6.5q5 4 10.5 9t3.5 3q37 33 65 33h3q24 -3 42 -22t18 -45q0 -47 -37 -97q-8 -10 -14 -18.5t-12 -16.5q-27 -33 -42 -54
q-30 -41 -30 -75q0 -31 21 -65l-1 1q24 -42 57 -42h3q18 12 34.5 22.5t29.5 18.5q19 11 34.5 28t27.5 41q-80 13 -80 30q0 45 35 99q10 16 18.5 29.5t16.5 24.5q8 13 14 23.5t11 18.5zM275 104q0 12 -21 33q2 -2 -3.5 2.5t-8.5 7.5q-3 2 -8 7l-5 5q-27 23 -36 23
q-22 0 -53 -30q-30 -30 -30 -51q0 -19 21 -46q35 -46 71 -46l40 40q33 33 33 55zM266 104q0 -18 -30 -48l-37 -37q-29 0 -61 42q-19 25 -19 40q0 18 28 45t46 27q6 0 31 -23q13 -10 25 -21q17 -16 17 -25zM280 513l-60 -96q-37 -59 -37 -105q0 -24 75 -38q-17 -32 -52 -53
q-25 -15 -61 -40q-28 -1 -51 37q-19 32 -19 60q0 32 28 70q23 29 68 88q39 54 39 103q0 29 -20.5 51.5t-47.5 24.5q-31 3 -75 -36q-10 -8 -41 -35l-5 165q30 28 109 28q68 0 116 -36q55 -41 55 -110q0 -42 -21 -78z" />
    <glyph glyph-name="at" unicode="@" horiz-adv-x="904" 
d="M470 168q11 14 35 41v189q0 -2 -16 3l-40 6h2q1 0 -4 1.5t-9 2.5q-5 2 -9 3l-4 1q-11 0 -16 -22v1q-1 -5 -1.5 -18.5t-0.5 -36.5v-80q0 -91 51 -91h1q1 0 3.5 -0.5t7.5 0.5zM921 172q-71 -171 -181 -250q-113 -82 -268 -82q-192 0 -316 123q-123 121 -123 313
q0 204 136 337t342 133q79 0 142 -22.5t113 -67.5q53 -47 78.5 -110t25.5 -141q0 -65 -14 -125.5t-42 -120.5q-73 -149 -198 -149q-44 0 -63 15q-8 5 -13.5 14.5t-13.5 21.5q-4 8 -7 13.5t-6 10.5q-7 -6 -16 -16t-23 -24v1q-36 -40 -83 -40q-86 0 -128 73q-32 58 -32 143
q0 78 15 194q20 20 48 42.5t66 45.5q16 8 32 20q21 13 44 26.5t44 27.5q43 0 109 -19q38 -10 63.5 -16.5t45.5 -10.5q2 -5 3.5 -10t3.5 -8q2 -4 3 -8t1 -13q-39 -59 -39 -157v-93q0 -35 6 -51q5 -1 12 -1h15q63 40 79 80h-1q8 18 12 49t4 76q0 123 -78 198q-74 74 -199 74
q-167 0 -281 -119q-109 -118 -109 -289q0 -152 95 -249q96 -97 247 -97q124 0 222 67q97 65 146 191h81zM847 163q-45 -121 -148 -191q-99 -68 -227 -68q-154 0 -254 100q-97 98 -97 256q0 176 110 295q117 123 289 123q126 0 206 -78q80 -76 80 -204q0 -93 -15 -129
q-9 -23 -30.5 -44t-53.5 -42q-25 0 -38 3q-8 16 -8 59v93q0 104 38 161q0 7 -4 14q-2 5 -4 13q-9 2 -34 8.5t-70 18.5q-66 17 -103 17q-21 -13 -43 -26.5t-43 -26.5l-16 -10t-17 -10q-37 -23 -65 -44t-46 -41q-6 -54 -9.5 -100.5t-3.5 -87.5q0 -84 30 -138q39 -69 120 -69
q42 0 76 37q17 17 28.5 29.5t19.5 17.5q5 -6 9.5 -14.5t10.5 -19.5q5 -11 11 -19.5t13 -12.5q17 -14 57 -14q119 0 189 145q56 113 56 241q0 153 -101 243q-95 88 -249 88q-202 0 -335 -130q-134 -131 -134 -330q0 -187 121 -307q122 -119 309 -119q150 0 263 80
q109 79 172 233h-60zM473 158h-14h-1q-60 0 -60 101v80q0 23 0.5 37.5t1.5 19.5v-1q6 29 24 29q-1 -1 5 -2t11 -3l11 -2h-1q10 -2 20 -3t21 -3q24 -6 24 -13v-193q-14 -15 -24 -26.5t-18 -20.5zM892 153q-57 -139 -163 -215q-110 -79 -257 -79q-184 0 -302 116.5t-118 300.5
q0 196 131 323.5t328 127.5q150 0 243 -85q97 -88 97 -237q0 -124 -54 -237q-68 -139 -181 -139q-35 0 -52 11q-9 8 -21 30q-12 27 -27 41q-15 -8 -56 -53q-30 -33 -69 -33q-75 0 -112 64q-28 52 -28 133q0 77 13 184q34 37 106 81q59 36 116 71q34 0 98 -17q85 -23 100 -26
q6 -15 6 -16q-39 -58 -39 -163v-93q0 -48 13 -68q15 -4 45 -4q71 44 91 92q16 39 16 133q0 131 -83 211.5t-213 80.5q-178 0 -295 -126q-114 -122 -114 -302q0 -161 100.5 -263t260.5 -102q130 0 233 69.5t148 188.5h39zM524 201v197q0 16 -31 22l-42 6q-3 1 -12.5 4.5
t-13.5 3.5q-28 0 -35 -38q-2 -10 -2 -57v-80q0 -111 71 -111q-5 0 20 1q15 19 45 52z" />
    <glyph glyph-name="A" unicode="A" horiz-adv-x="723" 
d="M722 141q0 -11 -13 -32.5t-40 -50.5v1q-53 -60 -76 -60q-53 0 -81 44q-6 8 -12.5 25.5t-15.5 45.5l-4 10t-4 11q-51 -105 -113 -136q-33 4 -117 30q-32 11 -58.5 15.5t-49.5 4.5q-18 0 -31.5 2t-23.5 7l-11 26q2 6 18 25t46 50q150 151 150 309q0 124 -103 124h-11
q1 -14 21 -34q35 -30 43 -49q-5 -14 -18 -31.5t-35 -41.5q-48 -51 -66 -51q-49 0 -85 57q-31 49 -31 95q0 30 93 126q91 95 122 95q85 0 159 -38q96 -50 96 -136q0 -105 -44 -198q-26 -53 -81 -121q-15 -17 -25 -31t-15 -23q39 -22 84 -22q35 0 56 98q7 30 12.5 85.5
t11.5 137.5q5 69 11 113t14 61q5 11 23.5 24.5t49.5 30.5t53.5 26t36.5 11l28 -13l5 -23q0 -58 -32 -168q-29 -104 -29 -154q0 -49 0.5 -81t1.5 -48q6 -85 23 -112l4 -3h50q8 -11 10.5 -18.5t2.5 -14.5zM712 141q0 5 -1.5 11t-6.5 13h-46l-12 6q-18 30 -24 118v-1
q0 16 -0.5 48.5t-0.5 81.5q0 52 30 156q30 105 30 164l-4 19l-19 9q-28 -5 -86 -36q-61 -33 -69 -50q-13 -33 -24 -170q-5 -84 -11 -139.5t-12 -85.5q-23 -105 -66 -105q-58 0 -95 27q2 10 13.5 26t30.5 39q53 65 80 119q42 88 42 193q0 80 -90 127q-70 37 -155 37
q-27 0 -116 -92q-45 -47 -67.5 -76t-22.5 -43q0 -21 8 -43t23 -46h-1q33 -53 77 -53q13 0 58 48q23 24 35 39.5t15 26.5q-3 8 -13 18.5t-24 24.5v-1q-24 18 -25 40v2q0 3 4 9h16q113 0 113 -134q0 -82 -38.5 -160t-114.5 -156q-58 -58 -61 -68l8 -18q13 -7 48 -7
q45 0 111 -21q38 -11 66 -18.5t46 -9.5q63 30 116 148q5 -11 9 -21.5t7 -19.5q8 -25 15 -41.5t12 -27.5q25 -39 73 -39q18 0 68 56q51 57 51 76zM703 141q0 -16 -48 -69.5t-62 -53.5q-43 0 -65 35q-11 15 -26 67q-7 24 -23 54l-8 -5q-51 -121 -111 -150q-28 4 -108 29
q-67 20 -114 20q-32 0 -40 4l-6 13q1 3 58 60q155 157 155 323q0 143 -122 143h-19q-11 -8 -11 -20q3 -26 28 -47q30 -26 35 -36q-5 -13 -47.5 -58.5t-51.5 -45.5q-38 0 -69 49q-28 43 -28 84q0 23 87 112.5t109 89.5q81 0 151 -36q85 -44 85 -119q0 -103 -42 -189
q-25 -53 -78 -117q-45 -55 -48 -74q45 -34 106 -34q52 0 75 113q13 59 24 226q9 137 23 167q6 14 65 45.5t80 34.5l12 -6l3 -14q0 -54 -30.5 -158.5t-30.5 -159.5q0 -98 2 -130q6 -93 27 -124l15 -9h44q4 -6 4 -14z" />
    <glyph glyph-name="B" unicode="B" horiz-adv-x="710" 
d="M287 177q21 12 21 190v30q-2 -12 -3.5 -24t-3.5 -26q-15 -114 -15 -169v0q1 0 1 -1zM443 474q20 3 36 5t30 3l4 3v43q0 18 -30 35q-27 15 -56 15h-16q-2 -2 -2 -7l2 -8q1 -4 1.5 -7.5t0.5 -8.5q0 -11 -1 -27t-3 -36q-2 -16 -2.5 -27.5t-0.5 -21.5zM530 224q0 92 -93 92
q-31 0 -36 -11q-4 -7 -12 -63q-3 -27 -5 -45.5t-2 -27.5q0 -4 13 -4h37q5 0 14 1t25 3q4 0 6 1h-1q20 4 32 6.5t16 4.5l1 1q5 8 5 42zM688 303q0 -29 -3.5 -50t-8.5 -35q-10 -20 -36.5 -51t-71.5 -73q-52 -48 -89.5 -71t-60.5 -23h-157q-14 0 -33 1.5t-42 5.5q-57 6 -79 23
l-11 28q20 100 29.5 191.5t9.5 172.5q0 31 -1.5 54.5t-6.5 39.5q-12 42 -44 62q-11 -1 -34 -3q-12 -2 -23 -2.5t-19 -0.5q-20 0 -33 11l-10 20q9 30 23 56.5t34 49.5q46 55 101 55q98 0 151 -79q11 -17 19 -34t13 -37q16 31 68 83q66 67 102 67q40 0 72.5 -12.5t56 -35
t36.5 -54.5t13 -72q0 -33 -23 -88l-16 -39q11 -14 25 -31.5t30 -40.5q19 -38 19 -88zM678 303q0 50 -19 85q-17 23 -31 41.5t-25 32.5l19 44q11 26 16 46.5t5 37.5q0 37 -12 67.5t-34.5 52t-53.5 33t-68 11.5q-33 0 -95 -63q-29 -29 -46.5 -51.5t-22.5 -37.5q-2 -4 -2 -19
q0 -11 1 -27t3 -36q2 -21 2.5 -36t0.5 -25v-12q1 -11 1 -17v-7v-56q0 -195 -31 -201l-7 3q-2 10 -2 9q0 29 3.5 71.5t11.5 99.5q8 58 12 101t4 73q0 93 -44 157q-49 74 -142 74q-50 0 -95 -52v1q-34 -40 -53 -98l9 -17q6 -6 24 -6q8 0 18.5 0.5t22.5 1.5q11 1 21 1.5t17 1.5
q35 -19 49 -69q10 -34 10 -96q0 -168 -39 -363l9 -22q18 -13 73 -21q23 -4 41 -5t32 -1h157q44 0 143 92q46 42 72 72t34 47q11 25 11 82zM539 224q0 -39 -8 -49v1q-10 -9 -53 -15q-2 -1 -5 -1q-16 -2 -26 -3t-15 -1h-37q-23 0 -23 13q0 10 2 29t6 46q8 61 14 71q6 11 43 11
q102 0 102 -102zM447 465l-50 -51q-1 5 -1 7v4q0 10 1 25t3 35t3 35.5t1 26.5q0 4 -2 14q-2 8 -2 10q0 9 7 16h20q31 0 61 -17q34 -18 34 -42v-48l-8 -8q-12 -1 -28 -3t-39 -4zM669 303q0 -54 -10 -78q-16 -34 -105 -117q-96 -89 -136 -89h-157q-26 0 -72 7q-54 7 -67 17
l-6 16q38 196 38 363q0 63 -9 99q-14 55 -56 76q-14 0 -41 -3t-41 -3t-16 3l-6 11q15 51 50 92q42 48 87 48q87 0 135 -70q41 -61 41 -152q0 -58 -15.5 -172.5t-15.5 -172.5q0 -2 5 -16l12 -5q43 0 43 210v56q0 5 -1 25v11q0 21 -4 62.5t-4 61.5q0 12 1 15q12 29 68 86
q59 61 88 61q71 0 115 -42.5t44 -112.5q0 -31 -21 -81l-21 -49q25 -29 58 -75q19 -36 19 -82zM532 476v52q0 30 -39 51q-33 18 -66 18h-22q-15 -10 -15 -26q0 -4 2 -12t2 -12q0 -21 -3.5 -61t-3.5 -61q0 -4 3 -21h11l51 52q39 6 65 7zM549 224q0 111 -112 111q-42 0 -52 -20
q-7 -11 -15 -70q-7 -54 -7 -76q0 -23 32 -23h37q11 0 46 5q48 7 59.5 18t11.5 55z" />
    <glyph glyph-name="C" unicode="C" horiz-adv-x="601" 
d="M334 287q-1 -2 -1 -3l14 -1zM200 528q-1 -1 -1 -4q-8 -40 -12 -72t-4 -56q0 -39 11 -85q2 -8 4.5 -16t4.5 -13v198q0 8 -0.5 19t-2.5 28v1zM611 734q0 -17 -7.5 -28.5t-15.5 -22.5q-1 -2 -2 -3.5t-2 -3.5q-5 -7 -8.5 -12t-10.5 -17q-4 -7 -6.5 -11t-6.5 -9
q-24 -34 -54 -43q-18 -6 -66 -6q-6 0 -15.5 0.5t-20.5 1.5q-8 0 -14 0.5t-11 1.5q-2 -8 -2 -36v-78v-185h1q-2 -37 -29 -66q-6 -7 -16 -15l-25 -20l1 -1q11 -5 27.5 -7t39.5 -2q14 0 37 7t55 20l-1 -1q70 30 96 30h22l15 -18q0 -17 -11.5 -44t-34.5 -63q-45 -68 -69 -86
q-28 -20 -166 -20q-157 0 -233 106q-68 94 -68 252q0 63 9 113.5t26 92.5q37 91 132 162q20 15 38 27q27 19 53 21l26 -8l13 -27q-6 -33 -33 -60q-36 -37 -49 -61q13 13 30 30.5t40 41.5q76 78 97 78q6 0 14 -2.5t16 -4.5q5 -2 8.5 -3t5.5 -1h78q15 7 31.5 12t34.5 11
l29 -15zM599 756l-20 11q-19 -6 -34.5 -11.5t-28.5 -10.5h-80q-3 0 -7.5 1t-9.5 3q-8 2 -15 4t-12 2q-17 0 -90 -75q-42 -42 -65 -66t-31 -29q0 -23 3 -56q2 -17 3 -29t1 -20v-209q0 -6 -5 -16q-6 9 -11.5 22t-10.5 32q-13 46 -13 87q0 26 4 58t12 72q7 32 12.5 53.5
t11.5 33.5q6 14 19.5 31t33.5 39q14 14 21 27.5t10 25.5l-9 20l-20 6q-22 -1 -49 -19q-9 -7 -18 -13.5t-18 -14.5q-90 -67 -130 -158q-33 -80 -33 -202q0 -156 65 -247q74 -101 226 -101q137 0 161 18q11 8 27 29t38 53q45 72 45 100l-9 12h-18q-23 0 -92 -30
q-64 -26 -95 -26q-25 0 -43 2t-31 8l-7 11q2 1 3.5 2.5l3.5 3.5q16 12 26 20.5t15 13.5q24 26 26 60h-1v184q0 109 6 124q5 -1 12 -1q8 0 18 -1q11 -1 20.5 -1.5t15.5 -0.5q47 0 64 5q27 8 49 39q3 5 8 13.5t10 14.5q6 12 8 14t5 7l4 8l-1 -2q8 11 15.5 22t7.5 24zM593 732
q0 -10 -8.5 -22.5t-16.5 -22.5q-15 -25 -31 -50q-19 -28 -44 -35q-16 -5 -61 -5q-12 0 -35.5 2t-35.5 2q-10 -8 -10 -133v-144q0 -61 1 -40q-1 -30 -24 -54q-9 -9 -48 -39l-3 -3v-5l12 -18q27 -12 79 -12q33 0 99 28t88 28h13l5 -5q0 -22 -43 -91q-42 -64 -63.5 -80.5
t-155.5 -16.5q-147 0 -218 98q-64 87 -64 241q0 121 33 199q36 86 126 154q18 14 37 27q23 15 41 17l15 -4l6 -13q-4 -20 -27 -45q-42 -45 -56 -74q-11 -24 -24 -88q-16 -80 -16 -132q0 -41 12 -89.5t33 -66.5q13 15 13 31v209q0 17 -3 50t-3 50q9 8 92 93q71 73 84 73
q7 0 22 -5.5t22 -5.5h82q22 10 60 21l13 -7z" />
    <glyph glyph-name="D" unicode="D" horiz-adv-x="734" 
d="M263 243q-5 -7 -10.5 -13.5t-12.5 -12.5q-27 -27 -27 -26q0 -2 29 -2h11h8v12q0 7 1 15v-1q0 5 0.5 9.5t0.5 10.5v8zM253 401q3 -10 6 -19l6 -18v155q0 8 -3 35v4q-1 3 -1 8q-4 -4 -7 -8t-6 -9q-18 -26 -18 -38q0 -35 23 -110zM557 341q0 104 -46 172q-50 77 -143 77v-3
q-2 -51 -4.5 -118t-5.5 -154q-1 -10 -2.5 -27t-3.5 -40q-2 -20 -3.5 -36t-1.5 -27q0 -9 -4 -9h102q8 0 28 9q62 7 76 45q8 24 8 111zM715 446q0 -194 -128 -321q-128 -128 -320 -128q-61 0 -134 19q-92 22 -128 66q12 41 51 76q10 9 21 19t24 21q1 2 2 2.5t3 2.5l1 18v3
q0 18 -6.5 43.5t-20.5 58.5q-16 39 -24.5 66.5t-8.5 42.5q0 11 17 32t51 56q18 19 32 33.5t22 25.5q-13 -4 -29.5 -9t-37.5 -13q-29 -10 -54 -17t-47 -9l-30 30q20 73 53 119.5t78 66.5q60 26 211 26q193 0 287 -62q115 -78 115 -268zM706 446q0 183 -111 260
q-93 61 -282 61q-150 0 -208 -26q-86 -39 -125 -173l25 -25q30 4 95 27q26 9 47.5 15.5t38.5 10.5h-2q1 0 2 0.5t3 0.5q-11 -23 -68 -81q-64 -66 -64 -81q0 -31 31 -105q14 -35 21.5 -60.5t7.5 -45.5v-4l-1 -21q-4 -3 -10 -9q-24 -21 -43 -40q-20 -17 -32 -33t-17 -33
q30 -36 122 -59q36 -10 69 -14t62 -4q187 0 314 124q125 127 125 315zM567 341q0 -89 -8 -115q-17 -43 -85 -50q-17 -10 -29 -10h-103q-4 0 -4 19q0 11 1.5 27.5t3.5 36.5q2 23 3 39.5t2 26.5q3 87 6 154.5t5 118.5q2 11 9 11q100 0 152 -82q47 -70 47 -176zM274 292v-16
t-1 -21q0 -5 -0.5 -9.5t-0.5 -10.5t-0.5 -10.5t-0.5 -9.5v1q-1 -11 -1 -20v-14l-1 -1l-15 -1h-12q-39 0 -39 11q0 1 30 33q36 34 36 56q0 42 -24 119q-12 38 -18.5 66t-6.5 46q0 15 20 44q16 22 30 29v-11t1 -14v-4q3 -29 3 -36v-227zM193 596h-1h1zM697 446
q0 -185 -122.5 -307.5t-307.5 -122.5q-57 0 -129 18q-87 22 -112 53q7 23 43 57q25 22 56 51l1 25q2 41 -29 114t-31 101q0 12 62 75q67 67 73 90q1 4 -6 6q-7 1 -11 0q-29 -7 -87 -27.5t-89 -24.5l-17 16q37 125 118 162q55 25 204 25q188 0 276 -59q108 -72 108 -252z
M576 341q0 109 -48 182q-56 86 -160 86q-18 0 -19 -21q-5 -100 -10 -272q-1 -20 -6 -66q-5 -42 -5 -65q0 -28 14 -28h103q14 0 33 9q71 8 89 58q9 23 9 117zM284 292v227q0 10 -3 36q-2 23 -1 37l-7 3q-18 -4 -40 -34.5t-22 -49.5q0 -39 24.5 -115t24.5 -116q0 -17 -33 -49
t-33 -40q0 -24 60 -21l19 1l7 7q0 19 2 57t2 57z" />
    <glyph glyph-name="E" unicode="E" horiz-adv-x="626" 
d="M638 747q0 -27 -29 -75q-14 -21 -25 -36t-22 -24q-30 -27 -81 -27h-20t-28 1q-11 0 -18.5 0.5t-14.5 0.5q0 -50 8 -70q10 -3 27 -3q6 0 21 0.5t43 2.5q9 1 18 1h17q10 0 19.5 -0.5t26.5 -3.5l11 -32q-31 -94 -80 -118q-12 -5 -40 -10t-73 -9q-1 -4 -2 -12t-1 -20
q0 -4 -0.5 -9.5t-0.5 -13.5q0 -6 -0.5 -17.5t-0.5 -20.5q-14 -22 -70 -72q20 -7 42 -7q69 0 117 22q76 33 107 39l30 -30q-2 -14 -7.5 -28.5t-14.5 -28.5l-24 -38q-50 -79 -104 -98q-35 -11 -141 -11q-152 0 -234 89q-83 89 -83 242q0 137 37 228q42 103 148 179
q11 8 19.5 14t12.5 9q11 6 23.5 10t26.5 6l28 -17l6 -32q-18 -30 -39 -54v1q-13 -14 -21 -23.5t-13 -16.5q-22 -30 -37 -103q-14 -70 -14 -116q0 -125 40 -171q2 19 3 42.5t1 53.5q0 20 -1.5 47t-3.5 65t-3.5 67t-1.5 49v19q16 21 87 87q54 52 78 88l27 6q8 0 19 -1.5
t25 -6.5q19 -6 32 -6q11 0 24.5 2.5t31.5 7.5q45 12 67 12q25 0 25 -30zM629 747q0 20 -16 20q-12 0 -28.5 -2.5t-36.5 -8.5h1q-39 -10 -59 -10q-11 0 -35 6q-26 8 -42 8l-20 -5q-26 -39 -77 -87q-35 -33 -56 -54t-29 -30v-15q0 -20 1.5 -48.5l3.5 -66.5q3 -38 4.5 -65.5
t1.5 -47.5q0 -78 -6 -115q-57 39 -57 190q0 26 3 55t11 63q15 74 38 107q5 7 13 16.5t21 23.5q14 14 23 26t15 21l-6 24l-23 15q-20 -3 -41 -14l-10.5 -7t-21.5 -16q-100 -72 -144 -175q-36 -89 -36 -224q0 -148 81 -235q79 -86 226 -86q109 0 138 10q49 16 99 95l23 38
q10 14 14.5 26t6.5 22l-22 22q-15 -2 -40 -11.5t-61 -25.5q-51 -22 -121 -22q-14 0 -27.5 2.5t-28.5 8.5l-2 4q31 26 50 45.5t27 31.5v34q0 8 0.5 14t0.5 10q2 33 7 41q94 6 116 18q43 20 73 108l-9 25q-10 2 -19 2.5t-19 0.5h-17q-8 0 -17 -1q-28 -2 -43.5 -3t-21.5 -1
q-23 0 -34 7q-5 11 -8 31t-3 47l3 7h17q10 0 24 -1q16 -1 27 -1h20q46 0 75 25q19 18 45 59q28 48 28 69zM619 747q0 -19 -26 -64q-25 -41 -43 -56q-26 -23 -69 -23q-16 0 -47 1t-47 1l-6 -15q0 -62 13 -86q13 -10 41 -10q12 0 66 3q40 3 65 -1l6 -16q-27 -80 -68 -100
q-22 -10 -117 -17q-9 -9 -11 -50q0 -13 -2 -56q-13 -20 -79 -77l8 -13q33 -14 62 -14q71 0 125 24q68 30 94 35l15 -15q-3 -15 -18 -40l-24 -38q-46 -74 -94 -91q-31 -10 -135 -10q-142 0 -220 83.5t-78 228.5q0 134 36 221q41 98 141 171q24 18 31 22q18 10 36 12l15 -9
l3 -18q-10 -17 -33 -42q-27 -30 -35 -41q-25 -33 -41 -112q-14 -67 -14 -119q0 -164 71 -203q2 -1 4 3q7 37 7 125q0 38 -5 114t-5 114v12q10 12 81 80q51 48 77 86l16 3q13 0 37.5 -7t37.5 -7q20 0 61 11t62 11q6 0 6 -11z" />
    <glyph glyph-name="F" unicode="F" horiz-adv-x="446" 
d="M330 589q0 16 -66 16h-25v-4q0 -6 14 -59q7 -26 10.5 -38.5l3.5 -12.5l3 -4q5 8 12 19t17 28v-1q31 55 31 56zM507 660q-117 -122 -165 -219l79 7q21 0 39 -7l12 -28q-5 -59 -40 -88q-14 -12 -62 -31q-27 -10 -41 -17v-3q1 -8 4.5 -25.5t8.5 -43.5q9 -45 9 -77
q0 -62 -71 -164h1q-71 -107 -128 -119q-5 -1 -9.5 -1.5t-12.5 -0.5q-47 0 -96 35l1 -1q-49 35 -64 87q5 18 15.5 41t27.5 49h-1q33 51 70 74l26 -3q7 -29 12.5 -47t9.5 -26q9 -8 21 -19t28 -25h4v17q0 28 -3 63t-11 79q-8 47 -15 73t-15 31q-15 1 -29.5 1.5t-28.5 1.5
q-26 2 -43 6.5t-28 10.5l-14 26q7 23 21.5 47.5t39.5 49.5q11 13 20.5 22t17.5 15q-2 4 -4 9.5t-6 12.5q-13 29 -13 49q0 5 18 35t55 81q37 52 58.5 82t28.5 41q27 18 55 18q162 0 221 -98zM500 680q-54 89 -211 89q-26 0 -49 -14q-7 -13 -28 -42.5t-58 -80.5
q-71 -100 -71 -110q0 -18 13 -44q4 -11 7 -18t4 -13q-12 -9 -42 -39q-47 -49 -58 -89l12 -23q8 -4 23 -7t41 -5q14 -1 30 -1.5t32 -1.5q10 -7 18 -34.5t18 -78.5q7 -44 10 -79t3 -64q0 -22 -1 -27h-17q-17 16 -29 27.5t-22 19.5q-5 8 -9.5 26t-12.5 44l-18 2
q-15 -9 -30.5 -26t-32.5 -42q-17 -26 -27 -47t-14 -38q8 -23 22 -42t38 -36q46 -34 90 -34q7 0 11.5 0.5t9.5 1.5q54 12 121 114q34 51 51.5 90.5t17.5 69.5q0 14 -2.5 33t-7.5 42q-5 26 -8 43.5t-4 27.5v8q12 9 47 22q47 18 59 29q34 27 36 78l-10 22q-15 5 -31 5l-82 -6
l-9 4q23 52 65.5 109t103.5 120zM340 589q0 -2 -8.5 -17t-25.5 -44h1q-14 -21 -22.5 -35t-13.5 -20l-10 11q-1 1 -16 56q-8 28 -11.5 43t-3.5 18v11q6 3 34 3q76 0 76 -26zM490 677l-1 -9q-124 -128 -171 -235l19 -11l85 7q15 0 24 -3l7 -17q-3 -44 -32 -69
q-14 -11 -56.5 -27.5t-52.5 -25.5l-1 -12q2 -20 12 -74q9 -46 9 -73q0 -55 -66.5 -154t-115.5 -110q-9 -2 -19 -2q-42 0 -84.5 31t-54.5 72q6 30 38 78.5t57 63.5l9 -1q14 -53 22 -68q21 -15 55 -50h24q7 7 7 37q0 58 -14 145q-18 110 -44 121q-32 1 -62 2q-46 3 -58 11
l-8 16q8 33 53.5 81t45.5 40q0 15 -12.5 40.5t-12.5 40.5q0 7 70 104q75 105 86 122q17 12 41 12q153 0 201 -83zM349 589q0 35 -85 35q-38 0 -43 -7v-16q0 -7 15 -64t18 -59l17 -18h2q7 6 41.5 64t34.5 65z" />
    <glyph glyph-name="G" unicode="G" horiz-adv-x="713" 
d="M547 536v1q1 0 1 1q-1 -1 -1 -2zM398 480q60 61 71 92l-12 2t-14 3h1q-28 5 -37 5q-8 0 -10 -2q-1 -1 -1 -24v-25q0 -15 0.5 -27.5t1.5 -23.5zM567 262q0 51 -30 83.5t-78 32.5q-53 0 -65 -8l2.5 -3t1.5 -13q-1 -8 -1.5 -15.5t-1.5 -18.5q-2 -26 -6.5 -43t-12.5 -24
l-46 -47q-24 -14 -24 -15q0 -4 58 -11q25 -4 47.5 -6t44.5 -2q61 0 85 15q26 19 26 75zM704 379q0 -173 -113 -277q-108 -102 -281 -102q-132 0 -217 97q-84 95 -84 224q0 137 26 201l-1 -1q32 79 101 157q81 93 154 93h6l26 -2l14 -26v-17q-44 -48 -72.5 -83t-41.5 -58
q-38 -70 -38 -168q0 -51 15 -97q5 -20 12.5 -35t15.5 -26q3 34 3 132q0 11 -1 28.5t-3 40.5q-2 25 -3 43t-1 31q0 42 28 78q13 12 37.5 38t59.5 66q2 3 8 9l-2 -2q11 13 27.5 28.5t36.5 15.5q14 0 33 -2t43 -7q46 -9 68 -9q13 0 42 6q43 9 50 9h2q5 0 13 -3.5t17 -8.5v-23
q0 -17 -66 -96q-46 -53 -62 -80q56 -8 98 -51q50 -52 50 -123zM695 379q0 67 -47 116q-46 46 -108 49q5 12 23.5 36.5t48.5 59.5q62 74 62 89v18q-5 2 -10.5 4.5t-9.5 2.5h-2q-3 0 -14.5 -2t-33.5 -6q-29 -6 -44 -6q-11 0 -29 2t-41 6q-23 5 -42 7.5t-32 2.5
q-18 0 -32.5 -14.5t-24.5 -26.5l1 1q-4 -4 -5 -7q-37 -41 -61.5 -66.5t-38.5 -38.5q-24 -32 -24 -72q0 -13 1 -30.5t3 -42.5q3 -47 3 -70q0 -66 -2 -104t-4 -49q-26 23 -43 79q-15 49 -15 100q0 101 39 173q14 25 42 59.5t70 80.5v10l-10 21l-20 1h-6q-67 0 -146 -90
q-35 -38 -60 -76.5t-40 -77.5q-13 -31 -18.5 -79.5t-5.5 -117.5q0 -128 81 -218q84 -93 210 -93q167 0 274 99q111 103 111 270zM577 262q0 -60 -30 -82q-24 -17 -91 -17q-23 0 -46 1.5t-48 5.5h1q-66 10 -66 21q0 8 26 22l47 47q13 13 16 60q1 11 1.5 19t1.5 16
q1 11 0 16.5l-1 5.5q16 11 71 11q26 0 48 -9.5t37.5 -26.5t24 -40t8.5 -50zM391 459v1q-2 8 -3 26t-1 45v25q0 24 1 25q4 11 19 11q10 0 38 -5q11 -2 20.5 -4t14.5 -3q-3 -33 -89 -121zM686 379q0 -163 -108 -263q-104 -97 -268 -97q-122 0 -203 90q-79 88 -79 212
q0 135 24 193q30 77 97 152q82 91 146 86l14 -1l7 -13v-4q-84 -89 -112 -140q-39 -73 -39 -177q0 -53 15 -103q18 -61 52 -89l7 5q9 15 9 161q0 24 -4 72t-4 71q0 36 23 66q26 24 100 107q8 9 22.5 25t30.5 16q25 0 72 -9t72 -9q18 0 46 6q43 9 46 9q5 1 13 -4v-12
q0 -11 -61 -83q-64 -76 -74 -101q-2 -7 4 -11q63 0 107.5 -45.5t44.5 -109.5zM490 583v4l-3 3q-10 1 -40 6q-25 5 -40 5q-20 0 -26 -12q-4 -8 -4 -33v-25q0 -56 6 -75q1 -7 8 -7h3q96 96 96 134zM586 262q0 58 -35.5 97t-91.5 39q-61 0 -78 -15q-1 -3 -5 -62q-2 -44 -13 -55
l-44 -44q-32 -18 -32 -31q0 -19 74 -30q49 -8 95 -8q69 0 96 19q34 24 34 90z" />
    <glyph glyph-name="H" unicode="H" horiz-adv-x="630" 
d="M308 66q-6 -8 -12 -15t-11 -13q5 -2 10.5 -3.5t10.5 -4.5q19 -9 28 -9q104 0 104 161q0 79 -20 134q-26 69 -81 69q-47 0 -44 6q-12 -15 -12 -194v-18q2 2 6 3.5t7 3.5q8 5 16.5 8.5t19.5 4.5l25 -15l5 -21q0 -33 -52 -97zM600 324q0 -126 -32 -198q-38 -83 -140 -176
q-113 -102 -198 -102l-33 7l-8 34q0 6 5.5 25t16.5 49q4 11 7 20t7 17q-19 1 -43 2.5t-55 5.5q-35 4 -61.5 6t-42.5 3q-11 7 -15.5 16t-4.5 21q0 13 3 31t11 44q6 23 9.5 39.5t3.5 28.5v194q0 9 -2.5 24.5t-7.5 37.5t-8 39.5t-3 32.5q0 21 101 134q108 123 156 123h101
q39 0 80 -25q43 -26 55 -68v-6q0 -25 -42 -71q-20 -24 -37 -39t-31 -23l-27 10l-17 34q-23 18 -76 18q-54 0 -71 -7q0 -5 -0.5 -48t-2.5 -129q0 -6 -0.5 -12.5t-0.5 -11.5q-2 -81 -3 -132t-1 -77l4 -12l9 -3h1q-4 1 -4 14v46v13t-1 19q0 4 -0.5 9.5t-0.5 10.5v53
q0 91 26 140q37 67 126 67q103 0 173 -58q74 -63 74 -170zM590 324q0 104 -71 163q-67 56 -166 56q-82 0 -118 -63q-25 -44 -25 -135v-22q0 -13 1 -31q0 -5 0.5 -10t0.5 -10q1 -11 1 -19v-13v-46q0 -23 -4 -23h-1l-19 4l-5 20q0 49 3 210q0 5 0.5 11t0.5 12q5 172 7 183
q17 10 77 10q59 0 84 -22l15 -32l20 -6q21 11 62 57q40 46 40 65v6q-11 36 -51 60q-37 23 -75 23h-101q-45 0 -149 -119q-98 -112 -98 -128q0 -27 10 -70q10 -40 10 -64v-194q0 -11 -3 -28.5t-11 -40.5q-6 -24 -9.5 -42t-3.5 -32q0 -18 12 -27q16 -1 42.5 -3t60.5 -7
q33 -4 58 -5.5t44 -1.5q4 0 12 3q-4 -8 -8.5 -21.5t-12.5 -31.5q-11 -30 -16 -47t-5 -22l5 -28l27 -6q82 0 192 101q98 90 137 172q30 67 30 194zM301 73q50 62 50 88l-4 18l-18 11q-6 -2 -14 -5.5t-16 -7.5q-6 -3 -11.5 -5.5t-7.5 -3.5l-8 3v26q0 182 12 197q1 1 53 1
q65 0 90 -76q20 -55 20 -137q0 -170 -113 -170q-10 0 -31 9q-22 10 -36 12l-2 -1q8 8 16.5 18t19.5 23zM581 324q0 -124 -30 -190q-36 -79 -135 -169q-107 -98 -183 -98l-20 5l-5 21q0 6 20.5 62.5t25.5 62.5l13 5q10 -1 32 -11t35 -10q122 0 122 180q0 85 -20 141
q-30 82 -99 82q-58 0 -61 -5q-14 -17 -14 -203v-32l17 -7q9 1 24.5 10.5t23.5 10.5l11 -6l3 -14q0 -20 -47.5 -80t-64.5 -60q-36 0 -101 8q-69 8 -100 9q-6 5 -6 18q0 24 13.5 71.5t13.5 71.5v194q0 23 -10.5 67t-10.5 67q0 14 96 121q103 116 142 116h101q36 0 71 -21.5
t46 -54.5q4 -15 -38 -62q-38 -43 -56 -52l-12 3l-14 30q-28 26 -92 26t-83 -12q-5 -5 -10 -191q-5 -183 -5 -236l8 -24l23 -7q17 -5 17 33v46q0 17 -1.5 52.5t-1.5 52.5q0 87 25 131q32 57 109 57q98 0 161 -54q67 -57 67 -155z" />
    <glyph glyph-name="I" unicode="I" horiz-adv-x="401" 
d="M407 734q0 -22 -10 -65l1 1q-5 -19 -6.5 -33t-1.5 -22v-90h-13q7 -26 11.5 -67.5t5.5 -99.5v-13q0 -39 -3.5 -71.5t-12.5 -56.5q-19 -52 -72 -118q-52 -63 -107 -99h-62q-37 0 -82 30q-54 36 -54 76q0 26 37 85q40 62 69 72q23 -9 40 -46v1q19 -36 27 -44q19 -19 44 -19
v1l3 25q6 72 6 136l-2 266q-5 -2 -10.5 -3t-11.5 -3q-14 -5 -26 -7t-20 -2q-6 0 -19 0.5t-30 1.5h-7q-9 1 -17 1h-13h-3q-8 -6 -17.5 -10t-21.5 -5l-30 28q10 40 47 103q44 74 72 74q12 0 28.5 -2.5t39.5 -9.5l-1 1q40 -10 60 -10q13 0 28 2.5t33 8.5q8 3 15.5 5.5l13.5 4.5
q14 5 24.5 7t15.5 4l26 -12zM394 753l-20 8q-5 0 -14 -2.5t-22 -7.5q-11 -4 -29 -9q-39 -12 -64 -12q-18 0 -62 11h1q-42 11 -66 11q-22 0 -65 -70q-19 -31 -29.5 -54.5t-15.5 -39.5l24 -21q20 1 34 14h5h13q8 0 17 -1h8q34 -3 48 -3q17 0 43 9q11 3 19.5 5t14.5 3l2 -277
q0 -65 -6 -137l-2 -25q-3 -10 -10 -10q-29 0 -51 22q-10 11 -28 46q-16 32 -32 40q-23 -9 -61 -68v1q-17 -28 -26.5 -47.5t-9.5 -32.5q0 -34 50 -67q44 -29 77 -29h59q55 35 103 95q25 30 42.5 58.5t27.5 57.5q9 24 12.5 55t3.5 69v13q-1 60 -3.5 101.5t-7.5 65.5h7v90
q0 9 1.5 23t6.5 34q9 40 9 64zM389 734q0 -20 -9 -59.5t-9 -59.5v-90q0 86 5 -167q2 -83 -15.5 -134.5t-68 -112.5t-98.5 -92h-57q-31 0 -72 28q-46 29 -46 59q0 21 34.5 75t53.5 61q10 -4 24 -34q17 -34 30 -47q24 -25 57 -25q14 0 19 15q0 -6 2 28q6 73 6 138l-2 282
q0 5 -4 5q-14 0 -41 -8.5t-41 -8.5q-12 0 -47 2q-31 2 -48 1q-12 -12 -27 -14l-16 14q6 27 42 87q39 65 57 65q22 0 63.5 -10.5t63.5 -10.5q28 0 66 12q50 16 62 19l13 -6z" />
    <glyph glyph-name="J" unicode="J" horiz-adv-x="435" 
d="M435 739q0 -20 -9 -51q-5 -13 -6 -21t-2 -14q-3 -40 -4.5 -88t-2.5 -105v-33t1 -45q1 -29 1 -49v-32q0 -208 -92 -318q-8 -9 -20 -26t-27 -40q-31 -47 -60 -73l-20 -1h-8q-53 0 -109 41q-68 51 -68 109q0 31 32 83q33 52 70 64l27 -12q15 -35 24.5 -54.5t12.5 -24.5
q9 -13 20.5 -21t26.5 -10l11 5q12 73 12 213v68q0 32 -1 60l-2 110v11q0 7 -1 17t-1.5 21t-0.5 17q0 11 2.5 24.5t7.5 27.5q-5 -2 -11 -4t-14 -4q-45 -15 -77 -15h-11q-5 0 -12 1q-5 0 -9 0.5t-9 0.5q-11 1 -18 1.5t-14 0.5q-15 -18 -36 -18q-24 0 -38 20v37q12 20 26 42
t25 42q23 34 40.5 51t31.5 17q25 0 66 -7q21 -4 36 -5.5t24 -1.5q38 0 149 29l28 -14zM418 760l-21 9q-113 -29 -148 -29q-10 0 -25 1.5t-36 5.5q-22 4 -38 6t-27 2q-21 0 -64 -64q-12 -20 -24.5 -41t-25.5 -41v-32q10 -12 29 -12t32 17h4q7 0 14 -0.5t18 -1.5q5 0 9.5 -0.5
t9.5 -0.5q7 -1 12 -1h10q31 0 75 15q13 5 24 8t20 5q-18 -41 -18 -66q0 -6 0.5 -16.5t1.5 -20.5t1 -17v-12l2 -110q1 -27 1 -59v-69q0 -73 -3.5 -127.5t-9.5 -91.5l-17 -9q-35 5 -56 35q-8 13 -37 78l-21 9q-28 -8 -61 -60q-31 -51 -31 -77q0 -54 64 -100q28 -20 54 -30.5
t50 -10.5h8l17 1q27 26 55 68q17 27 29.5 43.5t18.5 24.5v-1q45 54 67.5 132t22.5 181v31q0 20 -1 49q-1 26 -1 45v34q1 113 6 193q1 9 10 38q4 14 6 24.5t2 20.5zM417 736q0 -16 -8.5 -42.5t-9.5 -39.5q-5 -79 -6 -194q0 -27 1 -79q1 -56 1 -80q0 -200 -88 -306
q-13 -15 -48 -68q-28 -43 -52 -64l-13 -1q-48 -4 -106 38q-61 44 -61 93q0 26 30 72.5t53 54.5l15 -7q29 -66 35 -76q25 -36 67 -39l22 13q14 73 14 225q0 74 -1 128l-2 110q0 9 -1.5 31.5t-1.5 34.5q0 28 20 69l9 6l3 7q-19 -2 -70 -20q-43 -14 -72 -14q-11 0 -39 2.5
t-43 1.5q-11 -17 -27 -17q-14 0 -20 6v25q25 40 49 80q39 59 56 59q21 0 63 -7t63 -7q41 0 148 28l14 -7z" />
    <glyph glyph-name="K" unicode="K" horiz-adv-x="601" 
d="M202 355q-1 5 -1 10v9q-5 -70 -7.5 -121t-2.5 -86l2 -2l8 -1q2 11 2.5 35.5t0.5 62.5v46q0 6 -0.5 12t-0.5 13q0 5 -0.5 11t-0.5 11zM263 519q29 41 48 41h60q-15 26 -27 30h1q-5 2 -21 3t-42 1q-58 0 -74 -9v-13q0 -23 -1 -52.5t-3 -64.5q2 6 4 8q4 5 11.5 13t18.5 17
h-1q10 10 17 16t9 10zM292 286q-1 -6 -1.5 -12.5t-0.5 -12.5q5 5 12 11t15 11v-1q23 16 39.5 25.5t29.5 11.5q17 -5 29 -10l2 10t1 13q0 32 -22 49t-57 17q-20 0 -36 -6q-3 -12 -6 -38t-5 -68zM613 164q-2 -20 -44 -87q-42 -66 -61 -74l-12 -1q-54 0 -141 84
q-23 21 -40.5 41t-28.5 37q0 -5 2.5 -11t6.5 -11v1q8 -11 12.5 -19.5t6.5 -17.5q-12 -33 -34 -64q-33 -43 -63 -43q-17 0 -54 6q-14 2 -25 3.5t-18 1.5h-5q-5 -1 -13 -1q-7 0 -17 -1q-8 -1 -22 -1t-26 -1l-25 16l-4 23q0 23 3 54.5t11 70.5q7 39 10.5 68t3.5 47t-2.5 46.5
t-7.5 67.5q-4 39 -6 69t-2 51q0 14 21 45t66 79v-1q44 49 72 76t42 35q28 13 70 13q205 0 226 -76q-7 -17 -17 -36.5t-24 -42.5q-10 -17 -20 -30.5t-18 -24.5q39 -8 69 -28q60 -38 60 -100q0 -118 -82 -171q-11 -7 -17 -12t-9 -8q4 -17 26 -36q24 -23 43 -23q2 0 7.5 1.5
t11.5 3.5q8 3 17 6t17 3l23 -6zM596 179l-16 3q-6 0 -14.5 -2.5t-16.5 -5.5q-7 -2 -12.5 -4t-10.5 -2q-21 0 -49 25q-25 24 -31 47q4 4 11.5 10.5t19.5 14.5q39 25 58.5 66t19.5 97q0 57 -56 92q-19 11 -39 19t-42 10q20 22 48 67q14 22 23.5 40.5t16.5 34.5q-20 66 -217 66
q-44 0 -66 -13h1q-27 -13 -111 -107q-86 -95 -86 -118q0 -40 9 -118t9 -116q0 -20 -3.5 -48.5t-10.5 -68.5q-7 -39 -10.5 -69t-3.5 -52l4 -18l19 -14q12 1 24 1t20 1q10 1 17 1q8 0 13 1h6q8 0 19.5 -1.5t25.5 -3.5h-1q19 -3 31.5 -4t21.5 -1q26 0 55 39q9 13 17 28t15 33
q-1 9 -16 28q-11 14 -11 29v38q12 -44 84 -111q87 -82 134 -82l12 1q13 6 54 71q40 63 42 79zM270 513q-4 -5 -10 -11.5t-16 -15.5v1q-9 -8 -16.5 -15.5t-11.5 -14.5q-6 -7 -6 -54v-21q0 -12 1 -26q0 -5 0.5 -11t0.5 -12q0 -7 0.5 -13t0.5 -11q1 -14 1 -26v-21
q0 -91 -6 -106l-5 -1l-14 1l-7 7q0 67 9 211q4 62 6 112t2 86v16q15 16 83 16q28 0 44.5 -1t21.5 -3q19 -8 38 -50h-75q-14 0 -41 -37zM282 287q3 45 6.5 72.5t6.5 38.5q11 5 21.5 7.5t22.5 2.5q38 0 63.5 -19.5t25.5 -56.5q0 -26 -12 -36q-11 10 -29 14q-25 -6 -65 -35
q-33 -23 -43 -41q1 12 1 25q0 14 2 28zM594 161q-1 -12 -40.5 -73t-48.5 -66l-11 -1q-43 0 -126.5 79t-83.5 121q0 16 43 46q41 29 60 33q18 -3 29 -17q21 14 21 49q0 42 -27.5 63.5t-70.5 21.5q-28 0 -50 -11q-9 -19 -16 -118q-6 -74 -6 -122q0 -17 13.5 -34.5t14.5 -23.5
q-11 -28 -30 -55q-27 -35 -48 -35q-16 0 -50.5 5.5t-53.5 5.5q-20 -1 -71 -4l-13 8l-3 15q0 40 14 118.5t14 118.5q0 39 -8.5 117t-8.5 117q0 20 82.5 111.5t108.5 105.5q22 11 61 11q191 0 206 -56q-11 -27 -37 -70q-28 -48 -44 -63h-21q-18 42 -42 50q-13 5 -69 5
q-78 0 -93 -21q1 -75 -7 -217q-9 -148 -9 -216l12 -12l19 -2l11 2q8 13 8 115q0 24 -2 70.5t-2 70.5q0 43 4 48q8 11 27.5 28.5t27.5 28.5q23 33 33 33h85q54 0 98 -29q52 -32 52 -84q0 -108 -73 -155q-32 -21 -36 -33q5 -26 34.5 -53.5t54.5 -27.5q9 0 26 7t26 7l11 -3z
" />
    <glyph glyph-name="L" unicode="L" horiz-adv-x="482" 
d="M216 188q1 13 3 116q-2 -35 -4.5 -59.5t-5.5 -38.5q-2 -9 -14 -25q2 0 3.5 0.5t3.5 0.5q14 5 14 6zM484 175q0 -28 -41 -92q-32 -51 -61 -80l-24 -1h-6q-14 0 -29.5 2t-35.5 5q-22 3 -37.5 5t-23.5 2q-14 0 -36 -2t-52 -6q-62 -9 -95 -9q-6 0 -14 2t-21 8l-6 26
q0 25 18 50q8 11 13.5 18.5t7.5 11.5q10 22 14 72.5t4 130.5q0 17 -1.5 42t-3.5 60q-6 70 -6 106q0 45 73 130q56 66 110 110h93q21 0 42 -6t39.5 -17t33.5 -27t23 -37q-9 -22 -70 -123h-45q-7 7 -15 13.5t-17 14.5q-2 -13 -3 -33.5t-3 -50.5q-1 -28 -2.5 -81.5t-5.5 -133.5
l-5 -96l1 -3q5 -2 14 -2h23q10 0 25.5 1t36.5 3q22 2 41.5 3t33.5 1zM466 182q-12 0 -29.5 -0.5t-39.5 -2.5t-37.5 -3t-25.5 -1q-33 0 -42 5l-5 7l5 99q3 80 5 133.5t3 81.5q2 38 3.5 62t3.5 33l4 3q11 -8 21.5 -16.5t18.5 -16.5h35q29 48 45 76t21 37q-16 36 -52.5 57
t-75.5 21h-90q-26 -23 -53 -49t-54 -58q-70 -82 -70 -124q0 -35 6 -105q2 -35 3.5 -60.5t1.5 -42.5q0 -162 -19 -207q-2 -4 -7 -11.5t-14 -20.5q-17 -25 -17 -46l5 -18q8 -4 15 -5t12 -1q17 0 39.5 1.5t53.5 6.5q60 9 90 9q16 0 62 -8q20 -3 35 -5t29 -2h6l21 1q11 13 25 31
t31 44q40 63 40 84zM228 402q0 -196 -3 -215q-1 -7 -20 -14v1q-18 -6 -28 -6h-2q23 28 25 41q6 23 8.5 78.5t2.5 146.5v76t-1 86l2 7h2l5 -3q4 -17 6.5 -67t2.5 -131zM465 168q0 -17 -37 -75q-34 -51 -53 -71l-17 -1q-24 -1 -68 6.5t-64 7.5q-30 0 -91 -8.5t-92 -8.5
q-10 0 -19 4l-4 14q0 16 15 37q19 26 22 34q21 48 21 211q0 35 -6 104t-6 104q0 38 69 117q53 64 102 104h87q37 0 70.5 -18t46.5 -50q-6 -16 -60 -104h-26q-16 16 -44 35l-11 -6q-5 -16 -9 -103q-2 -56 -8 -215l-5 -102l7 -12q12 -7 49 -7q21 0 63.5 4t64.5 4zM237 402
q0 174 -11 205l-11 7l-9 -5l-6 -9q7 -327 -9 -389q-3 -11 -30 -45v-2l4 -4l7 -1q15 -2 36 5q25 9 27 22q2 19 2 216z" />
    <glyph glyph-name="M" unicode="M" horiz-adv-x="1064" 
d="M1070 551q-4 -24 -14.5 -46.5t-26 -42t-35 -34t-41.5 -22.5q-13 -30 -13 -168q0 -35 13 -62q14 -7 32 -9.5t39 -3.5l15 -18q0 -29 -32 -76h1q-14 -20 -25.5 -35t-22.5 -24l-41 -13q-101 0 -134 92q-11 27 -15 66t-4 90q0 68 17 102q8 15 41 48q11 10 19 18t13 15
q-26 28 -44 75q-19 51 -32 68l-31 11q-90 -9 -90 -239q0 -22 1 -55.5t3 -78.5t3.5 -82t1.5 -59q-44 -50 -157 -65l-31 24l-1 33v18q0 24 1.5 60.5t5.5 86.5q4 54 6 94t2 69q0 45 -3 88t-8 83q-20 20 -44 26q-18 -9 -31.5 -32t-20.5 -61q-13 -61 -17 -177q-2 -60 -5.5 -96.5
t-9.5 -49.5l1 1q-5 -12 -16.5 -27t-31.5 -32q-7 -5 -14.5 -11.5t-18.5 -15.5q-5 -5 -9 -8.5t-8 -6.5q-5 -5 -10 -9.5t-10 -9.5t-11 -10.5t-11 -10.5q-34 -29 -61 -29q-53 0 -95.5 29t-62.5 80q3 18 27.5 49t69.5 77h43q28 -52 54 -72q1 2 1 4q0 3 1 5q2 9 3 16.5t1 10.5v306
q0 36 -23 65q-23 26 -57 26q-13 0 -31 -5q-28 -7 -38 -9h-6q-30 0 -30 33q1 18 33 72q16 27 27.5 44.5t21.5 25.5l31 11q81 0 109 -5q58 -13 96 -57q3 -5 10 -19t18 -38q5 -13 6 -19q8 10 17 23t19 31q18 32 36 52t35 31q20 2 33 3t22 1q62 0 88 -27h-1q13 -13 30 -68
q4 -13 7.5 -22.5t6.5 -17.5q8 9 19 23t24 31v-1q20 28 39 48t37 31q103 0 143 -61q5 -8 14 -32.5t23 -67.5q12 -38 41 -38q2 0 12 4h-1q8 4 16 7t13 3q17 0 25 -7.5t8 -19.5v-5zM1061 551v5q0 17 -24 17q-4 0 -10.5 -2.5t-13.5 -5.5q-5 -2 -9.5 -4t-6.5 -2q-37 0 -49 45
q-14 40 -23.5 65t-14.5 34q-36 56 -131 56q-32 -20 -71 -74q-17 -23 -30 -39t-24 -26q-5 8 -9.5 21t-10.5 32q-15 51 -28 64q-23 25 -80 25q-22 0 -50 -3q-34 -21 -68 -80q-15 -24 -26.5 -40.5t-19.5 -25.5q-1 4 -4.5 12t-8.5 21q-11 23 -17.5 36.5t-9.5 17.5q-35 41 -90 53
q-26 6 -103 6l-35 -13q-10 -8 -41 -63q-14 -26 -22.5 -43.5t-9.5 -25.5q0 -23 21 -23h4q8 2 17 4t21 5q19 6 33 6q38 0 63 -30q26 -30 26 -71v-306q0 -4 -1 -11.5t-3 -16.5q-1 -6 -1.5 -12.5t-0.5 -12.5q-38 20 -69 79h-34q-83 -85 -89 -114q20 -48 59 -74.5t88 -26.5
q23 0 54 26q5 5 11 10.5t11 10.5t10.5 9.5t11.5 9.5h-1q4 4 8 7.5t9 7.5v-1q11 10 18.5 17t14.5 12q34 30 44 54q6 12 9.5 47.5t5.5 95.5t6 104t10 73q16 84 60 101q32 -6 56 -31q5 -41 7.5 -84.5t2.5 -90.5q0 -29 -2 -69t-5 -94q-4 -50 -5.5 -86.5t-1.5 -60.5v-17l1 -30
l23 -19q108 17 145 58q0 23 -1 58t-3 80t-3 79t-1 56q0 243 102 249l32 -11q8 -10 17 -28.5t20 -46.5q19 -49 47 -76q-9 -16 -37 -42q-32 -30 -39 -46q-9 -17 -13 -41t-4 -56q0 -49 4.5 -87.5t14.5 -64.5q31 -86 125 -86l34 10q9 9 20.5 23.5t25.5 34.5v-1q31 44 31 68
l-10 11q-43 2 -74 15q-16 32 -16 70q0 74 3.5 117.5t11.5 58.5q45 14 76.5 52.5t39.5 84.5zM1051 553q-8 -44 -39 -81t-73 -50q-18 -26 -18 -184q0 -41 18 -76q34 -17 76 -18l5 -6q0 -16 -29 -58q-25 -37 -42 -53l-33 -11q-84 0 -113 80q-18 50 -18 149q0 62 15 94
q7 14 38.5 43t40.5 47v4q-28 22 -49 77q-23 60 -39 79l-39 13q-112 -6 -112 -259q0 -44 4.5 -134t4.5 -135q-34 -37 -133 -51l-17 13l-1 25q-1 45 7 163q8 107 8 164q0 96 -11 179q-26 31 -64 38q-51 -17 -71 -110q-11 -58 -16 -179q-4 -117 -13 -139t-42 -51
q-17 -14 -50 -42q-21 -20 -43 -40q-28 -25 -48 -25q-46 0 -83 24.5t-55 67.5q5 24 84 105h24q34 -62 76 -80q4 -2 8 4q0 9 3.5 29t3.5 30v306q0 44 -28 77t-71 33q-15 0 -36 -5q-26 -8 -36 -9q-14 -2 -14 12q2 15 31 65.5t40 61.5l27 9q75 0 101 -5q52 -12 84 -50
q6 -7 26 -52q19 -41 22 -41h1q19 15 53.5 73t61.5 75q27 3 48 3q53 0 74 -22q9 -10 25 -59.5t28 -65.5q22 18 62 74q36 51 67 70q87 0 120 -51q8 -12 36 -97q16 -51 59 -51q6 0 20.5 7t19.5 7q17 0 14 -11z" />
    <glyph glyph-name="N" unicode="N" horiz-adv-x="806" 
d="M801 558q-17 -50 -47 -94q-36 -48 -77 -62q-8 -11 -8 -125q0 -26 0.5 -42.5t1.5 -21.5q4 -27 23 -32l-2 1q4 -1 11.5 -2.5t15.5 -3.5l-1 1q8 -2 21.5 -5t25.5 -5l21 -22v-10q0 -24 -49 -79q-53 -60 -75 -60q-80 0 -124 59q-39 51 -39 130q0 29 3 83q2 27 3 51.5t1 38.5
l50 43q21 18 25 30q-11 11 -22 32.5t-25 53.5t-28 52.5t-29 27.5q-1 1 -2 1v0q-45 0 -75 -79q-26 -69 -26 -130v-21t1 -30q0 -5 0.5 -8.5t0.5 -6.5q1 -11 1 -20v-16q0 -86 -24 -140q-3 -5 -15 -17.5t-35 -30.5l-53 -45q-29 -27 -48.5 -41t-33.5 -14q-26 0 -50.5 6.5
t-48.5 18.5q-63 33 -63 86q0 24 44 74q23 26 41.5 39.5t35.5 15.5l13.5 -13.5t29.5 -30.5h-1q8 -9 15 -16l12 -12q5 22 7.5 54.5t2.5 75.5v21t-1 29q0 5 -0.5 11.5t-0.5 14.5q-1 26 -1 46v33q0 143 -83 143q-7 0 -16.5 -2.5t-23.5 -6.5q-36 -14 -53 -16l-26 12l-10 26
q8 37 21.5 65t33.5 50h-1q45 48 116 48q93 0 136 -31q12 -10 24 -27t24 -43q6 -14 10.5 -23.5t9.5 -17.5q16 20 32 41.5t31 41.5q54 59 118 59q80 0 112 -60h-1q5 -7 12 -31.5t17 -65.5q5 -17 10.5 -26.5t13.5 -9.5t53 24l29 -15zM784 580l-22 11q-21 -12 -34 -17t-18 -5
q-21 0 -33 42q-20 81 -27 96q-29 55 -104 55q-59 0 -113 -60q-17 -23 -34.5 -45t-34.5 -45q-11 17 -28 55q-22 49 -44 65q-21 14 -53.5 22t-77.5 8q-65 0 -109 -46q-19 -20 -31.5 -46t-18.5 -60l8 -21l18 -9q7 1 19.5 5t29.5 10h-1q14 5 25 7.5t19 2.5q92 0 92 -153v-33
q0 -19 1 -45q0 -8 0.5 -14t0.5 -12q1 -17 1 -30v-21q0 -105 -13 -147q-8 5 -17.5 14.5t-22.5 23.5q-17 18 -27 28.5t-11 11.5q-14 -1 -30 -14t-37 -36h1q-43 -51 -43 -68q0 -48 57 -78q45 -23 96 -23q23 0 75 52l53 45q22 17 33.5 29t14.5 17q24 49 24 135v16t-1 20
q0 3 -0.5 6.5t-0.5 8.5q-1 17 -1 30v21q0 33 6.5 65.5t19.5 67.5q33 86 84 86q1 0 7 -2h-1q33 -18 61 -85q14 -35 26.5 -57.5t24.5 -31.5q-6 -16 -31 -37l-47 -41q0 -14 -0.5 -36.5t-2.5 -49.5q-3 -54 -3 -83q0 -77 37 -124q42 -55 116 -55q18 0 68 56h-1q48 54 48 73v5
l-18 19q-12 2 -23 4t-19 4q-9 2 -15 3t-11 2q-11 3 -19 12.5t-11 27.5v-1q-1 5 -1.5 22t-0.5 44q0 60 3 92t9 40q20 6 38.5 20.5t36.5 40.5q27 37 45 89zM781 559q-15 -46 -43 -84q-34 -48 -71 -57q-17 -12 -17 -141q0 -56 2 -67q7 -41 37 -47q16 -3 66 -14l12 -13
q2 -14 -44 -67.5t-61 -53.5q-70 0 -108 52q-36 46 -36 118q0 28 3.5 82t3.5 82l44 38q28 25 33 45l-1 6q-21 14 -50 87q-30 70 -65 89q-6 3 -11 3q-58 0 -93 -91q-27 -70 -27 -137q0 -17 1.5 -51t1.5 -51q0 -83 -23 -131q-3 -9 -44 -43l-54 -45q-49 -50 -69 -50
q-47 0 -91 23q-52 27 -52 69q0 16 40 61.5t55 47.5q2 -1 36 -37.5t49 -42.5h3q17 43 17 158q0 25 -1.5 77t-1.5 78q0 162 -102 162q-18 0 -47 -10q-33 -13 -44 -14l-13 5l-5 14q13 63 48 100q40 43 102 43q87 0 125 -27q21 -16 42 -62q22 -51 37 -66q38 50 75 99
q52 56 106 56q68 0 95 -50q8 -14 27 -92q12 -51 42 -51q12 0 53 21l14 -7z" />
    <glyph glyph-name="O" unicode="O" horiz-adv-x="752" 
d="M577 342q0 265 -170 265q-18 0 -18 -23v-61q1 -20 1 -36v-26q0 -170 -27 -206q-14 -17 -38 -41l-6 -7q-5 -5 -10 -9t-9 -8q31 -17 104 -17q106 0 140 31q33 33 33 138zM732 436q0 -157 -118 -293q-123 -143 -278 -143q-328 0 -328 383q0 127 67 227q55 80 176 165h10
q8 0 30 -7l13 -27q-16 -38 -60 -88q-37 -43 -50 -70q-22 -50 -22 -140q0 -60 18 -121v1q13 -52 35 -77q1 22 1.5 70.5t0.5 126.5v18q0 11 -1 26v46q0 44 39 89q20 19 47.5 44t67.5 63v-1q30 30 63 39q14 5 31 6.5t40 1.5q116 0 175 -126q43 -95 43 -213zM722 436
q0 59 -10 111.5t-32 97.5q-55 121 -166 121q-47 0 -69 -7q-30 -9 -58 -37q-40 -38 -70 -66t-50 -46q-32 -35 -32 -77v-19t1 -26t1 -26v-19q0 -180 -8 -214q-14 11 -25.5 34t-22.5 57q-9 33 -14 63.5t-5 59.5q0 45 6.5 81.5t17.5 62.5q5 12 17.5 30t34.5 42q20 23 34 43.5
t22 38.5l-10 21q-12 4 -23 4h-8q-115 -81 -170 -161q-66 -101 -66 -222q0 -373 319 -373q151 0 271 138q115 135 115 288zM587 342q0 -55 -9.5 -90.5t-26.5 -53.5q-35 -34 -147 -34q-89 0 -119 24l12 12t16 15l5 6q13 13 22.5 23t15.5 18q25 31 25 199v26t-1 35q-1 21 -1 36
v26q0 32 28 32q180 0 180 -274zM713 436q0 -150 -113 -281q-118 -136 -264 -136q-309 0 -309 364q0 120 64 216q54 80 165 157q8 1 22 -3l5 -12q-12 -29 -52.5 -75.5t-53.5 -74.5q-24 -57 -24 -148q0 -60 19 -125q23 -82 60 -102q14 10 14 227q0 15 -1 44.5t-1 45.5
q0 37 30 70q40 37 119 112q26 26 55 34q23 7 66 7q105 0 158 -115q41 -88 41 -205zM596 342q0 284 -189 284q-37 0 -37 -42q0 -21 0.5 -61.5t0.5 -61.5q0 -163 -22 -194q-13 -16 -37 -40q-29 -26 -39 -39q28 -34 131 -34q114 0 153 37t39 151z" />
    <glyph glyph-name="P" unicode="P" horiz-adv-x="804" 
d="M360 287q-2 34 -6 123v-3v-210h2q2 13 3.5 29.5t1.5 38.5h31q-8 1 -19.5 6t-12.5 16zM599 411q0 180 -110 180h-22q-5 -59 -6.5 -103.5t-2.5 -76.5q0 -37 -9 -109q-4 -35 -6 -61.5t-2 -43.5q5 0 10.5 -0.5t11.5 -0.5q11 -1 20 -1h16q65 0 74 9q26 28 26 207zM782 477
q0 -142 -55 -260q-65 -140 -189 -186q-36 -14 -98 -15h-48h-8t-21 1h-10l-9 -9l-3 -25q-1 -3 -1 -5q0 -1 -1 0q5 -10 5 -15q0 -13 -10 -40q-56 -45 -118 -74l-25 6l-16 21v98q0 6 0.5 13t1.5 15q0 5 0.5 8t0.5 7q-20 11 -80 11q-6 0 -15 -0.5t-19 -1.5q-11 -1 -24 -1.5
t-19 -0.5q-15 15 -15 34q0 26 51 91q49 63 84 75l40 -16q-1 3 -1.5 8.5t0.5 13.5q-2 11 -2 26v32v36q0 22 1 50v-1q0 10 0.5 20.5t0.5 21.5t0.5 21.5t0.5 20.5q1 28 1 49v37q0 41 6 49q-30 -9 -53.5 -13t-38.5 -4q-60 0 -93 33l-11 30v14q7 9 19.5 27.5t29.5 40.5
q14 17 30 31.5t38 27.5q13 -2 29.5 -8t38.5 -17q28 -15 54 -15q15 0 42 15q41 23 65 24l30 -25v-55q0 -20 -1.5 -49t-3.5 -66q17 88 61 129l53 50q15 15 40 15q265 0 265 -300zM773 477q0 291 -256 291q-19 0 -33 -14l-54 -49q-67 -64 -67 -246v-24q0 -12 1 -25v1
q2 -45 3 -76t2 -48q1 -11 7 -16t10 -6h-16q0 -24 -2 -42.5t-4 -31.5l-7 -3l-9 1l-3 4v214q0 25 1 60.5t5 83.5t6 85t2 62v51l-24 19q-11 -1 -25 -6.5t-32 -14.5q-30 -17 -47 -17q-29 0 -59 15q-42 20 -63 25q-33 -22 -60 -56q-17 -22 -29 -38.5t-18 -25.5v-8l10 -30
q26 -27 84 -27q16 0 40 4t55 13v-59v-37t-1 -49q0 -10 -0.5 -20.5t-0.5 -21.5t-0.5 -21.5t-0.5 -20.5v-85v-37q0 -15 1 -26q-2 -27 -3 -30l-45 19q-29 -13 -76 -72q-50 -62 -50 -84q0 -15 10 -24q5 0 16.5 0.5t22.5 0.5q10 1 19 1.5t15 0.5q70 0 90 -16v-9t-1 -11
q-1 -8 -1.5 -15t-0.5 -12v-94l11 -16l20 -5q27 12 54.5 29.5t55.5 40.5q8 27 8 34q0 4 -4 11v4q0 6 1 9l3 25l15 15h14q14 -1 21 -1h8h48q30 1 53.5 4.5t41.5 9.5q122 47 184 181q54 114 54 256zM608 411q0 -186 -29 -214q-14 -12 -80 -12h-16t-20 1q-9 1 -18 1q-8 0 -14 1
v7q0 36 9 108q4 36 6 62.5t2 45.5q1 33 3 79.5t7 106.5q6 3 31 3q119 0 119 -189zM763 477q0 -140 -53 -252q-62 -131 -179 -176q-33 -13 -91 -14h-48q2 0 -28 1h-18l-20 -21l-4 -29q-1 -8 0 -16q3 -5 3 -7q0 -7 -7 -27q-52 -43 -103 -66l-13 2l-8 11v91q0 9 2 26t2 26
q-22 21 -100 21q-11 0 -34.5 -2t-34.5 -2q-4 5 -4 15q0 20 47.5 78.5t68.5 66.5l45 -18q11 2 13 46q-2 -59 -2 57q0 42 2 127t2 128q0 72 -10 70q-64 -19 -95 -19q-53 0 -76 23l-9 25v5q13 18 45 61q24 32 55 51q17 -3 57 -23q34 -16 63 -16q18 0 52 18t49 20l17 -14v-46
q0 -49 -7 -145.5t-7 -145.5v-218l10 -9l13 -2l14 6q8 28 8 81q0 -6 -7 146q-1 25 -1 48q0 179 65 239l53 50q12 10 27 10q246 0 246 -281zM618 411q0 199 -129 199q-34 0 -40 -8q-9 -124 -10 -191q0 -35 -8.5 -107t-8.5 -109v-13l3 -4q13 0 37 -1.5t37 -1.5q71 0 86 15
q33 31 33 221z" />
    <glyph glyph-name="Q" unicode="Q" horiz-adv-x="772" 
d="M587 370q0 92 -44 160q-48 75 -132 75q-12 0 -16 -1l-3 -125v-48q0 -93 -6 -120q-11 -42 -64 -107v1l-12 -16q7 -4 19 -8t29 -9q24 -5 43 -8.5t33 -3.5h19t18 2q0 2 -4 12q-4 8 -6.5 16t-2.5 15q0 28 42 70q41 40 75 48l10 -5q1 11 1.5 24t0.5 28zM808 151q0 -32 -53 -91
q-52 -59 -84 -59q-33 0 -83 35q-38 28 -49 30q-15 -3 -37.5 -12.5t-53.5 -24.5h1q-63 -29 -125 -29q-163 0 -246 119q-36 51 -53.5 117.5t-17.5 147.5q0 238 199 380q20 14 47 17l20 -11l10 -23v-4q0 -17 -33 -59l-40 -51q-35 -47 -35 -171q0 -26 5 -57.5t13 -69.5v1
q14 -56 24 -77v9q0 5 1 11q0 5 0.5 11t0.5 12q0 7 0.5 13.5t0.5 11.5q1 15 1 27v21q0 1 -3 94q-1 22 -1.5 38.5t-0.5 27.5q0 7 0.5 12.5t0.5 7.5q4 13 28 43.5t69 78.5q93 99 112 99h93q97 0 161 -101q54 -86 54 -179q0 -85 -31 -160h1q-20 -48 -30.5 -78.5t-15.5 -46.5
q4 -10 25 -24q23 -14 43 -14q2 0 16 3l-1 -1q8 2 14.5 3.5t11.5 1.5q17 0 37 -14zM796 160q-14 10 -29 10q-5 0 -11.5 -1t-11.5 -3q-7 -1 -11.5 -1.5t-6.5 -0.5q-12 0 -24.5 3.5t-24.5 11.5q-25 14 -28 32q3 17 14.5 49t30.5 80q31 74 31 156q0 90 -54 174q-61 97 -152 97
h-93q-13 0 -104 -96q-91 -97 -95 -116q0 -2 -0.5 -7.5t-0.5 -12.5q0 -11 0.5 -27t1.5 -38q2 -47 2 -70v-25v-48q0 -5 -0.5 -11.5t-0.5 -13.5q0 -6 -0.5 -12.5t-0.5 -11.5q-1 -13 -1 -24v-18q-23 8 -42 97q-19 79 -19 129q0 131 36 176l40 52q16 20 23.5 33.5t7.5 19.5v3
l-7 17l-15 7q-20 0 -40 -14q-195 -140 -195 -372q0 -161 70 -260q79 -114 238 -114q30 0 60.5 7t59.5 21q33 15 56.5 24.5t38.5 13.5q12 -3 54 -32q25 -17 44 -25.5t34 -8.5q26 0 77 56q50 56 50 86zM596 370q0 -40 -3 -67l-20 11q-14 -4 -30.5 -15t-35.5 -31
q-39 -38 -39 -63q0 -11 7 -27q2 -5 4 -9.5t3 -8.5l-1 -4l-5 -4q-11 -1 -21 -1.5t-21 -0.5q-14 0 -33.5 3.5t-45.5 10.5h1q-23 5 -38 11.5t-22 11.5l18 23q54 67 63 104q6 22 6 117v49l4 132q2 2 8 2h16q89 0 140 -79q45 -67 45 -165zM789 150q0 -24 -47.5 -77t-70.5 -53
q-26 0 -72 32t-61 34q-28 -6 -98 -39q-57 -28 -116 -28q-154 0 -231 110q-67 96 -67 255q0 228 191 365q16 11 32 12l10 -6l5 -11q3 -7 -30 -49q-10 -13 -40 -51q-38 -50 -38 -182q0 -50 19 -131q25 -105 55 -105q4 0 6 4q0 24 2 72.5t2 72.5q0 3 -3 95q-3 75 -1 82
q6 19 92.5 112t97.5 93h93q86 0 145 -92q51 -81 51 -169q0 -80 -29 -153q-40 -98 -47 -130q3 -24 33 -42q28 -17 54 -17q6 0 20 3.5t21 3.5q11 0 21 -7zM606 370q0 99 -47 170q-53 84 -148 84q-27 0 -34 -8l-4 -136v-49q0 -92 -5 -115q-9 -34 -61 -100l-23 -29
q10 -18 69 -33q52 -13 81 -13q24 0 47 3l9 7l1 8q0 8 -7 22.5t-7 23.5q0 20 37 56.5t58 41.5l22 -11l8 4q4 26 4 74z" />
    <glyph glyph-name="R" unicode="R" horiz-adv-x="763" 
d="M432 595v-1v1zM322 188q4 7 5 19t1 30v99q-1 -10 -1.5 -19.5t-1.5 -20.5q-4 -36 -6 -62.5t-2 -43.5q0 -4 -9 -4q4 0 7 0.5t7 1.5zM533 497q0 37 -29 64q-28 28 -65 28h-7v-167l10 10h72l9 23q5 12 7.5 23t2.5 19zM770 153q-7 -28 -53 -86q-52 -67 -81 -67q-67 0 -100 82
q-8 17 -22 49.5t-34 82.5h1q-24 58 -54 64l-3 -1q-1 -9 -2.5 -21t-4.5 -28q-6 -38 -6 -55v-3q4 -3 10 -8t15 -13l7 -24q0 -27 -40 -77q-42 -51 -68 -51q-20 0 -59 10q-34 8 -50 8q-4 0 -11.5 -1t-16.5 -3q-10 -1 -19 -1.5t-16 -0.5q-25 0 -41 16l-5 22q0 56 18 155
q17 100 17 146q0 120 -7 154q-15 84 -71 84q-14 0 -39 -6q-15 -5 -27.5 -6.5t-22.5 -1.5l-24 5l-10 27q0 48 57 104q57 57 102 57q201 0 219 -176q3 40 11 63q21 62 98 109q31 0 76 -7.5t106 -21.5q35 -37 53 -70t18 -63q0 -74 -32 -123q-14 -21 -79 -89q6 0 43 -55
q3 -8 12 -28t24 -54q8 -20 17 -35t19 -25q14 -1 21.5 -4t7.5 -14l1 -2l1 22q45 -3 45 -32v-1zM762 156v4q0 22 -36 22v-3q-6 2 -15 2h-22q-19 19 -39 65q-15 34 -23.5 54t-11.5 28q-20 29 -31 45t-13 18q32 32 51.5 54.5t27.5 36.5q32 50 32 117q0 57 -67 124
q-119 29 -174 29q-72 -44 -93 -103q-5 -16 -7.5 -46.5t-2.5 -76.5v-289q0 -40 -11 -56q-5 -2 -11.5 -3t-11.5 -1q3 1 3 13q0 17 2 44t6 63q4 35 6 62t2 46v145q0 206 -213 206q-41 0 -96 -55q-53 -53 -53 -94l7 -21l19 -4q19 0 46 6h-1q32 8 42 8q63 0 81 -92q6 -36 6 -156
q0 -24 -4 -61t-13 -86q-8 -50 -12.5 -87.5t-4.5 -65.5l5 -19q9 -11 31 -11q14 0 34 3q9 2 17 3t12 1q18 0 52 -10q37 -8 57 -8q21 0 60 48q38 47 38 72l-4 17q-11 8 -17 13t-10 8v8q0 18 6 56q5 37 6 52l12 7q39 -6 64 -70q20 -50 33.5 -82.5t20.5 -49.5q31 -76 92 -76
q26 0 73 62q44 58 53 84zM542 497q0 -11 -2.5 -22t-6.5 -24q-10 -28 -19 -28h-68q-10 -13 -22 -18l-1 6v187l1 1h15q40 0 72 -32q31 -30 31 -70zM752 159q-8 -27 -50 -81q-46 -59 -66 -59q-53 0 -83 70q-15 35 -55 132q-30 73 -74 77l-18 -10q-1 -16 -8 -57q-6 -37 -6 -58
v-12q10 -7 28 -22l4 -14q0 -19 -36 -64t-53 -45q-18 0 -54.5 9t-54.5 9q-10 0 -31 -3t-32 -3q-17 0 -23 5l-3 17q0 51 17 149.5t17 148.5q0 122 -7 158q-19 99 -90 99q-15 0 -43 -7t-42 -7l-14 3l-5 13q0 37 51.5 88t88.5 51q203 0 203 -196v-145q0 -36 -7.5 -107.5
t-7.5 -107.5q0 -23 5 -23q15 0 31 7q14 15 14 63v289q0 89 10 120q18 55 86 96q52 0 166 -27q62 -63 62 -116q0 -66 -29 -112q-16 -24 -82 -93q-1 -2 45 -71q6 -14 36 -81q22 -49 44 -71q89 0 39 2q28 -1 27 -14zM552 497q0 44 -34.5 77.5t-78.5 33.5h-19q-7 -6 -7 -10v-189
l3 -15q18 0 35 19h63q14 0 27 36q11 27 11 48z" />
    <glyph glyph-name="S" unicode="S" horiz-adv-x="690" 
d="M531 260q1 2 1 3t1 3q-2 28 -19 45t-46 17q-20 0 -51.5 -2.5t-74.5 -7.5q-42 -4 -74.5 -6t-54.5 -2q-6 0 -14.5 0.5t-16.5 1.5q-2 0 -4.5 0.5t-4.5 0.5q7 -25 43 -62q44 -46 77 -55q31 -8 54 -18q3 -2 80 -2q90 0 95 20q2 34 9 64zM675 373q0 -112 -99 -238
q-104 -134 -214 -134q-352 0 -352 322q0 200 115 323q117 125 314 125q213 0 213 -85q0 -7 -10.5 -28.5t-31.5 -55.5q-18 -32 -32 -53.5t-22 -32.5l-30 -7q-28 17 -53 54q-23 34 -26 35q-17 11 -86 11q-57 0 -93.5 -3.5t-54.5 -11.5q-50 -21 -58 -87q10 11 15.5 17t9.5 9
l-1 -1q44 43 74 43h16q22 -9 22 -34q0 -17 -21 -38q-3 -3 -4.5 -5t-3.5 -4l4 -2h116q7 0 19.5 1.5t29.5 3.5h-1q36 6 55 6q190 0 190 -130zM666 373q0 120 -181 120q-9 0 -22.5 -1.5l-31.5 -3.5h1q-17 -2 -29.5 -3.5t-20.5 -1.5h-118l-10 6l-3 5q2 2 4.5 6t7.5 10
q18 18 18 31q0 19 -15 25h-13q-24 0 -67 -40l1 1q-9 -7 -43 -46v1q0 94 65 121q20 8 57.5 12t94.5 4q67 0 91 -13q6 -5 29 -38q24 -34 49 -50l19 6q10 14 23.5 34t30.5 48q39 66 39 80q0 75 -203 75q-194 0 -306 -121q-113 -122 -113 -317q0 -313 342 -313q106 0 207 131
q97 124 97 232zM540 259q-3 -17 -5.5 -33t-3.5 -32q-6 -28 -104 -28q-78 0 -84 3q-23 12 -52 18q-18 5 -38 19.5t-44 37.5q-47 48 -48 79q5 -1 10.5 -1.5t11.5 -0.5q8 -1 16.5 -1.5t13.5 -0.5q44 0 128 9q43 5 75 7t52 2q33 0 52.5 -20t21.5 -53q-2 -4 -2 -5zM657 373
q0 -106 -96 -227q-99 -126 -199 -126q-333 0 -333 303q0 191 110.5 310t299.5 119q194 0 194 -66q0 -10 -39 -75q-36 -60 -50 -79l-14 -3q-16 10 -41 45t-32 40q-25 14 -96 14q-116 0 -155 -17q-71 -30 -71 -129q0 -12 6 -19q43 48 51 56q38 37 61 37h12q7 -3 7 -15
q0 -9 -15 -24.5t-16 -22.5l6 -13l14 -8h121q17 0 51.5 5.5t51.5 5.5q172 0 172 -111zM552 260q0 39 -22.5 63t-61.5 24q-43 0 -127.5 -9t-127.5 -9q-9 0 -28.5 2t-28.5 2l-4 -7q0 -36 51 -88q48 -51 86 -60q29 -8 51 -17q8 -4 87 -4q107 0 113 35q2 30 10 65q2 8 2 3z" />
    <glyph glyph-name="T" unicode="T" horiz-adv-x="568" 
d="M539 659q0 1 1 2zM201 492q0 50 -3 74q-22 -22 -35 -60q-17 -48 -17 -90q0 -22 14 -70q7 -23 11.5 -40.5t5.5 -29.5q6 -11 11 -19t9 -14q0 6 1 9v4q0 7 0.5 12.5t0.5 10.5q0 7 0.5 11.5t0.5 7.5zM579 731l-13 -22q-10 -18 -18.5 -33t-8.5 -17q-30 -45 -62 -54
q-19 -2 -35 -4t-31 -4q-32 -4 -41 -6v-12q2 -35 2.5 -75t1.5 -86v-18q0 -42 -3 -78t-8 -66q-3 -14 -51 -48q-11 -6 -17.5 -11.5t-11.5 -9.5q21 -8 31 -8h78q22 0 68 23q60 29 78 29l25 -6l11 -26q-2 -17 -14.5 -41t-34.5 -58q-22 -35 -39 -54t-29 -25q-7 -3 -23 -7t-42 -7
q-26 -4 -43 -5.5t-26 -1.5q-155 0 -236 72q-83 76 -83 236q0 84 24 138q13 31 53 84q14 19 23.5 34t16.5 29q-24 6 -36 6h-3l-4.5 -0.5t-12.5 -1.5q-3 -1 -8 -1h-8q-9 0 -13 1q-9 1 -18.5 5.5t-20.5 12.5v32q76 117 119 117q14 0 32.5 -2t42.5 -5q25 -4 42 -5.5t28 -1.5h132
q34 0 69 3q22 15 82 15l24 -5zM560 755l-18 3q-58 0 -76 -15q-36 -3 -73 -3h-132q-11 0 -29 1.5t-43 5.5q-24 4 -42 6t-31 2q-18 0 -46 -27.5t-63 -84.5v-23q15 -12 30 -14l-1 1q5 -2 13 -2h7t8 1l18 2h3q11 0 49 -9q-7 -15 -18 -33t-27 -41q-20 -27 -32.5 -48t-20.5 -35
q-23 -52 -23 -134q0 -157 80 -228q76 -70 230 -70q8 0 24.5 1t42.5 5q27 4 42.5 7.5t21.5 5.5q21 11 62 77q42 64 48 93l-7 19l-17 3q-9 0 -28.5 -6.5t-46.5 -20.5q-26 -12 -44 -18.5t-29 -6.5h-78q-9 0 -19.5 3.5t-24.5 9.5l-2 4q7 9 39 30q22 15 34 25.5t13 16.5
q5 30 8 65.5t3 76.5v18q-1 46 -1.5 85.5t-2.5 74.5l-1 19q6 3 49 9q15 2 33.5 4.5t37.5 4.5q22 6 51 51v-1q10 13 13.5 22t13.5 27l11 17zM210 298q0 -3 -0.5 -7.5t-0.5 -11.5q0 -5 -0.5 -10.5t-0.5 -12.5v-5q-1 -8 -1 -15v-13v-2h-1q-6 1 -39 51q0 12 -4 29.5t-11 41.5
q-8 25 -11.5 43.5t-3.5 29.5q0 48 16 93q19 51 49 72l3 -1q2 -10 3.5 -31.5t1.5 -56.5v-194zM558 733q-28 -51 -34 -62q-26 -41 -48 -47q-37 -3 -68 -8q-53 -8 -57 -15l1 -23q3 -69 3 -160q1 -91 -11 -159q-2 -7 -43 -35.5t-45 -37.5l8 -10q31 -16 50 -16h78q23 0 76.5 26
t69.5 26l12 -3l5 -11q-5 -24 -45.5 -87.5t-59.5 -72.5q-9 -5 -60.5 -12t-66.5 -7q-150 0 -224 67q-77 71 -77 222q0 80 23 130q12 27 51 81q37 49 49 82l-4 6q-40 11 -56 11q-1 0 -23 -2q-14 -1 -24 0q-13 2 -22 8v18q67 103 100 103q24 0 72.5 -7t72.5 -7h132q38 0 77 4
q15 14 70 14l14 -3zM220 492q0 81 -8 96l-8 2h-5q-33 -23 -54 -78q-18 -48 -18 -96q0 -25 15.5 -75t15.5 -71q38 -59 49 -59l5 1l4 3q-1 15 1 41q2 32 2 42z" />
    <glyph glyph-name="U" unicode="U" horiz-adv-x="699" 
d="M704 142q-4 -17 -17.5 -39.5t-38.5 -50.5q-53 -56 -81 -56q-108 0 -130 104q-2 8 -2.5 15t-1.5 12q-6 -8 -12 -18.5t-14 -22.5q-15 -27 -28 -46.5t-24 -33.5l-26 -7q-42 0 -71 7q-12 11 -104 18q-112 9 -116 28v-1l-5 16q1 12 6 28t13 36q8 17 11.5 29.5t5.5 20.5
q5 34 8 74t3 87q0 89 -1 145t-3 82q-5 4 -9.5 5.5t-6.5 2.5q-10 -2 -22 -1.5t-28 0.5l-19 19l-2 18q0 14 26 69q11 23 19 38t16 28l34 12q11 0 23 -2t28 -6q11 -2 19 -4t14 -2q8 1 14 1t24 2h7q9 0 19.5 -2t21.5 -4l16 -34q0 -23 -8 -58q-6 -33 -6 -47q0 -32 -1 -79.5
t-3 -111.5v1q-3 -126 -3 -190q0 -5 0.5 -11t1.5 -12l9 -8q17 -4 40 -8t54 -9q36 26 57 89q20 62 20 123v188h-56l-20 16l-7 25q6 37 33 80q31 54 66 60l97 -10h4h8t10 1h17q10 0 18.5 -2t18.5 -7l14 -32q-14 -91 -21 -188.5t-7 -202.5v-91q0 -35 10 -51l13 -5q25 5 35 5
q5 0 12 -2t13 -4zM684 160q-6 2 -11 3t-9 1q-13 0 -38 -5l-14 5q-15 19 -15 61v91q0 214 27 390l-10 26q-17 6 -31 6h-16q-5 -1 -10 -1h-9h-4l-97 11q-30 -6 -59 -56h1q-14 -22 -21 -41t-10 -36l5 -16l15 -14h58q2 -2 3 -3.5l1 -1.5v-192q0 -33 -4.5 -64.5t-15.5 -61.5
q-12 -35 -27.5 -59t-37.5 -38q-33 7 -58.5 12t-42.5 8l-11 11q-3 15 -3 28q0 32 0.5 79.5t1.5 110.5q2 64 3 111t1 79q0 18 7 49t7 54l-12 28q-9 1 -18 2.5t-17 1.5h-7q-18 -2 -23 -2t-13 -1q-7 0 -16 2t-21 5q-30 8 -45 8l-31 -12q-9 -13 -16 -27l-17 -34q-26 -54 -26 -64
l2 -14l14 -15h28q12 0 20 2q9 -2 22 -12q2 -24 3.5 -82t1.5 -151q0 -48 -2.5 -88.5t-7.5 -73.5q-2 -10 -7 -23t-11 -30q-9 -18 -13 -33t-5 -26l4 -14l-1 1q3 -11 109 -22q97 -7 108 -20q12 -2 28.5 -3t38.5 -1l19 4q22 26 51 77q12 21 21.5 36.5t15.5 25.5q1 -7 3 -19.5
t7 -30.5q19 -96 120 -96q23 0 73 53q25 28 38 48.5t16 33.5zM684 139q-4 -22 -50.5 -73t-66.5 -51q-92 0 -111 89q-14 66 -17 66l-2 -4q-17 -21 -45.5 -70.5t-47.5 -73.5l-16 -4q-42 0 -60 4q-12 12 -111 20.5t-101 14.5l-4 11q2 19 17.5 56t18.5 55q10 67 10 163
q0 194 -4 238q-20 16 -31 17q21 -2 -45 -2l-9 8l-1 13q0 7 24 58q21 42 30 58l26 9q14 0 43 -7t43 -7q-13 0 33 3q17 1 34 -4l10 -21q0 -17 -7 -50.5t-7 -50.5q0 -63 -3.5 -189.5t-3.5 -190.5q0 -16 5 -33l15 -14q36 -9 108 -21q45 26 71 103q21 63 21 129v192q0 5 -11 15
h-57l-11 8l-4 14q4 28 30 70q27 47 51 51l95 -10q9 -1 32 1q20 2 31 -4l9 -20q-28 -176 -28 -389v-91q0 -46 18 -67l21 -9q25 6 38 6q8 0 12 -2z" />
    <glyph glyph-name="V" unicode="V" horiz-adv-x="725" 
d="M321 206q13 37 13 147v79q-2 -14 -4 -29.5t-4 -32.5q-8 -53 -12 -90.5t-4 -62.5q0 -9 -1 -11h11h1zM541 390q0 192 -80 192q-15 0 -22 -3q-2 -5 -2 -21q0 -15 -1 -41l-2 -89l-21 -222q0 -14 11 -16h-2h30q17 0 31 -1q8 -7 18 -7h4h8q12 17 21 88q3 32 5 61.5t2 58.5z
M713 468q0 -103 -7.5 -168t-23.5 -91q-8 -11 -18.5 -23t-27.5 -23q-20 -14 -30 -22.5t-13 -11.5h1l-64 -69q-20 -23 -40.5 -38t-42.5 -26q-33 0 -84 16q-23 8 -40 12t-29 4h-102q-2 0 -3.5 -0.5t-3.5 -0.5t-2.5 -0.5t-2.5 -0.5q-2 -1 -6 -1h-5q-7 0 -10 1q-5 1 -12.5 3.5
t-18.5 9.5l-10 30q0 14 3 30.5t8 37.5q12 37 12 56q15 144 15 294q0 102 -74 102q-4 0 -12.5 -1t-18.5 -3q-9 -2 -18 -3t-17 -1q-48 0 -48 33q0 4 0.5 6.5t2.5 6.5q43 140 158 140q169 0 204 -154q8 14 25.5 35t45.5 48q73 72 99 72q210 0 210 -300zM703 468q0 291 -200 291
q-22 0 -92 -70q-34 -33 -53 -56t-21 -35q-1 -5 -1.5 -11t-0.5 -15q0 -8 1 -20t3 -29q2 -16 3.5 -27.5t1.5 -19.5v-123q0 -115 -16 -152l-7 -4h-19q-1 2 -1 20q0 50 15 155q8 52 12 91t4 67q0 228 -203 228q-109 0 -151 -136l1 1q-2 -4 -2 -9q0 -24 39 -24q8 0 16.5 1t17.5 3
q10 2 18.5 3t13.5 1q83 0 83 -111q0 -76 -3.5 -149.5t-10.5 -145.5q-1 -7 -4.5 -21t-8.5 -36q-11 -39 -11 -62l11 -29q12 -7 22 -9h-1q3 -1 10 -1q5 0 8 1q2 0 4 0.5t4 0.5t3.5 0.5t3.5 0.5h102q11 0 29 -4t43 -12t44.5 -11.5t33.5 -3.5q39 17 78 61l65 69q5 5 43 34
q17 11 27.5 22.5t16.5 21.5q15 24 22 87.5t7 166.5zM551 390q0 -29 -2 -59t-6 -62q-5 -40 -11 -64t-15 -32l-12 -1h-4q-11 0 -21 8q-14 1 -29 1h-28q-20 3 -20 26l21 221l2 89q2 62 7 70q6 2 13 3t15 1q90 0 90 -201zM694 468q0 -202 -28 -249q-12 -19 -41 -41
q-38 -29 -45 -35l-64 -70q-38 -41 -74 -58q-24 0 -73 16t-75 16h-102q-4 0 -16 -2q-6 -1 -14 0t-18 6l-7 22q0 22 10 59q12 42 13 59q15 144 15 296q0 121 -93 121q-12 0 -33 -4t-33 -4q-34 0 -28 19q40 129 141 129q194 0 194 -218q0 -53 -16 -157t-16 -156q0 -26 7 -30h27
l11 7q17 34 17 159v123q0 16 -4 48t-4 48t2 25q3 20 70.5 86t85.5 66q191 0 191 -281zM560 390q0 211 -99 211q-20 0 -35 -7q-8 -10 -9 -77l-2 -88l-21 -221q0 -32 28 -37q27 0 55 -1q9 -8 29 -7l15 1q21 16 32 104q7 64 7 122z" />
    <glyph glyph-name="W" unicode="W" horiz-adv-x="1081" 
d="M683 456q0 8 -1.5 20.5t-3.5 29.5q-3 -54 -12 -134q-6 -57 -8.5 -99t-2.5 -71v-20q2 1 5.5 1.5t7.5 2.5q15 21 15 182v88zM878 382q0 152 -55 185h1l-7 3.5t-5 3.5h-29l-3 -3q1 -14 1 -28v-27q0 -34 -1.5 -67t-3.5 -66q-1 -8 -3.5 -33t-7.5 -67q-6 -59 -6 -85v-13
q10 -1 23 -2t27 -3q14 -3 25.5 -4.5t19.5 -2.5q24 73 24 209zM1056 465q0 -135 -9 -186q-12 -68 -52 -108l-116 -114q-4 -7 -9 -10q-5 -5 -10 -10.5t-11 -11.5q-12 -11 -25 -18t-30 -8q-19 6 -40.5 8.5t-46.5 2.5h-29q-16 0 -39 -2q-45 -3 -69 -3q-35 0 -63 5
q-29 5 -44 14.5t-15 21.5v4q49 141 49 306q0 89 -9 143.5t-26 71.5l-31 3q2 -3 4 -16h1v-95q0 -27 -3 -63t-8 -81l-19 -141v-11q16 -7 35 -18l12 -28q-3 -14 -12.5 -32.5t-26.5 -41.5q-39 -52 -66 -52v37q-2 -2 -17 -7t-41.5 -10.5t-64.5 -9.5t-86 -2l-27 20q0 67 15 178
q8 55 12.5 95.5t4.5 66.5v96q0 129 -77 129q-12 0 -36 -6q-29 -8 -42 -8h-5l-28 3l-16 29q5 23 16 44t28 44q14 20 31 36t37 30q23 0 45 -1t43 -3l83 -10q72 -56 92 -109q11 -36 11 -134q0 -28 -3.5 -68.5t-10.5 -94.5q-15 -104 -15 -154l4 -8l11 -3l5 1l2 2
q8 111 12.5 172.5t4.5 75.5q0 10 -1 25t-3 37q-3 42 -3 65q0 77 80 159q49 49 79 49q89 0 142 -69q18 -22 29 -46.5t16 -52.5q11 33 56 89q14 19 23 29.5t13 14.5q29 32 55 38q122 -1 185 -101q49 -77 49 -198zM1046 465q0 119 -47 194q-59 95 -176 96q-22 -6 -49 -34
q-3 -3 -11.5 -14t-23.5 -30q-57 -72 -57 -102q0 -11 1 -26t3 -35q6 -38 6 -58v-88q0 -170 -17 -190q-15 -6 -28 -6h-2v30q0 29 3 71.5t8 99.5q7 58 10 101t3 72q0 84 -46 140q-51 66 -135 66q-26 0 -72 -47q-77 -79 -77 -152q0 -22 3 -64q2 -22 3 -37.5t1 -25.5
q0 -27 -18 -252l-6 -6l-10 -3l-18 5l-6 14q0 26 3.5 65.5t10.5 92.5q15 106 15 161q0 96 -12 131q-18 51 -86 104l-80 8q-21 2 -42 3.5t-42 1.5q-34 -24 -64 -63q-32 -43 -41 -81l11 -21l24 -2h4q15 0 39 6q30 8 39 8q86 0 86 -139v-96q0 -27 -4 -68t-12 -96
q-8 -56 -11.5 -98.5t-3.5 -72.5l21 -16q98 -2 149.5 3.5t55.5 7.5v-18q23 0 58 47q32 43 36 68l-9 23q-11 6 -20.5 10.5t-15.5 8.5v18l18 141q12 88 12 142v93h-1q2 28 4 28l37 -3q19 -18 29.5 -74.5t10.5 -150.5q0 -84 -12.5 -160t-36.5 -148v-2q0 -18 50 -27q28 -5 62 -5
q24 0 69 3t68 3q48 0 87 -11q26 1 48 22q6 7 11 12.5t10 9.5q3 3 5.5 6t4.5 5l116 114q35 35 49 103q5 26 6.5 71.5t1.5 112.5zM888 382q0 -72 -7 -126.5t-19 -92.5q-19 0 -54 7q-35 4 -57 6l-1 1l-1 10v11q0 27 6 86q5 42 8 67t4 33q2 33 3 65.5t1 66.5v29q0 16 -1 31l9 8
h36q2 -2 5.5 -4t8.5 -5v1q59 -37 59 -194zM1037 465q0 -131 -9 -182q-11 -64 -46 -99q-20 -19 -116 -114q-10 -10 -31 -32q-18 -18 -39 -20q-37 11 -89 11q-24 0 -69 -2.5t-68 -2.5q-34 0 -60 5q-47 8 -43 19q49 142 49 308q0 198 -45 234l-40 3q-14 1 -15 -58q1 63 1 -72
q0 -51 -12 -141l-18 -141v-25q14 -6 39 -20l6 -16q-3 -21 -33 -62q-33 -44 -51 -44q9 0 -202 8l-15 10q0 55 16 165.5t16 165.5v96q0 148 -96 148q-12 0 -40.5 -7.5t-40.5 -6.5l-18 2l-8 14q8 33 39 73q28 38 59 59q38 0 80 -4l77 -9q66 -50 81 -97q11 -31 11 -128
q0 -53 -14.5 -159.5t-14.5 -160.5l10 -21l24 -6l15 4l11 10q17 228 17 256q0 21 -3.5 63.5t-3.5 63.5q0 71 75 146q43 43 65 43q79 0 127 -61q44 -56 44 -135q0 -57 -12 -171.5t-12 -172.5v-32q2 -7 12 -7q15 0 34 7q21 20 21 198v88q0 20 -5.5 59.5t-5.5 59.5q0 28 55 96
q31 39 35 43q24 26 44 31q109 -1 165 -91q47 -74 47 -189zM898 382q0 162 -64 202q-14 8 -17 9h-42l-14 -13q4 -100 -4 -195q-2 -17 -12 -100q-7 -69 -6 -99l1 -13l7 -7q21 0 59 -5q42 -7 58 -8l6 3q28 79 28 226z" />
    <glyph glyph-name="X" unicode="X" horiz-adv-x="761" 
d="M764 194q0 -51 -70 -124q-35 -35 -64 -52.5t-54 -17.5q-32 0 -55 5.5t-37 14.5q-20 14 -34.5 22.5t-23.5 12.5q-44 59 -58 114q-11 -17 -30 -39t-45 -50q-81 -84 -111 -84q-43 0 -105 31q-74 38 -74 86q0 24 45 81q48 61 81 67l53 -72l-1 1q22 -22 41 -25q12 58 12 118
v13q-7 4 -19 4q-6 0 -17.5 -1t-27.5 -3q-15 -2 -27.5 -3t-21.5 -1q-57 0 -57 35q0 22 48 73q47 53 69 55h12q11 0 28 -1h5h8q-4 138 -113 138q-6 0 -14 -2.5t-19 -9.5h1q-29 -18 -48 -20l-27 12l-8 25q0 43 36 102q40 68 83 68h93q84 0 134 -78q14 -23 24 -49.5t14 -56.5
l5 8q20 25 42.5 50t48.5 52h-1q74 78 93 78q158 0 182 -95q-1 -23 -43 -72q-41 -48 -67 -51q-8 2 -19 8.5t-29 17.5q-25 15 -49 16l-14 -2l-7 -6q-7 -45 -10 -74t-3 -41v-18h24q18 0 50 13q37 15 56 15l24 -5l8 -26q0 -30 -37 -79q-15 -20 -29 -36.5t-28 -29.5
q-52 -3 -71 -8q0 -56 16 -85h-1q19 -34 77 -34q43 0 54 9q19 16 35.5 27t28.5 16l5 -4t7 -5q3 -2 11 -6t13 -6zM752 204q-5 2 -10.5 4.5t-8.5 4.5q-2 1 -5.5 4l-3.5 3q-19 -10 -55 -38q-16 -13 -61 -13q-61 0 -85 39q-8 15 -12.5 37.5t-4.5 54.5v3q16 10 78 13
q11 10 24 25.5t29 36.5q17 23 26 41.5t9 31.5l-6 18l-19 4q-15 0 -51 -16q-17 -6 -30 -9.5t-23 -3.5q-30 0 -34 2v26q0 13 3.5 43t10.5 77l11 11l18 2q14 0 28 -5t28 -13v1q36 -24 43 -25q22 2 60 47q18 23 28.5 39.5t11.5 27.5q-23 85 -173 85q-8 0 -28.5 -18.5
t-56.5 -56.5q-48 -49 -91 -103l-6 -9q-3 -7 -5 -21.5t-6 -40.5q-1 -3 -1 -9q-1 8 -1 17v20q0 82 -40 143q-47 74 -125 74h-93q-36 0 -76 -64q-17 -28 -25.5 -51t-8.5 -43l8 -22l20 -7q5 1 16 4.5t25 13.5v-1q25 14 37 14q120 0 122 -155q-6 -3 -17 -3h-6q-17 1 -27 1h-11
q-16 -2 -62 -51q-47 -50 -47 -67q0 -26 48 -26q8 0 20 1t27 3q16 2 27.5 3.5t19.5 1.5q18 0 28 -10v-17q0 -33 -3.5 -64.5t-9.5 -62.5l-2 -1q-29 2 -54 29h1l-50 66q-24 -4 -69 -62q-21 -28 -32.5 -46.5t-11.5 -28.5q0 -42 69 -78q55 -29 101 -29q28 0 103 81q72 74 84 103
l-1 31v10q0 47 6 47v-21q0 -4 -0.5 -8t-0.5 -9q-1 -12 -1 -15t-1 -9q0 -72 60 -153q10 -4 24.5 -12.5t33.5 -22.5q25 -18 87 -18q44 0 111 67q67 68 67 115zM745 191q0 -42 -64 -107t-105 -65q-58 0 -81 16q-40 29 -57 35q-57 78 -57 147q0 -9 2 23q3 47 -9 47
q-18 0 -16 -66l1 -30q-10 -24 -81 -98q-74 -78 -96 -78q-40 0 -96 29q-64 32 -64 69q0 16 42 70t58 57l45 -62q30 -33 65 -33l6 4q15 64 15 134v21q-13 16 -38 16q-16 0 -47 -4.5t-47 -4.5q-38 0 -38 16q0 12 44 60t56 49q3 0 37 -1q24 -1 33 7q0 169 -132 169
q-16 0 -41.5 -15t-35.5 -16l-15 6l-4 14q0 35 33 89q35 59 67 59h93q74 0 117 -69q38 -59 38 -138q0 -49 7 -71h1q8 0 13 43q7 48 10 56l6 11q40 49 90 100q68 72 78 72q144 0 163 -76q-2 -17 -37.5 -60t-51.5 -44q-7 1 -39 23q-30 19 -62 19l-21 -2l-16 -15
q-14 -97 -14 -125v-30q5 -7 43 -7q20 0 56.5 14t45.5 14l13 -3l4 -12q0 -19 -33 -65q-29 -39 -49 -58q-67 -3 -83 -17q-1 -72 18 -105q26 -43 93 -43q49 0 67 14q34 29 47 34q4 -2 22 -10z" />
    <glyph glyph-name="Y" unicode="Y" horiz-adv-x="753" 
d="M283 194q11 17 13 224q-2 -11 -2.5 -23.5t-2.5 -25.5q-5 -59 -8 -101t-3 -71q0 -3 -1 -3h4zM381 57q-8 -11 -15.5 -19t-13.5 -15q5 0 11 -1t12 -1q22 -3 35 -3q25 0 48 15q29 18 54 146q24 117 24 180q0 108 -20 166q-30 86 -105 86h-16q0 -37 -2.5 -91t-9.5 -125
q-7 -72 -9.5 -124.5t-2.5 -87.5v-3q5 -4 16 -8.5t27 -12.5l12 -28q-3 -23 -45 -74zM722 435q0 -110 -64 -253q-60 -132 -140 -221q-51 -58 -102.5 -86.5t-101.5 -28.5q-33 0 -55 18l-9 27q0 32 26 79q5 11 11 19t11 15q-10 2 -22 4t-27 4q-20 5 -34 7.5t-23 2.5h-4l-68 -2
l-30 37q1 7 6.5 57t16.5 136v-1q7 55 10 101.5t3 84.5q0 86 -6 113q-13 52 -60 52q-5 0 -12 -2t-18 -4q-11 -4 -18 -5.5t-12 -3.5q-4 -2 -9.5 -2.5l-5.5 -0.5l-26 10l-6 27q16 61 52 104q44 55 99 55q158 0 190 -150q14 18 36 39t51 47q72 63 105 63q125 0 189 -120
q47 -92 47 -222zM713 435q0 131 -47 218q-60 114 -180 114q-30 0 -98 -59q-29 -26 -51 -47.5t-36 -39.5v-26q0 -15 1 -33q0 -8 0.5 -15t0.5 -16q0 -8 0.5 -15.5t0.5 -14.5q1 -18 1 -33v-24q0 -241 -19 -260h-16q0 2 0.5 5t0.5 8q0 29 2.5 71.5t7.5 101.5q12 117 12 177
q0 221 -189 221q-51 0 -93 -52q-16 -20 -28 -44t-19 -52l4 -21l20 -7l2.5 0.5t6.5 1.5q5 2 12.5 3.5t18.5 5.5v-1q24 8 32 8q53 0 68 -60q4 -15 6 -43t2 -72q0 -38 -3.5 -85t-9.5 -102q-11 -86 -16 -133.5t-6 -55.5l23 -29l63 2h5q10 0 24.5 -2.5t34.5 -7.5q41 -10 66 -10
q16 0 57 51q41 50 42 67l-9 21q-19 8 -30 14.5t-16 9.5v8q0 35 3 88t10 125q12 142 12 216q0 8 25 8q82 0 115 -91q20 -58 20 -170q0 -65 -24 -182q-27 -134 -58 -153q-11 -8 -24.5 -11.5t-29.5 -3.5q-14 0 -36 3q-11 0 -21 1t-16 1q-26 0 -53 -49q-25 -44 -25 -70l9 -26
q17 -14 46 -14q96 0 196 111q41 45 75 99.5t64 120.5q64 140 64 249zM703 435q0 -106 -62 -245q-59 -130 -137 -217q-97 -108 -190 -108q-25 0 -38 10l-7 20q0 22 24 66t44 44q13 0 36.5 -3t36.5 -3q32 0 59 17q35 23 62 159q24 117 24 184q0 113 -21 173q-34 98 -123 98
q-35 0 -35 -18q0 -72 -12 -214.5t-12 -214.5v-11q6 -9 48 -27l7 -16q-1 -13 -39.5 -60t-50.5 -47q-20 0 -63.5 10t-66.5 9l-59 -2l-18 23q1 15 22 185q13 110 13 188q0 88 -7 117q-17 67 -78 67q-12 0 -35 -7q-33 -10 -36 -11l-13 5l-3 14q13 50 46 91q39 47 85 47
q179 0 179 -211q0 -59 -11 -175.5t-11 -174.5q0 -21 5 -22h24q25 12 25 269q0 29 -2 87.5t-2 86.5q25 32 83 82q66 57 92 57q115 0 172 -109q45 -87 45 -213z" />
    <glyph glyph-name="Z" unicode="Z" horiz-adv-x="605" 
d="M631 178q0 -75 -112 -131q-94 -47 -160 -47h-97q-10 0 -23.5 1.5t-29.5 5.5q-17 3 -28.5 5t-17.5 2q-4 0 -9.5 -1t-13.5 -3q-21 -7 -33 -7l-12 3l-24 24q-6 17 78 151q30 47 48 77.5t25 44.5l-40 3q-40 1 -75 31q14 57 84 133q19 8 50 8h31q8 -9 17 -9q25 0 60 44
q30 39 36 65h-222q4 -7 14 -15v1q25 -25 32 -44q-1 -17 -12.5 -36t-31.5 -39q-43 -43 -72 -43h-24l-40 45q-28 32 -28 53v49q5 5 29 33.5t69 82.5q77 93 98 98q45 -5 72 -7.5t39 -2.5h77q28 0 87 6q30 4 53 6t39 2q11 0 22 -1t21 -2l15 -33q-5 -11 -28.5 -43.5t-65.5 -85.5
q-35 -44 -58.5 -75.5t-35.5 -51.5l13 -1h4q17 0 39 7q17 6 30.5 8.5t22.5 2.5q38 0 38 -29q0 -1 -0.5 -2t-0.5 -3q-24 -88 -86 -121q-20 -10 -46 -15.5t-58 -5.5q-44 -1 -48 -4q-3 -6 -8 -14t-12 -20q-5 -8 -11 -16.5t-13 -19.5v1q-7 -11 -12.5 -19t-9.5 -14v1
q-3 -6 -5 -10.5t-4 -9.5l2 -2q16 -5 33.5 -7.5t37.5 -4.5v1h121q21 0 59 13h-1q45 16 73 16l26 -6zM612 193l-18 5q-26 0 -71 -16q-42 -14 -62 -14h-119v-1q-22 2 -41.5 6t-36.5 9l-7 8q2 6 4 12.5t7 14.5v-1q6 7 12 15.5t11 16.5l-1 -1q7 11 12.5 20t10.5 17q8 11 13 20
t10 14q6 6 53 7q33 1 57.5 6.5t43.5 14.5q58 30 81 110q0 2 0.5 4t0.5 3q0 20 -29 20q-17 0 -50 -11q-25 -7 -42 -7h-5l-27 3q11 19 35.5 54t66.5 86q86 110 91 123l-10 24q-10 1 -20 1.5t-18 0.5q-16 0 -38.5 -1.5t-52.5 -5.5t-52 -5.5t-36 -1.5h-77q-11 0 -38 3l-72 8
q-18 -5 -93 -95q-89 -109 -95 -113v-46q0 -18 27 -48l36 -40h20q26 0 65 39q19 20 29.5 36.5t11.5 30.5q-3 15 -29 38q-19 18 -22 29l2 2h246q-1 -30 -40 -79q-37 -49 -67 -49q-11 0 -21 10h-27q-14 0 -25 -1t-19 -5q-71 -78 -79 -122q27 -25 64 -25l53 -4q-2 -11 -21 -45
t-57 -92q-80 -128 -77 -141l20 -20l6 -2q13 0 31 6q19 6 26 6q13 0 48 -8q16 -4 29 -5t22 -1h97q65 0 155 45q108 54 108 121zM612 173q0 -58 -101 -109q-89 -45 -152 -45h-97q-17 0 -49.5 7t-49.5 7q-10 0 -28.5 -5.5t-26.5 -5.5l-4 1l-17 17q-1 5 78 130.5t79 144.5v6
l-61 4q-33 2 -55 20q8 37 75 110q10 4 38 4h23q11 -9 25 -9q34 0 75 52t41 88l-4 7h-255q-2 -3 -8 -9q2 -15 25.5 -38t26.5 -32q-2 -23 -38.5 -60t-58.5 -37h-16l-34 38q-23 27 -23 41v42q4 4 93 111q73 88 86 91q89 -10 109 -10h77q30 0 89.5 7t89.5 7q19 0 31 -2l7 -15
q-4 -11 -89 -117q-90 -113 -106 -150q-1 -2 4 -5l34 -4q18 -2 50.5 8t47.5 10q22 0 18 -14q-20 -76 -76 -104q-35 -19 -96 -20q-53 -2 -60 -10q-12 -18 -47 -72q-11 -18 -22 -32q-12 -20 -13 -35l12 -13q39 -13 99 -15q-53 1 103 1q22 0 65 14.5t65 14.5l15 -4z" />
    <glyph glyph-name="bracketleft" unicode="[" horiz-adv-x="192" 
d="M42 -72v837h205v-106h-86v-625h86v-106h-205zM238 -62v87h-86v644h86v87h-188v-818h188zM59 -52v798h171v-67h-86v-664h86v-67h-171z" />
    <glyph glyph-name="backslash" unicode="\" horiz-adv-x="207" 
d="M301 714q-5 -38 -24 -83q-22 -55 -51 -71l-24 7q-13 21 -33 28l-1 -1q2 -16 9 -40v1q13 -38 13 -61v-361q0 -11 -36 -134q-18 -62 -28.5 -97t-14.5 -43l-21 -22l-24 -1h-20q-24 22 -24 52q0 29 1.5 73.5t5.5 102.5q6 117 6 175v14t-1 22q0 8 -0.5 16.5t-0.5 19.5v7
q-1 14 -1 26v23v9l-1 1q-6 2 -16.5 2.5t-27.5 2.5q-9 9 -12.5 18t-3.5 20q0 8 7 22t23 32q13 14 19.5 22t8.5 10q6 12 6 29v7q0 3 -0.5 6.5t-0.5 6.5q-1 5 -1 9v9q0 10 2 14q8 43 65 108q62 68 104 68q43 0 82 -24zM278 734q-15 11 -33.5 15t-40.5 4q-39 0 -98 -65
q-28 -32 -44 -57.5t-19 -47.5q-1 -2 -1 -10v-7t1 -9q0 -4 0.5 -7.5t0.5 -7.5v-7q0 -11 -2 -19t-5 -15q-2 -2 -9 -10.5t-21 -23.5q-28 -32 -28 -47q0 -17 12 -30q18 -2 29 -2.5t16 -1.5l5 -7v-12v-23q0 -12 1 -26v-7q0 -11 0.5 -19.5t0.5 -16.5q1 -13 1 -22v-14
q0 -30 -1.5 -73t-5.5 -102q-6 -116 -6 -176q0 -26 18 -42h17l21 1l16 17q8 16 43 138q35 120 35 131v361q0 18 -12 57q-5 16 -7 27t-4 19l8 9q13 -2 23.5 -10.5t18.5 -21.5l16 -5q24 15 45 66q10 21 15.5 39.5t7.5 35.5zM283 709q-5 -28 -22 -71q-20 -48 -38 -58l-10 3
q-18 31 -51 32l-13 -14q1 -17 12 -52.5t11 -54.5v-361q0 -9 -34.5 -128.5t-42.5 -135.5l-12 -13l-17 -1h-13q-13 12 -13 33q0 58 6.5 175t6.5 176q0 18 -2 72q-2 45 -1 71l-9 12q-8 3 -46 6q-7 6 -7 20q0 11 25 40q29 32 32 38q9 16 8 44q-2 36 -1 38q5 40 61 102t91 62
q39 0 69 -18z" />
    <glyph glyph-name="bracketright" unicode="]" horiz-adv-x="192" 
d="M42 -72v106h86v625h-86v106h205v-837h-205zM238 -62v818h-188v-87h86v-644h-86v-87h188zM59 -52v67h86v664h-86v67h171v-798h-171z" />
    <glyph glyph-name="asciicircum" unicode="^" horiz-adv-x="695" 
d="M718 343h-138l-214 158l-214 -158h-139l300 286h107zM417 620h-100l-282 -268h113l218 160l218 -160h111zM674 361h-87l-221 163l-221 -163h-88l263 250h93z" />
    <glyph glyph-name="underscore" unicode="_" horiz-adv-x="438" 
d="M505 -105h-510v68h510v-68zM496 -43h-491v-56h491v56zM487 -93h-473v43h473v-43z" />
    <glyph glyph-name="grave" unicode="`" horiz-adv-x="427" 
d="M278 494h-61l-107 155h131zM235 641h-110l96 -139h47zM258 510h-33l-85 123h89z" />
    <glyph glyph-name="a" unicode="a" 
d="M258 154q7 8 15.5 17.5t19.5 22.5v185l-4 1l-12 3l2 -1l-44 5q-2 1 -4.5 2t-4.5 2q-5 2 -8 3l-3 1q-11 0 -16 -26q-1 -4 -1 -20v-42v-64q0 -38 12 -62q13 -27 39 -27q1 0 3 -0.5t6 0.5zM531 145q0 -12 -29 -67q-13 -23 -21.5 -38.5t-18.5 -26.5q-23 -13 -62 -13
q-56 0 -77 31q-2 4 -6 11.5t-9 18.5q-6 9 -9 15q-6 -8 -15 -17q-9 -11 -15.5 -18.5t-10.5 -12.5l-7 -7q-30 -25 -69 -25q-84 0 -124 72q-30 54 -30 139q0 38 3 84t11 103q26 30 108 82q49 30 78 49t40 28q19 0 41.5 -4t48.5 -14h-1q23 -9 40.5 -12.5t28.5 -4.5q13 0 54 -9
l10 -27v-11q-37 -56 -37 -153v-90q0 -41 9 -56q-3 3 47 3q11 -11 16.5 -17t5.5 -13zM522 145q0 5 -16 21q-51 0 -52 1v-1q-6 8 -8 23.5t-2 38.5v90q0 101 37 157v5l-9 21q-34 7 -45 7q-25 1 -73 17q-50 19 -84 19q-12 -11 -40 -29.5t-74 -47.5q-82 -50 -106 -77
q-6 -53 -9.5 -98.5t-3.5 -84.5q0 -42 7 -75.5t22 -58.5q37 -67 116 -67q39 0 63 23l6 6q5 4 11.5 11t15.5 18q16 21 24 25q3 -3 6 -9t8 -15q5 -11 9 -18t7 -12q18 -26 68 -26q37 0 58 12q5 5 13.5 20.5t22.5 41.5q28 53 28 62zM262 145h-13h-2q-32 0 -45 31q-13 29 -13 67
v64q0 59 1 63q4 34 25 34q2 0 5.5 -1.5t11.5 -3.5h-1q4 -2 8 -2l42 -6h-1q22 -6 22 -12v-189q-14 -14 -23.5 -25.5t-16.5 -19.5zM512 145q0 -8 -26.5 -57.5t-34.5 -59.5q-17 -9 -51 -9q-45 0 -61 22q-6 8 -15 28q-12 25 -20 30q-12 -3 -34 -28q-28 -33 -31 -36
q-24 -20 -57 -20q-73 0 -108 62q-28 50 -28 130q0 75 13 179q21 24 101 74q96 60 114 75q27 0 77 -17.5t75 -18.5q8 0 40 -6l6 -14v-2q-38 -57 -38 -159v-90q0 -47 12 -67q3 -4 56 -4q10 -10 10 -12zM311 187v192q0 14 -29 21l-41 6q-22 7 -26 7q-29 0 -34 -41q-1 -6 -1 -65
v-64q0 -42 14 -70q18 -38 55 -38q-6 0 19 1q14 18 43 51z" />
    <glyph glyph-name="b" unicode="b" horiz-adv-x="474" 
d="M301 304q0 102 -52 102q-32 0 -41 -44q-5 -22 -5 -91q0 -107 52 -107q46 0 46 140zM465 374q0 -92 -19 -139q-13 -31 -36 -66.5t-57 -74.5q-79 -94 -137 -94q-69 0 -117 32h1q-63 40 -63 110v413q0 12 -9 21q1 0 -6.5 4.5t-21.5 14.5l-13 29q0 27 92 80v-1q82 45 114 54
l37 -12l2 -26v-6q0 -13 -3 -33t-11 -47q-14 -58 -14 -80q0 -2 1 -11t3 -26v-4l1 2q10 12 18 21q31 36 67 36q87 0 131 -58v1q40 -49 40 -140zM456 374q0 86 -38 133q-42 54 -124 54q-31 0 -61 -33q-3 -5 -7 -9t-9 -11q-5 -5 -9 -10t-9 -11v5v10q0 6 -1 13q-3 33 -3 38
q0 11 3 31.5t11 49.5q8 26 10.5 45.5t2.5 33.5v5l-1 20l-29 9q-14 -4 -41 -16.5t-67 -35.5q-88 -50 -88 -68l11 -25l21 -15t8 -6q10 -10 10 -26v-413q0 -64 58 -102v1q50 -32 112 -32q51 0 130 91q68 80 91 138q19 47 19 136zM310 304q0 -149 -55 -149q-61 0 -61 116
q0 35 1.5 58.5t3.5 35.5q12 50 50 50q61 0 61 -111zM447 374q0 -88 -18 -132q-24 -59 -89 -136q-75 -87 -124 -87q-62 0 -107 29q-54 35 -54 94v413q0 19 -12 32q-2 4 -28 22l-9 20q0 11 83 58q77 43 103 50l20 -7l1 -12q2 -25 -13 -81q-15 -59 -15 -84q0 -6 4 -39
q3 -26 0 -38l7 -4h3q29 35 42 50q26 30 53 30q78 0 117 -51q36 -45 36 -127zM319 304q0 121 -70 121q-46 0 -59 -58q-5 -25 -5 -96q0 -126 70 -126q64 0 64 159z" />
    <glyph glyph-name="c" unicode="c" horiz-adv-x="370" 
d="M378 144q0 -8 -32 -67q-16 -27 -25.5 -42t-14.5 -19q-23 -18 -86 -18h-45q-17 0 -60 26q-53 32 -71 106q-11 46 -11 123q0 93 6 117q5 19 75 87l86 85l20 5h54l11 -2q4 -3 10 -7l43 -22q18 -11 27.5 -23t9.5 -28q0 -14 -9 -34t-28 -45q-37 -51 -72 -65l-22 23
q-7 26 -16 36t-31 10q-4 0 -7 -50q-1 -6 -1 -27v-58q0 -96 80 -96q9 0 34 10q30 12 42 12q33 0 33 -37zM369 144q0 28 -24 28q-12 0 -39 -13q-11 -4 -20 -6.5t-17 -2.5q-89 0 -89 105v58q0 22 1 28q5 58 16 58q25 0 36 -10.5t18 -38.5l17 -18q26 10 63 59q35 49 35 74
q0 22 -31 42l-46 22q-1 3 -8 8l-8 1h-55l-11 -3l-87 -86q-68 -65 -73 -81q-5 -23 -5 -115q0 -40 2.5 -70.5t7.5 -50.5q9 -35 25 -60.5t42 -39.5q40 -25 56 -25h45q62 0 81 16q5 5 14.5 19t23.5 40q30 52 30 62zM360 144q0 -6 -29 -57t-35 -56q-17 -14 -76 -14h-45
q-12 0 -51 23q-47 28 -63 94q-10 41 -10 119q0 91 5 112q3 12 70 78l85 83l9 2h52h8q2 -2 3 -5l45 -22q29 -18 29 -36q0 -21 -33.5 -67.5t-53.5 -54.5l-10 10q-8 31 -20.5 43t-42.5 12q-20 0 -25 -66q-1 -13 -1 -87q0 -114 98 -114q14 0 40.5 10.5t35.5 10.5q15 0 15 -18z
" />
    <glyph glyph-name="d" unicode="d" horiz-adv-x="480" 
d="M302 273q0 30 -1.5 50.5t-3.5 31.5q-7 30 -32 50t-57 22q0 -12 -1 -28t-3 -36q-2 -21 -3.5 -37t-1.5 -25v-44q0 -95 98 -95q5 0 5 67v44zM461 344q0 -141 -18 -162l-90 -99h1q-9 -11 -19 -22.5t-20 -22.5q-33 -40 -54 -40q-61 0 -104 13t-70.5 41t-40 72t-12.5 107
q0 86 5.5 137t18.5 68q4 7 15 14t30 18q-5 4 -10.5 9.5t-13.5 11.5q-42 39 -42 94q0 25 49 86q51 63 73 63q38 0 38 -41h-35l16 -17l7 -6t7 -17v-6q0 -32 50 -45q54 -14 88.5 -27.5t50.5 -24.5q80 -60 80 -204zM452 344q0 140 -76 197q-32 24 -136 51q-57 15 -57 53v5
q2 16 -1.5 25l-3.5 9l-7 7h16q0 32 -28 32q-19 0 -67 -61q-46 -56 -46 -79q0 -51 38 -87q11 -10 19 -17t14 -12l-3 -5q-43 -22 -49 -31q-22 -32 -22 -200q0 -60 12 -102.5t38.5 -69.5t67.5 -39t100 -12q15 0 47 36q10 11 20 23t19 23l-1 -1l89 100q17 20 17 155zM311 229
q0 -76 -14 -76q-107 0 -107 104v44q0 10 1.5 26t3.5 37t3 37t1 27l2 6l1 1q1 0 1.5 0.5l0.5 0.5q36 0 65 -22t37 -57q2 -11 3.5 -31.5t1.5 -52.5v-44zM443 344q0 -133 -14 -149l-90 -99q-18 -23 -37 -46q-29 -33 -41 -33q-112 0 -160.5 49.5t-48.5 164.5q0 164 20 194
q7 9 50 30l7 14q-11 10 -38 35q-36 32 -36 79q0 17 44.5 73.5t59.5 56.5q19 0 19 -22q0 10 -4 -40q-5 -51 64 -69q103 -27 132 -49q73 -54 73 -189zM320 229v44q0 64 -5 85q-8 39 -40 63.5t-71 24.5q-2 0 -11 -5l-3 -10q0 -22 -4.5 -65.5t-4.5 -64.5v-44q0 -114 116 -114
q23 0 23 86z" />
    <glyph glyph-name="e" unicode="e" horiz-adv-x="401" 
d="M204 318q3 3 7.5 8t12.5 13q0 7 -15 30q-14 20 -16 20q1 0 1 -36v-43q5 2 10 8zM394 148q0 -5 -8.5 -21.5t-25.5 -42.5h1l-42 -64q-49 -20 -61 -20h-34q-88 0 -138.5 51.5t-50.5 142.5v125q0 62 16 85q27 36 86 77q77 54 91 68l17 2h6q8 0 14.5 -2t14.5 -4q3 -7 18.5 -25
t42.5 -48q49 -57 49 -89q0 -19 -92 -96l-94 -78q7 -40 67 -40q6 0 15 2t21 5q16 6 28 8t22 2l24 -4q13 -19 13 -34zM385 148q0 11 -9 25l-20 4q-17 0 -46 -10v1q-27 -9 -39 -9q-73 0 -76 55l97 81q89 74 89 88q0 29 -47 82q-26 29 -40 46.5t-19 23.5q-8 2 -14 4.5t-10 2.5
h-5l-14 -1q-8 -8 -30.5 -25t-60.5 -43q-58 -42 -83 -74q-14 -22 -14 -80v-125q0 -87 48 -136t132 -49h34q5 0 18.5 5t36.5 14l40 61q32 49 32 59zM211 311q-12 -11 -22 -14q-4 5 -4 12v44q0 45 8 45q6 0 23 -24t17 -35v-2q-8 -10 -14 -16.5t-8 -9.5zM376 148q0 -7 -30 -54
l-39 -59q-41 -16 -49 -16h-34q-79 0 -125 46.5t-46 128.5v125q0 57 13 74q22 31 81 72q75 52 89 66l11 1q11 1 21 -3q6 -10 60 -70q44 -51 44 -76q0 -8 -86 -81l-100 -84q0 -68 85 -68q14 0 41.5 9t42.5 9l16 -3q5 -8 5 -17zM242 333v6q0 13 -19 40.5t-30 27.5
q-17 0 -17 -54v-44q0 -12 8 -21q17 0 33 17q7 7 25 28z" />
    <glyph glyph-name="f" unicode="f" horiz-adv-x="247" 
d="M344 694q-3 -12 -12 -32t-24 -46q-34 -58 -63 -66q-23 8 -45 49l-11 4h-2l-1 -3q0 -52 16 -68h85q8 -9 11 -17t3 -18q0 -19 -22 -59q-9 -16 -18 -29t-18 -24l-36 -6q-2 -19 -3.5 -63.5t-1.5 -115.5q0 -73 -27 -196q-38 -164 -99 -164l-30 21l-6 36q0 30 0.5 75t2.5 104
q2 58 3 101t1 72q0 115 -5 133q-8 2 -18.5 4t-22.5 4l-18 35q7 26 38 65q18 21 20 34q-1 6 -0.5 11t-0.5 17v9q0 13 5 25v-1q7 17 27.5 41.5t54.5 59.5q74 77 103 77q79 0 111 -56zM334 703q-29 50 -104 50q-24 0 -97 -73q-66 -67 -80 -99q-4 -7 -4 -20v-9q1 -13 1 -17
q0 -3 1 -10q-3 -17 -24 -42q-29 -36 -34 -56l13 -27q25 -3 42 -9q8 -13 8 -142q0 -29 -1 -72.5t-3 -101.5q-2 -59 -2.5 -103t-0.5 -74l5 -31l24 -17q26 0 48.5 39t39.5 118q27 117 27 193q0 77 2 123.5t5 63.5l38 7q8 8 16 21t18 29q20 36 20 53t-9 25h-86q-20 18 -20 81
l3 8l10 2l14 -5q12 -20 22 -32t21 -15q9 3 22.5 17.5t30.5 43.5q31 54 35 74zM326 698q-4 -22 -34 -71q-31 -53 -46 -57q-13 5 -35 45l-21 8l-16 -3l-6 -15q0 -73 27 -92h85q3 -4 3 -16q0 -13 -19 -48q-17 -31 -30 -45l-39 -7l-3 -4q-8 -31 -8 -193q0 -73 -27 -191
q-34 -150 -76 -150l-19 14l-4 27q0 59 3.5 175t3.5 174q0 138 -11 150q-21 6 -41 9l-10 19q3 15 31 50q26 32 26 51q0 -7 -2 25q0 16 3 24q13 29 78 96q70 71 91 71q70 0 96 -46z" />
    <glyph glyph-name="g" unicode="g" horiz-adv-x="493" 
d="M305 18v1h1zM305 24q0 2 -2 12t-4 21q-2 6 -2 8q-12 -13 -25 -27t-28 -28h-1q5 -1 17 -1q41 0 45 9v6zM297 306v7q0 6 -1 13q-1 6 -1.5 12.5t-0.5 11.5q0 26 -1 29l-2 5q-5 0 -9 1q-5 0 -14 1.5t-20 3.5q-14 2 -23 3t-17 1q-7 0 -7 -146q0 -44 20 -70l-2 1l8 -6l8 -6
q19 -3 28 -3q33 0 33 63q0 3 -0.5 11t-1.5 17q-1 8 -1 16v15q0 5 3 13q1 2 1 4v3zM458 405l1 1q-4 -19 -4 -53q-1 -8 -1 -16v-15v-17q0 -8 1 -16l1 -68q0 -19 9 -61l-1 1q10 -44 10 -69q0 -18 -22.5 -52.5t-67.5 -87.5q-91 -106 -126 -106q-20 0 -40.5 1.5t-43.5 6.5l-80 16
q-10 8 -18.5 14t-13.5 11q-2 4 -10 8l-7 25q0 12 6 30t20 41q19 34 21 39q-60 60 -60 166q0 49 2.5 90.5t7.5 76.5q4 27 96 108q92 83 118 83q13 0 31 -3t42 -11q42 -11 64 -11h31t17 -2l-2 1q42 -8 42 -46zM472 488q0 33 -34 39q-4 1 -45 1q-11 0 -27 2.5t-39 9.5
q-45 12 -71 12q-25 0 -113 -79q-87 -77 -92 -104q-5 -35 -7.5 -76t-2.5 -89q0 -53 15.5 -93t44.5 -69v-3q0 -4 -23 -45q-24 -42 -24 -66l6 -18q4 -3 5.5 -4.5l3.5 -3.5q19 -18 27 -23l80 -15q45 -9 82 -9q31 0 118 102q89 104 89 135q0 11 -2.5 28t-7.5 38q-4 22 -6 37
t-2 26l-2 67q-1 8 -1 17v17v16t1 16q1 17 2 30t3 24v-1zM307 306l-1 -3.5t-2 -6.5q-1 -2 -1.5 -3.5t-0.5 -6.5v-14q0 -8 1 -16q1 -9 1.5 -17t0.5 -12q0 -73 -42 -73q-11 0 -33 3q-10 10 -18 16q-20 27 -20 75q0 155 16 155q8 0 17.5 -0.5t23.5 -2.5q11 -2 20.5 -3.5
t15.5 -2.5l-2 1q4 -2 9 -2q7 -2 9 -9q2 -5 2 -13v-21q0 -5 0.5 -11t1.5 -12q1 -7 1.5 -12.5t0.5 -8.5zM314 24q0 -13 -2 -18q-2 -6 -52 -6q-23 0 -38.5 2.5t-25.5 6.5q31 1 43 9q38 38 65 68q1 -6 2 -13t3 -14q2 -11 3.5 -21t1.5 -14zM463 491l-22 -81q-4 -20 -5 -55
q-1 -33 0 -67l2 -67q0 -22 8.5 -64.5t8.5 -64.5q0 -29 -85 -128t-112 -99q-36 0 -80 8l-78 15q-12 9 -32 28l-5 15q0 17 23.5 58t23.5 50v7q-59 55 -59 158q0 95 10 164q2 20 89 97.5t106 77.5q23 0 68.5 -12.5t68.5 -12.5q38 0 43 -1q27 -5 27 -26zM316 306q0 7 -2 22
t-2 22q0 28 -1 32q-2 19 -18 21q-9 1 -42 6q-26 4 -43 4q-25 0 -25 -165q0 -53 24 -82q7 -5 20 -17q23 -4 36 -4q51 0 51 82q0 10 -1.5 30t-1.5 29q0 3 2.5 9.5t2.5 10.5zM323 24q0 12 -5 36.5t-5 37.5l-4 3h-3q-31 -33 -73 -75q-9 -7 -53 -7l-4 -4q16 -24 84 -24
q59 0 62 18q1 5 1 15z" />
    <glyph glyph-name="h" unicode="h" horiz-adv-x="498" 
d="M238 522q8 11 16.5 18t16.5 12l-1 1q0 10 -2.5 19t-6.5 16q-19 11 -24 11q-3 0 -15 -6q-5 -13 -5 -40q0 -17 3 -42l1 -9l8 10t9 10zM222 35q-17 -21 -88 -36q22 -8 27 -8q103 0 133 91q17 53 17 200q0 105 -58 105q-36 0 -36 -118v-34v-6t1 -8v-10v-25t1 -32
q0 -6 0.5 -13t0.5 -15q0 -7 0.5 -14t0.5 -12q1 -18 1 -36v-29zM484 338q0 -59 -4 -106.5t-14 -82.5q-29 -111 -104 -161q-17 -11 -33 -22.5t-25 -22.5h1q-78 -100 -150 -100q-32 0 -64 53q-14 24 -22 45t-8 40l13 16l-19 9l-6 31q0 161 -1.5 285t-5.5 210v2q0 20 73 117
q75 98 92 103q12 5 30.5 6.5t44.5 1.5q41 0 78 -23q48 -28 48 -75q0 -20 -44 -74q-8 -10 -14.5 -18t-12.5 -14q147 -23 147 -220zM475 338q0 201 -159 212q8 6 18 17.5t24 29.5q41 53 41 67q0 41 -43 67q-17 11 -35.5 16t-38.5 5q-50 0 -72 -7v1q-14 -5 -88 -101
q-71 -92 -71 -111v-1q4 -86 5.5 -209.5t1.5 -284.5l5 -27l26 -11l-18 -23q0 -31 27 -77q31 -49 57 -49q67 0 142 97q11 14 27.5 25.5t32.5 21.5q74 50 101 155q9 34 13 80.5t4 106.5zM213 38v27t-1 34q0 6 -0.5 13t-0.5 14q0 8 -0.5 15t-0.5 13q-1 18 -1 32v25v9q-1 5 -1 8
v7v34q0 128 45 128q67 0 67 -115q0 -155 -16 -203q-33 -97 -143 -97q-5 0 -13.5 2t-19.5 5h1q-25 10 -40 12q54 8 85 17.5t39 19.5zM244 517h1q-11 -13 -18.5 -21.5t-12.5 -14.5l-3 29q-3 25 -3 43q0 29 8 47q8 4 13.5 6.5t7.5 2.5q13 0 33 -14l-3 2q12 -17 12 -39l12 -8
q-23 -5 -47 -33zM466 338q0 -116 -17 -184q-27 -104 -97 -150q-16 -11 -33.5 -23.5t-28.5 -25.5q-74 -93 -135 -93q-21 0 -48 44t-27 68l13 16q11 -1 33.5 -9.5t34.5 -8.5q117 0 151 104q17 53 17 206q0 124 -76 124q-54 0 -54 -137v-34q0 -8 1 -17v-7q0 -28 2 -84.5
t2 -84.5q-12 -16 -114 -31l-18 8l-5 22q0 320 -6 492q-1 14 68.5 106t83.5 97q21 7 69 7q36 0 69 -20q39 -23 39 -59q0 -12 -39 -61t-48 -48l-15 8q0 20 -14 40q-24 15 -37 15q-6 0 -28 -10q-10 -18 -10 -55q0 -18 3 -44l4 -43l4 -1q7 5 41 45q27 31 48 31q167 0 167 -203z
" />
    <glyph glyph-name="i" unicode="i" horiz-adv-x="273" 
d="M50 107q0 -1 -1 -1v0zM49 106l-1 -1zM225 711q0 -19 -10 -59q-2 -5 -2.5 -9t-2.5 -9q-10 -37 -14 -47q-13 -27 -46 -46q3 -1 5 -1.5t5 -1.5q51 -17 65 -28l7 -24q0 -42 -9 -118v1q-4 -37 -6 -64t-2 -45q0 -70 4 -89l49 -8q10 -8 15.5 -15t5.5 -16q0 -22 -35 -77
q-38 -59 -57 -59q-14 0 -31.5 3.5t-41.5 10.5q-48 16 -69 18l-20 18l-2 21v3q0 11 5.5 20t10.5 16q1 -1 1 -2q4 9 9 47q2 18 3 30.5t1 18.5v64q0 45 -1 74.5t-3 44.5h-40l-18 20l-3 20q0 14 8.5 35t25.5 45q25 39 48 50q-2 4 -2 17q0 5 4 24.5t11 52.5q1 2 0.5 2.5t0.5 2.5
v-1q14 55 19 63l-1 -2q8 14 39 26q31 11 42 11q19 0 32 -22v-16zM216 725q-8 15 -23 15q-10 0 -38 -12q-32 -11 -36 -21q-3 -4 -7 -18.5t-10 -39.5h1q-1 -2 -2.5 -8t-2.5 -8q-11 -52 -11 -63q0 -15 5 -23q-22 -3 -53 -49q-32 -49 -32 -74l2 -17l14 -15h40l4 -3
q2 -14 3.5 -45t1.5 -80v-64q0 -7 -1 -19.5t-3 -30.5q-5 -38 -9 -47q0 1 -1 0.5t-2 -2.5v1q-5 -6 -9.5 -13.5t-4.5 -18.5v-3l1 -17l15 -13q22 -3 69 -18q42 -13 70 -13q15 0 50 54q33 54 33 72q0 11 -14 23l-51 6l-4 4q-4 17 -4 95q0 18 1.5 45.5t6.5 64.5q5 38 6.5 67
t1.5 49l-5 18q-10 9 -61 26q-10 3 -17.5 5.5t-15.5 4.5q7 2 14 6q19 8 31 20t19 25q2 3 5.5 15t8.5 31h-1q2 5 3 8.5t3 8.5q9 37 9 57v14zM207 711q0 -17 -9 -54q-14 -54 -18 -62q-11 -24 -45 -40q-15 -7 -24 -7q-15 0 -15 22q0 10 13.5 68.5t17.5 64.5t30.5 16.5t35.5 10.5
q10 0 14 -7v-12zM272 132q0 -15 -32 -66t-43 -51q-25 0 -68 13q-49 16 -67 19l-10 8l-1 13q-1 11 7.5 20.5t9.5 12.5q4 9 8 48q5 35 5 51v64q0 105 -6 131l-7 7h-42l-8 9l-2 14q0 22 30 67t50 45q9 0 59 -17t55 -21l5 -16q0 -37 -8.5 -111.5t-8.5 -111.5q0 -81 6 -100l7 -7
l51 -8q10 -6 10 -13z" />
    <glyph glyph-name="j" unicode="j" horiz-adv-x="245" 
d="M241 501q0 -20 -2.5 -47.5t-8.5 -62.5q-12 -71 -12 -104q0 -17 2.5 -43t7.5 -61t7.5 -62.5t2.5 -47.5q0 -33 -74 -130h1q-36 -50 -63 -73.5t-42 -23.5q-31 0 -73 30q-50 35 -50 70q0 39 57 113l22 2h3q15 0 48 -21q7 -5 12.5 -7.5t9.5 -5.5q-2 14 -5.5 35t-8.5 47
q-7 32 -10 59t-3 47v177q-6 4 -18 6h-2q-4 0 -18.5 0.5t-28.5 1.5l-10 21q0 48 35 89h-1l46 51q0 64 23 118v-1q33 76 103 78l23 -15l2 -28v-15q0 -81 -44 -122l-31 -24q7 -2 20 -4q4 -1 63 -3q8 -17 12.5 -27t4.5 -17zM232 501q0 9 -13 34q-54 2 -60 3q-21 3 -36 12l46 33
q38 36 38 115v15l-1 23l-17 10q-62 -2 -93 -72q-12 -26 -17.5 -55.5t-5.5 -61.5l-46 -54q-33 -37 -33 -79l7 -15q14 -1 25.5 -1.5t15.5 -0.5h2q10 -2 16 -5t11 -6v-181q0 -19 3 -45.5t10 -58.5q7 -34 10.5 -58t5.5 -38l-2 -2q-10 4 -35 20q-16 9 -26 14t-18 5h-3l-18 -1
q-52 -67 -52 -105q0 -29 46 -61q20 -14 37 -22t31 -8q28 0 98 94q71 94 71 124q0 19 -2.5 46t-7.5 62t-7.5 62t-2.5 44q0 35 12 106q6 35 8.5 62t2.5 46zM224 501q0 -35 -11.5 -106t-11.5 -108q0 -36 9.5 -107t9.5 -107q0 -28 -68.5 -118t-91.5 -90q-25 0 -64 28
q-41 28 -41 53q0 33 48 95l14 1q11 1 41.5 -18t42.5 -21l8 8q-2 31 -16 102q-13 65 -13 102v141q0 41 -1 44q-10 14 -34 17q-2 0 -39 2l-3 7q0 36 30 70l49 58q0 65 22 117q29 65 82 66l11 -7l1 -17q4 -83 -39 -125l-51 -38q17 -16 50 -21q7 -1 56 -3q10 -18 10 -25z" />
    <glyph glyph-name="k" unicode="k" horiz-adv-x="447" 
d="M252 367l-2.5 2t-7.5 5q-13 10 -19 10q-3 0 -9 -14v1q-8 -16 -8 -30v-34q7 6 21 21q25 29 25 39zM475 129q-5 -17 -17.5 -38t-35.5 -45q-48 -54 -75 -54q-70 0 -89 56q-4 11 -6 34t-3 61q-1 41 -12 56l-13 3q-7 0 -14 -4q-4 -15 -4 -32v-27q0 -15 1 -35v-20q1 -13 1 -27
v-22l-22 -29q-22 0 -55 -6q-28 -5 -46 -5h-7l-30 1l-19 30v17q0 11 1 24.5t3 28.5q4 21 5 35.5t1 22.5v348l-1 8q0 2 -2 12v10q0 14 7 27q22 28 46.5 58.5t50.5 62.5q65 78 136 78q155 0 155 -86q0 -22 -43 -72q-41 -52 -70 -59l-29 18q-2 23 -12 35q-19 7 -32 7
q-15 0 -36 -6l-1 -1v-91q47 49 64 49q24 0 80 -44h-1q30 -21 46 -38.5t18 -29.5q-2 -11 -11.5 -27.5t-29.5 -38.5l-35 -39q9 -8 20.5 -19.5t26.5 -25.5q20 -25 20 -71v-20q0 -10 0.5 -17t1.5 -14h45l20 -17zM464 146l-15 13h-47q-3 8 -4 17.5t-1 22.5v20q0 44 -17 64
q-17 18 -31 30.5t-25 20.5l43 47q37 42 39 58q-3 22 -60 62q-28 20 -46 31t-28 11q-14 0 -73 -65v2v118l5 5q13 3 23 5t18 2q9 0 18.5 -2t18.5 -5q13 -15 15 -38l24 -15q11 3 25.5 17t35.5 39q40 51 40 66q0 77 -146 77q-66 0 -129 -75q-27 -32 -51 -62.5t-46 -58.5
q-5 -8 -5 -21v-8q2 -10 2 -12q1 -5 1.5 -6.5t0.5 -2.5v-349q0 -19 -7 -60q-2 -15 -2.5 -27.5t-0.5 -23.5v-14l14 -23l26 -1h6q17 0 45 5q17 2 30 3.5t22 1.5l17 24v20t-1 25q0 4 -0.5 9t-0.5 11q-1 20 -1 35v27q0 20 6 37q5 5 10.5 6.5t10.5 2.5l20 -6q13 -15 15 -62
q1 -69 9 -93q18 -49 80 -49q23 0 68 50q22 25 35 43.5t15 32.5zM262 367q0 -12 -28 -45q-22 -25 -35 -30q-3 7 -3 49q0 13 10 33v-1q9 20 17 20q10 0 24 -11q15 -12 15 -15zM456 129q-5 -23 -47.5 -70.5t-61.5 -47.5q-57 0 -72 43q-6 20 -8 90q-1 55 -19 72l-23 5
q-16 0 -30 -11q-8 -20 -8 -44q0 -21 1.5 -62t1.5 -62l-13 -17q-15 0 -48 -6t-50 -5l-21 1l-10 16q-2 23 3 62q7 43 7 61v349q0 -6 -4 23q-2 14 4 21q42 56 96 120q61 72 122 72q137 0 137 -67q0 -13 -38.5 -60t-53.5 -51l-14 9q-1 22 -20 41q-21 9 -42 9q-19 0 -45 -8
l-10 -10v-124l2 -8l6 -5h2q61 68 72 68q16 0 69 -39.5t56 -55.5q-1 -11 -36 -50l-48 -53v-4q21 -15 60 -53q14 -19 14 -59v-20q0 -29 9 -47l3 -3h47l9 -7zM271 367q0 10 -18.5 23t-29.5 13q-14 0 -26 -25q-10 -21 -10 -37q0 -53 9 -59q15 0 45 34t30 51z" />
    <glyph glyph-name="l" unicode="l" horiz-adv-x="270" 
d="M294 124q0 -20 -31 -69q-14 -23 -26 -38.5t-21 -24.5q-27 0 -64 6q-36 6 -52 6l-51 -1l-18 17l-3 20q0 17 2.5 36.5t7.5 45.5q5 25 7.5 42.5t2.5 28.5v333q0 13 -1 21t-3 13q-2 2 -17 11q-22 13 -32 25l-5 21q0 16 80 70q74 49 90 56l32 9l26 -13l9 -25q0 -22 -10 -51
q-14 -37 -14 -39q-2 -5 -2 -31v-71q0 -182 1 -274.5t5 -100.5q-2 6 15 6h35q5 0 11 -0.5t17 -3.5zM278 142q-5 1 -10 1h-11h-35q-23 0 -23 1q-7 17 -7 378q0 89 3 104q1 5 4.5 15.5t8.5 24.5q10 29 10 46l-7 20l-21 11l-19 -6q-11 -5 -34.5 -19.5t-61.5 -39.5
q-76 -52 -76 -62l4 -16q8 -8 29 -21q14 -7 18 -13q7 -12 7 -40v-333q0 -12 -2.5 -30t-7.5 -43q-5 -26 -7.5 -45t-2.5 -33l3 -17l12 -13l48 1q8 0 22 -1.5t32 -3.5q37 -6 60 -6q5 5 15.5 19.5t25.5 38.5q30 48 30 63zM277 122q0 -11 -28.5 -56t-39.5 -55q-17 0 -54 6t-55 6
l-44 -1l-8 7l-2 14q0 25 9.5 74.5t9.5 75.5v333q0 33 -7 46q-4 6 -22.5 16t-24.5 17l-3 12q0 5 72 53.5t90 56.5l20 5l14 -6l5 -15q0 -14 -9 -41q-12 -34 -14 -41q-3 -16 -3 -107q0 -363 8 -381q3 -7 31 -7h35q10 0 15 -1z" />
    <glyph glyph-name="m" unicode="m" horiz-adv-x="772" 
d="M801 133q0 -37 -45 -86q-45 -51 -80 -51q-76 0 -106 56q-19 37 -19 110v37q0 1 0.5 1.5t0.5 2.5v30v14t1 17v15q3 30 3 43q0 63 -25 69l-12.5 -10t-15.5 -14l-9.5 -9.5t-10.5 -9.5v-225q0 -4 1 -12.5t3 -19.5t3 -21.5t1 -21.5l-18 -27q-45 -22 -119 -22q-50 0 -50 43
q0 12 1.5 27.5t3.5 36.5t3.5 36t1.5 25v115q0 77 -7 98q-5 1 -10 1.5t-10 0.5h-12q-11 -11 -18 -20.5t-9 -18.5q-7 -15 -9 -50q0 -5 0.5 -15.5t0.5 -20.5t-0.5 -23t-0.5 -29l-1 -77q2 -15 2.5 -41.5t1.5 -55.5l-21 -21q-8 -1 -22.5 -2.5t-37.5 -5.5q-36 -6 -61 -6l-27 5
l-15 28q12 102 12 203q0 106 -8 143l-15 3q-33 6 -43 18l-8 29q15 36 42 73q17 24 34.5 37t33.5 16h7q8 0 21.5 -2t34.5 -7q43 -9 68 -23l5 -22v-22q5 5 11.5 13t14.5 19q35 47 64 47q12 0 30 -1.5t43 -6.5q61 -11 78 -33v-12q0 -9 -1 -18q-1 -4 -1 -7v-4q6 6 13 14.5
t18 19.5q41 48 63 48h4q52 -8 93.5 -21t73.5 -29l14 -25l-27 -108q-12 -45 -12 -101v-69q0 -30 9 -36h47l20 -13zM789 147l-15 9h-46q-16 7 -16 45v69q0 28 2.5 53.5t9.5 49.5l27 105l-12 19q-31 15 -70.5 27.5t-90.5 20.5h-3q-17 0 -57 -45q-33 -38 -45 -47q0 2 -0.5 3.5
t-0.5 4.5v8v15q1 10 1 17v10q-10 15 -69 26q-24 4 -42.5 6t-29.5 2q-23 0 -57 -44q-28 -37 -40 -44l-3 2v36l-3 19q-9 5 -24.5 10t-38.5 10q-34 7 -53 7h-6q-28 -3 -61 -48q-13 -17 -23 -34.5t-17 -35.5l5 -22q5 -4 14 -8t23 -6q15 -3 22 -5q9 -36 9 -150q0 -54 -2.5 -103.5
t-7.5 -96.5l11 -23l21 -3q12 0 26.5 1t32.5 4t32.5 5t23.5 3l16 16q-1 29 -1 53t-2 39l1 78q0 16 0.5 29t0.5 23t-0.5 19t-0.5 13q1 20 2.5 34.5t5.5 22.5q4 10 11.5 21t21.5 24h16q12 0 27 -3q10 -23 10 -106v-115q0 -20 -6 -62q-2 -21 -3.5 -36.5t-1.5 -26.5q0 -34 41 -34
q68 0 115 21l12 20q0 9 -1 19t-3 21t-3 20t-1 14v230q7 5 13 10t11 10q13 12 20 19t11 9q38 -3 38 -79q0 -14 -3 -44q0 -4 -0.5 -8t-0.5 -8v1q-1 -9 -1 -17v-13v-30q0 -2 -0.5 -2.5t-0.5 -1.5v-37q0 -73 18 -106q14 -26 38.5 -38t59.5 -12q30 0 73 46q43 49 43 80zM782 130
q0 -26 -40 -70.5t-66 -44.5q-64 0 -89 46q-17 31 -17 101v37q0 -3 1 4v16v14q0 15 2 44.5t2 44.5q0 89 -50 89q-10 -8 -61 -54v-234q0 -12 4 -35.5t4 -35.5l-11 -17q-39 -17 -107 -17q-31 0 -31 24q0 21 5 63t5 62v115q0 95 -13 115q-17 3 -33 3h-19q-30 -28 -38 -50
q-8 -19 -10 -62l-1 -1l1 -1q1 -17 0 -81l-1 -79q3 -29 4 -88l-11 -10q-15 -1 -54 -7q-35 -6 -55 -6l-17 3l-8 15q11 94 11 199q0 121 -10 154q-6 7 -29.5 11t-28.5 8l-5 18q14 32 37 64q31 40 56 45q12 2 55 -7.5t56 -16.5l3 -15q0 -30 1 -38l10 -8q15 5 49 49q31 40 49 40
q21 0 70 -9q54 -9 62 -19q0 -4 -1 -23q-1 -18 0 -26q2 -14 9 -18q11 4 54 53q39 44 50 42q98 -17 157 -47l7 -13l-26 -101q-12 -48 -12 -105v-69q0 -44 24 -54h46l8 -6z" />
    <glyph glyph-name="n" unicode="n" horiz-adv-x="520" 
d="M504 126v11l-2 -10zM546 127q-4 -13 -11 -28t-18 -33q-11 -17 -21 -31.5t-21 -25.5l-33 -9q-135 0 -135 106v176v15q0 10 1 22v18q0 6 0.5 10.5t0.5 9.5q0 8 0.5 15.5t0.5 12.5q-11 8 -28 8l-2 -1q-19 -20 -30 -35t-14 -26t-3 -81v-43q0 -25 1 -60q0 -9 0.5 -16.5
t0.5 -14.5q1 -22 1 -42v-33q-13 -22 -71 -32q-20 -2 -34.5 -4t-25.5 -2h-5l-21 2l-18 20v33q0 23 1 57.5t4 80.5q6 90 6 136q0 31 -10 51h-43q-19 15 -19 38q0 24 40 76q22 26 39 40t31 14q129 0 129 -68v-15q4 5 9.5 11.5t13.5 14.5q48 56 68 56q14 0 34.5 -4.5t47.5 -15.5
h-1q51 -18 79 -21l16 -20v-16h-34l13 -6q5 0 9.5 -3.5t2.5 -9.5q-14 -70 -21 -118t-7 -73q0 -8 1.5 -31t3.5 -62q2 -3 7 -8h25v1q15 -1 24.5 -6t14.5 -18zM537 135q-9 18 -32 19v-1h-28q-7 6 -11 14q-4 40 -5.5 64t-1.5 32q0 26 7 74.5t21 118.5q2 13 1 17h9v13l-12 15
q-29 3 -77 19h1q-53 21 -79 21q-14 0 -61 -52q-29 -35 -40 -42v36q0 59 -119 59q-22 0 -62 -51q-39 -47 -39 -70q0 -19 12 -28h46q14 -25 14 -61q0 -46 -6 -136l-3.5 -80.5t-1.5 -57.5v-30l13 -15l17 -1h5q9 0 23.5 2t34.5 5q56 9 63 24v72q0 8 -0.5 15.5t-0.5 16.5
q-1 35 -1 60v43q0 37 0.5 58t1.5 26q9 24 49 67l6 1q22 0 39 -12v-15q0 -7 -1 -18q0 -5 -0.5 -9.5t-0.5 -10.5q0 -5 -0.5 -9.5t-0.5 -8.5q-1 -12 -1 -22v-15v-176q0 -97 128 -97l25 7q8 8 18 22t22 34q25 39 29 57zM528 131q-5 -21 -26 -54.5t-38 -51.5l-23 -6
q-116 0 -116 87v176q0 18 2 55.5t2 55.5q-18 18 -49 18l-9 -1q-45 -45 -53 -73q-4 -13 -4 -87q0 -35 1.5 -102.5t1.5 -101.5q-5 -10 -55 -18q-46 -7 -61 -7l-13 1l-9 10v26q0 45 5.5 136.5t5.5 137.5q0 44 -17 70h-48q-6 5 -6 19q0 19 36.5 65t54.5 46q110 0 110 -49
q0 -43 1 -49h2q9 0 53 48.5t54 48.5q23 0 75.5 -19t75.5 -21l6 -8v-10q0 12 -2 13q-1 0 -7 -28q-28 -140 -28 -195q0 -18 7 -99q5 -8 16 -20q53 0 31 1q19 -1 24 -14z" />
    <glyph glyph-name="o" unicode="o" horiz-adv-x="466" 
d="M195 394v1v-1zM302 270q0 71 -14 94q-16 31 -73 31h-17v-3v-6q0 -25 -6 -53v-98q0 -17 11.5 -34t27.5 -26h7l15 -3h-1l19.5 -3t12.5 -3q11 0 16 20q1 5 1.5 18.5t0.5 36.5v29zM468 342q0 -123 -32 -165q-5 -8 -27 -31.5t-60 -62.5q-81 -82 -92 -82h-34q-79 0 -131 49
q-55 51 -55 132v144q0 60 17 80q8 8 29.5 27t59.5 51q77 67 90 67h27q208 0 208 -209zM458 342q0 200 -198 200h-27q-8 0 -84 -65q-37 -32 -59 -50.5t-29 -26.5q-15 -17 -15 -74v-144q0 -78 51 -124q52 -48 126 -48h34q7 0 85 79q38 40 60 63t27 31q29 39 29 159zM311 241
q0 -23 -0.5 -37.5t-1.5 -19.5v1q-4 -28 -25 -28q-7 1 -12.5 2t-20.5 4q-4 1 -7 1.5t-7 1.5h-10q-18 11 -31 30t-13 39v100q6 30 6 51v6v7l5 6h21q63 0 81 -36q15 -27 15 -99v-29zM449 342q0 -115 -27 -154q-11 -15 -86 -91.5t-79 -76.5h-34q-71 0 -119.5 44.5t-48.5 117.5
v144q0 53 13 67.5t86.5 76.5t78.5 62h27q189 0 189 -190zM320 241v29q0 76 -15 104q-22 40 -90 40h-21q-5 0 -14 -10l-1 -11q1 -22 -5 -56v-102q0 -22 14.5 -44t34.5 -33q6 -1 12 -1q55 -10 49 -10q28 0 34 36q2 10 2 58z" />
    <glyph glyph-name="p" unicode="p" horiz-adv-x="517" 
d="M339 360q0 20 -19 34t-42 14q-37 0 -37 -91v-113q0 -29 -1 -27q4 -12 82 -12h10q7 8 7 38v157zM508 336q0 -119 -43 -186q-29 -48 -141 -143h-82q-1 -5 -1 -13v-21q0 -48 -23 -70q-4 -3 -16 -8.5t-32 -11.5q-16 -5 -27 -12t-20 -15h-11q-3 0 -10 1.5t-17 5.5l-12 20v11
q0 5 0.5 15.5t1.5 26.5q0 5 0.5 10t0.5 10q0 6 -0.5 12t-0.5 11q-1 9 -1 17q0 7 -1 13h-23h-24q-15 0 -25 1l-12 30q7 49 36 87q4 5 15.5 17.5t32.5 32.5v2v13q0 8 1 16v6q3 31 3 41v72q0 20 -1 38.5t-3 35.5h-2q-2 0 -4.5 -0.5t-5.5 -0.5h1q-3 -1 -9 -1h-7q-34 0 -48 35
q15 57 70 121q20 7 36 7q11 0 25 -2t32 -5q17 -4 31 -5.5t25 -1.5l23 -23v-8t1 -9q9 10 18 18v-1q38 37 52 37q197 0 197 -149v-77zM499 413q0 140 -188 140q-5 0 -16 -8.5t-30 -25.5q-8 -8 -14.5 -15.5t-14.5 -15.5q-2 8 -3 15.5t-2 17.5l-17 18q-10 0 -24 1t-31 5t-30.5 6
t-24.5 2q-16 0 -33 -7q-49 -57 -64 -110q11 -27 39 -27h6q5 0 8 1q3 0 6 0.5t5 0.5q8 0 12 -4q3 -39 3 -80v-72q0 -5 -0.5 -15.5t-1.5 -26.5v-6q-1 -8 -1 -16v-12v-6q-23 -20 -35 -34t-16 -19q-25 -31 -33 -78l8 -23q10 -1 22 -1h21q9 0 16.5 0.5t14.5 0.5q3 -15 3 -39
q0 -6 0.5 -12t0.5 -12q0 -5 -0.5 -10.5t-0.5 -10.5q0 -16 -0.5 -26t-0.5 -15v-8l10 -16q12 -4 19 -4h8q8 8 19 14t28 11q37 12 45 19q20 19 20 63q0 34 6 43h83q54 46 87.5 81t48.5 58q42 67 42 181v77zM348 203q0 -35 -11 -48h-15q-84 0 -88 15q-2 4 -2 34v113
q0 100 46 100q27 0 48.5 -16t21.5 -41v-157zM84 405l-1 1zM489 336q0 -112 -40 -176q-28 -45 -132 -134h-84q-10 -9 -10 -53q0 -40 -17 -55q-6 -6 -41 -17.5t-49 -25.5q-6 -1 -18 3l-6 10q0 3 2 47q1 21 0 45q-1 29 -5 46l-4 3q-14 -2 -35 -2q-17 0 -36 1l-6 15q6 40 31 72
q8 10 53 54q-1 17 1 43q3 31 3 43v72q0 44 -4 82q-5 11 -21 11q-4 0 -12.5 -1t-12.5 -1q-22 0 -28 18q12 47 61 103q10 4 25 4q18 0 53 -7t53 -7l12 -12q2 -21 10 -47q20 22 40 42q32 31 39 31q178 0 178 -130v-77zM357 203v157q0 29 -24.5 48t-54.5 19q-55 0 -55 -110v-113
q0 -32 1 -35q7 -23 98 -23h19q16 13 16 57z" />
    <glyph glyph-name="q" unicode="q" horiz-adv-x="480" 
d="M292 382q-4 2 -11.5 5.5t-20.5 6.5q-32 8 -47 8q-11 0 -11 -90v-42q0 -111 54 -111q12 0 24 5.5t12 13.5v204zM478 483q0 -26 -13 -64q-11 -35 -11 -50v-129q0 -47 3 -144q2 -50 2.5 -88.5t0.5 -62.5q-3 -9 -17 -20t-37 -28q-25 -17 -40 -27.5t-20 -15.5h-12h-12t-13 2
l-15 23l-3 127v52q-8 -8 -19.5 -21t-25.5 -31l-24 -5q-91 0 -138.5 52.5t-47.5 144.5q0 65 3 109t11 67q13 40 61 77q67 52 115 103q18 6 39 6q28 0 112 -22q101 -29 101 -55zM469 483q0 11 -24 21.5t-71 24.5q-41 11 -68 16.5t-41 5.5q-18 0 -34 -6q-22 -24 -51 -49.5
t-64 -52.5q-45 -35 -57 -72q-14 -45 -14 -173q0 -88 44.5 -138t130.5 -50l21 5q23 26 37.5 42t22.5 21l-1 -71l4 -126l10 -15q7 -2 11 -2h9h9q9 7 22.5 17t35.5 24q23 16 35.5 26t14.5 17q0 48 -3 147q-3 97 -3 145v129q0 22 11 54q13 38 13 60zM301 178q0 -13 -15 -20.5
t-30 -7.5q-63 0 -63 120v42q0 100 20 100q16 0 49 -10q29 -7 39 -15v-209zM303 385l-1 1zM459 483q0 -20 -11.5 -57t-11.5 -57v-129q0 -48 3 -145.5t3 -145.5q-3 -7 -46 -36q-48 -33 -57 -40q-10 -1 -20 1l-6 10l-4 123l1 78l-7 4q-16 -3 -66 -65l-19 -4q-80 0 -122 47.5
t-42 130.5q0 127 14 170q11 34 54 67q71 54 115 103q11 3 28 3q27 0 107 -21q87 -24 87 -37zM310 178v212q-6 11 -45 22q-34 9 -52 9q-30 0 -30 -109v-42q0 -130 73 -130q18 0 36 10.5t18 27.5z" />
    <glyph glyph-name="r" unicode="r" horiz-adv-x="373" 
d="M378 411q0 -37 -36 -82q-38 -43 -81 -43l-14 3l-17 20v14q0 28 -5 38q-3 -6 -5 -20.5t-2 -39.5v-130q6 -6 31 -6q7 0 19 8q25 11 36 14l27 -9l12 -26q-3 -13 -10.5 -32.5t-21.5 -43.5q-26 -49 -43 -66l-23 -8q-12 0 -29.5 2.5t-40.5 7.5q-35 9 -56 9h-8q-5 0 -13 -1h1
q-5 -1 -9 -1h-8h-8q-3 0 -8 1h2q-10 1 -17 2.5t-18 8.5l-5 22q0 21 15 62v-1q13 36 15 51q3 49 3 191q0 13 -6 27l-3 2q-2 -1 -4 -0.5t-4 0.5q-13 0 -31 10q-11 19 -11 34q0 23 31 67v-1q14 20 26 35t24 23l15 1h10q9 0 19 -1t23 -5l-1 1q21 -5 33.5 -7t18.5 -3
q17 -17 23 -47q3 4 5 7t6 8q32 43 53 43q45 0 70 -56q20 -43 20 -83zM369 411q0 38 -19 79q-24 51 -62 51q-18 0 -46 -39q-9 -13 -14.5 -20.5t-7.5 -10.5q-5 42 -23 60l-20 2.5t-30 6.5q-11 3 -20.5 4t-18.5 1h-9l-13 -1q-23 -17 -46 -53q-29 -43 -29 -62q0 -14 7 -27
q14 -7 26 -7q2 0 4.5 -0.5t4.5 0.5l9 -6q8 -16 8 -33q0 -142 -3 -191q-2 -17 -15 -54q-15 -41 -15 -59l4 -16q6 -3 11.5 -4.5t15.5 -2.5q2 -1 6 -1h8h8t8 1h-1q8 1 13 1h9q20 0 59 -9q20 -5 36 -7.5t27 -2.5l23 9q8 7 17 21.5t23 38.5q27 50 30 70l-10 21l-20 6
q-12 -1 -32 -13q-18 -8 -23 -8q-30 0 -40 10v135q0 69 20 72q5 -6 8 -18.5t3 -31.5v-11l11 -14l12 -2q38 0 71 39q35 43 35 76zM360 411q0 -32 -32 -69t-63 -37l-9 2l-7 8q1 52 -17 67q-32 3 -32 -81v-138q12 -17 49 -17q10 0 28 10t26 11l15 -5l6 -13q-3 -17 -28.5 -64
t-37.5 -58l-17 -6q-20 0 -60.5 9t-61.5 9q-7 0 -23 -1q-15 -1 -26 0q-15 1 -21 5l-3 11q0 15 14.5 53.5t15.5 56.5q3 49 3 192q0 20 -10 40l-14 9q-5 -1 -11 -1q-10 0 -19 5q-5 9 -5 20q0 17 27 56q24 36 42 49l10 1q19 2 47 -4q36 -9 47 -10q15 -14 18 -55l9 -6
q3 1 29.5 36.5t38.5 35.5q32 0 54 -46q18 -38 18 -75z" />
    <glyph glyph-name="s" unicode="s" horiz-adv-x="412" 
d="M228 354q20 12 21 11q0 6 -8 19q-3 6 -4.5 8.5l-1.5 2.5q-3 1 -31 1h-50q0 -23 13 -40.5t33 -17.5q5 0 28 16zM272 165q0 45 -27 45q-14 0 -52 -11q-17 -5 -24.5 -8l-7.5 -3q0 -15 30 -24q29 -8 61 -8q7 0 13.5 2.5t6.5 6.5zM409 291q0 -110 -72 -200q-75 -94 -183 -94
q-20 0 -38.5 6.5t-37.5 17.5q-48 29 -48 72q0 25 32 68q17 23 24 28q-11 11 -20 21t-14 20q-19 29 -19 69q0 32 8.5 64.5t27.5 64.5q35 65 93 94q11 3 26 10t35 18q7 0 12.5 0.5t12.5 1.5q6 1 12.5 1.5t11.5 0.5q38 0 74 -18h-1q48 -23 48 -67q0 -21 -33 -58
q-8 -9 -13 -15.5t-10 -12.5q20 -9 47 -25q12 -13 18.5 -29t6.5 -38zM400 291q0 38 -23 61q-29 17 -53 28q4 6 11 15t18 22q31 34 31 52q0 38 -43 59q-34 17 -69 17q-5 0 -11 -0.5t-12 -1.5q-7 -1 -13 -1.5t-11 -0.5q-36 -20 -56 -26q-29 -15 -52.5 -37.5t-40.5 -53.5
q-18 -31 -26 -62t-8 -63q0 -17 4 -32.5t14 -31.5h-1q9 -18 39 -44l-7 -8.5t-21 -26.5q-31 -42 -31 -63q0 -37 43 -64q35 -22 72 -22q105 0 177 91q69 87 69 193zM281 165q0 -8 -9.5 -13.5t-19.5 -5.5q-34 0 -63 10q-37 11 -37 32q0 7 38 19q20 7 33.5 9.5t21.5 2.5
q36 0 36 -54zM258 365q0 -2 -26 -20l1 1q-29 -18 -33 -18q-24 0 -39.5 20.5t-15.5 47.5q0 9 59 9q32 0 35 -1q1 0 10 -15q4 -8 6.5 -13.5t2.5 -10.5zM391 291q0 -104 -67 -187q-71 -88 -170 -88q-34 0 -67 21q-39 25 -39 56q0 20 29.5 57.5t29.5 40.5v4q-29 27 -40 45
q-16 27 -16 59q0 59 33.5 120t84.5 86q24 7 59 27q7 0 22 2t22 2q35 0 65 -16q38 -19 38 -51q0 -13 -29 -45q-30 -36 -34 -49q24 -9 61 -32q18 -17 18 -52zM267 365q0 12 -9.5 29t-19.5 19q-5 1 -34 1q-68 0 -68 -18q0 -30 18 -53.5t46 -23.5q9 0 38 19t29 27zM290 165
q0 64 -45 64q-19 0 -58 -13q-44 -14 -44 -28q0 -28 43 -42q30 -9 66 -9q13 0 25.5 8t12.5 20z" />
    <glyph glyph-name="t" unicode="t" horiz-adv-x="317" 
d="M328 126q-5 -14 -15.5 -32t-26.5 -40q-39 -54 -60 -54q-28 0 -69 7q-45 6 -64 6q-40 0 -60 10l-14 22q8 32 16.5 52.5t15.5 32.5v207q5 7 5 8q0 31 -9 39q-2 1 -6.5 3.5t-13.5 5.5h1q-28 7 -28 41l3 19q1 2 7.5 9t14.5 18q8 8 17 19.5t21 25.5q17 21 37.5 55t43.5 83
l28 10l23 -2l15 -23v-74t1 -31l6 -4h11t14 1q3 0 6 0.5t7 0.5t7.5 0.5t6.5 0.5h-1q10 1 20 1h16l21 -16l2 -19v-3q0 -14 -25 -59q-27 -50 -39 -53q-11 -1 -23 -3.5t-26 -6.5q-4 -5 -4 -190q0 -17 4 -25q5 -2 11 -2h15h9l48 1l23 -14zM311 148l-16 10l-46 -1h-9q-19 0 -32 3
q-7 11 -7 33q0 181 7 198q35 10 52 11q9 1 35 48q23 43 23 55v2l-1 15l-15 11h-15q-9 0 -19 -1q-3 0 -6.5 -0.5t-6.5 -0.5q-4 0 -7 -0.5t-6 -0.5h-28l-10 7q-3 10 -3 110l-10 16l-16 1l-25 -10q-23 -46 -42.5 -79.5t-37.5 -55.5q-24 -29 -39 -45q-8 -10 -13 -16.5t-6 -8.5
l-3 -17q0 -25 20 -31q22 -8 24 -9q12 -12 12 -47q0 -5 -5 -12v-206q-12 -17 -31 -80l10 -18q12 -6 54 -6q11 0 27 -1.5t39 -5.5q41 -7 67 -7q18 0 53 50q15 21 25 37.5t14 29.5zM309 126q-7 -19 -37 -61q-33 -46 -46 -46q-22 0 -66.5 6.5t-66.5 6.5q-38 0 -48 5l-7 11
q19 61 31 77v204q5 6 5 16q0 39 -14 53q-5 5 -28 13q-14 4 -14 20l2 14q4 5 57 68q36 43 80 135l18 6l11 -1l7 -9q0 -106 5 -114l13 -10q15 0 44 2t44 2l9 -7l1 -11q1 -9 -22 -51t-29 -43q-19 -2 -54 -12q-11 -8 -11 -207q0 -29 9 -41q19 -6 47 -5l43 1l13 -7z" />
    <glyph glyph-name="u" unicode="u" horiz-adv-x="525" 
d="M549 126q0 -37 -44 -81q-46 -44 -82 -44q-48 0 -73 27h1q-10 10 -25 46q-2 5 -4 8.5t-3 6.5q-15 -16 -37 -37.5t-47 -46.5l-24 -1h-3q-13 0 -33 4t-47 13q-59 19 -83 43l-2 18q0 3 3 15.5t10 33.5q2 8 3.5 12t1.5 6q4 9 7 18l4 12q5 13 5 114v53q0 23 -5 35h-9
q-22 0 -43 12l-12 26q8 36 37 79q36 54 70 54q17 0 56 -10l-1 1q36 -9 64 -19q12 -32 12 -70q0 -47 -6 -138q-2 -46 -3 -79.5t-1 -56.5v-12q8 -14 5 -15q8 2 15.5 3.5l12.5 2.5q47 26 47 53v169q-7 2 -16.5 3t-23.5 2q-27 13 -27 38q0 29 31 76q37 52 67 52q18 0 38 -2
t43 -6q70 -13 81 -48q-16 -80 -23.5 -150.5t-7.5 -133.5q0 -5 2 -18t7 -35q2 -1 3.5 -1.5t3.5 -1.5l21 5l18 -6q16 -19 16 -29zM540 126q0 7 -10 19l-17 6l-20 -5q-9 1 -15 9q-5 23 -7.5 37t-2.5 20q0 63 8 134t24 151q-7 25 -74 37q-44 9 -79 9q-12 0 -27 -12t-31 -36
q-31 -46 -31 -71q0 -16 19 -29q16 -1 27 -2t17 -3l4 -6v-172q0 -33 -54 -62q-8 0 -11.5 -0.5t-5.5 -1.5q-5 -2 -9 -3t-5 -1l-3 5t-11 15v16q0 23 1.5 57t3.5 80v-1q3 46 4 80.5t1 57.5q0 18 -2.5 34t-7.5 29q-9 4 -23 8t-34 8q-36 10 -54 10q-29 0 -62 -51
q-14 -23 -23.5 -41t-11.5 -32l10 -21q13 -7 35 -7q3 0 6.5 -0.5t5.5 0.5q12 -14 12 -45v-53q0 -98 -7 -117q2 2 -2 -8.5t-7 -22.5v1q-3 -6 -4.5 -10.5t-2.5 -6.5q-12 -39 -12 -46l1 -14q19 -19 77 -39q53 -17 78 -17h3l20 1q29 29 52.5 52t37.5 38h1q3 -2 13 -27
q15 -35 23 -43q22 -24 65 -24q32 0 75 41q42 40 42 75zM80 175v1v-1zM531 126q0 -30 -39.5 -68t-68.5 -38q-39 0 -59 21q-6 7 -20 40q-13 31 -19 34l-8 -1q-28 -31 -90 -91l-16 -1q-22 -1 -78 17.5t-71 33.5l-1 11q0 3 12.5 42t14.5 46q8 16 8 121v53q0 42 -18 55
q-31 -3 -44 5l-6 14q6 28 33 68q30 45 54 45q13 0 51.5 -8.5t52.5 -14.5q8 -22 8 -56q0 -46 -5 -137t-5 -137v-19q18 -27 23 -27t15.5 4t18.5 3q60 31 60 71v176l-5 9q-14 7 -49 8q-13 7 -13 19q0 23 29.5 66t50.5 43q33 0 78 -8q59 -11 65 -29q-31 -155 -31 -284
q0 -13 10 -61q10 -13 25 -14l20 5l8 -3q9 -10 9 -13z" />
    <glyph glyph-name="v" unicode="v" horiz-adv-x="513" 
d="M347 309q0 33 -17 59q-15 24 -44 24h-8q-22 -21 -22 -34q0 -2 0.5 -9t1.5 -14t1.5 -14t0.5 -12q0 -26 -6 -69v1q-2 -22 -3.5 -38t-1.5 -26q0 -15 67 -15h17l2 15t5 44q4 26 5.5 48.5t1.5 39.5zM512 355q0 -85 -34 -154q-11 -26 -29 -54.5t-41 -61.5q-66 -92 -105 -92
q-20 0 -53 13q-14 5 -22.5 7.5t-13.5 2.5h-131l-18 17l-7 21q0 17 5 41.5t15 58.5q17 65 17 93q0 74 -6 97q-12 39 -59 42q-23 17 -26 45q34 73 91 119q10 1 18.5 2t15.5 1q17 0 32.5 -5.5t29.5 -15.5q13 -11 30 -34q6 -9 11 -14q61 70 90 70q190 0 190 -199zM502 355
q0 190 -180 190q-29 0 -90 -75q-4 3 -8 9t-11 14q-19 26 -28 33q-23 17 -56 17q-9 0 -16 -0.5t-13 -1.5q-26 -22 -47.5 -49.5t-38.5 -63.5q2 -21 18 -33q51 -3 65 -49q8 -27 8 -99q0 -14 -5 -38t-14 -57q-18 -65 -18 -99l3 -15l15 -13h128q6 0 16 -2.5t24 -7.5
q34 -12 49 -12q36 0 97 88q23 32 40 60.5t30 53.5q17 35 24.5 72.5t7.5 77.5zM356 309q0 -18 -1.5 -41t-5.5 -49q-8 -66 -16 -66h-17q-76 0 -76 24q0 11 1.5 27t3.5 38l3.5 38.5t1.5 28.5q0 5 -0.5 11.5t-1.5 13.5q-1 8 -1 14v10q0 19 27 43h12q34 0 52 -29q18 -26 18 -63z
M493 355q0 -79 -31 -146q-24 -49 -69 -113q-60 -84 -90 -84q-15 0 -46 11.5t-43 11.5h-124l-9 8l-4 13q0 29 18.5 94t18.5 97q0 76 -7 102q-15 52 -71 55q-11 9 -13 24q31 64 81 104q13 2 25 2q30 0 51 -16q8 -6 25.5 -30.5t27.5 -30.5h1q64 79 88 79q171 0 171 -181z
M365 309q0 40 -19 69q-22 33 -60 33h-14q-35 -29 -35 -53q0 -8 2 -24.5t2 -24.5q0 -22 -5 -65.5t-5 -66.5q0 -33 85 -33h17q16 0 26 74q6 53 6 91z" />
    <glyph glyph-name="w" unicode="w" horiz-adv-x="761" 
d="M339 322q0 74 -35 74q-15 0 -29 -22q-12 -21 -12 -44v-76q-1 -2 -3 -14.5t-4 -35.5q-3 -29 -3 -44q1 5 16 2l-1 1q9 -2 17 -3t13 -1q12 11 20.5 22.5t12.5 22.5q8 24 8 68v50zM581 315l2 2q0 75 -46 75q-21 0 -27 -17q-5 -12 -10 -98q-3 -68 -3 -107q5 -1 17 -1h35h13
q4 5 7 20v-2q3 8 4.5 15t3.5 12v93zM752 316q0 -22 -17.5 -66t-51.5 -111q-77 -143 -115 -143q-15 0 -36.5 2.5t-48.5 7.5q-23 4 -41.5 6t-29.5 2h-8l-44 -1l-29 17q-2 6 -2.5 12t-1.5 11q-4 -4 -8 -8.5t-9 -9.5q-36 -39 -56 -39q-21 0 -60 12q-16 6 -27 8.5t-19 3.5
q-6 -1 -15 -1.5t-19 -1.5h-6q-7 0 -16.5 2t-20.5 4l-16 23l28 83q5 19 8.5 37t3.5 36v120q0 53 -11 70l-10 3q-20 -6 -32 -8t-19 -2l-21 12v12q0 31 32 78q17 23 32 39.5t32 27.5h19q49 0 70 -11q12 -6 37 -36l-1 1q13 -16 20 -22q54 68 84 68q78 0 111 -18q15 -10 32 -38
q6 -12 12 -19q5 4 11.5 12t17.5 21q36 45 64 45q103 0 148 -81q29 -56 29 -160zM743 316q0 103 -29 156q-42 76 -139 76q-25 0 -57 -41q-26 -35 -35 -39q-5 2 -10 8.5t-11 16.5q-17 29 -29 35q-15 9 -41.5 13t-64.5 4q-27 0 -82 -72q-12 9 -29 29v-1q-12 15 -20.5 23.5
t-13.5 11.5q-18 9 -65 9h-15q-27 -17 -59 -63q-32 -49 -32 -73v-8l14 -7q13 0 50 10l14 -4q15 -18 15 -78v-120q0 -37 -13 -76l-25 -78l11 -17q15 -5 31 -5h6q10 1 18.5 1.5t14.5 1.5q8 0 20.5 -3.5t29.5 -8.5q19 -6 33 -8.5t24 -2.5q15 0 48 35q11 12 19 20.5t13 13.5l2 -3
v-6q0 -16 4 -31l22 -13l42 1h8q13 0 31.5 -1.5t41.5 -6.5q27 -5 48 -7t35 -2q35 0 106 137q69 130 69 173zM592 317q0 -1 -2 -7l-3 -6v-90q-5 -9 -9 -25q0 -3 -0.5 -3.5t-1.5 -2.5q-2 -8 -4 -14.5t-5 -8.5h-18q-51 0 -61 3q-1 3 -1 6q0 20 1 46.5t3 61.5q2 44 4.5 69t4.5 32
q8 23 37 23q55 0 55 -84zM348 272q0 -49 -7 -70q-9 -26 -39 -53h-1q-12 0 -35 5q-23 6 -23 5q0 8 1 20t3 27q2 20 4 32t3 15v77q0 12 3 24.5t11 24.5q14 26 36 26q44 0 44 -83v-50zM733 316q0 -40 -67 -169q-70 -132 -98 -132q-27 0 -81 9.5t-83 8.5l-39 -1l-17 9
q-4 17 -2 35l-9 14q-7 -4 -42 -42q-30 -33 -41 -33q-19 0 -54 11.5t-54 11.5q-12 -2 -32 -3q-17 0 -31 4l-7 10l25 74q13 40 13 79v120q0 67 -20 87l-19 5q-41 -11 -47 -11l-7 4q-2 24 29 70q30 43 53 59q56 2 76 -9q7 -3 30.5 -30.5t36.5 -35.5h2q57 75 79 75q73 0 101 -16
q11 -6 26 -32t29 -31q11 3 43 44q29 38 49 38q92 0 130 -71q28 -53 28 -152zM602 317q0 94 -65 94q-35 0 -45 -30q-6 -17 -11 -103q-3 -69 -3 -109q0 -5 1 -10q9 -9 70 -9h22q9 8 15 31.5t10 29.5v91q0 1 3 7t3 8zM358 272v50q0 92 -54 92q-27 0 -45 -30q-15 -26 -15 -54
v-75q-2 -6 -7 -48q-3 -31 -3 -48q0 -8 30 -14q22 -5 37 -5h5q33 30 43 59q9 24 9 73z" />
    <glyph glyph-name="x" unicode="x" horiz-adv-x="374" 
d="M258 359q0 23 -16 25q-8 -8 -12.5 -12t-6.5 -6q-5 -8 -5 -23q0 -24 -1 -24h15q19 0 20 1l0.5 4.5t2.5 14.5q3 16 3 20zM400 427q0 -25 -41 -71h1q-29 -33 -30 -30q0 -24 -2.5 -41t-6.5 -29q-7 -14 -19.5 -28t-32.5 -29q-21 -2 -48 -6v-27q9 -4 27 -4q5 0 27 5q27 9 43 9
l23 -5l12 -28q0 -29 -46 -86q-46 -56 -74 -56h-12q-7 0 -16 1q-5 0 -10.5 0.5t-11.5 0.5h-8q-9 1 -17 1h-14h-2q-11 -17 -31 -70q-12 -35 -31 -53.5t-42 -24.5l-28 15l-3 28q0 23 6 52.5t20 66.5q23 72 23 104v64q-23 4 -49 14l-16 29q0 38 28 62q5 3 14 10t23 15
q0 7 0.5 15t0.5 18q0 11 -0.5 21.5t-1.5 19.5l-1 1h-3q-10 0 -19 1.5t-19 3.5l-14 30q5 17 12.5 36.5t21.5 39.5q13 20 26 35t28 25q20 0 37.5 -1.5t33.5 -5.5q27 -5 44.5 -15.5t23.5 -27.5q-1 -3 -1 -6t-1 -5q4 4 6.5 7.5t6.5 8.5l-1 -1q17 21 31.5 31t27.5 12
q8 -2 21.5 -7.5t33.5 -13.5q4 -6 9.5 -14.5t10.5 -15.5l-1 1l13 -19q18 -32 18 -63zM391 427q0 29 -14 54l-15 22q-5 7 -9 14t-9 13q-38 16 -48 20q-11 -1 -24.5 -10.5t-28.5 -29.5q-8 -9 -15 -18.5t-14 -20.5v10q0 8 0.5 15t1.5 14q-5 14 -20 22t-40 14q-16 4 -33 5.5
t-35 1.5q-11 -8 -23 -22t-24 -34q-13 -22 -21 -38.5t-12 -30.5l11 -24q15 -4 32 -4h5l7 -5q2 -11 2.5 -22t0.5 -24v-21q0 -9 -2 -18q-15 -9 -25 -15.5t-14 -10.5h1q-26 -20 -26 -53l13 -23q12 -5 24.5 -8t23.5 -5l5 -5v-68q0 -19 -6.5 -45.5t-17.5 -62.5q-26 -75 -26 -114
l3 -23l20 -11q40 7 63 72v-1q22 60 36 76h6h14q8 0 17 -1h8q6 0 12 -0.5t11 -0.5q9 -1 16 -1h11q23 0 68 52q41 52 43 79l-9 22l-19 4q-14 0 -38 -8q-21 -7 -30 -7q-20 0 -32 5l-4 6v34l4 5q16 2 27.5 3.5t21.5 2.5q19 14 30.5 27t16.5 25q9 19 9 67l32 35q38 44 38 65z
M267 359q0 -5 -3 -21l-5 -26q-2 -3 -27 -3h-15q-8 0 -8 34q0 10 1 17t6 12q2 2 7.5 7t15.5 15h2q26 0 26 -35zM382 427q0 -19 -35 -57.5t-35 -42.5q0 -45 -8 -63q-9 -23 -42 -46q-17 -1 -51 -7l-8 -10v-41l7 -10q13 -7 38 -7q11 0 33 7t33 7l15 -3l6 -14q-1 -21 -42 -70.5
t-60 -49.5q-13 0 -50 2q-31 2 -49 1q-16 -15 -40 -83q-21 -57 -53 -64l-14 8l-1 17q0 37 24.5 110t24.5 111v72l-10 10q-24 3 -46 12l-10 18q0 23 22 42q9 9 41 28q4 18 4 45q0 30 -4 50l-12 11q-18 -1 -34 3l-8 16q6 23 30.5 62t42.5 52q31 0 63 -6q45 -10 53 -28
q-2 -14 -2 -28t2 -27h6q18 26 38 50q27 35 43 36q9 -2 44 -18q14 -20 30 -44q14 -25 14 -51zM276 359q0 44 -35 44h-5q-25 -23 -27 -25q-10 -13 -10 -35q0 -43 18 -43h15q29 0 33 6q4 2 8 30q3 17 3 23z" />
    <glyph glyph-name="y" unicode="y" 
d="M157 6q-6 -2 -11.5 -3.5t-10.5 -2.5q3 -2 6 -2.5t5 -2.5q13 -6 24 -6q70 0 109.5 43.5t39.5 115.5v161q0 44 -25 75l-8 3q-38 -2 -46 -17l1 1q-9 -17 -9 -67v-129q0 -11 3 -39q3 -27 3 -42q0 -59 -33 -78q-9 -1 -21.5 -3.5t-26.5 -6.5zM500 357q0 -110 -16 -180
q-23 -95 -79 -165q-9 -12 -42 -29h1q-26 -15 -26 -16q-14 -20 -32.5 -38.5t-40.5 -38.5q-55 -46 -96 -46h-3l-23 1q-12 8 -22.5 23.5t-21.5 36.5q-9 18 -15 35.5t-11 34.5l12 24q-12 7 -19 22t-10 42q14 20 14 160q0 27 -0.5 59t-0.5 70l-1 25l-7 7l-45 10l-16 31
q9 43 39 85q38 52 73 52q102 0 120 -56q2 3 4.5 6.5t6.5 7.5q11 14 20.5 24t17.5 14l41 4q4 0 7.5 0.5t7.5 0.5q67 0 117 -65q46 -62 46 -141zM491 357q0 75 -45 135q-44 62 -109 62q-4 0 -7 -0.5t-7 -0.5l-38 -4q-15 -7 -35 -34q-9 -13 -14.5 -20.5t-8.5 -11.5
q-3 70 -115 70q-31 0 -66 -49q-28 -39 -37 -78l12 -23l44 -11l12 -11l1 -28q1 -38 1.5 -70t0.5 -60q0 -142 -13 -163q4 -55 35 -55q20 0 53 9q31 10 49 12q25 14 25 68q0 15 -3 42t-3 39v129q0 26 2.5 44t6.5 26q13 22 57 22l11 -5q14 -16 21.5 -36.5t7.5 -45.5v-161
q0 -76 -42.5 -122.5t-116.5 -46.5q-5 0 -12 2.5t-15 5.5q-10 3 -18.5 6.5t-15.5 3.5l-17 -6l-10 -18q4 -14 9.5 -29.5t15.5 -34.5q19 -40 40 -55l19 -1h3q39 0 89 44q45 37 73 76q2 4 28 18q16 9 25.5 15t14.5 12q55 68 77 162q15 67 15 177zM481 357q0 -109 -14 -175
q-21 -91 -75 -157q-9 -10 -37 -25.5t-32 -21.5q-27 -37 -70 -74q-52 -43 -86 -41l-17 1q-15 11 -34 50q-18 35 -23 59l5 11l11 4q11 0 30.5 -9t30.5 -9q78 0 123 49t45 129v161q0 56 -32 91l-15 6q-52 0 -67 -27q-10 -18 -10 -75v-129q0 -13 2.5 -40.5t2.5 -40.5
q0 -48 -19 -59q-16 -1 -48.5 -11t-49.5 -10q-22 0 -26 44q18 28 11 295l-1 32l-17 17l-41 9l-9 16q7 33 35 72q31 44 58 44q106 0 106 -65q0 -4 8 -4h5q2 3 26 35q19 25 30 30l37 4q69 7 115 -57q42 -57 42 -129z" />
    <glyph glyph-name="z" unicode="z" horiz-adv-x="307" 
d="M314 132q0 -20 -4 -38t-13 -33q-2 -5 -6 -12t-9 -16q-3 -5 -7 -11.5t-8 -14.5q-50 -92 -71 -113v1q-49 -49 -126 -49q-22 0 -40 9q-27 16 -27 43q0 14 22 77q11 32 18.5 52t11.5 26l30 19l37 -21v-20q0 -10 5.5 -16.5t15.5 -6.5q23 0 38 15t15 39q0 29 -26 56
q-24 30 -49 30q-8 0 -27 -8q-24 -9 -42 -9l-24 4l-9 27q0 29 29 77q14 23 26 39.5t22 24.5q2 1 4.5 2.5t9.5 4.5l-1 -1q6 3 13.5 6t15.5 8q16 7 16 18q0 63 -56 63q-6 0 -23 -14q-27 -18 -46 -21l-22 13l-7 22q0 32 32 88q32 59 59 70h125l18 -16q14 -11 22 -17.5t13 -12.5
q29 -34 29 -70q0 -52 -19 -83q-4 -6 -12.5 -15t-23.5 -22q-10 -10 -14 -20q5 -7 13.5 -15.5l20.5 -20.5q30 -30 39 -51q12 -32 12 -87zM305 132q0 27 -2.5 48t-8.5 35q-8 19 -37 48t-38 41q5 16 19 28h-1q27 25 34 36q18 28 18 78q0 33 -26 64q-5 4 -12.5 11t-21.5 18
l-16 13h-118q-26 -9 -56 -64q-30 -54 -30 -84l4 -16l18 -8q6 1 16 5.5t22 13.5q21 15 29 15q65 0 65 -73q0 -17 -21 -27q-9 -4 -16 -7.5l-13 -6.5l-7 -3.5t-7 -2.5q-15 -15 -43 -61q-29 -47 -29 -68l8 -21l19 -4q14 0 37 10q10 3 17.5 5t12.5 2q30 0 56 -32q28 -31 28 -63
q0 -28 -18 -46t-44 -18q-15 0 -22.5 9.5t-7.5 23.5q0 2 0.5 7t0.5 7l-30 16l-22 -14q-2 -5 -9.5 -23.5t-18.5 -51.5q-22 -65 -22 -74q0 -23 22 -34q15 -9 36 -9q74 0 120 47q11 11 29 38t41 71l7.5 15l6.5 13q5 9 9 15.5t6 10.5q16 29 16 67zM296 132q0 -34 -14 -61
q-8 -14 -30 -55q-47 -86 -68 -108q-43 -43 -114 -43q-18 0 -32 7q-18 10 -18 26q0 7 21.5 70t26.5 72l17 10l20 -10q-3 -22 7 -36.5t31 -14.5q30 0 50.5 20t20.5 53q0 36 -30 70.5t-63 34.5q-12 0 -33 -8.5t-32 -8.5l-14 2l-6 15q0 17 27 61.5t42 57.5q14 7 40.5 20t26.5 35
q0 82 -74 82q-10 0 -33 -16.5t-33 -17.5l-11 6l-3 12q0 24 29 76.5t48 59.5h115q39 -33 46 -40q24 -27 24 -57q0 -46 -16 -72q-6 -9 -32 -34q-19 -17 -23 -38q7 -9 42 -45q28 -29 35 -46q10 -26 10 -79z" />
    <glyph glyph-name="braceleft" unicode="{" horiz-adv-x="358" 
d="M326 -112q-92 0 -138 39h1q-54 46 -54 145v15q0 10 1 21q0 3 0.5 6.5t0.5 7.5q0 5 0.5 8.5t0.5 7.5q1 11 1 20v15q0 53 -21 76q-16 17 -96 25v107q73 6 95 25q23 18 23 73q0 9 -0.5 21t-2.5 30q-3 36 -3 54q0 109 67 152q47 31 168 31v-108q-65 -1 -84 -17
q-18 -17 -18 -63v-19t1 -26q0 -4 0.5 -7.5t0.5 -6.5q1 -9 1 -18v-13q0 -109 -57 -161q57 -51 57 -164v-19t-1 -25t-1 -24v-18q0 -24 5.5 -39.5t17.5 -25t31 -13.5t47 -4v-108h-43zM360 -102v89q-28 0 -47 4.5t-31 15t-17.5 28t-5.5 43.5v18t1 24t1 25v19q0 115 -63 163
q63 52 63 162v13t-1 17q0 3 -0.5 6.5t-0.5 8.5q-1 15 -1 26v19q0 52 22 70q20 19 80 20v89q-109 0 -155 -30q-62 -41 -62 -144q0 -17 3 -53t3 -52q0 -60 -27 -81q-23 -18 -91 -26v-89q36 -3 59.5 -9.5t34.5 -17.5q23 -25 23 -83v-15t-1 -20q0 -4 -0.5 -7.5t-0.5 -8.5
q0 -4 -0.5 -7.5t-0.5 -7.5v1q-1 -11 -1 -21v-15q0 -95 51 -137q41 -37 131 -37h34zM326 -93q-85 0 -126 36q-47 40 -47 129q0 17 2 50.5t2 50.5q0 64 -26 90q-23 23 -91 29v71q62 6 87 27q31 26 31 89q0 17 -3 52.5t-3 52.5q0 98 58 135q44 29 141 29v-70q-54 -1 -77 -21
q-25 -22 -25 -78q0 -16 1.5 -45.5t1.5 -44.5q0 -116 -71 -162q71 -41 71 -163q0 -15 -1 -43t-1 -43q0 -58 23 -79t78 -22v-70h-25z" />
    <glyph glyph-name="bar" unicode="|" horiz-adv-x="237" 
d="M98 -230v1020h82v-1020h-82zM173 -220v1000h-68v-1000h68zM112 -211v982h55v-982h-55z" />
    <glyph glyph-name="braceright" unicode="}" horiz-adv-x="358" 
d="M273 249q-20 -23 -20 -76v-15t1 -20q0 -4 0.5 -7.5t0.5 -8.5q0 -4 0.5 -7.5t0.5 -6.5v-36q0 -99 -53 -145h1q-47 -39 -139 -39h-43v108q56 1 79 18t23 64v18t-1 24t-1 25v19q0 113 57 164q-57 52 -57 161v19q0 12 1 27v-1q0 4 0.5 8t0.5 8q1 9 1 16v13q0 46 -24 62.5
t-79 17.5v108q122 0 169 -31q66 -43 66 -152q0 -8 -0.5 -22t-1.5 -32q-2 -18 -2.5 -30t-0.5 -21q0 -55 23 -73q22 -19 94 -25v-107q-79 -8 -96 -25zM267 256q11 11 34.5 17.5t58.5 9.5v89q-67 8 -90 26q-27 21 -27 81q0 16 3 52q1 18 1.5 31.5t0.5 21.5q0 104 -61 144
q-47 30 -156 30v-89q55 -1 79 -20t24 -70v-14q0 -7 -1 -16q0 -4 -0.5 -7.5t-0.5 -7.5q-1 -15 -1 -26v-19q0 -111 63 -162q-63 -47 -63 -163v-19t1 -25t1 -24v-18q0 -52 -23 -71t-79 -20v-89h34q91 0 132 37q50 43 50 137v36q0 3 -0.5 6.5t-0.5 7.5q0 5 -0.5 8.5t-0.5 7.5
q-1 11 -1 20v15q0 58 23 83zM261 263q-26 -26 -26 -90q0 -17 2 -50.5t2 -50.5q0 -89 -47 -129q-41 -36 -127 -36h-25v70q56 1 79 22t23 79q0 15 -1 43t-1 43q0 122 71 163q-71 46 -71 162q0 15 1.5 44.5t1.5 45.5q0 56 -24 77t-79 22v70q98 0 142 -29q57 -37 57 -135
q0 -17 -2.5 -52.5t-2.5 -52.5q0 -63 31 -89q25 -21 86 -27v-71q-67 -6 -90 -29z" />
    <glyph glyph-name="asciitilde" unicode="~" horiz-adv-x="699" 
d="M704 230l-9 -15q-109 -59 -199 -59q-23 0 -56 5.5t-77 18.5q-81 23 -121 23q-58 0 -208 -80v118q119 64 209 64q23 0 56 -6.5t77 -18.5q78 -22 121 -22q63 0 207 80v-108zM695 322q-131 -73 -198 -73q-40 0 -124 23q-84 24 -130 24q-88 0 -200 -59v-100q139 74 199 74
q40 0 124 -24q86 -23 130 -23q87 0 192 57l7 12v89zM685 234l-5 -8q-97 -54 -184 -54q-43 0 -127 24t-127 24q-62 0 -189 -68v80q103 56 190 56q43 0 127 -23.5t127 -23.5q66 0 188 67v-74z" />
    <glyph glyph-name="exclamdown" unicode="&#xa1;" horiz-adv-x="174" 
d="M196 655q0 -26 -32 -60q-8 -8 -15 -14t-14 -9l4 -3q57 -225 57 -456q0 -37 -31 -78q-26 -35 -66 -35q-34 0 -56 44q-23 46 -23 72q0 52 7 120t22 154l5 29v-1l4 32l8 64q5 19 9.5 32.5t11.5 22.5q-8 4 -15 8.5t-15 12.5q-29 28 -29 62q0 28 33 62h-1l39 42q40 0 75 -48
q22 -31 22 -53zM187 655q0 9 -4 20.5t-15 25.5q-32 46 -65 46l-37 -40q-30 -33 -30 -55q0 -30 27 -55q22 -20 41 -23q-20 -9 -29 -56l-9 -70l-4 -32v1l-5 -29q-15 -86 -22 -153.5t-7 -118.5q0 -25 22 -68q20 -39 49 -39q35 0 59 32q29 38 29 72q0 232 -54 450l-16 11
q17 3 42 29q28 29 28 52zM179 655q0 -18 -25.5 -45t-41.5 -27q-21 0 -44.5 22.5t-23.5 46.5q0 18 28 48l34 37q26 0 55 -42q18 -25 18 -40zM179 113q0 -30 -27 -66q-22 -28 -53 -28q-25 0 -42 34q-21 42 -21 63q0 100 29 271l5 28l4 32l9 69q11 49 28 51l14 -10
q54 -215 54 -444z" />
    <glyph glyph-name="cent" unicode="&#xa2;" horiz-adv-x="432" 
d="M185 253q0 -77 19 -115v243q-19 -42 -19 -128zM440 194q-18 -164 -133 -194v-101h-103v99q-84 19 -129 93q-44 68 -44 170q0 98 46 168q48 75 127 94v74h103v-73q24 -7 45 -19.5t39 -29.5q45 -45 45 -107q0 -78 -73 -78q-38 0 -56 23v-199q28 29 35 112h71zM430 191
l-20 26h-60q-9 -98 -52 -121v315q0 -2 0.5 -4t0.5 -4l3 -63q12 -40 61 -40q64 0 64 68q0 58 -43 100q-17 17 -39 29.5t-47 17.5v72h-85v-72q-79 -16 -127 -90q-46 -71 -46 -164q0 -97 43 -165q45 -73 130 -90v-98h85v100q114 25 132 183zM176 253q0 120 37 161v-304
q-37 36 -37 143zM289 15v-97h-67v95q-86 15 -132 88q-41 65 -41 160q0 91 44 158q47 74 129 89v70h67v-70q53 -11 89 -46q40 -40 40 -94q0 -59 -55 -59q-42 0 -52 34l-3 61q-2 27 -19 36v-358q60 16 69 125h47l16 -19q-17 -152 -132 -173zM222 434q-55 -39 -55 -181
q0 -128 55 -162v343z" />
    <glyph glyph-name="sterling" unicode="&#xa3;" horiz-adv-x="503" 
d="M396 158q6 8 21.5 26t29.5 35l58 -39l8 -38q-48 -70 -116 -144l-25 -3v-2h-14l-10 -1l-2 2q-58 6 -122 38q-33 17 -57.5 28t-40.5 16q-5 -6 -9.5 -13.5t-11.5 -16.5q-1 -1 -2 -1l-1 -1.5t-4.5 -6.5t-10.5 -17l-81 46q11 25 26.5 56t36.5 69h1q10 16 21 29t25 26
q13 -5 23 -8l20 -6q23 17 23 36q0 11 -8 24h-139v110h63q-38 61 -38 118q0 94 72 148q63 47 155 47q79 0 137 -38q73 -46 73 -125q0 -82 -78 -82q-58 0 -73 47q-5 20 -5 73q0 20 -61 20q-34 0 -55 -12q-23 -14 -23 -38q0 -26 92 -158h172v-110h-141q-9 -56 -61 -106
q91 -44 113 -44q3 0 21 18zM405 153q-20 -20 -28 -20q-24 0 -130 50q64 57 70 118h139v91h-167q-49 70 -72.5 112t-23.5 56q0 30 27 45q25 15 60 15q70 0 70 -30q0 -53 5 -70q12 -41 64 -41q69 0 69 73q0 74 -69 118v-1q-58 37 -132 37q-88 0 -149 -46q-69 -51 -69 -140
q0 -31 12 -62t35 -66h-72v-91h137q11 -19 11 -33q0 -26 -31 -45q-35 8 -43 12q-12 -12 -22.5 -24.5t-20.5 -28.5h-1q-38 -69 -56 -112l66 -38q6 11 8.5 15.5t3.5 5t0.5 -0.5t0.5 0q8 11 14.5 20t11.5 14q31 -7 106 -45q63 -34 121 -37l1 -2l8 1h4v1l30 3q59 66 110 137
l-7 29l-49 34q-14 -16 -25.5 -31t-16.5 -23zM411 147q11 14 39 47l38 -25l5 -23q-45 -64 -105 -130l-33 -4l-1 1v-1q-49 0 -122 37q-80 41 -112 49q-14 -17 -39 -53l-51 30q12 29 51 98v-1q19 33 39 53q15 -6 42 -13q39 23 39 56q0 18 -16 43h-131v72h80q-55 74 -55 137
q0 85 65 133q58 43 143 43q71 0 127 -35q65 -40 65 -109q0 -63 -60 -63q-44 0 -55 34q-5 14 -5 67q0 39 -79 39q-38 0 -64 -15q-33 -18 -33 -54q0 -31 101 -177h163v-72h-139q-1 -68 -77 -130q121 -58 146 -58q10 0 34 24z" />
    <glyph glyph-name="currency" unicode="&#xa4;" horiz-adv-x="606" 
d="M418 319q0 39 -29 66q-28 29 -67 29q-32 0 -60 -19q-37 -44 -37 -76q0 -42 27.5 -69.5t69.5 -27.5t69 27.5t27 69.5zM546 318q0 -53 -28 -107l61 -58l-90 -92l-61 59q-26 -14 -53.5 -20t-54.5 -6q-54 0 -105 26l-59 -59l-92 92l59 59q-26 54 -26 107q0 51 26 105l-58 59
l89 95l61 -63q54 28 107 28q52 0 106 -28l62 63l88 -95l-60 -60q28 -54 28 -105zM537 318q0 55 -30 108l58 57l-76 81l-59 -59q-53 28 -108 28q-57 0 -109 -28l-58 59l-77 -81l56 -57q-28 -54 -28 -107q0 -56 28 -110l-57 -56l79 -79l57 58q26 -16 52.5 -22.5t54.5 -6.5
q29 0 56.5 6.5t54.5 22.5l58 -58l77 79l-59 56q15 26 22.5 54t7.5 55zM427 319q0 -46 -30 -76t-75 -30q-46 0 -76 29.5t-30 76.5q0 37 35 80q30 24 71 24q43 0 73 -31q32 -31 32 -73zM553 153l-64 -66l-58 57q-53 -32 -111 -32q-54 0 -108 32l-56 -57l-66 66l56 55
q-30 54 -30 111q0 55 30 109l-55 55l64 68l57 -58q55 31 110 31q56 0 109 -31l58 58l63 -68l-57 -56q33 -54 33 -109t-33 -110zM436 319q0 46 -33.5 79.5t-80.5 33.5q-48 0 -83 -32h1q-34 -35 -34 -81q0 -50 33 -82.5t83 -32.5q49 0 81.5 32.5t32.5 82.5z" />
    <glyph glyph-name="yen" unicode="&#xa5;" horiz-adv-x="598" 
d="M293 522q7 -12 18 -32t28 -48q42 72 63 113t23 51q-5 -12 -57 -12v104h244v-77l-28 -27q-45 0 -69 -39q-2 -2 -4.5 -6t-6.5 -13q-4 -6 -8 -13.5t-9 -16.5h96v-109h-153l-4 -9h157v-108h-192v-174q12 -1 33 -1h53v-105h-321v105h52q22 0 34 1v2v172h-200v108h162l-6 9
h-156v109h94l-27 51l2 -1q-26 38 -103 38v104h302v-104h-58q6 -11 16 -29t25 -43zM285 517q-19 33 -30.5 54t-15.5 31q8 1 22 1h39v86h-283v-86q71 0 101 -42l-1 1l36 -65h-101v-90h151l16 -29h-167v-89h199v-181q0 -7 -1 -10q-11 -2 -33 -2h-52v-87h303v87h-53t-32 2
q-1 2 -1 7v184h192v89h-163l14 29h149v90h-102q8 14 13.5 25t10.5 19q5 9 7 13l2 4q27 45 76 45l21 22v64h-225v-86q57 0 58 4q-1 -15 -95 -183q-20 33 -33.5 56t-21.5 37zM277 513q17 -30 63 -108q105 184 105 203q0 5 -59 5v66h207v-50l-16 -16q-49 0 -78 -47
q-3 -5 -43 -79h109v-71h-146l-24 -47h170v-70h-193v-194q0 -8 4 -15q18 -4 83 -4v-67h-285v67q64 0 83 4q4 10 4 18v191h-200v70h174l-27 47h-147v71h108l-43 80q-33 46 -100 46v66h265v-66q-60 0 -63 -2q0 -14 49 -98z" />
    <glyph glyph-name="brokenbar" unicode="&#xa6;" horiz-adv-x="244" 
d="M100 -169v430h86v-430h-86zM100 293v432h86v-432h-86zM180 302v413h-73v-413h73zM180 -160v412h-73v-412h73zM114 312v393h59v-393h-59zM114 -150v392h59v-392h-59z" />
    <glyph glyph-name="section" unicode="&#xa7;" horiz-adv-x="461" 
d="M328 289q-14 15 -36.5 32t-54.5 37q-30 19 -51 33t-34 22q-15 -20 -15 -35q0 -27 45 -63q29 -23 88 -61q24 -16 43 -29t34 -24q14 18 14 35q0 23 -33 53zM471 288q0 -76 -66 -148q22 -37 22 -77q0 -30 -10 -60t-33 -61q-8 -11 -30.5 -36.5t-57.5 -63.5l-243 90l75 138
l188 -71q4 7 4 11q0 16 -33 42q-3 2 -28 19.5t-72 46.5q-60 39 -89 64q-71 62 -71 151q0 73 65 143q-11 17 -16 37t-5 42q0 93 134 218l242 -91l-80 -136l-187 70q-2 -3 -2 -9q0 -27 65 -65q54 -34 89 -57.5t52 -37.5q43 -38 65 -77.5t22 -81.5zM461 288q0 78 -83 152
q-17 14 -52 38t-87 56q-70 42 -70 73q0 8 7 22l188 -71l69 118l-226 85q-127 -119 -127 -206q0 -46 24 -80q-68 -68 -68 -142q0 -84 69 -144q14 -12 35.5 -28t51.5 -35q49 -32 74 -48.5t27 -18.5q36 -28 36 -49q0 -11 -8 -23l-190 71l-65 -120l228 -85q67 71 83 95
q41 59 41 115q0 39 -25 78q68 73 68 147zM334 296q37 -33 37 -60q0 -20 -22 -47q-15 11 -36 25.5t-48 31.5q-31 20 -53 35.5t-36 26.5q-48 40 -48 70q0 20 23 49q11 -8 33.5 -23t57.5 -38q30 -20 52.5 -36.5t39.5 -32.5v-1zM381 142q28 -38 28 -79q0 -53 -39 -109
q-19 -26 -78 -90l-212 78l56 104l189 -71q14 21 14 35q0 26 -41 57q-5 5 -102 67q-60 39 -86 63q-65 57 -65 136q0 73 72 141q-28 36 -28 81q0 84 120 196l210 -80l-59 -102l-188 71q-12 -21 -12 -33q0 -37 74 -82q106 -65 138 -93q80 -70 80 -144q0 -72 -71 -146zM340 304
q-32 30 -93 70q-81 54 -97 65q-32 -34 -32 -61q0 -35 53 -78q29 -23 89.5 -62.5t89.5 -61.5q30 32 30 60q0 31 -40 68z" />
    <glyph glyph-name="dieresis" unicode="&#xa8;" horiz-adv-x="449" 
d="M374 622q0 -16 -4 -25q-2 -5 -9.5 -18t-18.5 -33q-2 -3 -3.5 -5.5t-3.5 -7.5q-15 -26 -21 -31q-10 -11 -37 -11q-15 0 -24.5 5t-15.5 14q0 17 17 61q5 11 6 17q0 -3 -4 -7q-3 -5 -12 -22t-23 -43q-19 -25 -46 -25q-13 0 -22.5 2.5t-17.5 10.5v26q0 8 17 48l18 48
q10 25 32 25h44q26 0 26 -29v-6q4 10 6 13q11 19 49 19h11q36 0 36 -26zM264 622q0 21 -18 21h-44q-15 0 -23 -21l-19 -47q-16 -41 -16 -45v-23q5 -4 12 -6t19 -2q22 0 37 20q14 27 23.5 44t12.5 23q16 23 16 36zM366 622q0 18 -28 18h-11q-32 0 -42 -15q-2 -3 -7.5 -17.5
t-14.5 -39.5q-17 -44 -17 -57q4 -5 11 -8.5t20 -3.5q21 0 31 8q3 2 7.5 9.5t11.5 18.5q3 5 4.5 8.5t3.5 6.5q20 33 24 44q7 19 7 28zM357 622q0 -11 -4 -22q-3 -8 -25 -46t-26 -41q-6 -6 -25 -6t-23 7q0 8 16.5 52t22.5 55t34 11h11q19 0 19 -10zM255 622q0 -9 -13 -32
q-9 -14 -36 -66q-13 -17 -31 -17q-19 0 -23 3v20q0 3 16 43l19 47q7 15 15 15h44q9 0 9 -13z" />
    <glyph glyph-name="copyright" unicode="&#xa9;" horiz-adv-x="721" 
d="M381 286q-4 -4 -4.5 -5t-0.5 -6l33 -1zM658 350q0 77 -37 142q-23 37 -52 63q-2 -4 -5 -9.5t-7 -11.5h1q-1 -2 -3 -5.5l-2 -3.5q-2 -5 -4.5 -7.5t-4.5 -6.5t-5 -8.5l-5 -7.5q-9 -12 -17.5 -20.5t-17.5 -10.5q-14 -5 -51 -5h-12q-6 0 -13 1q-3 0 -6 0.5t-6 0.5
q1 -6 1.5 -22.5t0.5 -44.5v-120h1q-2 -27 -20 -47q-5 -5 -9 -8t-9 -7q6 -1 13.5 -1.5t16.5 -0.5q20 0 58 16q51 20 65 20h18l12 -16q0 -28 -31 -75q-29 -45 -47 -58q-17 -14 -112 -14q-204 0 -204 238q0 90 30 150q15 30 42 57.5t65 53.5q20 12 39 15l21 -6l11 -22
q-1 -6 -6 -17q41 41 55 41q7 0 12 -2l10 -4q2 -1 6 -1h50q4 1 7.5 2t8.5 3v1q-67 37 -137 37q-75 0 -140 -37t-101 -103q-38 -67 -38 -139q0 -77 37.5 -141.5t103.5 -101.5v1q67 -37 138 -37h9q54 0 103 23t86 60.5t59 86t22 100.5v9zM729 341q0 -69 -28.5 -131t-76 -108.5
t-108.5 -74t-127 -27.5h-10q-92 0 -177 47q-40 24 -71.5 55.5t-54.5 73.5q-47 81 -47 174q0 95 49 177q50 84 130 129q83 44 171 44q92 0 175 -48q42 -23 74 -55t54 -72q47 -85 47 -175v-9zM720 350q0 90 -46 170q-22 38 -52.5 69.5t-71.5 54.5q-80 47 -171 47
q-86 0 -166 -44q-81 -44 -128 -125q-46 -79 -46 -172q0 -91 44 -169q23 -40 53.5 -71.5t70.5 -54.5q81 -46 172 -46h10q64 0 123.5 26.5t105.5 72t74 106t28 127.5v9zM668 350v-9q0 -53 -22.5 -103.5t-61 -89.5t-89.5 -63t-107 -24h-9q-37 0 -72.5 10t-70.5 28
q-68 38 -106.5 105t-38.5 146q0 73 40 144q38 69 104 107t144 38q36 0 71.5 -10t69.5 -28q5 -3 9.5 -6t9.5 -6q-11 -2 -20 -5.5t-17 -7.5h-52q-3 0 -9 2q-5 2 -10.5 4t-8.5 2q-10 0 -62 -50l-56 -57q4 18 13 27q44 48 45 64l-6 16l-15 3q-18 -1 -35 -13q-74 -51 -103 -107
q-29 -58 -29 -146q0 -228 195 -228q90 0 107 12q15 12 43 56q31 48 31 65l-8 10h-13q-8 0 -23 -4t-38 -14q-40 -17 -62 -17q-33 0 -47 5l-1 4q9 7 16 12.5t13 11.5q17 18 18 40h-1v120q0 72 1 77q4 -1 8.5 -1.5t10.5 -0.5q7 -1 13 -1h11q34 0 48 5q8 2 15 9t15 17q2 4 5 8.5
t5 8.5l4 6t5 8l2 3.5t3 5.5v-1q6 11 9.5 19.5l3.5 8.5l-1 6q39 -32 66 -75q40 -68 40 -147zM299 433q1 -9 1.5 -17.5t0.5 -13.5v-135q0 -3 -1 -4q-18 25 -18 84q0 17 2.5 37.5t7.5 46.5q2 7 2.5 12t2.5 11q1 -6 1 -11t1 -10zM388 279l10 -5l-12 1q0 2 2 4zM710 350
q0 -90 -44.5 -167.5t-122.5 -120.5t-164 -43q-90 0 -167 44.5t-120.5 122.5t-43.5 164q0 90 45.5 168t124 120.5t161.5 42.5q88 0 166 -45t121 -120q44 -80 44 -166zM677 350q0 81 -40.5 151t-111 108.5t-146.5 38.5q-80 0 -149 -39.5t-108 -109.5q-41 -73 -41 -149
q0 -81 40.5 -150.5t111 -108.5t146.5 -39q81 0 151 40.5t108.5 110.5t38.5 147zM553 565q0 -3 -16 -30q-9 -15 -19 -30q-13 -19 -25 -23t-45 -4q-7 0 -23 1.5t-24 1.5q-7 -5 -7 -87v-92q0 -40 1 -27q-1 -20 -15 -35q-9 -9 -31 -24l-3 -2v-4l8 -11q18 -8 52 -8q23 0 66.5 18
t56.5 18h8l3 -4q0 -14 -28 -57t-41.5 -53.5t-101.5 -10.5q-185 0 -185 219q0 87 28 141.5t100 104.5q15 10 28 11l9 -3l4 -8q-2 -11 -43 -56q-15 -17 -27 -78q-11 -52 -11 -86q0 -75 30 -100q8 9 8 20v135q0 10 -2 32t-2 32l61 61q47 47 55 47q5 0 14.5 -3.5t13.5 -3.5h54
q15 6 40 14l8 -5z" />
    <glyph glyph-name="ordfeminine" unicode="&#xaa;" horiz-adv-x="243" 
d="M137 597v1v-1zM108 603q0 -1 3 -1zM129 513q2 2 2.5 3t2.5 3l3 4v73l-17 3l-6 2v-1v-58q0 -22 15 -29zM269 496q0 -10 -14 -36t-22 -34q-18 -8 -35 -8q-24 0 -42 15q-2 7 -6 12q-26 -29 -54 -29q-82 0 -82 109q0 19 1.5 41.5t5.5 50.5q8 10 20.5 20t32.5 23l27 18v-1
q7 5 16 10.5t16 10.5q21 0 47 -9q10 -3 17.5 -5t12.5 -3h2q6 0 14.5 -1.5t17.5 -5.5l6 -19v-10q-17 -26 -17 -68v-42v-15q3 1 19 1q17 -14 17 -25zM260 496q0 7 -12 16q-20 0 -22 -1q-1 5 -1.5 10.5t-0.5 13.5v42q0 44 17 72v3l-5 15q-15 6 -25 6q-7 0 -15 2t-19 5
q-13 5 -23 7t-17 2q-8 -5 -16.5 -9.5t-15.5 -9.5h1q-7 -5 -13.5 -9t-12.5 -9q-20 -14 -33 -23t-18 -16q-4 -24 -5.5 -46t-1.5 -42q0 -100 74 -100q27 0 51 31v-1q1 2 1.5 2.5t1.5 2.5q5 -8 8.5 -13.5t5.5 -10.5q10 -9 34 -9q18 0 29 6q7 6 20 30q13 23 13 33zM141 515
q-3 -4 -5.5 -7.5t-4.5 -5.5q-26 3 -26 40v60q1 9 7 9l1 -1q-1 0 -1 1l12 -3l17 -3h-2q6 -1 7 0v-86l-5 -5v1zM114 610h-1h1zM252 496q0 -6 -12.5 -28.5t-17.5 -27.5q-8 -5 -24 -5q-19 0 -28 8q-5 12 -18 29q-4 -1 -12 -10q-22 -28 -44 -28q-65 0 -65 91q0 35 6 85
q9 11 47 35q28 18 54 35q13 0 36.5 -7.5t35.5 -8.5q10 0 20 -4l3 -8v-1q-18 -27 -18 -74v-42q0 -22 5 -31h25q7 -6 7 -8zM155 516v90q0 4 -13 8l-19 3l-5 1l-6 2q-13 0 -15 -17v-61q0 -49 30 -49v-3h-1v1q0 2 2 2h7q7 9 20 23z" />
    <glyph glyph-name="guillemotleft" unicode="&#xab;" horiz-adv-x="282" 
d="M299 -44l-121 182l7 -15v-167l-165 247v44l165 288v-188l-14 -37l128 225v-188l-45 -120l45 -104v-167zM176 121l-47 106l47 123v152l-147 -257v-40l147 -222v138zM290 121l-46 106l46 123v152l-147 -257v-40l147 -222v138zM282 13l-130 195v34l130 227v-118l-47 -124
l47 -108v-106zM167 13l-129 195v34l129 227v-118l-46 -124l46 -108v-106z" />
    <glyph glyph-name="logicalnot" unicode="&#xac;" horiz-adv-x="509" 
d="M201 587v1v-1zM269 532h24v10q-23 4 -43 26q-17 20 -31 20h-12v-6q0 -15 1 -25.5t3 -14.5q5 -11 21 -11h15zM619 686q-3 -11 -13 -30t-28 -46h1q-42 -63 -69 -65l-25 13q-4 8 -8.5 16.5t-8.5 14.5l-15 4h-1q0 -55 16 -62q6 -4 82 -6q22 -8 22 -34q0 -42 -30 -76
q-27 -32 -65 -41l-1 -1q0 -11 0.5 -24t0.5 -27q0 -17 -0.5 -36t-0.5 -41l-3 -135q0 -5 -8.5 -36t-27.5 -88l-36 -117q-2 -6 -9.5 -13.5t-19.5 -17.5l-19 -1l-38 11l-12 38v207q0 12 0.5 20t0.5 17q0 10 0.5 23t0.5 36q0 20 0.5 38t0.5 34t-0.5 29t-0.5 24q-1 48 -3 56
q-9 5 -21 7.5t-29 2.5q-13 0 -29 -3l-2 -2q0 -12 -1 -28t-3 -35v1q-3 -45 -3 -67q0 -51 -6.5 -99t-20.5 -95l-53 -188q-22 -19 -49 -19h-20q-21 20 -25 52q0 7 -0.5 17.5t-0.5 25.5q0 32 1.5 79.5t5.5 110.5q9 127 9 189v40t-2 21q-8 1 -15 1.5t-14 2.5h1q-30 8 -40 37
q8 28 31 57q11 14 18 22.5t10 13.5q3 68 27 101q42 39 78 75q2 4 7.5 10.5t13.5 17.5q2 2 8 10q19 25 47 37q62 0 99 -16q21 -11 36.5 -29.5t26.5 -43.5l20 21q61 61 84 61q92 0 126 -58zM610 695q-32 54 -119 54q-21 0 -77 -59l-39 -39q2 4 2.5 7.5t1.5 6.5q-20 55 -60 75
q-17 8 -39.5 11.5t-51.5 3.5q-13 -5 -23.5 -13.5t-19.5 -19.5q-2 -2 -3 -3.5t-5 -6.5q-8 -8 -13 -15.5t-8 -12.5q-18 -18 -39 -38.5t-42 -40.5q-9 -12 -14.5 -35.5t-6.5 -58.5q-3 -5 -10.5 -14.5t-20.5 -24.5q-11 -14 -18.5 -25.5t-9.5 -22.5q10 -25 32 -31q8 -2 31 -4
q6 -11 6 -70q0 -62 -9 -189q-3 -63 -5 -110.5t-2 -79.5q0 -15 0.5 -25t1.5 -17q2 -14 6.5 -25t12.5 -19h16q14 0 23 4t17 11l54 186q14 45 20 92.5t6 98.5q0 22 3 67q2 20 3 36t1 29l5 8q19 3 35 3q18 0 32 -3.5t25 -8.5q1 -5 2.5 -20t2.5 -43q0 -11 0.5 -24t0.5 -29
t-0.5 -34t-0.5 -38q0 -23 -0.5 -36t-0.5 -23q0 -9 -0.5 -17t-0.5 -20v-204l12 -35l28 -7l18 1q18 15 21 24l38 116q35 113 35 122l3 135q0 22 0.5 41t0.5 36q0 16 -0.5 29t-0.5 26l6 6q35 8 61 38q29 35 29 70q0 19 -16 25q-75 2 -84 6q-20 11 -20 71q0 3 5 7t8 4l15 -6
q7 -8 12 -16.5t10 -16.5l19 -10q9 1 24 16t34 44q37 54 40 73v7zM248 522h-16q-23 0 -30 16q-4 9 -4 44v14v1h21q21 0 39 -22q22 -24 43 -24h1v-29h-32h-22zM601 690q-4 -18 -38 -70q-36 -54 -49 -55l-15 7q-8 18 -21 34l-22 8q-5 0 -13.5 -7.5t-8.5 -13.5q0 -67 25 -79
q11 -6 87 -8q7 -3 7 -15q0 -34 -25.5 -63t-58.5 -36l-12 -10q2 -50 0 -137l-3 -135q0 -8 -34 -119l-37 -117q-1 -4 -17 -17l-12 -1l-24 7l-8 26v204q0 -14 0.5 12t1.5 84q1 80 0 125q-2 65 -10 71q-22 14 -62 14q-19 0 -39 -4l-11 -13q0 -23 -3 -68t-3 -68q0 -97 -27 -188
l-52 -184q-12 -10 -32 -10h-13q-9 9 -13 36q-2 14 -2 40q0 63 8 189.5t8 189.5q0 72 -10 80q-23 1 -34 4q-19 4 -24 20q3 17 25 43q29 34 33 43q3 67 20 90q43 42 82 81q4 6 28 36q16 21 37 30q55 0 85 -15q38 -18 55 -66q-1 -11 -13 -28.5t-14 -26.5h6q9 9 32 33l4 4l35 37
q55 55 71 55q82 0 110 -49zM311 517v41l-3 4q-22 -4 -43 20.5t-46 24.5h-21q-3 0 -10 -7v-18q0 -35 6 -48q9 -22 38 -22h16l22 1h38z" />
    <glyph glyph-name="minus" unicode="&#xad;" horiz-adv-x="708" 
d="M690 70h-585v58h585v-58zM680 123h-566v-47h566v47zM671 82h-547v35h547v-35z" />
    <glyph glyph-name="minus" unicode="&#x2212;" horiz-adv-x="708" 
d="M690 70h-585v58h585v-58zM680 123h-566v-47h566v47zM671 82h-547v35h547v-35z" />
    <glyph glyph-name="registered" unicode="&#xae;" horiz-adv-x="721" 
d="M211 468q-1 0 -1 2zM468 421q0 20 -15.5 36t-36.5 17v-88h46q-5 2 0 10q2 10 4 16t2 9zM255 100q30 -15 61 -22t63 -7h9q31 0 61 8t58 22q-22 15 -37 48q-4 8 -9.5 23t-14.5 35q-2 7 -5.5 14t-6.5 15q-10 26 -24 35q-4 -26 -5.5 -39.5t-1.5 -18.5q5 -6 16 -12l4 -17
q0 -25 -28 -57v1q-28 -37 -48 -37q-9 0 -18.5 1.5t-20.5 3.5q-8 2 -16 3.5t-13 2.5q-2 0 -9 -0.5t-12 -1.5h-3zM135 485q-35 -65 -35 -135q0 -64 26.5 -120.5t74.5 -95.5q0 20 2.5 43.5t7.5 53.5q6 32 8.5 55.5t2.5 37.5q0 79 -3 99l-10 47q-2 3 -8 3h-5q-20 -6 -36 -6
l-18 4zM658 350q0 77 -37 142q-38 64 -105 100q-67 37 -137 37q-33 0 -65 -7.5t-60 -21.5q49 -7 74 -40q12 -17 16 -37q8 22 24.5 40.5t43.5 35.5q22 0 52 -5t70 -15q49 -49 49 -92q0 -47 -22 -83q-12 -17 -54 -62q7 6 14 -1t18 -23q2 -5 7.5 -18t15.5 -36q5 -11 9.5 -20
t9.5 -15h17v1q3 0 5.5 -0.5t5.5 -0.5h1q11 -3 16 -8q15 29 23.5 59t8.5 61v9zM729 341q0 -69 -28.5 -131t-76 -108.5t-108.5 -74t-127 -27.5h-10q-92 0 -177 47q-40 24 -71.5 55.5t-54.5 73.5q-47 81 -47 174q0 95 49 177q50 84 130 129q83 44 171 44q92 0 175 -48
q42 -23 74 -55t54 -72q47 -85 47 -175v-9zM720 350q0 90 -46 170q-22 38 -52.5 69.5t-71.5 54.5q-80 47 -171 47q-86 0 -166 -44q-81 -44 -128 -125q-46 -79 -46 -172q0 -91 44 -169q23 -40 53.5 -71.5t70.5 -54.5q81 -46 172 -46h10q64 0 123.5 26.5t105.5 72t74 106
t28 127.5v9zM142 495l7 -15l13 -3q7 0 15 1t16 3q3 1 8 1q14 0 18 -8l9 -49q4 -19 4 -101q0 -31 -12 -94q-5 -32 -7.5 -56.5t-2.5 -42.5l2 -14q10 -9 24 -9q4 0 9.5 0.5t11.5 1.5q5 1 12.5 1.5t8.5 1.5q5 -1 14 -3l18 -4q11 -2 20 -4t17 -2q15 0 41 33q25 31 25 49l-2 14
q-8 4 -10 5.5t-4 3.5q-3 1 -3 2v4q0 3 1 19.5t6 48.5l5 3q23 -3 38 -43v1q2 -8 5 -15.5t6 -13.5l14 -35t10 -23q18 -42 50 -50q-32 -20 -67.5 -31t-73.5 -11h-9q-37 0 -72.5 10t-70.5 28q-68 38 -106.5 105t-38.5 146q0 73 40 144q4 8 9.5 16t10.5 16q-9 -17 -9 -31z
M668 350v-9q0 -38 -11.5 -74.5t-32.5 -68.5v1l1 3v1q0 13 -15 16h-1q-4 1 -11 1v-1h-21q-13 14 -24 41q-10 22 -14.5 34.5t-6.5 17.5q-27 39 -32 37q41 41 52 61q21 33 21 77q0 37 -44 83q-38 11 -66.5 15t-48.5 4q-48 -28 -61 -69q-8 -24 -8 -80v-187q0 -28 -6 -34
q-3 -1 -11 -1q5 0 5 4q0 11 1.5 28t3.5 40q2 24 3 41t1 30v94q0 68 -21 100q-27 37 -96 37q-3 0 -4 -1q35 23 75 35.5t83 12.5q36 0 71.5 -10t69.5 -28q35 -19 61.5 -45t46.5 -59q40 -68 40 -147zM478 421q0 -5 -2 -12t-5 -16v1l-8 -18h-46l-5.5 -5.5l-4.5 -4.5v117h7
q25 0 44.5 -18.5t19.5 -43.5zM710 350q0 -90 -44.5 -167.5t-122.5 -120.5t-164 -43q-90 0 -167 44.5t-120.5 122.5t-43.5 164q0 90 45.5 168t124 120.5t161.5 42.5q88 0 166 -45t121 -120q44 -80 44 -166zM677 350q0 81 -40.5 151t-111 108.5t-146.5 38.5q-80 0 -149 -39.5
t-108 -109.5q-41 -73 -41 -149q0 -81 40.5 -150.5t111 -108.5t146.5 -39q81 0 151 40.5t108.5 110.5t38.5 147zM616 202q-7 -18 -32 -53q-29 -37 -43 -37q-34 0 -54 45q-9 22 -35 86q-19 46 -48 49l-11 -6q-9 -68 -9 -75v-8q6 -4 18 -14l2 -9q0 -12 -23 -41t-34 -29
q-12 0 -35 6t-35 6q-6 0 -20 -2.5t-21 -2.5q-11 0 -15 4l-2 11q0 33 11 96.5t11 95.5q0 83 -4 103l-9 49q-7 16 -27 16q-6 0 -10 -1q-17 -5 -27 -5l-9 2l-4 9q0 22 34 56q30 30 40 30q64 0 88 -33q20 -29 20 -95v-94q0 -23 -4.5 -69t-4.5 -70q0 -14 2 -14q10 0 20 4
q9 9 9 41v187q0 55 7 77q13 37 55 63q34 0 107 -18q40 -41 40 -75q0 -42 -19 -73q-10 -15 -52 -59q-1 -2 29 -47q2 -5 23 -52q14 -32 28 -46q58 0 25 1q19 0 18 -9zM487 421q0 28 -22 50t-51 22h-12q-5 -4 -5 -7v-122l2 -9q12 0 23 12h41q8 0 17 23q7 20 7 31z" />
    <glyph glyph-name="macron" unicode="&#xaf;" horiz-adv-x="347" 
d="M336 124h-250v47h250v-47zM328 165h-233v-36h233v36zM319 135h-216v25h216v-25z" />
    <glyph glyph-name="macron" unicode="&#x2c9;" horiz-adv-x="347" 
d="M336 124h-250v47h250v-47zM328 165h-233v-36h233v36zM319 135h-216v25h216v-25z" />
    <glyph glyph-name="degree" unicode="&#xb0;" horiz-adv-x="293" 
d="M206 555q0 19 -12.5 31t-30.5 12q-19 0 -31.5 -12t-12.5 -31t12 -31.5t32 -12.5q18 0 30.5 12.5t12.5 31.5zM308 555q0 -38 -19 -73h6l-8.5 -8.5t-8.5 -7.5q-3 -5 -6.5 -8t-6.5 -6l-1 1q-55 -43 -102 -43q-63 0 -103 42q-41 43 -41 103q0 62 41 103q42 42 104 42
q59 0 102 -43q43 -42 43 -102zM299 555q0 58 -41 96q-39 41 -95 41q-58 0 -98 -40q-39 -39 -39 -97q0 -56 39 -97q39 -39 97 -39q50 0 96 40q4 2 5 4q2 3 5.5 5.5t5.5 5.5h-2q27 34 27 81zM214 555q0 -22 -14.5 -37t-36.5 -15q-23 0 -38 15t-15 37t15.5 37t37.5 15t36.5 -15
t14.5 -37zM290 555q0 -54 -38 -90h1q-37 -37 -91 -37q-55 0 -91 36.5t-36 90.5q0 55 36.5 91.5t91.5 36.5q52 0 89.5 -37.5t37.5 -90.5zM223 555q0 26 -17.5 43.5t-42.5 17.5q-26 0 -44 -17.5t-18 -43.5t17.5 -43.5t44.5 -17.5q26 0 43 17.5t17 43.5z" />
    <glyph glyph-name="plusminus" unicode="&#xb1;" horiz-adv-x="743" 
d="M703 11h-599v127h599v-127zM703 306h-234v-150h-129v150h-236v127h236v148h129v-148h234v-127zM694 423h-235v149h-109v-149h-237v-108h237v-150h109v150h235v108zM694 129h-581v-108h581v108zM684 324h-234v-149h-91v149h-236v90h236v149h91v-149h234v-90zM684 30h-561
v90h561v-90z" />
    <glyph glyph-name="twosuperior" unicode="&#xb2;" horiz-adv-x="241" 
d="M256 450q0 -10 -25 -52q-23 -38 -34 -48l-14 -1q-17 0 -41 3q-13 2 -21.5 3t-13.5 1h-22q-5 -1 -8 -1.5t-13 -2.5q-5 -1 -13 -2t-14 -2l-21 13l-3 18q0 7 8 22t25 38q77 110 77 155q0 14 -11 14l-14 -2.5t-41 -9.5l-24 12l-4 21q0 22 18 51q10 16 19.5 26t21.5 14l20 -6
q54 0 77 -11v1q44 -19 44 -82q0 -56 -73 -150q-2 -3 -6 -7q8 -1 13 -1h12h17l8 6q7 5 14 7.5t15 4.5l23 -12zM245 465l-17 7q-6 -2 -12 -3.5t-11 -5.5l-10 -8h-20h-19q-10 0 -22 2q2 4 6.5 9t9.5 12q71 92 71 144q0 55 -40 73q-20 10 -74 10h3l-21 5q-17 -6 -34 -35t-17 -45
l2 -16l18 -9q27 7 40.5 9.5l13.5 2.5q19 0 19 -23q0 -26 -19 -65.5t-60 -94.5q-31 -45 -31 -53l3 -15l15 -8q6 1 12.5 1.5t11.5 1.5q9 2 11.5 2.5l7.5 1.5h25q13 0 36 -4q24 -3 39 -3l11 1q3 3 11 13.5t19 30.5q24 40 24 46zM239 448q0 -3 -22.5 -40t-25.5 -40l-10 -1
q-12 0 -37 3.5t-37 3.5h-25q6 0 -41 -7l-9 6l-2 10q0 5 29 46q81 112 81 165q0 32 -28 32q-2 0 -53 -11l-11 5l-2 12q0 13 15.5 39t26.5 30l19 -5q51 0 71 -9q34 -16 34 -65q0 -50 -69 -138q-20 -26 -23 -35q34 -3 55 -3h23l12 10q8 6 18 7l9 -5z" />
    <glyph glyph-name="threesuperior" unicode="&#xb3;" horiz-adv-x="225" 
d="M137 473q-4 6 -23 19h-34h7l12 -19q0 -24 30 -24q9 0 15 2q-1 8 -2 13t-5 9zM234 477q0 -43 -42 -88q-41 -44 -80 -44h-32q-18 0 -42 13q-27 18 -27 42q0 5 9 25t26 58l21 11l6 -1q-4 9 -6.5 16t-2.5 13q0 4 1 9.5t6 16.5l46 25q17 8 17 17q0 18 -31 18q-3 0 -8.5 -1.5
t-10.5 -2.5q-17 -6 -27 -6q-31 0 -31 33q0 16 17 48h-1q17 31 39 42l20 -6q55 0 69 -5q54 -15 54 -72q0 -14 -2 -25t-4 -20q-10 -13 -16 -26l11 -9q21 -21 21 -44v-37zM226 514q0 19 -18 37l-16 14q5 11 9.5 19.5t7.5 11.5q6 18 6 42q0 52 -47 64h1q-13 4 -70 4h3l-20 6
q-18 -8 -32 -38q-15 -27 -15 -43q0 -24 22 -24q10 0 25 5q7 2 13 3.5t8 1.5q39 0 39 -27q0 -13 -22 -25h1l-44 -24q-5 -13 -5 -19t8 -20h38q21 -17 26 -23q9 -14 9 -33l-1 -3q-8 -3 -23 -3q-38 0 -38 31l-9 12l-12 1l-17 -9q-33 -71 -33 -75q0 -19 22 -34q21 -12 38 -12h32
q36 0 75 42t39 81v37zM217 477q0 -35 -36 -74.5t-69 -39.5h-32q-15 0 -33.5 11.5t-18.5 25.5q0 4 31 69l11 6l8 -1l4 -6q0 -37 47 -37q21 0 31 7l2 7q-1 26 -11 39q-7 9 -31 27h-35q-4 8 -4 11q0 4 3 13l41 22q26 14 26 33q0 36 -48 36q-8 0 -23.5 -5t-22.5 -5q-14 0 -14 15
q0 12 14.5 39t24.5 32l17 -5q54 0 67 -4q41 -11 41 -55q0 -24 -4 -36q-9 -12 -22 -38l1 -3l21 -17q14 -14 14 -30v-37z" />
    <glyph glyph-name="acute" unicode="&#xb4;" horiz-adv-x="428" 
d="M357 649l-109 -155h-61l38 155h132zM231 641l-34 -139h47l98 139h-111zM327 633l-87 -123h-33l30 123h90z" />
    <glyph glyph-name="mu" unicode="&#xb5;" horiz-adv-x="467" 
d="M401 -21q-73 0 -100 64q-14 -13 -23.5 -21t-14.5 -13h1q-42 -30 -84 -30q-29 0 -54 12q2 -14 6.5 -32t9.5 -39q9 -33 9 -55q0 -33 -23 -55.5t-55 -22.5q-76 0 -76 77q0 19 18 84l3 9q3 13 5 22t3 14q6 39 6 114v376h144v-286q0 -109 42 -109q15 0 39 19l-1 -1q5 5 10 8.5
t10 8.5q4 3 7 6.5t8 7.5v346h144v-343q0 -42 1 -44q1 -13 -2 -13q11 2 17 57h73q-7 -161 -123 -161zM401 -11q105 0 113 141h-55q-6 -56 -25 -56q-7 0 -7 19q-1 3 -1 47v334h-126v-341q-5 -4 -9 -8.5t-8 -8.5q-5 -5 -10.5 -8.5t-10.5 -8.5h1q-27 -21 -45 -21q-52 0 -52 119
v277h-125v-367q0 -76 -6 -115q-1 -4 -2.5 -13t-6.5 -24h1l-4 -9q-16 -58 -16 -82q0 -67 66 -67q29 0 48.5 19.5t19.5 48.5q0 11 -2 24t-5 28q-8 29 -12.5 52t-6.5 39q29 -19 65 -19q40 0 78 28q6 5 18 15.5t30 27.5q21 -71 95 -71zM401 -2q-74 0 -90 80q-44 -43 -58 -53
q-36 -27 -73 -27q-43 0 -74 29v-3q-1 -34 19 -109q7 -30 7 -50q0 -25 -17 -42t-42 -17q-57 0 -57 58q0 20 17 79q10 35 12 48q5 39 5 116v357h107v-267q0 -128 61 -128q22 0 51 23q20 18 40 37v335h107v-324q0 -43 1 -47q3 -29 17 -29q28 0 33 57h38q-6 -123 -104 -123z" />
    <glyph glyph-name="mu" unicode="&#x3bc;" horiz-adv-x="467" 
d="M401 -21q-73 0 -100 64q-14 -13 -23.5 -21t-14.5 -13h1q-42 -30 -84 -30q-29 0 -54 12q2 -14 6.5 -32t9.5 -39q9 -33 9 -55q0 -33 -23 -55.5t-55 -22.5q-76 0 -76 77q0 19 18 84l3 9q3 13 5 22t3 14q6 39 6 114v376h144v-286q0 -109 42 -109q15 0 39 19l-1 -1q5 5 10 8.5
t10 8.5q4 3 7 6.5t8 7.5v346h144v-343q0 -42 1 -44q1 -13 -2 -13q11 2 17 57h73q-7 -161 -123 -161zM401 -11q105 0 113 141h-55q-6 -56 -25 -56q-7 0 -7 19q-1 3 -1 47v334h-126v-341q-5 -4 -9 -8.5t-8 -8.5q-5 -5 -10.5 -8.5t-10.5 -8.5h1q-27 -21 -45 -21q-52 0 -52 119
v277h-125v-367q0 -76 -6 -115q-1 -4 -2.5 -13t-6.5 -24h1l-4 -9q-16 -58 -16 -82q0 -67 66 -67q29 0 48.5 19.5t19.5 48.5q0 11 -2 24t-5 28q-8 29 -12.5 52t-6.5 39q29 -19 65 -19q40 0 78 28q6 5 18 15.5t30 27.5q21 -71 95 -71zM401 -2q-74 0 -90 80q-44 -43 -58 -53
q-36 -27 -73 -27q-43 0 -74 29v-3q-1 -34 19 -109q7 -30 7 -50q0 -25 -17 -42t-42 -17q-57 0 -57 58q0 20 17 79q10 35 12 48q5 39 5 116v357h107v-267q0 -128 61 -128q22 0 51 23q20 18 40 37v335h107v-324q0 -43 1 -47q3 -29 17 -29q28 0 33 57h38q-6 -123 -104 -123z" />
    <glyph glyph-name="paragraph" unicode="&#xb6;" horiz-adv-x="442" 
d="M466 644l-38 -1v-651h-119v651h-2v-651l-125 1v379q-72 14 -114 64t-42 128q0 91 59 143q56 50 142 50h239v-113zM456 748h-229q-84 0 -136 -48h1q-57 -48 -57 -136q0 -76 42 -124.5t115 -59.5v-377l106 -1v651h20v-651h101v651l37 1v94zM447 663l-37 -1v-651h-83v651
h-38v-651l-88 1v377q-72 9 -114.5 55t-42.5 120q0 81 53 129q51 45 130 45h220v-75z" />
    <glyph glyph-name="periodcentered" unicode="&#xb7;" horiz-adv-x="220" 
d="M213 286q0 -23 -33 -53h1l-38 -36q-40 0 -75 41q-21 25 -21 44q0 24 30 51q31 26 53 26q25 0 53 -22q30 -24 30 -51zM205 286q0 24 -27 44q-24 21 -48 21q-20 0 -48 -25q-27 -24 -27 -44q0 -7 4 -16.5t15 -21.5q31 -39 65 -39l36 34q30 27 30 47zM197 286q0 -16 -28 -41
l-34 -32q-25 0 -54 36q-18 21 -18 33q0 16 25.5 38.5t41.5 22.5q21 0 44 -18.5t23 -38.5z" />
    <glyph glyph-name="periodcentered" unicode="&#x2219;" horiz-adv-x="220" 
d="M213 286q0 -23 -33 -53h1l-38 -36q-40 0 -75 41q-21 25 -21 44q0 24 30 51q31 26 53 26q25 0 53 -22q30 -24 30 -51zM205 286q0 24 -27 44q-24 21 -48 21q-20 0 -48 -25q-27 -24 -27 -44q0 -7 4 -16.5t15 -21.5q31 -39 65 -39l36 34q30 27 30 47zM197 286q0 -16 -28 -41
l-34 -32q-25 0 -54 36q-18 21 -18 33q0 16 25.5 38.5t41.5 22.5q21 0 44 -18.5t23 -38.5z" />
    <glyph glyph-name="cedilla" unicode="&#xb8;" horiz-adv-x="344" 
d="M283 -39q0 -87 -124 -87q-35 0 -84 9l22 42q19 -2 30 -3t14 -1q15 0 31 8q12 6 12 16q0 9 -10 15q-11 6 -27 6h-1t-4 -1h-51l56 59q32 13 52 13q35 0 59.5 -21t24.5 -55zM275 -39q0 31 -22 49.5t-54 18.5q-16 0 -46 -11l-43 -45h5q5 0 10 0.5t9 0.5h6h7q17 0 31 -8
q14 -7 14 -21q0 -13 -16 -23q-17 -9 -35 -9q-2 0 -39 3l-15 -28q37 -6 72 -6q116 0 116 79zM267 -39q0 -71 -108 -71q-32 0 -59 5l7 13q29 -3 34 -3q21 0 39 10q21 11 21 30q0 18 -19 29q-15 8 -35 8q-5 0 -18 -1l29 30q24 10 41 10q28 0 48 -16.5t20 -43.5z" />
    <glyph glyph-name="onesuperior" unicode="&#xb9;" horiz-adv-x="166" 
d="M165 381q-8 -6 -20 -12t-27 -11q-3 -1 -8.5 -2.5t-14.5 -6.5q-18 -8 -32 -8l-15 6l-11 22q3 10 7.5 22.5t8.5 27.5l-1 -4q6 54 6 181q-3 -2 -7 -2q-3 0 -6 -2l-16 9q-17 20 -17 48l2 10q7 13 51 31q21 8 34 15.5t20 13.5l15 3l23 -13l3 -21q0 -6 -1 -17t-2 -20
q0 -9 -0.5 -17t-0.5 -13q-1 -23 -1 -48v-52q0 -23 -0.5 -47t-0.5 -50q6 -7 9.5 -13t3.5 -14zM159 398q0 11 -13 23v2q0 26 0.5 50t0.5 48v52q0 26 1 49q0 5 0.5 13t0.5 16l2 20t1 15l-3 18l-16 8l-11 -1q-6 -6 -20 -14t-34 -16q-43 -18 -47 -27l-1 -6q0 -22 13 -39l12 -6
q10 2 21 8v-7q0 -135 -6 -190l1 2q-4 -14 -8 -25.5t-8 -21.5l7 -13l13 -6q10 0 28 8q8 5 14 6.5t9 2.5q14 4 24.5 8.5t16.5 9.5zM151 399l-1 -8q-9 -7 -36 -15q-5 -1 -24 -10q-16 -7 -25 -7l-7 3l-4 8q6 15 14 43q6 55 6 191q0 16 -2 19l-1 1q-7 -5 -25 -12l-8 4
q-10 14 -10 30l1 5q2 4 42 22q43 18 55 29l6 1l10 -5l2 -13q0 -11 -2 -32t-2 -31q-1 -86 -2 -201l1 -5q12 -12 12 -17z" />
    <glyph glyph-name="ordmasculine" unicode="&#xba;" horiz-adv-x="219" 
d="M140 555q0 30 -5 39h1q-5 9 -23 9q-1 -5 -1.5 -10t-1.5 -10v-44q0 -11 9 -18h1q3 0 5.5 -0.5t6.5 -1.5l-1 1q2 -1 4 -1.5t5 -0.5v23v14zM238 589q0 -63 -17 -84q-3 -4 -13.5 -15t-28.5 -31q-41 -41 -49 -41h-16q-41 0 -68.5 26.5t-27.5 68.5v69q0 32 20 54q5 4 13 10.5
t20 17.5q39 33 48 33h12q107 0 107 -108zM229 589q0 99 -98 99h-12q-6 0 -42 -30q-13 -11 -21 -18.5t-13 -10.5q-17 -17 -17 -47v-69q0 -38 25 -62t63 -24h16q5 0 43 38q18 20 28.5 31t12.5 14q15 19 15 79zM149 541q0 -21 -1 -25q-2 -8 -5 -8l-7.5 1.5t-6.5 1.5
q-2 1 -3.5 1.5t-5.5 0.5h-3q-15 9 -15 26v45q1 8 1.5 15t0.5 13h7q25 0 32 -14v1q2 -6 4 -16.5t2 -27.5v-14zM102 612v-1v1zM221 589q0 -55 -14 -74q-5 -7 -40 -43t-37 -36h-16q-34 0 -56.5 21t-22.5 56v69q0 25 13 40q9 7 34 29q34 29 37 29h12q90 0 90 -91zM157 541v14
q0 34 -6 48q-11 18 -40 18h-10q-2 0 -5 -4v-5q0 -10 -3 -26v-47q0 -23 22 -35h5q8 -2 23 -5q11 0 14 15v27z" />
    <glyph glyph-name="guillemotright" unicode="&#xbb;" horiz-adv-x="282" 
d="M299 203l-164 -247v167l6 15l-121 -182v167l45 104l-45 120v188l128 -225l-13 37v188l164 -288v-44zM176 245l-147 257v-152l45 -123l-45 -106v-138l147 222v40zM290 245l-147 257v-152l46 -123l-46 -106v-138l147 222v40zM282 208l-130 -195v106l47 108l-47 124v118
l130 -227v-34zM167 208l-129 -195v106l46 108l-46 124v118l129 -227v-34z" />
    <glyph glyph-name="onequarter" unicode="&#xbc;" horiz-adv-x="1043" 
d="M769 512q13 15 36 45l15 6q-5 13 -9 33l-8 6l-28 4q-2 0 -4 -19q-1 -8 -1.5 -22t-0.5 -34v-19zM677 14q-4 -1 -7 -1.5t-7 -1.5q8 -4 14.5 -5.5t9.5 -1.5q112 0 145 89q11 29 16.5 78t5.5 120q0 106 -53 106q-38 0 -38 -92q0 -241 -18 -266q-8 -5 -25 -11t-43 -14z
M588 406q-1 2 -1 6q0 5 -1 11q-4 -6 -7.5 -12t-8.5 -14q-37 -57 -70 -57q-23 0 -34 29q-4 11 -8 17t-7 9q-11 12 -31 12q2 -1 -1 -15q-3 -9 -4 -17t-1 -14v-69q0 -70 13 -93q18 -28 76 -28q6 0 15.5 2.5t23.5 7.5l-1 -1q25 11 40 14q3 13 3 73v19q0 12 1 27q0 5 0.5 10
t0.5 11q0 5 0.5 10.5t0.5 10.5q1 15 1 26v21v4zM342 715q-6 -39 -26 -83q-12 -27 -26 -44.5t-28 -25.5l-43 3q-17 25 -37 31l-1 -1q2 -8 4 -18t7 -23v1q13 -38 13 -61v-361q0 -6 -9 -39t-29 -95t-31.5 -97t-15.5 -43l-23 -22l-26 -1h-21q-26 23 -26 52t1.5 73.5t5.5 102.5
q4 59 5.5 102t1.5 73v14t-1 22q0 8 -0.5 16.5t-0.5 19.5v7q-1 14 -1 26v23v9l-1 1q-7 2 -18 2.5t-30 2.5q-18 17 -18 38q0 18 33 54q14 14 21 22t9 10q7 11 7 29v7q0 4 -0.5 7t-0.5 6q-1 5 -1 10v8q0 10 2 14q7 42 70 108q66 68 113 68q66 0 105 -23zM1039 329
q0 -89 -12 -140q-17 -73 -68 -127q-5 -5 -25 -23.5t-53 -50.5q-8 -7 -14.5 -14t-14.5 -15q-23 -23 -42 -39t-33 -27q-54 -42 -99 -42h-15q-57 51 -82 130q-2 5 -2 8v5q0 15 5 20q-8 18 -8 60l-2 -2q-8 -12 -14.5 -21.5t-10.5 -14.5v-3q-18 -16 -44.5 -24.5t-62.5 -8.5
q-203 0 -203 242q0 62 4 101t11 56q13 28 97 97q88 75 112 75q41 0 82 -23q24 -15 40 -23q11 66 71 144q80 103 158 103q26 0 50 -5t45 -13q60 -25 64 -86q-12 -28 -48 -70q-17 -20 -32 -35q71 -13 109 -62q37 -55 37 -172zM1030 329q0 58 -9.5 99.5t-26.5 67.5
q-36 51 -123 60q23 19 48 49q32 40 44 66q-3 50 -58 74q-38 17 -91 17q-76 0 -150 -98q-66 -87 -70 -153q-9 4 -22 11t-32 18q-38 21 -77 21q-22 0 -106 -72h1q-42 -35 -65.5 -59t-29.5 -35q-14 -31 -14 -153q0 -232 193 -232q66 0 98 27q0 3 2 5q4 5 9.5 14t13.5 22
q16 26 19 28q0 -83 10 -93l3 -1q-8 -3 -8 -18q0 -5 2 -10h-1q24 -78 75 -123h13q40 0 93 39q11 9 29.5 25.5t44.5 40.5l15.5 15.5t14.5 13.5q68 63 77 74q49 54 66 123q12 46 12 137zM317 736q-32 18 -96 18q-43 0 -106 -65q-62 -65 -69 -106q-1 -2 -1 -10v-7q0 -4 1 -9
q0 -4 0.5 -7t0.5 -8v-7q0 -19 -7 -33q-2 -2 -10 -11t-22 -24q-30 -31 -30 -47q0 -17 12 -30q20 -2 32 -2.5t17 -1.5l5 -7v-12v-23q0 -12 1 -26v-7q0 -11 0.5 -19.5t0.5 -16.5q1 -13 1 -22v-14q0 -30 -1.5 -73t-5.5 -102q-6 -116 -6 -176q0 -26 19 -42h18l23 1l17 17
q5 9 16.5 43.5t30.5 94.5q38 120 38 131v361q0 9 -3 23.5t-11 33.5h1q-5 17 -7.5 27.5t-4.5 18.5l8 9q28 -4 46 -33l35 -1q24 12 48 64q20 44 24 76zM598 402v-21q0 -11 -1 -26q0 -5 -0.5 -10.5t-0.5 -10.5q0 -6 -0.5 -11.5t-0.5 -10.5q-1 -15 -1 -26v-19q0 -69 -6 -82
q-8 -1 -18.5 -4.5t-24.5 -8.5t-24 -8t-18 -3q-65 0 -84 34q-7 13 -11 37.5t-4 59.5v69q0 16 6 34q6 21 10 21q25 0 39 -14q6 -6 15 -29q11 -23 26 -23q28 0 61 53q11 17 18.5 29t15.5 20q2 -35 3 -45v-5zM675 23q50 14 63 23q15 19 15 259q0 102 48 102q63 0 63 -116
q0 -72 -5.5 -122t-16.5 -79q-38 -96 -155 -96q-8 0 -32 11q-14 7 -21 8l18 4.5t23 5.5zM761 490q-1 8 -1 17v24q0 20 0.5 34.5t1.5 22.5q2 28 13 28h2l31 -5l9 -9q9 -32 17 -45l-24 -8q-17 -23 -29 -37.5t-20 -21.5zM1020 329q0 -87 -12 -135q-16 -68 -62 -118
q-12 -13 -107 -103q-51 -48 -74 -65q-49 -37 -87 -37h-8q-47 41 -70 116q-6 20 15 20q13 0 36.5 -11t35.5 -11q124 0 163 101q23 60 23 205q0 125 -72 125q-58 0 -58 -111q0 -237 -11 -252q-11 -7 -60 -20.5t-62 -13.5l-11 3q-5 5 -5 91q-1 4 -8 4t-29 -35q-25 -38 -27 -41
q-24 -22 -88 -22q-184 0 -184 223q0 121 14 149q9 21 91 90.5t100 69.5q36 0 72 -20q49 -28 64 -32q3 -1 4 4q0 66 69 155q72 95 142 95q50 0 87 -16q50 -22 52 -65q-8 -21 -42 -61t-52 -53l-18 5q-3 3 -14 45l-15 12l-34 5q-21 3 -26 -36q-2 -16 -2 -58q0 -39 4 -52l3 -1
q17 5 60 63l20 8q108 0 149 -59q34 -49 34 -161zM322 711q-5 -29 -23 -71q-22 -49 -42 -59l-27 2q-19 31 -55 33l-14 -15q1 -17 13 -52.5t12 -54.5v-361q0 -9 -37.5 -128.5t-46.5 -135.5l-12 -13l-19 -1h-14q-14 12 -14 33q0 58 7 175t7 176q0 18 -2 72q-2 45 -1 72l-10 11
q-8 3 -50 6q-7 7 -7 20q0 12 27 40q31 32 34 38q10 16 9 44q-2 36 -1 38q6 40 66 102t99 62q60 0 90 -17zM607 402q0 -3 -4 69l-1 1q-14 -9 -49 -64q-30 -48 -53 -48q-9 0 -17 17q-11 24 -17 32q-16 17 -46 17q-11 0 -19 -28q-7 -22 -7 -37v-69q0 -74 17 -102q22 -38 92 -38
q17 0 46 11.5t45 12.5q9 10 9 91q0 23 2 67.5t2 67.5z" />
    <glyph glyph-name="onehalf" unicode="&#xbd;" horiz-adv-x="478" 
d="M569 707q-3 -20 -9 -41t-14 -44q-22 -54 -59 -71q-8 2 -18 8t-21 16q-5 4 -9 6.5t-8 4.5q0 -17 2.5 -44t7.5 -63q5 -35 8 -62.5t3 -49.5v-8l-3 -204q0 -17 -10 -57t-31 -105q-42 -130 -65 -153l-36 -11l-20 1q-16 13 -25 41q0 1 -0.5 5.5t-0.5 9.5q0 18 1.5 65t6.5 124
q5 104 7.5 162.5t2.5 73.5l-1 57q-3 1 -14 3q-30 6 -44 19l-3 19q0 22 32 68q14 18 22 29.5t11 17.5q0 2 -0.5 7t-1.5 14q-1 1 -1 4q-9 3 -19.5 9t-23.5 14q-27 15 -51 18l-4 -4q2 -10 4.5 -24.5t7.5 -32.5q6 -24 8.5 -42t2.5 -31v-237q0 -37 -7.5 -86.5t-24.5 -115.5
q-36 -147 -84 -186l-18 -3l-33 14l-13 34q0 32 1.5 79.5t5.5 107.5q4 62 5.5 106.5t1.5 75.5v85q0 31 -1 38q-32 0 -55 16l-13 25q2 11 10.5 25.5t23.5 35.5q4 6 7 10t6 9q5 8 9.5 14t8.5 11v13q0 73 50 147q62 90 148 90q37 0 81 -22q39 -20 52 -44q1 1 3 5q21 29 37 40
q24 18 65 18q25 0 46 -5.5t39 -19.5zM547 731q-29 21 -77 21q-35 0 -59 -16q-8 -6 -16.5 -15.5t-18.5 -23.5q-5 -5 -8 -10t-7 -9q-4 29 -53 56q-42 21 -76 21q-84 0 -140 -86q-49 -72 -49 -142q0 -3 -0.5 -7t0.5 -8q-3 -5 -7.5 -11t-11.5 -17q-4 -7 -14 -20q-14 -20 -22 -33
t-10 -20l11 -20q11 -7 23.5 -10t26.5 -3h4q5 -13 5 -133q0 -31 -2 -75.5t-6 -106.5q-6 -120 -6 -184l10 -30l28 -10l12 1q21 17 42 61.5t38 118.5q31 124 31 199v237q0 14 -2.5 31.5t-7.5 39.5q-13 46 -14 64l10 9q14 -2 28.5 -6t31.5 -15q31 -19 48 -23q0 -7 1 -9
q1 -10 1.5 -15.5t0.5 -7.5v-3v3q-1 -5 -10 -18t-25 -35q-30 -40 -30 -60l2 -17q5 -5 13.5 -8t22.5 -5q9 -2 14.5 -2.5t8.5 -2.5l1 -65q0 -15 -3 -74t-8 -163v1q-4 -77 -6 -124t-2 -65q0 -5 0.5 -7.5t0.5 -3.5q8 -25 20 -35l17 -1l28 8q11 11 26 48t36 101q42 129 42 159
l2 204v8q0 21 -2.5 48t-7.5 62q-5 38 -7.5 66t-2.5 46l2 6l4 1q10 0 27 -14q10 -8 18 -14t14 -7q28 13 50 65q8 20 13.5 39.5t8.5 39.5zM549 704q-4 -35 -20 -74q-20 -49 -43 -58q-7 1 -26 17.5t-33 17.5l-10 -5l-5 -11q0 -38 11 -115t10 -117l-3 -204q0 -30 -40 -156
t-57 -143l-27 -8l-12 1q-6 6 -14 26q-3 7 8 199q10 207 10 237l-1 70q-5 5 -29.5 9t-29.5 9l-2 13q0 15 28 53q32 43 37 56q1 2 -4 44q-16 2 -51.5 23t-68.5 22l-16 -15q2 -20 14 -69q11 -45 11 -70v-237q0 -72 -31 -197q-36 -143 -74 -173l-8 -1l-21 9l-9 23q0 62 7 183
t7 182q0 137 -10 142q-33 -1 -51 10l-7 15q2 9 29 46q33 46 35 51q-6 79 46 155q57 81 133 81q32 0 73 -20q47 -24 47 -53q0 -2 -2 -8t1 -9q13 10 32.5 36.5t32.5 36.5q20 14 54 14q45 0 70 -18z" />
    <glyph glyph-name="threequarters" unicode="&#xbe;" horiz-adv-x="560" 
d="M568 489q-2 -10 -9.5 -23.5t-20.5 -33.5q-13 -18 -23.5 -30.5t-20.5 -20.5h-23q-13 0 -17 -1t-7 -1t-5 -1q-5 -45 -7 -92.5t-2 -99.5q0 -31 9 -40.5t40 -9.5h42l14 -32q0 -11 -8.5 -25.5t-25.5 -35.5h1q-21 -26 -47 -50h-52q-3 1 -5 1.5t-8 2.5h1q-9 2 -24.5 5t-37.5 8
l-93 20q4 17 10.5 32t11.5 23h-1q2 4 4.5 7t2.5 4q20 52 20 211v74l-2 3l-28 11l-15 26q2 15 13.5 31t31.5 35q6 6 22 27.5t42 59.5q55 82 75 82q27 0 27 -36q0 -18 -3 -48q-2 -14 -3 -23t-1 -16l4 -13q6 -3 21 -3q25 0 76 3l20 -9zM339 712q-3 -15 -10.5 -36.5t-21.5 -47.5
q-15 -31 -29 -48.5t-29 -22.5l-25 11q-4 5 -7.5 9.5t-7.5 9.5l-14 2q0 -13 2.5 -31.5t7.5 -41.5q6 -30 8.5 -52.5t2.5 -39.5q0 -104 -1.5 -168t-3.5 -89q-8 -68 -33 -142l-6.5 -19.5t-12.5 -33.5q-5 -16 -12.5 -36t-15.5 -44v1q-5 -14 -11.5 -24.5t-14.5 -18.5l-33 -10
l-29 2q-8 15 -13 28.5t-5 27.5q0 68 9 199q9 132 9 197v81q-5 3 -16.5 5t-30.5 7l-18 26q3 29 27 58l31 35l-1 -2q5 9 8.5 16t3.5 15q0 5 -1 10v17q0 9 1 17t5 14v-1q9 21 25.5 46.5t40.5 54.5q58 71 98 71q73 0 108 -23zM318 733q-32 21 -102 21q-36 0 -91 -68
q-23 -28 -39.5 -52.5t-25.5 -44.5q-5 -10 -5 -27v-16q1 -4 1 -7v-4q0 -19 -13 -36l-32 -34q-19 -22 -24 -49l14 -20q21 -5 34 -9t17 -6v-87q0 -33 -2 -82t-7 -115t-6.5 -116t-1.5 -83q0 -23 14 -48h23l27 7q14 14 23 39q8 24 15 44t13 36q7 20 12 33t7 19q12 38 20.5 73
t11.5 67q6 49 6 256q0 15 -3 37.5t-8 52.5q-11 52 -11 78v4l2 3l5 1l22 -5q11 -9 17 -20l19 -9q20 6 49 67v-1q14 26 21.5 46t9.5 33zM557 504l-12 7q-26 -2 -44.5 -3t-29.5 -1q-20 0 -30 9l-5 14q0 8 1 18.5t3 25.5t3 26.5t1 19.5q0 26 -18 26q-7 0 -24 -19t-43 -58
q-28 -40 -44 -62.5t-22 -27.5q-38 -36 -42 -57l11 -18l29 -12l5 -11v-74q0 -161 -20 -215l-7 -11q-6 -8 -11 -20t-8 -24l83 -18q23 -5 38.5 -8t24.5 -5l12 -3h47q15 14 42 47q31 37 31 53l-9 24h-37q-36 0 -47.5 11t-11.5 48q0 54 2.5 103t7.5 95q2 2 8.5 2.5t15.5 2.5
q4 1 14 1q4 0 9.5 0.5t10.5 0.5q15 12 39 47q26 37 29 52zM550 491q-3 -13 -27 -47.5t-35 -42.5q-25 -1 -34 -2q-24 -3 -30 -9q-10 -93 -10 -204q0 -42 13 -55.5t55 -13.5h30l7 -16q0 -10 -29 -45q-25 -30 -39 -44h-41q-1 0 -75 17l-74 16q2 10 12 24t12 20q20 54 20 218v76
l-6 17l-30 11l-8 13q3 16 39 49q11 10 66 91q50 72 60 72q9 0 9 -16q0 -15 -4 -45t-4 -45l7 -20q14 -13 37 -13q22 0 72 4l6 -3zM319 709q-3 -22 -29 -73q-26 -54 -40 -59l-13 6q-7 11 -20 22l-24 5l-10 -1l-7 -10q-1 -31 10 -87q12 -60 12 -88q0 -205 -6 -255
q-8 -64 -32 -137q-7 -21 -47 -134q-7 -21 -17 -31l-26 -8l-16 1q-10 17 -10 38q0 67 9 198.5t9 197.5v89q-8 12 -55 21l-10 14q3 18 22 40q15 17 31 35q16 21 16 42q0 5 -1 13v14q0 14 3 23q17 39 64 96q53 64 84 64q67 0 94 -17z" />
    <glyph glyph-name="questiondown" unicode="&#xbf;" horiz-adv-x="294" 
d="M38 652q0 26 37 62h-1l41 42q44 0 82 -48q24 -30 24 -53q0 -27 -35 -60q-1 0 -1 -1h-1q32 -3 60 -46q21 -36 21 -70q0 -37 -33 -82q-8 -10 -17.5 -23.5t-23.5 -30.5q-6 -8 -12.5 -16.5t-13.5 -16.5q-35 -50 -35 -92q0 -22 15.5 -38.5t36.5 -18.5h3q21 0 59 32l-1 -2
q-2 -2 3.5 3t9.5 8q3 2 10.5 9t16.5 15t17.5 15.5t12.5 11.5l6 -213q-42 -39 -126 -39q-77 0 -127 40q-62 47 -62 125q0 47 23 88v1q5 8 11.5 19t14.5 23v-1q8 12 16 25.5t18 29.5q35 55 35 94q0 8 -86 22q35 63 71 85q5 3 10.5 5.5t10.5 7.5q-13 2 -41 27q-9 5 -9 6t-3 4
q-4 2 -7.5 5.5l-6.5 6.5q-23 20 -23 39zM34 248q-22 -39 -22 -83q0 -73 59 -118q26 -18 56.5 -28t65.5 -10q81 0 117 34l-6 189q-4 -4 -10 -9.5l-12 -11t-11 -10t-8 -6.5q-5 -4 -10 -9t-4 -3q-39 -33 -64 -33h-4q-24 3 -42 22t-18 45q0 47 37 97q8 10 14.5 18.5t12.5 16.5
q13 17 23 29.5t18 23.5q30 40 30 76q0 30 -20 64q-25 42 -57 42h-3q-18 -12 -34.5 -22.5t-29.5 -18.5q-37 -22 -62 -69q80 -13 80 -30q0 -44 -35 -99q-10 -16 -18.5 -29.5t-16.5 -24.5q-8 -13 -14 -23.5t-11 -18.5zM47 652q0 -14 20 -33v1l13 -11q4 -4 8.5 -8l4.5 -4
q14 -13 23 -18t14 -5q22 0 51 29q31 31 31 52q0 19 -21 46q-35 46 -71 46l-40 -40q-33 -33 -33 -55zM56 652q0 18 30 48l37 37q29 0 61 -42q19 -25 19 -40q0 -18 -28 -45t-45 -27q-7 0 -32 23q-13 10 -25 21q-17 16 -17 25zM42 243l60 96q37 59 37 105q0 24 -75 38
q17 32 52 53q25 15 61 40q28 1 52 -37q19 -32 19 -60q0 -32 -29 -70q-23 -29 -68 -88q-39 -54 -39 -103q0 -29 20.5 -51.5t47.5 -24.5q31 -3 76 36q9 8 40 35l5 -165q-30 -28 -108 -28q-69 0 -117 36q-55 41 -55 110q0 42 21 78z" />
    <glyph glyph-name="Agrave" unicode="&#xc0;" horiz-adv-x="723" 
d="M506 760h-73l-129 187h157zM722 142q0 -11 -13 -32.5t-40 -50.5q-53 -60 -76 -60q-53 0 -81 44q-6 9 -12.5 26.5t-15.5 45.5q-2 5 -4 10.5t-4 10.5q-50 -106 -113 -137q-17 2 -46 9.5t-71 21.5q-65 20 -108 20q-18 0 -31.5 2t-23.5 7l-11 25q5 16 64 76q150 153 150 312
q0 126 -103 126h-11v-2q1 -9 6.5 -17t14.5 -16q35 -30 43 -50q-5 -14 -18 -31.5t-35 -41.5q-48 -51 -66 -51q-49 0 -85 57q-31 49 -31 96q0 29 93 127q91 96 122 96q43 0 82.5 -10t76.5 -29q48 -25 72 -58.5t24 -78.5q0 -106 -44 -199q-26 -53 -81 -122q-15 -18 -25 -32
t-15 -23q39 -22 84 -22q35 0 56 99q7 30 12.5 86t11.5 138q5 70 11 114.5t14 61.5q5 11 23.5 25t49.5 31t53.5 26t36.5 11l28 -13l5 -23q0 -59 -32 -170q-29 -104 -29 -155q0 -50 0.5 -82t1.5 -48q6 -86 23 -114l4 -2h50q8 -11 10.5 -18.5t2.5 -15.5zM712 142q0 6 -1.5 11.5
t-6.5 12.5h-46l-12 7q-18 30 -24 119v-1q0 16 -0.5 48.5t-0.5 82.5q0 53 30 158t30 165l-4 19l-19 8q-26 -3 -86 -35q-61 -34 -69 -51q-13 -33 -24 -172q-5 -84 -11 -140t-12 -86q-23 -107 -66 -107q-57 0 -95 28q2 10 13.5 26t30.5 39q54 68 80 120q42 90 42 195
q0 42 -22.5 73.5t-67.5 55.5q-70 37 -155 37q-26 0 -116 -93q-90 -95 -90 -120q0 -22 8 -43.5t23 -46.5h-1q33 -54 77 -54q12 0 58 49q44 47 50 66q-3 9 -13 19.5t-24 24.5v-1q-24 18 -25 40v3q0 2 4 8h16q113 0 113 -135q0 -162 -153 -318q-58 -59 -61 -70l8 -18
q13 -7 48 -7q23 0 50.5 -5t60.5 -16q38 -11 66 -18.5t46 -9.5q63 30 116 149q5 -11 9 -21.5t7 -19.5q8 -26 15 -42.5t12 -26.5q25 -40 73 -40q18 0 68 56q51 58 51 77zM455 937h-133l116 -167h57zM703 142q0 -16 -48 -70t-62 -54q-43 0 -65 36q-11 15 -26 67q-6 24 -23 55
l-8 -5l-1 -3q-53 -121 -110 -149q-28 4 -108 29q-67 21 -114 21q-32 0 -40 4l-6 12q1 4 58 62q155 158 155 325q0 145 -122 145h-19q-11 -9 -11 -21q3 -26 28 -47q30 -26 35 -37q-5 -12 -47.5 -58t-51.5 -46q-38 0 -69 49q-28 44 -28 85q0 23 87 113.5t109 90.5
q81 0 151 -37q85 -44 85 -120q0 -103 -42 -191q-25 -53 -78 -118q-45 -55 -48 -75q45 -33 106 -33q52 0 75 114q13 59 24 227q9 139 23 169q6 15 65 46.5t80 34.5l12 -6l3 -14q0 -55 -30.5 -160.5t-30.5 -160.5q0 -100 2 -131q6 -94 27 -126l15 -9h44q4 -5 4 -14zM482 779
h-40l-102 149h107z" />
    <glyph glyph-name="Aacute" unicode="&#xc1;" horiz-adv-x="723" 
d="M613 947l-131 -187h-73l46 187h158zM722 142q0 -11 -13 -32.5t-40 -50.5q-53 -60 -76 -60q-53 0 -81 44q-6 9 -12.5 26.5t-15.5 45.5q-2 5 -4 10.5t-4 10.5q-50 -106 -113 -137q-17 2 -46 9.5t-71 21.5q-65 20 -108 20q-18 0 -31.5 2t-23.5 7l-11 25q5 16 64 76
q150 153 150 312q0 126 -103 126h-11v-2q1 -9 6.5 -17t14.5 -16q35 -30 43 -50q-5 -14 -18 -31.5t-35 -41.5q-48 -51 -66 -51q-49 0 -85 57q-31 49 -31 96q0 29 93 127q91 96 122 96q43 0 82.5 -10t76.5 -29q48 -25 72 -58.5t24 -78.5q0 -106 -44 -199q-26 -53 -81 -122
q-15 -18 -25 -32t-15 -23q39 -22 84 -22q35 0 56 99q7 30 12.5 86t11.5 138q5 70 11 114.5t14 61.5q5 11 23.5 25t49.5 31t53.5 26t36.5 11l28 -13l5 -23q0 -59 -32 -170q-29 -104 -29 -155q0 -50 0.5 -82t1.5 -48q6 -86 23 -114l4 -2h50q8 -11 10.5 -18.5t2.5 -15.5z
M712 142q0 6 -1.5 11.5t-6.5 12.5h-46l-12 7q-18 30 -24 119v-1q0 16 -0.5 48.5t-0.5 82.5q0 53 30 158t30 165l-4 19l-19 8q-26 -3 -86 -35q-61 -34 -69 -51q-13 -33 -24 -172q-5 -84 -11 -140t-12 -86q-23 -107 -66 -107q-57 0 -95 28q2 10 13.5 26t30.5 39q54 68 80 120
q42 90 42 195q0 42 -22.5 73.5t-67.5 55.5q-70 37 -155 37q-26 0 -116 -93q-90 -95 -90 -120q0 -22 8 -43.5t23 -46.5h-1q33 -54 77 -54q12 0 58 49q44 47 50 66q-3 9 -13 19.5t-24 24.5v-1q-24 18 -25 40v3q0 2 4 8h16q113 0 113 -135q0 -162 -153 -318q-58 -59 -61 -70
l8 -18q13 -7 48 -7q23 0 50.5 -5t60.5 -16q38 -11 66 -18.5t46 -9.5q63 30 116 149q5 -11 9 -21.5t7 -19.5q8 -26 15 -42.5t12 -26.5q25 -40 73 -40q18 0 68 56q51 58 51 77zM461 937l-40 -167h57l116 167h-133zM703 142q0 -16 -48 -70t-62 -54q-43 0 -65 36q-11 15 -26 67
q-6 24 -23 55l-8 -5l-1 -3q-53 -121 -110 -149q-28 4 -108 29q-67 21 -114 21q-32 0 -40 4l-6 12q1 4 58 62q155 158 155 325q0 145 -122 145h-19q-11 -9 -11 -21q3 -26 28 -47q30 -26 35 -37q-5 -12 -47.5 -58t-51.5 -46q-38 0 -69 49q-28 44 -28 85q0 23 87 113.5
t109 90.5q81 0 151 -37q85 -44 85 -120q0 -103 -42 -191q-25 -53 -78 -118q-45 -55 -48 -75q45 -33 106 -33q52 0 75 114q13 59 24 227q9 139 23 169q6 15 65 46.5t80 34.5l12 -6l3 -14q0 -55 -30.5 -160.5t-30.5 -160.5q0 -100 2 -131q6 -94 27 -126l15 -9h44q4 -5 4 -14z
M576 928l-103 -149h-40l36 149h107z" />
    <glyph glyph-name="Acircumflex" unicode="&#xc2;" horiz-adv-x="723" 
d="M274 759q26 -4 51.5 -12.5t49.5 -20.5q96 -51 96 -137q0 -106 -44 -200q-26 -53 -81 -121q-15 -18 -25 -32t-15 -23q37 -22 84 -22q35 0 56 99q7 30 12.5 86t11.5 138q11 142 25 175q5 11 23.5 25t49.5 31q8 4 14.5 7.5t13.5 6.5h-90l-68 51l-68 -51h-96zM722 142
q0 -25 -53 -84v1q-53 -60 -76 -60q-53 0 -81 44q-6 9 -12.5 26.5t-15.5 45.5l-4 10t-4 11q-50 -106 -113 -137q-17 2 -46 9.5t-71 21.5q-65 20 -108 20q-38 0 -55 8l-11 26q5 16 64 76q150 153 150 312q0 125 -103 125h-11q1 -16 21 -34q34 -30 43 -50q-5 -14 -18 -31.5
t-35 -41.5q-49 -52 -66 -52q-48 0 -85 58q-31 47 -31 96q0 30 93 126q46 49 77 72.5t45 23.5q9 0 18.5 -0.5t18.5 -1.5l146 169h78l140 -162q13 5 23 8.5t18 4.5l28 -13l5 -23q0 -59 -32 -170q-29 -104 -29 -154t0.5 -82t1.5 -49q6 -85 23 -113l4 -3h50q8 -11 10.5 -18.5
t2.5 -14.5zM712 142q0 6 -1.5 11.5t-6.5 12.5h-46l-12 7q-18 30 -24 118q0 16 -0.5 48.5t-0.5 82.5q0 52 30 157t30 165l-4 19l-19 9q-28 -5 -86 -36q-61 -33 -69 -50q-13 -33 -24 -172q-5 -84 -11 -140t-12 -86q-23 -107 -66 -107q-57 0 -95 28q2 9 13.5 25.5t30.5 39.5
q52 64 80 120q42 90 42 195q0 81 -90 128q-71 38 -155 38q-26 0 -116 -93q-45 -48 -67.5 -77t-22.5 -43q0 -22 8 -44t23 -46h-1q33 -54 77 -54q13 0 58 49q44 45 50 66q-3 8 -13 19t-24 24v-1q-24 19 -25 40v3q0 3 4 9h16q113 0 113 -135q0 -83 -38.5 -162t-114.5 -157
q-58 -58 -61 -69l8 -18q13 -7 48 -7q23 0 50.5 -5t60.5 -16q38 -11 66 -18.5t46 -9.5q63 30 116 149q5 -11 9 -21.5t7 -19.5q8 -26 15 -42.5t12 -26.5q25 -40 73 -40q18 0 68 56q51 58 51 77zM473 921h-70l-133 -152h96l72 53l72 -53h95zM703 142q0 -16 -48 -70t-62 -54
q-43 0 -65 36q-11 15 -26 67q-6 24 -23 54l-8 -4l-1 -3q-53 -121 -110 -149q-28 4 -108 29q-67 21 -114 21q-32 0 -40 4l-6 12q1 4 58 62q155 158 155 325q0 145 -122 145h-19q-11 -9 -11 -22q3 -25 28 -47q30 -25 35 -36q-5 -12 -47.5 -58t-51.5 -46q-38 0 -69 48
q-28 45 -28 86q0 23 87 113t109 90q81 0 151 -36q85 -45 85 -120q0 -104 -42 -191q-25 -53 -78 -118q-45 -55 -48 -75q45 -33 106 -33q52 0 75 114q13 59 24 227q9 138 23 169q6 14 65 45.5t80 34.5l12 -5l3 -15q0 -55 -30.5 -160t-30.5 -160q0 -100 2 -131q6 -94 27 -126
l15 -9h44q4 -5 4 -14zM584 779h-71l-75 55l-75 -55h-71l115 133h61z" />
    <glyph glyph-name="Atilde" unicode="&#xc3;" horiz-adv-x="723" 
d="M652 905q-63 -135 -116 -135q-25 0 -79 12q-17 4 -31 6.5t-25 3.5q-3 -7 -6 -14.5t-5 -13.5h-122q1 3 5.5 10.5t9 16.5t9 17.5t6.5 13.5l-1 -1q1 2 2.5 3.5t2.5 3.5v1q22 36 30 44q25 26 56 26q14 0 32.5 -2.5t41.5 -7.5q20 -5 34 -7t25 -3q7 9 13 26h118zM722 142
q0 -25 -53 -84v1q-53 -60 -76 -60q-53 0 -81 44q-6 9 -12.5 26.5t-15.5 45.5l-4 10t-4 11q-50 -106 -113 -137q-17 2 -46 9.5t-71 21.5q-65 20 -108 20q-38 0 -55 8l-11 26q5 16 64 76q150 151 150 311q0 126 -103 126h-11v-2q1 -9 6.5 -17t14.5 -16q35 -30 43 -50
q-5 -14 -18 -31.5t-35 -40.5q-48 -52 -66 -52q-49 0 -85 57q-31 49 -31 96q0 29 93 127q91 95 122 95q85 0 159 -38q96 -51 96 -137q0 -106 -44 -199q-26 -53 -81 -122q-28 -34 -40 -54q37 -22 84 -22q35 0 56 98q7 30 12.5 86t11.5 138q5 70 11 114.5t14 61.5
q5 11 23.5 24.5t49.5 30.5q63 34 90 37l28 -13l5 -23q0 -59 -32 -169q-29 -104 -29 -155q0 -50 0.5 -82t1.5 -48q3 -42 8.5 -70.5t14.5 -42.5l4 -3h50q8 -11 10.5 -18.5t2.5 -14.5zM712 142q0 5 -1.5 11t-6.5 13h-46l-12 6q-18 32 -24 119v-1q0 16 -0.5 48.5t-0.5 82.5
q0 53 30 157q30 105 30 165l-4 19l-19 9q-14 -2 -35.5 -10.5t-50.5 -24.5q-61 -35 -69 -51q-13 -33 -24 -172q-5 -84 -11 -139.5t-12 -86.5q-22 -106 -66 -106q-57 0 -95 28q2 9 13.5 25t30.5 40q54 66 80 120q42 88 42 194q0 42 -22.5 73.5t-67.5 54.5q-71 38 -155 38
q-26 0 -116 -93q-90 -95 -90 -120q0 -22 8 -43.5t23 -46.5h-1q34 -54 77 -54q12 0 58 49q44 47 50 66q-3 9 -13 19.5t-24 23.5q-24 19 -25 41v2q0 2 4 8h16q113 0 113 -135q0 -82 -38.5 -161t-114.5 -157q-58 -58 -61 -69l8 -18q13 -7 48 -7q23 0 50.5 -5t60.5 -16
q38 -11 66 -18.5t46 -9.5q64 31 116 149q5 -11 9 -21.5t7 -19.5q8 -26 15 -42.5t12 -26.5q25 -40 73 -40q18 0 68 56q51 57 51 77zM540 895l-7.5 -15t-7.5 -10q-11 0 -27 2t-38 7q-23 5 -40.5 8t-31.5 3q-27 0 -50 -23q-4 -5 -10.5 -14.5t-16.5 -26.5v-1q-4 -6 -5 -9v1
q-5 -9 -12 -23.5t-10 -19.5h100q3 7 5.5 15t4.5 14q22 -2 66 -12q25 -6 43.5 -8.5t32.5 -2.5q45 0 101 115h-97zM703 142q0 -17 -48 -70.5t-62 -53.5q-43 0 -65 36q-11 15 -26 67q-6 24 -23 54l-8 -5l-1 -2q-53 -121 -110 -149q-28 4 -108 29q-67 21 -114 21q-32 0 -40 4
l-6 12q1 4 58 62q155 158 155 324q0 145 -122 145h-19q-11 -9 -11 -21q3 -26 28 -47q30 -26 35 -37q-5 -12 -47.5 -58t-51.5 -46q-38 0 -69 49q-28 44 -28 85q0 23 87 113t109 90q81 0 151 -36q85 -44 85 -120q0 -103 -42 -191q-25 -52 -78 -117q-45 -55 -48 -75
q45 -34 106 -34q52 0 75 114q13 60 24 227q9 138 23 169q6 14 65 46t80 34l12 -5l3 -15q0 -54 -30.5 -159.5t-30.5 -160.5q0 -99 2 -131q6 -94 27 -125l15 -9h44q4 -6 4 -14zM622 886q-46 -97 -86 -97q-25 0 -74 11.5t-74 11.5q-3 -9 -11 -29h-78q8 15 22 41l-1 -1
q18 29 26 38q18 19 42 19t71 -10t71 -10q9 9 17 26h75z" />
    <glyph glyph-name="Adieresis" unicode="&#xc4;" horiz-adv-x="723" 
d="M618 865q0 -48 -35 -91v1q-8 -11 -19 -15.5t-23 -4.5q-7 0 -11.5 0.5t-12.5 1.5h-1h-2h-15q-5 1 -9 1h-5q-30 3 -32 38q-9 -14 -20 -30q-11 -5 -19.5 -6.5t-17.5 -2.5q-15 0 -28 -3l-60 11v22q0 25 9 54q6 20 16 33.5t24 23.5q14 5 52 5q46 0 64 -15l4 -16q24 31 81 31
q37 0 60 -16v-22zM722 142q0 -25 -53 -84v1q-53 -60 -76 -60q-53 0 -81 44q-6 9 -12.5 26.5t-15.5 45.5l-4 10t-4 11q-51 -106 -113 -137q-17 2 -46 9.5t-71 21.5q-65 20 -108 20q-38 0 -55 8l-11 26q5 16 64 76q150 151 150 311q0 126 -103 126h-11v-2q1 -9 6.5 -17
t14.5 -16q35 -30 43 -50q-5 -14 -18 -31.5t-35 -40.5q-48 -52 -66 -52q-49 0 -85 57q-31 49 -31 96q0 30 93 126q46 49 77 72.5t45 23.5q85 0 159 -38q96 -51 96 -137q0 -106 -44 -199q-26 -53 -81 -122q-28 -34 -40 -54q37 -22 84 -22q35 0 56 98q7 30 12.5 86t11.5 138
q5 70 11 114.5t14 61.5q5 11 23.5 24.5t49.5 30.5q63 34 90 37l28 -13l5 -23q0 -59 -32 -169q-29 -104 -29 -155q0 -50 0.5 -82t1.5 -48q3 -42 8.5 -70.5t14.5 -42.5l4 -3h50q8 -11 10.5 -18.5t2.5 -14.5zM712 142q0 5 -1.5 11t-6.5 13h-46l-12 6q-18 30 -24 119v-1
q0 16 -0.5 48.5t-0.5 82.5q0 52 30 157t30 165l-4 19l-19 9q-14 -2 -35.5 -10.5t-50.5 -25.5q-61 -33 -69 -50q-13 -33 -24 -172q-5 -84 -11 -139.5t-12 -86.5q-22 -106 -66 -106q-57 0 -95 28q2 9 13.5 25t30.5 40q54 66 80 120q42 88 42 194q0 42 -22.5 73.5t-67.5 54.5
q-71 38 -155 38q-26 0 -116 -93q-90 -95 -90 -120q0 -22 8 -43.5t23 -46.5h-1q34 -54 77 -54q12 0 58 49q44 47 50 66q-3 9 -13 19.5t-24 23.5v-1q-24 19 -25 41v3q0 2 4 8h16q113 0 113 -135q0 -82 -38.5 -161t-114.5 -157q-58 -58 -61 -69l8 -18q13 -7 48 -7q23 0 50.5 -5
t60.5 -16q38 -11 66 -18.5t46 -9.5q64 32 116 149q5 -11 9 -21.5t7 -19.5q8 -26 15 -42.5t12 -26.5q25 -40 73 -40q18 0 68 56q51 57 51 77zM465 882q-7 7 -21 9t-35 2q-16 0 -29 -1t-22 -4q-22 -16 -32 -50h1q-10 -27 -10 -51v-14l51 -9q6 1 28 3q18 2 32 7q43 61 43 82v6z
M608 882q-15 11 -50 11q-68 0 -83 -46q-7 -17 -10 -29t-3 -17q0 -32 24 -33h6t9 -1q3 0 6.5 -0.5t6.5 -0.5h4q7 -1 12 -1.5t11 -0.5q22 0 34 16q33 40 33 85v17zM599 865q0 -40 -31 -79q-11 -12 -27 -12q-10 0 -27 2q-19 2 -27 2q-15 1 -15 23q0 10 11 44q13 39 75 39
q31 0 41 -7v-12zM461 859q4 -14 -39 -78q-10 -3 -27 -4q-20 -1 -27 -3l-41 7q-1 25 8 54q11 33 29 45q12 4 45 4q39 0 48 -7zM703 142q0 -17 -48 -70.5t-62 -53.5q-43 0 -65 36q-11 15 -26 67q-6 24 -23 54l-8 -5q-51 -121 -111 -151q-28 4 -108 29q-67 21 -114 21
q-32 0 -40 4l-6 12q1 4 58 62q155 158 155 324q0 145 -122 145h-19q-11 -9 -11 -21q3 -26 28 -47q30 -26 35 -37q-5 -12 -47.5 -58t-51.5 -46q-38 0 -69 49q-28 44 -28 85q0 23 87 113t109 90q81 0 151 -36q85 -44 85 -120q0 -103 -42 -191q-25 -52 -78 -117
q-45 -55 -48 -75q45 -34 106 -34q52 0 75 114q13 60 24 227q9 138 23 169q6 14 65 45.5t80 34.5l12 -5l3 -15q0 -54 -30.5 -159.5t-30.5 -160.5q0 -99 2 -131q6 -94 27 -125l15 -9h44q4 -6 4 -14z" />
    <glyph glyph-name="Aring" unicode="&#xc5;" horiz-adv-x="723" 
d="M455 836q-12 0 -21 -9t-9 -22t8.5 -21t21.5 -8q12 0 21 8.5t9 20.5q0 13 -9 22t-21 9zM455 706q-42 0 -70.5 28.5t-28.5 70.5q0 43 28.5 72t70.5 29q21 0 39 -8t31.5 -21.5t21 -32t7.5 -39.5q0 -42 -28.5 -70.5t-70.5 -28.5zM722 142q0 -25 -53 -84v1q-53 -60 -76 -60
q-53 0 -81 44q-6 9 -12.5 26.5t-15.5 45.5l-4 10t-4 11q-50 -106 -113 -137q-17 2 -46 9.5t-71 21.5q-65 20 -108 20q-38 0 -55 8l-11 26q5 16 64 76q150 151 150 311q0 126 -103 126h-11v-2q1 -9 6.5 -17t14.5 -16q35 -30 43 -50q-5 -14 -18 -31.5t-35 -40.5
q-48 -52 -66 -52q-49 0 -85 57q-31 49 -31 96q0 29 93 127q91 95 122 95q85 0 159 -38q96 -50 96 -137q0 -106 -44 -199q-26 -53 -81 -122q-28 -34 -40 -54q37 -22 84 -22q35 0 56 98q7 30 12.5 86t11.5 138q5 70 11 114.5t14 61.5q5 11 23.5 24.5t49.5 30.5q62 33 90 38
l28 -14l5 -23q0 -59 -32 -169q-29 -104 -29 -155q0 -50 0.5 -82t1.5 -48q3 -42 8.5 -70.5t14.5 -42.5l4 -3h50q8 -11 10.5 -18.5t2.5 -14.5zM712 142q0 5 -1.5 11t-6.5 13h-46l-12 6q-18 32 -24 119v-1q0 16 -0.5 48.5t-0.5 82.5q0 53 30 157q30 105 30 165l-4 19l-19 9
q-14 -2 -35.5 -10.5t-50.5 -24.5q-60 -33 -69 -51q-13 -33 -24 -172q-5 -84 -11 -139.5t-12 -86.5q-22 -106 -66 -106q-57 0 -95 28q2 9 13.5 25t30.5 40q54 66 80 120q42 88 42 194q0 42 -22.5 73.5t-67.5 54.5q-71 38 -155 38q-26 0 -116 -93q-90 -95 -90 -120
q0 -22 8 -43.5t23 -46.5h-1q34 -54 77 -54q12 0 58 49q44 47 50 66q-3 9 -13 19.5t-24 24.5v-1q-24 18 -25 40v3q0 2 4 8h16q113 0 113 -135q0 -82 -38.5 -161t-114.5 -157q-58 -58 -61 -69l8 -18q13 -7 48 -7q23 0 50.5 -5t60.5 -16q38 -11 66 -18.5t46 -9.5q64 31 116 149
q5 -11 9 -21.5t7 -19.5q8 -26 15 -42.5t12 -26.5q25 -40 73 -40q18 0 68 56q51 57 51 77zM455 715q38 0 64 26t26 64q0 19 -7 35.5t-19 29t-28.5 19.5t-35.5 7q-38 0 -63.5 -26t-25.5 -65q0 -38 25.5 -64t63.5 -26zM455 846q17 0 28.5 -12t11.5 -29t-11.5 -28t-28.5 -11
t-28 11t-11 28t11 29t28 12zM703 142q0 -17 -48 -70.5t-62 -53.5q-43 0 -65 36q-11 15 -26 67q-6 24 -23 54l-8 -5l-1 -2q-53 -121 -110 -149q-28 4 -108 29q-67 21 -114 21q-32 0 -40 4l-6 12q1 4 58 62q155 158 155 324q0 145 -122 145h-19q-11 -9 -11 -21q3 -26 28 -47
q30 -26 35 -37q-5 -12 -47.5 -58t-51.5 -46q-38 0 -69 49q-28 44 -28 85q0 23 87 113t109 90q81 0 151 -36q85 -44 85 -120q0 -103 -42 -191q-25 -52 -78 -117q-45 -55 -48 -75q45 -34 106 -34q52 0 75 114q13 60 24 227q9 138 23 169q6 14 65 46t80 34l12 -5l3 -15
q0 -54 -30.5 -159.5t-30.5 -160.5q0 -99 2 -131q6 -94 27 -125l15 -9h44q4 -6 4 -14zM455 725q-33 0 -56.5 23.5t-23.5 56.5q0 35 23 58.5t57 23.5q33 0 56.5 -24t23.5 -58q0 -33 -23.5 -56.5t-56.5 -23.5zM455 855q-20 0 -34.5 -14.5t-14.5 -35.5t14 -34.5t35 -13.5
q20 0 34.5 14t14.5 34q0 21 -14.5 35.5t-34.5 14.5z" />
    <glyph glyph-name="AE" unicode="&#xc6;" horiz-adv-x="1093" 
d="M1107 747q0 -26 -30 -75q-28 -43 -48 -59q-31 -28 -83 -28h-21q-12 0 -28 1q-12 0 -20 0.5t-15 0.5q0 -48 9 -70q9 -3 28 -3q8 0 65 3q10 1 19 1h17q10 0 20 -0.5t27 -3.5l12 -32q-33 -93 -82 -118q-13 -5 -42 -10t-75 -9q-1 -4 -2 -12t-1 -19q0 -4 -0.5 -10t-0.5 -14
q0 -6 -0.5 -17.5t-0.5 -20.5q-16 -23 -71 -72q20 -7 42 -7q71 0 121 22q77 33 110 39l31 -30q-3 -14 -8.5 -28.5t-14.5 -28.5l-25 -38q-52 -79 -107 -98q-36 -11 -145 -11q-41 0 -75.5 6.5t-65.5 17.5q-14 -12 -24.5 -18.5t-18.5 -6.5q-55 0 -83 44q-6 8 -12.5 25.5
t-15.5 45.5l-4 10t-5 11q-50 -105 -114 -136q-33 4 -119 30q-33 11 -60 15.5t-50 4.5q-19 0 -33 2t-23 7l-12 26q2 6 18 25t48 50q152 152 152 309q0 125 -105 125h-10q1 -17 21 -35q17 -14 28 -26t15 -23q-4 -14 -17.5 -31.5t-36.5 -40.5q-49 -52 -66 -52q-51 0 -87 57
q-32 50 -32 95q0 29 95 126q47 48 78.5 71.5t45.5 23.5q86 0 162 -38q98 -50 98 -136q0 -54 -11.5 -103t-33.5 -95q-14 -27 -34.5 -57t-48.5 -64q-15 -17 -25 -30.5t-15 -23.5q39 -22 86 -22q34 0 57 98v-1q2 11 4 24.5t4 27.5v-1v1v2q1 40 4 74t9 64v-1l3 34q12 142 25 173
q12 23 75 55q62 33 92 37l23 -11q20 9 44 11l27 -16l7 -31q-9 -16 -19 -29.5t-21 -25.5v1q-14 -14 -22 -23.5t-13 -16.5v1q-5 -5 -9.5 -14t-9.5 -20l1 2q-7 -23 -13 -49t-13 -55q-4 -20 -6 -41t-2 -43q0 -126 41 -171q2 19 3 42.5t1 53.5q0 20 -1.5 47t-4.5 65
q-2 38 -3.5 67t-1.5 49v19q9 11 31.5 33t58.5 54q27 26 47 47.5t33 40.5l27 6q8 0 19.5 -1.5t26.5 -6.5q19 -6 32 -6q11 0 25 2.5t33 7.5q46 12 69 12q26 0 26 -30zM1097 747q0 21 -16 21q-25 0 -67 -12h1q-40 -10 -61 -10q-11 0 -35 6q-27 8 -44 8l-20 -5q-28 -41 -79 -87
q-72 -66 -87 -84v-15q0 -20 1.5 -48.5l3.5 -66.5q3 -38 4.5 -65.5t1.5 -47.5q0 -78 -6 -115q-59 40 -59 190q0 47 9 86q6 29 12.5 55t14.5 50l-1 -1q5 11 9.5 19.5t9.5 15.5t13 16.5t22 23.5q28 30 38 48l-5 23l-23 15q-22 -2 -43 -15l-1 5l-20 9q-29 -5 -87 -36
q-62 -30 -71 -50q-10 -27 -24 -170l-3 -34v1q-10 -60 -12 -139q-2 -15 -4.5 -28t-4.5 -25q-23 -105 -66 -105q-29 0 -53.5 6.5t-44.5 20.5q6 19 46 65q52 64 81 119q43 87 43 193q0 80 -92 127q-73 38 -158 38q-27 0 -118 -93q-91 -92 -91 -119q0 -41 30 -89q33 -53 79 -53
q12 0 59 48q22 24 34.5 40t16.5 26q-7 16 -39 43v-1q-24 19 -25 40v2q0 3 4 9h16q115 0 115 -134q0 -161 -155 -316q-58 -57 -62 -68l8 -18q13 -7 49 -7q44 0 113 -21q38 -11 67 -18.5t47 -9.5q64 29 117 148q5 -11 9.5 -21.5t7.5 -19.5q8 -25 15 -41.5t13 -26.5
q25 -40 74 -40q7 0 16.5 6.5t24.5 19.5q30 -13 66 -19t77 -6q112 0 142 10q51 16 102 95l24 38q18 28 21 48l-23 23q-15 -2 -40.5 -12t-62.5 -26q-53 -22 -125 -22q-14 0 -28 2.5t-29 8.5l-2 4q62 52 78 77q0 9 0.5 18.5t0.5 15.5q0 8 0.5 14t0.5 10q2 33 7 41q48 4 77.5 8
t41.5 10q45 20 75 108l-9 25q-10 2 -19.5 2.5t-19.5 0.5h-17q-8 0 -18 -1q-29 -2 -45 -3t-21 -1q-25 0 -35 7q-5 11 -8.5 31t-3.5 47l3 7h18q11 0 25 -1q16 -1 28 -1h20q47 0 76 25q20 17 46 59q29 46 29 69zM1088 747q0 -19 -27 -64q-26 -41 -45 -56q-27 -23 -70 -23
q-17 0 -48.5 1t-48.5 1l-6 -15q0 -62 13 -86q14 -10 43 -10q11 0 67 3q42 3 67 -1l5 -16q-27 -80 -69 -100q-22 -10 -120 -17q-9 -9 -11 -50q0 -13 -2 -56q-14 -20 -81 -77l7 -13q34 -14 64 -14q73 0 128 24q71 30 97 35l15 -15q-2 -15 -18 -40l-24 -38q-47 -74 -97 -91
q-31 -10 -139 -10q-83 0 -145 28q-29 -29 -39 -29q-43 0 -66 35q-11 15 -26 67q-8 24 -24 54l-8 -5l-1 -3q-54 -119 -112 -147q-29 4 -110 29q-69 20 -116 20q-33 0 -42 4l-5 13q1 3 58 61q159 156 159 322q0 144 -125 144h-19q-12 -9 -11 -21q3 -26 28 -47q31 -26 36 -36
q-5 -12 -48.5 -58t-51.5 -46q-40 0 -71 49q-29 43 -29 84q0 23 89 112.5t111 89.5q82 0 153 -36q87 -44 87 -119q0 -103 -42 -189q-26 -53 -80 -117q-46 -54 -48 -74q45 -34 108 -34q52 0 76 113q5 24 9 54q1 77 12 138l3 34q13 143 23 167q7 15 67 46t81 34l12 -6l3 -13
q26 18 49 20l15 -9l4 -18q-11 -17 -35 -42q-27 -30 -36 -41q-10 -15 -20 -37q-14 -48 -27 -106q-9 -40 -9 -88q0 -164 73 -203q2 -1 5 3q6 37 6 125q0 38 -5 114t-5 114v12q10 12 84 80q52 49 78 86l16 3q14 0 39 -7t38 -7q22 0 64 11t63 11q7 0 7 -11z" />
    </font>
</defs>
</svg>
