<?xml version="1.0" standalone="no"?>
<!DOCTYPE svg PUBLIC "-//W3C//DTD SVG 1.1//EN" "http://www.w3.org/Graphics/SVG/1.1/DTD/svg11.dtd" >
<svg xmlns="http://www.w3.org/2000/svg" xmlns:xlink="http://www.w3.org/1999/xlink" version="1.1">
<metadata>
Created by FontForge 20170731 at Sat Feb 25 02:37:30 2012
 By Aleksey,,,
Copyright (c) 2012, Vicente Lamonaca (produccion.taller@gmail.com www.tipografia-montevideo.info www.tipotype.com)
</metadata>
<defs>
<font id="Economica-Bold" horiz-adv-x="500" >
  <font-face 
    font-family="Economica"
    font-weight="700"
    font-stretch="normal"
    units-per-em="1000"
    panose-1="2 0 5 6 3 0 0 2 0 4"
    ascent="800"
    descent="-200"
    x-height="537"
    cap-height="720"
    bbox="-46 -191 727 937"
    underline-thickness="24"
    underline-position="-73"
    unicode-range="U+0020-FB04"
  />
<missing-glyph horiz-adv-x="190" 
 />
    <glyph glyph-name="fi" unicode="fi" horiz-adv-x="422" 
d="M280 537q67 0 78 -7.5t11 -52.5v-481q-67 0 -78 7.5t-11 52.5v397h-136l10 -29v-541q-1 -53 -11.5 -61.5t-77.5 -8.5l1 611l9 29h-55v84h55l-9 25v50q0 15 3 37.5t6 29t13.5 18t20.5 13.5t32.5 6t44.5 4h184v-71h-124q-68 0 -79.5 -11t-11.5 -78l-10 -23h135z" />
    <glyph glyph-name="fl" unicode="fl" horiz-adv-x="434" 
d="M246 649q-68 0 -79.5 -11t-11.5 -78l-10 -23h99v-84h-100l10 -29v-541q-1 -53 -11.5 -61.5t-77.5 -8.5l1 611l9 29h-55v84h55l-9 25v50q0 15 3 37.5t6 29t13.5 18t20.5 13.5t32.5 6t44.5 4h111q66 0 77.5 -7.5t11.5 -53.5v-663q-67 0 -78 7.5t-11 52.5v593h-51z" />
    <glyph glyph-name="f_f_i" unicode="ffi" horiz-adv-x="661" 
d="M515 56v397h-150l10 -29v-571q0 -8 -4 -19t-7 -13t-16 -5t-24 -3h-38l1 611l9 29h-152l10 -29v-541q-1 -53 -11.5 -61.5t-77.5 -8.5l1 611l9 29h-55v84h55l-9 25v50q0 15 3 37.5t6 29t13.5 18t20.5 13.5t32.5 6t44.5 4h60v-71q-68 0 -79.5 -11t-11.5 -78l-10 -23h151
l-9 25v50q0 15 3 37.5t6 29t13.5 18t20.5 13.5t32.5 6t44.5 4h197v-71h-138q-67 0 -78.5 -11.5t-11.5 -77.5l-10 -23h149q67 0 78 -7.5t11 -52.5v-481q-67 0 -78 7.5t-11 52.5z" />
    <glyph glyph-name="f_f_l" unicode="ffl" horiz-adv-x="676" 
d="M626 659v-663q-67 0 -78 7.5t-11 52.5v593h-68q-68 0 -79.5 -11t-11.5 -78l-10 -23h99v-84h-100l10 -29v-541q-1 -53 -11.5 -61.5t-77.5 -8.5l1 611l9 29h-154l10 -29v-541q-1 -53 -11.5 -61.5t-77.5 -8.5l1 611l9 29h-55v84h55l-9 25v50q0 15 3 37.5t6 29t13.5 18
t20.5 13.5t32.5 6t44.5 4h60v-71q-68 0 -79.5 -11t-11.5 -78l-10 -23h153l-9 25v50q0 15 3 37.5t6 29t13.5 18t20.5 13.5t32.5 6t44.5 4h128q66 0 77.5 -7.5t11.5 -53.5z" />
    <glyph glyph-name="E_s" unicode="Es" horiz-adv-x="681" 
d="M553 164q0 18 -28.5 44t-62 51t-62 62.5t-28.5 70.5t1 49t8.5 39.5t22.5 34.5q38 29 112 29l117 -24q-8 -58 -15.5 -64.5t-23 -6.5t-36.5 3l-39 7q-41 0 -50 -18q-7 -14 -7 -37t29 -49t64.5 -50t64.5 -59.5t29 -70.5t-1 -53t-8.5 -47t-21.5 -44t-42.5 -26.5t-69.5 -11.5
l-446 7v720h284v-85h-195l9 -25v-153l-9 -25h183v-89h-182l8 -23v-206l-9 -25l358 -11q24 0 37 16q9 11 9 70z" />
    <glyph glyph-name="E_S" unicode="ES" horiz-adv-x="756" 
d="M537 89q48 0 70 23q16 17 17 61q1 13 1 37.5t-17 50.5t-31.5 39t-52.5 46t-53.5 47.5t-43.5 45.5q-51 56 -51 117q0 106 22 130q34 35 73 40.5t83 5.5l136 -29q-8 -57 -23 -67q-7 -6 -24.5 -6t-45.5 6l-38 7q-59 0 -73 -24q-7 -13 -8.5 -24t-1.5 -33q0 -41 101 -126
q48 -38 75 -64t51 -63t24 -70t-0.5 -50.5t-4 -48t-10.5 -47.5t-21 -39t-34 -33q-51 -28 -122 -28l-475 7v720h284v-85h-195l9 -25v-153l-9 -25h183v-89h-182l8 -23v-206l-9 -25h388z" />
    <glyph glyph-name="c_s" unicode="cs" horiz-adv-x="628" 
d="M393 398q0 -17 29 -43t64.5 -50t64.5 -59.5t29 -70.5t-1 -53t-8.5 -47t-21.5 -44t-42.5 -26.5t-69.5 -11.5l-133 17l-109 -17q-81 0 -106 29q-11 12 -18.5 21t-12.5 31t-7.5 36t-4 46.5t-1.5 51.5v124q0 68 4 89.5t9 43.5t12.5 30.5t18.5 20.5t27 16q39 12 79 12l93 -24
q-5 -33 -8 -47t-11.5 -23.5t-20.5 -8t-35 10.5l-18 7q-23 0 -35.5 -8t-18 -36.5t-6.5 -54.5t-1 -89t1 -89.5t6.5 -56t18 -38.5t35.5 -9l109 10l134 -10q24 0 36 16q10 11 10 73q0 24 -90 92q-34 25 -62.5 62.5t-28.5 70.5t1 49t8.5 39.5t21.5 34.5q39 29 113 29l117 -24
q-8 -58 -15.5 -64.5t-23 -6.5t-36.5 3l-39 7q-41 0 -50 -18q-7 -14 -7 -43z" />
    <glyph glyph-name="o_t" unicode="ot" horiz-adv-x="673" 
d="M45 266v62t3 83t7 41.5t9.5 30t14 22.5t19.5 18t26 11q25 10 75 10h274l-8 30v51q67 0 78.5 -6.5t11.5 -47.5l-8 -27h100q0 -57 -10.5 -71t-61.5 -14h-29l9 -25v-204q0 -85 6.5 -116.5t27.5 -35.5h76v-78l-81 -5q-50 0 -66 10t-24 16t-14 24.5t-9 30t-4.5 42t-1.5 50.5
v266l8 25h-131q12 -44 12 -188v-56q0 -64 -3 -85t-7 -42t-9.5 -30.5t-14 -23t-20 -19t-26.5 -11.5q-24 -11 -64 -11t-61.5 3t-38 13t-27.5 19t-18.5 30.5t-11.5 36.5t-5 49q-3 57 -3 122zM199 459q-45 0 -55 -36.5t-10 -126t1 -116t7 -56t19.5 -38t37.5 -8.5q45 0 55 38
t10 128t-1 116t-7 54t-19.5 36.5t-37.5 8.5z" />
    <glyph glyph-name="x_t" unicode="xt" horiz-adv-x="652" 
d="M231 537h205l-8 37v51q68 0 79 -6.5t11 -47.5l-8 -34h100q0 -57 -10.5 -70.5t-61.5 -13.5h-29l9 -25v-198q0 -85 6.5 -116.5t27.5 -35.5h76v-78l-81 -5q-49 0 -65.5 10t-24.5 16t-14 24.5t-9 30t-4.5 42t-1.5 50.5v260l8 25h-147q-10 -30 -63 -172l113 -281h-93l-74 208
h-8l-65 -208q-65 0 -72 6q-11 11 -4 25l97 259l-98 247q69 0 84 -6.5t29 -44.5l36 -124h9z" />
    <glyph glyph-name="f_u" unicode="fu" horiz-adv-x="608" 
d="M485 537q67 0 78.5 -7.5t11.5 -52.5v-477q-59 0 -74 3.5t-16 23.5l-64 -34q-79 0 -123 39q-28 24 -32 132q-2 33 -2 107v182h-120l10 -29v-541q-1 -53 -11.5 -61.5t-77.5 -8.5l1 611l9 29h-55v84h55l-9 25v50q0 15 3 37.5t6 29t13.5 18t20.5 13.5t32.5 6t44.5 4h60v-71
q-68 0 -79.5 -11t-11.5 -78l-10 -23h119q67 0 78 -7.5t11 -52.5v-204q0 -117 5.5 -136t11.5 -33q10 -24 41 -26l84 35l-10 30v394z" />
    <glyph glyph-name="f_t" unicode="ft" horiz-adv-x="529" 
d="M286 625q68 0 79 -6.5t11 -47.5l-8 -34h100q0 -57 -10.5 -70.5t-61.5 -13.5h-29l9 -25v-198q0 -85 6.5 -116.5t27.5 -35.5h76v-78l-81 -5q-49 0 -65.5 10t-24.5 16t-14 24.5t-9 30t-4.5 42t-1.5 50.5v260l8 25h-150l10 -29v-541q-1 -53 -11.5 -61.5t-77.5 -8.5l1 611
l9 29h-55v84h55l-9 25v50q0 15 3 37.5t6 29t13.5 18t20.5 13.5t32.5 6t44.5 4h60v-71q-68 0 -79.5 -11t-11.5 -78l-10 -23h149l-8 37v51z" />
    <glyph glyph-name=".notdef" horiz-adv-x="190" 
 />
    <glyph glyph-name=".null" horiz-adv-x="0" 
 />
    <glyph glyph-name="nonmarkingreturn" horiz-adv-x="333" 
 />
    <glyph glyph-name="space" unicode=" " horiz-adv-x="190" 
 />
    <glyph glyph-name="exclam" unicode="!" horiz-adv-x="243" 
d="M137 98.5q16 -19.5 16 -40.5q0 -27 -19 -42.5t-40 -15.5q-27 0 -43.5 19t-16.5 42.5t19.5 40t43.5 16.5t40 -19.5zM109 171l-46 4l14 476q1 42 17 50q11 5 34 5t48 -2l-23 -478q-2 -21 -2 -25.5t-4.5 -15t-6.5 -10.5z" />
    <glyph glyph-name="quotedbl" unicode="&#x22;" horiz-adv-x="347" 
d="M50 632l-9 41q0 25 18 42t43 17q54 0 54 -54q0 -20 -18.5 -65t-37.5 -79l-18 -35l-49 28l-5 17q22 56 22 88zM209 632l-9 41q0 25 18 42t43 17q54 0 54 -54q0 -20 -18.5 -65t-36.5 -79l-19 -35l-49 28l-5 17q22 56 22 88z" />
    <glyph glyph-name="numbersign" unicode="#" horiz-adv-x="644" 
d="M59 508h177l87 218h82l-86 -218h124l87 218h82l-87 -218h102v-77h-134l-48 -122h141v-77h-172l-93 -232h-82l92 232h-124l-93 -232h-82l92 232h-106v77h137l49 122h-145v77zM287 431l-49 -122h124l49 122h-124z" />
    <glyph glyph-name="dollar" unicode="$" horiz-adv-x="392" 
d="M57 82q80 -10 109 -10t38.5 5t14.5 10.5t7 19.5q3 21 3 46t-28.5 55t-63 56t-63 62.5t-28.5 67t0.5 44t6 35t15.5 32.5q26 29 82 36l1 85q55 0 64 -7t9 -51l1 -39l60 -12q-9 -49 -16 -56.5t-18 -7.5t-21 2l-39 7q-11 2 -19.5 2t-18 -2.5t-14.5 -13.5q-8 -19 -8 -45.5
t29.5 -56t65 -52.5t65 -56t29.5 -67t-2 -54.5t-10 -48.5q-14 -54 -79 -70l-1 -113q-55 0 -64 7.5t-10 50.5l-1 54q-16 3 -48 7t-48 7v71z" />
    <glyph glyph-name="percent" unicode="%" horiz-adv-x="636" 
d="M65 569q0 88 21 120t68.5 32t67 -32t19.5 -120.5t-20 -122.5t-66.5 -34t-68 34.5t-21.5 122.5zM171.5 654q-6.5 6 -17 6t-17 -6t-9.5 -21q-3 -21 -3 -56.5t0.5 -47.5t3 -27t9 -20.5t17.5 -5.5t17 5.5t8 20.5q4 21 4 56.5t-0.5 47.5t-3 27t-9 21zM381 157q0 88 21 120
t68.5 32t67 -32t19.5 -120.5t-20 -122.5t-66.5 -34t-68 34.5t-21.5 122.5zM487.5 242q-6.5 6 -17 6t-17 -6t-9.5 -21q-3 -21 -3 -56.5t0.5 -47.5t3 -27t9 -20.5t17.5 -5.5t17 5.5t8 20.5q4 21 4 56.5t-0.5 47.5t-3 27t-9 21zM503 720l-288 -720h-100l289 720h99z" />
    <glyph glyph-name="ampersand" unicode="&#x26;" horiz-adv-x="551" 
d="M429 211q0 -110 -46 -164t-148.5 -54t-148.5 53.5t-46 163.5t72 178q-26 22 -39.5 50t-13.5 79q0 175 147 175l129 -10q0 -46 -7 -57.5t-37 -12.5l-85 -2q-29 0 -44 -18.5t-15 -74.5t19 -71t68 -15v-85q-45 -2 -75.5 -38.5t-30.5 -100.5q0 -132 106.5 -132t106.5 136v108
l5 27h-51v80h51l-5 21v44q63 0 75.5 -8.5t12.5 -54.5l89 -2q0 -26 -1.5 -37.5t-10 -23.5t-26.5 -15.5t-51 -3.5h-13l13 -29v-106z" />
    <glyph glyph-name="quotesingle" unicode="'" horiz-adv-x="184" 
d="M49 632l-9 41q0 25 18 42t43 17q54 0 54 -54q0 -20 -18.5 -65t-36.5 -79l-19 -35l-49 28l-5 17q22 56 22 88z" />
    <glyph glyph-name="parenleft" unicode="(" horiz-adv-x="271" 
d="M36 203q-1 37 -1 124t1 130.5t7 105.5t19 88.5t36.5 56t60 39.5t89.5 10q0 -58 -8 -68t-56 -10q-38 0 -47 -74.5t-9 -271.5v-12q0 -231 11.5 -289.5t44.5 -58.5q48 0 56 -10t8 -68q-77 0 -135 31q-34 19 -61 102q-15 46 -16 175z" />
    <glyph glyph-name="parenright" unicode=")" horiz-adv-x="269" 
d="M234 321q0 -93 -1 -135.5t-7 -103.5t-18.5 -86t-36 -54t-60 -38t-89.5 -9q0 58 8 68t56 10q38 0 46.5 72.5t8.5 292.5t-11.5 280.5t-43.5 60.5q-48 0 -56 10t-8 68q52 0 89 -10t60 -39.5t36 -56t19 -88.5t7 -105.5t1 -136.5z" />
    <glyph glyph-name="asterisk" unicode="*" horiz-adv-x="321" 
d="M195 460l-34 76l-36 -74l-72 40l55 64l-81 -10v82l82 -10l-56 66l71 41l37 -75l33 76l72 -41l-53 -67l80 10l1 -82l-83 10l57 -66z" />
    <glyph glyph-name="plus" unicode="+" horiz-adv-x="270" 
d="M175 194h-81v66l5 25h-81v74h81l-5 25v65h81v-65l-6 -25h83v-74h-83l6 -23v-68z" />
    <glyph glyph-name="comma" unicode="," horiz-adv-x="173" 
d="M48 19l-9 41q0 25 18 42t43 17q54 0 54 -54q0 -20 -18.5 -64.5t-37.5 -79.5l-18 -35l-49 28l-5 17q22 56 22 88z" />
    <glyph glyph-name="hyphen" unicode="-" horiz-adv-x="326" 
d="M45 363h235v-82h-235v82z" />
    <glyph glyph-name="period" unicode="." horiz-adv-x="182" 
d="M49 18q-18 18 -18 42.5t18 41.5t42 17t42 -17t18 -41.5t-18 -42.5t-42 -18t-42 18z" />
    <glyph glyph-name="slash" unicode="/" horiz-adv-x="398" 
d="M388 720l-287 -907h-95l286 907h96z" />
    <glyph glyph-name="zero" unicode="0" horiz-adv-x="410" 
d="M61 244q-1 36 -1 123t1.5 128.5t9 96.5t24.5 76q44 52 128 52q40 0 68 -7.5t46 -32t28 -45.5t14 -73q6 -78 6 -187.5t-1.5 -151.5t-9 -98t-24.5 -77q-43 -55 -127 -55q-40 0 -68.5 8t-46.5 33.5t-28 47t-14 74t-5 88.5zM164 574q-11 -58 -11 -178t1 -157t7.5 -81.5
t21 -60.5t40.5 -16q47 0 58 60.5t11 180.5t-1 156.5t-7.5 80t-21 58.5t-39.5 15q-48 0 -59 -58z" />
    <glyph glyph-name="one" unicode="1" horiz-adv-x="410" 
d="M265 648v-545l-6 -14h114v-89h-313q0 64 9.5 76.5t62.5 12.5h46l-6 14v519l-60 -10v85l75 11h7q52 0 61.5 -7.5t9.5 -52.5z" />
    <glyph glyph-name="two" unicode="2" horiz-adv-x="410" 
d="M371 87v-87h-309v231q0 67 74 137q31 30 62 59q74 69 74 127q0 38 -8.5 53t-26 20t-46.5 5h-66q-49 0 -57 10t-8 67l134 11q91 0 124 -22q20 -12 31 -23.5t15 -36.5q7 -35 7 -81t-22 -82t-53 -66t-62 -59q-75 -70 -75 -126v-131l-1 -6h213z" />
    <glyph glyph-name="three" unicode="3" horiz-adv-x="410" 
d="M60 88q80 -10 128 -10t56.5 28.5t8.5 136.5t-8.5 134.5t-51.5 26.5h-71l92 220h-153v84h285l-93 -223q48 -7 73 -37q17 -20 20 -94q1 -25 1 -76v-35q0 -162 -21.5 -206t-127.5 -44q-37 0 -80.5 7.5t-57.5 9.5v78z" />
    <glyph glyph-name="four" unicode="4" horiz-adv-x="410" 
d="M367 232h-44q0 -7 6 -13l-2 -219q-65 0 -76.5 7.5t-11.5 52.5v157l6 15h-235l222 476h97v-378l-6 -14h44v-84zM239 330v201l-91 -215h97z" />
    <glyph glyph-name="five" unicode="5" horiz-adv-x="410" 
d="M223 487q41 0 57 -7t24.5 -11.5t15.5 -16t11.5 -19.5t7.5 -27t4.5 -30.5t2.5 -38.5t1 -43v-108q0 -62 -3 -79.5t-6.5 -37.5t-9 -26.5t-14 -18.5t-18.5 -16l-26 -8q-21 -7 -73 -7l-137 7v78h133q43 0 52 28.5t9 136.5t-8.5 134.5t-52.5 26.5h-133v305l277 -1v-84h-189
q0 -7 6 -13v-109l-5 -15h74z" />
    <glyph glyph-name="six" unicode="6" horiz-adv-x="410" 
d="M216 84q44 0 53 28t9 133t-9.5 134.5t-48.5 30.5l-66 -19l-1 -96v-39t1 -61.5t6.5 -58t19 -42t36.5 -10.5zM371 250v-56q0 -62 -3 -80.5t-7 -37.5t-9.5 -26.5t-14.5 -19t-20 -15t-26 -8.5q-21 -7 -62.5 -7t-63.5 4t-38 15t-27.5 21.5t-19 33t-11.5 40.5t-6 52
q-3 51 -3 113v86q0 87 3.5 118t7.5 63.5t10.5 50.5t15.5 41t21.5 35.5t27.5 24.5q29 22 82 22l129 -12q0 -56 -8 -66t-56 -10h-65q-31 0 -44.5 -34.5t-21.5 -118.5l49 15q114 0 137 -42t23 -202z" />
    <glyph glyph-name="seven" unicode="7" horiz-adv-x="410" 
d="M66 624v84h312v-67l-242 -641h-96l231 624h-205z" />
    <glyph glyph-name="eight" unicode="8" horiz-adv-x="410" 
d="M198 -7q-75 0 -121.5 57t-46.5 164t73 174q-54 60 -54 156t42.5 139.5t106.5 43.5t107 -44t43 -142t-52 -160q70 -65 70 -169t-46.5 -161.5t-121.5 -57.5zM198 81q34 0 54 34t20 95t-23.5 97t-51 36t-51 -36.5t-23.5 -97t20.5 -94.5t54.5 -34zM198 432q57 0 57 104
t-57 104q-55 0 -55 -104t55 -104z" />
    <glyph glyph-name="nine" unicode="9" horiz-adv-x="410" 
d="M162 608q-9 -28 -9 -131.5t11 -134.5t50 -32l63 24l1 90q0 148 -8 178q-10 34 -54.5 34t-53.5 -28zM64.5 617.5q4.5 19.5 9.5 38.5t13 26t19 17t27 13q43 8 77.5 8t55.5 -2t38 -10.5t27.5 -16t18.5 -28.5t12 -37t6 -53q3 -55 3 -127t-0.5 -99.5t-2 -71t-4.5 -67.5
t-9.5 -57.5t-15.5 -52.5t-22.5 -40.5t-30.5 -31.5q-43 -26 -95 -26l-127 12v75h129q33 0 50.5 38.5t25.5 123.5l-51 -24q-112 0 -135 42.5t-23 186.5t4.5 163.5z" />
    <glyph glyph-name="colon" unicode=":" horiz-adv-x="192" 
d="M52 18q-18 18 -18 42.5t18 41.5t42 17t42 -17t18 -41.5t-18 -42.5t-42 -18t-42 18zM58 436q-18 18 -18 42.5t18 41.5t42.5 17t42.5 -17t18 -41.5t-18.5 -42.5t-42.5 -18t-42 18z" />
    <glyph glyph-name="semicolon" unicode=";" horiz-adv-x="189" 
d="M63 436q-18 18 -18 42.5t18 41.5t42.5 17t42.5 -17t18 -41.5t-18 -42.5t-42.5 -18t-42.5 18zM48 19l-9 41q0 25 18 42t43 17q54 0 54 -54q0 -20 -18.5 -64.5t-37.5 -79.5l-18 -35l-49 28l-5 17q22 56 22 88z" />
    <glyph glyph-name="less" unicode="&#x3c;" horiz-adv-x="267" 
d="M12 282v34l131 221h92l-140 -238l141 -246h-93z" />
    <glyph glyph-name="equal" unicode="=" horiz-adv-x="368" 
d="M45 411h289v-83h-289v83zM45 279h289v-83h-289v83z" />
    <glyph glyph-name="greater" unicode="&#x3e;" horiz-adv-x="265" 
d="M253 316v-34l-131 -229h-91l139 246l-139 238h91z" />
    <glyph glyph-name="question" unicode="?" horiz-adv-x="340" 
d="M64 18q-18 18 -18 42.5t18 41.5t42 17t42 -17t18 -41.5t-18 -42.5t-42 -18t-42 18zM63 188v43q1 45 25 92t52.5 80.5t52 75t23.5 68.5t-2 38.5t-10 23.5q-15 23 -74 23h-36q-48 0 -56 10t-8 66l104 12q72 0 96.5 -10t37 -16t20.5 -21t12.5 -23.5t6.5 -31t2 -32.5v-39
q0 -47 -23.5 -93.5t-51.5 -78.5q-76 -87 -81 -144v-43h-90z" />
    <glyph glyph-name="at" unicode="@" horiz-adv-x="543" 
d="M292 331l-43 -4l-11 -63q-1 -24 9 -39l45 21v85zM369 409v-182h2q40 0 47.5 10t7.5 49v157q0 19 -18 19h-4l-231 -14q-23 -1 -34.5 -10t-13 -17.5t-1.5 -27.5q0 -195 10 -257.5t56 -62.5h171q45 0 54 -15.5t9 -72.5h-237q-86 0 -115 58t-31 231v111t23.5 109.5
t107.5 36.5l228 13h9q56 0 77 -26t21 -80v-150q0 -97 -17 -113q-24 -22 -54 -24t-65 -2h-10q-34 0 -48 17q-5 6 -11 17l-50 -39q-24 0 -35 0.5t-22.5 6.5t-15.5 11.5t-7.5 25t-3.5 37.5v92q0 90 143 92h58z" />
    <glyph glyph-name="A" unicode="A" horiz-adv-x="452" 
d="M399 0q-51 0 -61.5 8t-19.5 53l-34 169h-126l-41 -230h-23q-48 0 -61 5.5t-13 26t152 688.5h96l164 -720h-33zM215 538l-37 -195l-8 -17h103q-1 1 -5 9.5t-4 9.5l-39 193h-10z" />
    <glyph glyph-name="B" unicode="B" horiz-adv-x="443" 
d="M375 566v-40q0 -54 -5 -79.5t-22 -49.5q36 -31 50.5 -70.5t14.5 -122.5q0 -85 -5.5 -104t-12.5 -35.5t-16.5 -25t-24.5 -19t-34 -15.5q-46 -12 -103 -12l-157 8v720l137 11q90 0 125 -26q14 -10 22.5 -18t14.5 -24.5t9 -27.5q7 -20 7 -70zM196 428q60 0 75 17t15 83
t-16.5 91.5t-73.5 25.5h-46l7 -21v-176l-9 -20h48zM216 73q71 0 90.5 26.5t19.5 81t-3 79t-13 48.5q-21 49 -94 49h-69l9 -21v-242l-9 -21h69z" />
    <glyph glyph-name="C" unicode="C" horiz-adv-x="402" 
d="M148 366q0 -73 1.5 -108t8.5 -79.5t24 -62.5t46 -18t79 4.5t65 5.5v-97q-9 -1 -59.5 -9.5t-80.5 -8.5t-54 6.5t-42 16t-32 29t-23 35.5t-15 46.5t-9 50.5t-5 59.5t-2 61.5v135q0 72 5 105.5t11 63.5t15 45.5t23 34.5t32 28q44 22 96 22l139 -32q-8 -58 -30 -72
q-12 -7 -34 -7t-52 6l-28 7q-28 0 -45 -18t-24 -62.5t-8.5 -79.5t-1.5 -108z" />
    <glyph glyph-name="D" unicode="D" horiz-adv-x="480" 
d="M428.5 485.5q1.5 -38.5 1.5 -101.5v-86q0 -74 -5 -107.5t-11 -64t-15 -46.5t-22.5 -35.5t-30.5 -28.5q-42 -23 -96 -23l-190 7v722l190 10q52 0 87.5 -20.5t53.5 -46.5t27 -83.5t10.5 -96zM250 82q33 0 49 23q9 13 15.5 25t10 36t6 41t3.5 49.5t1 51.5v115
q0 70 -3.5 92.5t-7 46t-10 35t-15.5 23.5q-16 23 -49 23h-103l8 -25v-511l-9 -25h104z" />
    <glyph glyph-name="E" unicode="E" horiz-adv-x="404" 
d="M374 89v-89h-314v720h304v-85h-215l9 -25v-153l-9 -25h203v-89h-202l8 -23v-206l-9 -25h225z" />
    <glyph glyph-name="F" unicode="F" horiz-adv-x="394" 
d="M352 432v-89h-202l8 -23v-320h-25q-54 0 -63.5 7.5t-9.5 53.5v659h304v-85h-215l9 -25v-153l-9 -25h203z" />
    <glyph glyph-name="G" unicode="G" horiz-adv-x="459" 
d="M155 423v-115q0 -70 3.5 -94l7 -48t10 -36t15.5 -25t21 -18t28 -5q24 0 84 10l-8 25v192q0 55 7.5 64t52.5 9h33v-372q-17 -2 -53 -7q-70 -10 -108 -10t-62 6.5t-41.5 16t-31 29t-22.5 35.5t-15 46.5t-9 50.5t-5 59.5t-2 61.5v68q0 81 1.5 119.5t10.5 96t27 83.5
t53.5 46.5t87.5 20.5l149 -32q-8 -57 -27 -67q-9 -4 -28.5 -4t-55.5 7l-38 7q-33 0 -49 -23q-9 -12 -15.5 -23.5t-10 -35t-5.5 -39.5q-5 -29 -5 -99z" />
    <glyph glyph-name="H" unicode="H" horiz-adv-x="465" 
d="M153 61q0 -46 -9.5 -53.5t-62.5 -7.5h-21v720h21q53 0 62.5 -7.5t9.5 -53.5v-202l-4 -25h165l-3 25v263h22q53 0 62.5 -7.5t9.5 -53.5v-659h-20q-55 0 -64.5 7.5t-9.5 53.5v261l8 21h-174l8 -23v-259z" />
    <glyph glyph-name="I" unicode="I" horiz-adv-x="215" 
d="M60 61v659h21q55 0 64.5 -7.5t9.5 -53.5v-659h-23q-54 0 -63 7.5t-9 53.5z" />
    <glyph glyph-name="J" unicode="J" horiz-adv-x="214" 
d="M60 720h22q54 0 63 -7.5t9 -53.5v-569q0 -69 -4 -95.5t-8.5 -53.5t-11.5 -40t-17.5 -31t-25 -27t-32.5 -18q-32 -16 -94 -16v79q51 0 69 34q11 20 17.5 37.5t8.5 54.5q4 53 4 136v570z" />
    <glyph glyph-name="K" unicode="K" horiz-adv-x="464" 
d="M410 712q8 -6 8 -17.5t-150 -331.5l176 -363h-30q-49 0 -67.5 9.5t-34.5 45.5l-145 308l168 357h15q29 0 40.5 -1t19.5 -7zM153 659v-598q0 -46 -9.5 -53.5t-62.5 -7.5h-21v720h21q53 0 62.5 -7.5t9.5 -53.5z" />
    <glyph glyph-name="L" unicode="L" horiz-adv-x="371" 
d="M278 89q54 0 63.5 -8t9.5 -54v-27h-291v720h25q54 0 63.5 -7.5t9.5 -53.5v-545l-9 -25h129z" />
    <glyph glyph-name="M" unicode="M" horiz-adv-x="556" 
d="M139 517v-456q0 -46 -9.5 -53.5t-62.5 -7.5h-22v720h23q48 0 60 -7t31 -48l109 -249h20l134 304h15q54 0 63.5 -7.5t9.5 -53.5v-659h-22q-54 0 -63 7.5t-9 53.5l-1 455h-3l-74 -179l-27 -50h-66l-27 50l-76 180h-3z" />
    <glyph glyph-name="N" unicode="N" horiz-adv-x="436" 
d="M296 220v500h22q54 0 63 -7.5t9 -53.5v-659h-30q-50 0 -62 7.5t-26 48.5l-129 432h-5v-427q0 -46 -9 -53.5t-63 -7.5h-21v720h22q49 0 60 -7t27 -49l137 -444h5z" />
    <glyph glyph-name="O" unicode="O" horiz-adv-x="487" 
d="M90.5 79q-40.5 86 -40.5 284t43 283.5t151.5 85.5t150.5 -85t42 -284t-39.5 -284.5t-153 -85.5t-154 86zM145 366q0 -143 22 -213.5t77.5 -70.5t77.5 70.5t22 212.5q0 278 -99.5 278t-99.5 -277z" />
    <glyph glyph-name="P" unicode="P" horiz-adv-x="467" 
d="M154 61q0 -46 -9 -53.5t-63 -7.5h-22v721l162 11q100 0 138 -26q14 -10 23.5 -18t16 -24.5t10 -27t4.5 -32.5q3 -38 3 -76.5t-1 -58t-6.5 -47.5t-17.5 -42t-33 -28q-37 -26 -136 -26h-69v-265zM223 415q49 0 76 16q17 10 20 53q1 14 1 44.5t-1 44t-5.5 31t-14.5 23.5
q-27 16 -76 16h-77l8 -25v-180l-8 -23h77z" />
    <glyph glyph-name="Q" unicode="Q" horiz-adv-x="485" 
d="M576 -142q0 -32 -8 -37.5t-45 -5.5t-189 22t-178.5 22t-31.5 -1l-22 2v24q0 28 5.5 37.5t15.5 13.5l76 63q-83 17 -116 104.5t-33 274.5t41.5 271t153.5 84t153 -84t41 -261.5t-25.5 -263t-87.5 -114.5h1l-102 -73q30 -3 117 -14q163 -19 184.5 -19t26.5 1l23 -2v-44z
M166 576.5q-21 -66.5 -21 -210t22 -214t78 -70.5t77.5 70t21.5 213t-21 210.5t-78.5 67.5t-78.5 -66.5z" />
    <glyph glyph-name="R" unicode="R" horiz-adv-x="470" 
d="M84 0h-24v721l143 11q90 0 124 -26q13 -10 22 -18t15 -24l8 -28q7 -19 7 -50v-58q0 -144 -41 -180q-18 -16 -47 -19l159 -329h-33q-50 0 -68 9.5t-33 43.5l-123 273h-47l9 -25l1 -240q0 -46 -9 -53.5t-63 -7.5zM205 415q54 0 65.5 22t11.5 72t-0.5 63.5t-4.5 31t-12 23.5
q-21 16 -60 16h-59l9 -25v-180l-8 -23h58z" />
    <glyph glyph-name="S" unicode="S" horiz-adv-x="436" 
d="M40 99q100 -10 146 -10t63.5 7t26.5 16.5t13 28.5q5 24 5 59t-17 61t-31.5 39t-52.5 46t-53.5 47.5t-43.5 45.5q-51 56 -51 117q0 106 22 130q34 35 73 40.5t83 5.5l136 -29q-8 -57 -23 -67q-7 -6 -24.5 -6t-45.5 6l-38 7q-59 0 -72 -24q-8 -13 -9.5 -24t-1.5 -33
q0 -41 101 -126q48 -38 75 -64t51 -63t24 -70t-0.5 -50.5t-4 -48t-10.5 -47.5t-21 -39t-34 -33q-51 -28 -122 -28q-40 0 -93 9.5t-71 11.5v85z" />
    <glyph glyph-name="T" unicode="T" horiz-adv-x="363" 
d="M343 635h-122l9 -25v-549q0 -46 -9.5 -53.5t-63.5 -7.5h-24v610l7 25h-120v85h323v-85z" />
    <glyph glyph-name="U" unicode="U" horiz-adv-x="471" 
d="M324 300v420h25q53 0 62.5 -7.5t9.5 -53.5v-359q0 -154 -7.5 -180.5t-16 -50.5t-21.5 -34.5t-32 -22.5q-32 -19 -105 -19q-59 0 -81.5 10t-35.5 16.5t-23 22.5t-16.5 26t-10.5 34.5t-6.5 38.5t-3.5 47.5t-1 51.5v480h24q54 0 63 -7.5t9 -53.5v-391q0 -109 13.5 -147.5
t68.5 -38.5q21 0 35.5 4.5t24 19.5t15 27.5t7.5 44.5q3 47 3 122z" />
    <glyph glyph-name="V" unicode="V" horiz-adv-x="446" 
d="M365 720q39 0 50 -4.5t11 -22.5t-154 -693h-90l-162 720h36q46 0 55 -7.5t19 -51.5l91 -498h11l105 557h28z" />
    <glyph glyph-name="W" unicode="W" horiz-adv-x="638" 
d="M546 720q39 0 50.5 -4.5t11.5 -21.5t-124 -694h-90l-65 341h-10l-67 -341h-89l-133 720h48q46 0 55.5 -7.5t18.5 -51.5l59 -476h7l36 240l22 82h96l20 -82l37 -238h8l68 533h41z" />
    <glyph glyph-name="X" unicode="X" horiz-adv-x="422" 
d="M66 0h-46l141 355l-132 365h47q40 0 49.5 -7t24.5 -50l66 -228h16l80 285h20q40 0 52.5 -4t12.5 -24q0 -10 -127 -336l132 -356h-44q-39 0 -51 10t-22 47l-62 212h-16l-68 -214q-16 -41 -25 -48t-48 -7z" />
    <glyph glyph-name="Y" unicode="Y" horiz-adv-x="409" 
d="M330 720q36 0 47.5 -4t11.5 -20t-131 -351v-345h-22q-54 0 -63.5 7.5t-9.5 53.5v285l-143 374h39q43 0 53 -7t26 -49l66 -201h15l85 257h26z" />
    <glyph glyph-name="Z" unicode="Z" horiz-adv-x="376" 
d="M271 89q53 0 62.5 -12.5t9.5 -76.5h-313v74l208 561h-208q0 63 7.5 73.5t52.5 10.5l256 1v-68l-213 -563h138z" />
    <glyph glyph-name="bracketleft" unicode="[" horiz-adv-x="226" 
d="M204 680h-75v-668h8q50 0 58.5 -9.5t8.5 -67.5h-92q-50 0 -58.5 7.5t-8.5 52.5v762h92q50 0 58.5 -9.5t8.5 -67.5z" />
    <glyph glyph-name="backslash" unicode="\" horiz-adv-x="398" 
d="M291 -187l-286 907h100l287 -907h-101z" />
    <glyph glyph-name="bracketright" unicode="]" horiz-adv-x="229" 
d="M98 680h-76q0 58 8.5 67.5t58.5 9.5h93v-762q0 -45 -8.5 -52.5t-58.5 -7.5h-93q0 58 8.5 67.5t58.5 9.5h9v668z" />
    <glyph glyph-name="asciicircum" unicode="^" horiz-adv-x="411" 
d="M190 732h30l159 -73v-88l-175 79l-173 -79v89z" />
    <glyph glyph-name="underscore" unicode="_" horiz-adv-x="585" 
d="M45 81h494v-82h-494v82z" />
    <glyph glyph-name="grave" unicode="`" horiz-adv-x="213" 
d="M37 713q19 19 30.5 19t19.5 -4q12 -7 36 -33l75 -83l-56 -58l-132 132z" />
    <glyph glyph-name="a" unicode="a" horiz-adv-x="362" 
d="M234 413l1 27q0 14 -3 15t-7 4.5t-10.5 1.5t-15.5 -1l-54 -7q-21 -3 -36 -3t-23 7t-16 64l116 23q71 0 89 -10.5t26 -17.5t11 -28q5 -26 5 -82v-406q-58 0 -73 6t-16 29l-83 -42q-28 0 -41.5 0.5t-27 8.5t-18 16t-8.5 34q-5 31 -5 127v69q0 113 197 117l-8 24v24zM139 78
q1 0 101 38l-10 29v119l8 23q-41 -1 -72 -8t-31 -19l-1 -132q0 -50 5 -50z" />
    <glyph glyph-name="b" unicode="b" horiz-adv-x="404" 
d="M55 0v726q66 0 77 -7.5t11 -53.5v-141l58 20q64 0 85.5 -13t33 -22t19 -30t11.5 -37t6 -49q3 -49 3 -124.5t-1.5 -108t-8.5 -74t-23 -56.5q-43 -37 -122 -37l-61 41q-1 -24 -14.5 -29t-73.5 -5zM260.5 116q8.5 37 8.5 146.5t-9 151.5t-47 45l-79 -19l9 -28v-268l-9 -31
l78 -35q40 1 48.5 38z" />
    <glyph glyph-name="c" unicode="c" horiz-adv-x="334" 
d="M134 271q0 -63 1 -89.5t6.5 -56t18 -38.5t33 -9t38 3.5t38.5 9t35 7.5v-78q-9 -2 -47 -14.5t-62.5 -12.5t-44 3.5t-35 8t-26.5 17t-18.5 21.5t-12.5 31t-7.5 36t-4 46.5t-1.5 51.5v124q0 68 4 89.5t9 43.5t12.5 30.5t18.5 20.5t27 16q39 12 79 12l113 -24q-8 -57 -16 -64
t-23 -7t-36 3l-38 7q-23 0 -35.5 -8t-18 -36.5t-6.5 -54.5t-1 -89z" />
    <glyph glyph-name="d" unicode="d" horiz-adv-x="403" 
d="M45 267q0 74 1.5 107t9 74.5t24.5 57.5q40 38 123 38l56 -20v196q67 0 78 -7.5t11 -53.5v-659q-60 0 -74 5t-15 29l-61 -41q-79 0 -120 37q-27 25 -32 130q-1 33 -1 107zM269 111l-10 32v268l9 28l-78 20q-38 -3 -47 -42t-9 -155t9 -146q11 -37 48 -38z" />
    <glyph glyph-name="e" unicode="e" horiz-adv-x="379" 
d="M201 78q68 0 138 10v-78q-93 -17 -132 -17t-62.5 5.5t-40.5 13t-28 25.5t-17 33.5t-9 47.5q-4 43 -4 91.5v81.5v52q0 71 4 88.5t9 38t13 29t19.5 20t26.5 15.5q47 10 84 10t63.5 -11.5t41 -28.5t22.5 -48q13 -49 13 -128l3 -68l-218 -5l8 -23q0 -99 9.5 -126.5
t56.5 -27.5zM242.5 438.5q-9.5 20.5 -45.5 20.5t-46.5 -18t-10.5 -78l-8 -22h131l-10 22q-1 55 -10.5 75.5z" />
    <glyph glyph-name="f" unicode="f" horiz-adv-x="262" 
d="M244 537v-84h-100l10 -29v-541q-1 -53 -11.5 -61.5t-77.5 -8.5l1 611l9 29h-55v84h55l-9 25v50q0 15 3 37.5t6 29t13.5 18t20.5 13.5t32.5 6t44.5 4h60v-71q-68 0 -79.5 -11t-11.5 -78l-10 -23h99z" />
    <glyph glyph-name="g" unicode="g" horiz-adv-x="426" 
d="M276 -91.5q11 13.5 11 40t-10.5 35.5t-46.5 9q-138 0 -161.5 13.5t-23.5 94.5q0 55 43 91q-23 21 -33 50.5t-10 82.5t0.5 69t2 41t5.5 35.5t11.5 26.5t18.5 22t27 13q26 12 90 12h181q0 -48 -9 -64t-36 -18q18 -39 18 -118v-45q0 -49 -4 -66t-9.5 -34t-13 -24t-19 -17
t-26.5 -14q-43 -9 -86.5 -9t-54.5 -6t-11 -22t5 -20q11 -9 98 -9t113 -21t26 -101.5t-29.5 -111.5t-115.5 -31h-60q-48 0 -56 9.5t-8 65.5l123 7q39 0 50 13.5zM262 281.5q1 30.5 1 62t-0.5 45t-3.5 31t-9 23.5q-18 16 -56.5 16t-48.5 -22.5t-10 -93t11.5 -98t49 -27.5
t51.5 16.5t15 47z" />
    <glyph glyph-name="h" unicode="h" horiz-adv-x="421" 
d="M149 60q0 -45 -11 -52.5t-78 -7.5v720q66 0 77 -7.5t11 -53.5v-142l78 27q101 0 123 -55t22 -223v-266q-67 0 -78.5 7.5t-11.5 52.5v207q0 94 -5 131.5t-15.5 48.5t-28.5 12l-92 -27l9 -28v-344z" />
    <glyph glyph-name="i" unicode="i" horiz-adv-x="230" 
d="M73 606.5q-18 18.5 -18 43t18 41.5t42 17t42 -17t18 -41.5t-18 -43t-42 -18.5t-42 18.5zM71 56v481q67 0 78 -7.5t11 -52.5v-481q-67 0 -78 7.5t-11 52.5z" />
    <glyph glyph-name="j" unicode="j" horiz-adv-x="209" 
d="M57 606.5q-18 18.5 -18 43t18 41.5t42 17t42 -17t18 -41.5t-18 -43t-42 -18.5t-42 18.5zM145 477v-460q0 -107 -15 -133q-23 -42 -54 -53q-53 -18 -122 -18v77q64 0 82 26q7 11 11 18.5t5 23.5q3 28 3 59v520q67 0 78.5 -7.5t11.5 -52.5z" />
    <glyph glyph-name="k" unicode="k" horiz-adv-x="440" 
d="M149 0h-14q-56 0 -65.5 7.5t-9.5 52.5v660q67 0 78 -7.5t11 -53.5v-659zM260 291l160 -291h-103l-153 291l141 246h98z" />
    <glyph glyph-name="l" unicode="l" horiz-adv-x="199" 
d="M149 659v-663q-67 0 -78 7.5t-11 52.5v664q66 0 77.5 -7.5t11.5 -53.5z" />
    <glyph glyph-name="m" unicode="m" horiz-adv-x="614" 
d="M354 0q-67 0 -78 7.5t-11 52.5l-1 245v39q0 23 0.5 35t-0.5 27.5t-3.5 23t-6.5 15.5q-7 14 -30 14l-89 -26l9 -29v-404q-67 0 -78 7.5t-11 52.5v477q55 0 70 -3t18 -18l75 28q44 0 67 -7.5t41 -28.5l92 36q59 0 79.5 -8.5t30 -14.5t17 -25t11 -34t5.5 -50q3 -52 3 -146
v-266q-68 0 -79 7.5t-11 52.5v207q0 138 -3 154q-5 29 -28 35q-8 2 -20 3l-78 -23l9 -28v-408z" />
    <glyph glyph-name="n" unicode="n" horiz-adv-x="415" 
d="M275 267l1 88q0 40 -2 60q-4 42 -47 44l-92 -27l9 -28v-404q-67 0 -78 7.5t-11 52.5v477q58 0 73 -3t16 -18l74 28q61 0 80 -8t29 -14t18 -24.5t11 -34t6 -49.5q3 -49 3 -148v-266q-67 0 -78.5 7.5t-11.5 52.5v207z" />
    <glyph glyph-name="o" unicode="o" horiz-adv-x="399" 
d="M45 266v62t3 83t7 41.5t9.5 30t14 22.5t19.5 18t26 11q25 10 73 10t77.5 -11.5t46 -26t23.5 -56t8.5 -73.5t1.5 -87v-75q0 -64 -3 -85t-7 -42t-9.5 -30.5t-14 -23t-20 -19t-26.5 -11.5q-24 -11 -64 -11t-61.5 3t-38 13t-27.5 19t-18.5 30.5t-11.5 36.5t-5 49
q-3 57 -3 122zM199 459q-45 0 -55 -36.5t-10 -126t1 -116t7 -56t19.5 -38t37.5 -8.5q45 0 55 38t10 128t-1 116t-7 54t-19.5 36.5t-37.5 8.5z" />
    <glyph glyph-name="p" unicode="p" horiz-adv-x="415" 
d="M60 -127v664q65 0 76 -3t11 -20l73 30q37 0 79 -12q15 -5 26.5 -18t19 -22.5t12.5 -32t7.5 -36.5t4 -46t1.5 -51v-60q0 -144 -6 -166.5t-13.5 -43.5t-18 -29.5t-26.5 -18.5q-27 -15 -88 -15l-70 35v-215q-66 0 -77 7.5t-11 52.5zM271 116q9 37 9 147.5t-9 151.5t-47 44
l-84 -19l9 -27v-270l-11 -31l84 -34q40 1 49 38z" />
    <glyph glyph-name="q" unicode="q" horiz-adv-x="410" 
d="M266 537q67 0 78 -7.5t11 -52.5v-664q-67 0 -78 7.5t-11 52.5v154l-70 -34q-105 0 -128 53t-23 220q0 72 1 104t8.5 74.5t23.5 58.5q39 41 116 41l72 -30v23zM142.5 415q-8.5 -41 -8.5 -125.5t1 -110.5t6.5 -54.5t17 -37t33.5 -9.5l84 34l-11 30v269l10 27l-86 21
q-38 -3 -46.5 -44z" />
    <glyph glyph-name="r" unicode="r" horiz-adv-x="296" 
d="M145 0q-67 0 -78.5 7.5t-11.5 52.5v477q66 0 77 -4t11 -27l64 38q29 0 53 -6l16 -1q0 -57 -8 -67.5t-51 -10.5l-82 -28l10 -28v-403z" />
    <glyph glyph-name="s" unicode="s" horiz-adv-x="347" 
d="M36 88q90 -10 119 -10t38 5t13.5 10.5t6.5 20.5q3 21 3 53q0 24 -90 92q-34 25 -62.5 62.5t-28.5 70.5t1 49t8.5 39.5t21.5 34.5q39 29 113 29l117 -24q-8 -58 -15.5 -64.5t-23 -6.5t-36.5 3l-39 7q-41 0 -50 -18q-7 -14 -7 -37t29 -49t64.5 -50t64.5 -59.5t29 -70.5
t-1 -53t-8.5 -47t-21.5 -44t-42.5 -26.5t-59 -11.5t-52 2.5t-50 7.5t-41.5 7v78z" />
    <glyph glyph-name="t" unicode="t" horiz-adv-x="285" 
d="M247 537q0 -57 -10.5 -70.5t-61.5 -13.5h-29l9 -25v-198q0 -85 6.5 -116.5t27.5 -35.5h76v-78l-81 -5q-50 0 -66 10t-24 16t-14 24.5t-9 30t-4.5 42t-1.5 50.5v260l8 25h-53v84h53l-8 37v51q67 0 78.5 -6.5t11.5 -47.5l-8 -34h100z" />
    <glyph glyph-name="u" unicode="u" horiz-adv-x="411" 
d="M281 113l-10 30v394q67 0 78.5 -7.5t11.5 -52.5v-477q-59 0 -74 3.5t-16 23.5l-64 -34q-79 0 -123 39q-28 24 -32 132q-2 33 -2 107v266q67 0 78 -7.5t11 -52.5v-204q0 -117 5.5 -136t11.5 -33q10 -24 41 -26z" />
    <glyph glyph-name="v" unicode="v" horiz-adv-x="365" 
d="M340 526q5 -6 5 -11t-1 -7q-1 -8 -7 -36l-96 -472h-111l-110 537q44 0 62 -4.5t24.5 -14.5t12.5 -38l67 -361h3l74 418q68 0 77 -11z" />
    <glyph glyph-name="w" unicode="w" horiz-adv-x="559" 
d="M536 526q3 -5 3 -11.5t-6 -37.5l-93 -477h-111l-45 340l-45 -340h-112l-107 537q68 0 80.5 -7t20.5 -50l60 -347h3l43 282l19 72h78l18 -73l45 -282h3l69 405q69 0 77 -11z" />
    <glyph glyph-name="x" unicode="x" horiz-adv-x="359" 
d="M289 533q18 -4 18 -19.5t-81 -232.5l113 -281h-93l-74 208h-8l-65 -208q-65 0 -72 6q-11 11 -4 25l97 259l-98 247q69 0 84 -6.5t29 -44.5l36 -124h9l51 175q40 0 58 -4z" />
    <glyph glyph-name="y" unicode="y" horiz-adv-x="356" 
d="M40 -187v72q39 0 66.5 24.5t27.5 56.5q0 8 -1 13l-113 558h39q30 0 38 -4.5t13.5 -12.5t6.5 -15.5t4 -24.5l57 -360h15l61 417q53 0 67.5 -4.5t14.5 -27.5l-106 -521q-15 -80 -33 -106q-25 -35 -48 -45q-52 -20 -109 -20z" />
    <glyph glyph-name="z" unicode="z" horiz-adv-x="361" 
d="M326 0h-291v70l172 383h-153q0 63 7.5 73.5t52.5 10.5h200v-71l-180 -382h120q54 0 63 -10.5t9 -73.5z" />
    <glyph glyph-name="braceleft" unicode="{" horiz-adv-x="268" 
d="M81 757h92q50 0 58.5 -9.5t8.5 -67.5h-75v-175l-70 -154l70 -154v-185h8q50 0 58.5 -9.5t8.5 -67.5h-92q-50 0 -58.5 7.5t-8.5 52.5v197l-66 143v30l66 145v247z" />
    <glyph glyph-name="bar" unicode="|" horiz-adv-x="186" 
d="M45 -127v847q66 0 79.5 -8t13.5 -53v-833l-13 -13q-60 0 -70 7.5t-10 52.5z" />
    <glyph glyph-name="braceright" unicode="}" horiz-adv-x="268" 
d="M186 -5q0 -45 -8 -52.5t-58 -7.5h-92q0 58 8.5 67.5t58.5 9.5h7v185l69 154l-69 154v175h-74q0 58 8.5 67.5t58.5 9.5h91v-247l67 -145v-30l-67 -143v-197z" />
    <glyph glyph-name="asciitilde" unicode="~" horiz-adv-x="374" 
d="M112 370l161 -9q18 0 25 2l33 -2v-37q0 -34 -9 -39.5t-63 -5.5l-162 9q-17 0 -24 -2l-33 2v37q0 34 9 39.5t63 5.5z" />
    <glyph glyph-name="uni00A0" unicode="&#xa0;" horiz-adv-x="190" 
 />
    <glyph glyph-name="exclamdown" unicode="&#xa1;" horiz-adv-x="161" 
d="M145 489q0 -25 -18 -43t-42.5 -18t-42.5 18t-18 43t18 42.5t42.5 17.5t42.5 -17.5t18 -42.5zM128 379l-9 -476q-1 -44 -15.5 -52.5t-82.5 -8.5l19 486q1 38 12 44.5t76 6.5z" />
    <glyph glyph-name="cent" unicode="&#xa2;" horiz-adv-x="317" 
d="M128.5 81.5q13.5 -9.5 44 -9.5t110.5 10v-71q-5 -1 -34.5 -8t-48.5 -8v-107q-57 0 -66.5 7t-9.5 51v50q-55 8 -74 41q-12 19 -18.5 36t-9.5 53q-4 49 -4 124t0.5 101.5t3.5 62.5t9.5 52.5t18.5 35.5q20 31 74 39v88q57 0 66.5 -7.5t9.5 -50.5v-29l83 -5q0 -54 -7.5 -63
t-53.5 -9h-56q-45 0 -55 -37.5t-10 -129.5t1 -119t7 -57.5t19.5 -40z" />
    <glyph glyph-name="sterling" unicode="&#xa3;" horiz-adv-x="406" 
d="M321 205q-9 -5 -47 -5t-54 1l4 -20v-81l-6 -19h111q51 0 60 -7t9 -50v-25h-257v190l5 19q-17 1 -36 1t-33 -2l-29 2v34q0 33 10 38t76 5h12l-5 21v254q61 0 72 -7.5t11 -50.5v-205l-5 -21h5q16 -1 38.5 -1t38.5 2l29 -1v-35q0 -32 -9 -37z" />
    <glyph glyph-name="currency" unicode="&#xa4;" horiz-adv-x="499" 
d="M197.5 417.5q-19.5 -19.5 -19.5 -46.5t19.5 -45.5t47 -18.5t47 19t19.5 45.5t-20 46t-47 19.5t-46.5 -19.5zM388 554q35 -37 35.5 -51.5t-29.5 -43.5l-24 -23q15 -30 15 -64.5t-19 -67.5l64 -73q-34 -36 -49.5 -36t-44.5 29l-26 26q-32 -16 -65 -16t-65 15l-73 -64
q-36 36 -36 50q0 5 1.5 8.5t2 5.5t2.5 4.5t3 4t4 5t5 5t12 11.5l24 24q-20 35 -20 72t18 65l-63 72q36 36 51.5 36t43.5 -29l24 -26q29 17 65.5 17t70.5 -20z" />
    <glyph glyph-name="yen" unicode="&#xa5;" horiz-adv-x="412" 
d="M226 119l38 -1q19 0 37 3l30 -2v-34q0 -31 -9 -36.5t-45 -5.5t-51 1l4 -12v-32h-19q-49 0 -57 5t-8 33l4 12l-48 1q-19 0 -28 -1l-29 2v34q0 32 9 37.5t45 5.5t51 -1l-4 10v27l4 9l-48 1q-19 0 -28 -1l-29 2v34q0 32 9 37.5t45 5.5t51 -1v17l-141 268h37q35 0 47 -8
t29 -43l65 -140l87 191h23q24 0 33 -1q23 -2 23 -24q0 -10 -127 -249v-20q24 -2 41 -2t34 4l30 -2v-34q0 -31 -9 -36.5t-45 -5.5t-51 1l4 -31v-8z" />
    <glyph glyph-name="brokenbar" unicode="&#xa6;" horiz-adv-x="186" 
d="M138 301h-14q-59 0 -69 7.5t-10 52.5v359q66 0 79.5 -8t13.5 -53v-358zM138 -184h-14q-59 0 -69 7.5t-10 53.5v358q66 0 79.5 -8t13.5 -52v-359z" />
    <glyph glyph-name="section" unicode="&#xa7;" horiz-adv-x="345" 
d="M36 88q90 -10 121 -10t42 6t15 21q7 22 7 62q0 25 -93 97q-34 26 -63 64.5t-29 75.5v11q0 57 7.5 71.5t16.5 22.5q-23 35 -23 68t1 48.5t8.5 37t21.5 31.5q37 25 113 25l117 -24q-8 -59 -15.5 -66t-21.5 -7t-38 5l-39 8q-39 0 -48 -11.5t-9 -33.5t19.5 -43t46.5 -43
t55 -46q66 -58 66 -110q0 -87 -17 -120q15 -30 15 -60t-1 -48t-8 -46.5t-21 -43.5q-38 -37 -112 -37q-36 0 -78 7.5t-56 9.5v78zM106 424q0 -40 94 -113q6 -5 20.5 -15t21.5 -16v51q0 23 -56 69q-6 6 -20.5 18.5t-20.5 17.5l-35 28q-4 -17 -4 -40z" />
    <glyph glyph-name="dieresis" unicode="&#xa8;" horiz-adv-x="372" 
d="M57.5 606.5q-18.5 18.5 -18.5 43t18 41.5t42 17t42 -17t18 -41.5t-18 -43t-41.5 -18.5t-42 18.5zM230.5 606.5q-18.5 18.5 -18.5 43t18 41.5t42.5 17t42.5 -17t18 -41.5t-18 -43t-42 -18.5t-42.5 18.5z" />
    <glyph glyph-name="copyright" unicode="&#xa9;" horiz-adv-x="630" 
d="M388 156q-65 -13 -86 -13t-38.5 8t-27 18t-14 33.5t-5 41t-0.5 54.5t0.5 54t5 40t13.5 32q25 25 72 25l79 -4q0 -46 -5.5 -53.5t-36.5 -7.5h-37q-15 0 -18.5 -18t-3.5 -68.5t3.5 -68t21 -17.5t77.5 10v-66zM31 293q0 123 81 208.5t202.5 85.5t203 -85.5t81.5 -208.5
t-81.5 -208t-203 -85t-202.5 85t-81 208zM171 443.5q-58 -61.5 -58 -150t58 -150t144 -61.5t144 61.5t58 150t-58 150t-144 61.5t-144 -61.5z" />
    <glyph glyph-name="ordfeminine" unicode="&#xaa;" horiz-adv-x="275" 
d="M108 434q3 0 49 23v75q-18 0 -34.5 -7.5t-16.5 -13.5l1 -66q0 -11 1 -11zM43 510q0 43 31 61.5t84 21.5v31q0 16 -6.5 20t-18.5 4h-42q-37 0 -43.5 8t-6.5 54l90 11q36 0 57 -6t30 -22.5t10.5 -29.5t1.5 -43v-251q-63 0 -71 34l-31 -39q-64 0 -72 18q-12 22 -12.5 53.5
t-0.5 74.5z" />
    <glyph glyph-name="guillemotleft" unicode="&#xab;" horiz-adv-x="354" 
d="M29 285v30l73 159h88l-80 -174l80 -174h-89zM165 285v30l73 159h87l-79 -174l79 -174h-88z" />
    <glyph glyph-name="logicalnot" unicode="&#xac;" horiz-adv-x="340" 
d="M218 208v75h-206v84h283v-92q0 -50 -9.5 -58.5t-67.5 -8.5z" />
    <glyph glyph-name="registered" unicode="&#xae;" horiz-adv-x="630" 
d="M305 202q0 -31 -8.5 -36t-61.5 -5v285l77 4q37 0 57 -3t29 -15t10.5 -23.5t1.5 -43.5t-1.5 -46t-12 -27.5t-34.5 -18.5l69 -112q-51 0 -65.5 5.5t-25.5 24.5l-35 55v-44zM343 359q0 21 -4 24.5t-28 3.5l-8 2v-62l8 3q23 0 27.5 4t4.5 25zM31 293q0 123 81 208.5
t202.5 85.5t203 -85.5t81.5 -208.5t-81.5 -208t-203 -85t-202.5 85t-81 208zM171 443.5q-58 -61.5 -58 -150t58 -150t144 -61.5t144 61.5t58 150t-58 150t-144 61.5t-144 -61.5z" />
    <glyph glyph-name="macron" unicode="&#xaf;" horiz-adv-x="326" 
d="M45 732h235v-82h-235v82z" />
    <glyph glyph-name="degree" unicode="&#xb0;" horiz-adv-x="346" 
d="M31 597q0 56 42 95.5t100 39.5t100 -39.5t42 -95.5t-42 -96t-100 -40t-100 40t-42 96zM106 597q0 -25 17 -40.5t50 -15.5t49.5 15.5t16.5 40.5q0 55 -66 55q-34 0 -50.5 -15t-16.5 -40z" />
    <glyph glyph-name="plusminus" unicode="&#xb1;" horiz-adv-x="296" 
d="M188 315h-82v72l6 15h-81v82h81l-6 15v71h82v-71l-6 -15h83v-82h-83l6 -13v-74zM31 275h234v-83h-234v83z" />
    <glyph glyph-name="twosuperior" unicode="&#xb2;" horiz-adv-x="264" 
d="M117 513v-41h97v-58h-159v102q0 21 14.5 41t32.5 33q47 36 47 57q0 18 -7 22.5t-19 4.5h-30q-29 0 -34 6.5t-5 47.5l71 5q57 -1 72 -21.5t15 -67.5q0 -23 -15 -44t-33 -34q-47 -33 -47 -53z" />
    <glyph glyph-name="threesuperior" unicode="&#xb3;" horiz-adv-x="258" 
d="M61 726h154l-54 -94q28 -10 38.5 -31.5t10.5 -84.5t-14 -87t-64 -24q-7 0 -71 8v55q57 -5 69 -5t15 7.5t3 56.5t-5 56q-4 5 -12 5h-46l39 80h-63v58z" />
    <glyph glyph-name="acute" unicode="&#xb4;" horiz-adv-x="213" 
d="M184 704l19 -18l-132 -132l-56 58l73 83q26 26 35.5 31.5t21 5.5t39.5 -28z" />
    <glyph glyph-name="mu" unicode="&#xb5;" horiz-adv-x="376" 
d="M265 272v207q0 45 11.5 52.5t78.5 7.5v-329q0 -70 -4.5 -91t-9.5 -43t-12.5 -31t-19 -21.5t-27.5 -17.5q-39 -11 -81 -11l-68 27v-142q0 -46 -11 -53.5t-77 -7.5v720q67 0 78 -7.5t11 -52.5v-352l-6 -18l80 -29q39 2 48 43t9 149z" />
    <glyph glyph-name="paragraph" unicode="&#xb6;" horiz-adv-x="507" 
d="M59.5 486q-35.5 40 -35.5 95t41.5 96t97.5 43l316 -1v-94h-102l5 -22v-603h-93v603l5 22h-60l5 -22v-603h-93v440q-51 6 -86.5 46z" />
    <glyph glyph-name="periodcentered" unicode="&#xb7;" horiz-adv-x="198" 
d="M51.5 250.5q-20.5 20.5 -20.5 48.5t20 47t47.5 19t48 -19.5t20.5 -47t-21 -48t-47.5 -20.5t-47 20.5z" />
    <glyph glyph-name="cedilla" unicode="&#xb8;" horiz-adv-x="212" 
d="M15 -103h83v103h72v-117q0 -38 -9.5 -48t-47.5 -10h-33q-49 0 -57 9t-8 63z" />
    <glyph glyph-name="onesuperior" unicode="&#xb9;" horiz-adv-x="212" 
d="M114 727q29 0 34 -6t5 -43v-267h-63v254l-43 -11v61l38 12h29z" />
    <glyph glyph-name="ordmasculine" unicode="&#xba;" horiz-adv-x="308" 
d="M74 412q-20 39 -20 142.5t20 140.5t79.5 37t79 -37t19.5 -140.5t-19 -142.5t-79 -39t-80 39zM190 554q0 104 -36.5 104t-36.5 -104t37 -104q16 0 24.5 17.5t10 36.5t1.5 50z" />
    <glyph glyph-name="guillemotright" unicode="&#xbb;" horiz-adv-x="353" 
d="M324 315v-30l-71 -159h-88l79 174l-79 174h87zM189 315v-30l-72 -159h-88l79 174l-79 174h87z" />
    <glyph glyph-name="onequarter" unicode="&#xbc;" horiz-adv-x="319" 
d="M142 727q29 0 34 -6t5 -43v-247h-63v234l-43 -11v61l38 12h29zM40 400h212v-55h-212v55zM206 125v-52h-29l7 -23v-50h-55v50l7 23h-127l115 240h60v-169l-7 -19h29zM136 219h-10l-34 -94h51l-7 19v75z" />
    <glyph glyph-name="onehalf" unicode="&#xbd;" horiz-adv-x="366" 
d="M139 99v-41h97v-58h-159v102q0 21 14.5 41t32.5 33q47 36 47 57q0 18 -7 22.5t-19 4.5h-30q-29 0 -34 6.5t-5 47.5l71 5q57 -1 72 -21.5t15 -67.5q0 -23 -15 -44t-33 -34q-47 -33 -47 -53zM155 727q29 0 34 -6t5 -43v-247h-63v234l-43 -11v61l38 12h29zM50 400h212v-55
h-212v55z" />
    <glyph glyph-name="threequarters" unicode="&#xbe;" horiz-adv-x="314" 
d="M30 400h213v-55h-213v55zM206 125v-52h-29l7 -23v-50h-55v50l7 23h-127l115 240h60v-169l-7 -19h29zM136 219h-10l-34 -94h51l-7 19v75zM61 726h154l-54 -94q29 -10 39 -27.5t10 -78.5t-13 -81t-65 -20q-7 0 -71 8v55q57 -5 70.5 -5t15 6.5t1.5 46.5t-2 46t-15 6h-46
l39 80h-63v58z" />
    <glyph glyph-name="questiondown" unicode="&#xbf;" horiz-adv-x="340" 
d="M276 524q18 -18 18 -42.5t-18 -41.5t-42 -17t-42 17t-18 41.5t18 42.5t42 18t42 -18zM277 354v-43q-1 -45 -25 -92t-52.5 -80.5t-52 -75t-23.5 -68.5t2 -38.5t10 -23.5q15 -23 74 -23h36q48 0 56 -10t8 -66l-104 -12q-72 0 -96.5 10t-37 16t-20.5 21t-12.5 23.5t-6.5 31
t-2 32.5v39q0 47 23.5 93.5t51.5 78.5q76 87 81 144v43h90z" />
    <glyph glyph-name="Agrave" unicode="&#xc0;" horiz-adv-x="452" 
d="M399 0q-51 0 -61.5 8t-19.5 53l-34 169h-126l-41 -230h-23q-48 0 -61 5.5t-13 26t152 688.5h96l164 -720h-33zM215 538l-37 -195l-8 -17h103q-1 1 -5 9.5t-4 9.5l-39 193h-10zM151 908q19 19 30.5 19t19.5 -4q12 -7 36 -33l75 -83l-56 -58l-132 132z" />
    <glyph glyph-name="Aacute" unicode="&#xc1;" horiz-adv-x="452" 
d="M399 0q-51 0 -61.5 8t-19.5 53l-34 169h-126l-41 -230h-23q-48 0 -61 5.5t-13 26t152 688.5h96l164 -720h-33zM215 538l-37 -195l-8 -17h103q-1 1 -5 9.5t-4 9.5l-39 193h-10zM346 899l19 -18l-132 -132l-56 58l73 83q26 26 35.5 31.5t21 5.5t39.5 -28z" />
    <glyph glyph-name="Acircumflex" unicode="&#xc2;" horiz-adv-x="452" 
d="M399 0q-51 0 -61.5 8t-19.5 53l-34 169h-126l-41 -230h-23q-48 0 -61 5.5t-13 26t152 688.5h96l164 -720h-33zM215 538l-37 -195l-8 -17h103q-1 1 -5 9.5t-4 9.5l-39 193h-10zM205 927h34l130 -73v-90l-146 80l-146 -80v91z" />
    <glyph glyph-name="Atilde" unicode="&#xc3;" horiz-adv-x="452" 
d="M399 0q-51 0 -61.5 8t-19.5 53l-34 169h-126l-41 -230h-23q-48 0 -61 5.5t-13 26t152 688.5h96l164 -720h-33zM215 538l-37 -195l-8 -17h103q-1 1 -5 9.5t-4 9.5l-39 193h-10zM351 853q0 -35 -9 -40.5t-49 -5.5t-83.5 5t-66.5 5t-30 -2l-33 2v37q0 34 9 39.5t48 5.5
t82 -4.5t68 -4.5t32 1l32 -1v-37z" />
    <glyph glyph-name="Adieresis" unicode="&#xc4;" horiz-adv-x="452" 
d="M399 0q-51 0 -61.5 8t-19.5 53l-34 169h-126l-41 -230h-23q-48 0 -61 5.5t-13 26t152 688.5h96l164 -720h-33zM215 538l-37 -195l-8 -17h103q-1 1 -5 9.5t-4 9.5l-39 193h-10zM93.5 801.5q-18.5 18.5 -18.5 43t18 41.5t42 17t42 -17t18 -41.5t-18 -43t-41.5 -18.5
t-42 18.5zM266.5 801.5q-18.5 18.5 -18.5 43t18 41.5t42.5 17t42.5 -17t18 -41.5t-18 -43t-42 -18.5t-42.5 18.5z" />
    <glyph glyph-name="Aring" unicode="&#xc5;" horiz-adv-x="452" 
d="M150.5 764q-28.5 28 -28.5 66t28.5 65.5t66.5 27.5t66 -27.5t28 -66t-28 -66t-66 -27.5t-66.5 28zM195.5 850q-9.5 -9 -9.5 -20.5t10 -21.5t21.5 -10t21.5 10t10 21.5t-10 20.5t-22 9t-21.5 -9zM399 0q-51 0 -61.5 8t-19.5 53l-34 169h-126l-41 -230h-23q-48 0 -61 5.5
t-13 26t152 688.5h96l164 -720h-33zM215 538l-37 -195l-8 -17h103q-1 1 -5 9.5t-4 9.5l-39 193h-10z" />
    <glyph glyph-name="AE" unicode="&#xc6;" horiz-adv-x="635" 
d="M279 0v230h-106l-48 -230h-24q-47 0 -60 5.5t-13 26t5 37.5l147 651h409v-94h-211l7 -19v-151l-6 -20h196v-97h-197l7 -19v-200l-8 -22h221v-98h-319zM279 325v1v-1zM196 321l1 5q-1 -2 -1 -5zM279 326v300h-28l-54 -300h82z" />
    <glyph glyph-name="Ccedilla" unicode="&#xc7;" horiz-adv-x="412" 
d="M372 11l-101 -16v-112q0 -38 -9.5 -48t-47.5 -10h-33q-49 0 -57 9t-8 63h83v98q-56 7 -95 47q-24 26 -42 102q-12 48 -12 222v67q0 72 5 105.5t11 63.5t15 45.5t23 34.5t32 28q44 22 96 22l139 -32q-8 -58 -30 -72q-12 -7 -34 -7t-52 6l-28 7q-28 0 -45 -18t-24 -62.5
t-8.5 -79.5t-1.5 -108t1.5 -108t8.5 -79.5t24 -62.5t46 -18t79 4.5t65 5.5v-97z" />
    <glyph glyph-name="Egrave" unicode="&#xc8;" horiz-adv-x="404" 
d="M374 89v-89h-314v720h304v-85h-215l9 -25v-153l-9 -25h203v-89h-202l8 -23v-206l-9 -25h225zM145 908q19 19 30.5 19t19.5 -5q12 -6 36 -32l75 -83l-56 -58l-132 132z" />
    <glyph glyph-name="Eacute" unicode="&#xc9;" horiz-adv-x="404" 
d="M374 89v-89h-314v720h304v-85h-215l9 -25v-153l-9 -25h203v-89h-202l8 -23v-206l-9 -25h225zM323 899l19 -18l-132 -132l-56 58l73 83q26 26 35.5 31.5t21 5.5t39.5 -28z" />
    <glyph glyph-name="Ecircumflex" unicode="&#xca;" horiz-adv-x="404" 
d="M374 89v-89h-314v720h304v-85h-215l9 -25v-153l-9 -25h203v-89h-202l8 -23v-206l-9 -25h225zM200 927h34l130 -73v-90l-146 80l-146 -80v91z" />
    <glyph glyph-name="Edieresis" unicode="&#xcb;" horiz-adv-x="404" 
d="M374 89v-89h-314v720h304v-85h-215l9 -25v-153l-9 -25h203v-89h-202l8 -23v-206l-9 -25h225zM90.5 801.5q-18.5 18.5 -18.5 43t18 41.5t42 17t42 -17t18 -41.5t-18 -43t-41.5 -18.5t-42 18.5zM263.5 801.5q-18.5 18.5 -18.5 43t18 41.5t42.5 17t42.5 -17t18 -41.5
t-18 -43t-42 -18.5t-42.5 18.5z" />
    <glyph glyph-name="Igrave" unicode="&#xcc;" horiz-adv-x="215" 
d="M60 61v659h21q55 0 64.5 -7.5t9.5 -53.5v-659h-23q-54 0 -63 7.5t-9 53.5zM4 908q19 19 30.5 19t19.5 -4q12 -7 36 -33l75 -83l-56 -58l-132 132z" />
    <glyph glyph-name="Iacute" unicode="&#xcd;" horiz-adv-x="215" 
d="M60 61v659h21q55 0 64.5 -7.5t9.5 -53.5v-659h-23q-54 0 -63 7.5t-9 53.5zM239 899l19 -18l-132 -132l-56 58l73 83q26 26 35.5 31.5t21 5.5t39.5 -28z" />
    <glyph glyph-name="Icircumflex" unicode="&#xce;" horiz-adv-x="215" 
d="M60 61v659h21q55 0 64.5 -7.5t9.5 -53.5v-659h-23q-54 0 -63 7.5t-9 53.5zM92 927h34l130 -73v-90l-146 80l-146 -80v91z" />
    <glyph glyph-name="Idieresis" unicode="&#xcf;" horiz-adv-x="215" 
d="M60 61v659h21q55 0 64.5 -7.5t9.5 -53.5v-659h-23q-54 0 -63 7.5t-9 53.5zM-18.5 801.5q-18.5 18.5 -18.5 43t18 41.5t42 17t42 -17t18 -41.5t-18 -43t-41.5 -18.5t-42 18.5zM154.5 801.5q-18.5 18.5 -18.5 43t18 41.5t42.5 17t42.5 -17t18 -41.5t-18 -43t-42 -18.5
t-42.5 18.5z" />
    <glyph glyph-name="Eth" unicode="&#xd0;" horiz-adv-x="453" 
d="M415 434v-68q0 -182 -15 -234q-21 -78 -51 -102q-47 -37 -115 -37l-189 7v722l189 10q52 0 96 -22q18 -9 31.5 -28t22.5 -34t15 -45t9 -50q7 -47 7 -119zM256 434v-83h-127l10 -22v-227l-10 -20h105q34 0 50 23q20 28 24.5 56.5t7 45.5t3.5 49.5t1 51.5v115
q0 70 -3.5 92.5t-7.5 46t-10 35t-15 23.5q-16 23 -50 23h-105l10 -27v-159l-10 -23h127z" />
    <glyph glyph-name="Ntilde" unicode="&#xd1;" horiz-adv-x="436" 
d="M296 220v500h22q54 0 63 -7.5t9 -53.5v-659h-30q-50 0 -62 7.5t-26 48.5l-129 432h-5v-427q0 -46 -9 -53.5t-63 -7.5h-21v720h22q49 0 60 -7t27 -49l137 -444h5zM351 853q0 -35 -9 -40.5t-49 -5.5t-83.5 5t-66.5 5t-30 -2l-33 2v37q0 34 9 39.5t48 5.5t82 -4.5t68 -4.5
t32 1l32 -1v-37z" />
    <glyph glyph-name="Ograve" unicode="&#xd2;" horiz-adv-x="487" 
d="M90.5 79q-40.5 86 -40.5 284t43 283.5t151.5 85.5t150.5 -85t42 -284t-39.5 -284.5t-153 -85.5t-154 86zM145 366q0 -143 22 -213.5t77.5 -70.5t77.5 70.5t22 212.5q0 278 -99.5 278t-99.5 -277zM135 918q19 19 30.5 19t19.5 -5q12 -6 36 -32l75 -83l-56 -58l-132 132z
" />
    <glyph glyph-name="Oacute" unicode="&#xd3;" horiz-adv-x="487" 
d="M90.5 79q-40.5 86 -40.5 284t43 283.5t151.5 85.5t150.5 -85t42 -284t-39.5 -284.5t-153 -85.5t-154 86zM145 366q0 -143 22 -213.5t77.5 -70.5t77.5 70.5t22 212.5q0 278 -99.5 278t-99.5 -277zM354 909l19 -18l-132 -132l-56 58l73 83q26 26 35.5 31.5t21 5.5t39.5 -28
z" />
    <glyph glyph-name="Ocircumflex" unicode="&#xd4;" horiz-adv-x="487" 
d="M90.5 79q-40.5 86 -40.5 284t43 283.5t151.5 85.5t150.5 -85t42 -284t-39.5 -284.5t-153 -85.5t-154 86zM145 366q0 -143 22 -213.5t77.5 -70.5t77.5 70.5t22 212.5q0 278 -99.5 278t-99.5 -277zM234 927h34l130 -73v-90l-146 80l-146 -80v91z" />
    <glyph glyph-name="Otilde" unicode="&#xd5;" horiz-adv-x="487" 
d="M90.5 79q-40.5 86 -40.5 284t43 283.5t151.5 85.5t150.5 -85t42 -284t-39.5 -284.5t-153 -85.5t-154 86zM145 366q0 -143 22 -213.5t77.5 -70.5t77.5 70.5t22 212.5q0 278 -99.5 278t-99.5 -277zM183 899l141 -9q19 0 26 1l32 -1v-37q0 -34 -9 -40t-49 -6t-83.5 5
t-66.5 5t-30 -2l-33 2v37q0 34 9 39.5t63 5.5z" />
    <glyph glyph-name="Odieresis" unicode="&#xd6;" horiz-adv-x="487" 
d="M90.5 79q-40.5 86 -40.5 284t43 283.5t151.5 85.5t150.5 -85t42 -284t-39.5 -284.5t-153 -85.5t-154 86zM145 366q0 -143 22 -213.5t77.5 -70.5t77.5 70.5t22 212.5q0 278 -99.5 278t-99.5 -277zM115.5 801.5q-18.5 18.5 -18.5 43t18 41.5t42 17t42 -17t18 -41.5t-18 -43
t-41.5 -18.5t-42 18.5zM288.5 801.5q-18.5 18.5 -18.5 43t18 41.5t42.5 17t42.5 -17t18 -41.5t-18 -43t-42 -18.5t-42.5 18.5z" />
    <glyph glyph-name="multiply" unicode="&#xd7;" horiz-adv-x="281" 
d="M205 308l48 -48l-57 -58l-47 47l-14 21l-64 -64l-52 52l64 65l-21 14l-46 46l57 57l46 -46l14 -22l65 66l53 -53l-66 -65z" />
    <glyph glyph-name="Oslash" unicode="&#xd8;" horiz-adv-x="469" 
d="M97 69q-43 82 -43 289.5t37 290.5t146 83q21 0 38 -4l29 71h97l-46 -113q37 -39 51 -115t14 -205q0 -202 -37.5 -287.5t-145.5 -85.5q-37 0 -69 13l-23 -54h-96zM164 579q-21 -69 -21 -214.5t20.5 -216.5t73.5 -71t73 70.5t20 216t-20.5 215t-72.5 69.5t-73 -69z" />
    <glyph glyph-name="Ugrave" unicode="&#xd9;" horiz-adv-x="471" 
d="M324 300v420h25q53 0 62.5 -7.5t9.5 -53.5v-359q0 -154 -7.5 -180.5t-16 -50.5t-21.5 -34.5t-32 -22.5q-32 -19 -105 -19q-59 0 -81.5 10t-35.5 16.5t-23 22.5t-16.5 26t-10.5 34.5t-6.5 38.5t-3.5 47.5t-1 51.5v480h24q54 0 63 -7.5t9 -53.5v-391q0 -109 13.5 -147.5
t68.5 -38.5q21 0 35.5 4.5t24 19.5t15 27.5t7.5 44.5q3 47 3 122zM148 908q19 19 30.5 19t19.5 -5q12 -6 36 -32l75 -83l-56 -58l-132 132z" />
    <glyph glyph-name="Uacute" unicode="&#xda;" horiz-adv-x="471" 
d="M324 300v420h25q53 0 62.5 -7.5t9.5 -53.5v-359q0 -154 -7.5 -180.5t-16 -50.5t-21.5 -34.5t-32 -22.5q-32 -19 -105 -19q-59 0 -81.5 10t-35.5 16.5t-23 22.5t-16.5 26t-10.5 34.5t-6.5 38.5t-3.5 47.5t-1 51.5v480h24q54 0 63 -7.5t9 -53.5v-391q0 -109 13.5 -147.5
t68.5 -38.5q21 0 35.5 4.5t24 19.5t15 27.5t7.5 44.5q3 47 3 122zM360 899l19 -18l-132 -132l-56 58l73 83q26 26 35.5 31.5t21 5.5t39.5 -28z" />
    <glyph glyph-name="Ucircumflex" unicode="&#xdb;" horiz-adv-x="471" 
d="M324 300v420h25q53 0 62.5 -7.5t9.5 -53.5v-359q0 -154 -7.5 -180.5t-16 -50.5t-21.5 -34.5t-32 -22.5q-32 -19 -105 -19q-59 0 -81.5 10t-35.5 16.5t-23 22.5t-16.5 26t-10.5 34.5t-6.5 38.5t-3.5 47.5t-1 51.5v480h24q54 0 63 -7.5t9 -53.5v-391q0 -109 13.5 -147.5
t68.5 -38.5q21 0 35.5 4.5t24 19.5t15 27.5t7.5 44.5q3 47 3 122zM221 927h34l130 -73v-90l-146 80l-146 -80v91z" />
    <glyph glyph-name="Udieresis" unicode="&#xdc;" horiz-adv-x="471" 
d="M324 300v420h25q53 0 62.5 -7.5t9.5 -53.5v-359q0 -154 -7.5 -180.5t-16 -50.5t-21.5 -34.5t-32 -22.5q-32 -19 -105 -19q-59 0 -81.5 10t-35.5 16.5t-23 22.5t-16.5 26t-10.5 34.5t-6.5 38.5t-3.5 47.5t-1 51.5v480h24q54 0 63 -7.5t9 -53.5v-391q0 -109 13.5 -147.5
t68.5 -38.5q21 0 35.5 4.5t24 19.5t15 27.5t7.5 44.5q3 47 3 122zM111.5 801.5q-18.5 18.5 -18.5 43t18 41.5t42 17t42 -17t18 -41.5t-18 -43t-41.5 -18.5t-42 18.5zM284.5 801.5q-18.5 18.5 -18.5 43t18 41.5t42.5 17t42.5 -17t18 -41.5t-18 -43t-42 -18.5t-42.5 18.5z" />
    <glyph glyph-name="Yacute" unicode="&#xdd;" horiz-adv-x="409" 
d="M330 720q36 0 47.5 -4t11.5 -20t-131 -351v-345h-22q-54 0 -63.5 7.5t-9.5 53.5v285l-143 374h39q43 0 53 -7t26 -49l66 -201h15l85 257h26zM344 899l19 -18l-132 -132l-56 58l73 83q26 26 35.5 31.5t21 5.5t39.5 -28z" />
    <glyph glyph-name="Thorn" unicode="&#xde;" horiz-adv-x="373" 
d="M45 -129v803q0 46 11.5 54t78.5 8v-147l72 20q79 0 120 -45q16 -17 23.5 -61.5t8.5 -77.5t1 -94t-0.5 -85t-2 -62t-6 -57t-11.5 -45.5t-18 -39t-27 -26.5q-28 -23 -89 -23l-71 35v-219q-67 0 -78.5 7.5t-11.5 54.5zM268.5 252q0.5 22 0.5 109.5t-10 120.5q-13 41 -48 42
l-82 -20l7 -17v-351l-8 -23l81 -35q31 2 43 34q12 35 14 76.5t2.5 63.5z" />
    <glyph glyph-name="germandbls" unicode="&#xdf;" horiz-adv-x="472" 
d="M165 88q90 -10 135 -10t45 52v37q0 15 -28.5 40.5t-62 51t-62 62.5t-28.5 71.5t4.5 57.5t17.5 46q25 47 114 47q6 0 7 11t1 65q0 20 -53 20h-45q-56 0 -65 -10t-9 -71l-1 -487q0 -53 -11.5 -62t-78.5 -9l1 558v50q0 48 6 61t15 25t19 14.5t30 6.5q24 5 94 5h50
q82 0 118 -46q15 -19 15 -44q0 -112 -12 -141.5t-71 -29.5q-40 0 -49 -18q-7 -14 -7 -42q0 -26 66 -74q28 -20 55 -42t46.5 -50.5t19.5 -60.5t-1 -50t-8.5 -47t-21.5 -44t-42.5 -26.5t-59 -11.5t-52 2.5t-50 7.5t-41.5 7v78z" />
    <glyph glyph-name="agrave" unicode="&#xe0;" horiz-adv-x="362" 
d="M234 413l1 27q0 14 -3 15t-7 4.5t-10.5 1.5t-15.5 -1l-54 -7q-21 -3 -36 -3t-23 7t-16 64l116 23q71 0 89 -10.5t26 -17.5t11 -28q5 -26 5 -82v-406q-58 0 -73 6t-16 29l-83 -42q-28 0 -41.5 0.5t-27 8.5t-18 16t-8.5 34q-5 31 -5 127v69q0 113 197 117l-8 24v24zM139 78
q1 0 101 38l-10 29v119l8 23q-41 -1 -72 -8t-31 -19l-1 -132q0 -50 5 -50zM123 758q19 19 30.5 19t19.5 -4q12 -7 36 -33l75 -83l-56 -58l-132 132z" />
    <glyph glyph-name="aacute" unicode="&#xe1;" horiz-adv-x="362" 
d="M234 413l1 27q0 14 -3 15t-7 4.5t-10.5 1.5t-15.5 -1l-54 -7q-21 -3 -36 -3t-23 7t-16 64l116 23q71 0 89 -10.5t26 -17.5t11 -28q5 -26 5 -82v-406q-58 0 -73 6t-16 29l-83 -42q-28 0 -41.5 0.5t-27 8.5t-18 16t-8.5 34q-5 31 -5 127v69q0 113 197 117l-8 24v24zM139 78
q1 0 101 38l-10 29v119l8 23q-41 -1 -72 -8t-31 -19l-1 -132q0 -50 5 -50zM284 749l19 -18l-132 -132l-56 58l73 83q26 26 35.5 31.5t21 5.5t39.5 -28z" />
    <glyph glyph-name="acircumflex" unicode="&#xe2;" horiz-adv-x="362" 
d="M234 413l1 27q0 14 -3 15t-7 4.5t-10.5 1.5t-15.5 -1l-54 -7q-21 -3 -36 -3t-23 7t-16 64l116 23q71 0 89 -10.5t26 -17.5t11 -28q5 -26 5 -82v-406q-58 0 -73 6t-16 29l-83 -42q-28 0 -41.5 0.5t-27 8.5t-18 16t-8.5 34q-5 31 -5 127v69q0 113 197 117l-8 24v24zM139 78
q1 0 101 38l-10 29v119l8 23q-41 -1 -72 -8t-31 -19l-1 -132q0 -50 5 -50zM170 777h34l130 -73v-90l-146 80l-146 -80v91z" />
    <glyph glyph-name="atilde" unicode="&#xe3;" horiz-adv-x="362" 
d="M234 413l1 27q0 14 -3 15t-7 4.5t-10.5 1.5t-15.5 -1l-54 -7q-21 -3 -36 -3t-23 7t-16 64l116 23q71 0 89 -10.5t26 -17.5t11 -28q5 -26 5 -82v-406q-58 0 -73 6t-16 29l-83 -42q-28 0 -41.5 0.5t-27 8.5t-18 16t-8.5 34q-5 31 -5 127v69q0 113 197 117l-8 24v24zM139 78
q1 0 101 38l-10 29v119l8 23q-41 -1 -72 -8t-31 -19l-1 -132q0 -50 5 -50zM123 716l141 -9q19 0 26 1l32 -1v-37q0 -34 -9 -40t-49 -6t-83.5 5t-66.5 5t-30 -2l-33 2v37q0 34 9 39.5t63 5.5z" />
    <glyph glyph-name="adieresis" unicode="&#xe4;" horiz-adv-x="362" 
d="M234 413l1 27q0 14 -3 15t-7 4.5t-10.5 1.5t-15.5 -1l-54 -7q-21 -3 -36 -3t-23 7t-16 64l116 23q71 0 89 -10.5t26 -17.5t11 -28q5 -26 5 -82v-406q-58 0 -73 6t-16 29l-83 -42q-28 0 -41.5 0.5t-27 8.5t-18 16t-8.5 34q-5 31 -5 127v69q0 113 197 117l-8 24v24zM139 78
q1 0 101 38l-10 29v119l8 23q-41 -1 -72 -8t-31 -19l-1 -132q0 -50 5 -50zM62.5 630.5q-18.5 18.5 -18.5 43t18 41.5t42 17t42 -17t18 -41.5t-18 -43t-41.5 -18.5t-42 18.5zM235.5 630.5q-18.5 18.5 -18.5 43t18 41.5t42.5 17t42.5 -17t18 -41.5t-18 -43t-42 -18.5
t-42.5 18.5z" />
    <glyph glyph-name="aring" unicode="&#xe5;" horiz-adv-x="362" 
d="M122.5 601q-28.5 28 -28.5 66t28.5 65.5t66.5 27.5t66 -27.5t28 -66t-28 -66t-66 -27.5t-66.5 28zM167.5 687q-9.5 -9 -9.5 -20.5t10 -21.5t21.5 -10t21.5 10t10 21.5t-10 20.5t-22 9t-21.5 -9zM234 413l1 27q0 14 -3 15t-7 4.5t-10.5 1.5t-15.5 -1l-54 -7q-21 -3 -36 -3
t-23 7t-16 64l116 23q71 0 89 -10.5t26 -17.5t11 -28q5 -26 5 -82v-406q-58 0 -73 6t-16 29l-83 -42q-28 0 -41.5 0.5t-27 8.5t-18 16t-8.5 34q-5 31 -5 127v69q0 113 197 117l-8 24v24zM139 78q1 0 101 38l-10 29v119l8 23q-41 -1 -72 -8t-31 -19l-1 -132q0 -50 5 -50z" />
    <glyph glyph-name="ae" unicode="&#xe6;" horiz-adv-x="576" 
d="M379 459q-39 0 -49.5 -22t-10.5 -80l-5 -16h111l-5 16q0 57 -7.5 79.5t-33.5 22.5zM225 116l-1 142q-95 -2 -95 -23l-1 -107q0 -44 6 -50zM308 255l6 -18q0 -97 11 -128t54 -31q28 0 75.5 4.5t61.5 5.5v-78q-17 -2 -44 -6q-63 -11 -93 -11q-97 0 -126 56l-113 -56
q-50 0 -65 13.5t-21 24t-9 37.5q-4 36 -4 118v42q0 113 183 117v68q0 37 -18 43q-10 3 -25 3l-42 -6q-21 -3 -36 -3t-23 7t-16 64l116 23q71 0 101 -24q38 24 98 24q84 0 107 -40q9 -17 14 -29.5t7 -40.5q3 -43 3 -106v-68z" />
    <glyph glyph-name="ccedilla" unicode="&#xe7;" horiz-adv-x="334" 
d="M134 271q0 -63 1 -89.5t6.5 -56t18 -38.5t33 -9t38 3.5t38.5 9t35 7.5v-78q-13 -3 -40.5 -12.5t-42.5 -11.5v-113q0 -38 -9.5 -48t-47.5 -10h-33q-49 0 -57 9t-8 63h83v100q-38 5 -66 29q-16 15 -30 68q-8 31 -8 125v113q0 68 4 89.5t9 43.5t12.5 30.5t18.5 20.5t27 16
q39 12 79 12l113 -24q-8 -57 -16 -64t-23 -7t-36 3l-38 7q-23 0 -35.5 -8t-18 -36.5t-6.5 -54.5t-1 -89z" />
    <glyph glyph-name="egrave" unicode="&#xe8;" horiz-adv-x="369" 
d="M201 78q68 0 138 10v-78q-93 -17 -132 -17t-62.5 5.5t-40.5 13t-28 25.5t-17 33.5t-9 47.5q-4 43 -4 91.5v81.5v52q0 71 4 88.5t9 38t13 29t19.5 20t26.5 15.5q47 10 84 10t63.5 -11.5t41 -28.5t22.5 -48q13 -49 13 -128l3 -68l-218 -5l8 -23q0 -99 9.5 -126.5
t56.5 -27.5zM242.5 438.5q-9.5 20.5 -45.5 20.5t-46.5 -18t-10.5 -78l-8 -22h131l-10 22q-1 55 -10.5 75.5zM132 752q19 19 30.5 19t19.5 -5q12 -6 36 -32l75 -83l-56 -58l-132 132z" />
    <glyph glyph-name="eacute" unicode="&#xe9;" horiz-adv-x="369" 
d="M201 78q68 0 138 10v-78q-93 -17 -132 -17t-62.5 5.5t-40.5 13t-28 25.5t-17 33.5t-9 47.5q-4 43 -4 91.5v81.5v52q0 71 4 88.5t9 38t13 29t19.5 20t26.5 15.5q47 10 84 10t63.5 -11.5t41 -28.5t22.5 -48q13 -49 13 -128l3 -68l-218 -5l8 -23q0 -99 9.5 -126.5
t56.5 -27.5zM242.5 438.5q-9.5 20.5 -45.5 20.5t-46.5 -18t-10.5 -78l-8 -22h131l-10 22q-1 55 -10.5 75.5zM325 745l19 -18l-132 -132l-56 58l73 83q26 26 35.5 31.5t21 5.5t39.5 -28z" />
    <glyph glyph-name="ecircumflex" unicode="&#xea;" horiz-adv-x="369" 
d="M201 78q68 0 138 10v-78q-93 -17 -132 -17t-62.5 5.5t-40.5 13t-28 25.5t-17 33.5t-9 47.5q-4 43 -4 91.5v81.5v52q0 71 4 88.5t9 38t13 29t19.5 20t26.5 15.5q47 10 84 10t63.5 -11.5t41 -28.5t22.5 -48q13 -49 13 -128l3 -68l-218 -5l8 -23q0 -99 9.5 -126.5
t56.5 -27.5zM242.5 438.5q-9.5 20.5 -45.5 20.5t-46.5 -18t-10.5 -78l-8 -22h131l-10 22q-1 55 -10.5 75.5zM200 769h34l130 -73v-90l-146 80l-146 -80v91z" />
    <glyph glyph-name="edieresis" unicode="&#xeb;" horiz-adv-x="369" 
d="M201 78q68 0 138 10v-78q-93 -17 -132 -17t-62.5 5.5t-40.5 13t-28 25.5t-17 33.5t-9 47.5q-4 43 -4 91.5v81.5v52q0 71 4 88.5t9 38t13 29t19.5 20t26.5 15.5q47 10 84 10t63.5 -11.5t41 -28.5t22.5 -48q13 -49 13 -128l3 -68l-218 -5l8 -23q0 -99 9.5 -126.5
t56.5 -27.5zM242.5 438.5q-9.5 20.5 -45.5 20.5t-46.5 -18t-10.5 -78l-8 -22h131l-10 22q-1 55 -10.5 75.5zM86.5 618.5q-18.5 18.5 -18.5 43t18 41.5t42 17t42 -17t18 -41.5t-18 -43t-41.5 -18.5t-42 18.5zM259.5 618.5q-18.5 18.5 -18.5 43t18 41.5t42.5 17t42.5 -17
t18 -41.5t-18 -43t-42 -18.5t-42.5 18.5z" />
    <glyph glyph-name="igrave" unicode="&#xec;" horiz-adv-x="216" 
d="M57 56v481q67 0 78 -7.5t11 -52.5v-481q-67 0 -78 7.5t-11 52.5zM25 758q19 19 30.5 19t19.5 -5q12 -6 36 -32l75 -83l-56 -58l-132 132z" />
    <glyph glyph-name="iacute" unicode="&#xed;" horiz-adv-x="194" 
d="M45 56v481q67 0 78 -7.5t11 -52.5v-481q-67 0 -78 7.5t-11 52.5zM179 747l19 -18l-132 -132l-56 58l73 83q26 26 35.5 31.5t21 5.5t39.5 -28z" />
    <glyph glyph-name="icircumflex" unicode="&#xee;" horiz-adv-x="324" 
d="M116 56v481q67 0 78 -7.5t11 -52.5v-481q-67 0 -78 7.5t-11 52.5zM146 766h34l130 -73v-90l-146 80l-146 -80v91z" />
    <glyph glyph-name="idieresis" unicode="&#xef;" horiz-adv-x="331" 
d="M105 56v481q67 0 78 -7.5t11 -52.5v-481q-67 0 -78 7.5t-11 52.5zM17.5 624.5q-18.5 18.5 -18.5 43t18 41.5t42 17t42 -17t18 -41.5t-18 -43t-41.5 -18.5t-42 18.5zM190.5 624.5q-18.5 18.5 -18.5 43t18 41.5t42.5 17t42.5 -17t18 -41.5t-18 -43t-42 -18.5t-42.5 18.5z
" />
    <glyph glyph-name="eth" unicode="&#xf0;" horiz-adv-x="374" 
d="M179 410l-2 1zM129 380q-10 -29 -10 -134.5t9 -133.5t53.5 -28t54.5 36q7 29 7 90v85l-1 90l-63 25q-40 -1 -50 -30zM142 632v88q61 0 94 -22q18 -12 32.5 -24.5t25 -35.5t17.5 -41t12 -50.5t7.5 -55t3.5 -61.5q2 -80 2 -135q0 -195 -23 -245t-133 -50q-54 0 -72 6
t-29 10t-19.5 15t-14 18.5t-9.5 26.5t-6 31.5t-3 40t-1 46.5v56q0 160 22.5 202t134.5 42l51 -23q-8 85 -28.5 123t-63.5 38z" />
    <glyph glyph-name="ntilde" unicode="&#xf1;" horiz-adv-x="415" 
d="M275 267l1 88q0 40 -2 60q-4 42 -47 44l-92 -27l9 -28v-404q-67 0 -78 7.5t-11 52.5v477q58 0 73 -3t16 -18l74 28q61 0 80 -8t29 -14t18 -24.5t11 -34t6 -49.5q3 -49 3 -148v-266q-67 0 -78.5 7.5t-11.5 52.5v207zM156 716l141 -9q19 0 26 1l32 -1v-37q0 -34 -9 -40
t-49 -6t-83.5 5t-66.5 5t-30 -2l-33 2v37q0 34 9 39.5t63 5.5z" />
    <glyph glyph-name="ograve" unicode="&#xf2;" horiz-adv-x="399" 
d="M45 266v62t3 83t7 41.5t9.5 30t14 22.5t19.5 18t26 11q25 10 73 10t77.5 -11.5t46 -26t23.5 -56t8.5 -73.5t1.5 -87v-75q0 -64 -3 -85t-7 -42t-9.5 -30.5t-14 -23t-20 -19t-26.5 -11.5q-24 -11 -64 -11t-61.5 3t-38 13t-27.5 19t-18.5 30.5t-11.5 36.5t-5 49
q-3 57 -3 122zM199 459q-45 0 -55 -36.5t-10 -126t1 -116t7 -56t19.5 -38t37.5 -8.5q45 0 55 38t10 128t-1 116t-7 54t-19.5 36.5t-37.5 8.5zM132 758q19 19 30.5 19t19.5 -5q12 -6 36 -32l75 -83l-56 -58l-132 132z" />
    <glyph glyph-name="oacute" unicode="&#xf3;" horiz-adv-x="399" 
d="M45 266v62t3 83t7 41.5t9.5 30t14 22.5t19.5 18t26 11q25 10 73 10t77.5 -11.5t46 -26t23.5 -56t8.5 -73.5t1.5 -87v-75q0 -64 -3 -85t-7 -42t-9.5 -30.5t-14 -23t-20 -19t-26.5 -11.5q-24 -11 -64 -11t-61.5 3t-38 13t-27.5 19t-18.5 30.5t-11.5 36.5t-5 49
q-3 57 -3 122zM199 459q-45 0 -55 -36.5t-10 -126t1 -116t7 -56t19.5 -38t37.5 -8.5q45 0 55 38t10 128t-1 116t-7 54t-19.5 36.5t-37.5 8.5zM332 745l19 -18l-132 -132l-56 58l73 83q26 26 35.5 31.5t21 5.5t39.5 -28z" />
    <glyph glyph-name="ocircumflex" unicode="&#xf4;" horiz-adv-x="399" 
d="M45 266v62t3 83t7 41.5t9.5 30t14 22.5t19.5 18t26 11q25 10 73 10t77.5 -11.5t46 -26t23.5 -56t8.5 -73.5t1.5 -87v-75q0 -64 -3 -85t-7 -42t-9.5 -30.5t-14 -23t-20 -19t-26.5 -11.5q-24 -11 -64 -11t-61.5 3t-38 13t-27.5 19t-18.5 30.5t-11.5 36.5t-5 49
q-3 57 -3 122zM199 459q-45 0 -55 -36.5t-10 -126t1 -116t7 -56t19.5 -38t37.5 -8.5q45 0 55 38t10 128t-1 116t-7 54t-19.5 36.5t-37.5 8.5zM181 777h34l130 -73v-90l-146 80l-146 -80v91z" />
    <glyph glyph-name="otilde" unicode="&#xf5;" horiz-adv-x="399" 
d="M45 266v62t3 83t7 41.5t9.5 30t14 22.5t19.5 18t26 11q25 10 73 10t77.5 -11.5t46 -26t23.5 -56t8.5 -73.5t1.5 -87v-75q0 -64 -3 -85t-7 -42t-9.5 -30.5t-14 -23t-20 -19t-26.5 -11.5q-24 -11 -64 -11t-61.5 3t-38 13t-27.5 19t-18.5 30.5t-11.5 36.5t-5 49
q-3 57 -3 122zM199 459q-45 0 -55 -36.5t-10 -126t1 -116t7 -56t19.5 -38t37.5 -8.5q45 0 55 38t10 128t-1 116t-7 54t-19.5 36.5t-37.5 8.5zM341 670q0 -34 -9 -40t-49 -6t-83.5 5t-66.5 5t-30 -2l-33 2v37q0 34 9 39.5t48 5.5t82 -4.5t68 -4.5t32 1l32 -1v-37z" />
    <glyph glyph-name="odieresis" unicode="&#xf6;" horiz-adv-x="399" 
d="M45 266v62t3 83t7 41.5t9.5 30t14 22.5t19.5 18t26 11q25 10 73 10t77.5 -11.5t46 -26t23.5 -56t8.5 -73.5t1.5 -87v-75q0 -64 -3 -85t-7 -42t-9.5 -30.5t-14 -23t-20 -19t-26.5 -11.5q-24 -11 -64 -11t-61.5 3t-38 13t-27.5 19t-18.5 30.5t-11.5 36.5t-5 49
q-3 57 -3 122zM199 459q-45 0 -55 -36.5t-10 -126t1 -116t7 -56t19.5 -38t37.5 -8.5q45 0 55 38t10 128t-1 116t-7 54t-19.5 36.5t-37.5 8.5zM72.5 626.5q-18.5 18.5 -18.5 43t18 41.5t42 17t42 -17t18 -41.5t-18 -43t-41.5 -18.5t-42 18.5zM245.5 626.5
q-18.5 18.5 -18.5 43t18 41.5t42.5 17t42.5 -17t18 -41.5t-18 -43t-42 -18.5t-42.5 18.5z" />
    <glyph glyph-name="divide" unicode="&#xf7;" horiz-adv-x="275" 
d="M96 18q-18 18 -18 42.5t18 41.5t42 17t42 -17t18 -41.5t-18 -42.5t-42 -18t-42 18zM102 436q-18 18 -18 42.5t18 41.5t42.5 17t42.5 -17t18 -41.5t-18.5 -42.5t-42.5 -18t-42 18zM26 333h235v-82h-235v82z" />
    <glyph glyph-name="oslash" unicode="&#xf8;" horiz-adv-x="394" 
d="M54.5 112q-5.5 50 -5.5 126v96q0 68 4 89.5t8.5 43.5t12 30.5t18 20.5t24.5 16q40 11 68.5 11t37.5 -1l36 90h95l-52 -127q23 -29 29 -79t6 -104v-56q0 -142 -5.5 -165t-12.5 -44.5t-17 -30t-25 -18.5q-24 -16 -83 -16q-13 0 -31 2l-33 -84h-94l49 121q-24 29 -29.5 79z
M227.5 457.5q-12.5 8.5 -31 8.5t-28.5 -3.5t-16.5 -15t-10 -22.5t-5.5 -36q-2 -42 -2 -142.5t8 -131.5q11 -42 51 -42t49.5 35.5t9.5 138.5v52.5t-1 67.5t-6 54t-17.5 36.5z" />
    <glyph glyph-name="ugrave" unicode="&#xf9;" horiz-adv-x="411" 
d="M281 113l-10 30v394q67 0 78.5 -7.5t11.5 -52.5v-477q-59 0 -74 3.5t-16 23.5l-64 -34q-79 0 -123 39q-28 24 -32 132q-2 33 -2 107v266q67 0 78 -7.5t11 -52.5v-204q0 -117 5.5 -136t11.5 -33q10 -24 41 -26zM130 754q19 19 30.5 19t19.5 -5q12 -6 36 -32l75 -83
l-56 -58l-132 132z" />
    <glyph glyph-name="uacute" unicode="&#xfa;" horiz-adv-x="411" 
d="M281 113l-10 30v394q67 0 78.5 -7.5t11.5 -52.5v-477q-59 0 -74 3.5t-16 23.5l-64 -34q-79 0 -123 39q-28 24 -32 132q-2 33 -2 107v266q67 0 78 -7.5t11 -52.5v-204q0 -117 5.5 -136t11.5 -33q10 -24 41 -26zM287 745l19 -18l-132 -132l-56 58l73 83q26 26 35.5 31.5
t21 5.5t39.5 -28z" />
    <glyph glyph-name="ucircumflex" unicode="&#xfb;" horiz-adv-x="411" 
d="M281 113l-10 30v394q67 0 78.5 -7.5t11.5 -52.5v-477q-59 0 -74 3.5t-16 23.5l-64 -34q-79 0 -123 39q-28 24 -32 132q-2 33 -2 107v266q67 0 78 -7.5t11 -52.5v-204q0 -117 5.5 -136t11.5 -33q10 -24 41 -26zM184 771h34l130 -73v-90l-146 80l-146 -80v91z" />
    <glyph glyph-name="udieresis" unicode="&#xfc;" horiz-adv-x="411" 
d="M281 113l-10 30v394q67 0 78.5 -7.5t11.5 -52.5v-477q-59 0 -74 3.5t-16 23.5l-64 -34q-79 0 -123 39q-28 24 -32 132q-2 33 -2 107v266q67 0 78 -7.5t11 -52.5v-204q0 -117 5.5 -136t11.5 -33q10 -24 41 -26zM80.5 628.5q-18.5 18.5 -18.5 43t18 41.5t42 17t42 -17
t18 -41.5t-18 -43t-41.5 -18.5t-42 18.5zM253.5 628.5q-18.5 18.5 -18.5 43t18 41.5t42.5 17t42.5 -17t18 -41.5t-18 -43t-42 -18.5t-42.5 18.5z" />
    <glyph glyph-name="yacute" unicode="&#xfd;" horiz-adv-x="356" 
d="M40 -187v72q39 0 66.5 24.5t27.5 56.5q0 8 -1 13l-113 558h39q30 0 38 -4.5t13.5 -12.5t6.5 -15.5t4 -24.5l57 -360h15l61 417q53 0 67.5 -4.5t14.5 -27.5l-106 -521q-15 -80 -33 -106q-25 -35 -48 -45q-52 -20 -109 -20zM259 743l19 -18l-132 -132l-56 58l73 83
q26 26 35.5 31.5t21 5.5t39.5 -28z" />
    <glyph glyph-name="thorn" unicode="&#xfe;" horiz-adv-x="358" 
d="M250 116q9 37 9 146.5t-9 151.5t-47 45l-70 -18v-329l68 -34q40 1 49 38zM45 -187v907q65 0 76.5 -7.5t11.5 -53.5v-135l57 20q64 0 86 -13t33.5 -22t19 -30t11.5 -37t6 -49q3 -49 3 -124.5t-1.5 -108t-8.5 -74t-23 -56.5q-43 -37 -123 -37l-60 41v-154q0 -50 -11 -58.5
t-77 -8.5z" />
    <glyph glyph-name="ydieresis" unicode="&#xff;" horiz-adv-x="356" 
d="M40 -187v72q39 0 66.5 24.5t27.5 56.5q0 8 -1 13l-113 558h39q30 0 38 -4.5t13.5 -12.5t6.5 -15.5t4 -24.5l57 -360h15l61 417q53 0 67.5 -4.5t14.5 -27.5l-106 -521q-15 -80 -33 -106q-25 -35 -48 -45q-52 -20 -109 -20zM58.5 622.5q-18.5 18.5 -18.5 43t18 41.5t42 17
t42 -17t18 -41.5t-18 -43t-41.5 -18.5t-42 18.5zM231.5 622.5q-18.5 18.5 -18.5 43t18 41.5t42.5 17t42.5 -17t18 -41.5t-18 -43t-42 -18.5t-42.5 18.5z" />
    <glyph glyph-name="dotlessi" unicode="&#x131;" horiz-adv-x="221" 
d="M90 378h-75q0 57 8.5 66.5t58.5 9.5h92v-335h-84v259z" />
    <glyph glyph-name="Lslash" unicode="&#x141;" horiz-adv-x="371" 
d="M278 89q54 0 63.5 -8t9.5 -54v-27h-291v720h25q54 0 63.5 -7.5t9.5 -53.5v-545l-9 -25h129zM-19 363h289v-82h-289v82z" />
    <glyph glyph-name="lslash" unicode="&#x142;" horiz-adv-x="199" 
d="M149 659v-663q-67 0 -78 7.5t-11 52.5v664q66 0 77.5 -7.5t11.5 -53.5zM-27 378h289v-82h-289v82z" />
    <glyph glyph-name="OE" unicode="&#x152;" horiz-adv-x="650" 
d="M136.5 448.5q-0.5 -29.5 -0.5 -85t0.5 -82t3 -67t8.5 -58.5t17 -38q19 -36 69 -36l71 7v545l-71 9q-49 -2 -68 -35q-22 -39 -25.5 -84.5t-4 -75zM609 635h-214l8 -36v-131l-8 -36h201v-89h-201l8 -35v-184l-8 -35h223v-89h-293l-89 -7q-48 0 -82 8t-55.5 34t-33 48
t-17.5 75q-7 73 -7 188.5t1.5 157.5t11 98t30.5 77q51 53 154 53l87 -12h284v-85z" />
    <glyph glyph-name="oe" unicode="&#x153;" horiz-adv-x="612" 
d="M360 116.5q13 -38.5 60.5 -38.5t147.5 10v-78q-15 -2 -46 -7q-62 -10 -101 -10q-78 0 -116 33q-33 -33 -109 -33q-62 0 -83.5 13t-32.5 22t-18.5 30.5t-11.5 36.5t-6 49q-2 57 -2 111v73q0 62 3 83t7 41.5t9.5 30t14 22.5t19.5 18t26 11q25 10 87 10t97 -29q35 29 116 29
q56 0 76 -11t30.5 -18.5t17 -25t10 -29t5.5 -38.5q2 -44 2 -94l10 -68l-225 -5q0 -100 13 -138.5zM473 341q0 69 -9 93.5t-48.5 24.5t-51 -16.5t-11.5 -70.5l-10 -31h130zM251 116q10 38 10 128t-1 116t-7 54t-19.5 36.5t-37.5 8.5q-45 0 -55 -36.5t-10 -126t1 -116t7 -56
t19.5 -38t37.5 -8.5q45 0 55 38z" />
    <glyph glyph-name="Scaron" unicode="&#x160;" horiz-adv-x="436" 
d="M249.5 96q17.5 7 26.5 16.5t13 28.5t4.5 32t0.5 37.5t-17 50.5t-31.5 39t-52.5 46t-53.5 47.5t-43.5 45.5t-39.5 59t-11.5 71.5t7 79.5q4 25 15 36.5t31 24.5q32 22 125 22l136 -29q-8 -57 -23 -67q-7 -6 -24.5 -6t-45.5 6l-38 7q-59 0 -72 -24q-8 -13 -9.5 -24t-1.5 -33
t19 -47.5t92 -87.5q63 -50 101.5 -95.5t38.5 -98.5t-4 -93q-4 -30 -11 -47t-21 -39t-34 -33t-51 -19.5t-71 -8.5t-112 13q-34 6 -52 8v85q100 -10 146 -10t63.5 7zM230 763h-34l-128 72v92l146 -81l146 81v-91z" />
    <glyph glyph-name="scaron" unicode="&#x161;" horiz-adv-x="347" 
d="M36 88q90 -10 119 -10t38 5t13.5 10.5t6.5 20.5q3 21 3 53q0 24 -90 92q-34 25 -62.5 62.5t-28.5 70.5t1 49t8.5 39.5t21.5 34.5q39 29 113 29l117 -24q-8 -58 -15.5 -64.5t-23 -6.5t-36.5 3l-39 7q-41 0 -50 -18q-7 -14 -7 -37t29 -49t64.5 -50t64.5 -59.5t29 -70.5
t-1 -53t-8.5 -47t-21.5 -44t-42.5 -26.5t-59 -11.5t-52 2.5t-50 7.5t-41.5 7v78zM189 577h-34l-128 72v92l146 -81l146 81v-91z" />
    <glyph glyph-name="Ydieresis" unicode="&#x178;" horiz-adv-x="409" 
d="M330 720q36 0 47.5 -4t11.5 -20t-131 -351v-345h-22q-54 0 -63.5 7.5t-9.5 53.5v285l-143 374h39q43 0 53 -7t26 -49l66 -201h15l85 257h26zM81.5 789.5q-18.5 18.5 -18.5 43t18 41.5t42 17t42 -17t18 -41.5t-18 -43t-41.5 -18.5t-42 18.5zM254.5 789.5
q-18.5 18.5 -18.5 43t18 41.5t42.5 17t42.5 -17t18 -41.5t-18 -43t-42 -18.5t-42.5 18.5z" />
    <glyph glyph-name="Zcaron" unicode="&#x17d;" horiz-adv-x="376" 
d="M271 89q53 0 62.5 -12.5t9.5 -76.5h-313v74l208 561h-208q0 63 7.5 73.5t52.5 10.5l256 1v-68l-213 -563h138zM207 763h-34l-128 72v92l146 -81l146 81v-91z" />
    <glyph glyph-name="zcaron" unicode="&#x17e;" horiz-adv-x="361" 
d="M326 0h-291v70l172 383h-153q0 63 7.5 73.5t52.5 10.5h200v-71l-180 -382h120q54 0 63 -10.5t9 -73.5zM210 568h-34l-128 72v92l146 -81l146 81v-91z" />
    <glyph glyph-name="florin" unicode="&#x192;" horiz-adv-x="292" 
d="M266 351v-79h-97l6 -18v-358q-29 0 -40.5 1t-24.5 7t-16.5 19t-3.5 36l1 294l6 19h-52v79h52l-6 25q0 111 19 135q22 29 66 29l95 -4q0 -49 -8 -58t-54 -10l-26 -1q-7 0 -7 -91l-6 -25h96z" />
    <glyph glyph-name="circumflex" unicode="&#x2c6;" horiz-adv-x="356" 
d="M160 732h34l130 -73v-90l-146 80l-146 -80v91z" />
    <glyph glyph-name="caron" unicode="&#x2c7;" horiz-adv-x="354" 
d="M193 568h-34l-128 72v92l146 -81l146 81v-91z" />
    <glyph glyph-name="breve" unicode="&#x2d8;" horiz-adv-x="356" 
d="M160 732h34l130 -73v-90l-146 80l-146 -80v91z" />
    <glyph glyph-name="dotaccent" unicode="&#x2d9;" horiz-adv-x="182" 
d="M51.5 618.5q-20.5 20.5 -20.5 48.5t20 47t47.5 19t48 -19.5t20.5 -47t-21 -48t-47.5 -20.5t-47 20.5z" />
    <glyph glyph-name="ring" unicode="&#x2da;" horiz-adv-x="251" 
d="M59.5 573q-28.5 28 -28.5 66t28.5 65.5t66.5 27.5t66 -27.5t28 -66t-28 -66t-66 -27.5t-66.5 28zM99 638q0 -10 8.5 -18.5t18.5 -8.5t18 8.5t8 19t-8 19t-18 8.5t-18.5 -9t-8.5 -19z" />
    <glyph glyph-name="ogonek" unicode="&#x2db;" horiz-adv-x="251" 
d="M25 -95v34l45 95h87l-48 -107l126 -114h-111z" />
    <glyph glyph-name="tilde" unicode="&#x2dc;" horiz-adv-x="375" 
d="M123 716l141 -9q19 0 26 1l32 -1v-37q0 -34 -9 -40t-49 -6t-83.5 5t-66.5 5t-30 -2l-33 2v37q0 34 9 39.5t63 5.5z" />
    <glyph glyph-name="hungarumlaut" unicode="&#x2dd;" horiz-adv-x="405" 
d="M101 695q34 37 52 37t41 -25l22 -21l-132 -132l-57 58zM329 732q12 0 35 -21l26 -25l-132 -132l-56 58l73 83q32 37 54 37z" />
    <glyph glyph-name="Delta" unicode="&#x394;" 
 />
    <glyph glyph-name="Delta" unicode="&#x2206;" 
 />
    <glyph glyph-name="Omega" unicode="&#x3a9;" 
 />
    <glyph glyph-name="Omega" unicode="&#x2126;" 
 />
    <glyph glyph-name="pi" unicode="&#x3c0;" 
 />
    <glyph glyph-name="endash" unicode="&#x2013;" horiz-adv-x="380" 
d="M45 363h289v-82h-289v82z" />
    <glyph glyph-name="emdash" unicode="&#x2014;" horiz-adv-x="585" 
d="M45 363h494v-82h-494v82z" />
    <glyph glyph-name="quoteleft" unicode="&#x2018;" horiz-adv-x="188" 
d="M140 538q0 -25 -18 -42t-42.5 -17t-42 17.5t-17.5 40.5q0 43 60 157l20 38l53 -33l8 -17q-18 -53 -20 -74.5t-1.5 -41t0.5 -28.5z" />
    <glyph glyph-name="quoteright" unicode="&#x2019;" horiz-adv-x="186" 
d="M27 529q23 82 23 109t-3 34q0 25 18 42.5t42.5 17.5t42.5 -17.5t18 -40.5q0 -42 -60 -158l-20 -38l-53 33z" />
    <glyph glyph-name="quotesinglbase" unicode="&#x201a;" horiz-adv-x="171" 
d="M26 -91q20 72 20 107v41q0 22 16 37.5t38 15.5t38 -15.5t16 -37t-19 -68.5t-39 -84l-19 -37l-46 29z" />
    <glyph glyph-name="quotedblleft" unicode="&#x201c;" horiz-adv-x="340" 
d="M297 538q0 -25 -18 -42t-42.5 -17t-42 17.5t-17.5 40.5t19.5 71t39.5 86l20 38l54 -33l7 -17q-20 -65 -20 -144zM151 538q0 -25 -18 -42t-42.5 -17t-42 17.5t-17.5 40.5t19.5 71t39.5 86l20 38l54 -33l7 -17q-20 -65 -20 -144z" />
    <glyph glyph-name="quotedblright" unicode="&#x201d;" horiz-adv-x="340" 
d="M56 672q0 25 18 42.5t42 17.5t42 -18t18 -40q0 -40 -60 -158l-19 -38l-54 33l-7 18q20 72 20 143zM201 672q0 25 18 42.5t42.5 17.5t42 -18t17.5 -40.5t-19.5 -70.5t-39.5 -87l-20 -38l-56 34l-5 17q20 72 20 143z" />
    <glyph glyph-name="quotedblbase" unicode="&#x201e;" horiz-adv-x="334" 
d="M55 57q0 22 16 37.5t38 15.5t38 -15.5t16 -36.5q0 -40 -58 -153l-19 -37l-46 29l-5 12q14 48 17 73.5t3 74.5zM196 13v44q0 22 16 37.5t38 15.5t38 -15.5t16 -37t-19 -68.5t-39 -84l-19 -37l-47 29l-4 12q3 10 6 19.5t5 16.5t3.5 15.5t2.5 13.5t1.5 13.5t1 12t0.5 13.5z
" />
    <glyph glyph-name="dagger" unicode="&#x2020;" horiz-adv-x="297" 
d="M188 3h-80v306l10 33h-110v69h110l-10 33v284h80v-284l-10 -33h112v-69h-112l10 -33v-306z" />
    <glyph glyph-name="daggerdbl" unicode="&#x2021;" horiz-adv-x="302" 
d="M10 306v69h111l-8 37l7 31h-110v68h110l-10 34v183h80v-183l-10 -34h112v-68h-113l8 -34l-7 -34h112v-69h-112l10 -33v-270h-80v271l10 32h-110z" />
    <glyph glyph-name="bullet" unicode="&#x2022;" horiz-adv-x="226" 
d="M56 242q-24 24 -24 57.5t24 57t57 23.5t57.5 -24t24.5 -57t-24.5 -57t-57.5 -24t-57 24z" />
    <glyph glyph-name="ellipsis" unicode="&#x2026;" horiz-adv-x="465" 
d="M41 57q0 22 16 37.5t38 15.5t38 -15.5t16 -37.5t-16 -38t-38 -16t-38 16t-16 38zM182 57q0 22 16 37.5t37.5 15.5t37.5 -15.5t16 -37.5t-16 -38t-37.5 -16t-37.5 16t-16 38zM316 57q0 22 16.5 37.5t38 15.5t37.5 -15.5t16 -37.5t-16 -38t-37.5 -16t-38 16t-16.5 38z" />
    <glyph glyph-name="perthousand" unicode="&#x2030;" horiz-adv-x="374" 
d="M394 720l-288 -720h-100l289 720h99z" />
    <glyph glyph-name="guilsinglleft" unicode="&#x2039;" horiz-adv-x="212" 
d="M18 285v30l74 159h86l-78 -174l78 -174h-87z" />
    <glyph glyph-name="guilsinglright" unicode="&#x203a;" horiz-adv-x="212" 
d="M194 315v-30l-72 -159h-87l79 174l-79 174h86z" />
    <glyph glyph-name="fraction" unicode="&#x2044;" horiz-adv-x="399" 
d="M394 720l-288 -720h-100l289 720h99z" />
    <glyph glyph-name="Euro" unicode="&#x20ac;" horiz-adv-x="445" 
d="M269 466h-46q-30 0 -41 -17t-13 -66l-8 -17h7q69 -6 79.5 -6t28.5 3l29 -2v-34q0 -32 -8.5 -37.5t-54.5 -5.5t-74 3h-5l5 -13l-4 -17h4q55 -5 71 -5t34 3l29 -2v-34q0 -31 -9 -36.5t-47 -5.5t-78 3h-4l4 -10q2 -55 13.5 -76t41.5 -21h108v-71l-108 -8q-83 0 -109.5 38.5
t-29.5 143.5l4 10h-4q-33 0 -40 -2l-31 2v34q0 32 9 37.5t62 5.5h5l-5 12v6l5 13h-5q-30 0 -38 -2l-30 2v34q0 32 8.5 37.5t59.5 5.5h6l-5 17q5 90 32.5 123.5t105.5 33.5l108 -8q0 -53 -7.5 -62t-54.5 -9z" />
    <glyph glyph-name="trademark" unicode="&#x2122;" horiz-adv-x="559" 
d="M321 548v-199h-75v371h68l59 -140h13l60 140h67v-371h-74v199h-9l-16 -60h-68l-17 60h-8zM157 641l5 -17v-275h-75v274l6 18h-56v79h176v-79h-56z" />
    <glyph glyph-name="partialdiff" unicode="&#x2202;" 
 />
    <glyph glyph-name="product" unicode="&#x220f;" 
 />
    <glyph glyph-name="summation" unicode="&#x2211;" 
 />
    <glyph glyph-name="minus" unicode="&#x2212;" horiz-adv-x="326" 
d="M45 363h235v-82h-235v82z" />
    <glyph glyph-name="radical" unicode="&#x221a;" 
 />
    <glyph glyph-name="infinity" unicode="&#x221e;" 
 />
    <glyph glyph-name="integral" unicode="&#x222b;" 
 />
    <glyph glyph-name="approxequal" unicode="&#x2248;" 
 />
    <glyph glyph-name="notequal" unicode="&#x2260;" 
 />
    <glyph glyph-name="lessequal" unicode="&#x2264;" 
 />
    <glyph glyph-name="greaterequal" unicode="&#x2265;" 
 />
    <glyph glyph-name="lozenge" unicode="&#x25ca;" 
 />
    <glyph glyph-name="apple" 
 />
    </font>
</defs>
</svg>
