<?xml version="1.0" standalone="no"?>
<!DOCTYPE svg PUBLIC "-//W3C//DTD SVG 1.1//EN" "http://www.w3.org/Graphics/SVG/1.1/DTD/svg11.dtd" >
<svg xmlns="http://www.w3.org/2000/svg" xmlns:xlink="http://www.w3.org/1999/xlink" version="1.1">
<metadata>
Created by FontForge 20170731 at Tue Feb  8 01:55:28 2000
 By Aleksey,,,
visit www.sharkshock.uni.cc
</metadata>
<defs>
<font id="AirMillhouseOutline" horiz-adv-x="556" >
  <font-face 
    font-family="Air Millhouse Outline"
    font-weight="400"
    font-stretch="normal"
    units-per-em="1000"
    panose-1="2 0 0 0 0 0 0 0 0 0"
    ascent="800"
    descent="-200"
    x-height="362"
    cap-height="713"
    bbox="-224 -239 1627 907"
    underline-thickness="73"
    underline-position="-214"
    unicode-range="U+0020-F005"
  />
<missing-glyph horiz-adv-x="750" 
d="M125 0h500v625h-500v-625zM141 16v593h468v-593h-468z" />
    <glyph glyph-name=".notdef" horiz-adv-x="750" 
d="M125 0h500v625h-500v-625zM141 16v593h468v-593h-468z" />
    <glyph glyph-name=".null" horiz-adv-x="0" 
 />
    <glyph glyph-name="nonmarkingreturn" horiz-adv-x="278" 
 />
    <glyph glyph-name="space" unicode=" " horiz-adv-x="278" 
 />
    <glyph glyph-name="space" unicode="&#xa0;" horiz-adv-x="278" 
 />
    <glyph glyph-name="exclam" unicode="!" horiz-adv-x="364" 
d="M57 25l30 138h271l-14 -66q-8 -35 -15 -72h-272zM96 209l105 490l269 -1q-11 -55 -22.5 -112t-25.5 -118l-54 -258zM67 -12h297q4 19 8.5 41.5t8.5 39.5l17 81l-22 22v1h27l56 267q11 44 19 85.5t16 82.5q3 16 8 38.5t8 38.5l-22 22q0 4 1 6l-301 1l-111 -520h7l16 -16
h-26l-36 -168h7z" />
    <glyph glyph-name="quotedbl" unicode="&#x22;" horiz-adv-x="355" 
 />
    <glyph glyph-name="numbersign" unicode="#" 
 />
    <glyph glyph-name="dollar" unicode="$" 
 />
    <glyph glyph-name="percent" unicode="%" horiz-adv-x="889" 
 />
    <glyph glyph-name="ampersand" unicode="&#x26;" horiz-adv-x="667" 
 />
    <glyph glyph-name="quotesingle" unicode="'" horiz-adv-x="191" 
 />
    <glyph glyph-name="parenleft" unicode="(" horiz-adv-x="333" 
 />
    <glyph glyph-name="parenright" unicode=")" horiz-adv-x="333" 
 />
    <glyph glyph-name="asterisk" unicode="*" horiz-adv-x="389" 
 />
    <glyph glyph-name="plus" unicode="+" horiz-adv-x="584" 
 />
    <glyph glyph-name="comma" unicode="," horiz-adv-x="339" 
d="M15 -31l134 3q43 34 97.5 81t126.5 110h-271zM21 -68l-17 13l-13 9l101 224h321l17 -28q-36 -32 -72 -63t-69 -59t-62 -52t-50 -41z" />
    <glyph glyph-name="hyphen" unicode="-" horiz-adv-x="478" 
d="M29 192h388l15 72q7 34 15 66h-389zM39 155l-16 13l-13 9l35 168h422l21 -28q-4 -16 -9.5 -39.5t-9.5 -40.5v-1l-17 -81h-413z" />
    <glyph glyph-name="hyphen" unicode="&#xad;" horiz-adv-x="478" 
d="M29 192h388l15 72q7 34 15 66h-389zM39 155l-16 13l-13 9l35 168h422l21 -28q-4 -16 -9.5 -39.5t-9.5 -40.5v-1l-17 -81h-413z" />
    <glyph glyph-name="period" unicode="." horiz-adv-x="333" 
d="M38 25h271l30 138h-271zM48 -12l-18 13l-11 9l36 168h303l21 -28l-35 -162h-296z" />
    <glyph glyph-name="slash" unicode="/" horiz-adv-x="465" 
 />
    <glyph glyph-name="zero" unicode="0" horiz-adv-x="811" 
d="M386 190q-3 -11 -3 -14h127q13 5 17 18l3 9l68 323q1 2 1 4q0 3 1 5h-115q-14 -6 -29 -24l-6 -16zM186 667q48 42 104 51h531l46 -15l15 -10q4 -5 7.5 -9.5t7.5 -9.5l8 -8q26 -28 35 -68l1 -47l-2 -13l-75 -352q-1 -9 -3.5 -19t-6.5 -22h1q-3 -16 -13 -32v-3
q-5 -11 -10 -21.5t-13 -21.5l-5 -8q-11 -14 -24.5 -25.5t-28.5 -22.5q-30 -15 -69 -21h-536q-17 6 -31.5 14.5t-25.5 20.5l-4 3q-25 16 -38 37q-8 16 -11 32t-3 36l-1 6q1 33 9 65l74 344l18 51q15 33 42 67zM575 572q51 4 38 -49l-68 -322l-4 -12q-9 -22 -29 -28h-154
q-4 5 -7.5 10.5t-5.5 10.5q1 11 1.5 19.5t2.5 16.5l64 304l8 21q20 23 39 29h73h42zM196 656q-26 -33 -39 -62l-17 -47l-74 -348q-8 -35 -9 -57l1 -4q0 -40 10 -61q24 -36 59 -48l8 -2h531q18 2 33.5 7t29.5 12q30 20 49 44l6 9q15 23 21 37l1 6q9 18 12 31q7 22 9 41
l75 352l2 12l-1 42q-9 38 -30 61l-13 9l-41 13h-527q-52 -9 -96 -47z" />
    <glyph glyph-name="one" unicode="1" horiz-adv-x="395" 
d="M-17 10q19 19 33.5 36t24.5 33l122 575q-2 10 -9.5 24.5t-19.5 34.5h376l-1 -6l22 -22l-136 -641q3 -16 16 -35l5 -21h-401l-22 22h-10zM56 75q-9 -16 -18.5 -28t-19.5 -22h357l-1 4q-13 18 -16 41l133 628h-330q15 -24 18 -46z" />
    <glyph glyph-name="two" unicode="2" horiz-adv-x="815" 
d="M863 328q-17 -19 -29 -25t-18 -10l-22 -4l-42 -9l-372 1q-43 -4 -48 -38q-6 -34 36 -43l401 -2q15 8 31 16.5t33 16.5l-66 -210h-621h-110l38 183l23 105q24 110 217 107q195 -2 261 9l17 15l17 82v23q-11 18 -21 24h-132q-60 -37 -55 -97h-270q9 153 142 225l31 4h535
q76 -34 85 -90zM143 435h295v20q0 47 45 77h111v-6l-16 -79l-10 -8q-30 -5 -81 -6.5t-126 -1.5h-57q-196 0 -222 -118l-23 -106l-42 -201h7l22 -22h754l77 245l-23 22l3 9q-9 -4 -22 -10.5t-26.5 -13t-26 -13t-20.5 -10.5l-392 2h-2q0 2 1 3q3 22 36 26l375 -1l41 9h1l23 4
l7 4q8 5 19.5 12t28.5 26l61 287q-6 36 -33 63l-4 2v1l-1 1q-25 40 -80 64h-541l-35 -4q-141 -76 -152 -255h6zM924 651v0q0 1 -1 1v-1h1z" />
    <glyph glyph-name="three" unicode="3" horiz-adv-x="930" 
d="M508 469l24 112q4 2 7 4t7 4h10q8 1 14.5 1.5t11.5 0.5h6l109 -2q-1 -1 -1 -3l-23 -102q-3 -3 -3.5 -7.5t-11.5 -7.5h-150zM168 625l-7 -21l-13 -57q-5 -13 -6.5 -28.5t-1.5 -30.5l28 -22l300 -1l-38 -180h7l22 -22h137l5 2l22 -1l-14 -72l-3 -6l-11 -46q-2 -17 -12 -30
l-6 -2h-6l-12 -2h-135l21 97l-22 22l1 6h-348l-18 -87q-4 -13 -5 -25.5t-1 -24.5v-16q4 -12 8.5 -22t12.5 -18q3 -2 6 -4.5t7 -4.5l14 -14q34 -23 62 -29h5q18 -3 34 -3h607q56 5 105 34q17 15 29 32l3 3q2 5 5.5 11.5l3.5 6.5l6 24h-1q4 7 5.5 13t2.5 11l18 86
q8 20 11 38.5t3 35.5q0 29 -12 52q18 16 29 34q2 4 3 7q2 6 4 11l4 10l44 209q-6 32 -23 54q-59 52 -90 56q-8 0 -11 1h-5q-2 0 -2.5 0.5t-1.5 0.5q-2 0 -3 0.5t-2 0.5q-4 1 -11 1h-10h-595q-101 -6 -149 -90zM177 605l5 14q42 75 136 81h588q6 1 32 -2q6 -1 10.5 -1.5
t7.5 -0.5q27 -5 50 -24t28 -46l-44 -207q-1 -5 -3.5 -11t-6.5 -14q-12 -20 -34 -36q32 -41 2 -127l-18 -86q-1 -13 -7 -23l-6 -24q-3 -4 -5 -8t-4 -9q-5 -7 -12 -14.5t-17 -16.5q-42 -26 -97 -30h-606q-14 0 -32 3h-5q-28 5 -56 26q-9 9 -16 31q-1 13 0 27.5t6 31.5l16 77
h316l-22 -104q1 -7 7 -14l10 -4t11 -3h152l11 2h5l14 5q7 9 11.5 18t5.5 18l11 48l2 4l19 92q0 7 -5 15l-14 7l-48 2l-5 -2h-121l33 154h177q16 3 23 13q5 13 7 16.5t0 -1.5l23 106q3 9 3 24q-2 4 -6.5 7l-10.5 7l-135 2q-7 1 -33 -2h-10q-14 -5 -24 -15l-23 -109l-318 1
q0 17 9 43z" />
    <glyph glyph-name="four" unicode="4" horiz-adv-x="838" 
d="M24 258q17 10 27.5 17t17.5 12t11 9.5t8 8.5l76 363q-4 7 -11.5 17.5t-18.5 24.5h371q-2 -2 -3.5 -3t-3.5 -2l23 -23q-42 -28 -56 -47l-49 -230h188q2 7 3 13.5t3 14.5l46 221q-1 8 -3.5 15t-6.5 15l-8 26h355q-4 -4 -6 -5l24 -23q-22 -20 -35 -36.5t-21 -33.5l-122 -574
v-3q0 -18 13 -38l5 -19h-346l-22 22h-10q20 19 34.5 36.5t24.5 34.5l33 157h-431q-13 0 -28 3h-55l-22 22h-4zM102 299q-8 -10 -15.5 -18t-16.5 -13h13q15 -3 26 -3h479l-1 -11l-41 -192q-17 -30 -35 -47h299l-1 4q-15 22 -13 46l123 578q9 17 17.5 30t18.5 22h-297l1 -3
q12 -20 12 -42l-46 -219q-5 -29 -10 -41h-231q-12 0 -13 1l58 274q13 19 29 30h-294q5 -7 9.5 -13.5t6.5 -13.5z" />
    <glyph glyph-name="five" unicode="5" horiz-adv-x="831" 
d="M171 675q2 12 8.5 22.5t20.5 18.5h726l-1 -6l22 -22l-33 -156h-395q-7 -4 -12.5 -8t-11.5 -10l-7 -19l-13 -60q30 -2 74 -3t104 -1h56q139 0 171 -61l9 -8q23 -23 23 -58q0 -7 -0.5 -12.5t-1.5 -10.5l-23 -105l-13 -45l-15 -37l-18 -33q-15 -19 -29 -32.5t-30 -26.5
l-57 -18h-634l-22 22h-6l27 250q5 -3 17 -10.5t24 -15.5v1q3 -2 8 -7l1 1q1 -1 3 -2q2 -2 6 -5t8 -5l394 2q32 6 41 29l-365 -1l-40 9l-22 4l-8 8v-1l-15 14l-3 1l-5 5q-6 5 -15.5 14.5t-20.5 29.5zM114 328q10 -19 19 -25t12 -10l20 -4l40 -9l373 1q39 -5 30 -38
q-9 -34 -53 -43l-402 -2q-13 8 -25 16.5t-26 16.5l-23 -210h620l51 16q17 14 30.5 26.5t22.5 23.5l23 43l9 23l15 51l23 105q21 110 -174 107q-193 -1 -256 9l-9 15l17 82l9 23q17 17 31 24h388l28 132h-702q-16 -10 -19 -29z" />
    <glyph glyph-name="six" unicode="6" horiz-adv-x="843" 
d="M470 148q110 -6 133 50l23 102l-237 1l-21 -102q-15 -54 102 -51zM76 79q-9 38 -8 62l92 435l18 46q16 52 102 81l652 1l-17 -163q-110 42 -248 45q-139 3 -189 -23q-49 -25 -61 -123l29 -1h389l22 -5l22 -21l5 -35l-50 -237l-9 -24l-31 -42q-41 -41 -81 -51h-565
q-47 20 -72 55zM62 73q18 -25 43 -43l3 -3q24 -24 62 -40h571q21 5 44 20.5t47 39.5l28 38l11 31l50 237l-6 41l-22 21v5l-30 28l-24 6h-378q15 56 47 73q22 11 61 16.5t96 5.5h27q134 -3 258 -50l20 192l-23 22l1 6l-670 -1q-48 -17 -76.5 -39t-37.5 -52l-19 -49l-92 -434
v-10q0 -14 2 -28.5t6 -30.5zM470 163h-12q-18 0 -31 1t-23 4q0 2 1 3l19 93l177 -1l-13 -60q-17 -41 -98 -41h-9q-2 0 -5 0.5t-6 0.5z" />
    <glyph glyph-name="seven" unicode="7" horiz-adv-x="728" 
d="M537 44l306 579q17 64 -52 74h-622l-37 -176q415 123 349 -72l-248 -402l-32 -32h359zM141 479l-18 13q-10 7 -11 7l44 213h637q46 -7 62 -37l12 -12q16 -16 16 -43q0 -14 -4 -27l-303 -574l33 -41h-411l-32 22l54 54l248 403q3 11 5 21t2 19q0 11 -5 24q-27 11 -64 11
q-85 0 -265 -53z" />
    <glyph glyph-name="eight" unicode="8" horiz-adv-x="871" 
d="M417 151l22 109l3 4q11 6 23 9h94l-25 -119q-3 -1 -11 -3h-106zM482 448l21 104l3 5q8 7 22 8h90l-23 -112v-2q-3 -3 -11 -3h-102zM216 701q-16 -11 -25.5 -21t-16.5 -18l-13 -26l-37 -177q-4 -13 -4 -40l3 -3q4 -18 25 -39q3 -4 8 -5l6 -7q-6 -2 -11 -4.5t-10 -4.5
l-2 -2v1q-10 -6 -20.5 -18t-19.5 -23l-12 -23l-38 -179q-3 -17 -3 -37l3 -3q4 -22 24 -40l9 -6l16 -15q36 -20 72 -26l9 -1h556q20 1 36.5 3.5t30.5 6.5q15 6 27.5 12t22.5 13l5 5q16 13 21 21l1 5h1q0 1 2 3q5 7 7 15q3 6 4 11.5t2 10.5l38 179v11l-6 22q-3 5 -6.5 9
t-7.5 8l-7 7l-1 4q-3 4 -5.5 7.5t-6.5 7.5q9 4 17.5 9t19.5 11l2 3l2 2q17 17 19 22q4 5 6 10t4 9q5 15 7 23l38 182l-1 7l-5 25q-3 4 -6 7.5t-5 5.5l-11 10v3q-20 25 -48 39l-16 6l-46 6h-554q-61 -4 -100 -24zM538 301h-34h-59q-13 -1 -28 -10l-6 -9l-25 -120v-8v-7
q3 -1 6 -3.5t7 -4.5h125q16 3 21 11l1 5l27 127q7 22 -35 19zM148 342q37 19 95 24h551l45 -6l13 -6q26 -11 38 -30l6 -22v-6l-38 -179q-1 -5 -2 -10.5t-4 -10.5q0 -3 -2.5 -7t-5.5 -9l-1 -3q-6 -9 -18 -19l-5 -4q-10 -7 -21 -12.5t-24 -10.5q-14 -4 -30 -6.5t-35 -3.5h-555
l-8 1q-18 3 -35.5 9t-32.5 15q-13 13 -16 32l-2 2q0 12 3 29l38 178l12 24q5 7 13 15t21 16zM599 593h-33h-57q-16 -1 -27 -11l-6 -8l-24 -116v-7v-7l6 -4l6 -4h121q15 3 20 11l1 4l27 124q6 19 -34 18zM222 687q37 18 95 23h551l45 -6l14 -5q25 -11 38 -31l5 -22l1 -5
l-38 -180q0 -6 -6 -21q-1 -5 -9 -16l-1 -3q-1 -4 -18 -19l-3 -4q-11 -7 -22.5 -12.5t-24.5 -10.5q-27 -8 -64 -9h-555l-8 1q-38 6 -68 24q-14 14 -17 31l-2 2q0 17 4 30l37 177l12 24q13 18 34 32z" />
    <glyph glyph-name="nine" unicode="9" horiz-adv-x="833" 
d="M529 581q117 3 104 -51l-21 -102l-237 1l23 102q23 56 131 50zM925 651q-24 34 -72 54h-565q-21 -6 -41 -18.5t-40 -31.5l-31 -43l-9 -24l-50 -237l5 -35l21 -21l23 -5h389l28 -1q-12 -98 -62 -124q-49 -25 -188 -22q-138 3 -247 45l-18 -163l652 1q86 28 103 81l18 47
l92 434q1 24 -8 63zM164 258l-21 21l-5 1l-31 31l-5 41l50 237l11 30l32 45q46 43 89 56h573q51 -22 80 -60l7 -7q5 -5 8.5 -10t7.5 -10l2 -4q4 -17 6 -31.5t2 -27.5v-9l-92 -433l-19 -50q-18 -57 -113 -89l-666 -1l-22 22h-6l21 198q120 -47 260 -50h30q109 0 151 21
q32 17 47 74h-373zM435 503l-14 -59l178 -1l19 90q1 2 1 6q-25 5 -53 5h-12q-5 0 -10 0.5t-10 0.5q-80 0 -99 -42z" />
    <glyph glyph-name="colon" unicode=":" horiz-adv-x="278" 
 />
    <glyph glyph-name="semicolon" unicode=";" horiz-adv-x="278" 
 />
    <glyph glyph-name="semicolon" unicode="&#x37e;" horiz-adv-x="278" 
 />
    <glyph glyph-name="less" unicode="&#x3c;" horiz-adv-x="584" 
 />
    <glyph glyph-name="equal" unicode="=" horiz-adv-x="584" 
 />
    <glyph glyph-name="greater" unicode="&#x3e;" horiz-adv-x="584" 
 />
    <glyph glyph-name="question" unicode="?" horiz-adv-x="864" 
d="M900 328l61 283q-9 56 -85 90h-536l-30 -4q-132 -70 -143 -225h270q-3 59 56 97h132q10 -6 21 -24l-1 -23l-17 -82l-17 -15q-66 -11 -261 -9q-193 3 -217 -107l-23 -105l262 -1q3 73 44 78l373 -1l42 9l22 4q5 4 16.5 10t30.5 25zM69 25h270l16 72q4 17 7 33.5t8 32.5
h-271zM179 435l-22 22h-6q12 178 153 255l34 4h542q55 -25 79 -63l5 -4q-1 0 -1.5 0.5t-1.5 0.5l4 -2q27 -27 33 -63l-61 -286q-22 -22 -32 -28t-16 -10h1q0 -1 -3 -2.5l-5 -2.5l-23 -4h-1l-41 -9l-376 1q-29 -5 -32 -78h-14l16 -16q-3 -10 -12 -50t-25 -112h-295l-29 22
l36 168h23l-11 11h-7l27 124q25 118 222 118h57q75 0 126 1.5t81 6.5l10 8l16 79v6h-108q-48 -33 -48 -79v-18h-295z" />
    <glyph glyph-name="at" unicode="@" horiz-adv-x="1015" 
 />
    <glyph glyph-name="A" unicode="A" horiz-adv-x="926" 
d="M505 425l22 -196h-160zM688 771l-220 -89l-581 -820l-103 -79l34 -22h262l1 60l193 274h266l6 -42l-3 -5l-46 -49l32 -22l434 2l-20 41l-92 778l-23 29zM544 216l-32 285l-3 12l-210 -299h240zM477 669l217 88l122 49l91 -764l12 -26l-387 -2l24 26l6 10l-11 82h-308
l-199 -282l-1 -52h-214l69 53z" />
    <glyph glyph-name="B" unicode="B" horiz-adv-x="797" 
d="M383 117l34 157h124q1 -1 1 -3l-23 -107q-9 -37 -25 -41q-2 -1 -6 -2t-9 -2l-15 -2h-81zM448 423l36 168l7 1h55l12 -2q24 0 49 -5q0 -2 0.5 -3t0.5 -3l-3 -19l-15 -71q-12 -50 -77 -65zM163 659l-123 -578q-9 -34 -49 -74l32 -22h677q110 14 143 106l36 169q5 20 5 33
q0 22 -10 35q20 23 33 65l37 170q-9 71 -37 99l-9 9q-13 22 -35 32q-42 19 -119 20h-605q21 -42 24 -64zM519 311h-137l-44 -209h127l16 2l10 2t9 3q23 7 34 50l24 113q-5 18 -11 25q-11 9 -28 14zM535 627l-12 2h-59l-15 -2l-46 -219l115 1q72 17 87 76l15 70l3 22
q0 12 -4 21l-13 16q-25 13 -71 13zM55 77l123 577q0 29 -13 54h579q72 -1 113 -19q40 -17 50 -100l-37 -168q-13 -45 -37 -67q22 -23 9 -66l-36 -172q-29 -81 -133 -94h-647q20 20 29 55z" />
    <glyph glyph-name="C" unicode="C" horiz-adv-x="854" 
d="M162 643q-23 -44 -29 -66l-90 -422q1 -26 2.5 -46.5t5.5 -34.5q10 -21 34 -34l8 -8q49 -48 203 -48h440q75 5 122 81t69 223l-23 23q0 4 1 5h-328q-21 -139 -49 -146h-128q0 11 3 25l67 318l12 9h18q14 -1 27 -1h26h45h28q1 -3 1 -16q0 -24 -14 -85l29 -22h309
q27 106 27 174q0 72 -30 102l-10 10q-19 31 -56 39l-609 -1q-42 -12 -68.5 -32t-42.5 -47zM175 636q28 48 100 71l604 1q102 -19 37 -273h-284q28 124 -27 123q-28 -1 -65.5 -0.5t-86.5 1.5l-19 -14l-68 -323q-5 -29 -2 -51l23 -16h146q36 11 57 146h298q-39 -269 -177 -280
h-414q-198 -5 -232 59q-2 11 -4 29t-3 42l90 422q6 27 27 63z" />
    <glyph glyph-name="D" unicode="D" horiz-adv-x="808" 
d="M587 496q-1 -2 -1 -8v-7l-1 -10l-51 -242q-4 -8 -7 -13.5t-6 -10.5v1q-7 -5 -12.5 -9.5t-10.5 -6.5h-1l-44 -8h-69l75 346q11 1 20.5 1.5t19.5 0.5q45 0 81 -14q2 -6 4 -11t3 -9zM139 716l11 -43l3 -37l-2 -12l-117 -550l-37 -67h8l22 -22l660 2l4 2q53 6 94 34
q47 40 68 76l2 6q7 14 11.5 26.5t7.5 21.5l64 306q2 11 3.5 20t1.5 17v6q-8 85 -60 138l-3 2v1q-24 33 -60 55l-41 14l-13 3h-479zM588 536q-49 40 -164 28l-85 -397h118l44 8q12 6 24 15l5 4q10 13 19 32l51 241l2 18q-2 2 0 8q0 17 -14 43zM165 678l-6 23l128 -1h475
l18 -4l32 -11q83 -49 94 -159q1 -10 -5 -40l-65 -309q-2 -7 -6 -17.5t-11 -24.5l-2 -6q-11 -19 -27 -36.5t-36 -34.5q-42 -26 -89 -32l-5 -2l-638 -2l27 48l117 551l3 12z" />
    <glyph glyph-name="E" unicode="E" horiz-adv-x="827" 
d="M452 440l14 58q7 43 101 43h28q17 0 30.5 -2t23.5 -5q0 -1 0.5 -1.5t0.5 -1.5l-19 -90zM179 658l-2 -2q-12 -17 -22 -33.5t-17 -36.5l-92 -433l-1 -49q0 -2 -0.5 -3t-0.5 -2v-4q0 -40 42 -67l8 -8q17 -18 58 -34l660 -1l62 193l-20 30q-156 -50 -291 -53h-30
q-99 0 -132 14q-1 3 -1 9v10q0 25 10 61h446l36 1l65 308l1 25l-15 49q-5 8 -10.5 15.5t-11.5 13.5l-5 4q-25 39 -65 52h-570q-32 -11 -57 -25.5t-45 -33.5zM554 578q-116 3 -125 -52l-23 -101l238 1l21 101q1 55 -111 51zM189 647q19 17 42 31t52 24h566q37 -12 59 -51
l13 -43l-1 -23l-63 -298l-26 -1h-425h-30q-29 -99 8 -124t179 -22q140 3 268 45l-52 -163l-651 1q-75 29 -68 81l1 46l92 435q5 14 14.5 29.5t21.5 32.5z" />
    <glyph glyph-name="F" unicode="F" horiz-adv-x="778" 
d="M101 370l-26 -121l-42 -200l-34 -42l31 -22h414l-14 36l40 188l349 -1l32 149l-21 28l-324 -1l22 98q20 83 217 83q35 0 77 -2.5t91 -8.5l30 142l-21 28h-626q-104 -7 -139 -93zM116 365l56 264q28 72 125 80h606l-25 -117q-357 41 -387 -82l-30 -141l350 1l-27 -125
l-349 1l-42 -200l9 -24h-372l17 21l43 203z" />
    <glyph glyph-name="G" unicode="G" horiz-adv-x="872" 
d="M172 647l-1 -1q-5 -7 -9.5 -14t-6.5 -16l-9 -14l-6 -14l-7 -18l-77 -359q-5 -22 -5 -34v-4l-4 -45q5 -50 35 -88l2 -2h1l5 -7l6 -3l20 -19l13 -5q20 -11 36 -15h718l57 271l1 18l-1 23q-10 30 -27 47l-8 8q-7 10 -13.5 17t-13.5 12q-21 6 -32 6q-10 0 -13 -1l-328 1
l-38 -179l29 -20l57 24h31l-9 -41l-9 -1h-40l-8 -3h-70q-16 0 -28.5 1t-21.5 4v10q0 3 0.5 7.5t1.5 9.5l63 296q7 19 15 28h1l9 5h2q9 3 15 3q2 0 6.5 -0.5t6.5 -0.5q10 3 17 3q3 0 5.5 -0.5t5.5 -0.5h321l18 -19v3l23 -22l41 195l-21 28h-612q-87 -11 -144 -74zM183 637
q54 58 135 69h591l-33 -157l-22 24h-333q-8 1 -15.5 0.5t-15.5 -2.5q-17 2 -26 -2h-5l-11 -6q-12 -12 -22 -37l-63 -296q-2 -11 -1.5 -21.5t2.5 -21.5q7 -13 22 -22l4 -2q20 -9 73 -7h60l7 3h37l21 2l18 82v10h-80l-38 -16l30 139l317 -1q15 3 36 -3q21 -15 32 -47l1 -22
l-1 -16l-55 -261h-705q-8 2 -16.5 5.5t-17.5 8.5l-10 4l-7 8l-4 2q-22 28 -26 74l4 44q-1 11 5 35l77 360l6 14l6 16l9 14q5 14 14 26z" />
    <glyph glyph-name="H" unicode="H" horiz-adv-x="869" 
d="M-29 9h11l22 -22h419q-30 39 -33 59l37 173q2 11 3.5 19.5t4.5 16.5h136l-37 -179q-16 -27 -64 -67l33 -22h403q-22 40 -25 62l121 571q16 28 72 70q-18 26 -16 28h-450q45 -40 49 -59l-40 -189q0 -1 -0.5 -2.5t-0.5 -2.5v-1q0 -2 -0.5 -3t-0.5 -3q-2 -11 -6 -23h-137
l42 192q16 27 58 63q-21 24 -17 28h-417q25 -38 28 -63l-120 -571q-20 -32 -75 -75zM60 78l121 573q0 27 -16 52h349q-19 -16 -37 -48l-47 -221l-1 -14h191q5 9 7.5 20.5t4.5 25.5l41 191q-3 28 -24 46h363q-29 -22 -46 -54l-122 -573q1 -14 5 -26.5t11 -25.5h-349
q21 18 37 46l40 190q2 7 4 15t1 17h-191q-8 -18 -12 -46l-37 -174q3 -24 21 -48h-359q25 19 45 54z" />
    <glyph glyph-name="I" unicode="I" horiz-adv-x="415" 
d="M-3 10q19 19 33.5 36t24.5 33l122 575q-2 10 -9.5 24.5t-19.5 34.5h427q-4 -4 -6 -5l23 -23q-45 -36 -61 -68l-122 -573q3 -16 16 -35l5 -21h-401l-22 22h-10zM70 75q-9 -16 -18.5 -28t-19.5 -22h357l-1 4q-13 18 -16 41l123 578q17 32 39 50h-359q15 -24 18 -46z" />
    <glyph glyph-name="J" unicode="J" horiz-adv-x="643" 
d="M19 4h-7l32 149q75 -12 125 -12q132 0 152 81l94 445l-22 49h419l-5 -5l23 -23l-49 -47l-114 -536q-3 -20 -24 -46l-2 -3q-100 -74 -285 -74h-315zM609 91q18 22 21 42l115 539l30 29h-358l15 -32l-96 -452q-27 -121 -280 -81l-25 -117h300q180 0 278 72z" />
    <glyph glyph-name="K" unicode="K" horiz-adv-x="948" 
d="M168 628l-108 -517l-8 -16l-41 -84h8l22 -22h381l-9 34l-4 47l1 27l26 125l105 -163q5 -12 5 -16q0 -6 -17 -32l31 -22h399l-17 22l-69 59l-156 238l335 300q14 12 34.5 24.5t46.5 26.5l-27 48h-362q-9 -47 -258 -251l49 228l-22 22l1 6h-409l62 -43l2 -4zM184 671l-9 17
l-15 9h335l-62 -292l4 -7q313 251 320 294h340q-24 -13 -43.5 -25t-34.5 -25l-343 -307l168 -255l11 -13l47 -41h-346q10 18 -2 41l-145 227l-36 -170l-1 -29l4 -50l5 -19h-346l31 63l8 16l109 519z" />
    <glyph glyph-name="L" unicode="L" horiz-adv-x="706" 
d="M181 672l-19 29h343l-29 -32l-95 -450q-6 -146 322 -61l-30 -137h-572q-58 10 -43 73zM40 71q0 -42 33 -58l11 -10q15 -15 40 -19h584l36 166l-23 22l2 7q-141 -37 -216 -37q-59 0 -85 19q-4 11 -4 28v3l94 446l45 50l-23 23l5 5h-405l30 -47l-121 -570q-3 -14 -3 -28z
" />
    <glyph glyph-name="M" unicode="M" horiz-adv-x="1291" 
d="M675 241l18 389l1 6q0 2 -0.5 4.5t-0.5 4.5q0 3 1 11t3 17l-23 23q0 4 1 5h-24l-325 -97l-437 -709h1l-62 -55q-7 -4 -19.5 -16t-32.5 -32l32 -22h247q-2 14 -2.5 19t-0.5 10q0 11 2 21.5t5 21.5l1 -1l10 19l257 383l-30 -244h6l22 -22h405l6 11l204 296l-56 -231
q-13 -22 -52 -56l32 -22h449q0 22 -6 28l2 -1q-12 15 -18 41l-5 29l1 18l3 15l-1 9l1 11q63 646 63 674v15l-22 28l-31 -4l-345 -112zM34 -109l-10 -19q-12 -33 -8 -65h-205q5 5 11 10t14 10l66 60l435 705l315 94h6q-3 -14 -1 -23l-1 -6l-23 -512l2 -4l330 572l337 110
l14 2q2 -12 -63 -674l-1 -14l1 -6l-3 -13l-1 -22l5 -31q7 -27 20 -45q2 -2 2 -8h-406q15 13 27 33l2 4l96 389l-1 6l-293 -424l-3 -6h-384l44 358z" />
    <glyph glyph-name="N" unicode="N" horiz-adv-x="1194" 
d="M39 10h11l22 -22h397l-4 20l-1 1q-14 19 -15 39l88 416l289 -345q-9 -50 -74 -109l33 -22h431q-25 35 -28 58l122 577q8 13 24 29t39 36l-17 28h-387q-2 0 -4.5 0.5t-4.5 0.5h-7q-17 0 -41 -15q24 -26 27 -45l-62 -293l-269 324l-4 4l-20 24h-389q28 -41 33 -57
l-123 -581q-8 -15 -25.5 -31.5t-40.5 -36.5zM119 71l125 586q-2 11 -6.5 22t-12.5 22h352l309 -370l69 324q-1 25 -19 44q5 4 33 2h346q-25 -21 -42 -50l-122 -578q1 -23 18 -48h-377q44 38 50 98l-301 359q0 4 -5 6l-13 16l-10 10l-6 8l-95 -447q1 -21 16 -45l1 -5h-348
q21 17 38 46z" />
    <glyph glyph-name="O" unicode="O" horiz-adv-x="895" 
d="M432 190l64 305l6 16q17 20 34 24h125q-1 -1 -1 -5q0 -3 -1 -4l-68 -323l-3 -9q-5 -14 -22 -18h-137q0 3 3 14zM212 667l-1 -1q-30 -36 -43 -67l-19 -50l-74 -347q-4 -20 -6 -35.5t-2 -28.5l1 -5q0 -35 13 -62q16 -24 39 -39l4 -3q27 -27 64 -39h577q22 2 39 7t31 12
q20 13 33.5 25.5t27.5 26.5l4 6q8 11 13.5 21t10.5 20v5q10 16 13 32h-1q5 12 7.5 22t3.5 19l75 351l1 15l-1 44q-7 21 -15 38.5t-21 29.5l-7 6l-1 1q-4 7 -8.5 12.5t-9.5 10.5l-16 10l-47 14h-575q-59 -11 -110 -51zM633 572h-46h-79q-21 -6 -41 -29l-8 -21l-64 -304
q-2 -8 -2.5 -16.5t-1.5 -19.5q4 -11 14 -21h166q22 6 31 28l4 12l68 322q15 54 -41 49zM222 656q47 38 103 47h568l45 -13l14 -9q12 -11 19.5 -26.5t13.5 -34.5l1 -42l-1 -12l-75 -352q-1 -10 -3.5 -20t-6.5 -21q-3 -13 -12 -31l-1 -6q-4 -8 -9 -17t-13 -20l-6 -9
q-11 -11 -23 -22t-29 -22q-29 -15 -68 -19h-571l-9 2q-38 12 -65 48q-11 28 -11 61l-1 4q0 11 8 57l74 348l18 47q13 31 40 62z" />
    <glyph glyph-name="P" unicode="P" horiz-adv-x="812" 
d="M553 264h-146q-12 9 -15 26l60 283l15 15q69 31 122 17q50 -14 49 -34l-57 -279q-7 -13 -28 -28zM62 70l-22 -27l-19 -18h322l-16 45l27 134q1 -43 44 -56l264 1q28 0 57 7q9 2 19 4.5t23 7.5l9 4q35 26 61 66l12 35l9 23l70 328l-1 16q-4 13 -12.5 25t-19.5 25
q-16 13 -45 16h-670l5 -82zM29 53l1 1l18 23l116 550l-6 94h687q34 -3 54 -20q11 -12 17 -21l6 -6q13 -15 22.5 -28.5t13.5 -26.5l1 -22l-69 -326l-11 -27l-12 -36q-14 -23 -30.5 -40t-34.5 -31l-12 -5q-12 -5 -20.5 -7t-15.5 -4q-3 -1 -7 -1.5t-6 -1.5q-30 -6 -54 -6
l-265 -1q-23 7 -36 20l-4 3l-18 -89l21 -57h-369l-32 22zM581 572q-33 0 -84 -20l-9 -9l-56 -264h116q13 10 18 17l54 269l-9 3q-12 4 -30 4z" />
    <glyph glyph-name="Q" unicode="Q" horiz-adv-x="883" 
d="M426 190q-3 -8 -3 -14h138q17 5 22 20l3 7l68 323q1 2 1 4q0 3 1 5h-125q-9 -3 -17 -9t-17 -15l-7 -16zM207 667q51 40 110 51h575l46 -14l17 -11q6 -6 11.5 -12.5t10.5 -14.5l7 -6q23 -25 32 -62l2 -45l-1 -16l-75 -351q-1 -9 -3.5 -19t-7.5 -22h1q-3 -16 -13 -32v-5
q-4 -8 -9.5 -17.5t-15.5 -23.5l-7 -10q-12 -14 -25.5 -25t-27.5 -21q-16 -8 -35.5 -13.5t-42.5 -7.5l-149 1l-19 -90l-264 -1l-22 22h-7l14 69l-132 1q-34 11 -57 34l-5 5q-23 15 -39 39q-14 28 -14 63l-1 6q1 33 9 65l74 344l20 55q15 30 42 63zM627 572q57 4 42 -49
l-68 -322l-4 -12q-10 -22 -31 -28h-166q-9 9 -14 21q-2 19 3 36l64 304l9 21q20 23 41 29h78h46zM217 656q-13 -16 -23 -31t-18 -31l-17 -47l-74 -348q-8 -35 -9 -57l1 -4q0 -36 12 -61q27 -36 64 -48l180 -1l-19 -91l239 1l19 90l158 -1q21 2 39.5 7t32.5 12q14 10 27 20.5
t24 23.5l7 9q8 11 13 20t9 17l1 6q9 18 12 31q4 11 6.5 21t3.5 20l75 352l1 12l-2 42q-10 40 -33 61l-13 9l-45 13h-568q-56 -9 -103 -47z" />
    <glyph glyph-name="R" unicode="R" horiz-adv-x="860" 
d="M535 264q21 12 28 28l58 279q1 19 -51 33q-53 14 -120 -16l-16 -16l-61 -283q4 -16 16 -25h146zM58 70l117 554l-4 82h669q29 -3 45 -16q12 -13 19.5 -25.5t12.5 -24.5l1 -16l-70 -328l-8 -33l-13 -25q-25 -39 -61 -66l80 -145l-315 1l31 37l-40 82l-128 1h-54l-17 -78
l16 -45h-322l19 18zM25 53l-45 -43h10l22 -22h369l-21 56l15 67h44l103 -1l21 -43l-44 -54h9l22 -22l362 -1l-85 154q30 25 61 72l9 17l8 35l70 329l-1 21q-6 14 -14 28t-22 28l-5 5q-4 5 -8.5 10.5t-9.5 11.5q-20 17 -54 20h-686l5 -94l-116 -550l-18 -23zM470 542l10 10
q44 19 80 19q17 0 32 -4q3 -2 11 -4l-55 -267q-4 -9 -19 -17h-116z" />
    <glyph glyph-name="S" unicode="S" horiz-adv-x="815" 
d="M136 617l-60 -290q9 -20 17 -28.5t14 -13.5q0 -2 2 -2q2 -2 4 -2l10 -10q4 -4 7.5 -6.5t6.5 -4.5l-1 2q1 -1 3.5 -3t3.5 -3l22 -4l40 -9l365 1q-9 -23 -41 -29l-394 -2q-1 0 -2 1t-2 1.5t-2 1.5q-5 3 -13 8.5t-17 11.5t-17 11.5t-14 8.5l-28 -251h6l22 -22h635l57 18
q17 14 31.5 27.5t26.5 28.5l21 42l11 26l14 50l23 105q1 5 1.5 10.5t0.5 12.5q0 35 -23 58l-9 8q-31 61 -170 61h-56q-60 0 -104.5 1t-74.5 3l12 58l9 21q11 13 23 18h113q3 -8 3 -15q0 -9 -5 -23.5t-18 -36.5l30 -22h298q13 33 18.5 60.5t5.5 50.5q0 69 -47 116l-3 2
q-17 25 -47 48l-33 4h-539q-100 -39 -136 -99zM92 328l59 283q33 55 123 90h535l29 -4q103 -72 46 -225h-270q31 58 -13 97h-132q-17 -7 -31 -24l-10 -23l-17 -82l9 -15q63 -11 257 -9q194 3 173 -107l-23 -105l-14 -51l-10 -23l-22 -43q-9 -11 -22.5 -23.5t-30.5 -26.5
l-51 -16h-621l24 210q14 -8 26 -16.5t24 -16.5l403 2q44 9 53 43t-31 38l-372 -1l-40 9l-20 4q-5 4 -14 10t-17 25z" />
    <glyph glyph-name="T" unicode="T" horiz-adv-x="824" 
d="M159 703l-54 -255l7 6l23 -23l69 58h130l-92 -437l-50 -54h10l22 -22h388l-24 46l99 467l159 -1l28 -25v1l23 -20l49 231l-22 22l1 6h-377q-13 1 -29 1h-33h-84h-111h-65q-32 0 -67 -1zM129 488l43 200q273 3 376 0h358l-42 -196l-37 33l-175 1l-102 -480l17 -33h-341
l30 33l102 480h-183z" />
    <glyph glyph-name="U" unicode="U" horiz-adv-x="892" 
d="M435 173v8q0 2 2 10l95 449l44 49l-23 23l-10 5h-388l27 -47l-113 -532q-1 -2 -1 -8v-9q0 -8 1 -16.5t4 -18.5q13 -15 30 -27l4 -4q74 -71 240 -71l228 -2l1 5h35q174 0 272 75l2 2q21 25 24 46l114 537l46 46l-18 28h-400l21 -49l-95 -447q-15 -67 -110 -82q-10 2 -17 5
t-12 6q-3 7 -3 19zM851 96q-93 -72 -265 -72l-219 -2l21 102q183 -6 204 98l96 452l-14 32h342l-29 -29l-115 -539q-3 -20 -21 -42zM568 23l-246 -2q-170 0 -235 71q-6 24 -3 42l115 539l-17 29h342l-28 -31l-96 -452q-22 -103 190 -99zM367 21l201 2l22 97l-62 1l-9 1
l-13 1l-10 2l-21 3l-17 -2l-19 -2h-51z" />
    <glyph glyph-name="V" unicode="V" horiz-adv-x="934" 
d="M192 570l14 -55l94 -423q3 -14 3 -25q0 -8 -1.5 -20t-6.5 -32h7l22 -22h355l5 21l45 94l6 13l11 12q5 11 76 118t209 313l16 26q20 23 33.5 46.5t21.5 46.5l-23 23q0 -1 2 5h-332v-12q0 -3 0.5 -5t0.5 -3q0 -50 -190 -322q-11 48 -30.5 125t-46.5 189l-20 20q-2 6 -2 8
h-331l14 -36l44 -92zM202 588l-44 93l-6 15h296q45 -186 69 -278.5t26 -98.5q233 329 221 377h296q-10 -28 -47 -73l-17 -27q-138 -206 -209 -313t-76 -118l-11 -12l-7 -15l-46 -96l-3 -12h-330q8 40 1 66l-94 423l-11 46z" />
    <glyph glyph-name="W" unicode="W" horiz-adv-x="1143" 
d="M1347 834l-10 -20l-253 -373l31 239l-22 28h-410l-8 -12l-206 -299l58 230l4 5q6 11 18.5 23.5t29.5 26.5q-21 24 -17 28h-463v-13q0 -9 1 -12v-1l1 -1q6 -9 10 -17.5t8 -17.5q0 -4 1 -5q0 -2 0.5 -2.5t0.5 -1.5l5 -30l-1 -14l-3 -17l1 -9v-1l-1 -10q-63 -647 -63 -674
v-18l5 1l23 -23l26 4l346 111l278 485l-17 -391l-1 -6v-7q0 -5 -1 -14t-3 -20h6l22 -22h19l323 96l430 698l66 61q7 4 16 11.5t30 28.5q-21 24 -21 25l3 3h-255v-17q0 -5 0.5 -8t0.5 -5q0 -21 -8 -43zM1351 808l10 20q11 28 8 64h205q-5 -5 -11.5 -9.5t-14.5 -9.5l-66 -61
l-430 -697l-315 -94h-5q3 18 2 24l1 6l23 512l-4 3l-328 -572l-338 -109l-14 -2q-1 13 63 674l1 13l-1 6l3 14l1 21l-5 32q-5 14 -9 25t-11 20q-2 8 -2 7h406q-14 -11 -26 -33l-3 -4l-97 -388l1 -6l293 424l3 5h385l-45 -357z" />
    <glyph glyph-name="X" unicode="X" horiz-adv-x="969" 
d="M349 368l-357 -355h10l22 -22h334l21 41l152 152l108 -171h5l22 -22h326l-219 321l-12 17l361 355l-18 28h-346l-3 -20q-64 -66 -106 -110t-64 -68l-104 170l-15 15l-8 13h-341l48 -51q82 -126 128 -198t56 -95zM178 670l-26 27h298l118 -191l13 -20q4 6 50.5 56
t137.5 144l2 11h297l-348 -342l18 -25l206 -302h-297l-131 210q-20 -23 -173 -176l-17 -34h-298l338 336q-6 29 -188 306z" />
    <glyph glyph-name="Y" unicode="Y" horiz-adv-x="896" 
d="M164 652l-66 -309l1 -23q4 -20 18 -42q4 -3 7 -6t8 -5l14 -14q26 -22 69 -35l8 -2l353 2l-10 -47q0 -15 -31 -15l-252 -1q-6 -1 -12 -1h-10h-21q-27 0 -49 1t-42 4l-75 25l-6 -26v-150l28 -22h653q150 27 168 129v1l101 470h-1l7 18h1q16 37 62 83l-18 28l-396 -2
l-66 -315q-2 -9 -5 -17.5t-5 -16.5l-25 -9h-122l71 329l-22 22l1 6h-391q56 -45 56 -59q0 -1 -1 -1zM113 340l66 307q4 24 -28 50h330l-70 -332q2 -15 22 -25h144l31 13q5 11 8.5 20.5t5.5 19.5l64 305l348 2q-29 -29 -45 -66l-8 -20l-101 -471q-15 -94 -158 -120h-639v132
l2 10l61 -20q27 -4 61 -5.5t77 0.5l251 1q46 0 46 26l25 110q-1 -18 -53 -22l-352 -2l-14 3q-32 10 -58 31q-11 17 -15 38z" />
    <glyph glyph-name="Z" unicode="Z" horiz-adv-x="881" 
d="M586 193l322 332l160 163l-18 28h-881l-51 -239l30 -18l59 44h301l-515 -492l32 -22h869l47 221l-20 32l-65 -49h-270zM178 540l-36 -27l40 188h832l-140 -143l-369 -380h356l36 28l-38 -180h-829l539 514h-391z" />
    <glyph glyph-name="bracketleft" unicode="[" horiz-adv-x="278" 
 />
    <glyph glyph-name="backslash" unicode="\" horiz-adv-x="278" 
 />
    <glyph glyph-name="bracketright" unicode="]" horiz-adv-x="278" 
 />
    <glyph glyph-name="asciicircum" unicode="^" horiz-adv-x="469" 
 />
    <glyph glyph-name="underscore" unicode="_" 
 />
    <glyph glyph-name="grave" unicode="`" horiz-adv-x="333" 
 />
    <glyph glyph-name="a" unicode="a" horiz-adv-x="398" 
d="M210 182h39q25 2 29 -2l-12 -57l-3 -15q-2 -8 -3 -11q-47 -30 -81 -9l-1 14l11 51q3 28 21 29zM92 354l-8 -37l-9 -44l32 15h186q19 -4 13 -23q-3 -19 -29 -24h-93q-67 -5 -95 -27q-27 -22 -37 -85q-14 -56 3 -105l18 -10h148l13 6q16 13 20 27l1 -4l-1 -29h131l1 6
q-4 22 0 41l1 12l42 199q5 72 -41 76l-47 6h-249zM69 320l10 49h264l46 -6q31 -4 45 -31l13 -12q19 -19 19 -61v-14l-42 -199l-1 -14q-2 -6 -2 -9v-7q0 -4 0.5 -8t2.5 -12l-4 -19h-153l-6 6l-12 -6h-153l-26 14l-17 17l-11 6q-11 36 -11 66q0 28 6 54q10 64 42 91l1 1
q1 0 2 1l-22 23l-6 -3zM226 123l-7 -28q7 1 14 3.5t14 6.5v1q0 1 0.5 2t0.5 3l3 15l4 19h-20q-3 -2 -5.5 -6.5t-3.5 -15.5zM135 251l-6 -3l12 3h-6z" />
    <glyph glyph-name="b" unicode="b" horiz-adv-x="381" 
d="M223 286h67q5 -8 5 -18l-36 -171q-3 -6 -11.5 -12t-20 -8.5t-25 -1t-26.5 10.5l-3 10l36 174q6 10 14 16zM102 432l-1 -6l4 -41l-68 -320l-20 -51h304q5 1 11 3.5t13 6.5q18 17 26 31l4 10l43 201l1 14l2 21q-2 26 -12 41l-4 2q-9 6 -16 8q-8 4 -24 4l-120 1
q-23 -8 -32 -34l24 109h-135zM86 428l3 19h167l21 -28l-11 -47l99 -1q18 0 30 -5q9 -3 19 -10q34 -13 39 -40q2 -13 3 -22.5t2 -17.5l-2 -22l-1 -17l-42 -197l-8 -19q-7 -14 -28 -32q-16 -10 -29 -12h-323l-30 22l27 69l67 319zM245 240l-31 -150q22 0 30 12l31 147h-23
q-1 -1 -2.5 -3z" />
    <glyph glyph-name="c" unicode="c" horiz-adv-x="406" 
d="M95 319q-8 -14 -13 -31l-44 -209q-1 -13 0 -22t2 -14q16 -31 106 -29h187q61 4 83 139h-135q-5 -54 -30 -72h-64l-10 7q-2 12 1 26l35 160q16 13 64 12t24 -67h129q30 126 -11 134l-278 1q-32 -11 -46 -35zM82 327q16 27 57 42l283 -1q20 -4 30 -25l13 -13q15 -15 15 -50
q0 -17 -4 -41.5t-11 -56.5h-155l-29 22q10 28 12 45q-31 0 -44 -6l-33 -147h29q18 18 22 72h166q-1 -1 -1 -5l23 -23q-25 -158 -97 -163h-196q-74 0 -100 26l-12 11q-17 8 -25 25v4q-1 5 -1.5 11t-0.5 16v12l44 209q3 16 15 36z" />
    <glyph glyph-name="d" unicode="d" horiz-adv-x="379" 
d="M173 94l2 -3q-2 2 -2 3zM201 90l30 149q3 6 7 10h22l-31 -149l-2 -2q-13 -8 -26 -8zM488 433l-12 14h-165l-17 -79q-2 2 -3.5 2.5t-3.5 1.5l-124 -1q-5 0 -10 -0.5t-10 -1.5l1 1q-1 -1 -4 -1q-2 0 -3 -1q-1 0 -1 -1h-1q-6 -2 -14 -5t-17 -8v-1q-22 -19 -35 -46l-7 -24
l-6 -17l-42 -197v-15q1 -8 5.5 -18.5t10.5 -20.5q7 -8 15 -12l14 -13q15 -12 25 -13h319l1 61l68 319l23 41l10 15zM275 286h-66q-10 -6 -14 -18l-35 -171q-2 -12 20 -20q24 -8 56 9l8 10l37 174q-1 10 -6 16zM459 432l-1 -6l-23 -41l-68 -320l-1 -51h-305q-8 1 -19 10
q-11 17 -13 31v10l43 201l5 14l6 21q7 13 14 23t17 18l3 2q7 4 12 5.5t8 2.5q9 4 26 4l120 1q18 -8 18 -34l23 109h135z" />
    <glyph glyph-name="e" unicode="e" horiz-adv-x="389" 
d="M269 293q50 3 49 -25l-11 -51h-104l10 51q5 27 56 25zM108 329q-13 -19 -17 -32l-46 -218l-1 -24q-5 -27 29 -40l290 -1q3 14 5 16l3 11l5 16q5 12 7.5 21.5t4.5 17.5q-57 -21 -169 -15q-21 -2 -33 3q-10 31 2 61l11 2h190l13 2l31 148l1 12l-6 22q-9 18 -25 25h-252
q-26 -10 -43 -27zM97 339l2 1l-1 -1q11 11 23 18.5t26 13.5h260q11 -6 19 -13.5t15 -18.5l10 -10q8 -8 14 -20l6 -23l-1 -17l-33 -156l-21 -3h-4l20 -20l-10 -30h1q-2 -6 -4 -14t-7 -19l-5 -14h1l-3 -12q-3 -3 -7 -24l-303 1q-16 6 -26 16l-11 11q-30 16 -30 44v3
q0 1 0.5 1.5t0.5 1.5l1 27l45 215q3 9 8 19.5t14 22.5zM222 109q-1 -2 -2 -5.5t-2 -7.5h1q7 -1 13 -1h11h23q56 0 112 15h-152zM250 241l-3 -9h47l5 24h-10q-36 0 -39 -15z" />
    <glyph glyph-name="f" unicode="f" horiz-adv-x="311" 
d="M170 379q-2 -4 -5 -10.5t-5 -14.5l-29 -137h-76l-15 -72h47h29l-28 -133h125l28 133h79l16 75l-79 -1l17 84q18 73 93 49l15 70h-121q-57 0 -91 -43zM158 389h2q40 48 101 48h140l21 -28l-21 -97q-27 9 -43 9q-37 0 -47 -46l-9 -41l53 1l21 -28l-21 -99h-79l-28 -133
h-150l-29 22l23 111h-42l-29 22l21 102h76l27 125q3 11 6 18t7 14z" />
    <glyph glyph-name="g" unicode="g" horiz-adv-x="391" 
d="M216 283h62l8 -6l2 -9l-31 -146q-3 -19 -14 -33q-43 -22 -76 -3q-5 22 -1 35l32 149q5 14 18 13zM82 287l-45 -211q-3 -34 4 -47q9 -11 22 -15l14 -2h142q6 5 10 8t6 5q-6 -59 -32 -94l-9 -4l-155 2q-22 8 -31 17l-14 -108h288q16 8 26 18q18 22 23 40l80 380
q3 17 13 35.5t25 38.5h-299q-49 -6 -68 -63zM67 291l1 1q23 66 81 73h330l19 -28q-20 -28 -33.5 -50t-16.5 -38l-80 -381q-5 -19 -26 -44q-8 -8 -15.5 -13.5t-16.5 -9.5h-305l-28 22l20 154q24 -25 44 -33l149 -2l4 2q4 7 7.5 14.5t6.5 16.5h-108l-12 2q-17 5 -28 16l-10 10
q-7 3 -12 8l-10 10q-7 13 -7 35v11q0 8 1 11zM234 101q5 8 8 23l25 122h-28q-4 0 -5 -4h1l-32 -149h-1v-1q14 0 32 9z" />
    <glyph glyph-name="h" unicode="h" horiz-adv-x="381" 
d="M105 423l4 -29l-73 -341q-7 -22 -20 -38h146l-4 18l-1 12l43 204l7 27q50 26 81 4l-2 -10l-42 -201q-4 -12 -9.5 -25.5t-13.5 -28.5h151l-11 20l41 192q21 80 -18 122l-3 2l-12 4l-21 2l-94 -1q-23 -2 -38 -35l21 102h-132zM-15 0q14 17 22 29.5t13 22.5l73 344l-5 42
h168l21 -28l-9 -39l81 1l22 -2l17 -6l5 -3q4 -5 7.5 -9.5t6.5 -9.5l9 -8q30 -32 30 -81q0 -29 -7 -54l-40 -187l19 -34h-193l-28 22l5 -22h-186zM194 19l1 -8l1 -8q14 25 21.5 41t11.5 27l37 180q-12 -3 -24 -9l-5 -20v-1z" />
    <glyph glyph-name="i" unicode="i" horiz-adv-x="167" 
d="M87 353l1 -6q4 -7 6 -15t0 -17l-58 -268q-4 -16 -19 -32h145q-5 34 2 57l60 281h-137zM73 343l-3 25h173l21 -28l-63 -296q-4 -13 -4 -29q0 -3 1 -14t3 -23h-186l-31 22q15 17 25 30t12 21l57 262l2 6v4q0 9 -7 20z" />
    <glyph glyph-name="j" unicode="j" horiz-adv-x="177" 
d="M143 -28q4 5 6 11.5t4 14.5l75 357h-125l-64 -304q-17 -77 -93 -51l-16 -73h121q57 0 92 45zM-60 -110l-16 12l-13 10l24 107q30 -10 45 -10q33 0 44 45l66 316h157l21 -28l-78 -371q-3 -11 -5.5 -18.5t-6.5 -12.5q-38 -50 -102 -50h-136z" />
    <glyph glyph-name="k" unicode="k" horiz-adv-x="405" 
d="M110 430l6 -6l3 -10l-2 -30l-68 -321l-4 -9l-16 -39h146l-1 11l1 32l2 17l22 106l52 -141q4 -8 -1 -25h146l-17 25l-5 8l-60 158l99 112q6 8 15 15.5t20 15.5h-144q-6 -27 -89 -104l-1 4l38 181h-142zM35 69l67 319l2 26l-1 3l-28 28h196l21 -28l-18 -86q13 18 17 33h203
q-2 -2 16 -28q-23 -17 -39.5 -29.5t-21.5 -19.5l-97 -109l57 -150l3 -4l2 -2l30 -44h-185l-29 22q8 21 8 31q0 1 -1 1v1v2l-17 45l-6 -31v-1l-2 -16l-1 -30l2 -24h-177l-30 22l25 60l3 7z" />
    <glyph glyph-name="l" unicode="l" horiz-adv-x="183" 
d="M108 430l1 -7q8 -17 5 -39l-72 -330q-2 -8 -7 -18t-13 -21h145q-3 31 5 69l73 346h-137zM94 419l-3 26h173l21 -28l-76 -361q-6 -26 -6 -48q0 -5 0.5 -10.5t2.5 -19.5h-183l-31 22q17 23 25 36.5t10 21.5l72 330q1 3 1 7q0 12 -6 24z" />
    <glyph glyph-name="m" unicode="m" horiz-adv-x="598" 
d="M90 354l1 -9q9 -14 9 -34l-48 -228q-2 -7 -4 -12.5t-3 -10.5l-6 -16l-14 -29h146l-5 28l48 227l7 12q45 23 72 -1l1 -9l-45 -216q-4 -25 -19 -41h148l-2 13v9l-2 12l39 181q3 13 5 26t4 27l15 10l29 3l17 -5l10 -8l-2 -14l-48 -231q-6 -14 -18 -23h147q-5 29 -2 48
l37 174q4 17 5.5 34t1.5 33q-6 27 -22 43l-18 7h-133q-10 -7 -16 -15t-11 -18q-11 19 -24 30q-12 3 -22 3l-112 -1q-17 1 -34 -28q-2 8 -3 15t-3 14h-126zM76 339l-2 30h152q0 -2 2 -8l1 -2q12 9 25 9h2l112 1q14 0 26 -3q5 -5 9.5 -9t9.5 -9q9 10 24 21h139l23 -9
q9 -9 17 -22l7 -6q22 -22 28 -50q0 -19 -1.5 -37.5t-5.5 -35.5l-37 -173q-1 -3 -1 -14q0 -10 6 -44h-384l-22 22l4 -22h-179l-30 22l24 49l1 2l4 12q3 8 4 10.5t3 10.5v3l48 228q-2 12 -9 24zM251 242l-48 -224l1 -9q14 16 21 28.5t9 21.5l40 195q-5 -1 -10 -3l-10 -4z
M450 202l-39 -177q15 15 17 18l45 213h-7l-8 -6q-1 -2 -1 -8q-2 -10 -3.5 -20t-3.5 -20z" />
    <glyph glyph-name="n" unicode="n" horiz-adv-x="395" 
d="M96 357l5 -29l-59 -275q-8 -25 -21 -38h147l-5 18v12l43 204l7 27q50 26 80 4l-1 -10l-42 -201q-9 -26 -24 -54l154 -1l-13 21l41 192q8 29 10 52.5t0 41.5q-1 37 -69 34l-65 1q-47 -2 -62 -35l8 36h-134zM-14 0q33 33 41 57l58 273l-6 42h170l-2 -6l2 -1q15 4 35 6
l65 -1h10q56 0 70 -30l15 -15q11 -11 11 -27q1 -3 1 -11v-12q0 -17 -2.5 -36t-8.5 -40l-40 -188l21 -34l-195 1l-22 22h-6l6 -22h-191zM200 18v-7l2 -8q2 3 4 7.5t4 7.5q18 34 25 53l36 180q-13 -3 -23 -9l-5 -21z" />
    <glyph glyph-name="o" unicode="o" horiz-adv-x="421" 
d="M240 285h36h21q25 3 18 -24l-34 -160l-1 -6q-6 -12 -14 -14h-77q-5 6 -6 10q1 2 1 9t1 9l32 151l5 11q6 11 18 14zM111 327q-16 -18 -20 -31l-9 -23l-37 -173q-2 -9 -2.5 -16.5t-1.5 -12.5l1 -2q0 -19 4 -30q14 -20 29 -24l5 -1h261q17 2 32 9q7 5 13 11l11 11l3 5
q3 5 5.5 9.5t4.5 8.5l1 3q2 5 3 8.5t2 6.5q1 2 2 4.5t2 7.5l2 9l37 175v6v21q-5 21 -15 30l-6 5l-20 7h-260q-28 -5 -47 -24zM101 338h1q22 22 53 28h265l26 -9l8 -7q4 -3 7 -7.5l7 -10.5l12 -12q12 -12 16 -33v-32l-37 -176l-2 -9q-1 -4 -2.5 -7l-2.5 -5h1l-2 -6t-4 -11h-1
l-1 -5q-4 -4 -5 -9t-5 -9h-1l-2 -4q-12 -12 -31 -28q-14 -8 -34 -9h-264l-1 1q-10 4 -18.5 8.5t-15.5 11.5l-13 13q-15 10 -22 21q-4 8 -5 16t-1 16l-1 3v6q0 2 0.5 3.5t0.5 3.5t0.5 4t0.5 4q0 5 0.5 8.5t1.5 7.5l36 170l11 27q6 19 24 37zM253 231l-29 -135h40l1 1v1l1 5
l30 145h-28q-7 -1 -11 -7h1zM223 63h-1h1z" />
    <glyph glyph-name="p" unicode="p" horiz-adv-x="382" 
d="M227 100l31 144l5 6q7 3 13 5.5t12 3.5l-30 -150q-2 -3 -3 -5t-3 -4h-25zM-5 -49l-13 -26l37 -23h159l17 83q3 -2 6 -3.5l7 -3.5h120q17 0 29 4q4 1 9 3.5t13 5.5l6 3q11 9 19 20.5t16 25.5l7 23h-1l7 18l42 197v14q-2 9 -5.5 17.5t-8.5 19.5q-10 10 -14.5 15t-5.5 6
q-2 4 -7 8q-5 5 -12.5 8.5t-12.5 5.5h-323l-1 -61l-69 -319zM192 85h66q10 6 14 18l35 171q1 13 -21 21q-20 7 -55 -10l-9 -10l-37 -174q3 -13 7 -16zM8 -61l1 6l22 41l69 320l1 51h305q8 -1 19 -10q5 -10 8.5 -17.5t4.5 -13.5v-10l-43 -201l-5 -14l-6 -21q-7 -13 -14 -23
t-17 -18l-4 -2q-11 -6 -19 -8q-11 -4 -27 -4h-119q-19 7 -19 33l-22 -109h-135z" />
    <glyph glyph-name="q" unicode="q" horiz-adv-x="394" 
d="M241 85h-67q-8 9 -6 18l37 171q5 14 31 21q27 8 52 -10l2 -10l-37 -174q-4 -10 -12 -16zM362 -61l1 6l-5 41l68 320l21 51h-305q-9 -1 -23 -10q-11 -10 -17 -17.5t-10 -13.5l-4 -10l-43 -201l-1 -14l-2 -21q1 -23 13 -41l4 -2q5 -4 9 -5.5t6 -2.5q8 -4 25 -4h119
q24 7 33 33l-24 -109h135zM463 279l-1 -3h-1l-66 -316l5 -41l-3 -17h-160l-29 22l12 54h-96q-19 0 -30 5q-7 2 -17 9l-6 3l-27 22q-15 24 -17 53l2 22l1 18l42 197l6 15q4 7 11.5 15.5t21.5 21.5q9 7 16 9.5t13 3.5h330l20 -28zM242 246l-32 -146h25q1 1 3 6l33 154
q-6 -2 -7 -2q-18 -6 -23 -12h1z" />
    <glyph glyph-name="r" unicode="r" horiz-adv-x="341" 
d="M96 357l5 -29l-59 -275q-8 -25 -21 -38h147l-5 18v12l43 204l7 27q50 26 80 4l-1 -10h88q13 79 -36 86h-60q-47 -2 -62 -35l8 36h-134zM-14 0q33 33 41 57l58 273l-6 42h170l-2 -6l2 -1q15 4 35 6h62q32 -5 45 -31l12 -12q17 -17 17 -52q0 -8 -1.5 -18.5l-3.5 -24.5h-111
l-20 20q-7 -1 -16 -3.5t-20 -7.5l-5 -20v-1l-43 -203v-7l9 -33h-191z" />
    <glyph glyph-name="s" unicode="s" horiz-adv-x="402" 
d="M93 314l-30 -143q5 -9 8.5 -12t5.5 -5l9 -2l18 -5l170 1q19 -1 13 -19q-3 -17 -24 -22l-183 -1q-5 5 -11 9l-12 8l-12 -106h283l22 8q14 10 26 25l10 22l5 11l7 26l11 53q10 55 -78 54q-46 -1 -75.5 0t-41.5 4l-4 8l9 41l5 12q4 6 13 11h61q18 -20 5 -48h124
q25 75 -19 113l-14 2h-244q-41 -18 -57 -45zM78 317l5 9q19 28 63 48h250l18 -2q15 -14 24 -27l7 -7q28 -28 28 -68q0 -25 -13 -63h-46q4 -4 6 -11l14 -13q13 -13 13 -35v-7q0 -5 -1 -7l-11 -53l-7 -26l-6 -13l-9 -21q-8 -9 -15 -16.5t-16 -14.5l-28 -10h-297l-28 22l16 147
q10 -7 20 -13.5t19 -14.5h10l-2 2l1 -2q-1 1 -2 1l-2 2l-15 14l-2 1l-4 4q-9 4 -21 26zM256 241l-3 -10h25l12 24h-26q-2 -1 -2.5 -2t-2.5 -2h1z" />
    <glyph glyph-name="t" unicode="t" horiz-adv-x="299" 
d="M151 355h-58l-15 -72h60l-44 -209l4 -28q26 -38 107 -30l82 5l15 70q-46 -15 -74 6l-1 8l38 178l78 1l15 71h-80q2 22 7 38.5t12 27.5h-138q6 -22 -8 -66zM59 268l21 102h59q3 11 5 20t2 15q0 -1 -1.5 9t-3.5 22h183q-2 -2 9 -13l10 -15q-6 -9 -10.5 -18.5t-8.5 -19.5h53
l21 -28l-20 -95l-78 -1l-32 -146q7 0 19.5 2.5t34.5 10.5l21 -30l-21 -98l-91 -6q-5 -1 -14 -1h-12q-60 0 -85 27l-8 8q-18 8 -29 26l-4 36l35 171h-26z" />
    <glyph glyph-name="u" unicode="u" horiz-adv-x="384" 
d="M365 15l-5 28l57 266q8 22 21 38h-143l5 -17l1 -12l-43 -198l-7 -26q-45 -26 -78 -5v10l42 196q5 13 10.5 26t12.5 26h-149l13 -19l-40 -188q-8 -26 -10.5 -49t-0.5 -42q1 -36 68 -32l63 -1q46 0 60 33l-7 -34h130zM469 362q-2 -2 19 -28q-28 -32 -35 -53h1l-57 -264
l7 -39h-159l-6 6q-17 -5 -32 -5l-63 1q-4 0 -7.5 -0.5t-6.5 -0.5q-39 0 -55 16l-14 13q-25 12 -25 39q-1 3 -1 10v10q0 36 12 78l38 181l-24 36h203l18 -26l-7 26h194zM252 267l-36 -171q5 2 10.5 4t11.5 5l5 19l42 197v4l-2 7q-16 -30 -21 -41t-8 -18l-1.5 -4.5z" />
    <glyph glyph-name="v" unicode="v" horiz-adv-x="396" 
d="M70 353l2 -8l19 -47l4 -11l5 -24l38 -215q3 -21 -1 -33h150l1 6q51 88 92 157.5t74 123.5l9 14q8 11 13.5 20t7.5 17h-135q5 -20 -105 -191q-3 3 -39 191h-135zM56 345l-6 23h168l22 -28q7 -37 12.5 -66.5t10.5 -52.5q71 113 71 130v17h170l21 -28q-5 -20 -11.5 -32
t-15.5 -24h-1l-8 -13q-66 -106 -99 -159.5t-35 -59.5l-4 -4l-4 -8l-22 -46l-1 -1l-2 -15h-176l-29 22q5 16 6 21.5t1 10.5q0 10 -1 13l-38 215l-5 25l-3 8z" />
    <glyph glyph-name="w" unicode="w" horiz-adv-x="586" 
d="M570 16l-2 9q-4 6 -6.5 14.5t-1.5 19.5l49 229q2 7 4 12.5t3 10.5l6 16l14 29h-147l6 -29l-49 -226l-6 -13q-48 -23 -73 1l-1 10l46 216q3 23 18 41h-148l2 -13l1 -10l1 -12l-38 -181q-4 -11 -6 -24.5t-4 -28.5l-15 -9l-28 -3l-18 4l-10 9l1 13l49 231q3 7 8 13t10 11
h-146q5 -34 1 -48l-38 -175q-8 -36 -6 -66q6 -28 22 -43l18 -8l319 1q18 0 34 28q1 -8 2 -15l2 -14h127zM86 -11l-19 18l-7 4q-12 10 -18.5 23t-10.5 30v13q0 29 6 59l38 177q2 10 2 13q0 4 -1.5 15.5t-5.5 29.5h392q-1 -1 -2 -1.5t-0.5 -2t3.5 -5.5t11 -13l-4 22h190
l20 -28l-22 -46h-1l-4 -13l-1 -1q0 -2 -2 -7.5t-4 -12.5q-1 -1 -1 -3h1l-49 -229v-2q0 -8 2.5 -15t5.5 -12l5 -23h-154l-7 7q-9 -6 -19 -6l-322 -1zM449 288l-42 -196q6 1 11 3l10 4l4 8l47 220l-3 11q-24 -32 -27 -50zM254 304l-46 -213l9 1l7 4q2 13 3.5 24t5.5 22v1
l37 180v2q-10 -12 -16 -21zM375 98v-1v1z" />
    <glyph glyph-name="x" unicode="x" horiz-adv-x="417" 
d="M83 356l11 -13q37 -70 56 -109t20 -48l-152 -171h129l8 17q69 78 78 90l53 -107h129l-85 154l-6 13l156 174h-129l-1 -5q-40 -47 -61 -72t-24 -30l-5 10l-48 97h-129zM153 190q-5 14 -23 50.5t-50 96.5l-29 34h171l5 -10l18 -18l28 -59q11 14 27 32.5t36 41.5l2 13h175
l19 -28l-169 -189l2 -3l1 -1l95 -172h-158l-22 22h-5l-31 62q-10 -11 -24 -26.5t-31 -35.5l-10 -22h-164l-31 22z" />
    <glyph glyph-name="y" unicode="y" horiz-adv-x="407" 
d="M99 313l-50 -232v-12q0 -19 3 -29q8 -14 23 -22l5 -2l148 1q22 1 24 16l-19 -83q-1 -18 -21 -20h-105q-37 -1 -58 3l-24 16l-2 -8l-10 -100h269q61 19 76 91l75 356l5 15q5 13 10 25t12 23l-144 1l-49 -231q-2 -8 -4.5 -16t-4.5 -15l-14 -9h-60q-8 8 -8 19l54 251h-139
q11 -20 8 -38zM34 85l50 233v1q1 0 1 2q0 10 -21 45h185l21 -28l-53 -242h21l8 4q1 2 1 6q0 3 2 7l3 13l51 241h191l12 -29q-9 -14 -13.5 -22.5t-7.5 -14.5t-4.5 -10.5l-3.5 -10.5q-2 -2 -2.5 -4l-0.5 -2l-5 -13h1l-75 -356q-16 -78 -87 -101h-283l-22 22h-6l11 121l7 27
l41 -27q7 -1 14.5 -1.5t18.5 -0.5h122q6 2 7 12l5 23l-119 -1l-9 3q-4 2 -7.5 4.5t-6.5 5.5l-12 12q-11 5 -18 13.5t-14 19.5q-3 10 -3 32v16z" />
    <glyph glyph-name="z" unicode="z" horiz-adv-x="392" 
d="M98 352l-8 -35l-9 -45h177l-235 -257h347l17 76h-163l162 190l61 71h-349zM75 320l10 47h394l19 -28l-78 -91l-122 -142h108l21 -28l-22 -100h-384l-32 22l215 235h-113l-29 22z" />
    <glyph glyph-name="braceleft" unicode="{" horiz-adv-x="334" 
 />
    <glyph glyph-name="bar" unicode="|" horiz-adv-x="260" 
 />
    <glyph glyph-name="braceright" unicode="}" horiz-adv-x="334" 
 />
    <glyph glyph-name="asciitilde" unicode="~" horiz-adv-x="584" 
 />
    <glyph glyph-name="exclamdown" unicode="&#xa1;" horiz-adv-x="333" 
 />
    <glyph glyph-name="cent" unicode="&#xa2;" 
 />
    <glyph glyph-name="sterling" unicode="&#xa3;" 
 />
    <glyph glyph-name="yen" unicode="&#xa5;" 
 />
    <glyph glyph-name="brokenbar" unicode="&#xa6;" horiz-adv-x="260" 
 />
    <glyph glyph-name="section" unicode="&#xa7;" 
 />
    <glyph glyph-name="dieresis" unicode="&#xa8;" horiz-adv-x="333" 
 />
    <glyph glyph-name="copyright" unicode="&#xa9;" horiz-adv-x="737" 
 />
    <glyph glyph-name="ordfeminine" unicode="&#xaa;" horiz-adv-x="370" 
 />
    <glyph glyph-name="guillemotleft" unicode="&#xab;" 
 />
    <glyph glyph-name="logicalnot" unicode="&#xac;" horiz-adv-x="584" 
 />
    <glyph glyph-name="registered" unicode="&#xae;" horiz-adv-x="737" 
 />
    <glyph glyph-name="glyph137" unicode="&#xaf;" horiz-adv-x="552" 
 />
    <glyph glyph-name="degree" unicode="&#xb0;" horiz-adv-x="400" 
 />
    <glyph glyph-name="plusminus" unicode="&#xb1;" horiz-adv-x="549" 
 />
    <glyph glyph-name="twosuperior" unicode="&#xb2;" horiz-adv-x="333" 
 />
    <glyph glyph-name="threesuperior" unicode="&#xb3;" horiz-adv-x="333" 
 />
    <glyph glyph-name="acute" unicode="&#xb4;" horiz-adv-x="333" 
 />
    <glyph glyph-name="mu1" unicode="&#xb5;" horiz-adv-x="576" 
 />
    <glyph glyph-name="paragraph" unicode="&#xb6;" horiz-adv-x="537" 
 />
    <glyph glyph-name="glyph145" unicode="&#xb7;" horiz-adv-x="278" 
 />
    <glyph glyph-name="glyph145" unicode="&#x2219;" horiz-adv-x="278" 
 />
    <glyph glyph-name="cedilla" unicode="&#xb8;" horiz-adv-x="333" 
 />
    <glyph glyph-name="onesuperior" unicode="&#xb9;" horiz-adv-x="333" 
 />
    <glyph glyph-name="ordmasculine" unicode="&#xba;" horiz-adv-x="365" 
 />
    <glyph glyph-name="guillemotright" unicode="&#xbb;" 
 />
    <glyph glyph-name="onequarter" unicode="&#xbc;" horiz-adv-x="834" 
 />
    <glyph glyph-name="onehalf" unicode="&#xbd;" horiz-adv-x="834" 
 />
    <glyph glyph-name="threequarters" unicode="&#xbe;" horiz-adv-x="834" 
 />
    <glyph glyph-name="questiondown" unicode="&#xbf;" horiz-adv-x="611" 
 />
    <glyph glyph-name="Agrave" unicode="&#xc0;" horiz-adv-x="667" 
 />
    <glyph glyph-name="Aacute" unicode="&#xc1;" horiz-adv-x="667" 
 />
    <glyph glyph-name="Acircumflex" unicode="&#xc2;" horiz-adv-x="667" 
 />
    <glyph glyph-name="Atilde" unicode="&#xc3;" horiz-adv-x="667" 
 />
    <glyph glyph-name="Adieresis" unicode="&#xc4;" horiz-adv-x="667" 
 />
    <glyph glyph-name="Aring" unicode="&#xc5;" horiz-adv-x="667" 
 />
    <glyph glyph-name="AE" unicode="&#xc6;" horiz-adv-x="1000" 
 />
    <glyph glyph-name="Ccedilla" unicode="&#xc7;" horiz-adv-x="722" 
 />
    <glyph glyph-name="Egrave" unicode="&#xc8;" horiz-adv-x="667" 
 />
    <glyph glyph-name="Eacute" unicode="&#xc9;" horiz-adv-x="667" 
 />
    <glyph glyph-name="Ecircumflex" unicode="&#xca;" horiz-adv-x="667" 
 />
    <glyph glyph-name="Edieresis" unicode="&#xcb;" horiz-adv-x="667" 
 />
    <glyph glyph-name="Igrave" unicode="&#xcc;" horiz-adv-x="278" 
 />
    <glyph glyph-name="Iacute" unicode="&#xcd;" horiz-adv-x="278" 
 />
    <glyph glyph-name="Icircumflex" unicode="&#xce;" horiz-adv-x="278" 
 />
    <glyph glyph-name="Idieresis" unicode="&#xcf;" horiz-adv-x="278" 
 />
    <glyph glyph-name="Eth" unicode="&#xd0;" horiz-adv-x="722" 
 />
    <glyph glyph-name="Ntilde" unicode="&#xd1;" horiz-adv-x="722" 
 />
    <glyph glyph-name="Ograve" unicode="&#xd2;" horiz-adv-x="778" 
 />
    <glyph glyph-name="Oacute" unicode="&#xd3;" horiz-adv-x="778" 
 />
    <glyph glyph-name="Ocircumflex" unicode="&#xd4;" horiz-adv-x="778" 
 />
    <glyph glyph-name="Otilde" unicode="&#xd5;" horiz-adv-x="778" 
 />
    <glyph glyph-name="Odieresis" unicode="&#xd6;" horiz-adv-x="778" 
 />
    <glyph glyph-name="multiply" unicode="&#xd7;" horiz-adv-x="584" 
 />
    <glyph glyph-name="Oslash" unicode="&#xd8;" horiz-adv-x="778" 
 />
    <glyph glyph-name="Ugrave" unicode="&#xd9;" horiz-adv-x="722" 
 />
    <glyph glyph-name="Uacute" unicode="&#xda;" horiz-adv-x="722" 
 />
    <glyph glyph-name="Ucircumflex" unicode="&#xdb;" horiz-adv-x="722" 
 />
    <glyph glyph-name="Udieresis" unicode="&#xdc;" horiz-adv-x="722" 
 />
    <glyph glyph-name="Yacute" unicode="&#xdd;" horiz-adv-x="667" 
 />
    <glyph glyph-name="Thorn" unicode="&#xde;" horiz-adv-x="667" 
 />
    <glyph glyph-name="germandbls" unicode="&#xdf;" horiz-adv-x="611" 
 />
    <glyph glyph-name="agrave" unicode="&#xe0;" 
 />
    <glyph glyph-name="aacute" unicode="&#xe1;" 
 />
    <glyph glyph-name="acircumflex" unicode="&#xe2;" 
 />
    <glyph glyph-name="atilde" unicode="&#xe3;" 
 />
    <glyph glyph-name="adieresis" unicode="&#xe4;" 
 />
    <glyph glyph-name="aring" unicode="&#xe5;" 
 />
    <glyph glyph-name="ae" unicode="&#xe6;" horiz-adv-x="889" 
 />
    <glyph glyph-name="ccedilla" unicode="&#xe7;" horiz-adv-x="500" 
 />
    <glyph glyph-name="egrave" unicode="&#xe8;" 
 />
    <glyph glyph-name="eacute" unicode="&#xe9;" 
 />
    <glyph glyph-name="ecircumflex" unicode="&#xea;" 
 />
    <glyph glyph-name="edieresis" unicode="&#xeb;" 
 />
    <glyph glyph-name="igrave" unicode="&#xec;" horiz-adv-x="278" 
 />
    <glyph glyph-name="iacute" unicode="&#xed;" horiz-adv-x="278" 
 />
    <glyph glyph-name="icircumflex" unicode="&#xee;" horiz-adv-x="278" 
 />
    <glyph glyph-name="idieresis" unicode="&#xef;" horiz-adv-x="278" 
 />
    <glyph glyph-name="eth" unicode="&#xf0;" 
 />
    <glyph glyph-name="ntilde" unicode="&#xf1;" 
 />
    <glyph glyph-name="ograve" unicode="&#xf2;" 
 />
    <glyph glyph-name="oacute" unicode="&#xf3;" 
 />
    <glyph glyph-name="ocircumflex" unicode="&#xf4;" 
 />
    <glyph glyph-name="otilde" unicode="&#xf5;" 
 />
    <glyph glyph-name="odieresis" unicode="&#xf6;" 
 />
    <glyph glyph-name="divide" unicode="&#xf7;" horiz-adv-x="549" 
 />
    <glyph glyph-name="oslash" unicode="&#xf8;" horiz-adv-x="611" 
 />
    <glyph glyph-name="ugrave" unicode="&#xf9;" 
 />
    <glyph glyph-name="uacute" unicode="&#xfa;" 
 />
    <glyph glyph-name="ucircumflex" unicode="&#xfb;" 
 />
    <glyph glyph-name="udieresis" unicode="&#xfc;" 
 />
    <glyph glyph-name="yacute" unicode="&#xfd;" horiz-adv-x="500" 
 />
    <glyph glyph-name="thorn" unicode="&#xfe;" 
 />
    <glyph glyph-name="ydieresis" unicode="&#xff;" horiz-adv-x="500" 
 />
    <glyph glyph-name="Amacron" unicode="&#x100;" horiz-adv-x="667" 
 />
    <glyph glyph-name="amacron" unicode="&#x101;" 
 />
    <glyph glyph-name="Abreve" unicode="&#x102;" horiz-adv-x="667" 
 />
    <glyph glyph-name="abreve" unicode="&#x103;" 
 />
    <glyph glyph-name="Aogonek" unicode="&#x104;" horiz-adv-x="667" 
 />
    <glyph glyph-name="aogonek" unicode="&#x105;" 
 />
    <glyph glyph-name="Cacute" unicode="&#x106;" horiz-adv-x="722" 
 />
    <glyph glyph-name="cacute" unicode="&#x107;" horiz-adv-x="500" 
 />
    <glyph glyph-name="Ccircumflex" unicode="&#x108;" horiz-adv-x="722" 
 />
    <glyph glyph-name="ccircumflex" unicode="&#x109;" horiz-adv-x="500" 
 />
    <glyph glyph-name="Cdot" unicode="&#x10a;" horiz-adv-x="722" 
 />
    <glyph glyph-name="cdot" unicode="&#x10b;" horiz-adv-x="500" 
 />
    <glyph glyph-name="Ccaron" unicode="&#x10c;" horiz-adv-x="722" 
 />
    <glyph glyph-name="ccaron" unicode="&#x10d;" horiz-adv-x="500" 
 />
    <glyph glyph-name="Dcaron" unicode="&#x10e;" horiz-adv-x="722" 
 />
    <glyph glyph-name="dcaron" unicode="&#x10f;" horiz-adv-x="615" 
 />
    <glyph glyph-name="Dslash" unicode="&#x110;" horiz-adv-x="722" 
 />
    <glyph glyph-name="dmacron" unicode="&#x111;" 
 />
    <glyph glyph-name="Emacron" unicode="&#x112;" horiz-adv-x="667" 
 />
    <glyph glyph-name="emacron" unicode="&#x113;" 
 />
    <glyph glyph-name="Ebreve" unicode="&#x114;" horiz-adv-x="667" 
 />
    <glyph glyph-name="ebreve" unicode="&#x115;" 
 />
    <glyph glyph-name="Edot" unicode="&#x116;" horiz-adv-x="667" 
 />
    <glyph glyph-name="edot" unicode="&#x117;" 
 />
    <glyph glyph-name="Eogonek" unicode="&#x118;" horiz-adv-x="667" 
 />
    <glyph glyph-name="eogonek" unicode="&#x119;" 
 />
    <glyph glyph-name="Ecaron" unicode="&#x11a;" horiz-adv-x="667" 
 />
    <glyph glyph-name="ecaron" unicode="&#x11b;" 
 />
    <glyph glyph-name="Gcircumflex" unicode="&#x11c;" horiz-adv-x="778" 
 />
    <glyph glyph-name="gcircumflex" unicode="&#x11d;" 
 />
    <glyph glyph-name="Gbreve" unicode="&#x11e;" horiz-adv-x="778" 
 />
    <glyph glyph-name="gbreve" unicode="&#x11f;" 
 />
    <glyph glyph-name="Gdot" unicode="&#x120;" horiz-adv-x="778" 
 />
    <glyph glyph-name="gdot" unicode="&#x121;" 
 />
    <glyph glyph-name="Gcedilla" unicode="&#x122;" horiz-adv-x="778" 
 />
    <glyph glyph-name="gcedilla" unicode="&#x123;" 
 />
    <glyph glyph-name="Hcircumflex" unicode="&#x124;" horiz-adv-x="722" 
 />
    <glyph glyph-name="hcircumflex" unicode="&#x125;" 
 />
    <glyph glyph-name="Hbar" unicode="&#x126;" horiz-adv-x="722" 
 />
    <glyph glyph-name="hbar" unicode="&#x127;" 
 />
    <glyph glyph-name="Itilde" unicode="&#x128;" horiz-adv-x="278" 
 />
    <glyph glyph-name="itilde" unicode="&#x129;" horiz-adv-x="278" 
 />
    <glyph glyph-name="Imacron" unicode="&#x12a;" horiz-adv-x="278" 
 />
    <glyph glyph-name="imacron" unicode="&#x12b;" horiz-adv-x="278" 
 />
    <glyph glyph-name="Ibreve" unicode="&#x12c;" horiz-adv-x="278" 
 />
    <glyph glyph-name="ibreve" unicode="&#x12d;" horiz-adv-x="278" 
 />
    <glyph glyph-name="Iogonek" unicode="&#x12e;" horiz-adv-x="278" 
 />
    <glyph glyph-name="iogonek" unicode="&#x12f;" horiz-adv-x="222" 
 />
    <glyph glyph-name="Idotaccent" unicode="&#x130;" horiz-adv-x="278" 
 />
    <glyph glyph-name="dotlessi" unicode="&#x131;" horiz-adv-x="278" 
 />
    <glyph glyph-name="IJ" unicode="&#x132;" horiz-adv-x="735" 
 />
    <glyph glyph-name="ij" unicode="&#x133;" horiz-adv-x="444" 
 />
    <glyph glyph-name="Jcircumflex" unicode="&#x134;" horiz-adv-x="500" 
 />
    <glyph glyph-name="jcircumflex" unicode="&#x135;" horiz-adv-x="222" 
 />
    <glyph glyph-name="Kcedilla" unicode="&#x136;" horiz-adv-x="667" 
 />
    <glyph glyph-name="kcedilla" unicode="&#x137;" horiz-adv-x="500" 
 />
    <glyph glyph-name="kgreenlandic" unicode="&#x138;" horiz-adv-x="500" 
 />
    <glyph glyph-name="Lacute" unicode="&#x139;" 
 />
    <glyph glyph-name="lacute" unicode="&#x13a;" horiz-adv-x="222" 
 />
    <glyph glyph-name="Lcedilla" unicode="&#x13b;" 
 />
    <glyph glyph-name="lcedilla" unicode="&#x13c;" horiz-adv-x="222" 
 />
    <glyph glyph-name="Lcaron" unicode="&#x13d;" 
 />
    <glyph glyph-name="lcaron" unicode="&#x13e;" horiz-adv-x="292" 
 />
    <glyph glyph-name="Ldot" unicode="&#x13f;" 
 />
    <glyph glyph-name="ldot" unicode="&#x140;" horiz-adv-x="334" 
 />
    <glyph glyph-name="Lslash" unicode="&#x141;" 
 />
    <glyph glyph-name="lslash" unicode="&#x142;" horiz-adv-x="222" 
 />
    <glyph glyph-name="Nacute" unicode="&#x143;" horiz-adv-x="722" 
 />
    <glyph glyph-name="nacute" unicode="&#x144;" 
 />
    <glyph glyph-name="Ncedilla" unicode="&#x145;" horiz-adv-x="722" 
 />
    <glyph glyph-name="ncedilla" unicode="&#x146;" 
 />
    <glyph glyph-name="Ncaron" unicode="&#x147;" horiz-adv-x="722" 
 />
    <glyph glyph-name="ncaron" unicode="&#x148;" 
 />
    <glyph glyph-name="napostrophe" unicode="&#x149;" horiz-adv-x="604" 
 />
    <glyph glyph-name="Eng" unicode="&#x14a;" horiz-adv-x="723" 
 />
    <glyph glyph-name="eng" unicode="&#x14b;" 
 />
    <glyph glyph-name="Omacron" unicode="&#x14c;" horiz-adv-x="778" 
 />
    <glyph glyph-name="omacron" unicode="&#x14d;" 
 />
    <glyph glyph-name="Obreve" unicode="&#x14e;" horiz-adv-x="778" 
 />
    <glyph glyph-name="obreve" unicode="&#x14f;" 
 />
    <glyph glyph-name="Odblacute" unicode="&#x150;" horiz-adv-x="778" 
 />
    <glyph glyph-name="odblacute" unicode="&#x151;" 
 />
    <glyph glyph-name="OE" unicode="&#x152;" horiz-adv-x="1000" 
 />
    <glyph glyph-name="oe" unicode="&#x153;" horiz-adv-x="944" 
 />
    <glyph glyph-name="Racute" unicode="&#x154;" horiz-adv-x="722" 
 />
    <glyph glyph-name="racute" unicode="&#x155;" horiz-adv-x="333" 
 />
    <glyph glyph-name="Rcedilla" unicode="&#x156;" horiz-adv-x="722" 
 />
    <glyph glyph-name="rcedilla" unicode="&#x157;" horiz-adv-x="333" 
 />
    <glyph glyph-name="Rcaron" unicode="&#x158;" horiz-adv-x="722" 
 />
    <glyph glyph-name="rcaron" unicode="&#x159;" horiz-adv-x="333" 
 />
    <glyph glyph-name="Sacute" unicode="&#x15a;" horiz-adv-x="667" 
 />
    <glyph glyph-name="sacute" unicode="&#x15b;" horiz-adv-x="500" 
 />
    <glyph glyph-name="Scircumflex" unicode="&#x15c;" horiz-adv-x="667" 
 />
    <glyph glyph-name="scircumflex" unicode="&#x15d;" horiz-adv-x="500" 
 />
    <glyph glyph-name="Scedilla" unicode="&#x15e;" horiz-adv-x="667" 
 />
    <glyph glyph-name="scedilla" unicode="&#x15f;" horiz-adv-x="500" 
 />
    <glyph glyph-name="Scaron" unicode="&#x160;" horiz-adv-x="667" 
 />
    <glyph glyph-name="scaron" unicode="&#x161;" horiz-adv-x="500" 
 />
    <glyph glyph-name="Tcedilla" unicode="&#x162;" horiz-adv-x="611" 
 />
    <glyph glyph-name="tcedilla" unicode="&#x163;" horiz-adv-x="278" 
 />
    <glyph glyph-name="Tcaron" unicode="&#x164;" horiz-adv-x="611" 
 />
    <glyph glyph-name="tcaron" unicode="&#x165;" horiz-adv-x="375" 
 />
    <glyph glyph-name="Tbar" unicode="&#x166;" horiz-adv-x="611" 
 />
    <glyph glyph-name="tbar" unicode="&#x167;" horiz-adv-x="278" 
 />
    <glyph glyph-name="Utilde" unicode="&#x168;" horiz-adv-x="722" 
 />
    <glyph glyph-name="utilde" unicode="&#x169;" 
 />
    <glyph glyph-name="Umacron" unicode="&#x16a;" horiz-adv-x="722" 
 />
    <glyph glyph-name="umacron" unicode="&#x16b;" 
 />
    <glyph glyph-name="Ubreve" unicode="&#x16c;" horiz-adv-x="722" 
 />
    <glyph glyph-name="ubreve" unicode="&#x16d;" 
 />
    <glyph glyph-name="Uring" unicode="&#x16e;" horiz-adv-x="722" 
 />
    <glyph glyph-name="uring" unicode="&#x16f;" 
 />
    <glyph glyph-name="Udblacute" unicode="&#x170;" horiz-adv-x="722" 
 />
    <glyph glyph-name="udblacute" unicode="&#x171;" 
 />
    <glyph glyph-name="Uogonek" unicode="&#x172;" horiz-adv-x="722" 
 />
    <glyph glyph-name="uogonek" unicode="&#x173;" 
 />
    <glyph glyph-name="Wcircumflex" unicode="&#x174;" horiz-adv-x="944" 
 />
    <glyph glyph-name="wcircumflex" unicode="&#x175;" horiz-adv-x="722" 
 />
    <glyph glyph-name="Ycircumflex" unicode="&#x176;" horiz-adv-x="667" 
 />
    <glyph glyph-name="ycircumflex" unicode="&#x177;" horiz-adv-x="500" 
 />
    <glyph glyph-name="Ydieresis" unicode="&#x178;" horiz-adv-x="667" 
 />
    <glyph glyph-name="Zacute" unicode="&#x179;" horiz-adv-x="611" 
 />
    <glyph glyph-name="zacute" unicode="&#x17a;" horiz-adv-x="500" 
 />
    <glyph glyph-name="Zdot" unicode="&#x17b;" horiz-adv-x="611" 
 />
    <glyph glyph-name="zdot" unicode="&#x17c;" horiz-adv-x="500" 
 />
    <glyph glyph-name="Zcaron" unicode="&#x17d;" horiz-adv-x="611" 
 />
    <glyph glyph-name="zcaron" unicode="&#x17e;" horiz-adv-x="500" 
 />
    <glyph glyph-name="longs" unicode="&#x17f;" horiz-adv-x="222" 
 />
    <glyph glyph-name="florin" unicode="&#x192;" 
 />
    <glyph glyph-name="Aringacute" unicode="&#x1fa;" horiz-adv-x="667" 
 />
    <glyph glyph-name="aringacute" unicode="&#x1fb;" 
 />
    <glyph glyph-name="AEacute" unicode="&#x1fc;" horiz-adv-x="1000" 
 />
    <glyph glyph-name="aeacute" unicode="&#x1fd;" horiz-adv-x="889" 
 />
    <glyph glyph-name="Oslashacute" unicode="&#x1fe;" horiz-adv-x="778" 
 />
    <glyph glyph-name="oslashacute" unicode="&#x1ff;" horiz-adv-x="611" 
 />
    <glyph glyph-name="circumflex" unicode="&#x2c6;" horiz-adv-x="333" 
 />
    <glyph glyph-name="caron" unicode="&#x2c7;" horiz-adv-x="333" 
 />
    <glyph glyph-name="macron" unicode="&#x2c9;" horiz-adv-x="333" 
 />
    <glyph glyph-name="breve" unicode="&#x2d8;" horiz-adv-x="333" 
 />
    <glyph glyph-name="dotaccent" unicode="&#x2d9;" horiz-adv-x="333" 
 />
    <glyph glyph-name="ring" unicode="&#x2da;" horiz-adv-x="333" 
 />
    <glyph glyph-name="ogonek" unicode="&#x2db;" horiz-adv-x="333" 
 />
    <glyph glyph-name="tilde" unicode="&#x2dc;" horiz-adv-x="333" 
 />
    <glyph glyph-name="hungarumlaut" unicode="&#x2dd;" horiz-adv-x="333" 
 />
    <glyph glyph-name="tonos" unicode="&#x384;" horiz-adv-x="333" 
 />
    <glyph glyph-name="dieresistonos" unicode="&#x385;" horiz-adv-x="333" 
 />
    <glyph glyph-name="Alphatonos" unicode="&#x386;" horiz-adv-x="667" 
 />
    <glyph glyph-name="anoteleia" unicode="&#x387;" horiz-adv-x="278" 
 />
    <glyph glyph-name="Epsilontonos" unicode="&#x388;" horiz-adv-x="784" 
 />
    <glyph glyph-name="Etatonos" unicode="&#x389;" horiz-adv-x="838" 
 />
    <glyph glyph-name="Iotatonos" unicode="&#x38a;" horiz-adv-x="384" 
 />
    <glyph glyph-name="Omicrontonos" unicode="&#x38c;" horiz-adv-x="774" 
 />
    <glyph glyph-name="Upsilontonos" unicode="&#x38e;" horiz-adv-x="855" 
 />
    <glyph glyph-name="Omegatonos" unicode="&#x38f;" horiz-adv-x="752" 
 />
    <glyph glyph-name="iotadieresistonos" unicode="&#x390;" horiz-adv-x="222" 
 />
    <glyph glyph-name="Alpha" unicode="&#x391;" horiz-adv-x="667" 
 />
    <glyph glyph-name="Beta" unicode="&#x392;" horiz-adv-x="667" 
 />
    <glyph glyph-name="Gamma" unicode="&#x393;" horiz-adv-x="551" 
 />
    <glyph glyph-name="uni0394" unicode="&#x394;" horiz-adv-x="668" 
 />
    <glyph glyph-name="Epsilon" unicode="&#x395;" horiz-adv-x="667" 
 />
    <glyph glyph-name="Zeta" unicode="&#x396;" horiz-adv-x="611" 
 />
    <glyph glyph-name="Eta" unicode="&#x397;" horiz-adv-x="722" 
 />
    <glyph glyph-name="Theta" unicode="&#x398;" horiz-adv-x="778" 
 />
    <glyph glyph-name="Iota" unicode="&#x399;" horiz-adv-x="278" 
 />
    <glyph glyph-name="Kappa" unicode="&#x39a;" horiz-adv-x="667" 
 />
    <glyph glyph-name="Lambda" unicode="&#x39b;" horiz-adv-x="668" 
 />
    <glyph glyph-name="Mu" unicode="&#x39c;" horiz-adv-x="833" 
 />
    <glyph glyph-name="Nu" unicode="&#x39d;" horiz-adv-x="722" 
 />
    <glyph glyph-name="Xi" unicode="&#x39e;" horiz-adv-x="650" 
 />
    <glyph glyph-name="Omicron" unicode="&#x39f;" horiz-adv-x="778" 
 />
    <glyph glyph-name="Pi" unicode="&#x3a0;" horiz-adv-x="722" 
 />
    <glyph glyph-name="Rho" unicode="&#x3a1;" horiz-adv-x="667" 
 />
    <glyph glyph-name="Sigma" unicode="&#x3a3;" horiz-adv-x="618" 
 />
    <glyph glyph-name="Tau" unicode="&#x3a4;" horiz-adv-x="611" 
 />
    <glyph glyph-name="Upsilon" unicode="&#x3a5;" horiz-adv-x="667" 
 />
    <glyph glyph-name="Phi" unicode="&#x3a6;" horiz-adv-x="798" 
 />
    <glyph glyph-name="Chi" unicode="&#x3a7;" horiz-adv-x="667" 
 />
    <glyph glyph-name="Psi" unicode="&#x3a8;" horiz-adv-x="835" 
 />
    <glyph glyph-name="Omega" unicode="&#x3a9;" horiz-adv-x="748" 
 />
    <glyph glyph-name="Iotadieresis" unicode="&#x3aa;" horiz-adv-x="278" 
 />
    <glyph glyph-name="Upsilondieresis" unicode="&#x3ab;" horiz-adv-x="667" 
 />
    <glyph glyph-name="alphatonos" unicode="&#x3ac;" horiz-adv-x="578" 
 />
    <glyph glyph-name="epsilontonos" unicode="&#x3ad;" horiz-adv-x="446" 
 />
    <glyph glyph-name="etatonos" unicode="&#x3ae;" 
 />
    <glyph glyph-name="iotatonos" unicode="&#x3af;" horiz-adv-x="222" 
 />
    <glyph glyph-name="upsilondieresistonos" unicode="&#x3b0;" horiz-adv-x="547" 
 />
    <glyph glyph-name="alpha" unicode="&#x3b1;" horiz-adv-x="578" 
 />
    <glyph glyph-name="beta" unicode="&#x3b2;" horiz-adv-x="575" 
 />
    <glyph glyph-name="gamma" unicode="&#x3b3;" horiz-adv-x="500" 
 />
    <glyph glyph-name="delta" unicode="&#x3b4;" horiz-adv-x="557" 
 />
    <glyph glyph-name="epsilon" unicode="&#x3b5;" horiz-adv-x="446" 
 />
    <glyph glyph-name="zeta" unicode="&#x3b6;" horiz-adv-x="441" 
 />
    <glyph glyph-name="eta" unicode="&#x3b7;" 
 />
    <glyph glyph-name="theta" unicode="&#x3b8;" 
 />
    <glyph glyph-name="iota" unicode="&#x3b9;" horiz-adv-x="222" 
 />
    <glyph glyph-name="kappa" unicode="&#x3ba;" horiz-adv-x="500" 
 />
    <glyph glyph-name="lambda" unicode="&#x3bb;" horiz-adv-x="500" 
 />
    <glyph glyph-name="mu" unicode="&#x3bc;" horiz-adv-x="576" 
 />
    <glyph glyph-name="nu" unicode="&#x3bd;" horiz-adv-x="500" 
 />
    <glyph glyph-name="xi" unicode="&#x3be;" horiz-adv-x="448" 
 />
    <glyph glyph-name="omicron" unicode="&#x3bf;" 
 />
    <glyph glyph-name="pi" unicode="&#x3c0;" horiz-adv-x="690" 
 />
    <glyph glyph-name="rho" unicode="&#x3c1;" horiz-adv-x="569" 
 />
    <glyph glyph-name="sigma1" unicode="&#x3c2;" horiz-adv-x="482" 
 />
    <glyph glyph-name="sigma" unicode="&#x3c3;" horiz-adv-x="617" 
 />
    <glyph glyph-name="tau" unicode="&#x3c4;" horiz-adv-x="395" 
 />
    <glyph glyph-name="upsilon" unicode="&#x3c5;" horiz-adv-x="547" 
 />
    <glyph glyph-name="phi" unicode="&#x3c6;" horiz-adv-x="648" 
 />
    <glyph glyph-name="chi" unicode="&#x3c7;" horiz-adv-x="525" 
 />
    <glyph glyph-name="psi" unicode="&#x3c8;" horiz-adv-x="713" 
 />
    <glyph glyph-name="omega" unicode="&#x3c9;" horiz-adv-x="781" 
 />
    <glyph glyph-name="iotadieresis" unicode="&#x3ca;" horiz-adv-x="222" 
 />
    <glyph glyph-name="upsilondieresis" unicode="&#x3cb;" horiz-adv-x="547" 
 />
    <glyph glyph-name="omicrontonos" unicode="&#x3cc;" 
 />
    <glyph glyph-name="upsilontonos" unicode="&#x3cd;" horiz-adv-x="547" 
 />
    <glyph glyph-name="omegatonos" unicode="&#x3ce;" horiz-adv-x="781" 
 />
    <glyph glyph-name="afii10023" unicode="&#x401;" horiz-adv-x="667" 
 />
    <glyph glyph-name="afii10051" unicode="&#x402;" horiz-adv-x="865" 
 />
    <glyph glyph-name="afii10052" unicode="&#x403;" horiz-adv-x="542" 
 />
    <glyph glyph-name="afii10053" unicode="&#x404;" horiz-adv-x="719" 
 />
    <glyph glyph-name="afii10054" unicode="&#x405;" horiz-adv-x="667" 
 />
    <glyph glyph-name="afii10055" unicode="&#x406;" horiz-adv-x="278" 
 />
    <glyph glyph-name="afii10056" unicode="&#x407;" horiz-adv-x="278" 
 />
    <glyph glyph-name="afii10057" unicode="&#x408;" horiz-adv-x="500" 
 />
    <glyph glyph-name="afii10058" unicode="&#x409;" horiz-adv-x="1057" 
 />
    <glyph glyph-name="afii10059" unicode="&#x40a;" horiz-adv-x="1010" 
 />
    <glyph glyph-name="afii10060" unicode="&#x40b;" horiz-adv-x="854" 
 />
    <glyph glyph-name="afii10061" unicode="&#x40c;" horiz-adv-x="583" 
 />
    <glyph glyph-name="afii10062" unicode="&#x40e;" horiz-adv-x="635" 
 />
    <glyph glyph-name="afii10145" unicode="&#x40f;" horiz-adv-x="719" 
 />
    <glyph glyph-name="afii10017" unicode="&#x410;" horiz-adv-x="667" 
 />
    <glyph glyph-name="afii10018" unicode="&#x411;" horiz-adv-x="656" 
 />
    <glyph glyph-name="afii10019" unicode="&#x412;" horiz-adv-x="667" 
 />
    <glyph glyph-name="afii10020" unicode="&#x413;" horiz-adv-x="542" 
 />
    <glyph glyph-name="afii10021" unicode="&#x414;" horiz-adv-x="677" 
 />
    <glyph glyph-name="afii10022" unicode="&#x415;" horiz-adv-x="667" 
 />
    <glyph glyph-name="afii10024" unicode="&#x416;" horiz-adv-x="923" 
 />
    <glyph glyph-name="afii10025" unicode="&#x417;" horiz-adv-x="604" 
 />
    <glyph glyph-name="afii10026" unicode="&#x418;" horiz-adv-x="719" 
 />
    <glyph glyph-name="afii10027" unicode="&#x419;" horiz-adv-x="719" 
 />
    <glyph glyph-name="afii10028" unicode="&#x41a;" horiz-adv-x="583" 
 />
    <glyph glyph-name="afii10029" unicode="&#x41b;" horiz-adv-x="656" 
 />
    <glyph glyph-name="afii10030" unicode="&#x41c;" horiz-adv-x="833" 
 />
    <glyph glyph-name="afii10031" unicode="&#x41d;" horiz-adv-x="722" 
 />
    <glyph glyph-name="afii10032" unicode="&#x41e;" horiz-adv-x="778" 
 />
    <glyph glyph-name="afii10033" unicode="&#x41f;" horiz-adv-x="719" 
 />
    <glyph glyph-name="afii10034" unicode="&#x420;" horiz-adv-x="667" 
 />
    <glyph glyph-name="afii10035" unicode="&#x421;" horiz-adv-x="722" 
 />
    <glyph glyph-name="afii10036" unicode="&#x422;" horiz-adv-x="611" 
 />
    <glyph glyph-name="afii10037" unicode="&#x423;" horiz-adv-x="635" 
 />
    <glyph glyph-name="afii10038" unicode="&#x424;" horiz-adv-x="760" 
 />
    <glyph glyph-name="afii10039" unicode="&#x425;" horiz-adv-x="667" 
 />
    <glyph glyph-name="afii10040" unicode="&#x426;" horiz-adv-x="740" 
 />
    <glyph glyph-name="afii10041" unicode="&#x427;" horiz-adv-x="667" 
 />
    <glyph glyph-name="afii10042" unicode="&#x428;" horiz-adv-x="917" 
 />
    <glyph glyph-name="afii10043" unicode="&#x429;" horiz-adv-x="937" 
 />
    <glyph glyph-name="afii10044" unicode="&#x42a;" horiz-adv-x="792" 
 />
    <glyph glyph-name="afii10045" unicode="&#x42b;" horiz-adv-x="885" 
 />
    <glyph glyph-name="afii10046" unicode="&#x42c;" horiz-adv-x="656" 
 />
    <glyph glyph-name="afii10047" unicode="&#x42d;" horiz-adv-x="719" 
 />
    <glyph glyph-name="afii10048" unicode="&#x42e;" horiz-adv-x="1010" 
 />
    <glyph glyph-name="afii10049" unicode="&#x42f;" horiz-adv-x="722" 
 />
    <glyph glyph-name="afii10065" unicode="&#x430;" 
 />
    <glyph glyph-name="afii10066" unicode="&#x431;" horiz-adv-x="573" 
 />
    <glyph glyph-name="afii10067" unicode="&#x432;" horiz-adv-x="531" 
 />
    <glyph glyph-name="afii10068" unicode="&#x433;" horiz-adv-x="365" 
 />
    <glyph glyph-name="afii10069" unicode="&#x434;" horiz-adv-x="583" 
 />
    <glyph glyph-name="afii10070" unicode="&#x435;" 
 />
    <glyph glyph-name="afii10072" unicode="&#x436;" horiz-adv-x="669" 
 />
    <glyph glyph-name="afii10073" unicode="&#x437;" horiz-adv-x="458" 
 />
    <glyph glyph-name="afii10074" unicode="&#x438;" horiz-adv-x="559" 
 />
    <glyph glyph-name="afii10075" unicode="&#x439;" horiz-adv-x="559" 
 />
    <glyph glyph-name="afii10076" unicode="&#x43a;" horiz-adv-x="437" 
 />
    <glyph glyph-name="afii10077" unicode="&#x43b;" horiz-adv-x="583" 
 />
    <glyph glyph-name="afii10078" unicode="&#x43c;" horiz-adv-x="687" 
 />
    <glyph glyph-name="afii10079" unicode="&#x43d;" horiz-adv-x="552" 
 />
    <glyph glyph-name="afii10080" unicode="&#x43e;" 
 />
    <glyph glyph-name="afii10081" unicode="&#x43f;" horiz-adv-x="542" 
 />
    <glyph glyph-name="afii10082" unicode="&#x440;" 
 />
    <glyph glyph-name="afii10083" unicode="&#x441;" horiz-adv-x="500" 
 />
    <glyph glyph-name="afii10084" unicode="&#x442;" horiz-adv-x="458" 
 />
    <glyph glyph-name="afii10085" unicode="&#x443;" horiz-adv-x="500" 
 />
    <glyph glyph-name="afii10086" unicode="&#x444;" horiz-adv-x="823" 
 />
    <glyph glyph-name="afii10087" unicode="&#x445;" horiz-adv-x="500" 
 />
    <glyph glyph-name="afii10088" unicode="&#x446;" horiz-adv-x="573" 
 />
    <glyph glyph-name="afii10089" unicode="&#x447;" horiz-adv-x="521" 
 />
    <glyph glyph-name="afii10090" unicode="&#x448;" horiz-adv-x="802" 
 />
    <glyph glyph-name="afii10091" unicode="&#x449;" horiz-adv-x="823" 
 />
    <glyph glyph-name="afii10092" unicode="&#x44a;" horiz-adv-x="625" 
 />
    <glyph glyph-name="afii10093" unicode="&#x44b;" horiz-adv-x="719" 
 />
    <glyph glyph-name="afii10094" unicode="&#x44c;" horiz-adv-x="521" 
 />
    <glyph glyph-name="afii10095" unicode="&#x44d;" horiz-adv-x="510" 
 />
    <glyph glyph-name="afii10096" unicode="&#x44e;" horiz-adv-x="750" 
 />
    <glyph glyph-name="afii10097" unicode="&#x44f;" horiz-adv-x="542" 
 />
    <glyph glyph-name="afii10071" unicode="&#x451;" 
 />
    <glyph glyph-name="afii10099" unicode="&#x452;" 
 />
    <glyph glyph-name="afii10100" unicode="&#x453;" horiz-adv-x="365" 
 />
    <glyph glyph-name="afii10101" unicode="&#x454;" horiz-adv-x="510" 
 />
    <glyph glyph-name="afii10102" unicode="&#x455;" horiz-adv-x="500" 
 />
    <glyph glyph-name="afii10103" unicode="&#x456;" horiz-adv-x="222" 
 />
    <glyph glyph-name="afii10104" unicode="&#x457;" horiz-adv-x="278" 
 />
    <glyph glyph-name="afii10105" unicode="&#x458;" horiz-adv-x="222" 
 />
    <glyph glyph-name="afii10106" unicode="&#x459;" horiz-adv-x="906" 
 />
    <glyph glyph-name="afii10107" unicode="&#x45a;" horiz-adv-x="812" 
 />
    <glyph glyph-name="afii10108" unicode="&#x45b;" 
 />
    <glyph glyph-name="afii10109" unicode="&#x45c;" horiz-adv-x="437" 
 />
    <glyph glyph-name="afii10110" unicode="&#x45e;" horiz-adv-x="500" 
 />
    <glyph glyph-name="afii10193" unicode="&#x45f;" horiz-adv-x="552" 
 />
    <glyph glyph-name="afii10050" unicode="&#x490;" horiz-adv-x="489" 
 />
    <glyph glyph-name="afii10098" unicode="&#x491;" horiz-adv-x="411" 
 />
    <glyph glyph-name="Wgrave" unicode="&#x1e80;" horiz-adv-x="944" 
 />
    <glyph glyph-name="wgrave" unicode="&#x1e81;" horiz-adv-x="722" 
 />
    <glyph glyph-name="Wacute" unicode="&#x1e82;" horiz-adv-x="944" 
 />
    <glyph glyph-name="wacute" unicode="&#x1e83;" horiz-adv-x="722" 
 />
    <glyph glyph-name="Wdieresis" unicode="&#x1e84;" horiz-adv-x="944" 
 />
    <glyph glyph-name="wdieresis" unicode="&#x1e85;" horiz-adv-x="722" 
 />
    <glyph glyph-name="Ygrave" unicode="&#x1ef2;" horiz-adv-x="667" 
 />
    <glyph glyph-name="ygrave" unicode="&#x1ef3;" horiz-adv-x="500" 
 />
    <glyph glyph-name="endash" unicode="&#x2013;" 
 />
    <glyph glyph-name="emdash" unicode="&#x2014;" horiz-adv-x="1000" 
 />
    <glyph glyph-name="afii00208" unicode="&#x2015;" horiz-adv-x="1000" 
 />
    <glyph glyph-name="underscoredbl" unicode="&#x2017;" horiz-adv-x="552" 
 />
    <glyph glyph-name="quoteleft" unicode="&#x2018;" horiz-adv-x="222" 
 />
    <glyph glyph-name="quoteright" unicode="&#x2019;" horiz-adv-x="222" 
 />
    <glyph glyph-name="quotesinglbase" unicode="&#x201a;" horiz-adv-x="222" 
 />
    <glyph glyph-name="quotereversed" unicode="&#x201b;" horiz-adv-x="222" 
 />
    <glyph glyph-name="quotedblleft" unicode="&#x201c;" horiz-adv-x="333" 
 />
    <glyph glyph-name="quotedblright" unicode="&#x201d;" horiz-adv-x="333" 
 />
    <glyph glyph-name="quotedblbase" unicode="&#x201e;" horiz-adv-x="333" 
 />
    <glyph glyph-name="dagger" unicode="&#x2020;" 
 />
    <glyph glyph-name="daggerdbl" unicode="&#x2021;" 
 />
    <glyph glyph-name="bullet" unicode="&#x2022;" horiz-adv-x="350" 
 />
    <glyph glyph-name="ellipsis" unicode="&#x2026;" horiz-adv-x="1000" 
 />
    <glyph glyph-name="perthousand" unicode="&#x2030;" horiz-adv-x="1000" 
 />
    <glyph glyph-name="minute" unicode="&#x2032;" horiz-adv-x="187" 
 />
    <glyph glyph-name="second" unicode="&#x2033;" horiz-adv-x="354" 
 />
    <glyph glyph-name="guilsinglleft" unicode="&#x2039;" horiz-adv-x="333" 
 />
    <glyph glyph-name="guilsinglright" unicode="&#x203a;" horiz-adv-x="333" 
 />
    <glyph glyph-name="exclamdbl" unicode="&#x203c;" horiz-adv-x="500" 
 />
    <glyph glyph-name="radicalex" unicode="&#x203e;" horiz-adv-x="333" 
 />
    <glyph glyph-name="fraction" unicode="&#x2044;" horiz-adv-x="167" 
 />
    <glyph glyph-name="fraction" unicode="&#x2215;" horiz-adv-x="167" 
 />
    <glyph glyph-name="nsuperior" unicode="&#x207f;" horiz-adv-x="365" 
 />
    <glyph glyph-name="franc" unicode="&#x20a3;" 
 />
    <glyph glyph-name="afii08941" unicode="&#x20a4;" 
 />
    <glyph glyph-name="peseta" unicode="&#x20a7;" horiz-adv-x="1094" 
 />
    <glyph glyph-name="Euro" unicode="&#x20ac;" 
 />
    <glyph glyph-name="afii61248" unicode="&#x2105;" horiz-adv-x="885" 
 />
    <glyph glyph-name="afii61289" unicode="&#x2113;" horiz-adv-x="323" 
 />
    <glyph glyph-name="afii61352" unicode="&#x2116;" horiz-adv-x="1073" 
 />
    <glyph glyph-name="trademark" unicode="&#x2122;" horiz-adv-x="1000" 
 />
    <glyph glyph-name="Ohm" unicode="&#x2126;" horiz-adv-x="768" 
 />
    <glyph glyph-name="estimated" unicode="&#x212e;" horiz-adv-x="600" 
 />
    <glyph glyph-name="oneeighth" unicode="&#x215b;" horiz-adv-x="834" 
 />
    <glyph glyph-name="threeeighths" unicode="&#x215c;" horiz-adv-x="834" 
 />
    <glyph glyph-name="fiveeighths" unicode="&#x215d;" horiz-adv-x="834" 
 />
    <glyph glyph-name="seveneighths" unicode="&#x215e;" horiz-adv-x="834" 
 />
    <glyph glyph-name="arrowleft" unicode="&#x2190;" horiz-adv-x="1000" 
 />
    <glyph glyph-name="arrowup" unicode="&#x2191;" horiz-adv-x="500" 
 />
    <glyph glyph-name="arrowright" unicode="&#x2192;" horiz-adv-x="1000" 
 />
    <glyph glyph-name="arrowdown" unicode="&#x2193;" horiz-adv-x="500" 
 />
    <glyph glyph-name="arrowboth" unicode="&#x2194;" horiz-adv-x="1000" 
 />
    <glyph glyph-name="arrowupdn" unicode="&#x2195;" horiz-adv-x="500" 
 />
    <glyph glyph-name="arrowupdnbse" unicode="&#x21a8;" horiz-adv-x="500" 
 />
    <glyph glyph-name="partialdiff" unicode="&#x2202;" horiz-adv-x="494" 
 />
    <glyph glyph-name="Delta" unicode="&#x2206;" horiz-adv-x="612" 
 />
    <glyph glyph-name="product" unicode="&#x220f;" horiz-adv-x="823" 
 />
    <glyph glyph-name="summation" unicode="&#x2211;" horiz-adv-x="713" 
 />
    <glyph glyph-name="minus" unicode="&#x2212;" horiz-adv-x="584" 
 />
    <glyph glyph-name="radical" unicode="&#x221a;" horiz-adv-x="549" 
 />
    <glyph glyph-name="infinity" unicode="&#x221e;" horiz-adv-x="713" 
 />
    <glyph glyph-name="orthogonal" unicode="&#x221f;" horiz-adv-x="979" 
 />
    <glyph glyph-name="intersection" unicode="&#x2229;" horiz-adv-x="719" 
 />
    <glyph glyph-name="integral" unicode="&#x222b;" horiz-adv-x="274" 
 />
    <glyph glyph-name="approxequal" unicode="&#x2248;" horiz-adv-x="549" 
 />
    <glyph glyph-name="notequal" unicode="&#x2260;" horiz-adv-x="549" 
 />
    <glyph glyph-name="equivalence" unicode="&#x2261;" horiz-adv-x="583" 
 />
    <glyph glyph-name="lessequal" unicode="&#x2264;" horiz-adv-x="549" 
 />
    <glyph glyph-name="greaterequal" unicode="&#x2265;" horiz-adv-x="549" 
 />
    <glyph glyph-name="house" unicode="&#x2302;" horiz-adv-x="604" 
 />
    <glyph glyph-name="revlogicalnot" unicode="&#x2310;" horiz-adv-x="584" 
 />
    <glyph glyph-name="integraltp" unicode="&#x2320;" horiz-adv-x="604" 
 />
    <glyph glyph-name="integralbt" unicode="&#x2321;" horiz-adv-x="604" 
 />
    <glyph glyph-name="SF100000" unicode="&#x2500;" horiz-adv-x="708" 
 />
    <glyph glyph-name="SF110000" unicode="&#x2502;" horiz-adv-x="625" 
 />
    <glyph glyph-name="SF010000" unicode="&#x250c;" horiz-adv-x="708" 
 />
    <glyph glyph-name="SF030000" unicode="&#x2510;" horiz-adv-x="708" 
 />
    <glyph glyph-name="SF020000" unicode="&#x2514;" horiz-adv-x="708" 
 />
    <glyph glyph-name="SF040000" unicode="&#x2518;" horiz-adv-x="708" 
 />
    <glyph glyph-name="SF080000" unicode="&#x251c;" horiz-adv-x="708" 
 />
    <glyph glyph-name="SF090000" unicode="&#x2524;" horiz-adv-x="708" 
 />
    <glyph glyph-name="SF060000" unicode="&#x252c;" horiz-adv-x="708" 
 />
    <glyph glyph-name="SF070000" unicode="&#x2534;" horiz-adv-x="708" 
 />
    <glyph glyph-name="SF050000" unicode="&#x253c;" horiz-adv-x="708" 
 />
    <glyph glyph-name="SF430000" unicode="&#x2550;" horiz-adv-x="708" 
 />
    <glyph glyph-name="SF240000" unicode="&#x2551;" horiz-adv-x="708" 
 />
    <glyph glyph-name="SF510000" unicode="&#x2552;" horiz-adv-x="708" 
 />
    <glyph glyph-name="SF520000" unicode="&#x2553;" horiz-adv-x="708" 
 />
    <glyph glyph-name="SF390000" unicode="&#x2554;" horiz-adv-x="708" 
 />
    <glyph glyph-name="SF220000" unicode="&#x2555;" horiz-adv-x="708" 
 />
    <glyph glyph-name="SF210000" unicode="&#x2556;" horiz-adv-x="708" 
 />
    <glyph glyph-name="SF250000" unicode="&#x2557;" horiz-adv-x="708" 
 />
    <glyph glyph-name="SF500000" unicode="&#x2558;" horiz-adv-x="708" 
 />
    <glyph glyph-name="SF490000" unicode="&#x2559;" horiz-adv-x="708" 
 />
    <glyph glyph-name="SF380000" unicode="&#x255a;" horiz-adv-x="708" 
 />
    <glyph glyph-name="SF280000" unicode="&#x255b;" horiz-adv-x="708" 
 />
    <glyph glyph-name="SF270000" unicode="&#x255c;" horiz-adv-x="708" 
 />
    <glyph glyph-name="SF260000" unicode="&#x255d;" horiz-adv-x="708" 
 />
    <glyph glyph-name="SF360000" unicode="&#x255e;" horiz-adv-x="708" 
 />
    <glyph glyph-name="SF370000" unicode="&#x255f;" horiz-adv-x="708" 
 />
    <glyph glyph-name="SF420000" unicode="&#x2560;" horiz-adv-x="708" 
 />
    <glyph glyph-name="SF190000" unicode="&#x2561;" horiz-adv-x="708" 
 />
    <glyph glyph-name="SF200000" unicode="&#x2562;" horiz-adv-x="708" 
 />
    <glyph glyph-name="SF230000" unicode="&#x2563;" horiz-adv-x="708" 
 />
    <glyph glyph-name="SF470000" unicode="&#x2564;" horiz-adv-x="708" 
 />
    <glyph glyph-name="SF480000" unicode="&#x2565;" horiz-adv-x="708" 
 />
    <glyph glyph-name="SF410000" unicode="&#x2566;" horiz-adv-x="708" 
 />
    <glyph glyph-name="SF450000" unicode="&#x2567;" horiz-adv-x="708" 
 />
    <glyph glyph-name="SF460000" unicode="&#x2568;" horiz-adv-x="708" 
 />
    <glyph glyph-name="SF400000" unicode="&#x2569;" horiz-adv-x="708" 
 />
    <glyph glyph-name="SF540000" unicode="&#x256a;" horiz-adv-x="708" 
 />
    <glyph glyph-name="SF530000" unicode="&#x256b;" horiz-adv-x="708" 
 />
    <glyph glyph-name="SF440000" unicode="&#x256c;" horiz-adv-x="708" 
 />
    <glyph glyph-name="upblock" unicode="&#x2580;" horiz-adv-x="708" 
 />
    <glyph glyph-name="dnblock" unicode="&#x2584;" horiz-adv-x="708" 
 />
    <glyph glyph-name="block" unicode="&#x2588;" horiz-adv-x="708" 
 />
    <glyph glyph-name="lfblock" unicode="&#x258c;" horiz-adv-x="708" 
 />
    <glyph glyph-name="rtblock" unicode="&#x2590;" horiz-adv-x="708" 
 />
    <glyph glyph-name="ltshade" unicode="&#x2591;" horiz-adv-x="708" 
 />
    <glyph glyph-name="shade" unicode="&#x2592;" horiz-adv-x="708" 
 />
    <glyph glyph-name="dkshade" unicode="&#x2593;" horiz-adv-x="729" 
 />
    <glyph glyph-name="filledbox" unicode="&#x25a0;" horiz-adv-x="604" 
 />
    <glyph glyph-name="H22073" unicode="&#x25a1;" horiz-adv-x="604" 
 />
    <glyph glyph-name="H18543" unicode="&#x25aa;" horiz-adv-x="354" 
 />
    <glyph glyph-name="H18551" unicode="&#x25ab;" horiz-adv-x="354" 
 />
    <glyph glyph-name="filledrect" unicode="&#x25ac;" horiz-adv-x="1000" 
 />
    <glyph glyph-name="triagup" unicode="&#x25b2;" horiz-adv-x="990" 
 />
    <glyph glyph-name="triagrt" unicode="&#x25ba;" horiz-adv-x="990" 
 />
    <glyph glyph-name="triagdn" unicode="&#x25bc;" horiz-adv-x="990" 
 />
    <glyph glyph-name="triaglf" unicode="&#x25c4;" horiz-adv-x="990" 
 />
    <glyph glyph-name="lozenge" unicode="&#x25ca;" horiz-adv-x="494" 
 />
    <glyph glyph-name="circle" unicode="&#x25cb;" horiz-adv-x="604" 
 />
    <glyph glyph-name="H18533" unicode="&#x25cf;" horiz-adv-x="604" 
 />
    <glyph glyph-name="invbullet" unicode="&#x25d8;" horiz-adv-x="604" 
 />
    <glyph glyph-name="invcircle" unicode="&#x25d9;" horiz-adv-x="604" 
 />
    <glyph glyph-name="openbullet" unicode="&#x25e6;" horiz-adv-x="354" 
 />
    <glyph glyph-name="smileface" unicode="&#x263a;" horiz-adv-x="1021" 
 />
    <glyph glyph-name="invsmileface" unicode="&#x263b;" horiz-adv-x="1052" 
 />
    <glyph glyph-name="sun" unicode="&#x263c;" horiz-adv-x="917" 
 />
    <glyph glyph-name="female" unicode="&#x2640;" horiz-adv-x="750" 
 />
    <glyph glyph-name="male" unicode="&#x2642;" horiz-adv-x="750" 
 />
    <glyph glyph-name="spade" unicode="&#x2660;" horiz-adv-x="531" 
 />
    <glyph glyph-name="club" unicode="&#x2663;" horiz-adv-x="656" 
 />
    <glyph glyph-name="heart" unicode="&#x2665;" horiz-adv-x="594" 
 />
    <glyph glyph-name="diamond" unicode="&#x2666;" horiz-adv-x="510" 
 />
    <glyph glyph-name="musicalnote" unicode="&#x266a;" horiz-adv-x="500" 
 />
    <glyph glyph-name="musicalnotedbl" unicode="&#x266b;" horiz-adv-x="750" 
 />
    <glyph glyph-name="fi" unicode="&#xf001;" horiz-adv-x="500" 
 />
    <glyph glyph-name="fi" unicode="&#xfb01;" horiz-adv-x="500" 
 />
    <glyph glyph-name="fl" unicode="&#xf002;" horiz-adv-x="500" 
 />
    <glyph glyph-name="fl" unicode="&#xfb02;" horiz-adv-x="500" 
 />
    <glyph glyph-name="commaaccent" unicode="&#xf004;" horiz-adv-x="333" 
 />
    <glyph glyph-name="undercommaaccent" unicode="&#xf005;" horiz-adv-x="333" 
 />
    <glyph glyph-name="pi1" horiz-adv-x="549" 
 />
    <glyph glyph-name="periodcentered" horiz-adv-x="333" 
 />
  </font>
</defs>
</svg>
