<?xml version="1.0" standalone="no"?>
<!DOCTYPE svg PUBLIC "-//W3C//DTD SVG 1.1//EN" "http://www.w3.org/Graphics/SVG/1.1/DTD/svg11.dtd" >
<svg xmlns="http://www.w3.org/2000/svg" xmlns:xlink="http://www.w3.org/1999/xlink" version="1.1">
<metadata>
Created by FontForge 20170731 at Thu Aug  5 15:03:59 2010
 By Aleksey,,,
2010 Iconian Fonts - www.iconian.com
</metadata>
<defs>
<font id="AegisLeftalic" horiz-adv-x="1022" >
  <font-face 
    font-family="Aegis Leftalic"
    font-weight="400"
    font-style="italic"
    font-stretch="normal"
    units-per-em="1000"
    panose-1="0 0 0 0 0 0 0 0 0 0"
    ascent="800"
    descent="-200"
    x-height="800"
    cap-height="809"
    bbox="-153.333 -290 2232 1082"
    underline-thickness="50"
    underline-position="-175"
    slope="-12"
    unicode-range="U+0020-2122"
  />
<missing-glyph horiz-adv-x="500" 
 />
    <glyph glyph-name=".notdef" horiz-adv-x="500" 
 />
    <glyph glyph-name=".null" horiz-adv-x="0" 
 />
    <glyph glyph-name="nonmarkingreturn" horiz-adv-x="500" 
 />
    <glyph glyph-name="space" unicode=" " horiz-adv-x="500" 
 />
    <glyph glyph-name="space" unicode="&#xa0;" horiz-adv-x="500" 
 />
    <glyph glyph-name="FL0021h" unicode="!" horiz-adv-x="248" 
d="M-106 800l94 -542q1 -8 14.5 -9.5t33 0t42 6.5t41 10.5t31 11t12.5 9.5l-94 525h-14q-10 0 -21 -0.5t-21 -0.5h-14zM179 160l-151 -1q-2 0 -5.5 -4t-3.5 -6q-4 -8 -4.5 -22t0.5 -29.5t3 -31t4 -26.5l4 -16l3 -21q30 0 52 -0.5t41 -0.5t37 0.5t41 2.5q8 20 6 48.5t-7 54.5
l-6 32q-2 5 -4 12.5t-10 7.5z" />
    <glyph glyph-name="FL0022h" unicode="&#x22;" horiz-adv-x="460" 
d="M50 810q8 0 11 -7.5l5 -12.5l4 -32q3 -13 7 -41t7 -58.5t4.5 -56.5t-1.5 -36q-23 -2 -35.5 -6.5t-31.5 -4.5t-35.5 2t-46.5 2l-6 21l-2 16q-1 9 -5.5 28.5t-10 43.5t-11.5 49t-9 45q-4 14 -4 23q0 10 2 14q0 2 2.5 6t4.5 4zM273 809q8 0 11.5 -7.5t4.5 -12.5l4 -32
q3 -13 7 -41t7.5 -58.5t4.5 -56.5t-2 -36q-23 -2 -35.5 -6.5t-31.5 -4.5t-36.5 2t-47.5 2l-3 21l-2 16q-2 9 -6.5 28.5t-10 43.5t-11.5 49t-9 45q-6 28 -2 37q0 2 3 6t5 4z" />
    <glyph glyph-name="E" unicode="#" horiz-adv-x="795" 
d="M-96 710q18 -4 36.5 -8.5t34.5 -13t27.5 -22.5t15.5 -36l114 -634h44q36 0 85.5 0.5t99 1.5t91 1.5t59.5 0.5q15 0 39.5 2.5t52 8.5t54 16t47 24t32 32.5t6.5 42.5q-11 0 -35 0.5t-55 0.5q-30 0 -62 1t-63 1q-30 0 -53.5 0.5t-34.5 0.5q-3 0 -13 1t-22 2.5t-22.5 3.5
t-15.5 3t-13.5 4.5t-8.5 5.5l-36 200l224 30q2 0 10 4t10 6q5 5 13.5 15t16 20t13.5 17.5l6 7.5l-6 30h-310l-38 210l7 10q2 1 20.5 3.5t43.5 5.5t50.5 6l42.5 5h6q6 0 13 0.5t13 0.5h10q6 0 17 -0.5l11 -0.5l119 -100l15 20l-30 171q-77 0 -149.5 -2.5t-144.5 -5t-147 -4
t-156 0.5q-4 -3 -14.5 -10t-22 -15t-22 -15t-13.5 -10q-10 -8 -13.5 -13.5t-2.5 -16.5q1 -2 2.5 -5.5t1.5 -4.5z" />
    <glyph glyph-name="FL0024h" unicode="$" horiz-adv-x="796" 
d="M274 826l-85 -3l20 -115h-91q-32 -3 -67 -10t-63 -21.5t-44 -37.5t-10 -57q6 -29 20.5 -54t35.5 -46t47 -37t55 -26l172 -43l34 -193q-22 1 -44.5 1.5t-47.5 0.5q-11 0 -64 10t-153 36l23 -131q-1 -1 10.5 -3.5t17.5 -3.5q27 -4 61.5 -7t71.5 -4.5t74 -2.5t69 -1l20 -115
q10 0 35 2.5t50.5 7t45 9.5t19.5 11l-17 90q50 5 98.5 16.5t84.5 34t55 57.5t10 86q-8 40 -30 65t-53.5 40.5t-70 24t-78.5 14.5q-14 5 -32 8.5t-40 8.5q-1 0 -2 0.5t-2 0.5l-36 207q42 -5 85.5 -16.5t74.5 -30.5h3q10 0 18.5 7.5t16.5 19t17 25.5t20 26l-15 24
q1 0 -11.5 1.5t-30 2.5t-36 2t-30.5 1h-24h-97l-21 119h-13h-42zM164 545q-6 36 8.5 62t46.5 38l30 -177q-32 8 -55 23t-30 54zM504 258q8 -42 -5.5 -58t-45.5 -20l-28 162q31 -8 51.5 -27t27.5 -57z" />
    <glyph glyph-name="FL0025h" unicode="%" horiz-adv-x="1091" 
d="M603 792q8 -4 18 -8.5t19 -8.5l11 -6l-210 -813q-1 -5 -21 -0.5t-45.5 13.5t-50 18t-33.5 13l215 823l83 -25zM-71 557q-10 58 3.5 98.5t44.5 66t76.5 36.5t99.5 11q44 0 85.5 -11t76 -33.5t58.5 -57.5t32 -83q11 -59 0.5 -102t-39 -72t-73 -43t-101.5 -14
q-49 0 -92.5 12t-78 37t-58.5 63.5t-34 91.5zM74 579q4 -24 12 -53t22 -54t35.5 -42t52.5 -17q30 0 45 14.5t20 37t3 49.5t-6 53q-5 27 -12.5 54t-20 48t-33 34.5t-52.5 13.5q-31 0 -47 -11.5t-21.5 -30.5t-4 -44t6.5 -52zM542 207q-10 58 3.5 98.5t45 66t77 36.5t99.5 11
q44 0 85.5 -11t76 -33.5t58.5 -57.5t32 -83q11 -59 0 -102t-39.5 -72t-73 -43t-101.5 -14q-49 0 -92.5 12t-78 37t-58.5 63.5t-34 91.5zM687 224q4 -24 12.5 -53.5t23 -54.5t36 -42t53.5 -17q31 0 47 14.5t21 37t2.5 49.5t-7.5 53q-5 28 -11.5 55t-19 48.5t-34 35
t-54.5 13.5q-32 0 -48.5 -11.5t-23 -30.5t-4.5 -44.5t7 -52.5z" />
    <glyph glyph-name="FL0026h" unicode="&#x26;" horiz-adv-x="897" 
d="M-52 470q4 -19 7 -47.5t11.5 -61.5t23.5 -69.5t43 -72t70.5 -68.5t105.5 -60q10 -7 34 -15t54.5 -16t64 -16.5t64 -15.5t54.5 -13.5t34 -11.5h17h27h30h27q23 0 45 2t33 8q8 3 10.5 6.5t0.5 11.5q-5 20 -14.5 65t-21 99.5t-22.5 110.5t-20 98h45l12 -2t27 -4t27.5 -3
t14.5 0l32 19q8 4 5 14q-1 7 -4 15.5t-6.5 16t-6.5 13.5l-4 8q-1 5 -2 6.5t-3 4t-7 8.5t-15 20q-3 3 -6.5 8.5t-4.5 5.5l-139 1q-8 26 -13 51t-9 48q-6 26 -9.5 55.5t9.5 53.5v67q-29 0 -53.5 1t-45.5 -0.5t-40.5 -6.5t-38.5 -17q-7 -5 -14 -12t-12.5 -14t-9 -11.5
t-2.5 -4.5l-6 -25l33 -186h-12l-269 23q-19 8 -45 8q-44 0 -68.5 -27.5t-37.5 -67.5zM399 411q3 0 17 -6l47 -231l-87 -3q-22 10 -50.5 23.5t-56.5 29t-52 33t-37 35.5q-8 14 -11 29.5t-5.5 31.5t-6 31.5t-10.5 29.5z" />
    <glyph glyph-name="FL0027h" unicode="'" horiz-adv-x="237" 
d="M50 810q8 0 11 -7.5l5 -12.5l4 -32q3 -13 7 -41t7 -58.5t4.5 -56.5t-1.5 -36q-23 -2 -35.5 -6.5t-31.5 -4.5t-35.5 2t-46.5 2l-6 21l-2 16q-1 9 -5.5 28.5t-10 43.5t-11.5 49t-9 45q-4 14 -4 23q0 10 2 14q0 2 2.5 6t4.5 4z" />
    <glyph glyph-name="FL0028h" unicode="(" horiz-adv-x="543" 
d="M336 829q-45 -4 -85.5 -11.5t-77.5 -20t-69.5 -32t-61.5 -48.5q-57 -57 -78.5 -143.5t0.5 -204.5q17 -96 65 -166t116.5 -115t152.5 -66.5t173 -21.5q16 13 23 27t7.5 25t-3.5 19t-9 9l-30 4q-70 32 -118.5 70t-80 80t-49.5 87t-26 90q-9 55 -7.5 115.5t21.5 110t61.5 82
t110.5 32.5z" />
    <glyph glyph-name="FL0029h" unicode=")" horiz-adv-x="543" 
d="M-91 829q47 -4 90.5 -11.5t84.5 -20t80.5 -32t78.5 -48.5q77 -57 129.5 -143.5t74.5 -204.5q17 -96 -6 -166t-75.5 -115t-128.5 -66.5t-165 -21.5q-22 13 -33.5 27t-16 25t-3 19t6.5 9l28 4q58 32 93 70t51.5 80t18 87t-6.5 90q-9 55 -32.5 115.5t-61.5 110t-91.5 82
t-122.5 32.5z" />
    <glyph glyph-name="FL002Ah" unicode="*" horiz-adv-x="531" 
d="M286 464q0 -1 -1 -1h9l-3 1l3 2q2 0 0.5 0.5t-0.5 0.5q15 6 27 9.5t21 6.5q16 4 27.5 9t26.5 22l-26 5q-3 0 -10 2t-14 5t-12.5 5.5t-6.5 4.5l-69 57h91q5 22 8 32t7 18v1q6 15 10 27.5t0 36.5l-19 -14l-2 -1q-5 -4 -17.5 -10t-16.5 -6h-79l50 63q-11 19 -17 31.5
t-9 21.5q-9 17 -17 29.5t-27 31.5q-5 3 -4 2.5t4 -2.5v-26l-1 -6q0 1 1 -2t-1 -5q-2 -12 -5 -23.5t-11 -11.5l-28 -35l-13 76q0 -3 -1 -4.5l-1 -1.5h-1q-18 7 -28 10.5t-23 8.5v1q-18 8 -36.5 14.5t-37.5 9.5q-3 1 -0.5 -1.5t7.5 -6.5t10.5 -8t8.5 -5l20 -26l14 -84l-72 63
q3 4 -6 4l6 -4q-2 -2 -3 -2q-8 -4 -19.5 -9.5t-26.5 -10.5q-16 -7 -29 -14.5t-4 -16.5l32 -8l65 -54h-90q9 -1 6 -4q-2 -17 -4.5 -26.5t-4.5 -20.5h-1q-5 -17 -9 -34.5t-4 -35.5l18 22l24 15h82l-53 -64q2 -1 2 -3q0 -1 2 -2q5 -6 12.5 -20t18.5 -28q8 -17 18 -33.5
t21 -30.5l-5 26l2 32l58 71l19 -105q23 -9 34 -14.5t19 -10.5l1 -1q18 -8 31 -13.5t38 -6.5l-19 21l-1 1q-2 3 -5.5 9l-7 12t-6.5 11t-3 7l-16 78l77 -64h-5z" />
    <glyph glyph-name="FL002Bh" unicode="+" horiz-adv-x="524" 
d="M-28 330l-1 -4q2 -2 7 -3.5l10 -3t9.5 -2.5t5.5 -1q6 2 18.5 7t16.5 11h105l21 -126q0 -1 6.5 -4.5t11.5 -5.5q24 -10 35.5 -17.5t21 -12t21 -6.5t35.5 -2q11 0 13 8t0 18l-6 29q-3 4 -8.5 11.5t-6.5 8.5l-17 100h115q1 0 3 5.5t4 9.5q6 22 11.5 33.5t8.5 21t3 21.5
t-4 36q-2 11 -10.5 15t-18.5 4h-5l-23 -8q-5 -2 -11.5 -6t-7.5 -4h-89l-20 110q0 1 -8.5 4.5t-13.5 5.5q-16 5 -28.5 12t-25 13t-26 10.5t-30.5 4.5h-4q-3 -4 -4.5 -16t-0.5 -14q2 -7 6 -20t9 -17l18 -94h-121q-1 0 -3 -7.5t-4 -12.5q-2 -15 -6.5 -28t-8 -26t-5 -27t1.5 -31
z" />
    <glyph glyph-name="FL002Ch" unicode="," horiz-adv-x="340" 
d="M271 160q8 0 10 -7.5t4 -12.5q2 -9 -1.5 -29.5t-9 -46.5t-13.5 -55t-15.5 -55t-13.5 -46.5t-9 -28.5q-23 -2 -41 -2.5t-37 -0.5t-40.5 0.5t-51.5 0.5l-6 21l4.5 17t10.5 42.5t13.5 55.5l14.5 58t12.5 49t8.5 29q0 2 3.5 6t5.5 4z" />
    <glyph glyph-name="FL002Dh" unicode="-" horiz-adv-x="539" 
d="M-19 269q-3 17 -1 41.5t5.5 50t7.5 49t7 38.5q2 5 3 12.5t2 7.5l338 1q1 0 8.5 4t11.5 6l25 20h5q10 0 19 -4t11 -15q9 -48 1 -88.5t-20 -85.5q-2 -4 -5 -9.5t-4 -5.5l-347 -1q-1 -3 -5.5 -8.5t-9.5 -11t-10.5 -10t-8.5 -5.5q-1 0 -5.5 1t-9.5 2.5l-10 3t-7 3.5z" />
    <glyph glyph-name="FL002Eh" unicode="." horiz-adv-x="282" 
d="M213 160q8 0 10 -7.5t4 -12.5q3 -14 1 -32.5t-6.5 -38t-10.5 -38t-10 -31.5q-23 -2 -41 -2.5t-37 -0.5t-41 0.5t-52 0.5l-3 21q0 1 2.5 17t6.5 37.5t8.5 43t8.5 32.5q0 2 3.5 6t5.5 4z" />
    <glyph glyph-name="FL002Fh" unicode="/" horiz-adv-x="619" 
d="M389 798l-131 42l-230 -831q10 -5 42 -15t67.5 -19t63.5 -15t31 -1l219 810l-11 6q-9 4 -19 8.5t-18 8.5z" />
    <glyph glyph-name="O" unicode="0" 
d="M-43 406q19 -105 66.5 -182t116.5 -127t156 -74t185 -24q114 0 203 28t146 85.5t78.5 144.5t0.5 204q-17 96 -65 166t-116.5 115t-152.5 67t-173 22q-107 0 -198 -22.5t-153 -73t-88.5 -131.5t-5.5 -198zM221 445q-11 60 -15 115.5t10 98t51 67.5t109 25q75 0 123 -29.5
t77 -76.5t45 -107t27 -120q9 -56 13.5 -115.5t-8 -109.5t-47.5 -82t-104 -32q-71 0 -120.5 37t-81.5 92.5t-50.5 119t-28.5 117.5z" />
    <glyph glyph-name="FL0031h" unicode="1" horiz-adv-x="671" 
d="M204 137q-2 0 -13 -1.5t-27 -3.5t-23 -3q-16 -2 -31 -2.5t-31 -0.5l-52 -105l29 -21q84 5 143.5 7.5t103.5 3t77.5 0t66.5 -1.5t69.5 -2t86.5 -1h10q8 29 8 66t-7 77q-2 0 -12 -1t-12 -2h-32q-16 -3 -21 -6.5t-8 -6t-9.5 -4.5t-24.5 -2q-8 0 -21.5 0.5t-14.5 0.5l-4 5
q-17 85 -37 167.5t-35 167.5l-6 41q-5 27 -9.5 52.5t-7.5 45.5l-4 23l1 50q-8 -14 -10 -10.5t-4 16.5t-6.5 32.5t-17.5 37.5t-36.5 30.5t-62.5 12.5q-47 0 -78.5 1.5t-59.5 4t-59 4t-76 1.5h-10q-3 -14 -7.5 -34t-7 -42t-3 -45t3.5 -42q2 0 12 1t12 2q2 0 8.5 3t14 7t14 7
t8.5 3q16 3 22 5l10.5 3.5t11.5 2t25 0.5q8 0 21.5 -0.5t14.5 -0.5l11 -10l97 -533h-1z" />
    <glyph glyph-name="FL0032h" unicode="2" horiz-adv-x="800" 
d="M327 358q-27 -5 -51.5 -10.5t-42 -18t-25 -36t-0.5 -63.5l22 -97q18 0 55 1t81 1.5t89 1.5t80 1q11 0 60.5 12t138.5 46l31 -167l-4 -4l-8.5 -8.5t-10 -8t-8.5 -3.5h-705l-43 250q-9 51 3 83.5t37.5 52.5t60.5 30.5t72 18.5q16 9 39 16t50 13t57 13t60 16q17 6 26.5 12.5
t13 17t2 27.5t-5.5 44q-12 66 -41 104t-92 38q-6 0 -30.5 -2t-56 -9.5t-64 -21.5t-54.5 -38v1q-9 -2 -21.5 7.5t-26.5 24.5t-29 33.5t-29 34.5l3 30q0 1 12 2.5t29 3t35 3t30 1.5h25h84h86q26 0 40.5 -1t40.5 -1h37q34 -5 72.5 -14t72.5 -27t59.5 -47.5t33.5 -74.5
q12 -74 -14.5 -128t-76.5 -82z" />
    <glyph glyph-name="FL0033h" unicode="3" horiz-adv-x="812" 
d="M780 15q0 1 -1 2.5t-1 2.5q-5 6 -16 22t-24 33.5t-24 33t-15 21.5q-3 2 -12.5 10t-12.5 10l-286 176l249 331l-3 20q0 1 -11.5 12.5t-27 27.5t-32.5 32.5t-28 27.5q-4 4 -17 15.5t-18 14.5q-17 0 -53 -0.5t-81 -0.5h-96h-95q-46 0 -82 0.5t-53 0.5q-6 0 -20.5 1
t-30.5 2.5t-30 3.5t-20 3q-3 -1 -6 -4.5t-3 -5.5v-5q0 -1 1 -3l1 -2q18 -25 46 -49.5t51 -40.5q9 0 29.5 -1t46.5 -3t55 -4.5t55 -4.5t46.5 -4t30.5 -3q3 0 13.5 -1t22.5 -2.5t22.5 -3.5t13.5 -3q-11 -16 -32 -39t-46 -48.5t-51 -52t-47 -48.5t-34 -38t-12 -21q1 -2 2 -5.5
t2 -4.5q37 -34 76.5 -64.5t80 -60.5t80.5 -60.5t78 -64.5q-27 -10 -58 -14.5t-63 -6t-64 -1t-62 0.5q-54 0 -106 6t-106 6q7 -39 36.5 -69t68.5 -50.5t80.5 -31t73.5 -10.5h510q1 0 3.5 4t4.5 6v2t1 3z" />
    <glyph glyph-name="FL0034h" unicode="4" horiz-adv-x="885" 
d="M-28 320q71 40 119.5 85t90.5 93.5t85 99.5t102 105q11 11 21 25.5t20.5 29t21.5 27.5t25 21q10 1 29.5 2.5t42.5 1.5t45.5 -2t36.5 -8q8 -3 12 -7t4 -12q1 -14 4.5 -42t7.5 -64t9 -78t10 -83.5t10 -79.5t9 -67h45q1 0 7 6t11 4l40 -20q8 -4 11 -11t3 -15q0 -7 -1 -13.5
t0 -9.5v-7q0 -1 -1.5 -3.5t-4.5 -8.5t-7 -21q-2 -4 -3.5 -9.5t-2.5 -5.5l-81 -1q3 -27 6.5 -52.5t8.5 -50.5q5 -27 18.5 -62.5t31.5 -61.5q1 -2 6.5 -7.5l11.5 -11.5l11 -11t5 -6l-1.5 -3t-1.5 -5q-1 -6 -4 -10.5t-12 -4.5q-54 13 -103.5 25.5t-98.5 33.5q-9 5 -23.5 12
t-28.5 13t-24 10.5t-9 4.5l-15 27l-15 160h-12l-289 -23q-18 -7 -42 -7q-45 0 -79 28t-62 70zM436 369q5 0 13 7l-11 209l-189 -217z" />
    <glyph glyph-name="FL0035h" unicode="5" horiz-adv-x="798" 
d="M340 363q28 -5 55 -11t50 -19.5t40 -37.5t25 -65q9 -54 -4 -75t-49 -24.5t-96 2t-144 5.5q-11 0 -66 12t-155 46l29 -167q0 -1 11.5 -5t17.5 -5q30 -6 71 -10t84 -6t85 -3t74 -1q38 0 82.5 3t87 12.5t80.5 27t64.5 46t38 69.5t1.5 98q-9 51 -34 85.5t-60.5 57t-76.5 35.5
t-81 21q-18 9 -41.5 13.5t-51 8.5t-58.5 8.5t-64 13.5q-19 6 -33.5 12.5t-25.5 17.5t-19 28t-12 44l-25 130l129 1q6 0 25.5 -0.5t46.5 -6t58.5 -18t61.5 -36.5v1q10 -2 19 7.5t17.5 24.5t17.5 33.5t18 34.5l-15 30q0 1 -12.5 2.5t-30.5 3t-36.5 3t-30.5 1.5h-25h-50h-86
h-316l36 -194q6 -37 21 -64t36 -47.5t46.5 -36t54.5 -29.5z" />
    <glyph glyph-name="FL0036h" unicode="6" horiz-adv-x="824" 
d="M270 689q-28 -20 -49.5 -39.5t-34.5 -43.5t-17 -55t4 -74q120 0 198 -5.5t126 -14.5t72.5 -19.5t38.5 -19.5q18 -14 35 -28.5t30.5 -27.5t22 -22.5t8.5 -13.5q0 -2 -2 -2q37 -54 49 -98.5t14 -89.5q1 -23 -0.5 -44t-18 -39.5t-53.5 -34.5t-106 -29q-40 -1 -62.5 -2
t-36.5 -1q-13 0 -21.5 0.5t-21.5 2t-34 4.5t-59 7q-130 29 -205 98q-73 70 -125.5 157t-73.5 204q-4 96 29 163t87.5 109t124.5 61t139 19h251l15 -146q-72 4 -120.5 12t-82.5 14.5t-58 9t-46 -4.5zM589 254q-15 16 -26.5 28t-24 21t-30 16t-45.5 13h-78h-53h-53h-77
q13 -44 38 -85.5t60 -73.5t80 -51t97 -18l112 7q0 25 6 36t10 22t2 28.5t-18 56.5z" />
    <glyph glyph-name="FL0037h" unicode="7" horiz-adv-x="838" 
d="M27 20l13 -20l225 -8l403 787l-6 30h-700q-3 0 -8 -21t-9 -49t-6 -56.5t0 -43.5h34q27 42 74.5 57.5t103 17.5t111.5 -3.5t98 -5.5q0 -1 1.5 -2.5t0.5 -3.5t-2 -10t-3 -10z" />
    <glyph glyph-name="FL0038h" unicode="8" horiz-adv-x="882" 
d="M850 17q0 1 -1 2.5t-1 2.5l-296 448l152 185l-3 20q0 1 -11.5 12.5t-26.5 27.5t-31.5 32.5t-26.5 27.5q-4 4 -17 15.5t-18 14.5q-8 0 -15 0.5t-16 0.5t-22.5 0.5t-35.5 0.5h-183q-14 0 -25.5 -0.5t-22.5 -0.5h-132h-34q-13 0 -21.5 0.5t-15.5 0.5h-14q-3 -3 -12.5 -14.5
t-11.5 -15.5q-7 -11 -17 -27.5t-19 -32.5t-15.5 -27.5t-6.5 -12.5l3 -20l214 -192q-51 -126 -77 -208t-38 -131.5t-15.5 -73.5t-8.5 -35q0 -1 -1 -2.5t-1 -2.5t1 -3l1 -2q3 -2 7.5 -6t5.5 -4l461 1h8q6 0 8 1l322 3q1 0 3 4t4 6l1 2t1 3zM375 377q28 -15 50.5 -38
t41.5 -49.5t37 -54.5t37 -53q-59 -17 -133 -17q-36 0 -71 4t-65 14q11 26 20.5 53.5t21 53.5t26 48.5t35.5 38.5zM488 678q-9 -12 -24.5 -29t-34 -36.5t-39 -41t-39.5 -41.5q-27 20 -55 40.5t-53.5 40t-46.5 37t-34 29.5q3 1 25.5 3t49.5 4t50 3.5t26 1.5z" />
    <glyph glyph-name="FL0039h" unicode="9" horiz-adv-x="781" 
d="M412 286l57 -281h8q36 0 58.5 -1.5t41.5 -2t39.5 1t52.5 7.5q6 1 17.5 5t11.5 5l-118 650q-3 17 -2.5 26.5t4.5 18.5t12 20t20 32l-16 30q0 1 -6.5 3t-17 4t-23.5 4t-26 2h-28q-25 0 -57.5 0.5t-65.5 0.5h-95q-29 0 -61.5 -0.5t-61.5 -0.5h-41q-35 -5 -73.5 -14
t-69.5 -27t-48 -47.5t-9 -74.5q7 -43 32.5 -89t60 -88t74.5 -75t77 -49q66 -30 127 -42t126 -18zM328 740l65 -362q-37 3 -73.5 22.5t-66.5 50t-52 69.5t-29 80q-12 66 22.5 103.5t103.5 37.5q4 0 15.5 -0.5t14.5 -0.5z" />
    <glyph glyph-name="FL003Ah" unicode=":" horiz-adv-x="251" 
d="M182 160q8 0 10 -7.5t4 -12.5l6 -32q5 -26 7 -54.5t-6 -48.5q-23 -2 -41 -2.5t-37 -0.5t-41 0.5t-52 0.5l-3 21l-4 16q-2 11 -4 26.5t-3 31t-0.5 29.5t4.5 22q0 2 3.5 6t5.5 4zM117 504q8 0 10.5 -7.5t3.5 -12.5l6 -32q5 -26 7 -54.5t-6 -48.5q-23 -2 -41 -2.5t-37 -0.5
t-41 0.5t-52 0.5l-3 21l-4 16q-2 11 -4 26.5t-3 31t-0.5 29.5t4.5 22q0 2 4 6t6 4z" />
    <glyph glyph-name="FL003Bh" unicode=";" horiz-adv-x="307" 
d="M23 503q-2 0 -6 -4t-4 -6q-4 -8 -4.5 -22t0.5 -29.5t3 -31t4 -26.5l4 -16l3 -21q30 0 52 -0.5t41 -0.5t37 0.5t41 2.5q8 20 6 48.5t-7 54.5l-6 32q-1 5 -3.5 12.5t-10.5 7.5zM238 161l-151 -1q-2 0 -5.5 -4t-3.5 -6q-3 -8 -6 -28.5t-6.5 -47.5t-7 -56t-6 -53.5t-4 -41
l-1.5 -16.5l3 -21q30 0 52 -0.5t41 -0.5t37 0.5t41 2.5q2 9 6 28.5t8 44.5t7.5 53t6.5 53t4 45t-1 29q-2 5 -4 12.5t-10 7.5z" />
    <glyph glyph-name="FL003Ch" unicode="&#x3c;" horiz-adv-x="631" 
d="M267 76q18 -17 37.5 -33t43.5 -27q26 -12 56.5 -21.5t63 -15.5t64 -9.5t60.5 -3.5h4q2 2 3 9.5t4 10.5l0.5 2t-0.5 4q0 1 -1 2.5l-1 1.5l-106 90l-292 327l182 233l-32 170q1 2 -8 9.5t-15 10.5l-2.5 0.5t-3.5 0.5t-2.5 -0.5l-1.5 -0.5l-230 -292l-128 -168z" />
    <glyph glyph-name="FL003Dh" unicode="=" horiz-adv-x="534" 
d="M-37 382l1 -4q2 -2 7 -3.5l10 -3t9.5 -2.5t5.5 -1q3 1 8.5 5.5t10.5 10t9.5 11t5.5 8.5l347 1q1 0 3.5 5.5t5.5 9.5q6 22 11.5 35t9 25t4 26t-3.5 38q-3 11 -11 15t-18 4h-5l-27 -20q-3 -2 -10 -6t-8 -4l-337 -1q-1 0 -3.5 -7.5t-3.5 -12.5q-3 -15 -7.5 -30.5t-8.5 -32
t-6 -33t1 -33.5zM0 170l1 -4q5 -4 16.5 -7t13.5 -3q4 1 9 5.5t10.5 10t9.5 11t6 8.5l348 1q1 0 3 5.5t3 9.5q6 22 11.5 35t9.5 25t5 26t-3 38q-2 11 -11 15t-19 4h-5l-25 -20q-5 -2 -12 -6t-8 -4l-338 -1q-1 0 -2.5 -7.5t-4.5 -12.5q-2 -15 -6 -30.5t-8 -32t-5.5 -33
t1.5 -33.5z" />
    <glyph glyph-name="FL003Eh" unicode="&#x3e;" horiz-adv-x="631" 
d="M338 76q-12 -17 -26.5 -33t-32.5 -27q-23 -12 -50.5 -21.5t-57.5 -15.5t-61 -9.5t-59 -3.5h-4q-2 2 -6.5 9.5t-6.5 10.5l-2 6v4l74 90l172 327l-262 233l-32 170q1 2 6.5 9.5t10.5 10.5l1.5 0.5t2.5 0.5t3.5 -0.5l2.5 -0.5l334 -292l188 -168z" />
    <glyph glyph-name="FL003Fh" unicode="?" horiz-adv-x="705" 
d="M219 486q3 4 21 9t40.5 15t43.5 27.5t28 46.5q9 31 2.5 50t-24 28.5t-43 12.5t-54.5 2t-59 -3t-55 -2q-11 0 -60.5 -12t-138.5 -46l-31 167q0 1 10.5 5t16.5 5q28 6 67.5 10t81.5 6t83.5 3t73.5 1q58 0 114.5 -7.5t104.5 -33t83.5 -76t51.5 -135.5q9 -50 -3 -79
t-37 -45.5t-59 -24.5t-70 -15.5t-70.5 -19t-59.5 -34.5q-11 -4 -23.5 -8.5t-21.5 -11.5t-11.5 -17t6.5 -23q11 -19 -1 -29l-184 3q-7 36 -9.5 58.5t1.5 37.5t16.5 26t36.5 25zM242 155q8 0 11.5 -7.5t4.5 -12.5l6 -32q4 -26 6.5 -54.5t-5.5 -48.5q-23 -2 -47.5 -1t-43.5 1
t-40.5 0.5t-51.5 0.5l-3 21l-4 16q-2 11 -4.5 26.5t-3.5 31t0 29.5t4 22q1 2 3.5 6t4.5 4z" />
    <glyph glyph-name="FL0040h" unicode="@" horiz-adv-x="879" 
d="M219 272q15 24 22 45.5t11.5 43t9.5 45t15 51.5v-1l26 76q2 8 2 13t1 12h-1q2 18 19 30.5t38 23.5q9 5 20.5 9.5t23.5 4.5q15 0 18 -11v1l193 -277q5 30 9 73.5t0 89.5t-19 90.5t-48 76.5q-19 16 -45 24t-53.5 12t-53 5t-44.5 3l-97 -4q-46 0 -76.5 -15t-49 -40
t-26.5 -59t-8.5 -71.5t4 -77t11.5 -76.5q8 -45 34.5 -83t62.5 -69t76.5 -56.5t77.5 -46.5l16 -6q-6 2 -10 3t-6 3l20 -7q29 -6 46.5 -6.5t42 2.5t65.5 7t116 7l20 -117h-211q-89 0 -173 21.5t-152.5 66.5t-116.5 115t-65 166q-22 118 -0.5 204.5t78.5 143.5q29 29 61.5 48.5
t69.5 32t77.5 20t85.5 11.5l84 1q58 -3 107 -18.5t85.5 -35t59.5 -38t29 -26.5q23 -31 33.5 -78.5t12 -101t-3.5 -106t-12 -94t-14 -65.5t-9 -20l-3 -6q-5 -9 -11 -9h-149q-11 0 -16.5 12t-13.5 29q-9 21 -24.5 35t-25.5 14l-25 -2q-4 0 -8 -0.5t-9 -0.5q-14 -1 -27.5 -0.5
t-24 0t-17.5 -3t-9 -8.5l-31 -58l-9 -9q-4 -1 -7 -1h-4h-8h-12q-2 0 -3.5 0.5t-3.5 0.5h-4q-4 0 -10.5 2t-13 4.5t-11.5 5t-5 3.5zM329 390l98 -3l-53 82z" />
    <glyph glyph-name="FL0041h" unicode="A" horiz-adv-x="1051" 
d="M24 32l6 -30q0 -1 7 -2.5t17 -3t20.5 -3t17.5 -1.5h7q6 0 14 -0.5t15 -0.5h12q6 0 18.5 0.5t13.5 0.5l8 10l52 160q6 19 36 30.5t70 17.5t81 8.5t70 4.5l52 3q17 1 34 -15t32 -41t29 -54.5t25.5 -54.5t21.5 -42t17 -17h310q2 0 3.5 4t3.5 6l1 2t1 3q-3 12 -16 16t-21 9
q-40 29 -75 70t-61 80l-402 620q-5 8 -9 9.5t-11 1.5q-10 0 -22 -3.5t-23.5 -8t-22 -10t-17.5 -9.5q-26 -12 -37.5 -28.5t-17 -37t-8 -44.5t-10.5 -50q-4 -12 -11.5 -36t-16 -49.5t-15.5 -47t-9 -27.5q-41 -112 -85.5 -224.5t-104.5 -215.5zM279 337v5l68 213l16 -13
l133 -220h-204q-1 0 -6 4t-5 6l-1 2t-1 3z" />
    <glyph glyph-name="FL0042h" unicode="B" horiz-adv-x="871" 
d="M-108 770q21 -7 40 -14.5t35 -18t27 -26.5t15 -41l118 -650q0 -1 11.5 -5t19.5 -5q34 -6 62 -8.5t55 -3t56 0t65 0.5q43 0 92 3t96.5 12.5t90.5 27t73 46t43.5 69.5t3.5 98q-9 51 -34 83.5t-61 52.5t-80 30.5t-90 18.5v10q31 16 62 33t54.5 39t35 52t4.5 73
q-8 45 -36 74.5t-66 47.5t-80.5 27t-79.5 14h-41q-29 0 -61.5 0.5t-61.5 0.5h-41h-54q-33 0 -65.5 -0.5t-57.5 -0.5h-28q-13 0 -33 -1.5t-39 -3t-32 -3t-13 -2.5zM300 394q43 0 85.5 -5.5t77.5 -23t60.5 -49.5t35.5 -86q5 -31 2 -60t-15 -51.5t-34 -36t-55 -13.5
q-10 0 -27 2t-34 7.5t-31 15.5t-17 26zM237 740q3 0 14.5 0.5t15.5 0.5q69 0 116.5 -37.5t59.5 -103.5q7 -41 -3 -67t-32 -41t-53.5 -22t-67.5 -10z" />
    <glyph glyph-name="FL0043h" unicode="C" horiz-adv-x="890" 
d="M456 752l153 -88l87 8q17 34 23 56.5t4 38.5q-3 17 -15 31t-31 31h-341q-45 -4 -85.5 -11.5t-77.5 -20t-69.5 -32t-61.5 -48.5q-57 -57 -78.5 -143.5t0.5 -204.5q17 -96 65 -166t116.5 -115t152.5 -66.5t173 -21.5h355l-20 117q-151 -6 -253.5 -14t-160.5 4l-20 7
q-37 21 -61.5 53t-40.5 71.5t-26.5 84t-18.5 89.5q-6 37 -10.5 76.5t-4 77t8.5 71.5t26.5 59t49 40t76.5 15zM392 107l-20 7q2 -2 7.5 -3.5t12.5 -3.5z" />
    <glyph glyph-name="FL0044h" unicode="D" horiz-adv-x="987" 
d="M71 0l-123 684q-29 34 -41.5 52t-13 29t7.5 20.5t21 26.5h431q46 -4 89.5 -11.5t85 -20t80.5 -32t77 -48.5q79 -57 131.5 -135.5t74.5 -195.5q17 -96 -6 -166t-75.5 -115t-128.5 -66.5t-165 -21.5h-445zM172 735l118 -658q127 1 178 1.5t31 -0.5h19q8 1 56 30
q30 21 42.5 54t14.5 73.5t-4.5 86t-14.5 90.5q-9 55 -26 112.5t-47 104t-76.5 76t-115.5 29.5z" />
    <glyph glyph-name="three" unicode="E" horiz-adv-x="812" 
d="M28 15v5q1 6 6.5 22t12 33.5t13 33t9.5 21.5q2 2 7 10t8 10l222 176l-367 331l-3 20q0 1 7 12.5t16.5 27.5t20 32.5l17.5 27.5q2 4 12 15.5t13 14.5q17 0 53 -0.5t81 -0.5h96h95q46 0 82 0.5t53 0.5q6 0 20 1t29.5 2.5t29.5 3.5t20 3q2 -1 5.5 -4.5l5.5 -5.5l1 -2t1 -3
v-5q-8 -25 -28.5 -49.5t-34.5 -40.5q-14 0 -51 -2.5t-78 -6t-77.5 -7t-50.5 -4.5q-3 0 -13.5 -1t-21.5 -2.5t-20.5 -3.5t-12.5 -3q16 -16 45 -39t63.5 -48.5t70 -52t64.5 -48.5t47.5 -38t19.5 -21q1 -2 1 -6q0 -3 -1 -4q-26 -34 -55 -64.5t-58.5 -60.5t-58 -60.5
t-53.5 -64.5q30 -10 62.5 -14.5t64.5 -6t64 -1t62 0.5q54 0 105 6t105 6q7 -39 -12 -69t-51 -50.5t-70.5 -31t-69.5 -10.5h-510q-1 0 -5.5 4t-6.5 6l-1 2t0 3z" />
    <glyph glyph-name="FL0046h" unicode="F" horiz-adv-x="761" 
d="M-96 710q0 1 -1.5 4.5t-2.5 5.5q-1 11 2.5 16.5t13.5 13.5q3 3 13 10t22 15l22.5 15t14.5 10q81 -2 156 -0.5t147 4t144.5 5t149.5 2.5l30 -171l-15 -20l-119 100l-11 0.5t-17 0.5h-10q-6 0 -13 -0.5t-13 -0.5h-6l-42.5 -5t-50.5 -6t-43.5 -5.5t-20.5 -3.5l-7 -10
l38 -210h310l6 -30l-6 -7.5t-13.5 -17.5t-15.5 -20t-14 -15q-2 -2 -10 -6t-10 -4l-224 -30l64 -350l-240 -4l-114 634q-4 22 -15.5 36t-27.5 22.5t-34.5 13t-36.5 8.5z" />
    <glyph glyph-name="FL0047h" unicode="G" horiz-adv-x="930" 
d="M515 423h310l5 -30l-1 -7.5t-2.5 -17t-5 -19t-8.5 -15.5q-1 -1 -7.5 -2t-15 -2.5t-15.5 -3t-9 -2.5q21 -40 37.5 -90t25.5 -98t8.5 -85t-11.5 -52l-474 1q-130 29 -205 98q-73 70 -125.5 157t-73.5 204q-4 96 29 163t87.5 109t124.5 61t139 19h315l17 -88
q-144 8 -237 4.5t-135 -17.5l-17 -7q-29 -21 -43 -51.5t-17 -67.5t2 -80t13 -88q9 -56 26 -115.5t47.5 -109.5t77.5 -82t116 -32l190 1q-1 25 -1 49q0 25 -3.5 52t-12 58t-25.5 70l-104 -14z" />
    <glyph glyph-name="FL0048h" unicode="H" horiz-adv-x="1043" 
d="M110 10l-119 660q-5 28 -20.5 44.5t-32 26t-30.5 16.5t-16 16q-2 7 -2.5 16t9.5 11q9 1 30 2t47 2t55 2t55.5 2t48 1.5t31.5 0.5h12q9 0 19 0.5t19 0.5h12q10 -61 10.5 -122.5t11.5 -123.5l1 -13q2 -9 4.5 -19.5t4.5 -19.5l1 -13q10 -15 38 -22t60.5 -9t64 -1t48.5 1h14
q9 0 17.5 0.5t15.5 0.5h8q12 0 30 1.5t35.5 3t30.5 3t13 2.5l8 10l-47 270q-1 3 3 6.5t9 6.5t9 5l4 2q9 2 34 6t53 9t53 9t34 6q1 0 5 0.5t6 0.5q11 0 21 -7t12 -18q16 -88 26 -175.5t27 -175.5l6 -35q5 -25 9.5 -52.5t9.5 -52.5l7 -35q1 -3 3 -10t5 -15t6 -15t5 -10
q1 -2 6.5 -6t11.5 -9t11.5 -9.5t5.5 -5.5q3 -9 0.5 -29t-7.5 -41t-12.5 -38.5t-15.5 -21.5q-8 -3 -28.5 -10t-43 -15t-42.5 -15t-28 -10l-9 -3t-12 -3.5t-11 -2.5t-6 -1q-5 0 -15.5 4t-11.5 6l-69 391l-381 -35l57 -316l-7 -10q-51 -3 -104.5 -15t-98.5 -25z" />
    <glyph glyph-name="FL0049h" unicode="I" horiz-adv-x="807" 
d="M254 128h1l-92 542l-11 10q-1 0 -14.5 0.5t-21.5 0.5q-36 0 -67.5 -3t-63.5 -9q-2 0 -8.5 -3t-14 -7t-14 -7t-8.5 -3q-2 -1 -12 -2t-12 -1q-4 19 -3.5 42t3.5 45t7 42t7 34h10q45 0 85.5 -1.5t80.5 -3.5t81 -3.5t88 -1.5q50 0 93 1.5t85 3.5t85 3.5t93 1.5l5 -20l-75 -90
q-8 0 -20.5 -1t-26 -2.5t-25.5 -3t-19 -2.5t-16.5 -2.5t-18.5 -3t-16 -3l-7 -1.5l-1 -50l4 -23q3 -20 7.5 -45.5t9.5 -52.5l6 -41q15 -85 35 -167.5t37 -167.5l4 -5q1 0 14.5 -0.5t21.5 -0.5q37 0 66 2t61 8q2 0 8.5 3t14 7t14 7t8.5 3q4 1 14 2t12 1q3 -20 2 -42.5
t-4 -44.5t-7 -42t-7 -34h-10q-75 0 -145 2.5t-149.5 4.5t-175 1t-221.5 -8l-3 20l73 90q8 0 21 1.5t27 3t27 3.5t21 3q6 1 15.5 2.5t18.5 3t16 3z" />
    <glyph glyph-name="FL004Ah" unicode="J" horiz-adv-x="803" 
d="M317 755q34 -8 61 -25.5t35 -54.5l92 -520q-8 -17 -38.5 -23.5t-75.5 -6.5t-98.5 4.5t-112.5 10.5q-6 0 -17 4t-32 12.5t-54 21t-83 29.5l31 -178q0 -1 11.5 -5t17.5 -5q30 -6 71 -10t84 -6t85 -3t74 -1q55 0 118.5 7t118 29.5t89.5 65.5t33 115q0 2 1 3t1 2l-101 585
h-14q-10 0 -21 -0.5t-21 -0.5h-14q-14 0 -46.5 -1t-68.5 -2.5t-67.5 -3.5t-44.5 -3q-17 3 -18.5 -6.5t0.5 -18.5q1 -2 1.5 -7.5t2.5 -7.5z" />
    <glyph glyph-name="FL004Bh" unicode="K" horiz-adv-x="1052" 
d="M696 31q-8 6 -26.5 21.5t-38.5 32.5t-38.5 33t-25.5 23q-10 9 -29.5 28t-44 43.5t-51 52t-50.5 52t-42.5 44.5t-26.5 30h-40l60 -340l-9 -10l-22 -5t-53 -11.5t-63.5 -13t-53.5 -10.5q-1 0 -5 -0.5t-6 -0.5q-5 0 -12.5 1.5t-9.5 9.5l-119 670q-5 29 -20.5 45t-33 25.5
t-32 16t-16.5 17.5q-1 9 0.5 19t17.5 7q10 1 32 2t49.5 2t58 2t58 2t49.5 1.5t32 0.5h18q8 0 15 -2t9 -13l1 -5q-3 -43 0 -84t10 -82t16 -83t17 -87q28 0 50 10t40 26.5t31.5 37t24.5 42.5q10 20 26 46.5t31.5 57t27 63t14.5 63.5h220q21 0 32.5 -3.5t14.5 -21.5
q0 -2 -20.5 -16.5t-52 -36.5t-68.5 -50t-69 -57t-53.5 -56.5t-21.5 -48.5q0 -3 5.5 -10.5t7.5 -9.5q13 -14 40 -42t60.5 -62.5t71 -72.5t71 -72t60.5 -61l40 -40q8 -7 26.5 -23t39 -33t38.5 -32.5t26 -21.5q2 2 4.5 5.5t4.5 4.5l2 0.5t3 0.5q2 0 3.5 -0.5l1.5 -0.5
q3 -2 6.5 -9.5t6.5 -10.5l2 -5l1 -5q0 -4 -1.5 -15.5t-3.5 -14.5q-5 0 -20 -0.5t-20 -0.5q-32 0 -67.5 1t-71.5 5.5t-71.5 12.5t-67.5 22z" />
    <glyph glyph-name="FL004Ch" unicode="L" horiz-adv-x="792" 
d="M-45 773q1 -5 9 -16t17.5 -22.5t18.5 -21.5t14 -14l95 -527q6 -31 -5.5 -42.5t-28.5 -17.5t-34 -12.5t-23 -27.5q25 -28 62 -47.5t72 -32.5q34 3 63.5 5t56.5 3.5t53 2t54 0.5h82q75 0 151 -6t151 -6q-2 10 -5.5 30.5t-9 45t-12.5 50.5t-16 47t-20 34.5t-24 13.5
q-14 0 -23 -9.5t-16 -24.5t-12.5 -31.5t-12.5 -31.5t-17 -24.5t-26 -9.5q-4 0 -12.5 0.5t-10.5 0.5q-19 1 -48.5 4.5t-57 7t-47.5 6l-20 2.5l-13 10l-91 510l-5 140q0 6 6.5 13.5t10 14t-1 12.5t-27.5 11t-69.5 7.5t-125.5 2.5q-21 0 -40.5 -2t-34.5 -7.5t-22.5 -15.5
t-4.5 -25z" />
    <glyph glyph-name="FL004Dh" unicode="M" horiz-adv-x="1251" 
d="M588 777l-21 84q-28 0 -54.5 -4.5t-52.5 -10.5t-52 -11.5t-54 -7.5l-8 -10l12 -40q-51 -8 -97.5 -21t-84 -36.5t-63.5 -60.5t-36 -92q-2 -4 -1.5 -37.5t2 -81.5t4 -103.5t4 -104t2.5 -82t1 -37.5q-1 -6 -6 -20t-6 -20q-4 -8 -13.5 -13.5t-18.5 -10.5t-16 -10.5t-5 -14.5
q6 -21 23 -21q26 0 62 1.5t71 8.5t64.5 21t42.5 39q0 30 -4.5 87t-9 125t-5 138.5t9 128.5t32 95t63.5 37l118 -692q5 0 20 0.5t20 0.5q10 0 37 1t57 2q16 1 29.5 2t27.5 2q26 2 36.5 3t9.5 9l-3 14l-15 83l-18 105l-50 281l-21 106l-15 83q3 0 9.5 1t13.5 2t13.5 2t9.5 0
q32 -7 57 -37t44.5 -75t35.5 -101t30.5 -115t28.5 -118t30.5 -108.5t36.5 -87t46 -54.5h13q9 0 19.5 -0.5t19.5 -0.5h13h48q16 0 31 0.5t30.5 2t33 3.5t39.5 5q2 2 4.5 10t2.5 10l-1 5l-1 5q-32 8 -56 36t-42.5 69t-33.5 92.5t-29 106t-29.5 109.5t-35.5 103.5t-45.5 87.5
t-59.5 62q-32 21 -69.5 33.5t-76 19.5t-77 10.5z" />
    <glyph glyph-name="N" unicode="N" horiz-adv-x="1096" 
d="M99 171q3 -17 13 -46t25 -57t34 -48.5t40 -20.5q7 0 23 1.5t35.5 4.5t40 8t37.5 11t27 13.5t8 16.5q-19 97 -40.5 190.5t-39.5 190.5l-8 45q-6 32 -12 67.5t-12 67.5l-8 45q-10 18 -6 28t14.5 14.5t23 5.5t20.5 2t33 3t55 3.5t57.5 2.5t41.5 1h22q12 0 27 -0.5t28 -0.5
t23.5 -0.5t15.5 -0.5l127 -708l17 -10l222 40q2 0 5.5 4t4.5 6l-1 4l-2 6q-12 35 -24 64.5t-18 65.5l-86 470q-5 28 -1.5 45.5t11 29t17 19t17.5 15t12 17.5t1 27h-775l-150 2q-10 0 -27 -8t-33 -20t-26.5 -26t-8.5 -26q1 -8 19 -13t40 -12t41.5 -18.5t22.5 -31.5l81 -450
q-7 -9 -6.5 -18.5t2.5 -20.5z" />
    <glyph glyph-name="zero" unicode="O" 
d="M-41 398q-21 117 5.5 198t88.5 131.5t153 73t198 22.5q89 0 173 -22t152.5 -67t116.5 -115t65 -166q21 -117 -0.5 -203t-79 -141.5t-146.5 -82.5t-203 -27q-98 0 -184.5 23t-155.5 71.5t-116.5 124t-66.5 180.5zM222 432q10 -54 28 -115.5t50 -114.5t81.5 -88t121.5 -35
q70 0 106.5 33.5t49.5 85t9 113t-14 117.5q-11 57 -30.5 113.5t-52 101t-80 72.5t-113.5 28q-47 0 -80.5 -13t-54.5 -37.5t-31 -60t-11 -80.5l4 -24q5 -17 8 -36t5 -36zM572 502q8 0 10 -7.5t4 -12.5q3 -14 0 -29.5t-8 -31.5t-11 -31t-10 -28q-24 -2 -58 -4t-71 -3.5
t-74 -2.5t-67 -1l-3 21q0 1 3.5 14t8 30.5t10 36t9.5 29.5q0 2 2.5 6t4.5 4z" />
    <glyph glyph-name="FL0050h" unicode="P" horiz-adv-x="831" 
d="M317 286q62 6 119.5 18t111.5 42q31 16 59.5 49t48.5 75t28.5 88t1.5 89q-8 45 -36 74.5t-66 47.5t-80.5 27t-79.5 14h-41q-29 0 -61.5 0.5t-61.5 0.5h-95q-33 0 -65.5 -0.5t-57.5 -0.5h-28q-13 0 -33 -1.5t-39 -3t-32 -3t-13 -2.5l-5 -30q21 -7 40 -14.5t35 -18
t27 -26.5t15 -41l118 -650q0 -1 11.5 -5t19.5 -5q34 -6 55 -7.5t40 -1t41 2t58 1.5h8zM237 740q3 0 14.5 0.5t15.5 0.5q69 0 116.5 -37.5t59.5 -103.5q7 -41 -0.5 -80t-27 -69.5t-48.5 -50t-65 -22.5z" />
    <glyph glyph-name="FL0051h" unicode="Q" horiz-adv-x="1222" 
d="M511 0q-104 5 -196 26.5t-164.5 68.5t-123 125t-71.5 197q-13 68 -2 119.5t39 90t70 66t91.5 47.5t104.5 34t109 26l208 11l16 -1.5t40.5 -3.5t52.5 -4.5t53 -5t42.5 -4t19.5 -2.5q59 -21 111 -53t93 -74.5t68.5 -94.5t38.5 -113q13 -74 2.5 -133t-36.5 -104.5t-64 -79.5
t-79.5 -58t-83 -40t-74 -26t-53 -15.5t-20.5 -8.5l-3 -260q-1 -2 -6.5 -9.5t-10.5 -10.5h-5q-34 0 -56.5 15.5t-38 40t-25 56t-16.5 63.5t-14 62.5t-17 52.5zM190 441q10 -54 33.5 -112.5t61 -107.5t89.5 -81t118 -32l-108 592q-2 15 -15 18t-22 3q-54 0 -88 -27.5
t-52 -69.5t-21.5 -91t4.5 -92zM594 710q3 -20 10 -63t15.5 -97t18 -114t18 -114.5t16 -97.5t11.5 -64l9 -53q62 0 106 24t70 64.5t33.5 95t-3.5 114.5q-8 45 -34.5 98.5t-65.5 99.5t-87.5 77t-101.5 31q-2 0 -7.5 -0.5t-7.5 -0.5z" />
    <glyph glyph-name="FL0052h" unicode="R" horiz-adv-x="869" 
d="M300 394q44 0 81.5 -6t69.5 -24t58.5 -50t49.5 -84l91 -213q31 4 57.5 0.5t48 -8t37 -6t24 6.5t10 29t-6.5 61q-9 51 -38.5 107.5t-70 105.5t-88 84t-93.5 43v10q31 16 62 33t54.5 39t35 52t4.5 73q-8 45 -36 74.5t-66 47.5t-80.5 27t-79.5 14h-41q-29 0 -61.5 0.5
t-61.5 0.5h-95q-33 0 -65.5 -0.5t-57.5 -0.5h-28q-13 0 -33 -1.5t-39 -3t-32 -3t-13 -2.5l-5 -30q21 -7 40 -14.5t35 -18t27 -26.5t15 -41l118 -650q0 -1 11.5 -5t19.5 -5q34 -6 55 -7.5t40 -1t41 2t58 1.5h8zM237 740q3 0 14.5 0.5t15.5 0.5q69 0 116.5 -37.5t59.5 -103.5
q7 -41 -3 -67t-32 -41t-53.5 -22t-67.5 -10z" />
    <glyph glyph-name="FL0053h" unicode="S" horiz-adv-x="874" 
d="M841 20l-7 -20h-600q-24 0 -60 8t-71 23t-62 36.5t-32 48.5h40q32 0 77 0.5t90 1.5t82.5 1.5t53.5 0.5q9 0 22.5 1.5t29 4t30 6t25.5 8.5l-533 639l-6 30h700q3 0 16 -21t27.5 -49t27 -56.5t14.5 -43.5h-34q-42 42 -95 57.5t-108.5 17.5t-109.5 -3.5t-96 -5.5l-2 -6
q1 -2 6.5 -10t8.5 -10z" />
    <glyph glyph-name="FL0054h" unicode="T" horiz-adv-x="875" 
d="M306 12l9 -12q1 0 11.5 -0.5t16.5 -0.5q52 0 106.5 6.5t102.5 14.5q8 3 8 7q0 5 -2 11q-20 109 -44.5 215t-44.5 215l-6 41q-5 27 -9.5 52.5t-7.5 45.5l-4 23l1 50l7 1.5t16 3t18.5 3t16.5 2.5t28 0t45.5 -3t46 -4t29.5 -2l54 109l-5 20h-401h-359h-10q-3 -14 -7.5 -34
t-7 -42t-3 -45t3.5 -42q2 0 12 1t12 2q2 0 8.5 3t14 7t14 7t8.5 3q16 3 37 5t43 3.5t43.5 2t39.5 0.5q8 0 21.5 -0.5t14.5 -0.5l11 -10z" />
    <glyph glyph-name="FL0055h" unicode="U" horiz-adv-x="1096" 
d="M850 643q2 -11 3 -20.5t-7 -18.5l81 -450q3 -20 22.5 -31.5t41.5 -18.5t40.5 -12t20.5 -13q2 -12 -9 -26t-27 -26t-33.5 -20t-27.5 -8l-150 2h-775q-3 17 1 27t12 17.5t18 15t17.5 19t10.5 29t-2 45.5l-84 470q-8 36 -19 65.5t-25 64.5l1 6l-1 4q0 2 2.5 6t4.5 4l222 40
l18 -10l126 -708q4 0 15 -0.5t24 -0.5t28 -0.5t27 -0.5h22q13 0 41.5 1t58.5 2.5t55.5 3.5t33.5 3q7 1 20 2t23.5 5.5t14 14.5t-7.5 28l-8 45q-6 32 -11.5 67.5t-10.5 67.5l-9 45q-17 97 -39 190.5t-39 190.5q-2 9 8 16.5t26.5 13.5t36.5 11t39.5 8t35 4.5t22.5 1.5
q21 0 40 -20.5t34 -48.5t25 -57t13 -46z" />
    <glyph glyph-name="FL0059h" unicode="V" horiz-adv-x="1041" 
d="M871 788q-26 26 -58 33.5t-62 7.5h-10q-10 0 -22.5 -1.5t-13.5 -9.5l-161 -546l-326 526l-23 20q-1 0 -11 0.5t-24 0.5t-28.5 0.5t-23.5 0.5h-51t-54.5 -0.5t-55 -3t-51.5 -8.5q-8 -3 -8 -9v-12l3 -9q1 -1 8 -4t14.5 -6t13.5 -6t7 -4q22 -14 41.5 -33.5t37.5 -40.5
q11 -14 19.5 -26t23.5 -34q17 -26 40.5 -61t47 -68.5t42 -60.5t24.5 -36q9 -15 28.5 -46t43.5 -70.5t50 -83t49.5 -83t42.5 -71t27 -46.5q5 -8 10.5 -9.5t12.5 -1.5q14 0 33 7.5t37.5 18t34 20.5t24.5 15q7 13 10.5 31t5 37l3 38t6.5 34q48 159 105 308t138 292z" />
    <glyph glyph-name="FL0057h" unicode="W" horiz-adv-x="1273" 
d="M1056 810q-1 9 -7.5 12t-14.5 3h-11q-11 -2 -28.5 -5.5t-34.5 -6.5t-30 -5.5t-14 -2.5l-12 -10l88 -500l-12 -10l-381 500q-1 2 -10 10t-13 10h-5q-18 0 -25 -13t-12 -27l-177 -460l-17 -20l-115 520h-309q-11 0 -19 -9.5t-6 -20.5q1 -2 2 -5.5t1 -4.5q47 -6 78 -34
t51 -67t31 -84t18 -85l11 -60l4 -25q5 -23 10.5 -52.5t10.5 -59.5l10 -48l5 -36q5 -27 10.5 -56.5t10.5 -55.5l5 -37q-5 -15 -8.5 -34t-0.5 -38q21 0 40.5 5t38.5 11.5t38 11.5t40 5q11 0 19 -5.5t18 -5.5q13 0 19 6t8.5 15t3 19.5t3.5 19.5l31 100q29 81 63.5 159.5
t81.5 150.5q1 0 2.5 0.5t2.5 0.5t3 -0.5l2 -0.5q4 -3 11.5 -9l15 -12t13.5 -11.5t8 -7.5l337 -430q12 -15 17 -18t19 -3q62 0 127.5 9.5t126.5 11.5q9 2 8 10t-3 15q1 2 -0.5 7.5t-2.5 7.5q-14 5 -30.5 10.5t-32 13.5t-29 19t-21.5 27q0 5 -2.5 16.5t-4.5 24.5q-8 30 -11 55
l-4 24l-6 31q-3 13 -5 28.5t-4 27.5q-3 13 -3.5 22t-1.5 11q-1 16 -3 50.5t-4 78t-4.5 91.5t-4.5 91.5t-3 78t-1 50.5v5z" />
    <glyph glyph-name="FL0058h" unicode="X" horiz-adv-x="991" 
d="M28 10l288 400l-26 30q-10 11 -31 34t-48 51.5t-56.5 60t-56.5 60t-48.5 51t-31.5 33.5q-15 17 -38 29.5t-40 20.5l-6 30q12 1 43 4t66 6t66 6t42 4h6q6 0 13 0.5t13 0.5h10q6 0 17 -0.5l11 -0.5l223 -252l229 292l2 0.5t3 0.5t3 -0.5l2 -0.5q6 -3 15 -10.5t10 -9.5
l30 -170l-179 -233l289 -327l107 -90l0.5 -1.5t1.5 -2.5v-6q-2 -3 -3.5 -10.5t-3.5 -9.5h-4q-29 0 -60.5 3.5t-63.5 9.5t-62.5 15.5t-57.5 21.5q-24 11 -44 27t-37 33l-170 160q-3 4 -12 11.5t-11 8.5l-2.5 0.5t-3.5 0.5t-2.5 -0.5l-1.5 -0.5l-196 -240q-15 -18 -37.5 -31
t-48 -22.5t-52 -16t-49.5 -10.5z" />
    <glyph glyph-name="FL0056h" unicode="Y" horiz-adv-x="981" 
d="M-80 670q72 6 126.5 -10t97.5 -50t76.5 -84t62.5 -112q2 -4 7.5 -20t10.5 -34t9.5 -33t5.5 -17l57 -317q0 -6 5 -8t11 -3t11.5 -0.5t6.5 0.5q25 0 52 3t53.5 7.5t51 10t44.5 10.5l-4 25q-3 17 -7.5 39t-9.5 46l-7 47q-8 45 -15 84.5t-9 55.5q-5 33 -5.5 72t6 78t19.5 75
t34 64t51.5 45t70.5 17q21 0 42 -6t42 -6q7 0 12 3.5t3 12.5l-1 5q-3 7 -10.5 23.5t-15 34t-14.5 32.5t-9 20q-8 16 -22 24.5t-30.5 12t-33.5 4t-31 0.5q-42 0 -73 -15t-53.5 -40t-37.5 -57.5t-25 -68.5q-4 -16 -7 -44t-5.5 -55t-5 -47t-3.5 -20h-20l-21 50
q-21 60 -44.5 114t-58.5 94.5t-85.5 64.5t-125.5 24q-24 0 -58.5 -11t-65.5 -29.5t-52 -43t-16 -52.5q0 -1 1 -3l1 -2l5.5 -5.5t5.5 -4.5z" />
    <glyph glyph-name="FL005Ah" unicode="Z" horiz-adv-x="874" 
d="M27 20l13 -20h600q24 0 57.5 8t63 23t48.5 36.5t14 48.5h-40q-32 0 -77.5 0.5t-90.5 1.5t-83 1.5t-54 0.5q-9 0 -23.5 1.5t-30.5 4t-32 6t-27 8.5l310 620l-6 30h-700q-3 0 -8.5 -21t-10 -49t-6.5 -56.5t1 -43.5h34q27 42 74.5 57.5t102.5 17.5t111 -3.5t98 -5.5
q0 -1 1.5 -2.5t1.5 -3.5t-2.5 -10t-4.5 -10z" />
    <glyph glyph-name="FL005Bh" unicode="[" horiz-adv-x="792" 
d="M9 665q3 -11 5.5 -20.5t13.5 -18.5l80 -450q6 -31 -5 -42.5t-28 -17.5t-34 -12.5t-24 -27.5q25 -28 62 -47.5t72 -32.5q34 3 63.5 5t56.5 3.5t53 2t54 0.5h82q75 0 151 -6t151 -6q-2 10 -5.5 30.5t-8.5 45t-11.5 50.5t-15.5 47t-20 34.5t-24 13.5q-21 0 -32 -20.5
t-20 -45t-21 -45t-36 -20.5q-4 0 -12.5 0.5t-10.5 0.5q-19 1 -48.5 4.5t-57 7t-47.5 6l-20 2.5l-13 10l-91 510q-2 10 -3 18.5t-4 15.5l-7 46l7 10l19.5 2.5t46 6t55 6.5t46.5 5q2 0 10.5 0.5t12.5 0.5q24 0 43 -20.5t37 -45t36 -45t39 -20.5q13 0 19 13.5t7.5 34.5t-1 47
t-6 50.5t-7.5 45t-5 30.5q-75 0 -149 -6t-149 -6h-82q-28 0 -54 0.5t-53.5 2t-57.5 3.5t-66 5q-31 -13 -60.5 -32.5t-45.5 -47.5q12 -20 29.5 -27t34.5 -11.5t33 -13t25 -30.5q-2 0 -4.5 0.5t-4.5 0.5z" />
    <glyph glyph-name="FL005Ch" unicode="\" horiz-adv-x="619" 
d="M-56 798l124 49l519 -838q-8 -5 -38 -15t-63.5 -20t-61.5 -16t-32 -2l-500 813l9 6q8 4 16 8.5t17 8.5z" />
    <glyph glyph-name="FL005Dh" unicode="]" horiz-adv-x="792" 
d="M543 665q3 -11 3.5 -20.5t-6.5 -18.5l80 -450q6 -31 21 -42.5t34.5 -17.5t39 -12.5t34.5 -27.5q-17 -28 -47 -47.5t-59 -32.5q-36 3 -66.5 5t-58.5 3.5t-54 2t-54 0.5h-82q-75 0 -148 -6t-148 -6q-2 10 -6 30.5t-7.5 45t-6 50.5t-1 47t8 34.5t19.5 13.5q21 0 39 -20.5
t36 -45t37 -45t43 -20.5q4 0 12.5 0.5t10.5 0.5q18 1 46.5 4.5t55 7t45.5 6t20 2.5l7 10l-91 510q-3 10 -4 18.5t-3 15.5l-7 46l-13 10l-20 2.5t-47.5 6t-57 6.5t-48.5 5q-2 0 -10.5 0.5t-12.5 0.5q-24 0 -36 -20.5t-21 -45t-20 -45t-32 -20.5q-13 0 -24 13.5t-20 34.5
t-16 47t-12 50.5t-8.5 45t-4.5 30.5q75 0 150 -6t150 -6h82q55 0 107.5 2.5t121.5 8.5q34 -13 71 -32.5t63 -47.5q-6 -19 -21 -26t-31 -12t-29 -13.5t-13 -30.5q2 0 4.5 0.5t4.5 0.5z" />
    <glyph glyph-name="FL005Eh" unicode="^" horiz-adv-x="487" 
d="M22 810q-8 0 -8 -6t1 -11q-7 -9 -16 -29t-18.5 -45.5t-18.5 -53.5t-16 -50.5t-11.5 -38l-4.5 -15.5l3 -21q30 0 52 -0.5t41 -0.5q9 0 14.5 -0.5t10.5 -0.5h11h7q7 0 11 1q1 4 4.5 27.5t8.5 51.5t11.5 53.5t13.5 33.5q8 -8 22.5 -33t29.5 -52.5t27.5 -50.5t15.5 -27
q4 -1 10 -1h8h12q5 0 10.5 0.5t14.5 0.5q19 0 40.5 0.5t51.5 0.5l-4 21l-9.5 15.5t-24 38.5t-33.5 50.5t-37.5 53.5t-35 46t-27.5 28q-5 10 -12 11q-2 2 -4 2z" />
    <glyph glyph-name="FL005Fh" unicode="_" horiz-adv-x="466" 
d="M4 -25q-3 17 -0.5 33t6.5 32t8.5 31t7.5 30l2.5 12.5t2.5 7.5l338 1q1 0 8.5 4t10.5 6l25 20h5q10 0 19 -4t12 -15q4 -24 3 -37.5t-5 -25t-10 -24t-12 -34.5q-2 -4 -3.5 -9.5t-2.5 -5.5l-348 -1q-1 -3 -5 -8.5t-9.5 -11t-10.5 -10t-8 -5.5q-1 0 -5.5 1t-10 2.5t-10.5 3
t-7 3.5z" />
    <glyph glyph-name="FL0060h" unicode="`" horiz-adv-x="337" 
d="M-121 809q-8 0 -7.5 -7.5t1.5 -12.5q2 -14 24.5 -37.5t50 -48.5t52.5 -48t34 -36q23 -2 41.5 -2.5t37.5 -0.5t40.5 0.5t51.5 0.5l-5 21q0 1 -19 22t-44.5 47.5t-52 52.5t-41.5 38q-3 2 -6.5 6t-5.5 4z" />
    <glyph glyph-name="a" unicode="a" horiz-adv-x="1041" 
d="M25 30q80 143 137.5 292t104.5 308q4 16 5.5 34.5t3.5 37.5t5 36.5t11 31.5q8 5 23.5 15t34.5 20.5t38 18t33 7.5q7 0 12.5 -1.5t10.5 -9.5q9 -15 27.5 -46.5t42 -71t50 -83t50 -83t42.5 -70.5t29 -46q5 -8 18 -27t29.5 -44t36 -53.5t37.5 -54.5t33 -48t23 -33
q7 -12 18.5 -26t24.5 -27.5t27 -25.5t27 -21q1 -2 7.5 -4.5t14 -5.5t14 -6t7.5 -4l1.5 -3.5t1.5 -5.5q2 -6 1.5 -12t-8.5 -9q-48 -11 -105.5 -11.5t-105.5 -0.5q-9 0 -23.5 0.5t-28.5 0.5t-24 0.5t-11 0.5l-23 20l-328 526l-159 -546q-1 -5 -7.5 -7.5t-14 -3.5t-14.5 -0.5
t-10 0.5q-30 0 -62 7.5t-57 33.5z" />
    <glyph glyph-name="b" unicode="b" horiz-adv-x="871" 
d="M-108 770q21 -7 40 -14.5t35 -18t27 -26.5t15 -41l118 -650q0 -1 11.5 -5t19.5 -5q34 -6 62 -8.5t55 -3t56 0t65 0.5q43 0 92 3t96.5 12.5t90.5 27t73 46t43.5 69.5t3.5 98q-9 51 -34 83.5t-61 52.5t-80 30.5t-90 18.5v10q31 16 62 33t54.5 39t35 52t4.5 73
q-8 45 -36 74.5t-66 47.5t-80.5 27t-79.5 14h-41q-29 0 -61.5 0.5t-61.5 0.5h-41h-54q-33 0 -65.5 -0.5t-57.5 -0.5h-28q-13 0 -33 -1.5t-39 -3t-32 -3t-13 -2.5zM300 394q43 0 85.5 -5.5t77.5 -23t60.5 -49.5t35.5 -86q5 -31 2 -60t-15 -51.5t-34 -36t-55 -13.5
q-10 0 -27 2t-34 7.5t-31 15.5t-17 26zM237 740q3 0 14.5 0.5t15.5 0.5q69 0 116.5 -37.5t59.5 -103.5q7 -41 -3 -67t-32 -41t-53.5 -22t-67.5 -10z" />
    <glyph glyph-name="c" unicode="c" horiz-adv-x="792" 
d="M100 157q3 -15 12 -42.5t22.5 -54t31.5 -46t39 -19.5l16.5 3t41 8t52.5 12t51.5 14t37.5 14.5t11 13.5l-74 138l-87 508l7 10l19.5 2.5t46 6t55 6.5t46.5 5q2 0 10.5 0.5t12.5 0.5q24 0 43 -20.5t37 -45t36 -45t39 -20.5q13 0 19 13.5t7.5 34.5t-1 47t-6 50.5t-7.5 45
t-5 30.5q-75 0 -149 -6t-149 -6h-82q-28 0 -54 0.5t-53.5 2t-57.5 3.5t-66 5q-31 -13 -60.5 -32.5t-45.5 -47.5q14 -21 33.5 -27.5t38.5 -12.5t35 -17.5t22 -42.5l80 -450q-8 -9 -7.5 -18.5t2.5 -20.5z" />
    <glyph glyph-name="d" unicode="d" horiz-adv-x="1010" 
d="M28 10q0 -2 5 -6t7 -4h770l155 85l-103 125l-408 600q-3 2 -10.5 10t-12.5 10h-4h-6q-13 -3 -32.5 -8.5t-39 -13t-35.5 -17t-22 -21.5q-2 -2 -3 -10.5t-2.5 -19t-2.5 -19.5t-1 -11q-12 -59 -32.5 -121t-36.5 -109q-4 -11 -18 -45.5t-32.5 -80.5t-39 -98.5t-39 -98.5
t-32.5 -81t-18 -46q-2 -4 -5 -11.5t-2 -8.5zM223 150l127 410h10l285 -420l-37 -10h-310q-3 0 -12 1t-18.5 2.5t-19 3.5t-13.5 3q-3 1 -8 4.5t-4 5.5z" />
    <glyph glyph-name="e" unicode="e" horiz-adv-x="791" 
d="M644 200h-590q-1 0 -3 -7.5t-4 -12.5q-3 -16 -6.5 -41t-7.5 -49t-6 -41.5t-2 -18.5l5 -30h650q6 0 12 13t11.5 33.5t10 44t8 45t5 36.5t1.5 18q-2 8 -7 14t-13 6h-6q-3 0 -11 -1.5t-18 -3t-18 -3t-11 -2.5zM69 284l1 -4q5 -4 17 -7t14 -3q4 1 9 5.5t10.5 10t9.5 11t6 8.5
h410q1 0 2.5 5.5t3.5 9.5q12 45 19.5 94t-1.5 97q-3 11 -11 15t-18 4h-5l-27 -20q-3 -2 -11 -6t-9 -4h-400q-1 0 -2 -7.5t-3 -12.5q-3 -15 -7 -41t-7 -55t-3.5 -56t2.5 -44zM-49 605q3 -13 12.5 -14t17.5 -1h24q21 0 65.5 0.5t100.5 2t117.5 2.5t117.5 2.5t100.5 2t65.5 0.5
q10 19 17 43.5t10.5 51.5t3.5 54t-4 51h-42q-22 -1 -66.5 -1.5t-100.5 -1.5t-117.5 -2t-117.5 -2t-100.5 -2t-65.5 -1q-6 -3 -10 -13t-6.5 -20.5t-3.5 -18.5l-1 -8q-1 -8 -3.5 -25t-5.5 -36.5t-5.5 -36t-3.5 -22.5z" />
    <glyph glyph-name="FL0066h" unicode="f" horiz-adv-x="761" 
d="M-99 721q19 -4 37.5 -8.5t34.5 -13t27 -22.5t15 -36l117 -645l240 4l-64 350l224 30q2 0 10 4t10 6q6 5 14 15t15.5 20t13.5 17.5l6 7.5l-6 30h-310l-41 221l10 10q1 1 19 3.5t42.5 5.5t51 6t44.5 5h6q6 0 12.5 0.5t12.5 0.5h10q6 0 17.5 -0.5l11.5 -0.5l117 -100l17 20
l-31 171q-77 0 -149.5 -2.5t-145.5 -5t-148 -4t-156 0.5q-4 -3 -14.5 -10t-21.5 -15t-21 -15t-13 -10q-11 -8 -14.5 -13.5t-0.5 -16.5q-2 -2 -0.5 -5.5t1.5 -4.5z" />
    <glyph glyph-name="FL0067h" unicode="g" horiz-adv-x="852" 
d="M534 393q33 -8 56.5 -22t29.5 -50l33 -163q-34 0 -81.5 -3t-97 -5t-94.5 0t-74 12q19 43 29 73t14 52t5 39t3 35q0 4 0.5 17l1 26t1 22.5t1.5 6.5q-1 5 -10.5 20t-24.5 36t-35 46t-40.5 49.5t-40.5 46.5t-37 38q3 1 16 2.5t29 3t30 2.5t18 1q11 1 45.5 2t77 2t86 1.5
t72.5 0.5h35q8 8 18 23.5t19.5 33t17 35t11.5 29.5v5q0 1 -1 3l-1 2q0 2 -4 5.5t-7 4.5q-6 -1 -19.5 -3t-29.5 -3.5t-30 -2.5t-20 -1h-234h-191q-23 0 -35.5 0.5t-21.5 0.5q-8 0 -13 0.5t-14 0.5q-5 -3 -13.5 -14.5t-12.5 -15.5q-7 -11 -18.5 -26t-23 -29.5t-19.5 -24.5
t-8 -11l5 -20l257 -270l-111 -252q-2 -3 -7.5 -10.5t-7.5 -9.5q-3 -6 -9.5 -21.5t-13 -33t-12 -33.5t-6.5 -22v-5q1 -1 1 -3v-2q2 -2 6.5 -6t5.5 -4l600 -4h18q17 0 34 1.5t25 6.5q19 4 37 9t31.5 10.5t21 10.5t7.5 10l-75 396h-14q-10 0 -21.5 -0.5t-21.5 -0.5h-14
q-27 0 -61.5 -4t-60.5 -6q-8 1 -12 -1t-5.5 -5.5t-1 -9t0.5 -9.5q1 -2 2.5 -7.5t3.5 -7.5z" />
    <glyph glyph-name="h" unicode="h" horiz-adv-x="1043" 
d="M110 10l-119 660q-5 28 -20.5 44.5t-32 26t-30.5 16.5t-16 16q-2 7 -2.5 16t9.5 11q9 1 30 2t47 2t55 2t55.5 2t48 1.5t31.5 0.5h12q9 0 19 0.5t19 0.5h12q10 -61 10.5 -122.5t11.5 -123.5l1 -13q2 -9 4.5 -19.5t4.5 -19.5l1 -13q10 -15 38 -22t60.5 -9t64 -1t48.5 1h14
q9 0 17.5 0.5t15.5 0.5h8q12 0 30 1.5t35.5 3t30.5 3t13 2.5l8 10l-47 270q-1 3 3 6.5t9 6.5t9 5l4 2q9 2 34 6t53 9t53 9t34 6q1 0 5 0.5t6 0.5q11 0 21 -7t12 -18q16 -88 26 -175.5t27 -175.5l6 -35q5 -25 9.5 -52.5t9.5 -52.5l7 -35q1 -3 3 -10t5 -15t6 -15t5 -10
q1 -2 6.5 -6t11.5 -9t11.5 -9.5t5.5 -5.5q3 -9 0.5 -29t-7.5 -41t-12.5 -38.5t-15.5 -21.5q-8 -3 -28.5 -10t-43 -15t-42.5 -15t-28 -10l-9 -3t-12 -3.5t-11 -2.5t-6 -1q-5 0 -15.5 4t-11.5 6l-69 391l-381 -35l57 -316l-7 -10q-51 -3 -104.5 -15t-98.5 -25z" />
    <glyph glyph-name="i" unicode="i" horiz-adv-x="382" 
d="M-103 760q32 -8 58.5 -25.5t34.5 -54.5l123 -684q7 0 27.5 2t46.5 6t54 8.5t51.5 9.5t38 9.5t13.5 8.5l-138 771h-14q-10 0 -21 -0.5t-21 -0.5h-14q-14 0 -46 -1t-68 -2.5t-68 -3.5t-45 -3q-17 3 -18.5 -6.5t0.5 -18.5q1 -2 2.5 -7.5t3.5 -7.5z" />
    <glyph glyph-name="FL006Ah" unicode="j" horiz-adv-x="805" 
d="M319 755q-2 2 -2.5 7.5t-1.5 7.5q-2 9 -0.5 18.5t18.5 6.5q13 1 44.5 3t67.5 3.5t68.5 2.5t46.5 1h14q10 0 21 0.5t21 0.5h14l101 -585q0 -1 -1 -2t-1 -3q2 -72 -33 -115t-89.5 -65.5t-118 -29.5t-118.5 -7q-32 0 -74 1t-85 3t-84 6t-71 10q-6 1 -17.5 5t-11.5 5l-37 197
q48 -15 85.5 -28t69 -24t59.5 -20t56.5 -15.5t60.5 -10t72 -3.5q45 0 75.5 6.5t38.5 23.5l-92 520q-8 37 -35 54.5t-61 25.5z" />
    <glyph glyph-name="k" unicode="k" horiz-adv-x="1052" 
d="M698 24q32 -14 67 -22t70.5 -12.5t71 -5.5t67.5 -1q5 0 20 0.5t20 0.5q3 3 4 14.5t1 15.5v5l-1 5q-3 3 -7 10.5t-6 9.5l-1.5 0.5t-3.5 0.5q-1 0 -3 -0.5l-2 -0.5q-2 -1 -5.5 -4.5t-3.5 -5.5q-8 6 -26.5 21.5t-39 32.5t-39 33t-25.5 23l-40 40l-61 61t-71.5 72t-71 72.5
t-60.5 62.5t-39 42q-4 2 -8.5 9.5t-4.5 10.5q0 21 21.5 48.5t53.5 56.5t69 57t68.5 50t52 36.5t20.5 16.5q-3 18 -14.5 21.5t-32.5 3.5h-220q-3 -31 -14.5 -63.5t-27 -63t-31.5 -57t-26 -46.5q-11 -22 -24.5 -42.5t-31.5 -37t-40 -26.5t-50 -10q-8 45 -17 87t-16 83t-10 82
t0 84l-1 5q-3 11 -10.5 13t-15.5 2h-18q-11 0 -32.5 -0.5t-49 -1.5t-57.5 -2t-57.5 -2t-49 -2t-31.5 -2q-16 3 -17.5 -7t-0.5 -19q2 -11 16 -17.5t31 -16t33 -25.5t22 -45l119 -670q2 -8 9.5 -9.5t12.5 -1.5q2 0 5.5 0.5t4.5 0.5q21 4 54 10.5t64 13t53 11.5l22 5l9 10
l-63 340h40q9 -10 28 -30t43.5 -44.5t51 -52t51 -52t44 -43.5t29.5 -28q7 -7 25 -23t38 -33t38.5 -32.5t27.5 -21.5z" />
    <glyph glyph-name="FL006Ch" unicode="l" horiz-adv-x="792" 
d="M11 658q-3 15 -4 42.5t3.5 54t15.5 46t32 19.5l15.5 -2.5t38 -7.5t49 -11t49.5 -12.5t38.5 -14t16.5 -13.5l5 -140l91 -510l10 -10l20.5 -2.5t48.5 -6t57.5 -7t48.5 -4.5q2 0 11 -0.5t13 -0.5q16 0 26 9.5t17 24.5t12.5 31.5t12.5 31.5t16 24.5t23 9.5q13 0 24 -13.5
t20 -34.5t16 -47t12.5 -50.5t9 -45t5.5 -30.5q-75 0 -151 6t-151 6h-82q-28 0 -54 -0.5t-53 -2t-56.5 -3.5t-63.5 -5q-35 13 -72.5 32.5t-63.5 47.5q7 21 24.5 27.5t34.5 12.5t28.5 17.5t5.5 42.5l-80 450q-11 9 -14 18.5t-5 20.5z" />
    <glyph glyph-name="m" unicode="m" horiz-adv-x="1273" 
d="M72 -5v5q0 16 -1 50.5t-3 78t-4 91.5t-4.5 91.5t-4.5 78t-3 50.5q0 1 -1 10.5t-4 21.5q-2 13 -3.5 28t-5.5 29l-4 31l-6 24q-2 12 -4.5 26.5t-5.5 27.5q-5 31 -8 42q-8 16 -21 27t-29 19t-32.5 13.5t-30.5 10.5q-1 2 -1.5 7.5t-1.5 7.5q-2 7 -2.5 15t9.5 10
q60 2 125 11.5t127 9.5q7 0 11.5 -0.5t8 -2.5t7.5 -6.5t11 -11.5l337 -430q1 -2 6.5 -7.5t13 -11.5l15 -12t11.5 -9l2 -0.5t3 -0.5t2.5 0.5t2.5 0.5q48 72 82 150.5t63 159.5l31 100q3 9 4 19.5t4 19.5t9 15t19 6q10 0 17.5 -5.5t18.5 -5.5q21 0 40 5t38 11.5t38.5 11.5
t40.5 5q3 -19 0 -38t-10 -34l8 -37q3 -26 8.5 -55.5t10.5 -56.5l5 -36l10 -48q5 -30 10.5 -59.5t10.5 -52.5l4 -25l11 -60q7 -40 18 -85t30.5 -84t50.5 -67t78 -34q0 -1 1.5 -4.5t2.5 -5.5q2 -11 -6.5 -20.5t-19.5 -9.5h-309l-115 520l-17 -20l-177 -460q-5 -14 -12 -27
t-25 -13h-5q-4 2 -12 10t-11 10l-381 500l-12 -10l89 -500l-13 -10q-1 0 -13.5 -2.5t-29.5 -5.5t-35 -6.5t-29 -5.5h-11q-8 0 -14.5 3t-7.5 12z" />
    <glyph glyph-name="n" unicode="n" horiz-adv-x="974" 
d="M160 548q19 -17 59 -51.5t90.5 -78t105.5 -91.5t105.5 -91t90.5 -77.5t59 -50.5q4 -5 20 -17.5t34.5 -26.5t36 -27t26.5 -19q2 -2 9.5 -5.5t10.5 -4.5q11 -4 32 -9t36 -8t17 -3l7 10l-11 64l-17 98l-21 115l-16 88q-11 64 -20 115t-12 75q-10 67 -13 124t11 116q1 2 0 7
t-1 6q-38 0 -75.5 -6.5t-72.5 -16.5q-5 -1 -6.5 -4.5t-1 -7.5t1.5 -8t1 -7q20 -109 45 -209t45 -209h-7l-574 475l-5 0.5t-7 0.5q-60 0 -122.5 -9.5t-120.5 -11.5q-8 -2 -8 -10t2 -15q0 -2 1 -7.5t1 -7.5q40 -14 64.5 -30t40 -38t24.5 -51.5t17 -69.5q25 -144 39.5 -278.5
t15.5 -277.5q5 -8 10 -9t11 -1h11q13 1 33 4.5t39 7t32.5 6l13.5 2.5l-97 530h10z" />
    <glyph glyph-name="o" unicode="o" horiz-adv-x="1081" 
d="M78 10q-3 2 -7.5 10t-5.5 10q-4 7 -13 24.5t-18.5 36.5l-18 36t-12.5 23l-2 5l1 5q0 2 3 5.5t5 4.5h4q55 0 111 -10.5t113 -10.5h13q9 0 19.5 0.5t19.5 0.5h13q-52 25 -105.5 54t-99.5 65.5t-79 83.5t-43 107q-12 66 1.5 118t45 92t78 67.5t100 45.5t111.5 26t112 8
q50 0 104 -8t107 -25.5t102.5 -44t89.5 -63t68 -84.5t39 -107q11 -62 -3 -111.5t-45 -90.5t-74 -73.5t-89 -59.5q41 -10 74 -10.5t73 -0.5h40q29 0 55.5 1.5t57.5 9.5q0 -2 2 -7.5t2 -7.5q4 -27 -7 -51.5t-31.5 -43t-47 -29.5t-51.5 -11h-282q-1 3 -2 14.5t-1 15.5
q0 6 -0.5 22t-0.5 33v33q0 16 1 22q42 21 61 50.5t23.5 65.5t-1 77.5t-12.5 86.5l-5 22q-2 16 -6 33.5t-6 32.5l-5 28q-9 23 -26 57.5t-40 66t-51 54t-59 22.5h-130q-31 0 -54.5 -21.5t-38.5 -52.5t-20.5 -65.5t-0.5 -60.5l38 -216q6 -35 30.5 -65.5t52 -56t50 -45
t24.5 -31.5q1 -4 2 -12t0 -10q1 -10 1 -25t-0.5 -29.5t-1.5 -25t-2 -10.5l-28 -10q-2 0 -14.5 -0.5t-29.5 -0.5q-16 0 -32.5 -0.5t-25.5 -0.5q-20 0 -48 -0.5t-58 0.5t-60 3.5t-54 8.5z" />
    <glyph glyph-name="p" unicode="p" horiz-adv-x="862" 
d="M-1 680q3 -19 11 -59t18 -90.5t21 -106t21 -105.5t18.5 -90t12.5 -59q5 -23 13.5 -58t19 -74.5t21 -80t19.5 -74t15 -56.5t8 -27l18 -40l3 -0.5t5 -0.5q16 0 32.5 3.5t30.5 10.5t24.5 18.5t13.5 28.5q3 9 6 29t5.5 45.5t4.5 54t3 54t0.5 46.5t-1.5 31l-118 657
q37 0 77.5 -4.5t76.5 -19.5t62.5 -43.5t35.5 -76.5q8 -45 -1.5 -76t-31.5 -52.5t-54.5 -36.5t-69.5 -28q1 -1 1 -5q0 -3 1 -5q2 -14 12 -23t25 -17h10q7 0 15 -0.5t15 -0.5h10q63 0 125 14t108.5 45t70 80.5t10.5 121.5l-1 11q-2 9 -4 19t-4 18l-3 12q-19 39 -52 64.5
t-73 41t-82 23t-78 11.5h-37q-26 0 -55.5 0.5t-56.5 0.5h-36h-86q-63 0 -122.5 -1.5t-123.5 -9.5q-15 1 -17 -5t-2 -14q3 -15 18.5 -21.5t33.5 -14t35 -21.5t23 -44z" />
    <glyph glyph-name="q" unicode="q" horiz-adv-x="1222" 
d="M511 0q10 -22 17 -52.5t14 -62.5t16.5 -63.5t25 -56t38 -40t56.5 -15.5h5q5 3 10.5 10.5t6.5 9.5l3 260q0 3 20.5 8.5t53 15.5t74 26t83 40t79.5 58t64 79.5t36.5 104.5t-2.5 133q-11 61 -39 110t-69 88t-93 68t-111 50q-7 2 -19.5 6t-13.5 4l-187 19q-4 22 -3 38.5t3 30
t3.5 26t-1.5 26.5q0 4 -13 29.5t-29.5 55t-33 53t-23.5 23.5q-2 0 -5.5 -0.5t-4.5 -0.5q-6 -4 -19.5 -14t-29.5 -21t-29.5 -21t-19.5 -14q-5 -4 -12.5 -10.5t-14 -12.5t-11 -11t-4.5 -6l36 -171q-54 -12 -109 -26t-104.5 -34t-91.5 -47.5t-70 -66t-38.5 -90t1.5 -119.5
q21 -119 71.5 -197t123 -125t164.5 -68.5t196 -26.5zM190 441q-8 43 -4.5 92t21.5 91t52 69.5t88 27.5q9 0 22 -3t15 -18l108 -592q-66 0 -118 32t-89.5 81t-61 107.5t-33.5 112.5zM594 710q2 0 7.5 0.5t7.5 0.5q53 0 101.5 -31t87.5 -77t65.5 -99.5t34.5 -98.5
q11 -60 3.5 -114.5t-33.5 -95t-70 -64.5t-106 -24l-9 53q-4 21 -11.5 64t-16 97.5t-18 114.5t-18 114t-15.5 97t-10 63z" />
    <glyph glyph-name="FL0072h" unicode="r" horiz-adv-x="869" 
d="M300 394q44 0 81.5 -6t69.5 -24t58.5 -50t49.5 -84l91 -213q31 4 57.5 0.5t48 -8t37 -6t24 6.5t10 29t-6.5 61q-9 51 -38.5 107.5t-70 105.5t-88 84t-93.5 43v10q31 16 62 33t54.5 39t35 52t4.5 73q-8 45 -36 74.5t-66 47.5t-80.5 27t-79.5 14h-41q-29 0 -61.5 0.5
t-61.5 0.5h-95q-33 0 -65.5 -0.5t-57.5 -0.5h-28q-13 0 -33 -1.5t-39 -3t-32 -3t-13 -2.5l-5 -30q21 -7 40 -14.5t35 -18t27 -26.5t15 -41l118 -650q0 -1 11.5 -5t19.5 -5q34 -6 55 -7.5t40 -1t41 2t58 1.5h8zM237 740q3 0 14.5 0.5t15.5 0.5q69 0 116.5 -37.5t59.5 -103.5
q7 -41 -3 -67t-32 -41t-53.5 -22t-67.5 -10z" />
    <glyph glyph-name="FL0073h" unicode="s" horiz-adv-x="798" 
d="M347 358l-260 79q-29 14 -55.5 34.5t-48.5 47.5t-37.5 59t-21.5 69q-8 45 6.5 74.5t41.5 47.5t61.5 27t66.5 14h37q26 0 55 0.5t55 0.5h86q29 0 58.5 -0.5t51.5 -0.5h25q12 0 30.5 -1.5t36.5 -3t31 -3t13 -2.5l14 -30q-9 -17 -17.5 -35t-17.5 -33t-18 -24.5t-19 -7.5v-1
q-30 24 -71 38t-80 21.5t-68.5 10t-35.5 2.5q-63 0 -93 -37.5t-18 -103.5q4 -27 13.5 -44t22.5 -28t29 -17.5t35 -12.5q68 -18 128.5 -29t97.5 -29q41 -8 80.5 -18.5t72 -30.5t56 -52.5t32.5 -83.5q10 -57 -1.5 -98t-38 -69.5t-64.5 -46t-80.5 -27t-87 -12.5t-82.5 -3
q-32 0 -74 1t-85 3t-84 6t-71 10q-6 1 -17.5 5t-11.5 5l-29 167q100 -34 155 -46t66 -12q84 0 144 -5.5t96 -2t49 24.5t4 75q-7 40 -23 63.5t-38 36t-48.5 18t-53.5 10.5z" />
    <glyph glyph-name="t" unicode="t" horiz-adv-x="875" 
d="M306 12l9 -12q1 0 11.5 -0.5t16.5 -0.5q52 0 106.5 6.5t102.5 14.5q8 3 8 7q0 5 -2 11q-20 109 -44.5 215t-44.5 215l-6 41q-5 27 -9.5 52.5t-7.5 45.5l-4 23l1 50h9h20h23q12 0 19 1t25 1h38q20 0 38 -0.5t26 -0.5l63 109l-5 20h-410h-350h-10q-3 -14 -7.5 -34t-7 -42
t-3 -45t3.5 -42q2 0 12 1t12 2q2 0 8.5 3t14 7t14 7t8.5 3q16 3 37 5t43 3.5t43.5 2t39.5 0.5q8 0 21.5 -0.5t14.5 -0.5l11 -10z" />
    <glyph glyph-name="FL0075h" unicode="u" horiz-adv-x="1064" 
d="M219 139q-47 30 -77 84.5t-51.5 120t-38.5 135t-37.5 128.5t-48.5 100.5t-71 51.5l-1 5l-2 5q1 2 2.5 10t4.5 10q43 6 73 8.5t62 2.5h48h13q9 0 19.5 -0.5t19.5 -0.5h13q25 -17 45 -54.5t36.5 -87.5t31 -108.5t29.5 -117t31 -112.5t35.5 -96t44 -67.5t56.5 -26.5l57 -2
q42 0 67 36.5t37.5 93t15.5 126.5t2 136.5t-3 123t-1 86.5q13 25 42.5 39t64.5 21t71 8.5t62 1.5q21 0 23 -21q1 -9 -5.5 -14.5t-15.5 -10.5t-18.5 -10.5t-13.5 -13.5q-1 -3 -3 -8.5t-4 -11.5t-3.5 -11.5t-1.5 -8.5q-1 -4 -1 -39t0.5 -85t0.5 -108v-107v-84q0 -34 -1 -38
q-19 -29 -37 -60t-39.5 -58.5t-48.5 -49.5t-64 -33q-10 -10 -20 -15t-25 -8t-37 -4.5t-56 -3.5q-43 7 -79 18t-69 28t-65.5 41t-68.5 56z" />
    <glyph glyph-name="v" unicode="v" horiz-adv-x="981" 
d="M-78 662q47 4 89 -11t78.5 -43t68 -66.5t59 -81.5t50.5 -88t42 -86q2 -4 5.5 -15t10.5 -41t18 -84t28 -144q1 -6 6.5 -8t11.5 -3t11.5 -0.5t6.5 0.5q51 0 105 10.5t96 20.5q-2 8 -3.5 12t-1.5 10q-2 7 -4.5 18t-7.5 34q-8 45 -14 84.5t-10 55.5q-5 33 -5.5 76.5t4.5 90
t17 91.5t32 80.5t49.5 57t69.5 21.5q21 0 41 -6t41 -6q7 0 13 3.5t4 12.5l-1 5q-3 7 -10.5 23.5t-15 34t-14.5 32.5t-9 20q-8 16 -22.5 24.5t-31.5 12t-34 4t-31 0.5q-42 0 -73 -15t-53 -40t-37 -57.5t-24 -68.5q-2 -11 -2.5 -36t-0.5 -57t1 -66t1.5 -62.5t1 -46.5l0.5 -18
h-20l-19 50q-15 40 -31.5 86.5t-38 93t-47.5 89t-59 75.5t-73.5 53t-90.5 20q-24 0 -58.5 -11t-65.5 -29.5t-51 -43t-15 -52.5v-5q2 -2 6.5 -5.5t6.5 -4.5z" />
    <glyph glyph-name="FL0077h" unicode="w" horiz-adv-x="1251" 
d="M510 80q-33 3 -71 6.5t-77 10.5t-76 19.5t-69 33.5q-47 30 -77 84.5t-52 120t-39 135t-37.5 128.5t-48.5 100.5t-71 51.5l-1 5l-1 5q0 2 2.5 10t4.5 10q43 6 72.5 8.5t61.5 2.5h48h13q9 0 19.5 -0.5t19.5 -0.5h13q25 -17 45 -52.5t36 -82.5t29.5 -101.5t27.5 -109.5
t29.5 -106.5t34.5 -93.5t43.5 -69.5t56.5 -34.5q3 -1 9.5 0t14 2t13.5 2t9 1l-15 83l-20 106q-10 57 -21 117t-21 117l-20 106l-15 83l-1 14q-4 6 2 8t19.5 3t34 1.5t44.5 2.5q30 2 57 3t38 1q5 0 20 0.5t20 0.5l111 -646q41 0 64 33.5t33 86.5t10.5 117.5t-3 127.5
t-8 116.5t-3.5 83.5q13 25 42.5 39t64.5 21t71 8.5t62 1.5q20 0 23 -21q1 -9 -5.5 -14.5t-15.5 -10.5t-18.5 -10.5t-13.5 -13.5q-1 -3 -3 -8.5t-4 -11.5t-3.5 -11.5t-1.5 -8.5q-1 -5 0 -35t2 -73t2 -92.5t2 -92.5t1 -73t-1 -34q-10 -56 -36 -92.5t-63.5 -60t-84.5 -36.5
t-98 -21l12 -40l-7 -10q-28 -2 -54 -7.5t-52.5 -11.5t-53 -10.5t-54.5 -4.5z" />
    <glyph glyph-name="x" unicode="x" horiz-adv-x="991" 
d="M30 1l8 -40q23 4 49 10.5t51.5 16t47.5 22.5t36 31l198 240l2 0.5t3 0.5t3 -0.5l2 -0.5q2 -1 10.5 -8.5t12.5 -11.5l170 -160q18 -17 37 -33t42 -27q27 -12 58 -21.5t63 -15.5t64 -9.5t61 -3.5h4q2 2 2.5 9.5t2.5 10.5l2 6q0 1 -1 2.5l-1 1.5l-107 90l-291 327l180 233
l-31 170q0 2 -8.5 9.5t-14.5 10.5l-2 0.5t-3 0.5t-3 -0.5l-2 -0.5l-229 -292l-223 252l-11 0.5t-17 0.5h-10q-6 0 -13 -0.5t-13 -0.5h-6q-11 -1 -42 -4t-66 -6t-66 -6t-43 -4l6 -30q18 -8 40.5 -20.5t37.5 -29.5q10 -11 31.5 -33.5t48.5 -51t56.5 -60t56.5 -60t48.5 -51.5
t31.5 -34l25 -30z" />
    <glyph glyph-name="y" unicode="y" horiz-adv-x="1251" 
d="M478 290l53 -294q28 0 54.5 4.5t53 10.5t52.5 11.5t54 7.5l7 10l-44 250q51 8 97.5 21t84 36.5t63.5 60t36 92.5q2 4 4.5 18t5.5 34t5.5 42t5 42t4 34.5t2.5 19.5q0 3 1.5 8.5t3.5 11.5t4 11.5t3 8.5q4 8 13.5 13.5t18.5 10.5t15.5 10.5t5.5 14.5q-3 21 -23 21
q-26 0 -62 -1.5t-71 -8.5t-64.5 -21t-42.5 -39q-1 -30 1 -68t2 -78q0 -39 -4.5 -76.5t-18.5 -67t-39 -47.5t-66 -18l-79 436q-5 0 -20 -0.5t-20 -0.5q-11 0 -38 -1t-57 -3q-24 -2 -44 -2.5t-33.5 -1.5t-20 -3.5t-2.5 -7.5l1 -14q18 -103 39.5 -201t40.5 -201q-3 0 -9.5 -1
t-13.5 -2t-13.5 -2t-9.5 0q-43 9 -70 38.5t-46 71t-32.5 89.5t-29.5 93.5t-37 85t-55 62.5h-13q-9 0 -19.5 0.5t-19.5 0.5h-13h-48q-32 0 -61.5 -2.5t-72.5 -8.5q-2 -2 -4.5 -10t-2.5 -10l1 -5l1 -5q43 -10 68.5 -36t43 -61.5t30.5 -77.5t31.5 -84t46.5 -81.5t74 -69.5
q32 -21 69 -33.5t75.5 -19.5t76.5 -10.5t71 -6.5z" />
    <glyph glyph-name="z" unicode="z" horiz-adv-x="874" 
d="M27 20l332 656q2 2 3.5 10t1.5 10t-1.5 3.5t0.5 2.5q-42 0 -98 5.5t-111.5 3.5t-103.5 -17.5t-75 -57.5h-34q-2 15 0 43.5t6.5 56.5t9.5 49t8 21h700l6 -30l-306 -636q11 -5 26.5 -8.5t32 -6t31 -4t23.5 -1.5q16 0 54 -0.5t83 -1.5t90.5 -1.5t77.5 -0.5h40
q5 -27 -14 -48.5t-48.5 -36.5t-63 -23t-57.5 -8h-600z" />
    <glyph glyph-name="FL007Bh" unicode="{" horiz-adv-x="631" 
d="M149 726q12 17 26.5 33t32.5 27q23 12 50.5 21.5t57.5 15.5t60.5 9.5t59.5 3.5h4q2 -2 6.5 -9.5t6.5 -10.5l2 -6v-4l-74 -90l-172 -327l262 -233l32 -170q-1 -2 -6.5 -9.5t-10.5 -10.5l-1.5 -0.5t-2.5 -0.5t-3.5 0.5l-2.5 0.5l-334 292l-188 168z" />
    <glyph glyph-name="FL007Ch" unicode="|" horiz-adv-x="263" 
d="M17 810l-129 -15l142 -797q7 0 24 2t39 5.5t46 8t43.5 9t31.5 9t11 8.5l-138 771h-14q-10 0 -21 -0.5t-21 -0.5h-14z" />
    <glyph glyph-name="FL007Dh" unicode="}" horiz-adv-x="631" 
d="M220 726q-18 17 -37.5 33t-43.5 27q-26 12 -56.5 21.5t-63 15.5t-64.5 9.5t-60 3.5h-4q-2 -2 -3 -9.5t-4 -10.5l-0.5 -2t0.5 -4q0 -1 1 -2.5l1 -1.5l106 -90l292 -327l-182 -233l32 -170q-1 -2 8 -9.5t15 -10.5l2.5 -0.5t3.5 -0.5t2.5 0.5l1.5 0.5l230 292l128 168z" />
    <glyph glyph-name="FL007Eh" unicode="~" horiz-adv-x="544" 
d="M-18 266l1 -4q2 -2 7 -3.5l10 -3t9.5 -2.5t5.5 -1q3 1 8 11.5t10 23.5t9.5 24.5t5.5 14.5h348q0 1 3 6.5t5 9.5q12 45 18 89.5t-3 92.5q-1 11 -9.5 15t-18.5 4h-5l-24 -60q-4 -2 -10.5 -6t-7.5 -4h-338q-2 -1 -3.5 -8.5t-3.5 -12.5q-3 -15 -7 -39.5t-7 -51.5t-4.5 -52.5
t1.5 -42.5z" />
    <glyph glyph-name="FL007Fh" horiz-adv-x="256" 
 />
    <glyph glyph-name="FL00A1h" unicode="&#xa1;" horiz-adv-x="248" 
d="M208 12l-104 -10h-14q-10 0 -21 -0.5t-21 -0.5h-14l-94 525q-1 4 11.5 9.5t31.5 11t41 10.5t41.5 6.5t33.5 -0.5t15 -9zM-76 652q-8 0 -11 7.5l-5 12.5l-4 32q-5 26 -7.5 54.5t5.5 48.5q23 2 41 2.5t37 0.5t40.5 -0.5t51.5 -0.5l6 -21l2 -16q2 -11 3.5 -26.5t2.5 -31
t0.5 -29.5t-3.5 -22q-1 -2 -3.5 -6t-4.5 -4z" />
    <glyph glyph-name="FL00A2h" unicode="&#xa2;" horiz-adv-x="861" 
d="M399 799l-131 -15l25 -142q-68 -7 -124.5 -21t-106.5 -43q-57 -35 -84 -87t-14 -124q10 -54 47 -94.5t93.5 -67.5t128 -42t150.5 -18l29 -158q7 0 24 2t39 5.5t45.5 8t43 9t31.5 9t12 8.5l-21 115h186l-11 71q-55 -2 -100 -3.5t-87 -3.5l-67 375l100 -37l85 5
q33 39 29 57q-1 11 -11 19t-27 19h-186l-28 154h-14q-10 0 -21 -0.5t-21 -0.5h-14zM360 208l12 -3l1 -5l-29 11q5 0 7 -1l-10 3q-34 13 -55 32.5t-34 43t-20 50.5t-11 54q-5 28 -7 57.5t5.5 56.5t27 48.5t57.5 32.5l68 -382q-2 1 -7 1q-4 0 -5 1zM360 208l-9 2
q-1 0 1.5 -0.5z" />
    <glyph glyph-name="FL00A3h" unicode="&#xa3;" horiz-adv-x="915" 
d="M-18 266q-3 17 -1.5 41.5t5.5 50t8 49t7 38.5l2.5 12.5t2.5 7.5h195l-62 345l242 -4l62 -350l236 -30q2 0 11 -4t11 -6q7 -5 19 -15t23 -20t19 -17.5l8 -7.5l6 -30h-310l38 -210l13 -10q1 -1 20 -3.5t44.5 -5.5t53 -6t45.5 -5h6q6 0 13 -0.5t13 -0.5h10q6 0 17 0.5
l11 0.5l81 100l25 -20l30 -171q-77 0 -150.5 2.5l-147 5t-149 4t-155.5 -0.5q-6 3 -18.5 10t-27 15t-27 15t-16.5 10q-14 8 -19.5 13.5t-6.5 16.5q-2 6 -2 10q18 4 35 8.5t29.5 13t19 22t2.5 36.5l-20 111h-185q-1 -3 -5 -8.5t-9.5 -11t-10.5 -10t-8 -5.5q-1 0 -5.5 1
t-9.5 2.5l-10 3t-7 3.5z" />
    <glyph glyph-name="FL00A4h" unicode="&#xa4;" horiz-adv-x="991" 
d="M168 402q-9 48 -6 85.5t14 66.5q-24 25 -48.5 51t-45.5 48.5t-37 40.5t-25 27q-15 17 -37.5 29.5t-40.5 20.5l-6 30q12 1 43 4t66 6t66 6t42 4h6q6 0 13 0.5t13 0.5h10q6 0 17 -0.5l11 -0.5l135 -154q5 1 10 1.5t10 0.5h22q53 0 110 -20l165 212l2 0.5t3 0.5t3 -0.5
l2 -0.5q6 -3 14.5 -10.5t8.5 -9.5l31 -170l-99 -129q29 -48 38 -105q8 -38 8 -72q0 -33 -5 -63l169 -191l107 -90l1 -1.5t1 -2.5l-2 -6q-2 -3 -2.5 -10.5t-2.5 -9.5h-4q-29 0 -61 3.5t-64 9.5t-63 15.5t-58 21.5q-23 11 -42 27t-37 33l-69 64q-43 -13 -99 -13q-67 0 -123 23
l-110 -134q-14 -18 -36 -31t-47.5 -22.5t-51.5 -16t-49 -10.5l-8 40l190 265q-19 28 -32 61.5t-20 74.5zM304 413q13 -69 50.5 -100t88.5 -31q57 0 86 35.5t15 114.5q-6 31 -19 54.5t-31 38.5t-39.5 22.5t-42.5 7.5q-28 0 -51 -7.5t-38 -24.5t-20.5 -44t1.5 -66z" />
    <glyph glyph-name="FL00A5h" unicode="&#xa5;" horiz-adv-x="981" 
d="M108 263l1 -4q5 -4 18 -7t15 -3q3 1 8 5.5t10.5 10t9.5 11t5 8.5l145 1l15 -84l-164 -1q-1 0 -3 -7.5t-4 -12.5q-2 -15 -6.5 -30.5t-8.5 -32t-5.5 -33t1.5 -33.5l1 -4q2 -2 6.5 -3.5t9.5 -3t9.5 -2.5t5.5 -1q3 1 8 5.5t10.5 10t10 11t6.5 8.5l147 1l14 -80q0 -6 5 -8
t11 -3t11.5 -0.5t6.5 0.5q25 0 52 3t53.5 7.5t51 10t44.5 10.5l-4 25q-1 8 -3 17t-3 19l150 1q1 0 3 5.5t4 9.5q6 22 11.5 35t9 25t4 26t-3.5 38q-2 11 -10.5 15t-18.5 4h-5l-27 -20q-3 -2 -10 -6t-8 -4l-123 -1q-5 25 -8.5 46t-5.5 38l151 1q1 0 3.5 5.5t5.5 9.5
q6 22 11.5 35t9 25t4 26t-3.5 38q-3 11 -11 15t-18 4h-5l-27 -20q-3 -2 -10.5 -6t-8.5 -4l-110 -1q3 45 14.5 89t33 79t54.5 57t79 22q21 0 42 -6t42 -6q7 0 12 3.5t3 12.5l-1 5q-3 7 -10.5 23.5t-15 34t-14.5 32.5t-9 20q-8 16 -22 24.5t-30.5 12t-33.5 4t-31 0.5
q-42 0 -73 -15t-53.5 -40t-37.5 -57.5t-25 -68.5q-4 -16 -7 -44t-5.5 -55t-5 -47t-3.5 -20h-20l-21 50q-21 60 -44.5 114t-58.5 94.5t-85.5 64.5t-125.5 24q-24 0 -58.5 -11t-65.5 -29.5t-52 -43t-16 -52.5q0 -1 1 -3l1 -2l5.5 -5.5t5.5 -4.5q72 6 126.5 -10t97.5 -50
t76.5 -84t62.5 -112v-1l-149 -1q-1 0 -2 -7.5t-3 -12.5q-3 -15 -7.5 -30.5t-8.5 -32t-6 -33t1 -33.5z" />
    <glyph glyph-name="FL00A6h" unicode="&#xa6;" horiz-adv-x="265" 
d="M11 857l-131 -15l163 -911q7 0 24 2t39 5.5t45.5 8t43 9t32 9t11.5 8.5l-157 885h-14q-10 0 -21 -0.5t-21 -0.5h-14z" />
    <glyph glyph-name="FL00A7h" unicode="&#xa7;" horiz-adv-x="890" 
d="M168 402q-9 48 -6 85.5t14 66.5q23 37 53.5 59t62 34t60 16t48.5 6q53 0 110 -20l165 212l2 0.5t3 0.5t3 -0.5l2 -0.5q6 -3 14.5 -10.5t8.5 -9.5l31 -170l-99 -129q29 -48 38 -105q8 -38 8 -72q0 -33 -5 -63q-13 -49 -47.5 -82.5t-79.5 -54.5q-43 -13 -99 -13
q-67 0 -123 23l-110 -134q-14 -18 -36 -31t-47.5 -22.5t-51.5 -16t-49 -10.5l-8 40l190 265q-19 28 -32 61.5t-20 74.5zM304 413q13 -69 50.5 -100t88.5 -31q57 0 86 35.5t15 114.5q-6 31 -19 54.5t-31 38.5t-39.5 22.5t-42.5 7.5q-28 0 -51 -7.5t-38 -24.5t-20.5 -44
t1.5 -66z" />
    <glyph glyph-name="FL00A8h" unicode="&#xa8;" horiz-adv-x="490" 
d="M61 812q8 0 11 -7.5l5 -12.5l6 -32q3 -26 5.5 -54.5t-5.5 -48.5q-23 -2 -41 -2.5t-37 -0.5t-40.5 0.5t-51.5 0.5l-4 21l-4 16q-2 11 -4 26.5t-3 31t0 29.5t4 22q1 2 3.5 6t4.5 4zM302 813q8 0 11.5 -7.5t4.5 -12.5l6 -32q4 -26 6.5 -54.5t-5.5 -48.5q-23 -2 -41 -2.5
t-37 -0.5t-41 0.5t-52 0.5l-3 21l-4 16q-2 11 -4 26.5t-3 31t-0.5 29.5t4.5 22q0 2 3 6t5 4z" />
    <glyph glyph-name="FL00A9h" unicode="&#xa9;" horiz-adv-x="2336" 
d="M93 272l-39 222q0 4 21 16t50 26.5t59 28t47 21.5l23 -123zM1453 743l125 -701h105l-125 701h-105zM490 294q1 -5 6 -10t11 -9.5t12 -8t9 -5.5q2 -2 4 -2q15 -7 53 -26.5t86.5 -44.5t100.5 -51.5t94 -48.5q24 -12 42.5 -21.5t32.5 -16.5l6 -3h-1q6 -3 11.5 -5t19.5 -2
l-20 121l-14 11q-54 23 -113.5 52t-112.5 61l5 6l-1 -1l167 121l14 17q-12 4 -21 8t-16 8q-10 4 -16 9q-7 3 -19.5 9t-28.5 13.5t-34 16.5t-36 17q-20 8 -34.5 14.5t-22.5 11.5q5 3 7.5 5t4.5 3q10 6 34 22t51 33.5t50.5 33.5t34.5 22l9 12l-21 123l-368 -222l-1.5 -1
t-3.5 -2q-4 -4 -12 -10t-13 -19l15 -13q6 -2 17 -8t24 -14q26 -12 51 -25t35 -18q17 -8 34.5 -19t31.5 -24l-161 -109q-3 -6 -3.5 -7.5t0.5 -3.5zM1775 189l3 -11q8 -6 25 -18.5t39 -29t46.5 -34t47 -33.5t40 -28.5t26.5 -18.5q2 -1 5 -4t7 -5l-1 1q5 -2 11.5 -5.5
t11.5 -5.5l191 448h-332q1 1 1 2v1q3 8 12 28.5t19.5 43.5t20.5 44t14 30q1 1 1 3q10 -5 21 -12.5t25 -15.5q11 -6 19 -12t13 -8q1 -1 4.5 -2t5.5 -2h-1q5 -2 11.5 -3.5l6.5 -1.5l7 12l37 62q-8 7 -29 24t-45 36t-45 35.5t-28 22.5q-1 1 -7 4.5t-13.5 8t-16 9.5t-13.5 8
q-2 1 -4.5 2l-7.5 3q-3 2 -5.5 2.5t-10.5 0.5l-180 -450h327l-57 -141q-2 -3 -2.5 -7.5t-1.5 -4.5q-9 0 -24 11.5t-32 25.5q-18 16 -37 30t-39 20l-8 -8l-13.5 -13.5t-16 -14.5t-14.5 -11l-4.5 -4.5l-2.5 -2.5q-2 -2 -4.5 -5.5t-2.5 -5.5zM930 750l127 -711q15 4 23.5 8
t14.5 7l9 4q13 5 37 17.5t55 28.5q33 18 71 37.5t73 37.5t63 32.5t41 21.5l-2 -1l13 13q0 2 0.5 3.5t-0.5 3.5q0 1 -1 2.5t-6 9.5l-155 221q-32 -11 -61 -27t-51 -28q1 -4 5 -13t8 -13l-1 1l65 -84q2 -3 6.5 -8t9.5 -9.5t9 -7.5t6 -3l-7 -8l-135 -68l-73 396l268 -38h10
q2 2 6 7.5t7 8.5q1 6 1 20v30q2 14 3 24t1 16l-4 16q-3 1 -10 3t-14 3.5t-13 3t-9 1.5q-23 3 -54.5 6.5t-66.5 7.5t-70.5 8t-65.5 8q-44 5 -71.5 8.5t-29.5 3.5h-32zM-71 567l93 -518h106l-4 16q-2 12 -3.5 28t-0.5 23q1 1 1 2t2 3l-1 -1q8 8 19.5 22.5t19.5 22.5v-1
q5 7 21 23l35 35t38.5 38t31.5 32l43 -235h117l-129 719z" />
    <glyph glyph-name="FL00AAh" unicode="&#xaa;" horiz-adv-x="556" 
d="M-55 468l4 -15q0 -1 12 -3t19 -2h4q3 0 7.5 -0.5t7.5 -0.5h6q3 0 9 0.5l6 0.5l4 5l26 80q3 10 18 15.5t35 8.5t41 4t36 2l25 2q13 1 25 -16.5t22.5 -38.5t18.5 -39t13 -18h155q2 0 4 5v2q-2 6 -8 8t-9 5q-21 14 -38.5 34.5t-31.5 40.5l-200 310q-3 5 -10 5
q-11 0 -23 -5.5t-19 -9.5q-13 -6 -19 -14.5t-8.5 -18.5t-4 -22t-4.5 -25l-27 -80q-20 -57 -42.5 -113t-53.5 -107zM74 620v3l33 106l8 -6l66 -110h-102l-2 1.5t-2 3.5z" />
    <glyph glyph-name="FL00ABh" unicode="&#xab;" horiz-adv-x="480" 
d="M199 304q1 -8 7 -9t11 -1q10 -9 27.5 -22t37.5 -27t40.5 -28t37 -24.5l27.5 -17.5l11 -7h21q-6 30 -9.5 51.5t-6.5 40.5l-1 14l-3 11l-3 11v7q0 5 -3 11q-5 2 -18.5 9.5t-29 18l-31 21t-25.5 18.5q7 7 18.5 17.5t23 20.5t21.5 18.5t14 10.5q0 7 -1 10l-2 8l-1 12
q-2 5 -3.5 10.5t-2.5 14.5q-5 19 -9 40.5t-9 51.5h-21q-1 0 -18.5 -14.5t-40 -35t-44.5 -42t-32 -35.5q-9 -2 -8 -9q-2 -2 -2 -3zM-23 302q0 -8 6 -9t11 -1q16 -14 46 -35.5t60 -41.5t52.5 -34.5t23.5 -14.5h21q-6 30 -9.5 51.5t-6.5 40.5l-4 14l-1 11l-2 11v7q-1 2 -1.5 5
t-2.5 6q-5 2 -18 9.5t-28.5 18l-31 21t-25.5 18.5q7 7 18 17.5t22.5 20.5t21.5 18.5t15 10.5q0 4 -2 10l-2 8l-1 12q-1 5 -3.5 10.5t-4.5 14.5q-3 19 -7 40.5t-9 51.5h-21q-1 0 -18.5 -14.5t-39.5 -35t-44 -42t-32 -35.5q-9 -2 -9 -9q-1 -1 -1 -3z" />
    <glyph glyph-name="braceleft" unicode="&#xac;" horiz-adv-x="716" 
d="M63 199q-1 5 -1.5 16t-2.5 19l-3 9q-7 39 -25 76.5t-38.5 74.5t-37.5 75t-22 78q-10 45 -4.5 89t24.5 81.5t50.5 65.5t73.5 40q19 6 43.5 9.5t47.5 11.5h147l36 -14q-12 -8 -18.5 -22.5t-9.5 -31.5t-4.5 -33.5t-2.5 -28.5q-62 1 -116 -11t-92.5 -40.5t-55.5 -75
t-5 -114.5q4 -26 13.5 -51t20 -50t19.5 -50.5t14 -51.5q4 -23 1.5 -46t-12 -43.5t-26 -35.5t-39.5 -21l-1 4q1 0 3.5 8t5.5 18t5.5 19.5t4.5 11.5t3.5 7.5t3.5 6.5zM400 92q-21 0 -39.5 -7t-35.5 -16t-34.5 -19t-35.5 -16q8 30 6.5 51t-5.5 48q-6 32 -17 61.5t-23 58.5
t-23 58t-17 60q-7 41 -1.5 76.5t22.5 61.5t46 41t70 15q20 0 47 -7.5t47 -21.5q13 -10 35 -31.5t47 -49t51 -58t48 -59t37 -52t17 -36.5q-34 0 -57.5 17t-42.5 37t-36.5 37t-39.5 17h-9q-8 0 -18 -2t-8 -9q6 -9 16 -13t20.5 -7.5t20.5 -9.5t17 -19q4 -21 11 -47t17 -54.5
t24.5 -58t34.5 -56.5q6 -6 14.5 -15t16.5 -19t14 -21t8 -21q-42 0 -79.5 9t-78.5 29q-3 0 -12.5 5t-20.5 12t-21 13t-13 8l-12 9zM113 339v2q-1 4 5 7t8 3q-6 0 -12 3.5t-10.5 9t-7 12t-1.5 12.5q1 2 6 5t10 4q4 0 14.5 0.5t16.5 0.5h7q1 -10 1 -19t-5 -19q15 4 17.5 -5
t4.5 -16q2 -11 0.5 -21.5t-4.5 -21t-5.5 -21.5t-2.5 -24q-11 20 -24.5 43.5t-17.5 44.5zM79 449q14 0 26 4.5t23 9.5h-53l-2 8q-2 10 -1.5 15t2.5 16q1 7 0.5 11t-0.5 7q13 -6 18 -7.5t7 -1.5q3 0 6.5 1t13.5 1l-2 7l-36 17l16 43l1.5 0.5t2.5 0.5l5 -1l39 -26l4 -2q1 0 2 1
t3 1l-41 43l28 34q1 0 5 -3t5 -6q2 -2 7.5 -10t11.5 -18.5t11 -19.5t6 -12l1 -3q1 -9 -2 -11t-8 -2t-9.5 0.5t-8.5 0.5q5 -27 4.5 -51t-8.5 -43t-25 -31t-45 -15zM173 645q-2 10 7 14t14 4h6q8 -18 11.5 -31t6.5 -30q1 -3 2.5 -9t2 -11t-1 -9t-6.5 -4q-3 0 -3.5 0.5
l-0.5 0.5q-1 2 -5.5 9.5t-9.5 15.5t-8.5 15t-3.5 9q-4 6 -8.5 16t-2.5 10zM226 652l-4 26q20 8 32.5 9t31.5 1h24q-8 -10 -15 -28.5t-14.5 -37t-16 -31.5t-18.5 -11q-9 22 -12.5 36.5t-7.5 35.5z" />
    <glyph glyph-name="FL00ADh" unicode="&#xad;" horiz-adv-x="463" 
d="M-19 269l1 -4q2 -2 7 -3.5l10 -3t9.5 -2.5t5.5 -1q3 1 8.5 5.5t10.5 10t9.5 11t5.5 8.5l272 -1q1 0 3 5.5t5 9.5q12 45 20 85.5t0 88.5q-3 11 -12 15t-19 4h-5l-25 -20q-3 -2 -10.5 -6t-8.5 -4l-263 1q-1 0 -2 -7.5t-3 -12.5q-3 -15 -7 -38.5t-7.5 -49t-5.5 -50t1 -41.5z
" />
    <glyph glyph-name="FL00AEh" unicode="&#xae;" horiz-adv-x="2343" 
d="M1967 589l-5 -5zM108 298l-35 194q-1 3 16.5 12.5t43 21t53 23.5t47.5 20l18 -104zM1439 744l126 -703h123l-126 703h-123zM485 297q3 -13 17.5 -23.5t24.5 -15.5q5 -5 8 -5q15 -8 53 -27t85.5 -42.5t98 -49t92.5 -46.5q23 -12 42 -22t32 -17l6 -2h-1q5 -4 13.5 -6
t31.5 -2l-22 131l-20 16q-49 20 -104 46t-106 55l158 114l27 31q-20 6 -30 10.5t-15 6.5q-8 4 -12.5 6t-5.5 3q-7 3 -20.5 9.5t-30 14.5t-35 16.5t-35.5 16.5q-11 5 -21 9t-18 9q13 9 37.5 24.5t50.5 32t48 31t31 20.5l14 14l-25 140l-381 -226q0 2 -2 0q-5 -5 -13 -11.5
t-18 -26.5l25 -21q6 -2 16 -7.5t24 -12.5q25 -12 50.5 -25t35.5 -18l-2 1q12 -7 26.5 -15t28.5 -17l-156 -104q-2 -7 -2.5 -8.5t-0.5 -6.5zM1758 199l9 -23q8 -6 25 -18.5t39 -28.5t46.5 -33.5t47 -33.5t40 -28.5t25.5 -18.5l12 -6l-2 1q6 -4 15.5 -8.5t16.5 -7.5l200 459
h-330q5 11 12.5 28t16 35t16.5 34.5t14 27.5q7 -4 16.5 -10t17.5 -11q11 -6 21 -12t15 -8q1 -1 4.5 -2t5.5 -3l-1 1q6 -2 15.5 -4l9.5 -2q8 8 9 10t3 5l39 68q-8 6 -30 23.5t-47 37.5t-47 37.5t-30 23.5l2 -1q0 1 -6.5 4.5t-14.5 8t-16.5 9t-13.5 7.5q-7 5 -14 7
q-3 3 -7 3.5t-17 0.5l-187 -459h323l-54 -128q0 -2 4 -2q-8 1 -19.5 10.5t-25.5 22.5q-20 16 -40 30t-46 21q-3 -2 -13 -10.5t-20.5 -18t-18.5 -17l-8 -7.5q-8 -6 -12 -14zM921 751l128 -715q28 7 37 10t14 7l-1 -1q3 2 7 3.5l4 1.5h-1q11 6 36.5 18t55.5 28q34 17 71.5 36
t72 36.5t62 31.5t40.5 21l-6 -1q5 2 11 8l9 9q2 4 2 5t-2 6l-1.5 4.5t-4.5 7.5l-161 227q-36 -13 -69 -30t-56 -29q1 -5 7 -18.5t11 -18.5l-2 2l64 -82q3 -3 15.5 -8t18.5 -5l-11 -10l-121 -58l-64 359l254 -35h15q5 2 9 9t6 9q1 6 1 22t2 31q2 13 2.5 25t2.5 17l-6 22
q-4 1 -11.5 3t-15.5 4t-15.5 4t-11.5 3q-22 2 -53 5.5t-66 8t-70.5 8.5t-66.5 7h1q-43 5 -71.5 8.5t-30.5 3.5h-41zM-72 569l94 -521h125l-4 25q-2 10 -3.5 24t-1.5 22q2 2 2 4l-1 -2q6 8 17.5 21.5t19.5 21.5l-1 -1q6 6 18.5 19t29 28.5t34 32.5t32.5 31l38 -219h136
l-131 727z" />
    <glyph glyph-name="FL00AFh" unicode="&#xaf;" horiz-adv-x="532" 
d="M-90 665l1 -4q2 -2 7 -3.5t10.5 -3t10 -2.5t5.5 -1q3 1 8 5.5t10.5 10t9.5 11t5 8.5l348 1q1 0 3 5.5t5 9.5q6 22 12 34.5t9.5 23.5t4 25t-3.5 38q-3 11 -12 15t-19 4h-5l-25 -20q-3 -2 -10.5 -6t-8.5 -4l-338 -1q-1 0 -2.5 -7.5l-2.5 -12.5q-3 -15 -7.5 -30t-8.5 -31
t-6.5 -32t0.5 -33z" />
    <glyph glyph-name="FL00B0h" unicode="&#xb0;" horiz-adv-x="1065" 
d="M498 56q2 -3 5.5 -8t7 -10.5t7 -10.5t5.5 -7q3 -4 5 -10.5t8 -9.5l16 52l-2 8q-7 11 -15 26.5t-10 29.5q-1 4 -0.5 6t5.5 2q4 0 8 -6.5t8 -15.5t9 -17t11 -11q1 0 3 2l12 22l3 3v1l-1 1l-29 33l-1 3q-1 7 8 7h2l39 -27l2 -1q3 0 6 3t6 5q2 1 11 3.5t12 4.5l-1 2l-9 4
t-13 6l-16 5l-19 10l76 64l4 4q-8 6 -13 6h-1q0 -1 -4 -4t-5 -4l-119 -91q-1 0 -3 -0.5l-2 -0.5h-3q-3 0 -8 4l-171 96h-2h-1l-8 -6l5 -4q26 -18 50.5 -32t54.5 -29l4 -3q-4 -5 -15 -9t-14 -6q-4 -2 -11 -6l-7 -4l1 -2q3 -2 11 -4.5t11 -3.5q4 -2 8.5 -5t7.5 -3v1q3 2 9.5 7
t11.5 10q3 4 5.5 7t5.5 3h1h2l3.5 -2t4.5 -3v-2q1 -5 -2 -9.5t-6.5 -8.5t-6 -8.5t-1.5 -9.5l2 -2q2 -3 10.5 -12t11.5 -11q0 -1 1 -2.5l1 -1.5l1 -1q1 0 1.5 0.5l0.5 0.5q1 2 3 10.5t3.5 17.5t3.5 16.5t3 7.5h1q0 -2 6 -2v-35t-5 -33zM444 124q-3 0 -1 -3q0 -2 2 -2q3 0 3 2
q-2 3 -4 3zM240 183q2 -8 0.5 -13.5t-4.5 -10t-5.5 -7t-2.5 -4.5q16 0 20.5 12.5t1.5 25.5v6q-6 14 -13 31.5t-11 28.5q-2 2 -3.5 5.5t-1.5 4.5q-16 23 -25.5 43.5t-14.5 46.5l-2 17q-7 28 3 49l-1 -4q4 -16 3 -31t1 -32q3 -19 11.5 -39.5t21.5 -38t30.5 -28.5t39.5 -11h2
q2 0 3 0.5t3 0.5h2q-4 0 -4 2q-1 0 -5.5 1t-9 2.5t-8 2.5t-2.5 2q-36 14 -53.5 44t-24.5 62q-2 17 -2.5 34.5t5.5 32.5q6 2 12.5 4.5t12 6t8.5 8.5t2 12l-2 7q-2 -13 -15 -21t-24 -8t-23 5t-14 17q-2 7 0 13.5t10 6.5q4 0 10.5 -4t7.5 -9l1 -2q0 -1 -0.5 -4.5l-0.5 -3.5
q0 -2 3 -2q3 1 4 8.5t1.5 17t0 18t-1.5 11.5l1 3l-4 14l-1 6q-2 11 -4.5 21t-4.5 21v3q9 -11 11.5 -26l4.5 -27q6 -38 0 -70q1 0 3 -0.5t3 -0.5q13 0 20 8.5t10 20.5t2.5 25.5t-2.5 22.5t-5.5 21t-9.5 23t-14.5 20.5t-18.5 13.5h-2q-5 0 -10.5 -6t-3.5 -12q-7 2 -6 9
q-2 8 11 14q-5 5 -15 5.5t-12 1.5q0 5 6 5h11q7 0 13.5 -4t13.5 -4h2q-17 26 -42 44.5t-54 18.5q-10 0 -20.5 -5t-7.5 -16l1 -4q-4 -2 0 -2q7 10 16 10q17 0 19 -19q2 -9 -4.5 -14.5t-14.5 -5.5q-14 0 -27 10.5t-15 24.5q-4 22 9.5 32.5t32.5 14.5l-1 4q-31 32 -55.5 72
t-32.5 82q-4 14 -2.5 27t-0.5 26l-1 3q-8 -18 -8.5 -38t3.5 -40q2 -13 5.5 -24.5t5.5 -24.5l2 -7q-13 22 -20.5 45.5t-11.5 46.5q-2 14 -3.5 23t-0.5 26h-1q-3 0 -5 -6t-3 -13.5t-1.5 -15t-0.5 -10.5l1 -4q1 -5 1 -9q0 -3 2 -8v-8q5 -19 12 -36.5t10 -37.5l1 -3
q-12 8 -21 23.5t-15.5 33t-11 34t-5.5 26.5q-6 0 -6.5 -8t1.5 -16l2 -8q4 -26 16.5 -51.5t28.5 -48.5l1 -3q-21 16 -34.5 38t-25.5 43l-3 3v-10q2 -15 8.5 -28t15 -25t17.5 -23.5t16 -24.5h-2q-1 0 -8.5 6.5t-11.5 10.5q-5 4 -11 11.5t-12 14.5t-11 12.5t-9 5.5
q5 -26 17 -46t32 -40v-1h-1l-2 1q-1 1 -6.5 3.5t-5.5 4.5q-2 1 -10 5.5t-10 5.5h-4q1 -11 10 -18.5t12 -17.5q-2 0 -6 0.5t-6 0.5q-1 0 -1 -1v0q0 -3 5.5 -8.5t12 -11t13 -10t9.5 -6.5l-2 -4h-25q4 -8 12.5 -12.5t16.5 -6.5l1 -3q-2 -1 -8.5 -4.5t-5.5 -6.5v-1l4 -2l25 -15
l2 -3q-3 -2 -7 -3.5t-6 -3.5l6 -6l34 -15l-21 -4l1 -4l6 -2t10 -3l23 -5q-5 -2 -12.5 -6t-12.5 -9l1 -1q2 -6 10 -7t10 -2t9.5 -1.5t9.5 -0.5q-2 -2 -10.5 -6t-12.5 -9l1 -2v-1l2.5 -2.5t2.5 -1.5h45q-7 -7 -14.5 -14t-5.5 -19q10 0 21 4.5t19 7.5h1h2l-23 -28q-3 -3 -3 -7
l-0.5 -0.5t-0.5 -1.5l1 -1h1q0 -1 3 -2t4 -1q3 1 11 3.5t10 4.5h1h2q-4 -4 -8.5 -11.5t-5.5 -12.5l1 -2q0 -1 3 -1h2q6 1 12 5t11 4h2q-5 -8 -9 -16t-2 -19q8 0 16 4t14 8q0 -2 -2.5 -7.5t-3.5 -10.5q0 -3 -0.5 -4t-0.5 -4q-2 -2 0 -3v-1q0 -3 6 -3q5 0 10 5t10 8
q-2 -7 -1 -13.5t1 -14.5h6q2 6 6 11t9 10l3 -10q3 -25 4.5 -46t8.5 -50q1 -13 -10 -13q-4 0 -6 0.5t-6 5.5q-1 1 0 1.5l1 0.5h9l-2 8h-5q-5 0 -9 -1t-2 -7q4 -16 21 -16q7 0 11 4.5t9 4.5q11 0 14 -11.5t5 -18.5q2 -11 0 -21t-16 -10q-7 0 -13 2.5t-8 10.5t2.5 13t10.5 5
q7 0 6 -6q0 -2 -0.5 -5t0.5 -6q4 0 6.5 3.5t1.5 7.5q-1 8 -6.5 10.5t-11.5 2.5q-11 0 -14.5 -7.5t-1.5 -18.5t11.5 -15t19.5 -4q14 0 19 10.5t3 22.5q-2 13 -8 25.5t-12.5 24.5t-13.5 24.5t-11 25.5h4q4 -17 13 -33t19 -32.5t18 -33t11 -33.5zM748 185q3 -12 10 -24t22 -12
h3q-10 8 -16.5 14.5t-9.5 18.5q-3 18 -0.5 35.5t6.5 35t7 34.5t2 35l2 -9q2 -13 1 -25t-3.5 -24t-3.5 -24t1 -25q2 -14 10.5 -23.5t22.5 -9.5q10 0 18 4t6 15q-2 10 -8.5 18t-17.5 8q-5 0 -10 -2.5t-4 -10.5q1 -5 3 -7t7 -4l-1 14q1 0 4 1.5t5 1.5q3 -2 7.5 -6.5t5.5 -6.5
q1 -1 1.5 -2.5t1.5 -2.5q2 -7 -4.5 -10t-12.5 -3q-14 0 -20 11t-7 22q-2 5 -1.5 16.5t8.5 11.5q7 0 12 -4.5t13 -4.5q6 0 12 5t1 14q-3 5 -9 5h-3h-5q-3 0 -3 -3q-1 -1 -1 -3l1 -2h10l1 -1.5t1 -3.5q1 -3 -3 -3h-5q-5 0 -7 1.5t-7 6.5l-3 13l-3 18l-3 20l-3 12q0 1 -1.5 6
t-3.5 11t-4 11.5t-2 6.5l1 7l-2 6l22 -21h7q0 8 -3 14t-5 12v2q6 -5 13.5 -9t15.5 -4q-2 8 -7 14t-6 14q8 0 13 -3t13 -3q-1 9 -7 17.5t-11 14.5v2q2 -2 10 -5.5t13 -3.5t4 4q0 5 -8.5 13t-11.5 10h1q8 0 16 -3.5t16 -3.5l-2 7l-39 33h2q11 0 21.5 -5.5t20.5 -5.5q7 0 6 4
l-1.5 1.5t-1.5 2.5q-4 2 -14.5 12t-12.5 12h42q1 0 2.5 1.5l2.5 2.5v1q-1 3 -5.5 5t-6.5 4q-2 1 -9 3.5t-10 4.5l34 5q4 0 2 5q-1 8 -10.5 9.5t-14.5 7.5l18 5q1 1 7 2.5t5 4.5l-1 2l-24 4q9 5 18.5 8.5t17.5 8.5l-1 4q-1 3 -6.5 4t-8.5 3q5 5 14.5 9.5t7.5 12.5q-2 5 -7 7
t-9 3q1 3 5 4.5t8 4t6.5 5.5t1.5 8h-29q7 11 16.5 18.5t16.5 21.5q-3 2 -10 2.5t-9 1.5q6 7 9.5 14t2.5 18h-3l-28 -19q-2 -3 -5 -3q9 17 18 36.5t5 41.5l-2 6q0 4 -5 4h-1q-7 -17 -14.5 -34.5t-23.5 -28.5l-1 1q-1 1 -0.5 1.5l0.5 0.5l8 10q6 20 12.5 42t3.5 46l-3 10l-3 3
q0 -1 -0.5 -3t-0.5 -3l-3 -22q-5 -18 -10 -32.5t-18 -25.5v2q6 26 10 50.5t0 53.5l-1 4l-4 13l-7 13h-2q2 -11 3 -28t0.5 -35t-4 -33.5t-10.5 -22.5l-1 3q-4 20 -2 40.5t-2 41.5q-5 16 -11 34.5t-20 32.5l14 -82q3 -16 2.5 -33t-7.5 -31v2l-1 2q0 17 -0.5 29.5t-2.5 29.5
l-1 1q-2 6 -4.5 17t-2.5 12q-1 2 -4 8.5t-6 14t-6.5 13.5t-5.5 7l-1 -4l6 -22t5 -22q9 -47 -2.5 -84t-29.5 -75v-2q20 -5 37.5 -13.5t22.5 -31.5q2 -14 -5.5 -25t-22.5 -11q-24 0 -30 23q0 6 4.5 10.5t11.5 4.5t10 -5.5t9 -5.5q-2 15 -14.5 21.5t-26.5 6.5q-27 0 -41.5 -17
t-25.5 -38q-2 -5 -1 -8v-2q10 10 25 10h9q7 0 9 -5q-2 0 -11 -1.5t-12 -3.5l1 -2q2 -2 8 -5t7 -6q1 -1 -3 -7q-2 -9 -3.5 -16.5t-1.5 -14.5t1.5 -15t3.5 -20l2 -8q1 -5 1.5 -9.5t1.5 -9.5l1 -3q1 -3 3.5 -11t5.5 -15.5t7 -13.5t7 -6l-3 19q-1 3 2.5 3.5t6.5 0.5h2
q15 0 20 -17q2 -12 -7.5 -17t-20.5 -5q-14 0 -27.5 8t-24.5 19l1 -5q2 -10 7.5 -14.5t12.5 -6.5t14.5 -4t12.5 -6q12 -14 17.5 -32.5t7.5 -34.5q8 -35 -2.5 -65t-40.5 -44q-5 -2 -13 -2.5t-8 -4.5q1 0 5 -0.5t6 -0.5q22 0 35.5 11.5t20 28.5t7 38t-3.5 39q-2 16 -7.5 30.5
t-9.5 28.5v3t1 3q8 -14 13 -31.5t7 -33.5q4 -22 2 -42.5t-5.5 -40.5t-5.5 -40.5t1 -42.5zM236 344q7 -32 25.5 -62t50.5 -47q5 2 9 7q-4 5 -11 7t-12 8q-22 25 -33.5 48.5t-19.5 55.5q-2 -2 -6 -5.5t-4 -4.5v-3q0 -2 1 -4zM655 242q6 -6 11 -6t7 2t6 7q15 20 24 43t3 52
q-2 5 -4 11.5t-7 6.5q1 -18 0 -31t-4 -24.5t-7.5 -22.5t-10.5 -25q-2 -6 -8 -7t-10 -6zM685 247q-1 0 -1 -2q-3 -3 1 -3q1 0 4 3q0 2 -4 2zM174 322q2 0 2 -1t-1 -1.5t-2 1.5v1h1zM800 395q3 0 3 -2t-2 -2h-1l-1 2q0 1 0.5 1.5zM732 420q3 0 3 -2t-2 -2q-1 0 -1 2v2z
M653 522q2 -12 6.5 -26t12 -25.5t18 -19.5t25.5 -8l1 3l-5 8q-3 4 -7 16t-6 14q-7 15 -7 25l-2 10q-4 20 -2 33.5t7 32.5l1 4h-2l-12 6h-1h-1q-13 -24 -15 -45.5t0 -50.5l1 3l-3 11l-1 4q-8 45 14 81h-2q0 -2 -3 -3.5t-4 -2.5q-14 -14 -15.5 -32t2.5 -38zM222 459
q-2 0 -2 -3q2 -2 3 -2q2 0 0 2q0 2 -0.5 2.5zM201 469l2.5 -1.5t3.5 -1.5v-2q1 -2 -2 -3t-6 -1h-3q-1 3 0 6t5 3zM695 469q2 0 3.5 -3.5l1.5 -3.5h-10q-2 7 5 7zM810 473q1 0 -1 -1q1 -3 0 -3q-3 0 -4 3q2 1 5 1zM201 489h2q6 0 6 -5q1 -3 -6 -3zM219 484q2 -1 2 -2t-2 -1
q-1 0 -1 1q0 2 1 2zM685 489q3 0 4.5 -3l2.5 -5h-9q-1 2 -1 5t3 3zM668 497l2 -6l1 -4q-3 -3 -4 4q-2 6 1 6zM201 562l-1 2q4 -5 7 -11t5 -12l4 -24l1 -5l2 -15l2 -6q-2 6 -5.5 22t-4.5 22q-2 6 -6 13t-4 14zM199 509q3 0 6 -0.5t4 -3.5v-1q0 -2 -2 -2l-1.5 -0.5t-2.5 -0.5
q-3 0 -3 3t-1 5zM675 509h2q6 0 8 -2q0 -1 -1 -3l-1 -2l-2 -1h-1q-3 0 -3.5 3t-1.5 5zM195 527q0 4 3.5 4.5t5.5 0.5q-1 -2 -1 -5t-4 -3q-3 0 -3 3h-1zM669 527q0 4 3.5 4.5t4.5 0.5q-1 -2 -1 -5t-2 -3h-2q-2 0 -2 3h-1zM667 553l4 4q3 1 4.5 -1t1.5 -3q1 -3 0.5 -5.5
t-3.5 -0.5q-1 0 -3.5 2t-3.5 4zM189 554h7l1 -5h-7zM182 585q0 1 2 3q4 -4 7.5 -8.5t5.5 -9.5l1 -3q-3 2 -8 8.5t-7 9.5h-1zM168 572l2 -1q0 -1 -1.5 -1.5t-1.5 1.5v0q0 1 1 1zM175 573v1h1q0 1 1.5 3t1.5 3q3 -2 3 -4l2 -5v-2q-2 0 -5 0.5t-4 3.5zM674 574q-2 6 3 6
q3 0 5 -6q2 -5 -4 -5q-2 0 -4 5zM88 589q-2 8 1.5 14.5t11.5 6.5h2q-2 -2 -5.5 -6.5t-4.5 -5.5l2 -7q0 -8 6 -12.5t14 -6.5q-1 0 -2.5 -0.5t-3.5 -0.5q-19 0 -21 18zM761 589q-2 7 -7.5 12.5t-12.5 8.5h1q8 0 15 -6.5t9 -14.5q2 -18 -16 -18h-3q-3 0 -5 1q5 2 12.5 5.5
t6.5 11.5zM164 578v-1l2 -2q0 -1 -1 -1t-1 1q-2 3 0 3zM180 592l1 -0.5t2 -2.5q0 -1 -1 -1h-1q-2 0 -2 1q0 3 1 3zM178 595q1 0 1 -3q1 -3 0 -3q-2 0 -3 3q0 3 2 3zM174 598q1 0 3 -3q0 -3 -2 -3t-2 3q-2 3 1 3zM181 641q4 -18 19 -31l-6 30l6 3.5t15 8l18 9l15 7.5
q26 12 55.5 18.5t58.5 11.5q6 1 11.5 1.5t10.5 0.5h24q57 0 115.5 -15.5t113.5 -41.5q0 -1 1 -2l1 -1l5 -27q8 1 9 11t-1 16q0 7 -1 10q-8 8 -22 13.5t-22 9.5q-53 20 -100.5 31t-98.5 11q-49 0 -92.5 -8.5t-85.5 -27.5q-5 -3 -12 -7t-14 -7.5t-12 -6.5l-5 -3l-4 -5
q-1 0 -2 -3.5t0 -5.5zM107 615q2 0 2 -2q1 -3 -1 -3t-3 3q0 2 2 2zM734 615q3 0 3 -2q1 -3 -2 -3q-2 0 -3 3q0 2 2 2zM114 632q-2 11 6 11q9 0 12 -9q1 -3 0.5 -8t-5.5 -3q-8 1 -9.5 2.5t-3.5 6.5zM164 625h1l2 -2q0 -2 -1 -2.5l-1 -0.5q-2 0 -2 3q-2 2 1 2zM731 665h4
q-20 -4 -33 -15t-23 -27h-3q8 14 21.5 28t33.5 14zM151 634q1 0 1 1l4 -4t5 -3l1 -3q-2 0 -5 3l-5 5zM703 634q-1 4 2 6.5t6 2.5q10 0 12 -11q3 -7 -8 -7q-3 0 -6.5 2t-5.5 7zM148 640q2 0 2 -2v-3q-4 0 -4 3q0 2 2 2zM-47 643q2 0 2 -3q2 -2 -1 -2q-1 0 -3 2q0 3 2 3z
M103 663h3q10 0 22 -7.5t17 -15.5q-1 0 0 -1h-1l-2 1q-1 1 -6 5.5t-6 4.5q-4 2 -14 6.5t-13 6.5zM98 665q0 -1 -4 -1q-3 0 -3 1q-1 1 3 1t4 -1zM-41 721q2 0 4 -3q0 -3 -2 -3q-3 0 -3 3q-2 3 1 3zM-35 746q2 0 4 -3q0 -2 -3 -2q-2 0 -2 2q-2 3 1 3zM-24 766l2 -3q0 -2 -1 -2
q-3 0 -3 2q-2 3 2 3zM0 769q2 0 2 -3q1 -3 0 -3q-3 0 -4 3q0 3 2 3zM-4 773l1 -2v-2q-2 0 -2 2t1 2zM777 925q-1 0 -1 -3q0 -2 3 -2v2q0 3 -2 3z" />
    <glyph glyph-name="FL00B1h" unicode="&#xb1;" horiz-adv-x="525" 
d="M-38 378l1 -4q2 -2 7 -3.5l10 -3t9.5 -2.5t5.5 -1q6 2 18.5 7t14.5 11h105l23 -126q0 -1 6.5 -4.5t11.5 -5.5q24 -10 35.5 -17.5t20 -12t20 -6.5t35.5 -2q11 0 14 8t1 18l-8 29q-3 4 -7.5 11.5t-5.5 8.5l-18 100h115q1 0 3.5 5.5t4.5 9.5q6 22 11.5 33.5t8.5 21t3 21.5
t-4 36q-3 11 -12 15t-19 4h-5l-23 -8q-3 -2 -9.5 -6t-7.5 -4h-89l-20 110q0 1 -8.5 4.5t-13.5 5.5q-17 5 -30 12t-25.5 13t-26 10.5t-30.5 4.5h-4q-3 -4 -4.5 -16t-0.5 -14q4 -7 7 -20t10 -17l18 -94h-121q-1 0 -3.5 -7.5t-3.5 -12.5q-2 -15 -6.5 -28t-8 -26t-6 -27t0.5 -31
zM25 34l1 -4q2 -2 7 -3.5l10 -3t9.5 -2.5t5.5 -1q6 2 18.5 7t14.5 11l347 1q1 0 4 5.5t5 9.5q6 22 11.5 33.5t8.5 21t3 21.5t-4 36q-3 11 -12 15t-19 4h-5l-23 -8q-3 -2 -10 -6t-8 -4l-337 -1q-1 0 -3.5 -7.5t-3.5 -12.5q-2 -15 -6.5 -28t-8.5 -26t-6 -27t1 -31z" />
    <glyph glyph-name="FL00B2h" unicode="&#xb2;" horiz-adv-x="1671" 
d="M1228 298l-2 1zM1257 643l-10 56h6l10 -56h-6zM388 677q0 -10 1.5 -19t2.5 -12q-3 -3 -4 -3q-5 0 -2 3q-1 3 -3.5 12t-4.5 19q-2 6 -4 11.5t-3 10.5h14q0 -10 3 -22zM735 677q0 -10 1.5 -19t2.5 -12q-3 -3 -4 -3q-5 0 -2 3q-1 3 -3.5 12t-4.5 19q-2 6 -4 11.5t-3 10.5h14
q0 -10 3 -22zM951 437q-6 2 -10 6.5t-5 6.5l-16 88q-1 3 4 4l10 2l19 -108q-1 0 -1.5 0.5zM1432 696l27 -148q1 -2 0 -7t-3 -7h-1l-3 1q-3 0 -3 2q-2 0 -2.5 0.5l-0.5 0.5l-31 163q5 -1 11 -2t6 -3zM1063 83h-7q-2 0 -2 2q-2 0 -2.5 0.5l-0.5 0.5l-46 255q-2 10 5.5 16
t16.5 8l50 -279q-2 2 -14 -3zM1207 742l22 -122h56q5 0 8.5 9.5t4.5 15.5l-1 6q-2 6 -2.5 15.5t-2.5 14.5q-1 2 -2 6.5t-3 10.5l-3 19q-10 20 -22.5 23.5t-25.5 3.5h-4q-2 0 -5 -0.5t-6 -0.5q-2 -1 -8 -1h-6zM334 742l22 -122h57q5 0 8 9.5t4 15.5l-4 17q-2 6 0 13l-3 11
q-1 2 -2.5 8t-1.5 11l-6 23q-12 11 -22 13t-22 2h-3q-2 0 -4.5 -0.5t-5.5 -0.5h-17zM584 546q8 2 16.5 5.5t7.5 15.5l-3 10q-2 15 -6.5 31t-6.5 22l-2 8h-36l-11 61h76l31 -164h-83q1 5 6 7t11 4zM1121 551q3 2 8 7.5t3 9.5l-2 9q-2 15 -6.5 31t-6.5 22l-2 8h-35l-11 61h75
l31 -164h-72l-0.5 0.5t-1.5 2.5l-4 3v2q2 2 12 5t12 3zM681 742l23 -126q17 0 33 2t23 2q4 0 8.5 6.5t3.5 10.5l-16 88q-2 12 -12.5 15.5t-20.5 3.5q-3 0 -4.5 -0.5t-3.5 -0.5h-2q-2 0 -5.5 -0.5t-7.5 -0.5h-19zM1175 336q-2 0 -7.5 1t-12.5 3l40 -225q2 -8 -6 -15t-16 -9
l-45 252h-55l-3 21h137q-1 -13 -10 -20.5t-22 -7.5zM1123 762q-1 2 1.5 -4t6.5 -11h-104l23 -132h50l6 -26h-50l15 -82h99l3 -21h-125l-41 229q-5 34 14 44.5t47 10.5q10 0 25.5 -1t29.5 -2q-1 -1 0 -5zM525 747l-18 -31l18 -101h49l6 -26h-49l15 -82h99l3 -21h-125l-44 249
q-2 11 4.5 17.5t16.5 10t21 4.5t19 1h8q14 0 27 -1.5t33 -10.5l-4 -9h-79zM1347 60l-23 126h-44l-31 178h21l24 -134q8 0 15.5 -0.5t16.5 -1.5q8 -1 17 -1.5t15 -0.5q3 1 10 6.5t5 10.5l-20 123q20 -7 25 -25l21 -118q2 -13 -13 -24t-28 -18l-6 -3l24 -138zM1418 743h-2
q-3 0 -8 -0.5t-10 -2t-8.5 -5.5t-2.5 -10l35 -197q4 -13 17 -15t19 -2h2q3 0 8 0.5t9.5 2t7 5t0.5 9.5l-35 197q-2 13 -14 15.5t-18 2.5zM229 514q7 -1 13.5 -1.5t11.5 -0.5q5 1 12 6t5 10l-41 239h21l46 -258q0 -1 -2.5 -6.5t-4.5 -9.5l-2 -3q-2 -2 -1 -3l1 -1h-112
l-44 249q-2 7 4 16t13 14l10 -5l42 -244q9 0 14.5 -0.5t13.5 -1.5zM66 358q2 -11 8 -29.5t16 -37.5t22 -32.5t26 -13.5q8 0 13.5 2t10.5 5q5 2 9 4t18 2q-3 19 -12 32t-19 24t-18.5 22t-10.5 26q-2 12 3 20.5t15 14t22 8.5t23 3h307l-1 14l-358 5q-12 0 -26 -6t-25.5 -16
t-18 -22.5t-4.5 -24.5zM955 584h-73l19 -98h-21l-49 269l1 -0.5t3 1.5l4 3q2 1 5 2t8 3l25 -144h73l-24 140q30 -1 35 -35l51 -285q3 -10 -0.5 -21.5t-15.5 -11.5q-2 0 -5.5 1t-3.5 2zM1044 448h222l3 5t5 11l2 5.5t2 7.5q-1 3 -1 10v18t-0.5 19.5t-1.5 16.5h7
q3 -11 8.5 -31.5t11 -42.5t10 -41t5.5 -26l3 -19q2 -8 4.5 -25.5t4.5 -38t4 -39.5t3 -29h-4q-4 0 -11 0.5t-8 3.5l-26 144h-244zM-42 796l18 -107q6 0 19 -1.5t27 -3t26 -3t17 -2.5h-1q6 -2 16 -11t11 -12l31 -170h-122q-2 0 -10.5 9.5t-15.5 15.5q-1 1 1 3l-1 3h107
l-21 117q-5 0 -18 0.5t-27.5 2t-27.5 3.5t-18 4q-4 2 -13.5 10t-10.5 12l-24 138l2 6.5t5 9.5q2 2 2 3q0 2 2 8h115l-1 2l26 -21l-3 -16h-111zM944 402h-132l49 -279h125q2 0 4.5 -5.5t3.5 -10.5l1 -9q1 -5 1.5 -9t-4.5 -6h-8q-5 0 -8.5 -0.5t-7.5 -0.5h-43q-18 0 -36.5 1.5
t-34 7.5t-27 18.5t-15.5 35.5l-43 236q0 5 1 14t3.5 17.5t7.5 14.5t12 6h119q5 0 16 -10t16 -21zM354 486l-50 281h18q4 0 7.5 0.5t7.5 0.5h33q9 0 20 -1.5t20.5 -5.5t16 -10.5t8.5 -15.5l21 -116q-3 -5 -6 -16t-5 -14h-88l18 -103h-21zM789 707l1 -13q3 -17 4 -31.5
t1 -27.5t0.5 -25.5t2.5 -27.5l1 -5q2 -5 8 -10q8 -8 5 -9q2 -5 5 -16.5t5 -24.5q2 -9 4 -17t4 -14h-25l-19 98h-83l19 -98h-21l-50 281h99l30 -25v-1q2 -5 4.5 -15t4.5 -19zM974 364h3l1 -3l25 -204l-5 -5h-119l-37 203q12 1 31 2.5t39 3t37 2.5t25 1zM1312 584h-83l19 -98
h-21l-51 285q5 0 9.5 0.5t9.5 0.5q7 0 13 0.5t13 0.5q26 0 49.5 -7t37.5 -33l5 -26q-1 -5 0 -8t2 -7l3 -11q2 -13 3 -25.5t-1 -23.5q1 -12 1.5 -24t2.5 -26l1 -5q2 -4 6.5 -15.5t9.5 -16.5l25 -139q-6 4 -14 8.5t-9 5.5zM1413 768h18q13 0 26.5 -4.5t15.5 -18.5l45 -243
l-14 -16h-86q-2 0 -7 4t-9.5 9.5t-8.5 11t-4 7.5l-38 207q-2 14 3 22.5t14.5 13t21 6t23.5 1.5zM1220 300l24 -126q2 -6 13 -11h-1l4 -2t7 -3q31 -13 42 -38t14 -49q3 -15 6.5 -28t10.5 -23t17.5 -15.5t28.5 -5.5q7 0 19 2t11 16l-26 135l38 39q-5 21 -10.5 48.5t-11.5 55.5
q-8 42 -13 84.5t-3 78.5q-1 4 2 4q2 0 9 -3.5t10 -5.5h112q4 0 9 6t9.5 13.5t7.5 15.5t2 11l-41 236q-7 34 -29.5 45.5t-47.5 11.5h-27q-26 0 -45.5 -3.5t-33.5 -24.5q-7 4 -16 9t-11 7q-5 2 -14 6.5t-11 4.5h-119q-4 0 -12.5 -6t-15.5 -12l-19 18h-5q-5 0 -8 1
q-7 1 -15 1.5t-13 0.5q-17 0 -29.5 -4t-25.5 -9l1 1q-11 -4 -19.5 -7.5t-18.5 -3.5q-14 0 -34 11q-9 5 -19.5 9t-27.5 4l27 -149q0 2 -7 -1q-4 -1 -4.5 -1.5l-0.5 -0.5h-5h-1q-6 0 -3 4l-1 1l-3 13q-2 8 -3 18.5t-4 20.5q-1 11 -3.5 21.5t-3.5 18.5l-3 15q-1 2 -0.5 3.5
t-0.5 2.5q-7 18 -10 24.5t-19 6.5q-2 0 -4 -0.5t-4 -0.5h-3q-1 0 -6.5 -2.5t-11.5 -5.5t-12 -6.5t-9 -5.5q-1 -1 -3 -1t-3 1l2 -1q-5 2 -18 9.5t-16 11.5h-135l-14 -29l-1 4v3q0 3 -3 8q-11 10 -24 13t-26 3q-5 0 -8 -0.5t-7 -0.5h-11q-17 0 -27 -3.5t-21 -7.5
q-8 -4 -16.5 -7t-18.5 -3h-4l-43 20h-193l-14 -24l41 -231q-1 -1 -9 -1q-7 0 -7 3l-43 236q-1 4 -8.5 9t-12.5 8h-14q-3 -1 -10.5 -5.5t-15 -10t-13.5 -11.5t-6 -9l14 -73h-5q1 0 1 -1h1q-20 8 -34 11.5t-27 5.5q-23 4 -38 10.5t-18 26.5l-2 6q-2 6 -2 13q0 8 3 8h99
q5 0 8 11l1 -1q0 1 1 3.5t2 7.5l-1 13q-2 2 -9.5 13t-15.5 16v-3l-4 18h-27v5l-119 5q-11 0 -18 -6.5t-11.5 -15.5t-6 -18t-1.5 -14l1 -15q2 -8 4 -20l4 -31q8 -45 20.5 -70t27 -36.5t29.5 -14t29 -2.5q15 -1 27 -5.5t17 -28.5l3 -10q0 -7 0.5 -15t-1.5 -8h-99q-4 0 -8 -7.5
t-6 -12.5l2 -6q1 -9 6 -19.5t12.5 -19.5t17.5 -15.5t22 -6.5h310q2 2 7.5 5.5t7.5 3.5l2.5 -1t5.5 -3h-1q10 -5 14 -5h4q5 0 11 -0.5t10 -0.5h12q4 0 9 0.5t7 0.5q4 7 6 18.5t3 24.5t0.5 25t-1.5 20q8 2 15.5 4t15.5 4q11 3 22.5 6t24.5 4l19 -111h101q-2 -8 -2.5 -16.5
t0.5 -10.5l1 -4q-2 -6 -1 -8q2 -8 7 -13t11 -10h-1q4 -3 7.5 -6t4.5 -8q2 -11 -1.5 -19.5t-8.5 -16.5l-7 35q-1 5 -10.5 10.5t-16.5 6.5q-6 2 -17.5 2.5t-19.5 0.5h-8h-8l7 -47q-10 6 -23.5 13t-27 13t-25 11t-16.5 7h-5q-5 1 -13 1.5t-16 0.5h-11q-29 0 -54.5 -6.5
t-49.5 -15t-48.5 -15t-49.5 -6.5q-3 0 -9 0.5t-30 4.5l45 -37q5 1 15 1h15q36 0 64.5 -6t67.5 -6q14 0 22.5 3.5t18.5 7.5q11 5 20.5 8t20.5 3h3q-1 -1 -4 -1h1q-10 -3 -17 -7h1q-6 -3 -13.5 -10.5t-14.5 -15t-12 -13.5l-5 -6l4 -32q6 0 17 2t13 3h-1q5 2 10 13q4 6 6 7
q0 1 2 1q13 0 33 -5q3 -1 13 -3q2 -1 2 -2q0 -2 2 -3q4 -10 4 -9q-1 -4 -4 -5q-2 1 -7 1h-9h-49q-15 0 -17 -1h1q-13 -3 -20 -8t-10.5 -12.5t-4 -16t-0.5 -17.5q0 -13 -3 -25t-19 -23q5 -14 14 -17.5t17 -3.5h7q17 0 27 6t22 23l8 -3q-24 -32 -46.5 -54t-60.5 -39l3 -23
q36 0 78 15.5t83 42t78 61.5t63.5 74.5t39 80.5t5.5 80q-2 14 -15.5 31t-28.5 31h86l27 23l-13 75h11l22 -73l2 -6l-42 -49l57 -308q5 -23 23.5 -39.5t43.5 -16.5h249l-45 252q1 1 3 1q3 0 3 1q5 1 11 1.5t8 0.5q2 -1 6.5 -2l4.5 -1l41 -236q2 -6 13 -11h-1q2 -1 4.5 -2.5
t8.5 -3.5h13q3 1 10 5.5t14.5 10.5t13 11.5t4.5 9.5l-38 206q0 13 9 13q5 0 9 -1t9 -2q1 -1 4 -1q4 0 3 -1z" />
    <glyph glyph-name="g" unicode="&#xb3;" horiz-adv-x="1671" 
d="M1232 303l24 -133q0 -1 6.5 -4.5t10.5 -5.5q34 -16 46 -42.5t17 -52.5q3 -14 6 -26t9 -21t15.5 -14t24.5 -5q5 0 15 1.5t8 9.5l-25 140l39 40q-7 28 -14 62t-13 70t-9.5 71.5t-3.5 66.5q0 2 3 6t5 4q3 0 11.5 -4t10.5 -6h110q3 0 7 5t7.5 12t6 13.5t1.5 9.5l-42 240
q-6 31 -25.5 41t-42.5 10h-28q-26 0 -44.5 -4t-31.5 -27q-4 2 -17.5 10t-17.5 10q-5 2 -12.5 6t-8.5 4h-120q-3 -2 -10 -5.5l-9 -4.5h-5q-20 0 -34.5 5.5t-39.5 5.5q-14 0 -24 -3.5t-19.5 -7l-19 -7t-21.5 -3.5q-9 0 -18 3.5t-18 8t-18.5 8.5t-19.5 4l26 -144q0 -1 -6 -4.5
t-9 -5.5h-5h-5q-2 1 -5 4.5t-5 5.5q-2 6 -4 22t-5 33q-5 17 -7.5 33t-2.5 22q-7 18 -9.5 24.5t-15.5 6.5q-2 0 -6 -0.5t-5 -0.5t-6.5 -3t-12 -6.5t-12 -6.5t-6.5 -4l-2 -0.5t-3 -0.5t-3 0.5l-2 0.5q-2 1 -7 4t-10.5 6t-10 5.5t-5.5 4.5h-130l-17 -20q-16 20 -38.5 20.5
t-42.5 0.5q-14 0 -24 -3.5t-19.5 -7l-19 -7t-21.5 -3.5h-5l-43 20h-190l-12 -20l43 -238q-2 0 -6.5 -1t-9.5 -1q-13 0 -16 10l-43 240q-1 1 -7 4.5t-9 5.5h-5h-5q-3 -1 -10 -5t-13.5 -8.5t-11.5 -9t-4 -7.5l13 -77l-5 -2.5t-10 -0.5q-22 9 -42.5 12.5t-37 8t-28 13
t-14.5 26.5l-1 6q-2 8 -2 18q0 11 8 11h100q1 0 3 6t5 9l-1 5q-2 7 -6.5 16.5t-11.5 18t-15 14.5t-17 6h-120q-9 0 -15 -6t-9.5 -14t-5 -16.5t-1.5 -13.5l1 -13q2 -9 4 -19.5t3 -19.5l3 -13q9 -49 22 -73.5t28 -34t31 -10t29.5 -2t24 -9t15.5 -31.5l2 -10q1 -9 1.5 -19.5
t-6.5 -10.5h-100q-1 0 -4 -5.5t-5 -9.5l2 -5q1 -8 5 -17.5t10.5 -17.5t15 -14t18.5 -6h310q2 2 8.5 6t9.5 4q2 0 11 -5t11 -5q1 0 11 -0.5t15 -0.5q3 0 12 0.5t12 0.5q5 7 7 20.5t1.5 27.5t-2 26t-2.5 16q24 4 46 11t46 7l21 -113h105q-2 -4 -3 -17.5t-1 -17.5q1 -1 0 -5
t0 -6q2 -7 6.5 -11l9 -8t8.5 -8t5 -11q3 -16 -4 -29t-18 -22l-8 50q-1 2 -9 5.5t-14 4.5q-7 2 -20 2.5t-20 0.5h-5l11 -53q-6 4 -21 11.5t-31.5 15.5t-31.5 14.5t-22 8.5q-2 0 -11.5 1t-20.5 1h-11q-30 0 -56.5 -7.5t-52.5 -16.5t-52.5 -15t-57.5 -3l23 -20q26 2 46 0.5
t38 -4t35.5 -5t40.5 -2.5q12 0 22 3.5t19.5 7.5t19.5 7.5t23 3.5q3 0 13 -0.5t13 -0.5q-2 -6 -6.5 -9t-10 -4.5t-11 -2.5t-9.5 -4q-5 -3 -13 -9.5t-15 -13t-11.5 -11.5t-4.5 -6l6 -25q2 0 9.5 2t9.5 3t7.5 10t7.5 10q3 1 11.5 0t17.5 -2.5t17 -3t11 -1.5q1 -4 3.5 -9t4 -9.5
t0.5 -8.5t-7 -6q-3 1 -17 1h-24h-25q-13 0 -14 -1q-22 -4 -26.5 -16.5t-5 -28t-2 -31t-17.5 -24.5q3 -10 11 -10.5t15 -0.5q18 0 27.5 6t21.5 25l22 -10q-25 -35 -49.5 -58.5t-63.5 -41.5l3 -13q35 0 75.5 15.5t80.5 42t75.5 61.5t61 74.5t38 80.5t5.5 79q-2 9 -8 19
t-13.5 19.5t-15.5 17.5l-14 14h100l20 20l-14 80h25l24 -80l1 -6l1 -4l-41 -50l55 -310q5 -20 22 -35t39 -15h245l-46 256q4 0 16.5 2.5t17.5 1.5q3 -1 9.5 -4.5t5.5 -5.5l44 -240q0 -1 7 -4.5l11 -5.5h5h5q3 1 9.5 5t13.5 8.5t12 9t4 7.5l-38 210q-3 13 2.5 16.5t14 3
t17.5 -3.5t14 -3zM837 360q7 1 26.5 3t41.5 3.5t42 2.5t28 1h10l2 -10l27 -210l-8 -10h-130zM1287 390h-247v65h230q1 0 2.5 10t2.5 15v13t-0.5 21.5t-1 22t-1.5 13.5h20q2 -8 8 -29.5t12 -45.5t11 -45.5t6 -29.5l3 -10v-10q2 -8 4.5 -28t5 -42.5t4 -42t1.5 -27.5
q-1 0 -4.5 -0.5t-5.5 -0.5q-5 0 -15 1.5t-10 9.5zM65 357q3 -10 9 -28t14.5 -36t19.5 -31t23 -13q14 0 22.5 6.5t22.5 6.5q-3 14 -12 25t-18.5 22t-18 23t-11.5 29q-3 13 3 23.5t17 17t24.5 10t25.5 3.5h310l-360 5q-11 0 -24 -5.5t-23.5 -14.5t-17.5 -20.5t-6 -22.5z
M941 553l24 -126q-2 0 -5.5 1t-5.5 2q-6 3 -14 10.5t-9 9.5l-17 90q-1 4 2.5 7t8.5 4t10 1.5t6 0.5zM547 635l-13 75h90l33 -180h-98q-3 13 3 17.5t14.5 6.5t15.5 4.5t7 11.5q0 8 -2.5 19t-5.5 21t-5.5 17.5l-2.5 7.5h-36zM1092 546v4q1 1 5 3t9 3.5t9.5 2.5t5.5 1
q2 1 5.5 4.5t2.5 5.5q0 8 -2.5 19t-5.5 21t-5.5 17.5l-2.5 7.5h-36l-13 75h90l33 -180h-80q-2 0 -6 4t-7 6zM1413 713q1 0 6 -0.5t10.5 -1.5t10 -4t4.5 -7l28 -150q1 -2 -1 -10t-4 -10l-2.5 -0.5t-4.5 -0.5q-1 0 -2 0.5l-1 0.5l-7.5 5t-5.5 5zM360 710h28q1 -3 2 -11.5
t1.5 -18.5t1.5 -18.5t2 -11.5q1 -2 -3.5 -6t-6.5 -4t-5.5 4t-4.5 6zM710 710h28q1 -3 2 -11.5t1.5 -18.5t1.5 -18.5t2 -11.5q1 -2 -3.5 -6t-6.5 -4t-5.5 4t-4.5 6zM1244 710h20l11 -70h-20z" />
    <glyph glyph-name="FL00B4h" unicode="&#xb4;" horiz-adv-x="361" 
d="M174 809l-150 -1q-2 0 -4 -4t-4 -6q-11 -12 -28 -38t-33.5 -52.5t-28 -47.5t-11.5 -22l5 -21q30 0 51.5 -0.5t40.5 -0.5t37.5 0.5t41.5 2.5q3 13 20 36t35 48t32 48.5t12 37.5q-1 5 -4.5 12.5t-11.5 7.5z" />
    <glyph glyph-name="FL00B5h" unicode="&#xb5;" horiz-adv-x="1065" 
d="M498 56q2 -3 5.5 -8t7 -10.5t7 -10.5t5.5 -7q3 -4 5 -10.5t8 -9.5l16 52l-2 8q-7 11 -15 26.5t-10 29.5q-1 4 -0.5 6t5.5 2q4 0 8 -6.5t8 -15.5t9 -17t11 -11q1 0 3 2l12 22l3 3v1l-1 1l-29 33l-1 3q-1 7 8 7h2l39 -27l2 -1q3 0 6 3t6 5q2 1 11 3.5t12 4.5l-1 2l-9 4
t-13 6l-16 5l-19 10l76 64l4 4q-8 6 -13 6h-1q0 -1 -4 -4t-5 -4l-119 -91q-1 0 -3 -0.5l-2 -0.5h-3q-3 0 -8 4l-171 96h-2h-1l-8 -6l5 -4q26 -18 50.5 -32t54.5 -29l4 -3q-4 -5 -15 -9t-14 -6q-4 -2 -11 -6l-7 -4l1 -2q3 -2 11 -4.5t11 -3.5q4 -2 8.5 -5t7.5 -3v1q3 2 9.5 7
t11.5 10q3 4 5.5 7t5.5 3h1h2l3.5 -2t4.5 -3v-2q1 -5 -2 -9.5t-6.5 -8.5t-6 -8.5t-1.5 -9.5l2 -2q2 -3 10.5 -12t11.5 -11q0 -1 1 -2.5l1 -1.5l1 -1q1 0 1.5 0.5l0.5 0.5q1 2 3 10.5t3.5 17.5t3.5 16.5t3 7.5h1q0 -2 6 -2v-35t-5 -33zM444 124q-3 0 -1 -3q0 -2 2 -2q3 0 3 2
q-2 3 -4 3zM344 237l163 -91h3q5 0 9 3q6 5 18 14t24 17t21 14.5t10 7.5q5 4 13 10.5t16 12.5t13.5 11t5.5 6l-3 20q-2 8 5.5 9t15.5 1h7q8 2 12.5 12.5t6 23.5t1 26t-1.5 20l-1 3v8l-1 3q-15 5 -23 5q-1 3 2.5 3.5t6.5 0.5h7q4 0 4 3q-6 8 -12.5 16t-8.5 18q1 4 1 9t1 11
q1 -3 4 -8.5l6 -11t7 -10t7 -4.5h3q0 1 2.5 3t3.5 2h2q7 0 9.5 -7t5 -15t5.5 -14.5t11 -5.5l2 -5v-11l1 -3q6 -30 -3 -51t-27 -41l1 -1q5 0 9.5 3.5t9.5 7.5q20 17 22 42t-3 53q-2 13 -6.5 13.5t-8.5 7.5q-4 10 -8 21t-13 17q-4 2 -10 2q-4 0 -8 2q-6 6 -12 20.5t-11.5 31
t-9.5 32t-6 23.5q-4 20 -3.5 40t-2.5 40l-2 13l-3 13q-110 55 -223 55q-57 0 -103.5 -13t-91.5 -37q-3 -2 -6.5 -4t-2.5 -6q5 -26 12 -51t11 -50q3 -20 5 -38t4 -37l-2 -4l-2 -28q0 -2 -2 -2h-2h-9h-1q-11 -5 -11.5 -19.5t-1.5 -23.5q-10 3 -9 -7l1 -4q2 -5 -1 -9l1 -4
q8 -35 25.5 -60.5t55.5 -40.5l-1 2q-5 7 -19.5 17t-22.5 21q-11 14 -17.5 27t-9.5 30l-1 7q0 4 2 7.5t8 3.5q-1 3 -1 8t0.5 10.5t0.5 9.5v7q1 7 1.5 5.5t5.5 -1.5q4 0 5 -2t4 -2t6 4t5 9.5t2.5 10.5t0.5 7h1q5 0 6 -7.5t0 -8.5q2 -11 -1.5 -18.5t-2.5 -16.5l1 -2q2 0 8 -1
t9 -2l2 -2q-4 0 -12 -1.5t-6 -8.5q2 -9 5 -22t8 -26t12.5 -24.5t17.5 -18.5q20 2 29.5 -4t11.5 -26zM240 183q2 -8 0.5 -13.5t-4.5 -10t-5.5 -7t-2.5 -4.5q16 0 20.5 12.5t1.5 25.5v6q-6 14 -13 31.5t-11 28.5q-2 2 -3.5 5.5t-1.5 4.5q-16 23 -25.5 43.5t-14.5 46.5l-2 17
q-7 28 3 49l-1 -4q4 -16 3 -31t1 -32q3 -19 11.5 -39.5t21.5 -38t30.5 -28.5t39.5 -11h2q2 0 3 0.5t3 0.5h2q-4 0 -4 2q-1 0 -5.5 1t-9 2.5t-8 2.5t-2.5 2q-36 14 -53.5 44t-24.5 62q-2 17 -2.5 34.5t5.5 32.5q6 2 12.5 4.5t12 6t8.5 8.5t2 12l-2 7q-2 -13 -15 -21t-24 -8
t-23 5t-14 17q-2 7 0 13.5t10 6.5q4 0 10.5 -4t7.5 -9l1 -2q0 -1 -0.5 -4.5l-0.5 -3.5q0 -2 3 -2q3 1 4 8.5t1.5 17t0 18t-1.5 11.5l1 3l-4 14l-1 6q-2 11 -4.5 21t-4.5 21v3q9 -11 11.5 -26l4.5 -27q6 -38 0 -70q1 0 3 -0.5t3 -0.5q13 0 20 8.5t10 20.5t2.5 25.5t-2.5 22.5
t-5.5 21t-9.5 23t-14.5 20.5t-18.5 13.5h-2q-5 0 -10.5 -6t-3.5 -12q-7 2 -6 9q-2 8 11 14q-5 5 -15 5.5t-12 1.5q0 5 6 5h11q7 0 13.5 -4t13.5 -4h2q-17 26 -42 44.5t-54 18.5q-10 0 -20.5 -5t-7.5 -16l1 -4q-4 -2 0 -2q7 10 16 10q17 0 19 -19q2 -9 -4.5 -14.5t-14.5 -5.5
q-14 0 -27 10.5t-15 24.5q-4 22 9.5 32.5t32.5 14.5l-1 4q-31 32 -55.5 72t-32.5 82q-4 14 -2.5 27t-0.5 26l-1 3q-8 -18 -8.5 -38t3.5 -40q2 -13 5.5 -24.5t5.5 -24.5l2 -7q-13 22 -20.5 45.5t-11.5 46.5q-2 14 -3.5 23t-0.5 26h-1q-3 0 -5 -6t-3 -13.5t-1.5 -15
t-0.5 -10.5l1 -4q1 -5 1 -9q0 -3 2 -8v-8q5 -19 12 -36.5t10 -37.5l1 -3q-12 8 -21 23.5t-15.5 33t-11 34t-5.5 26.5q-6 0 -6.5 -8t1.5 -16l2 -8q4 -26 16.5 -51.5t28.5 -48.5l1 -3q-21 16 -34.5 38t-25.5 43l-3 3v-10q2 -15 8.5 -28t15 -25t17.5 -23.5t16 -24.5h-2
q-1 0 -8.5 6.5t-11.5 10.5q-5 4 -11 11.5t-12 14.5t-11 12.5t-9 5.5q5 -26 17 -46t32 -40v-1h-1l-2 1q-1 1 -6.5 3.5t-5.5 4.5q-2 1 -10 5.5t-10 5.5h-4q1 -11 10 -18.5t12 -17.5q-2 0 -6 0.5t-6 0.5q-1 0 -1 -1v0q0 -3 5.5 -8.5t12 -11t13 -10t9.5 -6.5l-2 -4h-25
q4 -8 12.5 -12.5t16.5 -6.5l1 -3q-2 -1 -8.5 -4.5t-5.5 -6.5v-1l4 -2l25 -15l2 -3q-3 -2 -7 -3.5t-6 -3.5l6 -6l34 -15l-21 -4l1 -4l6 -2t10 -3l23 -5q-5 -2 -12.5 -6t-12.5 -9l1 -1q2 -6 10 -7t10 -2t9.5 -1.5t9.5 -0.5q-2 -2 -10.5 -6t-12.5 -9l1 -2v-1l2.5 -2.5t2.5 -1.5
h45q-7 -7 -14.5 -14t-5.5 -19q10 0 21 4.5t19 7.5h1h2l-23 -28q-3 -3 -3 -7l-0.5 -0.5t-0.5 -1.5l1 -1h1q0 -1 3 -2t4 -1q3 1 11 3.5t10 4.5h1h2q-4 -4 -8.5 -11.5t-5.5 -12.5l1 -2q0 -1 3 -1h2q6 1 12 5t11 4h2q-5 -8 -9 -16t-2 -19q8 0 16 4t14 8q0 -2 -2.5 -7.5
t-3.5 -10.5q0 -3 -0.5 -4t-0.5 -4q-2 -2 0 -3v-1q0 -3 6 -3q5 0 10 5t10 8q-2 -7 -1 -13.5t1 -14.5h6q2 6 6 11t9 10l3 -10q3 -25 4.5 -46t8.5 -50q1 -13 -10 -13q-4 0 -6 0.5t-6 5.5q-1 1 0 1.5l1 0.5h9l-2 8h-5q-5 0 -9 -1t-2 -7q4 -16 21 -16q7 0 11 4.5t9 4.5
q11 0 14 -11.5t5 -18.5q2 -11 0 -21t-16 -10q-7 0 -13 2.5t-8 10.5t2.5 13t10.5 5q7 0 6 -6q0 -2 -0.5 -5t0.5 -6q4 0 6.5 3.5t1.5 7.5q-1 8 -6.5 10.5t-11.5 2.5q-11 0 -14.5 -7.5t-1.5 -18.5t11.5 -15t19.5 -4q14 0 19 10.5t3 22.5q-2 13 -8 25.5t-12.5 24.5t-13.5 24.5
t-11 25.5h4q4 -17 13 -33t19 -32.5t18 -33t11 -33.5zM748 185q3 -12 10 -24t22 -12h3q-10 8 -16.5 14.5t-9.5 18.5q-3 18 -0.5 35.5t6.5 35t7 34.5t2 35l2 -9q2 -13 1 -25t-3.5 -24t-3.5 -24t1 -25q2 -14 10.5 -23.5t22.5 -9.5q10 0 18 4t6 15q-2 10 -8.5 18t-17.5 8
q-5 0 -10 -2.5t-4 -10.5q1 -5 3 -7t7 -4l-1 14q1 0 4 1.5t5 1.5q3 -2 7.5 -6.5t5.5 -6.5q1 -1 1.5 -2.5t1.5 -2.5q2 -7 -4.5 -10t-12.5 -3q-14 0 -20 11t-7 22q-2 5 -1.5 16.5t8.5 11.5q7 0 12 -4.5t13 -4.5q6 0 12 5t1 14q-3 5 -9 5h-3h-5q-3 0 -3 -3q-1 -1 -1 -3l1 -2h10
l1 -1.5t1 -3.5q1 -3 -3 -3h-5q-5 0 -7 1.5t-7 6.5l-3 13l-3 18l-3 20l-3 12q0 1 -1.5 6t-3.5 11t-4 11.5t-2 6.5l1 7l-2 6l22 -21h7q0 8 -3 14t-5 12v2q6 -5 13.5 -9t15.5 -4q-2 8 -7 14t-6 14q8 0 13 -3t13 -3q-1 9 -7 17.5t-11 14.5v2q2 -2 10 -5.5t13 -3.5t4 4
q0 5 -8.5 13t-11.5 10h1q8 0 16 -3.5t16 -3.5l-2 7l-39 33h2q11 0 21.5 -5.5t20.5 -5.5q7 0 6 4l-1.5 1.5t-1.5 2.5q-4 2 -14.5 12t-12.5 12h42q1 0 2.5 1.5l2.5 2.5v1q-1 3 -5.5 5t-6.5 4q-2 1 -9 3.5t-10 4.5l34 5q4 0 2 5q-1 8 -10.5 9.5t-14.5 7.5l18 5q1 1 7 2.5t5 4.5
l-1 2l-24 4q9 5 18.5 8.5t17.5 8.5l-1 4q-1 3 -6.5 4t-8.5 3q5 5 14.5 9.5t7.5 12.5q-2 5 -7 7t-9 3q1 3 5 4.5t8 4t6.5 5.5t1.5 8h-29q7 11 16.5 18.5t16.5 21.5q-3 2 -10 2.5t-9 1.5q6 7 9.5 14t2.5 18h-3l-28 -19q-2 -3 -5 -3q9 17 18 36.5t5 41.5l-2 6q0 4 -5 4h-1
q-7 -17 -14.5 -34.5t-23.5 -28.5l-1 1q-1 1 -0.5 1.5l0.5 0.5l8 10q6 20 12.5 42t3.5 46l-3 10l-3 3q0 -1 -0.5 -3t-0.5 -3l-3 -22q-5 -18 -10 -32.5t-18 -25.5v2q6 26 10 50.5t0 53.5l-1 4l-4 13l-7 13h-2q2 -11 3 -28t0.5 -35t-4 -33.5t-10.5 -22.5l-1 3q-4 20 -2 40.5
t-2 41.5q-5 16 -11 34.5t-20 32.5l14 -82q3 -16 2.5 -33t-7.5 -31v2l-1 2q0 17 -0.5 29.5t-2.5 29.5l-1 1q-2 6 -4.5 17t-2.5 12q-1 2 -4 8.5t-6 14t-6.5 13.5t-5.5 7l-1 -4l6 -22t5 -22q9 -47 -2.5 -84t-29.5 -75v-2q20 -5 37.5 -13.5t22.5 -31.5q2 -14 -5.5 -25t-22.5 -11
q-24 0 -30 23q0 6 4.5 10.5t11.5 4.5t10 -5.5t9 -5.5q-2 15 -14.5 21.5t-26.5 6.5q-27 0 -41.5 -17t-25.5 -38q-2 -5 -1 -8v-2q10 10 25 10h9q7 0 9 -5q-2 0 -11 -1.5t-12 -3.5l1 -2q2 -2 8 -5t7 -6q1 -1 -3 -7q-2 -9 -3.5 -16.5t-1.5 -14.5t1.5 -15t3.5 -20l2 -8
q1 -5 1.5 -9.5t1.5 -9.5l1 -3q1 -3 3.5 -11t5.5 -15.5t7 -13.5t7 -6l-3 19q-1 3 2.5 3.5t6.5 0.5h2q15 0 20 -17q2 -12 -7.5 -17t-20.5 -5q-14 0 -27.5 8t-24.5 19l1 -5q2 -10 7.5 -14.5t12.5 -6.5t14.5 -4t12.5 -6q12 -14 17.5 -32.5t7.5 -34.5q8 -35 -2.5 -65t-40.5 -44
q-5 -2 -13 -2.5t-8 -4.5q1 0 5 -0.5t6 -0.5q22 0 35.5 11.5t20 28.5t7 38t-3.5 39q-2 16 -7.5 30.5t-9.5 28.5v3t1 3q8 -14 13 -31.5t7 -33.5q4 -22 2 -42.5t-5.5 -40.5t-5.5 -40.5t1 -42.5zM236 344q7 -32 25.5 -62t50.5 -47q5 2 9 7q-4 5 -11 7t-12 8q-22 25 -33.5 48.5
t-19.5 55.5q-2 -2 -6 -5.5t-4 -4.5v-3q0 -2 1 -4zM655 242q6 -6 11 -6t7 2t6 7q15 20 24 43t3 52q-2 5 -4 11.5t-7 6.5q1 -18 0 -31t-4 -24.5t-7.5 -22.5t-10.5 -25q-2 -6 -8 -7t-10 -6zM685 247q-1 0 -1 -2q-3 -3 1 -3q1 0 4 3q0 2 -4 2zM478 280l-29 111q-5 -2 -7.5 -1
t-4.5 3.5t-4.5 4.5t-6.5 2l7 5q-4 0 -10.5 3.5t-1.5 9.5l-133 12l16 4l132 11l-13 143l1 10q1 -2 2 -8t2 -8q3 -7 8 -24.5t10 -37t9.5 -37t5.5 -24.5l6 -13q7 0 24.5 -1.5t37 -3.5t37 -3.5t24.5 -1.5q7 -1 15 -2t15 -3q-32 -5 -61.5 -8t-59.5 -5q-5 0 -8 -5q1 -1 3 -3.5
t4 -4.5v-1l1 -1q-10 1 -13 -5.5t-2 -14.5l-2 5q-7 -1 -7.5 -17t1.5 -36.5t4.5 -40t1.5 -27.5zM174 322q2 0 2 -1t-1 -1.5t-2 1.5v1h1zM800 395q3 0 3 -2t-2 -2h-1l-1 2q0 1 0.5 1.5zM493 398l0.5 -0.5t1.5 -2.5q0 -1 -0.5 -1.5l-0.5 -0.5q-3 0 -3 2q-2 3 2 3zM732 420
q3 0 3 -2t-2 -2q-1 0 -1 2v2zM653 522q2 -12 6.5 -26t12 -25.5t18 -19.5t25.5 -8l1 3l-5 8q-3 4 -7 16t-6 14q-7 15 -7 25l-2 10q-4 20 -2 33.5t7 32.5l1 4h-2l-12 6h-1h-1q-13 -24 -15 -45.5t0 -50.5l1 3l-3 11l-1 4q-8 45 14 81h-2q0 -2 -3 -3.5t-4 -2.5
q-14 -14 -15.5 -32t2.5 -38zM429 452q3 0 3 -4q2 -2 -1 -2l-2 2v4zM470 454v-2h-3zM222 459q-2 0 -2 -3q2 -2 3 -2q2 0 0 2q0 2 -0.5 2.5zM201 469l2.5 -1.5t3.5 -1.5v-2q1 -2 -2 -3t-6 -1h-3q-1 3 0 6t5 3zM695 469q2 0 3.5 -3.5l1.5 -3.5h-10q-2 7 5 7zM810 473q1 0 -1 -1
q1 -3 0 -3q-3 0 -4 3q2 1 5 1zM201 489h2q6 0 6 -5q1 -3 -6 -3zM219 484q2 -1 2 -2t-2 -1q-1 0 -1 1q0 2 1 2zM685 489q3 0 4.5 -3l2.5 -5h-9q-1 2 -1 5t3 3zM668 497l2 -6l1 -4q-3 -3 -4 4q-2 6 1 6zM201 562l-1 2q4 -5 7 -11t5 -12l4 -24l1 -5l2 -15l2 -6q-2 6 -5.5 22
t-4.5 22q-2 6 -6 13t-4 14zM199 509q3 0 6 -0.5t4 -3.5v-1q0 -2 -2 -2l-1.5 -0.5t-2.5 -0.5q-3 0 -3 3t-1 5zM675 509h2q6 0 8 -2q0 -1 -1 -3l-1 -2l-2 -1h-1q-3 0 -3.5 3t-1.5 5zM195 527q0 4 3.5 4.5t5.5 0.5q-1 -2 -1 -5t-4 -3q-3 0 -3 3h-1zM669 527q0 4 3.5 4.5
t4.5 0.5q-1 -2 -1 -5t-2 -3h-2q-2 0 -2 3h-1zM667 553l4 4q3 1 4.5 -1t1.5 -3q1 -3 0.5 -5.5t-3.5 -0.5q-1 0 -3.5 2t-3.5 4zM189 554h7l1 -5h-7zM182 585q0 1 2 3q4 -4 7.5 -8.5t5.5 -9.5l1 -3q-3 2 -8 8.5t-7 9.5h-1zM168 572l2 -1q0 -1 -1.5 -1.5t-1.5 1.5v0q0 1 1 1z
M175 573v1h1q0 1 1.5 3t1.5 3q3 -2 3 -4l2 -5v-2q-2 0 -5 0.5t-4 3.5zM674 574q-2 6 3 6q3 0 5 -6q2 -5 -4 -5q-2 0 -4 5zM88 589q-2 8 1.5 14.5t11.5 6.5h2q-2 -2 -5.5 -6.5t-4.5 -5.5l2 -7q0 -8 6 -12.5t14 -6.5q-1 0 -2.5 -0.5t-3.5 -0.5q-19 0 -21 18zM761 589
q-2 7 -7.5 12.5t-12.5 8.5h1q8 0 15 -6.5t9 -14.5q2 -18 -16 -18h-3q-3 0 -5 1q5 2 12.5 5.5t6.5 11.5zM164 578v-1l2 -2q0 -1 -1 -1t-1 1q-2 3 0 3zM180 592l1 -0.5t2 -2.5q0 -1 -1 -1h-1q-2 0 -2 1q0 3 1 3zM178 595q1 0 1 -3q1 -3 0 -3q-2 0 -3 3q0 3 2 3zM174 598
q1 0 3 -3q0 -3 -2 -3t-2 3q-2 3 1 3zM181 641q4 -18 19 -31l-6 30l6 3.5t15 8l18 9l15 7.5q26 12 55.5 18.5t58.5 11.5q6 1 11.5 1.5t10.5 0.5h24q57 0 115.5 -15.5t113.5 -41.5q0 -1 1 -2l1 -1l5 -27q8 1 9 11t-1 16q0 7 -1 10q-8 8 -22 13.5t-22 9.5q-53 20 -100.5 31
t-98.5 11q-49 0 -92.5 -8.5t-85.5 -27.5q-5 -3 -12 -7t-14 -7.5t-12 -6.5l-5 -3l-4 -5q-1 0 -2 -3.5t0 -5.5zM107 615q2 0 2 -2q1 -3 -1 -3t-3 3q0 2 2 2zM734 615q3 0 3 -2q1 -3 -2 -3q-2 0 -3 3q0 2 2 2zM114 632q-2 11 6 11q9 0 12 -9q1 -3 0.5 -8t-5.5 -3q-8 1 -9.5 2.5
t-3.5 6.5zM164 625h1l2 -2q0 -2 -1 -2.5l-1 -0.5q-2 0 -2 3q-2 2 1 2zM731 665h4q-20 -4 -33 -15t-23 -27h-3q8 14 21.5 28t33.5 14zM151 634q1 0 1 1l4 -4t5 -3l1 -3q-2 0 -5 3l-5 5zM703 634q-1 4 2 6.5t6 2.5q10 0 12 -11q3 -7 -8 -7q-3 0 -6.5 2t-5.5 7zM148 640
q2 0 2 -2v-3q-4 0 -4 3q0 2 2 2zM-47 643q2 0 2 -3q2 -2 -1 -2q-1 0 -3 2q0 3 2 3zM103 663h3q10 0 22 -7.5t17 -15.5q-1 0 0 -1h-1l-2 1q-1 1 -6 5.5t-6 4.5q-4 2 -14 6.5t-13 6.5zM98 665q0 -1 -4 -1q-3 0 -3 1q-1 1 3 1t4 -1zM-41 721q2 0 4 -3q0 -3 -2 -3q-3 0 -3 3
q-2 3 1 3zM-35 746q2 0 4 -3q0 -2 -3 -2q-2 0 -2 2q-2 3 1 3zM-24 766l2 -3q0 -2 -1 -2q-3 0 -3 2q-2 3 2 3zM0 769q2 0 2 -3q1 -3 0 -3q-3 0 -4 3q0 3 2 3zM-4 773l1 -2v-2q-2 0 -2 2t1 2zM777 925q-1 0 -1 -3q0 -2 3 -2v2q0 3 -2 3z" />
    <glyph glyph-name="FL00B6h" unicode="&#xb6;" horiz-adv-x="716" 
d="M581 199q-1 5 -3.5 16t-4.5 19l-3 9q-7 39 -2 76.5t12 74.5t11.5 75t-4.5 78q-6 45 -27.5 89t-54 81.5t-73.5 65.5t-87 40q-22 6 -48.5 9.5t-52.5 11.5h-147l-30 -14q14 -8 25.5 -22.5t21 -31.5t17 -33.5t13.5 -28.5q61 1 119.5 -11t107.5 -40.5t83.5 -75t46.5 -114.5
q4 -26 3.5 -51t-2 -50t-2.5 -50.5t4 -51.5q4 -23 15.5 -46t28 -43.5t38 -35.5t46.5 -21l-1 4q-1 0 -6.5 8t-11.5 18t-12 19.5t-9 11.5q0 2 -4 7.5t-7 6.5zM282 92q21 0 42.5 -7t42.5 -16t41.5 -19t40.5 -16q-17 30 -24 51t-11 48q-6 32 -5.5 61.5t1.5 58.5t1.5 58t-5.5 60
q-7 41 -25 76.5t-44.5 61.5t-61 41t-74.5 15q-20 0 -45 -7.5t-39 -21.5q-10 -10 -24 -31.5t-29 -49t-30.5 -58t-26.5 -59t-17.5 -52t-3.5 -36.5q34 0 51.5 17t29.5 37t23.5 37t33.5 17h9q8 0 16 -2t10 -9q-3 -9 -11.5 -12.5t-17.5 -7.5t-17 -10t-10 -19q2 -21 5 -47
t3.5 -54.5t-2.5 -58t-13 -56.5q-5 -6 -10 -15t-9.5 -19t-7 -21t-0.5 -21q42 0 77.5 9t68.5 29q2 0 9.5 5t16.5 12t16.5 13t10.5 8l6 9zM481 339v2q-1 4 -9 7t-10 3q12 0 19 13t2 24q-1 2 -8 5t-12 4q-4 0 -14.5 0.5t-16.5 0.5h-7q2 -20 18 -38q-8 2 -12 0t-5 -5.5t-0.5 -8
t1.5 -7.5q2 -11 7.5 -21.5t12.5 -21t13.5 -21.5t10.5 -24q5 20 9.5 43.5t0.5 44.5zM477 449q-14 0 -28.5 4.5t-26.5 9.5h53l-2 8l-3 15t-6 16q-4 7 -6 11t-4 7q-10 -6 -13.5 -7.5t-5.5 -1.5q-3 0 -7.5 1t-14.5 1l-2 7l32 17l-34 43l-1.5 0.5t-2.5 0.5l-5 -1l-29 -26l-4 -2
q-1 0 -2 1t-3 1l27 43l-40 34q-1 0 -4 -3t-2 -6q-1 -2 -3.5 -10t-5 -18.5t-4.5 -19.5t-1 -12l1 -3q1 -9 4 -11t8 -2t9.5 0.5t8.5 0.5q5 -27 14 -51t24 -43t36 -31t50 -15zM313 645q-2 10 -13 14t-16 4h-6q-2 -18 -0.5 -31t4.5 -30q2 -7 3.5 -20t11.5 -13q3 0 3.5 0.5
l0.5 0.5q-1 2 0.5 9.5t4 15.5t4.5 15t2 9q1 6 2 16t-1 10zM256 652l-4 26q-24 8 -37.5 9t-32.5 1h-24q12 -10 26 -28.5l28 -37t26.5 -31.5t21.5 -11q2 22 1 36.5t-5 35.5z" />
    <glyph glyph-name="FL00B7h" unicode="&#xb7;" horiz-adv-x="248" 
d="M119 491q8 0 11 -7.5t3 -12.5l6 -32q5 -26 7.5 -54.5t-5.5 -48.5q-23 -2 -41 -2.5t-37 -0.5t-40.5 0.5t-51.5 0.5l-6 21l-2 16q-2 11 -4 26.5t-3 31t0 29.5t4 22q1 2 3.5 6t4.5 4z" />
    <glyph glyph-name="FL00B8h" unicode="&#xb8;" horiz-adv-x="191" 
d="M28 0h151q-5 -22 -13 -46.5t-15.5 -47t-14 -41t-9.5 -27.5q-23 -2 -41 -2.5t-37 -0.5t-40.5 0.5t-51.5 0.5l-68 63q1 0 17.5 9.5t39 24t45.5 32t37 35.5z" />
    <glyph glyph-name="four" unicode="&#xb9;" horiz-adv-x="630" 
d="M67 4l1 -2q0 -2 3 -2h51q12 0 12.5 13t-2.5 24q0 11 -1 14q1 2 2.5 9t0.5 9q0 1 0.5 5.5t-1.5 9.5q-1 4 -1 7v7q1 2 1.5 9t-1.5 12q0 1 2 6t5 5q7 0 22 -9t32 -9h8l5 5l3 -19q6 0 9 -6t10 -11l8 -49l1 -4q1 0 3 0.5t4 2.5q11 4 17.5 10.5t13.5 14.5l31 35q3 2 5 3.5
t2 6.5l-3.5 7l-4.5 9q-2 3 -6 12.5t-9 20.5t-9 20.5t-6 13.5v7q10 -3 18 -4.5t14.5 -3.5t12.5 -6t12 -12h3h6h3q19 0 36.5 2t37.5 5q4 0 6 -2q12 -10 19 -18.5t12.5 -17.5t9 -19.5t8.5 -23.5l1 -3l2 -9l1 -3q1 -2 7 -11.5t9 -10.5q4 -10 3 -14q3 -11 6 -20t17 -13
q6 -2 14.5 -3t10.5 -1h8q5 0 11.5 1t4.5 9v3q-16 18 -27.5 33t-25.5 32q-2 5 -4 10.5t-2 13.5l-5 27l-1 5l3 2l44 11l5 7l-3 19q16 8 11 27q-1 9 -2.5 13.5t-9.5 13.5l-83 188q9 12 12.5 17.5t1.5 21.5q-2 8 -8.5 13.5t-8.5 14.5v1l2 12q0 2 1 9t2.5 15t2.5 15t3 9l-2 6
q-1 4 -1 5t-5 5q-3 2 -11 10.5t-11 11.5q-2 2 -2.5 3t-5.5 1h-2h-2q-2 0 -8.5 1t-9.5 1q-10 5 -17 14.5t-15 14.5q-1 3 -4 14t-3 13q-4 7 -8.5 11t-6.5 11q0 6 1 10t-1 11q-2 9 -7.5 21t-14 23.5t-19 20t-21.5 9.5h-16h-17q-3 1 -9.5 4t-13 6.5t-11 6.5t-4.5 4l-6 32l3 6
q-4 14 -3 21t-2 19q-3 18 -18 25.5t-28 15.5h-36q-6 0 -11 -4t-14 -4l1 -1q4 -6 7 -9.5t4 -7.5l1 -2q-1 -2 -1.5 -6.5t-2.5 -5.5q3 -2 7 -8t6 -8l-1 -3v-3l2 -8q5 -8 7.5 -14.5t4.5 -13.5q1 -2 1.5 -9t-0.5 -9q-19 -1 -32.5 -3t-33.5 -7q-11 -2 -22.5 -5.5t-17.5 -12.5
q-17 -39 -32.5 -77t-29.5 -80v-1q2 -10 7 -18.5t7 -18.5v-6l-1 -28q-3 -23 -5 -45.5t-1 -47.5l2 -190q-2 -5 -2 -11t2 -12l4 -22q2 -8 4.5 -9.5t11.5 -1.5q-3 -9 1 -22q9 0 18 -0.5t19 -0.5q9 0 17.5 2t17.5 4l14 -73q-2 -6 -3 -8q-5 -17 -8 -32.5t-11 -32.5q1 -5 -5 -12
t-4 -12zM424 437q-18 21 -37 45.5t-30 50.5q-5 9 -13 26t-13 28.5t-6 13.5v1q10 -4 12 -13q-2 -5 6 -15q1 -2 3 -5.5l2 -3.5q17 -22 30.5 -45.5t39.5 -35.5q2 0 3 -1.5l1 -1.5q0 -1 -1 -3t0 -4v-1v-7v-2q3 -11 10.5 -17.5t9.5 -15.5q0 -4 -2 -4h-2h-1q-2 2 -6 5t-6 5z" />
    <glyph glyph-name="FL00BAh" unicode="&#xba;" horiz-adv-x="248" 
d="M61 812q8 0 11 -7.5l5 -12.5l6 -32q3 -26 5.5 -54.5t-5.5 -48.5q-23 -2 -41 -2.5t-37 -0.5t-40.5 0.5t-51.5 0.5l-4 21l-4 16q-2 11 -4 26.5t-3 31t0 29.5t4 22q1 2 3.5 6t4.5 4z" />
    <glyph glyph-name="FL00BBh" unicode="&#xbb;" horiz-adv-x="480" 
d="M173 304q1 -8 -5 -9t-11 -1q-11 -14 -33 -35.5t-44.5 -41.5t-39.5 -34.5t-18 -14.5h-21q-6 30 -10.5 51.5t-7.5 40.5l-1 14l-3 11l-3 11v7q0 2 -0.5 5t-0.5 6q3 2 13.5 10t23 18t24 20.5t17.5 18.5q-9 7 -24 17.5t-30 20.5t-28 18.5t-17 10.5q-2 3 -2 5q0 3 -1 5l-2 8
l-1 12q-2 5 -1.5 10.5t-0.5 14.5q-5 19 -8 40.5t-8 51.5h21q1 0 23.5 -14.5t52 -35t58.5 -42t43 -35.5q9 -1 14 -9q2 -2 2 -3zM397 302q0 -8 -6 -9t-11 -1q-11 -14 -32.5 -35.5t-44 -41.5t-39.5 -34.5t-18 -14.5h-21q-6 30 -10.5 51.5t-7.5 40.5l-4 14l-1 11l-2 11v7
q-2 6 -2 11q4 2 14.5 10t23 18t24 20.5t17.5 18.5q-9 7 -24 17.5t-30.5 20.5t-28 18.5t-16.5 10.5q-2 4 -4 10l-2 8l-1 12q-1 5 -1.5 10.5t-2.5 14.5q-3 19 -6 40.5t-8 51.5h21q1 0 24 -14.5t52.5 -35t58.5 -42t43 -35.5q10 -2 13 -9l3 -3z" />
    <glyph glyph-name="asciitilde" unicode="&#xbc;" horiz-adv-x="606" 
d="M204 97q-4 22 -5 43.5t-1.5 43t-2 43t-5.5 44.5q2 0 8 1.5t7 1.5q2 -1 6.5 -4.5t9.5 -7t10 -6.5t7 -3q5 -2 15.5 2.5t13.5 7.5l0.5 1.5t-0.5 3.5q-3 16 -13.5 30.5t-23 28.5t-23.5 29.5t-14 34.5q-3 13 1.5 21.5t13 14.5t19 10t19.5 9q17 -10 38 -13.5t37 -16.5
q19 -17 24.5 -28.5t11 -20.5t17 -16.5t43.5 -16.5q18 12 32.5 30.5t24 41t13.5 47.5t0 50q-4 22 -10.5 41.5t-17 34t-26 23t-37.5 8.5q-1 0 -9.5 -0.5t-10.5 -0.5q-10 -7 -18 -14t-16 -15q-8 -16 -13 -26.5t-7 -22.5t-3 -24.5t-2 -18.5q-11 2 -26.5 7t-31 12.5t-27 18
t-14.5 22.5l-2 17l36 -17q16 5 19 35l-5 80q7 0 13 -2q1 -1 29 -1l-4 10q-7 18 -20 33t-29.5 26t-35 17.5t-35.5 6.5q-30 0 -40.5 -9t-15.5 -23q-4 -13 -7 -25.5t2 -37.5q10 -13 -2 -13q-5 1 -9 0.5t-9 -1.5q-6 -1 -10 -2.5t-6 -1.5q-2 -2 -12 -9.5t-12 -11.5l-2 6
q-5 24 -1 47.5t9.5 47.5t9.5 48.5t0 49.5l-1 4q-2 6 -4 9q-17 -20 -25 -45.5t-12 -53.5t-6.5 -57t-8.5 -56q-2 -10 -6 -18.5t-7.5 -16.5t-6 -16.5t-0.5 -19.5q1 -9 6 -16.5t10.5 -14.5t10.5 -14t6 -15q2 -8 2 -12q-13 -15 -26 -34t-22.5 -40.5t-14 -44t-0.5 -44.5
q2 -10 6 -22.5t11.5 -23.5t17.5 -18.5t24 -7.5q10 0 15 12.5t6 20.5q2 -13 11 -27t25 -14q-1 -3 -5 -10.5t-9 -15.5t-9.5 -15.5t-7.5 -10.5v-3t1 -6q2 -11 12 -19t22.5 -13t25 -7t19.5 -2q3 -28 10.5 -52t21.5 -41.5t35 -27.5t52 -10q-3 15 -10.5 26t-16.5 22t-16.5 22.5
t-10.5 26.5zM90 395q7 0 18 -8t20.5 -19.5t17 -23t8.5 -18.5q-15 0 -26.5 7t-19 17t-12.5 22t-6 23zM173 231q1 -6 1.5 -14t-1 -15t-5.5 -12t-11 -5q-3 19 -6.5 31t-8 23t-10.5 23.5t-15 33.5l1 5l-1 4q19 -12 35.5 -32t20.5 -42zM173 405q2 -5 -4.5 -7t-13.5 -2h-6
q-10 0 -19 1t-20 8q2 3 8.5 9t8.5 7h4h5q1 -1 6.5 -3t11.5 -4.5t11.5 -5t7.5 -3.5zM154 551q-23 7 -27.5 -5t-6.5 -32q-1 -12 -2 -22t-4.5 -17.5t-10.5 -11.5t-19 -4h-4q-2 0 -5.5 3t-6.5 6l-0.5 1.5t0.5 3.5v3q2 4 7 17t8 21q5 7 2 14t-7 15h-34q-1 1 0.5 3.5t1.5 4.5
q1 4 6 10.5t9.5 12.5t8 10.5l3.5 4.5q3 0 14.5 -3t24.5 -8t25 -12t17 -15zM461 495q1 -7 -3.5 -12t-12.5 -8t-18 -4.5t-19 -1.5q-4 20 0.5 33.5t33.5 17.5q11 -6 14.5 -11.5t4.5 -13.5zM415 435q10 0 13 -12q0 -13 -9 -13q-11 0 -11 13q-3 12 7 12zM174 295q2 3 5.5 2
t6.5 -4t4.5 -6t-0.5 -4q-5 -3 -11 1.5t-5 10.5zM346 395q9 -30 35 -30q-6 26 -35 30zM353 420q-9 0 -9 -12q4 -13 14 -13t6 13q0 12 -11 12zM363 433q-10 0 -7 -13q0 -12 11 -12q9 0 9 12q-3 13 -13 13zM36 423q11 0 11 -13q3 -12 -7 -12l-13 12q0 13 9 13zM109 458l15 -13
h-12zM71 458q10 0 13 -13q0 -12 -9 -12q-11 0 -11 12q-3 13 7 13zM217 483q11 0 11 -13q3 -12 -7 -12t-13 12q0 13 9 13zM202 686q2 -12 -9 -17.5t-22 -5.5q-2 11 1 17t18 6h12zM373 578q22 15 28 15h13q7 0 8 1l-10 -10l2 -5l1 -5q3 -3 7 -6t5 -4q-8 -4 -14.5 -11.5
t-13.5 -14.5t-14 -12t-16 -5q-8 0 -13.5 11.5t-7.5 20.5z" />
    <glyph glyph-name="FL00BDh" unicode="&#xbd;" horiz-adv-x="478" 
d="M65 7q0 1 4 8t8 16.5t7 19.5t1 17q2 6 1.5 14t-1.5 19v1l-1.5 3l-1.5 3v1l-29 88v1l-2 4t-1 4l-2 5q-2 16 -3 32.5t4 30.5l6 24q4 11 2.5 20.5t1.5 25.5q0 4 1 5q5 9 3.5 15.5t-3.5 16.5q-2 11 -6.5 21t-5.5 21q-6 29 -6.5 54t1.5 52q2 10 6.5 17.5t2.5 17.5l-2 11l-3 19
q-1 4 -2.5 8t-3.5 9l-1.5 2.5t-3.5 2.5q0 1 -4.5 5t-4.5 6q-3 2 -8 11t-9 14l-14 -43q-2 -3 -3.5 -4t-2.5 -6q-4 -12 0 -25t2 -24l-1 -8q-9 -16 -10 -25.5t2 -26.5v-2l2 -4t1 -3l1 -3q2 0 7 -4t10 -9t9 -10t4 -7q0 -5 -1.5 -12t-3.5 -11l-18 -13h-3q-11 0 -22.5 12.5
t-13.5 23.5l-5 30l-2 2q-1 0 -2.5 5.5t-3.5 12.5t-3.5 14t-2.5 11l-1 3v9l-1 4q-3 17 -1 31t8 29l-1 6q2 10 5.5 17.5t4.5 18.5q-1 2 0.5 8t0.5 8l-1 3l-2 11l1 4v5t2 8q2 5 2 18q-3 9 0 16l16 28q7 5 17 8t18 7l43 18q3 1 4 2l3 3q0 2 -1 9.5t-2 9.5l-2 6q1 5 -2.5 11
t-5.5 13l-2 16q-1 4 -1 8t-1 9q2 6 6 13.5t11 7.5h34q8 0 18 -13q2 0 2.5 -0.5l0.5 -0.5q4 0 1 -4l2 -5l2 -9l3 -12l-1 -6l2 -5l2 -8l1 -5l-4 -9l6 -33l5 -4q2 0 7 -1.5t11 -3t11 -3t8 -1.5q2 -2 11.5 -6t11.5 -4q3 -2 9.5 -2.5t7.5 -1.5q16 -5 24.5 -22t16.5 -28
q17 -29 37 -53t41 -50q3 -3 4 -6q7 -18 10.5 -34t8.5 -35q8 -9 10 -19.5t4 -20.5l1 -4l2 -7v-2q-1 -6 0.5 -17l1.5 -11l-7 -4l-1.5 -0.5t-3.5 -0.5q-17 0 -26 3t-18 17q-4 4 -5.5 6t-1.5 7q-1 5 1.5 9.5t6.5 8.5t7 8t2 9q-2 10 -7.5 17.5t-12.5 13.5t-13.5 12t-10.5 14
q-10 12 -14.5 28.5t-10.5 25.5q-6 7 -8 7.5t-12 6.5q-10 5 -17.5 15.5t-11.5 18.5h-2q0 -6 -2.5 -14.5t-5.5 -17t-5.5 -15t-2.5 -7.5l9 -42q1 -2 3.5 -5t2.5 -4t2 -6.5t4 -5.5q2 -3 9.5 -15l12.5 -20q4 -5 4.5 -6.5t1.5 -3.5l2 -6q0 -3 2 -5q4 -7 5.5 -17t2.5 -12
q5 -8 11 -17.5t8 -19.5l13 -68q-3 -10 -3 -15q0 -4 2 -14q6 -34 19 -59q0 -1 3.5 -6.5t7.5 -12t7.5 -11.5t4.5 -5q19 -33 23 -66q5 -26 6 -50.5t6 -48.5l-1 -4l26 -40q4 -3 13 -9.5t11 -13.5q0 -1 -1 -1h-44q-9 0 -13 6.5t-10 11.5l-7 3q-2 0 -3 3q-1 2 -2.5 11.5t-2.5 12.5
l-1 4l-1 4l0.5 1t-0.5 2q0 2 -3 5.5t-1 5.5l-1 2q-2 5 -0.5 8.5t-0.5 8.5q-2 12 -5 24.5t-11 23.5q-2 1 -5 5t-6.5 8.5t-7 8.5t-4.5 5q-7 5 -10.5 13t-4.5 13l-14 71q-8 17 -12 28t-12 26q0 2 -2.5 5t-2.5 4q-8 14 -13.5 28t-11.5 28v1l1 3v2v1q-4 4 -5 5.5t-6 7.5
q-4 8 -9 17.5t-7 11.5l-5 8q0 2 -3 10.5t-4 11.5q-1 0 -2 0.5t-3 0.5h-4q-2 0 -3 -8.5t-2 -20t-2.5 -22t-3.5 -14.5q-5 -11 -1 -23t0 -23q1 -2 -1.5 -11t-2.5 -11q-2 -1 -3.5 -7t-3 -13t-2.5 -14t0 -10q-2 -6 -0.5 -15.5t3.5 -20.5l4 -21l2 -18q2 -17 -3 -31l-10 -28
q-2 -5 0.5 -13.5t2.5 -13.5q2 -11 7 -21t7 -20v-1v-6t-2 -7q1 -2 4.5 -11t4.5 -11l1 -6q1 -8 -3.5 -8.5t-6.5 -6.5q-8 -14 -16.5 -21.5t-25.5 -7.5h-3q-2 0 -2.5 0.5t-2.5 0.5h-3q-2 1 -4.5 3.5t-5.5 3.5z" />
    <glyph glyph-name="FL00BEh" unicode="&#xbe;" horiz-adv-x="606" 
d="M366 97q-8 45 -24.5 86.5t-25.5 87.5q-2 0 -6 1.5t-5 1.5q-7 -2 -14.5 -11.5t-12.5 -9.5q-2 -1 -6.5 0t-10 2.5t-11 3.5t-7.5 4l-0.5 1.5t-1.5 3.5q-3 16 3.5 30.5t14 28.5t13.5 29.5t3 34.5q-3 13 -11 21.5t-18.5 14.5t-22 10t-21.5 9q-8 -5 -17 -8t-18 -5.5t-17 -6.5
t-13 -10q-14 -17 -15 -28.5t-3 -20.5t-11 -16.5t-37 -16.5q-23 12 -44.5 30.5t-39.5 41t-30 47.5t-16 50q-4 22 -5.5 41.5t3 34t16.5 23t35 8.5q1 0 9.5 -0.5t10.5 -0.5q13 -7 24.5 -14t19.5 -15q17 -16 25.5 -26.5t16.5 -22.5q5 -12 9 -24.5t8 -18.5q10 2 24 7t27 12.5
t21 18t5 22.5l-2 17l-32 -17q-13 4 -31 35l-23 80q-7 0 -13 -2q-1 -1 -29 -1v10q2 35 29 59t61 24q30 0 44.5 -9t23.5 -23q10 -13 17 -25.5t12 -37.5q-4 -13 8 -13q7 1 14 -1q8 -1 12 -2.5t6 -1.5q4 -2 17.5 -9.5t18.5 -11.5l-2 6q-5 24 -17 47.5t-26 47.5t-26.5 48.5
t-16.5 49.5l-1 4q-1 2 -0.5 4.5t0.5 4.5q23 -20 40.5 -45.5t32 -53.5t28 -57t29.5 -56q9 -20 23.5 -34.5t18.5 -36.5q1 -9 -0.5 -16.5t-4.5 -14.5t-5 -14t-1 -15q1 -3 2.5 -6.5t1.5 -5.5q17 -15 36.5 -34t37 -40.5t30.5 -44t17 -44.5q2 -10 2 -23q0 -12 -3.5 -23
t-11.5 -18.5t-22 -7.5q-10 0 -19 12.5t-10 20.5q2 -13 -3 -27t-21 -14q3 -3 10 -10.5t14.5 -15.5t14.5 -15.5t10 -10.5l1 -3l2 -6q2 -11 -5 -19t-17.5 -13t-22 -7t-18.5 -2q7 -28 8 -52t-7 -41.5t-25.5 -27.5t-48.5 -10q-3 15 0.5 26t8.5 22t8.5 22.5t0.5 26.5zM376 395
q-8 0 -15.5 -8t-14 -19.5t-10 -23t-2.5 -18.5q15 0 24 7t13.5 17t5 22t-0.5 23zM349 231q3 -12 10 -29t22 -17q-3 19 -4 31t-0.5 23t2 23.5t2.5 33.5l1 5l-1 4q-16 -12 -26 -32t-6 -42zM287 405q2 -5 8.5 -7t13.5 -2h6q10 0 18.5 1t16.5 8q-4 3 -11.5 9t-9.5 7h-4h-5
q0 -1 -5 -3t-11 -4.5t-11 -5t-6 -3.5zM254 551q21 7 30 -5t18 -32q11 -23 21.5 -39t34.5 -16h4q2 0 3 3t3 6l0.5 1.5t1.5 3.5l-2 3q-4 4 -12.5 17t-16.5 21q-8 7 -7 14t2 15h34l-3.5 3.5t-2.5 4.5q-2 4 -8.5 10.5t-13.5 12.5t-12 10.5l-5 4.5q-3 0 -13.5 -3t-22.5 -8
t-22 -12t-11 -15zM-33 495q3 -14 23 -20t38 -6q-2 10 -4.5 18.5t-7.5 15t-14.5 11t-25.5 6.5q-8 -6 -9 -11.5t0 -13.5zM35 435q-10 0 -7 -12q0 -13 11 -13q9 0 9 13q-3 12 -13 12zM324 295q-2 3 -4.5 2t-4.5 -4t-2.5 -6t1.5 -4q7 -3 10.5 1.5t-0.5 10.5zM120 395
q0 -30 -25 -30q-6 25 25 30zM103 420q11 0 11 -12q4 -13 -6 -13t-14 13q0 12 9 12zM87 433q10 0 13 -13q0 -12 -9 -12q-11 0 -11 12q-3 13 7 13zM420 423q-9 0 -9 -13q3 -12 13 -12l7 12q0 13 -11 13zM333 458l-9 -13h12zM371 458q-10 0 -7 -13q0 -12 11 -12q9 0 9 12
q-3 13 -13 13zM217 483q-9 0 -9 -13q3 -12 13 -12t7 12q0 13 -11 13zM158 686q2 -12 15 -17.5t24 -5.5q-2 11 -7 17t-20 6h-12zM25 578q-26 15 -32 15h-13q-7 0 -8 1l10 -10l2 -5l1 -5q-2 -3 -4.5 -6t-3.5 -4q9 -4 18 -11.5t18 -14.5t18 -12t18 -5q8 0 9.5 11.5t-0.5 20.5z
" />
    <glyph glyph-name="FL00BFh" unicode="&#xbf;" horiz-adv-x="705" 
d="M341 322q-3 -4 -21 -9t-40.5 -15t-43.5 -27.5t-29 -46.5q-9 -31 -2.5 -50t24 -28.5t43 -12.5t54.5 -2t59 3t55 2q11 0 61 12t139 46l30 -167q1 -1 -8.5 -5t-15.5 -5q-29 -6 -68.5 -10t-82 -6t-84 -3t-73.5 -1q-58 0 -114.5 7.5t-104 33t-83 75.5t-50.5 136q-9 51 2.5 80
t36 45.5t59 24t70.5 14.5t70 18.5t59 35.5q11 4 23.5 8.5t21.5 11.5t11.5 16.5t-6.5 22.5q-11 20 0 30l184 -3q7 -36 10 -58.5t-1 -37.5t-16.5 -26t-36.5 -25zM317 653q-8 0 -11 7.5t-3 12.5l-6 32q-5 26 -7.5 54.5t5.5 48.5q23 2 47.5 1t43.5 -1t40.5 -0.5t51.5 -0.5l3 -21
l4 -16q2 -11 4 -26.5t2.5 -31t0 -29.5t-3.5 -22q0 -2 -2.5 -6t-4.5 -4z" />
    <glyph glyph-name="FL00C0h" unicode="&#xc0;" horiz-adv-x="1051" 
d="M279 337q0 -1 1 -3l1 -2q0 -2 5 -6t6 -4h204l-133 220l-16 13l-68 -213v-5zM24 32q60 103 104.5 215.5t85.5 224.5q2 6 9 27.5t15.5 47t16 49.5t11.5 36q8 26 10.5 50t8 44.5t17 37t37.5 28.5q7 4 17.5 9.5t22 10t23.5 8t22 3.5q7 0 11 -1.5t9 -9.5l402 -620
q26 -39 61 -80t75 -70q8 -5 21 -9t16 -16q0 -1 -1 -3l-1 -2q-2 -2 -3.5 -6t-3.5 -4h-310q-7 0 -17 17t-21.5 42t-25.5 54.5t-29 54.5t-32 41t-34 15l-52 -3q-29 -2 -70 -4.5t-81 -8.5t-70 -17.5t-36 -30.5l-52 -160l-8 -10q-1 0 -13.5 -0.5t-18.5 -0.5h-12q-7 0 -15 0.5
t-14 0.5h-7q-7 0 -17.5 1.5t-20.5 3t-17 3t-7 2.5zM172 1056l151 -1q2 0 5.5 -4t4.5 -6q10 -7 26 -21.5t33.5 -32.5t35.5 -36.5t32 -34t23 -25.5l9 -10l4 -21q-30 0 -51.5 -0.5t-40.5 -0.5t-37.5 0.5t-42.5 2.5q-9 13 -34 36t-52 48t-49 48.5t-25 37.5q-2 5 -1 12.5t9 7.5z
" />
    <glyph glyph-name="FL00C1h" unicode="&#xc1;" horiz-adv-x="1051" 
d="M24 32l6 -30q0 -1 7 -2.5t17 -3t20.5 -3t17.5 -1.5h7q6 0 14 -0.5t15 -0.5h12q6 0 18.5 0.5t13.5 0.5l8 10l52 160q6 19 36 30.5t70 17.5t81 8.5t70 4.5l52 3q17 1 34 -15t32 -41t29 -54.5t25.5 -54.5t21.5 -42t17 -17h310q2 0 3.5 4t3.5 6l1 2t1 3q-3 12 -16 16t-21 9
q-40 29 -75 70t-61 80l-402 620q-5 8 -9 9.5t-11 1.5q-10 0 -22 -3.5t-23.5 -8t-22 -10t-17.5 -9.5q-26 -12 -37.5 -28.5t-17 -37t-8 -44.5t-10.5 -50q-4 -12 -11.5 -36t-16 -49.5t-15.5 -47t-9 -27.5q-41 -112 -85.5 -224.5t-104.5 -215.5zM279 337v5l68 213l16 -13
l133 -220h-204q-1 0 -6 4t-5 6l-1 2t-1 3zM468 1053l-150 -1q-2 0 -5 -4t-5 -6q-11 -12 -28 -38t-33 -52.5t-27 -47.5t-11 -22l3 -21q30 0 52 -0.5t41 -0.5t37 0.5t41 2.5q3 13 20 36t35.5 48t32.5 48.5t11 37.5q-1 5 -3.5 12.5t-10.5 7.5z" />
    <glyph glyph-name="FL00C2h" unicode="&#xc2;" horiz-adv-x="1051" 
d="M24 32l6 -30q0 -1 7 -2.5t17 -3t20.5 -3t17.5 -1.5h7q6 0 14 -0.5t15 -0.5h12q6 0 18.5 0.5t13.5 0.5l8 10l52 160q6 19 36 30.5t70 17.5t81 8.5t70 4.5l52 3q17 1 34 -15t32 -41t29 -54.5t25.5 -54.5t21.5 -42t17 -17h310q2 0 3.5 4t3.5 6l1 2t1 3q-3 12 -16 16t-21 9
q-40 29 -75 70t-61 80l-402 620q-5 8 -9 9.5t-11 1.5q-10 0 -22 -3.5t-23.5 -8t-22 -10t-17.5 -9.5q-26 -12 -37.5 -28.5t-17 -37t-8 -44.5t-10.5 -50q-4 -12 -11.5 -36t-16 -49.5t-15.5 -47t-9 -27.5q-41 -112 -85.5 -224.5t-104.5 -215.5zM279 337v5l68 213l16 -13
l133 -220h-204q-1 0 -6 4t-5 6l-1 2t-1 3zM266 1056q-8 0 -8.5 -6t-0.5 -11q-12 -13 -28.5 -38.5t-31.5 -52t-26 -46t-11 -20.5l3 -21q30 0 52 -0.5t41 -0.5q9 0 14.5 -0.5t10.5 -0.5h11h7q7 0 11 1q1 4 6.5 16t13 26t15.5 27.5t15 21.5l21 -21t26 -26.5t23 -25t13 -15.5
q4 -1 10 -1h8h12q5 0 10.5 0.5t14.5 0.5q19 0 40.5 0.5t51.5 0.5l-4 21q0 1 -18 21t-43.5 46t-52 52t-42.5 38q0 9 -10 11q-2 2 -3 2z" />
    <glyph glyph-name="FL00C3h" unicode="&#xc3;" horiz-adv-x="1051" 
d="M24 32l6 -30q0 -1 7 -2.5t17 -3t20.5 -3t17.5 -1.5h7q6 0 14 -0.5t15 -0.5h12q6 0 18.5 0.5t13.5 0.5l8 10l52 160q6 19 36 30.5t69.5 18.5t81 9.5t70.5 2.5h34q24 0 45.5 -16.5t39.5 -41t33 -53t26.5 -53t19.5 -41t13 -16.5h310q2 0 3.5 4t3.5 6l1 2t1 3q-3 12 -16 16
t-21 9q-40 29 -75 70t-61 80l-402 620q-5 8 -9 9.5t-11 1.5q-10 0 -22 -3.5t-23.5 -8t-22 -10t-17.5 -9.5q-26 -12 -37.5 -28.5t-17 -37t-8 -44.5t-10.5 -50q-4 -12 -11.5 -36t-16 -49.5t-15.5 -47t-9 -27.5q-41 -112 -85.5 -224.5t-104.5 -215.5zM279 337v5l68 213l16 -13
l133 -220h-204q-1 0 -6 4t-5 6l-1 2t-1 3zM141 820l-1 -4q2 -2 7 -3.5l10 -3t9.5 -2.5t5.5 -1q3 1 8 11.5t10.5 23.5t10 24.5t6.5 14.5h348q0 1 2 6.5t4 9.5q6 22 11.5 37t9 29t3.5 29q0 16 -4 40q-2 11 -10.5 15t-18.5 4h-5l-24 -60q-5 -2 -11.5 -6t-7.5 -4h-338
q-1 -1 -3 -8.5t-4 -12.5q-2 -15 -6.5 -32.5t-8 -35.5t-5.5 -36t2 -35z" />
    <glyph glyph-name="FL00C4h" unicode="&#xc4;" horiz-adv-x="1051" 
d="M279 337q0 -1 1 -3l1 -2q0 -2 5 -6t6 -4h204l-133 220l-16 13l-68 -213v-5zM24 32q60 103 104.5 215.5t85.5 224.5q2 6 9 27.5t15.5 47t16 49.5t11.5 36q8 26 10.5 50t8 44.5t17 37t37.5 28.5q7 4 17.5 9.5t22 10t23.5 8t22 3.5q7 0 11 -1.5t9 -9.5l402 -620
q26 -39 61 -80t75 -70q8 -5 21 -9t16 -16q0 -1 -1 -3l-1 -2q-2 -2 -3.5 -6t-3.5 -4h-310q-5 0 -13 16.5t-19.5 41t-26.5 53t-33 53t-39.5 41t-45.5 16.5h-34q-29 0 -70.5 -2.5t-81 -9.5t-69.5 -18.5t-36 -30.5l-52 -160l-8 -10q-1 0 -13.5 -0.5t-18.5 -0.5h-12q-7 0 -15 0.5
t-14 0.5h-7q-7 0 -17.5 1.5t-20.5 3t-17 3t-7 2.5zM315 1020q8 0 10 -7.5t4 -12.5l6 -32q5 -26 6.5 -54.5t-6.5 -48.5q-23 -2 -41 -2.5t-37 -0.5t-40.5 0.5t-51.5 0.5l-3 21l-4 16q-2 11 -4 26.5t-3 31t-0.5 29.5t3.5 22q1 2 4.5 6t5.5 4zM556 1021q8 0 10.5 -7.5t3.5 -12.5
l6 -32q5 -26 7 -54.5t-6 -48.5q-23 -2 -41 -2.5t-37 -0.5t-40.5 0.5t-51.5 0.5l-4 21l-4 16q-2 11 -4 26.5t-2.5 31t0 29.5t3.5 22q0 2 4 6t6 4z" />
    <glyph glyph-name="FL00C5h" unicode="&#xc5;" horiz-adv-x="1051" 
d="M279 337q0 -1 1 -3l1 -2q0 -2 5 -6t6 -4h204l-133 220l-16 13l-68 -213v-5zM24 32q60 103 104.5 215.5t85.5 224.5q2 6 9 27.5t15.5 47t16 49.5t11.5 36q8 26 10.5 50t8 44.5t17 37t37.5 28.5q7 4 17.5 9.5t22 10t23.5 8t22 3.5q7 0 11 -1.5t9 -9.5l402 -620
q26 -39 61 -80t75 -70q8 -5 21 -9t16 -16q0 -1 -1 -3l-1 -2q-2 -2 -3.5 -6t-3.5 -4h-310q-5 0 -13 16.5t-19.5 41t-26.5 53t-33 53t-39.5 41t-45.5 16.5h-34q-29 0 -70.5 -2.5t-81 -9.5t-69.5 -18.5t-36 -30.5l-52 -160l-8 -10q-1 0 -13.5 -0.5t-18.5 -0.5h-12q-7 0 -15 0.5
t-14 0.5h-7q-7 0 -17.5 1.5t-20.5 3t-17 3t-7 2.5zM418 1022q8 0 10 -7.5t4 -12.5l6 -32q5 -26 7 -54.5t-6 -48.5q-23 -2 -41 -2.5t-37 -0.5t-41 0.5t-52 0.5l-3 21l-4 16q-1 11 -3 26.5t-3 31t-0.5 29.5t3.5 22q0 2 3.5 6t5.5 4z" />
    <glyph glyph-name="FL00C6h" unicode="&#xc6;" horiz-adv-x="1497" 
d="M24 32l6 -30q0 -1 7 -2.5t17 -3t20.5 -3t17.5 -1.5h7q6 0 14 -0.5t15 -0.5h12q6 0 18.5 0.5t13.5 0.5l8 10l52 160q6 19 36 30.5t69.5 18.5t81 9.5t70.5 2.5h34q24 0 45.5 -16.5t39.5 -41t33 -53t26.5 -53t19.5 -41t13 -16.5h23q2 -2 3 -2h510q31 0 69.5 10.5t70.5 31
t51 50.5t12 69q-54 0 -105 -6t-105 -6q-30 0 -62 -0.5t-64 1t-64.5 6t-62.5 14.5q25 34 53.5 64.5t58 60.5t58.5 60.5t55 64.5q1 1 1 4q0 4 -1 6q-1 5 -19.5 21t-47.5 38t-64.5 48.5t-70 52t-63.5 48.5t-45 39q3 1 12.5 3t20.5 3.5t21.5 2.5t13.5 1q14 1 50.5 4.5t77.5 7
t78 6t51 2.5q14 16 34.5 40.5t28.5 49.5v5q0 1 -1 3l-1 2l-5.5 5.5t-5.5 4.5q-6 -1 -20 -3t-29.5 -3.5t-29.5 -2.5t-20 -1q-17 0 -53 -0.5t-82 -0.5h-191q-45 0 -81 0.5t-53 0.5q-3 -3 -13 -14.5t-12 -15.5l-17.5 -27.5t-20 -32.5t-16.5 -27.5t-7 -12.5l3 -20l367 -331
l-154 -122l-393 608q-5 8 -9 9.5t-11 1.5q-10 0 -22 -3.5t-23.5 -8t-22 -10t-17.5 -9.5q-26 -12 -37.5 -28.5t-17 -37t-8 -44.5t-10.5 -50q-4 -12 -11.5 -36t-16 -49.5t-15.5 -47t-9 -27.5q-41 -112 -85.5 -224.5t-104.5 -215.5zM279 337v5l68 213l16 -13l133 -220h-204
q-1 0 -6 4t-5 6l-1 2t-1 3z" />
    <glyph glyph-name="FL00C7h" unicode="&#xc7;" horiz-adv-x="890" 
d="M456 752l153 -88l87 8q17 34 23 56.5t4 38.5q-3 17 -15 31t-31 31h-341q-45 -4 -85.5 -11.5t-77.5 -20t-69.5 -32t-61.5 -48.5q-57 -57 -78.5 -143.5t0.5 -204.5q16 -87 65.5 -153t119 -111.5t150.5 -71.5t160 -33q-14 -18 -37 -35.5t-45.5 -32t-39 -24t-17.5 -9.5
l68 -63q30 0 51.5 -0.5t40.5 -0.5t37 0.5t41 2.5q3 9 9.5 27.5t14 41t15.5 47t13 46.5h216l-20 117q-151 -6 -253.5 -14t-160.5 4l-16 4q4 -2 12 -3l-16 6q-37 21 -61.5 53t-40.5 71.5t-26.5 84t-18.5 89.5q-6 37 -10.5 76.5t-4 77t8.5 71.5t26.5 59t49 40t76.5 15z" />
    <glyph glyph-name="FL00C8h" unicode="&#xc8;" horiz-adv-x="812" 
d="M28 15v5q1 6 6.5 22t12 33.5t13 33t9.5 21.5q2 2 7 10t8 10l222 176l-367 331l-3 20q0 1 7 12.5t16.5 27.5t20 32.5l17.5 27.5q2 4 12 15.5t13 14.5q17 0 53 -0.5t81 -0.5h96h95q46 0 82 0.5t53 0.5q6 0 20 1t29.5 2.5t29.5 3.5t20 3q2 -1 5.5 -4.5l5.5 -5.5l1 -2t1 -3
v-5q-8 -25 -28.5 -49.5t-34.5 -40.5q-14 0 -51 -2.5t-78 -6t-77.5 -7t-50.5 -4.5q-3 0 -13.5 -1t-21.5 -2.5t-20.5 -3.5t-12.5 -3q16 -16 45 -39t63.5 -48.5t70 -52t64.5 -48.5t47.5 -38t19.5 -21q1 -2 1 -6q0 -3 -1 -4q-26 -34 -55 -64.5t-58.5 -60.5t-58 -60.5
t-53.5 -64.5q30 -10 62.5 -14.5t64.5 -6t64 -1t62 0.5q54 0 105 6t105 6q7 -39 -12 -69t-51 -50.5t-70.5 -31t-69.5 -10.5h-510q-1 0 -5.5 4t-6.5 6l-1 2t0 3zM82 1055l151 -1q2 0 5.5 -4t5.5 -6q10 -8 26 -23t33.5 -32.5t35 -35.5t32 -33t23.5 -25t9 -11l3 -21
q-30 0 -51.5 -0.5t-40.5 -0.5t-37.5 0.5t-42.5 2.5q-8 13 -33 36t-52.5 48t-49.5 48.5t-25 37.5q-2 5 -1 12.5t9 7.5z" />
    <glyph glyph-name="FL00C9h" unicode="&#xc9;" horiz-adv-x="812" 
d="M28 15q-1 -1 0 -3l1 -2q2 -2 6.5 -6t5.5 -4h510q31 0 69.5 10.5t70.5 31t51 50.5t12 69q-54 0 -105 -6t-105 -6q-30 0 -62 -0.5t-64 1t-64.5 6t-62.5 14.5q25 34 53.5 64.5t58 60.5t58.5 60.5t55 64.5q1 1 1 4q0 4 -1 6q-1 5 -19.5 21t-47.5 38t-64.5 48.5t-70 52
t-63.5 48.5t-45 39q3 1 12.5 3t20.5 3.5t21.5 2.5t13.5 1q14 1 50.5 4.5t77.5 7t78 6t51 2.5q14 16 34.5 40.5t28.5 49.5v5q0 1 -1 3l-1 2l-5.5 5.5t-5.5 4.5q-6 -1 -20 -3t-29.5 -3.5t-29.5 -2.5t-20 -1q-17 0 -53 -0.5t-82 -0.5h-95h-96q-45 0 -81 0.5t-53 0.5
q-3 -3 -13 -14.5t-12 -15.5l-17.5 -27.5t-20 -32.5t-16.5 -27.5t-7 -12.5l3 -20l367 -331l-222 -176q-3 -2 -8 -10t-7 -10q-3 -6 -9.5 -21.5t-13 -33t-12 -33.5t-6.5 -22v-5zM391 1054l-151 -1q-2 0 -4 -4t-5 -6q-11 -11 -28 -37.5t-33 -53.5t-27 -47.5t-11 -21.5l3 -21
q30 0 51.5 -0.5t40.5 -0.5t37.5 0.5t41.5 2.5q3 13 20 36t35.5 48t32.5 48.5t11 37.5q-2 5 -4 12.5t-10 7.5z" />
    <glyph glyph-name="FL00CAh" unicode="&#xca;" horiz-adv-x="812" 
d="M28 15q-1 -1 0 -3l1 -2q2 -2 6.5 -6t5.5 -4h510q31 0 69.5 10.5t70.5 31t51 50.5t12 69q-54 0 -105 -6t-105 -6q-30 0 -62 -0.5t-64 1t-64.5 6t-62.5 14.5q25 34 53.5 64.5t58 60.5t58.5 60.5t55 64.5q1 1 1 4q0 4 -1 6q-1 5 -19.5 21t-47.5 38t-64.5 48.5t-70 52
t-63.5 48.5t-45 39q3 1 12.5 3t20.5 3.5t21.5 2.5t13.5 1q14 1 50.5 4.5t77.5 7t78 6t51 2.5q14 16 34.5 40.5t28.5 49.5v5q0 1 -1 3l-1 2l-5.5 5.5t-5.5 4.5q-6 -1 -20 -3t-29.5 -3.5t-29.5 -2.5t-20 -1q-17 0 -53 -0.5t-82 -0.5h-95h-96q-45 0 -81 0.5t-53 0.5
q-3 -3 -13 -14.5t-12 -15.5l-17.5 -27.5t-20 -32.5t-16.5 -27.5t-7 -12.5l3 -20l367 -331l-222 -176q-3 -2 -8 -10t-7 -10q-3 -6 -9.5 -21.5t-13 -33t-12 -33.5t-6.5 -22v-5zM151 1057q-8 0 -8 -6v-11q-12 -13 -28.5 -38.5t-32 -52t-26 -46t-10.5 -20.5l3 -21
q30 0 51.5 -0.5t40.5 -0.5q9 0 15 -0.5t11 -0.5h11h7q7 0 10 1q1 4 7 16t14 26t16 27.5t14 21.5q9 -8 22 -21t25.5 -26.5t22.5 -25t13 -15.5q4 -1 10 -1h8h12q5 0 10.5 0.5t14.5 0.5q19 0 40 0.5t51 0.5l-3 21q0 1 -18 21t-43.5 46t-52 52t-42.5 38q-2 9 -10 11q-2 2 -3 2z
" />
    <glyph glyph-name="FL00CBh" unicode="&#xcb;" horiz-adv-x="812" 
d="M28 15v5q1 6 6.5 22t12 33.5t13 33t9.5 21.5q2 2 7 10t8 10l222 176l-367 331l-3 20q0 1 7 12.5t16.5 27.5t20 32.5l17.5 27.5q2 4 12 15.5t13 14.5q17 0 53 -0.5t81 -0.5h96h95q46 0 82 0.5t53 0.5q6 0 20 1t29.5 2.5t29.5 3.5t20 3q2 -1 5.5 -4.5l5.5 -5.5l1 -2t1 -3
v-5q-8 -25 -28.5 -49.5t-34.5 -40.5q-14 0 -51 -2.5t-78 -6t-77.5 -7t-50.5 -4.5q-3 0 -13.5 -1t-21.5 -2.5t-20.5 -3.5t-12.5 -3q16 -16 45 -39t63.5 -48.5t70 -52t64.5 -48.5t47.5 -38t19.5 -21q1 -2 1 -6q0 -3 -1 -4q-26 -34 -55 -64.5t-58.5 -60.5t-58 -60.5
t-53.5 -64.5q30 -10 62.5 -14.5t64.5 -6t64 -1t62 0.5q54 0 105 6t105 6q7 -39 -12 -69t-51 -50.5t-70.5 -31t-69.5 -10.5h-510q-1 0 -5.5 4t-6.5 6l-1 2t0 3zM204 1020q8 0 10 -7.5t4 -12.5l6 -32q5 -26 6.5 -54.5t-6.5 -48.5q-23 -2 -41 -2.5t-37 -0.5t-40.5 0.5
t-51.5 0.5l-3 21l-4 16q-2 11 -4 26.5t-3 31t-0.5 29.5t3.5 22q1 2 4.5 6t5.5 4zM445 1021q8 0 10.5 -7.5t3.5 -12.5l6 -32q5 -26 7 -54.5t-6 -48.5q-23 -2 -41 -2.5t-37 -0.5t-40.5 0.5t-51.5 0.5l-4 21l-4 16q-2 11 -4 26.5t-2.5 31t0 29.5t3.5 22q0 2 4 6t6 4z" />
    <glyph glyph-name="FL00CCh" unicode="&#xcc;" horiz-adv-x="807" 
d="M254 128h1l-92 542l-11 10q-1 0 -14.5 0.5t-21.5 0.5q-36 0 -67.5 -3t-63.5 -9q-2 0 -8.5 -3t-14 -7t-14 -7t-8.5 -3q-2 -1 -12 -2t-12 -1q-4 19 -3.5 42t3.5 45t7 42t7 34h10q45 0 85.5 -1.5t80.5 -3.5t81 -3.5t88 -1.5q50 0 93 1.5t85 3.5t85 3.5t93 1.5l5 -20l-75 -90
q-8 0 -20.5 -1t-26 -2.5t-25.5 -3t-19 -2.5t-16.5 -2.5t-18.5 -3t-16 -3l-7 -1.5l-1 -50l4 -23q3 -20 7.5 -45.5t9.5 -52.5l6 -41q15 -85 35 -167.5t37 -167.5l4 -5q1 0 14.5 -0.5t21.5 -0.5q37 0 66 2t61 8q2 0 8.5 3t14 7t14 7t8.5 3q4 1 14 2t12 1q3 -20 2 -42.5
t-4 -44.5t-7 -42t-7 -34h-10q-75 0 -145 2.5t-149.5 4.5t-175 1t-221.5 -8l-3 20l73 90q8 0 21 1.5t27 3t27 3.5t21 3q6 1 15.5 2.5t18.5 3t16 3zM46 1055l151 -1q2 0 5.5 -4t5.5 -6q10 -8 26 -23t33.5 -32.5t35 -35.5t32 -33t23.5 -25t9 -11l3 -21q-30 0 -51.5 -0.5
t-40.5 -0.5t-37.5 0.5t-42.5 2.5q-8 13 -33 36t-52.5 48t-49.5 48.5t-25 37.5q-2 5 -1 12.5t9 7.5z" />
    <glyph glyph-name="FL00CDh" unicode="&#xcd;" horiz-adv-x="807" 
d="M254 128l-7 -1.5t-16 -3t-18.5 -3t-15.5 -2.5q-8 -1 -21 -3t-27 -3.5t-27 -3t-21 -1.5l-73 -90l3 -20q126 7 221.5 8t175 -1t149.5 -4.5t145 -2.5h10q3 14 7 34t7 42t4 44.5t-2 42.5q-2 0 -12 -1t-14 -2q-2 0 -8.5 -3t-14 -7t-14 -7t-8.5 -3q-32 -6 -61 -8t-66 -2
q-8 0 -21.5 0.5t-14.5 0.5l-4 5q-17 85 -37 167.5t-35 167.5l-6 41q-5 27 -9.5 52.5t-7.5 45.5l-4 23l1 50l7 1.5t16 3t18.5 3t16.5 2.5t19 2.5t25.5 3t26 2.5t20.5 1l75 90l-5 20q-50 0 -93 -1.5t-85 -3.5t-85 -3.5t-93 -1.5q-47 0 -88 1.5t-81 3.5t-80.5 3.5t-85.5 1.5
h-10q-3 -14 -7 -34t-7 -42t-3.5 -45t3.5 -42q2 0 12 1t12 2q2 0 8.5 3t14 7t14 7t8.5 3q32 6 63.5 9t67.5 3q8 0 21.5 -0.5t14.5 -0.5l11 -10l92 -542h-1zM375 1056l-151 -1q-2 0 -4 -4t-6 -6q-11 -11 -28 -37t-32.5 -53.5t-27 -48.5l-11.5 -21l4 -21q30 0 51.5 -0.5
t40.5 -0.5t37 0.5t41 2.5q3 13 20 36t36 48t33 48.5t11 37.5q-2 5 -4 12.5t-10 7.5z" />
    <glyph glyph-name="FL00CFh" unicode="&#xce;" horiz-adv-x="876" 
d="M286 128l-7 -1.5t-16 -3t-18.5 -3t-15.5 -2.5q-8 -1 -26 -3t-38 -3.5t-38 -2.5t-26 -1l-73 -90l2 -20q126 7 232.5 8t199 -1t173 -4.5t155.5 -2.5h10q3 14 7.5 34t7.5 42t4 44.5t-2 42.5q-2 0 -12 -1t-12 -2q-2 0 -9 -3t-14.5 -7t-14.5 -7t-9 -3q-16 -3 -36.5 -5
t-43 -3.5t-44.5 -2t-40 -0.5q-8 0 -21.5 0.5t-14.5 0.5l-4 5q-17 85 -37 167.5t-35 167.5l-6 41q-5 27 -9.5 52.5t-7.5 45.5l-4 23l1 50l7 1.5t16 3t18.5 3t16.5 2.5t25 3t38 3.5t38 2.5t26 1l76 90l-5 20q-100 0 -196.5 -5.5t-196.5 -5.5q-94 0 -185 5.5t-182 5.5h-10
q-3 -14 -7.5 -34t-7 -42t-3 -45t3.5 -42q2 0 12 1t12 2q2 0 8.5 3t14 7t14 7t8.5 3q16 3 37 5t43 3.5t43.5 2t39.5 0.5q8 0 21.5 -0.5t14.5 -0.5l11 -10l92 -542h-1zM163 1058q-8 0 -8 -6t-1 -11q-11 -13 -27.5 -38.5t-32 -52t-26 -46t-10.5 -20.5l3 -21q30 0 51.5 -0.5
t40.5 -0.5q9 0 14.5 -0.5t10.5 -0.5h11h7q7 0 11 1q1 4 7 16t13.5 26t15.5 27.5t14 21.5q9 -8 22 -21t26 -26.5t23 -25t12 -15.5q5 -1 11 -1h8h12q5 0 10 0.5t14 0.5q19 0 40.5 0.5t51.5 0.5l-3 21q0 1 -18.5 21t-43.5 46t-51.5 52t-42.5 38q-2 9 -10 11q-2 2 -4 2z" />
    <glyph glyph-name="FL00D1h" unicode="&#xcf;" horiz-adv-x="807" 
d="M254 128h1l-92 542l-11 10q-1 0 -14.5 0.5t-21.5 0.5q-36 0 -67.5 -3t-63.5 -9q-2 0 -8.5 -3t-14 -7t-14 -7t-8.5 -3q-2 -1 -12 -2t-12 -1q-4 19 -3.5 42t3.5 45t7 42t7 34h10q45 0 85.5 -1.5t80.5 -3.5t81 -3.5t88 -1.5q50 0 93 1.5t85 3.5t85 3.5t93 1.5l5 -20l-75 -90
q-8 0 -20.5 -1t-26 -2.5t-25.5 -3t-19 -2.5t-16.5 -2.5t-18.5 -3t-16 -3l-7 -1.5l-1 -50l4 -23q3 -20 7.5 -45.5t9.5 -52.5l6 -41q15 -85 35 -167.5t37 -167.5l4 -5q1 0 14.5 -0.5t21.5 -0.5q37 0 66 2t61 8q2 0 8.5 3t14 7t14 7t8.5 3q4 1 14 2t12 1q3 -20 2 -42.5
t-4 -44.5t-7 -42t-7 -34h-10q-75 0 -145 2.5t-149.5 4.5t-175 1t-221.5 -8l-3 20l73 90q8 0 21 1.5t27 3t27 3.5t21 3q6 1 15.5 2.5t18.5 3t16 3zM186 1017q8 0 10.5 -7.5t3.5 -12.5l6 -32q4 -26 6.5 -54.5t-5.5 -48.5q-23 -2 -41 -2.5t-37 -0.5t-40.5 0.5t-51.5 0.5l-4 21
l-4 16q-2 11 -4 26.5t-3 31t-0.5 29.5t4.5 22q0 2 3 6t5 4zM428 1018q8 0 10 -7.5t4 -12.5l6 -32q5 -26 7 -54.5t-6 -48.5q-23 -2 -41 -2.5t-37 -0.5t-41 0.5t-52 0.5l-3 21l-4 16q-2 11 -4 26.5t-3 31t-0.5 29.5t4.5 22q0 2 3.5 6t5.5 4z" />
    <glyph glyph-name="FL00D0h" unicode="&#xd0;" horiz-adv-x="1159" 
d="M-25 307l1 -4q2 -2 6.5 -3.5t9.5 -3t9.5 -2.5t5.5 -1q3 1 8 5.5t10.5 10t9.5 11t5 8.5h143l60 -328h445q89 0 165 21.5t128.5 66.5t75.5 115t6 166q-22 117 -74.5 195.5t-131.5 135.5q-38 29 -77 48.5t-80.5 32t-85 20t-89.5 11.5h-431q-13 -17 -21 -26.5t-7.5 -20.5
t13 -29t41.5 -52l36 -197h-153q-1 0 -3 -7.5t-4 -12.5q-2 -15 -6.5 -35.5t-9 -42.5t-6.5 -43.5t1 -38.5zM344 735l175 -1q69 0 115.5 -29.5t76.5 -76t47 -104t26 -112.5q8 -45 14.5 -90.5t4.5 -86t-14.5 -73.5t-42.5 -54q-48 -28 -56 -30h-14h-48h-68h-45q-24 0 -53 -1
l-47 252h172q1 0 3.5 5.5t4.5 9.5q6 22 12.5 40t10 35.5t4 36.5t-3.5 43q-2 11 -10.5 15t-18.5 4h-5l-27 -20q-3 -2 -10 -6t-8 -4h-152z" />
    <glyph glyph-name="FL00DFh" unicode="&#xd1;" horiz-adv-x="1096" 
d="M99 171q3 -17 13 -46t25 -57t34 -48.5t40 -20.5q7 0 23 1.5t35.5 4.5t40 8t37.5 11t27 13.5t8 16.5q-19 97 -40.5 190.5t-39.5 190.5l-8 45q-6 32 -12 67.5t-12 67.5l-8 45q-10 18 -6 28t14.5 14.5t23 5.5t20.5 2t33 3t54.5 3.5t57.5 2.5t42 1h22q12 0 27 -0.5t28 -0.5
t23.5 -0.5t15.5 -0.5l127 -708l17 -10l222 40q2 0 5.5 4t4.5 6l-1 4l-2 6q-12 35 -24 64.5t-18 65.5l-86 470q-5 28 -1.5 45.5t11 29t17 19t17.5 15t12 17.5t1 27h-775l-150 2q-10 0 -27 -8t-33 -20t-26.5 -26t-8.5 -26q1 -8 19 -13t40 -12t41.5 -18.5t22.5 -31.5l81 -450
q-7 -9 -6.5 -18.5t2.5 -20.5zM166 851l1 -4q1 -2 5.5 -3.5t9.5 -3t9.5 -2.5t5.5 -1q3 1 8.5 11.5t11 23.5t10 24.5t5.5 14.5h348q1 1 2.5 6.5t3.5 9.5q6 22 11.5 37t9 29t3.5 29q0 16 -4 40q-2 11 -10.5 15t-18.5 4h-5l-24 -60q-3 -2 -10.5 -6t-8.5 -4h-338q-1 -1 -2.5 -8.5
l-2.5 -12.5q-3 -15 -7.5 -32.5t-8.5 -35.5t-5.5 -36t1.5 -35z" />
    <glyph glyph-name="FL00D2h" unicode="&#xd2;" 
d="M572 502q8 0 10 -7.5t4 -12.5q3 -14 0 -29.5t-8 -31.5t-11 -31t-10 -28q-24 -2 -58 -4t-71 -3.5t-74 -2.5t-67 -1l-3 21q0 1 3.5 14t8 30.5t10 36t9.5 29.5q0 2 2.5 6t4.5 4zM222 432q10 -54 28 -115.5t50 -114.5t81.5 -88t121.5 -35q70 0 106.5 33.5t49.5 85t9 113
t-14 117.5q-11 57 -30.5 113.5t-52 101t-80 72.5t-113.5 28q-47 0 -80.5 -13t-54.5 -37.5t-31 -60t-11 -80.5l4 -24q5 -17 8 -36t5 -36zM-41 398q-21 117 5.5 198t88.5 131.5t153 73t198 22.5q89 0 173 -22t152.5 -67t116.5 -115t65 -166q21 -117 -0.5 -203t-79 -141.5
t-146.5 -82.5t-203 -27q-98 0 -184.5 23t-155.5 71.5t-116.5 124t-66.5 180.5zM173 1056l151 -1q2 0 5.5 -4t4.5 -6q10 -7 26 -21.5t33.5 -32.5t35.5 -36.5t32 -34t23 -25.5l9 -10l4 -21q-30 0 -51.5 -0.5t-40.5 -0.5t-37.5 0.5t-42.5 2.5q-9 13 -34 36t-52 48t-49 48.5
t-25 37.5q-2 5 -1 12.5t9 7.5z" />
    <glyph glyph-name="FL00D3h" unicode="&#xd3;" 
d="M-41 398q19 -105 66.5 -180.5t116.5 -124t155.5 -71.5t184.5 -23q114 0 203 27t146.5 82.5t79 141.5t0.5 203q-17 96 -65 166t-116.5 115t-152.5 67t-173 22q-107 0 -198 -22.5t-153 -73t-88.5 -131.5t-5.5 -198zM222 432l-4 24q-2 17 -5 36t-8 36l-4 24q1 45 11 80.5
t31 60t54.5 37.5t80.5 13q66 0 113.5 -28t80 -72.5t52 -101t30.5 -113.5q10 -56 14 -117.5t-9 -113t-49.5 -85t-106.5 -33.5q-72 0 -121.5 35t-81.5 88t-50 114.5t-28 115.5zM572 502l-250 -10q-2 0 -4.5 -4t-2.5 -6q-4 -11 -9.5 -29.5t-10 -36t-8 -30.5t-3.5 -14l3 -21
q30 0 67 1t74 2.5t71 3.5t58 4q4 13 10 28t11 31t8 31.5t0 29.5q-2 5 -4 12.5t-10 7.5zM471 1056l-151 -1q-2 0 -4 -4t-6 -6q-11 -11 -28 -37t-32.5 -53.5t-27 -48.5l-11.5 -21l4 -21q30 0 51.5 -0.5t40.5 -0.5t37 0.5t41 2.5q3 13 20 36t36 48t33 48.5t11 37.5
q-2 5 -4 12.5t-10 7.5z" />
    <glyph glyph-name="FL00D4h" unicode="&#xd4;" 
d="M-41 398q19 -105 66.5 -180.5t116.5 -124t155.5 -71.5t184.5 -23q114 0 203 27t146.5 82.5t79 141.5t0.5 203q-17 96 -65 166t-116.5 115t-152.5 67t-173 22q-107 0 -198 -22.5t-153 -73t-88.5 -131.5t-5.5 -198zM222 432l-4 24q-2 17 -5 36t-8 36l-4 24q1 45 11 80.5
t31 60t54.5 37.5t80.5 13q66 0 113.5 -28t80 -72.5t52 -101t30.5 -113.5q10 -56 14 -117.5t-9 -113t-49.5 -85t-106.5 -33.5q-72 0 -121.5 35t-81.5 88t-50 114.5t-28 115.5zM244 1062q-8 0 -8 -6t-1 -11q-11 -13 -27.5 -38.5t-32 -52t-26 -46t-10.5 -20.5l3 -21
q30 0 51.5 -0.5t40.5 -0.5q9 0 14.5 -0.5t10.5 -0.5h11h7q7 0 11 1l8 16t13.5 26t15 27.5t13.5 21.5q9 -8 22 -21t26 -26.5t23 -25t12 -15.5q5 -1 11 -1h8h12q5 0 10 0.5t14 0.5q19 0 40.5 0.5t51.5 0.5l-3 21l-8.5 10t-22.5 24.5t-31 32.5t-34 35.5t-32 32t-26 22.5
q-5 10 -12 11q-2 2 -4 2zM572 502l-250 -10q-2 0 -4.5 -4t-2.5 -6q-4 -11 -9.5 -29.5t-10 -36t-8 -30.5t-3.5 -14l3 -21q30 0 67 1t74 2.5t71 3.5t58 4q4 13 10 28t11 31t8 31.5t0 29.5q-2 5 -4 12.5t-10 7.5z" />
    <glyph glyph-name="FL00D5h" unicode="&#xd5;" 
d="M-41 398q19 -105 66.5 -180.5t116.5 -124t155.5 -71.5t184.5 -23q114 0 203 27t146.5 82.5t79 141.5t0.5 203q-17 96 -65 166t-116.5 115t-152.5 67t-173 22q-107 0 -198 -22.5t-153 -73t-88.5 -131.5t-5.5 -198zM222 432l-4 24l-14 72l-4 24q3 91 43.5 141t134.5 50
q66 0 113.5 -28t80 -72.5t52 -101t30.5 -113.5q10 -56 14 -117.5t-9 -113t-49.5 -85t-106.5 -33.5q-72 0 -121.5 35t-81.5 88t-50 114.5t-28 115.5zM572 502l-250 -10q-2 0 -4.5 -4t-2.5 -6q-4 -11 -9.5 -29.5t-10 -36t-8 -30.5t-3.5 -14l3 -21q30 0 67 1t74 2.5t71 3.5
t58 4q4 13 10 28t11 31t8 31.5t0 29.5q-2 5 -4 12.5t-10 7.5zM103 839l1 -4q2 -2 7 -3.5l10 -3t9.5 -2.5t5.5 -1q3 1 8 11.5t10.5 23.5t9.5 24.5t5 14.5h348q1 1 3.5 6.5t4.5 9.5q6 22 11.5 37t8.5 29t3.5 29.5t-3.5 39.5q-3 11 -12 15t-19 4h-5l-24 -60q-3 -2 -9.5 -6
t-7.5 -4h-338q-1 -1 -3.5 -8.5t-3.5 -12.5q-2 -15 -6.5 -32.5t-8 -35.5t-6 -36t0.5 -35z" />
    <glyph glyph-name="FL00D6h" unicode="&#xd6;" 
d="M572 502q8 0 10 -7.5t4 -12.5q3 -14 0 -29.5t-8 -31.5t-11 -31t-10 -28q-24 -2 -58 -4t-71 -3.5t-74 -2.5t-67 -1l-3 21q0 1 3.5 14t8 30.5t10 36t9.5 29.5q0 2 2.5 6t4.5 4zM222 432q10 -54 28 -115.5t50 -114.5t81.5 -88t121.5 -35q70 0 106.5 33.5t49.5 85t9 113
t-14 117.5q-11 57 -30.5 113.5t-52 101t-80 72.5t-113.5 28q-47 0 -80.5 -13t-54.5 -37.5t-31 -60t-11 -80.5l4 -24q5 -17 8 -36t5 -36zM-41 398q-21 117 5.5 198t88.5 131.5t153 73t198 22.5q89 0 173 -22t152.5 -67t116.5 -115t65 -166q21 -117 -0.5 -203t-79 -141.5
t-146.5 -82.5t-203 -27q-98 0 -184.5 23t-155.5 71.5t-116.5 124t-66.5 180.5zM302 1022q8 0 10 -7.5t4 -12.5l6 -32q5 -26 7 -54.5t-6 -48.5q-23 -2 -41 -2.5t-37 -0.5t-41 0.5t-52 0.5l-3 21l-4 16q-1 11 -3 26.5t-3 31t-0.5 29.5t3.5 22q0 2 3.5 6t5.5 4zM544 1023
q8 0 10 -7.5t4 -12.5l6 -32q5 -26 7 -54.5t-6 -48.5q-23 -2 -41.5 -2.5t-37.5 -0.5t-40.5 0.5t-51.5 0.5l-3 21l-2 16q-2 11 -4 26.5t-3.5 31t-1 29.5t3.5 22q0 2 3.5 6t5.5 4z" />
    <glyph glyph-name="FL00D7h" unicode="&#xd7;" horiz-adv-x="543" 
d="M3 147l149 216l-14 16q-8 9 -28.5 31.5t-43 47.5t-43 47t-27.5 31q-8 10 -20 16t-20 11l-5 17q6 0 22.5 1.5t35 3.5t34.5 3.5t22 1.5h3q3 0 7 0.5t7 0.5h5q3 0 8.5 -0.5l5.5 -0.5l117 -136l116 158l1 0.5t2 0.5l2 -1q4 -2 8.5 -5.5t5.5 -5.5l17 -92l-93 -126l152 -177
l55 -49v-2l1 -3q-2 -2 -1.5 -5.5t-1.5 -5.5h-2q-29 0 -64 7t-63 20q-13 6 -22 14.5t-20 18.5l-89 86l-6.5 6.5t-5.5 4.5l-4 1q-1 0 -1.5 -0.5l-0.5 -0.5l-100 -130q-16 -19 -44 -28.5t-53 -14.5z" />
    <glyph glyph-name="FL00D8h" unicode="&#xd8;" 
d="M550 909l-43 -94q-24 4 -50.5 6t-52.5 2q-107 0 -198 -22.5t-153 -73t-88.5 -131.5t-5.5 -198q20 -118 76 -198t141 -128l-30 -65q-2 -2 1.5 -7t6.5 -7q9 -10 25 -22t32.5 -22.5t28.5 -17.5t13 -7l21 -9q3 10 14.5 37t28.5 65q76 -18 165 -18q114 0 203 27t146.5 82.5
t79 141.5t0.5 203q-22 124 -93.5 203t-171.5 121q25 61 30 76q-22 24 -49.5 34.5t-53.5 22.5l-13.5 4.5t-9.5 -5.5zM583 627q29 -45 45 -96t26 -103q10 -56 14 -117.5t-9 -113t-49.5 -85t-106.5 -33.5q-83 0 -140 48q25 56 53 120t57 129.5t57.5 129.5t52.5 121zM222 432
l-4 24q-2 17 -5 36t-8 36l-4 24q1 45 11 80.5t31 60t54.5 37.5t80.5 13t89 -17l-201 -453q-17 40 -27 81t-17 78z" />
    <glyph glyph-name="FL00D9h" unicode="&#xd9;" horiz-adv-x="1096" 
d="M850 643q2 -11 3 -20.5t-7 -18.5l81 -450q3 -20 22.5 -31.5t41.5 -18.5t40.5 -12t20.5 -13q2 -12 -9 -26t-27 -26t-33.5 -20t-27.5 -8l-150 2h-775q-3 17 1 27t12 17.5t18 15t17.5 19t10.5 29t-2 45.5l-84 470q-8 36 -19 65.5t-25 64.5l1 6l-1 4q0 2 2.5 6t4.5 4l222 40
l18 -10l126 -708q4 0 15 -0.5t24 -0.5t28 -0.5t27 -0.5h22q13 0 41.5 1t58.5 2.5t55.5 3.5t33.5 3q7 1 20 2t23.5 5.5t14 14.5t-7.5 28l-8 45q-6 32 -11.5 67.5t-10.5 67.5l-9 45q-17 97 -39 190.5t-39 190.5q-2 9 8 16.5t26.5 13.5t36.5 11t39.5 8t35 4.5t22.5 1.5
q21 0 40 -20.5t34 -48.5t25 -57t13 -46zM182 1015l151 -1q2 0 6 -4t7 -6q15 -11 41.5 -37.5t52.5 -53.5t44.5 -47.5t18.5 -21.5l5 -21q-30 0 -51.5 -0.5t-40.5 -0.5t-37.5 0.5t-42.5 2.5q-8 13 -33.5 36t-53 48t-49.5 48.5t-24 37.5q-2 5 -2 12q0 8 8 8z" />
    <glyph glyph-name="FL00DAh" unicode="&#xda;" horiz-adv-x="1096" 
d="M850 643q-3 17 -13 46t-25 57t-34 48.5t-40 20.5q-7 0 -22.5 -1.5t-35 -4.5t-39.5 -8t-36.5 -11t-26.5 -13.5t-8 -16.5q17 -97 39 -190.5t39 -190.5l9 -45q5 -32 10.5 -67.5t11.5 -67.5l8 -45q11 -18 7.5 -28t-14 -14.5t-23.5 -5.5t-20 -2q-8 -1 -33.5 -3t-55.5 -3.5
t-58.5 -2.5t-41.5 -1h-22q-12 0 -27 0.5t-28 0.5t-24 0.5t-15 0.5l-126 708l-18 10l-222 -40q-2 0 -4.5 -4t-2.5 -6l1 -4l-1 -6q14 -35 25 -64.5t19 -65.5l84 -470q5 -28 2 -45.5t-10.5 -29t-17.5 -19t-18 -15t-12 -17.5t-1 -27h775l150 -2q10 0 27.5 8t33.5 20t27 26t9 26
q-2 8 -20.5 13t-40.5 12t-41.5 18.5t-22.5 31.5l-81 450q8 9 7 18.5t-3 20.5zM519 1032l-151 -1q-2 0 -4 -4t-4 -6q-11 -12 -28 -38t-33.5 -52.5t-28 -47.5t-11.5 -22l4 -21q30 0 51.5 -0.5t40.5 -0.5t37 0.5t41 2.5q4 13 21 36t35.5 48t32.5 48.5t11 37.5q0 5 -3 12.5
t-11 7.5z" />
    <glyph glyph-name="FL00DBh" unicode="&#xdb;" horiz-adv-x="1096" 
d="M850 643q-3 17 -13 46t-25 57t-34 48.5t-40 20.5q-7 0 -22.5 -1.5t-35 -4.5t-39.5 -8t-36.5 -11t-26.5 -13.5t-8 -16.5q17 -97 39 -190.5t39 -190.5l9 -45q5 -32 10.5 -67.5t11.5 -67.5l8 -45q11 -18 7.5 -28t-14 -14.5t-23.5 -5.5t-20 -2q-8 -1 -33.5 -3t-55.5 -3.5
t-58.5 -2.5t-41.5 -1h-22q-12 0 -27 0.5t-28 0.5t-24 0.5t-15 0.5l-126 708l-18 10l-222 -40q-2 0 -4.5 -4t-2.5 -6l1 -4l-1 -6q14 -35 25 -64.5t19 -65.5l84 -470q5 -28 2 -45.5t-10.5 -29t-17.5 -19t-18 -15t-12 -17.5t-1 -27h775l150 -2q10 0 27.5 8t33.5 20t27 26t9 26
q-2 8 -20.5 13t-40.5 12t-41.5 18.5t-22.5 31.5l-81 450q8 9 7 18.5t-3 20.5zM276 1051q-8 0 -9.5 -6t0.5 -11q-11 -13 -27.5 -38.5t-32 -52t-26.5 -46t-11 -20.5l4 -21q30 0 51.5 -0.5t40.5 -0.5q9 0 14.5 -0.5t10.5 -0.5h11h7q7 0 11 1q1 4 6.5 16t13 26t15.5 27.5
t15 21.5q8 -8 20.5 -21t25.5 -26.5t23.5 -25t13.5 -15.5q4 -1 10 -1h8h12q5 0 10.5 0.5t14.5 0.5q19 0 40.5 0.5t51.5 0.5l-3 21q0 1 -18.5 21t-44 46t-52 52t-42.5 38q-3 10 -9 11l-4 2z" />
    <glyph glyph-name="FL00DCh" unicode="&#xdc;" horiz-adv-x="1096" 
d="M850 643q2 -11 3 -20.5t-7 -18.5l81 -450q3 -20 22.5 -31.5t41.5 -18.5t40.5 -12t20.5 -13q2 -12 -9 -26t-27 -26t-33.5 -20t-27.5 -8l-150 2h-775q-3 17 1 27t12 17.5t18 15t17.5 19t10.5 29t-2 45.5l-84 470q-8 36 -19 65.5t-25 64.5l1 6l-1 4q0 2 2.5 6t4.5 4l222 40
l18 -10l126 -708q4 0 15 -0.5t24 -0.5t28 -0.5t27 -0.5h22q13 0 41.5 1t58.5 2.5t55.5 3.5t33.5 3q7 1 20 2t23.5 5.5t14 14.5t-7.5 28l-8 45q-6 32 -11.5 67.5t-10.5 67.5l-9 45q-17 97 -39 190.5t-39 190.5q-2 9 8 16.5t26.5 13.5t36.5 11t39.5 8t35 4.5t22.5 1.5
q21 0 40 -20.5t34 -48.5t25 -57t13 -46zM325 1016q8 0 11 -7.5l5 -12.5l6 -32q3 -26 5.5 -54.5t-5.5 -48.5q-23 -2 -41 -2.5t-37 -0.5t-40.5 0.5t-51.5 0.5l-3 21l-4 16q-2 11 -4.5 26.5t-3.5 31t0 29.5t4 22q1 2 3.5 6t4.5 4zM568 1017q8 0 10.5 -7.5t3.5 -12.5l6 -32
q4 -26 6.5 -54.5t-5.5 -48.5q-23 -2 -41 -2.5t-37 -0.5t-40.5 0.5t-51.5 0.5l-4 21l-4 16q-2 11 -4 26.5t-3 31t-0.5 29.5t4.5 22q0 2 3 6t5 4z" />
    <glyph glyph-name="FL00DDh" unicode="&#xdd;" horiz-adv-x="981" 
d="M-80 670q72 6 126.5 -10t97.5 -50t76.5 -84t62.5 -112q2 -4 7.5 -20t10.5 -34t9.5 -33t5.5 -17l57 -317q0 -6 5 -8t11 -3t11.5 -0.5t6.5 0.5q25 0 52 3t53.5 7.5t51 10t44.5 10.5l-4 25q-3 17 -7.5 39t-9.5 46l-7 47q-8 45 -15 84.5t-9 55.5q-5 33 -5.5 72t6 78t19.5 75
t34 64t51.5 45t70.5 17q21 0 42 -6t42 -6q7 0 12 3.5t3 12.5l-1 5q-3 7 -10.5 23.5t-15 34t-14.5 32.5t-9 20q-8 16 -22 24.5t-30.5 12t-33.5 4t-31 0.5q-42 0 -73 -15t-53.5 -40t-37.5 -57.5t-25 -68.5q-4 -16 -7 -44t-5.5 -55t-5 -47t-3.5 -20h-20l-21 50
q-21 60 -44.5 114t-58.5 94.5t-85.5 64.5t-125.5 24q-24 0 -58.5 -11t-65.5 -29.5t-52 -43t-16 -52.5q0 -1 1 -3l1 -2l5.5 -5.5t5.5 -4.5zM511 1035l-151 -1q-2 0 -3.5 -4t-3.5 -6q-11 -11 -28.5 -37.5t-33.5 -53.5t-27.5 -47.5t-11.5 -21.5l3 -21q30 0 51.5 -0.5t40.5 -0.5
t37.5 0.5t42.5 2.5q4 13 20.5 36t34.5 48t32 48.5t11 37.5q0 5 -3 12.5t-11 7.5z" />
    <glyph glyph-name="FL00DEh" unicode="&#xde;" horiz-adv-x="756" 
d="M-2 967l-131 -15q15 -120 34 -230.5t37.5 -210t36 -187t31.5 -162.5q3 -23 10.5 -57.5t16.5 -73t18.5 -78t18 -72t14.5 -55t8 -26.5l18 -40l3 -0.5t5 -0.5q16 0 32.5 3.5t30.5 10.5t24.5 18.5t13.5 28.5q3 9 6 29t5.5 45.5t4.5 54t3 54t0.5 46.5t-1.5 31l-98 533
q37 0 78 -4.5t77 -19.5t62.5 -43.5t34.5 -76.5q8 -45 -1.5 -76t-31 -52.5t-53.5 -36.5t-69 -28q0 -1 -0.5 -4.5t0.5 -5.5q3 -14 12.5 -23t26.5 -17h10q7 0 15 -0.5t15 -0.5h10q63 0 124.5 14t107.5 45t70 80.5t12 121.5l-3 11q-1 9 -3 19t-3 18l-3 12q-19 39 -52 64.5
t-73 41t-82 23t-78 11.5h-37q-26 0 -55.5 0.5t-56.5 0.5h-77l-48 281h-14q-10 0 -21 -0.5t-21 -0.5h-14z" />
    <glyph glyph-name="FL0899h" unicode="&#xdf;" horiz-adv-x="723" 
d="M454 157q-4 22 -11 43t-20 43q1 1 1 3l-1 2q-8 10 -9 13t-9 10q1 3 3.5 5.5l4.5 4.5q7 7 10.5 14.5t5.5 15.5q4 2 12.5 5.5t17.5 6.5t17.5 5t12.5 1q3 2 11 5.5l16 7t15.5 7t9.5 5.5q8 4 11.5 9t10.5 10q5 3 13 4t13 7q9 6 6.5 12.5t1.5 12.5v16v1q-1 2 -2.5 4.5
t-1.5 4.5q-2 1 -2.5 2l-0.5 1v1v6v1q-5 7 -18 12.5t-21 5.5q12 -2 12.5 5t0.5 15q2 5 2 9v11q-2 9 -13 12q0 1 -0.5 1.5l-0.5 0.5q-1 2 3.5 10.5t6.5 12.5q2 3 3.5 6.5t6.5 3.5q7 0 9 -6q-2 0 -4.5 -2.5t-1.5 -4.5l3 -5h2q2 0 9.5 3.5t5.5 8.5q-2 6 -6 12q-5 8 -9 12t-8 6
t-9 2.5t-13 0.5q-2 14 -6 17.5t-15 11.5q-5 1 -5 4q-2 2 -6 2h-3q1 -2 4 -3.5l3 -1.5l1 -1q-6 0 -13 3t-14 3l1 -3q13 0 15 -8q2 -6 -0.5 -10t-7.5 -8h-2q-2 0 -2 4l-17 12l-5.5 11t-10.5 9h-2q7 -9 9 -15l-12 9h-4q1 -2 3 -3l2 -1q1 -2 -3.5 -2.5t-6.5 -2.5v1q0 2 -2 2
q-9 8 -19.5 16t-25.5 11q-21 3 -39 15t-36.5 25.5t-37.5 24t-41 10.5q-8 0 -18.5 -2.5t-17.5 -7.5q0 -1 -2 -2.5t-1 -2.5q-2 -3 -4 -3.5t-4 -2.5q-9 -8 -12.5 -21t-4.5 -25q1 -6 1 -10t1 -7q2 -7 -2 -13q0 -5 -4 -5q-2 2 -4 4.5t-4 4.5h-2l-1 -2q0 -1 -2 -1q2 3 0 5h-1h-1
q0 -1 -1 -1.5t-1 -1.5l2 -13q2 -6 5.5 -7.5t4.5 -5.5l-1.5 -2.5t-2.5 -2.5q-5 -15 -3 -32q2 -5 3.5 -7t3.5 -7q-14 0 -20 3.5t-18 11.5q-2 1 -10.5 6t-13.5 9q-3 1 -9 1q-1 0 -7 2q-5 3 -7 7.5t-5 6.5q-17 22 -36 40t-31 41l-2 2v1q-1 8 3.5 15.5t2.5 15.5q0 5 -1.5 7
t-6.5 8q-2 5 -7 5t-10 4q-10 7 -14 13t-13 17l-4 3l-12 8q-7 3 -15.5 12t-17.5 18.5t-17 17t-14 7.5t-7 -6q4 -13 12 -21q1 -2 5.5 -7t9.5 -10l9.5 -9.5t6.5 -5.5q0 -1 1.5 -4t1.5 -5q1 0 2 -1q0 -1 -4 -1.5t-6 -2.5q2 -9 -2 -10q-1 0 -4 -1.5l-5 -2.5q-4 -1 -6 -6.5
t-2.5 -13t-0.5 -14.5t1 -10t7.5 -14t10.5 -12q2 0 6 -1t6 -1q2 -1 8 -5l9 -6q9 -3 11.5 -5t8.5 -11q10 -26 21 -49.5t30 -47.5l2 -1.5t3 -3.5q8 -9 16 -18.5t17 -16.5q29 -16 55.5 -28.5t57.5 -23.5q4 -5 8.5 -18t8.5 -18l34 -49q1 -4 4.5 -12.5t7 -17.5t7.5 -17.5t6 -11.5
q0 -4 0.5 -5.5t0.5 0.5l1 -3q1 -6 -2.5 -9.5t-9 -6t-11.5 -5.5t-8 -8l-8 -30q1 -10 0 -18t1 -18q3 -13 13 -37t24.5 -47.5t31.5 -41t34 -17.5q5 0 8 1.5t6 3.5v-1q2 -5 -1 -9t-8 -6q-8 -20 -15 -39.5t-2 -44.5q1 -11 12.5 -18t22.5 -7q7 0 7.5 0.5t5.5 4.5q25 20 46.5 42
t35.5 48.5t19.5 57.5t-1.5 68zM334 65q1 0 1 -1q1 -2 0.5 -2.5l-0.5 -0.5q-3 0 -4 3q0 1 3 1zM334 67l1 -1v-1q-1 0 -1 1q-1 1 0 1zM334 71q2 0 2 -2q0 -1 -1 -1t-1 1v2zM519 409q1 -3 -8.5 -6.5t-22 -6.5t-24 -5t-14.5 -2h-2l-21 26l1 4q5 -7 11 -8.5t12 -1.5l-1 4l-1.5 2
t-2.5 4q5 -1 10 -6h2h5h2h17q8 -1 17.5 2t7.5 9h7q4 -10 5 -15zM444 423q1 0 1 -2v-2q-2 0 -2 2t1 2zM556 514q1 0 1.5 -0.5l0.5 -0.5q0 -1 -2 -1t-2 1l0.5 0.5t1.5 0.5z" />
    <glyph glyph-name="FL00E0h" unicode="&#xe0;" horiz-adv-x="1041" 
d="M25 30q80 143 137.5 292t104.5 308q4 16 5.5 34.5t3.5 37.5t5 36.5t11 31.5q8 5 23.5 15t34.5 20.5t38 18t33 7.5q7 0 12.5 -1.5t10.5 -9.5q9 -15 27.5 -46.5t42 -71t50 -83t50 -83t42.5 -70.5t29 -46q5 -8 18 -27t29.5 -44t36 -53.5t37.5 -54.5t33 -48t23 -33
q7 -12 18.5 -26t24.5 -27.5t27 -25.5t27 -21q1 -2 7.5 -4.5t14 -5.5t14 -6t7.5 -4l1.5 -3.5t1.5 -5.5q2 -6 1.5 -12t-8.5 -9q-48 -11 -105.5 -11.5t-105.5 -0.5q-9 0 -23.5 0.5t-28.5 0.5t-24 0.5t-11 0.5l-23 20l-328 526l-159 -546q-1 -5 -7.5 -7.5t-14 -3.5t-14.5 -0.5
t-10 0.5q-30 0 -62 7.5t-57 33.5zM171 1056l151 -1q2 0 5.5 -4t4.5 -6q10 -7 26 -21.5t33.5 -32.5t35.5 -36.5t32 -34t23 -25.5l9 -10l4 -21q-30 0 -51.5 -0.5t-40.5 -0.5t-37.5 0.5t-42.5 2.5q-9 13 -34 36t-52 48t-49 48.5t-25 37.5q-2 5 -1 12.5t9 7.5z" />
    <glyph glyph-name="FL00E1h" unicode="&#xe1;" horiz-adv-x="1041" 
d="M25 30q25 -26 57 -33.5t62 -7.5q3 0 10 -0.5t14.5 0.5t14 3.5t7.5 7.5l159 546l328 -526l23 -20q1 0 11 -0.5t24 -0.5t28.5 -0.5t23.5 -0.5q48 0 105.5 0.5t105.5 11.5q8 3 8.5 9t-1.5 12q0 2 -1.5 5.5l-1.5 3.5q-1 1 -7.5 4t-14 6t-14 5.5t-7.5 4.5q-13 9 -27 21
t-27 25.5t-24.5 27.5t-18.5 26q-9 11 -23.5 33t-32.5 48t-37 54.5t-36 53.5t-30 44t-18 27q-10 15 -29 46t-42.5 70.5t-50 83t-50 83t-42 71t-27.5 46.5q-5 8 -10.5 9.5t-12.5 1.5q-14 0 -33 -7.5t-38 -18t-34.5 -20.5t-23.5 -15q-8 -14 -11 -31.5t-5 -36.5t-3.5 -37.5
t-5.5 -34.5q-47 -159 -104.5 -308t-137.5 -292zM469 1056l-151 -1q-2 0 -4 -4t-6 -6q-11 -11 -28 -37t-32.5 -53.5t-27 -48.5l-11.5 -21l4 -21q30 0 51.5 -0.5t40.5 -0.5t37 0.5t41 2.5q3 13 20 36t36 48t33 48.5t11 37.5q-2 5 -4 12.5t-10 7.5z" />
    <glyph glyph-name="FL00E2h" unicode="&#xe2;" horiz-adv-x="1041" 
d="M25 30q25 -26 57 -33.5t62 -7.5q3 0 10 -0.5t14.5 0.5t14 3.5t7.5 7.5l159 546l328 -526l23 -20q1 0 11 -0.5t24 -0.5t28.5 -0.5t23.5 -0.5q48 0 105.5 0.5t105.5 11.5q8 3 8.5 9t-1.5 12q0 2 -1.5 5.5l-1.5 3.5q-1 1 -7.5 4t-14 6t-14 5.5t-7.5 4.5q-13 9 -27 21
t-27 25.5t-24.5 27.5t-18.5 26q-9 11 -23.5 33t-32.5 48t-37 54.5t-36 53.5t-30 44t-18 27q-10 15 -29 46t-42.5 70.5t-50 83t-50 83t-42 71t-27.5 46.5q-5 8 -10.5 9.5t-12.5 1.5q-14 0 -33 -7.5t-38 -18t-34.5 -20.5t-23.5 -15q-8 -14 -11 -31.5t-5 -36.5t-3.5 -37.5
t-5.5 -34.5q-47 -159 -104.5 -308t-137.5 -292zM242 1062q-8 0 -8 -6t-1 -11q-11 -13 -27.5 -38.5t-32 -52t-26 -46t-10.5 -20.5l3 -21q30 0 51.5 -0.5t40.5 -0.5q9 0 14.5 -0.5t10.5 -0.5h11h7q7 0 11 1l8 16t13.5 26t15 27.5t13.5 21.5q9 -8 22 -21t26 -26.5t23 -25
t12 -15.5q5 -1 11 -1h8h12q5 0 10 0.5t14 0.5q19 0 40.5 0.5t51.5 0.5l-3 21l-8.5 10t-22.5 24.5t-31 32.5t-34 35.5t-32.5 32t-25.5 22.5q-5 10 -12 11q-2 2 -4 2z" />
    <glyph glyph-name="FL00E3h" unicode="&#xe3;" horiz-adv-x="1041" 
d="M25 30q25 -26 57 -33.5t62 -7.5q3 0 10 -0.5t14.5 0.5t14 3.5t7.5 7.5l159 546l328 -526l23 -20q1 0 11 -0.5t24 -0.5t28.5 -0.5t23.5 -0.5q48 0 105.5 0.5t105.5 11.5q8 3 8.5 9t-1.5 12q0 2 -1.5 5.5l-1.5 3.5q-1 1 -7.5 4t-14 6t-14 5.5t-7.5 4.5q-13 9 -27 21
t-27 25.5t-24.5 27.5t-18.5 26q-9 11 -23.5 33t-32.5 48t-37 54.5t-36 53.5t-30 44t-18 27q-10 15 -29 46t-42.5 70.5t-50 83t-50 83t-42 71t-27.5 46.5q-5 8 -10.5 9.5t-12.5 1.5q-14 0 -33 -7.5t-38 -18t-34.5 -20.5t-23.5 -15q-8 -14 -11 -31.5t-5 -36.5t-3.5 -37.5
t-5.5 -34.5q-47 -159 -104.5 -308t-137.5 -292zM119 833l1 -4q5 -4 18 -7t15 -3q3 1 7.5 11.5t10 23.5t9.5 24.5t5 14.5h348q1 1 4 6.5t4 9.5q6 22 11.5 37t8.5 29t3 29q0 16 -4 40q-2 11 -10.5 15t-18.5 4h-5l-24 -60q-3 -2 -10 -6t-8 -4h-338q0 -1 -2.5 -8.5t-3.5 -12.5
q-2 -15 -6.5 -32.5t-8.5 -35.5t-6.5 -36t0.5 -35z" />
    <glyph glyph-name="FL00E4h" unicode="&#xe4;" horiz-adv-x="1041" 
d="M25 30q80 143 137.5 292t104.5 308q4 16 5.5 34.5t3.5 37.5t5 36.5t11 31.5q8 5 23.5 15t34.5 20.5t38 18t33 7.5q7 0 12.5 -1.5t10.5 -9.5q9 -15 27.5 -46.5t42 -71t50 -83t50 -83t42.5 -70.5t29 -46q5 -8 18 -27t29.5 -44t36 -53.5t37.5 -54.5t33 -48t23 -33
q7 -12 18.5 -26t24.5 -27.5t27 -25.5t27 -21q1 -2 7.5 -4.5t14 -5.5t14 -6t7.5 -4l1.5 -3.5t1.5 -5.5q2 -6 1.5 -12t-8.5 -9q-48 -11 -105.5 -11.5t-105.5 -0.5q-9 0 -23.5 0.5t-28.5 0.5t-24 0.5t-11 0.5l-23 20l-328 526l-159 -546q-1 -5 -7.5 -7.5t-14 -3.5t-14.5 -0.5
t-10 0.5q-30 0 -62 7.5t-57 33.5zM309 1019q8 0 10 -7.5t4 -12.5l6 -32q5 -26 7 -54.5t-6 -48.5q-23 -2 -41.5 -2.5t-37.5 -0.5t-40.5 0.5t-51.5 0.5l-3 21l-4 16q-2 11 -4 26.5t-3 31t-0.5 29.5t4.5 22q0 2 3.5 6t5.5 4zM551 1020q8 0 10 -7.5t4 -12.5l6 -32
q5 -26 6.5 -54.5t-6.5 -48.5q-23 -2 -41 -2.5t-37 -0.5t-40.5 0.5t-51.5 0.5l-3 21l-4 16q-2 11 -4 26.5t-3 31t-0.5 29.5t3.5 22q1 2 4.5 6t5.5 4z" />
    <glyph glyph-name="FL00E5h" unicode="&#xe5;" horiz-adv-x="1041" 
d="M25 30q80 143 137.5 292t104.5 308q4 16 5.5 34.5t3.5 37.5t5 36.5t11 31.5q8 5 23.5 15t34.5 20.5t38 18t33 7.5q7 0 12.5 -1.5t10.5 -9.5q9 -15 27.5 -46.5t42 -71t50 -83t50 -83t42.5 -70.5t29 -46q5 -8 18 -27t29.5 -44t36 -53.5t37.5 -54.5t33 -48t23 -33
q7 -12 18.5 -26t24.5 -27.5t27 -25.5t27 -21q1 -2 7.5 -4.5t14 -5.5t14 -6t7.5 -4l1.5 -3.5t1.5 -5.5q2 -6 1.5 -12t-8.5 -9q-48 -11 -105.5 -11.5t-105.5 -0.5q-9 0 -23.5 0.5t-28.5 0.5t-24 0.5t-11 0.5l-23 20l-328 526l-159 -546q-1 -5 -7.5 -7.5t-14 -3.5t-14.5 -0.5
t-10 0.5q-30 0 -62 7.5t-57 33.5zM412 1028q8 0 10 -7.5t4 -12.5l6 -32q5 -26 6.5 -54.5t-6.5 -48.5q-23 -2 -41 -2.5t-37 -0.5t-40.5 0.5t-51.5 0.5l-3 21l-2 16q-2 11 -4.5 26.5t-3.5 31t0 29.5t4 22q1 2 3.5 6t4.5 4z" />
    <glyph glyph-name="FL00E6h" unicode="&#xe6;" horiz-adv-x="1483" 
d="M1336 200h-503q-11 15 -23 33t-27 38q9 -2 10 -1q4 1 9 5.5t10.5 10t9.5 11t6 8.5h410q1 0 2.5 5.5t3.5 9.5q12 45 19.5 94t-1.5 97q-3 11 -11 15t-18 4h-5l-27 -20q-3 -2 -11 -6t-9 -4h-400q-1 0 -2 -7.5t-3 -12.5q-2 -13 -4.5 -34t-5.5 -45t-5 -48.5t-2 -43.5
q-26 38 -46.5 69t-27.5 42q-10 15 -29 46t-42.5 70.5t-50 83t-50 83t-42 71t-27.5 46.5q-5 8 -10.5 9.5t-12.5 1.5q-14 0 -33 -7.5t-38 -18t-34.5 -20.5t-23.5 -15q-8 -14 -11 -31.5t-5 -36.5t-3.5 -37.5t-5.5 -34.5q-47 -159 -104.5 -308t-137.5 -292q25 -26 57 -33.5
t62 -7.5q3 0 10 -0.5t14.5 0.5t14 3.5t7.5 7.5l159 546l328 -526l23 -20q1 0 11 -0.5t24 -0.5t28.5 -0.5t23.5 -0.5h67q18 0 36 0.5t35 1.5h447q6 0 12 13t11.5 33.5t10 44t8 45t5 36.5t1.5 18q-2 8 -7 14t-13 6h-6q-3 0 -11 -1.5t-18 -3t-18 -3t-11 -2.5zM643 605
q3 -13 12.5 -14t17.5 -1h24q21 0 65.5 0.5t100.5 2t117.5 2.5t117.5 2.5t100.5 2t65.5 0.5q10 19 17 43.5t10.5 51.5t3.5 54t-4 51h-42q-21 -1 -65.5 -1.5t-100.5 -1.5t-118 -2t-118 -2t-100.5 -2t-65.5 -1q-6 -3 -10 -13t-6.5 -20.5t-3.5 -18.5l-1 -8q-1 -8 -3.5 -25
t-5.5 -36.5t-5.5 -36t-3.5 -22.5z" />
    <glyph glyph-name="FL00E7h" unicode="&#xe7;" horiz-adv-x="890" 
d="M456 752l153 -88l87 8q17 34 23 56.5t4 38.5q-3 17 -15 31t-31 31h-341q-45 -4 -85.5 -11.5t-77.5 -20t-69.5 -32t-61.5 -48.5q-57 -57 -78.5 -143.5t0.5 -204.5q16 -87 65.5 -153t119 -111.5t150.5 -71.5t160 -33q-14 -18 -37 -35.5t-45.5 -32t-39 -24t-17.5 -9.5
l68 -63q30 0 51.5 -0.5t40.5 -0.5t37 0.5t41 2.5q3 9 9.5 27.5t14 41t15.5 47t13 46.5h216l-20 117q-151 -6 -253.5 -14t-160.5 4l-16 4q4 -2 12 -3l-16 6q-37 21 -61.5 53t-40.5 71.5t-26.5 84t-18.5 89.5q-6 37 -10.5 76.5t-4 77t8.5 71.5t26.5 59t49 40t76.5 15z" />
    <glyph glyph-name="FL00E8h" unicode="&#xe8;" horiz-adv-x="791" 
d="M644 200q3 1 11 2.5t18 3t18 3t11 1.5h6q8 0 13 -6t7 -14q0 -3 -1.5 -18t-5 -36.5t-8 -45t-10 -44t-11.5 -33.5t-12 -13h-650l-5 30q0 1 2 18.5t6 41.5t7.5 49t6.5 41q2 5 4 12.5t3 7.5h590zM69 284q-3 17 -2.5 44t3.5 56t7 55t7 41q2 5 3 12.5t2 7.5h400q1 0 9 4t11 6
l27 20h5q10 0 18 -4t11 -15q9 -48 1.5 -97t-19.5 -94q-2 -4 -3.5 -9.5t-2.5 -5.5h-410q-2 -3 -6 -8.5t-9.5 -11t-10.5 -10t-9 -5.5q-2 0 -14.5 3t-16.5 7zM-49 605l-1 5q1 6 3.5 22.5t5.5 36t5.5 36.5t3.5 25l1 8t3.5 18.5t6.5 20.5t10 13q21 0 65.5 0.5t100.5 1t118 2
t118.5 2.5t100.5 2t65 2h42q4 -24 4 -51t-3.5 -54t-10.5 -51.5t-17 -43.5q-21 0 -65.5 -0.5t-100.5 -2t-117.5 -2.5t-117.5 -2.5t-100.5 -2t-65.5 -0.5h-24q-8 0 -17.5 1t-12.5 14zM60 1050l151 -1q2 0 5 -4t6 -6q15 -11 41.5 -37.5t52.5 -53.5t45.5 -47.5t19.5 -21.5l3 -21
q-30 0 -51.5 -0.5t-40.5 -0.5t-37.5 0.5t-41.5 2.5q-9 13 -34 36t-52.5 48t-49.5 48.5t-25 37.5q-2 5 -1 12.5t9 7.5z" />
    <glyph glyph-name="FL00E9h" unicode="&#xe9;" horiz-adv-x="791" 
d="M-49 605q3 -13 12.5 -14t17.5 -1h24q21 0 65.5 0.5t100.5 2t117.5 2.5t117.5 2.5t100.5 2t65.5 0.5q10 19 17 43.5t10.5 51.5t3.5 54t-4 51h-42q-22 -1 -66.5 -1.5t-100.5 -1.5t-117.5 -2t-117.5 -2t-100.5 -2t-65.5 -1q-6 -3 -10 -13t-6.5 -20.5t-3.5 -18.5l-1 -8
q-1 -8 -3.5 -25t-5.5 -36.5t-5.5 -36t-3.5 -22.5zM70 280q4 -4 16.5 -7t14.5 -3q4 1 9 5.5t10.5 10t9.5 11t6 8.5h410q1 0 2.5 5.5t3.5 9.5q12 45 19.5 94t-1.5 97q-3 11 -11 15t-18 4h-5l-27 -20q-3 -2 -11 -6t-9 -4h-400q-1 0 -2 -7.5t-3 -12.5q-3 -15 -7 -41t-7 -55
t-3.5 -56t2.5 -44zM54 200q-1 0 -3 -7.5t-4 -12.5q-3 -16 -6.5 -41t-7.5 -49t-6 -41.5t-2 -18.5l5 -30h650q6 0 12 13t11.5 33.5t10 44t8 45t5 36.5t1.5 18q-2 8 -7 14t-13 6h-6q-3 0 -11 -1.5t-18 -3t-18 -3t-11 -2.5h-590zM384 1055l-151 -1q-2 0 -4 -4t-5 -6
q-11 -12 -28 -38t-33 -52.5t-27 -47.5t-11 -22l3 -21q30 0 51.5 -0.5t40.5 -0.5t37 0.5t41 2.5q4 13 21 36t35.5 48t32.5 48.5t11 37.5q-2 5 -4 12.5t-10 7.5z" />
    <glyph glyph-name="FL00EAh" unicode="&#xea;" horiz-adv-x="791" 
d="M-49 605q3 -13 12.5 -14t17.5 -1h24q21 0 65.5 0.5t100.5 2t117.5 2.5t117.5 2.5t100.5 2t65.5 0.5q10 19 17 43.5t10.5 51.5t3.5 54t-4 51h-42q-22 -1 -66.5 -1.5t-100.5 -1.5t-117.5 -2t-117.5 -2t-100.5 -2t-65.5 -1q-6 -3 -10 -13t-6.5 -20.5t-3.5 -18.5l-1 -8
q-1 -8 -3.5 -25t-5.5 -36.5t-5.5 -36t-3.5 -22.5zM70 280q4 -4 16.5 -7t14.5 -3q4 1 9 5.5t10.5 10t9.5 11t6 8.5h410q1 0 2.5 5.5t3.5 9.5q12 45 19.5 94t-1.5 97q-3 11 -11 15t-18 4h-5l-27 -20q-3 -2 -11 -6t-9 -4h-400q-1 0 -2 -7.5t-3 -12.5q-3 -15 -7 -41t-7 -55
t-3.5 -56t2.5 -44zM54 200q-1 0 -3 -7.5t-4 -12.5q-3 -16 -6.5 -41t-7.5 -49t-6 -41.5t-2 -18.5l5 -30h650q6 0 12 13t11.5 33.5t10 44t8 45t5 36.5t1.5 18q-2 8 -7 14t-13 6h-6q-3 0 -11 -1.5t-18 -3t-18 -3t-11 -2.5h-590zM156 1055q-8 0 -9.5 -6t0.5 -11
q-11 -13 -27.5 -38.5t-32 -52t-26.5 -46t-11 -20.5l4 -21q30 0 51.5 -0.5t40.5 -0.5q9 0 14.5 -0.5t10.5 -0.5h11h7q7 0 11 1q1 4 6.5 16t13 26t15.5 27.5t15 21.5q8 -8 20.5 -21t25.5 -26.5t23.5 -25t13.5 -15.5q4 -1 10 -1h8h12q5 0 10.5 0.5t14.5 0.5q19 0 40.5 0.5
t51.5 0.5l-3 21q0 1 -18.5 21t-44 46t-52 52t-42.5 38q0 9 -9 11l-4 2z" />
    <glyph glyph-name="FL00EBh" unicode="&#xeb;" horiz-adv-x="791" 
d="M644 200q3 1 11 2.5t18 3t18 3t11 1.5h6q8 0 13 -6t7 -14q0 -3 -1.5 -18t-5 -36.5t-8 -45t-10 -44t-11.5 -33.5t-12 -13h-650l-5 30q0 1 2 18.5t6 41.5t7.5 49t6.5 41q2 5 4 12.5t3 7.5h590zM69 284q-3 17 -2.5 44t3.5 56t7 55t7 41q2 5 3 12.5t2 7.5h400q1 0 9 4t11 6
l27 20h5q10 0 18 -4t11 -15q9 -48 1.5 -97t-19.5 -94q-2 -4 -3.5 -9.5t-2.5 -5.5h-410q-2 -3 -6 -8.5t-9.5 -11t-10.5 -10t-9 -5.5q-2 0 -14.5 3t-16.5 7zM-49 605l-1 5q1 6 3.5 22.5t5.5 36t5.5 36.5t3.5 25l1 8t3.5 18.5t6.5 20.5t10 13q21 0 65.5 0.5t100.5 1t118 2
t118.5 2.5t100.5 2t65 2h42q4 -24 4 -51t-3.5 -54t-10.5 -51.5t-17 -43.5q-21 0 -65.5 -0.5t-100.5 -2t-117.5 -2.5t-117.5 -2.5t-100.5 -2t-65.5 -0.5h-24q-8 0 -17.5 1t-12.5 14zM207 1020q8 0 10 -7.5t4 -12.5l6 -32q5 -26 6.5 -54.5t-6.5 -48.5q-23 -2 -41 -2.5
t-37 -0.5t-40.5 0.5t-51.5 0.5l-3 21l-4 16q-2 11 -4 26.5t-3 31t-0.5 29.5t3.5 22q1 2 4.5 6t5.5 4zM448 1021q8 0 10.5 -7.5t3.5 -12.5l6 -32q5 -26 7 -54.5t-6 -48.5q-23 -2 -41 -2.5t-37 -0.5t-40.5 0.5t-51.5 0.5l-4 21l-4 16q-2 11 -4 26.5t-2.5 31t0 29.5t3.5 22
q0 2 4 6t6 4z" />
    <glyph glyph-name="FL00ECh" unicode="&#xec;" horiz-adv-x="382" 
d="M-103 760q-2 2 -3.5 7.5t-2.5 7.5q-2 9 -0.5 18.5t18.5 6.5q13 1 44.5 3t67.5 3.5t68.5 2.5t46.5 1h14q10 0 21 0.5t21 0.5h14l138 -771q1 -4 -13.5 -8.5t-38 -9.5t-51.5 -9.5t-54 -8.5t-46.5 -6t-27.5 -2l-123 684q-8 37 -34.5 54.5t-58.5 25.5zM-144 1056l151 -1
q2 0 5.5 -4t4.5 -6q10 -7 26 -21.5t33.5 -32.5t35.5 -36.5t32 -34t23 -25.5l9 -10l4 -21q-30 0 -51.5 -0.5t-40.5 -0.5t-37.5 0.5t-42.5 2.5q-9 13 -34 36t-52 48t-49 48.5t-25 37.5q-2 5 -1 12.5t9 7.5z" />
    <glyph glyph-name="FL00EDh" unicode="&#xed;" horiz-adv-x="410" 
d="M-103 760q32 -8 58.5 -25.5t34.5 -54.5l123 -684q7 0 27.5 2t46.5 6t54 8.5t51.5 9.5t38 9.5t13.5 8.5l-138 771h-14q-10 0 -21 -0.5t-21 -0.5h-14q-14 0 -46.5 -1t-68.5 -2.5t-67.5 -3.5t-44.5 -3q-17 3 -18.5 -6.5t0.5 -18.5q1 -2 2.5 -7.5t3.5 -7.5zM180 1053l-150 -1
q-2 0 -5 -4t-5 -6q-11 -12 -28 -38t-33 -52.5t-27 -47.5t-11 -22l3 -21q30 0 52 -0.5t41 -0.5t37 0.5t41 2.5q3 13 20 36t35.5 48t32.5 48.5t11 37.5q-1 5 -3.5 12.5t-10.5 7.5z" />
    <glyph glyph-name="FL00EEh" unicode="&#xee;" horiz-adv-x="487" 
d="M-80 760q32 -8 58.5 -25.5t34.5 -54.5l123 -684q7 0 27.5 2t46.5 6t54 8.5t51.5 9.5t38 9.5t13.5 8.5l-138 771h-14q-10 0 -21 -0.5t-21 -0.5h-14q-14 0 -46.5 -1t-68.5 -2.5t-67.5 -3.5t-44.5 -3q-17 3 -18.5 -6.5t0.5 -18.5q1 -2 2.5 -7.5t3.5 -7.5zM-23 1059
q-8 0 -8.5 -6t-0.5 -11q-11 -13 -27.5 -38.5t-32 -52t-26.5 -46t-11 -20.5l4 -21q30 0 51.5 -0.5t40.5 -0.5q9 0 14.5 -0.5t10.5 -0.5h11h7q7 0 11 1q2 4 7.5 16t13 26t15.5 27.5t14 21.5q9 -8 22 -21t25.5 -26.5t22.5 -25t13 -15.5q4 -1 10 -1h8h12q5 0 10.5 0.5t14.5 0.5
q19 0 40.5 0.5t51.5 0.5l-3 21q0 1 -18.5 21t-44 46t-52 52t-42.5 38q0 9 -9 11l-4 2z" />
    <glyph glyph-name="FL00EFh" unicode="&#xef;" horiz-adv-x="490" 
d="M-72 760q-2 2 -3.5 7.5t-2.5 7.5q-2 9 -0.5 18.5t18.5 6.5q13 1 44.5 3t67.5 3.5t68.5 2.5t46.5 1h14q10 0 21 0.5t21 0.5h14l138 -771q1 -4 -13.5 -8.5t-38 -9.5t-51.5 -9.5t-54 -8.5t-46.5 -6t-27.5 -2l-123 684q-8 37 -34.5 54.5t-58.5 25.5zM24 1021q8 0 10.5 -7.5
t3.5 -12.5l6 -32q5 -26 7 -54.5t-6 -48.5q-23 -2 -41 -2.5t-37 -0.5t-40.5 0.5t-51.5 0.5l-4 21l-4 16q-2 11 -4 26.5t-2.5 31t0 29.5t3.5 22q0 2 4 6t6 4zM266 1022q8 0 10 -7.5t4 -12.5l6 -32q5 -26 7 -54.5t-6 -48.5q-23 -2 -41 -2.5t-37 -0.5t-41 0.5t-52 0.5l-3 21
l-4 16q-1 11 -3 26.5t-3 31t-0.5 29.5t3.5 22q0 2 3.5 6t5.5 4z" />
    <glyph glyph-name="FL00F0h" unicode="&#xf0;" horiz-adv-x="824" 
d="M306 689q5 -3 8 -4.5l5 -2.5l-65 -43q-1 0 1.5 -8.5t4.5 -13.5q2 -7 4.5 -13.5t4.5 -13.5l3 -22q2 -10 6 -21t15 -26l3 -3q6 -2 17.5 1.5t11.5 4.5q2 3 7 4t9.5 2t8 2.5t3.5 5.5l81 53q32 -42 47 -114q-120 0 -196 -5.5t-121.5 -14.5t-66 -19.5t-29.5 -19.5
q-14 -14 -26 -28.5t-21 -27.5t-14 -22.5t-5 -13.5q0 -2 2 -2q-16 -54 -11.5 -98.5t18.5 -89.5q7 -23 16 -44t32.5 -39.5t66 -34.5t117.5 -29q40 -1 62.5 -2t36.5 -1q13 0 21.5 0.5t20.5 2t32 4.5t56 7q121 29 169 98q49 70 70.5 157t0.5 204q-23 72 -60 126t-85 96l52 35
l-2 18q-8 25 -10 38.5t-4 24t-8 22t-22 32.5q-8 9 -17 8.5t-16 -5.5l-4 -3l-14 -20l-5.5 -11t-4.5 -7l-74 -51q-60 26 -119.5 37.5t-114.5 11.5h-251l37 -146q71 4 117 12t77.5 14.5t54 9t46.5 -4.5zM145 254q9 16 15.5 28t16 21t25 16t41.5 13h261q3 -44 -7 -85.5
t-33.5 -73.5t-61.5 -51t-91 -18l-116 7q-9 24 -20 35.5t-19 22.5t-12 29t1 56z" />
    <glyph glyph-name="FL00F1h" unicode="&#xf1;" horiz-adv-x="974" 
d="M160 548q19 -17 59 -51.5t90.5 -78t105.5 -91.5t105.5 -91t90.5 -77.5t59 -50.5q4 -5 20 -17.5t34.5 -26.5t36 -27t26.5 -19q2 -2 9.5 -5.5t10.5 -4.5q11 -4 32 -9t36 -8t17 -3l7 10l-11 64l-17 98l-21 115l-16 88q-11 64 -20 115t-12 75q-10 67 -13 124t11 116q1 2 0 7
t-1 6q-38 0 -75.5 -6.5t-72.5 -16.5q-5 -1 -6.5 -4.5t-1 -7.5t1.5 -8t1 -7q20 -109 45 -209t45 -209h-7l-574 475l-5 0.5t-7 0.5q-60 0 -122.5 -9.5t-120.5 -11.5q-8 -2 -8 -10t2 -15q0 -2 1 -7.5t1 -7.5q40 -14 64.5 -30t40 -38t24.5 -51.5t17 -69.5q25 -144 39.5 -278.5
t15.5 -277.5q5 -8 10 -9t11 -1h11q13 1 33 4.5t39 7t32.5 6l13.5 2.5l-97 530h10zM140 851l1 -4q1 -2 5.5 -3.5t9.5 -3t9.5 -2.5t5.5 -1q3 1 8.5 11.5t11 23.5t10 24.5t5.5 14.5h348q1 1 2.5 6.5t3.5 9.5q6 22 11.5 37t9 29t3.5 29q0 16 -4 40q-2 11 -10.5 15t-18.5 4h-5
l-24 -60q-3 -2 -10.5 -6t-8.5 -4h-338q-1 -1 -2.5 -8.5l-2.5 -12.5q-3 -15 -7.5 -32.5t-8.5 -35.5t-5.5 -36t1.5 -35z" />
    <glyph glyph-name="FL00F2h" unicode="&#xf2;" horiz-adv-x="1081" 
d="M78 10q-3 2 -7.5 10t-5.5 10q-4 7 -13 24.5t-18.5 36.5l-18 36t-12.5 23l-2 5l1 5q0 2 3 5.5t5 4.5h4q55 0 111 -10.5t113 -10.5h13q9 0 19.5 0.5t19.5 0.5h13q-52 25 -105.5 54t-99.5 65.5t-79 83.5t-43 107q-12 66 1.5 118t45 92t78 67.5t100 45.5t111.5 26t112 8
q50 0 104 -8t107 -25.5t102.5 -44t89.5 -63t68 -84.5t39 -107q11 -62 -3 -111.5t-45 -90.5t-74 -73.5t-89 -59.5q41 -10 74 -10.5t73 -0.5h40q29 0 55.5 1.5t57.5 9.5q0 -2 2 -7.5t2 -7.5q4 -27 -7 -51.5t-31.5 -43t-47 -29.5t-51.5 -11h-282q-1 3 -2 14.5t-1 15.5
q0 6 -0.5 22t-0.5 33v33q0 16 1 22q42 21 61 50.5t23.5 65.5t-1 77.5t-12.5 86.5l-5 22q-2 16 -6 33.5t-6 32.5l-5 28q-9 23 -26 57.5t-40 66t-51 54t-59 22.5h-130q-31 0 -54.5 -21.5t-38.5 -52.5t-20.5 -65.5t-0.5 -60.5l38 -216q6 -35 30.5 -65.5t52 -56t50 -45
t24.5 -31.5q1 -4 2 -12t0 -10q1 -10 1 -25t-0.5 -29.5t-1.5 -25t-2 -10.5l-28 -10q-2 0 -14.5 -0.5t-29.5 -0.5q-16 0 -32.5 -0.5t-25.5 -0.5q-20 0 -48 -0.5t-58 0.5t-60 3.5t-54 8.5zM189 1057l152 -1q2 0 5.5 -4t6.5 -6q15 -11 41 -37.5t52 -53.5t45 -47.5t19 -21.5
l3 -21q-30 0 -51 -0.5t-40 -0.5t-37.5 0.5t-42.5 2.5q-6 9 -19.5 22.5t-30.5 29t-36 32.5t-35 33t-27 30t-13 23q-1 5 -0.5 12.5t8.5 7.5z" />
    <glyph glyph-name="FL00F3h" unicode="&#xf3;" horiz-adv-x="1081" 
d="M78 10q24 -6 54 -8.5t60 -3.5t58 -0.5t48 0.5q9 0 25.5 0.5t32.5 0.5q17 0 29.5 0.5t14.5 0.5l28 10q1 0 2 10.5t1.5 25t0.5 29.5t-1 25q1 2 0 10t-2 12q-2 12 -24.5 31.5t-50 45t-52 56t-30.5 65.5l-38 216q-5 26 0.5 60.5t20.5 65.5t38.5 52.5t54.5 21.5h130
q31 0 59 -22.5t51 -54t40 -66t26 -57.5l5 -28q2 -15 6 -32.5t6 -33.5l5 -22q7 -45 12.5 -86.5t1 -77.5t-23.5 -65.5t-61 -50.5q-1 -6 -1 -22v-33q0 -17 0.5 -33t0.5 -22q0 -4 1 -15.5t2 -14.5h282q25 0 51.5 11t47 29.5t31.5 43t7 51.5q0 2 -2 7.5t-2 7.5q-31 -8 -57.5 -9.5
t-55.5 -1.5h-40q-40 0 -73 0.5t-74 10.5q46 27 89 59.5t74 73.5t45 90.5t3 111.5q-11 59 -39 107t-68 84.5t-89.5 63t-102.5 44t-107 25.5t-104 8q-55 0 -112.5 -8t-111 -26t-100 -45.5t-78 -67.5t-45 -92t-1.5 -118q10 -60 43 -107t79 -83.5t99.5 -65.5t105.5 -54h-13
q-9 0 -19.5 -0.5t-19.5 -0.5h-13q-57 0 -113 10.5t-111 10.5h-4q-2 -1 -5 -4.5t-3 -5.5l-1 -5l2 -5q4 -6 12.5 -23l18 -36t18.5 -36.5t13 -24.5q1 -2 5.5 -10t7.5 -10zM487 1057l-150 -1q-2 0 -4 -4t-4 -6q-12 -11 -29 -37.5t-33 -53.5t-27.5 -47.5t-11.5 -21.5l3 -21
q30 0 52 -0.5t41 -0.5t37 0.5t41 2.5q3 13 20 36t35.5 48t32.5 48.5t11 37.5q-1 5 -3.5 12.5t-10.5 7.5z" />
    <glyph glyph-name="FL00F4h" unicode="&#xf4;" horiz-adv-x="1081" 
d="M78 10q24 -6 54 -8.5t60 -3.5t58 -0.5t48 0.5q9 0 25.5 0.5t32.5 0.5q17 0 29.5 0.5t14.5 0.5l28 10q1 0 2 10.5t1.5 25t0.5 29.5t-1 25q1 2 0 10t-2 12q-2 12 -24.5 31.5t-50 45t-52 56t-30.5 65.5l-38 216q-5 26 0.5 60.5t20.5 65.5t38.5 52.5t54.5 21.5h130
q31 0 59 -22.5t51 -54t40 -66t26 -57.5l5 -28q2 -15 6 -32.5t6 -33.5l5 -22q7 -45 12.5 -86.5t1 -77.5t-23.5 -65.5t-61 -50.5q-1 -6 -1 -22v-33q0 -17 0.5 -33t0.5 -22q0 -4 1 -15.5t2 -14.5h282q25 0 51.5 11t47 29.5t31.5 43t7 51.5q0 2 -2 7.5t-2 7.5q-31 -8 -57.5 -9.5
t-55.5 -1.5h-40q-40 0 -73 0.5t-74 10.5q46 27 89 59.5t74 73.5t45 90.5t3 111.5q-11 59 -39 107t-68 84.5t-89.5 63t-102.5 44t-107 25.5t-104 8q-55 0 -112.5 -8t-111 -26t-100 -45.5t-78 -67.5t-45 -92t-1.5 -118q10 -60 43 -107t79 -83.5t99.5 -65.5t105.5 -54h-13
q-9 0 -19.5 -0.5t-19.5 -0.5h-13q-57 0 -113 10.5t-111 10.5h-4q-2 -1 -5 -4.5t-3 -5.5l-1 -5l2 -5q4 -6 12.5 -23l18 -36t18.5 -36.5t13 -24.5q1 -2 5.5 -10t7.5 -10zM268 1056q-8 0 -8.5 -6t-0.5 -11q-12 -13 -28.5 -38.5t-31.5 -52t-26 -46t-11 -20.5l3 -21q30 0 52 -0.5
t41 -0.5q9 0 14.5 -0.5t10.5 -0.5h11h7q7 0 11 1q1 4 6.5 16t13 26t15.5 27.5t15 21.5l21 -21t26 -26.5t23 -25t13 -15.5q4 -1 10 -1h8h12q5 0 10.5 0.5t14.5 0.5q19 0 40.5 0.5t51.5 0.5l-4 21q0 1 -18 21t-43.5 46t-52 52t-42.5 38q0 9 -10 11q-2 2 -3 2z" />
    <glyph glyph-name="FL00F5h" unicode="&#xf5;" horiz-adv-x="1081" 
d="M78 10q24 -6 54 -8.5t60 -3.5t58 -0.5t48 0.5q9 0 25.5 0.5t32.5 0.5q17 0 29.5 0.5t14.5 0.5l28 10q1 0 2 10.5t1.5 25t0.5 29.5t-1 25q1 2 0 10t-2 12q-2 12 -24.5 31.5t-50 45t-52 56t-30.5 65.5l-38 216q-5 26 0.5 60.5t20.5 65.5t38.5 52.5t54.5 21.5h130
q31 0 59 -22.5t51 -54t40 -66t26 -57.5l5 -28q2 -15 6 -32.5t6 -33.5l5 -22q7 -45 12.5 -86.5t1 -77.5t-23.5 -65.5t-61 -50.5q-1 -6 -1 -22v-33q0 -17 0.5 -33t0.5 -22q0 -4 1 -15.5t2 -14.5h282q25 0 51.5 11t47 29.5t31.5 43t7 51.5q0 2 -2 7.5t-2 7.5q-31 -8 -57.5 -9.5
t-55.5 -1.5h-40q-40 0 -73 0.5t-74 10.5q46 27 89 59.5t74 73.5t45 90.5t3 111.5q-11 59 -39 107t-68 84.5t-89.5 63t-102.5 44t-107 25.5t-104 8q-55 0 -112.5 -8t-111 -26t-100 -45.5t-78 -67.5t-45 -92t-1.5 -118q10 -60 43 -107t79 -83.5t99.5 -65.5t105.5 -54h-13
q-9 0 -19.5 -0.5t-19.5 -0.5h-13q-57 0 -113 10.5t-111 10.5h-4q-2 -1 -5 -4.5t-3 -5.5l-1 -5l2 -5q4 -6 12.5 -23l18 -36t18.5 -36.5t13 -24.5q1 -2 5.5 -10t7.5 -10zM128 823l1 -4q1 -2 5.5 -3.5t9.5 -3t9.5 -2.5t5.5 -1q3 1 8.5 11.5t11 23.5t10 24.5t5.5 14.5h348
q1 1 2.5 6.5t3.5 9.5q6 22 11.5 37t9 29t3.5 29q0 16 -4 40q-2 11 -10.5 15t-18.5 4h-5l-24 -60q-3 -2 -10.5 -6t-8.5 -4h-338q-1 -1 -2.5 -8.5l-2.5 -12.5q-3 -15 -7.5 -32.5t-8.5 -35.5t-5.5 -36t1.5 -35z" />
    <glyph glyph-name="FL00F6h" unicode="&#xf6;" horiz-adv-x="1081" 
d="M78 10q-3 2 -7.5 10t-5.5 10q-4 7 -13 24.5t-18.5 36.5l-18 36t-12.5 23l-2 5l1 5q0 2 3 5.5t5 4.5h4q55 0 111 -10.5t113 -10.5h13q9 0 19.5 0.5t19.5 0.5h13q-52 25 -105.5 54t-99.5 65.5t-79 83.5t-43 107q-12 66 1.5 118t45 92t78 67.5t100 45.5t111.5 26t112 8
q50 0 104 -8t107 -25.5t102.5 -44t89.5 -63t68 -84.5t39 -107q11 -62 -3 -111.5t-45 -90.5t-74 -73.5t-89 -59.5q41 -10 74 -10.5t73 -0.5h40q29 0 55.5 1.5t57.5 9.5q0 -2 2 -7.5t2 -7.5q4 -27 -7 -51.5t-31.5 -43t-47 -29.5t-51.5 -11h-282q-1 3 -2 14.5t-1 15.5
q0 6 -0.5 22t-0.5 33v33q0 16 1 22q42 21 61 50.5t23.5 65.5t-1 77.5t-12.5 86.5l-5 22q-2 16 -6 33.5t-6 32.5l-5 28q-9 23 -26 57.5t-40 66t-51 54t-59 22.5h-130q-31 0 -54.5 -21.5t-38.5 -52.5t-20.5 -65.5t-0.5 -60.5l38 -216q6 -35 30.5 -65.5t52 -56t50 -45
t24.5 -31.5q1 -4 2 -12t0 -10q1 -10 1 -25t-0.5 -29.5t-1.5 -25t-2 -10.5l-28 -10q-2 0 -14.5 -0.5t-29.5 -0.5q-16 0 -32.5 -0.5t-25.5 -0.5q-20 0 -48 -0.5t-58 0.5t-60 3.5t-54 8.5zM335 1016q8 0 11 -7.5l5 -12.5l6 -32q3 -26 5.5 -54.5t-5.5 -48.5q-23 -2 -41 -2.5
t-37 -0.5t-40.5 0.5t-51.5 0.5l-3 21l-4 16q-2 11 -4.5 26.5t-3.5 31t0 29.5t4 22q1 2 3.5 6t4.5 4zM578 1017q8 0 10.5 -7.5t3.5 -12.5l6 -32q4 -26 6.5 -54.5t-5.5 -48.5q-23 -2 -41 -2.5t-37 -0.5t-40.5 0.5t-51.5 0.5l-4 21l-4 16q-2 11 -4 26.5t-3 31t-0.5 29.5t4.5 22
q0 2 3 6t5 4z" />
    <glyph glyph-name="FL00F7h" unicode="&#xf7;" horiz-adv-x="639" 
d="M-18 265l-1 4q-3 17 -1 41.5t5.5 50t7.5 49t7 38.5q2 5 3 12.5t2 7.5l438 2q1 0 8.5 4t10.5 6l25 20h5q10 0 19 -4t12 -15q9 -48 0.5 -88.5t-20.5 -85.5q-1 -4 -4 -9.5t-4 -5.5l-447 -2q-1 -3 -5.5 -8.5t-9.5 -11t-10.5 -10t-8.5 -5.5q-1 0 -5.5 1t-9.5 2.5l-10 3t-7 3.5
zM377 204q8 0 11 -7.5t3 -12.5l6 -32q5 -26 8 -54.5t-5 -48.5q-23 -2 -41 -2.5t-37 -0.5t-41 0.5t-52 0.5l-5 21l-2 16q-2 11 -4 26.5t-3 31t-0.5 29.5t4.5 22q0 2 2.5 6t4.5 4zM287 710q8 0 10 -7.5t4 -12.5l6 -32q5 -26 7 -54.5t-6 -48.5q-23 -2 -41.5 -2.5t-37.5 -0.5
t-40.5 0.5t-51.5 0.5l-3 21l-2 16q-2 11 -4 26.5t-3.5 31t-1 29.5t3.5 22q2 2 4.5 6t4.5 4z" />
    <glyph glyph-name="FL00F8h" unicode="&#xf8;" 
d="M-41 398q-21 117 5.5 198t88.5 131.5t153 73t198 22.5q89 0 173 -22t152.5 -67t116.5 -115t65 -166q21 -117 -0.5 -203t-79 -141.5t-146.5 -82.5t-203 -27q-98 0 -184.5 23t-155.5 71.5t-116.5 124t-66.5 180.5zM222 432q10 -54 28 -115.5t50 -114.5t81.5 -88t121.5 -35
q70 0 106.5 33.5t49.5 85t9 113t-14 117.5q-11 57 -30.5 113.5t-52 101t-80 72.5t-113.5 28q-47 0 -80.5 -13t-54.5 -37.5t-31 -60t-11 -80.5l4 -24q5 -17 8 -36t5 -36zM406 594q2 8 9.5 5.5l13.5 -4.5q13 -6 26.5 -18t26 -26t25 -29t23.5 -27q-5 -21 -13.5 -52.5
t-18.5 -65.5t-19.5 -67.5t-17.5 -59.5l-22 9q-1 0 -12 11l-26 26t-30 31t-24 26q-3 2 -5.5 7t-0.5 7z" />
    <glyph glyph-name="FL00F9h" unicode="&#xf9;" horiz-adv-x="1064" 
d="M219 139q-47 30 -77.5 84.5t-52 119.5t-38 134.5t-36.5 128.5t-48 100.5t-72 52.5l-1 5l-2 5q1 2 2.5 10t4.5 10q43 6 73 8.5t62 2.5h48h13q9 0 19.5 -0.5t19.5 -0.5h13q25 -17 45 -54.5t36.5 -87.5t31 -108.5t29.5 -117t31 -112.5t36 -96t44.5 -67.5t55.5 -26.5l57 -2
q42 0 67 36.5t37.5 93t16 126.5t2.5 136.5t-3.5 123t-1.5 86.5q13 25 42.5 39t64.5 21t71 8.5t62 1.5q21 0 23 -21q1 -9 -5.5 -14.5t-15.5 -10.5t-18.5 -10.5t-13.5 -13.5q-1 -3 -3 -8.5t-4 -11.5t-3.5 -11.5t-1.5 -8.5q-1 -4 -0.5 -39t0.5 -85t0.5 -107.5t0.5 -107.5
t-0.5 -84.5t-1.5 -37.5q-19 -29 -37 -60t-39.5 -58.5t-48.5 -49.5t-64 -33q-10 -10 -20 -15t-25 -8t-37 -4.5t-56 -3.5q-43 7 -79 18t-69 28t-65.5 41t-68.5 56zM191 1004l151 -1q2 0 6 -4l6 -6q10 -8 26 -23t33.5 -32.5t34.5 -35.5t31 -33t23 -25t9 -11l4 -21
q-30 0 -51.5 -0.5t-40.5 -0.5t-37.5 0.5t-42.5 2.5q-8 13 -33 36t-52.5 48t-49.5 48.5t-25 37.5v12q0 8 8 8z" />
    <glyph glyph-name="FL00FAh" unicode="&#xfa;" horiz-adv-x="1064" 
d="M219 139q36 -32 68.5 -56t65.5 -41t69 -28t79 -18q34 2 56 3.5t37 4.5t25 8t20 15q37 11 64 33t48.5 49.5t39.5 58.5t37 60q1 4 1.5 38t0.5 84t-0.5 107.5t-0.5 107.5v85v39q0 3 1.5 8.5t3.5 11.5t4 11.5t3 8.5q4 8 13.5 13.5t18.5 10.5t15.5 10.5t5.5 14.5q-2 21 -23 21
q-26 0 -62 -1.5t-71 -8.5t-64.5 -21t-42.5 -39q-1 -30 1.5 -86.5t3.5 -123t-2.5 -136.5t-16 -126.5t-37.5 -93t-67 -36.5l-57 2q-31 1 -55.5 26.5t-44.5 67.5t-36 96t-31 112.5t-29.5 117t-31 108.5t-36.5 87.5t-45 54.5h-13q-9 0 -19.5 0.5t-19.5 0.5h-13h-48
q-32 0 -62 -2.5t-73 -8.5q-3 -2 -4.5 -10t-2.5 -10l2 -5l1 -5q43 -10 71 -51.5t48.5 -100.5t37.5 -128.5t38.5 -135t51.5 -120t77 -84.5zM515 1032l-151 -1q-2 0 -4 -4t-4 -6q-11 -12 -28 -38t-33.5 -52.5t-28 -47.5t-11.5 -22l4 -21q30 0 51.5 -0.5t40.5 -0.5t37 0.5
t41 2.5q4 13 21 36t35.5 48t32.5 48.5t11 37.5q0 5 -3 12.5t-11 7.5z" />
    <glyph glyph-name="FL00FBh" unicode="&#xfb;" horiz-adv-x="1064" 
d="M219 139q36 -32 68.5 -56t65.5 -41t69 -28t79 -18q34 2 56 3.5t37 4.5t25 8t20 15q37 11 64 33t48.5 49.5t39.5 58.5t37 60q1 4 1.5 38t0.5 84t-0.5 107.5t-0.5 107.5v85v39q0 3 1.5 8.5t3.5 11.5t4 11.5t3 8.5q4 8 13.5 13.5t18.5 10.5t15.5 10.5t5.5 14.5q-2 21 -23 21
q-26 0 -62 -1.5t-71 -8.5t-64.5 -21t-42.5 -39q-1 -30 1.5 -86.5t3.5 -123t-2.5 -136.5t-16 -126.5t-37.5 -93t-67 -36.5l-57 2q-31 1 -55.5 26.5t-44.5 67.5t-36 96t-31 112.5t-29.5 117t-31 108.5t-36.5 87.5t-45 54.5h-13q-9 0 -19.5 0.5t-19.5 0.5h-13h-48
q-32 0 -62 -2.5t-73 -8.5q-3 -2 -4.5 -10t-2.5 -10l2 -5l1 -5q43 -10 71 -51.5t48.5 -100.5t37.5 -128.5t38.5 -135t51.5 -120t77 -84.5zM272 1051q-8 0 -9.5 -6t0.5 -11q-11 -13 -27.5 -38.5t-32 -52t-26.5 -46t-11 -20.5l4 -21q30 0 51.5 -0.5t40.5 -0.5q9 0 14.5 -0.5
t10.5 -0.5h11h7q7 0 11 1q1 4 6.5 16t13 26t15.5 27.5t15 21.5q8 -8 20.5 -21t25.5 -26.5t23.5 -25t13.5 -15.5q4 -1 10 -1h8h12q5 0 10.5 0.5t14.5 0.5q19 0 40.5 0.5t51.5 0.5l-3 21q0 1 -18.5 21t-44 46t-52 52t-42.5 38q-3 10 -9 11l-4 2z" />
    <glyph glyph-name="FL00FCh" unicode="&#xfc;" horiz-adv-x="1064" 
d="M219 139q-47 30 -77.5 84.5t-52 119.5t-38 134.5t-36.5 128.5t-48 100.5t-72 52.5l-1 5l-2 5q1 2 2.5 10t4.5 10q43 6 73 8.5t62 2.5h48h13q9 0 19.5 -0.5t19.5 -0.5h13q25 -17 45 -54.5t36.5 -87.5t31 -108.5t29.5 -117t31 -112.5t36 -96t44.5 -67.5t55.5 -26.5l57 -2
q42 0 67 36.5t37.5 93t16 126.5t2.5 136.5t-3.5 123t-1.5 86.5q13 25 42.5 39t64.5 21t71 8.5t62 1.5q21 0 23 -21q1 -9 -5.5 -14.5t-15.5 -10.5t-18.5 -10.5t-13.5 -13.5q-1 -3 -3 -8.5t-4 -11.5t-3.5 -11.5t-1.5 -8.5q-1 -4 -0.5 -39t0.5 -85t0.5 -107.5t0.5 -107.5
t-0.5 -84.5t-1.5 -37.5q-19 -29 -37 -60t-39.5 -58.5t-48.5 -49.5t-64 -33q-10 -10 -20 -15t-25 -8t-37 -4.5t-56 -3.5q-43 7 -79 18t-69 28t-65.5 41t-68.5 56zM321 1016q8 0 11 -7.5l5 -12.5l6 -32q3 -26 5.5 -54.5t-5.5 -48.5q-23 -2 -41 -2.5t-37 -0.5t-40.5 0.5
t-51.5 0.5l-3 21l-4 16q-2 11 -4.5 26.5t-3.5 31t0 29.5t4 22q1 2 3.5 6t4.5 4zM564 1017q8 0 10.5 -7.5t3.5 -12.5l6 -32q4 -26 6.5 -54.5t-5.5 -48.5q-23 -2 -41 -2.5t-37 -0.5t-40.5 0.5t-51.5 0.5l-4 21l-4 16q-2 11 -4 26.5t-3 31t-0.5 29.5t4.5 22q0 2 3 6t5 4z" />
    <glyph glyph-name="FL00FDh" unicode="&#xfd;" horiz-adv-x="1251" 
d="M531 -4q28 0 54.5 4.5t53 10.5t52.5 11.5t54 7.5l7 10l-44 250q51 8 97.5 21t84 36.5t63.5 60t36 92.5q1 4 4 18.5t5.5 34t5.5 41.5t5.5 42t4.5 34.5t2 19.5q0 3 1.5 8.5t3.5 11.5t4 11.5t3 8.5q4 8 13.5 13.5t18.5 10.5t15.5 10.5t5.5 14.5q-3 21 -23 21q-26 0 -62 -1.5
t-71 -8.5t-64.5 -21t-42.5 -39q-1 -30 1 -68t2 -78q0 -39 -4.5 -76.5t-18.5 -67t-39 -47.5t-66 -18l-79 436q-5 0 -20 -0.5t-20 -0.5q-8 0 -25.5 -0.5t-39 -1.5t-44.5 -2.5t-42 -2.5q-26 -2 -36 -3t-8 -9l1 -14q18 -103 39.5 -201t40.5 -201q-3 0 -9.5 -1t-13.5 -2t-13.5 -2
t-9.5 0q-43 9 -70 38.5t-46 71t-32.5 89.5t-29.5 93.5t-37 85t-55 62.5h-13q-9 0 -19.5 0.5t-19.5 0.5h-13h-48q-32 0 -61.5 -2.5t-72.5 -8.5q-2 -2 -4.5 -10t-2.5 -10l1 -5l1 -5q43 -10 68.5 -36t43 -61.5t30.5 -77.5t31.5 -84.5t46.5 -81.5t74 -69q32 -21 69 -33.5
t75.5 -19.5t76.5 -10.5t71 -6.5zM585 1055l-151 -1q-2 0 -4 -4t-5 -6q-11 -12 -28 -38t-33 -52.5t-27 -47.5t-11 -22l3 -21q30 0 51.5 -0.5t40.5 -0.5t37 0.5t41 2.5q4 13 21 36t35.5 48t32.5 48.5t11 37.5q-2 5 -4 12.5t-10 7.5z" />
    <glyph glyph-name="FL00FEh" unicode="&#xfe;" horiz-adv-x="756" 
d="M-2 967l-131 -15q15 -120 34 -230.5t37.5 -210t36 -187t31.5 -162.5q3 -23 10.5 -57.5t16.5 -73t18.5 -78t18 -72t14.5 -55t8 -26.5l18 -40l3 -0.5t5 -0.5q16 0 32.5 3.5t30.5 10.5t24.5 18.5t13.5 28.5q3 9 6 29t5.5 45.5t4.5 54t3 54t0.5 46.5t-1.5 31l-98 533
q37 0 78 -4.5t77 -19.5t62.5 -43.5t34.5 -76.5q8 -45 -1.5 -76t-31 -52.5t-53.5 -36.5t-69 -28q0 -1 -0.5 -4.5t0.5 -5.5q3 -14 12.5 -23t26.5 -17h10q7 0 15 -0.5t15 -0.5h10q63 0 124.5 14t107.5 45t70 80.5t12 121.5l-3 11q-1 9 -3 19t-3 18l-3 12q-19 39 -52 64.5
t-73 41t-82 23t-78 11.5h-37q-26 0 -55.5 0.5t-56.5 0.5h-77l-48 281h-14q-10 0 -21 -0.5t-21 -0.5h-14z" />
    <glyph glyph-name="FL00FFh" unicode="&#xff;" horiz-adv-x="1251" 
d="M478 290q-33 3 -71 6.5t-76.5 10.5t-75.5 19.5t-69 33.5q-47 30 -74.5 69t-46 81.5t-32 84.5t-30.5 77.5t-42.5 61.5t-68.5 36l-1 5l-1 5q0 2 2.5 10t4.5 10q43 6 72.5 8.5t61.5 2.5h48h13q9 0 19.5 -0.5t19.5 -0.5h13q33 -23 54.5 -62.5t37.5 -85t29.5 -93.5t32.5 -89.5
t46 -71t70 -38.5q3 -1 9.5 0t13.5 2t13.5 2t9.5 1q-19 103 -40.5 201t-39.5 201l-1 14q-4 6 2 8t19.5 3t34 1.5t44.5 2.5q30 2 57 3t38 1q5 0 20 0.5t20 0.5l79 -436q41 0 66 18t39 47.5t18.5 67t4.5 76.5q0 40 -2 78t-1 68q13 25 42.5 39t64.5 21t71 8.5t62 1.5
q20 0 23 -21q1 -9 -5.5 -14.5t-15.5 -10.5t-18.5 -10.5t-13.5 -13.5q-1 -3 -3 -8.5t-4 -11.5t-3.5 -11.5t-1.5 -8.5q0 -5 -2 -19.5t-4.5 -34.5t-5.5 -42t-5.5 -41.5t-5 -34t-4.5 -18.5q-10 -56 -36 -92.5t-63.5 -60t-84 -36.5t-97.5 -21l44 -250l-7 -10q-28 -2 -54 -7.5
t-52.5 -11.5t-53 -10.5t-54.5 -4.5zM430 1016q8 0 11 -7.5l5 -12.5l6 -32q3 -26 5.5 -54.5t-5.5 -48.5q-23 -2 -41 -2.5t-37 -0.5t-40.5 0.5t-51.5 0.5l-3 21l-4 16q-2 11 -4.5 26.5t-3.5 31t0 29.5t4 22q1 2 3.5 6t4.5 4zM673 1017q8 0 10.5 -7.5t3.5 -12.5l6 -32
q4 -26 6.5 -54.5t-5.5 -48.5q-23 -2 -41 -2.5t-37 -0.5t-40.5 0.5t-51.5 0.5l-4 21l-4 16q-2 11 -4 26.5t-3 31t-0.5 29.5t4.5 22q0 2 3 6t5 4z" />
    <glyph glyph-name="FL0152h" unicode="&#x152;" horiz-adv-x="1429" 
d="M608 829h-272q-45 -4 -85.5 -11.5t-77.5 -20t-69.5 -32t-61.5 -48.5q-57 -57 -78.5 -143.5t0.5 -204.5q17 -96 65 -166t116.5 -115t152.5 -66.5t173 -21.5h697q31 0 69.5 10.5t70.5 31t51 50.5t12 69q-54 0 -105 -6t-105 -6q-30 0 -62 -0.5t-64 1t-64.5 6t-62.5 14.5
q25 34 53.5 64.5t58 60.5t58.5 60.5t55 64.5q1 1 1 4q0 4 -1 6q-1 5 -19.5 21t-47.5 38t-64.5 48.5t-70 52t-63.5 48.5t-45 39q3 1 12.5 3t20.5 3.5t21.5 2.5t13.5 1q14 1 50.5 4.5t77.5 7t78 6t51 2.5q14 16 34.5 40.5t28.5 49.5l0.5 6t1 11t0.5 6q-1 1 -2 3l-1 2
q-1 2 -5.5 5.5t-6.5 4.5q-6 -1 -19.5 -3t-29 -3.5t-29.5 -2.5t-20 -1h-186q-78 0 -129.5 -0.5t-83.5 -0.5h-40q-22 0 -33.5 1t-19.5 4zM456 752l84 -88l16 -7l359 -277l-214 -230q-3 -2 -8 -10t-7 -10q-4 -2 -5 -6.5t-3 -9.5q-63 -3 -106 -6.5t-74.5 -6t-55.5 -1.5t-50 7
l-16 4q4 -2 12 -3l-16 6q-28 15 -47 36.5t-32.5 47.5t-22 55.5t-14.5 61.5l-16 89q-7 37 -12.5 77t-6.5 78.5t5 73.5t23 61t46.5 41.5t75.5 15.5z" />
    <glyph glyph-name="FL0153h" unicode="&#x153;" horiz-adv-x="1325" 
d="M1064 0q31 0 69.5 10.5t70.5 31t51 50.5t12 69q-54 0 -105 -6t-105 -6q-30 0 -62 -0.5t-64 1t-64.5 6t-62.5 14.5q25 34 53.5 64.5t58 60.5t58.5 60.5t55 64.5q1 1 1 4q0 4 -1 6q-1 5 -19.5 21t-47.5 38t-64.5 48.5t-70 52t-63.5 48.5t-45 39q3 1 12.5 3t20.5 3.5
t21.5 2.5t13.5 1q14 1 50.5 4.5t77.5 7t78 6t51 2.5q14 16 34.5 40.5t28.5 49.5v5l-3 14q0 2 -4.5 5.5t-6.5 4.5q-75 -1 -132 -2t-100 -1.5t-73 -0.5h-50h-31q-16 0 -21.5 1.5t-7.5 3.5h-341q-45 -4 -86 -11.5t-77.5 -20t-69 -32t-61.5 -48.5q-57 -57 -79 -143.5t0 -204.5
q18 -96 66 -166t116.5 -115t152 -66.5t172.5 -21.5h355v2h238zM456 750l28 -16l299 -312l-186 -272q-2 -3 -7.5 -10.5t-7.5 -9.5q-3 -4 -6 -11.5t-6 -17.5q-62 -3 -104 -3q-23 0 -41 1.5t-32 5.5l-21 7q3 -2 7 -3t10 -3l-17 6q-37 21 -61 53t-40.5 71.5t-26.5 84t-18 89.5
q-7 37 -11.5 76.5t-4 77t8.5 71.5t26.5 59t49 40t76.5 15z" />
    <glyph glyph-name="FL0160h" unicode="&#x160;" horiz-adv-x="874" 
d="M841 20l-566 659q-3 2 -8.5 10t-6.5 10l2 6q42 0 96 5.5t109.5 3.5t108.5 -17.5t95 -57.5h34q-2 15 -14.5 43.5t-27 56.5t-27.5 49t-16 21h-700l6 -30l533 -639q-11 -5 -25.5 -8.5t-30 -6t-29 -4t-22.5 -1.5q-16 0 -53.5 -0.5t-82.5 -1.5t-90 -1.5t-77 -0.5h-40
q5 -27 32 -48.5t62 -36.5t71 -23t60 -8h600zM357 864q8 0 9 6t-1 11q12 13 28.5 38.5t32 52t26 46t10.5 20.5l-3 21q-30 0 -51.5 0.5t-40.5 0.5q-9 0 -15 0.5t-11 0.5h-11h-8q-6 0 -9 -1q-1 -5 -6.5 -16.5t-13 -25.5t-16 -27.5t-15.5 -21.5q-8 8 -20.5 21t-25.5 26.5
t-23.5 25t-13.5 15.5q-4 1 -11 1h-8h-11q-5 0 -10.5 -0.5t-14.5 -0.5q-19 0 -40 -0.5t-51 -0.5l3 -21q0 -1 18.5 -21t43.5 -46t51 -52t43 -38q2 -9 10 -11q2 -2 3 -2z" />
    <glyph glyph-name="FL0161h" unicode="&#x161;" horiz-adv-x="798" 
d="M347 358q27 -5 53.5 -10.5t48.5 -18t38 -36t23 -63.5q9 -54 -4 -75t-49 -24.5t-96 2t-144 5.5q-11 0 -66 12t-155 46l29 -167q0 -1 11.5 -5t17.5 -5q30 -6 71 -10t84 -6t85 -3t74 -1q38 0 82.5 3t87 12.5t80.5 27t64.5 46t38 69.5t1.5 98q-9 51 -32.5 83.5t-56 52.5
t-72 30.5t-80.5 18.5q-37 18 -97.5 29t-128.5 29q-19 6 -35 12.5t-29 17.5t-22.5 28t-13.5 44q-12 66 18 103.5t93 37.5q6 0 35.5 -2.5t68.5 -10t80 -21.5t71 -38v1q10 -2 19 7.5t18 24.5t17.5 33.5t17.5 34.5l-14 30q0 1 -13 2.5t-31 3t-36.5 3t-30.5 1.5h-25
q-22 0 -51.5 0.5t-58.5 0.5h-86q-26 0 -55 -0.5t-55 -0.5h-37q-32 -5 -66.5 -14t-61.5 -27t-41.5 -47.5t-6.5 -74.5q6 -37 21.5 -69t37.5 -59t48.5 -47.5t55.5 -34.5zM312 860q8 0 8 6v11q12 13 28.5 38.5t32 52t26 46t10.5 20.5l-3 21q-30 0 -51.5 0.5t-40.5 0.5
q-9 0 -15 0.5t-11 0.5h-11h-8q-6 0 -9 -1q-2 -5 -7.5 -16.5t-13.5 -25.5t-16 -27.5t-14 -21.5q-9 8 -22 21t-25.5 26.5t-22.5 25t-13 15.5q-4 1 -11 1h-8h-11q-5 0 -10.5 -0.5t-14.5 -0.5q-19 0 -40 -0.5t-51 -0.5l3 -21q0 -1 18.5 -21t43.5 -46t51 -52t43 -38q2 -9 10 -11
q2 -2 3 -2z" />
    <glyph glyph-name="FL0178h" unicode="&#x178;" horiz-adv-x="981" 
d="M-80 670q-2 1 -5.5 4.5l-5.5 5.5l-1 2t-1 3q-5 28 16 52.5t52 43t65.5 29.5t58.5 11q75 0 125.5 -24t85.5 -64.5t58.5 -94.5t44.5 -114l21 -50h20q1 0 3.5 20t5 47t5.5 55t7 44q10 36 25 68.5t37.5 57.5t53.5 40t73 15q14 0 31 -0.5t33.5 -4t30.5 -12t22 -24.5
q2 -5 9 -20t14.5 -32.5t15 -34t10.5 -23.5l1 -5q2 -9 -3 -12.5t-12 -3.5q-21 0 -42 6t-42 6q-40 0 -70.5 -17t-51.5 -45t-34 -64t-19.5 -75t-6 -78t5.5 -72q2 -16 9 -55.5t15 -84.5l7 -47q5 -24 9.5 -46t7.5 -39l4 -25q-20 -5 -44.5 -10.5t-51 -10t-53.5 -7.5t-52 -3
q-1 0 -6.5 -0.5t-11.5 0.5t-11 3t-5 8l-57 317q-1 2 -5.5 17t-9.5 33t-10.5 34t-7.5 20q-29 62 -62.5 112t-76.5 84t-97.5 50t-126.5 10zM290 1017q8 0 10.5 -7.5t3.5 -12.5l6 -32q4 -26 6.5 -54.5t-5.5 -48.5q-23 -2 -41 -2.5t-37 -0.5t-40.5 0.5t-51.5 0.5l-4 21l-4 16
q-2 11 -4 26.5t-3 31t-0.5 29.5t4.5 22q0 2 3 6t5 4zM532 1018q8 0 10 -7.5t4 -12.5l6 -32q5 -26 7 -54.5t-6 -48.5q-23 -2 -41 -2.5t-37 -0.5t-41 0.5t-52 0.5l-3 21l-4 16q-2 11 -4 26.5t-3 31t-0.5 29.5t4.5 22q0 2 3.5 6t5.5 4z" />
    <glyph glyph-name="FL017Dh" unicode="&#x17d;" horiz-adv-x="874" 
d="M27 20l13 -20h600q24 0 57.5 8t63 23t48.5 36.5t14 48.5h-40q-32 0 -77.5 0.5t-90.5 1.5t-83 1.5t-54 0.5q-8 0 -23 1.5t-31.5 4t-32.5 6t-26 8.5l306 636l-6 30h-700q-3 0 -8 -21t-9.5 -49t-6.5 -56.5t0 -43.5h34q27 42 75 57.5t103.5 17.5t111.5 -3.5t98 -5.5
q-2 -1 -0.5 -2.5t1.5 -3.5t-1.5 -10t-3.5 -10zM375 861q8 0 8.5 6t0.5 11q12 13 28.5 38.5t31.5 52t26 46t11 20.5l-3 21q-30 0 -52 0.5t-41 0.5q-9 0 -14.5 0.5t-10.5 0.5h-11h-8q-6 0 -10 -1q-2 -5 -7.5 -16.5t-13 -25.5t-15.5 -27.5t-14 -21.5q-9 8 -22 21t-25.5 26.5
t-22.5 25t-13 15.5q-4 1 -11 1h-8h-11q-5 0 -10.5 -0.5t-14.5 -0.5q-19 0 -40.5 -0.5t-51.5 -0.5l4 -21q0 -1 18 -21t43.5 -46t51.5 -52t43 -38q0 -9 10 -11q2 -2 3 -2z" />
    <glyph glyph-name="FL017Eh" unicode="&#x17e;" horiz-adv-x="874" 
d="M27 20l13 -20h600q24 0 57.5 8t63 23t48.5 36.5t14 48.5h-40q-32 0 -77.5 0.5t-90.5 1.5t-83 1.5t-54 0.5q-8 0 -23 1.5t-31.5 4t-32.5 6t-26 8.5l306 636l-6 30h-700q-3 0 -8 -21t-9.5 -49t-6.5 -56.5t0 -43.5h34q27 42 75 57.5t103.5 17.5t111.5 -3.5t98 -5.5
q-2 -1 -0.5 -2.5t1.5 -3.5t-1.5 -10t-3.5 -10zM375 861q8 0 8.5 6t0.5 11q12 13 28.5 38.5t31.5 52t26 46t11 20.5l-3 21q-30 0 -52 0.5t-41 0.5q-9 0 -14.5 0.5t-10.5 0.5h-11h-8q-6 0 -10 -1q-2 -5 -7.5 -16.5t-13 -25.5t-15.5 -27.5t-14 -21.5q-9 8 -22 21t-25.5 26.5
t-22.5 25t-13 15.5q-4 1 -11 1h-8h-11q-5 0 -10.5 -0.5t-14.5 -0.5q-19 0 -40.5 -0.5t-51.5 -0.5l4 -21q0 -1 18 -21t43.5 -46t51.5 -52t43 -38q0 -9 10 -11q2 -2 3 -2z" />
    <glyph glyph-name="FL0192h" unicode="&#x192;" horiz-adv-x="1065" 
d="M498 56q2 -3 5.5 -8t7 -10.5t7 -10.5t5.5 -7q3 -4 5 -10.5t8 -9.5l16 52l-2 8q-7 11 -15 26.5t-10 29.5q-1 4 -0.5 6t5.5 2q4 0 8 -6.5t8 -15.5t9 -17t11 -11q1 0 3 2l12 22l3 3v1l-1 1l-29 33l-1 3q-1 7 8 7h2l39 -27l2 -1q3 0 6 3t6 5q2 1 11 3.5t12 4.5l-1 2l-9 4
t-13 6l-16 5l-19 10l76 64l4 4q-8 6 -13 6h-1q0 -1 -4 -4t-5 -4l-119 -91q-1 0 -3 -0.5l-2 -0.5h-3q-3 0 -8 4l-171 96h-2h-1l-8 -6l5 -4q26 -18 50.5 -32t54.5 -29l4 -3q-4 -5 -15 -9t-14 -6q-4 -2 -11 -6l-7 -4l1 -2q3 -2 11 -4.5t11 -3.5q4 -2 8.5 -5t7.5 -3v1q3 2 9.5 7
t11.5 10q3 4 5.5 7t5.5 3h1h2l3.5 -2t4.5 -3v-2q1 -5 -2 -9.5t-6.5 -8.5t-6 -8.5t-1.5 -9.5l2 -2q2 -3 10.5 -12t11.5 -11q0 -1 1 -2.5l1 -1.5l1 -1q1 0 1.5 0.5l0.5 0.5q1 2 3 10.5t3.5 17.5t3.5 16.5t3 7.5h1q0 -2 6 -2v-35t-5 -33zM444 124q-3 0 -1 -3q0 -2 2 -2q3 0 3 2
q-2 3 -4 3zM344 237l163 -91h3q5 0 9 3q6 5 18 14t24 17t21 14.5t10 7.5q5 4 13 10.5t16 12.5t13.5 11t5.5 6l-3 20q-2 8 5.5 9t15.5 1h7q8 2 12.5 12.5t6 23.5t1 26t-1.5 20l-1 3v8l-1 3q-15 5 -23 5q-1 3 2.5 3.5t6.5 0.5h7q4 0 4 3q-6 8 -12.5 16t-8.5 18q1 4 1 9t1 11
q1 -3 4 -8.5l6 -11t7 -10t7 -4.5h3q0 1 2.5 3t3.5 2h2q7 0 9.5 -7t5 -15t5.5 -14.5t11 -5.5l2 -5v-11l1 -3q6 -30 -3 -51t-27 -41l1 -1q5 0 9.5 3.5t9.5 7.5q20 17 22 42t-3 53q-2 13 -6.5 13.5t-8.5 7.5q-4 10 -8 21t-13 17q-4 2 -10 2q-4 0 -8 2q-6 6 -12 20.5t-11.5 31
t-9.5 32t-6 23.5q-4 20 -3.5 40t-2.5 40l-2 13l-3 13q-52 27 -107.5 40.5t-110 14t-105.5 -12t-95 -37.5q-3 -2 -6.5 -4t-2.5 -6q5 -26 12 -51t11 -50q3 -20 5 -38t4 -37l-2 -4l-2 -28q0 -2 -2 -2h-2h-9h-1q-11 -5 -11.5 -19.5t-1.5 -23.5q-10 3 -9 -7l1 -4q2 -5 -1 -9l1 -4
q8 -35 25.5 -60.5t55.5 -40.5l-1 2q-5 7 -19.5 17t-22.5 21q-11 14 -17.5 27t-9.5 30l-1 7q0 4 2 7.5t8 3.5q-1 3 -1 8t0.5 10.5t0.5 9.5v7q1 7 1.5 5.5t5.5 -1.5q4 0 5 -2t4 -2t6 4t5 9.5t2.5 10.5t0.5 7h1q5 0 6 -7.5t0 -8.5q2 -11 -1.5 -18.5t-2.5 -16.5l1 -2q2 0 8 -1
t9 -2l2 -2q-4 0 -12 -1.5t-6 -8.5q2 -9 5 -22t8 -26t12.5 -24.5t17.5 -18.5q20 2 29.5 -4t11.5 -26zM240 183q2 -8 0.5 -13.5t-4.5 -10t-5.5 -7t-2.5 -4.5q16 0 20.5 12.5t1.5 25.5v6q-6 14 -13 31.5t-11 28.5q-2 2 -3.5 5.5t-1.5 4.5q-16 23 -25.5 43.5t-14.5 46.5l-2 17
q-7 28 3 49l-1 -4q4 -16 3 -31t1 -32q3 -19 11.5 -39.5t21.5 -38t30.5 -28.5t39.5 -11h2q2 0 3 0.5t3 0.5h2q-4 0 -4 2q-1 0 -5.5 1t-9 2.5t-8 2.5t-2.5 2q-36 14 -53.5 44t-24.5 62q-2 17 -2.5 34.5t5.5 32.5q6 2 12.5 4.5t12 6t8.5 8.5t2 12l-2 7q-2 -13 -15 -21t-24 -8
t-23 5t-14 17q-2 7 0 13.5t10 6.5q4 0 10.5 -4t7.5 -9l1 -2q0 -1 -0.5 -4.5l-0.5 -3.5q0 -2 3 -2q3 1 4 8.5t1.5 17t0 18t-1.5 11.5l1 3l-4 14l-1 6q-2 11 -4.5 21t-4.5 21v3q9 -11 11.5 -26l4.5 -27q6 -38 0 -70q1 0 3 -0.5t3 -0.5q13 0 20 8.5t10 20.5t2.5 25.5t-2.5 22.5
t-5.5 21t-9.5 23t-14.5 20.5t-18.5 13.5h-2q-5 0 -10.5 -6t-3.5 -12q-7 2 -6 9q-2 8 11 14q-5 5 -15 5.5t-12 1.5q0 5 6 5h11q7 0 13.5 -4t13.5 -4h2q-17 26 -42 44.5t-54 18.5q-10 0 -20.5 -5t-7.5 -16l1 -4q-4 -2 0 -2q7 10 16 10q17 0 19 -19q2 -9 -4.5 -14.5t-14.5 -5.5
q-14 0 -27 10.5t-15 24.5q-4 22 9.5 32.5t32.5 14.5l-1 4q-31 32 -55.5 72t-32.5 82q-4 14 -2.5 27t-0.5 26l-1 3q-8 -18 -8.5 -38t3.5 -40q2 -13 5.5 -24.5t5.5 -24.5l2 -7q-13 22 -20.5 45.5t-11.5 46.5q-2 14 -3.5 23t-0.5 26h-1q-3 0 -5 -6t-3 -13.5t-1.5 -15
t-0.5 -10.5l1 -4q1 -5 1 -9q0 -3 2 -8v-8q5 -19 12 -36.5t10 -37.5l1 -3q-12 8 -21 23.5t-15.5 33t-11 34t-5.5 26.5q-6 0 -6.5 -8t1.5 -16l2 -8q4 -26 16.5 -51.5t28.5 -48.5l1 -3q-21 16 -34.5 38t-25.5 43l-3 3v-10q2 -15 8.5 -28t15 -25t17.5 -23.5t16 -24.5h-2
q-1 0 -8.5 6.5t-11.5 10.5q-5 4 -11 11.5t-12 14.5t-11 12.5t-9 5.5q5 -26 17 -46t32 -40v-1h-1l-2 1q-1 1 -6.5 3.5t-5.5 4.5q-2 1 -10 5.5t-10 5.5h-4q1 -11 10 -18.5t12 -17.5q-2 0 -6 0.5t-6 0.5q-1 0 -1 -1v0q0 -3 5.5 -8.5t12 -11t13 -10t9.5 -6.5l-2 -4h-25
q4 -8 12.5 -12.5t16.5 -6.5l1 -3q-2 -1 -8.5 -4.5t-5.5 -6.5v-1l4 -2l25 -15l2 -3q-3 -2 -7 -3.5t-6 -3.5l6 -6l34 -15l-21 -4l1 -4l6 -2t10 -3l23 -5q-5 -2 -12.5 -6t-12.5 -9l1 -1q2 -6 10 -7t10 -2t9.5 -1.5t9.5 -0.5q-2 -2 -10.5 -6t-12.5 -9l1 -2v-1l2.5 -2.5t2.5 -1.5
h45q-7 -7 -14.5 -14t-5.5 -19q10 0 21 4.5t19 7.5h1h2l-23 -28q-3 -3 -3 -7l-0.5 -0.5t-0.5 -1.5l1 -1h1q0 -1 3 -2t4 -1q3 1 11 3.5t10 4.5h1h2q-4 -4 -8.5 -11.5t-5.5 -12.5l1 -2q0 -1 3 -1h2q6 1 12 5t11 4h2q-5 -8 -9 -16t-2 -19q8 0 16 4t14 8q0 -2 -2.5 -7.5
t-3.5 -10.5q0 -3 -0.5 -4t-0.5 -4q-2 -2 0 -3v-1q0 -3 6 -3q5 0 10 5t10 8q-2 -7 -1 -13.5t1 -14.5h6q2 6 6 11t9 10l3 -10q3 -25 4.5 -46t8.5 -50q1 -13 -10 -13q-4 0 -6 0.5t-6 5.5q-1 1 0 1.5l1 0.5h9l-2 8h-5q-5 0 -9 -1t-2 -7q4 -16 21 -16q7 0 11 4.5t9 4.5
q11 0 14 -11.5t5 -18.5q2 -11 0 -21t-16 -10q-7 0 -13 2.5t-8 10.5t2.5 13t10.5 5q7 0 6 -6q0 -2 -0.5 -5t0.5 -6q4 0 6.5 3.5t1.5 7.5q-1 8 -6.5 10.5t-11.5 2.5q-11 0 -14.5 -7.5t-1.5 -18.5t11.5 -15t19.5 -4q14 0 19 10.5t3 22.5q-2 13 -8 25.5t-12.5 24.5t-13.5 24.5
t-11 25.5h4q4 -17 13 -33t19 -32.5t18 -33t11 -33.5zM748 185q3 -12 10 -24t22 -12h3q-10 8 -16.5 14.5t-9.5 18.5q-3 18 -0.5 35.5t6.5 35t7 34.5t2 35l2 -9q2 -13 1 -25t-3.5 -24t-3.5 -24t1 -25q2 -14 10.5 -23.5t22.5 -9.5q10 0 18 4t6 15q-2 10 -8.5 18t-17.5 8
q-5 0 -10 -2.5t-4 -10.5q1 -5 3 -7t7 -4l-1 14q1 0 4 1.5t5 1.5q3 -2 7.5 -6.5t5.5 -6.5q1 -1 1.5 -2.5t1.5 -2.5q2 -7 -4.5 -10t-12.5 -3q-14 0 -20 11t-7 22q-2 5 -1.5 16.5t8.5 11.5q7 0 12 -4.5t13 -4.5q6 0 12 5t1 14q-3 5 -9 5h-3h-5q-3 0 -3 -3q-1 -1 -1 -3l1 -2h10
l1 -1.5t1 -3.5q1 -3 -3 -3h-5q-5 0 -7 1.5t-7 6.5l-3 13l-3 18l-3 20l-3 12q0 1 -1.5 6t-3.5 11t-4 11.5t-2 6.5l1 7l-2 6l22 -21h7q0 8 -3 14t-5 12v2q6 -5 13.5 -9t15.5 -4q-2 8 -7 14t-6 14q8 0 13 -3t13 -3q-1 9 -7 17.5t-11 14.5v2q2 -2 10 -5.5t13 -3.5t4 4
q0 5 -8.5 13t-11.5 10h1q8 0 16 -3.5t16 -3.5l-2 7l-39 33h2q11 0 21.5 -5.5t20.5 -5.5q7 0 6 4l-1.5 1.5t-1.5 2.5q-4 2 -14.5 12t-12.5 12h42q1 0 2.5 1.5l2.5 2.5v1q-1 3 -5.5 5t-6.5 4q-2 1 -9 3.5t-10 4.5l34 5q4 0 2 5q-1 8 -10.5 9.5t-14.5 7.5l18 5q1 1 7 2.5t5 4.5
l-1 2l-24 4q9 5 18.5 8.5t17.5 8.5l-1 4q-1 3 -6.5 4t-8.5 3q5 5 14.5 9.5t7.5 12.5q-2 5 -7 7t-9 3q1 3 5 4.5t8 4t6.5 5.5t1.5 8h-29q7 11 16.5 18.5t16.5 21.5q-3 2 -10 2.5t-9 1.5q6 7 9.5 14t2.5 18h-3l-28 -19q-2 -3 -5 -3q9 17 18 36.5t5 41.5l-2 6q0 4 -5 4h-1
q-7 -17 -14.5 -34.5t-23.5 -28.5l-1 1q-1 1 -0.5 1.5l0.5 0.5l8 10q6 20 12.5 42t3.5 46l-3 10l-3 3q0 -1 -0.5 -3t-0.5 -3l-3 -22q-5 -18 -10 -32.5t-18 -25.5v2q6 26 10 50.5t0 53.5l-1 4l-4 13l-7 13h-2q2 -11 3 -28t0.5 -35t-4 -33.5t-10.5 -22.5l-1 3q-4 20 -2 40.5
t-2 41.5q-5 16 -11 34.5t-20 32.5l14 -82q3 -16 2.5 -33t-7.5 -31v2l-1 2q0 17 -0.5 29.5t-2.5 29.5l-1 1q-2 6 -4.5 17t-2.5 12q-1 2 -4 8.5t-6 14t-6.5 13.5t-5.5 7l-1 -4l6 -22t5 -22q9 -47 -2.5 -84t-29.5 -75v-2q20 -5 37.5 -13.5t22.5 -31.5q2 -14 -5.5 -25t-22.5 -11
q-24 0 -30 23q0 6 4.5 10.5t11.5 4.5t10 -5.5t9 -5.5q-2 15 -14.5 21.5t-26.5 6.5q-27 0 -41.5 -17t-25.5 -38q-2 -5 -1 -8v-2q10 10 25 10h9q7 0 9 -5q-2 0 -11 -1.5t-12 -3.5l1 -2q2 -2 8 -5t7 -6q1 -1 -3 -7q-2 -9 -3.5 -16.5t-1.5 -14.5t1.5 -15t3.5 -20l2 -8
q1 -5 1.5 -9.5t1.5 -9.5l1 -3q1 -3 3.5 -11t5.5 -15.5t7 -13.5t7 -6l-3 19q-1 3 2.5 3.5t6.5 0.5h2q15 0 20 -17q2 -12 -7.5 -17t-20.5 -5q-14 0 -27.5 8t-24.5 19l1 -5q2 -10 7.5 -14.5t12.5 -6.5t14.5 -4t12.5 -6q12 -14 17.5 -32.5t7.5 -34.5q8 -35 -2.5 -65t-40.5 -44
q-5 -2 -13 -2.5t-8 -4.5q1 0 5 -0.5t6 -0.5q22 0 35.5 11.5t20 28.5t7 38t-3.5 39q-2 16 -7.5 30.5t-9.5 28.5v3t1 3q8 -14 13 -31.5t7 -33.5q4 -22 2 -42.5t-5.5 -40.5t-5.5 -40.5t1 -42.5zM236 344q7 -32 25.5 -62t50.5 -47q5 2 9 7q-4 5 -11 7t-12 8q-22 25 -33.5 48.5
t-19.5 55.5q-2 -2 -6 -5.5t-4 -4.5v-3q0 -2 1 -4zM655 242q6 -6 11 -6t7 2t6 7q15 20 24 43t3 52q-2 5 -4 11.5t-7 6.5q1 -18 0 -31t-4 -24.5t-7.5 -22.5t-10.5 -25q-2 -6 -8 -7t-10 -6zM685 247q-1 0 -1 -2q-3 -3 1 -3q1 0 4 3q0 2 -4 2zM174 322q2 0 2 -1t-1 -1.5t-2 1.5
v1h1zM800 395q3 0 3 -2t-2 -2h-1l-1 2q0 1 0.5 1.5zM732 420q3 0 3 -2t-2 -2q-1 0 -1 2v2zM653 522q2 -12 6.5 -26t12 -25.5t18 -19.5t25.5 -8l1 3l-5 8q-3 4 -7 16t-6 14q-7 15 -7 25l-2 10q-4 20 -2 33.5t7 32.5l1 4h-2l-12 6h-1h-1q-13 -24 -15 -45.5t0 -50.5l1 3l-3 11
l-1 4q-8 45 14 81h-2q0 -2 -3 -3.5t-4 -2.5q-14 -14 -15.5 -32t2.5 -38zM222 459q-2 0 -2 -3q2 -2 3 -2q2 0 0 2q0 2 -0.5 2.5zM201 469l2.5 -1.5t3.5 -1.5v-2q1 -2 -2 -3t-6 -1h-3q-1 3 0 6t5 3zM695 469q2 0 3.5 -3.5l1.5 -3.5h-10q-2 7 5 7zM810 473q1 0 -1 -1q1 -3 0 -3
q-3 0 -4 3q2 1 5 1zM201 489h2q6 0 6 -5q1 -3 -6 -3zM219 484q2 -1 2 -2t-2 -1q-1 0 -1 1q0 2 1 2zM685 489q3 0 4.5 -3l2.5 -5h-9q-1 2 -1 5t3 3zM668 497l2 -6l1 -4q-3 -3 -4 4q-2 6 1 6zM201 562l-1 2q4 -5 7 -11t5 -12l4 -24l1 -5l2 -15l2 -6q-2 6 -5.5 22t-4.5 22
q-2 6 -6 13t-4 14zM199 509q3 0 6 -0.5t4 -3.5v-1q0 -2 -2 -2l-1.5 -0.5t-2.5 -0.5q-3 0 -3 3t-1 5zM675 509h2q6 0 8 -2q0 -1 -1 -3l-1 -2l-2 -1h-1q-3 0 -3.5 3t-1.5 5zM195 527q0 4 3.5 4.5t5.5 0.5q-1 -2 -1 -5t-4 -3q-3 0 -3 3h-1zM669 527q0 4 3.5 4.5t4.5 0.5
q-1 -2 -1 -5t-2 -3h-2q-2 0 -2 3h-1zM667 553l4 4q3 1 4.5 -1t1.5 -3q1 -3 0.5 -5.5t-3.5 -0.5q-1 0 -3.5 2t-3.5 4zM189 554h7l1 -5h-7zM182 585q0 1 2 3q4 -4 7.5 -8.5t5.5 -9.5l1 -3q-3 2 -8 8.5t-7 9.5h-1zM168 572l2 -1q0 -1 -1.5 -1.5t-1.5 1.5v0q0 1 1 1zM175 573v1
h1q0 1 1.5 3t1.5 3q3 -2 3 -4l2 -5v-2q-2 0 -5 0.5t-4 3.5zM674 574q-2 6 3 6q3 0 5 -6q2 -5 -4 -5q-2 0 -4 5zM88 589q-2 8 1.5 14.5t11.5 6.5h2q-2 -2 -5.5 -6.5t-4.5 -5.5l2 -7q0 -8 6 -12.5t14 -6.5q-1 0 -2.5 -0.5t-3.5 -0.5q-19 0 -21 18zM761 589q-2 7 -7.5 12.5
t-12.5 8.5h1q8 0 15 -6.5t9 -14.5q2 -18 -16 -18h-3q-3 0 -5 1q5 2 12.5 5.5t6.5 11.5zM164 578v-1l2 -2q0 -1 -1 -1t-1 1q-2 3 0 3zM180 592l1 -0.5t2 -2.5q0 -1 -1 -1h-1q-2 0 -2 1q0 3 1 3zM178 595q1 0 1 -3q1 -3 0 -3q-2 0 -3 3q0 3 2 3zM174 598q1 0 3 -3q0 -3 -2 -3
t-2 3q-2 3 1 3zM181 641q4 -18 19 -31l-6 30l6 3.5t15 8l18 9l15 7.5q26 12 55.5 18.5t58.5 11.5q6 1 11.5 1.5t10.5 0.5h24q57 0 115.5 -15.5t113.5 -41.5q0 -1 1 -2l1 -1l5 -27q8 1 9 11t-1 16q0 7 -1 10q-8 8 -22 13.5t-22 9.5q-53 20 -100.5 31t-98.5 11
q-49 0 -92.5 -8.5t-85.5 -27.5q-5 -3 -12 -7t-14 -7.5t-12 -6.5l-5 -3l-4 -5q-1 0 -2 -3.5t0 -5.5zM107 615q2 0 2 -2q1 -3 -1 -3t-3 3q0 2 2 2zM734 615q3 0 3 -2q1 -3 -2 -3q-2 0 -3 3q0 2 2 2zM114 632q-2 11 6 11q9 0 12 -9q1 -3 0.5 -8t-5.5 -3q-8 1 -9.5 2.5t-3.5 6.5
zM164 625h1l2 -2q0 -2 -1 -2.5l-1 -0.5q-2 0 -2 3q-2 2 1 2zM731 665h4q-20 -4 -33 -15t-23 -27h-3q8 14 21.5 28t33.5 14zM151 634q1 0 1 1l4 -4t5 -3l1 -3q-2 0 -5 3l-5 5zM703 634q-1 4 2 6.5t6 2.5q10 0 12 -11q3 -7 -8 -7q-3 0 -6.5 2t-5.5 7zM148 640q2 0 2 -2v-3
q-4 0 -4 3q0 2 2 2zM-47 643q2 0 2 -3q2 -2 -1 -2q-1 0 -3 2q0 3 2 3zM103 663h3q10 0 22 -7.5t17 -15.5q-1 0 0 -1h-1l-2 1q-1 1 -6 5.5t-6 4.5q-4 2 -14 6.5t-13 6.5zM98 665q0 -1 -4 -1q-3 0 -3 1q-1 1 3 1t4 -1zM-41 721q2 0 4 -3q0 -3 -2 -3q-3 0 -3 3q-2 3 1 3z
M-35 746q2 0 4 -3q0 -2 -3 -2q-2 0 -2 2q-2 3 1 3zM-24 766l2 -3q0 -2 -1 -2q-3 0 -3 2q-2 3 2 3zM0 769q2 0 2 -3q1 -3 0 -3q-3 0 -4 3q0 3 2 3zM-4 773l1 -2v-2q-2 0 -2 2t1 2zM777 925q-1 0 -1 -3q0 -2 3 -2v2q0 3 -2 3z" />
    <glyph glyph-name="FL02C6h" unicode="&#x2c6;" horiz-adv-x="487" 
d="M21 810q-8 0 -8 -6t1 -11q-11 -13 -28 -38.5t-33 -52t-27 -46t-11 -20.5l4 -21q30 0 51.5 -0.5t40.5 -0.5q9 0 14.5 -0.5t10.5 -0.5h11h7q7 0 11 1l8 16t13.5 26t15.5 27.5t15 21.5q8 -8 20.5 -21t25.5 -26.5t23.5 -25t13.5 -15.5q4 -1 10 -1h8h12q5 0 10.5 0.5t14.5 0.5
q19 0 40.5 0.5t51.5 0.5l-5 21q0 1 -18 21t-43 46t-51 52t-42 38q-5 10 -12 11q-2 2 -4 2z" />
    <glyph glyph-name="FL02DCh" unicode="&#x2dc;" horiz-adv-x="539" 
d="M-87 653l1 -4q1 -2 6 -3.5l10 -3t9.5 -2.5t5.5 -1q3 1 8 11.5t10.5 23.5t10 24.5t5.5 14.5h348q1 1 2.5 6.5t3.5 9.5q7 22 13 37t9 29t3 29q0 16 -4 40q-2 11 -10.5 15t-18.5 4h-5l-24 -60q-3 -2 -11 -6t-9 -4h-338q0 -1 -1.5 -8.5l-2.5 -12.5q-3 -15 -7.5 -32.5
t-9 -35.5t-6 -36t1.5 -35z" />
    <glyph glyph-name="FL2013h" unicode="&#x2013;" horiz-adv-x="539" 
d="M-19 269q-3 17 -1 41.5t5.5 50t7.5 49t7 38.5q2 5 3 12.5t2 7.5l338 1q1 0 8.5 4t11.5 6l25 20h5q10 0 19 -4t11 -15q9 -48 1 -88.5t-20 -85.5q-2 -4 -5 -9.5t-4 -5.5l-347 -1q-1 -3 -5.5 -8.5t-9.5 -11t-10.5 -10t-8.5 -5.5q-1 0 -5.5 1t-9.5 2.5l-10 3t-7 3.5z" />
    <glyph glyph-name="FL2014h" unicode="&#x2014;" horiz-adv-x="639" 
d="M-19 269l1 -4q2 -2 7 -3.5l10 -3t9.5 -2.5t5.5 -1q3 1 8.5 5.5t10.5 10t9.5 11t5.5 8.5l447 2q1 0 4 5.5t4 9.5q12 45 20.5 85.5t-0.5 88.5q-3 11 -12 15t-19 4h-5l-25 -20q-3 -2 -10.5 -6t-8.5 -4l-438 -2q-1 0 -2 -7.5t-3 -12.5q-3 -15 -7 -38.5t-7.5 -49t-5.5 -50
t1 -41.5z" />
    <glyph glyph-name="FL2018h" unicode="&#x2018;" horiz-adv-x="237" 
d="M50 810q8 0 11 -7.5l5 -12.5l4 -32q3 -13 7 -41t7 -58.5t4.5 -56.5t-1.5 -36q-23 -2 -35.5 -6.5t-31.5 -4.5t-35.5 2t-46.5 2l-6 21l-2 16q-1 9 -5.5 28.5t-10 43.5t-11.5 49t-9 45q-4 14 -4 23q0 10 2 14q0 2 2.5 6t4.5 4z" />
    <glyph glyph-name="FL2019h" unicode="&#x2019;" horiz-adv-x="237" 
d="M50 810q8 0 11 -7.5l5 -12.5l4 -32q3 -13 7 -41t7 -58.5t4.5 -56.5t-1.5 -36q-23 -2 -35.5 -6.5t-31.5 -4.5t-35.5 2t-46.5 2l-6 21l-2 16q-1 9 -5.5 28.5t-10 43.5t-11.5 49t-9 45q-4 14 -4 23q0 10 2 14q0 2 2.5 6t4.5 4z" />
    <glyph glyph-name="FL201Bh" unicode="&#x201a;" horiz-adv-x="251" 
d="M196 160l-151 -1q-2 0 -5.5 -4t-3.5 -6q-3 -8 -8.5 -29t-12.5 -49l-14.5 -58t-13.5 -55.5t-10.5 -42.5l-4.5 -17l6 -21q30 0 51.5 -0.5t40.5 -0.5t37 0.5t41 2.5q3 8 9 28.5t13.5 46.5t15.5 55t13.5 55t9 46.5t1.5 29.5q-2 5 -4 12.5t-10 7.5z" />
    <glyph glyph-name="FL201Ch" unicode="&#x201c;" horiz-adv-x="460" 
d="M50 810q8 0 11 -7.5l5 -12.5l4 -32q3 -13 7 -41t7 -58.5t4.5 -56.5t-1.5 -36q-23 -2 -35.5 -6.5t-31.5 -4.5t-35.5 2t-46.5 2l-6 21l-2 16q-1 9 -5.5 28.5t-10 43.5t-11.5 49t-9 45q-4 14 -4 23q0 10 2 14q0 2 2.5 6t4.5 4zM273 809q8 0 11.5 -7.5t4.5 -12.5l4 -32
q3 -13 7 -41t7.5 -58.5t4.5 -56.5t-2 -36q-23 -2 -35.5 -6.5t-31.5 -4.5t-36.5 2t-47.5 2l-3 21l-2 16q-2 9 -6.5 28.5t-10 43.5t-11.5 49t-9 45q-6 28 -2 37q0 2 3 6t5 4z" />
    <glyph glyph-name="FL201Dh" unicode="&#x201d;" horiz-adv-x="460" 
d="M50 810q8 0 11 -7.5l5 -12.5l4 -32q3 -13 7 -41t7 -58.5t4.5 -56.5t-1.5 -36q-23 -2 -35.5 -6.5t-31.5 -4.5t-35.5 2t-46.5 2l-6 21l-2 16q-1 9 -5.5 28.5t-10 43.5t-11.5 49t-9 45q-4 14 -4 23q0 10 2 14q0 2 2.5 6t4.5 4zM273 809q8 0 11.5 -7.5t4.5 -12.5l4 -32
q3 -13 7 -41t7.5 -58.5t4.5 -56.5t-2 -36q-23 -2 -35.5 -6.5t-31.5 -4.5t-36.5 2t-47.5 2l-3 21l-2 16q-2 9 -6.5 28.5t-10 43.5t-11.5 49t-9 45q-6 28 -2 37q0 2 3 6t5 4z" />
    <glyph glyph-name="FL201Ah" unicode="&#x201e;" horiz-adv-x="502" 
d="M447 160q8 0 10 -7.5t4 -12.5q2 -9 -1.5 -29.5t-9 -46.5t-13.5 -55t-15.5 -55t-13.5 -46.5t-9 -28.5q-23 -2 -41 -2.5t-37 -0.5t-40.5 0.5t-51.5 0.5l-6 21l4.5 17t10.5 42.5t13.5 55.5l14.5 58t12.5 49t8.5 29q0 2 3.5 6t5.5 4zM210 159q8 0 10.5 -7.5t3.5 -12.5
q2 -9 -1.5 -29.5t-9 -46.5t-13.5 -55t-15.5 -55t-13.5 -46.5t-9 -28.5q-23 -2 -41 -2.5t-37 -0.5t-40.5 0.5t-51.5 0.5l-5 21l3.5 17t10 42.5t14 55.5l14.5 58t13 49.5t8 28.5q0 2 4 6t6 4z" />
    <glyph glyph-name="FL2020h" unicode="&#x2020;" horiz-adv-x="1203" 
d="M389 198l1 -1q1 0 3.5 -2t2.5 -3q1 -2 7.5 -9t14 -14.5t13.5 -14.5t8 -9q5 -5 18 -17t27 -26t27 -26.5t19 -18.5q15 -14 34 -30.5t39 -26.5h1h1q42 43 73.5 89.5t61.5 100.5l3 5h1q10 0 23 -6.5t26 -6.5q-4 19 -10.5 28t-20.5 25l-1 4q0 4 4 6q13 -9 33 -21t36 -12
q-2 12 -5.5 24.5t-7.5 23.5q-5 4 -10 7.5t-10 7.5h4q14 0 27 -3t27 -3q-2 12 -8.5 20.5t-15.5 15t-20 11t-21 9.5q-1 0 -2 1t-2 1h2h1l30 -10q18 -3 28.5 -4t24.5 -1h13q12 0 25 1.5t12 4.5q-2 8 -10.5 17.5t-13.5 14.5l-1 2q-2 9 8 13.5t23.5 7.5t26.5 5.5t18 8.5v1
q-4 16 -22.5 25t-31.5 7q0 6 15 11.5t32.5 11t31 12t11.5 14.5v1q-9 5 -20.5 10t-21.5 5h-5q-2 -1 -10.5 -4t-10.5 -4h-1h-1q1 8 7 10.5t14 7.5q1 1 5.5 4t10 7t9.5 7t6 4q14 10 30 28.5t18 34.5v1v1q-2 3 -4 3h-37q-3 -3 -12.5 -9.5t-20 -13t-19.5 -13t-12 -9.5
q-2 0 -12.5 -6.5t-15.5 -8.5q-1 -1 -3 -1.5t-3 -1.5l4 5q48 27 87.5 64.5t54.5 93.5v1v1q-9 0 -17.5 -1t-16.5 -6q-19 -23 -36.5 -43t-38.5 -40q-3 -2 -9 -7t-13 -10t-13.5 -9t-9.5 -4h-2q4 8 18 17t20 16q39 36 65 80.5t27 101.5l-2 0.5t-3 0.5q-25 0 -35 -21
q-3 -5 -10 -17t-15 -25.5t-15 -25.5t-10 -17l-32 -37q0 -1 -3 -4t-5 -4v3q57 66 79.5 153t5.5 183l-2 9l-3 -10q-19 -100 -49 -188.5t-65 -179.5q0 -2 -1 -3.5t0 -3.5h15q0 -8 -4.5 -19.5t-9.5 -15.5l-2 2q-2 7 3.5 12.5t3.5 12.5q1 1 0.5 2l-0.5 1q-1 -1 -6 -2t-7 -1
q-1 0 -2 0.5t-2 0.5v2q13 25 21 52t16 53q5 14 8 29t-1 30l1 6q-10 -26 -17.5 -51.5t-21.5 -48.5l-3.5 -7l-5 -10t-5 -9t-3.5 -4l-75 -93l-1 3q0 6 1 7l60 73q8 10 11 27l8 168q2 9 1 15.5t-2 14.5v2q-1 2 -1.5 4t-1.5 4l-1 2q-4 -3 -5.5 -10t-2.5 -15t-1.5 -15.5
t-1.5 -11.5q-1 -5 -2 -18t-1 -15q-3 -15 -8.5 -35t-10.5 -35l-1 3q12 57 14 109.5t-10 112.5v9l-5 19l1 5q-1 2 -5 12.5t-10 12.5l-12 -243q0 -1 -1.5 -8t-3.5 -16.5t-4 -19.5t-3 -16q0 -2 -2.5 -7.5t-2.5 -7.5l-1 2v1q2 18 5.5 36t0.5 37q-3 11 -7.5 22t-12.5 22l-1 -5v-47
l-4 -5l1 5q-3 11 -1.5 21t-1.5 21h-6q-57 -30 -116 -51t-128 -21q-39 0 -74 5.5t-69.5 15t-70 22.5t-74.5 29q-3 3 -8 3l1 -5q2 -13 7 -25.5t7 -25.5q1 -1 1 -4v-3q0 1 -2 4t-2 4q-1 3 -4.5 12t-7.5 19t-8 19t-6 12q-5 -4 -4.5 -19.5t2.5 -22.5q3 -17 13 -32.5t12 -32.5v-3
q-4 5 -8 11.5t-8 11.5q-4 9 -11 22.5t-13.5 26.5l-11.5 23l-5 10l-82 203l-3 2q-2 -13 -0.5 -27t5.5 -28q6 -32 13.5 -58.5t17.5 -51.5t22 -50.5t26 -54.5l2 -2q0 -1 -0.5 -1.5t-0.5 -1.5q-23 32 -39 63.5t-32 66.5q-3 12 -15 18l1 -5q1 -10 4.5 -21t7.5 -22l71 -167
q3 -9 10.5 -16t13.5 -14q3 -3 11 -10t17.5 -15t18 -15t11.5 -10h-5l-9 7t-21 17t-24.5 20.5t-19.5 17.5q-32 28 -56 63.5t-47 69.5v-8q2 -13 9 -27t15.5 -27t17.5 -25.5t17 -22.5q2 -3 8.5 -11.5t14 -18.5t14 -18.5t9.5 -11.5h-20q8 -14 19 -25.5t24 -22.5v-1q-7 0 -15 6.5
t-15.5 15.5t-14 18.5t-10.5 15.5h18q0 1 -1.5 3t-2.5 2q-2 1 -6 6.5t-9 12t-9.5 12t-5.5 7.5q-2 1 -8.5 11t-14 22t-14.5 22t-8 12q-2 2 -7.5 8.5t-11.5 14t-11.5 14t-6.5 8.5q-4 7 -12 18.5l-16 23t-14.5 20.5t-7.5 11l-87 150l-4 5l1 -4l2 -11l1 -4q17 -94 71 -177
t132 -149h-1h-1q-2 0 -6.5 3t-5.5 4l-37 33l-90 95q-8 8 -21 11t-23 4l1 -3q2 -10 7 -21t13 -21q18 -28 38 -50t42 -41.5t46.5 -37t51.5 -36.5q2 0 2 -3h-1h-1l-22 10q-4 2 -14 9t-14 9q-2 1 -7.5 5.5t-12.5 9.5t-12.5 9t-7.5 6l-56 47q-11 8 -21 9.5t-22 1.5l1 -3l13 -20
q39 -51 91.5 -85.5t109.5 -57.5l3 -2h-3h-2q-1 0 -4 1t-4 1q-3 1 -9.5 4t-14.5 6.5t-15 7t-10 5.5q-2 1 -9.5 5t-9.5 5q-20 11 -35 22t-35 11h-14q-11 0 -11 -6q35 -38 77 -65.5t91 -41.5l-1 -5l-49 15h-8q-3 0 -9.5 -1.5t-13 -3.5t-12 -5t-5.5 -6l1 -2q24 -14 48.5 -22.5
t50.5 -14.5q2 0 4 -3v-1v-1q-5 -1 -11.5 -4t-12 -8t-8.5 -11t-1 -13l1 -2l37 -12l5 -30q0 -1 8 -7.5t13 -10.5q4 -2 6.5 -5t6.5 -5q5 -1 11 -1.5t11 -0.5h23q21 0 39.5 3t37.5 9h1h1v-1t-1 -1q-8 -5 -16.5 -9.5t-15 -10.5t-10.5 -14t-2 -20q16 0 29.5 3t28.5 3h1
q-4 -5 -9 -7.5t-7 -7.5q2 -12 1.5 -24t1.5 -24q19 0 33 13.5t30 19.5q1 0 1 -2t1 -3q2 -8 -4.5 -16t-9.5 -16q-1 -6 -0.5 -10t1.5 -9l1 -9q13 0 23.5 8t21.5 8zM799 277l-1 -1q-2 0 -2 1q0 2 1 2q2 0 2 -2zM308 282q2 0 2 -2q1 -3 -1 -3t-3 3q0 2 2 2zM815 405l-6 5
q1 1 6.5 7.5t8.5 7.5q1 0 6 -3q4 -2 15.5 -10t15.5 -10h2q4 0 4 3l17 49h-97l40 113q15 -5 30.5 -15.5t28.5 -21.5l-1 -1v-2l-8 -10h-1h-1l-15 8l-7 3.5t-8 3.5q-2 -2 -3.5 -8.5t-3.5 -8.5q-2 -7 -6 -18.5l-4 -11.5l2 -6h95l-39 -118zM142 365l-12 142l114 57l25 -194
l-15 -3h-10h-2q-2 18 -5 35.5t-6 34.5h-5l-6 -6l-14 -14t-16.5 -16t-14.5 -14q-7 -5 -7 -9q0 -3 2 -13h-28zM325 435l51 32v2q0 5 -4 7l-8 4l-28 12q-4 2 -10.5 6l-6.5 4l-1 3l111 62l4 -25q-2 -2 -9.5 -6.5t-16 -9.5t-16 -9.5t-9.5 -6.5q-2 -1 -4 -3t-3 -2v-1l1 -2l67 -29
l-56 -38l1 -5q6 -4 26 -14q11 -4 25.5 -10.5t19.5 -8.5l5 -30h-2l-14 6.5t-33.5 16t-39.5 19.5t-33 16l-7 3.5t-8 3.5q0 1 -1 1.5t-1 1.5zM492 560h3l115 -13v-2q1 -3 1.5 -13t-4.5 -10q-21 0 -42.5 3.5t-42.5 3.5l6 -31l2 -8q1 -4 3 -15t5 -23q2 -12 4.5 -22.5t2.5 -14.5
q1 -3 5 -3h3q2 1 8 3t8 2q6 3 16 9l10 6l-2 8q-2 3 -10.5 13.5t-11.5 13.5l-4 5l2 2q-2 6 8.5 8.5t15.5 4.5q3 -3 9 -11t13 -17t13.5 -17.5t9.5 -11.5q4 -4 4 -5q-6 -3 -20.5 -10.5t-30.5 -16t-30.5 -16t-19.5 -10.5q-2 0 -6 -2l-6 -3q-11 49 -20 97t-17 96zM673 560h22
l48 -188h-25l-3 5l-4.5 20t-11 47t-13.5 55.5t-11 47.5l-1 3l-2 7zM222 522h-3l-5 -2t-11 -4.5t-12.5 -5.5t-10.5 -5l-15 -8q-6 -2 -6 -5q-3 -14 0.5 -34.5t7.5 -35.5h3l6.5 6t15 14.5l17.5 17.5l15 15l3 5q-1 11 -2 21t-3 21zM106 570q1 0 3 -3q0 -2 -2 -2t-2 2q-2 3 1 3z
M103 570q0 -1 -1 -1t-1.5 1t1.5 1t1 -1zM84 635q2 0 2 -3q2 -2 -1 -2q-1 0 -3 2q0 3 2 3zM216 652q3 0 3 -2q0 -3 -1 -3q-3 0 -3 3q0 2 1 2zM753 652q3 0 3 -2q0 -3 -1 -3q-3 0 -3 3q0 2 1 2zM212 657q1 0 3 -2q0 -3 -2 -3t-2 3q-2 2 1 2zM755 657q1 0 3 -2q0 -3 -2 -3t-2 3
q-2 2 1 2zM209 662q1 0 1 -1t-0.5 -1.5t-1.5 1.5q0 2 1 1zM756 662q2 0 2 -1t-1 -1.5t-2 1.5q0 1 0.5 1.5t0.5 -0.5zM205 667q2 0 2 -1t-1 -1.5t-2 1.5q0 2 1 1zM203 675q2 0 -1 -3q2 -2 0 -2l-2 2zM149 705q1 0 3 -3l-4 -2q-4 0 0 2q-2 3 1 3zM146 710q1 0 1 -1v-2
q-2 0 -2 2q0 1 1 1z" />
    </font>
</defs>
</svg>
