<?xml version="1.0" standalone="no"?>
<!DOCTYPE svg PUBLIC "-//W3C//DTD SVG 1.1//EN" "http://www.w3.org/Graphics/SVG/1.1/DTD/svg11.dtd" >
<svg xmlns="http://www.w3.org/2000/svg" xmlns:xlink="http://www.w3.org/1999/xlink" version="1.1">
<metadata>
Created by FontForge 20170731 at Thu Jun  9 18:27:32 2011
 By Aleksey,,,
2011 Iconian Fonts - www.iconian.com
</metadata>
<defs>
<font id="FederalService3DItalic" horiz-adv-x="785" >
  <font-face 
    font-family="Federal Service 3D Italic"
    font-weight="400"
    font-style="italic"
    font-stretch="normal"
    units-per-em="1000"
    panose-1="0 0 0 0 0 0 0 0 0 0"
    ascent="800"
    descent="-200"
    x-height="612"
    cap-height="612"
    bbox="-2 -202 1287 890"
    underline-thickness="50"
    underline-position="-175"
    slope="-12"
    unicode-range="U+0020-2122"
  />
<missing-glyph horiz-adv-x="500" 
 />
    <glyph glyph-name=".notdef" horiz-adv-x="500" 
 />
    <glyph glyph-name=".null" horiz-adv-x="0" 
 />
    <glyph glyph-name="nonmarkingreturn" horiz-adv-x="500" 
 />
    <glyph glyph-name="space" unicode=" " horiz-adv-x="373" 
 />
    <glyph glyph-name="space" unicode="&#xa0;" horiz-adv-x="373" 
 />
    <glyph glyph-name="FL0021h" unicode="!" horiz-adv-x="283" 
d="M68 62q6 26 31.5 44.5t57.5 18.5t50 -18.5t12 -44.5q-5 -26 -31 -44.5t-58 -18.5t-49.5 18.5t-12.5 44.5zM239 170h-146l90 423h146zM52 62q-9 -44 26 -66l3 -4q21 -26 62 -26q38 0 68 22t37 54q6 29 -11 49l-3 4q-11 32 -46 42h77l96 449l-14 17l1 6h-178l-96 -455h6
l13 -17h36q-29 -8 -50 -28.5t-27 -46.5z" />
    <glyph glyph-name="FL0022h" unicode="&#x22;" horiz-adv-x="485" 
d="M168 532q6 26 31 44.5t57 18.5t50.5 -18.5t12.5 -44.5l-25 -118q-5 -26 -31 -44.5t-58 -18.5t-49.5 19t-12.5 45zM370 533q6 26 31.5 44.5t57.5 18.5t50 -18.5t12 -44.5l-25 -118q-5 -26 -31 -44.5t-58 -18.5t-49.5 19t-12.5 45zM127 415q-5 -21 2.5 -39t24.5 -29l3 -3
q21 -26 61 -26q38 0 68 22t37 54l25 118q3 14 0 26.5t-11 22.5l-3 4q-6 20 -25.5 33t-48.5 13q-39 0 -70 -23t-38 -56zM329 416q-5 -21 2.5 -39t24.5 -29l3 -3q21 -26 61 -26q38 0 68 22t37 54l25 118q6 29 -11 49l-2 2l-1 1q1 0 1 -1v0l-1 2q-6 20 -25.5 33t-48.5 13
q-39 0 -69.5 -23t-38.5 -56z" />
    <glyph glyph-name="FL0023h" unicode="#" horiz-adv-x="779" 
d="M395 354l-26 -123h118l26 123h-118zM157 479h121l25 117h144l-25 -117h118l25 117h144l-25 -117h120l-27 -124h-120l-26 -124h120l-26 -124h-120l-23 -107h-144l23 106h-118l-23 -106h-144l23 106h-121l26 125h121l26 123h-121zM111 338h6l13 -17h98l-15 -74h-121
l-34 -157h6l14 -17h98l-19 -89h6l13 -17h170l23 106h69l-19 -89h6l13 -17h170l23 107h120l32 150l-14 17l2 6h-103l15 75h120l32 150l-13 17l1 6h-103l20 94l-13 17l1 6h-176l-25 -117h-69l20 94l-13 17l1 6h-176l-25 -117h-121zM421 321h69l-15 -74h-69z" />
    <glyph glyph-name="FL0024h" unicode="$" 
d="M507 238l-24 -110q45 8 76.5 33.5t52.5 76.5h-105zM412 468q-44 -7 -77.5 -31.5t-55.5 -75.5h111zM287 -124l26 124h-258l26 124h258l25 114h-258l13 62q28 136 107.5 213.5t213.5 82.5l26 122h143l-26 -122h252l-27 -124h-252l-23 -111h252l-14 -65q-29 -134 -107 -212
t-208 -84l-26 -124h-143zM582 439h252l32 150l-13 17l1 6h-235l21 99l-13 17l1 6h-175l-26 -124q-135 -11 -215 -92t-109 -218l-17 -78h6l14 -17h235l-14 -65h-258l-33 -156h6l13 -17h235l-23 -107h6l14 -17h169l26 125q131 10 210 90t108 218l16 78l-13 17l1 6h-235z
M387 423l-10 -46h-49q25 33 59 46zM533 205h43q-21 -31 -54 -48z" />
    <glyph glyph-name="FL0025h" unicode="%" horiz-adv-x="885" 
d="M694 222q-45 0 -64 -11.5t-24 -31.5l-12 -56q-5 -20 8.5 -32.5t57.5 -12.5q25 0 41 2.5t26 8t15 14.5t8 23l11 53q2 9 1 17t-7.5 13.5t-21 9t-39.5 3.5zM829 101q-5 -26 -17 -44.5t-34 -31.5t-55 -19t-80 -6q-45 0 -74 7t-44.5 19.5t-19.5 31t1 42.5l21 98q10 48 51 74.5
t133 26.5q47 0 76.5 -6t45.5 -18.5t19.5 -31t-1.5 -43.5zM327 518q-45 0 -64 -11.5t-24 -31.5l-12 -56q-5 -20 8 -32.5t57 -12.5q25 0 41.5 2.5t26.5 8t15 14.5t8 23l11 53q2 9 1 17t-7.5 13.5t-21 9t-39.5 3.5zM462 397q-5 -26 -17 -44.5t-34 -31.5t-55 -19t-80 -6
q-45 0 -74 7t-44.5 19.5t-19.5 31t1 42.5l21 98q10 48 50.5 74.5t132.5 26.5q47 0 77 -6t45.5 -18.5t19.5 -31t-2 -43.5zM107 0l636 596h139l-631 -596h-144zM512 476q11 50 -9 75l-4 5q-10 28 -45 41.5t-107 13.5q-51 0 -86.5 -8t-59.5 -23t-37.5 -36.5t-19.5 -49.5
l-21 -98q-7 -31 -1.5 -54t28.5 -38l2 -2q15 -19 47.5 -29t89.5 -10q24 0 45 1t39 5l-303 -285h9l13 -17h178l240 226l-20 -93q-6 -31 -1 -54t28 -38l2 -2q15 -19 47.5 -29t89.5 -10q51 0 86.5 7t59.5 21t37 35.5t19 50.5l21 99q11 50 -9 75l-4 5q-10 28 -45 41.5t-107 13.5
q-24 0 -45 -2t-39 -5l298 281l-14 18l5 5h-180l-247 -232zM635 159q3 14 19 22t53 8q13 0 22.5 -1t15.5 -3q1 -2 0.5 -3t-0.5 -3l-11 -53q-4 -18 -17.5 -25t-53.5 -7q-28 0 -41 5zM268 455q3 14 19 22t53 8q13 0 22.5 -1t15.5 -3q1 -2 0.5 -3t-0.5 -3l-11 -53
q-4 -18 -17.5 -25t-53.5 -7q-28 0 -41 5z" />
    <glyph glyph-name="FL0026h" unicode="&#x26;" horiz-adv-x="893" 
d="M249 234q-24 -111 93 -111h107q127 0 154 111h-354zM551 361q5 25 3 46.5t-15 37t-39.5 24t-69.5 8.5q-38 0 -65 -9t-45 -24.5t-28.5 -37t-15.5 -45.5h275zM277 0q-61 0 -99 20.5t-56 59.5t-18 94q0 56 15 126q29 139 99 218.5t182 79.5h117q100 0 144 -63t30 -178h201
l-26 -123h-122q-20 -64 -49 -110h147l-26 -124h-539zM769 201h123l31 149l-13 17l1 6h-189q5 101 -37 157l-1 1q-48 83 -163 83h-117q-60 0 -109 -21.5t-86.5 -62t-64 -99t-41.5 -131.5q-21 -100 -13.5 -170.5t53.5 -107.5q22 -26 58 -40.5t89 -14.5h552l32 150l-14 17l2 6
h-117q6 14 12 29t12 32zM453 139h-107q-50 0 -70 23q-2 8 -2.5 18t1.5 21h298q-34 -62 -120 -62zM443 444q54 0 80 -14q16 -20 13 -53h-221q14 29 44 48t84 19z" />
    <glyph glyph-name="FL0027h" unicode="'" horiz-adv-x="283" 
d="M168 533q6 26 31.5 44.5t57.5 18.5t50 -18.5t12 -44.5l-25 -118q-5 -26 -31 -44.5t-58 -18.5t-49.5 19t-12.5 45zM127 416q-5 -21 2.5 -39t24.5 -29l3 -3q21 -26 61 -26q38 0 68 22t37 54l25 118q6 29 -11 49l-3 4q-6 20 -25.5 33t-48.5 13q-39 0 -69.5 -23t-38.5 -56z
" />
    <glyph glyph-name="FL0028h" unicode="(" horiz-adv-x="473" 
d="M266 -68q-63 0 -99.5 31t-52 82.5t-13 117.5t17.5 137q15 69 41.5 134t64 115t85 80t103.5 30h123l-25 -119h-67q-38 0 -67 -19t-50 -46.5t-33.5 -59.5t-18.5 -57l-26 -123q-6 -29 -5 -61t10.5 -59t29.5 -44.5t53 -17.5h67l-25 -121h-113zM278 215l26 123q5 24 16.5 53
t30.5 55t45.5 43.5t60.5 17.5h80l31 145l-14 17l1 6h-139q-60 0 -110.5 -31.5t-90.5 -83.5t-68.5 -119.5t-43.5 -140.5q-12 -55 -16.5 -108t1 -99t21 -83t44.5 -60q21 -23 52.5 -37t73.5 -14h126l31 147l-14 17l2 6h-83q-39 0 -58 29q-10 26 -10.5 57t5.5 60z" />
    <glyph glyph-name="FL0029h" unicode=")" horiz-adv-x="473" 
d="M155 524h-6l32 151h139q52 0 87 -23.5t55 -64.5q35 -53 40 -134.5t-14 -172.5q-16 -73 -42.5 -141.5t-66 -122t-91.5 -85.5t-119 -32h-126l-14 17h-6l33 153h83q28 0 52.5 16t43.5 40.5t31.5 53.5t18.5 56l26 123q3 15 5 33.5t0.5 36.5t-6.5 35t-14 30q-19 14 -47 14h-80
zM156 -68q63 0 112.5 31t87 82.5t63 117.5t40.5 137q15 69 15.5 134t-16 115t-51 80t-90.5 30h-123l-25 -119h67q38 0 59 -19t30 -46.5t8.5 -59.5t-6.5 -57l-26 -123q-6 -29 -20.5 -61t-36 -59t-49 -44.5t-60.5 -17.5h-67l-25 -121h113z" />
    <glyph glyph-name="FL002Ah" unicode="*" horiz-adv-x="389" 
d="M379 605l11 -14l12 10l64 -83l-3 -2l15 -18l-62 -38l35 -27l-3 -3l15 -18l-90 -94l-16 18l-1 -2l-16 19l-9 -41h-118l-13 17h-6l1 7l-23 -18l-15 18l-2 -2l-55 99l63 39l-21 20l-8 10l-12 10l108 89l19 -24l7 34h124zM349 539l11 56h-92l-11 -55l-32 39l-79 -65l48 -41
l-73 -44l40 -72l66 51l-14 -63h92l13 61l41 -49l69 72l-58 47l73 44l-46 59z" />
    <glyph glyph-name="FL002Bh" unicode="+" horiz-adv-x="578" 
d="M450 519l-34 -161h161l-26 -123h-161l-34 -162h-123l34 162h-162l26 123h162l34 161h123zM315 535l-35 -161h-162l-32 -155h6l13 -17h139l-31 -145h6l14 -17h149l34 162h161l32 149l-14 17l1 6h-144l30 138l-14 17l2 6h-155z" />
    <glyph glyph-name="FL002Ch" unicode="," horiz-adv-x="283" 
d="M68 63q6 26 31.5 44.5t57.5 18.5t50 -18.5t12 -44.5l-25 -118q-5 -26 -31 -44.5t-58 -18.5t-49.5 19t-11.5 45zM28 -54q-5 -21 2 -38.5t24 -28.5l3 -4q21 -26 61 -26q38 0 68 22t37 54l25 118q6 28 -10 49l-4 4q-6 20 -25.5 33t-48.5 13q-39 0 -69.5 -23t-38.5 -56z" />
    <glyph glyph-name="FL002Dh" unicode="-" horiz-adv-x="510" 
d="M131 358h378l-26 -124h-378zM85 218h6l14 -17h404l32 150l-14 17l1 6h-410z" />
    <glyph glyph-name="FL002Eh" unicode="." horiz-adv-x="283" 
d="M68 63q6 26 31.5 44.5t57.5 18.5t50 -18.5t12 -44.5q-5 -26 -31 -44.5t-58 -18.5t-49.5 18.5t-12.5 44.5zM52 63q-9 -44 26 -66l4 -4q19 -26 61 -26q38 0 68 22t37 54q6 28 -10 49l-4 4q-6 20 -25.5 33t-48.5 13q-39 0 -69.5 -23t-38.5 -56z" />
    <glyph glyph-name="FL002Fh" unicode="/" horiz-adv-x="470" 
d="M55 0l321 596h144l-321 -596h-144zM50 -33h171l335 622l-14 17l3 6h-177l-338 -628h7z" />
    <glyph glyph-name="FL0030h" unicode="0" horiz-adv-x="783" 
d="M369 295q5 26 30.5 44.5t57.5 18.5t50 -18.5t13 -44.5q-6 -26 -32 -44.5t-58 -18.5t-49.5 18.5t-11.5 44.5zM638 358q6 25 4.5 47t-13.5 38t-35 25t-61 9h-103q-38 0 -65 -9t-45 -25t-28.5 -38t-16.5 -47l-26 -123q-24 -114 99 -114h110q130 0 154 114zM283 0
q-63 0 -102 20.5t-58 59t-19 93.5q0 56 15 127q29 139 99 217.5t182 78.5h215q56 0 92.5 -20t55.5 -58.5t20.5 -93.5t-13.5 -124q-15 -71 -39 -126.5t-59 -94t-83 -59t-111 -20.5h-195zM296 -33h195q67 0 117.5 21.5t87.5 61.5t62 98t41 132q17 81 12 143t-32 101
q-20 43 -59.5 65.5t-101.5 22.5h-215q-60 0 -108.5 -21.5t-86 -61.5t-64 -98t-41.5 -131q-21 -99 -13.5 -169t52.5 -108q47 -56 154 -56zM622 358l-26 -123q-21 -98 -135 -98h-110q-53 0 -75 24q-6 20 2 54l26 123q5 23 14.5 42.5t26 33.5t40.5 22t58 8h103q24 0 41.5 -4
t29.5 -12q8 -14 9 -32t-4 -38zM353 295q-9 -44 26 -66l3 -4q19 -26 61 -26q38 0 68.5 22t36.5 54q6 28 -10 49l-3 4q-7 20 -26.5 33t-48.5 13q-39 0 -69.5 -23t-37.5 -56z" />
    <glyph glyph-name="FL0031h" unicode="1" horiz-adv-x="347" 
d="M397 596l-127 -596h-144l102 478h-71l25 119zM169 613l-32 -151h6l14 -17h48l-98 -461h6l13 -17h170l132 622l-13 17l1 6z" />
    <glyph glyph-name="FL0032h" unicode="2" 
d="M142 456h-6l33 156h396q84 0 136.5 -27.5t76.5 -78.5q53 -81 23 -226l-17 -78h-506l-13 -61h489l-1 -6l13 -17l-32 -151h-679l-13 17h-6l82 390h500q-3 28 -16 44q-17 11 -39.5 16t-49.5 5h-358zM229 125l23 110h506l14 65q29 139 -21 217.5t-189 78.5h-380l-27 -124h345
q31 0 57 -5.5t44 -18.5t27.5 -35t8.5 -55h-506l-76 -358h653l27 125h-506z" />
    <glyph glyph-name="FL0062h" unicode="3" horiz-adv-x="722" 
d="M143 461h-6l32 151h388q62 0 101.5 -22.5t59.5 -65.5q27 -39 32 -101t-12 -143q-16 -74 -41 -132t-62 -98t-87.5 -61.5t-117.5 -21.5h-375l-13 17h-6l32 153h332q89 0 122 65h-417l-13 17h-6l32 155h445q2 16 0 30t-10 25q-12 7 -28.5 11t-39.5 4h-329zM417 0
q63 0 111 20.5t83 59t59 94t39 126.5q15 69 13.5 124t-20.5 93.5t-55.5 58.5t-92.5 20h-372l-26 -119h316q38 0 61 -9t35 -25t13.5 -38t-4.5 -47h-446l-26 -123h446q-24 -114 -154 -114h-316l-26 -121h362z" />
    <glyph glyph-name="FL0034h" unicode="4" horiz-adv-x="723" 
d="M507 0l50 236h-452l77 360h144l-51 -238h308l51 238h139l-127 -596h-139zM357 589l-13 17l1 6h-176l-83 -392h6l13 -17h429l-46 -219h6l13 -17h165l132 622l-13 17l1 6h-171l-51 -238h-259z" />
    <glyph glyph-name="FL0035h" unicode="5" 
d="M302 471l-23 -110h506l-14 -65q-29 -139 -113 -217.5t-223 -78.5h-380l26 124h345q63 0 111.5 24t74.5 90h-506l76 358h653l-27 -125h-506zM106 205h470q-26 -37 -63.5 -51t-82.5 -14h-361l-33 -156h6l13 -17h393q145 0 233 82t119 227l16 78l-13 17l1 6h-489l13 61h506
l32 151l-13 17l1 6h-685l-83 -390h6z" />
    <glyph glyph-name="FL0036h" unicode="6" 
d="M249 238v-3q-11 -51 11 -76.5t68 -36.5v2h98q63 0 111.5 24t74.5 90h-363zM463 472q-63 0 -110.5 -23.5t-73.5 -87.5h506l-14 -65q-29 -139 -113 -217.5t-223 -78.5h-152q-56 0 -93 16t-58 46.5t-26.5 74.5t2.5 101h-2l19 89q15 62 43 112t69 85t95.5 53.5t122.5 18.5
h380l-27 -124h-345zM141 25q46 -58 155 -58h152q145 0 233 82t119 227l16 78l-13 17l1 6h-477q26 34 63.5 48t85.5 14h358l32 150l-13 17l1 6h-396q-144 0 -231 -76.5t-118 -208.5l-23 -105h3q-6 -67 5.5 -116t44.5 -79zM430 140h-101q-35 9 -52 30q-4 14 -1 35h300
q-26 -37 -63.5 -51t-82.5 -14z" />
    <glyph glyph-name="FL0037h" unicode="7" horiz-adv-x="716" 
d="M249 0h-194l494 477h-393l26 119h584l-26 -119zM156 444h339l-476 -460h9l13 -17h227l500 486l29 136l-13 17l1 6h-616l-32 -151h6z" />
    <glyph glyph-name="FL0038h" unicode="8" horiz-adv-x="783" 
d="M458 121q128 0 154 113h-363q-24 -113 99 -113h110zM638 358q6 25 4.5 47t-13.5 38t-35 25t-61 9h-103q-38 0 -65 -9t-45 -25t-28.5 -38t-16.5 -47h363zM283 0q-63 0 -102 20.5t-58 59t-19 93.5q0 56 15 127q29 139 99 217.5t182 78.5h215q56 0 92.5 -20t55.5 -58.5
t20.5 -93.5t-13.5 -124q-15 -71 -39 -126.5t-59 -94t-83 -59t-111 -20.5h-195zM296 -33h195q67 0 117.5 21.5t87.5 61.5t62 98t41 132q17 81 12 143t-32 101q-20 43 -59.5 65.5t-101.5 22.5h-215q-60 0 -108.5 -21.5t-86 -61.5t-64 -98t-41.5 -131q-21 -99 -13.5 -169
t52.5 -108q47 -56 154 -56zM443 444h103q23 0 39.5 -4t28.5 -11q8 -11 10 -25t0 -30h-310q14 31 44.5 50.5t84.5 19.5zM461 137h-110q-55 0 -75 26q-4 15 -1 38h308q-34 -64 -122 -64z" />
    <glyph glyph-name="FL0039h" unicode="9" 
d="M640 358v3q11 51 -11 76.5t-68 36.5l-1 -2h-98q-63 0 -111 -24t-74 -90h363zM425 124q31 0 58.5 5t51 18t42.5 34.5t33 53.5h-506l14 65q29 139 113 217.5t223 78.5h152q56 0 93 -16t57.5 -46.5t26 -74.5t-1.5 -101h2l-19 -89q-16 -63 -44 -112.5t-69 -84.5t-95 -53.5
t-122 -18.5h-229l26 124h194zM429 140h-210l-33 -156h6l13 -17h242q71 0 127.5 19.5t99.5 56t72.5 88.5t46.5 117l22 103l-4 3q14 117 -32 177l-8 9q-22 35 -61.5 53.5t-100.5 18.5h-152q-74 0 -132.5 -21.5t-103 -61.5t-74.5 -98t-45 -131l-17 -81h6l13 -17h468
q-26 -36 -62 -49t-81 -13zM475 439h103l18 -6t15 -8q17 -19 14 -51h-300q26 36 64 50.5t86 14.5z" />
    <glyph glyph-name="FL003Ah" unicode=":" horiz-adv-x="283" 
d="M118 295q5 26 30.5 44.5t57.5 18.5t50 -18.5t13 -44.5q-6 -26 -32 -44.5t-58 -18.5t-49.5 18.5t-11.5 44.5zM68 63q6 26 31.5 44.5t57.5 18.5t50 -18.5t12 -44.5q-5 -26 -31 -44.5t-58 -18.5t-49.5 18.5t-12.5 44.5zM52 63q-9 -44 26 -66l4 -4q19 -26 61 -26q38 0 68 22
t37 54q6 28 -10 49l-4 4q-6 20 -25.5 33t-48.5 13q-39 0 -69.5 -23t-38.5 -56zM102 295q-9 -44 26 -66l3 -4q19 -26 61 -26q38 0 68.5 22t36.5 54q6 28 -10 49l-3 4q-7 20 -26.5 33t-48.5 13q-39 0 -69.5 -23t-37.5 -56z" />
    <glyph glyph-name="FL003Bh" unicode=";" horiz-adv-x="283" 
d="M68 63q6 26 31.5 44.5t57.5 18.5t50 -18.5t12 -44.5l-25 -118q-5 -26 -31 -44.5t-58 -18.5t-49.5 19t-11.5 45zM118 295q5 26 30.5 44.5t57.5 18.5t50 -18.5t13 -44.5q-6 -26 -32 -44.5t-58 -18.5t-49.5 18.5t-11.5 44.5zM28 -54q-5 -21 2 -38.5t24 -28.5l3 -4
q21 -26 61 -26q38 0 68 22t37 54l25 118q6 28 -10 49l-4 4q-6 20 -25.5 33t-48.5 13q-39 0 -69.5 -23t-38.5 -56zM102 295q-9 -44 26 -66l3 -4q19 -26 61 -26q38 0 68.5 22t36.5 54q6 28 -10 49l-3 4q-7 20 -26.5 33t-48.5 13q-39 0 -69.5 -23t-37.5 -56z" />
    <glyph glyph-name="FL003Ch" unicode="&#x3c;" horiz-adv-x="501" 
d="M400 598h151l-283 -301l156 -297h-150l-156 297zM99 298l165 -314h4l13 -17h181l-162 309l296 315l-15 18l6 5h-191z" />
    <glyph glyph-name="FL003Dh" unicode="=" horiz-adv-x="510" 
d="M105 233h378l-27 -124h-378zM157 481h378l-26 -124h-378zM111 341h6l14 -17h404l32 150l-14 17l2 6h-410zM59 93h6l13 -17h404l32 150l-13 17l1 6h-410z" />
    <glyph glyph-name="FL003Eh" unicode="&#x3e;" horiz-adv-x="501" 
d="M350 599l8 -8l160 -313l-295 -311h-181l-13 17h-9l296 312l-163 318h191zM332 598h-151l155 -301l-282 -297h150l282 297z" />
    <glyph glyph-name="FL003Fh" unicode="?" horiz-adv-x="787" 
d="M68 62q6 26 31.5 44.5t57.5 18.5t50 -18.5t12 -44.5q-5 -26 -31 -44.5t-58 -18.5t-49.5 18.5t-12.5 44.5zM241 170h-148l40 186h506q1 33 -8.5 55t-27.5 35t-44 18.5t-57 5.5h-345l26 124h380q139 0 189.5 -78.5t20.5 -217.5l-13 -65h-506zM52 62q-9 -44 26 -66l3 -4
q21 -26 62 -26q38 0 68 22t37 54q6 29 -11 49l-3 4q-11 32 -46 42h79l13 63h506l16 78q15 72 9.5 129t-32.5 97q-23 51 -75.5 78.5t-136.5 27.5h-396l-33 -156h6l13 -17h358q27 0 49 -5t39 -16q14 -17 17 -44h-500l-46 -218h6l13 -17h36q-29 -8 -50 -28.5t-27 -46.5z" />
    <glyph glyph-name="FL0EEEh" unicode="@" horiz-adv-x="955" 
d="M649 507q38 -8 58.5 -22.5t29.5 -37.5l1 -1q18 -23 18.5 -57.5t-9.5 -82.5l-11 -52l3 1v1q19 4 24 8.5t13 18.5q-1 0 2 5l15 70q3 16 6 34t3.5 36t-2.5 34.5t-12 29.5q-20 15 -56 15h-83zM335 102q-17 12 -25.5 28t-10.5 36.5t0 45t7 52.5l14 63q7 36 17.5 65.5t28 52.5
t44 38.5t66.5 23.5h-19q-41 0 -67 -13.5t-43 -36.5t-26.5 -54t-16.5 -65l-26 -123q-7 -32 -12 -67t3 -61q8 -8 20.5 -13t31.5 -5h9q3 0 5 1h49q-33 11 -48 31zM462 238q-6 -23 -6 -36q13 -8 41 -8q27 0 43 4t25 14t14 26t10 40l4 34q3 14 5 27t-2 24q-15 6 -39 6
q-41 0 -57 -13.5t-22 -39.5zM279 -101q-42 0 -73.5 14t-52.5 37q-29 23 -44.5 60t-21 83t-1 99t16.5 108q15 72 43.5 139.5t68 119.5t90 83.5t110.5 31.5h388q54 0 91 -22.5t58 -63.5q26 -38 33 -95.5t-8 -128.5l-18 -86q-21 -48 -42.5 -82.5t-51.5 -57.5t-73.5 -34.5
t-107.5 -13.5l-68 -13q-5 -2 -9.5 -3.5t-9.5 -3.5h83l-1 -6l13 -17l-31 -148h-382zM544 402q31 0 47 -7t21.5 -19.5t3.5 -28.5t-6 -34l-5 -34q-6 -29 -11.5 -48.5t-16.5 -31t-30.5 -16.5t-52.5 -5q-27 0 -41.5 5t-20.5 15t-4.5 25t5.5 35l16 78q7 32 26.5 49t68.5 17z
M718 326q9 43 8.5 75.5t-17 54t-52.5 32t-98 10.5q-61 0 -100.5 -11.5t-63.5 -33t-37 -53.5t-22 -73l-14 -62q-7 -41 -7.5 -73t13.5 -54.5t47 -34.5t94 -12q42 0 75 4.5t56 14.5l68 13q62 2 103.5 13t70 33t49 54.5t40.5 77.5l18 83q13 60 9 110.5t-23 87t-53 56.5t-82 20
h-388q-56 0 -103 -30t-84.5 -80t-64 -114.5t-41.5 -133.5q-15 -71 -17.5 -137t13 -117.5t52 -82.5t99.5 -31h369l25 122h-324q-2 -1 -10 -1h-9q-40 0 -57.5 17.5t-22 44.5t0.5 59t11 61l26 123q8 37 18.5 70t29 58t47.5 39.5t74 14.5h275q45 0 67 -18.5t29 -46t3.5 -59
t-9.5 -58.5l-15 -72q-7 -14 -11.5 -21.5t-9 -12t-12 -7t-20.5 -5.5l-41 -6z" />
    <glyph glyph-name="FL0041h" unicode="A" horiz-adv-x="760" 
d="M300 477l-54 -255h344l29 136q-1 20 -6 41t-18 38.5t-35 28.5t-56 11h-204zM566 105h-346l-22 -105h-143l127 596h410q47 0 82 -21.5t57 -56.5t29 -79t-2 -88l-75 -351h-139zM525 -16h6l13 -17h165l77 364q11 49 1.5 97.5t-35.5 85.5q-23 43 -62.5 70.5t-94.5 27.5h-426
l-133 -628h6l13 -17h169l22 105h297zM326 444h191q40 0 64 -19q11 -16 15.5 -35t5.5 -37l-24 -115h-295z" />
    <glyph glyph-name="FL0042h" unicode="B" 
d="M323 439l-14 -65h309q-3 28 -16 44q-17 11 -39.5 16t-49.5 5h-190zM427 128q59 0 95 16.5t59 61.5h-307l-17 -78h170zM42 -16h-6l133 628h396q84 0 136.5 -27.5t76.5 -78.5q53 -81 23 -226q-19 -87 -52.5 -147t-78.5 -97t-100 -53t-116 -16h-399zM273 358l24 114h203
q31 0 57 -5.5t44 -18.5t27.5 -35t8.5 -55h-364zM613 239q-13 -36 -29 -60.5t-38.5 -39t-52.5 -21t-69 -6.5h-203l27 127h365zM772 300q29 139 -21 217.5t-189 78.5h-380l-127 -596h386q58 0 110.5 15.5t95.5 51t75 92.5t50 141z" />
    <glyph glyph-name="FL0043h" unicode="C" horiz-adv-x="722" 
d="M283 0q-63 0 -102 20.5t-58 59t-19 93.5q0 56 15 127q29 139 99 217.5t182 78.5h372l-26 -119h-316q-38 0 -65 -9t-45 -25t-28.5 -38t-16.5 -47l-26 -123q-24 -114 106 -114h316l-26 -121h-362zM278 215l26 123q5 23 14.5 42.5t26 33.5t40.5 22t58 8h329l31 145l-13 17
l1 6h-388q-60 0 -108.5 -21.5t-86 -61.5t-64 -98t-41.5 -131q-21 -99 -13.5 -169t52.5 -108q47 -56 154 -56h375l31 147l-13 17l1 6h-332q-57 0 -81 25q-7 20 1 53z" />
    <glyph glyph-name="FL0044h" unicode="D" 
d="M630 300q11 51 6 84.5t-22.5 53t-47 27t-66.5 7.5h-203l-76 -360h203q46 0 79.5 8.5t57.5 29.5t40.5 57.5t28.5 92.5zM772 300q-18 -84 -50 -141t-75 -92.5t-95.5 -51t-110.5 -15.5h-386l127 596h380q139 0 189 -78.5t21 -217.5zM55 -33h399q61 0 116 16t100 53t78.5 97
t52.5 147q30 145 -23 226q-24 51 -76.5 78.5t-136.5 27.5h-396l-133 -628h6zM614 300q-11 -51 -26 -84.5t-36.5 -53t-52 -27t-72.5 -7.5h-170l66 311h190q27 0 50.5 -4.5t40.5 -15.5q13 -18 16 -47t-6 -72z" />
    <glyph glyph-name="FL0045h" unicode="E" horiz-adv-x="722" 
d="M689 131l13 -17l-31 -147h-375q-107 0 -154 56q-45 38 -52.5 108t13.5 169q15 73 41.5 131t64 98t86 61.5t108.5 21.5h388l-1 -6l13 -17l-31 -145h-329q-54 0 -84.5 -19.5t-44.5 -50.5h426l-1 -6l14 -17l-31 -146h-446q-2 -11 -2 -21t2 -18q23 -29 82 -29h332zM671 121
h-316q-66 0 -92 30t-13 87h446l25 120h-446q6 25 16.5 47t28.5 38t45 25t65 9h316l26 119h-372q-112 0 -182 -78.5t-99 -217.5q-15 -71 -15 -127q0 -55 19 -93.5t58 -59t102 -20.5h362z" />
    <glyph glyph-name="FL0046h" unicode="F" horiz-adv-x="722" 
d="M443 444q-54 0 -84.5 -19.5t-44.5 -50.5h426l-1 -6l14 -17l-31 -145h-446l-51 -239h-170l-13 17h-6l67 316q15 73 41.5 131t64 98t86 61.5t108.5 21.5h388l-1 -6l13 -17l-31 -145h-329zM250 239h446l25 119h-446q6 25 16.5 47t28.5 38t45 25t65 9h316l26 119h-372
q-112 0 -182 -78.5t-99 -217.5l-64 -300h144z" />
    <glyph glyph-name="FL0047h" unicode="G" 
d="M335 -33q-59 0 -105.5 14.5t-76.5 48.5q-44 35 -58.5 100t8.5 170q15 73 45 131t74.5 98t103 61.5t132.5 21.5h395l-1 -6l13 -17l-32 -150h-357q-35 0 -64.5 -7t-53 -25t-41 -48.5t-27.5 -78.5q-9 -42 -11 -72.5t5 -50.5q15 -16 41 -22.5t65 -6.5h187l16 73h-102l-14 17
h-6l33 156h299l-1 -6l14 -17l-82 -384h-399zM616 234l-26 -122h-203q-47 0 -77 8.5t-45 29.5t-15.5 57.5t11.5 92.5q11 51 30 84.5t44.5 53t57.5 27t70 7.5h344l27 124h-379q-139 0 -223 -78.5t-113 -217.5q-18 -84 -10.5 -141t35.5 -92.5t73.5 -51t104.5 -15.5h386l76 358
h-267l-26 -124h125z" />
    <glyph glyph-name="FL0048h" unicode="H" horiz-adv-x="780" 
d="M564 0l50 235h-365l-50 -235h-144l127 596h144l-51 -238h365l51 238h139l-127 -596h-139zM357 589l-13 17l1 6h-176l-133 -628h6l13 -17h170l50 235h316l-46 -218h6l13 -17h165l132 622l-13 17l1 6h-171l-51 -238h-316z" />
    <glyph glyph-name="FL0049h" unicode="I" horiz-adv-x="716" 
d="M639 0h-584l25 119h219l76 358h-219l26 119h584l-26 -119h-225l-76 -358h225zM684 135h-208l65 309h225l31 145l-13 17l1 6h-616l-32 -151h6l13 -17h196l-65 -309h-219l-32 -151h6l13 -17h610l31 145l-14 17z" />
    <glyph glyph-name="FL004Ah" unicode="J" horiz-adv-x="722" 
d="M42 -16h-6l32 153h332q114 0 135 98l80 378h176l-1 -6l13 -17l-65 -310q-16 -74 -41 -132t-62 -98t-87.5 -61.5t-117.5 -21.5h-375zM417 0q63 0 111 20.5t83 59t59 94t39 126.5l63 297h-144l-77 -362q-24 -114 -154 -114h-316l-26 -121h362z" />
    <glyph glyph-name="FL004Bh" unicode="K" horiz-adv-x="756" 
d="M275 358l375 239h181l-448 -295l320 -302h-180l-274 235l-50 -235h-144l127 596h144zM345 612h-176l-133 -628h6l13 -17h170l47 222l259 -222h222l-13 17h5l-320 302l462 304l-14 18l8 5h-233l-331 -212l40 188l-13 17z" />
    <glyph glyph-name="FL004Ch" unicode="L" horiz-adv-x="722" 
d="M283 0q-63 0 -102 20.5t-58 59t-19 93.5q0 56 15 127l63 297h144l-77 -362q-24 -114 106 -114h316l-26 -121h-362zM278 215l79 375l-13 17l1 6h-176l-66 -313q-21 -99 -13.5 -169t52.5 -108q47 -56 154 -56h375l31 147l-13 17l1 6h-332q-57 0 -81 25q-7 20 1 53z" />
    <glyph glyph-name="FL004Dh" unicode="M" horiz-adv-x="990" 
d="M512 478h-37q-52 0 -88.5 -8.5t-60 -23.5t-36.5 -36.5t-19 -46.5l-77 -363h-139l84 393q10 48 33.5 85.5t65.5 64t106 40t156 13.5h220q91 0 149.5 -13.5t89.5 -40t38.5 -64t-2.5 -85.5l-84 -393h-139l77 363q6 25 2 46.5t-21.5 36.5t-50 23.5t-84.5 8.5h-37l-102 -477
h-146zM391 -15h6l13 -17h172l102 477h24q45 0 73.5 -7t45.5 -18q14 -23 6 -57l-80 -379h6l13 -17h165l86 406q9 43 5.5 78t-23.5 62q-11 24 -33 42t-56 31t-82 19.5t-111 6.5h-220q-96 0 -163.5 -15t-112 -43t-69 -68.5t-35.5 -92.5l-87 -409h6l13 -17h165l80 376
q5 22 17 41t33.5 32.5t55.5 21t82 7.5h1z" />
    <glyph glyph-name="FL004Eh" unicode="N" horiz-adv-x="780" 
d="M564 0l70 331q6 29 6 55q0 27 -11 47t-36 32t-69 12h-224l-101 -477h-144l127 596h430q46 0 81.5 -19t57.5 -59q24 -38 30 -80t-3 -87l-75 -351h-139zM55 -33h170l101 477h211q46 0 73 -16q13 -19 13.5 -44t-5.5 -53l-73 -347h6l13 -17h165l77 364q22 97 -27 175
q-3 3 -5 6.5t-4 6.5q-2 2 -2.5 4.5t-2.5 4.5q-24 43 -62 63.5t-88 20.5h-446l-133 -628h6z" />
    <glyph glyph-name="FL004Fh" unicode="O" horiz-adv-x="783" 
d="M638 358q6 25 4.5 47t-13.5 38t-35 25t-61 9h-103q-38 0 -65 -9t-45 -25t-28.5 -38t-16.5 -47l-26 -123q-24 -114 99 -114h110q130 0 154 114zM283 0q-63 0 -102 20.5t-58 59t-19 93.5q0 56 15 127q29 139 99 217.5t182 78.5h215q56 0 92.5 -20t55.5 -58.5t20.5 -93.5
t-13.5 -124q-15 -71 -39 -126.5t-59 -94t-83 -59t-111 -20.5h-195zM296 -33h195q67 0 117.5 21.5t87.5 61.5t62 98t41 132q17 81 12 143t-32 101q-20 43 -59.5 65.5t-101.5 22.5h-215q-60 0 -108.5 -21.5t-86 -61.5t-64 -98t-41.5 -131q-21 -99 -13.5 -169t52.5 -108
q47 -56 154 -56zM622 358l-26 -123q-21 -98 -135 -98h-110q-53 0 -75 24q-6 20 2 54l26 123q5 23 14.5 42.5t26 33.5t40.5 22t58 8h103q24 0 41.5 -4t29.5 -12q8 -14 9 -32t-4 -38z" />
    <glyph glyph-name="FL0DB9h" unicode="P" horiz-adv-x="761" 
d="M452 224q37 0 63.5 7.5t46 23t32.5 39t23 55.5q3 24 0.5 47t-15 41t-36.5 29t-62 11h-204l-53 -253h205zM55 0l127 596h410q46 0 82 -20t58 -60q24 -38 29.5 -79t-3.5 -86l-2 -1h2q-9 -45 -32.5 -87t-64.5 -80q-38 -40 -82.5 -59t-90.5 -19h-267l-22 -105h-144zM55 -33
h170l22 105h254q49 0 95.5 20.5t88.5 62.5q82 78 105 188l-2 1q15 88 -29 160q-3 6 -6.5 11.5t-6.5 10.5q-23 43 -62 64.5t-89 21.5h-426l-133 -628h6zM455 240h-172l43 204h191q44 0 70 -18q11 -16 13.5 -36.5t0.5 -41.5q-9 -28 -21 -48t-29 -33.5t-40.5 -20t-55.5 -6.5z
" />
    <glyph glyph-name="FL0051h" unicode="Q" horiz-adv-x="783" 
d="M487 297l77 -146q36 28 48 84l26 123q6 25 4.5 47t-13.5 38t-35 25t-61 9h-103q-38 0 -65 -9t-45 -25t-28.5 -38t-16.5 -47l-26 -123q-24 -114 99 -114h88l-63 122zM283 0q-63 0 -102 20.5t-58 59t-19 93.5q0 56 15 127q29 139 99 217.5t182 78.5h215q56 0 92.5 -20
t55.5 -58.5t20.5 -93.5t-13.5 -124q-20 -94 -55 -160t-92 -102l35 -65l-118 -50l-41 77h-21h-195zM296 -33h200l34 -64l4 2l14 -18l145 61l-37 67q55 40 89 106t54 159q17 81 12 143t-32 101q-20 43 -59.5 65.5t-101.5 22.5h-215q-60 0 -108.5 -21.5t-86 -61.5t-64 -98
t-41.5 -131q-21 -99 -13.5 -169t52.5 -108q47 -56 154 -56zM350 249l57 -112h-56q-53 0 -75 24q-6 20 2 54l26 123q5 23 14.5 42.5t26 33.5t40.5 22t58 8h103q24 0 41.5 -4t29.5 -12q8 -14 9 -32t-4 -38l-26 -123q-4 -17 -10.5 -30.5t-15.5 -26.5l-61 116l-3 5l-10 19z" />
    <glyph glyph-name="FL0054h" unicode="R" horiz-adv-x="761" 
d="M452 224q37 0 63 7.5t44.5 22.5t30.5 38t22 55q3 24 1 47.5t-13 42t-34 29.5t-62 11h-204l-53 -253h205zM55 0l127 596h410q46 0 81.5 -19t57.5 -59q24 -38 30 -80t-3 -87l-2 -1h2q-9 -45 -32 -87t-64 -81q-21 -20 -42 -34.5t-44 -24.5l67 -123h-156l-56 105h-210
l-22 -105h-144zM55 -33h170l22 105h182l48 -88h4l13 -17h188l-71 131q36 19 75 56q42 41 67.5 88t36.5 101l-2 1q15 89 -29 162q-2 4 -4.5 7.5t-5.5 7.5q-2 2 -2 3q0 2 -2 4q-24 43 -62 63.5t-88 20.5h-426l-133 -628h6zM455 240h-172l43 204h191q21 0 37 -4t27 -11
q13 -17 15 -38t0 -44q-9 -28 -20 -48t-27 -33t-39 -19.5t-55 -6.5z" />
    <glyph glyph-name="FL0073h" unicode="S" 
d="M93 225h-6l16 75q15 73 45 131t74.5 98t103 61.5t132.5 21.5h396l-1 -6l13 -17l-32 -150h-358q-48 0 -85.5 -14t-63.5 -48h477l-1 -6l13 -17l-16 -78q-31 -145 -119 -227t-233 -82h-393l-13 17h-6l33 156h361q45 0 83 15t64 53h-471zM808 472l27 124h-380
q-139 0 -223 -78.5t-113 -217.5l-13 -59h506q-26 -66 -74.5 -91.5t-111.5 -25.5h-345l-26 -124h380q139 0 223 78.5t113 217.5l14 65h-506q26 64 73.5 87.5t110.5 23.5h345z" />
    <glyph glyph-name="T" unicode="T" horiz-adv-x="716" 
d="M515 477l-101 -477h-140l101 477h-219l26 119h584l-26 -119h-225zM156 444h196l-97 -460h6l13 -17h166l101 477h225l31 145l-13 17l1 6h-616l-32 -151h6z" />
    <glyph glyph-name="FL0055h" unicode="U" horiz-adv-x="780" 
d="M169 612h171l-1 -6l13 -17l-73 -344q-5 -23 -5.5 -43.5t4.5 -38.5q11 -13 32 -20.5t54 -7.5h208l101 477h176l-1 -6l13 -17l-132 -622h-443q-79 0 -128 52q-23 20 -39 49q-50 79 -28 177zM107 245q-10 -45 -4 -87t31 -80q21 -40 57 -59t82 -19h430l127 596h-144
l-102 -477h-224q-44 0 -69 12t-36 32t-11 46q0 27 6 56l71 331h-139z" />
    <glyph glyph-name="FL0056h" unicode="V" horiz-adv-x="793" 
d="M333 598l85 -477l274 477h151l-348 -598h-208l-105 598h151zM162 614l111 -630h5l13 -17h226l364 624l-15 18l4 5h-185l-252 -437l-72 414l-12 15l-1 8h-186z" />
    <glyph glyph-name="FL0057h" unicode="W" horiz-adv-x="987" 
d="M167 612h171l-1 -6l13 -17l-73 -344q-5 -21 -6.5 -41.5t3.5 -38.5q13 -14 38.5 -22t67.5 -8h66q-12 57 -1 110l78 367h171l-1 -6l13 -17l-73 -344q-5 -25 -9 -47.5t1 -40.5q19 -22 72 -22h80l101 477h176l-1 -6l13 -17l-132 -622h-650q-79 0 -128 52q-23 20 -39 49
q-50 79 -28 177zM105 245q-10 -45 -4 -87t31 -80q21 -40 57 -59t82 -19h637l127 596h-144l-102 -477h-96q-44 0 -65.5 12t-28.5 32t-4 46.5t9 55.5l71 331h-139l-75 -351q-14 -66 6 -126h-91q-55 0 -84 12.5t-40.5 33t-10.5 47t7 53.5l71 331h-139z" />
    <glyph glyph-name="FL0058h" unicode="X" horiz-adv-x="723" 
d="M333 597l104 -198l185 199h151l-283 -301l156 -297h-150l-103 195l-185 -195h-150l282 297l-158 300h151zM153 613l167 -316l-296 -313h9l13 -17h181l171 180l88 -163h4l13 -17h181l-162 309l296 315l-15 18l6 5h-191l-175 -187l-86 163l-6 7l-8 16h-190z" />
    <glyph glyph-name="FL0059h" unicode="Y" 
d="M771 296q-29 -139 -113 -217.5t-223 -78.5h-234l26 124h199q63 0 111.5 24t74.5 90h-278l-1 -1q-62 0 -101 20t-58 58t-20 93t14 125l14 64h146l-32 -152q-5 -68 65 -83h276l50 234h147zM853 612h-179l-50 -234h-255q-29 6 -42 21q-2 6 -3 13t1 15l34 163l-13 17l1 6
h-178l-17 -80q-20 -94 -11.5 -162t52.5 -106q25 -30 65.5 -45.5t100.5 -15.5l1 1h216q-26 -37 -63.5 -51t-82.5 -14h-215l-33 -156h6l13 -17h247q145 0 233 82t119 227l65 313l-13 17z" />
    <glyph glyph-name="FL005Ah" unicode="Z" horiz-adv-x="716" 
d="M270 119h394l-25 -119h-584l25 119l469 358h-393l26 119h584l-26 -119zM156 444h325l-415 -318l-30 -142h6l13 -17h610l31 145l-14 17l2 6h-331l415 316l29 138l-13 17l1 6h-616l-32 -151h6z" />
    <glyph glyph-name="FL005Bh" unicode="[" horiz-adv-x="473" 
d="M40 -69l155 728h341l-25 -118h-196l-104 -488h193l-25 -121zM341 508h196l31 144l-14 17l1 6h-373l-161 -760h6l13 -17l365 1l31 147l-14 17l2 6h-176z" />
    <glyph glyph-name="FL005Ch" unicode="\" horiz-adv-x="470" 
d="M240 -16h-5l-72 628h177v-8l13 -15l71 -622h-171zM393 0l-67 596h-144l67 -596h144z" />
    <glyph glyph-name="FL005Dh" unicode="]" horiz-adv-x="473" 
d="M156 525h-6l31 150h373l-1 -6l14 -17l-161 -754l-363 1l-14 17h-6l33 153h193l93 439h-173zM380 -69l155 728h-341l-25 -118h196l-104 -488h-193l-25 -121z" />
    <glyph glyph-name="FL005Eh" unicode="^" horiz-adv-x="440" 
d="M353 409l-33 105l-78 -105h-100l143 186h97l68 -186h-97zM133 376h129l58 78l20 -61h5l13 -17h127l-77 212l-10 11l-3 12h-115l-168 -218h8z" />
    <glyph glyph-name="FL005Fh" unicode="_" horiz-adv-x="528" 
d="M489 63l-26 -123h-446l26 123h446zM31 79l-33 -155h6l13 -17h472l32 149l-13 17l1 6h-478z" />
    <glyph glyph-name="FL0060h" unicode="`" horiz-adv-x="308" 
d="M328 503q7 -15 2 -35q-3 -15 -10 -25.5t-22 -21.5q-11 -9 -21.5 -12.5t-21.5 -3.5q-22 0 -33 20l-51 75q-7 13 -3 32q3 15 16.5 25.5t30.5 21.5q23 17 45 17q11 0 20.5 -12t14.5 -21zM309 573q-6 11 -18 25t-28 14q-25 0 -53 -19l-4 -3q-20 -13 -35 -26t-19 -32
q-5 -25 5 -43l52 -76q6 -12 17 -18l5 -7q14 -16 37 -16q14 0 26.5 4t26.5 15q17 13 25.5 25.5t12.5 31.5q5 22 -2 40l-35 63q-2 5 -9 13zM208 591q-1 0 -2 -1l0.5 0.5t1.5 0.5z" />
    <glyph glyph-name="FL0061h" unicode="a" horiz-adv-x="760" 
d="M436 477q-35 0 -61.5 -11t-46.5 -28.5t-34 -38.5t-23 -41l-29 -136h344l54 255h-204zM55 0l75 351q9 44 35 88t62.5 79t81 56.5t91.5 21.5h410l-127 -596h-143l22 105h-346l-22 -105h-139zM55 -33h165l22 105h297l-18 -88h6l13 -17h169l132 622l-13 17l1 6h-426
q-50 0 -98 -23t-87 -60.5t-66.5 -84t-37.5 -93.5l-78 -367h6zM449 444h168l-43 -206h-295l20 97q9 18 21.5 37.5t31 35.5t42.5 26t55 10z" />
    <glyph glyph-name="FL0063h" unicode="b" 
d="M323 439l-14 -65h309q-3 28 -16 44q-17 11 -39.5 16t-49.5 5h-190zM427 128q59 0 95 16.5t59 61.5h-307l-17 -78h170zM42 -16h-6l133 628h396q84 0 136.5 -27.5t76.5 -78.5q53 -81 23 -226q-19 -87 -52.5 -147t-78.5 -97t-100 -53t-116 -16h-399zM273 358l24 114h203
q31 0 57 -5.5t44 -18.5t27.5 -35t8.5 -55h-364zM613 239q-13 -36 -29 -60.5t-38.5 -39t-52.5 -21t-69 -6.5h-203l27 127h365zM772 300q29 139 -21 217.5t-189 78.5h-380l-127 -596h386q58 0 110.5 15.5t95.5 51t75 92.5t50 141z" />
    <glyph glyph-name="c" unicode="c" horiz-adv-x="722" 
d="M283 0q-63 0 -102 20.5t-58 59t-19 93.5q0 56 15 127q29 139 99 217.5t182 78.5h372l-26 -119h-316q-38 0 -65 -9t-45 -25t-28.5 -38t-16.5 -47l-26 -123q-24 -114 106 -114h316l-26 -121h-362zM278 215l26 123q5 23 14.5 42.5t26 33.5t40.5 22t58 8h329l31 145l-13 17
l1 6h-388q-60 0 -108.5 -21.5t-86 -61.5t-64 -98t-41.5 -131q-21 -99 -13.5 -169t52.5 -108q47 -56 154 -56h375l31 147l-13 17l1 6h-332q-57 0 -81 25q-7 20 1 53z" />
    <glyph glyph-name="d" unicode="d" 
d="M630 300q11 51 6 84.5t-22.5 53t-47 27t-66.5 7.5h-203l-76 -360h203q46 0 79.5 8.5t57.5 29.5t40.5 57.5t28.5 92.5zM772 300q-18 -84 -50 -141t-75 -92.5t-95.5 -51t-110.5 -15.5h-386l127 596h380q139 0 189 -78.5t21 -217.5zM55 -33h399q61 0 116 16t100 53t78.5 97
t52.5 147q30 145 -23 226q-24 51 -76.5 78.5t-136.5 27.5h-396l-133 -628h6zM614 300q-11 -51 -26 -84.5t-36.5 -53t-52 -27t-72.5 -7.5h-170l66 311h190q27 0 50.5 -4.5t40.5 -15.5q13 -18 16 -47t-6 -72z" />
    <glyph glyph-name="e" unicode="e" horiz-adv-x="722" 
d="M689 131l13 -17l-31 -147h-375q-107 0 -154 56q-45 38 -52.5 108t13.5 169q15 73 41.5 131t64 98t86 61.5t108.5 21.5h388l-1 -6l13 -17l-31 -145h-329q-54 0 -84 -19t-44 -50h340l-2 -6l14 -17l-31 -145h-360q-3 -23 2 -42q22 -28 80 -28h332zM671 121h-316
q-66 0 -91.5 31t-13.5 88h360l25 119h-360q6 25 16.5 46.5t28.5 37.5t45 25t65 9h316l26 119h-372q-112 0 -182 -78.5t-99 -217.5q-15 -71 -15 -127q0 -55 19 -93.5t58 -59t102 -20.5h362z" />
    <glyph glyph-name="FL0066h" unicode="f" horiz-adv-x="722" 
d="M443 444q-54 0 -84 -19t-44 -50h340l-2 -6l14 -17l-31 -146h-360l-51 -239h-170l-13 17h-6l67 316q15 73 41.5 131t64 98t86 61.5t108.5 21.5h388l-1 -6l13 -17l-31 -145h-329zM250 239h360l25 120h-360q6 25 16.5 46.5t28.5 37.5t45 25t65 9h316l26 119h-372
q-112 0 -182 -78.5t-99 -217.5l-64 -300h144z" />
    <glyph glyph-name="FL0067h" unicode="g" 
d="M261 300q-12 -56 -11.5 -92.5t15.5 -57.5t45 -29.5t77 -8.5h203l52 246h142l-76 -358h-386q-59 0 -104.5 15.5t-73.5 51t-35.5 92.5t10.5 141q29 139 113 217.5t223 78.5h379l-27 -124h-344q-38 0 -70 -7.5t-57.5 -27t-44.5 -53t-30 -84.5zM335 -33h399l82 384l-14 17
l1 6h-174l-52 -246h-187q-39 0 -65 6.5t-41 22.5q-7 20 -5 50.5t11 72.5q10 48 27.5 78.5t41 48.5t53 25t64.5 7h357l32 150l-13 17l1 6h-395q-74 0 -132.5 -21.5t-103 -61.5t-74.5 -98t-45 -131q-23 -105 -8.5 -170t58.5 -100q30 -34 76.5 -48.5t105.5 -14.5z" />
    <glyph glyph-name="FL0068h" unicode="h" horiz-adv-x="780" 
d="M564 0l50 235h-365l-50 -235h-144l127 596h144l-51 -238h365l51 238h139l-127 -596h-139zM357 589l-13 17l1 6h-176l-133 -628h6l13 -17h170l50 235h316l-46 -218h6l13 -17h165l132 622l-13 17l1 6h-171l-51 -238h-316z" />
    <glyph glyph-name="i" unicode="i" horiz-adv-x="276" 
d="M55 0l127 596h144l-127 -596h-144zM55 -33h170l132 622l-13 17l1 6h-176l-133 -628h6z" />
    <glyph glyph-name="FL006Ah" unicode="j" horiz-adv-x="722" 
d="M42 -16h-6l32 153h332q114 0 135 98l80 378h176l-1 -6l13 -17l-65 -310q-16 -74 -41 -132t-62 -98t-87.5 -61.5t-117.5 -21.5h-375zM417 0q63 0 111 20.5t83 59t59 94t39 126.5l63 297h-144l-77 -362q-24 -114 -154 -114h-316l-26 -121h362z" />
    <glyph glyph-name="FL006Bh" unicode="k" horiz-adv-x="756" 
d="M275 358h172l233 239h151l-284 -300l156 -297h-150l-135 234h-169l-50 -234h-144l127 596h144zM345 612h-176l-133 -628h6l13 -17h170l50 234h141l127 -217h4l13 -17h181l-162 310l295 313l-14 18l5 5h-189l-234 -239h-131l46 215l-13 17z" />
    <glyph glyph-name="FL006Ch" unicode="l" horiz-adv-x="722" 
d="M283 0q-63 0 -102 20.5t-58 59t-19 93.5q0 56 15 127l63 297h144l-77 -362q-24 -114 106 -114h316l-26 -121h-362zM278 215l79 375l-13 17l1 6h-176l-66 -313q-21 -99 -13.5 -169t52.5 -108q47 -56 154 -56h375l31 147l-13 17l1 6h-332q-57 0 -81 25q-7 20 1 53z" />
    <glyph glyph-name="FL006Dh" unicode="m" horiz-adv-x="987" 
d="M41 -16h-6l133 628h653q50 0 88 -20.5t62 -63.5q2 -2 2.5 -4.5t2.5 -4.5q2 -3 4 -6.5t5 -6.5q49 -78 27 -175l-77 -364h-165l-13 17h-6l73 347q6 26 6.5 51t-12.5 44q-15 9 -37.5 14t-54.5 5h-67q7 -28 5 -56.5t-8 -57.5l-77 -364h-165l-13 17h-6l73 347q7 30 9 56.5
t-11 45.5q-20 11 -58 11h-83l-101 -477h-170zM984 351q9 45 3 87t-30 80q-22 40 -57.5 59t-81.5 19h-637l-127 -596h144l101 477h96q42 0 63.5 -12t29.5 -32t5 -46.5t-9 -55.5l-70 -331h139l75 351q7 33 7.5 65t-10.5 62h88q55 0 84 -12.5t40.5 -33.5t10 -47.5t-7.5 -53.5
l-70 -331h139z" />
    <glyph glyph-name="n" unicode="n" horiz-adv-x="760" 
d="M544 0l70 331q6 29 6 55q0 27 -11 47t-36 32t-69 12h-204l-101 -477h-144l127 596h410q46 0 81.5 -19t57.5 -59q24 -38 30 -80t-3 -87l-75 -351h-139zM55 -33h170l101 477h191q46 0 73 -16q13 -19 13.5 -44t-5.5 -53l-73 -347h6l13 -17h165l77 364q22 97 -27 175
q-3 3 -5 6.5t-4 6.5q-2 2 -2.5 4.5t-2.5 4.5q-24 43 -62 63.5t-88 20.5h-426l-133 -628h6z" />
    <glyph glyph-name="FL006Fh" unicode="o" horiz-adv-x="780" 
d="M271 213q-6 -29 -1 -46q15 -16 45.5 -24.5t84.5 -8.5t88.5 5t56 17t32.5 32t17 50l28 134q3 14 3 28t-7 25q-17 11 -46.5 16.5t-77.5 5.5q-95 0 -139.5 -25t-53.5 -70zM800 400q8 40 6.5 72.5t-16.5 57.5q-32 31 -95.5 46t-169.5 15q-95 0 -163 -14.5t-113 -41.5
t-70.5 -67t-36.5 -91l-42 -197q-8 -39 -6 -71t18 -58l-8 10q-21 26 -25 61t6 78l41 197q11 51 36.5 91t70.5 67t113 41.5t163 14.5q115 0 180 -17.5t94 -53.5l16 -20q20 -26 23 -60.5t-6 -79.5l-42 -197q-12 -54 -37 -94.5t-70.5 -67.5t-114.5 -40.5t-167 -13.5
q-108 0 -171.5 18.5t-92.5 53.5q-35 28 -42.5 68t3.5 93l41 197q11 52 37 92t71.5 68t114 42.5t164.5 14.5q98 0 160.5 -13t96 -39.5t41 -67t-4.5 -94.5l-42 -197q-12 -55 -37.5 -96t-71 -68.5t-115 -41t-168.5 -13.5q-94 0 -154.5 14t-93.5 41q-1 0 -1 2l-8 10
q31 -32 92.5 -48t164.5 -16q98 0 167 13.5t114.5 40.5t70.5 67.5t37 94.5zM481 480q59 0 92.5 -8.5t49.5 -23t18 -34.5t-3 -42l-28 -134q-8 -34 -20 -57t-35 -37t-61 -20t-97 -6q-52 0 -85 8t-50 23t-21 36.5t2 47.5l29 139q10 50 58.5 79t150.5 29zM787 400q11 50 3.5 87.5
t-39.5 62t-91.5 36.5t-153.5 12q-92 0 -156.5 -13.5t-108 -39t-68 -63t-34.5 -85.5l-41 -197q-10 -47 -2.5 -84.5t38.5 -63t89 -39t149 -13.5q94 0 160.5 12.5t110 38t67.5 63.5t35 89z" />
    <glyph glyph-name="FL0070h" unicode="p" horiz-adv-x="761" 
d="M452 224q37 0 63.5 7.5t46 23t32.5 39t23 55.5q3 24 0.5 47t-15 41t-36.5 29t-62 11h-204l-53 -253h205zM55 0l127 596h410q46 0 82 -20t58 -60q24 -38 29.5 -79t-3.5 -86l-2 -1h2q-9 -45 -32.5 -87t-64.5 -80q-38 -40 -82.5 -59t-90.5 -19h-267l-22 -105h-144zM55 -33
h170l22 105h254q49 0 95.5 20.5t88.5 62.5q82 78 105 188l-2 1q15 88 -29 160q-3 6 -6.5 11.5t-6.5 10.5q-23 43 -62 64.5t-89 21.5h-426l-133 -628h6zM455 240h-172l43 204h191q44 0 70 -18q11 -16 13.5 -36.5t0.5 -41.5q-9 -28 -21 -48t-29 -33.5t-40.5 -20t-55.5 -6.5z
" />
    <glyph glyph-name="FL0071h" unicode="q" horiz-adv-x="780" 
d="M537 236l30 -60q11 12 16.5 27t10.5 35l28 134q3 14 3 28t-7 25q-17 11 -46.5 16.5t-77.5 5.5q-95 0 -139.5 -25t-53.5 -70l-30 -139q-6 -29 -1 -46q15 -16 45.5 -24.5t84.5 -8.5h8l-64 125h179l8 -16zM800 400q8 40 6.5 72.5t-16.5 57.5q-32 31 -95.5 46t-169.5 15
q-95 0 -163 -14.5t-113 -41.5t-70.5 -67t-36.5 -91l-42 -197q-8 -39 -6 -71t18 -58l-8 10q-21 26 -25 61t6 78l41 197q11 51 36.5 91t70.5 67t113 41.5t163 14.5q115 0 180 -17.5t94 -53.5l13 -18h-1v1l4 -3q20 -26 23 -60.5t-6 -79.5l-42 -197q-12 -57 -40 -98.5t-79 -69.5
l58 -107h-175l-13 17h-4l-27 47q-25 -2 -52 -3.5t-57 -1.5q-108 0 -171.5 18.5t-92.5 53.5q-35 28 -42.5 68t3.5 93l41 197q11 52 37 92t71.5 68t114 42.5t164.5 14.5q98 0 160.5 -13t96 -39.5t41 -67t-4.5 -94.5l-42 -197q-12 -56 -39.5 -98t-78.5 -71l60 -109h-178l-2 3
l-25 44h-4l-9 17q-27 -2 -56 -3.5t-60 -1.5q-94 0 -154.5 14t-93.5 41q-1 0 -1 2l-8 10q31 -32 92.5 -48t164.5 -16q33 0 62.5 1.5t54.5 3.5l-2 6l10 -5l15 -20q-2 0 -3.5 -0.5t-3.5 -0.5l25 -44h171l-46 85q-3 -2 -6 -2.5t-5 -2.5l-16 20l8 20l9 -12q50 28 77 69t39 98z
M436 119q-5 -1 -10 -1h-9h-20q-52 0 -85 8t-50 23t-21 36.5t2 47.5l29 139q10 50 58.5 79t150.5 29q59 0 92.5 -8.5t49.5 -23t18 -34.5t-3 -42l-28 -134q-8 -32 -18 -53.5t-29 -35.5l-50 94h-140zM787 400q11 50 3.5 87.5t-39.5 62t-91.5 36.5t-153.5 12q-92 0 -156.5 -13.5
t-108 -39t-68 -63t-34.5 -85.5l-41 -197q-10 -47 -2.5 -84.5t38.5 -63t89 -39t149 -13.5q69 0 123 6l36 -65h143l-52 99q54 25 82.5 65.5t40.5 97.5z" />
    <glyph glyph-name="FL0072h" unicode="r" horiz-adv-x="761" 
d="M452 224q37 0 63 7.5t44.5 22.5t30.5 38t22 55q3 24 1 47.5t-13 42t-34 29.5t-62 11h-204l-53 -253h205zM55 0l127 596h410q46 0 81.5 -19t57.5 -59q24 -38 30 -80t-3 -87l-2 -1h2q-9 -45 -32 -87t-64 -81q-21 -20 -42 -34.5t-44 -24.5l67 -123h-156l-56 105h-210
l-22 -105h-144zM55 -33h170l22 105h182l48 -88h4l13 -17h188l-71 131q36 19 75 56q42 41 67.5 88t36.5 101l-2 1q15 89 -29 162q-2 4 -4.5 7.5t-5.5 7.5q-2 2 -2 3q0 2 -2 4q-24 43 -62 63.5t-88 20.5h-426l-133 -628h6zM455 240h-172l43 204h191q21 0 37 -4t27 -11
q13 -17 15 -38t0 -44q-9 -28 -20 -48t-27 -33t-39 -19.5t-55 -6.5z" />
    <glyph glyph-name="FL0053h" unicode="s" 
d="M93 225h-6l16 75q15 73 45 131t74.5 98t103 61.5t132.5 21.5h246l-1 -6l13 -17l-32 -150h-208q-48 0 -85.5 -14t-63.5 -48h477l-1 -6l13 -17l-16 -78q-31 -145 -119 -227t-233 -82h-392l-13 17h-6l33 156h360q45 0 83 15t64 53h-471zM658 472l27 124h-230
q-139 0 -223 -78.5t-113 -217.5l-13 -59h506q-26 -66 -74.5 -91.5t-111.5 -25.5h-344l-26 -124h379q139 0 223 78.5t113 217.5l14 65h-506q26 64 73.5 87.5t110.5 23.5h195z" />
    <glyph glyph-name="t" unicode="t" horiz-adv-x="716" 
d="M515 477l-101 -477h-140l101 477h-219l26 119h584l-26 -119h-225zM156 444h196l-97 -460h6l13 -17h166l101 477h225l31 145l-13 17l1 6h-616l-32 -151h6z" />
    <glyph glyph-name="u" unicode="u" horiz-adv-x="780" 
d="M849 612l-1 -6l13 -17l-86 -406q-12 -54 -37 -94.5t-70.5 -67.5t-114.5 -40.5t-167 -13.5q-109 0 -172 19t-92 54q-35 28 -43 68.5t3 94.5l87 409h171l-1 -6l13 -17l-80 -376q-6 -29 -1 -46q15 -16 45.5 -24.5t84.5 -8.5t88.5 5t55.5 17t32 32t17 50l79 374h176zM686 596
l-76 -358q-8 -34 -19.5 -57t-35 -37t-61 -20t-96.5 -6q-52 0 -85 8t-50 23t-21 36.5t2 47.5l77 363h-139l-84 -393q-10 -48 -2.5 -85.5t38.5 -64t89 -40t150 -13.5q94 0 160.5 12.5t110 38t67.5 63.5t35 89l84 393h-144z" />
    <glyph glyph-name="FL0076h" unicode="v" horiz-adv-x="743" 
d="M463 0h-208l-99 598h151l77 -477l282 477h151zM845 614h-186l-259 -435l-65 412l-12 15l-1 8h-186l105 -630h5l13 -17h226l370 624l-14 17z" />
    <glyph glyph-name="FL0077h" unicode="w" horiz-adv-x="990" 
d="M386 -33q-109 0 -172 19t-92 54q-35 28 -43 68.5t3 94.5l87 409h171l-1 -6l13 -17l-80 -376q-6 -27 1 -47q15 -15 45.5 -23.5t82.5 -8.5h21l102 477h178l-1 -6l13 -17l-97 -454h4q48 0 81 7.5t54.5 20.5t33 31t16.5 40l80 379h171l-1 -6l13 -17l-86 -406
q-11 -51 -35.5 -91t-68.5 -68t-111 -42.5t-162 -14.5h-220zM435 118h-37q-52 0 -85 8.5t-50 23.5t-21 36t2 47l77 363h-139l-84 -393q-10 -48 -2.5 -85.5t38.5 -64t89 -40t150 -13.5h220q91 0 155.5 13.5t106.5 40t65.5 64t33.5 85.5l84 393h-139l-77 -363q-6 -26 -19 -47
t-36.5 -36t-60 -23.5t-88.5 -8.5h-37l101 477h-146z" />
    <glyph glyph-name="FL0078h" unicode="x" horiz-adv-x="673" 
d="M308 597l104 -198l185 199h151l-283 -301l156 -297h-150l-103 195l-185 -195h-150l282 297l-158 300h151zM128 613l167 -316l-296 -313h9l13 -17h181l171 180l88 -163h4l13 -17h181l-162 309l296 315l-15 18l6 5h-191l-175 -187l-86 163l-6 7l-8 16h-190z" />
    <glyph glyph-name="FL0079h" unicode="y" 
d="M853 612l-1 -6l13 -17l-65 -313q-31 -145 -119 -227t-233 -82h-247l-13 17h-6l33 156h215q45 0 82.5 14t63.5 51h-240q-59 2 -97 15.5t-60 39.5q-42 32 -47.5 90.5t12.5 143.5l25 119h178l-1 -6l13 -17l-35 -165q-2 -9 -2 -17t2 -15q15 -14 41 -15h259l50 234h179z
M687 596l-50 -234h-276q-42 4 -57.5 25.5t-7.5 57.5l32 152h-146l-22 -103q-13 -62 -13 -109q0 -46 18 -78.5t56.5 -49.5t101.5 -19h289q-26 -66 -74.5 -90t-111.5 -24h-199l-26 -124h234q139 0 223 78.5t113 217.5l63 300h-147z" />
    <glyph glyph-name="FL007Ah" unicode="z" horiz-adv-x="716" 
d="M270 119h394l-25 -119h-584l25 119l469 358h-393l26 119h584l-26 -119zM156 444h325l-415 -318l-30 -142h6l13 -17h610l31 145l-14 17l2 6h-331l415 316l29 138l-13 17l1 6h-616l-32 -151h6z" />
    <glyph glyph-name="FL007Bh" unicode="{" horiz-adv-x="450" 
d="M283 0q-63 0 -102 20.5t-58 59t-19 93.5q0 56 15 127q29 139 99 217.5t182 78.5h100l-26 -119h-44q-38 0 -65 -9t-45 -25t-28.5 -38t-16.5 -47l-26 -123q-24 -114 106 -114h44l-26 -121h-90zM278 215l26 123q5 23 14.5 42.5t26 33.5t40.5 22t58 8h57l31 145l-13 17l1 6
h-116q-60 0 -108.5 -21.5t-86 -61.5t-64 -98t-41.5 -131q-21 -99 -13.5 -169t52.5 -108q47 -56 154 -56h103l31 147l-13 17l1 6h-60q-57 0 -81 25q-7 20 1 53z" />
    <glyph glyph-name="FL007Ch" unicode="|" horiz-adv-x="276" 
d="M29 -123l179 842h143l-179 -842h-143zM29 -156h169l184 868l-13 17l1 6h-175l-186 -874h6z" />
    <glyph glyph-name="FL007Dh" unicode="}" horiz-adv-x="450" 
d="M143 461h-6l32 151h116q62 0 101.5 -22.5t59.5 -65.5q27 -39 32 -101t-12 -143q-16 -74 -41 -132t-62 -98t-87.5 -61.5t-117.5 -21.5h-103l-13 17h-6l32 153h60q114 0 135 98l26 123q5 20 4 38t-9 32q-12 8 -29.5 12t-41.5 4h-57zM145 0q63 0 111 20.5t83 59t59 94
t39 126.5q15 69 13.5 124t-20.5 93.5t-55.5 58.5t-92.5 20h-100l-26 -119h44q38 0 61 -9t35 -25t13.5 -38t-4.5 -47l-26 -123q-24 -114 -154 -114h-44l-26 -121h90z" />
    <glyph glyph-name="FL007Eh" unicode="~" horiz-adv-x="495" 
d="M312 382l38 -93l74 92h100l-140 -170h-97l-39 93l-73 -92h-100l140 170h97zM210 398l-167 -202h9l13 -17h130l55 71l24 -55h5l14 -17h111l161 196l-14 17l5 6h-138l-60 -73l-20 51l-8 9l-5 14h-115z" />
    <glyph glyph-name="FL007Fh" horiz-adv-x="202" 
 />
    <glyph glyph-name="FL00A1h" unicode="&#xa1;" horiz-adv-x="283" 
d="M318 530q-6 -26 -31.5 -44.5t-57.5 -18.5t-50 18.5t-12 44.5q5 26 31 44.5t58 18.5t49.5 -18.5t12.5 -44.5zM147 422h146l-90 -423h-146zM37 -17h6l14 -17h172l95 449l-13 17l1 6h-41q28 8 49 27t26 45q6 29 -10 50l-5 5q-6 20 -25 32t-47 12q-39 0 -70 -23t-38 -56
q-5 -21 2.5 -38.5t24.5 -28.5l2 -2q6 -8 14.5 -14t19.5 -9h-80z" />
    <glyph glyph-name="FL00A2h" unicode="&#xa2;" horiz-adv-x="723" 
d="M261 288q-24 -114 106 -114l54 254h-1q-69 0 -105 -29t-46 -74zM330 0l11 53h-46q-57 0 -97 14t-62 44.5t-26 79.5t11 120l1 3q10 51 32.5 93.5t56 73.5t78 48.5t100.5 17.5h57l11 49h144l-11 -49h171l-25 -119h-171l-54 -254h172l-26 -121h-172l-11 -53h-144zM591 395
h171l31 145l-14 17l2 6h-154l5 26l-13 17l1 6h-176l-10 -49h-41q-60 0 -108 -18.5t-84 -51.5t-59.5 -79t-35.5 -100l-1 -3q-20 -93 -9 -150.5t52 -87.5q24 -28 63.5 -40.5t96.5 -12.5h10l-7 -36h6l13 -17h170l11 53h172l31 147l-13 17l1 6h-155zM298 305q7 32 30.5 56
t68.5 31l-42 -201q-47 5 -66 26q-5 19 1 51z" />
    <glyph glyph-name="FL00A3h" unicode="&#xa3;" horiz-adv-x="760" 
d="M353 138h375l-1 -6l13 -17l-31 -148h-562l-13 17h-6l45 214h-69l-13 17h-6l33 156h95q38 115 107.5 178t174.5 63h159l-1 -6l13 -17l-30 -144h-100q-54 0 -85 -20t-45 -51h197l-1 -6l14 -17l-33 -153h-217zM196 231l-49 -231h536l26 122h-392l23 109h217l27 127h-217
q5 25 16 47t29.5 38t45.5 25.5t65 9.5h87l25 118h-143q-102 0 -167.5 -63t-100.5 -178h-94l-26 -124h92z" />
    <glyph glyph-name="FL00A4h" unicode="&#xa4;" horiz-adv-x="673" 
d="M474 318q5 22 -4.5 36t-42.5 14h-46q-34 0 -48.5 -14t-19.5 -36l-12 -53q-10 -49 45 -49h49q57 0 67 49zM560 229q-7 -35 -28 -62l89 -167h-150l-61 115h-118l-109 -115h-150l162 171q-2 11 -2 25q0 15 4 33l26 123q4 19 10.5 35.5t17.5 30.5l-94 179h151l66 -126h104
l119 127h151l-164 -174q12 -29 2 -72zM326 597l-8 16h-189l103 -196q-11 -17 -16.5 -32.5t-8.5 -32.5l-26 -123q-8 -32 -3 -57l-179 -188h9l13 -17h181l109 115h96l54 -98h4l13 -17h182l-98 181q9 14 16 29t10 32l27 123q4 19 4 36q0 18 -5 34l179 189l-15 18l6 5h-191
l-120 -127h-86l-55 103zM458 318l-12 -53q-6 -33 -48 -33h-49q-12 0 -21 3q0 2 2 10l11 53q4 16 15.5 26.5t37.5 10.5h46q8 0 18 -2q1 -8 0 -15z" />
    <glyph glyph-name="FL00A5h" unicode="&#xa5;" horiz-adv-x="673" 
d="M158 190h8l-1 2h-6l33 156h76l-140 265h190l8 -16l6 -7l86 -163l175 187h191l-6 -5l15 -18l-229 -243h38l-1 -6l13 -17l-32 -150h-8l6 -8l-31 -150h-114l-11 -50h-170l-13 17h-6l7 33h-97l-14 17h-6zM298 208l-7 -34h-120l-26 -124h120l-11 -50h144l11 50h114l26 124
h-114l7 34h114l27 124h-84l249 266h-151l-185 -199l-104 198h-151l140 -265h-92l-27 -124h120z" />
    <glyph glyph-name="FLE004h" unicode="&#xa6;" horiz-adv-x="780" 
d="M280 246h315l24 112q5 23 5 40t-8 29q-17 10 -48 14t-80 4q-48 0 -81 -7t-55 -20t-34 -31.5t-16 -40.5zM42 -16h-6l87 409q11 52 35.5 92.5t69 68.5t112 43t163.5 15q134 0 204 -24.5t92 -75.5q20 -26 23.5 -60.5t-6.5 -78.5l-86 -406h-171l-13 17h-6l19 89h-315
l-23 -106h-166zM273 366q5 25 18 46t37 35.5t60 22.5t87 8q59 0 94 -6t52 -20t19 -37t-5 -57l-27 -128h-364zM788 393q10 51 2 89t-41 63.5t-94 38t-155 12.5q-92 0 -156 -13.5t-106 -40t-65.5 -64t-33.5 -85.5l-84 -393h140l23 106h364l-23 -106h145z" />
    <glyph glyph-name="FL00B0h" unicode="&#xa7;" 
d="M92 222h-6l17 78q15 73 45 131t74.5 98t103 61.5t132.5 21.5h246l-1 -6l13 -17l-32 -150h-208q-48 0 -85.5 -14t-63.5 -48h477l-1 -6l13 -17l-16 -78q-31 -145 -119 -227t-233 -82h-245l-13 17h-6l33 156h213q45 0 82.5 14t63.5 51h-470zM658 472l27 124h-230
q-139 0 -223 -78.5t-113 -217.5l-13 -62h506q-26 -66 -74.5 -90t-111.5 -24h-197l-26 -124h232q139 0 223 78.5t113 217.5l14 65h-506q26 64 73.5 87.5t110.5 23.5h195z" />
    <glyph glyph-name="FL00A8h" unicode="&#xa8;" horiz-adv-x="484" 
d="M168 532q6 26 31 44.5t57 18.5t50.5 -18.5t12.5 -44.5q-5 -26 -31 -44.5t-58 -18.5t-49.5 18.5t-12.5 44.5zM369 532q6 26 31 44.5t57 18.5t50.5 -18.5t12.5 -44.5q-5 -26 -31 -44.5t-58 -18.5t-49.5 18.5t-12.5 44.5zM152 532q-9 -44 26 -66l3 -4q21 -26 62 -26
q38 0 68 22t37 54q3 14 0 26.5t-11 22.5l-3 4q-6 20 -25.5 33t-48.5 13q-39 0 -70 -23t-38 -56zM353 532q-9 -44 26 -66l3 -4q21 -26 62 -26q38 0 68 22t37 54q3 14 0 26.5t-11 22.5l-2 2l-1 1q1 0 1 -1v0l-1 2q-6 20 -25.5 33t-48.5 13q-39 0 -70 -23t-38 -56z" />
    <glyph glyph-name="FL00A9h" unicode="&#xa9;" horiz-adv-x="455" 
d="M273 376q-31 0 -40 18.5t-1 51.5q7 32 23.5 50.5t43.5 18.5h90l-5 -28h-76q-19 0 -27.5 -8t-10.5 -20l-6 -28q-6 -27 26 -27h76l-6 -28h-87zM332 542q-57 0 -82 -15.5t-31 -42.5l-16 -74q-6 -29 11 -45.5t73 -16.5q31 0 51.5 3t33.5 10.5t19.5 20t10.5 30.5l15 72
q3 12 2 22.5t-10 18.5t-27 12.5t-50 4.5zM463 398q-6 -26 -18 -44.5t-34 -31.5t-55 -19t-80 -6q-45 0 -74 7t-44.5 19.5t-19.5 31t1 42.5l21 98q10 48 51 74.5t133 26.5q47 0 76.5 -6t45.5 -18.5t19.5 -31t-1.5 -43.5zM152 303q15 -19 47.5 -29t89.5 -10q51 0 86.5 7
t59.5 21t37 35.5t19 50.5l21 99q5 24 3.5 42.5t-12.5 32.5l-4 5q-10 28 -45 41.5t-107 13.5q-51 0 -86.5 -8t-59.5 -23t-37.5 -36.5t-19.5 -49.5l-21 -98q-6 -31 -1 -54t28 -38zM298 439q3 15 23 15h74l-9 -42l-2 2l1 6h-91z" />
    <glyph glyph-name="FLE003h" unicode="&#xaa;" horiz-adv-x="760" 
d="M449 444q-54 0 -86 -20t-49 -50h288l15 70h-168zM42 -16h-6l78 367q10 47 37.5 93.5t66.5 84t87 60.5t98 23h426l-1 -6l13 -17l-132 -622h-170l-13 17h-6l46 218h-296l-50 -235h-165zM640 477l-25 -119h-344q7 24 19.5 46t32 38t47.5 25.5t66 9.5h204zM244 235h345
l-50 -235h144l127 596h-410q-47 0 -91.5 -21.5t-81 -56.5t-62.5 -79t-35 -88l-75 -351h139z" />
    <glyph glyph-name="FL00ABh" unicode="&#xab;" horiz-adv-x="555" 
d="M552 351l-117 -55l93 -56l-21 -100l-164 104l20 97l209 107zM315 351l-117 -55l93 -56l-21 -100l-164 104l20 97l209 107zM357 475l-245 -125l-24 -115l9 -7l10 -11l187 -119l27 129l-13 17l1 5l-55 32l88 42l27 127l-14 17zM594 475l-245 -125l-24 -115l9 -7l10 -11
l187 -119l27 129l-13 17l1 5l-55 32l88 42l27 127l-14 17z" />
    <glyph glyph-name="FL00ADh" unicode="&#xac;" horiz-adv-x="580" 
d="M579 358l-60 -285h-123l34 162h-325l26 123h448zM118 374l-32 -155h6l13 -17h302l-31 -145h6l14 -17h149l66 311l-14 17l1 6h-480z" />
    <glyph glyph-name="FL00AEh" unicode="&#xad;" horiz-adv-x="429" 
d="M131 358h297l-26 -124h-297zM85 218h6l14 -17h323l32 150l-14 17l1 6h-329z" />
    <glyph glyph-name="FL00B8h" unicode="&#xae;" horiz-adv-x="455" 
d="M232 446q7 32 23.5 50.5t43.5 18.5h90l-5 -28h-76q-19 0 -27.5 -8t-10.5 -20l-17 -77h-35zM332 542q-57 0 -82 -15.5t-31 -42.5l-16 -74q-6 -29 11 -45.5t73 -16.5q31 0 51.5 3t33.5 10.5t19.5 20t10.5 30.5l15 72q3 12 2 22.5t-10 18.5t-27 12.5t-50 4.5zM463 398
q-6 -26 -18 -44.5t-34 -31.5t-55 -19t-80 -6q-45 0 -74 7t-44.5 19.5t-19.5 31t1 42.5l21 98q10 48 51 74.5t133 26.5q47 0 76.5 -6t45.5 -18.5t19.5 -31t-1.5 -43.5zM152 303q15 -19 47.5 -29t89.5 -10q51 0 86.5 7t59.5 21t37 35.5t19 50.5l21 99q5 24 3.5 42.5
t-12.5 32.5l-4 5q-10 28 -45 41.5t-107 13.5q-51 0 -86.5 -8t-59.5 -23t-37.5 -36.5t-19.5 -49.5l-21 -98q-6 -31 -1 -54t28 -38zM298 439q3 15 23 15h74l-9 -42q-3 -14 -8.5 -23t-16 -14.5t-27.5 -8t-44 -2.5h-8z" />
    <glyph glyph-name="FL00AFh" unicode="&#xaf;" horiz-adv-x="528" 
d="M616 660l-26 -123h-446l26 123h446zM158 676l-33 -155h6l13 -17h472l32 149l-14 17l2 6h-478z" />
    <glyph glyph-name="FL0040h" unicode="&#xb0;" horiz-adv-x="722" 
d="M544 596q63 0 102 -20.5t58 -59t19 -94.5t-15 -126l-63 -297h-144l77 362q24 114 -106 114h-316l26 121h362zM169 612l-32 -153h6l13 -17h329q44 0 70 -15q16 -25 7 -66l-81 -378h6l14 -17h170l66 310q17 85 14 148.5t-33 103.5q-20 41 -61.5 62.5t-109.5 21.5h-378z" />
    <glyph glyph-name="FL00B1h" unicode="&#xb1;" horiz-adv-x="578" 
d="M502 0h-446l26 123h446zM444 498l-20 -95h163l-26 -123h-161l-20 -93h-125l20 93h-160l26 123h162l18 95h123zM308 514l-19 -95h-161l-33 -155h6l14 -17h137l-17 -76h6l14 -17h151l20 93h161l31 149l-13 17l1 6h-146l15 72l-13 17l1 6h-155zM548 139h-478l-33 -155h6
l13 -17h472l32 149l-14 17z" />
    <glyph glyph-name="FL00B2h" unicode="&#xb2;" horiz-adv-x="458" 
d="M155 518h-6l20 94h206q90 0 113 -60l2 -1q32 -41 15 -123l-10 -46h-253l-1 -6h236l-1 -6l13 -17l-19 -88h-352l-13 17h-6l45 211h245l-1 1q0 1 -1 2q-7 3 -15.5 4t-18.5 1h-185zM205 360l11 55h253l7 33q15 69 -10 108.5t-94 39.5h-190l-13 -62h172q32 0 51 -12t17 -45
h-253l-38 -179h326l14 62h-253z" />
    <glyph glyph-name="FL00B3h" unicode="&#xb3;" horiz-adv-x="427" 
d="M156 520h-6l19 92h202q35 0 56 -13t32 -37l3 -3q16 -20 18.5 -53.5t-6.5 -77.5q-17 -78 -54 -120.5t-108 -42.5h-194l-13 17h-6l19 92h174q21 0 33 8h-182l-13 17h-6l20 94h220q-1 2 -1.5 4t-1.5 4q-5 1 -10 1.5t-11 0.5h-171zM299 298q63 0 97 39t49 111
q15 69 -2.5 108.5t-74.5 39.5h-186l-13 -60h158q38 0 48 -16.5t4 -42.5h-223l-13 -62h223q-12 -57 -77 -57h-158l-13 -60h181z" />
    <glyph glyph-name="FL00B4h" unicode="&#xb4;" horiz-adv-x="308" 
d="M221 573q10 11 27.5 25t34.5 14q26 0 47 -21q10 -10 18.5 -19t10.5 -20l1 -1q0 1 -1 1v0q1 0 1 -1l3 -2q14 -16 10 -37q-3 -12 -8 -22t-14 -19l-83 -75q-23 -24 -52 -24q-27 0 -45 19q-2 0 -2 2l-4 5q-1 -1 0 -1t1 -1v2q-8 5 -13 11q-12 14 -15.5 26.5t0.5 32.5
q6 24 21 42zM172 503q-14 -17 -18 -35q-3 -15 0 -25.5t12 -21.5q15 -16 37 -16q24 0 41 20l83 75q12 12 17 32q3 15 -6 25.5t-21 21.5q-17 17 -37 17q-11 0 -26 -12t-23 -21z" />
    <glyph glyph-name="FL00B5h" unicode="&#xb5;" 
d="M169 612h179l-1 -6l13 -17l-45 -211h238q66 13 87 69l35 166h178l-1 -6l13 -17l-16 -77q-15 -73 -41 -130.5t-65 -97t-92 -60.5t-122 -21v1h-248q0 -8 1 -15t4 -13q15 -20 42.5 -28.5t63.5 -8.5h215l-2 -6l14 -17l-32 -150h-247q-66 0 -112 17t-75 49q-47 39 -59.5 105.5
t7.5 157.5zM117 296q-29 -139 21 -217.5t189 -78.5h234l26 124h-199q-32 0 -57.5 5.5t-43.5 18.5t-27 35t-8 55h278l-1 -1q62 0 109.5 20t83 58t59.5 93t39 125l14 64h-146l-32 -152q-26 -68 -101 -83h-276l50 234h-147z" />
    <glyph glyph-name="FL00B6h" unicode="&#xb6;" horiz-adv-x="761" 
d="M321 0h-133l26 123q-35 20 -60 59q-24 39 -29.5 81t3.5 87h2v1q9 45 32.5 87t64.5 80q38 40 82.5 59t90.5 19h410l-127 -596h-144l102 478h-218zM195 108l-26 -124h6l13 -17h159l102 478h169l-98 -461h6l13 -17h170l132 622l-13 17l1 6h-426q-50 0 -97 -20.5t-89 -63.5
q-76 -73 -100 -162h-1q-12 -56 -7 -104t31 -90q15 -25 34 -43q5 -6 10 -11t11 -10z" />
    <glyph glyph-name="FL00B7h" unicode="&#xb7;" horiz-adv-x="283" 
d="M118 295q5 26 30.5 44.5t57.5 18.5t50 -18.5t13 -44.5q-6 -26 -32 -44.5t-58 -18.5t-49.5 18.5t-11.5 44.5zM102 295q-9 -44 26 -66l3 -4q19 -26 61 -26q38 0 68.5 22t36.5 54q6 28 -10 49l-3 4q-7 20 -26.5 33t-48.5 13q-39 0 -69.5 -23t-37.5 -56z" />
    <glyph glyph-name="FL00ACh" unicode="&#xb8;" 
d="M340 -33q-66 0 -112 17t-75 49q-47 39 -59.5 105.5t7.5 157.5l17 81h499q-3 14 -8.5 25.5t-12.5 19.5q-17 9 -38 13t-46 4h-358l-13 17h-6l33 156h396q84 0 136.5 -27.5t76.5 -78.5q53 -81 23 -226l-16 -75h-503q0 -8 1 -15t4 -13q15 -20 42.5 -28.5t63.5 -8.5h361l-2 -6
l14 -17l-32 -150h-393zM499 472q63 0 100 -23.5t38 -87.5h-506l-14 -65q-29 -139 21 -217.5t189 -78.5h380l26 124h-345q-32 0 -57.5 5.5t-43.5 18.5t-27 35t-8 55h506l13 62q29 139 -21 217.5t-189 78.5h-380l-27 -124h345z" />
    <glyph glyph-name="FL00B9h" unicode="&#xb9;" horiz-adv-x="239" 
d="M288 595l-63 -298h-72l51 239h-35l12 59h107zM169 611l-19 -91h6l13 -17h12l-47 -222h6l13 -17h98l69 324l-13 17l1 6h-139z" />
    <glyph glyph-name="FL00BAh" unicode="&#xba;" horiz-adv-x="455" 
d="M331 536q-51 0 -75.5 -14.5t-29.5 -39.5l-14 -70q-6 -26 9 -41.5t67 -15.5q30 0 49 3t31 10t18 18.5t9 28.5l14 67q3 11 2 21t-9 17.5t-25 11.5t-46 4zM462 397q-5 -26 -17 -44.5t-34 -31.5t-55 -19t-80 -6q-45 0 -74 7t-44.5 19.5t-19.5 31t1 42.5l21 98
q10 48 50.5 74.5t132.5 26.5q47 0 77 -6t45.5 -18.5t19.5 -31t-2 -43.5zM152 302q15 -19 47.5 -29t89.5 -10q51 0 86.5 7t59.5 21t37 35.5t19 50.5l21 99q11 50 -9 75l-4 5q-10 28 -45 41.5t-107 13.5q-51 0 -86.5 -8t-59.5 -23t-37.5 -36.5t-19.5 -49.5l-21 -98
q-7 -31 -1.5 -54t28.5 -38zM240 392l15 70q5 19 25 30t64 11q17 0 29 -2t20 -5q3 -6 0 -14l-14 -67q-3 -12 -7.5 -20.5t-14 -14t-25.5 -7.5t-40 -2q-39 0 -54 9z" />
    <glyph glyph-name="FL00BBh" unicode="&#xbb;" horiz-adv-x="555" 
d="M377 475l191 -125l-1 -5l14 -17l-24 -111l-237 -119l-14 18l-6 -3l29 136l90 42l-51 32l-11 12l-9 6zM140 475l191 -125l-1 -5l14 -17l-24 -111l-237 -119l-14 18l-6 -3l29 136l90 42l-51 32l-11 12l-9 6zM130 351l93 -55l-117 -56l-21 -100l208 104l20 97l-163 107z
M367 351l93 -55l-117 -56l-21 -100l208 104l20 97l-163 107z" />
    <glyph glyph-name="FL0050h" unicode="&#xbc;" horiz-adv-x="760" 
d="M300 477l-25 -119h344q3 24 0 46t-16 38t-37 25.5t-62 9.5h-204zM199 0h-144l127 596h410q47 0 82 -21.5t56.5 -56.5t28.5 -79t-1 -88l-25 -116h-484zM55 -33h170l50 235h484l27 129q9 50 -0.5 99t-35.5 87q-23 42 -62 68.5t-93 26.5h-426l-133 -628h6zM326 444h191
q44 0 71 -16q8 -11 11.5 -24.5t3.5 -29.5h-292z" />
    <glyph glyph-name="FL00BDh" unicode="&#xbd;" horiz-adv-x="885" 
d="M412 596l-64 -298h-84l51 239h-41l13 59h125zM107 0l636 596h139l-631 -596h-144zM528 0l38 179h253q1 33 -18 45t-51 12h-172l13 62h190q69 0 94 -39.5t11 -108.5l-7 -33h-253l-12 -55h253l-13 -62h-326zM274 612l-19 -91h6l13 -17h18l-47 -222h6l13 -17h105l-299 -281
h9l13 -17h178l294 277l-5 -24h6l13 -17h185q10 0 18.5 -1t15.5 -4q1 -1 1 -3h-245l-44 -211h6l13 -17h352l19 88l-14 17l2 6h-236l1 6h253l10 46q17 82 -15 123l-2 1q-25 60 -113 60h-148l291 275l-14 18l5 5h-180l-363 -341l67 318l-13 17l1 6h-157z" />
    <glyph glyph-name="FL0052h" unicode="&#xbe;" horiz-adv-x="760" 
d="M300 477l-25 -119h344q3 24 0 46t-16 38t-37 25.5t-62 9.5h-204zM541 235l124 -235h-160l-122 235h-134l-50 -235h-144l127 596h410q47 0 82 -21.5t57 -56.5t29 -79t-2 -88l-25 -116h-192zM55 -33h170l50 235h105l115 -218h4l13 -17h192l-125 235h180l27 129
q11 49 1.5 97.5t-35.5 85.5q-23 43 -62.5 70.5t-94.5 27.5h-426l-133 -628h6zM326 444h191q44 0 71 -16q8 -11 11.5 -24.5t3.5 -29.5h-292z" />
    <glyph glyph-name="FL00BFh" unicode="&#xbf;" horiz-adv-x="787" 
d="M822 530q-6 -26 -31.5 -44.5t-57.5 -18.5t-50 18.5t-12 44.5q5 26 31 44.5t58 18.5t49.5 -18.5t12.5 -44.5zM651 422h146l-40 -186h-506q-1 -33 8.5 -55t27.5 -35t43.5 -18.5t57.5 -5.5h345l-26 -124h-380q-139 0 -189.5 78.5t-21.5 217.5l14 65h506zM100 294
q-19 -91 -6.5 -157.5t59.5 -105.5q29 -32 75 -49t112 -17h393l31 150l-13 17l1 6h-361q-36 0 -63.5 8.5t-42.5 28.5q-2 6 -3 13t-2 15h503l45 212l-13 17l1 6h-41q28 8 49 27t26 45q6 29 -10 50l-5 5q-6 20 -25 32t-47 12q-39 0 -70 -23t-38 -56q-5 -21 2.5 -38.5
t24.5 -28.5l2 -2q6 -8 14.5 -14t19.5 -9h-80l-14 -63h-506z" />
    <glyph glyph-name="FL00C0h" unicode="&#xc0;" horiz-adv-x="760" 
d="M436 477q-38 0 -66 -9.5t-47.5 -25.5t-32 -38t-19.5 -46h344l25 119h-204zM55 0l75 351q9 44 35 88t62.5 79t81 56.5t91.5 21.5h410l-127 -596h-144l50 235h-345l-50 -235h-139zM615 779q6 -17 2 -35q-3 -15 -10.5 -25.5t-21.5 -21.5q-11 -9 -21.5 -12.5t-21.5 -3.5
q-24 0 -33 20l-51 75q-7 13 -3 32q3 15 17.5 24.5t29.5 22.5q23 17 44 17q11 0 20.5 -12t14.5 -21zM55 -33h165l50 235h296l-46 -218h6l13 -17h170l132 622l-13 17l1 6h-426q-50 0 -98 -23t-87 -60.5t-66.5 -84t-37.5 -93.5l-78 -367h6zM595 849q-6 11 -17.5 25t-27.5 14
q-26 0 -56 -21q-5 -4 -8.5 -7t-7.5 -6q-14 -9 -25 -19.5t-14 -26.5q-6 -25 5 -43l51 -76q8 -13 18 -18l5 -7q14 -16 37 -16q14 0 26.5 4t26.5 15q17 13 25.5 25.5t12.5 31.5q2 12 2 21q0 10 -5 19l-34 63q-2 3 -4.5 6t-4.5 7zM449 444h168l-15 -70h-288q17 30 49 50t86 20z
" />
    <glyph glyph-name="FL00C1h" unicode="&#xc1;" horiz-adv-x="760" 
d="M436 477q-38 0 -66 -9.5t-47.5 -25.5t-32 -38t-19.5 -46h344l25 119h-204zM55 0l75 351q9 44 35 88t62.5 79t81 56.5t91.5 21.5h410l-127 -596h-144l50 235h-345l-50 -235h-139zM558 838q9 9 23.5 21t25.5 12q21 0 38 -17q9 -13 19.5 -22.5t7.5 -24.5q-5 -20 -17 -32
l-83 -75q-18 -20 -41 -20q-24 0 -37 16q-10 11 -12.5 21.5t0.5 25.5q5 20 17 35zM55 -33h165l50 235h296l-46 -218h6l13 -17h170l132 622l-13 17l1 6h-426q-50 0 -98 -23t-87 -60.5t-66.5 -84t-37.5 -93.5l-78 -367h6zM487 785q-16 -18 -21 -42q-5 -20 -1.5 -32.5
t15.5 -26.5q3 -4 6.5 -6.5t6.5 -4.5l2 -3q1 -1 1.5 -2t2.5 -2q18 -19 45 -19q28 0 52 24l83 75q17 18 21 41q2 11 -0.5 18t-7.5 14l-4 5q-2 9 -7.5 15.5t-12.5 13.5q-3 3 -5.5 6t-5.5 7q-21 21 -46 21q-17 0 -35 -14t-28 -25zM449 444h168l-15 -70h-288q17 30 49 50t86 20z
" />
    <glyph glyph-name="FL00C2h" unicode="&#xc2;" horiz-adv-x="760" 
d="M436 477q-38 0 -66 -9.5t-47.5 -25.5t-32 -38t-19.5 -46h344l25 119h-204zM55 0l75 351q9 44 35 88t62.5 79t81 56.5t91.5 21.5h410l-127 -596h-144l50 235h-345l-50 -235h-139zM597 679l-32 105l-79 -105h-100l144 186h97l67 -186h-97zM55 -33h165l50 235h296l-46 -218
h6l13 -17h170l132 622l-13 17l1 6h-426q-50 0 -98 -23t-87 -60.5t-66.5 -84t-37.5 -93.5l-78 -367h6zM377 646h129l58 78l20 -61h5l13 -17h127l-77 212l-9 11l-4 12h-115l-168 -218h8zM449 444h168l-15 -70h-288q17 30 49 50t86 20z" />
    <glyph glyph-name="FL00C3h" unicode="&#xc3;" horiz-adv-x="760" 
d="M436 477q-38 0 -66 -9.5t-47.5 -25.5t-32 -38t-19.5 -46h344l25 119h-204zM55 0l75 351q9 44 35 88t62.5 79t81 56.5t91.5 21.5h410l-127 -596h-144l50 235h-345l-50 -235h-139zM576 842l39 -89l73 88h100l-139 -162h-97l-40 88l-71 -87h-100l138 162h97zM55 -33h165
l50 235h296l-46 -218h6l13 -17h170l132 622l-13 17l1 6h-426q-50 0 -98 -23t-87 -60.5t-66.5 -84t-37.5 -93.5l-78 -367h6zM473 858l-166 -194h9l14 -17h131l55 68l25 -52h4l13 -17h111l161 188l-14 17l5 6h-139l-59 -71l-22 49l-7 9l-6 14h-115zM449 444h168l-15 -70h-288
q17 30 49 50t86 20z" />
    <glyph glyph-name="FL00C4h" unicode="&#xc4;" horiz-adv-x="760" 
d="M436 477q-38 0 -66 -9.5t-47.5 -25.5t-32 -38t-19.5 -46h344l25 119h-204zM55 0l75 351q9 44 35 88t62.5 79t81 56.5t91.5 21.5h410l-127 -596h-144l50 235h-345l-50 -235h-139zM354 731q6 26 31.5 44.5t57.5 18.5t50 -18.5t12 -44.5q-5 -26 -31 -44.5t-58 -18.5
t-49.5 18.5t-12.5 44.5zM555 731q6 26 31.5 44.5t57.5 18.5t50 -18.5t12 -44.5q-5 -26 -31 -44.5t-58 -18.5t-49.5 18.5t-12.5 44.5zM55 -33h165l50 235h296l-46 -218h6l13 -17h170l132 622l-13 17l1 6h-426q-50 0 -98 -23t-87 -60.5t-66.5 -84t-37.5 -93.5l-78 -367h6z
M338 731q-9 -44 26 -66l3 -4q21 -26 62 -26q38 0 68 22t37 54q6 28 -10 49l-3 2l-1 1q1 0 1 -1v0l-1 2q-6 20 -25.5 33t-48.5 13q-39 0 -69.5 -23t-38.5 -56zM539 731q-9 -44 26 -66l3 -4q21 -26 62 -26q38 0 68 22t37 54q6 28 -10 49l-3 2l-1 1q1 0 1 -1v0l-1 2
q-6 20 -25.5 33t-48.5 13q-39 0 -69.5 -23t-38.5 -56zM449 444h168l-15 -70h-288q17 30 49 50t86 20z" />
    <glyph glyph-name="FL00C5h" unicode="&#xc5;" horiz-adv-x="760" 
d="M436 477q-38 0 -66 -9.5t-47.5 -25.5t-32 -38t-19.5 -46h344l25 119h-204zM55 0l75 351q9 44 35 88t62.5 79t81 56.5t91.5 21.5h410l-127 -596h-144l50 235h-345l-50 -235h-139zM455 730q6 26 31.5 44.5t57.5 18.5t50 -18.5t12 -44.5q-5 -26 -31 -44.5t-58 -18.5
t-49.5 18.5t-12.5 44.5zM55 -33h165l50 235h296l-46 -218h6l13 -17h170l132 622l-13 17l1 6h-426q-50 0 -98 -23t-87 -60.5t-66.5 -84t-37.5 -93.5l-78 -367h6zM439 730q-9 -44 26 -66l3 -4q21 -26 62 -26q38 0 68 22t37 54q6 29 -11 49l-3 4q-6 20 -25.5 33t-48.5 13
q-39 0 -69.5 -23t-38.5 -56zM449 444h168l-15 -70h-288q17 30 49 50t86 20z" />
    <glyph glyph-name="FL00C6h" unicode="&#xc6;" horiz-adv-x="1206" 
d="M436 477q-38 0 -66 -9.5t-47.5 -25.5t-32 -38t-19.5 -46l-29 -136h344l54 255h-204zM55 0l75 351q9 44 35 88t62.5 79t81 56.5t91.5 21.5h856l-26 -119h-316q-38 0 -65 -9t-45 -25t-28.5 -37.5t-16.5 -46.5h360l-26 -124h-360q-24 -114 106 -114h316l-26 -121h-589
l22 105h-346l-22 -105h-139zM759 202h360l32 150l-14 17l2 6h-340q14 31 44 50t84 19h329l31 145l-13 17l1 6h-872q-50 0 -98 -23t-87 -60.5t-66.5 -84t-37.5 -93.5l-78 -367h6l13 -17h165l22 105h297l-18 -88h6l13 -17h615l31 147l-13 17l1 6h-332q-60 0 -82 28
q-4 14 -1 37zM300 338q6 21 17 40.5t28.5 34t43 23t60.5 8.5h168l-43 -206h-295z" />
    <glyph glyph-name="FL00C7h" unicode="&#xc7;" horiz-adv-x="722" 
d="M198 -48h62q24 0 42 1t32 5.5t23.5 14t16.5 27.5h-91q-63 0 -102 20.5t-58 59t-19 93.5q0 56 15 127q29 139 99 217.5t182 78.5h372l-26 -119h-316q-38 0 -65 -9t-45 -25t-28.5 -38t-16.5 -47l-26 -123q-24 -114 106 -114h316l-26 -121h-131q-17 -46 -40.5 -78t-55 -52.5
t-72.5 -29.5t-93 -9h-81zM153 -185h6l13 -17h94q53 0 95.5 9t75.5 29.5t58 52.5t43 78h133l31 147l-13 17l1 6h-332q-57 0 -81 25q-7 20 1 53l26 123q5 23 14.5 42.5t26 33.5t40.5 22t58 8h329l31 145l-13 17l1 6h-388q-60 0 -108.5 -21.5t-86 -61.5t-64 -98t-41.5 -131
q-21 -99 -13.5 -169t52.5 -108q39 -48 127 -55h-6h-78z" />
    <glyph glyph-name="FL00C8h" unicode="&#xc8;" horiz-adv-x="722" 
d="M605 779q6 -17 2 -35q-3 -15 -10.5 -25.5t-21.5 -21.5q-11 -9 -21.5 -12.5t-21.5 -3.5q-24 0 -33 20l-51 75q-7 13 -3 32q3 15 17.5 24.5t29.5 22.5q23 17 44 17q11 0 20.5 -12t14.5 -21zM283 0q-63 0 -102 20.5t-58 59t-19 93.5q0 56 15 127q29 139 99 217.5t182 78.5
h372l-26 -119h-316q-38 0 -65 -9t-45 -25t-28.5 -37t-15.5 -46h445l-27 -125h-445q-24 -114 106 -114h316l-26 -121h-362zM275 202h445l32 151l-13 17l1 6h-425q14 30 44 49t84 19h329l31 145l-13 17l1 6h-388q-60 0 -108.5 -21.5t-86 -61.5t-64 -98t-41.5 -131
q-21 -99 -13.5 -169t52.5 -108q47 -56 154 -56h375l31 147l-13 17l1 6h-332q-60 0 -82 28q-4 14 -1 37zM585 849q-6 11 -17.5 25t-27.5 14q-26 0 -56 -21q-5 -4 -8.5 -7t-7.5 -6q-14 -9 -25 -19.5t-14 -26.5q-6 -25 5 -43l51 -76q8 -13 18 -18l5 -7q14 -16 37 -16
q14 0 26.5 4t26.5 15q17 13 25.5 25.5t12.5 31.5q2 12 2 21q0 10 -5 19l-34 63q-2 3 -4.5 6t-4.5 7z" />
    <glyph glyph-name="FL00C9h" unicode="&#xc9;" horiz-adv-x="722" 
d="M567 840q8 9 23 21t26 12q20 0 37 -17q9 -13 19.5 -22.5t7.5 -24.5q-5 -20 -17 -32l-83 -75q-18 -20 -41 -20q-22 0 -37 16q-9 11 -12 21.5t0 25.5q5 20 18 35zM283 0q-63 0 -102 20.5t-58 59t-19 93.5q0 56 15 127q29 139 99 217.5t182 78.5h372l-26 -119h-316
q-38 0 -65 -9t-45 -24.5t-28.5 -37t-15.5 -45.5h447l-27 -126h-447q-24 -114 106 -114h316l-26 -121h-362zM275 202h447l32 152l-13 17l1 6h-427q14 29 44 48t84 19h329l31 145l-13 17l1 6h-388q-60 0 -108.5 -21.5t-86 -61.5t-64 -98t-41.5 -131q-21 -99 -13.5 -169
t52.5 -108q47 -56 154 -56h375l31 147l-13 17l1 6h-332q-60 0 -82 28q-4 14 -1 37zM495 787q-15 -18 -21 -42q-4 -20 -0.5 -32.5t15.5 -26.5q3 -4 6 -6.5t6 -4.5l3 -3q1 -1 1 -2t2 -2q18 -19 45 -19q29 0 52 24l83 75q9 9 14 19t8 22q2 11 -0.5 18t-7.5 14l-4 5
q-2 9 -7.5 15.5t-12.5 13.5l-6 6t-6 7q-21 21 -46 21q-17 0 -34.5 -14t-27.5 -25z" />
    <glyph glyph-name="FL00CAh" unicode="&#xca;" horiz-adv-x="722" 
d="M580 678l-33 105l-78 -105h-100l144 186h97l67 -186h-97zM283 0q-63 0 -102 20.5t-58 59t-19 93.5q0 56 15 127q29 139 99 217.5t182 78.5h372l-26 -119h-316q-38 0 -65 -9t-45 -25t-28.5 -37t-15.5 -46h446l-27 -125h-446q-24 -114 106 -114h316l-26 -121h-362zM275 202
h446l32 151l-13 17l1 6h-426q14 30 44 49t84 19h329l31 145l-13 17l1 6h-388q-60 0 -108.5 -21.5t-86 -61.5t-64 -98t-41.5 -131q-21 -99 -13.5 -169t52.5 -108q47 -56 154 -56h375l31 147l-13 17l1 6h-332q-60 0 -82 28q-4 14 -1 37zM360 645h129l58 78l20 -61h5l13 -17
h127l-77 212l-10 11l-3 12h-115l-168 -218h8z" />
    <glyph glyph-name="FL00CBh" unicode="&#xcb;" horiz-adv-x="722" 
d="M368 730q6 26 31.5 44.5t57.5 18.5t50 -18.5t12 -44.5q-5 -26 -31 -44.5t-58 -18.5t-49.5 18.5t-12.5 44.5zM569 730q6 26 31.5 44.5t57.5 18.5t50 -18.5t12 -44.5q-5 -26 -31 -44.5t-58 -18.5t-49.5 18.5t-12.5 44.5zM283 0q-63 0 -102 20.5t-58 59t-19 93.5
q0 56 15 127q29 139 99 217.5t182 78.5h372l-26 -119h-316q-38 0 -65 -9t-45 -25t-28.5 -38t-16.5 -47h447l-26 -123h-447q-24 -114 106 -114h316l-26 -121h-362zM275 202h447l32 149l-14 17l1 6h-427q14 31 44.5 50.5t84.5 19.5h329l31 145l-13 17l1 6h-388
q-60 0 -108.5 -21.5t-86 -61.5t-64 -98t-41.5 -131q-21 -99 -13.5 -169t52.5 -108q47 -56 154 -56h375l31 147l-13 17l1 6h-332q-60 0 -82 28q-4 14 -1 37zM553 730q-9 -44 26 -66l3 -4q21 -26 62 -26q38 0 68 22t37 54q6 29 -11 49l-3 4q-6 20 -25.5 33t-48.5 13
q-39 0 -69.5 -23t-38.5 -56zM352 730q-9 -44 26 -66l3 -4q21 -26 62 -26q38 0 68 22t37 54q6 29 -11 49l-3 4q-6 20 -25.5 33t-48.5 13q-39 0 -69.5 -23t-38.5 -56z" />
    <glyph glyph-name="FL00CCh" unicode="&#xcc;" horiz-adv-x="716" 
d="M564 842q7 -8 9 -13l35 -63q7 -18 2 -40q-4 -19 -12.5 -31.5t-25.5 -25.5q-14 -11 -26.5 -15t-26.5 -4q-23 0 -36 16l-6 7q-11 6 -17 18l-52 76q-10 18 -5 43q4 16 14.5 26.5t24.5 19.5q7 5 17 13q30 21 55 21q16 0 28 -14t18 -25zM68 135h225l65 309h-202l-13 17h-6
l32 151h616l-1 -6l13 -17l-31 -145h-219l-65 -309h202l-2 -6l14 -17l-31 -145h-610l-13 17h-6zM546 841q-5 9 -14.5 21t-20.5 12q-22 0 -45 -17q-14 -13 -29 -22.5t-18 -24.5q-4 -19 3 -32l51 -75q11 -20 33 -20q11 0 21.5 3.5t22.5 12.5q14 11 21 21.5t11 25.5
q2 10 1.5 18.5t-4.5 16.5zM55 0h584l25 119h-219l76 358h219l26 119h-584l-26 -119h225l-76 -358h-225z" />
    <glyph glyph-name="FL00CDh" unicode="&#xcd;" horiz-adv-x="716" 
d="M506 841q8 9 23 21t26 12q20 0 37 -17q10 -13 20 -22.5t7 -24.5q-5 -20 -17 -32l-83 -75q-17 -20 -41 -20q-23 0 -36 16q-10 11 -13 21.5t1 25.5q3 18 17 35zM639 0h-584l25 119h219l76 358h-219l26 119h584l-26 -119h-225l-76 -358h225zM684 135h-208l65 309h225l31 145
l-13 17l1 6h-616l-32 -151h6l13 -17h196l-65 -309h-219l-32 -151h6l13 -17h610l31 145l-14 17zM434 788q-16 -18 -20 -42q-5 -20 -1.5 -32.5t15.5 -26.5q5 -6 13 -11l2 -3q1 -1 1 -2t2 -2q18 -19 45 -19q29 0 52 24l83 75q18 18 22 41q2 11 -0.5 18t-7.5 14l-4 5
q-2 9 -7.5 15.5t-12.5 13.5q-3 3 -5.5 6t-5.5 7q-21 21 -47 21q-17 0 -34.5 -14t-27.5 -25z" />
    <glyph glyph-name="FL00EEh" unicode="&#xce;" horiz-adv-x="716" 
d="M547 681l-33 105l-78 -105h-100l143 186h97l68 -186h-97zM639 0h-584l25 119h219l76 358h-219l26 119h584l-26 -119h-225l-76 -358h225zM684 135h-208l65 309h225l31 145l-13 17l1 6h-616l-32 -151h6l13 -17h196l-65 -309h-219l-32 -151h6l13 -17h610l31 145l-14 17z
M327 648h129l57 78l20 -61h5l14 -17h127l-77 212l-10 11l-3 12h-115l-169 -218h8z" />
    <glyph glyph-name="FL00CFh" unicode="&#xcf;" horiz-adv-x="716" 
d="M325 732q5 26 30.5 44.5t57.5 18.5t50 -18.5t13 -44.5q-6 -26 -32 -44.5t-58 -18.5t-49.5 18.5t-11.5 44.5zM526 732q5 26 30.5 44.5t57.5 18.5t50 -18.5t13 -44.5q-6 -26 -32 -44.5t-58 -18.5t-49.5 18.5t-11.5 44.5zM639 0h-584l25 119h219l76 358h-219l26 119h584
l-26 -119h-225l-76 -358h225zM684 135h-208l65 309h225l31 145l-13 17l1 6h-616l-32 -151h6l13 -17h196l-65 -309h-219l-32 -151h6l13 -17h610l31 145l-14 17zM309 732q-9 -44 26 -66l3 -4q19 -26 61 -26q38 0 68 22t37 54q6 28 -10 49l-3 4q-7 20 -26.5 33t-48.5 13
q-39 0 -69.5 -23t-37.5 -56zM510 732q-9 -44 26 -66l3 -4q19 -26 61 -26q38 0 68 22t37 54q6 28 -10 49l-3 4q-7 20 -26.5 33t-48.5 13q-39 0 -69.5 -23t-37.5 -56z" />
    <glyph glyph-name="FL00AAh" unicode="&#xd0;" horiz-adv-x="761" 
d="M276 226q-6 -33 3 -60q11 -14 32 -22.5t53 -8.5h188l43 204h-169q-67 0 -100 -27.5t-50 -85.5zM194 423q42 43 89 63.5t97 20.5h251l22 105h176l-1 -6l13 -17l-132 -622h-423q-83 0 -131 56q-11 10 -20 21.5t-16 25.5q-23 37 -30.5 76t-0.5 84h-1q12 57 37.5 104.5
t69.5 88.5zM618 372l-54 -253h-204q-38 0 -61.5 11t-36 29t-15 41t0.5 47q10 32 23 55.5t32.5 39t46 23t63.5 7.5h205zM643 491h-267q-46 0 -90 -19t-82 -59q-41 -38 -64.5 -80t-33.5 -87h2l-1 -1q-10 -45 -4 -86t30 -79q22 -40 58 -60t82 -20h410l127 596h-144z" />
    <glyph glyph-name="FL00D1h" unicode="&#xd1;" horiz-adv-x="780" 
d="M560 841l39 -89l73 88h100l-139 -162h-97l-40 88l-72 -87h-100l139 162h97zM564 0l70 331q6 29 6 55q0 27 -11 47t-36 32t-69 12h-224l-101 -477h-144l127 596h430q46 0 81.5 -19t57.5 -59q24 -38 30 -80t-3 -87l-75 -351h-139zM55 -33h170l101 477h211q46 0 73 -16
q13 -19 13.5 -44t-5.5 -53l-73 -347h6l13 -17h165l77 364q22 97 -27 175q-3 3 -5 6.5t-4 6.5q-2 2 -2.5 4.5t-2.5 4.5q-24 43 -62 63.5t-88 20.5h-446l-133 -628h6zM457 857l-166 -194h9l13 -17h131l56 68l25 -52h4l13 -17h111l161 188l-14 17l5 6h-139l-59 -71l-22 49l-7 9
l-6 14h-115z" />
    <glyph glyph-name="FL00D2h" unicode="&#xd2;" horiz-adv-x="779" 
d="M475 478q-51 0 -87.5 -8t-60.5 -22t-37.5 -34.5t-18.5 -45.5l-28 -135q-6 -26 -2 -47.5t21 -36.5t50 -23t85 -8q59 0 97 6t61 20t35 37t20 57l25 120q7 34 5 57t-19 37t-52 20t-94 6zM745 203q-11 -51 -35 -89t-67.5 -63.5t-110 -38t-160.5 -12.5q-91 0 -149 13.5t-89 39
t-38.5 63t2.5 84.5l41 193q10 48 33.5 85.5t65.5 64t106 40t156 13.5q94 0 154 -12.5t93 -37.5t41 -62.5t-2 -87.5zM615 779q6 -17 2 -35q-3 -15 -10.5 -25.5t-21.5 -21.5q-11 -9 -21.5 -12.5t-21.5 -3.5q-24 0 -33 20l-51 75q-7 13 -3 32q3 15 17.5 24.5t29.5 22.5
q23 17 44 17q11 0 20.5 -12t14.5 -21zM385 -33q98 0 167 13.5t114.5 40.5t70.5 67.5t37 94.5l41 193q9 43 5.5 77t-23.5 60q-22 49 -91.5 74t-202.5 25q-96 0 -163.5 -15t-112 -43t-69 -68.5t-35.5 -92.5l-41 -193q-11 -53 -3.5 -93t42.5 -68q29 -35 92.5 -53.5t171.5 -18.5
zM271 213l29 135q5 22 17 40t34.5 30.5t56 19.5t80.5 7q49 0 80 -4t48 -14q8 -12 8 -29t-5 -40l-25 -120q-6 -30 -17 -50t-32.5 -32t-56 -17t-88.5 -5t-84.5 8.5t-45.5 24.5q-5 17 1 46zM595 849q-6 11 -17.5 25t-27.5 14q-26 0 -56 -21q-5 -4 -8.5 -7t-7.5 -6
q-14 -9 -25 -19.5t-14 -26.5q-6 -25 5 -43l51 -76q8 -13 18 -18l5 -7q14 -16 37 -16q14 0 26.5 4t26.5 15q17 13 25.5 25.5t12.5 31.5q2 12 2 21q0 10 -5 19l-34 63q-2 3 -4.5 6t-4.5 7z" />
    <glyph glyph-name="FL00D3h" unicode="&#xd3;" horiz-adv-x="779" 
d="M475 478q-51 0 -87.5 -8t-60.5 -22t-37.5 -34.5t-18.5 -45.5l-28 -135q-6 -26 -2 -47.5t21 -36.5t50 -23t85 -8q59 0 97 6t61 20t35 37t20 57l25 120q7 34 5 57t-19 37t-52 20t-94 6zM745 203q-11 -51 -35 -89t-67.5 -63.5t-110 -38t-160.5 -12.5q-91 0 -149 13.5t-89 39
t-38.5 63t2.5 84.5l41 193q10 48 33.5 85.5t65.5 64t106 40t156 13.5q94 0 154 -12.5t93 -37.5t41 -62.5t-2 -87.5zM533 839q9 9 23.5 21t25.5 12q21 0 38 -17q9 -13 19.5 -22.5t7.5 -24.5q-5 -20 -17 -32l-83 -75q-18 -20 -41 -20q-22 0 -37 16q-10 11 -12.5 21.5t0.5 25.5
q5 20 18 35zM385 -33q98 0 167 13.5t114.5 40.5t70.5 67.5t37 94.5l41 193q9 43 5.5 77t-23.5 60q-22 49 -91.5 74t-202.5 25q-96 0 -163.5 -15t-112 -43t-69 -68.5t-35.5 -92.5l-41 -193q-11 -53 -3.5 -93t42.5 -68q29 -35 92.5 -53.5t171.5 -18.5zM271 213l29 135
q5 22 17 40t34.5 30.5t56 19.5t80.5 7q49 0 80 -4t48 -14q8 -12 8 -29t-5 -40l-25 -120q-6 -30 -17 -50t-32.5 -32t-56 -17t-88.5 -5t-84.5 8.5t-45.5 24.5q-5 17 1 46zM462 786q-9 -10 -13.5 -20t-7.5 -22q-4 -20 -1 -32.5t16 -26.5q3 -4 6 -6.5t6 -4.5l3 -3q0 -3 3 -4
q18 -19 45 -19q28 0 52 24l83 75q17 18 21 41q2 11 -0.5 18t-7.5 14l-4 5q-2 9 -7 15.5t-12 13.5q-4 3 -6.5 6t-5.5 7q-21 21 -46 21q-17 0 -35 -14t-28 -25z" />
    <glyph glyph-name="FL00D4h" unicode="&#xd4;" horiz-adv-x="779" 
d="M475 478q-51 0 -87.5 -8t-60.5 -22t-37.5 -34.5t-18.5 -45.5l-28 -135q-6 -26 -2 -47.5t21 -36.5t50 -23t85 -8q59 0 97 6t61 20t35 37t20 57l25 120q7 34 5 57t-19 37t-52 20t-94 6zM745 203q-11 -51 -35 -89t-67.5 -63.5t-110 -38t-160.5 -12.5q-91 0 -149 13.5t-89 39
t-38.5 63t2.5 84.5l41 193q10 48 33.5 85.5t65.5 64t106 40t156 13.5q94 0 154 -12.5t93 -37.5t41 -62.5t-2 -87.5zM578 681l-33 105l-78 -105h-100l143 186h97l68 -186h-97zM385 -33q98 0 167 13.5t114.5 40.5t70.5 67.5t37 94.5l41 193q9 43 5.5 77t-23.5 60
q-22 49 -91.5 74t-202.5 25q-96 0 -163.5 -15t-112 -43t-69 -68.5t-35.5 -92.5l-41 -193q-11 -53 -3.5 -93t42.5 -68q29 -35 92.5 -53.5t171.5 -18.5zM271 213l29 135q5 22 17 40t34.5 30.5t56 19.5t80.5 7q49 0 80 -4t48 -14q8 -12 8 -29t-5 -40l-25 -120q-6 -30 -17 -50
t-32.5 -32t-56 -17t-88.5 -5t-84.5 8.5t-45.5 24.5q-5 17 1 46zM358 648h129l57 78l20 -61h5l14 -17h127l-77 212l-10 11l-3 12h-115l-169 -218h8z" />
    <glyph glyph-name="FL00D5h" unicode="&#xd5;" horiz-adv-x="779" 
d="M475 478q-51 0 -87.5 -8t-60.5 -22t-37.5 -34.5t-18.5 -45.5l-28 -135q-6 -26 -2 -47.5t21 -36.5t50 -23t85 -8q59 0 97 6t61 20t35 37t20 57l25 120q7 34 5 57t-19 37t-52 20t-94 6zM745 203q-11 -51 -35 -89t-67.5 -63.5t-110 -38t-160.5 -12.5q-91 0 -149 13.5t-89 39
t-38.5 63t2.5 84.5l41 193q10 48 33.5 85.5t65.5 64t106 40t156 13.5q94 0 154 -12.5t93 -37.5t41 -62.5t-2 -87.5zM559 843l39 -89l73 88h100l-138 -162h-97l-41 88l-71 -87h-100l138 162h97zM385 -33q98 0 167 13.5t114.5 40.5t70.5 67.5t37 94.5l41 193q9 43 5.5 77
t-23.5 60q-22 49 -91.5 74t-202.5 25q-96 0 -163.5 -15t-112 -43t-69 -68.5t-35.5 -92.5l-41 -193q-11 -53 -3.5 -93t42.5 -68q29 -35 92.5 -53.5t171.5 -18.5zM271 213l29 135q5 22 17 40t34.5 30.5t56 19.5t80.5 7q49 0 80 -4t48 -14q8 -12 8 -29t-5 -40l-25 -120
q-6 -30 -17 -50t-32.5 -32t-56 -17t-88.5 -5t-84.5 8.5t-45.5 24.5q-5 17 1 46zM457 859l-167 -194h9l14 -17h131l55 68l25 -52h4l14 -17h111l160 188l-14 17l5 6h-139l-59 -71l-21 49l-7 9l-6 14h-115z" />
    <glyph glyph-name="FL00D6h" unicode="&#xd6;" horiz-adv-x="779" 
d="M475 478q-51 0 -87.5 -8t-60.5 -22t-37.5 -34.5t-18.5 -45.5l-28 -135q-6 -26 -2 -47.5t21 -36.5t50 -23t85 -8q59 0 97 6t61 20t35 37t20 57l25 120q7 34 5 57t-19 37t-52 20t-94 6zM745 203q-11 -51 -35 -89t-67.5 -63.5t-110 -38t-160.5 -12.5q-91 0 -149 13.5t-89 39
t-38.5 63t2.5 84.5l41 193q10 48 33.5 85.5t65.5 64t106 40t156 13.5q94 0 154 -12.5t93 -37.5t41 -62.5t-2 -87.5zM354 731q6 26 31.5 44.5t57.5 18.5t50 -18.5t12 -44.5q-5 -26 -31 -44.5t-58 -18.5t-49.5 18.5t-12.5 44.5zM555 731q6 26 31.5 44.5t57.5 18.5t50 -18.5
t12 -44.5q-5 -26 -31 -44.5t-58 -18.5t-49.5 18.5t-12.5 44.5zM385 -33q98 0 167 13.5t114.5 40.5t70.5 67.5t37 94.5l41 193q9 43 5.5 77t-23.5 60q-22 49 -91.5 74t-202.5 25q-96 0 -163.5 -15t-112 -43t-69 -68.5t-35.5 -92.5l-41 -193q-11 -53 -3.5 -93t42.5 -68
q29 -35 92.5 -53.5t171.5 -18.5zM271 213l29 135q5 22 17 40t34.5 30.5t56 19.5t80.5 7q49 0 80 -4t48 -14q8 -12 8 -29t-5 -40l-25 -120q-6 -30 -17 -50t-32.5 -32t-56 -17t-88.5 -5t-84.5 8.5t-45.5 24.5q-5 17 1 46zM539 731q-9 -44 26 -66l3 -4q21 -26 62 -26
q38 0 68 22t37 54q6 28 -10 49l-4 4q-6 20 -25.5 33t-48.5 13q-39 0 -69.5 -23t-38.5 -56zM338 731q-9 -44 26 -66l3 -4q21 -26 62 -26q38 0 68 22t37 54q6 28 -10 49l-4 4q-6 20 -25.5 33t-48.5 13q-39 0 -69.5 -23t-38.5 -56z" />
    <glyph glyph-name="FL00D7h" unicode="&#xd7;" horiz-adv-x="525" 
d="M249 499l77 -149l140 149h113l-212 -225l117 -223h-113l-77 146l-139 -146h-112l211 223l-118 225h113zM108 515l126 -241l-226 -239h9l14 -17h143l125 131l61 -114h4l14 -17h144l-123 235l225 239l-15 18l5 5h-153l-129 -137l-58 114l-7 8l-8 15h-151z" />
    <glyph glyph-name="FL00D8h" unicode="&#xd8;" horiz-adv-x="779" 
d="M634 358q8 35 1.5 62t-33.5 42l-180 -341h32q130 0 154 114zM249 235q-17 -81 39 -104l183 346h-41q-38 0 -65 -9t-45 -25t-28.5 -38t-16.5 -47zM283 0q-63 0 -102 20.5t-58 59t-19 93.5q0 56 15 127q29 139 99 217.5t182 78.5h211q56 0 92.5 -20t55.5 -58.5t20.5 -93.5
t-13.5 -124q-15 -71 -39 -126.5t-59 -94t-83 -59t-111 -20.5h-191zM296 -33h191q67 0 117.5 21.5t87.5 61.5t62 98t41 132q17 81 12 143t-32 101q-20 43 -59.5 65.5t-101.5 22.5h-211q-60 0 -108.5 -21.5t-86 -61.5t-64 -98t-41.5 -131q-21 -99 -13.5 -169t52.5 -108
q47 -56 154 -56zM304 338q4 22 13.5 41t25 33.5t38.5 22.5t55 9l-152 -289q-4 2 -8 8q-2 11 -2 24t4 28zM618 358l-26 -123q-20 -93 -122 -98l147 278q9 -24 1 -57z" />
    <glyph glyph-name="FL00D9h" unicode="&#xd9;" horiz-adv-x="780" 
d="M615 779q6 -17 2 -35q-3 -15 -10.5 -25.5t-21.5 -21.5q-11 -9 -21.5 -12.5t-21.5 -3.5q-24 0 -33 20l-51 75q-7 13 -3 32q3 15 17.5 24.5t29.5 22.5q23 17 44 17q11 0 20.5 -12t14.5 -21zM744 191q-11 -51 -35.5 -89t-68 -63.5t-110 -38t-160.5 -12.5q-92 0 -150 13.5
t-89 40t-38.5 64t3.5 85.5l86 405h139l-80 -375q-6 -26 -2 -47.5t21.5 -36.5t50.5 -23t85 -8q59 0 96.5 6t60.5 20t35 37t19 57l79 370h144zM270 201l82 388l-13 17l1 6h-171l-89 -421q-11 -54 -3.5 -94.5t42.5 -68.5q29 -35 92 -54t172 -19q98 0 167 13.5t114.5 40.5
t71 67.5t36.5 94.5l89 418l-13 17l1 6h-176l-82 -386q-6 -30 -17 -50t-32 -32t-55 -17t-88 -5t-85 8.5t-45 24.5q-5 17 1 46zM595 849q-6 11 -17.5 25t-27.5 14q-26 0 -56 -21q-5 -4 -8.5 -7t-7.5 -6q-14 -9 -25 -19.5t-14 -26.5q-6 -25 5 -43l51 -76q8 -13 18 -18l5 -7
q14 -16 37 -16q14 0 26.5 4t26.5 15q17 13 25.5 25.5t12.5 31.5q2 12 2 21q0 10 -5 19l-34 63q-2 3 -4.5 6t-4.5 7z" />
    <glyph glyph-name="FL00DAh" unicode="&#xda;" horiz-adv-x="780" 
d="M533 839q9 9 23.5 21t25.5 12q21 0 38 -17q9 -13 19.5 -22.5t7.5 -24.5q-5 -20 -17 -32l-83 -75q-18 -20 -41 -20q-22 0 -37 16q-10 11 -12.5 21.5t0.5 25.5q5 20 18 35zM744 191q-11 -51 -35.5 -89t-68 -63.5t-110 -38t-160.5 -12.5q-92 0 -150 13.5t-89 40t-38.5 64
t3.5 85.5l86 405h139l-80 -375q-6 -26 -2 -47.5t21.5 -36.5t50.5 -23t85 -8q59 0 96.5 6t60.5 20t35 37t19 57l79 370h144zM270 201l82 388l-13 17l1 6h-171l-89 -421q-11 -54 -3.5 -94.5t42.5 -68.5q29 -35 92 -54t172 -19q98 0 167 13.5t114.5 40.5t71 67.5t36.5 94.5
l89 418l-13 17l1 6h-176l-82 -386q-6 -30 -17 -50t-32 -32t-55 -17t-88 -5t-85 8.5t-45 24.5q-5 17 1 46zM462 786q-9 -10 -13.5 -20t-7.5 -22q-4 -20 -1 -32.5t16 -26.5q3 -4 6 -6.5t6 -4.5l3 -3q0 -3 3 -4q18 -19 45 -19q28 0 52 24l83 75q17 18 21 41q2 11 -0.5 18
t-7.5 14l-4 5q-2 9 -7 15.5t-12 13.5q-4 3 -6.5 6t-5.5 7q-21 21 -46 21q-17 0 -35 -14t-28 -25z" />
    <glyph glyph-name="FL00DBh" unicode="&#xdb;" horiz-adv-x="780" 
d="M578 681l-33 105l-78 -105h-100l143 186h97l68 -186h-97zM744 191q-11 -51 -35.5 -89t-68 -63.5t-110 -38t-160.5 -12.5q-92 0 -150 13.5t-89 40t-38.5 64t3.5 85.5l86 405h139l-80 -375q-6 -26 -2 -47.5t21.5 -36.5t50.5 -23t85 -8q59 0 96.5 6t60.5 20t35 37t19 57
l79 370h144zM270 201l82 388l-13 17l1 6h-171l-89 -421q-11 -54 -3.5 -94.5t42.5 -68.5q29 -35 92 -54t172 -19q98 0 167 13.5t114.5 40.5t71 67.5t36.5 94.5l89 418l-13 17l1 6h-176l-82 -386q-6 -30 -17 -50t-32 -32t-55 -17t-88 -5t-85 8.5t-45 24.5q-5 17 1 46zM358 648
h129l57 78l20 -61h5l14 -17h127l-77 212l-10 11l-3 12h-115l-169 -218h8z" />
    <glyph glyph-name="FL00DCh" unicode="&#xdc;" horiz-adv-x="780" 
d="M354 731q6 26 31.5 44.5t57.5 18.5t50 -18.5t12 -44.5q-5 -26 -31 -44.5t-58 -18.5t-49.5 18.5t-12.5 44.5zM555 731q6 26 31.5 44.5t57.5 18.5t50 -18.5t12 -44.5q-5 -26 -31 -44.5t-58 -18.5t-49.5 18.5t-12.5 44.5zM744 191q-11 -51 -35.5 -89t-68 -63.5t-110 -38
t-160.5 -12.5q-92 0 -150 13.5t-89 40t-38.5 64t3.5 85.5l86 405h139l-80 -375q-6 -26 -2 -47.5t21.5 -36.5t50.5 -23t85 -8q59 0 96.5 6t60.5 20t35 37t19 57l79 370h144zM270 201l82 388l-13 17l1 6h-171l-89 -421q-11 -54 -3.5 -94.5t42.5 -68.5q29 -35 92 -54t172 -19
q98 0 167 13.5t114.5 40.5t71 67.5t36.5 94.5l89 418l-13 17l1 6h-176l-82 -386q-6 -30 -17 -50t-32 -32t-55 -17t-88 -5t-85 8.5t-45 24.5q-5 17 1 46zM338 731q-9 -44 26 -66l3 -4q21 -26 62 -26q38 0 68 22t37 54q6 28 -10 49l-4 4q-6 20 -25.5 33t-48.5 13
q-39 0 -69.5 -23t-38.5 -56zM539 731q-9 -44 26 -66l3 -4q21 -26 62 -26q38 0 68 22t37 54q6 28 -10 49l-3 2l-1 1q1 0 1 -1v0l-1 2q-6 20 -25.5 33t-48.5 13q-39 0 -69.5 -23t-38.5 -56z" />
    <glyph glyph-name="FL00DDh" unicode="&#xdd;" 
d="M555 839q9 9 23.5 21t25.5 12q21 0 38 -17q9 -13 19.5 -22.5t7.5 -24.5q-5 -20 -17 -32l-83 -75q-18 -20 -41 -20q-22 0 -37 16q-10 11 -12.5 21.5t0.5 25.5q5 20 18 35zM771 296q-29 -139 -113 -217.5t-223 -78.5h-234l26 124h199q63 0 111.5 24t74.5 90h-278l-1 -1
q-62 0 -101 20t-58 58t-20 93t14 125l14 64h146l-32 -152q-5 -68 65 -83h276l50 234h147zM853 612h-179l-50 -234h-255q-29 6 -42 21q-2 6 -3 13t1 15l34 163l-13 17l1 6h-178l-17 -80q-20 -94 -11.5 -162t52.5 -106q25 -30 65.5 -45.5t100.5 -15.5l1 1h216
q-26 -37 -63.5 -51t-82.5 -14h-215l-33 -156h6l13 -17h247q145 0 233 82t119 227l65 313l-13 17zM484 786q-9 -10 -13.5 -20t-7.5 -22q-4 -20 -1 -32.5t16 -26.5q3 -4 6 -6.5t6 -4.5l3 -3q0 -3 3 -4q18 -19 45 -19q28 0 52 24l83 75q17 18 21 41q2 11 -0.5 18t-7.5 14l-4 5
q-2 9 -7 15.5t-12 13.5q-4 3 -6.5 6t-5.5 7q-21 21 -46 21q-17 0 -35 -14t-28 -25z" />
    <glyph glyph-name="FL00DEh" unicode="&#xde;" horiz-adv-x="760" 
d="M276 363l-25 -119h344q3 24 0 46t-16 38t-37 25.5t-62 9.5h-204zM225 121l-26 -121h-144l127 596h144l-25 -114h266q47 0 82 -21.5t57 -56.5t29 -79t-2 -88l-24 -116h-484zM357 589l-13 17l1 6h-176l-133 -628h6l13 -17h170l26 121h484l27 129q11 49 1.5 97.5t-35.5 85.5
q-23 43 -62.5 70.5t-94.5 27.5h-233zM302 330h191q44 0 71 -16q8 -11 11.5 -24.5t3.5 -29.5h-292z" />
    <glyph glyph-name="FL00DFh" unicode="&#xdf;" horiz-adv-x="722" 
d="M29 -123l153 719h372q56 0 92.5 -20t55.5 -58.5t20.5 -93.5t-13.5 -124q-15 -71 -39 -126.5t-59 -94t-83 -59t-111 -20.5h-128l26 121h82q130 0 154 114h-212l26 123h212q6 25 4.5 47t-13.5 38t-35 25t-61 9h-173l-127 -600h-143zM339 202h183q-33 -65 -122 -65h-98
l-32 -153h6l13 -17h141q67 0 117.5 21.5t87.5 61.5t62 98t41 132q17 81 12 143t-32 101q-20 43 -59.5 65.5t-101.5 22.5h-388l-160 -751h6l14 -17h169l127 600h160q23 0 39.5 -4t28.5 -11q8 -11 10 -25t0 -30h-211l-32 -155h6z" />
    <glyph glyph-name="FL00E0h" unicode="&#xe0;" horiz-adv-x="760" 
d="M615 779q6 -17 2 -35q-3 -15 -10.5 -25.5t-21.5 -21.5q-11 -9 -21.5 -12.5t-21.5 -3.5q-24 0 -33 20l-51 75q-7 13 -3 32q3 15 17.5 24.5t29.5 22.5q23 17 44 17q11 0 20.5 -12t14.5 -21zM436 477q-38 0 -66 -9.5t-47.5 -25.5t-32 -38t-19.5 -46l-29 -136h344l54 255
h-204zM55 0l75 351q9 44 35 88t62.5 79t81 56.5t91.5 21.5h410l-127 -596h-143l22 105h-346l-22 -105h-139zM55 -33h165l22 105h297l-18 -88h6l13 -17h169l132 622l-13 17l1 6h-426q-50 0 -98 -23t-87 -60.5t-66.5 -84t-37.5 -93.5l-78 -367h6zM300 338q6 21 17 40.5
t28.5 34t43 23t60.5 8.5h168l-43 -206h-295zM595 849q-6 11 -17.5 25t-27.5 14q-26 0 -56 -21q-5 -4 -8.5 -7t-7.5 -6q-14 -9 -25 -19.5t-14 -26.5q-6 -25 5 -43l51 -76q8 -13 18 -18l5 -7q14 -16 37 -16q14 0 26.5 4t26.5 15q17 13 25.5 25.5t12.5 31.5q2 12 2 21
q0 10 -5 19l-34 63q-2 3 -4.5 6t-4.5 7z" />
    <glyph glyph-name="FL00E1h" unicode="&#xe1;" horiz-adv-x="760" 
d="M558 838q9 9 23.5 21t25.5 12q21 0 38 -17q9 -13 19.5 -22.5t7.5 -24.5q-5 -20 -17 -32l-83 -75q-18 -20 -41 -20q-24 0 -37 16q-10 11 -12.5 21.5t0.5 25.5q5 20 17 35zM436 477q-38 0 -66 -9.5t-47.5 -25.5t-32 -38t-19.5 -46l-29 -136h344l54 255h-204zM55 0l75 351
q9 44 35 88t62.5 79t81 56.5t91.5 21.5h410l-127 -596h-143l22 105h-346l-22 -105h-139zM55 -33h165l22 105h297l-18 -88h6l13 -17h169l132 622l-13 17l1 6h-426q-50 0 -98 -23t-87 -60.5t-66.5 -84t-37.5 -93.5l-78 -367h6zM449 444h168l-43 -206h-295l21 99q6 22 17 41.5
t28.5 34t43 23t60.5 8.5zM487 785q-16 -18 -21 -42q-5 -20 -1.5 -32.5t15.5 -26.5q3 -4 6.5 -6.5t6.5 -4.5l2 -3q1 -1 1.5 -2t2.5 -2q18 -19 45 -19q28 0 52 24l83 75q17 18 21 41q2 11 -0.5 18t-7.5 14l-4 5q-2 9 -7.5 15.5t-12.5 13.5q-3 3 -5.5 6t-5.5 7q-21 21 -46 21
q-17 0 -35 -14t-28 -25z" />
    <glyph glyph-name="FL00E2h" unicode="&#xe2;" horiz-adv-x="760" 
d="M597 679l-32 105l-79 -105h-100l144 186h97l67 -186h-97zM436 477q-38 0 -66 -9.5t-47.5 -25.5t-32 -38t-19.5 -46l-29 -136h344l54 255h-204zM55 0l75 351q9 44 35 88t62.5 79t81 56.5t91.5 21.5h410l-127 -596h-143l22 105h-346l-22 -105h-139zM55 -33h165l22 105h297
l-18 -88h6l13 -17h169l132 622l-13 17l1 6h-426q-50 0 -98 -23t-87 -60.5t-66.5 -84t-37.5 -93.5l-78 -367h6zM449 444h168l-43 -206h-295l21 99q6 22 17 41.5t28.5 34t43 23t60.5 8.5zM377 646h129l58 78l20 -61h5l13 -17h127l-77 212l-9 11l-4 12h-115l-168 -218h8z" />
    <glyph glyph-name="FL00E3h" unicode="&#xe3;" horiz-adv-x="760" 
d="M576 842l39 -89l73 88h100l-139 -162h-97l-40 88l-71 -87h-100l138 162h97zM436 477q-38 0 -66 -9.5t-47.5 -25.5t-32 -38t-19.5 -46l-29 -136h344l54 255h-204zM55 0l75 351q9 44 35 88t62.5 79t81 56.5t91.5 21.5h410l-127 -596h-143l22 105h-346l-22 -105h-139z
M55 -33h165l22 105h297l-18 -88h6l13 -17h169l132 622l-13 17l1 6h-426q-50 0 -98 -23t-87 -60.5t-66.5 -84t-37.5 -93.5l-78 -367h6zM473 858l-166 -194h9l14 -17h131l55 68l25 -52h4l13 -17h111l161 188l-14 17l5 6h-139l-59 -71l-22 49l-7 9l-6 14h-115zM449 444h168
l-43 -206h-295l21 99q6 22 17 41.5t28.5 34t43 23t60.5 8.5z" />
    <glyph glyph-name="FL00E4h" unicode="&#xe4;" horiz-adv-x="760" 
d="M354 731q6 26 31.5 44.5t57.5 18.5t50 -18.5t12 -44.5q-5 -26 -31 -44.5t-58 -18.5t-49.5 18.5t-12.5 44.5zM555 731q6 26 31.5 44.5t57.5 18.5t50 -18.5t12 -44.5q-5 -26 -31 -44.5t-58 -18.5t-49.5 18.5t-12.5 44.5zM436 477q-38 0 -66 -9.5t-47.5 -25.5t-32 -38
t-19.5 -46l-29 -136h344l54 255h-204zM55 0l75 351q9 44 35 88t62.5 79t81 56.5t91.5 21.5h410l-127 -596h-143l22 105h-346l-22 -105h-139zM55 -33h165l22 105h297l-18 -88h6l13 -17h169l132 622l-13 17l1 6h-426q-50 0 -98 -23t-87 -60.5t-66.5 -84t-37.5 -93.5l-78 -367
h6zM300 338q6 21 17 40.5t28.5 34t43 23t60.5 8.5h168l-43 -206h-295zM539 731q-9 -44 26 -66l3 -4q21 -26 62 -26q38 0 68 22t37 54q6 28 -10 49l-4 4q-6 20 -25.5 33t-48.5 13q-39 0 -69.5 -23t-38.5 -56zM338 731q-9 -44 26 -66l3 -4q21 -26 62 -26q38 0 68 22t37 54
q6 28 -10 49l-4 4q-6 20 -25.5 33t-48.5 13q-39 0 -69.5 -23t-38.5 -56z" />
    <glyph glyph-name="FL00E5h" unicode="&#xe5;" horiz-adv-x="760" 
d="M455 730q6 26 31.5 44.5t57.5 18.5t50 -18.5t12 -44.5q-5 -26 -31 -44.5t-58 -18.5t-49.5 18.5t-12.5 44.5zM436 477q-38 0 -66 -9.5t-47.5 -25.5t-32 -38t-19.5 -46l-29 -136h344l54 255h-204zM55 0l75 351q9 44 35 88t62.5 79t81 56.5t91.5 21.5h410l-127 -596h-143
l22 105h-346l-22 -105h-139zM55 -33h165l22 105h297l-18 -88h6l13 -17h169l132 622l-13 17l1 6h-426q-50 0 -98 -23t-87 -60.5t-66.5 -84t-37.5 -93.5l-78 -367h6zM449 444h168l-43 -206h-295l21 99q6 22 17 41.5t28.5 34t43 23t60.5 8.5zM439 730q-9 -44 26 -66l3 -4
q21 -26 62 -26q38 0 68 22t37 54q6 29 -11 49l-3 4q-6 20 -25.5 33t-48.5 13q-39 0 -69.5 -23t-38.5 -56z" />
    <glyph glyph-name="FL00E6h" unicode="&#xe6;" horiz-adv-x="1206" 
d="M436 477q-38 0 -66 -9.5t-47.5 -25.5t-32 -38t-19.5 -46l-29 -136h344l54 255h-204zM55 0l75 351q9 44 35 88t62.5 79t81 56.5t91.5 21.5h856l-26 -119h-316q-38 0 -65 -9t-45 -25t-28.5 -37.5t-16.5 -46.5h360l-26 -124h-360q-24 -114 106 -114h316l-26 -121h-589
l22 105h-346l-22 -105h-139zM759 202h360l32 150l-14 17l2 6h-340q14 31 44 50t84 19h329l31 145l-13 17l1 6h-872q-50 0 -98 -23t-87 -60.5t-66.5 -84t-37.5 -93.5l-78 -367h6l13 -17h165l22 105h297l-18 -88h6l13 -17h615l31 147l-13 17l1 6h-332q-60 0 -82 28
q-4 14 -1 37zM300 338q6 21 17 40.5t28.5 34t43 23t60.5 8.5h168l-43 -206h-295z" />
    <glyph glyph-name="FL00E7h" unicode="&#xe7;" horiz-adv-x="722" 
d="M198 -48h62q24 0 42 1t32 5.5t23.5 14t16.5 27.5h-91q-63 0 -102 20.5t-58 59t-19 93.5q0 56 15 127q29 139 99 217.5t182 78.5h372l-26 -119h-316q-38 0 -65 -9t-45 -25t-28.5 -38t-16.5 -47l-26 -123q-24 -114 106 -114h316l-26 -121h-131q-17 -46 -40.5 -78t-55 -52.5
t-72.5 -29.5t-93 -9h-81zM153 -185h6l13 -17h94q53 0 95.5 9t75.5 29.5t58 52.5t43 78h133l31 147l-13 17l1 6h-332q-57 0 -81 25q-7 20 1 53l26 123q5 23 14.5 42.5t26 33.5t40.5 22t58 8h329l31 145l-13 17l1 6h-388q-60 0 -108.5 -21.5t-86 -61.5t-64 -98t-41.5 -131
q-21 -99 -13.5 -169t52.5 -108q39 -48 127 -55h-6h-78z" />
    <glyph glyph-name="FL00E8h" unicode="&#xe8;" horiz-adv-x="722" 
d="M605 779q6 -17 2 -35q-3 -15 -10.5 -25.5t-21.5 -21.5q-11 -9 -21.5 -12.5t-21.5 -3.5q-24 0 -33 20l-51 75q-7 13 -3 32q3 15 17.5 24.5t29.5 22.5q23 17 44 17q11 0 20.5 -12t14.5 -21zM283 0q-63 0 -102 20.5t-58 59t-19 93.5q0 56 15 127q29 139 99 217.5t182 78.5
h372l-26 -119h-316q-38 0 -65 -9t-45 -25t-28.5 -37.5t-16.5 -46.5h360l-26 -124h-360q-24 -114 106 -114h316l-26 -121h-362zM275 202h360l32 150l-14 17l2 6h-340q14 31 44 50t84 19h329l31 145l-13 17l1 6h-388q-60 0 -108.5 -21.5t-86 -61.5t-64 -98t-41.5 -131
q-21 -99 -13.5 -169t52.5 -108q47 -56 154 -56h375l31 147l-13 17l1 6h-332q-60 0 -82 28q-4 14 -1 37zM585 849q-6 11 -17.5 25t-27.5 14q-26 0 -56 -21q-5 -4 -8.5 -7t-7.5 -6q-14 -9 -25 -19.5t-14 -26.5q-6 -25 5 -43l51 -76q8 -13 18 -18l5 -7q14 -16 37 -16
q14 0 26.5 4t26.5 15q17 13 25.5 25.5t12.5 31.5q2 12 2 21q0 10 -5 19l-34 63q-2 3 -4.5 6t-4.5 7z" />
    <glyph glyph-name="FL00E9h" unicode="&#xe9;" horiz-adv-x="722" 
d="M567 840q8 9 23 21t26 12q20 0 37 -17q9 -13 19.5 -22.5t7.5 -24.5q-5 -20 -17 -32l-83 -75q-18 -20 -41 -20q-22 0 -37 16q-9 11 -12 21.5t0 25.5q5 20 18 35zM283 0q-63 0 -102 20.5t-58 59t-19 93.5q0 56 15 127q29 139 99 217.5t182 78.5h372l-26 -119h-316
q-38 0 -65 -9t-45 -25t-28.5 -37.5t-16.5 -46.5h360l-26 -124h-360q-24 -114 106 -114h316l-26 -121h-362zM275 202h360l32 150l-14 17l2 6h-340q14 31 44 50t84 19h329l31 145l-13 17l1 6h-388q-60 0 -108.5 -21.5t-86 -61.5t-64 -98t-41.5 -131q-21 -99 -13.5 -169
t52.5 -108q47 -56 154 -56h375l31 147l-13 17l1 6h-332q-60 0 -82 28q-4 14 -1 37zM495 787q-15 -18 -21 -42q-4 -20 -0.5 -32.5t15.5 -26.5q3 -4 6 -6.5t6 -4.5l3 -3q1 -1 1 -2t2 -2q18 -19 45 -19q29 0 52 24l83 75q9 9 14 19t8 22q2 11 -0.5 18t-7.5 14l-4 5
q-2 9 -7.5 15.5t-12.5 13.5l-6 6t-6 7q-21 21 -46 21q-17 0 -34.5 -14t-27.5 -25z" />
    <glyph glyph-name="FL00EAh" unicode="&#xea;" horiz-adv-x="722" 
d="M580 678l-33 105l-78 -105h-100l144 186h97l67 -186h-97zM283 0q-63 0 -102 20.5t-58 59t-19 93.5q0 56 15 127q29 139 99 217.5t182 78.5h372l-26 -119h-316q-38 0 -65 -9t-45 -25t-28.5 -37.5t-16.5 -46.5h360l-26 -124h-360q-24 -114 106 -114h316l-26 -121h-362z
M275 202h360l32 150l-14 17l2 6h-340q14 31 44 50t84 19h329l31 145l-13 17l1 6h-388q-60 0 -108.5 -21.5t-86 -61.5t-64 -98t-41.5 -131q-21 -99 -13.5 -169t52.5 -108q47 -56 154 -56h375l31 147l-13 17l1 6h-332q-60 0 -82 28q-4 14 -1 37zM360 645h129l58 78l20 -61h5
l13 -17h127l-77 212l-10 11l-3 12h-115l-168 -218h8z" />
    <glyph glyph-name="FL00EBh" unicode="&#xeb;" horiz-adv-x="722" 
d="M368 730q6 26 31.5 44.5t57.5 18.5t50 -18.5t12 -44.5q-5 -26 -31 -44.5t-58 -18.5t-49.5 18.5t-12.5 44.5zM569 730q6 26 31.5 44.5t57.5 18.5t50 -18.5t12 -44.5q-5 -26 -31 -44.5t-58 -18.5t-49.5 18.5t-12.5 44.5zM283 0q-63 0 -102 20.5t-58 59t-19 93.5
q0 56 15 127q29 139 99 217.5t182 78.5h372l-26 -119h-316q-38 0 -65 -9t-45 -25t-28.5 -37.5t-16.5 -46.5h360l-26 -124h-360q-24 -114 106 -114h316l-26 -121h-362zM275 202h360l32 150l-14 17l2 6h-340q14 31 44 50t84 19h329l31 145l-13 17l1 6h-388q-60 0 -108.5 -21.5
t-86 -61.5t-64 -98t-41.5 -131q-21 -99 -13.5 -169t52.5 -108q47 -56 154 -56h375l31 147l-13 17l1 6h-332q-60 0 -82 28q-4 14 -1 37zM553 730q-9 -44 26 -66l3 -4q21 -26 62 -26q38 0 68 22t37 54q6 29 -11 49l-3 4q-6 20 -25.5 33t-48.5 13q-39 0 -69.5 -23t-38.5 -56z
M352 730q-9 -44 26 -66l3 -4q21 -26 62 -26q38 0 68 22t37 54q6 29 -11 49l-3 4q-6 20 -25.5 33t-48.5 13q-39 0 -69.5 -23t-38.5 -56z" />
    <glyph glyph-name="FL00ECh" unicode="&#xec;" horiz-adv-x="283" 
d="M361 842q7 -8 9 -13l35 -63q7 -18 2 -40q-4 -19 -12.5 -31.5t-25.5 -25.5q-14 -11 -26.5 -15t-26.5 -4q-23 0 -36 16l-6 7q-11 6 -17 18l-52 76q-10 18 -5 43q4 16 14.5 26.5t24.5 19.5q7 5 17 13q30 21 55 21q16 0 28 -14t18 -25zM45 -16h-6l133 628h176l-1 -6l13 -17
l-132 -622h-170zM343 841q-5 9 -14.5 21t-20.5 12q-22 0 -45 -17q-14 -13 -29 -22.5t-18 -24.5q-4 -19 3 -32l51 -75q11 -20 33 -20q11 0 21.5 3.5t22.5 12.5q14 11 21 21.5t11 25.5q2 10 1.5 18.5t-4.5 16.5zM202 0l127 596h-144l-127 -596h144z" />
    <glyph glyph-name="FL00EDh" unicode="&#xed;" horiz-adv-x="276" 
d="M272 841q8 9 23 21t26 12q20 0 37 -17q10 -13 20 -22.5t7 -24.5q-5 -20 -17 -32l-83 -75q-17 -20 -41 -20q-23 0 -36 16q-10 11 -13 21.5t1 25.5q3 18 17 35zM55 0l127 596h144l-127 -596h-144zM55 -33h170l132 622l-13 17l1 6h-176l-133 -628h6zM200 788
q-16 -18 -20 -42q-5 -20 -1.5 -32.5t15.5 -26.5q5 -6 13 -11l2 -3q1 -1 1 -2t2 -2q18 -19 45 -19q29 0 52 24l83 75q18 18 22 41q2 11 -0.5 18t-7.5 14l-4 5q-2 9 -7.5 15.5t-12.5 13.5q-3 3 -5.5 6t-5.5 7q-21 21 -47 21q-17 0 -34.5 -14t-27.5 -25z" />
    <glyph glyph-name="FL00F7h" unicode="&#xee;" horiz-adv-x="276" 
d="M327 678l-33 105l-78 -105h-100l144 186h97l67 -186h-97zM55 0l127 596h144l-127 -596h-144zM55 -33h170l132 622l-13 17l1 6h-176l-133 -628h6zM107 645h129l58 78l20 -61h5l13 -17h127l-77 212l-10 11l-3 12h-115l-168 -218h8z" />
    <glyph glyph-name="FL00EFh" unicode="&#xef;" horiz-adv-x="276" 
d="M107 726q6 26 31.5 44.5t57.5 18.5t50 -18.5t12 -44.5q-5 -26 -31 -44.5t-58 -18.5t-49.5 18.5t-12.5 44.5zM308 726q6 26 31.5 44.5t57.5 18.5t50 -18.5t12 -44.5q-5 -26 -31 -44.5t-58 -18.5t-49.5 18.5t-12.5 44.5zM55 0l127 596h144l-127 -596h-144zM55 -33h170
l132 622l-13 17l1 6h-176l-133 -628h6zM292 726q-9 -44 26 -66l3 -4q21 -26 62 -26q38 0 68 22t37 54q6 29 -11 49l-3 4q-6 20 -25.5 33t-48.5 13q-39 0 -69.5 -23t-38.5 -56zM91 726q-5 -21 2.5 -38t23.5 -28l3 -4q21 -26 62 -26q38 0 68 22t37 54q6 29 -11 49l-3 4
q-6 20 -25.5 33t-48.5 13q-39 0 -69.5 -23t-38.5 -56z" />
    <glyph glyph-name="FL00F0h" unicode="&#xf0;" 
d="M492 140q32 8 56 23.5t38 41.5h-305q0 -8 1 -15t4 -13q15 -20 42.5 -28.5t63.5 -8.5h100zM340 -33q-66 0 -112 17t-75 49q-47 39 -59.5 105.5t7.5 157.5l17 81h499q-3 14 -8.5 25.5t-12.5 19.5q-17 9 -38 13t-46 4h-358l-13 17h-6l33 156h396q85 0 137.5 -26.5
t77.5 -77.5q26 -36 31.5 -87t-5.5 -114l-21 -102h-3q-38 -115 -106 -176.5t-183 -61.5h-152zM615 238l-2 -3q-11 -51 -43.5 -76.5t-83.5 -36.5v2h-98q-32 0 -57.5 5.5t-43.5 18.5t-27 35t-8 55h363zM499 472q63 0 100 -23.5t38 -87.5h-506l-14 -65q-29 -139 21 -217.5
t189 -78.5h152q112 0 177 62t100 176h2l19 89q11 62 4 112t-33 85t-72.5 53.5t-114.5 18.5h-380l-27 -124h345z" />
    <glyph glyph-name="FL00F1h" unicode="&#xf1;" horiz-adv-x="780" 
d="M560 841l39 -89l73 88h100l-139 -162h-97l-40 88l-72 -87h-100l139 162h97zM564 0l70 331q6 29 6 55q0 27 -11 47t-36 32t-69 12h-224l-101 -477h-144l127 596h430q46 0 81.5 -19t57.5 -59q24 -38 30 -80t-3 -87l-75 -351h-139zM55 -33h170l101 477h211q46 0 73 -16
q13 -19 13.5 -44t-5.5 -53l-73 -347h6l13 -17h165l77 364q22 97 -27 175q-3 3 -5 6.5t-4 6.5q-2 2 -2.5 4.5t-2.5 4.5q-24 43 -62 63.5t-88 20.5h-446l-133 -628h6zM457 857l-166 -194h9l13 -17h131l56 68l25 -52h4l13 -17h111l161 188l-14 17l5 6h-139l-59 -71l-22 49l-7 9
l-6 14h-115z" />
    <glyph glyph-name="FL00F2h" unicode="&#xf2;" horiz-adv-x="779" 
d="M475 478q-51 0 -87.5 -8t-60.5 -22t-37.5 -34.5t-18.5 -45.5l-28 -135q-6 -26 -2 -47.5t21 -36.5t50 -23t85 -8q59 0 97 6t61 20t35 37t20 57l25 120q7 34 5 57t-19 37t-52 20t-94 6zM745 203q-11 -51 -35 -89t-67.5 -63.5t-110 -38t-160.5 -12.5q-91 0 -149 13.5t-89 39
t-38.5 63t2.5 84.5l41 193q10 48 33.5 85.5t65.5 64t106 40t156 13.5q94 0 154 -12.5t93 -37.5t41 -62.5t-2 -87.5zM615 779q6 -17 2 -35q-3 -15 -10.5 -25.5t-21.5 -21.5q-11 -9 -21.5 -12.5t-21.5 -3.5q-24 0 -33 20l-51 75q-7 13 -3 32q3 15 17.5 24.5t29.5 22.5
q23 17 44 17q11 0 20.5 -12t14.5 -21zM385 -33q98 0 167 13.5t114.5 40.5t70.5 67.5t37 94.5l41 193q9 43 5.5 77t-23.5 60q-22 49 -91.5 74t-202.5 25q-96 0 -163.5 -15t-112 -43t-69 -68.5t-35.5 -92.5l-41 -193q-11 -53 -3.5 -93t42.5 -68q29 -35 92.5 -53.5t171.5 -18.5
zM271 213l29 135q5 22 17 40t34.5 30.5t56 19.5t80.5 7q49 0 80 -4t48 -14q8 -12 8 -29t-5 -40l-25 -120q-6 -30 -17 -50t-32.5 -32t-56 -17t-88.5 -5t-84.5 8.5t-45.5 24.5q-5 17 1 46zM595 849q-6 11 -17.5 25t-27.5 14q-26 0 -56 -21q-5 -4 -8.5 -7t-7.5 -6
q-14 -9 -25 -19.5t-14 -26.5q-6 -25 5 -43l51 -76q8 -13 18 -18l5 -7q14 -16 37 -16q14 0 26.5 4t26.5 15q17 13 25.5 25.5t12.5 31.5q2 12 2 21q0 10 -5 19l-34 63q-2 3 -4.5 6t-4.5 7z" />
    <glyph glyph-name="FL00F3h" unicode="&#xf3;" horiz-adv-x="779" 
d="M475 478q-51 0 -87.5 -8t-60.5 -22t-37.5 -34.5t-18.5 -45.5l-28 -135q-6 -26 -2 -47.5t21 -36.5t50 -23t85 -8q59 0 97 6t61 20t35 37t20 57l25 120q7 34 5 57t-19 37t-52 20t-94 6zM745 203q-11 -51 -35 -89t-67.5 -63.5t-110 -38t-160.5 -12.5q-91 0 -149 13.5t-89 39
t-38.5 63t2.5 84.5l41 193q10 48 33.5 85.5t65.5 64t106 40t156 13.5q94 0 154 -12.5t93 -37.5t41 -62.5t-2 -87.5zM533 839q9 9 23.5 21t25.5 12q21 0 38 -17q9 -13 19.5 -22.5t7.5 -24.5q-5 -20 -17 -32l-83 -75q-18 -20 -41 -20q-22 0 -37 16q-10 11 -12.5 21.5t0.5 25.5
q5 20 18 35zM385 -33q98 0 167 13.5t114.5 40.5t70.5 67.5t37 94.5l41 193q9 43 5.5 77t-23.5 60q-22 49 -91.5 74t-202.5 25q-96 0 -163.5 -15t-112 -43t-69 -68.5t-35.5 -92.5l-41 -193q-11 -53 -3.5 -93t42.5 -68q29 -35 92.5 -53.5t171.5 -18.5zM271 213l29 135
q5 22 17 40t34.5 30.5t56 19.5t80.5 7q49 0 80 -4t48 -14q8 -12 8 -29t-5 -40l-25 -120q-6 -30 -17 -50t-32.5 -32t-56 -17t-88.5 -5t-84.5 8.5t-45.5 24.5q-5 17 1 46zM462 786q-9 -10 -13.5 -20t-7.5 -22q-4 -20 -1 -32.5t16 -26.5q3 -4 6 -6.5t6 -4.5l3 -3q0 -3 3 -4
q18 -19 45 -19q28 0 52 24l83 75q17 18 21 41q2 11 -0.5 18t-7.5 14l-4 5q-2 9 -7 15.5t-12 13.5q-4 3 -6.5 6t-5.5 7q-21 21 -46 21q-17 0 -35 -14t-28 -25z" />
    <glyph glyph-name="FL00F4h" unicode="&#xf4;" horiz-adv-x="779" 
d="M475 478q-51 0 -87.5 -8t-60.5 -22t-37.5 -34.5t-18.5 -45.5l-28 -135q-6 -26 -2 -47.5t21 -36.5t50 -23t85 -8q59 0 97 6t61 20t35 37t20 57l25 120q7 34 5 57t-19 37t-52 20t-94 6zM745 203q-11 -51 -35 -89t-67.5 -63.5t-110 -38t-160.5 -12.5q-91 0 -149 13.5t-89 39
t-38.5 63t2.5 84.5l41 193q10 48 33.5 85.5t65.5 64t106 40t156 13.5q94 0 154 -12.5t93 -37.5t41 -62.5t-2 -87.5zM578 681l-33 105l-78 -105h-100l143 186h97l68 -186h-97zM385 -33q98 0 167 13.5t114.5 40.5t70.5 67.5t37 94.5l41 193q9 43 5.5 77t-23.5 60
q-22 49 -91.5 74t-202.5 25q-96 0 -163.5 -15t-112 -43t-69 -68.5t-35.5 -92.5l-41 -193q-11 -53 -3.5 -93t42.5 -68q29 -35 92.5 -53.5t171.5 -18.5zM271 213l29 135q5 22 17 40t34.5 30.5t56 19.5t80.5 7q49 0 80 -4t48 -14q8 -12 8 -29t-5 -40l-25 -120q-6 -30 -17 -50
t-32.5 -32t-56 -17t-88.5 -5t-84.5 8.5t-45.5 24.5q-5 17 1 46zM358 648h129l57 78l20 -61h5l14 -17h127l-77 212l-10 11l-3 12h-115l-169 -218h8z" />
    <glyph glyph-name="FL00F5h" unicode="&#xf5;" horiz-adv-x="779" 
d="M475 478q-51 0 -87.5 -8t-60.5 -22t-37.5 -34.5t-18.5 -45.5l-28 -135q-6 -26 -2 -47.5t21 -36.5t50 -23t85 -8q59 0 97 6t61 20t35 37t20 57l25 120q7 34 5 57t-19 37t-52 20t-94 6zM745 203q-11 -51 -35 -89t-67.5 -63.5t-110 -38t-160.5 -12.5q-91 0 -149 13.5t-89 39
t-38.5 63t2.5 84.5l41 193q10 48 33.5 85.5t65.5 64t106 40t156 13.5q94 0 154 -12.5t93 -37.5t41 -62.5t-2 -87.5zM559 843l39 -89l73 88h100l-138 -162h-97l-41 88l-71 -87h-100l138 162h97zM385 -33q98 0 167 13.5t114.5 40.5t70.5 67.5t37 94.5l41 193q9 43 5.5 77
t-23.5 60q-22 49 -91.5 74t-202.5 25q-96 0 -163.5 -15t-112 -43t-69 -68.5t-35.5 -92.5l-41 -193q-11 -53 -3.5 -93t42.5 -68q29 -35 92.5 -53.5t171.5 -18.5zM271 213l29 135q5 22 17 40t34.5 30.5t56 19.5t80.5 7q49 0 80 -4t48 -14q8 -12 8 -29t-5 -40l-25 -120
q-6 -30 -17 -50t-32.5 -32t-56 -17t-88.5 -5t-84.5 8.5t-45.5 24.5q-5 17 1 46zM457 859l-167 -194h9l14 -17h131l55 68l25 -52h4l14 -17h111l160 188l-14 17l5 6h-139l-59 -71l-21 49l-7 9l-6 14h-115z" />
    <glyph glyph-name="FL00F6h" unicode="&#xf6;" horiz-adv-x="779" 
d="M475 478q-51 0 -87.5 -8t-60.5 -22t-37.5 -34.5t-18.5 -45.5l-28 -135q-6 -26 -2 -47.5t21 -36.5t50 -23t85 -8q59 0 97 6t61 20t35 37t20 57l25 120q7 34 5 57t-19 37t-52 20t-94 6zM745 203q-11 -51 -35 -89t-67.5 -63.5t-110 -38t-160.5 -12.5q-91 0 -149 13.5t-89 39
t-38.5 63t2.5 84.5l41 193q10 48 33.5 85.5t65.5 64t106 40t156 13.5q94 0 154 -12.5t93 -37.5t41 -62.5t-2 -87.5zM354 731q6 26 31.5 44.5t57.5 18.5t50 -18.5t12 -44.5q-5 -26 -31 -44.5t-58 -18.5t-49.5 18.5t-12.5 44.5zM555 731q6 26 31.5 44.5t57.5 18.5t50 -18.5
t12 -44.5q-5 -26 -31 -44.5t-58 -18.5t-49.5 18.5t-12.5 44.5zM385 -33q98 0 167 13.5t114.5 40.5t70.5 67.5t37 94.5l41 193q9 43 5.5 77t-23.5 60q-22 49 -91.5 74t-202.5 25q-96 0 -163.5 -15t-112 -43t-69 -68.5t-35.5 -92.5l-41 -193q-11 -53 -3.5 -93t42.5 -68
q29 -35 92.5 -53.5t171.5 -18.5zM271 213l29 135q5 22 17 40t34.5 30.5t56 19.5t80.5 7q49 0 80 -4t48 -14q8 -12 8 -29t-5 -40l-25 -120q-6 -30 -17 -50t-32.5 -32t-56 -17t-88.5 -5t-84.5 8.5t-45.5 24.5q-5 17 1 46zM539 731q-9 -44 26 -66l3 -4q21 -26 62 -26
q38 0 68 22t37 54q6 28 -10 49l-4 4q-6 20 -25.5 33t-48.5 13q-39 0 -69.5 -23t-38.5 -56zM338 731q-9 -44 26 -66l3 -4q21 -26 62 -26q38 0 68 22t37 54q6 28 -10 49l-4 4q-6 20 -25.5 33t-48.5 13q-39 0 -69.5 -23t-38.5 -56z" />
    <glyph glyph-name="FL0100h" unicode="&#xf7;" horiz-adv-x="578" 
d="M304 456q5 26 30.5 44.5t57.5 18.5t50 -18.5t13 -44.5q-6 -26 -31.5 -44.5t-57.5 -18.5t-50 18.5t-12 44.5zM236 138q6 26 31.5 44.5t57.5 18.5t50 -18.5t12 -44.5q-5 -26 -31 -44.5t-58 -18.5t-49.5 18.5t-12.5 44.5zM577 358l-26 -123h-446l26 123h446zM288 456
q-9 -44 26 -66l3 -4q4 -7 11 -12h-210l-32 -155h6l13 -17h165q-19 -11 -32 -27.5t-18 -36.5q-9 -44 26 -66l3 -4q21 -26 62 -26q38 0 68 22t37 54q6 29 -11 49l-3 4q-6 18 -22 31h197l32 149l-14 17l1 6h-164q20 10 33.5 26t18.5 36q3 14 0 26.5t-11 22.5l-3 4
q-6 20 -25.5 33t-48.5 13q-39 0 -70 -23t-38 -56z" />
    <glyph glyph-name="FL00F8h" unicode="&#xf8;" horiz-adv-x="779" 
d="M634 358q8 35 1.5 62t-33.5 42l-180 -341h32q130 0 154 114zM249 235q-17 -81 39 -104l183 346h-41q-38 0 -65 -9t-45 -25t-28.5 -38t-16.5 -47zM283 0q-63 0 -102 20.5t-58 59t-19 93.5q0 56 15 127q29 139 99 217.5t182 78.5h211q56 0 92.5 -20t55.5 -58.5t20.5 -93.5
t-13.5 -124q-15 -71 -39 -126.5t-59 -94t-83 -59t-111 -20.5h-191zM296 -33h191q67 0 117.5 21.5t87.5 61.5t62 98t41 132q17 81 12 143t-32 101q-20 43 -59.5 65.5t-101.5 22.5h-211q-60 0 -108.5 -21.5t-86 -61.5t-64 -98t-41.5 -131q-21 -99 -13.5 -169t52.5 -108
q47 -56 154 -56zM304 338q4 22 13.5 41t25 33.5t38.5 22.5t55 9l-152 -289q-4 2 -8 8q-2 11 -2 24t4 28zM618 358l-26 -123q-20 -93 -122 -98l147 278q9 -24 1 -57z" />
    <glyph glyph-name="FL00F9h" unicode="&#xf9;" horiz-adv-x="780" 
d="M615 779q6 -17 2 -35q-3 -15 -10.5 -25.5t-21.5 -21.5q-11 -9 -21.5 -12.5t-21.5 -3.5q-24 0 -33 20l-51 75q-7 13 -3 32q3 15 17.5 24.5t29.5 22.5q23 17 44 17q11 0 20.5 -12t14.5 -21zM744 191q-11 -51 -35.5 -89t-68 -63.5t-110 -38t-160.5 -12.5q-92 0 -150 13.5
t-89 40t-38.5 64t3.5 85.5l86 405h139l-80 -375q-6 -26 -2 -47.5t21.5 -36.5t50.5 -23t85 -8q59 0 96.5 6t60.5 20t35 37t19 57l79 370h144zM270 201l82 388l-13 17l1 6h-171l-89 -421q-11 -54 -3.5 -94.5t42.5 -68.5q29 -35 92 -54t172 -19q98 0 167 13.5t114.5 40.5
t71 67.5t36.5 94.5l89 418l-13 17l1 6h-176l-82 -386q-6 -30 -17 -50t-32 -32t-55 -17t-88 -5t-85 8.5t-45 24.5q-5 17 1 46zM595 849q-6 11 -17.5 25t-27.5 14q-26 0 -56 -21q-5 -4 -8.5 -7t-7.5 -6q-14 -9 -25 -19.5t-14 -26.5q-6 -25 5 -43l51 -76q8 -13 18 -18l5 -7
q14 -16 37 -16q14 0 26.5 4t26.5 15q17 13 25.5 25.5t12.5 31.5q2 12 2 21q0 10 -5 19l-34 63q-2 3 -4.5 6t-4.5 7z" />
    <glyph glyph-name="FL00FAh" unicode="&#xfa;" horiz-adv-x="780" 
d="M533 839q9 9 23.5 21t25.5 12q21 0 38 -17q9 -13 19.5 -22.5t7.5 -24.5q-5 -20 -17 -32l-83 -75q-18 -20 -41 -20q-22 0 -37 16q-10 11 -12.5 21.5t0.5 25.5q5 20 18 35zM744 191q-11 -51 -35.5 -89t-68 -63.5t-110 -38t-160.5 -12.5q-92 0 -150 13.5t-89 40t-38.5 64
t3.5 85.5l86 405h139l-80 -375q-6 -26 -2 -47.5t21.5 -36.5t50.5 -23t85 -8q59 0 96.5 6t60.5 20t35 37t19 57l79 370h144zM270 201l82 388l-13 17l1 6h-171l-89 -421q-11 -54 -3.5 -94.5t42.5 -68.5q29 -35 92 -54t172 -19q98 0 167 13.5t114.5 40.5t71 67.5t36.5 94.5
l89 418l-13 17l1 6h-176l-82 -386q-6 -30 -17 -50t-32 -32t-55 -17t-88 -5t-85 8.5t-45 24.5q-5 17 1 46zM462 786q-9 -10 -13.5 -20t-7.5 -22q-4 -20 -1 -32.5t16 -26.5q3 -4 6 -6.5t6 -4.5l3 -3q0 -3 3 -4q18 -19 45 -19q28 0 52 24l83 75q17 18 21 41q2 11 -0.5 18
t-7.5 14l-4 5q-2 9 -7 15.5t-12 13.5q-4 3 -6.5 6t-5.5 7q-21 21 -46 21q-17 0 -35 -14t-28 -25z" />
    <glyph glyph-name="FL00FBh" unicode="&#xfb;" horiz-adv-x="780" 
d="M578 681l-33 105l-78 -105h-100l143 186h97l68 -186h-97zM744 191q-11 -51 -35.5 -89t-68 -63.5t-110 -38t-160.5 -12.5q-92 0 -150 13.5t-89 40t-38.5 64t3.5 85.5l86 405h139l-80 -375q-6 -26 -2 -47.5t21.5 -36.5t50.5 -23t85 -8q59 0 96.5 6t60.5 20t35 37t19 57
l79 370h144zM270 201l82 388l-13 17l1 6h-171l-89 -421q-11 -54 -3.5 -94.5t42.5 -68.5q29 -35 92 -54t172 -19q98 0 167 13.5t114.5 40.5t71 67.5t36.5 94.5l89 418l-13 17l1 6h-176l-82 -386q-6 -30 -17 -50t-32 -32t-55 -17t-88 -5t-85 8.5t-45 24.5q-5 17 1 46zM358 648
h129l57 78l20 -61h5l14 -17h127l-77 212l-10 11l-3 12h-115l-169 -218h8z" />
    <glyph glyph-name="FL00FCh" unicode="&#xfc;" horiz-adv-x="780" 
d="M354 731q6 26 31.5 44.5t57.5 18.5t50 -18.5t12 -44.5q-5 -26 -31 -44.5t-58 -18.5t-49.5 18.5t-12.5 44.5zM555 731q6 26 31.5 44.5t57.5 18.5t50 -18.5t12 -44.5q-5 -26 -31 -44.5t-58 -18.5t-49.5 18.5t-12.5 44.5zM744 191q-11 -51 -35.5 -89t-68 -63.5t-110 -38
t-160.5 -12.5q-92 0 -150 13.5t-89 40t-38.5 64t3.5 85.5l86 405h139l-80 -375q-6 -26 -2 -47.5t21.5 -36.5t50.5 -23t85 -8q59 0 96.5 6t60.5 20t35 37t19 57l79 370h144zM270 201l82 388l-13 17l1 6h-171l-89 -421q-11 -54 -3.5 -94.5t42.5 -68.5q29 -35 92 -54t172 -19
q98 0 167 13.5t114.5 40.5t71 67.5t36.5 94.5l89 418l-13 17l1 6h-176l-82 -386q-6 -30 -17 -50t-32 -32t-55 -17t-88 -5t-85 8.5t-45 24.5q-5 17 1 46zM338 731q-9 -44 26 -66l3 -4q21 -26 62 -26q38 0 68 22t37 54q6 28 -10 49l-4 4q-6 20 -25.5 33t-48.5 13
q-39 0 -69.5 -23t-38.5 -56zM539 731q-9 -44 26 -66l3 -4q21 -26 62 -26q38 0 68 22t37 54q6 28 -10 49l-3 2l-1 1q1 0 1 -1v0l-1 2q-6 20 -25.5 33t-48.5 13q-39 0 -69.5 -23t-38.5 -56z" />
    <glyph glyph-name="FL00FDh" unicode="&#xfd;" 
d="M555 839q9 9 23.5 21t25.5 12q21 0 38 -17q9 -13 19.5 -22.5t7.5 -24.5q-5 -20 -17 -32l-83 -75q-18 -20 -41 -20q-22 0 -37 16q-10 11 -12.5 21.5t0.5 25.5q5 20 18 35zM771 296q-29 -139 -113 -217.5t-223 -78.5h-234l26 124h199q63 0 111.5 24t74.5 90h-278l-1 -1
q-62 0 -101 20t-58 58t-20 93t14 125l14 64h146l-32 -152q-5 -68 65 -83h276l50 234h147zM853 612h-179l-50 -234h-255q-29 6 -42 21q-2 6 -3 13t1 15l34 163l-13 17l1 6h-178l-17 -80q-20 -94 -11.5 -162t52.5 -106q25 -30 65.5 -45.5t100.5 -15.5l1 1h216
q-26 -37 -63.5 -51t-82.5 -14h-215l-33 -156h6l13 -17h247q145 0 233 82t119 227l65 313l-13 17zM484 786q-9 -10 -13.5 -20t-7.5 -22q-4 -20 -1 -32.5t16 -26.5q3 -4 6 -6.5t6 -4.5l3 -3q0 -3 3 -4q18 -19 45 -19q28 0 52 24l83 75q17 18 21 41q2 11 -0.5 18t-7.5 14l-4 5
q-2 9 -7 15.5t-12 13.5q-4 3 -6.5 6t-5.5 7q-21 21 -46 21q-17 0 -35 -14t-28 -25z" />
    <glyph glyph-name="FL00FEh" unicode="&#xfe;" horiz-adv-x="760" 
d="M276 363l-25 -119h344q3 24 0 46t-16 38t-37 25.5t-62 9.5h-204zM225 121l-26 -121h-144l127 596h144l-25 -114h266q47 0 82 -21.5t57 -56.5t29 -79t-2 -88l-24 -116h-484zM357 589l-13 17l1 6h-176l-133 -628h6l13 -17h170l26 121h484l27 129q11 49 1.5 97.5t-35.5 85.5
q-23 43 -62.5 70.5t-94.5 27.5h-233zM302 330h191q44 0 71 -16q8 -11 11.5 -24.5t3.5 -29.5h-292z" />
    <glyph glyph-name="FL00FFh" unicode="&#xff;" 
d="M354 731q6 26 31.5 44.5t57.5 18.5t50 -18.5t12 -44.5q-5 -26 -31 -44.5t-58 -18.5t-49.5 18.5t-12.5 44.5zM555 731q6 26 31.5 44.5t57.5 18.5t50 -18.5t12 -44.5q-5 -26 -31 -44.5t-58 -18.5t-49.5 18.5t-12.5 44.5zM771 296q-29 -139 -113 -217.5t-223 -78.5h-234
l26 124h199q63 0 111.5 24t74.5 90h-278l-1 -1q-62 0 -101 20t-58 58t-20 93t14 125l14 64h146l-32 -152q-5 -68 65 -83h276l50 234h147zM853 612h-179l-50 -234h-255q-29 6 -42 21q-2 6 -3 12t0 14l35 165l-13 17l1 6h-178l-17 -80q-20 -94 -11.5 -162t52.5 -106
q25 -30 65.5 -45.5t100.5 -15.5l1 1h216q-26 -37 -63.5 -51t-82.5 -14h-215l-33 -156h6l13 -17h247q145 0 233 82t119 227l65 313l-13 17zM338 731q-9 -44 26 -66l3 -4q21 -26 62 -26q38 0 68 22t37 54q6 28 -10 49l-4 4q-6 20 -25.5 33t-48.5 13q-39 0 -69.5 -23t-38.5 -56
zM539 731q-9 -44 26 -66l3 -4q21 -26 62 -26q38 0 68 22t37 54q6 28 -10 49l-3 2l-1 1q1 0 1 -1v0l-1 2q-6 20 -25.5 33t-48.5 13q-39 0 -69.5 -23t-38.5 -56z" />
    <glyph glyph-name="FL0152h" unicode="&#x152;" horiz-adv-x="1170" 
d="M567 300q23 108 67 177h-204q-38 0 -65 -9t-45 -25t-28.5 -38t-16.5 -47l-26 -123q-24 -114 106 -114h202q-8 35 -5 80t15 99zM283 0q-63 0 -102 20.5t-58 59t-19 93.5q0 56 15 127q29 139 99 217.5t182 78.5h820l-26 -119h-316q-38 0 -65 -9t-45 -25t-28.5 -37.5
t-16.5 -46.5h360l-26 -124h-360q-24 -114 106 -114h316l-26 -121h-810zM723 202h360l32 150l-14 17l2 6h-340q14 31 44 50t84 19h329l31 145l-13 17l1 6h-836q-60 0 -108.5 -21.5t-86 -61.5t-64 -98t-41.5 -131q-21 -99 -13.5 -169t52.5 -108q47 -56 154 -56h823l31 147
l-13 17l1 6h-332q-60 0 -82 28q-4 14 -1 37zM551 300q-11 -48 -15 -88t0 -75h-178q-57 0 -81 25q-7 20 1 53l26 123q5 23 14.5 42.5t26 33.5t40.5 22t58 8h154q-15 -32 -26.5 -68t-19.5 -76z" />
    <glyph glyph-name="FL0153h" unicode="&#x153;" horiz-adv-x="1170" 
d="M567 300q23 108 67 177h-204q-38 0 -65 -9t-45 -25t-28.5 -38t-16.5 -47l-26 -123q-24 -114 106 -114h202q-8 35 -5 80t15 99zM283 0q-63 0 -102 20.5t-58 59t-19 93.5q0 56 15 127q29 139 99 217.5t182 78.5h820l-26 -119h-316q-38 0 -65 -9t-45 -25t-28.5 -37.5
t-16.5 -46.5h360l-26 -124h-360q-24 -114 106 -114h316l-26 -121h-810zM723 202h360l32 150l-14 17l2 6h-340q14 31 44 50t84 19h329l31 145l-13 17l1 6h-836q-60 0 -108.5 -21.5t-86 -61.5t-64 -98t-41.5 -131q-21 -99 -13.5 -169t52.5 -108q47 -56 154 -56h823l31 147
l-13 17l1 6h-332q-60 0 -82 28q-4 14 -1 37zM551 300q-11 -48 -15 -88t0 -75h-178q-57 0 -81 25q-7 20 1 53l26 123q5 23 14.5 42.5t26 33.5t40.5 22t58 8h154q-15 -32 -26.5 -68t-19.5 -76z" />
    <glyph glyph-name="FL0160h" unicode="&#x160;" 
d="M511 864l31 -103l78 104h100l-143 -185h-97l-66 185zM463 472q-63 0 -110.5 -23.5t-73.5 -87.5h506l-14 -65q-29 -139 -113 -217.5t-223 -78.5h-380l26 124h345q63 0 111.5 24t74.5 90h-506l13 62q29 139 113 217.5t223 78.5h380l-27 -124h-345zM106 205h470
q-26 -37 -63.5 -51t-82.5 -14h-361l-33 -156h6l13 -17h393q145 0 233 82t119 227l16 78l-13 17l1 6h-477q26 34 63.5 48t85.5 14h358l32 150l-13 17l1 6h-396q-74 0 -132.5 -21.5t-103 -61.5t-74.5 -98t-45 -131l-17 -78h6zM390 881l77 -217h5l14 -17h111l163 211l-14 18
l4 5h-136l-61 -81l-16 57l-10 12l-3 11z" />
    <glyph glyph-name="FL0162h" unicode="&#x161;" 
d="M390 881l134 -1l3 -11l10 -12l16 -57l61 81h136l-4 -5l14 -18l-163 -211h-111l-14 17h-5zM92 222h-6l17 78q15 73 45 131t74.5 98t103 61.5t132.5 21.5h246l-1 -6l13 -17l-32 -150h-208q-48 0 -85.5 -14t-63.5 -48h477l-1 -6l13 -17l-16 -78q-31 -145 -119 -227t-233 -82
h-392l-13 17h-6l33 156h360q45 0 82.5 14t63.5 51h-470zM480 680h97l143 185h-100l-78 -104l-31 103l-97 1zM658 472l27 124h-230q-139 0 -223 -78.5t-113 -217.5l-13 -62h506q-26 -66 -74.5 -90t-111.5 -24h-344l-26 -124h379q139 0 223 78.5t113 217.5l14 65h-506
q26 64 73.5 87.5t110.5 23.5h195z" />
    <glyph glyph-name="FL0178h" unicode="&#x178;" 
d="M354 731q6 26 31.5 44.5t57.5 18.5t50 -18.5t12 -44.5q-5 -26 -31 -44.5t-58 -18.5t-49.5 18.5t-12.5 44.5zM555 731q6 26 31.5 44.5t57.5 18.5t50 -18.5t12 -44.5q-5 -26 -31 -44.5t-58 -18.5t-49.5 18.5t-12.5 44.5zM771 296q-29 -139 -113 -217.5t-223 -78.5h-234
l26 124h199q63 0 111.5 24t74.5 90h-278l-1 -1q-62 0 -101 20t-58 58t-20 93t14 125l14 64h146l-32 -152q-5 -68 65 -83h276l50 234h147zM853 612h-179l-50 -234h-255q-29 6 -42 21q-2 6 -3 12t0 14l35 165l-13 17l1 6h-178l-17 -80q-20 -94 -11.5 -162t52.5 -106
q25 -30 65.5 -45.5t100.5 -15.5l1 1h216q-26 -37 -63.5 -51t-82.5 -14h-215l-33 -156h6l13 -17h247q145 0 233 82t119 227l65 313l-13 17zM338 731q-9 -44 26 -66l3 -4q21 -26 62 -26q38 0 68 22t37 54q6 28 -10 49l-4 4q-6 20 -25.5 33t-48.5 13q-39 0 -69.5 -23t-38.5 -56
zM539 731q-9 -44 26 -66l3 -4q21 -26 62 -26q38 0 68 22t37 54q6 28 -10 49l-3 2l-1 1q1 0 1 -1v0l-1 2q-6 20 -25.5 33t-48.5 13q-39 0 -69.5 -23t-38.5 -56z" />
    <glyph glyph-name="FL017Dh" unicode="&#x17d;" horiz-adv-x="716" 
d="M473 864l31 -103l78 104h100l-143 -185h-97l-66 185zM270 119h394l-25 -119h-584l25 119l469 358h-393l26 119h584l-26 -119zM156 444h325l-415 -318l-30 -142h6l13 -17h610l31 145l-14 17l2 6h-331l415 316l29 138l-13 17l1 6h-616l-32 -151h6zM352 881l77 -217h5
l14 -17h111l163 211l-14 18l4 5h-136l-61 -81l-16 57l-10 12l-3 11z" />
    <glyph glyph-name="FL0161h" unicode="&#x17e;" horiz-adv-x="716" 
d="M473 864l31 -103l78 104h100l-143 -185h-97l-66 185zM270 119h394l-25 -119h-584l25 119l469 358h-393l26 119h584l-26 -119zM156 444h325l-415 -318l-30 -142h6l13 -17h610l31 145l-14 17l2 6h-331l415 316l29 138l-13 17l1 6h-616l-32 -151h6zM352 881l77 -217h5
l14 -17h111l163 211l-14 18l4 5h-136l-61 -81l-16 57l-10 12l-3 11z" />
    <glyph glyph-name="FL0192h" unicode="&#x192;" horiz-adv-x="722" 
d="M791 612l-1 -6l13 -17l-31 -147h-329q-116 0 -139 -101l-79 -375h-170l-14 17h-6l67 313q16 74 41 133t62.5 99.5t88.5 62t119 21.5h378zM410 596q-63 0 -111 -20.5t-83 -59t-59 -94.5t-39 -126l-63 -297h144l77 362q24 114 154 114h316l26 121h-362z" />
    <glyph glyph-name="FL02C6h" unicode="&#x2c6;" horiz-adv-x="440" 
d="M353 409l-33 105l-78 -105h-100l143 186h97l68 -186h-97zM133 376h129l58 78l20 -61h5l13 -17h127l-77 212l-10 11l-3 12h-115l-168 -218h8z" />
    <glyph glyph-name="FL02DCh" unicode="&#x2dc;" horiz-adv-x="495" 
d="M357 595l39 -93l73 92h100l-140 -170h-97l-39 93l-73 -92h-100l140 170h97zM255 611l-167 -202h9l13 -17h130l55 71l25 -55h5l13 -17h111l162 196l-15 17l6 6h-138l-61 -73l-20 51l-8 9l-5 14h-115z" />
    <glyph glyph-name="FL2013h" unicode="&#x2013;" horiz-adv-x="510" 
d="M131 358h378l-26 -124h-378zM85 218h6l14 -17h404l32 150l-14 17l1 6h-410z" />
    <glyph glyph-name="FL2014h" unicode="&#x2014;" horiz-adv-x="578" 
d="M577 358l-26 -123h-446l26 123h446zM118 374l-32 -155h6l13 -17h472l32 149l-14 17l1 6h-478z" />
    <glyph glyph-name="FL2018h" unicode="&#x2018;" horiz-adv-x="283" 
d="M168 533q6 26 31.5 44.5t57.5 18.5t50 -18.5t12 -44.5l-25 -118q-5 -26 -31 -44.5t-58 -18.5t-49.5 19t-12.5 45zM127 416q-5 -21 2.5 -39t24.5 -29l3 -3q21 -26 61 -26q38 0 68 22t37 54l25 118q6 29 -11 49l-3 4q-6 20 -25.5 33t-48.5 13q-39 0 -69.5 -23t-38.5 -56z
" />
    <glyph glyph-name="FL2019h" unicode="&#x2019;" horiz-adv-x="283" 
d="M168 533q6 26 31.5 44.5t57.5 18.5t50 -18.5t12 -44.5l-25 -118q-5 -26 -31 -44.5t-58 -18.5t-49.5 19t-12.5 45zM127 416q-5 -21 2.5 -39t24.5 -29l3 -3q21 -26 61 -26q38 0 68 22t37 54l25 118q6 29 -11 49l-3 4q-6 20 -25.5 33t-48.5 13q-39 0 -69.5 -23t-38.5 -56z
" />
    <glyph glyph-name="FL201Ah" unicode="&#x201a;" horiz-adv-x="283" 
d="M68 63q6 26 31.5 44.5t57.5 18.5t50 -18.5t12 -44.5l-25 -118q-5 -26 -31 -44.5t-58 -18.5t-49.5 19t-11.5 45zM28 -54q-5 -21 2 -38.5t24 -28.5l3 -4q21 -26 61 -26q38 0 68 22t37 54l25 118q6 28 -10 49l-4 4q-6 20 -25.5 33t-48.5 13q-39 0 -69.5 -23t-38.5 -56z" />
    <glyph glyph-name="FL201Ch" unicode="&#x201c;" horiz-adv-x="485" 
d="M168 532q6 26 31 44.5t57 18.5t50.5 -18.5t12.5 -44.5l-25 -118q-5 -26 -31 -44.5t-58 -18.5t-49.5 19t-12.5 45zM370 533q6 26 31.5 44.5t57.5 18.5t50 -18.5t12 -44.5l-25 -118q-5 -26 -31 -44.5t-58 -18.5t-49.5 19t-12.5 45zM127 415q-5 -21 2.5 -39t24.5 -29l3 -3
q21 -26 61 -26q38 0 68 22t37 54l25 118q3 14 0 26.5t-11 22.5l-3 4q-6 20 -25.5 33t-48.5 13q-39 0 -70 -23t-38 -56zM329 416q-5 -21 2.5 -39t24.5 -29l3 -3q21 -26 61 -26q38 0 68 22t37 54l25 118q6 29 -11 49l-2 2l-1 1q1 0 1 -1v0l-1 2q-6 20 -25.5 33t-48.5 13
q-39 0 -69.5 -23t-38.5 -56z" />
    <glyph glyph-name="FL201Dh" unicode="&#x201d;" horiz-adv-x="485" 
d="M168 532q6 26 31 44.5t57 18.5t50.5 -18.5t12.5 -44.5l-25 -118q-5 -26 -31 -44.5t-58 -18.5t-49.5 19t-12.5 45zM370 533q6 26 31.5 44.5t57.5 18.5t50 -18.5t12 -44.5l-25 -118q-5 -26 -31 -44.5t-58 -18.5t-49.5 19t-12.5 45zM127 415q-5 -21 2.5 -39t24.5 -29l3 -3
q21 -26 61 -26q38 0 68 22t37 54l25 118q3 14 0 26.5t-11 22.5l-3 4q-6 20 -25.5 33t-48.5 13q-39 0 -70 -23t-38 -56zM329 416q-5 -21 2.5 -39t24.5 -29l3 -3q21 -26 61 -26q38 0 68 22t37 54l25 118q6 29 -11 49l-2 2l-1 1q1 0 1 -1v0l-1 2q-6 20 -25.5 33t-48.5 13
q-39 0 -69.5 -23t-38.5 -56z" />
    <glyph glyph-name="FL201Eh" unicode="&#x201e;" horiz-adv-x="485" 
d="M69 64q5 26 30.5 44.5t57.5 18.5t50 -18.5t13 -44.5l-25 -118q-6 -26 -32 -44.5t-58 -18.5t-49.5 19t-11.5 45zM270 63q6 26 31.5 44.5t57.5 18.5t50 -18.5t12 -44.5l-25 -118q-5 -26 -31 -44.5t-58 -18.5t-49.5 19t-11.5 45zM28 -53q-5 -21 2 -38.5t24 -28.5l4 -4
q19 -26 60 -26q38 0 68 22t37 54l25 118q6 28 -10 49l-3 4q-7 20 -26.5 33t-48.5 13q-39 0 -69.5 -23t-37.5 -56zM230 -54q-5 -21 2 -38.5t24 -28.5l3 -4q21 -26 61 -26q38 0 68 22t37 54l25 118q6 28 -10 49l-3 2l-1 1q1 0 1 -1v0l-1 2q-6 20 -25.5 33t-48.5 13
q-39 0 -69.5 -23t-38.5 -56z" />
    <glyph glyph-name="FL2020h" unicode="&#x2020;" horiz-adv-x="517" 
d="M157 479h121l25 117h144l-25 -117h120l-27 -124h-120l-75 -355h-144l75 354h-121zM111 338h6l13 -17h98l-71 -337h6l13 -17h170l75 355h120l32 150l-13 17l1 6h-103l20 94l-13 17l1 6h-176l-25 -117h-121z" />
    <glyph glyph-name="FL2021h" unicode="&#x2021;" horiz-adv-x="517" 
d="M157 479h121l25 117h144l-25 -117h120l-27 -124h-120l-26 -124h120l-26 -124h-120l-23 -107h-144l23 106h-121l26 125h121l26 123h-121zM111 338h6l13 -17h98l-15 -74h-121l-34 -157h6l14 -17h98l-19 -89h6l13 -17h170l23 107h120l32 150l-14 17l2 6h-103l15 75h120
l32 150l-13 17l1 6h-103l20 94l-13 17l1 6h-176l-25 -117h-121z" />
    <glyph glyph-name="FL2022h" unicode="&#x2022;" horiz-adv-x="495" 
d="M119 123q-48 30 -30 112l26 123q6 29 18 53.5t33 42.5t51.5 28.5t72.5 10.5h103q51 0 77.5 -14.5t37.5 -39.5q-1 0 0 1l3 -5q14 -18 16 -43t-4 -54l-26 -123q-27 -127 -170 -127h-110q-70 0 -97 34zM494 358q6 25 4.5 47t-13.5 38t-35 25t-61 9h-103q-38 0 -65 -9
t-45 -25t-28.5 -38t-16.5 -47l-26 -123q-24 -114 99 -114h110q130 0 154 114z" />
    <glyph glyph-name="FL2026h" unicode="&#x2026;" horiz-adv-x="732" 
d="M68 63q6 26 31.5 44.5t57.5 18.5t50 -18.5t12 -44.5q-5 -26 -31 -44.5t-58 -18.5t-49.5 18.5t-12.5 44.5zM269 63q6 26 31.5 44.5t57.5 18.5t50 -18.5t12 -44.5q-5 -26 -31 -44.5t-58 -18.5t-49.5 18.5t-12.5 44.5zM470 63q6 26 31.5 44.5t57.5 18.5t50 -18.5t12 -44.5
q-5 -26 -31 -44.5t-58 -18.5t-49.5 18.5t-12.5 44.5zM454 63q-9 -44 26 -66l4 -4q19 -26 61 -26q38 0 68 22t37 54q6 28 -10 49l-4 4q-6 20 -25.5 33t-48.5 13q-39 0 -69.5 -23t-38.5 -56zM253 63q-9 -44 26 -66l4 -4q19 -26 61 -26q38 0 68 22t37 54q6 28 -10 49l-4 4
q-6 20 -25.5 33t-48.5 13q-39 0 -69.5 -23t-38.5 -56zM52 63q-9 -44 26 -66l4 -4q19 -26 61 -26q38 0 68 22t37 54q6 28 -10 49l-3 2l-1 1q1 0 1 -1v0l-1 2q-6 20 -25.5 33t-48.5 13q-39 0 -69.5 -23t-38.5 -56z" />
    <glyph glyph-name="FL2030h" unicode="&#x2030;" horiz-adv-x="1235" 
d="M1044 222q-45 0 -64 -11.5t-24 -31.5l-12 -56q-5 -20 8.5 -32.5t57.5 -12.5q25 0 41 2.5t26 8t15 14.5t8 23l11 53q2 9 1 17t-7.5 13.5t-21 9t-39.5 3.5zM1179 101q-5 -26 -17 -44.5t-34 -31.5t-55 -19t-80 -6q-45 0 -74 7t-44.5 19.5t-19.5 31t1 42.5l21 98
q10 48 51 74.5t133 26.5q47 0 76.5 -6t45.5 -18.5t19.5 -31t-1.5 -43.5zM694 222q-45 0 -64 -11.5t-24 -31.5l-12 -56q-5 -20 8.5 -32.5t57.5 -12.5q25 0 41 2.5t26 8t15 14.5t8 23l11 53q2 9 1 17t-7.5 13.5t-21 9t-39.5 3.5zM829 101q-5 -26 -17 -44.5t-34 -31.5t-55 -19
t-80 -6q-45 0 -74 7t-44.5 19.5t-19.5 31t1 42.5l21 98q10 48 51 74.5t133 26.5q47 0 76.5 -6t45.5 -18.5t19.5 -31t-1.5 -43.5zM327 518q-45 0 -64 -11.5t-24 -31.5l-12 -56q-5 -20 8 -32.5t57 -12.5q25 0 41.5 2.5t26.5 8t15 14.5t8 23l11 53q2 9 1 17t-7.5 13.5t-21 9
t-39.5 3.5zM462 397q-5 -26 -17 -44.5t-34 -31.5t-55 -19t-80 -6q-45 0 -74 7t-44.5 19.5t-19.5 31t1 42.5l21 98q10 48 50.5 74.5t132.5 26.5q47 0 77 -6t45.5 -18.5t19.5 -31t-2 -43.5zM107 0l636 596h139l-631 -596h-144zM512 476q11 50 -9 75l-4 5q-10 28 -45 41.5
t-107 13.5q-51 0 -86.5 -8t-59.5 -23t-37.5 -36.5t-19.5 -49.5l-21 -98q-7 -31 -1.5 -54t28.5 -38l2 -2q15 -19 47.5 -29t89.5 -10q24 0 45 1t39 5l-303 -285h9l13 -17h178l240 226l-20 -93q-6 -31 -1 -54t28 -38l2 -2q15 -19 47.5 -29t89.5 -10q80 0 123 17t63 52
q7 -16 26 -29l1 -1q15 -19 47.5 -29t89.5 -10q51 0 86.5 7t59.5 21t37 35.5t19 50.5l21 99q11 50 -9 75l-4 5q-10 28 -45 41.5t-107 13.5q-80 0 -123.5 -19t-63.5 -54q-1 4 -3 7l-4 6l-4 4q-9 29 -44.5 42.5t-107.5 13.5q-24 0 -45 -2t-39 -5l298 281l-14 18l5 5h-180
l-247 -232zM635 159q3 14 19 22t53 8q13 0 22.5 -1t15.5 -3q1 -2 0.5 -3t-0.5 -3l-11 -53q-4 -18 -17.5 -25t-53.5 -7q-28 0 -41 5zM268 455q3 14 19 22t53 8q13 0 22.5 -1t15.5 -3q1 -2 0.5 -3t-0.5 -3l-11 -53q-4 -18 -17.5 -25t-53.5 -7q-28 0 -41 5zM985 159q3 14 19 22
t53 8q13 0 22.5 -1t15.5 -3q1 -2 0.5 -3t-0.5 -3l-11 -53q-4 -18 -17.5 -25t-53.5 -7q-28 0 -41 5z" />
    <glyph glyph-name="FL2039h" unicode="&#x2039;" horiz-adv-x="318" 
d="M316 351l-117 -55l93 -56l-21 -100l-164 104l20 97l209 107zM358 475l-245 -125l-24 -115l9 -7l10 -11l187 -119l27 129l-13 17l1 5l-55 32l88 42l27 127l-14 17z" />
    <glyph glyph-name="FL203Ah" unicode="&#x203a;" horiz-adv-x="318" 
d="M140 475l191 -125l-1 -5l14 -17l-24 -111l-237 -119l-14 18l-6 -3l29 136l90 42l-51 32l-11 12l-9 6zM130 351l93 -55l-117 -56l-21 -100l208 104l20 97l-163 107z" />
    <glyph glyph-name="FL20ACh" unicode="&#x20ac;" horiz-adv-x="764" 
d="M149 441h127q38 75 95.5 115t138.5 40h304l-26 -119h-248q-39 0 -66 -9.5t-46 -26.5h233l-27 -124h-258l-7 -33h258l-26 -124h-236q22 -39 100 -39h248l-26 -121h-294q-91 0 -133 41t-46 119h-125l26 124h110l7 33h-110zM103 301h6l1 -1h-7l-33 -156h6l13 -17h112
q11 -67 51 -102q23 -29 60.5 -43.5t93.5 -14.5h307l31 147l-13 17l1 6h-103l30 140l-6 7h7l32 150l-8 10h130l31 145l-13 17l1 6h-320q-82 0 -142.5 -40t-103.5 -115h-131z" />
    <glyph glyph-name="FL04E5h" unicode="&#x2122;" horiz-adv-x="1206" 
d="M994 191q0 -1 3 -4zM990 196q0 -3 4 -5zM430 269q1 9 0 15h-1q-24 0 -53 -51l-3 -11l-2 -12q16 2 38 14q9 12 14 23t7 22zM218 196h7q13 0 25.5 5.5t29.5 19.5l-2 -11l7 -8q12 49 31 85q-10 5 -15 5q-20 0 -42 -24q-32 -30 -41 -69v-3zM1162 160l-4 -3l15 -18l-65 -52
l-14 18l-2 -2l-23 30q-17 4 -33 14.5t-30 29.5q-6 5 -11.5 10.5t-10.5 11.5l-13 -62l-55 -8l-8 10l-2 -11l-40 19l-12 14l-6 4q-2 7 -3.5 12t-2.5 10q-16 0 -47 -43h-60l-4 5l-76 -23l-5 6l-1 -5q-46 0 -81 43q-5 5 -9.5 10t-9.5 10l-13 -61l-57 -9l-15 18l-5 -1l7 35
q-32 -45 -68 -45q-7 0 -11 -1q-5 -1 -8.5 -1.5t-11.5 -0.5q-39 0 -55 20l-6 6q-12 7 -19 22l-9 -49q-22 -11 -32 -12.5t-20 -1.5q-29 0 -46 20l-5 5q-18 11 -25 33l-6 -25l-76 -27l-14 17l-5 -2l72 241l68 17l-2 -7l14 -17l-9 -35q48 42 154 60l-3 -7l15 -17l-12 -34
q21 25 54 44q5 4 9.5 5t9.5 1h8q51 0 68 -41l3 -4l12 60l82 -127l30 119l61 -23l-1 -5l13 -17l-4 -17l17 54l68 12l-2 -7l14 -17l-24 -92q17 28 36.5 55t45.5 53q18 10 36 10q31 0 40 -30l6 -7q4 -5 7 -15l12 63l82 -128l32 117l56 -22l-1 -5l13 -17l-4 -20l17 63l72 -20
l-2 -5l15 -17l-63 -168l-52 5l-14 16l-6 -31l20 13zM446 269q-3 -14 -9.5 -28t-18.5 -28q-34 -19 -54 -19q-29 0 -20 48l3 14q37 61 69 61q22 0 30 -24q2 -5 2 -11q0 -5 -2 -13zM811 264l50 65l9 -65h-59zM133 357l-61 -202l45 16l51 195zM323 369q-140 -23 -159 -114
q-2 -8 -2 -13q0 -4 -1 -13q-5 -87 52 -87q9 0 17 1t21 7l6 34q-5 -4 -36 -4q-40 0 -31 39q9 43 45 77q27 29 53 29q14 0 19 -4zM486 296q-2 69 -62 69h-8q-7 0 -11 -4q-79 -43 -106 -170q4 -34 55 -34q8 0 15 1t16 2q55 0 101 136zM664 354l-31 12l-34 -137l-81 124
l-39 -198l31 5l20 96q45 -96 93 -96zM720 366l-62 -202l47 14l50 194zM911 315q3 63 -33 63q-14 0 -25 -7q-46 -48 -74.5 -96.5t-42.5 -97.5h38q31 43 55 43t34 -43l19 -9zM1099 361l-28 11l-36 -134l-80 123l-38 -197l28 4l20 96q48 -98 92 -98zM1109 168l-30 -19l18 -24
l37 30zM1152 372l-39 -152l27 -3l54 144z" />
    <glyph glyph-name="FL06D9h" horiz-adv-x="955" 
d="M268 91v-4q2 -2 4 -3.5t4 -3.5zM803 402q3 14 5 27.5t2 25.5l-32 -150q2 5 4.5 10.5t4.5 10.5zM572 361q-36 -2 -57 -7t-34 -28h144l8 35h-61zM278 215q-5 -25 -10 -51t-4 -49l41 191q9 40 29 74t48 60t62 43t72 24h-59q-41 0 -67 -13.5t-43 -36.5t-26.5 -54t-16.5 -65z
M279 -101q-42 0 -73.5 14t-52.5 37q-29 23 -44.5 60t-21 83t-1 99t16.5 108q15 72 43.5 139.5t68 119.5t90 83.5t110.5 31.5h388q54 0 91 -22.5t58 -63.5q26 -38 33 -95.5t-8 -128.5l-18 -86q-41 -95 -106.5 -147t-170.5 -55l-1 1h-86l-13 17h-6l13 63h-150l-17 -80h-140
q13 -8 39 -8h9q5 0 8 1h342l-1 -6l13 -17l-31 -148h-382zM638 310h-199q8 30 18 46.5t24 24.5t33 10t45 3h97zM612 190l-17 -80h78l1 -1q96 3 156.5 52.5t100.5 139.5l18 83q13 60 9 110.5t-23 87t-53 56.5t-82 20h-388q-56 0 -103 -30t-84.5 -80t-64 -114.5t-41.5 -133.5
q-15 -71 -17.5 -137t13 -117.5t52 -82.5t99.5 -31h369l25 122h-324q-3 -1 -10 -1h-9q-40 0 -57.5 17.5t-22 44.5t0.5 59t11 61l26 123q8 37 18.5 70t29 58t47.5 39.5t74 14.5h275q45 0 68.5 -11.5t32.5 -31t7 -44t-8 -51.5l-16 -78q-20 -57 -71 -80l53 251h-226
q-41 0 -80 -13.5t-71 -38t-55 -59.5t-32 -78l-42 -196h117l17 80h199z" />
    <glyph glyph-name="FL0064h" horiz-adv-x="761" 
d="M278 372l-54 -253h204q38 0 66.5 11t48.5 29t33 41t20 47q4 32 0.5 55.5t-16.5 39t-36.5 23t-60.5 7.5h-205zM303 491h267q46 0 82 -19t58 -59q24 -38 30 -80t-4 -87h-2l1 -1q-10 -45 -32.5 -86t-63.5 -79q-38 -40 -83 -60t-91 -20h-410l127 596h144zM345 612h-176
l-133 -628h6l13 -17h423q49 0 96.5 21.5t88.5 63.5q38 37 62 76.5t35 84.5h2q12 54 6.5 101t-31.5 87q-2 4 -4.5 7.5t-5.5 7.5q-1 2 -1.5 3.5t-1.5 3.5q-24 43 -62 63.5t-88 20.5h-234l17 82l-13 17zM304 339h192q50 0 73 -17q9 -14 11 -32.5t0 -42.5q-7 -21 -18 -41.5
t-29 -36t-42.5 -25t-58.5 -9.5h-171z" />
    <glyph glyph-name="FLE005h" horiz-adv-x="761" 
d="M276 226q-6 -33 3 -60q11 -14 32 -22.5t53 -8.5h188l43 204h-169q-67 0 -100 -27.5t-50 -85.5zM194 423q42 43 89 63.5t97 20.5h251l22 105h176l-1 -6l13 -17l-132 -622h-423q-83 0 -131 56q-11 10 -20 21.5t-16 25.5q-23 37 -30.5 76t-0.5 84h-1q12 57 37.5 104.5
t69.5 88.5zM618 372l-54 -253h-204q-38 0 -61.5 11t-36 29t-15 41t0.5 47q10 32 23 55.5t32.5 39t46 23t63.5 7.5h205zM643 491h-267q-46 0 -90 -19t-82 -59q-41 -38 -64.5 -80t-33.5 -87h2l-1 -1q-10 -45 -4 -86t30 -79q22 -40 58 -60t82 -20h410l127 596h-144z" />
  </font>
</defs>
</svg>
