<?xml version="1.0" standalone="no"?>
<!DOCTYPE svg PUBLIC "-//W3C//DTD SVG 1.1//EN" "http://www.w3.org/Graphics/SVG/1.1/DTD/svg11.dtd" >
<svg xmlns="http://www.w3.org/2000/svg" xmlns:xlink="http://www.w3.org/1999/xlink" version="1.1">
<metadata></metadata>
<defs>
<font id="biergrten_expandedexpanded" horiz-adv-x="1349" >
<font-face units-per-em="2048" ascent="1638" descent="-410" />
<missing-glyph horiz-adv-x="491" />
<glyph horiz-adv-x="0" />
<glyph unicode="&#xd;" horiz-adv-x="1024" />
<glyph unicode=" "  horiz-adv-x="491" />
<glyph unicode="&#x09;" horiz-adv-x="491" />
<glyph unicode="&#xa0;" horiz-adv-x="491" />
<glyph unicode="!" horiz-adv-x="829" d="M-2 1282q0 -82 127 -65q2 -20 9 -71.5t14.5 -109t12.5 -108.5t5 -72q0 -49 -19.5 -77.5t-43 -48t-43 -39t-19.5 -50.5q0 -4 2 -10l2 -6l281 -232q-31 -18 -60.5 -38.5t-53.5 -45t-39 -53.5t-15 -61q0 -37 22.5 -73t57 -63.5t78.5 -45t87 -17.5q41 0 77 13.5t63.5 36 t44 52t16.5 64.5q0 23 -9 56.5t-24.5 67t-37 63.5t-48.5 44l281 232q10 8 -7.5 30.5t-33.5 34.5q-6 4 -19.5 9.5t-28.5 10.5t-30.5 9t-21.5 4v592q0 25 -30 64.5t-71 76.5t-85 64.5t-72 27.5q-35 0 -96.5 -30.5t-122 -72.5t-105.5 -87t-45 -76z" />
<glyph unicode="&#x22;" horiz-adv-x="1273" d="M0 1311l147 -197l160 -192l41 -33l6 -1t15 -1q2 0 8 1t10 1q20 2 52 23.5t62.5 47t55.5 51t29 38.5q0 2 1 14t3 28.5t3 35t1 32.5q0 119 -45 207t-162 162l-305 -51zM635 1313l147 -197l160 -192l41 -31l7 -2q7 -2 14 -2q6 0 10 2t10 2q18 2 50 22.5t62.5 46t55.5 52 t31 39.5l2 12q2 12 2 29q0 18 1 36.5t1 32.5q0 117 -44 206t-161 163l-305 -53z" />
<glyph unicode="#" horiz-adv-x="1939" d="M0 788l135 -53l223 -14l11 -154l-351 -55q-6 0 18.5 -7t73 -17.5t115 -19.5t144.5 -13l-11 -195q0 -27 29 -71t69 -87t82 -73.5t70 -30.5q23 0 57.5 16.5t74.5 42t80 58t72 65.5t52.5 63.5t20.5 53.5q0 94 -125 76q-6 14 -8.5 32.5t-4.5 40.5q63 -4 123 -6t119 -8v-166 q0 -29 28.5 -72.5t69.5 -87t83 -74t71 -30.5q33 0 93.5 35t118.5 82t101 98t43 86q0 94 -127 76q-2 12 -6 28.5t-6 45.5q100 12 168 21t111 30q6 2 -5 5l-10 3l-272 27q-8 29 -9 57.5t-3 56.5q70 4 127 16.5t103 29t82 34t62 31.5q8 2 -4 5l-12 3l-367 37q2 47 22.5 74.5 t42 49t40 42t18.5 53.5q0 4 -2 12l-2 7q-47 70 -132 141.5t-193 138.5q-109 -82 -176.5 -132t-105.5 -81t-52.5 -46t-14.5 -28q0 -10 9 -34q8 -27 10 -31t14 -12q23 -10 48.5 -18.5t33.5 -8.5v-80l-199 21l-51 -5q10 25 27.5 41.5t34 30.5t29 31.5t12.5 46.5q0 6 -4 13l-3 7 q-47 68 -132 139.5t-195 141.5q-109 -82 -175.5 -132t-104.5 -81t-51 -47t-13 -29q0 -8 7 -34.5t9 -28.5q6 -6 19.5 -12.5t29 -12.5t29.5 -10t20 -4v-107zM803 690l266 -16v-92l-197 20l-61 -8q-2 29 -5 51.5t-3 44.5z" />
<glyph unicode="$" horiz-adv-x="1099" d="M0 442q0 -6 1 -10l1 -4q2 -10 23.5 -36.5t47 -56.5t49 -56.5t34.5 -36.5q2 -4 16 -21.5t33.5 -36t42 -34t43.5 -15.5q8 0 12 1t8 1q18 6 43 11.5t60 13.5q14 -29 30.5 -58.5t34 -52t33.5 -37t29 -14.5q18 0 45.5 22.5t56.5 57.5t55.5 77t42.5 79q37 8 61.5 13t41.5 9 q25 8 59.5 19.5t65 26.5t53 33.5t22.5 43.5l5 160l-410 217l20 -31q25 -6 48 -6q27 0 85 11t116.5 29.5t102.5 43t44 51.5q0 2 -3 8l-3 6q-10 6 -32 33t-47.5 58.5t-48 60.5t-30.5 39q-6 0 -17.5 16.5t-28 34.5t-38 34.5t-45.5 16.5q-8 0 -11 -3t-12 -3q-6 -2 -22.5 -7 t-38.5 -9q-29 47 -64.5 93t-81.5 91q-51 -63 -86.5 -108.5t-61.5 -76t-40 -49t-22 -30.5q-41 -6 -71 -12.5t-48 -14.5q-29 -6 -61.5 -18t-61.5 -27.5t-48.5 -35t-19.5 -40.5v-131l418 -204l-43 -11q-18 8 -45 8q-25 0 -81 -11t-114.5 -29.5t-102.5 -42t-44 -50.5z" />
<glyph unicode="%" horiz-adv-x="1454" d="M0 840q0 -16 39 -42t89 -50.5t101.5 -43t75.5 -18.5q4 0 11 1l6 1q4 0 18 9.5t31.5 20.5t33 21.5t19.5 12.5q37 14 59.5 23t42.5 20l-278 -539q-16 -27 -10 -74t23.5 -92t43 -79t51.5 -34q25 0 78 18.5t117.5 55.5t129 91.5t112.5 125.5q14 -20 50 -57t78 -73t81.5 -62.5 t62.5 -26.5q8 0 14 1l6 1q2 0 16.5 9.5t32 20.5t32 21.5t20.5 12.5q80 35 124 51t65.5 38.5t26.5 63.5t5 125v25q0 16 -2 35.5t-2 35.5v25q-8 27 -23.5 57.5t-38 58t-51 48t-63.5 27.5q-6 -2 -23.5 -9.5t-38 -15.5t-37 -14.5t-22.5 -6.5q-12 -6 -35.5 -10t-52.5 -9 t-60.5 -11t-62.5 -13q29 61 50.5 112.5t35.5 74.5q31 57 67.5 90t71.5 57.5t64.5 46t46.5 58.5q2 2 2 14v8q-8 72 -52 145.5t-118 145.5q-176 -96 -272.5 -151.5t-147.5 -86.5v21q-10 25 -26.5 55.5t-39 58t-51 49t-63.5 27.5q-4 -2 -21.5 -9t-38 -15t-38 -15.5t-23.5 -7.5 q-20 -6 -70.5 -15t-103.5 -18.5t-94 -17.5t-41 -12v-350q-33 0 -33 -29v-12zM322 895v287q16 -4 28 -20.5t12 -26.5v-261q-12 0 -26 5.5t-14 15.5zM1085 258v287q16 -4 27.5 -19.5t11.5 -25.5v-262q-14 0 -26.5 5t-12.5 15z" />
<glyph unicode="&#x26;" horiz-adv-x="1140" d="M0 352q0 -53 53 -116.5t135 -116.5l-6 -129q-6 -29 12.5 -76t46 -92t58.5 -79t49 -34q23 0 63 37t77.5 89t66.5 106.5t29 91.5q45 25 106.5 57.5t121.5 65t111.5 60.5t73.5 40q27 14 42.5 23.5t24.5 18.5t12 21.5t3 32.5q0 23 -13 43.5t-50 20.5q-55 0 -105.5 -17.5 t-111.5 -17.5q-25 0 -61 5t-72.5 14.5t-69.5 24.5t-53 34q0 4 2 6t2 4q68 12 151.5 32.5t157.5 41t121 38t41 21.5l-375 160l-123 -49v245q12 -16 23.5 -35.5t29 -37t42 -29.5t65.5 -12q29 0 85 10t112.5 30.5t98.5 48.5t42 64q0 6 -1 13l-1 6q-8 8 -21.5 34.5t-28 58.5 t-26.5 61.5t-20 43.5q-6 2 -20.5 22.5t-33 44.5t-41 43t-47.5 19q-6 0 -10 -1t-10 -1q-29 -8 -87.5 -25.5t-129.5 -37.5q16 25 26.5 46.5t10.5 55.5q0 6 -4 14l-3 9q-37 74 -90 151.5t-125 149.5q-72 -88 -117.5 -143.5t-71.5 -88t-35 -49t-9 -26.5q0 -4 2 -15.5t4 -23.5 t4 -22l2 -11q2 -6 11.5 -13t19.5 -13.5t19.5 -11.5t13.5 -5v-100q-29 -10 -63 -25.5t-64.5 -36t-51 -45t-20.5 -53.5v-670z" />
<glyph unicode="'" horiz-adv-x="638" d="M0 1311l147 -197l160 -192l41 -33l6 -1t15 -1q2 0 8 1t10 1q20 2 52 23.5t62.5 47t55.5 51t29 38.5q0 2 1 14t3 28.5t3 35t1 32.5q0 119 -45 207t-162 162l-305 -51z" />
<glyph unicode="(" horiz-adv-x="624" d="M0 317q0 -47 28.5 -97t76 -99t106.5 -94t120.5 -79t120 -53.5t101.5 -19.5q8 0 28.5 -1t40 2t36 11.5t20.5 26.5q-80 12 -133 59t-86 122t-48.5 173.5t-20.5 212t-2 240.5t5 258q0 41 12.5 78t34.5 69l70 152l-70 29l-200 114l-8 1q-7 1 -15 1q-2 0 -10 -1l-8 -1 l-127 -118q-29 -16 -45.5 -48t-26.5 -55v-883zM510 1278l10 -4z" />
<glyph unicode=")" horiz-adv-x="626" d="M-125 -86q2 -18 18.5 -26.5t37 -11.5t40 -2t29.5 1q43 0 101.5 19.5t120 53.5t120.5 79t106.5 94t76 99t28.5 97v883q-10 23 -26.5 54.5t-45.5 48.5l-129 118l-7 1t-9 1q-8 0 -16 -1l-9 -1l-198 -114l-70 -29l70 -152q45 -68 45 -147q2 -131 4 -258t-2 -240.5t-18.5 -212 t-47.5 -173.5t-86 -122t-133 -59zM33 1274l10 4z" />
<glyph unicode="*" horiz-adv-x="700" d="M2 1718q-6 0 7.5 -23.5t40 -60.5t63.5 -84t73 -96l-161 -289q-4 -4 21.5 6.5t68.5 30t98 46t109 55.5q29 -31 45 -35q45 -12 78.5 -23.5t62.5 -19.5t53.5 -11.5t52.5 0.5q2 0 2 5v6l-110 178q37 23 54.5 38t21.5 19q14 37 27.5 63.5t23.5 50t14 43t0 42.5q0 2 -4 2h-8 l-234 -90z" />
<glyph unicode="+" horiz-adv-x="931" d="M2 627q-4 -4 26.5 -12.5t83 -19.5t119 -24.5t136.5 -25.5l139 -297q2 -6 11 15.5t21.5 60t27 89t30.5 101.5q45 -4 61 0q86 35 140.5 51.5t83.5 50.5q6 2 -1 6l-6 5l-235 63q4 29 5 50.5t-1 31.5q-23 33 -37 61.5t-28.5 50t-28.5 38t-37 28.5q-2 4 -6 0l-4 -4l-84 -196z " />
<glyph unicode="," horiz-adv-x="573" d="M0 -258q0 55 46 109.5t171 115.5q-29 14 -61.5 35t-61 47.5t-50 59t-26.5 71.5q25 86 98.5 130t184.5 50l127 -26q31 -33 50.5 -56.5t29.5 -47t14 -51t4 -66.5q0 -94 -49 -164t-126 -116t-170 -68.5t-181 -22.5z" />
<glyph unicode="-" horiz-adv-x="839" d="M2 713q-6 -4 33 -21.5t100.5 -41t136 -49.5t141 -45t116 -28.5t59.5 -1.5q78 53 127 86t73 86q6 2 0 8l-6 7l-403 205z" />
<glyph unicode="." horiz-adv-x="503" d="M0 193q0 31 15.5 58.5t39 50t52 43t57.5 38.5q147 -16 212.5 -67.5t65.5 -155.5q0 -33 -16 -62.5t-43 -51t-63.5 -35t-75.5 -13.5q-43 0 -87 17.5t-79 45t-56.5 62.5t-21.5 70z" />
<glyph unicode="/" horiz-adv-x="1007" d="M-28 182q-5 47 12 74l366 702q-14 0 -39.5 15.5t-34.5 25.5v13q0 10 2.5 21t5.5 21.5t7 14.5q8 10 31.5 25.5t78 47.5t149.5 86t249 140q150 -143 172 -291v-8q0 -12 -4 -14q-16 -37 -46 -58.5t-65 -46t-71.5 -57.5t-67.5 -90q-12 -25 -40 -85.5t-57.5 -129t-54 -130 t-33.5 -85.5q72 14 90.5 -8.5t-6.5 -71.5q-14 -23 -51 -55.5t-87 -67.5t-107.5 -69.5t-111.5 -61.5t-98 -44.5t-69 -17.5q-27 0 -53.5 34t-44 79t-22.5 92z" />
<glyph unicode="0" d="M2 307q0 -23 36 -54.5t92 -65t125 -68.5t137.5 -61.5t127 -43t92.5 -16.5q10 0 22 1l13 1q8 2 37 20.5t62.5 41t63.5 42t38 23.5q109 47 183.5 75.5t123.5 52.5t77 50.5t40 72.5t15 119.5t3 188.5v47q0 35 -1 72t-1 72v49q-18 55 -50 115.5t-77 114.5t-104.5 96 t-130.5 59q-10 -6 -44 -21.5t-74 -31t-75 -28.5t-45 -16q-29 -10 -85 -21t-125.5 -23.5t-142.5 -24.5t-132.5 -23.5t-98 -20.5t-38.5 -16v-702q-35 0 -49.5 -15.5t-14.5 -37.5v-23zM647 416v575q25 -14 52.5 -45t27.5 -51v-518q-25 0 -52.5 9t-27.5 30z" />
<glyph unicode="1" horiz-adv-x="829" d="M25 1034q0 -8 8 -34.5t10 -28.5q4 -6 18.5 -12.5t29.5 -12.5t30.5 -10t21.5 -4v-672q0 -27 29 -71t70 -87t85 -73.5t74 -30.5q35 0 96.5 35t122 82t105.5 98t45 84q0 94 -127 76q-6 23 -13 81t-13.5 124.5t-10.5 125t-4 80.5q0 55 19.5 87t43 53.5t43 42t19.5 55.5 q0 6 -3 13l-3 7q-47 68 -134 139.5t-204 141.5q-113 -82 -182.5 -133t-108.5 -82t-53 -46t-14 -28z" />
<glyph unicode="2" horiz-adv-x="1087" d="M0 936q0 -37 43 -68.5t99.5 -56.5t112.5 -39t83 -14q39 0 68.5 24.5t52 57t39 65.5t28.5 51l52 -63l-576 -373l16 -270q0 -25 21.5 -50.5t51.5 -47t62.5 -39t55.5 -25.5q31 -10 102.5 -22.5t152.5 -24.5t153.5 -25.5t103.5 -23.5q8 0 12 -1t8 -1q23 0 45.5 19.5t40 44 t30.5 46t17 25.5q10 12 34 48t47.5 77t44 75.5t24.5 47.5l1 6t1 12q0 33 -43 64.5t-100.5 56.5t-113.5 40t-81 15q-29 0 -49 -14l375 285v178q0 27 -18.5 51.5t-46 43.5t-60.5 34.5t-62 25.5q-31 10 -105.5 33t-157.5 47.5t-156.5 48t-102.5 35.5q-8 0 -12 2t-12 2 q-20 0 -42 -20.5t-39.5 -45t-29.5 -46t-14 -23.5q-8 -12 -29 -50t-45.5 -80t-47 -76.5t-32.5 -41.5l-1 -9q-1 -9 -1 -11zM379 342l209 172q-14 -18 -24.5 -49t-19.5 -62.5t-18.5 -57.5t-19.5 -34z" />
<glyph unicode="3" horiz-adv-x="1140" d="M0 352q0 -20 3 -32.5t12.5 -21.5t24.5 -18.5t42 -23.5q16 -10 54 -30.5t85 -46t100.5 -54.5t100.5 -53.5t85 -44t56 -27.5q2 0 15.5 -1t23.5 -1q55 0 136 36t157 89t130 114.5t54 114.5v670q0 29 -21.5 53.5t-52 45t-64.5 35.5t-60 26q-23 6 -66 18t-98 27.5t-114.5 33 t-115 33t-99.5 28.5t-66 19q-2 0 -8.5 1t-8.5 1q-27 0 -49.5 -19t-39.5 -43t-30.5 -44t-21.5 -23q-10 -12 -22.5 -41.5t-27 -61.5t-27.5 -59.5t-24 -35.5l-1 -6t-1 -13q0 -37 42 -64.5t99.5 -48t113 -30.5t83.5 -10q39 0 66 12t44 29.5t29.5 37t24.5 35.5v-245l-123 49 l-379 -160q-4 -4 44.5 -20.5t122 -38t159.5 -43t156 -33.5q-18 -23 -52 -39t-72 -26.5t-75 -15.5t-63 -5q-61 0 -111.5 17.5t-106.5 17.5q-37 0 -50 -20.5t-13 -43.5z" />
<glyph unicode="4" horiz-adv-x="1146" d="M2 575q0 -10 38 -29.5t94 -45t124 -52t126 -50t98 -41t44 -23.5q6 -10 18.5 -47t26 -79t24.5 -77t13 -41q12 -29 17.5 -46t9.5 -26.5t15.5 -13.5t35.5 -4q43 0 74 28.5t53.5 73.5t35.5 101.5t22.5 110t13.5 99t6 70.5q8 0 20.5 2t20.5 2q18 0 30.5 -6t23.5 -12t21.5 -12 t24.5 -6q41 0 54.5 18t13.5 43v33q0 51 -28 93t-60.5 81t-60 81t-27.5 97q0 49 24.5 96t49 85t35.5 64.5t-15 35.5l-283 102q-84 -23 -145.5 -51.5t-100.5 -85.5q-4 0 -41.5 19.5t-87 42t-98.5 42t-76 19.5q-29 0 -60.5 -24.5t-59 -56.5t-46 -61.5t-18.5 -40.5v-508z M410 662v331l39 31l40 -31v-270z" />
<glyph unicode="5" horiz-adv-x="1146" d="M0 1081q4 -51 9 -73.5t10.5 -40t8.5 -43t3 -80.5q8 -104 -1.5 -182t-9.5 -138q0 -14 13.5 -24.5t52.5 -10.5q6 0 13 -1t14 1q49 -25 147 -18q39 4 80 3t76 -2t63 -1q29 0 45 6q25 -10 42.5 -18t17.5 -21v-237q-12 10 -29.5 27.5t-42.5 35t-56.5 29.5t-74.5 12 q-29 0 -88.5 -8t-119.5 -20.5t-106.5 -30t-46.5 -35.5q0 -2 2 -6l3 -4q8 -4 30.5 -23.5t49 -41t49 -41t30.5 -25.5q4 -4 18.5 -15.5t34 -24t43 -22.5t46.5 -10q2 0 8 1t8 1q20 4 64.5 11t98.5 15.5t114.5 17.5t116 17.5t99.5 14.5t66 8q27 4 60.5 12t64.5 18.5t52.5 24 t21.5 29.5v356q0 27 -54.5 59.5t-130 61.5t-157.5 48.5t-140 19.5q-4 0 -18 -1t-16 -1q-23 -6 -65 -17.5t-95 -27.5q-18 14 -6 24l6 289l496 -92q0 2 16 13t27 20l75 34q-8 2 -16 8.5t20 6.5q0 8 -2 12l-2 4q-20 51 -76.5 104.5t-119 100.5t-119.5 84t-80 57h-10q2 4 4 7 t2 10q-51 0 -133 -22.5t-173 -59.5t-180.5 -85t-152.5 -100z" />
<glyph unicode="6" horiz-adv-x="1181" d="M0 346v576q0 63 52 135.5t130 135t169 104.5t171 42q29 0 84.5 -22.5t122 -57t136 -77.5t126 -84t93 -76t36.5 -51q0 -29 -21.5 -40t-56.5 -11q-37 0 -65.5 6t-56 12t-56 12t-65.5 6q-35 0 -84 -10t-93 -28.5t-75 -46t-31 -60.5q0 -47 42 -79t104.5 -57.5t135 -48 t135 -50t104.5 -64.5t42 -90q0 -10 -1 -25.5t-1 -17.5l-278 -352q-2 -2 -33 -13.5t-47 -17.5h-23q-37 0 -102.5 15.5t-142 42t-157.5 61.5t-145.5 73.5t-106.5 79.5t-42 78zM479 379q2 4 12.5 18.5t23.5 29.5t24.5 29.5t17.5 18.5q10 12 25.5 37t15.5 27q0 8 -19.5 20 t-42 21.5t-41 15.5t-16.5 6v-223z" />
<glyph unicode="7" horiz-adv-x="1161" d="M0 969q0 8 1 12l1 4q18 51 73.5 104.5t120 100.5t123 85t80.5 56h11q-8 6 -9 17q51 0 133 -22.5t173.5 -59.5t180.5 -85t154 -100q-14 -104 -22 -198.5t-8 -206.5v-357q6 -6 17 -19t23.5 -29.5t23.5 -32t18 -21.5l1 -6t1 -10q-63 -35 -115.5 -85t-96.5 -90t-85 -55.5 t-82 21.5l-180 192q-2 2 -3.5 13.5t-1.5 19.5q0 29 15.5 50.5t68.5 15.5v696l-493 -92q0 2 -16.5 13.5t-26.5 19.5l-78 34q8 2 17.5 8.5t-19.5 6.5z" />
<glyph unicode="8" horiz-adv-x="1087" d="M0 391q0 -6 1 -12l1 -6q2 -10 22.5 -46t45 -77t48 -77t34.5 -48q2 -4 15 -25.5t31.5 -46t40 -44t42.5 -19.5q8 0 12 1t12 1q31 10 103.5 23.5t153.5 25.5t152.5 24.5t102.5 22.5q23 10 55.5 26.5t62.5 37t51.5 45t21.5 53.5l16 270l-223 166q37 12 77 41t72.5 64.5 t54 74.5t21.5 70q0 2 -1 11l-1 9q-10 6 -32.5 41t-47 77t-45 80t-29.5 50q-4 2 -16 23.5t-29.5 46t-39 45t-44.5 20.5q-4 0 -8 -2t-12 -2q-31 -12 -104.5 -35.5t-155.5 -48t-156 -47t-106 -33.5q-29 -10 -62 -25.5t-60.5 -34.5t-46 -44t-18.5 -51v-178l285 -232 q-25 12 -47 12q-25 0 -68 -23.5t-83 -57t-69.5 -73.5t-29.5 -73zM403 862l93 94q18 -23 36.5 -81t49.5 -111zM520 311q-10 8 2.5 43t20.5 72l104 -84z" />
<glyph unicode="9" horiz-adv-x="1181" d="M-2 367q0 29 21.5 40t56.5 11q37 0 65.5 -6t56 -12.5t56.5 -12.5t65 -6q35 0 84.5 10t93.5 28.5t74.5 45.5t30.5 61q0 45 -42 78t-105.5 58.5t-136 48t-136 50t-105.5 63.5t-42 89q0 10 3 26.5t3 18.5l278 353q2 2 33 12t47 18h21q37 0 103.5 -15t143 -42t157.5 -61.5 t145.5 -73.5t106.5 -80t42 -78v-575q0 -63 -52 -136t-131 -135.5t-170 -104.5t-169 -42q-29 0 -85 22.5t-121.5 57.5t-135.5 78t-127 84t-93 74.5t-36 52.5zM520 799q0 -10 19.5 -21.5t42 -20.5t41 -15.5t16.5 -6.5v223q-4 -4 -16.5 -17t-25.5 -28.5t-25.5 -30t-14.5 -20.5 q-8 -12 -22.5 -36.5t-14.5 -26.5z" />
<glyph unicode=":" horiz-adv-x="503" d="M0 193q0 31 15.5 58.5t39 50t52 43t57.5 38.5q147 -16 212.5 -67.5t65.5 -155.5q0 -33 -16 -62.5t-43 -51t-63.5 -35t-75.5 -13.5q-43 0 -87 17.5t-79 45t-56.5 62.5t-21.5 70zM0 956q0 31 15.5 58.5t39 50t52 43.5t57.5 39q147 -16 212.5 -67.5t65.5 -155.5 q0 -33 -16 -63t-43 -51.5t-63.5 -34.5t-75.5 -13q-43 0 -87 17.5t-79 45t-56.5 62.5t-21.5 69z" />
<glyph unicode=";" horiz-adv-x="573" d="M0 -258q0 55 46 109.5t171 115.5q-29 14 -61.5 35t-61 47.5t-50 59t-26.5 71.5q25 86 98.5 130t184.5 50l127 -26q31 -33 50.5 -56.5t29.5 -47t14 -51t4 -66.5q0 -94 -49 -164t-126 -116t-170 -68.5t-181 -22.5zM0 956q0 31 15.5 58.5t39 50t52 43.5t57.5 39 q147 -16 212.5 -67.5t65.5 -155.5q0 -33 -16 -63t-43 -51.5t-63.5 -34.5t-75.5 -13q-43 0 -87 17.5t-79 45t-56.5 62.5t-21.5 69z" />
<glyph unicode="&#x3c;" horiz-adv-x="765" d="M2 688q-8 -10 22.5 -55t81 -106.5t112 -130t116.5 -125t94 -91.5t45 -30l246 276l-357 246q14 10 58.5 44t94.5 73.5t96 78.5t67 58q10 8 2 34.5t-27.5 61.5t-46 73t-52.5 67.5t-45.5 48t-23.5 14.5z" />
<glyph unicode="=" horiz-adv-x="1136" d="M2 627q-6 -2 37 -13.5t111.5 -26t152.5 -29.5t159 -26.5t130 -17.5t65 0q86 35 140.5 51.5t83.5 50.5q6 2 -1 6l-6 5l-454 123zM209 911q-6 -2 36 -12t110.5 -25.5t151.5 -31t157.5 -26.5t130 -17t67.5 0q43 18 78 30.5t62.5 22.5t48 21.5t36.5 27.5q2 4 -3 7l-5 3 l-452 123z" />
<glyph unicode="&#x3e;" horiz-adv-x="765" d="M0 426l356 246q-16 10 -59 44t-93 73.5t-96.5 78.5t-66.5 58q-10 8 -2 34.5t27.5 61.5t46 73t52 67.5t44 48t24.5 14.5l484 -537q8 -10 -22.5 -55t-81 -106.5t-112 -130t-116.5 -125t-94 -91.5t-45 -30z" />
<glyph unicode="?" horiz-adv-x="1058" d="M0 1122q0 -35 43 -67.5t99.5 -57t112.5 -39t83 -14.5q35 0 51 14l-387 -249l223 -217l250 176q-6 0 35 21.5t97.5 52t111.5 61.5t78 49l217 172v178q0 27 -18.5 51.5t-46 44t-60.5 36t-62 26.5q-31 10 -104.5 31.5t-156.5 46t-156.5 48t-104.5 36.5q-8 0 -12 2t-12 2 q-20 0 -42 -20.5t-39.5 -45t-29.5 -46t-14 -23.5q-8 -12 -29 -50t-45.5 -79t-47 -76t-32.5 -43l-1 -9q-1 -8 -1 -12zM18 193q0 -35 21.5 -70t56.5 -62.5t78 -45t86 -17.5q41 0 77 13.5t63.5 35t44 51t16.5 62.5q0 104 -66 155.5t-213 67.5q-29 -18 -57.5 -38.5t-52 -43 t-39 -50.5t-15.5 -58zM403 969q20 16 40 39.5t35.5 48t27.5 47.5t20 39l52 -64z" />
<glyph unicode="@" horiz-adv-x="1239" d="M0 270q14 -31 55 -60.5t96.5 -56t119 -48t125 -35t114.5 -17.5t88 4q10 2 22 9l13 6q14 8 48 26.5t76 41t89 48t90 49t75.5 45t45.5 33.5q18 18 30.5 31.5t16.5 24t2 23t-12 28.5q-6 23 -24.5 37t-55.5 8q-55 -16 -98.5 -43t-104.5 -43q-33 -6 -89 5t-113.5 33.5 t-104.5 52.5t-60 58l88 463q23 -14 72 -32.5t113 -38.5q-41 -43 -61.5 -88.5t1.5 -92.5q10 -35 49 -61.5t91.5 -44t110 -23.5t100.5 4q43 12 79.5 35t59 51.5t29 61.5t-8.5 67q-27 61 -21.5 101.5t18 72t21.5 62.5t-5 76q-8 6 -10 10l-3 4q-12 10 -62 31.5t-108.5 46.5 t-110.5 48.5t-67 35.5q-6 0 5.5 9t23.5 19.5t15 19.5t-21 9l-207 29q-2 0 -6.5 -3t-10.5 -3q-16 -10 -54 -30.5t-85 -47.5t-99 -55.5t-100.5 -55t-86 -48t-56.5 -32.5q-20 -14 -48 -36.5t-51.5 -48t-34.5 -54t1 -53.5z" />
<glyph unicode="A" horiz-adv-x="1294" d="M0 518v166v41q0 37 1 67.5t1 67.5v41q12 88 69.5 145.5t136.5 96.5t168 68.5t167 64.5q23 10 39 20.5t31.5 17.5t33 12t41.5 5q39 0 69.5 -16.5t60.5 -40t60.5 -49t71.5 -43.5q25 -14 65 -26.5t77.5 -28t66.5 -37t29 -56.5q0 -23 -12.5 -34t-29 -18t-34.5 -15.5 t-33 -20.5q-16 -68 -16 -119v-114v-82v-33v-90v-16q0 -6 2 -26t7 -42.5t16.5 -39.5t29.5 -17q23 0 33 8t31 8q6 0 15 -8t18.5 -20.5t16.5 -25t7 -20.5q0 -14 -2 -20t-8 -11.5t-16.5 -9.5t-26.5 -14q-16 -16 -53 -45t-80 -59.5t-81 -59.5t-52 -43h-31q-49 0 -93 34t-81 76 t-64.5 75.5t-42.5 33.5q-29 0 -65.5 -33.5t-78.5 -75.5t-86 -76t-83 -34q-37 0 -63.5 17.5t-53.5 37.5q-111 88 -144.5 190.5t-33.5 225.5zM492 590q0 -49 2 -101.5t10 -111.5q0 -10 16 -17h6h9q6 4 16 14.5t21.5 21t18.5 21.5t7 17v512l-8 6t-19 15q-14 10 -27.5 27.5 t-23.5 21.5h-10h-6l-12 -58v-16v-96v-39v-217z" />
<glyph unicode="B" horiz-adv-x="1216" d="M0 1438q4 -14 23.5 -52t41 -82t39 -86t17.5 -67v-768q-6 -4 -18.5 -12.5t-24.5 -17.5t-22.5 -18t-14.5 -16l-3 -6q-3 -6 -3 -10t3 -10l3 -6q14 -18 53 -48t89 -64t105.5 -66.5t103.5 -58t83 -40t45 -10.5l557 223q2 0 16.5 23.5t24.5 40.5q6 12 15.5 36.5t16.5 41t7 18.5 v479q0 25 -30.5 69t-73.5 86t-87 72.5t-71 30.5q-35 0 -74 -15t-76.5 -36.5t-75.5 -43t-71 -34.5v29q0 20 -1 42.5t-1 43.5v27q0 78 18.5 126t45 74.5t59.5 37.5t59.5 18.5t45 16.5t18.5 30q0 29 -7.5 49t-35.5 49q-66 -8 -128.5 -14.5t-123 -15.5t-117.5 -24.5t-111 -41.5 l-120 -64l-7 -1q-8 -1 -14 -1q-4 0 -12 1l-8 1q-6 4 -23.5 17.5t-37 29t-36 29.5t-20.5 20zM598 383v416q0 20 28.5 29.5t51.5 9.5v-519z" />
<glyph unicode="C" horiz-adv-x="1140" d="M0 352q0 -53 54.5 -114.5t131 -114.5t158.5 -89t135 -36q10 0 23.5 1t17.5 1q18 8 56 27.5t84.5 45t98.5 53.5t98 53.5t84 46t56 30.5q27 14 42.5 23.5t24.5 18.5t12 21.5t3 32.5q0 23 -13 43.5t-50 20.5q-55 0 -105.5 -17.5t-111.5 -17.5q-31 0 -78 8t-92 24.5t-77 41 t-32 57.5v446q12 -16 29.5 -47.5t41 -64.5t55.5 -57.5t73 -24.5q27 0 87 14.5t120.5 39t106.5 56t46 68.5q0 4 -1 10l-1 6q-8 10 -30.5 46t-48 78t-48 80t-30.5 52q-6 2 -20.5 22.5t-33 44.5t-41 43t-47.5 19q-6 0 -10 -1t-10 -1q-23 -6 -66 -19t-98 -28.5t-114.5 -33 t-115 -33t-99.5 -27.5l-66 -18q-29 -10 -63 -25.5t-64.5 -36t-51 -45t-20.5 -53.5v-670z" />
<glyph unicode="D" horiz-adv-x="1136" d="M0 256q0 -6 31.5 -26.5t81 -49t108 -60.5t111.5 -58.5t94 -44t53 -17.5q18 0 69.5 18.5t118 47t139.5 63.5t133 71t99 67.5t39 51.5v576q0 25 -21.5 58.5t-52 67.5t-65.5 60.5t-59 36.5q-25 12 -92.5 40t-144.5 58.5t-145.5 57t-97.5 37.5q0 2 -1 7t-1 7q0 18 21.5 31.5 t46 29t46 38t21.5 59.5q-88 0 -170.5 -8.5t-146 -36t-101.5 -77.5t-38 -132q0 -55 22.5 -102.5t60.5 -85t89 -70.5t110 -62h-262v-557q-10 -6 -26.5 -18t-31.5 -25.5t-26.5 -28t-11.5 -24.5zM557 383v479l82 -63v-480z" />
<glyph unicode="E" horiz-adv-x="1181" d="M0 416q0 -63 52 -136t130 -135.5t169 -104.5t171 -42q29 0 84.5 22.5t122 57.5t136 78t126 84t93 74.5t36.5 52.5q0 29 -21.5 40t-56.5 11q-37 0 -65.5 -6t-56 -12.5t-56 -12.5t-65.5 -6q-35 0 -84 10t-93 28.5t-75 45.5t-31 61q0 45 42 78t104.5 58.5t135 48t135 50 t104.5 63.5t42 89q0 10 -1 26.5t-1 18.5l-278 353q-2 2 -33 12t-47 18h-23q-37 0 -102.5 -15t-142 -42t-157.5 -61.5t-145.5 -73.5t-106.5 -80t-42 -78v-575zM479 735v223q2 -4 12.5 -18t23.5 -29.5t24.5 -30t17.5 -18.5q10 -12 25.5 -36.5t15.5 -26.5q0 -10 -19.5 -21.5 t-42 -20.5t-41 -15.5t-16.5 -6.5z" />
<glyph unicode="F" horiz-adv-x="946" d="M0 895q0 -37 14.5 -56.5t67.5 -39.5v-447q-4 -2 -17.5 -15t-26.5 -29.5t-24.5 -32t-11.5 -19.5q-2 -8 12.5 -32.5t28.5 -30.5q27 -23 79 -56t104.5 -63.5t93 -52t42.5 -21.5h80l359 287v71q-29 0 -50.5 -6t-42 -13t-41 -13.5t-42.5 -6.5h-23q-10 2 -24.5 15.5t-14.5 17.5 v414q0 8 14.5 19.5t24.5 13.5l49 7t74 11t71.5 10t45.5 4q0 10 3 39t3 39q0 49 -12.5 76t-41 41t-75.5 19.5t-117 9.5v63q35 -29 67.5 -32t78.5 -3q141 0 141 111q0 57 -34 100t-93 80q59 23 79.5 57.5t20.5 81.5q-121 0 -210 -2t-166.5 -15t-153.5 -42t-168 -80 q-55 78 -164 78q0 -43 14.5 -82t30.5 -78t30.5 -78.5t14.5 -83.5q0 -35 -14.5 -63.5t-30.5 -56t-30.5 -55t-14.5 -60.5z" />
<glyph unicode="G" horiz-adv-x="1181" d="M0 500q0 -35 18.5 -70t48 -62.5t68.5 -46t80 -18.5q49 0 78 7t57.5 20.5t65.5 32t104 40.5h17h20q10 -14 32.5 -50t47.5 -76.5t48.5 -77.5t33.5 -52q0 -6 1 -15t1 -17q0 -41 -26.5 -65.5t-66.5 -37t-84 -16.5t-79 -4q0 49 -11.5 94t-40 81t-75.5 57.5t-121 21.5 q-59 0 -94 -10.5t-55.5 -31t-26.5 -53t-6 -75.5q0 -74 43 -118t110.5 -66.5t148.5 -29.5t159 -7q106 0 217.5 21.5t202 66.5t147.5 116.5t57 171.5q0 33 -6 60.5t-20.5 53.5t-38 55.5t-58.5 66.5v512q6 4 17.5 17.5t24 28.5t23.5 28.5t15 19.5l1 6t1 11q0 4 -1 10l-1 6 q-2 8 -16 16t-23 17l-51 25.5t-79 39t-92 46t-91 47t-78 40t-49 25.5q-2 0 -16.5 1t-24.5 1q-20 0 -69.5 -16.5t-112 -42t-128 -57t-120.5 -60.5t-91 -51.5t-36 -30.5v-606zM440 555v487l80 -32v-416q0 -20 -28.5 -29.5t-51.5 -9.5z" />
<glyph unicode="H" horiz-adv-x="1161" d="M0 1458q0 -78 31.5 -159.5t72.5 -141.5v-727q-41 -12 -47 -29.5t-6 -40.5q0 -35 38 -72.5t88 -70.5t100.5 -53.5t72.5 -20.5q23 0 55.5 12.5t68.5 30t68.5 35t55.5 27.5q0 -6 2 -20.5t3 -30t3 -29.5t2 -21q0 -82 -22.5 -122.5t-61.5 -68.5t-89 -56.5t-107 -83.5 q14 -31 46 -35t68 -4q100 0 201.5 40t185.5 102.5t144.5 141t81.5 156.5q2 20 10 88t17.5 147.5t15.5 156.5t6 116q0 8 -6 37t-15.5 62.5t-17.5 66.5t-10 51q-4 10 -26.5 57.5t-55.5 96.5q-33 50 -71 82q-24 21 -48 20q-13 0 -25 -6l-272 -145q0 14 -3 52t-3 58 q0 55 4 103.5t26.5 86t69.5 63.5t131 36q0 4 2 9t2 7q0 6 -2 14l-2 9q-8 12 -19 21.5t-22 15.5h-34q-25 0 -48.5 1t-50.5 1h-30q-78 0 -133.5 -6.5t-102.5 -22.5t-92 -45t-98 -74q-37 29 -68 55.5t-84 26.5zM557 430v434l55 39v-477z" />
<glyph unicode="I" horiz-adv-x="829" d="M2 895q-10 -8 7.5 -30.5t33.5 -33.5q4 -4 18.5 -9t29.5 -10t30.5 -9t21.5 -4v-576q0 -23 29 -60.5t70 -74.5t85 -63.5t74 -26.5q23 0 60 14.5t78 36t82 50t74.5 57t54 55.5t20.5 45q0 66 -86 66q-18 0 -41 -3q-6 18 -13 68.5t-13.5 107t-10.5 106.5t-4 71q0 47 19.5 73.5 t43 46t43 38t19.5 47.5q0 6 -3 12l-3 6l-279 223q27 18 56.5 39t54.5 43.5t40 50t15 60.5t-21.5 67.5t-57 62t-79.5 45t-88 17.5q-41 0 -76.5 -13t-62 -34.5t-43 -51.5t-16.5 -63q0 -20 8 -53t22.5 -66.5t36 -62.5t50.5 -41z" />
<glyph unicode="J" horiz-adv-x="1161" d="M0 344q0 -8 1 -12l1 -4q18 -49 73.5 -103.5t120 -102.5t123 -86t80.5 -56h11q-8 -2 -9 -15q51 0 133 22.5t173.5 59.5t180.5 85t154 99q-14 104 -22 198.5t-8 207.5v68v215v73q6 6 17 19.5t23.5 30t23.5 32t18 21.5l1 6q1 6 1 8q2 0 -14.5 13.5t-43 34t-58.5 45t-58.5 45 t-45 35.5t-18.5 17q8 6 28.5 26t45 42.5t47 42t33.5 27.5l1 11q1 11 1 21q0 25 -12.5 54.5t-33 55.5t-49 44t-61.5 18q-23 0 -58.5 -11t-69.5 -30.5t-55.5 -45t-17.5 -52.5q0 -10 10.5 -38.5t24 -62.5t26.5 -63.5t19 -38.5l-200 -172q-2 -2 -3.5 -13t-1.5 -19q0 -29 16 -50 q12 -17 47 -17q9 0 21 1v-696l-493 92q0 -4 -16.5 -14.5t-26.5 -18.5l-78 -35l5 -2t9 -5t2 -5t-18 -2z" />
<glyph unicode="K" horiz-adv-x="1196" d="M0 360q0 23 37 42.5t74 31.5v729q-37 59 -68 142.5t-31 156.5q53 0 85 -24.5t57 -53.5q57 43 102 72t93 46.5t102.5 23.5t130.5 6q10 0 30.5 -2t44.5 -2q29 0 49.5 -1t30.5 -1q10 -2 23.5 -13.5t21.5 -21.5l2 -9t2 -12q0 -4 -2 -8t-2 -12q-84 -10 -131 -34.5t-68.5 -62.5 t-25.5 -86t-4 -104v-24q0 -16 1 -34t1 -34v-18l272 143q25 14 65 22q29 5 59 5q12 0 24 -1q43 -3 82 -18.5t59 -46.5l-452 -307q72 -16 174 -46t256 -77q33 -10 45 -49q10 -33 10 -76v-15q-2 -52 -14.5 -112.5t-28.5 -114t-33.5 -92.5t-25.5 -51q-59 -78 -124 -152.5 t-139.5 -135t-158.5 -101.5t-181 -51q-9 -1 -18 -1q-24 0 -50 4q-36 5 -44 36l203 377q-35 -10 -55.5 -19.5t-38 -15.5t-36 -10.5t-49.5 -4.5q-29 0 -88 20.5t-118.5 53.5t-104.5 71t-45 72zM526 262q53 35 72.5 73t19.5 60v68q0 55 -15 112.5t-68 116.5z" />
<glyph unicode="L" horiz-adv-x="827" d="M0 1446q0 -6 1 -19.5t1 -21.5l41 -94q2 -16 9 -37l13.5 -40.5t11.5 -33.5t5 -18v-830q-16 -4 -44 -27.5t-36 -37.5q-4 -12 11.5 -33t37 -41t43 -35.5t29.5 -17.5q12 -10 47 -34t73 -49.5t72.5 -47t46.5 -29.5q8 2 39 13.5t41 19.5l320 190q0 2 3 13.5t3 19.5 q0 33 -15.5 45t-39 13t-53 -3t-58.5 -4v1034q0 25 22.5 30t50 14.5t51.5 35t24 91.5q-92 0 -177.5 -22t-159 -48.5t-132 -48t-97.5 -21.5q-8 0 -14 1l-6 1l-121 64q-2 2 -21.5 5t-21.5 3z" />
<glyph unicode="M" horiz-adv-x="1945" d="M2 1067q-8 -20 5 -40.5t34.5 -38t45.5 -28t36 -10.5v-608q-10 -10 -21.5 -38t-19.5 -38v-20v-15q8 -14 36.5 -39.5t45.5 -39.5q6 -4 18.5 -12.5t30.5 -24.5q47 -37 92 -72t57 -43l6 -1q7 -1 15 -1q41 0 76 24.5t68.5 55.5t72.5 55.5t88 24.5q43 0 75 -24.5t62.5 -55.5 t62.5 -55.5t75 -24.5q37 0 86 21.5t93 55.5t74.5 74.5t30.5 81.5q0 29 -9 53.5t-38 57.5v571q0 37 41 37q23 0 37 -6t25 -6v-707q0 -31 30.5 -70.5t72.5 -75.5t85 -61.5t65 -25.5q35 0 91.5 28.5t109.5 67.5t91 81t38 71q0 2 -4 11l-4 9q-4 6 -15.5 17.5t-23.5 22.5 t-22.5 21.5t-16.5 14.5v608q10 8 23.5 37t17.5 43v17v20q0 2 -15.5 15.5t-25.5 23.5q-16 10 -54 42t-83 68.5t-85 69.5t-58 43q-2 0 -8.5 3t-8.5 3q-8 0 -16 -3l-8 -3q-16 -10 -53 -41t-82.5 -64.5t-89.5 -59t-72 -25.5q-10 0 -16 2l-5 2l-198 186l-7 3q-6 3 -10 3 q-10 0 -17 -3l-7 -3q-25 -6 -76 -39t-105.5 -67.5t-95.5 -60t-43 -19.5l-201 186h-79l-28 -21q-28 -20 -67 -49.5t-78.5 -61.5t-66.5 -54q-12 -10 -32.5 -28.5t-33 -32t-14.5 -15.5zM643 342v608l78 41v-649h-78z" />
<glyph unicode="N" horiz-adv-x="1626" d="M0 1055q0 -37 25.5 -47.5t56.5 -13.5t56.5 -7t25.5 -29v-575q-6 -4 -24.5 -17.5t-39 -28.5t-38 -29.5t-19.5 -20.5q-4 -10 3 -23.5t21.5 -28t30 -25.5t25.5 -17l278 -193h41q2 0 40 21.5t88.5 52t103.5 63.5t88 56l39 30v15v18q-2 8 -16.5 31.5t-22.5 31.5v639l39 33 l61 -33v-765q0 -25 32 -60t75 -66.5t86 -53t65 -21.5q10 0 23.5 4t17.5 4l318 193q27 16 43 25t26.5 18.5t14.5 20.5t4 30q0 43 -39 63.5t-86 32.5v575q10 4 23.5 16.5t25.5 28t20.5 30t8.5 22.5l-10 8q-9 8 -20 18.5t-24.5 20.5t-23.5 16l-162 96q-6 2 -30.5 20.5t-52.5 42 t-51.5 43t-25.5 21.5l-7 1q-7 1 -9 1q-49 0 -105.5 -28.5t-112 -65.5t-108.5 -74.5t-98 -56.5q-20 29 -51 68t-69 73.5t-83 58t-94 23.5h-21q-49 -18 -100 -49.5t-98 -67.5t-89 -73t-73 -66q0 -2 -1 -12t-1 -18z" />
<glyph unicode="O" d="M2 307q0 -23 36 -54.5t92 -65t125 -68.5t137.5 -61.5t127 -43t92.5 -16.5q10 0 22 1l13 1q8 2 37 20.5t62.5 41t63.5 42t38 23.5q109 47 183.5 75.5t123.5 52.5t77 50.5t40 72.5t15 119.5t3 188.5v47q0 35 -1 72t-1 72v49q-18 55 -50 115.5t-77 114.5t-104.5 96 t-130.5 59q-10 -6 -44 -21.5t-74 -31t-75 -28.5t-45 -16q-29 -10 -85 -21t-125.5 -23.5t-142.5 -24.5t-132.5 -23.5t-98 -20.5t-38.5 -16v-702q-35 0 -49.5 -15.5t-14.5 -37.5v-23zM647 416v575q25 -14 52.5 -45t27.5 -51v-518q-25 0 -52.5 9t-27.5 30z" />
<glyph unicode="P" horiz-adv-x="1146" d="M2 406q0 -29 14.5 -50.5t49.5 -21.5q14 0 26 7t22.5 14t23 14.5t30.5 7.5q8 0 20.5 -2t20.5 -2q2 -29 6 -82t12.5 -115.5t22.5 -128t35.5 -119t52.5 -87.5t74 -34q25 0 36 5.5t15 17.5t9 32.5t17 53.5q2 8 13.5 49t24 88t24.5 90t16 56q2 8 42 28.5t97.5 47t124 58.5 t124 60.5t95 51t37.5 34.5v594q0 12 -17 47t-45 72t-59.5 65.5t-60.5 28.5q-25 0 -74 -22.5t-97 -49t-86 -49t-40 -22.5q-41 66 -98 124t-141 87l80 71q-6 18 -19.5 25.5t-32 10.5t-37 2t-32.5 -1q-131 0 -188.5 -62.5t-57.5 -172.5q0 -55 14.5 -98.5t31.5 -84t31.5 -86 t14.5 -102.5q0 -63 -26.5 -113.5t-59.5 -96.5t-59.5 -94t-26.5 -108v-38zM608 651v318l39 35l41 -35v-387z" />
<glyph unicode="Q" horiz-adv-x="1148" d="M2 672q0 -53 6 -112.5t22.5 -118t48.5 -104.5t83 -75t127 -29q41 0 70.5 20.5t56 46.5t57.5 46.5t74 20.5q4 0 8 -1t12 -1q2 -20 13.5 -68.5t29 -109t41 -126t51 -120t59.5 -89t66 -34.5q23 0 44.5 35.5t41 90t36 120t28.5 126t20.5 108.5t10.5 67q2 23 6 72.5t8 112 t8 133.5t8 134.5t6.5 113.5t2.5 73q37 10 40 26.5t3 36.5q0 23 -31 50.5t-79 56t-106.5 55t-115 48t-103.5 34t-69 12.5h-19l-118 -66q-100 -43 -172 -70.5t-121.5 -51t-80 -49t-47 -65.5t-21.5 -101.5t-5 -153.5v-94zM449 588v422q20 0 48.5 -9.5t28.5 -29.5v-420 q-25 0 -51 8t-26 29z" />
<glyph unicode="R" horiz-adv-x="1304" d="M0 1024q0 -37 31.5 -52.5t69.5 -24.5t70 -18t32 -34v-449l-160 -127q-14 -12 20.5 -39.5t95 -63.5t138.5 -75t146.5 -70.5t119.5 -52t62 -20.5q8 0 27.5 1t27.5 1q258 156 481 352q0 2 3 12.5t3 18.5q0 29 -14 48.5t-49 19.5t-59.5 -11.5t-47 -24t-48 -23.5t-60.5 -11 q-8 0 -28.5 -1t-42 1t-39 9t-17.5 26v479l39 31l162 -191l38 -33l7 -1q8 -1 16 -1q2 0 8 1t10 1q18 2 49 22.5t63 47.5t57.5 52.5t29.5 37.5l1 12q1 13 1 29q0 18 2 36.5t2 33.5q0 119 -44 207t-161 161l-280 -223h-41q-47 49 -76 82t-59.5 56.5t-72.5 43t-112 41.5 q-16 -10 -54 -37.5t-82 -58.5t-84 -58.5t-58 -35.5q-31 -23 -54.5 -36t-39 -25.5t-22.5 -26.5t-7 -39z" />
<glyph unicode="S" horiz-adv-x="1087" d="M0 391q0 33 43 64.5t100.5 56.5t113.5 40t81 15q29 0 49 -14l-375 285v178q0 27 18.5 51.5t46 43.5t60.5 34.5t62 25.5q33 10 106.5 33t155.5 47.5t155.5 48t104.5 35.5q8 0 12 2t8 2q25 0 46.5 -20.5t38 -45t27.5 -46t17 -23.5q8 -12 29 -50t45.5 -80t47 -76.5 t32.5 -41.5l1 -9q1 -9 1 -11q0 -37 -43 -68.5t-100.5 -56.5t-112.5 -39t-82 -14q-37 0 -67.5 24.5t-53 57t-41 65.5t-30.5 51l-47 -63l575 -373l-8 -209q0 -29 -20.5 -53.5t-50.5 -44.5t-62.5 -36.5t-55.5 -26.5q-20 -6 -61 -18.5t-92 -28t-107.5 -33t-107.5 -32.5 t-92.5 -27.5t-61.5 -18.5q-8 0 -12 -1t-12 -1q-20 0 -42 19.5t-40.5 44t-31.5 46t-15 25.5q-10 12 -34 48t-48.5 77t-45 76.5t-22.5 46.5l-1 6t-1 12zM434 514q37 -35 56.5 -77t35.5 -64l90 8z" />
<glyph unicode="T" horiz-adv-x="942" d="M0 926q0 -47 34 -73t89 -54v-447q0 -10 -19.5 -21.5t-42 -21.5t-31.5 -13l-28 -9q18 -47 67.5 -87t109 -75t120.5 -65.5t102 -59.5q35 8 110 44t149.5 82t131 94t56.5 83q0 33 -26.5 43t-62.5 8t-70 -8t-46 -6v491q39 -6 73 -6q60 1 100 19q64 28 65 114q0 39 -31 62.5 t-72 37t-84 18.5t-69 9v385l-103 64q-61 -96 -114.5 -172t-111.5 -142.5t-129 -129t-165 -132.5q0 -2 -1 -13t-1 -19z" />
<glyph unicode="U" horiz-adv-x="1626" d="M0 1024q0 -35 14.5 -47t37 -13t52 3t60.5 4v-555q0 -2 -15.5 -13.5t-25.5 -19.5q-10 -2 -40 -13.5t-40 -17.5l-1 -5t-1 -7q0 -8 1 -14l1 -7q18 -47 73.5 -96t120 -94t124 -79t81.5 -50h21q51 0 95 25.5t89 55.5t92 55.5t103 25.5q53 0 92 -25.5t76 -55.5t76.5 -55.5 t95.5 -25.5q41 0 106.5 26.5t127 66.5t106.5 83t45 78q0 39 -25.5 49t-57.5 12t-57.5 6.5t-25.5 30.5v574q47 35 66.5 60.5t19.5 68.5v22q-6 8 -8 11.5t-10.5 9.5t-29 20.5t-63.5 44.5q-33 20 -71.5 47t-75.5 52.5t-66.5 47t-42.5 31.5q-139 -145 -358 -223v-16v-17 q2 -8 12 -25.5t22.5 -38t25 -37.5t20.5 -26v-575q0 -10 -19.5 -21.5t-42 -20.5t-40.5 -15l-19 -7q0 18 2 51t2 74q0 43 1 93.5t1 101.5q0 104 -3 193.5t-3 125.5q0 43 -17.5 109t-53.5 127t-88 105t-120 44q-10 0 -21 -1t-20 -1q-16 -10 -54 -37.5t-82 -58.5t-84 -58.5 t-58 -35.5q-31 -23 -54.5 -36t-39 -25.5t-22.5 -26.5t-7 -39z" />
<glyph unicode="V" horiz-adv-x="1382" d="M0 1214q0 -43 6 -75.5t20.5 -61t38 -56.5t58.5 -63v-542l-17 -6q-18 -7 -40.5 -17t-42 -21.5t-21.5 -19.5q0 -20 37 -54t93 -73t124 -79t130.5 -72.5t110.5 -53t66 -20.5l11 4q12 4 25 9t25.5 10.5t18.5 9.5l158 94q35 20 87 35.5t109.5 31t115.5 34t104.5 44t75 60.5 t28.5 84v606q0 6 -5 20.5t-11.5 29.5t-13.5 28.5t-11 17.5q-18 20 -57 53t-78 64t-70 53.5t-33 22.5h-41l-344 -172l-295 235q31 -8 58 -8q16 0 30 3q39 7 66 28.5t41 51.5t14 64q-104 0 -206.5 -8t-183.5 -38.5t-131 -90t-50 -162.5zM680 446v512q0 20 30.5 29.5t51.5 9.5 v-614z" />
<glyph unicode="W" horiz-adv-x="1832" d="M0 1190q0 -88 25.5 -145.5t97.5 -114.5v-559q-47 -23 -64.5 -44.5t-17.5 -68.5q0 -16 44 -60t101.5 -90.5t110.5 -81t72 -34.5q8 0 20 4t21 4l237 188l13 2q12 3 20 3q63 0 120.5 -31t111 -67t107.5 -66.5t116 -30.5q18 0 73.5 22.5t126 58.5t147.5 81t141.5 90t106.5 87 t42 71v598q0 33 -32 85t-76 101t-92 85t-79 36q-47 0 -85 -25.5t-73 -55.5t-69.5 -55.5t-77.5 -25.5q-2 0 -10 3l-9 3q-61 35 -89.5 63.5t-49 50t-46.5 34t-79 12.5q-47 0 -85 -12.5t-72.5 -34t-68.5 -51t-71 -62.5q-25 33 -60.5 59.5t-73.5 49t-77 41t-69 36.5l161 72l1 5 q2 5 2 7q0 33 -18.5 48.5t-44.5 20.5t-54.5 4t-46.5 -1q-328 0 -328 -309zM647 332v639l72 -4v-609zM1210 408v522q0 29 28.5 39t51.5 10v-614q-23 0 -51.5 7t-28.5 36z" />
<glyph unicode="X" horiz-adv-x="1226" d="M-1 1032.5q1 -10.5 7 -21t16.5 -20.5t20.5 -12q21 -7 43 -7q10 0 22 2q34 5 64 5q31 0 51.5 -13.5t20.5 -58.5v-426q-119 -78 -181.5 -170t-62.5 -217q0 -119 46 -201.5t125 -135t183.5 -76t218.5 -23.5q80 0 158 10t139.5 39t99.5 79t38 132q0 139 -166 139 q-61 0 -99 -20.5t-61 -55t-31 -79.5t-8 -95q-6 0 -26.5 -1t-43 -2t-43 -2t-26.5 -1q-49 0 -109.5 7.5t-113 29t-88 60.5t-35.5 100q0 66 31.5 115t115.5 49q39 0 74 -10.5t68.5 -23.5t66.5 -23.5t70 -10.5q20 0 62 20.5t93.5 53.5t105.5 72t99 75.5t74 67.5t29 45q0 2 -3 9 l-2 7q-4 8 -17 21.5t-24 15.5h-18q-47 0 -89 -20.5t-95 -20.5q-23 0 -50.5 5.5t-27.5 35.5v461h41q29 -80 68.5 -115.5t111.5 -35.5q43 0 84 16t71.5 44t50 63.5t19.5 76.5q0 29 -20.5 86.5t-52 114.5t-72.5 100t-80 43q-8 0 -14 -2l-6 -2l-242 -213q-25 27 -59.5 65 t-76.5 71.5t-89 57t-97 23.5q-8 0 -22 -2l-14 -2l-320 -284q-4 -4 -3 -14.5z" />
<glyph unicode="Y" horiz-adv-x="1062" d="M0 1120q0 -61 14.5 -116.5t30.5 -109.5t30.5 -111.5t14.5 -120.5q0 -51 -8 -96.5t-17.5 -89.5t-16.5 -87t-7 -92q0 -39 27.5 -81t68.5 -76t86 -56.5t82 -22.5q2 0 9 1l8 1q14 8 47.5 29t72.5 43.5t73 44t48 31.5q0 -8 1 -26.5t1 -39.5q0 -20 1 -38.5t1 -22.5 q0 -76 -12 -125t-41 -89t-75.5 -80t-116.5 -95q2 -18 19 -26.5t37.5 -11.5t40 -2t30.5 1q43 0 101 19.5t119.5 53t121 79t106.5 94.5t75.5 99t28.5 97v883q-10 23 -25 54.5t-44 47.5l-131 119l-7 1q-8 1 -12 1q-8 0 -14 -1l-6 -1l-199 -112l-82 -35l-200 182l-1 8 q-1 8 -1 10q0 12 14 23.5t34.5 22t41 20.5t32.5 22q-25 51 -49 64.5t-71 13.5q-78 0 -131.5 -23.5t-86 -64.5t-48 -95t-15.5 -118zM522 385v485l41 37q45 -68 45 -147v-146v-39q0 -29 -3 -54t-3 -54v-37q-25 -45 -80 -45z" />
<glyph unicode="Z" horiz-adv-x="987" d="M0 270q0 -82 21.5 -157.5t70.5 -134t128 -94.5t194 -36q129 0 226 41t161.5 109t97.5 155t33 179q0 70 -20.5 131t-45 113.5t-45 97.5t-20.5 86q0 4 4 10l4 6l80 64l1 6t1 10q0 45 -51 45q-23 0 -48.5 -3t-41.5 -3q0 25 2 69q1 22 1 46t-1 49q-2 51 -12.5 103t-35 95 t-67.5 70t-111 27q-8 0 -21 -1t-16 -1q-18 -10 -58 -33t-84 -47.5t-84 -47t-54 -32.5q-12 -8 -31.5 -22.5t-39 -30t-34 -27.5t-14.5 -16q-10 -16 5.5 -40t31.5 -24h201q6 0 18 -23.5t23 -39.5v-19q0 -37 -21.5 -58.5t-53.5 -32.5t-69 -19.5t-68.5 -17.5t-53 -26.5 t-21.5 -47.5q0 -8 4 -20.5t4 -14.5q0 -4 6 -18.5t12.5 -30t12.5 -29.5t6 -19q0 -6 -18.5 -34.5t-40 -60.5t-40 -60.5t-18.5 -34.5q0 -8 -5 -44t-5 -73v-39zM350 41v385q0 14 3 48t12.5 67.5t29 59.5t54.5 26v-586q0 -25 10 -39t17 -21.5t4 -8.5t-29 -1q-47 0 -74 10.5 t-27 59.5z" />
<glyph unicode="[" horiz-adv-x="724" d="M0 225q0 -47 28.5 -97t76 -99t106.5 -94.5t120.5 -79t120 -53t101.5 -19.5q8 0 28.5 -1t40 2t36 12.5t20.5 27.5q-92 -4 -151.5 60.5t-93.5 173t-47 251t-13 295.5q0 156 9 312.5t19 297.5q2 82 48 148l71 151l-71 31l-201 113l-8 1q-7 1 -13 1q-2 0 -10 -1l-8 -1 l-129 -119q-29 -16 -45.5 -48t-24.5 -54zM520 1513l6 -4z" />
<glyph unicode="\" horiz-adv-x="1007" d="M-31 1069q0 -12 2 -14q18 -37 48 -58.5t65 -45t73 -57.5t68 -91q12 -25 39 -86.5t55.5 -129t54 -129t36.5 -85.5q-76 14 -94.5 -8.5t6.5 -71.5q14 -23 51 -55.5t88 -67.5t108.5 -69.5t110.5 -61.5t98 -44.5t70 -17.5q27 0 52.5 34t40.5 79t20.5 92t-7.5 74l-366 702 q14 0 41.5 15.5t34.5 25.5q0 2 -1 12.5t-3.5 21.5t-5.5 21.5t-7 14.5q-8 10 -30.5 25.5t-77 47.5t-149.5 86t-249 140q-154 -147 -172 -291v-8z" />
<glyph unicode="]" horiz-adv-x="626" d="M-102 -176q92 -4 151.5 60.5t93 173t47 251t13.5 295.5q0 156 -9.5 312.5t-19.5 297.5q-2 82 -47 148l-68 151l68 31l201 113l7 1t15 1q2 0 10 -1l9 -1l127 -119q29 -16 45 -48t26 -54l11 -1211q0 -70 -61.5 -147.5t-148.5 -143t-181.5 -108.5t-161.5 -43q-8 0 -28 -1 t-41.5 2t-38.5 12.5t-19 27.5zM49 1509l10 4z" />
<glyph unicode="^" horiz-adv-x="1382" d="M-2 287v608q0 49 28.5 84t74.5 60.5t104.5 44t116 34t108.5 30.5t86 34l160 96q4 4 16.5 9t26.5 10.5t24.5 9.5t12.5 4q18 0 66 -20.5t110.5 -53.5t130 -73t123 -80t92.5 -74t37 -52q-2 -10 -21.5 -20t-41 -20.5t-40 -16.5t-16.5 -6v-543q35 -35 58.5 -63.5t38 -56 t20.5 -60.5t6 -76q0 -104 -50 -163.5t-131 -90t-183.5 -39t-206.5 -8.5q0 33 14 64.5t39.5 52t64.5 29t88 -3.5l-295 235l-342 -172h-41q-2 0 -33.5 21.5t-71.5 52t-79 63.5t-57 56q-6 4 -12.5 17t-11.5 28.5t-9 29t-4 19.5zM555 311q23 0 51.5 9.5t28.5 31.5v510l-80 64 v-615z" />
<glyph unicode="_" horiz-adv-x="1292" d="M-121 -164l725 103l791 -103l8 -3t0 -5q-47 -29 -143.5 -44t-243.5 -44q-16 -4 -74.5 -1t-143.5 8t-188.5 13.5t-208 18.5t-202 19t-171 17.5t-115.5 13.5t-34 7z" />
<glyph unicode="`" horiz-adv-x="540" d="M0 1765l305 160l180 -305l3 -6q4 -6 -3 -6q-16 -49 -60 -74t-103 -64q-8 -8 -36 10.5t-66 50.5t-79 71.5t-73.5 75.5t-53 60.5t-14.5 26.5z" />
<glyph unicode="a" horiz-adv-x="1294" d="M0 518v166v41q0 37 1 67.5t1 67.5v41q12 88 69.5 145.5t136.5 96.5t168 68.5t167 64.5q23 10 39 20.5t31.5 17.5t33 12t41.5 5q39 0 69.5 -16.5t60.5 -40t60.5 -49t71.5 -43.5q25 -14 65 -26.5t77.5 -28t66.5 -37t29 -56.5q0 -23 -12.5 -34t-29 -18t-34.5 -15.5 t-33 -20.5q-16 -68 -16 -119v-114v-82v-33v-90v-16q0 -6 2 -26t7 -42.5t16.5 -39.5t29.5 -17q23 0 33 8t31 8q6 0 15 -8t18.5 -20.5t16.5 -25t7 -20.5q0 -14 -2 -20t-8 -11.5t-16.5 -9.5t-26.5 -14q-16 -16 -53 -45t-80 -59.5t-81 -59.5t-52 -43h-31q-49 0 -93 34t-81 76 t-64.5 75.5t-42.5 33.5q-29 0 -65.5 -33.5t-78.5 -75.5t-86 -76t-83 -34q-37 0 -63.5 17.5t-53.5 37.5q-111 88 -144.5 190.5t-33.5 225.5zM492 590q0 -49 2 -101.5t10 -111.5q0 -10 16 -17h6h9q6 4 16 14.5t21.5 21t18.5 21.5t7 17v512l-8 6t-19 15q-14 10 -27.5 27.5 t-23.5 21.5h-10h-6l-12 -58v-16v-96v-39v-217z" />
<glyph unicode="b" horiz-adv-x="1216" d="M0 1438q4 -14 23.5 -52t41 -82t39 -86t17.5 -67v-768q-6 -4 -18.5 -12.5t-24.5 -17.5t-22.5 -18t-14.5 -16l-3 -6q-3 -6 -3 -10t3 -10l3 -6q14 -18 53 -48t89 -64t105.5 -66.5t103.5 -58t83 -40t45 -10.5l557 223q2 0 16.5 23.5t24.5 40.5q6 12 15.5 36.5t16.5 41t7 18.5 v479q0 25 -30.5 69t-73.5 86t-87 72.5t-71 30.5q-35 0 -74 -15t-76.5 -36.5t-75.5 -43t-71 -34.5v29q0 20 -1 42.5t-1 43.5v27q0 78 18.5 126t45 74.5t59.5 37.5t59.5 18.5t45 16.5t18.5 30q0 29 -7.5 49t-35.5 49q-66 -8 -128.5 -14.5t-123 -15.5t-117.5 -24.5t-111 -41.5 l-120 -64l-7 -1q-8 -1 -14 -1q-4 0 -12 1l-8 1q-6 4 -23.5 17.5t-37 29t-36 29.5t-20.5 20zM598 383v416q0 20 28.5 29.5t51.5 9.5v-519z" />
<glyph unicode="c" horiz-adv-x="1140" d="M0 352q0 -53 54.5 -114.5t131 -114.5t158.5 -89t135 -36q10 0 23.5 1t17.5 1q18 8 56 27.5t84.5 45t98.5 53.5t98 53.5t84 46t56 30.5q27 14 42.5 23.5t24.5 18.5t12 21.5t3 32.5q0 23 -13 43.5t-50 20.5q-55 0 -105.5 -17.5t-111.5 -17.5q-31 0 -78 8t-92 24.5t-77 41 t-32 57.5v446q12 -16 29.5 -47.5t41 -64.5t55.5 -57.5t73 -24.5q27 0 87 14.5t120.5 39t106.5 56t46 68.5q0 4 -1 10l-1 6q-8 10 -30.5 46t-48 78t-48 80t-30.5 52q-6 2 -20.5 22.5t-33 44.5t-41 43t-47.5 19q-6 0 -10 -1t-10 -1q-23 -6 -66 -19t-98 -28.5t-114.5 -33 t-115 -33t-99.5 -27.5l-66 -18q-29 -10 -63 -25.5t-64.5 -36t-51 -45t-20.5 -53.5v-670z" />
<glyph unicode="d" horiz-adv-x="1136" d="M0 256q0 -6 31.5 -26.5t81 -49t108 -60.5t111.5 -58.5t94 -44t53 -17.5q18 0 69.5 18.5t118 47t139.5 63.5t133 71t99 67.5t39 51.5v576q0 25 -21.5 58.5t-52 67.5t-65.5 60.5t-59 36.5q-25 12 -92.5 40t-144.5 58.5t-145.5 57t-97.5 37.5q0 2 -1 7t-1 7q0 18 21.5 31.5 t46 29t46 38t21.5 59.5q-88 0 -170.5 -8.5t-146 -36t-101.5 -77.5t-38 -132q0 -55 22.5 -102.5t60.5 -85t89 -70.5t110 -62h-262v-557q-10 -6 -26.5 -18t-31.5 -25.5t-26.5 -28t-11.5 -24.5zM557 383v479l82 -63v-480z" />
<glyph unicode="e" horiz-adv-x="1181" d="M0 416q0 -63 52 -136t130 -135.5t169 -104.5t171 -42q29 0 84.5 22.5t122 57.5t136 78t126 84t93 74.5t36.5 52.5q0 29 -21.5 40t-56.5 11q-37 0 -65.5 -6t-56 -12.5t-56 -12.5t-65.5 -6q-35 0 -84 10t-93 28.5t-75 45.5t-31 61q0 45 42 78t104.5 58.5t135 48t135 50 t104.5 63.5t42 89q0 10 -1 26.5t-1 18.5l-278 353q-2 2 -33 12t-47 18h-23q-37 0 -102.5 -15t-142 -42t-157.5 -61.5t-145.5 -73.5t-106.5 -80t-42 -78v-575zM479 735v223q2 -4 12.5 -18t23.5 -29.5t24.5 -30t17.5 -18.5q10 -12 25.5 -36.5t15.5 -26.5q0 -10 -19.5 -21.5 t-42 -20.5t-41 -15.5t-16.5 -6.5z" />
<glyph unicode="f" horiz-adv-x="946" d="M0 895q0 -37 14.5 -56.5t67.5 -39.5v-447q-4 -2 -17.5 -15t-26.5 -29.5t-24.5 -32t-11.5 -19.5q-2 -8 12.5 -32.5t28.5 -30.5q27 -23 79 -56t104.5 -63.5t93 -52t42.5 -21.5h80l359 287v71q-29 0 -50.5 -6t-42 -13t-41 -13.5t-42.5 -6.5h-23q-10 2 -24.5 15.5t-14.5 17.5 v414q0 8 14.5 19.5t24.5 13.5l49 7t74 11t71.5 10t45.5 4q0 10 3 39t3 39q0 49 -12.5 76t-41 41t-75.5 19.5t-117 9.5v63q35 -29 67.5 -32t78.5 -3q141 0 141 111q0 57 -34 100t-93 80q59 23 79.5 57.5t20.5 81.5q-121 0 -210 -2t-166.5 -15t-153.5 -42t-168 -80 q-55 78 -164 78q0 -43 14.5 -82t30.5 -78t30.5 -78.5t14.5 -83.5q0 -35 -14.5 -63.5t-30.5 -56t-30.5 -55t-14.5 -60.5z" />
<glyph unicode="g" horiz-adv-x="1181" d="M0 500q0 -35 18.5 -70t48 -62.5t68.5 -46t80 -18.5q49 0 78 7t57.5 20.5t65.5 32t104 40.5h17h20q10 -14 32.5 -50t47.5 -76.5t48.5 -77.5t33.5 -52q0 -6 1 -15t1 -17q0 -41 -26.5 -65.5t-66.5 -37t-84 -16.5t-79 -4q0 49 -11.5 94t-40 81t-75.5 57.5t-121 21.5 q-59 0 -94 -10.5t-55.5 -31t-26.5 -53t-6 -75.5q0 -74 43 -118t110.5 -66.5t148.5 -29.5t159 -7q106 0 217.5 21.5t202 66.5t147.5 116.5t57 171.5q0 33 -6 60.5t-20.5 53.5t-38 55.5t-58.5 66.5v512q6 4 17.5 17.5t24 28.5t23.5 28.5t15 19.5l1 6t1 11q0 4 -1 10l-1 6 q-2 8 -16 16t-23 17l-51 25.5t-79 39t-92 46t-91 47t-78 40t-49 25.5q-2 0 -16.5 1t-24.5 1q-20 0 -69.5 -16.5t-112 -42t-128 -57t-120.5 -60.5t-91 -51.5t-36 -30.5v-606zM440 555v487l80 -32v-416q0 -20 -28.5 -29.5t-51.5 -9.5z" />
<glyph unicode="h" horiz-adv-x="1161" d="M0 1458q0 -78 31.5 -159.5t72.5 -141.5v-727q-41 -12 -47 -29.5t-6 -40.5q0 -35 38 -72.5t88 -70.5t100.5 -53.5t72.5 -20.5q23 0 55.5 12.5t68.5 30t68.5 35t55.5 27.5q0 -6 2 -20.5t3 -30t3 -29.5t2 -21q0 -82 -22.5 -122.5t-61.5 -68.5t-89 -56.5t-107 -83.5 q14 -31 46 -35t68 -4q100 0 201.5 40t185.5 102.5t144.5 141t81.5 156.5q2 20 10 88t17.5 147.5t15.5 156.5t6 116q0 8 -6 37t-15.5 62.5t-17.5 66.5t-10 51q-4 10 -26.5 57.5t-55.5 96.5q-33 50 -71 82q-24 21 -48 20q-13 0 -25 -6l-272 -145q0 14 -3 52t-3 58 q0 55 4 103.5t26.5 86t69.5 63.5t131 36q0 4 2 9t2 7q0 6 -2 14l-2 9q-8 12 -19 21.5t-22 15.5h-34q-25 0 -48.5 1t-50.5 1h-30q-78 0 -133.5 -6.5t-102.5 -22.5t-92 -45t-98 -74q-37 29 -68 55.5t-84 26.5zM557 430v434l55 39v-477z" />
<glyph unicode="i" horiz-adv-x="829" d="M2 895q-10 -8 7.5 -30.5t33.5 -33.5q4 -4 18.5 -9t29.5 -10t30.5 -9t21.5 -4v-576q0 -23 29 -60.5t70 -74.5t85 -63.5t74 -26.5q23 0 60 14.5t78 36t82 50t74.5 57t54 55.5t20.5 45q0 66 -86 66q-18 0 -41 -3q-6 18 -13 68.5t-13.5 107t-10.5 106.5t-4 71q0 47 19.5 73.5 t43 46t43 38t19.5 47.5q0 6 -3 12l-3 6l-279 223q27 18 56.5 39t54.5 43.5t40 50t15 60.5t-21.5 67.5t-57 62t-79.5 45t-88 17.5q-41 0 -76.5 -13t-62 -34.5t-43 -51.5t-16.5 -63q0 -20 8 -53t22.5 -66.5t36 -62.5t50.5 -41z" />
<glyph unicode="j" horiz-adv-x="1161" d="M0 344q0 -8 1 -12l1 -4q18 -49 73.5 -103.5t120 -102.5t123 -86t80.5 -56h11q-8 -2 -9 -15q51 0 133 22.5t173.5 59.5t180.5 85t154 99q-14 104 -22 198.5t-8 207.5v68v215v73q6 6 17 19.5t23.5 30t23.5 32t18 21.5l1 6q1 6 1 8q2 0 -14.5 13.5t-43 34t-58.5 45t-58.5 45 t-45 35.5t-18.5 17q8 6 28.5 26t45 42.5t47 42t33.5 27.5l1 11q1 11 1 21q0 25 -12.5 54.5t-33 55.5t-49 44t-61.5 18q-23 0 -58.5 -11t-69.5 -30.5t-55.5 -45t-17.5 -52.5q0 -10 10.5 -38.5t24 -62.5t26.5 -63.5t19 -38.5l-200 -172q-2 -2 -3.5 -13t-1.5 -19q0 -29 16 -50 q12 -17 47 -17q9 0 21 1v-696l-493 92q0 -4 -16.5 -14.5t-26.5 -18.5l-78 -35l5 -2t9 -5t2 -5t-18 -2z" />
<glyph unicode="k" horiz-adv-x="1196" d="M0 360q0 23 37 42.5t74 31.5v729q-37 59 -68 142.5t-31 156.5q53 0 85 -24.5t57 -53.5q57 43 102 72t93 46.5t102.5 23.5t130.5 6q10 0 30.5 -2t44.5 -2q29 0 49.5 -1t30.5 -1q10 -2 23.5 -13.5t21.5 -21.5l2 -9t2 -12q0 -4 -2 -8t-2 -12q-84 -10 -131 -34.5t-68.5 -62.5 t-25.5 -86t-4 -104v-24q0 -16 1 -34t1 -34v-18l272 143q25 14 65 22q29 5 59 5q12 0 24 -1q43 -3 82 -18.5t59 -46.5l-452 -307q72 -16 174 -46t256 -77q33 -10 45 -49q10 -33 10 -76v-15q-2 -52 -14.5 -112.5t-28.5 -114t-33.5 -92.5t-25.5 -51q-59 -78 -124 -152.5 t-139.5 -135t-158.5 -101.5t-181 -51q-9 -1 -18 -1q-24 0 -50 4q-36 5 -44 36l272 364q-72 -23 -128 -30t-120 -7q-29 0 -88 20.5t-118.5 53.5t-104.5 71t-45 72zM526 262q53 35 72.5 73t19.5 60v68q0 55 -15 112.5t-68 116.5z" />
<glyph unicode="l" horiz-adv-x="827" d="M0 1446q0 -6 1 -19.5t1 -21.5l41 -94q2 -16 9 -37l13.5 -40.5t11.5 -33.5t5 -18v-830q-16 -4 -44 -27.5t-36 -37.5q-4 -12 11.5 -33t37 -41t43 -35.5t29.5 -17.5q12 -10 47 -34t73 -49.5t72.5 -47t46.5 -29.5q8 2 39 13.5t41 19.5l320 190q0 2 3 13.5t3 19.5 q0 33 -15.5 45t-39 13t-53 -3t-58.5 -4v1034q0 25 22.5 30t50 14.5t51.5 35t24 91.5q-92 0 -177.5 -22t-159 -48.5t-132 -48t-97.5 -21.5q-8 0 -14 1l-6 1l-121 64q-2 2 -21.5 5t-21.5 3z" />
<glyph unicode="m" horiz-adv-x="1945" d="M2 1067q-8 -20 5 -40.5t34.5 -38t45.5 -28t36 -10.5v-608q-10 -10 -21.5 -38t-19.5 -38v-20v-15q8 -14 36.5 -39.5t45.5 -39.5q6 -4 18.5 -12.5t30.5 -24.5q47 -37 92 -72t57 -43l6 -1q7 -1 15 -1q41 0 76 24.5t68.5 55.5t72.5 55.5t88 24.5q43 0 75 -24.5t62.5 -55.5 t62.5 -55.5t75 -24.5q37 0 86 21.5t93 55.5t74.5 74.5t30.5 81.5q0 29 -9 53.5t-38 57.5v571q0 37 41 37q23 0 37 -6t25 -6v-707q0 -31 30.5 -70.5t72.5 -75.5t85 -61.5t65 -25.5q35 0 91.5 28.5t109.5 67.5t91 81t38 71q0 2 -4 11l-4 9q-4 6 -15.5 17.5t-23.5 22.5 t-22.5 21.5t-16.5 14.5v608q10 8 23.5 37t17.5 43v17v20q0 2 -15.5 15.5t-25.5 23.5q-16 10 -54 42t-83 68.5t-85 69.5t-58 43q-2 0 -8.5 3t-8.5 3q-8 0 -16 -3l-8 -3q-16 -10 -53 -41t-82.5 -64.5t-89.5 -59t-72 -25.5q-10 0 -16 2l-5 2l-198 186l-7 3q-6 3 -10 3 q-10 0 -17 -3l-7 -3q-25 -6 -76 -39t-105.5 -67.5t-95.5 -60t-43 -19.5l-201 186h-79l-28 -21q-28 -20 -67 -49.5t-78.5 -61.5t-66.5 -54q-12 -10 -32.5 -28.5t-33 -32t-14.5 -15.5zM643 342v608l78 41v-649h-78z" />
<glyph unicode="n" horiz-adv-x="1626" d="M0 1055q0 -37 25.5 -47.5t56.5 -13.5t56.5 -7t25.5 -29v-575q-6 -4 -24.5 -17.5t-39 -28.5t-38 -29.5t-19.5 -20.5q-4 -10 3 -23.5t21.5 -28t30 -25.5t25.5 -17l278 -193h41q2 0 40 21.5t88.5 52t103.5 63.5t88 56l39 30v15v18q-2 8 -16.5 31.5t-22.5 31.5v639l39 33 l61 -33v-765q0 -25 32 -60t75 -66.5t86 -53t65 -21.5q10 0 23.5 4t17.5 4l318 193q27 16 43 25t26.5 18.5t14.5 20.5t4 30q0 43 -39 63.5t-86 32.5v575q10 4 23.5 16.5t25.5 28t20.5 30t8.5 22.5l-10 8q-9 8 -20 18.5t-24.5 20.5t-23.5 16l-162 96q-6 2 -30.5 20.5t-52.5 42 t-51.5 43t-25.5 21.5l-7 1q-7 1 -9 1q-49 0 -105.5 -28.5t-112 -65.5t-108.5 -74.5t-98 -56.5q-20 29 -51 68t-69 73.5t-83 58t-94 23.5h-21q-49 -18 -100 -49.5t-98 -67.5t-89 -73t-73 -66q0 -2 -1 -12t-1 -18z" />
<glyph unicode="o" d="M2 307q0 -23 36 -54.5t92 -65t125 -68.5t137.5 -61.5t127 -43t92.5 -16.5q10 0 22 1l13 1q8 2 37 20.5t62.5 41t63.5 42t38 23.5q109 47 183.5 75.5t123.5 52.5t77 50.5t40 72.5t15 119.5t3 188.5v47q0 35 -1 72t-1 72v49q-18 55 -50 115.5t-77 114.5t-104.5 96 t-130.5 59q-10 -6 -44 -21.5t-74 -31t-75 -28.5t-45 -16q-29 -10 -85 -21t-125.5 -23.5t-142.5 -24.5t-132.5 -23.5t-98 -20.5t-38.5 -16v-702q-35 0 -49.5 -15.5t-14.5 -37.5v-23zM647 416v575q25 -14 52.5 -45t27.5 -51v-518q-25 0 -52.5 9t-27.5 30z" />
<glyph unicode="p" horiz-adv-x="1146" d="M2 406q0 -29 14.5 -50.5t49.5 -21.5q14 0 26 7t22.5 14t23 14.5t30.5 7.5q8 0 20.5 -2t20.5 -2q2 -29 6 -82t12.5 -115.5t22.5 -128t35.5 -119t52.5 -87.5t74 -34q25 0 36 5.5t15 17.5t9 32.5t17 53.5q2 8 13.5 49t24 88t24.5 90t16 56q2 8 42 28.5t97.5 47t124 58.5 t124 60.5t95 51t37.5 34.5v594q0 12 -17 47t-45 72t-59.5 65.5t-60.5 28.5q-25 0 -74 -22.5t-97 -49t-86 -49t-40 -22.5q-41 66 -98 124t-141 87l80 71q-6 18 -19.5 25.5t-32 10.5t-37 2t-32.5 -1q-131 0 -188.5 -62.5t-57.5 -172.5q0 -55 14.5 -98.5t31.5 -84t31.5 -86 t14.5 -102.5q0 -63 -26.5 -113.5t-59.5 -96.5t-59.5 -94t-26.5 -108v-38zM608 651v318l39 35l41 -35v-387z" />
<glyph unicode="q" horiz-adv-x="1148" d="M2 672q0 -53 6 -112.5t22.5 -118t48.5 -104.5t83 -75t127 -29q41 0 70.5 20.5t56 46.5t57.5 46.5t74 20.5q4 0 8 -1t12 -1q2 -20 13.5 -68.5t29 -109t41 -126t51 -120t59.5 -89t66 -34.5q23 0 44.5 35.5t41 90t36 120t28.5 126t20.5 108.5t10.5 67q2 23 6 72.5t8 112 t8 133.5t8 134.5t6.5 113.5t2.5 73q37 10 40 26.5t3 36.5q0 23 -31 50.5t-79 56t-106.5 55t-115 48t-103.5 34t-69 12.5h-19l-118 -66q-100 -43 -172 -70.5t-121.5 -51t-80 -49t-47 -65.5t-21.5 -101.5t-5 -153.5v-94zM449 588v422q20 0 48.5 -9.5t28.5 -29.5v-420 q-25 0 -51 8t-26 29z" />
<glyph unicode="r" horiz-adv-x="1304" d="M0 1024q0 -37 31.5 -52.5t69.5 -24.5t70 -18t32 -34v-449l-160 -127q-14 -12 20.5 -39.5t95 -63.5t138.5 -75t146.5 -70.5t119.5 -52t62 -20.5q8 0 27.5 1t27.5 1q258 156 481 352q0 2 3 12.5t3 18.5q0 29 -14 48.5t-49 19.5t-59.5 -11.5t-47 -24t-48 -23.5t-60.5 -11 q-8 0 -28.5 -1t-42 1t-39 9t-17.5 26v479l39 31l162 -191l38 -33l7 -1q8 -1 16 -1q2 0 8 1t10 1q18 2 49 22.5t63 47.5t57.5 52.5t29.5 37.5l1 12q1 13 1 29q0 18 2 36.5t2 33.5q0 119 -44 207t-161 161l-280 -223h-41q-47 49 -76 82t-59.5 56.5t-72.5 43t-112 41.5 q-16 -10 -54 -37.5t-82 -58.5t-84 -58.5t-58 -35.5q-31 -23 -54.5 -36t-39 -25.5t-22.5 -26.5t-7 -39z" />
<glyph unicode="s" horiz-adv-x="1087" d="M0 391q0 33 43 64.5t100.5 56.5t113.5 40t81 15q29 0 49 -14l-375 285v178q0 27 18.5 51.5t46 43.5t60.5 34.5t62 25.5q33 10 106.5 33t155.5 47.5t155.5 48t104.5 35.5q8 0 12 2t8 2q25 0 46.5 -20.5t38 -45t27.5 -46t17 -23.5q8 -12 29 -50t45.5 -80t47 -76.5 t32.5 -41.5l1 -9q1 -9 1 -11q0 -37 -43 -68.5t-100.5 -56.5t-112.5 -39t-82 -14q-37 0 -67.5 24.5t-53 57t-41 65.5t-30.5 51l-47 -63l575 -373l-8 -209q0 -29 -20.5 -53.5t-50.5 -44.5t-62.5 -36.5t-55.5 -26.5q-20 -6 -61 -18.5t-92 -28t-107.5 -33t-107.5 -32.5 t-92.5 -27.5t-61.5 -18.5q-8 0 -12 -1t-12 -1q-20 0 -42 19.5t-40.5 44t-31.5 46t-15 25.5q-10 12 -34 48t-48.5 77t-45 76.5t-22.5 46.5l-1 6t-1 12zM434 514q37 -35 56.5 -77t35.5 -64l90 8z" />
<glyph unicode="t" horiz-adv-x="942" d="M0 926q0 -47 34 -73t89 -54v-447q0 -10 -19.5 -21.5t-42 -21.5t-31.5 -13l-28 -9q18 -47 67.5 -87t109 -75t120.5 -65.5t102 -59.5q35 8 110 44t149.5 82t131 94t56.5 83q0 33 -26.5 43t-62.5 8t-70 -8t-46 -6v491q39 -6 73 -6q60 1 100 19q64 28 65 114q0 39 -31 62.5 t-72 37t-84 18.5t-69 9v385l-103 64q-61 -96 -114.5 -172t-111.5 -142.5t-129 -129t-165 -132.5q0 -2 -1 -13t-1 -19z" />
<glyph unicode="u" horiz-adv-x="1626" d="M0 1024q0 -35 14.5 -47t37 -13t52 3t60.5 4v-555q0 -2 -15.5 -13.5t-25.5 -19.5q-10 -2 -40 -13.5t-40 -17.5l-1 -5t-1 -7q0 -8 1 -14l1 -7q18 -47 73.5 -96t120 -94t124 -79t81.5 -50h21q51 0 95 25.5t89 55.5t92 55.5t103 25.5q53 0 92 -25.5t76 -55.5t76.5 -55.5 t95.5 -25.5q41 0 106.5 26.5t127 66.5t106.5 83t45 78q0 39 -25.5 49t-57.5 12t-57.5 6.5t-25.5 30.5v574q47 35 66.5 60.5t19.5 68.5v22q-6 8 -8 11.5t-10.5 9.5t-29 20.5t-63.5 44.5q-33 20 -71.5 47t-75.5 52.5t-66.5 47t-42.5 31.5q-139 -145 -358 -223v-16v-17 q2 -8 12 -25.5t22.5 -38t25 -37.5t20.5 -26v-575q0 -10 -19.5 -21.5t-42 -20.5t-40.5 -15l-19 -7q0 18 2 51t2 74q0 43 1 93.5t1 101.5q0 104 -3 193.5t-3 125.5q0 43 -17.5 109t-53.5 127t-88 105t-120 44q-10 0 -21 -1t-20 -1q-16 -10 -54 -37.5t-82 -58.5t-84 -58.5 t-58 -35.5q-31 -23 -54.5 -36t-39 -25.5t-22.5 -26.5t-7 -39z" />
<glyph unicode="v" horiz-adv-x="1382" d="M0 1214q0 -43 6 -75.5t20.5 -61t38 -56.5t58.5 -63v-542l-17 -6q-18 -7 -40.5 -17t-42 -21.5t-21.5 -19.5q0 -20 37 -54t93 -73t124 -79t130.5 -72.5t110.5 -53t66 -20.5l11 4q12 4 25 9t25.5 10.5t18.5 9.5l158 94q35 20 87 35.5t109.5 31t115.5 34t104.5 44t75 60.5 t28.5 84v606q0 6 -5 20.5t-11.5 29.5t-13.5 28.5t-11 17.5q-18 20 -57 53t-78 64t-70 53.5t-33 22.5h-41l-344 -172l-295 235q31 -8 58 -8q16 0 30 3q39 7 66 28.5t41 51.5t14 64q-104 0 -206.5 -8t-183.5 -38.5t-131 -90t-50 -162.5zM680 446v512q0 20 30.5 29.5t51.5 9.5 v-614z" />
<glyph unicode="w" horiz-adv-x="1832" d="M0 1190q0 -88 25.5 -145.5t97.5 -114.5v-559q-47 -23 -64.5 -44.5t-17.5 -68.5q0 -16 44 -60t101.5 -90.5t110.5 -81t72 -34.5q8 0 20 4t21 4l237 188l13 2q12 3 20 3q63 0 120.5 -31t111 -67t107.5 -66.5t116 -30.5q18 0 73.5 22.5t126 58.5t147.5 81t141.5 90t106.5 87 t42 71v598q0 33 -32 85t-76 101t-92 85t-79 36q-47 0 -85 -25.5t-73 -55.5t-69.5 -55.5t-77.5 -25.5q-2 0 -10 3l-9 3q-61 35 -89.5 63.5t-49 50t-46.5 34t-79 12.5q-47 0 -85 -12.5t-72.5 -34t-68.5 -51t-71 -62.5q-25 33 -60.5 59.5t-73.5 49t-77 41t-69 36.5l161 72l1 5 q2 5 2 7q0 33 -18.5 48.5t-44.5 20.5t-54.5 4t-46.5 -1q-328 0 -328 -309zM647 332v639l72 -4v-609zM1210 408v522q0 29 28.5 39t51.5 10v-614q-23 0 -51.5 7t-28.5 36z" />
<glyph unicode="x" horiz-adv-x="1226" d="M-1 1032.5q1 -10.5 7 -21t16.5 -20.5t20.5 -12q21 -7 43 -7q10 0 22 2q34 5 64 5q31 0 51.5 -13.5t20.5 -58.5v-426q-119 -78 -181.5 -170t-62.5 -217q0 -119 46 -201.5t125 -135t183.5 -76t218.5 -23.5q80 0 158 10t139.5 39t99.5 79t38 132q0 139 -166 139 q-61 0 -99 -20.5t-61 -55t-31 -79.5t-8 -95q-6 0 -26.5 -1t-43 -2t-43 -2t-26.5 -1q-49 0 -109.5 7.5t-113 29t-88 60.5t-35.5 100q0 66 31.5 115t115.5 49q39 0 74 -10.5t68.5 -23.5t66.5 -23.5t70 -10.5q20 0 62 20.5t93.5 53.5t105.5 72t99 75.5t74 67.5t29 45q0 2 -3 9 l-2 7q-4 8 -17 21.5t-24 15.5h-18q-47 0 -89 -20.5t-95 -20.5q-23 0 -50.5 5.5t-27.5 35.5v461h41q29 -80 68.5 -115.5t111.5 -35.5q43 0 84 16t71.5 44t50 63.5t19.5 76.5q0 29 -20.5 86.5t-52 114.5t-72.5 100t-80 43q-8 0 -14 -2l-6 -2l-242 -213q-25 27 -59.5 65 t-76.5 71.5t-89 57t-97 23.5q-8 0 -22 -2l-14 -2l-320 -284q-4 -4 -3 -14.5z" />
<glyph unicode="y" horiz-adv-x="1062" d="M0 1120q0 -61 14.5 -116.5t30.5 -109.5t30.5 -111.5t14.5 -120.5q0 -51 -8 -96.5t-17.5 -89.5t-16.5 -87t-7 -92q0 -39 27.5 -81t68.5 -76t86 -56.5t82 -22.5q2 0 9 1l8 1q14 8 47.5 29t72.5 43.5t73 44t48 31.5q0 -8 1 -26.5t1 -39.5q0 -20 1 -38.5t1 -22.5 q0 -76 -12 -125t-41 -89t-75.5 -80t-116.5 -95q2 -18 19 -26.5t37.5 -11.5t40 -2t30.5 1q43 0 101 19.5t119.5 53t121 79t106.5 94.5t75.5 99t28.5 97v883q-10 23 -25 54.5t-44 47.5l-131 119l-7 1q-8 1 -12 1q-8 0 -14 -1l-6 -1l-199 -112l-82 -35l-200 182l-1 8 q-1 8 -1 10q0 12 14 23.5t34.5 22t41 20.5t32.5 22q-25 51 -49 64.5t-71 13.5q-78 0 -131.5 -23.5t-86 -64.5t-48 -95t-15.5 -118zM522 385v485l41 37q45 -68 45 -147v-146v-39q0 -29 -3 -54t-3 -54v-37q-25 -45 -80 -45z" />
<glyph unicode="z" horiz-adv-x="987" d="M0 270q0 -82 21.5 -157.5t70.5 -134t128 -94.5t194 -36q129 0 226 41t161.5 109t97.5 155t33 179q0 70 -20.5 131t-45 113.5t-45 97.5t-20.5 86q0 4 4 10l4 6l80 64l1 6t1 10q0 45 -51 45q-23 0 -48.5 -3t-41.5 -3q0 25 2 69q1 22 1 46t-1 49q-2 51 -12.5 103t-35 95 t-67.5 70t-111 27q-8 0 -21 -1t-16 -1q-18 -10 -58 -33t-84 -47.5t-84 -47t-54 -32.5q-12 -8 -31.5 -22.5t-39 -30t-34 -27.5t-14.5 -16q-10 -16 5.5 -40t31.5 -24h201q6 0 18 -23.5t23 -39.5v-19q0 -37 -21.5 -58.5t-53.5 -32.5t-69 -19.5t-68.5 -17.5t-53 -26.5 t-21.5 -47.5q0 -8 4 -20.5t4 -14.5q0 -4 6 -18.5t12.5 -30t12.5 -29.5t6 -19q0 -6 -18.5 -34.5t-40 -60.5t-40 -60.5t-18.5 -34.5q0 -8 -5 -44t-5 -73v-39zM350 41v385q0 14 3 48t12.5 67.5t29 59.5t54.5 26v-586q0 -25 10 -39t17 -21.5t4 -8.5t-29 -1q-47 0 -74 10.5 t-27 59.5z" />
<glyph unicode="{" horiz-adv-x="626" d="M-129 94q8 -23 24.5 -55.5t45.5 -48.5l131 -117l7 -2t11 -2t12 2l9 2l198 113l72 28l-72 154q-45 63 -45 147q-4 199 -5 382.5t23.5 327.5t86 238.5t182.5 114.5q-6 18 -22.5 26.5t-37 11.5t-40 2t-27.5 -1q-45 0 -102.5 -19.5t-119 -53t-120.5 -77.5t-106.5 -93.5 t-76 -100.5t-28.5 -98v-881zM381 14l8 6z" />
<glyph unicode="|" horiz-adv-x="847" d="M25 1153q0 14 14 34.5t55 58.5t114 102.5t189 167.5q117 -86 207 -176.5t137 -176.5l5 -11q4 -11 4 -17q0 -43 -20.5 -69t-45.5 -53.5t-45.5 -67.5t-20.5 -109q0 -31 5.5 -106t12.5 -158t14 -155.5t14 -101.5q133 18 133 -98q0 -43 -46 -107.5t-109.5 -126t-127 -104.5 t-100.5 -43q-33 0 -78 39t-86 93.5t-69.5 110.5t-28.5 91v852q-6 0 -22.5 5t-35 12.5t-34 16.5t-17.5 15l-3 11q-3 10 -6 24t-6 27.5t-3 19.5z" />
<glyph unicode="}" horiz-adv-x="626" d="M-125 1378q2 18 18.5 26.5t37 11.5t40 2t29.5 -1q43 0 101.5 -19.5t120 -53t120.5 -77.5t106.5 -93.5t76 -100.5t28.5 -98v-881q-10 -23 -26.5 -55.5t-45.5 -48.5l-129 -117l-7 -2t-9 -2q-8 0 -16 2l-9 2l-198 113l-70 28l70 154q45 63 45 147q2 199 4 382.5t-21.5 327.5 t-84 238.5t-181.5 114.5zM33 20l10 -6z" />
<glyph unicode="~" horiz-adv-x="1394" d="M2 713l377 205l225 -156q29 29 65 69.5t89 77.5q10 8 59 -1t115.5 -28.5t141.5 -45t137.5 -49t101.5 -41t33 -21.5l-375 -205l-203 129q-29 -25 -78 -55.5t-102 -65.5q-10 -8 -59.5 1.5t-116 28.5t-141 45t-136 49.5t-100.5 41t-33 21.5z" />
<glyph unicode="&#xa1;" horiz-adv-x="829" d="M-10 260q0 80 131 68q2 20 8 71.5t12 108.5t11.5 108.5t5.5 71.5q0 49 -19.5 78t-43 48.5t-43 37.5t-19.5 49q0 6 4 13l4 6l278 231q-29 18 -57.5 38.5t-53 44t-39.5 52.5t-15 64q0 37 21.5 72.5t56 63t78.5 45t89 17.5q84 0 141.5 -49t57.5 -119q0 -23 -8 -55.5 t-23.5 -66t-38 -63.5t-49.5 -44l279 -231q4 -4 2 -12.5t-9.5 -18.5t-15.5 -20.5t-16 -16.5q-4 -4 -18.5 -9t-31 -10.5t-32 -8.5t-21.5 -3v-592q0 -25 -28.5 -64.5t-69.5 -77.5t-85 -64.5t-75 -26.5q-23 0 -59.5 14.5t-77.5 37t-82 52t-74.5 58t-54 56.5t-20.5 46z" />
<glyph unicode="&#xa2;" horiz-adv-x="1140" d="M0 444q0 -23 22.5 -48t60.5 -51t85 -49.5t96 -41.5q4 -35 23.5 -79t45 -83t51.5 -66.5t44 -27.5t47 22.5t60.5 58.5t60.5 79t47 84q47 16 103.5 36.5t108.5 40t94 36t63 24.5l40 16t23 12.5t11.5 14.5t3.5 22q0 16 -12.5 30.5t-49.5 14.5q-59 0 -108.5 -12t-110.5 -12 q-23 0 -54.5 2t-65.5 7t-65.5 13.5t-56.5 20.5q-8 66 -10 140.5t-2 123.5v53v6q25 -33 67 -65.5t103 -32.5q29 0 89 9.5t121.5 25.5t108 37.5t46.5 46.5q0 6 -2 9l-1 3q-4 8 -26.5 35t-49 55.5t-51 54t-34.5 33.5q-8 2 -22.5 16.5t-33 32t-40 31t-44.5 13.5q-4 0 -10 -1 t-8 -1q-23 -4 -58.5 -10.5t-80.5 -16.5q-70 141 -215 287q-72 -86 -116 -139.5t-68.5 -86t-34 -48t-9.5 -27.5q0 -6 2 -17.5t4.5 -23t4.5 -20.5l2 -9q-29 -4 -63 -15.5t-64.5 -26.5t-51 -33.5t-20.5 -37.5v-465z" />
<glyph unicode="&#xa3;" horiz-adv-x="946" d="M0 61q109 0 164 78q92 -51 168 -79.5t153.5 -42t166.5 -15.5t210 -2q0 47 -20.5 82t-79.5 57q59 37 93 80t34 100q0 111 -141 111q-45 0 -78 -3t-68 -32v64q70 4 117 9t75.5 19.5t41 41t12.5 75.5q0 10 -3 40t-3 40q-12 0 -46 4t-73 9t-74 10.5t-47 7.5q-10 2 -24.5 13 t-14.5 20v415q0 2 14.5 15.5t24.5 15.5h23q23 0 43 -6t40.5 -13.5t42 -13.5t50.5 -6v72l-359 286h-80q-2 0 -42.5 -21.5t-93 -52t-104.5 -63.5t-79 -53q-14 -8 -28.5 -33t-12.5 -33q0 -4 10.5 -19t24.5 -30.5t27.5 -29t17.5 -15.5v-448q-53 -20 -67.5 -40t-14.5 -57 q0 -33 14.5 -60.5t30.5 -55t30.5 -56t14.5 -63.5q0 -43 -14.5 -83t-30.5 -79t-30.5 -78t-14.5 -82z" />
<glyph unicode="&#xa4;" horiz-adv-x="2752" d="M0 625l111 30l22 389l-88 -14zM182 825q0 -14 1 -24t1 -27q43 -176 178 -176q41 0 97 16l-8 70q-29 -6 -50.5 -8t-38.5 -2q-102 0 -102 76q0 45 20.5 84.5t51.5 74.5q37 29 63.5 41.5t63.5 12.5q12 0 23.5 -1t27.5 -6l6 97q-334 -49 -334 -228zM551 696q31 -68 156 -67 q23 0 38 1t41 1q134 -1 177 278q-41 133 -193 133h-22h-23q-174 -94 -174 -346zM639 801v26q57 123 139 123q53 0 84 -51q14 -4 15.5 -17.5t1.5 -29.5q0 -31 -8.5 -57.5t-36.5 -57.5q-82 -35 -123 -35q-72 0 -72 99zM1014 1020l12 -395l68 10v192q173 -196 288 -196v389 l-88 24l-10 -274zM1464 641l115 31l20 387l-81 -15zM1653 668h96q35 45 59.5 67.5t59.5 22.5q53 0 108 -90l54 -17l-5 293q-37 125 -120 125q-16 0 -27.5 -1t-34.5 -9q-166 -190 -190 -391zM1794 840l98 135l56 -135h-154zM2103 1036l15 -395l67 10v189q174 -191 285 -191 v393l-80 17l-20 -273zM2533 612l58 -49l71 62l-69 26zM2578 758l68 -10l59 288l-112 23z" />
<glyph unicode="&#xa5;" horiz-adv-x="1382" d="M0 1120q0 -61 14.5 -116.5t30.5 -109.5t30.5 -111.5t14.5 -120.5q0 -51 -8 -96.5t-17.5 -89.5t-16.5 -87t-7 -92q0 -39 27.5 -81t68.5 -76t86 -56.5t82 -22.5q2 0 9 1l8 1q10 8 43.5 29t73.5 43.5t75 44t49 31.5q0 -8 1 -26.5t1 -39.5q0 -20 1 -38.5t1 -22.5 q0 -76 -12 -125t-41 -89t-75.5 -80t-116.5 -95q2 -18 20 -26.5t39.5 -11.5t41 -2t26.5 1q43 0 101 19.5t119.5 53t121 79t106.5 94.5t75.5 99t28.5 97v107q41 -4 60.5 -5t28.5 1q86 35 141 52t84 52q4 2 -1 6l-5 4l-308 82v160q90 -10 107 -4q43 18 78 30.5t62.5 22.5 t48 21.5t36.5 27.5q2 4 -3 7l-5 4l-324 88v227q-10 23 -25 54.5t-44 47.5l-131 119l-7 1q-8 1 -12 1q-8 0 -14 -1l-6 -1l-199 -112l-82 -35l-200 182l-1 8q-1 8 -1 10q0 12 14 23.5t34.5 22t41 20.5t32.5 22q-25 51 -49 64.5t-71 13.5q-78 0 -131.5 -23.5t-86 -64.5t-48 -95 t-15.5 -118zM522 385v258q23 -4 40.5 -7t45.5 -9v-52q0 -29 -3 -54t-3 -54v-37q-25 -45 -80 -45zM522 686v184l41 37q45 -68 45 -147v-49z" />
<glyph unicode="&#xa6;" horiz-adv-x="847" d="M25 1153q0 14 14 34.5t55 58.5t114 102.5t189 167.5q117 -86 207 -176.5t137 -176.5l5 -11q4 -11 4 -17q0 -43 -20.5 -69t-45.5 -53.5t-45.5 -67.5t-20.5 -109q0 -31 5.5 -106t12.5 -158t14 -155.5t14 -101.5q133 18 133 -98q0 -43 -46 -107.5t-109.5 -126t-127 -104.5 t-100.5 -43q-33 0 -78 39t-86 93.5t-69.5 110.5t-28.5 91v852q-6 0 -22.5 5t-35 12.5t-34 16.5t-17.5 15l-3 11q-3 10 -6 24t-6 27.5t-3 19.5z" />
<glyph unicode="&#xa8;" horiz-adv-x="1239" d="M0 1620q0 -35 21.5 -69.5t56.5 -62.5t79 -45.5t87 -17.5q39 0 75.5 13.5t63.5 35t43 51t16 62.5q0 104 -65.5 155.5t-212.5 67.5q-29 -18 -57.5 -38.5t-52 -43t-39 -50t-15.5 -58.5zM750 1622q0 -35 21.5 -69.5t57 -62.5t78.5 -45.5t86 -17.5q39 0 76 13.5t63.5 35t43 51 t16.5 62.5q0 104 -67 157t-214 69q-27 -18 -55.5 -39t-52 -44.5t-38.5 -51t-15 -58.5z" />
<glyph unicode="&#xa9;" d="M2 307q0 -23 36 -54.5t92 -65t125 -68.5t137.5 -61.5t127 -43t92.5 -16.5q10 0 22 1l13 1q10 2 40 20.5t62.5 41t61.5 42t37 23.5q109 47 183.5 75.5t123.5 52.5t77 50.5t40 72.5t15 119.5t3 188.5v47q0 35 -1 72t-1 72v49q-18 55 -50 115.5t-78 114.5t-104.5 96 t-129.5 59q-8 -8 -43 -23.5t-76 -31t-76 -27.5t-43 -15q-29 -10 -85 -21t-125.5 -23.5t-142.5 -24.5t-132.5 -23.5t-98 -20.5t-38.5 -16v-702q-35 0 -49.5 -15.5t-14.5 -37.5v-23zM412 489v336q0 14 10 26.5t25.5 23t33 17.5t29.5 13q16 4 56 14.5t85 22.5t84 24.5t53 18.5 h11q10 0 21 -10t21.5 -21.5t17.5 -21.5t11 -10l80 -127l1 -3q1 -4 1 -8q0 -18 -22.5 -33.5t-53 -27.5t-61.5 -19.5t-45 -7.5q-20 0 -35.5 12.5t-27 29t-20.5 32.5t-17 25v-226q0 -16 16 -28.5t39 -20.5t46.5 -12t39.5 -4q29 0 54.5 8t54.5 8q16 0 24 -9t8 -22q0 -20 -7 -25 t-36 -22q-14 -8 -49 -26.5t-72.5 -39t-71.5 -37.5t-46 -24l-6 -2q-7 -2 -15 -2q-27 0 -67.5 18.5t-78.5 45t-64.5 57.5t-26.5 57z" />
<glyph unicode="&#xaa;" horiz-adv-x="663" d="M0 1108q0 -66 16.5 -114t73.5 -93q25 -29 57 -29q20 0 42 17.5t42.5 38t39 38t34.5 17.5q8 0 21.5 -17.5t32 -38t40 -38t43.5 -17.5h17q8 8 26.5 22.5t39 30t40 30t29.5 20.5q14 14 18 14t4 17q0 8 -10 22t-18 14t-14.5 -5t-16.5 -5q-8 0 -12 8.5t-7 19.5t-4.5 21.5 t-1.5 14.5v8v43v18v41v58q0 29 9 59q12 12 32.5 17.5t20.5 25.5q0 16 -14.5 27.5t-34 19.5t-40 14.5t-32.5 12.5q-37 20 -64.5 48t-66.5 28q-25 0 -35 -8.5t-37 -20.5q-39 -16 -84 -31.5t-85 -35t-68.5 -48.5t-32.5 -72v-20v-68v-20v-84zM246 1092v53v108v21v45v10l4 27h6h2 q6 0 13.5 -9.5t15.5 -15.5l10 -8v-256q0 -6 -11.5 -19.5t-19.5 -17.5h-2h-6l-8 6q-2 16 -3 28.5t-1 27.5z" />
<glyph unicode="&#xab;" horiz-adv-x="1138" d="M2 692q-6 -10 11.5 -55t47 -106.5t65.5 -130t69.5 -126t58.5 -93.5t33 -31l254 301l-324 200q14 10 56 41t90.5 67t93.5 70.5t67 53.5q10 8 -1 37.5t-34.5 68.5t-54.5 83t-59.5 79t-51 56.5t-26.5 17.5zM555 705q-6 -10 11.5 -55.5t47 -107t65.5 -130t69.5 -126t58 -93 t33.5 -31.5l254 301l-324 201q14 10 56 40.5t90.5 66.5t93.5 71t67 53q10 8 -1 38t-34.5 68.5t-54.5 82.5t-59.5 79t-51 56.5t-26.5 17.5z" />
<glyph unicode="&#xac;" horiz-adv-x="1271" d="M2 713q-4 -4 42 -18.5t122 -34t172 -42t191.5 -42t180.5 -34t138 -18.5l-123 -131l246 -254q6 -4 28.5 21.5t51 66.5t59.5 91.5t54.5 94.5t34.5 76.5t3 38.5q-35 25 -54.5 45.5t-41.5 36.5q39 20 67.5 40t49.5 48q4 2 -3 8l-8 7l-628 205z" />
<glyph unicode="&#xad;" horiz-adv-x="708" d="M2 709l315 198l338 -198l5 -7q4 -6 -1 -10q-10 -29 -25.5 -47t-37 -35.5t-48 -37t-56.5 -46.5q-8 -8 -48.5 1.5t-95.5 27.5t-118.5 43t-116 47.5t-84 39.5t-27.5 24z" />
<glyph unicode="&#xae;" d="M2 307q0 -23 36 -54.5t92 -65t125 -68.5t137.5 -61.5t127 -43t92.5 -16.5q10 0 22 1l13 1q10 2 40 20.5t62.5 41t61.5 42t37 23.5q109 47 183.5 75.5t123.5 52.5t77 50.5t40 72.5t15 119.5t3 188.5v47q0 35 -1 72t-1 72v49q-18 55 -50 115.5t-78 114.5t-104.5 96 t-129.5 59q-8 -8 -43 -23.5t-76 -31t-76 -27.5t-43 -15q-29 -10 -85 -21t-125.5 -23.5t-142.5 -24.5t-132.5 -23.5t-98 -20.5t-38.5 -16v-702q-35 0 -49.5 -15.5t-14.5 -37.5v-23zM342 831q0 23 13.5 32t47.5 32q10 6 30 19.5t41.5 28.5t41 29.5t27.5 18.5q35 -12 55 -22.5 t36.5 -22.5t32 -28.5t38.5 -40.5h20l137 114q63 -37 84 -81t21 -103q0 -16 -1 -35.5t-1 -21.5q-4 -6 -16.5 -19.5t-28 -26t-32 -22.5t-26.5 -10l-2 -2t-6 -2t-7 2l-3 2l-21 14l-82 96l-16 -16v-240q0 -18 27 -18h34q18 0 30.5 5t24 12t24 12.5t28.5 5.5q33 0 33 -31 q0 -6 -1 -11t-1 -7q-55 -47 -114.5 -91.5t-123.5 -83.5q-8 0 -16 -1t-15 -1q-6 0 -30.5 10.5t-59.5 27t-72.5 35t-68.5 36.5t-48 32.5t-9 20.5l77 64v223q0 12 -16 17t-34.5 9.5t-35 11.5t-16.5 27z" />
<glyph unicode="&#xaf;" horiz-adv-x="1292" d="M-88 1704q-8 -2 34 -7t115.5 -14.5t172 -18.5t203 -19.5t208 -18.5t188.5 -14t143 -7t73 3q150 29 243.5 44t145.5 44q6 2 -2 5l-9 3l-788 102z" />
<glyph unicode="&#xb0;" horiz-adv-x="690" d="M0 1036v13q0 29 33 28v350q0 4 41 12.5t94 17.5t103.5 18.5t70.5 15.5q6 0 23.5 7t38 15.5t38 15.5t21.5 9q35 -6 63.5 -27.5t51 -49t39 -58.5t26.5 -55v-25q0 -16 1 -35.5t1 -36.5v-24q0 -86 -5 -127t-26.5 -63.5t-65.5 -38t-124 -50.5q-4 -2 -19.5 -12t-33 -21.5 t-31.5 -20.5t-18 -9l-6 -1q-7 -1 -11 -1q-25 0 -76 18.5t-101 43t-89 50t-39 41.5zM322 1092q0 -10 14 -15.5t26 -5.5v260q0 10 -12 26.5t-28 20.5v-286z" />
<glyph unicode="&#xb1;" horiz-adv-x="931" d="M12 774l416 123l82 197l5 4q5 4 7 0q23 -10 37 -26.5t27.5 -39t28 -51t34.5 -61.5q10 -20 -2 -82l238 -64l4 -4t2 -6q-29 -35 -84 -51.5t-141 -50.5q-12 -4 -62 0q-16 -51 -30.5 -101.5t-25.5 -89.5t-20.5 -60.5t-11.5 -15.5l-143 297q-70 12 -136.5 25.5t-117.5 25 t-81 19.5t-26 12zM33 201l418 123l454 -123l7 -3q6 -3 -1 -5q-29 -35 -83 -52.5t-140 -52.5q-10 -4 -65.5 2t-130 17.5t-158.5 27t-153.5 29.5t-111.5 24.5t-36 12.5z" />
<glyph unicode="&#xb2;" horiz-adv-x="557" d="M0 1104l289 184l-25 31q-8 -8 -17 -24.5t-20.5 -33t-26 -28.5t-32.5 -12q-12 0 -40 7t-56.5 19.5t-50 28.5t-21.5 35v8q4 4 14.5 21.5t22.5 39t22.5 41t16.5 25.5q4 0 10 10t13 22.5t18.5 22.5t23.5 10q2 0 4 -1t7 -1q14 -4 50 -15t78 -25.5t78.5 -25.5t53.5 -16 q29 -10 61.5 -29.5t32.5 -47.5v-88l-187 -144q10 8 23 8q12 0 41 -7t57.5 -19.5t50 -28.5t21.5 -35q0 -2 -1 -4l-1 -2q0 -6 -11.5 -24.5t-24.5 -39t-25.5 -38t-14.5 -23.5q-2 -2 -8 -13t-15.5 -23.5t-19.5 -21.5t-20 -9h-13q-16 4 -52 10t-76 14t-75.5 14.5t-50.5 10.5 q-25 10 -59.5 31.5t-34.5 50.5zM186 1012l64 -15q6 6 10 18.5t9 28t11.5 31t14.5 23.5z" />
<glyph unicode="&#xb3;" horiz-adv-x="585" d="M0 1018q0 -20 6 -25.5t35 -21.5q12 -8 45 -27.5t72 -40t73.5 -38t47.5 -21.5q2 0 8 -2t14 -2q27 0 68 18.5t78.5 45t65.5 57t28 57.5v336q0 14 -10.5 26.5t-26 22.5t-32.5 17t-32 14q-16 6 -55 18t-83 24.5t-85 22.5t-59 14h-6q-12 0 -23.5 -10t-22 -21.5t-17.5 -21.5 t-9 -10q-6 -8 -12.5 -22.5t-13.5 -30t-13 -28.5t-10 -19v-9q0 -18 21.5 -32.5t50 -24.5t56 -15t40.5 -5q23 0 36 6t21 15t13 19.5t10 18.5v-123l-62 25l-186 -82q-4 -4 20.5 -12.5t62.5 -17.5t81 -19.5t75 -16.5q-20 -23 -62 -34t-67 -11q-37 0 -59.5 8.5t-50.5 8.5 q-23 0 -27 -9.5t-4 -21.5z" />
<glyph unicode="&#xb4;" horiz-adv-x="540" d="M2 1614q-2 -6 2 -6q8 -25 23.5 -42.5t37 -31.5t48 -28.5t55.5 -35.5q8 -8 35.5 10.5t65.5 50.5t80 71.5t75 75.5t52.5 60.5t15.5 26.5l-306 160l-182 -305z" />
<glyph unicode="&#xb5;" horiz-adv-x="1062" d="M0 98q0 -47 28.5 -97t76 -99t106.5 -94.5t120.5 -79t120 -53t101.5 -19.5q8 0 28.5 -1t40 2t36 11.5t20.5 26.5q-70 55 -117 95t-75.5 80t-41 89t-12.5 125q0 4 1 22.5t1 38.5t3 39t3 27q12 -10 47 -31.5t73 -45t72 -43t46 -28.5l8 -1t10 -1q35 0 81 22.5t87 56.5t70 76 t29 81q0 49 -8.5 92t-17.5 87t-17.5 89t-8.5 97q0 63 14.5 120.5t31 111.5t30.5 109.5t14 116.5q0 63 -15 117.5t-49 95.5t-88 64.5t-130 23.5q-47 0 -70.5 -13t-50.5 -65q10 -12 30.5 -22t41 -20.5t36 -20.5t15.5 -25q0 -2 -1 -10l-1 -8l-199 -182l-80 35l-200 112l-8 1 q-7 1 -15 1q-2 0 -10 -1l-8 -1l-127 -119q-29 -16 -45.5 -47.5t-26.5 -54.5v-883zM393 575v39v146q0 41 12.5 77.5t34.5 69.5l39 -37v-485q-59 0 -80 45v37q0 29 -3 54.5t-3 53.5z" />
<glyph unicode="&#xb6;" horiz-adv-x="3407" d="M0 752l20 -99l250 -96l-137 -94q0 -74 66 -74l354 -57l-64 -62v-71l576 -41l-21 -95l72 -38l545 75v-114l72 -19l421 191l134 -117l118 22l215 207q72 -37 129.5 -57t100.5 -20q55 0 86 43l24 227l217 -41q72 14 72 80v16q0 18 -4 23l-133 149h199l41 80q0 2 4 3t4 3 q0 51 -291 146q156 14 156 108v10q0 12 -2 13l-445 98q90 18 90 113l-45 36h-536l20 117l-154 13l-444 -74l-20 20l20 54l-88 61l-395 -172l-203 111q-102 -33 -268 -224l-246 74h-14q-51 0 -74 -63.5t-23 -204.5l-266 22l-27 -112l138 -136zM63 709l293 20l-157 170l-25 80 l291 -18l45 264q131 -82 217 -82q27 0 53 8l244 225l174 -112l401 166l48 -13l14 -117l584 76l-45 -135h598l-177 -111l512 -96l29 -37h-29l-225 -55l361 -156l20 -34l-285 -23q180 -174 181 -227q0 -8 -7 -21l-288 37l-21 -262l-291 76l-219 -232l-205 117l-444 -192l23 75 l-72 80l-545 -94l62 131l-625 19l182 110l-536 98l245 97zM553 530l94 27l17 330l-70 -13zM707 702q0 -12 1 -21t1 -26q39 -147 153 -147q23 0 39.5 4t40.5 8l-6 60q-49 -6 -74 -7q-90 0 -90 64q0 63 68 137q47 45 102 45q14 0 21.5 -1t23.5 -7l6 84q-287 -39 -286 -193z M1024 590q27 -57 133 -58q16 0 30.5 2.5t31.5 2.5q120 -1 151 237q-27 113 -160 113h-22v-2h-19q-145 -86 -145 -295zM1100 678v24q51 106 112 107q49 0 72 -43q14 -6 15 -17.5t1 -23.5q0 -47 -36 -98q-29 -16 -54.5 -22.5t-48.5 -6.5q-61 0 -61 80zM1417 868l8 -338l64 11 v161q137 -165 235 -165v331l-67 19l-10 -234zM1800 545l94 24l21 332l-72 -14zM1964 567h78q45 76 98 76t90 -76l47 -14l-4 250q-27 106 -102 106q-14 0 -21.5 -1t-29.5 -9q-145 -168 -156 -332zM2079 715l84 112l47 -112h-131zM2345 883l4 -338l66 8v162q141 -164 237 -164 v334l-67 16l-11 -233zM2707 518l48 -39l65 51l-61 23zM2744 643l64 -8l47 248l-96 18z" />
<glyph unicode="&#xb7;" horiz-adv-x="503" d="M0 647q0 -35 21.5 -69.5t56.5 -62.5t79 -45t87 -17q39 0 75.5 13t63.5 34.5t43 51.5t16 62q0 104 -65.5 156t-212.5 68q-29 -18 -57.5 -39t-52 -43.5t-39 -50t-15.5 -58.5z" />
<glyph unicode="&#xb8;" horiz-adv-x="337" d="M0 45q80 0 164 -12.5t152.5 -41t111.5 -76.5t43 -120q0 -29 -5 -49t-15.5 -38.5t-27.5 -37t-44 -43.5l-115 -22q-98 4 -167.5 38.5t-92.5 100.5q8 31 33.5 46t58.5 24.5t68 15.5t61 18q-37 25 -76.5 51.5t-72.5 53.5t-54.5 50.5t-21.5 41.5z" />
<glyph unicode="&#xb9;" horiz-adv-x="417" d="M0 1372q0 6 7 13.5t26.5 22.5t54.5 40t90 68q57 -35 99 -70t71 -70l1 -4t1 -6q0 -18 -9 -28.5t-21.5 -21.5t-21.5 -27.5t-9 -43.5q0 -10 1 -39.5t3 -62.5t6 -62.5t8 -38.5q63 6 64 -38q0 -18 -21.5 -44t-52.5 -49.5t-61.5 -41t-49.5 -17.5q-16 0 -37.5 15.5t-41 37 t-34 44t-14.5 36.5v334q-8 0 -25.5 7t-23.5 13q-6 2 -8 14.5t-2 18.5z" />
<glyph unicode="&#xba;" horiz-adv-x="690" d="M0 1036v13q0 29 33 28v350q0 4 41 12.5t94 17.5t103.5 18.5t70.5 15.5q6 0 23.5 7t38 15.5t38 15.5t21.5 9q35 -6 63.5 -27.5t51 -49t39 -58.5t26.5 -55v-25q0 -16 1 -35.5t1 -36.5v-24q0 -86 -5 -127t-26.5 -63.5t-65.5 -38t-124 -50.5q-4 -2 -19.5 -12t-33 -21.5 t-31.5 -20.5t-18 -9l-6 -1q-7 -1 -11 -1q-25 0 -76 18.5t-101 43t-89 50t-39 41.5zM322 1092q0 -10 14 -15.5t26 -5.5v260q0 10 -12 26.5t-28 20.5v-286z" />
<glyph unicode="&#xbb;" horiz-adv-x="1138" d="M0 463l322 201q-16 10 -58.5 40.5t-90.5 66.5t-93 71t-66 53q-10 8 1.5 38t36 68.5t55 82.5t59.5 79t51.5 56.5t26.5 17.5l293 -532q6 -10 -10.5 -55.5t-46 -108t-65.5 -131t-70 -126t-58.5 -92t-30.5 -30.5zM553 451l321 200q-16 10 -58 41t-90 67t-93 70.5t-66 53.5 q-10 8 1.5 37.5t36 68.5t55 83t59.5 79t50.5 56.5t27.5 17.5l293 -533q6 -12 -10.5 -57t-45 -106.5t-64.5 -130t-70 -125t-59.5 -92.5t-31.5 -31z" />
<glyph unicode="&#xbc;" horiz-adv-x="1476" d="M0 1372q0 -6 2 -18.5t8 -14.5q6 -6 23.5 -13t25.5 -7v-334q0 -14 14.5 -36.5t34 -44t41 -37t37.5 -15.5q18 0 49 17.5t62 41t52.5 49t21.5 44.5q0 45 -64 38q-4 8 -8 38t-6 63t-3 62.5t-1 39.5q0 27 9 43.5t21.5 27.5t21.5 21.5t9 28.5q0 2 -1 6l-1 4q-29 35 -70.5 70 t-99.5 70q-55 -43 -90 -68t-54.5 -40t-26.5 -22.5t-7 -13.5zM198 182q5 -47 22.5 -92t44 -79t52.5 -34q35 0 93.5 25t119 61.5t110.5 78.5t69 77q25 49 6 71.5t-90 8.5q4 16 23.5 57t45 92.5t55 109.5t56 109.5t47 91.5t29.5 56q31 57 74.5 92t86.5 59.5t81 48t57 58.5 q2 6 9 -2t7 -2v8q-23 147 -172 291q-154 -86 -249 -140t-149.5 -86t-78 -47.5t-31.5 -25.5q-4 -4 -8 -14.5t-6 -21.5t-3 -21.5t3 -12.5q6 -10 31.5 -25.5t39.5 -15.5l-364 -702q-16 -27 -11 -74zM881 281q0 -6 19.5 -16.5t48 -23t62 -25.5t63.5 -25.5t50.5 -20.5t22.5 -10 q2 -4 8 -23.5t12.5 -41t11.5 -39t7 -19.5q4 -10 8 -19.5t4 -17.5t25 -8q35 0 54 30.5t29.5 71.5t13.5 81t5 58q6 0 11 1.5t10 1.5q18 0 26 -9.5t25 -9.5q35 0 35 31v18q0 25 -14.5 45.5t-31 40t-31 41t-14.5 47.5q0 25 12.5 48.5t25 42t19.5 31.5t-5 18l-146 51 q-45 -12 -73.5 -25.5t-49.5 -42.5q-2 0 -21.5 9.5t-44 21.5t-49 21.5t-36.5 9.5q-14 0 -30.5 -12.5t-30 -29t-22.5 -31.5t-9 -20v-251zM1085 322v167l21 15l18 -15v-135z" />
<glyph unicode="&#xbd;" horiz-adv-x="1499" d="M0 1372q0 6 7 13.5t26.5 22.5t54.5 40t90 68q57 -35 99 -70t71 -70l1 -4t1 -6q0 -18 -9 -28.5t-21.5 -21.5t-21.5 -27.5t-9 -43.5q0 -10 1 -39.5t3 -62.5t6 -62.5t8 -38.5q63 6 64 -38q0 -18 -21.5 -44t-52.5 -49.5t-61.5 -41t-49.5 -17.5q-16 0 -37.5 15.5t-41 37 t-34 44t-14.5 36.5v334q-8 0 -25.5 7t-23.5 13q-6 2 -8 14.5t-2 18.5zM198 182q-5 47 11 74l364 702q-14 0 -39.5 15.5t-31.5 25.5q-4 2 -3 12.5t3 21.5t6 21.5t8 14.5q8 10 31.5 25.5t78 47.5t149.5 86t249 140q150 -143 172 -291v-8q0 -6 -7 2t-9 2q-18 -35 -56.5 -58.5 t-81.5 -48t-87 -59.5t-74 -92q-8 -16 -29 -56t-47.5 -91.5t-56 -109.5t-55 -109.5t-45 -92.5t-23.5 -57q72 14 90 -8.5t-6 -71.5q-18 -35 -68.5 -77t-111 -78.5t-119 -61.5t-93.5 -25q-27 0 -53 34t-43.5 79t-22.5 92zM940 266l289 185l-27 30q-8 -8 -16 -24.5t-19.5 -32.5 t-26 -28.5t-32.5 -12.5q-12 0 -40 7t-56.5 19.5t-50 29t-21.5 32.5v10q4 4 15.5 21.5t22.5 39t22.5 40t15.5 24.5q4 0 10 10.5t13.5 23.5t17.5 23.5t22 10.5q6 0 7 -1t4 -1q14 -4 52 -15.5t79 -26t77.5 -25.5t53.5 -15q31 -10 62.5 -29.5t31.5 -48.5v-90l-186 -141q6 6 24 6 q12 0 41 -7.5t57.5 -19.5t50 -27.5t21.5 -33.5q0 -2 -3 -4l-3 -2q0 -6 -10.5 -24.5t-22.5 -39t-24.5 -39t-14.5 -24.5q-2 -2 -9 -12.5t-16.5 -23t-20.5 -21.5t-19 -9h-11q-16 4 -52 10t-75.5 14.5t-76.5 14.5t-52 10q-25 10 -59.5 31.5t-34.5 50.5zM1126 174l66 -14 q2 4 6 17t9 28.5t11.5 31t14.5 23.5z" />
<glyph unicode="&#xbe;" horiz-adv-x="1581" d="M0 1022q0 -20 6 -25.5t35 -21.5q12 -6 46 -24.5t72 -40t72.5 -40t47.5 -22.5q2 0 8 -1t14 -1q27 0 68 18.5t78.5 45t65.5 57t28 55.5v338q0 14 -10.5 26.5t-26 21.5t-32.5 16.5t-32 13.5q-16 6 -55 18t-83 24.5t-85 24t-59 15.5h-6q-12 0 -23.5 -10.5t-22 -22.5 t-17.5 -22.5t-9 -10.5q-10 -14 -24.5 -50t-24.5 -50v-6q0 -18 21.5 -33t50 -26t56 -16t40.5 -5q23 0 36 6t21 15t13 19.5t10 18.5v-123l-62 25l-186 -82q-4 -2 20.5 -10.5t62.5 -17.5t81 -19t75 -19q-20 -23 -62 -34t-67 -11q-37 0 -59.5 9.5t-50.5 9.5q-23 0 -27 -9.5 t-4 -23.5zM301 182q6 -47 23.5 -92t43 -79t52.5 -34q37 0 96 25t118.5 61.5t110 78.5t68.5 77q27 49 8.5 71.5t-94.5 8.5q4 16 23.5 57t46 92.5t56.5 109.5t56.5 109.5t47 91.5t28.5 56q31 57 74 92t86 59.5t81 48t58 58.5q4 6 10 -2t6 -2v8q-18 145 -174 291 q-154 -86 -249 -139t-150 -85t-77.5 -48.5t-31.5 -26.5q-2 -4 -5 -15.5t-5 -22.5t-3 -20.5t-1 -11.5q8 -10 34 -25.5t40 -15.5l-367 -702q-16 -27 -10 -74zM985 281q0 -8 40 -26.5t89 -38t91 -36t44 -20.5t8.5 -23.5t12.5 -41t12 -39t8 -19.5q12 -23 13 -37q0 -8 22 -8 q35 0 54.5 30.5t30.5 71.5t14.5 81t7.5 58q2 0 8 1.5t8 1.5q23 0 30 -9.5t25 -9.5q33 0 33 31v18q0 25 -14.5 45.5t-30.5 40t-30.5 41t-14.5 47.5q0 25 12 48.5t24.5 42t18.5 31.5t-6 18l-143 51q-45 -12 -73 -25.5t-50 -42.5l-19 9q-20 10 -45.5 22t-50 21.5t-37.5 9.5 q-12 0 -28.5 -12.5t-30.5 -29t-23.5 -31.5t-9.5 -20v-251zM1188 322v167l22 15l19 -15v-135z" />
<glyph unicode="&#xbf;" horiz-adv-x="1058" d="M0 322q0 -29 18.5 -52.5t46 -44t60.5 -36t61 -25.5q31 -10 105 -31.5t156.5 -46.5t156.5 -48.5t105 -35.5q8 0 11 -2t11 -2q20 0 42 19.5t38 44t28.5 46t18.5 25.5q8 12 28.5 50t45 79t47 76t33.5 43l1 8t1 12q0 35 -43 68t-99.5 57.5t-113 39t-82.5 14.5q-35 0 -51 -15 l387 250l-224 217l-251 -176q6 0 -35 -21.5t-96.5 -52t-110.5 -61.5t-78 -49l-217 -172v-178zM434 444l174 111q-20 -16 -39.5 -39.5t-35 -48.5t-28 -48.5t-20.5 -37.5zM553 1364q0 -104 65.5 -155.5t212.5 -67.5q27 18 57 37.5t53.5 43t38.5 50t15 59.5q0 35 -22.5 70 t-57 62.5t-77.5 45t-86 17.5q-41 0 -77 -13.5t-62.5 -35t-43 -51t-16.5 -62.5z" />
<glyph unicode="&#xc0;" horiz-adv-x="1294" d="M0 518q0 -123 34 -225.5t144 -190.5q27 -20 53.5 -37.5t63.5 -17.5q39 0 83 34t86 76t79 75.5t65 33.5q14 0 42 -33.5t65 -75.5t81 -76t93 -34h31q14 14 52 43t81 59.5t79.5 59.5t53.5 45q16 10 26.5 14t16.5 9.5t8 11.5t2 20q0 8 -7 20.5t-16.5 25t-18.5 20.5t-15 8 q-20 0 -30.5 -8t-33.5 -8q-18 0 -29.5 17t-16.5 39.5t-7 42t-2 26.5v16v90v33v82v114q0 51 16 119q14 12 32.5 20.5t35 15.5t29 18.5t12.5 33.5q0 35 -29 56.5t-66.5 37t-77.5 27.5t-65 27q-41 18 -71.5 43.5t-60.5 49t-60.5 40t-69.5 16.5q-25 0 -42 -5t-32.5 -12 t-32 -17.5t-38.5 -20.5q-78 -35 -167 -64.5t-168 -68.5t-136.5 -96.5t-69.5 -145.5v-41q0 -37 -1 -67.5t-1 -67.5v-41v-166zM332 1765q-6 -2 13.5 -26.5t52 -60.5t73.5 -75.5t79 -71.5t66.5 -50.5t38.5 -10.5q31 20 57.5 35t47 29t35 31.5t22.5 42.5q8 0 4 6l-4 6l-182 305z M492 590v217v39v96v16l12 58h6h10q10 -4 23.5 -21.5t27.5 -27.5q10 -8 19 -15l8 -6v-512q0 -6 -7 -17t-18.5 -21.5t-21.5 -20.5t-16 -15h-9h-6q-16 7 -16 17q-8 59 -10 111.5t-2 101.5z" />
<glyph unicode="&#xc1;" horiz-adv-x="1294" d="M0 518q0 -123 34 -225.5t144 -190.5q27 -20 53.5 -37.5t63.5 -17.5q39 0 83 34t86 76t79 75.5t65 33.5q14 0 42 -33.5t65 -75.5t81 -76t93 -34h31q14 14 52 43t81 59.5t79.5 59.5t53.5 45q16 10 26.5 14t16.5 9.5t8 11.5t2 20q0 8 -7 20.5t-16.5 25t-18.5 20.5t-15 8 q-20 0 -30.5 -8t-33.5 -8q-18 0 -29.5 17t-16.5 39.5t-7 42t-2 26.5v16v90v33v82v114q0 51 16 119q14 12 32.5 20.5t35 15.5t29 18.5t12.5 33.5q0 35 -29 56.5t-66.5 37t-77.5 27.5t-65 27q-41 18 -71.5 43.5t-60.5 49t-60.5 40t-69.5 16.5q-25 0 -42 -5t-32.5 -12 t-32 -17.5t-38.5 -20.5q-78 -35 -167 -64.5t-168 -68.5t-136.5 -96.5t-69.5 -145.5v-41q0 -37 -1 -67.5t-1 -67.5v-41v-166zM415 1614q-3 -6 3 -6q8 -25 22.5 -42.5t36 -31.5t48 -28.5t57.5 -35.5q8 -8 36.5 10.5t65.5 50.5t77 71.5t72.5 74.5t53 60.5t16.5 27.5l-305 160 l-180 -305zM492 590v217v39v96v16l12 58h6h10q10 -4 23.5 -21.5t27.5 -27.5q10 -8 19 -15l8 -6v-512q0 -6 -7 -17t-18.5 -21.5t-21.5 -20.5t-16 -15h-9h-6q-16 7 -16 17q-8 59 -10 111.5t-2 101.5z" />
<glyph unicode="&#xc2;" horiz-adv-x="1294" d="M-31 1563q-6 -4 19.5 -21.5t67.5 -40t93.5 -47t97.5 -44t82 -29t44 -1.5q23 18 63.5 54t83.5 75t79 72t48 45l242 -258l354 205q4 4 -38 23.5t-109.5 46t-149.5 56.5t-155.5 53.5t-127 36.5t-65.5 9zM0 518q0 -123 34 -225.5t144 -190.5q27 -20 53.5 -37.5t63.5 -17.5 q39 0 83 34t86 76t79 75.5t65 33.5q14 0 42 -33.5t65 -75.5t81 -76t93 -34h31q14 14 52 43t81 59.5t79.5 59.5t53.5 45q16 10 26.5 14t16.5 9.5t8 11.5t2 20q0 8 -7 20.5t-16.5 25t-18.5 20.5t-15 8q-20 0 -30.5 -8t-33.5 -8q-18 0 -29.5 17t-16.5 39.5t-7 42t-2 26.5v16v90 v33v82v114q0 51 16 119q14 12 32.5 20.5t35 15.5t29 18.5t12.5 33.5q0 35 -29 56.5t-66.5 37t-77.5 27.5t-65 27q-41 18 -71.5 43.5t-60.5 49t-60.5 40t-69.5 16.5q-25 0 -42 -5t-32.5 -12t-32 -17.5t-38.5 -20.5q-78 -35 -167 -64.5t-168 -68.5t-136.5 -96.5t-69.5 -145.5 v-41q0 -37 -1 -67.5t-1 -67.5v-41v-166zM492 590v217v39v96v16l12 58h6h10q10 -4 23.5 -21.5t27.5 -27.5q10 -8 19 -15l8 -6v-512q0 -6 -7 -17t-18.5 -21.5t-21.5 -20.5t-16 -15h-9h-6q-16 7 -16 17q-8 59 -10 111.5t-2 101.5z" />
<glyph unicode="&#xc3;" horiz-adv-x="1294" d="M-51 1612q-6 -4 32.5 -21.5t100 -41t136.5 -49t141.5 -45t115.5 -29t60 -1.5q47 35 97 66t79 55l204 -129l375 205q4 4 -33.5 21.5t-99 41t-136.5 49t-141.5 45t-115.5 29t-59 0.5q-53 -37 -89 -77.5t-65 -69.5l-229 156zM0 518q0 -123 34 -225.5t144 -190.5 q27 -20 53.5 -37.5t63.5 -17.5q39 0 83 34t86 76t79 75.5t65 33.5q14 0 42 -33.5t65 -75.5t81 -76t93 -34h31q14 14 52 43t81 59.5t79.5 59.5t53.5 45q16 10 26.5 14t16.5 9.5t8 11.5t2 20q0 8 -7 20.5t-16.5 25t-18.5 20.5t-15 8q-20 0 -30.5 -8t-33.5 -8q-18 0 -29.5 17 t-16.5 39.5t-7 42t-2 26.5v16v90v33v82v114q0 51 16 119q14 12 32.5 20.5t35 15.5t29 18.5t12.5 33.5q0 35 -29 56.5t-66.5 37t-77.5 27.5t-65 27q-41 18 -71.5 43.5t-60.5 49t-60.5 40t-69.5 16.5q-25 0 -42 -5t-32.5 -12t-32 -17.5t-38.5 -20.5q-78 -35 -167 -64.5 t-168 -68.5t-136.5 -96.5t-69.5 -145.5v-41q0 -37 -1 -67.5t-1 -67.5v-41v-166zM492 590v217v39v96v16l12 58h6h10q10 -4 23.5 -21.5t27.5 -27.5q10 -8 19 -15l8 -6v-512q0 -6 -7 -17t-18.5 -21.5t-21.5 -20.5t-16 -15h-9h-6q-16 7 -16 17q-8 59 -10 111.5t-2 101.5z" />
<glyph unicode="&#xc4;" horiz-adv-x="1294" d="M0 518q0 -123 34 -225.5t144 -190.5q27 -20 53.5 -37.5t63.5 -17.5q39 0 83 34t86 76t79 75.5t65 33.5q14 0 42 -33.5t65 -75.5t81 -76t93 -34h31q14 14 52 43t81 59.5t79.5 59.5t53.5 45q16 10 26.5 14t16.5 9.5t8 11.5t2 20q0 8 -7 20.5t-16.5 25t-18.5 20.5t-15 8 q-20 0 -30.5 -8t-33.5 -8q-18 0 -29.5 17t-16.5 39.5t-7 42t-2 26.5v16v90v33v82v114q0 51 16 119q14 12 32.5 19.5t35 15.5t29 19.5t12.5 33.5q0 35 -29 56.5t-66.5 37t-77.5 27.5t-65 27q-39 18 -70.5 43.5t-61.5 49t-61.5 40t-68.5 16.5q-25 0 -42 -5t-32.5 -12 t-32 -17.5t-38.5 -20.5q-78 -35 -167 -64.5t-168 -68.5t-136.5 -96.5t-69.5 -145.5v-41q0 -37 -1 -67.5t-1 -67.5v-41v-166zM86 1653q0 -35 22.5 -70t57.5 -62.5t78 -45t86 -17.5q41 0 76.5 13.5t63.5 35t44 51t16 62.5q0 104 -65 155.5t-215 67.5q-29 -18 -57.5 -38.5 t-52 -43t-39 -50.5t-15.5 -58zM492 590v217v39v96v16l12 58h6h10q10 -4 23.5 -21.5t27.5 -27.5q10 -8 19 -15l8 -6v-512q0 -14 -24.5 -38.5t-38.5 -35.5h-9h-6q-16 7 -16 17q-8 59 -10 111.5t-2 101.5zM721 1655q0 -35 22.5 -70t57.5 -62.5t78 -45t86 -17.5q41 0 76.5 13.5 t63.5 35t44 51t16 62.5q0 104 -65 155.5t-215 67.5q-29 -18 -57.5 -38.5t-52 -43t-39 -50t-15.5 -58.5z" />
<glyph unicode="&#xc5;" horiz-adv-x="1294" d="M0 518v166v41q0 37 1 67.5t1 67.5v41q12 88 69.5 145.5t136.5 96.5t168 68.5t167 64.5q23 10 39 20.5t31.5 17.5t33 12t41.5 5q39 0 69.5 -16.5t60.5 -40t60.5 -49t71.5 -43.5q25 -14 65 -26.5t77.5 -28t66.5 -37t29 -56.5q0 -23 -12.5 -34t-29 -18t-34.5 -15.5 t-33 -20.5q-16 -68 -16 -119v-114v-82v-33v-90v-16q0 -6 2 -26t7 -42.5t16.5 -39.5t29.5 -17q23 0 33 8t31 8q6 0 15 -8t18.5 -20.5t16.5 -25t7 -20.5q0 -14 -2 -20t-8 -11.5t-16.5 -9.5t-26.5 -14q-16 -16 -53 -45t-80 -59.5t-81 -59.5t-52 -43h-31q-49 0 -93 34t-81 76 t-64.5 75.5t-42.5 33.5q-29 0 -65.5 -33.5t-78.5 -75.5t-86 -76t-83 -34q-37 0 -63.5 17.5t-53.5 37.5q-111 88 -144.5 190.5t-33.5 225.5zM311 1516v8q0 20 37 20v254q0 2 42 8t96.5 13.5t106.5 14.5t73 11q4 0 22.5 4t39 9.5t38.5 10.5t22 9q37 -6 67 -20.5t52.5 -34 t38 -42t25.5 -40.5v-19q0 -12 1 -25.5t1 -25.5v-20q0 -61 -4 -91t-25.5 -45.5t-67 -26.5t-126.5 -36q-6 -2 -22.5 -10t-33 -16.5t-31 -14.5t-18.5 -6l-6 -1q-6 -1 -12 -1q-29 0 -81 13.5t-104.5 31.5t-91.5 38t-39 30zM492 590q0 -49 2 -101.5t10 -111.5q0 -10 16 -17h6h9 q6 4 16 14.5t21.5 21t18.5 21.5t7 17v512l-8 6t-19 15q-14 10 -27.5 27.5t-23.5 21.5h-10h-6l-12 -58v-16v-96v-39v-217zM645 1556q0 -8 13.5 -12t27.5 -4v191q0 4 -12.5 15t-28.5 15v-205z" />
<glyph unicode="&#xc6;" horiz-adv-x="2015" d="M0 518q0 -123 34 -225.5t144 -190.5q27 -20 53.5 -37.5t63.5 -17.5q39 0 83 34t86 76t79 75.5t65 33.5q14 0 42 -33.5t65 -75.5t81 -76t93 -34h31q16 12 46.5 38t71.5 54q84 -59 170 -99t162 -40q29 0 85 22.5t121.5 57.5t135.5 78t127 84t93 74.5t36 52.5q0 29 -21.5 40 t-58.5 11t-65.5 -6t-55 -12.5t-55.5 -12.5t-65 -6q-37 0 -85.5 10t-92.5 28.5t-74.5 45.5t-30.5 61q0 47 42 79t104.5 57.5t136 48t136 50.5t104.5 64.5t42 90.5q0 10 -2 25t-2 18l-278 352q-4 2 -34 13t-46 17h-21q-37 0 -101.5 -15t-140 -40.5t-154.5 -59.5t-146 -71 q-16 6 -29.5 11.5t-24.5 13.5q-41 18 -71.5 43.5t-60.5 49t-60.5 40t-69.5 16.5q-25 0 -42 -5t-32.5 -12t-32 -17.5t-38.5 -20.5q-78 -35 -167 -64.5t-168 -68.5t-136.5 -96.5t-69.5 -145.5v-41q0 -37 -1 -67.5t-1 -67.5v-207zM492 590v368l12 58h16q10 -4 23.5 -21.5 t27.5 -27.5q10 -8 19 -15l8 -6v-512q0 -6 -7 -17t-18.5 -21.5t-21.5 -20.5t-16 -15h-15q-16 7 -16 17q-8 59 -10 111.5t-2 101.5zM1325 737v224q2 -4 13.5 -18.5t24.5 -30t25.5 -30t18.5 -18.5q8 -12 23.5 -36.5t15.5 -26.5q0 -10 -19.5 -21.5t-42 -20.5t-40.5 -15z" />
<glyph unicode="&#xc7;" horiz-adv-x="1140" d="M0 352q0 -41 36 -90t92 -96t122.5 -86t128.5 -60q37 -43 94 -89t111 -83q-27 -12 -61 -18t-66.5 -15.5t-57 -24.5t-32.5 -46q20 -66 88.5 -100.5t169.5 -38.5l112 22q27 25 45.5 43.5t28.5 37t14 39t4 48.5q0 92 -67.5 152.5t-165.5 91.5q45 25 106.5 57.5t120 63 t106.5 57.5t68 39q27 14 42.5 23.5t24.5 18.5t12 21.5t3 32.5q0 23 -13 43.5t-50 20.5q-55 0 -105.5 -17.5t-111.5 -17.5q-31 0 -78 8t-92 24.5t-77 41t-32 57.5v446q12 -16 28.5 -47.5t40 -64.5t55.5 -57.5t75 -24.5q27 0 87 14.5t120.5 39t106.5 56t46 68.5q0 4 -1 10 l-1 6q-8 10 -30.5 46t-48 78t-48 80t-30.5 52q-6 2 -20.5 22.5t-33 44.5t-41 43t-47.5 19q-6 0 -10 -1t-10 -1q-23 -6 -66 -19t-98 -28.5t-114.5 -33t-115 -33t-99.5 -27.5l-66 -18q-29 -10 -63 -25.5t-64.5 -36t-51 -45t-20.5 -53.5v-670z" />
<glyph unicode="&#xc8;" horiz-adv-x="1181" d="M0 416q0 -63 52 -136t130 -135.5t169 -104.5t171 -42q29 0 84.5 22.5t122 57.5t136 78t126 84t93 74.5t36.5 52.5q0 29 -21.5 40t-56.5 11q-37 0 -65.5 -6t-56 -12.5t-56 -12.5t-65.5 -6q-35 0 -84 10t-93 28.5t-75 45.5t-31 61q0 45 42 78t104.5 58.5t135 48t135 50 t104.5 63.5t42 89q0 10 -1 26.5t-1 18.5l-278 353q-2 2 -33 12t-47 18h-23q-37 0 -102.5 -15t-142 -42t-157.5 -61.5t-145.5 -73.5t-106.5 -80t-42 -78v-575zM256 1769q-6 -2 13.5 -26.5t53 -59t73.5 -74.5t78 -72t66.5 -50.5t37.5 -11.5q61 41 103 65.5t58 71.5q8 0 4 6 l-4 6l-182 305zM479 735v223q2 -4 12.5 -18t23.5 -29.5t24.5 -30t17.5 -18.5q10 -12 25.5 -36.5t15.5 -26.5q0 -10 -19.5 -21.5t-42 -20.5t-41 -15.5t-16.5 -6.5z" />
<glyph unicode="&#xc9;" horiz-adv-x="1181" d="M0 416q0 -63 52 -136t130 -135.5t169 -104.5t171 -42q29 0 84.5 22.5t122 57.5t136 78t126 84t93 74.5t36.5 52.5q0 29 -21.5 40t-56.5 11q-37 0 -65.5 -6t-56 -12.5t-56 -12.5t-65.5 -6q-35 0 -84 10t-93 28.5t-75 45.5t-31 61q0 45 42 78t104.5 58.5t135 48t135 50 t104.5 63.5t42 89q0 10 -1 26.5t-1 18.5l-278 353q-2 2 -33 12t-47 18h-23q-37 0 -102.5 -15t-142 -42t-157.5 -61.5t-145.5 -73.5t-106.5 -80t-42 -78v-575zM353 1614q-3 -6 3 -6q8 -25 22.5 -42.5t36 -31.5t48 -28.5t57.5 -35.5q8 -8 36 9.5t64.5 49.5t77.5 71.5t74 75.5 t53.5 61.5t16.5 27.5l-305 160l-181 -305zM479 735v223q2 -4 13.5 -18t23.5 -30.5t24.5 -30t16.5 -17.5q10 -12 25.5 -36.5t15.5 -26.5q0 -10 -18.5 -20.5t-40 -20.5t-41.5 -16z" />
<glyph unicode="&#xca;" horiz-adv-x="1181" d="M-141 1589q-6 -4 21.5 -21.5t71.5 -40t98 -47t103.5 -43t86 -27.5t47.5 -1q23 16 64.5 52t85.5 75t82 72.5t54 46.5l254 -258l373 202q6 4 -38 25t-114.5 47.5t-157.5 55t-164 52t-134 38t-70 10.5zM0 416q0 -63 52 -136t130 -135.5t169 -104.5t171 -42q29 0 84.5 22.5 t122 57.5t136 78t126 84t93 74.5t36.5 52.5q0 29 -21.5 40t-56.5 11q-37 0 -65.5 -6t-56 -12.5t-56 -12.5t-65.5 -6q-35 0 -84 10t-93 28.5t-75 45.5t-31 61q0 45 42 78t104.5 58.5t135 48t135 50t104.5 63.5t42 89q0 10 -1 26.5t-1 18.5l-278 353q-2 2 -33 12t-47 18h-23 q-37 0 -102.5 -15t-142 -42t-157.5 -61.5t-145.5 -73.5t-106.5 -80t-42 -78v-575zM479 735v223q2 -4 13.5 -18t23.5 -30.5t24.5 -30t16.5 -17.5q10 -12 25.5 -36.5t15.5 -26.5q0 -10 -18.5 -20.5t-40 -20.5t-41.5 -16z" />
<glyph unicode="&#xcb;" horiz-adv-x="1181" d="M0 416v575q0 37 42 78t106.5 80t145.5 73.5t157.5 61.5t142 42t102.5 15h23q16 -8 47 -18t33 -12l278 -353q0 -2 1 -18t1 -27q0 -53 -42 -89t-104.5 -63.5t-135 -50t-135 -48t-104.5 -57.5t-42 -79q0 -35 31 -61.5t75 -45t93 -28.5t84 -10q37 0 65.5 6t56 12.5t56.5 12.5 t65 6q35 0 56.5 -11.5t21.5 -39.5q0 -18 -36.5 -52t-93 -75t-126 -84t-136 -78t-122 -57.5t-84.5 -22.5q-80 0 -171 42t-169 104.5t-130 135t-52 136.5zM0 1659q0 31 15.5 58.5t39 51t52 44t57.5 38.5q147 -16 212.5 -68t65.5 -157q0 -33 -16 -62.5t-43 -51t-63.5 -35 t-75.5 -13.5q-43 0 -87 17.5t-79 45t-56.5 62.5t-21.5 70zM479 735q-2 0 16.5 6.5t41 15.5t42 20t19.5 22q0 2 -15.5 26.5t-25.5 36.5q-6 4 -17.5 18.5t-24.5 30t-23.5 29.5t-12.5 18v-223zM680 1659q0 31 15.5 58.5t39 51t52 44t57.5 38.5q150 -16 215 -68t65 -157 q0 -33 -16 -62.5t-44 -51t-63.5 -35t-76.5 -13.5q-43 0 -86 17.5t-78 45t-57.5 62.5t-22.5 70z" />
<glyph unicode="&#xcc;" horiz-adv-x="829" d="M2 895l279 223q8 2 24.5 18.5t52.5 16.5q23 0 41.5 -7t42.5 -28l279 -223l3 -6t3 -12q0 -29 -19.5 -47.5t-43 -38t-43 -46t-19.5 -73.5q0 -18 4 -69.5t10.5 -108t13.5 -106.5t13 -69q127 16 127 -63q0 -18 -20.5 -45t-54 -55.5t-74.5 -57t-82 -50t-78 -36t-60 -14.5 q-31 0 -74.5 26.5t-84.5 63.5t-70 75t-29 60v576q-6 0 -21.5 4t-30.5 9t-29.5 10t-18.5 9q-16 10 -33.5 33t-7.5 31zM94 1618l305 160l183 -305l2 -7q2 -6 -2 -6q-8 -25 -22.5 -42t-36 -31.5t-48 -29t-57.5 -34.5q-10 -8 -39 10.5t-67 50t-77.5 71.5t-71.5 76t-52.5 60.5 t-16.5 26.5z" />
<glyph unicode="&#xcd;" horiz-adv-x="829" d="M2 895q-10 -8 7.5 -30.5t33.5 -33.5q4 -4 18.5 -9t29.5 -10t30.5 -9t21.5 -4v-576q0 -23 29 -60.5t70 -74.5t85 -63.5t74 -26.5q23 0 60 14.5t78 36t82 50t74.5 57t54 55.5t20.5 45q0 80 -127 63q-6 18 -13 68.5t-13.5 107t-10.5 107.5t-4 70q0 47 19.5 73.5t43 46t43 38 t19.5 47.5q0 6 -3 12l-3 6l-279 223q-25 20 -43 27.5t-41 7.5q-37 0 -53 -16.5t-24 -18.5zM122 1472q-3 -6 3 -6q16 -47 59 -71.5t105 -65.5q6 -8 34.5 10.5t66.5 50t80 71.5t75 76t53 60.5t14 26.5l-305 160l-182 -305z" />
<glyph unicode="&#xce;" horiz-adv-x="829" d="M-266 1438q-4 -4 20.5 -21.5t63.5 -39t86 -46t90 -42t75.5 -27t43.5 -0.5q20 16 58 51t78 71.5t73.5 69.5t46.5 45l225 -250l330 199q2 4 -38 23.5t-102.5 46t-137.5 56.5t-143.5 52.5t-118.5 35.5t-62 7zM2 895q-10 -8 7.5 -30.5t33.5 -33.5q4 -4 18.5 -9t29.5 -10 t30.5 -9t21.5 -4v-576q0 -23 29 -60.5t70 -74.5t85 -63.5t74 -26.5q23 0 60 14.5t78 36t82 50t74.5 57t54 55.5t20.5 45q0 80 -127 63q-6 18 -13 68.5t-13.5 107t-10.5 107.5t-4 70q0 47 19.5 73.5t43 46t43 38t19.5 47.5q0 6 -3 12l-3 6l-279 223q-25 20 -43 27.5t-41 7.5 q-37 0 -53 -16.5t-24 -18.5z" />
<glyph unicode="&#xcf;" horiz-adv-x="829" d="M-150 1503q0 31 15.5 58.5t39 51t52 44.5t57.5 39q150 -16 215.5 -67.5t65.5 -155.5q0 -33 -16.5 -63t-44 -51.5t-63.5 -34.5t-77 -13q-43 0 -86 17.5t-77.5 45t-57.5 61t-23 68.5zM2 895l279 223q8 2 24.5 18.5t52.5 16.5q23 0 41.5 -7t42.5 -28l279 -223l3 -6t3 -12 q0 -29 -19.5 -47.5t-43 -38t-43 -46t-19.5 -73.5q0 -20 4 -70.5t10.5 -107t13.5 -106.5t13 -69q127 16 127 -63q0 -18 -20.5 -45t-54 -55.5t-74.5 -57t-82 -50t-78 -36t-60 -14.5q-31 0 -74.5 26.5t-84.5 63.5t-70 75t-29 60v576q-6 0 -21.5 4t-30.5 9t-29.5 10t-18.5 9 q-16 10 -33.5 33t-7.5 31zM463 1507q0 31 15.5 58.5t39 50t52 43.5t57.5 39q147 -16 212.5 -67.5t65.5 -155.5q0 -33 -16.5 -63t-43 -51.5t-63.5 -34.5t-75 -13q-43 0 -86 17.5t-78 45t-57.5 62.5t-22.5 69z" />
<glyph unicode="&#xd0;" horiz-adv-x="1581" d="M2 623q-4 -2 22.5 -10.5t71.5 -18.5t104.5 -22.5t122 -23.5t124 -20.5t108.5 -13.5v-162q-10 -6 -26.5 -18t-32 -25.5t-26.5 -28t-11 -24.5q0 -6 31.5 -26.5t81 -49t107.5 -60.5t110.5 -58.5t93.5 -44t53 -17.5q16 0 67.5 18.5t118 47t139 63.5t134 71t101.5 67.5 t40 51.5v576q0 25 -21.5 58.5t-52 67.5t-65.5 60.5t-62 36.5q-25 12 -91 40t-143 58.5t-145.5 57t-97.5 37.5q0 2 -2 7t-2 7q0 18 20.5 31.5t46 29t46 38t20.5 59.5q-86 0 -168 -8.5t-145.5 -36t-101 -77.5t-37.5 -132q0 -55 21.5 -102.5t60 -85t90 -70.5t110.5 -62h-262 v-200l-135 36zM1016 383v479l80 -63v-480z" />
<glyph unicode="&#xd1;" horiz-adv-x="1626" d="M0 1055q0 -37 25.5 -47.5t56.5 -13.5t56.5 -7t25.5 -29v-575q-6 -4 -24.5 -17.5t-39 -28.5t-38 -29.5t-19.5 -20.5q-4 -10 5 -23.5t22.5 -28t29 -25.5t23.5 -17l278 -193h41q2 0 40 21.5t88.5 52t103.5 63.5t88 56l39 30v15v18q-2 8 -16.5 31.5t-22.5 31.5v639l39 33 l61 -33v-765q0 -25 32 -60t75 -66.5t86 -53t65 -21.5q10 0 23.5 4t17.5 4l318 193q27 16 43 25t26.5 18.5t14.5 20.5t4 30q0 43 -39 63.5t-86 32.5v575q10 4 23.5 16.5t25.5 28t20.5 30t8.5 22.5l-10 8q-9 8 -20 18.5t-24.5 20.5t-23.5 16l-162 96q-6 2 -30.5 20.5t-52.5 42 t-51.5 43t-25.5 21.5l-7 1q-7 1 -9 1q-49 0 -105.5 -28.5t-112 -65.5t-108.5 -74.5t-98 -56.5q-20 29 -51 68t-69 73.5t-83 58t-94 23.5h-21q-49 -18 -100 -48.5t-99 -66.5t-89 -73t-72 -68q0 -2 -1 -12t-1 -18zM61 1630q-6 -4 33 -22.5t100.5 -42t136.5 -48t142.5 -44 t115.5 -29.5t58 -2q47 35 99.5 66.5t80.5 54.5l201 -127l375 202q6 4 -33 22.5t-101.5 42t-137 48.5t-141 44.5t-116 29.5t-57.5 2q-53 -37 -89 -78t-64 -70l-230 154z" />
<glyph unicode="&#xd2;" d="M2 307q0 -23 36 -54.5t92 -65t125 -68.5t137.5 -61.5t127 -43t92.5 -16.5q10 0 22 1l13 1q8 2 37 20.5t62.5 41t63.5 42t38 23.5q109 47 183.5 75.5t123.5 52.5t77 50.5t40 72.5t15 119.5t3 188.5v47q0 35 -1 72t-1 72v49q-18 55 -50 115.5t-77 114.5t-104.5 96 t-130.5 59q-10 -6 -44 -21.5t-74 -31t-75 -28.5t-45 -16q-29 -10 -85 -21t-125.5 -23.5t-142.5 -24.5t-132.5 -23.5t-98 -20.5t-38.5 -16v-702q-35 0 -49.5 -15.5t-14.5 -37.5v-23zM279 1722q-4 -2 15 -26.5t52 -59t74 -74.5t78 -72t66.5 -51.5t37.5 -11.5q61 41 104.5 66 t59.5 72q4 0 2 6l-2 6l-182 305zM647 416v575q25 -14 52.5 -45t27.5 -51v-518q-25 0 -52.5 9t-27.5 30z" />
<glyph unicode="&#xd3;" d="M2 307q0 -23 36 -54.5t92 -65t125 -68.5t137.5 -61.5t127 -43t92.5 -16.5q10 0 22 1l13 1q10 2 40 20.5t62.5 41t61.5 42t37 23.5q109 47 183.5 75.5t123.5 52.5t77 50.5t40 72.5t15 119.5t3 188.5v47q0 35 -1 72t-1 72v49q-18 55 -50 115.5t-78 114.5t-104.5 96 t-129.5 59q-8 -8 -43 -23.5t-76 -31t-76 -27.5t-43 -15q-29 -10 -85 -21t-125.5 -23.5t-142.5 -24.5t-132.5 -23.5t-98 -20.5t-38.5 -16v-702q-35 0 -49.5 -15.5t-14.5 -37.5v-23zM424 1538q-4 -6 4 -6q16 -49 57 -73.5t103 -65.5q10 -6 38.5 12t65.5 50t77 72t72.5 74.5 t53 59.5t16.5 27l-303 159l-180 -303zM647 416v575q25 -14 52.5 -45t27.5 -51v-518q-25 0 -52.5 9t-27.5 30z" />
<glyph unicode="&#xd4;" d="M-18 1608q-6 -4 21.5 -21.5t71.5 -40t98 -48t103.5 -44t86 -28t47.5 -1.5q23 18 64.5 54.5t85.5 75t82 71.5t54 45l254 -258l373 205q6 4 -39 23.5t-115.5 46t-156.5 56.5t-163 53.5t-134.5 36.5t-69.5 9zM2 307q0 -23 36 -54.5t92 -65t125 -68.5t137.5 -61.5t127 -43 t92.5 -16.5q10 0 22 1l13 1q10 2 40 20.5t62.5 41t61.5 42t37 23.5q109 47 183.5 75.5t123.5 52.5t77 50.5t40 72.5t15 119.5t3 188.5v47q0 35 -1 72t-1 72v49q-18 55 -50 115.5t-78 114.5t-104.5 96t-129.5 59q-8 -8 -43 -23.5t-76 -31t-76 -27.5t-43 -15q-29 -10 -85 -21 t-125.5 -23.5t-142.5 -24.5t-132.5 -23.5t-98 -20.5t-38.5 -16v-702q-35 0 -49.5 -15.5t-14.5 -37.5v-23zM647 416v575q25 -14 52.5 -45t27.5 -51v-518q-25 0 -52.5 9t-27.5 30z" />
<glyph unicode="&#xd5;" d="M-18 1608q-6 -4 32.5 -22.5t100 -42t136.5 -48.5t141.5 -44t115.5 -28.5t59 -1.5q49 35 100.5 66t80.5 53l202 -127l373 205q4 4 -34 21.5t-100.5 41t-137 48t-141 44t-114.5 29.5t-59 2q-53 -37 -89 -77.5t-64 -69.5l-228 153zM2 307q0 -23 36 -54.5t92 -65t125 -68.5 t137.5 -61.5t127 -43t92.5 -16.5q10 0 22 1l13 1q10 2 40 20.5t62.5 41t61.5 42t37 23.5q109 47 183.5 75.5t123.5 52.5t77 50.5t40 72.5t15 119.5t3 188.5v47q0 35 -1 72t-1 72v49q-18 55 -50 115.5t-78 114.5t-104.5 96t-129.5 59q-8 -8 -43 -23.5t-76 -31t-76 -27.5 t-43 -15q-29 -10 -85 -21t-125.5 -23.5t-142.5 -24.5t-132.5 -23.5t-98 -20.5t-38.5 -16v-702q-35 0 -49.5 -15.5t-14.5 -37.5v-23zM647 416v575q25 -14 52.5 -45t27.5 -51v-518q-25 0 -52.5 9t-27.5 30z" />
<glyph unicode="&#xd6;" d="M2 307v23q0 23 14.5 38t49.5 15v702q0 6 38.5 15.5t98 21t132.5 23.5t142.5 24.5t127 23.5t83.5 21q10 2 45 15.5t75 29t73.5 31t44.5 21.5q72 -16 131 -58.5t104 -96.5t77 -114.5t50 -115.5v-49q0 -35 1 -72t1 -72v-47q0 -115 -3 -188.5t-15 -119.5t-40 -72.5t-77 -50.5 t-124 -52.5t-183 -75.5q-8 -4 -38 -23.5t-63.5 -42t-62.5 -41t-37 -20.5l-12 -1t-23 -1q-35 0 -93 16.5t-125.5 43t-137.5 61.5t-126 68.5t-92 65t-36 54.5zM49 1620q0 31 15.5 58.5t39 50t52 43t57.5 38.5q147 -16 213 -67t66 -156q0 -33 -16.5 -62.5t-44.5 -51t-63.5 -35 t-76.5 -13.5q-43 0 -86 17.5t-78 45.5t-56.5 62.5t-21.5 69.5zM647 416q0 -20 27.5 -29.5t52.5 -9.5v518q0 20 -27.5 51t-52.5 45v-575zM799 1622q0 31 15 58.5t39 51t52.5 44.5t57.5 39q147 -16 212.5 -68.5t65.5 -157.5q0 -33 -16.5 -62.5t-43 -51t-63.5 -35t-76 -13.5 q-43 0 -87 17.5t-78.5 45.5t-56 62.5t-21.5 69.5z" />
<glyph unicode="&#xd7;" horiz-adv-x="931" d="M156 868q-6 0 7 -23.5t39.5 -60t63.5 -84t74 -96.5l-162 -289q-2 -4 26.5 12.5t77 44t106.5 60.5t114 62q20 -31 59 -56.5t81 -42t77 -25t49 -5.5q2 0 2 4v4l-111 180q70 43 76 57q14 35 27.5 62.5t24 50t14.5 43t0 43.5q0 2 -4 2h-9l-282 -133z" />
<glyph unicode="&#xd8;" d="M2 307q0 -23 36 -54.5t92 -65t125 -68.5t137.5 -61.5t127 -43t92.5 -16.5q10 0 22 1l13 1q10 2 40 20.5t62.5 41t61.5 42t37 23.5q109 47 183.5 75.5t123.5 52.5t77 50.5t40 72.5t15 119.5t3 188.5v47q0 35 -1 72t-1 72v49q-18 55 -50 115.5t-78 114.5t-104.5 96 t-129.5 59q-8 -8 -43 -23.5t-76 -31t-76 -27.5t-43 -15q-29 -10 -85 -21t-125.5 -23.5t-142.5 -24.5t-132.5 -23.5t-98 -20.5t-38.5 -16v-702q-35 0 -49.5 -15.5t-14.5 -37.5v-23zM647 416v108l80 64l12 -174q-12 0 -28.5 -3t-30.5 -5.5t-23.5 -1t-9.5 11.5zM647 735v256 q25 -14 49.5 -45t30.5 -51l12 -59z" />
<glyph unicode="&#xd9;" horiz-adv-x="1626" d="M0 1024q0 -35 14.5 -47t37 -13t52 3t60.5 4v-555q0 -2 -15.5 -13.5t-25.5 -19.5q-10 -2 -40 -13.5t-40 -17.5l-1 -5t-1 -7q0 -8 1 -14l1 -7q18 -47 73.5 -96t120 -94t124 -79t81.5 -50h21q51 0 95 25.5t89 55.5t92 55.5t103 25.5q53 0 92 -25.5t76 -55.5t76.5 -55.5 t95.5 -25.5q41 0 106.5 26.5t127 66.5t106.5 83t45 78q0 39 -25.5 49t-57.5 12t-57.5 6.5t-25.5 30.5v574q47 35 66.5 60.5t19.5 68.5v22q-6 8 -8 11.5t-10.5 9.5t-29 20.5t-63.5 44.5q-33 20 -71.5 47t-75.5 52.5t-66.5 47t-42.5 31.5q-139 -145 -358 -223v-16v-17 q2 -8 12 -25.5t22.5 -38t25 -37.5t20.5 -26v-575q0 -10 -19.5 -21.5t-42 -20.5t-40.5 -15l-19 -7q0 18 2 51t2 74q0 43 1 93.5t1 101.5q0 104 -3 193.5t-3 125.5q0 43 -17.5 109t-53.5 127t-88 105t-120 44q-10 0 -21 -1t-20 -1q-16 -10 -54 -37.5t-82 -58.5t-84 -58.5 t-58 -35.5q-31 -23 -54.5 -36t-39 -25.5t-22.5 -26.5t-7 -39zM494 1753q-4 -2 16 -26.5t52 -60.5t72 -76t78 -71.5t66.5 -50t38.5 -10.5q31 20 57.5 34.5t48 29t36 32t22.5 41.5q4 0 2 7l-2 6l-182 305z" />
<glyph unicode="&#xda;" horiz-adv-x="1626" d="M0 1024q0 -35 14.5 -47t37 -13t52 3t60.5 4v-555q0 -2 -15.5 -13.5t-25.5 -19.5q-10 -2 -40 -13.5t-40 -17.5l-1 -5t-1 -7q0 -8 1 -14l1 -7q18 -47 73.5 -95t120 -92t124 -79t81.5 -53h21q51 0 95 25.5t89 55.5t92 55.5t103 25.5q53 0 92 -25.5t76 -55.5t76.5 -55.5 t95.5 -25.5q41 0 106.5 26.5t127 66.5t106.5 83t45 78q0 39 -25.5 49t-57.5 12t-57.5 6.5t-25.5 30.5v574q47 35 66.5 60.5t19.5 68.5v22q-4 8 -6 11.5t-11.5 9.5t-31 20.5t-62.5 44.5q-33 20 -72.5 47t-76.5 53.5t-65.5 47t-41.5 30.5q-143 -145 -358 -223v-16v-17 q2 -6 12 -24.5t22.5 -37.5t25 -37.5t20.5 -27.5v-575q0 -10 -18.5 -20.5t-41 -20.5t-41 -16.5t-20.5 -6.5q0 18 2 51t2 74q0 43 1 93.5t1 101.5q0 104 -3 193.5t-3 125.5q0 43 -17.5 109t-53.5 127t-88 105t-120 44q-10 0 -21 -1t-20 -1q-16 -10 -55 -37.5t-83 -58.5 t-84 -57.5t-56 -36.5q-31 -23 -54.5 -36t-39 -25.5t-22.5 -26.5t-7 -39zM590 1608q-4 -6 4 -6q16 -47 58 -72t104 -66q8 -8 36.5 10.5t65.5 50t77 71.5t71.5 76t52 60.5t18.5 26.5l-305 160l-178 -305z" />
<glyph unicode="&#xdb;" horiz-adv-x="1626" d="M0 1024q0 -35 14.5 -47t37 -13t52 3t60.5 4v-555q0 -2 -15.5 -13.5t-25.5 -19.5q-10 -2 -40 -13.5t-40 -17.5l-1 -5t-1 -7q0 -8 1 -14l1 -7q18 -47 73.5 -95t120 -92t124 -79t81.5 -53h21q51 0 95 25.5t89 55.5t92 55.5t103 25.5q53 0 92 -25.5t76 -55.5t76.5 -55.5 t95.5 -25.5q41 0 106.5 26.5t127 66.5t106.5 83t45 78q0 39 -25.5 49t-57.5 12t-57.5 6.5t-25.5 30.5v574q47 35 66.5 60.5t19.5 68.5v22q-4 8 -6 11.5t-11.5 9.5t-31 20.5t-62.5 44.5q-33 20 -72.5 47t-76.5 53.5t-65.5 47t-41.5 30.5q-143 -145 -358 -223v-16v-17 q2 -6 12 -24.5t22.5 -37.5t25 -37.5t20.5 -27.5v-575q0 -10 -18.5 -20.5t-41 -20.5t-41 -16.5t-20.5 -6.5q0 18 2 51t2 74q0 43 1 93.5t1 101.5q0 104 -3 193.5t-3 125.5q0 43 -17.5 109t-53.5 127t-88 105t-120 44q-10 0 -21 -1t-20 -1q-16 -10 -55 -37.5t-83 -58.5 t-84 -57.5t-56 -36.5q-31 -23 -54.5 -36t-39 -25.5t-22.5 -26.5t-7 -39zM92 1583q-6 -4 21.5 -21.5t71.5 -40t98.5 -48t103.5 -44t86 -27.5t47 -1q25 18 67 54t86 75t82 71.5t54 45.5l250 -258l375 204q6 4 -39 23.5t-116 46.5t-157 56.5t-162.5 53t-134 37t-69.5 9.5z" />
<glyph unicode="&#xdc;" horiz-adv-x="1626" d="M0 1024q0 25 7 39t22.5 26.5t39 25.5t54.5 36q18 8 58 35.5t84 58.5t82 58.5t54 37.5q8 0 19.5 1t21.5 1q68 0 120 -44t88 -105t53.5 -127t17.5 -109q0 -37 3 -126t3 -193q0 -51 -1 -101.5t-1 -93.5q0 -41 -2 -73.5t-2 -51.5l19 7q18 6 40.5 15t42 20.5t19.5 21.5v575 q-8 8 -20.5 25.5t-25 38t-22.5 38t-12 25.5v17v16q219 78 358 223q18 -12 63.5 -43.5t96.5 -66.5t97 -68t65 -45q29 -18 37 -24.5t8 -16.5v-22q0 -43 -19.5 -68.5t-66.5 -60.5v-574q0 -27 25.5 -31t57.5 -6t57.5 -12t25.5 -49q0 -35 -45 -78t-106.5 -83t-127 -66.5 t-106.5 -26.5q-55 0 -95 25.5t-77 55.5t-76 55.5t-92 25.5q-55 0 -102.5 -25.5t-92.5 -55.5t-89 -55.5t-95 -25.5h-21q-23 16 -82 50t-123.5 79t-120 94t-73.5 96l-1 7q-1 6 -1 14q0 2 1 7l1 5q10 6 40 17.5t40 13.5q10 8 25.5 19.5t15.5 13.5v555q-31 0 -60.5 -4t-52 -3 t-37 13t-14.5 47zM186 1657q0 31 15.5 58.5t39 50t52 43t57.5 38.5q147 -16 213 -67t66 -156q0 -33 -16.5 -62.5t-43 -51t-63.5 -35t-76 -13.5q-43 0 -86 17.5t-78 45t-57.5 62.5t-22.5 70zM936 1659q0 31 15.5 58.5t39 51t52 44t57.5 38.5q147 -16 213.5 -68t66.5 -157 q0 -33 -16 -62.5t-44 -51t-63.5 -35t-76.5 -13.5q-43 0 -86 17.5t-79 45t-57.5 62.5t-21.5 70z" />
<glyph unicode="&#xdd;" horiz-adv-x="1062" d="M0 1120q0 -61 14.5 -116.5t30.5 -109.5t30.5 -111.5t14.5 -120.5q0 -51 -8 -96.5t-17.5 -89.5t-16.5 -87t-7 -92q0 -39 27.5 -81t68.5 -76t86 -56.5t82 -22.5q2 0 9 1l8 1q10 8 43.5 29t73.5 43.5t75 44t49 31.5q0 -8 1 -26.5t1 -39.5q0 -20 1 -38.5t1 -22.5 q0 -76 -12 -125t-41 -89t-75.5 -80t-116.5 -95q2 -18 20 -26.5t39.5 -11.5t41 -2t26.5 1q43 0 101 19.5t119.5 53t121 79t106.5 94.5t75.5 99t28.5 97v883q-10 23 -25 54.5t-44 47.5l-131 119l-7 1q-8 1 -12 1q-8 0 -14 -1l-6 -1l-199 -112l-82 -35l-200 182l-1 8 q-1 8 -1 10q0 12 14 23.5t34.5 22t41 20.5t32.5 22q-25 51 -49 64.5t-71 13.5q-78 0 -131.5 -23.5t-86 -64.5t-48 -95t-15.5 -118zM337 1608q-3 -6 3 -6q16 -47 59 -72t105 -66q8 -8 37.5 11.5t66.5 51.5t78 71.5t74 74.5t52 59.5t15 26.5l-305 160l-182 -305zM522 385v485 l41 37q45 -68 45 -147v-146v-39q0 -29 -3 -54t-3 -54v-37q-25 -45 -80 -45z" />
<glyph unicode="&#xde;" horiz-adv-x="1105" d="M0 406v38q0 59 26.5 107.5t59.5 94.5t59.5 96.5t26.5 113.5q0 57 -14.5 102.5t-31.5 86t-31.5 83.5t-14.5 99q0 111 57.5 173t188.5 62q14 0 32.5 1t35 -1t29.5 -10t21 -27l-77 -71q39 -14 69.5 -60.5t57 -101.5t48 -109.5t40.5 -85.5q2 0 38.5 22.5t86 49.5t97.5 49.5 t75 22.5t58.5 -29t59 -65.5t45 -70.5t17.5 -46v-596q0 -12 -38 -36t-94.5 -52.5t-123 -58t-123.5 -57.5t-97 -48.5t-42 -28.5q-6 -12 -14.5 -31.5t-16.5 -40t-15.5 -39t-9.5 -26.5q-12 -33 -17 -53.5t-10 -32.5t-15.5 -17.5t-32.5 -5.5q-43 0 -74 34t-53.5 87.5t-36 119 t-22.5 128t-13 115.5t-6 82q-6 0 -19.5 2t-19.5 2q-18 0 -30.5 -7.5t-24 -14.5t-22.5 -14t-26 -7q-37 0 -50 21.5t-13 50.5zM582 506l77 -68v385l-41 35l-36 -35v-317z" />
<glyph unicode="&#xdf;" horiz-adv-x="1427" d="M0 971q0 14 11.5 34.5t43 57.5t90 99.5t154.5 162.5q20 2 39 2h43h90q45 0 82 3t61 13q2 0 8.5 -1t10.5 -1q33 -10 103.5 -34.5t147.5 -51t147.5 -50t103.5 -31.5q25 -10 59.5 -25.5t65 -36t52 -45.5t21.5 -53l58 -662q0 -53 -54.5 -114.5t-131.5 -114.5t-157.5 -89 t-136.5 -36h-22q-14 0 -17 2q-31 23 -65.5 45.5t-59 44t-33.5 38.5t11 30q49 27 94 72.5t68.5 93t18.5 87.5t-54 56l-264 84q39 53 69.5 101t69.5 102l123 -49v245q-51 4 -70.5 7.5t-36 0t-46 -14.5t-99.5 -38q-23 -35 -47.5 -98.5t-24.5 -155.5q0 -20 2 -60t5.5 -90 t7.5 -105.5t8 -105.5t8 -89t6 -58q27 6 39 4t15.5 -13t2 -29.5t-1.5 -47.5q0 -43 -36.5 -106.5t-87 -122.5t-102.5 -101t-81 -42q-27 0 -63.5 19.5t-69.5 60t-55.5 101t-22.5 144.5v834q-6 0 -18 5t-26.5 12t-27 15.5t-14.5 14.5q0 2 -3 17.5t-7 35t-4 27.5z" />
<glyph unicode="&#xe0;" horiz-adv-x="1294" d="M0 518q0 -123 34 -225.5t144 -190.5q27 -20 53.5 -37.5t63.5 -17.5q39 0 83 34t86 76t79 75.5t65 33.5q14 0 42 -33.5t65 -75.5t81 -76t93 -34h31q14 14 52 43t81 59.5t79.5 59.5t53.5 45q16 10 26.5 14t16.5 9.5t8 11.5t2 20q0 8 -7 20.5t-16.5 25t-18.5 20.5t-15 8 q-20 0 -30.5 -8t-33.5 -8q-18 0 -29.5 17t-16.5 39.5t-7 42t-2 26.5v16v90v33v82v114q0 51 16 119q14 12 32.5 20.5t35 15.5t29 18.5t12.5 33.5q0 35 -29 56.5t-66.5 37t-77.5 27.5t-65 27q-41 18 -71.5 43.5t-60.5 49t-60.5 40t-69.5 16.5q-25 0 -42 -5t-32.5 -12 t-32 -17.5t-38.5 -20.5q-78 -35 -167 -64.5t-168 -68.5t-136.5 -96.5t-69.5 -145.5v-41q0 -37 -1 -67.5t-1 -67.5v-41v-166zM332 1765q-6 -2 13.5 -26.5t52 -60.5t73.5 -75.5t79 -71.5t66.5 -50.5t38.5 -10.5q31 20 57.5 35t47 29t35 31.5t22.5 42.5q8 0 4 6l-4 6l-182 305z M492 590v217v39v96v16l12 58h6h10q10 -4 23.5 -21.5t27.5 -27.5q10 -8 19 -15l8 -6v-512q0 -6 -7 -17t-18.5 -21.5t-21.5 -20.5t-16 -15h-9h-6q-16 7 -16 17q-8 59 -10 111.5t-2 101.5z" />
<glyph unicode="&#xe1;" horiz-adv-x="1294" d="M0 518q0 -123 34 -225.5t144 -190.5q27 -20 53.5 -37.5t63.5 -17.5q39 0 83 34t86 76t79 75.5t65 33.5q14 0 42 -33.5t65 -75.5t81 -76t93 -34h31q14 14 52 43t81 59.5t79.5 59.5t53.5 45q16 10 26.5 14t16.5 9.5t8 11.5t2 20q0 8 -7 20.5t-16.5 25t-18.5 20.5t-15 8 q-20 0 -30.5 -8t-33.5 -8q-18 0 -29.5 17t-16.5 39.5t-7 42t-2 26.5v16v90v33v82v114q0 51 16 119q14 12 32.5 20.5t35 15.5t29 18.5t12.5 33.5q0 35 -29 56.5t-66.5 37t-77.5 27.5t-65 27q-41 18 -71.5 43.5t-60.5 49t-60.5 40t-69.5 16.5q-25 0 -42 -5t-32.5 -12 t-32 -17.5t-38.5 -20.5q-78 -35 -167 -64.5t-168 -68.5t-136.5 -96.5t-69.5 -145.5v-41q0 -37 -1 -67.5t-1 -67.5v-41v-166zM415 1614q-3 -6 3 -6q8 -25 22.5 -42.5t36 -31.5t48 -28.5t57.5 -35.5q8 -8 36.5 10.5t65.5 50.5t77 71.5t72.5 74.5t53 60.5t16.5 27.5l-305 160 l-180 -305zM492 590v217v39v96v16l12 58h6h10q10 -4 23.5 -21.5t27.5 -27.5q10 -8 19 -15l8 -6v-512q0 -6 -7 -17t-18.5 -21.5t-21.5 -20.5t-16 -15h-9h-6q-16 7 -16 17q-8 59 -10 111.5t-2 101.5z" />
<glyph unicode="&#xe2;" horiz-adv-x="1294" d="M-31 1563q-6 -4 19.5 -21.5t67.5 -40t93.5 -47t97.5 -44t82 -29t44 -1.5q23 18 63.5 54t83.5 75t79 72t48 45l242 -258l354 205q4 4 -38 23.5t-109.5 46t-149.5 56.5t-155.5 53.5t-127 36.5t-65.5 9zM0 518q0 -123 34 -225.5t144 -190.5q27 -20 53.5 -37.5t63.5 -17.5 q39 0 83 34t86 76t79 75.5t65 33.5q14 0 42 -33.5t65 -75.5t81 -76t93 -34h31q14 14 52 43t81 59.5t79.5 59.5t53.5 45q16 10 26.5 14t16.5 9.5t8 11.5t2 20q0 8 -7 20.5t-16.5 25t-18.5 20.5t-15 8q-20 0 -30.5 -8t-33.5 -8q-18 0 -29.5 17t-16.5 39.5t-7 42t-2 26.5v16v90 v33v82v114q0 51 16 119q14 12 32.5 20.5t35 15.5t29 18.5t12.5 33.5q0 35 -29 56.5t-66.5 37t-77.5 27.5t-65 27q-41 18 -71.5 43.5t-60.5 49t-60.5 40t-69.5 16.5q-25 0 -42 -5t-32.5 -12t-32 -17.5t-38.5 -20.5q-78 -35 -167 -64.5t-168 -68.5t-136.5 -96.5t-69.5 -145.5 v-41q0 -37 -1 -67.5t-1 -67.5v-41v-166zM492 590v217v39v96v16l12 58h6h10q10 -4 23.5 -21.5t27.5 -27.5q10 -8 19 -15l8 -6v-512q0 -6 -7 -17t-18.5 -21.5t-21.5 -20.5t-16 -15h-9h-6q-16 7 -16 17q-8 59 -10 111.5t-2 101.5z" />
<glyph unicode="&#xe3;" horiz-adv-x="1294" d="M-51 1612q-6 -4 32.5 -21.5t100 -41t136.5 -49t141.5 -45t115.5 -29t60 -1.5q47 35 97 66t79 55l204 -129l375 205q4 4 -33.5 21.5t-99 41t-136.5 49t-141.5 45t-115.5 29t-59 0.5q-53 -37 -89 -77.5t-65 -69.5l-229 156zM0 518q0 -123 34 -225.5t144 -190.5 q27 -20 53.5 -37.5t63.5 -17.5q39 0 83 34t86 76t79 75.5t65 33.5q14 0 42 -33.5t65 -75.5t81 -76t93 -34h31q14 14 52 43t81 59.5t79.5 59.5t53.5 45q16 10 26.5 14t16.5 9.5t8 11.5t2 20q0 8 -7 20.5t-16.5 25t-18.5 20.5t-15 8q-20 0 -30.5 -8t-33.5 -8q-18 0 -29.5 17 t-16.5 39.5t-7 42t-2 26.5v16v90v33v82v114q0 51 16 119q14 12 32.5 20.5t35 15.5t29 18.5t12.5 33.5q0 35 -29 56.5t-66.5 37t-77.5 27.5t-65 27q-41 18 -71.5 43.5t-60.5 49t-60.5 40t-69.5 16.5q-25 0 -42 -5t-32.5 -12t-32 -17.5t-38.5 -20.5q-78 -35 -167 -64.5 t-168 -68.5t-136.5 -96.5t-69.5 -145.5v-41q0 -37 -1 -67.5t-1 -67.5v-41v-166zM492 590v217v39v96v16l12 58h6h10q10 -4 23.5 -21.5t27.5 -27.5q10 -8 19 -15l8 -6v-512q0 -6 -7 -17t-18.5 -21.5t-21.5 -20.5t-16 -15h-9h-6q-16 7 -16 17q-8 59 -10 111.5t-2 101.5z" />
<glyph unicode="&#xe4;" horiz-adv-x="1294" d="M0 518v166v41q0 37 1 67.5t1 67.5v41q12 88 69.5 145.5t136.5 96.5t168 68.5t167 64.5q23 10 39 20.5t31.5 17.5t33 12t41.5 5q39 0 69.5 -16.5t60.5 -40t60.5 -49t71.5 -43.5q25 -14 65 -26.5t77.5 -28t66.5 -37t29 -56.5q0 -23 -12.5 -34t-29 -18t-34.5 -15.5 t-33 -20.5q-16 -68 -16 -119v-114v-82v-33v-90v-16q0 -6 2 -26t7 -42.5t16.5 -39.5t29.5 -17q23 0 33 8t31 8q6 0 15 -8t18.5 -20.5t16.5 -25t7 -20.5q0 -14 -2 -20t-8 -11.5t-16.5 -9.5t-26.5 -14q-16 -16 -53 -45t-80 -59.5t-81 -59.5t-52 -43h-31q-49 0 -93 34t-81 76 t-64.5 75.5t-42.5 33.5q-29 0 -65.5 -33.5t-78.5 -75.5t-86 -76t-83 -34q-37 0 -63.5 17.5t-53.5 37.5q-111 88 -144.5 190.5t-33.5 225.5zM20 1655q0 31 15.5 58.5t39 50t52 43t57.5 38.5q147 -16 213 -67.5t66 -155.5q0 -33 -16.5 -62.5t-43 -51t-63.5 -35t-76 -13.5 q-43 0 -86 17.5t-77.5 45t-57.5 62.5t-23 70zM492 590q0 -49 2 -101.5t10 -111.5q0 -10 16 -17h6h9q6 4 16 14.5t21.5 21t18.5 21.5t7 17v512l-8 6t-19 15q-14 10 -27.5 27.5t-23.5 21.5h-10h-6l-12 -58v-16v-96v-39v-217zM770 1657q0 31 15.5 58.5t39 50t52 43t57.5 38.5 q147 -16 212.5 -67t65.5 -156q0 -33 -16 -62.5t-43 -51t-63.5 -35t-75.5 -13.5q-43 0 -86 17.5t-78 45t-57.5 62.5t-22.5 70z" />
<glyph unicode="&#xe5;" horiz-adv-x="1294" d="M0 518v166v41q0 37 1 67.5t1 67.5v41q12 88 69.5 145.5t136.5 96.5t168 68.5t167 64.5q23 10 39 20.5t31.5 17.5t33 12t41.5 5q39 0 69.5 -16.5t60.5 -40t60.5 -49t71.5 -43.5q25 -14 65 -26.5t77.5 -28t66.5 -37t29 -56.5q0 -23 -12.5 -34t-29 -18t-34.5 -15.5 t-33 -20.5q-16 -68 -16 -119v-114v-82v-33v-90v-16q0 -6 2 -26t7 -42.5t16.5 -39.5t29.5 -17q23 0 33 8t31 8q6 0 15 -8t18.5 -20.5t16.5 -25t7 -20.5q0 -14 -2 -20t-8 -11.5t-16.5 -9.5t-26.5 -14q-16 -16 -53 -45t-80 -59.5t-81 -59.5t-52 -43h-31q-49 0 -93 34t-81 76 t-64.5 75.5t-42.5 33.5q-29 0 -65.5 -33.5t-78.5 -75.5t-86 -76t-83 -34q-37 0 -63.5 17.5t-53.5 37.5q-111 88 -144.5 190.5t-33.5 225.5zM311 1516v8q0 20 37 20v254q0 2 42 8t96.5 13.5t106.5 14.5t73 11q4 0 22.5 4t39 9.5t38.5 10.5t22 9q37 -6 67 -20.5t52.5 -34 t38 -42t25.5 -40.5v-19q0 -12 1 -25.5t1 -25.5v-20q0 -61 -4 -91t-25.5 -45.5t-67 -26.5t-126.5 -36q-6 -2 -22.5 -10t-33 -16.5t-31 -14.5t-18.5 -6l-6 -1q-6 -1 -12 -1q-29 0 -81 13.5t-104.5 31.5t-91.5 38t-39 30zM492 590q0 -49 2 -101.5t10 -111.5q0 -10 16 -17h6h9 q6 4 16 14.5t21.5 21t18.5 21.5t7 17v512l-8 6t-19 15q-14 10 -27.5 27.5t-23.5 21.5h-10h-6l-12 -58v-16v-96v-39v-217zM645 1556q0 -8 13.5 -12t27.5 -4v191q0 4 -12.5 15t-28.5 15v-205z" />
<glyph unicode="&#xe6;" horiz-adv-x="2015" d="M0 518q0 -123 34 -225.5t144 -190.5q27 -20 53.5 -37.5t63.5 -17.5q39 0 83 34t86 76t79 75.5t65 33.5q14 0 42 -33.5t65 -75.5t81 -76t93 -34h31q16 12 46.5 38t71.5 54q84 -59 170 -99t162 -40q29 0 85 22.5t121.5 57.5t135.5 78t127 84t93 74.5t36 52.5q0 29 -21.5 40 t-58.5 11t-65.5 -6t-55 -12.5t-55.5 -12.5t-65 -6q-37 0 -85.5 10t-92.5 28.5t-74.5 45.5t-30.5 61q0 47 42 79t104.5 57.5t136 48t136 50.5t104.5 64.5t42 90.5q0 10 -2 25t-2 18l-278 352q-4 2 -34 13t-46 17h-21q-37 0 -101.5 -15t-140 -40.5t-154.5 -59.5t-146 -71 q-16 6 -29.5 11.5t-24.5 13.5q-41 18 -71.5 43.5t-60.5 49t-60.5 40t-69.5 16.5q-25 0 -42 -5t-32.5 -12t-32 -17.5t-38.5 -20.5q-78 -35 -167 -64.5t-168 -68.5t-136.5 -96.5t-69.5 -145.5v-41q0 -37 -1 -67.5t-1 -67.5v-207zM492 590v368l12 58h16q10 -4 23.5 -21.5 t27.5 -27.5q10 -8 19 -15l8 -6v-512q0 -6 -7 -17t-18.5 -21.5t-21.5 -20.5t-16 -15h-15q-16 7 -16 17q-8 59 -10 111.5t-2 101.5zM1325 737v224q2 -4 13.5 -18.5t24.5 -30t25.5 -30t18.5 -18.5q8 -12 23.5 -36.5t15.5 -26.5q0 -10 -19.5 -21.5t-42 -20.5t-40.5 -15z" />
<glyph unicode="&#xe7;" horiz-adv-x="1140" d="M0 352q0 -41 36 -90t92 -96t122.5 -86t128.5 -60q37 -43 94 -89t111 -83q-27 -12 -61 -18t-66.5 -15.5t-57 -24.5t-32.5 -46q20 -66 88.5 -100.5t169.5 -38.5l112 22q27 25 45.5 43.5t28.5 37t14 39t4 48.5q0 92 -67.5 152.5t-165.5 91.5q45 25 106.5 57.5t120 63 t106.5 57.5t68 39q27 14 42.5 23.5t24.5 18.5t12 21.5t3 32.5q0 23 -13 43.5t-50 20.5q-55 0 -105.5 -17.5t-111.5 -17.5q-31 0 -78 8t-92 24.5t-77 41t-32 57.5v446q12 -16 28.5 -47.5t40 -64.5t55.5 -57.5t75 -24.5q27 0 87 14.5t120.5 39t106.5 56t46 68.5q0 4 -1 10 l-1 6q-8 10 -30.5 46t-48 78t-48 80t-30.5 52q-6 2 -20.5 22.5t-33 44.5t-41 43t-47.5 19q-6 0 -10 -1t-10 -1q-23 -6 -66 -19t-98 -28.5t-114.5 -33t-115 -33t-99.5 -27.5l-66 -18q-29 -10 -63 -25.5t-64.5 -36t-51 -45t-20.5 -53.5v-670z" />
<glyph unicode="&#xe8;" horiz-adv-x="1181" d="M0 416q0 -63 52 -136t130 -135.5t169 -104.5t171 -42q29 0 84.5 22.5t122 57.5t136 78t126 84t93 74.5t36.5 52.5q0 29 -21.5 40t-56.5 11q-37 0 -65.5 -6t-56 -12.5t-56 -12.5t-65.5 -6q-35 0 -84 10t-93 28.5t-75 45.5t-31 61q0 45 42 78t104.5 58.5t135 48t135 50 t104.5 63.5t42 89q0 10 -1 26.5t-1 18.5l-278 353q-2 2 -33 12t-47 18h-23q-37 0 -102.5 -15t-142 -42t-157.5 -61.5t-145.5 -73.5t-106.5 -80t-42 -78v-575zM256 1769q-6 -2 13.5 -26.5t53 -59t73.5 -74.5t78 -72t66.5 -50.5t37.5 -11.5q61 41 103 65.5t58 71.5q8 0 4 6 l-4 6l-182 305zM479 735v223q2 -4 12.5 -18t23.5 -29.5t24.5 -30t17.5 -18.5q10 -12 25.5 -36.5t15.5 -26.5q0 -10 -19.5 -21.5t-42 -20.5t-41 -15.5t-16.5 -6.5z" />
<glyph unicode="&#xe9;" horiz-adv-x="1181" d="M0 416q0 -63 52 -136t130 -135.5t169 -104.5t171 -42q29 0 84.5 22.5t122 57.5t136 78t126 84t93 74.5t36.5 52.5q0 29 -21.5 40t-56.5 11q-37 0 -65.5 -6t-56 -12.5t-56 -12.5t-65.5 -6q-35 0 -84 10t-93 28.5t-75 45.5t-31 61q0 45 42 78t104.5 58.5t135 48t135 50 t104.5 63.5t42 89q0 10 -1 26.5t-1 18.5l-278 353q-2 2 -33 12t-47 18h-23q-37 0 -102.5 -15t-142 -42t-157.5 -61.5t-145.5 -73.5t-106.5 -80t-42 -78v-575zM353 1614q-3 -6 3 -6q8 -25 22.5 -42.5t36 -31.5t48 -28.5t57.5 -35.5q8 -8 36 9.5t64.5 49.5t77.5 71.5t74 75.5 t53.5 61.5t16.5 27.5l-305 160l-181 -305zM479 735v223q2 -4 13.5 -18t23.5 -30.5t24.5 -30t16.5 -17.5q10 -12 25.5 -36.5t15.5 -26.5q0 -10 -18.5 -20.5t-40 -20.5t-41.5 -16z" />
<glyph unicode="&#xea;" horiz-adv-x="1181" d="M-141 1589q-6 -4 21.5 -21.5t71.5 -40t98 -47t103.5 -43t86 -27.5t47.5 -1q23 16 64.5 52t85.5 75t82 72.5t54 46.5l254 -258l373 202q6 4 -38 25t-114.5 47.5t-157.5 55t-164 52t-134 38t-70 10.5zM0 416q0 -63 52 -136t130 -135.5t169 -104.5t171 -42q29 0 84.5 22.5 t122 57.5t136 78t126 84t93 74.5t36.5 52.5q0 29 -21.5 40t-56.5 11q-37 0 -65.5 -6t-56 -12.5t-56 -12.5t-65.5 -6q-35 0 -84 10t-93 28.5t-75 45.5t-31 61q0 45 42 78t104.5 58.5t135 48t135 50t104.5 63.5t42 89q0 10 -1 26.5t-1 18.5l-278 353q-2 2 -33 12t-47 18h-23 q-37 0 -102.5 -15t-142 -42t-157.5 -61.5t-145.5 -73.5t-106.5 -80t-42 -78v-575zM479 735v223q2 -4 13.5 -18t23.5 -30.5t24.5 -30t16.5 -17.5q10 -12 25.5 -36.5t15.5 -26.5q0 -10 -18.5 -20.5t-40 -20.5t-41.5 -16z" />
<glyph unicode="&#xeb;" horiz-adv-x="1181" d="M0 416v575q0 37 42 78t106.5 80t145.5 73.5t157.5 61.5t142 42t102.5 15h23q16 -8 47 -18t33 -12l278 -353q0 -2 1 -18t1 -27q0 -53 -42 -89t-104.5 -63.5t-135 -50t-135 -48t-104.5 -57.5t-42 -79q0 -35 31 -61.5t75 -45t93 -28.5t84 -10q37 0 65.5 6t56 12.5t56.5 12.5 t65 6q35 0 56.5 -11.5t21.5 -39.5q0 -18 -36.5 -52t-93 -75t-126 -84t-136 -78t-122 -57.5t-84.5 -22.5q-80 0 -171 42t-169 104.5t-130 135t-52 136.5zM0 1659q0 31 15.5 58.5t39 51t52 44t57.5 38.5q147 -16 212.5 -68t65.5 -157q0 -33 -16 -62.5t-43 -51t-63.5 -35 t-75.5 -13.5q-43 0 -87 17.5t-79 45t-56.5 62.5t-21.5 70zM479 735q-2 0 16.5 6.5t41 15.5t42 20t19.5 22q0 2 -15.5 26.5t-25.5 36.5q-6 4 -17.5 18.5t-24.5 30t-23.5 29.5t-12.5 18v-223zM680 1659q0 31 15.5 58.5t39 51t52 44t57.5 38.5q150 -16 215 -68t65 -157 q0 -33 -16 -62.5t-44 -51t-63.5 -35t-76.5 -13.5q-43 0 -86 17.5t-78 45t-57.5 62.5t-22.5 70z" />
<glyph unicode="&#xec;" horiz-adv-x="829" d="M2 895l279 223q8 2 24.5 18.5t52.5 16.5q23 0 41.5 -7t42.5 -28l279 -223l3 -6t3 -12q0 -29 -19.5 -47.5t-43 -38t-43 -46t-19.5 -73.5q0 -18 4 -69.5t10.5 -108t13.5 -106.5t13 -69q127 16 127 -63q0 -18 -20.5 -45t-54 -55.5t-74.5 -57t-82 -50t-78 -36t-60 -14.5 q-31 0 -74.5 26.5t-84.5 63.5t-70 75t-29 60v576q-6 0 -21.5 4t-30.5 9t-29.5 10t-18.5 9q-16 10 -33.5 33t-7.5 31zM94 1618l305 160l183 -305l2 -7q2 -6 -2 -6q-8 -25 -22.5 -42t-36 -31.5t-48 -29t-57.5 -34.5q-10 -8 -39 10.5t-67 50t-77.5 71.5t-71.5 76t-52.5 60.5 t-16.5 26.5z" />
<glyph unicode="&#xed;" horiz-adv-x="829" d="M2 895q-10 -8 7.5 -30.5t33.5 -33.5q4 -4 18.5 -9t29.5 -10t30.5 -9t21.5 -4v-576q0 -23 29 -60.5t70 -74.5t85 -63.5t74 -26.5q23 0 60 14.5t78 36t82 50t74.5 57t54 55.5t20.5 45q0 80 -127 63q-6 18 -13 68.5t-13.5 107t-10.5 107.5t-4 70q0 47 19.5 73.5t43 46t43 38 t19.5 47.5q0 6 -3 12l-3 6l-279 223q-25 20 -43 27.5t-41 7.5q-37 0 -53 -16.5t-24 -18.5zM122 1472q-3 -6 3 -6q16 -47 59 -71.5t105 -65.5q6 -8 34.5 10.5t66.5 50t80 71.5t75 76t53 60.5t14 26.5l-305 160l-182 -305z" />
<glyph unicode="&#xee;" horiz-adv-x="829" d="M-266 1438q-4 -4 20.5 -21.5t63.5 -39t86 -46t90 -42t75.5 -27t43.5 -0.5q20 16 58 51t78 71.5t73.5 69.5t46.5 45l225 -250l330 199q2 4 -38 23.5t-102.5 46t-137.5 56.5t-143.5 52.5t-118.5 35.5t-62 7zM2 895q-10 -8 7.5 -30.5t33.5 -33.5q4 -4 18.5 -9t29.5 -10 t30.5 -9t21.5 -4v-576q0 -23 29 -60.5t70 -74.5t85 -63.5t74 -26.5q23 0 60 14.5t78 36t82 50t74.5 57t54 55.5t20.5 45q0 80 -127 63q-6 18 -13 68.5t-13.5 107t-10.5 107.5t-4 70q0 47 19.5 73.5t43 46t43 38t19.5 47.5q0 6 -3 12l-3 6l-279 223q-25 20 -43 27.5t-41 7.5 q-37 0 -53 -16.5t-24 -18.5z" />
<glyph unicode="&#xef;" horiz-adv-x="829" d="M-150 1503q0 31 15.5 58.5t39 51t52 44.5t57.5 39q150 -16 215.5 -67.5t65.5 -155.5q0 -33 -16.5 -63t-44 -51.5t-63.5 -34.5t-77 -13q-43 0 -86 17.5t-77.5 45t-57.5 61t-23 68.5zM2 895l279 223q8 2 24.5 18.5t52.5 16.5q23 0 41.5 -7t42.5 -28l279 -223l3 -6t3 -12 q0 -29 -19.5 -47.5t-43 -38t-43 -46t-19.5 -73.5q0 -20 4 -70.5t10.5 -107t13.5 -106.5t13 -69q127 16 127 -63q0 -18 -20.5 -45t-54 -55.5t-74.5 -57t-82 -50t-78 -36t-60 -14.5q-31 0 -74.5 26.5t-84.5 63.5t-70 75t-29 60v576q-6 0 -21.5 4t-30.5 9t-29.5 10t-18.5 9 q-16 10 -33.5 33t-7.5 31zM463 1507q0 31 15.5 58.5t39 50t52 43.5t57.5 39q147 -16 212.5 -67.5t65.5 -155.5q0 -33 -16.5 -63t-43 -51.5t-63.5 -34.5t-75 -13q-43 0 -86 17.5t-78 45t-57.5 62.5t-22.5 69z" />
<glyph unicode="&#xf0;" horiz-adv-x="1181" d="M-2 971q0 -29 21.5 -40t56.5 -11q37 0 65.5 6t56 12t56.5 12t65 6q37 0 71 -7t73 -19l-64 -90q-8 -4 38 10t114 37q51 -29 51 -76t-42 -79t-105.5 -57.5t-136 -48t-136 -50t-105.5 -64.5t-42 -90q0 -10 3 -25.5t3 -17.5l278 -352q2 -2 33 -13.5t47 -17.5h21 q37 0 103.5 15.5t143 42t157.5 61.5t145.5 73.5t106.5 79.5t42 78v576q0 45 -28.5 96t-75.5 100q37 53 58.5 88t17.5 70q-4 4 -11 4h-4l-184 -55q-72 51 -149.5 82.5t-145.5 31.5q-29 0 -85 -22.5t-121.5 -57t-135.5 -77.5t-127 -84t-93 -76t-36 -51zM520 539q0 8 18.5 19 t40 21.5t41.5 16.5l19 6v-223q-4 6 -15.5 19.5t-23.5 28.5t-23.5 28.5t-19.5 19.5q-8 12 -22.5 37t-14.5 27z" />
<glyph unicode="&#xf1;" horiz-adv-x="1626" d="M0 1055q0 -37 25.5 -47.5t56.5 -13.5t56.5 -7t25.5 -29v-575q-6 -4 -24.5 -17.5t-39 -28.5t-38 -29.5t-19.5 -20.5q-4 -10 5 -23.5t22.5 -28t29 -25.5t23.5 -17l278 -193h41q2 0 40 21.5t88.5 52t103.5 63.5t88 56l39 30v15v18q-2 8 -16.5 31.5t-22.5 31.5v639l39 33 l61 -33v-765q0 -25 32 -60t75 -66.5t86 -53t65 -21.5q10 0 23.5 4t17.5 4l318 193q27 16 43 25t26.5 18.5t14.5 20.5t4 30q0 43 -39 63.5t-86 32.5v575q10 4 23.5 16.5t25.5 28t20.5 30t8.5 22.5l-10 8q-9 8 -20 18.5t-24.5 20.5t-23.5 16l-162 96q-6 2 -30.5 20.5t-52.5 42 t-51.5 43t-25.5 21.5l-7 1q-7 1 -9 1q-49 0 -105.5 -28.5t-112 -65.5t-108.5 -74.5t-98 -56.5q-20 29 -51 68t-69 73.5t-83 58t-94 23.5h-21q-49 -18 -100 -48.5t-99 -66.5t-89 -73t-72 -68q0 -2 -1 -12t-1 -18zM61 1630q-6 -4 33 -22.5t100.5 -42t136.5 -48t142.5 -44 t115.5 -29.5t58 -2q47 35 99.5 66.5t80.5 54.5l201 -127l375 202q6 4 -33 22.5t-101.5 42t-137 48.5t-141 44.5t-116 29.5t-57.5 2q-53 -37 -89 -78t-64 -70l-230 154z" />
<glyph unicode="&#xf2;" d="M2 307q0 -23 36 -54.5t92 -65t125 -68.5t137.5 -61.5t127 -43t92.5 -16.5q10 0 22 1l13 1q8 2 37 20.5t62.5 41t63.5 42t38 23.5q109 47 183.5 75.5t123.5 52.5t77 50.5t40 72.5t15 119.5t3 188.5v47q0 35 -1 72t-1 72v49q-18 55 -50 115.5t-77 114.5t-104.5 96 t-130.5 59q-10 -6 -44 -21.5t-74 -31t-75 -28.5t-45 -16q-29 -10 -85 -21t-125.5 -23.5t-142.5 -24.5t-132.5 -23.5t-98 -20.5t-38.5 -16v-702q-35 0 -49.5 -15.5t-14.5 -37.5v-23zM279 1722q-4 -2 15 -26.5t52 -59t74 -74.5t78 -72t66.5 -51.5t37.5 -11.5q61 41 104.5 66 t59.5 72q4 0 2 6l-2 6l-182 305zM647 416v575q25 -14 52.5 -45t27.5 -51v-518q-25 0 -52.5 9t-27.5 30z" />
<glyph unicode="&#xf3;" d="M2 307q0 -23 36 -54.5t92 -65t125 -68.5t137.5 -61.5t127 -43t92.5 -16.5q10 0 22 1l13 1q10 2 40 20.5t62.5 41t61.5 42t37 23.5q109 47 183.5 75.5t123.5 52.5t77 50.5t40 72.5t15 119.5t3 188.5v47q0 35 -1 72t-1 72v49q-18 55 -50 115.5t-78 114.5t-104.5 96 t-129.5 59q-8 -8 -43 -23.5t-76 -31t-76 -27.5t-43 -15q-29 -10 -85 -21t-125.5 -23.5t-142.5 -24.5t-132.5 -23.5t-98 -20.5t-38.5 -16v-702q-35 0 -49.5 -15.5t-14.5 -37.5v-23zM424 1538q-4 -6 4 -6q16 -49 57 -73.5t103 -65.5q10 -6 38.5 12t65.5 50t77 72t72.5 74.5 t53 59.5t16.5 27l-303 159l-180 -303zM647 416v575q25 -14 52.5 -45t27.5 -51v-518q-25 0 -52.5 9t-27.5 30z" />
<glyph unicode="&#xf4;" d="M-18 1608q-6 -4 21.5 -21.5t71.5 -40t98 -48t103.5 -44t86 -28t47.5 -1.5q23 18 64.5 54.5t85.5 75t82 71.5t54 45l254 -258l373 205q6 4 -39 23.5t-115.5 46t-156.5 56.5t-163 53.5t-134.5 36.5t-69.5 9zM2 307q0 -23 36 -54.5t92 -65t125 -68.5t137.5 -61.5t127 -43 t92.5 -16.5q10 0 22 1l13 1q10 2 40 20.5t62.5 41t61.5 42t37 23.5q109 47 183.5 75.5t123.5 52.5t77 50.5t40 72.5t15 119.5t3 188.5v47q0 35 -1 72t-1 72v49q-18 55 -50 115.5t-78 114.5t-104.5 96t-129.5 59q-8 -8 -43 -23.5t-76 -31t-76 -27.5t-43 -15q-29 -10 -85 -21 t-125.5 -23.5t-142.5 -24.5t-132.5 -23.5t-98 -20.5t-38.5 -16v-702q-35 0 -49.5 -15.5t-14.5 -37.5v-23zM647 416v575q25 -14 52.5 -45t27.5 -51v-518q-25 0 -52.5 9t-27.5 30z" />
<glyph unicode="&#xf5;" d="M-18 1608q-6 -4 32.5 -22.5t100 -42t136.5 -48.5t141.5 -44t115.5 -28.5t59 -1.5q49 35 100.5 66t80.5 53l202 -127l373 205q4 4 -34 21.5t-100.5 41t-137 48t-141 44t-114.5 29.5t-59 2q-53 -37 -89 -77.5t-64 -69.5l-228 153zM2 307q0 -23 36 -54.5t92 -65t125 -68.5 t137.5 -61.5t127 -43t92.5 -16.5q10 0 22 1l13 1q10 2 40 20.5t62.5 41t61.5 42t37 23.5q109 47 183.5 75.5t123.5 52.5t77 50.5t40 72.5t15 119.5t3 188.5v47q0 35 -1 72t-1 72v49q-18 55 -50 115.5t-78 114.5t-104.5 96t-129.5 59q-8 -8 -43 -23.5t-76 -31t-76 -27.5 t-43 -15q-29 -10 -85 -21t-125.5 -23.5t-142.5 -24.5t-132.5 -23.5t-98 -20.5t-38.5 -16v-702q-35 0 -49.5 -15.5t-14.5 -37.5v-23zM647 416v575q25 -14 52.5 -45t27.5 -51v-518q-25 0 -52.5 9t-27.5 30z" />
<glyph unicode="&#xf6;" d="M2 307v23q0 23 14.5 38t49.5 15v702q0 6 38.5 15.5t98 21t132.5 23.5t142.5 24.5t127 23.5t83.5 21q10 2 45 15.5t75 29t73.5 31t44.5 21.5q72 -16 131 -58.5t104 -96.5t77 -114.5t50 -115.5v-49q0 -35 1 -72t1 -72v-47q0 -115 -3 -188.5t-15 -119.5t-40 -72.5t-77 -50.5 t-124 -52.5t-183 -75.5q-8 -4 -38 -23.5t-63.5 -42t-62.5 -41t-37 -20.5l-12 -1t-23 -1q-35 0 -93 16.5t-125.5 43t-137.5 61.5t-126 68.5t-92 65t-36 54.5zM49 1620q0 31 15.5 58.5t39 50t52 43t57.5 38.5q147 -16 213 -67t66 -156q0 -33 -16.5 -62.5t-44.5 -51t-63.5 -35 t-76.5 -13.5q-43 0 -86 17.5t-78 45.5t-56.5 62.5t-21.5 69.5zM647 416q0 -20 27.5 -29.5t52.5 -9.5v518q0 20 -27.5 51t-52.5 45v-575zM799 1622q0 31 15 58.5t39 51t52.5 44.5t57.5 39q147 -16 212.5 -68.5t65.5 -157.5q0 -33 -16.5 -62.5t-43 -51t-63.5 -35t-76 -13.5 q-43 0 -87 17.5t-78.5 45.5t-56 62.5t-21.5 69.5z" />
<glyph unicode="&#xf7;" horiz-adv-x="1079" d="M2 578l492 124l532 -124l4 -4q4 -5 2 -7q-37 -35 -99.5 -51t-162.5 -53q-14 -4 -77.5 2t-151.5 18.5t-185.5 27.5t-178.5 29.5t-132 24.5t-43 13zM358 193q0 31 15.5 58.5t39 50t52 43t57.5 38.5q147 -16 213 -67.5t66 -155.5q0 -33 -16.5 -62.5t-43 -51t-63.5 -35 t-76 -13.5q-43 0 -86 17.5t-78 45t-57.5 62.5t-22.5 70zM358 956q0 31 15.5 58.5t39 50t52 43.5t57.5 39q147 -16 213 -67.5t66 -155.5q0 -33 -16.5 -63t-43 -51.5t-63.5 -34.5t-76 -13q-43 0 -86 17.5t-78 45t-57.5 62.5t-22.5 69z" />
<glyph unicode="&#xf8;" d="M2 307q0 -23 36 -54.5t92 -65t125 -68.5t137.5 -61.5t127 -43t92.5 -16.5q10 0 22 1l13 1q10 2 40 20.5t62.5 41t61.5 42t37 23.5q109 47 183.5 75.5t123.5 52.5t77 50.5t40 72.5t15 119.5t3 188.5v47q0 35 -1 72t-1 72v49q-18 55 -50 115.5t-78 114.5t-104.5 96 t-129.5 59q-8 -8 -43 -23.5t-76 -31t-76 -27.5t-43 -15q-29 -10 -85 -21t-125.5 -23.5t-142.5 -24.5t-132.5 -23.5t-98 -20.5t-38.5 -16v-702q-35 0 -49.5 -15.5t-14.5 -37.5v-23zM647 416v108l80 64l12 -174q-12 0 -28.5 -3t-30.5 -5.5t-23.5 -1t-9.5 11.5zM647 735v256 q25 -14 49.5 -45t30.5 -51l12 -59z" />
<glyph unicode="&#xf9;" horiz-adv-x="1626" d="M0 1024q0 -35 14.5 -47t37 -13t52 3t60.5 4v-555q0 -2 -15.5 -13.5t-25.5 -19.5q-10 -2 -40 -13.5t-40 -17.5l-1 -5t-1 -7q0 -8 1 -14l1 -7q18 -47 73.5 -96t120 -94t124 -79t81.5 -50h21q51 0 95 25.5t89 55.5t92 55.5t103 25.5q53 0 92 -25.5t76 -55.5t76.5 -55.5 t95.5 -25.5q41 0 106.5 26.5t127 66.5t106.5 83t45 78q0 39 -25.5 49t-57.5 12t-57.5 6.5t-25.5 30.5v574q47 35 66.5 60.5t19.5 68.5v22q-6 8 -8 11.5t-10.5 9.5t-29 20.5t-63.5 44.5q-33 20 -71.5 47t-75.5 52.5t-66.5 47t-42.5 31.5q-139 -145 -358 -223v-16v-17 q2 -8 12 -25.5t22.5 -38t25 -37.5t20.5 -26v-575q0 -10 -19.5 -21.5t-42 -20.5t-40.5 -15l-19 -7q0 18 2 51t2 74q0 43 1 93.5t1 101.5q0 104 -3 193.5t-3 125.5q0 43 -17.5 109t-53.5 127t-88 105t-120 44q-10 0 -21 -1t-20 -1q-16 -10 -54 -37.5t-82 -58.5t-84 -58.5 t-58 -35.5q-31 -23 -54.5 -36t-39 -25.5t-22.5 -26.5t-7 -39zM494 1753q-4 -2 16 -26.5t52 -60.5t72 -76t78 -71.5t66.5 -50t38.5 -10.5q31 20 57.5 34.5t48 29t36 32t22.5 41.5q4 0 2 7l-2 6l-182 305z" />
<glyph unicode="&#xfa;" horiz-adv-x="1626" d="M0 1024q0 -35 14.5 -47t37 -13t52 3t60.5 4v-555q0 -2 -15.5 -13.5t-25.5 -19.5q-10 -2 -40 -13.5t-40 -17.5l-1 -5t-1 -7q0 -8 1 -14l1 -7q18 -47 73.5 -95t120 -92t124 -79t81.5 -53h21q51 0 95 25.5t89 55.5t92 55.5t103 25.5q53 0 92 -25.5t76 -55.5t76.5 -55.5 t95.5 -25.5q41 0 106.5 26.5t127 66.5t106.5 83t45 78q0 39 -25.5 49t-57.5 12t-57.5 6.5t-25.5 30.5v574q47 35 66.5 60.5t19.5 68.5v22q-4 8 -6 11.5t-11.5 9.5t-31 20.5t-62.5 44.5q-33 20 -72.5 47t-76.5 53.5t-65.5 47t-41.5 30.5q-143 -145 -358 -223v-16v-17 q2 -6 12 -24.5t22.5 -37.5t25 -37.5t20.5 -27.5v-575q0 -10 -18.5 -20.5t-41 -20.5t-41 -16.5t-20.5 -6.5q0 18 2 51t2 74q0 43 1 93.5t1 101.5q0 104 -3 193.5t-3 125.5q0 43 -17.5 109t-53.5 127t-88 105t-120 44q-10 0 -21 -1t-20 -1q-16 -10 -55 -37.5t-83 -58.5 t-84 -57.5t-56 -36.5q-31 -23 -54.5 -36t-39 -25.5t-22.5 -26.5t-7 -39zM590 1608q-4 -6 4 -6q16 -47 58 -72t104 -66q8 -8 36.5 10.5t65.5 50t77 71.5t71.5 76t52 60.5t18.5 26.5l-305 160l-178 -305z" />
<glyph unicode="&#xfb;" horiz-adv-x="1626" d="M0 1024q0 -35 14.5 -47t37 -13t52 3t60.5 4v-555q0 -2 -15.5 -13.5t-25.5 -19.5q-10 -2 -40 -13.5t-40 -17.5l-1 -5t-1 -7q0 -8 1 -14l1 -7q18 -47 73.5 -95t120 -92t124 -79t81.5 -53h21q51 0 95 25.5t89 55.5t92 55.5t103 25.5q53 0 92 -25.5t76 -55.5t76.5 -55.5 t95.5 -25.5q41 0 106.5 26.5t127 66.5t106.5 83t45 78q0 39 -25.5 49t-57.5 12t-57.5 6.5t-25.5 30.5v574q47 35 66.5 60.5t19.5 68.5v22q-4 8 -6 11.5t-11.5 9.5t-31 20.5t-62.5 44.5q-33 20 -72.5 47t-76.5 53.5t-65.5 47t-41.5 30.5q-143 -145 -358 -223v-16v-17 q2 -6 12 -24.5t22.5 -37.5t25 -37.5t20.5 -27.5v-575q0 -10 -18.5 -20.5t-41 -20.5t-41 -16.5t-20.5 -6.5q0 18 2 51t2 74q0 43 1 93.5t1 101.5q0 104 -3 193.5t-3 125.5q0 43 -17.5 109t-53.5 127t-88 105t-120 44q-10 0 -21 -1t-20 -1q-16 -10 -55 -37.5t-83 -58.5 t-84 -57.5t-56 -36.5q-31 -23 -54.5 -36t-39 -25.5t-22.5 -26.5t-7 -39zM92 1583q-6 -4 21.5 -21.5t71.5 -40t98.5 -48t103.5 -44t86 -27.5t47 -1q25 18 67 54t86 75t82 71.5t54 45.5l250 -258l375 204q6 4 -39 23.5t-116 46.5t-157 56.5t-162.5 53t-134 37t-69.5 9.5z" />
<glyph unicode="&#xfc;" horiz-adv-x="1626" d="M0 1024q0 25 7 39t22.5 26.5t39 25.5t54.5 36q18 8 58 35.5t84 58.5t82 58.5t54 37.5q8 0 19.5 1t21.5 1q68 0 120 -44t88 -105t53.5 -127t17.5 -109q0 -37 3 -126t3 -193q0 -51 -1 -101.5t-1 -93.5q0 -41 -2 -73.5t-2 -51.5l19 7q18 6 40.5 15t42 20.5t19.5 21.5v575 q-8 8 -20.5 25.5t-25 38t-22.5 38t-12 25.5v17v16q219 78 358 223q18 -12 63.5 -43.5t96.5 -66.5t97 -68t65 -45q29 -18 37 -24.5t8 -16.5v-22q0 -43 -19.5 -68.5t-66.5 -60.5v-574q0 -27 25.5 -31t57.5 -6t57.5 -12t25.5 -49q0 -35 -45 -78t-106.5 -83t-127 -66.5 t-106.5 -26.5q-55 0 -95 25.5t-77 55.5t-76 55.5t-92 25.5q-55 0 -102.5 -25.5t-92.5 -55.5t-89 -55.5t-95 -25.5h-21q-23 16 -82 50t-123.5 79t-120 94t-73.5 96l-1 7q-1 6 -1 14q0 2 1 7l1 5q10 6 40 17.5t40 13.5q10 8 25.5 19.5t15.5 13.5v555q-31 0 -60.5 -4t-52 -3 t-37 13t-14.5 47zM186 1657q0 31 15.5 58.5t39 50t52 43t57.5 38.5q147 -16 213 -67t66 -156q0 -33 -16.5 -62.5t-43 -51t-63.5 -35t-76 -13.5q-43 0 -86 17.5t-78 45t-57.5 62.5t-22.5 70zM936 1659q0 31 15.5 58.5t39 51t52 44t57.5 38.5q147 -16 213.5 -68t66.5 -157 q0 -33 -16 -62.5t-44 -51t-63.5 -35t-76.5 -13.5q-43 0 -86 17.5t-79 45t-57.5 62.5t-21.5 70z" />
<glyph unicode="&#xfd;" horiz-adv-x="1062" d="M0 1120q0 -61 14.5 -116.5t30.5 -109.5t30.5 -111.5t14.5 -120.5q0 -51 -8 -96.5t-17.5 -89.5t-16.5 -87t-7 -92q0 -39 27.5 -81t68.5 -76t86 -56.5t82 -22.5q2 0 9 1l8 1q10 8 43.5 29t73.5 43.5t75 44t49 31.5q0 -8 1 -26.5t1 -39.5q0 -20 1 -38.5t1 -22.5 q0 -76 -12 -125t-41 -89t-75.5 -80t-116.5 -95q2 -18 20 -26.5t39.5 -11.5t41 -2t26.5 1q43 0 101 19.5t119.5 53t121 79t106.5 94.5t75.5 99t28.5 97v883q-10 23 -25 54.5t-44 47.5l-131 119l-7 1q-8 1 -12 1q-8 0 -14 -1l-6 -1l-199 -112l-82 -35l-200 182l-1 8 q-1 8 -1 10q0 12 14 23.5t34.5 22t41 20.5t32.5 22q-25 51 -49 64.5t-71 13.5q-78 0 -131.5 -23.5t-86 -64.5t-48 -95t-15.5 -118zM337 1608q-3 -6 3 -6q16 -47 59 -72t105 -66q8 -8 37.5 11.5t66.5 51.5t78 71.5t74 74.5t52 59.5t15 26.5l-305 160l-182 -305zM522 385v485 l41 37q45 -68 45 -147v-146v-39q0 -29 -3 -54t-3 -54v-37q-25 -45 -80 -45z" />
<glyph unicode="&#xfe;" horiz-adv-x="1105" d="M0 406v38q0 59 26.5 107.5t59.5 94.5t59.5 96.5t26.5 113.5q0 57 -14.5 102.5t-31.5 86t-31.5 83.5t-14.5 99q0 111 57.5 173t188.5 62q14 0 32.5 1t35 -1t29.5 -10t21 -27l-77 -71q39 -14 69.5 -60.5t57 -101.5t48 -109.5t40.5 -85.5q2 0 38.5 22.5t86 49.5t97.5 49.5 t75 22.5t58.5 -29t59 -65.5t45 -70.5t17.5 -46v-596q0 -12 -38 -36t-94.5 -52.5t-123 -58t-123.5 -57.5t-97 -48.5t-42 -28.5q-6 -12 -14.5 -31.5t-16.5 -40t-15.5 -39t-9.5 -26.5q-12 -33 -17 -53.5t-10 -32.5t-15.5 -17.5t-32.5 -5.5q-43 0 -74 34t-53.5 87.5t-36 119 t-22.5 128t-13 115.5t-6 82q-6 0 -19.5 2t-19.5 2q-18 0 -30.5 -7.5t-24 -14.5t-22.5 -14t-26 -7q-37 0 -50 21.5t-13 50.5zM582 506l77 -68v385l-41 35l-36 -35v-317z" />
<glyph unicode="&#xff;" horiz-adv-x="1062" d="M0 1120q0 -61 14.5 -116.5t30.5 -109.5t30.5 -111.5t14.5 -120.5q0 -51 -8 -96.5t-17.5 -89.5t-16.5 -87t-7 -92q0 -39 27.5 -81t68.5 -76t86 -56.5t82 -22.5q2 0 9 1l8 1q14 8 47.5 29t72.5 43.5t73 44t48 31.5q0 -8 1 -26.5t1 -39.5q0 -20 1 -38.5t1 -22.5 q0 -76 -12 -125t-41 -89t-75.5 -80t-116.5 -95q2 -18 19 -26.5t37.5 -11.5t40 -2t30.5 1q43 0 101 19.5t119.5 53t121 79t106.5 94.5t75.5 99t28.5 97v883q-10 23 -25 54.5t-44 47.5l-131 119l-7 1q-8 1 -12 1q-8 0 -14 -1l-6 -1l-199 -112l-82 -35l-200 182l-1 8 q-1 8 -1 10q0 12 14 23.5t34.5 22t41 20.5t32.5 22q-25 51 -49 64.5t-71 13.5q-78 0 -131.5 -23.5t-86 -64.5t-48 -95t-15.5 -118zM18 1661q0 -35 21.5 -70t56.5 -62.5t78 -45t86 -17.5q41 0 78 13.5t64.5 35t43 51t15.5 64.5q0 104 -66 155.5t-213 67.5 q-29 -18 -57.5 -38.5t-52 -44t-39 -51t-15.5 -58.5zM522 385v485l41 37q45 -68 45 -147v-146v-39q0 -29 -3 -54t-3 -54v-37q-25 -45 -80 -45zM627 1661q0 -35 21.5 -70t57 -62.5t78.5 -45t86 -17.5q41 0 78 13.5t63.5 35t42 51t15.5 64.5q0 104 -67 155.5t-214 67.5 q-27 -18 -55 -38.5t-52 -44t-39 -51t-15 -58.5z" />
<glyph unicode="&#x152;" horiz-adv-x="2048" d="M0 352q0 -53 54.5 -114.5t131 -114.5t158.5 -89t135 -36q10 0 23.5 1t17.5 1q25 10 81 41t124 66.5t133.5 71.5t108.5 59q41 -47 95 -90.5t112.5 -76t117 -52t111.5 -19.5q29 0 85 22.5t121.5 57.5t135.5 78t127 84t93 74.5t36 52.5q0 29 -21.5 40t-56.5 11t-63.5 -6 t-56 -12.5t-57.5 -12.5t-67 -6q-35 0 -84 10t-93 28.5t-74.5 45.5t-30.5 61q0 47 42 79t105.5 57.5t136 48t136 50.5t105.5 64.5t42 90.5q0 10 -2 25t-2 18l-281 352l-10 4l-22.5 9t-25.5 9t-22 8h-20q-43 0 -119 -18t-163 -49t-173 -72t-147 -86q-20 31 -36.5 56.5 t-20.5 39.5q-6 2 -20.5 22.5t-33 44.5t-41 43t-47.5 19q-6 0 -10 -1t-10 -1q-23 -6 -66 -19t-98 -28.5t-114.5 -33t-115 -33t-99.5 -27.5l-66 -18q-29 -10 -63 -25.5t-64.5 -36t-51 -45t-20.5 -53.5v-670zM520 512v446q12 -16 28.5 -47.5t40 -64.5t55.5 -57.5t75 -24.5 q51 0 162 35v-381v-27q-31 -10 -82 -10q-31 0 -78 8t-92 24.5t-77 41t-32 57.5zM1362 737v221q2 -4 12 -17t22.5 -28.5t26 -29l19.5 -19.5q10 -12 23.5 -36.5t13.5 -26.5q0 -10 -18.5 -20.5t-40 -20.5t-40.5 -16z" />
<glyph unicode="&#x153;" horiz-adv-x="2048" d="M0 352q0 -53 54.5 -114.5t131 -114.5t158.5 -89t135 -36q10 0 23.5 1t17.5 1q25 10 81 41t124 66.5t133.5 71.5t108.5 59q41 -47 95 -90.5t112.5 -76t117 -52t111.5 -19.5q29 0 85 22.5t121.5 57.5t135.5 78t127 84t93 74.5t36 52.5q0 29 -21.5 40t-56.5 11t-63.5 -6 t-56 -12.5t-57.5 -12.5t-67 -6q-35 0 -84 10t-93 28.5t-74.5 45.5t-30.5 61q0 47 42 79t105.5 57.5t136 48t136 50.5t105.5 64.5t42 90.5q0 10 -2 25t-2 18l-281 352l-10 4l-22.5 9t-25.5 9t-22 8h-20q-43 0 -119 -18t-163 -49t-173 -72t-147 -86q-20 31 -36.5 56.5 t-20.5 39.5q-6 2 -20.5 22.5t-33 44.5t-41 43t-47.5 19q-6 0 -10 -1t-10 -1q-23 -6 -66 -19t-98 -28.5t-114.5 -33t-115 -33t-99.5 -27.5l-66 -18q-29 -10 -63 -25.5t-64.5 -36t-51 -45t-20.5 -53.5v-670zM520 512v446q12 -16 28.5 -47.5t40 -64.5t55.5 -57.5t75 -24.5 q51 0 162 35v-381v-27q-31 -10 -82 -10q-31 0 -78 8t-92 24.5t-77 41t-32 57.5zM1362 737v221q2 -4 12 -17t22.5 -28.5t26 -29l19.5 -19.5q10 -12 23.5 -36.5t13.5 -26.5q0 -10 -18.5 -20.5t-40 -20.5t-40.5 -16z" />
<glyph unicode="&#x178;" horiz-adv-x="1062" d="M0 1120q0 -61 14.5 -116.5t30.5 -109.5t30.5 -111.5t14.5 -120.5q0 -51 -8 -96.5t-17.5 -89.5t-16.5 -87t-7 -92q0 -39 27.5 -81t68.5 -76t86 -56.5t82 -22.5q2 0 9 1l8 1q14 8 47.5 29t72.5 43.5t73 44t48 31.5q0 -8 1 -26.5t1 -39.5q0 -20 1 -38.5t1 -22.5 q0 -76 -12 -125t-41 -89t-75.5 -80t-116.5 -95q2 -18 19 -26.5t37.5 -11.5t40 -2t30.5 1q43 0 101 19.5t119.5 53t121 79t106.5 94.5t75.5 99t28.5 97v883q-10 23 -25 54.5t-44 47.5l-131 119l-7 1q-8 1 -12 1q-8 0 -14 -1l-6 -1l-199 -112l-82 -35l-200 182l-1 8 q-1 8 -1 10q0 12 14 23.5t34.5 22t41 20.5t32.5 22q-25 51 -49 64.5t-71 13.5q-78 0 -131.5 -23.5t-86 -64.5t-48 -95t-15.5 -118zM18 1661q0 -35 21.5 -70t56.5 -62.5t78 -45t86 -17.5q41 0 78 13.5t64.5 35t43 51t15.5 64.5q0 104 -66 155.5t-213 67.5 q-29 -18 -57.5 -38.5t-52 -44t-39 -51t-15.5 -58.5zM522 385v485l41 37q45 -68 45 -147v-146v-39q0 -29 -3 -54t-3 -54v-37q-25 -45 -80 -45zM627 1661q0 -35 21.5 -70t57 -62.5t78.5 -45t86 -17.5q41 0 78 13.5t63.5 35t42 51t15.5 64.5q0 104 -67 155.5t-214 67.5 q-27 -18 -55 -38.5t-52 -44t-39 -51t-15 -58.5z" />
<glyph unicode="&#x2c6;" horiz-adv-x="1394" d="M2 1608l664 235q12 4 69.5 -9t134 -36.5t162.5 -52.5t157 -55.5t116 -46t41 -25.5l-375 -205l-252 258q-16 -12 -54 -45t-83 -71.5t-87 -74.5t-65 -55q-10 -8 -47 1.5t-86 28t-103.5 44t-98.5 48t-71.5 40t-21.5 21.5z" />
<glyph unicode="&#x2dc;" horiz-adv-x="1394" d="M2 1630l377 203l225 -154q29 29 65 70t89 78q10 8 59 -2t115.5 -29.5t142.5 -44.5t137.5 -48.5t100.5 -42t33 -22.5l-375 -202l-203 127q-29 -23 -78 -54.5t-102 -66.5q-10 -8 -58.5 2t-115 29.5t-141 44t-137 48t-101.5 42t-33 22.5z" />
<glyph unicode="&#x2000;" horiz-adv-x="964" />
<glyph unicode="&#x2001;" horiz-adv-x="1929" />
<glyph unicode="&#x2002;" horiz-adv-x="964" />
<glyph unicode="&#x2003;" horiz-adv-x="1929" />
<glyph unicode="&#x2004;" horiz-adv-x="643" />
<glyph unicode="&#x2005;" horiz-adv-x="482" />
<glyph unicode="&#x2006;" horiz-adv-x="321" />
<glyph unicode="&#x2007;" horiz-adv-x="321" />
<glyph unicode="&#x2008;" horiz-adv-x="241" />
<glyph unicode="&#x2009;" horiz-adv-x="385" />
<glyph unicode="&#x200a;" horiz-adv-x="107" />
<glyph unicode="&#x2010;" horiz-adv-x="839" d="M2 713q-6 -4 33 -21.5t100.5 -41t136 -49.5t141 -45t116 -28.5t59.5 -1.5q78 53 127 86t73 86q6 2 0 8l-6 7l-403 205z" />
<glyph unicode="&#x2011;" horiz-adv-x="839" d="M2 713q-6 -4 33 -21.5t100.5 -41t136 -49.5t141 -45t116 -28.5t59.5 -1.5q78 53 127 86t73 86q6 2 0 8l-6 7l-403 205z" />
<glyph unicode="&#x2012;" horiz-adv-x="839" d="M2 713q-6 -4 33 -21.5t100.5 -41t136 -49.5t141 -45t116 -28.5t59.5 -1.5q78 53 127 86t73 86q6 2 0 8l-6 7l-403 205z" />
<glyph unicode="&#x2013;" horiz-adv-x="839" d="M2 713q-6 -4 33 -21.5t100.5 -41t136 -49.5t141 -45t116 -28.5t59.5 -1.5q78 53 127 86t73 86q6 2 0 8l-6 7l-403 205z" />
<glyph unicode="&#x2014;" horiz-adv-x="1271" d="M2 713l582 205l628 -205l8 -7q7 -6 3 -8q-20 -29 -49 -49t-68 -38.5t-88 -38t-107 -46.5q-14 -8 -90 2.5t-179 28.5t-220 44t-212 48.5t-155.5 41t-52.5 22.5z" />
<glyph unicode="&#x2018;" horiz-adv-x="638" d="M-2 1253q0 -119 43 -207t162 -161l303 51l82 168l-146 196l-161 191l-37 33l-8 1q-9 1 -17 1q-2 0 -8 -1t-8 -1q-20 -6 -51 -26.5t-62 -45.5t-55.5 -49.5t-32.5 -38.5l-1 -12q-1 -13 -1 -31q0 -16 -1 -34.5t-1 -33.5z" />
<glyph unicode="&#x2019;" horiz-adv-x="638" d="M-6 1305l147 -197l160 -190l39 -33l7 -1t15 -1q4 0 10.5 1t8.5 1q18 2 50 22.5t63.5 47t56 52t31.5 37.5l1 12q1 13 1 29q0 18 1 37t1 33q0 119 -44 207t-161 162l-305 -51z" />
<glyph unicode="&#x201a;" horiz-adv-x="573" d="M0 -258q0 55 46 109.5t171 115.5q-29 14 -61.5 35t-61 47.5t-50 59t-26.5 71.5q25 86 98.5 130t184.5 50l127 -26q31 -33 50.5 -56.5t29.5 -47t14 -51t4 -66.5q0 -94 -49 -164t-126 -116t-170 -68.5t-181 -22.5z" />
<glyph unicode="&#x201c;" horiz-adv-x="1273" d="M0 1255q0 -119 44 -206.5t161 -161.5l305 51l84 168l-150 197l-157 192l-41 31l-8 1q-7 1 -13 1t-10 -1t-10 -1q-20 -6 -51 -26.5t-62 -45t-55.5 -49.5t-32.5 -39l-1 -12q-1 -13 -1 -31q0 -16 -1 -34.5t-1 -33.5zM635 1257q0 -117 45 -205.5t162 -162.5l305 53l82 166 l-150 197l-157 192l-41 31l-7 2q-6 2 -14 2q-2 0 -9 -2t-9 -2q-20 -6 -51 -26.5t-61 -45t-54.5 -49.5t-32.5 -39q0 -2 -2 -20.5t-4 -45t-2 -45.5z" />
<glyph unicode="&#x201d;" horiz-adv-x="1273" d="M0 1311l147 -197l160 -192l41 -33l6 -1t15 -1q2 0 8 1t10 1q20 2 52 23.5t62.5 47t55.5 51t29 38.5q0 2 1 14t3 28.5t3 35t1 32.5q0 119 -45 207t-162 162l-305 -51zM635 1313l147 -197l160 -192l41 -31l7 -2q7 -2 14 -2q6 0 10 2t10 2q18 2 50 22.5t62.5 46t55.5 52 t31 39.5l2 12q2 12 2 29q0 18 1 36.5t1 32.5q0 117 -44 206t-161 163l-305 -53z" />
<glyph unicode="&#x201e;" horiz-adv-x="1140" d="M0 -258q88 0 181 22.5t170 68.5t126 115.5t49 164.5q0 39 -4 66.5t-14 51t-29.5 47t-50.5 56.5l-127 26q-111 -6 -184.5 -50t-98.5 -130q4 -39 26 -71.5t51.5 -59t62 -47t59.5 -35.5q-66 -33 -107.5 -61.5t-66.5 -55t-34 -53t-9 -55.5zM567 -260q88 0 181.5 22.5 t170 68.5t127 115.5t50.5 164.5q0 39 -4.5 66.5t-15.5 51t-30.5 47t-50.5 56.5l-125 26q-111 -8 -185.5 -51t-98.5 -131q4 -39 25.5 -71.5t51 -58.5t62.5 -46t61 -35q-66 -33 -107.5 -61.5t-66 -55t-35 -53t-10.5 -55.5z" />
<glyph unicode="&#x2022;" d="M2 307v23q0 23 14.5 38t49.5 15v702q0 6 38.5 15.5t98 21t132.5 23.5t142.5 24.5t127 23.5t83.5 21q8 2 43 14.5t76 28t76 31t43 23.5q72 -16 130 -58.5t104 -96.5t78 -114.5t50 -115.5v-49q0 -35 1 -72t1 -72v-47q0 -115 -3 -188.5t-15 -119.5t-40 -72.5t-77 -50.5 t-124 -52.5t-183 -75.5q-8 -4 -37 -23.5t-61.5 -42t-62.5 -41t-40 -20.5l-12 -1t-23 -1q-35 0 -93 16.5t-125.5 43t-137.5 61.5t-126 68.5t-92 65t-36 54.5z" />
<glyph unicode="&#x2026;" horiz-adv-x="1628" d="M0 193q0 31 15.5 58.5t39 50t52 43t57.5 38.5q147 -16 212.5 -67.5t65.5 -155.5q0 -33 -16 -62.5t-43 -51t-63.5 -35t-75.5 -13.5q-43 0 -87 17.5t-79 45t-56.5 62.5t-21.5 70zM496 195q0 31 15 58.5t38.5 50t52 43t57.5 38.5q150 -16 215.5 -67.5t65.5 -155.5 q0 -33 -16.5 -62.5t-44 -51t-63.5 -35t-77 -13.5q-43 0 -86 17.5t-77.5 45t-57 62.5t-22.5 70zM985 195q0 31 15.5 58.5t39 50t52 43t57.5 38.5q147 -16 212.5 -67.5t65.5 -155.5q0 -33 -16 -62.5t-43 -51t-63.5 -35t-75.5 -13.5q-43 0 -86 17.5t-78 45t-57.5 62.5t-22.5 70 z" />
<glyph unicode="&#x202f;" horiz-adv-x="385" />
<glyph unicode="&#x2039;" horiz-adv-x="585" d="M2 692q-6 -10 11.5 -55t47 -106.5t65.5 -130t69.5 -126t58.5 -93.5t33 -31l254 301l-324 200q14 10 56 41t90.5 67t93.5 70.5t67 53.5q10 8 -1 37.5t-34.5 68.5t-54.5 83t-59.5 79t-51 56.5t-26.5 17.5z" />
<glyph unicode="&#x203a;" horiz-adv-x="585" d="M0 451l322 200q-16 10 -58.5 41t-90.5 67t-93 70.5t-66 53.5q-10 8 1.5 37.5t36 68.5t55 83t59.5 79t51.5 56.5t26.5 17.5l293 -533q6 -10 -10.5 -55t-46 -107.5t-65.5 -131t-70 -126t-58.5 -92.5t-30.5 -30z" />
<glyph unicode="&#x205f;" horiz-adv-x="482" />
<glyph unicode="&#x20ac;" horiz-adv-x="1687" d="M2 539q-4 -2 22.5 -9.5t72.5 -17.5t105.5 -22.5t123 -23.5t124 -21.5t107.5 -16.5v-76q0 -53 55.5 -114.5t132 -114.5t158.5 -89t135 -36q8 0 22.5 1t16.5 1q27 12 95.5 48t145.5 78t145.5 79t92.5 51q27 14 43.5 23.5t25.5 18.5t12 21.5t3 32.5q0 23 -13 43.5t-50 20.5 q-55 0 -106.5 -17.5t-114.5 -17.5q-31 0 -78 8t-92 24.5t-77 41t-32 57.5v446q12 -16 29.5 -47.5t41 -64.5t55.5 -57.5t75 -24.5q27 0 87 14.5t121.5 39t107.5 56t46 68.5q0 4 -1 10l-1 6q-10 10 -32.5 46t-48 78t-48 80t-32.5 52q-6 2 -20.5 22.5t-33 44.5t-41 43t-47.5 19 q-2 0 -8 -1t-8 -1q-23 -6 -67 -19t-98 -28.5t-114.5 -33t-116 -33t-99.5 -27.5l-66 -18q-27 -10 -61.5 -25.5t-65.5 -36t-52.5 -45t-21.5 -53.5v-109l-86 25l-420 -123q-4 -2 45 -14.5t126 -28.5t167 -32.5t168 -26.5v-88l-137 37z" />
<glyph unicode="&#x2122;" horiz-adv-x="1505" d="M0 987l10 3t21.5 8.5t20.5 10.5t9 11v223q-29 16 -45 28.5t-16 35.5v18q49 33 85 63.5t64.5 64.5t55 72t55.5 87l49 -31v-192q14 -4 37 -7.5t43.5 -9.5t35.5 -17.5t15 -29.5q0 -45 -32.5 -59.5t-88.5 -3.5v-246q6 0 21.5 3t38.5 3q16 0 30.5 -5t14.5 -22 q0 -16 -28.5 -39.5t-65.5 -47t-75 -41t-56 -21.5q-23 14 -52.5 28.5t-59.5 32t-54.5 36.5t-32.5 44zM516 1380l14 16q15 15 25 21q18 14 48 38t49.5 39t23.5 17h41l100 -94q0 -4 20.5 9.5t48 31t53.5 33.5t38 20l3 1q3 1 7 1l8 -2l101 -94l1 -1q1 -1 9 -1q16 0 37.5 13.5 t43 30t40 32.5t30.5 20l3 1q2 1 4 1q6 0 8 -1l2 -1q10 -4 30.5 -20t43 -34.5t41 -35t26.5 -20.5q8 -6 13 -13l6 -8v-8v-10q0 -6 -5.5 -20.5t-13.5 -18.5v-305q8 -6 20.5 -19.5t20.5 -17.5l2 -10q0 -14 -19.5 -36t-45 -41.5t-54 -33.5t-47.5 -14q-12 0 -32.5 12t-41 30.5 t-36 38t-15.5 36.5v354q-8 0 -14 3t-16 3q-20 0 -21 -18v-287q23 -29 23 -55q0 -18 -15.5 -40t-37 -38.5t-47 -27.5t-44.5 -11q-20 0 -36.5 12t-31 27.5t-30.5 28t-37 12.5q-27 0 -46 -12.5t-35.5 -28t-34 -27.5t-37.5 -12q-2 0 -7 1l-4 1q-6 6 -27.5 20.5t-50.5 36.5 q-8 14 -22 19q-8 6 -20.5 19t-20.5 20v8v10q8 4 11 17.5t12 19.5v305q-8 0 -20.5 5t-23 13.5t-16.5 18.5t-2 20zM834 1018h40v323l-40 -18v-305z" />
<glyph unicode="&#x25fc;" horiz-adv-x="1331" d="M0 0v1331h1331v-1331h-1331z" />
</font>
</defs>
</svg>
